<svg width="203mm" height="248mm" viewBox="0 0 203 248" xmlns="http://www.w3.org/2000/svg"><path d="M101.498 246.503a100.059 100.059 0 0 0 70.711-29.255 99.822 99.822 0 0 0 29.29-70.628v-27.617h-100z"/><path d="M7.897 181.503c4.967 13.193 12.72 25.586 22.891 35.745a100.058 100.058 0 0 0 70.71 29.255v-65z" fill="#0066b3"/><path d="M51.498 119.003h-50v27.617c0 12.124 2.207 23.749 6.399 34.883h43.6z" fill="#fff"/><path d="M1.5 1.5h100V119H1.5z" fill="#fd0"/><path d="M101.498 1.5h100V119h-100V1.5" fill="#fff"/><path d="M51.498 181.503h50v-62.5h-50z" fill="#ed1c24"/><g fill="#fd0"><path d="M101.498 131.531v12.75h100v-12.75zM101.498 233.753v12.75c17.27 0 34.08-4.464 48.885-12.75zM101.498 208.198v12.75h66.8a99.923 99.923 0 0 0 11.935-12.75zM101.498 182.642v12.75h87.267a99.875 99.875 0 0 0 6.004-12.75zM101.498 157.087v12.75h97.262a99.72 99.72 0 0 0 2.186-12.75z"/></g><g stroke="#000"><path d="M101.668 119.003c-.053.07-.104.14-.162.21l-.008.163v23.68l61.163 82.585a99.97 99.97 0 0 0 14.906-14.187c-3.77-.637-5.286-4.363-2.57-8.57-5.018 1.442-8.325-1.41-7.598-5.3.106.237.237.462.394.67a3.497 3.497 0 0 0 5.998-3.5 3.5 3.5 0 1 0-2.972-6.182 3.48 3.48 0 0 0-.92 1.053 3.498 3.498 0 0 0-4.986 4.834c.133.175.282.335.446.481-3.921-.482-5.808-4.459-2.967-8.664-4.796 1.627-8.144-1.217-7.538-5.173.094.19.205.374.334.543a3.497 3.497 0 0 0 5.998-3.499 3.5 3.5 0 1 0-2.973-6.18 3.479 3.479 0 0 0-.918 1.051 3.498 3.498 0 0 0-4.516 5.34c-3.966-.425-5.769-4.388-2.991-8.689-4.96 1.418-8.248-1.308-7.565-5.228.1.21.218.412.36.598a3.498 3.498 0 0 0 5.998-3.499 3.5 3.5 0 1 0-2.973-6.181 3.48 3.48 0 0 0-.919 1.052 3.498 3.498 0 0 0-4.986 4.834c.125.166.268.318.422.458-3.963-.509-5.814-4.525-2.943-8.64-4.981 1.399-8.252-1.292-7.561-5.223.098.208.217.408.356.592a3.498 3.498 0 0 0 5.998-3.5 3.5 3.5 0 1 0-2.972-6.181 3.477 3.477 0 0 0-.92 1.053 3.498 3.498 0 0 0-4.986 4.834c.164.215.354.409.563.58-4.012-.324-5.902-4.38-3.083-8.762-4.899 1.372-8.003-1.269-7.493-5.087.084.158.178.311.287.455a3.498 3.498 0 0 0 5.999-3.499 3.5 3.5 0 0 0 1.931-5.509h0a3.5 3.5 0 0 0-4.904-.672 3.478 3.478 0 0 0-.919 1.052 3.499 3.499 0 0 0-4.986 4.835c.126.166.266.317.418.457-4.061-.475-5.886-4.395-2.94-8.64-2.544.852-4.65.33-6.032-.845zm78.691 86.45a3.493 3.493 0 0 0-2.169.709 3.5 3.5 0 0 0-.484 5.128 99.856 99.856 0 0 0 4.285-5.403 3.497 3.497 0 0 0-1.632-.434z" fill="#00ab4e" stroke-linecap="square" stroke-miterlimit="8"/><path d="m167.164 221.865-65.472-86.04M173.603 216.092l-71.911-94.255" fill="none" stroke-width="2"/><path d="M101.498 81.16v37.5l25-40 25 40v-37.5l-25-40z" fill="#ed1c24"/><path d="M101.498 1.5V44l25-40 25 40V1.5z" fill="#ed1c24"/><path d="m168.574 17.52-10.206 8.95 11.262 59.966a8.729 8.729 0 0 0-4.624 7.696 8.729 8.729 0 1 0 17.458 0 8.728 8.728 0 0 0-2.496-6.099l12.709-61.642-9.97-8.164-6.172 34.306h-2.446l.372-1.963zm5.308 36.111h2.456l-3.05 16.957 2.666 1.552.152 1.578 1.499-.618-1.583 16.41a4.686 4.686 0 1 1-6.933 4.111 4.686 4.686 0 0 1 3.224-4.446l-1.531-12.65 3.037-1.717-.048-1.043-3.47-1.214z" stroke-linejoin="round"/></g><g fill="#ed1c24" stroke="#000"><path d="M16.641 74.04c-1.178.647-1.775 3.778-.77 5.047.916-1.19 1.948-2.197 3.388-2.809 1.103-.468-.498-3.402-2.618-2.238zM27.865 97.179c1.283-.782 1.305-1.634.709-2.52-2.312-1.3-5.03.57-5.497 1.537a5.605 5.605 0 0 0 4.788.983zM17.207 63.64c-1.691-.876-4.342.46-5.167 1.305 1.005.724 2.782.778 3.378 1.086 1.938 1.004 3.588-1.46 1.789-2.391zM11.035 71.77c1.198-.18 3.034-.336 4.192.213 1.094.519 1.447-2.59-.048-2.678-1.495-.088-3.402.3-4.144 2.465zM25.614 75.01c.061 1.144-.122 2.622-.218 4.019 1.547-.47 3.87-2.522 3.718-4.475-.114-1.46-3.729-3.805-3.5.456zM52.054 31.08c-3.016-.239-6.086 2.82-8.938 4.432-3.415 1.93-7.121 1.962-10.023-.5-.071 5.677 7.356 3.694 10.224 2.268 3.115-1.547 6.67-4.292 8.867-4.052zM28.269 20.82c-.319-2.297-3.468-3.811-4.512-3.51.992 1.167 1.546 2.42 1.706 3.603.292 2.15 3.06 1.735 2.806-.093z"/><g><path d="M23.331 21.54c-.688-.974-2.679-2.737-4.504-2.197.82.807 1.91 3.416 2.13 4.277.388 1.527 4.244.569 2.374-2.08zM18.47 38.17c2.083-.051 1.994-3.333-.685-3.138-2.655.193-3.465 1.637-3.465 1.637s1.216 1.573 4.15 1.501zM18.495 25.82c1.485.237 1.423 4.745-1.174 3.338-.863-.467-3.508-1.27-4.94-1.172 1.365-1.93 4.315-2.453 6.114-2.166zM27.583 101.948c.637-1.065.205-1.884-.508-2.638-2.731-.047-4.443 2.26-4.123 4.088 1.564-.635 3.068-1.474 4.631-1.45zM31.978 104.91c-.192-3.753-2.268-3.1-3.253-1.743-.97 1.175-1.39 3.143-.826 5.03 1.49-1.99 2.689-2.563 4.079-3.287zM36.918 107.688c1.822-.208 3.449-1.403 3.81-3.698.172-1.641-3.445-2.043-4.005.38.708 1.15.631 2.102.195 3.318zM71.351 98.243c1.329-1.219 1.366-2.682-.233-3.482-2.035-.275-3.308.95-4.24 2.283 1.56.21 2.86.509 4.473 1.199zM73.038 103.247c1.746-2.368-.264-2.254-1.607-2.58-2.086.296-3.23 2.032-2.945 3.834 1.627-.604 2.977-1.382 4.552-1.254zM77.749 105.74c-.163-2.462-2.485-2.289-3.236-1.127-.375 1.326-.434 3.262.391 4.344.69-1.25 1.442-2.473 2.845-3.217zM87.285 100.69c-1.23-2.319-3.463-.729-3.371.838.746 1.561.948 2.184 1.19 3.645 1.9-1.123 2.392-2.996 2.181-4.483z"/></g></g><g><path class="fil0" d="M77.468 105.864c2.888-1.232 3.006-2.57 2.578-4.307-.802-3.257 3.442-3.793 3.535-1.896.02.413-.206.82.3 1.797.879-2.278 2.497-1.702 3.307-.639.64-.4.756-1.73.155-3.03-.848-1.83-.272-2.497.96-3.24-.096-1.486.196-1.224.264-2.749 1.068.418 1.684 1.074 2.198 1.699 1.145-1.143.561-3.418.66-4.326.464-.369.88-.505 1.436-.68.122-1.22-.557-2.097-1.905-2.874.645-1.184 1.762-1.66 2.873-.93-.521-4.617-2.289-3.659-3.454-4.998.963-.504 2.57-1.007 4.092-.125.266-3.233-1.307-3.903-2.821-4.608 1.453-2.126 1.825-4.162 1.435-5.402-.578.526-1.124.511-2.187.378.24-1.426-.075-4.438-1.766-6.514-.907 1.3.9 2.036-.72 6.56-2.197-1.357-2.597-1.547-3.63-.394 3.308 1.786 1.217 7.63-2.05 7.28-1.761-.188-2.198-1.52-1.648-3.473.605-2.149-.021-3.48-1.52-5.67 8.23-7.414 4.402-13.625 1.88-17.735-5.373-8.758-6.025-10.934-.932-16.703 1.56.756 3.958 1.318 5.285-.747 2.318-3.606 4.631-5.885 5.095-1.103 2.054-1.97 2.193-4.33-.974-5.153 3.113-3.967 3.729-6.629 2.59-7.902-1.465 3.072-3.316 3.851-4.781 4.355 1.504-2.568 2.541-7.026-.821-9.236 1.138 3.44-2.096 2.558-4.003 8.66-2.148-2.469-5.135-2.481-5.037.35 1.79-.642 2.593.945.805 3.985-.533.904-.569 2.635-.49 5.937-5.877 5.499-3.057 11.693 1.595 18.893 2.104 3.256 3.696 9.434-1.053 13.321-1.221-2.85-4.438-4.274-7.148-4.525-4.491-.415-6.49-4.418-7.654-6.014 1.4-1.034 1.328-.5 2.911-2.298-2.045-.462-1.266-1.679-4.991-3.792 3.1-1.924 6.567 2.395 6.975-2.098-2.148 1.361-4.463-.965-3.466-2.793 1.776.12 4.952-1.001 3.866-3.698-3.49 2.531-4.31-1.733-4.122-3.58 2.828.374 5.68-2.162 4.017-3.77-2.545 2.293-3.417-.611-4.49-2.323 1.101-1.535 1.615-2.911 1.173-4.679-3.426 4.699-1.842-1.385-7.88-1.787 4.441-3.937-.3-8.9-3.87-3.692-.29 0-1.38-.332-1.576-.534 1.552-6.26-6.758-5.83-5.442.446-2.908-1.212-6.963-1.785-7.048 2.683-2.447.184-3.002 2.116-2.642 3.918-2.345-.303-3.837 1.64-2.414 4.273-1.969 4.3 3.922 5.573 6.331 3.732 5.51-4.21 6.979-4.614 8.878-1.546 2.058 3.323.482 3.709-1.584 4.384-.835.273-1.72 1.278-2.27 1.87-.524.566-1.866.87-2.453.829-6.954-.485-4.766 5.732.802 2.37 2.353-1.421 3.529-2.266 4.81-3.063 2.306 4.293-4.005 6.71-6.658 6.802-1.749.062-3.367-.726-7.645-.398-3.54.272-5.42-2.086-5.693-5.03-.24-2.59-.473-5.49-1.363-6.77-1.27-1.815-1.044-4.494-.128-6.31 1.54-3.051 1.952-5.784.265-6.833.237 1.28-1.357 2.584-3.254.547-.253.656-.889.85-1.604.567.126 1.818-1.522 1.895-2.339 1.949-.193 1.283-1.385 2.128-2.494 2.792.701 1.053-.103 2.221-1.252 2.842.99.847 1.98 1.093 3.317.735 2.251-.603 3.675 4.787-1.028 3.974-1.066-.184-1.565.365-2.03 1.194 2.002.49 2.384 1.877.974 3.014.536.959 2.292-.11 2.918-1.102 1.472-2.334 4.975-.566 2.744 2.25-.372.47-.808 1.188-2.757 1.12-.21 1.175 1.033 1.35 1.962 1.5.591 2.27-1.395 1.714-2.46 2.165.328 1.05.959 1.242 2.084 1.144-.069 1.436-1.223 1.716-1.868 1.798.383 1.904 2.221.231 3.078 2.754-.8.429-1.19.616-2.1.628.413 1.264 2.613.062 3.159 2.838a1.893 1.893 0 0 1-1.01.57c.526 1.516 3.536.464 4.3 2.503-.772.579-1.072.733-1.916.754.79 1.237.601 1.418 2.652.662 1.064 1.433 1.475 2.265 1.066 4.114-1.42.518-3.393 2.987-3.954 3.745-1.097 1.48-3.869 1.322-5.48-.139-1.483-1.344-2.993-1.972-3.883-1.803 1.426 1.216-.232 2.377-1.57 2.561.821.73.599 2.556-.487 3.196 1.076.548 1 1.97.01 2.505.762.593 1.419 1.405 1.468 2.461 1.776-.975 2.95.676 2.554 2.122 1.103-.365 1.753-1.367 2.002-1.927 1.193-2.682 2.363-3.347 3.224-3.13 1.683.423 1.367 2.369 1.443 4.222 2.137-3.478 2.9-2.711 3.303-.77 2.279-1.904-1.655-3.649 1.135-6.135 1.259.815 1.285 1.471.896 3.025 1.335-.15 1.542-.384 2.185-1.538.44.452.775.224 1.088.13.014-1.121 1.409-1.453 2.032-1.164.727-.403.38-1.025 1.364-1.612.35.399.913.561 1.059.906.553-.352.454-1.397 1.808-1.851.568.195.892.388 1.21.848.61-.818 1.734-2.277 1.983-3.233 2.13-.367 3.273.386 5.233-.311-.036.477-.016.978.3 1.347.655-1.267 1.332-2.36 3.526-1.74-.63 1.146-.584 1.594-.216 2.772.441-1.297 1.341-2.997 3.333-1.99-.118 2.77-.239 3.471 1.854 4.793-1.096 3.705-3.95 3.893-6.224 1.971-2 .761-3.184-.262-3.908-1.485-.864 1.62-.621 3.224-.199 4.023-1.28 1.339-2.717.828-4.049-1.595-.762.856-.822 2.058-.72 2.927.092.793.713 1.208 1.678 1.366.225 3.254-2.587 2.724-5.53 1.046-1.036 2.821 1.78 4.237 3.62 4.473.167 2.925-3.51 2.91-5.229 2.394-.328 2.088 2.734 2.642 6.328 1.729.546 1.387-.48 2.982-1.246 3.663-.948.842-2.108 3.102-2.496 3.94-.951 2.058-3.275 3.144-8.574 2.371-.542-1.49-2.022-1.6-2.761-1.15.538.761.289 1.92-.83 2.54.453.911.056 1.78-.855 2.21.974.623 1.25 1.77.609 2.514.81.183 1.258.608 1.37 1.179 1.806-1.206 2.624.022 2.744 1.872 1.348-.17 1.787-1.356 1.956-2.62.151-1.127 1.513-1.973 2.247-1.805.885.203 1.742.534 1.043 2.521-.296.842-.787 1.369-.018 1.364 1.112-2.242 3.546-1.598 4.015-.536 1.263-1.494-1.014-2.504-.547-4.545 2.332-1.652 2.477.877 3.09 1.169.048-.71.03-1.007.353-1.844 1.834-.427 2.662 1.04 2.595 1.868.731-.554.232-2.347 1.831-3.311.3.68.333 1.168 1.053 1.978l.57-.754c.536.066 1.144-.68 1.958-.278.438-.44.896-1.273 1.08-2.007.66.211 1.018.365 1.595.871.734-1.095.848-2.041.847-3.487.78-.058 1.174-.11 1.966-.517.265 4.028 4.154 4.761 6.07 2.144-2.928-.3-.507-3.38-1.962-5.642 1.318-1.808 2.485-1.514 3.338-3.167-2.334-.036-2.075-2.209-4.928-2.706.586-2.525 2.994-2.901 4.534-.858.31-2.019-.914-4.397-2.588-3.213-.507-.652-.998-2.91 3.098-3.278 4.288-.385 6.432-5.065 6.968-5.77 6.265 7.491-1.2 6.14-1.474 8.61-.117 1.055-2.287 2.385-3.637-.113-2.285 4.144 2.891 4.905 5.613 4.661-.791 2.137-1.462 3.344-3.627 4.184 3.65 1.73 6.585-1.526 8.914-2.816.303 1.518-.04 3.165-1.123 4.824 1.769.186 3.077-.898 3.703-2.224 1.375-2.914 4.742-.958 2.492 1.641-1.146 1.325-1.184 1.694-.926 2.77.317 1.321-1.074 1.735-.952 3.225.106 1.292-3.665 1.595-6.74-.074-1.626-.882-2.054-.82-3.141-.312 1.512.76 1.348 2.282.032 2.802.755.647 1.175 1.99.307 2.99 1.678.313 2.457 1.108 1.79 2.518.821.352 1.107.867 1.279 1.652.616-.659 2.87-.977 3.294.94z" clip-rule="evenodd" fill-rule="evenodd" image-rendering="optimizeQuality" shape-rendering="geometricPrecision" stroke="#000"/><path d="M44.96 22.3c-.677-.95-1.867-1.045-2.94-.199-.945.744-1.383 2.005-1.846 2.462 1.186.23 1.874 2.367 5.735 1.272-1.284-1.3.121-1.828-.95-3.535z" fill="#fd0" stroke="#fd0" stroke-width=".2"/><path d="M43.11 25.06c-.284-.225-.715-.732-.73-1.061-.015-.355.248-.752.622-1.183.294.637.53.674.55.942.025.382-.319.77-.442 1.302z" stroke="#000" stroke-linecap="round"/></g><g fill="none"><g stroke="#fd0" stroke-linecap="round"><path d="M49.081 18.75c.823-.81 1.568-.872 2.27-.368M36.127 31.25c-.038.396.251.593.807.538M58.556 70.5c1.698.89 7.266 1.036 10.538.847M32.925 61.28c3.947 1.299 9.527-.454 13.01-2.755 4.94-.307 6.9-1.51 8.989-3.464"/></g><g stroke="#000"><g stroke-linecap="square"><path d="M1.5 1.5v145.12a99.828 99.828 0 0 0 29.29 70.628 100.058 100.058 0 0 0 70.71 29.255 100.059 100.059 0 0 0 70.71-29.255 99.822 99.822 0 0 0 29.29-70.628V1.5z" stroke-miterlimit="8" stroke-width="3"/><g stroke-miterlimit="7.2" stroke-width="1.9"><path d="M7.897 181.503h93.601M51.498 181.503v-62.5M201.498 119.003h-200"/></g></g><path d="M101.498 1.5v245M151.498 1.5V119" stroke-miterlimit="7.2" stroke-width="1.9"/></g></g></svg>