<svg xmlns="http://www.w3.org/2000/svg" width="1794" height="2031.333" viewBox="-4.292 -3.625 1794 2031.333" xml:space="preserve"><path d="M1777.577 1170.005c5.994 417.45-317.642 843.919-892.9 843.919-584.577 0-872.28-534.587-874.268-846.769-1.842-289.102 0-1156.423 0-1156.423h1767.168s-4.161 869.485 0 1159.273z" style="fill:#da121a;stroke:#000;stroke-width:27"/><path style="fill:#fcdd09;stroke:#000;stroke-width:15" d="m1322.777 823.476-165.992 240.488-169.991-239.988 170.491-238.988zM1735.136 823.476l-165.991 240.487-169.991-239.987 170.491-238.988zM1528.956 1105.959l-165.991 240.487-169.991-239.987 170.491-238.988z"/><g><path d="M906.76 2013.867s-199.456 10.673-404.226-87.951c-93.271-44.923-181.939-115.339-275.861-221.181-97.062-109.379-150.944-223.703-182.964-336.36-10.975-36.911-26.764-97.85-33.039-170.832L9.708 15.375H906.76v1998.492z" style="fill:#fff;stroke:#000;stroke-width:16.89410019"/><path d="M904.962 2014.171s-199.456 10.673-404.227-87.951c-93.271-44.923-181.939-115.339-275.861-221.181-76.41-86.106-150.034-266.196-150.034-266.196 23.166 5.727 42.557-56.052 63.497-67.497 29.301-16.016 100.21-14.427 130.493-28.498 29.587-13.749 72.604-69.001 103.495-79.496 10.651-3.619 34.604-4.305 44.998 0 10.533 4.363 30.266 21.021 32.248 32.248 5.79 32.794-62.036 87.951-56.247 120.744 3.595 20.366 44.873 42.873 59.497 57.497 14.812 14.812 43.436 45.436 58.247 60.247 9 8.999 25.608 28.647 35.998 35.998 11.707 8.282 43.465 36.456 51.748 24.749 8.729-12.338-32.061-36.061-42.748-46.748-7.312-7.313-25.605-18.008-30.249-27.248-5.787-11.515-1.41-37.158-6.499-48.998-7.91-18.4-49.609-42.969-49.498-62.997.137-24.537 53.347-53.352 61.497-76.496 4.11-11.672-8.75-40.747 0-49.497 6.099-6.099 26.124-1.061 34.499 1 8.632 2.124 22.867 13.375 31.499 15.499 9.831 2.419 36.017 4.448 45.498 8 32.604 12.213 70.435 65.101 99.995 83.495 14.841 9.235 48.988 18.936 64.497 26.999 18.091 9.406 48.732 45.766 68.997 43.497 6.324-.708 21.816-12.908 17.998-17.999h12.462v570.525l-1.8.304z" style="stroke:#000;stroke-width:10"/><path d="M386.148 1168.956c-6.196 18.277-54.878 18.738-72.32 26.999-32.999 15.629-57.098 66.653-81.746 81.746-24.373 14.924-83.889 21.144-108.745 35.248-20.81 11.81-64.516 39.003-71.027 62.027l22.53 63.967c23.166 5.727 42.557-56.052 63.497-67.497 29.301-16.016 100.21-14.427 130.493-28.498 29.587-13.749 72.604-69.001 103.495-79.496 10.651-3.619 34.604-4.305 44.998 0 10.533 4.363 30.266 21.021 32.248 32.248 5.79 32.794-62.036 87.951-56.247 120.744 3.595 20.366 44.873 42.873 59.497 57.497 14.812 14.812 43.436 45.436 58.247 60.247 9 8.999 25.608 28.647 35.998 35.998 11.707 8.282 43.465 36.456 51.748 24.749 8.729-12.338-32.061-36.061-42.748-46.748-7.312-7.313-25.605-18.008-30.249-27.248-5.787-11.515-1.41-37.158-6.499-48.998-7.91-18.4-49.609-42.969-49.498-62.997.137-24.537 53.347-53.352 61.497-76.496 4.11-11.672-8.75-40.747 0-49.497 6.099-6.099 26.124-1.061 34.499 1 8.632 2.124 22.867 13.375 31.499 15.499 9.831 2.419 36.017 4.448 45.498 8 32.604 12.213 70.435 65.101 99.995 83.495 14.841 9.235 48.988 18.936 64.497 26.999 18.091 9.406 48.732 45.766 68.997 43.497 6.324-.708 21.817-12.908 17.999-17.999-35.998-47.997-113.723-89.165-147.992-127.067-15.545-17.193-42.129-67.284-60.497-81.422-35.341-27.2-116.827-47.33-163.992-59.997-12.956-3.479-4-196.435-4-196.435l-61.109-20.146-70.56 28.396c-.003 0 9.047 155.49-.003 182.185z" style="fill:#da121a;stroke:#000;stroke-width:10"/><path style="fill:#078930;stroke:#000;stroke-width:10" d="M598.708 352.375h-42l108 170h-50l112 176h-44l104 164h-44l112 164-150-56 42 62-152-58 44 44-182-60-70.56 28.396-93.44 37.604v-52l-128 48 26-48-124 34 102-152h-68l116-170h-44l114-170-62 10 120-176h-44l156-228z"/></g></svg>