<svg version="1.1" id="Layer_2" xmlns="http://www.w3.org/2000/svg" xmlns:xlink="http://www.w3.org/1999/xlink" x="0" y="0" viewBox="0 0 298.3 348.3" style="enable-background:new 0 0 298.3 348.3" xml:space="preserve"><style>.st1{clip-path:url(#SVGID_2_)}.st10,.st3,.st8{fill:#fff;stroke:#000;stroke-miterlimit:10}.st10,.st8{fill:#fcdd09;stroke-width:3}.st10{fill:none;stroke-width:2}.st11{fill:#0f47af}.st12{fill:#da121a}.st13,.st14{stroke:#000;stroke-width:2;stroke-miterlimit:10}.st13{fill:#da121a;stroke-linecap:round}.st14{fill:#0f47af}.st16{fill:#060808}.st17,.st18{fill:none;stroke-miterlimit:10}.st17{stroke:#060808;stroke-width:2}.st18{stroke:#000;stroke-linecap:round}</style><defs><path id="SVGID_1_" d="M3.1 3.1v196c0 80.6 65.4 146 146 146s146-65.4 146-146V3.1H3.1z"/></defs><clipPath id="SVGID_2_"><use xlink:href="#SVGID_1_" style="overflow:visible"/></clipPath><path d="M3.1 3.1v196c0 80.6 65.4 146 146 146s146-65.4 146-146V3.1H3.1z" style="clip-path:url(#SVGID_2_);fill:#fff;stroke:#000;stroke-width:6"/><g class="st1"><path d="M121.8 223.4s2.2-15 11.3-23.3c9.1-8.3 12-5.5 21.8-7.5s19.5-5.2 23.2-10.5l15.7 19.8 2.8 16.8s-2.3-4.2-8-4.8-41 10.2-36 24.3c5 14.2 15 2 15 2s.9 6.3-4 9.3c0 0 7.6 2.3 9.3.8 0 0-1.9 7.3-10.1 7.1 0 0 0 3.7 7 4 0 0-5.4 8.2-15.8 2.3 0 0-2.8 2.6 2.4 7.4 0 0-8.4 2.8-10.5-7.3 0 0-3.3 4.9-.8 9.3 0 0-8.4.8-7.9-8.4 0 0-4 2.9-4.3 6.3 0 0-7.3-2.9-6.6-12.6" style="fill:#da121a;stroke:#000;stroke-width:2;stroke-miterlimit:10"/><path class="st3" d="m155 192.8 28.1 21.3M165 204.8l14.4 10.8M164 189.8l31 23.4M169 188.8l28.1 21.3M173 187.8l28.1 21.3M176 185.8l28.1 21.3M160 191.8l29.8 21.9M169.7 208.1l24.6-13.6M171.7 211.1l24.6-13.6M174.7 214.1l24.6-13.6M180.7 215.1l24.6-13.6M165.7 205.1l25.6-14.6M162.7 202.1l24.6-13.6M159.7 199.1l24.6-13.6M157.7 196.1l24.6-13.6"/></g><g class="st1"><path d="M19.5 187.7v73c0 30 24.4 54.4 54.4 54.4s54.4-24.4 54.4-54.4v-73H19.5z" style="fill:#fff;stroke:#000;stroke-width:4"/><path style="fill:none;stroke:#000;stroke-width:36" d="M73.9 187.3v126.2"/><path style="fill:#fff;stroke:#000;stroke-width:36;stroke-miterlimit:10" d="M20.1 246.6h107.6"/></g><g class="st1"><path transform="rotate(-15.938 53.68 49.434)" class="st8" d="M31.8 42.9h43.9v13H31.8z"/><path class="st8" d="M24.1 46.6c-6.4 0-11.6 5.2-11.6 11.6s5.2 11.6 11.6 11.6c6.4 0 11.6-5.2 11.6-11.6s-5.2-11.6-11.6-11.6zM24 64.4c-3.4 0-6.1-2.7-6.1-6.1s2.7-6.1 6.1-6.1 6.1 2.7 6.1 6.1-2.7 6.1-6.1 6.1z"/><path d="M23.7 60.6c-1.2 0-2.2-1-2.2-2.2" style="fill:none;stroke:#000;stroke-miterlimit:10"/><path class="st8" d="M205.8 6c-1.7-5.8-5.1-.2-11.1 1s-5.5 3.4-11.5 4.6c-6 1.2-6.4-1-12.4.2s-5.5 3.4-11.5 4.6c-6 1.2-6.4-1-12.4.2s-5.5 3.4-11.5 4.6c-6 1.2-6.4-1-12.4.2s-5.5 3.4-11.5 4.6c-6 1.2-6.4-1-12.4.2s-5.5 3.4-11.5 4.6c-6 1.2-6.4-1-12.4.2l-.7 12.5 7 9.2c5.7-2.1 4.9-4.2 10.6-6.3 5.7-2.1 6.5 0 12.2-2 5.7-2.1 4.9-4.2 10.6-6.3 5.7-2.1 6.5 0 12.2-2 5.7-2.1 4.9-4.2 10.6-6.3 5.7-2.1 6.5 0 12.2-2 5.7-2.1 4.9-4.2 10.6-6.3 5.7-2.1 6.5 0 12.2-2 5.7-2.1 4.9-4.2 10.6-6.3 5.7-2.1 6.5 0 12.2-2 6-2.3 12 .7 10.3-5.2z"/><path class="st10" d="M77.8 41.4c5.9-1.7 6.5.5 12.3-1.2 5.9-1.7 5.2-3.9 11.1-5.5 5.9-1.7 6.5.5 12.3-1.2 5.9-1.7 5.2-3.9 11.1-5.5 5.9-1.7 6.5.5 12.3-1.2 5.9-1.7 5.2-3.9 11.1-5.5 5.9-1.7 6.5.5 12.3-1.2 5.9-1.7 5.2-3.9 11.1-5.5 5.9-1.7 6.5.5 12.3-1.2 5.9-1.7 5.2-3.9 11.1-5.5s6.5.5 12.3-1.2"/><path class="st8" d="M71.4 36.3c0 11.7 6.4 21.9 15.8 27.4-7.1-12.2-11.6-26-12.8-40.8-1.9 4.1-3 8.6-3 13.4z"/></g><g class="st1"><path class="st11" d="M54.2 51.8c-.1-.2-2.5-4.1-1.8-8.8.3-1.9 1-2.9 2.2-2.9 1.4 0 2.5 1.6 2.8 2.1l.1.2v.2c.3 1.7.7 6.7-1.7 9.4l-.9 1-.7-1.2z"/><path d="M54.5 41.1c.9 0 2 1.7 2 1.7.4 1.9.5 6.3-1.4 8.5 0 0-2.3-3.8-1.7-8.1.2-1.6.7-2.1 1.1-2.1m0-2c-1 0-2.7.5-3.2 3.8-.7 5 1.9 9.3 2 9.5l1.4 2.3 1.8-2c2.5-2.8 2.3-7.9 1.9-10.2V42l-.2-.3c-.5-.8-1.8-2.6-3.7-2.6z"/><path class="st11" d="M49.5 54.9c-.2-.1-5.5-1.9-6.6-6.6l-.1-.6 4.9-4.3.7.8c1 1.1 4.1 5.3 2.4 10.1l-.3.9-1-.3z"/><path d="M47.6 44.8c1.5 1.8 3.6 5.3 2.3 9.1 0 0-4.9-1.7-5.9-5.9l3.6-3.2m.2-2.8-1.5 1.3-3.7 3.3-.9.8.3 1.2c1.2 5.2 7 7.2 7.2 7.3l1.9.6.6-1.9c1.8-5.3-1.6-9.8-2.6-11.1L47.8 42z"/><path class="st11" d="M42.5 57.3c-.2-.1-4.7-2.1-5.5-7.1v-.6l4-2.3.5.5c.1.1 3.5 3.3 2.4 8.9l-.2 1.2-1.2-.6z"/><path d="M40.8 48.5s3.1 2.8 2.1 7.9c0 0-4.2-1.8-4.9-6.3l2.8-1.6m.3-2.5-1.3.7-2.8 1.7-1.2.7.2 1.3c.8 5.5 5.8 7.8 6.1 7.8l2.3 1 .5-2.4c1.2-6.2-2.6-9.7-2.8-9.8l-1-1z"/><path class="st11" d="M63 55.3c-.9 0-1.3-.4-1.5-.7-.6-.8-.3-2 0-2.8 1.5-4.4-.9-8.6-1-8.6l-1.1-1.8 2 .3c2.5.3 4.3 1.3 5.5 3.1 2.2 3.2 1.2 7.6 1.2 7.8l-.1.4h-.2c-.5.4-3.1 2.3-4.8 2.3z"/><path d="M61.4 42.6c7.9 1 5.8 9.6 5.8 9.6s-2.8 2-4.2 2c-.7 0-1.1-.5-.5-2.2 1.7-4.8-1.1-9.4-1.1-9.4m-3.8-2.5 2.1 3.5c.1.1 2.2 3.9.9 7.8-.4 1-.7 2.5.1 3.7.5.7 1.3 1.1 2.3 1.1 1.9 0 4.4-1.7 5.4-2.4l.6-.4.2-.7c0-.2 1.2-5-1.3-8.6-1.4-2-3.4-3.1-6.2-3.5l-4.1-.5z"/><g><path class="st12" d="M39.4 52.1c-.9 0-1.8-.3-2.4-1-1.6-1.5-3.8-5.5-3.5-8.2.1-1.2.7-1.8 1.2-2.1.8-.5 1.7-.8 2.6-.8 1.6 0 3.2.8 3.7 1.8.1.1.1.3.2.4.9 1.5 3 5.1 2.1 7.9l-.1.3-.2.2c-.1.2-1.7 1.5-3.6 1.5z"/><path d="M37.3 41.1c1.3 0 2.5.7 2.9 1.3.5.9 3.1 4.9 2.3 7.5 0 0-1.4 1.3-3 1.3-.6 0-1.2-.2-1.7-.7-1.9-1.9-4.5-7.4-2.5-8.8.6-.5 1.3-.6 2-.6m0-2c-1.1 0-2.2.3-3.2.9-.6.4-1.5 1.3-1.6 2.9-.3 3 2 7.3 3.8 9 .9.8 1.9 1.3 3.1 1.3 2.2 0 4.1-1.6 4.3-1.8l.4-.4.2-.5c1.1-3.2-1.2-7-2.2-8.7-.1-.2-.2-.3-.2-.4-.7-1.4-2.7-2.3-4.6-2.3z"/></g><g><path class="st12" d="M44.2 49.6c-.2-.2-3.8-5.3-3-9.7.3-1.7 1.2-3 2.7-4 .6-.4 1.1-.6 1.7-.6 4.2 0 5.3 9.9 5.4 10 0 .4.1 1.3-.6 1.5-.5.3-3 1.9-4.7 3l-.8.5-.7-.7z"/><path d="M45.6 36.3c3.2 0 4.5 9.5 4.4 9.6-.2 0-5 3.1-5 3.1s-6.2-8.6-.6-12.3c.4-.3.8-.4 1.2-.4m0-2c-.8 0-1.5.2-2.3.7-1.7 1.1-2.7 2.7-3.1 4.7-.9 4.7 2.8 9.9 3.2 10.5l1.1 1.6 1.6-1c1.9-1.3 4.1-2.7 4.6-3 .6-.3 1.3-.9 1.2-2.5 0-.6-1.2-11-6.3-11z"/></g><g><path class="st12" d="M56.9 46.6c-.2 0-.5 0-.7-.1-.1-.1-.3-.1-.5-.2-.6-.2-1.3-.5-1.8-.5-.3 0-.4.1-.5.1-.3.3-.6.5-1 .5-1.9 0-2.1-3.6-2.1-5.2-.1-4.5 1.6-7.3 4.2-7.3 1.3 0 2.4.7 3.3 2 1.7 2.5 2.3 6.4 1.3 9-.4 1.1-1.3 1.7-2.2 1.7z"/><path d="M54.6 34.9c2.9 0 4.9 6.1 3.6 9.6-.2.6-.7 1.1-1.3 1.1-.1 0-.3 0-.4-.1-.7-.3-1.8-.8-2.7-.8-.5 0-.9.1-1.2.5-.1.1-.2.1-.3.1-1.3.1-2.3-10.3 2.3-10.4-.1 0-.1 0 0 0m0-2h-.1c-3.3.1-5.3 3.3-5.2 8.3 0 2.3.5 6.2 3.1 6.2.6 0 1.1-.2 1.5-.6.4 0 1 .3 1.4.4.2.1.3.1.5.2.4.1.7.2 1.1.2 1.4 0 2.6-.9 3.2-2.4 1.1-2.9.5-7.1-1.4-9.9-1.2-1.5-2.6-2.4-4.1-2.4z"/></g><path class="st13" d="M59 54.5 41.9 59s3.5 4 4.1 5.3c.6 1.3 1.5 4.7-.3 7.8-1.8 3.2-1.9 6.9-1.9 6.9 1.1-2.3 3.3-4.2 4.8-3.9 2.7.6.1 3.5-.8 4.3-4.8 4.3-5.2 9.2-5.2 9.2 1.8-1.7 4.2-.8 4.2-.8-4.1 3.7-2.6 10-2.6 10 1.3-3.2 4.1-2.6 4.1-2.6-4.2 5-1.9 11.4-1.9 11.4 1.3-3.3 4.8-3.8 4.8-3.8-3.9 5.3-1.9 10.4-1.9 10.4 1.8-3.3 4.5-3.9 4.5-3.9-3.9 5.2-1.8 10.8-1.8 10.8.4-1.8 3.9-3.7 3.9-3.7-2.6 4-.9 12.4-.9 12.4.8-3.4 4.4-6.6 4.4-6.6-1.8 4.7-.5 10.4-.5 10.4.8-3.9 4.8-4.8 4.8-4.8-3.2 9.3-1.8 11.1-1.8 11.1.3-2.3 4.3-4.5 4.3-4.5-2.4 8.1 1.2 11.7 1.2 11.7-.5-2.6 4.1-4.3 4.1-4.3-1.9 6.4 2.8 10.5 2.8 10.5 1.1-3.5 4.9-5 4.9-5 0 6.8 8.8 9.8 8.8 9.8l43.8-35.5S95.4 118 81 93c-14.2-24.7-8-40.5-8-40.5s1.4-2.5-1.1-3.3-2.7 2-5.9 1.6c-3.2-.4-5.8-2.2-6.9.9-1.1 3.1 5.2 6.4 5.2 6.4"/><g><path d="m68 69.1-.1.7-.8-.2.2-.6zM67.8 71v1.3l-1.3-.2.2-1.2zM67.9 73.5l.1 1.2-1.7.1v-1.3zM68.3 75.9l.2 1.3-2.2.2-.1-1.2zM68.8 78.4l.3 1.2-2.6.5-.1-1.3zM69.5 80.8l.4 1.2-3 .7-.2-1.3zM70.3 83.1l.4 1.2-3.4 1-.2-1.3zM71.2 85.5l.4 1.2-3.7 1.1-.3-1.2zM72.1 87.8l.5 1.2-4 1.4-.3-1.3zM73.1 90.1l.6 1.1-4.3 1.7-.4-1.2zM74.2 92.3l.6 1.2-4.6 1.9-.4-1.2zM75.3 94.6l.6 1.1-4.7 2.2-.5-1.2zM76.5 96.8l.6 1.1-4.9 2.4-.5-1.2zM77.7 99l.7 1.1-5.2 2.6-.5-1.2zM79.1 101.1l.7 1.1-5.6 2.9-.5-1.1zM80.4 103.2l.8 1-5.9 3.4-.5-1.2zM81.9 105.2l.7 1.1-6.1 3.6-.6-1.1zM83.3 107.3s.2.3.4.5c.2.3.3.5.3.5l-6.2 3.9s-.2-.3-.3-.5c-.2-.3-.3-.6-.3-.6l6.1-3.8zM84.6 109.3s.2.3.3.5c.2.3.3.6.3.6l-6 4s-.2-.3-.4-.5c-.2-.3-.4-.5-.4-.5l6.2-4.1zM85.9 111.5l.6 1.1-5.5 3.9-.8-1zM87.1 113.7l.7 1.1-5 3.6-.9-.9zM88.4 115.8l.6 1.2-4.4 3.3-.9-.9zM89.6 118.1s.2.3.3.6c.2.3.3.6.3.6l-3.6 2.9s-.3-.2-.5-.4-.5-.4-.5-.4l4-3.3zM90.8 120.3s.2.3.3.6c.1.3.3.6.3.6l-2.6 2.2s-.3-.2-.5-.4c-.3-.2-.5-.4-.5-.4l3-2.6zM91.9 122.7s.1.3.3.6c.2.3.3.6.3.6l-1.5 1.3-.6-.4-.6-.4 2.1-1.7zM93.1 125.2s.1.2.1.3c.1.2.1.3.1.3l-.5.5s-.2-.1-.3-.2c-.2-.1-.3-.2-.3-.2l.9-.7z"/></g></g><g class="st1"><path class="st14" d="M28 174.9c-6.6.7-12.1 1.7-12.2 8.6 0 0 1.6-2.8 5.3-2.5s8.9.3 8.9.3l-2-6.4zM30.2 190.2s-5.9 5.9-2 13.1c0 0 .4-7.1 5.4-8.3s-3.4-4.8-3.4-4.8zM44.5 197.2s.1 9.5 9.1 8.8c0 0-5.2-3.1-3.1-9.3s-6 .5-6 .5zM61.4 188.7c3.2 1.4 8.1 4.6 5 11.3 0 0-2.9-2.9-6.2-6.6l1.2-4.7z"/><path class="st13" d="M50.3 172.3s-7.3 3.6-13.7 3.3c-6.4-.3-5.5-3.9-9.7-3.5-4.2.4-1.9 3.7-1.9 3.7s2.8 2.3 1.4 4.7c-1.4 2.3-5.3 3.5-1.4 5.9s12.8.6 12.8.6l12.5-14.7z"/><path class="st13" d="M159.9 124.3c0 12.8-5 28.3-4 35s1.8 13.4-.4 17.3c0 0-1.6-5.1-5.3-6.4 0 0-2.7 1.9 1 7.5 0 0-4 3.8-8.3-1.5 0 0-1.8 1.6 0 4.3 0 0-2.3 3.5-6.2-.9 0 0-2.8-.3-2.2 3.8 0 0-2.6.3-4.3-2.2s-4.7 1.5-4.8 3.7c0 0-3-4.7-4.9-2.9-1.9 1.8-1 4.8-2.3 5.7 0 0-2.3-4.4-4.1-4.8 0 0 1 1.7-.8 5.5 0 0-2.9-6.3-5.2-5.3 0 0-1.3 4.8-3.9 6.6 0 0-1.3-5.8-3.6-5.4 0 0 1.1 4.3-2.2 6.4 0 0-2.4-5.4-5-5.5 0 0 1.5 4.6-1.8 6 0 0-1.6-5-3.8-4.9 0 0 1.2 2.3-1.9 5.8 0 0-1.6-6.2-3.9-5.5 0 0 1 4.1-1.4 6.4 0 0-3.6-1.3-4.9-5 0 0-3-1.5-3 5.4 0 0-3.4-8.8-6.7-7.3s.7 2.8-2.9 5.5c-6.2 4.6-3.5-3.3-7.8-1.5s.2 3.7 0 6-2.3 2.8-4.7 1.4-4.4 4.3-7.9 1.8 4.1-8.2-1.5-8.1c-7.9.1 2.9 9.3-5.9 9.1-6.7-.1-1.7-7.3-4.8-7.9-3.1-.7-4.8.8-4.8-1.4-.1-3.4 8.8-4.1 16.6-12.9s14.5-8.6 22.4-12.4c7.9-3.8 10.5-9.4 21.6-14.7s37.6-21.8 37.6-21.8l36-4.9z"/><g><path d="m65 174.5 1.1-.7.4.8-1.2.5zM67.1 173l1.1-.7.7 1.3-1.2.5zM69.3 171.6l1.1-.7.9 1.6-1.2.6zM71.5 170.1l1-.7 1.2 2.1-1.2.5zM73.6 168.6l1.1-.7 1.4 2.5-1.2.6zM75.8 167.2l1-.8 1.7 2.9-1.2.6zM77.9 165.7l1.1-.7 1.8 3.2-1.1.6zM80.1 164.2l1.1-.7 2 3.7-1.2.5zM82.3 162.8l1.1-.7 2.1 4-1.2.5zM84.6 161.4l1.1-.6 2.2 4.3-1.2.5zM86.9 160.1l1.2-.6 2.1 4.8-1.2.4zM89.3 158.8l1.2-.6 2.1 5.4-1.2.3zM91.7 157.6s.3-.1.6-.3l.6-.2 2.1 5.8-.6.2-.6.2-2.1-5.7zM94.3 156.6l.6-.2.6-.2 1.9 5.9-.6.2-.6.2-1.9-5.9zM96.9 155.9s.3-.1.6-.1c.3-.1.6-.1.6-.1l1.6 5.6-.6.2-.6.2-1.6-5.8zM99.5 155.5s.3 0 .6-.1c.3 0 .7-.1.7-.1l1.3 5s-.3.1-.6.3l-.6.2-1.4-5.3zM102.1 155.2h1.4l1 4.1s-.3.1-.6.3c-.3.1-.6.3-.6.3l-1.2-4.7zM104.8 155.1h1.4l.6 2.9-1.2.6zM107.5 155.2s.3 0 .7.1c.3 0 .7.1.7.1l.3 1.2-.6.4-.6.4-.5-2.2z"/></g></g><g class="st1"><path class="st14" d="M163.8 290.1c-8.1-3.3-15.2-4.3-17.8 2.6 0 0 8.3-1.9 11.8 8l6-10.6zM156.7 312.7c-4.5 2.8-7.7 6.8-6.3 13.1 0 0 3.8-5.3 11.3-4.1s-5-9-5-9zM184.2 321.6s3.3 9-3.9 12.8c0 0 1.3-5.7-4.6-10.1-5.9-4.3 8.5-2.7 8.5-2.7zM205.7 316.1c4.2 2.9 1.9 8.4-.4 10.1 0 0-.1-4.6-4.8-5.6s5.2-4.5 5.2-4.5"/><path class="st13" d="M235.3 196c4 6.3 4.6 9 4.5 19.3s4.1 17.4 6.4 18.3 7.6.3 9.5-5.6c1.7-5.3 16.3-8.1 16.3-8.1s-.9 3.9-2.1 9.4c-1.5 6.9-16 17.5-16 17.5s4.1-4.4 8.5-4.3 8.5-1.6 8.5-1.6-1.3 3.5-3.5 8.9c-1.1 2.7-8.3 5.3-12.6 7.3-4.1 1.9-6.8 4.3-6.8 4.3 3.9-3.9 11.2-1.8 11.2-1.8 3.1 1 7.8 0 7.8 0-3.8 5.2-14.8 10.6-20.6 11.9-4.9 1.1-3.1 1.3-3.1 1.3 5.6-2.5 18.1 2.5 18.1 2.5-8.8 9.6-23.5 6.4-23.5 6.4l5.4 2 7.1 4.1c-17.3 8.8-19.9-2.4-27.5-1.5s-11.6 19.1-11.6 19.1c-1.1 2.9-5.1 3.2-5.4 5.9-.3 2.7 3.4 1.9 4 4.3s-1.5 2-5.3 3-2.6 4-5.8 4.6-.5-4.8-1.1-9-7.1-2-8.9 1.8 2.4 6.5-.8 10.6-3.6-4.4-7.6-2c-8.3 5-7-1.5-7-1.5s3.8-4.8-1.6-6-4.3 4.5-9.1 7.4-5.1-3.1-5.1-3.1.3-5.1-3.3-6-2.1-3.6 5.1-5.3 6.5-5 6.5-5.8-2.4-1.8-5.3-.3-5.8 2.7-6.6-.6c-.9-3.3 2.1-6.1 3.8-6.6s3.3-2.3 2.9-5.8.6-5.1 3.1-6.1 4 5.5 6.8 8.3 6.4-.3 10.6-3.4c11.8-8.7 25.4-23.1 26.5-28.8 1.1-5.6-2.1-8.5-4.6-12.9s-1.9-6.5-1.9-6.5c-2.6 5.4-.6 4-2.4 11.1-1.8 7.1-10 11-10 11s2.9-3.9 1.6-6.8c-1.2-2.8 0-9.6 0-9.6-1.8 7.5-6 8.9-6 8.9 1.4-3.8-.8-7.4-.5-10.2s10.5-23.4 11.4-36.9-39.3-47.5-58.9-67.5l39.5-29.8 33.2 44.5s25.9 41.5 47.5 27c18.8-12.7-3.1-30.4-10.1-37-3.4-3.2-8.8-10.5-15.6-11.2-6.8-.7-12.7-7.5-15.3-14.7 0 0 8-1.8 11 4.5 0 0-2.3-7.3-9-12.2 0 0-14.3-12-11.8-28.5 0 0 6.5 3.5 7.2 6.5.7 3 2.8 7.7 4.7 9.7 0 0-4-6-2.3-14.5 0 0-3.8-4.8-2.2-13s4.3-11.7 3.2-13.7c0 0 7-.8 5.2 16.3 0 0 2-11.5 20.8-23.5s29.8-20 29.5-23.2c-.3-3.2-.2-5-6.3 1-6.2 6-8.2 4.5-8.2 4.5s.5-5.3 3.8-8.5c0 0-6.2 4.5-9.7 3.7 0 0 2.8-3.2 3.2-7.5s3.3-6 3.3-6-6.7 3.7-8-2c-1.2-5 1.2-1.7 5.3-2 5.9-.5 16.5-5.9 21 .6 5.1 7.6 5.1 13.5 1.9 20-4.7 9.5-34.3 22.8-45 39.2s-11.5 23.3-3.5 39.7 18.7 23.5 18.7 23.5 5.8-28.8 5.7-32.5c-.2-3.7 3.3-13-27.2-47.2s-5.7-45.8-5.7-45.8 12.8-5.8 19 5.2c5.2 9 9.7 4.7 9.7 4.7s2.2 6.5-6.8 6.7c0 0 2.7 1.7 1.5 4.8-1.2 3.2-3.3 6.8-3 9.3 0 0-5.7-1.3-6-6.3-.3-5 2-3.3-.3-5s-3.5 8.3-3.5 8.3-4.8-2.3-4.8-9.2.8-7.7-2.5-6.2-4.5 5.7-2.8 9.2c1.7 3.5 29.8 42 29.8 42s-1.2-5.8 1.7-9.3c0 0 7.2 10.2 7.3 12 .2 1.8.7 16.8.7 16.8s-.2-10.5 8.5-17.3c0 0-2 7.7-.3 12.2s-1.8 10.5-7.5 23.3c0 0 3.5-3.7 8.5-4.5 5-.8 9.5-9 9.5-9s-1 12.7-5.7 15.8c-4.7 3.2-14.5 6.7-16.3 16.3-1.8 9.7.2 13.5.2 13.5s4.3-5.7 3.3-9.7 5.2 1 3.5 8 2.3 9.8 2.3 9.8 2.2-5 1.3-6.8c-.8-1.8 6.5 4 4.5 17.3 0 0 3-1.5 3-4.7s2.5 8.7.5 16.5-5.7 25-25.5 25.3c-10.7.4-15.7-2.5-15.7-2.5z"/><path d="m222.6 42.4 26.7 33.9"/><path d="M222.6 42.4s.6.3 1.7 1c1 .7 2.5 1.7 4.1 3 1.6 1.3 3.3 2.9 5.1 4.8.9.9 1.8 1.9 2.6 2.9.9 1 1.7 2 2.6 3.1.8 1.1 1.6 2.1 2.4 3.2.8 1.1 1.5 2.2 2.2 3.2 1.4 2.1 2.5 4.2 3.4 6.1.9 1.9 1.6 3.5 2 4.7.4 1.2.6 1.9.6 1.9s-.7-.3-1.7-1-2.5-1.7-4.1-3c-1.6-1.3-3.3-2.9-5.1-4.8-.9-.9-1.8-1.9-2.6-2.9-.9-1-1.7-2-2.6-3.1-.8-1.1-1.6-2.1-2.4-3.2-.8-1.1-1.5-2.2-2.2-3.2-1.4-2.1-2.5-4.2-3.4-6.1-.9-1.9-1.6-3.5-2-4.7-.4-1.2-.6-1.9-.6-1.9z" style="fill:#da141c"/><g><path class="st16" d="M222.1 33.4s-.1-.1-.3-.4c-.2-.2-.5-.6-.8-1-.3-.5-.7-1-1-1.7-.4-.7-.7-1.5-1-2.5-.6-1.9-.9-4.2-.5-6.7.2-1.2.5-2.5 1.1-3.7.6-1.2 1.4-2.4 2.4-3.3.5-.5 1.1-.9 1.8-1.2.6-.3 1.5-.5 2.1-.6 1.4-.1 2.7 0 4 .5 1.3.4 2.3 1.2 3.2 2 .8.8 1.4 1.7 1.9 2.6.9 1.8 1.3 3.3 1.6 4.4.1.5.2 1 .2 1.3 0 .3.1.5.1.5s-.2-.6-.7-1.6c-.4-1-1.1-2.4-2.2-3.9-.5-.7-1.2-1.5-1.9-2.1-.8-.6-1.7-1.1-2.7-1.4-1-.3-2.1-.3-3.2-.2-1.1.1-2 .6-2.8 1.3-.8.7-1.5 1.7-2 2.7-.5 1-.9 2.1-1.1 3.2-.2 1.1-.4 2.2-.4 3.2s.1 2 .3 2.9c.3 1.8.9 3.3 1.3 4.3.2.5.4.9.5 1.2.1.1.1.2.1.2z"/></g><g><path class="st16" d="M260 21.4s.5-.4 1.3-1.1c.9-.6 2.1-1.5 3.8-2.3.8-.4 1.8-.8 2.8-1.1 1.1-.3 2.2-.5 3.6-.3 1.3.1 2.8.9 3.6 2.1.4.6.7 1.2.9 1.9.2.6.4 1.1.5 1.8l.2 1 .1 1c.1.6 0 1.3 0 1.9 0 1.3-.2 2.5-.5 3.6-.2 1.2-.6 2.2-1 3.2s-.8 1.9-1.3 2.7c-.9 1.6-1.9 2.9-2.6 3.7-.3.4-.6.7-.9.9l-.3.3s.1-.1.2-.4c.2-.2.4-.6.6-1.1.3-.5.5-1 .9-1.7.3-.7.6-1.4 1-2.2.3-.8.6-1.7.9-2.7.3-1 .5-2 .7-3.1.1-.5.1-1.1.2-1.6 0-.6.1-1.1.1-1.7 0-.6 0-1.1-.1-1.7l-.1-.9-.2-.8c-.1-.5-.3-1.1-.4-1.7-.1-.5-.3-1-.6-1.3-.5-.8-1.3-1.3-2.2-1.5-.9-.2-2-.1-3 .1s-1.9.4-2.7.7c-1.7.6-3.1 1.2-4.1 1.6-.9.4-1.4.7-1.4.7z"/></g><g><path d="M226.2 74.8s-.1.4-.4 1c-.3.7-.6 1.6-1.1 2.7-.2.5-.5 1.1-.7 1.8-.3.6-.5 1.3-.8 2-.1.3-.2.7-.4 1-.1.4-.2.7-.3 1.1-.2.7-.4 1.5-.5 2.2-.2.7-.3 1.5-.4 2.3 0 .4-.1.8-.1 1.1 0 .4-.1.7-.1 1.1 0 .7-.1 1.4-.1 2.1 0 .7-.1 1.3-.1 1.9 0 1.2-.1 2.2-.1 2.9 0 .7-.1 1.1-.1 1.1s-.1-.4-.3-1.1c-.2-.7-.4-1.7-.6-2.9-.1-.6-.2-1.3-.3-1.9-.1-.7-.1-1.4-.1-2.2 0-.8 0-1.6.1-2.4.1-.8.2-1.6.3-2.5.2-.8.4-1.6.7-2.4.3-.8.6-1.5.9-2.2.3-.7.7-1.4 1-2 .3-.6.7-1.2 1.1-1.7.7-1 1.3-1.8 1.8-2.3.3-.4.6-.7.6-.7zM223.2 107s.1.3.3.8c.2.5.5 1.1.8 1.9.3.8.7 1.7 1.2 2.6.2.5.5 1 .7 1.4.3.5.5 1 .8 1.5.5 1 1.1 1.9 1.6 2.8.3.4.5.9.8 1.3.3.4.5.8.8 1.1.5.7.9 1.3 1.2 1.7.3.4.4.7.4.7s-.3-.1-.7-.4c-.5-.3-1.1-.7-1.8-1.3-.7-.6-1.4-1.3-2.2-2.2-.3-.4-.7-.9-1-1.4l-.9-1.5c-.6-1.1-1-2.2-1.4-3.2-.2-.5-.3-1.1-.4-1.6-.1-.5-.2-1-.2-1.4-.1-.9-.1-1.6-.1-2.2.1-.3.1-.6.1-.6zM240.6 134.1s1.5.8 3.7 2.2c1.1.7 2.3 1.5 3.6 2.5.6.5 1.3 1 1.9 1.5.6.5 1.3 1.1 1.9 1.7l1.8 1.8c.6.6 1.2 1.2 1.7 1.8l1.5 1.8c.5.6.8 1.2 1.2 1.7.3.6.6 1.1.9 1.6.2.5.4.9.5 1.3.2.7.3 1.1.3 1.1s-.3-.4-.7-1c-.2-.3-.5-.6-.8-1-.3-.4-.7-.8-1.1-1.3l-1.4-1.4c-.5-.5-1.1-1-1.6-1.6-.6-.6-1.2-1.1-1.8-1.7-.6-.6-1.2-1.1-1.8-1.7-1.2-1.1-2.5-2.3-3.6-3.3-1.2-1.1-2.2-2.1-3.2-3-1.8-1.7-3-3-3-3zM234.5 191.3s.2 0 .6.1c.2.1.4.1.7.2.3.1.6.1.9.2.7.1 1.4.3 2.2.4.8.1 1.7.2 2.5.3.9.1 1.7.1 2.6.1.8 0 1.6 0 2.3.1.7 0 1.3.1 1.7.1.4.1.7.1.7.1l-.6.3c-.4.2-.9.4-1.6.6-1.3.5-3.2.8-5.2.6-.5 0-1-.1-1.4-.2-.5-.1-.9-.2-1.4-.4-.9-.3-1.6-.7-2.2-1.1-.3-.2-.6-.4-.8-.6l-.5-.5c-.3-.1-.5-.3-.5-.3zM258.2 187.8l.5-.5c.3-.3.7-.8 1.3-1.3.5-.5 1.1-1.2 1.7-1.8.3-.3.6-.7.9-1.1.3-.4.6-.7.9-1.1.3-.4.6-.8.8-1.2.3-.4.5-.8.7-1.2.5-.8.9-1.5 1.3-2.2.2-.3.4-.6.5-.9.1-.3.3-.5.4-.7.2-.4.4-.6.4-.6v.7c0 .5 0 1.1-.2 1.9-.1.4-.1.8-.3 1.2-.1.4-.3.9-.5 1.3-.2.5-.4.9-.7 1.4-.2.5-.5.9-.8 1.3-.6.9-1.4 1.7-2.1 2.3-.4.3-.8.6-1.1.9-.4.3-.7.5-1.1.6-.7.4-1.3.6-1.7.7l-.9.3zM260.3 192.3s.1-.2.3-.5c.2-.3.5-.7.9-1.2.7-1 1.7-2.2 2.7-3.4 1-1.2 2.1-2.3 3-3.2.4-.4.8-.8 1.1-1 .3-.2.5-.4.5-.4s-.1.9-.6 2c-.5 1.2-1.3 2.6-2.4 3.8-1.1 1.2-2.4 2.3-3.5 2.9-1.2.8-2 1-2 1zM269.2 161.8s.2.2.4.6c.3.4.6.9.9 1.6.2.3.4.7.5 1.1.1.4.3.8.4 1.3.1.5.3.9.3 1.4.1.5.2 1 .2 1.5s.1 1 .1 1.5 0 1-.1 1.5c-.1.9-.2 1.8-.4 2.5-.4 1.5-.9 2.4-.9 2.4s-.1-1-.2-2.5c-.1-.7-.1-1.6-.2-2.4-.1-.9-.1-1.8-.2-2.8-.1-.9-.2-1.9-.3-2.8-.1-.9-.2-1.7-.3-2.4-.1-.7-.2-1.3-.2-1.8v-.7zM257.3 99.5s.4 1.7.6 4.3c0 .6.1 1.4.1 2.1v2.3c0 .8-.1 1.7-.1 2.5-.1.9-.2 1.7-.3 2.6-.1.9-.3 1.7-.4 2.6-.1.8-.3 1.7-.5 2.5s-.4 1.6-.6 2.3c-.2.7-.4 1.4-.6 2-.4 1.2-.8 2.3-1.1 3-.3.7-.5 1.1-.5 1.1s0-.4.1-1.2c0-.4.1-.8.1-1.4.1-.5.1-1.1.2-1.7.3-2.5.7-5.9 1.2-9.3.1-.8.2-1.7.3-2.5l.3-2.4c.2-1.6.4-3.1.5-4.3.4-2.8.7-4.5.7-4.5zM228.6 49.5s1.2 1 2.9 2.7c.8.8 1.8 1.9 2.7 3 .5.6 1 1.1 1.5 1.7l1.5 1.8c.5.6 1 1.2 1.4 1.9.5.6.9 1.2 1.3 1.8.9 1.2 1.6 2.3 2.3 3.4 1.3 2 2 3.4 2 3.4s-1.2-1-2.9-2.7c-.8-.8-1.8-1.9-2.7-3-.5-.6-1-1.1-1.5-1.7l-1.5-1.8c-.5-.6-1-1.2-1.4-1.9-.5-.6-.9-1.2-1.3-1.8-.9-1.2-1.6-2.3-2.3-3.4-1.3-1.9-2-3.4-2-3.4z"/></g><g><path d="m185.5 291.7 1.1-.8.4.7-1.2.6zM187.6 290.1l1-.8.7 1.1-1.1.6zM189.5 288.4l1-.8 1.1 1.4-1.1.7zM191.5 286.7l.9-.8 1.4 1.7-1.1.7zM193.3 285l1-.9 1.7 2-1.1.8zM195.2 283.2l.9-1 2 2.4-1.1.7zM196.9 281.3l.9-.9 2.4 2.5-1 .8zM198.6 279.5l.9-1 2.7 2.7-1 .9zM200.3 277.5l.8-1 3.1 2.9-1 .9zM201.9 275.6l.8-1 3.4 2.9-.9.9zM203.5 273.6l.7-1.1 3.7 3.1-.9.9zM204.9 271.5s.2-.3.4-.5c.2-.3.4-.5.4-.5l4.1 3.1s-.2.2-.4.5c-.2.2-.4.5-.4.5l-4.1-3.1zM206.2 269.4l.7-1.1 4.5 3.2-.8 1zM207.4 267.2s.1-.3.3-.6c.2-.3.3-.6.3-.6l5.1 3.2s-.2.3-.4.5c-.2.3-.4.5-.4.5l-4.9-3zM208.5 265.1l.6-1.2 5.5 3.1-.7 1.1zM209.7 262.9s.2-.3.3-.6c.2-.3.3-.6.3-.6l5.5 2.7s-.1.3-.3.6c-.1.3-.3.6-.3.6l-5.5-2.7zM210.9 260.8l.6-1.2 5.2 2.3-.4 1.3zM212.1 258.6l.6-1.1 4.7 1.7-.2 1.3zM213.2 256.5s.1-.3.3-.6c.1-.3.3-.6.3-.6l4.1 1.2s0 .3-.1.7c0 .3-.1.7-.1.7l-4.5-1.4zM214.4 254.2l.5-1.2 3.1.7v1.3zM215.5 251.9s.1-.3.3-.6c.1-.3.3-.6.3-.6l1.7.3s.1.3.1.7c0 .3.1.7.1.7l-2.5-.5zM216.6 249.5l.2-.5.6.1.1.5z"/><g><path d="m195.5 233.1.6-1.2.7.5-.8 1zM196.6 230.8l.5-1.2 1 .5-.6 1.1zM197.5 228.4l.4-1.2 1.3.5-.5 1.2zM198.2 226l.3-1.3 1.7.5-.5 1.2zM198.8 223.5l.2-1.3 2 .5-.4 1.2zM199.1 221l.2-1.3 2.3.4-.3 1.2zM199.3 218.5l.1-1.3 2.6.2-.2 1.3zM199.4 216l-.1-1.3h2.9l-.1 1.3zM199.2 213.5l-.1-1.3 3.2-.2v1.3zM199 211l-.2-1.3 3.4-.4.1 1.3zM198.6 208.5l-.3-1.2 3.6-.6.2 1.2zM198 206.1l-.4-1.2 3.9-.9.2 1.3zM197.3 203.8l-.5-1.3 4-1.2.3 1.3zM196.4 201.4l-.5-1.2 4.1-1.5.4 1.3zM195.4 199.2l-.5-1.2 4.2-1.8.5 1.2zM194.4 196.9l-.7-1.1 4.3-2.1.6 1.2zM193.1 194.8l-.6-1.1 4.4-2.5.5 1.2zM191.8 192.7l-.7-1.1 4.5-2.8.6 1.2zM190.4 190.6l-.8-1 4.7-3.1.6 1.1zM188.8 188.7l-.8-1 4.8-3.5.7 1.1zM187.3 186.8s-.2-.2-.4-.5c-.2-.2-.4-.5-.4-.5l4.8-3.8s.2.3.4.5c.2.3.4.5.4.5l-4.8 3.8zM185.6 184.9s-.2-.2-.4-.5c-.2-.2-.4-.5-.4-.5l4.8-4s.2.2.4.5.4.5.4.5l-4.8 4zM184 183s-.2-.2-.4-.5c-.2-.2-.4-.5-.4-.5l4.6-4.1.5.5c.2.2.4.5.4.5L184 183zM182.4 181.1s-.2-.2-.4-.5c-.2-.2-.4-.5-.4-.5l4.3-4.1s.2.2.5.4c.2.2.5.4.5.4l-4.5 4.3zM180.7 179.2l-.9-.9 4-4.1 1 .9zM179 177.3l-.9-.9 3.6-3.8 1 .8zM177.3 175.5l-.9-1 3.1-3.5 1.1.7zM175.6 173.6l-.9-1 2.6-3.1 1.1.7zM173.8 171.7l-.9-1 2.1-2.6 1.1.7zM172.1 169.8s-.2-.2-.4-.5c-.2-.2-.4-.5-.4-.5l1.5-1.9s.3.1.6.3c.3.1.6.3.6.3l-1.9 2.3zM170.3 167.9l-.9-1 .8-1.2 1.3.6zM168.6 165.9l-.4-.4.3-.5.5.2z"/></g><g><path d="m221.3 283.3.7-1.1.7.5-.7 1.1zM222.6 281.1l.6-1.2 1 .6-.7 1.1zM223.7 278.8l.6-1.2 1.2.7-.6 1.1zM224.8 276.5l.5-1.2 1.5.7-.6 1.1zM225.8 274.1l.5-1.2 1.7.8-.6 1.1zM226.7 271.7l.5-1.2 1.9.8-.5 1.2zM227.6 269.3l.4-1.2 2.1.8-.5 1.2zM228.3 266.8l.4-1.2 2.4.8-.5 1.2zM229 264.4l.4-1.3 2.6.8-.4 1.3zM229.7 261.9l.3-1.3 2.8.8-.4 1.3zM230.2 259.4l.3-1.3 3 .8-.3 1.2zM230.7 256.9l.2-1.3 3.3.7-.3 1.3zM231.1 254.4l.2-1.3 3.5.7-.3 1.2zM231.4 251.9l.2-1.3 3.7.6-.2 1.2zM231.7 249.4l.1-1.3 3.9.4-.2 1.3zM231.8 246.8l.1-1.3 4.2.4-.2 1.3zM232 244.3V243l4.4.3-.2 1.2zM232 241.8v-1.3l4.5.1v1.3zM231.9 239.2v-1.3h4.7v1.3zM231.8 236.7l-.1-1.3 5-.1v1.3zM231.6 234.2l-.1-1.3 5.1-.3v1.3zM231.4 231.7l-.2-1.3 5.3-.5.1 1.3zM231 229.2l-.2-1.3 5.4-.6.2 1.3zM230.6 226.7l-.2-1.3 5.5-.8.2 1.3zM230.2 224.3l-.3-1.3 5.7-1 .1 1.2zM229.6 221.8l-.3-1.3 5.8-1.2.2 1.3zM229 219.4l-.3-1.3 5.9-1.4.2 1.3zM228.3 216.9l-.3-1.2 5.9-1.6.3 1.2zM227.6 214.6l-.4-1.3 6.1-1.8.3 1.2zM226.8 212.2l-.5-1.2 6.2-2.1.4 1.3zM225.9 209.8l-.5-1.2 6.3-2.2.4 1.2zM224.9 207.5l-.5-1.2 6.5-2.5.4 1.2zM223.9 205.2l-.5-1.2 6.5-2.7.5 1.2zM222.8 203l-.5-1.2 6.6-3 .5 1.2zM221.7 200.7l-.6-1.1 6.8-3.3.5 1.2zM220.5 198.5l-.6-1.1 6.9-3.5.5 1.1zM219.2 196.3l-.6-1.1 7-3.8.6 1.2zM218 194.2l-.7-1.1 7.1-4.1.6 1.2zM216.7 192l-.7-1.1 7.1-4.2.6 1.1zM215.3 189.9l-.7-1.1 7.1-4.4.7 1.1zM214 187.8l-.7-1.1 7-4.5.7 1zM212.6 185.7s-.2-.3-.4-.5c-.2-.3-.4-.5-.4-.5l6.8-4.6s.2.3.4.5c.2.3.4.5.4.5l-6.8 4.6zM211.2 183.6l-.7-1.1 6.6-4.7.8 1zM209.8 181.5l-.7-1.1 6.4-4.7.8 1zM208.4 179.4l-.7-1.1 6.1-4.7.8 1zM207 177.3l-.8-1 5.8-4.7.9 1zM205.5 175.3l-.8-1.1 5.6-4.5.8.9zM204 173.2l-.8-1 5.2-4.5.9 1zM202.5 171.2l-.8-1.1 4.8-4.2.9.9zM200.9 169.1l-.8-1 4.5-4.1.9.9zM199.3 167.1l-.8-1 4.1-3.8 1 .8zM197.8 165.1l-.9-1 3.7-3.6 1 .9zM196.1 163.1l-.8-1 3.3-3.3 1 .8zM194.5 161.1l-.8-1 2.8-2.9 1.1.8zM192.9 159.1l-.8-1.1 2.3-2.4 1.1.8zM191.3 157l-.9-1 1.9-1.9 1 .7zM189.6 155l-.8-1 1.3-1.4 1.1.7zM188 153l-.8-1.1.6-.7 1.1.7z"/></g><g><path d="m201.2 309.4.8 1.1-1 .3zM202.9 311.6l.8 1.2-3.1.7.2-1.3zM204.5 313.9l.9 1.1-5.2 1.3.2-1.4z"/></g></g></g><g class="st1"><path d="M142.5 52.4c2.8 5.8 8.5 12.6 1.4 23.2s18.8 4.3 18.8 4.3l1.5-25.4-21.7-2.1z"/><path class="st3" d="m126.8 53.1 3.5 6.4 3.4-6.4 4.2 7.5 5-7.1zM127.7 73.5s1.1-3.5 3.3-5l2.8 6.1 4-5.1 3.4 6.1-13.5-2.1z"/><path class="st13" d="M174 114c3 6.7 3.7 12.3-1 25.5s5.3 15.2 7.5 7c0 0-6.3 1.8-5.2-5.7 1.2-7.5 7.7-22.3 7.7-22.3l-9-4.5z"/><path class="st13" d="M130.3 76.9c-5.3 8.9-18.8-1-25.4 1.8s-6.1 9.5-6.1 9.5c5.8-3.6 11.3-1.3 16.5.9s10.1 0 10.1 0c-7.3 3.8-20.8 3-26.6 6.6s-2.6 13.3-2.3 9.4 3.4-5.1 11.4-4.1 13.3-2 13.3-2c-6.1 6.4-10.8 6.4-24 12.5s-9.3 15.1-9.3 15.1 6-7.1 13.3-7.8 12.5-3.5 12.5-3.5-4.5 5-10.1 10.6-5.9 9.5-18.3 8.9c-14.8-.8-4.7-11.1-4.7-11.1-14.1-1.8-13.4 16.8 1.9 20.8 12.4 3.2 32.5-8.3 32.8-11.3.8-6.8 7.4-13.1 7.4-13.1-8.5 10.4-7 10.7-7.4 14.5-.2 1.5-.6 3.6-2.2 7.2-7.7 17.3-14.4 7.4-14.4 7.4-7 12.5 16.8 15 23.5 1.6s8.8-13.3 8.8-13.3c-2.3 2-1.8 10.5-1 13.1s4.1 8.5-.5 10.6-5.3-3.6-5.3-3.6c-3.4 5.1-2.4 7.8 2.3 10.9s13.1-3.8 13.9-13.4 5.9-16.4 5.9-16.4c-5.5 6.9-2.4 14.4-.9 20.6s-3 7.9-3 7.9c8.6 6.1 10.7-5 10.2-15.3s8.3-24.1 8.3-24.1c-4.8 8.8-6.3 12.6-6.3 12.6-6.6 19.3 10.1 31.2 20.3 27.1 11.2-4.5 1.4-13.5 1.4-13.5-6.3 15.6-20.1-.6-10.3-13.9s9-20.9 9-20.9-.8 1.1 3.6 9.3c9.1 16.9-5.4 27.3 12 30.9 8.6 1.8 6.5-8.2 6.5-8.2-6 3-9.5.2-8.7-10.8.8-11-2.2-12.8-2.2-12.8 4.8 3.3 12.3 4.8 12.3 4.8s-2.8-10.8-10-15.5-8.8-14.8-8.8-14.8c1.8 5 6 7.8 9.3 7.8s6.3 4.5 6.3 4.5c.5-7.3-4.5-12.3-8-16S180.9 84 180.9 84s1.8 4 7.8 4.5 8 5.5 8 5.5c6-11-6.5-17-6.5-17s3-.3 3.8-.8c8.2-5.5 3.5-11.3 3.5-11.3s-2.3 6.5-4.5 6-6.8-1.3 1.6-9.2 3.6-12.3 3.6-12.3.8 3-4 4.5-6.8-7.5-6.8-7.5l-9.5-8.3-19-6.5c-4.8 0-5.5 1.3-8.5 5.8s-13.3 5.5-17.3 5-6.8 4-6.8 6.5-1.5 5 3.8 6 21.9-1.2 26.8 9.7c1.8 4 .3 10.5-8 10.3-8.5-.3-21.3-3.8-21.8-1.3s12.8 5 17.3 5 12.8-.3 14.4-4.1"/><path class="st11" d="M169.1 40c7.9 3.8 11.9 7.3 13.3 8.2"/><path d="M169.2 40s.9.3 2.3.9c1.4.5 3.2 1.4 4.9 2.3.9.5 1.8.9 2.6 1.4.8.5 1.4 1.1 1.9 1.7.5.5.9 1 1.2 1.4.3.4.4.6.4.6l-.1.2s-.3 0-.7-.2c-.4-.1-1-.4-1.7-.7-.7-.3-1.4-.7-2.2-1.2-.7-.5-1.5-1.2-2.2-1.7-1.6-1.2-3.2-2.2-4.4-3-1.2-.8-2.1-1.3-2.1-1.3l.1-.4zM130.5 50s.1-.1.2-.1c.1-.1.3-.2.5-.3.3-.2.7-.3.7-.3l-.1 1.6-.6-.4c-.2-.1-.3-.2-.4-.3-.2-.2-.3-.2-.3-.2zM133.3 48.8s.3-.1.7-.1c.3-.1.7-.1.7-.1l-.3 3.4-.6-.2c-.3-.1-.6-.3-.6-.3l.1-2.7zM135.9 48.5H137.2l-.4 4s-.3 0-.6-.1-.6-.1-.6-.1l.3-3.8zM138.5 48.7s.3.1.6.1l.6.2-.3 3.5s-.3 0-.7.1h-.7l.5-3.9zM141 49.5s.3.1.6.3l.6.4-.2 1.7s-.3.1-.7.2c-.3.1-.7.2-.7.2l.4-2.8zM143.5 51l.1.1-.1.1zM131.9 81.1l1.2.4-1.9 11.5h-1.3zM134.2 81.8l1.3.4-1.5 10.9h-1.3zM136.6 82.4l1.2.3-1 10.4h-1.3zM138.9 83l1.3.2-.6 9.8-1.3.1zM141.3 83.4l1.3.2-.2 9.2-1.3.1zM143.7 83.7l1.3.2.2 8.6-1.3.1zM146.1 84h1.3l.5 8-1.2.2zM148.5 84.1h1.3l.9 7.3-1.3.3zM150.9 84.1l1.3-.1 1.2 6.6-1.3.4zM153.3 83.9l1.3-.1 1.5 5.9-1.3.5zM155.8 83.6l1.2-.2 1.6 5.2-1.2.6zM158.2 83.2l1.2-.3 1.7 4.5-1.1.6zM160.5 82.6l1.3-.4 1.7 3.8-1.1.7zM162.9 81.8l1.2-.5 1.7 3.2-1 .7zM165.2 80.8l1.2-.5 1.6 2.5-1 .8zM167.4 79.7l1.2-.7 1.4 1.9-1 1zM169.6 78.4l1.1-.7 1.1 1.3-.8 1zM171.7 76.9l1-.8.8.8-.8 1zM173.7 75.3l.9-.9.4.3-.7 1.1zM175.6 73.5l.7-.7-.6.8zM131.8 42.9c0 2.6 1.6 5.9-4.3 4.6-3.4-.7 4.3-4.6 4.3-4.6z"/><path class="st10" d="M176 67.8c-3.4-1.1 2.8-5.6 3.5-8.4s0-6.3 1.3-6.5 5.4 3.6 3.1 8.1-7.4 7-7.9 6.8z"/><g><path class="st3" d="m157.5 47.6.5 3.8-4.3-3.2z"/><path d="M150.5 46.5c1.5-.6 3-1.1 4.5-1.6s3.1-.9 4.6-1.4l.5-.1.1.5c.4 1.8.8 3.7 1.1 5.5.2.9.3 1.9.4 2.8.1.9.3 1.9.3 2.8-.3-.9-.6-1.8-.8-2.7-.3-.9-.5-1.8-.7-2.7-.5-1.8-.9-3.6-1.3-5.5l.6.4c-1.5.4-3.1.8-4.7 1.1-1.4.4-3 .7-4.6.9z"/></g><g><path class="st17" d="M176.6 87.3c-6.3 6.9-1.9 14.4-4.3 18.9-2.4 4.5-7.4 4.2-8.5-.7-1.2-4.8 1.8-6.6 3.1-4.8s3.4 1.8 3.1-3.8c-.3-5.5 1.7-7.7 3.1-8.4 1.4-.7 3.5-1.2 3.5-1.2zM134.5 97.7c-6.3 6.9-3.8 12-6.2 16.5-2.4 4.5-7.4 4.2-8.5-.7-1.2-4.8 1.8-6.6 3.1-4.8s6.6-1.5 6.8-4.3c.2-5.4 4.8-6.7 4.8-6.7zM158.1 99.2s-1.4 3.5-1.9 5.9c-.9 4.8-1.7 10.5-5.9 11.6-6.3 1.6-4.9-6.4-3.8-6.6 2.6-.5.4 3.9 3.9 1.4s7.5-13.2 7.7-12.3zM140.3 106.2c-4.6 9.5.3 23-8.9 24.8-6.6 1.3-3.5-9.1-3.5-9.1s1.5 4.8 4.9 2.6 1.9-12 5.6-16.9l1.9-1.4zM159.6 117.5c-3.1 2.8-6.8 7.9-9.8 15.8s-10.8 10-12.6 4.8 4.3-8 4.3-8 .1 4.4 3.5 3 7.6-14.8 10.9-15.6 3.7 0 3.7 0zM127 134.9s-4.8 15.6-10.1 12.4c-3.9-2.4.4-8.2 2.1-6.3 1.3 1.5 3.3-1.2 5-3.3 1.5-1.7 3-2.8 3-2.8zM122.6 120c-3.4 2.8-10.9 17.4-14.5 13.1s-.7-7.4 1.8-5.4c1.9 1.7 12.7-7.7 12.7-7.7z"/></g><g><path class="st18" d="M163.1 66.5c0 2.3-.6 7-1.3 8.4M166.2 66.7c-.3 3.1-.6 5.4-1.2 7.3"/></g><g><path class="st16" d="m127.9 83.1-1.2.6c-.4.2-.8.4-1.4.6-.6.2-1.2.4-2 .5-.7.1-1.5.3-2.4.3-.8 0-1.8.1-2.7 0-1.9-.1-3.8-.5-5.6-.9-.5-.1-.9-.2-1.4-.3-.5-.1-.9-.2-1.3-.2-.9-.1-1.7-.2-2.6-.2-.4 0-.8.1-1.2.1-.4 0-.8.2-1.1.2-.2 0-.4.1-.6.1-.2.1-.3.1-.5.2-.3.1-.7.3-1 .4-.6.3-1.2.6-1.7.9-.5.3-.9.6-1.2.8-.6.5-1 .8-1 .8s.3-.4.8-1c.3-.3.6-.8 1-1.1.5-.4 1-.9 1.6-1.3.3-.2.7-.4 1-.6.2-.1.4-.2.5-.3.2-.1.4-.1.6-.2.4-.1.8-.3 1.3-.4.5-.1.9-.2 1.4-.2.9-.1 2-.1 2.9 0 .5 0 1 .1 1.5.2s1 .2 1.4.3c.9.2 1.9.4 2.8.6.9.2 1.8.4 2.6.5.9.2 1.7.2 2.5.3.8 0 1.5 0 2.2.1.7 0 1.3-.1 1.9-.1.6 0 1.1-.2 1.5-.2.9-.4 1.4-.5 1.4-.5zM125 92.9s-.1.1-.3.2c-.2.1-.5.4-.9.6-.8.5-1.9 1.1-3.4 1.7-.7.3-1.5.6-2.4.8-.9.2-1.8.5-2.8.6-1.9.4-4 .6-6 .8l-3 .3c-1 .1-2 .2-2.9.4-.9.2-1.8.4-2.6.6-.8.3-1.5.6-2.1 1-.6.4-1.1.8-1.4 1.3-.2.2-.3.5-.5.7-.2.2-.3.4-.3.6-.2.4-.3.7-.4 1-.1.2-.1.4-.1.4v-.4c0-.2 0-.6.1-1.1 0-.2.1-.5.2-.8.1-.3.2-.6.4-.9.3-.6.8-1.2 1.4-1.8 1.2-1.2 3-2 5-2.5 1-.3 2-.5 3-.6 1-.2 2.1-.3 3.1-.4 1-.1 2-.2 3.1-.3 1-.1 2-.2 2.9-.3.9-.1 1.9-.2 2.7-.4.9-.1 1.7-.3 2.4-.4.7-.2 1.4-.3 2-.5.6-.2 1.1-.3 1.5-.5.8.1 1.3-.1 1.3-.1zM118.2 106.7l-.3.3c-.2.2-.4.5-.8.8-.7.7-1.8 1.6-3.3 2.5-1.4.9-3.2 1.9-5.2 2.7-1 .4-2 .8-3.1 1.2-1.1.4-2.1.7-3.2 1.1-1.1.3-2.1.7-3.2 1-1 .4-2 .7-3 1.1-1.9.8-3.5 1.7-4.8 2.8-.6.5-1.1 1.1-1.6 1.6-.4.5-.8 1-1 1.4-.3.4-.4.8-.6 1l-.2.4s0-.1.1-.4c.1-.3.1-.7.3-1.1.2-.5.4-1.1.7-1.7.3-.6.8-1.3 1.4-2 .6-.7 1.3-1.3 2.1-1.9.8-.6 1.7-1.2 2.7-1.6 1-.5 2-1 3-1.3 1.1-.4 2.1-.8 3.2-1.1 2.2-.7 4.3-1.4 6.3-2 1-.4 1.9-.7 2.8-1 .9-.3 1.7-.7 2.5-1 .8-.3 1.5-.7 2.1-1 .6-.3 1.1-.6 1.6-.8 1-.7 1.5-1 1.5-1zM106.1 134.3s-.1.1-.4.3c-.3.2-.6.6-1.1.9-.5.4-1.1.9-1.9 1.3-.7.5-1.6.9-2.6 1.4-.5.2-1 .4-1.5.7-.5.2-1.1.4-1.7.6-1.2.4-2.5.7-3.8.9-1.3.2-2.7.4-4.2.5-1.4 0-2.9 0-4.3-.2-1.5-.2-2.9-.5-4.3-.9s-2.7-1.1-3.9-1.9c-1.2-.8-2.2-2-2.6-3.4-.4-1.4-.2-2.7.3-3.8.1-.3.2-.5.4-.8.1-.2.3-.4.4-.7.3-.4.6-.8.9-1.1.6-.7 1.2-1.2 1.6-1.6.5-.4.9-.7 1.2-.9.3-.2.4-.3.4-.3s-.5.5-1.3 1.5c-.4.5-.9 1-1.3 1.8-.2.3-.5.7-.7 1.1l-.3.6c-.1.2-.1.5-.2.7-.3.9-.3 2 .1 2.9.4.9 1.2 1.8 2.2 2.4 1 .7 2.2 1.1 3.5 1.5 1.3.4 2.6.6 3.9.8 1.3.2 2.7.2 4.1.2 1.3 0 2.7-.1 4-.3 1.3-.2 2.5-.4 3.7-.6 1.2-.3 2.2-.6 3.2-.9 1-.3 1.9-.7 2.7-1 .8-.3 1.4-.7 2-.9.9-.5 1.5-.8 1.5-.8zM114.9 149.7s0 .1-.1.3c-.1.2-.1.4-.3.7-.3.6-.7 1.5-1.5 2.4-.4.4-.8.9-1.3 1.4-.5.4-1.1.9-1.7 1.3-1.2.8-2.7 1.4-4.3 1.7-.8.1-1.6.2-2.5.1-.8-.1-1.6-.4-2.3-.8-.7-.4-1.3-.9-1.7-1.5-.5-.6-.7-1.2-.9-1.8-.2-.6-.3-1.1-.3-1.6-.1-.5 0-.9 0-1.2.1-.7.1-1 .1-1s.1.4.3 1c.1.3.2.7.4 1.1.2.4.4.8.6 1.3.3.4.6.9 1 1.2.4.4.9.7 1.4.9 1.1.5 2.4.5 3.7.3 1.3-.2 2.6-.7 3.8-1.2 1.2-.6 2.2-1.3 3-1.9.4-.3.8-.7 1.1-1l.8-.8c.4-.6.7-.9.7-.9zM138.8 140.5s-.2.6-.4 1.7-.5 2.7-.8 4.6c-.3 1.9-.5 4.1-.9 6.6-.2 1.2-.3 2.5-.6 3.7-.3 1.3-.5 2.6-.9 3.8-.4 1.3-.9 2.6-1.8 3.8-.4.6-.9 1.1-1.6 1.6-.6.4-1.4.7-2.1.8-.4 0-.7.1-1.1 0-.3 0-.6-.1-.9-.1-.3 0-.7-.2-1-.3-.2-.1-.3-.1-.5-.2l-.4-.3c-1.1-.7-1.9-1.8-2.1-2.8-.3-1-.3-2-.3-2.8.1-.8.2-1.5.3-2.1.3-1.1.5-1.7.5-1.7s-.1.6-.1 1.8c0 .6 0 1.2.1 2s.3 1.6.6 2.4c.4.8 1 1.5 1.8 1.9l.3.2.3.1c.2 0 .4.1.7.1.3 0 .6 0 .9.1.2 0 .5 0 .7-.1.5-.1.9-.3 1.3-.6s.7-.7 1.1-1.1c.6-.9 1.1-2.1 1.4-3.2.4-1.2.7-2.4.9-3.6.3-1.2.5-2.5.8-3.6.5-2.4 1-4.6 1.5-6.5.5-1.9 1.1-3.4 1.5-4.5.2-.5.4-.9.6-1.2.1-.3.2-.5.2-.5zM155.8 127.8s-1 2.7-2.9 6.5c-.9 1.9-2.1 4.1-3.2 6.5-.6 1.2-1 2.4-1.4 3.7-.4 1.3-.6 2.6-.6 3.9v2c0 .7.1 1.3.2 2 .2 1.3.4 2.7.7 4 .3 1.3.5 2.6.6 3.9.1 1.3 0 2.5-.4 3.7-.4 1.1-1.2 1.9-2 2.4s-1.6.7-2.2.8c-.6.1-1.1.2-1.4.2h-.5s.2 0 .5-.1.8-.2 1.3-.5c.6-.2 1.2-.6 1.9-1.1.6-.5 1.2-1.2 1.4-2.1.2-.9.2-2 0-3.1s-.5-2.4-.8-3.6c-.3-1.3-.7-2.6-.9-4.1-.1-.7-.2-1.5-.2-2.2 0-.8-.1-1.5 0-2.2.1-1.5.3-3 .7-4.4.4-1.4 1.1-2.7 1.7-3.9.6-1.2 1.3-2.3 1.9-3.3.6-1 1.2-2 1.8-2.9 1.1-1.8 2.1-3.3 2.8-4.3.5-1.2 1-1.8 1-1.8zM168.6 121.6s-.4.9-1.1 2.4c-.4.7-.7 1.7-1.2 2.7-.5 1-1 2.2-1.5 3.5-.6 1.3-1.1 2.7-1.7 4.2-.6 1.5-1.1 3.1-1.7 4.8-.3.8-.5 1.7-.7 2.5-.2.9-.5 1.7-.6 2.6l-.3 1.3-.2 1.3c-.2.9-.2 1.8-.2 2.7v1.3c0 .4 0 .9.1 1.3.2.9.2 1.7.6 2.6.2.8.6 1.6 1 2.3.2.4.5.7.7 1l.4.5c.1.2.3.3.4.4l.9.9c.3.3.6.5 1 .8.7.6 1.3 1 1.9 1.4 1.3.8 2.7 1.4 4 1.7 1.3.3 2.5.2 3.6-.2 1-.4 1.8-1 2.3-1.6.3-.3.4-.6.6-.9.1-.3.3-.5.3-.7.1-.4.2-.6.2-.6s0 .2-.1.7c0 .2-.1.5-.2.8-.1.3-.3.7-.5 1-.4.7-1.2 1.5-2.3 2-1.1.5-2.5.8-4 .6-1.5-.2-3-.7-4.5-1.5-.7-.4-1.5-.9-2.2-1.4-.4-.3-.7-.5-1.1-.8-.3-.3-.7-.6-1-1-.2-.2-.4-.3-.5-.5l-.4-.6-.9-1.2c-.2-.4-.5-.9-.7-1.3-.3-.4-.4-.9-.5-1.4-.4-.9-.5-1.9-.7-2.9-.1-.5-.1-1-.1-1.5s-.1-1 0-1.5c.1-1 .1-2 .3-2.9l.2-1.4c.1-.5.2-.9.3-1.4.1-.5.2-.9.3-1.4.1-.4.3-.9.4-1.3.3-.9.5-1.8.9-2.6.6-1.7 1.3-3.3 2-4.8s1.4-2.9 2-4.1c.6-1.3 1.3-2.4 1.9-3.4.6-1 1.1-1.9 1.5-2.6.5-1 1.1-1.8 1.1-1.8zM198.6 132.4l-1-.5c-.6-.3-1.5-.8-2.6-1.5-.5-.3-1.1-.7-1.6-1.2-.6-.4-1.2-.9-1.8-1.4-.6-.5-1.2-1-1.8-1.6-.6-.6-1.2-1.2-1.8-1.7-.6-.6-1.1-1.2-1.6-1.8-.5-.6-1-1.3-1.5-1.9-.9-1.2-1.8-2.4-2.4-3.4-.7-1-1.3-1.8-1.7-2.4-.4-.6-.7-.9-.7-.9s.1.1.3.2c.2.1.4.2.7.5.3.2.7.5 1 .8.4.3.8.7 1.3 1.1.9.9 1.9 1.9 2.9 3 .5.6 1 1.1 1.6 1.7.5.6 1.1 1.2 1.6 1.8.6.6 1.1 1.2 1.7 1.7.6.6 1.1 1.1 1.6 1.7l2.9 2.9 2.1 2.1c.6.5.8.8.8.8zM178.9 93.9s1.1 1.3 2.6 3.4c.7 1 1.6 2.2 2.6 3.3.5.6 1.1 1 1.7 1.6.6.5 1.3 1 1.9 1.5.7.5 1.4 1 2 1.4.3.2.7.5 1 .7.3.2.7.5 1 .7.3.3.7.5 1 .8.3.3.6.6.8.9.5.6.9 1.2 1.2 1.8.3.6.5 1.2.7 1.7.1.5.2 1 .2 1.4 0 .8-.1 1.2-.1 1.2s0-.4-.3-1.1c-.2-.7-.7-1.6-1.4-2.5-.4-.5-.8-.9-1.3-1.4-.5-.5-1.1-.9-1.7-1.3-.7-.4-1.4-.8-2.1-1.3-.7-.5-1.4-.9-2.1-1.4-.7-.5-1.4-1.1-2-1.6-.7-.6-1.2-1.2-1.8-1.9-.5-.6-1-1.4-1.3-2-.4-.7-.7-1.3-.9-1.9-.5-1.2-.9-2.2-1.2-2.9-.4-.7-.5-1.1-.5-1.1zM183.5 79.3s.3 0 .9-.1c.3 0 .6 0 1-.1.4 0 .9.1 1.4.1.5 0 1 .2 1.6.4.6.1 1.1.4 1.7.7.6.3 1.1.6 1.7 1 .5.4 1.1.8 1.6 1.3s.9 1 1.3 1.6c.2.3.4.6.5.8.2.3.3.6.5.8.1.3.3.6.4.8.1.3.2.6.3.8.2.5.3 1.1.4 1.6.2 1 .2 1.8.2 2.4 0 .3-.1.5-.1.7v.2l-.3-.9c-.2-.5-.5-1.3-.9-2.1-.2-.4-.4-.9-.7-1.3-.3-.5-.6-.9-.9-1.4-.3-.5-.7-.9-1-1.4-.4-.5-.8-.9-1.2-1.3-.4-.5-.9-.8-1.3-1.2-.5-.3-.9-.7-1.4-1-.5-.3-.9-.6-1.4-.8-.5-.2-.9-.5-1.3-.6-.4-.2-.8-.3-1.2-.5-.4-.1-.7-.2-1-.3-.5-.1-.8-.2-.8-.2zM187.1 73h2.4c.3 0 .7 0 1.1-.1.4 0 .8-.1 1.1-.1.4 0 .8-.2 1.1-.3.2-.1.4-.1.6-.2l.5-.3c.3-.2.7-.4.9-.6.2-.1.3-.2.4-.4l.4-.4c.1-.1.2-.3.3-.4.1-.2.2-.3.3-.5.2-.3.3-.6.5-.9.1-.3.2-.6.4-.9.1-.3.2-.5.3-.7.1-.4.3-.6.3-.6s.1.2.1.7c0 .2.1.5.1.8v1c-.1.4-.1.8-.2 1.2-.1.2-.1.4-.2.7-.1.2-.2.4-.3.7-.1.2-.3.4-.4.6-.1.2-.3.4-.5.6-.4.4-.8.7-1.3 1l-.7.3c-.3.1-.5.2-.8.2-.3.1-.5.1-.8.1-.3 0-.5.1-.7 0-.5 0-.9 0-1.4-.1l-1.2-.3c-.4-.1-.7-.3-.9-.4-.3-.1-.5-.3-.7-.4-.5-.1-.7-.3-.7-.3zM188.4 58.7l.6-.3c.4-.2.9-.4 1.6-.7.3-.1.7-.3 1-.4.4-.1.7-.3 1.1-.5.4-.2.8-.3 1.2-.5.4-.2.8-.4 1.1-.6.4-.2.7-.4 1-.7.3-.3.6-.5.8-.8l.6-.9c.2-.3.3-.6.4-.9.1-.3.2-.6.2-.9 0-.3.1-.5.1-.7.1-.4.1-.7.1-.7l.3.6c.1.2.2.5.2.8.1.3.1.6.1 1s0 .8-.1 1.3-.3.9-.5 1.4c-.3.5-.6.9-1 1.2-.4.4-.8.7-1.3 1-.9.5-1.8.9-2.7 1.1-.4.1-.9.2-1.3.2-.4.1-.8.1-1.2.1-.7 0-1.3 0-1.7-.1h-.6z"/></g><g><path class="st11" d="M187.1 47.9c-.1-.1-7.4-5.9-10-7.5-1.9-1.2-5.9-3.3-7.9-4.2-2.8-1.2-11.7-4-11.8-4l-.6-.2-3.1-18.4.5-.4c.3-.2 3.1-2.1 5.1-2.1 1.1 0 1.8.5 2.2 1.4.8 2-.6 3-1.2 3.4-.1 0-.1.1-.2.1.1.1.4.1.8.2 1 .2 2.4.5 3.1 2.2.6 1.7-.1 3.2-.7 4.5-.3.6-.6 1.3-.5 1.6.2 1.1.8 1.7 1.7 1.7h.2c1.7-.1 2-.5 2-.5.1-.2-.3-.9-.5-1.3-.5-1-1-2.2-.5-3.3.4-.8 1.3-1.4 2.7-1.7.5-.1.9-.2 1.3-.2.8 0 1.4.3 1.8.8.7.9.2 2.2-.2 3.5-.2.6-.7 2-.5 2.3 0 .1.3.2.9.2h.6c1.1-.1 1.3-.4 1.3-.4.1-.2-.3-1.1-.6-1.5-.5-1.1-1.1-2.3-.7-3.6.3-.7.8-1.3 1.7-1.7.7-.3 1.3-.5 1.8-.5.9 0 1.4.4 1.7.7l.1-.1c.2-.2.4-1.4.4-2.1.2-2.1.6-5.3 3.9-5.3 1.2 0 2.6.5 4.4 1.4L186 14l.5-.9c2.7 1.4 4.1 2.8 4.2 4.4.2 2-1.5 3.4-2.8 4.6-.5.5-1.4 1.2-1.5 1.5v.2c.9.2 1.8.8 2.2 2.8.2.9 0 1.7-.4 2.3-.8 1.1-2.1 1.3-3.3 1.4-.5.1-1.4.2-1.6.4 0 0-.1.3.5 1.3.5.9.9 1.1 1 1.1.4 0 1.2-1.1 1.6-1.7.8-1.1 1.6-2.2 2.7-2.2 1.4 0 2 1.6 2.3 2.2.6 1.4.6 2.4.1 3.2-.6 1.1-1.9 1.3-3 1.5-.4.1-1.2.2-1.3.4 0 0-.1.4.7 1.8v.1c0 .1.4.8 1.4.8.3 0 .7-.1 1.1-.3.3-.1.7-.8 1-1.3.7-1.2 1.6-2.6 3.3-3.1.3-.1.6-.1.9-.1 1.3 0 2.1.8 2.7 1.4.2.2.5.5.7.6v-.2c0-.7 0-2.4 2.2-2.9.2 0 .3-.1.5-.1.6 0 1.1.2 1.6.7 1.4 1.5 1.4 5.1 1.4 5.8v.6l-17 7.8-.6-.2zm-12.3-15.4c.7.3 1.3.5 1.7.7.3.2.7.5 1.2.8-.2-.9-.3-1.8-.3-2.7-.9.6-1.8.9-2.6 1.2z"/><path d="M159.3 12c.6 0 1 .2 1.3.8.9 2.3-1.9 2.1-1.5 3.4.5 1.6 3.2.4 4 2.6.8 2.3-1.5 4.5-1.2 5.9.4 2.3 2 2.5 2.7 2.5h.3c7.2-.5-2.2-5.5 3.9-6.8.4-.1.8-.1 1.1-.1 3.6 0-3 6.7 2 6.7h.7c5.8-.5-2.1-5.3 2.1-7.2.6-.3 1.1-.4 1.4-.4 1 0 1.1.8 1.6.8.2 0 .5-.1.9-.5 1.4-1.2-.1-7.1 3.6-7.1.9 0 2.2.4 3.9 1.3h.2c8.6 4.5-.3 7.2-.6 9.5s1.6 0 2.2 3.3c.8 4.5-7.6.7-4.7 5.8.7 1.2 1.3 1.6 1.8 1.6 1.7 0 3-3.8 4.3-3.8.4 0 .9.4 1.3 1.5 2.4 5.8-7.1.8-3.4 7 0 0 .6 1.4 2.3 1.4.4 0 .9-.1 1.5-.3 1.4-.6 1.9-3.7 4.2-4.3.2-.1.4-.1.6-.1 1.6 0 2.2 2 3.4 2h.3c1.3-.4-.4-2.6 1.9-3.1h.3c2.1 0 2 5.5 2 5.5l-15.8 7.3s-7.4-5.9-10.1-7.6c-1.9-1.2-6-3.4-8.1-4.3-2.9-1.2-11.9-4-11.9-4l-3-17.3s2.7-2 4.5-2m20.1 25s-2-5.5-.7-8.2l.3-.6-.3.6c-1.5 2.6-7.4 3.6-7.4 3.6s3.5 1.1 4.6 1.7c1 .6 3.5 2.9 3.5 2.9m-20.1-27c-2.3 0-5.1 1.9-5.7 2.3l-1 .7.2 1.2 2.8 17.2.2 1.2 1.2.4c.1 0 9 2.8 11.7 4 2 .9 5.9 2.9 7.8 4.1 2.5 1.6 9.8 7.4 9.9 7.5l1 .8 1.1-.5 15.8-7.3 1.1-.5v-1.3c0-1.1 0-4.8-1.7-6.5-.6-.6-1.4-1-2.3-1-.2 0-.5 0-.7.1-1.4.3-2.3 1-2.7 2.1-.6-.5-1.5-1-2.6-1-.4 0-.8.1-1.1.2-.7.2-1.3.5-1.8.9.4-1.4-.2-2.9-.4-3.4-.7-1.6-1.5-2.5-2.7-2.7.2-.6.2-1.3 0-2-.3-1.6-.9-2.5-1.6-3 .2-.2.4-.4.6-.5 1.5-1.3 3.4-3 3.2-5.5-.2-1.9-1.7-3.3-3.3-4.3v-.1l-1.5-.8h-.1l-1.5-.8v.1c-1.3-.5-2.3-.8-3.3-.8-4.1 0-4.6 4.2-4.8 6.2 0 .2-.1.5-.1.8-.3-.1-.7-.2-1.2-.2-.7 0-1.4.2-2.2.5-.7.3-1.2.7-1.6 1.2-.4-.4-1.2-.8-2.3-.8-.4 0-.9.1-1.5.2s-2.1.5-3.1 1.6c0-.6 0-1.3-.3-2-.6-1.7-1.8-2.3-2.8-2.7.7-1 .8-2.1.3-3.4-.4-1.4-1.6-2.2-3-2.2zm4.5 14.4c0-.2.3-.7.4-1.1.1-.2.2-.4.3-.7.1.8.5 1.6.8 2.2 0 .1.1.2.1.3-.2 0-.4.1-.7.1h-.2c-.2 0-.5 0-.7-.8zm8.1.6c.1-.2.1-.4.2-.6 0 .1.1.1.1.2.1.1.1.3.2.4h-.5zm12.6 6.4c.2 0 .3-.1.5-.1h.2c-.1.2-.3.4-.4.5 0-.1-.1-.2-.2-.3l-.1-.1zm3.8 5.8h.3c.7-.1 1.5-.2 2.3-.6-.1.2-.3.4-.4.6-.2.3-.5.8-.6 1-.3.1-.5.1-.6.1-.2 0-.4-.1-.5-.3l-.1-.1c-.2-.3-.3-.5-.4-.7z"/></g><g><path class="st11" d="M152.4 71.1c-16.7-3-34.6-9.7-40-12.5-2.1-1-3.4-3.1-3.4-5.1-.2-2.1 1.2-4.8 3.6-5.2h.3l.2.1c1.8.6 2.4 2.5 2.8 3.8.1.2.1.4.2.5.4 1.7 1 3 1.8 4.1 4.8 3.4 24.9 9.3 32.6 10.7.6.1 2.7 1.6 3 2.1l1.3 1.9-2.4-.4z"/><path d="M112.7 49.3c1.6.5 1.9 2.3 2.3 3.7.4 1.6 1 3.2 2.1 4.5 4.9 3.6 25.6 9.6 33.1 11 .3.1 2.2 1.4 2.4 1.6-17-3-34.9-9.9-39.7-12.4-1.6-.8-2.9-2.4-2.9-4.2-.2-1.8.8-3.9 2.7-4.2m.1-2-.5.1c-3 .5-4.6 3.5-4.4 6.2 0 2.4 1.6 4.7 4 5.9 5.4 2.8 23.4 9.6 40.3 12.6l4.6.8-2.6-3.9c-.4-.7-2.8-2.3-3.6-2.5-7.5-1.4-27.2-7.1-32-10.5-.7-.9-1.2-2.1-1.6-3.6v-.2c-.1-.2-.1-.3-.2-.5-.4-1.5-1.1-3.6-3.4-4.4h-.6z"/></g></g><path d="M3.1 3.2v196c0 80.6 65.4 146 146 146s146-65.4 146-146V3.2H3.1z" style="fill:none;stroke:#000;stroke-width:6"/><path class="st13" d="M160.1 64.5c.8 4.1-.2 10.1-2.8 11.9"/><g><path d="M249.9 239.1s.4-.2 1.1-.6c.3-.2.7-.5 1.2-.7.4-.3.9-.7 1.5-1 .6-.4 1.1-.8 1.7-1.3.6-.5 1.2-1 1.9-1.5 1.3-1.1 2.6-2.3 3.8-3.5.6-.6 1.2-1.3 1.8-1.9.6-.7 1.1-1.3 1.7-1.9 1.1-1.2 2.2-2.3 3.2-3.3 1.9-1.9 3.3-3.1 3.3-3.1l.2.1s-.6 1.8-2.2 4c-.4.6-.8 1.2-1.3 1.8-.5.6-1 1.2-1.6 1.9-.6.6-1.2 1.2-1.9 1.8-.7.6-1.3 1.2-2.1 1.8-1.4 1.2-2.8 2.3-4.2 3.3-.7.5-1.4 1-2 1.4-.7.4-1.3.8-1.9 1.1-.6.3-1.1.6-1.6.9-.5.2-.9.4-1.3.6-.7.3-1.1.5-1.1.5l-.2-.4zM250.1 252.8s1.2-.7 3.1-1.7c1.9-1 4.5-2.2 7-3.6.6-.3 1.2-.7 1.8-1 .6-.4 1.2-.7 1.7-1 1.1-.6 2.2-1.2 3.1-1.7.4-.3.8-.5 1.2-.7.4-.2.7-.4.9-.6.5-.4.8-.6.8-.6l.2.1s-.1.3-.4.9c-.2.3-.4.6-.6 1-.3.3-.6.8-1 1.1l-.6.6c-.2.2-.5.4-.7.6-.5.4-1.1.7-1.7 1.1-1.2.7-2.6 1.2-3.9 1.7-2.7 1.1-5.3 2-7.4 2.8-2 .7-3.3 1.2-3.3 1.2l-.2-.2zM245.9 265.8s1.2-.4 3-.8c1.8-.5 4.3-1 6.7-1.8 1.2-.4 2.3-.8 3.4-1.2.5-.2 1.1-.3 1.6-.5.5-.1 1-.3 1.5-.4.9-.2 1.7-.4 2.2-.5.6-.1.9-.1.9-.1l.1.2s-.9 1-2.6 1.9c-.8.5-1.9 1-3 1.4-.6.2-1.2.3-1.8.4-.6.1-1.3.2-1.9.4-2.5.5-5 .7-6.9.9-1.9.2-3.1.3-3.1.3l-.1-.2zM240 276.4s1.3.2 3.2.4c1 .1 2.1.2 3.3.2 1.2 0 2.5 0 3.8-.1.6 0 1.3-.1 1.9-.2l1.8-.3c.6-.1 1.1-.2 1.7-.2.5-.1 1-.1 1.5-.2 1-.1 1.8-.3 2.3-.3.6-.1.9-.1.9-.1l.1.2s-.3.2-.7.6c-.5.4-1.2.8-2.1 1.2l-1.5.6c-.6.2-1.2.3-1.8.4-.6.1-1.3.1-2 .1h-2c-2.7-.1-5.3-.5-7.2-1-1-.2-1.8-.4-2.3-.6-.5-.2-.9-.3-.9-.3v-.4zM231.2 284.4s1.2.2 2.9.6c1.7.3 4 .9 6.4 1.2.6.1 1.2.2 1.7.2.6.1 1.1.1 1.7.2 1.1.1 2.1.3 2.9.5.9.2 1.6.3 2.1.5.5.1.8.2.8.2v.2s-1.2.5-3 .7c-.5.1-1 .1-1.5.1s-1.1 0-1.6-.1c-1.1-.2-2.3-.5-3.4-.9-2.3-.7-4.6-1.4-6.2-2.1-1.7-.6-2.8-1.1-2.8-1.1v-.2z"/></g><g><path d="m182 314.8.5 1.3h-1.1zM183.1 317.4l.5 1.3-3.4-.1.6-1.2zM184.2 320l.5 1.4-5.7-.2.6-1.3z"/></g><g><path d="M170.1 298.8h-1.4l.5-1.1zM167.3 298.8l-1.5-.1 1.5-3.2 1 1.1zM164.4 298.7H163l2.5-5.3.9 1.1z"/></g><g><path d="m166.4 313.3-1 1-.4-1zM164.4 315.3l-.9 1.1-1.4-3.1h1.5zM162.5 317.4l-1 1-2.2-5h1.4z"/></g><g><path d="m48.5 187 .6 1.2-1 .2zM49.8 189.5l.7 1.2-3.3.4.4-1.4zM51.2 191.9l.7 1.3-5.5.6.4-1.4z"/></g><g><path d="m38.9 187.7-.8 1.1-.6-1zM37.2 190l-.8 1.1-1.7-2.9 1.4-.2zM35.6 192.3l-.8 1.1-3-4.8 1.5-.2z"/></g><g><path d="m35.4 179.5-1.4.5.1-1.1zM32.7 180.6l-1.3.5.2-3.6 1.3.7zM30 181.6l-1.3.5.4-5.9 1.2.7z"/></g><g><path d="m60.8 186.8.8 1.1-1 .3zM62.5 189l.7.9-2.9.8.1-1.1z"/></g></svg>