<svg xmlns="http://www.w3.org/2000/svg" width="168.7mm" height="656.126"><path style="fill:#131516;fill-rule:evenodd;fill-opacity:1;stroke:none" d="m282.233 614.926-1.768-.192-1.807-.193-1.807-.153-1.768-.193-1.807-.192-1.768-.154-1.807-.192-1.768-.154-1.807-.192-1.768-.154-1.768-.192-1.807-.154-1.768-.153-1.769-.193-1.768-.153-5.535-1-5.497-1.038-5.382-1.115-5.343-1.153-5.267-1.23-5.19-1.308-2.613-.653-2.576-.692-2.575-.692-2.537-.73-2.576-.731-2.537-.769-2.537-.807-2.499-.77-2.537-.845-2.499-.846-2.537-.846-2.498-.884-2.499-.884-2.499-.923-2.498-.96-2.499-.962-2.537-1-2.499-.999-2.498-1.038-2.5-1.077-4.112-2.037-3.23-1.576-2.69-1.346-2.422-1.23-2.46-1.307-2.806-1.461-3.422-1.846-4.382-2.345-3.69-2.306-3.652-2.307-3.613-2.345-3.537-2.345-3.498-2.422-3.421-2.384-3.422-2.46-3.344-2.46-3.344-2.538-3.268-2.5-3.267-2.575-3.23-2.614-3.19-2.614-3.152-2.653-3.114-2.691-3.114-2.73-3.92-4.037-3.076-3.152-2.498-2.614-2.153-2.269-2.114-2.268-2.268-2.537-2.768-3.076-3.46-3.883-2.345-3.037-2.306-3.037-2.23-3.037-2.23-3.037-2.152-3.037-2.114-3.038-2.076-3.037-1.999-3.037-1.999-3.037-1.922-3.076-1.922-3.037-1.845-3.075-1.768-3.114-1.769-3.114-1.73-3.114-1.652-3.153-1.154-2.537-1.115-2.538-1.153-2.537-1.115-2.499-1.114-2.537-1.115-2.538-1.115-2.537-1.115-2.537-.884-2.692-.884-2.69-.884-2.692-.846-2.653-.807-2.69-.807-2.653-.808-2.653-.768-2.653-.77-2.614-.691-2.653-.73-2.614-.654-2.614-.692-2.576-.615-2.576-.615-2.576-.577-2.575-.5-3.499-.46-3.076-.385-2.69-.346-2.384-.308-2.038-.269-1.807-.192-1.614-.192-1.423-.154-1.307-.154-1.192-.115-1.192-.115-1.153-.154-1.192-.115-1.307-.116-1.422-.153-1.577-2.115-53.592-1.845-46.98-1.614-40.943-1.384-35.446-1.23-30.487-1-26.104-.884-22.183-.73-18.876-.615-16.109-.5-13.84-.461-12.187-.385-10.995-.384-10.38-.346-10.342-.385-10.803L0 0h597.756l-.923 23.567-.922 23.566-.923 23.606-.96 23.566-.923 23.567-.923 23.567-.923 23.566-.922 23.567-.923 23.605-.922 23.567-.923 23.567-.961 23.566-.923 23.567-.922 23.567-.923 23.567-.922 23.605-.385 2.69-.384 2.692-.385 2.691-.384 2.73-.346 2.69-.384 2.73-.385 2.73-.384 2.73-.923 4.036-.96 3.999-1 3.998-1.077 3.998-1.153 3.998-1.153 3.96-1.23 3.96-1.307 3.96-1.307 3.921-1.422 3.96-1.423 3.921-1.499 3.922-1.576 3.883-1.614 3.921-1.653 3.883-1.73 3.883-1.307 2.345-1.307 2.384-1.307 2.345-1.307 2.383-1.307 2.384-1.307 2.384-1.307 2.383-1.307 2.384-1.5 2.307-1.537 2.306-1.538 2.268-1.537 2.23-1.576 2.23-1.576 2.191-1.577 2.153-1.614 2.192-1.615 2.114-1.653 2.115-1.652 2.114-1.692 2.076-1.691 2.076-1.692 2.038-1.73 2.037-1.73 2.038-1.768 1.999-1.768 2-1.807 1.96-1.806 1.999-1.846 1.922-1.845 1.96-1.845 1.923-1.883 1.922-1.923 1.923-1.922 1.883-1.922 1.923-1.96 1.883-3.96 3.73-4.074 3.729-2.614 1.922-2.576 1.96-2.614 1.961-2.575 2-2.576 1.96-2.575 1.96-2.576 2-2.575 1.96-4.152 2.615-4.152 2.576-4.19 2.499-4.19 2.46-4.228 2.384-4.19 2.345-4.267 2.268-4.229 2.23-4.267 2.191-4.305 2.115-4.305 2.076-4.344 1.999-4.383 1.96-4.382 1.884-4.42 1.846-4.46 1.768-3.844 1.23-3.844 1.192-3.805 1.115-3.845 1.115-3.805 1.077-3.806 1.038-3.806 1-3.805.96-3.806.923-3.805.884-3.806.846-3.806.807-3.805.77-3.768.73-3.805.692-3.806.692-3.652.384-3.652.346-3.652.308-3.651.269-3.652.269-3.652.23-3.614.193-3.652.154-3.613.153-3.613.116-3.614.115-3.613.077-3.614.077-3.575.038-3.613.039-3.575.038z"/><path style="fill:#00973f;fill-rule:evenodd;fill-opacity:1;stroke:none" d="m285.654 601.393-2.844-.23-2.537-.193-2.192-.153-1.999-.154-1.768-.154-1.614-.115-1.5-.116-1.46-.153-1.461-.154-1.46-.115-1.538-.193-1.692-.153-1.807-.193-2.075-.23-2.307-.27-3.229-.576-3.19-.615-3.153-.615-3.113-.616-3.114-.653-3.075-.654-3.037-.73-2.998-.692-2.999-.73-2.96-.77-2.96-.768-2.921-.808-2.922-.845-2.883-.846-2.883-.846-2.883-.923-2.845-.922-2.883-.962-2.806-.96-2.844-1.039-2.845-1.038-2.806-1.038-2.845-1.115-2.806-1.115-2.806-1.153-2.845-1.192-2.806-1.23-2.845-1.23-2.806-1.307-2.845-1.307-2.883-1.346-2.844-1.384-1.692-.923-1.691-.922-1.691-.961-1.692-.923-1.653-.923-1.691-.922-1.692-.923-1.691-.923-2.768-1.73-2.69-1.768-2.653-1.769-2.614-1.768-2.614-1.769-2.537-1.807-2.499-1.768-2.46-1.845-2.46-1.807-2.383-1.846-2.384-1.883-2.345-1.846-2.306-1.922-2.307-1.884-2.268-1.96-2.23-1.961-2.229-1.961-2.19-2-2.154-1.998-2.152-2.076-2.153-2.038-2.114-2.114-2.114-2.115-2.115-2.153-2.076-2.191-2.075-2.191-2.076-2.23-2.038-2.268-2.075-2.307-2.038-2.345-2.037-2.384-2.037-2.383-1.23-1.692-1.23-1.692-1.23-1.691-1.23-1.692-1.193-1.691-1.23-1.692-1.23-1.691-1.23-1.654-2.153-3.498-2.114-3.46-2.037-3.46-1.96-3.422-1.884-3.421-1.845-3.46-1.769-3.422-1.73-3.422-1.691-3.421-1.614-3.46-1.615-3.46-1.538-3.499-1.537-3.498-1.5-3.576-1.46-3.575-1.423-3.614-.768-2.652-.77-2.653-.73-2.653-.768-2.614-.73-2.614-.731-2.615-.73-2.614-.73-2.614-.808-4.037-.769-4.037-.692-3.998-.653-4.037-.577-3.998-.538-4.037-.5-3.998-.423-4.037-.423-3.998-.346-4.036-.346-3.999-.269-3.998-.269-4.037-.23-3.998-.231-3.998-.154-4.037-.307-7.997-.23-8.034-.193-7.997-.154-8.035-.154-7.997-.153-8.035-.231-8.035-.23-8.034 20.565 19.837 20.566 19.8 20.604 19.837 20.566 19.799 20.566 19.837 20.604 19.838 20.566 19.8 20.566 19.837 20.605 19.837 20.565 19.8 20.605 19.837 20.566 19.837 20.604 19.838 20.604 19.838 20.605 19.837 20.565 19.838.077.384.154.5-2.345.307-2.345.308-2.345.27-2.345.307-2.383.269-2.345.307-2.345.27-2.345.269-2.344.269-2.307.269-2.306.269-2.307.23-2.306.27-2.268.23-2.23.231-2.23.192-1.768.039-1.768.038h-1.768l-1.769.039-1.768.038-1.73.039-1.768.038-1.768.038-1.73.039-1.768.038-1.769.039-1.73.038-1.768.039-1.73.038-1.768.039-1.73.038z"/><path style="fill:#fcdb00;fill-rule:evenodd;fill-opacity:1;stroke:none" d="m359.307 591.897-4.844-4.728-6.65-6.497-8.188-7.92-9.38-9.112-10.301-9.957-10.84-10.457-11.11-10.726-11.071-10.65-10.648-10.225-9.995-9.612-8.918-8.573-7.65-7.304-5.958-5.69-3.998-3.768-1.692-1.576-1.46-1.461-1.615-1.615-2.076-2.037-2.806-2.768-3.92-3.768-5.267-5.075-6.92-6.69-8.956-8.61-11.187-10.804-13.8-13.302-16.722-16.108-19.912-19.184-23.372-22.567-27.216-26.258-31.33-30.218-35.75-34.523-.422-.346-.423-.308-.423-.307-.423-.27-.884-21.144-.769-18.492-.653-16.032-.539-13.801-.5-11.688-.384-9.803-.346-8.112-.23-6.574-.193-5.229-.153-4.036-.116-3.114-.038-2.269-.039-1.691-.038-1.23.038-1v-.961l26.832 25.758 26.87 25.797 26.87 25.835 26.91 25.873 26.946 25.912 26.947 25.912 26.947 25.988 26.947 25.95 26.986 25.99 26.947 26.027 26.986 25.988 26.947 26.028 26.985 26.027 26.947 25.988 26.909 26.028 26.908 25.988v1l-2.498 1.46-2.499 1.423-2.499 1.384-2.537 1.384-2.537 1.346-2.537 1.307-2.537 1.269-2.537 1.268-2.576 1.27-2.537 1.19-2.575 1.193-2.576 1.153-2.614 1.153-2.575 1.115-2.614 1.115-2.614 1.038-2.614 1.077-2.614 1-2.614.999-2.653 1-2.652.922-2.652.961-2.653.884-2.69.885-2.653.884-2.691.846-2.69.845-2.73.77-2.691.807-2.73.769-2.729.73-2.729.73-1.153.116-1.153.115-1.077.154-1.115.192z"/><path style="fill:#131516;fill-rule:evenodd;fill-opacity:1;stroke:none" d="m181.249 544.149-27.524-1 12.8-23.374-12.915-21.722 27.331-.46 14.262-22.03 13.147 22.144 27.446.346-12.916 21.722 12.801 23.836-27.1.115-14.147 22.682z"/><path style="fill:#fcdb00;fill-rule:evenodd;fill-opacity:1;stroke:none" d="m183.863 539.228-21.95-.577L172.6 520.66l-10.456-17.992 21.373-.23 10.994-17.993 11.263 18.108 21.604.115-10.34 17.992 10.647 18.108-22.026.46-11.225 17.878z"/><path style="fill:#00973f;fill-rule:evenodd;fill-opacity:1;stroke:none" d="m453.564 552.684-2.614-2.538-2.422-2.345-2.19-2.114-2-1.961-1.845-1.768-1.691-1.654-1.576-1.537-1.5-1.461-1.422-1.384-1.384-1.307-1.345-1.346-1.346-1.307-1.345-1.346-1.384-1.384-1.422-1.5-2.922-2.69-7.726-7.382-11.84-11.34-15.338-14.725-18.106-17.377-20.181-19.453-21.642-20.838-22.411-21.567-22.45-21.645-21.873-21.067-20.604-19.876-18.606-17.993-16.03-15.454-12.685-12.303-8.687-8.458-4.037-3.96-.307-.192-.5-.423-.923-.845-1.653-1.538-2.575-2.422-3.729-3.576-5.151-4.92-6.766-6.536-8.687-8.381-10.802-10.419-13.185-12.725-15.8-15.263-18.643-17.992-21.72-20.99-25.063-24.221-28.677-27.68-.307-7.497-.308-7.497-.307-7.535-.308-7.497-.346-7.497-.307-7.496-.308-7.497-.308-7.535-.345-7.497-.308-7.497-.308-7.497-.307-7.496-.308-7.497-.346-7.458-.307-7.497-.308-7.497h27.255l9.11.039h27.293l9.111.038h9.11l9.073.038h9.11l9.11.039h9.111l9.11.038h9.111l9.11.039 3.499 3.383 3.498 3.422 3.498 3.383 3.536 3.421 3.499 3.383 3.498 3.422 3.536 3.383 3.498 3.422 3.537 3.421 3.498 3.422 3.537 3.383 3.498 3.422 3.536 3.421 3.498 3.422 3.537 3.422 3.498 3.421.615.461 1.115 1.038 1.614 1.5 2.038 1.922 2.345 2.23 2.614 2.499 2.729 2.652 2.883 2.769 2.845 2.768 2.806 2.69 2.652 2.538 2.422 2.345 2.153 2 1.73 1.652 1.307 1.192.768.654 37.403 36.138 32.906 31.755 28.869 27.835 25.179 24.297 21.95 21.144 19.143 18.454 16.722 16.108 14.761 14.225 13.185 12.725 12.07 11.61 11.34 10.957 11.072 10.65 11.186 10.803 11.725 11.34 12.685 12.265 14.07 13.648.345.23.5.423.654.577.768.73 2 1.884 2.536 2.46 3.076 2.96 3.536 3.461 4.075 3.883 4.536 4.306-.154 1.46-.23 1.5-.27 1.5-.307 1.499-.384 1.537-.385 1.577-.423 1.538-.46 1.576-.962 3.114-.96 3.152-.962 3.114-.923 3.037-1.307 3.345-1.307 3.306-1.383 3.268-1.423 3.306-1.46 3.268-1.5 3.23-1.537 3.267-1.538 3.23-1.614 3.23-1.653 3.19-1.692 3.191-1.691 3.191-1.768 3.19-1.807 3.192-1.845 3.152-1.884 3.191-2.037 2.884-2.038 2.845-2.076 2.768-2.037 2.73-2.076 2.69-2.114 2.653-2.114 2.614-2.114 2.576-2.153 2.576-2.191 2.537-2.23 2.576-2.268 2.537-2.268 2.538-2.345 2.576-2.345 2.575-2.421 2.615-1.884 1.691-1.807 1.653-1.845 1.692-1.845 1.691-1.807 1.692-1.807 1.692-1.845 1.691-1.806 1.692-8.573 6.305-6.458 4.728-4.651 3.422-3.152 2.268-1.96 1.423-1.116.769-.538.307-.307.116z"/><path style="fill:#131516;fill-rule:evenodd;fill-opacity:1;stroke:none" d="m442.993 488.442-1.384-2.345-1.384-2.307-1.422-2.306-1.384-2.345-1.384-2.307-1.384-2.307-1.384-2.345-1.384-2.307-1.383-2.306-1.384-2.345-1.384-2.307-1.384-2.307-1.384-2.345-1.345-2.307-1.384-2.306-2.845-.039-2.806-.038-2.845-.039-2.806-.038-2.844-.039-2.807-.038-2.844-.038h-2.806l-2.845-.039-2.806-.038h-2.845l-2.806-.039h-2.845l-2.806-.038-2.845-.039h-2.806l1.384-2.345 1.346-2.345 1.383-2.307 1.384-2.345 1.384-2.345 1.384-2.307 1.384-2.345 1.384-2.306 1.384-2.346 1.384-2.306 1.383-2.307 1.384-2.345 1.423-2.307 1.383-2.345 1.384-2.307 1.384-2.306-1.384-2.346-1.384-2.345-1.383-2.345-1.423-2.345-1.384-2.345-1.383-2.307-1.384-2.345-1.384-2.345-1.422-2.345-1.384-2.345-1.384-2.345-1.384-2.346-1.384-2.345-1.422-2.345-1.384-2.307-1.384-2.345 2.806-.038 2.806-.039 2.807-.076 2.806-.039 2.806-.038 2.806-.039 2.806-.038 2.806-.039 2.807-.038 2.806-.039h2.806l2.845-.038 2.806-.038 2.806-.039h2.845l2.806-.038 1.384-2.307 1.422-2.268 1.384-2.307 1.384-2.307 1.422-2.306 1.384-2.269 1.422-2.306 1.423-2.307 1.383-2.268L435.92 355l1.384-2.307 1.422-2.268 1.422-2.268 1.423-2.307 1.383-2.268 1.423-2.268.153.115.193.192.23.27.27.422.422.615.538.846.73 1.192.962 1.5 1.192 1.96 1.422 2.384 1.768 2.96 2.114 3.498 2.499 4.114 2.883 4.806 3.306 5.536 3.806 6.343h8.418l2.806.038h8.419l2.806.039h2.806l2.806.038h2.807l2.844.039h2.807l2.806.038h2.844l2.807.039-1.23 2.191-1.077 1.96-1 1.808-.96 1.653-.885 1.576-.884 1.576-.922 1.576-1 1.692-1.076 1.845-1.23 2.076-1.346 2.307-1.537 2.614-1.807 2.96-1.999 3.422-2.345 3.883-2.614 4.421 3.498 5.92 3.076 5.19 2.652 4.499 2.306 3.883 1.96 3.345 1.654 2.806 1.384 2.345 1.115 1.96.96 1.577.731 1.346.615 1.076.5.884.384.808.385.692.346.692.346.769H466.98l-1.422 2.306-1.384 2.307-1.423 2.345-1.422 2.307-1.422 2.307-1.384 2.345-1.422 2.306-1.423 2.307-1.422 2.345-1.384 2.307-1.422 2.307-1.422 2.345-1.423 2.306-1.384 2.307-1.422 2.345-1.422 2.307zM100.062 464.107l-27.409-.346L85.8 440.809l-13.147-22.836 27.293-.654 13.493-22.029 13.493 22.03 27.562.883-13.147 21.952 13.378 23.606-27.447.115-13.839 22.375z"/><path style="fill:#fcdb00;fill-rule:evenodd;fill-opacity:1;stroke:none" d="m443.147 479.292-1.23-2.037-1.192-2.038-1.23-1.999-1.23-2.038-1.23-2.037-1.23-2-1.192-2.037-1.23-2.037-1.23-2-1.23-2.037-1.23-2.038-1.192-1.999-1.23-2.037-1.23-2.038-1.23-2-2.46-.038-2.461-.038-2.46-.038-2.499-.077-2.46-.039-2.46-.038-2.46-.039-2.46-.038-2.461-.039h-2.499l-2.46-.038-2.46-.038-2.46-.039-2.46-.038h-2.46l-2.5-.039 1.23-2.037 1.192-2.038 1.192-2.038 1.23-2.037 1.192-2.038 1.23-2.037 1.23-2.038 1.192-2.037 1.23-2 1.23-2.037 1.192-2.038 1.23-2.037 1.23-2 1.23-2.037 1.23-2.038 1.192-1.999-1.192-2.037-1.23-2.038-1.23-2.037-1.23-2.038-1.23-2.038-1.192-2.037-1.23-2.038-1.23-2.037-1.23-2.038-1.23-1.999-1.192-2.038-1.23-2.037-1.23-2.038-1.23-1.999-1.23-2.037-1.192-2.038 2.421-.039 2.46-.038 2.422-.038h2.46l2.46-.039 2.423-.038 2.46-.039h2.46l2.46-.038 2.422-.039h2.46l2.46-.038 2.46-.039h2.46l2.461-.038h2.46l1.23-2 1.23-1.998 1.23-2 1.23-2.037 1.192-2 1.23-1.998 1.23-2 1.23-1.998 1.23-2 1.193-1.999 1.23-1.96 1.23-2 1.23-1.999 1.23-1.999 1.23-1.96 1.192-2 .192-.077.23-.076.231-.039.27-.038 1.153 1.999 1.191 1.96 1.192 2 1.192 1.999 1.191 1.999 1.192 1.999 1.192 2 1.191 1.96 1.192 1.999 1.23 2 1.192 2.037 1.191 1.999 1.192 1.999 1.192 2 1.23 1.998 1.191 2h2.46l2.46.038 2.5.038h2.46l2.46.039h2.46l2.46.038 2.5.039h2.46l2.46.038 2.498.038 2.46.039 2.499.038 2.46.039 2.499.038 2.499.039-1.23 2.037-1.23 2.038-1.192 2.037-1.23 2.038-1.23 2.076-1.192 2.038-1.23 2.037-1.192 2.076-1.192 2.038-1.23 2.037-1.191 2.076-1.192 2.038-1.23 2.076-1.192 2.038-1.192 2.076-1.191 2.076 1.191 2.037 1.192 2.038 1.192 2.037 1.23 2.076 1.192 2.038 1.191 2.038 1.23 2.037 1.192 2.038 1.192 2.076 1.23 2.037 1.191 2.038 1.23 2.037 1.23 2.038 1.192 2.076 1.23 2.038 1.23 2.037H481.512l-2.422.039h-4.92l-2.422.038h-4.92l-2.423.039-2.46 4.036-2.114 3.537-1.884 3.114-1.653 2.73-1.422 2.345-1.268 2.076-1.077 1.807-1 1.615-.922 1.46-.807 1.346-.807 1.269-.808 1.268-.845 1.308-.884 1.384-.961 1.499-1.115 1.691zM102.56 459.032l-21.603-.577 10.11-18.53L80.84 422.47l21.72-.192 11.07-18.031 10.725 17.915 21.95.538-10.571 17.993 10.571 17.761-21.604.577-11.263 18.223zM541.363 372.646l-24.871-23.99-24.871-23.95-24.872-23.99-24.87-23.99-24.834-23.95-24.833-23.99-24.832-23.952-24.833-23.912-24.833-23.952-24.794-23.912-24.833-23.875-24.795-23.874-24.794-23.836-24.794-23.835-24.795-23.798 7.804-.038h7.842l7.803-.039h23.488l7.842-.038h70.577l4.344 4.229 6.689 6.497 8.649 8.38 10.302 9.958 11.532 11.188 12.493 12.033 13.07 12.571 13.263 12.802 13.108 12.61 12.647 12.187 11.801 11.303 10.572 10.188 9.033 8.65 7.15 6.843 4.882 4.614 2.268 2.114 7.842 7.65 7.842 7.613 7.842 7.65 7.88 7.65 7.842 7.651 7.88 7.651 7.92 7.689 7.88 7.689 7.957 7.689 7.919 7.65 7.996 7.69 7.995 7.688 7.996 7.69 8.073 7.688 8.072 7.69 8.111 7.688-.23 7.036-.154 7.074-.154 7.073-.154 7.113-.153 7.112-.154 7.15-.192 7.113-.231 7.15-.308 7.152-.384 7.15-.23 3.576-.231 3.575-.27 3.575-.307 3.576-.346 3.614-.384 3.575-.385 3.537-.423 3.575-.5 3.576-.499 3.575-.538 3.575-.615 3.576z"/><path style="fill:#131516;fill-rule:evenodd;fill-opacity:1;stroke:none" d="m281.656 321.053-44.745-.884 21.72-36.446-21.835-38.137 44.86-.115 22.719-36.87 22.065 36.87 45.091.346-22.18 37.33 22.296 37.022-44.976.884-22.834 36.984z"/><path style="fill:#fcdb00;fill-rule:evenodd;fill-opacity:1;stroke:none" d="m302.607 346.58-1.23-2.037-1.192-2-1.23-2.037-1.23-1.999-1.192-2.037-1.23-2.038-1.192-2-1.191-2.037-1.23-1.999-1.192-2.037-1.192-2-1.23-1.999-1.192-1.999-1.191-2.037-1.192-2h-2.499l-2.46-.038h-2.46l-2.46-.038-2.46-.039h-2.46l-2.5-.038h-2.46l-2.46-.039h-2.46l-2.46-.038h-2.46l-2.5-.039-2.46-.038h-2.46l-2.46-.038 1.192-2.038 1.192-2.038 1.23-2.037 1.191-2.038 1.192-2.037 1.192-2.076 1.23-2.038 1.191-2.038 1.192-2.037 1.192-2.038 1.23-2.037 1.192-2.038 1.191-2.037 1.23-2 1.192-2.037 1.192-2.038-.077-.23-.077-.231-.115-.308-.231-.423-.308-.615-.422-.769-.615-1.076-.808-1.346-1-1.73-1.268-2.114-1.499-2.576-1.845-3.075-2.153-3.614-2.498-4.23-2.883-4.843-3.306-5.536 2.421-.039h2.46l2.46-.038h2.423l2.46-.039h2.46l2.422-.038h2.46l2.422-.039 2.46-.038h2.46l2.422-.038h2.46l2.422-.039h2.46l2.46-.038 1.192-2 1.192-2.037 1.23-2.038 1.192-1.999 1.191-1.999 1.192-2.037 1.23-2 1.192-1.999 1.23-1.999 1.191-2.037 1.23-2 1.192-1.999 1.23-1.999 1.192-1.999 1.23-2 1.23-1.998.23-.077.27-.039h.499l1.192 2 1.23 1.999 1.192 1.999 1.23 1.999 1.192 1.999 1.23 2 1.192 2.037 1.23 1.999 1.23 1.999 1.23 2 1.192 2.037 1.23 1.999 1.23 2.037 1.23 2 1.192 2.037 1.23 2 2.46.038h2.422l2.46.038h2.46l2.422.039 2.46.038h2.46l2.46.039 2.422.038h2.46l2.46.038 2.461.039 2.46.038 2.46.039 2.46.038 2.46.039-1.19 1.999-1.192 1.999-1.23 1.999-1.192 2-1.192 1.998-1.23 2.038-1.192 1.999-1.191 2-1.192 1.998-1.23 2-1.192 1.999-1.191 1.999-1.192 1.999-1.23 1.999-1.192 2-1.192 2.037.116.423.115.46.154.5.192.5 1.153 1.961 1.154 1.922 1.153 1.961 1.153 1.922 1.153 1.961 1.192 1.922 1.153 1.961 1.153 1.922 1.192 1.922 1.153 1.961 1.153 1.922 1.192 1.961 1.153 1.922 1.192 1.961 1.153 1.922 1.192 1.96h-2.46l-2.46.04-2.46.038h-2.461l-2.46.038-2.46.039-2.46.038-2.422.039-2.46.038-2.46.038-2.461.039-2.422.038-2.46.039-2.46.038-2.422.039-2.46.038-3.422 5.613-2.998 4.921-2.614 4.229-2.23 3.652-1.883 3.076-1.576 2.614-1.307 2.115-1.076 1.691-.846 1.346-.654 1.038-.5.769-.384.5-.23.345-.231.231-.154.154-.115.115z"/><path style="fill:#00973f;fill-rule:evenodd;fill-opacity:1;stroke:none" d="m556.547 257.08-16.837-16.223-16.837-16.185-16.876-16.262-16.914-16.224-16.875-16.262-16.914-16.262-16.914-16.224-16.876-16.262-16.875-16.263-16.876-16.223-16.837-16.224-16.798-16.185-16.76-16.186-16.723-16.146-16.683-16.109 17.452-.038h17.49l17.492-.039h17.49l17.49-.038h17.491l17.49-.039 17.492-.038h17.49l17.49-.039h17.491l17.491-.038h17.529l17.49-.038h17.491l17.49-.039-.653 16.224-.653 16.262-.654 16.224-.653 16.224-.654 16.262-.653 16.223-.654 16.224-.653 16.224-.654 16.262-.653 16.224-.654 16.224-.653 16.262-.654 16.224-.653 16.223-.654 16.262-.653 16.224z"/><path style="fill:#131516;fill-rule:evenodd;fill-opacity:1;stroke:none" d="m145.614 186.573-44.86-.23 21.796-37.215-21.796-38.138 44.86-.23 22.373-36.754 22.718 36.754 44.745.461L214 147.436l-.115.423-.077.423-.038.461v.5l21.911 37.1-45.091.23-22.834 36.869z"/><path style="fill:#fcdb00;fill-rule:evenodd;fill-opacity:1;stroke:none" d="m166.564 212.1-1.23-2.037-1.23-2.038-1.191-1.999-1.23-2.037-1.23-2-1.192-2.037-1.192-2.038-1.23-1.999-1.192-1.999-1.191-2.038-1.23-1.999-1.192-2.037-1.192-2-1.23-1.999-1.192-1.999-2.46-.077-2.46-.038-2.46-.077-2.46-.038-2.5-.077-2.46-.039-2.46-.038-2.46-.077-2.46-.038-2.46-.039-2.46-.038-2.46-.039-2.423-.038-2.46-.039-2.46-.077-2.46-.038 1.191-2L111.44 177l1.192-2.037 1.191-2 1.192-2.037 1.192-2.038 1.191-1.999 1.192-2.037 1.192-2.038 1.191-1.999 1.192-2.038 1.23-1.999 1.192-2.037 1.192-2.038 1.191-2 1.23-2.037-1.23-2.037-1.191-2.038-1.192-2.037-1.192-2.038-1.23-2.038-1.192-2.037-1.191-2.038-1.192-2.037-1.23-2.038-1.192-1.999-1.191-2.038-1.23-2.037-1.192-2-1.192-2.037-1.191-2.037-1.23-2 2.46-.038 2.46-.038 2.422-.039 2.46-.038 2.46-.039 2.422-.038 2.46-.039h2.46l2.46-.038 2.422-.039h2.46l2.46-.038h2.461l2.46-.038 2.46-.039h2.46l1.23-2.037 1.192-2 1.192-2.037 1.23-2.038 1.192-1.999 1.23-2.037 1.23-2 1.192-2.037 1.23-2 1.23-2.037 1.192-1.999 1.23-2.038 1.23-1.999 1.23-1.999 1.23-1.999 1.192-2.038h.923l1.191 2 1.192 2.037 1.23 2 1.191 1.998 1.23 2 1.192 1.999 1.23 1.999 1.23 2.037 1.192 2 1.23 1.999 1.23 1.999 1.23 2.037 1.192 2 1.23 2.037 1.23 2 1.23 2.037 2.422.038h2.46l2.46.039 2.422.038h2.46l2.46.039 2.423.038 2.46.038 2.46.039 2.46.038 2.46.039 2.46.038 2.422.039 2.46.038 2.5.039 2.46.076-1.23 1.961-1.192 2-1.192 1.998-1.192 1.961-1.23 2-1.191 1.998-1.192 2-1.192 1.999-1.23 1.999-1.191 1.999-1.192 1.999-1.192 2-1.23 1.998-1.192 2-1.191 1.999-1.23 1.999.115.5.154.538.154.5.153.5 1.154 1.922 1.153 1.96 1.191 1.922 1.154 1.961 1.153 1.922 1.153 1.961 1.192 1.922 1.153 1.961 1.153 1.922 1.153 1.96 1.192 1.923 1.153 1.922 1.192 1.961 1.153 1.922 1.192 1.961 1.192 1.922-2.46.039h-2.5l-2.46.038-2.421.039h-2.46l-2.46.038h-2.461l-2.46.039-2.46.038h-2.422l-2.46.038-2.46.039-2.422.038-2.46.039-2.46.038-2.423.039-3.42 5.613-3 4.92-2.613 4.268-2.23 3.652-1.883 3.114-1.615 2.614-1.307 2.115-1.076 1.73-.846 1.346-.653 1-.462.768-.384.538-.27.346-.191.23-.154.155-.154.077z"/><path style="fill:#131516;fill-rule:evenodd;fill-opacity:1;stroke:none" d="m504.998 156.086-27.447-.461 13.493-22.836-13.608-22.683 27.677-.461L518.606 87.5l13.493 22.028 27.754.346-13.262 22.375 13.262 23.72-27.639.116-13.608 22.375z"/><path style="fill:#fcdb00;fill-rule:evenodd;fill-opacity:1;stroke:none" d="m507.92 151.473-21.95-.346 10.263-17.646-10.263-18.761 21.719-.462 1.307-2.153 1.307-2.153 1.307-2.153 1.307-2.152 1.307-2.115 1.307-2.153 1.307-2.114 1.307-2.115.269-.077.23-.077.27-.038.23-.038 1.269 2.152 1.307 2.192 1.268 2.153 1.307 2.191 1.307 2.191 1.269 2.192 1.307 2.191 1.307 2.192 2.768.076 2.729.077 2.73.077 2.767.116 2.73.076 2.729.077 2.767.077 2.73.077-1.346 2.191-1.345 2.192-1.307 2.23-1.346 2.191-1.307 2.191-1.307 2.23-1.307 2.23-1.307 2.23 1.307 2.23 1.307 2.23 1.307 2.23 1.307 2.229 1.346 2.268 1.307 2.268 1.345 2.23 1.346 2.307-2.691.038-2.73.039-2.69.077-2.691.077-2.691.077-2.691.076-2.73.077-2.69.077-11.57 17.877z"/><path style="fill:#131516;fill-rule:evenodd;fill-opacity:1;stroke:none" d="m434.151 88.27-27.216-.539 13.262-22.72-13.262-22.952 27.216-.116 13.378-22.029H448.336l13.262 21.799 27.216.576-13.185 22.375 13.185 22.721-27.446.77-13.608 22.49z"/><path style="fill:#fcdb00;fill-rule:evenodd;fill-opacity:1;stroke:none" d="m446.376 98.957-1.384-2.23-1.384-2.23-1.346-2.23-1.345-2.19-1.384-2.23-1.345-2.192-1.346-2.23-2.729-.038-2.73-.038-2.729-.039-2.69-.038h-2.73l-2.69-.039h-5.382l10.379-18.646-10.38-17.454 21.681-.346 10.802-18.107.116.077.115.077.154.115.153.192.539.73.845 1.308 1.307 2.114 1.922 3.153 2.691 4.382 3.498 5.844 2.73.039 2.69.038 2.691.038 2.691.077 2.691.039 2.73.077 2.69.077 2.691.076-1.345 2.192-1.346 2.191-1.307 2.192-1.345 2.19-1.307 2.23-1.307 2.192-1.307 2.23-1.307 2.23 1.307 2.23 1.307 2.268 1.307 2.23 1.307 2.268 1.345 2.268 1.307 2.268 1.346 2.307 1.345 2.268-2.69.039-2.692.038-2.729.077-2.69.077-2.692.077-2.69.077-2.691.077-2.73.076-3.498 5.806-2.69 4.344-1.884 3.152-1.346 2.076-.807 1.307-.5.692-.192.193-.115.115-.116.038-.076.077z"/></svg>