<svg xmlns="http://www.w3.org/2000/svg" width="544.252" height="581.102" style="enable-background:new 0 0 544.252 581.102" xml:space="preserve"><path style="fill:#0f47af" d="m521.293 183.447-11.23 161.44c-11.75 152.75-124.84 229.12-237.93 229.12v-390.56h249.16z"/><circle style="fill:#fff" cx="328.248" cy="411.695" r="26.929"/><circle style="fill:#fff" cx="456.558" cy="253.246" r="26.929"/><circle style="fill:#fff" cx="392.403" cy="332.471" r="26.929"/><path style="fill:#da121a" d="M272.132 183.447v390.56c-113.09 0-226.18-76.37-237.93-229.12l-11.23-161.44h249.16z"/><path style="fill:#fff" d="m10.692 7.087 12.27 176.36h418.38l-169.21 208.97v177.18l243.19-300.34 5.97-85.81 12.27-176.36H10.692zm317.561 451.38c-25.83 0-46.77-20.94-46.77-46.77s20.94-46.77 46.77-46.77 46.77 20.94 46.77 46.77-20.94 46.77-46.77 46.77zm64.149-79.221c-25.83 0-46.77-20.94-46.77-46.78 0-25.83 20.94-46.77 46.77-46.77s46.77 20.94 46.77 46.77c0 25.841-20.94 46.78-46.77 46.78zm64.161-79.23c-25.83 0-46.77-20.94-46.77-46.77 0-25.83 20.94-46.77 46.77-46.77s46.77 20.94 46.77 46.77c0 25.831-20.94 46.77-46.77 46.77z"/><circle style="fill:none;stroke:#000;stroke-width:3.5;stroke-linejoin:round" cx="328.248" cy="411.695" r="26.929"/><path style="fill:none;stroke:#000;stroke-width:2;stroke-linecap:round;stroke-linejoin:round" d="M369.351 411.695c0 22.7-18.402 41.102-41.102 41.102-3.791 0-7.463-.513-10.949-1.474M301.729 430.657a32.447 32.447 0 0 1-6.079-18.962c0-18.004 14.595-32.598 32.598-32.598"/><circle style="fill:none;stroke:#000;stroke-width:3.5;stroke-linejoin:round" cx="328.248" cy="411.695" r="46.772"/><circle style="fill:none;stroke:#000;stroke-width:3.5;stroke-linejoin:round" cx="456.558" cy="253.246" r="26.929"/><path style="fill:none;stroke:#000;stroke-width:2;stroke-linecap:round;stroke-linejoin:round" d="M497.661 253.246c0 22.7-18.402 41.102-41.102 41.102-3.791 0-7.463-.513-10.949-1.474M430.039 272.208a32.447 32.447 0 0 1-6.079-18.962c0-18.004 14.595-32.598 32.598-32.598"/><circle style="fill:none;stroke:#000;stroke-width:3.5;stroke-linejoin:round" cx="456.558" cy="253.246" r="46.772"/><circle style="fill:none;stroke:#000;stroke-width:3.5;stroke-linejoin:round" cx="392.403" cy="332.471" r="26.929"/><path style="fill:none;stroke:#000;stroke-width:2;stroke-linecap:round;stroke-linejoin:round" d="M433.506 332.471c0 22.7-18.402 41.102-41.102 41.102-3.791 0-7.463-.513-10.949-1.474M365.884 351.432a32.447 32.447 0 0 1-6.079-18.962c0-18.004 14.595-32.598 32.598-32.598"/><circle style="fill:none;stroke:#000;stroke-width:3.5;stroke-linejoin:round" cx="392.403" cy="332.471" r="46.772"/><path style="fill:none;stroke:#000;stroke-width:3.5;stroke-linejoin:round" d="M441.342 183.447 272.126 392.411M272.123 569.603l243.199-300.348"/><path style="fill:none;stroke:#000;stroke-width:4.5;stroke-linejoin:round" d="M272.127 183.447v390.566M22.962 183.447h498.33"/><path style="fill:#fff" d="M155.769 253.696c-60.27 0-109.13 48.86-109.13 109.14 0 60.27 48.86 109.13 109.13 109.13s109.13-48.86 109.13-109.13c0-60.28-48.86-109.14-109.13-109.14zm13.93 28.11a81.552 81.552 0 0 1 27.18 9.82 82.438 82.438 0 0 1 21.92 18.45c.59.7 1.17 1.41 1.74 2.14l-41.03 30.4c-4.56-5.35-10.9-9.14-18.1-10.45l5.81-50.74c.83.11 1.66.239 2.48.38zm-76.96 28.27a82.438 82.438 0 0 1 21.92-18.45 81.552 81.552 0 0 1 27.18-9.82c.82-.14 1.65-.27 2.48-.38l5.8 50.74c-7.2 1.32-13.53 5.11-18.09 10.45l-41.03-30.4c.57-.73 1.15-1.44 1.74-2.14zm-14.11 81.21a82.073 82.073 0 0 1-5.06-28.45c0-9.92 1.76-19.42 4.97-28.22a72 72 0 0 1 1-2.57l46.85 20.34a30.88 30.88 0 0 0-1.8 10.45c0 3.66.63 7.18 1.79 10.44l-46.84 20.35c-.32-.771-.62-1.55-.91-2.34zm63.21 52.569a81.552 81.552 0 0 1-27.18-9.82 82.401 82.401 0 0 1-21.92-18.44c-.59-.7-1.17-1.41-1.74-2.14l41.03-30.4c4.56 5.34 10.89 9.13 18.09 10.45l-5.8 50.73a63.31 63.31 0 0 1-2.48-.38zm76.96-28.259a82.401 82.401 0 0 1-21.92 18.44 81.552 81.552 0 0 1-27.18 9.82c-.82.14-1.65.271-2.48.38l-5.81-50.73c7.2-1.31 13.54-5.1 18.1-10.45l41.03 30.4c-.57.729-1.15 1.439-1.74 2.14zm13.2-21.97-46.84-20.35c1.16-3.26 1.79-6.78 1.79-10.44 0-3.67-.63-7.19-1.8-10.45l46.85-20.34c.32.77.62 1.55.91 2.34a82.073 82.073 0 0 1 5.06 28.45c0 9.91-1.75 19.41-4.97 28.21-.32.869-.65 1.73-1 2.58zm-62.057-30.795c0 7.828-6.346 14.173-14.173 14.173s-14.173-6.346-14.173-14.173c0-7.828 6.346-14.173 14.173-14.173s14.173 6.345 14.173 14.173z"/><circle style="fill:none;stroke:#000;stroke-width:2.75;stroke-linejoin:round" cx="155.769" cy="362.831" r="14.173"/><path style="fill:none;stroke:#000;stroke-width:2;stroke-linecap:round;stroke-linejoin:round" d="M137.938 371.547a19.769 19.769 0 0 1-2.012-8.716c0-10.274 7.808-18.724 17.814-19.74M180.856 358.173a25.62 25.62 0 0 1 .424 4.658c0 14.09-11.422 25.512-25.512 25.512-.881 0-1.751-.045-2.608-.132"/><circle style="fill:none;stroke:#000;stroke-width:2.75;stroke-linejoin:round" cx="155.769" cy="362.831" r="31.181"/><circle style="fill:none;stroke:#000;stroke-width:2.75;stroke-linejoin:round" cx="155.769" cy="362.831" r="82.205"/><circle style="fill:none;stroke:#000;stroke-width:3.5" cx="155.769" cy="362.831" r="109.134"/><path style="fill:none;stroke:#000;stroke-width:2;stroke-linecap:round;stroke-linejoin:round" d="M46.635 362.831h26.929M237.974 362.831h26.929"/><path style="fill:none;stroke:#000" d="m101.202 457.343 13.464-23.321"/><path style="fill:none;stroke:#000;stroke-width:2;stroke-linecap:round;stroke-linejoin:round" d="m196.871 291.639 13.465-23.321M210.336 457.343l-13.465-23.321M114.666 291.639l-13.464-23.321"/><circle style="fill:none;stroke:#000;stroke-width:2;stroke-linecap:round;stroke-linejoin:round" cx="155.769" cy="265.035" r="3.543"/><circle style="fill:none;stroke:#000;stroke-width:2;stroke-linecap:round;stroke-linejoin:round" cx="71.076" cy="313.933" r="3.543"/><circle style="fill:none;stroke:#000;stroke-width:2;stroke-linecap:round;stroke-linejoin:round" cx="71.076" cy="411.728" r="3.543"/><circle style="fill:none;stroke:#000;stroke-width:2;stroke-linecap:round;stroke-linejoin:round" cx="155.769" cy="460.626" r="3.543"/><circle style="fill:none;stroke:#000;stroke-width:2;stroke-linecap:round;stroke-linejoin:round" cx="240.462" cy="411.728" r="3.543"/><circle style="fill:none;stroke:#000;stroke-width:2;stroke-linecap:round;stroke-linejoin:round" cx="240.462" cy="313.933" r="3.543"/><path style="fill:none;stroke:#000;stroke-width:2.75;stroke-linejoin:round" d="m161.414 332.164 5.807-50.745M150.124 332.164l-5.807-50.745M132.033 342.608 90.99 312.207M126.388 352.386l-46.85-20.344"/><path style="fill:none;stroke:#000;stroke-width:2;stroke-linecap:round;stroke-linejoin:round" d="M92.875 310.205c-4.747-4.294-3.547-10.925-.123-14.331l.016.017c5.149-4.857 10.858-9.128 17.019-12.704s12.775-6.46 19.735-8.542c4.662-1.262 11.004 1.014 12.35 7.273M218.663 310.205c4.747-4.294 3.547-10.925.123-14.331l-.016.017c-5.149-4.857-10.858-9.128-17.019-12.704s-12.775-6.46-19.735-8.542c-4.662-1.262-11.004 1.014-12.35 7.273M92.875 415.456c-4.747 4.294-3.547 10.925-.123 14.331l.016-.017c5.149 4.857 10.858 9.128 17.019 12.704s12.775 6.46 19.735 8.542c4.662 1.262 11.004-1.014 12.35-7.273M232.791 390.986c6.092 1.964 11.235-2.391 12.473-7.059l-.023-.006a92.457 92.457 0 0 0 2.493-21.091 91.573 91.573 0 0 0-2.47-21.362c-1.238-4.668-6.381-9.023-12.473-7.059M78.747 334.676c-6.092-1.964-11.235 2.391-12.473 7.059l.023.006a92.457 92.457 0 0 0-2.493 21.091 91.573 91.573 0 0 0 2.47 21.362c1.238 4.668 6.381 9.023 12.473 7.059M218.663 415.456c4.747 4.294 3.547 10.925.123 14.331l-.016-.017c-5.149 4.857-10.858 9.128-17.019 12.704s-12.775 6.46-19.735 8.542c-4.662 1.262-11.004-1.014-12.35-7.273"/><path style="fill:none;stroke:#000;stroke-width:2.75;stroke-linejoin:round" d="m126.388 373.276-46.85 20.343M132.033 383.053 90.99 413.454M179.505 342.608l41.043-30.401M185.15 352.386l46.849-20.344M185.15 373.276l46.849 20.343M179.505 383.053l41.043 30.401M150.124 393.498l-5.807 50.745M161.414 393.498l5.807 50.745"/><path style="fill:none;stroke:#000;stroke-width:2;stroke-linecap:round;stroke-linejoin:round" d="m157.709 325.932 4.289-37.486M157.425 399.73l4.29 37.486M188.411 345.702l34.608-15.028M187.038 382.884l30.319 22.458M122.56 345.702l-34.609-15.028M124.783 382.601l-30.318 22.458"/><g><path style="fill:#078930" d="M302.911 91.036c0 15.03-9.4 29.96-26.39 32.69v20.58c-1.85.9-3.74 1.79-5.62 2.69-1.93-.92-3.84-1.82-5.72-2.71v-20.56c-17-2.73-26.4-17.65-26.4-32.69 0-2.87.62-6 3.62-8.62 0-41 8.13-53.88 21.35-53.88 3.99 0 2.15-6.16 7.1-6.16 4.94 0 3.1 6.16 7.09 6.16 13.22 0 21.35 12.88 21.35 53.88 3 2.62 3.62 5.75 3.62 8.62z"/><path style="fill:none;stroke:#000;stroke-width:2.5;stroke-linecap:round" d="M271.986 140.943v-12.817"/><path style="fill:none;stroke:#000;stroke-width:3.5;stroke-linejoin:round" d="M265.182 144.285v-20.56M276.521 144.335v-20.609"/><path style="fill:none;stroke:#000;stroke-width:3.5;stroke-linecap:round;stroke-linejoin:round" d="M270.852 22.376c4.942 0 3.108 6.167 7.091 6.167 13.225 0 21.35 12.875 21.35 53.875-4.85 5.387-18.625 5.658-28.442 5.658s-24.409-.272-28.442-5.658c0-41 8.125-53.875 21.35-53.875 3.984 0 2.151-6.167 7.093-6.167z"/><path style="fill:none;stroke:#000;stroke-width:2.5;stroke-linecap:round" d="M251.758 70.37c.418-13.257 1.872-21.379 5.296-25.881M251.623 80.099c0-1.189.005-2.346.015-3.473M291.732 72.378c.095 2.656.142 5.509.142 8.572M289.63 53.538c.83 3.527 1.432 7.847 1.803 13.095M280.827 40.292c2.923 1.111 5.279 3.489 7.051 7.694M284.374 62.47c.681 4.478.893 10.361.893 18.054M276.01 49.935c3.588 1.166 5.836 3.43 7.217 7.54M278.257 65.716c.735 3.625 1.077 8.444.967 14.731"/><path style="fill:none;stroke:#000;stroke-width:3.5;stroke-linecap:round;stroke-linejoin:round" d="M242.41 82.418c-3 2.625-3.625 5.75-3.625 8.625 0 16.625 11.5 33.125 32.067 33.125s32.067-16.5 32.067-33.125c0-2.875-.625-6-3.625-8.625"/><path style="fill:none;stroke:#000;stroke-width:2.5;stroke-linecap:round" d="M285.068 113.543c7.25-5.938 9.875-12.65 9.875-21.763 0-1.528-.693-4.397-1.582-5.921M244.804 92.19c.358 7.969 4.1 15.744 10.781 20.328M274.005 115.293c9.854-7.333 13.795-16.838 13.795-23.113 0-1.434-.271-3.452-1.207-4.866M269.764 109.946c7.429-4.903 10.409-12.004 10.409-19.012 0-1.014-.088-1.993-.51-3.024M270.987 98.455c1.769-2.335 3.038-4.575 3.038-6.971 0-1.203-.032-2.203-.693-3.407"/><path style="fill:#078930" d="M475.125 96.522c0 10.39 18.85.02 18.85 15.93 0 9.34-5.86 21.97-19.24 21.97-16.45 0-18.6-10.88-26.8-10.88-4.05 0-4.81 2.5-4.81 6.25 0 6.21 13.21 7.12 13.21 20.91 0 8.4-8.85 15.96-21.1 15.96-22.94 0-35.44-24.62-48.94-24.62-5.85 0-5.94 3.23-5.94 5.7 0 3.45 1.47 4.27 1.47 7.69 0 6.04-6.54 11.24-15.74 11.24-18.7 0-24-23.58-49.09-23.58-21.35 0-53.37 22.85-59.59 26.48-.01.01-.02.01-.03.02-2.07 1.51-6.24 2.45-11.19 2.45-7.12 0-12.61-3.09-12.61-5.84 0-.88.56-1.56 1.56-2.09.08-.04.15-.08.23-.11 15.48-7.85 61.39-28.61 69.92-34.35 13.75-9.25 18.96-22.33 23.41-43.11 4.25-19.88 10.34-31.16 23.09-31.16 8.5 0 13.54 3.72 13.54 10.32 0 4.9 2.271 7.67 5.92 7.67 5.41 0 10.82-5.82 12.6-16.71 2.91-17.79 9.65-37.96 33.56-37.96 8.77 0 12.5 5.09 12.5 11.84 0 5.25-4.4 7.43-4.4 12.6 0 3.83 6.51 7.27 13.32-.6 5.13-5.93 9.95-22.05 29.6-22.05 14 0 16.88 10.5 16.88 14.75 0 6.96-7.5 9.04-7.5 14.41 0 4.16 4.74 7.14 9.63 4.03 2.68-1.71 4.83-2.29 10.4-2.29 6.75 0 14.15 6.11 14.15 16.15 0 10.18-3.51 23.6-23.11 23.6-12.089.001-13.75 1.55-13.75 5.38z"/><path style="fill:none;stroke:#000;stroke-width:3.5" d="M258.796 167.339c0 2.755-5.488 4.704-12.607 4.704s-12.607-3.084-12.607-5.838c0-2.755 5.488-3.57 12.607-3.57s12.607 1.949 12.607 4.704z"/><path style="fill:none;stroke:#000;stroke-width:3.5" d="M235.14 164.12c15.25-7.75 61.579-28.692 70.154-34.461 13.75-9.25 18.958-22.336 23.402-43.116 4.25-19.875 10.347-31.154 23.098-31.154 8.5 0 13.534 3.716 13.534 10.321 0 4.896 2.272 7.666 5.918 7.666 5.417 0 10.823-5.821 12.604-16.708 2.911-17.792 9.652-37.958 33.565-37.958 8.763 0 12.497 5.083 12.497 11.833 0 5.25-4.4 7.433-4.4 12.6 0 3.833 6.505 7.275 13.318-.6 5.127-5.927 9.953-22.051 29.599-22.051 14 0 16.883 10.5 16.883 14.75 0 6.967-7.501 9.041-7.501 14.416 0 4.159 4.741 7.135 9.632 4.023 2.676-1.703 4.829-2.288 10.402-2.288 6.75 0 14.15 6.108 14.15 16.15 0 10.188-3.513 23.6-23.117 23.6-12.083 0-13.75 1.55-13.75 5.383 0 10.392 18.85.016 18.85 15.934 0 9.333-5.859 21.966-19.234 21.966-16.458 0-18.608-10.883-26.803-10.883-4.056 0-4.814 2.499-4.814 6.249 0 6.209 13.217 7.126 13.217 20.917 0 8.396-8.854 15.958-21.104 15.958-22.938 0-35.438-24.625-48.938-24.625-5.854 0-5.941 3.23-5.941 5.699 0 3.458 1.466 4.27 1.466 7.699 0 6.04-6.538 11.235-15.736 11.235-18.699 0-23.997-23.583-49.095-23.583-21.379 0-53.464 22.919-59.612 26.502"/><path style="fill:none;stroke:#000;stroke-width:2.5;stroke-linecap:round" d="M422.242 89.579c15.509-4.79 21.102-35.744 51.269-57.203"/><path style="fill:none;stroke:#000;stroke-width:2.5;stroke-linecap:round" d="M458.865 57.043c-4.865 1.302-13.601 5.777-16.308 9.911M432.927 147.668c-30.25-19.208-43.103-47.012-56.753-41.882M418.427 28.46c-21.667 27.667-16.583 57-36.166 75.002"/><path style="fill:none;stroke:#000;stroke-width:2.5;stroke-linecap:round" d="M402.479 60.056c1.534-4.536-4.135-14.346-.218-25.263M409.181 123.38c-3.02-.33-6.052-1.205-7.475-2.365M416.177 146.98c-2.354-3.583-.194-12.183-3.57-15.247M425.135 88.66c12.564-3.856 21.229 13.883 41.792 23.008"/><path style="fill:none;stroke:#000;stroke-width:2.5;stroke-linecap:round" d="M451.448 96.793c-3.938-.125-6.862-.228-9.459-2.33M461.886 120.793c-4.75-6.667-3.439-13.697-7.786-16.664M337.276 122.417c4.17-1.965 4.318-12.874 19.068-26.298M409.522 64.014c-1.594 2.98-9.419 3.757-10.56 7.583"/><path style="fill:none;stroke:#000;stroke-width:2.5;stroke-linecap:round" d="M306.291 139.473c47.712-31.408 154.579-64.619 196.636-70.133"/><path style="fill:none;stroke:#000;stroke-width:2.5;stroke-linecap:round" d="M334.767 123.627c5.782-2.757 20.577 7.583 33.098 22.854"/><path style="fill:none;stroke:#000;stroke-width:2.5;stroke-linecap:round" d="M360.061 137.867c1.898 1.939 1.783 8.613 1.033 13.384M351.486 130.271c1.621 1.288 5.563 2.049 7.275 1.98M346.81 106.908c2.588-3.463 2.121-26.053 7.617-38.865M451.939 53.552c3.212-4.093-.637-13.009 5.176-18.759M475.26 74.691c4.578-1.053 7.928.192 12.167 2.414"/><path style="fill:#078930" d="M296.874 173.216c-4.99.79-9.79.03-12.22-1.53-.11-.08-.25-.189-.43-.31-.02-.01-.03-.02-.04-.03-5.81-4.08-43.9-27.97-54.09-27.97-21.67 0-36.92 25-55.62 25-9.19 0-12.05-3.8-12.05-7.83s3.45-7.47 3.45-10.25c0-2.47-1.01-4.92-6.86-4.92-12.71 0-26.15 23-49.09 23-12.25 0-19.21-11.75-19.21-17.92 0-8.95 10.13-13.79 10.13-19.25 0-3.75-1.88-5.08-6.75-5.08-9.79 0-8.13 8.58-24.58 8.58-13.38 0-18.67-12.91-18.67-22.25 0-9.13 18-8.51 18-15.08 0-3.83-1.67-5.67-13.75-5.67-19.61 0-22.83-13.97-22.83-24.16 0-10.04 8.25-17 15-17 5.57 0 8.56 2.92 11.91 6 3.85 3.53 7.84.87 7.84-4.34 0-5.37-5.8-6.2-5.8-15.83 0-4.25 2.88-14.75 16.88-14.75 19.64 0 26.45 14.99 31.58 20.92 6.81 7.87 11.34 5 11.34 1.16 0-5.16-3.84-7.91-3.84-13.16 0-6.75 5.38-11.84 16.75-11.84 23.94 0 28.08 28.57 29.31 37.96 1.44 10.94 7.19 17.84 12.61 17.84 3.64 0 4.5-3.9 4.5-8.8 0-6.6 3.33-10.32 11.83-10.32 12.75 0 22.25 11.28 26.5 31.16 4.45 20.78 6.25 35 20 44.25 8.49 5.71 51.59 24.91 67.26 32.82.11.05.22.11.32.16 1.11.59 1.81 1.38 1.96 2.31.46 2.86-4.45 6.03-11.34 7.13z"/><path style="fill:none;stroke:#000;stroke-width:3.5;stroke-linecap:round;stroke-linejoin:round" d="M306.42 163.86c-15.25-7.75-59.167-27.298-67.743-33.067-13.75-9.25-15.556-23.47-20-44.25-4.25-19.875-13.749-31.154-26.5-31.154-8.5 0-11.833 3.716-11.833 10.321 0 4.896-.854 8.8-4.5 8.8-5.417 0-11.167-6.904-12.604-17.842-1.234-9.389-5.375-37.958-29.313-37.958-11.375 0-16.75 5.083-16.75 11.833 0 5.25 3.833 8 3.833 13.167 0 3.833-4.521 6.708-11.333-1.167-5.127-5.927-11.938-20.917-31.583-20.917-14 0-16.883 10.5-16.883 14.75 0 9.625 5.8 10.458 5.8 15.833 0 5.208-3.99 7.865-7.833 4.333-3.352-3.08-6.344-6-11.917-6-6.75 0-15 6.958-15 17 0 10.188 3.229 24.167 22.833 24.167 12.083 0 13.75 1.833 13.75 5.667 0 6.573-18 5.948-18 15.083 0 9.333 5.292 22.25 18.667 22.25 16.458 0 14.792-8.583 24.583-8.583 4.875 0 6.75 1.333 6.75 5.083 0 5.458-10.133 10.292-10.133 19.25 0 6.167 6.966 17.917 19.216 17.917 22.938 0 36.375-23 49.083-23 5.854 0 6.867 2.448 6.867 4.917 0 2.781-3.45 6.219-3.45 10.25s2.853 7.833 12.051 7.833c18.699 0 33.949-25 55.616-25 10.521 0 50.814 25.478 54.564 28.311"/><path style="fill:none;stroke:#000;stroke-width:3.5;stroke-linecap:round;stroke-linejoin:round" d="M308.219 166.085c.454 2.864-4.459 6.036-11.345 7.127-6.887 1.091-13.409-.763-13.863-3.627s5.334-5.653 12.22-6.744c6.887-1.091 12.534.38 12.988 3.244z"/><path style="fill:none;stroke:#000;stroke-width:2.5;stroke-linecap:round" d="M56.677 79.626c20.083-1.208 18.167-6.027 24.776-6.268M108.882 81.301c-6.047-6.331-11.017-23.633-25.705-40.508M63.851 69.34c-2.645-.47-7.174-3.61-9.611-6.193"/><path style="fill:none;stroke:#000;stroke-width:2.5;stroke-linecap:round" d="M80.594 53.835c4.865 1.302 14.171 3.75 16.381 6.945M102.572 71.312c-1.835-3.563-1.215-14.27-.103-18.311M105.893 154.802c30.833-15.833 46.229-56.5 58.153-53.744M133.761 34.626c9.25 12.583 16.147 55.244 26.943 65.131"/><path style="fill:none;stroke:#000;stroke-width:2.5;stroke-linecap:round" d="M143.646 58.605c.05-6.022 4.823-7.979 5.864-11.896M127.81 125.489c3.875.656 10.25-.469 12.521-2.321M122.977 154.802c11.094-11.688 3.786-15.922 6.984-19.288M112.44 82.444c-5.118-1.483-19.179 28.515-47.096 38.099"/><path style="fill:none;stroke:#000;stroke-width:2.5;stroke-linecap:round" d="M86.761 98.543c8.229-.625 11.504-2.04 13.214-4.08M79.302 122.085c7.917-9.417 8.568-15.097 12.043-18.375M207.583 118.872c-5.218-2.212-6.073-35.282-14.03-47.965M138.896 65.637c1.594 2.98 6.301 5.281 8.83 5.96"/><path style="fill:none;stroke:#000;stroke-width:2.5;stroke-linecap:round" d="M199.822 89.671c-.816-3.656 4.075-6.35 5.294-12.162M195.928 90.322c1.188 2.656 4.636 3.636 5.265 6.321M226.5 127.04C127.817 83.852 70.165 67.268 38.094 66.043"/><path style="fill:none;stroke:#000;stroke-width:2.5;stroke-linecap:round" d="M208.822 119.4c-6.073-2.578-20.978 20.143-33.061 34.393"/><path style="fill:none;stroke:#000;stroke-width:2.5;stroke-linecap:round" d="M192.291 133.02c-2.422 3.025 2.469 8.022-4.364 19.356"/></g><path style="fill:none;stroke:#000;stroke-width:7.551" d="m10.695 7.087 23.5 337.807c23.5 305.496 452.367 305.496 475.867 0l23.5-337.807H10.695z"/></svg>