<?xml version="1.0" encoding="UTF-8" standalone="no"?>
<!-- Created with Inkscape (http://www.inkscape.org/) -->

<svg
   width="138.94875mm"
   height="162.00368mm"
   viewBox="0 0 138.94875 162.00368"
   version="1.1"
   id="svg1086"
   inkscape:version="1.2.2 (732a01da63, 2022-12-09)"
   sodipodi:docname="Wappen Erfde2.svg"
   xmlns:inkscape="http://www.inkscape.org/namespaces/inkscape"
   xmlns:sodipodi="http://sodipodi.sourceforge.net/DTD/sodipodi-0.dtd"
   xmlns="http://www.w3.org/2000/svg"
   xmlns:svg="http://www.w3.org/2000/svg">
  <sodipodi:namedview
     id="namedview1088"
     pagecolor="#ffffff"
     bordercolor="#666666"
     borderopacity="1.0"
     inkscape:showpageshadow="2"
     inkscape:pageopacity="0.0"
     inkscape:pagecheckerboard="0"
     inkscape:deskcolor="#d1d1d1"
     inkscape:document-units="mm"
     showgrid="false"
     inkscape:zoom="0.87421548"
     inkscape:cx="263.66497"
     inkscape:cy="307.13252"
     inkscape:current-layer="layer1" />
  <defs
     id="defs1083">
    <inkscape:path-effect
       effect="powerstroke"
       id="path-effect1870"
       is_visible="true"
       lpeversion="1"
       offset_points="0.38485076,0.22037218 | 1.4910692,0.3304939 | 2.8,0.15000001"
       not_jump="false"
       sort_points="true"
       interpolator_type="CentripetalCatmullRom"
       interpolator_beta="0.2"
       start_linecap_type="zerowidth"
       linejoin_type="round"
       miter_limit="4"
       scale_width="1"
       end_linecap_type="zerowidth" />
    <inkscape:path-effect
       effect="powerstroke"
       id="path-effect1874"
       is_visible="true"
       lpeversion="1"
       offset_points="0.2,0.15000001 | 0.99335669,0.27254031 | 1.8,0.15000001"
       not_jump="false"
       sort_points="true"
       interpolator_type="CentripetalCatmullRom"
       interpolator_beta="0.2"
       start_linecap_type="zerowidth"
       linejoin_type="round"
       miter_limit="4"
       scale_width="1"
       end_linecap_type="zerowidth" />
    <inkscape:path-effect
       effect="powerstroke"
       id="path-effect2375"
       is_visible="true"
       lpeversion="1"
       offset_points="0.2,0.15000001 | 0.9997074,0.20839463 | 1.8,0.15000001"
       not_jump="false"
       sort_points="true"
       interpolator_type="CentripetalCatmullRom"
       interpolator_beta="0.2"
       start_linecap_type="zerowidth"
       linejoin_type="round"
       miter_limit="4"
       scale_width="1"
       end_linecap_type="zerowidth" />
    <inkscape:path-effect
       effect="powerstroke"
       id="path-effect2381"
       is_visible="true"
       lpeversion="1"
       offset_points="0.2,0.15000001 | 0.9997074,0.20839463 | 1.8,0.15000001"
       not_jump="false"
       sort_points="true"
       interpolator_type="CentripetalCatmullRom"
       interpolator_beta="0.2"
       start_linecap_type="zerowidth"
       linejoin_type="round"
       miter_limit="4"
       scale_width="1"
       end_linecap_type="zerowidth" />
    <inkscape:path-effect
       effect="powerstroke"
       id="path-effect2387"
       is_visible="true"
       lpeversion="1"
       offset_points="0.2,0.15000001 | 0.9997074,0.20839463 | 1.8,0.15000001"
       not_jump="false"
       sort_points="true"
       interpolator_type="CentripetalCatmullRom"
       interpolator_beta="0.2"
       start_linecap_type="zerowidth"
       linejoin_type="round"
       miter_limit="4"
       scale_width="1"
       end_linecap_type="zerowidth" />
  </defs>
  <g
     inkscape:label="Ebene 1"
     inkscape:groupmode="layer"
     id="layer1"
     transform="translate(-530.818,-70.01511)">
    <g
       id="g5135"
       transform="translate(275.66154,194.86765)">
      <path
         id="path3146"
         style="fill:#009f01;fill-opacity:1;stroke:none;stroke-width:2;stroke-dasharray:none"
         d="m 256.15646,-123.85254 v 91.5293 a 68.474449,68.474449 0 0 0 68.47438,68.47437 68.474449,68.474449 0 0 0 68.47437,-68.47386 68.474449,68.474449 0 0 0 0,-5.1e-4 v -91.5293 z" />
      <path
         id="path4092"
         style="fill:#ffffff;fill-opacity:1;stroke:#000000;stroke-width:0.3;stroke-dasharray:none"
         d="m 367.18225,-7.40745 c -7.92852,7.8e-4 -13.60918,8.08086 -21.53771,8.08168 -7.92854,8.9e-4 -13.61333,-8.07786 -21.54184,-8.07703 -7.92855,7.8e-4 -13.61015,8.08085 -21.53873,8.08168 -7.92859,7.8e-4 -13.61327,-8.07785 -21.54184,-8.07703 -6.27709,6.3e-4 -11.14611,5.06237 -16.83618,7.17269 a 68.474449,68.474449 0 0 0 3.20342,5.39037 c 4.40839,-2.3829 8.5615,-5.68339 13.63276,-5.68389 7.92857,-8.2e-4 13.61325,8.0778 21.54184,8.07702 7.92858,-8.3e-4 13.61018,-8.08089 21.53873,-8.08167 7.92851,-8.3e-4 13.6133,8.07791 21.54184,8.07702 7.92853,-8.2e-4 13.60919,-8.0809 21.53771,-8.08168 5.37133,-5.4e-4 9.71423,3.70324 14.42134,6.09472 a 68.474449,68.474449 0 0 0 3.30987,-5.5025 c -6.08158,-1.87386 -11.12911,-7.47206 -17.73121,-7.47138 z" />
      <path
         id="path4096"
         style="fill:#ffffff;fill-opacity:1;stroke:#000000;stroke-width:0.3;stroke-dasharray:none"
         d="m 367.19103,6.35088 c -7.92851,7.8e-4 -13.60917,8.08138 -21.5377,8.0822 -7.92855,8.9e-4 -13.61334,-8.07838 -21.54184,-8.07755 -7.92856,7.8e-4 -13.61016,8.08085 -21.53874,8.08168 -7.92858,7.8e-4 -13.61378,-8.07785 -21.54235,-8.07703 -3.71962,3.7e-4 -6.94408,1.78018 -10.1384,3.66851 a 68.474449,68.474449 0 0 0 4.0566,4.69997 c 1.92168,-0.87636 3.91634,-1.48909 6.0818,-1.48931 7.92857,-8.2e-4 13.61377,8.07781 21.54235,8.07703 7.92858,-8.3e-4 13.61018,-8.0809 21.53874,-8.08168 7.9285,-8.3e-4 13.61329,8.07843 21.54184,8.07754 7.92853,-8.2e-4 13.60919,-8.08141 21.5377,-8.08219 2.44153,-2.5e-4 4.66958,0.76862 6.81664,1.82883 a 68.474449,68.474449 0 0 0 4.03851,-4.62039 C 374.6149,8.40263 371.18775,6.35047 367.19103,6.35088 Z" />
      <path
         id="rect1364"
         style="fill:#ffff00;stroke:#000000;stroke-width:0.3"
         d="m 286.97078,-94.524371 v 2.071708 h 9.42784 v 9.477983 h 1.03612 1.03559 25.71988 5.1e-4 25.71988 1.0356 1.03611 v -9.477983 h 9.42785 v -2.071708 h -9.42785 -2.07171 v 2.071708 3.185853 h -25.71988 -5.1e-4 -25.71988 v -3.185853 -2.071708 h -2.07171 z" />
      <g
         id="g1458"
         transform="translate(218.95058,-189.86635)">
        <path
           style="color:#000000;fill:#ffff00;stroke:#000000;stroke-width:0.3;stroke-dasharray:none"
           d="m 100.61133,90.777344 c -1.541272,-0.03167 -2.590274,0.41312 -3.51758,1.171875 -0.927306,0.758755 -1.787783,1.782034 -3.296875,3.083984 -1.25388,1.08177 -2.421042,2.3144 -3.785156,3.220703 -0.784108,0.520953 -1.553473,0.945624 -2.220703,1.15625 -0.667231,0.210627 -1.190862,0.212709 -1.625,-0.01172 -0.488056,-0.252299 -0.943246,-0.916326 -1.027344,-1.566406 -0.0841,-0.65008 0.08812,-1.225682 0.886719,-1.632812 0.781867,-0.3986 1.295137,-0.141538 1.779296,0.255859 0.48416,0.397397 0.78125,0.921875 0.78125,0.921875 l 1.050782,-0.582031 c 0,0 -0.378787,-0.698372 -1.072266,-1.267578 -0.693479,-0.569206 -1.860159,-1.022349 -3.083984,-0.398438 -1.207088,0.615377 -1.666627,1.810954 -1.53125,2.857422 0.135377,1.046468 0.750991,2.003543 1.666015,2.476563 0.792876,0.40988 1.688515,0.35968 2.53711,0.0918 0.848594,-0.26788 1.691775,-0.748237 2.523437,-1.300785 1.515265,-1.006726 2.717485,-2.288592 3.904297,-3.3125 1.571931,-1.356164 2.483549,-2.418138 3.273438,-3.064453 0.789888,-0.646315 1.404751,-0.927711 2.734374,-0.900391 0.39029,0.008 1.2535,0.31668 1.96289,0.939454 0.70939,0.622773 1.29774,1.519108 1.4043,2.703125 0.14269,1.585529 -1.33646,3.548464 -3.20508,3.693359 -2.259051,0.175169 -3.728516,-1.580078 -3.728516,-1.580078 l -0.923828,0.763672 c 0,0 1.833201,2.239387 4.744144,2.013677 2.60403,-0.20192 4.51788,-2.650856 4.30664,-4.998052 -0.13731,-1.525732 -0.90752,-2.710421 -1.80469,-3.498047 -0.89717,-0.787626 -1.88807,-1.218978 -2.73242,-1.236327 z"
           id="path1662" />
        <path
           style="color:#000000;fill:#ffff00;stroke:#000000;stroke-width:0.3;stroke-dasharray:none"
           d="m 110.01689,90.777344 c 1.54128,-0.03167 2.59029,0.41312 3.5176,1.171875 0.92731,0.758755 1.78779,1.782034 3.29689,3.083984 1.25389,1.08177 2.42106,2.3144 3.78518,3.220703 0.78411,0.520953 1.55348,0.945624 2.22071,1.15625 0.66723,0.210627 1.19086,0.212709 1.625,-0.01172 0.48805,-0.252299 0.94324,-0.916326 1.02734,-1.566406 0.0841,-0.65008 -0.0881,-1.225682 -0.88672,-1.632812 -0.78186,-0.3986 -1.29513,-0.141538 -1.77929,0.255859 -0.48416,0.397397 -0.78125,0.921875 -0.78125,0.921875 l -1.05079,-0.582031 c 0,0 0.37879,-0.698372 1.07227,-1.267578 0.69348,-0.569206 1.86016,-1.022349 3.08399,-0.398438 1.20708,0.615377 1.66662,1.810954 1.53125,2.857422 -0.13538,1.046468 -0.751,2.003543 -1.66602,2.476563 -0.79288,0.40988 -1.68851,0.35968 -2.53711,0.0918 -0.84859,-0.26788 -1.69178,-0.748237 -2.52345,-1.300785 -1.51527,-1.006726 -2.7175,-2.288592 -3.90432,-3.3125 -1.57194,-1.356164 -2.48356,-2.418138 -3.27345,-3.064453 -0.7899,-0.646315 -1.40476,-0.927711 -2.73439,-0.900391 -0.39029,0.008 -1.25351,0.31668 -1.9629,0.939454 -0.7094,0.622773 -1.29775,1.519108 -1.40431,2.703125 -0.14269,1.585529 1.33647,3.548464 3.2051,3.693359 2.25906,0.175169 3.72854,-1.580078 3.72854,-1.580078 l 0.92383,0.763672 c 0,0 -1.83321,2.239387 -4.74417,2.013677 -2.60405,-0.20192 -4.51791,-2.650856 -4.30667,-4.998052 0.13731,-1.525732 0.90753,-2.710421 1.8047,-3.498047 0.89718,-0.787626 1.88808,-1.218978 2.73244,-1.236327 z"
           id="path1454" />
      </g>
      <path
         id="path1702"
         style="fill:#ffff00;stroke:#000000;stroke-width:0.3;stroke-dasharray:none"
         d="m 281.87376,-106.36679 c -0.67809,0.003 -1.43495,0.0412 -2.28048,0.11007 -6.76429,0.55058 -8.10866,1.01956 -3.23495,33.18609 4.44937,29.36581 14.41365,42.38922 30.03331,61.40142 7.74464,9.42676 7.94572,32.8783 7.28379,46.92892 a 68.474449,68.474449 0 0 0 10.95541,0.89142 68.474449,68.474449 0 0 0 10.08,-0.76791 c -0.6686,-14.03682 -0.48775,-37.59921 7.27863,-47.05243 15.61965,-19.0122 25.58394,-32.03561 30.03331,-61.40142 4.87371,-32.16653 3.52933,-32.63551 -3.23495,-33.18609 -0.84554,-0.0688 -1.60239,-0.10717 -2.28048,-0.11007 -4.74661,-0.0204 -5.62409,1.68313 -5.89938,6.638358 -0.31462,5.66312 -3.06771,35.709532 -11.7197,50.181952 -7.88238,13.18507 -17.61881,21.55114 -24.69772,21.55114 -7.07889,0 -16.81532,-8.36607 -24.69771,-21.55114 -8.65199,-14.47242 -11.40508,-44.518832 -11.7197,-50.181952 -0.27529,-4.955228 -1.15277,-6.658788 -5.89938,-6.638358 z" />
      <path
         style="fill:#000000;fill-rule:nonzero;stroke:none;stroke-width:0.3;stroke-dasharray:none"
         d="m 289.37319,-37.69757 c -0.0195,0.0098 -0.0423,0.352543 0.9086,2.106724 0.76743,1.415793 2.81465,4.917789 6.09736,9.033789 3.54537,4.437173 6.51988,8.018731 9.07966,11.422458 -5.4e-4,-7.25e-4 0.1388,0.184937 0.13825,0.184212 1.18956,1.588303 2.36879,3.248733 3.39143,4.897228 0.94744,1.5272755 1.74896,3.0245682 2.35249,4.5034211 0.42789,1.0530499 0.80742,2.2850601 1.1437,3.6322931 0.34172,1.3690281 0.63588,2.84530446 0.88937,4.3522969 0.54113,3.2170323 0.89897,6.5872943 1.13761,9.3627079 0.34504,4.012874 0.53197,8.033551 0.57738,8.879587 0.10358,1.930158 0.17678,2.137137 0.20178,2.136843 0.025,-2.94e-4 0.11669,-0.21009 0.0981,-2.14632 -0.0112,-1.168884 -0.0847,-4.560133 -0.41231,-8.907612 -0.20999,-2.7864123 -0.54178,-6.1702311 -1.06385,-9.4138549 -0.24443,-1.51866544 -0.53142,-3.0118936 -0.86851,-4.4013404 -0.33142,-1.3660565 -0.71058,-2.6290534 -1.14502,-3.7192047 -0.60526,-1.5254487 -1.4138,-3.0610379 -2.36603,-4.614668 -1.02777,-1.676899 -2.21374,-3.358306 -3.40701,-4.956968 -0.0463,-0.06196 -0.0925,-0.123806 -0.13878,-0.185516 -2.54726,-3.397514 -5.57294,-7.036555 -9.10825,-11.426628 -3.21548,-3.985387 -5.42346,-7.578977 -6.21626,-8.854152 -1.04471,-1.680388 -1.23501,-1.912606 -1.28968,-1.885296 z"
         id="path1868"
         sodipodi:nodetypes="cssc"
         inkscape:path-effect="#path-effect1870"
         inkscape:original-d="m 289.37319,-37.69757 c 0,0 2.50815,5.02115 7.25595,10.93998 7.00816,8.73672 12.61478,15.18985 14.99095,21.09555 3.43644,8.54089 3.67073,28.47603 3.67073,28.47603" />
      <path
         style="fill:#000000;fill-rule:nonzero;stroke:none;stroke-width:0.3;stroke-dasharray:none"
         d="m 352.03426,-52.92859 h 0 c -0.033,-0.01293 -0.13434,0.08732 -0.62902,1.093008 -0.28692,0.583327 -1.27595,2.652277 -2.63726,5.027125 -2.0974,3.658982 -5.07981,8.095026 -8.9564,11.933273 -0.0528,0.05232 -0.10602,0.104691 -0.1595,0.157089 -2.47632,2.425852 -4.83886,4.23475 -7.05636,5.531718 -2.14024,1.251777 -3.96471,1.92081 -5.40879,2.280728 -2.02651,0.505083 -3.44776,0.426367 -3.90364,0.40226 -0.69608,-0.03681 -0.81566,-0.02107 -0.82318,0.0028 -0.008,0.02384 0.0747,0.175674 0.79011,0.295405 0.50323,0.08422 1.91088,0.239568 4.04425,-0.251539 1.49516,-0.344188 3.37324,-1.012316 5.56412,-2.277231 2.26784,-1.309349 4.67207,-3.143183 7.17491,-5.594719 0.0542,-0.05309 0.10807,-0.106141 0.1616,-0.159154 3.91589,-3.877731 6.92152,-8.394017 8.9756,-12.093395 1.40254,-2.525955 2.21527,-4.402605 2.50853,-5.132122 0.4211,-1.047561 0.37219,-1.208493 0.35503,-1.215215 z"
         id="path1872"
         inkscape:path-effect="#path-effect1874"
         inkscape:original-d="m 352.03426,-52.92859 c 0,0 -4.1093,10.48823 -12.19147,18.40519 -10.42866,10.21549 -17.38268,8.02278 -17.38268,8.02278"
         sodipodi:nodetypes="csc" />
      <path
         style="fill:#000000;fill-rule:nonzero;stroke:none;stroke-width:0.3;stroke-dasharray:none"
         d="m 275.14079,-100.64426 c 1.9072,-1.15443 4.03421,-1.50777 5.85991,-1.7 0.49132,-0.0716 0.23118,-0.19949 0.0118,-0.24675 -1.72542,-0.38202 -4.08543,-0.0686 -5.91549,0.21791 -0.005,-0.005 0,0 0,0 z"
         id="path1888"
         sodipodi:nodetypes="cccccc" />
      <path
         style="fill:#000000;fill-rule:nonzero;stroke:none;stroke-width:0.3;stroke-dasharray:none"
         d="m 275.42761,-96.114523 c 1.89775,-1.169896 4.02182,-1.540519 5.84589,-1.747591 0.49072,-0.07559 0.22955,-0.201363 0.01,-0.246836 -1.72846,-0.367978 -4.08585,-0.03542 -5.91352,0.266001 -0.005,-0.0047 0,0 0,0 z"
         id="path1892"
         sodipodi:nodetypes="cccccc" />
      <path
         style="fill:#000000;fill-rule:nonzero;stroke:none;stroke-width:0.3;stroke-dasharray:none"
         d="m 275.54343,-91.442674 c 2.0428,-0.958691 4.32922,-1.262404 6.29271,-1.432093 0.52823,-0.06194 0.24709,-0.16501 0.0106,-0.202274 -1.86058,-0.301546 -4.39815,-0.02903 -6.36551,0.217979 -0.005,-0.0039 0,0 0,0 z"
         id="path1894"
         sodipodi:nodetypes="cccccc" />
      <path
         style="fill:#000000;fill-rule:nonzero;stroke:none;stroke-width:0.3;stroke-dasharray:none"
         d="m 275.71811,-86.54835 c 2.29024,-0.95869 4.85361,-1.26241 7.05494,-1.43209 0.5922,-0.0619 0.27702,-0.16501 0.0118,-0.20228 -2.08595,-0.30154 -4.93089,-0.029 -7.13655,0.21798 -0.006,-0.004 0,0 0,0 z"
         id="path1896"
         sodipodi:nodetypes="cccccc" />
      <path
         style="fill:#000000;fill-rule:nonzero;stroke:none;stroke-width:0.3;stroke-dasharray:none"
         d="m 276.22235,-81.43703 c 2.2289,-1.09377 4.76955,-1.55004 6.95681,-1.85089 0.58746,-0.0972 0.26667,-0.18126 -2.7e-4,-0.20262 -2.10023,-0.17642 -4.92382,0.26554 -7.1108,0.64381 -0.006,-0.004 0,0 0,0 z"
         id="path1898"
         sodipodi:nodetypes="cccccc" />
      <path
         style="fill:#000000;fill-rule:nonzero;stroke:none;stroke-width:0.3;stroke-dasharray:none"
         d="m 276.94537,-77.32135 c 2.2289,-1.09377 4.76955,-1.55004 6.95682,-1.85089 0.58745,-0.0972 0.26667,-0.18126 -2.7e-4,-0.20262 -2.10024,-0.17642 -4.92383,0.26554 -7.1108,0.64381 -0.006,-0.004 0,0 0,0 z"
         id="path1900"
         sodipodi:nodetypes="cccccc" />
      <path
         style="fill:#000000;fill-rule:nonzero;stroke:none;stroke-width:0.3;stroke-dasharray:none"
         d="m 277.50155,-73.31691 c 2.22889,-1.09377 4.76954,-1.55004 6.95681,-1.85089 0.58745,-0.0972 0.26667,-0.18126 -2.7e-4,-0.20262 -2.10024,-0.17642 -4.92382,0.26554 -7.1108,0.64381 -0.006,-0.004 0,0 0,0 z"
         id="path1902"
         sodipodi:nodetypes="cccccc" />
      <path
         style="fill:#000000;fill-rule:nonzero;stroke:none;stroke-width:0.3;stroke-dasharray:none"
         d="m 278.24807,-68.96207 c 2.14967,-1.24227 4.65356,-1.86963 6.81542,-2.31799 0.57952,-0.13678 0.25378,-0.19891 -0.014,-0.20213 -2.10736,-0.0337 -4.89451,0.59854 -7.05084,1.12411 -0.006,-0.004 0,0 0,0 z"
         id="path1904"
         sodipodi:nodetypes="cccccc" />
      <path
         style="fill:#000000;fill-rule:nonzero;stroke:none;stroke-width:0.3;stroke-dasharray:none"
         d="m 279.36041,-65.1801 c 2.14967,-1.24227 4.65357,-1.86963 6.81542,-2.31799 0.57952,-0.13678 0.25378,-0.19891 -0.014,-0.20213 -2.10736,-0.0337 -4.89451,0.59854 -7.05083,1.12411 -0.006,-0.004 0,0 0,0 z"
         id="path1906"
         sodipodi:nodetypes="cccccc" />
      <path
         style="fill:#000000;fill-rule:nonzero;stroke:none;stroke-width:0.3;stroke-dasharray:none"
         d="m 280.27757,-61.17512 c 2.40443,-1.36481 5.24625,-2.13594 7.70455,-2.70854 0.65816,-0.17007 0.28123,-0.21331 -0.0262,-0.20107 -2.41999,0.088 -5.58661,0.88036 -8.03469,1.52976 -0.008,-0.004 0,0 0,0 z"
         id="path1908"
         sodipodi:nodetypes="cccccc" />
      <path
         style="fill:#000000;fill-rule:nonzero;stroke:none;stroke-width:0.3;stroke-dasharray:none"
         d="m 281.1821,-57.55701 c 2.40442,-1.36481 5.24625,-2.13594 7.70455,-2.70854 0.65815,-0.17007 0.28123,-0.21331 -0.0262,-0.20107 -2.41999,0.088 -5.58662,0.88036 -8.03469,1.52976 -0.008,-0.004 0,0 0,0 z"
         id="path1910"
         sodipodi:nodetypes="cccccc" />
      <path
         style="fill:#000000;fill-rule:nonzero;stroke:none;stroke-width:0.3;stroke-dasharray:none"
         d="m 282.58058,-53.7354 c 2.3125,-1.51536 5.09936,-2.46614 7.51615,-3.19435 0.64597,-0.21169 0.26705,-0.2308 -0.039,-0.19898 -2.40946,0.24214 -5.51911,1.23483 -7.92079,2.03902 -0.008,-0.004 0,0 0,0 z"
         id="path1912"
         sodipodi:nodetypes="cccccc" />
      <path
         style="fill:#000000;fill-rule:nonzero;stroke:none;stroke-width:0.3;stroke-dasharray:none"
         d="m 283.79972,-50.31392 c 2.31251,-1.51536 5.09937,-2.46614 7.51616,-3.19435 0.64596,-0.21169 0.26705,-0.2308 -0.039,-0.19898 -2.40946,0.24214 -5.51911,1.23483 -7.92079,2.03902 -0.008,-0.004 0,0 0,0 z"
         id="path1964"
         sodipodi:nodetypes="cccccc" />
      <path
         style="fill:#000000;fill-rule:nonzero;stroke:none;stroke-width:0.3;stroke-dasharray:none"
         d="m 285.39639,-46.44245 c 2.48425,-1.69147 5.52434,-2.81898 8.16583,-3.69655 0.70512,-0.2523 0.28393,-0.2534 -0.0538,-0.20512 -2.65904,0.37142 -6.05486,1.55855 -8.67558,2.51443 -0.009,-0.004 0,0 0,0 z"
         id="path1966"
         sodipodi:nodetypes="cccccc" />
      <path
         style="fill:#000000;fill-rule:nonzero;stroke:none;stroke-width:0.3;stroke-dasharray:none"
         d="m 286.96822,-42.73133 c 2.35241,-1.87049 5.30083,-3.21966 7.87021,-4.2901 0.68454,-0.30374 0.26443,-0.2737 -0.0688,-0.20059 -2.6243,0.56698 -5.92307,2.0019 -8.46595,3.14891 -0.009,-0.003 0,0 0,0 z"
         id="path1968"
         sodipodi:nodetypes="cccccc" />
      <path
         style="fill:#000000;fill-rule:nonzero;stroke:none;stroke-width:0.3;stroke-dasharray:none"
         d="m 288.77728,-39.30985 c 2.35241,-1.87049 5.30083,-3.21966 7.87021,-4.2901 0.68454,-0.30374 0.26443,-0.2737 -0.0688,-0.20059 -2.62431,0.56698 -5.92307,2.0019 -8.46595,3.14891 -0.009,-0.003 0,0 0,0 z"
         id="path1970"
         sodipodi:nodetypes="cccccc" />
      <path
         style="fill:#000000;fill-rule:nonzero;stroke:none;stroke-width:0.3;stroke-dasharray:none"
         d="m 290.70312,-35.5202 c 2.28722,-1.94967 5.18789,-3.39865 7.71925,-4.55614 0.67378,-0.32692 0.25493,-0.28256 -0.0756,-0.19813 -2.60343,0.6562 -5.85132,2.20284 -8.35358,3.43595 -0.009,-0.003 0,0 0,0 z"
         id="path1972"
         sodipodi:nodetypes="cccccc" />
      <path
         style="fill:#000000;fill-rule:nonzero;stroke:none;stroke-width:0.3;stroke-dasharray:none"
         d="m 292.88085,-32.00094 c 2.21209,-2.03451 5.05608,-3.5918 7.542,-4.8439 0.66098,-0.35209 0.24411,-0.29197 -0.083,-0.19514 -2.57684,0.75388 -5.76411,2.42186 -8.21811,3.74842 -0.009,-0.003 0,0 0,0 z"
         id="path1974"
         sodipodi:nodetypes="cccccc" />
      <path
         style="fill:#000000;fill-rule:nonzero;stroke:none;stroke-width:0.3;stroke-dasharray:none"
         d="m 295.04385,-28.93341 c 2.21209,-2.03451 5.05608,-3.5918 7.54201,-4.8439 0.66097,-0.35209 0.2441,-0.29197 -0.083,-0.19514 -2.57685,0.75388 -5.76412,2.42186 -8.21812,3.74842 -0.009,-0.003 0,0 0,0 z"
         id="path1976"
         sodipodi:nodetypes="cccccc" />
      <path
         style="fill:#000000;fill-rule:nonzero;stroke:none;stroke-width:0.3;stroke-dasharray:none"
         d="m 297.63945,-25.70857 c 2.2121,-2.03451 5.05608,-3.5918 7.54201,-4.8439 0.66098,-0.35209 0.2441,-0.29197 -0.083,-0.19514 -2.57684,0.75388 -5.76411,2.42186 -8.21811,3.74842 -0.009,-0.003 0,0 0,0 z"
         id="path1978"
         sodipodi:nodetypes="cccccc" />
      <path
         style="fill:#000000;fill-rule:nonzero;stroke:none;stroke-width:0.3;stroke-dasharray:none"
         d="m 299.88111,-22.83767 c 2.21209,-2.03451 5.05608,-3.5918 7.54201,-4.8439 0.66097,-0.35209 0.2441,-0.29197 -0.083,-0.19514 -2.57685,0.75388 -5.76412,2.42186 -8.21812,3.74842 -0.009,-0.003 0,0 0,0 z"
         id="path1980"
         sodipodi:nodetypes="cccccc" />
      <path
         style="fill:#000000;fill-rule:nonzero;stroke:none;stroke-width:0.3;stroke-dasharray:none"
         d="m 302.1621,-19.96677 c 2.21209,-2.03451 5.05608,-3.5918 7.542,-4.8439 0.66098,-0.35209 0.24411,-0.29197 -0.083,-0.19514 -2.57684,0.75388 -5.76411,2.42186 -8.21811,3.74842 -0.009,-0.003 0,0 0,0 z"
         id="path1982"
         sodipodi:nodetypes="cccccc" />
      <path
         style="fill:#000000;fill-rule:nonzero;stroke:none;stroke-width:0.3;stroke-dasharray:none"
         d="m 304.4858,-17.09588 c 2.56385,-2.23791 5.86008,-3.95089 8.74131,-5.32817 0.76608,-0.38729 0.28292,-0.32116 -0.0962,-0.21465 -2.9866,0.82925 -6.6807,2.66399 -9.52493,4.12317 -0.0109,-0.003 0,0 0,0 z"
         id="path1984"
         sodipodi:nodetypes="cccccc" />
      <path
         style="fill:#000000;fill-rule:nonzero;stroke:none;stroke-width:0.3;stroke-dasharray:none"
         d="m 306.53082,-14.57893 c 2.56385,-2.23791 5.86008,-3.95089 8.74131,-5.32817 0.76608,-0.38729 0.28292,-0.32116 -0.0962,-0.21465 -2.9866,0.82925 -6.6807,2.66399 -9.52493,4.12317 -0.0109,-0.003 0,0 0,0 z"
         id="path1986"
         sodipodi:nodetypes="cccccc" />
      <path
         style="fill:#000000;fill-rule:nonzero;stroke:none;stroke-width:0.3;stroke-dasharray:none"
         d="m 308.56308,-11.74736 c 2.7548,-2.31614 6.29654,-4.089 9.39235,-5.51443 0.82315,-0.40083 0.30399,-0.33239 -0.10336,-0.22215 -3.20904,0.85824 -7.17828,2.75711 -10.23434,4.2673 -0.0117,-0.003 0,0 0,0 z"
         id="path1988"
         sodipodi:nodetypes="cccccc" />
      <path
         style="fill:#000000;fill-rule:nonzero;stroke:none;stroke-width:0.3;stroke-dasharray:none"
         d="m 309.81325,-9.48108 c 3.0176,-1.96152 6.74971,-3.28751 9.99672,-4.32328 0.86602,-0.29705 0.34239,-0.29268 -0.0754,-0.23313 -3.28996,0.45898 -7.46178,1.85771 -10.67972,2.98246 -0.0112,-0.004 0,0 0,0 z"
         id="path1990"
         sodipodi:nodetypes="cccccc" />
      <path
         style="fill:#000000;fill-rule:nonzero;stroke:none;stroke-width:0.3;stroke-dasharray:none"
         d="m 311.67077,-6.17759 c 2.74279,-1.6421 6.13503,-2.75216 9.08634,-3.61926 0.78716,-0.24868 0.31121,-0.24502 -0.0685,-0.19516 -2.99035,0.38423 -6.78226,1.55519 -9.70714,2.49678 -0.0102,-0.003 0,0 0,0 z"
         id="path1992"
         sodipodi:nodetypes="cccccc" />
      <path
         style="fill:#000000;fill-rule:nonzero;stroke:none;stroke-width:0.3;stroke-dasharray:none"
         d="m 312.72787,-3.04422 c 2.51925,-1.43995 5.57347,-2.32095 8.22412,-2.99101 0.70813,-0.19574 0.28977,-0.22076 -0.0471,-0.19484 -2.65268,0.19582 -6.06207,1.11235 -8.69448,1.85679 -0.009,-0.004 0,0 0,0 z"
         id="path1994"
         sodipodi:nodetypes="cccccc" />
      <path
         style="fill:#000000;fill-rule:nonzero;stroke:none;stroke-width:0.3;stroke-dasharray:none"
         d="m 313.44022,-0.1537 c 2.62321,-1.24052 5.73648,-1.88234 8.43107,-2.3451 0.72116,-0.14031 0.30599,-0.19765 -0.0319,-0.1979 -2.65988,-0.0102 -6.13002,0.63952 -8.81217,1.17785 -0.009,-0.005 0,0 0,0 z"
         id="path1996"
         sodipodi:nodetypes="cccccc" />
      <path
         style="fill:#000000;fill-rule:nonzero;stroke:none;stroke-width:0.3;stroke-dasharray:none"
         d="m 313.91616,3.05984 c 2.48313,-1.14347 5.4018,-1.67067 7.92478,-2.03429 0.6758,-0.11376 0.29147,-0.18629 -0.0229,-0.19893 -2.47453,-0.10776 -5.72552,0.41425 -8.23952,0.85384 -0.008,-0.005 0,0 0,0 z"
         id="path879"
         sodipodi:nodetypes="cccccc" />
      <path
         style="fill:#000000;fill-rule:nonzero;stroke:none;stroke-width:0.3;stroke-dasharray:none"
         d="m 314.38882,6.2089 c 2.57419,-0.92033 5.52796,-1.18842 8.07316,-1.32842 0.68319,-0.0538 0.30674,-0.1599 -0.005,-0.20018 -2.45542,-0.32528 -5.73977,-0.0916 -8.28271,0.12484 -0.007,-0.006 0,0 0,0 z"
         id="path881"
         sodipodi:nodetypes="cccccc" />
      <path
         style="fill:#000000;fill-rule:nonzero;stroke:none;stroke-width:0.3;stroke-dasharray:none"
         d="m 314.72252,9.29566 c 2.57419,-0.92033 5.52796,-1.18842 8.07316,-1.32842 0.68319,-0.0538 0.30674,-0.1599 -0.005,-0.20018 -2.45542,-0.32528 -5.73976,-0.0916 -8.28271,0.12484 -0.007,-0.006 0,0 0,0 z"
         id="path883"
         sodipodi:nodetypes="cccccc" />
      <path
         style="fill:#000000;fill-rule:nonzero;stroke:none;stroke-width:0.3;stroke-dasharray:none"
         d="m 315.00061,12.74393 c 2.57419,-0.92033 5.52796,-1.18842 8.07316,-1.32842 0.68319,-0.0538 0.30674,-0.1599 -0.005,-0.20018 -2.45542,-0.32528 -5.73977,-0.0916 -8.28271,0.12484 -0.007,-0.006 0,0 0,0 z"
         id="path885"
         sodipodi:nodetypes="cccccc" />
      <path
         style="fill:#000000;fill-rule:nonzero;stroke:none;stroke-width:0.3;stroke-dasharray:none"
         d="m 315.15227,15.58384 c 2.62443,-0.76538 5.58893,-0.85707 8.13795,-0.84523 0.68518,-0.013 0.31572,-0.14135 0.007,-0.20012 -2.43169,-0.47095 -5.72412,-0.4333 -8.27544,-0.3687 -0.007,-0.006 0,0 0,0 z"
         id="path887"
         sodipodi:nodetypes="cccccc" />
      <path
         style="fill:#000000;fill-rule:nonzero;stroke:none;stroke-width:0.3;stroke-dasharray:none"
         d="m 315.2763,18.69841 c 2.32945,-0.76538 4.96074,-0.85707 7.22325,-0.84523 0.60817,-0.013 0.28024,-0.14135 0.006,-0.20012 -2.15837,-0.47095 -5.08074,-0.4333 -7.34529,-0.3687 -0.006,-0.006 0,0 0,0 z"
         id="path889"
         sodipodi:nodetypes="cccccc" />
      <path
         style="fill:#000000;fill-rule:nonzero;stroke:none;stroke-width:0.3;stroke-dasharray:none"
         d="m 315.3811,22.2301 c 2.20303,-0.67743 4.69152,-0.75859 6.83124,-0.74811 0.57517,-0.0115 0.26503,-0.1251 0.006,-0.17712 -2.04124,-0.41683 -4.80501,-0.38351 -6.94667,-0.32633 -0.006,-0.005 0,0 0,0 z"
         id="path891"
         sodipodi:nodetypes="cccccc" />
      <path
         style="fill:#000000;fill-rule:nonzero;stroke:none;stroke-width:0.3;stroke-dasharray:none"
         d="m 315.21424,25.70618 c 2.20304,-0.67743 4.69153,-0.75859 6.83125,-0.74811 0.57517,-0.0115 0.26503,-0.1251 0.006,-0.17712 -2.04124,-0.41683 -4.80501,-0.38351 -6.94667,-0.32633 -0.006,-0.005 0,0 0,0 z"
         id="path893"
         sodipodi:nodetypes="cccccc" />
      <path
         style="fill:#000000;fill-rule:nonzero;stroke:none;stroke-width:0.3;stroke-dasharray:none"
         d="m 315.25144,29.26568 c 1.84062,-0.67743 3.91974,-0.75859 5.70746,-0.74811 0.48055,-0.0115 0.22143,-0.1251 0.005,-0.17712 -1.70545,-0.41683 -4.01456,-0.38351 -5.8039,-0.32633 -0.005,-0.005 0,0 0,0 z"
         id="path895"
         sodipodi:nodetypes="cccccc" />
      <path
         style="fill:#000000;fill-rule:nonzero;stroke:none;stroke-width:0.3;stroke-dasharray:none"
         d="m 315.27925,32.90861 c 1.84062,-0.67743 3.91974,-0.75859 5.70746,-0.74811 0.48055,-0.0115 0.22143,-0.1251 0.005,-0.17712 -1.70545,-0.41683 -4.01456,-0.38351 -5.8039,-0.32633 -0.005,-0.005 0,0 0,0 z"
         id="path897"
         sodipodi:nodetypes="cccccc" />
      <path
         style="fill:#000000;fill-rule:nonzero;stroke:none;stroke-width:0.3;stroke-dasharray:none"
         d="m 362.05626,-101.0662 c 2.94082,-0.61979 6.1813,-0.50661 8.95806,-0.31385 0.74809,0.0348 0.35896,-0.1264 0.0282,-0.21017 -2.60053,-0.66757 -6.19268,-0.86086 -8.98001,-0.9733 -0.006,-0.007 0,0 0,0 z"
         id="path951"
         sodipodi:nodetypes="cccccc" />
      <path
         style="fill:#000000;fill-rule:nonzero;stroke:none;stroke-width:0.3;stroke-dasharray:none"
         d="m 361.73503,-97.016333 c 2.95096,-0.569524 6.18904,-0.401084 8.9621,-0.160976 0.74739,0.04753 0.36107,-0.120256 0.0318,-0.209659 -2.58876,-0.711839 -6.17709,-0.966387 -8.9621,-1.126364 -0.006,-0.0072 0,0 0,0 z"
         id="path953"
         sodipodi:nodetypes="cccccc" />
      <path
         style="fill:#000000;fill-rule:nonzero;stroke:none;stroke-width:0.3;stroke-dasharray:none"
         d="m 361.21324,-91.766692 c 2.85276,-0.531649 5.96689,-0.322075 8.63184,-0.04679 0.71861,0.05702 0.35009,-0.115594 0.0349,-0.209137 -2.47789,-0.744415 -5.92747,-1.044508 -8.60556,-1.239855 -0.006,-0.0073 0,0 0,0 z"
         id="path955"
         sodipodi:nodetypes="cccccc" />
      <path
         style="fill:#000000;fill-rule:nonzero;stroke:none;stroke-width:0.3;stroke-dasharray:none"
         d="m 360.89862,-87.44068 c 2.85276,-0.53165 5.96689,-0.32208 8.63184,-0.0468 0.71861,0.057 0.35009,-0.11559 0.0349,-0.20914 -2.47789,-0.74441 -5.92747,-1.04451 -8.60556,-1.23985 -0.006,-0.007 0,0 0,0 z"
         id="path1053"
         sodipodi:nodetypes="cccccc" />
      <path
         style="fill:#000000;fill-rule:nonzero;stroke:none;stroke-width:0.3;stroke-dasharray:none"
         d="m 360.43388,-83.05354 c 2.8501,-0.54572 5.96524,-0.35152 8.63151,-0.0894 0.71888,0.0535 0.34951,-0.11732 0.0339,-0.20931 -2.48153,-0.73218 -5.93255,-1.01525 -8.61157,-1.19738 -0.006,-0.007 0,0 0,0 z"
         id="path1055"
         sodipodi:nodetypes="cccccc" />
      <path
         style="fill:#000000;fill-rule:nonzero;stroke:none;stroke-width:0.3;stroke-dasharray:none"
         d="m 359.8833,-78.45224 c 2.8501,-0.54572 5.96524,-0.35152 8.63151,-0.0894 0.71888,0.0535 0.34951,-0.11732 0.0339,-0.20931 -2.48153,-0.73218 -5.93255,-1.01525 -8.61157,-1.19738 -0.006,-0.007 0,0 0,0 z"
         id="path1057"
         sodipodi:nodetypes="cccccc" />
      <path
         style="fill:#000000;fill-rule:nonzero;stroke:none;stroke-width:0.3;stroke-dasharray:none"
         d="m 359.0181,-73.61498 c 2.8501,-0.54572 5.96524,-0.35152 8.63151,-0.0894 0.71888,0.0535 0.34951,-0.11732 0.0339,-0.20931 -2.48153,-0.73218 -5.93255,-1.01525 -8.61157,-1.19738 -0.006,-0.007 0,0 0,0 z"
         id="path1059"
         sodipodi:nodetypes="cccccc" />
      <path
         style="fill:#000000;fill-rule:nonzero;stroke:none;stroke-width:0.3;stroke-dasharray:none"
         d="m 357.88922,-68.93075 c 2.87067,-0.42444 5.97478,-0.0984 8.62755,0.27649 0.71597,0.0839 0.35417,-0.1024 0.0427,-0.20769 -2.44827,-0.83669 -5.88419,-1.26576 -8.55309,-1.56127 -0.006,-0.007 0,0 0,0 z"
         id="path1061"
         sodipodi:nodetypes="cccccc" />
      <path
         style="fill:#000000;fill-rule:nonzero;stroke:none;stroke-width:0.3;stroke-dasharray:none"
         d="m 356.37454,-63.8182 c 2.87067,-0.42444 5.97478,-0.0984 8.62755,0.27649 0.71597,0.0839 0.35417,-0.1024 0.0427,-0.20769 -2.44827,-0.83669 -5.88419,-1.26576 -8.55309,-1.56127 -0.006,-0.007 0,0 0,0 z"
         id="path1063"
         sodipodi:nodetypes="cccccc" />
      <path
         style="fill:#000000;fill-rule:nonzero;stroke:none;stroke-width:0.3;stroke-dasharray:none"
         d="m 355.37343,-59.59129 c 2.87067,-0.42444 5.97478,-0.0984 8.62755,0.27649 0.71597,0.0839 0.35417,-0.1024 0.0427,-0.20769 -2.44827,-0.83669 -5.88419,-1.26576 -8.55309,-1.56127 -0.006,-0.007 0,0 0,0 z"
         id="path1065"
         sodipodi:nodetypes="cccccc" />
      <path
         style="fill:#000000;fill-rule:nonzero;stroke:none;stroke-width:0.3;stroke-dasharray:none"
         d="m 353.25997,-54.75259 c 2.87067,-0.42444 5.97478,-0.0984 8.62755,0.27649 0.71597,0.0839 0.35417,-0.1024 0.0427,-0.20769 -2.44827,-0.83669 -5.88419,-1.26576 -8.55309,-1.56127 -0.006,-0.007 0,0 0,0 z"
         id="path1067"
         sodipodi:nodetypes="cccccc" />
      <path
         style="fill:#000000;fill-rule:nonzero;stroke:none;stroke-width:0.3;stroke-dasharray:none"
         d="m 351.01691,-50.42473 c 2.88908,-0.2722 6.46523,0.21043 9.0945,0.72494 0.71053,0.1216 0.35908,-0.0836 0.0536,-0.20515 -2.40065,-0.96486 -5.80911,-1.57485 -8.45867,-2.01094 -0.006,-0.007 0,0 0,0 z"
         id="path1069"
         sodipodi:nodetypes="cccccc" />
      <path
         style="fill:#000000;fill-rule:nonzero;stroke:none;stroke-width:0.3;stroke-dasharray:none"
         d="m 348.59756,-45.73202 c 2.88908,-0.2722 6.71551,0.13395 9.34478,0.64846 0.71053,0.1216 0.35908,-0.0836 0.0536,-0.20515 -2.40065,-0.96486 -5.80911,-1.57485 -8.45867,-2.01094 -0.006,-0.007 0,0 0,0 z"
         id="path1071"
         sodipodi:nodetypes="cccccc" />
      <path
         style="fill:#000000;fill-rule:nonzero;stroke:none;stroke-width:0.3;stroke-dasharray:none"
         d="m 345.85108,-41.49679 c 2.90158,-0.0413 6.63058,0.68527 9.21053,1.40752 0.69859,0.17779 0.36459,-0.0547 0.0698,-0.20023 -2.31619,-1.15297 -5.66525,-2.03244 -8.27167,-2.67813 -0.005,-0.007 0,0 0,0 z"
         id="path1073"
         sodipodi:nodetypes="cccccc" />
      <path
         style="fill:#000000;fill-rule:nonzero;stroke:none;stroke-width:0.3;stroke-dasharray:none"
         d="m 342.63999,-37.3171 c 2.90066,0.0839 6.54652,0.93372 9.09291,1.7666 0.69027,0.20776 0.36661,-0.0389 0.0784,-0.19703 -2.26429,-1.25182 -5.57229,-2.27495 -8.14843,-3.03248 -0.005,-0.007 0,0 0,0 z"
         id="path1075"
         sodipodi:nodetypes="cccccc" />
      <path
         style="fill:#000000;fill-rule:nonzero;stroke:none;stroke-width:0.3;stroke-dasharray:none"
         d="m 339.45177,-33.94264 c 2.87161,0.41799 6.57159,1.65674 9.00489,2.77784 0.66169,0.28601 0.36865,0.004 0.10061,-0.18667 -2.10475,-1.50469 -5.27262,-2.90264 -7.74416,-3.95233 -0.004,-0.008 0,0 0,0 z"
         id="path1077"
         sodipodi:nodetypes="cccccc" />
      <path
         style="fill:#000000;fill-rule:nonzero;stroke:none;stroke-width:0.3;stroke-dasharray:none"
         d="m 335.77435,-30.84065 c 2.83433,0.62242 6.5242,2.19625 8.87103,3.48861 0.63952,0.33263 0.36742,0.0304 0.11371,-0.179 -1.99167,-1.65145 -5.05138,-3.27252 -7.44147,-4.49639 -0.003,-0.008 0,0 0,0 z"
         id="path1079"
         sodipodi:nodetypes="cccccc" />
      <path
         style="fill:#000000;fill-rule:nonzero;stroke:none;stroke-width:0.3;stroke-dasharray:none"
         d="m 332.05911,-28.46696 c 2.77022,0.8641 6.33558,2.73512 8.56245,4.2247 0.60851,0.38645 0.36344,0.0619 0.12869,-0.16854 -1.84211,-1.81677 -4.75091,-3.69522 -7.02677,-5.1203 -0.002,-0.008 0,0 0,0 z"
         id="path1081"
         sodipodi:nodetypes="cccccc" />
      <path
         style="fill:#000000;fill-rule:nonzero;stroke:none;stroke-width:0.3;stroke-dasharray:none"
         d="m 328.88212,-27.04559 c 2.23486,1.02391 5.08762,3.08895 6.8046,4.61107 0.47124,0.39783 0.29835,0.0891 0.12469,-0.13593 -1.36183,-1.77315 -3.61134,-3.70222 -5.37582,-5.1723 -10e-4,-0.007 0,0 0,0 z"
         id="path1083"
         sodipodi:nodetypes="cccccc" />
      <path
         style="fill:#000000;fill-rule:nonzero;stroke:none;stroke-width:0.3;stroke-dasharray:none"
         d="m 326.57249,-26.3455 c 1.41671,0.95516 3.08372,2.68934 4.1105,3.99237 0.28348,0.34221 0.19312,0.0907 0.0952,-0.0961 -0.76697,-1.47147 -2.11768,-3.12823 -3.18076,-4.39445 -1.4e-4,-0.005 0,0 0,0 z"
         id="path1085"
         sodipodi:nodetypes="cccccc" />
      <path
         style="fill:#000000;fill-rule:nonzero;stroke:none;stroke-width:0.3;stroke-dasharray:none"
         d="m 323.51409,-26.20181 c 1.02871,0.72957 2.42482,2.2642 3.17039,3.25948 0.20584,0.26138 0.14024,0.0693 0.0692,-0.0734 -0.55692,-1.12393 -1.53771,-2.38939 -2.30963,-3.35655 -1e-4,-0.003 0,0 0,0 z"
         id="path1087"
         sodipodi:nodetypes="cccccc" />
      <path
         id="path2777"
         style="fill:#ffff00;fill-opacity:1;stroke:#000000;stroke-width:0.3;stroke-dasharray:none"
         d="m 320.78938,-86.10266 c -0.55077,0.007 -1.02927,0.14834 -1.28054,0.25787 -0.91206,0.39756 -1.51742,2.25115 -0.2341,3.81062 0.6199,0.75328 4.83702,5.01926 4.89686,5.07979 v 0.0196 c 0,0 0.009,-0.01 0.009,-0.01 l 0.01,0.01 v -0.0196 c 0.0599,-0.0605 4.27697,-4.32652 4.89686,-5.07979 1.28332,-1.55947 0.67797,-3.41306 -0.23409,-3.81062 -0.26802,-0.11683 -0.79517,-0.26928 -1.39217,-0.25735 -1.421,0.0284 -3.09602,0.003 -3.25199,5.2e-4 v -5.2e-4 c 0,0 -0.0265,4.9e-4 -0.0284,5.2e-4 -0.002,-3e-5 -0.0284,-5.2e-4 -0.0284,-5.2e-4 v 5.2e-4 c -0.15597,0.002 -1.83099,0.0279 -3.252,-5.2e-4 -0.0373,-7.5e-4 -0.0744,-10e-4 -0.1111,-5.2e-4 z" />
      <circle
         style="fill:none;fill-opacity:1;stroke:#000000;stroke-width:0.3;stroke-dasharray:none"
         id="path2782"
         cx="320.31555"
         cy="-84.441879"
         r="0.56126595" />
      <circle
         style="fill:none;fill-opacity:1;stroke:#000000;stroke-width:0.3;stroke-dasharray:none"
         id="circle2784"
         cx="-328.06589"
         cy="-84.441879"
         r="0.56126595"
         inkscape:transform-center-x="-3.8751667"
         inkscape:transform-center-y="2.4473958"
         transform="scale(-1,1)" />
      <g
         id="g2419"
         transform="translate(217.84941,-189.86635)">
        <path
           id="path1863"
           style="fill:#ffff00;fill-opacity:1;stroke:#000000;stroke-width:0.3;stroke-dasharray:none"
           d="m 105.44421,110.524 c -4.24836,-0.0249 -5.0987,0.73009 -6.445602,1.93425 -1.727578,1.5445 -3.225956,14.3489 -4.505151,19.07636 -1.279195,4.72745 -3.919657,9.10073 -3.919657,9.10073 l 1.923913,2.67323 13.841537,-0.40928 h 0.002 l 13.84154,0.40928 1.92391,-2.67323 c 0,0 -2.64046,-4.37328 -3.91966,-9.10073 -1.2792,-4.72746 -2.77757,-17.53186 -4.50515,-19.07636 -1.3469,-1.20416 -2.19725,-1.95915 -6.4456,-1.93425 -0.28306,0.002 -0.58116,0.007 -0.89555,0.0155 -1.8e-4,0 -3.4e-4,-1e-5 -5.2e-4,0 -1.8e-4,-1e-5 -3.4e-4,0 -5.2e-4,0 -0.31439,-0.009 -0.61249,-0.0139 -0.89555,-0.0155 z" />
        <ellipse
           style="fill:#ffff00;fill-opacity:1;stroke:#000000;stroke-width:0.3;stroke-dasharray:none"
           id="path1590"
           cx="106.34132"
           cy="141.77536"
           rx="16.184618"
           ry="4.9583197" />
        <ellipse
           style="fill:none;fill-opacity:1;stroke:#000000;stroke-width:0.3;stroke-dasharray:none"
           id="ellipse1698"
           cx="106.34132"
           cy="141.77536"
           rx="13.628342"
           ry="3.0706077" />
        <path
           style="fill:#000000;fill-opacity:1;stroke:none;stroke-width:0.3;stroke-dasharray:none"
           d="m 93.116796,136.39271 0.01654,0.67799 3.480925,-1.38906 z"
           id="path2068"
           sodipodi:nodetypes="cccc" />
        <path
           style="fill:#000000;fill-opacity:1;stroke:none;stroke-width:0.3;stroke-dasharray:none"
           d="m 94.224739,133.92878 0.01654,0.67799 2.88458,-1.20197 z"
           id="path2178"
           sodipodi:nodetypes="cccc" />
        <path
           style="fill:#000000;fill-opacity:1;stroke:none;stroke-width:0.3;stroke-dasharray:none"
           d="m 94.99648,131.41478 0.01654,0.67799 2.88458,-1.20197 z"
           id="path2180"
           sodipodi:nodetypes="cccc" />
        <path
           style="fill:#000000;fill-opacity:1;stroke:none;stroke-width:0.3;stroke-dasharray:none"
           d="m 95.65129,128.74877 0.01654,0.67799 2.007602,-0.85118 z"
           id="path2182"
           sodipodi:nodetypes="cccc" />
        <path
           style="fill:#000000;fill-opacity:1;stroke:none;stroke-width:0.3;stroke-dasharray:none"
           d="m 96.165784,126.38874 0.01377,0.59417 1.671275,-0.74594 z"
           id="path2184"
           sodipodi:nodetypes="cccc" />
        <path
           style="fill:#000000;fill-opacity:1;stroke:none;stroke-width:0.3;stroke-dasharray:none"
           d="m 96.586734,124.33076 0.01377,0.59417 1.671275,-0.74594 z"
           id="path2186"
           sodipodi:nodetypes="cccc" />
        <path
           style="fill:#000000;fill-opacity:1;stroke:none;stroke-width:0.3;stroke-dasharray:none"
           d="m 96.890753,122.17924 0.01377,0.59417 1.671275,-0.74594 z"
           id="path2188"
           sodipodi:nodetypes="cccc" />
        <path
           style="fill:#000000;fill-opacity:1;stroke:none;stroke-width:0.3;stroke-dasharray:none"
           d="m 97.101229,120.14465 0.01176,0.59417 1.427728,-0.74594 z"
           id="path2190"
           sodipodi:nodetypes="cccc" />
        <path
           style="fill:#000000;fill-opacity:1;stroke:none;stroke-width:0.3;stroke-dasharray:none"
           d="m 97.674189,118.2153 0.0084,0.59417 1.021815,-0.74594 z"
           id="path2192"
           sodipodi:nodetypes="cccc" />
        <path
           style="fill:#000000;fill-opacity:1;stroke:none;stroke-width:0.3;stroke-dasharray:none"
           d="m 98.153604,116.57827 0.0084,0.59417 1.021815,-0.74594 z"
           id="path2194"
           sodipodi:nodetypes="cccc" />
        <path
           style="fill:#000000;fill-opacity:1;stroke:none;stroke-width:0.3;stroke-dasharray:none"
           d="m 98.387465,115.23357 0.0084,0.59417 1.021815,-0.74594 z"
           id="path2196"
           sodipodi:nodetypes="cccc" />
        <path
           style="fill:#000000;fill-opacity:1;stroke:none;stroke-width:0.3;stroke-dasharray:none"
           d="m 98.808415,113.94734 0.0084,0.59417 1.021815,-0.74594 z"
           id="path2198"
           sodipodi:nodetypes="cccc" />
        <path
           style="fill:#000000;fill-opacity:1;stroke:none;stroke-width:0.3;stroke-dasharray:none"
           d="m 116.55462,129.04904 -0.0406,-0.66988 -4.08257,-0.19301 z"
           id="path2200"
           sodipodi:nodetypes="cccc" />
        <path
           style="fill:#000000;fill-opacity:1;stroke:none;stroke-width:0.3;stroke-dasharray:none"
           d="m 117.22077,131.82112 -0.0406,-0.81823 -5.12325,-0.40715 z"
           id="path2297"
           sodipodi:nodetypes="cccc" />
        <path
           style="fill:#000000;fill-opacity:1;stroke:none;stroke-width:0.3;stroke-dasharray:none"
           d="m 118.08078,134.48329 -0.0314,-0.95197 -6.79232,-0.63389 z"
           id="path2299"
           sodipodi:nodetypes="cccc" />
        <path
           style="fill:#000000;fill-opacity:1;stroke:none;stroke-width:0.3;stroke-dasharray:none"
           d="m 119.03159,137.48924 -0.0314,-0.95197 c 0,0 -2.75423,-0.66744 -4.15361,-0.87795 -1.34403,-0.20219 -4.06085,-0.36779 -4.06085,-0.36779 0,0 2.70645,0.54561 4.03996,0.89925 1.41824,0.37611 4.2059,1.29846 4.2059,1.29846 z"
           id="path2301"
           sodipodi:nodetypes="ccscsc" />
        <path
           style="fill:#000000;fill-opacity:1;stroke:none;stroke-width:0.3;stroke-dasharray:none"
           d="m 116.13528,126.71694 -0.14357,-0.74709 -3.25669,0.0938 z"
           id="path2303"
           sodipodi:nodetypes="cccc" />
        <path
           style="fill:#000000;fill-opacity:1;stroke:none;stroke-width:0.3;stroke-dasharray:none"
           d="m 115.88723,124.68296 -0.1331,-0.74709 -3.01911,0.0938 z"
           id="path2305"
           sodipodi:nodetypes="cccc" />
        <path
           style="fill:#000000;fill-opacity:1;stroke:none;stroke-width:0.3;stroke-dasharray:none"
           d="m 115.52343,122.66552 -0.0919,-0.74709 -2.08466,0.0938 z"
           id="path2307"
           sodipodi:nodetypes="cccc" />
        <path
           style="fill:#000000;fill-opacity:1;stroke:none;stroke-width:0.3;stroke-dasharray:none"
           d="m 115.25885,120.94573 -0.0919,-0.74709 -2.08466,0.0938 z"
           id="path2309"
           sodipodi:nodetypes="cccc" />
        <path
           style="fill:#000000;fill-opacity:1;stroke:none;stroke-width:0.3;stroke-dasharray:none"
           d="m 115.04388,119.15979 -0.0919,-0.74709 -2.08466,0.0938 z"
           id="path2311"
           sodipodi:nodetypes="cccc" />
        <path
           style="fill:#000000;fill-opacity:1;stroke:none;stroke-width:0.3;stroke-dasharray:none"
           d="m 114.59739,117.52268 -0.0675,-0.74709 -1.53032,0.0938 z"
           id="path2313"
           sodipodi:nodetypes="cccc" />
        <path
           style="fill:#000000;fill-opacity:1;stroke:none;stroke-width:0.3;stroke-dasharray:none"
           d="m 114.1013,115.65406 -0.0577,-0.58173 -1.30859,0.073 z"
           id="path2315"
           sodipodi:nodetypes="cccc" />
        <path
           style="fill:#000000;fill-opacity:1;stroke:none;stroke-width:0.3;stroke-dasharray:none"
           d="m 113.75403,114.05002 -0.0577,-0.58173 -1.30859,0.073 z"
           id="path2317"
           sodipodi:nodetypes="cccc" />
        <path
           style="fill:#000000;fill-opacity:1;fill-rule:nonzero;stroke:none;stroke-width:0.3;stroke-dasharray:none"
           d="m 98.292707,135.58242 c 0.0011,0.004 0.0031,0.008 0.0065,0.0135 0.0027,0.004 0.0063,0.009 0.01076,0.0139 0.0074,0.008 0.01744,0.0169 0.03042,0.0254 0.02111,0.0138 0.04987,0.0267 0.08829,0.0359 0.0394,0.009 0.08849,0.0146 0.148694,0.0127 0.03519,-0.001 0.07621,-0.004 0.124731,-0.009 0.204933,-0.0217 0.469591,-0.0703 0.960198,-0.14818 0.868791,-0.13783 2.085611,-0.3035 3.714551,-0.38466 1.33376,-0.0663 2.56186,0.001 3.50944,0.0775 0.68018,0.0547 1.01255,0.0934 1.22724,0.0903 0.23882,-0.003 0.27819,-0.0803 0.28295,-0.10746 v 0 c 0.004,-0.0251 -0.007,-0.11667 -0.23945,-0.18937 -0.17858,-0.0557 -0.57535,-0.13031 -1.23359,-0.1981 -0.95054,-0.0979 -2.21832,-0.15625 -3.56439,-0.0893 -1.6381,0.0816 -2.8951,0.24088 -3.765298,0.40055 -0.473323,0.0868 -0.786436,0.16549 -0.961131,0.22199 -0.04668,0.0151 -0.08561,0.0292 -0.117901,0.0426 -0.05538,0.0229 -0.0971,0.0473 -0.127893,0.0706 -0.03011,0.0228 -0.04953,0.0443 -0.06265,0.0631 -0.0081,0.0116 -0.01371,0.022 -0.01809,0.031 -0.0026,0.005 -0.0049,0.0104 -0.0068,0.0146 -0.0025,0.005 -0.0045,0.01 -0.0066,0.0127 z"
           id="path2373"
           sodipodi:nodetypes="csc"
           inkscape:path-effect="#path-effect2375"
           inkscape:original-d="m 98.292707,135.58242 c 0.115755,0.0165 1.752863,-0.48357 5.076693,-0.64894 2.72514,-0.13558 5.02708,0.2686 5.02708,0.2686" />
        <path
           style="fill:#000000;fill-opacity:1;fill-rule:nonzero;stroke:none;stroke-width:0.3;stroke-dasharray:none"
           d="m 99.185676,133.68073 c 0.0011,0.004 0.0031,0.008 0.0065,0.0136 0.0027,0.004 0.0063,0.009 0.01083,0.0142 0.0075,0.008 0.01773,0.0174 0.03124,0.0264 0.02197,0.0146 0.05236,0.0288 0.09374,0.0396 0.04235,0.0111 0.09553,0.0184 0.16064,0.0191 0.03799,4.4e-4 0.08222,-8.6e-4 0.134019,-0.004 0.208594,-0.0125 0.506428,-0.0516 0.966838,-0.11124 0.82995,-0.10758 1.86703,-0.23647 3.00256,-0.28951 0.43725,-0.0204 0.91646,-0.0202 1.4185,-0.006 0.48523,0.0135 0.94635,0.0385 1.33725,0.0611 0.5969,0.0346 0.93703,0.0567 1.13275,0.0443 0.23154,-0.0147 0.2678,-0.0945 0.27099,-0.1216 0.003,-0.026 -0.0139,-0.11507 -0.24037,-0.17684 -0.17596,-0.048 -0.54787,-0.10218 -1.13474,-0.15109 -0.39284,-0.0327 -0.86294,-0.0609 -1.35414,-0.0748 -0.50948,-0.0144 -0.99955,-0.0123 -1.44763,0.009 -1.14106,0.0533 -2.22169,0.17596 -3.04256,0.3038 -0.45069,0.0702 -0.768263,0.13299 -0.961879,0.18356 -0.05005,0.0131 -0.09235,0.0255 -0.127919,0.0374 -0.06103,0.0205 -0.108438,0.043 -0.144275,0.0651 -0.03508,0.0216 -0.05865,0.0424 -0.07484,0.0608 -0.01,0.0113 -0.01703,0.0216 -0.0224,0.0305 -0.0032,0.005 -0.0058,0.0102 -0.0081,0.0145 -0.0028,0.005 -0.005,0.009 -0.007,0.0127 z"
           id="path2377"
           sodipodi:nodetypes="csc"
           inkscape:path-effect="#path-effect2381"
           inkscape:original-d="m 99.185676,133.68073 c 0.115755,0.0165 2.085024,-0.39222 4.398694,-0.50011 1.85111,-0.0863 4.16718,0.18592 4.16718,0.18592" />
        <path
           style="fill:#000000;fill-opacity:1;fill-rule:nonzero;stroke:none;stroke-width:0.3;stroke-dasharray:none"
           d="m 100.3244,132.01221 c 0.001,0.004 0.003,0.008 0.006,0.0137 0.003,0.004 0.006,0.009 0.01,0.0144 0.007,0.009 0.0163,0.018 0.0287,0.0275 0.0201,0.0154 0.0479,0.0308 0.0855,0.0433 0.0384,0.0128 0.0865,0.0224 0.14492,0.026 0.034,0.002 0.0735,0.003 0.11942,0.002 0.18222,-0.003 0.4474,-0.0289 0.82825,-0.0691 0.69231,-0.0731 1.49419,-0.16181 2.25719,-0.18574 0.71428,-0.0223 1.47438,0.0153 2.11359,0.0467 0.44724,0.022 0.70661,0.0328 0.85008,0.0146 0.17325,-0.022 0.20155,-0.10367 0.20443,-0.1305 0.003,-0.0262 -0.008,-0.11394 -0.1763,-0.16818 -0.13205,-0.0425 -0.40697,-0.0841 -0.8514,-0.12096 -0.63018,-0.0523 -1.43385,-0.0808 -2.15208,-0.0583 -0.76769,0.0241 -1.6159,0.10645 -2.2944,0.19943 -0.37468,0.0513 -0.65375,0.10006 -0.82191,0.14095 -0.0443,0.0108 -0.082,0.0212 -0.11387,0.0315 -0.0548,0.0177 -0.0979,0.038 -0.13088,0.0585 -0.0324,0.0201 -0.0545,0.0399 -0.0701,0.0577 -0.01,0.011 -0.0165,0.021 -0.0219,0.0298 -0.003,0.005 -0.006,0.0101 -0.008,0.0143 -0.003,0.005 -0.005,0.009 -0.007,0.0126 z"
           id="path2383"
           sodipodi:nodetypes="csc"
           inkscape:path-effect="#path-effect2387"
           inkscape:original-d="m 100.3244,132.01221 c 0.11576,0.0165 1.92185,-0.28784 3.47494,-0.33641 1.45475,-0.0455 3.17327,0.13915 3.17327,0.13915" />
      </g>
      <path
         id="path1977"
         style="fill:#ffff00;fill-opacity:1;stroke:#000000;stroke-width:0.3;stroke-dasharray:none"
         d="m 322.87297,-51.0108 c 0,0 0.24253,7.40562 0.29508,8.14995 0.11688,1.6558 0.60055,2.25953 1.02061,2.27066 0.42006,-0.0111 0.90373,-0.61486 1.02061,-2.27066 0.0525,-0.74433 0.29507,-8.14995 0.29507,-8.14995"
         sodipodi:nodetypes="cscsc" />
      <path
         id="path4811"
         style="fill:none;fill-opacity:1;stroke:#000000;stroke-width:2;stroke-dasharray:none"
         d="m 256.15646,-123.85254 v 91.5293 a 68.474449,68.474449 0 0 0 68.47438,68.47437 68.474449,68.474449 0 0 0 68.47437,-68.47386 68.474449,68.474449 0 0 0 0,-5.1e-4 v -91.5293 z" />
    </g>
  </g>
</svg>
