<?xml version="1.0" encoding="UTF-8" standalone="no"?>
<!-- Created with Inkscape (http://www.inkscape.org/) -->

<svg
   width="152.09889mm"
   height="162.8145mm"
   viewBox="0 0 152.09889 162.8145"
   version="1.1"
   id="svg3832"
   inkscape:version="1.2.2 (732a01da63, 2022-12-09)"
   sodipodi:docname="Wappen Jevenstedt2.svg"
   xmlns:inkscape="http://www.inkscape.org/namespaces/inkscape"
   xmlns:sodipodi="http://sodipodi.sourceforge.net/DTD/sodipodi-0.dtd"
   xmlns="http://www.w3.org/2000/svg"
   xmlns:svg="http://www.w3.org/2000/svg">
  <sodipodi:namedview
     id="namedview3834"
     pagecolor="#ffffff"
     bordercolor="#666666"
     borderopacity="1.0"
     inkscape:showpageshadow="2"
     inkscape:pageopacity="0.0"
     inkscape:pagecheckerboard="0"
     inkscape:deskcolor="#d1d1d1"
     inkscape:document-units="mm"
     showgrid="false"
     inkscape:zoom="0.86986186"
     inkscape:cx="287.40196"
     inkscape:cy="308.6697"
     inkscape:current-layer="layer1" />
  <defs
     id="defs3829" />
  <g
     inkscape:label="Ebene 1"
     inkscape:groupmode="layer"
     id="layer1"
     transform="translate(-572.06496,-70.868174)">
    <g
       id="g3669"
       transform="translate(542.21906,0.53327)">
      <path
         id="path2388"
         style="fill:#ffffff;stroke:none;stroke-width:2.6;stroke-linecap:round;stroke-dasharray:none"
         d="m 31.145903,71.634904 v 85.464546 a 74.749573,74.749573 0 0 0 74.749447,74.74996 74.749573,74.749573 0 0 0 74.74944,-74.74944 74.749573,74.749573 0 0 0 0,-5.2e-4 V 71.634904 Z" />
      <path
         id="path3529"
         style="fill:#ff0000;fill-opacity:1;stroke:#000000;stroke-width:0.7;stroke-dasharray:none"
         d="m 162.83502,154.72596 c -6.94188,7.8e-4 -11.91584,3.3323 -18.85776,3.33313 -6.9418,8.8e-4 -11.91947,-3.32982 -18.86138,-3.329 -6.94181,8.8e-4 -11.9159,3.33281 -18.85777,3.33365 -6.941894,7.9e-4 -11.918981,-3.32931 -18.860861,-3.32848 -6.941879,7.8e-4 -11.915881,3.33178 -18.857763,3.33261 -6.941863,7.9e-4 -11.920034,-3.32932 -18.861898,-3.32848 -6.818891,7.7e-4 -11.74242,3.20809 -18.493962,3.3228 a 74.749573,74.749573 0 0 0 74.711724,73.78722 74.749573,74.749573 0 0 0 74.71326,-73.82598 c -6.38587,-0.31659 -11.20059,-3.29827 -17.77359,-3.29747 z" />
      <path
         id="rect3470"
         style="fill:#ffffff;stroke:#000000;stroke-width:0.7;stroke-linecap:round;stroke-dasharray:none"
         d="m 95.966235,156.16463 v 27.69547 l -41.4538,27.45775 a 74.749573,74.749573 0 0 0 17.348812,12.32896 l 34.034103,-22.54281 34.03409,22.54281 a 74.749573,74.749573 0 0 0 17.3483,-12.32896 l -41.45225,-27.45672 v -27.50168 c -3.0251,0.84586 -6.04285,1.70386 -9.56738,1.70429 -3.80431,4.3e-4 -7.020976,-0.99527 -10.291875,-1.89911 z" />
      <path
         id="path3598"
         style="fill:none;stroke:#000000;stroke-width:2.6;stroke-linecap:round;stroke-dasharray:none"
         d="m 31.145903,71.634904 v 85.464546 a 74.749573,74.749573 0 0 0 74.749447,74.74996 74.749573,74.749573 0 0 0 74.74944,-74.74944 74.749573,74.749573 0 0 0 0,-5.2e-4 V 71.634904 Z" />
      <g
         id="g2315"
         transform="translate(-218.38462,-4.3116114)">
        <g
           id="g1396"
           transform="translate(-0.10661944,87.741804)">
          <path
             style="fill:#000000;stroke:#000000;stroke-width:0.1;stroke-linecap:round;stroke-dasharray:none"
             d="m 364.68826,61.081668 c 0,0 0.95496,0.696329 0.97244,1.514323 0.0174,0.817976 -0.13187,1.307332 -0.13187,1.307332 0,0 -0.28876,-0.756167 -0.66187,-1.239804 -0.37317,-0.483614 -0.86292,-0.841308 -0.86292,-0.841308 z"
             id="path1294" />
          <path
             style="fill:#000000;stroke:#000000;stroke-width:0.1;stroke-linecap:round;stroke-dasharray:none"
             d="m 360.16251,61.850021 c 0,0 -0.25774,1.153432 0.26907,1.779443 0.52682,0.625979 0.962,0.895022 0.962,0.895022 0,0 -0.28221,-0.758637 -0.32117,-1.368223 -0.0389,-0.609608 0.0929,-1.201584 0.0929,-1.201584 z"
             id="path1223" />
          <path
             style="fill:#000000;stroke:#000000;stroke-width:0.1;stroke-linecap:round;stroke-dasharray:none"
             d="m 356.11442,62.096894 c 0,0 -1.13379,0.333699 -1.42596,1.097934 -0.29214,0.764221 -0.3165,1.275279 -0.3165,1.275279 0,0 0.52674,-0.614588 1.04103,-0.944161 0.51432,-0.329565 1.09601,-0.501198 1.09601,-0.501198 z"
             id="path1221" />
          <path
             style="fill:#000000;stroke:#000000;stroke-width:0.1;stroke-linecap:round;stroke-dasharray:none"
             d="m 354.95557,60.053648 c 0,0 -1.14906,-0.276595 -1.78361,0.239894 -0.63453,0.516485 -0.91066,0.947211 -0.91066,0.947211 0,0 0.76316,-0.269747 1.3733,-0.298718 0.61016,-0.02895 1.1999,0.112586 1.1999,0.112586 z"
             id="path1219" />
          <path
             style="fill:#000000;stroke:#000000;stroke-width:0.1;stroke-linecap:round;stroke-dasharray:none"
             d="m 294.72803,59.747021 c 0,0 -0.94654,-0.707739 -1.73342,-0.483738 -0.78691,0.224042 -1.21065,0.510771 -1.21065,0.510771 0,0 0.80768,0.05343 1.3797,0.26769 0.57203,0.214264 1.058,0.577124 1.058,0.577124 z"
             id="path1168" />
          <path
             style="fill:#000000;stroke:#000000;stroke-width:0.1;stroke-linecap:round;stroke-dasharray:none"
             d="m 344.75785,60.353602 c 0,0 0.92168,0.739841 0.90122,1.557765 -0.0205,0.817898 -0.19229,1.299821 -0.19229,1.299821 0,0 -0.25341,-0.768739 -0.60369,-1.269147 -0.35032,-0.50041 -0.82303,-0.880383 -0.82303,-0.880383 z"
             id="path1118" />
          <path
             style="fill:#000000;stroke:#000000;stroke-width:0.1;stroke-linecap:round;stroke-dasharray:none"
             d="m 340.52386,61.737102 c 0,0 -0.15026,1.172295 0.43205,1.747041 0.5823,0.57472 1.04043,0.802505 1.04043,0.802505 0,0 -0.35098,-0.729376 -0.446,-1.332767 -0.095,-0.603414 -0.0183,-1.205036 -0.0183,-1.205036 z"
             id="path1116" />
          <path
             style="fill:#000000;stroke:#000000;stroke-width:0.1;stroke-linecap:round;stroke-dasharray:none"
             d="m 335.00247,59.762067 c 0,0 -1.14906,-0.276595 -1.78361,0.239894 -0.63453,0.516485 -0.91066,0.947211 -0.91066,0.947211 0,0 0.76316,-0.269747 1.3733,-0.298718 0.61016,-0.02895 1.1999,0.112586 1.1999,0.112586 z"
             id="path923" />
          <path
             style="fill:#000000;stroke:#000000;stroke-width:0.1;stroke-linecap:round;stroke-dasharray:none"
             d="m 286.02509,61.667956 c 0,0 0.83522,0.836201 0.72543,1.646973 -0.10979,0.810764 -0.33331,1.270994 -0.33331,1.270994 0,0 -0.16779,-0.791848 -0.46128,-1.327562 -0.29349,-0.535719 -0.7218,-0.965109 -0.7218,-0.965109 z"
             id="path878" />
          <path
             style="fill:#000000;stroke:#000000;stroke-width:0.1;stroke-linecap:round;stroke-dasharray:none"
             d="m 278.83077,62.019201 c 0,0 -1.13067,0.344112 -1.41579,1.110996 -0.28511,0.766881 -0.30477,1.278138 -0.30477,1.278138 0,0 0.52107,-0.619405 1.03232,-0.953688 0.51126,-0.334282 1.09135,-0.511254 1.09135,-0.511254 z"
             id="path1620" />
          <path
             style="fill:#000000;stroke:#000000;stroke-width:0.1;stroke-linecap:round;stroke-dasharray:none"
             d="m 281.88437,61.990064 c 0,0 -0.57835,1.0307 -0.25367,1.781692 0.32468,0.750983 0.66419,1.133744 0.66419,1.133744 0,0 -0.0523,-0.80774 0.0856,-1.40281 0.1379,-0.595076 0.43432,-1.124184 0.43432,-1.124184 z"
             id="path876" />
          <path
             style="fill:#000000;stroke:#000000;stroke-width:0.1;stroke-linecap:round;stroke-dasharray:none"
             d="m 278.41335,60.006584 c 0,0 -0.91131,-0.752553 -1.7081,-0.566714 -0.79679,0.185842 -1.23386,0.451807 -1.23386,0.451807 0,0 0.80416,0.09231 1.36519,0.333902 0.56103,0.241597 1.02893,0.627463 1.02893,0.627463 z"
             id="path880" />
          <path
             style="fill:#000000;stroke:#000000;stroke-width:0.1;stroke-linecap:round;stroke-dasharray:none"
             d="m 294.15906,61.847244 c 0,0 -0.84322,0.828133 -0.74122,1.639925 0.10199,0.811782 0.32108,1.274139 0.32108,1.274139 0,0 0.17542,-0.790194 0.47402,-1.323071 0.29862,-0.532872 0.73103,-0.958128 0.73103,-0.958128 z"
             id="path925" />
          <path
             style="fill:#000000;stroke:#000000;stroke-width:0.1;stroke-linecap:round;stroke-dasharray:none"
             d="m 298.69187,62.208756 c 0,0 -0.84322,0.828133 -0.74122,1.639925 0.10199,0.811782 0.32108,1.274139 0.32108,1.274139 0,0 0.17542,-0.790194 0.47402,-1.323071 0.29862,-0.532872 0.73103,-0.958128 0.73103,-0.958128 z"
             id="path927" />
          <path
             style="fill:#000000;stroke:#000000;stroke-width:0.1;stroke-linecap:round;stroke-dasharray:none"
             d="m 302.56176,61.819435 c 0,0 0.84322,0.828133 0.74122,1.639925 -0.10199,0.811782 -0.32108,1.274139 -0.32108,1.274139 0,0 -0.17542,-0.790194 -0.47402,-1.323071 -0.29862,-0.532872 -0.73103,-0.958128 -0.73103,-0.958128 z"
             id="path929" />
          <path
             style="fill:#000000;stroke:#000000;stroke-width:0.1;stroke-linecap:round;stroke-dasharray:none"
             d="m 336.55766,61.522672 c 0,0 -0.98523,0.652821 -1.03935,1.469207 -0.0541,0.816368 0.0731,1.311931 0.0731,1.311931 0,0 0.32237,-0.742464 0.71678,-1.208887 0.39444,-0.466423 0.89979,-0.801763 0.89979,-0.801763 z"
             id="path1114" />
          <g
             id="g1575"
             transform="translate(-0.62923729,-87.778602)">
            <path
               style="fill:#ff0000;stroke:#000000;stroke-width:0.499999;stroke-linecap:round;stroke-dasharray:none"
               d="m 341.2396,146.60705 c 0,0 -6.84093,-0.27808 -6.84093,0.41711 0,0.69522 0.5541,0.71179 0.50056,1.14016 -0.0834,0.66741 -0.83425,0.75083 -0.86205,1.16796 -0.0278,0.41713 2.39153,0.27808 2.39153,0.27808 z"
               id="path1414"
               sodipodi:nodetypes="cssscc" />
            <path
               style="fill:#ff0000;stroke:#000000;stroke-width:0.499999;stroke-linecap:round;stroke-dasharray:none"
               d="m 353.78128,138.95968 c 0,0 0.41714,4.69966 0.30591,4.8387 -0.11123,0.13905 -1.64071,-1.36262 -1.94662,-1.27919 -0.30589,0.0834 0.0278,0.94549 -0.0556,1.83537 -0.0623,0.66506 -0.50054,1.66851 -0.50054,1.66851 l -1.58509,-1.50166 c 0,0 -1.08455,0.77864 -1.77977,1.08453 -0.69519,0.3059 -1.94659,0.55618 -1.91879,1.08454 0.0278,0.52836 1.39044,2.30812 0.6118,2.5862 -0.77864,0.27809 -0.47276,-0.36151 -1.2514,-0.22247 -0.77864,0.13905 -0.0278,1.08454 -0.69521,1.19578 -0.66741,0.11123 -1.72414,-1.25139 -1.72414,-1.25139 0,0 0.22249,2.03003 -0.33369,2.14126 -0.55618,0.11124 -0.47276,-0.9733 -1.08453,-1.02892 -0.61179,-0.0556 -0.47276,1.14016 -1.08455,1.16796 -0.6118,0.0278 -0.72303,-2.44715 -0.72303,-2.44715 0,0 -1.89098,3.08675 -2.47496,2.614 -0.58397,-0.47274 -0.22247,-1.08453 -0.72303,-1.36262 -0.50054,-0.27808 -1.16795,0.91769 -1.69632,0.3337 -0.52835,-0.58398 -0.25027,-1.69632 1.2792,-2.08564 1.52948,-0.38932 2.19689,-0.58398 3.94883,-1.83537 1.75194,-1.25139 3.92102,-4.56061 3.92102,-4.56061 0,0 -1.97443,0.16685 -3.8376,-0.55618 -1.86317,-0.72302 -4.00444,-3.05894 -4.00444,-3.05894 l 12.12456,-2.30812 z"
               id="path1412"
               sodipodi:nodetypes="csssccssssscssscssssscsccc" />
            <path
               style="fill:#ff0000;stroke:#000000;stroke-width:0.499999;stroke-linecap:round;stroke-dasharray:none"
               d="m 283.31424,147.7194 c 0,0 -5.36708,-1.55728 -5.4505,-0.91769 -0.0834,0.6396 0.27808,0.72303 0.25028,1.14016 -0.0278,0.41713 -1.16795,0.22247 -1.19576,0.69521 -0.0278,0.47275 1.16795,1.36263 1.27921,1.36263 0.11123,0 3.53168,-0.86207 3.53168,-0.86207 z"
               id="path1410"
               sodipodi:nodetypes="csssscc" />
            <path
               style="fill:#ff0000;stroke:#000000;stroke-width:0.499999;stroke-linecap:round;stroke-dasharray:none"
               d="m 297.21855,135.09429 c 0,0 2.80966,4.67504 2.53436,5.54024 -0.2753,0.8652 -1.10117,2.0057 -1.10117,2.0057 0,0 -1.02251,-1.61242 -1.4551,-1.41579 -0.4326,0.19664 -0.0787,1.61242 -0.58992,2.39897 -0.51125,0.78655 -1.37646,1.69108 -1.37646,1.69108 0,0 0.118,-1.33713 -0.23596,-1.61243 -0.35393,-0.27529 -2.83157,2.20234 -4.01137,3.02821 -1.17983,0.82587 -2.7136,1.80906 -2.7136,1.80906 0,0 0.1895,2.12778 -0.25543,2.29463 -0.44495,0.16686 -0.72302,-0.36151 -1.36263,-0.30589 -0.6396,0.0556 -0.61179,1.19577 -0.97329,1.19577 -0.36153,0 -1.2236,-1.25139 -1.2236,-1.25139 0,0 -0.11123,1.44605 -0.75083,1.2792 -0.63958,-0.16685 -0.66738,-0.88988 -1.11233,-1.02892 -0.44495,-0.13904 -0.47276,1.22358 -1.02892,1.00111 -0.55618,-0.22247 -0.0278,-1.89099 -0.0278,-1.89099 0,0 -1.94662,2.19688 -2.33593,1.83537 -0.38934,-0.36151 0.13904,-0.69521 -0.33372,-1.14015 -0.47273,-0.44494 -1.3626,0.66741 -1.52948,-0.0278 -0.16684,-0.69521 1.14017,-1.69633 1.6129,-1.69633 0.47276,0 2.2247,-0.0278 2.2247,-0.0278 0,0 0.9733,-0.41713 3.2258,-2.30812 2.2525,-1.89098 5.812,-5.78419 5.812,-5.78419 l -1.80756,-2.83648 z"
               id="path1408" />
            <path
               style="fill:#ff0000;stroke:#000000;stroke-width:0.499999;stroke-linecap:round;stroke-dasharray:none"
               d="m 300.2775,103.67054 -3.08676,2.08565 c 0,0 1.69632,1.72413 3.39264,5.97885 1.01936,2.55678 2.05785,7.28586 2.05785,7.28586 l 4.1991,-1.16796 -3.92102,-12.18018 z"
               id="path1377"
               sodipodi:nodetypes="ccscccc" />
            <path
               style="fill:#ff0000;stroke:#000000;stroke-width:0.5;stroke-linecap:round;stroke-dasharray:none"
               d="m 264.8499,96.076668 c 0,0 -0.007,-0.996029 1.17983,-3.067531 0.86131,-1.503519 2.41863,-2.45796 2.41863,-2.45796 0,0 -0.60399,1.750339 -0.64891,2.615268 -0.0786,1.514101 0.43262,2.969215 0.43262,2.969215 l -0.3343,2.910221 -2.35964,-1.061837 z"
               id="path1284"
               sodipodi:nodetypes="cscscccc" />
            <path
               style="fill:#ff0000;stroke:#000000;stroke-width:0.4;stroke-linecap:round;stroke-dasharray:none"
               d="m 273.55342,99.596579 1.31276,1.053771 0.31403,-2.096594 z"
               id="path1306"
               sodipodi:nodetypes="cccc" />
            <path
               style="fill:#ff0000;stroke:#000000;stroke-width:0.4;stroke-linecap:round;stroke-dasharray:none"
               d="m 275.34706,98.164434 1.6455,1.632976 0.57919,-2.495041 z"
               id="path1308"
               sodipodi:nodetypes="cccc" />
            <path
               style="fill:#ff0000;stroke:#000000;stroke-width:0.4;stroke-linecap:round;stroke-dasharray:none"
               d="m 277.3771,97.385795 1.67526,1.867948 0.84143,-2.396313 z"
               id="path1310"
               sodipodi:nodetypes="cccc" />
            <path
               style="fill:#ff0000;stroke:#000000;stroke-width:0.4;stroke-linecap:round;stroke-dasharray:none"
               d="m 280.17187,96.871334 1.1181,1.897154 0.98144,-2.175239 z"
               id="path1312"
               sodipodi:nodetypes="cccc" />
            <path
               style="fill:#ff0000;stroke:#000000;stroke-width:0.4;stroke-linecap:round;stroke-dasharray:none"
               d="m 275.60592,103.91264 0.2753,-2.24166 1.49445,1.60259 z"
               id="path1314" />
            <path
               style="fill:#ff0000;stroke:#000000;stroke-width:0.4;stroke-linecap:round;stroke-dasharray:none"
               d="m 277.73945,103.14576 0.21627,-2.21217 1.47477,1.17982 z"
               id="path1316"
               sodipodi:nodetypes="cccc" />
            <path
               style="fill:#ff0000;stroke:#000000;stroke-width:0.4;stroke-linecap:round;stroke-dasharray:none"
               d="m 279.9811,101.83812 -0.0885,-1.80906 1.54358,1.18966 z"
               id="path1318"
               sodipodi:nodetypes="cccc" />
            <path
               style="fill:#ff0000;stroke:#000000;stroke-width:0.5;stroke-linecap:round;stroke-dasharray:none"
               d="m 264.90493,99.332398 -6.22913,3.893202 4.28253,4.89432 -4.94994,4.72747 5.28364,4.44938 -3.28142,5.89542 6.84091,5.11679 z"
               id="path1347" />
            <path
               style="fill:#ff0000;stroke:#000000;stroke-width:0.5;stroke-linecap:round;stroke-dasharray:none"
               d="m 271.52338,106.39579 c 0,0 0.61178,9.34369 4.505,12.51388 3.08746,2.51407 6.89654,5.11679 12.23579,4.17129 4.373,-0.77439 15.90654,-6.50722 15.90654,-6.50722 0,0 -0.36708,-4.29421 -1.82219,-7.40107 -1.45511,-3.10686 -4.09004,-6.44968 -4.09004,-6.44968 0,0 3.96563,-2.945654 8.58186,-2.945654 4.61623,0 11.73524,2.725244 16.74079,2.335924 5.00555,-0.38932 14.03756,-1.20762 21.19017,-1.89099 8.7319,-0.834254 13.12567,0.0556 13.12567,0.0556 0,0 -3.72636,-0.278085 -5.33926,1.83537 -1.6129,2.11346 -6.61845,14.1824 -6.61845,14.1824 0,0 5.72573,0.19191 8.63595,1.45039 2.91023,1.25847 15.49497,6.84295 18.5625,3.93273 3.06753,-2.91022 0.15731,-9.12394 -1.10116,-11.40493 -1.25848,-2.28098 -4.1687,-7.78681 0.62923,-13.371287 3.98685,-4.640442 7.06177,-4.568375 9.67578,-6.236892 2.61401,-1.668517 7.09038,-5.738119 7.09038,-5.738119 0,0 -0.27808,6.840921 -2.83647,9.176845 -2.5584,2.335925 -8.39821,7.230243 -6.17352,11.401533 2.22469,4.1713 10.6213,14.00439 6.55898,23.80235 -4.24942,10.24925 -20.37155,8.73067 -20.37155,8.73067 0,0 0.62923,1.21915 1.45511,1.61242 0.82587,0.39327 1.7546,0.67211 2.63493,1.80906 0.32748,0.42294 0.62924,1.92704 0.62924,1.92704 l -2.47763,-1.06184 c 0,0 0.9636,1.49898 0.82588,3.18551 -0.0972,1.1905 -0.8652,1.61242 -0.8652,1.61242 0,0 -0.47193,-1.02251 -0.66857,-1.45511 -0.19663,-0.4326 -0.66856,-1.10116 -0.66856,-1.10116 l -2.4383,3.38215 c 0,0 1.2867,-0.36906 1.81506,0.71547 0.49458,1.01519 0.44494,1.22358 -0.0834,1.50167 -0.52837,0.27809 -0.77864,-0.69522 -1.36262,-0.61179 -0.58399,0.0834 0.11123,1.33481 -0.44494,1.33481 -0.55618,0 -1.75195,-1.86317 -1.75195,-1.86317 0,0 0.0834,2.22469 -0.55617,2.22469 -0.6396,0 -0.69521,-0.9455 -1.19577,-0.91769 -0.50055,0.0278 -0.46431,0.64779 -1.08454,0.80645 -1.19576,0.30589 -1.02892,-1.47386 -1.02892,-1.47386 0,0 -2.47496,2.50278 -2.94771,1.89099 -0.47274,-0.61179 0.11124,-0.58398 -0.13904,-1.02892 -0.25028,-0.44494 -1.22358,0.3059 -1.44605,-0.16685 -0.22247,-0.47275 0.33371,-0.88988 0.75084,-1.02892 0.23889,-0.0796 1.2792,-0.50055 1.2792,-0.50055 0,0 -2.47498,0.94549 -2.47498,0.38932 0,-0.55618 0.50056,-0.41713 0.52837,-0.88988 0.0278,-0.47275 -0.80645,-0.27809 -0.41713,-0.77864 0.38932,-0.50056 1.22358,-0.47275 1.91879,-0.47275 0.69522,0 1.80756,0.41713 2.30812,0.41713 0.50055,0 1.52947,-1.80756 1.91879,-3.03114 0.38932,-1.22358 0.3059,-3.5595 0.3059,-3.5595 0,0 -6.66754,0.20017 -9.42045,-0.66503 -2.75291,-0.8652 -5.74179,-2.51695 -5.74179,-2.51695 0,0 -11.39502,3.43226 -16.90112,3.43226 -5.50611,0 -14.01555,-1.2792 -14.01555,-1.2792 l -0.30589,3.72635 c 0,0 -1.50167,-1.33481 -2.14127,-1.16796 -0.6396,0.16685 0.0184,1.06096 -0.13904,2.14127 -0.15397,1.05645 -0.91769,1.89098 -0.91769,1.89098 l -1.25138,-1.64071 -5.64515,4.08787 c 0,0 0.72302,1.47386 -0.0556,1.77975 -0.77864,0.3059 -1.2792,-0.50055 -1.55728,-0.38932 -0.27809,0.11124 0.63959,1.02892 -0.25028,1.22358 -0.88988,0.19466 -1.44605,-1.58509 -1.44605,-1.58509 0,0 -0.80645,1.69633 -1.36262,1.66852 -0.55618,-0.0278 -0.38932,-0.80645 -0.91769,-0.83426 -0.52836,-0.0278 -0.19466,0.9733 -1.08453,0.80645 -0.88988,-0.16685 -0.13905,-1.80756 -0.13905,-1.80756 0,0 -2.11345,2.39154 -2.41935,1.89099 -0.30589,-0.50056 0.25028,-0.69522 0,-1.08454 -0.25027,-0.38932 -1.19577,0.55617 -1.44605,-0.11124 -0.25027,-0.6674 0.72303,-1.44604 1.05673,-1.55728 0.33371,-0.11123 2.14127,-0.38932 2.14127,-0.38932 0,0 -3.58732,0.52836 -3.5317,-0.0556 0.0556,-0.58398 0.61179,-0.41713 0.86207,-0.75083 0.25028,-0.3337 0.25028,-0.61179 0.52836,-0.91768 0.27809,-0.3059 2.66963,1.16796 3.28142,0.94549 0.61179,-0.22247 1.307,-0.16685 2.41935,-1.19577 1.11234,-1.02892 4.78308,-4.58842 4.78308,-4.58842 l -5.31144,-4.25472 c 0,0 -16.25934,4.5624 -26.69628,-2.33593 -9.68825,-6.40348 -10.45604,-14.01555 -10.45604,-24.13788 0,-7.82526 1.77975,-11.234685 1.77975,-11.234685 0,0 -1.62128,-2.474791 -1.66854,-4.671868 -0.0556,-2.586202 1.9188,-4.783083 1.9188,-4.783083 0,0 -0.0527,2.829655 0.3337,4.532805 0.34143,1.50507 0.91768,2.169073 0.91768,2.169073 0,0 2.08565,-3.448269 5.56173,-3.726356 2.6728,-0.213824 3.72635,2.141264 3.72635,2.141264 0,0 0.55618,-1.334814 1.41824,-1.418239 0.86207,-0.08343 1.44605,0.917684 1.44605,0.917684 0,0 1.41824,-1.334814 1.94661,-1.279197 0.52836,0.05562 1.11234,1.056728 1.11234,1.056728 0,0 1.33481,-1.696326 1.75194,-0.08343 0.41713,1.6129 -1.27919,2.363733 -1.27919,2.363733 0,0 -3.8376,0.139043 -6.31256,1.279197 -1.83268,0.844271 -3.33703,2.169074 -2.72525,3.893214 0.61179,1.72413 2.39155,1.58509 4.00445,0.86206 1.6129,-0.72302 4.00444,-1.83536 4.00444,-1.83536 0,0 1.00703,-0.65782 1.41824,0.25027 0.66741,1.47386 -5.45049,3.75417 -7.81423,4.67185 -1.53037,0.59413 -2.86429,0.12512 -2.86429,0.12512 z"
               id="path973"
               sodipodi:nodetypes="csscscssscscssssscssscssccscsccsssscssscsssscsssssscscsccsscccssscssscsssscsssssccsscscscscscscscssscsscc" />
            <path
               style="fill:none;stroke:#000000;stroke-width:0.5;stroke-linecap:round;stroke-dasharray:none"
               d="m 269.49813,97.104744 c 0,0 -0.18553,-1.178904 0.25942,-1.23452 0.44492,-0.05562 3.16681,-0.03019 3.16681,-0.03019 0,0 0.3319,1.297846 -0.60269,1.380309 -1.41822,0.125137 -1.13199,-1.252785 -1.13199,-1.252785"
               id="path1174"
               sodipodi:nodetypes="cscsc" />
            <path
               style="fill:none;stroke:#000000;stroke-width:0.5;stroke-linecap:round;stroke-dasharray:none"
               d="m 268.68432,104.53204 c 0,0 0.56606,0.90651 1.7304,1.51411 0.75686,0.39496 1.45214,0.49958 1.45214,0.49958"
               id="path1176"
               sodipodi:nodetypes="csc" />
            <path
               style="fill:none;stroke:#000000;stroke-width:0.499999;stroke-linecap:round;stroke-dasharray:none"
               d="m 297.88487,131.05833 c 0,0 -0.39845,1.94855 0.27528,3.81475 0.62299,1.72567 1.98604,2.96921 1.98604,2.96921"
               id="path1178"
               sodipodi:nodetypes="csc" />
            <path
               style="fill:none;stroke:#000000;stroke-width:0.499999;stroke-linecap:round;stroke-dasharray:none"
               d="m 311.08115,136.22053 c 0,0 0.73104,1.46806 1.75193,2.32202 1.57919,1.32098 2.22471,1.37653 2.22471,1.37653"
               id="path1180"
               sodipodi:nodetypes="csc" />
            <path
               style="fill:none;stroke:#000000;stroke-width:0.499999;stroke-linecap:round;stroke-dasharray:none"
               d="m 343.40868,131.64602 c 0,0 -0.10066,1.71274 0.55616,3.42046 0.9733,2.53058 2.18299,2.86428 2.18299,2.86428"
               id="path1182"
               sodipodi:nodetypes="csc" />
            <path
               style="fill:none;stroke:#000000;stroke-width:0.499999;stroke-linecap:round;stroke-dasharray:none"
               d="m 365.01662,133.94889 c 0,0 0.0786,1.7304 0.62923,2.85123 0.55058,1.12083 1.17983,1.63208 1.17983,1.63208"
               id="path1184" />
            <path
               style="fill:none;stroke:#000000;stroke-width:0.499999;stroke-linecap:round;stroke-dasharray:none"
               d="m 305.06058,108.78733 c 0,0 3.17019,4.505 5.61735,10.40042 2.44715,5.89543 4.61623,11.62401 4.61623,11.62401"
               id="path1199" />
            <path
               style="fill:none;stroke:#000000;stroke-width:0.499999;stroke-linecap:round;stroke-dasharray:none"
               d="m 305.95046,106.67387 c 0,0 8.0645,5.39488 14.62733,10.9566 6.56283,5.56172 12.45827,11.90209 12.45827,11.90209"
               id="path1201" />
            <path
               style="fill:none;stroke:#000000;stroke-width:0.499999;stroke-linecap:round;stroke-dasharray:none"
               d="m 305.83923,104.28233 c 0,0 11.6796,3.00333 19.85536,6.17352 8.17573,3.17018 18.18682,7.56394 18.18682,7.56394"
               id="path1203" />
            <path
               style="fill:none;stroke:#000000;stroke-width:0.499999;stroke-linecap:round;stroke-dasharray:none"
               d="m 304.17725,116.46789 c 0,0 0.0385,0.51328 0.0983,1.39612 0.0786,1.16015 0.0393,1.59275 0.0393,1.59275"
               id="path1205"
               sodipodi:nodetypes="csc" />
            <path
               style="fill:none;stroke:#000000;stroke-width:0.499999;stroke-linecap:round;stroke-dasharray:none"
               d="m 266.04939,97.138505 c 0,0 0.21629,0.42277 0.38343,0.619406 0.16714,0.196636 0.31462,0.383441 0.31462,0.383441"
               id="path1207"
               sodipodi:nodetypes="csc" />
            <path
               style="fill:none;stroke:#000000;stroke-width:0.7;stroke-linecap:round;stroke-dasharray:none"
               d="m 309.38811,127.02728 c 0,0 2.83157,1.65174 3.8934,2.98887 1.06185,1.33713 1.96638,4.24735 1.96638,4.24735 0,0 1.92704,-3.50013 9.47788,-3.30349 7.55083,0.19663 10.34309,2.04502 10.34309,2.04502 0,0 -0.82587,-3.42148 1.33712,-6.21372 2.163,-2.79224 5.85978,-6.3317 7.51152,-6.80363 1.65174,-0.47192 3.93274,0.55059 3.93274,0.55059 l -1.92705,-3.95732"
               id="path1209"
               sodipodi:nodetypes="cscscsscc" />
            <path
               style="fill:#ff0000;stroke:#000000;stroke-width:0.499999;stroke-linecap:round;stroke-dasharray:none"
               d="m 285.42771,93.881907 c 0,0 0.80645,-3.670739 3.72634,-5.088977 2.91991,-1.418241 3.49676,-1.618699 4.22691,-1.974413 1.08454,-0.528363 1.80755,-0.917683 1.80755,-0.917683 0,0 -1.86318,3.420458 -3.94881,4.922125 -2.08565,1.501666 -5.81199,3.058948 -5.81199,3.058948 z"
               id="path1503"
               sodipodi:nodetypes="csscsc" />
            <path
               style="fill:#ff0000;stroke:#000000;stroke-width:0.499999;stroke-linecap:round;stroke-dasharray:none"
               d="m 298.77583,85.483704 c 0,0 -2.44716,4.671849 -6.53502,7.313668 -4.08787,2.641817 -7.48051,3.726355 -7.09121,4.727464 0.38934,1.001112 0.9498,0.575172 3.28142,-0.472747 4.94993,-2.224689 7.29404,-1.79607 11.95771,-4.199101 3.25197,-1.675632 2.69744,-6.368175 2.69744,-6.368175 0,0 -0.9455,1.6129 -2.44717,2.919905 -1.50164,1.307007 -3.67072,1.807562 -3.67072,1.807562 0,0 1.50167,-1.362623 1.77974,-2.669627 0.27808,-1.307008 0.0278,-3.058949 0.0278,-3.058949 z"
               id="path1505"
               sodipodi:nodetypes="csssscscscc" />
            <path
               style="fill:#ff0000;stroke:#000000;stroke-width:0.499999;stroke-linecap:round;stroke-dasharray:none"
               d="m 286.1229,101.16777 c 0,0 1.80758,-2.864292 5.1168,-3.587316 3.30923,-0.723024 3.44827,-0.472747 5.47831,-1.112345 2.03001,-0.639599 4.17129,-2.057837 4.17129,-2.057837 0,0 -1.89581,3.954786 -5.20023,5.116785 -2.53058,0.889873 -3.22578,-0.194661 -5.92323,0.166852 -1.33043,0.178305 -3.64294,1.473861 -3.64294,1.473861 z"
               id="path1507"
               sodipodi:nodetypes="csscssc" />
          </g>
        </g>
        <g
           id="g2179"
           transform="translate(-0.22246872,0.22246894)">
          <path
             id="path1850"
             style="fill:#ffff00;stroke:#000000;stroke-width:0.499999;stroke-linecap:round;stroke-dasharray:none"
             d="m 321.46772,96.718127 0.1111,45.439603 c 0,0 -0.0554,4.17136 0.66766,7.00784 0.72303,2.83648 2.55798,6.00635 2.55798,6.00635 0,0 1.83547,-3.16987 2.5585,-6.00635 0.72301,-2.83648 0.66766,-7.00784 0.66766,-7.00784 l 0.11111,-45.439603 h -3.33727 z" />
          <path
             id="path1790"
             style="fill:#ffff00;stroke:#000000;stroke-width:0.499999;stroke-linecap:round;stroke-dasharray:none"
             d="m 324.80446,80.627637 a 3.1547117,3.1547117 0 0 0 -3.15433,3.154846 3.1547117,3.1547117 0 0 0 1.00821,2.312003 c -0.29506,1.061468 -0.6071,2.652293 -0.56792,4.554761 0.0725,3.51998 1.44487,5.66322 1.44487,5.66322 h 1.26917 1.26969 c 0,0 1.37237,-2.14324 1.44488,-5.66322 0.0392,-1.902468 -0.27287,-3.493293 -0.56793,-4.554761 a 3.1547117,3.1547117 0 0 0 1.00821,-2.312003 3.1547117,3.1547117 0 0 0 -3.15485,-3.154846 z" />
          <path
             style="fill:#ffff00;stroke:#000000;stroke-width:0.499999;stroke-linecap:round;stroke-dasharray:none"
             d="m 315.96155,94.322073 c 0,0 5.86606,1.172727 8.84314,1.172727 2.97709,0 8.84315,-1.172725 8.84315,-1.172725 v 4.792611 c 0,0 -5.86606,-1.172725 -8.84315,-1.172725 -2.97708,0 -8.84314,1.172727 -8.84314,1.172727 z"
             id="path1615"
             sodipodi:nodetypes="czcczcc" />
          <circle
             style="fill:#000000;stroke:#000000;stroke-width:0.499999;stroke-linecap:round;stroke-dasharray:none"
             id="path2032"
             cx="324.80472"
             cy="83.876953"
             r="0.5631246" />
          <circle
             style="fill:#000000;stroke:#000000;stroke-width:0.499999;stroke-linecap:round;stroke-dasharray:none"
             id="path2086"
             cx="318.44946"
             cy="96.718384"
             r="0.25203308" />
          <circle
             style="fill:#000000;stroke:#000000;stroke-width:0.499999;stroke-linecap:round;stroke-dasharray:none"
             id="circle2088"
             cx="-331.15994"
             cy="96.718384"
             r="0.25203308"
             inkscape:transform-center-x="-6.3552434"
             inkscape:transform-center-y="2.9298861"
             transform="scale(-1,1)" />
          <path
             style="fill:#00ff00;stroke:#000000;stroke-width:0.499999;stroke-linecap:round;stroke-dasharray:none"
             d="M 324.80469,99.419612 V 151.25291"
             id="path2144" />
          <path
             style="fill:#00ff00;stroke:#000000;stroke-width:0.3;stroke-linecap:round;stroke-dasharray:none"
             d="m 325.31033,88.053891 2.04971,1e-6"
             id="path2148"
             sodipodi:nodetypes="cc" />
          <path
             style="fill:#00ff00;stroke:#000000;stroke-width:0.3;stroke-linecap:round;stroke-dasharray:none"
             d="m 324.71619,88.978084 2.58555,10e-7"
             id="path2150"
             sodipodi:nodetypes="cc" />
          <path
             style="fill:#00ff00;stroke:#000000;stroke-width:0.3;stroke-linecap:round;stroke-dasharray:none"
             d="m 324.92476,89.631587 2.42823,10e-7"
             id="path2152"
             sodipodi:nodetypes="cc" />
          <path
             style="fill:#00ff00;stroke:#000000;stroke-width:0.3;stroke-linecap:round;stroke-dasharray:none"
             d="m 324.81354,90.493654 2.48722,10e-7"
             id="path2154"
             sodipodi:nodetypes="cc" />
          <path
             style="fill:#00ff00;stroke:#000000;stroke-width:0.3;stroke-linecap:round;stroke-dasharray:none"
             d="m 325.03601,91.508669 2.48231,10e-7"
             id="path2156"
             sodipodi:nodetypes="cc" />
          <path
             style="fill:#00ff00;stroke:#000000;stroke-width:0.3;stroke-linecap:round;stroke-dasharray:none"
             d="m 324.92478,92.245597 2.37416,10e-7"
             id="path2158"
             sodipodi:nodetypes="cc" />
          <path
             style="fill:#00ff00;stroke:#000000;stroke-width:0.3;stroke-linecap:round;stroke-dasharray:none"
             d="m 325.16115,93.135473 2.04971,10e-7"
             id="path2160"
             sodipodi:nodetypes="cc" />
          <path
             style="fill:#00ff00;stroke:#000000;stroke-width:0.3;stroke-linecap:round;stroke-dasharray:none"
             d="m 325.63389,86.989768 1.44487,10e-7"
             id="path2162"
             sodipodi:nodetypes="cc" />
        </g>
      </g>
    </g>
  </g>
</svg>
