<?xml version="1.0" encoding="UTF-8" standalone="no"?>
<!-- Created with Inkscape (http://www.inkscape.org/) -->

<svg
   width="135.05444mm"
   height="149.54089mm"
   viewBox="0 0 135.05444 149.54089"
   version="1.1"
   id="svg4019"
   inkscape:version="1.2.2 (732a01da63, 2022-12-09)"
   sodipodi:docname="Wappen Langstedt2.svg"
   xmlns:inkscape="http://www.inkscape.org/namespaces/inkscape"
   xmlns:sodipodi="http://sodipodi.sourceforge.net/DTD/sodipodi-0.dtd"
   xmlns="http://www.w3.org/2000/svg"
   xmlns:svg="http://www.w3.org/2000/svg">
  <sodipodi:namedview
     id="namedview4021"
     pagecolor="#ffffff"
     bordercolor="#666666"
     borderopacity="1.0"
     inkscape:showpageshadow="2"
     inkscape:pageopacity="0.0"
     inkscape:pagecheckerboard="0"
     inkscape:deskcolor="#d1d1d1"
     inkscape:document-units="mm"
     showgrid="false"
     inkscape:zoom="0.94707287"
     inkscape:cx="256.0521"
     inkscape:cy="283.50511"
     inkscape:current-layer="layer1" />
  <defs
     id="defs4016" />
  <g
     inkscape:label="Ebene 1"
     inkscape:groupmode="layer"
     id="layer1"
     transform="translate(-537.79905,-78.763449)">
    <g
       id="g3882"
       transform="translate(499.77173,-1.7372427)">
      <path
         id="path3650"
         style="fill:#ffff00;fill-opacity:1;stroke:#000000;stroke-width:2.6;stroke-linecap:round;stroke-dasharray:none"
         d="m 39.327315,81.800692 v 80.713418 a 66.227226,66.227226 0 0 0 66.227485,66.22748 66.227226,66.227226 0 0 0 66.22696,-66.22696 66.227226,66.227226 0 0 0 0,-5.2e-4 V 81.800692 Z" />
      <g
         id="g1096"
         transform="translate(-0.20413816,0.72817195)">
        <g
           id="g1437">
          <path
             style="color:#000000;fill:#000000;fill-rule:evenodd;stroke:#000000;stroke-width:0.191998;stroke-dasharray:none"
             d="m 26.484375,92.662109 c -5.98837,0.243998 -11.669833,3.859169 -13.787109,9.857421 -2.418668,6.8521 0.921462,14.90744 8,17.32422 5.962771,2.03583 12.955269,-0.89974 14.980468,-7.09375 1.670468,-5.10908 -0.877213,-11.08555 -6.224609,-12.73437 -4.294197,-1.324072 -9.307887,0.85537 -10.595703,5.39843 -0.998442,3.52224 1.361388,7.47279 4.645225,7.73543 4.87755,0.3901 5.673252,-3.68632 5.673252,-3.68632 0,0 -0.374503,0.42345 -0.57706,0.72479 -1.048608,1.56001 -2.679583,2.25419 -4.279672,1.85647 -2.366161,-0.58813 -3.843728,-3.65795 -3.184401,-5.98388 0.896358,-3.16211 4.522515,-4.73862 7.621093,-3.78321 3.994467,1.23166 5.951455,5.82473 4.671875,9.73829 -1.589588,4.8617 -7.199666,7.21745 -11.966797,5.58984 -5.762027,-1.9673 -8.529762,-8.64061 -6.533203,-14.29688 2.362732,-6.693623 10.140329,-9.888123 16.71875,-7.503903 7.654853,2.774352 11.290848,11.695093 8.501953,19.226563 -3.200927,8.64419 -13.30475,12.73265 -21.818359,9.52344 -5.923041,-2.23271 -10.309276,-7.60337 -11.5156249,-13.81446 l -2.3222656,0.45118 c 1.3616383,7.01062 6.2744045,13.03946 13.0039065,15.57617 9.710061,3.66022 21.194096,-0.98423 24.871093,-10.91406 3.231868,-8.72774 -0.965249,-19.03012 -9.914062,-22.273442 -1.943618,-0.704426 -3.972627,-0.999301 -5.96875,-0.917969 z"
             id="path1306"
             transform="matrix(-1.009814,-0.31358583,0.32527258,-0.97353232,72.471562,240.48946)"
             sodipodi:nodetypes="ssssssscssssssssssccssss" />
          <path
             style="color:#000000;fill:#000000;stroke:none;stroke-width:0.1;stroke-dasharray:none"
             d="m 101.54492,130.31055 c 0,0 -1.10935,6.91514 -2.777342,10.18164 -1.6896,3.3088 -5.220201,5.76971 -7.5,10.83593 -2.210851,4.91301 -2.752305,9.04262 -4.441406,12.18555 -1.233064,2.29438 -4.126287,5.80406 -6.685547,9.17383 -2.165171,2.85087 -2.118845,6.47174 -1.638672,9.45508 0.975216,6.05906 6.462153,11.56383 14.216797,11.20117 3.907913,-0.18276 6.832554,-1.93926 8.67773,-4.20117 1.84518,-2.26191 2.67579,-4.96875 2.67579,-7.29297 0,-4.65512 -3.67581,-9.6078 -9.878911,-9.45117 -3.104716,0.0784 -5.401625,1.43627 -6.748047,3.18554 -1.346421,1.74927 -1.880012,3.82184 -1.413135,5.51355 1.497858,5.42741 8.231515,5.15356 10.178628,1.75983 -3.306268,2.86463 -6.763649,2.55226 -7.98454,-2.2407 -0.214383,-0.84163 0.179908,-2.12121 1.357719,-3.38619 0.98634,-1.05934 2.289887,-2.07252 4.677735,-2.13281 4.782028,-0.12075 7.111331,3.45612 7.111331,6.75195 0,1.65125 -0.65539,3.85145 -2.070316,5.58594 -1.414927,1.73448 -3.523702,3.06383 -6.710937,3.21289 -6.435654,0.30097 -10.657404,-4.17372 -11.423828,-8.93555 -0.427116,-2.65369 -0.344018,-5.46347 1.121093,-7.39258 2.504967,-3.29828 5.412436,-6.7352 6.914063,-9.52929 2.014947,-3.74924 2.488894,-7.82993 4.525391,-12.35547 1.967546,-4.37233 5.357539,-6.63012 7.443364,-10.71485 2.10741,-4.12703 3.04296,-11.01562 3.04296,-11.01562 z"
             id="path1401"
             sodipodi:nodetypes="cssssssssssscssssssssssscc" />
        </g>
        <path
           style="color:#000000;fill:#000000;stroke:#000000;stroke-width:0.1;stroke-dasharray:none"
           d="m 95.621094,193.61719 c -1.778819,0.31281 -2.968975,1.35567 -3.65625,2.57617 -0.687275,1.22049 -0.914063,2.60623 -0.914063,3.75 0,1.19761 0.396656,2.92688 1.535156,4.38086 1.138501,1.45398 3.066734,2.57493 5.890625,2.39844 2.930178,-0.18314 4.866098,-2.38652 6.041018,-4.44336 1.17492,-2.05685 1.65039,-4.06055 1.65039,-4.06055 l -1.07031,-0.25586 c 0,0 -0.44944,1.87079 -1.53516,3.77148 -1.08572,1.9007 -2.74522,3.74006 -5.154297,3.89063 -2.515361,0.15721 -4.007935,-0.76892 -4.955078,-1.97852 -0.947143,-1.20959 -1.300781,-2.76309 -1.300781,-3.70312 0,-0.99388 0.211378,-2.21432 0.771484,-3.20899 0.560106,-0.99466 1.425671,-1.77592 2.888672,-2.0332 1.601554,-0.28164 2.688399,0.24274 3.431641,1.0332 0.743241,0.79047 1.088479,1.89505 1.041019,2.61524 -0.0463,0.70271 -0.28362,1.51791 -0.669926,2.13867 -0.386302,0.62076 -0.893428,0.97788 -1.49414,1.10742 -1.038492,0.22394 -2.153016,-0.30421 -2.519948,-1.04018 -0.539582,-1.08225 0.07529,-2.73618 0.07529,-2.73618 -0.608628,0.97144 -0.87646,2.09606 -0.643325,2.90964 0.449504,1.56865 1.857121,2.12546 3.230563,1.95657 1.0155,-0.12487 1.784656,-0.80784 2.287106,-1.61524 0.50245,-0.80739 0.77385,-1.76362 0.83203,-2.64648 0.0726,-1.10094 -0.37402,-2.42033 -1.33593,-3.44336 -0.96192,-1.02303 -2.494388,-1.70293 -4.425784,-1.36328 z"
           id="path1495"
           sodipodi:nodetypes="ssssssccssssssssssscssscsss" />
        <path
           id="path1538"
           style="fill:#000000;stroke:#000000;stroke-width:0.2;stroke-linecap:butt;stroke-dasharray:none"
           d="m 105.71189,89.332015 c 0,0 -1.46168,0.781778 -2.71353,2.143538 -1.72888,1.880703 -2.0531,3.462838 -2.0531,3.462838 l -0.0631,0.07752 a 4.8255444,4.8255444 0 0 0 -2.057751,-0.460954 4.8255444,4.8255444 0 0 0 -4.825545,4.825545 4.8255444,4.8255444 0 0 0 0.973067,2.900608 3.7243788,3.7243788 0 0 1 3.655591,-3.203948 3.7243788,3.7243788 0 0 1 3.724318,3.724328 3.7243788,3.7243788 0 0 1 -2.7435,3.59099 c 0.355856,0.54513 1.55368,2.49355 2.78278,5.78776 2.16024,5.78997 1.66914,10.51151 1.66914,10.51151 v 73.6694 c 0,0 -0.0373,2.5835 0,4.41936 0.0418,2.05246 0.0927,3.46798 -1.29811,5.29477 -1.12954,1.48357 -3.263881,3.14607 -3.263881,3.14607 0,0 2.176091,1.78254 3.578591,4.52271 1.41145,2.75766 2.63498,6.92154 2.63498,6.92154 0,0 1.22354,-4.16388 2.63498,-6.92154 1.4025,-2.74018 3.5786,-4.52271 3.5786,-4.52271 0,0 -2.13435,-1.66249 -3.26389,-3.14607 -1.3909,-1.82679 -1.33991,-3.24231 -1.29811,-5.29477 0.0373,-1.83586 0,-4.41936 0,-4.41936 v -73.6694 c 0,0 -0.4911,-4.72154 1.66915,-10.51151 1.2291,-3.29421 2.42693,-5.24263 2.78278,-5.78776 a 3.7243788,3.7243788 0 0 1 -2.7435,-3.59099 3.7243788,3.7243788 0 0 1 3.72432,-3.724328 3.7243788,3.7243788 0 0 1 3.65559,3.203948 4.8255444,4.8255444 0 0 0 0.97306,-2.900608 4.8255444,4.8255444 0 0 0 -4.82554,-4.825545 4.8255444,4.8255444 0 0 0 -2.05776,0.460954 l -0.063,-0.07752 c 0,0 -0.32422,-1.582135 -2.05311,-3.462838 -1.25185,-1.36176 -2.71353,-2.143538 -2.71353,-2.143538 z m -10.741976,12.965615 -0.03152,0.0382 c 0,0 0.02016,0.0184 0.02326,0.0212 a 3.7243788,3.7243788 0 0 1 0.0083,-0.0594 z m 21.484476,5.2e-4 a 3.7243788,3.7243788 0 0 1 0.008,0.0589 c 0.003,-0.003 0.0233,-0.0212 0.0233,-0.0212 z" />
        <rect
           style="fill:#000000;stroke:none;stroke-width:0.2"
           id="rect848"
           width="9.566165"
           height="2.5862017"
           x="100.92879"
           y="126.40647" />
        <rect
           style="fill:#000000;stroke:none;stroke-width:0.2"
           id="rect1008"
           width="9.566165"
           height="2.5862017"
           x="100.92879"
           y="180.8573" />
        <g
           id="g1017"
           inkscape:transform-center-x="-21.888345"
           inkscape:transform-center-y="74.299164"
           transform="matrix(-1,0,0,1,211.42372,0)">
          <path
             style="color:#000000;fill:#000000;fill-rule:evenodd;stroke:#000000;stroke-width:0.191998;stroke-dasharray:none"
             d="m 26.484375,92.662109 c -5.98837,0.243998 -11.669833,3.859169 -13.787109,9.857421 -2.418668,6.8521 0.921462,14.90744 8,17.32422 5.962771,2.03583 12.955269,-0.89974 14.980468,-7.09375 1.670468,-5.10908 -0.877213,-11.08555 -6.224609,-12.73437 -4.294197,-1.324072 -9.307887,0.85537 -10.595703,5.39843 -0.998442,3.52224 1.361388,7.47279 4.645225,7.73543 4.87755,0.3901 5.673252,-3.68632 5.673252,-3.68632 0,0 -0.374503,0.42345 -0.57706,0.72479 -1.048608,1.56001 -2.679583,2.25419 -4.279672,1.85647 -2.366161,-0.58813 -3.843728,-3.65795 -3.184401,-5.98388 0.896358,-3.16211 4.522515,-4.73862 7.621093,-3.78321 3.994467,1.23166 5.951455,5.82473 4.671875,9.73829 -1.589588,4.8617 -7.199666,7.21745 -11.966797,5.58984 -5.762027,-1.9673 -8.529762,-8.64061 -6.533203,-14.29688 2.362732,-6.693623 10.140329,-9.888123 16.71875,-7.503903 7.654853,2.774352 11.290848,11.695093 8.501953,19.226563 -3.200927,8.64419 -13.30475,12.73265 -21.818359,9.52344 -5.923041,-2.23271 -10.309276,-7.60337 -11.5156249,-13.81446 l -2.3222656,0.45118 c 1.3616383,7.01062 6.2744045,13.03946 13.0039065,15.57617 9.710061,3.66022 21.194096,-0.98423 24.871093,-10.91406 3.231868,-8.72774 -0.965249,-19.03012 -9.914062,-22.273442 -1.943618,-0.704426 -3.972627,-0.999301 -5.96875,-0.917969 z"
             id="path1013"
             transform="matrix(-1.009814,-0.31358583,0.32527258,-0.97353232,72.471562,240.48946)"
             sodipodi:nodetypes="ssssssscssssssssssccssss" />
          <path
             style="color:#000000;fill:#000000;stroke:none;stroke-width:0.1;stroke-dasharray:none"
             d="m 101.54492,130.31055 c 0,0 -1.10935,6.91514 -2.777342,10.18164 -1.6896,3.3088 -5.220201,5.76971 -7.5,10.83593 -2.210851,4.91301 -2.752305,9.04262 -4.441406,12.18555 -1.233064,2.29438 -4.126287,5.80406 -6.685547,9.17383 -2.165171,2.85087 -2.118845,6.47174 -1.638672,9.45508 0.975216,6.05906 6.462153,11.56383 14.216797,11.20117 3.907913,-0.18276 6.832554,-1.93926 8.67773,-4.20117 1.84518,-2.26191 2.67579,-4.96875 2.67579,-7.29297 0,-4.65512 -3.67581,-9.6078 -9.878911,-9.45117 -3.104716,0.0784 -5.401625,1.43627 -6.748047,3.18554 -1.346421,1.74927 -1.880012,3.82184 -1.413135,5.51355 1.497858,5.42741 8.231515,5.15356 10.178628,1.75983 -3.306268,2.86463 -6.763649,2.55226 -7.98454,-2.2407 -0.214383,-0.84163 0.179908,-2.12121 1.357719,-3.38619 0.98634,-1.05934 2.289887,-2.07252 4.677735,-2.13281 4.782028,-0.12075 7.111331,3.45612 7.111331,6.75195 0,1.65125 -0.65539,3.85145 -2.070316,5.58594 -1.414927,1.73448 -3.523702,3.06383 -6.710937,3.21289 -6.435654,0.30097 -10.657404,-4.17372 -11.423828,-8.93555 -0.427116,-2.65369 -0.344018,-5.46347 1.121093,-7.39258 2.504967,-3.29828 5.412436,-6.7352 6.914063,-9.52929 2.014947,-3.74924 2.488894,-7.82993 4.525391,-12.35547 1.967546,-4.37233 5.357539,-6.63012 7.443364,-10.71485 2.10741,-4.12703 3.04296,-11.01562 3.04296,-11.01562 z"
             id="path1015"
             sodipodi:nodetypes="cssssssssssscssssssssssscc" />
        </g>
        <path
           style="color:#000000;fill:#000000;stroke:#000000;stroke-width:0.1;stroke-dasharray:none"
           d="m 115.80268,193.61719 c 1.77882,0.31281 2.96898,1.35567 3.65625,2.57617 0.68728,1.22049 0.91407,2.60623 0.91407,3.75 0,1.19761 -0.39666,2.92688 -1.53516,4.38086 -1.1385,1.45398 -3.06673,2.57493 -5.89062,2.39844 -2.93018,-0.18314 -4.8661,-2.38652 -6.04102,-4.44336 -1.17492,-2.05685 -1.65039,-4.06055 -1.65039,-4.06055 l 1.07031,-0.25586 c 0,0 0.44944,1.87079 1.53516,3.77148 1.08572,1.9007 2.74522,3.74006 5.1543,3.89063 2.51536,0.15721 4.00793,-0.76892 4.95507,-1.97852 0.94715,-1.20959 1.30078,-2.76309 1.30078,-3.70312 0,-0.99388 -0.21137,-2.21432 -0.77148,-3.20899 -0.56011,-0.99466 -1.42567,-1.77592 -2.88867,-2.0332 -1.60156,-0.28164 -2.6884,0.24274 -3.43164,1.0332 -0.74324,0.79047 -1.08848,1.89505 -1.04102,2.61524 0.0463,0.70271 0.28362,1.51791 0.66992,2.13867 0.38631,0.62076 0.89343,0.97788 1.49414,1.10742 1.0385,0.22394 2.15302,-0.30421 2.51995,-1.04018 0.53958,-1.08225 -0.0753,-2.73618 -0.0753,-2.73618 0.60863,0.97144 0.87646,2.09606 0.64333,2.90964 -0.44951,1.56865 -1.85712,2.12546 -3.23057,1.95657 -1.0155,-0.12487 -1.78465,-0.80784 -2.2871,-1.61524 -0.50245,-0.80739 -0.77385,-1.76362 -0.83203,-2.64648 -0.0726,-1.10094 0.37402,-2.42033 1.33593,-3.44336 0.96192,-1.02303 2.49439,-1.70293 4.42578,-1.36328 z"
           id="path1019"
           sodipodi:nodetypes="ssssssccssssssssssscssscsss"
           inkscape:transform-center-x="-7.102516"
           inkscape:transform-center-y="-20.530651" />
      </g>
      <g
         id="g3533"
         transform="translate(3.7822724e-6,-0.62924028)">
        <g
           id="g3447">
          <path
             style="fill:#02a700;fill-opacity:1;stroke:#000000;stroke-width:0.6;stroke-dasharray:none"
             d="m 144.37063,185.66432 c 0,0 4.385,-0.2163 7.31488,-1.47477 2.92989,-1.25847 5.70247,-3.30349 5.70247,-3.30349 l -0.88487,-0.66857 3.91307,-3.95239 -0.55058,-0.74722 3.57879,-4.05072 -1.17982,-0.58991 1.21914,-3.53946 -0.58991,-0.51125 1.21915,-3.85408 -0.95976,-0.31983 0.63959,-3.75416 -0.83425,-0.38932 0.16685,-4.03225 -0.9455,0.36151 -0.91768,-5.03336 -1.02892,0.44494 -0.9733,-3.39266 -1.22358,0.41713 -1.00111,-3.50388 -0.83426,0.55617 -2.61401,-3.03114 -1.50823,2.7604 -1.02251,-0.51125 -2.4383,2.91022 -0.90453,-0.8652 -2.39896,3.34282 -0.47193,-1.25847 c 0,0 -1.06184,2.00569 -1.25848,2.98887 -0.19663,0.98319 -0.74722,2.63493 -0.74722,2.63493 l -0.8652,-0.51125 -0.66856,4.48332 -0.74722,-0.23597 -0.0787,4.36533 -1.25847,0.0787 0.47193,4.12937 -0.90453,0.27529 1.2978,6.13506 -1.06184,-0.0787 c 0,0 0.23597,3.14619 2.04502,5.8991 1.80906,2.75291 4.48332,5.8991 4.48332,5.8991 z"
             id="path1208"
             sodipodi:nodetypes="cscccccccccccccccccccccccccccsccccccccccscc" />
          <path
             style="fill:none;stroke:#000000;stroke-width:0.8;stroke-linecap:round;stroke-dasharray:none"
             d="m 138.09762,192.8806 c 0,0 13.95434,-14.82265 15.51721,-26.41819 1.72413,-12.79196 0.44493,-22.46937 0.44493,-22.46937"
             id="path1229"
             sodipodi:nodetypes="csc" />
          <path
             style="fill:none;stroke:#000000;stroke-width:0.600001;stroke-linecap:round;stroke-dasharray:none"
             d="m 146.16212,183.00854 c 0,0 1.307,-0.75083 4.06006,-1.19577 2.75305,-0.44494 4.56061,-0.66741 4.56061,-0.66741"
             id="path1282" />
          <path
             style="fill:none;stroke:#000000;stroke-width:0.600001;stroke-linecap:round;stroke-dasharray:none"
             d="m 148.30338,180.03302 9.56617,-3.19799"
             id="path1284" />
          <path
             style="fill:none;stroke:#000000;stroke-width:0.600001;stroke-linecap:round;stroke-dasharray:none"
             d="m 149.80505,177.22435 11.06783,-4.94994"
             id="path1286" />
          <path
             style="fill:none;stroke:#000000;stroke-width:0.600001;stroke-linecap:round;stroke-dasharray:none"
             d="m 157.17433,173.74827 c 0,0 1.77975,-1.58509 2.75305,-2.66963 0.9733,-1.08454 1.33482,-2.14126 1.33482,-2.14126"
             id="path1288" />
          <path
             style="fill:none;stroke:#000000;stroke-width:0.600001;stroke-linecap:round;stroke-dasharray:none"
             d="m 141.10095,173.77608 c 0,0 3.42046,2.66962 4.1991,3.69854 0.77864,1.02892 1.89098,3.28142 1.89098,3.28142"
             id="path1290" />
          <path
             style="fill:none;stroke:#000000;stroke-width:0.600001;stroke-linecap:round;stroke-dasharray:none"
             d="m 140.71163,168.0475 c 0,0 5.53391,6.34037 6.1457,7.17463 0.61179,0.83426 2.00222,2.86428 2.00222,2.86428"
             id="path1292" />
          <path
             style="fill:none;stroke:#000000;stroke-width:0.600001;stroke-linecap:round;stroke-dasharray:none"
             d="m 140.68382,163.23661 3.17018,8.14793"
             id="path1294" />
          <path
             style="fill:none;stroke:#000000;stroke-width:0.600001;stroke-linecap:round;stroke-dasharray:none"
             d="m 142.10206,159.42683 c 0,0 1.08453,3.5595 2.47497,5.78419 1.39043,2.22469 3.67073,5.56173 4.25472,6.7575 0.58398,1.19577 1.47385,3.47607 1.47385,3.47607"
             id="path1296" />
          <path
             style="fill:none;stroke:#000000;stroke-width:0.600001;stroke-linecap:round;stroke-dasharray:none"
             d="m 151.9185,172.52469 c 0,0 3.78197,-1.19577 6.06228,-3.2258 2.28031,-2.03003 4.25472,-4.81089 4.25472,-4.81089"
             id="path1298" />
          <path
             style="fill:none;stroke:#000000;stroke-width:0.600001;stroke-linecap:round;stroke-dasharray:none"
             d="m 153.42017,167.76942 c 0,0 4.06006,-2.22469 5.56172,-3.61512 1.50167,-1.39044 3.33704,-3.94883 3.33704,-3.94883"
             id="path1300" />
          <path
             style="fill:none;stroke:#000000;stroke-width:0.600001;stroke-linecap:round;stroke-dasharray:none"
             d="m 143.46468,155.22773 c 0,0 6.89654,11.23468 7.28586,12.2636 0.38932,1.02892 1.39043,3.80978 1.39043,3.80978"
             id="path1302" />
          <path
             style="fill:none;stroke:#000000;stroke-width:0.600001;stroke-linecap:round;stroke-dasharray:none"
             d="m 154.22662,163.09757 c 0,0 2.75305,-1.64071 4.31033,-3.17019 1.55728,-1.52947 3.11457,-3.33703 3.11457,-3.33703"
             id="path1304" />
          <path
             style="fill:none;stroke:#000000;stroke-width:0.600001;stroke-linecap:round;stroke-dasharray:none"
             d="m 153.44798,166.29556 c 0,0 -1.69633,-4.44938 -2.30812,-5.20021 -0.61179,-0.75084 -4.22691,-5.95105 -4.75528,-6.86873 -0.52836,-0.91769 -1.39043,-3.19799 -1.39043,-3.19799"
             id="path1307" />
          <path
             style="fill:none;stroke:#000000;stroke-width:0.600001;stroke-linecap:round;stroke-dasharray:none"
             d="m 153.97634,160.81726 c 0,0 -1.14016,-2.80867 -1.86318,-3.89321 -0.72302,-1.08453 -3.11456,-4.89432 -3.53169,-5.812 -0.41713,-0.91768 -0.75084,-2.78086 -0.75084,-2.78086"
             id="path1309" />
          <path
             style="fill:none;stroke:#000000;stroke-width:0.600001;stroke-linecap:round;stroke-dasharray:none"
             d="m 151.33452,145.68937 c 0,0 0.30589,3.64293 0.88988,4.8387 0.58398,1.19577 2.05783,4.81089 2.05783,4.81089"
             id="path1311" />
          <path
             style="fill:none;stroke:#000000;stroke-width:0.600001;stroke-linecap:round;stroke-dasharray:none"
             d="m 154.39347,158.56476 c 0,0 2.83648,-2.05784 3.67074,-3.11456 0.83426,-1.05673 2.00222,-2.80867 2.00222,-2.80867"
             id="path1313" />
          <path
             style="fill:none;stroke:#000000;stroke-width:0.600001;stroke-linecap:round;stroke-dasharray:none"
             d="m 154.53251,153.89291 c 0,0 1.6129,-1.44605 2.19688,-2.19688 0.58398,-0.75083 1.52948,-2.50277 1.52948,-2.50277"
             id="path1315" />
          <path
             style="fill:none;stroke:#000000;stroke-width:0.600001;stroke-linecap:round;stroke-dasharray:none"
             d="m 154.72717,150.66711 1.47386,-4.22691"
             id="path1317" />
        </g>
        <g
           id="g3489"
           transform="matrix(-1,0,0,1,211.16895,0)">
          <path
             style="fill:#02a700;fill-opacity:1;stroke:#000000;stroke-width:0.6;stroke-dasharray:none"
             d="m 144.37063,185.66432 c 0,0 4.385,-0.2163 7.31488,-1.47477 2.92989,-1.25847 5.70247,-3.30349 5.70247,-3.30349 l -0.88487,-0.66857 3.91307,-3.95239 -0.55058,-0.74722 3.57879,-4.05072 -1.17982,-0.58991 1.21914,-3.53946 -0.58991,-0.51125 1.21915,-3.85408 -0.95976,-0.31983 0.63959,-3.75416 -0.83425,-0.38932 0.16685,-4.03225 -0.9455,0.36151 -0.91768,-5.03336 -1.02892,0.44494 -0.9733,-3.39266 -1.22358,0.41713 -1.00111,-3.50388 -0.83426,0.55617 -2.61401,-3.03114 -1.50823,2.7604 -1.02251,-0.51125 -2.4383,2.91022 -0.90453,-0.8652 -2.39896,3.34282 -0.47193,-1.25847 c 0,0 -1.06184,2.00569 -1.25848,2.98887 -0.19663,0.98319 -0.74722,2.63493 -0.74722,2.63493 l -0.8652,-0.51125 -0.66856,4.48332 -0.74722,-0.23597 -0.0787,4.36533 -1.25847,0.0787 0.47193,4.12937 -0.90453,0.27529 1.2978,6.13506 -1.06184,-0.0787 c 0,0 0.23597,3.14619 2.04502,5.8991 1.80906,2.75291 4.48332,5.8991 4.48332,5.8991 z"
             id="path3449"
             sodipodi:nodetypes="cscccccccccccccccccccccccccccsccccccccccscc" />
          <path
             style="fill:none;stroke:#000000;stroke-width:0.8;stroke-linecap:round;stroke-dasharray:none"
             d="m 138.09762,192.8806 c 0,0 13.95434,-14.82265 15.51721,-26.41819 1.72413,-12.79196 0.44493,-22.46937 0.44493,-22.46937"
             id="path3451"
             sodipodi:nodetypes="csc" />
          <path
             style="fill:none;stroke:#000000;stroke-width:0.600001;stroke-linecap:round;stroke-dasharray:none"
             d="m 146.16212,183.00854 c 0,0 1.307,-0.75083 4.06006,-1.19577 2.75305,-0.44494 4.56061,-0.66741 4.56061,-0.66741"
             id="path3453" />
          <path
             style="fill:none;stroke:#000000;stroke-width:0.600001;stroke-linecap:round;stroke-dasharray:none"
             d="m 148.30338,180.03302 9.56617,-3.19799"
             id="path3455" />
          <path
             style="fill:none;stroke:#000000;stroke-width:0.600001;stroke-linecap:round;stroke-dasharray:none"
             d="m 149.80505,177.22435 11.06783,-4.94994"
             id="path3457" />
          <path
             style="fill:none;stroke:#000000;stroke-width:0.600001;stroke-linecap:round;stroke-dasharray:none"
             d="m 157.17433,173.74827 c 0,0 1.77975,-1.58509 2.75305,-2.66963 0.9733,-1.08454 1.33482,-2.14126 1.33482,-2.14126"
             id="path3459" />
          <path
             style="fill:none;stroke:#000000;stroke-width:0.600001;stroke-linecap:round;stroke-dasharray:none"
             d="m 141.10095,173.77608 c 0,0 3.42046,2.66962 4.1991,3.69854 0.77864,1.02892 1.89098,3.28142 1.89098,3.28142"
             id="path3461" />
          <path
             style="fill:none;stroke:#000000;stroke-width:0.600001;stroke-linecap:round;stroke-dasharray:none"
             d="m 140.71163,168.0475 c 0,0 5.53391,6.34037 6.1457,7.17463 0.61179,0.83426 2.00222,2.86428 2.00222,2.86428"
             id="path3463" />
          <path
             style="fill:none;stroke:#000000;stroke-width:0.600001;stroke-linecap:round;stroke-dasharray:none"
             d="m 140.68382,163.23661 3.17018,8.14793"
             id="path3465" />
          <path
             style="fill:none;stroke:#000000;stroke-width:0.600001;stroke-linecap:round;stroke-dasharray:none"
             d="m 142.10206,159.42683 c 0,0 1.08453,3.5595 2.47497,5.78419 1.39043,2.22469 3.67073,5.56173 4.25472,6.7575 0.58398,1.19577 1.47385,3.47607 1.47385,3.47607"
             id="path3467" />
          <path
             style="fill:none;stroke:#000000;stroke-width:0.600001;stroke-linecap:round;stroke-dasharray:none"
             d="m 151.9185,172.52469 c 0,0 3.78197,-1.19577 6.06228,-3.2258 2.28031,-2.03003 4.25472,-4.81089 4.25472,-4.81089"
             id="path3469" />
          <path
             style="fill:none;stroke:#000000;stroke-width:0.600001;stroke-linecap:round;stroke-dasharray:none"
             d="m 153.42017,167.76942 c 0,0 4.06006,-2.22469 5.56172,-3.61512 1.50167,-1.39044 3.33704,-3.94883 3.33704,-3.94883"
             id="path3471" />
          <path
             style="fill:none;stroke:#000000;stroke-width:0.600001;stroke-linecap:round;stroke-dasharray:none"
             d="m 143.46468,155.22773 c 0,0 6.89654,11.23468 7.28586,12.2636 0.38932,1.02892 1.39043,3.80978 1.39043,3.80978"
             id="path3473" />
          <path
             style="fill:none;stroke:#000000;stroke-width:0.600001;stroke-linecap:round;stroke-dasharray:none"
             d="m 154.22662,163.09757 c 0,0 2.75305,-1.64071 4.31033,-3.17019 1.55728,-1.52947 3.11457,-3.33703 3.11457,-3.33703"
             id="path3475" />
          <path
             style="fill:none;stroke:#000000;stroke-width:0.600001;stroke-linecap:round;stroke-dasharray:none"
             d="m 153.44798,166.29556 c 0,0 -1.69633,-4.44938 -2.30812,-5.20021 -0.61179,-0.75084 -4.22691,-5.95105 -4.75528,-6.86873 -0.52836,-0.91769 -1.39043,-3.19799 -1.39043,-3.19799"
             id="path3477" />
          <path
             style="fill:none;stroke:#000000;stroke-width:0.600001;stroke-linecap:round;stroke-dasharray:none"
             d="m 153.97634,160.81726 c 0,0 -1.14016,-2.80867 -1.86318,-3.89321 -0.72302,-1.08453 -3.11456,-4.89432 -3.53169,-5.812 -0.41713,-0.91768 -0.75084,-2.78086 -0.75084,-2.78086"
             id="path3479" />
          <path
             style="fill:none;stroke:#000000;stroke-width:0.600001;stroke-linecap:round;stroke-dasharray:none"
             d="m 151.33452,145.68937 c 0,0 0.30589,3.64293 0.88988,4.8387 0.58398,1.19577 2.05783,4.81089 2.05783,4.81089"
             id="path3481" />
          <path
             style="fill:none;stroke:#000000;stroke-width:0.600001;stroke-linecap:round;stroke-dasharray:none"
             d="m 154.39347,158.56476 c 0,0 2.83648,-2.05784 3.67074,-3.11456 0.83426,-1.05673 2.00222,-2.80867 2.00222,-2.80867"
             id="path3483" />
          <path
             style="fill:none;stroke:#000000;stroke-width:0.600001;stroke-linecap:round;stroke-dasharray:none"
             d="m 154.53251,153.89291 c 0,0 1.6129,-1.44605 2.19688,-2.19688 0.58398,-0.75083 1.52948,-2.50277 1.52948,-2.50277"
             id="path3485" />
          <path
             style="fill:none;stroke:#000000;stroke-width:0.600001;stroke-linecap:round;stroke-dasharray:none"
             d="m 154.72717,150.66711 1.47386,-4.22691"
             id="path3487" />
        </g>
      </g>
    </g>
  </g>
</svg>
