<?xml version="1.0" encoding="UTF-8" standalone="no"?>
<!-- Created with Inkscape (http://www.inkscape.org/) -->

<svg
   width="118.29597mm"
   height="138.40276mm"
   viewBox="0 0 118.29597 138.40276"
   version="1.1"
   id="svg3668"
   inkscape:version="1.2.2 (732a01da63, 2022-12-09)"
   sodipodi:docname="Wappen Wittmoldt2.svg"
   xmlns:inkscape="http://www.inkscape.org/namespaces/inkscape"
   xmlns:sodipodi="http://sodipodi.sourceforge.net/DTD/sodipodi-0.dtd"
   xmlns="http://www.w3.org/2000/svg"
   xmlns:svg="http://www.w3.org/2000/svg">
  <sodipodi:namedview
     id="namedview3670"
     pagecolor="#ffffff"
     bordercolor="#666666"
     borderopacity="1.0"
     inkscape:showpageshadow="2"
     inkscape:pageopacity="0.0"
     inkscape:pagecheckerboard="0"
     inkscape:deskcolor="#d1d1d1"
     inkscape:document-units="mm"
     showgrid="false"
     inkscape:zoom="0.72357513"
     inkscape:cx="222.50627"
     inkscape:cy="174.82635"
     inkscape:current-layer="layer1" />
  <defs
     id="defs3665">
    <inkscape:path-effect
       effect="powerstroke"
       id="path-effect3700"
       is_visible="true"
       lpeversion="1"
       offset_points="0.21417104,0.12002396 | 1.4849514,0.49853509 | 2.5374739,0.4272322"
       not_jump="false"
       sort_points="true"
       interpolator_type="CentripetalCatmullRom"
       interpolator_beta="0.2"
       start_linecap_type="zerowidth"
       linejoin_type="round"
       miter_limit="4"
       scale_width="1"
       end_linecap_type="zerowidth" />
    <inkscape:path-effect
       effect="powerstroke"
       id="path-effect3758"
       is_visible="true"
       lpeversion="1"
       offset_points="0.80824348,0.48207661 | 1.9895274,0.49812746 | 3.5621257,0.25279159"
       not_jump="false"
       sort_points="true"
       interpolator_type="CentripetalCatmullRom"
       interpolator_beta="0.2"
       start_linecap_type="zerowidth"
       linejoin_type="round"
       miter_limit="4"
       scale_width="1"
       end_linecap_type="zerowidth" />
    <inkscape:path-effect
       effect="powerstroke"
       id="path-effect5329"
       is_visible="true"
       lpeversion="1"
       offset_points="0.44007079,0.11512616 | 1.0011289,0.19825428 | 1.5412828,0.092162034"
       not_jump="false"
       sort_points="true"
       interpolator_type="CentripetalCatmullRom"
       interpolator_beta="0.2"
       start_linecap_type="zerowidth"
       linejoin_type="round"
       miter_limit="4"
       scale_width="1"
       end_linecap_type="zerowidth" />
    <inkscape:path-effect
       effect="powerstroke"
       id="path-effect5335"
       is_visible="true"
       lpeversion="1"
       offset_points="0.46839923,0.068687162 | 1.0511751,0.15188353 | 1.5183701,0.099736364"
       not_jump="false"
       sort_points="true"
       interpolator_type="CentripetalCatmullRom"
       interpolator_beta="0.2"
       start_linecap_type="zerowidth"
       linejoin_type="round"
       miter_limit="4"
       scale_width="1"
       end_linecap_type="zerowidth" />
    <inkscape:path-effect
       effect="powerstroke"
       id="path-effect8038"
       is_visible="true"
       lpeversion="1"
       offset_points="0.44007079,0.11512616 | 1.0011289,0.19825428 | 1.5412828,0.092162034"
       not_jump="false"
       sort_points="true"
       interpolator_type="CentripetalCatmullRom"
       interpolator_beta="0.2"
       start_linecap_type="zerowidth"
       linejoin_type="round"
       miter_limit="4"
       scale_width="1"
       end_linecap_type="zerowidth" />
    <inkscape:path-effect
       effect="powerstroke"
       id="path-effect8042"
       is_visible="true"
       lpeversion="1"
       offset_points="0.46839923,0.068687162 | 1.0511751,0.15188353 | 1.5183701,0.099736364"
       not_jump="false"
       sort_points="true"
       interpolator_type="CentripetalCatmullRom"
       interpolator_beta="0.2"
       start_linecap_type="zerowidth"
       linejoin_type="round"
       miter_limit="4"
       scale_width="1"
       end_linecap_type="zerowidth" />
    <inkscape:path-effect
       effect="powerstroke"
       id="path-effect3098"
       is_visible="true"
       lpeversion="1"
       offset_points="0.44007079,0.11512616 | 1.0011289,0.19825428 | 1.5412828,0.092162034"
       not_jump="false"
       sort_points="true"
       interpolator_type="CentripetalCatmullRom"
       interpolator_beta="0.2"
       start_linecap_type="zerowidth"
       linejoin_type="round"
       miter_limit="4"
       scale_width="1"
       end_linecap_type="zerowidth" />
    <inkscape:path-effect
       effect="powerstroke"
       id="path-effect3102"
       is_visible="true"
       lpeversion="1"
       offset_points="0.46839923,0.068687162 | 1.0511751,0.15188353 | 1.5183701,0.099736364"
       not_jump="false"
       sort_points="true"
       interpolator_type="CentripetalCatmullRom"
       interpolator_beta="0.2"
       start_linecap_type="zerowidth"
       linejoin_type="round"
       miter_limit="4"
       scale_width="1"
       end_linecap_type="zerowidth" />
    <inkscape:path-effect
       effect="powerstroke"
       id="path-effect3178"
       is_visible="true"
       lpeversion="1"
       offset_points="0.44007079,0.11512616 | 1.0011289,0.19825428 | 1.5412828,0.092162034"
       not_jump="false"
       sort_points="true"
       interpolator_type="CentripetalCatmullRom"
       interpolator_beta="0.2"
       start_linecap_type="zerowidth"
       linejoin_type="round"
       miter_limit="4"
       scale_width="1"
       end_linecap_type="zerowidth" />
    <inkscape:path-effect
       effect="powerstroke"
       id="path-effect3182"
       is_visible="true"
       lpeversion="1"
       offset_points="0.46839923,0.068687162 | 1.0511751,0.15188353 | 1.5183701,0.099736364"
       not_jump="false"
       sort_points="true"
       interpolator_type="CentripetalCatmullRom"
       interpolator_beta="0.2"
       start_linecap_type="zerowidth"
       linejoin_type="round"
       miter_limit="4"
       scale_width="1"
       end_linecap_type="zerowidth" />
    <inkscape:path-effect
       effect="powerstroke"
       id="path-effect3186"
       is_visible="true"
       lpeversion="1"
       offset_points="0.44007079,0.11512616 | 1.0011289,0.19825428 | 1.5412828,0.092162034"
       not_jump="false"
       sort_points="true"
       interpolator_type="CentripetalCatmullRom"
       interpolator_beta="0.2"
       start_linecap_type="zerowidth"
       linejoin_type="round"
       miter_limit="4"
       scale_width="1"
       end_linecap_type="zerowidth" />
    <inkscape:path-effect
       effect="powerstroke"
       id="path-effect3190"
       is_visible="true"
       lpeversion="1"
       offset_points="0.46839923,0.068687162 | 1.0511751,0.15188353 | 1.5183701,0.099736364"
       not_jump="false"
       sort_points="true"
       interpolator_type="CentripetalCatmullRom"
       interpolator_beta="0.2"
       start_linecap_type="zerowidth"
       linejoin_type="round"
       miter_limit="4"
       scale_width="1"
       end_linecap_type="zerowidth" />
    <inkscape:path-effect
       effect="powerstroke"
       id="path-effect1303"
       is_visible="true"
       lpeversion="1"
       offset_points="0.1856917,0.50292794 | 1.0060388,0.28238287 | 1.7546448,0.18415446"
       not_jump="false"
       sort_points="true"
       interpolator_type="CentripetalCatmullRom"
       interpolator_beta="0.2"
       start_linecap_type="butt"
       linejoin_type="round"
       miter_limit="4"
       scale_width="1"
       end_linecap_type="zerowidth" />
    <inkscape:path-effect
       effect="powerstroke"
       id="path-effect1309"
       is_visible="true"
       lpeversion="1"
       offset_points="0.1856917,0.50292794 | 0.99235673,0.27094041 | 1.7546448,0.18415446"
       not_jump="false"
       sort_points="true"
       interpolator_type="CentripetalCatmullRom"
       interpolator_beta="0.2"
       start_linecap_type="butt"
       linejoin_type="round"
       miter_limit="4"
       scale_width="1"
       end_linecap_type="zerowidth" />
    <inkscape:path-effect
       effect="powerstroke"
       id="path-effect1329"
       is_visible="true"
       lpeversion="1"
       offset_points="0.1856917,0.50292794 | 0.99761014,0.27930285 | 1.7546448,0.18415446"
       not_jump="false"
       sort_points="true"
       interpolator_type="CentripetalCatmullRom"
       interpolator_beta="0.2"
       start_linecap_type="butt"
       linejoin_type="round"
       miter_limit="4"
       scale_width="1"
       end_linecap_type="zerowidth" />
    <inkscape:path-effect
       effect="powerstroke"
       id="path-effect1335"
       is_visible="true"
       lpeversion="1"
       offset_points="0.1856917,0.50292794 | 1.0062041,0.2961729 | 1.7546448,0.18415446"
       not_jump="false"
       sort_points="true"
       interpolator_type="CentripetalCatmullRom"
       interpolator_beta="0.2"
       start_linecap_type="butt"
       linejoin_type="round"
       miter_limit="4"
       scale_width="1"
       end_linecap_type="zerowidth" />
    <inkscape:path-effect
       effect="powerstroke"
       id="path-effect1341"
       is_visible="true"
       lpeversion="1"
       offset_points="0.1856917,0.50292794 | 1.0007459,0.27572269 | 1.7546448,0.18415446"
       not_jump="false"
       sort_points="true"
       interpolator_type="CentripetalCatmullRom"
       interpolator_beta="0.2"
       start_linecap_type="butt"
       linejoin_type="round"
       miter_limit="4"
       scale_width="1"
       end_linecap_type="zerowidth" />
    <inkscape:path-effect
       effect="powerstroke"
       id="path-effect1347"
       is_visible="true"
       lpeversion="1"
       offset_points="0.1856917,0.50292794 | 1.0055842,0.35311216 | 1.7546448,0.18415446"
       not_jump="false"
       sort_points="true"
       interpolator_type="CentripetalCatmullRom"
       interpolator_beta="0.2"
       start_linecap_type="butt"
       linejoin_type="round"
       miter_limit="4"
       scale_width="1"
       end_linecap_type="zerowidth" />
    <inkscape:path-effect
       effect="powerstroke"
       id="path-effect1435"
       is_visible="true"
       lpeversion="1"
       offset_points="0.1856917,0.50292794 | 0.99090648,0.2865468 | 1.7546448,0.18415446"
       not_jump="false"
       sort_points="true"
       interpolator_type="CentripetalCatmullRom"
       interpolator_beta="0.2"
       start_linecap_type="butt"
       linejoin_type="round"
       miter_limit="4"
       scale_width="1"
       end_linecap_type="zerowidth" />
    <inkscape:path-effect
       effect="powerstroke"
       id="path-effect1439"
       is_visible="true"
       lpeversion="1"
       offset_points="0.1856917,0.50292794 | 0.98613525,0.3058339 | 1.7546448,0.18415446"
       not_jump="false"
       sort_points="true"
       interpolator_type="CentripetalCatmullRom"
       interpolator_beta="0.2"
       start_linecap_type="butt"
       linejoin_type="round"
       miter_limit="4"
       scale_width="1"
       end_linecap_type="zerowidth" />
    <inkscape:path-effect
       effect="powerstroke"
       id="path-effect1447"
       is_visible="true"
       lpeversion="1"
       offset_points="0.1856917,0.50292794 | 1.002028,0.27393784 | 1.7546448,0.18415446"
       not_jump="false"
       sort_points="true"
       interpolator_type="CentripetalCatmullRom"
       interpolator_beta="0.2"
       start_linecap_type="butt"
       linejoin_type="round"
       miter_limit="4"
       scale_width="1"
       end_linecap_type="zerowidth" />
    <inkscape:path-effect
       effect="powerstroke"
       id="path-effect1451"
       is_visible="true"
       lpeversion="1"
       offset_points="0.1856917,0.50292794 | 0.98735243,0.27642834 | 1.7546448,0.18415446"
       not_jump="false"
       sort_points="true"
       interpolator_type="CentripetalCatmullRom"
       interpolator_beta="0.2"
       start_linecap_type="butt"
       linejoin_type="round"
       miter_limit="4"
       scale_width="1"
       end_linecap_type="zerowidth" />
    <inkscape:path-effect
       effect="powerstroke"
       id="path-effect1455"
       is_visible="true"
       lpeversion="1"
       offset_points="0.1856917,0.50292794 | 1.0005799,0.26193353 | 1.7546448,0.18415446"
       not_jump="false"
       sort_points="true"
       interpolator_type="CentripetalCatmullRom"
       interpolator_beta="0.2"
       start_linecap_type="butt"
       linejoin_type="round"
       miter_limit="4"
       scale_width="1"
       end_linecap_type="zerowidth" />
    <inkscape:path-effect
       effect="powerstroke"
       id="path-effect1459"
       is_visible="true"
       lpeversion="1"
       offset_points="0.1856917,0.50292794 | 1.0004138,0.24814439 | 1.7546448,0.18415446"
       not_jump="false"
       sort_points="true"
       interpolator_type="CentripetalCatmullRom"
       interpolator_beta="0.2"
       start_linecap_type="butt"
       linejoin_type="round"
       miter_limit="4"
       scale_width="1"
       end_linecap_type="zerowidth" />
  </defs>
  <g
     inkscape:label="Ebene 1"
     inkscape:groupmode="layer"
     id="layer1"
     transform="translate(166.11832,72.976804)">
    <g
       id="g3463"
       transform="translate(-218.52115,-169.89061)">
      <path
         id="path1806"
         style="fill:#0000ff;stroke:#000000;stroke-width:1.5;stroke-dasharray:none"
         d="m 53.152828,97.663806 v 79.171914 a 58.398106,57.730698 0 0 0 58.397982,57.73084 58.398106,57.730698 0 0 0 58.39799,-57.73084 58.398106,57.730698 0 0 0 0,-5.2e-4 V 97.663806 Z" />
      <path
         id="path1406"
         style="fill:#ffff00;fill-opacity:1;stroke:#000000;stroke-width:1;stroke-dasharray:none"
         d="m 141.44305,145.54719 c -5.51012,0.001 -9.45849,5.07779 -14.9686,5.07979 -5.51014,0.001 -9.46103,-5.07352 -14.97118,-5.07152 -5.51013,10e-4 -9.45797,5.07831 -14.968077,5.08031 -5.510145,0.002 -9.461076,-5.07353 -14.971179,-5.07153 -5.510145,10e-4 -9.458441,5.07779 -14.968596,5.07979 -4.986005,0.002 -8.699384,-4.14187 -13.44259,-4.93096 v 31.12265 a 58.398106,57.730698 0 0 0 58.397982,57.73084 58.398106,57.730698 0 0 0 58.39799,-57.73084 58.398106,57.730698 0 0 0 0,-5.2e-4 v -31.17122 c -4.78849,0.75124 -8.51519,4.95291 -13.53457,4.95473 -5.51011,0.002 -9.46108,-5.07352 -14.97118,-5.07152 z" />
      <g
         id="g8056"
         transform="translate(-65.720498,-55.567104)">
        <g
           id="g5202"
           transform="translate(74.880555,72.089485)">
          <path
             id="path926"
             style="fill:#009f01;fill-opacity:1;stroke:#000000;stroke-width:0.4;stroke-dasharray:none"
             d="m 102.44698,138.84837 -6.340185,0.63976 c 0,0 0.667291,21.35704 -1.668632,28.25357 -1.996435,5.89424 -3.954919,7.42679 -11.679907,12.23594 -9.932757,6.18359 -7.304098,17.71383 -3.892786,22.1356 4.199091,5.4429 16.128803,7.22992 23.58151,7.34116 7.4527,-0.11123 19.38241,-1.89826 23.5815,-7.34116 3.41132,-4.42177 6.03998,-15.95201 -3.89278,-22.1356 -7.72499,-4.80915 -9.68348,-6.3417 -11.67991,-12.23594 -2.33593,-6.89653 -1.66863,-28.25357 -1.66863,-28.25357 z" />
          <path
             id="path1141"
             style="stroke-width:0.4"
             d="m 108.9796,139.30728 c 10e-6,0.52986 -2.94648,0.9594 -6.53264,0.9594 -3.586165,0 -6.541988,-0.42954 -6.541978,-0.9594 -1e-5,-0.52986 2.955813,-1.07738 6.541978,-1.07738 3.58616,0 6.53265,0.54752 6.53264,1.07738 z"
             sodipodi:nodetypes="sssss" />
          <path
             id="rect1247"
             style="fill:#009f01;fill-opacity:1;stroke:#000000;stroke-width:0.3;stroke-dasharray:none"
             d="m 95.43919,143.1588 c 0,0 2.439463,0.24789 7.02168,0.20856 4.58222,-0.0393 7.02167,-0.20856 7.02167,-0.20856 0.33894,0 0.61179,0.27286 0.61179,0.61179 0,0.33893 -0.27285,0.61179 -0.61179,0.61179 0,0 -2.53202,0.20856 -7.03558,0.20856 -4.503563,0 -7.00777,-0.20856 -7.00777,-0.20856 -0.338932,0 -0.61179,-0.27286 -0.61179,-0.61179 0,-0.33893 0.272858,-0.61179 0.61179,-0.61179 z"
             sodipodi:nodetypes="szssszsss" />
          <path
             style="fill:#ffffff;fill-opacity:1;fill-rule:nonzero;stroke:none;stroke-width:0.6;stroke-dasharray:none"
             d="m 96.162213,159.56587 h 0 c -0.01998,9.6e-4 -0.04158,0.17083 -0.114518,1.45389 -0.03819,0.67193 -0.157848,2.75475 -0.619297,5.08725 -0.32385,1.63698 -0.853085,3.60718 -1.745977,5.46514 -0.417914,0.8696 -0.914737,1.71317 -1.506458,2.48712 -0.582567,0.76197 -1.252318,1.45019 -2.022775,2.02989 -1.425888,1.07041 -2.995576,2.02706 -4.465967,2.94455 -1.559508,0.97311 -2.901972,1.83869 -4.131021,2.82726 -0.08218,0.0661 -0.163945,0.13282 -0.245244,0.20019 -1.33123,1.10314 -2.535473,2.37766 -3.412996,3.96244 -0.436331,0.788 -0.787515,1.6447 -1.035932,2.58532 -0.251231,0.95127 -0.394549,1.97778 -0.419283,3.09167 -0.05273,2.37352 0.391243,4.37777 1.017937,6.01045 0.697817,1.81798 1.639256,3.21994 2.452665,4.20707 0.138146,0.16764 0.274342,0.32545 0.407262,0.47345 0.783397,0.87229 1.551935,1.50026 2.133221,1.89955 0.973758,0.66888 1.238529,0.62163 1.250123,0.60282 0.023,-0.0373 -0.149887,-0.23995 -0.909695,-1.0107 -0.479909,-0.48682 -1.129236,-1.16845 -1.820809,-2.04295 -0.117125,-0.14811 -0.237591,-0.30488 -0.360022,-0.47014 -0.720317,-0.97232 -1.56676,-2.31544 -2.192927,-4.01986 -0.561952,-1.52964 -0.966189,-3.4016 -0.914717,-5.62559 0.02402,-1.03716 0.156022,-1.98069 0.381885,-2.84647 0.223213,-0.85563 0.537575,-1.63338 0.928212,-2.35018 0.786053,-1.44235 1.878904,-2.63323 3.137602,-3.69995 0.07673,-0.065 0.154039,-0.12956 0.231871,-0.19361 1.173411,-0.96562 2.450359,-1.82095 3.994533,-2.82884 1.440939,-0.9405 3.022321,-1.95564 4.455548,-3.09158 0.820031,-0.64773 1.519005,-1.40517 2.114902,-2.22757 0.604964,-0.83491 1.101416,-1.73362 1.509842,-2.64651 0.871278,-1.94744 1.352234,-3.98293 1.624844,-5.65056 0.397581,-2.43211 0.410356,-4.43694 0.402658,-5.16415 -0.01371,-1.29477 -0.105486,-1.46036 -0.125467,-1.4594 z"
             id="path3684"
             sodipodi:nodetypes="cssc"
             inkscape:path-effect="#path-effect3700"
             inkscape:original-d="m 96.162213,159.56587 c 0,0 0.574626,11.94101 -5.767902,16.83574 -5.668799,4.37478 -13.223429,6.63625 -13.420047,15.31103 -0.201924,8.9089 6.729689,13.18129 6.729689,13.18129" />
          <path
             style="fill:#ffffff;fill-opacity:1;fill-rule:nonzero;stroke:none;stroke-width:0.600001;stroke-dasharray:none"
             d="m 96.05098,199.3322 c 0.02199,0.021 0.160031,-0.0589 0.683862,-0.50167 0.506938,-0.42849 1.36815,-1.19611 2.338816,-2.02442 0.789107,-0.67337 1.574782,-1.31846 2.249432,-1.8079 0.16047,-0.11642 0.31032,-0.22085 0.44929,-0.31309 0.16075,-0.10669 0.30882,-0.19781 0.44125,-0.27051 0.12297,-0.0675 0.22656,-0.11583 0.30907,-0.14572 0.0403,-0.0146 0.0725,-0.0237 0.0964,-0.0284 0.0232,-0.005 0.0365,-0.004 0.035,-0.003 0.029,8.1e-4 0.072,0.005 0.13194,0.021 0.0596,0.0157 0.13213,0.0415 0.21903,0.0818 0.17304,0.0804 0.3807,0.2079 0.62546,0.39015 0.23832,0.17744 0.49975,0.39766 0.78372,0.65739 0.27866,0.25487 0.57368,0.54286 0.88395,0.8582 0.61252,0.62252 1.25515,1.32129 1.93345,2.05795 0.62458,0.67832 1.27466,1.3835 1.89742,2.01623 0.0271,0.0275 0.0542,0.055 0.0814,0.0824 0.55041,0.55448 1.08569,1.17379 1.70462,1.90136 0.54697,0.64297 1.14439,1.35264 1.74179,1.98019 0.59082,0.62064 1.20713,1.18952 1.85561,1.61577 0.32745,0.21523 0.66289,0.394 1.00771,0.52551 0.3527,0.13451 0.71142,0.21809 1.07658,0.24237 0.37917,0.0253 0.77083,-0.0189 1.15246,-0.10212 0.40221,-0.0877 0.80537,-0.22148 1.18868,-0.37523 0.86445,-0.34675 1.68652,-0.81872 2.28726,-1.20014 0.18236,-0.11579 0.35142,-0.22772 0.50446,-0.33226 0.51423,-0.35125 0.93415,-0.6814 1.22761,-0.93257 0.58723,-0.50259 0.63916,-0.64868 0.62436,-0.66731 -0.0231,-0.0291 -0.15436,0.0158 -0.813,0.40332 -0.29478,0.17345 -0.81322,0.48465 -1.30773,0.76833 -0.15699,0.0901 -0.33026,0.18792 -0.51449,0.28886 -0.61004,0.33422 -1.42444,0.74899 -2.24729,1.03844 -0.36528,0.12849 -0.73493,0.23333 -1.09097,0.29565 -0.33942,0.0594 -0.65896,0.0788 -0.94601,0.0473 -0.2801,-0.0306 -0.55916,-0.10647 -0.84108,-0.22604 -0.27658,-0.1173 -0.55414,-0.27601 -0.83484,-0.47302 -0.55984,-0.39292 -1.11134,-0.92335 -1.66762,-1.53361 -0.56258,-0.61717 -1.12908,-1.31568 -1.67142,-1.97559 -0.60506,-0.73622 -1.15421,-1.39237 -1.72551,-1.98478 -0.026,-0.027 -0.052,-0.054 -0.078,-0.0811 -0.60079,-0.62653 -1.22859,-1.32779 -1.84553,-2.01751 -0.66363,-0.74191 -1.3106,-1.46581 -1.93093,-2.11046 -0.31571,-0.32809 -0.62273,-0.63372 -0.91859,-0.90775 -0.3006,-0.27841 -0.59184,-0.5262 -0.87084,-0.73242 -0.28301,-0.20918 -0.56281,-0.38259 -0.83493,-0.50055 -0.13915,-0.0603 -0.28097,-0.10819 -0.42393,-0.13795 -0.14535,-0.0302 -0.29468,-0.0425 -0.44518,-0.0278 -0.0822,0.008 -0.16052,0.0255 -0.23237,0.0473 -0.0728,0.022 -0.14449,0.0499 -0.21388,0.081 -0.13918,0.0623 -0.28322,0.14385 -0.4268,0.2354 -0.15667,0.0999 -0.32122,0.21712 -0.4891,0.34544 -0.14581,0.11146 -0.2992,0.23553 -0.45906,0.3707 -0.66114,0.55904 -1.421585,1.29871 -2.140153,2.04461 -0.910744,0.94538 -1.660531,1.80149 -2.079318,2.31616 -0.434143,0.53353 -0.501826,0.68083 -0.481929,0.69979 z"
             id="path3756"
             sodipodi:nodetypes="csssc"
             inkscape:path-effect="#path-effect3758"
             inkscape:original-d="m 96.05098,199.3322 c 0,0 5.25762,-5.51694 6.56284,-5.61734 1.44604,-0.11123 4.42,3.7512 6.95215,6.34037 2.32061,2.37287 4.44938,6.00665 7.06339,6.22912 2.61401,0.22247 6.95216,-3.22579 6.95216,-3.22579" />
          <path
             style="fill:#ffffff;fill-opacity:1;stroke:none;stroke-width:0.600001;stroke-dasharray:none"
             d="m 97.727647,143.47285 c 0,0 -1.635943,-0.0623 -2.002827,-0.11759 -0.323273,-0.0487 -0.772488,-0.0156 -0.702968,0.44325 0.0695,0.45884 0.283565,0.41208 0.627695,0.42947 0.458466,0.0232 0.929201,0.15016 1.137761,-0.12794 0.20857,-0.27809 -0.142425,-0.32864 0.163485,-0.32864 0.30589,0 0.879341,0.12008 0.921061,-0.0885 0.0417,-0.20856 -0.144207,-0.21006 -0.144207,-0.21006 z"
             id="path5107"
             sodipodi:nodetypes="cssssssc" />
        </g>
        <g
           id="g7963"
           transform="translate(66.070514,55.15007)">
          <circle
             style="fill:#009f01;fill-opacity:1;stroke:#000000;stroke-width:0.4;stroke-dasharray:none"
             id="path5271"
             cx="111.25702"
             cy="196.59731"
             r="6.6463184" />
          <circle
             style="fill:#009f01;fill-opacity:1;stroke:#000000;stroke-width:0.4;stroke-dasharray:none"
             id="circle5325"
             cx="111.25702"
             cy="196.59731"
             r="4.7586064" />
          <path
             style="fill:#ffffff;fill-opacity:1;fill-rule:nonzero;stroke:none;stroke-width:0.4;stroke-dasharray:none"
             d="m 108.86569,190.87669 v 0 c -0.003,-0.008 -0.18275,-0.0471 -0.75062,0.26679 -0.059,0.0326 -0.12174,0.0687 -0.1878,0.10859 -0.53154,0.32106 -1.25719,0.87941 -1.91744,1.79454 0,0 -0.004,0.005 -0.004,0.005 -0.27334,0.38061 -0.47024,0.79602 -0.61274,1.19832 -0.14561,0.41111 -0.23387,0.8066 -0.29203,1.14028 -0.01,0.0569 -0.019,0.11215 -0.0273,0.16554 -0.12154,0.77721 -0.0543,1.01177 -0.0493,1.01199 0.0153,6.7e-4 0.0736,-0.37997 0.22971,-0.97439 0.0134,-0.0511 0.0279,-0.10381 0.0435,-0.15792 0.0918,-0.31831 0.22227,-0.68679 0.39605,-1.06363 0.17051,-0.36977 0.37945,-0.74083 0.63315,-1.08753 0,0 0.003,-0.005 0.003,-0.005 0.63584,-0.86846 1.26391,-1.44839 1.74075,-1.81677 0.0586,-0.0453 0.11443,-0.087 0.16693,-0.12498 0.41536,-0.30094 0.63401,-0.44328 0.62738,-0.46129 z"
             id="path5327"
             sodipodi:nodetypes="csc"
             inkscape:path-effect="#path-effect5329"
             inkscape:original-d="m 108.86569,190.87669 c 0,0 -1.41182,0.52003 -2.69546,2.28648 -1.06086,1.45987 -1.1455,3.40475 -1.1455,3.40475" />
          <path
             style="fill:#ffffff;fill-opacity:1;fill-rule:nonzero;stroke:none;stroke-width:0.4;stroke-dasharray:none"
             d="m 116.34335,196.31922 c -0.0105,0.005 0.0174,0.13769 0.022,0.42268 2.9e-4,0.0181 3.6e-4,0.0369 1.8e-4,0.0565 -0.003,0.30727 -0.0646,0.75191 -0.25944,1.35247 -0.0225,0.0697 -0.0453,0.13625 -0.0682,0.19967 -0.20526,0.56991 -0.45059,0.98122 -0.64398,1.24182 -0.008,0.0112 -0.0166,0.0222 -0.0248,0.033 -0.21361,0.2804 -0.36336,0.44058 -0.35469,0.45476 0.003,0.005 0.16388,0.014 0.50425,-0.32276 0.0103,-0.0102 0.0206,-0.0206 0.0311,-0.0312 0.24684,-0.25142 0.5563,-0.6538 0.77437,-1.27381 0.0238,-0.0677 0.0468,-0.13894 0.0686,-0.21358 0.18644,-0.64267 0.16957,-1.13397 0.11937,-1.45156 -0.003,-0.0205 -0.007,-0.0401 -0.01,-0.059 -0.0652,-0.36054 -0.15698,-0.40976 -0.15866,-0.409 z"
             id="path5331"
             sodipodi:nodetypes="csc"
             inkscape:path-effect="#path-effect5335"
             inkscape:original-d="m 116.34335,196.31922 c 0,0 0.28574,0.63761 -0.094,1.87556 -0.42687,1.39148 -1.23494,1.88528 -1.23494,1.88528" />
        </g>
      </g>
      <g
         id="g3152">
        <g
           id="g8034"
           transform="translate(-42.314808,-32.370804)">
          <circle
             style="fill:#009f01;fill-opacity:1;stroke:#000000;stroke-width:0.4;stroke-dasharray:none"
             id="circle8026"
             cx="111.25702"
             cy="196.59731"
             r="6.6463184" />
          <circle
             style="fill:#009f01;fill-opacity:1;stroke:#000000;stroke-width:0.4;stroke-dasharray:none"
             id="circle8028"
             cx="111.25702"
             cy="196.59731"
             r="4.7586064" />
          <path
             style="fill:#ffffff;fill-opacity:1;fill-rule:nonzero;stroke:none;stroke-width:0.4;stroke-dasharray:none"
             d="m 108.86569,190.87669 v 0 c -0.003,-0.008 -0.18275,-0.0471 -0.75062,0.26679 -0.059,0.0326 -0.12174,0.0687 -0.1878,0.10859 -0.53154,0.32106 -1.25719,0.87941 -1.91744,1.79454 0,0 -0.004,0.005 -0.004,0.005 -0.27334,0.38061 -0.47024,0.79602 -0.61274,1.19832 -0.14561,0.41111 -0.23387,0.8066 -0.29203,1.14028 -0.01,0.0569 -0.019,0.11215 -0.0273,0.16554 -0.12154,0.77721 -0.0543,1.01177 -0.0493,1.01199 0.0153,6.7e-4 0.0736,-0.37997 0.22971,-0.97439 0.0134,-0.0511 0.0279,-0.10381 0.0435,-0.15792 0.0918,-0.31831 0.22227,-0.68679 0.39605,-1.06363 0.17051,-0.36977 0.37945,-0.74083 0.63315,-1.08753 0,0 0.003,-0.005 0.003,-0.005 0.63584,-0.86846 1.26391,-1.44839 1.74075,-1.81677 0.0586,-0.0453 0.11443,-0.087 0.16693,-0.12498 0.41536,-0.30094 0.63401,-0.44328 0.62738,-0.46129 z"
             id="path8030"
             sodipodi:nodetypes="csc"
             inkscape:path-effect="#path-effect8038"
             inkscape:original-d="m 108.86569,190.87669 c 0,0 -1.41182,0.52003 -2.69546,2.28648 -1.06086,1.45987 -1.1455,3.40475 -1.1455,3.40475" />
          <path
             style="fill:#ffffff;fill-opacity:1;fill-rule:nonzero;stroke:none;stroke-width:0.4;stroke-dasharray:none"
             d="m 116.34335,196.31922 c -0.0105,0.005 0.0174,0.13769 0.022,0.42268 2.9e-4,0.0181 3.6e-4,0.0369 1.8e-4,0.0565 -0.003,0.30727 -0.0646,0.75191 -0.25944,1.35247 -0.0225,0.0697 -0.0453,0.13625 -0.0682,0.19967 -0.20526,0.56991 -0.45059,0.98122 -0.64398,1.24182 -0.008,0.0112 -0.0166,0.0222 -0.0248,0.033 -0.21361,0.2804 -0.36336,0.44058 -0.35469,0.45476 0.003,0.005 0.16388,0.014 0.50425,-0.32276 0.0103,-0.0102 0.0206,-0.0206 0.0311,-0.0312 0.24684,-0.25142 0.5563,-0.6538 0.77437,-1.27381 0.0238,-0.0677 0.0468,-0.13894 0.0686,-0.21358 0.18644,-0.64267 0.16957,-1.13397 0.11937,-1.45156 -0.003,-0.0205 -0.007,-0.0401 -0.01,-0.059 -0.0652,-0.36054 -0.15698,-0.40976 -0.15866,-0.409 z"
             id="path8032"
             sodipodi:nodetypes="csc"
             inkscape:path-effect="#path-effect8042"
             inkscape:original-d="m 116.34335,196.31922 c 0,0 0.28574,0.63761 -0.094,1.87556 -0.42687,1.39148 -1.23494,1.88528 -1.23494,1.88528" />
        </g>
        <g
           id="g3094"
           transform="translate(-21.677302,-32.370804)">
          <circle
             style="fill:#009f01;fill-opacity:1;stroke:#000000;stroke-width:0.4;stroke-dasharray:none"
             id="circle3086"
             cx="111.25702"
             cy="196.59731"
             r="6.6463184" />
          <circle
             style="fill:#009f01;fill-opacity:1;stroke:#000000;stroke-width:0.4;stroke-dasharray:none"
             id="circle3088"
             cx="111.25702"
             cy="196.59731"
             r="4.7586064" />
          <path
             style="fill:#ffffff;fill-opacity:1;fill-rule:nonzero;stroke:none;stroke-width:0.4;stroke-dasharray:none"
             d="m 108.86569,190.87669 v 0 c -0.003,-0.008 -0.18275,-0.0471 -0.75062,0.26679 -0.059,0.0326 -0.12174,0.0687 -0.1878,0.10859 -0.53154,0.32106 -1.25719,0.87941 -1.91744,1.79454 0,0 -0.004,0.005 -0.004,0.005 -0.27334,0.38061 -0.47024,0.79602 -0.61274,1.19832 -0.14561,0.41111 -0.23387,0.8066 -0.29203,1.14028 -0.01,0.0569 -0.019,0.11215 -0.0273,0.16554 -0.12154,0.77721 -0.0543,1.01177 -0.0493,1.01199 0.0153,6.7e-4 0.0736,-0.37997 0.22971,-0.97439 0.0134,-0.0511 0.0279,-0.10381 0.0435,-0.15792 0.0918,-0.31831 0.22227,-0.68679 0.39605,-1.06363 0.17051,-0.36977 0.37945,-0.74083 0.63315,-1.08753 0,0 0.003,-0.005 0.003,-0.005 0.63584,-0.86846 1.26391,-1.44839 1.74075,-1.81677 0.0586,-0.0453 0.11443,-0.087 0.16693,-0.12498 0.41536,-0.30094 0.63401,-0.44328 0.62738,-0.46129 z"
             id="path3090"
             sodipodi:nodetypes="csc"
             inkscape:path-effect="#path-effect3098"
             inkscape:original-d="m 108.86569,190.87669 c 0,0 -1.41182,0.52003 -2.69546,2.28648 -1.06086,1.45987 -1.1455,3.40475 -1.1455,3.40475" />
          <path
             style="fill:#ffffff;fill-opacity:1;fill-rule:nonzero;stroke:none;stroke-width:0.4;stroke-dasharray:none"
             d="m 116.34335,196.31922 c -0.0105,0.005 0.0174,0.13769 0.022,0.42268 2.9e-4,0.0181 3.6e-4,0.0369 1.8e-4,0.0565 -0.003,0.30727 -0.0646,0.75191 -0.25944,1.35247 -0.0225,0.0697 -0.0453,0.13625 -0.0682,0.19967 -0.20526,0.56991 -0.45059,0.98122 -0.64398,1.24182 -0.008,0.0112 -0.0166,0.0222 -0.0248,0.033 -0.21361,0.2804 -0.36336,0.44058 -0.35469,0.45476 0.003,0.005 0.16388,0.014 0.50425,-0.32276 0.0103,-0.0102 0.0206,-0.0206 0.0311,-0.0312 0.24684,-0.25142 0.5563,-0.6538 0.77437,-1.27381 0.0238,-0.0677 0.0468,-0.13894 0.0686,-0.21358 0.18644,-0.64267 0.16957,-1.13397 0.11937,-1.45156 -0.003,-0.0205 -0.007,-0.0401 -0.01,-0.059 -0.0652,-0.36054 -0.15698,-0.40976 -0.15866,-0.409 z"
             id="path3092"
             sodipodi:nodetypes="csc"
             inkscape:path-effect="#path-effect3102"
             inkscape:original-d="m 116.34335,196.31922 c 0,0 0.28574,0.63761 -0.094,1.87556 -0.42687,1.39148 -1.23494,1.88528 -1.23494,1.88528" />
        </g>
      </g>
      <g
         id="g3174"
         inkscape:transform-center-x="-32.289846"
         inkscape:transform-center-y="18.670933"
         transform="matrix(-1,0,0,1,223.10162,0)">
        <g
           id="g3162"
           transform="translate(-42.314808,-32.370804)">
          <circle
             style="fill:#009f01;fill-opacity:1;stroke:#000000;stroke-width:0.4;stroke-dasharray:none"
             id="circle3154"
             cx="111.25702"
             cy="196.59731"
             r="6.6463184" />
          <circle
             style="fill:#009f01;fill-opacity:1;stroke:#000000;stroke-width:0.4;stroke-dasharray:none"
             id="circle3156"
             cx="111.25702"
             cy="196.59731"
             r="4.7586064" />
          <path
             style="fill:#ffffff;fill-opacity:1;fill-rule:nonzero;stroke:none;stroke-width:0.4;stroke-dasharray:none"
             d="m 108.86569,190.87669 v 0 c -0.003,-0.008 -0.18275,-0.0471 -0.75062,0.26679 -0.059,0.0326 -0.12174,0.0687 -0.1878,0.10859 -0.53154,0.32106 -1.25719,0.87941 -1.91744,1.79454 0,0 -0.004,0.005 -0.004,0.005 -0.27334,0.38061 -0.47024,0.79602 -0.61274,1.19832 -0.14561,0.41111 -0.23387,0.8066 -0.29203,1.14028 -0.01,0.0569 -0.019,0.11215 -0.0273,0.16554 -0.12154,0.77721 -0.0543,1.01177 -0.0493,1.01199 0.0153,6.7e-4 0.0736,-0.37997 0.22971,-0.97439 0.0134,-0.0511 0.0279,-0.10381 0.0435,-0.15792 0.0918,-0.31831 0.22227,-0.68679 0.39605,-1.06363 0.17051,-0.36977 0.37945,-0.74083 0.63315,-1.08753 0,0 0.003,-0.005 0.003,-0.005 0.63584,-0.86846 1.26391,-1.44839 1.74075,-1.81677 0.0586,-0.0453 0.11443,-0.087 0.16693,-0.12498 0.41536,-0.30094 0.63401,-0.44328 0.62738,-0.46129 z"
             id="path3158"
             sodipodi:nodetypes="csc"
             inkscape:path-effect="#path-effect3178"
             inkscape:original-d="m 108.86569,190.87669 c 0,0 -1.41182,0.52003 -2.69546,2.28648 -1.06086,1.45987 -1.1455,3.40475 -1.1455,3.40475" />
          <path
             style="fill:#ffffff;fill-opacity:1;fill-rule:nonzero;stroke:none;stroke-width:0.4;stroke-dasharray:none"
             d="m 116.34335,196.31922 c -0.0105,0.005 0.0174,0.13769 0.022,0.42268 2.9e-4,0.0181 3.6e-4,0.0369 1.8e-4,0.0565 -0.003,0.30727 -0.0646,0.75191 -0.25944,1.35247 -0.0225,0.0697 -0.0453,0.13625 -0.0682,0.19967 -0.20526,0.56991 -0.45059,0.98122 -0.64398,1.24182 -0.008,0.0112 -0.0166,0.0222 -0.0248,0.033 -0.21361,0.2804 -0.36336,0.44058 -0.35469,0.45476 0.003,0.005 0.16388,0.014 0.50425,-0.32276 0.0103,-0.0102 0.0206,-0.0206 0.0311,-0.0312 0.24684,-0.25142 0.5563,-0.6538 0.77437,-1.27381 0.0238,-0.0677 0.0468,-0.13894 0.0686,-0.21358 0.18644,-0.64267 0.16957,-1.13397 0.11937,-1.45156 -0.003,-0.0205 -0.007,-0.0401 -0.01,-0.059 -0.0652,-0.36054 -0.15698,-0.40976 -0.15866,-0.409 z"
             id="path3160"
             sodipodi:nodetypes="csc"
             inkscape:path-effect="#path-effect3182"
             inkscape:original-d="m 116.34335,196.31922 c 0,0 0.28574,0.63761 -0.094,1.87556 -0.42687,1.39148 -1.23494,1.88528 -1.23494,1.88528" />
        </g>
        <g
           id="g3172"
           transform="translate(-21.677302,-32.370804)">
          <circle
             style="fill:#009f01;fill-opacity:1;stroke:#000000;stroke-width:0.4;stroke-dasharray:none"
             id="circle3164"
             cx="111.25702"
             cy="196.59731"
             r="6.6463184" />
          <circle
             style="fill:#009f01;fill-opacity:1;stroke:#000000;stroke-width:0.4;stroke-dasharray:none"
             id="circle3166"
             cx="111.25702"
             cy="196.59731"
             r="4.7586064" />
          <path
             style="fill:#ffffff;fill-opacity:1;fill-rule:nonzero;stroke:none;stroke-width:0.4;stroke-dasharray:none"
             d="m 108.86569,190.87669 v 0 c -0.003,-0.008 -0.18275,-0.0471 -0.75062,0.26679 -0.059,0.0326 -0.12174,0.0687 -0.1878,0.10859 -0.53154,0.32106 -1.25719,0.87941 -1.91744,1.79454 0,0 -0.004,0.005 -0.004,0.005 -0.27334,0.38061 -0.47024,0.79602 -0.61274,1.19832 -0.14561,0.41111 -0.23387,0.8066 -0.29203,1.14028 -0.01,0.0569 -0.019,0.11215 -0.0273,0.16554 -0.12154,0.77721 -0.0543,1.01177 -0.0493,1.01199 0.0153,6.7e-4 0.0736,-0.37997 0.22971,-0.97439 0.0134,-0.0511 0.0279,-0.10381 0.0435,-0.15792 0.0918,-0.31831 0.22227,-0.68679 0.39605,-1.06363 0.17051,-0.36977 0.37945,-0.74083 0.63315,-1.08753 0,0 0.003,-0.005 0.003,-0.005 0.63584,-0.86846 1.26391,-1.44839 1.74075,-1.81677 0.0586,-0.0453 0.11443,-0.087 0.16693,-0.12498 0.41536,-0.30094 0.63401,-0.44328 0.62738,-0.46129 z"
             id="path3168"
             sodipodi:nodetypes="csc"
             inkscape:path-effect="#path-effect3186"
             inkscape:original-d="m 108.86569,190.87669 c 0,0 -1.41182,0.52003 -2.69546,2.28648 -1.06086,1.45987 -1.1455,3.40475 -1.1455,3.40475" />
          <path
             style="fill:#ffffff;fill-opacity:1;fill-rule:nonzero;stroke:none;stroke-width:0.4;stroke-dasharray:none"
             d="m 116.34335,196.31922 c -0.0105,0.005 0.0174,0.13769 0.022,0.42268 2.9e-4,0.0181 3.6e-4,0.0369 1.8e-4,0.0565 -0.003,0.30727 -0.0646,0.75191 -0.25944,1.35247 -0.0225,0.0697 -0.0453,0.13625 -0.0682,0.19967 -0.20526,0.56991 -0.45059,0.98122 -0.64398,1.24182 -0.008,0.0112 -0.0166,0.0222 -0.0248,0.033 -0.21361,0.2804 -0.36336,0.44058 -0.35469,0.45476 0.003,0.005 0.16388,0.014 0.50425,-0.32276 0.0103,-0.0102 0.0206,-0.0206 0.0311,-0.0312 0.24684,-0.25142 0.5563,-0.6538 0.77437,-1.27381 0.0238,-0.0677 0.0468,-0.13894 0.0686,-0.21358 0.18644,-0.64267 0.16957,-1.13397 0.11937,-1.45156 -0.003,-0.0205 -0.007,-0.0401 -0.01,-0.059 -0.0652,-0.36054 -0.15698,-0.40976 -0.15866,-0.409 z"
             id="path3170"
             sodipodi:nodetypes="csc"
             inkscape:path-effect="#path-effect3190"
             inkscape:original-d="m 116.34335,196.31922 c 0,0 0.28574,0.63761 -0.094,1.87556 -0.42687,1.39148 -1.23494,1.88528 -1.23494,1.88528" />
        </g>
      </g>
      <g
         id="g1752"
         transform="translate(0.51961561,0.64430203)">
        <path
           style="fill:#ffffff;stroke:#000000;stroke-width:0.4;stroke-dasharray:none"
           d="m 149.39458,112.8891 c 0,0 -6.64626,1.07063 -18.43711,2.23859 -11.79086,1.16797 -19.73355,1.22358 -19.73355,1.22358 0,0 -7.9427,-0.0556 -19.733555,-1.22358 C 79.69951,113.95973 73.05325,112.8891 73.05325,112.8891 l -3.865398,-1.79365 1.679997,6.17865 13.213983,13.44995 16.753448,3.93273 20.2929,0.15731 8.02277,-0.55058 10.77569,-4.01139 9.43856,-10.61838 4.95524,-8.65201 -2.35964,0.23596 z"
           id="path1168"
           sodipodi:nodetypes="cscsc" />
        <path
           style="fill:none;stroke:#000000;stroke-width:0.4;stroke-dasharray:none"
           d="m 72.322959,115.46504 c 0,0 8.652012,2.4383 19.938957,3.3035 11.286944,0.8652 18.955584,0.80985 18.955584,0.80985 0,0 7.60982,0.0554 18.89677,-0.80985 11.28694,-0.8652 19.93895,-3.3035 19.93895,-3.3035"
           id="path1204"
           sodipodi:nodetypes="cscsc" />
        <path
           style="fill:none;stroke:#000000;stroke-width:0.4;stroke-dasharray:none"
           d="m 75.361365,119.6791 c 0,0 4.783082,1.90019 18.353691,2.84569 13.570604,0.94549 17.504294,0.73087 17.504294,0.73087 0,0 3.92999,0.21471 17.5006,-0.73078 13.57061,-0.9455 18.45201,-2.88502 18.45201,-2.88502"
           id="path1243"
           sodipodi:nodetypes="cscsc" />
        <path
           style="fill:none;stroke:#000000;stroke-width:0.4;stroke-dasharray:none"
           d="m 79.393615,124.10988 c 0,0 5.710727,1.22632 13.340228,1.81623 7.629507,0.58991 18.483657,0.62432 18.483657,0.62432"
           id="path1247"
           sodipodi:nodetypes="csc" />
        <path
           style="fill:none;stroke:#000000;stroke-width:0.4;stroke-dasharray:none"
           d="m 143.04138,124.10988 c 0,0 -5.71073,1.22632 -13.34022,1.81623 -7.62951,0.58991 -18.48366,0.62432 -18.48366,0.62432"
           id="path1249"
           sodipodi:nodetypes="csc" />
        <path
           style="fill:none;stroke:#000000;stroke-width:0.4;stroke-dasharray:none"
           d="m 83.33092,127.64818 c 0,0 2.041548,1.16136 13.276233,1.49506 11.234677,0.3337 14.610347,0.22942 14.610347,0.22942"
           id="path1251"
           sodipodi:nodetypes="csc" />
        <path
           style="fill:none;stroke:#000000;stroke-width:0.4;stroke-dasharray:none"
           d="m 139.12732,127.65548 c 0,0 -2.06479,1.15406 -13.29947,1.48776 -11.23468,0.3337 -14.61035,0.22942 -14.61035,0.22942"
           id="path1253"
           sodipodi:nodetypes="csc" />
        <path
           style="fill:none;stroke:#000000;stroke-width:0.4;stroke-dasharray:none"
           d="m 86.259828,129.69697 c 0,0 2.867243,0.85616 11.665225,1.38102 9.019867,0.5381 13.292447,0.41174 13.292447,0.41174"
           id="path1255"
           sodipodi:nodetypes="csc" />
        <path
           style="fill:none;stroke:#000000;stroke-width:0.4;stroke-dasharray:none"
           d="m 136.20646,129.70392 c 0,0 -2.89853,0.84921 -11.69651,1.37407 -9.01987,0.5381 -13.29245,0.41174 -13.29245,0.41174"
           id="path1257"
           sodipodi:nodetypes="csc" />
        <g
           id="g1415">
          <path
             style="fill:#000000;fill-rule:nonzero;stroke:none;stroke-width:0.4;stroke-dasharray:none"
             d="m 71.079493,114.32307 c 4.59e-4,1.1e-4 0.05439,0.0247 0.402727,0.091 0.195879,0.0373 1.099207,0.19742 2.068687,0.36166 0.680448,0.11528 1.475505,0.24617 2.267192,0.3647 0.839258,0.12564 1.585248,0.22405 2.229874,0.29128 5.95e-4,7e-5 0.06399,0.007 0.06459,0.007 1.803323,0.19866 3.535538,0.38728 4.945438,0.5134 0.81846,0.0732 1.38168,0.11138 1.719497,0.11197 0.551671,9.6e-4 0.638547,-0.0934 0.641467,-0.12719 0.003,-0.0348 -0.06638,-0.13994 -0.607708,-0.23957 -0.337644,-0.0621 -0.884813,-0.12656 -1.705964,-0.21757 -1.343112,-0.14886 -3.193795,-0.34554 -4.920468,-0.60116 7.4e-5,1e-5 -0.06404,-0.01 -0.06397,-0.01 -0.619118,-0.0963 -1.364505,-0.23892 -2.178882,-0.41259 -0.778859,-0.16609 -1.551347,-0.34576 -2.220584,-0.50859 -1.059646,-0.25784 -1.718707,-0.43811 -2.019877,-0.51562 -0.340145,-0.0875 -0.396864,-0.0896 -0.396405,-0.0895 z"
             id="path1301"
             inkscape:path-effect="#path-effect1303"
             inkscape:original-d="m 71.1923,113.83296 c 0,0 4.219555,0.97119 6.892114,1.31746 3.546548,0.45951 7.334547,0.78655 7.334547,0.78655"
             sodipodi:nodetypes="csc" />
          <path
             style="fill:#000000;fill-rule:nonzero;stroke:none;stroke-width:0.4;stroke-dasharray:none"
             d="m 72.809896,118.09849 c 0,0 0,0 0,0 4.59e-4,1.1e-4 0.05518,0.0256 0.402727,0.091 0.198109,0.0372 1.101465,0.19368 2.0701,0.3548 0.681663,0.11339 1.476574,0.24216 2.26802,0.35919 0.812731,0.12017 1.534981,0.21517 2.16708,0.28296 -3.52e-4,-3e-5 0.06273,0.007 0.06237,0.007 1.830941,0.20398 3.567896,0.39754 5.008652,0.53009 0.819789,0.0754 1.382916,0.11527 1.719049,0.11645 0.552325,0.002 0.63856,-0.0935 0.641467,-0.12719 0.003,-0.0346 -0.06557,-0.14078 -0.607708,-0.23957 -0.336089,-0.0612 -0.883505,-0.124 -1.706412,-0.21309 -1.361774,-0.14744 -3.243905,-0.34348 -4.985806,-0.60109 -0.0202,-0.003 -0.04044,-0.006 -0.06073,-0.009 -0.60675,-0.0954 -1.331742,-0.23552 -2.118577,-0.40481 -0.778026,-0.16739 -1.55043,-0.34911 -2.219756,-0.5141 -1.064876,-0.2625 -1.708201,-0.44189 -2.018463,-0.52248 -0.339039,-0.0881 -0.396864,-0.0896 -0.396405,-0.0895 z"
             id="path1305"
             inkscape:path-effect="#path-effect1309"
             inkscape:original-d="m 72.922703,117.60838 c 0,0 4.219555,0.97119 6.892114,1.31746 3.546548,0.45951 7.334547,0.78655 7.334547,0.78655"
             sodipodi:nodetypes="csc" />
          <path
             style="fill:#000000;fill-rule:nonzero;stroke:none;stroke-width:0.4;stroke-dasharray:none"
             d="m 74.534031,122.13074 c 4.59e-4,1.1e-4 0.05492,0.0251 0.402727,0.091 0.197334,0.0374 1.100252,0.19612 2.069191,0.35922 0.681101,0.11464 1.475985,0.24476 2.267479,0.36277 0.831503,0.12398 1.56963,0.22128 2.210243,0.28887 -3.2e-5,-1e-5 0.01949,0.002 0.01945,0.002 1.82446,0.20228 3.575479,0.3946 5.009541,0.52394 0.819439,0.0739 1.382487,0.1125 1.719366,0.11328 0.552101,0.001 0.638553,-0.0934 0.641467,-0.12719 0.003,-0.0347 -0.0659,-0.14017 -0.607708,-0.23957 -0.336795,-0.0618 -0.883806,-0.12572 -1.706095,-0.21625 -1.362587,-0.15002 -3.242004,-0.34854 -4.984917,-0.60725 -6e-6,0 -0.01892,-0.003 -0.01892,-0.003 -0.614985,-0.0958 -1.354092,-0.23762 -2.160139,-0.41002 -0.778405,-0.16649 -1.550874,-0.34688 -2.220297,-0.51052 -1.061014,-0.25937 -1.714575,-0.43937 -2.019372,-0.51806 -0.339514,-0.0876 -0.396864,-0.0896 -0.396405,-0.0895 z"
             id="path1325"
             inkscape:path-effect="#path-effect1329"
             inkscape:original-d="m 74.646838,121.64063 c 0,0 4.219555,0.97119 6.892114,1.31746 3.546548,0.45951 7.334547,0.78655 7.334547,0.78655"
             sodipodi:nodetypes="csc" />
          <path
             style="fill:#000000;fill-rule:nonzero;stroke:none;stroke-width:0.4;stroke-dasharray:none"
             d="m 77.148041,125.8571 c 4.59e-4,1.1e-4 0.05452,0.024 0.402727,0.091 0.196121,0.0377 1.098048,0.20083 2.067441,0.36771 0.68014,0.11708 1.474835,0.24981 2.26642,0.36979 0.838181,0.12704 1.586083,0.22669 2.230116,0.29385 4.42e-4,5e-5 0.06592,0.007 0.06636,0.007 1.791005,0.19714 3.54731,0.38379 4.944922,0.50464 0.818998,0.0708 1.381809,0.10687 1.720013,0.10682 0.55175,-8e-5 0.63854,-0.0933 0.641467,-0.12719 v 0 c 0.003,-0.0349 -0.06648,-0.1389 -0.607708,-0.23957 -0.338066,-0.0629 -0.884123,-0.12923 -1.705448,-0.22272 -1.345284,-0.15314 -3.18829,-0.35336 -4.917463,-0.60946 9e-5,1e-5 -0.0658,-0.01 -0.06571,-0.01 -0.619313,-0.0964 -1.363593,-0.23776 -2.17864,-0.41002 -0.779076,-0.16465 -1.551712,-0.34245 -2.221357,-0.5035 -1.054315,-0.25356 -1.725719,-0.43418 -2.021122,-0.50957 -0.34032,-0.0868 -0.396864,-0.0896 -0.396405,-0.0895 z"
             id="path1331"
             inkscape:path-effect="#path-effect1335"
             inkscape:original-d="m 77.260848,125.36699 c 0,0 4.219555,0.97119 6.892114,1.31746 3.546548,0.45951 7.334547,0.78655 7.334547,0.78655"
             sodipodi:nodetypes="csc" />
          <path
             style="fill:#000000;fill-rule:nonzero;stroke:none;stroke-width:0.4;stroke-dasharray:none"
             d="m 79.153735,128.05943 c 0,0 0,0 0,0 4.59e-4,1.1e-4 0.05467,0.0252 0.402727,0.091 0.196702,0.0372 1.100252,0.19543 2.06943,0.35805 0.680964,0.11426 1.476035,0.24404 2.267637,0.36175 0.840585,0.12499 1.584879,0.22268 2.22968,0.29018 -3e-6,0 0.008,8.8e-4 0.008,8.8e-4 1.827237,0.20214 3.565059,0.39412 5.001314,0.52472 0.818886,0.0745 1.382137,0.11363 1.719239,0.11455 0.551911,0.002 0.638553,-0.0934 0.641467,-0.12719 0.003,-0.0347 -0.06605,-0.14043 -0.607708,-0.23957 -0.336974,-0.0617 -0.88442,-0.12512 -1.706222,-0.21499 -1.359175,-0.14862 -3.237342,-0.34594 -4.977271,-0.6044 -8e-6,0 -0.0079,-0.001 -0.0079,-0.001 -0.618625,-0.096 -1.364645,-0.23916 -2.179076,-0.41369 -0.778501,-0.16683 -1.550926,-0.34759 -2.22014,-0.51155 -1.06252,-0.26031 -1.713537,-0.44019 -2.019133,-0.51922 -0.339693,-0.0878 -0.396864,-0.0896 -0.396405,-0.0895 z"
             id="path1337"
             inkscape:path-effect="#path-effect1341"
             inkscape:original-d="m 79.266542,127.56932 c 0,0 4.219555,0.97119 6.892114,1.31746 3.546548,0.45951 7.334547,0.78655 7.334547,0.78655"
             sodipodi:nodetypes="csc" />
          <path
             style="fill:#000000;fill-rule:nonzero;stroke:none;stroke-width:0.4;stroke-dasharray:none"
             d="m 81.592029,130.18311 c 4.59e-4,1.1e-4 0.05517,0.0212 0.402727,0.091 0.197721,0.0397 1.093016,0.21478 2.062329,0.39253 0.678928,0.1245 1.472148,0.26474 2.263247,0.3907 0.834561,0.13288 1.588922,0.23749 2.231099,0.30448 1.4e-4,1e-5 0.05962,0.007 0.05976,0.007 1.765024,0.19385 3.584377,0.36842 4.9567,0.47028 0.811826,0.0602 1.382525,0.0883 1.72214,0.0856 0.552141,-0.004 0.638512,-0.093 0.641467,-0.12719 0.003,-0.0352 -0.06685,-0.13462 -0.607708,-0.23957 -0.339847,-0.0659 -0.880943,-0.14017 -1.703321,-0.24396 -1.367436,-0.17259 -3.166828,-0.38538 -4.918887,-0.64554 1.39e-4,2e-5 -0.05925,-0.009 -0.05911,-0.009 -0.62047,-0.0966 -1.359292,-0.23285 -2.177657,-0.39939 -0.779969,-0.15873 -1.553097,-0.32887 -2.22453,-0.48259 -1.036543,-0.2373 -1.717739,-0.40873 -2.026234,-0.48475 -0.340945,-0.084 -0.396864,-0.0896 -0.396405,-0.0895 z"
             id="path1343"
             inkscape:path-effect="#path-effect1347"
             inkscape:original-d="m 81.704836,129.693 c 0,0 4.219555,0.97119 6.892114,1.31746 3.546548,0.45951 7.334547,0.78655 7.334547,0.78655"
             sodipodi:nodetypes="csc" />
        </g>
        <g
           id="g1431"
           inkscape:transform-center-x="-27.712149"
           inkscape:transform-center-y="8.2313521"
           transform="matrix(-1,0,0,1,222.43538,0)">
          <path
             style="fill:#000000;fill-rule:nonzero;stroke:none;stroke-width:0.4;stroke-dasharray:none"
             d="m 71.079493,114.32307 c 4.59e-4,1.1e-4 0.05544,0.0249 0.402727,0.091 0.198703,0.0378 1.100261,0.19751 2.06871,0.36155 0.681391,0.11541 1.475897,0.24622 2.267163,0.36484 0.806102,0.12084 1.526628,0.21677 2.155423,0.28447 -4.54e-4,-5e-5 0.07476,0.008 0.07431,0.008 1.814935,0.20214 3.585165,0.39419 5.010051,0.52059 0.820598,0.0728 1.383219,0.11027 1.719618,0.11076 0.5525,8e-4 0.638554,-0.0935 0.641467,-0.12719 0.003,-0.0347 -0.06559,-0.13963 -0.607708,-0.23957 -0.33641,-0.062 -0.882518,-0.1269 -1.705843,-0.21878 -1.364824,-0.15229 -3.239186,-0.35242 -4.984407,-0.61059 -0.02403,-0.004 -0.04812,-0.007 -0.07227,-0.0113 -0.604599,-0.0954 -1.324423,-0.23353 -2.106758,-0.4002 -0.778203,-0.16579 -1.550757,-0.34544 -2.220613,-0.50845 -1.058007,-0.25747 -1.716534,-0.43768 -2.019853,-0.51573 -0.339124,-0.0873 -0.396864,-0.0896 -0.396405,-0.0895 z"
             id="path1417"
             inkscape:path-effect="#path-effect1435"
             inkscape:original-d="m 71.1923,113.83296 c 0,0 4.219555,0.97119 6.892114,1.31746 3.546548,0.45951 7.334547,0.78655 7.334547,0.78655"
             sodipodi:nodetypes="csc" />
          <path
             style="fill:#000000;fill-rule:nonzero;stroke:none;stroke-width:0.4;stroke-dasharray:none"
             d="m 72.809896,118.09849 c 0,0 0,0 0,0 4.59e-4,1.1e-4 0.05597,0.024 0.402727,0.091 0.200066,0.0386 1.098962,0.20209 2.06706,0.36956 0.681232,0.11785 1.475183,0.25106 2.266141,0.37158 0.787158,0.11994 1.496811,0.21601 2.116382,0.28362 0.038,0.004 0.0759,0.008 0.113665,0.0122 1.800268,0.20072 3.601368,0.38983 5.011717,0.50929 0.821992,0.0696 1.383864,0.10421 1.720309,0.10386 0.552869,-5.7e-4 0.638548,-0.0934 0.641467,-0.12719 0.003,-0.0348 -0.06547,-0.13821 -0.607708,-0.23957 -0.336571,-0.0629 -0.880873,-0.13037 -1.705152,-0.22567 -1.369787,-0.15838 -3.232118,-0.36314 -4.982741,-0.6219 -0.03667,-0.006 -0.07348,-0.0114 -0.110414,-0.0173 -0.597098,-0.0951 -1.302128,-0.22944 -2.068296,-0.39073 -0.778301,-0.16385 -1.551015,-0.34102 -2.221635,-0.50171 -1.050451,-0.25172 -1.725053,-0.43228 -2.021503,-0.50772 -0.339014,-0.0863 -0.396864,-0.0896 -0.396405,-0.0895 z"
             id="path1419"
             inkscape:path-effect="#path-effect1439"
             inkscape:original-d="m 72.922703,117.60838 c 0,0 4.219555,0.97119 6.892114,1.31746 3.546548,0.45951 7.334547,0.78655 7.334547,0.78655"
             sodipodi:nodetypes="csc" />
          <path
             style="fill:#000000;fill-rule:nonzero;stroke:none;stroke-width:0.4;stroke-dasharray:none"
             d="m 74.534031,122.13074 c 4.59e-4,1.1e-4 0.05457,0.0252 0.402727,0.091 0.196439,0.0371 1.100277,0.19507 2.069556,0.35744 0.680913,0.11406 1.476072,0.24366 2.267719,0.36121 0.840547,0.1248 1.584742,0.22236 2.229668,0.28981 9.5e-5,1e-5 0.02159,0.002 0.02168,0.002 1.82525,0.20174 3.553848,0.39318 4.987474,0.52408 0.818647,0.0747 1.38199,0.11419 1.719175,0.11519 0.551832,0.002 0.638553,-0.0934 0.641467,-0.12719 0.003,-0.0347 -0.0661,-0.14057 -0.607708,-0.23957 -0.337038,-0.0616 -0.884688,-0.12481 -1.706286,-0.21434 -1.354696,-0.14763 -3.227731,-0.34387 -4.963824,-0.60152 7e-6,0 -0.02148,-0.003 -0.02148,-0.003 -0.618706,-0.0961 -1.36483,-0.23939 -2.179089,-0.41406 -0.778536,-0.16701 -1.550938,-0.34795 -2.220057,-0.51208 -1.063281,-0.26081 -1.71293,-0.44062 -2.019007,-0.51984 -0.339763,-0.0879 -0.396864,-0.0896 -0.396405,-0.0895 z"
             id="path1423"
             inkscape:path-effect="#path-effect1447"
             inkscape:original-d="m 74.646838,121.64063 c 0,0 4.219555,0.97119 6.892114,1.31746 3.546548,0.45951 7.334547,0.78655 7.334547,0.78655"
             sodipodi:nodetypes="csc" />
          <path
             style="fill:#000000;fill-rule:nonzero;stroke:none;stroke-width:0.4;stroke-dasharray:none"
             d="m 77.148041,125.8571 c 4.59e-4,1.1e-4 0.05557,0.0255 0.402727,0.091 0.199124,0.0375 1.101483,0.19472 2.069738,0.35656 0.681879,0.11397 1.476495,0.24326 2.26778,0.36075 0.793801,0.11787 1.502936,0.21184 2.125969,0.27964 0.0346,0.004 0.06911,0.007 0.103505,0.0111 1.82262,0.20374 3.576492,0.39735 5.00904,0.52753 0.820654,0.0746 1.383462,0.11356 1.719242,0.11452 0.552622,0.002 0.638561,-0.0935 0.641467,-0.12719 v 0 c 0.003,-0.0346 -0.06534,-0.14037 -0.607708,-0.23957 -0.335804,-0.0614 -0.882544,-0.1249 -1.706219,-0.21502 -1.363267,-0.14914 -3.241819,-0.34645 -4.985418,-0.60365 -0.03347,-0.005 -0.06707,-0.0104 -0.100765,-0.0157 -0.598775,-0.0951 -1.3093,-0.23235 -2.078518,-0.39736 -0.777877,-0.16686 -1.550354,-0.34803 -2.219996,-0.51254 -1.030702,-0.25322 -1.709539,-0.44059 -2.018825,-0.52072 -0.338746,-0.0878 -0.396864,-0.0896 -0.396405,-0.0895 z"
             id="path1425"
             inkscape:path-effect="#path-effect1451"
             inkscape:original-d="m 77.260848,125.36699 c 0,0 4.219555,0.97119 6.892114,1.31746 3.546548,0.45951 7.334547,0.78655 7.334547,0.78655"
             sodipodi:nodetypes="csc" />
          <path
             style="fill:#000000;fill-rule:nonzero;stroke:none;stroke-width:0.4;stroke-dasharray:none"
             d="m 79.153735,128.05943 c 0,0 0,0 0,0 4.59e-4,1.1e-4 0.05454,0.0259 0.402727,0.091 0.196483,0.0367 1.101397,0.19198 2.070684,0.35196 0.68128,0.11245 1.476703,0.24039 2.268411,0.35664 0.841842,0.12362 1.583857,0.22004 2.229428,0.28767 -2e-6,0 0.0062,6.8e-4 0.0062,6.8e-4 1.846511,0.20442 3.546316,0.39686 5.001825,0.53351 0.81836,0.0768 1.382001,0.11812 1.718727,0.11967 0.551832,0.003 0.63856,-0.0935 0.641467,-0.12719 0.003,-0.0346 -0.06594,-0.14146 -0.607708,-0.23957 -0.336571,-0.0609 -0.885089,-0.12247 -1.706734,-0.20987 -1.357495,-0.1444 -3.242379,-0.338 -4.980292,-0.59607 -6e-6,-1e-5 -0.0061,-9.2e-4 -0.0061,-9.2e-4 -0.618481,-0.0959 -1.365523,-0.24026 -2.179329,-0.4162 -0.778286,-0.16827 -1.55056,-0.3509 -2.219365,-0.51666 -1.068908,-0.26492 -1.705455,-0.44384 -2.017879,-0.52531 -0.339517,-0.0885 -0.396864,-0.0896 -0.396405,-0.0895 z"
             id="path1427"
             inkscape:path-effect="#path-effect1455"
             inkscape:original-d="m 79.266542,127.56932 c 0,0 4.219555,0.97119 6.892114,1.31746 3.546548,0.45951 7.334547,0.78655 7.334547,0.78655"
             sodipodi:nodetypes="csc" />
          <path
             style="fill:#000000;fill-rule:nonzero;stroke:none;stroke-width:0.4;stroke-dasharray:none"
             d="m 81.592029,130.18311 c 4.59e-4,1.1e-4 0.05441,0.0266 0.402727,0.091 0.196289,0.0363 1.102518,0.18853 2.071939,0.34587 0.681594,0.11063 1.477372,0.23673 2.269185,0.35153 0.843207,0.12225 1.582725,0.21739 2.229175,0.28516 0,0 0.0044,4.9e-4 0.0044,4.9e-4 1.873736,0.20757 3.519623,0.39871 5.002337,0.5423 0.81784,0.0792 1.381857,0.1226 1.718215,0.12478 0.551752,0.004 0.638567,-0.0936 0.641467,-0.12719 0.003,-0.0346 -0.06584,-0.14249 -0.607708,-0.23957 -0.336181,-0.0602 -0.885746,-0.11982 -1.707246,-0.20476 -1.35615,-0.14023 -3.247081,-0.33 -4.983315,-0.58774 0,0 -0.0044,-6.5e-4 -0.0044,-6.5e-4 -0.618367,-0.0958 -1.36637,-0.24134 -2.179582,-0.41871 -0.778075,-0.16971 -1.550191,-0.3542 -2.21859,-0.52177 -1.031726,-0.25864 -1.708718,-0.45044 -2.016625,-0.5314 -0.339339,-0.0892 -0.396864,-0.0896 -0.396405,-0.0895 z"
             id="path1429"
             inkscape:path-effect="#path-effect1459"
             inkscape:original-d="m 81.704836,129.693 c 0,0 4.219555,0.97119 6.892114,1.31746 3.546548,0.45951 7.334547,0.78655 7.334547,0.78655"
             sodipodi:nodetypes="csc" />
        </g>
        <path
           id="path870"
           style="fill:#ffffff;stroke:#000000;stroke-width:0.4;stroke-dasharray:none"
           d="m 71.071114,109.94058 -5.843571,0.0186 c 0,0 9.647188,16.8652 16.730762,21.39404 2.720789,1.73952 6.250729,3.40145 9.912573,4.15737 3.777472,0.77979 7.734685,0.73988 11.048422,0.79168 4.80332,0.0751 8.2982,-0.003 8.2982,-0.003 0,0 3.49539,0.0782 8.29872,0.003 3.31374,-0.0518 7.27094,-0.0119 11.04842,-0.79168 3.66185,-0.75592 7.19179,-2.41785 9.91257,-4.15737 7.08358,-4.52884 16.73025,-21.39404 16.73025,-21.39404 l -5.84306,-0.0186 -1.99936,2.92902 2.20245,-0.23616 c 0,0 -2.63472,7.29431 -13.37127,15.7272 -5.46913,4.29566 -14.33992,4.49874 -20.40238,4.55424 -3.86452,0.0352 -6.57634,0.0393 -6.57634,0.0393 0,0 -2.71182,-0.004 -6.57634,-0.0393 -6.062457,-0.0555 -14.932728,-0.25858 -20.401857,-4.55424 -10.736553,-8.43289 -13.371277,-15.7272 -13.371277,-15.7272 l 2.201932,0.23616 z" />
        <path
           id="rect1586"
           style="fill:#ffffff;stroke:#000000;stroke-width:0.4;stroke-dasharray:none"
           d="m 102.1484,107.62643 c -0.38048,-0.41967 -1.0245,-0.45159 -1.44417,-0.0711 l -21.581999,19.56616 c -1.326775,0.016 -3.009011,-0.51393 -5.60823,1.9602 -2.200169,2.09428 -3.594372,4.7355 -2.08775,6.39735 1.506614,1.66183 4.271461,0.53247 6.570767,-1.45246 2.716343,-2.34494 2.353414,-4.07091 2.498993,-5.38977 l 21.581999,-19.56617 c 0.41967,-0.38047 0.45087,-1.02452 0.0704,-1.4442 z" />
      </g>
    </g>
  </g>
</svg>
