<?xml version="1.0" encoding="UTF-8" standalone="no"?>
<!-- Created with Inkscape (http://www.inkscape.org/) -->

<svg
   width="141.97066mm"
   height="154.28001mm"
   viewBox="0 0 141.97066 154.28001"
   version="1.1"
   id="svg12785"
   inkscape:version="1.2.2 (732a01da63, 2022-12-09)"
   sodipodi:docname="Wappen Jerrishoe2.svg"
   xmlns:inkscape="http://www.inkscape.org/namespaces/inkscape"
   xmlns:sodipodi="http://sodipodi.sourceforge.net/DTD/sodipodi-0.dtd"
   xmlns="http://www.w3.org/2000/svg"
   xmlns:svg="http://www.w3.org/2000/svg">
  <sodipodi:namedview
     id="namedview12787"
     pagecolor="#ffffff"
     bordercolor="#666666"
     borderopacity="1.0"
     inkscape:showpageshadow="2"
     inkscape:pageopacity="0.0"
     inkscape:pagecheckerboard="0"
     inkscape:deskcolor="#d1d1d1"
     inkscape:document-units="mm"
     showgrid="false"
     inkscape:zoom="0.91798101"
     inkscape:cx="268.52407"
     inkscape:cy="292.48971"
     inkscape:current-layer="layer1" />
  <defs
     id="defs12782" />
  <g
     inkscape:label="Ebene 1"
     inkscape:groupmode="layer"
     id="layer1"
     transform="translate(-536.85789,-78.910839)">
    <g
       id="g12506"
       transform="translate(496.8039,0.84958)">
      <path
         id="path12063"
         style="fill:#002cff;fill-opacity:1;stroke:none;stroke-width:0.900002;stroke-linecap:round;stroke-dasharray:none"
         d="m 40.503988,78.511487 v 83.468803 a 70.535301,69.911095 0 0 0 70.535232,69.91098 70.535301,69.911095 0 0 0 70.53523,-69.91098 V 78.511487 Z" />
      <path
         id="path12232"
         style="fill:#ffff00;fill-opacity:1;stroke:none;stroke-width:0.899999;stroke-linecap:round;stroke-dasharray:none"
         d="M 181.57445,78.511487 60.491398,210.69463 a 70.535301,69.911095 0 0 0 50.547822,21.19664 70.535301,69.911095 0 0 0 70.53523,-69.91098 z" />
      <path
         id="path12237"
         style="fill:none;fill-opacity:1;stroke:#000000;stroke-width:0.900002;stroke-linecap:round;stroke-dasharray:none"
         d="m 40.503988,78.511487 v 83.468803 a 70.535301,69.911095 0 0 0 70.535232,69.91098 70.535301,69.911095 0 0 0 70.53523,-69.91098 V 78.511487 Z" />
      <path
         style="fill:none;fill-opacity:1;stroke:#000000;stroke-width:0.899999;stroke-linecap:round;stroke-dasharray:none"
         d="M 181.57465,78.511259 60.491398,210.69463"
         id="path12239" />
      <g
         id="g1212"
         transform="translate(1.0538289,0.23723601)">
        <path
           style="fill:#ffffff;stroke:#000000;stroke-width:0.4;stroke-linecap:round;stroke-dasharray:none"
           d="m 109.6772,145.21662 c 0,0 -7.34147,2.05786 -18.409302,2.11346 -11.067833,0.0556 -18.590991,-3.1539 -18.590991,-3.1539 v -12.07231 c 0,0 4.326006,-4.76197 4.208024,-9.48125 -0.117982,-4.71928 -3.932733,-6.80363 -8.966631,-7.23623 -5.033898,-0.4326 -5.584481,-0.39328 -5.584481,-0.39328 L 49.721816,107.45252 49.721815,96.913048 122.308,96.35196 c 0,0 17.23567,-0.412214 17.45813,3.480994 0.22247,3.893206 -16.01776,11.846476 -20.41152,13.570606 -4.39377,1.72414 -15.4072,5.27047 -14.07117,10.62289 1.1252,4.50778 4.39376,9.39932 4.39376,9.39932 z"
           id="path921"
           sodipodi:nodetypes="csccssccccssscc" />
        <path
           style="fill:none;stroke:#000000;stroke-width:0.4;stroke-linecap:round;stroke-dasharray:none"
           d="m 62.333819,114.99311 v -9.98914 L 49.721814,96.913048"
           id="path1089" />
        <path
           style="fill:none;stroke:#000000;stroke-width:0.4;stroke-linecap:round;stroke-dasharray:none"
           d="m 62.333819,105.00397 c 0,0 25.44478,-1.02251 41.883601,-1.41578 16.43883,-0.39328 20.94919,-0.44601 25.62104,-1.22465 4.67184,-0.77864 9.92767,-2.530588 9.92767,-2.530588"
           id="path1100" />
        <path
           style="fill:none;stroke:#000000;stroke-width:0.4;stroke-linecap:round;stroke-dasharray:none"
           d="m 72.676905,132.10387 c 0,0 6.966987,3.32412 18.146054,3.49097 11.179071,0.16685 18.854241,-2.16907 18.854241,-2.16907"
           id="path1102" />
        <path
           style="fill:none;stroke:#000000;stroke-width:0.4;stroke-linecap:round;stroke-dasharray:none"
           d="m 52.391444,100.66721 3.448269,2.22469"
           id="path1104"
           sodipodi:nodetypes="cc" />
        <path
           style="fill:none;stroke:#000000;stroke-width:0.4;stroke-linecap:round;stroke-dasharray:none"
           d="m 52.096489,102.12232 7.452375,4.80798"
           id="path1106"
           sodipodi:nodetypes="cc" />
        <path
           style="fill:none;stroke:#000000;stroke-width:0.4;stroke-linecap:round;stroke-dasharray:none"
           d="m 56.894423,106.56631 2.841383,1.83315"
           id="path1108"
           sodipodi:nodetypes="cc" />
        <path
           style="fill:none;stroke:#000000;stroke-width:0.4;stroke-linecap:round;stroke-dasharray:none"
           d="m 51.722879,105.1112 7.545087,4.8678"
           id="path1110"
           sodipodi:nodetypes="cc" />
        <path
           style="fill:none;stroke:#000000;stroke-width:0.4;stroke-linecap:round;stroke-dasharray:none"
           d="m 55.380321,109.14225 4.070831,2.62634"
           id="path1112"
           sodipodi:nodetypes="cc" />
        <path
           style="fill:none;stroke:#000000;stroke-width:0.4;stroke-linecap:round;stroke-dasharray:none"
           d="m 75.842756,118.08031 c 0,0 2.071165,1.52641 1.730401,5.4665 -0.314617,3.63777 -1.82872,5.32885 -1.82872,5.32885"
           id="path1114"
           sodipodi:nodetypes="csc" />
        <path
           style="fill:none;stroke:#000000;stroke-width:0.4;stroke-linecap:round;stroke-dasharray:none"
           d="m 77.553495,119.14215 c 0,0 1.146973,1.93935 0.8652,4.56197 -0.390054,3.63046 -1.396119,4.77827 -1.396119,4.77827"
           id="path1116"
           sodipodi:nodetypes="csc" />
        <path
           style="fill:none;stroke:#000000;stroke-width:0.4;stroke-linecap:round;stroke-dasharray:none"
           d="m 78.897202,120.25031 c 0,0 0.628888,1.61916 0.406358,3.86675 -0.260513,2.63123 -1.187554,4.2221 -1.187554,4.2221"
           id="path1118"
           sodipodi:nodetypes="csc" />
        <path
           style="fill:none;stroke:#000000;stroke-width:0.4;stroke-linecap:round;stroke-dasharray:none"
           d="m 79.92198,121.09264 c 0,0 0.333703,2.41935 0.111234,3.69855 -0.22247,1.2792 -0.820354,3.15628 -0.820354,3.15628"
           id="path1120" />
        <path
           style="fill:none;stroke:#000000;stroke-width:0.4;stroke-linecap:round;stroke-dasharray:none"
           d="m 80.853567,121.95471 c 0,0 0.22247,0.82036 0.04171,2.44716 -0.180756,1.6268 -0.681313,3.04504 -0.681313,3.04504"
           id="path1122" />
        <path
           style="fill:none;stroke:#000000;stroke-width:0.4;stroke-linecap:round;stroke-dasharray:none"
           d="m 81.729539,122.49698 c 0,0 0.166852,0.86207 -0.04171,2.41935 -0.208566,1.55728 -0.403225,2.28031 -0.403225,2.28031"
           id="path1124" />
        <path
           style="fill:none;stroke:#000000;stroke-width:0.4;stroke-linecap:round;stroke-dasharray:none"
           d="m 82.647225,122.9002 c 0,0 0.152947,0.23638 0.05562,1.65462 -0.09733,1.41823 -0.29199,1.9327 -0.29199,1.9327"
           id="path1126"
           sodipodi:nodetypes="csc" />
        <path
           style="fill:none;stroke:#000000;stroke-width:0.4;stroke-linecap:round;stroke-dasharray:none"
           d="m 83.411961,123.33124 c 0,0 0.07623,0.55474 0.05562,1.20967 -0.02933,0.93207 -0.194662,1.51557 -0.194662,1.51557"
           id="path1128"
           sodipodi:nodetypes="csc" />
        <path
           style="fill:none;stroke:#000000;stroke-width:0.4;stroke-linecap:round;stroke-dasharray:none"
           d="m 107.34128,118.32569 c 0,0 -2.94771,2.15418 -2.94771,4.58842 0,2.33592 1.66851,5.58953 1.66851,5.58953"
           id="path1130"
           sodipodi:nodetypes="csc" />
        <path
           style="fill:none;stroke:#000000;stroke-width:0.4;stroke-linecap:round;stroke-dasharray:none"
           d="m 105.31125,118.77062 c 0,0 -1.55386,2.09428 -1.72413,3.89321 -0.26775,2.82891 1.40869,5.80723 1.40869,5.80723"
           id="path1132"
           sodipodi:nodetypes="csc" />
        <path
           style="fill:none;stroke:#000000;stroke-width:0.4;stroke-linecap:round;stroke-dasharray:none"
           d="m 103.47588,120.27229 c 0,0 -1.05673,1.9188 -0.86207,4.11568 0.19467,2.19688 1.39044,3.86539 1.39044,3.86539"
           id="path1134" />
        <path
           style="fill:none;stroke:#000000;stroke-width:0.4;stroke-linecap:round;stroke-dasharray:none"
           d="m 102.33573,120.74504 c 0,0 -0.77864,2.2525 -0.6396,3.42046 0.13904,1.16796 1.19577,3.69854 1.19577,3.69854"
           id="path1136" />
        <path
           style="fill:none;stroke:#000000;stroke-width:0.4;stroke-linecap:round;stroke-dasharray:none"
           d="m 101.34852,121.38464 c 0,0 -0.75083,1.6407 -0.52836,2.98942 0.21214,1.28608 0.9872,3.05895 0.9872,3.05895"
           id="path1138"
           sodipodi:nodetypes="csc" />
        <path
           style="fill:none;stroke:#000000;stroke-width:0.4;stroke-linecap:round;stroke-dasharray:none"
           d="m 100.05542,122.46917 c 0,0 -0.255127,1.4354 -0.166851,2.15517 0.180761,1.47385 0.750831,2.44716 0.750831,2.44716"
           id="path1140"
           sodipodi:nodetypes="csc" />
        <path
           style="fill:none;stroke:#000000;stroke-width:0.4;stroke-linecap:round;stroke-dasharray:none"
           d="m 75.152799,135.28894 0.05562,6.91045"
           id="path1171" />
        <path
           style="fill:none;stroke:#000000;stroke-width:0.4;stroke-linecap:round;stroke-dasharray:none"
           d="m 75.236225,135.80341 c 0,0 1.001112,0.50055 3.156281,0.95939 2.155166,0.45884 4.685752,0.70912 4.685752,0.70912"
           id="path1173" />
        <path
           style="fill:none;stroke:#000000;stroke-width:0.4;stroke-linecap:round;stroke-dasharray:none"
           d="m 75.236225,138.50085 c 0,0 1.001112,0.50055 3.156281,0.95939 2.155166,0.45884 3.948824,0.66741 3.948824,0.66741"
           id="path1175"
           sodipodi:nodetypes="csc" />
        <path
           style="fill:none;stroke:#000000;stroke-width:0.4;stroke-linecap:round;stroke-dasharray:none"
           d="m 75.430885,141.53199 c 0,0 1.001112,0.50055 3.156281,0.95939 2.155166,0.45884 3.781972,0.57008 3.781972,0.57008"
           id="path1177"
           sodipodi:nodetypes="csc" />
        <path
           style="fill:none;stroke:#000000;stroke-width:0.4;stroke-linecap:round;stroke-dasharray:none"
           d="m 75.12499,143.1727 c 0,0 1.001112,0.50055 3.156281,0.95939 2.155166,0.45884 3.837589,0.59789 3.837589,0.59789"
           id="path1179"
           sodipodi:nodetypes="csc" />
        <path
           style="fill:none;stroke:#000000;stroke-width:0.4;stroke-linecap:round;stroke-dasharray:none"
           d="m 76.863032,139.16825 -0.05562,4.50499"
           id="path1181" />
      </g>
      <g
         id="g12009"
         transform="translate(-293.4734,-1.8478578)">
        <path
           style="fill:#0ba207;fill-opacity:1;stroke:none;stroke-width:0.1;stroke-linecap:round"
           d="m 437.98468,190.00144 -1.05767,3.03433 3.65855,2.02867 1.52583,-3.17305 -0.971,-2.46215 z"
           id="path11915" />
        <g
           id="g11859"
           transform="translate(106.71598,-3.1387054)">
          <path
             style="fill:#0ba207;fill-opacity:1;stroke:#000000;stroke-width:0.3;stroke-linecap:round;stroke-dasharray:none"
             d="m 282.84148,224.41558 c -2.19686,1.9466 -4.5884,5.03336 -5.50611,3.64293 -0.91768,-1.39043 0.80645,-3.8654 1.41825,-4.42157 0.6118,-0.55617 4.39378,-4.53281 4.44939,-6.14571 0.0556,-1.6129 -1.08455,-2.80867 -3.05895,-4.14348 -1.97443,-1.33482 -2.47497,-2.61401 -1.52948,-3.92102 0.94549,-1.307 3.16441,0.7782 3.69856,-0.0556 1.14015,-1.77975 -1.5573,-2.5862 -2.94774,-5.33925 -1.08018,-2.13877 -1.83894,-5.92154 0.69523,-6.25694 1.89099,-0.25028 2.11217,0.91455 2.97554,0.55617 1.47386,-0.61179 -1.88267,-6.5121 -1.55729,-8.00888 0.69521,-3.19799 3.69854,-1.41823 4.89432,-2.36374 0.52995,-0.41903 0.27831,-2.22248 0.67744,-3.84198 0.50145,-2.03467 1.83708,-3.85941 4.85645,-3.1936 5.42269,1.19578 1.36263,7.28586 2.44718,8.0645 1.08453,0.77865 3.1951,-1.98479 4.58841,0.50056 2.05785,3.67074 -5.45935,5.93172 -5.08897,8.17573 0.47276,2.86429 2.869,0.9407 3.94882,2.00222 1.6407,1.6129 -0.19466,4.06006 -0.19466,4.06006 0,0 4.8109,-3.22581 6.72969,-6.78532 1.9188,-3.5595 1.19647,-9.27064 -0.17999,-12.53481 -1.37645,-3.26417 -3.90788,-5.76326 -2.18374,-7.73767 1.72413,-1.97442 2.45721,0.38201 3.44827,-0.88988 2.3593,-3.02786 -3.35572,-6.98004 -1.17274,-9.82517 2.15278,-2.80575 5.01622,1.03467 6.15048,-0.74211 1.83176,-2.8694 -2.98888,-4.60848 -1.39043,-7.28585 1.65362,-2.76978 4.24901,0.11716 5.70077,-0.25028 1.38937,-0.35165 1.36017,-2.92565 2.12005,-4.87243 0.67628,-1.7326 2.0348,-2.92751 4.69306,-2.24658 5.64515,1.44605 1.69633,6.7853 2.2525,7.95327 0.55617,1.16796 3.80192,-0.28914 4.33814,1.6129 0.80703,2.86265 -5.11678,5.1724 -4.00444,7.00777 1.11235,1.83537 3.59975,0.66203 3.44827,2.55839 -0.1466,1.83537 -2.64182,3.50389 -5.11679,4.78309 -2.47496,1.27919 -4.94993,2.14126 -4.5328,3.64292 0.41713,1.50167 3.92101,0.41713 4.14348,1.75195 0.22247,1.33481 -1.29794,2.2587 -3.9722,4.06776 -2.67426,1.80905 -7.07892,5.30918 -8.57336,7.43286 -1.49444,2.12368 -2.02536,3.00854 -1.61242,3.40181 0.41294,0.39328 4.10971,-1.7304 6.29237,-3.20517 2.18267,-1.47478 10.41236,-6.98898 12.87873,-10.46694 2.79831,-3.94603 5.41493,-8.42151 5.74882,-11.68636 0.50054,-4.89432 -4.67185,-7.3971 -2.22469,-10.17796 1.9195,-2.18125 3.64293,2.05784 5.39487,0.27809 1.75195,-1.77976 0.26491,-4.04932 -1.8981,-6.52694 -2.163,-2.47763 -4.63002,-5.75474 -2.00569,-8.57336 2.64724,-2.84322 6.1159,2.15664 8.0621,0.94385 0.78095,-0.48666 1.63539,-1.86245 1.04797,-3.71943 -1.03807,-3.28161 -5.26401,-6.3803 -1.78006,-9.40322 3.29774,-2.86134 5.88397,1.99302 7.6537,1.99302 1.76973,0 1.854,-9.51432 8.21941,-8.25874 6.3317,1.24893 2.39897,9.59587 3.06754,10.61838 0.66856,1.02251 8.93235,0.0235 8.18008,3.8934 -0.78572,4.04199 -5.15188,5.78112 -7.00026,6.72498 -1.84839,0.94385 -3.00369,1.80468 -2.71359,3.50013 0.37024,2.16383 8.08794,-0.64751 8.16659,2.85263 0.0787,3.50013 -2.38547,5.32746 -5.49233,5.95669 -3.10686,0.62924 -9.51721,1.61242 -9.51721,4.01139 0,2.39897 6.3317,2.20233 5.03389,4.56197 -1.2978,2.35964 -3.8934,3.10686 -8.0621,2.91022 -4.1687,-0.19663 -6.01708,-0.47192 -8.9273,0.62924 -2.91023,1.10117 -4.95525,3.77542 -7.31489,7.1969 -2.35964,3.42148 -4.28591,6.10597 -7.56733,8.60874 -3.28142,2.50278 -7.48211,4.29789 -7.14682,5.25583 0.19467,0.55617 2.88983,-0.46621 6.17352,-0.80645 3.23603,-0.3353 8.70809,-0.0687 8.70809,-0.0687 l -0.7144,1.82727 c 0,0 -8.32739,-0.11781 -11.13606,0.49398 -2.80867,0.61179 -6.3289,1.01022 -9.27845,3.01592 -2.94955,2.00569 -10.22511,7.55085 -11.3656,8.45537 -1.1405,0.90453 -3.16013,2.0437 -1.93655,3.21166 1.22358,1.16797 3.08676,0.9455 5.53392,-0.0278 2.44716,-0.97331 5.61734,-2.22469 6.28475,-1.44605 0.6674,0.77864 -0.36152,1.19577 0.50055,1.52947 0.86207,0.3337 5.28364,-3.2258 7.06339,-3.14237 1.77975,0.0834 0.72303,1.91879 1.47386,2.00222 0.75083,0.0834 4.46507,-1.80082 6.7853,-1.02892 4.89221,1.62755 1.48655,3.8041 2.28031,4.505 1.31095,1.1576 3.95557,-0.8851 5.54066,0.17162 1.58509,1.05673 -0.86881,3.02637 -0.67415,3.63816 0.19466,0.61179 5.50611,1.80756 4.33814,5.00555 -1.16796,3.19799 -4.36595,1.41824 -5.11678,1.91879 -0.75084,0.50056 -0.38932,3.80978 -2.03003,4.22691 -1.64071,0.41713 -5.67296,0.47275 -6.34037,-1.25138 -0.6674,-1.72414 0.49222,-3.17718 -1.42079,-4.26008 -1.55575,-0.88066 -4.24949,1.77561 -6.37911,1.25 -3.38012,-0.83425 0.63306,-3.27418 -0.76515,-3.9977 -2.09158,-1.08231 -5.62992,3.16262 -7.45271,0.66741 -1.30923,-1.79219 2.47496,-2.91991 0.83425,-4.00444 -1.6407,-1.08454 -5.08897,1.66852 -6.1738,0.73763 -1.08482,-0.9309 2.00251,-2.73985 -1.39014,-3.90781 -3.39265,-1.16797 -3.50389,1.307 -5.20021,2.05783 -1.69633,0.75084 -3.19799,1.19577 -4.72747,3.30923 -1.52947,2.11346 -6.56285,7.64737 -6.56285,7.64737 z"
             id="path1324"
             sodipodi:nodetypes="cssssssssssssssssscssssssssssssssssssssssssssssssssssssssssssssssccsssssssssssssssssssssssssscc" />
          <path
             style="fill:none;stroke:#000000;stroke-width:0.3;stroke-linecap:round;stroke-dasharray:none"
             d="m 278.03525,224.56365 c 0,0 1.23767,-1.50579 1.90622,-0.93554 0.66858,0.57025 0.032,3.5152 -0.95521,4.34946"
             id="path1602"
             sodipodi:nodetypes="csc" />
          <path
             style="fill:none;stroke:#000000;stroke-width:0.3;stroke-linecap:round;stroke-dasharray:none"
             d="m 297.74692,203.58692 c 0,0 -1.30702,1.36262 -2.11347,1.9466 -0.80645,0.58398 -3.17018,1.41824 -2.86427,2.39154 0.30589,0.97331 1.61071,0.40497 2.19686,0.52837 0.79255,0.16685 1.38909,1.00184 1.41825,1.58509 0.0417,0.83426 -0.0959,1.43241 -0.42527,1.79127"
             id="path1604"
             sodipodi:nodetypes="cssssc" />
          <path
             style="fill:none;stroke:#000000;stroke-width:0.3;stroke-linecap:round;stroke-dasharray:none"
             d="m 283.88434,220.3117 c 0,0 1.16014,-2.53661 3.06753,-3.6771 1.90738,-1.14049 5.10145,-2.23829 5.10145,-2.23829"
             id="path1645"
             sodipodi:nodetypes="csc" />
          <path
             style="fill:none;stroke:#000000;stroke-width:0.3;stroke-linecap:round;stroke-dasharray:none"
             d="m 291.06156,185.54634 c 0,0 -1.65175,4.52264 -2.163,10.65771 -0.43554,5.22659 -1.61242,12.15214 -2.16299,14.74775 -0.43869,2.06817 -2.39898,6.09573 -2.39898,6.09573"
             id="path1647"
             sodipodi:nodetypes="cssc" />
          <path
             style="fill:none;stroke:#000000;stroke-width:0.3;stroke-linecap:round;stroke-dasharray:none"
             d="m 293.12626,187.67002 c 0,0 -0.35396,1.31747 0.059,1.75006 0.41293,0.43261 1.98604,0.60958 1.98604,0.60958"
             id="path1649" />
          <path
             style="fill:none;stroke:#000000;stroke-width:0.3;stroke-linecap:round;stroke-dasharray:none"
             d="m 287.7974,186.78516 c 0,0 -0.059,1.10116 -0.33428,1.41578 -0.2753,0.31462 -1.41578,0.80621 -1.41578,0.80621"
             id="path1651" />
          <path
             style="fill:none;stroke:#000000;stroke-width:0.3;stroke-linecap:round;stroke-dasharray:none"
             d="m 296.31177,191.48477 c 0,0 -2.85565,0.82357 -4.60129,2.33998 -1.9467,1.69107 -2.81192,2.85123 -2.81192,2.85123"
             id="path1653"
             sodipodi:nodetypes="csc" />
          <path
             style="fill:none;stroke:#000000;stroke-width:0.3;stroke-linecap:round;stroke-dasharray:none"
             d="m 284.65121,191.15049 c 0,0 1.7631,1.73132 2.35966,2.65459 0.82585,1.27814 1.71071,3.57879 1.71071,3.57879"
             id="path1655"
             sodipodi:nodetypes="csc" />
          <path
             style="fill:none;stroke:#000000;stroke-width:0.3;stroke-linecap:round;stroke-dasharray:none"
             d="m 293.28356,196.57766 c 0,0 -0.53092,1.31747 -0.47191,1.9467 0.059,0.62924 1.41578,1.61242 1.41578,1.61242"
             id="path1657" />
          <path
             style="fill:none;stroke:#000000;stroke-width:0.3;stroke-linecap:round;stroke-dasharray:none"
             d="m 284.45457,197.28555 c 0,0 -0.059,0.90453 -0.31462,1.25848 -0.25561,0.35394 -1.39612,0.78654 -1.39612,0.78654"
             id="path1659" />
          <path
             style="fill:none;stroke:#000000;stroke-width:0.3;stroke-linecap:round;stroke-dasharray:none"
             d="m 281.72132,201.35593 c 0,0 1.23883,0.70789 2.79225,3.14619 1.55342,2.43829 2.53662,4.26701 2.53662,4.26701"
             id="path1661" />
          <path
             style="fill:none;stroke:#000000;stroke-width:0.3;stroke-linecap:round;stroke-dasharray:none"
             d="m 295.07296,202.71272 c 0,0 -2.16299,0.51126 -4.03106,1.96637 -1.86804,1.45511 -3.65744,3.22484 -3.65744,3.22484"
             id="path1663" />
          <path
             style="fill:none;stroke:#000000;stroke-width:0.3;stroke-linecap:round;stroke-dasharray:none"
             d="m 292.71357,206.52073 c 0,0 -0.88989,0.45884 -0.8899,1.33481 -10e-5,0.91769 1.07063,1.12625 1.07063,1.12625"
             id="path1665"
             sodipodi:nodetypes="ccc" />
          <path
             style="fill:none;stroke:#000000;stroke-width:0.3;stroke-linecap:round;stroke-dasharray:none"
             d="m 283.2169,207.53575 c 0,0 0.27811,0.84816 0.13904,1.59899 -0.13904,0.75083 -1.14014,1.40434 -1.14014,1.40434"
             id="path1667" />
          <path
             style="fill:none;stroke:#000000;stroke-width:0.3;stroke-linecap:round;stroke-dasharray:none"
             d="m 292.97773,210.88668 c 0,0 -2.03002,0.34761 -3.78196,1.30701 -1.75194,0.9594 -3.64294,2.2664 -3.64294,2.2664"
             id="path1669" />
          <path
             style="fill:none;stroke:#000000;stroke-width:0.3;stroke-linecap:round;stroke-dasharray:none"
             d="m 282.16018,211.60971 c 0,0 1.11234,0.55617 1.76586,1.23748 0.65349,0.68131 1.26529,2.05784 1.26529,2.05784"
             id="path1671" />
          <path
             style="fill:none;stroke:#000000;stroke-width:0.3;stroke-linecap:round;stroke-dasharray:none"
             d="m 301.44399,210.87314 c 0,0 9.83335,0.73896 15.84892,1.84839 9.59586,1.76973 14.8264,6.41035 14.8264,6.41035"
             id="path1726"
             sodipodi:nodetypes="csc" />
          <path
             style="fill:none;stroke:#000000;stroke-width:0.3;stroke-linecap:round;stroke-dasharray:none"
             d="m 323.23132,214.29462 c 0,0 1.61242,0.0983 2.98889,-0.19663 1.37644,-0.29496 2.87089,-0.96352 2.87089,-0.96352"
             id="path1728" />
          <path
             style="fill:none;stroke:#000000;stroke-width:0.3;stroke-linecap:round;stroke-dasharray:none"
             d="m 324.1752,214.70756 c 0,0 1.65174,2.18267 1.82872,3.69677 0.17695,1.5141 -0.059,4.44399 -0.059,4.44399"
             id="path1730" />
          <path
             style="fill:none;stroke:#000000;stroke-width:0.3;stroke-linecap:round;stroke-dasharray:none"
             d="m 330.36925,214.01933 c 0,0 -0.118,0.84554 0.0983,1.2978 0.21633,0.45227 1.0422,1.19949 1.0422,1.19949"
             id="path1732" />
          <path
             style="fill:none;stroke:#000000;stroke-width:0.3;stroke-linecap:round;stroke-dasharray:none"
             d="m 330.13327,220.99993 c 0,0 -0.47191,0.23597 -0.66855,0.41294 -0.19664,0.17697 -0.53094,0.80621 -0.53094,0.80621"
             id="path1734" />
          <path
             style="fill:none;stroke:#000000;stroke-width:0.3;stroke-linecap:round;stroke-dasharray:none"
             d="m 320.28177,219.56448 c 0,0 0.66425,0.0704 1.25849,0.60958 0.33753,0.30625 0.7079,1.00285 0.7079,1.00285"
             id="path1736"
             sodipodi:nodetypes="csc" />
          <path
             style="fill:none;stroke:#000000;stroke-width:0.3;stroke-linecap:round;stroke-dasharray:none"
             d="m 325.39434,210.10626 c 0,0 -0.17698,0.80621 -0.0196,1.16016 0.15732,0.35394 1.33713,1.12083 1.33713,1.12083"
             id="path1738" />
          <path
             style="fill:none;stroke:#000000;stroke-width:0.3;stroke-linecap:round;stroke-dasharray:none"
             d="m 315.18889,212.34792 c 0,0 1.21914,-0.33428 3.38214,-1.27814 2.16302,-0.94386 3.63778,-1.71074 3.63778,-1.71074"
             id="path1740" />
          <path
             style="fill:none;stroke:#000000;stroke-width:0.3;stroke-linecap:round;stroke-dasharray:none"
             d="m 316.32937,212.62321 c 0,0 1.35681,1.80906 1.08151,3.4608 -0.27529,1.65175 -1.53376,4.20803 -1.53376,4.20803"
             id="path1742" />
          <path
             style="fill:none;stroke:#000000;stroke-width:0.3;stroke-linecap:round;stroke-dasharray:none"
             d="m 316.07376,207.35335 c 0,0 0.15729,0.70789 0.43259,0.84554 0.2753,0.13764 1.17983,0.25562 1.17983,0.25562"
             id="path1744" />
          <path
             style="fill:none;stroke:#000000;stroke-width:0.3;stroke-linecap:round;stroke-dasharray:none"
             d="m 308.99483,216.87056 c 0,0 1.00285,-1.25847 0.96354,-2.5956 -0.0394,-1.33713 -0.45228,-2.49729 -0.45228,-2.49729"
             id="path1746" />
          <path
             style="fill:none;stroke:#000000;stroke-width:0.3;stroke-linecap:round;stroke-dasharray:none"
             d="m 308.86394,211.54409 c 0,0 1.9203,-0.78893 2.66751,-1.43783 0.74721,-0.6489 2.32031,-1.90737 2.32031,-1.90737"
             id="path1748"
             sodipodi:nodetypes="csc" />
          <path
             style="fill:none;stroke:#000000;stroke-width:0.3;stroke-linecap:round;stroke-dasharray:none"
             d="m 307.50039,208.59216 c 0,0 0.0196,0.74722 0.37361,0.8652 0.35394,0.11798 1.21915,0.19664 1.21915,0.19664"
             id="path1750" />
          <path
             style="fill:none;stroke:#000000;stroke-width:0.3;stroke-linecap:round;stroke-dasharray:none"
             d="m 306.04528,213.5474 c 0,0 0.88488,0.0787 1.14049,0.27529 0.25564,0.19664 0.51125,0.90453 0.51125,0.90453"
             id="path1752" />
          <path
             style="fill:none;stroke:#000000;stroke-width:0.3;stroke-linecap:round;stroke-dasharray:none"
             d="m 302.9706,210.94843 c 0,0 0.67571,-0.3899 1.48192,-1.05847 0.80621,-0.66856 1.10117,-1.10116 1.10117,-1.10116"
             id="path1754"
             sodipodi:nodetypes="csc" />
          <path
             style="fill:none;stroke:#000000;stroke-width:0.3;stroke-linecap:round;stroke-dasharray:none"
             d="m 303.03673,211.1681 c 0,0 0.35396,0.90453 0.2753,1.39612 -0.0787,0.49159 -0.72755,1.47477 -0.72755,1.47477"
             id="path1756" />
          <path
             style="fill:none;stroke:#000000;stroke-width:0.3;stroke-linecap:round;stroke-dasharray:none"
             d="m 319.57668,155.95075 c 0,0 -1.2792,5.72858 -3.78198,10.0111 -2.50277,4.28253 -4.44936,6.34037 -5.72857,12.84759 -1.27918,6.50722 -2.39154,12.06894 -2.39154,12.06894"
             id="path1827" />
          <path
             style="fill:none;stroke:#000000;stroke-width:0.3;stroke-linecap:round;stroke-dasharray:none"
             d="m 322.74687,157.14652 c 0,0 -0.16685,1.25139 0.16684,1.80756 0.3337,0.55617 1.39044,0.91769 1.39044,0.91769"
             id="path1829" />
          <path
             style="fill:none;stroke:#000000;stroke-width:0.3;stroke-linecap:round;stroke-dasharray:none"
             d="m 317.09627,156.66042 c 0,0 -0.45228,1.21915 -0.98319,1.49444 -0.53092,0.27529 -1.71075,0.49159 -1.71075,0.49159"
             id="path1902" />
          <path
             style="fill:none;stroke:#000000;stroke-width:0.3;stroke-linecap:round;stroke-dasharray:none"
             d="m 323.6246,162.14658 c 0,0 -2.37929,0.25563 -4.32602,1.45511 -1.9467,1.19949 -3.42145,2.30066 -3.42145,2.30066"
             id="path1904"
             sodipodi:nodetypes="csc" />
          <path
             style="fill:none;stroke:#000000;stroke-width:0.3;stroke-linecap:round;stroke-dasharray:none"
             d="m 313.10453,161.1634 c 0,0 0.78655,2.06468 0.84555,3.63778 0.059,1.57309 0.11798,3.8934 0.11798,3.8934"
             id="path1906" />
          <path
             style="fill:none;stroke:#000000;stroke-width:0.3;stroke-linecap:round;stroke-dasharray:none"
             d="m 321.24531,171.56548 c 0,0 -3.61813,0.55058 -5.72215,1.7304 -2.10399,1.17982 -5.03388,3.9524 -5.03388,3.9524"
             id="path1908" />
          <path
             style="fill:none;stroke:#000000;stroke-width:0.3;stroke-linecap:round;stroke-dasharray:none"
             d="m 307.95267,169.69743 c 0,0 1.10116,1.39612 1.59273,2.92989 0.4916,1.53376 0.86522,4.34566 0.86522,4.34566"
             id="path1910" />
          <path
             style="fill:none;stroke:#000000;stroke-width:0.3;stroke-linecap:round;stroke-dasharray:none"
             d="m 311.86572,163.9753 c 0,0 -0.10747,1.65643 -0.58991,2.02536 -1.00285,0.76689 -2.163,0.80621 -2.163,0.80621"
             id="path1912"
             sodipodi:nodetypes="csc" />
          <path
             style="fill:none;stroke:#000000;stroke-width:0.3;stroke-linecap:round;stroke-dasharray:none"
             d="m 323.3493,165.48941 c 0,0 -0.35393,1.37645 -0.1573,1.86804 0.19664,0.4916 1.19949,1.2978 1.19949,1.2978"
             id="path1914" />
          <path
             style="fill:none;stroke:#000000;stroke-width:0.3;stroke-linecap:round;stroke-dasharray:none"
             d="m 317.52886,176.22577 c 0,0 -0.84553,0.96352 -0.64889,1.82872 0.19664,0.8652 1.16015,1.43544 1.16015,1.43544"
             id="path1994" />
          <path
             style="fill:none;stroke:#000000;stroke-width:0.3;stroke-linecap:round;stroke-dasharray:none"
             d="m 308.91618,184.77946 c 0,0 1.21914,-1.43545 3.44114,-2.12368 2.22199,-0.68822 4.60129,-0.96352 4.60129,-0.96352"
             id="path1996"
             sodipodi:nodetypes="csc" />
          <path
             style="fill:none;stroke:#000000;stroke-width:0.3;stroke-linecap:round;stroke-dasharray:none"
             d="m 305.41605,179.80455 c 0,0 1.31747,0.7079 2.02536,1.92704 0.70789,1.21915 1.40593,3.17569 1.40593,3.17569"
             id="path1998"
             sodipodi:nodetypes="csc" />
          <path
             style="fill:none;stroke:#000000;stroke-width:0.3;stroke-linecap:round;stroke-dasharray:none"
             d="m 307.04813,174.06276 c 0,0 0.4916,0.60958 -0.41293,1.61242 -0.90453,1.00285 -1.63208,1.27814 -1.63208,1.27814"
             id="path2000" />
          <path
             style="fill:none;stroke:#000000;stroke-width:0.3;stroke-linecap:round;stroke-dasharray:none"
             d="m 354.00376,131.5904 c 0,0 -0.20923,4.4521 -2.94772,11.51277 -4.61624,11.90208 -15.5172,27.4193 -15.5172,27.4193"
             id="path2002"
             sodipodi:nodetypes="csc" />
          <path
             style="fill:none;stroke:#000000;stroke-width:0.3;stroke-linecap:round;stroke-dasharray:none"
             d="m 357.34778,135.12871 c 0,0 -0.4916,0.78654 0,1.71073 0.4916,0.9242 1.71074,1.33714 1.71074,1.33714"
             id="path2004" />
          <path
             style="fill:none;stroke:#000000;stroke-width:0.3;stroke-linecap:round;stroke-dasharray:none"
             d="m 349.71828,133.3983 c 0,0 0.059,0.78655 -1.17983,1.31747 -1.2388,0.53092 -2.39895,0.2163 -2.39895,0.2163"
             id="path2006" />
          <path
             style="fill:none;stroke:#000000;stroke-width:0.3;stroke-linecap:round;stroke-dasharray:none"
             d="m 344.11414,137.74397 c 1.88004,1.84391 4.09888,4.18857 4.60129,6.27271 0.39328,1.75007 0.5079,3.33826 0.5079,3.33826"
             id="path2008"
             sodipodi:nodetypes="ccc" />
          <path
             style="fill:none;stroke:#000000;stroke-width:0.3;stroke-linecap:round;stroke-dasharray:none"
             d="m 360.10069,141.97166 c 0,0 -2.63493,-0.0983 -5.17155,0.98318 -2.53661,1.08151 -5.18326,3.37759 -5.18326,3.37759"
             id="path2010"
             sodipodi:nodetypes="csc" />
          <path
             style="fill:none;stroke:#000000;stroke-width:0.3;stroke-linecap:round;stroke-dasharray:none"
             d="m 355.93199,148.67697 c 0,0 -0.64889,0.8652 -0.62923,1.76973 0.0196,0.90453 1.39613,1.98603 1.39613,1.98603"
             id="path2012" />
          <path
             style="fill:none;stroke:#000000;stroke-width:0.3;stroke-linecap:round;stroke-dasharray:none"
             d="m 342.38374,144.15433 c 0,0 -0.51125,1.31746 -1.45513,1.7304 -0.94385,0.41294 -2.33997,0.53092 -2.33997,0.53092"
             id="path2014" />
          <path
             style="fill:none;stroke:#000000;stroke-width:0.3;stroke-linecap:round;stroke-dasharray:none"
             d="m 337.21219,149.85679 c 0,0 2.98887,1.45511 4.03106,3.7361 1.04217,2.28098 1.23881,6.1154 1.23881,6.1154"
             id="path2016" />
          <path
             style="fill:none;stroke:#000000;stroke-width:0.3;stroke-linecap:round;stroke-dasharray:none"
             d="m 342.87534,159.11838 c 0,0 2.98886,-2.53662 6.54798,-3.20518 3.55913,-0.66856 9.20261,-0.17697 9.20261,-0.17697"
             id="path2018" />
          <path
             style="fill:none;stroke:#000000;stroke-width:0.3;stroke-linecap:round;stroke-dasharray:none"
             d="m 349.28569,162.08759 c 0,0 -0.66858,1.02251 -0.57026,1.80906 0.0983,0.78654 1.00285,1.63208 1.00285,1.63208"
             id="path2020" />
          <path
             style="fill:none;stroke:#000000;stroke-width:0.3;stroke-linecap:round;stroke-dasharray:none"
             d="m 337.09422,168.18333 c 0,0 0.84553,-0.88487 4.12935,-1.10117 3.28385,-0.2163 6.44969,-0.059 6.44969,-0.059"
             id="path2022" />
          <path
             style="fill:none;stroke:#000000;stroke-width:0.3;stroke-linecap:round;stroke-dasharray:none"
             d="m 335.1217,163.37565 c 0,0 0.98721,0.9733 1.3209,2.2386 0.33372,1.26529 0.43103,2.80867 0.43103,2.80867"
             id="path2024" />
          <path
             style="fill:none;stroke:#000000;stroke-width:0.3;stroke-linecap:round;stroke-dasharray:none"
             d="m 337.77742,157.7305 c 0,0 0.47276,1.41824 -0.26418,2.30812 -0.73692,0.88988 -2.04393,1.2931 -2.04393,1.2931"
             id="path2026" />
          <g
             id="g10111">
            <path
               style="fill:#0ba207;fill-opacity:1;stroke:#000000;stroke-width:0.3;stroke-linecap:round;stroke-dasharray:none"
               d="m 330.19957,187.3745 c 0,0 4.25471,-6.81312 7.50832,-4.505 3.25361,2.30811 -1.72413,8.89876 -1.72413,8.89876 l -3.75415,-1.69633 z"
               id="path4042"
               sodipodi:nodetypes="csccc" />
            <path
               style="fill:#0ba207;fill-opacity:1;stroke:#000000;stroke-width:0.3;stroke-linecap:round;stroke-dasharray:none"
               d="m 330.27092,186.33289 c 0,0 -4.43555,3.1864 -0.11799,6.78396 4.1073,3.42237 6.84295,-1.9467 6.84295,-1.9467 0,0 -2.73413,-0.41179 -4.326,-1.7304 -1.65088,-1.36749 -2.39896,-3.10686 -2.39896,-3.10686 z"
               id="path4040"
               sodipodi:nodetypes="cscsc" />
            <path
               style="fill:none;fill-opacity:1;stroke:#000000;stroke-width:0.3;stroke-linecap:round;stroke-dasharray:none"
               d="m 330.32472,189.09863 -0.38933,2.51668"
               id="path4044" />
            <path
               style="fill:none;fill-opacity:1;stroke:#000000;stroke-width:0.3;stroke-linecap:round;stroke-dasharray:none"
               d="m 329.65731,189.51576 2.82257,0.26418"
               id="path4046" />
            <path
               style="fill:none;fill-opacity:1;stroke:#000000;stroke-width:0.3;stroke-linecap:round;stroke-dasharray:none"
               d="m 329.64339,190.79496 2.97553,0.27808"
               id="path4048" />
            <path
               style="fill:none;fill-opacity:1;stroke:#000000;stroke-width:0.3;stroke-linecap:round;stroke-dasharray:none"
               d="m 332.07666,190.65591 -0.0556,1.77975"
               id="path4050" />
            <path
               style="fill:none;fill-opacity:1;stroke:#000000;stroke-width:0.3;stroke-linecap:round;stroke-dasharray:none"
               d="m 331.71516,192.38004 3.32311,-0.25027"
               id="path4052" />
            <path
               style="fill:none;fill-opacity:1;stroke:#000000;stroke-width:0.3;stroke-linecap:round;stroke-dasharray:none"
               d="m 333.71737,191.51798 -0.014,1.82146"
               id="path4054" />
            <path
               style="fill:#0ba207;fill-opacity:1;stroke:#000000;stroke-width:0.3;stroke-linecap:round;stroke-dasharray:none"
               d="m 338.51,195.53549 c 0,0 7.67214,1.08097 6.78395,4.69961 -1.06182,4.32601 -8.49469,0.82588 -8.49469,0.82588 l 0.41293,-3.24451 z"
               id="path4058"
               sodipodi:nodetypes="csccc" />
            <path
               style="fill:#0ba207;fill-opacity:1;stroke:#000000;stroke-width:0.3;stroke-linecap:round;stroke-dasharray:none"
               d="m 337.59666,201.8906 c 0,0 -6.79416,0.25281 -4.53279,-5.42269 2.19151,-5.50018 6.38417,-1.89243 6.59064,-1.05673 0,0 -1.41825,0.97331 -1.83536,2.64183 -0.41714,1.66851 -0.22249,3.83759 -0.22249,3.83759 z"
               id="path4056"
               sodipodi:nodetypes="cscsc" />
            <path
               style="fill:none;fill-opacity:1;stroke:#000000;stroke-width:0.3;stroke-linecap:round;stroke-dasharray:none"
               d="m 334.96877,195.29995 2.71131,-0.0139"
               id="path4060" />
            <path
               style="fill:none;fill-opacity:1;stroke:#000000;stroke-width:0.3;stroke-linecap:round;stroke-dasharray:none"
               d="m 337.08221,194.78549 0.13903,2.41935"
               id="path4062" />
            <path
               style="fill:none;fill-opacity:1;stroke:#000000;stroke-width:0.3;stroke-linecap:round;stroke-dasharray:none"
               d="m 335.02438,195.02186 0.86207,4.54672"
               id="path4064" />
            <path
               style="fill:none;fill-opacity:1;stroke:#000000;stroke-width:0.3;stroke-linecap:round;stroke-dasharray:none"
               d="m 333.99544,197.13532 3.1563,-0.27809"
               id="path4066" />
            <path
               style="fill:none;fill-opacity:1;stroke:#000000;stroke-width:0.3;stroke-linecap:round;stroke-dasharray:none"
               d="m 334.12059,197.78882 0.98721,2.85039"
               id="path4068" />
            <path
               style="fill:none;fill-opacity:1;stroke:#000000;stroke-width:0.3;stroke-linecap:round;stroke-dasharray:none"
               d="m 333.73128,199.9857 2.41935,-1.15405"
               id="path4070" />
            <path
               style="fill:#0ba207;fill-opacity:1;stroke:#000000;stroke-width:0.3;stroke-linecap:round;stroke-dasharray:none"
               d="m 332.70922,195.90909 c 0.56644,5.6086 -5.66314,4.77828 -6.35137,4.6013 -0.68824,-0.17697 -2.9501,-1.38493 -2.77258,-3.5198 0.48401,-5.82056 8.79331,-4.3553 9.12395,-1.0815 z"
               id="path4183"
               sodipodi:nodetypes="ssss" />
            <path
               style="fill:none;fill-opacity:1;stroke:#000000;stroke-width:0.3;stroke-linecap:round;stroke-dasharray:none"
               d="m 324.72577,194.37533 c 0,0 3.60562,-0.0725 4.05071,2.20233 0.53092,2.71359 -2.14333,3.99172 -2.14333,3.99172"
               id="path4185"
               sodipodi:nodetypes="csc" />
            <path
               style="fill:none;fill-opacity:1;stroke:#000000;stroke-width:0.3;stroke-linecap:round;stroke-dasharray:none"
               d="m 328.10002,194.1598 2.34982,0.61179"
               id="path4300" />
            <path
               style="fill:none;fill-opacity:1;stroke:#000000;stroke-width:0.3;stroke-linecap:round;stroke-dasharray:none"
               d="m 329.33751,193.74267 -0.66741,1.77975"
               id="path4302" />
            <path
               style="fill:none;fill-opacity:1;stroke:#000000;stroke-width:0.3;stroke-linecap:round;stroke-dasharray:none"
               d="m 330.79745,194.29884 -1.16795,2.75306"
               id="path4304"
               sodipodi:nodetypes="cc" />
            <path
               style="fill:none;fill-opacity:1;stroke:#000000;stroke-width:0.3;stroke-linecap:round;stroke-dasharray:none"
               d="m 328.54497,195.27214 2.76696,1.23749"
               id="path4306" />
            <path
               style="fill:none;fill-opacity:1;stroke:#000000;stroke-width:0.3;stroke-linecap:round;stroke-dasharray:none"
               d="m 331.40925,196.13421 -0.95941,1.44605"
               id="path4308" />
            <path
               style="fill:none;fill-opacity:1;stroke:#000000;stroke-width:0.3;stroke-linecap:round;stroke-dasharray:none"
               d="m 331.22848,198.13643 -1.76582,-0.87597"
               id="path4310" />
            <path
               style="fill:#000000;stroke-width:0.1;stroke-linecap:round"
               d="m 336.67898,182.34113 c 0,0 0.6396,-0.0556 0.84817,-0.0834 0.20858,-0.0278 0.44493,-0.36151 0.6118,-0.22247 0.16685,0.13904 0.13904,0.3337 0.12512,0.62569 -0.014,0.29199 0.0278,0.86207 0.0278,0.86207 l -0.66741,-0.70912 -0.45884,-0.27808 z"
               id="path958" />
            <path
               style="fill:#000000;stroke-width:0.1;stroke-linecap:round"
               d="m 345.38245,199.25192 c 0,0 0.2163,0.22613 0.26546,0.58991 0.0491,0.36378 0.27529,0.59974 0.29495,0.71772 0.0196,0.11798 -0.12782,0.34412 -0.36377,0.42277 -0.23596,0.0787 -0.65874,0.23597 -0.65874,0.23597 l 0.23596,-0.61941 0.13766,-0.6194 z"
               id="path960" />
            <path
               style="fill:#000000;stroke-width:0.1;stroke-linecap:round"
               d="m 337.12372,188.83018 c 0.2458,-0.45227 0.66855,-1.5141 0.39325,-1.5731 -0.27527,-0.059 -0.35393,0.58991 -0.72755,1.26831 -0.37359,0.6784 -0.66855,0.82587 -0.4916,1.01268 0.17698,0.1868 0.8259,-0.70789 0.8259,-0.70789 z"
               id="path962" />
            <path
               style="fill:#000000;stroke-width:0.1;stroke-linecap:round"
               d="m 339.56413,201.21624 c 0.69522,0.19466 1.20272,0.32675 1.27225,0.1738 0.0695,-0.15295 -0.18772,-0.19466 -0.70218,-0.30589 -0.51446,-0.11124 -0.91072,-0.39628 -0.94549,-0.21552 -0.0348,0.18075 0.37542,0.34761 0.37542,0.34761 z"
               id="path964" />
            <path
               style="fill:#000000;stroke-width:0.1;stroke-linecap:round"
               d="m 339.27955,201.28816 c 1.0002,0.33199 2.64644,0.41203 2.64953,0.55866 0.003,0.14662 -1.16964,0.0737 -1.71865,-0.0436 -0.54902,-0.11735 -1.29907,-0.24953 -1.21795,-0.40386 0.0811,-0.15433 0.28707,-0.11121 0.28707,-0.11121 z"
               id="path966" />
            <path
               style="fill:#000000;fill-opacity:1;stroke:none;stroke-width:0.1;stroke-linecap:round;stroke-dasharray:none"
               d="m 326.49549,194.62113 c 0,0 -0.75859,1.30593 -0.27528,2.77257 0.57023,1.7304 2.07451,1.78939 2.07451,1.78939 l 0.45226,-1.16015 0.0787,-0.8652 -0.26545,-1.20932 -0.70789,-0.79638 -0.6784,-0.37361 z"
               id="path4433"
               sodipodi:nodetypes="csccccccc" />
          </g>
        </g>
      </g>
    </g>
  </g>
</svg>
