<?xml version="1.0" encoding="UTF-8" standalone="no"?>
<!-- Created with Inkscape (http://www.inkscape.org/) -->

<svg
   width="140.17599mm"
   height="155.56471mm"
   viewBox="0 0 140.17599 155.56471"
   version="1.1"
   id="svg3784"
   inkscape:version="1.2.2 (732a01da63, 2022-12-09)"
   sodipodi:docname="Wappen Kleve-Dit2.svg"
   xmlns:inkscape="http://www.inkscape.org/namespaces/inkscape"
   xmlns:sodipodi="http://sodipodi.sourceforge.net/DTD/sodipodi-0.dtd"
   xmlns="http://www.w3.org/2000/svg"
   xmlns:svg="http://www.w3.org/2000/svg">
  <sodipodi:namedview
     id="namedview3786"
     pagecolor="#ffffff"
     bordercolor="#666666"
     borderopacity="1.0"
     inkscape:showpageshadow="2"
     inkscape:pageopacity="0.0"
     inkscape:pagecheckerboard="0"
     inkscape:deskcolor="#d1d1d1"
     inkscape:document-units="mm"
     showgrid="false"
     inkscape:zoom="0.91040005"
     inkscape:cx="265.268"
     inkscape:cy="294.92529"
     inkscape:current-layer="layer1" />
  <defs
     id="defs3781" />
  <g
     inkscape:label="Ebene 1"
     inkscape:groupmode="layer"
     id="layer1"
     transform="translate(-537.75523,-71.976119)">
    <g
       id="g3700"
       transform="translate(497.56959,-6.37773)">
      <path
         id="path2588"
         style="fill:#ff0000;stroke:none;stroke-width:0.8;stroke-linecap:round;stroke-dasharray:none"
         d="m 40.585636,78.753849 v 85.862981 a 69.688019,68.901482 0 0 0 69.688254,68.90173 69.688019,68.901482 0 0 0 69.68774,-68.90122 69.688019,68.901482 0 0 0 0,-5.1e-4 V 78.753849 Z" />
      <path
         id="path2639"
         style="fill:#ffffff;stroke:#000000;stroke-width:0.4;stroke-linecap:round;stroke-dasharray:none"
         d="m 40.585636,149.94434 v 14.67249 a 69.688019,68.901482 0 0 0 69.688254,68.90173 69.688019,68.901482 0 0 0 64.60226,-43.1214 l -52.05109,-0.12092 c -21.78163,-0.0507 -28.450306,-10.22018 -42.233597,-23.04562 -2.898572,-2.69715 -5.686502,-5.61797 -9.468672,-8.46873 -12.43548,-9.3731 -15.04769,-8.71554 -30.537155,-8.81755 z" />
      <path
         id="path845"
         style="fill:#0000ff;fill-opacity:1;stroke:#000000;stroke-width:0.4;stroke-dasharray:none"
         d="m 131.72943,198.47626 c -7.87436,7.8e-4 -13.51659,7.20028 -21.39095,7.20111 -7.87438,7.8e-4 -13.520715,-7.1978 -21.395072,-7.19698 -7.874381,7.9e-4 -13.516105,7.20079 -21.390425,7.20163 -6.552835,7.3e-4 -11.563563,-4.98109 -17.598409,-6.65386 a 69.688019,68.901482 0 0 0 8.549349,11.64374 c 2.844032,1.4678 5.750613,2.73353 9.04906,2.73316 7.87432,-8.4e-4 13.516044,-7.20084 21.390425,-7.20163 7.874357,-8.2e-4 13.520692,7.19776 21.395072,7.19698 7.87436,-8.3e-4 13.51659,-7.20033 21.39095,-7.20111 7.87432,-8.3e-4 13.52073,7.19735 21.39507,7.19646 3.21115,-3.3e-4 6.04975,-1.20168 8.82117,-2.62 a 69.688019,68.901482 0 0 0 8.63203,-11.72073 c -5.97088,1.71187 -10.95165,6.61701 -17.4532,6.61769 -7.87434,8.9e-4 -13.52075,-7.19729 -21.39507,-7.19646 z" />
      <path
         id="path3572"
         style="fill:#0000ff;fill-opacity:1;stroke:#000000;stroke-width:0.4;stroke-dasharray:none"
         d="m 131.66638,213.92183 c -7.87435,7.8e-4 -13.51711,7.20028 -21.39146,7.20111 -7.87438,7.8e-4 -13.520717,-7.19728 -21.395074,-7.19646 -6.983595,7e-4 -12.212083,5.65983 -18.798336,6.94169 a 69.688019,68.901482 0 0 0 7.633126,4.63073 c 3.536916,-1.87958 7.045525,-3.84897 11.16521,-3.84938 7.874357,-8.2e-4 13.520694,7.19724 21.395074,7.19646 7.87435,-8.3e-4 13.51711,-7.20033 21.39146,-7.20111 4.12161,-4.4e-4 7.63268,1.97083 11.17245,3.85041 a 69.688019,68.901482 0 0 0 7.63726,-4.63434 c -6.59044,-1.27767 -11.82362,-6.93985 -18.80971,-6.93911 z" />
      <path
         id="path3622"
         style="fill:none;stroke:#000000;stroke-width:0.8;stroke-linecap:round;stroke-dasharray:none"
         d="m 40.585636,78.753849 v 85.862981 a 69.688019,68.901482 0 0 0 69.688254,68.90173 69.688019,68.901482 0 0 0 69.68774,-68.90122 69.688019,68.901482 0 0 0 0,-5.1e-4 V 78.753849 Z" />
      <g
         id="g2502"
         transform="translate(-193.61968,-2.4012991)">
        <g
           id="g2475">
          <path
             style="fill:#000000;stroke:none;stroke-width:0.1;stroke-linecap:round;stroke-dasharray:none"
             d="m 331.33274,142.95485 c 0,0 10.7129,5.43153 13.64659,3.42147 2.59393,-1.77726 -0.65787,-6.13329 -0.23597,-10.46106 0.3017,-3.09479 3.50016,-6.56767 4.12939,-6.21373 0.62923,0.35395 -0.79861,3.70927 0.0394,3.93274 0.59886,0.15971 1.82005,-4.69512 3.10688,-6.60699 2.06467,-3.06754 3.77542,-2.83157 3.77542,-2.83157 0,0 -2.85132,5.09289 -2.16309,5.32885 0.68823,0.23597 1.2978,-0.19663 2.41863,-1.45511 1.12083,-1.25847 2.24324,-2.68937 4.28668,-3.10686 1.78279,-0.36424 3.55912,0 3.55912,0 0,0 -5.15709,4.35188 -5.05356,7.19691 0.0895,2.45971 3.83441,2.53661 3.91307,2.96921 0.0787,0.4326 -5.50583,2.45096 -5.32548,7.21598 0.14159,3.74087 3.12117,6.60618 3.12117,6.60618 0,0 -6.42869,0.74915 -7.96547,2.30023 -1.93709,1.95511 -1.50167,5.31145 -1.50167,5.31145 0,0 -5.57231,-5.39209 -6.75749,-5.20022 -0.86892,0.14067 -1.83537,4.31034 -1.83537,4.31034 0,0 -1.88724,-4.07376 -4.33814,-5.95105 -3.92102,-3.00333 -6.47941,-3.44827 -6.47941,-3.44827 z"
             id="path2350"
             sodipodi:nodetypes="cssssscssscssscscscscc" />
          <path
             style="fill:#ffffff;stroke:none;stroke-width:0.1;stroke-linecap:round;stroke-dasharray:none"
             d="m 332.74854,144.48861 c 0,0 8.33258,3.27458 10.81419,2.97456 3.63407,-0.43934 3.51247,-3.11558 2.57537,-7.18538 -0.85857,-3.72872 -0.82866,-5.04855 0.45365,-7.07612 0.88688,-1.40232 1.7304,-2.16301 1.7304,-2.16301 0,0 -0.55057,3.85408 0.19664,3.93274 0.74724,0.0787 2.69402,-4.17031 3.22485,-5.70246 0.76827,-2.21747 2.92989,-4.20803 2.92989,-4.20803 0,0 -2.3327,4.57156 -1.55965,5.02782 1.34726,0.79516 2.47132,-0.80653 4.64404,-2.89209 2.40166,-2.30532 4.28253,-1.66852 4.28253,-1.66852 0,0 -4.13999,4.44909 -3.97663,6.7575 0.17133,2.42111 3.05895,3.05894 3.05895,3.05894 0,0 -4.61153,2.75423 -4.58843,6.56284 0.0209,3.44832 2.53059,6.53503 2.53059,6.53503 0,0 -4.14349,0.47274 -6.47941,1.94659 -2.33593,1.47386 -2.05784,4.78309 -2.05784,4.78309 0,0 -4.42157,-4.5328 -6.00666,-4.64404 -1.58509,-0.11123 -2.14126,3.42046 -2.14126,3.42046 0,0 -1.77976,-3.67074 -4.25472,-5.22802 -2.47497,-1.55728 -5.50611,-2.86429 -5.50611,-2.86429 z"
             id="path2404"
             sodipodi:nodetypes="cssscsscsscscscscscscc" />
          <g
             id="g2468">
            <path
               style="fill:#000000;stroke:none;stroke-width:0.1;stroke-linecap:round;stroke-dasharray:none"
               d="m 350.77796,140.54478 c 0,0 0.88988,-1.19578 1.19576,-2.72525 0.30591,-1.52947 0.49977,-2.98198 1.16798,-4.1991 0.77864,-1.41824 2.78085,-3.69855 2.9477,-3.47608 0.16684,0.22247 -1.86317,2.30812 -2.53059,4.42157 -0.66741,2.11346 -1.30698,4.58842 -1.69632,5.36707 -0.38931,0.77864 -0.88987,1.83536 -1.14014,1.83536 -0.2503,0 -1.33482,-2.94771 -1.58509,-2.9199 -0.2503,0.0278 0.55953,3.928 0.25027,5.42268 -0.17109,0.82688 -0.71012,1.72413 -0.90477,1.64071 -0.19466,-0.0834 0.62669,-1.41824 0.4042,-3.19799 -0.22246,-1.77976 -0.88987,-6.39599 -0.61177,-6.4516 0.27808,-0.0556 2.50277,4.28253 2.50277,4.28253 z"
               id="path2433"
               sodipodi:nodetypes="csssssssssssc" />
            <path
               style="fill:#000000;stroke:none;stroke-width:0.1;stroke-linecap:round;stroke-dasharray:none"
               d="m 348.46985,149.0264 c 0,0 2.80865,-2.19688 3.97663,-3.97663 1.16795,-1.77975 2.33593,-4.56061 2.80866,-5.61734 0.47276,-1.05673 2.2525,-3.30923 2.08566,-3.39265 -0.16685,-0.0834 -2.36374,2.36373 -3.2258,4.44938 -0.86207,2.08564 -2.69746,5.00555 -4.36597,6.42379 -1.66852,1.41824 -3.198,2.16907 -3.11455,2.44716 0.0834,0.27809 2.07238,0.65588 4.00442,0.38932 0.93218,-0.12861 2.16908,-1.22358 3.03115,-1.55728 0.86206,-0.33371 1.69632,-0.47275 1.66851,-0.69522 -0.0278,-0.22247 -2.00221,0.13904 -2.9755,0.75083 -0.97333,0.61179 -1.08734,0.6688 -2.25251,0.88988 -0.8781,0.16661 -1.6407,-0.11124 -1.6407,-0.11124 z"
               id="path2435"
               sodipodi:nodetypes="csssssssssssc" />
          </g>
        </g>
        <g
           id="g2323">
          <path
             style="fill:#000000;stroke:none;stroke-width:0.1;stroke-linecap:round;stroke-dasharray:none"
             d="m 327.01827,163.99892 c 0,0 -2.44702,5.62183 -6.14658,9.55259 -1.83007,1.94444 -5.23055,4.64062 -6.1744,5.70246 -0.94385,1.06184 -2.30401,3.00319 -2.24165,3.42148 0.10011,0.67147 2.06656,1.61871 3.70353,1.88969 1.87421,0.31026 3.92794,0.24074 4.1639,-0.30985 0.23598,-0.55058 -0.28299,-1.8106 0.0187,-2.34574 0.40718,-0.7222 0.9506,-1.14962 1.02926,-1.50357 0.0787,-0.35395 -0.49933,-0.75874 -0.10606,-1.26999 0.39328,-0.51126 1.16353,-1.55006 3.16923,-3.16248 2.00568,-1.61242 4.97153,-4.22793 4.97153,-4.22793 l -0.82587,-5.4303 z"
             id="path2292"
             sodipodi:nodetypes="csssssssssccc" />
          <path
             style="fill:#ffffff;stroke:none;stroke-width:0.1;stroke-linecap:round;stroke-dasharray:none"
             d="m 315.4332,179.90788 c 0,0 -1.82147,2.43325 -1.6407,2.68353 0.18073,0.25028 0.80643,0.83426 2.75304,1.33481 1.66268,0.42754 3.2258,0.3198 3.28141,0.11124 0.0556,-0.20857 -0.3198,-1.07063 -0.40322,-1.08454 -0.0834,-0.0139 -0.942,-0.15205 -2.2803,-1.01501 -1.23889,-0.79886 -1.71023,-2.03003 -1.71023,-2.03003 z"
             id="path2316"
             sodipodi:nodetypes="csssssc" />
          <path
             style="fill:#ffffff;stroke:none;stroke-width:0.1;stroke-linecap:round;stroke-dasharray:none"
             d="m 327.14062,165.85062 c 0,0 -2.25248,4.03225 -3.36484,5.50611 -1.11233,1.47386 -4.63664,5.26739 -5.53392,6.03447 -1.19634,1.02275 -1.89098,1.83537 -1.89098,1.83537 0,0 -0.0765,1.09276 0.94549,1.97441 0.949,0.81866 2.14128,1.39043 2.14128,1.39043 0,0 1.25137,-1.80756 1.25137,-2.14126 0,-0.33371 -0.44492,-1.02892 0.11123,-1.83537 0.55618,-0.80645 3.08676,-3.11457 4.08789,-3.89321 1.00111,-0.77864 3.47607,-3.25361 3.47607,-3.25361 l -0.30591,-3.92101 z"
             id="path2318"
             sodipodi:nodetypes="csscscsssccc" />
        </g>
        <g
           id="g2290">
          <path
             style="fill:#000000;stroke:none;stroke-width:0.1;stroke-linecap:round;stroke-dasharray:none"
             d="m 281.623,127.9318 c 0,0 -9.64586,-2.09523 -10.89367,-1.92704 -1.30258,0.17558 -9.52651,4.52989 -10.77568,5.85978 -1.60357,1.70719 -2.04897,6.86879 -1.2978,7.43286 1.10784,0.8319 6.10244,-0.12755 6.18114,-1.1107 0.0315,-0.39327 -0.11005,-1.34097 -0.41463,-2.08729 -0.45689,-1.11951 -1.14162,-2.064 -1.04723,-2.22918 0.15731,-0.27529 1.57309,0.34441 2.28098,0.0298 0.70789,-0.31462 1.10117,-1.60288 1.10117,-1.60288 0,0 4.32213,-2.20469 5.18643,-2.10064 1.13177,0.13625 1.5467,0.0154 4.29145,2.29727 2.06502,1.71677 4.89171,3.59509 4.89171,3.59509 l 3.56368,-1.43208 z"
             id="path2263"
             sodipodi:nodetypes="cssssssscssccc" />
          <path
             style="fill:#ffffff;stroke:none;stroke-width:0.1;stroke-linecap:round;stroke-dasharray:none"
             d="m 264.19581,137.58316 c 0,0 -1.307,-0.0556 -2.5723,-0.6257 -1.26529,-0.57007 -1.83536,-1.20967 -2.05783,-1.14015 -0.22247,0.0695 -0.27809,2.75305 0.0695,3.04504 0.34761,0.29199 1.48578,0.17093 2.40346,0.0597 0.83829,-0.11517 1.99899,-0.46156 2.15717,-1.33886 z"
             id="path2283"
             sodipodi:nodetypes="cssscc" />
          <path
             style="fill:#ffffff;stroke:none;stroke-width:0.1;stroke-linecap:round;stroke-dasharray:none"
             d="m 281.20078,128.55926 c 0,0 -9.16953,-1.94659 -9.6496,-1.9466 -0.73364,-1e-5 -3.43174,1.27181 -5.94655,2.55848 -1.87,0.95676 -3.71325,1.9093 -4.17578,2.41926 -1.08454,1.19577 -2.03003,2.64182 -1.89098,3.11456 0.13904,0.47275 4.18676,2.8039 4.57608,2.41458 0.38932,-0.38932 -1.60056,-2.99856 -1.51714,-3.38788 0.0834,-0.38932 0.69522,-0.80645 1.00112,-0.77864 0.30589,0.0278 1.19577,0.6396 1.80754,0.25028 0.6118,-0.38933 0.47276,-1.01502 0.8899,-1.34872 0.41711,-0.3337 4.8387,-2.51668 5.86761,-2.34983 1.02891,0.16685 2.66707,0.50812 4.99939,2.5556 1.59842,1.40321 4.17745,3.42326 4.17745,3.42326 l 1.75196,-1.6129 -1.16798,-3.61512 z"
             id="path2285"
             sodipodi:nodetypes="cssssssssssscccc" />
        </g>
        <path
           style="fill:#000000;stroke:none;stroke-width:0.1;stroke-linecap:round;stroke-dasharray:none"
           d="m 330.44986,157.17433 c 0,0 5.79692,-6.34593 3.53169,-14.62734 -1.50008,-5.48412 -5.08463,-11.87591 -15.10745,-12.6307 -3.42343,-0.25781 -8.8045,-1.75629 -10.95536,-4.05404 -3.29804,-3.52328 -1.90821,-7.72908 -1.49018,-7.95311 0.55787,-0.29898 1.714,1.28372 1.714,1.28372 0,0 0.97899,-2.81062 0.10506,-4.94696 -1.16143,-2.83916 -2.51695,-4.95525 -2.28099,-5.30919 0.23597,-0.35395 1.61242,0.19663 1.76973,-0.0787 0.15731,-0.27529 -2.66648,-4.72966 -3.4608,-7.55085 -1.14049,-4.050711 0.39327,-6.056405 0.39327,-6.056405 0,0 -4.3079,0.299671 -6.53259,-0.645822 -2.22469,-0.945494 -2.83648,-1.863178 -2.80867,-2.252499 0.0278,-0.38932 1.19577,-1.307005 1.22358,-1.529474 0.0278,-0.222469 -1.16797,-1.112345 -2.16908,-0.945493 -1.00111,0.166852 -1.25003,1.049014 -2.50277,0.834259 -1.94661,-0.333703 -1.75194,-1.529475 -2.11346,-2.141264 -0.36151,-0.61179 -1.05672,-1.501666 -1.05672,-1.501666 0,0 -0.72453,0.512245 -1.36263,1.279197 -0.75292,0.904955 -1.14015,1.501665 -1.14015,1.501665 0,0 -0.65749,-0.185927 -1.28644,-0.4633 -0.72467,-0.319586 -1.45009,-0.734808 -1.7238,-0.703227 -0.51125,0.05899 -0.53091,0.707892 -1.73039,0.983183 -1.19949,0.275291 -3.38216,0.255627 -3.46081,0.412937 -0.0787,0.157309 0.29496,0.96352 1.80906,1.789394 0.75365,0.411081 2.10401,0.334282 2.14334,0.530918 0.0393,0.196637 -2.14867,0.473807 -4.14904,1.376457 -2.93769,1.325611 -3.51979,4.011388 -3.34282,4.168697 0.17697,0.157309 0.90453,-0.786547 1.76973,-0.865201 0.8652,-0.07865 1.57309,-0.03933 2.163,-0.353946 0.58991,-0.314619 2.02536,-1.376457 2.12368,-1.219148 0.0983,0.15731 -1.27814,1.868049 -2.5956,2.772577 -1.31747,0.904529 -3.55913,1.946701 -3.12653,3.441141 0.4326,1.49444 0.70789,1.35679 0.78655,1.0815 0.0786,-0.27529 0.059,-0.80621 1.17982,-1.31746 1.12083,-0.51126 1.75007,-1.17982 2.00569,-0.80621 0.25563,0.37361 -0.45226,1.69107 -1.47477,3.42147 -1.02251,1.73041 -3.06753,4.79794 -2.8709,6.96094 0.19664,2.163 1.19396,4.28087 2.51695,4.56197 1.19709,0.25435 2.35964,-1.10116 2.35964,-1.10116 0,0 0.77122,0.81999 1.67562,0.53698 2.04393,-0.6396 0.6535,-2.2664 0.90378,-2.62791 0.25028,-0.36151 1.48776,-0.79254 3.92102,-2.39154 1.9821,-1.30253 4.01834,-2.76696 4.01834,-2.76696 0,0 -0.41163,3.94593 -2.69262,7.13144 -2.28098,3.18552 -8.6536,9.85716 -7.24298,15.37699 0.45226,1.76973 1.61917,3.53946 1.61917,3.53946 0,0 -4.61458,2.69232 -6.83927,4.16618 -2.22469,1.47385 -5.14459,3.05895 -4.1991,5.4783 0.94549,2.41935 1.6129,3.44826 2.11345,6.75749 0.34104,2.25466 1.02892,4.64404 1.89099,5.75639 0.86207,1.11234 1.55728,2.25249 2.14126,2.22469 0.58399,-0.0278 1.9038,-1.33723 2.72967,-2.59571 0.82587,-1.25847 1.49143,-2.61826 1.04217,-3.06753 -0.39327,-0.39328 -0.68822,-0.21628 -0.68822,-0.21628 0,0 -0.11799,-0.62924 -0.96352,-0.60957 -1.04357,0.0243 -2.12368,-0.17695 -2.12368,-0.39328 0,-0.2163 2.30065,-1.0815 2.30065,-1.31746 0,-0.23597 -2.73476,-3.23223 -2.77258,-6.07608 -0.023,-1.7307 0.70789,-2.75291 3.53946,-2.92988 2.83157,-0.17697 8.04244,-0.23597 8.04244,-0.23597 0,0 5.32944,4.42151 10.8035,6.31877 5.09983,1.76754 13.57945,3.02146 13.57945,3.02146 0,0 2.30258,3.79119 4.80536,5.79341 2.50277,2.00222 5.45049,5.33926 7.11901,7.45271 1.66851,2.11346 3.44826,4.8387 3.00333,9.6774 -0.44494,4.8387 -1.39043,7.50833 -1.50167,7.7308 -0.11123,0.22247 -2.05784,2.2525 -2.61401,2.8921 -0.55617,0.63959 -1.64071,1.9466 -0.94549,2.50277 0.69521,0.55617 2.11345,1.2792 3.8932,1.44605 1.77976,0.16685 3.58732,0.22247 3.61513,-0.69522 0.0278,-0.91768 -0.16686,-3.00333 0.38932,-3.36484 0.55617,-0.36151 1.55728,-0.38932 1.69632,-1.02892 0.13905,-0.6396 -0.94549,-2.16907 -0.91768,-3.2258 0.0278,-1.05673 0.70609,-4.56635 1.4393,-7.48331 0.91768,-3.65084 2.91036,-6.29068 2.85475,-7.26398 -0.0556,-0.9733 -1.31853,-2.04912 -2.59773,-3.68982 -1.27919,-1.64071 -1.89098,-3.17019 -1.89098,-3.17019 z"
           id="path1698"
           sodipodi:nodetypes="csssscsssscsssssscscssssssssssssssssssscssscsscssssssscssssscscssssssssssssssc" />
        <path
           style="fill:#ffffff;stroke:none;stroke-width:0.1;stroke-linecap:round;stroke-dasharray:none"
           d="m 286.02559,90.697819 c 0,0 -0.77865,-0.347607 -1.36263,-0.625692 -0.58399,-0.278088 -0.79254,-0.611791 -1.18187,-0.583983 -0.38931,0.02781 -0.76473,0.750834 -1.72413,0.959397 -0.95941,0.208566 -2.25251,0.208566 -2.25251,0.208566 0,0 0.63961,0.90378 1.50167,1.042824 0.86207,0.139044 2.07174,-0.180756 2.11347,0.02781 0.0417,0.208566 -0.72303,1.334815 -1.6129,1.640711 -0.88987,0.305892 -2.04393,0.389318 -3.28142,1.084535 -1.23748,0.695216 -2.30812,2.043935 -2.30812,2.043935 0,0 0.54227,-0.25028 0.98719,-0.278088 0.44495,-0.02781 1.16798,-0.01392 1.34874,-0.09733 0.18074,-0.08343 0.62569,-0.625695 1.43214,-0.945494 0.80645,-0.319799 1.6407,-0.750832 1.6546,-0.403225 0.014,0.347607 0.0973,1.501666 -1.16795,2.600105 -1.26529,1.098442 -2.79477,2.391543 -3.28142,2.572298 -0.48665,0.180752 -1.0011,0.500552 -1.07064,0.709122 -0.0695,0.20856 -0.014,0.58398 -0.014,0.58398 0,0 0.44492,-0.36151 0.80645,-0.59789 0.3615,-0.23637 2.05782,-0.709116 3.25361,-1.390426 1.19576,-0.681313 2.58619,-2.280309 2.66962,-2.280309 0.0834,0 0.87598,0.625695 2.00221,0.80645 1.12625,0.180758 1.96051,0.09733 1.96051,0.09733 0,0 -0.15293,-0.862068 -0.75084,-1.459955 -0.59788,-0.597885 -0.76472,-0.848162 -0.76472,-0.848162 0,0 0.77864,-1.751944 0.90379,-2.739149 0.12512,-0.987205 0.13903,-2.127361 0.13903,-2.127361 z"
           id="path1885" />
        <path
           style="fill:#ffffff;stroke:none;stroke-width:0.1;stroke-linecap:round;stroke-dasharray:none"
           d="m 303.36426,96.190024 c 0,0 -3.39265,0.139041 -5.61734,-1.02892 -2.2247,-1.167963 -3.30922,-2.030029 -3.30922,-2.641819 0,-0.611789 0.91768,-1.640708 0.91768,-1.640708 0,0 -0.13904,-0.444939 -1.00111,-0.22247 -0.86206,0.22247 -1.50167,0.945494 -2.98944,0.695217 -1.48776,-0.250278 -1.77975,-0.583983 -1.77975,-0.583983 0,0 0.11123,-0.80645 -0.22246,-1.376527 -0.33372,-0.570076 -0.83426,-1.167961 -0.83426,-1.167961 0,0 -0.39012,0.432032 -0.77864,0.945494 -0.33122,0.437733 -0.83426,0.987206 -0.83426,0.987206 0,0 0.0695,1.348718 -0.26419,2.836478 -0.33369,1.48776 -0.70911,2.238595 -0.70911,2.238595 0,0 0.41979,0.688732 0.75407,1.357297 0.3343,0.668565 0.64891,1.868048 0.64891,1.868048 0,0 -1.82872,0.334282 -2.67427,0.07865 -0.84553,-0.255627 -1.76972,-0.668565 -1.76972,-0.668565 0,0 -0.74721,0.747221 -1.21915,1.101164 -0.47194,0.353947 -1.12083,0.786548 -1.12083,0.786548 0,0 -0.90453,2.221992 -2.79225,5.407502 -1.8877,3.18551 -2.75093,4.57773 -2.12365,7.00027 0.56467,2.18074 0.8207,2.70507 1.92702,2.65459 0.70819,-0.0323 2.12367,-2.85123 2.12367,-2.85123 0,0 0.31464,2.39897 0.94387,2.39897 0.62924,0 1.02251,-0.19664 0.86519,-0.66857 -0.15729,-0.47193 -0.51125,-1.33713 0,-1.65175 0.51126,-0.31462 1.76975,-1.2978 4.28667,-2.87089 2.51696,-1.5731 3.99175,-2.8709 3.99175,-2.8709 0,0 0.16316,-1.24079 -0.3374,-2.5756 -0.50055,-1.33481 -1.18902,-2.26977 -0.95265,-2.45053 0.23638,-0.18076 3.44125,2.95202 1.60616,9.06898 -2.00223,6.67408 -8.15053,11.44547 -9.06561,15.4616 -1.00112,4.39376 1.11234,6.89653 1.11234,6.89653 0,0 1.42062,-0.77386 2.57468,-1.91401 1.15406,-1.14016 2.41697,-2.45194 2.62553,-2.25728 0.20857,0.19466 -3.08854,4.15896 -7.0606,6.47928 -3.97207,2.32031 -9.0684,4.95006 -8.84593,7.09133 0.19541,1.88087 1.08454,2.72524 1.55728,4.92213 0.47275,2.19688 1.47386,6.22913 1.47386,6.22913 0,0 2.32202,0.23637 3.61512,-0.20857 0.93053,-0.32018 1.45995,-0.80645 1.37653,-1.05673 -0.0834,-0.25027 -0.79139,-0.23414 -1.84927,-0.3337 -1.18187,-0.11123 -1.59753,-0.23869 -1.64071,-0.6396 -0.0973,-0.90378 1.80756,-1.27919 1.79365,-1.73804 -0.0139,-0.45884 -3.93022,-6.1252 -1.68856,-8.2882 2.24166,-2.163 10.02014,-0.77842 13.66017,-1.80633 5.67981,-1.60393 7.61957,-3.97663 7.86984,-3.67073 0.25028,0.30589 -2.25249,2.25249 -4.36595,3.14237 -2.11345,0.88988 -4.11568,1.36262 -4.11568,1.36262 0,0 3.4691,3.52835 10.2334,5.77 6.7643,2.24166 12.59906,2.88719 12.59906,2.88719 0,0 -0.3909,-1.30181 -0.15448,-2.95642 0.23637,-1.65461 1.43214,-3.15628 1.65461,-3.01724 0.22247,0.13905 -1.52443,2.96791 -0.73693,5.28364 1.40433,4.12958 8.07118,8.57852 10.50947,11.92135 2.43829,3.34282 5.30919,7.59017 4.52264,12.42743 -0.78654,4.83726 -1.1417,8.00655 -1.36417,8.22902 -0.22247,0.22247 -1.47386,1.64071 -1.47386,1.64071 0,0 0.57004,1.01502 1.43211,1.54338 0.86206,0.52836 2.15516,1.14015 2.47496,0.82036 0.3198,-0.3198 0.0139,-1.80757 0.51446,-2.18298 0.50056,-0.37542 1.76585,-0.34761 1.75195,-0.70912 -0.0139,-0.36151 -1.14016,-2.37764 -1.11235,-3.08676 0.0278,-0.70912 0.29381,-3.46237 1.39498,-7.19846 1.10116,-3.7361 2.79224,-6.29238 2.75291,-7.31489 -0.0393,-1.02251 -1.35935,-1.58182 -2.74814,-3.58832 -1.02494,-1.48081 -1.93181,-2.97934 -1.93181,-2.97934 0,0 -1.0312,0.51657 -1.18023,0.21799 -0.12473,-0.24987 4.99498,-2.73494 5.34893,-11.70157 0.26055,-6.60057 -5.56308,-13.26285 -9.87116,-14.3938 -5.28639,-1.38777 -8.07015,-1.48543 -11.47957,-2.59657 -5.52308,-1.8 -9.17685,-6.20133 -9.59398,-6.1179 -0.41713,0.0834 -0.27808,1.33481 -0.19466,1.97441 0.0834,0.6396 0.33371,1.9188 0.33371,1.9188 0,0 -2.66963,-1.33482 -3.2258,-3.55951 -0.55618,-2.22469 -0.69522,-7.25806 -0.97331,-7.28586 -0.11297,-0.0113 -0.6771,0.32542 -1.14204,0.82832 -0.6795,0.73496 -1.30511,1.73008 -1.30511,1.73008 0,0 -0.80619,-2.37236 -0.54943,-4.05389 0.30016,-1.96576 0.42807,-2.43367 0.49044,-3.99235 0.0212,-0.53085 -0.13567,-1.57555 -0.13567,-1.57555 l -4.03225,3.78198 c 0,0 0.90094,-12.717565 0.58177,-14.165577 -0.643,-2.91713 -2.08435,-4.011388 -1.84839,-4.168697 0.23596,-0.157309 2.5956,2.379304 2.55628,5.033898 -0.0379,2.556296 -0.47193,11.444256 -0.47193,11.444256 l 3.81475,-3.65744 c 0,0 0.39327,1.57309 0.39327,2.87089 0,1.2978 -0.44936,3.15045 -0.55058,4.30635 -0.13432,1.53383 -0.0393,2.35963 -0.0393,2.35963 0,0 1.9184,-1.95157 2.72485,-1.78472 0.80645,0.16685 0.77063,4.84174 0.97189,6.52367 0.27529,2.30065 1.63209,3.59845 1.63209,3.59845 0,0 0,-1.0815 0.0983,-1.80906 0.0983,-0.72756 0.3736,-1.84838 0.58991,-1.84838 0.2163,0 0.72854,1.17126 2.06706,2.26231 1.17372,0.95671 2.25894,1.67042 2.25894,1.67042 0,0 -1.05759,-1.9348 -1.39612,-3.83442 -0.35393,-1.98602 0.17697,-4.24735 0.84554,-4.36533 0.66856,-0.11798 1.55343,0.78655 1.55343,0.78655 0,0 0.26381,-2.91469 -0.7373,-4.77787 -1.00111,-1.86317 -2.00222,-4.31033 -1.55728,-4.81089 0.44494,-0.50055 1.36262,-0.16685 1.36262,-0.16685 0,0 -3.00866,-5.42741 -3.64293,-7.64737 -0.72302,-2.530584 0.22247,-4.310336 0.22247,-4.310336 z"
           id="path1941"
           sodipodi:nodetypes="csscsscscscscscscscssscsssscsssscssssscssssssssscscsssssscsssssssscsssssscssscssccsssccsscsscssscsscsscsc" />
        <path
           style="fill:#ffffff;stroke:none;stroke-width:0.1;stroke-linecap:round;stroke-dasharray:none"
           d="m 274.83904,154.12381 c 0,0 0.41295,0.82587 0.88486,1.57309 0.47194,0.74722 0.93403,1.40595 1.42563,1.02251 0.4916,-0.38344 1.62224,-1.50427 2.14334,-2.51695 0.52109,-1.01268 0.72755,-1.75006 0.56041,-1.7599 -0.16714,-0.01 -0.98487,0.9587 -2.2515,1.3273 -1.85821,0.54076 -2.76274,0.35395 -2.76274,0.35395 z"
           id="path2015"
           sodipodi:nodetypes="cssscsc" />
        <path
           style="fill:#ffffff;stroke:none;stroke-width:0.1;stroke-linecap:round;stroke-dasharray:none"
           d="m 328.71182,185.30275 c 0,0 -1.62682,-0.0556 -2.72526,-0.76474 -1.09842,-0.70912 -1.44603,-1.33481 -1.76583,-1.3209 -0.3198,0.0139 -1.58509,1.51556 -1.36263,1.83536 0.22246,0.3198 1.2931,1.01502 2.75304,1.25139 1.45997,0.23638 2.80869,0.26418 3.03115,0.13905 0.22246,-0.12514 0.0695,-1.14016 0.0695,-1.14016 z"
           id="path2027" />
        <path
           style="fill:#000000;stroke:none;stroke-width:0.1;stroke-linecap:round;stroke-dasharray:none"
           d="m 275.82222,110.93257 c 0.0398,-0.32563 1.45513,-0.96352 1.9762,0.45226 0.5211,1.41579 -0.54933,2.3625 -0.98318,2.08435 -0.52538,-0.33684 0.42493,-0.46237 0.18681,-1.65175 -0.22003,-1.09906 -1.23267,-0.45244 -1.17983,-0.88486 z"
           id="path2062"
           sodipodi:nodetypes="sssss" />
        <path
           style="fill:#000000;stroke:none;stroke-width:0.1;stroke-linecap:round;stroke-dasharray:none"
           d="m 287.56895,93.325735 c 0,0 0.9455,-0.347609 1.12626,-1.71023 0.0897,-0.675958 0.014,-1.585092 -0.19466,-1.585092 -0.20857,0 -0.69522,1.849273 -0.90379,1.821465 -0.20857,-0.02781 0.47276,-2.989426 0.87598,-2.975522 0.40323,0.01389 1.19576,2.627915 0.9733,3.83759 -0.22246,1.209675 -1.02891,2.725243 -1.26529,2.766957 -0.23638,0.04171 -0.6118,-2.155168 -0.6118,-2.155168 z"
           id="path2238"
           sodipodi:nodetypes="cssssssc" />
        <g
           id="g2242">
          <path
             style="fill:#000000;stroke:none;stroke-width:0.1;stroke-linecap:round;stroke-dasharray:none"
             d="m 285.91436,99.582675 c 0,0 -2.66963,-0.639598 -3.69857,0.528365 -1.02891,1.16796 -0.3615,3.23971 -0.3615,3.23971 0,0 1.25173,-0.0673 2.61401,-1.18187 1.52946,-1.2514 1.44606,-2.586205 1.44606,-2.586205 z"
             id="path2064"
             sodipodi:nodetypes="cscsc" />
          <ellipse
             style="fill:#ffffff;stroke:none;stroke-width:0.1;stroke-linecap:round;stroke-dasharray:none"
             id="path2118"
             cx="283.46024"
             cy="100.72978"
             rx="0.49360302"
             ry="0.46579444" />
        </g>
        <path
           style="fill:#000000;stroke:none;stroke-width:0.1;stroke-linecap:round;stroke-dasharray:none"
           d="m 301.24736,103.50953 -2.67428,3.67711 c 0,0 0.35445,-5.80547 -1.46349,-8.39489 -2.69571,-3.839711 -3.68837,-5.585978 -3.68837,-5.585978 0,0 2.15764,2.245717 4.09003,3.028204 2.14723,0.869484 4.444,1.258475 4.444,1.258475 0,0 -1.25849,2.792239 -1.10117,3.421479 0.15729,0.62924 1.37644,1.57309 1.53376,1.88771 0.1573,0.31462 -1.10117,4.1687 -0.23595,8.0621 0.86518,3.89341 2.10399,7.41321 1.86804,7.49186 -0.23596,0.0787 -2.35964,-4.97491 -2.63494,-8.75033 -0.2753,-3.77543 0.17698,-6.58733 0.17698,-6.58733 0,0 -1.43544,-1.02251 -1.49444,-2.02536 -0.059,-1.002843 0.64889,-2.615264 0.64889,-2.615264 l -4.28668,-1.789393 c 0,0 2.00596,2.619928 2.45796,3.795087 0.58993,1.53377 0.17698,4.75861 0.17698,4.75861 z"
           id="path2244"
           sodipodi:nodetypes="ccscscssssscsccscc" />
      </g>
    </g>
  </g>
</svg>
