<svg xmlns="http://www.w3.org/2000/svg" width="1127" height="1275" style="shape-rendering:geometricPrecision;text-rendering:geometricPrecision;image-rendering:optimizeQuality;fill-rule:evenodd;clip-rule:evenodd"><path style="opacity:1" d="M-.5-.5h1127v652c-1.33.333-1.33.667 0 1v105c-11.52 119.33-55.69 224.663-132.5 316-60.466 67.67-132.299 119.83-215.5 156.5a741.827 741.827 0 0 1-126 37 608.237 608.237 0 0 1-62 7.5h-46c-132.83-5.54-249.497-51.37-350-137.5-44.678-41.66-83.844-87.83-117.5-138.5-44.203-74.108-70.036-154.108-77.5-240V-.5z"/><path style="opacity:1" fill="#ec1c23" d="M9.5 9.5h1107v332H9.5V9.5z"/><path style="opacity:1" d="M572.5 57.5c-19.536-12.016-40.703-20.016-63.5-24l-3.5 1a5.575 5.575 0 0 1 1 3c-3.002-1.12-5.002-3.286-6-6.5 22.77 1.784 44.436 8.118 65 19a45.511 45.511 0 0 1 7 7.5z"/><path style="opacity:1" fill="#fecc00" d="M572.5 57.5c.473 1.406 1.473 2.073 3 2 .473 1.406 1.473 2.073 3 2 1.079 2.043 2.746 3.376 5 4 .936 1.474 2.27 2.474 4 3 0 .667.333 1 1 1a25.647 25.647 0 0 0 6 6c.333 1 1 1.667 2 2 1.3 2.932 3.3 5.266 6 7 0 .667.333 1 1 1a272.324 272.324 0 0 1 11 19 159.535 159.535 0 0 1 5 13c.16 1.653.826 2.986 2 4a384.186 384.186 0 0 0 6 19c5.039 25.73 3.539 51.063-4.5 76a7429.191 7429.191 0 0 0-6.5 17c-1.887 2.289-3.221 4.955-4 8-3.403 3.79-6.069 8.124-8 13-1.474.936-2.474 2.27-3 4-2.087 1.085-3.42 2.751-4 5-.667 0-1 .333-1 1a159.573 159.573 0 0 1-27 25c-1.934.61-3.601 1.61-5 3-1.21.432-2.21 1.099-3 2-.992-.172-1.658.162-2 1a205.224 205.224 0 0 0-17 9c-3.61.811-6.944 2.144-10 4-.992-.172-1.658.162-2 1a181.403 181.403 0 0 1-26 5.5c19.834-24.188 36.001-50.688 48.5-79.5 15.495-44.775 14.495-89.108-3-133-9.721-24.308-23.554-45.808-41.5-64.5a2.427 2.427 0 0 0-2-.5 5.575 5.575 0 0 0-1-3l3.5-1c22.797 3.984 43.964 11.984 63.5 24z"/><path style="opacity:1" d="M506.5 37.5a2.427 2.427 0 0 1 2 .5c17.946 18.692 31.779 40.192 41.5 64.5 17.495 43.892 18.495 88.225 3 133-12.499 28.812-28.666 55.312-48.5 79.5a181.403 181.403 0 0 0 26-5.5c-5.873 2.796-12.04 5.129-18.5 7-1.412-1.423-2.579-1.256-3.5.5a16.242 16.242 0 0 1-8 0c20.66-25.55 37.493-53.05 50.5-82.5 3.209-12.27 6.376-24.437 9.5-36.5-.732-3.824-.399-7.657 1-11.5-.984-2.098-.651-4.098 1-6a195.166 195.166 0 0 1 0-12 40.25 40.25 0 0 1-3-10 84.736 84.736 0 0 1 0-13.5c-7.934-39.367-25.434-74.2-52.5-104.5a4.934 4.934 0 0 1-.5-3zM575.5 59.5c-1.527.073-2.527-.594-3-2 1.868-1.174 2.868-.507 3 2zM578.5 61.5c2.867-.13 4.533 1.203 5 4-2.254-.624-3.921-1.957-5-4zM583.5 65.5c2.132.054 3.465 1.054 4 3-1.73-.526-3.064-1.526-4-3zM588.5 69.5c3.667.333 5.667 2.333 6 6a25.647 25.647 0 0 1-6-6zM596.5 77.5c3.772.774 5.772 3.107 6 7-2.7-1.734-4.7-4.068-6-7zM790.5 93.5a178.627 178.627 0 0 0-19.5-10 680.082 680.082 0 0 0-3 52c-4.643 5.46-10.476 9.127-17.5 11 5.621-3.203 10.788-7.203 15.5-12 .2-7.383.7-14.716 1.5-22a4548.149 4548.149 0 0 0-.5-32c2.064-1.091 4.231-1.258 6.5-.5 4.343 4.238 9.343 7.571 15 10a18.476 18.476 0 0 1 2 3.5zM358.5 234.5c.767.672 1.434 1.505 2 2.5-1.221 3.446-1.221 6.946 0 10.5-.219 2.415-1.552 3.415-4 3v-3c-11.61-3.467-22.61-8.633-33-15.5a60.988 60.988 0 0 0-14.5-4.5 1299.681 1299.681 0 0 1-30.5 15.5l-16 10c-1.667.667-3.333.667-5 0a1224.916 1224.916 0 0 1-1-59.5c-3.085-.042-5.419-1.375-7-4a188.83 188.83 0 0 1-33.5-20 8.43 8.43 0 0 1-.5-4 151.942 151.942 0 0 0 24-15.5c6.352-2.558 12.185-6.058 17.5-10.5l1-22c1.046-1.272 1.546-2.772 1.5-4.5-.648-8.17-1.315-16.336-2-24.5.163-4 2.163-5.5 6-4.5 7.993 3.326 15.326 7.659 22 13 8.315 3.154 15.981 7.321 23 12.5a218.32 218.32 0 0 0 30-16.5c5.479-1.29 9.813-3.623 13-7 3.074-2.004 5.907-1.837 8.5.5.585 14.225.419 28.225-.5 42a29.075 29.075 0 0 0 1.5 10 941.327 941.327 0 0 0 43.5 26.5c1.333 1.333 1.333 2.667 0 4l2 2a421.727 421.727 0 0 0-43.5 23.5c-1.986 2.306-3.153 4.972-3.5 8 .223 6.544.556 13.044 1 19.5a62.976 62.976 0 0 0-2 12.5z"/><path style="opacity:1" fill="#fecc00" d="M790.5 93.5c1.014 1.174 2.347 1.84 4 2a114.89 114.89 0 0 0 17 11.5 44.852 44.852 0 0 0 10.5 3.5 115.435 115.435 0 0 0 23.5-13 156.94 156.94 0 0 1 19-6 474.273 474.273 0 0 1-1 43c.291 3.297 1.958 5.297 5 6 .342.838 1.008 1.172 2 1 .453.958 1.119 1.792 2 2.5a365.76 365.76 0 0 1 38 23.5 665.132 665.132 0 0 1-46.5 26 1624.945 1624.945 0 0 1-1.5 52 1056.366 1056.366 0 0 1-46.5-26 734.945 734.945 0 0 0-37.5 20.5 37.344 37.344 0 0 1-11 3.5 699.055 699.055 0 0 1 1-46.5 15.256 15.256 0 0 1-1.5-4.5 1716.453 1716.453 0 0 1-33.5-19.5 70.26 70.26 0 0 1-13-9.5c4.536-3.421 9.869-6.254 16-8.5.881-.708 1.547-1.542 2-2.5 2.589.039 4.589-.961 6-3 .992.172 1.658-.162 2-1 1.88.271 3.213-.396 4-2 7.024-1.873 12.857-5.54 17.5-11a680.082 680.082 0 0 1 3-52 178.627 178.627 0 0 1 19.5 10z"/><path style="opacity:1" d="M603.5 85.5c1.517.01 2.684.677 3.5 2a193.865 193.865 0 0 1 8.5 15c-.363.683-.696 1.35-1 2a272.324 272.324 0 0 0-11-19z"/><path style="opacity:1" fill="#fecc00" d="M358.5 234.5v11a8.43 8.43 0 0 1-4-.5 720.607 720.607 0 0 0-45-23.5 2762.783 2762.783 0 0 1-44.5 25 3.943 3.943 0 0 0-2-1c-1.301 1.393-2.801 1.893-4.5 1.5l2-1c-.66-18.102-1.327-36.269-2-54.5a684.734 684.734 0 0 0-38-24 25.513 25.513 0 0 1 4-4.5 997.906 997.906 0 0 0 36-22.5c.505-18.004.838-36.004 1-54a1131.968 1131.968 0 0 0 40 20.5l7.5 5.5c15.94-8.433 31.773-17.1 47.5-26a6.802 6.802 0 0 1 1.5 3 696.059 696.059 0 0 1 0 51l29.5 17.5a260.804 260.804 0 0 1 15 11.5 3449.055 3449.055 0 0 0-43.5 25 12.862 12.862 0 0 0-1.5 6 348.239 348.239 0 0 0 1 34z"/><path style="opacity:1" d="M868.5 140.5c-3.042-.703-4.709-2.703-5-6a474.273 474.273 0 0 0 1-43 156.94 156.94 0 0 0-19 6 18.476 18.476 0 0 1 2-3.5 29.42 29.42 0 0 0 10.5-4.5c1.356.88 2.856 1.213 4.5 1 1.117-5.213 2.451-5.213 4 0a3.647 3.647 0 0 1-1 1.5 1055.54 1055.54 0 0 1 1.5 45.5c1.039.744 1.539 1.744 1.5 3zM794.5 95.5c3.521.33 6.521 1.83 9 4.5 3.812.47 6.645 2.304 8.5 5.5l1-1c4.49 3.719 9.157 3.719 14 0l1 1c4.25-3.043 8.583-5.043 13-6 .939-2.515 2.439-3.182 4.5-2a115.435 115.435 0 0 1-23.5 13 44.852 44.852 0 0 1-10.5-3.5 114.89 114.89 0 0 1-17-11.5zM619.5 117.5c1.604.787 2.271 2.12 2 4-1.174-1.014-1.84-2.347-2-4zM616.5 233.5a7429.191 7429.191 0 0 1 6.5-17c8.039-24.937 9.539-50.27 4.5-76 .617-.111 1.117-.444 1.5-1a195.507 195.507 0 0 1 3 44 236.259 236.259 0 0 1-7 34c-2.117 5.91-4.95 11.244-8.5 16zM870.5 141.5a59.44 59.44 0 0 1 10 3.5 215.147 215.147 0 0 0 30 18c2.062 1.532 3.396 3.532 4 6a685.704 685.704 0 0 0-48 26.5 160.986 160.986 0 0 0-2 12.5 404.148 404.148 0 0 0 1 38c-.5 1.833-1.667 3-3.5 3.5a464.16 464.16 0 0 0-18.5-7.5c-3.31-3.497-7.31-5.83-12-7a13.967 13.967 0 0 0-6-5 55.859 55.859 0 0 1-11.5-3.5 292.758 292.758 0 0 0-42.5 21.5c-2.401 1.039-4.734 1.206-7 .5-.084-16.701.083-33.368.5-50a3979.921 3979.921 0 0 0-39.5-25.5 20.64 20.64 0 0 0-6-2 31.84 31.84 0 0 0-5-4.5 21.83 21.83 0 0 0 5-6c5.812-3.829 12.145-6.495 19-8-.453.958-1.119 1.792-2 2.5-6.131 2.246-11.464 5.079-16 8.5a70.26 70.26 0 0 0 13 9.5 1716.453 1716.453 0 0 0 33.5 19.5 15.256 15.256 0 0 0 1.5 4.5 699.055 699.055 0 0 0-1 46.5 37.344 37.344 0 0 0 11-3.5 734.945 734.945 0 0 1 37.5-20.5 1056.366 1056.366 0 0 0 46.5 26 1624.945 1624.945 0 0 0 1.5-52 665.132 665.132 0 0 0 46.5-26 365.76 365.76 0 0 0-38-23.5c-.881-.708-1.547-1.542-2-2.5zM750.5 146.5c-.787 1.604-2.12 2.271-4 2 .683-1.676 2.017-2.343 4-2z"/><path style="opacity:1" d="M744.5 149.5c-1.411 2.039-3.411 3.039-6 3 1.107-2.469 3.107-3.469 6-3zM616.5 233.5c-.396 3.221-1.729 5.888-4 8 .779-3.045 2.113-5.711 4-8zM612.5 241.5a39.34 39.34 0 0 1-4.5 11c-.816 1.323-1.983 1.989-3.5 2 1.931-4.876 4.597-9.21 8-13zM604.5 254.5c.412 2.473-.588 3.806-3 4 .526-1.73 1.526-3.064 3-4zM601.5 258.5c.451 2.601-.882 4.268-4 5 .58-2.249 1.913-3.915 4-5zM596.5 264.5a17.341 17.341 0 0 1-3.5 7 3231.633 3231.633 0 0 0-15 14l-1-1c-1.561 2.473-3.561 4.473-6 6-.383-.556-.883-.889-1.5-1a159.573 159.573 0 0 0 27-25zM564.5 292.5c-.321 1.548-1.321 2.215-3 2 .79-.901 1.79-1.568 3-2zM559.5 295.5c.342-.838 1.008-1.172 2-1 .091 2.198-.575 2.531-2 1zM559.5 295.5c.219 1.175-.114 2.175-1 3a42.493 42.493 0 0 0-11 5.5 12.93 12.93 0 0 1-5 .5 205.224 205.224 0 0 1 17-9zM542.5 304.5c.086.996-.248 1.829-1 2.5-3.01 1.532-6.01 2.032-9 1.5 3.056-1.856 6.39-3.189 10-4z"/><path style="opacity:1" fill="#fecc00" d="M9.5 345.5h1107v72H9.5v-72z"/><path style="opacity:1" fill="#0761bb" d="M9.5 421.5h1107c-.17 94.525-.17 189.025 0 283.5 2.11 62.234-7.06 122.734-27.5 181.5-34.99 99.845-93.488 183.01-175.5 249.5a836.022 836.022 0 0 1-85 58c-164.855 87.95-332.522 93.61-503 17-33.134-16.16-64.467-35.16-94-57-57.315-46.64-106.148-100.81-146.5-162.5-43.168-72.778-68.168-151.445-75-236-.5-111.333-.667-222.666-.5-334z"/><path style="opacity:1" d="M610.5 485.5c-2.167.698-4 2.031-5.5 4a76608.08 76608.08 0 0 1-182 327c-6.94 8.291-12.107 17.625-15.5 28 1.261 3.631 3.261 3.964 6 1a22583.74 22583.74 0 0 0 196.5-354l1.5-6c1.599 1.299 2.099 2.965 1.5 5a6844.555 6844.555 0 0 1-13.5 24.5 551.834 551.834 0 0 0 8 20.5c-1.402 1.342-1.069 2.176 1 2.5a3.943 3.943 0 0 0-1 2 16.703 16.703 0 0 1 2.5 7.5 132.82 132.82 0 0 0 6.5 14l-1 2c1.753 3.655 3.087 7.155 4 10.5-.752.671-1.086 1.504-1 2.5a933.996 933.996 0 0 0-12-32.5c-7.994.366-15.994 1.2-24 2.5a1590.73 1590.73 0 0 0-31 57.5A16952.586 16952.586 0 0 0 629 845.5a12.403 12.403 0 0 0 2.5 4 3029.704 3029.704 0 0 0 77 3 200.326 200.326 0 0 1-10-31c1.086.12 1.753.787 2 2 .603 2.85 1.27 5.684 2 8.5 2 4.331 4 8.664 6 13l-1 1a126.738 126.738 0 0 1 14.5 12.5c1.721 3.391 1.387 6.724-1 10-6.233-1.688-11.066-5.188-14.5-10.5l-4.5-1.5a61.287 61.287 0 0 1-10 1 555.61 555.61 0 0 0-48.5-3 68.98 68.98 0 0 0-11.5 1c-66.282-2.129-132.448-4.296-198.5-6.5-1.992.574-3.492 1.741-4.5 3.5a2797.592 2797.592 0 0 0-2 64 130.406 130.406 0 0 1-1.5 7c.824 7.609.824 15.275 0 23a28.931 28.931 0 0 1 1.5 4c1.816.829 3.649 1.663 5.5 2.5a14218.41 14218.41 0 0 0 43 3.5 20.64 20.64 0 0 0 6-2c1.546-9.38 7.046-14.38 16.5-15a36.615 36.615 0 0 1 11.5 5.5c3.983 5.248 8.649 9.914 14 14a1868.644 1868.644 0 0 0 55.5 2.5c4.751-.085 7.751-2.418 9-7 2.664-2.455 5.498-2.622 8.5-.5l6 7c20.28-.472 40.113-.306 59.5.5a15.256 15.256 0 0 1 4.5-1.5 1721.15 1721.15 0 0 0 84-2.5c34.663.514 69.33.014 104-1.5a11.333 11.333 0 0 0 3.5-1.5c1.204-4.2 2.871-8.2 5-12l1 1c3.193-1.968 6.526-2.635 10-2 1.622.454 2.788 1.454 3.5 3a403.19 403.19 0 0 1-6 14.5c2.536 1.412 5.036 1.912 7.5 1.5 6.334-8.338 10.834-17.671 13.5-28-.59-1.299-1.59-2.132-3-2.5-9.653-2.016-18.987-1.016-28 3a242.07 242.07 0 0 0-20.5 4.5c-3.468-1.303-6.968-1.303-10.5 0a1136.46 1136.46 0 0 1-31-4.5c-2.788-4.605-1.455-7.605 4-9l47-1a67.267 67.267 0 0 0 20-5 90.455 90.455 0 0 1 19 0 53.217 53.217 0 0 1 7.5 3.5c1.833-2.5 4-4.667 6.5-6.5 5.979.075 11.979.408 18 1a42.36 42.36 0 0 1 1.5 8.5c8.707 2.536 9.541 6.37 2.5 11.5-2.877.725-5.543.225-8-1.5-7.083 10.103-12.416 21.103-16 33a55.548 55.548 0 0 0 6.5 16 75.841 75.841 0 0 1 11.5 18.5c-.785 2.04-.452 4.04 1 6-.774 2.44-2.44 3.77-5 4-3.667.17-7.333.33-11 .5-13.861-.11-27.861-.28-42-.5-1.304-.8-1.971-1.97-2-3.5 1.888-3.44 2.888-7.1 3-11a11.187 11.187 0 0 1-4.5-1l-4.5 1.5c-1.336 6-4.002 11.34-8 16a34.426 34.426 0 0 1-11 1.5 837.87 837.87 0 0 0-77 0 3921.18 3921.18 0 0 1-38-2c-.586.21-1.086.54-1.5 1a3271.64 3271.64 0 0 0-152.5-1c.17 1.32-.163 2.49-1 3.5-6.217.7-12.384 1.54-18.5 2.5a877.994 877.994 0 0 1-37.5-3c-.586.21-1.086.54-1.5 1a15.815 15.815 0 0 0-5.5-3.5 734.496 734.496 0 0 1-22-2c-20.573-.17-41.073-.67-61.5-1.5-7.833.51-15.833.85-24 1a688.033 688.033 0 0 1-42-2c-9.423.57-19.09.9-29 1-28.197-.31-56.364-1.15-84.5-2.5a96.704 96.704 0 0 1-16.5-16.5c-14.857-20.709-26.857-43.042-36-67a403.43 403.43 0 0 1-9.5-38.5l2-6c4.852-.584 9.852.083 15 2 2.052.93 3.552 2.43 4.5 4.5-.223 4.861 1.277 9.027 4.5 12.5 66.735 28.571 136.068 45.071 208 49.5a6178.353 6178.353 0 0 0 3-80.5 146.526 146.526 0 0 0-6.5-9.5 45.336 45.336 0 0 0-4.5-12c4.515-8.017 7.015-16.351 7.5-25 3.132-4.429 5.299-9.262 6.5-14.5a966.203 966.203 0 0 0-1.5-30.5c-.667-4-1.333-4-2 0a55.94 55.94 0 0 0-2.5-10 64.71 64.71 0 0 1 4.5-9 252.4 252.4 0 0 1 2.5-17.5c-.165-1.837-.832-3.837-2-6 1.154-.914.987-1.747-.5-2.5l-1 2c-.651-1.735-.485-3.402.5-5-2.287-3.076-2.62-6.409-1-10a62.722 62.722 0 0 0 6-9c-1.085-1.284-1.752-2.784-2-4.5.65-2.276.65-4.442 0-6.5a7.248 7.248 0 0 1 2-2.5c-2.297-1.58-2.631-3.58-1-6-1.635-4.317-3.302-8.65-5-13 2.364-3.687 4.698-7.354 7-11-.484-10.063-.984-20.23-1.5-30.5l-1 1c-.595-1.399-.428-2.732.5-4-3.943-5.09-3.443-10.424 1.5-16a378.803 378.803 0 0 1 2.5-25 65.75 65.75 0 0 1-1.5-10c-.718.951-1.551 1.117-2.5.5-.335-1.164-.335-2.497 0-4a14.506 14.506 0 0 1-4-5 402.288 402.288 0 0 1 9-16.5c-1.24-10.55-1.24-20.883 0-31-2.378-5.301-2.045-10.468 1-15.5-.876-4.096-1.209-8.096-1-12 .696-4.134 1.363-8.3 2-12.5-.75-2.43-1.083-4.764-1-7a166.115 166.115 0 0 0 1.5-17c3.157-3.573 6.657-3.74 10.5-.5a11.333 11.333 0 0 1 1.5 3.5 545.233 545.233 0 0 1-1.5 37c1.234 1.898.901 3.565-1 5a85.54 85.54 0 0 1 0 10 27.09 27.09 0 0 1 4 7.5c6.131.972 11.964.139 17.5-2.5 2.811-.114 5.478.219 8 1 27.733-3.615 56.233-7.282 85.5-11 1.82-.149 3.32-.816 4.5-2 8.203.831 16.37.165 24.5-2 2.208.899 4.374.565 6.5-1 2.064 1.091 4.231 1.258 6.5.5a133.488 133.488 0 0 1 11.5-21.5c2.084-2.363 3.917-2.363 5.5 0z"/><path style="opacity:1" fill="#fecc00" d="M430.5 461.5c2.32-.09 4.154 1.243 5.5 4 .216 8.545.383 17.045.5 25.5-.917 9.253-1.583 18.086-2 26.5a29.849 29.849 0 0 1 3 10c-3.481-.732-6.814-2.066-10-4a6.201 6.201 0 0 1-2-3.5c1.62-7.05 2.62-14.216 3-21.5a57.215 57.215 0 0 1-1-7 406.505 406.505 0 0 0 1.5-26c.41-1.401.91-2.734 1.5-4zM610.5 485.5h1l-1.5 6a22583.74 22583.74 0 0 1-196.5 354c-2.739 2.964-4.739 2.631-6-1 3.393-10.375 8.56-19.709 15.5-28a76608.08 76608.08 0 0 0 182-327c1.5-1.969 3.333-3.302 5.5-4zM582.5 510.5c2.897-.375 5.563.125 8 1.5a499.787 499.787 0 0 1-19 31.5c-3.484 1.405-6.818 1.239-10-.5a386.134 386.134 0 0 1 3.5-28.5l1.5-1.5a222.009 222.009 0 0 0 16-2.5z"/><path style="opacity:1" fill="#fecc00" d="M547.5 514.5h13c-.698 10.863-.864 21.53-.5 32 3.129.63 6.296 1.296 9.5 2a376.65 376.65 0 0 1-23 39 2113.5 2113.5 0 0 1-20.5-60 52.016 52.016 0 0 1-1.5-10c7.898-.286 15.565-1.286 23-3zM514.5 518.5c1.705 1.035 3.372 1.035 5 0a7.248 7.248 0 0 1 2.5 2 6614.48 6614.48 0 0 0 22.5 70.5 886.12 886.12 0 0 1-45 81.5 18393.89 18393.89 0 0 1-47-145 6.802 6.802 0 0 1 3-1.5 1219.52 1219.52 0 0 0 59-7.5zM597.5 519.5c3.212 5.458 5.712 11.458 7.5 18 .667 1.333.667 2.667 0 4-6.371.16-12.871.16-19.5 0 4.027-7.392 8.027-14.725 12-22zM441.5 527.5c3.53-.511 6.696.156 9.5 2A9730.847 9730.847 0 0 0 498.5 677a7388.966 7388.966 0 0 0-40 71.5 115.668 115.668 0 0 1-7.5 10 2955.967 2955.967 0 0 1-12.5-36.5c.016-5.049.182-10.215.5-15.5-1.066-3.063-3.233-4.563-6.5-4.5a242.191 242.191 0 0 0 1.5-21.5c2.429-.529 4.262-1.863 5.5-4a299.834 299.834 0 0 0 2-12.5c-.14-4.641-2.473-6.474-7-5.5-.166-10.006 0-20.006.5-30a35.61 35.61 0 0 0 6-3c.335-5.019.835-10.019 1.5-15-.605-3.822-2.938-5.488-7-5a314.892 314.892 0 0 1 1.5-32c1.775 2.544 3.608 2.544 5.5 0a261.12 261.12 0 0 0 2-7.5c-1.288-2.466-1.288-4.966 0-7.5a18.924 18.924 0 0 1-3-5 6.846 6.846 0 0 0-4-1c-.166-6.342 0-12.675.5-19 1.82-1.632 2.986-3.632 3.5-6zM427.5 528.5c1.759 1.371 3.759 2.371 6 3 1.333 7 1.333 14 0 21-2.594 1.092-4.761 2.759-6.5 5a144.36 144.36 0 0 1 .5-29zM618.5 576.5a154.135 154.135 0 0 0 7 22 90.913 90.913 0 0 0 5 15c.028 3.416 1.028 6.416 3 9a2954.965 2954.965 0 0 1 12.5 41c3.001 8.898 6.168 17.232 9.5 25-.237 1.291.096 2.291 1 3a3327.32 3327.32 0 0 0 42 130 200.326 200.326 0 0 0 10 31 3029.704 3029.704 0 0 1-77-3 12.403 12.403 0 0 1-2.5-4A16952.586 16952.586 0 0 1 551.5 604a1590.73 1590.73 0 0 1 31-57.5 209.374 209.374 0 0 1 24-2.5 933.996 933.996 0 0 1 12 32.5z"/><path style="opacity:1" fill="#fecc00" d="M433.5 556.5c2.292-.256 4.459.077 6.5 1 .273 3.99.439 7.824.5 11.5-.532 2.02-1.865 2.853-4 2.5 2.018-3.504 1.184-6.171-2.5-8-4.418 2.414-8.251 5.581-11.5 9.5a28.931 28.931 0 0 0-4 1.5l-1-1.5c2.694-3.867 5.527-7.7 8.5-11.5 3.014-1.039 5.514-2.705 7.5-5z"/><path style="opacity:1" fill="#fecc00" d="M431.5 568.5c1.32 2.928 1.986 6.261 2 10-.463 9.335-.963 18.669-1.5 28a21.53 21.53 0 0 0-6 5c-1.125-2.978-1.625-6.145-1.5-9.5.535-9.165 1.035-18.331 1.5-27.5 1.36-2.523 3.193-4.523 5.5-6z"/><path style="opacity:1" d="M625.5 598.5a154.135 154.135 0 0 1-7-22c.617-.111 1.117-.444 1.5-1 .875 5.525 2.541 10.858 5 16 .497 2.31.663 4.643.5 7zM625.5 598.5c4.266 4.185 5.933 9.185 5 15a90.913 90.913 0 0 1-5-15z"/><path style="opacity:1" fill="#fecc00" d="M548.5 608.5c.617.111 1.117.444 1.5 1a19974.68 19974.68 0 0 1 77.5 239c-.387 1.22-1.22 1.887-2.5 2a1509.474 1509.474 0 0 0-70.5-2 10674.346 10674.346 0 0 0-50-159.5 9457.814 9457.814 0 0 1 44-80.5zM433.5 609.5c2.25-.319 4.25.181 6 1.5-.015 3.328-.515 6.828-1.5 10.5a3.647 3.647 0 0 1-1.5 1c-.476-2.619-1.809-4.619-4-6a261.007 261.007 0 0 1-12.5 9l-1.5-1.5c3.575-6.41 8.575-11.243 15-14.5z"/><path style="opacity:1" d="M630.5 613.5c.997-.03 1.664.47 2 1.5a19.522 19.522 0 0 1 1 7.5c-1.972-2.584-2.972-5.584-3-9z"/><path style="opacity:1" fill="#fecc00" d="M429.5 621.5c1.495-.085 2.495.581 3 2a1489.991 1489.991 0 0 0-1.5 34l-7 5c-.667-11-.667-22 0-33a60.364 60.364 0 0 0 5.5-8z"/><path style="opacity:1" d="M633.5 622.5c1.884.882 3.217 2.382 4 4.5l-1 1a2096.904 2096.904 0 0 1 18.5 54.5c.495 1.973.662 3.973.5 6-3.332-7.768-6.499-16.102-9.5-25a2954.965 2954.965 0 0 0-12.5-41z"/><path style="opacity:1" fill="#fecc00" d="M431.5 661.5h6c-.214 1.644.12 3.144 1 4.5-1.771 2.927-2.438 5.927-2 9-.949.617-1.782.451-2.5-.5l-1-6a3.943 3.943 0 0 0-2-1 51.63 51.63 0 0 0-13 11c.295-2.934 1.461-5.601 3.5-8a4038.09 4038.09 0 0 1 10-9z"/><path style="opacity:1" fill="#fecc00" d="M428.5 672.5c1.328 4.619 1.994 9.619 2 15l-.5 15c-1.739 2.241-3.906 3.908-6.5 5-1.524-1.027-2.191-2.527-2-4.5.561-8.505 1.228-17.005 2-25.5l5-5z"/><path style="opacity:1" d="M656.5 691.5c.997-.03 1.664.47 2 1.5a4401.001 4401.001 0 0 0 9 27l-1 1 11 29a3.647 3.647 0 0 0-1 1.5 81.423 81.423 0 0 1 6 13.5l-1 1c4.46 12.423 8.96 25.59 13.5 39.5a60.181 60.181 0 0 1 3.5 16 3327.32 3327.32 0 0 1-42-130z"/><path style="opacity:1" fill="#fecc00" d="M501.5 693.5c1.636 1.249 2.803 2.916 3.5 5A3264.568 3264.568 0 0 1 543.5 822a143.92 143.92 0 0 1 8 26.5 1633.727 1633.727 0 0 1-72-3 4806.446 4806.446 0 0 0-21.5-65c-.837-2.321-1.17-4.655-1-7a1823.606 1823.606 0 0 0 44.5-80zM432.5 705.5c3.053.556 4.386 2.389 4 5.5a52.42 52.42 0 0 1-2 10l-1 .5a29.045 29.045 0 0 1-2-8 8.43 8.43 0 0 0-4 .5 48.493 48.493 0 0 1-7 4.5l-1-1.5c3.592-4.776 7.925-8.61 13-11.5z"/><path style="opacity:1" fill="#fecc00" d="M426.5 717.5c1.25.077 2.083.744 2.5 2a551.6 551.6 0 0 1 .5 16 111.555 111.555 0 0 1-2 12 19.953 19.953 0 0 1-4.5 3 3.943 3.943 0 0 1-2-1 116.145 116.145 0 0 1 1-27c1.758-1.583 3.258-3.25 4.5-5zM417.5 719.5c1.025.397 1.192 1.063.5 2-.837 1.507-2.004 2.007-3.5 1.5a14.698 14.698 0 0 0 3-3.5zM432.5 725.5c1.644-.214 3.144.12 4.5 1a804.344 804.344 0 0 1 12.5 37 895.17 895.17 0 0 1-18.5 31 77.898 77.898 0 0 1 1.5-25c1.875-1.04 3.208-2.54 4-4.5a773.255 773.255 0 0 1 2-12.5c-1.155-3.495-3.488-5.495-7-6 .567-6.784.9-13.784 1-21z"/><path style="opacity:1" fill="#fecc00" d="M430.5 750.5c1.322-.17 2.489.163 3.5 1 1.658 4.437 1.158 8.77-1.5 13-2.423-1.212-3.423-3.212-3-6a20.093 20.093 0 0 0-6 1.5c-2.437 3.221-5.437 4.721-9 4.5 4.414-5.749 9.747-10.416 16-14z"/><path style="opacity:1" fill="#fecc00" d="M424.5 763.5c1.175-.219 2.175.114 3 1a29.925 29.925 0 0 1 1 7 926.675 926.675 0 0 0-1.5 31 34.88 34.88 0 0 1-8 6 614.202 614.202 0 0 1 1.5-36 11.456 11.456 0 0 1-1-2.5c1.088-2.709 2.755-4.875 5-6.5zM453.5 779.5c1.617 1.621 2.784 3.621 3.5 6a695.34 695.34 0 0 1 19.5 61 1198.404 1198.404 0 0 1-47-2c.346-7.593.346-15.093 0-22.5a135.563 135.563 0 0 0 12-21.5c.774-1.211 1.607-1.211 2.5 0a287.93 287.93 0 0 0 7 18 4.457 4.457 0 0 0 1.5-2 112.208 112.208 0 0 1-5.5-18 11.333 11.333 0 0 0-3.5-1.5 219.037 219.037 0 0 0 10-17.5z"/><path style="opacity:1" d="M478.5 798.5h3a67.044 67.044 0 0 0 4.5 15c.667 1.667.667 3.333 0 5a261.713 261.713 0 0 1-7.5-20zM522.5 801.5c1.25.077 2.083.744 2.5 2a189.61 189.61 0 0 0 4 13c.798 1.759.631 3.426-.5 5a195.53 195.53 0 0 1-7-18.5c.556-.383.889-.883 1-1.5zM555.5 801.5c1.835.622 3.002 1.956 3.5 4a534.849 534.849 0 0 0 4.5 15.5c-.51 1.826-1.344 1.993-2.5.5a224.862 224.862 0 0 1-5.5-20zM628.5 802.5c.996-.086 1.829.248 2.5 1a138.351 138.351 0 0 0 5.5 17.5c-.13 1.059-.63 1.892-1.5 2.5a109.18 109.18 0 0 1-6.5-21zM596.5 803.5h3a258.866 258.866 0 0 0 6 18.5 4.457 4.457 0 0 1-2 1.5 232.61 232.61 0 0 1-7-20zM671.5 803.5c.958.453 1.792 1.119 2.5 2 1.8 5.817 3.633 11.65 5.5 17.5l-1 1.5a77.879 77.879 0 0 1-7-21z"/><path style="opacity:1" fill="#fecc00" d="M417.5 816.5c1.301 1.956.801 3.623-1.5 5-.613-1.995-.113-3.662 1.5-5zM424.5 831.5a2.428 2.428 0 0 1 2 .5c-.438 3.209-.438 6.542 0 10a225.759 225.759 0 0 1-11.5 8.5c-1.202 2.177-1.702 4.511-1.5 7h-3c-1.263-4.143.237-7.143 4.5-9 3.7-5.403 6.867-11.07 9.5-17zM424.5 847.5c.673 17.25.673 34.417 0 51.5l.5 4.5c.654-1.196 1.154-1.196 1.5 0a38.943 38.943 0 0 0-3 12l1 2a546.861 546.861 0 0 0-1.5 32c-2.132 1.28-4.298 1.28-6.5 0a764.33 764.33 0 0 1-1-47.5c1.15-16.09 1.983-32.256 2.5-48.5a53.864 53.864 0 0 1 6.5-6zM708.5 852.5c7.018 1.018 11.018 5.018 12 12-7.55-.881-11.55-4.881-12-12z"/><path style="opacity:1" fill="#fecc00" d="M181.5 881.5a165.287 165.287 0 0 1 14 4 67.391 67.391 0 0 1 3 16 12.93 12.93 0 0 1 5 .5c39.882 17.181 81.215 30.181 124 39a1229.77 1229.77 0 0 0 153 19 420.329 420.329 0 0 1 15.5 37.5 31.106 31.106 0 0 0 5.5 9 6.824 6.824 0 0 1-3 1.5c-84.454-.63-168.787-1.3-253-2a63.408 63.408 0 0 1-11-8c-30.635-32.659-48.302-71.492-53-116.5zM906.5 916.5c4.335.417 8.668.917 13 1.5a3.943 3.943 0 0 1 1 2 2318.403 2318.403 0 0 1-34 70c1.496.507 2.663.007 3.5-1.5a92.298 92.298 0 0 1 8.5-15 179.982 179.982 0 0 0 14.5 21c2.866 4.563 4.033 9.56 3.5 15-14.927-.09-29.593.24-44 1a74.834 74.834 0 0 1-9-2 1158.81 1158.81 0 0 1 31.5-72 169.313 169.313 0 0 0 4-13c1.767-3.272 4.267-5.605 7.5-7zM870.5 920.5c8.424-.286 16.758.38 25 2 .122 2.757-1.045 4.757-3.5 6a303.038 303.038 0 0 0-14-3 268.352 268.352 0 0 1-33.5 7c-14.308-.8-28.641-1.3-43-1.5-1.513-2.454-.846-4.121 2-5a391.975 391.975 0 0 1 44 .5c8.043-1.051 15.71-3.051 23-6z"/><path style="opacity:1" fill="#fecc00" d="M921.5 927.5c2.773.312 5.107 1.478 7 3.5-2.514 2.376-5.514 3.043-9 2-.88-1.356-1.214-2.856-1-4.5 1.291.237 2.291-.096 3-1zM495.5 941.5c7.648 1.583 13.815 5.583 18.5 12 10.514 13.844 21.014 27.678 31.5 41.5-5.593 3.288-6.26 7.29-2 12 3.744.93 7.244.43 10.5-1.5a74.335 74.335 0 0 0 6.5 8c-8.168.74-16.335 1.41-24.5 2a384.91 384.91 0 0 0-24.5-1.5 446.537 446.537 0 0 1-27-60.5c1.308-6.303 4.975-10.303 11-12zM867.5 943.5c1.839 1.252 3.672 1.252 5.5 0 1.44 1.43 1.774 3.097 1 5a885.03 885.03 0 0 0-26.5 61.5 131.595 131.595 0 0 1-21 1.5 52414.82 52414.82 0 0 0-266-3.5 7.239 7.239 0 0 1-2-2.5c9.176-5.35 17.343-12.017 24.5-20a458.221 458.221 0 0 1 11.5-21.5 18018.214 18018.214 0 0 0 266-5.5c1.01-5.732 3.343-10.732 7-15z"/><path style="opacity:1" d="M494.5 948.5c7.88-.405 10.047 2.929 6.5 10-3.511 3.473-7.345 4.14-11.5 2-1.618-5.379.049-9.379 5-12z"/><path style="opacity:1" fill="#fecc00" d="M496.5 949.5a31.447 31.447 0 0 1 5 4.5c-5.541 6.403-8.208 5.236-8-3.5 1.291.237 2.291-.096 3-1zM591.5 954.5c2.458.426 3.624 1.759 3.5 4l-5 3c-6.196 17.859-17.696 31.025-34.5 39.5a34.562 34.562 0 0 1-11 2.5c-.17-1.32.163-2.49 1-3.5 14.224-4.208 25.724-12.375 34.5-24.5 3.202-7.533 7.036-14.533 11.5-21z"/><path style="opacity:1" d="M506.5 959.5c2.89.027 3.89 1.193 3 3.5a59.043 59.043 0 0 0-9 5c-1.444.781-2.777.614-4-.5a56.72 56.72 0 0 1 10-8z"/><path style="opacity:1" fill="#fecc00" d="M530.5 962.5a896.682 896.682 0 0 1 52 3c-7.133 13.635-17.633 23.635-31.5 30a1637.863 1637.863 0 0 1-25.5-31.5c1.882-.198 3.548-.698 5-1.5zM871.5 962.5c2.559-.11 4.892.556 7 2a3.647 3.647 0 0 1-1 1.5 32.462 32.462 0 0 1-8 .5c.027-1.699.694-3.033 2-4z"/><path style="opacity:1" d="M492.5 966.5c1.837.139 2.17.806 1 2-.798-.457-1.131-1.124-1-2z"/><path style="opacity:1" fill="#0761bc" d="M867.5 970.5c6.656-1.239 8.823 1.094 6.5 7a28.415 28.415 0 0 1-4.5 7.5 32.462 32.462 0 0 1-8 .5c.143-5.788 2.143-10.788 6-15z"/><path style="opacity:1" fill="#fecc00" d="M859.5 989.5h7v3a16.873 16.873 0 0 1-8-1c.363-.683.696-1.35 1-2z"/></svg>