<?xml version="1.0" encoding="UTF-8" standalone="no"?>
<!-- Created with Inkscape (http://www.inkscape.org/) -->

<svg
   width="147.11526mm"
   height="163.07242mm"
   viewBox="0 0 147.11526 163.07242"
   version="1.1"
   id="svg8764"
   inkscape:version="1.2.2 (732a01da63, 2022-12-09)"
   sodipodi:docname="Wappen Güster2.svg"
   xmlns:inkscape="http://www.inkscape.org/namespaces/inkscape"
   xmlns:sodipodi="http://sodipodi.sourceforge.net/DTD/sodipodi-0.dtd"
   xmlns="http://www.w3.org/2000/svg"
   xmlns:svg="http://www.w3.org/2000/svg">
  <sodipodi:namedview
     id="namedview8766"
     pagecolor="#ffffff"
     bordercolor="#666666"
     borderopacity="1.0"
     inkscape:showpageshadow="2"
     inkscape:pageopacity="0.0"
     inkscape:pagecheckerboard="0"
     inkscape:deskcolor="#d1d1d1"
     inkscape:document-units="mm"
     showgrid="false"
     inkscape:zoom="0.86848606"
     inkscape:cx="278.64581"
     inkscape:cy="309.15867"
     inkscape:current-layer="layer1" />
  <defs
     id="defs8761">
    <inkscape:path-effect
       effect="powerstroke"
       id="path-effect3698"
       is_visible="true"
       lpeversion="1"
       offset_points="0.2,0.30000049 | 0.97769808,0.26585343 | 1.5040944,0.18153518"
       not_jump="false"
       sort_points="true"
       interpolator_type="CentripetalCatmullRom"
       interpolator_beta="0.2"
       start_linecap_type="zerowidth"
       linejoin_type="round"
       miter_limit="4"
       scale_width="1"
       end_linecap_type="zerowidth" />
    <inkscape:path-effect
       effect="powerstroke"
       id="path-effect1489"
       is_visible="true"
       lpeversion="1"
       offset_points="0.2,0.30000049 | 0.97769808,0.26585343 | 1.5040944,0.18153518"
       not_jump="false"
       sort_points="true"
       interpolator_type="CentripetalCatmullRom"
       interpolator_beta="0.2"
       start_linecap_type="zerowidth"
       linejoin_type="round"
       miter_limit="4"
       scale_width="1"
       end_linecap_type="zerowidth" />
  </defs>
  <g
     inkscape:label="Ebene 1"
     inkscape:groupmode="layer"
     id="layer1"
     transform="translate(-527.99322,-71.997688)">
    <g
       id="g8426"
       transform="translate(496.28389,-0.60682)">
      <path
         id="path7644"
         style="fill:#ffff00;fill-opacity:1;stroke:none;stroke-width:3.4;stroke-linecap:round;stroke-dasharray:none"
         d="M 33.40933,74.304508 V 162.1193 a 71.857475,71.857475 0 0 0 71.85763,71.85763 71.857475,71.857475 0 0 0 71.85763,-71.85711 71.857475,71.857475 0 0 0 0,-5.2e-4 V 74.304508 Z" />
      <path
         id="rect7771"
         style="fill:#0000ff;fill-opacity:1;stroke:#000000;stroke-width:0.5;stroke-linecap:round;stroke-dasharray:none"
         d="m 33.40933,113.41995 v 5.66322 h 143.71526 v -5.66322 z" />
      <path
         id="path7996"
         style="fill:none;fill-opacity:1;stroke:#000000;stroke-width:3.4;stroke-linecap:round;stroke-dasharray:none"
         d="M 33.40933,74.304508 V 162.1193 a 71.857475,71.857475 0 0 0 71.85763,71.85763 71.857475,71.857475 0 0 0 71.85763,-71.85711 71.857475,71.857475 0 0 0 0,-5.2e-4 V 74.304508 Z" />
      <g
         id="g6401"
         transform="translate(-0.28842358,-0.42641509)">
        <path
           style="fill:#ffffff;fill-opacity:1;stroke:#000000;stroke-width:0.499999;stroke-linecap:round;stroke-dasharray:none"
           d="m 58.787426,103.55931 4.61623,-5.89543 h 76.640564 l 3.28142,5.25574 z"
           id="path5795" />
        <path
           style="fill:#ffffff;fill-opacity:1;stroke:#000000;stroke-width:0.5;stroke-linecap:round;stroke-dasharray:none"
           d="m 168.90957,103.1978 c 0,0 2.78086,-0.0278 3.05895,1.11234 0.27808,1.14015 -0.50056,2.16907 -0.44494,3.17018 0.0556,1.00111 0.86207,6.25431 0.86207,6.25431 h -6.1179 z"
           id="path5739"
           sodipodi:nodetypes="cssccc" />
        <rect
           style="fill:#ffffff;fill-opacity:1;stroke:#000000;stroke-width:0.499999;stroke-linecap:round;stroke-dasharray:none"
           id="rect6241"
           width="12.034163"
           height="9.9104872"
           x="150.34837"
           y="92.930481" />
        <path
           style="fill:#000000;fill-opacity:1;stroke:none;stroke-width:0.2;stroke-linecap:round;stroke-dasharray:none"
           d="m 167.41644,114.00009 2.6546,-12.26225 H 63.222058 c 0,0 -8.605926,-0.79259 -13.889562,-2.127407 -5.283639,-1.334812 -8.231352,-2.683531 -8.231352,-2.683531 l -0.04916,-1.651239 -2.731702,-0.0034 c 0,0 -0.667159,6.943497 0.723024,11.168357 1.418767,4.31174 5.728576,7.55944 5.728576,7.55944 z"
           id="path5407"
           sodipodi:nodetypes="cccscccscc" />
        <path
           style="fill:#ffffff;fill-opacity:1;stroke:none;stroke-width:0.2;stroke-linecap:round;stroke-dasharray:none"
           d="m 66.06514,105.43657 -5.273805,-2.51695 h 87.664995 c 0,0 0.10953,1.17001 -0.26418,1.66861 -0.64427,0.85957 -2.01304,0.84834 -2.01304,0.84834 z"
           id="path5518"
           sodipodi:nodetypes="cccscc" />
        <path
           style="fill:#ffffff;fill-opacity:1;stroke:none;stroke-width:0.2;stroke-linecap:round;stroke-dasharray:none"
           d="m 39.641949,97.040188 c 0,0 2.969212,1.455111 6.017082,2.26132 3.047868,0.806212 5.404109,0.943492 5.918763,1.327302 0.580076,0.4326 0.294953,1.01268 0.294953,1.01268 0,0 -3.106856,0.11798 -6.921608,-0.86521 -3.814752,-0.983179 -5.387845,-1.592753 -5.387845,-1.592753 z"
           id="path5574"
           sodipodi:nodetypes="csscscc" />
        <path
           style="fill:#000000;fill-opacity:1;stroke:none;stroke-width:0.499999;stroke-linecap:round;stroke-dasharray:none"
           d="m 74.318822,99.675118 c -0.196636,0.127815 -0.216299,0.334282 -0.176972,0.432602 0.03932,0.0983 0.275291,0.29495 0.324451,0.29495 0.04916,0 0.285123,-0.17697 0.275291,-0.2163 -0.0098,-0.0393 -0.04916,-0.196633 -0.04916,-0.196633 z"
           id="path5851" />
        <path
           style="fill:#000000;fill-opacity:1;stroke:none;stroke-width:0.499999;stroke-linecap:round;stroke-dasharray:none"
           d="m 73.109507,98.534626 c -0.285123,0.226132 -0.393274,0.285123 -0.324451,0.393274 0.06882,0.108149 0.2163,0.147476 0.265459,0.176972 0.04916,0.0295 0.314619,-0.147479 0.314619,-0.147479 z"
           id="path5853" />
        <path
           style="fill:#000000;fill-opacity:1;stroke:none;stroke-width:0.499999;stroke-linecap:round;stroke-dasharray:none"
           d="m 75.154527,98.544458 c -0.206467,0.127812 -0.314619,0.16714 -0.275291,0.275291 0.03933,0.108151 0.20647,0.245795 0.235963,0.294955 0.0295,0.04916 0.235966,-0.03933 0.235966,-0.03933 z"
           id="path5855" />
        <path
           style="fill:#000000;fill-opacity:1;stroke:none;stroke-width:0.499999;stroke-linecap:round;stroke-dasharray:none"
           d="m 76.324517,100.01923 c -0.285125,0.059 -0.530921,-0.01 -0.511257,0.0885 0.01966,0.0983 0.245796,0.2163 0.294955,0.31462 0.04916,0.0983 0.255627,0.19663 0.304787,0.1868 0.04916,-0.01 0.108151,-0.26546 0.108151,-0.26546 z"
           id="path5857" />
        <path
           style="fill:#000000;fill-opacity:1;stroke:none;stroke-width:0.499999;stroke-linecap:round;stroke-dasharray:none"
           d="m 75.478978,100.73696 c -0.07865,0.15731 -0.08848,0.34411 -0.03933,0.36378 0.04916,0.0196 0.25563,0.0196 0.25563,0.0196 l 0.196636,-0.28512 z"
           id="path5859" />
        <path
           style="fill:#000000;fill-opacity:1;stroke:none;stroke-width:0.499999;stroke-linecap:round;stroke-dasharray:none"
           d="m 77.179886,100.61897 c -0.147479,0.14748 -0.20647,0.2458 -0.167143,0.32445 0.03933,0.0787 0.176975,0.0983 0.176975,0.19664 0,0.0983 0.03933,0.0983 0.108148,0.0885 0.06882,-0.01 0.186807,-0.15731 0.186807,-0.22613 0,-0.0688 0,-0.19664 0,-0.19664 z"
           id="path5861" />
        <path
           style="fill:#000000;fill-opacity:1;stroke:none;stroke-width:0.499999;stroke-linecap:round;stroke-dasharray:none"
           d="m 76.432666,98.514962 c -0.206468,0.07866 -0.304787,0.117981 -0.2163,0.304787 0.08849,0.186804 0.16714,0.334283 0.186804,0.452263 0.01966,0.117983 0.20647,0.226134 0.235966,0.117983 0.02949,-0.108151 0.08849,-0.412938 0.08849,-0.412938 0,0 0,-0.226131 -0.04916,-0.265459 -0.04916,-0.03933 -0.245795,-0.196636 -0.245795,-0.196636 z"
           id="path5863" />
        <path
           style="fill:#000000;fill-opacity:1;stroke:none;stroke-width:0.499999;stroke-linecap:round;stroke-dasharray:none"
           d="m 77.130726,99.154032 c -0.186803,0.09832 -0.304786,0.176972 -0.216299,0.275291 0.08848,0.09832 0.255627,0.186803 0.294955,0.196635 0.03933,0.0098 0.08848,-0.02949 0.08848,-0.02949 0,0 0.04916,-0.16714 0.04916,-0.2163 0,-0.04916 -0.2163,-0.226131 -0.2163,-0.226131 z"
           id="path5865" />
        <path
           style="fill:#000000;fill-opacity:1;stroke:none;stroke-width:0.499999;stroke-linecap:round;stroke-dasharray:none"
           d="m 77.9566,98.652607 c -0.206468,0.235966 -0.324451,0.353946 -0.186804,0.462097 0.137644,0.108151 0.255627,0.04916 0.285123,0.245795 0.02949,0.196639 -0.05899,0.2163 0.127815,0.265459 0.186803,0.04916 0.353943,0.0295 0.353943,-0.02949 0,-0.05899 0.04916,-0.403104 0,-0.38344 -0.04916,0.01966 -0.206467,-0.09832 -0.245795,-0.186806 -0.03933,-0.08849 -0.334282,-0.37361 -0.334282,-0.37361 z"
           id="path5867" />
        <path
           style="fill:#000000;fill-opacity:1;stroke:none;stroke-width:0.499999;stroke-linecap:round;stroke-dasharray:none"
           d="m 78.900456,100.37318 c -0.2163,0.0393 -0.344115,0.0688 -0.353947,0.23596 -0.0098,0.16714 0.0098,0.23597 0.06882,0.28513 0.05899,0.0491 0.285123,-0.0295 0.344114,-0.0393 0.05899,-0.01 0.206468,-0.14748 0.16714,-0.20647 -0.03933,-0.059 -0.265459,-0.33428 -0.265459,-0.33428 z"
           id="path5869" />
        <path
           style="fill:#000000;fill-opacity:1;stroke:none;stroke-width:0.499999;stroke-linecap:round;stroke-dasharray:none"
           d="m 80.316241,100.51082 c -0.196638,0.059 -0.285123,0.13765 -0.294955,0.23597 -0.0098,0.0983 -0.157311,0.22613 -0.245798,0.27529 -0.08848,0.0492 0.216302,0.0688 0.216302,0.0688 0,0 0.06882,-0.10815 0.157308,-0.10815 0.08849,0 0.206471,-0.0492 0.2163,-0.10815 0.0098,-0.059 0.05899,-0.26546 0.05899,-0.26546 z"
           id="path5871" />
        <path
           style="fill:#000000;fill-opacity:1;stroke:none;stroke-width:0.499999;stroke-linecap:round;stroke-dasharray:none"
           d="m 79.02827,98.9279 c -0.01966,0.137644 -0.01966,0.294955 0.03933,0.452263 0.05899,0.157311 0.344115,0.265459 0.353946,0.196636 0.0098,-0.06882 0.0098,-0.294955 0.0098,-0.294955 0,0 0.255629,-0.2163 0.09832,-0.2163 -0.157308,0 -0.255627,-0.0098 -0.255627,-0.0098 z"
           id="path5873" />
        <path
           style="fill:#000000;fill-opacity:1;stroke:none;stroke-width:0.499999;stroke-linecap:round;stroke-dasharray:none"
           d="m 80.424389,98.259335 c -0.176971,0 -0.560414,-0.147479 -0.580077,-0.0295 -0.01966,0.117981 0.01966,0.206468 0.04916,0.294955 0.0295,0.08849 0.05899,0.08849 0.255627,0.108149 0.196639,0.01966 0.550582,-0.01966 0.550582,-0.01966 0,0 -0.01966,-0.167142 -0.05899,-0.167142 -0.03933,0 -0.216303,-0.186804 -0.216303,-0.186804 z"
           id="path5875" />
        <path
           style="fill:#000000;fill-opacity:1;stroke:none;stroke-width:0.499999;stroke-linecap:round;stroke-dasharray:none"
           d="m 102.44696,98.609374 c -0.25028,0.02781 -0.41713,0.09733 -0.41713,0.222469 0,0.125138 -0.36151,0.347607 -0.37541,0.458841 -0.0139,0.111236 0.38932,0.05562 0.38932,0.05562 0,0 -0.0695,-0.319799 0.0417,-0.305896 0.11123,0.01389 0.68131,-0.02781 0.68131,-0.02781 z"
           id="path5877" />
        <path
           style="fill:#000000;fill-opacity:1;stroke:none;stroke-width:0.499999;stroke-linecap:round;stroke-dasharray:none"
           d="m 104.22672,99.193354 c -0.19467,0.05562 -0.3198,0.01389 -0.292,0.194659 0.0278,0.180758 0.23638,0.180758 0.36152,0.208566 0.12514,0.02781 0.20856,-0.01389 0.20856,-0.08343 0,-0.06952 -0.27808,-0.319799 -0.27808,-0.319799 z"
           id="path5879" />
        <path
           style="fill:#000000;fill-opacity:1;stroke:none;stroke-width:0.499999;stroke-linecap:round;stroke-dasharray:none"
           d="m 104.90803,100.45865 c -0.23638,0.0278 -0.36151,0.0695 -0.33371,0.18075 0.0278,0.11124 0.0417,0.3198 0.11124,0.33371 0.0695,0.0139 0.48665,-0.13905 0.48665,-0.13905 z"
           id="path5881" />
        <path
           style="fill:#000000;fill-opacity:1;stroke:none;stroke-width:0.499999;stroke-linecap:round;stroke-dasharray:none"
           d="m 105.60324,98.790129 c -0.12514,0.01389 -0.3337,0.139044 -0.29199,0.278085 0.0417,0.139044 0.40323,0.152948 0.40323,0.152948 l 0.13904,-0.180756 z"
           id="path5883" />
        <path
           style="fill:#000000;fill-opacity:1;stroke:none;stroke-width:0.499999;stroke-linecap:round;stroke-dasharray:none"
           d="m 106.14551,99.874664 c -0.16685,0.278086 -0.20856,0.417136 -0.18076,0.528366 0.0278,0.11123 0.13905,0.19466 0.20857,0.12514 0.0695,-0.0695 0.30589,-0.37542 0.30589,-0.37542 z"
           id="path5885" />
        <path
           style="fill:#000000;fill-opacity:1;stroke:none;stroke-width:0.499999;stroke-linecap:round;stroke-dasharray:none"
           d="m 106.4236,100.59769 c -0.0556,0.12514 -0.20857,0.40322 -0.18076,0.47275 0.0278,0.0695 0.19466,0.13904 0.26418,0.13904 0.0695,0 0.26418,-0.27809 0.26418,-0.27809 z"
           id="path5887" />
        <path
           style="fill:#000000;fill-opacity:1;stroke:none;stroke-width:0.499999;stroke-linecap:round;stroke-dasharray:none"
           d="m 107.78622,100.50036 c -0.0556,0.0834 -0.0973,0.26418 -0.0556,0.34761 0.0417,0.0834 0.29199,0.12514 0.29199,0.12514 l 0.15295,-0.33371 z"
           id="path5889" />
        <path
           style="fill:#000000;fill-opacity:1;stroke:none;stroke-width:0.499999;stroke-linecap:round;stroke-dasharray:none"
           d="m 106.89634,98.873555 c -0.0139,0.06952 -0.0556,0.333703 -0.0556,0.333703 l 0.37541,0.09733 0.11124,-0.291989 -0.18076,-0.152948 z"
           id="path5891" />
        <path
           style="fill:#000000;fill-opacity:1;stroke:none;stroke-width:0.499999;stroke-linecap:round;stroke-dasharray:none"
           d="m 108.16163,98.414712 c -0.12513,0.05562 -0.30589,0.09733 -0.25027,0.236373 0.0556,0.139044 0.19466,0.389321 0.19466,0.389321 l 0.26418,-0.236373 0.20857,-0.139044 -0.12514,-0.139041 z"
           id="path5893" />
        <path
           style="fill:#000000;fill-opacity:1;stroke:none;stroke-width:0.499999;stroke-linecap:round;stroke-dasharray:none"
           d="m 108.64828,99.638293 c -0.0695,0 -0.15294,0.152945 -0.15294,0.208563 0,0.05562 -0.12514,0.180754 -0.12514,0.264184 0,0.0834 0.3198,0.12514 0.3198,0.12514 l 0.36151,-0.25028 -0.29199,-0.152948 z"
           id="path5895" />
        <path
           style="fill:#000000;fill-opacity:1;stroke:none;stroke-width:0.499999;stroke-linecap:round;stroke-dasharray:none"
           d="m 109.49645,100.3057 c -0.0834,0.12514 -0.13905,0.19466 -0.11123,0.3198 0.0278,0.12514 0.15294,0.29199 0.15294,0.29199 l 0.50056,-0.23638 -0.16685,-0.16685 z"
           id="path5897" />
        <path
           style="fill:#000000;fill-opacity:1;stroke:none;stroke-width:0.499999;stroke-linecap:round;stroke-dasharray:none"
           d="m 110.48365,99.582675 c -0.0278,0.152948 -0.0278,0.431035 0.0278,0.458845 0.0556,0.0278 0.3059,-0.0139 0.3059,-0.0139 l 0.20856,-0.236372 -0.29199,-0.208563 z"
           id="path5899" />
        <path
           style="fill:#000000;fill-opacity:1;stroke:none;stroke-width:0.499999;stroke-linecap:round;stroke-dasharray:none"
           d="m 111.25534,100.58378 c 0,0 -0.10428,-0.20161 -0.19466,-0.11818 -0.0904,0.0834 -0.13209,0.29199 -0.13209,0.34761 0,0.0556 0.27114,0.16685 0.27114,0.16685 l 0.29894,-0.11819 -0.0834,-0.18771 z"
           id="path5980" />
        <path
           style="fill:#000000;fill-opacity:1;stroke:none;stroke-width:0.499999;stroke-linecap:round;stroke-dasharray:none"
           d="m 131.21498,98.720607 c -0.20856,0.05562 -0.41713,0.139044 -0.41713,0.22247 0,0.08343 0.0556,0.333703 0.12514,0.375417 0.0695,0.04171 0.23637,-0.06952 0.3337,-0.111236 0.0973,-0.04171 0.20857,-0.236374 0.20857,-0.236374 z"
           id="path5982" />
        <path
           style="fill:#000000;fill-opacity:1;stroke:none;stroke-width:0.499999;stroke-linecap:round;stroke-dasharray:none"
           d="m 131.53478,98.428618 c -0.0139,0.125138 -0.0556,0.542266 -0.0139,0.611788 0.0417,0.06952 0.6396,0.12514 0.6396,0.12514 l -0.0973,-0.528365 c 0,0 0.12514,-0.250277 0,-0.250277 -0.12514,0 -0.52836,0.04171 -0.52836,0.04171 z"
           id="path5984" />
        <path
           style="fill:#000000;fill-opacity:1;stroke:none;stroke-width:0.499999;stroke-linecap:round;stroke-dasharray:none"
           d="m 132.92521,99.17945 c -0.30589,0.01389 -0.47274,-0.04171 -0.47274,0.125138 0,0.166851 0.0834,0.542268 0.0834,0.542268 l 0.38932,-0.04171 0.25028,-0.431036 z"
           id="path5986" />
        <path
           style="fill:#000000;fill-opacity:1;stroke:none;stroke-width:0.499999;stroke-linecap:round;stroke-dasharray:none"
           d="m 134.00975,99.777334 c -0.37542,0.194662 -0.66741,0.152948 -0.54227,0.375416 0.12514,0.22247 0.50056,0.3337 0.50056,0.3337 l 0.27808,-0.19465 0.0278,-0.27809 z"
           id="path5988" />
        <path
           style="fill:#000000;fill-opacity:1;stroke:none;stroke-width:0.499999;stroke-linecap:round;stroke-dasharray:none"
           d="m 134.88572,98.943077 c -0.20856,0.08343 -0.3198,0.333703 -0.26418,0.403225 0.0556,0.06952 0.22247,0.208565 0.29199,0.222469 0.0695,0.01389 0.38932,-0.139044 0.38932,-0.139044 l -0.0139,-0.389321 z"
           id="path5990" />
        <path
           style="fill:#000000;fill-opacity:1;stroke:none;stroke-width:0.499999;stroke-linecap:round;stroke-dasharray:none"
           d="m 135.1499,100.66721 c -0.19466,-0.0278 -0.47274,-0.3337 -0.48665,-0.0834 -0.0139,0.25028 -0.25028,0.3059 -0.20856,0.38933 0.0417,0.0834 0.40322,0.43103 0.40322,0.43103 l 0.44494,-0.34761 z"
           id="path5992" />
        <path
           style="fill:#000000;fill-opacity:1;stroke:none;stroke-width:0.499999;stroke-linecap:round;stroke-dasharray:none"
           d="m 136.70719,100.80625 c -0.15295,0.0417 -0.27809,0.18076 -0.292,0.25028 -0.0139,0.0695 -0.0695,0.36151 -0.0417,0.41713 0.0278,0.0556 0.37542,-0.0278 0.37542,-0.0278 0,0 0.41713,-0.12514 0.37541,-0.18075 -0.0417,-0.0556 -0.41712,-0.45885 -0.41712,-0.45885 z"
           id="path5994" />
        <path
           style="fill:#000000;fill-opacity:1;stroke:none;stroke-width:0.499999;stroke-linecap:round;stroke-dasharray:none"
           d="m 136.19273,98.720607 c -0.0417,0.05562 -0.0417,0.264181 0.0556,0.389321 0.0973,0.12514 0.26419,0.291992 0.26419,0.431033 0,0.139044 -0.11124,0.375417 -0.11124,0.375417 v 0.389322 c 0,0 0.27809,0 0.34761,-0.0278 0.0695,-0.0278 0.27808,-0.486652 0.19466,-0.472745 -0.0834,0.01389 -0.36151,-0.06952 -0.36151,-0.12514 0,-0.05562 0.0556,-0.778642 0.0556,-0.778642 l -0.20856,-0.139042 z"
           id="path5996" />
        <path
           style="fill:#000000;fill-opacity:1;stroke:none;stroke-width:0.499999;stroke-linecap:round;stroke-dasharray:none"
           d="m 138.16714,98.887459 c -0.16685,0.111236 -0.3198,0.139044 -0.3198,0.291991 0,0.152948 0.20856,0.278085 0.27809,0.278085 0.0695,0 0.30589,-0.236373 0.30589,-0.236373 z"
           id="path5998" />
        <path
           style="fill:#000000;fill-opacity:1;stroke:none;stroke-width:0.499999;stroke-linecap:round;stroke-dasharray:none"
           d="m 138.23666,100.3057 c -0.16685,0.0417 -0.26418,0.13904 -0.26418,0.27808 0,0.13905 -0.0278,0.23638 0.0139,0.3059 0.0417,0.0695 0.22247,0.0695 0.38932,-0.0278 0.16685,-0.0973 0.3198,-0.29199 0.22247,-0.36151 -0.0973,-0.0695 -0.36151,-0.19466 -0.36151,-0.19466 z"
           id="path6000" />
        <path
           style="fill:#000000;fill-opacity:1;stroke:none;stroke-width:0.499999;stroke-linecap:round;stroke-dasharray:none"
           d="m 139.73833,98.859651 c -0.16686,0.05562 -0.26419,0.01389 -0.26419,0.208563 0,0.194662 0.11124,0.403225 0.16685,0.417132 0.0556,0.01389 0.20857,-0.05562 0.27809,-0.09733 0.0695,-0.04171 0.26418,-0.222467 0.16685,-0.305892 -0.0973,-0.08343 -0.3476,-0.22247 -0.3476,-0.22247 z"
           id="path6002" />
        <path
           style="fill:#000000;fill-opacity:1;stroke:none;stroke-width:0.499999;stroke-linecap:round;stroke-dasharray:none"
           d="m 140.3084,100.27789 c -0.12514,0.0278 -0.23637,0.19466 -0.25027,0.27809 -0.0139,0.0834 -0.34761,-0.0556 -0.51447,0.0139 -0.16685,0.0695 -0.20856,0.36152 -0.19466,0.44494 0.0139,0.0834 0.0834,0.13904 0.16686,0.18076 0.0834,0.0417 0.30589,-0.0973 0.30589,-0.0973 0,0 0.22247,-0.3337 0.29199,-0.18076 0.0695,0.15295 0.11124,0.26418 0.18076,0.3198 0.0695,0.0556 0.30589,-0.50055 0.30589,-0.50055 l -0.0417,-0.29199 z"
           id="path6004" />
        <path
           style="fill:none;fill-opacity:1;stroke:#000000;stroke-width:0.9;stroke-linecap:round;stroke-dasharray:none"
           d="M 147.72635,92.930479 H 164.8995"
           id="path6245"
           sodipodi:nodetypes="cc" />
        <path
           style="fill:none;fill-opacity:1;stroke:#000000;stroke-width:0.5;stroke-linecap:round;stroke-dasharray:none"
           d="m 157.11268,99.48715 v 2.25069"
           id="path6249" />
        <rect
           style="fill:#000000;fill-opacity:1;stroke:none;stroke-width:0.899999;stroke-linecap:round;stroke-dasharray:none"
           id="rect6251"
           width="4.8217173"
           height="4.6847935"
           x="151.7094"
           y="94.189034" />
        <rect
           style="fill:#000000;fill-opacity:1;stroke:none;stroke-width:0.899997;stroke-linecap:round;stroke-dasharray:none"
           id="rect6253"
           width="3.7371809"
           height="4.6847935"
           x="157.47546"
           y="94.189034" />
      </g>
      <g
         id="g5351"
         transform="translate(2.6655207,0.08556266)">
        <path
           style="fill:#000000;fill-opacity:1;stroke:none;stroke-width:0.600001;stroke-linecap:round;stroke-dasharray:none"
           d="m 77.859503,175.63585 h 49.953917 l 0.20159,-3.23673 -25.30022,-21.22486 -24.855287,21.22486 z"
           id="path5211"
           sodipodi:nodetypes="cccccc" />
        <rect
           style="fill:#02a200;fill-opacity:1;stroke:none;stroke-width:0.600001;stroke-linecap:round;stroke-dasharray:none"
           id="rect3792"
           width="50.155518"
           height="2.8920028"
           x="77.859505"
           y="170.95312" />
        <rect
           style="fill:#02a200;fill-opacity:1;stroke:none;stroke-width:0.600001;stroke-linecap:round;stroke-dasharray:none"
           id="rect3794"
           width="26.907509"
           height="2.8920028"
           x="89.26104"
           y="160.8434" />
        <rect
           style="fill:#02a200;fill-opacity:1;stroke:none;stroke-width:0.600001;stroke-linecap:round;stroke-dasharray:none"
           id="rect3796"
           width="34.527073"
           height="2.8920028"
           x="85.534683"
           y="164.2133" />
        <rect
           style="fill:#02a200;fill-opacity:1;stroke:none;stroke-width:0.600001;stroke-linecap:round;stroke-dasharray:none"
           id="rect3798"
           width="43.870766"
           height="2.8920028"
           x="80.80722"
           y="167.58322" />
        <g
           id="g3694"
           transform="matrix(-1,0,0,1,408.13611,6.3008399)"
           inkscape:transform-center-x="2.8603326"
           inkscape:transform-center-y="19.869461">
          <path
             id="path3672"
             style="fill:#02a200;fill-opacity:1;stroke:#000000;stroke-width:0.6;stroke-linecap:round;stroke-dasharray:none"
             d="m 288.83553,117.67258 -1.14559,2.78345 c 0,0 -5.21994,1.69225 -5.09288,8.69906 0.14389,7.93544 6.51502,10.44022 9.77994,11.32818 3.26493,0.88797 11.84111,6.75429 11.84111,6.75429 l 25.08343,21.43558 c 1.33516,1.141 3.13563,1.21075 4.03641,0.15667 0.90078,-1.05407 0.55089,-2.82126 -0.78427,-3.96225 l -24.1339,-20.62414 c -0.0447,-0.0408 -7.0167,-6.36337 -9.57889,-8.19242 -2.57064,-1.83468 -4.16731,-2.63001 -4.16731,-2.63001 0,0 -0.76488,-0.86026 -1.16713,-1.72132 -0.40222,-0.86112 -1.39736,-1.81545 -1.39736,-1.81545 0,0 1.75355,0.30886 2.51242,0.0262 0.75886,-0.28266 1.05293,-0.44543 1.05293,-0.44543 0,0 1.56386,1.80236 2.6391,1.99699 1.07522,0.19462 1.7732,-0.30405 2.26803,-0.95892 0.50194,-0.66427 0.84925,-2.13779 0.3074,-2.47876 -1.49594,-0.94135 -3.50804,-2.31425 -4.09972,-3.19353 -0.37325,-0.55468 -0.21507,-1.3217 -0.21507,-1.3217 0,0 -0.31622,-0.11483 -0.83697,-0.35294 -0.52077,-0.23811 -0.67975,-1.20218 -1.15811,-1.61098 -0.47836,-0.40879 -1.73721,-0.81162 -1.73721,-0.81162 l -0.7333,-2.59251 -1.92508,2.13093 z"
             sodipodi:nodetypes="ccssccsscccscscsssscsscccc" />
          <ellipse
             style="fill:#000000;stroke:none;stroke-width:0.600003;stroke-linecap:round;stroke-dasharray:none"
             id="ellipse3674"
             cx="317.54285"
             cy="22.551554"
             rx="1.3730373"
             ry="0.97335142"
             transform="rotate(19.040827)" />
          <ellipse
             style="fill:#ffffff;stroke:none;stroke-width:0.600002;stroke-linecap:round;stroke-dasharray:none"
             id="ellipse3676"
             cx="292.66415"
             cy="125.16904"
             rx="0.20646855"
             ry="0.22613211" />
          <path
             style="fill:#000000;fill-rule:nonzero;stroke:none;stroke-width:0.600001;stroke-linecap:round;stroke-dasharray:none"
             d="m 292.00741,140.17831 c 0,0 0.11086,7.1e-4 0.11124,0.007 4.4e-4,0.007 -0.40812,-0.43332 -0.84867,-1.00878 -0.17936,-0.23428 -0.36429,-0.49587 -0.53058,-0.76691 -0.16393,-0.2672 -0.28763,-0.50747 -0.37776,-0.72172 -0.0149,-0.0354 -0.0289,-0.0705 -0.042,-0.10524 -0.0737,-0.18947 -0.14806,-0.41937 -0.22037,-0.64901 -0.0785,-0.2493 -0.15164,-0.48833 -0.22426,-0.69245 -0.0453,-0.12749 -0.0895,-0.23836 -0.13438,-0.3303 -0.16629,-0.34038 -0.33381,-0.38576 -0.39193,-0.37163 -0.0565,0.0137 -0.18855,0.13288 -0.16818,0.51613 0.005,0.10331 0.0217,0.22363 0.0464,0.3588 0.0393,0.21446 0.10051,0.46675 0.17045,0.72476 0.0645,0.23804 0.13722,0.48334 0.20397,0.69506 0.0145,0.044 0.0297,0.0881 0.0457,0.13198 0.0963,0.26469 0.23148,0.54912 0.40446,0.85088 0.17543,0.30606 0.37087,0.597 0.55671,0.85276 0.45876,0.63135 0.65082,0.88855 0.66739,0.69421 0.0137,-0.16061 0.15295,0.0209 0.15295,0.0209 z"
             id="path3678"
             sodipodi:nodetypes="cscsscssssssscsssscc" />
          <path
             style="fill:#000000;fill-rule:nonzero;stroke:none;stroke-width:0.600001;stroke-linecap:round;stroke-dasharray:none"
             d="m 288.17556,138.55294 c -0.28221,-0.53221 -0.49458,-1.0534 -0.70301,-1.50042 -0.29795,-0.66902 -0.54772,-1.41585 -0.68292,-2.17773 -0.0103,-0.0583 -0.0199,-0.11694 -0.0287,-0.17577 -0.0326,-0.18975 -0.0485,-0.4221 -0.0584,-0.65899 -0.0105,-0.25322 -0.0141,-0.50503 -0.0251,-0.71809 -0.007,-0.13411 -0.0167,-0.25218 -0.0325,-0.35309 -0.0583,-0.37255 -0.20056,-0.46822 -0.26128,-0.47295 v 0 c -0.0572,-0.004 -0.22206,0.0691 -0.3165,0.44511 -0.0255,0.10142 -0.0454,0.22271 -0.0605,0.3607 -0.0239,0.21871 -0.0359,0.48248 -0.0355,0.7536 3.9e-4,0.24975 0.0114,0.51327 0.0355,0.74487 0.008,0.0655 0.0165,0.13058 0.0258,0.19534 0.12035,0.84031 0.37986,1.66317 0.68255,2.38429 0.35076,0.8356 0.52701,1.08663 0.52733,1.09596 2.4e-4,0.007 0,0 0,0 z"
             id="path3680"
             sodipodi:nodetypes="ccscccssssssccsscc" />
          <path
             style="fill:#000000;fill-rule:nonzero;stroke:none;stroke-width:0.600001;stroke-linecap:round;stroke-dasharray:none"
             d="m 284.30438,133.1311 c 0.042,-0.70853 0.18872,-1.50975 0.48957,-2.33856 0.0231,-0.0636 0.0473,-0.12751 0.0726,-0.19173 0.0636,-0.17421 0.16823,-0.37565 0.28466,-0.57935 0.12408,-0.21708 0.25685,-0.42917 0.36367,-0.61283 0.0673,-0.11566 0.1239,-0.21924 0.16641,-0.31208 0.15685,-0.3426 0.0942,-0.50088 0.0461,-0.53922 -0.0444,-0.0353 -0.2241,-0.067 -0.51244,0.197 -0.0777,0.0711 -0.16179,0.16231 -0.25053,0.27042 -0.14051,0.17119 -0.29538,0.38852 -0.44057,0.62044 -0.13358,0.21338 -0.26448,0.44811 -0.36162,0.66752 -0.0294,0.0694 -0.0576,0.13848 -0.0849,0.20718 -0.35413,0.89294 -0.53273,1.7742 -0.59609,2.55283 -0.0733,0.90112 -0.006,1.17845 -0.009,1.19153 -0.002,0.01 0,0 0,0 1.32916,0.90864 0.80554,0.60178 0.83214,-1.13315 z"
             id="path3682"
             sodipodi:nodetypes="cscssscsssccsccc"
             inkscape:transform-center-x="-0.15730313"
             inkscape:transform-center-y="0.11798291" />
          <path
             style="fill:#000000;fill-rule:nonzero;stroke:none;stroke-width:0.600001;stroke-linecap:round;stroke-dasharray:none"
             d="m 282.82197,128.92788 c 0.26078,-0.52608 0.72846,-1.22705 1.05912,-1.73869 0.38749,-0.59467 0.91178,-1.21802 1.58368,-1.78899 0.0516,-0.0438 0.10422,-0.0874 0.15801,-0.1306 0.14153,-0.11984 0.33221,-0.24299 0.53426,-0.36227 0.21532,-0.12711 0.43571,-0.24559 0.61948,-0.35222 0.11574,-0.0671 0.21624,-0.12908 0.29915,-0.18868 0.30597,-0.21992 0.32996,-0.38844 0.30714,-0.44559 -0.021,-0.0527 -0.1615,-0.16918 -0.54274,-0.0827 -0.10275,0.0233 -0.22095,0.0609 -0.35158,0.11081 -0.20686,0.0791 -0.44906,0.19119 -0.69007,0.32074 -0.22173,0.11919 -0.45171,0.25826 -0.64479,0.40073 -0.0599,0.0458 -0.11866,0.0918 -0.17636,0.13795 -0.74995,0.60026 -1.34163,1.27734 -1.78236,1.92235 -0.51006,0.74648 -0.58897,1.02074 -0.59795,1.03067 -0.007,0.008 0,0 0,0 z"
             id="path3684"
             sodipodi:nodetypes="ccscsssssssccsccc"
             inkscape:transform-center-x="-0.062839025"
             inkscape:transform-center-y="0.28753344" />
          <path
             id="path3686"
             style="fill:#000000;fill-rule:nonzero;stroke:none;stroke-width:0.600001;stroke-linecap:round;stroke-dasharray:none"
             inkscape:transform-center-x="0.0067170076"
             inkscape:transform-center-y="0.3415663"
             d="m 287.81809,121.75484 c -0.017,4e-5 -0.0342,2.4e-4 -0.0517,5.2e-4 -0.22145,0.003 -0.48728,0.0255 -0.75809,0.0646 -0.24914,0.036 -0.51291,0.0879 -0.74311,0.15555 -0.0719,0.0225 -0.14287,0.0457 -0.2129,0.0692 -0.48967,0.16517 -0.94396,0.3671 -1.35806,0.58911 l -1.26659,1.93321 0.0191,0.0171 c -0.0119,0.006 0.10729,-0.18822 0.76016,-0.678 0.56777,-0.42593 1.27381,-0.83167 2.10065,-1.13791 0.0634,-0.0235 0.12792,-0.0465 0.19327,-0.0687 0.17402,-0.0641 0.39563,-0.11477 0.62632,-0.15762 0.24583,-0.0456 0.4931,-0.0812 0.70228,-0.11833 0.13174,-0.0234 0.2474,-0.0473 0.34571,-0.0749 0.36279,-0.1018 0.44318,-0.25216 0.44132,-0.31367 -0.002,-0.0567 -0.0938,-0.21419 -0.48162,-0.26355 -0.0914,-0.0116 -0.19795,-0.0168 -0.31678,-0.0165 z" />
          <path
             style="fill:#000000;fill-rule:nonzero;stroke:none;stroke-width:0.600001;stroke-linecap:round;stroke-dasharray:none"
             d="m 300.50012,130.73388 h 0 c 0.0134,-0.0439 0.0699,-0.23243 0.0382,-0.30371 -0.0593,-0.13329 -0.70303,-0.26594 -1.48125,-0.64892 -0.0249,-0.0122 -0.05,-0.0246 -0.0752,-0.0372 -0.48904,-0.23985 -0.80168,-0.53617 -0.9912,-0.72677 -2e-5,-2e-5 -0.005,-0.005 -0.005,-0.005 -0.21194,-0.2136 -0.3669,-0.3427 -0.39559,-0.33308 -0.0221,0.007 -0.11015,0.16392 0.1031,0.54819 0.001,0.002 0.003,0.005 0.004,0.007 0.15828,0.28186 0.47622,0.6564 1.03741,0.97498 0.0251,0.0142 0.05,0.0282 0.0747,0.0421 0.91144,0.51184 1.38268,0.80151 1.52889,0.74411 0.087,-0.0342 0.14752,-0.2144 0.16198,-0.26192 z"
             id="path3688"
             inkscape:path-effect="#path-effect3698"
             inkscape:original-d="m 300.50012,130.73388 c 0,0 -0.50798,-0.15461 -1.6419,-0.75705 -1.01374,-0.53858 -1.2683,-1.29781 -1.2683,-1.29781"
             sodipodi:nodetypes="csc" />
          <path
             style="fill:#000000;stroke:none;stroke-width:0.600001;stroke-linecap:round;stroke-dasharray:none"
             d="m 299.86036,128.19775 c 0,0 -0.50054,0.18075 -0.45884,0.37541 0.0417,0.19466 0.44495,0.70912 0.44495,0.70912 l 0.61179,0.22247 0.12512,-0.86206 -0.0278,-0.33371 z"
             id="path3690" />
          <path
             style="fill:#000000;stroke:none;stroke-width:0.600001;stroke-linecap:round;stroke-dasharray:none"
             d="m 294.97464,122.20968 c 0,0 -0.29495,-0.50142 -1.27815,-0.19664 -0.46953,0.14555 -0.74721,0.47193 -0.74721,0.47193 l 2.12368,0.0786 z"
             id="path3692"
             sodipodi:nodetypes="csccc" />
        </g>
        <g
           id="g3670"
           transform="translate(-202.57477,6.3008399)">
          <path
             id="rect923"
             style="fill:#02a200;fill-opacity:1;stroke:#000000;stroke-width:0.6;stroke-linecap:round;stroke-dasharray:none"
             d="m 288.83553,117.67258 -1.14559,2.78345 c 0,0 -5.21994,1.69225 -5.09288,8.69906 0.14389,7.93544 6.51502,10.44022 9.77994,11.32818 3.26493,0.88797 11.84111,6.75429 11.84111,6.75429 l 25.08343,21.43558 c 1.33516,1.141 3.13563,1.21075 4.03641,0.15667 0.90078,-1.05407 0.55089,-2.82126 -0.78427,-3.96225 l -24.1339,-20.62414 c -0.0447,-0.0408 -7.0167,-6.36337 -9.57889,-8.19242 -2.57064,-1.83468 -4.16731,-2.63001 -4.16731,-2.63001 0,0 -0.76488,-0.86026 -1.16713,-1.72132 -0.40222,-0.86112 -1.39736,-1.81545 -1.39736,-1.81545 0,0 1.75355,0.30886 2.51242,0.0262 0.75886,-0.28266 1.05293,-0.44543 1.05293,-0.44543 0,0 1.56386,1.80236 2.6391,1.99699 1.07522,0.19462 1.7732,-0.30405 2.26803,-0.95892 0.50194,-0.66427 0.84925,-2.13779 0.3074,-2.47876 -1.49594,-0.94135 -3.50804,-2.31425 -4.09972,-3.19353 -0.37325,-0.55468 -0.21507,-1.3217 -0.21507,-1.3217 0,0 -0.31622,-0.11483 -0.83697,-0.35294 -0.52077,-0.23811 -0.67975,-1.20218 -1.15811,-1.61098 -0.47836,-0.40879 -1.73721,-0.81162 -1.73721,-0.81162 l -0.7333,-2.59251 -1.92508,2.13093 z"
             sodipodi:nodetypes="ccssccsscccscscsssscsscccc" />
          <ellipse
             style="fill:#000000;stroke:none;stroke-width:0.600003;stroke-linecap:round;stroke-dasharray:none"
             id="ellipse1294"
             cx="317.54285"
             cy="22.551554"
             rx="1.3730373"
             ry="0.97335142"
             transform="rotate(19.040827)" />
          <ellipse
             style="fill:#ffffff;stroke:none;stroke-width:0.600002;stroke-linecap:round;stroke-dasharray:none"
             id="path1188"
             cx="292.66415"
             cy="125.16904"
             rx="0.20646855"
             ry="0.22613211" />
          <path
             style="fill:#000000;fill-rule:nonzero;stroke:none;stroke-width:0.600001;stroke-linecap:round;stroke-dasharray:none"
             d="m 292.00741,140.17831 c 0,0 0.11086,7.1e-4 0.11124,0.007 4.4e-4,0.007 -0.40812,-0.43332 -0.84867,-1.00878 -0.17936,-0.23428 -0.36429,-0.49587 -0.53058,-0.76691 -0.16393,-0.2672 -0.28763,-0.50747 -0.37776,-0.72172 -0.0149,-0.0354 -0.0289,-0.0705 -0.042,-0.10524 -0.0737,-0.18947 -0.14806,-0.41937 -0.22037,-0.64901 -0.0785,-0.2493 -0.15164,-0.48833 -0.22426,-0.69245 -0.0453,-0.12749 -0.0895,-0.23836 -0.13438,-0.3303 -0.16629,-0.34038 -0.33381,-0.38576 -0.39193,-0.37163 -0.0565,0.0137 -0.18855,0.13288 -0.16818,0.51613 0.005,0.10331 0.0217,0.22363 0.0464,0.3588 0.0393,0.21446 0.10051,0.46675 0.17045,0.72476 0.0645,0.23804 0.13722,0.48334 0.20397,0.69506 0.0145,0.044 0.0297,0.0881 0.0457,0.13198 0.0963,0.26469 0.23148,0.54912 0.40446,0.85088 0.17543,0.30606 0.37087,0.597 0.55671,0.85276 0.45876,0.63135 0.65082,0.88855 0.66739,0.69421 0.0137,-0.16061 0.15295,0.0209 0.15295,0.0209 z"
             id="path1360"
             sodipodi:nodetypes="cscsscssssssscsssscc" />
          <path
             style="fill:#000000;fill-rule:nonzero;stroke:none;stroke-width:0.600001;stroke-linecap:round;stroke-dasharray:none"
             d="m 288.17556,138.55294 c -0.28221,-0.53221 -0.49458,-1.0534 -0.70301,-1.50042 -0.29795,-0.66902 -0.54772,-1.41585 -0.68292,-2.17773 -0.0103,-0.0583 -0.0199,-0.11694 -0.0287,-0.17577 -0.0326,-0.18975 -0.0485,-0.4221 -0.0584,-0.65899 -0.0105,-0.25322 -0.0141,-0.50503 -0.0251,-0.71809 -0.007,-0.13411 -0.0167,-0.25218 -0.0325,-0.35309 -0.0583,-0.37255 -0.20056,-0.46822 -0.26128,-0.47295 v 0 c -0.0572,-0.004 -0.22206,0.0691 -0.3165,0.44511 -0.0255,0.10142 -0.0454,0.22271 -0.0605,0.3607 -0.0239,0.21871 -0.0359,0.48248 -0.0355,0.7536 3.9e-4,0.24975 0.0114,0.51327 0.0355,0.74487 0.008,0.0655 0.0165,0.13058 0.0258,0.19534 0.12035,0.84031 0.37986,1.66317 0.68255,2.38429 0.35076,0.8356 0.52701,1.08663 0.52733,1.09596 2.4e-4,0.007 0,0 0,0 z"
             id="path1364"
             sodipodi:nodetypes="ccscccssssssccsscc" />
          <path
             style="fill:#000000;fill-rule:nonzero;stroke:none;stroke-width:0.600001;stroke-linecap:round;stroke-dasharray:none"
             d="m 284.30438,133.1311 c 0.042,-0.70853 0.18872,-1.50975 0.48957,-2.33856 0.0231,-0.0636 0.0473,-0.12751 0.0726,-0.19173 0.0636,-0.17421 0.16823,-0.37565 0.28466,-0.57935 0.12408,-0.21708 0.25685,-0.42917 0.36367,-0.61283 0.0673,-0.11566 0.1239,-0.21924 0.16641,-0.31208 0.15685,-0.3426 0.0942,-0.50088 0.0461,-0.53922 -0.0444,-0.0353 -0.2241,-0.067 -0.51244,0.197 -0.0777,0.0711 -0.16179,0.16231 -0.25053,0.27042 -0.14051,0.17119 -0.29538,0.38852 -0.44057,0.62044 -0.13358,0.21338 -0.26448,0.44811 -0.36162,0.66752 -0.0294,0.0694 -0.0576,0.13848 -0.0849,0.20718 -0.35413,0.89294 -0.53273,1.7742 -0.59609,2.55283 -0.0733,0.90112 -0.006,1.17845 -0.009,1.19153 -0.002,0.01 0,0 0,0 1.32916,0.90864 0.80554,0.60178 0.83214,-1.13315 z"
             id="path1384"
             sodipodi:nodetypes="cscssscsssccsccc"
             inkscape:transform-center-x="-0.15730313"
             inkscape:transform-center-y="0.11798291" />
          <path
             style="fill:#000000;fill-rule:nonzero;stroke:none;stroke-width:0.600001;stroke-linecap:round;stroke-dasharray:none"
             d="m 282.82197,128.92788 c 0.26078,-0.52608 0.72846,-1.22705 1.05912,-1.73869 0.38749,-0.59467 0.91178,-1.21802 1.58368,-1.78899 0.0516,-0.0438 0.10422,-0.0874 0.15801,-0.1306 0.14153,-0.11984 0.33221,-0.24299 0.53426,-0.36227 0.21532,-0.12711 0.43571,-0.24559 0.61948,-0.35222 0.11574,-0.0671 0.21624,-0.12908 0.29915,-0.18868 0.30597,-0.21992 0.32996,-0.38844 0.30714,-0.44559 -0.021,-0.0527 -0.1615,-0.16918 -0.54274,-0.0827 -0.10275,0.0233 -0.22095,0.0609 -0.35158,0.11081 -0.20686,0.0791 -0.44906,0.19119 -0.69007,0.32074 -0.22173,0.11919 -0.45171,0.25826 -0.64479,0.40073 -0.0599,0.0458 -0.11866,0.0918 -0.17636,0.13795 -0.74995,0.60026 -1.34163,1.27734 -1.78236,1.92235 -0.51006,0.74648 -0.58897,1.02074 -0.59795,1.03067 -0.007,0.008 0,0 0,0 z"
             id="path1390"
             sodipodi:nodetypes="ccscsssssssccsccc"
             inkscape:transform-center-x="-0.062839025"
             inkscape:transform-center-y="0.28753344" />
          <path
             id="path1396"
             style="fill:#000000;fill-rule:nonzero;stroke:none;stroke-width:0.600001;stroke-linecap:round;stroke-dasharray:none"
             inkscape:transform-center-x="0.0067170076"
             inkscape:transform-center-y="0.3415663"
             d="m 287.81809,121.75484 c -0.017,4e-5 -0.0342,2.4e-4 -0.0517,5.2e-4 -0.22145,0.003 -0.48728,0.0255 -0.75809,0.0646 -0.24914,0.036 -0.51291,0.0879 -0.74311,0.15555 -0.0719,0.0225 -0.14287,0.0457 -0.2129,0.0692 -0.48967,0.16517 -0.94396,0.3671 -1.35806,0.58911 l -1.26659,1.93321 0.0191,0.0171 c -0.0119,0.006 0.10729,-0.18822 0.76016,-0.678 0.56777,-0.42593 1.27381,-0.83167 2.10065,-1.13791 0.0634,-0.0235 0.12792,-0.0465 0.19327,-0.0687 0.17402,-0.0641 0.39563,-0.11477 0.62632,-0.15762 0.24583,-0.0456 0.4931,-0.0812 0.70228,-0.11833 0.13174,-0.0234 0.2474,-0.0473 0.34571,-0.0749 0.36279,-0.1018 0.44318,-0.25216 0.44132,-0.31367 -0.002,-0.0567 -0.0938,-0.21419 -0.48162,-0.26355 -0.0914,-0.0116 -0.19795,-0.0168 -0.31678,-0.0165 z" />
          <path
             style="fill:#000000;fill-rule:nonzero;stroke:none;stroke-width:0.600001;stroke-linecap:round;stroke-dasharray:none"
             d="m 300.50012,130.73388 h 0 c 0.0134,-0.0439 0.0699,-0.23243 0.0382,-0.30371 -0.0593,-0.13329 -0.70303,-0.26594 -1.48125,-0.64892 -0.0249,-0.0122 -0.05,-0.0246 -0.0752,-0.0372 -0.48904,-0.23985 -0.80168,-0.53617 -0.9912,-0.72677 -2e-5,-2e-5 -0.005,-0.005 -0.005,-0.005 -0.21194,-0.2136 -0.3669,-0.3427 -0.39559,-0.33308 -0.0221,0.007 -0.11015,0.16392 0.1031,0.54819 0.001,0.002 0.003,0.005 0.004,0.007 0.15828,0.28186 0.47622,0.6564 1.03741,0.97498 0.0251,0.0142 0.05,0.0282 0.0747,0.0421 0.91144,0.51184 1.38268,0.80151 1.52889,0.74411 0.087,-0.0342 0.14752,-0.2144 0.16198,-0.26192 z"
             id="path1487"
             inkscape:path-effect="#path-effect1489"
             inkscape:original-d="m 300.50012,130.73388 c 0,0 -0.50798,-0.15461 -1.6419,-0.75705 -1.01374,-0.53858 -1.2683,-1.29781 -1.2683,-1.29781"
             sodipodi:nodetypes="csc" />
          <path
             style="fill:#000000;stroke:none;stroke-width:0.600001;stroke-linecap:round;stroke-dasharray:none"
             d="m 299.86036,128.19775 c 0,0 -0.50054,0.18075 -0.45884,0.37541 0.0417,0.19466 0.44495,0.70912 0.44495,0.70912 l 0.61179,0.22247 0.12512,-0.86206 -0.0278,-0.33371 z"
             id="path1491" />
          <path
             style="fill:#000000;stroke:none;stroke-width:0.600001;stroke-linecap:round;stroke-dasharray:none"
             d="m 294.97464,122.20968 c 0,0 -0.29495,-0.50142 -1.27815,-0.19664 -0.46953,0.14555 -0.74721,0.47193 -0.74721,0.47193 l 2.12368,0.0786 z"
             id="path1518"
             sodipodi:nodetypes="csccc" />
        </g>
        <g
           id="g5317"
           transform="translate(-202.11232,6.4612348)">
          <ellipse
             style="fill:#000000;fill-opacity:1;stroke:none;stroke-width:0.600001;stroke-linecap:round;stroke-dasharray:none"
             id="path5311"
             cx="336.6647"
             cy="-1.3847729"
             rx="1.1011652"
             ry="0.57024628"
             transform="rotate(25.402771)" />
          <ellipse
             style="fill:#000000;fill-opacity:1;stroke:none;stroke-width:0.600446;stroke-linecap:round;stroke-dasharray:none"
             id="ellipse5313"
             cx="33.05896"
             cy="335.18457"
             rx="0.90687335"
             ry="0.48144245"
             transform="matrix(0.56369321,-0.82598424,0.85543771,0.51790571,0,0)" />
        </g>
      </g>
      <g
         id="g7480"
         transform="translate(-48.12711,-63.889561)">
        <path
           id="path6504"
           style="fill:#02a200;fill-opacity:1;stroke:#000000;stroke-width:0.499999;stroke-linecap:round;stroke-dasharray:none"
           d="m 104.37451,190.67157 c 0,0 -1.89403,3.64229 -4.08968,5.36866 -3.527591,2.77364 -6.148027,4.33405 -8.809277,7.55044 -3.401234,4.11076 -8.23454,13.08772 -1.652095,19.11305 7.209232,6.59908 14.551052,-0.89762 14.551052,-0.89762 0,0 7.34233,7.4967 14.55156,0.89762 6.58245,-6.02533 1.74915,-15.00229 -1.65209,-19.11305 -2.66125,-3.21639 -5.28169,-4.7768 -8.80928,-7.55044 -2.19565,-1.72637 -4.09019,-5.36866 -4.09019,-5.36866 z" />
        <path
           id="path6511"
           style="fill:#000000;fill-opacity:1;stroke:none;stroke-width:0.1;stroke-linecap:round;stroke-dasharray:none"
           d="m 104.37451,191.01108 -0.67411,1.09089 -0.78058,34.95549 h 2.9099 l -1.07674,-35.33091 -0.37796,-0.71547 z"
           sodipodi:nodetypes="ccccccc" />
        <g
           id="g6628">
          <path
             style="fill:none;fill-opacity:1;stroke:#000000;stroke-width:0.8;stroke-linecap:round;stroke-dasharray:none"
             d="M 104.37452,221.80611 87.010103,213.17873"
             id="path6616"
             sodipodi:nodetypes="cc" />
          <path
             style="fill:none;fill-opacity:1;stroke:#000000;stroke-width:0.8;stroke-linecap:round;stroke-dasharray:none"
             d="M 104.37452,214.90957 89.261621,207.40084"
             id="path6618"
             sodipodi:nodetypes="cc" />
          <path
             style="fill:none;fill-opacity:1;stroke:#000000;stroke-width:0.8;stroke-linecap:round;stroke-dasharray:none"
             d="M 104.37477,208.04616 92.965405,202.37751"
             id="path6620"
             sodipodi:nodetypes="cc" />
          <path
             style="fill:none;fill-opacity:1;stroke:#000000;stroke-width:0.8;stroke-linecap:round;stroke-dasharray:none"
             d="m 104.6,201.81703 -6.945467,-3.4508"
             id="path6622"
             sodipodi:nodetypes="cc" />
        </g>
        <g
           id="g6638"
           inkscape:transform-center-x="-8.5696788"
           inkscape:transform-center-y="20.967701"
           transform="matrix(-1,0,0,1,208.74946,0)">
          <path
             style="fill:none;fill-opacity:1;stroke:#000000;stroke-width:0.8;stroke-linecap:round;stroke-dasharray:none"
             d="M 104.37452,221.80611 87.010103,213.17873"
             id="path6630"
             sodipodi:nodetypes="cc" />
          <path
             style="fill:none;fill-opacity:1;stroke:#000000;stroke-width:0.8;stroke-linecap:round;stroke-dasharray:none"
             d="M 104.37452,214.90957 89.261621,207.40084"
             id="path6632"
             sodipodi:nodetypes="cc" />
          <path
             style="fill:none;fill-opacity:1;stroke:#000000;stroke-width:0.8;stroke-linecap:round;stroke-dasharray:none"
             d="M 104.37477,208.04616 92.965405,202.37751"
             id="path6634"
             sodipodi:nodetypes="cc" />
          <path
             style="fill:none;fill-opacity:1;stroke:#000000;stroke-width:0.8;stroke-linecap:round;stroke-dasharray:none"
             d="m 104.6,201.81703 -6.945467,-3.4508"
             id="path6636"
             sodipodi:nodetypes="cc" />
        </g>
      </g>
      <g
         id="g8139"
         transform="translate(-36.22215,-19.213713)">
        <path
           id="path8115"
           style="fill:#02a200;fill-opacity:1;stroke:#000000;stroke-width:0.499999;stroke-linecap:round;stroke-dasharray:none"
           d="m 104.37451,190.67157 c 0,0 -1.89403,3.64229 -4.08968,5.36866 -3.527591,2.77364 -6.148027,4.33405 -8.809277,7.55044 -3.401234,4.11076 -8.23454,13.08772 -1.652095,19.11305 7.209232,6.59908 14.551052,-0.89762 14.551052,-0.89762 0,0 7.34233,7.4967 14.55156,0.89762 6.58245,-6.02533 1.74915,-15.00229 -1.65209,-19.11305 -2.66125,-3.21639 -5.28169,-4.7768 -8.80928,-7.55044 -2.19565,-1.72637 -4.09019,-5.36866 -4.09019,-5.36866 z" />
        <path
           id="path8117"
           style="fill:#000000;fill-opacity:1;stroke:none;stroke-width:0.1;stroke-linecap:round;stroke-dasharray:none"
           d="m 104.37451,191.01108 -0.67411,1.09089 -0.78058,34.95549 h 2.9099 l -1.07674,-35.33091 -0.37796,-0.71547 z"
           sodipodi:nodetypes="ccccccc" />
        <g
           id="g8127">
          <path
             style="fill:none;fill-opacity:1;stroke:#000000;stroke-width:0.8;stroke-linecap:round;stroke-dasharray:none"
             d="M 104.37452,221.80611 87.010103,213.17873"
             id="path8119"
             sodipodi:nodetypes="cc" />
          <path
             style="fill:none;fill-opacity:1;stroke:#000000;stroke-width:0.8;stroke-linecap:round;stroke-dasharray:none"
             d="M 104.37452,214.90957 89.261621,207.40084"
             id="path8121"
             sodipodi:nodetypes="cc" />
          <path
             style="fill:none;fill-opacity:1;stroke:#000000;stroke-width:0.8;stroke-linecap:round;stroke-dasharray:none"
             d="M 104.37477,208.04616 92.965405,202.37751"
             id="path8123"
             sodipodi:nodetypes="cc" />
          <path
             style="fill:none;fill-opacity:1;stroke:#000000;stroke-width:0.8;stroke-linecap:round;stroke-dasharray:none"
             d="m 104.6,201.81703 -6.945467,-3.4508"
             id="path8125"
             sodipodi:nodetypes="cc" />
        </g>
        <g
           id="g8137"
           inkscape:transform-center-x="-8.5696788"
           inkscape:transform-center-y="20.967701"
           transform="matrix(-1,0,0,1,208.74946,0)">
          <path
             style="fill:none;fill-opacity:1;stroke:#000000;stroke-width:0.8;stroke-linecap:round;stroke-dasharray:none"
             d="M 104.37452,221.80611 87.010103,213.17873"
             id="path8129"
             sodipodi:nodetypes="cc" />
          <path
             style="fill:none;fill-opacity:1;stroke:#000000;stroke-width:0.8;stroke-linecap:round;stroke-dasharray:none"
             d="M 104.37452,214.90957 89.261621,207.40084"
             id="path8131"
             sodipodi:nodetypes="cc" />
          <path
             style="fill:none;fill-opacity:1;stroke:#000000;stroke-width:0.8;stroke-linecap:round;stroke-dasharray:none"
             d="M 104.37477,208.04616 92.965405,202.37751"
             id="path8133"
             sodipodi:nodetypes="cc" />
          <path
             style="fill:none;fill-opacity:1;stroke:#000000;stroke-width:0.8;stroke-linecap:round;stroke-dasharray:none"
             d="m 104.6,201.81703 -6.945467,-3.4508"
             id="path8135"
             sodipodi:nodetypes="cc" />
        </g>
      </g>
      <g
         id="g8221"
         transform="matrix(-1,0,0,1,38.425819,1.2584746)"
         inkscape:transform-center-x="-43.066823"
         inkscape:transform-center-y="-79.327608">
        <g
           id="g8193"
           transform="translate(-220.23521,-65.148036)">
          <path
             id="path8169"
             style="fill:#02a200;fill-opacity:1;stroke:#000000;stroke-width:0.499999;stroke-linecap:round;stroke-dasharray:none"
             d="m 104.37451,190.67157 c 0,0 -1.89403,3.64229 -4.08968,5.36866 -3.527591,2.77364 -6.148027,4.33405 -8.809277,7.55044 -3.401234,4.11076 -8.23454,13.08772 -1.652095,19.11305 7.209232,6.59908 14.551052,-0.89762 14.551052,-0.89762 0,0 7.34233,7.4967 14.55156,0.89762 6.58245,-6.02533 1.74915,-15.00229 -1.65209,-19.11305 -2.66125,-3.21639 -5.28169,-4.7768 -8.80928,-7.55044 -2.19565,-1.72637 -4.09019,-5.36866 -4.09019,-5.36866 z" />
          <path
             id="path8171"
             style="fill:#000000;fill-opacity:1;stroke:none;stroke-width:0.1;stroke-linecap:round;stroke-dasharray:none"
             d="m 104.37451,191.01108 -0.67411,1.09089 -0.78058,34.95549 h 2.9099 l -1.07674,-35.33091 -0.37796,-0.71547 z"
             sodipodi:nodetypes="ccccccc" />
          <g
             id="g8181">
            <path
               style="fill:none;fill-opacity:1;stroke:#000000;stroke-width:0.8;stroke-linecap:round;stroke-dasharray:none"
               d="M 104.37452,221.80611 87.010103,213.17873"
               id="path8173"
               sodipodi:nodetypes="cc" />
            <path
               style="fill:none;fill-opacity:1;stroke:#000000;stroke-width:0.8;stroke-linecap:round;stroke-dasharray:none"
               d="M 104.37452,214.90957 89.261621,207.40084"
               id="path8175"
               sodipodi:nodetypes="cc" />
            <path
               style="fill:none;fill-opacity:1;stroke:#000000;stroke-width:0.8;stroke-linecap:round;stroke-dasharray:none"
               d="M 104.37477,208.04616 92.965405,202.37751"
               id="path8177"
               sodipodi:nodetypes="cc" />
            <path
               style="fill:none;fill-opacity:1;stroke:#000000;stroke-width:0.8;stroke-linecap:round;stroke-dasharray:none"
               d="m 104.6,201.81703 -6.945467,-3.4508"
               id="path8179"
               sodipodi:nodetypes="cc" />
          </g>
          <g
             id="g8191"
             inkscape:transform-center-x="-8.5696788"
             inkscape:transform-center-y="20.967701"
             transform="matrix(-1,0,0,1,208.74946,0)">
            <path
               style="fill:none;fill-opacity:1;stroke:#000000;stroke-width:0.8;stroke-linecap:round;stroke-dasharray:none"
               d="M 104.37452,221.80611 87.010103,213.17873"
               id="path8183"
               sodipodi:nodetypes="cc" />
            <path
               style="fill:none;fill-opacity:1;stroke:#000000;stroke-width:0.8;stroke-linecap:round;stroke-dasharray:none"
               d="M 104.37452,214.90957 89.261621,207.40084"
               id="path8185"
               sodipodi:nodetypes="cc" />
            <path
               style="fill:none;fill-opacity:1;stroke:#000000;stroke-width:0.8;stroke-linecap:round;stroke-dasharray:none"
               d="M 104.37477,208.04616 92.965405,202.37751"
               id="path8187"
               sodipodi:nodetypes="cc" />
            <path
               style="fill:none;fill-opacity:1;stroke:#000000;stroke-width:0.8;stroke-linecap:round;stroke-dasharray:none"
               d="m 104.6,201.81703 -6.945467,-3.4508"
               id="path8189"
               sodipodi:nodetypes="cc" />
          </g>
        </g>
        <g
           id="g8219"
           transform="translate(-208.33025,-20.472188)">
          <path
             id="path8195"
             style="fill:#02a200;fill-opacity:1;stroke:#000000;stroke-width:0.499999;stroke-linecap:round;stroke-dasharray:none"
             d="m 104.37451,190.67157 c 0,0 -1.89403,3.64229 -4.08968,5.36866 -3.527591,2.77364 -6.148027,4.33405 -8.809277,7.55044 -3.401234,4.11076 -8.23454,13.08772 -1.652095,19.11305 7.209232,6.59908 14.551052,-0.89762 14.551052,-0.89762 0,0 7.34233,7.4967 14.55156,0.89762 6.58245,-6.02533 1.74915,-15.00229 -1.65209,-19.11305 -2.66125,-3.21639 -5.28169,-4.7768 -8.80928,-7.55044 -2.19565,-1.72637 -4.09019,-5.36866 -4.09019,-5.36866 z" />
          <path
             id="path8197"
             style="fill:#000000;fill-opacity:1;stroke:none;stroke-width:0.1;stroke-linecap:round;stroke-dasharray:none"
             d="m 104.37451,191.01108 -0.67411,1.09089 -0.78058,34.95549 h 2.9099 l -1.07674,-35.33091 -0.37796,-0.71547 z"
             sodipodi:nodetypes="ccccccc" />
          <g
             id="g8207">
            <path
               style="fill:none;fill-opacity:1;stroke:#000000;stroke-width:0.8;stroke-linecap:round;stroke-dasharray:none"
               d="M 104.37452,221.80611 87.010103,213.17873"
               id="path8199"
               sodipodi:nodetypes="cc" />
            <path
               style="fill:none;fill-opacity:1;stroke:#000000;stroke-width:0.8;stroke-linecap:round;stroke-dasharray:none"
               d="M 104.37452,214.90957 89.261621,207.40084"
               id="path8201"
               sodipodi:nodetypes="cc" />
            <path
               style="fill:none;fill-opacity:1;stroke:#000000;stroke-width:0.8;stroke-linecap:round;stroke-dasharray:none"
               d="M 104.37477,208.04616 92.965405,202.37751"
               id="path8203"
               sodipodi:nodetypes="cc" />
            <path
               style="fill:none;fill-opacity:1;stroke:#000000;stroke-width:0.8;stroke-linecap:round;stroke-dasharray:none"
               d="m 104.6,201.81703 -6.945467,-3.4508"
               id="path8205"
               sodipodi:nodetypes="cc" />
          </g>
          <g
             id="g8217"
             inkscape:transform-center-x="-8.5696788"
             inkscape:transform-center-y="20.967701"
             transform="matrix(-1,0,0,1,208.74946,0)">
            <path
               style="fill:none;fill-opacity:1;stroke:#000000;stroke-width:0.8;stroke-linecap:round;stroke-dasharray:none"
               d="M 104.37452,221.80611 87.010103,213.17873"
               id="path8209"
               sodipodi:nodetypes="cc" />
            <path
               style="fill:none;fill-opacity:1;stroke:#000000;stroke-width:0.8;stroke-linecap:round;stroke-dasharray:none"
               d="M 104.37452,214.90957 89.261621,207.40084"
               id="path8211"
               sodipodi:nodetypes="cc" />
            <path
               style="fill:none;fill-opacity:1;stroke:#000000;stroke-width:0.8;stroke-linecap:round;stroke-dasharray:none"
               d="M 104.37477,208.04616 92.965405,202.37751"
               id="path8213"
               sodipodi:nodetypes="cc" />
            <path
               style="fill:none;fill-opacity:1;stroke:#000000;stroke-width:0.8;stroke-linecap:round;stroke-dasharray:none"
               d="m 104.6,201.81703 -6.945467,-3.4508"
               id="path8215"
               sodipodi:nodetypes="cc" />
          </g>
        </g>
      </g>
      <g
         id="g8273"
         transform="translate(1.0001811,0.23864618)">
        <path
           id="path8249"
           style="fill:#02a200;fill-opacity:1;stroke:#000000;stroke-width:0.499999;stroke-linecap:round;stroke-dasharray:none"
           d="m 104.37451,190.67157 c 0,0 -1.89403,3.64229 -4.08968,5.36866 -3.527591,2.77364 -6.148027,4.33405 -8.809277,7.55044 -3.401234,4.11076 -8.23454,13.08772 -1.652095,19.11305 7.209232,6.59908 14.551052,-0.89762 14.551052,-0.89762 0,0 7.34233,7.4967 14.55156,0.89762 6.58245,-6.02533 1.74915,-15.00229 -1.65209,-19.11305 -2.66125,-3.21639 -5.28169,-4.7768 -8.80928,-7.55044 -2.19565,-1.72637 -4.09019,-5.36866 -4.09019,-5.36866 z" />
        <path
           id="path8251"
           style="fill:#000000;fill-opacity:1;stroke:none;stroke-width:0.1;stroke-linecap:round;stroke-dasharray:none"
           d="m 104.37451,191.01108 -0.67411,1.09089 -0.78058,34.95549 h 2.9099 l -1.07674,-35.33091 -0.37796,-0.71547 z"
           sodipodi:nodetypes="ccccccc" />
        <g
           id="g8261">
          <path
             style="fill:none;fill-opacity:1;stroke:#000000;stroke-width:0.8;stroke-linecap:round;stroke-dasharray:none"
             d="M 104.37452,221.80611 87.010103,213.17873"
             id="path8253"
             sodipodi:nodetypes="cc" />
          <path
             style="fill:none;fill-opacity:1;stroke:#000000;stroke-width:0.8;stroke-linecap:round;stroke-dasharray:none"
             d="M 104.37452,214.90957 89.261621,207.40084"
             id="path8255"
             sodipodi:nodetypes="cc" />
          <path
             style="fill:none;fill-opacity:1;stroke:#000000;stroke-width:0.8;stroke-linecap:round;stroke-dasharray:none"
             d="M 104.37477,208.04616 92.965405,202.37751"
             id="path8257"
             sodipodi:nodetypes="cc" />
          <path
             style="fill:none;fill-opacity:1;stroke:#000000;stroke-width:0.8;stroke-linecap:round;stroke-dasharray:none"
             d="m 104.6,201.81703 -6.945467,-3.4508"
             id="path8259"
             sodipodi:nodetypes="cc" />
        </g>
        <g
           id="g8271"
           inkscape:transform-center-x="-8.5696788"
           inkscape:transform-center-y="20.967701"
           transform="matrix(-1,0,0,1,208.74946,0)">
          <path
             style="fill:none;fill-opacity:1;stroke:#000000;stroke-width:0.8;stroke-linecap:round;stroke-dasharray:none"
             d="M 104.37452,221.80611 87.010103,213.17873"
             id="path8263"
             sodipodi:nodetypes="cc" />
          <path
             style="fill:none;fill-opacity:1;stroke:#000000;stroke-width:0.8;stroke-linecap:round;stroke-dasharray:none"
             d="M 104.37452,214.90957 89.261621,207.40084"
             id="path8265"
             sodipodi:nodetypes="cc" />
          <path
             style="fill:none;fill-opacity:1;stroke:#000000;stroke-width:0.8;stroke-linecap:round;stroke-dasharray:none"
             d="M 104.37477,208.04616 92.965405,202.37751"
             id="path8267"
             sodipodi:nodetypes="cc" />
          <path
             style="fill:none;fill-opacity:1;stroke:#000000;stroke-width:0.8;stroke-linecap:round;stroke-dasharray:none"
             d="m 104.6,201.81703 -6.945467,-3.4508"
             id="path8269"
             sodipodi:nodetypes="cc" />
        </g>
      </g>
    </g>
  </g>
</svg>
