<?xml version="1.0" encoding="UTF-8" standalone="no"?>
<!-- Created with Inkscape (http://www.inkscape.org/) -->

<svg
   width="136.54964mm"
   height="152.47786mm"
   viewBox="0 0 136.54964 152.47786"
   version="1.1"
   id="svg3750"
   inkscape:version="1.2.2 (732a01da63, 2022-12-09)"
   sodipodi:docname="Wappen Mühlenrade2.svg"
   xmlns:inkscape="http://www.inkscape.org/namespaces/inkscape"
   xmlns:sodipodi="http://sodipodi.sourceforge.net/DTD/sodipodi-0.dtd"
   xmlns="http://www.w3.org/2000/svg"
   xmlns:svg="http://www.w3.org/2000/svg">
  <sodipodi:namedview
     id="namedview3752"
     pagecolor="#ffffff"
     bordercolor="#666666"
     borderopacity="1.0"
     inkscape:showpageshadow="2"
     inkscape:pageopacity="0.0"
     inkscape:pagecheckerboard="0"
     inkscape:deskcolor="#d1d1d1"
     inkscape:document-units="mm"
     showgrid="false"
     inkscape:zoom="0.92883074"
     inkscape:cx="258.38938"
     inkscape:cy="289.07312"
     inkscape:current-layer="layer1" />
  <defs
     id="defs3747" />
  <g
     inkscape:label="Ebene 1"
     inkscape:groupmode="layer"
     id="layer1"
     transform="translate(-532.01756,-81.070389)">
    <g
       id="g3680"
       transform="translate(491.38817,4.42408)">
      <path
         id="path1789"
         style="fill:#009f01;fill-opacity:1;stroke:none;stroke-width:1.5;stroke-linecap:round;stroke-dasharray:none"
         d="m 41.379386,77.396309 v 82.902431 a 67.524918,68.0755 0 0 0 67.524564,68.07543 67.524918,68.0755 0 0 0 67.52507,-68.07543 V 77.396309 Z" />
      <path
         id="path2862"
         style="fill:#0046ff;fill-opacity:1;stroke:#000000;stroke-width:1.1;stroke-linecap:round;stroke-dasharray:none"
         d="m 41.379386,83.415063 v 76.883677 a 67.524918,68.0755 0 0 0 67.524564,68.07543 67.524918,68.0755 0 0 0 63.82659,-45.96257 l -22.564,-5.10408 -32.4807,-22.91384 -14.01517,-20.6897 L 73.637366,100.1112 49.610409,84.093058 Z" />
      <path
         id="path845"
         style="fill:#ffffff;fill-opacity:1;stroke:#000000;stroke-width:1.1;stroke-dasharray:none"
         d="m 41.379386,77.396309 v 9.708452 c 8.753314,2.589196 18.723291,6.600909 32.379936,19.711979 21.228852,20.38076 29.301298,40.3122 49.749938,58.7809 20.52475,18.53747 35.20051,19.83644 47.69063,20.94601 a 67.524918,68.0755 0 0 0 2.84375,-8.49457 c -11.4474,-1.24859 -24.91585,-4.28154 -42.84958,-20.47885 C 110.74542,139.10154 103.74712,120.53392 82.333993,100.34685 64.791779,83.809064 53.126071,80.663739 42.577246,77.396309 Z" />
      <path
         id="path3557"
         style="fill:none;fill-opacity:1;stroke:#000000;stroke-width:1.5;stroke-linecap:round;stroke-dasharray:none"
         d="m 41.379386,77.396309 v 82.902431 a 67.524918,68.0755 0 0 0 67.524564,68.07543 67.524918,68.0755 0 0 0 67.52507,-68.07543 V 77.396309 Z" />
      <g
         id="g1291"
         transform="translate(4.5889595,0.67396127)">
        <path
           style="fill:#ffffff;stroke:none;stroke-width:0.1;stroke-linecap:round;stroke-dasharray:none"
           d="m 80.756238,187.87505 2.252498,-1.55728 3.281418,-1.00111 2.64182,-0.80645 4.310335,0.47274 2.19688,0.86207 2.697438,-1.36262 2.308113,0.38932 1.05673,0.0834 2.00222,-1.00111 2.39154,-0.9733 6.7575,2.83648 -1.55728,4.33817 1.27919,1.19577 0.66741,1.02892 2.22469,1.25139 2.36373,1.72413 4.505,-0.50055 3.78197,-2.16908 2.08565,-3.08675 0.16685,-2.14127 -0.75083,-1.08453 2.19688,-2.5584 2.44716,2.50278 c 0,0 0.47274,2.05784 0.52836,2.22469 0.0556,0.16685 2.86429,2.28031 2.86429,2.28031 l 3.2258,1.6129 1.14015,3.67073 -0.52836,2.97553 -1.97441,2.50277 -0.44494,-1.50166 -2.55839,-2.41935 -3.50389,0.16685 c 0,0 -2.78086,1.00111 -2.8921,1.02892 -0.11123,0.0278 -3.47608,2.75305 -3.5595,2.89209 -0.0834,0.13905 -3.61512,3.14238 -3.61512,3.14238 l -4.47719,3.8654 -2.50278,1.86317 -2.75305,1.05673 -4.44938,0.38932 -3.69855,-0.36151 -4.449376,-0.86207 -3.03114,-0.16685 -3.2258,-2.05784 -2.474968,-1.6129 -1.223579,-2.69743 -1.390431,-0.47275 -0.08343,-1.75194 -2.252498,-0.47275 -1.473857,-1.36262 -2.391542,-0.61179 -2.002221,-1.86318 v -1.72413 l 3.281418,0.47274 -0.111235,-3.39265 1.22358,0.0278 -0.945493,-3.30923 z"
           id="path1173" />
        <path
           style="fill:#000000;stroke:none;stroke-width:0.1;stroke-linecap:round;stroke-dasharray:none"
           d="m 82.744703,186.98179 -0.01966,-0.84554 c 0,0 2.536613,-0.84553 3.126523,-1.14049 0.589909,-0.29495 1.45511,-0.74722 1.612421,-0.74722 0.157308,0 0.176972,-0.33428 0.176972,-0.33428 l 3.480469,-0.0983 0.176972,-0.0787 c 0,0 1.730404,0.49159 2.202331,0.70789 0.471929,0.2163 0.825873,0.45226 1.140491,0.49159 0.314619,0.0393 1.356794,-1.33713 3.401814,-1.27814 2.045024,0.059 3.873744,1.12083 3.873744,1.12083 l 0.53092,0.0393 -0.0197,0.62923 c 0,0 -0.14789,-0.006 -0.39817,-0.006 -0.25027,0 -0.58398,0.23637 -1.16796,0.16685 -0.58398,-0.0695 -0.977397,-0.40586 -1.501663,-0.3198 -0.931589,0.15293 -1.585091,0.37542 -2.085647,0.52837 -0.35903,0.1097 -1.140153,0.13901 -1.140153,0.13901 0,0 0.500555,0.90378 0.639598,1.08453 0.139043,0.18076 0.361512,0.25028 0.486651,0.27809 0.125139,0.0278 0.319799,-0.13904 0.500555,0.3198 0.180756,0.45884 0.403225,0.37541 0.278087,0.68131 -0.125139,0.30589 -0.403226,0.90378 -0.41713,1.19577 -0.0139,0.29199 -0.04171,0.93159 -0.04171,0.93159 0,0 -1.763672,-1.00204 -2.308115,-1.75194 -0.736929,-1.01502 -0.834259,-1.73804 -1.237484,-2.01613 -0.403225,-0.27809 -2.820437,-1.97659 -4.74137,-1.87708 -2.297191,0.119 -3.809781,1.72413 -3.809781,1.72413 0,0 -0.723025,-0.13904 -1.362623,0.0695 -0.639598,0.20857 -1.376379,0.38594 -1.376379,0.38594 z"
           id="path973"
           sodipodi:nodetypes="ccsscccssscccsssscssssscssscscc" />
        <path
           style="fill:#000000;stroke:none;stroke-width:0.1;stroke-linecap:round;stroke-dasharray:none"
           d="m 93.256213,190.35002 c 0,0 0.02781,-1.37653 -0.403225,-1.97441 -0.431033,-0.59789 -0.820354,-1.02892 -0.820354,-1.02892 l -2.54449,-0.12514 c 0,0 -0.77864,0.31979 -0.77864,0.45884 0,0.13904 -0.222469,1.43214 -0.12514,1.75194 0.09733,0.3198 0.653503,1.11235 0.653503,1.11235 l -0.556173,0.0417 c 0,0 -0.208565,1.84927 0.736929,2.46107 0.861319,0.55733 2.975524,1.59899 2.975524,1.59899 0,0 1.167961,-0.22247 1.974411,-0.83426 0.80645,-0.61179 1.223579,-0.9594 1.223579,-0.9594 0,0 0.139044,-0.45884 0,-0.88987 -0.139041,-0.43104 -0.472747,-0.97331 -0.472747,-0.97331 0,0 -0.931587,1.36263 -2.349828,1.09845 -1.418238,-0.26419 -2.085647,-0.61179 -2.335924,-1.16797 -0.250278,-0.55617 -0.125138,-0.70912 -0.125138,-0.70912 l 0.431033,-0.20856 -0.02781,-0.43103 c 0,0 -0.291991,0.0695 -0.444939,0.13904 -0.152948,0.0695 -0.291989,0.13904 -0.291989,0.13904 0,0 -0.222469,-0.93159 0.77864,-1.05673 1.001112,-0.12514 2.502776,1.55729 2.502776,1.55729 z"
           id="path1071"
           sodipodi:nodetypes="csccssccscscscsscccscscc" />
        <path
           style="fill:#000000;stroke:none;stroke-width:0.1;stroke-linecap:round;stroke-dasharray:none"
           d="m 109.28082,188.84001 -3.13636,-2.07452 c 0,0 -0.34411,-0.0787 -0.62923,-0.0885 -0.28513,-0.01 -0.34412,-0.1868 -0.56042,0.16715 -0.2163,0.35394 -0.38344,0.81604 -0.12781,1.04217 0.25563,0.22613 2.36947,1.68124 2.36947,1.68124 0,0 0.63907,0.28513 0.8652,0.22614 0.22613,-0.059 1.21915,-0.95369 1.21915,-0.95369 z"
           id="path1073" />
        <path
           style="fill:#000000;stroke:none;stroke-width:0.1;stroke-linecap:round;stroke-dasharray:none"
           d="m 106.30177,181.99705 c -0.41293,-0.14747 -1.36662,-0.58991 -1.61242,-0.49159 -0.24579,0.0983 -0.68823,0.0688 -0.68823,0.37361 0,0.30479 0.29496,0.94386 0.22614,1.06184 -0.0688,0.11798 -1.73041,0.58991 -1.1405,1.43545 0.58991,0.84553 0.79638,0.92419 1.61242,0.4326 0.81605,-0.49159 0.8947,-0.73739 1.34697,-0.69807 0.45226,0.0393 4.91591,2.08436 4.91591,2.08436 l -1.37645,5.21087 c 0,0 0.60957,-0.51126 1.43544,-0.35395 0.82588,0.15731 0.96352,0.45227 1.25848,0.8652 0.29495,0.41294 0.55058,0.94386 0.55058,0.94386 0,0 1.13066,0.19663 1.64192,0.67839 0.51125,0.48176 1.62225,1.84839 2.68409,2.10402 1.06183,0.25562 2.71016,0.67445 5.07322,-0.14748 2.71359,-0.94385 4.10971,-1.98603 5.15188,-3.65744 1.04218,-1.67141 2.28099,-2.18267 1.55344,-4.64063 -0.56178,-1.8979 -2.50728,-2.54673 -2.84251,-1.72511 -0.45547,1.11629 0.8125,1.12008 0.84031,1.8459 0.0383,1.00076 0.12513,5.1724 -3.87931,6.42379 -4.00444,1.25139 -5.56172,0.91768 -5.56172,0.91768 0,0 -0.27809,-1.05672 -1.72414,-1.64071 -1.44605,-0.58398 -3.62327,-1.00867 -3.47607,-3.5595 0.12693,-2.19955 2.76088,-3.34355 2.76088,-3.34355 l -0.29495,-1.33713 c 0,0 -1.67141,0.25563 -2.30065,-0.0393 -0.62924,-0.29495 -0.70789,-0.58991 -1.25847,-0.74722 -0.55059,-0.15731 -2.45796,-0.80621 -2.98888,-0.98318 -0.53092,-0.17697 -1.04218,-0.45226 -1.16016,-0.53092 -0.11798,-0.0787 -0.74722,-0.48176 -0.74722,-0.48176 z"
           id="path1084"
           sodipodi:nodetypes="sssssssccsscsssssssscssccsssscs" />
        <path
           style="fill:#000000;stroke:none;stroke-width:0.1;stroke-linecap:round;stroke-dasharray:none"
           d="m 79.745992,188.37791 c -0.09832,-0.01 -0.8652,-0.0983 -0.8652,-0.0983 0,0 -0.294955,0.39328 -0.471927,0.45227 -0.176974,0.059 -0.501425,-0.0688 -0.560414,-0.26546 -0.05899,-0.19664 -0.03933,-0.31462 -0.03933,-0.37361 0,-0.059 0.344115,-0.35395 0.540751,-0.4621 0.196635,-0.10815 0.629237,-0.29495 0.69806,-0.31462 0.06882,-0.0197 0.304787,-0.53091 0.491591,-0.57024 0.186806,-0.0393 0.884864,0.0492 1.081503,0.0983 0.196635,0.0491 0.393271,0.0197 0.403103,0.0688 0.0098,0.0492 0.334283,0.39327 0.393274,0.47193 0.05899,0.0787 0.910021,1.11584 1.563523,2.88169 0.653503,1.76585 0.862066,2.44716 0.862066,2.44716 l -0.222467,1.15406 -0.750835,0.0695 0.139044,3.18409 c 0,0 -0.834258,0.31979 -1.696326,0.30589 -0.862068,-0.0139 -1.793655,-0.0417 -1.793655,-0.0417 0,0 0.361511,0.62569 1.890985,1.48776 1.529474,0.86207 2.155169,0.80645 2.461064,0.77864 0.305896,-0.0278 1.390431,-0.13904 1.390431,-0.13904 l 0.06952,0.6396 c 0,0 -1.140154,0.12514 -1.12625,0.3337 0.01389,0.20856 1.974411,1.05673 2.099551,1.07063 0.125137,0.0139 1.320909,-0.30589 1.863177,-0.20856 0.542269,0.0973 1.682422,-0.0139 2.335925,0.0695 0.653502,0.0834 0.723024,0.12514 1.056727,0 0.333703,-0.12514 0.848164,-0.70912 1.223579,-1.05673 0.375417,-0.34761 1.237485,-0.83426 1.237485,-0.83426 l 0.45884,-0.59788 -1.015013,0.11123 0.291989,-0.61179 0.805799,-0.081 0.825873,-1.66158 0.825873,0.17697 -0.06882,0.68823 c 0,0 0.511254,0.13765 0.599741,0.33428 0.08849,0.19664 0.265459,0.57025 0.265459,0.57025 0,0 -0.37361,0.19664 -0.481761,0.20647 -0.108148,0.01 -0.462095,0.0393 -0.462095,0.0393 l -0.639069,1.47478 c 0,0 -0.471929,0.32445 -0.953688,0.50142 -0.481761,0.17698 -1.238811,0.13765 -1.238811,0.13765 l 0.05899,0.78655 c 0,0 -1.268307,0.94385 -1.946704,0.92419 -0.678397,-0.0197 -4.178527,0.0492 -4.306342,0.0492 -0.127815,0 -1.711093,0.13749 -2.350056,-0.11441 -1.446048,-0.57008 -1.890988,-1.68242 -1.890988,-1.68242 l -2.488871,-0.25028 c 0,0 -1.733471,-1.44442 -2.16907,-2.30811 -0.806451,-1.599 0.611788,-3.18409 0.611788,-3.18409 0,0 1.056727,0.83426 1.571188,0.82035 0.514459,-0.0139 1.320909,-0.20856 1.320909,-0.20856 l -0.125138,-1.2792 -0.486653,-1.04282 c 0,0 -0.820354,-0.11123 -1.209675,-0.51446 -0.389319,-0.40322 -0.68131,-1.01502 -0.68131,-1.01502 0,0 -0.959398,-0.12513 -1.070631,-0.38932 -0.111237,-0.26418 0.09733,-0.75083 0.333703,-1.07063 0.236373,-0.3198 0.80645,-1.01501 0.80645,-1.01501 0,0 0.04171,0.63959 0.458843,0.86206 0.417129,0.22247 1.501664,0.59789 1.793655,1.01502 0.291989,0.41713 0.597884,1.2792 0.889876,1.25139 0.291991,-0.0278 -0.375417,-1.87708 -0.848164,-2.32202 -0.472747,-0.44494 -1.084535,-0.79255 -1.376527,-1.04283 -0.291989,-0.25027 -0.384551,-0.70681 -0.384551,-0.70681 z"
           id="path1106"
           sodipodi:nodetypes="scssssssscssccccscssccssssssccccccccsccccsccsssccscscccscsscssssscs" />
        <path
           style="fill:#000000;stroke:none;stroke-width:0.1;stroke-linecap:round;stroke-dasharray:none"
           d="m 86.790709,205.1303 -1.070631,-2.15517 c 0,0 0.472747,-0.19466 1.585089,-0.0695 1.112346,0.12514 1.515571,-0.0834 2.002221,1.11234 0.486651,1.19578 0.750835,2.46107 1.02892,2.71135 0.278085,0.25027 1.473856,0.82035 2.822575,1.6129 1.348719,0.79254 2.071743,1.47385 2.071743,1.47385 l 0.08343,-0.91768 c 0,0 -1.724136,-1.30701 -2.461064,-2.2525 -0.736928,-0.94549 -1.00111,-1.55728 -0.597885,-2.00222 0.403225,-0.44494 0.931588,-0.45884 1.765848,-0.15295 0.834258,0.3059 1.307005,0.59789 1.307005,0.59789 l 0.278085,-0.0834 c 0,0 0.570079,1.01502 0.792546,1.75194 0.222469,0.73693 0.319799,1.79366 0.417129,2.05784 0.09733,0.26418 0.05562,0.54227 0.264183,0.54227 0.208564,0 0.917684,-0.3059 1.654612,-0.45884 0.736928,-0.15295 1.835365,-0.18076 1.835365,-0.18076 0,0 -0.48665,-1.33481 -3.281413,-2.9199 -2.794765,-1.5851 -3.879303,-1.94661 -3.990536,-2.04394 -0.111236,-0.0973 -0.231573,-0.48584 -0.04171,-0.79254 0.180756,-0.29199 3.225801,-0.72303 5.520012,1.26529 2.036257,1.76476 2.641827,2.22468 2.766957,3.04504 0.14522,0.95201 0.0278,1.39043 0.0278,1.39043 0,0 0.40323,-0.11123 0.58398,0.12514 0.18076,0.23638 0.50056,0.87597 0.6257,0.83426 0.12513,-0.0417 -0.26419,-2.32202 -0.26419,-2.32202 0,0 -0.73692,-0.40327 -0.88987,-0.88992 -0.15295,-0.48665 -0.3059,-1.20968 -0.0695,-1.2792 0.23637,-0.0695 0.70912,0.25028 1.05673,0.52837 0.3476,0.27808 0.82035,0.43103 0.82035,0.43103 0,0 0.91768,2.08565 0.80645,2.48887 -0.11123,0.40323 -0.47275,0.98721 -0.47275,0.98721 l 0.0278,1.75194 c 0,0 0.29199,0.26418 0.70912,0.26418 0.41713,0 1.11235,-0.18075 1.40434,-0.16685 0.29199,0.0139 1.12625,0.20856 1.307,0.22247 0.18076,0.0139 0.91769,-0.20857 1.9327,-0.37542 1.01502,-0.16685 2.14127,-0.26418 2.14127,-0.26418 0,0 0.12513,-0.0695 0.79254,-0.44494 0.66741,-0.37541 4.21301,-2.43325 7.21634,-5.13069 3.00333,-2.69743 6.06228,-5.42268 8.12012,-6.7853 1.19358,-0.79034 4.94993,-2.44716 7.31366,-1.11235 1.8631,1.05211 2.30812,2.86429 2.30812,2.86429 l -1.89099,0.0556 c 0,0 -0.0834,-2.30812 -1.75194,-2.2525 -1.66852,0.0556 -3.5595,-0.22247 -7.48052,2.83648 -3.92101,3.05895 -9.6774,8.50944 -10.37261,9.06561 -0.69522,0.55617 -3.48481,2.65473 -4.56062,2.64182 -1.39477,-0.0167 -4.28253,-0.38932 -4.94993,-0.38932 -0.66741,0 -1.14016,-0.13904 -1.52948,-0.13904 -0.38932,0 -2.86429,0.27808 -2.86429,0.27808 l -0.3476,0.6257 -0.43104,-0.15295 c 0,0 -0.61179,0.12514 -0.83426,0.0417 -0.222465,-0.0834 -0.597881,-0.43103 -0.597881,-0.43103 0,0 -0.917685,-0.43104 -1.640709,-0.58398 -0.723024,-0.15295 -1.446048,-0.15295 -1.71023,-0.27809 -0.264182,-0.12514 -1.918795,-1.40433 -3.045044,-2.03003 -1.12625,-0.62569 -1.751944,-1.04282 -2.057839,-1.18187 -0.305894,-0.13904 -1.849273,-0.47274 -2.405445,-1.48776 -0.556173,-1.01501 -0.750833,-2.56534 -1.140154,-2.43325 -0.389321,0.13209 -0.639599,0.55617 -0.639599,0.55617 z"
           id="path1119"
           sodipodi:nodetypes="ccssssccsssccsssscssssscsscssscsccsssscssssccsssssscccscsssssscc" />
        <path
           style="fill:#000000;stroke:none;stroke-width:0.1;stroke-linecap:round;stroke-dasharray:none"
           d="m 132.01448,183.71071 c 0.60959,0.92919 1.18882,3.59426 1.23053,3.94187 0.0417,0.34761 0.0834,0.61179 0.0834,0.61179 0,0 1.26529,1.14015 2.61401,1.79366 1.34872,0.6535 2.6001,0.80645 2.87819,1.23748 0.27809,0.43103 2.08918,3.94502 1.73524,6.26533 -0.35395,2.32031 -1.14049,2.71359 -1.75007,3.44114 -0.60957,0.72756 -0.84554,1.06184 -0.84554,1.06184 0,0 -0.0983,1.69108 -1.9467,1.51411 -1.84838,-0.17698 -2.61527,-0.25563 -2.61527,-1.17983 0,-0.92419 1.02251,-1.5141 1.33713,-1.53376 0.31462,-0.0197 1.94671,0.13764 2.55628,-0.29496 0.60957,-0.4326 2.57594,-2.26132 1.78939,-4.95524 -0.78654,-2.69392 -1.39612,-3.36249 -3.81475,-4.1097 -2.41863,-0.74723 -2.3793,-1.16016 -2.94955,-2.10402 -0.57024,-0.94386 -1.10116,-1.84838 -1.19948,-2.26132 -0.0983,-0.41294 -0.15731,-0.96352 -0.37361,-1.23881 -0.2163,-0.27529 -1.20245,-0.87771 -1.75007,-1.47478 -0.36278,-0.39553 -0.68362,-1.12435 -0.41512,-1.45193 1.03551,-1.26336 2.96348,0.0169 3.43599,0.73713 z"
           id="path1145"
           sodipodi:nodetypes="sscsssscssssssssssss" />
      </g>
      <g
         id="g1248"
         transform="rotate(45,247.87724,-120.63169)">
        <path
           id="path1476"
           style="fill:#000000;stroke:#000000;stroke-width:2.1;stroke-linecap:round;stroke-dasharray:none"
           d="m 315.7983,174.45602 a 22.495234,22.495234 0 0 0 -22.49527,22.49527 22.495234,22.495234 0 0 0 22.49527,22.49526 22.495234,22.495234 0 0 0 22.49526,-22.49526 22.495234,22.495234 0 0 0 -22.49526,-22.49527 z m 0,4.24728 a 18.247881,18.247881 0 0 1 18.24798,18.24799 18.247881,18.247881 0 0 1 -18.24798,18.24798 18.247881,18.247881 0 0 1 -18.24747,-18.24798 18.247881,18.247881 0 0 1 18.24747,-18.24799 z" />
        <path
           id="path1345"
           style="fill:#ffffff;stroke:none;stroke-width:0.0999996;stroke-linecap:round;stroke-dasharray:none"
           d="m 315.7983,174.45602 a 22.495234,22.495234 0 0 0 -22.49527,22.49527 22.495234,22.495234 0 0 0 22.49527,22.49526 22.495234,22.495234 0 0 0 22.49526,-22.49526 22.495234,22.495234 0 0 0 -22.49526,-22.49527 z m 0,4.24728 a 18.247881,18.247881 0 0 1 18.24798,18.24799 18.247881,18.247881 0 0 1 -18.24798,18.24798 18.247881,18.247881 0 0 1 -18.24747,-18.24798 18.247881,18.247881 0 0 1 18.24747,-18.24799 z" />
        <g
           id="g1544"
           transform="rotate(-90,357.68522,215.29279)"
           style="fill:#ffffff">
          <rect
             style="fill:#ffffff;stroke:none;stroke-width:2.1;stroke-linecap:round;stroke-dasharray:none"
             id="rect1540"
             width="3.7825513"
             height="40.715145"
             x="370.13892"
             y="153.04845" />
          <rect
             style="fill:#ffffff;stroke:none;stroke-width:2.1;stroke-linecap:round;stroke-dasharray:none"
             id="rect1542"
             width="3.7825513"
             height="40.715145"
             x="378.13205"
             y="153.04845" />
        </g>
        <g
           id="g983"
           transform="rotate(-90,315.79845,196.95126)">
          <rect
             style="fill:#000000;stroke-width:2.1;stroke-linecap:round"
             id="rect979"
             width="1.1885437"
             height="42.491879"
             x="311.20764"
             y="175.70532" />
          <rect
             style="fill:#000000;stroke-width:2.1;stroke-linecap:round"
             id="rect981"
             width="1.1885437"
             height="42.491879"
             x="-320.38925"
             y="175.70532"
             inkscape:transform-center-x="-3.9965307"
             inkscape:transform-center-y="12.152145"
             transform="scale(-1,1)" />
        </g>
        <g
           id="g1090">
          <rect
             style="fill:#ffffff;stroke:none;stroke-width:2.1;stroke-linecap:round;stroke-dasharray:none"
             id="rect1534"
             width="3.7825513"
             height="40.715145"
             x="317.90375"
             y="176.59369" />
          <g
             id="g1082">
            <rect
               style="fill:#ffffff;stroke:none;stroke-width:2.1;stroke-linecap:round;stroke-dasharray:none"
               id="rect1532"
               width="3.7825513"
               height="40.715145"
               x="309.91061"
               y="176.59369" />
            <g
               id="g977">
              <rect
                 style="fill:#000000;stroke-width:2.1;stroke-linecap:round"
                 id="rect915"
                 width="1.1885437"
                 height="42.491879"
                 x="311.20764"
                 y="175.70532" />
              <rect
                 style="fill:#000000;stroke-width:2.1;stroke-linecap:round"
                 id="rect973"
                 width="1.1885437"
                 height="42.491879"
                 x="-320.38925"
                 y="175.70532"
                 inkscape:transform-center-x="-3.9965307"
                 inkscape:transform-center-y="12.152145"
                 transform="scale(-1,1)" />
            </g>
          </g>
        </g>
        <circle
           style="fill:#000000;stroke:none;stroke-width:0.1;stroke-linecap:round;stroke-dasharray:none"
           id="path1178"
           cx="315.79846"
           cy="196.95126"
           r="2.0910251" />
      </g>
      <g
         id="g1735"
         transform="translate(-0.62924106,-3.1461866)">
        <path
           style="fill:#ffffff;stroke:#000000;stroke-width:0.9;stroke-linecap:round;stroke-dasharray:none"
           d="m 130.84203,121.71809 c 0.0129,-2.07671 -3.23379,-2.82791 -5.30919,-2.75292 -1.88598,0.0682 -5.00714,0.94656 -4.91592,2.83157 0.0927,1.91496 3.19538,2.64651 5.11255,2.63493 1.92932,-0.0117 5.1006,-0.78426 5.11256,-2.71358 z"
           id="path1338"
           sodipodi:nodetypes="sssss" />
        <path
           style="fill:#ffffff;stroke:#000000;stroke-width:0.899999;stroke-linecap:round;stroke-dasharray:none"
           d="m 113.71421,121.11902 c -4.88761,-0.01 -8.2083,-2.70991 -7.45747,-4.85117 0.75084,-2.14126 2.17822,-3.3296 7.73081,-2.08565 1.36164,0.30505 2.4948,0.6265 3.48708,0.83276 3.95487,0.82209 5.09759,1.39335 4.85436,2.65483 -0.41276,2.14076 -4.2124,3.45813 -8.61478,3.44923 z"
           id="path1490"
           sodipodi:nodetypes="ssssss" />
        <path
           style="fill:#ffffff;stroke:#000000;stroke-width:0.899999;stroke-linecap:round;stroke-dasharray:none"
           d="m 128.44803,115.96195 c -1.5851,-0.86206 -5.08898,-2.00222 -5.39488,-0.11123 -0.30589,1.89099 2.07541,2.5838 2.94772,2.75305 1.86318,0.36152 4.47718,1.83537 4.94993,0.38932 0.47275,-1.44605 -1.02892,-2.05783 -1.36262,-2.33592 -0.3337,-0.27809 -1.14015,-0.69522 -1.14015,-0.69522 z"
           id="path1492"
           sodipodi:nodetypes="cssssc" />
        <path
           style="fill:#ffffff;stroke:#000000;stroke-width:0.899999;stroke-linecap:round;stroke-dasharray:none"
           d="m 109.37131,109.6494 c -0.002,-3.17621 5.25039,-4.51039 8.42601,-4.44938 3.14746,0.0605 8.07008,1.58067 7.98108,4.72746 -0.0866,3.0623 -4.94547,4.16939 -8.00889,4.14349 -3.16357,-0.0267 -8.39627,-1.25789 -8.3982,-4.42157 z"
           id="path1494"
           sodipodi:nodetypes="sssss" />
        <path
           style="fill:#ffffff;stroke:#000000;stroke-width:0.899999;stroke-linecap:round;stroke-dasharray:none"
           d="m 117.99198,99.971996 c -3.83759,-0.111233 -8.34258,-0.667406 -8.23135,2.196884 0.11124,2.86429 2.78086,2.66962 7.03558,2.39154 4.25472,-0.27809 7.7308,-0.44494 7.64737,-2.33593 -0.0834,-1.89098 -2.47496,-1.86317 -2.75305,-1.91879 -0.27809,-0.0556 -3.69855,-0.333704 -3.69855,-0.333704 z"
           id="path1532" />
        <path
           style="fill:#ffffff;stroke:#000000;stroke-width:0.899999;stroke-linecap:round;stroke-dasharray:none"
           d="m 127.30257,107.99285 c 0,0 3.93273,-2.3793 3.87374,-3.24451 -0.059,-0.8652 -2.08435,-1.19948 -4.385,-1.17981 -2.30065,0.0196 -3.57878,0.37361 -3.59845,1.27813 -0.0197,0.90453 0.37361,1.67141 1.51411,2.20233 1.14049,0.53092 2.5956,0.94386 2.5956,0.94386 z"
           id="path1534" />
        <path
           style="fill:#ffffff;stroke:#000000;stroke-width:0.899999;stroke-linecap:round;stroke-dasharray:none"
           d="m 132.59209,99.537474 c -1.69107,-0.03933 -3.91306,-0.353947 -4.9749,-0.37361 -1.06184,-0.01966 -2.20233,-0.255628 -2.69392,0.255627 -0.4916,0.511257 -0.15732,2.182669 0.39327,2.516949 0.55058,0.33428 4.07038,1.45511 4.66029,1.59276 0.58991,0.13764 2.02535,0.2163 2.47762,0.25562 0.45226,0.0393 1.67141,-0.27529 1.92704,-0.35394 0.25563,-0.0786 0.8652,-0.51126 1.88771,-0.82587 1.02251,-0.31462 1.84838,-0.15732 2.00569,-0.33429 0.15731,-0.17697 0.25563,-1.14049 0.059,-1.7304 -0.19664,-0.589911 -0.31462,-1.356793 -0.78655,-1.356793 -0.47193,0 -2.06469,0 -3.14619,0.2163 -1.0815,0.216302 -1.80906,0.137647 -1.80906,0.137647 z"
           id="path1536" />
        <path
           style="fill:#ffffff;stroke:#000000;stroke-width:0.899999;stroke-linecap:round;stroke-dasharray:none"
           d="m 133.39796,115.12769 -5.1724,-5.20021 c 0,0 -1.36263,-0.3337 -2.14127,1.58509 -0.77864,1.9188 0.0278,3.25361 0.0278,3.25361 l 4.53281,2.41935 c 0,0 1.36262,-0.38932 1.69632,-0.75083 0.33371,-0.36151 1.05673,-1.30701 1.05673,-1.30701 z"
           id="path1577" />
        <path
           style="fill:#ffffff;stroke:#000000;stroke-width:0.899999;stroke-linecap:round;stroke-dasharray:none"
           d="m 128.19775,109.81625 v -1.08454 c 0,0 2.66963,0.16685 3.61512,0.86207 0.94549,0.69521 3.47608,4.58842 3.47608,4.58842 0,0 -1.19577,1.16796 -1.44605,1.05673 -0.25028,-0.11124 -5.64515,-5.42268 -5.64515,-5.42268 z"
           id="path1579" />
        <path
           style="fill:#ffffff;stroke:#000000;stroke-width:0.899999;stroke-linecap:round;stroke-dasharray:none"
           d="m 135.37237,114.09878 2.5862,-1.02892 -1.66851,-5.72858 c 0,0 -1.08454,-2.50278 -1.83537,-2.64182 -0.75084,-0.13904 -3.69855,1.30701 -3.69855,2.03003 0,0.72303 1.94661,3.89321 1.94661,3.89321 z"
           id="path1581" />
        <path
           style="fill:#ffffff;stroke:#000000;stroke-width:0.899999;stroke-linecap:round;stroke-dasharray:none"
           d="m 138.29228,113.09767 1.69632,-0.38933 c 0,0 -0.47274,-8.98218 -1.9466,-8.45382 -1.47386,0.52837 -1.83537,0.52837 -1.75194,2.53059 0.0834,2.00222 2.00222,6.31256 2.00222,6.31256 z"
           id="path1583" />
        <path
           style="fill:#ffffff;stroke:#000000;stroke-width:0.899999;stroke-linecap:round;stroke-dasharray:none"
           d="m 142.93632,112.68054 c 0,0 2.22469,-5.06117 1.97441,-5.75639 -0.25028,-0.69521 -2.78086,-2.66963 -3.8654,-2.28031 -1.08453,0.38933 -1.19577,0.80645 -1.16796,1.39044 0.0278,0.58398 0.6396,6.06228 0.80645,6.25694 0.16685,0.19466 2.2525,0.38932 2.2525,0.38932 z"
           id="path1585" />
        <path
           style="fill:#ffffff;stroke:#000000;stroke-width:0.899999;stroke-linecap:round;stroke-dasharray:none"
           d="m 143.1866,112.48588 c 0,0 1.41823,1.86317 2.19688,1.6129 0.77864,-0.25028 5.06117,-7.64738 5.06117,-7.64738 0,0 0.44493,-1.27919 -0.66741,-1.47385 -1.11235,-0.19466 -3.2258,0.61179 -3.69855,1.05673 -0.47274,0.44493 -0.94549,1.307 -0.94549,1.307 z"
           id="path1587" />
        <path
           style="fill:#ffffff;stroke:#000000;stroke-width:0.899999;stroke-linecap:round;stroke-dasharray:none"
           d="m 146.63486,112.51369 c 0,0 0.0278,1.16796 0.22247,1.47385 0.19466,0.3059 2.22469,0.77864 2.66963,0.88988 0.44494,0.11123 1.41824,0.0556 1.52948,-0.11124 0.11123,-0.16685 3.92101,-3.50388 3.92101,-3.50388 l -0.44494,-3.25361 c 0,0 -1.36262,-0.58398 -1.77975,-0.91769 -0.41713,-0.3337 -1.47386,-1.44605 -1.47386,-1.44605 l -0.77864,0.50056 z"
           id="path1634" />
        <path
           style="fill:#ffffff;stroke:#000000;stroke-width:0.899999;stroke-linecap:round;stroke-dasharray:none"
           d="m 151.00082,105.58934 c 0,0 1.27919,-1.80756 3.08675,-0.3337 1.80757,1.47385 1.80757,2.83647 1.80757,2.83647 l -1.33482,-0.13904 -1.9466,-1.00111 z"
           id="path1636" />
        <path
           style="fill:#ffffff;stroke:#000000;stroke-width:0.899999;stroke-linecap:round;stroke-dasharray:none"
           d="m 155.75609,107.84184 c 0,0 1.66852,-0.41713 2.5584,0.36151 0.88987,0.77864 0.27808,1.97441 -0.13905,2.47497 -0.41713,0.50055 -1.00111,0.75083 -1.6129,0.61179 -0.61179,-0.13905 -1.22358,-0.41713 -1.22358,-0.77865 0,-0.36151 0.38932,-0.75083 0.58398,-1.39042 0.0975,-0.32036 -0.16685,-1.2792 -0.16685,-1.2792 z"
           id="path1638"
           sodipodi:nodetypes="csssssc" />
        <path
           style="fill:#ffffff;stroke:#000000;stroke-width:0.899999;stroke-linecap:round;stroke-dasharray:none"
           d="m 150.78098,114.81614 c 0,0 -1.12082,0.60958 -0.98318,1.17982 0.13765,0.57025 1.7304,2.3793 1.90738,2.47762 0.17697,0.0983 0.23596,0.57025 1.2978,-0.17697 1.06184,-0.74722 4.01139,-3.26417 4.01139,-3.26417 0,0 3.20517,-1.88771 3.16585,-2.47762 -0.0393,-0.58991 -0.72756,-1.43545 -0.9242,-1.69108 -0.19663,-0.25562 -0.84553,-0.4326 -0.84553,-0.4326 0,0 -1.04218,0.86521 -1.33713,0.86521 -0.29496,0 -1.63209,-0.4916 -1.63209,-0.4916 z"
           id="path1640" />
        <path
           style="fill:#ffffff;stroke:#000000;stroke-width:0.899999;stroke-linecap:round;stroke-dasharray:none"
           d="m 152.17711,118.94551 c 0,0 -0.33429,0.51126 0.19663,0.96352 0.53092,0.45227 1.88771,0.29496 2.20233,0.17697 0.31462,-0.11798 2.91023,-1.25847 2.91023,-1.25847 0,0 2.22199,-2.92989 2.22199,-3.3035 0,-0.37361 -0.059,-0.84553 -0.39327,-0.98318 -0.33429,-0.13765 -0.94386,-0.37361 -0.94386,-0.37361 z"
           id="path1642" />
        <path
           style="fill:#ffffff;stroke:#000000;stroke-width:0.899999;stroke-linecap:round;stroke-dasharray:none"
           d="m 153.00298,120.3023 c 0,0 -0.8652,0.82588 -0.31462,1.63209 0.55058,0.80621 1.41578,1.14049 2.33998,1.21915 0.92419,0.0786 4.30634,-0.17698 4.50298,-0.21631 0.19663,-0.0393 2.06468,-1.17982 1.33713,-2.63493 -0.72756,-1.45511 -2.53662,-1.35679 -2.63494,-1.35679 -0.0983,0 -1.12083,0.059 -1.12083,0.059 l -2.04502,0.90453 z"
           id="path1644" />
        <path
           style="fill:#ffffff;stroke:#000000;stroke-width:0.899999;stroke-linecap:round;stroke-dasharray:none"
           d="m 154.41876,123.25185 c 0,0 -1.65175,0.37361 -1.47477,1.23881 0.17697,0.86521 1.49444,1.23881 3.12652,1.33713 1.63208,0.0983 4.54231,-0.0983 4.83726,-0.0393 0.29496,0.059 1.21915,-0.17698 1.17982,-1.49444 -0.0393,-1.31747 -0.47193,-1.19949 -0.94385,-1.27814 -0.47193,-0.0787 -1.63209,-0.059 -1.63209,-0.059 z"
           id="path1646" />
        <path
           style="fill:#ffffff;stroke:#000000;stroke-width:0.899999;stroke-linecap:round;stroke-dasharray:none"
           d="m 141.32276,101.70048 c 1.43545,0.0393 3.75576,0.23596 3.93273,-1.37646 0.17698,-1.612422 -2.04502,-2.005693 -3.16584,-1.868049 -1.12083,0.137647 -3.00855,0.471929 -2.98888,1.848389 0.0197,1.37645 2.22199,1.39612 2.22199,1.39612 z"
           id="path1700" />
        <path
           style="fill:#ffffff;stroke:#000000;stroke-width:0.899999;stroke-linecap:round;stroke-dasharray:none"
           d="m 152.78668,98.337991 c -1.9467,-0.05899 -6.44968,0.294954 -6.48901,2.104009 -0.0393,1.80906 2.49728,3.44114 5.44683,3.40182 2.94955,-0.0393 6.19406,-0.96352 6.27271,-2.89056 0.0787,-1.927043 -5.23053,-2.615269 -5.23053,-2.615269 z"
           id="path1702" />
        <path
           style="fill:#ffffff;stroke:#000000;stroke-width:0.899999;stroke-linecap:round;stroke-dasharray:none"
           d="m 165.09979,105.53372 c 0.0278,-2.16907 -0.22247,-5.728575 -3.5595,-5.22802 -3.33704,0.50055 -4.47719,1.89099 -4.08787,3.75416 0.38932,1.86318 1.55728,2.39154 1.97441,2.47497 0.41713,0.0834 1.16796,-0.19466 1.97441,0.44494 0.80645,0.6396 1.80756,1.64071 2.53059,1.41824 0.72302,-0.22247 1.16796,-2.86429 1.16796,-2.86429 z"
           id="path1704" />
        <path
           style="fill:#ffffff;stroke:#000000;stroke-width:0.899999;stroke-linecap:round;stroke-dasharray:none"
           d="m 166.01747,112.68054 c -0.6396,-2.00222 -1.08453,-3.61512 -2.19688,-3.25361 -1.11234,0.36151 -3.00333,1.22358 -3.00333,2.94771 0,1.72414 1.11235,4.75528 1.41824,4.86651 0.3059,0.11124 1.52947,0.77864 2.80867,-0.47275 1.2792,-1.25138 1.30701,-1.33481 1.2792,-2.14126 -0.0278,-0.80645 -0.3059,-1.9466 -0.3059,-1.9466 z"
           id="path1706" />
        <path
           style="fill:#ffffff;stroke:#000000;stroke-width:0.899999;stroke-linecap:round;stroke-dasharray:none"
           d="m 162.17988,121.88519 c 0,0 2.14127,0.38932 4.14349,0.36151 2.00222,-0.0278 4.97774,-0.16685 4.97774,-0.16685 0,0 0.0556,-4.42157 -0.83426,-4.67185 -0.88987,-0.25028 -3.86539,-0.58398 -5.92323,0.88988 -2.05784,1.47386 -2.44716,2.69743 -2.44716,2.69743 z"
           id="path1708" />
      </g>
    </g>
  </g>
</svg>
