<?xml version="1.0" encoding="UTF-8" standalone="no"?>
<svg
   inkscape:version="1.1.1 (3bf5ae0d25, 2021-09-20)"
   sodipodi:docname="CoA Hörup.svg"
   id="svg2130"
   version="1.1"
   viewBox="0 0 477.15346 507.9003"
   height="507.9003"
   width="477.15347"
   xmlns:inkscape="http://www.inkscape.org/namespaces/inkscape"
   xmlns:sodipodi="http://sodipodi.sourceforge.net/DTD/sodipodi-0.dtd"
   xmlns:xlink="http://www.w3.org/1999/xlink"
   xmlns="http://www.w3.org/2000/svg"
   xmlns:svg="http://www.w3.org/2000/svg">
  <defs
     id="defs2124" />
  <sodipodi:namedview
     inkscape:pagecheckerboard="false"
     fit-margin-bottom="5"
     fit-margin-right="5"
     fit-margin-left="5"
     fit-margin-top="5"
     lock-margins="true"
     units="px"
     inkscape:snap-smooth-nodes="true"
     inkscape:snap-object-midpoints="true"
     inkscape:window-maximized="1"
     inkscape:window-y="-11"
     inkscape:window-x="-11"
     inkscape:window-height="1506"
     inkscape:window-width="2560"
     showgrid="false"
     inkscape:document-rotation="0"
     inkscape:current-layer="layer1"
     inkscape:document-units="px"
     inkscape:cy="254"
     inkscape:cx="232.33333"
     inkscape:zoom="1.5"
     inkscape:pageshadow="2"
     inkscape:pageopacity="0"
     borderopacity="1.0"
     bordercolor="#666666"
     pagecolor="#333333"
     id="base"
     showguides="true"
     inkscape:guide-bbox="true"
     inkscape:snap-intersection-paths="true"
     inkscape:object-paths="true"
     inkscape:snap-grids="false"
     inkscape:snap-global="true"
     inkscape:lockguides="false"
     guidecolor="#00ffff"
     guideopacity="0.49803922"
     inkscape:snap-midpoints="true"
     inkscape:snap-to-guides="true" />
  <g
     id="layer1"
     inkscape:groupmode="layer"
     inkscape:label="hoerup"
     transform="translate(-77.500001,-51.499999)">
    <g
       id="g6635"
       inkscape:label="coa">
      <path
         style="opacity:1;fill:#0f47af;stroke:#000000;stroke-width:0.999996;stroke-miterlimit:4;stroke-dasharray:none"
         d="M 82.999999,57.000001 V 321.5 c 0,104 93.979221,232.40031 233.076741,232.40031 C 455.17426,553.90031 549.15348,425.5 549.15348,321.5 V 56.999997 Z"
         id="path1013"
         sodipodi:nodetypes="cszscc"
         inkscape:label="coa-0" />
      <g
         id="g2193"
         inkscape:label="stars">
        <path
           sodipodi:type="star"
           style="fill:#fcdd09;stroke:#000000;stroke-width:1;stroke-miterlimit:4;stroke-dasharray:none"
           id="path1502"
           inkscape:flatsided="false"
           sodipodi:sides="5"
           sodipodi:cx="109.36585"
           sodipodi:cy="-93.754898"
           sodipodi:r1="31.544788"
           sodipodi:r2="11.987019"
           sodipodi:arg1="1.5707963"
           sodipodi:arg2="2.1991148"
           inkscape:rounded="0"
           inkscape:randomized="0"
           d="m 109.36585,-62.21011 -7.04579,-21.847086 -22.955084,0.05017 18.600544,-13.452068 -7.14123,-21.81608 18.54156,13.53325 18.54156,-13.53325 -7.14123,21.816079 18.60055,13.452068 -22.95508,-0.05017 z"
           inkscape:transform-center-y="-2.2920158"
           transform="matrix(1,0,0,-1,206.71089,39.833682)"
           inkscape:label="star-c"
           inkscape:tile-cx="316.07673"
           inkscape:tile-cy="132.86833"
           inkscape:tile-w="63.100286"
           inkscape:tile-h="60.011938"
           inkscape:tile-x0="284.52659"
           inkscape:tile-y0="100.41479" />
        <use
           x="0"
           y="0"
           inkscape:tiled-clone-of="#path1502"
           xlink:href="#path1502"
           id="use2168"
           inkscape:transform-center-x="-1.044019e-05"
           inkscape:transform-center-y="2.2920098"
           width="100%"
           height="100%"
           transform="matrix(1,0,0,-1,145.31046,308.04757)"
           inkscape:label="star-l" />
        <use
           x="0"
           y="0"
           inkscape:tiled-clone-of="#path1502"
           xlink:href="#path1502"
           transform="matrix(1,0,0,-1,-145.31045,308.04756)"
           id="use2170"
           inkscape:transform-center-x="-1.0651552e-05"
           inkscape:transform-center-y="2.2920098"
           width="100%"
           height="100%"
           inkscape:label="star-r" />
      </g>
      <path
         id="path2674"
         style="fill:#fcdd09;stroke:#000000;stroke-width:1;stroke-miterlimit:4;stroke-dasharray:none"
         d="m 115.96484,226.66602 v 13.04296 h 16.5 v 10.8418 H 127.75 v 14.14258 h 4.71484 v 18.85742 h -16.5 l 62.46094,59.39649 h 27.81445 v -45.25586 h 219.67188 v 45.25586 h 27.81445 l 62.46094,-59.39649 h -16.5 v -18.85742 h 4.71484 v -14.14258 h -4.71484 v -10.8418 h 16.5 v -13.04296 z m 26.63477,13.04296 h 75.89648 v 10.8418 h -75.89648 z m 89.56641,0 h 77.07617 v 10.8418 h -77.07617 z m 90.74414,0 h 77.07617 v 10.8418 h -77.07617 z m 90.74609,0 h 75.89648 v 10.8418 h -75.89648 z m -271.05664,24.98438 h 75.89648 v 18.85742 h -75.89648 z m 89.56641,0 h 77.07617 v 18.85742 h -77.07617 z m 90.74414,0 h 77.07617 v 18.85742 h -77.07617 z m 90.74609,0 h 75.89648 v 18.85742 h -75.89648 z"
         inkscape:label="bridge" />
      <g
         id="g6618"
         inkscape:label="waves">
        <path
           style="display:inline;opacity:1;fill:#fcdd09;stroke:#000000;stroke-width:1;stroke-miterlimit:4;stroke-dasharray:none"
           d="m 278.41622,447.15248 c 14.01779,-1.45667 24.43883,-7.2393 35.16438,-13.21502 1.38642,-0.77244 3.60586,-0.77244 4.99228,0 10.72555,5.97572 21.14659,11.75835 35.16438,13.21502 4.6353,0.48168 5.42137,-1.73623 1.72326,-4.57365 -12.36795,-9.48947 -24.73587,-18.97898 -37.10384,-28.46841 -1.34484,-1.03184 -3.21504,-1.03184 -4.55988,0 l -37.10384,28.46841 c -3.69811,2.83742 -2.91204,5.05533 1.72326,4.57365 z"
           id="path3556"
           sodipodi:nodetypes="sssssssss"
           inkscape:tile-cx="316.07673"
           inkscape:tile-cy="430.52648"
           inkscape:tile-w="95.239524"
           inkscape:tile-h="35.430136"
           inkscape:tile-x0="268.45697"
           inkscape:tile-y0="412.83763"
           inkscape:label="wave-c1" />
        <use
           x="0"
           y="0"
           inkscape:tiled-clone-of="#path3556"
           xlink:href="#path3556"
           id="use4380"
           width="100%"
           height="100%"
           transform="translate(-6.0212656e-6,-43)"
           style="display:inline"
           inkscape:label="wave-c2" />
        <use
           x="0"
           y="0"
           inkscape:tiled-clone-of="#path3556"
           xlink:href="#path3556"
           transform="translate(-114.35429)"
           id="use4384"
           width="100%"
           height="100%"
           style="display:inline"
           inkscape:label="wave-r1" />
        <use
           x="0"
           y="0"
           inkscape:tiled-clone-of="#path3556"
           xlink:href="#path3556"
           transform="translate(-94.56398,-43.000003)"
           id="use4382"
           width="100%"
           height="100%"
           style="display:inline"
           inkscape:label="wave-r2" />
        <use
           x="0"
           y="0"
           inkscape:tiled-clone-of="#path3556"
           xlink:href="#path3556"
           transform="translate(-53.630225,-80.333333)"
           id="use4386"
           width="100%"
           height="100%"
           style="display:inline"
           inkscape:label="wave-r3" />
        <use
           x="0"
           y="0"
           inkscape:tiled-clone-of="#path3556"
           xlink:href="#path3556"
           transform="translate(114.35429)"
           id="use4390"
           width="100%"
           height="100%"
           style="display:inline"
           inkscape:label="wave-l1" />
        <use
           x="0"
           y="0"
           inkscape:tiled-clone-of="#path3556"
           xlink:href="#path3556"
           transform="translate(94.56399,-43.000003)"
           id="use4388"
           width="100%"
           height="100%"
           style="display:inline"
           inkscape:label="wave-l2" />
        <use
           x="0"
           y="0"
           inkscape:tiled-clone-of="#path3556"
           xlink:href="#path3556"
           transform="translate(53.63025,-80.333334)"
           id="use4392"
           width="100%"
           height="100%"
           style="display:inline"
           inkscape:label="wave-l3" />
      </g>
    </g>
  </g>
</svg>
