<?xml version="1.0" encoding="UTF-8" standalone="no"?>
<!-- Created with Inkscape (http://www.inkscape.org/) -->

<svg
   width="137.14412mm"
   height="152.70493mm"
   viewBox="0 0 137.14412 152.70493"
   version="1.1"
   id="svg4185"
   inkscape:version="1.2.2 (732a01da63, 2022-12-09)"
   sodipodi:docname="Wappen Tellingstedt2.svg"
   xmlns:inkscape="http://www.inkscape.org/namespaces/inkscape"
   xmlns:sodipodi="http://sodipodi.sourceforge.net/DTD/sodipodi-0.dtd"
   xmlns="http://www.w3.org/2000/svg"
   xmlns:svg="http://www.w3.org/2000/svg">
  <sodipodi:namedview
     id="namedview4187"
     pagecolor="#ffffff"
     bordercolor="#666666"
     borderopacity="1.0"
     inkscape:showpageshadow="2"
     inkscape:pageopacity="0.0"
     inkscape:pagecheckerboard="0"
     inkscape:deskcolor="#d1d1d1"
     inkscape:document-units="mm"
     showgrid="false"
     inkscape:zoom="0.9274496"
     inkscape:cx="258.77417"
     inkscape:cy="289.5036"
     inkscape:current-layer="layer1" />
  <defs
     id="defs4182" />
  <g
     inkscape:label="Ebene 1"
     inkscape:groupmode="layer"
     id="layer1"
     transform="translate(-580.80082,-78.439914)">
    <g
       id="g3977"
       transform="translate(544.91957,1.98801)">
      <path
         id="path969"
         style="fill:#003bff;fill-opacity:1;stroke:#000000;stroke-width:0.6;stroke-linecap:round;stroke-dasharray:none"
         d="m 36.181254,76.751904 v 83.832606 a 68.27224,68.27224 0 0 0 68.272316,68.27232 68.27224,68.27224 0 0 0 68.2718,-68.27232 V 76.751904 Z" />
      <g
         id="g3481">
        <path
           id="path3293"
           style="fill:#ff0000;stroke:#000000;stroke-width:0.7;stroke-linecap:round;stroke-dasharray:none"
           d="m 136.48469,148.60953 -3.83749,1.11208 -3.33726,2.94762 -6.28437,5.67304 -15.5174,7.89771 -13.626045,12.51397 1.779736,28.92071 13.601749,12.777 0.14511,3.04548 4.94244,0.59771 c 11.53359,-1.78284 22.01023,-6.59306 30.65911,-13.64981 l -4.45451,-6.2575 -15.18047,11.48353 -0.63562,0.11111 3.18017,-42.36744 7.11895,-15.12828 z"
           sodipodi:nodetypes="ccccccccccccccccc" />
        <path
           style="fill:#ff0000;stroke:#000000;stroke-width:0.499999;stroke-linecap:round;stroke-dasharray:none"
           d="m 66.541842,148.34269 0.786548,48.9232 16.989407,-11.48358 -3.775425,-35.23729 -8.337393,-10.77569 z"
           id="path3195" />
        <path
           style="fill:#ff0000;stroke:#000000;stroke-width:0.499999;stroke-linecap:round;stroke-dasharray:none"
           d="m 121.18998,135.87293 0.11123,22.80307 -17.13011,6.72968 -1.6129,-24.74967 6.72969,-11.01221 z"
           id="path3193" />
        <path
           style="fill:#ffff00;stroke:#000000;stroke-width:0.499999;stroke-linecap:round;stroke-dasharray:none"
           d="m 113.45918,197.02409 -3.47608,3.39265 1.11234,9.56617 7.25805,-7.48052 -2.53058,-4.22692 z"
           id="path3097" />
        <path
           style="fill:#ffff00;stroke:#000000;stroke-width:0.649999;stroke-linecap:round;stroke-dasharray:none"
           d="m 143.65934,143.49249 -1.00111,5.1724 -6.59064,-0.41713 -0.9733,-5.39487 7.45271,-1.36262 z"
           id="path2906" />
        <path
           style="fill:#ffff00;stroke:#000000;stroke-width:0.4;stroke-linecap:round;stroke-dasharray:none"
           d="m 106.20345,108.79906 c 0,0 1.21648,3.7635 0.18756,4.70899 -1.02892,0.94549 -1.78847,0.44016 -1.78847,0.44016 0,0 -0.41375,0.27809 -0.80307,0.41713 -0.38932,0.13904 -0.3792,0.17837 -0.54606,0.17837 -0.16685,0 -1.307,0.11124 -1.307,0.11124 l 1.08453,-4.505 z"
           id="path1136"
           sodipodi:nodetypes="cscssccc" />
        <path
           id="circle1075"
           style="fill:#ffff00;stroke:#000000;stroke-width:0.7;stroke-linecap:round;stroke-dasharray:none"
           d="m 90.779472,115.33715 -8.42791,2.13372 c 0,0 -0.747126,0.39322 -2.359545,1.17977 -1.612419,0.78654 -3.618384,2.51704 -3.618384,2.98896 0,0.47193 -0.06666,1.27434 -0.06666,1.27434 0,0 -2.669641,0.7234 -6.395992,2.3363 -3.726351,1.61289 -3.948839,2.78063 -5.951058,3.94859 -2.002219,1.16796 -8.064624,14.01568 -8.064624,14.01568 l 1.278992,1.44591 c 0,0 -2.446989,3.67099 -5.005379,8.39845 -2.558391,4.72746 -3.893303,10.23349 -3.893303,10.23349 0,0 -0.778366,0.50041 -2.001945,1.00097 -1.223574,0.50055 -1.44636,7.06338 -1.279508,8.62066 0.166851,1.55729 7.230566,5.67304 7.230566,5.67304 l 1.501717,-1.83554 17.185515,3.11453 c 0,0 -2.224463,6.22922 -3.948597,12.9589 -1.724132,6.72968 -3.349666,17.38499 -3.349666,17.38499 11.103378,9.14822 25.33002,14.64252 40.839879,14.64252 3.36592,0 6.67135,-0.25888 9.89759,-0.75758 L 110.077,197.06911 c 0,0 1.59946,-1.00493 1.29811,-3.73621 -0.20752,-1.88093 -4.4421,-8.42842 -4.4421,-8.42842 0,0 -0.31452,-2.25754 -0.70384,-4.42661 -0.38931,-2.16907 -1.06815,-6.57221 -1.06815,-6.57221 0,0 4.40507,-17.69765 5.42758,-22.25962 1.02248,-4.56196 1.09089,-13.04778 1.09089,-13.04778 0,0 2.44706,0.11118 3.83749,-0.61185 1.39043,-0.72302 2.89233,-1.77974 2.89233,-1.77974 l 10.93835,3.99511 c 0,0 -0.1178,0.58984 0.62942,1.57303 0.74722,0.98318 1.88722,1.29811 1.88722,1.29811 0,0 -0.74707,2.71328 0.27544,3.65714 1.02251,0.94386 3.50004,-0.94395 6.1743,-1.84846 2.67426,-0.90453 6.64662,0 6.64662,0 0,0 1.80893,-8.25835 2.00556,-9.83145 0.19664,-1.57308 -5.8993,-4.36555 -6.72517,-4.79815 -0.82587,-0.4326 -1.49402,0.78641 -1.49402,0.78641 0,0 -2.98912,-1.92671 -8.18032,-4.36501 -5.19121,-2.43828 -8.77001,-2.67425 -8.77001,-2.67425 0,0 -0.98312,-0.90442 -1.57303,-1.61231 -0.58991,-0.70788 -2.1239,-1.06195 -2.1239,-1.06195 l -1.33687,-0.94412 c 0,0 -0.59019,-1.0618 -0.94413,-1.17978 -0.35395,-0.11798 -2.32033,-0.11807 -3.4215,-0.31471 -1.10116,-0.19664 -2.08434,-0.70764 -2.67425,-0.94361 -0.58991,-0.23592 -2.28068,-1.5e-4 -3.65714,0.0785 -1.37646,0.0786 -4.01164,-1.10122 -4.01164,-1.10122 l -5.059644,3.11143 z m -21.536153,31.26992 c 0,0 0.945869,10.28895 1.446423,13.90406 0.500554,3.61512 0.722953,10.62313 0.722953,10.62313 l -8.954492,-1.77974 c 0,0 0.504895,-0.79762 0.111621,-2.13475 -0.393273,-1.33713 -1.730643,-1.80919 -1.730643,-1.80919 0,0 1.10117,-0.90457 1.140498,-1.88774 0.03933,-0.98318 -0.786515,-1.76941 -0.786515,-1.76941 l 3.185852,-8.33747 0.865064,-1.45521 1.651578,-0.23616 z"
           sodipodi:nodetypes="ccsscssccscsscccscsccscscscsccscsscsscscsccssccccccsccscsccccc" />
        <path
           style="fill:#ffffff;stroke:#000000;stroke-width:0.499999;stroke-linecap:round;stroke-dasharray:none"
           d="m 90.334879,171.42783 -7.157574,1.49444 2.477622,4.44399 4.679952,1.57309 3.264167,-0.78654 z"
           id="path1450" />
        <path
           style="fill:#ffffff;stroke:none;stroke-width:0.0499999;stroke-linecap:round"
           d="m 85.851562,111.65029 -1.809056,4.67995 0.05899,1.27814 1.435447,2.18267 2.713585,1.37645 3.146187,0.31462 2.556277,-0.27529 1.809057,0.49159 1.45511,-0.29495 c 0,0 1.376458,-0.47193 1.966367,-1.04217 0.58991,-0.57025 1.750064,-1.73041 1.750064,-1.73041 0,0 1.17982,-2.18267 1.43545,-2.75291 0.25563,-0.57025 0.70789,-2.51695 0.96352,-2.69392 0.25563,-0.17698 1.63208,-1.90738 1.7304,-2.24166 0.0983,-0.33428 0.37361,-1.33713 0.51126,-1.37646 0.13764,-0.0393 0.90453,-1.02251 0.90453,-1.02251 0,0 0.53092,-1.80905 0.53092,-1.92704 0,-0.11798 0.17697,-1.14049 0.17697,-1.14049 0,0 -0.0787,-2.163 0.19664,-2.94955 0.27529,-0.78655 0.70789,-1.92704 0.70789,-1.92704 l 0.25562,-0.45226 0.4916,-1.691079 -1.16016,-3.795086 -15.317995,-0.294954 -6.431595,9.471459 z"
           id="path995" />
        <path
           id="path1468"
           style="color:#000000;fill:#ffff00;stroke:#000000;stroke-width:0.4;stroke-linecap:round;stroke-dasharray:none"
           d="m 95.181787,87.235502 c -0.503712,0.0031 -1.021259,0.03685 -1.543575,0.110588 -3.342822,0.471926 -7.904452,5.938238 -8.651668,7.393347 -0.747224,1.455109 -0.07906,2.005562 -0.07906,2.005562 0,0 -1.730168,2.281325 -2.084111,3.185852 -0.353946,0.904529 0.117823,2.241719 0.117823,2.241719 0,0 -1.055571,1.53849 -1.317749,2.63395 l -0.01867,0.93139 0.566443,0.87625 c 0.384375,0.48443 0.809253,0.82786 0.809253,0.82786 0,0 0.118326,1.21919 0.511596,1.49448 0.393274,0.27529 1.061951,0.43305 1.061951,0.43305 0,0 0.274796,1.14043 0.746724,1.57303 0.471927,0.4326 0.629419,0.58963 0.629419,0.58963 0,0 -0.07554,0.17084 -0.09819,0.22169 l 1.71049,0.48628 c 0,0 0.157295,-1.69114 0.393258,-2.24173 0.235963,-0.55058 0.393348,-1.41575 0.707967,-1.92701 0.314619,-0.51125 0.786764,-1.53349 0.983402,-1.73013 0.196635,-0.19664 1.17976,-2.04507 1.573031,-2.63498 0.393274,-0.58991 0.157096,-2.12373 0.157096,-2.63498 0,-0.51126 0.393509,-1.258412 0.590145,-1.573031 0.196635,-0.314618 0.668693,-0.747385 0.668693,-1.022676 0,-0.275291 -0.157613,-0.51108 -0.157613,-0.51108 0,0 0.196568,-0.433033 0.432532,-0.826306 0.235963,-0.393272 2.359803,-0.668482 3.696932,-0.82579 1.337128,-0.15731 2.949525,1.337387 4.601264,1.337387 1.65175,0 2.32042,-1.179813 2.59571,-1.533757 0.2753,-0.353946 2.47738,-0.354141 3.61787,-0.236161 0.85908,0.08887 0.87052,3.074978 0.82372,4.544944 0.19265,-0.37616 0.38525,-0.706473 0.55294,-0.926561 0.62921,-0.825875 0.59014,-2.910157 0.59014,-4.247285 0,-1.337127 -3.65782,-3.972392 -4.68033,-4.719609 -1.02251,-0.747219 -3.38194,-2.084362 -3.97185,-2.280998 -0.49774,-0.165911 -2.815532,-1.031873 -5.53558,-1.014925 z"
           sodipodi:nodetypes="ssscscccccscscccssssssscsssssccssss" />
        <path
           style="color:#000000;fill:#000000;stroke-linecap:round;-inkscape-stroke:none"
           d="m 93.595703,87.048828 c -1.811466,0.255736 -3.795502,1.783628 -5.466797,3.410156 -1.671294,1.626529 -2.992953,3.330129 -3.410156,4.142578 -0.397245,0.773576 -0.435578,1.355983 -0.34375,1.753907 0.0392,0.169856 0.105257,0.285836 0.166016,0.384765 -0.09783,0.129863 -0.375172,0.492837 -0.789063,1.085938 -0.480747,0.688906 -1.000788,1.469024 -1.207031,1.996094 -0.211741,0.541114 -0.169987,1.142834 -0.0918,1.617184 0.06406,0.38861 0.135148,0.582 0.167969,0.68164 -0.06151,0.0909 -0.314538,0.46003 -0.63086,1.04297 -0.352482,0.64958 -0.724609,1.41563 -0.724609,2.07617 0,0.66425 0.403147,1.2516 0.777344,1.69336 0.328158,0.38741 0.582381,0.58758 0.658203,0.65039 0.009,0.0824 0.02575,0.26864 0.0957,0.57032 0.04193,0.18082 0.09622,0.37381 0.173828,0.55273 0.07761,0.17892 0.171843,0.35017 0.349609,0.47461 0.40768,0.28537 0.829932,0.37064 0.988282,0.4082 0.02514,0.0963 0.05601,0.23339 0.160156,0.50977 0.134844,0.35785 0.317557,0.77905 0.628906,1.06445 0.357432,0.32765 0.410679,0.38107 0.472656,0.44141 -0.07457,0.16711 -0.459575,1.02755 -0.919921,2.11523 -0.251466,0.59415 -0.503009,1.20486 -0.69336,1.70313 -0.09517,0.24913 -0.174698,0.46986 -0.232422,0.65039 -0.05772,0.18053 -0.09961,0.29114 -0.09961,0.45312 0,0.32486 0.09949,0.97824 0.515625,1.7793 0.416136,0.80106 1.152519,1.73061 2.416016,2.52539 1.311428,0.82493 3.097673,0.98013 4.560546,0.95508 1.421346,-0.0243 2.479947,-0.22641 2.542969,-0.23828 0.08539,0.0302 0.969655,0.3482 1.691406,0.39062 0.738805,0.0435 1.430757,-0.16708 1.685547,-0.25195 0.06106,-0.0204 0.06889,-0.0157 0.166016,0.002 0.09712,0.0177 0.259689,0.0527 0.486328,0.0527 0.238319,0 0.387515,-0.106 0.568359,-0.22656 0.180845,-0.12057 0.371014,-0.27619 0.554688,-0.43946 0.367347,-0.32653 0.696074,-0.66703 0.847656,-0.86914 0.03079,-0.041 0.172724,-0.19507 0.349611,-0.375 0.17688,-0.17992 0.39628,-0.39967 0.62109,-0.62695 0.44961,-0.45456 0.90566,-0.91662 1.125,-1.25781 0.36838,-0.57305 0.65679,-1.19127 0.86133,-1.88672 0.18028,-0.61297 0.69366,-1.63704 0.90625,-2.40235 0.15446,-0.55605 0.90494,-1.23663 1.44922,-1.99023 0.28306,-0.39193 0.40716,-0.76342 0.48047,-1.05664 0.0733,-0.29323 0.11602,-0.50166 0.16015,-0.57227 0.056,-0.0897 0.38807,-0.48719 0.69922,-0.88867 0.31115,-0.40148 0.62611,-0.7988 0.71484,-1.21289 0.0634,-0.29581 0.0765,-0.50652 0.0703,-0.6543 -0.003,-0.0647 -0.0101,-0.0712 -0.0195,-0.11718 0.0222,-0.0545 0.0887,-0.21523 0.17773,-0.5 0.10256,-0.32821 0.21094,-0.73421 0.21094,-1.11133 v -2.24219 c 0,-0.0792 0.0522,-0.34377 0.15039,-0.6543 0.0982,-0.31052 0.23717,-0.68353 0.39648,-1.0625 0.31862,-0.75793 0.72711,-1.55272 1.00391,-1.916013 0.39016,-0.512108 0.52114,-1.275388 0.5918,-2.08789 0.0707,-0.812502 0.0605,-1.676172 0.0605,-2.341797 0,-0.471047 -0.27752,-0.913784 -0.65429,-1.382813 -0.37678,-0.469028 -0.87567,-0.95558 -1.4043,-1.421875 -1.05727,-0.932589 -2.23483,-1.784063 -2.74414,-2.15625 -0.53119,-0.388175 -1.38,-0.909386 -2.17774,-1.365234 -0.79773,-0.455848 -1.50231,-0.83215 -1.87695,-0.957031 -0.27598,-0.09199 -1.242202,-0.447734 -2.542966,-0.712891 -1.300763,-0.265156 -2.955254,-0.447701 -4.673828,-0.205078 z m 0.08398,0.59375 c 1.624246,-0.229306 3.215197,-0.05671 4.470704,0.199219 1.255506,0.255931 2.158733,0.588716 2.472663,0.693359 0.21526,0.07175 0.98434,0.461477 1.76953,0.910156 0.78519,0.44868 1.62782,0.969081 2.11914,1.328125 0.5132,0.375032 1.67604,1.215133 2.70312,2.121094 0.51354,0.452981 0.99304,0.923218 1.33399,1.347656 0.34095,0.424439 0.51953,0.810297 0.51953,1.007813 0,0.671503 0.0104,1.520594 -0.0566,2.291016 -0.067,0.770421 -0.23165,1.461624 -0.4707,1.77539 -0.35245,0.46258 -0.7498,1.261204 -1.08008,2.046874 -0.16514,0.39284 -0.31019,0.77859 -0.41602,1.11328 -0.10582,0.33469 -0.17773,0.6005 -0.17773,0.83594 v 2.24219 c 0,0.25212 -0.0895,0.63256 -0.1836,0.93359 -0.0941,0.30103 -0.1875,0.52344 -0.1875,0.52344 l -0.0121,0.11328 0.0121,0.11328 c 0,0 -0.002,-0.0198 0.002,0.0684 0.004,0.0882 -0.002,0.25108 -0.0566,0.50586 -0.0293,0.13649 -0.3051,0.58564 -0.60352,0.9707 -0.29842,0.38507 -0.59378,0.71254 -0.73437,0.9375 -0.15252,0.24402 -0.16809,0.48874 -0.23243,0.7461 -0.0643,0.25735 -0.22758,0.49297 -0.38476,0.84961 -0.35311,0.80121 -1.14925,1.43118 -1.38807,2.29091 -0.18069,0.65047 -0.66349,1.64451 -0.87648,2.36869 -0.18873,0.64167 -0.50519,1.27188 -0.84469,1.79999 -0.13461,0.2094 -0.6296,0.66846 -1.07468,1.11843 -0.22254,0.22499 -0.472068,0.48482 -0.652814,0.66868 -0.180746,0.18385 -0.354912,0.37685 -0.442104,0.49311 -0.08438,0.11251 -0.383368,0.43683 -0.723912,0.73954 -0.170271,0.15135 -0.414197,0.12413 -0.557803,0.21987 -0.143605,0.0957 -0.278011,0.12695 -0.236328,0.12695 -0.166635,0 -0.259728,-0.0233 -0.378906,-0.0449 -0.119178,-0.0217 -0.287986,-0.0369 -0.462891,0.0215 -0.217135,0.0723 -0.862613,0.2559 -1.460937,0.2207 -0.564144,-0.0332 -1.507323,-0.34632 -1.564453,-0.36523 l -0.05664,-0.0508 -0.144531,0.0273 c 0,0 -1.105654,0.21222 -2.513672,0.23633 -1.408019,0.0241 -3.103606,-0.15445 -4.230469,-0.86328 -1.174795,-0.73899 -1.834668,-1.57993 -2.205078,-2.29297 -0.37041,-0.71304 -0.447266,-1.31751 -0.447266,-1.50391 0,0.0342 0.0203,-0.10702 0.07227,-0.26953 0.05196,-0.16251 0.127845,-0.37607 0.220703,-0.61914 0.185717,-0.48614 0.43559,-1.09301 0.685547,-1.68359 0.499913,-1.18117 1,-2.30078 1,-2.30078 l 0.08594,-0.1875 -0.146484,-0.14649 c 0,0 -0.16452,-0.16497 -0.638672,-0.59961 -0.160579,-0.14719 -0.351872,-0.51149 -0.472656,-0.83203 -0.120784,-0.32054 -0.185547,-0.58984 -0.185547,-0.58984 l -0.04297,-0.17969 -0.179687,-0.041 c 0,0 -0.652579,-0.17224 -0.958985,-0.38672 -0.01887,-0.0132 -0.08745,-0.0975 -0.142578,-0.22461 -0.05512,-0.1271 -0.1039,-0.29085 -0.140625,-0.44922 -0.07345,-0.31675 -0.101562,-0.60352 -0.101562,-0.60352 l -0.01172,-0.12695 -0.09961,-0.0781 c 0,0 -0.332322,-0.27011 -0.666016,-0.66406 -0.333694,-0.39394 -0.636719,-0.90711 -0.636719,-1.30469 0,-0.40129 0.3166,-1.17033 0.652344,-1.78906 0.335744,-0.61873 0.671875,-1.10937 0.671875,-1.10937 l 0.08594,-0.125 -0.05078,-0.14453 c 0,0 -0.1104,-0.31013 -0.179687,-0.73047 -0.06929,-0.42035 -0.08361,-0.93737 0.05859,-1.30078 0.147699,-0.377462 0.667685,-1.193381 1.140625,-1.871098 0.472939,-0.677717 0.902343,-1.244141 0.902343,-1.244141 l 0.173828,-0.228515 -0.222656,-0.183594 c 0,0 -0.003,5.4e-5 -0.03516,-0.04687 -0.03219,-0.04693 -0.07569,-0.125521 -0.103516,-0.246094 -0.05565,-0.241145 -0.05506,-0.662216 0.294922,-1.34375 0.330014,-0.642659 1.662725,-2.399803 3.294922,-3.988281 1.632198,-1.588478 3.599504,-3.029903 5.130859,-3.246094 z"
           id="path1470"
           sodipodi:nodetypes="cssscssscssscssscsscssssssccccsssscssssssscsscccssssscssssssscccsssssssssssssscccscsscssssssssccccscccssscssscccsscccssscccssscccssscccsssscc" />
        <path
           style="fill:#000000;stroke:#000000;stroke-width:0.05;stroke-linecap:round;stroke-dasharray:none"
           d="m 101.37633,91.073236 c 0,0 1.28012,0.151203 2.46106,0.723024 1.32092,0.6396 2.2525,1.974414 2.2525,1.974414 0,0 -1.37652,-1.195772 -2.32202,-1.598997 -0.94549,-0.403225 -2.39154,-1.098441 -2.39154,-1.098441 z"
           id="path1639"
           sodipodi:nodetypes="cscsc" />
        <path
           style="fill:#000000;stroke:#000000;stroke-width:0.0499999;stroke-linecap:round;stroke-dasharray:none"
           d="m 98.868909,92.389731 c 1.110996,0.324451 1.936871,1.061837 2.762741,1.209315 0.82588,0.147477 2.13351,0.03933 2.15317,0.16714 0.0197,0.127815 -0.98318,0.599743 -1.99586,0.422771 -1.01267,-0.176974 -1.936867,-0.993016 -2.949548,-1.228982 -1.01268,-0.235963 -2.271153,0.03933 -2.408798,-0.07374 -0.06882,-0.186801 1.327296,-0.820955 2.438295,-0.496504 z"
           id="path1695"
           sodipodi:nodetypes="sscsscs" />
        <path
           style="fill:#000000;stroke:#000000;stroke-width:0.0499999;stroke-linecap:round;stroke-dasharray:none"
           d="m 104.21742,95.763036 c 0,0 -2.02535,0.313632 -3.48046,-0.07964 -1.455116,-0.393274 -4.404665,-1.632085 -5.191211,-1.71074 -0.786548,-0.07865 -2.932319,0.468338 -2.870895,0.806212 0.03932,0.2163 1.868048,-0.511255 2.811905,-0.334283 0.943856,0.176972 4.321942,1.558749 5.216631,1.693255 1.85356,0.278661 2.95074,0.07031 2.95074,0.07031 l 0.6821,-0.152334 z"
           id="path1697"
           sodipodi:nodetypes="csssssccc" />
        <path
           style="fill:#000000;stroke:#000000;stroke-width:0.0499999;stroke-linecap:round;stroke-dasharray:none"
           d="m 100.87578,97.552646 c 0,0 -4.072401,-1.982455 -5.061174,-2.182976 -1.988315,-0.403226 -3.462173,0.611788 -3.337033,0.792543 0.125137,0.180758 1.468347,-0.371438 2.32202,-0.361512 1.195769,0.0139 1.918793,0.500556 1.918793,0.500556 l 1.251389,0.236374 2.308115,1.001109 z"
           id="path1699"
           sodipodi:nodetypes="cssscccc" />
        <path
           style="fill:#000000;stroke:#000000;stroke-width:0.0499999;stroke-linecap:round;stroke-dasharray:none"
           d="m 84.927368,96.49452 c 0,0 1.476752,-0.963663 2.538591,-2.261466 1.061837,-1.297802 1.708762,-2.600375 1.885734,-2.502056 0.176974,0.09832 -0.817318,1.708521 -1.814817,2.886776 -0.682788,0.806515 -2.373543,2.18645 -2.373543,2.18645 z"
           id="path1719"
           sodipodi:nodetypes="cssscc" />
        <path
           style="fill:#000000;stroke:#000000;stroke-width:0.0499999;stroke-linecap:round;stroke-dasharray:none"
           d="m 83.039658,101.83812 c 0,0 2.300647,-2.851231 2.811904,-3.598449 0.511255,-0.74722 0.825873,-1.278138 1.199484,-1.651748 0.37361,-0.373611 1.022511,-0.707893 1.179819,-1.120828 0.157311,-0.412938 0.452266,-1.278139 0.629237,-1.17982 0.176972,0.09832 -0.294954,1.160156 -0.589909,1.632083 -0.294955,0.471929 -0.924193,0.963519 -1.199484,1.376457 -0.275291,0.412936 -1.179819,1.67141 -1.71074,2.359639 -0.530918,0.688226 -2.202331,2.674256 -2.202331,2.674256 z"
           id="path1721" />
        <path
           style="fill:#000000;stroke:#000000;stroke-width:0.0499999;stroke-linecap:round;stroke-dasharray:none"
           d="m 82.823359,107.2063 c 0,0 0.334279,-1.67141 1.710737,-4.05071 1.376458,-2.37931 2.772577,-4.404664 2.89056,-4.306345 0.11798,0.09832 -2.516952,4.443985 -2.949551,5.269855 -0.432602,0.82588 -1.278139,3.81476 -1.278139,3.81476 z"
           id="path1723"
           sodipodi:nodetypes="cssscc" />
        <path
           style="fill:#000000;stroke:#000000;stroke-width:0.0499999;stroke-linecap:round;stroke-dasharray:none"
           d="m 83.92642,108.98199 c 0,0 1.307007,-3.03114 1.362622,-3.58731 0.05562,-0.55618 0.305896,-1.44605 0.695217,-2.28031 0.389321,-0.83426 1.112345,-2.03003 1.195771,-1.80756 0.08343,0.22247 -1.236497,2.6317 -1.334815,3.2258 -0.06811,0.41153 0.111236,0.77864 0.278088,0.55617 0.166851,-0.22247 0.834257,-1.16796 0.917683,-1.41824 0.08343,-0.25028 0.80645,-1.33481 0.80645,-1.91879 0,-0.58398 0.123628,-2.247635 0.500555,-3.225802 0.723603,-1.877831 1.64071,-3.642932 1.779751,-3.476077 0.139044,0.166851 -0.846723,2.182189 -1.27105,3.437329 -0.349393,1.03349 -0.451685,2.19991 -0.480891,3.41313 -0.01462,0.60717 -1.167963,2.54885 -1.307007,2.74351 -0.139041,0.19466 -1.473856,1.72414 -1.6129,2.08565 -0.139041,0.36151 -0.472744,1.64071 -0.500555,1.80756 -0.02781,0.16685 -0.111233,1.47386 -0.111233,1.47386 L 84.73287,109.3435 Z"
           id="path1746"
           sodipodi:nodetypes="cssssssssssssssccc" />
        <path
           style="fill:#000000;stroke:#000000;stroke-width:0.0499999;stroke-linecap:round;stroke-dasharray:none"
           d="m 85.851562,111.23735 c 0,0 0,-1.65174 0.530919,-2.83156 0.530918,-1.17982 1.45511,-2.0057 1.887712,-3.02821 0.432601,-1.02251 0.432601,-2.20233 0.589909,-2.20233 0.157311,0 -0.01966,1.82872 -0.255627,2.35964 -0.235963,0.53092 -1.435449,2.04502 -1.769729,2.8119 -0.334282,0.76689 -0.550585,3.5198 -0.550585,3.5198 z"
           id="path1748" />
        <path
           style="fill:#000000;stroke:#000000;stroke-width:0.0499999;stroke-linecap:round;stroke-dasharray:none"
           d="m 87.388593,112.27731 c 0,0 -0.09038,0.59788 -0.02781,1.51557 0.05738,0.84164 0.166852,1.66852 0.305896,1.65461 0.139044,-0.0139 0.04867,-0.86207 0.02781,-1.82146 -0.01632,-0.75078 0.02084,-1.28615 0.02084,-1.28615 z"
           id="path1750"
           sodipodi:nodetypes="cssscc" />
        <path
           style="fill:#000000;stroke:#000000;stroke-width:0.0499999;stroke-linecap:round;stroke-dasharray:none"
           d="m 96.356875,103.69835 c 2.127359,0.12514 3.670735,0.47275 3.781975,1.05673 0.11123,0.58398 0.47274,2.22469 0.25028,2.2664 -0.22247,0.0417 -0.806454,-0.94549 -1.459959,-1.45995 -0.653502,-0.51446 -0.764735,-0.77864 -1.918793,-1.04283 -1.09852,-0.25147 -2.892099,-0.36151 -2.906002,-0.61179 -0.01389,-0.25027 2.252499,-0.20856 2.252499,-0.20856 z"
           id="path1752"
           sodipodi:nodetypes="csssssc" />
        <path
           style="fill:#000000;stroke:#000000;stroke-width:0.0499999;stroke-linecap:round;stroke-dasharray:none"
           d="m 93.879108,105.2608 c 0,0 1.204545,-0.84674 1.263536,-0.6796 0.05899,0.16714 -0.747322,0.69985 -0.727658,0.74901 0.01966,0.0492 1.268408,0.96173 1.415887,1.04039 0.147476,0.0787 1.268304,0.4326 1.327295,0.44243 0.05899,0.01 0.84554,0.0197 0.924193,0.0197 0.07865,0 1.160158,0.0688 1.150326,0.15731 -0.0098,0.0885 -1.376458,0.20647 -1.376458,0.20647 0,0 -0.01966,1.02251 -0.530918,0.99301 -0.511257,-0.0295 -1.514102,-0.36378 -1.740236,-0.78655 -0.226131,-0.42276 -0.147476,-0.6489 -0.373607,-0.8652 -0.226135,-0.2163 -1.269791,-0.95874 -1.299287,-1.01773 -0.07113,-0.14652 -0.243755,-0.0864 -0.03307,-0.25924 z"
           id="path1754"
           sodipodi:nodetypes="cssccsccssscc" />
        <path
           style="fill:#000000;stroke:#000000;stroke-width:0.0499999;stroke-linecap:round;stroke-dasharray:none"
           d="m 107.13271,105.60324 c 0,0 -3.02165,-0.5486 -4.07396,0.29199 -1.15591,0.92335 -1.3557,2.11626 -1.50166,3.80978 -0.20471,2.37517 -0.50056,2.8921 -0.86207,3.00333 -0.36151,0.11124 -1.404336,-0.0139 -1.571187,-0.0695 -0.166852,-0.0556 -1.598997,-0.73694 -1.598997,-0.73694 l 0.667409,-0.6674 -0.278088,-0.22247 c 0,0 -2.447158,2.30811 -2.252498,2.50277 0.194662,0.19466 1.250995,-0.9186 1.446049,-1.00111 0.361511,-0.15292 1.209676,0.61179 1.779752,0.87598 0.104027,0.0482 1.15406,0.48662 1.66852,0.0973 0.47274,-0.22247 0.72302,-0.55618 0.72302,-0.55618 0,0 0.27809,0.3059 0.47275,0.16686 0.19466,-0.13905 0.0834,-0.83426 0.16685,-2.00223 0.0834,-1.16796 0.39044,-3.86075 1.77975,-4.36595 2.14126,-0.77864 3.11457,0.30589 3.11457,0.30589 l 0.3337,-0.94549 z"
           id="path1756"
           sodipodi:nodetypes="csssscccsssccscsccc" />
        <path
           style="fill:#000000;stroke:#000000;stroke-width:0.0499999;stroke-linecap:round;stroke-dasharray:none"
           d="m 102.43306,108.00869 c 0,0 0.90378,0.30589 2.04393,0.29199 1.14016,-0.0139 2.19688,-0.33371 2.19688,-0.33371 l -0.63959,1.15406 -0.51446,0.57008 c 0,0 -0.92464,-0.13905 -1.97442,-0.57703 -0.81015,-0.33801 -1.34176,-0.84816 -1.34176,-0.84816 z"
           id="path1758"
           sodipodi:nodetypes="cscccscc" />
        <path
           style="fill:#000000;stroke:#000000;stroke-width:0.0499999;stroke-linecap:round"
           d="m 93.402411,121.1675 c 0,0 -1.214377,-0.71027 -2.276216,-2.48 -1.061836,-1.76973 -1.420553,-2.2786 -1.243581,-2.37692 0.176972,-0.0983 1.445569,1.5884 1.681532,1.86369 0.235964,0.27529 0.560126,0.77124 1.680954,1.77409 1.120831,1.00285 1.691077,1.59276 1.691077,1.59276 l -1.120831,-0.31462 z"
           id="path865"
           sodipodi:nodetypes="cssssccc" />
        <path
           style="fill:#000000;stroke:#000000;stroke-width:0.0499999;stroke-linecap:round"
           d="m 94.451984,115.50311 c 0.639598,-0.72302 1.140155,-1.41824 1.265293,-1.26529 0.12514,0.15295 -0.236374,0.50055 -0.180756,0.6674 0.05562,0.16686 1.106378,0.62344 2.433254,0.80646 1.875566,0.25871 2.836475,-0.37542 3.003335,-0.27809 0.16685,0.0973 0.68131,0.83426 0.59788,0.90378 -0.0834,0.0695 -0.52836,-0.18076 -0.6674,-0.18076 -0.13905,0 -0.80645,0.0417 -0.83426,0.12514 -0.0278,0.0834 -0.542273,1.04283 -0.959402,1.11235 -0.417129,0.0695 -0.702168,0.0765 -0.716072,0.1877 -0.01389,0.11124 0.25028,0.4519 -0.0139,0.43799 -0.264181,-0.0139 -0.215515,-0.43103 -0.340655,-0.44494 -0.12514,-0.0139 -1.342669,-0.2757 -1.804186,-0.49817 -0.361278,-0.17415 -0.809826,-0.46122 -0.670782,-0.57246 0.139044,-0.11123 1.320911,0.58398 2.141265,0.6257 0.820354,0.0417 1.459952,0.0139 1.446048,-0.43104 -0.01389,-0.44494 -0.862068,-0.23637 -1.710229,-0.50055 -0.848164,-0.26419 -1.877084,-1.01502 -2.057839,-0.97331 -0.180756,0.0417 -1.02892,1.08454 -1.251389,1.14016 -0.222467,0.0556 -0.570077,0.20856 -0.570077,0.0834 0,-0.12514 0.06952,-0.0417 0.34761,-0.3198 0.278085,-0.27809 0.542266,-0.6257 0.542266,-0.6257 z"
           id="path963"
           sodipodi:nodetypes="csssssssssssssssssssscc" />
        <path
           style="fill:#000000;stroke:none;stroke-width:0.4;stroke-linecap:round;stroke-dasharray:none"
           d="m 104.25675,114.02959 c 0,0 0.36378,-0.6489 0.49159,-0.99301 0.12782,-0.34412 0.10816,-0.75705 0.22614,-0.72756 0.11798,0.0295 0.0196,0.90453 -0.059,1.1405 -0.0787,0.23596 -0.17698,0.50142 -0.17698,0.50142 l -0.22613,-0.0197 z"
           id="path1138" />
        <path
           style="fill:none;stroke:#000000;stroke-width:0.799999;stroke-linecap:round;stroke-dasharray:none"
           d="m 70.905238,171.03931 3.855856,0.74129 c 0,0 0.155335,2.10671 -0.03933,4.02551 -0.19466,1.91879 -0.978073,4.57551 -0.978073,4.57551 l -2.932822,-0.53511"
           id="path1264"
           sodipodi:nodetypes="ccscc" />
        <path
           style="fill:#ffffff;stroke:#000000;stroke-width:0.499999;stroke-linecap:round;stroke-dasharray:none"
           d="m 75.665784,178.93935 c 0,0 -1.101167,1.86805 0.471927,3.10686 1.573093,1.23881 3.38215,-0.57024 3.38215,-0.57024 l -1.337127,-2.67426 z"
           id="path1394" />
        <path
           style="fill:#ffffff;stroke:#000000;stroke-width:0.5;stroke-linecap:round;stroke-dasharray:none"
           d="m 74.918564,172.72564 c 0,0 1.376457,0.1573 2.005695,0.0393 0.629237,-0.11798 2.988876,-1.88771 5.151879,-1.88771 2.163003,0 7.393538,-0.0393 7.393538,-0.0393 l 0.314619,1.76973 -3.716433,0.80621 c 0,0 1.105607,1.28939 2.575941,2.57594 1.258474,1.10117 3.146187,2.55628 3.106859,2.75292 -0.03933,0.19663 -0.244687,1.02448 -1.052295,1.3419 -0.623305,0.24497 -1.599542,-0.01 -1.599542,-0.01 0,0 -0.02781,1.12625 -1.140153,1.32091 -1.112345,0.19466 -2.182976,-0.16685 -2.182976,-0.16685 0,0 -0.90378,1.39043 -3.740261,1.02892 -2.690399,-0.34289 -4.032249,-2.11346 -4.64404,-2.39154 -0.61179,-0.27809 -0.389321,-0.75084 -1.473857,-0.9455 -0.876307,-0.15728 -1.751944,-0.13904 -1.751944,-0.13904 l 0.500557,-3.64293 z"
           id="path1266"
           sodipodi:nodetypes="csscccssscscsssccc" />
        <path
           style="fill:#000000;stroke:none;stroke-width:0.600001;stroke-linecap:round;stroke-dasharray:none"
           d="m 85.438625,181.29899 c 0,0 -0.545605,-0.3019 -0.801232,-0.61652 -0.25563,-0.31462 -0.625867,-1.02133 -0.496568,-1.11388 0.136248,-0.0578 0.819383,0.73282 1.057475,0.9683 0.415527,0.41096 1.120046,0.68246 1.120046,0.68246 z"
           id="path1322"
           sodipodi:nodetypes="cscscc" />
        <path
           style="fill:#000000;stroke:none;stroke-width:0.600001;stroke-linecap:round;stroke-dasharray:none"
           d="m 88.93841,180.28144 c 0,0 -0.629844,-0.13692 -0.971717,-0.35471 -0.341875,-0.21784 -0.927241,-0.80452 -0.833769,-0.93316 0.111036,-0.0979 0.933862,0.43024 1.309069,0.58498 0.411052,0.16953 1.21771,0.36936 1.21771,0.36936 z"
           id="path1378"
           sodipodi:nodetypes="cscscc" />
        <path
           style="fill:#ffffff;stroke:#000000;stroke-width:0.499999;stroke-linecap:round;stroke-dasharray:none"
           d="m 140.57473,147.11617 16.85774,-7.86879 c 0,0 1.76457,-0.89383 3.88824,-1.32643 2.12368,-0.4326 5.19121,-0.27529 5.19121,-0.27529 0,0 -1.19743,1.88065 -3.18551,3.57879 -1.88772,1.61241 -3.89329,2.49322 -3.89329,2.49322 l -16.63008,8.07198"
           id="path1384"
           sodipodi:nodetypes="ccscscc" />
        <path
           style="fill:#ffff00;stroke:#000000;stroke-width:0.499999;stroke-linecap:round;stroke-dasharray:none"
           d="m 119.13214,179.9774 -1.22933,34.84741 4.20007,0.28244 -0.007,-0.21456 -3.63816,-0.2882 1.84212,-34.29338 z"
           id="path3000"
           sodipodi:nodetypes="ccccccc" />
        <path
           style="fill:#ffffff;stroke:#000000;stroke-width:0.5;stroke-linecap:round;stroke-dasharray:none"
           d="m 120.26298,171.27052 c 0,0 -2.08435,2.16301 -3.10686,4.36534 -1.02251,2.20233 -0.7079,2.71358 -0.15731,2.87089 0.55058,0.15731 1.06184,-0.78654 1.06184,-0.78654 0,0 -0.31894,1.89568 -0.0687,2.45185 0.25028,0.55617 1.05673,0.27809 1.05673,0.27809 0,0 -0.47275,0.88987 0.27809,1.02892 0.75083,0.13904 1.33481,-0.19466 1.33481,-0.19466 0,0 0.44494,1.08453 1.44605,1.14015 1.00111,0.0556 2.44716,0.0278 2.44716,0.0278 l 1.00111,-10.42823 -3.50389,-2.47497 z"
           id="path2996" />
        <path
           id="path1174"
           style="fill:#ffff00;stroke:#000000;stroke-width:0.7;stroke-linecap:round;stroke-dasharray:none"
           d="m 121.69745,222.51573 c 8.64508,-2.3957 16.53938,-6.54424 23.31271,-12.0707 l -0.6002,-57.06844 c 0,0 0.26802,-6.94518 -2.83156,-7.55084 -3.42149,-0.66857 -8.37673,0.94385 -9.32059,3.22483 -1.29537,3.13044 -0.39327,4.6013 -0.39327,4.6013 0,0 -1.69107,0.58991 -1.96637,2.24166 -0.27529,1.65175 0.11799,3.50013 0.11799,3.50013 0,0 -1.41579,0.11798 -2.20233,1.17982 -0.78655,1.06184 -0.47193,2.79224 -0.47193,2.79224 0,0 -1.1405,0 -2.24166,1.10117 -1.10117,1.10116 -0.8759,2.76641 -0.8759,2.76641 0,0 -1.74554,-0.33685 -3.02705,0.96968 -1.4668,1.49543 -0.97364,3.02821 -0.97364,3.02821 0,0 1.61242,-0.62924 2.94955,0.15731 1.33713,0.78654 1.17982,4.95524 0.94386,8.96663 -0.23597,4.01139 -2.41961,42.16059 -2.41961,42.16059 z"
           sodipodi:nodetypes="cccsscscscscscssc" />
        <path
           style="fill:#ffffff;stroke:#000000;stroke-width:0.499999;stroke-linecap:round;stroke-dasharray:none"
           d="m 93.826292,175.75049 29.021568,-14.08861 6.91618,-9.33465 -38.384909,17.91715"
           id="path1388"
           sodipodi:nodetypes="cccc" />
        <path
           style="fill:none;stroke:#000000;stroke-width:0.499999;stroke-linecap:round;stroke-dasharray:none"
           d="M 97.941967,170.52247 126.55005,156.56756"
           id="path1392"
           sodipodi:nodetypes="cc" />
        <path
           style="fill:#ffffff;stroke:#000000;stroke-width:0.499999;stroke-linecap:round;stroke-dasharray:none"
           d="m 86.992053,167.9277 2.831569,-1.2978 5.663137,12.97802 -2.713586,1.21915 z"
           id="path1380"
           sodipodi:nodetypes="ccccc" />
        <path
           style="fill:none;stroke:#000000;stroke-width:0.499999;stroke-linecap:round;stroke-dasharray:none"
           d="m 144.5097,148.02515 13.88112,-6.49813"
           id="path1496"
           sodipodi:nodetypes="cc" />
        <path
           style="fill:#000000;stroke:#000000;stroke-width:0.05;stroke-linecap:round;stroke-dasharray:none"
           d="m 82.063244,117.68609 c 0,0 2.41935,4.11568 5.45049,4.58842 3.031138,0.47275 6.729687,-0.6396 6.729687,-0.6396 l -0.278088,-0.44493 -3.031138,0.38931 -3.337036,-0.58398 -2.502776,-1.69632 -1.02892,-1.80756 -0.139041,-0.47275 z"
           id="path1542"
           sodipodi:nodetypes="cscccccccc" />
        <path
           id="path1641"
           style="fill:none;stroke:#000000;stroke-width:0.55;stroke-linecap:round"
           d="m 94.070974,127.24358 c 2e-6,1.64958 -0.560796,3.12638 -1.348694,3.46162 -0.119848,0.051 -0.214772,0.0483 -0.342381,0.0483 -0.966537,0 -1.80906,-1.60948 -1.809058,-3.50997 0,-1.90049 0.783532,-3.44114 1.750067,-3.44114 0.966535,0 1.750064,1.54065 1.750066,3.44114 z"
           sodipodi:nodetypes="sssssss" />
        <path
           style="fill:#000000;stroke:#000000;stroke-width:0.1;stroke-linecap:round;stroke-dasharray:none"
           d="m 94.299036,126.80732 c 0,0 3.865398,-0.16686 11.401534,-2.58621 7.53614,-2.41935 10.81756,-4.14348 10.81756,-4.14348 l 1.6129,1.33481 c 0,0 -4.505,1.69633 -11.48496,3.58732 -6.979969,1.89098 -12.458267,2.25249 -12.458267,2.25249 z"
           id="path1643"
           sodipodi:nodetypes="csccscc" />
        <path
           style="fill:#000000;stroke:#000000;stroke-width:0.1;stroke-linecap:round;stroke-dasharray:none"
           d="m 76.557136,121.74615 c 0,0 2.614012,1.80756 7.146817,2.86429 4.532804,1.05672 7.007772,1.33481 7.007772,1.33481 l -0.166851,1.2792 c 0,0 -2.780864,-0.41713 -8.28697,-1.64071 -5.506108,-1.22358 -7.591753,-2.00222 -7.591753,-2.00222 l 1.640708,-0.50056 z"
           id="path1692" />
        <path
           style="fill:#000000;stroke:#000000;stroke-width:0.1;stroke-linecap:round;stroke-dasharray:none"
           d="m 89.685978,126.57501 c 0,0 -0.362856,0.90939 0.235962,2.41863 0.866422,2.18369 2.592352,1.96861 2.592352,1.96861 l -1.471523,-1.35903 -0.432599,-2.04502 -0.03933,-1.04218 z"
           id="path1694"
           sodipodi:nodetypes="csccccc" />
        <circle
           style="fill:none;stroke:#000000;stroke-width:0.6;stroke-linecap:round;stroke-dasharray:none"
           id="path1747"
           cx="69.160042"
           cy="142.07425"
           r="2.3081155" />
        <circle
           style="fill:none;stroke:#000000;stroke-width:0.6;stroke-linecap:round;stroke-dasharray:none"
           id="circle1749"
           cx="108.8775"
           cy="137.69678"
           r="2.3081155" />
        <ellipse
           style="fill:#000000;stroke:#000000;stroke-width:0.600001;stroke-linecap:round;stroke-dasharray:none"
           id="path1751"
           cx="69.146141"
           cy="141.99083"
           rx="0.33370346"
           ry="0.31979915" />
        <ellipse
           style="fill:#000000;stroke:#000000;stroke-width:0.600001;stroke-linecap:round;stroke-dasharray:none"
           id="ellipse1753"
           cx="108.8864"
           cy="137.62549"
           rx="0.33370346"
           ry="0.31979915" />
        <path
           style="fill:#000000;stroke:#000000;stroke-width:0.05;stroke-linecap:round;stroke-dasharray:none"
           d="m 79.24457,124.35302 4.797936,9.55654 c 0,0 -2.634932,8.88798 -3.224842,10.77569 -0.409222,1.3095 -4.876589,4.40466 -5.781117,4.91591 -0.904529,0.51126 -2.831568,0.82588 -2.831568,0.82588 l -2.084348,-6.09574 -1.34991,0.19011 -1.223578,-1.00111 -0.750832,-0.91769 0.194659,-1.39043 0.862068,-1.11234 0.472747,-0.25028 c 0,0 -3.479789,0.53675 -2.163722,4.52803 0.583649,1.77006 3.693196,1.81234 3.693196,1.81234 l 1.6129,5.67296 c 0,0 3.201534,-0.3132 5.464804,-2.33791 1.436167,-1.28478 4.337326,-3.93172 5.004733,-6.01737 0.667406,-2.08564 2.90641,-9.66471 2.90641,-9.66471 0,0 0.472747,-0.86207 -0.05562,-1.39043 -0.528363,-0.52837 -4.560613,-8.20355 -4.560613,-8.20355 z"
           id="path1755"
           sodipodi:nodetypes="ccssccccccccsccsscscc" />
        <path
           style="fill:#000000;stroke:#000000;stroke-width:0.0499999;stroke-linecap:round;stroke-dasharray:none"
           d="m 106.92416,136.03978 c 0,0 -2.8643,2.28031 -0.31981,4.47719 2.47699,2.1386 5.07508,-1.75195 5.07508,-1.75195 l -0.50056,-0.16685 -1.39043,1.19577 -1.33481,0.16686 -1.39044,-0.77865 -0.52836,-1.19577 0.3059,-1.22358 z"
           id="path1757"
           sodipodi:nodetypes="cscccccccc" />
        <path
           style="fill:#000000;stroke:#000000;stroke-width:0.0499999;stroke-linecap:round;stroke-dasharray:none"
           d="m 101.58249,125.84746 -4.48331,9.16326 c 0,0 0.681337,5.626 2.20233,8.37673 1.84839,3.34282 4.6013,5.74179 7.27556,5.58447 3.26231,-0.19191 4.48331,-0.23596 4.48331,-0.23596 l 0.19664,-1.53376 c 0,0 -4.87659,1.45511 -6.84296,0.19663 -1.96637,-1.25847 -5.309188,-5.38784 -5.85977,-8.57335 -0.550582,-3.18552 -0.668565,-3.97206 -0.668565,-3.97206 l 4.247355,-9.04529 z"
           id="path1759"
           sodipodi:nodetypes="ccssccssccc" />
        <path
           style="fill:#000000;stroke:#000000;stroke-width:0.0499999;stroke-linecap:round;stroke-dasharray:none"
           d="m 56.945974,144.01668 8.337394,7.9048 -0.98516,1.62115 -7.509542,-7.95285 0.275291,-0.8652 z"
           id="path1873"
           sodipodi:nodetypes="cccccc" />
        <path
           style="fill:#000000;stroke:#000000;stroke-width:0.0499999;stroke-linecap:round;stroke-dasharray:none"
           d="m 48.588916,162.32356 c 0.07866,0 8.632349,0.0983 8.632349,0.0983 0,0 0.997502,-0.97775 1.848386,-1.34696 0.933824,-0.4052 2.113844,0.28512 2.113844,0.28512 l -0.20647,0.60958 c 0,0 -0.629237,-0.51126 -1.769729,-0.29495 -0.570817,0.10826 -1.769729,1.67141 -1.769729,1.67141 l -9.497552,0.4326 0.314619,-0.60957 z"
           id="path1875"
           sodipodi:nodetypes="ccsccscccc" />
        <path
           style="fill:#000000;stroke:#000000;stroke-width:0.0499999;stroke-linecap:round;stroke-dasharray:none"
           d="m 45.049969,171.96852 c 0.139041,0 1.696325,-1.22358 5.64515,-3.14238 3.948824,-1.91879 6.395981,-3.03113 6.562833,-2.83648 0.166851,0.19467 -3.364841,1.86318 -7.146814,4.14349 -3.781973,2.28031 -4.810892,3.25361 -4.810892,3.25361 l -0.278088,-0.58398 z"
           id="path1877" />
        <path
           style="fill:#000000;stroke:#000000;stroke-width:0.0499999;stroke-linecap:round;stroke-dasharray:none"
           d="m 53.426179,176.67803 c 0,0 1.651747,-2.63493 3.10686,-4.30634 1.45511,-1.67141 2.733249,-2.43829 3.205175,-2.47762 0.47193,-0.0393 0.952993,0.0834 1.41776,-0.15255 0.624922,-0.3173 1.276164,-1.08626 1.276164,-1.08626 l 0.137644,0.84553 c 0,0 -0.229104,0.41157 -1.207217,0.88586 -0.768049,0.37243 -1.604687,0.0973 -1.860314,0.23497 -0.255627,0.13765 -1.632085,1.45511 -2.752913,3.12652 -1.120828,1.67142 -1.828721,3.14619 -1.828721,3.14619 z"
           id="path1879"
           sodipodi:nodetypes="csssccssscc" />
        <path
           style="fill:#000000;stroke:#000000;stroke-width:0.0499999;stroke-linecap:round;stroke-dasharray:none"
           d="m 90.688823,168.39963 c 0,0 0.157311,-5.34852 0.471929,-17.77595 0.314619,-12.42744 0.294955,-14.64944 0.530919,-14.64944 0.235963,0 0.271441,13.52491 0.104589,20.08775 -0.166851,6.56283 -0.528362,13.68184 -0.528362,13.68184 z"
           id="path1941" />
        <path
           style="fill:#000000;stroke:#000000;stroke-width:0.0499999;stroke-linecap:round;stroke-dasharray:none"
           d="m 72.747356,180.25549 c 0,0 -2.780863,8.62067 -4.338145,17.4082 -1.557285,8.78752 -2.391543,14.29363 -2.391543,14.29363 l 0.389321,0.22247 c 0,0 0.723025,-7.7308 3.281418,-18.18684 2.558394,-10.45604 3.670737,-13.79308 3.670737,-13.79308 z"
           id="path1943" />
        <path
           style="fill:#000000;stroke:#000000;stroke-width:0.0499999;stroke-linecap:round;stroke-dasharray:none"
           d="m 75.27251,180.47312 c 0,0 -2.413921,8.06934 -3.971203,15.85575 -1.557284,7.78642 -3.003333,17.46382 -3.003333,17.46382 l 0.387208,0.16765 c 0,0 2.560507,-16.35227 4.395877,-22.80387 1.83537,-6.4516 2.780861,-9.39932 2.780861,-9.39932 l -0.250278,-0.3337 -0.250277,-0.47275 z"
           id="path1945" />
        <path
           style="fill:#000000;stroke:#000000;stroke-width:0.0499999;stroke-linecap:round;stroke-dasharray:none"
           d="m 77.160222,182.55747 -4.12937,33.97881 0.589909,0.4326 4.738944,-34.62771 z"
           id="path2010" />
        <path
           style="fill:#000000;stroke:#000000;stroke-width:0.0499999;stroke-linecap:round;stroke-dasharray:none"
           d="m 81.564884,182.24285 -2.894293,37.19499 0.695216,0.3337 3.2258,-37.43041 z"
           id="path2012" />
        <path
           style="fill:#ffff00;stroke:#000000;stroke-width:0.65;stroke-linecap:round;stroke-dasharray:none"
           d="m 98.555443,173.60277 6.422107,0.34016"
           id="path2079"
           sodipodi:nodetypes="cc" />
        <path
           style="fill:#ffff00;stroke:#000000;stroke-width:0.649999;stroke-linecap:round;stroke-dasharray:none"
           d="m 94.248771,176.18728 11.257139,0.78679"
           id="path2081"
           sodipodi:nodetypes="cc" />
        <path
           style="fill:#ffff00;stroke:#000000;stroke-width:0.5;stroke-linecap:round;stroke-dasharray:none"
           d="M 107.04899,185.34971 101.66115,176.855"
           id="path2083" />
        <path
           style="fill:#000000;stroke:none;stroke-width:0.499999;stroke-linecap:round;stroke-dasharray:none"
           d="m 98.986892,176.57971 c 0,0 5.309188,8.25874 7.196898,11.32628 1.88771,3.06753 3.57879,6.52833 3.77543,7.27555 0.19663,0.74722 0.39348,1.82752 0.39348,1.82752 l -0.65051,-0.0395 c 0,0 -0.11164,-1.71017 -1.31607,-3.67571 -1.55037,-2.53009 -11.365596,-16.79277 -11.365596,-16.79277 z"
           id="path2085"
           sodipodi:nodetypes="cssccscc" />
        <path
           style="fill:#000000;stroke:none;stroke-width:0.499999;stroke-linecap:round;stroke-dasharray:none"
           d="m 96.579345,176.44571 1.696326,48.0533 0.444936,0.0278 -1.112343,-48.02549 z"
           id="path2156" />
        <path
           style="fill:#000000;stroke:none;stroke-width:0.499999;stroke-linecap:round;stroke-dasharray:none"
           d="m 100.08125,180.42373 2.0125,44.33196 h 0.41294 l -1.3568,-43.69266 z"
           id="path2158"
           sodipodi:nodetypes="ccccc" />
        <path
           style="fill:#000000;stroke:none;stroke-width:0.499999;stroke-linecap:round;stroke-dasharray:none"
           d="m 102.60501,184.26821 3.45708,40.48107 0.73692,-0.0139 -3.51779,-40.0166 z"
           id="path2231" />
        <path
           style="fill:#000000;stroke:none;stroke-width:0.499999;stroke-linecap:round;stroke-dasharray:none"
           d="m 105.42249,188.48684 3.2536,36.20683 0.75084,-0.0556 -3.44827,-35.84532 z"
           id="path2233" />
        <path
           style="fill:#000000;stroke:none;stroke-width:0.499999;stroke-linecap:round;stroke-dasharray:none"
           d="m 107.83554,191.99603 c 0,0 0.55058,7.90479 1.80906,18.79846 1.25847,10.89367 1.65175,13.60726 1.65175,13.60726 l 0.58991,-0.0787 -3.34283,-31.57984 z"
           id="path2235" />
        <path
           style="fill:#000000;stroke:#000000;stroke-width:0.05;stroke-linecap:round;stroke-dasharray:none"
           d="m 117.54704,136.67938 c 0,0 1.66852,-2.22469 2.47497,-6.14571 0.80645,-3.92101 1.16797,-6.89654 1.16797,-6.89654 l 0.6674,0.47275 c 0,0 -0.19466,4.14349 -1.00111,7.50833 -0.80645,3.36484 -1.39043,4.89432 -1.39043,4.89432 l -1.02892,-0.19467 z"
           id="path2311"
           sodipodi:nodetypes="csccsccc" />
        <path
           style="fill:none;stroke:#000000;stroke-width:0.55;stroke-linecap:round;stroke-dasharray:none"
           d="m 138.65833,131.36312 -5.96792,7.06908 c 0,0 -1.54352,-0.5998 -2.39896,0.19664 -0.83448,0.77692 -0.90453,1.71074 -0.90453,1.71074"
           id="path2313"
           sodipodi:nodetypes="ccsc" />
        <path
           style="fill:#000000;stroke:none;stroke-width:0.55;stroke-linecap:round;stroke-dasharray:none"
           d="m 145.63375,133.34234 c 0,0 -9.95548,6.42379 -9.87206,6.64626 0.0834,0.22247 11.04003,-5.33925 11.04003,-5.33925 z"
           id="path2315" />
        <path
           style="fill:#000000;stroke:#000000;stroke-width:0.05;stroke-linecap:round;stroke-dasharray:none"
           d="m 124.08207,167.54695 c 0,0 2.39154,0.69521 3.05895,3.78197 0.66741,3.08676 1.16796,10.59509 1.11234,22.21909 -0.0556,11.624 0.0556,26.64066 0.0556,26.64066 l 0.66741,-0.22247 -0.22247,-41.26799 c 0,0 -0.34515,-7.41643 -1.29404,-9.19742 -1.27814,-2.39896 -3.22484,-2.69392 -3.22484,-2.69392 z"
           id="path2474"
           sodipodi:nodetypes="csscccscc" />
        <path
           style="fill:#000000;stroke:#000000;stroke-width:0.0499999;stroke-linecap:round;stroke-dasharray:none"
           d="m 127.47472,163.68155 c 0,0 2.11346,-0.50056 3.75417,1.83537 1.64071,2.33592 1.77975,7.50832 1.83537,9.84425 0.0556,2.33593 0.22247,42.65843 0.22247,42.65843 l 0.75083,-0.38932 -0.27809,-44.77189 c 0,0 -0.47434,-6.82672 -2.55839,-8.59286 -1.88564,-1.598 -3.91962,-1.26908 -3.91962,-1.26908 z"
           id="path2476"
           sodipodi:nodetypes="csscccscc" />
        <path
           style="fill:#000000;stroke:#000000;stroke-width:0.0499999;stroke-linecap:round;stroke-dasharray:none"
           d="m 130.21279,159.70829 c 0,0 1.91031,-0.23774 3.63778,1.10116 0.86729,0.67221 2.8119,3.26417 2.85123,9.47789 0.0393,6.21372 0.17697,45.67869 0.17697,45.67869 l 0.76689,-0.41293 -0.3823,-45.97612 c 0,0 -0.32857,-8.20549 -3.40418,-9.84816 -2.48799,-1.32882 -4.64491,-0.55926 -3.8092,-0.79522 z"
           id="path2558"
           sodipodi:nodetypes="csscccscc" />
        <path
           style="fill:#000000;stroke:#000000;stroke-width:0.0499999;stroke-linecap:round;stroke-dasharray:none"
           d="m 131.75725,153.92072 c 0,0 2.72525,-0.47274 4.86651,0.91769 2.14126,1.39043 2.5862,3.58731 2.5862,5.78419 0,2.19688 0.47275,53.68454 0.47275,53.68454 l 0.80645,-0.57007 -0.60185,-53.55685 c 0,0 -0.21486,-5.91838 -4.66365,-6.88188 -2.59985,-0.56306 -3.49578,0.0854 -3.49578,0.0854 z"
           id="path2641"
           sodipodi:nodetypes="csscccscc" />
        <path
           style="fill:#000000;stroke:#000000;stroke-width:0.0499999;stroke-linecap:round;stroke-dasharray:none"
           d="m 129.91783,158.56779 c 0,0 2.04503,-0.19663 3.26417,0.45227 1.21915,0.6489 1.90738,1.88771 1.90738,1.88771 l -3.00854,-1.41578 -2.18267,-0.25563 z"
           id="path2725"
           sodipodi:nodetypes="cscccc" />
        <path
           style="fill:#000000;stroke:#000000;stroke-width:0.0499999;stroke-linecap:round;stroke-dasharray:none"
           d="m 131.49093,152.826 c 0,0 1.59872,-0.59616 3.55912,0.19664 2.67426,1.0815 2.92989,2.06469 2.92989,2.06469 l -4.28668,-1.51411 -1.88771,-0.0786 z"
           id="path2727"
           sodipodi:nodetypes="cscccc" />
        <path
           style="fill:#000000;stroke:#000000;stroke-width:0.0499999;stroke-linecap:round;stroke-dasharray:none"
           d="m 129.5049,174.77066 c 0,0 -0.35319,-3.94024 -0.74722,-5.62381 -0.64891,-2.77258 -1.76973,-2.79224 -1.57309,-2.98888 0.19663,-0.19664 3.14618,0.0787 3.81475,2.47762 0.66856,2.39897 0.58991,41.09706 0.58991,41.09706 0,0 -0.12347,-1.34143 -0.16653,-3.54949 -0.18964,-9.72376 -0.62842,-36.07328 -0.89531,-36.80035 -0.57024,-1.55343 -1.68432,-2.20949 -1.68432,-2.20949 0,0 0.33485,1.19448 0.68921,4.12699 0.14655,1.21287 -0.0274,3.47035 -0.0274,3.47035 z"
           id="path2813"
           sodipodi:nodetypes="cssscsscsc" />
        <path
           style="fill:none;stroke:#000000;stroke-width:0.65;stroke-linecap:round;stroke-dasharray:none"
           d="m 135.38433,151.64619 c 0,0 0.47193,-0.27529 0.86521,-0.21631 0.39327,0.059 1.33713,1.59276 1.9467,1.61243 0.60957,0.0197 0.92419,-0.96352 0.92419,-0.96352"
           id="path2815" />
        <path
           style="fill:#000000;stroke:#000000;stroke-width:0.0499999;stroke-linecap:round;stroke-dasharray:none"
           d="m 142.15768,160.12205 c -0.0556,-5.7842 0.11764,-9.16214 -0.83706,-9.61841 -1.81907,-0.86937 -1.63791,0.94211 -1.99942,0.74746 -0.36152,-0.19466 -0.13905,-1.5851 1.08453,-1.5851 1.22358,0 2.33593,1.08454 2.33593,3.2258 0,2.14127 0.41712,39.40482 0.0556,39.40482 -0.36151,0 -0.63959,-32.17457 -0.63959,-32.17457 z"
           id="path2817"
           sodipodi:nodetypes="sssssscs" />
        <path
           style="fill:none;stroke:#000000;stroke-width:0.499999;stroke-linecap:round;stroke-dasharray:none"
           d="m 117.99198,177.97518 c 0,0 0.13905,-0.41713 0.50056,-1.58509 0.36151,-1.16796 1.14015,-2.33593 1.14015,-2.33593"
           id="path2998" />
        <path
           style="fill:#ffff00;stroke:#000000;stroke-width:0.499999;stroke-linecap:round;stroke-dasharray:none"
           d="m 118.27007,202.25211 -4.58842,-5.06117 c 0,0 -1.23958,-1.5699 0.22247,-2.5862 1.15471,-0.80266 2.24846,0.67261 3.11175,1.64594 1.02075,1.15085 1.46276,1.67719 1.46276,1.67719 z"
           id="path3093"
           sodipodi:nodetypes="ccsscc" />
        <path
           style="fill:none;stroke:#000000;stroke-width:0.499999;stroke-linecap:round;stroke-dasharray:none"
           d="m 114.65495,195.91174 3.69377,3.9935"
           id="path3095"
           sodipodi:nodetypes="cc" />
      </g>
      <g
         id="g3880"
         transform="translate(-182.7205,0.26908836)">
        <path
           style="fill:#ffffff;stroke:#000000;stroke-width:0.499999;stroke-linecap:round;stroke-dasharray:none"
           d="m 328.89465,91.31806 2.91004,-3.618121 h -22.14128 c 0,0 -8.18011,-0.632442 -7.94414,4.994579 0.19114,4.557963 4.43018,7.951402 4.89627,9.163262 1.37645,3.57879 1.76971,5.26987 1.76971,5.26987 l 0.68824,-4.95525 c 0,0 -4.34248,-5.770903 -4.93616,-7.904789 -0.73652,-2.647269 0.57083,-4.28668 3.24508,-4.601298 2.67428,-0.314619 5.85996,1.651747 5.85996,1.651747 z"
           id="path3874"
           sodipodi:nodetypes="cccssccsscc" />
        <path
           id="path3795"
           style="fill:#ffffff;stroke:#000000;stroke-width:0.499999;stroke-linecap:round;stroke-dasharray:none"
           d="m 313.3602,93.992196 c 0,0 -5.19128,3.225098 -5.66322,9.360154 -0.47191,6.13506 7.00009,10.46086 7.00009,10.46086 l -1.17977,2.1239 h 7.55096 7.55096 l -1.17978,-2.1239 c 0,0 7.472,-4.3258 7.00009,-10.46086 -0.47194,-6.135056 -5.66322,-9.360154 -5.66322,-9.360154 h -7.70805 z" />
        <path
           style="fill:none;stroke:#000000;stroke-width:0.499999;stroke-linecap:round;stroke-dasharray:none"
           d="m 314.69703,113.81329 h 12.74246"
           id="path3800" />
        <path
           id="path3806"
           style="fill:#ffffff;stroke:#000000;stroke-width:0.499999;stroke-linecap:round;stroke-dasharray:none"
           d="m 313.24238,91.31794 v 2.674256 h 7.82588 7.82639 V 91.31794 h -7.82639 z" />
      </g>
    </g>
  </g>
</svg>
