<?xml version="1.0" encoding="UTF-8" standalone="no"?>
<!-- Created with Inkscape (http://www.inkscape.org/) -->

<svg
   width="139.74319mm"
   height="152.24889mm"
   viewBox="0 0 139.74319 152.24889"
   version="1.1"
   id="svg7121"
   inkscape:version="1.2.2 (732a01da63, 2022-12-09)"
   sodipodi:docname="Wappen Sarzbüttel2.svg"
   xmlns:inkscape="http://www.inkscape.org/namespaces/inkscape"
   xmlns:sodipodi="http://sodipodi.sourceforge.net/DTD/sodipodi-0.dtd"
   xmlns="http://www.w3.org/2000/svg"
   xmlns:svg="http://www.w3.org/2000/svg">
  <sodipodi:namedview
     id="namedview7123"
     pagecolor="#ffffff"
     bordercolor="#666666"
     borderopacity="1.0"
     inkscape:showpageshadow="2"
     inkscape:pageopacity="0.0"
     inkscape:pagecheckerboard="0"
     inkscape:deskcolor="#d1d1d1"
     inkscape:document-units="mm"
     showgrid="false"
     inkscape:zoom="0.93022764"
     inkscape:cx="264.4514"
     inkscape:cy="288.63902"
     inkscape:current-layer="layer1" />
  <defs
     id="defs7118">
    <inkscape:path-effect
       effect="powerstroke"
       id="path-effect2025"
       is_visible="true"
       lpeversion="1"
       offset_points="0.14278436,0.16570629 | 1.0015551,0.33111752 | 1.8,0.24999949"
       not_jump="false"
       sort_points="true"
       interpolator_type="CentripetalCatmullRom"
       interpolator_beta="0.2"
       start_linecap_type="zerowidth"
       linejoin_type="round"
       miter_limit="4"
       scale_width="1"
       end_linecap_type="zerowidth" />
    <inkscape:path-effect
       effect="powerstroke"
       id="path-effect1224"
       is_visible="true"
       lpeversion="1"
       offset_points="0.14278436,0.16570629 | 1.0015551,0.33111752 | 1.8,0.24999949"
       not_jump="false"
       sort_points="true"
       interpolator_type="CentripetalCatmullRom"
       interpolator_beta="0.2"
       start_linecap_type="zerowidth"
       linejoin_type="round"
       miter_limit="4"
       scale_width="1"
       end_linecap_type="zerowidth" />
  </defs>
  <g
     inkscape:label="Ebene 1"
     inkscape:groupmode="layer"
     id="layer1"
     transform="translate(-569.43349,-73.634033)">
    <g
       id="g6797"
       transform="translate(534.41097,3.90614)">
      <path
         id="path4658"
         style="fill:#ffff00;fill-opacity:1;stroke:#000000;stroke-width:0.7;stroke-linecap:round;stroke-dasharray:none"
         d="m 35.372518,70.077893 v 82.027547 a 69.521561,69.521561 0 0 0 69.521852,69.52134 69.521561,69.521561 0 0 0 69.52134,-69.52134 V 70.077893 Z" />
      <path
         id="path4784"
         style="fill:#009f01;fill-opacity:1;stroke:#000000;stroke-width:0.4;stroke-linecap:round;stroke-dasharray:none"
         d="m 104.89386,110.67231 c -26.962781,0 -51.44896,5.31683 -69.521342,13.97331 v 27.45982 a 69.521561,69.521561 0 0 0 69.521852,69.52134 69.521561,69.521561 0 0 0 69.52134,-69.52134 v -27.45982 c -18.07238,-8.65648 -42.55908,-13.97331 -69.52185,-13.97331 z" />
      <path
         id="path845"
         style="fill:#ffffff;fill-opacity:1;stroke:#000000;stroke-width:0.4;stroke-dasharray:none"
         d="m 160.44085,189.77601 c -10.21589,7.8e-4 -17.53539,8.24933 -27.75127,8.25015 -10.21593,8.9e-4 -17.54159,-8.24633 -27.75748,-8.2455 -10.215964,7.8e-4 -17.536358,8.24932 -27.752315,8.25015 -10.215965,7.8e-4 -17.541011,-8.24632 -27.756962,-8.2455 -0.95738,8e-5 -1.882356,0.0919 -2.793628,0.22325 a 69.521561,69.521561 0 0 0 58.265175,31.61822 69.521561,69.521561 0 0 0 58.27758,-31.63683 c -0.89136,-0.12555 -1.7957,-0.21401 -2.7311,-0.21394 z" />
      <path
         id="path5675"
         style="fill:#0000ff;fill-opacity:1;stroke:#000000;stroke-width:0.4;stroke-dasharray:none"
         d="m 104.9321,197.71816 c -10.215964,7.8e-4 -17.536358,8.24932 -27.752315,8.25015 -9.08137,6.9e-4 -15.879861,-6.51171 -24.453804,-7.95869 a 69.521561,69.521561 0 0 0 19.005041,15.14326 c 1.740815,0.46617 3.544506,0.75307 5.448763,0.75293 10.215957,-8.3e-4 17.536351,-8.24937 27.752315,-8.25015 10.21589,-8.3e-4 17.54155,8.24639 27.75748,8.2455 1.85794,-1.5e-4 3.61889,-0.27488 5.32008,-0.72141 a 69.521561,69.521561 0 0 0 19.04742,-15.16496 c -8.53498,1.4754 -15.31466,7.94814 -24.3675,7.94887 -10.21593,8.9e-4 -17.54159,-8.24633 -27.75748,-8.2455 z" />
      <path
         id="path5679"
         style="fill:#0000ff;fill-opacity:1;stroke:#000000;stroke-width:0.4;stroke-dasharray:none"
         d="m 104.9321,213.59316 c -6.503826,5e-4 -11.835322,3.33939 -17.486275,5.76916 a 69.521561,69.521561 0 0 0 17.448545,2.26446 69.521561,69.521561 0 0 0 17.49919,-2.27893 c -5.64185,-2.42787 -10.96854,-5.75521 -17.46146,-5.75469 z" />
      <path
         id="path5798"
         style="fill:none;fill-opacity:1;stroke:#000000;stroke-width:0.7;stroke-linecap:round;stroke-dasharray:none"
         d="m 35.372518,70.077893 v 82.027547 a 69.521561,69.521561 0 0 0 69.521852,69.52134 69.521561,69.521561 0 0 0 69.52134,-69.52134 V 70.077893 Z" />
      <g
         id="g1264"
         transform="translate(-194.20914,-2.228185)">
        <g
           id="g1182">
          <g
             id="g1162">
            <path
               style="fill:#ffff00;stroke:#000000;stroke-width:0.499999;stroke-linecap:round"
               d="m 260.34432,171.07864 c 0,0 1.00111,4.86651 1.55728,7.00777 0.55618,2.14127 1.11235,3.61513 1.11235,3.61513 0,0 -0.11124,0.58398 -1.44605,1.44604 -1.33481,0.86207 -2.56119,1.39183 -2.56119,1.39183 0,0 0.66129,0.15886 1.72693,0.22105 0.7908,0.0462 1.39043,-0.0556 1.39043,-0.0556 0,0 0.55617,0.86206 1.77975,2.14126 1.22357,1.2792 2.94773,2.14127 2.94773,2.14127 0,0 -0.33152,-0.59514 -0.48428,-1.16966 -0.19971,-0.75112 -0.23875,-1.30531 -0.23875,-1.30531 0,0 1.12448,0.58517 2.11344,0.91768 1.14441,0.38478 2.78087,0.41713 2.78087,0.41713 0,0 -0.88986,-0.72302 -1.66851,-1.25139 -0.77864,-0.52836 -1.30701,-0.83425 -1.30701,-0.83425 l 3.76028,-0.38316 c 0,0 -5.65126,-2.56456 -6.90266,-6.06844 -1.25139,-3.50389 -1.11234,-6.1179 0.36153,-6.25694 1.47383,-0.13905 5.5617,-0.6118 5.5617,-0.6118 l 0.41714,-4.39376 -10.92879,0.0278 z"
               id="path1065"
               sodipodi:nodetypes="cscscscscscscsccsscccc" />
            <path
               style="fill:#ffff00;stroke:#000000;stroke-width:0.499999;stroke-linecap:round"
               d="m 275.01601,173.21723 c 0,0 0.98319,2.14334 1.67143,3.65744 0.68823,1.5141 0.90453,2.18266 0.90453,2.18266 0,0 -0.5506,0.90453 -1.69109,1.61243 -1.14048,0.70789 -2.71359,1.33713 -2.71359,1.33713 0,0 1.21915,0.17697 2.02536,0.17697 0.80621,0 1.86806,0.0393 1.86806,0.0393 0,0 0.25562,1.12082 1.55342,2.28098 1.29781,1.16016 2.81192,1.98603 2.81192,1.98603 0,0 -0.37362,-0.74722 -0.53092,-1.31746 -0.15732,-0.57025 -0.25564,-1.16016 -0.25564,-1.16016 0,0 0.7079,0.37361 2.33998,0.68823 1.63208,0.31462 2.67425,0.37361 2.67425,0.37361 0,0 -1.02251,-0.74722 -1.6714,-1.17982 -0.64889,-0.4326 -1.33713,-0.84554 -1.33713,-0.84554 l 3.99173,-0.4326 c 0,0 -5.44686,-2.43829 -6.27273,-4.14903 -0.82587,-1.71074 -2.04502,-4.93558 -2.04502,-4.93558 z"
               id="path906"
               sodipodi:nodetypes="cscscscscscscsccscc" />
            <path
               style="fill:#ffffff;stroke:#000000;stroke-width:0.499999;stroke-linecap:round;stroke-dasharray:none"
               d="m 286.14565,157.70259 c 0,0 1.005,-5.76517 -4.09003,-11.71954 -7.00121,-8.18206 -13.15961,-19.16998 -9.69756,-22.87501 4.33713,-4.64151 9.50319,0.7168 9.50319,0.7168 l -2.3846,4.09482 c 0.019,-0.005 -0.7081,0.41885 -1.39043,0.6257 -1.19941,0.36361 -1.69633,0.45883 -1.69633,0.45883 0,0 3.46339,7.85492 11.0929,15.79904 7.6295,7.94412 11.70195,16.49217 8.65201,23.20313 -5.46541,12.02585 -22.00365,5.54515 -22.00365,5.54515 0,0 -0.74853,0.33103 -2.53923,0.66473 -2.07643,0.38695 -4.12859,0.22725 -4.12859,0.22725 0,0 0.38932,-1.19577 1.02892,-1.94661 0.6396,-0.75083 1.55728,-1.47385 1.55728,-1.47385 0,0 -1.58151,0.79808 -2.68267,0.71942 -1.10117,-0.0786 -2.04502,-0.41293 -2.04502,-0.41293 0,0 0.6489,-0.62924 1.23881,-1.04218 0.58991,-0.41294 1.16015,-0.76688 1.16015,-0.76688 l -2.3793,0.11798 c 0,0 -4.85693,2.04502 -4.83726,2.5956 0.0197,0.55059 0.31462,1.84839 0.31462,1.84839 0,0 -9.8634,-0.0282 -15.8249,-8.45428 -6.60088,-9.32974 -5.22802,-15.90653 -5.22802,-15.90653 0,0 2.02585,1.77267 4.9877,2.02289 3.27511,0.27668 4.44399,-0.98319 4.44399,-0.98319 0,0 -1.23881,-0.78654 -0.88486,-1.80906 0.35394,-1.02251 1.2978,-1.25847 1.2978,-1.25847 0,0 -2.62631,-1.07584 -2.89056,-2.22199 -0.25214,-1.09361 0.70789,-1.80906 0.70789,-1.80906 0,0 -2.10401,-0.66857 -2.12368,-1.76973 -0.0197,-1.10117 0.86521,-1.71074 0.86521,-1.71074 0,0 -1.47478,-0.45226 -2.39897,-1.61242 -0.92419,-1.16016 -1.25848,-2.04502 -1.25848,-2.04502 0,0 11.10098,-1.00562 27.66678,7.96378 9.87563,5.34707 15.96689,13.21398 15.96689,13.21398 z"
               id="path1027"
               sodipodi:nodetypes="cssccscsscscscscsccscscscscscscscsc" />
            <path
               style="fill:#000000;stroke:none;stroke-width:0.1;stroke-linecap:round;stroke-dasharray:none"
               d="m 279.08639,128.30542 c 0,0 2.13852,0.68711 4.31496,1.28619 2.52927,0.69619 5.1974,1.30168 5.41855,0.75883 0.22673,-0.55654 -1.27961,-1.54218 -2.65234,-2.42909 -1.24638,-0.80527 -2.36188,-1.54297 -2.36188,-1.54297 0,0 0.47497,-1.54112 -0.2753,-2.18267 -1.28221,-1.09642 -3.40182,-0.059 -4.07036,1.63209 -0.66858,1.69107 -0.37363,2.47762 -0.37363,2.47762 z"
               id="path1148"
               sodipodi:nodetypes="cssscssc" />
            <path
               style="fill:#ffff00;fill-opacity:1;stroke:none;stroke-width:0.1;stroke-linecap:round;stroke-dasharray:none"
               d="m 282.82249,126.49636 -2.30063,0.0196 -0.74724,1.45512 c 0,0 3.26416,1.0815 5.23055,1.65174 1.96635,0.57025 3.51543,0.59667 3.51543,0.59667 0,0 -0.77044,-0.79848 -1.84607,-1.46071 -0.49701,-0.30599 -3.78252,-2.259 -3.78252,-2.259 z"
               id="path1814"
               sodipodi:nodetypes="cccscscc" />
            <path
               style="fill:none;fill-opacity:1;stroke:#000000;stroke-width:0.4;stroke-linecap:round;stroke-dasharray:none"
               d="m 279.97126,126.48652 8.65201,3.80492"
               id="path1870"
               sodipodi:nodetypes="cc" />
            <circle
               style="fill:#000000;fill-opacity:1;stroke:none;stroke-width:0.4;stroke-linecap:round;stroke-dasharray:none"
               id="path1934"
               cx="278.6702"
               cy="124.31843"
               r="0.87597156" />
            <path
               style="fill:#000000;fill-opacity:1;stroke:#000000;stroke-width:0.1;stroke-linecap:round;stroke-dasharray:none"
               d="m 285.89001,157.50596 c 0,0 0,0.72755 -0.37359,2.57594 -0.37362,1.84838 -0.80969,2.74954 -0.57025,2.79224 0.0969,0.0173 0.81587,-1.56516 1.04079,-2.68677 0.38387,-1.91423 0.41433,-3.28115 0.41433,-3.28115 z"
               id="path1936"
               sodipodi:nodetypes="cssscc" />
            <path
               style="fill:#000000;fill-opacity:1;stroke:#000000;stroke-width:0.1;stroke-linecap:round;stroke-dasharray:none"
               d="m 246.51557,140.09001 c 0.13904,0 15.3026,4.84853 15.16356,5.23785 -0.13904,0.38932 -15.65934,-4.83224 -15.65934,-4.83224 z"
               id="path1992"
               sodipodi:nodetypes="cscc" />
            <path
               style="fill:#000000;fill-opacity:1;stroke:#000000;stroke-width:0.1;stroke-linecap:round;stroke-dasharray:none"
               d="m 247.86429,143.59389 c 0.13904,0 14.81595,4.7373 14.67691,5.12662 -0.13904,0.38932 -15.17269,-4.72101 -15.17269,-4.72101 z"
               id="path1996"
               sodipodi:nodetypes="cscc" />
            <path
               style="fill:#000000;fill-opacity:1;stroke:#000000;stroke-width:0.1;stroke-linecap:round;stroke-dasharray:none"
               d="m 249.56201,147.46168 c 0.13904,0 13.84125,4.17874 13.70221,4.56806 -0.13904,0.38932 -14.06034,-4.12312 -14.06034,-4.12312 z"
               id="path1998"
               sodipodi:nodetypes="cscc" />
            <path
               style="fill:#000000;fill-opacity:1;stroke:#000000;stroke-width:0.1;stroke-linecap:round;stroke-dasharray:none"
               d="m 249.42803,150.69002 c 0.13904,0 14.64264,4.64895 14.5036,5.03827 -0.13904,0.38932 -14.95022,-4.63758 -14.95022,-4.63758 z"
               id="path2000"
               sodipodi:nodetypes="cscc" />
            <path
               style="fill:#000000;fill-opacity:1;stroke:#000000;stroke-width:0.1;stroke-linecap:round;stroke-dasharray:none"
               d="m 254.74693,155.93745 c 0,0 10.76979,3.26692 10.63075,3.65624 -0.13904,0.38932 -10.94648,-3.35193 -10.94648,-3.35193 z"
               id="path2002"
               sodipodi:nodetypes="cscc" />
            <path
               style="fill:none;fill-opacity:1;stroke:#000000;stroke-width:0.5;stroke-linecap:round;stroke-dasharray:none"
               d="m 251.39996,151.72484 c 0,0 -1.2758,0.17751 -1.0815,1.88771 0.17105,1.50556 5.17154,2.73912 5.17154,2.73912"
               id="path2021"
               sodipodi:nodetypes="csc" />
            <path
               style="fill:#000000;fill-opacity:1;fill-rule:nonzero;stroke:none;stroke-width:0.499999;stroke-linecap:round;stroke-dasharray:none"
               d="m 254.11354,155.8837 c -0.0152,-0.0192 -0.0941,-0.0862 -0.26773,0.0201 -0.0696,0.0426 -0.17396,0.1239 -0.29724,0.25558 -0.10999,0.11748 -0.24476,0.28605 -0.36778,0.5029 -0.10856,0.19136 -0.2121,0.42774 -0.27605,0.70382 -0.0605,0.26111 -0.0853,0.55694 -0.0457,0.88123 0.039,0.31978 0.13957,0.65766 0.31907,1.00871 0.18362,0.35913 0.44425,0.72109 0.78859,1.08405 0.36938,0.38936 0.82371,0.76789 1.35554,1.13546 0.0153,0.0105 0.0306,0.0211 0.0459,0.0315 2.3526,1.61063 4.85669,2.55889 7.39841,2.98984 2.49399,0.42285 4.83028,0.31446 6.76323,0.0219 2.22846,-0.33727 3.96573,-0.92526 4.88873,-1.29042 0.25291,-0.10007 0.46848,-0.19265 0.64669,-0.27424 1.09505,-0.50138 1.14197,-0.74632 1.13068,-0.76828 v 0 c -0.0296,-0.0576 -0.20167,-0.0686 -1.31454,0.30331 -0.17509,0.0585 -0.40552,0.13599 -0.65156,0.2162 -0.90299,0.29441 -2.64858,0.83992 -4.79809,1.1491 -1.88328,0.27088 -4.14399,0.37321 -6.55153,-0.0309 -2.45029,-0.41131 -4.86526,-1.31566 -7.13861,-2.8634 -0.0148,-0.0101 -0.0296,-0.0202 -0.0444,-0.0303 -0.50547,-0.34505 -0.92638,-0.6917 -1.26307,-1.03819 -0.31335,-0.32248 -0.5415,-0.63221 -0.70054,-0.92676 -0.15484,-0.28679 -0.24143,-0.55406 -0.2811,-0.80013 -0.0403,-0.2498 -0.0325,-0.47934 0.003,-0.6865 0.0372,-0.22004 0.10529,-0.4162 0.18016,-0.58366 0.0843,-0.18852 0.18054,-0.34775 0.25587,-0.46519 0.0856,-0.13351 0.15054,-0.22526 0.18853,-0.29061 0.0905,-0.1556 0.0539,-0.22998 0.034,-0.25512 z"
               id="path2023"
               sodipodi:nodetypes="csc"
               inkscape:path-effect="#path-effect2025"
               inkscape:original-d="m 254.11354,155.8837 c 0,0 -2.95523,2.32967 1.39612,5.31902 9.67452,6.64632 20.68618,0.98319 20.68618,0.98319" />
            <path
               style="fill:#000000;fill-opacity:1;stroke:none;stroke-width:0.499999;stroke-linecap:round;stroke-dasharray:none"
               d="m 265.1842,169.75642 -2.94956,-0.0393 c 0,0 -0.20838,-1.30887 0.39327,-2.18266 0.5844,-0.84873 1.79476,-1.54634 1.90738,-1.33713 0.0688,0.12781 -1.1405,0.71772 -1.70092,2.03519 -0.32881,0.773 -0.1868,0.99301 -0.1868,0.99301 l 4.95524,0.0983 -1.37644,0.35395 z"
               id="path2047"
               sodipodi:nodetypes="ccssscccc" />
            <path
               style="fill:#000000;fill-opacity:1;stroke:none;stroke-width:0.499999;stroke-linecap:round;stroke-dasharray:none"
               d="m 272.68589,173.80713 c 0,0 1.74021,-0.43259 3.31331,-1.77956 1.13989,-0.97604 1.59277,-1.60258 1.75006,-1.52393 0.15732,0.0787 -0.58675,1.15488 -1.65174,2.04502 -1.31747,1.10117 -1.69108,1.03234 -1.69108,1.03234 l -0.89469,0.16714 z"
               id="path2103"
               sodipodi:nodetypes="csssccc" />
          </g>
        </g>
        <g
           id="g1220"
           transform="matrix(-1,0,0,1,599.24268,0)">
          <g
             id="g1218">
            <path
               style="fill:#ffff00;stroke:#000000;stroke-width:0.499999;stroke-linecap:round"
               d="m 260.34432,171.07864 c 0,0 1.00111,4.86651 1.55728,7.00777 0.55618,2.14127 1.11235,3.61513 1.11235,3.61513 0,0 -0.11124,0.58398 -1.44605,1.44604 -1.33481,0.86207 -2.56119,1.39183 -2.56119,1.39183 0,0 0.66129,0.15886 1.72693,0.22105 0.7908,0.0462 1.39043,-0.0556 1.39043,-0.0556 0,0 0.55617,0.86206 1.77975,2.14126 1.22357,1.2792 2.94773,2.14127 2.94773,2.14127 0,0 -0.33152,-0.59514 -0.48428,-1.16966 -0.19971,-0.75112 -0.23875,-1.30531 -0.23875,-1.30531 0,0 1.12448,0.58517 2.11344,0.91768 1.14441,0.38478 2.78087,0.41713 2.78087,0.41713 0,0 -0.88986,-0.72302 -1.66851,-1.25139 -0.77864,-0.52836 -1.30701,-0.83425 -1.30701,-0.83425 l 3.76028,-0.38316 c 0,0 -5.65126,-2.56456 -6.90266,-6.06844 -1.25139,-3.50389 -1.11234,-6.1179 0.36153,-6.25694 1.47383,-0.13905 5.5617,-0.6118 5.5617,-0.6118 l 0.41714,-4.39376 -10.92879,0.0278 z"
               id="path1184"
               sodipodi:nodetypes="cscscscscscscsccsscccc" />
            <path
               style="fill:#ffff00;stroke:#000000;stroke-width:0.499999;stroke-linecap:round"
               d="m 275.01601,173.21723 c 0,0 0.98319,2.14334 1.67143,3.65744 0.68823,1.5141 0.90453,2.18266 0.90453,2.18266 0,0 -0.5506,0.90453 -1.69109,1.61243 -1.14048,0.70789 -2.71359,1.33713 -2.71359,1.33713 0,0 1.21915,0.17697 2.02536,0.17697 0.80621,0 1.86806,0.0393 1.86806,0.0393 0,0 0.25562,1.12082 1.55342,2.28098 1.29781,1.16016 2.81192,1.98603 2.81192,1.98603 0,0 -0.37362,-0.74722 -0.53092,-1.31746 -0.15732,-0.57025 -0.25564,-1.16016 -0.25564,-1.16016 0,0 0.7079,0.37361 2.33998,0.68823 1.63208,0.31462 2.67425,0.37361 2.67425,0.37361 0,0 -1.02251,-0.74722 -1.6714,-1.17982 -0.64889,-0.4326 -1.33713,-0.84554 -1.33713,-0.84554 l 3.99173,-0.4326 c 0,0 -5.44686,-2.43829 -6.27273,-4.14903 -0.82587,-1.71074 -2.04502,-4.93558 -2.04502,-4.93558 z"
               id="path1186"
               sodipodi:nodetypes="cscscscscscscsccscc" />
            <path
               style="fill:#ffffff;stroke:#000000;stroke-width:0.499999;stroke-linecap:round;stroke-dasharray:none"
               d="m 286.14565,157.70259 c 0,0 1.005,-5.76517 -4.09003,-11.71954 -7.00121,-8.18206 -13.15961,-19.16998 -9.69756,-22.87501 4.33713,-4.64151 9.50319,0.7168 9.50319,0.7168 l -2.3846,4.09482 c 0.019,-0.005 -0.7081,0.41885 -1.39043,0.6257 -1.19941,0.36361 -1.69633,0.45883 -1.69633,0.45883 0,0 3.46339,7.85492 11.0929,15.79904 7.6295,7.94412 11.70195,16.49217 8.65201,23.20313 -5.46541,12.02585 -22.00365,5.54515 -22.00365,5.54515 0,0 -0.74853,0.33103 -2.53923,0.66473 -2.07643,0.38695 -4.12859,0.22725 -4.12859,0.22725 0,0 0.38932,-1.19577 1.02892,-1.94661 0.6396,-0.75083 1.55728,-1.47385 1.55728,-1.47385 0,0 -1.58151,0.79808 -2.68267,0.71942 -1.10117,-0.0786 -2.04502,-0.41293 -2.04502,-0.41293 0,0 0.6489,-0.62924 1.23881,-1.04218 0.58991,-0.41294 1.16015,-0.76688 1.16015,-0.76688 l -2.3793,0.11798 c 0,0 -4.85693,2.04502 -4.83726,2.5956 0.0197,0.55059 0.31462,1.84839 0.31462,1.84839 0,0 -9.8634,-0.0282 -15.8249,-8.45428 -6.60088,-9.32974 -5.22802,-15.90653 -5.22802,-15.90653 0,0 2.02585,1.77267 4.9877,2.02289 3.27511,0.27668 4.44399,-0.98319 4.44399,-0.98319 0,0 -1.23881,-0.78654 -0.88486,-1.80906 0.35394,-1.02251 1.2978,-1.25847 1.2978,-1.25847 0,0 -2.62631,-1.07584 -2.89056,-2.22199 -0.25214,-1.09361 0.70789,-1.80906 0.70789,-1.80906 0,0 -2.10401,-0.66857 -2.12368,-1.76973 -0.0197,-1.10117 0.86521,-1.71074 0.86521,-1.71074 0,0 -1.47478,-0.45226 -2.39897,-1.61242 -0.92419,-1.16016 -1.25848,-2.04502 -1.25848,-2.04502 0,0 11.10098,-1.00562 27.66678,7.96378 9.87563,5.34707 15.96689,13.21398 15.96689,13.21398 z"
               id="path1188"
               sodipodi:nodetypes="cssccscsscscscscsccscscscscscscscsc" />
            <path
               style="fill:#000000;stroke:none;stroke-width:0.1;stroke-linecap:round;stroke-dasharray:none"
               d="m 279.08639,128.30542 c 0,0 2.13852,0.68711 4.31496,1.28619 2.52927,0.69619 5.1974,1.30168 5.41855,0.75883 0.22673,-0.55654 -1.27961,-1.54218 -2.65234,-2.42909 -1.24638,-0.80527 -2.36188,-1.54297 -2.36188,-1.54297 0,0 0.47497,-1.54112 -0.2753,-2.18267 -1.28221,-1.09642 -3.40182,-0.059 -4.07036,1.63209 -0.66858,1.69107 -0.37363,2.47762 -0.37363,2.47762 z"
               id="path1190"
               sodipodi:nodetypes="cssscssc" />
            <path
               style="fill:#ffff00;fill-opacity:1;stroke:none;stroke-width:0.1;stroke-linecap:round;stroke-dasharray:none"
               d="m 282.82249,126.49636 -2.30063,0.0196 -0.74724,1.45512 c 0,0 3.26416,1.0815 5.23055,1.65174 1.96635,0.57025 3.51543,0.59667 3.51543,0.59667 0,0 -0.77044,-0.79848 -1.84607,-1.46071 -0.49701,-0.30599 -3.78252,-2.259 -3.78252,-2.259 z"
               id="path1192"
               sodipodi:nodetypes="cccscscc" />
            <path
               style="fill:none;fill-opacity:1;stroke:#000000;stroke-width:0.4;stroke-linecap:round;stroke-dasharray:none"
               d="m 279.97126,126.48652 8.65201,3.80492"
               id="path1194"
               sodipodi:nodetypes="cc" />
            <circle
               style="fill:#000000;fill-opacity:1;stroke:none;stroke-width:0.4;stroke-linecap:round;stroke-dasharray:none"
               id="circle1196"
               cx="278.6702"
               cy="124.31843"
               r="0.87597156" />
            <path
               style="fill:#000000;fill-opacity:1;stroke:#000000;stroke-width:0.1;stroke-linecap:round;stroke-dasharray:none"
               d="m 285.89001,157.50596 c 0,0 0,0.72755 -0.37359,2.57594 -0.37362,1.84838 -0.80969,2.74954 -0.57025,2.79224 0.0969,0.0173 0.81587,-1.56516 1.04079,-2.68677 0.38387,-1.91423 0.41433,-3.28115 0.41433,-3.28115 z"
               id="path1198"
               sodipodi:nodetypes="cssscc" />
            <path
               style="fill:#000000;fill-opacity:1;stroke:#000000;stroke-width:0.1;stroke-linecap:round;stroke-dasharray:none"
               d="m 246.51557,140.09001 c 0.13904,0 15.3026,4.84853 15.16356,5.23785 -0.13904,0.38932 -15.65934,-4.83224 -15.65934,-4.83224 z"
               id="path1200"
               sodipodi:nodetypes="cscc" />
            <path
               style="fill:#000000;fill-opacity:1;stroke:#000000;stroke-width:0.1;stroke-linecap:round;stroke-dasharray:none"
               d="m 247.86429,143.59389 c 0.13904,0 14.81595,4.7373 14.67691,5.12662 -0.13904,0.38932 -15.17269,-4.72101 -15.17269,-4.72101 z"
               id="path1202"
               sodipodi:nodetypes="cscc" />
            <path
               style="fill:#000000;fill-opacity:1;stroke:#000000;stroke-width:0.1;stroke-linecap:round;stroke-dasharray:none"
               d="m 249.56201,147.46168 c 0.13904,0 13.84125,4.17874 13.70221,4.56806 -0.13904,0.38932 -14.06034,-4.12312 -14.06034,-4.12312 z"
               id="path1204"
               sodipodi:nodetypes="cscc" />
            <path
               style="fill:#000000;fill-opacity:1;stroke:#000000;stroke-width:0.1;stroke-linecap:round;stroke-dasharray:none"
               d="m 249.42803,150.69002 c 0.13904,0 14.64264,4.64895 14.5036,5.03827 -0.13904,0.38932 -14.95022,-4.63758 -14.95022,-4.63758 z"
               id="path1206"
               sodipodi:nodetypes="cscc" />
            <path
               style="fill:#000000;fill-opacity:1;stroke:#000000;stroke-width:0.1;stroke-linecap:round;stroke-dasharray:none"
               d="m 254.74693,155.93745 c 0,0 10.76979,3.26692 10.63075,3.65624 -0.13904,0.38932 -10.94648,-3.35193 -10.94648,-3.35193 z"
               id="path1208"
               sodipodi:nodetypes="cscc" />
            <path
               style="fill:none;fill-opacity:1;stroke:#000000;stroke-width:0.5;stroke-linecap:round;stroke-dasharray:none"
               d="m 251.39996,151.72484 c 0,0 -1.2758,0.17751 -1.0815,1.88771 0.17105,1.50556 5.17154,2.73912 5.17154,2.73912"
               id="path1210"
               sodipodi:nodetypes="csc" />
            <path
               style="fill:#000000;fill-opacity:1;fill-rule:nonzero;stroke:none;stroke-width:0.499999;stroke-linecap:round;stroke-dasharray:none"
               d="m 254.11354,155.8837 c -0.0152,-0.0192 -0.0941,-0.0862 -0.26773,0.0201 -0.0696,0.0426 -0.17396,0.1239 -0.29724,0.25558 -0.10999,0.11748 -0.24476,0.28605 -0.36778,0.5029 -0.10856,0.19136 -0.2121,0.42774 -0.27605,0.70382 -0.0605,0.26111 -0.0853,0.55694 -0.0457,0.88123 0.039,0.31978 0.13957,0.65766 0.31907,1.00871 0.18362,0.35913 0.44425,0.72109 0.78859,1.08405 0.36938,0.38936 0.82371,0.76789 1.35554,1.13546 0.0153,0.0105 0.0306,0.0211 0.0459,0.0315 2.3526,1.61063 4.85669,2.55889 7.39841,2.98984 2.49399,0.42285 4.83028,0.31446 6.76323,0.0219 2.22846,-0.33727 3.96573,-0.92526 4.88873,-1.29042 0.25291,-0.10007 0.46848,-0.19265 0.64669,-0.27424 1.09505,-0.50138 1.14197,-0.74632 1.13068,-0.76828 v 0 c -0.0296,-0.0576 -0.20167,-0.0686 -1.31454,0.30331 -0.17509,0.0585 -0.40552,0.13599 -0.65156,0.2162 -0.90299,0.29441 -2.64858,0.83992 -4.79809,1.1491 -1.88328,0.27088 -4.14399,0.37321 -6.55153,-0.0309 -2.45029,-0.41131 -4.86526,-1.31566 -7.13861,-2.8634 -0.0148,-0.0101 -0.0296,-0.0202 -0.0444,-0.0303 -0.50547,-0.34505 -0.92638,-0.6917 -1.26307,-1.03819 -0.31335,-0.32248 -0.5415,-0.63221 -0.70054,-0.92676 -0.15484,-0.28679 -0.24143,-0.55406 -0.2811,-0.80013 -0.0403,-0.2498 -0.0325,-0.47934 0.003,-0.6865 0.0372,-0.22004 0.10529,-0.4162 0.18016,-0.58366 0.0843,-0.18852 0.18054,-0.34775 0.25587,-0.46519 0.0856,-0.13351 0.15054,-0.22526 0.18853,-0.29061 0.0905,-0.1556 0.0539,-0.22998 0.034,-0.25512 z"
               id="path1212"
               sodipodi:nodetypes="csc"
               inkscape:path-effect="#path-effect1224"
               inkscape:original-d="m 254.11354,155.8837 c 0,0 -2.95523,2.32967 1.39612,5.31902 9.67452,6.64632 20.68618,0.98319 20.68618,0.98319" />
            <path
               style="fill:#000000;fill-opacity:1;stroke:none;stroke-width:0.499999;stroke-linecap:round;stroke-dasharray:none"
               d="m 265.1842,169.75642 -2.94956,-0.0393 c 0,0 -0.20838,-1.30887 0.39327,-2.18266 0.5844,-0.84873 1.79476,-1.54634 1.90738,-1.33713 0.0688,0.12781 -1.1405,0.71772 -1.70092,2.03519 -0.32881,0.773 -0.1868,0.99301 -0.1868,0.99301 l 4.95524,0.0983 -1.37644,0.35395 z"
               id="path1214"
               sodipodi:nodetypes="ccssscccc" />
            <path
               style="fill:#000000;fill-opacity:1;stroke:none;stroke-width:0.499999;stroke-linecap:round;stroke-dasharray:none"
               d="m 272.68589,173.80713 c 0,0 1.74021,-0.43259 3.31331,-1.77956 1.13989,-0.97604 1.59277,-1.60258 1.75006,-1.52393 0.15732,0.0787 -0.58675,1.15488 -1.65174,2.04502 -1.31747,1.10117 -1.69108,1.03234 -1.69108,1.03234 l -0.89469,0.16714 z"
               id="path1216"
               sodipodi:nodetypes="csssccc" />
          </g>
        </g>
      </g>
      <g
         id="g4604"
         transform="translate(-186.14627,-26.603662)">
        <g
           id="g4364">
          <g
             id="g4219"
             style="fill:#ff0000"
             transform="translate(-1.0583333,1.0583333)">
            <path
               style="fill:#000000;fill-opacity:1;stroke:#000000;stroke-width:0.4;stroke-linecap:round;stroke-dasharray:none"
               d="m 252.62364,131.50104 c 0,0 -5.07129,4.14942 -9.18696,1.14609 -4.11568,-3.00333 -7.28586,-7.3971 -4.8387,-14.73857 2.44715,-7.34148 10.30469,-10.191 11.56317,-11.21351 1.25847,-1.02251 2.35964,-2.32032 2.35964,-2.32032 0,0 1.739,1.68175 3.85408,3.22485 2.70289,1.97195 6.59064,4.90087 9.13069,9.05878 1.35613,2.21991 2.48156,7.33908 -0.28204,12.2173 -2.51923,4.44687 -6.3317,5.0339 -8.45538,4.67995 -2.12368,-0.35394 -4.1445,-2.05457 -4.1445,-2.05457 z"
               id="path4189"
               sodipodi:nodetypes="cssscssssc" />
            <path
               style="fill:#000000;fill-opacity:1;stroke:#000000;stroke-width:0.4;stroke-linecap:round;stroke-dasharray:none"
               d="m 251.4683,136.0954 0.11999,-3.65354 0.92825,-0.47144 -0.40357,-27.00678 0.55617,-0.12514 1.17894,31.31272 c 0,0 -0.55058,0.1868 -1.19948,0.19663 -0.6489,0.01 -1.1803,-0.25245 -1.1803,-0.25245 z"
               id="path4191"
               sodipodi:nodetypes="cccccccc" />
            <path
               style="fill:#000000;stroke:#000000;stroke-width:0.4;stroke-linecap:round;stroke-dasharray:none"
               d="m 248.05714,109.25132 3.77542,2.73325"
               id="path4193" />
            <path
               style="fill:#000000;stroke:#000000;stroke-width:0.4;stroke-linecap:round;stroke-dasharray:none"
               d="m 245.22557,111.8076 6.48901,4.58163"
               id="path4195"
               sodipodi:nodetypes="cc" />
            <path
               style="fill:#000000;stroke:#000000;stroke-width:0.4;stroke-linecap:round;stroke-dasharray:none"
               d="m 242.07938,115.07177 9.51721,5.84011"
               id="path4197"
               sodipodi:nodetypes="cc" />
            <path
               style="fill:#000000;stroke:#000000;stroke-width:0.4;stroke-linecap:round;stroke-dasharray:none"
               d="m 239.91638,118.49325 11.67346,6.38156"
               id="path4199"
               sodipodi:nodetypes="cc" />
            <path
               style="fill:#000000;stroke:#000000;stroke-width:0.4;stroke-linecap:round;stroke-dasharray:none"
               d="m 238.67757,122.26867 12.78138,5.8991"
               id="path4201" />
            <path
               style="fill:#000000;stroke:#000000;stroke-width:0.4;stroke-linecap:round;stroke-dasharray:none"
               d="m 240.09335,127.3419 11.40493,3.8934"
               id="path4203" />
            <path
               style="fill:#000000;stroke:#000000;stroke-width:0.4;stroke-linecap:round;stroke-dasharray:none"
               d="m 254.95908,108.42545 -1.96636,1.33713"
               id="path4205" />
            <path
               style="fill:#000000;stroke:#000000;stroke-width:0.4;stroke-linecap:round;stroke-dasharray:none"
               d="m 257.98729,110.66711 -4.87659,3.26417"
               id="path4207" />
            <path
               style="fill:#000000;stroke:#000000;stroke-width:0.4;stroke-linecap:round;stroke-dasharray:none"
               d="m 260.93684,113.65598 -7.59018,4.48332"
               id="path4209" />
            <path
               style="fill:#000000;stroke:#000000;stroke-width:0.4;stroke-linecap:round;stroke-dasharray:none"
               d="m 263.80773,117.15612 -10.30376,5.34852"
               id="path4211" />
            <path
               style="fill:#000000;stroke:#000000;stroke-width:0.4;stroke-linecap:round;stroke-dasharray:none"
               d="m 265.49881,121.1675 -11.7982,5.19121"
               id="path4213" />
            <path
               style="fill:#000000;stroke:#000000;stroke-width:0.4;stroke-linecap:round;stroke-dasharray:none"
               d="m 265.61679,125.69015 -11.89791,3.30349"
               id="path4215"
               sodipodi:nodetypes="cc" />
            <path
               style="fill:#000000;stroke:#000000;stroke-width:0.4;stroke-linecap:round;stroke-dasharray:none"
               d="m 262.98186,129.81952 -9.04529,1.80905"
               id="path4217" />
          </g>
          <g
             id="g4187">
            <path
               style="fill:#009f01;fill-opacity:1;stroke:#000000;stroke-width:0.4;stroke-linecap:round;stroke-dasharray:none"
               d="m 252.44667,132.09095 c 0,0 -4.89432,3.55951 -9.00999,0.55618 -4.11568,-3.00333 -7.28586,-7.3971 -4.8387,-14.73857 2.44715,-7.34148 10.30469,-10.191 11.56317,-11.21351 1.25847,-1.02251 2.35964,-2.32032 2.35964,-2.32032 0,0 1.739,1.68175 3.85408,3.22485 2.70289,1.97195 6.59064,4.90087 9.13069,9.05878 1.35613,2.21991 2.48156,7.33908 -0.28204,12.2173 -2.51923,4.44687 -6.3317,5.0339 -8.45538,4.67995 -2.12368,-0.35394 -4.32147,-1.46466 -4.32147,-1.46466 z"
               id="path1320"
               sodipodi:nodetypes="cssscssssc" />
            <path
               style="fill:#009f01;fill-opacity:1;stroke:#000000;stroke-width:0.4;stroke-linecap:round;stroke-dasharray:none"
               d="m 251.4683,136.0954 0.64467,-31.13176 0.55617,-0.12514 1.17894,31.31272 c 0,0 -0.55058,0.1868 -1.19948,0.19663 -0.6489,0.01 -1.1803,-0.25245 -1.1803,-0.25245 z"
               id="path1322"
               sodipodi:nodetypes="cccccc" />
            <path
               style="fill:none;stroke:#000000;stroke-width:0.4;stroke-linecap:round;stroke-dasharray:none"
               d="m 248.05714,109.25132 3.77542,2.73325"
               id="path1324" />
            <path
               style="fill:none;stroke:#000000;stroke-width:0.4;stroke-linecap:round;stroke-dasharray:none"
               d="m 245.22557,111.8076 6.48901,4.58163"
               id="path1326"
               sodipodi:nodetypes="cc" />
            <path
               style="fill:none;stroke:#000000;stroke-width:0.4;stroke-linecap:round;stroke-dasharray:none"
               d="m 242.07938,115.07177 9.51721,5.84011"
               id="path1328"
               sodipodi:nodetypes="cc" />
            <path
               style="fill:none;stroke:#000000;stroke-width:0.4;stroke-linecap:round;stroke-dasharray:none"
               d="m 239.91638,118.49325 11.67346,6.38156"
               id="path1330"
               sodipodi:nodetypes="cc" />
            <path
               style="fill:none;stroke:#000000;stroke-width:0.4;stroke-linecap:round;stroke-dasharray:none"
               d="m 238.67757,122.26867 12.78138,5.8991"
               id="path1332" />
            <path
               style="fill:none;stroke:#000000;stroke-width:0.4;stroke-linecap:round;stroke-dasharray:none"
               d="m 240.09335,127.3419 11.40493,3.8934"
               id="path1334" />
            <path
               style="fill:none;stroke:#000000;stroke-width:0.4;stroke-linecap:round;stroke-dasharray:none"
               d="m 254.95908,108.42545 -1.96636,1.33713"
               id="path1336" />
            <path
               style="fill:none;stroke:#000000;stroke-width:0.4;stroke-linecap:round;stroke-dasharray:none"
               d="m 257.98729,110.66711 -4.87659,3.26417"
               id="path1338" />
            <path
               style="fill:none;stroke:#000000;stroke-width:0.4;stroke-linecap:round;stroke-dasharray:none"
               d="m 260.93684,113.65598 -7.59018,4.48332"
               id="path1340" />
            <path
               style="fill:none;stroke:#000000;stroke-width:0.4;stroke-linecap:round;stroke-dasharray:none"
               d="m 263.80773,117.15612 -10.30376,5.34852"
               id="path1342" />
            <path
               style="fill:none;stroke:#000000;stroke-width:0.4;stroke-linecap:round;stroke-dasharray:none"
               d="m 265.49881,121.1675 -11.7982,5.19121"
               id="path1344" />
            <path
               style="fill:none;stroke:#000000;stroke-width:0.4;stroke-linecap:round;stroke-dasharray:none"
               d="m 265.61679,125.69015 -11.89791,3.30349"
               id="path1346"
               sodipodi:nodetypes="cc" />
            <path
               style="fill:none;stroke:#000000;stroke-width:0.4;stroke-linecap:round;stroke-dasharray:none"
               d="m 262.98186,129.81952 -9.04529,1.80905"
               id="path1348" />
          </g>
          <path
             style="fill:#000000;fill-opacity:1;stroke:none;stroke-width:0.4;stroke-linecap:round;stroke-dasharray:none"
             d="m 252.99763,137.35562 1.05692,-1.07167 -1.54359,0.0934 z"
             id="path4275" />
        </g>
        <g
           id="g4432"
           transform="translate(78.845854)">
          <g
             id="g4396"
             style="fill:#ff0000"
             transform="translate(-1.0583333,1.0583333)">
            <path
               style="fill:#000000;fill-opacity:1;stroke:#000000;stroke-width:0.4;stroke-linecap:round;stroke-dasharray:none"
               d="m 252.62364,131.50104 c 0,0 -5.07129,4.14942 -9.18696,1.14609 -4.11568,-3.00333 -7.28586,-7.3971 -4.8387,-14.73857 2.44715,-7.34148 10.30469,-10.191 11.56317,-11.21351 1.25847,-1.02251 2.35964,-2.32032 2.35964,-2.32032 0,0 1.739,1.68175 3.85408,3.22485 2.70289,1.97195 6.59064,4.90087 9.13069,9.05878 1.35613,2.21991 2.48156,7.33908 -0.28204,12.2173 -2.51923,4.44687 -6.3317,5.0339 -8.45538,4.67995 -2.12368,-0.35394 -4.1445,-2.05457 -4.1445,-2.05457 z"
               id="path4366"
               sodipodi:nodetypes="cssscssssc" />
            <path
               style="fill:#000000;fill-opacity:1;stroke:#000000;stroke-width:0.4;stroke-linecap:round;stroke-dasharray:none"
               d="m 251.4683,136.0954 0.11999,-3.65354 0.92825,-0.47144 -0.40357,-27.00678 0.55617,-0.12514 1.17894,31.31272 c 0,0 -0.55058,0.1868 -1.19948,0.19663 -0.6489,0.01 -1.1803,-0.25245 -1.1803,-0.25245 z"
               id="path4368"
               sodipodi:nodetypes="cccccccc" />
            <path
               style="fill:#000000;stroke:#000000;stroke-width:0.4;stroke-linecap:round;stroke-dasharray:none"
               d="m 248.05714,109.25132 3.77542,2.73325"
               id="path4370" />
            <path
               style="fill:#000000;stroke:#000000;stroke-width:0.4;stroke-linecap:round;stroke-dasharray:none"
               d="m 245.22557,111.8076 6.48901,4.58163"
               id="path4372"
               sodipodi:nodetypes="cc" />
            <path
               style="fill:#000000;stroke:#000000;stroke-width:0.4;stroke-linecap:round;stroke-dasharray:none"
               d="m 242.07938,115.07177 9.51721,5.84011"
               id="path4374"
               sodipodi:nodetypes="cc" />
            <path
               style="fill:#000000;stroke:#000000;stroke-width:0.4;stroke-linecap:round;stroke-dasharray:none"
               d="m 239.91638,118.49325 11.67346,6.38156"
               id="path4376"
               sodipodi:nodetypes="cc" />
            <path
               style="fill:#000000;stroke:#000000;stroke-width:0.4;stroke-linecap:round;stroke-dasharray:none"
               d="m 238.67757,122.26867 12.78138,5.8991"
               id="path4378" />
            <path
               style="fill:#000000;stroke:#000000;stroke-width:0.4;stroke-linecap:round;stroke-dasharray:none"
               d="m 240.09335,127.3419 11.40493,3.8934"
               id="path4380" />
            <path
               style="fill:#000000;stroke:#000000;stroke-width:0.4;stroke-linecap:round;stroke-dasharray:none"
               d="m 254.95908,108.42545 -1.96636,1.33713"
               id="path4382" />
            <path
               style="fill:#000000;stroke:#000000;stroke-width:0.4;stroke-linecap:round;stroke-dasharray:none"
               d="m 257.98729,110.66711 -4.87659,3.26417"
               id="path4384" />
            <path
               style="fill:#000000;stroke:#000000;stroke-width:0.4;stroke-linecap:round;stroke-dasharray:none"
               d="m 260.93684,113.65598 -7.59018,4.48332"
               id="path4386" />
            <path
               style="fill:#000000;stroke:#000000;stroke-width:0.4;stroke-linecap:round;stroke-dasharray:none"
               d="m 263.80773,117.15612 -10.30376,5.34852"
               id="path4388" />
            <path
               style="fill:#000000;stroke:#000000;stroke-width:0.4;stroke-linecap:round;stroke-dasharray:none"
               d="m 265.49881,121.1675 -11.7982,5.19121"
               id="path4390" />
            <path
               style="fill:#000000;stroke:#000000;stroke-width:0.4;stroke-linecap:round;stroke-dasharray:none"
               d="m 265.61679,125.69015 -11.89791,3.30349"
               id="path4392"
               sodipodi:nodetypes="cc" />
            <path
               style="fill:#000000;stroke:#000000;stroke-width:0.4;stroke-linecap:round;stroke-dasharray:none"
               d="m 262.98186,129.81952 -9.04529,1.80905"
               id="path4394" />
          </g>
          <g
             id="g4428">
            <path
               style="fill:#009f01;fill-opacity:1;stroke:#000000;stroke-width:0.4;stroke-linecap:round;stroke-dasharray:none"
               d="m 252.44667,132.09095 c 0,0 -4.89432,3.55951 -9.00999,0.55618 -4.11568,-3.00333 -7.28586,-7.3971 -4.8387,-14.73857 2.44715,-7.34148 10.30469,-10.191 11.56317,-11.21351 1.25847,-1.02251 2.35964,-2.32032 2.35964,-2.32032 0,0 1.739,1.68175 3.85408,3.22485 2.70289,1.97195 6.59064,4.90087 9.13069,9.05878 1.35613,2.21991 2.48156,7.33908 -0.28204,12.2173 -2.51923,4.44687 -6.3317,5.0339 -8.45538,4.67995 -2.12368,-0.35394 -4.32147,-1.46466 -4.32147,-1.46466 z"
               id="path4398"
               sodipodi:nodetypes="cssscssssc" />
            <path
               style="fill:#009f01;fill-opacity:1;stroke:#000000;stroke-width:0.4;stroke-linecap:round;stroke-dasharray:none"
               d="m 251.4683,136.0954 0.64467,-31.13176 0.55617,-0.12514 1.17894,31.31272 c 0,0 -0.55058,0.1868 -1.19948,0.19663 -0.6489,0.01 -1.1803,-0.25245 -1.1803,-0.25245 z"
               id="path4400"
               sodipodi:nodetypes="cccccc" />
            <path
               style="fill:none;stroke:#000000;stroke-width:0.4;stroke-linecap:round;stroke-dasharray:none"
               d="m 248.05714,109.25132 3.77542,2.73325"
               id="path4402" />
            <path
               style="fill:none;stroke:#000000;stroke-width:0.4;stroke-linecap:round;stroke-dasharray:none"
               d="m 245.22557,111.8076 6.48901,4.58163"
               id="path4404"
               sodipodi:nodetypes="cc" />
            <path
               style="fill:none;stroke:#000000;stroke-width:0.4;stroke-linecap:round;stroke-dasharray:none"
               d="m 242.07938,115.07177 9.51721,5.84011"
               id="path4406"
               sodipodi:nodetypes="cc" />
            <path
               style="fill:none;stroke:#000000;stroke-width:0.4;stroke-linecap:round;stroke-dasharray:none"
               d="m 239.91638,118.49325 11.67346,6.38156"
               id="path4408"
               sodipodi:nodetypes="cc" />
            <path
               style="fill:none;stroke:#000000;stroke-width:0.4;stroke-linecap:round;stroke-dasharray:none"
               d="m 238.67757,122.26867 12.78138,5.8991"
               id="path4410" />
            <path
               style="fill:none;stroke:#000000;stroke-width:0.4;stroke-linecap:round;stroke-dasharray:none"
               d="m 240.09335,127.3419 11.40493,3.8934"
               id="path4412" />
            <path
               style="fill:none;stroke:#000000;stroke-width:0.4;stroke-linecap:round;stroke-dasharray:none"
               d="m 254.95908,108.42545 -1.96636,1.33713"
               id="path4414" />
            <path
               style="fill:none;stroke:#000000;stroke-width:0.4;stroke-linecap:round;stroke-dasharray:none"
               d="m 257.98729,110.66711 -4.87659,3.26417"
               id="path4416" />
            <path
               style="fill:none;stroke:#000000;stroke-width:0.4;stroke-linecap:round;stroke-dasharray:none"
               d="m 260.93684,113.65598 -7.59018,4.48332"
               id="path4418" />
            <path
               style="fill:none;stroke:#000000;stroke-width:0.4;stroke-linecap:round;stroke-dasharray:none"
               d="m 263.80773,117.15612 -10.30376,5.34852"
               id="path4420" />
            <path
               style="fill:none;stroke:#000000;stroke-width:0.4;stroke-linecap:round;stroke-dasharray:none"
               d="m 265.49881,121.1675 -11.7982,5.19121"
               id="path4422" />
            <path
               style="fill:none;stroke:#000000;stroke-width:0.4;stroke-linecap:round;stroke-dasharray:none"
               d="m 265.61679,125.69015 -11.89791,3.30349"
               id="path4424"
               sodipodi:nodetypes="cc" />
            <path
               style="fill:none;stroke:#000000;stroke-width:0.4;stroke-linecap:round;stroke-dasharray:none"
               d="m 262.98186,129.81952 -9.04529,1.80905"
               id="path4426" />
          </g>
          <path
             style="fill:#000000;fill-opacity:1;stroke:none;stroke-width:0.4;stroke-linecap:round;stroke-dasharray:none"
             d="m 252.99763,137.35562 1.05692,-1.07167 -1.54359,0.0934 z"
             id="path4430" />
        </g>
        <g
           id="g4500"
           transform="translate(39.422927,-3.7041668)">
          <g
             id="g4464"
             style="fill:#ff0000"
             transform="translate(-1.0583333,1.0583333)">
            <path
               style="fill:#000000;fill-opacity:1;stroke:#000000;stroke-width:0.4;stroke-linecap:round;stroke-dasharray:none"
               d="m 252.62364,131.50104 c 0,0 -5.07129,4.14942 -9.18696,1.14609 -4.11568,-3.00333 -7.28586,-7.3971 -4.8387,-14.73857 2.44715,-7.34148 10.30469,-10.191 11.56317,-11.21351 1.25847,-1.02251 2.35964,-2.32032 2.35964,-2.32032 0,0 1.739,1.68175 3.85408,3.22485 2.70289,1.97195 6.59064,4.90087 9.13069,9.05878 1.35613,2.21991 2.48156,7.33908 -0.28204,12.2173 -2.51923,4.44687 -6.3317,5.0339 -8.45538,4.67995 -2.12368,-0.35394 -4.1445,-2.05457 -4.1445,-2.05457 z"
               id="path4434"
               sodipodi:nodetypes="cssscssssc" />
            <path
               style="fill:#000000;fill-opacity:1;stroke:#000000;stroke-width:0.4;stroke-linecap:round;stroke-dasharray:none"
               d="m 251.4683,136.0954 0.11999,-3.65354 0.92825,-0.47144 -0.40357,-27.00678 0.55617,-0.12514 1.17894,31.31272 c 0,0 -0.55058,0.1868 -1.19948,0.19663 -0.6489,0.01 -1.1803,-0.25245 -1.1803,-0.25245 z"
               id="path4436"
               sodipodi:nodetypes="cccccccc" />
            <path
               style="fill:#000000;stroke:#000000;stroke-width:0.4;stroke-linecap:round;stroke-dasharray:none"
               d="m 248.05714,109.25132 3.77542,2.73325"
               id="path4438" />
            <path
               style="fill:#000000;stroke:#000000;stroke-width:0.4;stroke-linecap:round;stroke-dasharray:none"
               d="m 245.22557,111.8076 6.48901,4.58163"
               id="path4440"
               sodipodi:nodetypes="cc" />
            <path
               style="fill:#000000;stroke:#000000;stroke-width:0.4;stroke-linecap:round;stroke-dasharray:none"
               d="m 242.07938,115.07177 9.51721,5.84011"
               id="path4442"
               sodipodi:nodetypes="cc" />
            <path
               style="fill:#000000;stroke:#000000;stroke-width:0.4;stroke-linecap:round;stroke-dasharray:none"
               d="m 239.91638,118.49325 11.67346,6.38156"
               id="path4444"
               sodipodi:nodetypes="cc" />
            <path
               style="fill:#000000;stroke:#000000;stroke-width:0.4;stroke-linecap:round;stroke-dasharray:none"
               d="m 238.67757,122.26867 12.78138,5.8991"
               id="path4446" />
            <path
               style="fill:#000000;stroke:#000000;stroke-width:0.4;stroke-linecap:round;stroke-dasharray:none"
               d="m 240.09335,127.3419 11.40493,3.8934"
               id="path4448" />
            <path
               style="fill:#000000;stroke:#000000;stroke-width:0.4;stroke-linecap:round;stroke-dasharray:none"
               d="m 254.95908,108.42545 -1.96636,1.33713"
               id="path4450" />
            <path
               style="fill:#000000;stroke:#000000;stroke-width:0.4;stroke-linecap:round;stroke-dasharray:none"
               d="m 257.98729,110.66711 -4.87659,3.26417"
               id="path4452" />
            <path
               style="fill:#000000;stroke:#000000;stroke-width:0.4;stroke-linecap:round;stroke-dasharray:none"
               d="m 260.93684,113.65598 -7.59018,4.48332"
               id="path4454" />
            <path
               style="fill:#000000;stroke:#000000;stroke-width:0.4;stroke-linecap:round;stroke-dasharray:none"
               d="m 263.80773,117.15612 -10.30376,5.34852"
               id="path4456" />
            <path
               style="fill:#000000;stroke:#000000;stroke-width:0.4;stroke-linecap:round;stroke-dasharray:none"
               d="m 265.49881,121.1675 -11.7982,5.19121"
               id="path4458" />
            <path
               style="fill:#000000;stroke:#000000;stroke-width:0.4;stroke-linecap:round;stroke-dasharray:none"
               d="m 265.61679,125.69015 -11.89791,3.30349"
               id="path4460"
               sodipodi:nodetypes="cc" />
            <path
               style="fill:#000000;stroke:#000000;stroke-width:0.4;stroke-linecap:round;stroke-dasharray:none"
               d="m 262.98186,129.81952 -9.04529,1.80905"
               id="path4462" />
          </g>
          <g
             id="g4496">
            <path
               style="fill:#009f01;fill-opacity:1;stroke:#000000;stroke-width:0.4;stroke-linecap:round;stroke-dasharray:none"
               d="m 252.44667,132.09095 c 0,0 -4.89432,3.55951 -9.00999,0.55618 -4.11568,-3.00333 -7.28586,-7.3971 -4.8387,-14.73857 2.44715,-7.34148 10.30469,-10.191 11.56317,-11.21351 1.25847,-1.02251 2.35964,-2.32032 2.35964,-2.32032 0,0 1.739,1.68175 3.85408,3.22485 2.70289,1.97195 6.59064,4.90087 9.13069,9.05878 1.35613,2.21991 2.48156,7.33908 -0.28204,12.2173 -2.51923,4.44687 -6.3317,5.0339 -8.45538,4.67995 -2.12368,-0.35394 -4.32147,-1.46466 -4.32147,-1.46466 z"
               id="path4466"
               sodipodi:nodetypes="cssscssssc" />
            <path
               style="fill:#009f01;fill-opacity:1;stroke:#000000;stroke-width:0.4;stroke-linecap:round;stroke-dasharray:none"
               d="m 251.4683,136.0954 0.64467,-31.13176 0.55617,-0.12514 1.17894,31.31272 c 0,0 -0.55058,0.1868 -1.19948,0.19663 -0.6489,0.01 -1.1803,-0.25245 -1.1803,-0.25245 z"
               id="path4468"
               sodipodi:nodetypes="cccccc" />
            <path
               style="fill:none;stroke:#000000;stroke-width:0.4;stroke-linecap:round;stroke-dasharray:none"
               d="m 248.05714,109.25132 3.77542,2.73325"
               id="path4470" />
            <path
               style="fill:none;stroke:#000000;stroke-width:0.4;stroke-linecap:round;stroke-dasharray:none"
               d="m 245.22557,111.8076 6.48901,4.58163"
               id="path4472"
               sodipodi:nodetypes="cc" />
            <path
               style="fill:none;stroke:#000000;stroke-width:0.4;stroke-linecap:round;stroke-dasharray:none"
               d="m 242.07938,115.07177 9.51721,5.84011"
               id="path4474"
               sodipodi:nodetypes="cc" />
            <path
               style="fill:none;stroke:#000000;stroke-width:0.4;stroke-linecap:round;stroke-dasharray:none"
               d="m 239.91638,118.49325 11.67346,6.38156"
               id="path4476"
               sodipodi:nodetypes="cc" />
            <path
               style="fill:none;stroke:#000000;stroke-width:0.4;stroke-linecap:round;stroke-dasharray:none"
               d="m 238.67757,122.26867 12.78138,5.8991"
               id="path4478" />
            <path
               style="fill:none;stroke:#000000;stroke-width:0.4;stroke-linecap:round;stroke-dasharray:none"
               d="m 240.09335,127.3419 11.40493,3.8934"
               id="path4480" />
            <path
               style="fill:none;stroke:#000000;stroke-width:0.4;stroke-linecap:round;stroke-dasharray:none"
               d="m 254.95908,108.42545 -1.96636,1.33713"
               id="path4482" />
            <path
               style="fill:none;stroke:#000000;stroke-width:0.4;stroke-linecap:round;stroke-dasharray:none"
               d="m 257.98729,110.66711 -4.87659,3.26417"
               id="path4484" />
            <path
               style="fill:none;stroke:#000000;stroke-width:0.4;stroke-linecap:round;stroke-dasharray:none"
               d="m 260.93684,113.65598 -7.59018,4.48332"
               id="path4486" />
            <path
               style="fill:none;stroke:#000000;stroke-width:0.4;stroke-linecap:round;stroke-dasharray:none"
               d="m 263.80773,117.15612 -10.30376,5.34852"
               id="path4488" />
            <path
               style="fill:none;stroke:#000000;stroke-width:0.4;stroke-linecap:round;stroke-dasharray:none"
               d="m 265.49881,121.1675 -11.7982,5.19121"
               id="path4490" />
            <path
               style="fill:none;stroke:#000000;stroke-width:0.4;stroke-linecap:round;stroke-dasharray:none"
               d="m 265.61679,125.69015 -11.89791,3.30349"
               id="path4492"
               sodipodi:nodetypes="cc" />
            <path
               style="fill:none;stroke:#000000;stroke-width:0.4;stroke-linecap:round;stroke-dasharray:none"
               d="m 262.98186,129.81952 -9.04529,1.80905"
               id="path4494" />
          </g>
          <path
             style="fill:#000000;fill-opacity:1;stroke:none;stroke-width:0.4;stroke-linecap:round;stroke-dasharray:none"
             d="m 252.99763,137.35562 1.05692,-1.07167 -1.54359,0.0934 z"
             id="path4498" />
        </g>
      </g>
    </g>
  </g>
</svg>
