<?xml version="1.0" encoding="UTF-8" standalone="no"?>
<!-- Created with Inkscape (http://www.inkscape.org/) -->

<svg
   width="131.60831mm"
   height="146.09372mm"
   viewBox="0 0 131.60831 146.09372"
   version="1.1"
   id="svg4269"
   inkscape:version="1.2.2 (732a01da63, 2022-12-09)"
   sodipodi:docname="Wappen Lottorf2.svg"
   xmlns:inkscape="http://www.inkscape.org/namespaces/inkscape"
   xmlns:sodipodi="http://sodipodi.sourceforge.net/DTD/sodipodi-0.dtd"
   xmlns="http://www.w3.org/2000/svg"
   xmlns:svg="http://www.w3.org/2000/svg">
  <sodipodi:namedview
     id="namedview4271"
     pagecolor="#ffffff"
     bordercolor="#666666"
     borderopacity="1.0"
     inkscape:showpageshadow="2"
     inkscape:pageopacity="0.0"
     inkscape:pagecheckerboard="0"
     inkscape:deskcolor="#d1d1d1"
     inkscape:document-units="mm"
     showgrid="false"
     inkscape:zoom="0.96941965"
     inkscape:cx="249.11812"
     inkscape:cy="276.96983"
     inkscape:current-layer="layer1" />
  <defs
     id="defs4266">
    <inkscape:path-effect
       effect="powerstroke"
       id="path-effect2393"
       is_visible="true"
       lpeversion="1"
       offset_points="0.32472954,0.21716568 | 0.99843101,0.41470503 | 1.6594322,0.23560673"
       not_jump="false"
       sort_points="true"
       interpolator_type="CentripetalCatmullRom"
       interpolator_beta="0.2"
       start_linecap_type="zerowidth"
       linejoin_type="round"
       miter_limit="4"
       scale_width="1"
       end_linecap_type="zerowidth" />
    <inkscape:path-effect
       effect="powerstroke"
       id="path-effect2399"
       is_visible="true"
       lpeversion="1"
       offset_points="0.32472954,0.21716568 | 1.0258906,0.45830013 | 1.6805106,0.26104365"
       not_jump="false"
       sort_points="true"
       interpolator_type="CentripetalCatmullRom"
       interpolator_beta="0.2"
       start_linecap_type="zerowidth"
       linejoin_type="round"
       miter_limit="4"
       scale_width="1"
       end_linecap_type="zerowidth" />
    <inkscape:path-effect
       effect="powerstroke"
       id="path-effect2405"
       is_visible="true"
       lpeversion="1"
       offset_points="0.32472954,0.21716568 | 0.99533354,0.33401323 | 1.6594322,0.23560673"
       not_jump="false"
       sort_points="true"
       interpolator_type="CentripetalCatmullRom"
       interpolator_beta="0.2"
       start_linecap_type="zerowidth"
       linejoin_type="round"
       miter_limit="4"
       scale_width="1"
       end_linecap_type="zerowidth" />
    <inkscape:path-effect
       effect="powerstroke"
       id="path-effect2411"
       is_visible="true"
       lpeversion="1"
       offset_points="0.32472954,0.21716568 | 1.0480452,0.48949756 | 1.6805106,0.26104365"
       not_jump="false"
       sort_points="true"
       interpolator_type="CentripetalCatmullRom"
       interpolator_beta="0.2"
       start_linecap_type="zerowidth"
       linejoin_type="round"
       miter_limit="4"
       scale_width="1"
       end_linecap_type="zerowidth" />
    <inkscape:path-effect
       effect="powerstroke"
       id="path-effect2417"
       is_visible="true"
       lpeversion="1"
       offset_points="0.32472954,0.21716568 | 0.99843101,0.41470503 | 1.6594322,0.23560673"
       not_jump="false"
       sort_points="true"
       interpolator_type="CentripetalCatmullRom"
       interpolator_beta="0.2"
       start_linecap_type="zerowidth"
       linejoin_type="round"
       miter_limit="4"
       scale_width="1"
       end_linecap_type="zerowidth" />
    <inkscape:path-effect
       effect="powerstroke"
       id="path-effect2423"
       is_visible="true"
       lpeversion="1"
       offset_points="0.32266403,0.31540608 | 1.0437432,0.76104721 | 1.710381,0.37100819"
       not_jump="false"
       sort_points="true"
       interpolator_type="CentripetalCatmullRom"
       interpolator_beta="0.2"
       start_linecap_type="zerowidth"
       linejoin_type="round"
       miter_limit="4"
       scale_width="1"
       end_linecap_type="zerowidth" />
    <inkscape:path-effect
       effect="powerstroke"
       id="path-effect2429"
       is_visible="true"
       lpeversion="1"
       offset_points="0.32266403,0.31540608 | 1.0490695,0.58046611 | 1.710381,0.37100819"
       not_jump="false"
       sort_points="true"
       interpolator_type="CentripetalCatmullRom"
       interpolator_beta="0.2"
       start_linecap_type="zerowidth"
       linejoin_type="round"
       miter_limit="4"
       scale_width="1"
       end_linecap_type="zerowidth" />
    <inkscape:path-effect
       effect="powerstroke"
       id="path-effect2435"
       is_visible="true"
       lpeversion="1"
       offset_points="0.32266403,0.31540608 | 1.0490695,0.58046611 | 1.710381,0.37100819"
       not_jump="false"
       sort_points="true"
       interpolator_type="CentripetalCatmullRom"
       interpolator_beta="0.2"
       start_linecap_type="zerowidth"
       linejoin_type="round"
       miter_limit="4"
       scale_width="1"
       end_linecap_type="zerowidth" />
    <inkscape:path-effect
       effect="powerstroke"
       id="path-effect870"
       is_visible="true"
       lpeversion="1"
       offset_points="0.32472954,0.21716568 | 0.99505979,0.60927183 | 1.6594322,0.23560673"
       not_jump="false"
       sort_points="true"
       interpolator_type="CentripetalCatmullRom"
       interpolator_beta="0.2"
       start_linecap_type="zerowidth"
       linejoin_type="round"
       miter_limit="4"
       scale_width="1"
       end_linecap_type="zerowidth" />
    <inkscape:path-effect
       effect="powerstroke"
       id="path-effect972"
       is_visible="true"
       lpeversion="1"
       offset_points="0.30306215,0.24716015 | 1.0122936,0.36223625 | 1.7720561,0.24941485"
       not_jump="false"
       sort_points="true"
       interpolator_type="CentripetalCatmullRom"
       interpolator_beta="0.2"
       start_linecap_type="zerowidth"
       linejoin_type="round"
       miter_limit="4"
       scale_width="1"
       end_linecap_type="zerowidth" />
    <inkscape:path-effect
       effect="powerstroke"
       id="path-effect978"
       is_visible="true"
       lpeversion="1"
       offset_points="0.25613625,0.1762296 | 1.0122936,0.36223625 | 1.7346027,0.16764483"
       not_jump="false"
       sort_points="true"
       interpolator_type="CentripetalCatmullRom"
       interpolator_beta="0.2"
       start_linecap_type="zerowidth"
       linejoin_type="round"
       miter_limit="4"
       scale_width="1"
       end_linecap_type="zerowidth" />
    <inkscape:path-effect
       effect="powerstroke"
       id="path-effect984"
       is_visible="true"
       lpeversion="1"
       offset_points="0.46715544,0.12485135 | 0.99025839,0.26992816 | 1.7346027,0.16764483"
       not_jump="false"
       sort_points="true"
       interpolator_type="CentripetalCatmullRom"
       interpolator_beta="0.2"
       start_linecap_type="zerowidth"
       linejoin_type="round"
       miter_limit="4"
       scale_width="1"
       end_linecap_type="zerowidth" />
    <inkscape:path-effect
       effect="powerstroke"
       id="path-effect990"
       is_visible="true"
       lpeversion="1"
       offset_points="0.34171995,0.20116689 | 0.99025839,0.26992816 | 1.5912385,0.099663361"
       not_jump="false"
       sort_points="true"
       interpolator_type="CentripetalCatmullRom"
       interpolator_beta="0.2"
       start_linecap_type="zerowidth"
       linejoin_type="round"
       miter_limit="4"
       scale_width="1"
       end_linecap_type="zerowidth" />
  </defs>
  <g
     inkscape:label="Ebene 1"
     inkscape:groupmode="layer"
     id="layer1"
     transform="translate(-534.48822,-75.453141)">
    <g
       id="g4067"
       transform="translate(497.83092,-11.87548)">
      <path
         id="path3586"
         style="fill:#ffffff;stroke:none;stroke-width:0.9;stroke-dasharray:none"
         d="m 37.107296,87.778621 v 80.232829 a 65.35421,64.960938 0 0 0 65.354154,64.96089 65.35421,64.960938 0 0 0 65.35415,-64.96037 65.35421,64.960938 0 0 0 0,-5.2e-4 V 87.778621 Z" />
      <g
         id="g3882">
        <path
           id="rect3818"
           style="fill:#0000ff;stroke:#000000;stroke-width:0.3;stroke-dasharray:none"
           d="m 37.107296,87.778621 v 80.232829 a 65.35421,64.960938 0 0 0 24.872383,50.93436 V 87.778621 Z" />
        <path
           id="rect3875"
           style="fill:#ffff00;stroke:#000000;stroke-width:0.3;stroke-dasharray:none"
           d="m 37.107296,87.778621 v 80.232829 a 65.35421,64.960938 0 0 0 15.11949,41.50909 V 87.778621 Z" />
      </g>
      <g
         id="g3888"
         inkscape:transform-center-x="-52.917963"
         inkscape:transform-center-y="96.194171"
         transform="matrix(-1,0,0,1,204.9229,0)">
        <path
           id="path3884"
           style="fill:#0000ff;stroke:#000000;stroke-width:0.3;stroke-dasharray:none"
           d="m 37.107296,87.778621 v 80.232829 a 65.35421,64.960938 0 0 0 24.872383,50.93436 V 87.778621 Z" />
        <path
           id="path3886"
           style="fill:#ffff00;stroke:#000000;stroke-width:0.3;stroke-dasharray:none"
           d="m 37.107296,87.778621 v 80.232829 a 65.35421,64.960938 0 0 0 15.11949,41.50909 V 87.778621 Z" />
      </g>
      <path
         id="path3890"
         style="fill:none;stroke:#000000;stroke-width:0.9;stroke-dasharray:none"
         d="m 37.107296,87.778621 v 80.232829 a 65.35421,64.960938 0 0 0 65.354154,64.96089 65.35421,64.960938 0 0 0 65.35415,-64.96037 65.35421,64.960938 0 0 0 0,-5.2e-4 V 87.778621 Z" />
      <g
         id="g2330"
         transform="translate(1.0754954,-0.18879391)">
        <path
           id="path2290"
           style="fill:#000000;stroke:none;stroke-width:0.0499999;stroke-dasharray:none"
           d="m 108.14999,146.8484 -8.416026,3.93258 0.236161,4.71909 c 0,0 -3.006458,-0.42132 -4.781103,-0.24443 -2.361516,0.23539 -3.03134,2.05776 -3.03134,2.05776 0,0 3.031014,-0.41728 3.531568,-0.19482 0.500557,0.22246 1.047873,0.80153 0.38964,0.86196 -1.603117,0.14719 -3.232062,0.90074 -4.171322,1.2516 -1.699459,0.63482 -2.308386,3.11454 -2.308386,3.11454 0,0 1.390671,-0.80664 2.002462,-0.94568 0.611787,-0.13904 1.056844,0.27813 1.668632,0.30593 0.61179,0.0278 0.917511,-0.75086 1.584916,-0.75086 0.667405,0 1.167851,0.63997 1.751831,0.55655 0.58398,-0.0834 1.779766,-1.08469 2.085661,-1.08469 0.305896,0 0.917931,0.57122 1.557526,0.62684 0.6396,0.0556 1.22324,-0.73794 1.83503,-0.73794 0.61179,0 1.08459,0.61166 1.50172,0.55604 0.41713,-0.0556 1.14049,-0.69518 2.03037,-0.13901 0.88986,0.55618 2.53059,1.80764 2.53059,1.80764 0,0 0.0277,-1.75203 -0.47284,-2.25258 -0.50055,-0.50056 -1.2237,-1.39061 -1.2237,-1.39061 0,0 0.26396,-0.0277 0.52814,-0.1111 0.26418,-0.0834 0.63975,-0.26407 0.63975,-0.26407 0,0 0.6813,0.62584 1.3348,0.63975 0.6535,0.0139 1.83555,-0.5426 1.83555,-0.5426 0,0 0.84824,0.7925 1.80764,1.02888 0.9594,0.23637 1.80747,-0.0275 2.50269,0.22273 0.69521,0.25028 1.68259,0.77876 1.68259,0.77876 0,0 -0.76523,-1.93318 -1.6273,-2.51716 -0.86205,-0.58398 -3.83749,-1.98799 -3.83749,-1.98799 l 1.39423,-4.69584 z m 0.59014,5.42706 -0.49144,3.04788 c 0,0 -0.8656,-0.21637 -2.3797,-0.33435 -1.5141,-0.11798 -2.63498,-0.17673 -2.63498,-0.17673 l 0.0987,-2.00608 c 0,0 -0.0592,1.8e-4 2.0252,-0.13746 2.08435,-0.13765 3.38222,-0.39326 3.38222,-0.39326 z" />
        <g
           id="g2233">
          <path
             style="fill:#000000;stroke:none;stroke-width:0.0499999;stroke-dasharray:none"
             d="m 126.82122,137.17993 c 0,0 3.23788,2.32369 6.0265,8.13456 1.41014,2.93842 1.27451,6.0267 -0.15731,7.59017 -1.66804,1.8214 -4.95804,1.31327 -5.85977,0.0393 -1.19127,-1.68303 -1.19129,-3.43093 -0.10673,-3.59778 1.08453,-0.16686 0.77864,1.08453 1.44605,1.98831 0.63121,0.85477 1.75012,1.26456 2.80867,0.19466 0.90912,-0.91887 -0.72302,-2.69743 -0.72302,-2.69743 0,0 -1.04599,0.65608 -1.77975,0.27808 -0.91769,-0.47275 -0.63317,-2.31889 -0.38932,-3.78197 0.27808,-1.66852 0.22246,-2.50278 -3e-5,-2.53058 -0.22247,-0.0278 -1.41318,1.69133 -2.25871,1.33739 -0.84554,-0.35395 -0.76689,-3.48047 -0.76689,-3.48047 z"
             id="path2146"
             sodipodi:nodetypes="csssssscsssscc" />
          <path
             style="fill:#000000;stroke:none;stroke-width:0.0499999;stroke-dasharray:none"
             d="m 130.8027,126.00477 c 0,0 3.59845,0.0393 3.69677,0.96352 0.0983,0.92419 -0.2163,1.27813 -0.2163,1.27813 0,0 3.14922,3.02274 3.75576,5.23054 0.57464,2.09169 1.14247,5.0033 -0.90453,7.39354 -1.99105,2.32491 -4.52264,2.12367 -5.11255,1.41578 -0.58991,-0.70789 -0.67811,-1.45709 0.78654,-2.87089 1.28114,-1.23666 1.76307,-3.94661 0.89546,-5.46126 -1.6407,-2.86428 -5.11678,-2.41935 -5.11678,-2.41935 z"
             id="path2144"
             sodipodi:nodetypes="cscssssscc" />
          <path
             style="color:#000000;fill:#000000;stroke:none;stroke-width:0.4;-inkscape-stroke:none"
             d="m 80.839664,103.5315 c 0,0 5.697583,2.37547 9.538356,6.70188 3.874124,4.36397 6.451602,8.78752 6.451602,8.78752 0,0 3.759448,-0.15913 8.921568,0.0623 5.62099,0.24112 8.96663,0.74722 8.96663,0.74722 0,0 -0.12192,-1.06654 0.28473,-1.56035 0.53423,-0.64872 1.40434,-0.66741 1.40434,-0.66741 0,0 -0.0834,-3.67073 1.05673,-3.8654 1.14015,-0.19466 1.47386,1.16797 1.47386,1.16797 0,0 -0.33371,-4.11568 2.33592,-4.64404 2.66963,-0.52837 2.83648,2.00222 2.83648,2.00222 0,0 0.17837,-1.42499 1.71459,-1.20729 1.41094,0.19995 0.89942,3.93253 0.89942,3.93253 0,0 0.43655,-1.01406 1.4514,-0.81122 1.34354,0.26854 0.4525,3.60361 0.4525,3.60361 0,0 0.3527,-0.61954 1.3219,-0.34523 1.47386,0.41713 0.22247,4.22691 0.22247,4.22691 0,0 0.35008,-1.28488 1.64071,-0.80645 1.6129,0.59789 -1.59448,8.27791 -2.98704,12.54925 -1.62919,4.99718 -4.52129,10.1982 -5.8561,10.64314 -1.33482,0.44494 -2.33593,0.33371 -2.33593,0.33371 0,0 2.82258,2.21078 3.01724,2.46106 0.19466,0.25028 0.88987,2.65572 0.88987,2.65572 l -1.84927,-0.93159 0.83426,2.54449 -2.73915,-1.26529 0.86207,2.55839 -2.40545,-0.94549 1.04283,2.906 -2.69744,-1.40433 0.52836,2.50277 -2.23859,-1.22358 0.6396,2.68353 c 0,0 -4.08129,-2.68226 -5.37909,-3.86208 -1.29781,-1.17982 -2.4383,-2.43829 -2.4383,-2.43829 0,0 -10.2026,2.21251 -14.763214,0.21029 -4.560614,-2.00222 -7.452711,-4.78309 -9.510549,-5.72858 -2.057838,-0.94549 -7.174625,-1.89099 -8.898759,-5.67296 -1.724135,-3.78197 -2.113456,-9.28808 -2.002221,-16.51832 0.111234,-7.23024 0.05562,-9.39931 0.05562,-9.39931 0,0 -3.185695,-0.0554 -3.185695,-0.48805 0,-0.4326 0.609573,-0.53092 0.570246,-0.76688 -0.03933,-0.23597 -1.533766,0.0197 -1.533766,-0.41294 0,-0.4326 0.648901,-0.4326 0.629238,-0.70789 -0.01966,-0.27529 -1.592757,-0.37361 -1.592757,-0.80621 0,-0.4326 1.199483,-0.4916 1.199483,-0.80621 0,-0.31462 -1.730402,-0.23597 -1.730402,-0.68823 0,-0.45227 1.278138,-0.70789 1.297802,-1.00285 0.01966,-0.29495 -1.494439,-0.4326 -1.494439,-0.84554 0,-0.41293 1.140493,-0.90453 1.140493,-0.90453 0,0 -0.294955,-0.4326 -1.219148,-0.82587 -0.924192,-0.39327 -2.625099,-0.18681 -2.625099,-0.18681 0,0 1.842163,-0.80436 2.871082,-0.74874 1.028919,0.0556 1.974413,0.43103 1.974413,0.43103 0,0 0.458842,-1.72413 -0.931589,-2.40545 -1.390431,-0.68131 -3.180612,-0.58746 -3.180612,-0.58746 0,0 1.428669,-0.90725 2.888621,-0.97677 1.459953,-0.0695 2.683532,0.36846 2.683532,0.36846 0,0 0.375417,-2.169069 2.502776,-2.335921 2.12736,-0.166852 3.156279,1.557281 3.434365,1.710231 0.278086,0.15295 1.181866,-0.12514 1.821465,0.19466 0.639598,0.3198 1.918795,1.26529 1.974412,1.66852 0.05562,0.40322 -0.236374,1.14015 -0.236374,1.14015 z"
             id="path1805"
             sodipodi:nodetypes="cscscscscscscscscssscscccccccccccscsssscssssssssscscscscscssssc" />
          <path
             id="path1358"
             style="fill:#ffffff;stroke:none;stroke-width:0.0499999;stroke-dasharray:none"
             d="m 121.96,110.18862 c -0.20821,3.7e-4 -0.4365,0.0228 -0.68678,0.0724 -2.66963,0.52836 -2.36528,4.65399 -2.36528,4.65399 0,0 -0.30416,-1.37238 -1.44431,-1.17772 -1.14013,0.19467 -1.05678,3.8654 -1.05678,3.8654 0,0 0.20337,-0.0452 0.0134,-0.004 0.63981,0.52898 0.91385,1.22708 0.93231,1.79944 0.0393,1.21915 -0.35357,1.65187 -0.27492,2.20245 0.0787,0.55059 1.0221,1.57283 1.06143,2.87063 0.0393,1.29779 -1.07956,2.69072 -0.94361,3.14606 0.26616,0.89144 2.16659,0.81262 2.39882,1.80919 0.34519,1.48135 -0.31955,3.01398 0.19689,3.58324 0.34352,0.37865 1.34307,0.74983 1.34307,0.74983 l 0.55655,1.50171 c 0,0 1.25106,-0.12519 3.3228,0.87592 0.99569,0.48114 1.73998,0.99524 2.22157,1.36994 0.58692,-1.31312 1.1381,-2.71361 1.5906,-4.10156 1.39256,-4.27133 4.59979,-11.95121 2.9869,-12.5491 -1.29063,-0.47843 -1.64021,0.80667 -1.64021,0.80667 0,0 1.25113,-3.81 -0.22273,-4.22713 -0.9692,-0.27431 -1.32188,0.34519 -1.32188,0.34519 0,0 0.89085,-3.33485 -0.45269,-3.60339 -1.01485,-0.20284 -1.45107,0.81132 -1.45107,0.81132 0,0 0.51125,-3.73263 -0.89969,-3.93258 -1.53622,-0.2177 -1.69496,1.1875 -1.69496,1.1875 0,0 -0.15672,-2.05872 -2.1694,-2.05515 z"
             sodipodi:nodetypes="sccsccscssssccscsscscscscss" />
          <path
             style="fill:#ff0000;stroke:none;stroke-width:0.1;stroke-dasharray:none"
             d="m 66.315711,101.65132 c 0,0 0.983184,-0.7079 2.212163,-0.69806 1.228979,0.01 2.497285,0.23596 2.497285,0.23596 0,0 0.737386,1.35679 -0.108151,3.0282 -0.845537,1.67142 -1.966367,1.94671 -1.966367,1.94671 l -0.865201,-0.79638 -0.865201,-0.30479 -0.776716,-0.22613 -0.01966,-0.17697 1.120828,-0.27529 0.983183,0.0393 0.953688,0.33429 0.462095,0.16714 0.137647,-1.20932 -0.442434,-0.92419 -0.550582,-0.54075 -1.081503,-0.35395 -0.993013,-0.16714 z"
             id="path2039" />
          <path
             style="fill:#ff0000;stroke:none;stroke-width:0.1;stroke-dasharray:none"
             d="m 71.412541,101.19558 c 0,0 1.042823,1.11234 1.863177,1.18186 0.820354,0.0695 2.002221,-0.36151 2.64182,-0.16685 0.639598,0.19466 1.877081,1.37653 2.363732,1.41824 0.48665,0.0417 0.987208,-0.51446 1.432144,-0.6535 0.44494,-0.13905 1.334815,0.0278 1.334815,0.0278 v -0.59788 l -0.639598,-0.77864 -1.140153,-0.76474 -0.709121,-0.26418 -1.209675,0.0556 -1.015015,-1.070635 -1.167961,-0.570076 -1.793658,-0.09733 -1.042824,0.55617 -0.695213,0.875971 z"
             id="path1875" />
          <path
             style="fill:#ffffff;stroke:none;stroke-width:0.0499999;stroke-dasharray:none"
             d="m 81.092954,103.72583 c 0,0 -0.845536,1.63209 -0.216299,1.90738 0.629237,0.27529 1.061836,-0.74722 1.317466,-0.60957 0.255627,0.13764 -0.09832,1.5141 0.196636,1.55343 0.294955,0.0393 0.511254,-0.94386 0.825873,-0.72756 0.314619,0.2163 -0.05899,1.7304 0.216302,1.84838 0.275291,0.11799 0.688226,-0.6489 1.002845,-0.62923 0.314619,0.0197 0.294955,1.43544 0.550585,1.49443 0.255627,0.059 0.570246,-0.80621 0.845537,-0.70789 0.275291,0.0983 0.648901,0.82588 0.609573,1.21915 -0.03933,0.39327 -0.176974,0.72755 -0.117983,0.96352 0.05899,0.23596 0.924192,-0.27529 1.415785,-0.27529 0.491591,0 0.353947,1.14049 0.609574,1.2978 0.255627,0.15731 0.96352,0.0393 1.2978,0.35395 0.334282,0.31461 0.09832,1.23881 0.25563,1.43544 0.157308,0.19664 0.983181,-0.2163 1.160155,0.15731 0.176972,0.37361 -0.03933,1.75007 0.176972,1.7304 0.216302,-0.0196 0.412938,-0.41293 0.550585,-0.39327 0.137644,0.0197 -0.117983,1.02251 0.07865,1.17982 0.196639,0.15731 0.648902,0.45227 0.904529,0.27529 0.25563,-0.17697 0.589909,-0.27529 0.766884,-0.29495 0.176972,-0.0197 0.766881,-0.13765 0.766881,-0.13765 l -1.553429,-2.163 c 0,0 -2.752913,-3.85408 -4.011388,-4.62096 -1.258474,-0.76688 -2.831565,-2.32031 -4.581633,-3.28383 -1.750065,-0.96352 -3.067532,-1.5731 -3.067532,-1.5731 z"
             id="path2281" />
          <path
             style="fill:#ffffff;stroke:none;stroke-width:0.05;stroke-dasharray:none"
             d="m 77.989281,103.89301 c 0,0 -0.206012,1.68213 -2.088324,1.43285 -1.260988,-0.167 -1.873063,-1.24271 -1.691964,-1.91584 0.198171,-0.73659 1.07721,-1.00848 1.639023,-0.71109 0.623282,0.32992 0.698048,0.82351 0.556173,1.23579 -0.100164,0.29107 -0.597885,0.6257 -0.597885,0.6257 0,0 0.750832,0.27808 1.154057,0 0.403225,-0.27809 0.695217,-0.94549 0.792546,-0.93159 0.09733,0.0139 0.236374,0.26418 0.236374,0.26418 z"
             id="path2267"
             sodipodi:nodetypes="csssscssc" />
          <ellipse
             style="fill:#000000;stroke:none;stroke-width:0.0999996;stroke-dasharray:none"
             id="path2103"
             cx="75.521271"
             cy="103.56625"
             rx="0.54922026"
             ry="0.54922032" />
          <path
             style="fill:#ffffff;fill-rule:nonzero;stroke:none;stroke-width:0.55;stroke-dasharray:none"
             d="m 79.803793,110.71308 c -0.0089,0.0421 0.01567,0.15638 0.238849,0.26419 0.07888,0.0381 0.183842,0.081 0.313817,0.12263 0.161179,0.0517 0.358792,0.10058 0.565264,0.12878 0.204484,0.0279 0.414893,0.0353 0.605877,0.006 0.102477,-0.0161 0.201848,-0.0462 0.298786,-0.0847 0.0949,-0.0377 0.19006,-0.0845 0.282312,-0.13604 0.189845,-0.10614 0.370271,-0.23416 0.515166,-0.35129 0.10558,-0.0853 0.192228,-0.16473 0.258534,-0.23237 0.213363,-0.21764 0.201435,-0.35218 0.175002,-0.39121 h 0 c -0.02901,-0.0428 -0.141292,-0.095 -0.421189,-0.0106 -0.0893,0.0269 -0.190086,0.0613 -0.312088,0.10404 -0.166351,0.0584 -0.351398,0.12512 -0.52621,0.18023 -0.08493,0.0268 -0.161639,0.049 -0.231201,0.0666 -0.07334,0.0186 -0.12515,0.0287 -0.167359,0.0359 -0.132728,0.0221 -0.267195,0.0403 -0.455127,0.0583 -0.175632,0.0168 -0.360037,0.0296 -0.516447,0.0425 -0.128891,0.0106 -0.230092,0.0207 -0.315387,0.0329 -0.23391,0.0335 -0.298887,0.11876 -0.308599,0.1645 z"
             id="path2391"
             inkscape:path-effect="#path-effect2393"
             inkscape:original-d="m 79.803793,110.71308 c 0,0 1.015015,0.21551 1.661564,0.11125 0.566974,-0.0914 1.592043,-0.78559 1.592043,-0.78559"
             sodipodi:nodetypes="csc" />
          <path
             style="fill:#ffffff;fill-rule:nonzero;stroke:none;stroke-width:0.55;stroke-dasharray:none"
             d="m 81.716476,114.96472 c 0.0078,0.0435 0.08304,0.13202 0.376436,0.14699 0.103396,0.005 0.236071,0.007 0.395765,-6.5e-4 0.19658,-0.009 0.427904,-0.031 0.655347,-0.0712 0.110608,-0.0195 0.219798,-0.0433 0.322695,-0.0718 0.106069,-0.0294 0.206265,-0.0641 0.296357,-0.10544 0.02141,-0.01 0.04222,-0.0204 0.06231,-0.0313 0.07538,-0.041 0.149743,-0.0923 0.222279,-0.14961 0.08972,-0.0708 0.180663,-0.15398 0.269677,-0.24315 0.182634,-0.18296 0.36081,-0.39494 0.50486,-0.58553 0.119942,-0.15869 0.214642,-0.30018 0.282266,-0.41452 0.183792,-0.31076 0.138115,-0.45446 0.09906,-0.48961 v 0 c -0.04157,-0.0374 -0.181884,-0.0628 -0.477215,0.12964 -0.111371,0.0726 -0.240295,0.16486 -0.396215,0.27995 -0.186589,0.13773 -0.389163,0.29126 -0.575377,0.42422 -0.09096,0.0649 -0.170735,0.11978 -0.241261,0.16549 -0.05901,0.0383 -0.09902,0.062 -0.132444,0.0814 -0.0077,0.004 -0.01495,0.009 -0.02016,0.0118 -0.05546,0.0302 -0.1179,0.0631 -0.200009,0.10408 -0.078,0.0389 -0.161897,0.0791 -0.253941,0.12197 -0.185814,0.0866 -0.387244,0.17596 -0.558274,0.2543 -0.142619,0.0653 -0.25182,0.1173 -0.345028,0.16492 -0.255158,0.13034 -0.295419,0.23167 -0.287131,0.27806 z"
             id="path2395"
             inkscape:path-effect="#path-effect2399"
             inkscape:original-d="m 81.716476,114.96472 c 0,0 1.257325,-0.22461 1.845467,-0.51272 0.515768,-0.25258 1.641586,-1.50316 1.641586,-1.50316"
             sodipodi:nodetypes="csc" />
          <path
             style="fill:#ffffff;fill-rule:nonzero;stroke:none;stroke-width:0.55;stroke-dasharray:none"
             d="m 82.720495,117.56894 v 0 c 0.0018,0.0403 0.05044,0.15935 0.285982,0.18974 0.08338,0.0108 0.194456,0.0129 0.330451,0.002 0.169627,-0.0142 0.377181,-0.0496 0.599347,-0.11466 0.218267,-0.0639 0.439745,-0.15316 0.647355,-0.27074 0.0041,-0.002 0.0081,-0.005 0.01221,-0.007 0.509166,-0.29213 0.933337,-0.6774 1.191754,-0.98318 0.09206,-0.10894 0.16071,-0.20494 0.207362,-0.28467 0.14846,-0.25372 0.07731,-0.38038 0.04301,-0.40749 -0.03909,-0.0309 -0.162555,-0.0643 -0.388795,0.0874 -0.07274,0.0488 -0.157116,0.11398 -0.261078,0.19679 -0.303975,0.24213 -0.672543,0.54808 -1.126592,0.81271 -0.0032,0.002 -0.0064,0.004 -0.0096,0.006 -0.164573,0.0953 -0.338873,0.17648 -0.520729,0.24915 -0.184071,0.0735 -0.357298,0.13107 -0.502127,0.1803 -0.11715,0.0398 -0.208016,0.0717 -0.279972,0.10374 -0.19667,0.0875 -0.230613,0.19494 -0.228598,0.24079 z"
             id="path2401"
             inkscape:path-effect="#path-effect2405"
             inkscape:original-d="m 82.720495,117.56894 c 0,0 0.930611,-0.0409 1.708176,-0.49032 0.945404,-0.54639 1.609302,-1.38611 1.609302,-1.38611"
             sodipodi:nodetypes="csc" />
          <path
             style="fill:#ffffff;fill-rule:nonzero;stroke:none;stroke-width:0.55;stroke-dasharray:none"
             d="m 84.674333,120.8009 c 0.0018,0.0438 0.06482,0.14018 0.358197,0.19398 0.102488,0.0188 0.235943,0.0385 0.398071,0.0524 0.198315,0.017 0.435337,0.0246 0.671079,0.009 0.114756,-0.008 0.229365,-0.0209 0.338694,-0.0416 0.112767,-0.0213 0.221721,-0.0507 0.321657,-0.0914 0.06408,-0.0271 0.125692,-0.056 0.184619,-0.0863 0.248582,-0.12791 0.473461,-0.29118 0.669342,-0.46703 0.247179,-0.2219 0.441693,-0.45771 0.582912,-0.66211 0.115935,-0.1678 0.196486,-0.31484 0.249651,-0.42896 0.14185,-0.3045 0.06606,-0.43365 0.02529,-0.46143 -0.04804,-0.0327 -0.173519,-0.047 -0.42804,0.12922 -0.105453,0.073 -0.209224,0.14951 -0.366308,0.26366 -0.181564,0.13194 -0.393294,0.28379 -0.625907,0.43302 -0.185662,0.1191 -0.368541,0.22626 -0.556393,0.3239 -0.04397,0.0229 -0.08874,0.0456 -0.13433,0.0678 -0.04685,0.0256 -0.1051,0.0551 -0.183614,0.0904 -0.07475,0.0336 -0.157963,0.068 -0.250091,0.10371 -0.187552,0.0727 -0.393495,0.14348 -0.570998,0.20493 -0.15445,0.0535 -0.257431,0.0896 -0.361253,0.1281 -0.27064,0.10044 -0.324558,0.19101 -0.322574,0.23889 z"
             id="path2407"
             inkscape:path-effect="#path-effect2411"
             inkscape:original-d="m 84.674333,120.8009 c 0,0 1.290754,-0.0535 1.888117,-0.32194 1.122808,-0.50458 1.911391,-1.66171 1.911391,-1.66171"
             sodipodi:nodetypes="csc" />
          <path
             style="fill:#ffffff;fill-rule:nonzero;stroke:none;stroke-width:0.55;stroke-dasharray:none"
             d="m 87.256635,123.16143 c 0.008,0.0423 0.07471,0.13827 0.322201,0.15177 0.08748,0.005 0.200841,0.004 0.336837,-0.008 0.168644,-0.0144 0.369843,-0.0454 0.57124,-0.099 0.199458,-0.053 0.396441,-0.12733 0.561284,-0.22821 0.08834,-0.0544 0.168454,-0.12042 0.24308,-0.19328 0.07306,-0.0713 0.142849,-0.15116 0.208106,-0.2343 0.134293,-0.17109 0.251463,-0.35875 0.340043,-0.52266 0.06454,-0.11944 0.113919,-0.22608 0.149046,-0.31404 0.113036,-0.28304 0.05019,-0.4026 0.01076,-0.42843 -0.04327,-0.0284 -0.166983,-0.0332 -0.392746,0.15252 -0.07203,0.0593 -0.151814,0.12975 -0.247909,0.21625 -0.131027,0.11793 -0.276061,0.25085 -0.416144,0.36905 -0.06806,0.0574 -0.130293,0.10747 -0.187696,0.15053 -0.06052,0.0454 -0.104437,0.0747 -0.140614,0.0976 -0.113951,0.0716 -0.231046,0.14012 -0.397534,0.22914 -0.155592,0.0832 -0.320829,0.16605 -0.460193,0.23822 -0.114844,0.0595 -0.204369,0.10772 -0.278371,0.15186 -0.202938,0.12105 -0.230054,0.22475 -0.221392,0.2707 z"
             id="path2413"
             inkscape:path-effect="#path-effect2417"
             inkscape:original-d="m 87.256635,123.16143 c 0,0 1.019685,-0.19221 1.576147,-0.53753 0.487986,-0.30279 1.166452,-1.33833 1.166452,-1.33833"
             sodipodi:nodetypes="csc" />
          <path
             style="fill:#ffffff;fill-rule:nonzero;stroke:none;stroke-width:0.55;stroke-dasharray:none"
             d="m 86.565748,114.15368 c -0.0065,0.0582 0.02126,0.21336 0.277931,0.3201 0.09134,0.038 0.217761,0.0819 0.382796,0.11115 0.200605,0.0356 0.459954,0.0486 0.748903,-0.002 0.2886,-0.051 0.593026,-0.16338 0.871921,-0.35536 0.04958,-0.0341 0.09275,-0.0701 0.129804,-0.10545 0.06842,-0.0652 0.125164,-0.1364 0.172658,-0.20794 0.07096,-0.10687 0.127232,-0.22364 0.172505,-0.34073 0.09182,-0.23747 0.146674,-0.49792 0.174936,-0.72041 0.0284,-0.22354 0.03039,-0.40804 0.02141,-0.54286 -0.02003,-0.30061 -0.173599,-0.40408 -0.242682,-0.42673 -0.07286,-0.0239 -0.247553,-0.0302 -0.45314,0.169 -0.09818,0.0952 -0.202663,0.21006 -0.34003,0.36827 -0.135892,0.15651 -0.271136,0.31688 -0.391894,0.44474 -0.05878,0.0622 -0.104356,0.10629 -0.137952,0.13521 -0.02095,0.018 -0.03361,0.0264 -0.03077,0.0243 0.0012,-9.1e-4 0.0081,-0.006 0.0212,-0.0126 -0.149614,0.12756 -0.271063,0.23215 -0.428325,0.35346 -0.152997,0.11803 -0.293485,0.21537 -0.427982,0.3046 -0.09505,0.0631 -0.209919,0.1369 -0.267501,0.17347 -0.196544,0.12483 -0.245983,0.2405 -0.253786,0.31025 z"
             id="path2419"
             inkscape:path-effect="#path-effect2423"
             inkscape:original-d="m 86.565748,114.15368 c 0,0 0.966161,0.10809 1.829571,-0.53416 0.411618,-0.30618 0.88061,-1.7365 0.88061,-1.7365"
             sodipodi:nodetypes="csc" />
          <path
             style="fill:#ffffff;fill-rule:nonzero;stroke:none;stroke-width:0.55;stroke-dasharray:none"
             d="m 88.443669,116.00001 0,0 c 0.03021,0.052 0.143621,0.17303 0.382706,0.13239 0.08404,-0.0143 0.191409,-0.0444 0.321201,-0.0966 0.314693,-0.12645 0.739799,-0.37609 1.083256,-0.71942 0.03392,-0.0339 0.06286,-0.0682 0.08722,-0.10033 0.0069,-0.009 0.01357,-0.0182 0.0201,-0.0273 0.02963,-0.0415 0.05669,-0.0851 0.08157,-0.12945 0.04834,-0.0862 0.092,-0.18189 0.13107,-0.2807 0.07952,-0.20111 0.144391,-0.42638 0.186252,-0.62448 0.04195,-0.19852 0.06019,-0.36508 0.05603,-0.48871 -0.0094,-0.28041 -0.184117,-0.38664 -0.251248,-0.40879 -0.06915,-0.0228 -0.266964,-0.0411 -0.447771,0.15987 -0.08113,0.0902 -0.168552,0.21916 -0.268095,0.38201 -0.09853,0.1612 -0.203008,0.34566 -0.290548,0.49162 -0.04467,0.0745 -0.08024,0.13133 -0.110695,0.17719 -0.01601,0.0241 -0.02525,0.0372 -0.03381,0.0495 -0.0016,0.002 -0.0029,0.004 -0.004,0.006 -0.004,0.006 -0.0042,0.007 0.002,0.003 -0.236522,0.27338 -0.534938,0.59811 -0.726151,0.83141 -0.0809,0.0987 -0.140179,0.17903 -0.181982,0.24782 -0.116483,0.19166 -0.06894,0.34049 -0.03711,0.39532 z"
             id="path2425"
             inkscape:path-effect="#path-effect2429"
             inkscape:original-d="m 88.443669,116.00001 c 0,0 0.775259,-0.45007 1.366208,-1.07908 0.281726,-0.29989 0.731945,-1.6643 0.731945,-1.6643"
             sodipodi:nodetypes="csc" />
          <path
             style="fill:#ffffff;fill-rule:nonzero;stroke:none;stroke-width:0.55;stroke-dasharray:none"
             d="m 89.598291,117.94042 h 0 c 0.02184,0.0557 0.109368,0.19513 0.320992,0.20503 0.0737,0.003 0.169136,-0.003 0.286724,-0.0253 0.283095,-0.0537 0.677351,-0.19803 1.012197,-0.43984 0.03606,-0.0262 0.06713,-0.0532 0.09328,-0.0784 0.0074,-0.007 0.0146,-0.0143 0.02163,-0.0215 0.03189,-0.0327 0.06124,-0.0671 0.08835,-0.10222 0.05257,-0.068 0.101023,-0.14388 0.145087,-0.22223 0.08963,-0.15935 0.167168,-0.33971 0.221114,-0.49961 0.05443,-0.16135 0.08402,-0.2983 0.08966,-0.40254 0.01299,-0.24023 -0.150432,-0.36298 -0.212541,-0.39431 h 0 c -0.06374,-0.0322 -0.254629,-0.0898 -0.441781,0.0444 -0.08265,0.0592 -0.174783,0.14967 -0.280736,0.26644 -0.104226,0.11487 -0.215357,0.24803 -0.30489,0.35066 -0.04618,0.0529 -0.08054,0.0909 -0.109261,0.12119 -0.01354,0.0143 -0.02378,0.0245 -0.02851,0.0296 -0.0041,0.005 -0.0015,0.003 0.008,-0.002 -0.187907,0.16274 -0.52935,0.46024 -0.676597,0.6066 -0.07619,0.0757 -0.132518,0.1392 -0.172976,0.19513 -0.113854,0.15738 -0.08253,0.31108 -0.05975,0.36914 z"
             id="path2431"
             inkscape:path-effect="#path-effect2435"
             inkscape:original-d="m 89.598291,117.94042 c 0,0 0.699044,-0.27425 1.26463,-0.71551 0.269637,-0.21039 0.801865,-1.26546 0.801865,-1.26546"
             sodipodi:nodetypes="csc" />
          <path
             style="fill:#ffffff;fill-rule:nonzero;stroke:none;stroke-width:0.55;stroke-dasharray:none"
             d="m 85.276536,134.62742 c -0.01791,0.002 -0.148146,0.26281 0.0872,1.49529 0.0835,0.43727 0.216103,1.03966 0.442969,1.74914 0.287109,0.89788 0.731429,1.98632 1.423961,3.11772 0.680576,1.11187 1.5613,2.19949 2.674689,3.15855 0.02303,0.0198 0.04619,0.0396 0.06949,0.0594 2.754568,2.33951 5.6243,3.53553 7.674847,4.13145 0.717047,0.20838 1.322572,0.34088 1.781294,0.4296 1.444915,0.27946 1.745255,0.14034 1.747615,0.11978 v 0 c 0.004,-0.039 -0.43949,-0.17903 -1.628417,-0.57567 -0.430404,-0.14358 -1.002269,-0.35271 -1.666817,-0.63349 -1.938875,-0.81918 -4.497227,-2.17047 -7.119417,-4.40023 -0.0214,-0.0182 -0.0427,-0.0364 -0.06388,-0.0546 -1.025049,-0.88069 -1.878783,-1.82983 -2.596402,-2.81642 -0.728473,-1.00151 -1.265148,-1.97171 -1.65372,-2.78939 -0.305181,-0.6422 -0.524516,-1.20242 -0.666665,-1.60824 -0.352044,-1.00503 -0.470759,-1.38682 -0.506741,-1.38291 z"
             id="path866"
             inkscape:path-effect="#path-effect870"
             inkscape:original-d="m 85.276536,134.62742 c 0,0 0.573812,5.27549 5.09286,9.11585 5.313415,4.51543 10.809204,5.14511 10.809204,5.14511"
             sodipodi:nodetypes="csc" />
          <path
             style="fill:#ffffff;fill-rule:nonzero;stroke:none;stroke-width:0.55;stroke-dasharray:none"
             d="m 88.316851,134.08428 c -0.0349,-0.005 -0.16165,0.0308 -0.227028,0.22782 -0.01092,0.0329 -0.01981,0.0691 -0.02589,0.1078 -0.01941,0.12385 -0.02138,0.30567 0.0235,0.52659 0.04934,0.24286 0.156415,0.53582 0.36272,0.83066 0.205006,0.29298 0.491982,0.56495 0.874909,0.79106 0.02255,0.0133 0.04504,0.0263 0.06746,0.0389 0.41463,0.23306 0.84463,0.37028 1.275792,0.42319 0.434958,0.0534 0.828593,0.0157 1.145681,-0.055 0.371547,-0.0828 0.63266,-0.20826 0.767418,-0.30057 0.01568,-0.0107 0.03006,-0.0213 0.0432,-0.0316 0.199642,-0.15641 0.152676,-0.30519 0.132134,-0.34045 l 0,0 c -0.02477,-0.0425 -0.113161,-0.14012 -0.327922,-0.11835 -0.01442,0.001 -0.02969,0.003 -0.04593,0.006 -0.145638,0.0209 -0.374397,0.0819 -0.689243,0.12395 -0.268392,0.0358 -0.586276,0.0531 -0.932122,0.004 -0.340739,-0.0481 -0.680978,-0.15652 -1.0147,-0.34304 -0.01813,-0.0101 -0.03635,-0.0206 -0.05465,-0.0313 -0.301641,-0.17643 -0.517843,-0.37701 -0.67636,-0.5808 -0.160285,-0.20606 -0.258125,-0.41096 -0.325647,-0.58541 -0.06179,-0.15964 -0.09877,-0.29244 -0.132945,-0.38954 -0.01046,-0.0297 -0.02188,-0.0579 -0.03387,-0.0841 -0.07838,-0.17074 -0.161051,-0.21289 -0.206513,-0.2198 z"
             id="path968"
             inkscape:path-effect="#path-effect972"
             inkscape:original-d="m 88.316851,134.08428 c 0,0 -0.205362,1.35022 1.191779,2.17177 1.656375,0.97399 3.248127,0.0466 3.248127,0.0466"
             sodipodi:nodetypes="csc" />
          <path
             style="fill:#ffffff;fill-rule:nonzero;stroke:none;stroke-width:0.55;stroke-dasharray:none"
             d="m 92.698803,136.18571 v 0 c -0.02747,0.003 -0.123477,0.0456 -0.123226,0.26671 4e-6,0.004 4.3e-5,0.008 1.18e-4,0.0118 0.0023,0.12271 0.03076,0.33827 0.140401,0.60549 0.09516,0.23193 0.252513,0.50319 0.503341,0.76102 0.256513,0.26368 0.586954,0.4885 0.991926,0.6461 0.02415,0.009 0.04811,0.0184 0.07188,0.0271 0.448814,0.16426 0.878997,0.2239 1.273935,0.20415 0.411266,-0.0206 0.750829,-0.12526 1.007329,-0.24476 0.280992,-0.13091 0.465495,-0.28017 0.564955,-0.37748 0.0081,-0.008 0.01593,-0.0159 0.02341,-0.0238 0.168559,-0.1778 0.134032,-0.27109 0.117215,-0.28908 -0.02522,-0.027 -0.08966,-0.0471 -0.293903,0.0211 -0.0091,0.003 -0.01833,0.006 -0.02775,0.01 -0.10663,0.0374 -0.315562,0.11332 -0.556999,0.16728 -0.229855,0.0514 -0.511135,0.0892 -0.837396,0.0722 -0.312742,-0.0163 -0.650979,-0.0821 -1.020528,-0.21904 -0.01966,-0.007 -0.03954,-0.0148 -0.05964,-0.0226 -0.321195,-0.12466 -0.580857,-0.28121 -0.796401,-0.45979 -0.211665,-0.17536 -0.367195,-0.36092 -0.485156,-0.52688 -0.123383,-0.1736 -0.231547,-0.3681 -0.276176,-0.44182 -0.0018,-0.003 -0.0035,-0.006 -0.0053,-0.009 -0.09992,-0.16143 -0.174402,-0.18224 -0.21204,-0.17857 z"
             id="path974"
             inkscape:path-effect="#path-effect978"
             inkscape:original-d="m 92.698803,136.18571 c 0,0 0.133136,1.36619 1.643816,1.95339 1.790982,0.69614 2.927463,-0.36611 2.927463,-0.36611"
             sodipodi:nodetypes="csc" />
          <path
             style="fill:#ffffff;fill-rule:nonzero;stroke:none;stroke-width:0.55;stroke-dasharray:none"
             d="m 86.349087,132.64734 c -0.02131,0.005 -0.06572,0.10022 0.01429,0.37974 0.0044,0.0153 0.009,0.031 0.01379,0.047 0.03612,0.11997 0.0876,0.26493 0.176543,0.41226 0.08013,0.13273 0.195481,0.27517 0.362479,0.39735 0.0064,0.005 0.01291,0.009 0.01951,0.014 0.343027,0.24185 0.736904,0.37114 1.042855,0.4131 0.156642,0.0215 0.269918,0.0175 0.338856,0.004 0.136334,-0.027 0.1604,-0.12099 0.16204,-0.15053 0.0018,-0.0322 -0.0085,-0.12023 -0.114209,-0.18133 -0.05848,-0.0338 -0.1423,-0.0664 -0.274665,-0.11813 -0.276831,-0.1081 -0.542716,-0.21954 -0.852995,-0.41605 -0.005,-0.003 -0.01,-0.006 -0.01487,-0.009 -0.124133,-0.0788 -0.239447,-0.16128 -0.333649,-0.23597 -0.107755,-0.0854 -0.201496,-0.1713 -0.274969,-0.25571 -0.0096,-0.0111 -0.01891,-0.0221 -0.02779,-0.0331 -0.129496,-0.1599 -0.216947,-0.27194 -0.237222,-0.26726 z"
             id="path980"
             inkscape:path-effect="#path-effect984"
             inkscape:original-d="m 86.349087,132.64734 c 0,0 0.144934,0.62751 0.737557,1.0259 0.670719,0.45089 1.39281,0.49098 1.39281,0.49098"
             sodipodi:nodetypes="csc" />
          <path
             style="fill:#ffffff;fill-rule:nonzero;stroke:none;stroke-width:0.55;stroke-dasharray:none"
             d="m 97.112666,137.73908 c -0.03475,0.0165 -0.120047,0.10104 -0.0761,0.29197 0.01317,0.0572 0.03639,0.12683 0.0699,0.20492 0.04607,0.10735 0.111615,0.23038 0.190435,0.34273 0.0388,0.0553 0.08092,0.10816 0.125848,0.15553 0.0432,0.0455 0.0896,0.0866 0.139123,0.12038 0.0044,0.003 0.0088,0.006 0.01321,0.009 0.104802,0.0665 0.220808,0.10501 0.329618,0.1266 0.113154,0.0225 0.218682,0.0268 0.304529,0.0272 0.0336,1.8e-4 0.06438,-2.4e-4 0.09195,-3.9e-4 0.166671,-9.1e-4 0.212689,-0.0278 0.216579,-0.0495 h 0 c 0.0029,-0.0163 -0.05386,-0.0701 -0.161255,-0.14197 -0.02132,-0.0143 -0.04445,-0.0311 -0.06879,-0.0497 -0.06265,-0.048 -0.133437,-0.10813 -0.203733,-0.1711 -0.06745,-0.0604 -0.13276,-0.12257 -0.191336,-0.17552 -0.02169,-0.0222 -0.03918,-0.0394 -0.0684,-0.0712 -0.02852,-0.031 -0.05896,-0.066 -0.09344,-0.10741 -0.06841,-0.0822 -0.142841,-0.17885 -0.209324,-0.26093 -0.04873,-0.0602 -0.09175,-0.11055 -0.131058,-0.14988 -0.129252,-0.12933 -0.240081,-0.11842 -0.277767,-0.10051 z"
             id="path986"
             inkscape:path-effect="#path-effect990"
             inkscape:original-d="m 97.112666,137.73908 c 0,0 0.329773,0.69402 0.621208,0.90709 0.327095,0.23914 0.783894,0.32111 0.783894,0.32111"
             sodipodi:nodetypes="csc" />
          <path
             style="fill:#ffffff;stroke:none;stroke-width:0.05;stroke-dasharray:none"
             d="m 118.41606,141.89349 c 0,0 -6.20823,-12.46162 -20.919032,-16.4766 -8.455393,-2.30771 -10.28919,2.2803 -10.28919,2.2803 0,0 1.348719,0.3198 2.572299,-0.11123 1.223579,-0.43104 1.738039,-0.9594 1.738039,-0.9594 0,0 0.597885,1.41824 2.433254,1.65461 1.835369,0.23638 3.197992,-0.75083 3.197992,-0.75083 0,0 0.549685,1.4586 2.461063,1.66852 2.405445,0.26418 3.197995,-0.3198 3.197995,-0.20857 0,0.11124 -1.19577,0.98721 -3.156282,0.6396 -1.780905,-0.31577 -1.946604,-0.62569 -1.946604,-0.62569 0,0 0.05153,2.32657 2.169073,2.906 2.794773,0.76474 4.060063,-1.16796 4.185193,-1.07063 0.12514,0.0973 -0.95701,1.28208 -1.83536,1.50166 -1.2792,0.3198 -2.544494,0 -2.544494,0 0,0 0.697324,1.91768 2.308114,2.36374 2.71134,0.75083 4.03226,-2.23859 4.43548,-1.94661 0.19924,0.14428 -0.77864,1.73804 -0.77864,1.73804 0,0 0.95939,0.72303 1.75194,0.61179 0.79254,-0.11123 2.11345,-1.33481 2.34983,-1.07063 0.23637,0.26418 -1.15406,1.05673 -0.65351,1.40433 0.50056,0.34761 1.15406,0.44494 1.75195,0.22247 0.59788,-0.22247 1.19577,-0.76473 1.36262,-0.55617 0.16686,0.20857 -0.87597,0.6535 -0.87597,0.86207 0,0.20856 0.50055,0.66741 1.07063,0.59788 0.57008,-0.0695 1.2792,-0.43103 1.33481,-0.23637 0.0556,0.19466 -0.82035,0.6535 -0.82035,0.83426 0,0.18075 0.37542,0.70912 0.80645,0.69521 0.43103,-0.0139 1.01502,-0.19466 1.05673,-0.0278 0.0417,0.16685 -0.81114,0.52112 -0.80645,0.73692 0.0139,0.6396 1.80756,0.34761 1.83537,0.50056 0.0278,0.15295 -1.18969,0.55297 -1.19577,0.82035 -0.0139,0.6118 2.04393,0.91769 2.03003,1.14016 -0.0139,0.22247 -1.52948,0.13904 -1.52948,0.37541 0,0.23638 0.84816,1.45997 1.64071,1.50167 0.23609,0.0124 0.44232,-0.0255 0.64448,-0.17944 0.55774,-0.42481 1.01708,-0.83558 1.01708,-0.83558 z"
             id="path1085"
             sodipodi:nodetypes="cscscscssscssscsscssssssssssssssssssc" />
          <path
             style="fill:#ffffff;stroke:none;stroke-width:0.0499999;stroke-dasharray:none"
             d="m 93.492586,128.6983 c 0,0 -0.0354,2.45386 1.376527,3.26751 2.461064,1.41824 4.14011,0.0556 4.14011,0.0556 0,0 -1.125813,-0.57274 -1.512195,-1.65461 -0.289114,-0.80952 -0.21095,-1.71788 -0.21095,-1.71788 l -0.331319,-0.45119 c 0,0 -0.45189,0.26418 -1.654611,0.4936 -0.907234,0.17305 -1.807562,0.007 -1.807562,0.007 z"
             id="path1261"
             sodipodi:nodetypes="cscsccscc" />
          <path
             style="fill:none;stroke:#000000;stroke-width:0.4;stroke-dasharray:none"
             d="m 118.92119,114.75129 c 0,0 0.39793,3.82061 1.06649,8.97249 0.66857,5.15188 1.1405,11.40493 1.1405,11.40493"
             id="path1461"
             sodipodi:nodetypes="csc" />
          <path
             style="fill:none;stroke:#000000;stroke-width:0.4;stroke-dasharray:none"
             d="m 124.09428,112.16945 c 0,0 0.59958,1.8459 -0.34591,11.1896 -0.9455,9.34369 -1.33482,12.56949 -1.33482,12.56949"
             id="path1463"
             sodipodi:nodetypes="csc" />
          <path
             style="fill:none;stroke:#000000;stroke-width:0.4;stroke-dasharray:none"
             d="m 126.74861,114.69259 c 0,0 -0.275,5.32942 -1.33172,12.00349 -1.05673,6.67407 -1.55729,9.84425 -1.55729,9.84425"
             id="path1465"
             sodipodi:nodetypes="csc" />
          <path
             style="fill:none;stroke:#000000;stroke-width:0.4;stroke-dasharray:none"
             d="m 128.62948,117.74508 c 0,0 -0.6542,5.61397 -1.48846,9.61841 -0.83426,4.00444 -2.05784,9.6774 -2.05784,9.6774"
             id="path1467"
             sodipodi:nodetypes="csc" />
          <path
             style="fill:none;stroke:#000000;stroke-width:0.4;stroke-dasharray:none"
             d="m 130.22271,121.43856 c 0,0 -0.96824,4.70135 -1.91373,8.37209 -0.94549,3.67074 -2.00222,7.73079 -2.00222,7.73079"
             id="path1469"
             sodipodi:nodetypes="csc" />
          <path
             style="fill:#ffffff;stroke:none;stroke-width:0.0499999;stroke-dasharray:none"
             d="m 113.69555,119.77174 c 0,0 -0.0417,0.91768 0.11124,1.37652 0.15294,0.45884 0.55617,0.98721 0.55617,0.98721 0,0 -0.83426,1.19577 -0.6257,2.39154 0.20857,1.19577 0.9455,2.55839 0.9455,2.71134 0,0.15295 -0.22247,0.76474 0.0834,1.55728 0.3059,0.79255 1.57119,2.34983 1.65462,2.5723 0.0834,0.22247 0,1.79366 0.48665,2.71134 0.48665,0.91769 1.27919,1.89099 1.43214,1.84927 0.15295,-0.0417 -0.50055,-1.23748 -0.82035,-2.32202 -0.3198,-1.08453 -0.19467,-1.57118 -0.6396,-2.48887 -0.44494,-0.91768 -1.19577,-2.39154 -1.55729,-4.5328 -0.36151,-2.14127 -0.22246,-4.36596 -0.22246,-4.36596 0,0 0.257,-0.0387 0.24717,-0.23534 -0.01,-0.19664 -0.37361,-0.6784 -0.59974,-1.15033 -0.22614,-0.47193 -0.17698,-1.01268 -0.17698,-1.01268 z"
             id="path1520" />
          <path
             style="fill:#ffffff;stroke:none;stroke-width:0.0499999;stroke-dasharray:none"
             d="m 121.1675,144.3903 -2.12367,-2.35965 c 0,0 0.76688,-0.82587 1.35679,-1.84838 0.58991,-1.02251 1.02251,-2.08435 1.02251,-2.08435 0,0 0.1018,2.13255 1.00285,2.73325 1.3568,0.90453 3.63778,-0.74722 3.63778,-0.74722 l -1.43545,2.163 c 0,0 -1.10117,1.55343 -1.27814,1.63209 -0.17697,0.0787 -1.41578,0.4326 -1.41578,0.4326 z"
             id="path1570"
             sodipodi:nodetypes="ccscsccscc" />
          <path
             id="path1572"
             style="fill:#ffffff;stroke:none;stroke-width:0.0499999;stroke-dasharray:none"
             d="m 118.71523,142.35255 c 0,0 -0.54111,0.44071 -1.36219,1.04387 0.2364,0.3028 0.81285,1.01879 1.98748,2.36264 0.31238,0.35738 0.63404,0.67525 0.94981,0.95602 0.01,-0.33644 0.0191,-0.81571 0.003,-1.16996 -0.0191,-0.41169 -0.26958,-1.30004 -0.58194,-1.88049 -0.16964,-0.31523 -0.99616,-1.31208 -0.99616,-1.31208 z m -2.08152,1.56063 c -0.34972,0.24599 -0.72589,0.50317 -1.12086,0.76016 0.30008,0.43585 0.97238,1.31655 2.28461,2.62878 0.13567,0.13567 0.2679,0.26343 0.39688,0.38551 0.004,-0.25287 0.006,-0.57239 -10e-4,-0.95137 -0.009,-0.47129 -0.0738,-0.94714 -0.11524,-1.21388 -0.60878,-0.63354 -1.16081,-1.27365 -1.44435,-1.6092 z m 3.89847,0.35347 c 0.0461,0.4353 0.0961,0.94978 0.11059,1.2609 0.0238,0.51168 -0.002,1.23856 -0.0114,1.47898 1.20414,0.98729 2.2412,1.42214 2.2412,1.42214 l -0.0889,0.18551 1.757,0.88522 c 0,0 -0.69521,-2.40589 -0.88987,-2.65617 -0.19243,-0.24741 -2.92056,-2.38544 -2.9838,-2.43499 l -0.0331,-0.0258 c 0,0 0.008,4.9e-4 0.009,5.2e-4 z m -5.79293,0.894 c -0.29031,0.17663 -0.58465,0.34842 -0.87902,0.51056 -0.0598,0.0329 -0.12372,0.0664 -0.19017,0.10025 0.28534,0.47752 1.00574,1.57491 2.1947,2.69855 0.24716,0.23358 0.48185,0.44901 0.70487,0.64854 0.002,-0.27988 0.005,-0.62271 0.0103,-0.90176 0.005,-0.30444 -0.0367,-0.80632 -0.0625,-1.08314 -0.71533,-0.71079 -1.40364,-1.51875 -1.77819,-1.973 z m 3.74809,0.7767 c 0.027,0.23969 0.0505,0.51702 0.0558,0.79116 0.0112,0.57191 7.3e-4,1.02056 -0.008,1.27434 1.5253,1.37273 2.4877,1.76062 2.4877,1.76062 l -0.0708,0.15968 2.57348,1.18907 -0.78806,-2.40347 -0.032,0.0672 c 0,0 -1.91901,-0.95937 -3.1843,-1.91874 -0.3223,-0.24439 -0.6797,-0.57008 -1.03405,-0.91984 z m -5.46065,0.13539 c -0.31705,0.13831 -0.66856,0.27983 -1.03869,0.42168 0.26969,0.47998 0.8936,1.51794 1.94303,2.85099 0.36348,0.46171 0.7826,0.91164 1.20716,1.32705 0.0117,-0.29463 0.0238,-0.64361 0.0238,-0.8816 0,-0.33262 -0.0281,-0.8507 -0.0434,-1.11776 -0.89119,-0.92733 -1.72493,-2.07595 -2.09186,-2.60036 z m -1.91978,0.74827 c -0.37332,0.13381 -0.75155,0.26438 -1.11983,0.38861 0.36269,0.63587 1.13548,1.91755 2.33165,3.51245 0.341,0.45467 0.69513,0.86349 1.04386,1.22783 0.016,-0.28652 0.0352,-0.63631 0.0475,-0.90124 0.0174,-0.37503 -0.0304,-0.94262 -0.0651,-1.29501 -0.84554,-0.98538 -1.86904,-2.41148 -2.23811,-2.93264 z m 5.79293,0.68006 c 0.0181,0.24392 0.0334,0.51416 0.03,0.72141 -0.008,0.44513 -0.0109,0.95646 -0.0124,1.20251 1.82837,1.58639 2.74299,1.97921 2.74299,1.97921 l -0.13178,0.16743 2.12029,0.83354 -0.77618,-2.30374 -0.0165,0.0372 c 0,0 -1.93269,-1.07055 -3.2675,-2.05776 -0.2202,-0.16285 -0.45337,-0.36223 -0.68885,-0.57981 z m -7.92148,0.0413 c -1.1363,0.36716 -1.99884,0.62166 -1.99884,0.62166 l 2.5585,3.17035 1.61127,1.63143 c 0.0359,-0.30024 0.0683,-0.65491 0.077,-1.01079 0.0131,-0.53327 -0.002,-1.0634 -0.0145,-1.37976 -0.84292,-1.0559 -1.80575,-2.4189 -2.23346,-3.03289 z m 6.50968,1.4981 c 0.0123,0.26139 0.0238,0.54824 0.0238,0.75034 0,0.38677 -0.0273,0.9979 -0.0367,1.20354 1.1607,1.08309 2.26085,1.86087 2.26085,1.86087 l -0.0708,0.14573 2.62103,1.36477 -0.92604,-2.5802 -0.061,0.0775 c 0,0 -2.07607,-1.39938 -3.35122,-2.41949 -0.15198,-0.12158 -0.30596,-0.25746 -0.45992,-0.40307 z m -1.75183,1.1498 c 0.0212,0.29448 0.0357,0.61721 0.0238,0.87436 -0.0194,0.41877 -0.0581,1.08943 -0.0656,1.2206 1.26905,1.24016 2.38022,1.86293 2.38022,1.86293 l -0.046,0.17467 2.08876,1.14102 -0.49971,-2.36575 -0.0879,0.18035 c 0,0 -2.24147,-1.593 -3.5786,-2.87114 -0.068,-0.065 -0.14026,-0.13827 -0.21497,-0.21704 z m -2.16059,0.82992 c 0.006,0.28397 0.009,0.6161 5.2e-4,0.94464 -0.0119,0.48767 -0.066,0.9684 -0.11473,1.31724 l 0.27337,0.27698 v 0.002 c 1.64842,1.30345 4.78317,3.36362 4.78317,3.36362 l -0.55759,-2.34146 -0.004,0.0129 c 0,0 -2.51887,-1.64328 -3.85403,-2.98896 -0.15666,-0.1579 -0.33596,-0.35963 -0.5271,-0.58653 z"
             sodipodi:nodetypes="ccscsscccsccccccccccscccccccsccccccscccccscccscsccccsccccccccccccscccccccccsccccccsccccccccccccsccccccscccccccscs" />
          <path
             style="color:#000000;fill:#000000;-inkscape-stroke:none"
             d="m 73.830078,98.619141 c -1.130115,0.08864 -1.818532,0.723351 -2.201172,1.322265 -0.324956,0.508624 -0.422844,0.966594 -0.451869,1.104284 -0.151809,-0.0446 -1.113386,-0.34568 -2.512742,-0.27906 -1.521239,0.0724 -2.558757,0.79336 -2.558757,0.79336 l -0.493908,0.29595 0.686709,-0.037 c 0,0 1.275981,-0.0806 2.620559,0.57822 0.627548,0.3075 0.892139,0.93737 0.946475,1.41201 0.04242,0.37056 -0.0062,0.77979 -0.03211,0.90411 -0.200552,-0.0752 -0.914599,-0.41955 -1.850772,-0.47014 -1.102381,-0.0596 -2.059453,0.48132 -2.059453,0.48132 l -0.568593,0.27579 c 0,0 0.423059,-0.006 0.614065,0.0179 0.567158,0.07 0.720062,0.0441 1.615474,0.42508 0.444838,0.18929 0.732003,0.38642 0.90625,0.53125 0.04622,0.0384 0.03029,0.0296 0.06055,0.0586 -0.114181,0.0547 -0.170477,0.0736 -0.34375,0.17969 -0.15005,0.0918 -0.30307,0.19692 -0.427734,0.31836 -0.124664,0.12144 -0.238281,0.26369 -0.238281,0.45898 0,0.11273 0.05463,0.2109 0.11914,0.2793 0.06451,0.0684 0.140352,0.11819 0.222656,0.16211 0.164609,0.0878 0.360625,0.1527 0.550782,0.21484 0.190156,0.0622 0.374714,0.12078 0.496093,0.17383 0.02312,0.0101 0.02733,0.016 0.04492,0.0254 -0.01796,0.0127 -0.02639,0.0207 -0.05078,0.0352 -0.107437,0.0636 -0.267511,0.13661 -0.431641,0.2168 -0.164129,0.0802 -0.334544,0.16642 -0.476562,0.27539 -0.142018,0.10896 -0.277344,0.25757 -0.277344,0.46484 0,0.1203 0.06629,0.22957 0.142578,0.29688 0.07628,0.0673 0.163527,0.10899 0.257813,0.14453 0.188571,0.0711 0.410073,0.1138 0.628906,0.15234 0.218833,0.0386 0.434219,0.0724 0.578125,0.11133 0.01272,0.003 0.01388,0.006 0.02539,0.01 -0.09187,0.0441 -0.226088,0.0922 -0.371094,0.14454 -0.152665,0.0551 -0.312088,0.11496 -0.451172,0.20312 -0.139083,0.0882 -0.279297,0.23107 -0.279297,0.43164 0,0.11468 0.05577,0.21737 0.123047,0.28711 0.06728,0.0697 0.146377,0.11882 0.232422,0.16211 0.172091,0.0866 0.377209,0.14767 0.578125,0.20508 0.200916,0.0574 0.398153,0.11099 0.533203,0.16015 0.03106,0.0113 0.04145,0.0189 0.06445,0.0293 -0.03833,0.024 -0.07857,0.0485 -0.142578,0.084 -0.085,0.0471 -0.184923,0.10411 -0.271484,0.19726 -0.08656,0.0931 -0.154297,0.23248 -0.154297,0.39063 0,0.11165 0.06016,0.21965 0.134765,0.2832 0.07461,0.0636 0.157718,0.0981 0.244141,0.12305 0.172847,0.0498 0.368881,0.0622 0.5625,0.0723 0.179635,0.009 0.348036,0.0154 0.476563,0.0273 -0.02679,0.0196 -0.04029,0.0312 -0.07227,0.0547 -0.157422,0.11545 -0.382813,0.3089 -0.382813,0.61914 10e-7,0.0884 0.0442,0.16554 0.0918,0.21485 0.0476,0.0493 0.101579,0.0815 0.158203,0.10937 0.11325,0.0558 0.24654,0.094 0.404297,0.12891 0.315516,0.0698 0.720358,0.11799 1.123047,0.15234 0.705452,0.0602 1.242889,0.0687 1.40625,0.0723 0.0021,0.0849 0.05628,2.11932 -0.05273,9.20508 -0.111369,7.23897 0.269719,12.76717 2.019531,16.60546 1.780867,3.90642 7.008535,4.85739 8.998047,5.77149 1.987246,0.91306 4.919146,3.71336 9.513672,5.73047 2.355398,1.03407 6.057808,0.96621 9.191407,0.66211 3.07226,-0.29815 5.48449,-0.82274 5.58203,-0.84375 0.0697,0.0767 1.10767,1.22271 2.37305,2.37304 0.67029,0.60936 2.0125,1.57106 3.19726,2.39063 1.18476,0.81957 2.20703,1.49219 2.20703,1.49219 l 0.42188,0.27539 -0.65235,-2.73633 2.22461,1.2168 -0.52929,-2.51368 2.77343,1.44532 -1.0664,-2.97071 2.39453,0.93946 -0.84961,-2.52344 2.73438,1.26172 -0.82813,-2.52344 1.82813,0.92188 -0.12696,-0.44141 c 0,0 -0.17408,-0.60298 -0.37304,-1.23828 -0.0995,-0.31766 -0.20478,-0.64325 -0.29883,-0.90821 -0.047,-0.13247 -0.0908,-0.25026 -0.13086,-0.3457 -0.04,-0.0954 -0.0668,-0.16068 -0.1211,-0.23047 -0.0524,-0.0674 -0.11259,-0.11844 -0.21093,-0.20508 -0.0984,-0.0866 -0.22619,-0.19446 -0.37305,-0.3164 -0.29372,-0.24389 -0.6638,-0.54354 -1.0293,-0.83594 -0.54752,-0.43802 -0.84278,-0.67014 -1.07617,-0.85351 0.32235,0.0142 0.82915,0.0901 1.91406,-0.27149 0.42404,-0.14135 0.85002,-0.57435 1.34375,-1.21484 0.49374,-0.64049 1.03572,-1.49567 1.58594,-2.49219 1.10044,-1.99305 2.23367,-4.55215 3.05273,-7.06445 0.69321,-2.12623 1.84348,-5.11481 2.6211,-7.6543 0.38881,-1.26975 0.68676,-2.42633 0.78515,-3.32227 0.0492,-0.44796 0.0511,-0.82976 -0.0215,-1.14257 -0.0726,-0.31281 -0.24041,-0.57695 -0.51758,-0.67969 -0.58812,-0.21802 -1.01341,-0.0652 -1.31836,0.1582 0.10123,-0.37725 0.17564,-0.53012 0.24805,-1.0957 0.0659,-0.51466 0.0866,-1.04534 -0.0117,-1.5 -0.0983,-0.45466 -0.34451,-0.8583 -0.79687,-0.98633 -0.49448,-0.13995 -0.84794,-0.0469 -1.10157,0.082 0.0699,-0.30119 0.16308,-0.60066 0.20313,-1.23437 0.0282,-0.44666 0.0157,-0.90494 -0.10156,-1.29492 -0.1173,-0.38999 -0.37099,-0.73285 -0.78907,-0.81641 -0.56689,-0.11331 -0.99739,0.12334 -1.26562,0.37695 0.0349,-0.35563 0.0874,-0.62254 0.0547,-1.26953 -0.0249,-0.49121 -0.0933,-0.99289 -0.25782,-1.40625 -0.16451,-0.41335 -0.45454,-0.76187 -0.89453,-0.82422 -0.82919,-0.1175 -1.35343,0.2286 -1.62304,0.60352 -0.0887,0.12329 -0.0567,0.14192 -0.10352,0.25586 -0.0523,-0.25498 -0.0244,-0.39957 -0.26562,-0.76367 -0.40951,-0.61806 -1.22976,-1.16482 -2.625,-0.88868 -0.7167,0.14185 -1.24542,0.53352 -1.61329,1.02539 -0.36786,0.49188 -0.58169,1.08103 -0.71093,1.64649 -0.16725,0.73171 -0.11628,1.01148 -0.11133,1.41406 -0.006,-0.008 -0.002,-0.009 -0.008,-0.0176 -0.25189,-0.35264 -0.71175,-0.7027 -1.36133,-0.59179 -0.38822,0.0663 -0.63277,0.40689 -0.79688,0.80664 -0.1641,0.39974 -0.26214,0.88851 -0.32422,1.36914 -0.11286,0.87385 -0.0941,1.57197 -0.0918,1.71875 -0.23638,0.0197 -0.86959,0.10042 -1.36914,0.70703 -0.25448,0.30902 -0.31832,0.73274 -0.33985,1.08008 -0.0133,0.21507 2.4e-4,0.27687 0.008,0.39062 -0.1685,-0.0251 -3.27188,-0.49522 -8.75586,-0.73047 -5.1026,-0.21887 -8.725175,-0.0665 -8.822269,-0.0625 -0.09118,-0.1558 -2.590888,-4.41657 -6.410156,-8.71875 -3.785664,-4.26433 -9.173013,-6.55315 -9.445313,-6.66797 0.02863,-0.0788 0.04776,-0.11807 0.08984,-0.26757 0.06906,-0.24535 0.1381,-0.53786 0.101562,-0.80274 -0.02664,-0.19312 -0.142517,-0.3301 -0.291015,-0.49219 -0.148498,-0.16208 -0.340113,-0.33426 -0.548828,-0.50195 -0.41743,-0.33537 -0.899575,-0.65486 -1.242188,-0.82617 -0.374242,-0.18712 -0.79323,-0.19038 -1.142578,-0.17969 -0.174674,0.005 -0.332153,0.016 -0.455078,0.0156 -0.122925,-4e-4 -0.209782,-0.0215 -0.216797,-0.0254 0.01194,0.007 -0.03652,-0.0302 -0.0918,-0.0879 -0.05527,-0.0577 -0.12699,-0.13665 -0.21289,-0.22852 -0.1718,-0.183741 -0.401447,-0.41796 -0.69336,-0.642579 -0.583826,-0.449237 -1.429108,-0.863212 -2.548828,-0.77539 z m 0.03125,0.398437 c 1.007638,-0.07903 1.741444,0.284006 2.273438,0.693359 0.265996,0.204677 0.478717,0.420323 0.644531,0.597653 0.08291,0.0887 0.154265,0.16914 0.216797,0.23438 0.06253,0.0652 0.106042,0.11535 0.1875,0.16016 0.132028,0.0726 0.26347,0.0737 0.408203,0.0742 0.144733,4.7e-4 0.302768,-0.009 0.46875,-0.0137 0.331963,-0.0102 0.685816,0.006 0.951172,0.13867 0.296985,0.1485 0.77395,0.46117 1.169922,0.7793 0.197986,0.15907 0.378878,0.32039 0.505859,0.45899 0.126981,0.13859 0.188282,0.26885 0.189453,0.27734 0.01908,0.13834 -0.02681,0.4167 -0.08984,0.64062 -0.06303,0.22392 -0.132812,0.39844 -0.132812,0.39844 l -0.07227,0.1836 0.181641,0.0762 c 0,0 5.665138,2.36828 9.464844,6.64843 3.858811,4.34673 6.427734,8.75586 6.427734,8.75586 l 0.06055,0.10547 0.121094,-0.006 c 0,0 3.750436,-0.15857 8.904296,0.0625 5.6124,0.24075 8.94531,0.74414 8.94531,0.74414 l 0.25781,0.0391 -0.0293,-0.25782 c 0,0 -0.027,-0.25116 -0.008,-0.56054 0.0192,-0.30939 0.0959,-0.66678 0.24805,-0.85157 0.46768,-0.56791 1.25586,-0.59375 1.25586,-0.59375 l 0.19922,-0.004 -0.004,-0.20117 c 0,0 -0.0196,-0.90536 0.0996,-1.82813 0.0596,-0.46138 0.154,-0.92626 0.29492,-1.26953 0.14092,-0.34327 0.31425,-0.53536 0.4961,-0.56641 0.49057,-0.0837 0.76679,0.15164 0.96679,0.43164 0.20001,0.28001 0.2793,0.5879 0.2793,0.5879 l 0.39258,-0.0645 c 0,0 -0.0799,-1.00348 0.16211,-2.0625 0.12103,-0.52951 0.32218,-1.06768 0.64258,-1.49609 0.3204,-0.42842 0.75297,-0.75071 1.37109,-0.87305 1.27438,-0.25222 1.87157,0.20165 2.21289,0.7168 0.34132,0.51514 0.38477,1.10351 0.38477,1.10351 l 0.39843,0.0117 c 0,0 0.0405,-0.3106 0.24414,-0.59375 0.20363,-0.28315 0.53712,-0.5416 1.24415,-0.4414 0.26548,0.0376 0.44171,0.23148 0.57812,0.57422 0.13641,0.34273 0.20489,0.81236 0.22852,1.27929 0.0472,0.93387 -0.0781,1.85352 -0.0781,1.85352 l 0.38281,0.10742 c 0,0 0.0959,-0.21985 0.30078,-0.41797 0.20493,-0.19812 0.48853,-0.36513 0.92774,-0.27734 0.2537,0.0507 0.39087,0.22819 0.48437,0.53906 0.0935,0.31087 0.11058,0.73362 0.084,1.1543 -0.0532,0.84134 -0.27149,1.66211 -0.27149,1.66211 l 0.36719,0.15234 c 0,0 0.0584,-0.10543 0.22461,-0.20117 0.16619,-0.0957 0.42862,-0.17546 0.86914,-0.0508 0.28457,0.0805 0.43408,0.30855 0.51563,0.68554 0.0815,0.37699 0.0686,0.87531 0.006,1.36524 -0.12545,0.97986 -0.4336,1.91992 -0.4336,1.91992 h 0.002 c -4e-5,1.6e-4 -0.006,0.01 -0.006,0.01 l 0.38281,0.11523 0.002,-0.01 h 0.002 c 0,0 0.0805,-0.27697 0.28907,-0.49609 0.20858,-0.21912 0.50477,-0.39267 1.08984,-0.17578 0.12606,0.0467 0.21033,0.15621 0.26563,0.39453 0.0553,0.23832 0.0601,0.58691 0.0137,1.00977 -0.0929,0.8457 -0.38209,1.98913 -0.76758,3.24804 -0.77098,2.51782 -1.92174,5.50334 -2.62109,7.64844 -0.81013,2.48487 -1.93684,5.02615 -3.02344,6.99414 -0.54331,0.984 -1.07592,1.82541 -1.55078,2.44141 -0.47486,0.616 -0.91094,0.99895 -1.1543,1.08007 -1.29687,0.4323 -2.25,0.32422 -2.25,0.32422 l -0.69922,-0.0781 0.55274,0.43359 c 0,0 0.70659,0.55356 1.43554,1.13672 0.36448,0.29158 0.73318,0.59101 1.02344,0.83203 0.14513,0.12051 0.27196,0.22642 0.36523,0.3086 0.0933,0.0822 0.16393,0.15523 0.16016,0.15039 -0.006,-0.007 0.0312,0.0566 0.0664,0.14062 0.0352,0.084 0.0775,0.19599 0.12304,0.32422 0.0911,0.25646 0.19628,0.57759 0.29493,0.89258 0.12625,0.40311 0.17078,0.55796 0.23828,0.78711 l -1.86524,-0.93946 0.8418,2.56641 -2.74414,-1.26758 0.87305,2.58985 -2.41602,-0.94922 1.01758,2.83984 -2.61914,-1.36328 0.52734,2.49219 -2.25195,-1.23047 0.625,2.62109 c -0.2914,-0.19273 -0.82269,-0.54017 -1.77539,-1.19922 -1.18034,-0.81651 -2.52875,-1.78696 -3.15625,-2.35742 -1.28859,-1.17143 -2.42383,-2.42383 -2.42383,-2.42383 l -0.0781,-0.0859 -0.11328,0.0234 c 0,0 -2.54059,0.55192 -5.64843,0.85352 -3.107851,0.3016 -6.786978,0.33728 -8.992189,-0.63086 -4.526693,-1.98733 -7.379386,-4.74864 -9.507812,-5.72656 -2.12616,-0.97688 -7.13143,-1.9167 -8.798829,-5.57422 -1.698454,-3.72564 -2.095475,-9.21015 -1.984375,-16.43164 0.11126,-7.23187 0.05469,-9.4082 0.05469,-9.4082 l -0.0039,-0.19141 -0.191407,-0.004 c 0,0 -0.792611,-0.0129 -1.580078,-0.0801 -0.393733,-0.0336 -0.786557,-0.0822 -1.068359,-0.14454 -0.140901,-0.0311 -0.255438,-0.0676 -0.316406,-0.0977 0.01644,-0.0986 0.072,-0.17272 0.193359,-0.26172 0.06877,-0.0504 0.144458,-0.0991 0.216797,-0.16797 0.07234,-0.0689 0.156789,-0.19208 0.132812,-0.33594 -0.01114,-0.0668 -0.05243,-0.12457 -0.0918,-0.1582 -0.03937,-0.0336 -0.07661,-0.051 -0.113282,-0.0644 -0.07334,-0.027 -0.146007,-0.038 -0.226562,-0.0469 -0.161111,-0.0177 -0.352204,-0.0197 -0.53711,-0.0293 -0.184905,-0.01 -0.364067,-0.0273 -0.472656,-0.0586 -0.04752,-0.0137 -0.07188,-0.029 -0.08398,-0.0371 0.0031,-0.0433 0.01102,-0.0712 0.04102,-0.10351 0.03449,-0.0371 0.0971,-0.0777 0.171875,-0.11914 0.07477,-0.0414 0.160582,-0.0811 0.244141,-0.14649 0.08356,-0.0654 0.176501,-0.19109 0.166016,-0.33789 -0.0092,-0.1285 -0.09543,-0.20237 -0.164063,-0.24805 -0.06864,-0.0457 -0.141892,-0.0773 -0.224609,-0.10742 -0.165434,-0.0602 -0.365731,-0.11035 -0.560547,-0.16601 -0.194816,-0.0557 -0.384333,-0.11757 -0.507813,-0.17969 -0.06174,-0.0311 -0.106173,-0.0625 -0.125,-0.082 -0.01883,-0.0195 -0.01172,-0.0163 -0.01172,-0.01 0,-0.0157 0.0099,-0.0393 0.0957,-0.0937 0.08582,-0.0544 0.225841,-0.11097 0.373047,-0.16406 0.147206,-0.0531 0.300011,-0.10472 0.433593,-0.17188 0.06679,-0.0336 0.130412,-0.0703 0.1875,-0.12695 0.05709,-0.0567 0.111329,-0.14518 0.111329,-0.24805 0,-0.13099 -0.09526,-0.22673 -0.171875,-0.27343 -0.07661,-0.0467 -0.155822,-0.0732 -0.246094,-0.0977 -0.180544,-0.0489 -0.399514,-0.0815 -0.613281,-0.11914 -0.213768,-0.0376 -0.422715,-0.0797 -0.558594,-0.13086 -0.06794,-0.0256 -0.116419,-0.0561 -0.134766,-0.0723 -0.01835,-0.0162 -0.0059,-0.003 -0.0059,0.004 0,-0.0189 0.02285,-0.0711 0.121094,-0.14648 0.09825,-0.0754 0.25034,-0.15726 0.408203,-0.23438 0.157862,-0.0771 0.32124,-0.15095 0.458984,-0.23242 0.06887,-0.0407 0.131456,-0.0818 0.1875,-0.13672 0.05604,-0.0549 0.113917,-0.13063 0.121094,-0.23828 0.0082,-0.12237 -0.06588,-0.21756 -0.13086,-0.27148 -0.06498,-0.0539 -0.136351,-0.0907 -0.214843,-0.125 -0.156985,-0.0686 -0.34534,-0.1248 -0.53125,-0.18555 -0.185911,-0.0608 -0.367657,-0.12613 -0.486328,-0.18945 -0.05934,-0.0317 -0.102875,-0.0627 -0.121094,-0.082 -0.01822,-0.0193 -0.0098,-0.0153 -0.0098,-0.006 0,-0.0112 0.02801,-0.085 0.117188,-0.17187 0.08918,-0.0869 0.222348,-0.18295 0.357422,-0.26563 0.270146,-0.16534 0.544922,-0.2832 0.544921,-0.2832 l 0.222657,-0.0957 -0.136719,-0.20117 c 0,0 -0.0965,-0.13686 -0.300781,-0.30664 -0.204278,-0.16979 -0.526505,-0.38587 -1.00586,-0.58985 -0.540269,-0.2299 -0.673414,-0.21157 -1.001953,-0.27734 0.345144,-0.13925 0.574787,-0.24522 1.17406,-0.21282 0.987072,0.0533 1.875397,0.43187 1.875397,0.43187 l 0.236792,0.0959 0.06902,-0.26547 c 0,0 0.155682,-0.51239 0.09184,-1.07014 -0.06385,-0.55776 -0.313918,-1.26923 -1.0768,-1.64305 -1.165475,-0.57108 -2.005849,-0.53035 -2.405459,-0.55703 0.393397,-0.20901 1.016157,-0.43732 1.966797,-0.48258 1.420483,-0.0676 2.590901,0.31272 2.590901,0.31272 l 0.216797,0.0664 0.06339,-0.28718 c 0,0 0.08692,-0.50392 0.423828,-1.03125 0.336907,-0.527332 0.899243,-1.060457 1.896484,-1.138672 z"
             id="path1807"
             sodipodi:nodetypes="cscscccssccccsssccsssccsccssssscccscscssscccscccccsscsscssssscsscccccccccccccsscscsscsssssssscssscscsccssscssssccssscsscscscssssscscssscccsscsccssssscccscccsccccccccsscsccssssccsssccccsscccssccccccccssscssssscccssscssscccccccccccsscccssssscccscccssscccscccssscccscssscssccsscsscscssccscsscccsscccccsscccccscc" />
        </g>
      </g>
      <g
         id="g3446"
         transform="translate(0.31461429,0.62923492)">
        <g
           id="path2389">
          <path
             style="color:#000000;fill:#ff0000;stroke-width:0.4;-inkscape-stroke:none"
             d="m 102.08545,167.10201 c 3.50357,-0.12081 6.81311,-0.52836 7.11901,0.47274 0.30589,1.00112 0.093,1.98874 0.14858,3.04546 0.0556,1.05673 0.18511,3.07244 -0.28761,3.46176 -0.47275,0.38932 -11.267802,0.33946 -11.452386,-0.11658 -0.123023,-0.30394 -0.07168,-1.51922 -0.09102,-3.19229 -0.0198,-1.7127 -0.559232,-3.24599 0.08625,-3.39301 1.587784,-0.36164 2.887546,-0.22326 4.477176,-0.27808 z"
             id="path2539" />
          <path
             style="color:#000000;fill:#000000;-inkscape-stroke:none"
             d="m 106.8457,166.7168 c -1.31816,-0.008 -3.02137,0.12533 -4.76757,0.18554 -1.57429,0.0543 -2.972224,-0.21234 -4.562836,0.27338 -0.379226,0.1158 -0.638029,0.0646 -1.016544,0.47636 -0.306984,0.33393 -0.693093,0.6087 -0.713332,1.23818 0.05793,0.62972 0.05229,1.07828 0.06196,1.91433 0.0096,0.83393 -0.06767,1.94285 -0.06263,2.49731 0.02004,1.90554 1.102354,1.84903 1.302452,2.52148 0.105133,0.0298 0.806675,-0.0857 0.968514,-0.0628 0.323678,0.0456 0.793212,-0.13877 1.318824,-0.10723 1.051222,0.0631 2.490742,-0.0938 3.883742,-0.0833 1.393,0.0104 2.34965,0.11914 3.43592,0.0763 0.54313,-0.0216 1.22782,-0.0502 1.57598,-0.0859 0.96887,-0.2753 1.43471,-0.58702 1.33719,-2.95294 0.0202,-0.69799 -0.027,-1.47115 -0.0547,-1.99805 -0.0538,-1.02344 0.16796,-2.03267 -0.15625,-3.09375 -0.10703,-0.35028 -0.45552,-0.54059 -0.89257,-0.64843 -0.43705,-0.10785 -0.99912,-0.14627 -1.65821,-0.15039 z m -0.002,0.40039 c 0.64448,0.004 1.18544,0.0452 1.56445,0.13867 0.37901,0.0935 0.55956,0.22669 0.60547,0.37695 0.28757,0.94117 0.0813,1.90805 0.13867,2.99805 0.0279,0.52984 0.0741,1.29347 0.0547,1.96484 -0.01,0.33569 -0.0364,0.64754 -0.0859,0.88867 -0.0495,0.24114 -0.13424,0.40272 -0.18359,0.44336 0.0429,-0.0354 -0.0206,0.007 -0.11523,0.0254 -0.0947,0.0188 -0.23174,0.0376 -0.39844,0.0547 -0.3334,0.0342 -0.79181,0.0626 -1.33008,0.084 -1.07653,0.0427 -2.4734,0.0592 -3.86133,0.0488 -1.38792,-0.0104 -2.7671,-0.047 -3.806639,-0.10937 -0.519767,-0.0312 -0.955912,-0.0685 -1.259765,-0.11133 -0.151927,-0.0214 -0.270243,-0.0456 -0.34375,-0.0664 -0.01664,-0.005 -0.02,-0.006 -0.03125,-0.01 -0.01283,-0.0476 -0.03051,-0.13298 -0.04102,-0.2832 -0.01225,-0.17517 -0.01902,-0.40597 -0.02148,-0.67969 -0.0049,-0.54744 0.0038,-1.27024 -0.0059,-2.10938 -0.01013,-0.87665 -0.151665,-1.69892 -0.207031,-2.30078 -0.02768,-0.30092 -0.03149,-0.54831 0,-0.69922 0.01574,-0.0754 0.03968,-0.12404 0.06055,-0.15039 0.02086,-0.0264 0.03512,-0.0375 0.07617,-0.0469 1.553967,-0.35394 2.834485,-0.21614 4.439455,-0.27149 1.75735,-0.0606 3.46298,-0.1936 4.75195,-0.18554 z"
             id="path2541"
             sodipodi:nodetypes="cssscccccsscccssscccssscsccscsssccsssssccscc" />
        </g>
        <g
           id="path2392">
          <path
             style="color:#000000;fill:#ff0000;stroke-width:0.4;-inkscape-stroke:none"
             d="m 99.1442,175.71451 c 0,0 17.34335,-0.27529 17.97259,0.35395 0.62924,0.62923 0.23596,2.57594 0.27529,3.44114 0.0393,0.8652 0.68823,3.16585 0.0787,3.4608 -0.60958,0.29496 -9.24193,0.0197 -15.61296,-0.0197 -6.371021,-0.0393 -12.270121,0.15732 -12.781378,-0.35394 -0.511254,-0.51126 -0.353946,-2.24166 -0.314619,-3.42148 0.03933,-1.17982 -0.157308,-2.75291 0.47193,-2.94955 0.629237,-0.19664 1.533765,-0.0787 4.129367,-0.19664 2.595605,-0.11798 5.78112,-0.31461 5.78112,-0.31461 z"
             id="path2545" />
          <path
             style="color:#000000;fill:#000000;-inkscape-stroke:none"
             d="m 107.89453,175.45508 c -4.10841,-0.009 -7.59843,0.0464 -8.142577,0.0547 l 0.04687,-0.0352 -0.630859,0.0391 h -0.02734 v 0.002 h -0.0078 c 0,0 -3.186349,0.1966 -5.779296,0.31446 -2.587455,0.11757 -3.476637,-0.0146 -4.179688,0.20508 -1.560596,0.36614 -1.78783,1.78299 -1.821001,3.20233 -0.01948,0.58429 0.05806,1.73311 0.0346,2.39174 -0.03888,1.09134 0.320534,1.72579 0.663189,2.06845 0.134164,0.13417 1.171979,-0.10952 1.40814,-0.0633 0.236161,0.0463 0.734207,-0.0153 1.10091,0.012 0.733407,0.0547 1.552431,0.008 2.72182,0.0184 2.338778,0.0197 5.559723,0.0777 8.742782,0.0973 3.18319,0.0197 6.8215,-0.0968 9.85362,-0.0599 1.51605,0.0184 2.86713,0.0963 3.86546,0.0812 1.55012,0.0431 1.6696,-0.30123 2.08478,-0.93198 0.0734,-0.11155 0.0784,-0.25731 0.0918,-0.40625 0.0267,-0.29788 -5.7e-4,-0.64901 -0.0469,-1.01562 -0.0926,-0.73322 -0.2635,-1.53891 -0.28125,-1.92969 -0.018,-0.39559 0.0689,-1.10698 0.084,-1.79492 0.0151,-0.68794 -0.0157,-1.37508 -0.41797,-1.77735 -0.0609,-0.0609 -0.11682,-0.0808 -0.18164,-0.10351 -0.0648,-0.0227 -0.13809,-0.0412 -0.22461,-0.0586 -0.17303,-0.0349 -0.39693,-0.0651 -0.66797,-0.0918 -0.54208,-0.0534 -1.27339,-0.0955 -2.13281,-0.12696 -1.71883,-0.0628 -3.94782,-0.0869 -6.15625,-0.0918 z m 0,0.40039 c 2.20606,0.005 4.43061,0.0293 6.14063,0.0918 0.855,0.0312 1.58255,0.073 2.10937,0.125 0.26341,0.026 0.47681,0.0537 0.62695,0.084 0.0751,0.0151 0.13416,0.0317 0.17188,0.0449 0.0377,0.0132 0.0528,0.0294 0.0312,0.008 0.22697,0.22697 0.31521,0.82731 0.30078,1.48633 -0.0144,0.65902 -0.10533,1.35461 -0.084,1.82422 0.0215,0.47442 0.19585,1.25184 0.28515,1.95899 0.0447,0.35357 0.0667,0.6862 0.0449,0.92968 -0.0109,0.12174 -0.0329,0.22192 -0.0605,0.28516 -0.0276,0.0632 -0.0541,0.086 -0.0781,0.0977 0.006,-0.003 -0.0564,0.0163 -0.14648,0.0293 -0.0901,0.013 -0.21298,0.0251 -0.36328,0.0352 -0.30061,0.0202 -0.71165,0.0335 -1.20703,0.041 -0.99078,0.015 -2.32329,0.009 -3.83789,-0.01 -3.02921,-0.0368 -6.78092,-0.11701 -9.96875,-0.13672 -3.18795,-0.0197 -6.256559,0.0196 -8.587896,0 -1.165668,-0.01 -2.147723,-0.0345 -2.863281,-0.0879 -0.357779,-0.0267 -0.650185,-0.0606 -0.859375,-0.10156 -0.20919,-0.041 -0.336428,-0.11182 -0.330078,-0.10547 -0.1686,-0.1686 -0.287427,-0.69499 -0.306641,-1.32422 -0.01921,-0.62923 0.02898,-1.35369 0.04883,-1.94922 0.02013,-0.60396 -0.01763,-1.29161 0.01563,-1.83789 0.01663,-0.27314 0.05241,-0.51048 0.111329,-0.67188 0.05892,-0.16139 0.123062,-0.23022 0.205078,-0.25585 0.555421,-0.17358 1.476334,-0.0692 4.080078,-0.1875 2.593882,-0.11791 5.762738,-0.3138 5.773437,-0.31446 h 0.0098 c 0.0097,-1.5e-4 4.331089,-0.0684 8.738279,-0.0586 z"
             id="path2547"
             sodipodi:nodetypes="scccccccccssscccscsccsssscscssscscscsccsscssscscsscssssscccss" />
        </g>
        <g
           id="path2394">
          <path
             style="color:#000000;fill:#ff0000;stroke-width:0.4;-inkscape-stroke:none"
             d="m 80.756238,187.93067 c 0,-1.41824 -0.278085,-3.42046 0.194659,-3.64293 0.472747,-0.22247 0.417131,-0.58398 2.474968,-0.41713 2.057839,0.16685 4.922126,-0.3337 6.034471,-0.25028 1.112345,0.0834 3.114567,0.3337 3.170182,1.05673 0.05562,0.72302 -0.139041,2.41935 -0.08343,3.19799 0.05562,0.77864 0.22247,2.50278 -0.194659,2.75305 -0.417129,0.25028 -3.281418,0.27809 -5.506106,0.33371 -2.224691,0.0556 -5.339257,0.36151 -5.812004,-0.25028 -0.472744,-0.61179 -0.222467,-1.6129 -0.250278,-2.03003 -0.02781,-0.41713 -0.02781,-0.75083 -0.02781,-0.75083 z"
             id="path2551" />
          <path
             style="color:#000000;fill:#000000;-inkscape-stroke:none"
             d="m 89.474609,183.41992 c -0.598686,-0.0449 -1.583435,0.0646 -2.693359,0.1582 -1.109924,0.0936 -2.334433,0.17527 -3.339844,0.0937 -1.04037,-0.0844 -1.563026,-0.0408 -1.908203,0.0703 -0.955645,0.2274 -2.252263,1.04962 -2.374102,2.09884 0.01059,0.71639 0.08008,1.57153 0.08008,2.26758 0,0 -9.38e-4,0.33948 0.02734,0.76367 0.01055,0.15824 -0.04311,0.52928 -0.04102,0.92774 0.0098,1.87324 0.762792,2.19672 1.041876,2.55789 0.188085,0.24341 1.358083,-0.042 1.769366,0.0171 0.411284,0.0591 0.685599,0.0955 1.248411,0.092 1.125625,-0.007 2.401899,-0.0581 3.507415,-0.0857 1.111032,-0.0278 2.559937,-0.0877 3.610567,-0.13303 2.265231,0.0127 2.317622,-1.13143 2.360534,-2.00603 0.01155,-0.23536 0.06072,-0.50411 0.0625,-0.79102 0.0036,-0.57382 -0.05253,-1.20423 -0.08008,-1.58984 -0.02589,-0.36249 0.0082,-0.984 0.04297,-1.59571 0.03476,-0.6117 0.07111,-1.21228 0.04102,-1.60351 -0.02087,-0.27137 -0.217933,-0.47208 -0.458984,-0.61524 -0.241052,-0.14315 -0.546935,-0.24765 -0.88086,-0.33203 -0.667849,-0.16876 -1.453499,-0.25277 -2.015625,-0.29492 z m -0.0293,0.40039 c 0.550219,0.0413 1.322016,0.12521 1.947266,0.28321 0.312625,0.079 0.588671,0.17737 0.773438,0.2871 0.184767,0.10974 0.258691,0.2126 0.265625,0.30274 0.02552,0.33179 -0.0082,0.93891 -0.04297,1.55078 -0.03477,0.61188 -0.07074,1.22838 -0.04102,1.64453 0.02808,0.39303 0.08347,1.01508 0.08008,1.56055 -0.0017,0.27274 -0.01893,0.52588 -0.05664,0.71289 -0.03771,0.18701 -0.108728,0.2875 -0.121094,0.29492 -0.0095,0.006 -0.09028,0.0358 -0.203125,0.0586 -0.112848,0.0228 -0.262316,0.0455 -0.439453,0.0645 -0.354275,0.0378 -0.816908,0.0654 -1.337891,0.0879 -1.041966,0.045 -2.31408,0.0659 -3.427734,0.0937 -1.119173,0.028 -2.454532,0.11811 -3.560547,0.125 -0.553008,0.003 -1.048649,-0.0145 -1.423828,-0.0684 -0.375179,-0.0539 -0.615775,-0.16603 -0.664063,-0.22852 -0.193657,-0.25061 -0.251953,-0.60747 -0.251953,-0.96679 0,-0.35932 0.06023,-0.69619 0.04297,-0.95508 -0.02734,-0.41007 -0.02734,-0.73633 -0.02734,-0.73633 0,-0.72219 -0.06981,-1.57854 -0.08008,-2.27344 -0.0051,-0.34745 0.0045,-0.65486 0.04102,-0.87304 0.03656,-0.21819 0.110416,-0.31322 0.117187,-0.31641 0.276872,-0.13029 0.35948,-0.26213 0.619141,-0.3457 0.259661,-0.0836 0.738394,-0.13523 1.755859,-0.0527 1.052426,0.0853 2.289534,3.1e-4 3.404297,-0.0937 1.114763,-0.0941 2.117202,-0.19477 2.630859,-0.15625 z"
             id="path2553"
             sodipodi:nodetypes="ssscccsssssccssssssssscssssssscscsccsssscsscscccc" />
        </g>
        <g
           id="path2396">
          <path
             style="color:#000000;fill:#ff0000;stroke-width:0.4;-inkscape-stroke:none"
             d="m 100.55598,183.89842 c 4.50499,-0.0278 7.84203,-0.72303 8.31477,0.80645 0.47275,1.52947 0.22247,1.77975 0.25028,2.80867 0.0278,1.02892 0.38932,3.05895 -0.13904,3.2536 -0.52836,0.19467 -3.72636,0.16686 -6.00666,0.22247 -2.28031,0.0556 -4.532808,0.33371 -5.228024,-0.16685 -0.695217,-0.50055 -0.583981,-2.69743 -0.583981,-3.61512 0,-0.91768 -0.444939,-2.61401 0.305896,-3.00333 0.750832,-0.38932 3.086759,-0.30589 3.086759,-0.30589 z"
             id="path2557" />
          <path
             style="color:#000000;fill:#000000;-inkscape-stroke:none"
             d="m 106.22656,183.51758 c -1.47473,-0.0141 -3.42936,0.1678 -5.67187,0.18164 -0.007,-2.6e-4 -0.587105,-0.0221 -1.269534,0.006 -0.686628,0.0282 -1.289144,0.094 -1.800053,0.14529 -1.114257,0.11185 -1.908818,1.30773 -1.96859,1.78128 0.018,0.60829 0.06009,1.33567 0.06009,1.76218 0,0.45076 -0.05674,1.3554 0.0037,2.09846 0.03022,0.37153 -0.06492,1.08935 0.03813,1.39886 0.408489,1.22678 1.760596,0.92893 1.99275,1.09607 0.444982,0.32039 1.811667,0.009 2.756227,-0.005 0.94456,-0.014 1.56284,0.0694 2.69648,0.0419 1.13706,-0.0277 3.23004,0.16046 4.38318,0.13606 1.55145,-0.13987 1.75295,-0.92478 1.98065,-1.80432 0.0445,-0.26028 0.0454,-0.57337 0.0312,-0.91016 -0.0284,-0.67356 -0.1253,-1.44289 -0.13867,-1.9375 -0.0135,-0.49782 0.043,-0.80917 0.043,-1.21094 0,-0.40176 -0.0606,-0.8732 -0.30078,-1.65039 -0.13905,-0.44987 -0.5078,-0.7446 -0.99414,-0.90625 -0.48634,-0.16164 -1.10443,-0.21561 -1.8418,-0.22265 z m -0.004,0.40039 c 0.7191,0.007 1.3076,0.0639 1.7207,0.20117 0.41309,0.1373 0.63901,0.32967 0.73633,0.64453 0.23252,0.75228 0.2832,1.17023 0.2832,1.5332 0,0.36298 -0.0554,0.69157 -0.041,1.22266 0.0144,0.53431 0.11141,1.29407 0.13867,1.94141 0.0136,0.32367 0.008,0.61892 -0.0274,0.82617 -0.0177,0.10363 -0.043,0.18497 -0.0684,0.23242 -0.0253,0.0475 -0.0431,0.057 -0.0527,0.0606 -0.0692,0.0255 -0.37866,0.0704 -0.7832,0.0957 -0.40455,0.0253 -0.92403,0.0426 -1.49805,0.0547 -1.14803,0.0243 -2.51692,0.0307 -3.66016,0.0586 -1.14667,0.028 -2.28145,0.11124 -3.207028,0.125 -0.925575,0.0138 -1.650157,-0.0737 -1.900391,-0.2539 -0.115454,-0.0831 -0.227788,-0.27207 -0.308594,-0.54102 -0.0808,-0.26895 -0.131283,-0.60792 -0.160156,-0.96289 -0.05775,-0.70994 -0.03125,-1.48229 -0.03125,-1.94922 0,-0.49116 -0.112142,-1.13845 -0.128906,-1.70508 -0.0084,-0.28331 0.0078,-0.54296 0.0625,-0.73828 0.05469,-0.19531 0.135819,-0.31456 0.263672,-0.38086 0.294989,-0.15295 1.073145,-0.24989 1.742187,-0.27734 0.669042,-0.0274 1.246096,-0.008 1.246096,-0.008 h 0.004 0.004 c 2.26248,-0.014 4.2278,-0.19342 5.66602,-0.17969 z"
             id="path2559"
             sodipodi:nodetypes="cccscsssscsccssssscccssscssccscssssssssscccscc" />
        </g>
        <g
           id="path2398">
          <path
             style="color:#000000;fill:#ff0000;stroke-width:0.4;-inkscape-stroke:none"
             d="m 115.7951,183.89842 c 1.72414,0.0834 3.28142,-0.11124 4.39376,-0.16686 1.11235,-0.0556 4.44938,-0.3337 4.97775,0.69522 0.52836,1.02892 0.0556,2.53058 0.16685,3.28142 0.11123,0.75083 0.44494,2.72524 -0.0278,3.05894 -0.47275,0.33371 -5.25583,0.41714 -6.7853,0.3059 -1.52948,-0.11123 -4.00445,0.36151 -4.61623,-0.27808 -0.61179,-0.6396 -0.44494,-2.91991 -0.44494,-3.8654 0,-0.9455 -0.36151,-2.47497 0.27808,-2.75306 0.6396,-0.27808 2.05784,-0.27808 2.05784,-0.27808 z"
             id="path2563" />
          <path
             style="color:#000000;fill:#000000;-inkscape-stroke:none"
             d="m 122.90625,183.47266 c -1.05714,-0.053 -2.17703,0.0311 -2.72656,0.0586 -1.12629,0.0563 -2.67167,0.25036 -4.375,0.16797 h -0.004 -0.006 c 0,0 -0.36156,-2.9e-4 -0.80469,0.0352 -0.44312,0.0354 -0.93679,0.18022 -1.33203,0.25782 -1.03984,0.20415 -1.68714,1.02691 -1.75137,1.4813 0.0108,0.55481 0.004,1.24531 0.004,1.69257 0,0.46098 0.0888,1.20458 0.0893,1.98712 0.002,2.355 0.34932,2.55086 0.7442,2.94837 0.21208,0.2135 1.64503,0.057 2.0071,0.10715 0.36206,0.0501 0.73225,0.0598 1.18018,0.0475 0.89585,-0.0246 1.87664,-0.17114 2.61315,-0.11759 0.78339,0.057 2.35897,0.004 3.81055,-0.0453 0.72578,-0.0244 1.37949,-0.0143 1.92551,-0.068 1.39778,-0.21023 1.36362,-1.18975 1.44141,-1.74399 0.0374,-0.26612 0.0352,-0.5765 0.0156,-0.89844 -0.0391,-0.64388 -0.15194,-1.33125 -0.20703,-1.70312 -0.0468,-0.31567 0.0352,-0.88616 0.0742,-1.4961 0.039,-0.60993 0.0316,-1.27646 -0.26172,-1.84765 -0.17284,-0.33659 -0.53523,-0.52729 -0.96484,-0.65235 -0.42962,-0.12505 -0.94409,-0.18442 -1.47266,-0.21093 z m -0.0195,0.40039 c 0.51078,0.0256 0.99947,0.0849 1.37891,0.19531 0.37943,0.11045 0.63131,0.27135 0.72265,0.44922 0.23505,0.45772 0.25622,1.05479 0.21875,1.64062 -0.0375,0.58584 -0.13674,1.14491 -0.0723,1.58008 0.0561,0.37896 0.16773,1.05352 0.20507,1.66797 0.0187,0.30723 0.0167,0.59903 -0.0137,0.82031 -0.0304,0.22129 -0.1035,0.35351 -0.13672,0.37696 0.004,-0.003 -0.11587,0.0479 -0.28515,0.0801 -0.16928,0.0322 -0.39633,0.0617 -0.66211,0.0879 -0.53156,0.0523 -1.2192,0.091 -1.93946,0.11524 -1.44051,0.0485 -3.02149,0.0406 -3.76757,-0.0137 -0.79297,-0.0577 -1.79493,0.0345 -2.67188,0.0586 -0.43847,0.012 -0.84612,0.007 -1.16797,-0.0371 -0.32185,-0.0446 -0.5486,-0.13595 -0.64648,-0.23828 -0.21756,-0.22744 -0.36234,-0.93282 -0.39649,-1.6875 -0.0341,-0.75468 0.008,-1.55455 0.008,-2.03906 0,-0.49824 -0.0915,-1.11504 -0.10157,-1.63086 -0.005,-0.25791 0.012,-0.48838 0.0586,-0.65235 0.0466,-0.16396 0.10711,-0.24706 0.19922,-0.28711 0.27023,-0.11748 0.77919,-0.19249 1.20507,-0.22656 0.42053,-0.0336 0.75508,-0.0352 0.76368,-0.0352 1.74494,0.0844 3.31566,-0.1111 4.41406,-0.16602 0.56282,-0.0281 1.66595,-0.10984 2.6875,-0.0586 z"
             id="path2565"
             sodipodi:nodetypes="ccccccscssscssscscsssscccsssssscscssccscssssscscc" />
        </g>
        <g
           id="path2400">
          <path
             style="color:#000000;fill:#ff0000;stroke-width:0.4;-inkscape-stroke:none"
             d="m 80.366917,192.43566 c 9.788636,0.11124 18.909863,-0.83425 19.577269,0 0.667404,0.83426 1.056724,3.44827 1.001114,4.56062 -0.0556,1.11234 0,2.44716 -1.279199,2.66962 -1.279197,0.22247 -8.843142,-0.22246 -12.680733,-0.11123 -3.837588,0.11123 -10.956597,0.27809 -11.568385,-0.55617 -0.611791,-0.83426 -0.444939,-2.72525 -0.444939,-3.50389 0,-0.77864 -0.02781,-2.39154 0.611791,-2.75305 0.639598,-0.36152 4.783082,-0.3059 4.783082,-0.3059 z"
             id="path2569" />
          <path
             style="color:#000000;fill:#000000;-inkscape-stroke:none"
             d="m 97.986328,191.90039 c -1.111359,-0.0307 -2.621381,0.005 -4.416016,0.0645 -3.589268,0.11825 -8.314002,0.32703 -13.201171,0.27149 0,0 -1.039211,-0.0139 -2.160157,0.0176 -0.560472,0.0157 -1.140812,0.0415 -1.626953,0.0879 -0.486141,0.0464 -0.832923,0.13472 -1.095703,0.22656 -0.923393,0.32271 -1.612895,1.03672 -1.688658,1.60315 -0.07576,0.56642 -0.06836,1.17165 -0.06836,1.55859 0,0.37503 -0.0074,1.05193 -0.0059,1.74219 -0.02537,1.84555 0.498937,2.88143 2.163334,3.38281 0.277656,0.0799 0.716612,-0.113 1.129502,-0.0623 0.82578,0.10146 1.883849,-0.0397 3.05542,-0.0153 2.343143,0.0488 5.499605,-0.18935 7.419082,-0.24495 1.907271,-0.0553 4.202039,0.0281 6.732891,0.0977 1.265426,0.0348 2.549788,0.0794 3.501627,0.0881 0.951838,0.009 1.761747,0.0588 2.114908,-0.0486 0.998596,-0.30364 0.948606,-0.84679 1.114866,-1.94707 0.085,-0.56256 0.16202,-1.16793 0.18945,-1.7168 0.0294,-0.58722 -0.056,-1.52115 -0.23242,-2.43164 -0.17645,-0.91049 -0.427,-1.78179 -0.8125,-2.26367 -0.158594,-0.19824 -0.40557,-0.24984 -0.753908,-0.30664 -0.348337,-0.0568 -0.803695,-0.0882 -1.359375,-0.10352 z m -0.01172,0.39844 c 0.546236,0.0151 0.990179,0.048 1.306641,0.0996 0.316462,0.0516 0.497601,0.15178 0.505859,0.16211 0.281902,0.35237 0.561262,1.20667 0.732422,2.08984 0.17116,0.88317 0.25282,1.81081 0.22656,2.33594 -0.0282,0.56347 -0.0322,1.16214 -0.17187,1.61914 -0.13964,0.457 -0.37077,0.7637 -0.943362,0.86328 -0.275931,0.048 -0.997261,0.0673 -1.943359,0.0586 -0.946098,-0.009 -2.131328,-0.0414 -3.396484,-0.0762 -2.530313,-0.0695 -5.38023,-0.15165 -7.310547,-0.0957 -1.918107,0.0556 -4.655674,0.12468 -6.984375,0.0762 -1.164351,-0.0243 -2.228275,-0.0793 -3.029297,-0.17773 -0.400511,-0.0492 -0.734761,-0.10951 -0.978516,-0.17969 -0.243755,-0.0702 -0.389315,-0.16494 -0.410156,-0.19336 -0.258153,-0.35203 -0.380074,-1.00665 -0.414063,-1.66602 -0.03399,-0.65937 0.0078,-1.31709 0.0078,-1.7207 0,-0.3917 -0.0058,-0.9808 0.06445,-1.50586 0.07023,-0.52506 0.237513,-0.95481 0.445313,-1.07226 0.07746,-0.0438 0.466851,-0.1309 0.9375,-0.17579 0.470648,-0.0449 1.046215,-0.0723 1.601562,-0.0879 1.110694,-0.0311 2.142578,-0.0176 2.142578,-0.0176 h 0.002 c 4.901457,0.0557 9.631449,-0.15141 13.216797,-0.26954 1.792675,-0.0591 3.300107,-0.0966 4.392578,-0.0664 z"
             id="path2571"
             sodipodi:nodetypes="ccccssssccsscscsscssscccscssssccscssssssssccsscc" />
        </g>
        <g
           id="path2402">
          <path
             style="color:#000000;fill:#ff0000;stroke-width:0.4;-inkscape-stroke:none"
             d="m 114.00993,192.31064 c 7.43287,-0.0393 16.32084,-0.8652 16.47815,0.66857 0.15731,1.53377 0.19664,2.5956 0.19664,3.46081 0,0.8652 0.55058,2.5956 -0.66857,2.98887 -1.21914,0.39328 -9.16326,0 -13.21398,0.0787 -4.05071,0.0786 -10.73636,0.62923 -11.12963,-0.39328 -0.39328,-1.02251 -0.15731,-2.71358 -0.15731,-3.85408 0,-1.14049 -0.15731,-2.43829 0.58991,-2.79224 0.74722,-0.35394 7.90479,-0.15731 7.90479,-0.15731 z"
             id="path2575" />
          <path
             style="color:#000000;fill:#000000;-inkscape-stroke:none"
             d="m 124.97656,191.85547 c -3.17709,0.0197 -7.25308,0.23605 -10.96093,0.25586 h -0.006 c -0.006,-1.6e-4 -1.78894,-0.0498 -3.67188,-0.0547 -0.94297,-0.002 -1.9101,0.006 -2.69141,0.0371 -0.39065,0.0158 -0.73322,0.0371 -1.00781,0.0664 -0.27458,0.0293 -0.27467,0.0689 -0.61914,0.12695 -1.21987,0.20568 -1.56647,0.60502 -1.70251,1.37295 -0.0569,0.53788 -0.0176,1.26113 -0.0176,1.82218 0,1.11291 -0.25365,2.7559 0.14407,3.88407 0.37629,1.06738 1.30541,0.97787 1.55798,1.06927 0.25256,0.0914 0.6712,-0.0122 1.05241,0.0343 0.7624,0.093 1.89049,-0.008 3.00795,-0.0177 2.2349,-0.0197 4.8654,0.15608 6.88383,0.11691 2.01635,-0.0392 4.76536,-0.12615 7.41184,-0.0867 1.32324,0.0197 2.80904,-0.0261 3.79324,-0.0456 0.9842,-0.0198 1.30711,0.0507 1.98635,-0.51254 0.28289,-0.23459 0.53466,-0.64281 0.67539,-0.91416 0.14073,-0.27136 0.1875,-0.58026 0.19531,-0.89258 0.0156,-0.62466 -0.12304,-1.28756 -0.12304,-1.67774 0,-0.87127 -0.0394,-1.94074 -0.19727,-3.48047 -0.0295,-0.2877 -0.26096,-0.49462 -0.56445,-0.63281 -0.3035,-0.13819 -0.70718,-0.23247 -1.20313,-0.30273 -0.9919,-0.14054 -2.35396,-0.17783 -3.94336,-0.16797 z m 0.002,0.40039 c 1.58136,-0.01 2.93365,0.0293 3.88476,0.16406 0.47556,0.0674 0.85204,0.16143 1.09375,0.27149 0.24171,0.11006 0.32221,0.21285 0.33203,0.30859 0.1567,1.52781 0.19531,2.5803 0.19531,3.43945 0,0.47503 0.13693,1.11086 0.12305,1.66602 -0.007,0.27758 -0.0515,0.52996 -0.15039,0.7207 -0.0989,0.19074 -0.24213,0.3283 -0.50195,0.41211 -0.23512,0.0759 -0.97834,0.13863 -1.95313,0.1582 -0.97478,0.0196 -2.20582,0.01 -3.52734,-0.01 -2.64304,-0.0393 -5.64142,-0.11765 -7.67578,-0.0781 -2.03228,0.0394 -4.71664,0.19525 -6.93555,0.21485 -1.10945,0.01 -2.10368,-0.0147 -2.83203,-0.10352 -0.36417,-0.0444 -0.66108,-0.1058 -0.86523,-0.17969 -0.20416,-0.0739 -0.29264,-0.16086 -0.30664,-0.19726 -0.35714,-0.92853 -0.14454,-2.61512 -0.14454,-3.7832 0,-0.57944 -0.0376,-1.18529 0.0137,-1.66993 0.0256,-0.24231 0.0749,-0.45307 0.15039,-0.61132 0.0755,-0.15826 0.17088,-0.263 0.3125,-0.33008 0.0343,-0.0163 0.22841,-0.0621 0.48828,-0.0898 0.25987,-0.0277 0.59892,-0.0489 0.98437,-0.0645 0.7709,-0.0311 1.73401,-0.0396 2.67383,-0.0371 1.87964,0.005 3.66602,0.0527 3.66602,0.0527 h 0.008 l 0.19726,0.006 v -0.01 c 3.66869,-0.0262 7.66369,-0.23074 10.76954,-0.25 z"
             id="path2577"
             sodipodi:nodetypes="cscccsscssssscscssssssscccsssscscscccsssscscscscccccc" />
        </g>
        <g
           id="path2466">
          <path
             style="color:#000000;fill:#ff0000;stroke-width:0.4;-inkscape-stroke:none"
             d="m 78.0588,200.86168 c 2.975523,0.0556 7.313668,-0.27809 7.814225,0 0.500555,0.27808 1.167961,1.36262 1.056728,2.03002 -0.111236,0.66741 -0.361514,1.19578 -0.361514,1.75195 0,0.55617 0.750835,2.36373 0.02781,3.00333 -0.723025,0.6396 -4.894318,0.25028 -6.562836,0.27808 -1.668519,0.0278 -4.727467,0.25028 -4.977744,-0.36151 -0.250278,-0.61179 -0.22247,-2.50277 -0.22247,-3.33703 0,-0.83426 -0.389318,-2.75306 0.333706,-3.11457 0.723024,-0.36151 2.892094,-0.25027 2.892095,-0.25027 z"
             id="path2581" />
          <path
             style="color:#000000;fill:#000000;-inkscape-stroke:none"
             d="m 84.863281,200.55273 c -0.530005,-0.009 -1.21424,0.005 -1.974609,0.0254 -1.518893,0.0417 -3.342791,0.11135 -4.820313,0.084 0,0 -0.547817,-0.0294 -1.189453,-0.0117 -0.641635,0.0176 -1.337378,0.11676 -1.800781,0.2832 -0.866966,0.31139 -1.683176,1.04249 -1.730694,1.65788 0.0072,0.64818 0.0618,1.3325 0.0618,1.71852 0,0.41491 -0.007,1.03016 0.01758,1.69024 0.02458,0.66008 -0.04399,1.98633 0.109468,2.36146 0.05912,0.14451 0.194183,0.62047 1.595603,0.64644 1.315792,0.0244 0.533998,0.0224 2.072543,0.0514 1.015598,0.0176 2.172127,-0.017 2.999535,-0.0308 0.815934,-0.0136 2.267713,-0.0214 3.616955,-0.008 0.67462,0.007 1.529509,-0.0586 2.06208,-0.11422 0.532572,-0.0553 0.71088,-0.37984 0.970659,-0.84603 0.148589,-0.26665 0.207268,-0.75324 0.242048,-1.05128 0.03478,-0.29805 0.0053,-0.61724 -0.04492,-0.92774 -0.05025,-0.3105 -0.122865,-0.61286 -0.18164,-0.86914 -0.05877,-0.25627 -0.101563,-0.47432 -0.101563,-0.56836 0,-0.49617 0.242956,-1.02219 0.359375,-1.7207 0.06917,-0.41501 -0.09167,-0.87603 -0.320312,-1.28906 -0.228646,-0.41304 -0.522158,-0.77295 -0.835938,-0.94727 -0.123595,-0.0687 -0.253543,-0.083 -0.435547,-0.10156 -0.182003,-0.0186 -0.406872,-0.0288 -0.671875,-0.0332 z m -0.0078,0.40039 c 0.258581,0.004 0.477954,0.0127 0.640625,0.0293 0.162671,0.0166 0.277753,0.0538 0.279297,0.0547 0.186775,0.10376 0.4773,0.42541 0.679687,0.79101 0.202387,0.36561 0.319408,0.77887 0.277344,1.03125 -0.106052,0.63631 -0.363281,1.16899 -0.363281,1.78516 0,0.18404 0.04996,0.39915 0.109375,0.6582 0.05941,0.25906 0.130658,0.55289 0.177734,0.84375 0.04708,0.29087 0.0688,0.57827 0.04102,0.81641 -0.02779,0.23814 -0.101501,0.41761 -0.234375,0.53516 -0.101734,0.09 -0.477385,0.20731 -0.982422,0.25976 -0.505037,0.0524 -1.14145,0.0655 -1.808594,0.0586 -1.334288,-0.0138 -2.789995,-0.10601 -3.642578,-0.0918 -0.841109,0.014 -2.0201,0.0777 -3.013672,0.0605 -0.496786,-0.009 -0.947922,-0.0387 -1.275391,-0.0996 -0.163734,-0.0305 -0.296751,-0.0706 -0.382812,-0.11133 -0.08606,-0.0407 -0.113736,-0.0775 -0.117188,-0.0859 -0.09681,-0.23666 -0.165365,-0.87066 -0.189453,-1.51758 -0.02409,-0.64692 -0.01758,-1.32479 -0.01758,-1.74414 0,-0.44824 -0.09873,-1.12617 -0.105469,-1.73633 -0.0034,-0.30508 0.01709,-0.59103 0.07422,-0.80468 0.05713,-0.21366 0.14287,-0.33902 0.253906,-0.39453 0.282619,-0.14131 1.009158,-0.22311 1.632813,-0.24024 0.623655,-0.0171 1.160156,0.01 1.160156,0.01 l 0.0039,0.002 h 0.002 c 1.497048,0.028 3.328352,-0.0423 4.845704,-0.084 0.758675,-0.0208 1.437915,-0.034 1.955078,-0.0254 z"
             id="path2583"
             sodipodi:nodetypes="scccscsssscsccssssssssssscscssssssscssccscssssssccsccc" />
        </g>
        <g
           id="path2468">
          <path
             style="color:#000000;fill:#ff0000;stroke-width:0.4;-inkscape-stroke:none"
             d="m 100.20604,200.72669 c 4.48331,-0.19663 13.41062,-0.55058 13.92187,0.0393 0.51126,0.58991 0.51126,2.12368 0.55059,3.50013 0.0393,1.37646 0.55058,3.18552 -0.0393,3.42148 -0.58991,0.23596 -7.00027,0.35395 -10.933,0.31462 -3.932733,-0.0393 -12.270127,0.0393 -12.702728,-0.58991 -0.432602,-0.62924 -0.196636,-2.5956 -0.196636,-3.65744 0,-1.06184 -0.235966,-2.24166 0.157308,-2.75292 0.393274,-0.51125 2.831568,-0.31461 3.224842,-0.31461 0.393274,0 6.017084,0.0393 6.017084,0.0393 z"
             id="path2587" />
          <path
             style="color:#000000;fill:#000000;-inkscape-stroke:none"
             d="m 108.6543,200.25195 c -2.85712,0.0394 -6.20509,0.17708 -8.44727,0.27539 h -0.01 c -0.0182,-1.2e-4 -5.601879,-0.0391 -6.007817,-0.0391 -0.163303,0 -0.897267,-0.0502 -1.617187,-0.0352 -0.359961,0.007 -0.721922,0.026 -1.029297,0.0879 -1.473255,0.29659 -1.772918,1.15638 -1.798406,1.81552 0.01009,0.50455 -0.01312,1.11763 -0.01312,1.63374 0,0.5161 0.02396,1.22146 0.01898,1.93462 -0.005,0.71316 -0.0096,2.2544 0.433965,2.47646 1.468392,0.83046 4.154567,0.5004 5.88053,0.50575 2.634287,0.064 5.814192,-0.0161 7.777812,0.003 1.96945,0.0197 4.45757,0.0388 6.62824,-0.0154 1.08534,-0.0271 2.10454,-0.005 2.85377,-0.0484 1.18142,0.002 1.31424,-0.52651 1.57495,-0.88572 0.15091,-0.20792 0.15876,-0.42861 0.19797,-0.6842 0.0392,-0.25558 0.0262,-0.55709 -0.004,-0.89062 -0.0602,-0.66707 -0.19583,-1.46096 -0.21484,-2.12695 -0.0196,-0.68611 -0.0292,-1.4168 -0.0996,-2.06055 -0.0704,-0.64376 -0.18819,-1.20467 -0.5,-1.56445 -0.0808,-0.0932 -0.17301,-0.12548 -0.28321,-0.16016 -0.1102,-0.0347 -0.24136,-0.0618 -0.39843,-0.0859 -0.31414,-0.0483 -0.72738,-0.0819 -1.22071,-0.10547 -0.98665,-0.0471 -2.29245,-0.0509 -3.72265,-0.0312 z m 0.006,0.40039 c 1.42593,-0.0196 2.72616,-0.0151 3.69726,0.0312 0.48555,0.0232 0.89025,0.0571 1.17969,0.10157 0.14472,0.0222 0.26091,0.0474 0.33984,0.0723 0.0789,0.0248 0.11645,0.0585 0.0996,0.0391 0.19945,0.23013 0.33706,0.73099 0.4043,1.34571 0.0672,0.61472 0.0779,1.33895 0.0977,2.02929 0.0203,0.71047 0.15899,1.50983 0.21679,2.15039 0.0289,0.32029 0.0355,0.60194 0.006,0.79493 -0.0296,0.19299 -0.0803,0.26259 -0.13672,0.28515 -0.0184,0.007 -0.18985,0.0452 -0.42382,0.0703 -0.23398,0.0251 -0.54722,0.0486 -0.91797,0.0703 -0.74152,0.0434 -1.7182,0.0785 -2.80078,0.10547 -2.16517,0.054 -4.74962,0.0743 -6.7129,0.0547 -1.9691,-0.0197 -5.036366,-0.0104 -7.662105,-0.0742 -1.31287,-0.0319 -2.514784,-0.0831 -3.410156,-0.16407 -0.447686,-0.0405 -0.820606,-0.0873 -1.083985,-0.14258 -0.131689,-0.0276 -0.235893,-0.0587 -0.304687,-0.0859 -0.06879,-0.0273 -0.09579,-0.06 -0.08008,-0.0371 -0.151584,-0.22049 -0.229455,-0.85799 -0.22461,-1.55078 0.0048,-0.69279 0.06445,-1.44841 0.06445,-1.99414 0,-0.54574 -0.06074,-1.1073 -0.07031,-1.58594 -0.0096,-0.47864 0.04603,-0.86355 0.185547,-1.04492 0.03365,-0.0437 0.220464,-0.13937 0.492187,-0.18946 0.271724,-0.0501 0.616913,-0.0728 0.964844,-0.0801 0.695862,-0.0145 1.379405,0.0332 1.609375,0.0332 0.357868,0 5.083676,0.0331 5.666016,0.0371 l -0.01172,0.0195 0.361334,-0.0176 h 0.01 c 2.2411,-0.0983 5.59344,-0.23416 8.44532,-0.27344 z"
             id="path2589"
             sodipodi:nodetypes="cccscscssccsscsscsssscsccccsccscsccsscsssscccsssscscccccc" />
        </g>
        <g
           id="path2470">
          <path
             style="color:#000000;fill:#ff0000;stroke-width:0.4;-inkscape-stroke:none"
             d="m 122.02423,200.58359 c 1.05673,0 4.44938,-0.0834 5.06117,-0.0834 0.61179,0 2.75306,-0.3337 3.28142,0.61179 0.52836,0.9455 0.36151,2.5862 0.3337,3.39265 -0.0278,0.80645 0.52837,3.25361 -0.27808,3.39266 -0.80645,0.13904 -4.72747,-0.0278 -6.25694,-0.0278 -1.52948,0 -4.86651,0.47275 -5.33926,-0.69522 -0.47275,-1.16796 -0.22247,-3.03114 -0.22247,-3.8654 0,-0.83425 -0.27808,-1.86317 0.3337,-2.36373 0.6118,-0.50055 3.08676,-0.36151 3.08676,-0.36151 z"
             id="path2593" />
          <path
             style="color:#000000;fill:#000000;-inkscape-stroke:none"
             d="m 128.76758,200.25195 c -0.7011,-0.0359 -1.41211,0.0488 -1.68164,0.0488 -0.62997,0 -4.0163,0.082 -5.0625,0.082 h -0.19922 c -0.15549,-0.007 -0.52639,-0.0297 -1.12109,-0.006 -0.35331,0.0141 -0.72787,0.0435 -1.06055,0.10352 -0.33268,0.06 -0.62442,0.14069 -0.83203,0.31055 -1.23467,0.70568 -1.47342,1.7461 -1.51859,2.76785 0,0.39713 -0.007,0.87096 -0.0108,1.59807 -0.004,0.72712 -0.0512,1.52303 0.1776,2.16258 0.52607,1.47063 1.71038,1.35286 2.14303,1.48154 0.43265,0.12867 0.94052,0.0263 1.49196,0.0404 1.10288,0.0283 2.42645,-0.0436 3.17059,-0.0436 0.75746,0 2.04198,-0.0386 3.31587,-0.0142 0.63694,0.0122 1.27121,-0.0375 1.77943,-0.0414 0.92612,-0.0257 1.41411,-0.3207 1.63645,-1.27351 0.0699,-0.29646 0.0744,-0.65386 0.0566,-1.02734 -0.0356,-0.74697 -0.16442,-1.57932 -0.15234,-1.92969 0.0136,-0.39413 0.0624,-1.01445 0.041,-1.6582 -0.0213,-0.64376 -0.10781,-1.31627 -0.40039,-1.83985 -0.1626,-0.29096 -0.44261,-0.47207 -0.75586,-0.58398 -0.31325,-0.11191 -0.66703,-0.15976 -1.01758,-0.17774 z m -0.0195,0.39844 c 0.32728,0.0168 0.64638,0.0648 0.90234,0.15625 0.25596,0.0914 0.43943,0.22056 0.54102,0.40234 0.23577,0.42192 0.33119,1.04363 0.35156,1.65821 0.0204,0.61458 -0.0288,1.21853 -0.043,1.63086 -0.0157,0.45608 0.12034,1.24991 0.1543,1.96289 0.017,0.35649 0.007,0.68932 -0.0469,0.91601 -0.0267,0.11335 -0.0639,0.19645 -0.10156,0.2461 -0.0377,0.0496 -0.0667,0.0694 -0.11719,0.0781 -0.16827,0.029 -0.56873,0.0469 -1.07031,0.0508 -0.50158,0.004 -1.1147,-0.003 -1.75,-0.0156 -1.2706,-0.0243 -2.63034,-0.0664 -3.40234,-0.0664 -0.78535,0 -1.99436,0.11718 -3.06055,0.0899 -0.5331,-0.0137 -1.0305,-0.0646 -1.4043,-0.17579 -0.3738,-0.11117 -0.60373,-0.27258 -0.68945,-0.48437 -0.21789,-0.53832 -0.27686,-1.27739 -0.27344,-1.98242 0.003,-0.70503 0.0664,-1.37147 0.0664,-1.8086 0,-0.43934 -0.071,-0.9029 -0.0645,-1.30273 0.007,-0.39983 0.0818,-0.70791 0.32422,-0.90625 0.0983,-0.0804 0.345,-0.16989 0.64844,-0.22461 0.30344,-0.0547 0.66395,-0.084 1.00586,-0.0977 0.68383,-0.0274 1.29492,0.006 1.29492,0.006 h 0.01 l 0.20117,0.0117 v -0.0156 c 1.1951,-0.006 4.2913,-0.0801 4.86133,-0.0801 0.34226,0 1.00753,-0.0824 1.66211,-0.0488 z"
             id="path2595"
             sodipodi:nodetypes="csscsscccsssssccsscsscccsssssccsccscsscscsssccccscc" />
        </g>
      </g>
    </g>
  </g>
</svg>
