<?xml version="1.0" encoding="UTF-8" standalone="no"?>
<!-- Created with Inkscape (http://www.inkscape.org/) -->

<svg
   width="140.67598mm"
   height="162.69945mm"
   viewBox="0 0 140.67598 162.69945"
   version="1.1"
   id="svg6083"
   inkscape:version="1.2.2 (732a01da63, 2022-12-09)"
   sodipodi:docname="Wappen Ehndorf2.svg"
   xmlns:inkscape="http://www.inkscape.org/namespaces/inkscape"
   xmlns:sodipodi="http://sodipodi.sourceforge.net/DTD/sodipodi-0.dtd"
   xmlns="http://www.w3.org/2000/svg"
   xmlns:svg="http://www.w3.org/2000/svg">
  <sodipodi:namedview
     id="namedview6085"
     pagecolor="#ffffff"
     bordercolor="#666666"
     borderopacity="1.0"
     inkscape:showpageshadow="2"
     inkscape:pageopacity="0.0"
     inkscape:pagecheckerboard="0"
     inkscape:deskcolor="#d1d1d1"
     inkscape:document-units="mm"
     showgrid="false"
     inkscape:zoom="0.87047697"
     inkscape:cx="265.37175"
     inkscape:cy="308.45158"
     inkscape:current-layer="layer1" />
  <defs
     id="defs6080" />
  <g
     inkscape:label="Ebene 1"
     inkscape:groupmode="layer"
     id="layer1"
     transform="translate(-533.72981,-67.15027)">
    <g
       id="g5771"
       transform="translate(497.25494,-7.07888)">
      <path
         id="path4097"
         style="fill:#ffff00;fill-opacity:1;stroke:none;stroke-width:1.3;stroke-linecap:round;stroke-dasharray:none"
         d="m 37.124866,74.87915 v 91.7112 a 69.688034,69.688034 0 0 0 69.688254,69.68825 69.688034,69.688034 0 0 0 69.68773,-69.68825 v -91.7112 z" />
      <path
         id="path3529"
         style="fill:#009e01;fill-opacity:1;stroke:#000000;stroke-width:0.3;stroke-dasharray:none"
         d="m 164.8163,150.58512 c -7.12643,0.001 -12.23214,7.03005 -19.35851,7.03162 -7.12642,0.002 -12.23627,-7.02441 -19.36264,-7.02283 -7.12644,0.001 -12.2331,7.02952 -19.35955,7.03109 -7.126342,0.002 -12.236188,-7.02436 -19.362639,-7.02282 -7.126334,0.002 -12.232125,7.03003 -19.358508,7.03161 -7.126401,0.001 -12.236223,-7.02439 -19.362642,-7.02283 -4.278655,6e-4 -7.830385,2.5302 -11.526945,4.55528 v 11.42411 a 69.688034,69.688034 0 0 0 69.688254,69.68825 69.688034,69.688034 0 0 0 69.68773,-69.68825 v -11.36882 c -3.75377,-2.03689 -7.34601,-4.63736 -11.68455,-4.63641 z" />
      <path
         id="path5471"
         style="fill:none;fill-opacity:1;stroke:#000000;stroke-width:1.3;stroke-linecap:round;stroke-dasharray:none"
         d="m 37.124866,74.87915 v 91.7112 a 69.688034,69.688034 0 0 0 69.688254,69.68825 69.688034,69.688034 0 0 0 69.68773,-69.68825 v -91.7112 z" />
      <g
         id="g3580"
         transform="translate(-206.15539,-8.9971872)">
        <g
           id="g3277"
           transform="translate(-0.6292485,86.205509)">
          <g
             id="g3233"
             transform="translate(-0.03024869,-86.380546)"
             style="fill:#000000">
            <path
               style="fill:#000000;fill-opacity:1;stroke:#000000;stroke-width:0.499999;stroke-linecap:round;stroke-dasharray:none"
               d="m 310.72523,155.57892 c 0,0 1.06186,-11.56224 -2.24165,-15.18035 -3.30351,-3.61812 -7.70816,-5.74179 -6.80363,-8.0621 0.90453,-2.32032 5.15189,0.27529 5.85978,-2.04503 0.70789,-2.32031 -7.58549,-3.3292 -7.39354,-6.52833 0.23597,-3.93273 6.65453,0.14922 7.39354,-3.10686 0.70982,-3.12745 -4.62136,-2.44268 -6.98597,-3.81781 -0.89912,-0.52289 -1.30204,-1.64638 -0.87951,-2.94649 1.53376,-4.71928 6.5677,0.55059 7.35423,-1.37646 0.31087,-0.76165 0.15874,-1.52577 -1.39697,-2.39339 -2.38037,-1.32752 -6.51719,-2.9501 -5.32803,-5.59006 1.96637,-4.36534 5.85978,-0.23596 7.82614,-1.25847 1.96638,-1.02251 -4.20033,-8.270201 3.46083,-8.494704 6.5137,-0.190877 5.39121,3.301442 3.74485,6.588984 -0.57406,1.14633 -0.63841,2.49115 -0.40205,2.73159 1.21218,1.23308 2.60165,-0.71917 4.15386,-1.6959 1.36864,-0.86122 2.88486,-0.844 4.1748,1.11553 2.42059,3.67707 -1.46246,4.82179 -3.70904,5.93538 -1.26316,0.62612 -1.77047,1.44695 -1.55207,2.07786 1.22475,3.53795 7.21349,-3.72026 9.00594,1.69107 2.31927,7.00181 -8.96662,5.34852 -8.06209,8.77 0.90453,3.42148 7.41621,-3.42163 8.49471,1.7304 1.36853,6.53755 -8.37944,5.78143 -8.14078,7.82614 0.37502,3.21298 5.7418,0 5.54516,2.91022 -0.19663,2.91022 -6.01707,4.71928 -8.76998,10.02847 -2.75291,5.30919 -1.53376,12.70273 -1.53376,12.70273 z"
               id="path3193"
               sodipodi:nodetypes="csssssssssssssssssssssssscc" />
            <ellipse
               style="fill:#000000;fill-opacity:1;stroke:#000000;stroke-width:0.500086;stroke-linecap:round;stroke-dasharray:none"
               id="ellipse3195"
               cx="45.177959"
               cy="345.82547"
               rx="1.1423771"
               ry="2.3615656"
               transform="matrix(0.58227941,-0.81298874,0.82806436,0.56063304,0,0)" />
            <path
               style="fill:#000000;fill-opacity:1;stroke:#000000;stroke-width:0.1;stroke-linecap:round;stroke-dasharray:none"
               d="m 312.61296,145.47179 c 0,0 -0.11801,-10.38241 -0.2753,-18.24788 -0.15732,-7.86546 -0.2753,-28.66962 -0.2753,-28.66962 0,0 0.66857,15.5343 0.70789,23.28178 0.0394,7.74748 0.35396,23.63572 0.35396,23.63572 z"
               id="path3197" />
            <path
               style="fill:#000000;fill-opacity:1;stroke:#000000;stroke-width:0.1;stroke-linecap:round;stroke-dasharray:none"
               d="m 312.62452,128.47583 c 0,0 0.70914,0.12514 4.1852,-0.79254 3.47607,-0.91769 4.11568,-1.15406 4.11568,-1.05673 0,0.0973 -2.64183,1.09844 -4.67184,1.66852 -2.03004,0.57007 -3.65685,0.76473 -3.65685,0.76473 z"
               id="path3199"
               sodipodi:nodetypes="cssscc" />
            <path
               style="fill:#000000;fill-opacity:1;stroke:#000000;stroke-width:0.1;stroke-linecap:round;stroke-dasharray:none"
               d="m 312.39374,118.56739 c 0,0 0.30257,0.14019 3.71542,-0.99014 3.41286,-1.13032 4.03667,-1.40568 4.04267,-1.30854 0.006,0.0971 -2.56906,1.25927 -4.56005,1.95346 -1.99102,0.69418 -3.18978,0.9298 -3.18978,0.9298 z"
               id="path3201"
               sodipodi:nodetypes="cssscc" />
            <path
               style="fill:#000000;fill-opacity:1;stroke:#000000;stroke-width:0.1;stroke-linecap:round;stroke-dasharray:none"
               d="m 312.38814,110.35348 c 0,0 -1.14096,0.48266 2.13532,-0.99758 3.2763,-1.48025 3.86797,-1.81919 3.88408,-1.72321 0.0161,0.096 -2.42365,1.52045 -4.33134,2.41859 -1.90773,0.89813 -1.75789,0.90359 -1.75789,0.90359 z"
               id="path3203"
               sodipodi:nodetypes="cssscc" />
            <path
               style="fill:#000000;fill-opacity:1;stroke:#000000;stroke-width:0.1;stroke-linecap:round;stroke-dasharray:none"
               d="m 312.04027,109.29164 c 0,0 1.14096,0.48266 -2.13532,-0.99758 -3.2763,-1.48025 -3.86797,-1.81919 -3.88408,-1.72321 -0.0161,0.096 2.42365,1.52045 4.33134,2.41859 1.90773,0.89813 1.75789,0.90359 1.75789,0.90359 z"
               id="path3205"
               sodipodi:nodetypes="cssscc" />
            <path
               style="fill:#000000;fill-opacity:1;stroke:#000000;stroke-width:0.1;stroke-linecap:round;stroke-dasharray:none"
               d="m 312.48179,117.70219 c 0,0 -0.30257,0.14019 -3.71542,-0.99014 -3.41286,-1.13032 -4.03667,-1.40568 -4.04267,-1.30854 -0.006,0.0971 2.56906,1.25927 4.56005,1.95346 1.99102,0.69418 3.18978,0.9298 3.18978,0.9298 z"
               id="path3207"
               sodipodi:nodetypes="cssscc" />
            <path
               style="fill:#000000;fill-opacity:1;stroke:#000000;stroke-width:0.1;stroke-linecap:round;stroke-dasharray:none"
               d="m 312.55446,126.65905 c 0,0 -0.29628,0.15303 -3.75446,-0.82993 -3.45818,-0.98295 -4.09322,-1.23132 -4.09505,-1.13401 -0.002,0.0973 2.62069,1.14797 4.63961,1.75615 2.01895,0.60818 3.22671,0.79219 3.22671,0.79219 z"
               id="path3209"
               sodipodi:nodetypes="cssscc" />
            <path
               style="fill:#000000;fill-opacity:1;stroke:#000000;stroke-width:0.1;stroke-linecap:round;stroke-dasharray:none"
               d="m 312.75293,135.4477 c 0,0 -0.28396,0.17485 -3.80618,-0.54568 -3.52222,-0.72052 -4.17412,-0.92051 -4.16864,-0.82333 0.005,0.0972 2.69949,0.94795 4.75838,1.40282 2.05891,0.45487 3.27708,0.54768 3.27708,0.54768 z"
               id="path3211"
               sodipodi:nodetypes="cssscc" />
            <path
               id="path3213"
               style="fill:#000000;fill-opacity:1;stroke:#000000;stroke-width:0.1;stroke-linecap:round;stroke-dasharray:none"
               d="m 318.21675,136.43818 c -0.16995,-0.007 -1.03984,0.27396 -4.0814,1.07694 -0.51754,0.13663 -0.97242,0.2494 -1.37408,0.34365 l 0.009,0.48162 c 0.26004,-0.0645 0.53038,-0.13525 0.80874,-0.21342 2.03001,-0.57008 4.67207,-1.57133 4.67207,-1.66863 0,-0.0122 -0.0103,-0.0191 -0.0346,-0.0202 z" />
            <path
               id="path3215"
               style="fill:#000000;fill-opacity:1;stroke:#000000;stroke-width:0.1;stroke-linecap:round;stroke-dasharray:none"
               d="m 317.06385,132.18831 c -0.20869,-1.8e-4 -1.13146,0.23953 -4.11499,0.86042 -0.0826,0.0172 -0.16287,0.0334 -0.24237,0.0496 l -0.0212,0.45682 c 2.00468,-0.4741 4.42482,-1.25197 4.4297,-1.34411 6.4e-4,-0.0121 -0.009,-0.0192 -0.0331,-0.0217 h -5.2e-4 c -0.005,-4.7e-4 -0.011,-10e-4 -0.0176,-10e-4 z" />
            <path
               id="path3217"
               style="fill:#000000;fill-opacity:1;stroke:#000000;stroke-width:0.1;stroke-linecap:round;stroke-dasharray:none"
               d="m 316.10692,121.45169 c -0.25694,0.0225 -1.06533,0.22513 -3.54642,0.71752 l 0.0365,0.41543 c 1.80471,-0.44662 3.60198,-1.03058 3.60719,-1.11193 -5e-5,-0.012 -0.009,-0.0192 -0.0331,-0.022 l -5.1e-4,5e-5 c -0.005,-5.2e-4 -0.0106,-0.001 -0.0173,-0.002 l 4e-5,5.2e-4 c -0.013,-1.6e-4 -0.0285,4.4e-4 -0.0465,0.002 z" />
            <path
               id="path3219"
               style="fill:#000000;fill-opacity:1;stroke:#000000;stroke-width:0.1;stroke-linecap:round;stroke-dasharray:none"
               d="m 315.83068,113.13946 c -0.2528,0.0511 -1.03333,0.34328 -3.44347,1.11106 l 0.0829,0.40871 c 1.74318,-0.64638 3.46354,-1.42839 3.45959,-1.50981 -0.001,-0.012 -0.0108,-0.0181 -0.0353,-0.0181 l -5e-4,1e-4 c -0.005,6e-5 -0.0107,1.3e-4 -0.0174,4.6e-4 l 10e-5,5.1e-4 c -0.0129,0.002 -0.0282,0.004 -0.046,0.007 z" />
            <path
               id="path3221"
               style="fill:#000000;fill-opacity:1;stroke:#000000;stroke-width:0.1;stroke-linecap:round;stroke-dasharray:none"
               d="m 315.24691,105.66228 c -0.003,2e-5 -0.005,2.8e-4 -0.008,5.2e-4 h -5.2e-4 c -0.005,4.5e-4 -0.0104,10e-4 -0.017,0.002 v 5.1e-4 c -0.0127,0.003 -0.028,0.006 -0.0455,0.0109 v -5.2e-4 c -0.23239,0.0662 -0.91027,0.37984 -2.92178,1.20406 l 0.004,0.42788 c 1.57281,-0.74456 3.02758,-1.55351 3.0179,-1.62936 -0.002,-0.0104 -0.0101,-0.0161 -0.0284,-0.016 z" />
            <path
               id="path3223"
               style="fill:#000000;fill-opacity:1;stroke:#000000;stroke-width:0.1;stroke-linecap:round;stroke-dasharray:none"
               d="m 309.9356,104.37864 c -0.0138,3.3e-4 -0.0201,0.005 -0.0227,0.0145 -0.0122,0.0644 1.01705,0.73092 2.27169,1.44746 l -0.0119,-0.39791 c -1.43362,-0.69742 -1.96052,-0.97609 -2.15956,-1.04593 v 5.2e-4 c -0.0172,-0.006 -0.0325,-0.01 -0.045,-0.014 -0.007,-0.001 -0.0115,-0.002 -0.0165,-0.003 h -5.1e-4 c -0.003,-4.2e-4 -0.005,-8.3e-4 -0.008,-0.001 l -5.2e-4,-5.2e-4 c -0.002,-1.5e-4 -0.005,-5e-5 -0.007,0 z" />
            <path
               id="path3225"
               style="fill:#000000;fill-opacity:1;stroke:#000000;stroke-width:0.1;stroke-linecap:round;stroke-dasharray:none"
               d="m 308.86014,114.51592 c 0.2528,0.0511 1.03333,0.34328 3.44347,1.11106 l -0.0829,0.40871 c -1.74318,-0.64638 -3.46354,-1.42839 -3.45959,-1.50981 10e-4,-0.012 0.0108,-0.0181 0.0353,-0.0181 l 5e-4,1e-4 c 0.005,6e-5 0.0107,1.3e-4 0.0174,4.6e-4 l -1e-4,5.1e-4 c 0.0129,0.002 0.0282,0.004 0.046,0.007 z" />
            <path
               id="path3227"
               style="fill:#000000;fill-opacity:1;stroke:#000000;stroke-width:0.1;stroke-linecap:round;stroke-dasharray:none"
               d="m 309.01745,122.65668 c 0.2528,0.0511 1.03333,0.34328 3.44347,1.11106 l -0.0829,0.40871 c -1.74318,-0.64638 -3.46354,-1.42839 -3.45959,-1.50981 10e-4,-0.012 0.0108,-0.0181 0.0353,-0.0181 l 5e-4,1e-4 c 0.005,6e-5 0.0107,1.3e-4 0.0174,4.6e-4 l -1e-4,5.1e-4 c 0.0129,0.002 0.0282,0.004 0.046,0.007 z" />
            <path
               id="path3229"
               style="fill:#000000;fill-opacity:1;stroke:#000000;stroke-width:0.1;stroke-linecap:round;stroke-dasharray:none"
               d="m 309.13543,131.26937 c 0.2528,0.0511 1.03333,0.34328 3.44347,1.11106 l -0.0829,0.40871 c -1.74318,-0.64638 -3.46354,-1.42839 -3.45959,-1.50981 0.001,-0.012 0.0108,-0.0181 0.0353,-0.0181 l 5e-4,10e-5 c 0.005,6e-5 0.0107,1.3e-4 0.0174,4.6e-4 l -10e-5,5.1e-4 c 0.0129,0.002 0.0282,0.004 0.046,0.007 z" />
            <path
               id="path3231"
               style="fill:#000000;fill-opacity:1;stroke:#000000;stroke-width:0.1;stroke-linecap:round;stroke-dasharray:none"
               d="m 310.38054,139.75121 c -0.0138,3.3e-4 -0.0201,0.005 -0.0227,0.0145 -0.0122,0.0644 1.01705,0.73092 2.27169,1.44746 l -0.0119,-0.39791 c -1.43362,-0.69742 -1.96052,-0.97609 -2.15956,-1.04593 v 5.2e-4 c -0.0172,-0.006 -0.0325,-0.01 -0.045,-0.014 -0.007,-0.001 -0.0115,-0.002 -0.0165,-0.003 h -5.1e-4 c -0.003,-4.2e-4 -0.005,-8.3e-4 -0.008,-0.001 l -5.2e-4,-5.2e-4 c -0.002,-1.5e-4 -0.005,-5e-5 -0.007,0 z" />
          </g>
          <g
             id="g3191"
             transform="translate(0.49891798,-86.380546)">
            <path
               style="fill:#009e01;fill-opacity:1;stroke:#000000;stroke-width:0.499999;stroke-linecap:round;stroke-dasharray:none"
               d="m 310.72523,155.57892 c 0,0 1.06186,-11.56224 -2.24165,-15.18035 -3.30351,-3.61812 -7.70816,-5.74179 -6.80363,-8.0621 0.90453,-2.32032 5.15189,0.27529 5.85978,-2.04503 0.70789,-2.32031 -7.58549,-3.3292 -7.39354,-6.52833 0.23597,-3.93273 6.65453,0.14922 7.39354,-3.10686 0.70982,-3.12745 -4.62136,-2.44268 -6.98597,-3.81781 -0.89912,-0.52289 -1.30204,-1.64638 -0.87951,-2.94649 1.53376,-4.71928 6.5677,0.55059 7.35423,-1.37646 0.31087,-0.76165 0.15874,-1.52577 -1.39697,-2.39339 -2.38037,-1.32752 -6.51719,-2.9501 -5.32803,-5.59006 1.96637,-4.36534 5.85978,-0.23596 7.82614,-1.25847 1.96638,-1.02251 -4.20033,-8.270201 3.46083,-8.494704 6.5137,-0.190877 5.39121,3.301442 3.74485,6.588984 -0.57406,1.14633 -0.63841,2.49115 -0.40205,2.73159 1.21218,1.23308 2.60165,-0.71917 4.15386,-1.6959 1.36864,-0.86122 2.88486,-0.844 4.1748,1.11553 2.42059,3.67707 -1.46246,4.82179 -3.70904,5.93538 -1.26316,0.62612 -1.77047,1.44695 -1.55207,2.07786 1.22475,3.53795 7.21349,-3.72026 9.00594,1.69107 2.31927,7.00181 -8.96662,5.34852 -8.06209,8.77 0.90453,3.42148 7.41621,-3.42163 8.49471,1.7304 1.36853,6.53755 -8.37944,5.78143 -8.14078,7.82614 0.37502,3.21298 5.7418,0 5.54516,2.91022 -0.19663,2.91022 -6.01707,4.71928 -8.76998,10.02847 -2.75291,5.30919 -1.53376,12.70273 -1.53376,12.70273 z"
               id="path978"
               sodipodi:nodetypes="csssssssssssssssssssssssscc" />
            <ellipse
               style="fill:#009f01;fill-opacity:1;stroke:#000000;stroke-width:0.500086;stroke-linecap:round;stroke-dasharray:none"
               id="path1137"
               cx="45.177959"
               cy="345.82547"
               rx="1.1423771"
               ry="2.3615656"
               transform="matrix(0.58227941,-0.81298874,0.82806436,0.56063304,0,0)" />
            <path
               style="fill:#000000;fill-opacity:1;stroke:#000000;stroke-width:0.1;stroke-linecap:round;stroke-dasharray:none"
               d="m 312.61296,145.47179 c 0,0 -0.11801,-10.38241 -0.2753,-18.24788 -0.15732,-7.86546 -0.2753,-28.66962 -0.2753,-28.66962 0,0 0.66857,15.5343 0.70789,23.28178 0.0394,7.74748 0.35396,23.63572 0.35396,23.63572 z"
               id="path1763" />
            <path
               style="fill:#000000;fill-opacity:1;stroke:#000000;stroke-width:0.1;stroke-linecap:round;stroke-dasharray:none"
               d="m 312.62452,128.47583 c 0,0 0.70914,0.12514 4.1852,-0.79254 3.47607,-0.91769 4.11568,-1.15406 4.11568,-1.05673 0,0.0973 -2.64183,1.09844 -4.67184,1.66852 -2.03004,0.57007 -3.65685,0.76473 -3.65685,0.76473 z"
               id="path1819"
               sodipodi:nodetypes="cssscc" />
            <path
               style="fill:#000000;fill-opacity:1;stroke:#000000;stroke-width:0.1;stroke-linecap:round;stroke-dasharray:none"
               d="m 312.39374,118.56739 c 0,0 0.30257,0.14019 3.71542,-0.99014 3.41286,-1.13032 4.03667,-1.40568 4.04267,-1.30854 0.006,0.0971 -2.56906,1.25927 -4.56005,1.95346 -1.99102,0.69418 -3.18978,0.9298 -3.18978,0.9298 z"
               id="path1821"
               sodipodi:nodetypes="cssscc" />
            <path
               style="fill:#000000;fill-opacity:1;stroke:#000000;stroke-width:0.1;stroke-linecap:round;stroke-dasharray:none"
               d="m 312.38814,110.35348 c 0,0 -1.14096,0.48266 2.13532,-0.99758 3.2763,-1.48025 3.86797,-1.81919 3.88408,-1.72321 0.0161,0.096 -2.42365,1.52045 -4.33134,2.41859 -1.90773,0.89813 -1.75789,0.90359 -1.75789,0.90359 z"
               id="path1823"
               sodipodi:nodetypes="cssscc" />
            <path
               style="fill:#000000;fill-opacity:1;stroke:#000000;stroke-width:0.1;stroke-linecap:round;stroke-dasharray:none"
               d="m 312.04027,109.29164 c 0,0 1.14096,0.48266 -2.13532,-0.99758 -3.2763,-1.48025 -3.86797,-1.81919 -3.88408,-1.72321 -0.0161,0.096 2.42365,1.52045 4.33134,2.41859 1.90773,0.89813 1.75789,0.90359 1.75789,0.90359 z"
               id="path1825"
               sodipodi:nodetypes="cssscc" />
            <path
               style="fill:#000000;fill-opacity:1;stroke:#000000;stroke-width:0.1;stroke-linecap:round;stroke-dasharray:none"
               d="m 312.48179,117.70219 c 0,0 -0.30257,0.14019 -3.71542,-0.99014 -3.41286,-1.13032 -4.03667,-1.40568 -4.04267,-1.30854 -0.006,0.0971 2.56906,1.25927 4.56005,1.95346 1.99102,0.69418 3.18978,0.9298 3.18978,0.9298 z"
               id="path1827"
               sodipodi:nodetypes="cssscc" />
            <path
               style="fill:#000000;fill-opacity:1;stroke:#000000;stroke-width:0.1;stroke-linecap:round;stroke-dasharray:none"
               d="m 312.55446,126.65905 c 0,0 -0.29628,0.15303 -3.75446,-0.82993 -3.45818,-0.98295 -4.09322,-1.23132 -4.09505,-1.13401 -0.002,0.0973 2.62069,1.14797 4.63961,1.75615 2.01895,0.60818 3.22671,0.79219 3.22671,0.79219 z"
               id="path1829"
               sodipodi:nodetypes="cssscc" />
            <path
               style="fill:#000000;fill-opacity:1;stroke:#000000;stroke-width:0.1;stroke-linecap:round;stroke-dasharray:none"
               d="m 312.75293,135.4477 c 0,0 -0.28396,0.17485 -3.80618,-0.54568 -3.52222,-0.72052 -4.17412,-0.92051 -4.16864,-0.82333 0.005,0.0972 2.69949,0.94795 4.75838,1.40282 2.05891,0.45487 3.27708,0.54768 3.27708,0.54768 z"
               id="path1831"
               sodipodi:nodetypes="cssscc" />
            <path
               id="path1849"
               style="fill:#000000;fill-opacity:1;stroke:#000000;stroke-width:0.1;stroke-linecap:round;stroke-dasharray:none"
               d="m 318.21675,136.43818 c -0.16995,-0.007 -1.03984,0.27396 -4.0814,1.07694 -0.51754,0.13663 -0.97242,0.2494 -1.37408,0.34365 l 0.009,0.48162 c 0.26004,-0.0645 0.53038,-0.13525 0.80874,-0.21342 2.03001,-0.57008 4.67207,-1.57133 4.67207,-1.66863 0,-0.0122 -0.0103,-0.0191 -0.0346,-0.0202 z" />
            <path
               id="path1854"
               style="fill:#000000;fill-opacity:1;stroke:#000000;stroke-width:0.1;stroke-linecap:round;stroke-dasharray:none"
               d="m 317.06385,132.18831 c -0.20869,-1.8e-4 -1.13146,0.23953 -4.11499,0.86042 -0.0826,0.0172 -0.16287,0.0334 -0.24237,0.0496 l -0.0212,0.45682 c 2.00468,-0.4741 4.42482,-1.25197 4.4297,-1.34411 6.4e-4,-0.0121 -0.009,-0.0192 -0.0331,-0.0217 h -5.2e-4 c -0.005,-4.7e-4 -0.011,-10e-4 -0.0176,-10e-4 z" />
            <path
               id="path1859"
               style="fill:#000000;fill-opacity:1;stroke:#000000;stroke-width:0.1;stroke-linecap:round;stroke-dasharray:none"
               d="m 316.10692,121.45169 c -0.25694,0.0225 -1.06533,0.22513 -3.54642,0.71752 l 0.0365,0.41543 c 1.80471,-0.44662 3.60198,-1.03058 3.60719,-1.11193 -5e-5,-0.012 -0.009,-0.0192 -0.0331,-0.022 l -5.1e-4,5e-5 c -0.005,-5.2e-4 -0.0106,-0.001 -0.0173,-0.002 l 4e-5,5.2e-4 c -0.013,-1.6e-4 -0.0285,4.4e-4 -0.0465,0.002 z" />
            <path
               id="path1883"
               style="fill:#000000;fill-opacity:1;stroke:#000000;stroke-width:0.1;stroke-linecap:round;stroke-dasharray:none"
               d="m 315.83068,113.13946 c -0.2528,0.0511 -1.03333,0.34328 -3.44347,1.11106 l 0.0829,0.40871 c 1.74318,-0.64638 3.46354,-1.42839 3.45959,-1.50981 -0.001,-0.012 -0.0108,-0.0181 -0.0353,-0.0181 l -5e-4,1e-4 c -0.005,6e-5 -0.0107,1.3e-4 -0.0174,4.6e-4 l 10e-5,5.1e-4 c -0.0129,0.002 -0.0282,0.004 -0.046,0.007 z" />
            <path
               id="path1885"
               style="fill:#000000;fill-opacity:1;stroke:#000000;stroke-width:0.1;stroke-linecap:round;stroke-dasharray:none"
               d="m 315.24691,105.66228 c -0.003,2e-5 -0.005,2.8e-4 -0.008,5.2e-4 h -5.2e-4 c -0.005,4.5e-4 -0.0104,10e-4 -0.017,0.002 v 5.1e-4 c -0.0127,0.003 -0.028,0.006 -0.0455,0.0109 v -5.2e-4 c -0.23239,0.0662 -0.91027,0.37984 -2.92178,1.20406 l 0.004,0.42788 c 1.57281,-0.74456 3.02758,-1.55351 3.0179,-1.62936 -0.002,-0.0104 -0.0101,-0.0161 -0.0284,-0.016 z" />
            <path
               id="path1890"
               style="fill:#000000;fill-opacity:1;stroke:#000000;stroke-width:0.1;stroke-linecap:round;stroke-dasharray:none"
               d="m 309.9356,104.37864 c -0.0138,3.3e-4 -0.0201,0.005 -0.0227,0.0145 -0.0122,0.0644 1.01705,0.73092 2.27169,1.44746 l -0.0119,-0.39791 c -1.43362,-0.69742 -1.96052,-0.97609 -2.15956,-1.04593 v 5.2e-4 c -0.0172,-0.006 -0.0325,-0.01 -0.045,-0.014 -0.007,-0.001 -0.0115,-0.002 -0.0165,-0.003 h -5.1e-4 c -0.003,-4.2e-4 -0.005,-8.3e-4 -0.008,-0.001 l -5.2e-4,-5.2e-4 c -0.002,-1.5e-4 -0.005,-5e-5 -0.007,0 z" />
            <path
               id="path1895"
               style="fill:#000000;fill-opacity:1;stroke:#000000;stroke-width:0.1;stroke-linecap:round;stroke-dasharray:none"
               d="m 308.86014,114.51592 c 0.2528,0.0511 1.03333,0.34328 3.44347,1.11106 l -0.0829,0.40871 c -1.74318,-0.64638 -3.46354,-1.42839 -3.45959,-1.50981 10e-4,-0.012 0.0108,-0.0181 0.0353,-0.0181 l 5e-4,1e-4 c 0.005,6e-5 0.0107,1.3e-4 0.0174,4.6e-4 l -1e-4,5.1e-4 c 0.0129,0.002 0.0282,0.004 0.046,0.007 z" />
            <path
               id="path1897"
               style="fill:#000000;fill-opacity:1;stroke:#000000;stroke-width:0.1;stroke-linecap:round;stroke-dasharray:none"
               d="m 309.01745,122.65668 c 0.2528,0.0511 1.03333,0.34328 3.44347,1.11106 l -0.0829,0.40871 c -1.74318,-0.64638 -3.46354,-1.42839 -3.45959,-1.50981 10e-4,-0.012 0.0108,-0.0181 0.0353,-0.0181 l 5e-4,1e-4 c 0.005,6e-5 0.0107,1.3e-4 0.0174,4.6e-4 l -1e-4,5.1e-4 c 0.0129,0.002 0.0282,0.004 0.046,0.007 z" />
            <path
               id="path1899"
               style="fill:#000000;fill-opacity:1;stroke:#000000;stroke-width:0.1;stroke-linecap:round;stroke-dasharray:none"
               d="m 309.13543,131.26937 c 0.2528,0.0511 1.03333,0.34328 3.44347,1.11106 l -0.0829,0.40871 c -1.74318,-0.64638 -3.46354,-1.42839 -3.45959,-1.50981 0.001,-0.012 0.0108,-0.0181 0.0353,-0.0181 l 5e-4,10e-5 c 0.005,6e-5 0.0107,1.3e-4 0.0174,4.6e-4 l -10e-5,5.1e-4 c 0.0129,0.002 0.0282,0.004 0.046,0.007 z" />
            <path
               id="path1901"
               style="fill:#000000;fill-opacity:1;stroke:#000000;stroke-width:0.1;stroke-linecap:round;stroke-dasharray:none"
               d="m 310.38054,139.75121 c -0.0138,3.3e-4 -0.0201,0.005 -0.0227,0.0145 -0.0122,0.0644 1.01705,0.73092 2.27169,1.44746 l -0.0119,-0.39791 c -1.43362,-0.69742 -1.96052,-0.97609 -2.15956,-1.04593 v 5.2e-4 c -0.0172,-0.006 -0.0325,-0.01 -0.045,-0.014 -0.007,-0.001 -0.0115,-0.002 -0.0165,-0.003 h -5.1e-4 c -0.003,-4.2e-4 -0.005,-8.3e-4 -0.008,-0.001 l -5.2e-4,-5.2e-4 c -0.002,-1.5e-4 -0.005,-5e-5 -0.007,0 z" />
          </g>
        </g>
        <g
           id="g3363"
           transform="translate(-39.25842,86.205509)">
          <g
             id="g3319"
             transform="translate(-0.03024869,-86.380546)"
             style="fill:#000000">
            <path
               style="fill:#000000;fill-opacity:1;stroke:#000000;stroke-width:0.499999;stroke-linecap:round;stroke-dasharray:none"
               d="m 310.72523,155.57892 c 0,0 1.06186,-11.56224 -2.24165,-15.18035 -3.30351,-3.61812 -7.70816,-5.74179 -6.80363,-8.0621 0.90453,-2.32032 5.15189,0.27529 5.85978,-2.04503 0.70789,-2.32031 -7.58549,-3.3292 -7.39354,-6.52833 0.23597,-3.93273 6.65453,0.14922 7.39354,-3.10686 0.70982,-3.12745 -4.62136,-2.44268 -6.98597,-3.81781 -0.89912,-0.52289 -1.30204,-1.64638 -0.87951,-2.94649 1.53376,-4.71928 6.5677,0.55059 7.35423,-1.37646 0.31087,-0.76165 0.15874,-1.52577 -1.39697,-2.39339 -2.38037,-1.32752 -6.51719,-2.9501 -5.32803,-5.59006 1.96637,-4.36534 5.85978,-0.23596 7.82614,-1.25847 1.96638,-1.02251 -4.20033,-8.270201 3.46083,-8.494704 6.5137,-0.190877 5.39121,3.301442 3.74485,6.588984 -0.57406,1.14633 -0.63841,2.49115 -0.40205,2.73159 1.21218,1.23308 2.60165,-0.71917 4.15386,-1.6959 1.36864,-0.86122 2.88486,-0.844 4.1748,1.11553 2.42059,3.67707 -1.46246,4.82179 -3.70904,5.93538 -1.26316,0.62612 -1.77047,1.44695 -1.55207,2.07786 1.22475,3.53795 7.21349,-3.72026 9.00594,1.69107 2.31927,7.00181 -8.96662,5.34852 -8.06209,8.77 0.90453,3.42148 7.41621,-3.42163 8.49471,1.7304 1.36853,6.53755 -8.37944,5.78143 -8.14078,7.82614 0.37502,3.21298 5.7418,0 5.54516,2.91022 -0.19663,2.91022 -6.01707,4.71928 -8.76998,10.02847 -2.75291,5.30919 -1.53376,12.70273 -1.53376,12.70273 z"
               id="path3279"
               sodipodi:nodetypes="csssssssssssssssssssssssscc" />
            <ellipse
               style="fill:#000000;fill-opacity:1;stroke:#000000;stroke-width:0.500086;stroke-linecap:round;stroke-dasharray:none"
               id="ellipse3281"
               cx="45.177959"
               cy="345.82547"
               rx="1.1423771"
               ry="2.3615656"
               transform="matrix(0.58227941,-0.81298874,0.82806436,0.56063304,0,0)" />
            <path
               style="fill:#000000;fill-opacity:1;stroke:#000000;stroke-width:0.1;stroke-linecap:round;stroke-dasharray:none"
               d="m 312.61296,145.47179 c 0,0 -0.11801,-10.38241 -0.2753,-18.24788 -0.15732,-7.86546 -0.2753,-28.66962 -0.2753,-28.66962 0,0 0.66857,15.5343 0.70789,23.28178 0.0394,7.74748 0.35396,23.63572 0.35396,23.63572 z"
               id="path3283" />
            <path
               style="fill:#000000;fill-opacity:1;stroke:#000000;stroke-width:0.1;stroke-linecap:round;stroke-dasharray:none"
               d="m 312.62452,128.47583 c 0,0 0.70914,0.12514 4.1852,-0.79254 3.47607,-0.91769 4.11568,-1.15406 4.11568,-1.05673 0,0.0973 -2.64183,1.09844 -4.67184,1.66852 -2.03004,0.57007 -3.65685,0.76473 -3.65685,0.76473 z"
               id="path3285"
               sodipodi:nodetypes="cssscc" />
            <path
               style="fill:#000000;fill-opacity:1;stroke:#000000;stroke-width:0.1;stroke-linecap:round;stroke-dasharray:none"
               d="m 312.39374,118.56739 c 0,0 0.30257,0.14019 3.71542,-0.99014 3.41286,-1.13032 4.03667,-1.40568 4.04267,-1.30854 0.006,0.0971 -2.56906,1.25927 -4.56005,1.95346 -1.99102,0.69418 -3.18978,0.9298 -3.18978,0.9298 z"
               id="path3287"
               sodipodi:nodetypes="cssscc" />
            <path
               style="fill:#000000;fill-opacity:1;stroke:#000000;stroke-width:0.1;stroke-linecap:round;stroke-dasharray:none"
               d="m 312.38814,110.35348 c 0,0 -1.14096,0.48266 2.13532,-0.99758 3.2763,-1.48025 3.86797,-1.81919 3.88408,-1.72321 0.0161,0.096 -2.42365,1.52045 -4.33134,2.41859 -1.90773,0.89813 -1.75789,0.90359 -1.75789,0.90359 z"
               id="path3289"
               sodipodi:nodetypes="cssscc" />
            <path
               style="fill:#000000;fill-opacity:1;stroke:#000000;stroke-width:0.1;stroke-linecap:round;stroke-dasharray:none"
               d="m 312.04027,109.29164 c 0,0 1.14096,0.48266 -2.13532,-0.99758 -3.2763,-1.48025 -3.86797,-1.81919 -3.88408,-1.72321 -0.0161,0.096 2.42365,1.52045 4.33134,2.41859 1.90773,0.89813 1.75789,0.90359 1.75789,0.90359 z"
               id="path3291"
               sodipodi:nodetypes="cssscc" />
            <path
               style="fill:#000000;fill-opacity:1;stroke:#000000;stroke-width:0.1;stroke-linecap:round;stroke-dasharray:none"
               d="m 312.48179,117.70219 c 0,0 -0.30257,0.14019 -3.71542,-0.99014 -3.41286,-1.13032 -4.03667,-1.40568 -4.04267,-1.30854 -0.006,0.0971 2.56906,1.25927 4.56005,1.95346 1.99102,0.69418 3.18978,0.9298 3.18978,0.9298 z"
               id="path3293"
               sodipodi:nodetypes="cssscc" />
            <path
               style="fill:#000000;fill-opacity:1;stroke:#000000;stroke-width:0.1;stroke-linecap:round;stroke-dasharray:none"
               d="m 312.55446,126.65905 c 0,0 -0.29628,0.15303 -3.75446,-0.82993 -3.45818,-0.98295 -4.09322,-1.23132 -4.09505,-1.13401 -0.002,0.0973 2.62069,1.14797 4.63961,1.75615 2.01895,0.60818 3.22671,0.79219 3.22671,0.79219 z"
               id="path3295"
               sodipodi:nodetypes="cssscc" />
            <path
               style="fill:#000000;fill-opacity:1;stroke:#000000;stroke-width:0.1;stroke-linecap:round;stroke-dasharray:none"
               d="m 312.75293,135.4477 c 0,0 -0.28396,0.17485 -3.80618,-0.54568 -3.52222,-0.72052 -4.17412,-0.92051 -4.16864,-0.82333 0.005,0.0972 2.69949,0.94795 4.75838,1.40282 2.05891,0.45487 3.27708,0.54768 3.27708,0.54768 z"
               id="path3297"
               sodipodi:nodetypes="cssscc" />
            <path
               id="path3299"
               style="fill:#000000;fill-opacity:1;stroke:#000000;stroke-width:0.1;stroke-linecap:round;stroke-dasharray:none"
               d="m 318.21675,136.43818 c -0.16995,-0.007 -1.03984,0.27396 -4.0814,1.07694 -0.51754,0.13663 -0.97242,0.2494 -1.37408,0.34365 l 0.009,0.48162 c 0.26004,-0.0645 0.53038,-0.13525 0.80874,-0.21342 2.03001,-0.57008 4.67207,-1.57133 4.67207,-1.66863 0,-0.0122 -0.0103,-0.0191 -0.0346,-0.0202 z" />
            <path
               id="path3301"
               style="fill:#000000;fill-opacity:1;stroke:#000000;stroke-width:0.1;stroke-linecap:round;stroke-dasharray:none"
               d="m 317.06385,132.18831 c -0.20869,-1.8e-4 -1.13146,0.23953 -4.11499,0.86042 -0.0826,0.0172 -0.16287,0.0334 -0.24237,0.0496 l -0.0212,0.45682 c 2.00468,-0.4741 4.42482,-1.25197 4.4297,-1.34411 6.4e-4,-0.0121 -0.009,-0.0192 -0.0331,-0.0217 h -5.2e-4 c -0.005,-4.7e-4 -0.011,-10e-4 -0.0176,-10e-4 z" />
            <path
               id="path3303"
               style="fill:#000000;fill-opacity:1;stroke:#000000;stroke-width:0.1;stroke-linecap:round;stroke-dasharray:none"
               d="m 316.10692,121.45169 c -0.25694,0.0225 -1.06533,0.22513 -3.54642,0.71752 l 0.0365,0.41543 c 1.80471,-0.44662 3.60198,-1.03058 3.60719,-1.11193 -5e-5,-0.012 -0.009,-0.0192 -0.0331,-0.022 l -5.1e-4,5e-5 c -0.005,-5.2e-4 -0.0106,-0.001 -0.0173,-0.002 l 4e-5,5.2e-4 c -0.013,-1.6e-4 -0.0285,4.4e-4 -0.0465,0.002 z" />
            <path
               id="path3305"
               style="fill:#000000;fill-opacity:1;stroke:#000000;stroke-width:0.1;stroke-linecap:round;stroke-dasharray:none"
               d="m 315.83068,113.13946 c -0.2528,0.0511 -1.03333,0.34328 -3.44347,1.11106 l 0.0829,0.40871 c 1.74318,-0.64638 3.46354,-1.42839 3.45959,-1.50981 -0.001,-0.012 -0.0108,-0.0181 -0.0353,-0.0181 l -5e-4,1e-4 c -0.005,6e-5 -0.0107,1.3e-4 -0.0174,4.6e-4 l 10e-5,5.1e-4 c -0.0129,0.002 -0.0282,0.004 -0.046,0.007 z" />
            <path
               id="path3307"
               style="fill:#000000;fill-opacity:1;stroke:#000000;stroke-width:0.1;stroke-linecap:round;stroke-dasharray:none"
               d="m 315.24691,105.66228 c -0.003,2e-5 -0.005,2.8e-4 -0.008,5.2e-4 h -5.2e-4 c -0.005,4.5e-4 -0.0104,10e-4 -0.017,0.002 v 5.1e-4 c -0.0127,0.003 -0.028,0.006 -0.0455,0.0109 v -5.2e-4 c -0.23239,0.0662 -0.91027,0.37984 -2.92178,1.20406 l 0.004,0.42788 c 1.57281,-0.74456 3.02758,-1.55351 3.0179,-1.62936 -0.002,-0.0104 -0.0101,-0.0161 -0.0284,-0.016 z" />
            <path
               id="path3309"
               style="fill:#000000;fill-opacity:1;stroke:#000000;stroke-width:0.1;stroke-linecap:round;stroke-dasharray:none"
               d="m 309.9356,104.37864 c -0.0138,3.3e-4 -0.0201,0.005 -0.0227,0.0145 -0.0122,0.0644 1.01705,0.73092 2.27169,1.44746 l -0.0119,-0.39791 c -1.43362,-0.69742 -1.96052,-0.97609 -2.15956,-1.04593 v 5.2e-4 c -0.0172,-0.006 -0.0325,-0.01 -0.045,-0.014 -0.007,-0.001 -0.0115,-0.002 -0.0165,-0.003 h -5.1e-4 c -0.003,-4.2e-4 -0.005,-8.3e-4 -0.008,-0.001 l -5.2e-4,-5.2e-4 c -0.002,-1.5e-4 -0.005,-5e-5 -0.007,0 z" />
            <path
               id="path3311"
               style="fill:#000000;fill-opacity:1;stroke:#000000;stroke-width:0.1;stroke-linecap:round;stroke-dasharray:none"
               d="m 308.86014,114.51592 c 0.2528,0.0511 1.03333,0.34328 3.44347,1.11106 l -0.0829,0.40871 c -1.74318,-0.64638 -3.46354,-1.42839 -3.45959,-1.50981 10e-4,-0.012 0.0108,-0.0181 0.0353,-0.0181 l 5e-4,1e-4 c 0.005,6e-5 0.0107,1.3e-4 0.0174,4.6e-4 l -1e-4,5.1e-4 c 0.0129,0.002 0.0282,0.004 0.046,0.007 z" />
            <path
               id="path3313"
               style="fill:#000000;fill-opacity:1;stroke:#000000;stroke-width:0.1;stroke-linecap:round;stroke-dasharray:none"
               d="m 309.01745,122.65668 c 0.2528,0.0511 1.03333,0.34328 3.44347,1.11106 l -0.0829,0.40871 c -1.74318,-0.64638 -3.46354,-1.42839 -3.45959,-1.50981 10e-4,-0.012 0.0108,-0.0181 0.0353,-0.0181 l 5e-4,1e-4 c 0.005,6e-5 0.0107,1.3e-4 0.0174,4.6e-4 l -1e-4,5.1e-4 c 0.0129,0.002 0.0282,0.004 0.046,0.007 z" />
            <path
               id="path3315"
               style="fill:#000000;fill-opacity:1;stroke:#000000;stroke-width:0.1;stroke-linecap:round;stroke-dasharray:none"
               d="m 309.13543,131.26937 c 0.2528,0.0511 1.03333,0.34328 3.44347,1.11106 l -0.0829,0.40871 c -1.74318,-0.64638 -3.46354,-1.42839 -3.45959,-1.50981 0.001,-0.012 0.0108,-0.0181 0.0353,-0.0181 l 5e-4,10e-5 c 0.005,6e-5 0.0107,1.3e-4 0.0174,4.6e-4 l -10e-5,5.1e-4 c 0.0129,0.002 0.0282,0.004 0.046,0.007 z" />
            <path
               id="path3317"
               style="fill:#000000;fill-opacity:1;stroke:#000000;stroke-width:0.1;stroke-linecap:round;stroke-dasharray:none"
               d="m 310.38054,139.75121 c -0.0138,3.3e-4 -0.0201,0.005 -0.0227,0.0145 -0.0122,0.0644 1.01705,0.73092 2.27169,1.44746 l -0.0119,-0.39791 c -1.43362,-0.69742 -1.96052,-0.97609 -2.15956,-1.04593 v 5.2e-4 c -0.0172,-0.006 -0.0325,-0.01 -0.045,-0.014 -0.007,-0.001 -0.0115,-0.002 -0.0165,-0.003 h -5.1e-4 c -0.003,-4.2e-4 -0.005,-8.3e-4 -0.008,-0.001 l -5.2e-4,-5.2e-4 c -0.002,-1.5e-4 -0.005,-5e-5 -0.007,0 z" />
          </g>
          <g
             id="g3361"
             transform="translate(0.49891798,-86.380546)">
            <path
               style="fill:#009e01;fill-opacity:1;stroke:#000000;stroke-width:0.499999;stroke-linecap:round;stroke-dasharray:none"
               d="m 310.72523,155.57892 c 0,0 1.06186,-11.56224 -2.24165,-15.18035 -3.30351,-3.61812 -7.70816,-5.74179 -6.80363,-8.0621 0.90453,-2.32032 5.15189,0.27529 5.85978,-2.04503 0.70789,-2.32031 -7.58549,-3.3292 -7.39354,-6.52833 0.23597,-3.93273 6.65453,0.14922 7.39354,-3.10686 0.70982,-3.12745 -4.62136,-2.44268 -6.98597,-3.81781 -0.89912,-0.52289 -1.30204,-1.64638 -0.87951,-2.94649 1.53376,-4.71928 6.5677,0.55059 7.35423,-1.37646 0.31087,-0.76165 0.15874,-1.52577 -1.39697,-2.39339 -2.38037,-1.32752 -6.51719,-2.9501 -5.32803,-5.59006 1.96637,-4.36534 5.85978,-0.23596 7.82614,-1.25847 1.96638,-1.02251 -4.20033,-8.270201 3.46083,-8.494704 6.5137,-0.190877 5.39121,3.301442 3.74485,6.588984 -0.57406,1.14633 -0.63841,2.49115 -0.40205,2.73159 1.21218,1.23308 2.60165,-0.71917 4.15386,-1.6959 1.36864,-0.86122 2.88486,-0.844 4.1748,1.11553 2.42059,3.67707 -1.46246,4.82179 -3.70904,5.93538 -1.26316,0.62612 -1.77047,1.44695 -1.55207,2.07786 1.22475,3.53795 7.21349,-3.72026 9.00594,1.69107 2.31927,7.00181 -8.96662,5.34852 -8.06209,8.77 0.90453,3.42148 7.41621,-3.42163 8.49471,1.7304 1.36853,6.53755 -8.37944,5.78143 -8.14078,7.82614 0.37502,3.21298 5.7418,0 5.54516,2.91022 -0.19663,2.91022 -6.01707,4.71928 -8.76998,10.02847 -2.75291,5.30919 -1.53376,12.70273 -1.53376,12.70273 z"
               id="path3321"
               sodipodi:nodetypes="csssssssssssssssssssssssscc" />
            <ellipse
               style="fill:#009f01;fill-opacity:1;stroke:#000000;stroke-width:0.500086;stroke-linecap:round;stroke-dasharray:none"
               id="ellipse3323"
               cx="45.177959"
               cy="345.82547"
               rx="1.1423771"
               ry="2.3615656"
               transform="matrix(0.58227941,-0.81298874,0.82806436,0.56063304,0,0)" />
            <path
               style="fill:#000000;fill-opacity:1;stroke:#000000;stroke-width:0.1;stroke-linecap:round;stroke-dasharray:none"
               d="m 312.61296,145.47179 c 0,0 -0.11801,-10.38241 -0.2753,-18.24788 -0.15732,-7.86546 -0.2753,-28.66962 -0.2753,-28.66962 0,0 0.66857,15.5343 0.70789,23.28178 0.0394,7.74748 0.35396,23.63572 0.35396,23.63572 z"
               id="path3325" />
            <path
               style="fill:#000000;fill-opacity:1;stroke:#000000;stroke-width:0.1;stroke-linecap:round;stroke-dasharray:none"
               d="m 312.62452,128.47583 c 0,0 0.70914,0.12514 4.1852,-0.79254 3.47607,-0.91769 4.11568,-1.15406 4.11568,-1.05673 0,0.0973 -2.64183,1.09844 -4.67184,1.66852 -2.03004,0.57007 -3.65685,0.76473 -3.65685,0.76473 z"
               id="path3327"
               sodipodi:nodetypes="cssscc" />
            <path
               style="fill:#000000;fill-opacity:1;stroke:#000000;stroke-width:0.1;stroke-linecap:round;stroke-dasharray:none"
               d="m 312.39374,118.56739 c 0,0 0.30257,0.14019 3.71542,-0.99014 3.41286,-1.13032 4.03667,-1.40568 4.04267,-1.30854 0.006,0.0971 -2.56906,1.25927 -4.56005,1.95346 -1.99102,0.69418 -3.18978,0.9298 -3.18978,0.9298 z"
               id="path3329"
               sodipodi:nodetypes="cssscc" />
            <path
               style="fill:#000000;fill-opacity:1;stroke:#000000;stroke-width:0.1;stroke-linecap:round;stroke-dasharray:none"
               d="m 312.38814,110.35348 c 0,0 -1.14096,0.48266 2.13532,-0.99758 3.2763,-1.48025 3.86797,-1.81919 3.88408,-1.72321 0.0161,0.096 -2.42365,1.52045 -4.33134,2.41859 -1.90773,0.89813 -1.75789,0.90359 -1.75789,0.90359 z"
               id="path3331"
               sodipodi:nodetypes="cssscc" />
            <path
               style="fill:#000000;fill-opacity:1;stroke:#000000;stroke-width:0.1;stroke-linecap:round;stroke-dasharray:none"
               d="m 312.04027,109.29164 c 0,0 1.14096,0.48266 -2.13532,-0.99758 -3.2763,-1.48025 -3.86797,-1.81919 -3.88408,-1.72321 -0.0161,0.096 2.42365,1.52045 4.33134,2.41859 1.90773,0.89813 1.75789,0.90359 1.75789,0.90359 z"
               id="path3333"
               sodipodi:nodetypes="cssscc" />
            <path
               style="fill:#000000;fill-opacity:1;stroke:#000000;stroke-width:0.1;stroke-linecap:round;stroke-dasharray:none"
               d="m 312.48179,117.70219 c 0,0 -0.30257,0.14019 -3.71542,-0.99014 -3.41286,-1.13032 -4.03667,-1.40568 -4.04267,-1.30854 -0.006,0.0971 2.56906,1.25927 4.56005,1.95346 1.99102,0.69418 3.18978,0.9298 3.18978,0.9298 z"
               id="path3335"
               sodipodi:nodetypes="cssscc" />
            <path
               style="fill:#000000;fill-opacity:1;stroke:#000000;stroke-width:0.1;stroke-linecap:round;stroke-dasharray:none"
               d="m 312.55446,126.65905 c 0,0 -0.29628,0.15303 -3.75446,-0.82993 -3.45818,-0.98295 -4.09322,-1.23132 -4.09505,-1.13401 -0.002,0.0973 2.62069,1.14797 4.63961,1.75615 2.01895,0.60818 3.22671,0.79219 3.22671,0.79219 z"
               id="path3337"
               sodipodi:nodetypes="cssscc" />
            <path
               style="fill:#000000;fill-opacity:1;stroke:#000000;stroke-width:0.1;stroke-linecap:round;stroke-dasharray:none"
               d="m 312.75293,135.4477 c 0,0 -0.28396,0.17485 -3.80618,-0.54568 -3.52222,-0.72052 -4.17412,-0.92051 -4.16864,-0.82333 0.005,0.0972 2.69949,0.94795 4.75838,1.40282 2.05891,0.45487 3.27708,0.54768 3.27708,0.54768 z"
               id="path3339"
               sodipodi:nodetypes="cssscc" />
            <path
               id="path3341"
               style="fill:#000000;fill-opacity:1;stroke:#000000;stroke-width:0.1;stroke-linecap:round;stroke-dasharray:none"
               d="m 318.21675,136.43818 c -0.16995,-0.007 -1.03984,0.27396 -4.0814,1.07694 -0.51754,0.13663 -0.97242,0.2494 -1.37408,0.34365 l 0.009,0.48162 c 0.26004,-0.0645 0.53038,-0.13525 0.80874,-0.21342 2.03001,-0.57008 4.67207,-1.57133 4.67207,-1.66863 0,-0.0122 -0.0103,-0.0191 -0.0346,-0.0202 z" />
            <path
               id="path3343"
               style="fill:#000000;fill-opacity:1;stroke:#000000;stroke-width:0.1;stroke-linecap:round;stroke-dasharray:none"
               d="m 317.06385,132.18831 c -0.20869,-1.8e-4 -1.13146,0.23953 -4.11499,0.86042 -0.0826,0.0172 -0.16287,0.0334 -0.24237,0.0496 l -0.0212,0.45682 c 2.00468,-0.4741 4.42482,-1.25197 4.4297,-1.34411 6.4e-4,-0.0121 -0.009,-0.0192 -0.0331,-0.0217 h -5.2e-4 c -0.005,-4.7e-4 -0.011,-10e-4 -0.0176,-10e-4 z" />
            <path
               id="path3345"
               style="fill:#000000;fill-opacity:1;stroke:#000000;stroke-width:0.1;stroke-linecap:round;stroke-dasharray:none"
               d="m 316.10692,121.45169 c -0.25694,0.0225 -1.06533,0.22513 -3.54642,0.71752 l 0.0365,0.41543 c 1.80471,-0.44662 3.60198,-1.03058 3.60719,-1.11193 -5e-5,-0.012 -0.009,-0.0192 -0.0331,-0.022 l -5.1e-4,5e-5 c -0.005,-5.2e-4 -0.0106,-0.001 -0.0173,-0.002 l 4e-5,5.2e-4 c -0.013,-1.6e-4 -0.0285,4.4e-4 -0.0465,0.002 z" />
            <path
               id="path3347"
               style="fill:#000000;fill-opacity:1;stroke:#000000;stroke-width:0.1;stroke-linecap:round;stroke-dasharray:none"
               d="m 315.83068,113.13946 c -0.2528,0.0511 -1.03333,0.34328 -3.44347,1.11106 l 0.0829,0.40871 c 1.74318,-0.64638 3.46354,-1.42839 3.45959,-1.50981 -0.001,-0.012 -0.0108,-0.0181 -0.0353,-0.0181 l -5e-4,1e-4 c -0.005,6e-5 -0.0107,1.3e-4 -0.0174,4.6e-4 l 10e-5,5.1e-4 c -0.0129,0.002 -0.0282,0.004 -0.046,0.007 z" />
            <path
               id="path3349"
               style="fill:#000000;fill-opacity:1;stroke:#000000;stroke-width:0.1;stroke-linecap:round;stroke-dasharray:none"
               d="m 315.24691,105.66228 c -0.003,2e-5 -0.005,2.8e-4 -0.008,5.2e-4 h -5.2e-4 c -0.005,4.5e-4 -0.0104,10e-4 -0.017,0.002 v 5.1e-4 c -0.0127,0.003 -0.028,0.006 -0.0455,0.0109 v -5.2e-4 c -0.23239,0.0662 -0.91027,0.37984 -2.92178,1.20406 l 0.004,0.42788 c 1.57281,-0.74456 3.02758,-1.55351 3.0179,-1.62936 -0.002,-0.0104 -0.0101,-0.0161 -0.0284,-0.016 z" />
            <path
               id="path3351"
               style="fill:#000000;fill-opacity:1;stroke:#000000;stroke-width:0.1;stroke-linecap:round;stroke-dasharray:none"
               d="m 309.9356,104.37864 c -0.0138,3.3e-4 -0.0201,0.005 -0.0227,0.0145 -0.0122,0.0644 1.01705,0.73092 2.27169,1.44746 l -0.0119,-0.39791 c -1.43362,-0.69742 -1.96052,-0.97609 -2.15956,-1.04593 v 5.2e-4 c -0.0172,-0.006 -0.0325,-0.01 -0.045,-0.014 -0.007,-0.001 -0.0115,-0.002 -0.0165,-0.003 h -5.1e-4 c -0.003,-4.2e-4 -0.005,-8.3e-4 -0.008,-0.001 l -5.2e-4,-5.2e-4 c -0.002,-1.5e-4 -0.005,-5e-5 -0.007,0 z" />
            <path
               id="path3353"
               style="fill:#000000;fill-opacity:1;stroke:#000000;stroke-width:0.1;stroke-linecap:round;stroke-dasharray:none"
               d="m 308.86014,114.51592 c 0.2528,0.0511 1.03333,0.34328 3.44347,1.11106 l -0.0829,0.40871 c -1.74318,-0.64638 -3.46354,-1.42839 -3.45959,-1.50981 10e-4,-0.012 0.0108,-0.0181 0.0353,-0.0181 l 5e-4,1e-4 c 0.005,6e-5 0.0107,1.3e-4 0.0174,4.6e-4 l -1e-4,5.1e-4 c 0.0129,0.002 0.0282,0.004 0.046,0.007 z" />
            <path
               id="path3355"
               style="fill:#000000;fill-opacity:1;stroke:#000000;stroke-width:0.1;stroke-linecap:round;stroke-dasharray:none"
               d="m 309.01745,122.65668 c 0.2528,0.0511 1.03333,0.34328 3.44347,1.11106 l -0.0829,0.40871 c -1.74318,-0.64638 -3.46354,-1.42839 -3.45959,-1.50981 10e-4,-0.012 0.0108,-0.0181 0.0353,-0.0181 l 5e-4,1e-4 c 0.005,6e-5 0.0107,1.3e-4 0.0174,4.6e-4 l -1e-4,5.1e-4 c 0.0129,0.002 0.0282,0.004 0.046,0.007 z" />
            <path
               id="path3357"
               style="fill:#000000;fill-opacity:1;stroke:#000000;stroke-width:0.1;stroke-linecap:round;stroke-dasharray:none"
               d="m 309.13543,131.26937 c 0.2528,0.0511 1.03333,0.34328 3.44347,1.11106 l -0.0829,0.40871 c -1.74318,-0.64638 -3.46354,-1.42839 -3.45959,-1.50981 0.001,-0.012 0.0108,-0.0181 0.0353,-0.0181 l 5e-4,10e-5 c 0.005,6e-5 0.0107,1.3e-4 0.0174,4.6e-4 l -10e-5,5.1e-4 c 0.0129,0.002 0.0282,0.004 0.046,0.007 z" />
            <path
               id="path3359"
               style="fill:#000000;fill-opacity:1;stroke:#000000;stroke-width:0.1;stroke-linecap:round;stroke-dasharray:none"
               d="m 310.38054,139.75121 c -0.0138,3.3e-4 -0.0201,0.005 -0.0227,0.0145 -0.0122,0.0644 1.01705,0.73092 2.27169,1.44746 l -0.0119,-0.39791 c -1.43362,-0.69742 -1.96052,-0.97609 -2.15956,-1.04593 v 5.2e-4 c -0.0172,-0.006 -0.0325,-0.01 -0.045,-0.014 -0.007,-0.001 -0.0115,-0.002 -0.0165,-0.003 h -5.1e-4 c -0.003,-4.2e-4 -0.005,-8.3e-4 -0.008,-0.001 l -5.2e-4,-5.2e-4 c -0.002,-1.5e-4 -0.005,-5e-5 -0.007,0 z" />
          </g>
        </g>
        <g
           id="g3449"
           transform="translate(37.999923,86.205509)">
          <g
             id="g3405"
             transform="translate(-0.03024869,-86.380546)"
             style="fill:#000000">
            <path
               style="fill:#000000;fill-opacity:1;stroke:#000000;stroke-width:0.499999;stroke-linecap:round;stroke-dasharray:none"
               d="m 310.72523,155.57892 c 0,0 1.06186,-11.56224 -2.24165,-15.18035 -3.30351,-3.61812 -7.70816,-5.74179 -6.80363,-8.0621 0.90453,-2.32032 5.15189,0.27529 5.85978,-2.04503 0.70789,-2.32031 -7.58549,-3.3292 -7.39354,-6.52833 0.23597,-3.93273 6.65453,0.14922 7.39354,-3.10686 0.70982,-3.12745 -4.62136,-2.44268 -6.98597,-3.81781 -0.89912,-0.52289 -1.30204,-1.64638 -0.87951,-2.94649 1.53376,-4.71928 6.5677,0.55059 7.35423,-1.37646 0.31087,-0.76165 0.15874,-1.52577 -1.39697,-2.39339 -2.38037,-1.32752 -6.51719,-2.9501 -5.32803,-5.59006 1.96637,-4.36534 5.85978,-0.23596 7.82614,-1.25847 1.96638,-1.02251 -4.20033,-8.270201 3.46083,-8.494704 6.5137,-0.190877 5.39121,3.301442 3.74485,6.588984 -0.57406,1.14633 -0.63841,2.49115 -0.40205,2.73159 1.21218,1.23308 2.60165,-0.71917 4.15386,-1.6959 1.36864,-0.86122 2.88486,-0.844 4.1748,1.11553 2.42059,3.67707 -1.46246,4.82179 -3.70904,5.93538 -1.26316,0.62612 -1.77047,1.44695 -1.55207,2.07786 1.22475,3.53795 7.21349,-3.72026 9.00594,1.69107 2.31927,7.00181 -8.96662,5.34852 -8.06209,8.77 0.90453,3.42148 7.41621,-3.42163 8.49471,1.7304 1.36853,6.53755 -8.37944,5.78143 -8.14078,7.82614 0.37502,3.21298 5.7418,0 5.54516,2.91022 -0.19663,2.91022 -6.01707,4.71928 -8.76998,10.02847 -2.75291,5.30919 -1.53376,12.70273 -1.53376,12.70273 z"
               id="path3365"
               sodipodi:nodetypes="csssssssssssssssssssssssscc" />
            <ellipse
               style="fill:#000000;fill-opacity:1;stroke:#000000;stroke-width:0.500086;stroke-linecap:round;stroke-dasharray:none"
               id="ellipse3367"
               cx="45.177959"
               cy="345.82547"
               rx="1.1423771"
               ry="2.3615656"
               transform="matrix(0.58227941,-0.81298874,0.82806436,0.56063304,0,0)" />
            <path
               style="fill:#000000;fill-opacity:1;stroke:#000000;stroke-width:0.1;stroke-linecap:round;stroke-dasharray:none"
               d="m 312.61296,145.47179 c 0,0 -0.11801,-10.38241 -0.2753,-18.24788 -0.15732,-7.86546 -0.2753,-28.66962 -0.2753,-28.66962 0,0 0.66857,15.5343 0.70789,23.28178 0.0394,7.74748 0.35396,23.63572 0.35396,23.63572 z"
               id="path3369" />
            <path
               style="fill:#000000;fill-opacity:1;stroke:#000000;stroke-width:0.1;stroke-linecap:round;stroke-dasharray:none"
               d="m 312.62452,128.47583 c 0,0 0.70914,0.12514 4.1852,-0.79254 3.47607,-0.91769 4.11568,-1.15406 4.11568,-1.05673 0,0.0973 -2.64183,1.09844 -4.67184,1.66852 -2.03004,0.57007 -3.65685,0.76473 -3.65685,0.76473 z"
               id="path3371"
               sodipodi:nodetypes="cssscc" />
            <path
               style="fill:#000000;fill-opacity:1;stroke:#000000;stroke-width:0.1;stroke-linecap:round;stroke-dasharray:none"
               d="m 312.39374,118.56739 c 0,0 0.30257,0.14019 3.71542,-0.99014 3.41286,-1.13032 4.03667,-1.40568 4.04267,-1.30854 0.006,0.0971 -2.56906,1.25927 -4.56005,1.95346 -1.99102,0.69418 -3.18978,0.9298 -3.18978,0.9298 z"
               id="path3373"
               sodipodi:nodetypes="cssscc" />
            <path
               style="fill:#000000;fill-opacity:1;stroke:#000000;stroke-width:0.1;stroke-linecap:round;stroke-dasharray:none"
               d="m 312.38814,110.35348 c 0,0 -1.14096,0.48266 2.13532,-0.99758 3.2763,-1.48025 3.86797,-1.81919 3.88408,-1.72321 0.0161,0.096 -2.42365,1.52045 -4.33134,2.41859 -1.90773,0.89813 -1.75789,0.90359 -1.75789,0.90359 z"
               id="path3375"
               sodipodi:nodetypes="cssscc" />
            <path
               style="fill:#000000;fill-opacity:1;stroke:#000000;stroke-width:0.1;stroke-linecap:round;stroke-dasharray:none"
               d="m 312.04027,109.29164 c 0,0 1.14096,0.48266 -2.13532,-0.99758 -3.2763,-1.48025 -3.86797,-1.81919 -3.88408,-1.72321 -0.0161,0.096 2.42365,1.52045 4.33134,2.41859 1.90773,0.89813 1.75789,0.90359 1.75789,0.90359 z"
               id="path3377"
               sodipodi:nodetypes="cssscc" />
            <path
               style="fill:#000000;fill-opacity:1;stroke:#000000;stroke-width:0.1;stroke-linecap:round;stroke-dasharray:none"
               d="m 312.48179,117.70219 c 0,0 -0.30257,0.14019 -3.71542,-0.99014 -3.41286,-1.13032 -4.03667,-1.40568 -4.04267,-1.30854 -0.006,0.0971 2.56906,1.25927 4.56005,1.95346 1.99102,0.69418 3.18978,0.9298 3.18978,0.9298 z"
               id="path3379"
               sodipodi:nodetypes="cssscc" />
            <path
               style="fill:#000000;fill-opacity:1;stroke:#000000;stroke-width:0.1;stroke-linecap:round;stroke-dasharray:none"
               d="m 312.55446,126.65905 c 0,0 -0.29628,0.15303 -3.75446,-0.82993 -3.45818,-0.98295 -4.09322,-1.23132 -4.09505,-1.13401 -0.002,0.0973 2.62069,1.14797 4.63961,1.75615 2.01895,0.60818 3.22671,0.79219 3.22671,0.79219 z"
               id="path3381"
               sodipodi:nodetypes="cssscc" />
            <path
               style="fill:#000000;fill-opacity:1;stroke:#000000;stroke-width:0.1;stroke-linecap:round;stroke-dasharray:none"
               d="m 312.75293,135.4477 c 0,0 -0.28396,0.17485 -3.80618,-0.54568 -3.52222,-0.72052 -4.17412,-0.92051 -4.16864,-0.82333 0.005,0.0972 2.69949,0.94795 4.75838,1.40282 2.05891,0.45487 3.27708,0.54768 3.27708,0.54768 z"
               id="path3383"
               sodipodi:nodetypes="cssscc" />
            <path
               id="path3385"
               style="fill:#000000;fill-opacity:1;stroke:#000000;stroke-width:0.1;stroke-linecap:round;stroke-dasharray:none"
               d="m 318.21675,136.43818 c -0.16995,-0.007 -1.03984,0.27396 -4.0814,1.07694 -0.51754,0.13663 -0.97242,0.2494 -1.37408,0.34365 l 0.009,0.48162 c 0.26004,-0.0645 0.53038,-0.13525 0.80874,-0.21342 2.03001,-0.57008 4.67207,-1.57133 4.67207,-1.66863 0,-0.0122 -0.0103,-0.0191 -0.0346,-0.0202 z" />
            <path
               id="path3387"
               style="fill:#000000;fill-opacity:1;stroke:#000000;stroke-width:0.1;stroke-linecap:round;stroke-dasharray:none"
               d="m 317.06385,132.18831 c -0.20869,-1.8e-4 -1.13146,0.23953 -4.11499,0.86042 -0.0826,0.0172 -0.16287,0.0334 -0.24237,0.0496 l -0.0212,0.45682 c 2.00468,-0.4741 4.42482,-1.25197 4.4297,-1.34411 6.4e-4,-0.0121 -0.009,-0.0192 -0.0331,-0.0217 h -5.2e-4 c -0.005,-4.7e-4 -0.011,-10e-4 -0.0176,-10e-4 z" />
            <path
               id="path3389"
               style="fill:#000000;fill-opacity:1;stroke:#000000;stroke-width:0.1;stroke-linecap:round;stroke-dasharray:none"
               d="m 316.10692,121.45169 c -0.25694,0.0225 -1.06533,0.22513 -3.54642,0.71752 l 0.0365,0.41543 c 1.80471,-0.44662 3.60198,-1.03058 3.60719,-1.11193 -5e-5,-0.012 -0.009,-0.0192 -0.0331,-0.022 l -5.1e-4,5e-5 c -0.005,-5.2e-4 -0.0106,-0.001 -0.0173,-0.002 l 4e-5,5.2e-4 c -0.013,-1.6e-4 -0.0285,4.4e-4 -0.0465,0.002 z" />
            <path
               id="path3391"
               style="fill:#000000;fill-opacity:1;stroke:#000000;stroke-width:0.1;stroke-linecap:round;stroke-dasharray:none"
               d="m 315.83068,113.13946 c -0.2528,0.0511 -1.03333,0.34328 -3.44347,1.11106 l 0.0829,0.40871 c 1.74318,-0.64638 3.46354,-1.42839 3.45959,-1.50981 -0.001,-0.012 -0.0108,-0.0181 -0.0353,-0.0181 l -5e-4,1e-4 c -0.005,6e-5 -0.0107,1.3e-4 -0.0174,4.6e-4 l 10e-5,5.1e-4 c -0.0129,0.002 -0.0282,0.004 -0.046,0.007 z" />
            <path
               id="path3393"
               style="fill:#000000;fill-opacity:1;stroke:#000000;stroke-width:0.1;stroke-linecap:round;stroke-dasharray:none"
               d="m 315.24691,105.66228 c -0.003,2e-5 -0.005,2.8e-4 -0.008,5.2e-4 h -5.2e-4 c -0.005,4.5e-4 -0.0104,10e-4 -0.017,0.002 v 5.1e-4 c -0.0127,0.003 -0.028,0.006 -0.0455,0.0109 v -5.2e-4 c -0.23239,0.0662 -0.91027,0.37984 -2.92178,1.20406 l 0.004,0.42788 c 1.57281,-0.74456 3.02758,-1.55351 3.0179,-1.62936 -0.002,-0.0104 -0.0101,-0.0161 -0.0284,-0.016 z" />
            <path
               id="path3395"
               style="fill:#000000;fill-opacity:1;stroke:#000000;stroke-width:0.1;stroke-linecap:round;stroke-dasharray:none"
               d="m 309.9356,104.37864 c -0.0138,3.3e-4 -0.0201,0.005 -0.0227,0.0145 -0.0122,0.0644 1.01705,0.73092 2.27169,1.44746 l -0.0119,-0.39791 c -1.43362,-0.69742 -1.96052,-0.97609 -2.15956,-1.04593 v 5.2e-4 c -0.0172,-0.006 -0.0325,-0.01 -0.045,-0.014 -0.007,-0.001 -0.0115,-0.002 -0.0165,-0.003 h -5.1e-4 c -0.003,-4.2e-4 -0.005,-8.3e-4 -0.008,-0.001 l -5.2e-4,-5.2e-4 c -0.002,-1.5e-4 -0.005,-5e-5 -0.007,0 z" />
            <path
               id="path3397"
               style="fill:#000000;fill-opacity:1;stroke:#000000;stroke-width:0.1;stroke-linecap:round;stroke-dasharray:none"
               d="m 308.86014,114.51592 c 0.2528,0.0511 1.03333,0.34328 3.44347,1.11106 l -0.0829,0.40871 c -1.74318,-0.64638 -3.46354,-1.42839 -3.45959,-1.50981 10e-4,-0.012 0.0108,-0.0181 0.0353,-0.0181 l 5e-4,1e-4 c 0.005,6e-5 0.0107,1.3e-4 0.0174,4.6e-4 l -1e-4,5.1e-4 c 0.0129,0.002 0.0282,0.004 0.046,0.007 z" />
            <path
               id="path3399"
               style="fill:#000000;fill-opacity:1;stroke:#000000;stroke-width:0.1;stroke-linecap:round;stroke-dasharray:none"
               d="m 309.01745,122.65668 c 0.2528,0.0511 1.03333,0.34328 3.44347,1.11106 l -0.0829,0.40871 c -1.74318,-0.64638 -3.46354,-1.42839 -3.45959,-1.50981 10e-4,-0.012 0.0108,-0.0181 0.0353,-0.0181 l 5e-4,1e-4 c 0.005,6e-5 0.0107,1.3e-4 0.0174,4.6e-4 l -1e-4,5.1e-4 c 0.0129,0.002 0.0282,0.004 0.046,0.007 z" />
            <path
               id="path3401"
               style="fill:#000000;fill-opacity:1;stroke:#000000;stroke-width:0.1;stroke-linecap:round;stroke-dasharray:none"
               d="m 309.13543,131.26937 c 0.2528,0.0511 1.03333,0.34328 3.44347,1.11106 l -0.0829,0.40871 c -1.74318,-0.64638 -3.46354,-1.42839 -3.45959,-1.50981 0.001,-0.012 0.0108,-0.0181 0.0353,-0.0181 l 5e-4,10e-5 c 0.005,6e-5 0.0107,1.3e-4 0.0174,4.6e-4 l -10e-5,5.1e-4 c 0.0129,0.002 0.0282,0.004 0.046,0.007 z" />
            <path
               id="path3403"
               style="fill:#000000;fill-opacity:1;stroke:#000000;stroke-width:0.1;stroke-linecap:round;stroke-dasharray:none"
               d="m 310.38054,139.75121 c -0.0138,3.3e-4 -0.0201,0.005 -0.0227,0.0145 -0.0122,0.0644 1.01705,0.73092 2.27169,1.44746 l -0.0119,-0.39791 c -1.43362,-0.69742 -1.96052,-0.97609 -2.15956,-1.04593 v 5.2e-4 c -0.0172,-0.006 -0.0325,-0.01 -0.045,-0.014 -0.007,-0.001 -0.0115,-0.002 -0.0165,-0.003 h -5.1e-4 c -0.003,-4.2e-4 -0.005,-8.3e-4 -0.008,-0.001 l -5.2e-4,-5.2e-4 c -0.002,-1.5e-4 -0.005,-5e-5 -0.007,0 z" />
          </g>
          <g
             id="g3447"
             transform="translate(0.49891798,-86.380546)">
            <path
               style="fill:#009e01;fill-opacity:1;stroke:#000000;stroke-width:0.499999;stroke-linecap:round;stroke-dasharray:none"
               d="m 310.72523,155.57892 c 0,0 1.06186,-11.56224 -2.24165,-15.18035 -3.30351,-3.61812 -7.70816,-5.74179 -6.80363,-8.0621 0.90453,-2.32032 5.15189,0.27529 5.85978,-2.04503 0.70789,-2.32031 -7.58549,-3.3292 -7.39354,-6.52833 0.23597,-3.93273 6.65453,0.14922 7.39354,-3.10686 0.70982,-3.12745 -4.62136,-2.44268 -6.98597,-3.81781 -0.89912,-0.52289 -1.30204,-1.64638 -0.87951,-2.94649 1.53376,-4.71928 6.5677,0.55059 7.35423,-1.37646 0.31087,-0.76165 0.15874,-1.52577 -1.39697,-2.39339 -2.38037,-1.32752 -6.51719,-2.9501 -5.32803,-5.59006 1.96637,-4.36534 5.85978,-0.23596 7.82614,-1.25847 1.96638,-1.02251 -4.20033,-8.270201 3.46083,-8.494704 6.5137,-0.190877 5.39121,3.301442 3.74485,6.588984 -0.57406,1.14633 -0.63841,2.49115 -0.40205,2.73159 1.21218,1.23308 2.60165,-0.71917 4.15386,-1.6959 1.36864,-0.86122 2.88486,-0.844 4.1748,1.11553 2.42059,3.67707 -1.46246,4.82179 -3.70904,5.93538 -1.26316,0.62612 -1.77047,1.44695 -1.55207,2.07786 1.22475,3.53795 7.21349,-3.72026 9.00594,1.69107 2.31927,7.00181 -8.96662,5.34852 -8.06209,8.77 0.90453,3.42148 7.41621,-3.42163 8.49471,1.7304 1.36853,6.53755 -8.37944,5.78143 -8.14078,7.82614 0.37502,3.21298 5.7418,0 5.54516,2.91022 -0.19663,2.91022 -6.01707,4.71928 -8.76998,10.02847 -2.75291,5.30919 -1.53376,12.70273 -1.53376,12.70273 z"
               id="path3407"
               sodipodi:nodetypes="csssssssssssssssssssssssscc" />
            <ellipse
               style="fill:#009f01;fill-opacity:1;stroke:#000000;stroke-width:0.500086;stroke-linecap:round;stroke-dasharray:none"
               id="ellipse3409"
               cx="45.177959"
               cy="345.82547"
               rx="1.1423771"
               ry="2.3615656"
               transform="matrix(0.58227941,-0.81298874,0.82806436,0.56063304,0,0)" />
            <path
               style="fill:#000000;fill-opacity:1;stroke:#000000;stroke-width:0.1;stroke-linecap:round;stroke-dasharray:none"
               d="m 312.61296,145.47179 c 0,0 -0.11801,-10.38241 -0.2753,-18.24788 -0.15732,-7.86546 -0.2753,-28.66962 -0.2753,-28.66962 0,0 0.66857,15.5343 0.70789,23.28178 0.0394,7.74748 0.35396,23.63572 0.35396,23.63572 z"
               id="path3411" />
            <path
               style="fill:#000000;fill-opacity:1;stroke:#000000;stroke-width:0.1;stroke-linecap:round;stroke-dasharray:none"
               d="m 312.62452,128.47583 c 0,0 0.70914,0.12514 4.1852,-0.79254 3.47607,-0.91769 4.11568,-1.15406 4.11568,-1.05673 0,0.0973 -2.64183,1.09844 -4.67184,1.66852 -2.03004,0.57007 -3.65685,0.76473 -3.65685,0.76473 z"
               id="path3413"
               sodipodi:nodetypes="cssscc" />
            <path
               style="fill:#000000;fill-opacity:1;stroke:#000000;stroke-width:0.1;stroke-linecap:round;stroke-dasharray:none"
               d="m 312.39374,118.56739 c 0,0 0.30257,0.14019 3.71542,-0.99014 3.41286,-1.13032 4.03667,-1.40568 4.04267,-1.30854 0.006,0.0971 -2.56906,1.25927 -4.56005,1.95346 -1.99102,0.69418 -3.18978,0.9298 -3.18978,0.9298 z"
               id="path3415"
               sodipodi:nodetypes="cssscc" />
            <path
               style="fill:#000000;fill-opacity:1;stroke:#000000;stroke-width:0.1;stroke-linecap:round;stroke-dasharray:none"
               d="m 312.38814,110.35348 c 0,0 -1.14096,0.48266 2.13532,-0.99758 3.2763,-1.48025 3.86797,-1.81919 3.88408,-1.72321 0.0161,0.096 -2.42365,1.52045 -4.33134,2.41859 -1.90773,0.89813 -1.75789,0.90359 -1.75789,0.90359 z"
               id="path3417"
               sodipodi:nodetypes="cssscc" />
            <path
               style="fill:#000000;fill-opacity:1;stroke:#000000;stroke-width:0.1;stroke-linecap:round;stroke-dasharray:none"
               d="m 312.04027,109.29164 c 0,0 1.14096,0.48266 -2.13532,-0.99758 -3.2763,-1.48025 -3.86797,-1.81919 -3.88408,-1.72321 -0.0161,0.096 2.42365,1.52045 4.33134,2.41859 1.90773,0.89813 1.75789,0.90359 1.75789,0.90359 z"
               id="path3419"
               sodipodi:nodetypes="cssscc" />
            <path
               style="fill:#000000;fill-opacity:1;stroke:#000000;stroke-width:0.1;stroke-linecap:round;stroke-dasharray:none"
               d="m 312.48179,117.70219 c 0,0 -0.30257,0.14019 -3.71542,-0.99014 -3.41286,-1.13032 -4.03667,-1.40568 -4.04267,-1.30854 -0.006,0.0971 2.56906,1.25927 4.56005,1.95346 1.99102,0.69418 3.18978,0.9298 3.18978,0.9298 z"
               id="path3421"
               sodipodi:nodetypes="cssscc" />
            <path
               style="fill:#000000;fill-opacity:1;stroke:#000000;stroke-width:0.1;stroke-linecap:round;stroke-dasharray:none"
               d="m 312.55446,126.65905 c 0,0 -0.29628,0.15303 -3.75446,-0.82993 -3.45818,-0.98295 -4.09322,-1.23132 -4.09505,-1.13401 -0.002,0.0973 2.62069,1.14797 4.63961,1.75615 2.01895,0.60818 3.22671,0.79219 3.22671,0.79219 z"
               id="path3423"
               sodipodi:nodetypes="cssscc" />
            <path
               style="fill:#000000;fill-opacity:1;stroke:#000000;stroke-width:0.1;stroke-linecap:round;stroke-dasharray:none"
               d="m 312.75293,135.4477 c 0,0 -0.28396,0.17485 -3.80618,-0.54568 -3.52222,-0.72052 -4.17412,-0.92051 -4.16864,-0.82333 0.005,0.0972 2.69949,0.94795 4.75838,1.40282 2.05891,0.45487 3.27708,0.54768 3.27708,0.54768 z"
               id="path3425"
               sodipodi:nodetypes="cssscc" />
            <path
               id="path3427"
               style="fill:#000000;fill-opacity:1;stroke:#000000;stroke-width:0.1;stroke-linecap:round;stroke-dasharray:none"
               d="m 318.21675,136.43818 c -0.16995,-0.007 -1.03984,0.27396 -4.0814,1.07694 -0.51754,0.13663 -0.97242,0.2494 -1.37408,0.34365 l 0.009,0.48162 c 0.26004,-0.0645 0.53038,-0.13525 0.80874,-0.21342 2.03001,-0.57008 4.67207,-1.57133 4.67207,-1.66863 0,-0.0122 -0.0103,-0.0191 -0.0346,-0.0202 z" />
            <path
               id="path3429"
               style="fill:#000000;fill-opacity:1;stroke:#000000;stroke-width:0.1;stroke-linecap:round;stroke-dasharray:none"
               d="m 317.06385,132.18831 c -0.20869,-1.8e-4 -1.13146,0.23953 -4.11499,0.86042 -0.0826,0.0172 -0.16287,0.0334 -0.24237,0.0496 l -0.0212,0.45682 c 2.00468,-0.4741 4.42482,-1.25197 4.4297,-1.34411 6.4e-4,-0.0121 -0.009,-0.0192 -0.0331,-0.0217 h -5.2e-4 c -0.005,-4.7e-4 -0.011,-10e-4 -0.0176,-10e-4 z" />
            <path
               id="path3431"
               style="fill:#000000;fill-opacity:1;stroke:#000000;stroke-width:0.1;stroke-linecap:round;stroke-dasharray:none"
               d="m 316.10692,121.45169 c -0.25694,0.0225 -1.06533,0.22513 -3.54642,0.71752 l 0.0365,0.41543 c 1.80471,-0.44662 3.60198,-1.03058 3.60719,-1.11193 -5e-5,-0.012 -0.009,-0.0192 -0.0331,-0.022 l -5.1e-4,5e-5 c -0.005,-5.2e-4 -0.0106,-0.001 -0.0173,-0.002 l 4e-5,5.2e-4 c -0.013,-1.6e-4 -0.0285,4.4e-4 -0.0465,0.002 z" />
            <path
               id="path3433"
               style="fill:#000000;fill-opacity:1;stroke:#000000;stroke-width:0.1;stroke-linecap:round;stroke-dasharray:none"
               d="m 315.83068,113.13946 c -0.2528,0.0511 -1.03333,0.34328 -3.44347,1.11106 l 0.0829,0.40871 c 1.74318,-0.64638 3.46354,-1.42839 3.45959,-1.50981 -0.001,-0.012 -0.0108,-0.0181 -0.0353,-0.0181 l -5e-4,1e-4 c -0.005,6e-5 -0.0107,1.3e-4 -0.0174,4.6e-4 l 10e-5,5.1e-4 c -0.0129,0.002 -0.0282,0.004 -0.046,0.007 z" />
            <path
               id="path3435"
               style="fill:#000000;fill-opacity:1;stroke:#000000;stroke-width:0.1;stroke-linecap:round;stroke-dasharray:none"
               d="m 315.24691,105.66228 c -0.003,2e-5 -0.005,2.8e-4 -0.008,5.2e-4 h -5.2e-4 c -0.005,4.5e-4 -0.0104,10e-4 -0.017,0.002 v 5.1e-4 c -0.0127,0.003 -0.028,0.006 -0.0455,0.0109 v -5.2e-4 c -0.23239,0.0662 -0.91027,0.37984 -2.92178,1.20406 l 0.004,0.42788 c 1.57281,-0.74456 3.02758,-1.55351 3.0179,-1.62936 -0.002,-0.0104 -0.0101,-0.0161 -0.0284,-0.016 z" />
            <path
               id="path3437"
               style="fill:#000000;fill-opacity:1;stroke:#000000;stroke-width:0.1;stroke-linecap:round;stroke-dasharray:none"
               d="m 309.9356,104.37864 c -0.0138,3.3e-4 -0.0201,0.005 -0.0227,0.0145 -0.0122,0.0644 1.01705,0.73092 2.27169,1.44746 l -0.0119,-0.39791 c -1.43362,-0.69742 -1.96052,-0.97609 -2.15956,-1.04593 v 5.2e-4 c -0.0172,-0.006 -0.0325,-0.01 -0.045,-0.014 -0.007,-0.001 -0.0115,-0.002 -0.0165,-0.003 h -5.1e-4 c -0.003,-4.2e-4 -0.005,-8.3e-4 -0.008,-0.001 l -5.2e-4,-5.2e-4 c -0.002,-1.5e-4 -0.005,-5e-5 -0.007,0 z" />
            <path
               id="path3439"
               style="fill:#000000;fill-opacity:1;stroke:#000000;stroke-width:0.1;stroke-linecap:round;stroke-dasharray:none"
               d="m 308.86014,114.51592 c 0.2528,0.0511 1.03333,0.34328 3.44347,1.11106 l -0.0829,0.40871 c -1.74318,-0.64638 -3.46354,-1.42839 -3.45959,-1.50981 10e-4,-0.012 0.0108,-0.0181 0.0353,-0.0181 l 5e-4,1e-4 c 0.005,6e-5 0.0107,1.3e-4 0.0174,4.6e-4 l -1e-4,5.1e-4 c 0.0129,0.002 0.0282,0.004 0.046,0.007 z" />
            <path
               id="path3441"
               style="fill:#000000;fill-opacity:1;stroke:#000000;stroke-width:0.1;stroke-linecap:round;stroke-dasharray:none"
               d="m 309.01745,122.65668 c 0.2528,0.0511 1.03333,0.34328 3.44347,1.11106 l -0.0829,0.40871 c -1.74318,-0.64638 -3.46354,-1.42839 -3.45959,-1.50981 10e-4,-0.012 0.0108,-0.0181 0.0353,-0.0181 l 5e-4,1e-4 c 0.005,6e-5 0.0107,1.3e-4 0.0174,4.6e-4 l -1e-4,5.1e-4 c 0.0129,0.002 0.0282,0.004 0.046,0.007 z" />
            <path
               id="path3443"
               style="fill:#000000;fill-opacity:1;stroke:#000000;stroke-width:0.1;stroke-linecap:round;stroke-dasharray:none"
               d="m 309.13543,131.26937 c 0.2528,0.0511 1.03333,0.34328 3.44347,1.11106 l -0.0829,0.40871 c -1.74318,-0.64638 -3.46354,-1.42839 -3.45959,-1.50981 0.001,-0.012 0.0108,-0.0181 0.0353,-0.0181 l 5e-4,10e-5 c 0.005,6e-5 0.0107,1.3e-4 0.0174,4.6e-4 l -10e-5,5.1e-4 c 0.0129,0.002 0.0282,0.004 0.046,0.007 z" />
            <path
               id="path3445"
               style="fill:#000000;fill-opacity:1;stroke:#000000;stroke-width:0.1;stroke-linecap:round;stroke-dasharray:none"
               d="m 310.38054,139.75121 c -0.0138,3.3e-4 -0.0201,0.005 -0.0227,0.0145 -0.0122,0.0644 1.01705,0.73092 2.27169,1.44746 l -0.0119,-0.39791 c -1.43362,-0.69742 -1.96052,-0.97609 -2.15956,-1.04593 v 5.2e-4 c -0.0172,-0.006 -0.0325,-0.01 -0.045,-0.014 -0.007,-0.001 -0.0115,-0.002 -0.0165,-0.003 h -5.1e-4 c -0.003,-4.2e-4 -0.005,-8.3e-4 -0.008,-0.001 l -5.2e-4,-5.2e-4 c -0.002,-1.5e-4 -0.005,-5e-5 -0.007,0 z" />
          </g>
        </g>
      </g>
      <g
         id="g3895"
         transform="translate(-193.82903,-3.3525755)">
        <g
           id="g3872">
          <path
             id="path3868"
             style="fill:#000000;fill-opacity:1;stroke:#000000;stroke-width:0.6;stroke-linecap:round;stroke-dasharray:none"
             d="m 268.17639,171.59469 c -10.07392,0 -12.25446,6.08313 -15.64711,10.03195 -3.39263,3.94883 -7.25589,7.14478 -7.25589,7.14478 h 22.903 23.96132 c 0,0 -4.92158,-3.19595 -8.31421,-7.14478 -3.39265,-3.94882 -5.57319,-10.03195 -15.64711,-10.03195 z"
             sodipodi:nodetypes="sscccss" />
          <path
             id="path3860"
             style="fill:#ffff00;fill-opacity:1;stroke:#000000;stroke-width:0.6;stroke-linecap:round;stroke-dasharray:none"
             d="m 269.23473,171.59469 c -10.07392,0 -12.25446,6.08313 -15.64711,10.03195 -3.39263,3.94883 -7.25589,7.14478 -7.25589,7.14478 h 22.903 23.96132 c 0,0 -4.92158,-3.19595 -8.31421,-7.14478 -3.39265,-3.94882 -5.57319,-10.03195 -15.64711,-10.03195 z"
             sodipodi:nodetypes="sscccss" />
        </g>
        <g
           id="g3878"
           transform="translate(62.97085)">
          <path
             id="path3874"
             style="fill:#000000;fill-opacity:1;stroke:#000000;stroke-width:0.6;stroke-linecap:round;stroke-dasharray:none"
             d="m 268.17639,171.59469 c -10.07392,0 -12.25446,6.08313 -15.64711,10.03195 -3.39263,3.94883 -7.25589,7.14478 -7.25589,7.14478 h 22.903 23.96132 c 0,0 -4.92158,-3.19595 -8.31421,-7.14478 -3.39265,-3.94882 -5.57319,-10.03195 -15.64711,-10.03195 z"
             sodipodi:nodetypes="sscccss" />
          <path
             id="path3876"
             style="fill:#ffff00;fill-opacity:1;stroke:#000000;stroke-width:0.6;stroke-linecap:round;stroke-dasharray:none"
             d="m 269.23473,171.59469 c -10.07392,0 -12.25446,6.08313 -15.64711,10.03195 -3.39263,3.94883 -7.25589,7.14478 -7.25589,7.14478 h 22.903 23.96132 c 0,0 -4.92158,-3.19595 -8.31421,-7.14478 -3.39265,-3.94882 -5.57319,-10.03195 -15.64711,-10.03195 z"
             sodipodi:nodetypes="sscccss" />
        </g>
        <g
           id="g3884"
           transform="translate(31.136303,28.001059)">
          <path
             id="path3880"
             style="fill:#000000;fill-opacity:1;stroke:#000000;stroke-width:0.6;stroke-linecap:round;stroke-dasharray:none"
             d="m 268.17639,171.59469 c -10.07392,0 -12.25446,6.08313 -15.64711,10.03195 -3.39263,3.94883 -7.25589,7.14478 -7.25589,7.14478 h 22.903 23.96132 c 0,0 -4.92158,-3.19595 -8.31421,-7.14478 -3.39265,-3.94882 -5.57319,-10.03195 -15.64711,-10.03195 z"
             sodipodi:nodetypes="sscccss" />
          <path
             id="path3882"
             style="fill:#ffff00;fill-opacity:1;stroke:#000000;stroke-width:0.6;stroke-linecap:round;stroke-dasharray:none"
             d="m 269.23473,171.59469 c -10.07392,0 -12.25446,6.08313 -15.64711,10.03195 -3.39263,3.94883 -7.25589,7.14478 -7.25589,7.14478 h 22.903 23.96132 c 0,0 -4.92158,-3.19595 -8.31421,-7.14478 -3.39265,-3.94882 -5.57319,-10.03195 -15.64711,-10.03195 z"
             sodipodi:nodetypes="sscccss" />
        </g>
      </g>
    </g>
  </g>
</svg>
