<svg xmlns="http://www.w3.org/2000/svg" width="452" height="497" style="shape-rendering:geometricPrecision;text-rendering:geometricPrecision;image-rendering:optimizeQuality;fill-rule:evenodd;clip-rule:evenodd"><path style="opacity:1" d="M-.5-.5h452v285c-5.928 67.694-34.928 123.194-87 166.5-35.009 25.502-74.009 40.668-117 45.5h-44C101.077 482.169 35.577 425.169 7 325.5c-3.593-16.655-6.093-33.322-7.5-50V-.5z"/><path style="opacity:1" fill="#fecc00" d="M4.5 4.5h442c.333 56.004 0 112.004-1 168a37.508 37.508 0 0 1-8 3c-5.469-3.615-8.303-8.615-8.5-15 1.193-2.105 2.86-3.772 5-5 .684-1.284.517-2.451-.5-3.5-4.774-2.684-9.774-3.184-15-1.5-2.557.058-4.89-.609-7-2a136.639 136.639 0 0 0 12-9.5 38.371 38.371 0 0 1 14-6c1.723-3.408.723-5.741-3-7a575.016 575.016 0 0 1-19-3c8.222-3.888 9.722-9.388 4.5-16.5l-6.5-6.5c-11.936-2.213-18.602 2.62-20 14.5-3.91-4.789-8.91-7.789-15-9-3.502.119-5.002 1.785-4.5 5a20.174 20.174 0 0 1 4 6 915.338 915.338 0 0 1 7.5 23 8.43 8.43 0 0 1-4-.5 96.332 96.332 0 0 0-10-10c-8.166-1.854-9.833.479-5 7-.964 4.964-3.964 7.964-9 9-7.039.15-11.372-3.35-13-10.5.619-3.735 2.785-6.068 6.5-7 .684-1.284.517-2.451-.5-3.5a16.08 16.08 0 0 0-7-1.5 93.172 93.172 0 0 0-13 3c-2.324-.029-3.49-1.029-3.5-3a203.814 203.814 0 0 1 17.5-16.5c7.713-.807 8.713-3.474 3-8-6-.923-11.834-.423-17.5 1.5l-1.5-1.5c3.939-3.585 4.773-7.751 2.5-12.5-2.719-4.22-6.219-7.554-10.5-10a324.52 324.52 0 0 0-13.5 5c-3.515 3.765-4.349 8.098-2.5 13a4.458 4.458 0 0 1-1.5 2l-8.5-6.5c-12.088-1.599-13.922 1.901-5.5 10.5a47.223 47.223 0 0 1 5 12c2.67 2.479 4.17 5.479 4.5 9a10.098 10.098 0 0 1-6-1.5l-8-6c-2.254-1.15-4.587-1.484-7-1a4.933 4.933 0 0 0-1 2.5c1.761 3.496 2.261 7.163 1.5 11a3808.457 3808.457 0 0 1-11 7 52.28 52.28 0 0 1-8-9c-.667-2-.667-4 0-6 5.585-6.428 4.085-8.928-4.5-7.5-5.113 2.809-10.446 4.476-16 5a3.647 3.647 0 0 1-1-1.5 38.513 38.513 0 0 0 10.5-13 63.706 63.706 0 0 1 10-9c.667-1.333.667-2.667 0-4-7.414-1.942-14.414-.942-21 3a9.457 9.457 0 0 0-1.5-2.5c4.704-10.737 1.038-17.237-11-19.5-11.28 2.586-15.28 9.252-12 20l-1 2c-6.513-5.397-13.68-6.397-21.5-3-.667 1-.667 2 0 3 3.572 1.569 6.572 3.902 9 7 3.122 5.939 6.956 11.272 11.5 16-5.585 2.324-10.585 1.157-15-3.5-2.803-.755-5.47-.422-8 1-1.017 1.049-1.184 2.216-.5 3.5 4.126 1.702 5.46 4.702 4 9-2.754 3.262-5.921 5.929-9.5 8-11.676-2.363-14.01-8.196-7-17.5a3.943 3.943 0 0 0-1-2 12.494 12.494 0 0 0-7 0 157.86 157.86 0 0 0-13 7.5 4.457 4.457 0 0 1-2-1.5 204.752 204.752 0 0 1 9.5-20.5c8.264-7.366 6.764-10.2-4.5-8.5a31.063 31.063 0 0 0-8 4c-1.333.667-2.667.667-4 0 1.117-3.073 1.284-6.24.5-9.5a47.694 47.694 0 0 0-12.5-7.5c-1.667-.667-3.333-.667-5 0A39.322 39.322 0 0 1 117 86.5c-.175 3.946-.342 7.78-.5 11.5-3.018 0-6.018-.5-9-1.5a137.861 137.861 0 0 1-9 2.5c-2.027 1.396-2.36 3.062-1 5 3.374.521 6.374 1.854 9 4 5.975 5.465 11.309 11.299 16 17.5a202.19 202.19 0 0 0-20-2.5c-1.074.739-1.741 1.739-2 3 6.31 7.973 4.977 14.473-4 19.5-3.853-1.002-7.353-2.669-10.5-5-2.005-3.461-1.839-6.795.5-10 0-2-1-3-3-3a28.516 28.516 0 0 0-9 4.5c-2.774 3.962-6.44 6.462-11 7.5a568.889 568.889 0 0 0 5.5-18 54.115 54.115 0 0 1 7-12c.942-2.73-.058-4.063-3-4a91.58 91.58 0 0 0-6.5 1.5 45.863 45.863 0 0 0-11 8.5 36.266 36.266 0 0 1-.5-7c-.346-2.348-1.513-4.181-3.5-5.5-5.295-3.074-10.962-4.408-17-4a58.317 58.317 0 0 0-7.5 10.5c-1.37 4.937-.203 9.104 3.5 12.5l-1.5 1.5c-4.508-1.335-9.008-1.169-13.5.5-2.564 1.062-4.231 2.896-5 5.5a4.94 4.94 0 0 0 1 2.5 35.727 35.727 0 0 1 9 3 112.049 112.049 0 0 0 18 12.5c-1.049 1.612-2.549 2.612-4.5 3-5.502-2.131-11.002-2.297-16.5-.5-1.074.739-1.74 1.739-2 3a24.786 24.786 0 0 0 5 5c1.496 5.188.663 10.021-2.5 14.5a4.932 4.932 0 0 1-2.5 1 190.926 190.926 0 0 0-11-2V4.5z"/><path style="opacity:1" fill="#22b24b" d="M222.5 71.5c1.984-.117 3.65.55 5 2 .915 2.418 2.415 4.418 4.5 6a93.376 93.376 0 0 0 3.5 12.5c4.313-.392 8.48-1.56 12.5-3.5 1.404.01 2.57.51 3.5 1.5-3.543 8.22-8.71 15.387-15.5 21.5-1 3.837.5 5.837 4.5 6a87.8 87.8 0 0 0 14.5-5c1.301.598 2.135 1.598 2.5 3-1.408 3.739-1.241 7.406.5 11a34.706 34.706 0 0 1 6.5 7.5c5.945-.545 11.111-3.045 15.5-7.5a54.237 54.237 0 0 1 2.5-6.5c-1.831-2.163-1.331-3.33 1.5-3.5a141.229 141.229 0 0 1 9.5 5.5c6.167 1.833 8.333-.333 6.5-6.5-3.737-3.092-5.403-7.092-5-12a47.149 47.149 0 0 1-6-7c-1.165-3.314.002-5.314 3.5-6a46.38 46.38 0 0 0 7 6.5c4.004 1.327 6.671-.006 8-4-1.213-7.474 2.12-11.474 10-12l2.5-2.5c1.011.837 2.178 1.17 3.5 1 .938 3.567 2.272 6.9 4 10a30.227 30.227 0 0 0-.5 10c.739 1.074 1.739 1.741 3 2a38.883 38.883 0 0 1 9.5-2c.202 2.489-.298 4.823-1.5 7a193.757 193.757 0 0 0-13 15c-.835 4.206.998 6.206 5.5 6 3.813-.706 7.48-1.539 11-2.5 3.245 2.707 3.578 5.873 1 9.5 4.545 14.597 12.712 16.931 24.5 7a52.56 52.56 0 0 0 1.5-7c5.239-.213 9.239 1.954 12 6.5 7.48.783 8.98-2.051 4.5-8.5a129.126 129.126 0 0 1-4-18c4.01-2.998 7.51-2.498 10.5 1.5 2.201.825 4.034.325 5.5-1.5.812-11.145 5.979-13.978 15.5-8.5a20.645 20.645 0 0 0 5 7c-1.681 3.794-2.848 7.628-3.5 11.5a106.142 106.142 0 0 0 16.5 3.5 18.08 18.08 0 0 1 2 3.5 17.175 17.175 0 0 1-8 3.5 54.456 54.456 0 0 1-14.5 11.5c-1.206 3.338-.04 5.171 3.5 5.5 4.758.212 9.425.378 14 .5 1.355 1.175 1.188 2.175-.5 3-2.006 10.112 1.494 17.445 10.5 22a23.852 23.852 0 0 0 8.5-3c.667 36 .667 72 0 108-4.52 61.199-29.02 112.699-73.5 154.5-53.347 44.677-114.68 62.011-184 52C96.47 469.306 37.637 414.139 12 323.5a300.927 300.927 0 0 1-7-50 1667.23 1667.23 0 0 1 .5-100 32.767 32.767 0 0 0 13 1.5c3.095-4.528 5.095-9.528 6-15a14.757 14.757 0 0 0-3-5.5 25.534 25.534 0 0 0 4.5-4 20.81 20.81 0 0 0 10.5 1.5c3.723-1.259 4.723-3.592 3-7-5.723-1.861-10.39-5.194-14-10a47.699 47.699 0 0 0-12-5c1.41-2.879 3.743-4.545 7-5a72.645 72.645 0 0 1 11 0c2.904-3.979 2.07-7.145-2.5-9.5-.651-1.735-.485-3.402.5-5a18.685 18.685 0 0 0 6-6.5c6.402-2.956 12.069-1.956 17 3a3.942 3.942 0 0 0-1 2 98.374 98.374 0 0 0 2 8c3.725.804 6.391-.529 8-4 2.89-.347 5.223-1.347 7-3-2.134 2.971-2.467 6.138-1 9.5-3.551 6.851-5.218 14.018-5 21.5 1.667.667 3.333.667 5 0a45.242 45.242 0 0 1 9.5-6.5 11.339 11.339 0 0 0 3.5 1.5c3.515 7.757 9.515 11.423 18 11l7.5-7.5c1.024-4.598.524-8.932-1.5-13a3.647 3.647 0 0 1 1-1.5c4.434.801 8.934 1.634 13.5 2.5 4.937.73 6.604-1.27 5-6-7.62-5.43-13.453-12.097-17.5-20a74.058 74.058 0 0 0 12-1.5c1.238-2.618 1.238-5.285 0-8 3.334-10.326 10-13.492 20-9.5.632 2.237 1.965 3.903 4 5 .414 2.532.748 5.032 1 7.5 4.758.633 9.091-.534 13-3.5 2.446.927 3.279 2.594 2.5 5a14.504 14.504 0 0 1-4 5c-.863 4.712-2.529 9.045-5 13-1.33 4.998.504 7.164 5.5 6.5l6-4c2.834-.045 5.334-.879 7.5-2.5a31.291 31.291 0 0 1-.5 8 12.862 12.862 0 0 0 1.5 6 100.685 100.685 0 0 0 12 6c7.686-4.157 11.853-10.49 12.5-19 1.322.17 2.489-.163 3.5-1 4.527 3.316 9.193 3.649 14 1 .667-1.333.667-2.667 0-4-4.245-3.496-7.245-7.83-9-13a25.022 25.022 0 0 1-6.5-8c1.429-1.435 3.095-2.435 5-3a60.03 60.03 0 0 0 8 4.5c1.333.667 2.667.667 4 0a217.303 217.303 0 0 1 2.5-15.5 164.75 164.75 0 0 1 6.5-5z"/><path style="opacity:1" d="M134.5 179.5c1.644-.214 3.144.12 4.5 1l-.5 7.5 3 3c41.372.38 82.705.88 124 1.5 30.165-.68 60.332-1.346 90.5-2 8.497.555 16.997 1.055 25.5 1.5a138.817 138.817 0 0 1 25 7 53.251 53.251 0 0 1 5 7.5c-.029 1.529-.696 2.696-2 3.5a72.177 72.177 0 0 0-14 8c-5.068-.053-10.068.947-15 3l-239 1-1.5 1.5-1 9c-2.794 1.346-5.294.846-7.5-1.5a122.789 122.789 0 0 0-11-10l-4-1c-10.5.682-21 .516-31.5-.5a179.04 179.04 0 0 1-10.5 2c-2.706.019-5.206-.648-7.5-2-4.917 2.11-9.417 4.777-13.5 8-4.295-3.464-8.129-7.464-11.5-12a64.86 64.86 0 0 1-1-15 272.548 272.548 0 0 1 9.5-12.5 10.256 10.256 0 0 1 4-1.5 45.252 45.252 0 0 1 7 4.5l4.5 1.5c2.971-1.602 5.638-1.269 8 1 2.676-1.072 5.01-.405 7 2a14.843 14.843 0 0 1 6.5-2 130.416 130.416 0 0 0 32-.5c1.912-1.2 3.245-2.867 4-5 4.687-1.521 8.354-4.355 11-8.5z"/><path style="opacity:1" fill="#fecb00" d="M123.5 209.5c-.903-4.257.764-6.757 5-7.5 84.141-.003 168.141-.669 252-2-99.663.369-199.33.536-299 .5-.17-1.322.163-2.489 1-3.5l36-1c3.336-1.121 5.336-3.287 6-6.5 1.808.009 3.475-.491 5-1.5a46.607 46.607 0 0 1 6-5.5c.704 3.204 1.37 6.371 2 9.5l10 1c77.537.04 155.203.373 233 1 10.837 1.768 20.504 5.935 29 12.5-9.916 6.126-20.583 10.293-32 12.5-29.016.191-58.016.691-87 1.5-50.702.097-101.368-.07-152-.5l-1.5 1.5-1 10a6662.172 6662.172 0 0 0-15.5-13.5 34.953 34.953 0 0 0-9-1.5c-3.97 1.351-8.137 2.018-12.5 2a220.077 220.077 0 0 1-17.5-2v-4c100.001.167 200.001 0 300-.5 5.187-.561 9.854-2.395 14-5.5-2.052-2.903-3.386-2.57-4 1-6.342 2.836-13.009 4.169-20 4-81.046-.396-162.712-.563-245-.5l-3-1.5z"/><path style="opacity:1" fill="#fecc00" d="M53.5 189.5c2.785.433 5.119 1.766 7 4-.557 2.949.11 5.783 2 8.5-2.46 3.262-2.46 6.429 0 9.5-2.104 2.083-2.438 4.417-1 7a75.783 75.783 0 0 0-7.5 7l-1.5-1.5a310.743 310.743 0 0 1 1-34.5zM49.5 193.5c1.158 9.157 1.324 18.491.5 28a43.959 43.959 0 0 0-6-7 49.248 49.248 0 0 1 0-14 57.118 57.118 0 0 1 5.5-7zM70.5 193.5c.722.418 1.222 1.084 1.5 2 .204 6.717.704 13.383 1.5 20l-1.5 3c-1.467-8.163-1.967-16.496-1.5-25zM63.5 195.5h5c.585 2.761-.415 4.427-3 5-2.669-.99-3.335-2.656-2-5zM75.5 195.5c.958.453 1.792 1.119 2.5 2 .96 7.501.627 14.835-1 22-1.466-7.828-1.966-15.828-1.5-24zM123.5 209.5c-.418.722-1.084 1.222-2 1.5a3941.99 3941.99 0 0 1-39.5.5c-1.71-2.923-1.877-5.923-.5-9 14-1.333 28-1.333 42 0-1.266 2.472-1.266 4.806 0 7z"/><path style="opacity:1" fill="#fecc00" d="M64.5 202.5c1.322-.17 2.489.163 3.5 1 .758 2.269.591 4.436-.5 6.5-4.583.934-6.083-.9-4.5-5.5.717-.544 1.217-1.211 1.5-2z"/><path style="opacity:1" d="M387.5 203.5c1.349-1.297 2.682-1.13 4 .5-1.319.195-2.653.028-4-.5z"/><path style="opacity:1" fill="#fecc00" d="M65.5 211.5c.996-.086 1.83.248 2.5 1 .493 1.634.66 3.301.5 5h-6c-.472-2.858.528-4.858 3-6z"/><path style="opacity:1" d="M147.5 275.5c51.945.08 103.945.08 156 0 1.697.399 3.363.899 5 1.5a219.659 219.659 0 0 0 5 14c-.38 2.308-.714 4.641-1 7 .916.374 1.75.874 2.5 1.5l1 6c3.25 2.601 4.084 5.767 2.5 9.5a178.744 178.744 0 0 1 4.5 11.5c3.219 5.887 7.886 10.553 14 14a45.336 45.336 0 0 0 4.5 12 55.5 55.5 0 0 1 9.5 12c.325 2.053-.009 4.053-1 6a143.594 143.594 0 0 0-15.5 19.5 1121.866 1121.866 0 0 0-29 19.5c-2.49 4.257-6.157 7.091-11 8.5-5.857 6.91-13.19 10.577-22 11l-23.5.5a898.94 898.94 0 0 0-56.5 0c-7.437.255-14.437-.578-21-2.5-7.154-5.577-15.154-9.577-24-12a193.777 193.777 0 0 0-36-29 47.323 47.323 0 0 0-9.5-13.5 18.1 18.1 0 0 1-2.5-6.5c1.191-2.955 2.024-6.122 2.5-9.5 3.601-3.406 6.768-7.073 9.5-11 .297-4.792 2.63-7.959 7-9.5 4.198-4.849 7.531-10.183 10-16-1.11-2.737-1.277-5.571-.5-8.5a21.53 21.53 0 0 0 5-6 583.652 583.652 0 0 0 6.5-16.5c-1.295-3.842-1.128-7.675.5-11.5 2.607-.623 5.107-1.29 7.5-2z"/><path style="opacity:1" fill="#fecc00" d="M205.5 276.5c24.865.49 49.698.49 74.5 0a371.837 371.837 0 0 0 25.5 1.5c2.158 1.312 2.491 2.978 1 5a45.699 45.699 0 0 0 3 7.5 11.456 11.456 0 0 0-1 2.5 61.703 61.703 0 0 0 4 8.5 193.957 193.957 0 0 1 6 23h-189a28.741 28.741 0 0 1 2-7c-1.098-2.867-.265-5.201 2.5-7a230.814 230.814 0 0 1 7-19c1.459-4.325 1.959-8.658 1.5-13 21.128-.656 42.128-1.323 63-2zM128.5 326.5c64.001-.167 128.001 0 192 .5l3 3a195.367 195.367 0 0 1-20.5 2.5 8636.465 8636.465 0 0 0-177.5 0c.115-2.447 1.115-4.447 3-6zM211.5 333.5c37.102.462 74.102.962 111 1.5a20.64 20.64 0 0 1 6 2 75.242 75.242 0 0 1 9 12 6113.953 6113.953 0 0 1-112 2.5 1570.73 1570.73 0 0 0-110.5 0 11.333 11.333 0 0 0-3.5-1.5c2.664-2.669 4.498-5.836 5.5-9.5a68.474 68.474 0 0 0 6.5-5.5c29.503-.168 58.836-.668 88-1.5z"/><path style="opacity:1" d="M143.5 344.5c-1.863-4.526-.196-7.193 5-8 5.112 2.278 6.112 5.778 3 10.5a12.494 12.494 0 0 1-7 0c-.752-.671-1.086-1.504-1-2.5zM222.5 336.5c6.046.073 8.213 3.073 6.5 9-5.423 4.134-8.923 2.801-10.5-4 .66-2.315 1.993-3.981 4-5zM304.5 339.5c-1.879-.841-3.879-1.175-6-1 .366-1.195 1.199-1.861 2.5-2 1.95.207 3.116 1.207 3.5 3z"/><path style="opacity:1" fill="#fecc00" d="M143.5 344.5c.164-5.988 2.664-7.321 7.5-4 1.123 3.555-.211 5.555-4 6a11.803 11.803 0 0 1-3.5-2zM222.5 338.5c5.952.109 7.286 2.609 4 7.5-6.088.084-7.421-2.416-4-7.5z"/><path style="opacity:1" d="M298.5 338.5c-1.581 1.642-2.247 3.642-2 6-1.113-1.446-1.28-3.113-.5-5 .671-.752 1.504-1.086 2.5-1z"/><path style="opacity:1" fill="#fecc00" d="M298.5 338.5c2.121-.175 4.121.159 6 1 .706 7.122-1.96 8.788-8 5-.247-2.358.419-4.358 2-6z"/><path style="opacity:1" d="M304.5 339.5c3.26 4.424 2.093 7.424-3.5 9-2.521-.322-4.021-1.656-4.5-4 6.04 3.788 8.706 2.122 8-5z"/><path style="opacity:1" fill="#fecc00" d="M109.5 353.5c76.001-.167 152.001 0 228 .5 3.052.882 5.386 2.716 7 5.5a9600.398 9600.398 0 0 1-240 .5 48.558 48.558 0 0 1 5-6.5zM104.5 362.5c79.999.008 159.832.008 239.5 0 2.386.885 3.886 2.552 4.5 5-3.901 6.739-9.068 12.405-15.5 17-.273 1.829-1.107 3.329-2.5 4.5a1241.325 1241.325 0 0 1-39 27c-1.895 4.108-4.895 5.774-9 5l-2 3a19.24 19.24 0 0 0-9 3c-25.893-.038-51.727.129-77.5.5a129.936 129.936 0 0 1-16.5-1.5c-21.65-10.023-41.317-23.356-59-40-1.921-.36-3.588-1.194-5-2.5a271.355 271.355 0 0 0-11.5-16l-.5-1.5a124.15 124.15 0 0 0 3-3.5z"/></svg>