<?xml version="1.0" encoding="UTF-8" standalone="no"?>
<!-- Created with Inkscape (http://www.inkscape.org/) -->

<svg
   width="138.14282mm"
   height="155.66319mm"
   viewBox="0 0 138.14282 155.66319"
   version="1.1"
   id="svg12359"
   inkscape:version="1.2.2 (732a01da63, 2022-12-09)"
   sodipodi:docname="DEU Itzstedt COA.svg"
   xmlns:inkscape="http://www.inkscape.org/namespaces/inkscape"
   xmlns:sodipodi="http://sodipodi.sourceforge.net/DTD/sodipodi-0.dtd"
   xmlns="http://www.w3.org/2000/svg"
   xmlns:svg="http://www.w3.org/2000/svg">
  <sodipodi:namedview
     id="namedview12361"
     pagecolor="#ffffff"
     bordercolor="#666666"
     borderopacity="1.0"
     inkscape:showpageshadow="2"
     inkscape:pageopacity="0.0"
     inkscape:pagecheckerboard="0"
     inkscape:deskcolor="#d1d1d1"
     inkscape:document-units="mm"
     showgrid="false"
     inkscape:zoom="0.64334278"
     inkscape:cx="203.62395"
     inkscape:cy="229.27124"
     inkscape:current-layer="layer1" />
  <defs
     id="defs12356" />
  <g
     inkscape:label="Ebene 1"
     inkscape:groupmode="layer"
     id="layer1"
     transform="translate(-540.03028,-74.44382)">
    <g
       id="g12053"
       transform="translate(502.39658,3.77544)">
      <path
         id="path10383"
         style="fill:#ffffff;fill-opacity:1;stroke:none;stroke-width:1.5;stroke-linecap:round;stroke-dasharray:none"
         d="m 38.383704,71.41838 v 93.44856 a 68.321594,60.714848 0 0 0 68.321406,60.71464 68.321594,60.714848 0 0 0 68.32142,-60.71464 68.321594,60.714848 0 0 0 0,-5.2e-4 V 71.41838 Z" />
      <path
         id="path10875"
         style="fill:#ff0000;fill-opacity:1;stroke:none;stroke-width:1.5;stroke-linecap:round;stroke-dasharray:none"
         d="m 106.69995,71.41838 -0.0961,111.89601 63.17547,4.87619 a 68.321594,60.714848 0 0 0 5.24723,-23.32364 68.321594,60.714848 0 0 0 0,-5.2e-4 V 71.41838 Z" />
      <path
         id="path10701"
         style="fill:#0035ff;fill-opacity:1;stroke:none;stroke-width:1.5;stroke-linecap:round;stroke-dasharray:none"
         d="m 107.89729,161.2899 -16.462561,2.22467 -15.350484,4.22713 -18.242298,1.3348 -19.060852,1.95492 a 68.321594,60.714848 0 0 0 67.924015,54.55016 68.321594,60.714848 0 0 0 67.72145,-53.02829 l -11.35693,-0.36225 c 0,0 -12.23567,-5.11699 -13.34802,-6.4518 -1.11234,-1.33482 -10.23348,3.11454 -10.23348,3.11454 l -10.90115,-4.22662 h -9.34361 z" />
      <path
         id="path10186"
         style="color:#000000;fill:#000000;-inkscape-stroke:none"
         d="m 106.7201,166.38261 c -2.31131,0 -4.08878,1.20579 -5.7149,2.36523 -1.626099,1.15945 -3.130898,2.27662 -4.922176,2.54248 -1.827588,0.27128 -3.562253,-0.23235 -5.423441,-0.79065 -1.861189,-0.55831 -3.848477,-1.17015 -6.074565,-0.83974 -2.226108,0.33039 -3.949617,1.49356 -5.568136,2.56832 -1.618518,1.07476 -3.131262,2.06038 -4.95887,2.33164 -1.827608,0.27126 -3.56277,-0.23235 -5.423958,-0.79065 -1.861189,-0.5583 -3.850018,-1.17066 -6.076115,-0.84026 -2.226128,0.33041 -3.950244,1.49197 -5.568653,2.56677 -1.618418,1.0748 -3.131292,2.06246 -4.95887,2.33371 -1.827608,0.27128 -3.56277,-0.23234 -5.423958,-0.79065 -1.861179,-0.55831 -3.847951,-1.17067 -6.074048,-0.84026 -0.294876,0.0438 -0.579661,0.10388 -0.857829,0.17466 a 68.321594,60.714848 0 0 0 0.328145,1.46606 c 0.245151,-0.0645 0.493963,-0.12007 0.750342,-0.15813 1.827588,-0.27126 3.56277,0.23493 5.423958,0.79324 1.861179,0.5583 3.84793,1.17017 6.074048,0.83974 2.226098,-0.33041 3.950244,-1.49352 5.568653,-2.56832 1.618418,-1.07479 3.131262,-2.06091 4.95887,-2.33216 1.827598,-0.27126 3.56277,0.23288 5.423958,0.79117 1.861178,0.5583 3.84794,1.17014 6.074048,0.83974 2.226108,-0.33041 3.949617,-1.49356 5.568136,-2.56832 1.618508,-1.07476 3.133339,-2.0609 4.960937,-2.33215 1.827578,-0.27126 3.560693,0.23286 5.421892,0.79116 1.861188,0.55831 3.850017,1.17017 6.076114,0.83974 2.262418,-0.3358 3.972648,-1.66599 5.572268,-2.80654 1.59962,-1.14056 3.05737,-2.08618 4.84415,-2.08618 1.78677,0 3.24608,0.94562 4.8457,2.08618 1.59962,1.14055 3.30986,2.47074 5.57227,2.80654 2.22611,0.33043 4.21286,-0.28143 6.07405,-0.83974 1.8612,-0.5583 3.59638,-1.06242 5.42396,-0.79116 1.8276,0.27125 3.34035,1.25739 4.95887,2.33215 1.6185,1.07476 3.34202,2.23791 5.56813,2.56832 2.22611,0.3304 4.21545,-0.28144 6.07663,-0.83974 1.86118,-0.55829 3.59585,-1.06243 5.42345,-0.79117 1.8276,0.27125 3.34096,1.25737 4.95938,2.33216 1.61842,1.0748 3.34203,2.23791 5.56814,2.56832 2.22612,0.33043 4.21286,-0.28144 6.07405,-0.83974 1.86117,-0.55831 3.59636,-1.0645 5.42395,-0.79324 0.24598,0.0365 0.48529,0.0884 0.72089,0.14935 a 68.321594,60.714848 0 0 0 0.32815,-1.46606 c -0.26867,-0.0674 -0.54416,-0.1237 -0.82838,-0.16588 -2.2261,-0.33041 -4.21493,0.28195 -6.07611,0.84026 -1.86119,0.55831 -3.59635,1.06193 -5.42396,0.79065 -1.82758,-0.27125 -3.33839,-1.25891 -4.9568,-2.33371 -1.61842,-1.0748 -3.34408,-2.23636 -5.57021,-2.56677 -2.22609,-0.3304 -4.21338,0.28196 -6.07456,0.84026 -1.86119,0.5583 -3.59583,1.06191 -5.42344,0.79065 -1.82762,-0.27126 -3.34087,-1.25688 -4.95939,-2.33164 -1.61852,-1.07476 -3.34203,-2.23793 -5.56814,-2.56832 -2.22608,-0.33041 -4.21286,0.28143 -6.07404,0.83974 -1.8612,0.5583 -3.59637,1.06193 -5.42396,0.79065 -1.79128,-0.26586 -3.29606,-1.38303 -4.92218,-2.54248 -1.62611,-1.15944 -3.40514,-2.36523 -5.71645,-2.36523 z" />
      <path
         style="fill:#ff0000;fill-opacity:1;stroke:#000000;stroke-width:1.2;stroke-linecap:round;stroke-dasharray:none"
         d="m 106.69995,71.418431 0.0202,94.964179"
         id="path10934" />
      <g
         id="g9153"
         transform="translate(-186.99796,2.8891931)">
        <path
           style="fill:#009f01;fill-opacity:1;stroke:#000000;stroke-width:0.6;stroke-linecap:round;stroke-dasharray:none"
           d="m 250.75106,124.27436 c 0,0 4.12515,19.89789 3.77542,23.83236 -0.94385,10.61838 -11.40493,15.49497 -11.40493,15.49497 l 46.17029,-3.38215 c 0,0 -16.59259,-5.71385 -18.7198,-8.33739 -2.35966,-2.91023 -2.91023,-10.14645 -1.88772,-17.14672 1.00002,-6.84627 3.53946,-17.8546 3.53946,-17.8546 l -7.00026,-0.0787 -4.0114,29.18089 -5.66313,-27.6078 z"
           id="path5665"
           sodipodi:nodetypes="csccssccccc" />
        <path
           style="fill:none;fill-opacity:1;stroke:#000000;stroke-width:0.600001;stroke-linecap:round;stroke-dasharray:none"
           d="m 253.72587,123.19219 c 0,0 1.16796,4.14349 1.307,4.61624 0.13905,0.47274 0.16685,1.50166 0.25028,2.11345 0.0834,0.61179 0.30589,1.19577 0.3337,1.50167 0.0278,0.30589 1.14016,2.97552 1.14016,2.97552"
           id="path5775" />
        <g
           id="g5537">
          <path
             style="fill:#009f01;fill-opacity:1;stroke:#000000;stroke-width:0.1;stroke-linecap:round;stroke-dasharray:none"
             d="m 253.93657,108.9367 -2.75291,4.83727 1.33713,4.71928 6.44968,1.61242 5.54515,-2.0057 -1.7304,-5.93842 -5.70246,-1.65175 z"
             id="path5417" />
          <path
             style="fill:#009f01;fill-opacity:1;stroke:#000000;stroke-width:0.1;stroke-linecap:round;stroke-dasharray:none"
             d="m 254.72698,99.499249 7.45271,0.862071 8.06451,4.50499 c 0,0 -4.4772,6.70188 -4.8109,6.50722 -0.33372,-0.19466 -7.42491,-4.03225 -7.42491,-4.03225 0,0 -5.08897,-2.28031 -5.20021,-2.28031 -0.11123,0 -0.80645,-4.8387 -0.80645,-4.8387 z"
             id="path3498" />
          <g
             id="g3496">
            <path
               style="fill:#009f01;fill-opacity:1;stroke:#000000;stroke-width:0.600001;stroke-linecap:round;stroke-dasharray:none"
               d="m 254.1708,118.46473 c 0,0 0.77865,-2.61401 2.14127,-2.50278 1.36262,0.11124 0.86206,1.36262 1.41824,1.58509 0.55617,0.22247 1.25139,-0.77864 1.91879,-0.44493 0.66741,0.3337 0.86207,2.03003 0.86207,2.03003 l -1.69633,2.69743 -1.14015,0.66741 1.47386,2.39154 -1.80756,1.36262 c 0,0 -0.11124,-2.08564 -1.25139,-2.2525 -1.14015,-0.16685 -2.33592,0.55618 -2.61401,0.0556 -0.27809,-0.50055 -0.69522,-2.05784 -0.69522,-2.05784 z"
               id="path1236" />
            <path
               style="fill:#009f01;fill-opacity:1;stroke:#000000;stroke-width:0.600001;stroke-linecap:round;stroke-dasharray:none"
               d="m 265.49881,117.07746 c 0,0 -0.82587,1.41578 -1.29781,1.65175 -0.47192,0.23596 -2.83156,-0.82587 -3.57878,-0.15731 -0.74722,0.66857 0.15731,1.88771 0,2.163 -0.15731,0.27529 -3.77543,-0.0393 -3.65745,1.76973 0.11799,1.80906 2.35964,1.1405 2.28099,1.5731 -0.0787,0.4326 -2.5956,1.17982 -2.32031,2.79224 0.27529,1.61242 2.28098,1.10116 2.28098,1.2978 0,0.19663 -1.61242,2.28098 0.11798,3.14619 1.73041,0.8652 3.06754,-1.92704 3.38216,-1.96637 0.31462,-0.0393 1.37645,1.10116 2.43829,0.31462 1.06185,-0.78655 -0.4326,-3.50013 0.0393,-3.85408 0.47191,-0.35395 1.4551,0.94386 2.43829,-0.0787 0.98317,-1.02251 -0.78655,-2.47762 -0.58991,-2.87089 0.19664,-0.39328 1.1798,0.31462 1.61242,-0.4326 0.4326,-0.74722 -0.35396,-1.17982 -0.47194,-1.88771 -0.11797,-0.7079 0.82587,-1.92704 0.82587,-1.92704 l -1.25846,-1.21915 z"
               id="path1206" />
            <path
               style="fill:#009f01;fill-opacity:1;stroke:#000000;stroke-width:0.600001;stroke-linecap:round;stroke-dasharray:none"
               d="m 282.84215,111.88626 c 0,0 2.12367,1.14049 2.32031,1.65174 0.19664,0.51126 -0.43259,0.70789 -0.19664,1.21915 0.23599,0.51126 3.53947,-1.41578 3.57881,1.10116 0.0393,2.51695 -2.51695,1.61243 -2.71359,1.80906 -0.19664,0.19664 -0.11798,2.0057 -1.10117,2.32031 -0.98319,0.31462 -3.30348,-0.35394 -3.30348,-0.35394 l -4.40468,-0.35395 -1.33712,-0.8652 -4.91591,1.57309 -1.21915,-2.35964 5.30918,-2.51695 5.42716,-0.78654 1.02251,-2.32031 z"
               id="path1204" />
            <path
               style="fill:#009f01;fill-opacity:1;stroke:#000000;stroke-width:0.600001;stroke-linecap:round;stroke-dasharray:none"
               d="m 270.3754,119.08315 c 0,0 1.37644,0.23597 2.24166,-0.19663 0.86519,-0.4326 2.0057,-1.61242 3.30348,-1.33713 1.29781,0.27529 0.94388,1.2978 1.80906,1.45511 0.86522,0.15731 2.08436,-1.53376 3.57878,-0.66856 1.49445,0.8652 0.35396,2.63493 0.62926,3.06753 0.27527,0.4326 3.38214,-1.65175 4.36534,-0.0787 0.98316,1.5731 -0.90454,2.35964 -0.86522,2.91023 0.0393,0.55058 2.83157,0.94385 2.04502,2.98887 -0.78655,2.04503 -3.6181,0.19664 -4.05072,0.35395 -0.43259,0.15731 0.23598,2.39897 -1.1798,2.55628 -1.41579,0.1573 -2.39898,-3.10686 -3.18553,-3.14619 -0.78653,-0.0393 -0.78653,1.65175 -1.76972,1.80906 -0.98319,0.15731 -1.76975,-2.71359 -2.75291,-3.10686 -0.98319,-0.39328 -1.57311,0.82587 -2.35966,0.4326 -0.78653,-0.39328 -0.74721,-2.63493 -1.33713,-3.89341 -0.58988,-1.25847 -2.24165,-3.4608 -2.24165,-3.4608 l 0.47194,-0.58991 z"
               id="path1202" />
            <path
               style="fill:#009f01;fill-opacity:1;stroke:#000000;stroke-width:0.600001;stroke-linecap:round;stroke-dasharray:none"
               d="m 252.8638,121.24559 c 0,0 0.27808,1.05673 -0.0278,1.75195 -0.3059,0.69521 -0.41713,0.69521 -0.55617,1.11234 -0.13904,0.41713 1.19577,2.2525 0.0556,3.19799 -1.14015,0.94549 -2.03002,0.27809 -2.41935,0.58398 -0.38932,0.3059 1.5851,1.80756 0,2.91991 -1.58509,1.11234 -1.89098,0.0556 -2.5862,0.0834 -0.69521,0.0278 -0.38932,2.94772 -2.36373,2.14127 -1.97441,-0.80645 -0.83426,-2.66963 -0.83426,-3.14238 0,-0.47275 -1.19577,-0.94549 -1.14015,-1.6129 0.0556,-0.6674 1.39043,-1.9466 1.39043,-1.9466 l 2.91991,-3.28142 1.22357,-2.22469 3.2258,0.19466 z"
               id="path1200" />
            <path
               style="fill:#009f01;fill-opacity:1;stroke:#000000;stroke-width:0.600001;stroke-linecap:round;stroke-dasharray:none"
               d="m 235.51122,122.16327 c 0,0 0.19466,2.14127 -0.38932,2.72525 -0.58398,0.58398 -2.69744,-0.11123 -3.19799,1.02892 -0.50056,1.14015 0.88987,1.33481 0.88987,1.89098 0,0.55618 -3.2258,1.22359 -2.19688,3.28142 1.02892,2.05784 2.91991,-0.0278 3.44827,0.0278 0.52836,0.0556 -0.0834,1.9188 1.80756,1.52947 1.89099,-0.38931 2.08565,-2.97552 2.86429,-3.17018 0.77864,-0.19466 0.3337,1.36263 2.19688,0.75083 1.86318,-0.61178 0.69521,-3.33703 1.89099,-3.58731 1.19577,-0.25027 0.91768,0.88988 2.36373,-0.13904 1.44605,-1.02892 1.55728,-2.53058 1.91879,-2.97552 0.36152,-0.44494 1.83537,-2.30812 1.83537,-2.30812 l -5.14459,1.83537 -1.80756,-1.02892 -3.2258,1.02892 -1.58509,-1.41824 z"
               id="path1198" />
            <path
               style="fill:#009f01;fill-opacity:1;stroke:#000000;stroke-width:0.600001;stroke-linecap:round;stroke-dasharray:none"
               d="m 271.9405,112.17998 c 0.004,-0.11118 1.47388,-3.00333 2.86429,-3.5595 1.39044,-0.55618 1.69633,0.22247 2.53058,0 0.83426,-0.22247 -1.16795,-3.39265 0.97333,-4.08787 2.14124,-0.69522 2.36373,0.50056 2.72523,0.47275 0.3615,-0.0278 0.6396,-3.47608 2.72524,-3.36485 2.08565,0.11124 1.30701,1.9188 1.891,2.36374 0.58399,0.44493 3.80979,-3.44827 5.06116,-0.9455 1.2514,2.50278 -2.41935,2.83648 -2.41935,3.39265 0,0.55618 2.05785,1.55729 1.08453,2.83648 -0.9733,1.2792 -3.67073,-0.16685 -4.03225,0.58399 -0.3615,0.75083 0.66741,1.80756 0.0834,2.41935 -0.58399,0.61178 -3.67075,-0.16686 -4.00444,0.38932 -0.33372,0.55617 0.91768,2.2803 -0.50057,2.66962 -1.41825,0.38932 -3.8376,0.11124 -5.78419,0.80645 -1.94662,0.69522 -4.72747,2.08565 -4.72747,2.08565 0,0 0.72303,-1.75194 0.80645,-1.86318 0.0834,-0.11123 0.61178,-0.75083 0.61178,-0.75083 z"
               id="path1196"
               sodipodi:nodetypes="ssssssssssssssscscs" />
            <path
               style="fill:#009f01;fill-opacity:1;stroke:#000000;stroke-width:0.600001;stroke-linecap:round;stroke-dasharray:none"
               d="m 268.68432,118.29661 c 0,0 -3.02821,-0.62924 -3.53946,-0.62924 -0.51126,0 -1.45511,1.17982 -3.02821,0.51126 -1.57309,-0.66857 -0.47192,-1.92704 -1.10116,-2.39897 -0.62924,-0.47193 -2.08435,0.15731 -2.67426,-0.4326 -0.58991,-0.58991 -0.39327,-2.98888 -0.39327,-2.98888 l -0.15731,-1.65175 -1.33713,-2.55627 1.57309,-0.51126 c 0,0 -1.14049,-1.53376 0.23597,-2.32031 1.37645,-0.78655 1.69107,0.90453 2.35964,1.02251 0.66856,0.11798 0.66856,-1.10116 1.84838,-0.90453 1.17982,0.19664 0.47193,2.163 0.70789,2.63493 0.23597,0.47193 2.8709,0.4326 2.8709,0.4326 0,0 0.82587,2.20233 0.86521,2.51695 0.0393,0.31462 -0.78655,2.163 -0.78655,2.32032 0,0.1573 1.88769,2.83156 1.88769,2.83156 z"
               id="path1194" />
            <path
               style="fill:#009f01;fill-opacity:1;stroke:#000000;stroke-width:0.600001;stroke-linecap:round;stroke-dasharray:none"
               d="m 253.07137,103.07693 c 0,0 3.50013,0 3.7361,0.70789 0.23596,0.7079 -0.35395,1.02252 -0.31462,1.45512 0.0393,0.4326 2.87089,1.2978 2.55627,2.43829 -0.31462,1.14049 -2.20233,0.4326 -2.24165,1.14049 -0.0393,0.70789 3.22484,2.47763 1.25847,3.97206 -1.96637,1.49444 -2.94955,-1.80905 -3.7361,-1.7304 -0.78654,0.0787 -1.41578,1.25847 -1.41578,1.25847 l -1.92704,0.0393 -0.82587,-3.14619 c 0,0 1.41578,-0.98318 1.25847,-1.61242 -0.15731,-0.62923 -1.84838,0.0393 -2.00569,-0.66856 -0.15731,-0.70789 0.51125,-2.20233 0.51125,-2.20233 l 1.02251,-2.39897 z"
               id="path1192" />
            <path
               style="fill:#009f01;fill-opacity:1;stroke:#000000;stroke-width:0.600001;stroke-linecap:round;stroke-dasharray:none"
               d="m 235.72802,104.21742 c 0,0 -3.7361,0.66857 -3.85408,1.21915 -0.11798,0.55059 0.11798,1.02251 -0.11798,1.41579 -0.23597,0.39327 -3.22484,-0.43261 -2.94955,1.92704 0.27529,2.35963 2.47762,0.62923 3.06753,1.10116 0.58991,0.47193 -0.62924,1.21915 0.4326,1.69108 1.06184,0.47192 2.32031,-1.49444 2.98888,-1.37646 0.66856,0.11798 -0.2753,2.00569 0.70789,2.24166 0.98318,0.23596 2.75291,-0.58991 3.14619,-1.17982 0.39327,-0.58991 0.0393,-0.98319 0.78654,-0.98319 0.74722,0 0.70789,0.98319 1.53377,0.94386 0.82587,-0.0393 2.43829,-2.24166 2.43829,-2.24166 l -0.62924,-2.32031 -0.74721,-2.20233 -3.18552,0.4326 z"
               id="path1170" />
            <path
               style="fill:#009f01;fill-opacity:1;stroke:#000000;stroke-width:0.600001;stroke-linecap:round;stroke-dasharray:none"
               d="m 251.38029,102.76231 c 0,0 0.35395,2.24166 -1.25847,2.71359 -1.61242,0.47193 -1.92704,0.11798 -2.4383,0.51126 -0.51125,0.39327 -5.54515,2.55627 -5.93842,1.57309 -0.39327,-0.98318 0.78655,-2.163 0.11798,-2.63493 -0.66856,-0.47193 -3.18551,1.92704 -4.52264,1.25847 -1.33713,-0.66856 -0.74722,-1.53376 -1.2978,-1.88771 -0.55059,-0.35395 -3.42148,1.25847 -3.7361,-0.51126 -0.31462,-1.76972 0.19664,-2.00569 0.39327,-2.67426 0.19664,-0.66856 -3.30349,-1.140487 -1.96636,-3.342818 1.33712,-2.202331 2.98887,0.314619 3.4608,0.314619 0.47193,0 -0.0787,-2.202331 2.08435,-2.241659 2.163,-0.03932 2.20233,2.634933 2.75291,2.634933 0.55058,0 2.0057,-1.376458 2.0057,-1.376458 l 3.26416,0.511257 0.31462,2.320311 2.16301,0.235965 1.45511,1.2978 1.76973,0.58991 z"
               id="path1168" />
            <path
               style="fill:#009f01;fill-opacity:1;stroke:#000000;stroke-width:0.600001;stroke-linecap:round;stroke-dasharray:none"
               d="m 253.18935,121.79674 c 0,0 -4.20802,-0.11798 -5.11255,-0.27529 -0.90453,-0.15731 -4.05072,-5.15188 -4.05072,-5.15188 0,0 2.04502,0.15731 2.20233,-0.66857 0.15731,-0.82587 -3.14618,-1.17982 -2.91022,-3.06753 0.23596,-1.88771 1.80906,-0.78654 2.08435,-1.37645 0.27529,-0.58991 -3.81475,-3.46081 -0.98318,-4.56197 2.83156,-1.10117 2.5956,2.39896 3.14618,2.5956 0.55059,0.19664 1.96637,-1.49444 3.02821,-0.62924 1.06183,0.8652 0.51125,3.46081 0.74722,3.89341 0.23596,0.4326 1.76973,-1.45511 2.91022,-0.0393 1.14049,1.41579 -0.66857,3.93273 -0.51125,4.32601 0.1573,0.39327 1.41578,0.19663 1.14049,1.33713 -0.27529,1.14049 -1.69108,3.61811 -1.69108,3.61811 z"
               id="path1166" />
            <path
               style="fill:#009f01;fill-opacity:1;stroke:#000000;stroke-width:0.600001;stroke-linecap:round;stroke-dasharray:none"
               d="m 243.67214,87.503308 c 0,0 0.47193,-0.786545 0.58991,-1.415782 0.11798,-0.629238 -0.58991,-1.455111 -0.15731,-2.005695 0.4326,-0.550582 1.06184,0.15731 1.53376,-0.157308 0.47193,-0.314619 -1.10116,-3.146187 1.33713,-3.224843 2.4383,-0.07865 1.5731,2.477622 1.88771,2.792241 0.31462,0.314619 1.1405,-0.668562 1.65175,0.157311 0.51126,0.825873 -0.11798,1.415782 -0.19663,1.966364 -0.0787,0.550585 0.62923,2.280986 0.62923,2.280986 l -0.51125,1.455111 1.21914,2.477622 -1.61242,1.022511 -1.57309,0.07865 -0.27529,-1.966367 -2.91022,0.117983 -0.51126,-2.045023 z"
               id="path1141" />
            <path
               style="fill:#009f01;fill-opacity:1;stroke:#000000;stroke-width:0.600001;stroke-linecap:round;stroke-dasharray:none"
               d="m 247.99814,92.694518 c 0,0 2.67426,0.07865 3.02821,-0.825876 0.35394,-0.904528 -2.47762,-2.084347 -1.61242,-3.50013 0.8652,-1.415786 1.84838,-0.865204 2.35964,-1.022512 0.51125,-0.15731 -0.62924,-4.011387 2.24166,-3.578788 2.87089,0.432602 0.82587,3.893407 1.06183,4.365334 0.23597,0.471929 2.47762,-0.747218 2.79224,1.691076 0.31462,2.438294 -2.04502,3.342823 -1.84838,3.775424 0.19664,0.432599 1.53376,0 2.28098,0.471927 0.74722,0.471929 0.47193,2.67426 0.47193,2.67426 l -2.28098,0.432599 -0.0393,0.983184 1.02251,2.556274 c 0,0 -2.35964,0.15731 -2.91022,0.70789 -0.55058,0.55059 -1.2978,1.53377 -1.2978,1.53377 l -2.35964,-0.11798 -1.02251,-3.500135 0.62923,-3.185514 -0.0786,-1.45511 -1.69108,-0.747218 z"
               id="path1139" />
            <path
               style="fill:#009f01;fill-opacity:1;stroke:#000000;stroke-width:0.600001;stroke-linecap:round;stroke-dasharray:none"
               d="m 266.95392,86.284161 c 0,0 -1.49445,-0.747217 -1.69109,-0.943856 -0.19664,-0.196635 0.35396,-2.752912 -0.51125,-3.067531 -0.86519,-0.314619 -1.25847,0.668565 -1.84838,0.668565 -0.58991,0 0.15731,-3.539458 -2.43829,-2.831568 -2.59561,0.707892 -0.58991,3.618116 -0.70789,3.97206 -0.11799,0.353946 -1.37646,-0.235964 -1.76973,1.219149 -0.39328,1.455111 1.80905,1.730402 1.80905,2.556275 0,0.825876 -1.37645,0.74722 -1.49444,2.359641 -0.11798,1.612419 2.4383,1.337128 2.4383,1.966365 0,0.629237 -1.14049,0.943856 -1.14049,1.651749 0,0.707892 1.41578,1.573093 3.06753,1.92704 1.65174,0.353946 2.163,1.140491 2.163,1.140491 l 0.43259,2.51695 2.7136,0.03933 -1.53377,-4.601297 0.55057,-2.516949 -0.78652,-2.084348 1.06182,-1.455113 z"
               id="path1135" />
            <path
               style="fill:#009f01;fill-opacity:1;stroke:#000000;stroke-width:0.600001;stroke-linecap:round;stroke-dasharray:none"
               d="m 267.82485,99.193354 c 0,0 -1.5851,-0.02781 -1.97443,-0.444939 -0.38931,-0.417129 -0.30589,-2.16907 -1.36262,-2.363732 -1.05673,-0.194659 -1.58509,0.973301 -2.16907,0.778642 -0.58398,-0.194662 -0.6396,-1.585092 -1.86318,-1.668518 -1.22358,-0.08343 -0.77864,0.695217 -1.47385,1.056727 -0.69522,0.361514 -2.61402,-1.251386 -3.42047,0.472747 -0.80645,1.724134 1.5851,2.113455 1.72414,2.41935 0.13904,0.305896 -0.69522,1.334819 -0.13904,2.030029 0.55617,0.69522 2.44715,-0.0834 3.00333,0.22247 0.55617,0.3059 0.0278,1.58509 1.05672,2.03003 1.02892,0.44494 1.6129,-1.00111 2.30812,-0.80645 0.69522,0.19466 0.83426,0.9733 1.25139,1.16796 0.41712,0.19466 2.14128,-0.25028 2.14128,-0.25028 l 2.03001,-0.9733 v -2.78086 z"
               id="path1133" />
            <path
               style="fill:#009f01;fill-opacity:1;stroke:#000000;stroke-width:0.600001;stroke-linecap:round;stroke-dasharray:none"
               d="m 273.91487,86.244834 c 0,0 0.9045,-1.651746 1.53376,-1.691074 0.62923,-0.03933 0.58989,0.629237 1.1798,0.58991 0.58992,-0.03933 0.7079,-3.500134 3.02821,-2.438294 2.32032,1.061836 -0.55057,3.893404 -0.43259,4.286678 0.11798,0.393274 1.33712,0.157311 1.49444,1.219147 0.1573,1.061839 -1.8484,2.045023 -1.88772,2.398967 -0.0393,0.353946 0.86519,2.280986 0.86519,2.280986 0,0 -2.55627,0.589909 -2.67425,0.825873 -0.11798,0.235966 -0.74721,2.831568 -0.74721,2.831568 l -1.53376,0.550582 c 0,0 -0.39328,3.736093 -0.43262,3.893403 -0.0393,0.15731 -1.65174,3.46081 -1.65174,3.46081 l -1.41579,-0.90453 0.2753,-2.83157 -2.35963,-2.241655 2.24165,-2.359639 0.4326,-2.870896 1.2978,-1.809057 -0.58991,-3.38215 z"
               id="path1131" />
            <path
               style="fill:#009f01;fill-opacity:1;stroke:#000000;stroke-width:0.600001;stroke-linecap:round;stroke-dasharray:none"
               d="m 268.95962,102.25106 c 0,0 -3.65744,-6.37103 -3.50015,-7.550849 0.15732,-1.17982 1.10117,-0.707893 1.29781,-1.573094 0.19664,-0.865201 -2.08434,-2.556277 -1.49445,-3.854077 0.58992,-1.297802 1.45513,-0.117983 1.76975,-0.629237 0.31461,-0.511257 -1.57311,-2.713588 -0.98319,-3.460806 0.58991,-0.74722 1.5731,0.314619 2.0057,-0.196635 0.43259,-0.511257 -2.08436,-2.713588 -0.9832,-3.85408 1.10117,-1.140492 1.14049,-0.117983 1.73041,-0.511254 0.58991,-0.393274 -0.35394,-2.634933 2.20234,-2.123678 2.55627,0.511257 0.98319,3.185514 1.25846,3.53946 0.2753,0.353947 2.08436,-0.825873 2.32032,0.393275 0.23595,1.219147 -1.73041,2.280983 -1.65175,2.713585 0.0787,0.432601 2.35964,-0.117983 2.12368,1.219147 -0.23598,1.33713 -2.08436,2.398966 -2.08436,3.028204 0,0.629237 1.69109,0.865203 1.14049,1.887712 -0.55057,1.022511 -1.57308,2.438294 -1.84838,2.988878 -0.27527,0.550583 0.90453,1.573091 0.0393,2.595603 -0.86521,1.022511 -2.75291,3.775426 -2.75291,3.775426 z"
               id="path1129" />
            <path
               style="fill:#009f01;fill-opacity:1;stroke:#000000;stroke-width:0.600001;stroke-linecap:round;stroke-dasharray:none"
               d="m 272.22378,103.98146 c 0,0 1.41579,-2.5956 1.49445,-3.22484 0.0786,-0.62924 -0.70789,-3.421477 0.15729,-4.28668 0.86522,-0.865201 1.37647,-0.117981 1.96639,-0.157308 0.58988,-0.03933 -0.74724,-2.713586 0.43259,-3.618114 1.1798,-0.904528 2.12368,0.668562 2.75291,0.668562 0.62923,0 -0.51125,-2.634929 1.21915,-2.988876 1.7304,-0.353946 1.84838,1.494438 2.28097,1.573094 0.43262,0.07865 1.41579,-4.050716 3.77545,-1.809057 2.35963,2.241658 -2.04505,3.736096 -2.0057,4.208023 0.0393,0.47193 2.24164,0.588876 2.24165,1.33713 3e-5,1.49444 -3.53946,1.33713 -3.57878,2.04502 -0.0393,0.707893 1.92704,0.629238 0.82587,1.848385 -1.10117,1.219151 -3.65744,0.275293 -4.05072,0.747221 -0.39327,0.47193 1.96636,1.53376 0.23596,2.43829 -1.52161,0.79539 -6.05639,2.0057 -6.05639,2.0057 z"
               id="path1031"
               sodipodi:nodetypes="ccssssssssssssscc" />
            <path
               style="fill:#009f01;fill-opacity:1;stroke:#000000;stroke-width:0.6;stroke-linecap:round;stroke-dasharray:none"
               d="m 270.38323,118.96529 -1.75193,0.0556 c 0,0 -0.75084,-2.50278 -1.33483,-3.17018 -0.58399,-0.66741 -2.03004,-1.6129 -1.91878,-2.75305 0.11123,-1.14016 1.0011,-1.36263 1.11233,-1.97442 0.11123,-0.61179 -2.00222,-2.97552 -1.36263,-3.80978 0.63961,-0.83426 1.80758,-0.38932 2.11347,-1.05673 0.30588,-0.6674 -1.58509,-2.61401 -0.86207,-3.42046 0.72303,-0.80645 1.91879,0.0556 2.55839,-0.36151 0.6396,-0.41713 0.25027,-2.947713 2.03004,-2.669625 1.77975,0.278085 0.91768,3.309225 1.16795,3.698545 0.25027,0.38932 1.89098,-0.38932 2.33593,0.77864 0.44492,1.16796 -0.69522,1.9188 -1.14017,2.16907 -0.44492,0.25028 -0.80645,0.86207 -0.75081,1.22358 0.0556,0.36152 2.3359,0.38932 1.72413,1.89099 -0.61179,1.50166 -1.97442,2.33592 -1.97442,3.00333 0,0.66741 0.72302,1.50167 -0.13904,2.86429 -0.86207,1.36262 -1.27921,1.75194 -1.41825,2.08565 -0.13904,0.3337 -0.38931,1.44605 -0.38931,1.44605 z"
               id="path975" />
            <path
               style="fill:#009f01;fill-opacity:1;stroke:#000000;stroke-width:0.600001;stroke-linecap:round;stroke-dasharray:none"
               d="m 251.26231,103.11626 c 0,0 -0.15731,-2.51695 -0.35394,-3.10686 -0.19664,-0.589909 -0.7079,-0.8652 -0.4326,-1.848384 0.27529,-0.983184 1.45511,-3.067531 0.90452,-4.090043 -0.55058,-1.022511 -1.61242,0.353946 -2.20233,-0.03933 -0.58991,-0.393271 0.23597,-2.988876 -0.98318,-3.775421 -1.21915,-0.786548 -1.53377,0.943853 -2.43829,0.786545 -0.90453,-0.15731 0.15731,-3.893404 -1.69108,-4.011387 -1.84838,-0.117983 -1.76973,0.904528 -1.92704,0.943856 -0.15731,0.03933 -0.74722,-3.146187 -2.98887,-1.691077 -2.24166,1.455113 1.17981,3.578789 1.10116,3.932735 -0.0787,0.353944 -2.71359,0.471927 -2.55628,2.04502 0.15731,1.573094 3.34283,1.494438 3.42148,2.04502 0.0787,0.550585 -1.37645,1.297803 -1.33713,2.595605 0.0393,1.297803 3.18551,0.825873 3.77542,1.258475 0.58992,0.432602 -0.43259,1.769729 0.62924,2.634936 1.06184,0.8652 2.04502,0.0393 2.63493,0.23596 0.58991,0.19664 1.29781,1.49444 2.39897,1.88771 1.10117,0.39328 2.04502,0.19664 2.04502,0.19664 z"
               id="path1137" />
            <path
               style="fill:#009f01;fill-opacity:1;stroke:#000000;stroke-width:0.600001;stroke-linecap:round;stroke-dasharray:none"
               d="m 248.54873,121.56078 c 0,0 -3.34283,1.96636 -4.95525,2.12367 -1.61242,0.15731 -0.98318,-1.14049 -1.80905,-1.17982 -0.82588,-0.0393 -2.04502,1.61242 -3.14619,1.53377 -1.10117,-0.0786 -0.51126,-1.92704 -1.69108,-1.96637 -1.17981,-0.0393 -1.49443,2.0057 -2.87089,1.21915 -1.37646,-0.78655 -0.74722,-1.37646 -1.17982,-1.80906 -0.4326,-0.4326 -2.8709,-0.4326 -2.75291,-2.28098 0.11798,-1.84839 2.47762,-1.41579 2.94955,-1.45511 0.47192,-0.0393 0.27529,-1.65175 1.41578,-1.92704 1.14049,-0.27529 2.00569,1.14049 2.43829,1.06184 0.4326,-0.0787 -0.15731,-2.04503 1.73041,-2.0057 1.88771,0.0393 1.92704,2.04502 2.55627,2.08435 0.62924,0.0393 0.47193,-1.84839 1.80906,-1.61242 1.33713,0.23596 2.04502,2.00569 2.67426,2.87089 0.62923,0.8652 2.51695,0.55059 2.75291,1.25848 0.23597,0.70789 0.0787,2.08435 0.0787,2.08435 z"
               id="path1162" />
            <path
               style="fill:#000000;stroke:none;stroke-width:0.600001;stroke-linecap:round;stroke-dasharray:none"
               d="m 269.84446,119.06349 c 0,0 12.82073,5.42717 12.72241,5.66314 -0.0983,0.23596 -13.72523,-5.52549 -13.72523,-5.52549 z"
               id="path1267" />
            <path
               style="fill:#000000;stroke:none;stroke-width:0.600001;stroke-linecap:round;stroke-dasharray:none"
               d="m 273.08897,120.5776 c 0,0 2.222,-0.78655 2.20234,-0.62924 -0.0196,0.15731 -1.43545,1.0815 -1.43545,1.0815 z"
               id="path1377" />
            <path
               style="fill:#000000;stroke:none;stroke-width:0.600001;stroke-linecap:round;stroke-dasharray:none"
               d="m 276.43179,122.03271 c 0,0 3.06756,-1.53377 3.12653,-1.33713 0.059,0.19663 -2.61527,1.69107 -2.61527,1.69107 z"
               id="path1379" />
            <path
               style="fill:#000000;stroke:none;stroke-width:0.600001;stroke-linecap:round;stroke-dasharray:none"
               d="m 272.12546,120.3023 c 0,0 0.90453,3.5198 1.08151,3.48047 0.17696,-0.0393 -0.29495,-3.10686 -0.29495,-3.10686 z"
               id="path1381" />
            <path
               style="fill:#000000;stroke:none;stroke-width:0.600001;stroke-linecap:round;stroke-dasharray:none"
               d="m 276.23516,122.0917 c 0,0 0.55059,2.98887 0.78655,2.92988 0.23596,-0.059 -0.19664,-2.77257 -0.19664,-2.77257 z"
               id="path1383" />
            <path
               style="fill:#000000;stroke:none;stroke-width:0.600001;stroke-linecap:round;stroke-dasharray:none"
               d="m 280.2269,123.78277 c 0,0 0.84553,2.18267 1.02251,2.10401 0.17698,-0.0786 -0.62923,-2.02535 -0.62923,-2.02535 z"
               id="path1385" />
            <path
               style="fill:#000000;stroke:none;stroke-width:0.1;stroke-linecap:round;stroke-dasharray:none"
               d="m 272.14512,116.13361 c 0,0 13.96119,-11.12963 14.11851,-10.73636 0.0798,0.1995 -3.53422,2.81538 -7.00536,5.53655 -3.37149,2.64304 -6.60189,5.39644 -6.60189,5.39644 z"
               id="path926"
               sodipodi:nodetypes="csscc" />
            <path
               style="fill:#000000;stroke:none;stroke-width:0.1;stroke-linecap:round;stroke-dasharray:none"
               d="m 275.69467,113.45918 c 0,0 0.19468,-3.42046 0.38933,-3.42046 0.19465,0 0.11123,3.11456 0.11123,3.11456 z"
               id="path1132" />
            <path
               style="fill:#000000;stroke:none;stroke-width:0.1;stroke-linecap:round;stroke-dasharray:none"
               d="m 276.64018,112.93081 c 0,0 2.39154,0.19466 2.25248,0.47275 -0.13904,0.27809 -2.69743,-0.19466 -2.69743,-0.19466 z"
               id="path1134" />
            <path
               style="fill:#000000;stroke:none;stroke-width:0.1;stroke-linecap:round;stroke-dasharray:none"
               d="m 279.9216,110.20557 c 0,-0.11123 0.0278,-3.05895 0.25027,-3.03114 0.22246,0.0278 0.30588,2.55839 0.30588,2.55839 z"
               id="path1136" />
            <path
               style="fill:#000000;stroke:none;stroke-width:0.1;stroke-linecap:round;stroke-dasharray:none"
               d="m 280.3109,109.89967 c 0,0 2.50278,0.25028 2.47497,0.50056 -0.0278,0.25028 -2.9755,0.0278 -2.9755,0.0278 z"
               id="path1138" />
            <path
               style="fill:#000000;stroke:none;stroke-width:0.1;stroke-linecap:round;stroke-dasharray:none"
               d="m 283.70355,107.3969 c 0,0 2.33593,0.11123 2.28031,0.30589 -0.0556,0.19466 -2.91989,0.11124 -2.91989,0.11124 z"
               id="path1140" />
            <path
               style="fill:#000000;stroke:none;stroke-width:0.1;stroke-linecap:round;stroke-dasharray:none"
               d="m 283.11959,107.59156 c 0,0 0.0278,-2.78086 0.25027,-2.72525 0.22246,0.0556 0.11123,2.44716 0.11123,2.44716 z"
               id="path1142" />
            <path
               style="fill:#000000;stroke:none;stroke-width:0.1;stroke-linecap:round;stroke-dasharray:none"
               d="m 268.93718,118.07541 c 0,-0.11124 0.80645,-14.84981 1.08453,-14.87761 0.2781,-0.0278 -0.38931,14.71076 -0.38931,14.71076 z"
               id="path1144" />
            <path
               style="fill:#000000;stroke:none;stroke-width:0.1;stroke-linecap:round;stroke-dasharray:none"
               d="m 269.82705,111.37353 c 0,0 1.55729,-2.14126 1.72413,-1.9466 0.16688,0.19466 -1.91878,3.00333 -1.91878,3.00333 z"
               id="path1146" />
            <path
               style="fill:#000000;stroke:none;stroke-width:0.1;stroke-linecap:round;stroke-dasharray:none"
               d="m 269.46555,115.40578 c 0.13904,0 1.36261,-1.91879 1.50167,-1.75194 0.13904,0.16685 -1.41824,2.5862 -1.41824,2.5862 z"
               id="path1148" />
            <path
               style="fill:#000000;stroke:none;stroke-width:0.1;stroke-linecap:round;stroke-dasharray:none"
               d="m 269.85486,107.14662 c 0,0 1.8632,-2.2525 2.03004,-1.97441 0.16685,0.27808 -2.05785,2.55839 -2.05785,2.55839 z"
               id="path1150" />
            <path
               style="fill:#000000;stroke:none;stroke-width:0.1;stroke-linecap:round;stroke-dasharray:none"
               d="m 269.82705,106.56264 c 0,0 -1.08452,-1.89099 -1.30698,-1.69633 -0.22249,0.19466 1.25137,2.36374 1.25137,2.36374 z"
               id="path1152" />
            <path
               style="fill:#000000;stroke:none;stroke-width:0.1;stroke-linecap:round;stroke-dasharray:none"
               d="m 269.54898,110.9564 c 0,0 -2.16908,-2.61401 -2.39155,-2.39154 -0.22246,0.22247 2.44716,3.33703 2.44716,3.33703 z"
               id="path1154" />
            <path
               style="fill:#000000;stroke:none;stroke-width:0.1;stroke-linecap:round;stroke-dasharray:none"
               d="m 269.40994,114.79399 c 0,0 -1.69632,-2.05784 -1.89101,-1.89098 -0.19465,0.16685 1.89101,2.50277 1.89101,2.50277 z"
               id="path1156" />
            <path
               style="fill:#000000;stroke:none;stroke-width:0.1;stroke-linecap:round;stroke-dasharray:none"
               d="m 268.03543,118.37526 c 0,0 -3.77544,2.222 -5.21088,4.54231 -0.98083,1.58545 -1.86805,4.93558 -1.65175,4.97491 0.2163,0.0393 1.1405,-4.26702 3.12653,-6.07607 1.98604,-1.80906 4.09003,-3.24451 4.09003,-3.24451 z"
               id="path1207"
               sodipodi:nodetypes="cssscc" />
            <path
               style="fill:#000000;stroke:none;stroke-width:0.1;stroke-linecap:round;stroke-dasharray:none"
               d="m 264.98756,121.04952 c 0.1573,0 0.78653,3.42148 0.96351,3.42148 0.17698,0 -0.57023,-3.71643 -0.57023,-3.71643 z"
               id="path1209" />
            <path
               style="fill:#000000;stroke:none;stroke-width:0.1;stroke-linecap:round;stroke-dasharray:none"
               d="m 265.45947,120.24331 c 0,0 -3.36248,-0.90453 -3.36248,-0.60957 0,0.29495 3.10687,0.98318 3.10687,0.98318 z"
               id="path1211" />
            <path
               style="fill:#000000;stroke:none;stroke-width:0.1;stroke-linecap:round;stroke-dasharray:none"
               d="m 263.27681,122.56363 c 0,0 -3.4608,-0.0197 -3.42147,0.25562 0.0393,0.27529 3.12652,0.23597 3.12652,0.23597 z"
               id="path1213" />
            <path
               style="fill:#000000;stroke:none;stroke-width:0.1;stroke-linecap:round;stroke-dasharray:none"
               d="m 262.58859,123.94008 c 0,0 0.58991,3.00854 0.74721,2.94955 0.15731,-0.059 -0.35394,-3.73609 -0.35394,-3.73609 z"
               id="path1215" />
            <path
               style="fill:#000000;stroke:none;stroke-width:0.1;stroke-linecap:round;stroke-dasharray:none"
               d="m 250.94501,121.89909 c 0,0 -1.90489,1.94661 -2.83648,3.08676 -0.93159,1.14016 -2.01613,2.8921 -1.9188,2.94771 0.0973,0.0556 2.48887,-2.97552 3.44827,-4.10177 0.9594,-1.12625 2.12736,-2.00222 2.12736,-2.00222 z"
               id="path1271" />
            <path
               style="fill:#000000;stroke:none;stroke-width:0.1;stroke-linecap:round;stroke-dasharray:none"
               d="m 249.3182,123.76227 c 0,0 0.26418,1.77976 0.41713,1.75194 0.15295,-0.0278 0.0278,-1.98831 0.0278,-1.98831 z"
               id="path1273" />
            <path
               style="fill:#000000;stroke:none;stroke-width:0.1;stroke-linecap:round;stroke-dasharray:none"
               d="m 247.60797,126.1121 c 0,0 -0.0278,1.26529 0.0834,1.23748 0.11123,-0.0278 0.13904,-0.0417 0.13904,-0.0417 l 0.0695,-1.59899 z"
               id="path1275" />
            <path
               style="fill:#000000;stroke:none;stroke-width:0.1;stroke-linecap:round;stroke-dasharray:none"
               d="m 242.90526,123.74345 c 0,0 -7.37388,3.71643 -7.17724,3.99172 0.19664,0.27529 8.00311,-3.83442 8.00311,-3.83442 z"
               id="path1277" />
            <path
               style="fill:#000000;stroke:none;stroke-width:0.1;stroke-linecap:round;stroke-dasharray:none"
               d="m 244.36037,123.64513 c 0,0 -0.55059,1.75006 -0.29496,1.69107 0.25563,-0.059 0.78655,-1.84838 0.78655,-1.84838 z"
               id="path1279" />
            <path
               style="fill:#000000;stroke:none;stroke-width:0.1;stroke-linecap:round;stroke-dasharray:none"
               d="m 240.70292,125.29688 c 0,0 -0.88486,2.73324 -0.5899,2.71358 0.29495,-0.0197 1.10116,-2.94955 1.10116,-2.94955 z"
               id="path1281" />
            <path
               style="fill:#000000;stroke:none;stroke-width:0.1;stroke-linecap:round;stroke-dasharray:none"
               d="m 239.26748,125.86712 c 0,0 -1.90738,-0.70789 -1.98603,-0.49159 -0.0787,0.2163 1.5141,0.82587 1.5141,0.82587 z"
               id="path1283" />
            <path
               style="fill:#000000;stroke:none;stroke-width:0.1;stroke-linecap:round;stroke-dasharray:none"
               d="m 248.37271,120.13325 c 0,0 -12.94492,-1.58509 -12.9032,-1.16796 0.0417,0.41712 12.88929,1.55728 12.88929,1.55728 z"
               id="path1346" />
            <path
               style="fill:#000000;stroke:none;stroke-width:0.1;stroke-linecap:round;stroke-dasharray:none"
               d="m 245.25814,119.79954 c 0,0 -1.9605,-2.6001 -2.18297,-2.53058 -0.22247,0.0695 1.76584,2.5862 1.76584,2.5862 z"
               id="path1348" />
            <path
               style="fill:#000000;stroke:none;stroke-width:0.1;stroke-linecap:round;stroke-dasharray:none"
               d="m 244.54902,120.10544 c 0,0 -1.40433,1.12625 -1.2931,1.18187 0.11123,0.0556 2.15517,-1.19578 2.15517,-1.19578 z"
               id="path1350" />
            <path
               style="fill:#000000;stroke:none;stroke-width:0.1;stroke-linecap:round;stroke-dasharray:none"
               d="m 240.96171,119.59098 c 0,0 -2.14126,1.89098 -1.98832,1.98831 0.15295,0.0973 2.65573,-1.87708 2.65573,-1.87708 z"
               id="path1352" />
            <path
               style="fill:#000000;stroke:none;stroke-width:0.1;stroke-linecap:round;stroke-dasharray:none"
               d="m 240.03012,119.42413 c 0,0 -1.20967,-2.01613 -1.02892,-2.07174 0.18076,-0.0556 1.75195,2.09955 1.75195,2.09955 z"
               id="path1354" />
            <path
               style="fill:#000000;stroke:none;stroke-width:0.1;stroke-linecap:round;stroke-dasharray:none"
               d="m 253.39216,121.63491 c 0.0278,-0.0556 2.03003,-1.65461 2.86429,-2.00222 0.83426,-0.34761 1.96051,-0.52836 1.96051,-0.34761 0,0.18076 -1.45995,0.44494 -2.18298,0.93159 -0.72302,0.48666 -2.906,2.44716 -2.906,2.44716 z"
               id="path1356" />
            <path
               style="fill:#000000;stroke:none;stroke-width:0.1;stroke-linecap:round;stroke-dasharray:none"
               d="m 255.31096,120.25839 c 0,0 0.48665,-1.47386 0.62569,-1.43215 0.13905,0.0417 -0.22247,1.34872 -0.22247,1.34872 z"
               id="path1358" />
            <path
               style="fill:#000000;stroke:none;stroke-width:0.1;stroke-linecap:round;stroke-dasharray:none"
               d="m 252.50112,121.06919 c 0,0 -5.8401,-10.0678 -5.6238,-10.14645 0.2163,-0.0787 6.29237,10.26443 6.29237,10.26443 z"
               id="path1360" />
            <path
               style="fill:#000000;stroke:none;stroke-width:0.1;stroke-linecap:round;stroke-dasharray:none"
               d="m 250.86904,117.7067 c 0,0 1.16016,-3.22484 1.33713,-3.12652 0.17697,0.0983 -0.96352,3.65744 -0.96352,3.65744 z"
               id="path1362" />
            <path
               style="fill:#000000;stroke:none;stroke-width:0.1;stroke-linecap:round;stroke-dasharray:none"
               d="m 252.18651,119.79105 c 0,0 0.53092,-1.49444 0.70789,-1.45511 0.17697,0.0393 -0.45227,2.02536 -0.45227,2.02536 z"
               id="path1364" />
            <path
               style="fill:#000000;stroke:none;stroke-width:0.1;stroke-linecap:round;stroke-dasharray:none"
               d="m 250.4561,117.29376 c 0,0 -2.8119,-0.76688 -2.89056,-0.49159 -0.0787,0.27529 3.22485,1.04218 3.22485,1.04218 z"
               id="path1366" />
            <path
               style="fill:#000000;stroke:none;stroke-width:0.1;stroke-linecap:round;stroke-dasharray:none"
               d="m 248.96167,114.38354 c 0,0 0.0393,-2.77258 0.2163,-2.77258 0.17697,0 0.13764,3.46081 0.13764,3.46081 z"
               id="path1368" />
            <path
               style="fill:#000000;stroke:none;stroke-width:0.1;stroke-linecap:round;stroke-dasharray:none"
               d="m 248.21445,113.3217 c 0,0 -1.80906,-0.57024 -1.82872,-0.31462 -0.0197,0.25563 2.24165,0.94386 2.24165,0.94386 z"
               id="path1370" />
            <path
               style="fill:#000000;stroke:none;stroke-width:0.1;stroke-linecap:round;stroke-dasharray:none"
               d="m 242.90526,107.73722 c 0,0 -7.39354,-0.13764 -7.35421,0.15731 0.0393,0.29496 7.90479,0.4326 7.90479,0.4326 z"
               id="path1446" />
            <path
               style="fill:#000000;stroke:none;stroke-width:0.1;stroke-linecap:round;stroke-dasharray:none"
               d="m 239.26748,108.05184 c 0,0 -2.26132,1.67141 -2.14334,1.90738 0.11798,0.23596 2.92988,-1.88772 2.92988,-1.88772 z"
               id="path1448" />
            <path
               style="fill:#000000;stroke:none;stroke-width:0.1;stroke-linecap:round;stroke-dasharray:none"
               d="m 239.89672,107.93386 c 0,0 -1.33713,-1.33713 -1.51411,-1.1405 -0.17697,0.19664 0.80621,1.10117 0.80621,1.10117 z"
               id="path1450" />
            <path
               style="fill:#000000;stroke:none;stroke-width:0.1;stroke-linecap:round;stroke-dasharray:none"
               d="m 249.66956,103.84382 c 0,0 -3.91307,-0.80621 -8.25874,-2.02536 -4.34567,-1.21915 -7.35421,-2.634933 -7.39354,-2.339978 -0.0393,0.294955 5.56482,2.379298 8.14076,3.047868 2.57594,0.66856 7.6295,1.7304 7.6295,1.7304 z"
               id="path1452" />
            <path
               style="fill:#000000;stroke:none;stroke-width:0.1;stroke-linecap:round;stroke-dasharray:none"
               d="m 245.57952,103.17525 c 0,0 -2.04503,1.17982 -2.0057,1.33713 0.0393,0.15731 2.79224,-1.16015 2.79224,-1.16015 z"
               id="path1454" />
            <path
               style="fill:#000000;stroke:none;stroke-width:0.1;stroke-linecap:round;stroke-dasharray:none"
               d="m 241.50914,102.21173 c 0,0 -3.40182,1.59276 -3.24451,1.76973 0.15731,0.17697 4.09004,-1.57309 4.09004,-1.57309 z"
               id="path1456" />
            <path
               style="fill:#000000;stroke:none;stroke-width:0.1;stroke-linecap:round;stroke-dasharray:none"
               d="m 237.83203,101.03191 c 0,0 -3.91307,1.0815 -3.81475,1.31747 0.0983,0.23596 4.62096,-1.06184 4.62096,-1.06184 z"
               id="path1458" />
            <path
               style="fill:#000000;stroke:none;stroke-width:0.1;stroke-linecap:round;stroke-dasharray:none"
               d="m 238.14665,101.03191 c 0,0 -1.82872,-2.615267 -1.59276,-2.674256 0.23597,-0.05899 2.222,2.870896 2.222,2.870896 z"
               id="path1460" />
            <path
               style="fill:#000000;stroke:none;stroke-width:0.1;stroke-linecap:round;stroke-dasharray:none"
               d="m 241.68611,102.07409 c 0,0 -1.49444,-2.359644 -1.23881,-2.497289 0.25562,-0.137646 1.96637,2.674259 1.96637,2.674259 z"
               id="path1462" />
            <path
               style="fill:#000000;stroke:none;stroke-width:0.1;stroke-linecap:round;stroke-dasharray:none"
               d="m 246.93631,103.39155 c 0,0 -1.59276,-1.67141 -1.43545,-1.76973 0.15731,-0.0983 2.20233,1.98603 2.20233,1.98603 z"
               id="path1464" />
            <path
               style="fill:#000000;stroke:none;stroke-width:0.1;stroke-linecap:round;stroke-dasharray:none"
               d="m 251.41962,102.91962 c 0,0 3.97206,7.19691 4.18836,7.09859 0.21631,-0.0983 -3.55912,-7.21657 -3.55912,-7.21657 z"
               id="path1550" />
            <path
               style="fill:#000000;stroke:none;stroke-width:0.1;stroke-linecap:round;stroke-dasharray:none"
               d="m 253.81859,106.95068 c 0,0 -0.88486,2.22199 -0.60957,2.24165 0.27529,0.0197 0.98318,-1.7304 0.98318,-1.7304 z"
               id="path1552" />
            <path
               style="fill:#000000;stroke:none;stroke-width:0.1;stroke-linecap:round;stroke-dasharray:none"
               d="m 253.95624,106.61639 c 0,0 2.45796,0.31462 2.43829,0.53092 -0.0197,0.2163 -2.20233,0.059 -2.20233,0.059 z"
               id="path1554" />
            <path
               style="fill:#000000;stroke:none;stroke-width:0.1;stroke-linecap:round;stroke-dasharray:none"
               d="m 252.63877,104.86633 c 0,0 -0.76688,1.33712 -0.57024,1.41578 0.19663,0.0787 0.90452,-0.90453 0.90452,-0.90453 z"
               id="path1556" />
            <path
               style="fill:#000000;stroke:none;stroke-width:0.1;stroke-linecap:round;stroke-dasharray:none"
               d="m 250.4561,101.77913 c 0,0 -6.78396,-9.930149 -7.03959,-9.851496 -0.25563,0.07865 6.80363,10.244766 6.80363,10.244766 z"
               id="path1558" />
            <path
               style="fill:#000000;stroke:none;stroke-width:0.1;stroke-linecap:round;stroke-dasharray:none"
               d="m 248.03747,98.55429 c 0.0393,-0.07865 0.62924,-2.969212 0.76689,-2.89056 0.13764,0.07866 -0.45227,3.323162 -0.45227,3.323162 z"
               id="path1560" />
            <path
               style="fill:#000000;stroke:none;stroke-width:0.1;stroke-linecap:round;stroke-dasharray:none"
               d="m 245.83514,95.270459 c 0,0 0.53092,-2.67426 0.7079,-2.654596 0.17697,0.01966 -0.33429,3.303497 -0.33429,3.303497 z"
               id="path1562" />
            <path
               style="fill:#000000;stroke:none;stroke-width:0.1;stroke-linecap:round;stroke-dasharray:none"
               d="m 245.89413,95.781713 c 0,0 -2.73325,-0.668565 -2.73325,-0.37361 0,0.294955 3.22485,0.924192 3.22485,0.924192 z"
               id="path1564" />
            <path
               style="fill:#000000;stroke:none;stroke-width:0.1;stroke-linecap:round;stroke-dasharray:none"
               d="m 248.09646,98.790253 c 0,0 -2.77257,-0.137644 -2.77257,0.117983 0,0.255628 3.06753,0.393274 3.06753,0.393274 z"
               id="path1566" />
            <path
               style="fill:#000000;stroke:none;stroke-width:0.1;stroke-linecap:round;stroke-dasharray:none"
               d="m 252.25201,102.5582 c 0,0 0.80645,-4.171296 1.08454,-8.537249 0.27808,-4.365953 0.0278,-6.785303 0.36151,-6.813113 0.3337,-0.02781 0.19466,7.480519 0.0278,8.843142 -0.16685,1.362623 -1.11235,6.78531 -1.11235,6.78531 z"
               id="path1661" />
            <path
               style="fill:#000000;stroke:none;stroke-width:0.1;stroke-linecap:round;stroke-dasharray:none"
               d="m 253.72587,92.269007 c 0,0 1.97441,-1.863177 2.14126,-1.668515 0.16685,0.194659 -2.14126,2.502776 -2.14126,2.502776 z"
               id="path1663" />
            <path
               style="fill:#000000;stroke:none;stroke-width:0.1;stroke-linecap:round;stroke-dasharray:none"
               d="m 253.67025,92.491477 c 0,0 -1.86318,-3.642929 -2.08565,-3.309226 -0.22246,0.333703 2.03003,4.115676 2.03003,4.115676 z"
               id="path1665" />
            <path
               style="fill:#000000;stroke:none;stroke-width:0.1;stroke-linecap:round;stroke-dasharray:none"
               d="m 253.41997,97.191133 c 0,0 2.36374,-1.946603 2.44716,-1.640708 0.0834,0.305896 -2.64182,2.669628 -2.64182,2.669628 z"
               id="path1667" />
            <path
               style="fill:#000000;stroke:none;stroke-width:0.1;stroke-linecap:round;stroke-dasharray:none"
               d="m 253.1975,97.302369 c 0,0 -1.44605,-2.141265 -1.77975,-1.918795 -0.3337,0.222469 1.80756,2.78086 1.80756,2.78086 z"
               id="path1669" />
            <path
               style="fill:#000000;stroke:none;stroke-width:0.1;stroke-linecap:round;stroke-dasharray:none"
               d="m 266.93497,117.15772 c 0,0 -6.34037,-7.81422 -6.47942,-7.61956 -0.13904,0.19466 5.53391,7.53614 5.53391,7.53614 z"
               id="path1671" />
            <path
               style="fill:#000000;stroke:none;stroke-width:0.1;stroke-linecap:round;stroke-dasharray:none"
               d="m 262.01284,111.51257 c 0,0 -0.16685,-2.94771 0.0834,-2.89209 0.25028,0.0556 0.33371,3.36484 0.33371,3.36484 z"
               id="path1673" />
            <path
               style="fill:#000000;stroke:none;stroke-width:0.1;stroke-linecap:round;stroke-dasharray:none"
               d="m 263.62574,113.76507 c 0,0 -3.89321,-0.88987 -3.92102,-0.52836 -0.0278,0.36151 4.42157,1.05673 4.42157,1.05673 z"
               id="path1675" />
            <path
               style="fill:#000000;stroke:none;stroke-width:0.1;stroke-linecap:round;stroke-dasharray:none"
               d="m 265.4055,116.07319 c 0,0 -2.36374,-0.25028 -2.30813,0.0556 0.0556,0.30589 2.72524,0.36151 2.72524,0.36151 z"
               id="path1677" />
            <path
               style="fill:#000000;stroke:none;stroke-width:0.1;stroke-linecap:round;stroke-dasharray:none"
               d="m 273.85586,103.64718 c 0,0 7.03959,-9.458224 7.27557,-9.182933 0.23596,0.275291 -6.82331,9.458223 -6.82331,9.458223 z"
               id="path1781" />
            <path
               style="fill:#000000;stroke:none;stroke-width:0.1;stroke-linecap:round;stroke-dasharray:none"
               d="m 278.2802,97.925053 c 0,0 -0.41293,-2.51695 -0.21632,-2.51695 0.19664,0 0.60957,2.241659 0.60957,2.241659 z"
               id="path1783" />
            <path
               style="fill:#000000;stroke:none;stroke-width:0.1;stroke-linecap:round;stroke-dasharray:none"
               d="m 277.7886,98.888573 c 0.1573,0 3.32314,-1.160156 3.32314,-0.845537 0,0.314618 -3.87373,1.494438 -3.87373,1.494438 z"
               id="path1785" />
            <path
               style="fill:#000000;stroke:none;stroke-width:0.1;stroke-linecap:round;stroke-dasharray:none"
               d="m 276.23516,100.89427 c 0,0 -0.41294,-3.185517 -0.58989,-3.106864 -0.17698,0.07865 0.13763,3.637784 0.13763,3.637784 z"
               id="path1787" />
            <path
               style="fill:#000000;stroke:none;stroke-width:0.1;stroke-linecap:round;stroke-dasharray:none"
               d="m 268.60566,102.15274 c 0,0 -9.63519,-4.129368 -9.75317,-3.814749 -0.11798,0.314618 9.59587,4.149029 9.59587,4.149029 z"
               id="path1789" />
            <path
               style="fill:#000000;stroke:none;stroke-width:0.1;stroke-linecap:round;stroke-dasharray:none"
               d="m 264.55495,100.59931 c 0,0 -1.12083,-2.733249 -0.90453,-2.752913 0.2163,-0.01966 1.5731,3.087193 1.5731,3.087193 z"
               id="path1791" />
            <path
               style="fill:#000000;stroke:none;stroke-width:0.1;stroke-linecap:round;stroke-dasharray:none"
               d="m 263.43412,100.32402 c 0,0 -1.67141,1.17982 -1.61242,1.35679 0.059,0.17697 2.26132,-1.06184 2.26132,-1.06184 z"
               id="path1793" />
            <path
               style="fill:#000000;stroke:none;stroke-width:0.1;stroke-linecap:round;stroke-dasharray:none"
               d="m 260.77953,99.104872 c 0,0 -1.00285,-2.005692 -0.76688,-2.025356 0.23596,-0.01966 1.35679,2.280983 1.35679,2.280983 z"
               id="path1795" />
            <path
               style="fill:#000000;stroke:none;stroke-width:0.1;stroke-linecap:round;stroke-dasharray:none"
               d="m 260.44525,99.065544 c 0,0 -1.71074,0.904529 -1.53377,1.081506 0.17697,0.17697 2.26132,-0.806215 2.26132,-0.806215 z"
               id="path1797" />
            <path
               style="fill:#000000;stroke:none;stroke-width:0.1;stroke-linecap:round;stroke-dasharray:none"
               d="m 268.82595,99.860763 c 0,0 1.36263,-16.740791 1.75194,-16.685175 0.38933,0.05562 -1.36263,17.575052 -1.36263,17.575052 z"
               id="path1910" />
            <path
               style="fill:#000000;stroke:none;stroke-width:0.1;stroke-linecap:round;stroke-dasharray:none"
               d="m 270.272,88.709504 c 0.13904,-0.05562 2.00221,-2.502776 2.19687,-2.308116 0.19468,0.194662 -2.3081,3.309225 -2.3081,3.309225 z"
               id="path1912" />
            <path
               style="fill:#000000;stroke:none;stroke-width:0.1;stroke-linecap:round;stroke-dasharray:none"
               d="m 270.13297,88.57046 c 0,0 -1.50167,-2.586201 -1.72416,-2.252498 -0.22246,0.333703 1.55728,2.919907 1.55728,2.919907 z"
               id="path1914" />
            <path
               style="fill:#000000;stroke:none;stroke-width:0.1;stroke-linecap:round;stroke-dasharray:none"
               d="m 269.76583,93.422075 c 0,0 2.32032,-2.457961 2.45795,-2.261323 0.13764,0.196636 -2.55627,2.870896 -2.55627,2.870896 z"
               id="path1916" />
            <path
               style="fill:#000000;stroke:none;stroke-width:0.1;stroke-linecap:round;stroke-dasharray:none"
               d="m 269.56919,92.596199 c 0,0 -2.02536,-2.339975 -2.20234,-2.163003 -0.17698,0.176974 2.26132,3.067531 2.26132,3.067531 z"
               id="path1918" />
            <path
               style="fill:#000000;stroke:none;stroke-width:0.1;stroke-linecap:round;stroke-dasharray:none"
               d="m 264.9089,96.686242 c 0,0 -1.55343,-4.581634 -2.26132,-7.432866 -0.7079,-2.851232 -0.96352,-4.601297 -0.74722,-4.601297 0.2163,0 1.0815,4.93558 1.75006,6.842956 0.66857,1.907376 1.78939,5.328854 1.78939,5.328854 z"
               id="path1920" />
            <path
               style="fill:#000000;stroke:none;stroke-width:0.1;stroke-linecap:round;stroke-dasharray:none"
               d="m 262.66724,88.250529 c 0,0 0.72756,-3.460806 0.90453,-3.342823 0.17697,0.117983 -0.76688,3.952396 -0.76688,3.952396 z"
               id="path1922" />
            <path
               style="fill:#000000;stroke:none;stroke-width:0.1;stroke-linecap:round;stroke-dasharray:none"
               d="m 263.9847,93.048464 c 0,0 0.39328,-1.730404 0.58991,-1.671412 0.19665,0.05899 -0.39327,2.182667 -0.39327,2.182667 z"
               id="path1924" />
            <path
               style="fill:#000000;stroke:none;stroke-width:0.1;stroke-linecap:round;stroke-dasharray:none"
               d="m 262.29363,86.775755 c 0,0 -1.16016,-1.356794 -1.43545,-1.17982 -0.27529,0.176972 1.5731,1.769729 1.5731,1.769729 z"
               id="path1926" />
            <path
               style="fill:#000000;stroke:none;stroke-width:0.1;stroke-linecap:round;stroke-dasharray:none"
               d="m 263.08018,90.216896 c 0,0 -2.4383,-1.474774 -2.61527,-1.278138 -0.17697,0.196635 2.79224,1.868048 2.79224,1.868048 z"
               id="path1928" />
            <path
               style="fill:#000000;stroke:none;stroke-width:0.1;stroke-linecap:round;stroke-dasharray:none"
               d="m 264.20101,94.169292 c 0,0 -2.53662,-0.96352 -2.71359,-0.688229 -0.17697,0.275291 2.92989,1.278139 2.92989,1.278139 z"
               id="path1930" />
          </g>
        </g>
        <path
           style="fill:none;fill-opacity:1;stroke:#000000;stroke-width:0.600001;stroke-linecap:round;stroke-dasharray:none"
           d="m 256.1389,140.16261 c 0,0 0.47193,3.06753 0.78655,5.93842 0.31462,2.8709 0.47193,6.41036 0.47193,6.41036 l -1.06184,-0.8652 c 0,0 -0.4326,2.28098 -1.2978,4.09004 -0.8652,1.80906 -2.20233,4.75861 -2.20233,4.75861"
           id="path5777" />
        <path
           style="fill:none;fill-opacity:1;stroke:#000000;stroke-width:0.600001;stroke-linecap:round;stroke-dasharray:none"
           d="m 259.36374,148.10673 c 0,0 0.39328,2.79224 0.19664,4.40466 -0.19664,1.61242 -1.06184,2.83157 -1.06184,4.44399 0,1.61242 0.15731,4.12936 0.15731,4.12936"
           id="path5779" />
        <path
           style="fill:none;fill-opacity:1;stroke:#000000;stroke-width:0.600001;stroke-linecap:round;stroke-dasharray:none"
           d="m 264.00437,141.93234 c 0,0 -0.4326,3.97206 -0.35395,4.83726 0.0787,0.8652 -0.23596,3.65744 -0.23596,3.65744 L 261.80204,148.5 c 0,0 0.23596,4.40466 0.51125,6.52834 0.2753,2.12367 1.37646,5.85977 1.37646,5.85977"
           id="path5781" />
        <path
           style="fill:none;fill-opacity:1;stroke:#000000;stroke-width:0.600001;stroke-linecap:round;stroke-dasharray:none"
           d="m 266.28534,136.62315 c 0,0 0.0393,2.55627 -0.15729,4.64062 -0.19664,2.08435 -0.11798,3.65744 -0.19664,3.89341 -0.0787,0.23596 -0.62923,0.39327 -0.66858,0.58991 -0.0393,0.19663 0.47194,2.04502 0.47194,2.43829 0,0.39328 0.19664,1.41578 0.23596,1.88771 0.0393,0.47193 1.21914,0.82588 1.37646,1.10117 0.1573,0.27529 0.31462,0.94385 0.31462,1.33713 0,0.39327 4.0114,4.71928 4.0114,4.71928"
           id="path5783" />
      </g>
      <path
         id="path845"
         style="fill:#ffffff;fill-opacity:1;stroke:#000000;stroke-width:1.2;stroke-dasharray:none"
         d="m 106.72062,155.39052 c -4.09809,0 -6.47332,4.29933 -10.527008,4.90099 -4.053696,0.60171 -7.444847,-2.2331 -11.498523,-1.63143 -4.053716,0.60164 -6.474314,4.29881 -10.52804,4.90048 -4.053716,0.60165 -7.444817,-2.2331 -11.498523,-1.63143 -4.053736,0.60166 -6.473837,4.29933 -10.527523,4.901 -4.053726,0.6017 -7.44431,-2.2331 -11.498006,-1.63143 -0.793237,0.11773 -1.522741,0.35614 -2.215368,0.66456 a 68.321594,60.714848 0 0 0 1.212845,10.35802 c 0.324709,-0.0928 0.655982,-0.17335 1.002523,-0.22479 4.053696,-0.60167 7.44428,2.23313 11.498006,1.63143 4.053686,-0.60167 6.473787,-4.29934 10.527523,-4.901 4.053706,-0.60166 7.444807,2.2336 11.498523,1.63195 4.053726,-0.60167 6.474324,-4.29936 10.52804,-4.901 4.053676,-0.60167 7.444827,2.23314 11.498523,1.63143 4.053688,-0.60166 6.428918,-4.90048 10.527008,-4.90048 4.09808,0 6.47382,4.29882 10.52752,4.90048 4.0537,0.60171 7.44485,-2.2331 11.49852,-1.63143 4.05372,0.60164 6.4738,4.29933 10.52753,4.901 4.05371,0.60165 7.44481,-2.23361 11.49852,-1.63195 4.05374,0.60166 6.47384,4.29933 10.52752,4.901 4.05373,0.6017 7.44483,-2.2331 11.49852,-1.63143 0.33617,0.0499 0.65751,0.12759 0.97307,0.21653 a 68.321594,60.714848 0 0 0 1.2113,-10.36475 c -0.68329,-0.30158 -1.40313,-0.53362 -2.18437,-0.64957 -4.05369,-0.60167 -7.44479,2.23313 -11.49852,1.63143 -4.05368,-0.60167 -6.47378,-4.29934 -10.52752,-4.901 -4.05371,-0.60167 -7.44481,2.23308 -11.49852,1.63143 -4.05373,-0.60167 -6.47381,-4.29884 -10.52753,-4.90048 -4.05367,-0.60167 -7.44482,2.23314 -11.49852,1.63143 -4.0537,-0.60166 -6.42944,-4.90099 -10.52752,-4.90099 z" />
      <path
         id="path10936"
         style="fill:none;fill-opacity:1;stroke:#000000;stroke-width:1.5;stroke-linecap:round;stroke-dasharray:none"
         d="m 38.383704,71.41838 v 93.44856 a 68.321594,60.714848 0 0 0 68.321406,60.71464 68.321594,60.714848 0 0 0 68.32142,-60.71464 68.321594,60.714848 0 0 0 0,-5.2e-4 V 71.41838 Z" />
      <g
         id="g11740"
         transform="rotate(-11.560933,123.30872,1172.303)">
        <path
           id="path11288"
           style="fill:#ffff00;fill-opacity:1;stroke:#000000;stroke-width:0.7;stroke-linecap:round;stroke-dasharray:none"
           d="m 346.19851,109.39901 c 0,0 -0.55041,2.01542 0.62942,6.97063 1.17977,4.95525 4.66616,6.62053 6.25284,8.17986 2.28097,2.24165 2.16318,4.87671 2.16318,4.87671 v 1.29759 c 0,0 0.60948,-0.39294 1.21905,0.13798 0.60958,0.53092 2.53007,2.7528 2.53007,2.7528 v -4.18837 c 0,0 -0.11828,-2.63506 2.16266,-4.87671 1.58671,-1.55933 5.07357,-3.22461 6.25337,-8.17986 1.17983,-4.95521 0.6289,-6.97063 0.6289,-6.97063 h -10.91975 z m 2.94969,3.17035 h 7.97005 7.97058 c 0,0 0.25094,2.14225 -1.61282,5.41259 -2.34624,4.11685 -6.35776,5.23068 -6.35776,5.23068 0,0 -4.01151,-1.11383 -6.35775,-5.23068 -1.86379,-3.27034 -1.6123,-5.41259 -1.6123,-5.41259 z" />
        <g
           id="g11731"
           transform="rotate(20.037755,420.31119,-261.21608)">
          <path
             id="path11710"
             style="fill:#ffff00;fill-opacity:1;stroke:#000000;stroke-width:0.7;stroke-linecap:round;stroke-dasharray:none"
             d="m 495.20957,137.12393 -6.68538,2.72386 0.23564,40.50709 c 0,0 3.06762,0.72586 6.44974,0.70797 3.38211,0.0179 6.44973,-0.70797 6.44973,-0.70797 l 0.23565,-40.50709 z" />
          <path
             id="path11559"
             style="fill:#ffff00;fill-opacity:1;stroke:#000000;stroke-width:0.7;stroke-linecap:round;stroke-dasharray:none"
             d="m 497.03841,133.50916 c 0,0 0.58796,5.93126 -0.0553,8.25945 -0.51242,1.85464 -1.02269,2.61367 -1.77353,2.7249 -0.75084,-0.11123 -1.26112,-0.87026 -1.77354,-2.7249 -0.64326,-2.32819 -0.0553,-8.25945 -0.0553,-8.25945 0,0 -0.048,-0.74813 1.24267,-0.75458 1.25261,-0.006 1.02643,0.77666 1.46851,0.94928 0.6104,0.23834 0.94649,-0.1947 0.94649,-0.1947 z"
             sodipodi:nodetypes="cscscssc" />
          <path
             style="fill:none;fill-opacity:1;stroke:#000000;stroke-width:0.7;stroke-linecap:round;stroke-dasharray:none"
             d="m 492.99124,163.87621 v 15.60064"
             id="path11720" />
          <path
             style="fill:none;fill-opacity:1;stroke:#000000;stroke-width:0.7;stroke-linecap:round;stroke-dasharray:none"
             d="M 494.43729,166.20625 V 179.0656"
             id="path11722" />
          <path
             style="fill:none;fill-opacity:1;stroke:#000000;stroke-width:0.7;stroke-linecap:round;stroke-dasharray:none"
             d="m 496.078,169.45715 v 9.69459"
             id="path11724" />
        </g>
      </g>
    </g>
  </g>
</svg>
