<?xml version="1.0" encoding="utf-8" standalone="no"?>
<!DOCTYPE svg PUBLIC "-//W3C//DTD SVG 1.1//EN" "http://www.w3.org/Graphics/SVG/1.1/DTD/svg11.dtd">
<svg version="1.1"
   xmlns="http://www.w3.org/2000/svg"
   xmlns:xlink="http://www.w3.org/1999/xlink"
   width="570" height="620" viewBox="0,0 570,620">
  <title>Wappen von Grevenkop</title>
  <desc>Wappen der schleswig-holsteinischen Gemeinde Grevenkop</desc>
  <g stroke="black" stroke-width="10">
    <path d="M 565,5 H 5 V 335 a 280,280 0 0,0 560,0 z" fill="#fec728" />
    <path d="M 243,62 c -7,18 -50,9 -48,47 14,-16 39,-19 49,-15 -4,14 -9,24 -22,34 19,3 31,-11 36,-27" stroke-width="9" fill="#e62518" />
    <path d="M 125,565 c 33,3 61,-7 80,-19 l 4,23 c 16,-19 30,-38 41,-60 l 14,8 c -12,22 -23,45 -39,64 l 26,1 -20,28 m 0,-0.207 A 280,280 0 0,1 125,564.812 M 321,612 c 7,-12 14,-25 16,-40 15,0 25,1 36,-2 -5,-26 -14,-48 -27,-77 l 13,-8 c 14,24 25,50 33,78 8,-4 12,-6 17,-10 l -1,33 m 2,-0.387 a 280,280 0 0,1 -88,26.961" fill="#e62518" />
    <path d="M 5,11 c 36,89 112,129 149,146 39,17 49,30 37,76 -14,51 35,61 91,63 -55,64 -174,133 -268.945,105.855 A 280,280 0 0,1 5,335 z M 245,444 c -5,22 -14,45 -29,62 26,3 51,19 69,35 -4,-30 -3,-61 5,-88" />
    <path d="M 241.2 438.2 c -0.3,1.5 -0.7,3.1 -1.1,4.7 -1.6,7.5 -3.8,14.9 -6.4,22.1 12.5,8.9 28.3,13.1 43.7,11.3 4.3,-0.4 8.6,-0.9 12.8,-1.7 1.4,-8.6 3.4,-17.1 6.1,-25.4 -18.4,-3.7 -36.7,-7.4 -55.1,-11" stroke="none" fill="white" />
    <path d="M 237,383 c -23,-13 -33,-45 -33,-68 -1,-40 17,-73 83,-101 65,-26 83,-60 76,-86 -4,-20 -18,-35 -49,-32 -13,1 -30,13 -43,14 -18,1 -29,-12 -31,-28 -2,-17 6,-34 33,-35 26,-2 42,16 58,21 31,8 55,0 72,39 28,67 -67,102 -51,162 18,64 132,112 132,112 -13,30 -36,40 -65,40 -15,18 -32,22 -60,18 -38,21 -83,38 -111,25 -34,-15 -44,-63 -42,-102 v -4" />
    <path d="M 381.9,308.1 c -8.4,-9 -16.8,-19.6 -21.9,-31.2 -4.9,2.9 -10.1,5.3 -15.3,7.6 -14.9,7.5 -29.1,22.3 -27.3,40.2 2.5,19.5 19.3,33.1 35.3,42.4 34.8,18.8 74.5,27.2 113.8,29.7 4.8,0.2 9.6,0.3 14.4,0.3 0.1,-0.1 0.1,-0.2 0.2,-0.3 3.9,-5.7 6.7,-11.9 9.4,-18.3 M 349.7,435.4 L 293.7,449.8 c 4.8,5.6 9.4,11.4 13.4,17.5 18.4,-5.6 36,-14.1 52.9,-23.2 6.3,1 12.9,1.5 19.5,1.2 -6.5,-6 -12.4,-12.7 -18.2,-19.5" stroke="none" fill="white" />
    <path d="M 565,11 c -13,66 -54,105 -105,132 -39,20 -46,30 -56,76 -6,28 -18,56 -48,69 -30,12 -46,38 -10,65 36,28 149,55 216.735,17.685 A 280,280 0 0,0 565,335 z M 300,445 c 19,21 30,45 32,68 27,-20 51,-28 86,-33 -24,-10 -44,-26 -63,-49" />
  </g>
  <path d="M 30,98 c 28,40 61,60 96,77 5,2 4,6 0,5 -39,-10 -77,-32 -97,-63 m -2,25 c 30,40 60,51 96,64 4,1 4,7 -1,6 -39,-7 -70,-18 -95,-51 m 0,32 c 35,33 57,38 91,44 6,1 5,5 0,5 -40,-1 -67,-8 -90,-31 m 1,30 c 26,22 59,26 91,26 7,0 6,5 1,5 -28,3 -62,5 -90,-12 m 1,24 c 19,14 64,17 96,11 7,-2 6,3 1,5 -27,7 -57,11 -94,1 m 4,24 c 26,9 65,6 96,-5 7,-3 7,2 3,4 -15,7 -43,19 -95,16 m 6,25 c 42,2 66,-5 96,-18 6,-2 8,1 3,4 -25,13 -58,26 -94,28 M 141,186 a 25,18 0 0,1 6,28 14,14 0 0,1 0,26 21,21 0 0,1 -4,34 14,14 0 0,1 9,25 14,14 0 0,1 9,24 19,16 0 0,1 18,22 15,14 0 0,0 -9,-26 15,15 0 0,0 -7,-24 16,16 0 0,0 -6,-24 20,20 0 0,0 1,-28 19,19 0 0,0 1,-30 17,17 0 0,0 -18,-27 M 532,121 c -27,36 -53,49 -87,67 -5,3 -2,6 2,4 34,-12 63,-29 86,-52 m 1,22 c -26,32 -47,46 -86,55 -6,1 -5,5 2,4 39,-6 60,-17 84,-42 m 0,32 c -25,21 -50,32 -85,33 -7,0 -8,5 -3,5 33,0 62,-3 88,-22 m -3,29 c -25,15 -57,20 -93,14 -6,-1 -6,2 -2,4 21,7 64,12 95,-4 m -4,23 c -19,14 -66,10 -94,-1 -7,-3 -7,2 -2,4 25,11 57,20 94,10 m -3,18 c -29,9 -76,6 -116,-14 -6,-3 -7,1 -3,4 33,19 65,27 117,24 m -3,14 c -39,7 -88,-3 -125,-20 -6,-3 -7,1 -2,4 46,25 91,32 126,28 M 434,203 a 15,14 0 0,0 2,24 19,19 0 0,0 -7,29 16,17 0 0,0 -14,23 11,12 0 0,0 -14,16 12,11 0 0,0 -17,14 14,15 0 0,0 -13,24 15,15 0 0,1 7,-29 14,14 0 0,1 16,-16 14,14 0 0,1 15,-15 15,15 0 0,1 14,-20 15,15 0 0,1 4,-25 14,14 0 0,1 7,-25 M 245,93 a 23,23 0 0,1 39,-21 30,30 0 0,0 -12,0 9,9 0 1,1 -17,9 30,30 0 0,0 -10,12" fill="white" />
  <path d="M 206.3,274.4 c -18.5,46.7 -1.7,94.8 28.2,112.9 26.3,15.9 46.4,5.2 48.7,-9" stroke="white" stroke-width="3" />
  <path d="M 284,72 A 28,28 0 0,0 245,93 44,60 0 0,1 284,72" />
</svg>

