<?xml version="1.0" encoding="UTF-8" standalone="no"?>
<!-- Created with Inkscape (http://www.inkscape.org/) -->

<svg
   width="143.47453mm"
   height="156.79259mm"
   viewBox="0 0 143.47453 156.79259"
   version="1.1"
   id="svg4618"
   inkscape:version="1.2.2 (732a01da63, 2022-12-09)"
   sodipodi:docname="DEU Hüttblek COA.svg"
   xmlns:inkscape="http://www.inkscape.org/namespaces/inkscape"
   xmlns:sodipodi="http://sodipodi.sourceforge.net/DTD/sodipodi-0.dtd"
   xmlns="http://www.w3.org/2000/svg"
   xmlns:svg="http://www.w3.org/2000/svg">
  <sodipodi:namedview
     id="namedview4620"
     pagecolor="#ffffff"
     bordercolor="#666666"
     borderopacity="1.0"
     inkscape:showpageshadow="2"
     inkscape:pageopacity="0.0"
     inkscape:pagecheckerboard="0"
     inkscape:deskcolor="#d1d1d1"
     inkscape:document-units="mm"
     showgrid="false"
     inkscape:zoom="0.90327052"
     inkscape:cx="271.23657"
     inkscape:cy="297.25314"
     inkscape:current-layer="layer1" />
  <defs
     id="defs4615">
    <inkscape:path-effect
       effect="powerstroke"
       id="path-effect2264"
       is_visible="true"
       lpeversion="1"
       offset_points="0.20016986,0.3379262 | 1.5095958,0.23414573 | 2.7331908,0.10903244"
       not_jump="false"
       sort_points="true"
       interpolator_type="CentripetalCatmullRom"
       interpolator_beta="0.2"
       start_linecap_type="zerowidth"
       linejoin_type="round"
       miter_limit="4"
       scale_width="1"
       end_linecap_type="zerowidth" />
    <inkscape:path-effect
       effect="powerstroke"
       id="path-effect1214"
       is_visible="true"
       lpeversion="1"
       offset_points="0.20764646,0.090265727 | 0.99980421,0.21293223 | 1.7392508,0.073039734"
       not_jump="false"
       sort_points="true"
       interpolator_type="CentripetalCatmullRom"
       interpolator_beta="0.2"
       start_linecap_type="zerowidth"
       linejoin_type="round"
       miter_limit="4"
       scale_width="1"
       end_linecap_type="zerowidth" />
    <inkscape:path-effect
       effect="powerstroke"
       id="path-effect1220"
       is_visible="true"
       lpeversion="1"
       offset_points="0.20764646,0.090265727 | 0.99980421,0.21293223 | 1.7392508,0.073039734"
       not_jump="false"
       sort_points="true"
       interpolator_type="CentripetalCatmullRom"
       interpolator_beta="0.2"
       start_linecap_type="zerowidth"
       linejoin_type="round"
       miter_limit="4"
       scale_width="1"
       end_linecap_type="zerowidth" />
    <inkscape:path-effect
       effect="powerstroke"
       id="path-effect1252"
       is_visible="true"
       lpeversion="1"
       offset_points="0.20764646,0.090265727 | 0.99980421,0.21293223 | 1.7392508,0.073039734"
       not_jump="false"
       sort_points="true"
       interpolator_type="CentripetalCatmullRom"
       interpolator_beta="0.2"
       start_linecap_type="zerowidth"
       linejoin_type="round"
       miter_limit="4"
       scale_width="1"
       end_linecap_type="zerowidth" />
    <inkscape:path-effect
       effect="powerstroke"
       id="path-effect1256"
       is_visible="true"
       lpeversion="1"
       offset_points="0.20764646,0.090265727 | 0.99980421,0.21293223 | 1.7392508,0.073039734"
       not_jump="false"
       sort_points="true"
       interpolator_type="CentripetalCatmullRom"
       interpolator_beta="0.2"
       start_linecap_type="zerowidth"
       linejoin_type="round"
       miter_limit="4"
       scale_width="1"
       end_linecap_type="zerowidth" />
    <inkscape:path-effect
       effect="powerstroke"
       id="path-effect1278"
       is_visible="true"
       lpeversion="1"
       offset_points="0.20764646,0.090265727 | 0.99980421,0.21293223 | 1.7392508,0.073039734"
       not_jump="false"
       sort_points="true"
       interpolator_type="CentripetalCatmullRom"
       interpolator_beta="0.2"
       start_linecap_type="zerowidth"
       linejoin_type="round"
       miter_limit="4"
       scale_width="1"
       end_linecap_type="zerowidth" />
    <inkscape:path-effect
       effect="powerstroke"
       id="path-effect1282"
       is_visible="true"
       lpeversion="1"
       offset_points="0.20764646,0.090265727 | 0.99980421,0.21293223 | 1.7392508,0.073039734"
       not_jump="false"
       sort_points="true"
       interpolator_type="CentripetalCatmullRom"
       interpolator_beta="0.2"
       start_linecap_type="zerowidth"
       linejoin_type="round"
       miter_limit="4"
       scale_width="1"
       end_linecap_type="zerowidth" />
    <inkscape:path-effect
       effect="powerstroke"
       id="path-effect2258"
       is_visible="true"
       lpeversion="1"
       offset_points="0.22009666,0.36856775 | 1,0.24999949 | 1.7925575,0.16945659"
       not_jump="false"
       sort_points="true"
       interpolator_type="CentripetalCatmullRom"
       interpolator_beta="0.2"
       start_linecap_type="zerowidth"
       linejoin_type="round"
       miter_limit="4"
       scale_width="1"
       end_linecap_type="zerowidth" />
    <inkscape:path-effect
       effect="powerstroke"
       id="path-effect2268"
       is_visible="true"
       lpeversion="1"
       offset_points="0.2127458,0.16834825 | 1,0.24999949 | 1.7565289,0.13424676"
       not_jump="false"
       sort_points="true"
       interpolator_type="CentripetalCatmullRom"
       interpolator_beta="0.2"
       start_linecap_type="zerowidth"
       linejoin_type="round"
       miter_limit="4"
       scale_width="1"
       end_linecap_type="zerowidth" />
  </defs>
  <g
     inkscape:label="Ebene 1"
     inkscape:groupmode="layer"
     id="layer1"
     transform="translate(-673.27969,-265.16727)">
    <g
       id="g4450"
       transform="translate(640.35073,184.69548)">
      <path
         id="path3810"
         style="fill:#ffffff;fill-opacity:1;stroke:none;stroke-width:1.4;stroke-linecap:round;stroke-dasharray:none"
         d="m 33.628955,81.17179 v 89.02712 a 71.0373,66.365448 0 0 0 71.037005,66.36546 71.0373,66.365448 0 0 0 71.03753,-66.36546 V 81.17179 Z" />
      <path
         id="path4112"
         style="fill:#ff0000;fill-opacity:1;stroke:#000000;stroke-width:1;stroke-linecap:round;stroke-dasharray:none"
         d="m 33.628955,81.17179 v 74.62025 L 104.66596,81.17179 Z m 71.037005,0 71.03753,74.62077 V 81.17179 Z" />
      <g
         id="g3681"
         transform="translate(-211.31791,-10.22981)">
        <path
           style="fill:#13a013;fill-opacity:1;stroke:#000000;stroke-width:0.499999;stroke-linecap:round;stroke-dasharray:none"
           d="m 316.11309,189.24311 c 0,0 4.69646,-6.52252 10.30376,-11.71954 6.44967,-5.97775 10.01679,-6.7232 13.21398,-11.01165 3.28384,-4.40466 5.11255,-8.67169 5.11255,-8.67169 0,0 -1.97196,13.16292 -7.86547,21.4924 -5.8991,8.33738 -11.79819,12.6634 -15.57363,16.51747 -2.27873,2.32619 -3.97206,5.50583 -3.97206,5.50583 z"
           id="path1776"
           sodipodi:nodetypes="csscsscc" />
        <path
           style="fill:#13a013;fill-opacity:1;stroke:#000000;stroke-width:0.499999;stroke-linecap:round;stroke-dasharray:none"
           d="m 316.12842,189.15425 c 0,0 4.94543,-7.19607 11.79084,-12.95882 6.11638,-5.14903 9.17686,-6.22914 11.9021,-9.62178 3.76185,-4.68311 4.94993,-8.84315 4.94993,-8.84315 0,0 -2.66962,16.62956 -9.78863,24.52721 -7.11901,7.89765 -11.67961,11.45715 -14.23803,14.40486 -2.55838,2.94772 -3.94882,5.56173 -3.94882,5.56173 z"
           id="path2260"
           sodipodi:nodetypes="csscsscc" />
        <path
           style="fill:#000000;fill-rule:nonzero;stroke:none;stroke-width:0.499999;stroke-linecap:round;stroke-dasharray:none"
           d="m 316.78166,200.33342 c 0.0499,0.0261 0.25982,0.0517 0.74276,-0.65751 0.35959,-0.52803 1.00557,-1.65768 2.1601,-3.49398 0.71585,-1.13857 1.64548,-2.56531 2.7125,-4.03375 0.991,-1.36384 2.1011,-2.76463 3.27438,-4.01397 2.63019,-2.80003 4.90908,-5.22292 7.1105,-7.73134 6e-5,-7e-5 0.12911,-0.14733 0.12917,-0.1474 1.02718,-1.17379 2.05067,-2.39233 2.96213,-3.57739 0.90779,-1.18029 1.69145,-2.3103 2.27618,-3.34363 1.99449,-3.52497 3.15299,-5.9451 3.50058,-6.74291 0.26499,-0.60821 0.23843,-0.69692 0.22253,-0.7045 -0.0187,-0.009 -0.0965,0.0296 -0.41801,0.60786 -0.42189,0.75874 -1.62072,3.15232 -3.64574,6.64443 -0.58292,1.00511 -1.36404,2.11183 -2.2747,3.27565 -0.91373,1.16772 -1.94036,2.37041 -2.974,3.53054 -0.0431,0.0483 -0.0864,0.0969 -0.12998,0.14558 -2.16591,2.42083 -4.5974,4.89907 -7.23414,7.58665 -1.22599,1.24992 -2.38422,2.65326 -3.41127,4.01742 -1.10719,1.47061 -2.06542,2.90036 -2.79332,4.04924 -1.17344,1.85209 -1.79473,3.0128 -2.05745,3.60281 -0.35284,0.79243 -0.20212,0.96008 -0.15222,0.9862 z"
           id="path2262"
           inkscape:path-effect="#path-effect2264"
           inkscape:original-d="m 316.78166,200.33342 c 0,0 3.93271,-7.51152 8.652,-12.42744 4.71927,-4.91591 10.22511,-10.61838 12.5454,-14.66909 2.32032,-4.05071 3.89343,-7.34985 3.89343,-7.34985"
           sodipodi:nodetypes="cssc" />
        <g
           id="g1230">
          <path
             id="path974"
             style="fill:#ff0000;stroke:#000000;stroke-width:0.499999;stroke-linecap:round"
             d="m 316.07373,151.68531 c 0,0 -0.19912,0.25224 -0.64079,0.67283 -0.58259,0.55477 -1.20275,0.758 -2.22467,2.95279 -1.27954,2.74809 0.91778,5.92367 0.91778,5.92367 0,0 -1.83858,-2.31254 -2.78071,-3.00343 -1.66851,-1.22358 -3.89331,-2.14147 -3.89331,-2.14147 1.03238,2.04398 0.96116,2.76781 2.25,4.7532 1.45755,2.24571 3.70106,2.25464 3.70106,2.25464 0,0 -1.11225,1.64335 -2.43241,3.05201 -1.02238,1.09092 -2.24714,1.96313 -2.68407,2.3151 -1.00112,0.80645 -1.83555,-0.33383 -1.83555,-0.33383 0,0 -3.0866,3.72646 1.08469,6.4239 3.91839,2.53389 5.96191,-0.66869 5.96191,-0.66869 0,0 0.29519,0.86503 0.96377,1.65158 0.66854,0.78655 1.6123,1.39629 1.6123,1.39629 0,0 0.94377,-0.60974 1.61231,-1.39629 0.66857,-0.78655 0.96376,-1.65158 0.96376,-1.65158 0,0 2.04352,3.20258 5.96191,0.66869 4.17129,-2.69744 1.08469,-6.4239 1.08469,-6.4239 0,0 -0.83443,1.14028 -1.83555,0.33383 -0.43693,-0.35197 -1.66169,-1.22418 -2.68407,-2.3151 -1.32016,-1.40866 -2.43241,-3.05201 -2.43241,-3.05201 0,0 2.24351,-0.009 3.70106,-2.25464 1.28884,-1.98539 1.21762,-2.70922 2.25,-4.7532 0,0 -2.2248,0.91789 -3.89331,2.14147 -0.94213,0.69089 -2.7807,3.00343 -2.7807,3.00343 0,0 2.19731,-3.17558 0.91777,-5.92367 -1.02192,-2.19479 -1.64208,-2.39802 -2.22467,-2.95279 -0.44167,-0.42059 -0.64079,-0.67283 -0.64079,-0.67283 z" />
          <path
             style="fill:none;stroke:#000000;stroke-width:0.3;stroke-linecap:round;stroke-dasharray:none"
             d="m 315.4054,152.39125 c 0,0 -0.42175,0.87535 -0.43104,1.43214 -0.0139,0.83426 0.50054,1.41824 0.50054,1.41824 0,0 -1.3209,0.3198 -1.75194,1.65462 -0.43103,1.33481 -0.0556,3.54559 -0.0556,3.54559"
             id="path1131"
             sodipodi:nodetypes="cscsc" />
          <path
             style="fill:none;stroke:#000000;stroke-width:0.3;stroke-linecap:round;stroke-dasharray:none"
             d="m 318.74798,163.292 c 0,0 -0.81514,-1.10394 -1.28798,-1.28306 -0.64889,-0.2458 -0.68819,0.1868 -1.38627,0.19663 -0.69808,-0.01 -0.73738,-0.44243 -1.38627,-0.19663 -0.47284,0.17912 -1.28798,1.28306 -1.28798,1.28306"
             id="path1135"
             sodipodi:nodetypes="cscsc" />
          <path
             style="fill:none;stroke:#000000;stroke-width:0.3;stroke-linecap:round;stroke-dasharray:none"
             d="m 316.7421,152.39125 c 0,0 0.42175,0.87535 0.43104,1.43214 0.0139,0.83426 -0.50054,1.41824 -0.50054,1.41824 0,0 1.3209,0.3198 1.75194,1.65462 0.43103,1.33481 0.0556,3.54559 0.0556,3.54559"
             id="path1137"
             sodipodi:nodetypes="cscsc"
             inkscape:transform-center-x="-1.5783848"
             inkscape:transform-center-y="-1.1994836" />
          <path
             style="fill:#000000;stroke:#000000;stroke-width:0.0499999;stroke-linecap:round;stroke-dasharray:none"
             d="m 315.7947,162.09646 c 0,0 -0.18073,-1.55729 -0.11123,-3.08676 0.0695,-1.52947 0.19382,-2.30067 -0.41797,-2.37019 -0.6118,-0.0695 -0.8334,1.02147 -0.84732,1.45251 -0.014,0.43103 0.1212,0.99689 0.35759,1.10812 0.23638,0.11124 0.36544,0.032 0.40714,0.49087 0.0417,0.45884 0.16687,2.30812 0.16687,2.30812 z"
             id="path1141"
             sodipodi:nodetypes="csscsscc" />
          <path
             style="fill:#000000;stroke:#000000;stroke-width:0.0499999;stroke-linecap:round;stroke-dasharray:none"
             d="m 316.3528,162.09646 c 0,0 0.18073,-1.55729 0.11123,-3.08676 -0.0695,-1.52947 -0.19382,-2.30067 0.41797,-2.37019 0.6118,-0.0695 0.8334,1.02147 0.84732,1.45251 0.014,0.43103 -0.1212,0.99689 -0.35759,1.10812 -0.23638,0.11124 -0.36544,0.032 -0.40714,0.49087 -0.0417,0.45884 -0.16687,2.30812 -0.16687,2.30812 z"
             id="path1143"
             sodipodi:nodetypes="csscsscc"
             inkscape:transform-center-x="-0.96780596"
             inkscape:transform-center-y="4.9517678" />
          <path
             style="fill:#000000;fill-rule:nonzero;stroke:none;stroke-width:0.25;stroke-linecap:round;stroke-dasharray:none"
             d="m 315.53791,164.45707 v 0 c -0.0174,-0.003 -0.0659,0.0279 -0.15433,0.32134 -0.0672,0.22302 -0.18395,0.66825 -0.36439,1.30302 -0.12725,0.44768 -0.28054,0.96249 -0.45432,1.47142 -0.18218,0.53355 -0.36545,0.99785 -0.55029,1.38212 -0.4732,0.98202 -1.04645,1.78238 -1.51559,2.36556 -0.24025,0.29866 -0.45703,0.54405 -0.56108,0.66035 -0.21264,0.2377 -0.23593,0.28377 -0.22458,0.29774 0.007,0.008 0.0697,0.009 0.32451,-0.19118 0.13679,-0.10772 0.36986,-0.30072 0.65871,-0.58929 0.53087,-0.53035 1.20451,-1.3402 1.70072,-2.35634 0.19796,-0.40511 0.38078,-0.90067 0.54572,-1.44751 0.1584,-0.52515 0.28809,-1.05725 0.386,-1.51592 0.1403,-0.65726 0.20787,-1.12242 0.23155,-1.34423 0.0328,-0.30687 -0.007,-0.3543 -0.0226,-0.35708 z"
             id="path1212"
             inkscape:path-effect="#path-effect1214"
             inkscape:original-d="m 315.53791,164.45707 c 0,0 -0.52611,2.9103 -1.33221,4.57179 -0.96465,1.98827 -2.49237,3.22976 -2.49237,3.22976"
             sodipodi:nodetypes="csc" />
          <path
             style="fill:#000000;fill-rule:nonzero;stroke:none;stroke-width:0.25;stroke-linecap:round;stroke-dasharray:none"
             d="m 316.60959,164.45707 h 0 c -0.0154,0.003 -0.0554,0.0502 -0.0226,0.35708 0.0237,0.22181 0.0913,0.68697 0.23155,1.34423 0.0979,0.45867 0.2276,0.99077 0.386,1.51592 0.16494,0.54684 0.34776,1.0424 0.54523,1.4465 0.4967,1.01715 1.17034,1.827 1.70121,2.35735 0.28885,0.28857 0.52192,0.48157 0.65871,0.58929 0.2548,0.20065 0.31763,0.19965 0.32451,0.19118 0.0113,-0.014 -0.0119,-0.06 -0.22458,-0.29774 -0.10405,-0.1163 -0.32083,-0.36169 -0.56108,-0.66035 -0.46914,-0.58318 -1.04239,-1.38354 -1.51514,-2.36461 -0.18529,-0.38522 -0.36856,-0.84952 -0.55074,-1.38307 -0.17378,-0.50893 -0.32707,-1.02374 -0.45432,-1.47142 -0.18044,-0.63477 -0.29716,-1.08 -0.36439,-1.30302 -0.0885,-0.29342 -0.1369,-0.32449 -0.15433,-0.32134 z"
             id="path1216"
             inkscape:path-effect="#path-effect1220"
             inkscape:original-d="m 316.60959,164.45707 c 0,0 0.52611,2.9103 1.33221,4.57179 0.96465,1.98827 2.49237,3.22976 2.49237,3.22976"
             sodipodi:nodetypes="csc"
             inkscape:transform-center-x="-2.4317204"
             inkscape:transform-center-y="-4.3103355" />
        </g>
        <g
           id="g1248"
           transform="matrix(0.77609427,0.46651631,-0.46652658,0.77608155,132.43168,-122.05101)"
           style="stroke-width:1.10435">
          <path
             id="path1232"
             style="fill:#ff0000;stroke:#000000;stroke-width:0.552172;stroke-linecap:round"
             d="m 316.07373,151.68531 c 0,0 -0.19912,0.25224 -0.64079,0.67283 -0.58259,0.55477 -1.20275,0.758 -2.22467,2.95279 -1.27954,2.74809 0.91778,5.92367 0.91778,5.92367 0,0 -1.83858,-2.31254 -2.78071,-3.00343 -1.66851,-1.22358 -3.89331,-2.14147 -3.89331,-2.14147 1.03238,2.04398 0.96116,2.76781 2.25,4.7532 1.45755,2.24571 3.70106,2.25464 3.70106,2.25464 0,0 -1.11225,1.64335 -2.43241,3.05201 -1.02238,1.09092 -2.24714,1.96313 -2.68407,2.3151 -1.00112,0.80645 -1.83555,-0.33383 -1.83555,-0.33383 0,0 -3.0866,3.72646 1.08469,6.4239 3.91839,2.53389 5.96191,-0.66869 5.96191,-0.66869 0,0 0.29519,0.86503 0.96377,1.65158 0.66854,0.78655 1.6123,1.39629 1.6123,1.39629 0,0 0.94377,-0.60974 1.61231,-1.39629 0.66857,-0.78655 0.96376,-1.65158 0.96376,-1.65158 0,0 2.04352,3.20258 5.96191,0.66869 4.17129,-2.69744 1.08469,-6.4239 1.08469,-6.4239 0,0 -0.83443,1.14028 -1.83555,0.33383 -0.43693,-0.35197 -1.66169,-1.22418 -2.68407,-2.3151 -1.32016,-1.40866 -2.43241,-3.05201 -2.43241,-3.05201 0,0 2.24351,-0.009 3.70106,-2.25464 1.28884,-1.98539 1.21762,-2.70922 2.25,-4.7532 0,0 -2.2248,0.91789 -3.89331,2.14147 -0.94213,0.69089 -2.7807,3.00343 -2.7807,3.00343 0,0 2.19731,-3.17558 0.91777,-5.92367 -1.02192,-2.19479 -1.64208,-2.39802 -2.22467,-2.95279 -0.44167,-0.42059 -0.64079,-0.67283 -0.64079,-0.67283 z" />
          <path
             style="fill:none;stroke:#000000;stroke-width:0.331304;stroke-linecap:round;stroke-dasharray:none"
             d="m 315.4054,152.39125 c 0,0 -0.42175,0.87535 -0.43104,1.43214 -0.0139,0.83426 0.50054,1.41824 0.50054,1.41824 0,0 -1.3209,0.3198 -1.75194,1.65462 -0.43103,1.33481 -0.0556,3.54559 -0.0556,3.54559"
             id="path1234"
             sodipodi:nodetypes="cscsc" />
          <path
             style="fill:none;stroke:#000000;stroke-width:0.331304;stroke-linecap:round;stroke-dasharray:none"
             d="m 318.74798,163.292 c 0,0 -0.81514,-1.10394 -1.28798,-1.28306 -0.64889,-0.2458 -0.68819,0.1868 -1.38627,0.19663 -0.69808,-0.01 -0.73738,-0.44243 -1.38627,-0.19663 -0.47284,0.17912 -1.28798,1.28306 -1.28798,1.28306"
             id="path1236"
             sodipodi:nodetypes="cscsc" />
          <path
             style="fill:none;stroke:#000000;stroke-width:0.331304;stroke-linecap:round;stroke-dasharray:none"
             d="m 316.7421,152.39125 c 0,0 0.42175,0.87535 0.43104,1.43214 0.0139,0.83426 -0.50054,1.41824 -0.50054,1.41824 0,0 1.3209,0.3198 1.75194,1.65462 0.43103,1.33481 0.0556,3.54559 0.0556,3.54559"
             id="path1238"
             sodipodi:nodetypes="cscsc"
             inkscape:transform-center-x="-1.5783848"
             inkscape:transform-center-y="-1.1994836" />
          <path
             style="fill:#000000;stroke:#000000;stroke-width:0.0552172;stroke-linecap:round;stroke-dasharray:none"
             d="m 315.7947,162.09646 c 0,0 -0.18073,-1.55729 -0.11123,-3.08676 0.0695,-1.52947 0.19382,-2.30067 -0.41797,-2.37019 -0.6118,-0.0695 -0.8334,1.02147 -0.84732,1.45251 -0.014,0.43103 0.1212,0.99689 0.35759,1.10812 0.23638,0.11124 0.36544,0.032 0.40714,0.49087 0.0417,0.45884 0.16687,2.30812 0.16687,2.30812 z"
             id="path1240"
             sodipodi:nodetypes="csscsscc" />
          <path
             style="fill:#000000;stroke:#000000;stroke-width:0.0552172;stroke-linecap:round;stroke-dasharray:none"
             d="m 316.3528,162.09646 c 0,0 0.18073,-1.55729 0.11123,-3.08676 -0.0695,-1.52947 -0.19382,-2.30067 0.41797,-2.37019 0.6118,-0.0695 0.8334,1.02147 0.84732,1.45251 0.014,0.43103 -0.1212,0.99689 -0.35759,1.10812 -0.23638,0.11124 -0.36544,0.032 -0.40714,0.49087 -0.0417,0.45884 -0.16687,2.30812 -0.16687,2.30812 z"
             id="path1242"
             sodipodi:nodetypes="csscsscc"
             inkscape:transform-center-x="-0.96780596"
             inkscape:transform-center-y="4.9517678" />
          <path
             style="fill:#000000;fill-rule:nonzero;stroke:none;stroke-width:0.276086;stroke-linecap:round;stroke-dasharray:none"
             d="m 315.53791,164.45707 v 0 c -0.0174,-0.003 -0.0659,0.0279 -0.15433,0.32134 -0.0672,0.22302 -0.18395,0.66825 -0.36439,1.30302 -0.12725,0.44768 -0.28054,0.96249 -0.45432,1.47142 -0.18218,0.53355 -0.36545,0.99785 -0.55029,1.38212 -0.4732,0.98202 -1.04645,1.78238 -1.51559,2.36556 -0.24025,0.29866 -0.45703,0.54405 -0.56108,0.66035 -0.21264,0.2377 -0.23593,0.28377 -0.22458,0.29774 0.007,0.008 0.0697,0.009 0.32451,-0.19118 0.13679,-0.10772 0.36986,-0.30072 0.65871,-0.58929 0.53087,-0.53035 1.20451,-1.3402 1.70072,-2.35634 0.19796,-0.40511 0.38078,-0.90067 0.54572,-1.44751 0.1584,-0.52515 0.28809,-1.05725 0.386,-1.51592 0.1403,-0.65726 0.20787,-1.12242 0.23155,-1.34423 0.0328,-0.30687 -0.007,-0.3543 -0.0226,-0.35708 z"
             id="path1244"
             inkscape:path-effect="#path-effect1252"
             inkscape:original-d="m 315.53791,164.45707 c 0,0 -0.52611,2.9103 -1.33221,4.57179 -0.96465,1.98827 -2.49237,3.22976 -2.49237,3.22976"
             sodipodi:nodetypes="csc" />
          <path
             style="fill:#000000;fill-rule:nonzero;stroke:none;stroke-width:0.276086;stroke-linecap:round;stroke-dasharray:none"
             d="m 316.60959,164.45707 h 0 c -0.0154,0.003 -0.0554,0.0502 -0.0226,0.35708 0.0237,0.22181 0.0913,0.68697 0.23155,1.34423 0.0979,0.45867 0.2276,0.99077 0.386,1.51592 0.16494,0.54684 0.34776,1.0424 0.54523,1.4465 0.4967,1.01715 1.17034,1.827 1.70121,2.35735 0.28885,0.28857 0.52192,0.48157 0.65871,0.58929 0.2548,0.20065 0.31763,0.19965 0.32451,0.19118 0.0113,-0.014 -0.0119,-0.06 -0.22458,-0.29774 -0.10405,-0.1163 -0.32083,-0.36169 -0.56108,-0.66035 -0.46914,-0.58318 -1.04239,-1.38354 -1.51514,-2.36461 -0.18529,-0.38522 -0.36856,-0.84952 -0.55074,-1.38307 -0.17378,-0.50893 -0.32707,-1.02374 -0.45432,-1.47142 -0.18044,-0.63477 -0.29716,-1.08 -0.36439,-1.30302 -0.0885,-0.29342 -0.1369,-0.32449 -0.15433,-0.32134 z"
             id="path1246"
             inkscape:path-effect="#path-effect1256"
             inkscape:original-d="m 316.60959,164.45707 c 0,0 0.52611,2.9103 1.33221,4.57179 0.96465,1.98827 2.49237,3.22976 2.49237,3.22976"
             sodipodi:nodetypes="csc"
             inkscape:transform-center-x="-2.4317204"
             inkscape:transform-center-y="-4.3103355" />
        </g>
        <g
           id="g1392">
          <path
             style="fill:#ff0000;stroke:#000000;stroke-width:0.499999;stroke-linecap:round;stroke-dasharray:none"
             d="m 324.15551,141.87334 c 0,0 -2.41861,-0.0394 -4.62095,2.222 -2.20234,2.26132 -2.43829,4.6013 -2.43829,4.6013 0,0 0.78655,-1.12083 1.35678,-1.39613 0.57026,-0.27529 0.80621,-0.0983 1.27815,-0.43259 0.47191,-0.33429 1.06183,-1.3568 1.61242,-1.47478 0.55058,-0.11798 2.06468,0.35394 2.06468,0.35394 z"
             id="path1380"
             sodipodi:nodetypes="cscssscc" />
          <g
             id="g1274"
             transform="matrix(0.81946219,-0.30179967,0.30177578,0.8194813,17.519387,103.41327)"
             style="stroke-width:1.14512">
            <path
               id="path1258"
               style="fill:#ff0000;stroke:#000000;stroke-width:0.572556;stroke-linecap:round"
               d="m 316.07373,151.68531 c 0,0 -0.19912,0.25224 -0.64079,0.67283 -0.58259,0.55477 -1.20275,0.758 -2.22467,2.95279 -1.27954,2.74809 0.91778,5.92367 0.91778,5.92367 0,0 -1.83858,-2.31254 -2.78071,-3.00343 -1.66851,-1.22358 -3.89331,-2.14147 -3.89331,-2.14147 1.03238,2.04398 0.96116,2.76781 2.25,4.7532 1.45755,2.24571 3.70106,2.25464 3.70106,2.25464 0,0 -1.11225,1.64335 -2.43241,3.05201 -1.02238,1.09092 -2.24714,1.96313 -2.68407,2.3151 -1.00112,0.80645 -1.83555,-0.33383 -1.83555,-0.33383 0,0 -3.0866,3.72646 1.08469,6.4239 3.91839,2.53389 5.96191,-0.66869 5.96191,-0.66869 0,0 0.29519,0.86503 0.96377,1.65158 0.66854,0.78655 1.6123,1.39629 1.6123,1.39629 0,0 0.94377,-0.60974 1.61231,-1.39629 0.66857,-0.78655 0.96376,-1.65158 0.96376,-1.65158 0,0 2.04352,3.20258 5.96191,0.66869 4.17129,-2.69744 1.08469,-6.4239 1.08469,-6.4239 0,0 -0.83443,1.14028 -1.83555,0.33383 -0.43693,-0.35197 -1.66169,-1.22418 -2.68407,-2.3151 -1.32016,-1.40866 -2.43241,-3.05201 -2.43241,-3.05201 0,0 2.24351,-0.009 3.70106,-2.25464 1.28884,-1.98539 1.21762,-2.70922 2.25,-4.7532 0,0 -2.2248,0.91789 -3.89331,2.14147 -0.94213,0.69089 -2.7807,3.00343 -2.7807,3.00343 0,0 2.19731,-3.17558 0.91777,-5.92367 -1.02192,-2.19479 -1.64208,-2.39802 -2.22467,-2.95279 -0.44167,-0.42059 -0.64079,-0.67283 -0.64079,-0.67283 z" />
            <path
               style="fill:none;stroke:#000000;stroke-width:0.343535;stroke-linecap:round;stroke-dasharray:none"
               d="m 315.4054,152.39125 c 0,0 -0.42175,0.87535 -0.43104,1.43214 -0.0139,0.83426 0.50054,1.41824 0.50054,1.41824 0,0 -1.3209,0.3198 -1.75194,1.65462 -0.43103,1.33481 -0.0556,3.54559 -0.0556,3.54559"
               id="path1260"
               sodipodi:nodetypes="cscsc" />
            <path
               style="fill:none;stroke:#000000;stroke-width:0.343535;stroke-linecap:round;stroke-dasharray:none"
               d="m 318.74798,163.292 c 0,0 -0.81514,-1.10394 -1.28798,-1.28306 -0.64889,-0.2458 -0.68819,0.1868 -1.38627,0.19663 -0.69808,-0.01 -0.73738,-0.44243 -1.38627,-0.19663 -0.47284,0.17912 -1.28798,1.28306 -1.28798,1.28306"
               id="path1262"
               sodipodi:nodetypes="cscsc" />
            <path
               style="fill:none;stroke:#000000;stroke-width:0.343535;stroke-linecap:round;stroke-dasharray:none"
               d="m 316.7421,152.39125 c 0,0 0.42175,0.87535 0.43104,1.43214 0.0139,0.83426 -0.50054,1.41824 -0.50054,1.41824 0,0 1.3209,0.3198 1.75194,1.65462 0.43103,1.33481 0.0556,3.54559 0.0556,3.54559"
               id="path1264"
               sodipodi:nodetypes="cscsc"
               inkscape:transform-center-x="-1.5783848"
               inkscape:transform-center-y="-1.1994836" />
            <path
               style="fill:#000000;stroke:#000000;stroke-width:0.0572556;stroke-linecap:round;stroke-dasharray:none"
               d="m 315.7947,162.09646 c 0,0 -0.18073,-1.55729 -0.11123,-3.08676 0.0695,-1.52947 0.19382,-2.30067 -0.41797,-2.37019 -0.6118,-0.0695 -0.8334,1.02147 -0.84732,1.45251 -0.014,0.43103 0.1212,0.99689 0.35759,1.10812 0.23638,0.11124 0.36544,0.032 0.40714,0.49087 0.0417,0.45884 0.16687,2.30812 0.16687,2.30812 z"
               id="path1266"
               sodipodi:nodetypes="csscsscc" />
            <path
               style="fill:#000000;stroke:#000000;stroke-width:0.0572556;stroke-linecap:round;stroke-dasharray:none"
               d="m 316.3528,162.09646 c 0,0 0.18073,-1.55729 0.11123,-3.08676 -0.0695,-1.52947 -0.19382,-2.30067 0.41797,-2.37019 0.6118,-0.0695 0.8334,1.02147 0.84732,1.45251 0.014,0.43103 -0.1212,0.99689 -0.35759,1.10812 -0.23638,0.11124 -0.36544,0.032 -0.40714,0.49087 -0.0417,0.45884 -0.16687,2.30812 -0.16687,2.30812 z"
               id="path1268"
               sodipodi:nodetypes="csscsscc"
               inkscape:transform-center-x="-0.96780596"
               inkscape:transform-center-y="4.9517678" />
            <path
               style="fill:#000000;fill-rule:nonzero;stroke:none;stroke-width:0.286278;stroke-linecap:round;stroke-dasharray:none"
               d="m 315.53791,164.45707 v 0 c -0.0174,-0.003 -0.0659,0.0279 -0.15433,0.32134 -0.0672,0.22302 -0.18395,0.66825 -0.36439,1.30302 -0.12725,0.44768 -0.28054,0.96249 -0.45432,1.47142 -0.18218,0.53355 -0.36545,0.99785 -0.55029,1.38212 -0.4732,0.98202 -1.04645,1.78238 -1.51559,2.36556 -0.24025,0.29866 -0.45703,0.54405 -0.56108,0.66035 -0.21264,0.2377 -0.23593,0.28377 -0.22458,0.29774 0.007,0.008 0.0697,0.009 0.32451,-0.19118 0.13679,-0.10772 0.36986,-0.30072 0.65871,-0.58929 0.53087,-0.53035 1.20451,-1.3402 1.70072,-2.35634 0.19796,-0.40511 0.38078,-0.90067 0.54572,-1.44751 0.1584,-0.52515 0.28809,-1.05725 0.386,-1.51592 0.1403,-0.65726 0.20787,-1.12242 0.23155,-1.34423 0.0328,-0.30687 -0.007,-0.3543 -0.0226,-0.35708 z"
               id="path1270"
               inkscape:path-effect="#path-effect1278"
               inkscape:original-d="m 315.53791,164.45707 c 0,0 -0.52611,2.9103 -1.33221,4.57179 -0.96465,1.98827 -2.49237,3.22976 -2.49237,3.22976"
               sodipodi:nodetypes="csc" />
            <path
               style="fill:#000000;fill-rule:nonzero;stroke:none;stroke-width:0.286278;stroke-linecap:round;stroke-dasharray:none"
               d="m 316.60959,164.45707 h 0 c -0.0154,0.003 -0.0554,0.0502 -0.0226,0.35708 0.0237,0.22181 0.0913,0.68697 0.23155,1.34423 0.0979,0.45867 0.2276,0.99077 0.386,1.51592 0.16494,0.54684 0.34776,1.0424 0.54523,1.4465 0.4967,1.01715 1.17034,1.827 1.70121,2.35735 0.28885,0.28857 0.52192,0.48157 0.65871,0.58929 0.2548,0.20065 0.31763,0.19965 0.32451,0.19118 0.0113,-0.014 -0.0119,-0.06 -0.22458,-0.29774 -0.10405,-0.1163 -0.32083,-0.36169 -0.56108,-0.66035 -0.46914,-0.58318 -1.04239,-1.38354 -1.51514,-2.36461 -0.18529,-0.38522 -0.36856,-0.84952 -0.55074,-1.38307 -0.17378,-0.50893 -0.32707,-1.02374 -0.45432,-1.47142 -0.18044,-0.63477 -0.29716,-1.08 -0.36439,-1.30302 -0.0885,-0.29342 -0.1369,-0.32449 -0.15433,-0.32134 z"
               id="path1272"
               inkscape:path-effect="#path-effect1282"
               inkscape:original-d="m 316.60959,164.45707 c 0,0 0.52611,2.9103 1.33221,4.57179 0.96465,1.98827 2.49237,3.22976 2.49237,3.22976"
               sodipodi:nodetypes="csc"
               inkscape:transform-center-x="-2.4317204"
               inkscape:transform-center-y="-4.3103355" />
          </g>
        </g>
        <path
           style="fill:#ff0000;stroke:#000000;stroke-width:0.499999;stroke-linecap:round;stroke-dasharray:none"
           d="m 314.89393,149.99444 c 0,0 -1.68538,-3.58926 -4.09005,-5.70246 -2.59559,-2.28099 -5.66313,-4.32601 -6.41034,-6.33171 -0.76589,-2.05585 -0.62926,-5.30918 -0.62926,-5.30918 0,0 2.00571,1.96636 4.79796,2.98887 2.79223,1.02251 6.13505,3.10686 7.23622,6.7643 1.10117,3.65744 -0.90453,7.59018 -0.90453,7.59018 z"
           id="path1394"
           sodipodi:nodetypes="csscssc" />
        <path
           style="fill:#ff0000;stroke:#000000;stroke-width:0.499999;stroke-linecap:round;stroke-dasharray:none"
           d="m 314.51552,137.48583 c 0,0 -2.11346,-2.39154 -4.33816,-3.78198 -2.22469,-1.39043 -3.69853,-3.80978 -3.64291,-5.67296 0.0556,-1.86317 0.33369,-3.78197 0.33369,-3.78197 0,0 0.75083,1.44605 2.50277,2.05784 1.75194,0.61179 4.08787,1.80756 4.36597,4.28253 0.27808,2.47497 0.77864,6.89654 0.77864,6.89654 z"
           id="path1396" />
        <path
           style="fill:#ff0000;stroke:#000000;stroke-width:0.499999;stroke-linecap:round;stroke-dasharray:none"
           d="m 315.98936,137.65268 c 0,0 -0.71495,-5.34159 0.0834,-7.86985 1.00111,-3.17018 5.31143,-4.94992 5.31143,-4.94992 0,0 -0.91767,2.03002 -0.80644,3.78196 0.11123,1.75194 0.88988,4.25472 -1.02891,6.20133 -1.40244,1.42277 -3.55952,2.83648 -3.55952,2.83648 z"
           id="path1398"
           sodipodi:nodetypes="cscssc" />
        <path
           style="fill:#ff0000;stroke:#000000;stroke-width:0.499999;stroke-linecap:round;stroke-dasharray:none"
           d="m 314.82141,128.19775 c 0,0 -2.35404,-3.70744 -2.14128,-5.72858 0.22248,-2.11345 0.97333,-2.5862 1.97443,-3.80978 1.0011,-1.22358 1.39044,-2.30812 1.39044,-2.30812 0,0 0.26067,0.70004 1.25137,2.64182 1.39042,2.72525 0.63961,4.58842 -0.0834,5.61734 -0.72302,1.02892 -1.50167,1.61291 -1.83536,2.22469 -0.33372,0.61179 -0.55618,1.36263 -0.55618,1.36263 z"
           id="path1400"
           sodipodi:nodetypes="csscsssc" />
        <path
           id="path1450"
           style="fill:#000000;stroke:#000000;stroke-width:0.03;stroke-linecap:round;stroke-dasharray:none"
           d="m 310.63634,138.73727 c -0.13892,0 -0.17716,0.52668 -0.12506,1.26504 0.0834,1.18187 0.34764,1.68266 1.04283,2.89233 0.69522,1.20968 0.58394,2.73936 0.58394,2.73936 l 0.85266,1.08108 -0.10231,-0.18139 c 0,0 -0.059,-1.33693 -0.0393,-1.67121 0.0196,-0.33428 -0.0196,-1.06196 -0.0196,-1.06196 0,0 2.08398,1.19956 2.1823,2.24173 0.0983,1.04217 -0.43253,3.3817 -0.43253,3.3817 l -0.16433,-0.27646 0.40669,0.71313 0.80615,-1.84898 0.38964,-1.91927 c 0,0 -0.26452,-0.90374 -0.69556,-1.47381 -0.43103,-0.57008 -1.09811,-1.02899 -2.87786,-2.25257 -1.77978,-1.22358 -1.6686,-3.62872 -1.80764,-3.62872 z" />
        <path
           id="path1455"
           style="fill:#000000;stroke:#000000;stroke-width:0.03;stroke-linecap:round;stroke-dasharray:none"
           d="m 309.82863,128.12603 c -0.004,3.2e-4 -0.009,9.8e-4 -0.0129,0.002 -0.26419,0.0695 0.11764,0.74476 0.26459,1.29346 0.20854,0.77865 0.24816,1.05789 0.34726,1.96008 0.16516,1.50346 1.15394,3.29541 1.15394,3.29541 l 0.97358,0.87592 1.87689,1.90531 -0.40308,-3.90726 c 0,0 -1.613,-0.98742 -2.26652,-1.69654 -0.65349,-0.70912 -1.00129,-1.57114 -1.08469,-1.91874 -0.0821,-0.34218 -0.58145,-1.82961 -0.84905,-1.80971 z m 1.55546,4.35012 c 0.26272,-0.0444 2.15702,1.6411 2.38734,2.30519 0.0963,0.27777 0.10453,0.74418 -0.0762,0.82758 -0.18076,0.0834 -0.35486,0.35417 -1.1335,-0.45222 -0.39774,-0.41193 -1.38313,-2.55127 -1.18845,-2.67641 0.003,-0.002 0.007,-0.003 0.0109,-0.004 z"
           sodipodi:nodetypes="ccssccccssscssssccs" />
        <path
           id="path1460"
           style="fill:#000000;stroke:#000000;stroke-width:0.03;stroke-linecap:round;stroke-dasharray:none"
           d="m 317.8297,129.85771 c -0.0174,0.99431 0.21106,1.89145 0.009,3.04012 -0.1876,1.06529 -2.04018,2.70268 -2.04018,2.70268 l 0.0202,0.88522 0.23564,1.16013 2.77296,-2.00608 c 0,0 -0.27787,-0.82429 -0.35657,-1.55184 -0.0787,-0.72756 0.11456,-1.57948 0.0972,-2.07429 -0.0383,-1.08947 -0.73794,-2.15594 -0.73794,-2.15594 z m 0.0816,4.08967 c 0.009,-8.1e-4 0.0172,10e-4 0.0248,0.007 0.0973,0.0695 0.25016,1.12605 -0.0279,1.43195 -0.27808,0.30589 -1.98851,1.39061 -1.98851,1.39061 l -0.0279,-0.38912 c 0,0 0.83462,-0.95945 1.29346,-1.50172 0.42299,-0.4999 0.62136,-0.92893 0.72605,-0.93844 z" />
        <path
           id="path1465"
           style="fill:#000000;stroke:#000000;stroke-width:0.03;stroke-linecap:round;stroke-dasharray:none"
           d="m 315.31667,120.81691 c -0.13842,-0.0125 -0.64542,0.57824 -0.81494,1.11001 -0.2571,0.80666 0.0414,1.5714 -0.0698,2.14148 -0.10505,0.5385 -0.91777,1.76578 -0.91777,1.76578 l 0.45888,0.7922 0.47129,0.81132 c -0.11267,-0.48536 -0.24056,-1.12092 -0.20929,-1.39371 0.10814,-0.94386 0.6687,-1.94666 0.6687,-1.94666 0,0 0.37336,0.33425 0.54053,0.78652 0.16715,0.45226 0.20671,1.41593 0.20671,1.41593 l -0.28887,0.76998 0.0434,-0.0816 0.53692,-0.77204 c 0,0 -0.0309,-1.08301 -0.16433,-1.56993 -0.14028,-0.51182 -0.69939,-1.22548 -0.75499,-2.18488 -0.0557,-0.9594 0.37631,-1.60874 0.30541,-1.64124 -0.004,-0.002 -0.007,-0.003 -0.0119,-0.003 z m 0.031,6.27972 -0.63046,0.81081 0.10439,0.17932 z" />
        <path
           style="fill:#13a013;fill-opacity:1;stroke:#000000;stroke-width:0.499999;stroke-linecap:round;stroke-dasharray:none"
           d="m 314.01496,198.83164 0.55618,-20.68961 c 0,0 0.70622,0.64985 1.26664,0.71867 0.56041,0.0688 1.43547,-0.68823 1.43547,-0.68823 l 0.18997,22.88387 -1.11234,2.16907 z"
           id="path1720" />
        <path
           style="fill:#13a013;fill-opacity:1;stroke:#000000;stroke-width:0.499999;stroke-linecap:round;stroke-dasharray:none"
           d="m 313.51749,219.99708 c 0,0 -0.78656,-19.97828 18.1692,-29.73145 13.98257,-7.19435 37.6756,-3.30351 37.6756,-3.30351 0,0 -20.21426,2.28099 -32.40574,10.77569 -12.19147,8.49471 -20.60752,20.45022 -20.60752,20.45022 z"
           id="path1778"
           sodipodi:nodetypes="cscscc" />
        <path
           style="fill:#13a013;fill-opacity:1;stroke:#000000;stroke-width:0.499999;stroke-linecap:round;stroke-dasharray:none"
           d="m 312.06836,215.51682 c 0,0 0.52835,-4.06006 1.44603,-6.59064 0.91771,-2.53059 1.77977,-4.31034 1.77977,-4.31034 0,0 -5.49165,-10.90884 -14.7547,-16.55255 -11.87686,-7.23623 -17.61865,-7.23623 -23.51775,-11.16896 -5.8991,-3.93273 -9.28124,-7.55085 -9.28124,-7.55085 0,0 5.58448,19.74232 14.62977,27.45048 9.04528,7.70816 19.82096,9.75318 23.83237,12.19147 4.01137,2.4383 5.86575,6.53139 5.86575,6.53139 z"
           id="path1780"
           sodipodi:nodetypes="cscsscssc" />
        <ellipse
           style="fill:#000000;stroke:none;stroke-width:0.5;stroke-linecap:round;stroke-dasharray:none"
           id="path1889"
           cx="141.48186"
           cy="299.38452"
           rx="1.7658474"
           ry="2.5722976"
           transform="rotate(-31.336607)" />
        <ellipse
           style="fill:#000000;stroke:none;stroke-width:0.500041;stroke-linecap:round;stroke-dasharray:none"
           id="ellipse1995"
           cx="-19.795891"
           cy="349.03903"
           rx="1.9295086"
           ry="2.7794929"
           transform="matrix(0.47750823,-0.87862727,0.86993156,0.49317246,0,0)" />
        <ellipse
           style="fill:#000000;stroke:none;stroke-width:0.500041;stroke-linecap:round;stroke-dasharray:none"
           id="ellipse1997"
           cx="-21.523985"
           cy="342.32333"
           rx="1.1050253"
           ry="1.5918094"
           transform="matrix(0.47750823,-0.87862727,0.86993156,0.49317246,0,0)" />
        <ellipse
           style="fill:#000000;stroke:none;stroke-width:0.500041;stroke-linecap:round;stroke-dasharray:none"
           id="ellipse1999"
           cx="65.307983"
           cy="336.07535"
           rx="1.1050253"
           ry="1.5918094"
           transform="matrix(0.693796,-0.72017158,0.70762644,0.70658674,0,0)" />
        <ellipse
           style="fill:#000000;stroke:none;stroke-width:0.500035;stroke-linecap:round;stroke-dasharray:none"
           id="ellipse2001"
           cx="-27.42169"
           cy="350.12476"
           rx="1.6342502"
           ry="2.3561413"
           transform="matrix(0.47809257,-0.87830945,0.87026654,0.49258111,0,0)" />
        <ellipse
           style="fill:#000000;stroke:none;stroke-width:0.500035;stroke-linecap:round;stroke-dasharray:none"
           id="ellipse2003"
           cx="4.428925"
           cy="362.27249"
           rx="1.6342502"
           ry="2.3561413"
           transform="matrix(0.55289677,-0.83324976,0.82397347,0.56662837,0,0)" />
        <ellipse
           style="fill:#000000;stroke:none;stroke-width:0.500041;stroke-linecap:round;stroke-dasharray:none"
           id="ellipse2005"
           cx="52.830456"
           cy="363.27817"
           rx="1.1050253"
           ry="1.5918094"
           transform="matrix(0.64584853,-0.76346557,0.75177248,0.65942258,0,0)" />
        <ellipse
           style="fill:#000000;stroke:none;stroke-width:0.500637;stroke-linecap:round;stroke-dasharray:none"
           id="ellipse2007"
           cx="1.9014074"
           cy="359.31073"
           rx="0.97022533"
           ry="1.3591852"
           transform="matrix(0.48757058,-0.87308358,0.83614574,0.54850734,0,0)" />
        <ellipse
           style="fill:#000000;stroke:none;stroke-width:0.500009;stroke-linecap:round;stroke-dasharray:none"
           id="ellipse2072"
           cx="371.1123"
           cy="41.034489"
           rx="1.751999"
           ry="2.5892043"
           transform="matrix(0.92089339,0.38981452,-0.38194868,0.92418354,0,0)" />
        <ellipse
           style="fill:#000000;stroke:none;stroke-width:0.500666;stroke-linecap:round;stroke-dasharray:none"
           id="ellipse2074"
           cx="373.49042"
           cy="43.530128"
           rx="1.3549618"
           ry="1.8688381"
           transform="matrix(0.91507297,0.40328831,-0.46886641,0.88326909,0,0)" />
        <ellipse
           style="fill:#000000;stroke:none;stroke-width:0.500665;stroke-linecap:round;stroke-dasharray:none"
           id="ellipse2076"
           cx="377.59799"
           cy="28.564381"
           rx="1.3549618"
           ry="1.8688381"
           transform="matrix(0.91507297,0.40328831,-0.46886641,0.88326909,0,0)" />
        <path
           style="fill:#000000;fill-rule:nonzero;stroke:none;stroke-width:0.499999;stroke-linecap:round;stroke-dasharray:none"
           d="m 280.17186,184.30859 c -0.0235,0.0127 -0.0992,0.0939 0.18549,0.57641 0.17416,0.29521 0.69104,1.07599 1.82339,2.20825 1.44752,1.44742 4.0943,3.6744 8.75175,6.11332 4.67719,2.44951 8.51271,4.44261 11.78822,6.55296 -4e-5,-3e-5 0.0467,0.0301 0.0467,0.0301 1.53228,0.98982 3.06658,2.10886 4.36287,3.32009 1.17809,1.10077 2.12689,2.24623 2.75695,3.44186 0.75314,1.52939 1.16016,2.90109 1.39602,3.65628 0.24634,0.78877 0.89554,2.52383 1.13923,2.51604 0.13795,-0.004 0.1055,-1.01708 0.17901,-1.03486 0.0828,-0.0201 0.28776,-0.76682 0.41773,-0.84159 0.19632,-0.11294 0.22605,-0.35805 -0.0808,-1.20087 -0.29189,-0.80182 -0.93636,-2.2211 -1.91475,-3.74072 -0.79439,-1.31204 -1.90708,-2.49944 -3.18193,-3.59198 -1.4059,-1.20485 -3.02557,-2.30661 -4.58977,-3.2862 -7e-5,-4e-5 -0.0478,-0.0299 -0.0479,-0.03 -3.34346,-2.09001 -7.24232,-4.05823 -11.93527,-6.44311 -4.62553,-2.35037 -7.2593,-4.47869 -8.726,-5.83744 -1.08315,-1.00344 -1.76515,-1.83295 -1.92517,-2.01839 -0.35331,-0.40944 -0.42235,-0.40289 -0.44582,-0.39021 z"
           id="path2198"
           sodipodi:nodetypes="csscccscscssscssccsscc" />
        <path
           style="fill:#000000;fill-rule:nonzero;stroke:none;stroke-width:0.499999;stroke-linecap:round;stroke-dasharray:none"
           d="m 315.8771,217.00821 c 0.0656,0.0299 0.29907,0.0191 0.77207,-0.73275 0.33916,-0.53915 0.88716,-1.59783 1.84921,-3.21022 1.50498,-2.52235 3.70226,-5.79729 6.64396,-8.90153 2.45447,-2.5949 5.24357,-4.92527 7.49648,-6.67665 1.49906,-1.16534 2.48555,-1.87319 2.96864,-2.25157 0.62789,-0.4918 0.65979,-0.61571 0.6412,-0.64386 -0.015,-0.0227 -0.15228,-0.0563 -0.83507,0.36587 -0.52483,0.32452 -1.53323,1.01372 -3.04893,2.17419 -2.28235,1.74743 -5.07185,4.09165 -7.58356,6.68632 -3.00823,3.11332 -5.35207,6.30526 -6.95518,8.83344 -1.01998,1.60856 -1.58541,2.68609 -1.83233,3.28699 -0.34604,0.84212 -0.17015,1.04532 -0.11649,1.06977 z"
           id="path2256"
           inkscape:path-effect="#path-effect2258"
           inkscape:original-d="m 315.8771,217.00821 c 0,0 3.06526,-6.72719 9.08462,-13.01735 5.05747,-5.28499 11.28694,-9.39923 11.28694,-9.39923"
           sodipodi:nodetypes="csc" />
        <path
           style="fill:#000000;fill-rule:nonzero;stroke:none;stroke-width:0.499999;stroke-linecap:round;stroke-dasharray:none"
           d="m 323.55332,191.87949 c 0.0191,0.0213 0.13801,0.0474 0.60771,-0.32762 0.35003,-0.27949 1.00037,-0.85565 1.99011,-1.81353 1.51546,-1.46669 3.44813,-3.47048 5.29563,-5.65021 3.13807,-3.70235 4.79401,-6.08294 5.20802,-6.76452 0.26674,-0.43913 0.23775,-0.53133 0.21884,-0.5442 -0.0218,-0.0148 -0.1095,-0.003 -0.43715,0.3879 -0.54375,0.64907 -2.48112,3.20722 -5.37067,6.597 -1.86319,2.18574 -3.73832,4.12876 -5.2438,5.64011 -1.03233,1.03634 -1.53906,1.52396 -1.88978,1.90043 -0.40723,0.43714 -0.40023,0.55079 -0.37891,0.57464 z"
           id="path2266"
           inkscape:path-effect="#path-effect2268"
           inkscape:original-d="m 323.55332,191.87949 c 0,0 3.92102,-3.50388 7.70297,-7.95327 3.78198,-4.44938 5.61734,-7.14681 5.61734,-7.14681" />
      </g>
      <path
         id="path4117"
         style="fill:#13a013;fill-opacity:1;stroke:#000000;stroke-width:0.999998;stroke-linecap:round;stroke-dasharray:none"
         d="m 104.66648,205.38281 c -10.393518,0.002 -20.017096,3.5416 -25.32817,9.3152 -3.29747,-2.24123 -7.708376,-3.49457 -12.299508,-3.49488 -5.602193,-2e-5 -10.592123,1.83008 -13.831197,4.6824 a 71.0373,66.365448 0 0 0 51.458355,20.67884 71.0373,66.365448 0 0 0 51.49298,-20.64835 c -3.23806,-2.86969 -8.24328,-4.71291 -13.8653,-4.71289 -4.58802,0.002 -8.99516,1.25556 -12.29021,3.49539 -5.31247,-5.77553 -14.94014,-9.31536 -25.33695,-9.31571 z" />
      <path
         id="path4386"
         style="fill:none;fill-opacity:1;stroke:#000000;stroke-width:1.4;stroke-linecap:round;stroke-dasharray:none"
         d="m 33.628955,81.17179 v 89.02712 a 71.0373,66.365448 0 0 0 71.037005,66.36546 71.0373,66.365448 0 0 0 71.03753,-66.36546 V 81.17179 Z" />
    </g>
  </g>
</svg>
