<svg xmlns="http://www.w3.org/2000/svg" width="471" height="528" style="shape-rendering:geometricPrecision;text-rendering:geometricPrecision;image-rendering:optimizeQuality;fill-rule:evenodd;clip-rule:evenodd"><path style="opacity:1" fill="#0c0d09" d="M-.5-.5h471v324c-15.911 86.4-63.578 148.234-143 185.5-24.288 9.552-49.288 15.719-75 18.5h-35c-90.446-10.631-155.946-56.631-196.5-138a473.67 473.67 0 0 1-17-52 2154.495 2154.495 0 0 0-4.5-33V-.5z"/><path style="opacity:1" fill="#fbfdfb" d="M456.5 348.5c-1.149.291-1.816 1.124-2 2.5a528.23 528.23 0 0 0-6 21.5 35.176 35.176 0 0 1-2 8 67.376 67.376 0 0 1-14 2c.048-44.38-.619-88.713-2-133 .802-1.452 1.302-3.118 1.5-5 3.761 4.27 7.928 7.937 12.5 11 2.624 4.747 5.624 5.08 9 1 2.314-1.977 4.647-3.977 7-6a11.988 11.988 0 0 0 1-6v-1c-2.667-4.667-6.333-8.333-11-11-3.838-2.494-6.505-5.827-8-10-3.853-.845-6.519-3.179-8-7-.825-.886-1.825-1.219-3-1-.973-2.635-2.64-4.635-5-6-6-8-13-15-21-21-.333-1-1-1.667-2-2l-5-6a40.775 40.775 0 0 1-4.5-6c-1.451-1.964-3.284-3.297-5.5-4a426.246 426.246 0 0 0-25-24c-.272-3.232-1.938-5.232-5-6a69.096 69.096 0 0 0-9-11 19.136 19.136 0 0 1-6-6 5.576 5.576 0 0 0-3-1 57.51 57.51 0 0 1-9-9 18.67 18.67 0 0 1-3-5 409.477 409.477 0 0 1-25-23 57.466 57.466 0 0 1-9-9c-4.021-6.021-9.021-11.021-15-15l-7-6a2.429 2.429 0 0 0-.5-2c-5.757-6.263-11.924-11.93-18.5-17-4.125-5.959-9.125-11.126-15-15.5-3.871.668-6.871 2.835-9 6.5a361.26 361.26 0 0 1-36.5 35 4.934 4.934 0 0 0-.5 3c-3.691 3.184-7.358 6.684-11 10.5a4.932 4.932 0 0 1-3 .5 19.489 19.489 0 0 1-3 7c-4.903 3.114-8.903 7.114-12 12l-2 2a2.427 2.427 0 0 0-2 .5 892.37 892.37 0 0 0-23 24.5 633.16 633.16 0 0 0-37.5 36 2.427 2.427 0 0 0-.5 2 233.26 233.26 0 0 1-23 21.5 878.908 878.908 0 0 0-18 19.5c-2.667.667-4.333 2.333-5 5a382.914 382.914 0 0 1-24 22 88.486 88.486 0 0 1-10 12 72.95 72.95 0 0 1-9 7c-1.395 3.163-1.728 6.33-1 9.5 2.642 3.314 5.309 6.647 8 10 2 .667 4 .667 6 0A224.095 224.095 0 0 0 39 248.5c1.477 11.171 1.977 22.504 1.5 34v107c-2.562.871-5.228.871-8 0a6.845 6.845 0 0 1-4-1 208.565 208.565 0 0 1-17-51c-.302-2.873-.969-5.539-2-8a297.93 297.93 0 0 1-3.5-27c-.5-98.999-.667-197.999-.5-297h459c.167 101.001 0 202.001-.5 303a279.772 279.772 0 0 1-7.5 40z"/><path style="opacity:1" fill="#00a000" d="M318.5 104.5c2 2.667 4.333 5 7 7a204.424 204.424 0 0 0 17 17 1165.492 1165.492 0 0 0 49 50.5 4.934 4.934 0 0 0 3 .5 10.134 10.134 0 0 0 1.5 4 471.384 471.384 0 0 0 18.5 18c2 2.667 4.333 5 7 7a516.992 516.992 0 0 0 19 19.5 2.428 2.428 0 0 0 2 .5c3.939 5.608 8.606 10.608 14 15a4.934 4.934 0 0 1-.5 3 31.447 31.447 0 0 0-4.5 5c-.667 0-1 .333-1 1-2.283-.108-4.283-.941-6-2.5-13.111-14.666-27.111-28.166-42-40.5-6.69-9.016-14.69-16.682-24-23-.333-3.667-2.333-5.667-6-6-.333-1-1-1.667-2-2a2.428 2.428 0 0 0-.5-2 812.69 812.69 0 0 0-19.5-18.5c-35.665-.5-71.332-.667-107-.5h-117c-3.675 0-6.341 1.667-8 5-.667 0-1 .333-1 1a25.658 25.658 0 0 0-6 6c-2 1.333-3.667 3-5 5-15.788 14.451-30.455 29.784-44 46-2.797.467-4.13 2.133-4 5-.667 0-1 .333-1 1a4.934 4.934 0 0 0-3 .5L44 237.5c-.374 1.991-1.207 3.658-2.5 5a4.934 4.934 0 0 0-3 .5c-3.5 4.833-7.667 9-12.5 12.5a4.932 4.932 0 0 0-.5 3c-2.1-.023-3.933.644-5.5 2a19.347 19.347 0 0 1-4.5-4 401.2 401.2 0 0 1-3-6c3.645-1.645 6.312-4.312 8-8 2.249-.58 3.915-1.913 5-4 2.667-2 5-4.333 7-7a83.949 83.949 0 0 1 9-9c.838-.342 1.172-1.008 1-2 8.6-6.931 16.6-14.597 24-23 4.695-5.026 9.361-10.026 14-15 3-2.333 5.667-5 8-8 3-2.333 5.667-5 8-8a57.497 57.497 0 0 0 9-9c.667 0 1-.333 1-1a25.658 25.658 0 0 0 6-6 57.51 57.51 0 0 0 9-9c2.667-2 5-4.333 7-7a57.51 57.51 0 0 0 9-9 25.658 25.658 0 0 0 6-6 159.435 159.435 0 0 0 15-15c1-.333 1.667-1 2-2a251.512 251.512 0 0 0 15-15 5557.781 5557.781 0 0 1 62.5-63 9096.016 9096.016 0 0 0 80.5 80z"/><path style="opacity:1" fill="#6f8280" d="M229.5 26.5a136.62 136.62 0 0 0-7.5 11A113.878 113.878 0 0 0 201.5 58a28.878 28.878 0 0 0-9 6.5 4.934 4.934 0 0 1 .5-3 361.26 361.26 0 0 0 36.5-35z"/><path style="opacity:1" fill="#637675" d="M253.5 35.5c6.576 5.07 12.743 10.737 18.5 17 .464.594.631 1.261.5 2-7.079-6.412-13.413-12.745-19-19z"/><path style="opacity:1" fill="#2b443b" d="M253.5 35.5c5.587 6.255 11.921 12.588 19 19l7 6a159.307 159.307 0 0 0 15 15 57.466 57.466 0 0 0 9 9 434.439 434.439 0 0 0 28 28 57.51 57.51 0 0 0 9 9 48.8 48.8 0 0 0 9 10c.065.438-.101.772-.5 1a36.633 36.633 0 0 0-6.5-4 204.424 204.424 0 0 1-17-17c-.63-3.963-2.963-6.296-7-7a9096.016 9096.016 0 0 1-80.5-80 5557.781 5557.781 0 0 0-62.5 63c-3.685 1.18-6.685 3.347-9 6.5a4.932 4.932 0 0 1-3 .5c3.097-4.886 7.097-8.886 12-12a108.262 108.262 0 0 0 17-18 28.878 28.878 0 0 1 9-6.5A113.878 113.878 0 0 1 222 37.5a136.62 136.62 0 0 1 7.5-11c2.129-3.665 5.129-5.832 9-6.5 5.875 4.374 10.875 9.541 15 15.5z"/><path style="opacity:1" fill="#9fafad" d="M279.5 60.5c5.979 3.979 10.979 8.979 15 15a159.307 159.307 0 0 1-15-15z"/><path style="opacity:1" fill="#6b7e7d" d="M192.5 64.5a108.262 108.262 0 0 1-17 18 19.489 19.489 0 0 0 3-7 4.932 4.932 0 0 0 3-.5c3.642-3.816 7.309-7.316 11-10.5z"/><path style="opacity:1" fill="#156842" d="M175.5 87.5a251.512 251.512 0 0 1-15 15c.82-2.114 1.153-4.115 1-6l2-2a4.932 4.932 0 0 0 3-.5c2.315-3.153 5.315-5.32 9-6.5z"/><path style="opacity:1" fill="#9aaba9" d="M303.5 84.5c8 7.998 16.333 15.665 25 23a18.67 18.67 0 0 0 3 5 434.439 434.439 0 0 1-28-28z"/><path style="opacity:1" fill="#136941" d="M158.5 104.5a159.435 159.435 0 0 1-15 15c.98-2.616 2.48-4.949 4.5-7a39.93 39.93 0 0 0 7.5-7.5 4.934 4.934 0 0 1 3-.5zM318.5 104.5c4.037.704 6.37 3.037 7 7-2.667-2-5-4.333-7-7z"/><path style="opacity:1" fill="#3b4e4a" d="M161.5 96.5c.153 1.885-.18 3.886-1 6-.333 1-1 1.667-2 2a4.934 4.934 0 0 0-3 .5 39.93 39.93 0 0 1-7.5 7.5c-2.02 2.051-3.52 4.384-4.5 7a25.658 25.658 0 0 1-6 6l-6 3a26.002 26.002 0 0 0 5-7 892.37 892.37 0 0 1 23-24.5 2.427 2.427 0 0 1 2-.5z"/><path style="opacity:1" fill="#136941" d="M137.5 125.5a57.51 57.51 0 0 1-9 9l3-6 6-3z"/><path style="opacity:1" fill="#a1b2af" d="M340.5 121.5a5.576 5.576 0 0 1 3 1 19.136 19.136 0 0 0 6 6 69.096 69.096 0 0 1 9 11l-7-6c-.333-1-1-1.667-2-2a48.8 48.8 0 0 1-9-10z"/><path style="opacity:1" fill="#1d6b46" d="M342.5 128.5a36.633 36.633 0 0 1 6.5 4c.399-.228.565-.562.5-1 1 .333 1.667 1 2 2-1.073.751-1.24 1.751-.5 3a20.231 20.231 0 0 1 7.5 7.5c1 .667 2 .667 3 0a30.786 30.786 0 0 0-3-4.5c3.062.768 4.728 2.768 5 6-1.025.397-1.192 1.063-.5 2a270.745 270.745 0 0 1 26 27 24.257 24.257 0 0 0 5.5 3v2a4.934 4.934 0 0 1-3-.5 1165.492 1165.492 0 0 1-49-50.5z"/><path style="opacity:1" fill="#233b32" d="m131.5 128.5-3 6c-2 2.667-4.333 5-7 7l-5 2a78.986 78.986 0 0 0 6.5-8 87.068 87.068 0 0 0 8.5-7z"/><path style="opacity:1" fill="#2d3a39" d="m351.5 133.5 7 6a30.786 30.786 0 0 1 3 4.5c-1 .667-2 .667-3 0a20.231 20.231 0 0 0-7.5-7.5c-.74-1.249-.573-2.249.5-3z"/><path style="opacity:1" fill="#556c68" d="M136.5 121.5a26.002 26.002 0 0 1-5 7 87.068 87.068 0 0 1-8.5 7 78.986 78.986 0 0 1-6.5 8l-4 7a25.658 25.658 0 0 1-6 6c.587-1.267.587-2.267 0-3-2.421 2.434-5.088 4.434-8 6a2.427 2.427 0 0 1 .5-2 633.16 633.16 0 0 1 37.5-36z"/><path style="opacity:1" fill="#136941" d="M121.5 141.5a57.51 57.51 0 0 1-9 9l4-7 5-2z"/><path style="opacity:1" fill="#196843" d="M105.5 157.5a57.497 57.497 0 0 1-9 9c2-4 5-7 9-9z"/><path style="opacity:1" fill="#136941" d="M126.5 157.5a758.441 758.441 0 0 0-8 5c1.659-3.333 4.325-5 8-5zM243.5 157.5c35.668-.167 71.335 0 107 .5a812.69 812.69 0 0 1 19.5 18.5c.464.594.631 1.261.5 2a278.523 278.523 0 0 1-21-19.5 5585.297 5585.297 0 0 1-106-1.5z"/><path style="opacity:1" fill="#fe0006" d="M296.5 161.5c17.872.692 35.872 1.359 54 2 .342.838 1.008 1.172 2 1 2 4 5 7 9 9 1 3 3 5 6 6 4.312 6.312 9.645 11.645 16 16a6.547 6.547 0 0 0 3 3c1.42 3.717 4.087 6.05 8 7v1c1.693 2.69 4.027 4.69 7 6 2.601 4.271 5.934 7.937 10 11a299.892 299.892 0 0 1 12 12.5 4.934 4.934 0 0 0 3 .5 531.818 531.818 0 0 0 2 47c-.116 33.025.051 66.025.5 99-1.171 1.393-2.671 2.227-4.5 2.5a87.976 87.976 0 0 1-19 1.5h-1c-3.044-1.511-6.378-2.178-10-2-3.344-1.818-7.011-2.818-11-3-1.419-.951-3.085-1.284-5-1-.418-.722-1.084-1.222-2-1.5a32.462 32.462 0 0 0-8-.5c-3.819-.666-7.819-.999-12-1-6.24-.167-12.24.5-18 2-2.752.078-5.418.245-8 .5-.682-2.188-.348-4.355 1-6.5 2.797-.467 4.131-2.133 4-5 1.113-1.446 1.28-3.113.5-5-6.424-4.726-7.091-10.059-2-16 1.411-2.15 2.245-4.484 2.5-7 4.102-.456 7.935.211 11.5 2 1.49-.817 2.99-1.65 4.5-2.5a368.623 368.623 0 0 0 5-17.5c.934-3.156 1.601-6.489 2-10 1.311-2.06 1.311-4.226 0-6.5l-8-2c-1.723-.523-3.056-1.523-4-3a161.15 161.15 0 0 0 1-24.5c3.277.284 6.443-.049 9.5-1 3.312-5.541 3.145-10.874-.5-16a150.068 150.068 0 0 0-4.5-16l-2.5-2.5a129.101 129.101 0 0 0-12 0 157.2 157.2 0 0 0-8-8.5c.268-1.599-.066-2.932-1-4-.912-1.238-1.079-2.572-.5-4a64.262 64.262 0 0 1 6.5-11.5c-1.164-2.328-2.83-4.162-5-5.5-.58-2.249-1.913-3.915-4-5-2.069-3.073-4.736-5.406-8-7-1.432-2.597-3.599-4.263-6.5-5a45.935 45.935 0 0 1-11.5 8 61.324 61.324 0 0 0-13.5-9c-1.724-3.236-1.89-6.57-.5-10 .579-3.489-1.087-5.823-5-7-3.598-2.24-7.598-3.574-12-4a193.267 193.267 0 0 1-12.5-4c-1.301.139-2.134.805-2.5 2a735.12 735.12 0 0 0-4 11 60.07 60.07 0 0 1-22-.5l-1.5-1.5-1-8c-.383-.556-.883-.889-1.5-1-.996-1.165-2.329-1.832-4-2-2.849.464-5.516 1.131-8 2-6.245.084-11.912 1.75-17 5-1.88-.271-3.213.396-4 2a196.37 196.37 0 0 0-.5 13 252.657 252.657 0 0 1-12.5 8.5c-3.323.932-6.323.432-9-1.5-4.905-6.265-9.571-5.932-14 1-5.316 4.319-9.983 9.319-14 15-1.312.645-2.312 1.645-3 3a84.853 84.853 0 0 0 7.5 8l.5 2.5a319.019 319.019 0 0 0-7 15.5c-.904.709-1.237 1.709-1 3-5.173-.793-10.173-.793-15 0-3.018 1.355-4.351 3.688-4 7-4.809 8.12-6.142 16.787-4 26 4.508.032 8.008 2.032 10.5 6 1.063 8.226.563 16.226-1.5 24a28.557 28.557 0 0 1-8 3h-1c-1.149.291-1.816 1.124-2 2.5.778 10.149 3.444 19.649 8 28.5-.016 1.984.984 2.984 3 3a32.03 32.03 0 0 1 13-2c-.172.992.162 1.658 1 2a68.767 68.767 0 0 0 8 15.5l-8 12c.815 1.98 2.148 3.48 4 4.5.238 1.904 1.238 3.238 3 4 1.13 1.815 1.796 3.815 2 6l-12-2a125.696 125.696 0 0 0-29-1.5 782.642 782.642 0 0 0-48 11.5c-2.82-.461-5.487-.461-8 0-2.231-.353-4.231-1.186-6-2.5l1-1a11200.18 11200.18 0 0 0-3-130.5v-1a37.096 37.096 0 0 1 1.5-12c5.432-4.925 10.265-10.258 14.5-16v-2h2a46.728 46.728 0 0 0 14-14l2-2c4.645-2.645 8.312-6.312 11-11a2.429 2.429 0 0 0 2-.5c.722-1.751 1.722-3.251 3-4.5 2.978-.978 4.978-2.978 6-6 1-.333 1.667-1 2-2 2.978-.978 4.978-2.978 6-6 1.973-1.306 3.639-2.973 5-5 4.688-2.688 8.355-6.355 11-11 5.869-3.523 12.369-4.857 19.5-4a6603.327 6603.327 0 0 0 154.5 1z"/><path style="opacity:1" fill="#bd1812" d="M296.5 161.5c17.67-.167 35.336 0 53 .5.556.383.889.883 1 1.5-18.128-.641-36.128-1.308-54-2z"/><path style="opacity:1" fill="#136941" d="M117.5 163.5c-1 3-3 5-6 6a25.658 25.658 0 0 1 6-6z"/><path style="opacity:1" fill="#293736" d="M363.5 145.5a426.246 426.246 0 0 1 25 24 35.061 35.061 0 0 1 6 8 24.257 24.257 0 0 1-5.5-3 270.745 270.745 0 0 0-26-27c-.692-.937-.525-1.603.5-2z"/><path style="opacity:1" fill="#76281c" d="M269.5 168.5a348.078 348.078 0 0 1-15-2c.366-1.195 1.199-1.861 2.5-2a193.267 193.267 0 0 0 12.5 4z"/><path style="opacity:1" fill="#1d1d1a" d="M224.5 166.5a358.463 358.463 0 0 1 1.5 10 10.94 10.94 0 0 0 4.5 3c6.911-.003 13.911-.17 21-.5 2.127-3.884 3.127-8.051 3-12.5 4.984.775 9.984 1.442 15 2 4.402.426 8.402 1.76 12 4a25.497 25.497 0 0 1 5 7c-3.049 2.882-3.549 6.215-1.5 10a135.758 135.758 0 0 1 16 11c3.741-1.738 6.908-4.238 9.5-7.5 1.333-.667 2.667-.667 4 0 .971 1.481 2.304 2.315 4 2.5 2.069 3.073 4.736 5.406 8 7 .58 2.249 1.913 3.915 4 5v2a25.497 25.497 0 0 0-7-5c-.526-1.73-1.526-3.064-3-4-2.22-2.787-4.886-5.12-8-7-1.788.783-2.788 2.116-3 4-2.608 1.603-4.941 3.603-7 6-1.79-1.816-3.79-3.149-6-4-2.508-2.424-5.508-4.09-9-5-.453-.958-1.119-1.792-2-2.5l-6-1c-1.301-1.616-1.301-3.116 0-4.5 1.567-1.181 2.401-2.847 2.5-5 .78-1.887.613-3.554-.5-5-7.734-3.957-16.067-6.291-25-7 .304 3.715-.363 7.215-2 10.5.837 1.011 1.17 2.178 1 3.5-1.291.237-2.291-.096-3-1-9.177-1.834-18.511-2.5-28-2a1330.592 1330.592 0 0 0-3-12c-.283-.789-.783-1.456-1.5-2-3.025.694-5.858 1.694-8.5 3a55.539 55.539 0 0 0-14 3c-2.064.262-3.397 1.429-4 3.5a233.166 233.166 0 0 0 3 12c-.881.708-1.547 1.542-2 2.5l-6 1c1.603-1.096 3.103-2.43 4.5-4 .648-4.812.148-9.478-1.5-14 .787-1.604 2.12-2.271 4-2a576 576 0 0 1 17-5c2.484-.869 5.151-1.536 8-2 1.671.168 3.004.835 4 2z"/><path style="opacity:1" fill="#7c271c" d="M352.5 164.5a57.51 57.51 0 0 1 9 9c-4-2-7-5-9-9z"/><path style="opacity:1" fill="#76281c" d="M212.5 166.5a576 576 0 0 0-17 5c5.088-3.25 10.755-4.916 17-5zM224.5 166.5c.617.111 1.117.444 1.5 1l1 8 1.5 1.5a60.07 60.07 0 0 0 22 .5 735.12 735.12 0 0 1 4-11c.127 4.449-.873 8.616-3 12.5-7.089.33-14.089.497-21 .5a10.94 10.94 0 0 1-4.5-3 358.463 358.463 0 0 0-1.5-10z"/><path style="opacity:1" fill="#668279" d="M221.5 168.5c-3.307.551-6.64.884-10 1 2.642-1.306 5.475-2.306 8.5-3 .717.544 1.217 1.211 1.5 2z"/><path style="opacity:1" fill="#9a2418" d="M122.5 164.5c-2.645 4.645-6.312 8.312-11 11 3.258-3.925 6.925-7.591 11-11z"/><path style="opacity:1" fill="#f6f9f7" d="M221.5 168.5a32.015 32.015 0 0 0 2 13c9.644.998 19.31 1.332 29 1 .709.904 1.709 1.237 3 1 .17-1.322-.163-2.489-1-3.5 1.637-3.285 2.304-6.785 2-10.5 8.933.709 17.266 3.043 25 7l-2 10c-1.301 1.384-1.301 2.884 0 4.5l6 1c.881.708 1.547 1.542 2 2.5 2.508 2.424 5.508 4.09 9 5 2.21.851 4.21 2.184 6 4 2.059-2.397 4.392-4.397 7-6 1.568-.973 3.235-1.14 5-.5a27.563 27.563 0 0 0 6 3.5c1.474.936 2.474 2.27 3 4 1.952 2.618 4.285 4.952 7 7-1.47 3.988-3.97 7.322-7.5 10-.941 2.489-.441 4.489 1.5 6 5.697 5.733 9.031 12.733 10 21a152.762 152.762 0 0 1 13.5-4 12.5 12.5 0 0 1 4.5 5v1c2.088 6.778 3.422 13.778 4 21-1.792-.134-3.458.199-5 1a18.346 18.346 0 0 0-9 2c.589 3.14 1.256 6.14 2 9a113.171 113.171 0 0 1-1 20c.219 2.415 1.552 3.415 4 3 4.096-.137 7.429 1.363 10 4.5-.88 1.356-1.214 2.856-1 4.5-.617.111-1.117.444-1.5 1-.723 6.624-2.223 12.957-4.5 19a76.926 76.926 0 0 0-10-1c-1.159-1.877-2.826-2.377-5-1.5-.837 1.011-1.17 2.178-1 3.5l-1 2c-3.618 4.097-6.285 8.764-8 14-.212 1.884-1.212 3.217-3 4a75.568 75.568 0 0 0 9 8c1.131 1.574 1.298 3.241.5 5a250.21 250.21 0 0 1-13.5 13c-1.544.203-2.878.87-4 2-1.633-2.003-3.633-3.336-6-4-.738-3.126-2.405-4.46-5-4-4.997 3.329-9.997 6.662-15 10a156.636 156.636 0 0 1-34-7.5 38.715 38.715 0 0 0 5-2.5 29.753 29.753 0 0 1 7-2c4.184-.092 7.517-1.759 10-5 4.727-.406 8.394-2.572 11-6.5 2.986-.319 4.653-1.986 5-5a173.58 173.58 0 0 0-12-12.5 79.801 79.801 0 0 0-6.5-9c-.816-1.323-1.983-1.989-3.5-2l-4-4c-.58-2.249-1.913-3.915-4-5-2.497-.629-3.83-2.296-4-5-1.333-2-3-3.667-5-5-1.333-1-1.333-2 0-3 2.408-1.235 4.408-3.069 6-5.5 1.697-.384 3.363-.218 5 .5a717.507 717.507 0 0 1 34 29c1.039 2.031 2.705 3.364 5 4a6.547 6.547 0 0 0 3 3c-.107 1.879.393 2.212 1.5 1a52.108 52.108 0 0 1 5.5-8 6.846 6.846 0 0 0 1-4 29.555 29.555 0 0 0 3-5c2.64-4.585 4.306-9.585 5-15 .521-3.981.854-7.981 1-12-10.798-1.499-21.798-2.166-33-2a269.887 269.887 0 0 0-26-2c-.876.131-1.543-.202-2-1a20.086 20.086 0 0 0 2-10 905.648 905.648 0 0 0 59-3.5c1.307-1.943 1.307-3.777 0-5.5a117.754 117.754 0 0 0-2.5-15 39.239 39.239 0 0 1-5.5-12c-1.34-1.367-2.673-2.7-4-4v-1c-.154-2.47-1.154-4.47-3-6a11.105 11.105 0 0 0-3-4.5c-.937-.692-1.603-.525-2 .5-14.51 12.166-28.51 25.166-42 39-3.813-.113-6.813-2.113-9-6 2.582-5.743 6.415-10.41 11.5-14a89.744 89.744 0 0 1 6.5-9c4.166-2.821 7.166-6.488 9-11 1.982-3.646 4.649-6.646 8-9 1.601-1.019 2.601-2.519 3-4.5-.248-1.749-1.248-2.582-3-2.5-8.383-6.117-17.716-10.45-28-13-3.291-1.301-6.791-2.301-10.5-3a3.943 3.943 0 0 0-2 1 674.14 674.14 0 0 0-1.5 40v4a225.995 225.995 0 0 0-2 17h-1c-3.462-.982-7.129-1.315-11-1a93.307 93.307 0 0 0-1-18 92.74 92.74 0 0 0-1-17c.635-8.734-.032-17.067-2-25h-4a63.163 63.163 0 0 0-17 4c-.798.457-1.131 1.124-1 2-1.915-.284-3.581.049-5 1-3.046.225-5.379 1.558-7 4a10.134 10.134 0 0 0-4 1.5 28.134 28.134 0 0 0-7 6.5 113.043 113.043 0 0 0 9 11 230.388 230.388 0 0 0 17 19c3.927 3.942 7.593 8.275 11 13a5.576 5.576 0 0 0 1 3c-1.13 1.122-1.797 2.456-2 4a37.85 37.85 0 0 0-5.5 5 11.123 11.123 0 0 1-2.5-1 2.428 2.428 0 0 0-.5-2 288.12 288.12 0 0 0-25.5-24c-1.411-2.414-3.411-4.081-6-5-2.613-3.543-5.947-6.21-10-8a18.924 18.924 0 0 0-5 3c-5.088 9.168-8.755 18.835-11 29-.951 1.419-1.284 3.085-1 5-.977 2.787-1.31 5.787-1 9a458.734 458.734 0 0 1 61 3v11c-6.854.235-13.521.902-20 2a915.133 915.133 0 0 0-41 2c1.177 17.543 7.677 32.543 19.5 45a137.09 137.09 0 0 0 10.5-9c3.333-1.333 5.667-3.667 7-7l1-2a149.366 149.366 0 0 1 22-19 15.414 15.414 0 0 0 4.5-2c2.09 1.943 4.257 3.61 6.5 5 .934 1.068 1.268 2.401 1 4-.996-.086-1.829.248-2.5 1-3.173 4.354-6.34 8.688-9.5 13v1c-2.835.569-4.501 2.236-5 5a381.413 381.413 0 0 0-21 25 714.756 714.756 0 0 0 7 6.5c2.96.174 5.294 1.34 7 3.5 6.029 3.9 12.695 6.233 20 7 3.767 1.376 3.433 2.376-1 3a92.561 92.561 0 0 0-22 6.5 32.462 32.462 0 0 1-8 .5 64.624 64.624 0 0 0-12-7 17.858 17.858 0 0 0-5-5 39.76 39.76 0 0 1-7 3.5c-1.361 1.584-2.028 3.418-2 5.5-3.239 1.478-5.572.478-7-3-.902-1.841-2.236-3.174-4-4-2.644-.644-4.311-2.311-5-5-1.474-2.427-1.307-4.76.5-7a84.853 84.853 0 0 0 7.5-8c-2.041-3.034-4.375-5.7-7-8-.973-1.639-2.306-2.973-4-4a46.715 46.715 0 0 0-4-10.5 138.01 138.01 0 0 1-13 2c-1.167-.5-2-1.333-2.5-2.5a37.282 37.282 0 0 0-2.5-8c-.221-2.567-.888-4.901-2-7a29.495 29.495 0 0 0-1-6.5l1-2.5c1.526-.494 2.859-1.161 4-2a41.541 41.541 0 0 1 8-1 157.866 157.866 0 0 1 0-34 198.913 198.913 0 0 1-14-1 102.914 102.914 0 0 1 2-14v-1c2.23-4.01 3.897-8.343 5-13l2.5-1a203.683 203.683 0 0 0 13.5 4 8.43 8.43 0 0 1 .5-4 117.984 117.984 0 0 1 7.5-14c2.544-1.208 3.878-3.208 4-6 .876.131 1.543-.202 2-1-2.376-4.376-5.71-7.71-10-10-1.025-.397-1.192-1.063-.5-2a38.47 38.47 0 0 1 5.5-5 25.658 25.658 0 0 0 6-6c2.029-3.027 4.696-5.36 8-7 1.529.029 2.696.696 3.5 2 1.813 2.261 3.313 4.595 4.5 7 .704 1.844 2.037 2.344 4 1.5a78.986 78.986 0 0 0 8-6.5c.342-.838 1.008-1.172 2-1 3.651-1.159 6.985-2.826 10-5 .996.086 1.829-.248 2.5-1 .401-4.244-.099-8.411-1.5-12.5.019-1.833.685-3.333 2-4.5a55.539 55.539 0 0 1 14-3 76.926 76.926 0 0 0 10-1z"/><path style="opacity:1" fill="#1f6845" d="M111.5 169.5c-.667 2.667-2.333 4.333-5 5 1.333-2 3-3.667 5-5z"/><path style="opacity:1" fill="#76281c" d="M281.5 172.5c3.913 1.177 5.579 3.511 5 7a25.497 25.497 0 0 0-5-7zM191.5 173.5c1.648 4.522 2.148 9.188 1.5 14-1.397 1.57-2.897 2.904-4.5 4-3.524.429-6.524 1.929-9 4.5-3 .667-6 .667-9 0-.752-.671-1.086-1.504-1-2.5 2.677 1.932 5.677 2.432 9 1.5 4.253-2.71 8.42-5.543 12.5-8.5.03-4.521.197-8.855.5-13z"/><path style="opacity:1" fill="#136941" d="M88.5 174.5c-2.333 3-5 5.667-8 8 1.622-3.623 4.29-6.289 8-8zM106.5 174.5a225.983 225.983 0 0 1-11.5 14c-8.067 6.398-15.067 13.732-21 22a176.793 176.793 0 0 0-11.5 10c13.545-16.216 28.212-31.549 44-46z"/><path style="opacity:1" fill="#982418" d="M361.5 173.5a25.658 25.658 0 0 1 6 6c-3-1-5-3-6-6z"/><path style="opacity:1" fill="#819391" d="M388.5 169.5c2.216.703 4.049 2.036 5.5 4a40.775 40.775 0 0 0 4.5 6c-1.562-.233-2.895-.9-4-2a35.061 35.061 0 0 0-6-8z"/><path style="opacity:1" fill="#9cacaa" d="M197.5 172.5c-1.315 1.167-1.981 2.667-2 4.5 1.401 4.089 1.901 8.256 1.5 12.5-.671.752-1.504 1.086-2.5 1 .453-.958 1.119-1.792 2-2.5a233.166 233.166 0 0 1-3-12c.603-2.071 1.936-3.238 4-3.5z"/><path style="opacity:1" fill="#76281c" d="M286.5 179.5c-1.39 3.43-1.224 6.764.5 10a61.324 61.324 0 0 1 13.5 9 45.935 45.935 0 0 0 11.5-8c2.901.737 5.068 2.403 6.5 5-1.696-.185-3.029-1.019-4-2.5-1.333-.667-2.667-.667-4 0-2.592 3.262-5.759 5.762-9.5 7.5a135.758 135.758 0 0 0-16-11c-2.049-3.785-1.549-7.118 1.5-10z"/><path style="opacity:1" fill="#136941" d="M394.5 179.5c2.748.975 4.748 2.808 6 5.5.916.374 1.75.874 2.5 1.5.399-.228.565-.562.5-1 1 .333 1.667 1 2 2-.901 3.139.432 4.805 4 5 .695 2.478 2.195 4.478 4.5 6 .483.948.649 1.948.5 3a471.384 471.384 0 0 1-18.5-18 10.134 10.134 0 0 1-1.5-4z"/><path style="opacity:1" fill="#7d8f8d" d="M281.5 176.5c1.113 1.446 1.28 3.113.5 5-.099 2.153-.933 3.819-2.5 5l2-10z"/><path style="opacity:1" fill="#952419" d="M367.5 179.5a181.097 181.097 0 0 1 16 16c-6.355-4.355-11.688-9.688-16-16z"/><path style="opacity:1" fill="#136941" d="M372.5 180.5c3.667.333 5.667 2.333 6 6-2.285-1.618-4.285-3.618-6-6z"/><path style="opacity:1" fill="#728583" d="M221.5 168.5c.989 3.877 1.989 7.877 3 12 9.489-.5 18.823.166 28 2-9.69.332-19.356-.002-29-1a32.015 32.015 0 0 1-2-13z"/><path style="opacity:1" fill="#2c3c39" d="M394.5 177.5c1.105 1.1 2.438 1.767 4 2l5 6c.065.438-.101.772-.5 1a9.454 9.454 0 0 0-2.5-1.5c-1.252-2.692-3.252-4.525-6-5.5v-2z"/><path style="opacity:1" fill="#a42117" d="M106.5 180.5c-1.022 3.022-3.022 5.022-6 6 1.715-2.382 3.715-4.382 6-6z"/><path style="opacity:1" fill="#375048" d="M106.5 156.5c0 .667-.333 1-1 1-4 2-7 5-9 9-2.333 3-5 5.667-8 8-3.71 1.711-6.378 4.377-8 8-4.639 4.974-9.305 9.974-14 15 .203-1.544.87-2.878 2-4l-1-1c-3.684 2.364-7.018 5.031-10 8a878.908 878.908 0 0 1 18-19.5 233.26 233.26 0 0 0 23-21.5c2.912-1.566 5.579-3.566 8-6 .587.733.587 1.733 0 3z"/><path style="opacity:1" fill="#1f6845" d="M378.5 186.5c9.31 6.318 17.31 13.984 24 23a196.018 196.018 0 0 1-24-23z"/><path style="opacity:1" fill="#76281c" d="M169.5 193.5a621.124 621.124 0 0 1-6-3 1125.06 1125.06 0 0 1-8 4c4.429-6.932 9.095-7.265 14-1z"/><path style="opacity:1" fill="#a42117" d="M98.5 188.5c-1.022 3.022-3.022 5.022-6 6 1.715-2.382 3.715-4.382 6-6z"/><path style="opacity:1" fill="#778a88" d="M194.5 190.5c-3.015 2.174-6.349 3.841-10 5a20.238 20.238 0 0 1 4-4l6-1z"/><path style="opacity:1" fill="#90a19f" d="M320.5 200.5a27.563 27.563 0 0 1-6-3.5c-1.765-.64-3.432-.473-5 .5.212-1.884 1.212-3.217 3-4 3.114 1.88 5.78 4.213 8 7z"/><path style="opacity:1" fill="#76281c" d="M318.5 195.5c3.264 1.594 5.931 3.927 8 7-3.264-1.594-5.931-3.927-8-7z"/><path style="opacity:1" fill="#136941" d="M66.5 197.5a194.995 194.995 0 0 1-24 23v-3a10.136 10.136 0 0 0 4-1.5 130.102 130.102 0 0 1 13-14 43.837 43.837 0 0 1 7-4.5z"/><path style="opacity:1" fill="#738684" d="M287.5 194.5c3.492.91 6.492 2.576 9 5-3.492-.91-6.492-2.576-9-5z"/><path style="opacity:1" fill="#364944" d="M405.5 187.5c8 6 15 13 21 21h-5c-2.667-2-5-4.333-7-7a4.934 4.934 0 0 0-.5-3c-2.305-1.522-3.805-3.522-4.5-6-3.568-.195-4.901-1.861-4-5z"/><path style="opacity:1" fill="#942519" d="M386.5 198.5a983.77 983.77 0 0 1 8 7c-3.913-.95-6.58-3.283-8-7z"/><path style="opacity:1" fill="#748785" d="M154.5 199.5a25.658 25.658 0 0 1-6 6c1-3 3-5 6-6z"/><path style="opacity:1" fill="#90a19f" d="M182.5 196.5a78.986 78.986 0 0 1-8 6.5c-1.963.844-3.296.344-4-1.5.65.304 1.317.637 2 1a38.443 38.443 0 0 1 10-6z"/><path style="opacity:1" fill="#697b7a" d="M259.5 204.5a128.323 128.323 0 0 0-12-1v17a514.977 514.977 0 0 1-2 22 674.14 674.14 0 0 1 1.5-40 3.943 3.943 0 0 1 2-1c3.709.699 7.209 1.699 10.5 3z"/><path style="opacity:1" fill="#76281c" d="M326.5 202.5c2.087 1.085 3.42 2.751 4 5-2.087-1.085-3.42-2.751-4-5z"/><path style="opacity:1" fill="#070c09" d="M218.5 204.5v2h-6c1.714-1.238 3.714-1.905 6-2z"/><path style="opacity:1" fill="#76281c" d="M218.5 204.5h2c2.763.244 4.929 1.577 6.5 4 .5 11.662.667 23.329.5 35a4960.43 4960.43 0 0 1-2.5-34c-1.465-2.415-3.632-3.415-6.5-3v-2z"/><path style="opacity:1" fill="#202928" d="M66.5 197.5a43.837 43.837 0 0 0-7 4.5 130.102 130.102 0 0 0-13 14 10.136 10.136 0 0 1-4 1.5c3.356-4.019 6.69-8.019 10-12 .667-2.667 2.333-4.333 5-5 2.982-2.969 6.316-5.636 10-8l1 1c-1.13 1.122-1.797 2.456-2 4z"/><path style="opacity:1" fill="#5c6d6c" d="m223.5 202.5-3 2h-2c-2.286.095-4.286.762-6 2l-5 2h-2c-.131-.876.202-1.543 1-2a63.163 63.163 0 0 1 17-4z"/><path style="opacity:1" fill="#76281c" d="M212.5 206.5h6c-5.009 2.446-10.342 4.113-16 5a11.445 11.445 0 0 0 5-3l5-2z"/><path style="opacity:1" fill="#778987" d="M323.5 204.5a25.497 25.497 0 0 1 7 5v2c-2.715-2.048-5.048-4.382-7-7z"/><path style="opacity:1" fill="#1f1c19" d="M169.5 193.5c-.086.996.248 1.829 1 2.5 3 .667 6 .667 9 0 2.476-2.571 5.476-4.071 9-4.5a20.238 20.238 0 0 0-4 4c-.992-.172-1.658.162-2 1a38.443 38.443 0 0 0-10 6 43.836 43.836 0 0 0-2-1c-1.187-2.405-2.687-4.739-4.5-7-.804-1.304-1.971-1.971-3.5-2-3.304 1.64-5.971 3.973-8 7-3 1-5 3-6 6a38.47 38.47 0 0 0-5.5 5c-.692.937-.525 1.603.5 2a63.707 63.707 0 0 0 6.5 7 10.134 10.134 0 0 1 1.5 4 18.478 18.478 0 0 0-4 6 117.984 117.984 0 0 0-7.5 14 8.43 8.43 0 0 0-.5 4 203.683 203.683 0 0 1-13.5-4l-2.5 1c-1.103 4.657-2.77 8.99-5 13 .463-2.982.796-5.982 1-9-.351-3.312.982-5.645 4-7 5.153 1.119 10.153 1.119 15 0-.237-1.291.096-2.291 1-3 3.808-4.825 6.808-10.159 9-16a10.258 10.258 0 0 0-1.5-4c-4.381-1.8-6.214-4.8-5.5-9 4.017-5.681 8.684-10.681 14-15a1125.06 1125.06 0 0 0 8-4 621.124 621.124 0 0 0 6 3z"/><path style="opacity:1" fill="#fb0106" d="M218.5 206.5c2.868-.415 5.035.585 6.5 3a4960.43 4960.43 0 0 0 2.5 34 162.597 162.597 0 0 1-.5 18c-.519 1.016-1.353 1.682-2.5 2a14.2 14.2 0 0 1-4-3c-2.587-4.258-5.92-7.925-10-11-.58-2.249-1.913-3.915-4-5-.902-1.841-2.236-3.174-4-4-.58-2.249-1.913-3.915-4-5a79.801 79.801 0 0 0-6.5-9c-3.324-6.305-1.491-9.805 5.5-10.5 2.118-1.049 3.784-2.549 5-4.5 5.658-.887 10.991-2.554 16-5z"/><path style="opacity:1" fill="#fc0106" d="M250.5 207.5c5.154-.206 10.154.461 15 2 5.062 3.144 10.562 5.81 16.5 8a28.931 28.931 0 0 0 1.5 4c-.953 2.926-2.287 5.593-4 8a88.292 88.292 0 0 0-12.5 13 4.934 4.934 0 0 0-.5 3 10.165 10.165 0 0 0-3 3c-3.734 2.731-6.734 6.064-9 10-2.367.579-4.2 1.912-5.5 4l-1-2a616.748 616.748 0 0 1 .5-33c.988-5.14 1.321-10.474 1-16 .934-1.068 1.268-2.401 1-4z"/><path style="opacity:1" fill="#76281c" d="M330.5 207.5c2.17 1.338 3.836 3.172 5 5.5a64.262 64.262 0 0 0-6.5 11.5c-.579 1.428-.412 2.762.5 4-2.744-.572-3.577-2.238-2.5-5a81.136 81.136 0 0 0 6.5-10c-.254-1.917-1.254-3.251-3-4v-2z"/><path style="opacity:1" fill="#7e271c" d="M394.5 206.5c2.947 1.281 5.281 3.281 7 6-2.973-1.31-5.307-3.31-7-6z"/><path style="opacity:1" fill="#76281c" d="M279.5 229.5c1.713-2.407 3.047-5.074 4-8a28.931 28.931 0 0 1-1.5-4c-5.938-2.19-11.438-4.856-16.5-8 .617-.111 1.117-.444 1.5-1a35.327 35.327 0 0 1 9.5 5.5c11.584 3.299 12.584 8.466 3 15.5z"/><path style="opacity:1" fill="#212625" d="M259.5 204.5c10.284 2.55 19.617 6.883 28 13 .077 1.25.744 2.083 2 2.5a9.175 9.175 0 0 0-2 4.5c-3.351 2.354-6.018 5.354-8 9a57.508 57.508 0 0 1-9 9c3.227-4.1 6.227-8.433 9-13 9.584-7.034 8.584-12.201-3-15.5a35.327 35.327 0 0 0-9.5-5.5c-.383.556-.883.889-1.5 1-1.1-1.058-2.434-1.892-4-2.5-3.858-.81-7.524-.643-11 .5.268 1.599-.066 2.932-1 4l-2 8v-16c4.019.146 8.019.479 12 1z"/><path style="opacity:1" fill="#76281c" d="M250.5 207.5c3.476-1.143 7.142-1.31 11-.5 1.566.608 2.9 1.442 4 2.5-4.846-1.539-9.846-2.206-15-2z"/><path style="opacity:1" fill="#922519" d="M87.5 199.5c-2.688 4.688-6.355 8.355-11 11a79.027 79.027 0 0 0 6.5-8c1.129-1.641 2.629-2.641 4.5-3z"/><path style="opacity:1" fill="#76281c" d="M141.5 209.5c-.714 4.2 1.119 7.2 5.5 9a10.258 10.258 0 0 1 1.5 4c-2.192 5.841-5.192 11.175-9 16a319.019 319.019 0 0 1 7-15.5l-.5-2.5a84.853 84.853 0 0 1-7.5-8c.688-1.355 1.688-2.355 3-3z"/><path style="opacity:1" fill="#136941" d="M402.5 209.5c14.889 12.334 28.889 25.834 42 40.5 1.717 1.559 3.717 2.392 6 2.5-.417.624-1.084.957-2 1-1.994-.989-3.994-1.989-6-3a101.446 101.446 0 0 1-13-14.5l-4-2a179.25 179.25 0 0 0-22.5-22.5 2.428 2.428 0 0 1-.5-2z"/><path style="opacity:1" fill="#76281c" d="M202.5 211.5c-1.216 1.951-2.882 3.451-5 4.5-6.991.695-8.824 4.195-5.5 10.5a79.801 79.801 0 0 1 6.5 9 71.96 71.96 0 0 1-11-13.5 29.26 29.26 0 0 1 4-6c3.936-.972 7.603-2.472 11-4.5z"/><path style="opacity:1" fill="#121513" d="M223.5 202.5h4c.639 8.433 1.306 16.766 2 25a92.74 92.74 0 0 1 1 17 225.387 225.387 0 0 0 0 19h13l2-3c.921 1.481 2.088 2.814 3.5 4 2.02-.532 2.853-1.865 2.5-4 1.679.215 2.679-.452 3-2 3.734-2.731 6.734-6.064 9-10a10.165 10.165 0 0 1 3-3c.736-1.729 2.07-2.729 4-3v2a89.744 89.744 0 0 0-6.5 9c-5.085 3.59-8.918 8.257-11.5 14 2.187 3.887 5.187 5.887 9 6l5-2c-.647 1.641-1.647 2.974-3 4-.997-.03-1.664.47-2 1.5.648 1.44.981 2.94 1 4.5 3.632.54 7.299.873 11 1a265.89 265.89 0 0 1 41-2v1a2081.548 2081.548 0 0 0-50 4 20.086 20.086 0 0 1-2 10c.457.798 1.124 1.131 2 1 8.439 1.694 17.105 2.361 26 2a290.849 290.849 0 0 0 33 2 128.323 128.323 0 0 1-1 12l-2 1a21.336 21.336 0 0 1 1-7c-.09-1.925-1.09-3.092-3-3.5a598.655 598.655 0 0 0-32.5-2.5 53.508 53.508 0 0 0-4.5 1h-14c-1.842-1.534-3.175-1.2-4 1 1.024 2.446 2.691 4.112 5 5 .356 1.69 1.356 2.69 3 3 1.085 2.087 2.751 3.42 5 4 1.981 1.644 3.981 3.31 6 5 1.085 2.087 2.751 3.42 5 4-.086.996.248 1.829 1 2.5a94.102 94.102 0 0 1 13 10c3.128 2.377 6.128 2.544 9 .5-.579 2.831-1.912 5.164-4 7a6.547 6.547 0 0 1-3-3c-1.085-2.087-2.751-3.42-5-4a717.507 717.507 0 0 0-34-29c-.906-1.465-2.239-2.465-4-3-3.073 2.069-5.406 4.736-7 8-1.333 1-1.333 2 0 3 .667 2.667 2.333 4.333 5 5 .17 2.704 1.503 4.371 4 5 .58 2.249 1.913 3.915 4 5l4 4a11.743 11.743 0 0 1 3 5c-3.917-.748-6.417-3.082-7.5-7a18.473 18.473 0 0 0-3.5-2c-1.257-2.927-3.257-5.261-6-7-1.329-3.273-3.829-5.273-7.5-6a124.15 124.15 0 0 1-3.5 3h-1v-3a795.113 795.113 0 0 0-13.5-2c-1.776 1.711-2.942 3.711-3.5 6-1.578-3.976-3.911-4.643-7-2 .233-1.562.9-2.895 2-4 .268-1.599-.066-2.932-1-4-1.125-1.152-1.125-2.152 0-3 1.105 1.1 2.438 1.767 4 2 2.835 2.285 6.168 3.618 10 4 .227-2.433-.773-4.099-3-5a325.989 325.989 0 0 0-15-15.5c-1-.667-2-.667-3 0a61.16 61.16 0 0 0 2 5.5c-.214 1.644.12 3.144 1 4.5l-1.5 1.5c-2.743-1.043-4.576-.043-5.5 3a149.366 149.366 0 0 0-22 19 2.428 2.428 0 0 1 .5-2 359.599 359.599 0 0 0 23-22 8.43 8.43 0 0 0 .5-4 41.541 41.541 0 0 0-8-1l7-2v-11c-1.449-1.664-3.449-2.498-6-2.5a962.991 962.991 0 0 0-54-1.5v-8c-.284-1.915.049-3.581 1-5l2-3c-.835 3.84-.835 7.506 0 11 .111.617.444 1.117 1 1.5 4.655.499 9.321.666 14 .5 5.14.988 10.474 1.321 16 1 7.489 1.156 15.155 1.322 23 .5a9.175 9.175 0 0 0 2-4.5c.765.423 1.598.757 2.5 1a37.85 37.85 0 0 1 5.5-5c4.564-2.04 4.898-4.373 1-7-3.407-4.725-7.073-9.058-11-13l-4-7h2c.58 2.249 1.913 3.915 4 5 4.08 3.075 7.413 6.742 10 11 3.193 6.784 6.193 6.617 9-.5-.646-5.6-1.313-11.1-2-16.5.167-11.671 0-23.338-.5-35-1.571-2.423-3.737-3.756-6.5-4l3-2z"/><path style="opacity:1" fill="#76281c" d="M249.5 211.5c.321 5.526-.012 10.86-1 16 .302-2.559-.032-4.893-1-7v-1l2-8z"/><path style="opacity:1" fill="#156540" d="M421.5 208.5h5c2.36 1.365 4.027 3.365 5 6-.543.06-.876.393-1 1 4.758 3.753 8.758 8.086 12 13a2.428 2.428 0 0 1-2-.5 516.992 516.992 0 0 1-19-19.5z"/><path style="opacity:1" fill="#95a6a4" d="M143.5 212.5c4.29 2.29 7.624 5.624 10 10-.457.798-1.124 1.131-2 1a10.134 10.134 0 0 0-1.5-4 63.707 63.707 0 0 1-6.5-7z"/><path style="opacity:1" fill="#7b8e8c" d="M200.5 209.5c-1.836 2.088-4.169 3.421-7 4 1.621-2.442 3.954-3.775 7-4z"/><path style="opacity:1" fill="#7b271c" d="M401.5 212.5c4.066 3.063 7.399 6.729 10 11-4.066-3.063-7.399-6.729-10-11z"/><path style="opacity:1" fill="#657776" d="M227.5 202.5c1.968 7.933 2.635 16.266 2 25a2965.742 2965.742 0 0 1-2-25z"/><path style="opacity:1" fill="#3d514c" d="M52.5 205.5c-3.31 3.981-6.644 7.981-10 12v3c.172.992-.162 1.658-1 2a4.934 4.934 0 0 0-3 .5 14.506 14.506 0 0 1-5 4c-.88 1.356-1.214 2.856-1 4.5-2 2.667-4.333 5-7 7 .792-1.467.792-2.8 0-4-2.092 2.105-4.425 3.772-7 5a88.486 88.486 0 0 0 10-12 382.914 382.914 0 0 0 24-22z"/><path style="opacity:1" fill="#6e8180" d="M330.5 211.5c.978.311 1.645.978 2 2a107.985 107.985 0 0 1-8.5 9c.019 1.607.185 3.274.5 5-1.941-1.511-2.441-3.511-1.5-6 3.53-2.678 6.03-6.012 7.5-10z"/><path style="opacity:1" fill="#677978" d="M287.5 217.5c1.752-.082 2.752.751 3 2.5-.399 1.981-1.399 3.481-3 4.5a9.175 9.175 0 0 1 2-4.5c-1.256-.417-1.923-1.25-2-2.5z"/><path style="opacity:1" fill="#136941" d="M62.5 220.5a813.979 813.979 0 0 0-4 5c-.13-2.867 1.203-4.533 4-5z"/><path style="opacity:1" fill="#a52116" d="M74.5 212.5a46.728 46.728 0 0 1-14 14c4.333-5 9-9.667 14-14z"/><path style="opacity:1" fill="#232b29" d="M205.5 208.5h2a11.445 11.445 0 0 1-5 3c-3.397 2.028-7.064 3.528-11 4.5a29.26 29.26 0 0 0-4 6 71.96 71.96 0 0 0 11 13.5c.58 2.249 1.913 3.915 4 5v2a55.428 55.428 0 0 0-11-10 113.043 113.043 0 0 1-9-11 28.134 28.134 0 0 1 7-6.5 10.134 10.134 0 0 1 4-1.5c2.831-.579 5.164-1.912 7-4 1.419-.951 3.085-1.284 5-1z"/><path style="opacity:1" fill="#136941" d="M41.5 222.5a83.949 83.949 0 0 0-9 9c-.214-1.644.12-3.144 1-4.5a14.506 14.506 0 0 0 5-4 4.934 4.934 0 0 1 3-.5z"/><path style="opacity:1" fill="#23312d" d="M431.5 214.5c1.175-.219 2.175.114 3 1 1.481 3.821 4.147 6.155 8 7 1.495 4.173 4.162 7.506 8 10 3.333 4 7 7.667 11 11v1a39.445 39.445 0 0 1-2.5 5 2.428 2.428 0 0 1-.5-2c.271-1.88-.396-3.213-2-4-5.394-4.392-10.061-9.392-14-15-3.242-4.914-7.242-9.247-12-13 .124-.607.457-.94 1-1z"/><path style="opacity:1" fill="#728583" d="M151.5 223.5c-.122 2.792-1.456 4.792-4 6a18.478 18.478 0 0 1 4-6z"/><path style="opacity:1" fill="#76281c" d="M248.5 227.5a616.748 616.748 0 0 0-.5 33l1 2c1.3-2.088 3.133-3.421 5.5-4-.321 1.548-1.321 2.215-3 2 .353 2.135-.48 3.468-2.5 4-1.412-1.186-2.579-2.519-3.5-4v-1l3-32zM279.5 229.5a130.508 130.508 0 0 1-9 13c-1.93.271-3.264 1.271-4 3a4.934 4.934 0 0 1 .5-3 88.292 88.292 0 0 1 12.5-13z"/><path style="opacity:1" fill="#111615" d="M247.5 220.5c.968 2.107 1.302 4.441 1 7l-3 32v-17a514.977 514.977 0 0 0 2-22z"/><path style="opacity:1" fill="#76281c" d="M330.5 232.5a157.2 157.2 0 0 1 8 8.5c3.984-.186 7.984-.186 12 0l2.5 2.5a150.068 150.068 0 0 1 4.5 16c-.918-2.32-2.252-4.487-4-6.5 1.066-1.159.733-1.992-1-2.5v-1c.541-3.152-.459-5.652-3-7.5-3.382-.159-6.715.341-10 1.5a10.258 10.258 0 0 1-4-1.5 42.888 42.888 0 0 0-5-9.5z"/><path style="opacity:1" fill="#647e77" d="M450.5 232.5c4.667 2.667 8.333 6.333 11 11-4-3.333-7.667-7-11-11z"/><path style="opacity:1" fill="#76281c" d="M198.5 235.5c2.087 1.085 3.42 2.751 4 5-2.087-1.085-3.42-2.751-4-5z"/><path style="opacity:1" fill="#758886" d="M303.5 234.5c.397-1.025 1.063-1.192 2-.5a11.105 11.105 0 0 1 3 4.5 119.872 119.872 0 0 1-5-4z"/><path style="opacity:1" fill="#9b2318" d="M58.5 228.5c-4.235 5.742-9.068 11.075-14.5 16a37.096 37.096 0 0 0-1.5 12c-1.318-4.241-1.152-8.574.5-13a327.01 327.01 0 0 1 15.5-15z"/><path style="opacity:1" fill="#607271" d="M191.5 232.5a55.428 55.428 0 0 1 11 10c1 .333 1.667 1 2 2l4 7a230.388 230.388 0 0 1-17-19z"/><path style="opacity:1" fill="#77271c" d="M311.5 244.5v1a397.578 397.578 0 0 0 6.5 14c1.177 4.347 2.344 8.681 3.5 13 .171 4.83-2.162 7.497-7 8a265.89 265.89 0 0 0-41 2 97.471 97.471 0 0 1-11-1 11.187 11.187 0 0 0-1-4.5c.336-1.03 1.003-1.53 2-1.5-.273 1.951.393 3.451 2 4.5a365.004 365.004 0 0 0 53-3c1.074-.739 1.741-1.739 2-3a160.221 160.221 0 0 0-11.5-29.5c-2.468-4.328-5.635-4.995-9.5-2a96.558 96.558 0 0 1-17 16 459.584 459.584 0 0 0 17-18.5c1.947-.991 3.947-1.325 6-1a71.927 71.927 0 0 1 6 5.5z"/><path style="opacity:1" fill="#86271b" d="M123.5 241.5c4.827-.793 9.827-.793 15 0-4.847 1.119-9.847 1.119-15 0z"/><path style="opacity:1" fill="#76281c" d="M180.5 247.5a263.201 263.201 0 0 0 18 19.5 175.501 175.501 0 0 1 12 8.5 9.175 9.175 0 0 1-2 4.5c-7.845.822-15.511.656-23-.5 7.008.166 14.008 0 21-.5l2-2a1091.201 1091.201 0 0 0-11-9c-2.411-4.08-5.744-7.08-10-9-4.873-6.705-10.873-12.205-18-16.5a6.846 6.846 0 0 1-4 1c1.511-1.941 3.511-2.441 6-1.5a163.621 163.621 0 0 1 9 5.5z"/><path style="opacity:1" fill="#829492" d="M279.5 233.5c-1.834 4.512-4.834 8.179-9 11v-2a57.508 57.508 0 0 0 9-9z"/><path style="opacity:1" fill="#fd0106" d="M263.5 275.5c6.857-4.18 12.857-9.513 18-16 .667 0 1-.333 1-1a96.558 96.558 0 0 0 17-16c3.865-2.995 7.032-2.328 9.5 2a160.221 160.221 0 0 1 11.5 29.5c-.259 1.261-.926 2.261-2 3a365.004 365.004 0 0 1-53 3c-1.607-1.049-2.273-2.549-2-4.5z"/><path style="opacity:1" fill="#1b1e1c" d="M330.5 209.5c1.746.749 2.746 2.083 3 4a81.136 81.136 0 0 1-6.5 10c-1.077 2.762-.244 4.428 2.5 5 .934 1.068 1.268 2.401 1 4a42.888 42.888 0 0 1 5 9.5 10.258 10.258 0 0 0 4 1.5c3.285-1.159 6.618-1.659 10-1.5 2.541 1.848 3.541 4.348 3 7.5a12.5 12.5 0 0 0-4.5-5 152.762 152.762 0 0 0-13.5 4c-.969-8.267-4.303-15.267-10-21a29.812 29.812 0 0 1-.5-5 107.985 107.985 0 0 0 8.5-9c-.355-1.022-1.022-1.689-2-2v-2z"/><path style="opacity:1" fill="#87261b" d="M202.5 240.5c1.764.826 3.098 2.159 4 4h-2c-.333-1-1-1.667-2-2v-2z"/><path style="opacity:1" fill="#76281c" d="M165.5 243.5c-1.544 5.419-3.878 10.419-7 15a8.43 8.43 0 0 1 .5-4c2.206-3.762 4.373-7.429 6.5-11z"/><path style="opacity:1" fill="#fb0106" d="M185.5 279.5c-5.526.321-10.86-.012-16-1-4.82-.987-9.82-1.653-15-2a95.897 95.897 0 0 1 4-18c3.122-4.581 5.456-9.581 7-15a6.846 6.846 0 0 0 4-1c7.127 4.295 13.127 9.795 18 16.5 4.256 1.92 7.589 4.92 10 9 3.659 2.954 7.326 5.954 11 9l-2 2c-6.992.5-13.992.666-21 .5z"/><path style="opacity:1" fill="#76281c" d="M227.5 243.5c.687 5.4 1.354 10.9 2 16.5-2.807 7.117-5.807 7.284-9 .5a14.2 14.2 0 0 0 4 3c1.147-.318 1.981-.984 2.5-2 .499-5.991.666-11.991.5-18z"/><path style="opacity:1" fill="#136941" d="M456.5 243.5c1.604.787 2.271 2.12 2 4l-7 4a31.447 31.447 0 0 1 4.5-5 4.934 4.934 0 0 0 .5-3z"/><path style="opacity:1" fill="#6c7f7d" d="M178.5 244.5c2.589.919 4.589 2.586 6 5-1.562-.233-2.895-.9-4-2l-2-3z"/><path style="opacity:1" fill="#76281c" d="M206.5 244.5c2.087 1.085 3.42 2.751 4 5-2.087-1.085-3.42-2.751-4-5z"/><path style="opacity:1" fill="#293230" d="m178.5 244.5 2 3a163.621 163.621 0 0 0-9-5.5c-2.489-.941-4.489-.441-6 1.5a1866.254 1866.254 0 0 0-6.5 11 8.43 8.43 0 0 0-.5 4 36.693 36.693 0 0 1-4 7l-2 3c2.245-10.165 5.912-19.832 11-29a18.924 18.924 0 0 1 5-3c4.053 1.79 7.387 4.457 10 8z"/><path style="opacity:1" fill="#798c89" d="M245.5 246.5v14l-2 3a225.995 225.995 0 0 1 2-17z"/><path style="opacity:1" fill="#293230" d="M180.5 247.5c1.105 1.1 2.438 1.767 4 2a288.12 288.12 0 0 1 25.5 24c.464.594.631 1.261.5 2a175.501 175.501 0 0 0-12-8.5 263.201 263.201 0 0 1-18-19.5z"/><path style="opacity:1" fill="#76281c" d="M119.5 248.5a104.618 104.618 0 0 1-1 9v1c-1.29.558-2.123 1.558-2.5 3a84.902 84.902 0 0 0-.5 13c-2.142-9.213-.809-17.88 4-26zM263.5 248.5c-2.266 3.936-5.266 7.269-9 10 2.266-3.936 5.266-7.269 9-10z"/><path style="opacity:1" fill="#586b6a" d="M230.5 244.5a93.307 93.307 0 0 1 1 18c3.871-.315 7.538.018 11 1h-12a225.387 225.387 0 0 1 0-19z"/><path style="opacity:1" fill="#4b5d5c" d="M442.5 250.5c2.006 1.011 4.006 2.011 6 3 .916-.043 1.583-.376 2-1 0-.667.333-1 1-1l7-4a2.428 2.428 0 0 0 .5 2 39.445 39.445 0 0 0 2.5-5 11.988 11.988 0 0 1-1 6 2968.346 2968.346 0 0 1-7 6c.011-1.517.677-2.684 2-3.5l-1-.5a14.766 14.766 0 0 1-5.5 3c-1.677-1.108-3.177-1.108-4.5 0-4.572-3.063-8.739-6.73-12.5-11-.198 1.882-.698 3.548-1.5 5a18.453 18.453 0 0 1 .5-6 3.647 3.647 0 0 1 1.5-1 132.249 132.249 0 0 1 8 8.5c.937.692 1.603.525 2-.5z"/><path style="opacity:1" fill="#0d1211" d="M453.5 256.5a343.58 343.58 0 0 0-4 1 319.364 319.364 0 0 0-5-2c1.323-1.108 2.823-1.108 4.5 0a14.766 14.766 0 0 0 5.5-3l1 .5c-1.323.816-1.989 1.983-2 3.5z"/><path style="opacity:1" fill="#4e5f5e" d="M444.5 255.5c1.656.646 3.323 1.313 5 2a343.58 343.58 0 0 1 4-1c-3.376 4.08-6.376 3.747-9-1z"/><path style="opacity:1" fill="#76281c" d="M42.5 257.5a11200.18 11200.18 0 0 1 3 130.5l-1 1c1.769 1.314 3.769 2.147 6 2.5 2.513-.461 5.18-.461 8 0-3.476 1.143-7.142 1.31-11 .5-1.921-.36-3.588-1.194-5-2.5a725.333 725.333 0 0 0-1-83v-24c-.186-8.705.147-17.039 1-25z"/><path style="opacity:1" fill="#24302e" d="M57.5 226.5h1v2a327.01 327.01 0 0 0-15.5 15c-1.652 4.426-1.818 8.759-.5 13v1c-.853 7.961-1.186 16.295-1 25h-1c.477-11.496-.023-22.829-1.5-34A224.095 224.095 0 0 1 22.5 266c-2 .667-4 .667-6 0a3955.178 3955.178 0 0 1-8-10c-.728-3.17-.395-6.337 1-9.5a72.95 72.95 0 0 0 9-7c2.575-1.228 4.908-2.895 7-5 .792 1.2.792 2.533 0 4-2.249.58-3.915 1.913-5 4a35.683 35.683 0 0 0-8 8 401.2 401.2 0 0 0 3 6c.094 4 2.094 5.833 6 5.5a418.516 418.516 0 0 0 20-19.5c1.293-1.342 2.126-3.009 2.5-5L54.5 227a4.934 4.934 0 0 1 3-.5z"/><path style="opacity:1" fill="#176843" d="M41.5 242.5a418.516 418.516 0 0 1-20 19.5c-3.906.333-5.906-1.5-6-5.5a19.347 19.347 0 0 0 4.5 4c1.567-1.356 3.4-2.023 5.5-2a4.932 4.932 0 0 1 .5-3c4.833-3.5 9-7.667 12.5-12.5a4.934 4.934 0 0 1 3-.5z"/><path style="opacity:1" fill="#136941" d="M20.5 242.5c-1.688 3.688-4.355 6.355-8 8a35.683 35.683 0 0 1 8-8zM25.5 238.5c-1.085 2.087-2.751 3.42-5 4 1.085-2.087 2.751-3.42 5-4z"/><path style="opacity:1" fill="#76281c" d="M158.5 258.5a95.897 95.897 0 0 0-4 18c-.835-3.494-.835-7.16 0-11a36.693 36.693 0 0 0 4-7z"/><path style="opacity:1" fill="#81271b" d="M357.5 259.5c3.645 5.126 3.812 10.459.5 16-3.057.951-6.223 1.284-9.5 1 2.529-1.468 5.196-1.968 8-1.5.837-1.011 1.17-2.178 1-3.5 2.103-1.518 2.27-3.185.5-5a24.935 24.935 0 0 1-.5-7z"/><path style="opacity:1" fill="#3a4645" d="M352.5 250.5c1.733.508 2.066 1.341 1 2.5 1.748 2.013 3.082 4.18 4 6.5-.163 2.357.003 4.69.5 7 1.77 1.815 1.603 3.482-.5 5h-1c-.578-7.222-1.912-14.222-4-21z"/><path style="opacity:1" fill="#242a29" d="M303.5 234.5a119.872 119.872 0 0 0 5 4c1.846 1.53 2.846 3.53 3 6a71.927 71.927 0 0 0-6-5.5c-2.053-.325-4.053.009-6 1a459.584 459.584 0 0 1-17 18.5c0 .667-.333 1-1 1a8949.775 8949.775 0 0 0-15 12l-5 2c13.49-13.834 27.49-26.834 42-39z"/><path style="opacity:1" fill="#5a6d6c" d="M234.5 269.5c.03-.997-.47-1.664-1.5-2-1.44.648-2.94.981-4.5 1 2.357-2.057 5.024-2.39 8-1-.355 1.022-1.022 1.689-2 2z"/><path style="opacity:1" fill="#e1e7e5" d="M234.5 269.5c-3.745 1.412-6.078 4.079-7 8-3.333 1.333-5.667 3.667-7 7-.825.886-1.825 1.219-3 1-.002 4.041-1.335 4.708-4 2a197.868 197.868 0 0 0 5-11c2.692-2.362 5.359-4.696 8-7 .342-.838 1.008-1.172 2-1 1.56-.019 3.06-.352 4.5-1 1.03.336 1.53 1.003 1.5 2z"/><path style="opacity:1" fill="#e0e6e4" d="M253.5 272.5c4.146 4.548 6.813 9.882 8 16-1.808.009-3.475-.491-5-1.5-1.527-2.69-3.527-4.857-6-6.5-1.257-2.927-3.257-5.261-6-7-2.21-.394-3.543-1.727-4-4a2.428 2.428 0 0 1 .5-2 40.852 40.852 0 0 1 12.5 5z"/><path style="opacity:1" fill="#88261a" d="M281.5 259.5c-5.143 6.487-11.143 11.82-18 16 1.353-1.026 2.353-2.359 3-4a8949.775 8949.775 0 0 1 15-12z"/><path style="opacity:1" fill="#788b89" d="M253.5 272.5a40.852 40.852 0 0 0-12.5-5 2.428 2.428 0 0 0-.5 2c-.904-.709-1.237-1.709-1-3 5.669-.085 10.336 1.915 14 6z"/><path style="opacity:1" fill="#6f8180" d="M219.5 264.5c3.898 2.627 3.564 4.96-1 7 .203-1.544.87-2.878 2-4a5.576 5.576 0 0 1-1-3z"/><path style="opacity:1" fill="#1d2423" d="M118.5 258.5a102.914 102.914 0 0 0-2 14c4.652.498 9.319.831 14 1a157.866 157.866 0 0 0 0 34 41.541 41.541 0 0 0-8 1c-4.918-.328-6.918 2.005-6 7-1.626-2.504-1.959-5.17-1-8h1c2.357.163 4.69-.003 7-.5.752-.671 1.086-1.504 1-2.5 1.25-.077 2.083-.744 2.5-2 .667-7.667.667-15.333 0-23-.574-1.992-1.741-3.492-3.5-4.5a32.462 32.462 0 0 0-8-.5 84.902 84.902 0 0 1 .5-13c.377-1.442 1.21-2.442 2.5-3z"/><path style="opacity:1" fill="#768987" d="M226.5 269.5a3741.969 3741.969 0 0 0-8 7c1.438-3.774 4.105-6.107 8-7z"/><path style="opacity:1" fill="#283130" d="M311.5 245.5c1.327 1.3 2.66 2.633 4 4a39.239 39.239 0 0 0 5.5 12 117.754 117.754 0 0 1 2.5 15c.214 1.644-.12 3.144-1 4.5a32.462 32.462 0 0 1-8 .5v-1c4.838-.503 7.171-3.17 7-8a4647.897 4647.897 0 0 0-3.5-13 397.578 397.578 0 0 1-6.5-14z"/><path style="opacity:1" fill="#101412" d="M356.5 271.5h1c.17 1.322-.163 2.489-1 3.5-2.804-.468-5.471.032-8 1.5-1.937 7.846-2.604 15.846-2 24l1 3a45.752 45.752 0 0 0 11 3.5c.906 1.699 1.239 3.533 1 5.5-.617.111-1.117.444-1.5 1a40.914 40.914 0 0 0-.5 9 23.317 23.317 0 0 0-3 6l2-13c-.214-1.644.12-3.144 1-4.5-2.571-3.137-5.904-4.637-10-4.5a148.577 148.577 0 0 1-3-23v-9c2.567-.221 4.901-.888 7-2 1.542-.801 3.208-1.134 5-1z"/><path style="opacity:1" fill="#76281c" d="M115.5 274.5a32.462 32.462 0 0 1 8 .5c1.759 1.008 2.926 2.508 3.5 4.5.667 7.667.667 15.333 0 23-.417 1.256-1.25 1.923-2.5 2 2.063-7.774 2.563-15.774 1.5-24-2.492-3.968-5.992-5.968-10.5-6z"/><path style="opacity:1" fill="#677a79" d="M244.5 273.5c2.743 1.739 4.743 4.073 6 7-2.743-1.739-4.743-4.073-6-7z"/><path style="opacity:1" fill="#76281c" d="M154.5 276.5c5.18.347 10.18 1.013 15 2a98.432 98.432 0 0 1-14-.5c-.556-.383-.889-.883-1-1.5z"/><path style="opacity:1" fill="#556867" d="M351.5 272.5c-2.099 1.112-4.433 1.779-7 2v9c-.744-2.86-1.411-5.86-2-9a18.346 18.346 0 0 1 9-2z"/><path style="opacity:1" fill="#76281c" d="M348.5 276.5a161.15 161.15 0 0 1-1 24.5c.944 1.477 2.277 2.477 4 3l8 2c1.311 2.274 1.311 4.44 0 6.5.239-1.967-.094-3.801-1-5.5a45.752 45.752 0 0 1-11-3.5l-1-3c-.604-8.154.063-16.154 2-24z"/><path style="opacity:1" fill="#7b8e8b" d="M151.5 273.5v8a962.991 962.991 0 0 1 54 1.5c2.551.002 4.551.836 6 2.5a458.734 458.734 0 0 0-61-3c-.31-3.213.023-6.213 1-9z"/><path style="opacity:1" fill="#afbebc" d="M323.5 276.5c1.307 1.723 1.307 3.557 0 5.5a905.648 905.648 0 0 1-59 3.5 2081.548 2081.548 0 0 1 50-4 32.462 32.462 0 0 0 8-.5c.88-1.356 1.214-2.856 1-4.5z"/><path style="opacity:1" fill="#495b5b" d="M344.5 283.5a148.577 148.577 0 0 0 3 23c-2.448.415-3.781-.585-4-3a113.171 113.171 0 0 0 1-20z"/><path style="opacity:1" fill="#e0e6e4" d="M258.5 301.5a5999.972 5999.972 0 0 1-8 9 5.727 5.727 0 0 1-3 1c-2.614 1.045-5.28 1.545-8 1.5 1.876-.918 2.876-2.418 3-4.5 1.075-2.739 3.075-4.406 6-5 2.868-4.544 6.535-8.544 11-12l1 3.5c.018 2.442-.649 4.608-2 6.5zM232.5 309.5c.219 1.175-.114 2.175-1 3a31.71 31.71 0 0 0-6-2c-1.562-.233-2.895-.9-4-2a37.779 37.779 0 0 0-5-9 61.16 61.16 0 0 1-2-5.5c1-.667 2-.667 3 0a325.989 325.989 0 0 1 15 15.5z"/><path style="opacity:1" fill="#5c6f6e" d="m211.5 296.5-7 2h-13c6.479-1.098 13.146-1.765 20-2z"/><path style="opacity:1" fill="#6f8280" d="M264.5 296.5c8.847.259 17.514.926 26 2-8.895.361-17.561-.306-26-2z"/><path style="opacity:1" fill="#76281c" d="M202.5 298.5h2c2.706.075 5.373.408 8 1a8.43 8.43 0 0 1-.5 4 359.599 359.599 0 0 1-23 22 2.428 2.428 0 0 0-.5 2 139.708 139.708 0 0 1-16 12 1944.99 1944.99 0 0 1 37.5-36c.448-1.909-.385-3.076-2.5-3.5-2.045-.49-4.045-.323-6 .5l1-2z"/><path style="opacity:1" fill="#748785" d="M290.5 298.5c11.202-.166 22.202.501 33 2a290.849 290.849 0 0 1-33-2z"/><path style="opacity:1" fill="#1b211f" d="M191.5 298.5h11l-1 2c-10.339-.166-20.672 0-31 .5-4.821 1.279-9.821 1.946-15 2-.556.383-.889.883-1 1.5-1.232 8.914 1.101 16.914 7 24a65.913 65.913 0 0 0 4.5 10c2.016 2.108 4.183 2.442 6.5 1a139.708 139.708 0 0 0 16-12l-1 2c-2.667 2-5 4.333-7 7a137.09 137.09 0 0 1-10.5 9c-11.823-12.457-18.323-27.457-19.5-45a915.133 915.133 0 0 1 41-2z"/><path style="opacity:1" fill="#76281c" d="M201.5 300.5c-15.521 1.326-31.188 2.66-47 4 .111-.617.444-1.117 1-1.5 5.179-.054 10.179-.721 15-2 10.328-.5 20.661-.666 31-.5z"/><path style="opacity:1" fill="#fc0106" d="M172.5 339.5a8.43 8.43 0 0 1-4-.5 158.622 158.622 0 0 0-7-10.5 82.714 82.714 0 0 1-7-24c15.812-1.34 31.479-2.674 47-4 1.955-.823 3.955-.99 6-.5 2.115.424 2.948 1.591 2.5 3.5a1944.99 1944.99 0 0 0-37.5 36z"/><path style="opacity:1" fill="#76281c" d="M267.5 301.5c-.984 2.098-.651 4.098 1 6-2.309-.888-3.976-2.554-5-5 .825-2.2 2.158-2.534 4-1zM320.5 313.5v1l-4 8a129.315 129.315 0 0 0 3-14 7.93 7.93 0 0 0-1-3.5 22.508 22.508 0 0 0-7-2 444.565 444.565 0 0 1-30-1.5 53.508 53.508 0 0 1 4.5-1 598.655 598.655 0 0 1 32.5 2.5c1.91.408 2.91 1.575 3 3.5a21.336 21.336 0 0 0-1 7z"/><path style="opacity:1" fill="#fb0106" d="M267.5 301.5h14c9.825.83 19.825 1.33 30 1.5 2.452.29 4.785.956 7 2a7.93 7.93 0 0 1 1 3.5 129.315 129.315 0 0 1-3 14c-1.713 1.135-2.38 2.802-2 5a41.87 41.87 0 0 1-8.5 9 193.683 193.683 0 0 0-18.5-13c-.489-2.824-2.156-4.157-5-4-2.019-1.69-4.019-3.356-6-5-1.085-2.087-2.751-3.42-5-4-.356-1.69-1.356-2.69-3-3-1.651-1.902-1.984-3.902-1-6z"/><path style="opacity:1" fill="#76281c" d="M124.5 304.5c.086.996-.248 1.829-1 2.5-2.31.497-4.643.663-7 .5a28.557 28.557 0 0 0 8-3zM154.5 304.5a82.714 82.714 0 0 0 7 24c-5.899-7.086-8.232-15.086-7-24z"/><path style="opacity:1" fill="#485554" d="M216.5 299.5a37.779 37.779 0 0 1 5 9c-1.125.848-1.125 1.848 0 3-2.243-1.39-4.41-3.057-6.5-5a15.414 15.414 0 0 1-4.5 2c.924-3.043 2.757-4.043 5.5-3l1.5-1.5c-.88-1.356-1.214-2.856-1-4.5z"/><path style="opacity:1" fill="#607372" d="M258.5 301.5c-1.231 4.234-3.898 7.234-8 9 2.695-3.026 5.362-6.026 8-9z"/><path style="opacity:1" fill="#76281c" d="M115.5 307.5c-.959 2.83-.626 5.496 1 8v2a125.819 125.819 0 0 0 5 21c-4.556-8.851-7.222-18.351-8-28.5.184-1.376.851-2.209 2-2.5z"/><path style="opacity:1" fill="#758886" d="M264.5 307.5c-1.637-.718-3.303-.884-5-.5-1.592 2.431-3.592 4.265-6 5.5 1.594-3.264 3.927-5.931 7-8 1.761.535 3.094 1.535 4 3z"/><path style="opacity:1" fill="#85271b" d="M268.5 307.5c1.644.31 2.644 1.31 3 3-1.644-.31-2.644-1.31-3-3z"/><path style="opacity:1" fill="#788b88" d="M122.5 308.5c-1.141.839-2.474 1.506-4 2l-1 2.5c.577 2.137.91 4.304 1 6.5l-2-2v-2c-.918-4.995 1.082-7.328 6-7z"/><path style="opacity:1" fill="#798b8a" d="M232.5 309.5c2.227.901 3.227 2.567 3 5-3.832-.382-7.165-1.715-10-4a31.71 31.71 0 0 1 6 2c.886-.825 1.219-1.825 1-3z"/><path style="opacity:1" fill="#81271b" d="M271.5 310.5c2.249.58 3.915 1.913 5 4-2.249-.58-3.915-1.913-5-4z"/><path style="opacity:1" fill="#76281c" d="M359.5 312.5c-.399 3.511-1.066 6.844-2 10a40.914 40.914 0 0 1 .5-9c.383-.556.883-.889 1.5-1z"/><path style="opacity:1" fill="#607271" d="M242.5 308.5c-.124 2.082-1.124 3.582-3 4.5 2.72.045 5.386-.455 8-1.5-2.341 2.351-5.341 3.351-9 3 .122-2.792 1.456-4.792 4-6z"/><path style="opacity:1" fill="#6e817f" d="M253.5 315.5c2 1.333 3.667 3 5 5-2.667-.667-4.333-2.333-5-5z"/><path style="opacity:1" fill="#76281c" d="M227.5 321.5v1a3826.426 3826.426 0 0 1-2.5 50c-1.359 2.522-3.526 3.855-6.5 4l-10-5a68.825 68.825 0 0 1 11 3c1.883-.376 3.383-1.376 4.5-3a434.197 434.197 0 0 0 1-51l-1-1c-1.451 1.964-3.284 3.297-5.5 4l2-4c3.089-2.643 5.422-1.976 7 2z"/><path style="opacity:1" fill="#fafcfa" d="M244.5 317.5v3a2293.733 2293.733 0 0 0 4 57h-7c-4.497.555-8.664-.111-12.5-2a792.232 792.232 0 0 1 1.5-55.5l-1-1c4.809-1.442 9.809-1.942 15-1.5z"/><path style="opacity:1" fill="#76281c" d="M256.5 323.5c-1.669-1.64-3.669-2.974-6-4-1.446.671-2.112 1.838-2 3.5a275.958 275.958 0 0 1 2 32.5 304.354 304.354 0 0 0-3-23 3.647 3.647 0 0 1 1-1.5c-.346-2.94-1.346-5.44-3-7.5v-3a124.15 124.15 0 0 0 3.5-3c3.671.727 6.171 2.727 7.5 6z"/><path style="opacity:1" fill="#7c8f8d" d="M118.5 319.5c1.112 2.099 1.779 4.433 2 7-.617-.111-1.117-.444-1.5-1a18.453 18.453 0 0 1-.5-6z"/><path style="opacity:1" fill="#76281c" d="M282.5 319.5c2.844-.157 4.511 1.176 5 4-2.249-.58-3.915-1.913-5-4z"/><path style="opacity:1" fill="#374342" d="M222.5 315.5c-1.1 1.105-1.767 2.438-2 4l-2 4a274.123 274.123 0 0 1-8 6c3.16-4.312 6.327-8.646 9.5-13 .671-.752 1.504-1.086 2.5-1z"/><path style="opacity:1" fill="#fb0106" d="M208.5 371.5a327.592 327.592 0 0 0-14-7.5c-1.624-1.117-2.624-2.617-3-4.5a215.902 215.902 0 0 0 14-20c.996.086 1.829-.248 2.5-1a80.622 80.622 0 0 1 10.5-15c2.216-.703 4.049-2.036 5.5-4l1 1a434.197 434.197 0 0 1-1 51c-1.117 1.624-2.617 2.624-4.5 3a68.825 68.825 0 0 0-11-3z"/><path style="opacity:1" fill="#fd0106" d="M256.5 323.5c1.257 2.927 3.257 5.261 6 7 2.135 2.247 3.801 4.913 5 8 7.38 5.721 13.38 12.721 18 21a46.485 46.485 0 0 1-10 8c-1.291-.237-2.291.096-3 1-2.467.255-4.467 1.255-6 3a26.147 26.147 0 0 1-12 1.5l-1.5-1.5c.122-5.76-.711-11.093-2.5-16a275.958 275.958 0 0 0-2-32.5c-.112-1.662.554-2.829 2-3.5 2.331 1.026 4.331 2.36 6 4z"/><path style="opacity:1" fill="#879896" d="M322.5 312.5c-.694 5.415-2.36 10.415-5 15a142.504 142.504 0 0 0 3-13v-1l2-1z"/><path style="opacity:1" fill="#a4b4b2" d="M40.5 282.5h1v24c.167 28.335 0 56.669-.5 85l-1 1a40.936 40.936 0 0 1-7.5-3c2.772.871 5.438.871 8 0v-107z"/><path style="opacity:1" fill="#76281c" d="M218.5 323.5a80.622 80.622 0 0 0-10.5 15c-.671.752-1.504 1.086-2.5 1 1.404-1.755 2.404-3.755 3-6 .901-.79 1.568-1.79 2-3v-1a274.123 274.123 0 0 0 8-6zM256.5 323.5c2.743 1.739 4.743 4.073 6 7-2.743-1.739-4.743-4.073-6-7zM287.5 323.5a193.683 193.683 0 0 1 18.5 13 41.87 41.87 0 0 0 8.5-9 54.04 54.04 0 0 1-4 9c-2.872 2.044-5.872 1.877-9-.5a94.102 94.102 0 0 0-13-10c-.752-.671-1.086-1.504-1-2.5z"/><path style="opacity:1" fill="#667978" d="M262.5 325.5c2.087 1.085 3.42 2.751 4 5-2.087-1.085-3.42-2.751-4-5z"/><path style="opacity:1" fill="#35322f" d="M320.5 314.5a142.504 142.504 0 0 1-3 13 29.555 29.555 0 0 1-3 5c-.973 1.639-2.306 2.973-4 4a54.04 54.04 0 0 0 4-9c-.38-2.198.287-3.865 2-5l4-8z"/><path style="opacity:1" fill="#76281c" d="M161.5 328.5a158.622 158.622 0 0 1 7 10.5 8.43 8.43 0 0 0 4 .5c-2.317 1.442-4.484 1.108-6.5-1a65.913 65.913 0 0 1-4.5-10z"/><path style="opacity:1" fill="#7c8f8d" d="M9.5 329.5c1.031 2.461 1.698 5.127 2 8-1.723-2.28-2.39-4.947-2-8z"/><path style="opacity:1" fill="#78271c" d="M262.5 330.5a18.473 18.473 0 0 1 3.5 2c1.083 3.918 3.583 6.252 7.5 7a10.134 10.134 0 0 0 1.5 4c5.283 4.088 9.116 9.088 11.5 15 .063 1.981-.604 3.648-2 5a53.858 53.858 0 0 1-9 4 46.485 46.485 0 0 0 10-8c-4.62-8.279-10.62-15.279-18-21-1.199-3.087-2.865-5.753-5-8z"/><path style="opacity:1" fill="#788988" d="M210.5 330.5c-.432 1.21-1.099 2.21-2 3l-3 2c.499-2.764 2.165-4.431 5-5z"/><path style="opacity:1" fill="#728583" d="M187.5 329.5c-1.333 3.333-3.667 5.667-7 7 2-2.667 4.333-5 7-7z"/><path style="opacity:1" fill="#637675" d="M340.5 334.5c-2.779-1.609-4.779-.942-6 2-.17-1.322.163-2.489 1-3.5 2.174-.877 3.841-.377 5 1.5z"/><path style="opacity:1" fill="#242928" d="m116.5 317.5 2 2a18.453 18.453 0 0 0 .5 6c.383.556.883.889 1.5 1a37.282 37.282 0 0 1 2.5 8c.5 1.167 1.333 2 2.5 2.5a138.01 138.01 0 0 0 13-2 46.715 46.715 0 0 1 4 10.5c-.973-1.639-2.306-2.973-4-4-.838-.342-1.172-1.008-1-2-4.41-1.539-8.744-1.206-13 1a185.977 185.977 0 0 0-3-2 125.819 125.819 0 0 1-5-21z"/><path style="opacity:1" fill="#8a9b99" d="m356.5 315.5-2 13-2 4c-.79 1.109-1.29 2.442-1.5 4-3.779.909-7.279.243-10.5-2 3.36.116 6.693.449 10 1 2.277-6.043 3.777-12.376 4.5-19 .383-.556.883-.889 1.5-1z"/><path style="opacity:1" fill="#6a7d7c" d="M298.5 336.5c2.249.58 3.915 1.913 5 4-2.295-.636-3.961-1.969-5-4z"/><path style="opacity:1" fill="#90a29f" d="M314.5 332.5a6.846 6.846 0 0 1-1 4 52.108 52.108 0 0 0-5.5 8c-1.107 1.212-1.607.879-1.5-1 2.088-1.836 3.421-4.169 4-7 1.694-1.027 3.027-2.361 4-4z"/><path style="opacity:1" fill="#7b271c" d="M121.5 338.5c.982.641 1.982 1.307 3 2 4.256-2.206 8.59-2.539 13-1a32.03 32.03 0 0 0-13 2c-2.016-.016-3.016-1.016-3-3z"/><path style="opacity:1" fill="#76281c" d="M205.5 339.5a215.902 215.902 0 0 1-14 20c.376 1.883 1.376 3.383 3 4.5a327.592 327.592 0 0 1 14 7.5c-6.617-1.475-12.617-4.308-18-8.5-1.076-1.726-1.243-3.559-.5-5.5a80.303 80.303 0 0 0 13-17c.671-.752 1.504-1.086 2.5-1z"/><path style="opacity:1" fill="#798c8a" d="M270.5 334.5c1.517.011 2.684.677 3.5 2a79.801 79.801 0 0 1 6.5 9l-7-6a11.743 11.743 0 0 0-3-5z"/><path style="opacity:1" fill="#79271c" d="M357.5 322.5a368.623 368.623 0 0 1-5 17.5c-1.51.85-3.01 1.683-4.5 2.5-3.565-1.789-7.398-2.456-11.5-2-.255 2.516-1.089 4.85-2.5 7-5.091 5.941-4.424 11.274 2 16 .78 1.887.613 3.554-.5 5-.297-3.826-2.13-6.826-5.5-9-2.306-5.084-1.306-9.418 3-13a106.191 106.191 0 0 0 2.5-6.5c4.103-1.247 8.27-1.081 12.5.5 4.046-1.078 5.546-3.744 4.5-8l2-4a23.317 23.317 0 0 1 3-6z"/><path style="opacity:1" fill="#87261b" d="M428.5 283.5c.978 32.522 1.811 65.188 2.5 98-.935 2.602-2.768 4.102-5.5 4.5-6.795 1.564-13.461 1.731-20 .5a87.976 87.976 0 0 0 19-1.5c1.829-.273 3.329-1.107 4.5-2.5a5780.044 5780.044 0 0 1-.5-99z"/><path style="opacity:1" fill="#76281c" d="M138.5 341.5c1.694 1.027 3.027 2.361 4 4 .345 2.698 1.678 4.698 4 6-.172.992.162 1.658 1 2a14.093 14.093 0 0 0 1 3.5 74.881 74.881 0 0 1-5 8.5c-1 .333-1.667 1-2 2-.597.235-.93.735-1 1.5a15.414 15.414 0 0 1 2 4.5c-1.852-1.02-3.185-2.52-4-4.5l8-12a68.767 68.767 0 0 1-8-15.5z"/><path style="opacity:1" fill="#1f2624" d="M208.5 333.5c-.596 2.245-1.596 4.245-3 6-.996-.086-1.829.248-2.5 1a80.303 80.303 0 0 1-13 17c-.743 1.941-.576 3.774.5 5.5 5.383 4.192 11.383 7.025 18 8.5l10 5a121.61 121.61 0 0 1-20-6c-1.706-2.16-4.04-3.326-7-3.5a714.756 714.756 0 0 1-7-6.5 381.413 381.413 0 0 1 21-25l3-2z"/><path style="opacity:1" fill="#93a4a2" d="M333.5 338.5c-1.738 5.234-4.405 9.901-8 14 1.715-5.236 4.382-9.903 8-14z"/><path style="opacity:1" fill="#a0b0ae" d="M456.5 348.5a165.847 165.847 0 0 1-4.5 17c-.898 2.569-2.065 4.902-3.5 7a528.23 528.23 0 0 1 6-21.5c.184-1.376.851-2.209 2-2.5z"/><path style="opacity:1" fill="#171d1c" d="M142.5 345.5c1.694 1.027 3.027 2.361 4 4v2c-2.322-1.302-3.655-3.302-4-6z"/><path style="opacity:1" fill="#0c110e" d="M147.5 353.5c1.645.979 2.979 2.312 4 4a45.408 45.408 0 0 1-8 8 74.881 74.881 0 0 0 5-8.5 14.093 14.093 0 0 1-1-3.5z"/><path style="opacity:1" fill="#181e1c" d="M227.5 322.5c.734 18.168.9 36.502.5 55 4.401.967 8.901 1.3 13.5 1h8a2154.77 2154.77 0 0 0-4-55c1.654 2.06 2.654 4.56 3 7.5a3.647 3.647 0 0 0-1 1.5 304.354 304.354 0 0 1 3 23c.623 6.003 1.289 12.003 2 18a29.825 29.825 0 0 0 5 2c3.208-1.109 6.208-2.442 9-4 2.589.039 4.589-.961 6-3 .709-.904 1.709-1.237 3-1a53.858 53.858 0 0 0 9-4c1.396-1.352 2.063-3.019 2-5-2.384-5.912-6.217-10.912-11.5-15a10.134 10.134 0 0 1-1.5-4l7 6a173.58 173.58 0 0 1 12 12.5c-.347 3.014-2.014 4.681-5 5-2.606 3.928-6.273 6.094-11 6.5a1725.308 1725.308 0 0 0-10 5 29.753 29.753 0 0 0-7 2 51.569 51.569 0 0 0-7 1v3a192.747 192.747 0 0 1 21 6v1a17015.82 17015.82 0 0 1-31-6.5c-9.36-.048-18.693.452-28 1.5l3-2c4.433-.624 4.767-1.624 1-3v-1c2.974-.145 5.141-1.478 6.5-4a3826.426 3826.426 0 0 0 2.5-50z"/><path style="opacity:1" fill="#7b271c" d="M250.5 355.5c1.789 4.907 2.622 10.24 2.5 16l1.5 1.5a26.147 26.147 0 0 0 12-1.5c-2.792 1.558-5.792 2.891-9 4a29.825 29.825 0 0 1-5-2 1240.687 1240.687 0 0 1-2-18z"/><path style="opacity:1" fill="#7c8e8c" d="M146.5 349.5c2.625 2.3 4.959 4.966 7 8a84.853 84.853 0 0 1-7.5 8c-1.807 2.24-1.974 4.573-.5 7-2.031-1.039-3.364-2.705-4-5 .333-1 1-1.667 2-2a45.408 45.408 0 0 0 8-8c-1.021-1.688-2.355-3.021-4-4-.838-.342-1.172-1.008-1-2v-2z"/><path style="opacity:1" fill="#afbfbd" d="M244.5 320.5h1v3a2154.77 2154.77 0 0 1 4 55h-8v-1h7a2293.733 2293.733 0 0 1-4-57z"/><path style="opacity:1" fill="#76281c" d="M272.5 368.5c-1.411 2.039-3.411 3.039-6 3 1.533-1.745 3.533-2.745 6-3zM335.5 368.5c.131 2.867-1.203 4.533-4 5a802.777 802.777 0 0 0 4-5z"/><path style="opacity:1" fill="#6f8280" d="M198.5 370.5a121.61 121.61 0 0 0 20 6v1c-7.305-.767-13.971-3.1-20-7z"/><path style="opacity:1" fill="#8da39d" d="M276.5 369.5c-2.483 3.241-5.816 4.908-10 5 3.289-1.658 6.623-3.325 10-5z"/><path style="opacity:1" fill="#6f8281" d="M303.5 376.5c2.595-.46 4.262.874 5 4l-5-4z"/><path style="opacity:1" fill="#7c271c" d="M331.5 373.5c-1.348 2.145-1.682 4.312-1 6.5 2.582-.255 5.248-.422 8-.5-3.739 1.766-7.739 2.599-12 2.5-1.035-1.507-.868-3.007.5-4.5 1.307-1.692 2.807-3.025 4.5-4z"/><path style="opacity:1" fill="#7e271c" d="M145.5 377.5c3.333 1.659 5 4.325 5 8-5.415-.236-10.415-1.569-15-4l12 2c-.204-2.185-.87-4.185-2-6z"/><path style="opacity:1" fill="#647776" d="M244.5 317.5c-5.191-.442-10.191.058-15 1.5l1 1a792.232 792.232 0 0 0-1.5 55.5c3.836 1.889 8.003 2.555 12.5 2v1c-4.599.3-9.099-.033-13.5-1 .4-18.498.234-36.832-.5-55v-1c.558-2.289 1.724-4.289 3.5-6 4.601.642 9.101 1.309 13.5 2z"/><path style="opacity:1" fill="#7a8c8b" d="M150.5 377.5c1.764.826 3.098 2.159 4 4-2.333-.333-3.667-1.667-4-4z"/><path style="opacity:1" fill="#76281c" d="M368.5 378.5a32.462 32.462 0 0 1 8 .5c.916.278 1.582.778 2 1.5-3.54-.253-6.873-.919-10-2z"/><path style="opacity:1" fill="#7f918f" d="M175.5 380.5a25.194 25.194 0 0 1-5.5-3 28.933 28.933 0 0 0-8.5 7c-.028-2.082.639-3.916 2-5.5a39.76 39.76 0 0 0 7-3.5 17.858 17.858 0 0 1 5 5z"/><path style="opacity:1" fill="#76281c" d="M302.5 380.5c2.763.244 4.929 1.577 6.5 4 .507 1.496.007 2.663-1.5 3.5-3.591.789-7.091.622-10.5-.5-.667-1-.667-2 0-3a59.93 59.93 0 0 1 5.5-4zM166.5 383.5c1.511-1.941 3.511-2.441 6-1.5l10 6c-1.802 1.827-3.968 2.994-6.5 3.5a73.396 73.396 0 0 0-11.5-1.5c-.928-.388-1.595-1.055-2-2 .778-2.099 2.111-3.599 4-4.5z"/><path style="opacity:1" fill="#1400fd" d="M345.5 382.5c10.022.011 20.022.511 30 1.5a70273.26 70273.26 0 0 1 25 7c11.69 1.16 23.19.326 34.5-2.5l4.5 1c-2.863 8.708-7.197 16.708-13 24a43.503 43.503 0 0 1-15 2 197.957 197.957 0 0 0-17-1.5c-21.617-9.197-43.617-10.364-66-3.5a73.875 73.875 0 0 0-13 4h-1a144.245 144.245 0 0 1-36 1.5 92.57 92.57 0 0 0-12-5.5c-2.157-.907-4.49-1.573-7-2h-8c-1.938-1.663-4.272-2.329-7-2-3.828-.998-7.494-.998-11 0a1629.456 1629.456 0 0 0-21 3.5 230.722 230.722 0 0 1-34 8.5c-3.605-.601-7.105-.601-10.5 0a159.178 159.178 0 0 1-30.5-8.5c-11.967-2.51-23.967-2.843-36-1a1237.862 1237.862 0 0 0-37 10 287.99 287.99 0 0 1-15 .5c-1.573-.252-2.906-.918-4-2-1.245-6.425-4.411-11.759-9.5-16a12.935 12.935 0 0 1-.5-5c19.703 2.725 38.036-.608 55-10h1a314.153 314.153 0 0 1 26-3 225.551 225.551 0 0 1 42 9.5 174.368 174.368 0 0 0 17.5 1.5 294.782 294.782 0 0 0 26.5-4.5c.881-.708 1.547-1.542 2-2.5h2a155.793 155.793 0 0 0 11.5-4c3.922 1.187 7.755.854 11.5-1 9.539-.611 18.873.889 28 4.5l11 1a54.224 54.224 0 0 0 9 4 240.38 240.38 0 0 0 31 0 4383.242 4383.242 0 0 1 36-9.5z"/><path style="opacity:1" fill="#83271b" d="M383.5 381.5c3.989.182 7.656 1.182 11 3-4.034-.017-7.701-1.017-11-3z"/><path style="opacity:1" fill="#f70408" d="M166.5 383.5c5.179-.497 9.512 1.17 13 5a33.225 33.225 0 0 1-14 .5l-1-1a9.175 9.175 0 0 0 2-4.5z"/><path style="opacity:1" fill="#7d8f8d" d="M308.5 380.5c2.367.664 4.367 1.997 6 4 1.122-1.13 2.456-1.797 4-2-.749 1.746-2.083 2.746-4 3-2.602-.934-4.602-2.601-6-5z"/><path style="opacity:1" fill="#121718" d="m210.5 383.5-3 4h-2a29.23 29.23 0 0 1-9 1c4.295-2.407 8.962-4.074 14-5z"/><path style="opacity:1" fill="#677a79" d="M259.5 376.5a38.715 38.715 0 0 1-5 2.5 156.636 156.636 0 0 0 34 7.5c-1.497.806-3.164 1.472-5 2a20.086 20.086 0 0 0-10-2 192.747 192.747 0 0 0-21-6v-3a51.569 51.569 0 0 1 7-1z"/><path style="opacity:1" fill="#76281c" d="M394.5 384.5c3.622-.178 6.956.489 10 2-3.622.178-6.956-.489-10-2z"/><path style="opacity:1" fill="#0e337f" d="M195.5 388.5h1a29.23 29.23 0 0 0 9-1c-.453.958-1.119 1.792-2 2.5a294.782 294.782 0 0 1-26.5 4.5 174.368 174.368 0 0 1-17.5-1.5 225.551 225.551 0 0 0-42-9.5 314.153 314.153 0 0 0-26 3c12.284-4.196 24.95-5.363 38-3.5a515.18 515.18 0 0 0 35 9 100.2 100.2 0 0 0 20 0c4.114-.115 7.781-1.282 11-3.5z"/><path style="opacity:1" fill="#586a6a" d="m217.5 380.5-3 2c-1.068.934-2.401 1.268-4 1-5.038.926-9.705 2.593-14 5h-1c-1.967-.239-3.801.094-5.5 1-.995-.566-1.828-1.233-2.5-2a32.462 32.462 0 0 0 8-.5 92.561 92.561 0 0 1 22-6.5z"/><path style="opacity:1" fill="#0e337e" d="M418.5 416.5c-2.559.302-4.893-.032-7-1a43.503 43.503 0 0 0 15-2c5.803-7.292 10.137-15.292 13-24l-4.5-1c-11.31 2.826-22.81 3.66-34.5 2.5a70273.26 70273.26 0 0 0-25-7 307.392 307.392 0 0 0-30-1.5c.672-.767 1.505-1.434 2.5-2 7.271.603 15.104 1.103 23.5 1.5l12 2c9.656 4.455 19.823 6.622 30.5 6.5a584.081 584.081 0 0 0 27.5-4c-1.252 3.483-2.086 7.149-2.5 11l-3 3c-1.661 10.171-7.495 15.504-17.5 16z"/><path style="opacity:1" fill="#0f3478" d="M273.5 387.5c1.181 1.567 2.847 2.401 5 2.5a94.455 94.455 0 0 0 32 0 116.413 116.413 0 0 0 16-5 75.435 75.435 0 0 1 19-2.5 4383.242 4383.242 0 0 0-36 9.5 240.38 240.38 0 0 1-31 0 54.224 54.224 0 0 1-9-4l-11-1c-9.127-3.611-18.461-5.111-28-4.5-3.745 1.854-7.578 2.187-11.5 1a155.793 155.793 0 0 1-11.5 4l3-4c1.599.268 2.932-.066 4-1a239.057 239.057 0 0 1 28-1.5c10.35 2.18 20.683 4.347 31 6.5z"/><path style="opacity:1" fill="#f30508" d="M302.5 382.5c1.987.664 3.654 1.831 5 3.5-2.778 1.392-5.778 1.892-9 1.5-.219-1.175.114-2.175 1-3 1.239-.442 2.239-1.109 3-2z"/><path style="opacity:1" fill="#103479" d="M90.5 386.5c-16.964 9.392-35.297 12.725-55 10-.16 1.699.007 3.366.5 5 5.089 4.241 8.255 9.575 9.5 16-2.828-1.354-4.328-3.687-4.5-7-4.696-4.395-7.53-9.728-8.5-16 8.898.424 17.731.757 26.5 1a314.745 314.745 0 0 0 31.5-9z"/><path style="opacity:1" fill="#0b2e97" d="M233.5 406.5c3.506-.998 7.172-.998 11 0-3.477.619-7.144.619-11 0z"/><path style="opacity:1" fill="#0d366c" d="M252.5 408.5h7c.111.617.444 1.117 1 1.5 1.973.495 3.973.662 6 .5a92.57 92.57 0 0 1 12 5.5 144.245 144.245 0 0 0 36-1.5c-2.532 2.574-5.699 3.908-9.5 4-9.526-.292-19.026-.626-28.5-1-.558-1.29-1.558-2.123-3-2.5a70.523 70.523 0 0 0-9-1.5 104.618 104.618 0 0 1-9-1c.418-.722 1.084-1.222 2-1.5a38.715 38.715 0 0 1-5-2.5z"/><path style="opacity:1" fill="#667977" d="M245.5 409.5a92.756 92.756 0 0 1 10 3c2.982.463 5.982.796 9 1l3 2a513.544 513.544 0 0 0-31-5l-15 2c1.135-1.713 2.802-2.38 5-2a111.911 111.911 0 0 1 19-1z"/><path style="opacity:1" fill="#212a29" d="M251.5 408.5h1a38.715 38.715 0 0 0 5 2.5c-.916.278-1.582.778-2 1.5a92.756 92.756 0 0 0-10-3c1.879-.841 3.879-1.175 6-1z"/><path style="opacity:1" fill="#0727aa" d="M259.5 408.5c2.51.427 4.843 1.093 7 2a18.453 18.453 0 0 1-6-.5c-.556-.383-.889-.883-1-1.5z"/><path style="opacity:1" fill="#f6f9f7" d="M267.5 415.5c2.493 1.274 5.159 1.94 8 2 .418.722 1.084 1.222 2 1.5 12.382 2.163 24.715 1.996 37-.5a1349.918 1349.918 0 0 1 31-7h1c14.983-.946 29.65.72 44 5h1c.111.617.444 1.117 1 1.5 9.929 2.367 19.929 2.867 30 1.5a20.69 20.69 0 0 1-1 5c0 .667-.333 1-1 1-6.675.166-13.342 0-20-.5a853.484 853.484 0 0 0-23-5.5c-12.086-3.169-24.419-3.669-37-1.5-2.352.24-4.352 1.073-6 2.5-.992-.172-1.658.162-2 1-1.915-.284-3.581.049-5 1h-2c-15.886 5.788-32.219 7.455-49 5-2.015-1.424-4.348-2.09-7-2-2.432-1.458-5.099-2.625-8-3.5-18.374-4.778-36.374-3.945-54 2.5-5.998.912-11.665 2.578-17 5a270.471 270.471 0 0 1-28 1c-5.223-2.788-10.89-4.454-17-5-9.696-3.768-19.862-5.435-30.5-5-9.433-.517-18.6.816-27.5 4-1.213.247-1.88.914-2 2a831.433 831.433 0 0 1-22 5.5c-2.538.796-4.872.629-7-.5a33.655 33.655 0 0 1-4-5.5 74.156 74.156 0 0 0 23-4.5c2.286-1.079 4.286-2.413 6-4h1c4.374-.002 8.374-1.002 12-3a142.327 142.327 0 0 0 20.5-2c7.549.67 15.049 1.67 22.5 3a197.428 197.428 0 0 0 21 5h1c.418.722 1.084 1.222 2 1.5 14.954 2.41 29.287.577 43-5.5a5029.726 5029.726 0 0 1 17-4l15-2a513.544 513.544 0 0 1 31 5z"/><path style="opacity:1" fill="#11356c" d="M411.5 415.5c2.107.968 4.441 1.302 7 1l-9 2h-5c-3.134-3.07-6.8-3.737-11-2h-3c-1.676-2.334-4.009-3.334-7-3-1.481-1.747-3.481-2.914-6-3.5l-12-1c-1.57-1.836-3.07-1.67-4.5.5a12.793 12.793 0 0 0-4.5-2 28.156 28.156 0 0 1-7 2c-.311-.978-.978-1.645-2-2-3.52.76-6.853 1.76-10 3a29.23 29.23 0 0 0-9 1v-1c22.383-6.864 44.383-5.697 66 3.5 5.715.258 11.382.758 17 1.5z"/><path style="opacity:1" fill="#121716" d="M349.5 409.5a73.314 73.314 0 0 1-12 1c3.147-1.24 6.48-2.24 10-3 1.022.355 1.689 1.022 2 2z"/><path style="opacity:1" fill="#0b2e96" d="M328.5 410.5v1a32.84 32.84 0 0 1-13 3 73.875 73.875 0 0 1 13-4z"/><path style="opacity:1" fill="#aabab8" d="M346.5 411.5c12.32-1.638 24.653-.971 37 2 2.991-.334 5.324.666 7 3-14.35-4.28-29.017-5.946-44-5z"/><path style="opacity:1" fill="#b0c0bd" d="M345.5 411.5a1349.918 1349.918 0 0 0-31 7c9.768-4.224 20.101-6.557 31-7z"/><path style="opacity:1" fill="#0f346f" d="M233.5 406.5c3.856.619 7.523.619 11 0 2.728-.329 5.062.337 7 2-2.121-.175-4.121.159-6 1a111.911 111.911 0 0 0-19 1c-2.466-1.134-5.133-1.301-8-.5-4.774 2.935-9.774 4.435-15 4.5-1.213.247-1.88.914-2 2-1.459-.067-2.792.266-4 1-.417-.624-1.084-.957-2-1a100.318 100.318 0 0 1-8 1.5c-.881.708-1.547 1.542-2 2.5h-2c-4.201-.201-8.867-.201-14 0a127.411 127.411 0 0 0-11-2c-4.126-1.506-8.459-2.506-13-3a81.316 81.316 0 0 0-3-2.5 72.367 72.367 0 0 0-12-.5c.111-.617.444-1.117 1-1.5a107.618 107.618 0 0 0-28-1c-1.442.377-2.442 1.21-3 2.5h-2c-3.72.064-7.386.564-11 1.5-1.256.417-1.923 1.25-2 2.5h-3a40.911 40.911 0 0 0-9 .5l-2 2a389.189 389.189 0 0 1-18.5 3.5 62.29 62.29 0 0 1-5.5-1c-1.205-1.077-1.872-2.41-2-4 1.094 1.082 2.427 1.748 4 2a287.99 287.99 0 0 0 15-.5 1237.862 1237.862 0 0 1 37-10c12.033-1.843 24.033-1.51 36 1a159.178 159.178 0 0 0 30.5 8.5c3.395-.601 6.895-.601 10.5 0a230.722 230.722 0 0 0 34-8.5 1629.456 1629.456 0 0 1 21-3.5z"/><path style="opacity:1" fill="#596b69" d="m135.5 413.5 10 2c4.541.494 8.874 1.494 13 3v2a197.428 197.428 0 0 1-21-5l-2-2z"/><path style="opacity:1" fill="#161d1c" d="m98.5 412.5-4 2a54.07 54.07 0 0 0-9 2c.077-1.25.744-2.083 2-2.5a46.937 46.937 0 0 1 11-1.5z"/><path style="opacity:1" fill="#19201e" d="M130.5 412.5a72.367 72.367 0 0 1 12 .5 81.316 81.316 0 0 1 3 2.5l-10-2c-1.915.284-3.581-.049-5-1z"/><path style="opacity:1" fill="#a4b4b2" d="M130.5 412.5c1.419.951 3.085 1.284 5 1l2 2a257.559 257.559 0 0 0-22.5-3 142.327 142.327 0 0 1-20.5 2l4-2h2a135.188 135.188 0 0 1 30 0z"/><path style="opacity:1" fill="#1f2726" d="M130.5 412.5a135.188 135.188 0 0 0-30 0c.558-1.29 1.558-2.123 3-2.5a107.618 107.618 0 0 1 28 1c-.556.383-.889.883-1 1.5z"/><path style="opacity:1" fill="#374544" d="M226.5 410.5c-2.198-.38-3.865.287-5 2a5029.726 5029.726 0 0 0-17 4h-3c.12-1.086.787-1.753 2-2 5.226-.065 10.226-1.565 15-4.5 2.867-.801 5.534-.634 8 .5z"/><path style="opacity:1" fill="#181e1d" d="M264.5 413.5c3.022.304 6.022.804 9 1.5 1.442.377 2.442 1.21 3 2.5h-1c-2.841-.06-5.507-.726-8-2l-3-2z"/><path style="opacity:1" fill="#687b7a" d="M94.5 414.5c-3.626 1.998-7.626 2.998-12 3v-1h3a54.07 54.07 0 0 1 9-2z"/><path style="opacity:1" fill="#293434" d="M404.5 418.5c-3.925.07-7.591-.597-11-2 4.2-1.737 7.866-1.07 11 2z"/><path style="opacity:1" fill="#121715" d="M197.5 417.5a3285.586 3285.586 0 0 1-12 3c.453-.958 1.119-1.792 2-2.5 2.688-.392 5.355-.892 8-1.5.916.043 1.583.376 2 1z"/><path style="opacity:1" fill="#718482" d="M201.5 416.5h3c-13.713 6.077-28.046 7.91-43 5.5-.916-.278-1.582-.778-2-1.5 8.043 1.271 16.043 1.271 24 0h2c3.984-.988 7.984-1.988 12-3 1.208-.734 2.541-1.067 4-1z"/><path style="opacity:1" fill="#aebebc" d="M377.5 419.5c-14.474-2.231-28.808-1.897-43 1 1.648-1.427 3.648-2.26 6-2.5 12.581-2.169 24.914-1.669 37 1.5z"/><path style="opacity:1" fill="#222c2b" d="M158.5 418.5c3.685.504 7.351 1.17 11 2 5.133-.201 9.799-.201 14 0-7.957 1.271-15.957 1.271-24 0h-1v-2z"/><path style="opacity:1" fill="#465759" d="M383.5 413.5c-12.347-2.971-24.68-3.638-37-2h-1c-10.899.443-21.232 2.776-31 7-12.285 2.496-24.618 2.663-37 .5-.916-.278-1.582-.778-2-1.5h1c9.474.374 18.974.708 28.5 1 3.801-.092 6.968-1.426 9.5-4h1a32.84 32.84 0 0 0 13-3 29.23 29.23 0 0 1 9-1 73.314 73.314 0 0 0 12-1 28.156 28.156 0 0 0 7-2 12.793 12.793 0 0 1 4.5 2c1.43-2.17 2.93-2.336 4.5-.5l12 1c2.519.586 4.519 1.753 6 3.5z"/><path style="opacity:1" fill="#889a98" d="M391.5 416.5h2c3.409 1.403 7.075 2.07 11 2h5a98.432 98.432 0 0 1 14 .5c.946 2.298.279 4.132-2 5.5a20.69 20.69 0 0 0 1-5c-10.071 1.367-20.071.867-30-1.5-.556-.383-.889-.883-1-1.5z"/><path style="opacity:1" fill="#181d1c" d="M251.5 421.5c-17.745-.689-35.078 1.978-52 8a10.305 10.305 0 0 1-3-1 65.743 65.743 0 0 1-6.5 4 14.093 14.093 0 0 0-3.5-1l4-2c5.335-2.422 11.002-4.088 17-5 14.513-3.385 29.18-4.385 44-3z"/><path style="opacity:1" fill="#2e3b3c" d="M377.5 419.5a163.918 163.918 0 0 0 27 8c-3.826 1.022-7.492 1.022-11 0a40.107 40.107 0 0 1-7-3.5c-3.86-.105-7.526-.938-11-2.5l-2 1c-4.223-3.468-8.556-3.801-13-1a45.945 45.945 0 0 1-12.5-1c-2.319 1.371-4.819 2.038-7.5 2-2.448-.973-5.115-1.306-8-1 .342-.838 1.008-1.172 2-1 14.192-2.897 28.526-3.231 43-1z"/><path style="opacity:1" fill="#16376d" d="M327.5 422.5c1.419-.951 3.085-1.284 5-1 2.885-.306 5.552.027 8 1a18.453 18.453 0 0 0-6 .5c-.752.671-1.086 1.504-1 2.5a161.365 161.365 0 0 1-19 4c.763-.768 1.763-1.268 3-1.5a2.428 2.428 0 0 0-2-.5c.709-.904 1.709-1.237 3-1 4.217-.089 8.217-.923 12-2.5-.744-1.039-1.744-1.539-3-1.5z"/><path style="opacity:1" fill="#141918" d="M325.5 422.5h2c1.256-.039 2.256.461 3 1.5-3.783 1.577-7.783 2.411-12 2.5a25.163 25.163 0 0 0 7-4z"/><path style="opacity:1" fill="#0d2e93" d="M360.5 421.5v1a84.415 84.415 0 0 0-27 3c-.086-.996.248-1.829 1-2.5a18.453 18.453 0 0 1 6-.5c2.681.038 5.181-.629 7.5-2a45.945 45.945 0 0 0 12.5 1z"/><path style="opacity:1" fill="#1400fd" d="M360.5 422.5c11.912.117 23.245 2.617 34 7.5a90.354 90.354 0 0 0 15 2c1.249 2.21 1.082 4.376-.5 6.5a110.606 110.606 0 0 1-12.5 12.5c-2.31.497-4.643.663-7 .5-1.342-1.293-3.009-2.126-5-2.5a186.768 186.768 0 0 0-30-3.5 166.647 166.647 0 0 1-25 2.5 18.924 18.924 0 0 0-5 3 1694.008 1694.008 0 0 1-28.5 5.5 460.26 460.26 0 0 1-16.5-1.5c-7.9-2.612-15.9-4.779-24-6.5-4.799-1.092-9.799-1.759-15-2a901.543 901.543 0 0 1-23 1.5 8.905 8.905 0 0 0-4 3 214.996 214.996 0 0 0-28 7 121.19 121.19 0 0 1-22 0 349.77 349.77 0 0 0-32-8.5h-4c-7.489-1.156-15.155-1.322-23-.5a49.83 49.83 0 0 0-7 2.5c-7.07 2.114-14.236 2.781-21.5 2-3.073-2.408-5.406-5.408-7-9-3.456-1.048-4.956-3.381-4.5-7a274.341 274.341 0 0 1 43-12c4.383.412 8.716.412 13 0a1068.12 1068.12 0 0 0 17 2.5c16.462 6.247 33.462 8.413 51 6.5a2260.794 2260.794 0 0 1 31-9.5 143.889 143.889 0 0 1 30-1 480.311 480.311 0 0 0 32 7.5c3.05 1.435 6.383 2.102 10 2 4.876-.19 9.543-.857 14-2 3.377.432 6.377-.235 9-2a161.365 161.365 0 0 0 19-4 84.415 84.415 0 0 1 27-3z"/><path style="opacity:1" fill="#647776" d="M269.5 425.5a128.748 128.748 0 0 1-11-2l-7-2c-14.82-1.385-29.487-.385-44 3 17.626-6.445 35.626-7.278 54-2.5 2.901.875 5.568 2.042 8 3.5z"/><path style="opacity:1" fill="#a6b6b4" d="M81.5 417.5c-1.714 1.587-3.714 2.921-6 4a74.156 74.156 0 0 1-23 4.5 33.655 33.655 0 0 0 4 5.5h-2c-2.205-1.863-3.539-4.197-4-7 10.49-1.203 20.823-3.537 31-7z"/><path style="opacity:1" fill="#b6c5c3" d="M145.5 425.5c-13.797-3.474-27.797-4.641-42-3.5-4.295.569-8.295 1.736-12 3.5-2.065.017-4.065.35-6 1 .12-1.086.787-1.753 2-2 8.9-3.184 18.067-4.517 27.5-4 10.638-.435 20.804 1.232 30.5 5z"/><path style="opacity:1" fill="#0b2f94" d="M107.5 425.5v-1h3c3.542-.313 6.875.021 10 1a68.518 68.518 0 0 1-13 0z"/><path style="opacity:1" fill="#273130" d="M145.5 425.5c5.162 3.044 10.828 4.711 17 5 1.714 1.238 3.714 1.905 6 2-2.128 1.129-4.461 1.296-7 .5-11.584-4.138-23.25-7.305-35-9.5a109.605 109.605 0 0 0-16 1h-3a118.438 118.438 0 0 1-16 1c3.705-1.764 7.705-2.931 12-3.5 14.203-1.141 28.203.026 42 3.5z"/><path style="opacity:1" fill="#abbbb9" d="M377.5 419.5a853.484 853.484 0 0 1 23 5.5c6.658.5 13.325.666 20 .5-2.837 1.902-6.171 2.569-10 2h-6a163.918 163.918 0 0 1-27-8z"/><path style="opacity:1" fill="#0e3574" d="m251.5 421.5 7 2a33.004 33.004 0 0 0 9 4.5 81.7 81.7 0 0 0 19 2.5h15c4.342-.239 8.676-.573 13-1-2.623 1.765-5.623 2.432-9 2h-24a480.311 480.311 0 0 1-32-7.5 143.889 143.889 0 0 0-30 1 2260.794 2260.794 0 0 0-31 9.5c-17.538 1.913-34.538-.253-51-6.5a1068.12 1068.12 0 0 1-17-2.5c-3.125-.979-6.458-1.313-10-1a109.605 109.605 0 0 1 16-1c11.75 2.195 23.416 5.362 35 9.5 2.539.796 4.872.629 7-.5h1c.992 1.526 2.492 2.193 4.5 2 4.015-.042 7.515-1.042 10.5-3h2c1.195.178 2.362.511 3.5 1a65.743 65.743 0 0 0 6.5-4c.946.487 1.946.82 3 1 16.922-6.022 34.255-8.689 52-8z"/><path style="opacity:1" fill="#9daeab" d="M145.5 425.5c6.11.546 11.777 2.212 17 5-6.172-.289-11.838-1.956-17-5z"/><path style="opacity:1" fill="#12356c" d="M404.5 427.5h6c.709.904 1.709 1.237 3 1 .667 2.319.834 4.653.5 7-3.955 2.916-7.122 6.583-9.5 11a34.534 34.534 0 0 0-6 5.5c-2.514 1.252-5.18 1.752-8 1.5-.838-.342-1.172-1.008-1-2 2.357.163 4.69-.003 7-.5a110.606 110.606 0 0 0 12.5-12.5c1.582-2.124 1.749-4.29.5-6.5a90.354 90.354 0 0 1-15-2c-10.755-4.883-22.088-7.383-34-7.5v-1c4.444-2.801 8.777-2.468 13 1l2-1c3.474 1.562 7.14 2.395 11 2.5a40.107 40.107 0 0 0 7 3.5c3.508 1.022 7.174 1.022 11 0z"/><path style="opacity:1" fill="#181f1e" d="M315.5 427.5a2.428 2.428 0 0 1 2 .5c-1.237.232-2.237.732-3 1.5-4.324.427-8.658.761-13 1 4.442-1.49 9.109-2.49 14-3z"/><path style="opacity:1" fill="#0e3475" d="M107.5 424.5v1a274.341 274.341 0 0 0-43 12c-.456 3.619 1.044 5.952 4.5 7 1.594 3.592 3.927 6.592 7 9 7.264.781 14.43.114 21.5-2-.93.815-1.93 1.648-3 2.5-3.525.179-6.859.679-10 1.5-3.24 1.242-6.574 1.076-10-.5-1.263-2.386-3.097-4.219-5.5-5.5l-1-4c-5.059-1.04-6.559-3.873-4.5-8.5a241.134 241.134 0 0 1 14-6.5c.418-.722 1.084-1.222 2-1.5l10-1c1.256-.417 1.923-1.25 2-2.5 5.362.028 10.695-.306 16-1z"/><path style="opacity:1" fill="#161c1b" d="M258.5 423.5c3.636.826 7.303 1.492 11 2 2.652-.09 4.985.576 7 2a36.27 36.27 0 0 0 10 3 81.7 81.7 0 0 1-19-2.5 33.004 33.004 0 0 1-9-4.5z"/><path style="opacity:1" fill="#677978" d="M325.5 422.5a25.163 25.163 0 0 1-7 4c-1.291-.237-2.291.096-3 1-4.891.51-9.558 1.51-14 3h-15a36.27 36.27 0 0 1-10-3c16.781 2.455 33.114.788 49-5z"/><path style="opacity:1" fill="#5a6c6b" d="M91.5 425.5c-.077 1.25-.744 2.083-2 2.5l-10 1c-.916.278-1.582.778-2 1.5a1047.453 1047.453 0 0 1-18.5 4c-2.183-.022-3.683-1.022-4.5-3h2c2.128 1.129 4.462 1.296 7 .5a831.433 831.433 0 0 0 22-5.5 19.222 19.222 0 0 1 6-1z"/><path style="opacity:1" fill="#617473" d="m190.5 429.5-4 2h-2a67.246 67.246 0 0 1-15 1h-1c-2.286-.095-4.286-.762-6-2 9.357.15 18.691-.183 28-1z"/><path style="opacity:1" fill="#0b2d9a" d="M281.5 431.5h24c-4.457 1.143-9.124 1.81-14 2-3.617.102-6.95-.565-10-2z"/><path style="opacity:1" fill="#121716" d="M184.5 431.5c-2.985 1.958-6.485 2.958-10.5 3-2.008.193-3.508-.474-4.5-2a67.246 67.246 0 0 0 15-1z"/><path style="opacity:1" fill="#0f3477" d="M255.5 448.5c-9.848-.327-19.514.006-29 1-9.435 1.794-19.102 3.961-29 6.5a51.22 51.22 0 0 1-4 2.5 75.818 75.818 0 0 1-15 1 97.126 97.126 0 0 1-24-2c-6.582-1.325-13.248-3.325-20-6-1.527.073-2.527-.594-3-2a349.77 349.77 0 0 1 32 8.5 121.19 121.19 0 0 0 22 0 214.996 214.996 0 0 1 28-7 8.905 8.905 0 0 1 4-3c7.673-.402 15.34-.902 23-1.5 5.201.241 10.201.908 15 2z"/><path style="opacity:1" fill="#123572" d="M389.5 451.5a197.028 197.028 0 0 0-17-2h-3c-1.109-.79-2.442-1.29-4-1.5a216.16 216.16 0 0 0-33 1c-2.084.697-3.751 1.864-5 3.5-2.286.095-4.286.762-6 2a42.183 42.183 0 0 1-12 3 369.28 369.28 0 0 1-31-1 41.541 41.541 0 0 1-8-1c-.077-1.25-.744-2.083-2-2.5a195.112 195.112 0 0 1-12-3c-.556-.383-.889-.883-1-1.5 8.1 1.721 16.1 3.888 24 6.5a460.26 460.26 0 0 0 16.5 1.5 1694.008 1694.008 0 0 0 28.5-5.5 18.924 18.924 0 0 1 5-3 166.647 166.647 0 0 0 25-2.5 186.768 186.768 0 0 1 30 3.5c1.991.374 3.658 1.207 5 2.5z"/><path style="opacity:1" fill="#0b318d" d="M127.5 449.5a138.473 138.473 0 0 0-30 2 49.83 49.83 0 0 1 7-2.5c7.845-.822 15.511-.656 23 .5z"/><path style="opacity:1" fill="#303d3c" d="M369.5 449.5c-14.155-1.354-28.155-.354-42 3 1.249-1.636 2.916-2.803 5-3.5a216.16 216.16 0 0 1 33-1c1.558.21 2.891.71 4 1.5z"/><path style="opacity:1" fill="#173a65" d="M127.5 449.5h4c.473 1.406 1.473 2.073 3 2v1h-7c-.418-.722-1.084-1.222-2-1.5a90.455 90.455 0 0 0-19 0c-.916.278-1.582.778-2 1.5-3.311.383-6.311 1.383-9 3h-11c3.141-.821 6.475-1.321 10-1.5a81.819 81.819 0 0 0 3-2.5 138.473 138.473 0 0 1 30-2z"/><path style="opacity:1" fill="#627473" d="M226.5 449.5c7.674-.166 15.341 0 23 .5 5.624.902 10.958 2.402 16 4.5a378.327 378.327 0 0 0-27-4 434.107 434.107 0 0 0-45 8 51.22 51.22 0 0 0 4-2.5c9.898-2.539 19.565-4.706 29-6.5z"/><path style="opacity:1" fill="#a9b9b7" d="M369.5 449.5h3a141.542 141.542 0 0 0 18 5c2.689 2.315 2.355 4.315-1 6a20.69 20.69 0 0 0 1-5 130.99 130.99 0 0 1-19-4.5 210.395 210.395 0 0 0-29 0 123.52 123.52 0 0 1-21 3.5c1.714-1.238 3.714-1.905 6-2 13.845-3.354 27.845-4.354 42-3z"/><path style="opacity:1" fill="#31403f" d="M127.5 452.5a66.641 66.641 0 0 0-23 0c.418-.722 1.084-1.222 2-1.5a90.455 90.455 0 0 1 19 0c.916.278 1.582.778 2 1.5z"/><path style="opacity:1" fill="#f6f9f7" d="M265.5 454.5c.111.617.444 1.117 1 1.5 4.032.773 8.032 1.606 12 2.5h2c.111.617.444 1.117 1 1.5a118.873 118.873 0 0 0 35-2 28.926 28.926 0 0 0 5-3.5 123.52 123.52 0 0 0 21-3.5 210.395 210.395 0 0 1 29 0 130.99 130.99 0 0 0 19 4.5 20.69 20.69 0 0 1-1 5 39.113 39.113 0 0 1-5 1 139.249 139.249 0 0 0-40-2.5c-3.351.057-6.351.891-9 2.5-3.262.475-6.262 1.475-9 3-7.8.765-15.467 2.265-23 4.5-9.016.599-18.016.432-27-.5-5.347-2.424-11.013-4.091-17-5-12.174-4.168-24.508-4.835-37-2h-2c-8.49 1.087-16.49 3.421-24 7h-1c-17.157 4.825-33.824 3.825-50-3-1.777-1.1-3.777-1.934-6-2.5a131.92 131.92 0 0 0-34-2 88.132 88.132 0 0 0-9 3.5h-1a18.158 18.158 0 0 0-5.5 2c-1.129-1.641-2.629-2.641-4.5-3-2.095-.26-3.428-1.426-4-3.5 2.708-2.175 5.708-3.675 9-4.5h5a214.347 214.347 0 0 1 21.5-3c6.154.85 12.32 1.517 18.5 2a109.749 109.749 0 0 1 20 5c1.526 1.63 3.526 2.463 6 2.5 8.333.667 16.667.667 25 0 2.569-.898 4.902-2.065 7-3.5a434.107 434.107 0 0 1 45-8c9.06 1.01 18.06 2.344 27 4z"/><path style="opacity:1" fill="#35454c" d="M372.5 449.5a197.028 197.028 0 0 1 17 2c-.172.992.162 1.658 1 2v1a141.542 141.542 0 0 1-18-5z"/><path style="opacity:1" fill="#141919" d="M226.5 449.5c9.486-.994 19.152-1.327 29-1 .111.617.444 1.117 1 1.5a195.112 195.112 0 0 0 12 3c1.256.417 1.923 1.25 2 2.5a20.69 20.69 0 0 1-5-1c-5.042-2.098-10.376-3.598-16-4.5-7.659-.5-15.326-.666-23-.5z"/><path style="opacity:1" fill="#afbfbc" d="M127.5 452.5h7l1 2a313.984 313.984 0 0 1-18.5-2 214.347 214.347 0 0 0-21.5 3c2.689-1.617 5.689-2.617 9-3a66.641 66.641 0 0 1 23 0z"/><path style="opacity:1" fill="#384746" d="M134.5 451.5c6.752 2.675 13.418 4.675 20 6l3 2h-2a109.749 109.749 0 0 0-20-5l-1-2v-1z"/><path style="opacity:1" fill="#7b8d8b" d="M265.5 454.5a20.69 20.69 0 0 0 5 1c2.627.592 5.294.925 8 1v2a380.856 380.856 0 0 0-12-2.5c-.556-.383-.889-.883-1-1.5z"/><path style="opacity:1" fill="#183a63" d="M154.5 457.5a97.126 97.126 0 0 0 24 2c-1.934 1.032-4.1 1.698-6.5 2-4.996-.534-9.83-1.2-14.5-2l-3-2z"/><path style="opacity:1" fill="#2d3a3a" d="M278.5 456.5a369.28 369.28 0 0 0 31 1c-9.453 2.287-19.12 2.621-29 1h-2v-2z"/><path style="opacity:1" fill="#a2b2b0" d="M389.5 460.5c-.691 1.522-1.858 2.522-3.5 3a33.638 33.638 0 0 0-12.5-2 19.22 19.22 0 0 1-6-1c-10.573-1.37-21.24-1.037-32 1 2.649-1.609 5.649-2.443 9-2.5a139.249 139.249 0 0 1 40 2.5 39.113 39.113 0 0 0 5-1z"/><path style="opacity:1" fill="#6e817f" d="M259.5 463.5a44.866 44.866 0 0 1-10-1c-8.902-2.094-17.902-2.427-27-1 12.492-2.835 24.826-2.168 37 2z"/><path style="opacity:1" fill="#9eafac" d="M321.5 454.5a28.926 28.926 0 0 1-5 3.5 118.873 118.873 0 0 1-35 2c-.556-.383-.889-.883-1-1.5 9.88 1.621 19.547 1.287 29-1a42.183 42.183 0 0 0 12-3z"/><path style="opacity:1" fill="#afbfbd" d="M145.5 465.5h-4c-14.895-4.602-29.895-4.935-45-1a88.132 88.132 0 0 1 9-3.5 131.92 131.92 0 0 1 34 2c2.223.566 4.223 1.4 6 2.5z"/><path style="opacity:1" fill="#798b89" d="M193.5 458.5c-2.098 1.435-4.431 2.602-7 3.5-8.333.667-16.667.667-25 0-2.474-.037-4.474-.87-6-2.5h2c4.67.8 9.504 1.466 14.5 2 2.4-.302 4.566-.968 6.5-2a75.818 75.818 0 0 0 15-1z"/><path style="opacity:1" fill="#171d1c" d="M249.5 462.5c-10.164-.281-20.498.053-31 1l2-2h2c9.098-1.427 18.098-1.094 27 1z"/><path style="opacity:1" fill="#2f3c3c" d="M141.5 465.5a113.984 113.984 0 0 1-22.5-2 206.012 206.012 0 0 0-24.5 3l1-2h1c15.105-3.935 30.105-3.602 45 1z"/><path style="opacity:1" fill="#6a7c7b" d="m220.5 461.5-2 2a9690.76 9690.76 0 0 0-22 5c7.51-3.579 15.51-5.913 24-7z"/><path style="opacity:1" fill="#2f3d43" d="M367.5 460.5c-1.094 1.082-2.427 1.748-4 2a32.27 32.27 0 0 0-9.5-2c-5.87.397-11.37 1.73-16.5 4-3.053-.389-5.72.277-8 2h-4l1-2c2.738-1.525 5.738-2.525 9-3 10.76-2.037 21.427-2.37 32-1z"/><path style="opacity:1" fill="#0e3574" d="M367.5 460.5a19.22 19.22 0 0 0 6 1c2.167.698 4 2.031 5.5 4 .599 2.035.099 3.701-1.5 5 .214-1.644-.12-3.144-1-4.5-12.857-2.783-25.857-3.283-39-1.5 5.13-2.27 10.63-3.603 16.5-4a32.27 32.27 0 0 1 9.5 2c1.573-.252 2.906-.918 4-2z"/><path style="opacity:1" fill="#0f3474" d="m141.5 465.5 6 5c-3.894.314-7.227-.853-10-3.5a1183.118 1183.118 0 0 1-26-2 65.817 65.817 0 0 0-14.5 3.5c-.315 1.408.018 2.741 1 4 1.627 1.032 2.793 2.366 3.5 4-4.899-1.847-7.232-5.18-7-10a206.012 206.012 0 0 1 24.5-3 113.984 113.984 0 0 0 22.5 2z"/><path style="opacity:1" fill="#1400fd" d="M329.5 466.5c2.928-.065 5.595-.732 8-2 13.143-1.783 26.143-1.283 39 1.5.88 1.356 1.214 2.856 1 4.5a4.934 4.934 0 0 0-3 .5c-2.276 2.789-4.943 4.956-8 6.5-.667 0-1 .333-1 1a73.336 73.336 0 0 0-10 5.5c-14.773-.18-28.773 2.82-42 9-11.293 2.479-22.626 2.812-34 1-9.932-3.773-20.265-6.273-31-7.5a90.793 90.793 0 0 0-30 1l-21 4a117.065 117.065 0 0 0-13.5 5c-16.406-.394-32.572-3.227-48.5-8.5a87.006 87.006 0 0 1-20-3c-2.345-2.202-5.011-3.702-8-4.5-1.302-2.322-3.302-3.655-6-4-.707-1.634-1.873-2.968-3.5-4-.982-1.259-1.315-2.592-1-4a65.817 65.817 0 0 1 14.5-3.5c8.601.758 17.267 1.424 26 2 2.773 2.647 6.106 3.814 10 3.5 2.585.502 4.918 1.669 7 3.5 2.982.498 5.982.665 9 .5h21a531.586 531.586 0 0 1 17-4c3.024-1.81 6.358-2.977 10-3.5a240.832 240.832 0 0 1 27-3.5 200.758 200.758 0 0 0 27 4.5c7.942 4.69 16.608 6.523 26 5.5l13-.5a1221.866 1221.866 0 0 0 25-6.5z"/><path style="opacity:1" fill="#6a7c7b" d="M259.5 463.5c5.987.909 11.653 2.576 17 5h-4a81.712 81.712 0 0 1-12-3.5c-.556-.383-.889-.883-1-1.5z"/><path style="opacity:1" fill="#546564" d="m326.5 464.5-1 2c-4.882-.307-9.549.526-14 2.5l2 1a389.26 389.26 0 0 0-18 2.5 35.261 35.261 0 0 0-14-2 26.335 26.335 0 0 1-5-2 159.027 159.027 0 0 0 27 .5 122.833 122.833 0 0 1 23-4.5z"/><path style="opacity:1" fill="#708381" d="M85.5 463.5c1.871.359 3.371 1.359 4.5 3a18.158 18.158 0 0 1 5.5-2l-1 2c-4.03 1.99-7.03.99-9-3z"/><path style="opacity:1" fill="#0e3286" d="M337.5 464.5c-2.405 1.268-5.072 1.935-8 2 2.28-1.723 4.947-2.389 8-2z"/><path style="opacity:1" fill="#435456" d="M141.5 465.5h4c16.176 6.825 32.843 7.825 50 3-3.707 1.69-7.707 2.856-12 3.5-4.918.195-9.751.695-14.5 1.5-4.85-1.702-9.683-2.369-14.5-2-2.107-.968-4.441-1.302-7-1l-6-5z"/><path style="opacity:1" fill="#103469" d="M249.5 462.5a44.866 44.866 0 0 0 10 1c.111.617.444 1.117 1 1.5a81.712 81.712 0 0 0 12 3.5c2.617 2.722 5.617 3.389 9 2a35.261 35.261 0 0 1 14 2 389.26 389.26 0 0 1 18-2.5l-2-1c4.451-1.974 9.118-2.807 14-2.5h4a1221.866 1221.866 0 0 1-25 6.5l-13 .5c-9.392 1.023-18.058-.81-26-5.5a200.758 200.758 0 0 1-27-4.5 240.832 240.832 0 0 0-27 3.5c-3.642.523-6.976 1.69-10 3.5-4.377.077-8.71.577-13 1.5-1.937.122-3.27.955-4 2.5h-21c-2.469-.817-5.135-1.317-8-1.5-.556-.383-.889-.883-1-1.5 4.817-.369 9.65.298 14.5 2a113.601 113.601 0 0 1 14.5-1.5c4.293-.644 8.293-1.81 12-3.5h1a9690.76 9690.76 0 0 1 22-5c10.502-.947 20.836-1.281 31-1z"/><path style="opacity:1" fill="#0d1211" d="M272.5 468.5h4a26.335 26.335 0 0 0 5 2c-3.383 1.389-6.383.722-9-2z"/><path style="opacity:1" fill="#0b3090" d="M201.5 470.5a531.586 531.586 0 0 0-17 4c.73-1.545 2.063-2.378 4-2.5a67.285 67.285 0 0 1 13-1.5z"/><path style="opacity:1" fill="#0b318b" d="M147.5 470.5c2.559-.302 4.893.032 7 1 .111.617.444 1.117 1 1.5 2.865.183 5.531.683 8 1.5a40.914 40.914 0 0 1-9-.5c-2.082-1.831-4.415-2.998-7-3.5z"/><path style="opacity:1" fill="#0d3570" d="M377.5 470.5a45.494 45.494 0 0 0-6 5.5c-1.525 1.009-3.192 1.509-5 1.5 3.057-1.544 5.724-3.711 8-6.5a4.934 4.934 0 0 1 3-.5z"/><path style="opacity:1" fill="#0d3572" d="M101.5 476.5c2.698.345 4.698 1.678 6 4-2.353-.84-4.353-2.174-6-4z"/><path style="opacity:1" fill="#0d3286" d="M248.5 486.5h-9l-12 1h-9a90.793 90.793 0 0 1 30-1z"/><path style="opacity:1" fill="#136" d="M218.5 487.5h9a54.194 54.194 0 0 0-18 5h-12v-1l21-4z"/><path style="opacity:1" fill="#2a3841" d="M346.5 487.5a139.032 139.032 0 0 0-25 7h-5c8.361-4.676 17.361-7.343 27-8 1.226.02 2.226.353 3 1z"/><path style="opacity:1" fill="#f5f8f6" d="M264.5 493.5c7.655 3.198 15.655 4.865 24 5 11.378 2.015 22.378.682 33-4a309.744 309.744 0 0 1 24-5c.798.457 1.131 1.124 1 2l-16 8c-20.003 8.684-40.67 10.351-62 5a5.727 5.727 0 0 0-3 1 36.61 36.61 0 0 0-7-4c-4.706-1.875-9.706-2.875-15-3-3.769.256-7.436-.077-11-1-9.748.153-19.082 1.819-28 5-3.832.382-7.165 1.715-10 4-4.406.248-8.74.915-13 2a41.535 41.535 0 0 0-9 1 102.29 102.29 0 0 1-19-5c-5.709-1.09-11.042-3.09-16-6-2.01-2.527-4.677-4.361-8-5.5 3.973.291 7.973.791 12 1.5h4c8.511 4.338 17.678 6.338 27.5 6 7.583.257 14.749-1.077 21.5-4h3a79.262 79.262 0 0 0 12-4 145.239 145.239 0 0 1 39-2.5c5.373 1.178 10.707 2.345 16 3.5z"/><path style="opacity:1" fill="#60716f" d="M239.5 486.5a735.881 735.881 0 0 0 21 4c.948 1.478 2.281 2.478 4 3-5.293-1.155-10.627-2.322-16-3.5-13.12-.923-26.12-.09-39 2.5a54.194 54.194 0 0 1 18-5l12-1z"/><path style="opacity:1" fill="#405151" d="M125.5 488.5c2.943.48 5.61 1.48 8 3a12.992 12.992 0 0 1-5.5-1c-1.301.139-2.134.805-2.5 2-1.186-1.205-1.186-2.539 0-4z"/><path style="opacity:1" fill="#364443" d="M145.5 494.5h-4a46.702 46.702 0 0 0-8-3c2.671-.666 5.171-.666 7.5 0 2.026.415 3.526 1.415 4.5 3z"/><path style="opacity:1" fill="#abbab8" d="M346.5 487.5h2c.543.06.876.393 1 1-.379 1.713-1.379 2.713-3 3 .131-.876-.202-1.543-1-2a309.744 309.744 0 0 0-24 5 139.032 139.032 0 0 1 25-7z"/><path style="opacity:1" fill="#141918" d="M196.5 492.5h7c-2.418.793-4.418 2.126-6 4h-3c-.111-.617-.444-1.117-1-1.5 1.442-.377 2.442-1.21 3-2.5z"/><path style="opacity:1" fill="#0f3473" d="M365.5 478.5c.086.996-.248 1.829-1 2.5-2.118.26-3.784 1.26-5 3a150.71 150.71 0 0 1-11 3.5h-2c-.774-.647-1.774-.98-3-1-9.639.657-18.639 3.324-27 8-3.083.566-6.083.566-9 0-1.299 1.194-2.632 2.194-4 3a1985.015 1985.015 0 0 0-28-2.5c-2.239-2.614-4.905-3.114-8-1.5-.886-.825-1.219-1.825-1-3h-6a735.881 735.881 0 0 1-21-4h9c10.735 1.227 21.068 3.727 31 7.5 11.374 1.812 22.707 1.479 34-1 13.227-6.18 27.227-9.18 42-9a73.336 73.336 0 0 1 10-5.5z"/><path style="opacity:1" fill="#92a3a1" d="M133.5 491.5a46.702 46.702 0 0 1 8 3 119.535 119.535 0 0 0-12-1.5c3.323 1.139 5.99 2.973 8 5.5a64.306 64.306 0 0 1-12-6c.366-1.195 1.199-1.861 2.5-2a12.992 12.992 0 0 0 5.5 1z"/><path style="opacity:1" fill="#758785" d="M203.5 492.5h6a79.262 79.262 0 0 1-12 4c1.582-1.874 3.582-3.207 6-4z"/><path style="opacity:1" fill="#394644" d="M260.5 490.5h6c-.219 1.175.114 2.175 1 3 3.095-1.614 5.761-1.114 8 1.5 9.346.768 18.679 1.601 28 2.5-4.805.987-9.805 1.321-15 1-8.345-.135-16.345-1.802-24-5-1.719-.522-3.052-1.522-4-3z"/><path style="opacity:1" fill="#415251" d="M316.5 494.5c-3.974 2.075-8.308 3.075-13 3 1.368-.806 2.701-1.806 4-3 2.917.566 5.917.566 9 0z"/><path style="opacity:1" fill="#0f337f" d="M107.5 480.5c2.989.798 5.655 2.298 8 4.5a87.006 87.006 0 0 0 20 3c15.928 5.273 32.094 8.106 48.5 8.5a117.065 117.065 0 0 1 13.5-5v1h-1a236.943 236.943 0 0 0-13 6c-4.282-.302-8.949-.469-14-.5a102.486 102.486 0 0 1-19-4.5c-1.635.546-3.301.88-5 1-.974-1.585-2.474-2.585-4.5-3-2.329-.666-4.829-.666-7.5 0-2.39-1.52-5.057-2.52-8-3a102.65 102.65 0 0 0-10-1.5 78.986 78.986 0 0 1-8-6.5z"/><path style="opacity:1" fill="#a9b9b6" d="M316.5 494.5h5c-10.622 4.682-21.622 6.015-33 4 5.195.321 10.195-.013 15-1 4.692.075 9.026-.925 13-3z"/><path style="opacity:1" fill="#35444b" d="M196.5 492.5c-.558 1.29-1.558 2.123-3 2.5.556.383.889.883 1 1.5-6.751 2.923-13.917 4.257-21.5 4-9.822.338-18.989-1.662-27.5-6a20.222 20.222 0 0 0 5-1 102.486 102.486 0 0 0 19 4.5c5.051.031 9.718.198 14 .5a236.943 236.943 0 0 1 13-6z"/><path style="opacity:1" fill="#657877" d="M232.5 497.5a197.592 197.592 0 0 0-11 3c-.996.086-1.829-.248-2.5-1-1.897 1.516-4.064 2.183-6.5 2a41.541 41.541 0 0 1-8 1c8.918-3.181 18.252-4.847 28-5z"/><path style="opacity:1" fill="#1a201f" d="M232.5 497.5c3.564.923 7.231 1.256 11 1 .418.722 1.084 1.222 2 1.5a121.16 121.16 0 0 0 13 1.5 36.61 36.61 0 0 1 7 4 269.626 269.626 0 0 0-28-5.5c-4.645-.817-9.145-.317-13.5 1.5a11.123 11.123 0 0 1-2.5-1 197.592 197.592 0 0 1 11-3z"/><path style="opacity:1" fill="#7b8e8c" d="M243.5 498.5c5.294.125 10.294 1.125 15 3a121.16 121.16 0 0 1-13-1.5c-.916-.278-1.582-.778-2-1.5z"/><path style="opacity:1" fill="#273133" d="m212.5 501.5-5 4a61.26 61.26 0 0 1-13 1c2.835-2.285 6.168-3.618 10-4a41.541 41.541 0 0 0 8-1z"/><path style="opacity:1" fill="#728583" d="M330.5 499.5c-12.059 7.185-25.226 10.518-39.5 10a633.403 633.403 0 0 0-13.5-1c-3.566-.292-6.566-1.626-9-4 21.33 5.351 41.997 3.684 62-5z"/><path style="opacity:1" fill="#99a9a7" d="M153.5 504.5a102.29 102.29 0 0 0 19 5 41.535 41.535 0 0 1 9-1l-4 2c-8.924 1.418-16.924-.582-24-6z"/><path style="opacity:1" fill="#495a5a" d="M194.5 506.5c-2.255 1.88-4.922 2.88-8 3-2.982.463-5.982.796-9 1l4-2a68.045 68.045 0 0 1 13-2z"/><path style="opacity:1" fill="#0f3470" d="M221.5 500.5c.765.423 1.598.757 2.5 1 4.355-1.817 8.855-2.317 13.5-1.5a269.626 269.626 0 0 1 28 5.5 5.727 5.727 0 0 1 3-1c2.434 2.374 5.434 3.708 9 4 3.128 1.132 6.462 1.965 10 2.5 1.425 1.714 1.092 3.047-1 4a155.052 155.052 0 0 1-48 5.5 304.937 304.937 0 0 1-43-2.5 91.752 91.752 0 0 1-13-3.5 3.647 3.647 0 0 0-1-1.5 28.926 28.926 0 0 0 5-3.5c3.078-.12 5.745-1.12 8-3a61.26 61.26 0 0 0 13-1l5-4c2.436.183 4.603-.484 6.5-2 .671.752 1.504 1.086 2.5 1z"/><path style="opacity:1" fill="#1403fa" d="M207.5 505.5c13.132-3.612 26.466-4.446 40-2.5a1055.101 1055.101 0 0 0 31 8c3.146.11 4.146 1.443 3 4-31.807 6.166-63.474 5.832-95-1a24.834 24.834 0 0 1 8-5c4.647-.538 8.98-1.705 13-3.5z"/></svg>