<svg xmlns="http://www.w3.org/2000/svg" width="1072" height="1187" style="shape-rendering:geometricPrecision;text-rendering:geometricPrecision;image-rendering:optimizeQuality;fill-rule:evenodd;clip-rule:evenodd"><path style="opacity:1" d="M-.5-.5h1072v675c-10.55 100.821-42.72 194.154-96.5 280-43.874 60.21-96.04 112.04-156.5 155.5-26.296 17.15-54.296 31.15-84 42-51.267 16.74-103.6 28.24-157 34.5h-69c-85.926-4.4-166.259-27.9-241-70.5a633.688 633.688 0 0 1-73-52c-20.446-20.45-40.946-40.95-61.5-61.5a604.087 604.087 0 0 1-44-57c-24.41-42.157-45.076-86.157-62-132-14.452-45.443-23.618-91.776-27.5-139V-.5z"/><path style="opacity:1" fill="#22b14b" d="M6.5 6.5h1058c.49 225.35-.01 450.683-1.5 676a743.801 743.801 0 0 1-12 70 183.889 183.889 0 0 1-32.5-8.5 322.648 322.648 0 0 0-29-15.5v-3c-6.449-1.224-12.115-4.058-17-8.5-23.11-11.196-47.11-13.363-72-6.5a337.049 337.049 0 0 0-12 6.5c-3.733 1.213-7.4 2.38-11 3.5v3c-2.801 1.266-5.801 2.099-9 2.5l1 1a311.53 311.53 0 0 1-36 18 746.85 746.85 0 0 1-18.5 4.5l-1-1a198.743 198.743 0 0 0-22.5 3c-2.183-1.232-4.349-1.232-6.5 0a2091.042 2091.042 0 0 1-26.5-7.5 208.104 208.104 0 0 0-20-9 8658.269 8658.269 0 0 1-33-21c-21.425-9.722-43.592-11.556-66.5-5.5l-1-1a2119.183 2119.183 0 0 0-61.5 32.5c-31.402 12.155-62.735 12.322-94 .5a76.096 76.096 0 0 0-21-12v-3a8.43 8.43 0 0 1-4-.5c-13.637-8.479-28.304-14.813-44-19-15.436-2.373-30.603-1.206-45.5 3.5a76.678 76.678 0 0 1-18.5 8.5c-4.735 3.868-10.068 6.368-16 7.5.219 1.175-.114 2.175-1 3a227.194 227.194 0 0 1-23 12.5 32.462 32.462 0 0 1-8 .5v3a256.305 256.305 0 0 1-17 5c-12.261.431-24.594-.069-37-1.5-8.63-1.595-16.463-4.761-23.5-9.5l-1 1a728.743 728.743 0 0 0-21.5-13 54.06 54.06 0 0 0-12-5 4.934 4.934 0 0 0-.5-3l-1 1c-19.756-12.299-41.09-16.966-64-14a1220.635 1220.635 0 0 1-20.5 7.5 2149.22 2149.22 0 0 0-52 28 322.84 322.84 0 0 1-33 10.5 537.892 537.892 0 0 1-11.5-80c-.5-221.666-.667-443.333-.5-665z"/><path style="opacity:1" d="M314.5 33.5a62.323 62.323 0 0 1-11-8 182.418 182.418 0 0 0-10.5 12c-.667.667-.667 1.333 0 2a101.794 101.794 0 0 0 15.5 14 55.745 55.745 0 0 0 12-13 512.469 512.469 0 0 1-3-4c8.564 4.897 15.897 11.23 22 19a19.168 19.168 0 0 1 5 2.5 2058.167 2058.167 0 0 0 18 17c.948.483 1.948.65 3 .5v3a132.733 132.733 0 0 0 11 7.5l-1 1a10.503 10.503 0 0 0 5 3.5c.886.825 1.219 1.825 1 3 1.478-.262 2.811.071 4 1 6.976 7.653 14.976 14.987 24 22a6.846 6.846 0 0 0 4 1c-.262 1.478.071 2.811 1 4 6.113 4.113 11.113 9.113 15 15 2.295.636 3.961 1.969 5 4a98.907 98.907 0 0 1 22 18.5c1.4 1.438 3.067 2.271 5 2.5v3a2205.812 2205.812 0 0 1-12-9 114.938 114.938 0 0 0-10 11c-1.333 1.333-1.333 2.667 0 4a65.501 65.501 0 0 1 12.5 11 163.222 163.222 0 0 0 10.5-11c1.166-1.667 1.166-3.334 0-5a43.842 43.842 0 0 1 7 4.5c.752.671 1.086 1.504 1 2.5a156.051 156.051 0 0 1 20 16.5 4.934 4.934 0 0 0 3 .5 4.934 4.934 0 0 0 .5 3 317.458 317.458 0 0 1 21.5 20c7.38 6.16 15.047 12.993 23 20.5-6.4 7.887-13.4 15.387-21 22.5a4.934 4.934 0 0 1-.5 3 1910.227 1910.227 0 0 1-17.5 19 319.364 319.364 0 0 1 2 5 26.796 26.796 0 0 0 8 4c.23 2.965 1.897 4.298 5 4 6.882-2.155 13.715-3.155 20.5-3 4.615-.443 8.782.724 12.5 3.5 2 .667 4 .667 6 0 4.209-3.681 6.875-8.181 8-13.5h-4c-1.495-4.339-4.329-7.673-8.5-10-.667-1-.667-2 0-3a3697.1 3697.1 0 0 1 56-63 8.43 8.43 0 0 0 .5-4c3.802-1.279 6.969-3.612 9.5-7 14.259-17.186 28.592-33.52 43-49a14.506 14.506 0 0 1 4-5 4.934 4.934 0 0 0 .5-3c1.322.17 2.489-.163 3.5-1a8046.739 8046.739 0 0 0 16-20c.383.556.883.889 1.5 1-.359 1.871-1.359 3.371-3 4.5a70.71 70.71 0 0 0 13 11.5 247.17 247.17 0 0 1 12.5-14c.667-1 .667-2 0-3l-10.5-8.5c-2.037.483-4.037 1.316-6 2.5.011-1.517.677-2.684 2-3.5 13.769-14.813 27.602-30.313 41.5-46.5a4.934 4.934 0 0 0 .5-3h3a4.934 4.934 0 0 1 .5-3l19-19c5.152 3.55 9.985 7.55 14.5 12a89.697 89.697 0 0 1 10.5-6c2.592 1.584 4.926 3.584 7 6 .667 1.667.667 3.333 0 5-1.874 2.069-2.874 4.402-3 7a417.03 417.03 0 0 1 30.5 29 6.846 6.846 0 0 0-4 1 103.05 103.05 0 0 0-11 13 55.74 55.74 0 0 0 13 12 36.358 36.358 0 0 0 8.5-9c.383.556.883.889 1.5 1a214057.291 214057.291 0 0 1-128 144 150.774 150.774 0 0 0-9.5 11 8.43 8.43 0 0 0-.5 4 4.934 4.934 0 0 0-3 .5 860.108 860.108 0 0 0-15 15.5c-2.559 5.062-6.059 9.396-10.5 13a4.934 4.934 0 0 0-.5 3h-3c-1.187 2.405-2.687 4.739-4.5 7a147.277 147.277 0 0 1-10.5 10c-2.276 3.959-5.443 7.959-9.5 12a4.934 4.934 0 0 0-.5 3 4.934 4.934 0 0 0-3 .5 17.712 17.712 0 0 1-5.5 4.5c-2.056-3.06-4.889-4.893-8.5-5.5l1-1c-7.958-6.787-15.625-14.287-23-22.5-3.724-1.725-7.057-4.225-10-7.5a12.494 12.494 0 0 0-7 0 4012.482 4012.482 0 0 1-7 9.5c.219 2.415 1.552 3.415 4 3a220.9 220.9 0 0 0 9.5 16 112.679 112.679 0 0 1 2.5 29c3.309.192 5.809-1.141 7.5-4a4.934 4.934 0 0 0 .5-3h3c.109-3.034 1.443-4.034 4-3l86 77c1.802 1.486 3.802 2.486 6 3-.219 1.175.114 2.175 1 3a71.156 71.156 0 0 1 10.5 10l1-1c.483.948.649 1.948.5 3a389.235 389.235 0 0 1 40 36 36.633 36.633 0 0 1-6.5-4 114.938 114.938 0 0 1-10 11c-.667.667-.667 1.333 0 2a89.042 89.042 0 0 0 14.5 13 194.457 194.457 0 0 0 11-12.5c-2.949-2.776-5.616-5.609-8-8.5a51.538 51.538 0 0 1 13 11c1.208.734 2.541 1.067 4 1-.17 1.322.163 2.489 1 3.5 17.472 14.163 34.138 28.83 50 44a4.934 4.934 0 0 0 3 .5c-.219 1.175.114 2.175 1 3a62.356 62.356 0 0 1 11 10.5 1321.023 1321.023 0 0 1-10 11 2.428 2.428 0 0 1-2 .5 18.453 18.453 0 0 0 .5 6 11.333 11.333 0 0 0 3.5 1.5c-.019 2.969-.186 6.135-.5 9.5a32.552 32.552 0 0 1-9 6c-2.684.233-5.351-.434-8-2l-2.5 1a321.14 321.14 0 0 0-17.5 19c-.816 1.323-1.983 1.989-3.5 2-4.912 8.745-11.412 16.078-19.5 22a253.218 253.218 0 0 1-20.5-17.5 4.934 4.934 0 0 0-3-.5c.17-1.322-.163-2.489-1-3.5a14.506 14.506 0 0 1-5-4 4.934 4.934 0 0 0-3-.5c-.244-2.763-1.577-4.929-4-6.5a80.397 80.397 0 0 1-16-14 4.934 4.934 0 0 0-3-.5c.219-1.175-.114-2.175-1-3a10184.86 10184.86 0 0 1-26-23c-1.545-.952-3.212-1.285-5-1a4.934 4.934 0 0 0-.5-3L656.5 534a3640.179 3640.179 0 0 0-19-15.5c-2.399-4.733-6.066-8.066-11-10-2.073-2.156-3.74-4.489-5-7-1.175.219-2.175-.114-3-1a1390.374 1390.374 0 0 0-35-30.5 8.43 8.43 0 0 0-4-.5c.006 4.134.339 7.967 1 11.5a20.431 20.431 0 0 0-1.5 5.5 63.86 63.86 0 0 0-10.5 8.5 137.268 137.268 0 0 0 13 21.5c.825.886 1.825 1.219 3 1 .998 5.173 3.498 9.506 7.5 13 .483.948.649 1.948.5 3h3a100.978 100.978 0 0 0 17 26.5l-1 1a164.156 164.156 0 0 1 13 16.5 1704.06 1704.06 0 0 0 52 79 134.216 134.216 0 0 0 9 10.5 62.744 62.744 0 0 0-7 8c-102.335.833-204.668.667-307-.5a20637.762 20637.762 0 0 0 119-180.5 84.902 84.902 0 0 0-13-.5v-60c-1.478-.262-2.811.071-4 1a1140.158 1140.158 0 0 0-27 31c-.929 1.189-1.262 2.522-1 4-2.763.244-4.929 1.577-6.5 4a549.618 549.618 0 0 1-20 23c-1.438 1.4-2.271 3.067-2.5 5h-3v4c-1.175-.219-2.175.114-3 1a400.78 400.78 0 0 0-22 26 204.426 204.426 0 0 1-17 17 627.569 627.569 0 0 1-37.5 44 8.43 8.43 0 0 0-.5 4c-2.785.433-5.119 1.766-7 4a590.491 590.491 0 0 1-18.5 22 18.08 18.08 0 0 1-3.5 2c-.925-1.141-1.759-1.141-2.5 0l-1-3a32.337 32.337 0 0 1-8.5-8 13.116 13.116 0 0 0-7-1v3c-7.936 3.052-12.269.385-13-8a44.36 44.36 0 0 1 2-10c-5.074-4.549-10.741-10.049-17-16.5a8.43 8.43 0 0 0-4-.5 4.934 4.934 0 0 0-.5-3 121.342 121.342 0 0 1-18.5-18.5c4.848-8.497 11.015-15.997 18.5-22.5a8.43 8.43 0 0 0 .5-4c1.175.219 2.175-.114 3-1a450.982 450.982 0 0 0 26-30c.825-.886 1.825-1.219 3-1a4.934 4.934 0 0 1 .5-3 351.312 351.312 0 0 0 29-33 76.287 76.287 0 0 1 13.5-12l5-10h3a2.428 2.428 0 0 0 .5 2 89.99 89.99 0 0 0 11.5 10.5c1.135.749 2.135.583 3-.5a100.815 100.815 0 0 1 11.5-13c.667-.667.667-1.333 0-2a194.457 194.457 0 0 1-12.5-11 102.1 102.1 0 0 1-12 12 401.684 401.684 0 0 1 26.5-32 8.43 8.43 0 0 0 .5-4h4c2.907-5.064 6.74-9.397 11.5-13a452.53 452.53 0 0 1 17.5-22 166.831 166.831 0 0 1 14-13c3.038-5.219 6.705-10.052 11-14.5l-1-1a6.802 6.802 0 0 0 3-1.5 2058.747 2058.747 0 0 1 15-16c1.515-3.255 3.849-4.588 7-4a250.227 250.227 0 0 0 21 20.5 8.43 8.43 0 0 0 4 .5c-.076 3.267 1.257 4.601 4 4 .052-12.728 3.719-24.228 11-34.5l-1-1a1896.43 1896.43 0 0 0 6.5-5.5c-.171-5.505-3.005-8.338-8.5-8.5a164.632 164.632 0 0 1-16 17.5c-1.803-.637-3.136-1.803-4-3.5a4.934 4.934 0 0 0-3-.5c.219-1.175-.114-2.175-1-3a384.568 384.568 0 0 1-30-26c-.886-.825-1.219-1.825-1-3a4.934 4.934 0 0 1-3-.5 3639.69 3639.69 0 0 1-46-42.5c-2.465-.632-4.131-2.132-5-4.5a8.43 8.43 0 0 0-4-.5 4.934 4.934 0 0 0-.5-3 2368.255 2368.255 0 0 1-49.5-44c-1.189-.929-2.522-1.262-4-1 .219-1.175-.114-2.175-1-3a7827.922 7827.922 0 0 0-31-29h-3c.219-1.175-.114-2.175-1-3a56.227 56.227 0 0 1-13-12 6.846 6.846 0 0 0-4-1c.17-1.322-.163-2.489-1-3.5a556.403 556.403 0 0 1-30-26c1.333-.667 1.333-1.333 0-2a44.52 44.52 0 0 0 6-4.5 114.212 114.212 0 0 1 8-10.5l-1-1c1.016-.52 1.682-1.353 2-2.5-5.077-8.77-3.077-15.437 6-20 7.067 6.183 12.4 4.85 16-4a5.577 5.577 0 0 1 3-1 10.136 10.136 0 0 1 1.5-4 60.534 60.534 0 0 0 10.5-12 32.367 32.367 0 0 1 4.5-3c3.333-6.34 7.833-11.674 13.5-16 4.337 2.674 8.004 6.007 11 10z"/><path style="opacity:1" fill="#edeeed" d="M314.5 33.5a6.544 6.544 0 0 0 3 3 512.469 512.469 0 0 0 3 4 55.745 55.745 0 0 1-12 13 101.794 101.794 0 0 1-15.5-14c-.667-.667-.667-1.333 0-2a182.418 182.418 0 0 1 10.5-12 62.323 62.323 0 0 0 11 8z"/><path style="opacity:1" d="M314.5 33.5h3v3a6.544 6.544 0 0 1-3-3z"/><path style="opacity:1" fill="#edeeed" d="M755.5 34.5c5.027 2.185 9.027 5.685 12 10.5a231.322 231.322 0 0 1-12 13.5 47.065 47.065 0 0 1-12-11l12-13zM778.5 40.5c6.956.892 8.789 4.56 5.5 11-73.58 83.59-147.247 167.257-221 251l-8.5 8.5c-3.874-.673-6.874-2.839-9-6.5a39785.9 39785.9 0 0 0 154.5-178 3235.135 3235.135 0 0 1 78.5-86zM289.5 41.5a179.048 179.048 0 0 1 17 15 60 60 0 0 1-10.5 12 85.412 85.412 0 0 1-12.5-9.5c-2.084-1.5-3.417-3.5-4-6a171.833 171.833 0 0 1 10-11.5zM339.5 55.5c.912 1.238 1.079 2.572.5 4a93.871 93.871 0 0 1-11 12 131.598 131.598 0 0 1-16.5-15 55.537 55.537 0 0 1 12-13 222.078 222.078 0 0 0 15 12zM739.5 51.5a4.932 4.932 0 0 1 3 .5l10 10A128.804 128.804 0 0 1 740 76.5 93.72 93.72 0 0 1 728.5 65a209.86 209.86 0 0 0 11-13.5zM273.5 58.5c1.637-.718 3.303-.885 5-.5l15 13.5a54.943 54.943 0 0 1-10 11.5c-1 .667-2 .667-3 0a148.332 148.332 0 0 0-15-14c3.541-2.909 6.208-6.409 8-10.5zM781.5 58.5a8.435 8.435 0 0 1 4 .5 98.674 98.674 0 0 1 10 9.5 53.94 53.94 0 0 1-13.5 14 178.901 178.901 0 0 1-11.5-11c3.93-4.25 7.597-8.583 11-13zM309.5 59.5a350.214 350.214 0 0 1 17 14.5c-2.752 4.922-6.418 9.088-11 12.5-6.056-4.508-11.39-9.674-16-15.5a158.195 158.195 0 0 0 10-11.5zM342.5 60.5a19.168 19.168 0 0 1 5 2.5 178.456 178.456 0 0 1 11 11.5 55.537 55.537 0 0 1-12 13 113.296 113.296 0 0 1-15-13.5 206.95 206.95 0 0 0 11-13.5zM501.5 282.5a600.57 600.57 0 0 1 20 19.5 45.255 45.255 0 0 1-7.5 8.5 43367.103 43367.103 0 0 1-265-236c-.347-4.504 1.82-7.17 6.5-8a157.641 157.641 0 0 1 13 8.5 17174.758 17174.758 0 0 1 210 188.5 304.369 304.369 0 0 0 23 19zM724.5 68.5a4.932 4.932 0 0 1 3 .5 561.168 561.168 0 0 1 10 10A92.69 92.69 0 0 1 724 94.5L712.5 83a83.17 83.17 0 0 1 12-14.5zM797.5 70.5c4.802 2.969 8.802 6.802 12 11.5a46.485 46.485 0 0 1-12 13.5c-4.993-2.335-8.993-5.835-12-10.5a246.805 246.805 0 0 0 12-14.5zM295.5 74.5a96.025 96.025 0 0 1 18 15 198.018 198.018 0 0 1-11.5 12c-5.48-4.81-10.98-9.643-16.5-14.5a174.395 174.395 0 0 0 10-12.5zM767.5 74.5a59.689 59.689 0 0 1 12 10.5 45.838 45.838 0 0 1-6.5 9.5 21.368 21.368 0 0 1-6 5 192.85 192.85 0 0 1-12.5-11c4.327-4.66 8.66-9.328 13-14zM328.5 76.5c5.911 3.905 11.245 8.572 16 14a93.918 93.918 0 0 1-11 12 138.302 138.302 0 0 1-15-13c3.357-4.352 6.691-8.685 10-13zM365.5 78.5c3.232 3.575 6.566 7.242 10 11a77.56 77.56 0 0 1-11.5 13 83.261 83.261 0 0 1-14.5-13 194.565 194.565 0 0 1 11-12.5c1.689.134 3.356.634 5 1.5zM815.5 84.5c0 2 1 3 3 3a45.097 45.097 0 0 0 7 9 13.14 13.14 0 0 0-2 6c-.617-.111-1.117-.444-1.5-1a36.358 36.358 0 0 1-8.5 9 55.74 55.74 0 0 1-13-12 103.05 103.05 0 0 1 11-13 6.846 6.846 0 0 1 4-1z"/><path style="opacity:1" d="M815.5 84.5c1.69.356 2.69 1.356 3 3-2 0-3-1-3-3z"/><path style="opacity:1" fill="#edeeed" d="M709.5 85.5a70.788 70.788 0 0 1 13 11.5 152.898 152.898 0 0 1-13.5 14.5 211.4 211.4 0 0 1-11.5-11.5 83.17 83.17 0 0 1 12-14.5z"/><path style="opacity:1" d="M818.5 87.5a109.177 109.177 0 0 1 11 8 1346.338 1346.338 0 0 0-6 7 13.14 13.14 0 0 1 2-6 45.097 45.097 0 0 1-7-9z"/><path style="opacity:1" fill="#edeeed" d="M239.5 97.5a45.271 45.271 0 0 0 10.5-9 16.23 16.23 0 0 1 3.5 1.5 227.748 227.748 0 0 0 13 12.5 60.436 60.436 0 0 1-10.5 12 6684.726 6684.726 0 0 0-13-10c-1.879-2.027-3.046-4.36-3.5-7zM781.5 88.5a4.932 4.932 0 0 1 3 .5l10 10a4467.352 4467.352 0 0 1-12.5 14.5 198.528 198.528 0 0 1-12.5-11c4.023-4.686 8.023-9.353 12-14zM381.5 93.5a71.204 71.204 0 0 1 12 12.5c-3.07 5.076-6.903 9.576-11.5 13.5a587.397 587.397 0 0 1-15.5-14.5c3.799-4.801 7.966-9.3 12.5-13.5.708.88 1.542 1.547 2.5 2zM751.5 91.5a100.958 100.958 0 0 1 13 11 139.724 139.724 0 0 1-13 15 93.892 93.892 0 0 1-12-11 2886.883 2886.883 0 0 0 12-15zM314.5 92.5c2.283.108 4.283.941 6 2.5a58.72 58.72 0 0 0 11 9.5 160.621 160.621 0 0 1-11 13 109.279 109.279 0 0 0-10-7.5c-2.241-1.739-3.908-3.906-5-6.5a116.97 116.97 0 0 0 9-11zM346.5 92.5c5.669 3.195 10.669 7.362 15 12.5a101.444 101.444 0 0 1-10.5 13.5 140.202 140.202 0 0 1-14.5-13.5 60.917 60.917 0 0 1 10-12.5zM797.5 101.5c4.94 3.27 9.273 7.27 13 12a117.713 117.713 0 0 1-12 14 229.57 229.57 0 0 1-14-11.5c3.774-5.419 8.108-10.252 13-14.5zM683.5 113.5c3.432-1.099 5.432-3.433 6-7 1.963-1.184 3.963-2.017 6-2.5l10.5 8.5c.667 1 .667 2 0 3a247.17 247.17 0 0 0-12.5 14 70.71 70.71 0 0 1-13-11.5c1.641-1.129 2.641-2.629 3-4.5zM269.5 105.5a354.413 354.413 0 0 1 18 14.5 103.22 103.22 0 0 1-11.5 12.5 182.423 182.423 0 0 1-16.5-15.5 170.362 170.362 0 0 1 10-11.5zM765.5 105.5c5.794 2.116 10.461 5.783 14 11a139.724 139.724 0 0 1-13 15c-4.913-3.228-8.913-7.228-12-12 3.684-4.68 7.35-9.347 11-14z"/><path style="opacity:1" d="M689.5 106.5c-.568 3.567-2.568 5.901-6 7 .912-3.247 2.912-5.58 6-7z"/><path style="opacity:1" fill="#edeeed" d="M333.5 107.5a137.448 137.448 0 0 1 15 13c-2.99 4.823-6.823 8.823-11.5 12L322.5 120a202.038 202.038 0 0 1 11-12.5zM363.5 107.5c6.069 4.225 11.735 9.059 17 14.5L369 133.5a386.736 386.736 0 0 0-15.5-13c3.357-4.352 6.691-8.685 10-13zM396.5 107.5a77.944 77.944 0 0 1 15 14 71.072 71.072 0 0 1-11.5 13 89.802 89.802 0 0 1-14.5-13c3.658-4.66 7.325-9.326 11-14zM735.5 109.5c5.04 2.856 9.707 6.356 14 10.5a394.079 394.079 0 0 0-13 15.5 173.953 173.953 0 0 1-13-12 118.137 118.137 0 0 0 12-14zM781.5 118.5a88.747 88.747 0 0 1 15 12.5c-5.5 4.167-10.333 9-14.5 14.5a233.513 233.513 0 0 1-13.5-12 229.787 229.787 0 0 0 13-15zM677.5 121.5a4.934 4.934 0 0 1 3 .5 78.39 78.39 0 0 0 11 10 95.927 95.927 0 0 1-14 14.5 93.892 93.892 0 0 1-12-11 118.137 118.137 0 0 0 12-14zM289.5 122.5c5.608 3.939 10.608 8.606 15 14a195.148 195.148 0 0 1-10.5 13 500.768 500.768 0 0 1-15.5-14.5 202.038 202.038 0 0 1 11-12.5zM349.5 123.5c1.808-.009 3.475.491 5 1.5a73.394 73.394 0 0 1 12 12 59.99 59.99 0 0 1-11 11.5 109.279 109.279 0 0 1-10-7.5 21.365 21.365 0 0 1-5-6 142.834 142.834 0 0 0 9-11.5zM382.5 123.5a4756.055 4756.055 0 0 1 15 13.5 93.85 93.85 0 0 1-10.5 12.5 69.898 69.898 0 0 1-14.5-13.5 177.263 177.263 0 0 0 10-12.5zM749.5 123.5c6.159 1.929 11.159 5.596 15 11a2859.072 2859.072 0 0 0-13 14 103.042 103.042 0 0 1-13-11c3.714-4.704 7.381-9.371 11-14zM429.5 136.5c-2.887 5.227-6.554 9.894-11 14a242.354 242.354 0 0 1-16-13.5 55.59 55.59 0 0 1 12.5-12.5 377.78 377.78 0 0 1 14.5 12zM721.5 126.5c4.795 2.961 8.795 6.795 12 11.5a149.213 149.213 0 0 1-13.5 15.5 211.94 211.94 0 0 0-12.5-12 149.723 149.723 0 0 1 14-15zM765.5 136.5c5.497 2.948 10.164 6.948 14 12a83.134 83.134 0 0 1-12.5 13 47.882 47.882 0 0 1-13.5-11 120.333 120.333 0 0 1 12-14zM306.5 138.5a4.934 4.934 0 0 1 3 .5 229.592 229.592 0 0 0 13 12.5 211.31 211.31 0 0 0-11.5 13 392.671 392.671 0 0 1-14.5-14 84.607 84.607 0 0 0 10-12zM663.5 138.5c3.954 3.616 7.954 7.283 12 11-3.964 5.798-8.797 10.798-14.5 15a59.829 59.829 0 0 1-11.5-11 74.986 74.986 0 0 1 14-15zM368.5 139.5c6.328 2.82 11.661 6.987 16 12.5a95.23 95.23 0 0 1-11.5 12.5 81.827 81.827 0 0 1-14.5-13 86.58 86.58 0 0 1 10-12zM400.5 139.5a95.666 95.666 0 0 1 15 13.5 62.487 62.487 0 0 1-11 12.5 148.31 148.31 0 0 1-15-14c3.689-4.02 7.355-8.02 11-12zM434.5 140.5a669.907 669.907 0 0 0 13 12.5c-4.471 3.977-8.471 8.477-12 13.5a290.441 290.441 0 0 0-15-13.5 322.042 322.042 0 0 0 12.5-13.5c.383.556.883.889 1.5 1zM735.5 140.5a4.934 4.934 0 0 1 3 .5c2.689 4.022 6.022 7.355 10 10a96.246 96.246 0 0 1-13 15.5 101.669 101.669 0 0 1-13-11 190.205 190.205 0 0 0 13-15zM703.5 145.5c1.808-.009 3.475.491 5 1.5l9 9a72.294 72.294 0 0 0-8.5 11.5c-1.062 1.399-2.395 2.399-4 3-4.489-3.82-8.989-7.653-13.5-11.5 4.602-4.094 8.602-8.594 12-13.5zM750.5 153.5c5.241 3.235 9.908 7.235 14 12a76.572 76.572 0 0 1-14 15 162.692 162.692 0 0 1-13-12 215.276 215.276 0 0 0 13-15zM323.5 154.5a4.934 4.934 0 0 1 3 .5 247.17 247.17 0 0 1 14 12.5 151.477 151.477 0 0 0-11 13 277.814 277.814 0 0 1-16-14.5c3.941-3.438 7.275-7.271 10-11.5zM386.5 154.5c5.859 3.779 11.193 8.279 16 13.5a60.924 60.924 0 0 1-11 12.5 229.152 229.152 0 0 1-16-13.5 109.915 109.915 0 0 0 11-12.5z"/><path style="opacity:1" fill="#ededed" d="M461.5 164.5c.667 0 1 .333 1 1 1.166 1.666 1.166 3.333 0 5a163.222 163.222 0 0 1-10.5 11 65.501 65.501 0 0 0-12.5-11c-1.333-1.333-1.333-2.667 0-4a114.938 114.938 0 0 1 10-11c4.037 3.049 8.037 6.049 12 9z"/><path style="opacity:1" fill="#edeeed" d="M416.5 156.5a12.93 12.93 0 0 1 5 .5 153.961 153.961 0 0 0 12 11.5c-3.382 4.547-7.216 8.547-11.5 12a83.273 83.273 0 0 1-14.5-13 71.118 71.118 0 0 0 9-11zM646.5 156.5a196.527 196.527 0 0 1 13 10.5c-1.333.667-1.333 1.333 0 2a246.459 246.459 0 0 0-13 13.5 149.524 149.524 0 0 1-12-11 8949.775 8949.775 0 0 0 12-15zM719.5 158.5c5.107 2.438 9.441 6.105 13 11a266.761 266.761 0 0 1-12.5 15 70.96 70.96 0 0 1-12.5-12 118.137 118.137 0 0 0 12-14zM689.5 161.5c4.287 3.95 8.62 7.95 13 12a315.8 315.8 0 0 1-13.5 16 210.293 210.293 0 0 0-12.5-12c4.357-5.352 8.69-10.686 13-16zM341.5 170.5a4.934 4.934 0 0 1 3 .5 87.564 87.564 0 0 1 13 12.5 59.984 59.984 0 0 1-10.5 12L332.5 183a54.435 54.435 0 0 0 9-12.5zM404.5 170.5a72.429 72.429 0 0 1 15 13 103.042 103.042 0 0 1-11 13l-14-13c3.357-4.352 6.691-8.685 10-13zM435.5 170.5a295.126 295.126 0 0 0 15 13.5 107.06 107.06 0 0 1-11.5 12.5 420.89 420.89 0 0 1-14.5-13 101.97 101.97 0 0 0 11-13zM470.5 172.5a102.102 102.102 0 0 0 12 12 245.252 245.252 0 0 1-11.5 14 109.67 109.67 0 0 1-15.5-15 101.669 101.669 0 0 1 11-13l4 2zM734.5 171.5c4.922 3.58 9.589 7.58 14 12a280.543 280.543 0 0 0-13.5 15 108.182 108.182 0 0 1-12.5-12.5 341.303 341.303 0 0 1 12-14.5zM631.5 173.5a212.106 212.106 0 0 1 13 11.5 405.11 405.11 0 0 0-12.5 14.5 194.457 194.457 0 0 1-12.5-11 4018.182 4018.182 0 0 0 12-15zM703.5 176.5c5.672 2.195 10.339 5.861 14 11l-14 15a197.842 197.842 0 0 1-12-11.5 247.916 247.916 0 0 0 12-14.5zM672.5 180.5a19.177 19.177 0 0 1 5 2.5 120.496 120.496 0 0 1 9 9.5l-13 14a84.501 84.501 0 0 1-13-12.5 77.17 77.17 0 0 0 12-13.5zM359.5 186.5a4.934 4.934 0 0 1 3 .5 119.705 119.705 0 0 1 13 13c-2.848 4.51-6.348 8.344-10.5 11.5-5.815-3.483-10.648-7.983-14.5-13.5a50.115 50.115 0 0 1 9-11.5zM421.5 186.5a4.934 4.934 0 0 1 3 .5 14.506 14.506 0 0 0 5 4 61.376 61.376 0 0 1 7 8c-3.167 4.5-7 8.333-11.5 11.5a76.855 76.855 0 0 1-13.5-12 86.58 86.58 0 0 1 10-12zM451.5 186.5c1.422.209 2.755.709 4 1.5a227.851 227.851 0 0 0 13 12.5 47.229 47.229 0 0 1-11 12 160.385 160.385 0 0 1-16-14 84.607 84.607 0 0 0 10-12zM484.5 187.5c6.052 3.544 11.385 8.044 16 13.5a68.283 68.283 0 0 1-11.5 13.5 316.593 316.593 0 0 1-15.5-14 100.622 100.622 0 0 0 11-13zM718.5 189.5c5.504 2.823 10.171 6.823 14 12a138.291 138.291 0 0 1-13 15 55.74 55.74 0 0 1-13-12 8949.775 8949.775 0 0 0 12-15zM616.5 191.5c4.86 2.757 8.86 6.424 12 11a306.78 306.78 0 0 1-13.5 16L603.5 207a97.836 97.836 0 0 1 13-15.5zM688.5 193.5c4.912 3.304 9.246 7.304 13 12a129.255 129.255 0 0 1-13 14 47.229 47.229 0 0 1-12-11 8949.775 8949.775 0 0 0 12-15zM657.5 197.5c5.572 2.568 9.905 6.568 13 12a87.915 87.915 0 0 1-12 14 197.388 197.388 0 0 1-12-11.5 355.647 355.647 0 0 1 11-14.5zM378.5 201.5a300.071 300.071 0 0 1 16 13.5 211.94 211.94 0 0 0-12 12.5 53.938 53.938 0 0 1-14-13.5 248.779 248.779 0 0 1 10-12.5zM438.5 201.5c1.422.209 2.755.709 4 1.5a2396.14 2396.14 0 0 1 13 12.5 423.118 423.118 0 0 0-11.5 13 311.552 311.552 0 0 1-15.5-14c3.357-4.352 6.691-8.685 10-13zM470.5 203.5a62.083 62.083 0 0 1 16 13.5c-3.506 4.172-7.006 8.338-10.5 12.5a74.679 74.679 0 0 1-14.5-14.5 50.771 50.771 0 0 1 9-11.5zM515.5 212.5c.359 1.871 1.359 3.371 3 4.5a115.634 115.634 0 0 1-12 13.5 268.976 268.976 0 0 1-14-13.5 71.336 71.336 0 0 1 11-13.5c4.037 3.049 8.037 6.049 12 9zM702.5 207.5a4.934 4.934 0 0 1 3 .5c3.7 4.035 7.7 7.702 12 11a140.202 140.202 0 0 1-13.5 14.5 97.905 97.905 0 0 1-12.5-11.5 118.809 118.809 0 0 0 11-14.5zM600.5 209.5c4.009 3.669 8.009 7.335 12 11a96.903 96.903 0 0 1-13.5 15c-4.81-2.479-8.643-5.979-11.5-10.5a149.252 149.252 0 0 1 13-15.5zM672.5 211.5c5.213 2.869 9.88 6.536 14 11l-13 14a182.014 182.014 0 0 0-12-10.5c4.044-4.606 7.71-9.44 11-14.5zM643.5 214.5a212.106 212.106 0 0 1 13 11.5 159.041 159.041 0 0 1-13.5 16.5 233.513 233.513 0 0 1-13.5-12 157.337 157.337 0 0 0 14-16zM395.5 217.5a255.635 255.635 0 0 1 15 12.5 103.246 103.246 0 0 1-11.5 12.5c-5.522-3.158-10.022-7.325-13.5-12.5a60.906 60.906 0 0 1 10-12.5zM456.5 218.5c2.283.108 4.283.941 6 2.5a93.892 93.892 0 0 1 12 11L462 244.5a95.927 95.927 0 0 1-14.5-14c3.08-4.061 6.08-8.061 9-12zM488.5 219.5c5.875 3.529 11.208 7.862 16 13a52.813 52.813 0 0 1-11 13l-14-14c2.991-3.993 5.991-7.993 9-12zM520.5 219.5a95.666 95.666 0 0 1 15 13.5 340.029 340.029 0 0 1-11.5 13.5 138.984 138.984 0 0 0-14.5-13.5c3.345-4.916 7.012-9.416 11-13.5zM695.5 246.5c-2.556 1.043-4.723 2.71-6.5 5a119.16 119.16 0 0 1-13.5-12.5 461.812 461.812 0 0 0 13-13.5 53.914 53.914 0 0 1 13 11 45.105 45.105 0 0 0-6 10zM583.5 228.5c1.422.209 2.755.709 4 1.5 2.998 2.992 5.998 5.992 9 9a366.33 366.33 0 0 1-13.5 15.5 71.144 71.144 0 0 1-12.5-12c4.355-4.687 8.688-9.354 13-14zM658.5 228.5c4.759 3.253 9.092 7.087 13 11.5L657 255.5c-4.155-3.487-8.322-6.987-12.5-10.5a474.528 474.528 0 0 1 14-16.5zM412.5 232.5a109.46 109.46 0 0 1 16 14.5c-2.734 4.741-6.234 8.907-10.5 12.5a159.927 159.927 0 0 1-15.5-14.5 181.132 181.132 0 0 1 10-12.5zM475.5 234.5c6.052 3.544 11.385 8.044 16 13.5a47.105 47.105 0 0 1-11.5 11.5 137.73 137.73 0 0 1-15.5-12.5c4.247-3.742 7.914-7.908 11-12.5zM625.5 234.5a6.846 6.846 0 0 1 4 1 136.119 136.119 0 0 1 10 9.5 96.246 96.246 0 0 1-13 15.5c-4.779-2.944-8.779-6.777-12-11.5a234.664 234.664 0 0 1 11-14.5zM517.5 255.5a575.2 575.2 0 0 0-6 5 139.724 139.724 0 0 1-15-13 65.546 65.546 0 0 1 11.5-12 64.804 64.804 0 0 1 13.5 13.5 37.76 37.76 0 0 0-4 6.5zM671.5 242.5a8.43 8.43 0 0 1 4 .5 59.76 59.76 0 0 1 11 11.5 74.58 74.58 0 0 1-14 15 152.473 152.473 0 0 1-13-12c4.807-4.461 8.807-9.461 12-15zM568.5 245.5a197.313 197.313 0 0 1 12 11.5c-3.48 5.644-7.813 10.477-13 14.5a141.011 141.011 0 0 1-12-10.5 146.655 146.655 0 0 1 13-15.5zM641.5 247.5c4.868 2.948 9.201 6.615 13 11-4.017 5.681-8.684 10.681-14 15a165.333 165.333 0 0 1-11-10.5 272.313 272.313 0 0 1 12-15.5zM430.5 249.5a157.754 157.754 0 0 1 16 14 59.693 59.693 0 0 1-10.5 12 468.281 468.281 0 0 1-15.5-13.5c3.57-4.06 6.904-8.227 10-12.5zM492.5 250.5a4.934 4.934 0 0 1 3 .5 87.564 87.564 0 0 1 13 12.5 47.06 47.06 0 0 1-11 12 83.405 83.405 0 0 1-14-12.5 164.7 164.7 0 0 0 9-12.5zM609.5 252.5c1.808-.009 3.475.491 5 1.5a121.75 121.75 0 0 1 9 9.5 141.383 141.383 0 0 1-13 15 211.31 211.31 0 0 0-13-11.5 242.087 242.087 0 0 0 12-14.5zM667.5 277.5a3981.922 3981.922 0 0 0-11 10 211.31 211.31 0 0 1-13-11.5 286.454 286.454 0 0 0 13-15.5 82.665 82.665 0 0 1 14 12.5c-1.641 1.129-2.641 2.629-3 4.5zM625.5 265.5a100.998 100.998 0 0 1 13 11 139.724 139.724 0 0 1-13 15 59.984 59.984 0 0 1-12-10.5 272.313 272.313 0 0 1 12-15.5zM448.5 266.5a58.821 58.821 0 0 1 16 13 59.984 59.984 0 0 1-10.5 12 95.074 95.074 0 0 1-15.5-13.5 169.715 169.715 0 0 1 10-11.5zM593.5 270.5a8.43 8.43 0 0 1 4 .5c3.477 3.567 7.144 6.9 11 10a139.73 139.73 0 0 1-13.5 14.5 60.924 60.924 0 0 1-12.5-11c3.684-4.68 7.35-9.347 11-14zM640.5 278.5c5.073 3.566 9.74 7.732 14 12.5L642 305.5a119.908 119.908 0 0 1-14.5-11.5 274.71 274.71 0 0 0 13-15.5zM466.5 281.5a294.41 294.41 0 0 1 16 13.5 59.89 59.89 0 0 1-11 11.5 105.726 105.726 0 0 1-15-12.5c3.57-4.06 6.904-8.227 10-12.5zM609.5 283.5c5.054 2.874 9.72 6.374 14 10.5a6662.172 6662.172 0 0 0-13.5 15.5 198.528 198.528 0 0 1-12.5-11 8949.775 8949.775 0 0 0 12-15zM531.5 289.5c6.286-.01 11.952 1.823 17 5.5l-6.5 6.5a78.678 78.678 0 0 1-11.5-9 63.532 63.532 0 0 1-6.5 7 18.68 18.68 0 0 1-6.5-6 12.403 12.403 0 0 1 4-2.5c3.525-.179 6.859-.679 10-1.5zM638.5 310.5a245.326 245.326 0 0 0-13.5 13c-4.595-3.426-8.762-7.426-12.5-12a53.938 53.938 0 0 1 13.5-14 12216 12216 0 0 1 12 10c.483.948.649 1.948.5 3zM529.5 300.5c2.64.454 4.973 1.621 7 3.5l20 18a775.554 775.554 0 0 1-22 24.5 195.794 195.794 0 0 1-25-22 337.89 337.89 0 0 0 20-24zM495.5 305.5c4.572 3.063 8.739 6.73 12.5 11 .667.667.667 1.333 0 2a64.292 64.292 0 0 0-6.5 7l9 10-20.5 23-5-5c-3.939-17.82-.439-33.82 10.5-48zM562.5 306.5c9.762 6.172 14.929 15.172 15.5 27 .335 5.019.835 10.019 1.5 15l-1 3a504.006 504.006 0 0 1-23-21 108.03 108.03 0 0 0 8-9.5 54.452 54.452 0 0 1-6-6.5c1.657-2.66 3.324-5.327 5-8zM440.5 324.5c1.644-.866 3.311-1.366 5-1.5a196.254 196.254 0 0 0 12 11.5 266.761 266.761 0 0 1-12.5 15 120.975 120.975 0 0 1-13.5-12.5 57.31 57.31 0 0 1 8.5-9.5 4.934 4.934 0 0 0 .5-3zM551.5 334.5a4.934 4.934 0 0 1 3 .5 17044.554 17044.554 0 0 1 259 231.5c4.357 4.988 3.19 8.321-3.5 10a39.304 39.304 0 0 1-11.5-6.5 18540.825 18540.825 0 0 0-241-216 394.54 394.54 0 0 0-12-12.5c2.023-2.353 4.023-4.686 6-7zM458.5 336.5a4.934 4.934 0 0 1 3 .5 77.742 77.742 0 0 0 11 10 468.281 468.281 0 0 1-13.5 15.5 198.528 198.528 0 0 1-12.5-11 4744.388 4744.388 0 0 0 12-15zM427.5 340.5a4.934 4.934 0 0 1 3 .5 43.128 43.128 0 0 1 11 11c-3.455 5.789-7.955 10.622-13.5 14.5a192.67 192.67 0 0 1-12.5-11 8949.775 8949.775 0 0 0 12-15zM506.5 343.5c3.829 1.151 6.829 3.484 9 7a13651.099 13651.099 0 0 1-228.5 261c-5-1.024-7.333-4.024-7-9a190.792 190.792 0 0 1 11-15 61896.552 61896.552 0 0 0 215.5-244zM594.5 344.5c5.564 3.223 10.564 7.223 15 12a47.06 47.06 0 0 1-11 12 64.748 64.748 0 0 1-14-13 103.101 103.101 0 0 1 10-11zM539.5 347.5a109.332 109.332 0 0 1 14 11c-13.156.948-26.156.948-39 0a111.037 111.037 0 0 0 8-9.5c1-.667 2-.667 3 0a64.292 64.292 0 0 0 7 6.5c3.095-2.089 5.429-4.756 7-8zM474.5 349.5l13 12c-3.63 5.464-8.13 10.131-13.5 14a196.428 196.428 0 0 1-12.5-11 141.2 141.2 0 0 1 13-15zM442.5 354.5c6.204 1.36 10.87 4.86 14 10.5a153.88 153.88 0 0 1-13 15.5 2546.202 2546.202 0 0 1-13-11.5 139.01 139.01 0 0 0 12-14.5zM412.5 357.5a82.309 82.309 0 0 1 14 12.5 139.479 139.479 0 0 1-13.5 14.5c-5.076-3.07-9.576-6.903-13.5-11.5a280.46 280.46 0 0 0 13-15.5zM611.5 359.5a4.934 4.934 0 0 1 3 .5 152.024 152.024 0 0 1 13 13 223.12 223.12 0 0 1-11.5 11.5 370.8 370.8 0 0 1-14.5-13 89.158 89.158 0 0 1 10-12zM509.5 363.5c14.356.855 28.856.855 43.5 0 5.278-.055 9.612 1.945 13 6 .667 1 .667 2 0 3a877.84 877.84 0 0 0-40.5 46 1115.669 1115.669 0 0 0 50.5 46 87.665 87.665 0 0 1-.5 21h-92c-.167-20.336 0-40.669.5-61a152110.57 152110.57 0 0 1 34.5-40.5 782.972 782.972 0 0 0-14-14 25.53 25.53 0 0 0 5-6.5zM457.5 367.5c1.808-.009 3.475.491 5 1.5 3.412 3.072 6.412 6.406 9 10a133.485 133.485 0 0 1-12.5 14.5 55.62 55.62 0 0 1-13.5-11.5 236.65 236.65 0 0 0 12-14.5zM428.5 371.5c4.302 3.826 8.635 7.659 13 11.5a160.842 160.842 0 0 1-14.5 15.5c-4.5-3.167-8.333-7-11.5-11.5a107.353 107.353 0 0 1 13-15.5z"/><path style="opacity:1" fill="#edeeed" d="M501.5 373.5a85.96 85.96 0 0 1 13 11.5 420.89 420.89 0 0 1-13 14.5 195.148 195.148 0 0 1-13-10.5 2882.19 2882.19 0 0 0 13-15.5zM568.5 373.5a4.934 4.934 0 0 1 3 .5 52.036 52.036 0 0 1 12 12.5c-2.343 3.836-5.176 7.169-8.5 10a80.13 80.13 0 0 1-13.5-13.5 92.529 92.529 0 0 0 7-9.5zM629.5 374.5a74.686 74.686 0 0 1 15 14 6.895 6.895 0 0 1-2 4l-8 8a96.903 96.903 0 0 1-15-13.5 177.263 177.263 0 0 0 10-12.5zM396.5 376.5a19.177 19.177 0 0 1 5 2.5 107.985 107.985 0 0 0 9 8.5 160.385 160.385 0 0 1-14 16 71.072 71.072 0 0 1-13-11.5 149.252 149.252 0 0 1 13-15.5zM442.5 385.5a4.934 4.934 0 0 1 3 .5l11 11-13.5 15.5c-4.701-3.537-8.868-7.537-12.5-12a207.479 207.479 0 0 1 12-15zM557.5 386.5a4.934 4.934 0 0 1 3 .5 187.382 187.382 0 0 1 13 12 194.457 194.457 0 0 1-11 12.5 95.566 95.566 0 0 1-15-13.5 169.715 169.715 0 0 1 10-11.5zM585.5 388.5a62.083 62.083 0 0 1 16 13.5c-2.82 3.489-5.653 6.989-8.5 10.5L577.5 399a117.686 117.686 0 0 0 8-10.5zM411.5 389.5a847.92 847.92 0 0 0 11 8.5 18.08 18.08 0 0 1 2 3.5 315.8 315.8 0 0 1-13.5 16 102.278 102.278 0 0 1-12.5-11.5c4.999-5.115 9.333-10.615 13-16.5zM486.5 390.5c4.919 3.248 9.253 7.248 13 12a74.58 74.58 0 0 1-14 15c-4.823-2.99-8.823-6.823-12-11.5a286.306 286.306 0 0 1 13-15.5zM647.5 391.5a74.296 74.296 0 0 1 16 13 47.229 47.229 0 0 1-11 12 150.804 150.804 0 0 1-15-14 78.921 78.921 0 0 1 10-11zM380.5 394.5a82.532 82.532 0 0 1 13 12.5 71.543 71.543 0 0 1-12.5 13.5 44.431 44.431 0 0 1-12.5-11.5 245.888 245.888 0 0 0 12-14.5zM544.5 400.5c6.027 3.514 11.36 8.014 16 13.5a376.1 376.1 0 0 1-12.5 13.5 138.27 138.27 0 0 1-14.5-13.5 206.95 206.95 0 0 0 11-13.5zM574.5 401.5a4.934 4.934 0 0 1 3 .5 2396.14 2396.14 0 0 1 13 12.5 66.844 66.844 0 0 0-10.5 13 306.233 306.233 0 0 1-15.5-14c3.356-4.019 6.69-8.019 10-12zM426.5 403.5c5.395 2.558 9.729 6.391 13 11.5a75.2 75.2 0 0 1-13.5 15.5c-4.922-2.752-9.088-6.418-12.5-11 4.357-5.352 8.69-10.686 13-16zM603.5 404.5c1.422.209 2.755.709 4 1.5l12 12c-2.82 3.489-5.653 6.989-8.5 10.5a311.552 311.552 0 0 1-15.5-14 56.72 56.72 0 0 0 8-10zM665.5 406.5a138.577 138.577 0 0 1 15 13 83.738 83.738 0 0 1-11.5 13 269.816 269.816 0 0 1-13.5-14 83.696 83.696 0 0 0 10-12zM394.5 409.5c1.808-.009 3.475.491 5 1.5a41.374 41.374 0 0 0 9 8.5 139.724 139.724 0 0 1-13 15 195.829 195.829 0 0 1-12-11.5 205.693 205.693 0 0 0 11-13.5zM469.5 409.5a4.934 4.934 0 0 1 3 .5 179.919 179.919 0 0 0 9.5 8.5l.5 2a135.086 135.086 0 0 1-13 15 45.59 45.59 0 0 1-12-10.5 272.313 272.313 0 0 1 12-15.5zM364.5 412.5c5.94 2.155 10.606 5.989 14 11.5a89.802 89.802 0 0 1-13 14.5 96.246 96.246 0 0 0-9-7.5c-1.624-1.117-2.624-2.617-3-4.5 3.658-4.66 7.325-9.326 11-14zM560.5 416.5c1.808-.009 3.475.491 5 1.5a102.1 102.1 0 0 1 12 12 55.61 55.61 0 0 1-12.5 12.5 121.14 121.14 0 0 1-13.5-12.5 171.857 171.857 0 0 0 9-13.5zM592.5 416.5a109.46 109.46 0 0 1 16 14.5 101.252 101.252 0 0 1-11.5 12.5L582.5 429a256.716 256.716 0 0 1 10-12.5zM621.5 420.5c6.362 3.85 12.029 8.684 17 14.5a120.496 120.496 0 0 0-9 9.5 117.995 117.995 0 0 1-16-14 4217.27 4217.27 0 0 0 8-10zM409.5 422.5c5.38 2.872 10.046 6.705 14 11.5L411 448.5a71.144 71.144 0 0 1-12.5-12c3.69-4.685 7.357-9.352 11-14zM681.5 422.5c1.808-.009 3.475.491 5 1.5a176.155 176.155 0 0 1 11 11.5 166.24 166.24 0 0 1-10.5 11 56.42 56.42 0 0 1-14.5-12.5c3.015-3.836 6.015-7.669 9-11.5zM379.5 426.5c5.483 2.467 10.15 6.134 14 11a98.203 98.203 0 0 1-13 14c-4.507-3.012-8.507-6.512-12-10.5a242.951 242.951 0 0 1 11-14.5zM453.5 426.5a85.452 85.452 0 0 1 13 12.5 102.667 102.667 0 0 1-14 15.5 2133.459 2133.459 0 0 1-12-11 85.375 85.375 0 0 0 13-17zM336.5 443.5c1-.333 1.667-1 2-2a102.1 102.1 0 0 0 12-12 194.457 194.457 0 0 0 12.5 11c.667.667.667 1.333 0 2a100.815 100.815 0 0 0-11.5 13c-.865 1.083-1.865 1.249-3 .5a89.99 89.99 0 0 1-11.5-10.5 2.428 2.428 0 0 1-.5-2zM578.5 432.5a8.43 8.43 0 0 1 4 .5 227.851 227.851 0 0 0 13 12.5 56.984 56.984 0 0 1-12 13 96.68 96.68 0 0 1-15-13.5c4.192-3.589 7.525-7.756 10-12.5zM610.5 433.5a109.245 109.245 0 0 1 17 13.5 101.553 101.553 0 0 1-11.5 12.5 306.233 306.233 0 0 1-15.5-14 86.58 86.58 0 0 1 10-12zM640.5 436.5a136.98 136.98 0 0 1 15 13 135.23 135.23 0 0 1-9.5 10L631.5 447a75.525 75.525 0 0 0 9-10.5zM701.5 436.5a282.194 282.194 0 0 0 14 14.5 179.938 179.938 0 0 1-11 11.5 71.61 71.61 0 0 1-15-13 55.678 55.678 0 0 1 12-13zM395.5 439.5c5.008 3.008 9.008 7.008 12 12a229.372 229.372 0 0 1-11.5 14L382.5 454a274.922 274.922 0 0 1 13-14.5z"/><path style="opacity:1" d="M338.5 441.5c-.333 1-1 1.667-2 2 0-1.333.667-2 2-2z"/><path style="opacity:1" fill="#edeeed" d="M365.5 443.5a99.308 99.308 0 0 1 13 11 311.223 311.223 0 0 1-14.5 15c-4.18-3.516-8.347-7.016-12.5-10.5a315.494 315.494 0 0 1 14-15.5zM436.5 446.5a16.076 16.076 0 0 1 5 2 57.508 57.508 0 0 0 9 9c-3.906 5.216-8.24 9.883-13 14-4.572-2.899-8.572-6.566-12-11 3.714-4.704 7.381-9.371 11-14zM597.5 447.5a66.3 66.3 0 0 1 16 14.5 50.652 50.652 0 0 1-12 13.5 109.822 109.822 0 0 1-15-15.5 106.275 106.275 0 0 0 11-12.5zM328.5 453.5c1.519-2.114 3.519-3.78 6-5a148.89 148.89 0 0 1 11.5 9c.667 1.333.667 2.667 0 4a211.31 211.31 0 0 1-11.5 13 46.443 46.443 0 0 1-13-12.5 85.665 85.665 0 0 1 7-8.5zM628.5 449.5a94.353 94.353 0 0 1 16 12.5 107.06 107.06 0 0 1-11.5 12.5 138.27 138.27 0 0 1-14.5-13.5 54.61 54.61 0 0 0 10-11.5zM656.5 451.5c5.577 3.57 10.577 7.903 15 13a40.482 40.482 0 0 1-8.5 10L648.5 462c3.291-3.111 5.957-6.611 8-10.5zM716.5 452.5c6.047 3.538 11.381 8.038 16 13.5a60.924 60.924 0 0 1-11 12.5 98.203 98.203 0 0 1-14-13c3.776-3.915 6.776-8.248 9-13zM379.5 457.5a4.934 4.934 0 0 1 3 .5l11 10.5c-4.695 5.026-9.361 10.026-14 15a74.335 74.335 0 0 0-8-6.5c-1.948-1.439-3.281-3.272-4-5.5a118.969 118.969 0 0 1 12-14zM348.5 461.5c4.906 2.899 9.239 6.566 13 11-3.279 5.775-7.445 10.775-12.5 15a60.924 60.924 0 0 1-12.5-11 8949.775 8949.775 0 0 0 12-15zM422.5 463.5a100.998 100.998 0 0 1 13 11c-3.916 5.422-8.416 10.422-13.5 15a320.491 320.491 0 0 0-12.5-11.5 88.62 88.62 0 0 0 13-14.5zM616.5 463.5l14 13a86.097 86.097 0 0 1-6.5 9c-1.389 1.727-3.056 3.061-5 4a45.833 45.833 0 0 1-9.5-6.5 32.364 32.364 0 0 1-4-5.5 110.328 110.328 0 0 1 11-14zM645.5 464.5a4.934 4.934 0 0 1 3 .5 173.953 173.953 0 0 0 13 12 102.135 102.135 0 0 1-11.5 12.5 269.043 269.043 0 0 1-14.5-13c3.341-4.031 6.675-8.031 10-12zM317.5 465.5c5.535 2.86 10.202 6.86 14 12a306.78 306.78 0 0 1-13.5 16 119.16 119.16 0 0 0-13.5-12.5 280.46 280.46 0 0 0 13-15.5zM673.5 467.5a4.934 4.934 0 0 1 3 .5 250.041 250.041 0 0 1 14 12.5 134.072 134.072 0 0 1-9.5 10L665.5 477a245.328 245.328 0 0 0 8-9.5z"/><path style="opacity:1" fill="#ededed" d="M741.5 472.5c.667 0 1 .333 1 1 2.384 2.891 5.051 5.724 8 8.5a194.457 194.457 0 0 1-11 12.5 89.042 89.042 0 0 1-14.5-13c-.667-.667-.667-1.333 0-2a114.938 114.938 0 0 0 10-11 36.633 36.633 0 0 0 6.5 4z"/><path style="opacity:1" fill="#edeeed" d="M363.5 475.5c5.203 2.856 9.869 6.523 14 11a149.168 149.168 0 0 1-14 15 197.842 197.842 0 0 1-12-11.5 253.45 253.45 0 0 0 12-14.5zM332.5 479.5a4.934 4.934 0 0 1 3 .5 62.356 62.356 0 0 1 11 10.5 160.385 160.385 0 0 1-14 16 197.842 197.842 0 0 1-12-11.5 477.097 477.097 0 0 0 12-15.5zM632.5 479.5a4.934 4.934 0 0 1 3 .5l12 12a55.527 55.527 0 0 1-11.5 13.5c-5.412-3.405-10.245-7.572-14.5-12.5a206.95 206.95 0 0 0 11-13.5zM663.5 479.5a74.495 74.495 0 0 1 15 14 73.838 73.838 0 0 1-11 12 96.116 96.116 0 0 1-15-13.5 202.038 202.038 0 0 1 11-12.5zM406.5 481.5a4.934 4.934 0 0 1 3 .5 116.35 116.35 0 0 1 11 10 312.529 312.529 0 0 1-14 15.5 2133.459 2133.459 0 0 1-12-11c4.016-5.013 8.016-10.013 12-15zM301.5 483.5a93.09 93.09 0 0 1 14 12 83.033 83.033 0 0 1-12.5 14 70.6 70.6 0 0 1-13.5-11 4744.388 4744.388 0 0 0 12-15zM691.5 483.5a4.934 4.934 0 0 1 3 .5 110.18 110.18 0 0 0 13 12l-8 9c-1 .667-2 .667-3 0a1179.618 1179.618 0 0 1-13-12.5c3.369-2.427 6.036-5.427 8-9zM755.5 484.5c2.6 4.435 6.1 8.102 10.5 11 .667 1.667.667 3.333 0 5a120.496 120.496 0 0 1-9.5 9 83.908 83.908 0 0 1-14-12.5 86.98 86.98 0 0 1 10-12 4.934 4.934 0 0 1 3-.5zM347.5 493.5c5.769 2.085 10.436 5.752 14 11-3.97 5.571-8.637 10.571-14 15l-12-11a179.361 179.361 0 0 1 12-15zM495.5 493.5c23.045-.323 46.045.01 69 1a5843.604 5843.604 0 0 1 115 170.5c-99.002.833-198.002.667-297-.5a23774.564 23774.564 0 0 0 113-171zM650.5 494.5c5.608 3.939 10.608 8.606 15 14a56.984 56.984 0 0 1-12 13 286.258 286.258 0 0 0-15-13.5 236.714 236.714 0 0 1 12-13.5zM680.5 495.5a19.177 19.177 0 0 1 5 2.5l11 11a320.491 320.491 0 0 0-11.5 12.5 138.795 138.795 0 0 1-14.5-13.5 168.79 168.79 0 0 0 10-12.5zM316.5 498.5c5.769 2.085 10.436 5.752 14 11-4.361 4.693-8.695 9.359-13 14a47.229 47.229 0 0 1-12-11c3.69-4.685 7.357-9.352 11-14zM390.5 498.5a70.72 70.72 0 0 1 13 11.5 140.163 140.163 0 0 1-12.5 15.5 394.54 394.54 0 0 1-12.5-12 127.827 127.827 0 0 0 12-15zM708.5 498.5c6.258 3.591 11.592 8.257 16 14a37.616 37.616 0 0 1-8 9 71.61 71.61 0 0 1-15-13c2.384-3.369 4.717-6.703 7-10zM769.5 499.5a126.884 126.884 0 0 1 11 8.5 14.705 14.705 0 0 0 4 5 86.642 86.642 0 0 1-10.5 11.5 64.696 64.696 0 0 1-14.5-12.5 60.906 60.906 0 0 1 10-12.5zM286.5 501.5c5.203 2.856 9.869 6.523 14 11l-11 13c-.886.825-1.219 1.825-1 3-1.175.219-2.175-.114-3-1a181.703 181.703 0 0 0-11-11.5 83.147 83.147 0 0 1 12-14.5zM667.5 510.5a95.291 95.291 0 0 1 16 12.5L671 537.5a138.27 138.27 0 0 0-14.5-13.5 416.81 416.81 0 0 0 11-13.5zM332.5 511.5c4.827 2.938 9.161 6.605 13 11a64.748 64.748 0 0 1-13 14 188.394 188.394 0 0 1-13-10.5 274.922 274.922 0 0 1 13-14.5zM697.5 511.5c1.984-.117 3.65.55 5 2l12 11a197.842 197.842 0 0 1-11.5 12 95.074 95.074 0 0 1-15.5-13.5c3.916-3.41 7.249-7.243 10-11.5zM726.5 514.5a94.353 94.353 0 0 1 16 12.5 71.083 71.083 0 0 0-9.5 10.5 138.27 138.27 0 0 1-14.5-13.5c3.254-2.747 5.92-5.914 8-9.5zM301.5 515.5a4.934 4.934 0 0 1 3 .5c3.542 3.71 7.208 7.21 11 10.5a286.258 286.258 0 0 0-13.5 15 60.232 60.232 0 0 1-12.5-11 125.631 125.631 0 0 0 12-15zM785.5 515.5c1.478-.262 2.811.071 4 1a267.79 267.79 0 0 1 14 13.5 85.933 85.933 0 0 1-10.5 11.5 160.524 160.524 0 0 1-15.5-14.5 129.138 129.138 0 0 0 8-11.5zM375.5 516.5a55.609 55.609 0 0 1 13 12 234.057 234.057 0 0 1-14 15c-4.026-3.695-8.026-7.362-12-11 4.357-5.352 8.69-10.686 13-16zM270.5 519.5a4.934 4.934 0 0 1 3 .5l11 10.5c-3.932 6.766-9.098 12.433-15.5 17a194.412 194.412 0 0 1-11.5-12 2409.636 2409.636 0 0 1 13-16zM685.5 525.5a157.337 157.337 0 0 1 16 14c-4 4.667-8.333 9-13 13a138.291 138.291 0 0 1-15-13 116.819 116.819 0 0 0 12-14zM715.5 526.5a105.353 105.353 0 0 1 10 7.5 21.365 21.365 0 0 1 5 6 196.428 196.428 0 0 1-11 12.5 119.703 119.703 0 0 1-13-13 122.845 122.845 0 0 0 9-13zM316.5 528.5a79.801 79.801 0 0 1 9 6.5 146.825 146.825 0 0 1 4 5 64.696 64.696 0 0 1-12.5 14.5 196.428 196.428 0 0 1-12.5-11 68.014 68.014 0 0 0 12-15zM743.5 529.5a79.801 79.801 0 0 1 9 6.5 29.768 29.768 0 0 1 6 7 55.89 55.89 0 0 1-8 9.5 218.135 218.135 0 0 1-15-13 56.72 56.72 0 0 0 8-10zM286.5 532.5a101.97 101.97 0 0 1 13 11 180.487 180.487 0 0 1-15 17 2133.459 2133.459 0 0 1-12-11 298.454 298.454 0 0 0 14-17zM813.5 558.5c-2.882-.108-5.215-1.274-7-3.5a78.14 78.14 0 0 1-10-11 81.848 81.848 0 0 1 10-11.5 3674.368 3674.368 0 0 1 16 15 69.875 69.875 0 0 0-9 11zM371.5 549.5a3705.514 3705.514 0 0 0-12 11 101.669 101.669 0 0 1-13-11 262.74 262.74 0 0 0 13.5-14c5.107 2.772 9.274 6.605 12.5 11.5-.752.671-1.086 1.504-1 2.5zM253.5 538.5c5.505 2.994 10.171 6.994 14 12a85.436 85.436 0 0 1-15 16 71.19 71.19 0 0 1-13-11.5 314.872 314.872 0 0 0 14-16.5zM733.5 541.5a95.716 95.716 0 0 1 15 13.5 102.278 102.278 0 0 1-11.5 12.5 138.984 138.984 0 0 1-14.5-13.5 316.748 316.748 0 0 1 11-12.5zM702.5 542.5c6.109 2.424 11.109 6.424 15 12a55.546 55.546 0 0 1-12 13 55.546 55.546 0 0 1-13-12 97.724 97.724 0 0 1 10-13zM761.5 544.5l16 15a75.78 75.78 0 0 1-6 8.5c-1.333.667-2.667.667-4 0a89.376 89.376 0 0 1-14-13.5 56.72 56.72 0 0 0 8-10zM301.5 546.5a100.998 100.998 0 0 1 13 11 3674.368 3674.368 0 0 1-15 16 47.06 47.06 0 0 1-12-11 157.337 157.337 0 0 0 14-16zM269.5 552.5c4.563 3.216 8.896 6.882 13 11a70.628 70.628 0 0 1-15.5 16 161.298 161.298 0 0 1-11.5-10c4.69-5.686 9.357-11.353 14-17zM344.5 552.5c4.713 3.202 9.047 7.035 13 11.5a436.24 436.24 0 0 0-13.5 14.5 97.648 97.648 0 0 1-12.5-10.5 293.11 293.11 0 0 1 13-15.5zM720.5 556.5a139.434 139.434 0 0 0 15 13 98.203 98.203 0 0 1-13 14 269.816 269.816 0 0 1-14-13.5c3.894-4.72 7.894-9.22 12-13.5zM749.5 557.5a4.934 4.934 0 0 1 3 .5l14 14c-2.45 4.784-5.95 8.617-10.5 11.5a157.834 157.834 0 0 1-15.5-14c3.024-4.018 6.024-8.018 9-12zM780.5 562.5a85.017 85.017 0 0 1 16 15 75.568 75.568 0 0 1-8 9 109.851 109.851 0 0 1-16-14.5 108.996 108.996 0 0 1 8-9.5zM283.5 566.5a4.934 4.934 0 0 1 3 .5l10 10a157.97 157.97 0 0 1-13.5 16.5 194.457 194.457 0 0 1-12.5-11 2409.636 2409.636 0 0 1 13-16zM328.5 570.5c5.199 2.523 9.532 6.19 13 11a3674.368 3674.368 0 0 1-15 16 178.557 178.557 0 0 0-12-10.5 321.679 321.679 0 0 0 14-16.5zM737.5 571.5c5.667 4.668 11 9.668 16 15a103.14 103.14 0 0 1-11.5 14 355.547 355.547 0 0 1-16.5-15c3.998-4.658 7.998-9.324 12-14zM776.5 601.5c-6.166-4.279-11.833-9.279-17-15a59.693 59.693 0 0 1 10.5-12l12.5 10.5c1.624 1.117 2.624 2.617 3 4.5a6465.492 6465.492 0 0 0-9 12zM311.5 589.5a100.622 100.622 0 0 1 13 11 125.48 125.48 0 0 1-15.5 17 89.99 89.99 0 0 0-11.5-10.5c4.5-5.997 9.167-11.83 14-17.5zM755.5 589.5c6.348 3.833 12.014 8.666 17 14.5-3.083 5.088-6.917 9.588-11.5 13.5a319.413 319.413 0 0 0-16.5-14c3.745-4.729 7.412-9.395 11-14zM393.5 707.5a142.215 142.215 0 0 1 30 4.5 329.465 329.465 0 0 1 26 12 530.933 530.933 0 0 0 38 22c26.315 7.883 52.148 8.05 77.5.5l1 1a335.341 335.341 0 0 0 55.5-28.5c26.879-13.963 54.212-14.629 82-2a429.16 429.16 0 0 0 53 30c21.846 8.368 44.179 9.702 67 4a109.302 109.302 0 0 1 14-4 722.18 722.18 0 0 0 55-29c27.687-11.763 54.687-10.43 81 4a298.806 298.806 0 0 0 58 30 101.707 101.707 0 0 0 19 3.5c-2.71 14.958-7.05 29.291-13 43a643.02 643.02 0 0 0-19-6.5 2036.532 2036.532 0 0 1-53-30c-23.433-8.651-47.099-8.651-71 0a1269.2 1269.2 0 0 1-60 31c-17.098 4.736-34.432 6.736-52 6a121.939 121.939 0 0 1-29-9 1836.241 1836.241 0 0 0-56-31c-19.584-6.37-39.584-7.037-60-2a1240.457 1240.457 0 0 0-66.5 33.5c-28.287 9.335-56.454 9.168-84.5-.5a609.459 609.459 0 0 1-36-21 278.547 278.547 0 0 0-30-13c-15.801-3.49-31.301-3.323-46.5.5-18.276 6.564-36.11 15.73-53.5 27.5a183.885 183.885 0 0 1-35 13c-20.31 3.099-39.977.765-59-7a492.609 492.609 0 0 1-36-22 293.499 293.499 0 0 0-30-12c-18.786-4.363-37.119-3.03-55 4a967.527 967.527 0 0 0-52 28 167.31 167.31 0 0 1-23 8.5c-5.179-13.543-8.512-27.377-10-41.5a177.187 177.187 0 0 0 30-9 987.492 987.492 0 0 0 48-27c19.243-10.781 39.576-13.447 61-8 19.458 6.695 37.458 16.029 54 28 37.663 19.89 74.996 19.223 112-2a271.744 271.744 0 0 1 50-26 920.738 920.738 0 0 0 18-3.5z"/><path style="opacity:1" fill="#0761bb" d="M123.5 757.5c9.339-.166 18.673 0 28 .5 1.718.346 3.385.846 5 1.5a3.647 3.647 0 0 0 1.5-1c20.189 7.316 38.689 16.816 55.5 28.5a15.024 15.024 0 0 0 8 2.5c-.381 2.442.286 3.109 2 2a131.522 131.522 0 0 0 27 10c11.06-.02 22.06-.02 33 0a2434.237 2434.237 0 0 1 16-5c5.24-1.598 10.574-3.931 16-7a3.647 3.647 0 0 1 1.5 1c18.504-12.6 37.338-22.767 56.5-30.5 7.932-1.51 16.266-2.343 25-2.5 15.662-.941 29.829 3.059 42.5 12l1-1c1.864 1.464 4.031 2.464 6.5 3 8.606 5.645 17.273 11.311 26 17 27.178 12.72 55.512 15.553 85 8.5 10.032-2.528 19.366-6.362 28-11.5a3.647 3.647 0 0 1 1.5 1 615.402 615.402 0 0 0 19.5-12.5c12.577-6.945 25.91-12.279 40-16 21.45-3.738 41.45-.238 60 10.5 16.58 10.562 34.246 20.062 53 28.5 7.188 1.425 14.021 3.592 20.5 6.5 4-1.333 8-1.333 12 0l1.5-1.5c16.858-.024 32.691-3.191 47.5-9.5a4729.857 4729.857 0 0 0 55.5-28.5c11.438-4.07 23.105-5.904 35-5.5 16.866.119 31.866 5.286 45 15.5 9.145 4.312 17.645 9.479 25.5 15.5 1.23 1.115 2.4 1.115 3.5 0 9.06 5.415 18.73 9.582 29 12.5-2.96 11.839-6.79 23.673-11.5 35.5a4.486 4.486 0 0 1-1.5 2 244.59 244.59 0 0 1-37-19.5c-25.515-19.001-54.515-23.668-87-14a107.211 107.211 0 0 0-27 15c-12.877 5.944-25.211 11.944-37 18a324.822 324.822 0 0 1-45.5 7.5c-25.318-4.057-48.485-13.89-69.5-29.5a4436.91 4436.91 0 0 1-19-11c-6.068-1.24-11.734-3.406-17-6.5-11.597-.023-23.264.144-35 .5a198.827 198.827 0 0 0-9.5 2.5 3.943 3.943 0 0 1-2-1 91.294 91.294 0 0 1-17 8 1687.281 1687.281 0 0 1-29.5 17c-1.465-1.109-2.465-.609-3 1.5-6.139 2.257-11.805 5.257-17 9-23.107 6.791-46.774 8.124-71 4a168.586 168.586 0 0 0-15-5 1227.765 1227.765 0 0 0-53-30c-22.226-8.223-44.559-8.556-67-1a2188.229 2188.229 0 0 0-55 30 155.093 155.093 0 0 1-21.5 7.5 6.293 6.293 0 0 1-3-1c-29.279 5.879-55.779.213-79.5-17-.886-.825-1.219-1.825-1-3-3.005.247-5.505-.753-7.5-3-1.557.705-2.723.039-3.5-2-6.833-2.926-13.166-5.926-19-9-2.029 1.129-2.363.629-1-1.5-19.121-6.754-38.454-8.088-58-4a200.295 200.295 0 0 1-15 6 2280.9 2280.9 0 0 1-56 30.5 343.737 343.737 0 0 1-14-36.5l1-1.5a391.772 391.772 0 0 0 29-12 1284.875 1284.875 0 0 1 37-21.5c8.377-3.64 16.71-6.807 25-9.5z"/><path style="opacity:1" fill="#edeeed" d="M132.5 802.5c8.943.148 17.943.982 27 2.5 10.03 4.351 20.03 8.684 30 13 14.155 10.412 29.488 18.746 46 25 30.594 8.838 59.594 5.505 87-10a454.188 454.188 0 0 1 43-24c19.764-7.812 39.764-8.479 60-2a26842.48 26842.48 0 0 1 20 9 300.854 300.854 0 0 0 50 27c31.252 6.64 61.586 3.307 91-10a628.92 628.92 0 0 1 50-26c25.046-7.685 49.046-5.351 72 7 16.846 11.402 34.179 21.069 52 29 28.128 7.654 55.795 6.321 83-4a594.904 594.904 0 0 0 42-23c23.756-12.483 48.422-14.816 74-7a4327.616 4327.616 0 0 1 63 35 220.655 220.655 0 0 1-15 32.5 403.372 403.372 0 0 0-48-26.5c-19.991-5.854-39.658-5.854-59 0a2954.95 2954.95 0 0 0-63 33c-14.173 4.272-28.507 6.772-43 7.5-22.827-1.293-43.66-8.627-62.5-22l-1 1c-.93-2.052-2.43-3.552-4.5-4.5-7.177-4.168-14.344-8.335-21.5-12.5-22.593-9.902-45.76-11.402-69.5-4.5a8624.819 8624.819 0 0 0-36 18c-33.617 22.605-70.117 28.105-109.5 16.5a670.983 670.983 0 0 1-47.5-27.5 243 243 0 0 0-28.5-10.5 633.445 633.445 0 0 0-31.5.5c-8.084 1.141-15.751 3.474-23 7a19119.504 19119.504 0 0 1-57 31.5c-27.641 9.396-54.974 7.563-82-5.5a509.917 509.917 0 0 0-47-27c-24.21-8.909-48.21-8.576-72 1A804.638 804.638 0 0 1 61 873.5a330.005 330.005 0 0 1-14.5-31 2715.477 2715.477 0 0 1 62-34.5c7.903-2.81 15.903-4.643 24-5.5z"/><path style="opacity:1" fill="#0761bb" d="M125.5 847.5c16.313-.607 31.98 1.559 47 6.5a10718.774 10718.774 0 0 0 54 31c9.508 2.834 19.008 5.668 28.5 8.5 13.043.442 26.543-1.058 40.5-4.5a155.411 155.411 0 0 0 22-9 361.782 361.782 0 0 1 58-30c17.981-4.047 35.647-3.047 53 3 6.65 2.999 13.317 5.999 20 9 18.047 13.716 38.047 23.383 60 29 11.933.37 23.766.536 35.5.5a232.425 232.425 0 0 1 29.5-6.5l-1-1c9.668-3.817 18.334-8.484 26-14 2.02-1.217 4.02-1.383 6-.5a24.23 24.23 0 0 1 7-6.5 231.285 231.285 0 0 1 22.5-10.5c1.049 1.017 2.216 1.184 3.5.5l-2-1c28.603-8.869 54.936-5.535 79 10 1.82.979 2.987 2.479 3.5 4.5a3.647 3.647 0 0 1 1.5-1l9 4.5c29.035 22.131 62.035 28.465 99 19a274.77 274.77 0 0 0 14.5-5.5l1 1a609.387 609.387 0 0 1 66-34c.414.457.914.791 1.5 1a96.13 96.13 0 0 1 13.5-3 320.245 320.245 0 0 0 23.5 1.5c2.715.098 5.215 1.265 7.5 3.5a3.647 3.647 0 0 1 1.5-1c11.369 3.532 21.703 9.032 31 16.5 7.086 2.742 13.42 6.742 19 12a655.113 655.113 0 0 1-38.5 70.5c-28.222 37.9-59.722 73.07-94.5 105.5a407.236 407.236 0 0 0-37 31c-32.107 24.06-67.107 43.06-105 57-51.079 16.85-103.412 28.18-157 34-106.201 5.86-205.868-16.47-299-67a636.57 636.57 0 0 1-78-55c-19.113-19.11-38.279-38.28-57.5-57.5a429.378 429.378 0 0 1-51-69 1829.94 1829.94 0 0 1-26-51c-.75-1.135-.583-2.135.5-3a1358.457 1358.457 0 0 0 37-20.5 207.985 207.985 0 0 1 25-8.5z"/><path style="opacity:1" d="M509.5 1029.5a28.611 28.611 0 0 0-7-3c.17-1.32-.163-2.49-1-3.5-6.674-.21-13.341.12-20 1-3.376.31-4.71 2.14-4 5.5-2.437.26-4.771.92-7 2a8.17 8.17 0 0 0-4-2.5 26.393 26.393 0 0 0-2-3.5c-.925-1.14-1.759-1.14-2.5 0a8.43 8.43 0 0 1-.5-4c-2.699.03-5.199-.63-7.5-2-6.981.43-14.148.43-21.5 0-.724 2.95-.557 5.95.5 9 .667 6.33.667 12.67 0 19a52.42 52.42 0 0 0-4.5 13c-1.122 1.13-2.456 1.8-4 2-3.82 2.82-8.153 3.66-13 2.5-9.291-4.94-17.791-11.11-25.5-18.5a125.192 125.192 0 0 0-12-15 131.262 131.262 0 0 1-12.5-22.5c-3.725-.76-7.392-.59-11 .5-2.931-2.8-6.931-4.8-12-6-9.264 1.27-18.597.27-28-3-1.91 1.05-3.744 1.05-5.5 0-.333.67-.667 1.33-1 2-3.129-.63-6.296-1.3-9.5-2-.615-1.884-1.948-2.884-4-3-8.179.142-16.513.142-25 0-.426 5.94-.426 12.1 0 18.5-1.188 2.97-2.522 2.8-4-.5.789-.28 1.456-.78 2-1.5-1.261-3.29-1.261-6.62 0-10a59.036 59.036 0 0 1-1.5-7.5c-1.356-.88-2.856-1.214-4.5-1a98.179 98.179 0 0 0 3 18h-3c-.474-6.68-2.141-13.01-5-19a3.647 3.647 0 0 0-1.5 1 101.215 101.215 0 0 0-18.5-6.5l-15-8.5c-2.839-4.414-1.506-7.247 4-8.5 18.017-1.698 34.683-6.365 50-14 2.995-2.475 5.328-5.308 7-8.5a412.138 412.138 0 0 0 8-5c9.17 1.816 17.67.483 25.5-4l1 1 5-4c.414.457.914.791 1.5 1a103.59 103.59 0 0 1 12-6.5c7.085-.89 14.085-.557 21 1a89.634 89.634 0 0 0 18.5-7.5c11.054 6.903 21.721 6.236 32-2a134.847 134.847 0 0 1 12 5c2-1.333 4-1.333 6 0a89.89 89.89 0 0 0 8.5-2 22.598 22.598 0 0 1 8-4c11.32 6.529 23.153 7.862 35.5 4a30.383 30.383 0 0 1 5-3 3772.14 3772.14 0 0 1 13.5 9.5 48.47 48.47 0 0 0 19.5-1.5 9.62 9.62 0 0 1 4.5 1.5c7.964 7.413 16.964 8.58 27 3.5a10.91 10.91 0 0 0 5 4.5c3.921.203 7.755.703 11.5 1.5 2.316-.996 4.65-1.996 7-3 2.437 1.3 4.937 2.3 7.5 3v3a141.472 141.472 0 0 0 25 2.5c3.968 6.261 8.801 7.095 14.5 2.5.414.457.914.791 1.5 1a1959.993 1959.993 0 0 1 44-30.5 146.764 146.764 0 0 1 26-10.5l1 3.5c-6.169 18.296-3.502 35.296 8 51-3.129.117-4.295 1.617-3.5 4.5l1-1a29.517 29.517 0 0 0 4.5 2.5c9.698 1.447 19.032 3.114 28 5 12.622 2.659 24.955 2.659 37 0a159.136 159.136 0 0 0 23-13c17.845-15.792 36.178-29.959 55-42.5 7.622-3.14 15.288-6.307 23-9.5a43.233 43.233 0 0 1 16 .5 2383.875 2383.875 0 0 0-63.5 79c-1.291 7.998-.291 15.66 3 23a822.994 822.994 0 0 1 12.5 23.5c-.255 1.33-.922 2.33-2 3-7.771 2.17-15.438 1.84-23-1a917.445 917.445 0 0 1-23-10.5c-9.342-8.01-19.675-14.51-31-19.5-11.567-2.94-22.9-4.44-34-4.5-7.721 1.86-7.388 3.36 1 4.5 1.857 1.18 2.857 2.85 3 5a305.036 305.036 0 0 0-5.5 38.5c-.796 2.47-2.463 3.8-5 4a394.496 394.496 0 0 1-17.5-7.5c-4.994-3.32-9.994-6.66-15-10-7.677-7.68-15.344-15.34-23-23-4.455-1.91-9.121-2.74-14-2.5-6.368.41-12.702 1.07-19 2a147.814 147.814 0 0 0-2 24c.392 4.71.392 9.21 0 13.5.667.33 1.333.67 2 1-.237 2.29-.237 4.79 0 7.5-2.687.16-5.354 0-8-.5-17.772-8.77-32.105-21.44-43-38a41.292 41.292 0 0 0-5.5-2.5c-2.055 1.19-4.055 1.19-6 0-2.946 2.28-4.613 5.28-5 9-3.874-1.37-7.708-3.54-11.5-6.5-3.333-.17-6.667-.33-10-.5-3.767.05-7.267.71-10.5 2-.333-.33-.667-.67-1-1-2.768 3.44-6.101 6.11-10 8-1.03-.34-1.53-1-1.5-2z"/><path style="opacity:1" fill="#edeeed" d="M681.5 912.5c1.149.291 1.816 1.124 2 2.5a15.973 15.973 0 0 1-2 6c-22.674 7.702-42.507 19.868-59.5 36.5a95.39 95.39 0 0 1-10.5-2.5 849.309 849.309 0 0 0 46-31 132.015 132.015 0 0 1 24-11.5z"/><path style="opacity:1" fill="#edeeed" d="M864.5 912.5a21.127 21.127 0 0 1 9 1 806.605 806.605 0 0 0-45 55.5c-4.041.162-8.041-.338-12-1.5a4.457 4.457 0 0 1 1.5-2c3.455 1.291 6.955 1.291 10.5 0-2.837-1.307-5.503-2.14-8-2.5a4.457 4.457 0 0 1 2-1.5c3.147 1.475 6.147 1.308 9-.5a38.085 38.085 0 0 0-7-2.5c3.264.251 6.264-.083 9-1-1.324-1.435-2.99-2.435-5-3 2.382.355 4.716-.311 7-2l-4-2 6-2a6.802 6.802 0 0 0-3-1.5c1.785-1.163 3.785-1.83 6-2-2.339-2.269-1.672-3.769 2-4.5a3.647 3.647 0 0 0-1-1.5 25.513 25.513 0 0 0 4-4.5c-.865-1.083-1.865-1.249-3-.5a1965.86 1965.86 0 0 1-51 55 94.102 94.102 0 0 1-13 10 30.2 30.2 0 0 1-10 3c-10.825.09-21.658-.08-32.5-.5-8.792-.2-17.459.47-26 2a3.627 3.627 0 0 0-1.5-1 5162.986 5162.986 0 0 0-87 11 52.003 52.003 0 0 0-9-3c-6.109 1.06-11.775 3.22-17 6.5-12.096 1.2-24.429 1.53-37 1a6.575 6.575 0 0 0-3-3c-4.49-2.13-9.156-1.8-14 1a13.892 13.892 0 0 0-3 4c-2.667.17-5.333.33-8 .5-6.667-1.67-13.333-3.33-20-5a39.374 39.374 0 0 1-7 1.5c-2.177 1.51-4.344 3.01-6.5 4.5-2.681-1.28-5.681-1.28-9 0-1.5-.17-3-.33-4.5-.5-2.489-3.84-5.989-6.34-10.5-7.5a62.678 62.678 0 0 1-10.5 1.5 17.785 17.785 0 0 0-5.5 4.5c-8.448-1.22-16.948-2.39-25.5-3.5a51.33 51.33 0 0 0-9-8 1622.026 1622.026 0 0 1-30-7c-4.337-2.949-6.837-7.115-7.5-12.5l-3-2c.186 3.984.186 7.984 0 12-5.532 5.88-9.366 4.88-11.5-3 2.882-7.488 2.549-14.821-1-22 3.496-6.713 2.496-12.547-3-17.5-4.184-1.165-7.017.335-8.5 4.5a18.08 18.08 0 0 0-3.5-2 18.535 18.535 0 0 1-4 5c-12.008-5.659-19.008-1.826-21 11.5 1.966 9.288 7.632 12.955 17 11 5.809-2.11 8.809-6.276 9-12.5-.857-2.671-1.357-5.337-1.5-8 6.105 8.79 5.771 17.457-1 26-11.637 11.96-24.803 14.46-39.5 7.5-1.723-.523-3.056-1.523-4-3 .06-10.984 2.894-21.15 8.5-30.5 2.123-2.799 4.79-4.799 8-6 .432-1.1-.068-1.767-1.5-2-5.547 2.69-10.047 6.69-13.5 12a777.409 777.409 0 0 1-6.5 29.5c-4.805 1.47-8.472.141-11-4-13.378.9-26.711.233-40-2a146.382 146.382 0 0 1-13-4 304.55 304.55 0 0 0 41.5 4.5c6.443-.213 12.61-1.546 18.5-4 1.114-1.223 1.281-2.556.5-4a33.27 33.27 0 0 1-8.5 3.5c-22.227 2.143-44.227-.19-66-7-3.37-1.346-6.37-3.179-9-5.5a445.02 445.02 0 0 0 45-11.5 45.11 45.11 0 0 0 14-8c8.984.124 16.317-3.21 22-10a62.686 62.686 0 0 0 16-4.5c11.153 5.576 20.819 3.409 29-6.5 4-.667 8-.667 12 0 5.795 2.317 11.795 2.984 18 2a895.928 895.928 0 0 1 13.5-5.5 82.617 82.617 0 0 1 9.5 3.5c4.333.667 8.667.667 13 0 2.894-3.397 6.56-5.23 11-5.5a122.912 122.912 0 0 0 17.5 5 33.816 33.816 0 0 0 8.5-1.5c4.444-4.008 9.444-4.675 15-2 8.603 7.57 17.77 8.403 27.5 2.5l6 2c1.919 2.58 4.419 4.413 7.5 5.5 6.221 1.02 12.221.52 18-1.5a287.486 287.486 0 0 1 19.5 8 33.994 33.994 0 0 0 12-4c3.233 3.556 7.067 6.389 11.5 8.5 2.333.667 4.667.667 7 0a98.965 98.965 0 0 0 8.5-3.5l2.5.5c1.333 2.667 3.333 4.667 6 6 5.076 1.009 9.909.509 14.5-1.5 1.171.84 2.338 1.673 3.5 2.5a3865.276 3865.276 0 0 0 131 23c11.01 1.392 21.677.058 32-4a315.4 315.4 0 0 0 41-32 613.084 613.084 0 0 1 35-24 246.62 246.62 0 0 1 20-7.5z"/><path style="opacity:1" fill="#edeeed" d="M436.5 924.5a8.43 8.43 0 0 1 4 .5 14.587 14.587 0 0 0 6 4 7.293 7.293 0 0 1-3 2c-5.545 2.453-10.545 1.787-15-2 2.948-1.237 5.615-2.737 8-4.5zM678.5 924.5h3c.028 2.082-.639 3.916-2 5.5-11.452 3.393-22.118 8.393-32 15a85.286 85.286 0 0 1-17.5 13.5l-2.5-1c14.541-14.772 31.541-25.772 51-33zM402.5 925.5a28.53 28.53 0 0 1 9 4.5 8.905 8.905 0 0 1-4 3 25.238 25.238 0 0 1-10 0c-1.456-.423-1.956-1.256-1.5-2.5a29.914 29.914 0 0 0 6.5-5zM478.5 926.5c2.907 1.234 5.241 3.234 7 6-6.733 3.119-13.066 2.619-19-1.5 4.063-1.508 8.063-3.008 12-4.5zM368.5 928.5c3.274.135 6.274 1.135 9 3-5.45 4.099-11.45 4.933-18 2.5 3.365-1.344 6.365-3.177 9-5.5zM510.5 932.5c8.153 3.912 7.82 6.245-1 7-3.291.424-5.958-.576-8-3 3.339-.895 6.339-2.228 9-4zM331.5 933.5c2.301.56 4.634 1.06 7 1.5-5.232 7.132-11.898 9.299-20 6.5 4.89-1.936 9.224-4.603 13-8z"/><path style="opacity:1" fill="#edeeed" d="M676.5 933.5h4c.214 1.644-.12 3.144-1 4.5a89.78 89.78 0 0 0-22 9 357.037 357.037 0 0 0-18 12.5c-1.432-.233-1.932-.9-1.5-2 11.229-10.76 24.062-18.76 38.5-24zM540.5 938.5a11.105 11.105 0 0 1 4.5 3c.456 1.244-.044 2.077-1.5 2.5-4.033 1.04-7.699.374-11-2 2.976-.705 5.642-1.871 8-3.5zM677.5 941.5h3v4c-5.351.434-10.351 1.934-15 4.5a131.744 131.744 0 0 0-16 11c-1.444.781-2.777.614-4-.5 9.525-8.423 20.192-14.756 32-19zM564.5 942.5c3.421.878 6.421 2.544 9 5-5.847 3.149-11.181 2.483-16-2a49.58 49.58 0 0 0 7-3zM284.5 946.5a55.146 55.146 0 0 0 9 1.5 128.579 128.579 0 0 1-11.5 5.5l-1.5-1c1.778-1.764 3.111-3.764 4-6zM677.5 948.5h5v4c-8.233 1.617-15.567 5.117-22 10.5-2.053.325-4.053-.009-6-1 6.841-6.081 14.508-10.581 23-13.5zM586.5 949.5c2.805 1.264 5.638 1.264 8.5 0 2.965-.062 3.798 1.105 2.5 3.5a16.242 16.242 0 0 1-8 0c-1.926-.422-2.926-1.589-3-3.5z"/><path style="opacity:1" d="M376.5 952.5c2.763.244 4.929 1.577 6.5 4 3.504 4.929 3.837 9.929 1 15-3.6 2.854-6.6 2.187-9-2-3.731-6.139-3.231-11.805 1.5-17zM394.5 953.5c6.875 3.817 9.042 9.483 6.5 17-3.882 6.288-7.548 5.955-11-1a30.485 30.485 0 0 1 0-11c1.025-2.187 2.525-3.854 4.5-5z"/><path style="opacity:1" fill="#edeeed" d="M377.5 954.5c5.577 3.515 7.41 8.515 5.5 15-2.796 2.483-4.963 1.817-6.5-2 1.935-.568 3.268-1.735 4-3.5a736.795 736.795 0 0 0-5-6.5 185.977 185.977 0 0 0 2-3zM682.5 954.5c2.775.334 3.441 1.667 2 4a45.808 45.808 0 0 0-11 6.5c-2.966.895-5.633.395-8-1.5 5.341-3.834 11.007-6.834 17-9zM392.5 956.5c6.026 1.708 8.193 5.708 6.5 12-1.443 4.868-3.61 5.202-6.5 1 4.862-2.111 5.195-4.778 1-8-.952-1.545-1.285-3.212-1-5z"/><path style="opacity:1" d="M409.5 956.5c5.402-.105 8.569 2.562 9.5 8 2.305 5.183 1.805 10.016-1.5 14.5-4.082 1.293-7.249.126-9.5-3.5a162.835 162.835 0 0 1-2.5-10 86.761 86.761 0 0 1 4-9zM427.5 957.5c5.993 1.249 9.826 4.916 11.5 11 .998 4.857.165 9.357-2.5 13.5-4.527.65-7.694-1.184-9.5-5.5-2.751-6.316-2.584-12.649.5-19z"/><path style="opacity:1" fill="#edeeed" d="M363.5 958.5c2.501.326 3.668 1.659 3.5 4a29.517 29.517 0 0 0-4.5-2.5c.556-.383.889-.883 1-1.5zM410.5 958.5c3.879 1.706 6.379 4.706 7.5 9 .893 3.416.393 6.583-1.5 9.5-1.333.667-2.667.667-4 0a13.92 13.92 0 0 0-3-4c2.17-.811 3.837-2.145 5-4a1025.04 1025.04 0 0 1-5-7 10.98 10.98 0 0 1 1-3.5zM428.5 960.5c4.219 1.048 7.053 3.715 8.5 8a26.558 26.558 0 0 1-1.5 10.5c-2.594.449-4.594-.551-6-3 5.473-4.01 4.973-7.51-1.5-10.5-.384-1.697-.218-3.363.5-5z"/><path style="opacity:1" d="M444.5 960.5c9.248 3.81 13.415 10.81 12.5 21-2.462 7.116-6.129 7.782-11 2-4.716-7.614-5.216-15.281-1.5-23z"/><path style="opacity:1" fill="#edeeed" d="M685.5 960.5c4.651 1.46 4.984 3.626 1 6.5-3.206.89-6.206.557-9-1a57.674 57.674 0 0 1 8-5.5z"/><path style="opacity:1" d="M288.5 961.5c6.244-1.253 9.911 1.247 11 7.5-2.889 7.178-7.389 8.345-13.5 3.5-2.408-4.466-1.575-8.133 2.5-11z"/><path style="opacity:1" fill="#edeeed" d="M375.5 961.5c3.797 1.411 3.797 2.411 0 3v-3zM362.5 962.5c2.637 1.654 2.303 2.154-1 1.5.556-.383.889-.883 1-1.5zM289.5 963.5c7.128.206 8.794 3.373 5 9.5-3.678.828-6.345-.506-8-4 .395-2.248 1.395-4.082 3-5.5zM339.5 963.5c10.477-.351 14.644 4.649 12.5 15-4.568 5.68-10.068 6.513-16.5 2.5a6.978 6.978 0 0 1-2.5-3.5c-1.964-6.414.203-11.08 6.5-14zM391.5 963.5a7.47 7.47 0 0 1 3 2c-1.896 1.139-2.896.473-3-2zM446.5 963.5c7.006 4.882 9.506 11.548 7.5 20-1.667 1.333-3.333 1.333-5 0-1.559-1.717-2.392-3.717-2.5-6 2.448.49 4.115-.343 5-2.5-1.487-2.821-3.654-4.987-6.5-6.5-.613-1.995-.113-3.662 1.5-5z"/><path style="opacity:1" d="M291.5 965.5c3.763.738 4.763 2.738 3 6-1.644.214-3.144-.12-4.5-1 .487-1.544.987-3.21 1.5-5z"/><path style="opacity:1" fill="#edeeed" d="M358.5 966.5c.06-.543.393-.876 1-1 8.578 8.213 11.078 17.879 7.5 29-3.238 3.063-5.404 6.73-6.5 11-3.622 1.16-7.289 1.33-11 .5a14.857 14.857 0 0 1-4-3.5c11.651-7.136 16.817-17.469 15.5-31a38.715 38.715 0 0 0-2.5-5zM367.5 965.5c.965 1.221.798 2.554-.5 4-1.93-1.577-1.763-2.91.5-4zM408.5 967.5c1.349-1.297 2.682-1.13 4 .5-1.428.579-2.762.412-4-.5z"/><path style="opacity:1" d="M462.5 967.5c10.567 2.041 15.067 8.707 13.5 20-2.547 5.737-6.047 6.737-10.5 3-5.032-7.183-6.032-14.85-3-23z"/><path style="opacity:1" fill="#edeeed" d="M428.5 968.5c2.545.938 3.045 2.271 1.5 4-1.188-1.063-1.688-2.397-1.5-4z"/><path style="opacity:1" d="M481.5 968.5c12.288 1.919 17.121 8.919 14.5 21a21.741 21.741 0 0 1-6.5 7c-7.089-4.207-10.422-10.541-10-19a29.475 29.475 0 0 1 2-9zM506.5 968.5c3.647.122 6.481 1.788 8.5 5 6.024 7.14 5.857 13.973-.5 20.5-3.04 2.155-5.873 1.988-8.5-.5-3.093-6.349-4.093-13.015-3-20 .257-2.407 1.424-4.073 3.5-5z"/><path style="opacity:1" fill="#edeeed" d="M483.5 970.5c8.09 2.849 11.59 8.515 10.5 17a21.53 21.53 0 0 1-5 6 52.108 52.108 0 0 1-5.5-8 176.05 176.05 0 0 1 8-2.5c1.205-2.234.539-3.901-2-5-2.15-1.411-4.484-2.245-7-2.5-.134-1.792.199-3.458 1-5z"/><path style="opacity:1" d="M524.5 970.5c8.695 1.034 13.362 6.034 14 15-.896 5.229-3.896 8.562-9 10-1.588-.51-2.755-1.51-3.5-3a124.286 124.286 0 0 1-4.5-15c.554-2.587 1.554-4.92 3-7z"/><path style="opacity:1" fill="#edeeed" d="M813.5 970.5a112.22 112.22 0 0 1 12 2 3.647 3.647 0 0 1-1 1.5c-4.211.921-8.211.421-12-1.5.363-.683.696-1.35 1-2zM445.5 971.5c4.941 2.322 4.941 3.488 0 3.5-1.184-1.145-1.184-2.312 0-3.5zM463.5 971.5c7.107 1.749 10.774 6.083 11 13-3.461 7.808-6.461 7.475-9-1 4.487.359 6.154-1.474 5-5.5a60.631 60.631 0 0 1-6.5-3.5 4.934 4.934 0 0 1-.5-3zM506.5 971.5c2.599.049 4.766 1.049 6.5 3a122.583 122.583 0 0 1 4.5 9.5c.042 4.517-2.291 7.684-7 9.5-2.808-1.833-4.142-4.5-4-8 3.298.484 5.964-.516 8-3-2.241-3.375-5.407-5.375-9.5-6-.122-1.782.378-3.448 1.5-5z"/><path style="opacity:1" d="M543.5 971.5c10.139 2.255 14.306 8.588 12.5 19-2.211 4.179-5.377 5.345-9.5 3.5-6.389-6.829-7.389-14.329-3-22.5z"/><path style="opacity:1" fill="#edeeed" d="M525.5 972.5c8.605 3.238 11.772 8.904 9.5 17-3.8 5.051-6.633 4.385-8.5-2a22.226 22.226 0 0 1 6-2.5c1.376-2.54.71-4.54-2-6-1.851-.837-3.684-1.671-5.5-2.5-.579-1.428-.412-2.762.5-4z"/><path style="opacity:1" d="M562.5 972.5c10.484 2.3 14.317 8.633 11.5 19-3.333 5.333-6.667 5.333-10 0-5.324-6.06-5.824-12.394-1.5-19z"/><path style="opacity:1" fill="#edeeed" d="M545.5 973.5c6.52 3.358 9.353 8.691 8.5 16-.667 2-2 3.333-4 4a55.747 55.747 0 0 1-4.5-5.5 22.981 22.981 0 0 1 5-2c1.435-2.267 1.102-4.267-1-6-5.602-.044-6.935-2.211-4-6.5z"/><path style="opacity:1" d="M579.5 973.5c7.703 1.553 11.703 6.386 12 14.5-1.848 7.356-5.681 8.856-11.5 4.5a53.217 53.217 0 0 0-3.5-7.5c.318-2.042.485-4.209.5-6.5l2.5-5z"/><path style="opacity:1" fill="#edeeed" d="M562.5 974.5c8.896 2.814 11.896 8.481 9 17-3.452 1.428-5.785.261-7-3.5 8.265-4.485 7.598-7.319-2-8.5v-5z"/><path style="opacity:1" d="M600.5 974.5c8.522 1.36 12.355 6.36 11.5 15-2.389 6.358-6.055 7.358-11 3-5.216-6.03-5.382-12.03-.5-18zM617.5 975.5c6.465-.043 10.465 3.124 12 9.5.049 2.493-.785 4.993-2.5 7.5-5.906 2.778-9.573.778-11-6-.888-3.902-.388-7.569 1.5-11z"/><path style="opacity:1" fill="#edeeed" d="M809.5 975.5c2.84.62 5.674 1.287 8.5 2 1.297-1.284 2.464-1.117 3.5.5-4.69 2.034-9.356 1.868-14-.5a31.147 31.147 0 0 0 2-2zM601.5 976.5c9.591 4.318 11.091 9.985 4.5 17-1.487-.655-2.653-1.655-3.5-3 8.158-4.71 7.491-7.71-2-9-.134-1.792.199-3.458 1-5z"/><path style="opacity:1" d="M634.5 976.5c8.414 1.993 10.747 6.826 7 14.5-5.096 1.58-8.263-.254-9.5-5.5-1.073-3.6-.24-6.6 2.5-9z"/><path style="opacity:1" fill="#edeeed" d="M463.5 977.5a23.423 23.423 0 0 1 6 2.5c-3.494 2.467-5.494 1.634-6-2.5zM579.5 977.5c2.544-.396 4.711.271 6.5 2 1.901 3.036 3.068 6.37 3.5 10-2.099 3.484-4.599 3.818-7.5 1a4.934 4.934 0 0 1-.5-3c4.768-.131 5.768-1.965 3-5.5-1.525-1.009-3.192-1.509-5-1.5v-3zM619.5 977.5c6.026 1.708 8.193 5.708 6.5 12-2.317 2.682-4.484 2.515-6.5-.5 8.132-3.249 7.965-6.082-.5-8.5-.47-1.077-.303-2.077.5-3z"/><path style="opacity:1" fill="#060606" d="M648.5 977.5c5.266.599 8.266 3.599 9 9-3.094 7.831-6.761 7.998-11 .5-1.689-3.725-1.022-6.891 2-9.5z"/><path style="opacity:1" fill="#edeeed" d="M482.5 978.5c9.041 2.016 9.041 3.016 0 3v-3z"/><path style="opacity:1" d="M662.5 978.5c5.934.105 8.934 2.939 9 8.5-2.843 5.834-6.01 6.001-9.5.5-.634-3.055-.468-6.055.5-9zM677.5 978.5c4.075-.101 6.575 1.899 7.5 6 1.059 3.881-.108 6.881-3.5 9-3.741-1.579-5.741-4.412-6-8.5-.162-2.502.505-4.669 2-6.5z"/><path style="opacity:1" fill="#edeeed" d="M505.5 979.5a13.483 13.483 0 0 1 6 2.5c-3.243 2.196-5.243 1.363-6-2.5zM634.5 979.5c5.733.459 7.733 3.459 6 9-1.189.929-2.522 1.262-4 1 .203-2.138 1.203-3.805 3-5a64.066 64.066 0 0 0-5-5zM648.5 979.5c4.174.571 6.174 3.071 6 7.5-.413 3.717-1.746 4.217-4 1.5 3.522-1.331 3.855-3.164 1-5.5a4.934 4.934 0 0 0-3-.5v-3z"/><path style="opacity:1" d="M695.5 979.5c4.246 2.497 5.746 6.164 4.5 11-2.12 2.58-4.287 2.58-6.5 0-3.158-4.539-2.491-8.206 2-11z"/><path style="opacity:1" fill="#edeeed" d="M525.5 980.5c7.797 1.449 7.797 2.449 0 3v-3zM663.5 980.5c1.89-.203 3.39.463 4.5 2 .814 2.402.647 4.735-.5 7-2.865-2.243-4.198-5.243-4-9zM677.5 980.5c3.095.126 4.928 1.793 5.5 5 .272 6.909-1.562 7.576-5.5 2 .338-2.155.338-4.489 0-7zM804.5 980.5c4.272.913 8.272 1.746 12 2.5-.93.991-2.096 1.491-3.5 1.5a226.481 226.481 0 0 0-8.5-1.5c-1.098-.77-1.098-1.603 0-2.5zM544.5 981.5c1.984-.117 3.65.55 5 2-1.574 1.131-3.241 1.298-5 .5-1.098-.77-1.098-1.603 0-2.5zM563.5 981.5c5.174 1.684 5.174 2.518 0 2.5-1.098-.77-1.098-1.603 0-2.5z"/><path style="opacity:1" d="M707.5 981.5c4.959-.49 7.626 1.844 8 7-2.932 4.766-6.099 5.099-9.5 1-.718-2.907-.218-5.574 1.5-8z"/><path style="opacity:1" fill="#edeeed" d="M694.5 982.5c3.917 1.663 4.75 4.33 2.5 8-2.594-2.272-3.427-4.938-2.5-8zM579.5 984.5c.751-1.073 1.751-1.24 3-.5-.852 1.728-1.852 1.895-3 .5zM600.5 983.5c2.165-.384 3.832.283 5 2-1.545.952-3.212 1.285-5 1v-3zM618.5 983.5c2.483.23 2.983.897 1.5 2-1.03-.336-1.53-1.003-1.5-2zM634.5 984.5c.751-1.073 1.751-1.24 3-.5-.852 1.728-1.852 1.895-3 .5zM708.5 983.5c2.064.262 3.397 1.429 4 3.5-1.39 4.895-3.057 4.561-5-1 .243-.902.577-1.735 1-2.5zM800.5 984.5a117.196 117.196 0 0 0 13 3c-4.306.923-8.639.923-13 0v-3zM795.5 990.5c.235-.597.735-.93 1.5-1a194.798 194.798 0 0 0 12.5 3c-.333 1-1 1.667-2 2-4.308-.492-8.308-1.825-12-4zM791.5 993.5a148.26 148.26 0 0 0 15 4c1.633-1.244 2.633-.744 3 1.5l-1 1.5a55.804 55.804 0 0 1-16-5c-.798-.457-1.131-1.124-1-2zM261.5 1015.5c.172-.99-.162-1.66-1-2a98.179 98.179 0 0 1-3-18c1.644-.214 3.144.12 4.5 1 .339 2.536.839 5.04 1.5 7.5-1.261 3.38-1.261 6.71 0 10-.544.72-1.211 1.22-2 1.5zM787.5 996.5c7.11 3.98 14.777 6.48 23 7.5.667.67 1.333 1.33 2 2-8.589.2-16.589-1.97-24-6.5-.886-.825-1.219-1.825-1-3zM385.5 998.5a29.345 29.345 0 0 0 9 6.5c7.013 1.68 14.347 3.01 22 4 6.793 1.11 10.293 4.95 10.5 11.5-15.242-1.96-28.575-7.96-40-18a10.105 10.105 0 0 1-1.5-4zM366.5 999.5c.806 6.27 1.64 12.6 2.5 19a42.559 42.559 0 0 1-5.5-14 11.96 11.96 0 0 1 3-5zM782.5 1000.5c9.71 5.18 20.043 8.68 31 10.5 2.063 1.57 2.729 3.4 2 5.5-10.55-2.9-20.55-7.07-30-12.5-1.563-.76-2.563-1.93-3-3.5zM776.5 1004.5c.751-1.07 1.751-1.24 3-.5 11.522 7.26 23.856 12.6 37 16 2.36 1.37 4.027 3.37 5 6-6.55-1.43-12.883-3.76-19-7a209.064 209.064 0 0 0-26-14.5zM369.5 1004.5c5.191 17.5 14.858 32.33 29 44.5a96.025 96.025 0 0 0 16 12.5c1.333.67 1.333 1.33 0 2-11.118-5.61-20.618-13.28-28.5-23a336.233 336.233 0 0 1-13-21 55.128 55.128 0 0 1-3.5-15zM747.5 1006.5c2.804-1.14 5.804-1.3 9-.5 12.802 4.12 23.468 11.45 32 22-1.408.32-2.741-.02-4-1l-22-15a53.171 53.171 0 0 0-15-5.5zM764.5 1005.5a97.62 97.62 0 0 1 12 5.5 191.825 191.825 0 0 0 41 27c-6.825.38-13.158-1.29-19-5-5.333-4-10-8.67-14-14-6.29-5.29-12.956-9.79-20-13.5z"/><path style="opacity:1" fill="#edeeed" d="M424.5 1062.5c-21.244-11.08-37.411-27.41-48.5-49-.837-2.32-1.17-4.65-1-7 5.852 15.36 15.352 28.02 28.5 38a175.787 175.787 0 0 0 24 14.5 14.796 14.796 0 0 0-3 3.5zM698.5 1006.5c7.24.47 13.906 2.64 20 6.5-.763.94-1.763 1.44-3 1.5a65.019 65.019 0 0 1-16-5.5c-.752-.67-1.086-1.5-1-2.5zM774.5 1007.5c.06-.54.393-.88 1-1a332.119 332.119 0 0 0 50 26.5c1.514 1.44 1.847 2.94 1 4.5a299.406 299.406 0 0 1-22-9.5 965.987 965.987 0 0 1-30-20.5zM691.5 1007.5a129.735 129.735 0 0 0 26 12 3.595 3.595 0 0 1-1 1.5c-10.892-.94-20.559-4.94-29-12 1.558-.21 2.891-.71 4-1.5z"/><path style="opacity:1" fill="#edeeed" d="M379.5 1009.5c13.073 16.56 29.073 29.73 48 39.5 2.605 1.93 2.605 3.76 0 5.5-16.671-8.17-30.837-19.5-42.5-34-2.393-3.45-4.226-7.12-5.5-11zM389.5 1010.5c.06-.54.393-.88 1-1 11.509 8.75 24.509 13.58 39 14.5.956 3.39 1.289 6.89 1 10.5-15.181-5.54-28.848-13.54-41-24zM673.5 1009.5c3.79-.49 4.456.34 2 2.5-7.071 3.29-14.404 3.63-22 1a407.135 407.135 0 0 0 20-3.5zM682.5 1010.5c9.744 7.48 20.744 12.48 33 15 .188 1.6-.312 2.94-1.5 4-12.813-2.66-23.98-8.32-33.5-17 .743-.68 1.409-1.35 2-2z"/><path style="opacity:1" fill="#edeeed" d="M386.5 1011.5c12.698 12.02 27.365 21.02 44 27 1.141 1.92 1.308 3.92.5 6-.414.46-.914.79-1.5 1a167.354 167.354 0 0 1-41.5-30 10.117 10.117 0 0 1-1.5-4zM612.5 1013.5c2.621.62 4.288 2.29 5 5-.333 1-1 1.67-2 2-3.87-.53-7.537-1.7-11-3.5 2.622-1.47 5.288-2.64 8-3.5zM676.5 1014.5c10.816 8.91 23.15 14.91 37 18 .16 1.7-.006 3.37-.5 5-13.943-4.55-26.443-11.55-37.5-21 .363-.68.696-1.35 1-2zM467.5 1016.5c3.645.5 7.145 1.5 10.5 3-2.189 10.56-6.689 11.56-13.5 3-1.45-1.35-2.117-3.02-2-5 1.915.28 3.581-.05 5-1zM546.5 1016.5c9.518-.57 11.352 2.76 5.5 10-3.828-1.49-6.994-3.82-9.5-7 1.401-1.02 2.735-2.02 4-3zM668.5 1016.5a231.68 231.68 0 0 0 26 17.5 202.678 202.678 0 0 0 18 6.5c1.333 2 1.333 4 0 6-16.154-6.24-30.487-15.24-43-27-.886-.82-1.219-1.82-1-3z"/><path style="opacity:1" fill="#edeeed" d="M661.5 1017.5c12.583 10.91 26.249 20.41 41 28.5a62.292 62.292 0 0 0 10 3.5c1.277 2.13.777 3.8-1.5 5-17.859-6.6-33.193-16.93-46-31a29.859 29.859 0 0 1-3.5-6zM509.5 1029.5a46.081 46.081 0 0 0-5.5-6c-.781-1.44-.614-2.78.5-4 4.705-1.36 9.372-1.2 14 .5.951.72 1.117 1.55.5 2.5-2.501 3.35-5.668 5.68-9.5 7zM598.5 1019.5a270.975 270.975 0 0 1 17.5 4c1.131-1.1 1.965-.77 2.5 1-.333 1-1 1.67-2 2a47.987 47.987 0 0 1-17-4.5c-.752-.67-1.086-1.5-1-2.5zM586.5 1020.5a8.394 8.394 0 0 1 4 .5c-4.908 2.57-9.908 2.91-15 1 3.856-.18 7.523-.68 11-1.5zM594.5 1024.5c.235-.6.735-.93 1.5-1a84.272 84.272 0 0 0 21.5 6 18.44 18.44 0 0 1-.5 6c-8.17-2.44-15.67-6.1-22.5-11zM576.5 1025.5a596.975 596.975 0 0 0 21 19.5 178.38 178.38 0 0 1 22 13c-1.837 1.48-3.837 1.48-6 0-14.725-7.72-27.392-18.05-38-31 .556-.38.889-.88 1-1.5zM589.5 1025.5a185.234 185.234 0 0 0 28 14.5 11.323 11.323 0 0 0-1.5 3.5c-10.095-4.44-18.928-10.44-26.5-18zM583.5 1026.5a331.753 331.753 0 0 1 18 13.5c4.849 2.59 9.849 4.92 15 7 .88 1.36 1.214 2.86 1 4.5a44.82 44.82 0 0 1-16-7.5l-11-9c-2.917-2.41-5.25-5.24-7-8.5z"/></svg>