<svg xmlns="http://www.w3.org/2000/svg" width="470" height="517" style="shape-rendering:geometricPrecision;text-rendering:geometricPrecision;image-rendering:optimizeQuality;fill-rule:evenodd;clip-rule:evenodd"><path style="opacity:1" fill="#000100" d="M-.5-.5h470v298c-4.047 44.183-18.213 84.85-42.5 122-36.806 46.401-84.306 76.234-142.5 89.5a362.578 362.578 0 0 1-40 7.5h-26c-54.026-5.187-102.692-24.02-146-56.5-28.536-23.902-49.036-53.402-61.5-88.5a514.036 514.036 0 0 1-11.5-39V-.5z"/><path style="opacity:1" fill="#fafdfa" d="M462.5 8.5a60676.137 60676.137 0 0 0-401 428h-2c-25.478-27.612-42.144-60.279-50-98-.371-5.576-1.371-10.909-3-16V6.5c152.337-.665 304.337.001 456 2z"/><path style="opacity:1" fill="#f3000a" d="M462.5 8.5a20878.31 20878.31 0 0 1-1 288c-.722.418-1.222 1.084-1.5 2a148.16 148.16 0 0 0-1.5 20c-1.25.077-2.083.744-2.5 2a149.174 149.174 0 0 1-2.5 21c-4.497 20.364-12.163 39.364-23 57-3.627 2.953-7.127 6.286-10.5 10a50.939 50.939 0 0 1-8 14c-9.106 8.267-17.273 17.267-24.5 27-3.265.418-6.265 1.585-9 3.5-.88 1.356-1.214 2.856-1 4.5-.762 1.762-2.096 2.762-4 3-3.741-.901-5.741.432-6 4a9.86 9.86 0 0 0-6 1 467.816 467.816 0 0 0-13 9.5c-3.807.779-7.14 2.446-10 5a43.385 43.385 0 0 0-8 2 166.943 166.943 0 0 1-19 10.5 39.386 39.386 0 0 0-13 2.5 371.092 371.092 0 0 0-13 5.5h-1a519.073 519.073 0 0 1-52 6 375.57 375.57 0 0 1-51-4c-2.548-1.033-4.715-2.7-6.5-5a96.223 96.223 0 0 0-11.5-1.5l-2-3c-9.64.096-18.307-2.57-26-8a18.453 18.453 0 0 0-6-.5 32.508 32.508 0 0 1-7-3c-2.339-4.325-6.005-6.658-11-7-1.861-1.028-3.195-2.528-4-4.5a48.363 48.363 0 0 0-11-2.5c-2.785-3.616-6.119-6.782-10-9.5-1.525-1.009-3.192-1.509-5-1.5a16.57 16.57 0 0 1-2.5-4A122.593 122.593 0 0 0 64.5 441c-1.641-1.129-2.641-2.629-3-4.5a60676.137 60676.137 0 0 1 401-428z"/><path style="opacity:1" fill="#58626a" d="M69.5 33.5a5.728 5.728 0 0 0-3 1c-1.599-1.298-2.099-2.965-1.5-5 1.25 1.694 2.75 3.027 4.5 4z"/><path style="opacity:1" fill="#4d5668" d="m132.5 34.5-5 2c1.167-3.696 2.334-7.363 3.5-11l1.5 9z"/><path style="opacity:1" fill="#8690d9" d="M193.5 57.5v-23c-4.31.58-8.643.913-13 1 4.443-1.301 9.109-1.968 14-2 .326 8.184-.008 16.184-1 24z"/><path style="opacity:1" fill="#3a42a7" d="M69.5 33.5a165.201 165.201 0 0 0 17 1.5c1.237.232 2.237.732 3 1.5a96.226 96.226 0 0 1-19-1 7.253 7.253 0 0 0-2.5 2 90.496 90.496 0 0 0 0 19c.232 1.237.732 2.237 1.5 3 2.205 1.863 3.539 4.197 4 7-3.757-1.267-5.924-3.934-6.5-8-1.721-7.98-1.888-15.98-.5-24a5.728 5.728 0 0 1 3-1z"/><path style="opacity:1" fill="#6167c6" d="M180.5 35.5c-.652 1.225-1.819 1.892-3.5 2-2.498.417-4.998.75-7.5 1 3.299-1.983 6.966-2.983 11-3z"/><path style="opacity:1" fill="#0a09f0" d="m90.5 38.5 6 6c.639.597.972 1.43 1 2.5-.92 3.932-2.92 7.1-6 9.5a5.576 5.576 0 0 0-1 3 38.24 38.24 0 0 0-9 4 13.117 13.117 0 0 1-7 1c-.037-3.202-1.703-4.868-5-5v-20c1.322-.17 2.489.163 3.5 1 .483-.948.65-1.948.5-3a84.113 84.113 0 0 1 17 1z"/><path style="opacity:1" fill="#3d42b2" d="M132.5 34.5a86.614 86.614 0 0 0 10 12 34.163 34.163 0 0 1 1 10c.237 1.291-.096 2.291-1 3 .313-3.542-.021-6.875-1-10h-1a4.934 4.934 0 0 0-.5-3c-1.588-2.09-3.422-3.757-5.5-5-.318-2.318-1.652-3.652-4-4a55.104 55.104 0 0 0-9 4c1.411-2.414 3.411-4.08 6-5l5-2z"/><path style="opacity:1" fill="#131ad7" d="M172.5 63.5c-.342-.838-1.008-1.172-2-1-1.562-.233-2.895-.9-4-2v-2a978.862 978.862 0 0 0 14.5 4c3.359-.283 6.193-1.616 8.5-4a344.938 344.938 0 0 0 2-19l-21 1.5 4 1a36.407 36.407 0 0 0-8.5 5.5l-1.5 3c1.247 1.823 1.914 3.823 2 6-1.926-1.769-3.26-3.935-4-6.5 1.232-4.314 3.565-7.814 7-10.5 7.922-.153 15.589-1.487 23-4 .166 7.674 0 15.34-.5 23-2.182 1.951-4.016 4.118-5.5 6.5l-5 .5a106.976 106.976 0 0 1-9-2z"/><path style="opacity:1" fill="#141dc8" d="M89.5 36.5h1v2a84.113 84.113 0 0 0-17-1 4.932 4.932 0 0 1-.5 3c-1.011-.837-2.178-1.17-3.5-1v20c-.768-.763-1.268-1.763-1.5-3a90.496 90.496 0 0 1 0-19 7.253 7.253 0 0 1 2.5-2 96.226 96.226 0 0 0 19 1z"/><path style="opacity:1" fill="#262eb4" d="M90.5 36.5c2.326.645 3.993 1.978 5 4l1 4-6-6v-2z"/><path style="opacity:1" fill="#0a07f2" d="M166.5 58.5v-2c-.086-2.177-.753-4.177-2-6l1.5-3a36.407 36.407 0 0 1 8.5-5.5l-4-1 21-1.5a344.938 344.938 0 0 1-2 19c-2.307 2.384-5.141 3.717-8.5 4a978.862 978.862 0 0 1-14.5-4z"/><path style="opacity:1" fill="#2934b8" d="M193.5 57.5v3a46.759 46.759 0 0 0-6 5.5c-3.317.498-6.65.665-10 .5-1.934-.61-3.601-1.61-5-3 2.934.788 5.934 1.454 9 2l5-.5c1.484-2.382 3.318-4.549 5.5-6.5.5-7.66.666-15.326.5-23-7.411 2.513-15.078 3.847-23 4v-1c2.502-.25 5.002-.583 7.5-1 1.681-.108 2.848-.775 3.5-2 4.357-.087 8.69-.42 13-1v23z"/><path style="opacity:1" fill="#0908f4" d="M134.5 41.5c2.078 1.243 3.912 2.91 5.5 5 .483.948.649 1.948.5 3v8a34.105 34.105 0 0 0-10 1c-3.359-2.007-7.025-3.007-11-3a4.934 4.934 0 0 1 .5-3c2.085-1.582 3.585-3.582 4.5-6 3.257-1.606 5.424-.606 6.5 3 .318-1.56 1.151-2.728 2.5-3.5-1.717-1.559-3.717-2.392-6-2.5 1.002-4.505 3.335-5.172 7-2z"/><path style="opacity:1" fill="#4149ad" d="M169.5 38.5v1c-3.435 2.686-5.768 6.186-7 10.5.74 2.565 2.074 4.731 4 6.5v2c-3.908-2.595-5.575-6.262-5-11 1.208-4.213 3.875-7.213 8-9z"/><path style="opacity:1" fill="#4a50ad" d="M95.5 40.5c1.517.01 2.684.677 3.5 2a12.5 12.5 0 0 1 0 7 103.93 103.93 0 0 1-6.5 10c-.473 1.406-1.473 2.073-3 2l1-2a5.576 5.576 0 0 1 1-3c3.08-2.4 5.08-5.568 6-9.5-.028-1.07-.361-1.903-1-2.5l-1-4z"/><path style="opacity:1" fill="#49557d" d="M142.5 46.5c3.479 3.052 3.813 6.386 1 10a34.163 34.163 0 0 0-1-10z"/><path style="opacity:1" fill="#4a4fb1" d="M121.5 41.5a65.917 65.917 0 0 1-4.5 10c-.678 2.098-.511 4.098.5 6-.086.996.248 1.83 1 2.5 2.865.183 5.531.683 8 1.5-9.058 1.772-13.225-1.895-12.5-11 2.364-3.19 4.864-6.19 7.5-9z"/><path style="opacity:1" fill="#0d13e2" d="M134.5 41.5c-3.665-3.172-5.998-2.505-7 2 2.283.108 4.283.941 6 2.5-1.349.772-2.182 1.94-2.5 3.5-1.076-3.606-3.243-4.606-6.5-3-.915 2.418-2.415 4.418-4.5 6a4.934 4.934 0 0 0-.5 3c3.975-.007 7.641.993 11 3a34.105 34.105 0 0 1 10-1v-8h1v9c-8.075 1.404-16.075 1.071-24-1-1.011-1.902-1.178-3.902-.5-6a65.917 65.917 0 0 0 4.5-10 55.104 55.104 0 0 1 9-4c2.348.348 3.682 1.682 4 4z"/><path style="opacity:1" fill="#232cbf" d="M141.5 49.5c.979 3.125 1.313 6.458 1 10-.667 0-1 .333-1 1-4.973.664-9.973.997-15 1-2.469-.817-5.135-1.317-8-1.5-.752-.67-1.086-1.504-1-2.5 7.925 2.071 15.925 2.404 24 1v-9z"/><path style="opacity:1" fill="#c5d2ee" d="M161.5 47.5c-.575 4.738 1.092 8.405 5 11v2a6.544 6.544 0 0 1-3 3c-.283-4.052-1.283-7.885-3-11.5.008-1.707.342-3.207 1-4.5z"/><path style="opacity:1" fill="#1a25c1" d="M69.5 59.5c3.297.132 4.963 1.798 5 5a13.117 13.117 0 0 0 7-1 38.24 38.24 0 0 1 9-4l-1 2c-2.831.579-5.164 1.912-7 4a41.744 41.744 0 0 1-9 1c-.461-2.803-1.795-5.137-4-7z"/><path style="opacity:1" fill="#4d5f89" d="M92.5 59.5c1.762.762 2.762 2.096 3 4 .172.992-.162 1.658-1 2-1.894-.548-3.56-1.548-5-3-2.162 1.52-4.495 2.52-7 3 1.836-2.088 4.169-3.421 7-4 1.527.073 2.527-.594 3-2z"/><path style="opacity:1" fill="#4e58b2" d="M141.5 60.5a83.214 83.214 0 0 1-10 3h-5v-2a113.761 113.761 0 0 0 15-1z"/><path style="opacity:1" fill="#8791d1" d="M82.5 65.5c-.11.617-.444 1.117-1 1.5-2.867.8-5.534.634-8-.5a41.744 41.744 0 0 0 9-1z"/><path style="opacity:1" fill="#8089cd" d="M193.5 60.5c-1.075 2.58-2.742 4.747-5 6.5-3.858.81-7.524.643-11-.5 3.35.165 6.683-.002 10-.5a46.759 46.759 0 0 1 6-5.5z"/><path style="opacity:1" fill="#405069" d="M166.5 60.5c1.105 1.1 2.438 1.767 4 2a64.738 64.738 0 0 0-14 13c-.876.13-1.543-.203-2-1a184.223 184.223 0 0 0 2-3 59.581 59.581 0 0 1 7-8 6.544 6.544 0 0 0 3-3z"/><path style="opacity:1" fill="#636369" d="m76.5 73.5-2 1a5.576 5.576 0 0 0-1-3c.825-.886 1.825-1.219 3-1v3z"/><path style="opacity:1" fill="#425167" d="M126.5 63.5h5a105.166 105.166 0 0 0-2 22c-1.459-.067-2.792.266-4 1a146.873 146.873 0 0 0 1-23z"/><path style="opacity:1" fill="#485769" d="M184.5 76.5h-4l3-3c.886.825 1.219 1.825 1 3z"/><path style="opacity:1" fill="#767dcd" d="M180.5 76.5h4v21h-1c.321-5.526-.012-10.86-1-16-.734-1.208-1.067-2.541-1-4-4.549.124-8.882.791-13 2-2.514.254-4.848 1.087-7 2.5a31.418 31.418 0 0 1-5 4.5c1.427-3.264 3.761-5.764 7-7.5a95.093 95.093 0 0 1 17-2.5z"/><path style="opacity:1" fill="#455a63" d="M95.5 63.5c3.345 2.472 6.345 5.472 9 9a60.946 60.946 0 0 0 7 11c-1.291-.237-2.291.096-3 1a105.572 105.572 0 0 1-14-19c.838-.342 1.172-1.008 1-2z"/><path style="opacity:1" fill="#252cbd" d="m168.5 79.5-2 2c-1.068.934-2.401 1.268-4 1v3c-4.3.315-5.967 2.649-5 7-.961-1.765-1.295-3.765-1-6a31.418 31.418 0 0 0 5-4.5c2.152-1.413 4.486-2.246 7-2.5z"/><path style="opacity:1" fill="#1518d2" d="M182.5 81.5c.613 5.77-.054 11.104-2 16a76.967 76.967 0 0 0 0-18c-4.702.45-9.368 1.117-14 2l2-2c4.118-1.209 8.451-1.876 13-2-.067 1.459.266 2.792 1 4z"/><path style="opacity:1" fill="#b8bfee" d="M55.5 90.5c-5.42-4.676-11.42-5.343-18-2 .847-1.466 2.18-2.3 4-2.5 4.84-.769 9.508-.269 14 1.5v3z"/><path style="opacity:1" fill="#a3adde" d="M97.5 79.5c4.556 2.084 6.889 5.75 7 11-.344 4.336-2.678 6.67-7 7l1-2c2.93-.481 4.263-2.314 4-5.5.07-4.36-1.597-7.86-5-10.5z"/><path style="opacity:1" fill="#373ea7" d="M55.5 90.5c1.333 3.333 1.333 6.667 0 10 .285-1.915-.049-3.581-1-5-.802-1.452-1.302-3.118-1.5-5-4.354-2.219-8.854-2.552-13.5-1a91.425 91.425 0 0 1-14 8c3.962-2.988 7.962-5.988 12-9 6.58-3.343 12.58-2.676 18 2z"/><path style="opacity:1" fill="#3f5189" d="M111.5 83.5c1.555 2.904 3.555 5.57 6 8-2.871-1.486-4.205-.486-4 3l-5-10c.709-.904 1.709-1.237 3-1z"/><path style="opacity:1" fill="#445b60" d="M156.5 71.5c-.641.982-1.307 1.982-2 3 .457.797 1.124 1.13 2 1a192.75 192.75 0 0 0-15 18c-.321-1.548-1.321-2.215-3-2a209.186 209.186 0 0 0 12.5-16c1.651-1.71 3.484-3.044 5.5-4z"/><path style="opacity:1" fill="#414bae" d="M129.5 85.5a591.677 591.677 0 0 1 3 8h-2a19.222 19.222 0 0 1-1-6c-1.459-.067-2.792.266-4 1v-2c1.208-.734 2.541-1.067 4-1z"/><path style="opacity:1" fill="#0b0ceb" d="M180.5 97.5c.273 1.951-.393 3.451-2 4.5a40.914 40.914 0 0 1-9 .5c0-.667-.333-1-1-1a24.551 24.551 0 0 1-6-3c-.667 0-1-.333-1-1-.624-2.254-1.957-3.92-4-5-.967-4.351.7-6.685 5-7v-3c1.599.268 2.932-.066 4-1 4.632-.883 9.298-1.55 14-2a76.967 76.967 0 0 1 0 18z"/><path style="opacity:1" fill="#b9c3eb" d="M207.5 91.5c4.146-1.147 8.48-1.314 13-.5 3.172 3.246 7.172 6.08 12 8.5h-3c-2.973-1.042-5.307-2.875-7-5.5a4.932 4.932 0 0 0-3-.5c-.418-.722-1.084-1.222-2-1.5a50.442 50.442 0 0 0-10-.5z"/><path style="opacity:1" fill="#c0c6f6" d="M125.5 88.5c-.13 2.798-1.464 4.798-4 6-1.917-.254-3.251-1.254-4-3 1.195.177 2.362.51 3.5 1a25.565 25.565 0 0 1 4.5-4z"/><path style="opacity:1" fill="#4a51b7" d="M156.5 86.5c-.295 2.235.039 4.235 1 6 2.043 1.08 3.376 2.746 4 5-5.148-2.233-6.815-5.9-5-11z"/><path style="opacity:1" fill="#2c38ae" d="M207.5 91.5c3.35-.165 6.683.002 10 .5.916.278 1.582.778 2 1.5-6.017-.504-11.684.496-17 3 1.973-1.306 3.639-2.973 5-5z"/><path style="opacity:1" fill="#5c66b2" d="M138.5 91.5c1.679-.215 2.679.452 3 2 .268 1.599-.066 2.932-1 4 .269-1.929-.231-3.595-1.5-5-2.016 2.108-4.183 2.442-6.5 1 2.203-.104 4.203-.77 6-2z"/><path style="opacity:1" fill="#222bc3" d="M130.5 93.5c-3.802 1.554-7.802 2.554-12 3-.961 1.765-1.295 3.765-1 6l-2-5c-1.406-.473-2.073-1.473-2-3-.205-3.486 1.129-4.486 4-3 .749 1.746 2.083 2.746 4 3 2.536-1.202 3.87-3.202 4-6 1.208-.734 2.541-1.067 4-1 .017 2.065.35 4.065 1 6z"/><path style="opacity:1" fill="#202bba" d="M140.5 97.5c-1.713 1.135-2.38 2.802-2 5-1.238 1.714-1.905 3.714-2 6-.79 1.109-1.29 2.442-1.5 4-.5 6.992-.666 13.992-.5 21-1.156-7.489-1.322-15.155-.5-23a63.06 63.06 0 0 0 2.5-14c-2.716.114-4.716-.886-6-3h2c2.317 1.442 4.484 1.108 6.5-1 1.269 1.405 1.769 3.071 1.5 5z"/><path style="opacity:1" fill="#0e03f5" d="m207.5 119.5-1-2c.304-.65.637-1.317 1-2-1.142-1.617-1.809-3.45-2-5.5a80.912 80.912 0 0 1 2-12.5c3.932-2.59 7.932-2.59 12 0a9.86 9.86 0 0 1 1 6h6v3h-3v6c-1.478.262-2.811-.071-4-1a19.06 19.06 0 0 1-2.5-7 32.087 32.087 0 0 1-3.5 4c1.545 2.697.879 4.697-2 6a9.86 9.86 0 0 0 6 1v4h-10z"/><path style="opacity:1" fill="#a9b2de" d="M207.5 91.5c-1.361 2.027-3.027 3.694-5 5-.904.709-1.237 1.709-1 3l-2 8a23.788 23.788 0 0 1-.5-10c2.454-2.634 5.287-4.634 8.5-6z"/><path style="opacity:1" fill="#252bc1" d="M39.5 89.5a61.23 61.23 0 0 1-12.5 10 18.437 18.437 0 0 0-.5 6c1.322-.17 2.489.163 3.5 1a31.571 31.571 0 0 0 2.5 9c-3.105-2.775-5.438-6.108-7-10a44.027 44.027 0 0 0-3-5.5c.243-.902.577-1.735 1-2.5h2a91.425 91.425 0 0 0 14-8z"/><path style="opacity:1" fill="#080af0" d="M54.5 95.5c.505 5.997-.495 11.664-3 17h-3c.214 1.644-.12 3.144-1 4.5-3.188 1.316-6.522 1.816-10 1.5-1.4-1.39-3.066-2.39-5-3a31.571 31.571 0 0 1-2.5-9c-1.011-.837-2.178-1.17-3.5-1a18.437 18.437 0 0 1 .5-6 61.23 61.23 0 0 0 12.5-10c4.646-1.552 9.146-1.219 13.5 1 .198 1.882.698 3.548 1.5 5z"/><path style="opacity:1" fill="#7f8ad5" d="M140.5 97.5c.098 2.053-.569 3.72-2 5-.38-2.198.287-3.865 2-5z"/><path style="opacity:1" fill="#c8ccf4" d="M183.5 97.5h1c.918 4.995-1.082 7.328-6 7 1.122-1.447 2.622-2.447 4.5-3a8.43 8.43 0 0 0 .5-4z"/><path style="opacity:1" fill="#606a70" d="M233.5 100.5c4.908.532 4.908 1.866 0 4v-4z"/><path style="opacity:1" fill="#7683b9" d="M23.5 97.5a11.104 11.104 0 0 0-1 2.5 44.027 44.027 0 0 1 3 5.5 77.662 77.662 0 0 0-8-6.5c1.75-1.319 3.75-1.819 6-1.5z"/><path style="opacity:1" fill="#445296" d="M162.5 98.5a24.551 24.551 0 0 0 6 3c-2.014-.108-3.68.558-5 2-.992.172-1.658-.162-2-1l1-4z"/><path style="opacity:1" fill="#2b32b8" d="M182.5 81.5c.988 5.14 1.321 10.474 1 16a8.43 8.43 0 0 1-.5 4c-1.878.553-3.378 1.553-4.5 3h-1a41.541 41.541 0 0 1-8-1v-1a40.914 40.914 0 0 0 9-.5c1.607-1.049 2.273-2.549 2-4.5 1.946-4.896 2.613-10.23 2-16z"/><path style="opacity:1" fill="#3941ab" d="M76.5 73.5a404.52 404.52 0 0 1 20 4.5c.556.383.89.883 1 1.5 3.403 2.64 5.07 6.14 5 10.5.263 3.186-1.07 5.019-4 5.5l-1 2c-1.548.321-2.215 1.321-2 3a5.727 5.727 0 0 1-3 1c-2.951 2.379-6.451 3.712-10.5 4-3.39-.369-6.057-2.035-8-5-.536-8.68-.37-17.346.5-26l2-1z"/><path style="opacity:1" fill="#131cd1" d="M81.5 77.5c-1.624-.14-2.79.527-3.5 2-.5 5.99-.666 11.99-.5 18h3c-.116 3.41 1.55 4.744 5 4-1.16 1.877-2.826 2.377-5 1.5a383.463 383.463 0 0 1-4.5-5.5 63.173 63.173 0 0 1 1-21c1.915-1.416 3.415-1.082 4.5 1z"/><path style="opacity:1" fill="#0b0aef" d="M81.5 77.5c5.98-.93 10.98.737 15 5a39.397 39.397 0 0 0 5 7c-.989 1.994-1.99 3.994-3 6a113.475 113.475 0 0 1-13 6c-3.45.744-5.116-.59-5-4h-3c-.166-6.01 0-12.01.5-18 .71-1.473 1.876-2.14 3.5-2z"/><path style="opacity:1" fill="#919ed6" d="M169.5 103.5c2.627.592 5.294.925 8 1-.949.652-2.115.986-3.5 1-2.008.193-3.508-.474-4.5-2z"/><path style="opacity:1" fill="#0f11e3" d="M219.5 93.5a4.932 4.932 0 0 1 3 .5c1.693 2.625 4.027 4.458 7 5.5 1.13 1.815 1.796 3.815 2 6-1.322-.17-2.489.163-3.5 1-1.809 5.97-5.309 10.637-10.5 14-3.542.313-6.875-.021-10-1h10v-4a9.86 9.86 0 0 1-6-1c2.879-1.303 3.545-3.303 2-6a32.087 32.087 0 0 0 3.5-4 19.06 19.06 0 0 0 2.5 7c1.189.929 2.522 1.262 4 1v-6h3v-3h-6a9.86 9.86 0 0 0-1-6c-4.068-2.59-8.068-2.59-12 0a80.912 80.912 0 0 0-2 12.5c.191 2.05.858 3.883 2 5.5-.363.683-.696 1.35-1 2-1.951-1.216-3.451-2.882-4.5-5a84.902 84.902 0 0 1-.5-13c-.237-1.291.096-2.291 1-3 5.316-2.504 10.983-3.504 17-3z"/><path style="opacity:1" fill="#5359c6" d="m115.5 97.5 2 5a39.712 39.712 0 0 1 1 11 8931.34 8931.34 0 0 1-3-16z"/><path style="opacity:1" fill="#a5b3cd" d="M195.5 108.5c-3.128 1.132-6.462 1.965-10 2.5-.556.383-.889.883-1 1.5h-3c4.043-2.954 8.709-4.288 14-4z"/><path style="opacity:1" fill="#455386" d="M198.5 107.5c-.135 2.054.532 3.721 2 5a58.75 58.75 0 0 0-15 2c-.838-.342-1.172-1.008-1-2 .111-.617.444-1.117 1-1.5 3.538-.535 6.872-1.368 10-2.5a5.727 5.727 0 0 1 3-1z"/><path style="opacity:1" fill="#445860" d="M161.5 102.5c.342.838 1.008 1.172 2 1a126.585 126.585 0 0 0-17 29l-3-3a122.72 122.72 0 0 1 18-27z"/><path style="opacity:1" fill="#212abf" d="M54.5 95.5c.951 1.419 1.285 3.085 1 5v8c-.904.709-1.237 1.709-1 3a26.162 26.162 0 0 0-5 7c-2.656.658-5.322 1.325-8 2-1.855.16-3.188-.507-4-2 3.478.316 6.812-.184 10-1.5.88-1.356 1.214-2.856 1-4.5h3c2.505-5.336 3.505-11.003 3-17z"/><path style="opacity:1" fill="#b4c0e1" d="M74.5 112.5c4.174.159 7.508 1.825 10 5a48.183 48.183 0 0 1-10-5z"/><path style="opacity:1" fill="#4c57b5" d="M136.5 108.5a266.417 266.417 0 0 0-1 29 20.69 20.69 0 0 0 5-1c-.906 2.414-2.572 3.247-5 2.5-.906-1.699-1.239-3.533-1-5.5-.166-7.008 0-14.008.5-21 .21-1.558.71-2.891 1.5-4z"/><path style="opacity:1" fill="#b3bfec" d="M232.5 107.5a98.362 98.362 0 0 1-4.5 8 11.105 11.105 0 0 1-4.5 3c2.304-4.297 5.304-7.964 9-11z"/><path style="opacity:1" fill="#969ee7" d="M54.5 111.5c-.469 3.143-2.136 5.477-5 7a26.162 26.162 0 0 1 5-7z"/><path style="opacity:1" fill="#485d7c" d="M55.5 105.5a235.823 235.823 0 0 1 19 7 48.183 48.183 0 0 0 10 5 4212.18 4212.18 0 0 1 14 10l2 3c-1.333 0-2 .667-2 2h-1c-12.37-10.796-26.37-18.796-42-24v-3z"/><path style="opacity:1" fill="#333bb2" d="M229.5 99.5h3c0 .667.333 1 1 1v4a5.727 5.727 0 0 1-1 3c-3.696 3.036-6.696 6.703-9 11-1.755 1.404-3.755 2.404-6 3v-1c5.191-3.363 8.691-8.03 10.5-14 1.011-.837 2.178-1.17 3.5-1-.204-2.185-.87-4.185-2-6z"/><path style="opacity:1" fill="#5c64bc" d="M32.5 115.5c1.934.61 3.6 1.61 5 3 .812 1.493 2.145 2.16 4 2 2.678-.675 5.344-1.342 8-2-3.397 2.892-7.397 3.726-12 2.5-2.186-1.412-3.852-3.245-5-5.5z"/><path style="opacity:1" fill="#465863" d="M95.5 100.5a207.806 207.806 0 0 1 17 29h-3c-1.114-5.129-1.781-5.129-2 0l-2-2a267.811 267.811 0 0 1-5-12.5 291.646 291.646 0 0 1-8-13.5 5.727 5.727 0 0 0 3-1z"/><path style="opacity:1" fill="#272fc0" d="M201.5 99.5a84.902 84.902 0 0 0 .5 13c1.049 2.118 2.549 3.784 4.5 5l1 2c3.125.979 6.458 1.313 10 1v1c-6.149 2.178-11.482.845-16-4 .134-1.792-.199-3.458-1-5-1.468-1.279-2.135-2.946-2-5h1l2-8z"/><path style="opacity:1" fill="#5156bf" d="M118.5 113.5c1.316 2.587 1.983 5.587 2 9 .222 4.297-.445 8.297-2 12 .421-6.931.421-13.931 0-21z"/><path style="opacity:1" fill="#4d616f" d="M181.5 112.5h3c-.172.992.162 1.658 1 2a385.2 385.2 0 0 1-15 6.5 645.211 645.211 0 0 0-20 17.5l-3-4a3768.985 3768.985 0 0 1 19-14.5 92.777 92.777 0 0 1 15-7.5z"/><path style="opacity:1" fill="#b9c2ee" d="M201.5 117.5c4.518 4.845 9.851 6.178 16 4 2.245-.596 4.245-1.596 6-3 .17 1.322-.163 2.489-1 3.5-5.218 1.563-10.551 1.896-16 1-2.579-1.076-4.246-2.909-5-5.5z"/><path style="opacity:1" fill="#3f44b6" d="M63.5 129.5c-3.077.153-5.91-.514-8.5-2a74.694 74.694 0 0 1-7.5 3c-1.306 2.839-3.306 5.172-6 7 2.636-9.784 8.97-13.618 19-11.5 1.556.72 2.556 1.887 3 3.5z"/><path style="opacity:1" fill="#a2acd8" d="M206.5 130.5a21.435 21.435 0 0 0-7-1 9.108 9.108 0 0 0-5 1c-1.021 1.688-2.355 3.021-4 4 .203-1.544.87-2.878 2-4a3.647 3.647 0 0 0-1-1.5c3.949-1.184 7.949-1.518 12-1 1.442.377 2.442 1.21 3 2.5z"/><path style="opacity:1" fill="#3b4b8d" d="M112.5 129.5c.845 1.171 1.511 2.505 2 4a20.69 20.69 0 0 0-5-1h-1a5.727 5.727 0 0 1-1-3c.219-5.129.886-5.129 2 0h3z"/><path style="opacity:1" fill="#c4cceb" d="M98.5 127.5a19.49 19.49 0 0 0 7 3v-3l2 2a5.727 5.727 0 0 0 1 3c.237 1.291-.096 2.291-1 3a40.943 40.943 0 0 0-7-5l-2-3z"/><path style="opacity:1" fill="#0d04f5" d="M122.5 130.5v-18a98.432 98.432 0 0 1 .5-14c1.011-.837 2.178-1.17 3.5-1 1.203 4.682 1.203 9.349 0 14 .847 1.345 2.013 2.345 3.5 3a168.192 168.192 0 0 0 1 25c1.921 3.548 4.754 4.714 8.5 3.5 4.147 1.798 4.48 3.632 1 5.5-.412 2.387-1.412 4.387-3 6-2.497 12.77-3.663 25.77-3.5 39a112.97 112.97 0 0 1-.5-15h-3c.451 10.329.784 20.662 1 31-3.606-.289-7.106.044-10.5 1-1.257-2.246-3.09-3.579-5.5-4-1.05-5.735.616-10.401 5-14a553.176 553.176 0 0 0-3-21.5 80.656 80.656 0 0 1 4-18.5l-.5-5a22.508 22.508 0 0 0-2 7c-2.296 2.888-3.462 2.388-3.5-1.5a57.396 57.396 0 0 1 3.5-13.5 8.905 8.905 0 0 1 3-4 12.93 12.93 0 0 0 .5-5z"/><path style="opacity:1" fill="#3d44b3" d="M199.5 129.5c-4.095 2.259-7.428 5.426-10 9.5-1.401.41-2.734.91-4 1.5v-3h4c-.237-1.291.096-2.291 1-3 1.645-.979 2.979-2.312 4-4a9.108 9.108 0 0 1 5-1z"/><path style="opacity:1" fill="#384a97" d="M100.5 130.5a40.943 40.943 0 0 1 7 5c.343 1.983-.324 3.317-2 4-2-2.667-4.333-5-7-7 0-1.333.667-2 2-2z"/><path style="opacity:1" fill="#4c57b2" d="m143.5 129.5 3 3c-.172.992.162 1.658 1 2l3 4c.709.904 1.709 1.237 3 1v5c-.992-.172-1.658.162-2 1h-1c.444-4.446-1.223-7.779-5-10-2.072-2.654-3.739-2.32-5 1v-2c.453-2.065 1.453-3.732 3-5z"/><path style="opacity:1" fill="#1f29c0" d="M199.5 129.5a21.435 21.435 0 0 1 7 1c.873 2.386 2.373 4.386 4.5 6a8.43 8.43 0 0 1 .5 4c-2.184-3.862-5.184-7.195-9-10-5.662 1.826-9.995 5.326-13 10.5a4.934 4.934 0 0 1-3 .5c.237 1.291-.096 2.291-1 3v-4a28.208 28.208 0 0 1 4-1.5c2.572-4.074 5.905-7.241 10-9.5z"/><path style="opacity:1" fill="#323bb4" d="M63.5 129.5a25.178 25.178 0 0 1 4 7c1.742 2.645 2.409 5.645 2 9-1.697-1.805-2.53-4.139-2.5-7-.708-.881-1.542-1.547-2.5-2a21.445 21.445 0 0 0-1-7z"/><path style="opacity:1" fill="#b7c2e5" d="M97.5 132.5h1c2.667 2 5 4.333 7 7-.342.838-1.008 1.172-2 1a13.939 13.939 0 0 1-6-3c2.457-1.501 2.457-3.168 0-5z"/><path style="opacity:1" fill="#191ecb" d="M118.5 96.5a70.733 70.733 0 0 1 4 16v18c-.631 1.948-1.631 3.781-3 5.5a34.251 34.251 0 0 0-8 1.5c-.79 2.852-2.456 5.019-5 6.5 4.9 4.403 7.233 9.903 7 16.5h-1c.318-2.981-.682-5.315-3-7v-1c.073-1.527-.594-2.527-2-3-.233-1.562-.9-2.895-2-4 2.397-3.899 3.73-8.233 4-13a20.69 20.69 0 0 1 5 1c1.208.734 2.541 1.067 4 1 1.555-3.703 2.222-7.703 2-12-.017-3.413-.684-6.413-2-9a39.712 39.712 0 0 0-1-11c-.295-2.235.039-4.235 1-6z"/><path style="opacity:1" fill="#c7d2f9" d="M138.5 102.5a135.724 135.724 0 0 0-1.5 32c1.145 1.184 2.312 1.184 3.5 0v2a20.69 20.69 0 0 1-5 1c-.193-9.694.14-19.361 1-29 .095-2.286.762-4.286 2-6z"/><path style="opacity:1" fill="#252fbd" d="M145.5 135.5c3.777 2.221 5.444 5.554 5 10-4.411 2.741-7.744 6.408-10 11a12.93 12.93 0 0 1 .5-5 51.004 51.004 0 0 0 7.5-9.5 35.849 35.849 0 0 0-3-6.5z"/><path style="opacity:1" fill="#435872" d="M185.5 137.5v7h-1c-.061-2.092-1.061-3.592-3-4.5a90.455 90.455 0 0 0-19 0c-3.264.638-6.264 1.804-9 3.5v-4c10.512-3.971 21.179-4.637 32-2z"/><path style="opacity:1" fill="#4655a4" d="M89.5 135.5v1a13.485 13.485 0 0 1 6 2.5 32.462 32.462 0 0 1-8 .5h-17v15a5.727 5.727 0 0 0-3 1c1.523-3.135 2.19-6.468 2-10 .409-3.355-.258-6.355-2-9a194.614 194.614 0 0 1 22-1z"/><path style="opacity:1" fill="#2837a7" d="M89.5 136.5c-2.07 1.309-4.57 1.975-7.5 2l-7.5-1a57.15 57.15 0 0 1 15-1z"/><path style="opacity:1" fill="#5e70a2" d="M89.5 136.5v-1c2.92-.217 5.587.449 8 2a13.939 13.939 0 0 0 6 3c-1.548.321-2.215 1.321-2 3-4.359-2.255-9.026-3.255-14-3v-1a32.462 32.462 0 0 0 8-.5 13.485 13.485 0 0 0-6-2.5z"/><path style="opacity:1" fill="#818ad2" d="M206.5 130.5c4.591 2.173 6.924 5.839 7 11l-2-1a8.43 8.43 0 0 0-.5-4c-2.127-1.614-3.627-3.614-4.5-6z"/><path style="opacity:1" fill="#cdd8f5" d="M87.5 139.5v1c-5.148-.574-9.982.093-14.5 2l-1-1a40.493 40.493 0 0 0 .5 8.5c-.069 1.986-.735 3.486-2 4.5v-15h17z"/><path style="opacity:1" fill="#c9d9e7" d="M184.5 144.5v1h-1c-.428-2.746-2.094-4.413-5-5a203.912 203.912 0 0 1-19 1.5c-1.717 1.559-3.717 2.392-6 2.5v-1c2.736-1.696 5.736-2.862 9-3.5a90.455 90.455 0 0 1 19 0c1.939.908 2.939 2.408 3 4.5z"/><path style="opacity:1" fill="#4852c5" d="M108.5 132.5h1c-.27 4.767-1.603 9.101-4 13-1.653-.16-2.986-.826-4-2-.215-1.679.452-2.679 2-3 .992.172 1.658-.162 2-1 1.676-.683 2.343-2.017 2-4 .904-.709 1.237-1.709 1-3z"/><path style="opacity:1" fill="#0a11e2" d="M63.5 129.5a21.445 21.445 0 0 1 1 7c-2.045-1.423-3.045-3.423-3-6-3.464-1.589-6.464-1.089-9 1.5a17.958 17.958 0 0 1 3 7 14.827 14.827 0 0 0-2 6.5h-4a32.175 32.175 0 0 0 1.5-11 3.647 3.647 0 0 0-1.5-1 31.83 31.83 0 0 1-4.5 5c-2.49 4.185-1.324 6.685 3.5 7.5a4.458 4.458 0 0 1-2 1.5c-2.37-1.598-4.036-1.098-5 1.5.844 2.007 2.177 3.507 4 4.5-1.599.268-2.932-.066-4-1a20.958 20.958 0 0 1-3-4.5 191.143 191.143 0 0 1 9-17.5 74.694 74.694 0 0 0 7.5-3c2.59 1.486 5.423 2.153 8.5 2z"/><path style="opacity:1" fill="#0e13e4" d="M64.5 136.5c.958.453 1.792 1.119 2.5 2-.03 2.861.803 5.195 2.5 7 .19 3.532-.477 6.865-2 10-5.518 1.877-11.185 2.377-17 1.5-2.084-.697-3.751-1.864-5-3.5a52.987 52.987 0 0 1 9.5 3 226.338 226.338 0 0 1 8.5-1.5c3.422-1.406 3.755-3.239 1-5.5-2.356 1.743-5.023 2.743-8 3-1.708-.203-3.041-1.036-4-2.5l7-1c1.473-.71 2.14-1.876 2-3.5-1.478.262-2.811-.071-4-1a167.813 167.813 0 0 1 6.5-2c.496-1.973.662-3.973.5-6z"/><path style="opacity:1" fill="#0b0aed" d="m211.5 140.5 2 1a40.914 40.914 0 0 0 .5 9 11.38 11.38 0 0 1 2.5 2c-3.719 1.519-7.053 3.519-10 6a50.583 50.583 0 0 1-14 1.5 71.671 71.671 0 0 1-6.5-5.5 50.464 50.464 0 0 1-.5-10c.904-.709 1.237-1.709 1-3a4.934 4.934 0 0 0 3-.5c3.005-5.174 7.338-8.674 13-10.5 3.816 2.805 6.816 6.138 9 10z"/><path style="opacity:1" fill="#808bc7" d="M40.5 139.5a28.786 28.786 0 0 1-3 8c-.951 1.419-1.285 3.085-1 5-1.495.085-2.495-.581-3-2 1.793-4.104 4.126-7.771 7-11z"/><path style="opacity:1" fill="#232ebf" d="M47.5 130.5a191.143 191.143 0 0 0-9 17.5 20.958 20.958 0 0 0 3 4.5c-3.41.116-4.744-1.55-4-5a28.786 28.786 0 0 0 3-8c-.172-.992.162-1.658 1-2 2.694-1.828 4.694-4.161 6-7z"/><path style="opacity:1" fill="#0807f5" d="M64.5 136.5a18.437 18.437 0 0 1-.5 6 167.813 167.813 0 0 0-6.5 2c1.189.929 2.522 1.262 4 1 .14 1.624-.527 2.79-2 3.5l-7 1c.959 1.464 2.292 2.297 4 2.5 2.977-.257 5.644-1.257 8-3 2.755 2.261 2.422 4.094-1 5.5-2.843.446-5.676.946-8.5 1.5a52.987 52.987 0 0 0-9.5-3c-1.823-.993-3.156-2.493-4-4.5.964-2.598 2.63-3.098 5-1.5a4.458 4.458 0 0 0 2-1.5c-4.824-.815-5.99-3.315-3.5-7.5a31.83 31.83 0 0 0 4.5-5 3.647 3.647 0 0 1 1.5 1c.14 3.734-.36 7.401-1.5 11h4a14.827 14.827 0 0 1 2-6.5 17.958 17.958 0 0 0-3-7c2.536-2.589 5.536-3.089 9-1.5-.045 2.577.955 4.577 3 6z"/><path style="opacity:1" fill="#969cef" d="M107.5 149.5c1.406.473 2.073 1.473 2 3-1.406-.473-2.073-1.473-2-3z"/><path style="opacity:1" fill="#b5bdf0" d="M150.5 145.5h1a118.395 118.395 0 0 0-11 15v-4c2.256-4.592 5.589-8.259 10-11z"/><path style="opacity:1" fill="#b3c3e4" d="M182.5 146.5c-.419 4.273.248 8.273 2 12-1.25-.077-2.083-.744-2.5-2-.808-3.527-.641-6.86.5-10z"/><path style="opacity:1" fill="#3c47a5" d="M183.5 145.5h1c-.382 4.862.284 9.528 2 14h-1c0-.667-.333-1-1-1-1.752-3.727-2.419-7.727-2-12 0-.667.333-1 1-1z"/><path style="opacity:1" fill="#535b7a" d="m217.5 151.5 3 3c-.825.886-1.825 1.219-3 1v-4z"/><path style="opacity:1" fill="#282dc3" d="M213.5 141.5c.838.342 1.172 1.008 1 2 .397 2.946 1.397 5.613 3 8v4a39.26 39.26 0 0 0-11 3c2.947-2.481 6.281-4.481 10-6a11.38 11.38 0 0 0-2.5-2 40.914 40.914 0 0 1-.5-9z"/><path style="opacity:1" fill="#cbd0ee" d="M214.5 143.5c3.154 1.624 4.821 4.291 5 8 3.185.222 4.185 1.722 3 4.5a340.497 340.497 0 0 1-16 3.5v-1a39.26 39.26 0 0 1 11-3c1.175.219 2.175-.114 3-1l-3-3c-1.603-2.387-2.603-5.054-3-8z"/><path style="opacity:1" fill="#3c40b2" d="M37.5 147.5c-.744 3.45.59 5.116 4 5 1.068.934 2.401 1.268 4 1 1.249 1.636 2.916 2.803 5 3.5 5.815.877 11.482.377 17-1.5-.953 2.11-2.62 3.277-5 3.5-4.387.706-8.72.54-13-.5-3.949-2.744-8.282-4.744-13-6-.285-1.915.049-3.581 1-5z"/><path style="opacity:1" fill="#cfd8fb" d="M70.5 154.5c-3.036 5.098-7.536 7.098-13.5 6-2.93-.025-5.43-.691-7.5-2a32.588 32.588 0 0 0 13 .5c2.38-.223 4.047-1.39 5-3.5a5.727 5.727 0 0 1 3-1z"/><path style="opacity:1" fill="#a8b1ee" d="M109.5 153.5c2.318 1.685 3.318 4.019 3 7-1.412-2.104-2.412-4.437-3-7z"/><path style="opacity:1" fill="#242dbd" d="M184.5 144.5h1c-.165 3.35.002 6.683.5 10a71.671 71.671 0 0 0 6.5 5.5 50.583 50.583 0 0 0 14-1.5v1a72.462 72.462 0 0 1-11 3 28.4 28.4 0 0 1-9-3c-1.716-4.472-2.382-9.138-2-14v-1z"/><path style="opacity:1" fill="#9aa4db" d="M185.5 159.5h1a28.4 28.4 0 0 0 9 3 72.462 72.462 0 0 0 11-3c-2.389 3.393-5.723 4.727-10 4-4.47.587-8.137-.746-11-4z"/><path style="opacity:1" fill="#9ea9de" d="M76.5 164.5c7.097-.783 13.764.384 20 3.5 1.323.816 1.99 1.983 2 3.5-2.475-2.3-5.475-3.633-9-4-.11-.617-.444-1.117-1-1.5-4.188-.176-8.188-.676-12-1.5z"/><path style="opacity:1" fill="#1a23c5" d="M115.5 161.5c1.282 14.959.449 29.959-2.5 45-1.356.88-2.856 1.214-4.5 1l1-2c2.653-2.249 3.986-5.249 4-9 .514-6.322.847-12.655 1-19 .988-5.14 1.321-10.474 1-16z"/><path style="opacity:1" fill="#98a8d5" d="M165.5 165.5c-1.533 1.745-3.533 2.745-6 3 1.533-1.745 3.533-2.745 6-3z"/><path style="opacity:1" fill="#2a34b4" d="M165.5 165.5h5c2.948-.277 5.781.056 8.5 1 .499 3.652.665 7.318.5 11l-2-9c-3.811-1.145-7.811-1.312-12-.5a37.843 37.843 0 0 0-11 6.5l5-6c2.467-.255 4.467-1.255 6-3z"/><path style="opacity:1" fill="#a8b1cb" d="M75.5 164.5c-1.961 6.587-2.628 13.587-2 21-1.156-7.823-1.323-15.823-.5-24a10.51 10.51 0 0 1 2.5 3z"/><path style="opacity:1" fill="#3139a5" d="M89.5 167.5c3.525.367 6.525 1.7 9 4 1.765 2.623 2.432 5.623 2 9h-1c-.834-3.001-2.167-5.668-4-8-1.187-2.475-3.187-3.475-6-3v-2z"/><path style="opacity:1" fill="#2f3ca1" d="M113.5 161.5h2c.321 5.526-.012 10.86-1 16a291.573 291.573 0 0 0-1-16z"/><path style="opacity:1" fill="#4d5894" d="m159.5 168.5-5 6c-.979 3.125-1.313 6.458-1 10-3.201-7.159-1.201-12.493 6-16z"/><path style="opacity:1" fill="#93a0d0" d="M140.5 160.5a183.558 183.558 0 0 0-2 34v7c-.973-2.448-1.306-5.115-1-8-.166-8.007 0-16.007.5-24 .057-3.351.891-6.351 2.5-9z"/><path style="opacity:1" fill="#1622ce" d="M89.5 167.5v2a30.335 30.335 0 0 0-10-.5 73.286 73.286 0 0 1-4 11.5 38.044 38.044 0 0 1 3 9c1.545.952 3.212 1.285 5 1-6.3 2.399-9.134.066-8.5-7a64.247 64.247 0 0 1 0-16c4.764-.892 9.597-.892 14.5 0z"/><path style="opacity:1" fill="#3f46b3" d="M75.5 164.5h1c3.812.824 7.812 1.324 12 1.5.556.383.89.883 1 1.5-4.903-.892-9.736-.892-14.5 0a64.247 64.247 0 0 0 0 16c-.634 7.066 2.2 9.399 8.5 7h5a39.405 39.405 0 0 0-5 2.5c-6.51 1.588-9.843-.912-10-7.5-.628-7.413.039-14.413 2-21z"/><path style="opacity:1" fill="#1213e1" d="m177.5 168.5 2 9c.633 5.391-.367 10.391-3 15h-8v-3a44.866 44.866 0 0 0-10-1h-1c-1.667-1-3-2.333-4-4-.313-3.542.021-6.875 1-10a37.843 37.843 0 0 1 11-6.5c4.189-.812 8.189-.645 12 .5z"/><path style="opacity:1" fill="#0b07f2" d="M177.5 168.5a9.108 9.108 0 0 1-1 5c-1.151 1.231-2.317 1.231-3.5 0-1.703 4.25-1.87 8.583-.5 13 1.391-1.145 2.724-1.145 4 0a3.647 3.647 0 0 1-1 1.5 15.256 15.256 0 0 0-4.5 1.5 149.302 149.302 0 0 0-13-5c-1.301-1.865-1.635-3.865-1-6a1689.64 1689.64 0 0 1 4.5-7.5 42.269 42.269 0 0 1 16-2.5z"/><path style="opacity:1" fill="#3240a2" d="M140.5 156.5v4c-1.609 2.649-2.443 5.649-2.5 9-.5 7.993-.666 15.993-.5 24-1.324-3.607-1.991-7.607-2-12l.5-12a34.78 34.78 0 0 0 2-10c.377-1.442 1.21-2.442 2.5-3z"/><path style="opacity:1" fill="#8992d7" d="M99.5 180.5h1c.287 3.715-1.38 6.048-5 7 2.076-1.807 3.41-4.141 4-7z"/><path style="opacity:1" fill="#0a0fe2" d="M89.5 169.5c2.813-.475 4.813.525 6 3 1.833 2.332 3.166 4.999 4 8a399.223 399.223 0 0 1-7 6.5c-2.976.705-5.642 1.871-8 3.5h-1c-1.788.285-3.455-.048-5-1a38.044 38.044 0 0 0-3-9 73.286 73.286 0 0 0 4-11.5 30.335 30.335 0 0 1 10 .5z"/><path style="opacity:1" fill="#0b05f4" d="M95.5 172.5v5c-2.73.027-5.23-.64-7.5-2a318.267 318.267 0 0 0-6.5 2.5 27.134 27.134 0 0 0 10 1.5 11.99 11.99 0 0 1 1 6c-1.644.214-3.144-.12-4.5-1-1.734 3.573-4.568 5.24-8.5 5 .346-3.102-.32-5.935-2-8.5l3-3c-.928-.388-1.595-1.055-2-2a66.95 66.95 0 0 0 1.5-5.5c5.207-.52 10.373.147 15.5 2z"/><path style="opacity:1" fill="#1f2abe" d="M99.5 180.5c-.59 2.859-1.924 5.193-4 7a80.095 80.095 0 0 1-7 3h-4c2.358-1.629 5.024-2.795 8-3.5 2.407-2.183 4.74-4.35 7-6.5z"/><path style="opacity:1" fill="#2b33bc" d="M158.5 188.5c3.381-.04 6.714.293 10 1v3h8v1c-.667 0-1 .333-1 1a18.453 18.453 0 0 1-6-.5 19.177 19.177 0 0 0-5-2.5c-.709-.904-1.709-1.237-3-1-1.679.215-2.679-.452-3-2z"/><path style="opacity:1" fill="#4451a9" d="M95.5 187.5v2c.073 1.527-.594 2.527-2 3-1.32-1.442-2.986-2.108-5-2a80.095 80.095 0 0 0 7-3z"/><path style="opacity:1" fill="#5c63b5" d="M176.5 193.5v-1c2.633-4.609 3.633-9.609 3-15a60.931 60.931 0 0 0-.5-11c-2.719-.944-5.552-1.277-8.5-1a182.023 182.023 0 0 1 10-2l1 1a174.267 174.267 0 0 0-.5 23c-.566 2.729-2.066 4.729-4.5 6z"/><path style="opacity:1" fill="#939dd2" d="M164.5 191.5a19.177 19.177 0 0 1 5 2.5c1.973.495 3.973.662 6 .5-4.384 1.845-8.051.845-11-3z"/><path style="opacity:1" fill="#bf5a05" d="M306.5 194.5c3.462-.982 7.129-1.315 11-1v1c-1 .333-1.667 1-2 2-2.662-1.768-5.662-2.435-9-2z"/><path style="opacity:1" fill="#4a5887" d="M157.5 188.5h1c.321 1.548 1.321 2.215 3 2a154.507 154.507 0 0 0-9.5 11 10.098 10.098 0 0 0-1.5 6c-.951-1.419-1.284-3.085-1-5-1.459-.067-2.792.266-4 1a2.428 2.428 0 0 1 .5-2c4.791-3.651 8.624-7.985 11.5-13z"/><path style="opacity:1" fill="#7680c7" d="M112.5 160.5h1v1c.48 5.322.813 10.655 1 16a333.668 333.668 0 0 1-1 19l-2 1c2.328-12.255 2.661-24.588 1-37z"/><path style="opacity:1" fill="#52360c" d="M317.5 194.5c2.512 1.965 3.845 4.632 4 8-1.208-.734-2.541-1.067-4-1a16.339 16.339 0 0 1-2-5c.333-1 1-1.667 2-2z"/><path style="opacity:1" fill="#8e1d16" d="M317.5 194.5v-1a8.43 8.43 0 0 1 4 .5c.489 2.209 1.489 4.042 3 5.5 1.068.934 2.401 1.268 4 1a12.93 12.93 0 0 1-.5 5c-.671.752-1.504 1.086-2.5 1 .333-3-1-4.333-4-4-.155-3.368-1.488-6.035-4-8z"/><path style="opacity:1" fill="#232dbf" d="M59.5 197.5h1c3.13-.592 5.464.408 7 3-3.334-1.584-6.334-1.084-9 1.5a79.66 79.66 0 0 0-11 12c.88.708 1.547 1.542 2 2.5-3.1-1.033-3.766-3.033-2-6l2-3c3-3.667 6.333-7 10-10z"/><path style="opacity:1" fill="#455968" d="M95.5 189.5c4.415 4.76 8.081 10.094 11 16-1.459-.067-2.792.266-4 1-3.46-4.225-6.46-8.892-9-14 1.406-.473 2.073-1.473 2-3z"/><path style="opacity:1" fill="#090cec" d="M130.5 93.5c1.284 2.114 3.284 3.114 6 3a63.06 63.06 0 0 1-2.5 14c-.822 7.845-.656 15.511.5 23-.239 1.967.094 3.801 1 5.5 2.428.747 4.094-.086 5-2.5 1.261-3.32 2.928-3.654 5-1a35.849 35.849 0 0 1 3 6.5 51.004 51.004 0 0 1-7.5 9.5 12.93 12.93 0 0 0-.5 5c-1.29.558-2.123 1.558-2.5 3a34.78 34.78 0 0 1-2 10l-.5 12c.009 4.393.676 8.393 2 12-.306 2.885.027 5.552 1 8l2 5c2.643 1.479 5.143 1.146 7.5-1a16.242 16.242 0 0 1 0 8c-3.521 1.676-5.687 4.343-6.5 8l-2 3c.146-2.442-.687-3.109-2.5-2a12.93 12.93 0 0 1-.5-5h-7v8a32.462 32.462 0 0 1-8-.5c1.103-1.68.77-3.18-1-4.5-.791 11.646-2.291 22.979-4.5 34a6.547 6.547 0 0 1-3 3c-2.359 5.393-4.025 10.726-5 16a62.567 62.567 0 0 1-17.5 2 4.932 4.932 0 0 0 .5 3c2.77-.825 5.437-1.159 8-1a29.517 29.517 0 0 0 4.5 2.5l-4 2c.916.278 1.582.778 2 1.5a84.9 84.9 0 0 0-13 .5c-.752.671-1.086 1.504-1 2.5-.333 1-1 1.667-2 2-1.815 1.13-3.815 1.796-6 2 1.128-2.938 2.295-5.938 3.5-9a63.035 63.035 0 0 0 5.5-8h2a61.234 61.234 0 0 0 15-1c3.591-8.572 4.924-17.572 4-27v-4c1.314-2.415 1.981-5.248 2-8.5l-.5-8.5c-.099-2.153-.933-3.819-2.5-5a390.457 390.457 0 0 1-4-11c1.599.268 2.932-.066 4-1 1.644.214 3.144-.12 4.5-1 2.949-15.041 3.782-30.041 2.5-45h-2v-1c.233-6.597-2.1-12.097-7-16.5 2.544-1.481 4.21-3.648 5-6.5a34.251 34.251 0 0 1 8-1.5c1.369-1.719 2.369-3.552 3-5.5a12.93 12.93 0 0 1-.5 5 8.905 8.905 0 0 0-3 4 57.396 57.396 0 0 0-3.5 13.5c.038 3.888 1.204 4.388 3.5 1.5.29-2.452.956-4.785 2-7l.5 5a80.656 80.656 0 0 0-4 18.5 553.176 553.176 0 0 1 3 21.5c-4.384 3.599-6.05 8.265-5 14 2.41.421 4.243 1.754 5.5 4 3.394-.956 6.894-1.289 10.5-1a1363.608 1363.608 0 0 0-1-31h3a112.97 112.97 0 0 0 .5 15c-.163-13.23 1.003-26.23 3.5-39 1.588-1.613 2.588-3.613 3-6 3.48-1.868 3.147-3.702-1-5.5-3.746 1.214-6.579.048-8.5-3.5a168.192 168.192 0 0 1-1-25c-1.487-.655-2.653-1.655-3.5-3 1.203-4.651 1.203-9.318 0-14-1.322-.17-2.489.163-3.5 1a98.432 98.432 0 0 0-.5 14 70.733 70.733 0 0 0-4-16c4.198-.446 8.198-1.446 12-3z"/><path style="opacity:1" fill="#818bd4" d="M59.5 197.5c-3.667 3-7 6.333-10 10 1.667-5 5-8.333 10-10z"/><path style="opacity:1" fill="#3c3ebc" d="M113.5 196.5c-.014 3.751-1.347 6.751-4 9l2-8 2-1z"/><path style="opacity:1" fill="#bac1e1" d="M203.5 221.5a31.147 31.147 0 0 1 2-2c-.837-3.007-2.17-5.674-4-8v-2c-2.539-7.931-7.872-11.264-16-10 .111-.617.444-1.117 1-1.5 6.073-.958 11.073.875 15 5.5.862 4.969 2.362 9.636 4.5 14 4.541 3.119 3.707 4.452-2.5 4z"/><path style="opacity:1" fill="#593805" d="M321.5 202.5c3-.333 4.333 1 4 4-.667 0-1 .333-1 1-2.227-.901-3.227-2.567-3-5z"/><path style="opacity:1" fill="#0a0deb" d="M67.5 200.5c1.406.473 2.073 1.473 2 3a36.771 36.771 0 0 0 3 9c.537 5.293-1.63 8.626-6.5 10a158.174 158.174 0 0 1-8.5-2c-2.28-1.928-4.947-2.928-8-3v-1c-.453-.958-1.12-1.792-2-2.5a79.66 79.66 0 0 1 11-12c2.666-2.584 5.666-3.084 9-1.5z"/><path style="opacity:1" fill="#c1c9f2" d="M138.5 194.5a145.495 145.495 0 0 0 3 9 5.576 5.576 0 0 0 3 1c-.787 1.604-2.12 2.271-4 2l-2-5v-7z"/><path style="opacity:1" fill="#9fa6ae" d="M171.5 204.5c-5.354.069-10.687.402-16 1 3.05-1.435 6.383-2.102 10-2 2.196.005 4.196.338 6 1z"/><path style="opacity:1" fill="#44556e" d="m171.5 204.5 7 2c-1.051.722-1.718 1.722-2 3-1.929.269-3.595-.231-5-1.5a42.479 42.479 0 0 0-13 0 17.341 17.341 0 0 1-7 3.5c.734-1.208 1.067-2.541 1-4 1.21-.432 2.21-1.099 3-2a161.574 161.574 0 0 1 16-1z"/><path style="opacity:1" fill="#c96d0e" d="M302.5 201.5c-.815 1.337-1.982 2.337-3.5 3-.353 1.172-.187 2.338.5 3.5a11.803 11.803 0 0 1-2 3.5c-1.694 1.027-3.027 2.361-4 4 1.319-3.978 2.652-7.978 4-12a11.637 11.637 0 0 1 5-2z"/><path style="opacity:1" fill="#4551aa" d="M60.5 197.5c7.222-1.819 11.222 1.181 12 9a41.541 41.541 0 0 1 8-1c2.131.814 4.464 1.314 7 1.5 1.256.417 1.923 1.25 2 2.5-4.797-.379-9.464.121-14 1.5a284.132 284.132 0 0 1-2 9.5 43.123 43.123 0 0 0-1-13c-.65-1.684-1.65-3.017-3-4 .073-1.527-.594-2.527-2-3-1.536-2.592-3.87-3.592-7-3z"/><path style="opacity:1" fill="#3e44b7" d="M201.5 209.5c-2.668-.957-4.168-2.957-4.5-6-4.232-2.64-8.399-2.64-12.5 0-1.562.233-2.895.9-4 2 .919-2.589 2.586-4.589 5-6 8.128-1.264 13.461 2.069 16 10z"/><path style="opacity:1" fill="#425480" d="M80.5 205.5c6.94-.536 13.606.464 20 3v4a82.973 82.973 0 0 0-11-3c-.077-1.25-.744-2.083-2-2.5-2.536-.186-4.869-.686-7-1.5z"/><path style="opacity:1" fill="#181cc9" d="M108.5 207.5c-1.068.934-2.401 1.268-4 1a390.457 390.457 0 0 0 4 11l-3-2c-.25-1.422-1.083-2.422-2.5-3-1.9-5.413-.067-7.747 5.5-7z"/><path style="opacity:1" fill="#2a30be" d="M150.5 207.5a13.116 13.116 0 0 1-1 7c-1.983.315-3.316 1.315-4 3-1.762.762-2.762 2.096-3 4h-1c.813-3.657 2.979-6.324 6.5-8a16.242 16.242 0 0 0 0-8c-2.357 2.146-4.857 2.479-7.5 1 1.88.271 3.213-.396 4-2 .667 0 1-.333 1-1 1.208-.734 2.541-1.067 4-1-.284 1.915.049 3.581 1 5z"/><path style="opacity:1" fill="#3b45ac" d="M106.5 205.5h3l-1 2c-5.567-.747-7.4 1.587-5.5 7 1.417.578 2.25 1.578 2.5 3-1.792-.134-3.458.199-5 1a5.728 5.728 0 0 1-1-3 5.727 5.727 0 0 0 1-3v-4c1-.333 1.667-1 2-2 1.208-.734 2.541-1.067 4-1z"/><path style="opacity:1" fill="#0b0dea" d="M201.5 209.5v2c1.019 3.372 1.019 6.706 0 10h-2c-2.864-.436-5.197.397-7 2.5a72.367 72.367 0 0 1-12 .5 28.156 28.156 0 0 0-2-7c2.001-4.652 4.001-9.319 6-14 4.101-2.64 8.268-2.64 12.5 0 .332 3.043 1.832 5.043 4.5 6z"/><path style="opacity:1" fill="#4a5699" d="M47.5 210.5c-1.766 2.967-1.1 4.967 2 6v1c-2.726.236-5.059-.597-7-2.5a34.505 34.505 0 0 1 5-4.5z"/><path style="opacity:1" fill="#4654a8" d="M150.5 207.5h2c.067 1.459-.266 2.792-1 4-.108 2.014.558 3.68 2 5 .073 1.527-.594 2.527-2 3l-6-2c.684-1.685 2.017-2.685 4-3a13.116 13.116 0 0 0 1-7z"/><path style="opacity:1" fill="#3843ae" d="M201.5 211.5c1.83 2.326 3.163 4.993 4 8a31.147 31.147 0 0 0-2 2h-2c1.019-3.294 1.019-6.628 0-10z"/><path style="opacity:1" fill="#c93c06" d="M345.5 239.5a17.902 17.902 0 0 0-6-4c-1.474-.936-2.474-2.27-3-4l4-2c1.474-2.427 1.307-4.76-.5-7a45.132 45.132 0 0 0-9.5-5.5c-2.652-2.848-4.652-6.015-6-9.5 0-.667.333-1 1-1 .996.086 1.829-.248 2.5-1a12.93 12.93 0 0 0 .5-5c-1.599.268-2.932-.066-4-1 1.544-.203 2.878-.87 4-2a3.647 3.647 0 0 1 1.5 1c-.141 4.507-.808 8.84-2 13 7.314 3.245 13.147 8.245 17.5 15-1.674 1.849-2.674 4.016-3 6.5a35.849 35.849 0 0 0 3 6.5z"/><path style="opacity:1" fill="#425689" d="M153.5 216.5c3.508 1.925 4.841 4.925 4 9-.958-.453-1.792-1.119-2.5-2-.21 1.558-.71 2.891-1.5 4 .217-2.921-.449-5.587-2-8 1.406-.473 2.073-1.473 2-3z"/><path style="opacity:1" fill="#edce24" d="M317.5 201.5c1.459-.067 2.792.266 4 1-.227 2.433.773 4.099 3 5 1.348 3.485 3.348 6.652 6 9.5a45.132 45.132 0 0 1 9.5 5.5c1.807 2.24 1.974 4.573.5 7-1.915.284-3.581-.049-5-1 3.752-.001 4.752-1.667 3-5-2.576-.782-4.576-2.282-6-4.5-1.887-.78-3.554-.613-5 .5-.992-.172-1.658.162-2 1a30.233 30.233 0 0 0-3-3.5c3.006-3.794 2.506-6.961-1.5-9.5a35.382 35.382 0 0 0-3.5-6z"/><path style="opacity:1" fill="#f7f013" d="M306.5 194.5c3.338-.435 6.338.232 9 2a16.339 16.339 0 0 0 2 5 35.382 35.382 0 0 1 3.5 6c4.006 2.539 4.506 5.706 1.5 9.5a30.233 30.233 0 0 1 3 3.5c3.043 4.342 6.71 8.009 11 11 .526 1.73 1.526 3.064 3 4 .127 3.832 1.96 6.499 5.5 8 .663 4.501.163 4.835-1.5 1a28.043 28.043 0 0 0-5-1.5l-3-5a4.934 4.934 0 0 0-3-.5v3h-3c-.553-3.956-1.386-3.956-2.5 0-1.011-.837-2.178-1.17-3.5-1 .423 2.281-.244 3.948-2 5l-2.5-5-.5 2.5a79.652 79.652 0 0 0 5 13.5c-.131.876.202 1.543 1 2l2-9a59.97 59.97 0 0 1 5 9l1-1.5a57.56 57.56 0 0 0-3-8l1-1.5c3.738 3.114 6.738 6.781 9 11a97.478 97.478 0 0 1 0-10 64.292 64.292 0 0 0 6.5 7 4.934 4.934 0 0 0 .5-3c1.374 2.017 1.207 4.017-.5 6a7.293 7.293 0 0 1-2-3c-.684 1.284-.517 2.451.5 3.5a112.97 112.97 0 0 1-15 .5c-.532 5.297-1.366 5.297-2.5 0a46.607 46.607 0 0 0-5.5 6c-.232-1.832-1.398-3.498-3.5-5a343.522 343.522 0 0 0 .5 32c-.247 1.213-.914 1.88-2 2 .167-10.672 0-21.339-.5-32-.232-1.237-.732-2.237-1.5-3 0-.667-.333-1-1-1a686.452 686.452 0 0 1-3-36c.437-3.307-.23-6.307-2-9a23.72 23.72 0 0 0-4 5c-2.556 1.593-4.222 3.927-5 7-1.12 1.333-2.453 1.833-4 1.5 1.028-2.761 1.028-5.594 0-8.5a272.002 272.002 0 0 0 2-6 11.803 11.803 0 0 0 2-3.5c-.687-1.162-.853-2.328-.5-3.5 1.518-.663 2.685-1.663 3.5-3 2.595-1.514 3.929-3.848 4-7z"/><path style="opacity:1" fill="#a77407" d="M310.5 221.5c-1.058-1.1-1.892-2.434-2.5-4a18.473 18.473 0 0 1-3.5 2v-2a23.72 23.72 0 0 1 4-5c1.77 2.693 2.437 5.693 2 9z"/><path style="opacity:1" fill="#786a00" d="M308.5 202.5c1.548.321 2.215 1.321 2 3-2.748.098-3.414-.902-2-3z"/><path style="opacity:1" fill="#cc2e05" d="M306.5 194.5c-.071 3.152-1.405 5.486-4 7a11.637 11.637 0 0 0-5 2 3922.172 3922.172 0 0 0-4 12c-.997 2.505-.997 5.172 0 8-.961 1.765-1.295 3.765-1 6a11.988 11.988 0 0 1 6 1c.798-.457 1.131-1.124 1-2 .667 0 1-.333 1-1a49.937 49.937 0 0 0 4-5.5c1.867-.711 3.367-.211 4.5 1.5.499 5.323.666 10.656.5 16a1192.991 1192.991 0 0 1-2-15.5c-1.049-.492-2.049-.326-3 .5-1.911 7.581-6.245 9.414-13 5.5-1.074-.739-1.741-1.739-2-3a79.339 79.339 0 0 1 7-24.5c3-1.667 5.333-4 7-7 .825-.886 1.825-1.219 3-1z"/><path style="opacity:1" fill="#4f53be" d="M49.5 217.5c3.053.072 5.72 1.072 8 3a9.82 9.82 0 0 0 4 3c-5.121.08-9.121-1.92-12-6z"/><path style="opacity:1" fill="#47577c" d="M99.5 215.5a5.728 5.728 0 0 0 1 3 32.894 32.894 0 0 1-3 7 24.935 24.935 0 0 1-7-.5c-.556-.383-.89-.883-1-1.5a5.575 5.575 0 0 1 3 1c1.671-3.653 4.005-6.653 7-9z"/><path style="opacity:1" fill="#2128bf" d="M184.5 203.5a5831.212 5831.212 0 0 1-6 14 28.156 28.156 0 0 1 2 7 72.367 72.367 0 0 0 12-.5c1.803-2.103 4.136-2.936 7-2.5a9.82 9.82 0 0 0-4 3c-4.808 1.742-9.808 2.409-15 2-3.94-6.601-3.94-13.267 0-20v-1c1.105-1.1 2.438-1.767 4-2z"/><path style="opacity:1" fill="#1b23c0" d="M69.5 203.5c1.35.983 2.35 2.316 3 4a43.123 43.123 0 0 1 1 13c-2.76 2.758-6.093 4.092-10 4-.992.172-1.658-.162-2-1a9.82 9.82 0 0 1-4-3c2.797.741 5.63 1.407 8.5 2 4.87-1.374 7.037-4.707 6.5-10a36.771 36.771 0 0 1-3-9z"/><path style="opacity:1" fill="#b9bdf6" d="M199.5 221.5h4c-2.022 2.193-4.689 3.193-8 3a9.82 9.82 0 0 1 4-3z"/><path style="opacity:1" fill="#f1f115" d="M335.5 228.5a51.267 51.267 0 0 1-8-9c1.446-1.113 3.113-1.28 5-.5 1.424 2.218 3.424 3.718 6 4.5 1.752 3.333.752 4.999-3 5z"/><path style="opacity:1" fill="#9ca2e3" d="M73.5 220.5c-.203 1.544-.87 2.878-2 4-2.81 1.3-5.476 1.3-8 0 3.907.092 7.24-1.242 10-4z"/><path style="opacity:1" fill="#909adc" d="M89.5 223.5c-4.756-.4-8.59 1.267-11.5 5a40.833 40.833 0 0 0-1.5 14c-4.139-8.379-2.139-14.879 6-19.5 2.538-.796 4.872-.629 7 .5z"/><path style="opacity:1" fill="#707ad1" d="M108.5 222.5c.99 6.145 1.323 12.478 1 19v4c-.825 4.147-1.325 8.481-1.5 13a51.22 51.22 0 0 0-2.5 4c2.39-13.114 3.39-26.447 3-40z"/><path style="opacity:1" fill="#3c498d" d="M171.5 224.5v1h-10c3.106-1.934 6.439-2.268 10-1z"/><path style="opacity:1" fill="#515ab5" d="M178.5 206.5h2c-3.94 6.733-3.94 13.399 0 20h-1a14.698 14.698 0 0 1-3.5-3 65.613 65.613 0 0 1 .5-14c.282-1.278.949-2.278 2-3z"/><path style="opacity:1" fill="#8792d3" d="M195.5 224.5c-.381 1.431-1.381 2.264-3 2.5-4.52.814-8.854.647-13-.5h1c5.192.409 10.192-.258 15-2z"/><path style="opacity:1" fill="#f7d525" d="M297.5 211.5a272.002 272.002 0 0 1-2 6c1.028 2.906 1.028 5.739 0 8.5 1.547.333 2.88-.167 4-1.5.778-3.073 2.444-5.407 5-7v2c-2.278 2.152-3.612 4.819-4 8 0 .667-.333 1-1 1l-6-1v-4c-.997-2.828-.997-5.495 0-8 .973-1.639 2.306-2.973 4-4z"/><path style="opacity:1" fill="#ab9708" d="M327.5 219.5a51.267 51.267 0 0 0 8 9c1.419.951 3.085 1.284 5 1l-4 2c-4.29-2.991-7.957-6.658-11-11 .342-.838 1.008-1.172 2-1z"/><path style="opacity:1" fill="#252bbb" d="M157.5 225.5h14c.958.453 1.792 1.119 2.5 2 .499 4.655.666 9.321.5 14h-2a72.367 72.367 0 0 0-.5-12c-3.822-2.392-7.655-2.392-11.5 0h-7v-2c.79-1.109 1.29-2.442 1.5-4 .708.881 1.542 1.547 2.5 2z"/><path style="opacity:1" fill="#9ba6ca" d="M171.5 225.5v-1c2.252.416 3.752 1.749 4.5 4 .84 4.613.34 8.946-1.5 13a98.432 98.432 0 0 0-.5-14c-.708-.881-1.542-1.547-2.5-2z"/><path style="opacity:1" fill="#dd861f" d="M293.5 223.5v4l6 1c.131.876-.202 1.543-1 2a11.988 11.988 0 0 0-6-1c-.295-2.235.039-4.235 1-6z"/><path style="opacity:1" fill="#7c87d7" d="M153.5 229.5v1a11.743 11.743 0 0 0-5 3c.467-2.797 2.133-4.131 5-4z"/><path style="opacity:1" fill="#1b28c1" d="M108.5 219.5c1.567 1.181 2.401 2.847 2.5 5l.5 8.5c-.019 3.252-.686 6.085-2 8.5.323-6.522-.01-12.855-1-19v-3z"/><path style="opacity:1" fill="#0908f2" d="M139.5 224.5v9c-1.157 8.824-1.324 17.824-.5 27 1.738 7.408 6.071 12.741 13 16a210.393 210.393 0 0 1 7.5-4 40.914 40.914 0 0 1 9 .5 31.245 31.245 0 0 0 9 5.5c.357 7.878-1.976 8.878-7 3-8.917-1.44-17.917-1.106-27 1a30.768 30.768 0 0 1-6.5-2c-1.699-.113-2.866.553-3.5 2-.958.453-1.792 1.119-2.5 2-2.646 5.629-3.146 11.462-1.5 17.5.184 1.376.851 2.209 2 2.5 2.667 2.333 2.667 4.667 0 7-1.542.801-3.208 1.134-5 1 .302-2.559-.032-4.893-1-7v-4a20.093 20.093 0 0 1-6-1.5 32.6 32.6 0 0 0-4-4.5c.293-3.937-.04-7.77-1-11.5a84.902 84.902 0 0 0-13-.5c-.418-.722-1.084-1.222-2-1.5l4-2a29.517 29.517 0 0 1-4.5-2.5c-2.563-.159-5.23.175-8 1a4.932 4.932 0 0 1-.5-3 62.567 62.567 0 0 0 17.5-2c.975-5.274 2.641-10.607 5-16a6.547 6.547 0 0 0 3-3c2.209-11.021 3.709-22.354 4.5-34 1.77 1.32 2.103 2.82 1 4.5 2.646.497 5.313.664 8 .5v-8h7a12.93 12.93 0 0 0 .5 5c1.813-1.109 2.646-.442 2.5 2z"/><path style="opacity:1" fill="#0c05f5" d="M153.5 229.5h7c3.606-.289 7.106.044 10.5 1-.189 6.305-.355 12.638-.5 19a351.116 351.116 0 0 1-16-3.5c-3.625-2.206-4.792-5.373-3.5-9.5a19.177 19.177 0 0 0 2.5-5v-2z"/><path style="opacity:1" fill="#2b37ac" d="M141.5 221.5a221.28 221.28 0 0 0-1 27c-.987-4.805-1.321-9.805-1-15v-9l2-3z"/><path style="opacity:1" fill="#aa9d04" d="M321.5 244.5a54.878 54.878 0 0 0 3 8.5c-.028 1.07-.361 1.903-1 2.5a79.652 79.652 0 0 1-5-13.5l.5-2.5 2.5 5z"/><path style="opacity:1" fill="#747ec6" d="M103.5 233.5c4.094 7.378 2.094 12.544-6 15.5a18.991 18.991 0 0 1-8 1.5c5.04-1.105 9.54-3.438 13.5-7 .498-3.317.665-6.65.5-10z"/><path style="opacity:1" fill="#ddcf1e" d="M339.5 235.5a17.902 17.902 0 0 1 6 4v1a40.144 40.144 0 0 1 10 11 57.878 57.878 0 0 0-6.5-3c-1.749.248-2.582 1.248-2.5 3a4.934 4.934 0 0 1-.5 3 64.292 64.292 0 0 1-6.5-7 97.478 97.478 0 0 0 0 10c-2.262-4.219-5.262-7.886-9-11l-1 1.5a57.56 57.56 0 0 1 3 8l-1 1.5a59.97 59.97 0 0 0-5-9l-2 9c-.798-.457-1.131-1.124-1-2 .639-.597.972-1.43 1-2.5a54.878 54.878 0 0 1-3-8.5c1.756-1.052 2.423-2.719 2-5 1.322-.17 2.489.163 3.5 1 1.114-3.956 1.947-3.956 2.5 0h3v-3a4.934 4.934 0 0 1 3 .5l3 5c1.718.346 3.385.846 5 1.5 1.663 3.835 2.163 3.501 1.5-1-3.54-1.501-5.373-4.168-5.5-8z"/><path style="opacity:1" fill="#363bb0" d="M153.5 230.5v1c-7.278 6.866-6.611 12.866 2 18a19.22 19.22 0 0 1-6-1c-.531-2.044-1.698-3.711-3.5-5a16.242 16.242 0 0 1 0-8c.708-.881 1.542-1.547 2.5-2a11.743 11.743 0 0 1 5-3z"/><path style="opacity:1" fill="#1f29bc" d="M89.5 223.5c.11.617.444 1.117 1 1.5 2.31.497 4.643.663 7 .5a4.932 4.932 0 0 0 .5 3c2.232 1.343 4.066 3.01 5.5 5a50.464 50.464 0 0 1-.5 10c-3.96 3.562-8.46 5.895-13.5 7-2.398-.241-4.398.426-6 2-1.644.214-3.144-.12-4.5-1a67.643 67.643 0 0 0-2.5-9c-.31-4.767.19-9.434 1.5-14 2.91-3.733 6.744-5.4 11.5-5z"/><path style="opacity:1" fill="#0b08f0" d="M83.5 225.5c4.324.427 8.658.761 13 1a4.932 4.932 0 0 0 .5 3c7.58 6.742 7.08 12.576-1.5 17.5-5.148 1.74-10.314 2.24-15.5 1.5-2.99-8.448-1.823-16.115 3.5-23z"/><path style="opacity:1" fill="#1019d8" d="M172.5 241.5a182.023 182.023 0 0 0-2 10 13.116 13.116 0 0 1-7 1 46.702 46.702 0 0 0-8-3c-8.611-5.134-9.278-11.134-2-18a19.177 19.177 0 0 1-2.5 5c-1.292 4.127-.125 7.294 3.5 9.5a351.116 351.116 0 0 0 16 3.5c.145-6.362.311-12.695.5-19-3.394-.956-6.894-1.289-10.5-1 3.845-2.392 7.678-2.392 11.5 0 .499 3.986.666 7.986.5 12z"/><path style="opacity:1" fill="#8f9acb" d="M149.5 248.5a19.22 19.22 0 0 0 6 1 46.702 46.702 0 0 1 8 3c1.987.843 4.154 1.51 6.5 2 1.623-1.421 2.79-3.088 3.5-5a11.988 11.988 0 0 0 1 6 4.457 4.457 0 0 1-1.5 2 648.77 648.77 0 0 0-22.5-7.5c-.556-.383-.889-.883-1-1.5z"/><path style="opacity:1" fill="#969ae8" d="M89.5 250.5c-1.602 1.574-3.602 2.241-6 2 1.602-1.574 3.602-2.241 6-2z"/><path style="opacity:1" fill="#c55505" d="M310.5 221.5a686.452 686.452 0 0 0 3 36c-.996.086-1.829-.248-2.5-1a188.576 188.576 0 0 1-1.5-17 128.507 128.507 0 0 0-.5-16c-1.133-1.711-2.633-2.211-4.5-1.5a49.937 49.937 0 0 1-4 5.5c.388-3.181 1.722-5.848 4-8a18.473 18.473 0 0 0 3.5-2c.608 1.566 1.442 2.9 2.5 4z"/><path style="opacity:1" fill="#c55103" d="M345.5 240.5c3.016.843 5.683 2.343 8 4.5.833 2.167 2.333 3.667 4.5 4.5.483.948.649 1.948.5 3h3c.204 2.185.87 4.185 2 6l-8-7a40.144 40.144 0 0 0-10-11z"/><path style="opacity:1" fill="#4046b0" d="M172.5 241.5h1v8c-.71 1.912-1.877 3.579-3.5 5-2.346-.49-4.513-1.157-6.5-2a13.116 13.116 0 0 0 7-1 182.023 182.023 0 0 1 2-10z"/><path style="opacity:1" fill="#d62d09" d="M274.5 261.5c-2.185-.204-4.185-.87-6-2-1.1-1.058-2.434-1.892-4-2.5a38.064 38.064 0 0 0-15 .5c-1.452 2.622-3.619 4.288-6.5 5a79.853 79.853 0 0 1-7.5 10l-2 1c.94-3.214 2.44-6.214 4.5-9a110.14 110.14 0 0 0 10.5-9.5c4.565-1.645 9.231-2.312 14-2l10 3c.924.85.924 1.85 0 3 .556 1.011 1.222 1.844 2 2.5z"/><path style="opacity:1" fill="#7280b3" d="M76.5 242.5a67.643 67.643 0 0 1 2.5 9c1.356.88 2.856 1.214 4.5 1-1.685 2.318-4.019 3.318-7 3v-13z"/><path style="opacity:1" fill="#f2c322" d="m268.5 259.5 1 2a64.899 64.899 0 0 0-5-2.5 98.432 98.432 0 0 0-14-.5 4.934 4.934 0 0 1-.5 3 82.45 82.45 0 0 0-6.5 3 125.85 125.85 0 0 1-9 13 20.69 20.69 0 0 0 1-5 79.853 79.853 0 0 0 7.5-10c2.881-.712 5.048-2.378 6.5-5a38.064 38.064 0 0 1 15-.5c1.566.608 2.9 1.442 4 2.5z"/><path style="opacity:1" fill="#fafb01" d="M363.5 286.5c-.25 1.422-1.083 2.422-2.5 3-.034 5.089-.2 10.089-.5 15-1.603-.188-2.937.312-4 1.5.079 3.79.412 7.624 1 11.5-1.882-.142-3.882.358-6 1.5-1.256.417-1.923 1.25-2 2.5-.617.111-1.117.444-1.5 1a584.662 584.662 0 0 0-2.5 15c-1.943 1.895-3.443 4.228-4.5 7 .093-4.326.093-8.659 0-13a4.457 4.457 0 0 0-1.5-2c-.929 1.189-1.262 2.522-1 4-.768.763-1.268 1.763-1.5 3-.075-2.435-.908-3.102-2.5-2-.32-3.584-1.487-4.251-3.5-2a62.732 62.732 0 0 1-4.5-11.5c-1-.667-2-.667-3 0a54.628 54.628 0 0 1-2 4.5c-2.114.534-3.948 1.534-5.5 3-1.322-1.974-.822-3.808 1.5-5.5 1.585-.085 2.918-.251 4-.5a176.05 176.05 0 0 0-8-2.5c1.333-2 1.333-4 0-6a4.934 4.934 0 0 1 3-.5v-7h3a29.2 29.2 0 0 0-1-7.5 7.297 7.297 0 0 1 2-3.5c-1.101-2.488-.434-4.488 2-6 .669-8.377 1.669-16.377 3-24 1.322.17 2.489-.163 3.5-1l1 2c2.106-1.791 4.606-2.458 7.5-2v-3a32.462 32.462 0 0 0 8-.5c.808-1.706 2.141-2.539 4-2.5 1.841 3.857 4.508 7.191 8 10 .825.886 1.825 1.219 3 1a72.367 72.367 0 0 0 .5 12c.374 1.991 1.207 3.658 2.5 5z"/><path style="opacity:1" fill="#1d27c1" d="M109.5 245.5c.924 9.428-.409 18.428-4 27a61.234 61.234 0 0 1-15 1c4.534-.716 9.2-1.383 14-2a21.127 21.127 0 0 0 1-9 51.22 51.22 0 0 1 2.5-4c.175-4.519.675-8.853 1.5-13z"/><path style="opacity:1" fill="#cf6606" d="M268.5 259.5c1.815 1.13 3.815 1.796 6 2 1.779 1.17 2.779 2.836 3 5l-3-2a18.924 18.924 0 0 1-5-3l-1-2z"/><path style="opacity:1" fill="#f0ae21" d="M363.5 259.5c1.406.473 2.073 1.473 2 3a32.874 32.874 0 0 1 4 10h-1c-2.461-3.986-4.127-8.32-5-13z"/><path style="opacity:1" fill="#8b92dc" d="M141.5 221.5h1c-1.806 15.11-1.306 30.11 1.5 45a14.51 14.51 0 0 1 4.5 4.5 56.68 56.68 0 0 0 15-.5l-4 2c-6.71 2.263-12.21.596-16.5-5a52.381 52.381 0 0 1-2.5-19 221.28 221.28 0 0 1 1-27z"/><path style="opacity:1" fill="#2f34ac" d="M163.5 270.5c7.57-.558 12.903 2.442 16 9 .295 2.235-.039 4.235-1 6 .302-2.559-.032-4.893-1-7a31.245 31.245 0 0 1-9-5.5 40.914 40.914 0 0 0-9-.5l4-2z"/><path style="opacity:1" fill="#f8c326" d="M314.5 258.5c.768.763 1.268 1.763 1.5 3 .5 10.661.667 21.328.5 32 .343 1.983-.324 3.317-2 4a210.651 210.651 0 0 0 0-39z"/><path style="opacity:1" fill="#4c51b4" d="M105.5 262.5a21.127 21.127 0 0 1-1 9c-4.8.617-9.466 1.284-14 2h-2l1-2a43.116 43.116 0 0 0 13-1 475.573 475.573 0 0 1 3-8z"/><path style="opacity:1" fill="#c54a04" d="M313.5 257.5c.667 0 1 .333 1 1a210.651 210.651 0 0 1 0 39c-.766 4.427-2.433 8.427-5 12-2.641-1.01-4.641-2.676-6-5a2463.816 2463.816 0 0 0-11-18c2.55.061 4.05 1.394 4.5 4 5.829 3.329 8.996 8.329 9.5 15h4c.812-4.975 1.645-9.975 2.5-15 .5-10.995.667-21.995.5-33z"/><path style="opacity:1" fill="#171fc7" d="M139.5 233.5c-.321 5.195.013 10.195 1 15a52.381 52.381 0 0 0 2.5 19c4.29 5.596 9.79 7.263 16.5 5a210.393 210.393 0 0 0-7.5 4c-6.929-3.259-11.262-8.592-13-16-.824-9.176-.657-18.176.5-27z"/><path style="opacity:1" fill="#ce330b" d="M274.5 261.5c3.609.275 5.609 2.275 6 6a31.5 31.5 0 0 1 8.5 7c.114 4.068 1.28 7.735 3.5 11a25.14 25.14 0 0 1-4.5-4 326.556 326.556 0 0 1-10.5-15c-.221-2.164-1.221-3.83-3-5z"/><path style="opacity:1" fill="#8b95d0" d="m89.5 271.5-1 2c-.996-.086-1.83.248-2.5 1a50.547 50.547 0 0 0-6 11 25.154 25.154 0 0 1-4.5 4 48.939 48.939 0 0 1 9.5-16 9.173 9.173 0 0 1 4.5-2z"/><path style="opacity:1" fill="#eea21d" d="M370.5 274.5c1.54 2.338 2.206 5.005 2 8-1.723-2.28-2.389-4.947-2-8z"/><path style="opacity:1" fill="#ce3705" d="M256.5 273.5a135.733 135.733 0 0 0 10 4.5c1.351 2.264 3.017 4.098 5 5.5 1.466.847 2.3 2.18 2.5 4 .816 1.323 1.983 1.989 3.5 2a23.91 23.91 0 0 0 2.5 9c.708.881 1.542 1.547 2.5 2a6.547 6.547 0 0 0 3 3v5a262.857 262.857 0 0 1-13 2c2.645-1.81 5.645-2.81 9-3 .408-3.099-.759-5.433-3.5-7a232.335 232.335 0 0 1-6-13 51.592 51.592 0 0 1-9.5-8.5c-2.588-1.686-5.255-1.853-8-.5a65.066 65.066 0 0 1-6.5 7c-5.417 9.171-10.084 18.837-14 29a348.897 348.897 0 0 1-6.5 39 6.846 6.846 0 0 0-4 1 4.457 4.457 0 0 1-1.5-2 128.507 128.507 0 0 1-.5-16l2 2v3a18.346 18.346 0 0 0 2 9 18.404 18.404 0 0 0 2-7v-6c2.669-4.824 3.669-10.157 3-16a79.937 79.937 0 0 1 5-19c1.968-4.316 3.968-8.649 6-13 3.647-6.705 8.647-12.038 15-16z"/><path style="opacity:1" fill="#4b5aa3" d="M179.5 279.5c.998 3.506.998 7.172 0 11-1.464.905-2.798.905-4 0l-1-2c2.119.032 3.452-.968 4-3 .961-1.765 1.295-3.765 1-6z"/><path style="opacity:1" fill="#0d18d9" d="M170.5 281.5c-6.342-.166-12.675 0-19 .5-1.442.377-2.442 1.21-3 2.5-3.871.315-7.538-.018-11-1-1.068-.934-2.401-1.268-4-1 .634-1.447 1.801-2.113 3.5-2a30.768 30.768 0 0 0 6.5 2c9.083-2.106 18.083-2.44 27-1z"/><path style="opacity:1" fill="#272fbf" d="M177.5 278.5c.968 2.107 1.302 4.441 1 7-.548 2.032-1.881 3.032-4 3l-4-4c-.111-.617-.444-1.117-1-1.5a64.218 64.218 0 0 0-16 0c-.916.278-1.582.778-2 1.5h-3c.558-1.29 1.558-2.123 3-2.5 6.325-.5 12.658-.666 19-.5 5.024 5.878 7.357 4.878 7-3z"/><path style="opacity:1" fill="#828bdc" d="M170.5 284.5c-6.307-1.171-12.64-1.171-19 0 .418-.722 1.084-1.222 2-1.5a64.218 64.218 0 0 1 16 0c.556.383.889.883 1 1.5z"/><path style="opacity:1" fill="#1d24c6" d="M101.5 283.5a84.902 84.902 0 0 1 13 .5c.96 3.73 1.293 7.563 1 11.5-.979-3.125-1.313-6.458-1-10h-21c-2.12-.175-4.12.159-6 1-.086-.996.248-1.829 1-2.5a84.9 84.9 0 0 1 13-.5z"/><path style="opacity:1" fill="#c63501" d="M365.5 262.5c.958.453 1.792 1.119 2.5 2 4.578 7.805 7.412 16.138 8.5 25-1.874-1.582-3.207-3.582-4-6v-1c.206-2.995-.46-5.662-2-8l-1-2a32.874 32.874 0 0 0-4-10z"/><path style="opacity:1" fill="#5a60cb" d="M137.5 283.5c3.462.982 7.129 1.315 11 1h3c-4.734 2.236-9.734 2.569-15 1-1.943.287-3.277 1.287-4 3 0-3.333 1.667-5 5-5z"/><path style="opacity:1" fill="#6068c9" d="M93.5 285.5c-3.606 1.815-6.94 4.148-10 7 .233-1.562.9-2.895 2-4 1-.333 1.667-1 2-2 1.88-.841 3.88-1.175 6-1z"/><path style="opacity:1" fill="#2429c7" d="M133.5 282.5c1.599-.268 2.932.066 4 1-3.333 0-5 1.667-5 5a54.057 54.057 0 0 0-2 9 51.569 51.569 0 0 1 1 7c-1.149-.291-1.816-1.124-2-2.5-1.646-6.038-1.146-11.871 1.5-17.5.708-.881 1.542-1.547 2.5-2z"/><path style="opacity:1" fill="#2731b2" d="M88.5 273.5a63.035 63.035 0 0 1-5.5 8 1179.267 1179.267 0 0 0-3.5 9c2.185-.204 4.185-.87 6-2-1.1 1.105-1.767 2.438-2 4a44.87 44.87 0 0 1-10 1v-3c.342-.838 1.008-1.172 2-1a25.154 25.154 0 0 0 4.5-4 50.547 50.547 0 0 1 6-11c.67-.752 1.504-1.086 2.5-1z"/><path style="opacity:1" fill="#db7f16" d="M372.5 283.5c.793 2.418 2.126 4.418 4 6v8c-.667 0-1-.333-1-1a94.92 94.92 0 0 1-3-13z"/><path style="opacity:1" fill="#636d8c" d="M73.5 290.5v3a44.87 44.87 0 0 0 10-1c-.418.722-1.084 1.222-2 1.5a42.479 42.479 0 0 1-13 0l-2-2c2.42-.29 4.754-.79 7-1.5z"/><path style="opacity:1" fill="#96a0b0" d="M175.5 290.5c1.202.905 2.536.905 4 0 .677 9.052-.656 9.052-4 0z"/><path style="opacity:1" fill="#f1b624" d="M277.5 289.5c.708 1.878 1.874 3.545 3.5 5l1.5 6c-.958-.453-1.792-1.119-2.5-2a23.91 23.91 0 0 1-2.5-9z"/><path style="opacity:1" fill="#f6d325" d="M233.5 280.5a121.682 121.682 0 0 0-1.5 12l-1-1c-5.971 14.715-8.138 30.048-6.5 46h3v6a31.147 31.147 0 0 0-2 2 71.254 71.254 0 0 0-2-4v-3c-2.463-20.562.87-39.895 10-58z"/><path style="opacity:1" fill="#585cbe" d="M101.5 285.5h13c-.313 3.542.021 6.875 1 10 1.512 3.701 3.512 7.034 6 10a61.562 61.562 0 0 1-8.5-8c-.789-3.591-.622-7.091.5-10.5-4.188-.176-8.188-.676-12-1.5z"/><path style="opacity:1" fill="#b1921f" d="M375.5 296.5c0 .667.333 1 1 1-1.333 2.333-1.333 4.667 0 7-1.809-1.599-3.142-3.599-4-6a89.673 89.673 0 0 0-6-4c-1.554-1.395-1.221-2.061 1-2 2.582.911 4.582 2.577 6 5 .683-.363 1.35-.696 2-1z"/><path style="opacity:1" fill="#f6c028" d="M241.5 289.5a1572.959 1572.959 0 0 0-6 13c.282-5.237 2.282-9.57 6-13z"/><path style="opacity:1" fill="#faf40d" d="M269.5 261.5a18.924 18.924 0 0 0 5 3c2.017 5.117.35 8.45-5 10-2.858-2.502-6.191-4.169-10-5a18.725 18.725 0 0 1-8 2c-.3 4.476-2.467 5.81-6.5 4-3.41 1.374-3.243 2.041.5 2 .901 3.741-.432 5.741-4 6v6c-3.718 3.43-5.718 7.763-6 13a79.937 79.937 0 0 0-5 19 3773.895 3773.895 0 0 0-3 16h-3c-1.638-15.952.529-31.285 6.5-46l1 1c.304-4.048.804-8.048 1.5-12a5.727 5.727 0 0 1 1-3 125.85 125.85 0 0 0 9-13 82.45 82.45 0 0 1 6.5-3 4.934 4.934 0 0 0 .5-3 98.432 98.432 0 0 1 14 .5 64.899 64.899 0 0 1 5 2.5z"/><path style="opacity:1" fill="#1a23cd" d="M115.5 295.5a32.6 32.6 0 0 1 4 4.5 20.093 20.093 0 0 0 6 1.5v4h-4c-2.488-2.966-4.488-6.299-6-10z"/><path style="opacity:1" fill="#c51f21" d="M461.5 296.5c-.36 7.556-1.36 14.889-3 22a148.16 148.16 0 0 1 1.5-20c.278-.916.778-1.582 1.5-2z"/><path style="opacity:1" fill="#f5d221" d="M282.5 300.5c5.372 1.411 7.039 4.744 5 10-4.833 1.743-9.833 2.41-15 2 4.804-1.361 9.804-2.361 15-3 .241-2.398-.426-4.398-2-6a6.547 6.547 0 0 1-3-3z"/><path style="opacity:1" fill="#383eb6" d="M122.5 305.5h3c.968 2.107 1.302 4.441 1 7 1.792.134 3.458-.199 5-1v3c-2.462 2.553-4.795 2.553-7 0 .095-3.192-.571-6.192-2-9z"/><path style="opacity:1" fill="#d07e0f" d="M285.5 303.5c1.574 1.602 2.241 3.602 2 6-5.196.639-10.196 1.639-15 3h-4l2-2h2a262.857 262.857 0 0 0 13-2v-5z"/><path style="opacity:1" fill="#f8ed16" d="m274.5 264.5 3 2a326.556 326.556 0 0 0 10.5 15 25.14 25.14 0 0 0 4.5 4v1a2463.816 2463.816 0 0 1 11 18 43.836 43.836 0 0 1-2-1 10.258 10.258 0 0 0-1.5 4c-1.183 1.231-2.349 1.231-3.5 0 3.211-3.553 2.378-5.553-2.5-6-1.261.259-2.261.926-3 2l-1-1a16.242 16.242 0 0 0 0 8c1.671 1.776 3.504 2.11 5.5 1a98.984 98.984 0 0 0 2.5 9l1-1c1.845.55 3.345 1.55 4.5 3-.825.886-1.825 1.219-3 1 .356 3.276-.644 5.943-3 8-.023-2.1.644-3.933 2-5.5-.51-1.826-1.344-1.993-2.5-.5a141.889 141.889 0 0 0-8.5 21c-1.6.752-3.1 1.752-4.5 3 .365-3.294.865-6.627 1.5-10a133.837 133.837 0 0 0 2.5-12 54.266 54.266 0 0 1 6.5-11l-1-1a325.386 325.386 0 0 1-5 6 41.541 41.541 0 0 0-1-8 111.396 111.396 0 0 0-21 1.5 11.38 11.38 0 0 1-2 2.5 166.209 166.209 0 0 1-14 5.5c-.989 2.158-2.656 3.325-5 3.5a514.367 514.367 0 0 1 3-4c4.2-2.492 8.2-5.158 12-8 2.28-1.723 4.947-2.389 8-2h4c5.167.41 10.167-.257 15-2 2.039-5.256.372-8.589-5-10l-1.5-6c-1.626-1.455-2.792-3.122-3.5-5-1.517-.011-2.684-.677-3.5-2-.2-1.82-1.034-3.153-2.5-4-2.808-7.204-7.808-10.538-15-10-6.353 3.962-11.353 9.295-15 16v-6c3.568-.259 4.901-2.259 4-6-3.743.041-3.91-.626-.5-2 4.033 1.81 6.2.476 6.5-4a18.725 18.725 0 0 0 8-2c3.809.831 7.142 2.498 10 5 5.35-1.55 7.017-4.883 5-10z"/><path style="opacity:1" fill="#d17a0e" d="M256.5 273.5c7.192-.538 12.192 2.796 15 10-1.983-1.402-3.649-3.236-5-5.5a135.733 135.733 0 0 1-10-4.5z"/><path style="opacity:1" fill="#5e68b3" d="M130.5 297.5c4.605 5.518 4.938 11.184 1 17v-3c2.667-2.333 2.667-4.667 0-7a51.569 51.569 0 0 0-1-7z"/><path style="opacity:1" fill="#c64501" d="M235.5 272.5a20.69 20.69 0 0 1-1 5 5.727 5.727 0 0 0-1 3c-9.13 18.105-12.463 37.438-10 58l-2-2c-1.163-21.076 2.004-41.409 9.5-61 .708-.881 1.542-1.547 2.5-2l2-1z"/><path style="opacity:1" fill="#c13500" d="m270.5 310.5-2 2c-3.053-.389-5.72.277-8 2-6.094 2.089-11.427 5.422-16 10-.173-3.67 1.493-6.17 5-7.5l14-6a24.935 24.935 0 0 1 7-.5z"/><path style="opacity:1" fill="#c2a711" d="M285.5 339.5c-1.278.282-2.278.949-3 2l1-6c1.574-1.602 2.241-3.602 2-6-1.599.268-2.932-.066-4-1a8.43 8.43 0 0 0 4-.5 27.319 27.319 0 0 0 3-6.5 325.386 325.386 0 0 0 5-6l1 1a54.266 54.266 0 0 0-6.5 11 133.837 133.837 0 0 1-2.5 12z"/><path style="opacity:1" fill="#727c85" d="M124.5 314.5c2.205 2.553 4.538 2.553 7 0 .086.996-.248 1.829-1 2.5-4.019 2.338-8.353 3.004-13 2 2.7-1.011 5.033-2.511 7-4.5z"/><path style="opacity:1" fill="#f3ea17" d="M368.5 272.5h1l1 2c-.389 3.053.277 5.72 2 8v1a94.92 94.92 0 0 0 3 13c-.65.304-1.317.637-2 1-1.418-2.423-3.418-4.089-6-5-2.221-.061-2.554.605-1 2h-3c.166 9.006 0 18.006-.5 27a51.22 51.22 0 0 0-2.5 4 145.053 145.053 0 0 0-.5-17 305.45 305.45 0 0 0-2 22c.383-.556.883-.889 1.5-1a50.518 50.518 0 0 1-5 11l-3-4a5.576 5.576 0 0 1-3 1l1-6c1.333-3.333 1.333-6.667 0-10 .077-1.25.744-2.083 2-2.5 2.118-1.142 4.118-1.642 6-1.5a88.985 88.985 0 0 1-1-11.5c1.063-1.188 2.397-1.688 4-1.5.3-4.911.466-9.911.5-15 1.417-.578 2.25-1.578 2.5-3-.319-2.25.181-4.25 1.5-6a86.748 86.748 0 0 1 2.5 9.5l-1 1a29.812 29.812 0 0 0 5-.5 18.453 18.453 0 0 0-.5-6c-3.835-3.346-4.668-7.346-2.5-12z"/><path style="opacity:1" fill="#9f9200" d="M360.5 325.5c-.934 1.068-1.268 2.401-1 4-.617.111-1.117.444-1.5 1a305.45 305.45 0 0 1 2-22c.499 5.657.666 11.324.5 17z"/><path style="opacity:1" fill="#d21c24" d="M458.5 318.5c-.537 8.029-2.204 15.696-5 23a149.174 149.174 0 0 0 2.5-21c.417-1.256 1.25-1.923 2.5-2z"/><path style="opacity:1" fill="#f5b521" d="M281.5 328.5a75.46 75.46 0 0 0-16 1c.111-.617.444-1.117 1-1.5 5.184-.816 10.184-.65 15 .5z"/><path style="opacity:1" fill="#8f9894" d="M6.5 322.5c1.629 5.091 2.629 10.424 3 16-2.004-5.025-3.004-10.358-3-16z"/><path style="opacity:1" fill="#b9ab16" d="M349.5 321.5c1.333 3.333 1.333 6.667 0 10a18.453 18.453 0 0 0-.5-6c-.741 4.902-1.908 9.568-3.5 14v-2c.766-4.999 1.6-9.999 2.5-15 .383-.556.883-.889 1.5-1z"/><path style="opacity:1" fill="#e38c14" d="M230.5 321.5c.669 5.843-.331 11.176-3 16a3773.895 3773.895 0 0 1 3-16z"/><path style="opacity:1" fill="#766500" d="m349.5 331.5-1 6c-1.037 1.43-1.704 3.097-2 5-.904-.709-1.237-1.709-1-3 1.592-4.432 2.759-9.098 3.5-14 .495 1.973.662 3.973.5 6z"/><path style="opacity:1" fill="#f8f410" d="M288.5 321.5a27.319 27.319 0 0 1-3 6.5 8.43 8.43 0 0 1-4 .5c-4.816-1.15-9.816-1.316-15-.5-.556.383-.889.883-1 1.5a219.403 219.403 0 0 1-6 2.5 46.081 46.081 0 0 1-6 5.5c-1.839 1.252-3.672 1.252-5.5 0-.292 1.826-.125 3.659.5 5.5-2.673 6.523-4.006 13.356-4 20.5a19.22 19.22 0 0 1-1 6c-2.691 14.111-3.358 28.445-2 43 .285 1.788-.048 3.455-1 5l-1-.5c-.482-4.129-2.149-7.629-5-10.5v-1c-2.387-8.63-3.387-17.463-3-26.5.11-11.263 1.11-22.43 3-33.5.65-.304 1.317-.637 2-1a26.724 26.724 0 0 0 1.5-7 232.014 232.014 0 0 0 7.5-11c2.344-.175 4.011-1.342 5-3.5a166.209 166.209 0 0 0 14-5.5 11.38 11.38 0 0 0 2-2.5 111.396 111.396 0 0 1 21-1.5 41.541 41.541 0 0 1 1 8z"/><path style="opacity:1" fill="#c83b01" d="M242.5 327.5a42.401 42.401 0 0 1-6.5 11 17.758 17.758 0 0 0-1.5 7 6709.97 6709.97 0 0 0-5 16c.443-10.541 2.943-20.541 7.5-30 1.651-1.71 3.484-3.044 5.5-4z"/><path style="opacity:1" fill="#8a7803" d="M297.5 331.5c-3.702 6.097-6.369 12.764-8 20-.859 1.274-1.526 1.108-2-.5.648-1.44.981-2.94 1-4.5a141.889 141.889 0 0 1 8.5-21c1.156-1.493 1.99-1.326 2.5.5-1.356 1.567-2.023 3.4-2 5.5z"/><path style="opacity:1" fill="#ece323" d="M319.5 337.5c-.577-1.273-1.243-1.273-2 0-.789 7.885-3.956 14.552-9.5 20a10.134 10.134 0 0 0-1.5 4c-1.347.528-2.681.695-4 .5a212.06 212.06 0 0 1 6-19l-1-1.5a66.282 66.282 0 0 1-8 14c-.825.886-1.825 1.219-3 1 1.332-7.357 3.999-14.024 8-20a8.43 8.43 0 0 0 .5 4 109.888 109.888 0 0 0 8.5-5 4.934 4.934 0 0 0 .5 3c1.663-1.658 2.496-3.658 2.5-6a6.846 6.846 0 0 0 4-1c1.257 2.299.923 4.299-1 6z"/><path style="opacity:1" fill="#f3bd1d" d="M260.5 314.5c-3.8 2.842-7.8 5.508-12 8a514.367 514.367 0 0 0-3 4 232.014 232.014 0 0 1-7.5 11 26.724 26.724 0 0 1-1.5 7c-.683.363-1.35.696-2 1 .023-2.427.523-4.76 1.5-7a42.401 42.401 0 0 0 6.5-11c.282-1.278.949-2.278 2-3 4.573-4.578 9.906-7.911 16-10z"/><path style="opacity:1" fill="#e59237" d="M223.5 341.5a71.254 71.254 0 0 1 2 4 31.147 31.147 0 0 1 2-2 18.404 18.404 0 0 1-2 7 18.346 18.346 0 0 1-2-9z"/><path style="opacity:1" fill="#f6d122" d="M253.5 337.5c-.175 2.344-1.342 4.011-3.5 5a357.326 357.326 0 0 0-4.5 21h-1c-.006-7.144 1.327-13.977 4-20.5-.625-1.841-.792-3.674-.5-5.5 1.828 1.252 3.661 1.252 5.5 0z"/><path style="opacity:1" fill="#ba630f" d="m283.5 335.5-1 6c.125 3.108-1.208 5.108-4 6a37.325 37.325 0 0 0-9 3c-.131-.876.202-1.543 1-2 6.802-1.992 11.135-6.326 13-13z"/><path style="opacity:1" fill="#ca3d02" d="M281.5 328.5c1.068.934 2.401 1.268 4 1 .241 2.398-.426 4.398-2 6-1.865 6.674-6.198 11.008-13 13-.798.457-1.131 1.124-1 2l-4 3c-2.354.513-4.354 1.679-6 3.5a65.65 65.65 0 0 0-11 12.5c-2.469-1.107-3.469-3.107-3-6a357.326 357.326 0 0 1 4.5-21c2.158-.989 3.325-2.656 3.5-5a46.081 46.081 0 0 0 6-5.5 219.403 219.403 0 0 0 6-2.5 75.46 75.46 0 0 1 16-1z"/><path style="opacity:1" fill="#f20209" d="M266.5 330.5h15c.622 6.924-2.045 12.091-8 15.5a63.402 63.402 0 0 0-12 6 101.553 101.553 0 0 1-12.5 11.5c-.427-14.486 5.406-25.486 17.5-33z"/><path style="opacity:1" fill="#cfc10e" d="M243.5 337.5c.647.774.98 1.774 1 3a180.962 180.962 0 0 0-7.5 37c-.477-13.777 1.689-27.111 6.5-40z"/><path style="opacity:1" fill="#f8f018" d="M278.5 347.5c1.912 11.943-2.254 14.943-12.5 9a4.934 4.934 0 0 1-.5-3l4-3a37.325 37.325 0 0 1 9-3z"/><path style="opacity:1" fill="#a49416" d="M304.5 336.5c-4.001 5.976-6.668 12.643-8 20 1.175.219 2.175-.114 3-1a66.282 66.282 0 0 0 8-14l1 1.5a212.06 212.06 0 0 0-6 19c1.319.195 2.653.028 4-.5-1.112 3.446-3.445 5.446-7 6v-8c-1.291-.237-2.291.096-3 1-1.536-1.525-2.536-3.525-3-6-.951.826-1.951.992-3 .5l5.5-4.5a73.922 73.922 0 0 1 4.5-13c2.027-2.365 3.693-5.031 5-8l1 1.5a36.87 36.87 0 0 0-2 5.5z"/><path style="opacity:1" fill="#f0e819" d="M345.5 337.5v2c-2.364 4.306-3.531 8.973-3.5 14 2.573-3.216 4.073-6.883 4.5-11 .296-1.903.963-3.57 2-5-.33 2.657-.663 5.324-1 8a702.66 702.66 0 0 1 2 8h4a33.492 33.492 0 0 1 4-11.5 3.647 3.647 0 0 1-1-1.5c1.867-2.882 4.534-4.215 8-4a12.93 12.93 0 0 1-.5 5 254.009 254.009 0 0 0-11 27l-1-1a19.209 19.209 0 0 1-6.5 3 82.928 82.928 0 0 1 6.5-9 42.302 42.302 0 0 0 3.5-8 75.33 75.33 0 0 1-13 16c.638-1.96.638-3.793 0-5.5 3.633-1.286 5.133-3.786 4.5-7.5-2.42-.988-4.753-.655-7 1a8.905 8.905 0 0 0-3-4c-2.228 1.392-3.394 3.392-3.5 6h-3c.333-3-1-4.333-4-4a57.174 57.174 0 0 1-3.5 10c-2.947-2.494-2.947-5.161 0-8l1 1a63.756 63.756 0 0 1 4.5-13 26.724 26.724 0 0 1 1.5 7c.667 1.333 1.333 1.333 2 0a102.39 102.39 0 0 0 2.5-18c1.592-1.102 2.425-.435 2.5 2 .232-1.237.732-2.237 1.5-3-.262-1.478.071-2.811 1-4a4.457 4.457 0 0 1 1.5 2c.093 4.341.093 8.674 0 13 1.057-2.772 2.557-5.105 4.5-7z"/><path style="opacity:1" fill="#9d8f04" d="M338.5 333.5c1.134 2.466 1.301 5.133.5 8a44.96 44.96 0 0 1-5.5 13l-1-.5a470.72 470.72 0 0 0 6-20.5z"/><path style="opacity:1" fill="#c0b40a" d="M345.5 339.5c-.237 1.291.096 2.291 1 3-.427 4.117-1.927 7.784-4.5 11-.031-5.027 1.136-9.694 3.5-14z"/><path style="opacity:1" fill="#faf707" d="M366.5 294.5a89.673 89.673 0 0 1 6 4c.858 2.401 2.191 4.401 4 6v26c-1.456 5.434-2.29 11.1-2.5 17a64.386 64.386 0 0 1-4.5 4 27.07 27.07 0 0 1 2 4.5c-2.843 4.031-4.176 8.531-4 13.5h-3a137.908 137.908 0 0 0-3 16c-2.455 4.234-3.789 8.9-4 14v1a5.727 5.727 0 0 0-3 1c-1.225.652-1.892 1.819-2 3.5a341.425 341.425 0 0 0-1.5 19.5 102.84 102.84 0 0 1-3 11 102.954 102.954 0 0 1-2-19c-1.651-3.633-2.818-7.3-3.5-11 .131-5.348-.869-10.348-3-15v-1a18.621 18.621 0 0 0-3-8.5c.556-.383.889-.883 1-1.5 2.632-2.994 5.299-5.994 8-9a19.209 19.209 0 0 0 6.5-3l1 1a254.009 254.009 0 0 1 11-27 12.93 12.93 0 0 0 .5-5c-3.466-.215-6.133 1.118-8 4a3.647 3.647 0 0 0 1 1.5 33.492 33.492 0 0 0-4 11.5h-4a702.66 702.66 0 0 0-2-8c.337-2.676.67-5.343 1-8a5.576 5.576 0 0 0 3-1l3 4a50.518 50.518 0 0 0 5-11c-.268-1.599.066-2.932 1-4a51.22 51.22 0 0 1 2.5-4c.5-8.994.666-17.994.5-27h3z"/><path style="opacity:1" fill="#897b00" d="M355.5 353.5a8.43 8.43 0 0 1 .5-4 338.024 338.024 0 0 1 4.5-8l1 1c-1.269 4.209-3.269 7.876-6 11z"/><path style="opacity:1" fill="#f6c324" d="M234.5 345.5a210.983 210.983 0 0 0-3 33.5c-.387 9.037.613 17.87 3 26.5a51.22 51.22 0 0 0-2.5-4 211.893 211.893 0 0 1-2.5-40 6709.97 6709.97 0 0 1 5-16z"/><path style="opacity:1" fill="#efdd25" d="M297.5 331.5a32.462 32.462 0 0 0 .5 8c.708-.881 1.542-1.547 2.5-2a73.922 73.922 0 0 0-4.5 13l-5.5 4.5c1.049.492 2.049.326 3-.5.464 2.475 1.464 4.475 3 6l-2 2a78.995 78.995 0 0 0-12-3c-2.299.099-4.299.766-6 2-3.892 1.562-7.225 3.895-10 7a79.663 79.663 0 0 0-10 11 12.93 12.93 0 0 1 .5-5c3.411-4.91 7.245-9.243 11.5-13a81.805 81.805 0 0 0-7-2 13.271 13.271 0 0 1-5.5 5c-1.009 1.525-1.509 3.192-1.5 5h-5c.609 3.505-.558 6.172-3.5 8-.183 2.865-.683 5.531-1.5 8v-9c2.088-1.836 3.421-4.169 4-7a65.65 65.65 0 0 1 11-12.5c1.646-1.821 3.646-2.987 6-3.5a4.934 4.934 0 0 0 .5 3c10.246 5.943 14.412 2.943 12.5-9 2.792-.892 4.125-2.892 4-6 .722-1.051 1.722-1.718 3-2a133.544 133.544 0 0 0-1.5 10c1.4-1.248 2.9-2.248 4.5-3a11.187 11.187 0 0 1-1 4.5c.474 1.608 1.141 1.774 2 .5 1.631-7.236 4.298-13.903 8-20z"/><path style="opacity:1" fill="#a19402" d="M355.5 353.5a42.302 42.302 0 0 1-3.5 8 82.928 82.928 0 0 0-6.5 9 1108.587 1108.587 0 0 0-8 9c-.838-.342-1.172-1.008-1-2 2.024-2.685 4.024-5.352 6-8a75.33 75.33 0 0 0 13-16z"/><path style="opacity:1" fill="#d78610" d="M294.5 362.5c.351 3.312-.982 5.645-4 7a24.257 24.257 0 0 1 3-5.5c-5.415-2.943-11.082-3.776-17-2.5 1.701-1.234 3.701-1.901 6-2a78.995 78.995 0 0 1 12 3z"/><path style="opacity:1" fill="#775903" d="M244.5 363.5h1c-.469 2.893.531 4.893 3 6-.579 2.831-1.912 5.164-4 7-.968-2.107-1.302-4.441-1-7a19.22 19.22 0 0 0 1-6z"/><path style="opacity:1" fill="#f9f411" d="M256.5 379.5c-1.1 1.105-1.767 2.438-2 4-.65.304-1.317.637-2 1a21.127 21.127 0 0 0-1 9h-1c-2.261 7.703-3.594 15.703-4 24a34.251 34.251 0 0 1-1.5-8c-.383-.556-.883-.889-1.5-1-.325-7.852.008-15.518 1-23 .817-2.469 1.317-5.135 1.5-8 2.942-1.828 4.109-4.495 3.5-8h5c-.009-1.808.491-3.475 1.5-5a13.271 13.271 0 0 0 5.5-5 81.805 81.805 0 0 1 7 2c-4.255 3.757-8.089 8.09-11.5 13a12.93 12.93 0 0 0-.5 5z"/><path style="opacity:1" fill="#f5ed1d" d="M305.5 385.5a4.934 4.934 0 0 0-3 .5c-1.527 2.69-3.527 4.857-6 6.5a458.942 458.942 0 0 0-10 5 13.116 13.116 0 0 1-1-7c3.128-.345 5.961-1.345 8.5-3 3.065-4.093 4.899-8.427 5.5-13-1.142 1.326-2.476 2.326-4 3a17.65 17.65 0 0 0 .5-6c-3.361 4.102-5.527 8.769-6.5 14-1.25.077-2.083.744-2.5 2l-.5-3.5a352.443 352.443 0 0 0 4-14.5c3.018-1.355 4.351-3.688 4-7l2-2c.709-.904 1.709-1.237 3-1v8c3.555-.554 5.888-2.554 7-6 2.25-1.744 4.417-3.744 6.5-6a127.05 127.05 0 0 1-2 20 80.368 80.368 0 0 0-5.5 10z"/><path style="opacity:1" fill="#f8d520" d="M376.5 330.5a163.094 163.094 0 0 1-3.5 28c-2.882 9.615-6.716 18.615-11.5 27 .69-5.419 1.69-10.753 3-16h3c-.176-4.969 1.157-9.469 4-13.5a27.07 27.07 0 0 0-2-4.5 64.386 64.386 0 0 0 4.5-4c.21-5.9 1.044-11.566 2.5-17z"/><path style="opacity:1" fill="#f9f50c" d="m355.5 251.5 8 7v1c.873 4.68 2.539 9.014 5 13-2.168 4.654-1.335 8.654 2.5 12 .495 1.973.662 3.973.5 6a29.812 29.812 0 0 1-5 .5l1-1a86.748 86.748 0 0 0-2.5-9.5c-1.319 1.75-1.819 3.75-1.5 6-1.293-1.342-2.126-3.009-2.5-5a72.367 72.367 0 0 1-.5-12c-1.175.219-2.175-.114-3-1-3.492-2.809-6.159-6.143-8-10-1.859-.039-3.192.794-4 2.5a32.462 32.462 0 0 1-8 .5v3c-2.894-.458-5.394.209-7.5 2l-1-2c-1.011.837-2.178 1.17-3.5 1-1.331 7.623-2.331 15.623-3 24-2.434 1.512-3.101 3.512-2 6a7.297 7.297 0 0 0-2 3.5 29.2 29.2 0 0 1 1 7.5h-3v7a4.934 4.934 0 0 0-3 .5c1.333 2 1.333 4 0 6a176.05 176.05 0 0 1 8 2.5c-1.082.249-2.415.415-4 .5-2.322 1.692-2.822 3.526-1.5 5.5 1.552-1.466 3.386-2.466 5.5-3a54.628 54.628 0 0 0 2-4.5c1-.667 2-.667 3 0a62.732 62.732 0 0 0 4.5 11.5c2.013-2.251 3.18-1.584 3.5 2a102.39 102.39 0 0 1-2.5 18c-.667 1.333-1.333 1.333-2 0a26.724 26.724 0 0 0-1.5-7 63.756 63.756 0 0 0-4.5 13l-1-1c-2.947 2.839-2.947 5.506 0 8a57.174 57.174 0 0 0 3.5-10c3-.333 4.333 1 4 4h3c.106-2.608 1.272-4.608 3.5-6a8.905 8.905 0 0 1 3 4c2.247-1.655 4.58-1.988 7-1 .633 3.714-.867 6.214-4.5 7.5.638 1.707.638 3.54 0 5.5a2057.577 2057.577 0 0 1-6 8 372.763 372.763 0 0 1-18 13.5 25.648 25.648 0 0 0-7.5 2.5 18.453 18.453 0 0 1-.5-6c3.002-16.672 6.002-33.339 9-50 1.923-1.701 2.257-3.701 1-6a6.846 6.846 0 0 1-4 1c-.004 2.342-.837 4.342-2.5 6a4.934 4.934 0 0 1-.5-3 109.888 109.888 0 0 1-8.5 5 8.43 8.43 0 0 1-.5-4 36.87 36.87 0 0 1 2-5.5l-1-1.5c-1.307 2.969-2.973 5.635-5 8-.958.453-1.792 1.119-2.5 2a32.462 32.462 0 0 1-.5-8c2.356-2.057 3.356-4.724 3-8 1.175.219 2.175-.114 3-1-1.155-1.45-2.655-2.45-4.5-3l-1 1a98.984 98.984 0 0 1-2.5-9c-1.996 1.11-3.829.776-5.5-1a16.242 16.242 0 0 1 0-8l1 1c.739-1.074 1.739-1.741 3-2 4.878.447 5.711 2.447 2.5 6 1.151 1.231 2.317 1.231 3.5 0a10.258 10.258 0 0 1 1.5-4c.683.363 1.35.696 2 1 1.359 2.324 3.359 3.99 6 5 2.567-3.573 4.234-7.573 5-12 1.676-.683 2.343-2.017 2-4 1.086-.12 1.753-.787 2-2a343.522 343.522 0 0 1-.5-32c2.102 1.502 3.268 3.168 3.5 5a46.607 46.607 0 0 1 5.5-6c1.134 5.297 1.968 5.297 2.5 0a112.97 112.97 0 0 0 15-.5c-1.017-1.049-1.184-2.216-.5-3.5a7.293 7.293 0 0 0 2 3c1.707-1.983 1.874-3.983.5-6-.082-1.752.751-2.752 2.5-3a57.878 57.878 0 0 1 6.5 3z"/><path style="opacity:1" fill="#c24405" d="M376.5 289.5c.809 1.792 1.309 3.792 1.5 6 .283 10.18.783 20.347 1.5 30.5a254.801 254.801 0 0 0-2.5 29.5 36251.17 36251.17 0 0 0-17 41c-.377 1.442-1.21 2.442-2.5 3 .211-5.1 1.545-9.766 4-14 4.784-8.385 8.618-17.385 11.5-27a163.094 163.094 0 0 0 3.5-28v-26c-1.333-2.333-1.333-4.667 0-7v-8z"/><path style="opacity:1" fill="#918204" d="M319.5 337.5c-2.998 16.661-5.998 33.328-9 50h-1c-.787-1.604-2.12-2.271-4-2a80.368 80.368 0 0 1 5.5-10 127.05 127.05 0 0 0 2-20c-2.083 2.256-4.25 4.256-6.5 6a10.134 10.134 0 0 1 1.5-4c5.544-5.448 8.711-12.115 9.5-20 .757-1.273 1.423-1.273 2 0z"/><path style="opacity:1" fill="#c33a04" d="M290.5 369.5c-4.882 8.929-6.882 18.596-6 29-.904-.709-1.237-1.709-1-3 .137-3.679-.529-7.179-2-10.5 1.691-7.038 4.191-13.538 7.5-19.5-6.091-3.265-11.925-2.432-17.5 2.5a12.93 12.93 0 0 1-5 .5c2.775-3.105 6.108-5.438 10-7 5.918-1.276 11.585-.443 17 2.5a24.257 24.257 0 0 0-3 5.5z"/><path style="opacity:1" fill="#b19f1e" d="M295.5 377.5a68.505 68.505 0 0 0-4.5 8c-.69 1.238-1.19 1.238-1.5 0 .973-5.231 3.139-9.898 6.5-14a17.65 17.65 0 0 1-.5 6z"/><path style="opacity:1" fill="#d3bc19" d="M336.5 377.5c-.172.992.162 1.658 1 2-.111.617-.444 1.117-1 1.5a18.621 18.621 0 0 1 3 8.5l-3-4a10.134 10.134 0 0 0-1.5-4 106.835 106.835 0 0 0-15 13 202.115 202.115 0 0 1-1.5 20c-1.713.379-2.713 1.379-3 3-.624-.417-.957-1.084-1-2 .247-1.213.914-1.88 2-2 1.3-1.723 1.967-3.89 2-6.5a50.878 50.878 0 0 0-2-13.5c-3.103 1.812-6.436 2.812-10 3 .241-3.315 1.241-6.315 3-9h1a18.453 18.453 0 0 0 .5 6 25.648 25.648 0 0 1 7.5-2.5 372.763 372.763 0 0 0 18-13.5z"/><path style="opacity:1" fill="#9e8d09" d="M243.5 369.5c-.302 2.559.032 4.893 1 7v9c-.992 7.482-1.325 15.148-1 23a74.058 74.058 0 0 0 1.5 12c.698 1.191 1.531 2.191 2.5 3v1c-.667 0-1 .333-1 1-.605 1.981-1.605 2.315-3 1 .271-4.934-.396-9.6-2-14-1.358-14.555-.691-28.889 2-43z"/><path style="opacity:1" fill="#f4ba26" d="M254.5 383.5c-.507 3.583-1.507 6.917-3 10a21.127 21.127 0 0 1 1-9c.683-.363 1.35-.696 2-1z"/><path style="opacity:1" fill="#bd4d04" d="M305.5 385.5c1.88-.271 3.213.396 4 2-1.759 2.685-2.759 5.685-3 9 3.564-.188 6.897-1.188 10-3a50.878 50.878 0 0 1 2 13.5c-.033 2.61-.7 4.777-2 6.5a57.15 57.15 0 0 0-1-15l-2-2c-2.628 2.133-5.461 2.466-8.5 1-.139-3.075.361-6.075 1.5-9-1.808-.009-3.475.491-5 1.5a190.53 190.53 0 0 1-10 10c-1.249.74-2.249.573-3-.5l8-7c2.473-1.643 4.473-3.81 6-6.5a4.934 4.934 0 0 1 3-.5z"/><path style="opacity:1" fill="#b96507" d="m336.5 385.5 3 4v4c-.765-1.16-1.765-2.16-3-3-1.188 3.058-2.854 5.725-5 8a151.203 151.203 0 0 1 5-13z"/><path style="opacity:1" fill="#c33905" d="M339.5 393.5c1.645 6.783 2.312 13.45 2 20a18.924 18.924 0 0 0 3 5c.166 8.34 0 16.673-.5 25-1.4 2.237-3.233 3.904-5.5 5-.671-1.347-.671-2.514 0-3.5-1.153-1.883-2.819-2.716-5-2.5a19.372 19.372 0 0 1-8-1 70.855 70.855 0 0 1 0-19 111.28 111.28 0 0 1 6-24c2.146-2.275 3.812-4.942 5-8 1.235.84 2.235 1.84 3 3z"/><path style="opacity:1" fill="#f0a723" d="M339.5 390.5c2.131 4.652 3.131 9.652 3 15a24.93 24.93 0 0 1-1 8c.312-6.55-.355-13.217-2-20v-3z"/><path style="opacity:1" fill="#ecc924" d="M290.5 369.5a352.443 352.443 0 0 1-4 14.5l.5 3.5c.417-1.256 1.25-1.923 2.5-2 .31 1.238.81 1.238 1.5 0a68.505 68.505 0 0 1 4.5-8c1.524-.674 2.858-1.674 4-3-.601 4.573-2.435 8.907-5.5 13-2.539 1.655-5.372 2.655-8.5 3a13.116 13.116 0 0 0 1 7 458.942 458.942 0 0 1 10-5l-8 7c-1.956 1.675-3.289 1.342-4-1-.882-10.404 1.118-20.071 6-29z"/><path style="opacity:1" fill="#c13403" d="M266.5 368.5a152.66 152.66 0 0 1-8.5 14c-1.939 9.142-4.773 17.808-8.5 26v-3l1-12h1c1.493-3.083 2.493-6.417 3-10 .233-1.562.9-2.895 2-4a79.663 79.663 0 0 1 10-11z"/><path style="opacity:1" fill="#f3010a" d="M335.5 395.5c3.669 6.7 5.003 14.034 4 22h3c.071 7.697.238 15.363.5 23l-3 3c-2.646-3.867-6.146-5.034-10.5-3.5-1.393-1.171-2.227-2.671-2.5-4.5-.458-14.067 2.376-27.4 8.5-40z"/><path style="opacity:1" fill="#d52207" d="M316.5 413.5c-1.086.12-1.753.787-2 2 .043.916.376 1.583 1 2v5c-1.266-2.395-1.932-5.062-2-8l2-9c-.051-1.6-.384-3.1-1-4.5a79.066 79.066 0 0 0-10-2 18.117 18.117 0 0 0-4.5-5.5 34.527 34.527 0 0 0-6.5 7.5 25.238 25.238 0 0 1-10 0c-1.307-1.943-1.307-3.777 0-5.5-.237 1.291.096 2.291 1 3 .711 2.342 2.044 2.675 4 1 .751 1.073 1.751 1.24 3 .5a190.53 190.53 0 0 0 10-10c1.525-1.009 3.192-1.509 5-1.5-1.139 2.925-1.639 5.925-1.5 9 3.039 1.466 5.872 1.133 8.5-1l2 2a57.15 57.15 0 0 1 1 15z"/><path style="opacity:1" fill="#dc8919" d="M249.5 405.5v6c.597 4.794-.07 9.127-2 13v-1l2-18z"/><path style="opacity:1" fill="#f1db38" d="m250.5 393.5-1 12-2 18c-.969-.809-1.802-1.809-2.5-3a74.058 74.058 0 0 1-1.5-12c.617.111 1.117.444 1.5 1a34.251 34.251 0 0 0 1.5 8c.406-8.297 1.739-16.297 4-24z"/><path style="opacity:1" fill="#f3da34" d="M234.5 406.5c2.851 2.871 4.518 6.371 5 10.5l1 .5c.952-1.545 1.285-3.212 1-5 1.604 4.4 2.271 9.066 2 14a2.428 2.428 0 0 1-.5 2c-.671-.752-1.504-1.086-2.5-1a164.093 164.093 0 0 0-6-21z"/><path style="opacity:1" fill="#c23b03" d="M229.5 361.5c-.43 13.417.403 26.75 2.5 40a51.22 51.22 0 0 1 2.5 4v1a164.093 164.093 0 0 1 6 21c.489 2.824 2.156 4.157 5 4-.117-1.984.55-3.65 2-5-.124-.607-.457-.94-1-1 0-.667.333-1 1-1 1.93-3.873 2.597-8.206 2-13 .722.418 1.222 1.084 1.5 2 1.223 4.783 1.723 9.45 1.5 14-2.222-.322-4.056.345-5.5 2a26.724 26.724 0 0 1-1.5 7l-1-.5a126.282 126.282 0 0 1-6.5-8.5 108.567 108.567 0 0 0-8-22 337.789 337.789 0 0 0-2.5-28.5l.5-12.5c.232-1.237.732-2.237 1.5-3z"/><path style="opacity:1" fill="#c31f24" d="M430.5 398.5c-10.348 20.349-24.681 37.349-43 51 7.227-9.733 15.394-18.733 24.5-27a50.939 50.939 0 0 0 8-14c3.373-3.714 6.873-7.047 10.5-10z"/><path style="opacity:1" fill="#cd6d07" d="M315.5 418.5c2.948 5.435 3.614 11.101 2 17 .302-4.29-.364-8.29-2-12v-5z"/><path style="opacity:1" fill="#ecbb2b" d="M325.5 422.5a70.855 70.855 0 0 0 0 19 19.372 19.372 0 0 0 8 1v1a32.938 32.938 0 0 1-6.5 3c-4.94-.189-9.44-1.189-13.5-3 .967-1.306 2.301-1.973 4-2 .086.996-.248 1.829-1 2.5 2.727.818 5.394.652 8-.5a63.043 63.043 0 0 1-.5-19c.278-.916.778-1.582 1.5-2z"/><path style="opacity:1" fill="#f9ee18" d="M336.5 385.5a151.203 151.203 0 0 0-5 13 111.28 111.28 0 0 0-6 24c-.722.418-1.222 1.084-1.5 2a63.043 63.043 0 0 0 .5 19c-2.606 1.152-5.273 1.318-8 .5.752-.671 1.086-1.504 1-2.5v-6c1.614-5.899.948-11.565-2-17v-1c.287-1.621 1.287-2.621 3-3a202.115 202.115 0 0 0 1.5-20 106.835 106.835 0 0 1 15-13 10.134 10.134 0 0 1 1.5 4z"/><path style="opacity:1" fill="#de7a26" d="M246.5 425.5c.543.06.876.393 1 1-1.45 1.35-2.117 3.016-2 5-2.844.157-4.511-1.176-5-4 .996-.086 1.829.248 2.5 1a2.428 2.428 0 0 0 .5-2c1.395 1.315 2.395.981 3-1z"/><path style="opacity:1" fill="#e5aa2c" d="M344.5 418.5c1.157 8.824 1.324 17.824.5 27a23.65 23.65 0 0 1-3.5 3c.124.607.457.94 1 1-.79.901-1.79 1.568-3 2-1.333 0-2-.667-2-2 .667 0 1-.333 1-1 2.267-1.096 4.1-2.763 5.5-5 .5-8.327.666-16.66.5-25z"/><path style="opacity:1" fill="#f9e323" d="M354.5 401.5a1522.962 1522.962 0 0 0-3 33.5l.5 9.5c.383.556.883.889 1.5 1 0 2 1 3 3 3-1.418 1.808-3.418 2.475-6 2-2.554-.888-5.221-1.221-8-1-.543-.06-.876-.393-1-1a23.65 23.65 0 0 0 3.5-3c.824-9.176.657-18.176-.5-27a18.924 18.924 0 0 1-3-5 24.93 24.93 0 0 0 1-8c.682 3.7 1.849 7.367 3.5 11 .083 6.442.749 12.775 2 19a102.84 102.84 0 0 0 3-11c.314-6.517.814-13.017 1.5-19.5.108-1.681.775-2.848 2-3.5z"/><path style="opacity:1" fill="#c62908" d="M315.5 423.5c1.636 3.71 2.302 7.71 2 12v6c-1.699.027-3.033.694-4 2-.958.453-1.792 1.119-2.5 2-1.666-.84-1.833-.34-.5 1.5a68.953 68.953 0 0 0 23 .5l1 2c.557 1.735.89 3.402 1 5h-3c.193-6.133-2.474-7.8-8-5a411.373 411.373 0 0 1-18-2c-.262-1.478.071-2.811 1-4a66.678 66.678 0 0 0 5.5-2c2.823-5.888 3.656-11.888 2.5-18z"/><path style="opacity:1" fill="#c34008" d="M357.5 400.5a149.282 149.282 0 0 1-2.5 17 132.434 132.434 0 0 0 0 23c.374.916.874 1.75 1.5 2.5 2.982.498 5.982.665 9 .5v7a5.727 5.727 0 0 0-3-1v-2c.904-.709 1.237-1.709 1-3-3.307.551-6.64.884-10 1-.617-.111-1.117-.444-1.5-1l-.5-9.5a1522.962 1522.962 0 0 1 3-33.5 5.727 5.727 0 0 1 3-1z"/><path style="opacity:1" fill="#6f2014" d="M333.5 442.5c2.181-.216 3.847.617 5 2.5-.671.986-.671 2.153 0 3.5 0 .667-.333 1-1 1h-3l-1-2v-5z"/><path style="opacity:1" fill="#d08544" d="M362.5 447.5c-2.512-1.679-4.512-1.345-6 1-2 0-3-1-3-3a76.926 76.926 0 0 0 10-1c.237 1.291-.096 2.291-1 3z"/><path style="opacity:1" fill="#9f430b" d="M313.5 443.5c4.06 1.811 8.56 2.811 13.5 3a32.938 32.938 0 0 0 6.5-3v4a68.953 68.953 0 0 1-23-.5c-1.333-1.84-1.166-2.34.5-1.5.708-.881 1.542-1.547 2.5-2z"/><path style="opacity:1" fill="#5c3b14" d="M362.5 447.5v2c1 2.333.333 3-2 2-.936-1.474-2.27-2.474-4-3 1.488-2.345 3.488-2.679 6-1z"/><path style="opacity:1" fill="#a52122" d="M59.5 436.5h2c.359 1.871 1.359 3.371 3 4.5A122.593 122.593 0 0 1 79 452.5a16.57 16.57 0 0 0 2.5 4c-5.054-2.874-9.72-6.374-14-10.5-3.277-2.766-5.943-5.933-8-9.5z"/><path style="opacity:1" fill="#b99338" d="M356.5 448.5c1.73.526 3.064 1.526 4 3h-4c-2.235.295-4.235-.039-6-1 2.582.475 4.582-.192 6-2z"/><path style="opacity:1" fill="#a8241a" d="M334.5 449.5h3c0 1.333.667 2 2 2 5.667 1.333 11.333 1.333 17 0h4c2.333 1 3 .333 2-2a5.727 5.727 0 0 1 3 1h4v5c-3.525.285-6.858-.381-10-2a196.295 196.295 0 0 0-24 1c-.11-1.598-.443-3.265-1-5z"/><path style="opacity:1" fill="#732f04" d="M342.5 449.5c2.779-.221 5.446.112 8 1 1.765.961 3.765 1.295 6 1-5.667 1.333-11.333 1.333-17 0 1.21-.432 2.21-1.099 3-2z"/><path style="opacity:1" fill="#b12024" d="M387.5 449.5c-2.595 3.626-5.928 6.292-10 8-.214-1.644.12-3.144 1-4.5 2.735-1.915 5.735-3.082 9-3.5z"/><path style="opacity:1" fill="#bf2129" d="M81.5 456.5c1.808-.009 3.475.491 5 1.5 3.881 2.718 7.215 5.884 10 9.5a63.764 63.764 0 0 1-15-11z"/><path style="opacity:1" fill="#b52025" d="M373.5 460.5c-1.647 1.826-3.647 3.16-6 4 .259-3.568 2.259-4.901 6-4z"/><path style="opacity:1" fill="#c51f22" d="M96.5 467.5a48.363 48.363 0 0 1 11 2.5c.805 1.972 2.139 3.472 4 4.5 4.995.342 8.661 2.675 11 7a243.652 243.652 0 0 1-26-14z"/><path style="opacity:1" fill="#c61e24" d="M367.5 464.5c-16.965 12.483-35.632 21.816-56 28a166.943 166.943 0 0 0 19-10.5 43.385 43.385 0 0 1 8-2c2.86-2.554 6.193-4.221 10-5a467.816 467.816 0 0 1 13-9.5 9.86 9.86 0 0 1 6-1z"/><path style="opacity:1" fill="#cd1d23" d="M129.5 484.5a18.453 18.453 0 0 1 6 .5c7.693 5.43 16.36 8.096 26 8l2 3c3.873.27 7.706.77 11.5 1.5 1.785 2.3 3.952 3.967 6.5 5-18.21-3.846-35.543-9.846-52-18z"/><path style="opacity:1" fill="#ac2022" d="M311.5 492.5c-8.269 3.643-16.936 6.31-26 8a371.092 371.092 0 0 1 13-5.5 39.386 39.386 0 0 1 13-2.5z"/><path style="opacity:1" fill="#bc2027" d="M284.5 500.5c-10.903 3.848-22.237 6.181-34 7h-42c-9.332-.535-18.332-2.202-27-5a375.57 375.57 0 0 0 51 4 519.073 519.073 0 0 0 52-6z"/><path style="opacity:1" fill="#861f1f" d="M208.5 507.5h42c-13.993 2.534-27.993 2.534-42 0z"/></svg>