<?xml version="1.0" encoding="UTF-8" standalone="no"?>
<!-- Created with Inkscape (http://www.inkscape.org/) -->

<svg
   xmlns:dc="http://purl.org/dc/elements/1.1/"
   xmlns:cc="http://creativecommons.org/ns#"
   xmlns:rdf="http://www.w3.org/1999/02/22-rdf-syntax-ns#"
   xmlns:svg="http://www.w3.org/2000/svg"
   xmlns="http://www.w3.org/2000/svg"
   xmlns:sodipodi="http://sodipodi.sourceforge.net/DTD/sodipodi-0.dtd"
   xmlns:inkscape="http://www.inkscape.org/namespaces/inkscape"
   id="svg2"
   version="1.1"
   inkscape:version="0.48.3.1 r9886"
   width="1107"
   height="1225"
   sodipodi:docname="Wappen_Alveslohe.png">
  <metadata
     id="metadata8">
    <rdf:RDF>
      <cc:Work
         rdf:about="">
        <dc:format>image/svg+xml</dc:format>
        <dc:type
           rdf:resource="http://purl.org/dc/dcmitype/StillImage" />
        <dc:title></dc:title>
      </cc:Work>
    </rdf:RDF>
  </metadata>
  <defs
     id="defs6" />
  <sodipodi:namedview
     pagecolor="#ffffff"
     bordercolor="#666666"
     borderopacity="1"
     objecttolerance="10"
     gridtolerance="10"
     guidetolerance="10"
     inkscape:pageopacity="0"
     inkscape:pageshadow="2"
     inkscape:window-width="1280"
     inkscape:window-height="962"
     id="namedview4"
     showgrid="false"
     inkscape:zoom="0.21045897"
     inkscape:cx="572.71083"
     inkscape:cy="357.79734"
     inkscape:window-x="-8"
     inkscape:window-y="-8"
     inkscape:window-maximized="1"
     inkscape:current-layer="svg2" />
  <path
     id="Wappen"
     class="wappenbg"
     d="m 5.2281987,4.7186335 1096.8817013,0 0,712.6446165 c 0,294.16835 -254.8386,503.86835 -549.62943,502.68045 C 249.37146,1218.8223 3.5644108,1003.216 4.0381182,718.55113 L 5.2259982,4.7186335 z"
     inkscape:connector-curvature="0"
     style="fill:#22b24c;fill-opacity:1;fill-rule:evenodd;stroke:#000000;stroke-width:10.00000095000000000;stroke-miterlimit:4;stroke-opacity:1;stroke-dasharray:none"
     sodipodi:nodetypes="ccssscc" />
  <path
     style="fill:#eeeeee;stroke:#000000;stroke-width:8;stroke-linecap:butt;stroke-linejoin:miter;stroke-miterlimit:4;stroke-opacity:1;stroke-dasharray:none;fill-opacity:1"
     d="m 404.85976,92.736613 c -1.51676,51.175187 -0.30623,103.998227 0.38514,157.099937 0.54034,41.50122 -2.69164,83.17265 10.2891,124.36068 17.53647,55.64343 44.20772,91.96682 76.93728,136.05253 59.71108,80.42901 172.82399,183.51367 219.8131,184.73674 14.19064,-2.72561 37.82551,-14.23049 63.57891,-30.64318 58.04886,-36.99465 133.71634,-105.77926 184.94555,-203.85464 30.04688,-57.52303 33.00488,-121.08438 32.38847,-187.14885 -0.59717,-64.00301 0.23664,-124.84202 -2.04687,-183.123091 -195.92143,13.355801 -382.43888,20.120901 -586.29068,2.519874 z"
     id="path3757"
     inkscape:connector-curvature="0"
     sodipodi:nodetypes="cssscssscc" />
  <path
     style="fill:#ed1c24;stroke:#000000;stroke-width:8;stroke-linecap:butt;stroke-linejoin:miter;stroke-miterlimit:4;stroke-opacity:1;stroke-dasharray:none;fill-opacity:1"
     d="m 564.41782,232.85679 c -59.4436,39.48578 -126.98473,77.30387 -134.40526,97.07563 -3.54797,27.71261 146.15436,120.80521 245.74964,172.97239 87.64169,45.90598 159.91138,78.26423 159.91138,78.26423 25.56545,9.82544 3.86673,-42.14922 -2.49735,-97.5209 -5.04475,-43.89265 -13.48449,-37.84809 -23.04207,-41.46106 -83.63632,-19.89126 -154.26706,-41.20345 -232.23054,-77.2122 -9.08155,-5.76915 41.65926,-3.42093 108.53075,6.97075 81.85637,12.7203 189.66066,33.93875 255.55447,31.04141 -3.9583,-23.8193 -5.64691,-58.34454 -3.98689,-91.44841 2.45209,-48.89926 15.68832,-59.8868 2.79901,-59.41235 -124.52942,28.90217 -250.24672,50.90498 -374.77614,52.26672 -11.94637,-0.89221 7.40876,-4.8803 35.57677,-18.47137 52.24378,-25.20764 130.66968,-56.84599 174.9627,-70.63565 0.86404,-5.04961 2.61987,-29.35657 3.80094,-53.44211 1.17892,-24.04168 8.32931,-43.12204 -10.85989,-35.52511 -85.48412,31.11815 -131.405,63.70004 -205.08752,106.53803 z"
     id="path2987"
     inkscape:connector-curvature="0"
     sodipodi:nodetypes="ccscsccscsccscscc" />
  <path
     style="fill:#eeeeee;fill-opacity:1;stroke:#000000;stroke-width:8;stroke-linecap:butt;stroke-linejoin:miter;stroke-miterlimit:4;stroke-opacity:1;stroke-dasharray:none"
     d="m 18.166122,826.22025 c 32.948721,-17.91407 63.983359,-22.19541 92.306718,-24.10553 91.46887,3.31501 147.16125,48.65987 217.38204,45.69117 70.74462,0.80088 143.00029,-44.26259 222.33737,-49.60273 75.91659,0.54349 144.27355,43.97996 215.15039,42.27164 81.70169,1.81097 155.99929,-48.36224 231.28868,-48.90689 39.76608,1.36571 67.62828,7.91571 94.68248,22.83323 l 9.851,-65.74102 c -34.5955,-17.23051 -71.3977,-25.63398 -110.47288,-24.94548 -69.28585,4.42086 -136.46746,51.67086 -213.32636,50.23888 -76.40032,-2.00839 -145.05505,-40.78561 -221.98945,-42.61956 -80.60718,1.6095 -148.18512,46.13466 -223.11763,44.99532 -84.17656,0.56407 -137.55389,-39.56444 -212.63052,-42.96749 -39.132106,-0.59814 -74.904378,12.42887 -112.356566,25.92955 z"
     id="path3759"
     inkscape:connector-curvature="0"
     sodipodi:nodetypes="ccccccccccccccc" />
  <path
     style="fill:#eeeeee;fill-opacity:1;stroke:#000000;stroke-width:8;stroke-linecap:butt;stroke-linejoin:miter;stroke-miterlimit:4;stroke-opacity:1;stroke-dasharray:none"
     d="m 41.157942,897.41638 c 12.802522,34.00567 30.987794,64.5829 50.39748,94.0753 22.494368,-4.94426 51.060318,-5.49686 84.835758,2.51987 46.64493,11.03215 83.76226,42.51145 153.71232,41.99795 83.15584,2.7998 148.74114,-52.30599 231.8284,-52.07745 71.9564,-0.72299 143.91281,48.35415 217.54912,49.55755 67.34717,2.6523 174.31974,-66.07702 245.26778,-55.43725 19.6633,-31.01421 33.982,-58.13343 46.1977,-91.55543 -27.7712,-16.58912 -57.9375,-10.9979 -91.55547,-9.23954 -70.65908,11.27214 -129.55388,52.774 -193.19034,52.07741 -80.08079,-0.2752 -155.90441,-49.44104 -228.46858,-50.39749 -74.18689,-0.0948 -143.82132,58.89329 -217.54912,53.75732 -93.28304,-0.67751 -174.24174,-80.3631 -299.025048,-35.27824 z"
     id="path3761"
     inkscape:connector-curvature="0"
     sodipodi:nodetypes="ccccccccccccc" />
  <path
     style="fill:#eeeeee;stroke:#000000;stroke-width:8;stroke-linecap:butt;stroke-linejoin:miter;stroke-miterlimit:4;stroke-opacity:1;stroke-dasharray:none;fill-opacity:1"
     d="m 213.34933,773.1026 c 26.60151,8.06018 42.33521,21.60213 76.43618,22.67886"
     id="path3763"
     inkscape:connector-curvature="0"
     sodipodi:nodetypes="cc" />
  <path
     style="fill:#eeeeee;stroke:#000000;stroke-width:8;stroke-linecap:butt;stroke-linejoin:miter;stroke-miterlimit:4;stroke-opacity:1;stroke-dasharray:none;fill-opacity:1"
     d="m 204.94975,789.90175 c 29.32504,16.22523 60.1444,25.82835 87.35563,29.39853"
     id="path3765"
     inkscape:connector-curvature="0"
     sodipodi:nodetypes="cc" />
  <path
     style="fill:#eeeeee;fill-opacity:1;stroke:#000000;stroke-width:8;stroke-linecap:butt;stroke-linejoin:miter;stroke-miterlimit:4;stroke-opacity:1;stroke-dasharray:none"
     d="m 634.48636,765.66598 c 24.91549,3.16747 66.0252,23.23192 87.78436,23.8158"
     id="path3767"
     inkscape:connector-curvature="0"
     sodipodi:nodetypes="cc" />
  <path
     style="fill:#eeeeee;stroke:#000000;stroke-width:8;stroke-linecap:butt;stroke-linejoin:miter;stroke-miterlimit:4;stroke-opacity:1;stroke-dasharray:none;fill-opacity:1"
     d="m 631.24954,785.70196 c 30.68806,4.10691 62.96785,19.96703 89.29031,24.75766"
     id="path3769"
     inkscape:connector-curvature="0"
     sodipodi:nodetypes="cc" />
  <path
     style="fill:#eeeeee;stroke:#000000;stroke-width:8;stroke-linecap:butt;stroke-linejoin:miter;stroke-miterlimit:4;stroke-opacity:1;stroke-dasharray:none;fill-opacity:1"
     d="m 1056.6672,755.46348 c 12.8793,-1.16001 29.1185,6.91603 39.478,14.27929"
     id="path3771"
     inkscape:connector-curvature="0"
     sodipodi:nodetypes="cc" />
  <path
     style="fill:#eeeeee;stroke:#000000;stroke-width:8;stroke-linecap:butt;stroke-linejoin:miter;stroke-miterlimit:4;stroke-opacity:1;stroke-dasharray:none;fill-opacity:1"
     d="m 1054.9873,776.46243 c 15.0701,1.05367 25.8832,8.91279 38.638,13.43932"
     id="path3773"
     inkscape:connector-curvature="0"
     sodipodi:nodetypes="cc" />
  <path
     style="fill:#eeeeee;fill-opacity:1;stroke:#000000;stroke-width:8;stroke-linecap:butt;stroke-linejoin:miter;stroke-miterlimit:4;stroke-opacity:1;stroke-dasharray:none"
     d="m 656.84716,923.45508 c 21.85654,11.46767 49.37004,22.3077 77.42899,27.82051"
     id="path3775"
     inkscape:connector-curvature="0"
     sodipodi:nodetypes="cc" />
  <path
     style="fill:#eeeeee;fill-opacity:1;stroke:#000000;stroke-width:8;stroke-linecap:butt;stroke-linejoin:miter;stroke-miterlimit:4;stroke-opacity:1;stroke-dasharray:none"
     d="m 650.7338,946.99501 c 24.51631,12.38675 53.30581,24.01959 84.85324,28.71143"
     id="path3777"
     inkscape:connector-curvature="0"
     sodipodi:nodetypes="cc" />
  <path
     style="fill:#eeeeee;stroke:#000000;stroke-width:8;stroke-linecap:butt;stroke-linejoin:miter;stroke-miterlimit:4;stroke-opacity:1;stroke-dasharray:none;fill-opacity:1"
     d="m 643.84891,969.05883 c 30.86766,14.46522 59.48095,23.22082 91.11434,29.15251"
     id="path3779"
     inkscape:connector-curvature="0"
     sodipodi:nodetypes="cc" />
  <path
     style="fill:#eeeeee;stroke:#000000;stroke-width:8;stroke-linecap:butt;stroke-linejoin:miter;stroke-miterlimit:4;stroke-opacity:1;stroke-dasharray:none;fill-opacity:1"
     d="m 230.05533,931.75275 c 23.95553,12.93427 49.6664,22.16681 75.19735,22.97584"
     id="path3781"
     inkscape:connector-curvature="0"
     sodipodi:nodetypes="cc" />
  <path
     style="fill:#eeeeee;fill-opacity:1;stroke:#000000;stroke-width:8;stroke-linecap:butt;stroke-linejoin:miter;stroke-miterlimit:4;stroke-opacity:1;stroke-dasharray:none"
     d="m 222.45712,955.09762 c 27.56113,11.05441 52.3377,21.4204 81.98544,23.44676"
     id="path3783"
     inkscape:connector-curvature="0"
     sodipodi:nodetypes="cc" />
  <path
     style="fill:#eeeeee;fill-opacity:1;stroke:#000000;stroke-width:8;stroke-linecap:butt;stroke-linejoin:miter;stroke-miterlimit:4;stroke-opacity:1;stroke-dasharray:none"
     d="m 215.86921,974.69252 c 25.44591,14.52427 54.79617,27.54918 85.33653,29.39848"
     id="path3785"
     inkscape:connector-curvature="0"
     sodipodi:nodetypes="cc" />
  <path
     style="fill:none;stroke:#000000;stroke-width:6;stroke-linecap:butt;stroke-linejoin:miter;stroke-miterlimit:4;stroke-opacity:1;stroke-dasharray:none"
     d="m 91.712778,998.70886 c 19.552232,-9.74645 51.164552,-8.77719 82.761472,-0.34792 25.92648,1.23234 85.06432,43.62606 165.50545,40.73586 74.04452,1.7818 141.23597,-51.69957 221.88754,-51.7747 37.65941,-6.52529 166.00922,54.6681 225.34928,49.3989 51.3663,2.6725 166.10556,-64.31724 235.79418,-55.83034"
     id="path3794"
     inkscape:connector-curvature="0"
     sodipodi:nodetypes="cccccc" />
  <path
     style="fill:none;stroke:#000000;stroke-width:6;stroke-linecap:butt;stroke-linejoin:miter;stroke-miterlimit:4;stroke-opacity:1;stroke-dasharray:none"
     d="m 18.166875,833.14893 c 17.717794,-13.94621 58.141092,-25.57637 101.379805,-27.22659 61.05861,2.07234 130.93172,45.30606 211.32817,44.93573 84.99684,1.7818 141.25222,-49.17971 222.07397,-49.25491 43.22981,-6.5252 146.76245,47.10856 214.87981,41.83936 73.36983,1.84068 172.78084,-48.85285 215.45382,-48.7592 42.34605,0.0929 87.30725,9.36163 109.81515,26.52712"
     id="path3794-1"
     inkscape:connector-curvature="0"
     sodipodi:nodetypes="cccccsc" />
  <path
     style="fill:none;stroke:#000000;stroke-width:5;stroke-linecap:butt;stroke-linejoin:miter;stroke-miterlimit:4;stroke-opacity:1;stroke-dasharray:none"
     d="m 709.85767,696.41166 c 18.69119,1.41744 35.27675,-8.41546 62.88732,-26.71483 21.84654,-14.47917 46.20815,-29.26589 71.35675,-52.63401 36.42704,-33.84808 76.68849,-77.47284 106.48702,-128.10328 13.89531,-23.60942 25.56035,-50.789 33.83752,-77.58614 20.33192,-65.82399 13.40144,-218.30198 12.06962,-323.922553"
     id="path3814"
     inkscape:connector-curvature="0"
     sodipodi:nodetypes="cssssc" />
</svg>
