<?xml version="1.0" encoding="UTF-8" standalone="no"?>
<!-- Created with Inkscape (http://www.inkscape.org/) -->

<svg
   width="145.61031mm"
   height="171.23717mm"
   viewBox="0 0 145.61031 171.23717"
   version="1.1"
   id="svg9345"
   inkscape:version="1.2.2 (732a01da63, 2022-12-09)"
   sodipodi:docname="Wappen Fahrenkrug2.svg"
   xmlns:inkscape="http://www.inkscape.org/namespaces/inkscape"
   xmlns:sodipodi="http://sodipodi.sourceforge.net/DTD/sodipodi-0.dtd"
   xmlns="http://www.w3.org/2000/svg"
   xmlns:svg="http://www.w3.org/2000/svg">
  <sodipodi:namedview
     id="namedview9347"
     pagecolor="#ffffff"
     bordercolor="#666666"
     borderopacity="1.0"
     inkscape:showpageshadow="2"
     inkscape:pageopacity="0.0"
     inkscape:pagecheckerboard="0"
     inkscape:deskcolor="#d1d1d1"
     inkscape:document-units="mm"
     showgrid="false"
     inkscape:zoom="0.82707583"
     inkscape:cx="275.67001"
     inkscape:cy="324.63771"
     inkscape:current-layer="layer1" />
  <defs
     id="defs9342" />
  <g
     inkscape:label="Ebene 1"
     inkscape:groupmode="layer"
     id="layer1"
     transform="translate(-574.05078,-69.173787)">
    <g
       id="g8994"
       transform="translate(537.84062,4.64753)">
      <path
         id="path8652"
         style="fill:#ffffff;fill-opacity:1;stroke:#000000;stroke-width:1.2;stroke-linecap:round;stroke-dasharray:none;stroke-opacity:1"
         d="m 36.810156,65.126257 v 97.832273 a 72.204979,72.204979 0 0 0 72.205414,72.20489 72.204979,72.204979 0 0 0 72.20489,-72.20437 72.204979,72.204979 0 0 0 0,-5.2e-4 V 65.126257 Z" />
      <path
         id="path8823"
         style="fill:#ff0000;fill-opacity:1;stroke:#000000;stroke-width:1.2;stroke-linecap:round;stroke-dasharray:none;stroke-opacity:1"
         d="m 37.217883,170.18754 a 72.204979,72.204979 0 0 0 71.797687,64.97588 72.204979,72.204979 0 0 0 71.79717,-64.97588 c -19.14146,9.84178 -71.79717,35.96628 -71.79717,35.96628 0,0 -52.656101,-26.1245 -71.797687,-35.96628 z" />
      <g
         id="g8598"
         transform="translate(-192.46479,17.993)">
        <g
           id="g7893"
           transform="translate(-21.4909,-21.758035)">
          <path
             style="fill:#00a002;fill-opacity:1;stroke:#000000;stroke-width:0.7;stroke-linecap:round;stroke-dasharray:none"
             d="m 306.39541,176.30666 c 0,0 -0.66741,-2.16907 -2.41938,-2.30811 -1.75194,-0.13905 -1.80755,0.55617 -2.3359,0.61178 -0.52837,0.0556 -5.1168,-2.41935 -6.00668,0.25028 -0.88987,2.66963 8.75972,6.95216 9.76083,6.78531 1.00113,-0.16685 2.28031,-1.11235 2.28031,-1.11235 z"
             id="path2968" />
          <path
             style="fill:#00a002;fill-opacity:1;stroke:#000000;stroke-width:0.7;stroke-linecap:round;stroke-dasharray:none"
             d="m 304.17071,169.07642 c 0,0 -1.69632,-2.2525 -3.89321,-2.53059 -2.19689,-0.27808 -3.28142,1.2792 -4.33813,1.36263 -1.05675,0.0834 -8.73192,-2.83648 -9.42714,-0.44494 -0.69521,2.39154 4.8109,4.56061 9.00999,5.28364 4.1991,0.72302 8.59288,1.69632 9.23245,0.91768 0.63961,-0.77864 0.36153,-1.75194 0.36153,-1.75194 z"
             id="path2970" />
          <path
             style="fill:#00a002;fill-opacity:1;stroke:#000000;stroke-width:0.7;stroke-linecap:round;stroke-dasharray:none"
             d="m 301.66794,162.17988 c 0,0 -1.36263,-2.41935 -3.44829,-2.66963 -2.08563,-0.25027 -2.11344,1.2792 -3.55949,1.39043 -1.44606,0.11124 -9.26029,-2.33592 -9.64959,0.36152 -0.38934,2.69743 5.03335,3.69855 8.73191,4.56061 3.69853,0.86207 8.70409,0.69522 8.98217,0.16685 0.2781,-0.52836 -0.0278,-1.36262 -0.0278,-1.36262 z"
             id="path2972"
             sodipodi:nodetypes="cssssscc" />
          <path
             style="fill:#00a002;fill-opacity:1;stroke:#000000;stroke-width:0.7;stroke-linecap:round;stroke-dasharray:none"
             d="m 298.55337,153.61483 c 0,0 -0.80645,-1.64071 -3.4761,-1.83537 -2.66962,-0.19466 -3.00331,1.08453 -4.19909,1.25138 -1.19576,0.16686 -9.78863,-1.97441 -10.0111,0.47275 -0.22246,2.44716 4.44937,3.94883 9.09342,4.81089 4.64404,0.86207 9.20466,1.08454 9.59397,0.50056 0.38931,-0.58398 0.22246,-1.77975 0.22246,-1.77975 z"
             id="path2974" />
          <path
             style="fill:#00a002;fill-opacity:1;stroke:#000000;stroke-width:0.7;stroke-linecap:round;stroke-dasharray:none"
             d="m 291.96273,138.26447 c 0,0 -1.05675,-2.80867 -3.42048,-2.64182 -2.36373,0.16685 -2.66962,1.6129 -3.72634,1.83537 -1.05674,0.22247 -11.12345,-2.14127 -11.15126,0.22247 -0.0278,2.36373 4.75528,4.47718 10.01109,5.20021 5.25584,0.72302 9.28809,1.27919 9.6774,0.86207 0.38934,-0.41713 0.38934,-1.33482 0.38934,-1.33482 z"
             id="path2976" />
          <path
             style="fill:#00a002;fill-opacity:1;stroke:#000000;stroke-width:0.7;stroke-linecap:round;stroke-dasharray:none"
             d="m 295.57784,146.52363 c 0,0 -1.00111,-2.16907 -3.47607,-2.2525 -2.47497,-0.0834 -3.25361,0.83426 -4.4772,0.9733 -1.22357,0.13904 -10.98439,-2.41935 -11.31811,0.3059 -0.33369,2.72524 6.17352,4.67185 10.90099,5.22802 4.72747,0.55617 8.98218,1.14015 9.3993,0.63959 0.41714,-0.50055 0.41714,-1.19576 0.41714,-1.19576 z"
             id="path2978" />
          <path
             style="fill:#00a002;fill-opacity:1;stroke:#000000;stroke-width:0.7;stroke-linecap:round;stroke-dasharray:none"
             d="m 288.93158,131.39574 c 0,0 -2.08565,-2.64182 -4.39377,-2.53059 -2.30812,0.11124 -2.53058,1.19577 -3.17019,1.39044 -0.63957,0.19465 -10.15013,-1.08454 -10.0667,1.39043 0.0834,2.47496 2.58619,3.83759 8.03669,3.86539 5.45049,0.0278 9.73301,0.11124 10.23358,-0.38932 0.50054,-0.50055 0.50054,-1.22358 0.50054,-1.22358 z"
             id="path3047" />
          <path
             style="fill:#00a002;fill-opacity:1;stroke:#000000;stroke-width:0.7;stroke-linecap:round;stroke-dasharray:none"
             d="m 285.92825,124.91633 c 0,0 -2.16908,-2.39154 -5.2002,-2.39154 -3.03115,0 -3.2258,1.02892 -4.11568,1.22358 -0.8899,0.19466 -8.87097,-0.9733 -8.78752,1.05672 0.0834,2.03003 2.41935,3.28142 8.34257,3.8376 5.92323,0.55617 10.2892,0.16685 10.51166,-0.25028 0.22246,-0.41713 0.38934,-1.22358 0.38934,-1.22358 z"
             id="path3049" />
          <path
             style="fill:#00a002;fill-opacity:1;stroke:#000000;stroke-width:0.7;stroke-linecap:round;stroke-dasharray:none"
             d="m 281.93764,117.58872 c 0,0 -1.14051,-2.12368 -2.98889,-2.39897 -1.84838,-0.27529 -2.24166,1.25847 -3.26416,1.2978 -1.02251,0.0393 -11.09031,-2.71359 -11.60157,0.19664 -0.51126,2.91022 5.07324,4.95524 9.39923,5.42717 4.32601,0.47193 10.42175,0.70789 10.3824,0.19664 -0.0393,-0.51126 -0.11797,-1.45511 -0.11797,-1.45511 z"
             id="path3120" />
          <path
             style="fill:#00a002;fill-opacity:1;stroke:#000000;stroke-width:0.7;stroke-linecap:round;stroke-dasharray:none"
             d="m 277.76892,110.19518 c 0,0 -1.80904,-1.7304 -3.1855,-1.84839 -1.37645,-0.11798 -2.12368,1.1405 -3.14619,1.17982 -1.02251,0.0393 -8.84865,-2.39896 -9.39923,0.23597 -0.55058,2.63493 2.94956,3.38215 7.59017,4.05071 4.64063,0.66857 8.69135,1.21915 9.32058,0.55058 0.62923,-0.66856 0.62923,-1.2978 0.62923,-1.2978 z"
             id="path3122" />
          <path
             style="fill:#00a002;fill-opacity:1;stroke:#000000;stroke-width:0.7;stroke-linecap:round;stroke-dasharray:none"
             d="m 273.08066,103.25341 c 0,0 -1.39044,-1.66851 -3.53168,-1.66851 -2.14128,0 -1.8632,1.16796 -3.39265,1.16796 -1.52948,0 -8.14794,-1.66852 -8.37041,0.47274 -0.22246,2.14127 3.61512,3.61513 8.59287,4.25472 4.97774,0.6396 8.28696,0.75084 8.73191,0.19466 0.44493,-0.55617 0.44493,-0.86207 0.44493,-0.86207 z"
             id="path3124" />
          <path
             style="fill:#00a002;fill-opacity:1;stroke:#000000;stroke-width:0.7;stroke-linecap:round;stroke-dasharray:none"
             d="m 267.24086,95.856318 c 0,0 -0.6118,-1.251387 -2.41935,-1.251387 -1.80757,0 -1.30701,0.695217 -2.36374,0.750832 -1.05673,0.05562 -5.67296,-2.224688 -6.34036,0.05562 -0.66741,2.280307 1.05672,3.642929 4.5328,4.199102 3.47608,0.556175 8.0367,1.446045 8.64847,1.056725 0.6118,-0.38932 0.6118,-1.529472 0.6118,-1.529472 z"
             id="path3126" />
          <path
             style="fill:#00a002;fill-opacity:1;stroke:#000000;stroke-width:0.7;stroke-linecap:round;stroke-dasharray:none"
             d="m 265.65577,94.493695 c 0,0 -1.97442,0.02781 -2.58621,-0.333703 -0.61179,-0.361511 -1.22358,-0.945491 -1.22358,-0.945491 0,0 -4.47719,-0.667409 -4.47719,-2.308116 0,-1.640708 0.27809,-1.418241 0.44494,-1.946604 0.16685,-0.528364 -4.36595,-4.699658 -1.80756,-6.507217 2.55839,-1.80756 5.11679,3.114566 5.72858,3.364843 0.61179,0.250278 3.03114,-0.750834 4.06005,0.917684 1.02892,1.668518 0.11123,4.06006 0.0278,4.504997 -0.0834,0.444939 -0.16684,3.253607 -0.16684,3.253607 z"
             id="path3128" />
          <path
             style="fill:#00a002;fill-opacity:1;stroke:#000000;stroke-width:0.7;stroke-linecap:round;stroke-dasharray:none"
             d="m 265.82261,94.076566 c 0,0 -0.19465,-1.890985 0.80645,-2.669627 1.00111,-0.778642 0.94549,-0.166851 1.80756,-0.639598 0.86206,-0.472747 1.891,-4.894318 4.19912,-4.060058 2.30809,0.834258 -0.44495,6.201323 -1.27921,7.591753 -0.83426,1.39043 -1.52948,2.892097 -2.14127,2.892097 -0.61177,0 -1.02891,-0.278085 -1.02891,-0.278085 z"
             id="path3130" />
          <path
             style="fill:#00a002;fill-opacity:1;stroke:#000000;stroke-width:0.7;stroke-linecap:round;stroke-dasharray:none"
             d="m 270.80035,100.27789 c 0,0 -0.58396,-3.364842 0.86207,-4.810891 1.44605,-1.446048 1.55728,-0.08343 2.28031,-0.389321 0.72302,-0.305895 2.83649,-4.8387 4.8387,-3.726357 2.00223,1.112345 -1.44606,6.67407 -2.33593,8.426013 -0.88987,1.751946 -1.76039,2.890356 -2.41935,3.003326 -0.97328,0.16686 -1.58509,-0.58398 -1.58509,-0.58398 z"
             id="path3132"
             sodipodi:nodetypes="cssssscc" />
          <path
             style="fill:#00a002;fill-opacity:1;stroke:#000000;stroke-width:0.7;stroke-linecap:round;stroke-dasharray:none"
             d="m 274.91602,105.86742 c 0,0 -0.97329,-1.25139 0.38934,-2.83648 1.36263,-1.58509 2.50277,-1.11234 3.55949,-1.75194 1.05675,-0.6396 2.36373,-4.699658 4.06006,-3.503887 1.69632,1.195771 -1.30699,7.397097 -2.08563,8.370397 -0.77865,0.9733 -2.05785,2.75305 -2.72526,2.78086 -0.66739,0.0278 -1.36261,-0.41713 -1.36261,-0.41713 z"
             id="path3134" />
          <path
             style="fill:#00a002;fill-opacity:1;stroke:#000000;stroke-width:0.7;stroke-linecap:round;stroke-dasharray:none"
             d="m 278.44773,111.15106 c 0,0 -0.2781,-2.00222 1.50167,-3.47608 1.77975,-1.47385 2.64182,-1.27919 3.61511,-1.69632 0.9733,-0.41713 2.39154,-3.33704 3.72637,-2.39155 1.33479,0.9455 -1.11236,5.08898 -3.36484,7.42491 -2.25251,2.33592 -2.47497,2.64182 -3.19799,2.55839 -0.72303,-0.0834 -1.36263,-0.69521 -1.36263,-0.69521 z"
             id="path3137" />
          <path
             style="fill:#00a002;fill-opacity:1;stroke:#000000;stroke-width:0.7;stroke-linecap:round;stroke-dasharray:none"
             d="m 282.17407,117.82513 c 0,0 -0.19465,-3.17018 1.41825,-3.92101 1.6129,-0.75084 1.69632,-0.0834 2.614,-0.3059 0.91771,-0.22247 5.06119,-4.97774 6.64628,-3.5595 1.5851,1.41824 -2.8921,6.61845 -3.97663,8.0923 -1.08455,1.47386 -2.66965,3.36485 -3.64294,3.17019 -0.9733,-0.19466 -1.44606,-0.41713 -1.44606,-0.41713 z"
             id="path3139" />
          <path
             style="fill:#00a002;fill-opacity:1;stroke:#000000;stroke-width:0.7;stroke-linecap:round;stroke-dasharray:none"
             d="m 285.73359,124.1933 c 0,0 -0.69522,-2.08564 0.83426,-3.11456 1.52948,-1.02892 2.11347,-0.6396 3.08676,-0.91769 0.9733,-0.27808 5.06116,-5.97885 6.64626,-4.72746 1.58509,1.25139 -3.69856,8.20354 -4.78309,9.73302 -1.08453,1.52947 -2.00221,2.69743 -2.78085,2.66963 -0.77864,-0.0278 -1.52948,-0.38933 -1.52948,-0.38933 z"
             id="path3221" />
          <path
             style="fill:#00a002;fill-opacity:1;stroke:#000000;stroke-width:0.7;stroke-linecap:round;stroke-dasharray:none"
             d="m 289.45993,132.45247 c 0,0 -0.19465,-3.08676 1.36263,-4.22692 1.55729,-1.14015 2.5862,-0.88987 3.69856,-1.22358 1.11233,-0.3337 4.06006,-4.92212 5.56173,-4.11567 1.50166,0.80645 -1.16798,6.81311 -3.2258,9.23246 -2.05785,2.41935 -3.03115,3.8654 -4.00445,3.89321 -0.97332,0.0278 -1.75193,-0.27809 -1.75193,-0.27809 z"
             id="path3223" />
          <path
             style="fill:#00a002;fill-opacity:1;stroke:#000000;stroke-width:0.7;stroke-linecap:round;stroke-dasharray:none"
             d="m 293.60344,141.35122 c 0,0 -0.0278,-3.30922 1.72413,-4.61623 1.75194,-1.307 1.86317,-0.88987 2.9477,-1.307 1.08455,-0.41713 4.69966,-5.70077 6.28475,-4.58842 1.58509,1.11234 -1.30699,6.64625 -3.64292,9.28807 -2.33592,2.64182 -3.33703,3.80979 -4.25473,3.78198 -0.91769,-0.0278 -1.9744,-0.25028 -1.9744,-0.25028 z"
             id="path3225" />
          <path
             style="fill:#00a002;fill-opacity:1;stroke:#000000;stroke-width:0.7;stroke-linecap:round;stroke-dasharray:none"
             d="m 296.7247,148.34269 c 0,0 -0.11798,-2.63493 1.57311,-3.97206 1.69106,-1.33713 2.24165,-0.62924 3.42146,-1.25848 1.17983,-0.62923 6.72499,-8.61268 8.21941,-7.47219 1.49445,1.14049 -2.28097,7.07892 -4.71927,10.26444 -2.43829,3.18551 -4.28667,5.66313 -5.23054,5.6238 -0.94385,-0.0393 -2.08434,-0.31462 -2.08434,-0.31462 z"
             id="path3227" />
          <path
             style="fill:#00a002;fill-opacity:1;stroke:#000000;stroke-width:0.7;stroke-linecap:round;stroke-dasharray:none"
             d="m 299.94378,155.61705 c 0,0 -0.0556,-2.64182 1.80758,-3.61512 1.86317,-0.9733 2.05782,-0.16685 2.86427,-0.47275 0.80645,-0.3059 5.39489,-7.84203 6.95217,-6.81311 1.55728,1.02892 -2.47497,7.98107 -3.50388,9.76082 -1.02894,1.77975 -3.5039,5.25583 -4.44939,5.33926 -0.94549,0.0834 -1.9744,-0.3337 -1.9744,-0.3337 z"
             id="path3229" />
          <path
             style="fill:#00a002;fill-opacity:1;stroke:#000000;stroke-width:0.7;stroke-linecap:round;stroke-dasharray:none"
             d="m 303.25303,163.83766 c 0,0 -0.23596,-2.08435 1.45513,-3.61812 1.69106,-1.53376 3.65744,-0.55058 4.83724,-1.57309 1.17983,-1.02251 4.83728,-8.92731 6.60699,-7.78681 1.76975,1.14049 -2.20231,8.37672 -4.6406,11.95551 -2.4383,3.57878 -3.61813,5.1912 -4.56197,5.23053 -0.94385,0.0393 -1.76975,-0.11798 -1.76975,-0.11798 z"
             id="path3231" />
          <path
             style="fill:#00a002;fill-opacity:1;stroke:#000000;stroke-width:0.7;stroke-linecap:round;stroke-dasharray:none"
             d="m 306.6352,171.11321 c 0,0 -1.02251,-1.10116 0.90453,-2.47762 1.92704,-1.37645 3.38214,-0.98318 4.01137,-1.14049 0.62924,-0.15731 5.8991,-7.6295 6.96095,-6.56767 1.06183,1.06184 -1.45513,5.74179 -3.22484,8.65202 -1.76975,2.91022 -4.56198,6.21371 -5.58448,6.21371 -1.02251,0 -1.73041,-0.19663 -1.73041,-0.19663 z"
             id="path3233" />
          <g
             id="g7519">
            <g
               id="g7490">
              <path
                 style="fill:#000000;fill-opacity:1;stroke:#000000;stroke-width:0.1;stroke-linecap:round;stroke-dasharray:none;stroke-opacity:1"
                 d="m 267.29647,95.82851 c 0,0 0.26419,0.09733 0.52838,-0.61179 0.26416,-0.709118 1.07061,-2.641817 1.33479,-2.586202 0.26419,0.05562 -0.69522,2.196883 -0.82034,2.711341 -0.12515,0.514459 -0.23638,1.446049 -0.23638,1.446049 z"
                 id="path4786" />
              <path
                 style="fill:#000000;fill-opacity:1;stroke:#000000;stroke-width:0.1;stroke-linecap:round;stroke-dasharray:none;stroke-opacity:1"
                 d="m 269.09014,98.414712 c 0,0 -5.29755,-1.432145 -5.49221,-0.987206 -0.19467,0.444937 1.37653,0.528365 2.85037,0.945494 1.47386,0.417129 3.30925,1.265291 3.30925,1.265291 l 0.13904,-0.403225 z"
                 id="path6774" />
              <path
                 style="fill:#000000;fill-opacity:1;stroke:#000000;stroke-width:0.1;stroke-linecap:round;stroke-dasharray:none;stroke-opacity:1"
                 d="m 272.8582,102.51648 c 0,0 0.3198,-2.04393 0.82034,-3.017231 0.50057,-0.973301 1.00113,-1.890987 1.2514,-1.668518 0.25027,0.22247 -0.83426,1.6129 -1.08453,2.474969 -0.25029,0.86206 -0.29199,2.47496 -0.29199,2.47496 z"
                 id="path6830" />
              <path
                 style="fill:#000000;fill-opacity:1;stroke:#000000;stroke-width:0.1;stroke-linecap:round;stroke-dasharray:none;stroke-opacity:1"
                 d="m 275.19413,106.61826 c -0.014,-0.0556 -2.8365,-1.52948 -3.99055,-1.71023 -1.15406,-0.18076 -3.08677,-0.38933 -3.08677,-0.11124 0,0.27809 2.26642,0.51446 3.85152,1.02892 1.58509,0.51446 3.2536,1.599 3.2536,1.599 l 0.3615,-0.54227 z"
                 id="path6832" />
              <path
                 style="fill:#000000;fill-opacity:1;stroke:#000000;stroke-width:0.1;stroke-linecap:round;stroke-dasharray:none;stroke-opacity:1"
                 d="m 275.84762,106.86853 c 0,0 0.33369,-0.0695 1.27921,-0.91768 0.94549,-0.84816 1.41822,-1.55729 1.72413,-1.37653 0.30588,0.18076 -1.45997,1.79366 -1.75194,2.23859 -0.29199,0.44494 -0.52837,1.33482 -0.52837,1.33482 z"
                 id="path6834" />
              <path
                 style="fill:#000000;fill-opacity:1;stroke:#000000;stroke-width:0.1;stroke-linecap:round;stroke-dasharray:none;stroke-opacity:1"
                 d="m 278.85043,111.74861 c 0,0 0.78655,0.25563 1.31747,-0.35395 0.53091,-0.60957 2.24165,-2.83157 2.63493,-2.43829 0.39328,0.39327 -2.02536,2.47762 -2.37929,2.94955 -0.35396,0.47193 -0.41294,1.57309 -0.41294,1.57309 l -0.74723,-0.80621 z"
                 id="path6836" />
              <path
                 style="fill:#000000;fill-opacity:1;stroke:#000000;stroke-width:0.1;stroke-linecap:round;stroke-dasharray:none;stroke-opacity:1"
                 d="m 278.94875,112.57448 c 0,0 0.059,0.45227 -0.64889,0.2163 -0.70789,-0.23596 -2.37932,-1.19948 -3.48049,-1.27814 -1.10114,-0.0787 -2.20231,-0.37361 -2.20231,0.0197 0,0.39327 1.7304,0.25563 2.83157,0.66857 1.10114,0.41293 3.26416,1.49444 3.26416,1.49444 l 0.53092,0.31458 0.35395,-1.00285 -0.2163,-0.37361 z"
                 id="path6838" />
              <path
                 style="fill:#000000;fill-opacity:1;stroke:#000000;stroke-width:0.1;stroke-linecap:round;stroke-dasharray:none;stroke-opacity:1"
                 d="m 282.92081,118.92585 c 0,0 0.47193,0.25562 0.90453,-0.17698 0.43259,-0.4326 1.92704,-2.30065 2.26131,-2.18266 0.3343,0.11798 -1.88769,2.57594 -1.98601,2.8119 -0.0983,0.23597 -0.31462,1.10117 -0.31462,1.10117 z"
                 id="path6840" />
              <path
                 style="fill:#000000;fill-opacity:1;stroke:#000000;stroke-width:0.1;stroke-linecap:round;stroke-dasharray:none;stroke-opacity:1"
                 d="m 282.60619,119.04383 c 0,0 0.17698,0.47193 -0.37362,0.72755 -0.55057,0.25563 -2.14333,-0.66856 -3.89339,-0.78654 -1.75006,-0.11798 -3.69676,-0.29496 -3.6771,0.19663 0.0196,0.49159 2.33997,0.0787 3.99171,0.45227 1.65174,0.37361 5.13223,2.33997 5.13223,2.33997 l 0.059,-1.00284 z"
                 id="path6842" />
              <path
                 style="fill:#000000;fill-opacity:1;stroke:#000000;stroke-width:0.1;stroke-linecap:round;stroke-dasharray:none;stroke-opacity:1"
                 d="m 286.40127,126.10308 c 0,0 0.059,0.62924 -0.37359,0.58991 -0.4326,-0.0393 -1.96639,-0.62923 -3.46081,-0.82587 -1.49444,-0.19664 -2.94954,-0.29496 -2.92989,0.11798 0.0196,0.41294 2.20234,0.15731 3.48047,0.51126 1.27814,0.35394 3.69678,1.47477 3.69678,1.47477 l 0.25561,-0.78655 z"
                 id="path6844" />
              <path
                 style="fill:#000000;fill-opacity:1;stroke:#000000;stroke-width:0.1;stroke-linecap:round;stroke-dasharray:none;stroke-opacity:1"
                 d="m 286.34229,125.61149 c 0.0983,0.0197 0.92419,0.2163 1.29781,-0.13764 0.37359,-0.35395 2.08433,-2.96922 2.28097,-2.67426 0.19664,0.29495 -2.18265,2.91022 -2.33997,3.26417 -0.1573,0.35394 -0.29496,1.43544 -0.29496,1.43544 z"
                 id="path6846" />
              <path
                 style="fill:#000000;fill-opacity:1;stroke:#000000;stroke-width:0.1;stroke-linecap:round;stroke-dasharray:none;stroke-opacity:1"
                 d="m 289.99973,133.241 c 0,0 0.82587,0.27529 1.14049,-0.0787 0.31462,-0.35395 2.43829,-3.55912 2.71359,-3.28383 0.2753,0.27529 -2.08436,3.08719 -2.33997,3.6771 -0.25564,0.58991 -0.51126,2.33998 -0.53091,2.222 -0.0196,-0.11798 -0.9832,-2.53661 -0.9832,-2.53661 z"
                 id="path6946" />
              <path
                 style="fill:#000000;fill-opacity:1;stroke:#000000;stroke-width:0.1;stroke-linecap:round;stroke-dasharray:none;stroke-opacity:1"
                 d="m 289.64577,133.37864 c 0,0 -2.26131,-1.04218 -4.05069,-1.27814 -1.7894,-0.23596 -3.26419,-0.0787 -3.16587,0.27529 0.0983,0.35395 2.281,-0.13764 3.9524,0.4916 1.67143,0.62923 3.36248,1.98602 3.36248,1.98602 l 0.25564,-0.90452 z"
                 id="path6948" />
              <path
                 style="fill:#000000;fill-opacity:1;stroke:#000000;stroke-width:0.1;stroke-linecap:round;stroke-dasharray:none;stroke-opacity:1"
                 d="m 292.90997,140.8115 c 0,0 -2.59562,-0.94385 -3.69679,-1.12082 -1.10117,-0.17698 -2.45795,-0.39328 -2.41864,0.0197 0.0394,0.41293 2.26135,0.47192 3.34283,0.84553 1.08151,0.37361 3.34283,1.41579 3.34283,1.41579 z"
                 id="path6950" />
              <path
                 style="fill:#000000;fill-opacity:1;stroke:#000000;stroke-width:0.1;stroke-linecap:round;stroke-dasharray:none;stroke-opacity:1"
                 d="m 293.65718,141.34242 c 0,0 0.94384,0.53092 1.37644,0.21631 0.43262,-0.31462 1.23883,-1.96637 1.8484,-2.77258 0.60958,-0.80621 1.27813,-2.02536 1.65174,-1.71074 0.37362,0.31462 -2.02536,3.00854 -2.35963,3.71643 -0.3343,0.70789 -0.76689,1.55343 -0.84556,1.84839 -0.0786,0.29495 -0.17695,1.04217 -0.17695,1.04217 l -0.53094,-0.25563 z"
                 id="path6952" />
              <path
                 style="fill:#000000;fill-opacity:1;stroke:#000000;stroke-width:0.1;stroke-linecap:round;stroke-dasharray:none;stroke-opacity:1"
                 d="m 296.37077,148.57865 c 0,0 -0.23725,0.70498 -1.21916,0.39327 -1.23881,-0.39327 -1.00284,-0.49159 -2.45796,-0.78654 -1.177,-0.23858 -2.3793,-0.29496 -2.33998,0.13765 0.96045,0.62544 4.76327,0.76077 5.38784,1.47477 0.29496,0.39327 1.06185,0.70789 1.06185,0.70789 L 297,149.93545 Z"
                 id="path6954"
                 sodipodi:nodetypes="cssccccc" />
              <path
                 style="fill:#000000;fill-opacity:1;stroke:#000000;stroke-width:0.1;stroke-linecap:round;stroke-dasharray:none;stroke-opacity:1"
                 d="m 297.24635,149.10983 c 0,0 0.88988,0.18076 1.16798,-0.0556 0.27808,-0.23637 0.65349,-1.44605 1.51556,-2.47497 0.86207,-1.02891 1.98832,-1.84927 2.2525,-1.59899 0.26419,0.25028 -1.43216,1.43214 -2.07174,2.39154 -0.6396,0.9594 -1.16797,1.57119 -1.41824,2.22469 -0.25027,0.6535 -0.70911,1.84927 -0.70911,1.84927 z"
                 id="path6956" />
              <path
                 style="fill:#000000;fill-opacity:1;stroke:#000000;stroke-width:0.1;stroke-linecap:round;stroke-dasharray:none;stroke-opacity:1"
                 d="m 299.08172,155.28334 c 0,0 -0.18074,0.69522 -0.76473,0.69522 -0.58399,0 -2.5862,-0.59789 -3.33703,-0.6257 -0.75084,-0.0278 -2.11347,-0.0556 -2.11347,0.23638 0,0.29199 1.71024,0.15295 3.35095,0.61179 1.64071,0.45884 3.60122,1.39043 3.60122,1.39043 l -0.014,-0.79255 z"
                 id="path6958" />
              <path
                 style="fill:#000000;fill-opacity:1;stroke:#000000;stroke-width:0.1;stroke-linecap:round;stroke-dasharray:none;stroke-opacity:1"
                 d="m 300.44435,156.31226 c 0.0973,0.13905 0.6813,0.34761 1.11233,0.15295 0.43106,-0.19466 2.30812,-2.96162 2.73915,-2.73915 0.43104,0.22247 -1.93267,3.03114 -2.28028,3.57341 -0.34761,0.54227 -0.50057,1.52947 -0.50057,1.52947 z"
                 id="path6960" />
              <path
                 style="fill:#000000;fill-opacity:1;stroke:#000000;stroke-width:0.1;stroke-linecap:round;stroke-dasharray:none;stroke-opacity:1"
                 d="m 302.09289,163.42472 c 0,0 0.31461,0.47193 -1.25847,0.27529 -1.57311,-0.19663 -5.11257,-0.8652 -5.11257,-0.51125 0,0.35394 2.0057,0.55058 3.44115,0.84553 1.43544,0.29496 2.69393,0.51126 2.85122,0.68823 0.15733,0.17697 0.7669,0.53092 0.7669,0.53092 z"
                 id="path6962" />
              <path
                 style="fill:#000000;fill-opacity:1;stroke:#000000;stroke-width:0.1;stroke-linecap:round;stroke-dasharray:none;stroke-opacity:1"
                 d="m 304.37386,170.24801 c 0,0 0.21632,0.90453 -0.92419,0.66857 -1.14049,-0.23597 -4.62095,-1.16016 -4.64061,-0.72756 -0.0196,0.4326 2.06468,0.6489 3.04787,0.98318 0.98317,0.33429 3.10684,1.19949 3.10684,1.19949 z"
                 id="path6964" />
              <path
                 style="fill:#000000;fill-opacity:1;stroke:#000000;stroke-width:0.1;stroke-linecap:round;stroke-dasharray:none;stroke-opacity:1"
                 d="m 306.34024,177.18929 c 0,0 0.1573,0.47192 -1.10117,0.11798 -1.25846,-0.35395 -2.87089,-1.00285 -2.9692,-0.6489 -0.0983,0.35394 1.08148,0.51125 2.24165,1.02251 1.16015,0.51125 2.24166,0.92419 2.24166,0.92419 z"
                 id="path6966" />
              <path
                 style="fill:#000000;fill-opacity:1;stroke:#000000;stroke-width:0.1;stroke-linecap:round;stroke-dasharray:none;stroke-opacity:1"
                 d="m 303.96092,164.66353 c 0,0 -0.0786,0.47193 0.90453,0.23596 0.9832,-0.23596 4.0114,-4.28667 4.444,-3.8934 0.43259,0.39327 -2.94955,3.81475 -3.42149,4.40466 -0.47191,0.58991 -0.98316,2.00569 -0.98316,2.00569 z"
                 id="path7077" />
              <path
                 style="fill:#000000;fill-opacity:1;stroke:#000000;stroke-width:0.1;stroke-linecap:round;stroke-dasharray:none;stroke-opacity:1"
                 d="m 306.79249,172.41101 c 0,0 0.47194,-0.19663 0.9832,-0.0393 0.51125,0.15731 4.05071,-3.89341 4.40465,-3.57879 0.35396,0.31462 -3.50012,3.7361 -3.8934,4.24735 -0.39328,0.51126 -0.62923,1.7304 -0.62923,1.7304 z"
                 id="path7079" />
            </g>
            <path
               style="fill:none;fill-opacity:1;stroke:#000000;stroke-width:0.7;stroke-linecap:round;stroke-dasharray:none"
               d="m 288.74124,130.72405 c 0,0 -3.2973,-8.00784 -10.77567,-20.45021 -5.40103,-8.98613 -17.38268,-22.101967 -17.38268,-22.101967"
               id="path2912"
               sodipodi:nodetypes="csc" />
            <path
               style="fill:#00a002;fill-opacity:1;stroke:#000000;stroke-width:0.7;stroke-linecap:round;stroke-dasharray:none"
               d="m 315.0004,199.10973 h -3.44492 c 0,0 -3.61466,-18.31321 -8.40334,-32.9524 -4.50178,-13.76212 -14.60989,-35.79051 -14.60989,-35.79051 0,0 16.35149,34.48269 19.79975,45.71737 3.44826,11.23469 6.6584,23.02554 6.6584,23.02554 z"
               id="path951"
               sodipodi:nodetypes="ccscsc" />
          </g>
        </g>
        <g
           id="g8114"
           transform="matrix(-1,0,0,1,624.13221,-21.758035)">
          <path
             style="fill:#00a002;fill-opacity:1;stroke:#000000;stroke-width:0.7;stroke-linecap:round;stroke-dasharray:none"
             d="m 306.39541,176.30666 c 0,0 -0.66741,-2.16907 -2.41938,-2.30811 -1.75194,-0.13905 -1.80755,0.55617 -2.3359,0.61178 -0.52837,0.0556 -5.1168,-2.41935 -6.00668,0.25028 -0.88987,2.66963 8.75972,6.95216 9.76083,6.78531 1.00113,-0.16685 2.28031,-1.11235 2.28031,-1.11235 z"
             id="path8008" />
          <path
             style="fill:#00a002;fill-opacity:1;stroke:#000000;stroke-width:0.7;stroke-linecap:round;stroke-dasharray:none"
             d="m 304.17071,169.07642 c 0,0 -1.69632,-2.2525 -3.89321,-2.53059 -2.19689,-0.27808 -3.28142,1.2792 -4.33813,1.36263 -1.05675,0.0834 -8.73192,-2.83648 -9.42714,-0.44494 -0.69521,2.39154 4.8109,4.56061 9.00999,5.28364 4.1991,0.72302 8.59288,1.69632 9.23245,0.91768 0.63961,-0.77864 0.36153,-1.75194 0.36153,-1.75194 z"
             id="path8010" />
          <path
             style="fill:#00a002;fill-opacity:1;stroke:#000000;stroke-width:0.7;stroke-linecap:round;stroke-dasharray:none"
             d="m 301.66794,162.17988 c 0,0 -1.36263,-2.41935 -3.44829,-2.66963 -2.08563,-0.25027 -2.11344,1.2792 -3.55949,1.39043 -1.44606,0.11124 -9.26029,-2.33592 -9.64959,0.36152 -0.38934,2.69743 5.03335,3.69855 8.73191,4.56061 3.69853,0.86207 8.70409,0.69522 8.98217,0.16685 0.2781,-0.52836 -0.0278,-1.36262 -0.0278,-1.36262 z"
             id="path8012"
             sodipodi:nodetypes="cssssscc" />
          <path
             style="fill:#00a002;fill-opacity:1;stroke:#000000;stroke-width:0.7;stroke-linecap:round;stroke-dasharray:none"
             d="m 298.55337,153.61483 c 0,0 -0.80645,-1.64071 -3.4761,-1.83537 -2.66962,-0.19466 -3.00331,1.08453 -4.19909,1.25138 -1.19576,0.16686 -9.78863,-1.97441 -10.0111,0.47275 -0.22246,2.44716 4.44937,3.94883 9.09342,4.81089 4.64404,0.86207 9.20466,1.08454 9.59397,0.50056 0.38931,-0.58398 0.22246,-1.77975 0.22246,-1.77975 z"
             id="path8014" />
          <path
             style="fill:#00a002;fill-opacity:1;stroke:#000000;stroke-width:0.7;stroke-linecap:round;stroke-dasharray:none"
             d="m 291.96273,138.26447 c 0,0 -1.05675,-2.80867 -3.42048,-2.64182 -2.36373,0.16685 -2.66962,1.6129 -3.72634,1.83537 -1.05674,0.22247 -11.12345,-2.14127 -11.15126,0.22247 -0.0278,2.36373 4.75528,4.47718 10.01109,5.20021 5.25584,0.72302 9.28809,1.27919 9.6774,0.86207 0.38934,-0.41713 0.38934,-1.33482 0.38934,-1.33482 z"
             id="path8016" />
          <path
             style="fill:#00a002;fill-opacity:1;stroke:#000000;stroke-width:0.7;stroke-linecap:round;stroke-dasharray:none"
             d="m 295.57784,146.52363 c 0,0 -1.00111,-2.16907 -3.47607,-2.2525 -2.47497,-0.0834 -3.25361,0.83426 -4.4772,0.9733 -1.22357,0.13904 -10.98439,-2.41935 -11.31811,0.3059 -0.33369,2.72524 6.17352,4.67185 10.90099,5.22802 4.72747,0.55617 8.98218,1.14015 9.3993,0.63959 0.41714,-0.50055 0.41714,-1.19576 0.41714,-1.19576 z"
             id="path8018" />
          <path
             style="fill:#00a002;fill-opacity:1;stroke:#000000;stroke-width:0.7;stroke-linecap:round;stroke-dasharray:none"
             d="m 288.93158,131.39574 c 0,0 -2.08565,-2.64182 -4.39377,-2.53059 -2.30812,0.11124 -2.53058,1.19577 -3.17019,1.39044 -0.63957,0.19465 -10.15013,-1.08454 -10.0667,1.39043 0.0834,2.47496 2.58619,3.83759 8.03669,3.86539 5.45049,0.0278 9.73301,0.11124 10.23358,-0.38932 0.50054,-0.50055 0.50054,-1.22358 0.50054,-1.22358 z"
             id="path8020" />
          <path
             style="fill:#00a002;fill-opacity:1;stroke:#000000;stroke-width:0.7;stroke-linecap:round;stroke-dasharray:none"
             d="m 285.92825,124.91633 c 0,0 -2.16908,-2.39154 -5.2002,-2.39154 -3.03115,0 -3.2258,1.02892 -4.11568,1.22358 -0.8899,0.19466 -8.87097,-0.9733 -8.78752,1.05672 0.0834,2.03003 2.41935,3.28142 8.34257,3.8376 5.92323,0.55617 10.2892,0.16685 10.51166,-0.25028 0.22246,-0.41713 0.38934,-1.22358 0.38934,-1.22358 z"
             id="path8022" />
          <path
             style="fill:#00a002;fill-opacity:1;stroke:#000000;stroke-width:0.7;stroke-linecap:round;stroke-dasharray:none"
             d="m 281.93764,117.58872 c 0,0 -1.14051,-2.12368 -2.98889,-2.39897 -1.84838,-0.27529 -2.24166,1.25847 -3.26416,1.2978 -1.02251,0.0393 -11.09031,-2.71359 -11.60157,0.19664 -0.51126,2.91022 5.07324,4.95524 9.39923,5.42717 4.32601,0.47193 10.42175,0.70789 10.3824,0.19664 -0.0393,-0.51126 -0.11797,-1.45511 -0.11797,-1.45511 z"
             id="path8024" />
          <path
             style="fill:#00a002;fill-opacity:1;stroke:#000000;stroke-width:0.7;stroke-linecap:round;stroke-dasharray:none"
             d="m 277.76892,110.19518 c 0,0 -1.80904,-1.7304 -3.1855,-1.84839 -1.37645,-0.11798 -2.12368,1.1405 -3.14619,1.17982 -1.02251,0.0393 -8.84865,-2.39896 -9.39923,0.23597 -0.55058,2.63493 2.94956,3.38215 7.59017,4.05071 4.64063,0.66857 8.69135,1.21915 9.32058,0.55058 0.62923,-0.66856 0.62923,-1.2978 0.62923,-1.2978 z"
             id="path8026" />
          <path
             style="fill:#00a002;fill-opacity:1;stroke:#000000;stroke-width:0.7;stroke-linecap:round;stroke-dasharray:none"
             d="m 273.08066,103.25341 c 0,0 -1.39044,-1.66851 -3.53168,-1.66851 -2.14128,0 -1.8632,1.16796 -3.39265,1.16796 -1.52948,0 -8.14794,-1.66852 -8.37041,0.47274 -0.22246,2.14127 3.61512,3.61513 8.59287,4.25472 4.97774,0.6396 8.28696,0.75084 8.73191,0.19466 0.44493,-0.55617 0.44493,-0.86207 0.44493,-0.86207 z"
             id="path8028" />
          <path
             style="fill:#00a002;fill-opacity:1;stroke:#000000;stroke-width:0.7;stroke-linecap:round;stroke-dasharray:none"
             d="m 267.24086,95.856318 c 0,0 -0.6118,-1.251387 -2.41935,-1.251387 -1.80757,0 -1.30701,0.695217 -2.36374,0.750832 -1.05673,0.05562 -5.67296,-2.224688 -6.34036,0.05562 -0.66741,2.280307 1.05672,3.642929 4.5328,4.199102 3.47608,0.556175 8.0367,1.446045 8.64847,1.056725 0.6118,-0.38932 0.6118,-1.529472 0.6118,-1.529472 z"
             id="path8030" />
          <path
             style="fill:#00a002;fill-opacity:1;stroke:#000000;stroke-width:0.7;stroke-linecap:round;stroke-dasharray:none"
             d="m 265.65577,94.493695 c 0,0 -1.97442,0.02781 -2.58621,-0.333703 -0.61179,-0.361511 -1.22358,-0.945491 -1.22358,-0.945491 0,0 -4.47719,-0.667409 -4.47719,-2.308116 0,-1.640708 0.27809,-1.418241 0.44494,-1.946604 0.16685,-0.528364 -4.36595,-4.699658 -1.80756,-6.507217 2.55839,-1.80756 5.11679,3.114566 5.72858,3.364843 0.61179,0.250278 3.03114,-0.750834 4.06005,0.917684 1.02892,1.668518 0.11123,4.06006 0.0278,4.504997 -0.0834,0.444939 -0.16684,3.253607 -0.16684,3.253607 z"
             id="path8032" />
          <path
             style="fill:#00a002;fill-opacity:1;stroke:#000000;stroke-width:0.7;stroke-linecap:round;stroke-dasharray:none"
             d="m 265.82261,94.076566 c 0,0 -0.19465,-1.890985 0.80645,-2.669627 1.00111,-0.778642 0.94549,-0.166851 1.80756,-0.639598 0.86206,-0.472747 1.891,-4.894318 4.19912,-4.060058 2.30809,0.834258 -0.44495,6.201323 -1.27921,7.591753 -0.83426,1.39043 -1.52948,2.892097 -2.14127,2.892097 -0.61177,0 -1.02891,-0.278085 -1.02891,-0.278085 z"
             id="path8034" />
          <path
             style="fill:#00a002;fill-opacity:1;stroke:#000000;stroke-width:0.7;stroke-linecap:round;stroke-dasharray:none"
             d="m 270.80035,100.27789 c 0,0 -0.58396,-3.364842 0.86207,-4.810891 1.44605,-1.446048 1.55728,-0.08343 2.28031,-0.389321 0.72302,-0.305895 2.83649,-4.8387 4.8387,-3.726357 2.00223,1.112345 -1.44606,6.67407 -2.33593,8.426013 -0.88987,1.751946 -1.76039,2.890356 -2.41935,3.003326 -0.97328,0.16686 -1.58509,-0.58398 -1.58509,-0.58398 z"
             id="path8036"
             sodipodi:nodetypes="cssssscc" />
          <path
             style="fill:#00a002;fill-opacity:1;stroke:#000000;stroke-width:0.7;stroke-linecap:round;stroke-dasharray:none"
             d="m 274.91602,105.86742 c 0,0 -0.97329,-1.25139 0.38934,-2.83648 1.36263,-1.58509 2.50277,-1.11234 3.55949,-1.75194 1.05675,-0.6396 2.36373,-4.699658 4.06006,-3.503887 1.69632,1.195771 -1.30699,7.397097 -2.08563,8.370397 -0.77865,0.9733 -2.05785,2.75305 -2.72526,2.78086 -0.66739,0.0278 -1.36261,-0.41713 -1.36261,-0.41713 z"
             id="path8038" />
          <path
             style="fill:#00a002;fill-opacity:1;stroke:#000000;stroke-width:0.7;stroke-linecap:round;stroke-dasharray:none"
             d="m 278.44773,111.15106 c 0,0 -0.2781,-2.00222 1.50167,-3.47608 1.77975,-1.47385 2.64182,-1.27919 3.61511,-1.69632 0.9733,-0.41713 2.39154,-3.33704 3.72637,-2.39155 1.33479,0.9455 -1.11236,5.08898 -3.36484,7.42491 -2.25251,2.33592 -2.47497,2.64182 -3.19799,2.55839 -0.72303,-0.0834 -1.36263,-0.69521 -1.36263,-0.69521 z"
             id="path8040" />
          <path
             style="fill:#00a002;fill-opacity:1;stroke:#000000;stroke-width:0.7;stroke-linecap:round;stroke-dasharray:none"
             d="m 282.17407,117.82513 c 0,0 -0.19465,-3.17018 1.41825,-3.92101 1.6129,-0.75084 1.69632,-0.0834 2.614,-0.3059 0.91771,-0.22247 5.06119,-4.97774 6.64628,-3.5595 1.5851,1.41824 -2.8921,6.61845 -3.97663,8.0923 -1.08455,1.47386 -2.66965,3.36485 -3.64294,3.17019 -0.9733,-0.19466 -1.44606,-0.41713 -1.44606,-0.41713 z"
             id="path8042" />
          <path
             style="fill:#00a002;fill-opacity:1;stroke:#000000;stroke-width:0.7;stroke-linecap:round;stroke-dasharray:none"
             d="m 285.73359,124.1933 c 0,0 -0.69522,-2.08564 0.83426,-3.11456 1.52948,-1.02892 2.11347,-0.6396 3.08676,-0.91769 0.9733,-0.27808 5.06116,-5.97885 6.64626,-4.72746 1.58509,1.25139 -3.69856,8.20354 -4.78309,9.73302 -1.08453,1.52947 -2.00221,2.69743 -2.78085,2.66963 -0.77864,-0.0278 -1.52948,-0.38933 -1.52948,-0.38933 z"
             id="path8044" />
          <path
             style="fill:#00a002;fill-opacity:1;stroke:#000000;stroke-width:0.7;stroke-linecap:round;stroke-dasharray:none"
             d="m 289.45993,132.45247 c 0,0 -0.19465,-3.08676 1.36263,-4.22692 1.55729,-1.14015 2.5862,-0.88987 3.69856,-1.22358 1.11233,-0.3337 4.06006,-4.92212 5.56173,-4.11567 1.50166,0.80645 -1.16798,6.81311 -3.2258,9.23246 -2.05785,2.41935 -3.03115,3.8654 -4.00445,3.89321 -0.97332,0.0278 -1.75193,-0.27809 -1.75193,-0.27809 z"
             id="path8046" />
          <path
             style="fill:#00a002;fill-opacity:1;stroke:#000000;stroke-width:0.7;stroke-linecap:round;stroke-dasharray:none"
             d="m 293.60344,141.35122 c 0,0 -0.0278,-3.30922 1.72413,-4.61623 1.75194,-1.307 1.86317,-0.88987 2.9477,-1.307 1.08455,-0.41713 4.69966,-5.70077 6.28475,-4.58842 1.58509,1.11234 -1.30699,6.64625 -3.64292,9.28807 -2.33592,2.64182 -3.33703,3.80979 -4.25473,3.78198 -0.91769,-0.0278 -1.9744,-0.25028 -1.9744,-0.25028 z"
             id="path8048" />
          <path
             style="fill:#00a002;fill-opacity:1;stroke:#000000;stroke-width:0.7;stroke-linecap:round;stroke-dasharray:none"
             d="m 296.7247,148.34269 c 0,0 -0.11798,-2.63493 1.57311,-3.97206 1.69106,-1.33713 2.24165,-0.62924 3.42146,-1.25848 1.17983,-0.62923 6.72499,-8.61268 8.21941,-7.47219 1.49445,1.14049 -2.28097,7.07892 -4.71927,10.26444 -2.43829,3.18551 -4.28667,5.66313 -5.23054,5.6238 -0.94385,-0.0393 -2.08434,-0.31462 -2.08434,-0.31462 z"
             id="path8050" />
          <path
             style="fill:#00a002;fill-opacity:1;stroke:#000000;stroke-width:0.7;stroke-linecap:round;stroke-dasharray:none"
             d="m 299.94378,155.61705 c 0,0 -0.0556,-2.64182 1.80758,-3.61512 1.86317,-0.9733 2.05782,-0.16685 2.86427,-0.47275 0.80645,-0.3059 5.39489,-7.84203 6.95217,-6.81311 1.55728,1.02892 -2.47497,7.98107 -3.50388,9.76082 -1.02894,1.77975 -3.5039,5.25583 -4.44939,5.33926 -0.94549,0.0834 -1.9744,-0.3337 -1.9744,-0.3337 z"
             id="path8052" />
          <path
             style="fill:#00a002;fill-opacity:1;stroke:#000000;stroke-width:0.7;stroke-linecap:round;stroke-dasharray:none"
             d="m 303.25303,163.83766 c 0,0 -0.23596,-2.08435 1.45513,-3.61812 1.69106,-1.53376 3.65744,-0.55058 4.83724,-1.57309 1.17983,-1.02251 4.83728,-8.92731 6.60699,-7.78681 1.76975,1.14049 -2.20231,8.37672 -4.6406,11.95551 -2.4383,3.57878 -3.61813,5.1912 -4.56197,5.23053 -0.94385,0.0393 -1.76975,-0.11798 -1.76975,-0.11798 z"
             id="path8054" />
          <path
             style="fill:#00a002;fill-opacity:1;stroke:#000000;stroke-width:0.7;stroke-linecap:round;stroke-dasharray:none"
             d="m 306.6352,171.11321 c 0,0 -1.02251,-1.10116 0.90453,-2.47762 1.92704,-1.37645 3.38214,-0.98318 4.01137,-1.14049 0.62924,-0.15731 5.8991,-7.6295 6.96095,-6.56767 1.06183,1.06184 -1.45513,5.74179 -3.22484,8.65202 -1.76975,2.91022 -4.56198,6.21371 -5.58448,6.21371 -1.02251,0 -1.73041,-0.19663 -1.73041,-0.19663 z"
             id="path8056" />
          <g
             id="g8112">
            <g
               id="g8106">
              <path
                 style="fill:#000000;fill-opacity:1;stroke:#000000;stroke-width:0.1;stroke-linecap:round;stroke-dasharray:none;stroke-opacity:1"
                 d="m 267.29647,95.82851 c 0,0 0.26419,0.09733 0.52838,-0.61179 0.26416,-0.709118 1.07061,-2.641817 1.33479,-2.586202 0.26419,0.05562 -0.69522,2.196883 -0.82034,2.711341 -0.12515,0.514459 -0.23638,1.446049 -0.23638,1.446049 z"
                 id="path8058" />
              <path
                 style="fill:#000000;fill-opacity:1;stroke:#000000;stroke-width:0.1;stroke-linecap:round;stroke-dasharray:none;stroke-opacity:1"
                 d="m 269.09014,98.414712 c 0,0 -5.29755,-1.432145 -5.49221,-0.987206 -0.19467,0.444937 1.37653,0.528365 2.85037,0.945494 1.47386,0.417129 3.30925,1.265291 3.30925,1.265291 l 0.13904,-0.403225 z"
                 id="path8060" />
              <path
                 style="fill:#000000;fill-opacity:1;stroke:#000000;stroke-width:0.1;stroke-linecap:round;stroke-dasharray:none;stroke-opacity:1"
                 d="m 272.8582,102.51648 c 0,0 0.3198,-2.04393 0.82034,-3.017231 0.50057,-0.973301 1.00113,-1.890987 1.2514,-1.668518 0.25027,0.22247 -0.83426,1.6129 -1.08453,2.474969 -0.25029,0.86206 -0.29199,2.47496 -0.29199,2.47496 z"
                 id="path8062" />
              <path
                 style="fill:#000000;fill-opacity:1;stroke:#000000;stroke-width:0.1;stroke-linecap:round;stroke-dasharray:none;stroke-opacity:1"
                 d="m 275.19413,106.61826 c -0.014,-0.0556 -2.8365,-1.52948 -3.99055,-1.71023 -1.15406,-0.18076 -3.08677,-0.38933 -3.08677,-0.11124 0,0.27809 2.26642,0.51446 3.85152,1.02892 1.58509,0.51446 3.2536,1.599 3.2536,1.599 l 0.3615,-0.54227 z"
                 id="path8064" />
              <path
                 style="fill:#000000;fill-opacity:1;stroke:#000000;stroke-width:0.1;stroke-linecap:round;stroke-dasharray:none;stroke-opacity:1"
                 d="m 275.84762,106.86853 c 0,0 0.33369,-0.0695 1.27921,-0.91768 0.94549,-0.84816 1.41822,-1.55729 1.72413,-1.37653 0.30588,0.18076 -1.45997,1.79366 -1.75194,2.23859 -0.29199,0.44494 -0.52837,1.33482 -0.52837,1.33482 z"
                 id="path8066" />
              <path
                 style="fill:#000000;fill-opacity:1;stroke:#000000;stroke-width:0.1;stroke-linecap:round;stroke-dasharray:none;stroke-opacity:1"
                 d="m 278.85043,111.74861 c 0,0 0.78655,0.25563 1.31747,-0.35395 0.53091,-0.60957 2.24165,-2.83157 2.63493,-2.43829 0.39328,0.39327 -2.02536,2.47762 -2.37929,2.94955 -0.35396,0.47193 -0.41294,1.57309 -0.41294,1.57309 l -0.74723,-0.80621 z"
                 id="path8068" />
              <path
                 style="fill:#000000;fill-opacity:1;stroke:#000000;stroke-width:0.1;stroke-linecap:round;stroke-dasharray:none;stroke-opacity:1"
                 d="m 278.94875,112.57448 c 0,0 0.059,0.45227 -0.64889,0.2163 -0.70789,-0.23596 -2.37932,-1.19948 -3.48049,-1.27814 -1.10114,-0.0787 -2.20231,-0.37361 -2.20231,0.0197 0,0.39327 1.7304,0.25563 2.83157,0.66857 1.10114,0.41293 3.26416,1.49444 3.26416,1.49444 l 0.53092,0.31458 0.35395,-1.00285 -0.2163,-0.37361 z"
                 id="path8070" />
              <path
                 style="fill:#000000;fill-opacity:1;stroke:#000000;stroke-width:0.1;stroke-linecap:round;stroke-dasharray:none;stroke-opacity:1"
                 d="m 282.92081,118.92585 c 0,0 0.47193,0.25562 0.90453,-0.17698 0.43259,-0.4326 1.92704,-2.30065 2.26131,-2.18266 0.3343,0.11798 -1.88769,2.57594 -1.98601,2.8119 -0.0983,0.23597 -0.31462,1.10117 -0.31462,1.10117 z"
                 id="path8072" />
              <path
                 style="fill:#000000;fill-opacity:1;stroke:#000000;stroke-width:0.1;stroke-linecap:round;stroke-dasharray:none;stroke-opacity:1"
                 d="m 282.60619,119.04383 c 0,0 0.17698,0.47193 -0.37362,0.72755 -0.55057,0.25563 -2.14333,-0.66856 -3.89339,-0.78654 -1.75006,-0.11798 -3.69676,-0.29496 -3.6771,0.19663 0.0196,0.49159 2.33997,0.0787 3.99171,0.45227 1.65174,0.37361 5.13223,2.33997 5.13223,2.33997 l 0.059,-1.00284 z"
                 id="path8074" />
              <path
                 style="fill:#000000;fill-opacity:1;stroke:#000000;stroke-width:0.1;stroke-linecap:round;stroke-dasharray:none;stroke-opacity:1"
                 d="m 286.40127,126.10308 c 0,0 0.059,0.62924 -0.37359,0.58991 -0.4326,-0.0393 -1.96639,-0.62923 -3.46081,-0.82587 -1.49444,-0.19664 -2.94954,-0.29496 -2.92989,0.11798 0.0196,0.41294 2.20234,0.15731 3.48047,0.51126 1.27814,0.35394 3.69678,1.47477 3.69678,1.47477 l 0.25561,-0.78655 z"
                 id="path8076" />
              <path
                 style="fill:#000000;fill-opacity:1;stroke:#000000;stroke-width:0.1;stroke-linecap:round;stroke-dasharray:none;stroke-opacity:1"
                 d="m 286.34229,125.61149 c 0.0983,0.0197 0.92419,0.2163 1.29781,-0.13764 0.37359,-0.35395 2.08433,-2.96922 2.28097,-2.67426 0.19664,0.29495 -2.18265,2.91022 -2.33997,3.26417 -0.1573,0.35394 -0.29496,1.43544 -0.29496,1.43544 z"
                 id="path8078" />
              <path
                 style="fill:#000000;fill-opacity:1;stroke:#000000;stroke-width:0.1;stroke-linecap:round;stroke-dasharray:none;stroke-opacity:1"
                 d="m 289.99973,133.241 c 0,0 0.82587,0.27529 1.14049,-0.0787 0.31462,-0.35395 2.43829,-3.55912 2.71359,-3.28383 0.2753,0.27529 -2.08436,3.08719 -2.33997,3.6771 -0.25564,0.58991 -0.51126,2.33998 -0.53091,2.222 -0.0196,-0.11798 -0.9832,-2.53661 -0.9832,-2.53661 z"
                 id="path8080" />
              <path
                 style="fill:#000000;fill-opacity:1;stroke:#000000;stroke-width:0.1;stroke-linecap:round;stroke-dasharray:none;stroke-opacity:1"
                 d="m 289.64577,133.37864 c 0,0 -2.26131,-1.04218 -4.05069,-1.27814 -1.7894,-0.23596 -3.26419,-0.0787 -3.16587,0.27529 0.0983,0.35395 2.281,-0.13764 3.9524,0.4916 1.67143,0.62923 3.36248,1.98602 3.36248,1.98602 l 0.25564,-0.90452 z"
                 id="path8082" />
              <path
                 style="fill:#000000;fill-opacity:1;stroke:#000000;stroke-width:0.1;stroke-linecap:round;stroke-dasharray:none;stroke-opacity:1"
                 d="m 292.90997,140.8115 c 0,0 -2.59562,-0.94385 -3.69679,-1.12082 -1.10117,-0.17698 -2.45795,-0.39328 -2.41864,0.0197 0.0394,0.41293 2.26135,0.47192 3.34283,0.84553 1.08151,0.37361 3.34283,1.41579 3.34283,1.41579 z"
                 id="path8084" />
              <path
                 style="fill:#000000;fill-opacity:1;stroke:#000000;stroke-width:0.1;stroke-linecap:round;stroke-dasharray:none;stroke-opacity:1"
                 d="m 293.65718,141.34242 c 0,0 0.94384,0.53092 1.37644,0.21631 0.43262,-0.31462 1.23883,-1.96637 1.8484,-2.77258 0.60958,-0.80621 1.27813,-2.02536 1.65174,-1.71074 0.37362,0.31462 -2.02536,3.00854 -2.35963,3.71643 -0.3343,0.70789 -0.76689,1.55343 -0.84556,1.84839 -0.0786,0.29495 -0.17695,1.04217 -0.17695,1.04217 l -0.53094,-0.25563 z"
                 id="path8086" />
              <path
                 style="fill:#000000;fill-opacity:1;stroke:#000000;stroke-width:0.1;stroke-linecap:round;stroke-dasharray:none;stroke-opacity:1"
                 d="m 296.37077,148.57865 c 0,0 -0.23725,0.70498 -1.21916,0.39327 -1.23881,-0.39327 -1.00284,-0.49159 -2.45796,-0.78654 -1.177,-0.23858 -2.3793,-0.29496 -2.33998,0.13765 0.96045,0.62544 4.76327,0.76077 5.38784,1.47477 0.29496,0.39327 1.06185,0.70789 1.06185,0.70789 L 297,149.93545 Z"
                 id="path8088"
                 sodipodi:nodetypes="cssccccc" />
              <path
                 style="fill:#000000;fill-opacity:1;stroke:#000000;stroke-width:0.1;stroke-linecap:round;stroke-dasharray:none;stroke-opacity:1"
                 d="m 297.24635,149.10983 c 0,0 0.88988,0.18076 1.16798,-0.0556 0.27808,-0.23637 0.65349,-1.44605 1.51556,-2.47497 0.86207,-1.02891 1.98832,-1.84927 2.2525,-1.59899 0.26419,0.25028 -1.43216,1.43214 -2.07174,2.39154 -0.6396,0.9594 -1.16797,1.57119 -1.41824,2.22469 -0.25027,0.6535 -0.70911,1.84927 -0.70911,1.84927 z"
                 id="path8090" />
              <path
                 style="fill:#000000;fill-opacity:1;stroke:#000000;stroke-width:0.1;stroke-linecap:round;stroke-dasharray:none;stroke-opacity:1"
                 d="m 299.08172,155.28334 c 0,0 -0.18074,0.69522 -0.76473,0.69522 -0.58399,0 -2.5862,-0.59789 -3.33703,-0.6257 -0.75084,-0.0278 -2.11347,-0.0556 -2.11347,0.23638 0,0.29199 1.71024,0.15295 3.35095,0.61179 1.64071,0.45884 3.60122,1.39043 3.60122,1.39043 l -0.014,-0.79255 z"
                 id="path8092" />
              <path
                 style="fill:#000000;fill-opacity:1;stroke:#000000;stroke-width:0.1;stroke-linecap:round;stroke-dasharray:none;stroke-opacity:1"
                 d="m 300.44435,156.31226 c 0.0973,0.13905 0.6813,0.34761 1.11233,0.15295 0.43106,-0.19466 2.30812,-2.96162 2.73915,-2.73915 0.43104,0.22247 -1.93267,3.03114 -2.28028,3.57341 -0.34761,0.54227 -0.50057,1.52947 -0.50057,1.52947 z"
                 id="path8094" />
              <path
                 style="fill:#000000;fill-opacity:1;stroke:#000000;stroke-width:0.1;stroke-linecap:round;stroke-dasharray:none;stroke-opacity:1"
                 d="m 302.09289,163.42472 c 0,0 0.31461,0.47193 -1.25847,0.27529 -1.57311,-0.19663 -5.11257,-0.8652 -5.11257,-0.51125 0,0.35394 2.0057,0.55058 3.44115,0.84553 1.43544,0.29496 2.69393,0.51126 2.85122,0.68823 0.15733,0.17697 0.7669,0.53092 0.7669,0.53092 z"
                 id="path8096" />
              <path
                 style="fill:#000000;fill-opacity:1;stroke:#000000;stroke-width:0.1;stroke-linecap:round;stroke-dasharray:none;stroke-opacity:1"
                 d="m 304.37386,170.24801 c 0,0 0.21632,0.90453 -0.92419,0.66857 -1.14049,-0.23597 -4.62095,-1.16016 -4.64061,-0.72756 -0.0196,0.4326 2.06468,0.6489 3.04787,0.98318 0.98317,0.33429 3.10684,1.19949 3.10684,1.19949 z"
                 id="path8098" />
              <path
                 style="fill:#000000;fill-opacity:1;stroke:#000000;stroke-width:0.1;stroke-linecap:round;stroke-dasharray:none;stroke-opacity:1"
                 d="m 306.34024,177.18929 c 0,0 0.1573,0.47192 -1.10117,0.11798 -1.25846,-0.35395 -2.87089,-1.00285 -2.9692,-0.6489 -0.0983,0.35394 1.08148,0.51125 2.24165,1.02251 1.16015,0.51125 2.24166,0.92419 2.24166,0.92419 z"
                 id="path8100" />
              <path
                 style="fill:#000000;fill-opacity:1;stroke:#000000;stroke-width:0.1;stroke-linecap:round;stroke-dasharray:none;stroke-opacity:1"
                 d="m 303.96092,164.66353 c 0,0 -0.0786,0.47193 0.90453,0.23596 0.9832,-0.23596 4.0114,-4.28667 4.444,-3.8934 0.43259,0.39327 -2.94955,3.81475 -3.42149,4.40466 -0.47191,0.58991 -0.98316,2.00569 -0.98316,2.00569 z"
                 id="path8102" />
              <path
                 style="fill:#000000;fill-opacity:1;stroke:#000000;stroke-width:0.1;stroke-linecap:round;stroke-dasharray:none;stroke-opacity:1"
                 d="m 306.79249,172.41101 c 0,0 0.47194,-0.19663 0.9832,-0.0393 0.51125,0.15731 4.05071,-3.89341 4.40465,-3.57879 0.35396,0.31462 -3.50012,3.7361 -3.8934,4.24735 -0.39328,0.51126 -0.62923,1.7304 -0.62923,1.7304 z"
                 id="path8104" />
            </g>
            <path
               style="fill:none;fill-opacity:1;stroke:#000000;stroke-width:0.7;stroke-linecap:round;stroke-dasharray:none"
               d="m 288.74124,130.72405 c 0,0 -3.2973,-8.00784 -10.77567,-20.45021 -5.40103,-8.98613 -17.38268,-22.101967 -17.38268,-22.101967"
               id="path8108"
               sodipodi:nodetypes="csc" />
            <path
               style="fill:#00a002;fill-opacity:1;stroke:#000000;stroke-width:0.7;stroke-linecap:round;stroke-dasharray:none"
               d="m 315.0004,199.10973 h -3.44492 c 0,0 -3.61466,-18.31321 -8.40334,-32.9524 -4.50178,-13.76212 -14.60989,-35.79051 -14.60989,-35.79051 0,0 16.35149,34.48269 19.79975,45.71737 3.44826,11.23469 6.6584,23.02554 6.6584,23.02554 z"
               id="path8110"
               sodipodi:nodetypes="ccscsc" />
          </g>
        </g>
        <g
           id="g4202"
           transform="translate(-21.18191,-22.016756)">
          <path
             style="fill:#00a002;fill-opacity:1;stroke:#000000;stroke-width:0.7;stroke-linecap:round;stroke-dasharray:none"
             d="m 321.38474,175.03067 c 0,0 -0.58449,-1.6161 -1.91929,-1.72734 -1.33482,-0.11123 -1.72413,0.33371 -2.614,0.33371 -0.8899,0 -5.7286,-3.61513 -7.23024,-2.44716 -1.50167,1.16796 1.09205,5.41785 4.33814,7.45271 3.72635,2.33592 7.17462,2.05783 7.17462,2.05783 z"
             id="path3136"
             sodipodi:nodetypes="csssscc" />
          <path
             style="fill:#00a002;fill-opacity:1;stroke:#000000;stroke-width:0.7;stroke-linecap:round;stroke-dasharray:none"
             d="m 321.41205,166.12871 c 0,0 -0.16685,-1.55729 -3.00334,-2.05784 -2.83647,-0.50056 -2.55839,0.77864 -4.22691,0.72302 -1.66851,-0.0556 -8.12011,-2.66962 -9.34368,-1.39043 -1.22359,1.2792 3.5595,4.33815 7.23024,6.1179 3.67073,1.77975 8.67465,3.69493 9.1196,3.63931 0.44492,-0.0556 0.29316,-1.82419 0.29316,-1.82419 z"
             id="path3138"
             sodipodi:nodetypes="cssssscc" />
          <path
             style="fill:#00a002;fill-opacity:1;stroke:#000000;stroke-width:0.7;stroke-linecap:round;stroke-dasharray:none"
             d="m 321.65824,158.33183 c 0,0 -0.39328,-2.163 -2.67428,-2.35964 -2.28097,-0.19664 -3.14618,1.57309 -4.01137,1.57309 -0.86521,0 -8.84865,-4.64062 -10.26443,-2.71358 -1.41579,1.92704 8.73067,8.21941 11.64087,8.57336 2.91023,0.35394 5.30921,-0.55059 5.30921,-0.55059 z"
             id="path3140" />
          <path
             style="fill:#00a002;fill-opacity:1;stroke:#000000;stroke-width:0.7;stroke-linecap:round;stroke-dasharray:none"
             d="m 321.81554,150.58435 c 0,0 -0.23596,-1.17982 -2.94955,-1.84839 -2.7136,-0.66856 -2.28098,0.70789 -3.50012,0.70789 -1.21915,0 -8.53403,-3.97206 -9.51722,-2.35964 -0.9832,1.61243 2.94954,5.0339 6.84294,6.68565 3.89342,1.65175 9.08463,2.00569 9.08463,2.00569 z"
             id="path3142" />
          <path
             style="fill:#00a002;fill-opacity:1;stroke:#000000;stroke-width:0.7;stroke-linecap:round;stroke-dasharray:none"
             d="m 322.01217,142.44359 c 0,0 -1.21914,-2.63493 -3.06752,-2.98888 -1.84838,-0.35394 -2.32032,1.25848 -3.97206,1.21915 -1.65174,-0.0393 -9.12394,-3.61812 -10.02848,-2.28099 -0.90453,1.33713 2.55628,4.05072 7.39355,6.48901 4.83727,2.4383 7.86545,3.61812 8.45537,3.3035 0.58991,-0.31462 1.17983,-1.2978 1.17983,-1.2978 z"
             id="path3144" />
          <path
             style="fill:#00a002;fill-opacity:1;stroke:#000000;stroke-width:0.7;stroke-linecap:round;stroke-dasharray:none"
             d="m 322.28747,133.51629 c 0,0 -0.94385,-2.28099 -3.42148,-2.28099 -2.47761,0 -2.63494,1.37646 -3.77542,1.37646 -1.14049,0 -8.02278,-3.53946 -9.12395,-1.84839 -1.10117,1.69108 5.42719,4.87659 7.31489,5.8991 1.88772,1.02251 6.48901,2.71359 7.27556,2.32031 0.78655,-0.39327 1.7304,-1.7304 1.7304,-1.7304 z"
             id="path3161" />
          <path
             style="fill:#00a002;fill-opacity:1;stroke:#000000;stroke-width:0.7;stroke-linecap:round;stroke-dasharray:none"
             d="m 322.36613,125.65082 c 0,0 -1.21914,-2.08435 -2.63493,-2.43829 -1.41578,-0.35395 -2.43829,0.94385 -3.34282,0.94385 -0.90454,0 -8.92731,-3.53946 -10.18577,-1.80906 -1.2585,1.73041 4.20801,4.67996 6.9216,5.85978 2.71357,1.17982 7.43286,2.83156 8.02278,2.47762 0.58988,-0.35395 1.06182,-1.53377 1.06182,-1.53377 z"
             id="path3163" />
          <path
             style="fill:#00a002;fill-opacity:1;stroke:#000000;stroke-width:0.7;stroke-linecap:round;stroke-dasharray:none"
             d="m 322.20881,117.54939 c 0,0 -0.47194,-1.92704 -2.32031,-2.47762 -1.84838,-0.55059 -4.09004,1.10116 -5.11255,1.10116 -1.02251,0 -5.15189,-3.30349 -7.03958,-1.76973 -1.88772,1.53377 2.71357,5.07323 6.05639,6.25305 3.34283,1.17982 7.51152,2.163 7.78682,1.88771 0.2753,-0.27529 0.82587,-1.33713 0.82587,-1.33713 z"
             id="path3165" />
          <path
             style="fill:#00a002;fill-opacity:1;stroke:#000000;stroke-width:0.7;stroke-linecap:round;stroke-dasharray:none"
             d="m 322.32679,110.27383 c 0,0 -0.62923,-1.96636 -2.59559,-2.35964 -1.96638,-0.39327 -3.4608,1.41579 -4.48331,1.41579 -1.02251,0 -5.30921,-3.02821 -6.76431,-1.45511 -1.4551,1.57309 1.92704,4.16869 4.75861,5.23053 2.83157,1.06184 7.3542,1.96637 7.94411,1.84839 0.58992,-0.11799 1.14049,-0.94386 1.14049,-0.94386 z"
             id="path3167" />
          <path
             style="fill:#00a002;fill-opacity:1;stroke:#000000;stroke-width:0.7;stroke-linecap:round;stroke-dasharray:none"
             d="m 322.24816,103.27357 c 0,0 -0.58992,-1.88771 -2.16303,-2.20233 -1.57308,-0.31462 -2.12367,0.55058 -4.16869,0.55058 -2.04502,0 -5.34853,-2.280985 -6.48901,-0.35394 -1.14049,1.92703 3.02821,3.81475 5.4665,4.95524 2.43829,1.14049 6.64631,1.96637 7.07893,1.96637 0.4326,0 0.2753,-0.2753 0.2753,-0.2753 z"
             id="path3169"
             sodipodi:nodetypes="cssssscc" />
          <path
             style="fill:#00a002;fill-opacity:1;stroke:#000000;stroke-width:0.7;stroke-linecap:round;stroke-dasharray:none"
             d="m 322.38534,96.940856 c 0,0 -0.50054,-2.919905 -2.39154,-3.42046 -1.89098,-0.500557 -2.69743,0.695214 -3.64292,0.77864 -0.94548,0.08343 -4.14348,-2.39154 -5.56172,-1.223579 -1.41825,1.167964 1.58509,3.781973 3.97663,5.116788 2.39154,1.334812 6.22914,3.086755 6.75749,2.836475 0.52837,-0.25027 0.80645,-1.529471 0.80645,-1.529471 z"
             id="path3190" />
          <path
             style="fill:#00a002;fill-opacity:1;stroke:#000000;stroke-width:0.7;stroke-linecap:round;stroke-dasharray:none"
             d="m 322.32973,88.598268 c 0,0 0.0834,-1.251386 -1.75194,-1.557282 -1.83536,-0.305895 -1.86317,-0.08343 -2.72524,-0.08343 -0.86206,0 -2.94772,-2.502775 -4.39377,-1.307004 -1.44603,1.195771 0.97332,3.503885 3.64294,5.228021 2.66962,1.724133 4.14348,2.280306 4.44936,1.835369 0.30592,-0.444939 0.88988,-1.696328 0.88988,-1.696328 z"
             id="path3192" />
          <path
             style="fill:#00a002;fill-opacity:1;stroke:#000000;stroke-width:0.7;stroke-linecap:round;stroke-dasharray:none"
             d="m 322.32973,87.263456 c 0,0 -4.47718,-1.056728 -4.5606,-3.615121 -0.0834,-2.558394 0.9733,-2.224691 2.14125,-4.421571 1.16797,-2.196881 2.22469,-5.700768 4.25473,-5.088978 2.03002,0.611788 0.22247,4.532805 0.66739,5.700768 0.44495,1.167961 2.80868,1.557282 3.14238,2.697435 0.33372,1.140153 -1.44603,4.8387 -2.33593,5.200214 -0.88987,0.36151 -3.2258,0.723024 -3.2258,0.723024 z"
             id="path3194" />
          <path
             style="fill:#00a002;fill-opacity:1;stroke:#000000;stroke-width:0.7;stroke-linecap:round;stroke-dasharray:none"
             d="m 322.52441,89.960891 c 0,0 -0.0278,-0.723024 1.22356,-1.167961 1.2514,-0.444939 1.47386,0.166851 2.61401,-0.02781 1.14017,-0.19466 3.64294,-3.392652 5.86763,-1.890985 2.22467,1.501666 -1.91881,4.8387 -3.8654,6.368174 -1.94662,1.529474 -3.08676,2.697437 -3.97663,2.474968 -0.88988,-0.22247 -1.86317,-1.140153 -1.86317,-1.140153 z"
             id="path3218" />
          <path
             style="fill:#00a002;fill-opacity:1;stroke:#000000;stroke-width:0.7;stroke-linecap:round;stroke-dasharray:none"
             d="m 322.38534,99.109928 c 0,0 1.91881,-2.836479 3.19799,-3.114566 1.27921,-0.278085 1.39044,0.166851 2.39155,-0.08343 1.00113,-0.250277 4.4772,-3.921014 6.4794,-2.614009 2.00224,1.307004 -3.08673,5.367062 -5.03335,6.896537 -1.94659,1.52948 -4.69966,4.505 -5.56173,3.94883 -0.86206,-0.55617 -1.41824,-1.75194 -1.41824,-1.75194 z"
             id="path3220" />
          <path
             style="fill:#00a002;fill-opacity:1;stroke:#000000;stroke-width:0.7;stroke-linecap:round;stroke-dasharray:none"
             d="m 322.35753,106.56264 c 0,0 1.75197,-2.36373 3.33706,-2.86429 1.58507,-0.50055 3.05893,0.0278 4.11567,-0.16685 1.05672,-0.19466 5.42267,-2.39154 6.47941,-1.14015 1.05672,1.25138 -4.78308,5.97885 -7.20243,7.20243 -2.41935,1.22358 -5.00555,3.2258 -5.58954,2.80867 -0.58399,-0.41713 -1.19578,-1.55728 -1.19578,-1.55728 z"
             id="path3222" />
          <path
             style="fill:#00a002;fill-opacity:1;stroke:#000000;stroke-width:0.7;stroke-linecap:round;stroke-dasharray:none"
             d="m 322.41315,113.98754 c 0,0 2.5028,-2.05784 4.1157,-2.83648 1.6129,-0.77864 2.28028,-0.55617 3.17016,-0.83426 0.8899,-0.27808 7.10025,-3.62175 8.51604,-1.57673 1.41578,2.04502 -7.11825,6.80363 -9.04529,8.25874 -1.92704,1.45511 -4.67995,2.91022 -5.30921,2.94955 -0.62923,0.0393 -1.61239,-1.49444 -1.61239,-1.49444 z"
             id="path3224" />
          <path
             style="fill:#00a002;fill-opacity:1;stroke:#000000;stroke-width:0.7;stroke-linecap:round;stroke-dasharray:none"
             d="m 322.36613,122.34732 c 0,0 0.35394,-1.76972 2.55628,-2.51695 2.20233,-0.74722 2.98886,-0.19663 3.97205,-0.31461 0.98319,-0.11799 6.56767,-4.79794 8.84865,-3.06754 2.281,1.73041 -5.78112,7.15758 -8.37671,8.06211 -2.59562,0.90453 -4.83727,1.88771 -5.4665,1.65175 -0.62924,-0.23597 -1.37647,-1.02252 -1.37647,-1.02252 z"
             id="path3226" />
          <path
             style="fill:#00a002;fill-opacity:1;stroke:#000000;stroke-width:0.7;stroke-linecap:round;stroke-dasharray:none"
             d="m 322.56277,129.81952 c 0,0 1.92704,-2.75292 3.30348,-3.38215 1.37647,-0.62924 3.34283,0 4.24736,-0.23597 0.90453,-0.23596 8.37671,-4.40466 9.75318,-2.35964 1.37646,2.04502 -5.54517,6.21372 -8.49472,7.74749 -2.94954,1.53376 -6.29237,2.79224 -7.03958,2.67425 -0.74721,-0.11798 -1.80906,-1.41578 -1.80906,-1.41578 z"
             id="path3228" />
          <path
             style="fill:#00a002;fill-opacity:1;stroke:#000000;stroke-width:0.7;stroke-linecap:round;stroke-dasharray:none"
             d="m 322.64141,138.62884 c 0,0 3.22484,-3.89341 5.19123,-4.1687 1.96635,-0.27529 1.96635,0.51126 3.26416,0.23597 1.29778,-0.2753 8.49469,-3.85408 9.6352,-1.88772 1.14049,1.96637 -8.1801,6.29238 -10.73637,7.94412 -2.55627,1.65175 -4.91593,3.26417 -5.58448,3.14619 -0.66857,-0.11798 -1.61242,-1.14049 -1.61242,-1.14049 z"
             id="path3230" />
          <path
             style="fill:#00a002;fill-opacity:1;stroke:#000000;stroke-width:0.7;stroke-linecap:round;stroke-dasharray:none"
             d="m 323.03468,146.45498 c 0,0 1.84838,-2.47762 4.28668,-2.94955 2.43829,-0.47193 3.14618,-0.0393 4.24735,-0.27529 1.10117,-0.23597 6.725,-5.38785 9.08463,-3.02821 2.35963,2.35964 -5.23055,6.68565 -7.78682,8.57336 -2.55627,1.88771 -5.11254,3.93273 -6.80363,3.50013 -1.69108,-0.4326 -3.02821,-2.08435 -3.02821,-2.08435 z"
             id="path3232" />
          <path
             style="fill:#00a002;fill-opacity:1;stroke:#000000;stroke-width:0.7;stroke-linecap:round;stroke-dasharray:none"
             d="m 323.11334,156.16883 c 0,0 0.90453,-3.14619 3.57878,-3.3035 2.67428,-0.15731 2.75291,0.55059 3.61813,0.51126 0.86519,-0.0393 8.61269,-5.07323 10.22511,-3.14619 1.6124,1.92704 -8.18009,7.78681 -10.61839,9.2026 -2.43829,1.41578 -4.52263,2.71358 -5.26986,2.28098 -0.74721,-0.4326 -1.53377,-1.84838 -1.53377,-1.84838 z"
             id="path3234" />
          <path
             style="fill:#00a002;fill-opacity:1;stroke:#000000;stroke-width:0.7;stroke-linecap:round;stroke-dasharray:none"
             d="m 323.27524,164.96075 c 0,0 0.86207,-2.2247 2.89208,-2.83648 2.03004,-0.61179 1.91879,-0.16686 3.00334,-0.50056 1.08453,-0.3337 9.73302,-6.06228 11.6518,-3.67074 1.91881,2.39154 -9.26026,8.56506 -11.34591,9.76083 -2.08564,1.19577 -3.50388,2.19688 -4.53279,2.05784 -1.02894,-0.13905 -1.66852,-1.14016 -1.66852,-1.14016 z"
             id="path3543" />
          <path
             style="fill:#00a002;fill-opacity:1;stroke:#000000;stroke-width:0.7;stroke-linecap:round;stroke-dasharray:none"
             d="m 323.70326,173.59083 c 0,0 0.15729,-3.14618 2.51695,-3.77542 2.35964,-0.62923 3.10685,-0.0393 4.67995,-0.58991 1.57308,-0.55058 6.33169,-5.42717 8.41605,-3.34282 2.08434,2.08435 -7.27556,7.74748 -10.26443,9.3599 -2.98889,1.61242 -3.7361,2.67426 -4.60131,2.32032 -0.86519,-0.35395 -0.74721,-3.97207 -0.74721,-3.97207 z"
             id="path3545" />
          <path
             style="fill:#00a002;fill-opacity:1;stroke:#000000;stroke-width:0.7;stroke-linecap:round;stroke-dasharray:none"
             d="m 323.70326,180.55177 c 0,0 2.39895,-3.38215 4.75861,-3.97206 2.35963,-0.58991 2.83157,-0.15731 3.8934,-0.27529 1.06185,-0.11798 2.39897,-2.35964 3.81476,-1.02251 1.41578,1.33713 -3.46081,4.95524 -5.8991,6.7643 -2.43829,1.80906 -3.97208,2.75291 -5.03391,2.63493 -1.06182,-0.11798 -2.08436,-0.94385 -2.08436,-0.94385 z"
             id="path3547" />
          <path
             style="fill:#00a002;fill-opacity:1;stroke:#000000;stroke-width:0.7;stroke-linecap:round;stroke-dasharray:none"
             d="m 324.37182,199.10973 h -3.53945 l 1.65173,-72.00375 z"
             id="path975"
             sodipodi:nodetypes="cccc" />
          <path
             style="fill:#000000;fill-opacity:1;stroke:#000000;stroke-width:0.1;stroke-linecap:round;stroke-dasharray:none;stroke-opacity:1"
             d="m 324.11619,182.38049 c 0,0 1.20931,-0.97335 2.02536,-1.38628 0.81603,-0.41294 1.95274,-1.01562 2.14334,-0.59975 0.10815,0.23597 -1.5358,0.79189 -2.39898,1.39612 -0.98319,0.68823 -1.76972,1.44528 -1.76972,1.44528 z"
             id="path3857"
             sodipodi:nodetypes="cssscc" />
          <path
             style="fill:#000000;fill-opacity:1;stroke:#000000;stroke-width:0.1;stroke-linecap:round;stroke-dasharray:none;stroke-opacity:1"
             d="m 323.80158,174.61335 c 0,0 0.60957,0.55058 0.94385,0.4326 0.33427,-0.11799 4.52265,-2.83157 4.66029,-2.67426 0.13763,0.15731 -5.36819,4.09004 -5.36819,4.09004 z"
             id="path3913" />
          <path
             style="fill:#000000;fill-opacity:1;stroke:#000000;stroke-width:0.1;stroke-linecap:round;stroke-dasharray:none;stroke-opacity:1"
             d="m 323.66391,167.75073 c 0,0 5.6828,-3.7361 5.87944,-3.50013 0.19664,0.23596 -5.91875,4.52264 -5.91875,4.52264 z"
             id="path3915" />
          <path
             style="fill:#000000;fill-opacity:1;stroke:#000000;stroke-width:0.1;stroke-linecap:round;stroke-dasharray:none;stroke-opacity:1"
             d="m 323.42796,159.19703 c 0,0 1.49445,-1.16015 2.92989,-2.08435 1.43544,-0.92419 2.55627,-1.57309 2.63493,-1.31746 0.0787,0.25563 -2.55627,1.86805 -3.44114,2.57594 -0.88488,0.70789 -2.04502,1.84838 -2.04502,1.84838 z"
             id="path3917" />
          <path
             style="fill:#000000;fill-opacity:1;stroke:#000000;stroke-width:0.1;stroke-linecap:round;stroke-dasharray:none;stroke-opacity:1"
             d="m 323.23132,147.87076 c 0,0 0.17698,1.0815 0.98319,0.88487 0.80621,-0.19664 4.85693,-3.36249 5.19121,-3.14619 0.33427,0.2163 -4.91591,3.91307 -5.09289,4.12937 -0.17698,0.2163 -0.41293,1.16016 -0.41293,1.16016 l -0.68824,-0.72756 z"
             id="path3957" />
          <path
             style="fill:#000000;fill-opacity:1;stroke:#000000;stroke-width:0.1;stroke-linecap:round;stroke-dasharray:none;stroke-opacity:1"
             d="m 322.68075,139.57269 c 0,0 0.39328,1.04218 1.10117,0.7079 0.70789,-0.33429 5.01422,-3.12653 5.1912,-2.94955 0.17698,0.17697 -2.91023,2.28098 -4.03106,3.08719 -1.12082,0.80621 -1.96635,1.98603 -1.96635,1.98603 z"
             id="path3959" />
          <path
             style="fill:#000000;fill-opacity:1;stroke:#000000;stroke-width:0.1;stroke-linecap:round;stroke-dasharray:none;stroke-opacity:1"
             d="m 322.58243,131.37295 c 0,0.15731 0.0983,0.72755 1.12083,0.37361 1.02251,-0.35395 4.40465,-2.91023 4.64063,-2.67426 0.23596,0.23596 -4.48334,3.22484 -4.71929,3.50013 -0.23596,0.27529 -0.23596,1.04218 -0.31462,1.04218 -0.0787,0 -0.80621,-0.82588 -0.80621,-0.82588 z"
             id="path3961" />
          <path
             style="fill:#000000;fill-opacity:1;stroke:#000000;stroke-width:0.1;stroke-linecap:round;stroke-dasharray:none;stroke-opacity:1"
             d="m 322.68075,123.74344 c 0,0 0.58991,0.74722 1.00285,0.47193 0.41293,-0.27529 3.9524,-2.85123 4.24733,-2.51695 0.29496,0.33429 -4.05069,2.94955 -4.03103,3.32316 0.0196,0.37361 0.80621,1.10117 0.70789,1.10117 -0.0983,0 -1.17983,-0.19664 -1.27815,-0.23597 -0.0983,-0.0393 -0.66855,-0.41293 -0.70789,-0.68822 -0.0393,-0.27529 0.059,-1.45512 0.059,-1.45512 z"
             id="path3963" />
          <path
             style="fill:#000000;fill-opacity:1;stroke:#000000;stroke-width:0.1;stroke-linecap:round;stroke-dasharray:none;stroke-opacity:1"
             d="m 322.58243,115.79932 c 0,0 0.68823,0.84554 1.39613,0.57025 0.70789,-0.27529 5.80077,-3.9524 6.09573,-3.48047 0.29496,0.47193 -6.15474,4.26702 -6.54801,4.69962 -0.39328,0.4326 -0.72755,1.75006 -0.72755,1.75006 l -0.41294,-0.66856 z"
             id="path3965" />
          <path
             style="fill:#000000;fill-opacity:1;stroke:#000000;stroke-width:0.1;stroke-linecap:round;stroke-dasharray:none;stroke-opacity:1"
             d="m 322.42511,108.54343 c 0,0.11798 0.5506,0.49159 1.12083,0.25563 0.57025,-0.23597 4.05071,-2.94955 4.36533,-2.57594 0.31462,0.37361 -4.58163,3.65744 -4.73892,3.91307 -0.15733,0.25562 -0.19664,1.67141 -0.19664,1.67141 l -0.62924,-0.80621 z"
             id="path3967" />
          <path
             style="fill:#000000;fill-opacity:1;stroke:#000000;stroke-width:0.1;stroke-linecap:round;stroke-dasharray:none;stroke-opacity:1"
             d="m 322.58243,99.63579 c 0,0 0.11798,0.6489 0.58992,0.55058 0.47191,-0.0983 2.83157,-2.261317 3.14618,-2.025354 0.31462,0.235963 -2.43829,2.300654 -2.83157,3.224844 -0.39328,0.92419 -0.47194,1.9467 -0.47194,1.9467 l -0.64889,-0.76688 z"
             id="path3969" />
          <path
             style="fill:#000000;fill-opacity:1;stroke:#000000;stroke-width:0.1;stroke-linecap:round;stroke-dasharray:none;stroke-opacity:1"
             d="m 322.45487,92.435859 c 0,0 0.59788,0.514458 1.14015,0.09733 0.54229,-0.417128 1.12625,-1.529474 1.48778,-1.307004 0.3615,0.222469 -1.69633,2.22469 -1.82148,2.502776 -0.12514,0.278087 -0.0556,1.195771 -0.0556,1.195771 l -0.6813,-0.431033 z"
             id="path4016" />
          <path
             style="fill:#000000;fill-opacity:1;stroke:#000000;stroke-width:0.1;stroke-linecap:round;stroke-dasharray:none;stroke-opacity:1"
             d="m 322.19069,88.417513 c -0.014,0.139043 -0.3615,1.39043 -0.80645,1.39043 -0.44493,0 -2.47497,-1.001109 -2.66962,-0.792543 -0.19466,0.208563 2.18297,1.376526 2.39154,1.738037 0.20857,0.361513 0.6813,1.279197 0.6813,1.279197 l 0.54227,-1.140153 z"
             id="path4018" />
          <path
             style="fill:#000000;fill-opacity:1;stroke:#000000;stroke-width:0.1;stroke-linecap:round;stroke-dasharray:none;stroke-opacity:1"
             d="m 321.84308,95.814606 c 0,0.111234 0.13904,1.946603 -0.44492,2.043933 -0.58399,0.09733 -1.9049,-0.987205 -2.61404,-1.320908 -0.70911,-0.333703 -1.27918,-0.875972 -1.52945,-0.639599 -0.25029,0.236374 2.27139,2.314171 2.93381,2.64182 1.2931,0.639598 2.19687,1.988318 2.19687,1.988318 l -0.0417,-0.34761 v -3.100661 z"
             id="path4020"
             sodipodi:nodetypes="csssscccc" />
          <path
             style="fill:#000000;fill-opacity:1;stroke:#000000;stroke-width:0.1;stroke-linecap:round;stroke-dasharray:none;stroke-opacity:1"
             d="m 322.2463,106.4514 c 0,0 -4.39375,-2.39154 -4.72747,-1.9466 -0.33369,0.44494 1.89101,1.11235 2.80869,1.80756 0.91768,0.69522 2.05782,2.2525 2.05782,2.2525 z"
             id="path4022" />
          <path
             style="fill:#000000;fill-opacity:1;stroke:#000000;stroke-width:0.1;stroke-linecap:round;stroke-dasharray:none;stroke-opacity:1"
             d="m 322.13507,111.54038 c 0,0.19466 -0.13904,0.77864 -0.77864,0.77864 -0.6396,0 -1.22357,-0.19466 -2.39154,-0.50055 -1.16795,-0.3059 -2.75304,-0.61179 -2.75304,-0.22247 0,0.38932 3.05895,1.02892 3.67072,1.25139 0.61179,0.22247 1.39044,0.55617 1.50167,0.83426 0.11123,0.27808 0.52837,0.83425 0.52837,0.83425 l 0.47273,-0.69521 z"
             id="path4024" />
          <path
             style="fill:#000000;fill-opacity:1;stroke:#000000;stroke-width:0.1;stroke-linecap:round;stroke-dasharray:none;stroke-opacity:1"
             d="m 322.16949,118.51291 c 0,0 -0.23598,0.84554 -0.74723,1.0815 -0.51126,0.23596 -1.98602,-0.68823 -2.83155,-0.82587 -0.84555,-0.13765 -1.94672,-0.60958 -1.94672,-0.2163 0,0.39327 1.14051,0.55058 2.61527,1.19948 1.47479,0.6489 2.35964,1.06184 2.37932,1.2978 0.0196,0.23597 0.29493,0.96352 0.29493,0.96352 l 0.53094,-0.51125 z"
             id="path4026" />
          <path
             style="fill:#000000;fill-opacity:1;stroke:#000000;stroke-width:0.1;stroke-linecap:round;stroke-dasharray:none;stroke-opacity:1"
             d="m 322.19069,126.19552 c 0,0 -0.30589,0.97331 -0.88988,0.9455 -0.58398,-0.0278 -4.36594,-1.22358 -4.81089,-0.9733 -0.44492,0.25027 3.36484,1.33481 3.92102,1.69632 0.55618,0.36152 1.11234,2.39155 1.11234,2.39155 0,0 0.47275,-0.69522 0.50056,-0.80645 0.0278,-0.11124 0.16685,-3.25362 0.16685,-3.25362 z"
             id="path4079" />
          <path
             style="fill:#000000;fill-opacity:1;stroke:#000000;stroke-width:0.1;stroke-linecap:round;stroke-dasharray:none;stroke-opacity:1"
             d="m 322.07946,133.48139 c 0,0 0.0278,1.75194 -0.75084,1.86317 -0.77864,0.11124 -2.50277,-0.58398 -3.42045,-0.75083 -0.91768,-0.16685 -2.08566,-0.58398 -2.16908,-0.22247 -0.0834,0.36151 2.53058,0.88988 3.25361,1.11235 0.72302,0.22246 1.83536,0.83425 2.14127,1.27919 0.30588,0.44494 0.38931,1.47386 0.38931,1.47386 l 1.05674,-0.77864 z"
             id="path4081" />
          <path
             style="fill:#000000;fill-opacity:1;stroke:#000000;stroke-width:0.1;stroke-linecap:round;stroke-dasharray:none;stroke-opacity:1"
             d="m 321.82919,142.96413 c 0,0 -0.0834,0.52836 -0.69522,0.80645 -0.6118,0.27808 -1.75194,-0.25028 -3.14238,-0.6118 -1.39044,-0.36151 -2.78087,-0.86206 -2.89211,-0.3337 -0.11123,0.52836 5.089,1.41824 5.58954,2.03003 0.50056,0.61179 1.22359,2.03003 1.22359,2.03003 z"
             id="path4083" />
          <path
             style="fill:#000000;fill-opacity:1;stroke:#000000;stroke-width:0.1;stroke-linecap:round;stroke-dasharray:none;stroke-opacity:1"
             d="m 321.74576,152.14097 c 0,0 -0.0556,0.80645 -0.58398,1.05673 -0.52838,0.25028 -3.08677,-0.77864 -3.72637,-0.83426 -0.6396,-0.0556 -1.75194,-0.55617 -1.75194,-0.11124 0,0.44494 2.28031,0.6118 3.25361,1.08454 0.9733,0.47275 2.03004,0.75083 2.16908,1.16796 0.13904,0.41713 0.66741,0.80645 0.66741,0.80645 z"
             id="path4085" />
          <path
             style="fill:#000000;fill-opacity:1;stroke:#000000;stroke-width:0.1;stroke-linecap:round;stroke-dasharray:none;stroke-opacity:1"
             d="m 321.55108,159.95519 c 0,0 -0.69519,0.25028 -2.22467,-0.0834 -1.52947,-0.33371 -3.36486,-0.75084 -3.36486,-0.36152 0,0.38933 5.28365,1.52948 5.4505,1.80757 0.16684,0.27808 0.13903,-1.36263 0.13903,-1.36263 z"
             id="path4087" />
          <path
             style="fill:#000000;fill-opacity:1;stroke:#000000;stroke-width:0.1;stroke-linecap:round;stroke-dasharray:none;stroke-opacity:1"
             d="m 321.32862,167.99188 c 0,0 -0.75083,0.77865 -1.58509,0.47275 -0.83426,-0.30589 -3.14238,-1.39043 -3.30922,-1.02892 -0.16685,0.36151 3.53168,1.6129 3.94882,1.80756 0.41712,0.19466 1.08453,1.00111 1.08453,1.00111 z"
             id="path4089" />
          <path
             style="fill:#000000;fill-opacity:1;stroke:#000000;stroke-width:0.1;stroke-linecap:round;stroke-dasharray:none;stroke-opacity:1"
             d="m 321.18958,177.7249 c 0,0 -1.33482,-0.69521 -2.58619,-1.02892 -1.2514,-0.3337 -2.41935,-0.69521 -2.44716,-0.30589 -0.0278,0.38932 2.47497,0.80645 3.03112,1.11234 0.55618,0.3059 1.97443,1.47386 1.97443,1.47386 z"
             id="path4091" />
          <path
             style="fill:#00a002;fill-opacity:1;stroke:#000000;stroke-width:0.7;stroke-linecap:round;stroke-dasharray:none"
             d="M 322.46877,127.91966 V 83.314632"
             id="path3159" />
        </g>
      </g>
    </g>
  </g>
</svg>
