<?xml version="1.0" encoding="UTF-8" standalone="no"?>
<!-- Created with Inkscape (http://www.inkscape.org/) -->

<svg
   width="145.6245mm"
   height="170.23643mm"
   viewBox="0 0 145.6245 170.23643"
   version="1.1"
   id="svg5596"
   inkscape:version="1.2.2 (732a01da63, 2022-12-09)"
   sodipodi:docname="DEU Nehms COA.svg"
   xmlns:inkscape="http://www.inkscape.org/namespaces/inkscape"
   xmlns:sodipodi="http://sodipodi.sourceforge.net/DTD/sodipodi-0.dtd"
   xmlns="http://www.w3.org/2000/svg"
   xmlns:svg="http://www.w3.org/2000/svg">
  <sodipodi:namedview
     id="namedview5598"
     pagecolor="#ffffff"
     bordercolor="#666666"
     borderopacity="1.0"
     inkscape:showpageshadow="2"
     inkscape:pageopacity="0.0"
     inkscape:pagecheckerboard="0"
     inkscape:deskcolor="#d1d1d1"
     inkscape:document-units="mm"
     showgrid="false"
     inkscape:zoom="0.83193779"
     inkscape:cx="275.26097"
     inkscape:cy="322.74048"
     inkscape:current-layer="layer1" />
  <defs
     id="defs5593">
    <inkscape:path-effect
       effect="powerstroke"
       id="path-effect1584"
       is_visible="true"
       lpeversion="1"
       offset_points="0.2,0.1 | 0.99653906,0.1788037 | 1.8,0.1"
       not_jump="false"
       sort_points="true"
       interpolator_type="CentripetalCatmullRom"
       interpolator_beta="0.2"
       start_linecap_type="zerowidth"
       linejoin_type="round"
       miter_limit="4"
       scale_width="1"
       end_linecap_type="zerowidth" />
    <inkscape:path-effect
       effect="powerstroke"
       id="path-effect1588"
       is_visible="true"
       lpeversion="1"
       offset_points="0.21434691,0.058659606 | 0.99885725,0.13897166 | 1.8,0.1"
       not_jump="false"
       sort_points="true"
       interpolator_type="CentripetalCatmullRom"
       interpolator_beta="0.2"
       start_linecap_type="zerowidth"
       linejoin_type="round"
       miter_limit="4"
       scale_width="1"
       end_linecap_type="zerowidth" />
  </defs>
  <g
     inkscape:label="Ebene 1"
     inkscape:groupmode="layer"
     id="layer1"
     transform="translate(-535.03097,-60.86484)">
    <g
       id="g5409"
       transform="translate(502.54603,-6.01335)">
      <path
         id="path4314"
         style="fill:#ffff00;fill-opacity:1;stroke:none;stroke-width:0.9;stroke-linecap:round;stroke-dasharray:none"
         d="m 32.934941,67.32819 v 96.97393 a 72.362282,72.362282 0 0 0 72.361989,72.3625 72.362282,72.362282 0 0 0 72.36251,-72.36199 72.362282,72.362282 0 0 0 0,-5.1e-4 V 67.32819 Z" />
      <path
         id="path3529"
         style="fill:#0035ff;fill-opacity:1;stroke:#000000;stroke-width:0.699999;stroke-dasharray:none"
         d="m 150.68848,189.90159 c -5.56476,0.002 -9.55169,4.58635 -15.11639,4.58835 -5.56476,0.002 -9.5548,-4.58053 -15.11949,-4.57853 -5.56479,0.002 -9.55265,4.58531 -15.11743,4.58731 -5.564678,0.002 -9.554714,-4.58001 -15.119488,-4.57801 -5.564674,0.002 -9.551661,4.58583 -15.11639,4.58783 -5.564733,0.002 -9.554727,-4.58001 -15.119491,-4.57801 -5.56474,0.002 -9.552151,4.58428 -15.116906,4.58628 -2.166599,7.5e-4 -4.093474,-0.69681 -5.968628,-1.54461 a 72.362282,72.362282 0 0 0 4.097941,8.05739 c 0.60606,0.1081 1.227419,0.17128 1.870687,0.17105 5.564755,-0.002 9.552166,-4.58428 15.116906,-4.58628 5.564764,-0.002 9.554758,4.58001 15.119491,4.57801 5.564729,-0.002 9.551716,-4.58583 15.11639,-4.58783 5.564774,-0.002 9.55481,4.58001 15.119488,4.57801 5.56478,-0.002 9.55264,-4.58531 15.11743,-4.58731 5.56469,-0.002 9.55473,4.58053 15.11949,4.57853 5.5647,-0.002 9.55163,-4.58635 15.11639,-4.58835 5.56472,-0.002 9.55472,4.58053 15.11949,4.57853 0.62158,-1.9e-4 1.22257,-0.06 1.80919,-0.16175 a 72.362282,72.362282 0 0 0 4.08605,-8.03672 c -1.85175,0.83399 -3.75662,1.51387 -5.89524,1.51464 -5.56477,0.002 -9.55477,-4.58053 -15.11949,-4.57853 z m -0.0382,13.36766 c -5.56476,0.002 -9.55169,4.58635 -15.11639,4.58835 -5.56476,0.002 -9.5548,-4.58054 -15.11949,-4.57854 -5.56479,0.002 -9.55265,4.58532 -15.11743,4.58732 -5.564678,0.002 -9.554713,-4.58053 -15.119489,-4.57853 -5.564674,0.002 -9.551659,4.58635 -15.11639,4.58835 -5.564733,0.002 -9.554728,-4.58053 -15.11949,-4.57853 -4.692261,0.002 -8.265987,3.25115 -12.606466,4.27416 a 72.362282,72.362282 0 0 0 4.205428,5.09788 c 2.673921,-1.26302 5.292464,-2.68709 8.401038,-2.68821 5.564762,-0.002 9.554757,4.58053 15.11949,4.57853 5.564731,-0.002 9.551716,-4.58635 15.11639,-4.58835 5.564776,-0.002 9.554811,4.58053 15.119489,4.57853 5.56478,-0.002 9.55264,-4.58532 15.11743,-4.58732 5.56469,-0.002 9.55473,4.58002 15.11949,4.57802 5.5647,-0.002 9.55163,-4.58583 15.11639,-4.58783 3.11707,-9.8e-4 5.74239,1.42977 8.4248,2.69389 a 72.362282,72.362282 0 0 0 4.2075,-5.10512 c -4.35157,-1.01434 -7.93177,-4.27429 -12.6323,-4.2726 z m 0,13.36766 c -5.56476,0.002 -9.55169,4.58583 -15.11639,4.58783 -5.56476,0.002 -9.5548,-4.58002 -15.11949,-4.57802 -5.56479,0.002 -9.55265,4.58532 -15.11743,4.58732 -5.564678,0.002 -9.554713,-4.58053 -15.119489,-4.57853 -5.564674,0.002 -9.551659,4.58635 -15.11639,4.58835 -5.564733,0.002 -9.554728,-4.58053 -15.11949,-4.57853 -1.340456,4.7e-4 -2.587979,0.27035 -3.789433,0.67438 a 72.362282,72.362282 0 0 0 9.505363,7.4383 c 3.03345,1.34404 5.908014,3.15094 9.40356,3.14968 5.564731,-0.002 9.551716,-4.58635 15.11639,-4.58835 5.564776,-0.002 9.554811,4.58053 15.119489,4.57853 5.56478,-0.002 9.55264,-4.58532 15.11743,-4.58732 5.56469,-0.002 9.55473,4.58002 15.11949,4.57802 3.53656,-0.001 6.43693,-1.85054 9.50898,-3.20084 a 72.362282,72.362282 0 0 0 9.42423,-7.39076 c -1.2099,-0.40837 -2.46647,-0.68055 -3.81682,-0.68006 z" />
      <path
         id="path5328"
         style="fill:none;fill-opacity:1;stroke:#000000;stroke-width:0.9;stroke-linecap:round;stroke-dasharray:none"
         d="m 32.934941,67.32819 v 96.97393 a 72.362282,72.362282 0 0 0 72.361989,72.3625 72.362282,72.362282 0 0 0 72.36251,-72.36199 72.362282,72.362282 0 0 0 0,-5.1e-4 V 67.32819 Z" />
      <g
         id="g1830"
         transform="translate(-199.4429,-4.2321453)">
        <path
           style="fill:#2aa91c;fill-opacity:1;stroke:#000000;stroke-width:0.600001;stroke-linecap:round;stroke-dasharray:none"
           d="m 296.4494,176.4224 c 0,0 -10.5397,7.03959 -10.65771,8.10143 -0.11797,1.06184 -0.47191,3.69677 -0.47191,3.69677 l -2.08436,-3.53946 c 0,0 1.06186,-1.10116 1.33713,-1.45511 0.2753,-0.35395 0.62926,-1.25847 0.62926,-1.25847 0,0 3.57878,-2.20234 4.95522,-3.57879 1.37647,-1.37646 2.63493,-2.47762 2.63493,-2.47762 v -1.17982 c 0,0 -4.36533,2.5956 -6.37101,3.53946 -2.0057,0.94385 -4.0114,1.61242 -4.0114,1.61242 l -1.14048,2.28098 -5.8991,1.06184 7.9048,-6.21372 -11.09033,2.47762 c 0,0 -0.78653,-0.70789 -1.25847,-0.82587 -0.47193,-0.11798 -2.47761,-0.35395 -2.47761,-0.35395 0,0 12.11281,-2.43829 19.50636,-6.52833 7.39354,-4.09005 10.85434,-5.97776 11.32625,-13.44995 0.47194,-7.47219 1.33713,-27.37182 1.33713,-27.37182 0,0 -3.78887,-4.31955 -7.29275,-4.20831 -3.50389,0.11123 -8.23136,0.38932 -9.39932,1.55728 -1.16796,1.16796 -2.22469,3.17019 -2.22469,3.17019 l -1.16796,-0.33371 c 0,0 1.83537,-2.55839 0.11123,-2.55839 -1.72413,0 -5.45049,1.11234 -5.45049,1.11234 l -0.22247,-1.16796 c 0,0 6.1179,-2.16907 9.56617,-2.94771 3.44827,-0.77864 7.28586,-1.22358 7.28586,-1.22358 l -1.72413,-2.83648 1.66851,-0.66741 2.5584,3.17018 c 0,0 1.6129,0.50056 3.2258,0.88988 1.6129,0.38932 3.28141,0.94549 3.28141,0.94549 l 0.11124,-7.119 c 0,0 -1.89099,-1.6129 -6.67407,-5.61735 -4.78308,-4.00444 -6.00666,-4.89431 -6.00666,-4.89431 0,0 -9.23677,1.80671 -9.66937,2.39662 -0.4326,0.58991 -0.94386,1.49444 -0.94386,1.49444 l -0.58991,-0.23596 0.0787,-1.49444 c 0,0 -8.02278,2.39896 -8.65201,3.61811 -0.62924,1.21915 -3.18552,5.19121 -3.18552,5.19121 l -1.10116,-0.51126 2.47762,-4.95524 -3.89341,1.10116 -0.15731,-1.49443 c 0,0 7.43287,-1.45511 5.66314,-2.75292 -1.76973,-1.2978 -3.89341,-2.43829 -3.89341,-2.43829 l 0.51126,-1.25848 c 0,0 6.05641,3.81476 6.96094,3.34283 0.90452,-0.47193 5.07322,-1.80906 5.07322,-1.80906 0,0 0.78655,-0.66856 0.27529,-1.02251 -0.51125,-0.35395 -1.65175,-0.94386 -1.65175,-0.94386 l 0.94386,-1.0225 c 0,0 2.28098,2.20233 3.53946,1.88771 1.25847,-0.31462 4.64063,-1.37646 4.64063,-1.37646 0,0 1.17982,-0.51126 -0.0787,-1.65175 -1.25847,-1.14049 -4.36533,-4.09004 -6.80363,-5.781117 -2.43829,-1.691075 -4.87659,-3.106859 -4.87659,-3.106859 l 0.7079,-1.376457 c 0,0 4.71927,3.185514 5.34851,2.988877 0.62924,-0.196636 -0.90453,-5.427171 -0.90453,-5.427171 l 1.53377,-0.393274 c 0,0 1.49444,6.764301 2.79224,7.865466 1.2978,1.101165 5.82044,5.387845 6.13506,5.348515 0.31462,-0.0393 -0.15731,-2.28098 -0.15731,-2.28098 l 1.73041,-0.19664 c 0,0 -0.39328,4.56197 4.16869,7.66883 4.56197,3.10686 6.96094,4.01139 6.96094,4.01139 0,0 1.25848,-3.89341 0.35395,-5.30919 -0.90453,-1.41579 -3.3035,-2.20233 -3.3035,-2.20233 l 0.94386,-2.20233 3.14618,1.65174 c 0,0 0.98319,-7.157569 -0.27529,-8.337389 -1.25847,-1.17982 -4.48331,-4.12937 -4.48331,-4.12937 l 1.17982,-1.140492 c 0,0 3.22484,3.618114 4.326,3.264168 1.10117,-0.353946 1.01297,-2.304023 1.09163,-3.090569 0.0787,-0.786547 0.16685,-3.280458 0.16685,-3.280458 l 1.45511,0.196636 c 0,0 -0.58991,6.960938 0.23596,7.196902 0.82588,0.235964 4.32601,-2.595604 4.32601,-2.595604 l 0.9069,1.355879 c 0,0 -3.72635,2.057838 -3.86539,3.893207 -0.13905,1.83537 -0.13905,5.39487 -0.13905,5.39487 l 5.06117,-4.282525 0.77864,2.224685 c 0,0 -4.64404,4.08787 -4.81089,5.4783 -0.16685,1.39043 -0.0556,5.39488 -0.0556,5.39488 l 7.17463,-4.86651 c 0,0 1.14015,-1.69633 1.2792,-2.86429 0.13904,-1.16796 0.30589,-3.75416 0.30589,-3.75416 l 1.50167,0.16685 v 3.92101 l 7.67518,-6.61845 c 0,0 1.6129,-1.918795 2.11345,-3.114565 0.50056,-1.195771 0.88988,-2.586202 0.88988,-2.586202 l 1.39043,0.667407 -1.6129,4.282528 c 0,0 1.47385,-0.250278 3.11456,-0.750833 1.64071,-0.500555 3.28142,-1.446049 3.28142,-1.446049 l 0.47275,1.696326 c 0,0 -1.75195,0.583981 -3.78198,1.279197 -2.03002,0.695216 -4.11567,1.612901 -5.89542,3.337031 -1.77976,1.72414 -2.78087,2.58621 -2.78087,2.58621 0,0 2.39155,0.58398 4.03225,1.02891 1.64071,0.44494 2.58621,0.77865 2.58621,0.77865 l 3.39265,-2.14127 0.72302,1.22358 -2.00222,1.55728 c 0,0 2.14125,0.66741 3.89319,1.47386 1.75194,0.80645 2.94771,1.69633 4.31034,0.9733 1.36262,-0.72302 4.47718,-3.36484 4.47718,-3.36484 l 0.9455,1.39043 c 0,0 -4.22691,2.72525 -4.14349,3.25361 0.0834,0.52836 5.22802,2.44716 5.22802,2.44716 l -0.58398,1.50166 c 0,0 -6.20132,-2.47496 -6.81311,-2.14126 -0.61179,0.3337 0.36151,4.72747 0.36151,4.72747 l -1.91879,0.61179 c 0,0 -0.33371,-6.4238 -2.22469,-7.20244 -1.89099,-0.77864 -5.72858,-2.47496 -6.22913,-1.6129 -0.50056,0.86207 -0.27809,1.30701 -0.27809,1.30701 l -1.75194,0.50055 0.13904,-2.75305 -6.64626,-1.36262 -10.48385,9.23246 c 0,0 -1.22358,1.2792 -1.19577,2.9199 0.0278,1.64071 -0.33371,4.03225 1.36262,3.198 1.69633,-0.83426 4.33814,-2.16908 4.33814,-2.16908 l 0.11124,1.39043 c 0,0 -2.28031,1.41824 -3.30923,2.5584 -1.02892,1.14015 -1.22358,2.75305 -1.22358,2.75305 l 12.15237,-2.14126 c 0,0 3.03114,1.22358 4.78308,1.9466 1.75195,0.72303 4.47719,0.94549 4.47719,0.94549 l -0.16685,1.33482 h -1.44605 l 1.22358,3.08676 -1.19577,0.44493 c 0,0 -0.44494,-2.5862 -2.5862,-3.39265 -2.14126,-0.80645 -3.61512,-1.80756 -6.31256,-1.50166 -2.69743,0.30589 -11.76304,1.86317 -11.87428,4.22691 -0.11123,2.36373 1.59226,32.08913 1.59226,32.08913 0,0 -0.94386,3.4608 5.34852,5.97775 6.29237,2.51695 21.19743,6.21372 21.19743,6.21372 0,0 -1.41579,0.70789 -1.96637,0.8652 -0.55058,0.15731 -0.98318,0.82587 -0.98318,0.82587 0,0 -2.32032,-0.70789 -5.23054,-1.02251 -2.91022,-0.31461 -5.15188,-0.19663 -5.15188,-0.19663 l 3.57879,3.57878 -0.47193,1.80906 -4.64062,-5.0339 -0.19664,3.42148 -4.52264,-4.24735 c 0,0 -1.02251,-1.41578 -1.88772,-1.33713 -0.8652,0.0787 -1.41578,0.47193 -1.41578,0.47193 l 7.47219,8.02277 c 0,0 -0.82587,-0.0786 -1.19948,-0.0197 -0.37361,0.059 -0.96352,0.60957 -0.96352,0.60957 0,0 -3.16585,-3.69677 -4.12937,-3.42147 -0.96352,0.27529 -1.23881,2.51695 -1.25847,2.5956 -0.0197,0.0787 -1.47478,1.69108 -1.47478,1.69108 0,0 1.06184,-5.28953 -0.27529,-6.54801 -1.33713,-1.25847 -2.83157,-2.83156 -3.16585,-3.22484 -0.33428,-0.39327 -1.47478,-1.57309 -1.47478,-1.57309 0,0 0.74722,4.01139 1.23882,4.95524 0.49159,0.94386 1.82872,2.51695 1.82872,2.51695 0,0 -1.80906,-0.96352 -2.53662,-0.15731 -0.72755,0.80621 0.7079,4.6013 0.7079,4.6013 l -1.3568,2.28099 c 0,0 -1.27814,-5.85978 -1.67141,-5.85978 -0.39327,0 -1.21915,1.84839 -2.08435,4.28668 -0.8652,2.4383 -0.96352,3.06754 -0.96352,3.06754 l -2.18266,3.16585 c 0,0 3.09498,-17.38488 1.31522,-17.44049 -1.77975,-0.0556 -4.64404,10.90098 -4.64404,10.90098 l -1.66851,1.14015 0.88987,-5.72858 c 0,0 -2.30811,3.28142 -4.1991,4.44938 -1.89099,1.16797 -4.22691,1.97442 -4.22691,1.97442 0,0 3.89321,-3.30923 5.58953,-6.4516 1.69633,-3.14238 2.06733,-4.88982 2.06733,-4.88982 z"
           id="path953"
           sodipodi:nodetypes="csccscsccscccccscsscssccsccsccccsccscscccscccccsccscsccscssccsccssccscscccsccssccsccscccsccsccccscccsccsscsccccssccsccsccsscccccssccsccscccccssscscscsccccccscc" />
        <path
           style="fill:#2aa91c;fill-opacity:1;stroke:#000000;stroke-width:0.600001;stroke-linecap:round;stroke-dasharray:none"
           d="m 271.07845,138.98749 c 0,0 0.77865,-5.33925 4.50498,-7.119 3.72637,-1.77976 6.61845,-1.66852 7.89766,0.83425 1.27921,2.50278 -2.94772,5.61735 -5.28365,5.72858 -2.3359,0.11123 -3.67072,0.11123 -4.50498,0.11123 -0.83426,0 -2.61401,0.44494 -2.61401,0.44494 z"
           id="path955" />
        <path
           style="fill:#2aa91c;fill-opacity:1;stroke:#000000;stroke-width:0.600001;stroke-linecap:round;stroke-dasharray:none"
           d="m 275.76325,128.75768 c 0,0 -0.82587,-4.83726 -6.76432,-4.12937 -2.31903,0.27644 -3.73501,1.43794 -5.07897,2.2717 -2.09758,1.30128 -3.45505,2.36892 -3.45505,2.36892 0,0 4.24736,2.55628 9.08462,3.61811 2.00336,0.43977 5.54514,-1.17981 5.8991,-1.96636 0.35393,-0.78654 0.31462,-2.163 0.31462,-2.163 z"
           id="path1201"
           sodipodi:nodetypes="csscssc" />
        <path
           style="fill:#2aa91c;fill-opacity:1;stroke:#000000;stroke-width:0.600001;stroke-linecap:round;stroke-dasharray:none"
           d="m 272.18444,120.38096 c 0,0 3.89342,-1.88772 7.86548,0.0786 3.97206,1.96637 3.26416,8.3374 -0.82587,6.56767 -4.09004,-1.76973 -7.03961,-6.64632 -7.03961,-6.64632 z"
           id="path1203" />
        <path
           style="fill:#2aa91c;fill-opacity:1;stroke:#000000;stroke-width:0.600001;stroke-linecap:round;stroke-dasharray:none"
           d="m 291.45484,121.95405 c 0,0 -4.95525,0.62924 -7.15756,-3.65744 -2.20234,-4.28668 -0.86522,-6.37103 -0.86522,-6.37103 0,0 6.41035,2.5956 7.7475,4.28668 1.33713,1.69108 2.08434,3.81475 1.73041,4.52264 -0.35396,0.7079 -1.45513,1.21915 -1.45513,1.21915 z"
           id="path1205" />
        <path
           style="fill:#2aa91c;fill-opacity:1;stroke:#000000;stroke-width:0.600001;stroke-linecap:round;stroke-dasharray:none"
           d="m 268.29104,120.7349 c 0,0 0.19664,-4.60129 3.06753,-6.88228 2.87091,-2.28098 5.70246,-3.26417 6.25305,-2.79224 0.55058,0.47193 1.53377,4.44399 -1.2978,6.37103 -2.83157,1.92704 -8.02278,3.30349 -8.02278,3.30349 z"
           id="path1207" />
        <path
           style="fill:#2aa91c;fill-opacity:1;stroke:#000000;stroke-width:0.600001;stroke-linecap:round;stroke-dasharray:none"
           d="m 254.95908,126.75198 c 0,-0.1573 0.0393,-4.67995 3.26417,-6.7643 3.22484,-2.08434 6.56767,-3.34282 7.70816,-0.70789 1.14048,2.63493 -0.70789,5.38785 -3.77543,6.25305 -3.06753,0.8652 -7.1969,1.21914 -7.1969,1.21914 z"
           id="path1209" />
        <path
           style="fill:#2aa91c;fill-opacity:1;stroke:#000000;stroke-width:0.600001;stroke-linecap:round;stroke-dasharray:none"
           d="m 248.62738,115.11109 c 0,0 2.39897,-2.00569 3.85408,-2.71358 1.45511,-0.70789 4.28668,-2.83157 8.10143,-1.61242 3.81475,1.21915 4.16869,4.79793 1.57309,5.8991 -2.5956,1.10116 -6.21372,1.84838 -8.88797,0.74722 -2.67426,-1.10117 -4.64063,-2.32032 -4.64063,-2.32032 z"
           id="path1211" />
        <path
           style="fill:#2aa91c;fill-opacity:1;stroke:#000000;stroke-width:0.600001;stroke-linecap:round;stroke-dasharray:none"
           d="m 253.15002,102.36904 c 0,0 5.82045,-3.028205 9.59587,-1.25848 3.77543,1.76974 4.83726,7.11825 1.80906,8.18009 -3.02821,1.06184 -5.74179,0.31462 -7.55085,-2.12368 -1.80906,-2.43829 -3.85408,-4.79793 -3.85408,-4.79793 z"
           id="path1213" />
        <path
           style="fill:#2aa91c;fill-opacity:1;stroke:#000000;stroke-width:0.600001;stroke-linecap:round;stroke-dasharray:none"
           d="m 265.65611,101.50384 c 0,0 4.28667,-1.848386 8.29807,-0.11798 4.01138,1.7304 4.01138,5.38784 2.163,5.93842 -1.84838,0.55058 -3.65744,1.06184 -5.85978,-0.74721 -2.20231,-1.80906 -2.83155,-3.26417 -3.30348,-3.77543 -0.47194,-0.51126 -1.29781,-1.2978 -1.29781,-1.2978 z"
           id="path1215" />
        <path
           style="fill:#2aa91c;fill-opacity:1;stroke:#000000;stroke-width:0.600001;stroke-linecap:round;stroke-dasharray:none"
           d="m 261.21213,88.132546 c 0,0 4.40466,-0.353947 5.85976,-0.471927 1.45511,-0.117983 4.40466,-0.511257 5.85978,1.769729 1.45511,2.280986 2.12368,6.331702 -0.11797,7.668829 -2.24166,1.33713 -5.58448,2.045023 -7.82614,-0.786545 -2.24167,-2.831569 -1.65176,-3.97206 -2.39898,-5.427173 -0.74722,-1.455111 -1.37645,-2.752913 -1.37645,-2.752913 z"
           id="path1217" />
        <path
           style="fill:#2aa91c;fill-opacity:1;stroke:#000000;stroke-width:0.600001;stroke-linecap:round;stroke-dasharray:none"
           d="m 274.81937,79.441206 c 0,0 6.1744,3.421478 6.96095,6.253046 0.78655,2.831568 0.11798,6.528337 -2.59561,6.842955 -2.71357,0.314619 -4.91591,-2.005695 -5.19121,-4.640625 -0.27527,-2.634929 0.35396,-5.033898 0.43262,-5.781116 0.0786,-0.747221 0.39325,-2.67426 0.39325,-2.67426 z"
           id="path1219" />
        <path
           style="fill:#2aa91c;fill-opacity:1;stroke:#000000;stroke-width:0.600001;stroke-linecap:round;stroke-dasharray:none"
           d="m 287.0895,90.45286 c 0,0 5.19121,4.129368 5.66314,7.118246 0.47194,2.988874 -0.98319,5.191204 -2.87088,5.505824 -1.88773,0.31462 -4.75861,-1.96637 -4.99457,-5.112552 -0.23598,-3.146184 1.14049,-5.348515 1.33712,-5.663134 0.19664,-0.314619 0.86519,-1.848384 0.86519,-1.848384 z"
           id="path1221" />
        <path
           style="fill:#2aa91c;fill-opacity:1;stroke:#000000;stroke-width:0.600001;stroke-linecap:round;stroke-dasharray:none"
           d="m 288.34799,83.019994 c 0,0 4.64061,0.865201 6.52833,1.297803 1.88772,0.432599 5.23052,1.533765 5.07323,5.151879 -0.15732,3.618113 -0.47194,5.741789 -3.97206,5.663136 -3.50014,-0.07865 -6.29237,-2.79224 -6.64633,-5.073226 -0.35393,-2.280987 -0.98317,-7.039592 -0.98317,-7.039592 z"
           id="path1242" />
        <path
           style="fill:#2aa91c;fill-opacity:1;stroke:#000000;stroke-width:0.600001;stroke-linecap:round;stroke-dasharray:none"
           d="m 304.47218,77.632149 c 0,0 2.98889,3.578788 3.65744,4.286678 0.66857,0.707893 3.57881,4.797936 0.19664,6.803629 -3.38215,2.005695 -7.98343,1.179822 -8.02278,-2.320312 -0.0393,-3.500133 1.69109,-5.387845 2.51696,-6.371029 0.82587,-0.983181 1.65174,-2.398966 1.65174,-2.398966 z"
           id="path1244" />
        <path
           style="fill:#2aa91c;fill-opacity:1;stroke:#000000;stroke-width:0.600001;stroke-linecap:round;stroke-dasharray:none"
           d="m 318.78733,85.222325 c 0,0 -6.76429,0.825873 -8.25873,3.303495 -1.49445,2.477622 -2.4383,4.365334 -0.90454,6.135063 1.53377,1.769729 5.50582,-0.117981 6.64634,-1.297803 1.14048,-1.179819 1.80903,-3.185511 1.88769,-4.561969 0.0787,-1.376455 0.62924,-3.578786 0.62924,-3.578786 z"
           id="path1246" />
        <path
           style="fill:#2aa91c;fill-opacity:1;stroke:#000000;stroke-width:0.600001;stroke-linecap:round;stroke-dasharray:none"
           d="m 321.4616,91.003442 c 0,0 -6.13508,4.050715 -6.56767,6.331701 -0.43259,2.280983 0.39328,4.876587 2.39898,5.466497 2.00567,0.58991 5.66311,-1.96637 6.13505,-4.12937 0.47194,-2.163003 -1.96636,-7.668828 -1.96636,-7.668828 z"
           id="path1248" />
        <path
           style="fill:#2aa91c;fill-opacity:1;stroke:#000000;stroke-width:0.600001;stroke-linecap:round;stroke-dasharray:none"
           d="m 334.20364,82.272774 c 0,0 -6.37103,3.814752 -6.68565,6.567665 -0.31461,2.752912 0.2753,5.58448 1.76975,6.371026 1.49444,0.786548 4.79793,-0.904529 6.01707,-3.736097 1.21915,-2.831565 0.11798,-5.663133 -0.0787,-6.724972 -0.19664,-1.061837 -1.02251,-2.477622 -1.02251,-2.477622 z"
           id="path1250" />
        <path
           style="fill:#2aa91c;fill-opacity:1;stroke:#000000;stroke-width:0.600001;stroke-linecap:round;stroke-dasharray:none"
           d="m 346.39512,87.975238 c 0,0 -0.39328,6.842956 -3.26417,8.612685 -2.87089,1.769729 -7.43286,2.79224 -8.14075,1.022511 -0.7079,-1.769732 0.39327,-5.741792 2.28097,-7.432865 1.88772,-1.691077 3.65744,-1.80906 4.87659,-1.80906 1.21915,0 4.24736,-0.393271 4.24736,-0.393271 z"
           id="path1252" />
        <path
           style="fill:#2aa91c;fill-opacity:1;stroke:#000000;stroke-width:0.600001;stroke-linecap:round;stroke-dasharray:none"
           d="m 342.06912,99.222852 c 0,0 0,6.135068 -2.83157,7.275558 -2.83157,1.14049 -6.48901,0.66856 -6.9216,-1.57309 -0.43262,-2.24166 0.70789,-3.89341 2.79223,-4.52265 2.08436,-0.629233 4.28667,-0.707888 4.79792,-0.825871 0.51126,-0.117981 2.16302,-0.353947 2.16302,-0.353947 z"
           id="path1254" />
        <path
           style="fill:#2aa91c;fill-opacity:1;stroke:#000000;stroke-width:0.600001;stroke-linecap:round;stroke-dasharray:none"
           d="m 354.30965,101.13996 c 0,0 -5.97884,-0.47275 -8.31477,1.33481 -2.33593,1.80756 -2.61403,4.44938 -1.22359,6.14571 1.39044,1.69632 5.97887,0.72302 7.31366,-0.61179 1.33483,-1.33482 1.64071,-4.03225 1.72413,-4.56062 0.0834,-0.52836 0.50057,-2.30811 0.50057,-2.30811 z"
           id="path1282" />
        <path
           style="fill:#2aa91c;fill-opacity:1;stroke:#000000;stroke-width:0.600001;stroke-linecap:round;stroke-dasharray:none"
           d="m 357.45203,116.51812 c 0,0 -2.2247,-4.25471 -6.34037,-5.03336 -4.11568,-0.77864 -5.64515,2.00222 -5.70077,2.83648 -0.0556,0.83426 -0.27808,3.25361 2.83647,4.53281 3.11457,1.2792 4.67185,-0.16685 6.22914,-0.94549 1.55728,-0.77864 2.97553,-1.39044 2.97553,-1.39044 z"
           id="path1284" />
        <path
           style="fill:#2aa91c;fill-opacity:1;stroke:#000000;stroke-width:0.600001;stroke-linecap:round;stroke-dasharray:none"
           d="m 348.21955,125.25003 c 0,0 -6.2013,0.88988 -9.14903,-2.11345 -2.94772,-3.00333 -1.11233,-5.42268 -0.41711,-6.03447 0.69519,-0.61179 4.14348,-0.47275 6.4516,1.83536 2.30809,2.30812 3.11454,6.31256 3.11454,6.31256 z"
           id="path1286" />
        <path
           style="fill:#2aa91c;fill-opacity:1;stroke:#000000;stroke-width:0.600001;stroke-linecap:round;stroke-dasharray:none"
           d="m 347.13502,129.50475 c 0,0 -4.31032,-3.72635 -8.23134,-3.78197 -3.92102,-0.0556 -7.34148,1.55728 -7.23025,2.61401 0.11123,1.05673 2.91992,3.58731 5.06117,4.39376 2.14127,0.80645 4.36596,1.39043 6.78531,-0.41713 2.41935,-1.80756 3.61511,-2.80867 3.61511,-2.80867 z"
           id="path1288" />
        <path
           style="fill:#2aa91c;fill-opacity:1;stroke:#000000;stroke-width:0.600001;stroke-linecap:round;stroke-dasharray:none"
           d="m 339.76574,142.5748 c 0,0 -7.17463,0.19466 -9.17683,-3.33703 -2.00224,-3.5317 -0.41715,-6.31256 0.61177,-6.61845 1.02893,-0.3059 4.11567,-1.14016 6.42379,1.86317 2.30812,3.00333 1.97443,5.22803 2.03004,5.89543 0.0556,0.66741 0.11123,2.19688 0.11123,2.19688 z"
           id="path1290" />
        <path
           style="fill:#2aa91c;fill-opacity:1;stroke:#000000;stroke-width:0.600001;stroke-linecap:round;stroke-dasharray:none"
           d="m 334.1484,118.79843 c 0,0 -6.0901,-1.08453 -7.64738,-4.44938 -1.55726,-3.36484 1.80758,-4.75527 3.36486,-4.14348 1.55728,0.61179 3.83757,2.14126 4.1991,4.36595 0.3615,2.22469 0.0834,4.22691 0.0834,4.22691 z"
           id="path1292" />
        <path
           style="fill:#2aa91c;fill-opacity:1;stroke:#000000;stroke-width:0.600001;stroke-linecap:round;stroke-dasharray:none"
           d="m 333.5088,120.35572 c 0,0 -3.14238,-1.72414 -6.95214,0.11123 -3.80979,1.83537 -4.17132,3.89321 -3.97664,4.61623 0.19466,0.72302 4.8387,2.16907 7.59174,0.55617 2.75305,-1.6129 2.64182,-3.42046 2.80869,-3.83759 0.16685,-0.41713 0.52835,-1.44604 0.52835,-1.44604 z"
           id="path1294" />
        <path
           style="fill:#2aa91c;fill-opacity:1;stroke:#000000;stroke-width:0.600001;stroke-linecap:round;stroke-dasharray:none"
           d="m 323.38647,112.81958 c -0.16687,0.11123 -4.55565,0.84971 -6.72969,2.64182 -2.05785,1.69633 -3.33704,3.19799 -2.72525,6.00666 0.6118,2.80867 5.2002,1.41824 7.28586,-1.08454 2.08563,-2.50277 2.05783,-4.17129 2.11347,-4.94993 0.0556,-0.77864 0.0556,-2.61401 0.0556,-2.61401 z"
           id="path1298"
           sodipodi:nodetypes="ssssscs" />
        <path
           style="fill:none;stroke:#000000;stroke-width:0.3;stroke-linecap:round;stroke-dasharray:none"
           d="m 281.52468,131.05833 c 0,0 -0.76686,1.35679 -1.76973,2.32031 -0.82254,0.79027 -1.53375,1.2978 -1.53375,1.2978"
           id="path1334"
           sodipodi:nodetypes="csc" />
        <path
           style="fill:none;stroke:#000000;stroke-width:0.3;stroke-linecap:round;stroke-dasharray:none"
           d="m 275.7829,128.73801 -6.07607,0.0197"
           id="path1390" />
        <path
           style="fill:none;stroke:#000000;stroke-width:0.3;stroke-linecap:round;stroke-dasharray:none"
           d="m 264.96788,118.25728 c 0,0 -1.67141,2.08435 -2.45795,2.94955 -0.78655,0.8652 -1.63209,1.5141 -1.63209,1.5141"
           id="path1392" />
        <path
           style="fill:none;stroke:#000000;stroke-width:0.3;stroke-linecap:round;stroke-dasharray:none"
           d="m 263.78807,113.59699 -5.70247,0.94386"
           id="path1394" />
        <path
           style="fill:none;stroke:#000000;stroke-width:0.3;stroke-linecap:round;stroke-dasharray:none"
           d="m 265.87241,108.11083 c -0.0196,-0.0787 -2.04502,-1.55343 -2.94954,-2.02536 -0.90454,-0.47192 -2.0057,-0.80621 -2.0057,-0.80621"
           id="path1396" />
        <path
           style="fill:none;stroke:#000000;stroke-width:0.3;stroke-linecap:round;stroke-dasharray:none"
           d="m 276.98239,106.41975 -5.01425,-2.3793"
           id="path1398" />
        <path
           style="fill:none;stroke:#000000;stroke-width:0.3;stroke-linecap:round;stroke-dasharray:none"
           d="m 273.95418,95.50642 -5.38784,-3.047868"
           id="path1400" />
        <path
           style="fill:none;stroke:#000000;stroke-width:0.3;stroke-linecap:round;stroke-dasharray:none"
           d="M 279.08639,92.419224 277.7296,87.306673"
           id="path1402" />
        <path
           style="fill:none;stroke:#000000;stroke-width:0.3;stroke-linecap:round;stroke-dasharray:none"
           d="m 289.23284,102.95895 -0.78653,-5.446835"
           id="path1404" />
        <path
           style="fill:none;stroke:#000000;stroke-width:0.3;stroke-linecap:round;stroke-dasharray:none"
           d="M 299.222,93.579383 294.83701,89.48934"
           id="path1406" />
        <path
           style="fill:none;stroke:#000000;stroke-width:0.3;stroke-linecap:round;stroke-dasharray:none"
           d="m 304.78682,89.725303 -0.13766,-5.151879"
           id="path1408" />
        <path
           style="fill:none;stroke:#000000;stroke-width:0.3;stroke-linecap:round;stroke-dasharray:none"
           d="m 309.70273,94.739538 4.30633,-4.463653"
           id="path1410" />
        <path
           style="fill:none;stroke:#000000;stroke-width:0.3;stroke-linecap:round;stroke-dasharray:none"
           d="m 317.64684,102.8803 c 0,0 0.19664,-2.12368 0.64892,-3.460809 0.45225,-1.33713 1.16014,-2.595605 1.16014,-2.595605"
           id="path1412" />
        <path
           style="fill:none;stroke:#000000;stroke-width:0.3;stroke-linecap:round;stroke-dasharray:none"
           d="m 332.88618,105.88884 4.67995,-3.28384"
           id="path1414" />
        <path
           style="fill:none;stroke:#000000;stroke-width:0.3;stroke-linecap:round;stroke-dasharray:none"
           d="m 334.97054,97.276151 5.58448,-3.795088"
           id="path1416" />
        <path
           style="fill:none;stroke:#000000;stroke-width:0.3;stroke-linecap:round;stroke-dasharray:none"
           d="m 329.40572,95.211465 2.30065,-6.430018"
           id="path1418" />
        <path
           style="fill:none;stroke:#000000;stroke-width:0.3;stroke-linecap:round;stroke-dasharray:none"
           d="m 344.35417,107.89745 4.47718,-3.19799"
           id="path1420" />
        <path
           style="fill:none;stroke:#000000;stroke-width:0.3;stroke-linecap:round;stroke-dasharray:none"
           d="m 345.54993,113.82069 4.67185,1.33481"
           id="path1422" />
        <path
           style="fill:none;stroke:#000000;stroke-width:0.3;stroke-linecap:round;stroke-dasharray:none"
           d="m 338.73683,117.21334 3.47607,3.42046"
           id="path1424" />
        <path
           style="fill:none;stroke:#000000;stroke-width:0.3;stroke-linecap:round;stroke-dasharray:none"
           d="m 331.8959,128.50364 4.8665,0.13905"
           id="path1426" />
        <path
           style="fill:none;stroke:#000000;stroke-width:0.3;stroke-linecap:round;stroke-dasharray:none"
           d="m 331.00602,132.64712 4.56063,5.11679"
           id="path1428" />
        <path
           style="fill:none;stroke:#000000;stroke-width:0.3;stroke-linecap:round;stroke-dasharray:none"
           d="m 322.66345,125.02756 5.228,-1.83537"
           id="path1430" />
        <path
           style="fill:none;stroke:#000000;stroke-width:0.3;stroke-linecap:round;stroke-dasharray:none"
           d="m 314.1818,121.85738 3.67075,-3.03114"
           id="path1432" />
        <path
           style="fill:none;stroke:#000000;stroke-width:0.3;stroke-linecap:round;stroke-dasharray:none"
           d="m 328.22517,110.3168 c 0,0 0.16685,1.52948 1.14014,2.61401 0.9733,1.08454 1.5851,1.72414 1.5851,1.72414"
           id="path1434" />
        <path
           style="fill:none;stroke:#000000;stroke-width:0.3;stroke-linecap:round;stroke-dasharray:none"
           d="m 277.21835,122.87824 c 0,0 1.7894,1.33713 2.67425,1.90738 0.88487,0.57024 2.45798,1.27814 2.45798,1.27814"
           id="path1436" />
        <path
           style="fill:none;stroke:#000000;stroke-width:0.3;stroke-linecap:round;stroke-dasharray:none"
           d="m 287.71873,118.00165 3.83443,3.85408"
           id="path1438" />
        <path
           style="fill:none;stroke:#000000;stroke-width:0.3;stroke-linecap:round;stroke-dasharray:none"
           d="m 277.65094,111.27668 c 0,0 -1.84838,2.3793 -2.20231,2.91022 -0.35396,0.53092 -1.67143,1.69108 -1.67143,1.69108"
           id="path1440" />
        <path
           style="fill:none;stroke:#000000;stroke-width:0.4;stroke-linecap:round;stroke-dasharray:none"
           d="m 307.65771,152.07879 0.86519,12.3881"
           id="path1503" />
        <path
           style="fill:none;stroke:#000000;stroke-width:0.4;stroke-linecap:round;stroke-dasharray:none"
           d="m 307.42173,148.89327 0.15732,0.98319"
           id="path1505" />
        <path
           style="fill:none;stroke:#000000;stroke-width:0.4;stroke-linecap:round;stroke-dasharray:none"
           d="m 306.92375,119.74392 0.16685,4.42158"
           id="path1507" />
        <path
           style="fill:none;stroke:#000000;stroke-width:0.4;stroke-linecap:round;stroke-dasharray:none"
           d="m 307.03498,118.01979 -0.0278,0.44494"
           id="path1509" />
        <path
           style="fill:none;stroke:#000000;stroke-width:0.4;stroke-linecap:round;stroke-dasharray:none"
           d="m 310.42766,127.19664 -2.55842,0.55617"
           id="path1511" />
        <path
           style="fill:none;stroke:#000000;stroke-width:0.6;stroke-linecap:round;stroke-dasharray:none"
           d="m 299.69391,130.07514 2.83157,2.51695"
           id="path1513" />
        <path
           style="fill:#000000;fill-rule:nonzero;stroke:none;stroke-width:0.2;stroke-linecap:round;stroke-dasharray:none"
           d="m 290.92392,172.01774 c 0.005,0.0162 0.0559,0.0598 0.33713,-0.006 0.22481,-0.0526 0.67485,-0.18711 1.32173,-0.42963 0.44013,-0.16501 0.95033,-0.3737 1.45247,-0.61229 0.5119,-0.24322 0.97632,-0.49888 1.35813,-0.75959 0.006,-0.004 0.0112,-0.008 0.0168,-0.0115 0.77971,-0.53613 1.48593,-1.17827 1.99186,-1.70266 0.3503,-0.36308 0.54798,-0.60795 0.63399,-0.73674 0.10719,-0.16051 0.0781,-0.21389 0.0651,-0.22489 l 0,0 c -0.0143,-0.0121 -0.0675,-0.0297 -0.21365,0.091 -0.14161,0.11689 -0.30739,0.28611 -0.69969,0.65321 -0.53381,0.49951 -1.21288,1.09796 -1.98021,1.62542 -0.005,0.004 -0.0106,0.007 -0.0159,0.0109 -0.36344,0.24825 -0.80709,0.49779 -1.30671,0.74496 -0.48887,0.24185 -0.98505,0.45858 -1.41474,0.63819 -0.63006,0.26337 -1.06482,0.42986 -1.27342,0.52426 -0.26064,0.11795 -0.27866,0.17712 -0.27291,0.19538 z"
           id="path1582"
           inkscape:path-effect="#path-effect1584"
           inkscape:original-d="m 290.92392,172.01774 c 0,0 2.81192,-0.88486 4.385,-1.96636 1.5731,-1.08151 2.79225,-2.51695 2.79225,-2.51695" />
        <path
           style="fill:#000000;fill-rule:nonzero;stroke:none;stroke-width:0.2;stroke-linecap:round;stroke-dasharray:none"
           d="m 318.49237,172.7453 c -0.005,0.0102 0.01,0.0487 0.20984,0.17716 0.14732,0.0945 0.43418,0.26559 0.84861,0.5194 0.29874,0.18295 0.65043,0.40191 1.00631,0.63669 0.36551,0.24113 0.70121,0.47636 0.99302,0.70114 0,0 0.004,0.003 0.004,0.003 0.61077,0.47094 1.22214,1.00094 1.745,1.45697 0.36365,0.31718 0.57116,0.49777 0.69789,0.58699 0.15087,0.10621 0.20476,0.0806 0.2173,0.0675 0.0121,-0.0127 0.0363,-0.0691 -0.0806,-0.21349 -0.0914,-0.11294 -0.30085,-0.32504 -0.651,-0.64617 -0.49804,-0.45675 -1.15265,-1.01555 -1.76007,-1.4729 0,1e-5 -0.004,-0.003 -0.004,-0.003 -0.30055,-0.22606 -0.65196,-0.46032 -1.02691,-0.69097 -0.36716,-0.22586 -0.73066,-0.43211 -1.04056,-0.59966 -0.43336,-0.2343 -0.73826,-0.38087 -0.8934,-0.44886 -0.21888,-0.0959 -0.26052,-0.0829 -0.26523,-0.0737 z"
           id="path1586"
           inkscape:path-effect="#path-effect1588"
           inkscape:original-d="m 318.49237,172.7453 c 0,0 1.90738,0.98318 3.14619,1.92704 1.23883,0.94385 2.57595,2.22199 2.57595,2.22199" />
        <path
           style="fill:#000000;stroke:#000000;stroke-width:0.0499999;stroke-linecap:round;stroke-dasharray:none"
           d="m 283.10763,176.87467 c 0.059,-0.01 0.92419,-0.48176 1.83854,-1.43545 0.91437,-0.95369 1.36662,-1.47478 1.36662,-1.47478 0,0 -1.18964,1.5731 -1.7304,2.09418 -0.54076,0.52109 -1.41579,1.10117 -1.41579,1.10117 z"
           id="path1592" />
        <path
           style="fill:#000000;stroke:#000000;stroke-width:0.0499999;stroke-linecap:round;stroke-dasharray:none"
           d="m 292.67184,174.4852 c 0,0 1.66852,-1.05673 2.50277,-1.82147 0.83426,-0.76473 1.14015,-1.36262 1.2236,-1.20967 0.0834,0.15294 -2.21081,2.40544 -2.72527,2.9199 -0.51445,0.51446 -0.91768,0.82036 -0.91768,0.82036 z"
           id="path1648" />
        <path
           style="fill:#000000;stroke:#000000;stroke-width:0.0499999;stroke-linecap:round;stroke-dasharray:none"
           d="m 295.52222,176.70989 c 0,0 1.2236,-0.84817 1.9466,-2.43326 0.72302,-1.58509 0.95941,-2.68353 1.15406,-3.25361 0.19466,-0.57008 0.86206,-1.9605 1.04282,-1.86317 0.18077,0.0973 -0.87595,2.21078 -1.02891,3.03113 -0.15295,0.82036 -1.04283,3.32314 -1.2931,3.74027 -0.25029,0.41712 -1.04282,1.68242 -1.04282,1.68242 v -0.93159 z"
           id="path1650"
           sodipodi:nodetypes="csssssccc" />
        <path
           style="fill:#000000;stroke:#000000;stroke-width:0.0499999;stroke-linecap:round;stroke-dasharray:none"
           d="m 302.83028,172.30286 c 0.82431,0.0517 2.38913,1.92704 1.78938,2.07452 -0.59973,0.14748 -0.97334,-1.31746 -1.60258,-1.42561 -0.62923,-0.10815 -1.86804,1.53376 -2.03518,1.28797 -0.16716,-0.2458 0.48637,-0.88321 0.91435,-1.29781 0.31462,-0.30479 0.60097,-0.65996 0.93403,-0.63907 z"
           id="path1652"
           sodipodi:nodetypes="ssssss" />
        <path
           style="fill:#000000;stroke:#000000;stroke-width:0.0499999;stroke-linecap:round;stroke-dasharray:none"
           d="m 305.436,180.40148 c -0.0834,-0.12514 -0.0487,-0.94549 0.61873,-0.91073 0.66741,0.0348 1.01502,0.69522 0.83426,0.85511 -0.18074,0.1599 -0.3198,-0.18771 -0.73692,-0.18771 -0.41714,0 -0.22246,0.292 -0.47276,0.32676 -0.25027,0.0348 -0.24331,-0.0834 -0.24331,-0.0834 z"
           id="path1654" />
        <path
           style="fill:#000000;stroke:#000000;stroke-width:0.0499999;stroke-linecap:round;stroke-dasharray:none"
           d="m 296.87094,181.35393 c 0,0 0.54922,-0.9594 0.71606,-0.84121 0.16688,0.11818 -0.14599,1.12624 -0.14599,1.12624 z"
           id="path1656" />
        <path
           style="fill:#000000;stroke:#000000;stroke-width:0.0499999;stroke-linecap:round;stroke-dasharray:none"
           d="m 307.95267,173.07958 c 0,0 -0.16714,-1.19948 -0.14748,-1.63209 0.0196,-0.43259 0.0787,-1.20931 0.30477,-1.10116 0.22614,0.10815 0.0393,1.16016 0.18682,1.80906 0.14748,0.6489 0.69805,2.06468 0.69805,2.06468 z"
           id="path1658" />
        <path
           style="fill:#000000;stroke:#000000;stroke-width:0.0499999;stroke-linecap:round;stroke-dasharray:none"
           d="m 314.73798,175.30555 c 0,0 -0.13903,-2.2664 -1.30701,-3.17018 -1.16795,-0.90378 -2.50277,-1.97441 -2.64181,-1.76585 -0.13904,0.20856 1.58509,1.45995 2.21078,2.00222 0.62568,0.54227 0.93159,1.51557 1.01502,1.89099 0.0834,0.37541 0.26418,0.82035 0.26418,0.93159 0,0.11123 0.22247,0.3337 0.22247,0.3337 z"
           id="path1660" />
        <path
           style="fill:#000000;stroke:#000000;stroke-width:0.0499999;stroke-linecap:round;stroke-dasharray:none"
           d="m 303.09574,126.47669 c 0.15729,-0.55058 0.21629,-1.47477 -0.0393,-1.39612 -0.25561,0.0787 -0.25561,0.35395 -0.35393,0.9242 -0.0983,0.57024 -0.70789,1.04217 -0.47194,1.31746 0.23598,0.27529 0.45228,-0.059 0.53094,-0.19664 0.0786,-0.13764 0.33428,-0.6489 0.33428,-0.6489 z"
           id="path1662" />
        <path
           style="fill:#000000;stroke:#000000;stroke-width:0.0499999;stroke-linecap:round;stroke-dasharray:none"
           d="m 301.01137,113.77396 c 0,0 1.2585,0.84554 1.51411,0.64891 0.25564,-0.19664 -0.0196,-0.53092 -0.33428,-0.60958 -0.31461,-0.0786 -0.82587,-0.39327 -0.82587,-0.39327 z"
           id="path1664" />
        <path
           style="fill:#000000;stroke:#000000;stroke-width:0.0499999;stroke-linecap:round;stroke-dasharray:none"
           d="m 308.17878,113.47901 c 0,0 -0.33428,0.34411 -0.80621,0.37361 -0.47191,0.0295 -0.90451,0.14748 -0.84553,-0.16714 0.059,-0.31462 0.38343,-0.2163 0.72755,-0.40311 0.34412,-0.1868 0.81605,-0.46209 0.81605,-0.46209 z"
           id="path1668" />
        <path
           style="fill:#000000;stroke:#000000;stroke-width:0.0499999;stroke-linecap:round;stroke-dasharray:none"
           d="m 305.89781,103.0671 c -0.2753,-0.01 -1.13068,0.85537 -0.60958,1.67141 0.5211,0.81604 1.7009,0.87504 1.60258,0.54075 -0.0983,-0.33428 -0.88484,-0.0688 -1.07167,-0.75705 -0.18679,-0.68823 0.12782,-1.03234 0.13767,-1.14049 0.01,-0.10815 -0.059,-0.31462 -0.059,-0.31462 z"
           id="path1670" />
      </g>
    </g>
  </g>
</svg>
