<svg xmlns="http://www.w3.org/2000/svg" width="250" height="286" style="shape-rendering:geometricPrecision;text-rendering:geometricPrecision;image-rendering:optimizeQuality;fill-rule:evenodd;clip-rule:evenodd"><path style="opacity:1" fill="#0b0302" d="M16.5 18.5h215c.167 51.334 0 102.668-.5 154-8.401 44.394-33.901 73.894-76.5 88.5-51.658 11.572-92.492-4.261-122.5-47.5-8.42-14.929-13.42-30.929-15-48-.5-48.999-.667-97.999-.5-147z"/><path style="opacity:1" fill="#fcda41" d="M104.5 61.5c3.714 1.304 7.214.97 10.5-1-.027 1.288.973 2.288 3 3 1.011-.837 2.178-1.17 3.5-1v-37a1259.35 1259.35 0 0 0-99 0c-.994 2.9.006 3.566 3 2 1.244 1.455 1.078 2.789-.5 4-1.011-.837-2.178-1.17-3.5-1a92.765 92.765 0 0 1 0 26.5c.172 4.5 1.34 8.667 3.5 12.5 3.892-1.575 8.059-2.575 12.5-3a51.095 51.095 0 0 1-5.5-4 4.932 4.932 0 0 1-.5-3c5.207 5.483 11.373 6.483 18.5 3-.148 1.325.018 2.492.5 3.5a90.496 90.496 0 0 0 19 0c3.992-4.615 5.159-3.781 3.5 2.5a3653.52 3653.52 0 0 0 10.5 13 363.76 363.76 0 0 1-23-11 45.14 45.14 0 0 1-7.5 1A90.999 90.999 0 0 0 28.5 69c-2.533 1.033-4.2 2.867-5 5.5 1.216.596 2.55.763 4 .5-3.01 2.512-3.51 5.345-1.5 8.5 2.675-2.386 3.175-1.72 1.5 2 .137 1.607.804 2.94 2 4a28.944 28.944 0 0 1 9-6.5c6.404.969 12.737.469 19-1.5a4714.28 4714.28 0 0 0 20 9v1a196.826 196.826 0 0 1-20 1.5c-3.841 2.807-8.174 4.307-13 4.5a48.024 48.024 0 0 0-13-1.5c-3.347.68-5.347 2.68-6 6 .884 1.098 1.884 1.598 3 1.5-.355 1.022-1.022 1.689-2 2-2.465-.944-4.132.056-5 3 .938 2.396.938 5.063 0 8a18.19 18.19 0 0 0 2 3.5c-2.37 2.919-2.37 5.919 0 9a245.633 245.633 0 0 0 2 58.5c-2.82-6.935-4.32-14.268-4.5-22-.5-47.666-.667-95.332-.5-143h103v42c-6.624.008-12.957-.992-19-3z"/><path style="opacity:1" fill="#c50009" d="M125.5 22.5h102c.331 8.36-.002 16.693-1 25-5.366-5.453-11.699-6.62-19-3.5-10.376 3.461-19.376 9.128-27 17a67.08 67.08 0 0 1-10 4.5c-3.589-.56-6.922-1.727-10-3.5l-9-.5a173.339 173.339 0 0 0-26 3v-42z"/><path style="opacity:1" fill="#fedd33" d="m104.5 61.5-6-3a86.967 86.967 0 0 0-22-16 37.517 37.517 0 0 0-3-8c-.825-.886-1.825-1.219-3-1 .202 2.49-.298 4.822-1.5 7a21.745 21.745 0 0 0-6.5-7c-.864 2.271-.864 4.605 0 7a18.436 18.436 0 0 0-6 .5 8.905 8.905 0 0 1-4 3 72.444 72.444 0 0 1-12 .5c.7 4.095 2.366 7.762 5 11-5.105 2.922-9.939 2.589-14.5-1-.384 1.697-.218 3.363.5 5a4.932 4.932 0 0 0 .5 3 51.095 51.095 0 0 0 5.5 4c-4.441.425-8.608 1.425-12.5 3-2.16-3.833-3.328-8-3.5-12.5a92.765 92.765 0 0 0 0-26.5c1.322-.17 2.489.163 3.5 1 1.578-1.211 1.744-2.545.5-4-2.994 1.566-3.994.9-3-2a1259.35 1259.35 0 0 1 99 0v37c-1.322-.17-2.489.163-3.5 1-2.027-.712-3.027-1.712-3-3-3.286 1.97-6.786 2.304-10.5 1z"/><path style="opacity:1" fill="#f1c6e8" d="M60.5 46.5c2.085.85 4.085 1.184 6 1-2.569 2.707-4.569 2.373-6-1z"/><path style="opacity:1" fill="#c40009" d="M186.5 198.5c1.592 1.102 2.425.435 2.5-2 2.398 3.902 2.898 3.568 1.5-1 1.212.73 2.212 1.73 3 3 .798-.457 1.131-1.124 1-2 2.837 1.116 5.504.616 8-1.5a24.725 24.725 0 0 1 7-6.5c1.244-3.497 2.911-5.997 5-7.5-1.323-.816-1.989-1.983-2-3.5.923.803 1.923.97 3 .5.113-1.747-.221-3.58-1-5.5.876.131 1.543-.202 2-1a185.977 185.977 0 0 1-2-3c3.581.791 3.914-.375 1-3.5 1.425-1.714 1.092-3.047-1-4a4.457 4.457 0 0 0 2-1.5c-.674-1.695-1.341-3.362-2-5 .543-.06.876-.393 1-1a109.137 109.137 0 0 1-9-8.5 197.76 197.76 0 0 0-23-7c-11.522-1.501-21.856 1.165-31 8a119.207 119.207 0 0 0-16.5 27.5 203.834 203.834 0 0 0-5 28c-1.208 1.979-2.041 4.145-2.5 6.5a28.496 28.496 0 0 1 1 9.5h-4v-125a546.86 546.86 0 0 0 21.5-7c2.584 2.526 5.75 3.526 9.5 3v1c2.209 6.722 6.209 12.223 12 16.5a552.845 552.845 0 0 1 16 9.5 6.201 6.201 0 0 1-3.5 2 29.13 29.13 0 0 0-12.5-.5c-2.707 1.864-3.541 4.364-2.5 7.5 1.049-1.017 2.216-1.184 3.5-.5-2.119 2.218-2.452 4.718-1 7.5a18.924 18.924 0 0 0 5-3c1.247 1.506 1.247 3.006 0 4.5a26.585 26.585 0 0 0 2 3.5 91.632 91.632 0 0 0 14-12c2.207-1.81 4.541-2.143 7-1-2.521 1.76-3.354 4.093-2.5 7l3-2a42.769 42.769 0 0 0 1.5 9 18.33 18.33 0 0 1 6-4 26.724 26.724 0 0 1 1.5 7l2 2a14.587 14.587 0 0 0 4-6 102.249 102.249 0 0 0 10-9c.667-1.333.667-2.667 0-4-5.505-5.177-8.839-11.51-10-19-8.9-1.86-16.067-6.36-21.5-13.5a15.83 15.83 0 0 1-5.5-3.5 221.489 221.489 0 0 0-6.5-12.5 34.057 34.057 0 0 1 6-3c8.267-.982 15.933-3.649 23-8 3.389-6.389 8.389-11.056 15-14a12.935 12.935 0 0 1 5-.5c.167 40.335 0 80.668-.5 121-3.738 27.148-16.071 49.481-37 67-5.905-6.703-13.072-11.536-21.5-14.5-2.092-1.853-3.092-4.186-3-7-1.704-12.223 1.796-22.723 10.5-31.5 4.179 3.858 7.179 8.525 9 14 .69 1.238 1.19 1.238 1.5 0z"/><path style="opacity:1" fill="#f4ceed" d="M52.5 53.5c1.837.14 2.17.806 1 2-.797-.457-1.13-1.124-1-2z"/><path style="opacity:1" fill="#7a3d29" d="M56.5 53.5c2.25-.319 4.25.181 6 1.5l-3 .5c-1.53-.14-2.53-.806-3-2z"/><path style="opacity:1" fill="#c50008" d="M54.5 56.5c2.357-.163 4.69.003 7 .5a156.968 156.968 0 0 0-15 5c-4.11 1.143-7.776.477-11-2 6.597-.484 12.93-1.651 19-3.5z"/><path style="opacity:1" fill="#bf795e" d="M60.5 59.5c5.005-.057 5.172.61.5 2-1.684-.183-1.85-.85-.5-2z"/><path style="opacity:1" fill="#0e0401" d="M83.5 81.5a24.93 24.93 0 0 1 1 8 51.639 51.639 0 0 0-7 1 4714.28 4714.28 0 0 1-20-9c-6.263 1.969-12.596 2.469-19 1.5a28.944 28.944 0 0 0-9 6.5c-1.196-1.06-1.863-2.393-2-4 1.675-3.72 1.175-4.386-1.5-2-2.01-3.155-1.51-5.988 1.5-8.5-1.45.263-2.784.096-4-.5.8-2.633 2.467-4.467 5-5.5A90.999 90.999 0 0 1 53 71.5a45.14 45.14 0 0 0 7.5-1 363.76 363.76 0 0 0 23 11z"/><path style="opacity:1" fill="#8b000b" d="M30.5 74.5c1.528.017 2.028.684 1.5 2-3.811 1.466-4.311.8-1.5-2z"/><path style="opacity:1" fill="#aa000b" d="M32.5 80.5c1.06 1.57.56 2.903-1.5 4-.3-1.566.2-2.899 1.5-4z"/><path style="opacity:1" fill="#d5a6cb" d="M77.5 91.5v-1a51.639 51.639 0 0 1 7-1 24.93 24.93 0 0 0-1-8c1.457 1.742 2.624 3.742 3.5 6 2.002-3.337 4.502-5.837 7.5-7.5a153.732 153.732 0 0 0-7 9.5 27.008 27.008 0 0 1-10 2z"/><path style="opacity:1" fill="#f6c9e3" d="M107.5 98.5h-3c2.014-2.694 3.514-5.694 4.5-9 .251 3.094-.249 6.094-1.5 9z"/><path style="opacity:1" fill="#fddc4c" d="M115.5 184.5c1.609 2.649 2.443 5.649 2.5 9a7.293 7.293 0 0 1 2 3l1-2c.5-32.998.667-65.998.5-99h-3c1.141-.839 2.474-1.506 4-2 1 41.328 1.333 82.661 1 124h-6c-1.244-5.802-1.244-11.469 0-17a196.41 196.41 0 0 1-2-16z"/><path style="opacity:1" fill="#edc5e8" d="M194.5 108.5c-13.71-1.517-24.71-7.684-33-18.5a12.935 12.935 0 0 0-5-.5v-1h3a4.934 4.934 0 0 1 .5-3c3.455 5.789 7.955 10.622 13.5 14.5a720.036 720.036 0 0 1 21 8.5z"/><path style="opacity:1" fill="#7c000c" d="M32.5 102.5c1.188 1.996.521 2.829-2 2.5.88-.708 1.547-1.542 2-2.5z"/><path style="opacity:1" fill="#bc0009" d="M194.5 108.5c2.403-.107 4.236.893 5.5 3a133.323 133.323 0 0 1 4.5 8c-1.622 2.123-3.622 2.456-6 1-2.334-3.658-3.667-7.658-4-12z"/><path style="opacity:1" fill="#c50008" d="M169.5 118.5c3.776-.031 3.943.636.5 2-1.684-.183-1.85-.85-.5-2zM198.5 123.5c2.434.854 2.267 1.854-.5 3-.47-1.077-.303-2.077.5-3z"/><path style="opacity:1" fill="#86000a" d="M172.5 123.5c.789.283 1.456.783 2 1.5-4.136 3.545-4.803 3.045-2-1.5z"/><path style="opacity:1" fill="#94000a" d="M177.5 128.5c.876-.131 1.543.202 2 1-2.76 4.064-3.426 3.731-2-1z"/><path style="opacity:1" fill="#83000a" d="M200.5 129.5c.876-.131 1.543.202 2 1-2.76 4.064-3.426 3.731-2-1z"/><path style="opacity:1" fill="#a4000b" d="M208.5 132.5c2.557 1.904 2.39 3.904-.5 6-.678-2.098-.511-4.098.5-6z"/><path style="opacity:1" fill="#efc679" d="M179.5 140.5c1.291-.237 2.291.096 3 1a15.414 15.414 0 0 0-4.5 2l-1.5-.5c1.442-.377 2.442-1.21 3-2.5z"/><path style="opacity:1" fill="#d9ad4f" d="M185.5 142.5c-1.544.203-2.878.87-4 2l-1-.5c.881-.708 1.547-1.542 2-2.5.996.086 1.829-.248 2.5-1 .464.594.631 1.261.5 2z"/><path style="opacity:1" fill="#dcb150" d="M188.5 142.5c-.982.641-1.982 1.307-3 2-.963-.47-.963-1.137 0-2 1.152-1.125 2.152-1.125 3 0z"/><path style="opacity:1" fill="#c69551" d="M179.5 140.5c-5.684 1.108-11.017 2.774-16 5a81.316 81.316 0 0 0-2.5 3c-.383-.556-.883-.889-1.5-1 .548-1.894 1.548-3.56 3-5a4.457 4.457 0 0 1 1.5 2c.879-2.846 2.546-3.513 5-2a14.972 14.972 0 0 1 3.5-3 4.457 4.457 0 0 1 1.5 2c1.678-2.053 3.511-2.387 5.5-1z"/><path style="opacity:1" fill="#2e100c" d="M179.5 140.5c-.558 1.29-1.558 2.123-3 2.5l1.5.5a15.414 15.414 0 0 1 4.5-2c-.453.958-1.119 1.792-2 2.5l1 .5c1.122-1.13 2.456-1.797 4-2-.963.863-.963 1.53 0 2a185.977 185.977 0 0 1 3-2c.992-.172 1.658.162 2 1-5.464 2.111-5.13 3.444 1 4 1.422-1.277 2.422-.943 3 1-.667 0-1 .333-1 1-.863-.963-1.53-.963-2 0a18.19 18.19 0 0 0 6 4c-1.03.054-2.197.388-3.5 1a15.83 15.83 0 0 0-5.5-3.5c1.625-.853 1.958-1.853 1-3a86.52 86.52 0 0 0-15-3.5 28.285 28.285 0 0 0-10 3c-.798-.457-1.131-1.124-1-2 4.983-2.226 10.316-3.892 16-5z"/><path style="opacity:1" fill="#b37b6d" d="M196.5 144.5c.997-1.213 1.997-1.046 3 .5-1.077.47-2.077.303-3-.5z"/><path style="opacity:1" fill="#f6cb66" d="M190.5 143.5c1.966.111 3.966 1.111 6 3-.355 1.022-1.022 1.689-2 2-.578-1.943-1.578-2.277-3-1-6.13-.556-6.464-1.889-1-4z"/><path style="opacity:1" fill="#edc84a" d="M193.5 149.5c1.951-.273 3.451.393 4.5 2 1.147-.958 2.147-.625 3 1 .684 1.284.517 2.451-.5 3.5 1.123 1.044 2.456 1.71 4 2-1.553 1.303-3.22 1.136-5-.5-1.384-1.301-2.884-1.301-4.5 0-.605-1.981-1.605-2.315-3-1-.605-1.981-1.605-2.315-3-1-1.945-2.426-4.445-3.259-7.5-2.5 2.525.424 4.525 1.59 6 3.5a51.552 51.552 0 0 1-15-2v3a5.727 5.727 0 0 1-3 1c-2.793-1.246-5.46-.913-8 1-.992-.172-1.658.162-2 1-2.698.345-4.698 1.678-6 4-2.333.333-3.667 1.667-4 4-1.762.762-2.762 2.096-3 4-1.406.473-2.073 1.473-2 3 .172.992-.162 1.658-1 2-1.75 1.159-2.75 2.826-3 5-.296 1.903-.963 3.57-2 5-1.595 2.329-2.595 4.995-3 8 .043.916.376 1.583 1 2a18.453 18.453 0 0 0 .5 6c.383.556.883.889 1.5 1-3.713 1.427-5.379-.073-5-4.5a110.538 110.538 0 0 1 6-23.5c1.174-1.014 1.84-2.347 2-4l-2 1c1.858-7.383 5.525-13.717 11-19a19.215 19.215 0 0 1 3.5-7c.464.594.631 1.261.5 2a173.55 173.55 0 0 0 3-4c.411.762.577 1.762.5 3 .383-.556.883-.889 1.5-1 .617.111 1.117.444 1.5 1a81.316 81.316 0 0 1 2.5-3c-.131.876.202 1.543 1 2a28.285 28.285 0 0 1 10-3 86.52 86.52 0 0 1 15 3.5c.958 1.147.625 2.147-1 3a15.83 15.83 0 0 1 5.5 3.5c1.303-.612 2.47-.946 3.5-1a18.19 18.19 0 0 1-6-4c.47-.963 1.137-.963 2 0z"/><path style="opacity:1" fill="#43160c" d="M154.5 149.5c.228 1.855-.439 2.688-2 2.5.566-.995 1.233-1.828 2-2.5z"/><path style="opacity:1" fill="#4c210d" d="M157.5 155.5c2.332-2.831 5.332-3.998 9-3.5-3.021 1.18-6.021 2.346-9 3.5z"/><path style="opacity:1" fill="#ab6d3a" d="M211.5 154.5v1a55.017 55.017 0 0 1-6-4.5 8.43 8.43 0 0 1 4-.5c.027 1.699.694 3.033 2 4z"/><path style="opacity:1" fill="#2c0f0c" d="M187.5 156.5a83.258 83.258 0 0 0 4 5c1.22 1.211 2.387 1.211 3.5 0a64.899 64.899 0 0 0 2.5 5v1c-3.918 1.025-3.918 2.025 0 3-.838.342-1.172 1.008-1 2-1.597-.59-2.931-1.59-4-3-1 .333-1.667 1-2 2a82.206 82.206 0 0 0 6.5 5l1-1c.483.948.649 1.948.5 3 2.232 1.505 4.399 2.505 6.5 3 1.03-.336 1.53-1.003 1.5-2l2-1c-.086.996.248 1.829 1 2.5-.535 2.109-1.535 2.609-3 1.5a4.457 4.457 0 0 0-1.5 2c-1.113-1.829-2.613-2.663-4.5-2.5 2.65 3.207 2.484 3.707-.5 1.5l-3 3-4-4c-.47 1.077-.303 2.077.5 3h-2c-.709-.904-1.709-1.237-3-1a44.093 44.093 0 0 1 3-2c-2.235-2.026-4.568-3.526-7-4.5l1.5-1.5c1.396 2.027 3.062 2.36 5 1 1.8 2.211 3.966 4.211 6.5 6l1-2a113.938 113.938 0 0 1-10-8.5c-5.039-.679-9.705-2.346-14-5a98.432 98.432 0 0 0-14-.5c4.805-.987 9.805-1.321 15-1 1.368.806 2.701 1.806 4 3a3.647 3.647 0 0 0 1.5-1c.991 1.439 2.324 2.439 4 3 .741-1.141 1.575-1.141 2.5 0 1.783-.848 2.283-2.181 1.5-4-.626 2.491-1.459 2.491-2.5 0a3.647 3.647 0 0 0-1.5 1c-1.816-2.266-3.982-3.099-6.5-2.5 2.49-1.643 4.99-1.476 7.5.5l1-4c.483.948.649 1.948.5 3 2.161.326 3.994 1.326 5.5 3a4.457 4.457 0 0 0 1.5-2 35.69 35.69 0 0 0-7-5.5l1-1c-1.167-.5-2-1.333-2.5-2.5-.741 1.141-1.575 1.141-2.5 0a10.258 10.258 0 0 0-1.5 4 4.933 4.933 0 0 1-2.5 1 25.945 25.945 0 0 0-11-3c0-.667.333-1 1-1a5.727 5.727 0 0 0 3-1v-3a51.552 51.552 0 0 0 15 2z"/><path style="opacity:1" fill="#522e12" d="M157.5 155.5c-.473 1.406-1.473 2.073-3 2 .473-1.406 1.473-2.073 3-2z"/><path style="opacity:1" fill="#320e0b" d="M199.5 157.5a25.707 25.707 0 0 0-4.5 1 31.625 31.625 0 0 0-7.5-2c-1.475-1.91-3.475-3.076-6-3.5 3.055-.759 5.555.074 7.5 2.5 1.395-1.315 2.395-.981 3 1 1.395-1.315 2.395-.981 3 1 1.616-1.301 3.116-1.301 4.5 0z"/><path style="opacity:1" fill="#ebc365" d="M203.5 151.5a94.149 94.149 0 0 0 6 4.5c-1.333.667-1.333 1.333 0 2-2.07.379-3.57-.455-4.5-2.5a3.647 3.647 0 0 1-1.5 1c-1.166-1.667-1.166-3.334 0-5z"/><path style="opacity:1" fill="#3a120c" d="M154.5 157.5c-.762 1.762-2.096 2.762-4 3 .762-1.762 2.096-2.762 4-3z"/><path style="opacity:1" fill="#7d440f" d="M169.5 158.5c-.667 0-1 .333-1 1h-7c2.54-1.913 5.207-2.246 8-1z"/><path style="opacity:1" fill="#e7bb58" d="M172.5 157.5a31.147 31.147 0 0 0 2-2 21.685 21.685 0 0 0 7 4.5 4.457 4.457 0 0 1-2 1.5 49.218 49.218 0 0 0-7-4z"/><path style="opacity:1" fill="#d19571" d="M199.5 160.5c1.853-1.114 2.353-.448 1.5 2-.717-.544-1.217-1.211-1.5-2z"/><path style="opacity:1" fill="#45200f" d="m159.5 160.5-1 2-5 2c1.302-2.322 3.302-3.655 6-4z"/><path style="opacity:1" fill="#e5bb4f" d="M187.5 156.5a31.625 31.625 0 0 1 7.5 2 25.707 25.707 0 0 1 4.5-1v3c-.923-.803-1.923-.97-3-.5a36.9 36.9 0 0 0 6 5.5c-1.609-.111-3.275.222-5 1a64.899 64.899 0 0 1-2.5-5c-1.113 1.211-2.28 1.211-3.5 0a83.258 83.258 0 0 1-4-5z"/><path style="opacity:1" fill="#e4b74b" d="M211.5 155.5v-1h3c.659 1.638 1.326 3.305 2 5a4.457 4.457 0 0 1-2 1.5c2.092.953 2.425 2.286 1 4 2.914 3.125 2.581 4.291-1 3.5-.203-1.544-.87-2.878-2-4 .688-2.218-.312-3.718-3-4.5 3.443-.221 3.776-1.221 1-3l2-1c-.228-.399-.562-.565-1-.5z"/><path style="opacity:1" fill="#ecc44f" d="M175.5 166.5c.789-.283 1.456-.783 2-1.5-5.384-5.265-11.217-5.765-17.5-1.5-.383-.556-.883-.889-1.5-1l1-2c.342-.838 1.008-1.172 2-1h7a25.945 25.945 0 0 1 11 3 4.933 4.933 0 0 0 2.5-1 10.258 10.258 0 0 1 1.5-4c.925 1.141 1.759 1.141 2.5 0 .5 1.167 1.333 2 2.5 2.5l-1 1a35.69 35.69 0 0 1 7 5.5 4.457 4.457 0 0 1-1.5 2c-1.506-1.674-3.339-2.674-5.5-3a4.934 4.934 0 0 0-.5-3l-1 4c-2.51-1.976-5.01-2.143-7.5-.5 2.518-.599 4.684.234 6.5 2.5a3.647 3.647 0 0 1 1.5-1c1.041 2.491 1.874 2.491 2.5 0 .783 1.819.283 3.152-1.5 4-.925-1.141-1.759-1.141-2.5 0-1.676-.561-3.009-1.561-4-3a3.647 3.647 0 0 1-1.5 1c-1.299-1.194-2.632-2.194-4-3z"/><path style="opacity:1" fill="#33150c" d="M150.5 160.5c-.919 2.589-2.586 4.589-5 6 .919-2.589 2.586-4.589 5-6z"/><path style="opacity:1" fill="#f4d063" d="M210.5 167.5c-2.321-.158-4.154-1.158-5.5-3l-1 1c-1.267-1.924-1.267-3.59 0-5a15.497 15.497 0 0 0 5.5 3.5c.837 1.011 1.17 2.178 1 3.5z"/><path style="opacity:1" fill="#3e0f0a" d="M153.5 164.5c-1 1.667-2.333 3-4 4 .333-2.333 1.667-3.667 4-4z"/><path style="opacity:1" fill="#391b10" d="M145.5 166.5c.073 1.527-.594 2.527-2 3-.073-1.527.594-2.527 2-3z"/><path style="opacity:1" fill="#edc561" d="M197.5 167.5c2.041.354 3.874.354 5.5 0a44.048 44.048 0 0 0 4.5 4.5l-1 1.5c-3.155-1.72-6.155-2.72-9-3-3.918-.975-3.918-1.975 0-3z"/><path style="opacity:1" fill="#532e11" d="M210.5 168.5c2.333.333 3.667 1.667 4 4-1.667-1-3-2.333-4-4z"/><path style="opacity:1" fill="#4c260f" d="M149.5 168.5c-.238 1.904-1.238 3.238-3 4 .238-1.904 1.238-3.238 3-4z"/><path style="opacity:1" fill="#e9bc56" d="M210.5 168.5c1 1.667 2.333 3 4 4 .779 1.92 1.113 3.753 1 5.5-1.077.47-2.077.303-3-.5a6.547 6.547 0 0 0-3-3c.275-2.342 1.108-2.342 2.5 0-.027-1.917-.861-3.584-2.5-5 .124-.607.457-.94 1-1z"/><path style="opacity:1" fill="#fad45f" d="M214.5 168.5c.641.982 1.307 1.982 2 3-.457.798-1.124 1.131-2 1-.333-2.333-1.667-3.667-4-4v-1c1.462-.971 2.795-.638 4 1z"/><path style="opacity:1" fill="#35150e" d="M143.5 169.5c.073 1.527-.594 2.527-2 3-.073-1.527.594-2.527 2-3z"/><path style="opacity:1" fill="#4c230f" d="M158.5 168.5c-2.333 3-5 5.667-8 8 1.667-3.667 4.333-6.333 8-8z"/><path style="opacity:1" fill="#3b1109" d="M146.5 172.5c.073 1.527-.594 2.527-2 3-.073-1.527.594-2.527 2-3z"/><path style="opacity:1" fill="#865525" d="M209.5 174.5a6.547 6.547 0 0 1 3 3 2.428 2.428 0 0 0-2 .5c1.196.654 1.196 1.154 0 1.5a31.147 31.147 0 0 0-2-2c-3.671-1.105-3.338-2.105 1-3z"/><path style="opacity:1" fill="#7e5031" d="M141.5 172.5c-.16 1.653-.826 2.986-2 4-1.333-1-1.333-2 0-3l2-1z"/><path style="opacity:1" fill="#fbd840" d="M175.5 166.5c-5.195-.321-10.195.013-15 1-.992-.172-1.658.162-2 1-3.667 1.667-6.333 4.333-8 8-1.406.473-2.073 1.473-2 3-.838.342-1.172 1.008-1 2-2.707 2.747-4.373 6.08-5 10-1.431 1.28-2.098 2.947-2 5-.904.709-1.237 1.709-1 3-.951 1.419-1.284 3.085-1 5-.617-.111-1.117-.444-1.5-1a18.453 18.453 0 0 1-.5-6l2-10c1.037-1.43 1.704-3.097 2-5 1.75-1.159 2.75-2.826 3-5 .838-.342 1.172-1.008 1-2 1.406-.473 2.073-1.473 2-3 1.762-.762 2.762-2.096 3-4 1.667-1 3-2.333 4-4l5-2c.617.111 1.117.444 1.5 1 6.283-4.265 12.116-3.765 17.5 1.5-.544.717-1.211 1.217-2 1.5z"/><path style="opacity:1" fill="#37110d" d="M150.5 176.5c.073 1.527-.594 2.527-2 3-.073-1.527.594-2.527 2-3z"/><path style="opacity:1" fill="#49200e" d="M143.5 177.5c-.25 2.174-1.25 3.841-3 5 .25-2.174 1.25-3.841 3-5z"/><path style="opacity:1" fill="#f0c956" d="M196.5 172.5a134.763 134.763 0 0 0 10 7c.03.997-.47 1.664-1.5 2-2.101-.495-4.268-1.495-6.5-3a4.934 4.934 0 0 0-.5-3l-1 1a82.206 82.206 0 0 1-6.5-5c.333-1 1-1.667 2-2 1.069 1.41 2.403 2.41 4 3z"/><path style="opacity:1" fill="#f2cd4b" d="M160.5 167.5a98.432 98.432 0 0 1 14 .5c4.295 2.654 8.961 4.321 14 5a113.938 113.938 0 0 0 10 8.5l-1 2c-2.534-1.789-4.7-3.789-6.5-6-1.938 1.36-3.604 1.027-5-1l-1.5 1.5c2.432.974 4.765 2.474 7 4.5a44.093 44.093 0 0 0-3 2c-.967-1.306-2.301-1.973-4-2 .087-3.098-.413-3.432-1.5-1-1.039-.744-1.539-1.744-1.5-3a34.422 34.422 0 0 0-4.5 0 20.673 20.673 0 0 0-3.5-4c-.111-.617-.444-1.117-1-1.5a91.567 91.567 0 0 0-6.5-1.5c-1.876.025-3.376.691-4.5 2-2.249.58-3.915 1.913-5 4-2.087 1.085-3.42 2.751-4 5 .172.992-.162 1.658-1 2-2.707 2.747-4.373 6.08-5 10 .172.992-.162 1.658-1 2-1.371 2.436-2.371 5.103-3 8-.829.832-1.662.499-2.5-1a8.43 8.43 0 0 1-.5-4c-.237-1.291.096-2.291 1-3 1.431-1.28 2.098-2.947 2-5 2.174-3.015 3.841-6.349 5-10-.172-.992.162-1.658 1-2 1.406-.473 2.073-1.473 2-3 3-2.333 5.667-5 8-8 .342-.838 1.008-1.172 2-1z"/><path style="opacity:1" fill="#5e3712" d="M161.5 173.5c-1.085 2.087-2.751 3.42-5 4 1.085-2.087 2.751-3.42 5-4z"/><path style="opacity:1" fill="#2c0d0b" d="M181.5 178.5c-.011-1.517-.677-2.684-2-3.5-2.016-1.129-3.682-1.962-5-2.5 3.468-.845 6.468.155 9 3-.442 1.239-1.109 2.239-2 3z"/><path style="opacity:1" fill="#6e360f" d="M173.5 174.5a45.782 45.782 0 0 0-12-1c1.124-1.309 2.624-1.975 4.5-2 2.185.421 4.351.921 6.5 1.5.556.383.889.883 1 1.5z"/><path style="opacity:1" fill="#402011" d="M156.5 177.5c-.58 2.249-1.913 3.915-4 5 .58-2.249 1.913-3.915 4-5z"/><path style="opacity:1" fill="#3f130b" d="M161.5 181.5c-2 2.667-4.333 5-7 7 1.333-3.333 3.667-5.667 7-7z"/><path style="opacity:1" fill="#d9b05f" d="M160.5 190.5c-1.554 1.414-2.888 3.081-4 5-.798-.457-1.131-1.124-1-2 .16-1.653.826-2.986 2-4a39.977 39.977 0 0 1 13.5-10l1.5.5c-5.426 1.93-9.426 5.43-12 10.5z"/><path style="opacity:1" fill="#fedc36" d="M118.5 95.5h3c.167 33.002 0 66.002-.5 99l-1 2a7.293 7.293 0 0 0-2-3c-.057-3.351-.891-6.351-2.5-9-1.614-13.351-6.447-25.351-14.5-36a85.627 85.627 0 0 0 4.5 12l-5-4c-1.41-2.414-3.41-4.081-6-5-.473-1.406-1.473-2.073-3-2-.342-.838-1.008-1.172-2-1-1.28-1.431-2.947-2.098-5-2-1.934-1.032-4.1-1.698-6.5-2a81.537 81.537 0 0 1-12.5 2 81.285 81.285 0 0 0-5-5.5c.228-.399.562-.565 1-.5 2.198-.375 4.198-1.042 6-2h11c.417.624 1.084.957 2 1 1.213-.247 1.88-.914 2-2l-4-3v-3a24.935 24.935 0 0 0-7 .5c1.323.816 1.99 1.983 2 3.5-1.874-1.628-3.874-1.962-6-1a14.984 14.984 0 0 1-3.5-3 6.807 6.807 0 0 1-1.5 3c-4.293-1.275-8.126.059-11.5 4-1.762-.444-1.595-.944.5-1.5-1.789-.52-3.456-.187-5 1 .916.278 1.583.778 2 1.5a4.934 4.934 0 0 0-3 .5c-1.333.667-1.333 1.333 0 2a12.409 12.409 0 0 0-4 2.5c.47.963 1.136.963 2 0v1a22.755 22.755 0 0 0-5 4 5.727 5.727 0 0 0-3 1c-1.073 1.847-1.073 3.847 0 6l-1 2c-2.258.275-2.592 1.275-1 3l-2 2c1.211 1.22 1.211 2.387 0 3.5l2 1c-.95.718-1.117 1.551-.5 2.5 1.415-1.819 2.915-2.485 4.5-2l-1 2c.876-.131 1.543.202 2 1a31.12 31.12 0 0 0-2 2c-2.78 1.117-3.112 2.283-1 3.5-.95.718-1.117 1.551-.5 2.5 1.129-1.641 2.629-2.641 4.5-3v1c-3.945 1.626-4.445 3.626-1.5 6a31.418 31.418 0 0 0 4.5-5h1c-1.043 2.556-2.71 4.723-5 6.5 1.167.5 2 1.333 2.5 2.5 1.129-1.641 2.629-2.641 4.5-3v1c-1.312.645-2.312 1.645-3 3 1.218-.391 2.052.276 2.5 2a714.894 714.894 0 0 1 3.5-5c1-.333 1.667-1 2-2 .958-.453 1.792-1.119 2.5-2 .399.228.565.562.5 1a17.91 17.91 0 0 0-4 6l2-1c.543.06.876.393 1 1-1.64 1.416-2.472 3.083-2.5 5 1.316-2.528 2.483-2.528 3.5 0 .607-.124.94-.457 1-1 1.117-2.779 2.283-3.112 3.5-1a8.908 8.908 0 0 1 3-4c.464.594.631 1.261.5 2-1.348 1.027-1.848 2.36-1.5 4 1-1.333 2-1.333 3 0l1.5-3c-.262-1.478.071-2.811 1-4l1 1c-.985 1.598-1.151 3.265-.5 5a20.093 20.093 0 0 0 1.5-6c1.14-2.596 2.973-4.596 5.5-6a29.774 29.774 0 0 1 7 6 94.02 94.02 0 0 1 3.5 18 187.739 187.739 0 0 0-3 19c-9.517 1.343-18.017 5.01-25.5 11-14.54-12.708-24.373-28.374-29.5-47a245.633 245.633 0 0 1-2-58.5c-2.37-3.081-2.37-6.081 0-9a18.19 18.19 0 0 1-2-3.5c.938-2.937.938-5.604 0-8 .868-2.944 2.535-3.944 5-3-.149 5.391 1.351 6.058 4.5 2l.5 1c-2.353 3.249-2.52 6.582-.5 10a34.692 34.692 0 0 1 7.5-6.5c8.234-3.839 16.901-6.839 26-9a107.763 107.763 0 0 1 25 .5c5.424-.601 10.424-2.268 15-5h3a103.407 103.407 0 0 1 11-3z"/><path style="opacity:1" fill="#5a2c1a" d="M43.5 178.5a2.429 2.429 0 0 1 2 .5 14.398 14.398 0 0 1 0 4.5v1c-1.871.359-3.371 1.359-4.5 3-.5-1.167-1.333-2-2.5-2.5 2.29-1.777 3.957-3.944 5-6.5z"/><path style="opacity:1" fill="#230208" d="M84.5 183.5c1.406.473 2.073 1.473 2 3-1.406-.473-2.073-1.473-2-3z"/><path style="opacity:1" fill="#1f0208" d="M54.5 180.5c-1.473-.571-3.14-.571-5 0-.237 1.291.096 2.291 1 3-.333 1-1 1.667-2 2-.848-1.125-1.848-1.125-3 0v-2h3c.067-1.459-.266-2.792-1-4a8.43 8.43 0 0 0 4-.5c1.147-2.178 2.813-3.678 5-4.5l2 .5c-2.383.065-3.05.898-2 2.5-1.112.765-1.779 1.765-2 3z"/><path style="opacity:1" fill="#875121" d="M54.5 180.5c.172.992-.162 1.658-1 2 .065-.438-.101-.772-.5-1-.708.881-1.542 1.547-2.5 2-.904-.709-1.237-1.709-1-3 1.86-.571 3.527-.571 5 0z"/><path style="opacity:1" fill="#906225" d="M39.5 177.5c1.291-.237 2.291.096 3 1a31.418 31.418 0 0 1-4.5 5c-2.945-2.374-2.445-4.374 1.5-6z"/><path style="opacity:1" fill="#ecc258" d="M47.5 179.5c.734 1.208 1.067 2.541 1 4h-3a14.398 14.398 0 0 0 0-4.5 2.429 2.429 0 0 0-2-.5c.311-.978.978-1.645 2-2a44.093 44.093 0 0 0 2 3z"/><path style="opacity:1" fill="#573224" d="M81.5 179.5c1.762.762 2.762 2.096 3 4-.958-.453-1.792-1.119-2.5-2-.399.228-.565.562-.5 1-2.005.624-3.672-.21-5-2.5.43-.92.763-1.753 1-2.5 1.122 1.13 2.456 1.797 4 2z"/><path style="opacity:1" fill="#efc54f" d="M66.5 185.5a16.332 16.332 0 0 1-4-2c1.108-1.714.442-2.381-2-2-.17 1.322.163 2.489 1 3.5a15.83 15.83 0 0 0-5.5 3.5 11.357 11.357 0 0 0-1.5-3.5 13.448 13.448 0 0 0 4-4.5l4-2a2.427 2.427 0 0 0 .5 2c1.951-2.498 4.285-3.165 7-2-.063 1.462-.73 2.795-2 4l-1-1c.355 1.459.189 2.793-.5 4z"/><path style="opacity:1" fill="#220409" d="M62.5 177.5v1l-4 2c-.11-.617-.444-1.117-1-1.5 1.56-.318 2.728-1.151 3.5-2.5.383.556.883.889 1.5 1z"/><path style="opacity:1" fill="#7c4b1a" d="M36.5 173.5c1.278.282 2.278.949 3 2 .667 0 1 .333 1 1h-1c-1.871.359-3.371 1.359-4.5 3-.617-.949-.45-1.782.5-2.5-2.112-1.217-1.78-2.383 1-3.5z"/><path style="opacity:1" fill="#855120" d="M64.5 171.5c.79.901 1.79 1.568 3 2v2a397.602 397.602 0 0 1-5 3v-1c-.475-2.582.192-4.582 2-6z"/><path style="opacity:1" fill="#31130f" d="M50.5 173.5a58.197 58.197 0 0 1-3 6 44.093 44.093 0 0 1-2-3c-1.022.355-1.689 1.022-2 2h-1c-.709-.904-1.709-1.237-3-1v-1h1a6.845 6.845 0 0 0 4-1c.715-2.278 1.882-3.611 3.5-4 .417 1.256 1.25 1.923 2.5 2z"/><path style="opacity:1" fill="#300d0a" d="M90.5 171.5c4.065 1.733 6.732 4.733 8 9a5733.962 5733.962 0 0 0-8-9z"/><path style="opacity:1" fill="#6c3410" d="M71.5 170.5c-.762 1.762-2.096 2.762-4 3 .762-1.762 2.096-2.762 4-3z"/><path style="opacity:1" fill="#66340d" d="M36.5 170.5c-.754 1.946-2.088 2.779-4 2.5.97-1.481 2.304-2.315 4-2.5z"/><path style="opacity:1" fill="#f0c850" d="M58.5 160.5c.453.958 1.12 1.792 2 2.5-2.55 3.613-5.883 6.28-10 8l2 1c-.916.278-1.583.778-2 1.5-1.25-.077-2.083-.744-2.5-2-1.618.389-2.785 1.722-3.5 4a6.845 6.845 0 0 1-4 1c0-.667-.333-1-1-1 .38-1.431 1.38-2.264 3-2.5l-1-1 5-3c-.916-.278-1.583-.778-2-1.5 1.89-.203 3.39.463 4.5 2a19.366 19.366 0 0 1 6.5-7.5c-.95-.617-1.782-.451-2.5.5.756-2.871 2.59-3.538 5.5-2z"/><path style="opacity:1" fill="#451b0d" d="M84.5 168.5c2.589-.039 4.589.961 6 3-2.319-.492-4.319-1.492-6-3z"/><path style="opacity:1" fill="#4d200d" d="M72.5 168.5h3c-1.014 1.174-2.347 1.84-4 2l1-2z"/><path style="opacity:1" fill="#f5cd53" d="m72.5 168.5-1 2c-1.904.238-3.238 1.238-4 3-1.21-.432-2.21-1.099-3-2 2.298-1.961 4.965-2.961 8-3z"/><path style="opacity:1" fill="#32130c" d="M65.5 154.5h2c-1.214 2.629-1.214 5.296 0 8-1.25-.077-2.083-.744-2.5-2a25.897 25.897 0 0 0-5.5 6.5 2.429 2.429 0 0 0 2 .5c1.158 1.45.658 2.45-1.5 3a4.451 4.451 0 0 0-1.5-2 18.915 18.915 0 0 0-5 3c.21.586.543 1.086 1 1.5a8.43 8.43 0 0 1-4 .5c.417-.722 1.084-1.222 2-1.5l-2-1c4.117-1.72 7.45-4.387 10-8-.88-.708-1.547-1.542-2-2.5 2.321-.158 4.154-1.158 5.5-3l1 1c-.355-1.459-.189-2.793.5-4z"/><path style="opacity:1" fill="#2a0c0a" d="M89.5 164.5c-4.136-1.683-8.47-2.35-13-2 .317 3.046-1.016 4.713-4 5v1c-3.035.039-5.702 1.039-8 3 .76-1.931 2.093-3.431 4-4.5-.88-.708-1.547-1.542-2-2.5.838-.342 1.172-1.008 1-2 1.148 1.395 2.148 1.228 3-.5a64.218 64.218 0 0 1 16 0c1.442.377 2.442 1.21 3 2.5z"/><path style="opacity:1" fill="#e8be50" d="M66.5 164.5c.453.958 1.12 1.792 2 2.5-1.907 1.069-3.24 2.569-4 4.5-1.808 1.418-2.475 3.418-2 6-.617-.111-1.117-.444-1.5-1-.772 1.349-1.94 2.182-3.5 2.5.556.383.89.883 1 1.5h-4c.221-1.235.888-2.235 2-3-1.05-1.602-.383-2.435 2-2.5l-2-.5c-2.187.822-3.853 2.322-5 4.5a8.43 8.43 0 0 1-4 .5 58.197 58.197 0 0 0 3-6 8.43 8.43 0 0 0 4-.5 3.646 3.646 0 0 1-1-1.5 18.915 18.915 0 0 1 5-3 4.451 4.451 0 0 1 1.5 2c2.158-.55 2.658-1.55 1.5-3 1.65-.973 3.316-1.973 5-3z"/><path style="opacity:1" fill="#280f0b" d="M56.5 171.5c5.039-.049 5.206.618.5 2a2.427 2.427 0 0 1-.5-2z"/><path style="opacity:1" fill="#7b4722" d="m100.5 156.5 5 4c2.182 1.323 2.849 2.99 2 5h-1a1673.982 1673.982 0 0 1-6-9z"/><path style="opacity:1" fill="#eec048" d="M72.5 167.5c-1.859.039-3.192-.794-4-2.5l5-2.5c1.152 1.897.819 3.564-1 5z"/><path style="opacity:1" fill="#170008" d="M66.5 164.5a397.602 397.602 0 0 1-5 3c.887-2.932 2.554-3.932 5-3z"/><path style="opacity:1" fill="#f4cd65" d="M67.5 162.5c.172.992-.162 1.658-1 2-2.446-.932-4.113.068-5 3a2.429 2.429 0 0 1-2-.5 25.897 25.897 0 0 1 5.5-6.5c.417 1.256 1.25 1.923 2.5 2z"/><path style="opacity:1" fill="#c49642" d="M37.5 168.5c-1.585-.485-3.085.181-4.5 2-.617-.949-.45-1.782.5-2.5l-2-1c1.211-1.113 1.211-2.28 0-3.5l2-2c-1.592-1.725-1.258-2.725 1-3 4.016-.729 4.016.104 0 2.5a10.756 10.756 0 0 1 3 2.5 17.443 17.443 0 0 1 5-8l1 1c-2.782 4.099-4.782 8.099-6 12z"/><path style="opacity:1" fill="#f6d343" d="M84.5 146.5c1.28 1.431 2.947 2.098 5 2 .992-.172 1.658.162 2 1 .473 1.406 1.473 2.073 3 2 1.41 2.414 3.41 4.081 6 5 1.974 2.982 3.974 5.982 6 9-.751 1.073-1.751 1.24-3 .5-1.032-1.627-2.366-2.793-4-3.5-2.05.822-1.716 1.822 1 3 .238 1.904 1.238 3.238 3 4-.073 1.527.594 2.527 2 3-.172.992.162 1.658 1 2-.098 2.053.569 3.72 2 5v4a4.934 4.934 0 0 1-.5 3c-.74-1.819-1.907-3.152-3.5-4 .073-1.527-.594-2.527-2-3 .073-1.527-.594-2.527-2-3 .073-1.527-.594-2.527-2-3-2-4-5-7-9-9-.558-1.29-1.558-2.123-3-2.5a64.218 64.218 0 0 0-16 0c-.852 1.728-1.852 1.895-3 .5-1.214-2.704-1.214-5.371 0-8h-2c-1.545-2.609-3.212-2.609-5 0-.753-2.493.247-4.326 3-5.5a59.883 59.883 0 0 1 21-2.5z"/><path style="opacity:1" fill="#5a230e" d="M78.5 155.5c2.82-.252 5.487.248 8 1.5a24.124 24.124 0 0 0-9 .5l-2-.5c1.237-.232 2.237-.732 3-1.5z"/><path style="opacity:1" fill="#e4b549" d="M65.5 154.5c-.689 1.207-.855 2.541-.5 4l-1-1c-1.346 1.842-3.179 2.842-5.5 3 .575-1.702 1.408-3.369 2.5-5l1 1c.71-1.473 1.876-2.14 3.5-2z"/><path style="opacity:1" fill="#ebc155" d="M61.5 145.5c-.095 2.772-1.428 4.772-4 6a28.854 28.854 0 0 0-1.5 4c-1.84-1.333-2.34-1.166-1.5.5-2.667.667-2.667 1.333 0 2a4.934 4.934 0 0 1-3 .5c-.403 2.906-2.07 4.739-5 5.5.457.414.79.914 1 1.5a44.293 44.293 0 0 0-3 2c-.617-.111-1.117-.444-1.5-1-2.764 5.59-3.931 5.256-3.5-1a20.088 20.088 0 0 0 6-1.5c-1.231-1.183-1.231-2.349 0-3.5l2 1c-.391-1.218.276-2.052 2-2.5l-4-1c3.4-1.648 5.9-4.148 7.5-7.5.718.951 1.55 1.117 2.5.5.949-2.975 2.949-4.809 6-5.5z"/><path style="opacity:1" fill="#290f0c" d="M61.5 145.5c-3.051.691-5.051 2.525-6 5.5-.95.617-1.782.451-2.5-.5-1.6 3.352-4.1 5.852-7.5 7.5l4 1c-1.724.448-2.391 1.282-2 2.5l-2-1c-1.231 1.151-1.231 2.317 0 3.5a20.088 20.088 0 0 1-6 1.5c-.431 6.256.736 6.59 3.5 1 .383.556.883.889 1.5 1 .417.722 1.084 1.222 2 1.5l-5 3 1 1c-1.62.236-2.62 1.069-3 2.5-.722-1.051-1.722-1.718-3-2a31.12 31.12 0 0 1 2-2c-.457-.798-1.124-1.131-2-1l1-2c1.218-3.901 3.218-7.901 6-12l-1-1a17.443 17.443 0 0 0-5 8 10.756 10.756 0 0 0-3-2.5c4.016-2.396 4.016-3.229 0-2.5l1-2a57.87 57.87 0 0 1 6.5-3c4.538 2.492 7.705 1.159 9.5-4a83.054 83.054 0 0 1 8-5c.916.043 1.583.376 2 1z"/><path style="opacity:1" fill="#502310" d="M94.5 151.5c2.59.919 4.59 2.586 6 5-2.59-.919-4.59-2.586-6-5z"/><path style="opacity:1" fill="#50210d" d="M67.5 154.5c1.686-2.505 4.02-3.338 7-2.5-2.354.847-4.688 1.68-7 2.5z"/><path style="opacity:1" fill="#e6bb57" d="M46.5 142.5c1.562.233 2.895.9 4 2l1 2c-.525 1.228-1.858 2.062-4 2.5l1 1c-3.349.089-3.849 1.256-1.5 3.5a13.436 13.436 0 0 1 4.5-4c-1.795 5.159-4.962 6.492-9.5 4a57.87 57.87 0 0 0-6.5 3c-1.073-2.153-1.073-4.153 0-6 1.746.718 2.413 1.718 2 3 1.239-.442 2.239-1.109 3-2 2.29 1.533 2.956 1.2 2-1a6.802 6.802 0 0 1 3-1.5l-1-1c5.048-2.466 4.715-3.3-1-2.5v-1c1.21-.432 2.21-1.099 3-2z"/><path style="opacity:1" fill="#421e12" d="M84.5 146.5a59.883 59.883 0 0 0-21 2.5c-2.753 1.174-3.753 3.007-3 5.5 1.788-2.609 3.455-2.609 5 0-1.624-.14-2.79.527-3.5 2l-1-1c-1.092 1.631-1.925 3.298-2.5 5-2.91-1.538-4.744-.871-5.5 2 .718-.951 1.55-1.117 2.5-.5a19.366 19.366 0 0 0-6.5 7.5c-1.11-1.537-2.61-2.203-4.5-2a44.293 44.293 0 0 1 3-2 3.646 3.646 0 0 0-1-1.5c2.93-.761 4.597-2.594 5-5.5a4.934 4.934 0 0 0 3-.5c-2.667-.667-2.667-1.333 0-2-.84-1.666-.34-1.833 1.5-.5a28.854 28.854 0 0 1 1.5-4c2.572-1.228 3.905-3.228 4-6 .982.641 1.982 1.307 3 2 .607-.124.94-.457 1-1a81.537 81.537 0 0 0 12.5-2c2.4.302 4.566.968 6.5 2z"/><path style="opacity:1" fill="#31100c" d="M51.5 146.5v3a13.436 13.436 0 0 0-4.5 4c-2.349-2.244-1.849-3.411 1.5-3.5l-1-1c2.142-.438 3.475-1.272 4-2.5z"/><path style="opacity:1" fill="#9e723a" d="M40.5 151.5c-.761.891-1.761 1.558-3 2 .413-1.282-.254-2.282-2-3a5.727 5.727 0 0 1 3-1c2.858-1.624 3.525-.957 2 2z"/><path style="opacity:1" fill="#43190c" d="M91.5 149.5c1.527-.073 2.527.594 3 2-1.527.073-2.527-.594-3-2z"/><path style="opacity:1" fill="#4e1e0c" d="M84.5 146.5c2.053-.098 3.72.569 5 2-2.053.098-3.72-.569-5-2z"/><path style="opacity:1" fill="#72390f" d="M95.5 145.5a44.093 44.093 0 0 0 2-3c1.141 1.921 1.308 3.921.5 6a10.51 10.51 0 0 1-2.5-3z"/><path style="opacity:1" fill="#3a190d" d="M40.5 151.5c1.525-2.957.858-3.624-2-2a22.755 22.755 0 0 1 5-4c5.715-.8 6.048.034 1 2.5l1 1a6.802 6.802 0 0 0-3 1.5c.956 2.2.29 2.533-2 1z"/><path style="opacity:1" fill="#36160e" d="M57.5 139.5c1.604.787 2.27 2.12 2 4-2.906.457-5.572 1.457-8 3l-1-2c1.624.14 2.79-.527 3.5-2l1 1c1.085-1.236 1.918-2.569 2.5-4z"/><path style="opacity:1" fill="#87511e" d="M48.5 139.5a4.934 4.934 0 0 1 3 .5 38.728 38.728 0 0 0-5 2.5c-.79.901-1.79 1.568-3 2-.864.963-1.53.963-2 0a12.409 12.409 0 0 1 4-2.5c-1.333-.667-1.333-1.333 0-2a4.934 4.934 0 0 1 3-.5z"/><path style="opacity:1" fill="#5a280e" d="M95.5 145.5c-1.739-1.619-2.239-3.619-1.5-6a20.093 20.093 0 0 1 1.5 6z"/><path style="opacity:1" fill="#764b1c" d="M88.5 140.5c.617.111 1.117.444 1.5 1l1-4a28.043 28.043 0 0 0 1.5 5c-2.333 1.441-3.666.775-4-2z"/><path style="opacity:1" fill="#f6cf64" d="M57.5 139.5c-.582 1.431-1.415 2.764-2.5 4l-1-1c-.71 1.473-1.876 2.14-3.5 2a4.932 4.932 0 0 1 .5-3l1 1c1.346-1.842 3.179-2.842 5.5-3z"/><path style="opacity:1" fill="#f4cd53" d="M66.5 136.5a32.478 32.478 0 0 1-5 4c-.438-.065-.772.101-1 .5a81.285 81.285 0 0 1 5 5.5c-.06.543-.393.876-1 1a184.223 184.223 0 0 0-3-2c-.417-.624-1.084-.957-2-1a83.054 83.054 0 0 0-8 5v-3c2.428-1.543 5.094-2.543 8-3 .27-1.88-.396-3.213-2-4-1.92-1.321-2.087-2.654-.5-4a65.1 65.1 0 0 1 9.5 1z"/><path style="opacity:1" fill="#511f0c" d="M88.5 140.5c-1.877-1.159-2.377-2.826-1.5-5a42.584 42.584 0 0 1 1.5 5z"/><path style="opacity:1" fill="#64310e" d="M82.5 137.5c-.792-1.467-.792-2.8 0-4 1.457 2.221 2.29 4.554 2.5 7a81.216 81.216 0 0 0-2.5-3z"/><path style="opacity:1" fill="#68360f" d="m78.5 134.5 4 3c-.12 1.086-.787 1.753-2 2-.916-.043-1.583-.376-2-1a2.429 2.429 0 0 0 2-.5c-1.323-.816-1.99-1.983-2-3.5z"/><path style="opacity:1" fill="#c39544" d="M78.5 134.5c.01 1.517.677 2.684 2 3.5a2.429 2.429 0 0 1-2 .5c-.283-.789-.783-1.456-1.5-2-3.27.632-6.437 1.299-9.5 2-1.802.958-3.802 1.625-6 2a32.478 32.478 0 0 0 5-4 31.23 31.23 0 0 0 7-1c-.01-1.517-.677-2.684-2-3.5a24.935 24.935 0 0 1 7-.5v3z"/><path style="opacity:1" fill="#270a09" d="M78.5 138.5h-11c3.063-.701 6.23-1.368 9.5-2 .717.544 1.217 1.211 1.5 2z"/><path style="opacity:1" fill="#351510" d="M73.5 135.5a31.23 31.23 0 0 1-7 1 65.1 65.1 0 0 0-9.5-1c-1.587 1.346-1.42 2.679.5 4-2.321.158-4.154 1.158-5.5 3l-1-1a4.932 4.932 0 0 0-.5 3c-1.105-1.1-2.438-1.767-4-2a38.728 38.728 0 0 1 5-2.5 4.934 4.934 0 0 0-3-.5c-.417-.722-1.084-1.222-2-1.5 1.544-1.187 3.211-1.52 5-1-2.095.556-2.262 1.056-.5 1.5 3.374-3.941 7.207-5.275 11.5-4a6.807 6.807 0 0 0 1.5-3 14.984 14.984 0 0 0 3.5 3c2.126-.962 4.126-.628 6 1z"/><path style="opacity:1" fill="#c50008" d="M34.5 108.5c2.343 1.467 2.01 2.801-1 4l-1-1c.693-1.018 1.36-2.018 2-3z"/><path style="opacity:1" fill="#fcd947" d="M75.5 168.5h9c1.681 1.508 3.681 2.508 6 3 2.695 3.026 5.362 6.026 8 9a50.058 50.058 0 0 1 5 17v5c-1.322-.17-2.489.163-3.5 1a12.935 12.935 0 0 1-.5-5c-.582-4.032-1.915-7.699-4-11 .172-.992-.162-1.658-1-2-2.898-7.222-8.231-11.556-16-13-1.67.168-3.004.835-4 2-2.191 1.853-4.525 2.187-7 1v-2c1.904-.238 3.238-1.238 4-3 1.653-.16 2.986-.826 4-2z"/><path style="opacity:1" fill="#deb35a" d="M190.5 195.5c1.398 4.568.898 4.902-1.5 1-.075 2.435-.908 3.102-2.5 2a31.71 31.71 0 0 0-2-6c1.029.204 2.029-.296 3-1.5-1.141-.741-1.141-1.575 0-2.5-1.984-.142-3.984-1.142-6-3-1.789-1.123-2.122-2.456-1-4 4.035 2.035 7.035 5.035 9 9-1.509 2.12-1.176 3.787 1 5z"/><path style="opacity:1" fill="#804c1b" d="M48.5 185.5a714.894 714.894 0 0 0-3.5 5c-.448-1.724-1.282-2.391-2.5-2 .688-1.355 1.688-2.355 3-3 1.152-1.125 2.152-1.125 3 0z"/><path style="opacity:1" fill="#290b0a" d="M98.5 180.5c3.542 4.274 5.542 9.274 6 15 .172.992-.162 1.658-1 2a50.058 50.058 0 0 0-5-17z"/><path style="opacity:1" fill="#41190d" d="M147.5 181.5c-1.159 3.651-2.826 6.985-5 10 .627-3.92 2.293-7.253 5-10z"/><path style="opacity:1" fill="#36130d" d="M94.5 185.5a94.29 94.29 0 0 0-8-8.5c-.667-.667-1.333-.667-2 0 6.363 6.223 9.863 13.723 10.5 22.5-1.969-8.775-6.135-16.275-12.5-22.5a10.1 10.1 0 0 0-6-1.5c-.992.172-1.658-.162-2-1 .996-1.165 2.33-1.832 4-2 7.769 1.444 13.102 5.778 16 13z"/><path style="opacity:1" fill="#4f260e" d="M49.5 188.5c.039 1.256-.461 2.256-1.5 3-.585-1.498-.085-2.498 1.5-3z"/><path style="opacity:1" fill="#c3923e" d="M54.5 192.5c-.06.543-.393.876-1 1-1.017-2.528-2.184-2.528-3.5 0 .028-1.917.86-3.584 2.5-5-.124-.607-.457-.94-1-1 .283-.789.783-1.456 1.5-2 1.316 2.466 1.816 4.799 1.5 7z"/><path style="opacity:1" fill="#ac7934" d="m64.5 190.5-1.5 3c-1-1.333-2-1.333-3 0-.348-1.64.152-2.973 1.5-4 .722-.418 1.222-1.084 1.5-2 .232 1.237.732 2.237 1.5 3z"/><path style="opacity:1" fill="#46220f" d="m138.5 187.5-2 10c-.624-.417-.957-1.084-1-2 .405-3.005 1.405-5.671 3-8z"/><path style="opacity:1" fill="#f7cf56" d="M161.5 181.5a2.428 2.428 0 0 1 2 .5c-2.618 2.106-4.618 4.606-6 7.5-1.174 1.014-1.84 2.347-2 4-1.37 1.75-2.37 3.75-3 6v6h-4v-4c1.238-1.714 1.905-3.714 2-6a36.077 36.077 0 0 0 4-7c2.667-2 5-4.333 7-7z"/><path style="opacity:1" fill="#30100c" d="M54.5 180.5h4a13.448 13.448 0 0 1-4 4.5 11.357 11.357 0 0 1 1.5 3.5 15.83 15.83 0 0 1 5.5-3.5c-.837-1.011-1.17-2.178-1-3.5 2.442-.381 3.108.286 2 2 1.266.862 2.6 1.529 4 2 .667 0 1 .333 1 1a20.093 20.093 0 0 1-1.5 6c-.651-1.735-.485-3.402.5-5l-1-1c-.929 1.189-1.262 2.522-1 4-.768-.763-1.268-1.763-1.5-3-.278.916-.778 1.582-1.5 2a2.427 2.427 0 0 0-.5-2 8.908 8.908 0 0 0-3 4c-1.217-2.112-2.383-1.779-3.5 1 .316-2.201-.184-4.534-1.5-7-.717.544-1.217 1.211-1.5 2l-2 1a17.91 17.91 0 0 1 4-6c.838-.342 1.172-1.008 1-2z"/><path style="opacity:1" fill="#471e10" d="M154.5 188.5a36.077 36.077 0 0 1-4 7c.055-3.114 1.388-5.448 4-7z"/><path style="opacity:1" fill="#5c2b0e" d="M151.5 184.5c-1.159 3.651-2.826 6.985-5 10 .627-3.92 2.293-7.253 5-10z"/><path style="opacity:1" fill="#200809" d="M88.5 190.5c1.604.787 2.27 2.12 2 4-1.174-1.014-1.84-2.347-2-4z"/><path style="opacity:1" fill="#e8c157" d="M76.5 175.5a10.1 10.1 0 0 1 6 1.5c6.365 6.225 10.531 13.725 12.5 22.5-.637-8.777-4.137-16.277-10.5-22.5.667-.667 1.333-.667 2 0a94.29 94.29 0 0 1 8 8.5c.838.342 1.172 1.008 1 2a44.757 44.757 0 0 0 3 11 9.864 9.864 0 0 1-1 6 10.255 10.255 0 0 1-1.5-4 6.807 6.807 0 0 1-1.5 3 541.07 541.07 0 0 0-4-9c.27-1.88-.396-3.213-2-4-1.174-1.014-1.84-2.347-2-4 .073-1.527-.594-2.527-2-3-.238-1.904-1.238-3.238-3-4-1.172-2.039-2.838-3.372-5-4z"/><path style="opacity:1" fill="#733d0f" d="M95.5 187.5c2.085 3.301 3.418 6.968 4 11h-1a44.757 44.757 0 0 1-3-11z"/><path style="opacity:1" fill="#d6a547" d="M208.5 177.5a31.147 31.147 0 0 1 2 2c1.196-.346 1.196-.846 0-1.5a2.428 2.428 0 0 1 2-.5c.011 1.517.677 2.684 2 3.5-2.089 1.503-3.756 4.003-5 7.5a24.725 24.725 0 0 0-7 6.5c-2.496 2.116-5.163 2.616-8 1.5a25.194 25.194 0 0 0-3-5.5c.602-1.563 1.435-1.396 2.5.5l.5-1c-1.452-1.44-2.452-3.106-3-5h2c-.803-.923-.97-1.923-.5-3l4 4 3-3c2.984 2.207 3.15 1.707.5-1.5 1.887-.163 3.387.671 4.5 2.5a4.457 4.457 0 0 1 1.5-2c1.465 1.109 2.465.609 3-1.5-.752-.671-1.086-1.504-1-2.5v-1z"/><path style="opacity:1" fill="#43180c" d="M193.5 185.5c1.585.502 2.085 1.502 1.5 3-1.039-.744-1.539-1.744-1.5-3z"/><path style="opacity:1" fill="#f0ca52" d="M89.5 164.5a57.484 57.484 0 0 0 9 9c-.073 1.527.594 2.527 2 3-.073 1.527.594 2.527 2 3 .16 1.653.826 2.986 2 4v-1c1.593.848 2.76 2.181 3.5 4a4.934 4.934 0 0 0 .5-3c.802 1.452 1.302 3.118 1.5 5 .781-3.317.281-6.317-1.5-9 .098-2.053-.569-3.72-2-5-.838-.342-1.172-1.008-1-2 .073-1.527-.594-2.527-2-3-.238-1.904-1.238-3.238-3-4a5.727 5.727 0 0 0-1-3c1.634.707 2.968 1.873 4 3.5 1.249.74 2.249.573 3-.5h1c4.833 11.165 6.833 22.831 6 35a305.962 305.962 0 0 1-2.5-11c-.176 4.188-.676 8.188-1.5 12-.802-1.452-1.302-3.118-1.5-5l-1 6c-1.292 1.291-2.458 1.291-3.5 0v-1c1.447-.634 2.113-1.801 2-3.5-.028-1.07-.361-1.903-1-2.5-.458-5.726-2.458-10.726-6-15-1.268-4.267-3.935-7.267-8-9-1.411-2.039-3.411-3.039-6-3h-12v-1c2.984-.287 4.317-1.954 4-5 4.53-.35 8.864.317 13 2z"/><path style="opacity:1" fill="#512f1a" d="M104.5 183.5c2.359 3.602 3.192 7.602 2.5 12a78.875 78.875 0 0 1-2.5-12z"/><path style="opacity:1" fill="#38190e" d="M108.5 179.5c1.781 2.683 2.281 5.683 1.5 9-.198-1.882-.698-3.548-1.5-5v-4z"/><path style="opacity:1" fill="#290909" d="M102.5 179.5c1.406.473 2.073 1.473 2 3v1c-1.174-1.014-1.84-2.347-2-4z"/><path style="opacity:1" fill="#390c09" d="M100.5 176.5c1.406.473 2.073 1.473 2 3-1.406-.473-2.073-1.473-2-3z"/><path style="opacity:1" fill="#53240e" d="M106.5 174.5c1.431 1.28 2.098 2.947 2 5-1.431-1.28-2.098-2.947-2-5z"/><path style="opacity:1" fill="#290208" d="M98.5 173.5c1.406.473 2.073 1.473 2 3-1.406-.473-2.073-1.473-2-3z"/><path style="opacity:1" fill="#32110c" d="M103.5 169.5c1.406.473 2.073 1.473 2 3-1.406-.473-2.073-1.473-2-3z"/><path style="opacity:1" fill="#41190d" d="M100.5 165.5c1.762.762 2.762 2.096 3 4-1.762-.762-2.762-2.096-3-4z"/><path style="opacity:1" fill="#320f0a" d="M89.5 164.5c4 2 7 5 9 9a57.484 57.484 0 0 1-9-9z"/><path style="opacity:1" fill="#522c11" d="M99.5 162.5c.61.891.943 1.891 1 3-2.716-1.178-3.05-2.178-1-3z"/><path style="opacity:1" fill="#582a0f" d="M142.5 191.5c.098 2.053-.569 3.72-2 5-.098-2.053.569-3.72 2-5z"/><path style="opacity:1" fill="#eac253" d="m156.5 200.5 4-10a54.53 54.53 0 0 0 6.5-6c.957 2.209 2.124 2.043 3.5-.5 1.259-.982 2.592-1.315 4-1-6.767 6.027-11.1 13.527-13 22.5l-1-2.5c.951-2.822 1.451-5.655 1.5-8.5-1.904 3.423-2.737 7.09-2.5 11h-3v-5z"/><path style="opacity:1" fill="#43180c" d="M165.5 187.5c1.213.997 1.046 1.997-.5 3-.47-1.077-.303-2.077.5-3z"/><path style="opacity:1" fill="#f4c75b" d="M194.5 196.5c.131.876-.202 1.543-1 2-.788-1.27-1.788-2.27-3-3a2.428 2.428 0 0 1 .5-2 14.698 14.698 0 0 0 3.5 3z"/><path style="opacity:1" fill="#f3c877" d="M86.5 193.5c.705 2.744.705 5.411 0 8-1.114-3.297-1.614-6.631-1.5-10 .278.916.778 1.582 1.5 2z"/><path style="opacity:1" fill="#f4cd54" d="M84.5 183.5c-.073 1.527.594 2.527 2 3 .16 1.653.826 2.986 2 4 .16 1.653.826 2.986 2 4l1 8h-3c.285-3.329-.382-6.329-2-9a27.549 27.549 0 0 0-5-11c-.065-.438.101-.772.5-1 .708.881 1.542 1.547 2.5 2z"/><path style="opacity:1" fill="#8b551e" d="M113.5 200.5c-1.205 1.638-2.538 1.971-4 1 .824-3.812 1.324-7.812 1.5-12a305.962 305.962 0 0 0 2.5 11z"/><path style="opacity:1" fill="#471c0d" d="M150.5 195.5c-.095 2.286-.762 4.286-2 6-.241-2.398.426-4.398 2-6z"/><path style="opacity:1" fill="#fbd84b" d="M161.5 173.5c4.066-.193 8.066.14 12 1v3c-4.633-.34-8.633.994-12 4-3.333 1.333-5.667 3.667-7 7-2.612 1.552-3.945 3.886-4 7-1.574 1.602-2.241 3.602-2 6-.934 1.068-1.268 2.401-1 4h-3c.204-3.018.537-6.018 1-9 .838-.342 1.172-1.008 1-2 2.174-3.015 3.841-6.349 5-10 .838-.342 1.172-1.008 1-2 2.087-1.085 3.42-2.751 4-5 2.249-.58 3.915-1.913 5-4z"/><path style="opacity:1" fill="#80440a" d="M104.5 195.5c.639.597.972 1.43 1 2.5.113 1.699-.553 2.866-2 3.5v-4c.838-.342 1.172-1.008 1-2z"/><path style="opacity:1" fill="#582d13" d="M160.5 190.5a29746.61 29746.61 0 0 0-4 10h-1c1.045-4.631.379-4.964-2-1h-1c.63-2.25 1.63-4.25 3-6-.131.876.202 1.543 1 2 1.112-1.919 2.446-3.586 4-5z"/><path style="opacity:1" fill="#f6cc6e" d="M155.5 200.5c.285 1.788-.048 3.455-1 5a9.86 9.86 0 0 1-1-6c2.379-3.964 3.045-3.631 2 1z"/><path style="opacity:1" fill="#643212" d="M145.5 196.5a104.618 104.618 0 0 0-1 9l-2-1c.629-2.897 1.629-5.564 3-8z"/><path style="opacity:1" fill="#cfa265" d="M111.5 204.5c.876-.131 1.543.202 2 1-2.023 1.355-4.023 1.688-6 1a71.254 71.254 0 0 0 4-2z"/><path style="opacity:1" fill="#e8bf7f" d="M86.5 204.5a37.283 37.283 0 0 0 8 2.5c-2 .667-4 .667-6 0-1.256-.417-1.923-1.25-2-2.5z"/><path style="opacity:1" fill="#c48d2a" d="M86.5 209.5c1.98-.197 3.98.47 6 2 .306 2.885-.027 5.552-1 8 .268-1.599-.066-2.932-1-4 .354-2.994-.646-3.994-3-3h-1v-3z"/><path style="opacity:1" fill="#f9d55c" d="M113.5 222.5c.268-1.599-.066-2.932-1-4-.405-3.548.095-6.881 1.5-10a410.24 410.24 0 0 1 3.5 23c-1.322.17-2.489-.163-3.5-1a32.462 32.462 0 0 1-.5-8z"/><path style="opacity:1" fill="#5a270d" d="M94.5 212.5h2a106.254 106.254 0 0 0-1 20h-2a150.94 150.94 0 0 0 1-20z"/><path style="opacity:1" fill="#fbd55a" d="M151.5 213.5h3c.166 6.342 0 12.675-.5 19a3.647 3.647 0 0 1-1.5 1c-.997-6.634-1.33-13.3-1-20z"/><path style="opacity:1" fill="#c98b23" d="M162.5 214.5c-1.936 4.215-2.603 8.881-2 14-.987-4.805-1.321-9.805-1-15 1.696-1.629 2.696-1.296 3 1z"/><path style="opacity:1" fill="#fddb53" d="M94.5 212.5a150.94 150.94 0 0 1-1 20c-1.93-3.873-2.597-8.206-2-13 .973-2.448 1.306-5.115 1-8 .827-.939 1.494-.605 2 1z"/><path style="opacity:1" fill="#c1861c" d="M97.5 212.5c.06-.543.393-.876 1-1a470.1 470.1 0 0 0 2 9v6l-2-4c.313-3.542-.02-6.875-1-10z"/><path style="opacity:1" fill="#f9d651" d="M162.5 214.5c.698 4.807 1.365 9.641 2 14.5-.163 3.197-1.496 4.031-4 2.5v-3c-.603-5.119.064-9.785 2-14z"/><path style="opacity:1" fill="#fad752" d="M96.5 212.5h1c.98 3.125 1.313 6.458 1 10v10c-1 1.333-2 1.333-3 0-.293-6.755.04-13.422 1-20z"/><path style="opacity:1" fill="#fbd75f" d="M109.5 210.5c1.869 2.135 2.536 4.802 2 8-.268 1.599.066 2.932 1 4a32.462 32.462 0 0 1-.5 8c-1.813 1.109-2.646.442-2.5-2v-18z"/><path style="opacity:1" fill="#184d08" d="M119.5 220.5h9a60.931 60.931 0 0 0 .5 11c1.675 1.095 2.842 2.595 3.5 4.5 11.426.916 22.76.25 34-2a42.36 42.36 0 0 0 1.5-8.5 91.016 91.016 0 0 1 18 13c.667.667.667 1.333 0 2-37.281 25.868-75.781 27.702-115.5 5.5a78.674 78.674 0 0 1-12-9c5.814-4.659 12.314-8.159 19.5-10.5.497 2.646.664 5.313.5 8a1075.32 1075.32 0 0 0 21.5 2c3.966-.074 7.633-1.074 11-3 2.12.959 4.287 1.126 6.5.5 1.899-4.178 2.565-8.678 2-13.5z"/><path style="opacity:1" fill="#935b09" d="M146.5 216.5h1c.313 3.542-.021 6.875-1 10 .172-.992-.162-1.658-1-2-.306-2.885.027-5.552 1-8z"/><path style="opacity:1" fill="#f8d246" d="M86.5 209.5v3a76.107 76.107 0 0 0-.5 17 365.658 365.658 0 0 0 1.5-17c2.354-.994 3.354.006 3 3a69.245 69.245 0 0 1-1 16c-1.847 1.33-3.347.997-4.5-1-.71 1.473-1.876 2.14-3.5 2a76.583 76.583 0 0 1 2.5-18c.1-2.153.933-3.819 2.5-5z"/><path style="opacity:1" fill="#935d0b" d="M111.5 218.5h1c.934 1.068 1.268 2.401 1 4h-1c-.934-1.068-1.268-2.401-1-4z"/><path style="opacity:1" fill="#fcd754" d="M137.5 224.5c1.089-3.578 1.255-7.245.5-11a436.267 436.267 0 0 0-1.5 11v9h-3v-7c.841-1.879 1.175-3.879 1-6v-8c2.292-.256 4.459.077 6.5 1a100.2 100.2 0 0 1 0 20c-1 1.333-2 1.333-3 0a40.914 40.914 0 0 1-.5-9z"/><path style="opacity:1" fill="#61220b" d="M158.5 213.5h1c-.321 5.195.013 10.195 1 15v3h-2v-18z"/><path style="opacity:1" fill="#925c0b" d="M107.5 210.5h2v18h-1c-.99-5.81-1.323-11.81-1-18z"/><path style="opacity:1" fill="#e2b777" d="m133.5 220.5-1 6a12.93 12.93 0 0 1-.5 5 75.675 75.675 0 0 1 1-20c.498 2.982.665 5.982.5 9z"/><path style="opacity:1" fill="#603810" d="M137.5 224.5h-1c.452-3.663.952-7.33 1.5-11 .755 3.755.589 7.422-.5 11z"/><path style="opacity:1" fill="#71350b" d="M133.5 220.5h1c.175 2.121-.159 4.121-1 6h-1l1-6z"/><path style="opacity:1" fill="#fdda47" d="M146.5 226.5c.979-3.125 1.313-6.458 1-10 .321-1.548 1.321-2.215 3-2v20c-1.322.17-2.489-.163-3.5-1a24.935 24.935 0 0 1-.5-7z"/><path style="opacity:1" fill="#fedc5b" d="M158.5 213.5v18c-.709.904-1.709 1.237-3 1v-19h3z"/><path style="opacity:1" fill="#fedc5d" d="M100.5 233.5v-13a32.462 32.462 0 0 1 .5-8 3.647 3.647 0 0 1 1.5-1 121.862 121.862 0 0 1 1 22h-3z"/><path style="opacity:1" fill="#57230d" d="M86.5 212.5h1a365.658 365.658 0 0 1-1.5 17 76.107 76.107 0 0 1 .5-17z"/><path style="opacity:1" fill="#fcda4d" d="M146.5 216.5c-.973 2.448-1.306 5.115-1 8v10h-3c-.33-6.7.003-13.366 1-20 2.074-2.328 3.074-1.661 3 2z"/><path style="opacity:1" fill="#fdd94c" d="M107.5 210.5c-.323 6.19.01 12.19 1 18 .333 3-1 4.333-4 4v-22h3z"/><path style="opacity:1" fill="#78390a" d="m98.5 222.5 2 4v7l-2-1v-10z"/></svg>