<svg xmlns="http://www.w3.org/2000/svg" width="205" height="256" style="shape-rendering:geometricPrecision;text-rendering:geometricPrecision;image-rendering:optimizeQuality;fill-rule:evenodd;clip-rule:evenodd"><path style="opacity:1" fill="#020300" d="M-.5-.5h205v169a45.733 45.733 0 0 1-3 9V2.5H2.5a7310.838 7310.838 0 0 0-1 171l-2-5V-.5z"/><path style="opacity:1" fill="#019100" d="M2.5 2.5h199v164a267.507 267.507 0 0 1-6.5 22 6.978 6.978 0 0 1-2.5 3.5l1 1a81.316 81.316 0 0 0-3 2.5c-.722-.418-1.222-1.084-1.5-2-5.743-.284-11.576.049-17.5 1-2.198-.38-3.865.287-5 2a53.558 53.558 0 0 0-12.5 5l-1-1c-4.089 3.452-8.922 4.785-14.5 4l-9-.5a247.181 247.181 0 0 0-19-9c-6.828-.91-13.495-.41-20 1.5-1.88-.271-3.213.396-4 2-2.433-.227-4.1.773-5 3-4.363 2.234-9.03 3.901-14 5a77.459 77.459 0 0 0-12-2.5c-.753-1.487-1.586-1.654-2.5-.5-6.409-3.53-13.242-6.196-20.5-8-2.31-.664-4.81-.997-7.5-1-2.93.025-5.43.691-7.5 2h-2a20.236 20.236 0 0 1-4-4c-1.905-1.549-2.239-3.382-1-5.5-1.563-.759-2.563-1.926-3-3.5-.06-2.841-.726-5.507-2-8 .475-2.582-.192-4.582-2-6a8070.96 8070.96 0 0 1-1-167z"/><path style="opacity:1" fill="#0a1a0b" d="M2.5 2.5a8070.96 8070.96 0 0 0 1 167c.095 2.286.762 4.286 2 6 1.274 2.493 1.94 5.159 2 8h-3c-1.525-3.083-2.525-6.416-3-10-.332-57.169.001-114.17 1-171z"/><path style="opacity:1" fill="#538269" d="M101.5 12.5c-.936 1.474-2.27 2.474-4 3 .194-2.412 1.527-3.412 4-3z"/><path style="opacity:1" fill="#f4f9f6" d="M101.5 12.5a34.26 34.26 0 0 1 11 8c.473 1.406 1.473 2.073 3 2 .333 1 1 1.667 2 2 1.085 2.087 2.751 3.42 5 4a101.622 101.622 0 0 1 18.5 18 156.023 156.023 0 0 1 8.5 13c1 1.667 2.333 3 4 4-.073 1.527.594 2.527 2 3 .16 1.653.826 2.986 2 4 .851 2.382 2.184 4.382 4 6-.098 2.053.569 3.72 2 5 1.068 2.575 2.735 4.742 5 6.5a3.944 3.944 0 0 0-1 2c1.513 1.88 2.179 4.046 2 6.5.252 3.827 1.585 7.16 4 10v3c-.09 2.652.576 4.985 2 7a151.712 151.712 0 0 1-2 30c-1.037 1.43-1.704 3.097-2 5-.104 2.203-.77 4.203-2 6-1.237 1.465-2.237 3.132-3 5l-1 2c-.901.79-1.568 1.79-2 3-1.406.473-2.073 1.473-2 3-1.944 1.428-3.611 3.261-5 5.5-2.824 2.07-6.491 3.737-11 5a89.468 89.468 0 0 0-12 1.5c-2.72-1.611-5.72-2.444-9-2.5l1-1c-4.15-.436-7.816-1.936-11-4.5-2.486-2.887-3.486-2.22-3 2 .068 2.938.734 5.605 2 8a5.576 5.576 0 0 0 1 3l-2 1c-6.163-2.272-12.496-2.606-19-1-1.051-2.844-1.051-5.844 0-9 .525-7.401-.975-7.734-4.5-1-1.395-1.315-2.395-.981-3 1-1.299-.466-2.799-.466-4.5 0-1.495.489-2.829 1.155-4 2h-21c-3.371-.856-6.371-2.522-9-5-1.761-1.417-3.094-3.083-4-5-.333-1-1-1.667-2-2a310.865 310.865 0 0 1-9-14.5c.556-.383.89-.883 1-1.5-.807-4.257-2.14-8.257-4-12v-24a68.024 68.024 0 0 0 2-7v-3c1.038-1.43 1.704-3.097 2-5a40.938 40.938 0 0 1 4-12c1.038-1.43 1.704-3.097 2-5 .233-1.562.9-2.895 2-4 1.174-1.014 1.84-2.347 2-4a59.859 59.859 0 0 1 4-7c1.406-.473 2.073-1.473 2-3a23.574 23.574 0 0 1 4-6 21.628 21.628 0 0 0 4-5c1.22-3.224 3.22-5.89 6-8 2.72-1.72 4.72-4.053 6-7 2.913-4.25 6.913-8.25 12-12a14.562 14.562 0 0 0 5-4c.667 0 1-.333 1-1 1.73-.526 3.064-1.526 4-3 1.414-2.418 3.414-4.085 6-5 1.73-.526 3.064-1.526 4-3z"/><path style="opacity:1" fill="#5a8669" d="M91.5 20.5c-.936 1.474-2.27 2.474-4 3 .535-1.946 1.868-2.946 4-3z"/><path style="opacity:1" fill="#548565" d="M112.5 20.5c1.679-.215 2.679.452 3 2-1.527.073-2.527-.594-3-2z"/><path style="opacity:1" fill="#6c9f80" d="M117.5 24.5c2.249.58 3.915 1.913 5 4-2.249-.58-3.915-1.913-5-4z"/><path style="opacity:1" fill="#548a67" d="M86.5 24.5a14.562 14.562 0 0 1-5 4c.467-2.797 2.133-4.13 5-4z"/><path style="opacity:1" fill="#039103" d="m100.5 28.5 5 2c1.667 1 3 2.333 4 4 .667 2 2 3.333 4 4 0 1.333.667 2 2 2 0 1.333.667 2 2 2 .31 1.644 1.31 2.644 3 3 .054 2.132 1.054 3.465 3 4 0 2 1 3 3 3a71.916 71.916 0 0 1 7 9c-.073 1.527.594 2.527 2 3 1.507 1.79 2.84 3.79 4 6a3.647 3.647 0 0 1-1 1.5c1.237.232 2.237.732 3 1.5-.215 1.679.452 2.679 2 3 1.406.473 2.073 1.473 2 3-.284 3.357 1.049 5.69 4 7-.475 2.582.192 4.582 2 6l1 2c-.304.65-.637 1.317-1 2 1.043 2.35 2.376 4.349 4 6-.475 2.582.192 4.582 2 6v1c.315 3.871-.018 7.538-1 11-4.116-5.456-9.116-9.789-15-13a2.428 2.428 0 0 0-.5-2c-.671.752-1.504 1.086-2.5 1-1.135-1.713-2.802-2.38-5-2-7.544-.856-14.544.477-21 4-.996-.086-1.829.248-2.5 1a2.428 2.428 0 0 1-.5-2l4-7c1.548-.321 2.215-1.321 2-3v-1c.722.418 1.222 1.084 1.5 2 .494-1.634.66-3.3.5-5a32.292 32.292 0 0 0 3.5-7c.495-1.973.662-3.973.5-6a19.588 19.588 0 0 0 2-3.5 96.631 96.631 0 0 0-2-6.5 41.424 41.424 0 0 0-3-12 173.631 173.631 0 0 0-15-20c-.951-.826-1.951-.992-3-.5-4.027 3.512-7.027 7.679-9 12.5-1.703-1.16-2.37-.493-2 2-1.677.683-2.343 2.017-2 4 .172.992-.162 1.658-1 2-1.588 1.141-2.92 2.641-4 4.5.556.383.89.883 1 1.5v2c-.617.11-1.117.444-1.5 1l-.5 8.5c.02 3.251.686 6.085 2 8.5.384 3.923 1.717 7.423 4 10.5l-1 1a232.944 232.944 0 0 0 10 12.5c-.333 1-1 1.667-2 2a36.063 36.063 0 0 0-7-4c-2.15-1.17-4.484-2.17-7-3-.607.124-.94.457-1 1h-6c-2.582-.475-4.582.192-6 2-.617-.111-1.117-.444-1.5-1-.422 1.926-1.59 2.926-3.5 3-1.679-.215-2.679.452-3 2a30.318 30.318 0 0 0-7 6 4.934 4.934 0 0 0-3 .5l1 1-4 2c.837 1.011 1.17 2.178 1 3.5 0 .667-.333 1-1 1h-1a151.226 151.226 0 0 1 4-24c1.676-.683 2.343-2.017 2-4l4-10c1.548-.321 2.215-1.321 2-3a88.162 88.162 0 0 1 6-11c2.482-1.163 3.816-3.163 4-6a223.85 223.85 0 0 1 33-38z"/><path style="opacity:1" fill="#4d785c" d="m105.5 30.5-5-2c.283-.79.783-1.456 1.5-2a19.565 19.565 0 0 1 3.5 4z"/><path style="opacity:1" fill="#60987a" d="M109.5 34.5c2.333.333 3.667 1.667 4 4-2-.667-3.333-2-4-4z"/><path style="opacity:1" fill="#5c9977" d="M115.5 40.5c1.333 0 2 .667 2 2 0-1.333-.667-2-2-2z"/><path style="opacity:1" fill="#6e9e7b" d="M69.5 40.5c-1.28 2.947-3.28 5.28-6 7 1.31-2.973 3.31-5.306 6-7z"/><path style="opacity:1" fill="#507d5f" d="M120.5 45.5c1.762.762 2.762 2.096 3 4-1.946-.535-2.946-1.868-3-4z"/><path style="opacity:1" fill="#5a8b70" d="M91.5 50.5c-.333 1-1 1.667-2 2-.37-2.493.297-3.16 2-2z"/><path style="opacity:1" fill="#447955" d="M123.5 49.5a6.544 6.544 0 0 1 3 3c-2 0-3-1-3-3z"/><path style="opacity:1" fill="#5b8369" d="M89.5 52.5c-.16 1.653-.826 2.986-2 4-.343-1.983.323-3.317 2-4z"/><path style="opacity:1" fill="#4e8065" d="M103.5 54.5h-4c1.692-3.765 3.025-3.765 4 0z"/><path style="opacity:1" fill="#039102" d="M99.5 54.5h4c.282 1.278.949 2.278 2 3-.369 2.493.297 3.16 2 2-.38 2.198.287 3.865 2 5-.475 2.582.192 4.582 2 6v12c-1.676.683-2.343 2.017-2 4v1c-3.121 1.236-4.455 3.57-4 7 .172.992-.162 1.658-1 2-1.464.905-2.798.905-4 0-.667 0-1-.333-1-1 .215-1.679-.452-2.679-2-3 .413-2.82-.587-4.82-3-6-.734-1.208-1.067-2.541-1-4-1.128-4.875-1.128-9.542 0-14 .359-1.871 1.359-3.371 3-4.5-.556-.383-.89-.883-1-1.5 1.548-.321 2.215-1.321 2-3v-1c1.548-.321 2.215-1.321 2-3v-1z"/><path style="opacity:1" fill="#5e8967" d="M57.5 55.5a21.628 21.628 0 0 1-4 5c.17-2.704 1.503-4.37 4-5z"/><path style="opacity:1" fill="#528e68" d="M99.5 55.5c.215 1.679-.452 2.679-2 3-.073-1.527.594-2.527 2-3z"/><path style="opacity:1" fill="#4e8866" d="M105.5 57.5c1 .333 1.667 1 2 2-1.703 1.16-2.369.493-2-2z"/><path style="opacity:1" fill="#4a8d62" d="M149.5 59.5c2.642-.012 3.975 1.321 4 4-1.667-1-3-2.333-4-4z"/><path style="opacity:1" fill="#548e6a" d="M97.5 59.5c.215 1.679-.452 2.679-2 3-.073-1.527.594-2.527 2-3z"/><path style="opacity:1" fill="#577d5f" d="M86.5 58.5c-.493 2.319-1.493 4.319-3 6-.11-.617-.444-1.117-1-1.5 1.08-1.859 2.412-3.359 4-4.5z"/><path style="opacity:1" fill="#51805f" d="M133.5 61.5c1.406.473 2.073 1.473 2 3-1.406-.473-2.073-1.473-2-3z"/><path style="opacity:1" fill="#46825d" d="M153.5 63.5c1.406.473 2.073 1.473 2 3-1.406-.473-2.073-1.473-2-3z"/><path style="opacity:1" fill="#548666" d="M49.5 66.5c.073 1.527-.594 2.527-2 3-.215-1.679.452-2.679 2-3z"/><path style="opacity:1" fill="#517a63" d="M155.5 66.5c1.676.683 2.343 2.017 2 4-1.174-1.014-1.84-2.347-2-4z"/><path style="opacity:1" fill="#538267" d="M109.5 64.5c.958 1.802 1.625 3.802 2 6-1.808-1.418-2.475-3.418-2-6z"/><path style="opacity:1" fill="#498261" d="M67.5 66.5c-.184 2.837-1.518 4.837-4 6 .84-2.353 2.174-4.353 4-6z"/><path style="opacity:1" fill="#577a5e" d="M141.5 73.5c1.406.473 2.073 1.473 2 3-1.548-.321-2.215-1.321-2-3z"/><path style="opacity:1" fill="#6bab8d" d="M93.5 68.5c-1.128 4.458-1.128 9.125 0 14-1.266-2.395-1.932-5.062-2-8-.139-2.382.528-4.382 2-6z"/><path style="opacity:1" fill="#588068" d="M43.5 76.5c-.16 1.653-.826 2.986-2 4-.27-1.88.396-3.213 2-4z"/><path style="opacity:1" fill="#71b98e" d="M121.5 70.5a96.631 96.631 0 0 1 2 6.5 19.588 19.588 0 0 1-2 3.5v-10z"/><path style="opacity:1" fill="#518c6c" d="M163.5 81.5c-1.431-1.28-2.098-2.947-2-5 .577-1.273 1.243-1.273 2 0-.552 1.503-.552 3.17 0 5z"/><path style="opacity:1" fill="#618770" d="M83.5 66.5c-1.333 6-1.333 12 0 18-1.314-2.415-1.98-5.249-2-8.5l.5-8.5c.383-.556.883-.89 1.5-1z"/><path style="opacity:1" fill="#5a876f" d="M111.5 82.5c-.489 1.495-1.155 2.829-2 4-.343-1.983.324-3.317 2-4z"/><path style="opacity:1" fill="#5d8c6c" d="M145.5 79.5a35.68 35.68 0 0 1 4 7c-2.951-1.31-4.284-3.643-4-7z"/><path style="opacity:1" fill="#4c7c5c" d="M39.5 84.5c-.296 1.903-.962 3.57-2 5-.423-2.281.244-3.948 2-5z"/><path style="opacity:1" fill="#447e5d" d="M57.5 83.5c.215 1.679-.452 2.679-2 3 .432-1.21 1.099-2.21 2-3z"/><path style="opacity:1" fill="#568b6e" d="M94.5 86.5c2.413 1.18 3.413 3.18 3 6a609.785 609.785 0 0 1-3-6z"/><path style="opacity:1" fill="#548362" d="M149.5 86.5c.958 1.802 1.625 3.802 2 6-1.808-1.418-2.475-3.418-2-6z"/><path style="opacity:1" fill="#598b67" d="M109.5 87.5c-.968 2.6-2.301 4.934-4 7-.455-3.43.879-5.764 4-7z"/><path style="opacity:1" fill="#548063" d="M97.5 92.5c1.548.321 2.215 1.321 2 3-.901-.79-1.568-1.79-2-3z"/><path style="opacity:1" fill="#5d906e" d="M117.5 93.5a12.93 12.93 0 0 1-.5 5c-.278-.916-.778-1.582-1.5-2 .432-1.21 1.099-2.21 2-3z"/><path style="opacity:1" fill="#4e8968" d="M100.5 96.5c1.202.905 2.536.905 4 0-1.436 3.939-2.769 3.939-4 0z"/><path style="opacity:1" fill="#55856a" d="M51.5 96.5c.343 1.983-.324 3.317-2 4 .16-1.653.826-2.986 2-4z"/><path style="opacity:1" fill="#5a8c6d" d="M115.5 97.5c.215 1.679-.452 2.679-2 3 .432-1.21 1.099-2.21 2-3z"/><path style="opacity:1" fill="#608f72" d="M152.5 94.5c2.085 2.184 3.085 4.851 3 8-1.624-1.651-2.957-3.65-4-6 .363-.683.696-1.35 1-2z"/><path style="opacity:1" fill="#95bfa8" d="M169.5 96.5c2.415 2.84 3.748 6.173 4 10-2.415-2.84-3.748-6.173-4-10z"/><path style="opacity:1" fill="#62866b" d="M33.5 101.5c-.296 1.903-.962 3.57-2 5-.38-2.198.287-3.865 2-5z"/><path style="opacity:1" fill="#5c886c" d="M73.5 104.5c-1.802.958-3.802 1.625-6 2 1.418-1.808 3.418-2.475 6-2z"/><path style="opacity:1" fill="#6c9a7f" d="M87.5 106.5c-2.928-.065-5.595-.732-8-2 .06-.543.393-.876 1-1 2.516.83 4.85 1.83 7 3z"/><path style="opacity:1" fill="#5c8a6d" d="M133.5 104.5c2.198-.38 3.865.287 5 2-2.053.098-3.72-.569-5-2z"/><path style="opacity:1" fill="#558064" d="M141.5 107.5c-1.291.237-2.291-.096-3-1 .996.086 1.829-.248 2.5-1 .464.594.631 1.261.5 2z"/><path style="opacity:1" fill="#528e67" d="M155.5 102.5c.958 1.802 1.625 3.802 2 6-1.808-1.418-2.475-3.418-2-6z"/><path style="opacity:1" fill="#637566" d="M62.5 108.5c-.79.901-1.79 1.568-3 2 .321-1.548 1.321-2.215 3-2z"/><path style="opacity:1" fill="#568266" d="M109.5 107.5a2.428 2.428 0 0 0 .5 2c.671-.752 1.504-1.086 2.5-1a54.53 54.53 0 0 0-6.5 6c-.864-3.313.302-5.646 3.5-7z"/><path style="opacity:1" fill="#748079" d="M31.5 109.5a68.024 68.024 0 0 1-2 7c-.51-2.888.157-5.221 2-7z"/><path style="opacity:1" fill="#60836f" d="M96.5 108.5c4.236 6.66 3.569 7.327-2 2 1-.333 1.667-1 2-2z"/><path style="opacity:1" fill="#019101" d="M73.5 114.5c7.403-.409 13.903 2.258 19.5 8 .667 1.667.667 3.333 0 5-12.206 9.905-23.706 9.072-34.5-2.5 4.364-4.506 9.364-8.006 15-10.5z"/><path style="opacity:1" fill="#059105" d="M131.5 114.5c.787 1.604 2.12 2.271 4 2 .787 1.604 2.12 2.271 4 2 1 .333 1.667 1 2 2-.107 1.879.393 2.212 1.5 1a12.93 12.93 0 0 1 .5 5 119.872 119.872 0 0 0-5 4c-2.981-.318-5.315.682-7 3-3.808 1.373-7.474 1.04-11-1-.845-2.262-2.178-2.929-4-2a38.816 38.816 0 0 1-6.5-5c-.667-.667-.667-1.333 0-2 5.755-6.396 12.921-9.396 21.5-9z"/><path style="opacity:1" fill="#59856b" d="M131.5 114.5c1.653.16 2.986.826 4 2-1.88.271-3.213-.396-4-2z"/><path style="opacity:1" fill="#7cad8d" d="M173.5 109.5c1.424 2.015 2.09 4.348 2 7-1.424-2.015-2.09-4.348-2-7z"/><path style="opacity:1" fill="#598069" d="M135.5 116.5c1.653.16 2.986.826 4 2-1.88.271-3.213-.396-4-2z"/><path style="opacity:1" fill="#587f68" d="M157.5 109.5c1.531 4.75 2.198 9.75 2 15h-1c-1.1-1.105-1.767-2.438-2-4 .982-3.462 1.315-7.129 1-11z"/><path style="opacity:1" fill="#4e805d" d="M52.5 116.5a26.695 26.695 0 0 1-5 7c.17-1.322-.163-2.489-1-3.5l4-2-1-1a4.934 4.934 0 0 1 3-.5z"/><path style="opacity:1" fill="#98c0a5" d="M141.5 120.5c5.862.166 6.529 2.166 2 6a12.93 12.93 0 0 0-.5-5c-1.107 1.212-1.607.879-1.5-1z"/><path style="opacity:1" fill="#049104" d="M158.5 124.5h1c.166 8.338-1.167 16.338-4 24-1.548.321-2.215 1.321-2 3-1.75 1.159-2.75 2.826-3 5-2 0-3 1-3 3-6.841 5.458-14.508 6.958-23 4.5a6.978 6.978 0 0 1-2.5-3.5c-1.113 1.211-2.28 1.211-3.5 0a37.424 37.424 0 0 0-7.5-7c-2.597-3.953-3.431-8.12-2.5-12.5-1.256-.417-1.923-1.25-2-2.5.838-.342 1.172-1.008 1-2 2.938 3.303 6.605 5.303 11 6 1.897 1.305 4.231 1.971 7 2 2.525-.003 4.859-.337 7-1 6.355-1.123 12.022-3.789 17-8 2.78-3.921 5.78-7.587 9-11z"/><path style="opacity:1" fill="#6faf81" d="M29.5 119.5v14c-2.667-4.667-2.667-9.333 0-14z"/><path style="opacity:1" fill="#029102" d="m45.5 126.5 4 3c.667 2.667 2.333 4.333 5 5 2.66 4.658 6.66 7.325 12 8 1.135 1.713 2.802 2.38 5 2 8.996 1.472 16.996-.528 24-6 .978.311 1.644.978 2 2a5636.74 5636.74 0 0 0-4 13 51.186 51.186 0 0 1-8 5.5c.916.278 1.582.778 2 1.5h-1c-1.679-.215-2.679.452-3 2-1.679-.215-2.679.452-3 2h-16c-1.527.073-2.527-.594-3-2-1.734-2.7-4.068-4.7-7-6-.667 0-1-.333-1-1 .215-1.679-.452-2.679-2-3 .11-.617.444-1.117 1-1.5-1.587-2.406-3.253-4.572-5-6.5a68.948 68.948 0 0 1-2-18z"/><path style="opacity:1" fill="#508765" d="M45.5 124.5h1a11.743 11.743 0 0 1 3 5l-4-3v-2z"/><path style="opacity:1" fill="#538265" d="M120.5 132.5c-1.88.271-3.213-.396-4-2 1.822-.929 3.155-.262 4 2z"/><path style="opacity:1" fill="#619170" d="M49.5 129.5c2 1.333 3.667 3 5 5-2.667-.667-4.333-2.333-5-5z"/><path style="opacity:1" fill="#527d64" d="M138.5 130.5c-1.926 1.793-4.259 2.793-7 3 1.685-2.318 4.019-3.318 7-3z"/><path style="opacity:1" fill="#597361" d="M107.5 136.5c.172.992-.162 1.658-1 2 .086-.996-.248-1.829-1-2.5.937-.692 1.603-.525 2 .5z"/><path style="opacity:1" fill="#5f8c6e" d="M66.5 142.5c1.903.296 3.57.963 5 2-2.198.38-3.865-.287-5-2z"/><path style="opacity:1" fill="#7fa58f" d="M118.5 142.5a53.805 53.805 0 0 0 14 1c-2.141.663-4.475.997-7 1-2.769-.029-5.103-.695-7-2z"/><path style="opacity:1" fill="#568368" d="M29.5 140.5c1.86 3.743 3.193 7.743 4 12-1.443-.835-2.443-2.168-3-4a16.868 16.868 0 0 1-1-8z"/><path style="opacity:1" fill="#527e63" d="M93.5 153.5a5636.74 5636.74 0 0 1 4-13c-.356-1.022-1.022-1.689-2-2a10.51 10.51 0 0 1 2.5-3c1.293 6.829-.207 12.829-4.5 18z"/><path style="opacity:1" fill="#4b8765" d="M47.5 144.5c1.747 1.928 3.413 4.094 5 6.5-.556.383-.89.883-1 1.5-1.843-2.353-3.177-5.02-4-8z"/><path style="opacity:1" fill="#577a63" d="M155.5 148.5c-.432 1.21-1.099 2.21-2 3-.215-1.679.452-2.679 2-3z"/><path style="opacity:1" fill="#5f846b" d="M173.5 146.5c.38 2.198-.287 3.865-2 5 .296-1.903.963-3.57 2-5z"/><path style="opacity:1" fill="#497b59" d="M51.5 152.5c1.548.321 2.215 1.321 2 3-1.406-.473-2.073-1.473-2-3z"/><path style="opacity:1" fill="#629877" d="M93.5 153.5c-1.257 2.927-3.257 5.261-6 7-.418-.722-1.084-1.222-2-1.5a51.186 51.186 0 0 0 8-5.5z"/><path style="opacity:1" fill="#658769" d="M150.5 156.5a6.547 6.547 0 0 1-3 3c0-2 1-3 3-3z"/><path style="opacity:1" fill="#538c6c" d="M54.5 156.5c2.932 1.3 5.266 3.3 7 6a30.126 30.126 0 0 1-6-3.5c-.752-.671-1.086-1.504-1-2.5z"/><path style="opacity:1" fill="#508266" d="M86.5 160.5c-.473 1.406-1.473 2.073-3 2 .321-1.548 1.321-2.215 3-2z"/><path style="opacity:1" fill="#5b906f" d="M169.5 157.5c.438-.065.772.101 1 .5-.783 2.118-2.116 3.618-4 4.5.763-1.868 1.763-3.535 3-5z"/><path style="opacity:1" fill="#4e8367" d="M83.5 162.5c-.79.901-1.79 1.568-3 2 .321-1.548 1.321-2.215 3-2z"/><path style="opacity:1" fill="#5f8b6e" d="M64.5 164.5h15c-1.79 1.497-3.956 2.164-6.5 2-3.116.011-5.949-.655-8.5-2z"/><path style="opacity:1" fill="#467a57" d="M165.5 164.5c.215 1.679-.452 2.679-2 3 .432-1.21 1.099-2.21 2-3z"/><path style="opacity:1" fill="#4c8365" d="M41.5 168.5c1 .333 1.667 1 2 2-1.703 1.16-2.37.493-2-2z"/><path style="opacity:1" fill="#478763" d="M163.5 167.5c.215 1.679-.452 2.679-2 3-.073-1.527.594-2.527 2-3z"/><path style="opacity:1" fill="#206f32" d="M3.5 169.5c1.808 1.418 2.475 3.418 2 6-1.238-1.714-1.905-3.714-2-6z"/><path style="opacity:1" fill="#fdfdfd" d="m-.5 168.5 2 5c.475 3.584 1.475 6.917 3 10 3.648 14.304 10.648 26.637 21 37 13.214 15.115 29.547 25.449 49 31a6541.5 6541.5 0 0 1 17 4h-92v-87z"/><path style="opacity:1" fill="#fdfcfc" d="M204.5 168.5v87h-95a112.54 112.54 0 0 0 22-5h1c9.074-2.705 17.407-6.705 25-12 23.164-14.17 37.831-34.503 44-61a45.733 45.733 0 0 0 3-9z"/><path style="opacity:1" fill="#558365" d="M81.5 178.5c-.683 1.676-2.017 2.343-4 2 1.171-.845 2.505-1.511 4-2z"/><path style="opacity:1" fill="#b7e1cf" d="M56.5 180.5h19c-.672.767-1.505 1.434-2.5 2-4.717-.071-9.55-.238-14.5-.5-.916-.278-1.583-.778-2-1.5z"/><path style="opacity:1" fill="#618f74" d="M114.5 174.5c-.891.761-1.558 1.761-2 3a15.418 15.418 0 0 1 1 7c-1.266-2.395-1.932-5.062-2-8-.486-4.22.514-4.887 3-2z"/><path style="opacity:1" fill="#6d9979" d="M93.5 178.5c-1.051 3.156-1.051 6.156 0 9-.997 1.213-1.997 1.046-3-.5a33.995 33.995 0 0 0 1.5-7.5c.383-.556.883-.889 1.5-1z"/><path style="opacity:1" fill="#39634b" d="M11.5 192.5a20.236 20.236 0 0 0 4 4c-.342.838-1.008 1.172-2 1-1.713-1.135-2.38-2.802-2-5z"/><path style="opacity:1" fill="#8aaf9b" d="M32.5 195.5a61.283 61.283 0 0 0-15 1c2.07-1.309 4.57-1.975 7.5-2 2.69.003 5.19.336 7.5 1z"/><path style="opacity:1" fill="#f3f8f5" d="M190.5 195.5c-.205 4.095-1.871 7.762-5 11-2.807-1.157-5.474-1.157-8 0a186.053 186.053 0 0 1-29 10 68.673 68.673 0 0 1-23 0c0-.667-.333-1-1-1l-6-3c-2.053.098-3.72-.569-5-2-1.014-1.174-2.347-1.84-4-2-1.79-1.497-3.956-2.164-6.5-2-2.544-.164-4.71.503-6.5 2a5.727 5.727 0 0 0-3 1l-2 1a22.572 22.572 0 0 1-8 4 365.283 365.283 0 0 0-6 3c-5.81.99-11.81 1.323-18 1-1.714-1.238-3.714-1.905-6-2a42.41 42.41 0 0 1-12-4c-1.43-1.037-3.097-1.704-5-2-2.088-1.439-4.421-2.106-7-2-2.896-1.275-5.896-1.275-9 0a61.723 61.723 0 0 1-7-11c.992.172 1.658-.162 2-1h2a61.283 61.283 0 0 1 15-1c7.258 1.804 14.091 4.47 20.5 8 .914-1.154 1.747-.987 2.5.5a77.459 77.459 0 0 1 12 2.5c4.97-1.099 9.637-2.766 14-5 1.934-.61 3.6-1.61 5-3 1.653-.16 2.986-.826 4-2 6.505-1.91 13.172-2.41 20-1.5 6.46 2.73 12.793 5.73 19 9l9 .5c5.578.785 10.411-.548 14.5-4l1 1a53.558 53.558 0 0 1 12.5-5c1.903-.296 3.57-.963 5-2 5.924-.951 11.757-1.284 17.5-1 .278.916.778 1.582 1.5 2z"/><path style="opacity:1" fill="#60866e" d="M171.5 194.5c-1.43 1.037-3.097 1.704-5 2 1.135-1.713 2.802-2.38 5-2z"/><path style="opacity:1" fill="#427757" d="M90.5 196.5c-1.014 1.174-2.347 1.84-4 2 .787-1.604 2.12-2.271 4-2z"/><path style="opacity:1" fill="#528867" d="M86.5 198.5c-1.4 1.39-3.066 2.39-5 3 .9-2.227 2.567-3.227 5-3z"/><path style="opacity:1" fill="#10120e" d="M4.5 183.5h3c.437 1.574 1.437 2.741 3 3.5-1.239 2.118-.905 3.951 1 5.5-.38 2.198.287 3.865 2 5a61.723 61.723 0 0 0 7 11c0 .667.333 1 1 1a23.578 23.578 0 0 1 4 6v5c-10.352-10.363-17.352-22.696-21-37z"/><path style="opacity:1" fill="#7dae93" d="M109.5 208.5c-4.371-1.038-8.705-1.038-13 0 1.79-1.497 3.956-2.164 6.5-2 2.544-.164 4.71.503 6.5 2z"/><path style="opacity:1" fill="#009100" d="M177.5 206.5c5.872-.688 6.872.812 3 4.5a2.428 2.428 0 0 0 2 .5c-5.404 5.916-11.404 12.083-18 18.5-40.311 28.119-81.31 28.452-123 1a103.504 103.504 0 0 1-14-15 2.429 2.429 0 0 0-2-.5 23.578 23.578 0 0 0-4-6 24.93 24.93 0 0 1 8-1c2.579-.106 4.912.561 7 2 1.135 1.713 2.802 2.38 5 2a42.41 42.41 0 0 0 12 4 2.427 2.427 0 0 0 .5 2c1.626-.354 3.459-.354 5.5 0 6.19.323 12.19-.01 18-1a17.759 17.759 0 0 0 7-1.5c-.556-.383-.89-.883-1-1.5a22.572 22.572 0 0 0 8-4c.801 2.293 1.468 1.96 2-1a5.727 5.727 0 0 1 3-1c4.295-1.038 8.629-1.038 13 0 .683 1.676 2.017 2.343 4 2 1.28 1.431 2.947 2.098 5 2 .437 1.574 1.437 2.741 3 3.5 1.249.74 2.249.573 3-.5.667 0 1 .333 1 1 .418.722 1.084 1.222 2 1.5a100.2 100.2 0 0 0 20 0c.556-.383.889-.883 1-1.5a186.053 186.053 0 0 0 29-10z"/><path style="opacity:1" fill="#4a7963" d="M29.5 208.5a24.93 24.93 0 0 0-8 1c-.667 0-1-.333-1-1 3.104-1.275 6.104-1.275 9 0z"/><path style="opacity:1" fill="#4d7e5e" d="M109.5 208.5c1.653.16 2.986.826 4 2-1.983.343-3.317-.324-4-2z"/><path style="opacity:1" fill="#4a8366" d="M177.5 206.5c2.526-1.157 5.193-1.157 8 0a18.924 18.924 0 0 1-3 5 2.428 2.428 0 0 1-2-.5c3.872-3.688 2.872-5.188-3-4.5z"/><path style="opacity:1" fill="#487f5d" d="M93.5 209.5c-.532 2.96-1.199 3.293-2 1l2-1z"/><path style="opacity:1" fill="#578466" d="M36.5 210.5c1.903.296 3.57.963 5 2-2.198.38-3.865-.287-5-2z"/><path style="opacity:1" fill="#3d7e5a" d="m118.5 212.5 6 3c-.751 1.073-1.751 1.24-3 .5-1.563-.759-2.563-1.926-3-3.5z"/><path style="opacity:1" fill="#528d67" d="M83.5 214.5c.11.617.444 1.117 1 1.5a17.759 17.759 0 0 1-7 1.5 365.283 365.283 0 0 1 6-3z"/><path style="opacity:1" fill="#28281f" d="M157.5 238.5c-7.593 5.295-15.926 9.295-25 12-.111-.617-.444-1.117-1-1.5a449.07 449.07 0 0 0 26-10.5z"/><path style="opacity:1" fill="#193021" d="M201.5 166.5v11c-6.169 26.497-20.836 46.83-44 61a449.07 449.07 0 0 1-26 10.5c.556.383.889.883 1 1.5h-1a1273.39 1273.39 0 0 0-27 2c-7.91.062-15.743-.605-23.5-2-2.36.004-4.527.337-6.5 1-19.453-5.551-35.786-15.885-49-31v-5a2.429 2.429 0 0 1 2 .5 103.504 103.504 0 0 0 14 15c41.69 27.452 82.689 27.119 123-1 6.596-6.417 12.596-12.584 18-18.5a18.924 18.924 0 0 0 3-5c3.129-3.238 4.795-6.905 5-11a81.316 81.316 0 0 1 3-2.5l-1-1a6.978 6.978 0 0 0 2.5-3.5 267.507 267.507 0 0 0 6.5-22z"/><path style="opacity:1" fill="#74a084" d="M125.5 216.5a68.673 68.673 0 0 0 23 0c-.111.617-.444 1.117-1 1.5a100.2 100.2 0 0 1-20 0c-.916-.278-1.582-.778-2-1.5z"/><path style="opacity:1" fill="#658f73" d="M53.5 216.5c2.286.095 4.286.762 6 2-2.041-.354-3.874-.354-5.5 0a2.427 2.427 0 0 1-.5-2z"/><path style="opacity:1" fill="#292a28" d="M74.5 251.5c1.973-.663 4.14-.996 6.5-1a126.871 126.871 0 0 0 23.5 2 1273.39 1273.39 0 0 1 27-2 112.54 112.54 0 0 1-22 5h-18a6541.5 6541.5 0 0 0-17-4z"/></svg>