<svg xmlns="http://www.w3.org/2000/svg" width="590" height="663" style="shape-rendering:geometricPrecision;text-rendering:geometricPrecision;image-rendering:optimizeQuality;fill-rule:evenodd;clip-rule:evenodd"><path style="opacity:.984" fill="#1d181c" d="M11.5 11.5h566c.167 122 0 244-.5 366-7.164 97.206-50.997 172.706-131.5 226.5-72.346 43.62-149.346 54.287-231 32C131.257 609.761 71.424 556.928 35 477.5c-13.652-31.942-21.319-65.275-23-100-.5-122-.667-244-.5-366z"/><path style="opacity:1" fill="#e1001a" d="M544.5 477.5a3539.447 3539.447 0 0 1-1-119 18.33 18.33 0 0 0 4-6c.991-6.813 1.325-13.813 1-21h-19v-216a106.308 106.308 0 0 1 8.5-9c.5-19.664.667-39.33.5-59-10.339-.166-20.672 0-31 .5l-9 5.5a121.86 121.86 0 0 0-1 22h-5v-28c-10.672-.166-21.339 0-32 .5a91.662 91.662 0 0 1-10 5.5 121.86 121.86 0 0 0-1 22h-5v-28c-10.672-.166-21.339 0-32 .5A713.057 713.057 0 0 0 390 59.5a624.938 624.938 0 0 0 0 50c2.364 3.19 4.864 6.19 7.5 9v100h-27a676.419 676.419 0 0 0-1-52h-41v-56h-68v56h-41a676.419 676.419 0 0 0-1 52h-27v-100c2.636-2.81 5.136-5.81 7.5-9a624.938 624.938 0 0 0 0-50A713.057 713.057 0 0 0 176.5 48a512.462 512.462 0 0 0-32-.5v28h-5a121.86 121.86 0 0 0-1-22 91.662 91.662 0 0 1-10-5.5 512.462 512.462 0 0 0-32-.5v28h-5a121.87 121.87 0 0 0-1-22l-9-5.5a480.952 480.952 0 0 0-31-.5c-.167 19.67 0 39.336.5 59a106.34 106.34 0 0 1 8.5 9v216h-19c-.325 7.187.009 14.187 1 21a18.34 18.34 0 0 0 4 6c.332 39.837-.001 79.504-1 119-13.789-30.49-21.622-62.49-23.5-96a65157.42 65157.42 0 0 1-.5-361h548c.167 120.334 0 240.667-.5 361-1.874 33.494-9.707 65.494-23.5 96z"/><path style="opacity:1" fill="#fefefe" d="M55.5 53.5h21c-.327 9.182.007 18.182 1 27h24v-27h22c-.327 9.182.007 18.182 1 27h25v-27h22v46h-116v-46z"/><path style="opacity:1" fill="#636163" d="M55.5 53.5c7.148-.992 14.48-1.325 22-1v28c-.993-8.818-1.327-17.818-1-27h-21z"/><path style="opacity:1" fill="#8c8a8c" d="M101.5 53.5c7.482-.992 15.148-1.325 23-1v28c-.993-8.818-1.327-17.818-1-27h-22z"/><path style="opacity:1" fill="#605e60" d="M149.5 53.5c7.482-.992 15.148-1.325 23-1a552.804 552.804 0 0 1-1 47v-46h-22zM439.5 53.5h-22v46a552.804 552.804 0 0 1-1-47c7.852-.325 15.518.008 23 1z"/><path style="opacity:1" fill="#fefefe" d="M439.5 53.5v27h25c.993-8.818 1.327-17.818 1-27h22v27h24c.993-8.818 1.327-17.818 1-27h21v46h-116v-46h22z"/><path style="opacity:1" fill="#8c8a8c" d="M487.5 53.5h-22c.327 9.182-.007 18.182-1 27v-28c7.852-.325 15.518.008 23 1z"/><path style="opacity:1" fill="#636163" d="M533.5 53.5h-21c.327 9.182-.007 18.182-1 27v-28c7.519-.325 14.852.008 22 1z"/><path style="opacity:1" fill="#f2f2f2" d="M129.5 55.5c1.67.251 3.17.918 4.5 2 .499 5.99.666 11.99.5 18h-5v-20z"/><path style="opacity:1" fill="#535154" d="M178.5 55.5a507.055 507.055 0 0 0-1 45c-1.326-15.172-1.326-30.505 0-46 .607.124.94.457 1 1z"/><path style="opacity:1" fill="#f7f7f7" d="M178.5 55.5c1.67.251 3.17.918 4.5 2 .168 9.018.668 18.018 1.5 27 .917.627 1.917.96 3 1 .06.543.393.876 1 1 .667-8.49 1.333-16.824 2-25a5.577 5.577 0 0 1 3 1 463.088 463.088 0 0 1 1 43 83.032 83.032 0 0 1-17-5 507.055 507.055 0 0 1 1-45z"/><path style="opacity:1" fill="#f8f8f8" d="M410.5 55.5a507.055 507.055 0 0 1 1 45 248.365 248.365 0 0 1-17 5 463.088 463.088 0 0 1 1-43 5.577 5.577 0 0 1 3-1c.993 8.15 1.326 16.483 1 25 1.291.237 2.291-.096 3-1 .65-.304 1.317-.637 2-1a366.656 366.656 0 0 0 1.5-27 9.175 9.175 0 0 1 4.5-2z"/><path style="opacity:1" fill="#535154" d="M410.5 55.5c.06-.543.393-.876 1-1 1.326 15.495 1.326 30.828 0 46a507.055 507.055 0 0 0-1-45z"/><path style="opacity:1" fill="#f2f2f2" d="M457.5 55.5c1.959 6.25 2.626 12.916 2 20h-5c-.166-6.01.001-12.01.5-18 .995-.566 1.828-1.233 2.5-2z"/><path style="opacity:1" fill="#fbfbfb" d="M82.5 55.5a18.492 18.492 0 0 1 3.5 2c.5 5.99.666 11.99.5 18h-4v-20z"/><path style="opacity:1" fill="#fafafa" d="M504.5 55.5c1.959 6.25 2.626 12.916 2 20h-4c-.166-6.01.001-12.01.5-18 .717-.544 1.217-1.21 1.5-2z"/><path style="opacity:1" fill="#c0bfc0" d="M190.5 61.5c-.667 8.176-1.333 16.51-2 25-.607-.124-.94-.457-1-1 .667-8.176 1.333-16.51 2-25 .607.124.94.457 1 1z"/><path style="opacity:1" fill="#c1c0c1" d="M398.5 61.5c.06-.543.393-.876 1-1 .351 8.707 1.351 17.04 3 25-.709.904-1.709 1.237-3 1 .326-8.517-.007-16.85-1-25z"/><path style="opacity:1" fill="#525053" d="M168.5 106.5a1513.378 1513.378 0 0 0-110 0c-.543-.06-.876-.393-1-1a1568.892 1568.892 0 0 1 112 0c-.124.607-.457.94-1 1zM530.5 106.5a1513.378 1513.378 0 0 0-110 0c-.543-.06-.876-.393-1-1a1568.892 1568.892 0 0 1 112 0c-.124.607-.457.94-1 1z"/><path style="opacity:1" fill="#f5f4f5" d="M58.5 106.5a1513.378 1513.378 0 0 1 110 0c-.641.982-1.307 1.982-2 3-35 1.333-70 1.333-105 0-.688-1.355-1.688-2.355-3-3zM530.5 106.5c-1.312.645-2.312 1.645-3 3-35 1.333-70 1.333-105 0a185.977 185.977 0 0 1-2-3 1513.378 1513.378 0 0 1 110 0z"/><path style="opacity:1" fill="#f2f2f2" d="M174.5 106.5a71.522 71.522 0 0 1 16 4.5 13.271 13.271 0 0 1-5 5.5 86.49 86.49 0 0 0-12-4.5 3.647 3.647 0 0 1-1-1.5c1.13-1.122 1.797-2.456 2-4z"/><path style="opacity:1" fill="#eee" d="M408.5 106.5c3.693-.556 6.36.778 8 4-4.514 3.228-9.514 4.728-15 4.5a13.92 13.92 0 0 1-3-4 218.641 218.641 0 0 1 10-4.5z"/><path style="opacity:1" fill="#7a0c1b" d="M59.5 115.5c1 72.165 1.333 144.498 1 217h-19v20c-.991-6.813-1.325-13.813-1-21h19v-216z"/><path style="opacity:1" fill="#fefefe" d="M65.5 116.5h98v169c-6.522-.323-12.855.01-19 1v45h-79v-215z"/><path style="opacity:1" fill="#c1c0c1" d="M65.5 116.5c32.83-.998 65.829-1.332 99-1v171h-20c6.145-.99 12.478-1.323 19-1v-169h-98z"/><path style="opacity:1" fill="#c5c4c5" d="M323.5 171.5a756.853 756.853 0 0 1-1-55h-56a756.853 756.853 0 0 1-1 55v-56h58v56z"/><path style="opacity:1" fill="#fdfdfd" d="M323.5 171.5h41v53h43v67h32v70h98c.167 43.668 0 87.335-.5 131-22.631 40.966-53.298 74.632-92 101l-1-146c-7.743-77.03-46.577-131.863-116.5-164.5a154.469 154.469 0 0 0-34-10.5c-69.804 18.969-116.638 62.636-140.5 131-6.528 24.56-9.528 49.56-9 75L123.5 499l20.5 20.5c.667 24.667.667 49.333 0 74-38.702-26.368-69.369-60.034-92-101-.5-43.665-.667-87.332-.5-131h98v-70h32v-67h43v-53h41a756.853 756.853 0 0 0 1-55h56a756.853 756.853 0 0 0 1 55z"/><path style="opacity:1" fill="#c1c0c1" d="M523.5 116.5h-98v169c6.522-.323 12.855.01 19 1h-20v-171c33.171-.332 66.171.002 99 1z"/><path style="opacity:1" fill="#fefefe" d="M523.5 116.5v215h-79v-45c-6.145-.99-12.478-1.323-19-1v-169h98z"/><path style="opacity:1" fill="#7a0c1b" d="M529.5 115.5v216h19c.325 7.187-.009 14.187-1 21v-20h-19a11770.92 11770.92 0 0 1 1-217z"/><path style="opacity:1" fill="#c5c4c5" d="M171.5 117.5a7058.311 7058.311 0 0 0-1 168h-1c-.333-56.337 0-112.671 1-169 .607.124.94.457 1 1z"/><path style="opacity:1" fill="#fefefe" d="M171.5 117.5a168.368 168.368 0 0 0 14 4v98h-9a1089.684 1089.684 0 0 0-1 66h-5a7058.311 7058.311 0 0 1 1-168zM416.5 117.5a3528.558 3528.558 0 0 1 2 168h-5c.331-22.173-.003-44.173-1-66h-9c-.333-32.673 0-65.34 1-98 3.95-1.539 7.95-2.872 12-4z"/><path style="opacity:1" fill="#c5c4c5" d="M416.5 117.5c.709-.904 1.709-1.237 3-1v169h-1a3528.558 3528.558 0 0 0-2-168z"/><path style="opacity:1" fill="#646265" d="M108.5 148.5v42h13v-42a462.903 462.903 0 0 1 1 43h-15a462.903 462.903 0 0 1 1-43z"/><path style="opacity:1" fill="#19171a" d="M108.5 148.5h13v42h-13v-42z"/><path style="opacity:1" fill="#646265" d="M467.5 148.5v42h13v-42a462.903 462.903 0 0 1 1 43h-15a462.903 462.903 0 0 1 1-43z"/><path style="opacity:1" fill="#19171a" d="M467.5 148.5h13v42h-13v-42zM286.5 201.5h16v47h-16v-47z"/><path style="opacity:1" fill="#920a1a" d="M191.5 118.5v100h27a676.419 676.419 0 0 1 1-52v53h-29c-.332-33.837.002-67.504 1-101zM397.5 118.5a2550.778 2550.778 0 0 1 1 101h-29v-53a676.419 676.419 0 0 1 1 52h27v-100z"/><path style="opacity:1" fill="#565457" d="M176.5 219.5v67c-2.559.302-4.893-.032-7-1h6c-.331-22.173.003-44.173 1-66zM412.5 219.5a1089.684 1089.684 0 0 1 1 66h6c-2.107.968-4.441 1.302-7 1v-67z"/><path style="opacity:1" fill="#646265" d="M121.5 290.5v-42h-13v42a462.903 462.903 0 0 1-1-43h15a462.903 462.903 0 0 1-1 43z"/><path style="opacity:1" fill="#19171a" d="M121.5 290.5h-13v-42h13v42z"/><path style="opacity:1" fill="#646265" d="M480.5 290.5v-42h-13v42a462.903 462.903 0 0 1-1-43h15a462.903 462.903 0 0 1-1 43z"/><path style="opacity:1" fill="#19171a" d="M480.5 290.5h-13v-42h13v42z"/><path style="opacity:1" fill="#f4f4f4" d="M292.5 277.5c60.942 15.782 104.775 52.116 131.5 109 9.591 22.697 14.591 46.364 15 71 .667 46.667.667 93.333 0 140a49.274 49.274 0 0 0-8 5 624.938 624.938 0 0 1 0-50c6-21.663 6-43.33 0-65 4.263-55.19-10.737-104.19-45-147-25.022-27.503-55.522-46.169-91.5-56-69.862 20.695-113.695 66.361-131.5 137a287.681 287.681 0 0 0-5 43l-8 8c-.963-83.611 35.537-144.445 109.5-182.5a334.606 334.606 0 0 1 33-12.5z"/><path style="opacity:1" fill="#f9e101" d="M300.5 291.5a441.579 441.579 0 0 1-1 42 17.858 17.858 0 0 0-5-5 55.05 55.05 0 0 0-6.5 6 308.717 308.717 0 0 1 .5-43 31.71 31.71 0 0 1 6-2c2.016.678 4.016 1.344 6 2z"/><path style="opacity:1" fill="#c3b007" d="M300.5 291.5c1.326 14.172 1.326 28.506 0 43-.607-.124-.94-.457-1-1a441.579 441.579 0 0 0 1-42z"/><path style="opacity:1" fill="#fce500" d="M325.5 301.5a50.548 50.548 0 0 1 12 6 704.916 704.916 0 0 1 .5 65 110.18 110.18 0 0 1-12-13c-.5-19.33-.667-38.664-.5-58z"/><path style="opacity:1" fill="#fee600" d="M251.5 371.5a992.742 992.742 0 0 1-1-63c3.937-2.307 7.937-4.64 12-7a561.343 561.343 0 0 1 .5 58 193.893 193.893 0 0 0-11.5 12z"/><path style="opacity:1" fill="#524a14" d="M250.5 308.5a992.742 992.742 0 0 0 1 63c-.06.543-.393.876-1 1-1.328-21.496-1.328-42.83 0-64z"/><path style="opacity:1" fill="#fee600" d="M224.5 326.5a650.602 650.602 0 0 1 1 51h-12v-40a85.693 85.693 0 0 1 11-11z"/><path style="opacity:1" fill="#c4b107" d="M224.5 326.5c.06-.543.393-.876 1-1a676.55 676.55 0 0 1 1 52h-1a650.602 650.602 0 0 0-1-51zM364.5 326.5a650.602 650.602 0 0 0-1 51h-1a676.55 676.55 0 0 1 1-52c.607.124.94.457 1 1z"/><path style="opacity:1" fill="#fee600" d="M364.5 326.5a85.693 85.693 0 0 1 11 11v40h-12a650.602 650.602 0 0 1 1-51z"/><path style="opacity:1" fill="#fefffe" d="M46.5 337.5h98v11h-98v-11z"/><path style="opacity:1" fill="#8b7d0e" d="M213.5 337.5v40h13c-4.47.986-9.137 1.319-14 1a420.766 420.766 0 0 1 1-41zM375.5 337.5a420.766 420.766 0 0 1 1 41c-4.863.319-9.53-.014-14-1h13v-40z"/><path style="opacity:1" fill="#fefffe" d="M444.5 337.5h98v11h-98v-11z"/><path style="opacity:1" fill="#e0001a" d="M293.5 338.5a2288.077 2288.077 0 0 1 81 80 2346.207 2346.207 0 0 1-40.5 41c-17.533-14.039-37.033-17.539-58.5-10.5a93.43 93.43 0 0 0-17 10.5 2586.1 2586.1 0 0 1-43-42.5 8636.468 8636.468 0 0 0 78-78.5z"/><path style="opacity:1" fill="#535154" d="M144.5 354.5c-31.504-.332-62.838.002-94 1-.543-.06-.876-.393-1-1 31.83-1.33 63.497-1.33 95 0zM444.5 354.5c31.503-1.33 63.169-1.33 95 0-.124.607-.457.94-1 1a2209.105 2209.105 0 0 0-94-1z"/><path style="opacity:1" fill="#b1afb1" d="M144.5 354.5c-15.319 1.333-30.985 1.999-47 2-15.837 0-31.504-.333-47-1a2209.108 2209.108 0 0 1 94-1zM444.5 354.5c31.504-.332 62.838.002 94 1-15.496.667-31.163 1-47 1-16.015-.001-31.681-.667-47-2z"/><path style="opacity:1" fill="#7d0c1b" d="M45.5 358.5a2443.901 2443.901 0 0 1 .5 121c-.717-.544-1.217-1.211-1.5-2a3540.774 3540.774 0 0 0 1-119zM543.5 358.5c-.332 39.837.001 79.504 1 119-.283.789-.783 1.456-1.5 2a2443.78 2443.78 0 0 1 .5-121z"/><path style="opacity:1" fill="#887a0f" d="M400.5 370.5v7h4c-1.419.951-3.085 1.284-5 1-.34-3.472-.007-6.139 1-8z"/><path style="opacity:1" fill="#8c7e0e" d="M184.5 377.5h4c.295-2.235-.039-4.235-1-6 .283-.789.783-1.456 1.5-2 .498 2.982.665 5.982.5 9-1.915.284-3.581-.049-5-1z"/><path style="opacity:1" fill="#f0d903" d="M187.5 371.5c.961 1.765 1.295 3.765 1 6h-4c.475-2.284 1.475-4.284 3-6z"/><path style="opacity:1" fill="#f4dd02" d="M400.5 370.5a36.077 36.077 0 0 1 4 7h-4v-7zM181.5 382.5c19.336-.167 38.67 0 58 .5l-18 18c-15.663.5-31.33.667-47 .5-.236-2.726.597-5.059 2.5-7l5 5a84.853 84.853 0 0 0 7.5-8 55.05 55.05 0 0 0-6-6.5c-.949-.617-1.782-.451-2.5.5-.47-1.077-.303-2.077.5-3z"/><path style="opacity:1" fill="#f2db02" d="M348.5 383.5a582.369 582.369 0 0 1 59-.5c.951.718 1.117 1.551.5 2.5-.718-.951-1.551-1.117-2.5-.5a55.05 55.05 0 0 0-6 6.5 84.853 84.853 0 0 0 7.5 8l5-5c1.903 1.941 2.736 4.274 2.5 7-16.003.167-32.003 0-48-.5a443.547 443.547 0 0 0-18-17.5z"/><path style="opacity:1" fill="#211c1b" d="M218.5 384.5c3.444 1.608 6.11 4.108 8 7.5a34.517 34.517 0 0 1-6.5 7.5 84.853 84.853 0 0 1-7.5-8c2.023-2.353 4.023-4.686 6-7z"/><path style="opacity:1" fill="#221f23" d="M95.5 384.5c20.88.042 30.38 10.375 28.5 31-5.445 13.944-15.611 19.444-30.5 16.5-12.313-5.449-17.813-14.949-16.5-28.5 3.017-9.516 9.184-15.849 18.5-19z"/><path style="opacity:1" fill="#231e1b" d="M368.5 384.5c3.244 1.571 5.911 3.905 8 7a3741.969 3741.969 0 0 0-7 8 24.992 24.992 0 0 1-7-7.5 65.372 65.372 0 0 1 6-7.5z"/><path style="opacity:1" fill="#221f23" d="M483.5 384.5c19.022-.144 28.522 9.19 28.5 28-4.454 15.988-14.954 22.488-31.5 19.5-15.921-8.096-20.088-20.262-12.5-36.5 4.089-5.285 9.256-8.952 15.5-11z"/><path style="opacity:1" fill="#dec905" d="M218.5 387.5c.934 1.068 1.268 2.401 1 4a8.43 8.43 0 0 1-4-.5 14.698 14.698 0 0 0 3-3.5z"/><path style="opacity:1" fill="#fee700" d="M405.5 388.5c.904.709 1.237 1.709 1 3a4.934 4.934 0 0 1-3-.5c.881-.708 1.547-1.542 2-2.5z"/><path style="opacity:1" fill="#d8c308" d="M181.5 387.5c.934 1.068 1.268 2.401 1 4a8.43 8.43 0 0 1-4-.5 14.698 14.698 0 0 0 3-3.5z"/><path style="opacity:1" fill="#e0cb04" d="M368.5 387.5c.934 1.068 1.268 2.401 1 4a8.43 8.43 0 0 1-4-.5 14.698 14.698 0 0 0 3-3.5z"/><path style="opacity:1" fill="#f3f3f3" d="M95.5 390.5c16.168-1.328 24.001 6.005 23.5 22-4.994 13.44-14.161 17.606-27.5 12.5-8.874-6.113-11.374-14.28-7.5-24.5 2.794-4.634 6.627-7.967 11.5-10z"/><path style="opacity:1" fill="#f4f4f4" d="M482.5 390.5c17.169-.999 25.002 7.001 23.5 24-5.073 11.285-13.573 15.118-25.5 11.5-12.457-8.667-14.123-19.001-5-31a785.54 785.54 0 0 0 7-4.5z"/><path style="opacity:1" fill="#1c191d" d="M95.5 396.5c12.421-1.575 18.255 3.758 17.5 16-5.151 9.625-12.318 11.458-21.5 5.5-5.041-8.526-3.708-15.693 4-21.5zM483.5 396.5c12.874-1.294 18.374 4.372 16.5 17-3.44 6.714-8.94 9.214-16.5 7.5-6.432-3.699-8.932-9.199-7.5-16.5 1.69-3.521 4.19-6.188 7.5-8z"/><path style="opacity:1" fill="#f6de02" d="M175.5 405.5h14a162.597 162.597 0 0 1-.5 18 29.964 29.964 0 0 1-7 6 38.929 38.929 0 0 0-5.5-5 91.123 91.123 0 0 1-1-19z"/><path style="opacity:1" fill="#d8c308" d="M212.5 405.5c4.772-.133 4.938 1.2.5 4a8.43 8.43 0 0 1-.5-4z"/><path style="opacity:1" fill="#ceba08" d="M371.5 406.5c1.419-.951 3.085-1.284 5-1 .262 1.478-.071 2.811-1 4a514.367 514.367 0 0 0-4-3z"/><path style="opacity:1" fill="#f5de02" d="M399.5 405.5h14a91.123 91.123 0 0 1-1 19l-6 5a55.05 55.05 0 0 1-6.5-6 162.597 162.597 0 0 1-.5-18z"/><path style="opacity:1" fill="#fee600" d="M211.5 420.5a1943.546 1943.546 0 0 1 43 43c-14.846 18.416-18.013 38.749-9.5 61a66.694 66.694 0 0 0 9.5 14.5 2346.207 2346.207 0 0 1-41 40.5c-27-26.333-53.667-53-80-80l78-79z"/><path style="opacity:1" fill="#fde500" d="M378.5 422.5c18.511 15.007 32.678 33.34 42.5 55 12.489 35.766 9.489 70.099-9 103a97.024 97.024 0 0 1-14.5 18c-20-19.333-39.667-39-59-59 18.639-25.413 18.639-50.746 0-76 13.355-13.687 26.688-27.354 40-41z"/><path style="opacity:1" fill="#038ed1" d="M288.5 450.5c29.034-1.455 48.2 11.545 57.5 39 4.157 30.881-8.343 51.381-37.5 61.5-24.381 4.558-43.215-3.609-56.5-24.5-12.425-28.566-5.925-51.732 19.5-69.5 5.515-2.889 11.181-5.055 17-6.5z"/><path style="opacity:1" fill="#1a191e" d="M289.5 456.5c27.88-1.955 45.38 10.712 52.5 38 1.432 28.685-11.735 46.185-39.5 52.5-8.308 1.248-16.308.248-24-3 23.117-.619 38.284-11.786 45.5-33.5 3.891-27.893-7.609-45.893-34.5-54z"/><path style="opacity:1" fill="#f6fbfd" d="M267.5 475.5a18.453 18.453 0 0 1 6 .5 3.943 3.943 0 0 1 1 2 57.55 57.55 0 0 0-7.5 10.5c-.825 8.129-.325 16.129 1.5 24-2.092-.061-3.592-1.061-4.5-3a70.181 70.181 0 0 1-3-13c-2.341 5.055-3.007 10.388-2 16a219.626 219.626 0 0 0 7.5 18c-3.83-.985-6.663-3.319-8.5-7-7.65-12.738-8.316-25.738-2-39 3.161-4.009 6.994-7.009 11.5-9z"/><path style="opacity:1" fill="#8d8b8d" d="M151.5 527.5a1225.063 1225.063 0 0 0-1 70c-1.329-23.503-1.329-47.17 0-71 .607.124.94.457 1 1z"/><path style="opacity:1" fill="#fdfdfd" d="M151.5 527.5c2.668 1.836 4.834 4.169 6.5 7 .667 22.667.667 45.333 0 68a100.813 100.813 0 0 0-7.5-5c-.331-23.506.002-46.839 1-70z"/><path style="opacity:1" fill="#e0001a" d="M257.5 543.5c21.208 16.182 43.875 18.349 68 6.5a126.282 126.282 0 0 0 8.5-6.5l59.5 59.5c-30.795 27.48-66.462 36.813-107 28-14.884-4.276-28.551-10.942-41-20a533.644 533.644 0 0 1-28-27 2283.786 2283.786 0 0 0 40-40.5z"/></svg>