<svg xmlns="http://www.w3.org/2000/svg" width="367.165" height="464.455"><path style="fill:#fff;stroke:#231f20;stroke-width:6.1152677500000001;stroke-linecap:round;stroke-linejoin:miter;stroke-miterlimit:4;stroke-opacity:1;stroke-dasharray:none;stroke-dashoffset:0" d="M3.058 3.058v280.608c0 103.126 80.528 177.731 180.525 177.731 99.996 0 180.525-74.605 180.525-177.73V3.056z"/><path style="fill:#231f20;fill-opacity:1;stroke:#231f20;stroke-width:1px;stroke-linecap:butt;stroke-linejoin:miter;stroke-opacity:1" d="m587.662 340.666-15.095.03c2.253-5.081 2.32-9.615 2.02-14.058.747-3.058-.601-4.367-3.778-.15-3.309 4.361-6.93 6.744-10.747 7.889-21.649 2.807-38.785-9.565-59.015.968-7.445 3.977-13.71 12.48-18.513 19.278-4.9 6.936-8.287 12.19-10.591 18.623-5.589 15.6 1.593 41.909 21.37 61.976l-33.57 34.57c-3.733-3.766-5.36-7.376-5.86-10.902-1.067-7.546.737-20.014 2.743-22.198 5.628 5.188 10.262 4.656 14.004-1-7.321.142-9.143-4.037-9.364-9.473-.14-3.445 3.301-5.085 2.3-7.952-1.203-3.443-2.075-6.896-2.439-10.583l8.619 2.061c-12.8-18.515-2.422-26.368-16.62-37.07 4.241-1.317 7.805-2.784 7.85-5.032-17.118-1.584-7.658-14.478-18.854-18.293-.171-6.61.693-14.86-2.55-16.084-5.5-2.075-9.895 2.569-15.728 4.02-1.064-.22-3.558-4.433-6.183-3.23-4.857 2.226-12.04 5.62-16.001 7.085-8.128 3.006-9.037 5.94-16.133 11.535-8.952 7.06-16.816 15.193-23.427 17.498-1.52 2.43-.278 9.127 4.237 11.026 5.434 2.286 12.475-.03 16.269 2.477-.159 1.671-.97 2.298-2.081 2.443l-3.378.884c-1.15.144-1.042 1.912-2.117 2.007-25.585 2.253-30.408-8.86-34.436-2.333-2.346 16.896 20.848 3.715 32.51 7.002-3.779 1.556-5.707 2.88-6.003 4.001-.81 3.234 3.08 4.05 4.378 6.043 1.242 1.908 2.053 3.762 1.624 5.46-19.74 2.963-20.924-2.9-26.46-.965-4.69 1.654-2.983 6.791-8.05 8.968 4.637.377 12.139-2.523 13.762 1.298-.35 4.547-8.782-.18-18.263 4.703-6.89-3.883-11.77-8.153-15.569-12.63-8.27-9.751-8.043-18.014-18.94-30.382.966-3.081 3.264-5.599 4.468-9.155 2.1-6.208 3.02-12.889 1.136-14.466-1.162-.972-.207-5.328-.913-6.573-1.882-3.321-6.357-6.263-11.815-6.346.246 3.7 1.191 6.225 3.544 12.454-.903.274-.745 3.665-1.648 6.862-.811 2.871-3.213 4.741-4.024 8.659-11.279-2.318-8.62-8.727-12.415-13.328-1.77-2.145-4.48-.922-6.638-2.648-.79-.632-.097-5.455-1.186-6.751-1.274-1.516-4.333.492-5.202-.017-4.698-2.752-10.308-4.579-13.912-3.67 4.548 2.813 5.534 5.117 6.9 7.475-3.643 3.422-2.79 4.863-.524 6.323 1.42.915 2.51 3.076 4.278 4.498 1.706 1.37 4.105 1.968 4.75 4.708 2.88 13.39 11.925 8.789 10.207 17.372-5.84 4.437-6.716-.036-9.931-.267-2.238-.16-3.788 2.866-5.962 3.278-1.806-2.139-3.28-3.406-4.506-4.027-4.572-2.317-5.713 4.34-7.891 8.283-1.59 1.73-3.035 4.04-3.231 11.343 2.322.122 5.971-3.004 8.16-2.618 1.445.255 1.357 4.235 3.03 3.868 1.093-.24 3.084-4.302 4.205-4.352 1.254-.057 3.363 3.722 4.538 3.538 2.69-.423 4.4-4.837 6.789-3.93 2.215.84 4.255 2.454 6.033 5.218.933 1.918.79 4.128-.029 6.524-1.024 2.991-5.58 2.381-7.946 5.739-1.45 2.056-.297 3.47-1.18 6.482-.934 3.18-3.893 7.958-5.095 10.04 13.816 2.843 13.443-6.257 24.075-6.798l1.932 3.297c4.996 4.317 7.82 16.353 13.35 23.152 3.807 4.678 8.56 8.552 15.158 10.857-.712 7.425-4.815 7.466-6.58 7.625-1.871.168-3.302-2.113-4.423-6.125-1.54 5.277-6.152 10.452 5.752 16.177-1.32 4.621-6.02 2.174-12.517-4.027-.11 7.475 1.099 11.913 3.064 14.613 4.29 5.895 10.235-2.322 17.32 4.96a19.45 19.45 0 0 1 1.885 2.287c-.385.515-2.179 1.027-2.552 1.535-5.76 7.854-9.884 14.97-14.39 22.31-3.47 5.651-8.582 8.254-13.427 14.612-4.15 5.446-7.906 16.087-15.735 21.236-3.082-2.968-3.983-6.9-9.758-6.279-.427-1.24-1.984-2.32-2.548-3.24-2.048-3.343-3.93-4.596-7.698-3.927-6.644-2.417-8.85-.95-11.913-.235 4.748 2.236 5.686 4.472 6.26 6.708-2.313 7.429 9.326 8.738 14.745 15.799-5.141 4.746-6.168 11.986-10.175 16.022-4.299 4.33-8.718 4.57-9.958 8.587-.846 2.738-.378 5.341 2.225 7.726.506 5.865 1.346 11.478 7.405 13.177-1.398-2.433-.943-3.993-1.517-5.671-.724-2.122-.158-3.162 2.333-2.966 14.19 1.112 4.154-19.177 17.69-19.37 7.217 4.976-3.08 17.224 4.927 25.57 2.526 7.96 5.05 8.765 7.576 11.44.495-3.674-1.124-7.363 1.564-11.327 6.348-9.361-2.916-27.013 3.76-28.154 1.858 1.669 2.786 3.471 6.794 3.85 3.32 2.517 3.793 4.465 4.887 6.537 1.212-2.224 2.384-4.497 1.735-8.941 4.965-6.305-2.418-16.69-1.235-17.98 10.255-3.195 20.461-7.689 30.572-14.709 1.12-.777 3.928-1.625 5.337-2.508 1.576-.988 1.755-2.019 3.002-3.044 2.46-2.022 7.846-5.855 11.276-9.38 2.241-2.302 3.262-4.033 4.19-6.066 1.579-3.46 1.585-2.818 4.64-6.805 7.876 4.206 10.648 17.325 16.589 14.843 2.639-.868 5.278.287 7.917 3.662L255.812 675.258c10.673 25.336 19.105 33.77 29.779 48.266l316.375-319.32-.658-75.847z" transform="translate(-236.95 -321.934)"/><path style="fill:#fff;stroke:#231f20;stroke-width:1px;stroke-linecap:butt;stroke-linejoin:miter;stroke-opacity:1" d="m503.245 425.339 26.878-26.878c-10.283 3.294-12.994 2.044-19.097 2.83 9.316-9.775 9.402-17.09 6.78-22.473-2.703-5.546-10.157-9.04-21.03-11.058-4.71-1.484-8.746.907-11.653 4.27-.902 1.069-1.619 2.288-2.181 3.788-4.151 11.073 3.378 35.639 20.303 49.52zM540.379 388.56l26.877-27.94c-4.43-1.742-16.115-.764-24.402-1.06 2.52 7.658 3.72 13.668 2.476 16.621l-7.073-4.95c1.594 9.321 2.413 15.544 2.122 17.328z" transform="translate(-236.95 -321.934)"/><path style="fill:#ed1c24;fill-opacity:1;stroke:#231f20;stroke-width:1px;stroke-linecap:butt;stroke-linejoin:miter;stroke-opacity:1" d="M429.863 360.09c5.251-2.958 13.262-8.024 9.725-25.11-4.33-1.44-7.113.146-10.615 2.29-6.497 5.083-6.523-2.625-13.8.12-2.218.47-4.776 1.507-7.619 3.019-3.938 2.631-7.423 2.38-11.02 4.693-10.159 6.534-19.458 18.903-29.267 24.36-3.24 1.567-4.127 2.78-4.191 3.81-.79 12.729 19.326 5.983 23.641 8.568 6.795.744 10.739.082 9.195 9.195-2.529 2.948-16.503 2.549-21.75 5.304.343.943-1.861 1.887 1.415 2.83 13.566-.731 32.784 6.028 40.67-2.3.144 7.977-12.875 4.981-22.28 6.013-4.64 1.258-7.476 4.59-11.729 6.018-3.598 1.209-9.776 2.252-15.153 2.305-4.932.05-9.022-.874-13.421-.274-4.228.578-7.762 1.746-9.738 4.152 8.345-1.804 10.956 1.761 19.8-.958-9.966 2.84-9.837 5.388-11.088 7.055-2.223 2.962-10.75-.747-14.966 3.113-1.59 1.456-2.063 5.197-4.533 6.704 2.837 2.696 8.408-1.136 11.67 1.768-2.52-.19-9.3 2.226-14.853 3.89-1.544-7.791 6.21-9.764 3.36-12.2-4.195-1.64-7.956-4.69-11.923-8.104-8.9-7.66-12.774-20.634-19.007-30.215-3.466-5.327-5.838-8.629-11.862-11.723-8.199-2.983-10.094-8.249-12.591-13.01-.247-1.911-2.61-3.322-5.567-4.284-6.16-2.004-3.04-11.883-7.481-2.864-3.325.448-4.987 1.51-5.478 3.004-.765 2.324 3.597 3.04 6.638 6.77 2.138 2.622 1.315 4.336 3.283 7.646 2.545 4.28 10.034 7.684 8.995 12.994-5.038 8.96-9.933.658-13.405 2.57-2.077 1.144-3.392 3.095-3.216 6.625-.445 4.134.93 6.448 3.17 7.897 4.13 2.672 4.835-9.797 15.22 5.188-.165.008.06 4.35-1.056 5.604-2.367 2.663-7.054 3.817-8.188 7.229-.82 2.469 1.023 1.515 2.878 4.142 1.529 2.165 4.65 3.05 6.879 1.647 4.038-2.541 7.168-9.766 6.913-10.488l1.107 5.057 2.174-.52c-1.336 3.976-1.823 7.103-.805 8.725 1.032-.276 1.645.077 4.468-2.886-1.983 6.457-1.07 11.224 2.605 14.38 1.655 1.818 2.309-.867 3.053-3.147 1.437 5.25.53 13.104 5.788 14.11l3.258 3.8c1.645-5.35-2.762-6.555-.37-12.868l3.303 16.29c.591 2.604 2.525 1.032 4.419 5.155l2.829-.353c.157 3.32-.168 5.605-.825 7.172-1.872 4.461-6.975 5.58-10.315 3.26 2.513 10.564 8.465 3.686 17.089.88 4.008-1.303 8.417-.136 13.679.889 8.238 3.274 11.749 2.767 17.152 4.42-5.751 1.781-13.157-2.356-18.372-2.487-4.708-.118-8.574.834-11.689 4.786 1.979-.14 4.56-1.787 5.699.171.332 2.401-3.742 5.977-10.473 10.262 6.991-.846 8.52 2.698 15.737-.884-2.191 5.658-10.445 6.896-13.615 10.61a76.223 76.223 0 0 0-3.811 3.596c-5.024 5.061-6.334 10.802-11.357 17.64-1.975 2.687-2.73 4.156-4.99 6.571-2.249 2.405-6.002 5.755-8.326 8.675-6.925 8.702-6.682 11.338-12.54 19.04-6.608 5.884-15.002 9.305-18.657 17.298l-4.17 7.208c-3.192 6.758-12.175 7.822-12.439 15.275.06 2.737 3.464 4.822 6.699 6.94 13.665 4.45 8.232-15.954 12.348-18.45 3.394-2.157 7.975-.146 12.506-5.106a21.038 21.038 0 0 0-1.371 6.345c-.134 2.177.216 4.305.397 6.459.506 5.99-4.655 13.255 3.803 17.61 2.924.698 4.641-.118 5.845-1.724 4.145-5.523-6.705-19.541.49-24.995 1.802-1.365 2.266-4.946 2.683-5.464 1.776.241-2.069 3.894 3.154 6.012 1.676.68 3.177 1.696 5.251 1.378 1.158-.178 4.404-.521 5.034-3.5 1.26-8.82-1.456-8.891-2.299-13.085.642-3.089 2.86-1.894 3.183-6.719 5.53-2.61 12.922 1.147 19.774-5.706l-4.074-2.398c7.333.006 11.223-.31 11.21-1.588-.012-1.27-7.327-2.96-3.922-5.515 12.659-.838 16.537-3.35 19.446-6.045-.358-2.736-13.72 1.489-9.19-2.796.617-2.464 16.391-.057 19.976-9.644-10.313 3.621-10.498 1.719-15.733 2.57 5.777-2.352 10.669.078 16.445-8.31 3.29-1.638 3.773 1.627 6.093 2.175 3.637.86 8.518 2.06 12.474.477l3.371-1.719c-.519 5.894.592 7.308 1.933 8.085 2.808-2.437 4.596-6.77 5.793-6.852 2.946-.204 1.25 11.217 4.463 12.51l18.744-19.804c1.419-1.667 2.545-4.94 2.582-6.494.288-12.109-2.608.522-5.133-3.605-.939-1.535-6.062-2.756-3.815-6.169 2.248-1.942 9.065-4.165 4.244-9.548-2.344-4.227-3.55-8.342-3.346-9.242.196-.867 1.702.429 4.76 4.29 5.167 2.656.842-9.762 4.005-13.076 1.33-1.394 3.453-2.334 6.959-2.484 2.76-.187 4.11-3.242 5.29-4.885 1.225-1.71 1.883-3.42 2.175-5.095 1.234-7.083-4.091-13.498-.746-16.19 4.296-.01 6.08 1.417 6.586 3.574.807 3.442-1.644 8.745-2.342 13.047.245 1.752.598-.41 3.304-2.686 4.916-4.136 6.044-16.804 10.488-15.88 2.004 1.73 5.423 14.469 6.012 10.432 2.208-11.674 2.038-17.648 1.299-21.195-1.247-5.974-1.992-8.062.034-12.89 2.03-7.634 3.021-21.816 2.549-31.641-.506-10.517-7.368-12.976-13.43-17.028.588-5.07 4.892 6.483 13.439-3.537-6.5-5.536-11.178-7.429-14.685-7.571-8.114-.329-10.851 6.055-13.608 3.681-1.094-.95-2.774-1.752 1.592-4.067z" transform="translate(-236.95 -321.934)"/><path style="fill:#fff;stroke:#231f20;stroke-width:1px;stroke-linecap:butt;stroke-linejoin:miter;stroke-opacity:1" d="m444.54 484.752 12.024-11.67c-4.234-4.903-8.666-10.795-12.045-11.42-2.522-.466-4.457 2.001-5.284 10.005-2.054 7.637.794 11.074 5.304 13.085z" transform="translate(-236.95 -321.934)"/><path style="fill:#231f20;fill-opacity:1;stroke:#231f20;stroke-width:1px;stroke-linecap:butt;stroke-linejoin:miter;stroke-opacity:1" d="M393.614 358.145c2.909-1.32 4.431-3.35 5.804-5.08 1.612-2.03 4.61-1.706 6.22-3.23l-.177-1.946-3.006.354c-.683-.34-.648-.783 1.945-1.592l7.073 1.238c.14 1.51-3.394.425-4.455 1.195-.79.573-1.19 1.488-.85 3.049 2.57 2.011 1.879 3.37 2.299 4.951-3.89 7.125-6.967.432-10.433.354-3.581 1.492-4.06 1.135-4.42.707zM414.833 361.151c-1.665 1.835-.79 1.515.353 1.945 1.806-2.596 9.476-3.307 12.729-7.337 1.713-2.124 1.374-6.504 2.655-10.345-.482-1.126-.529-3.823-1.636-2.697-.407.413-1.487 1.164-1.723 3.05.79 4.863.33 8.537-2.04 10.178-3.305 2.289-6.25 4.585-10.338 5.206zM402.278 395.809c.59-.327 1.179 1.661 1.768-1.591.52-6.283-.185-9.705-1.06-12.732-1.533-1.355-1.21-.237-.885 2.122 1.192 7.229.248 8.758.177 12.2zM388.663 373.529c-.917.841-2.092 1.771.353 1.945 4.025-1.959 4.232-.736 5.659-.53l-1.061 1.945c.375-.794 1.73-2.165 3.875-2.98 1.999-.758 4.845-.964 3.905-1.618-6.86-.568-9.483.452-12.731 1.238z" transform="translate(-236.95 -321.934)"/><path style="fill:#ed1c24;fill-opacity:1;stroke:#231f20;stroke-width:1px;stroke-linecap:butt;stroke-linejoin:miter;stroke-opacity:1" d="M372.395 400.23c-1.354 1.71 3.423 3.962 3.182 8.664 1.117-.035 3.047-.395 5.371-1.386 2.268-.966 3.672-3.062 7.538-4.98-2.18-1.828-10-1.775-16.091-2.298zM342.511 388.382c.884 3.006 1.768 4.29 2.652 4.951.97.89 3.171 1.078 6.003.905 2.576-.158 3.906-1.322 7.078-1.82 3.95-.621 9.782-.6 13.09-.853-15.986-.026-32.357-9.08-28.823-3.183z" transform="translate(-236.95 -321.934)"/><path style="fill:#231f20;fill-opacity:1;stroke:#231f20;stroke-width:1px;stroke-linecap:butt;stroke-linejoin:miter;stroke-opacity:1" d="M326.95 463.18c6.306-7.165 15.222-9.433 25.286-9.55-5.936-3.907-10.998.81-14.096-1.225-2.808-1.844-3.843-7.114-1.818-12.036-6.906 3.753-3.158 7.99 0 12.2-1.81 2.232-3.75 2.406-4.98 3.68-2.154 2.234-3.217 4.588-4.392 6.93zM349.938 495.362c-7.048 4.723-5.584 9.75-8.488 12.554 3.982-3.6 10.477-.39 16.975-5.658l-13.085 2.475c.504-5.181 2.768-6.842 4.598-9.371zM382.65 496.069c-6.055 3.792-10.665 6.41-14.538 8.429-6.07 3.165-10.334 4.86-15.522 7.308 4.027-4.26 6.852-4.663 13.515-8.185 2.967-1.568 5.856-1.153 13.363-10.204 2.246-1.192 2.79.598 3.182 2.652zM356.127 517.819c2.726-3.357 14.356-2.559 23.694-2.83a18.475 18.475 0 0 0-5.778 3.58c-1.914 1.729-3.768 5.292-5.539 7.207l1.415-6.72c-1.422-1.355-5.142-2.405-7.594-2.193-2.686.233-4.132 1.769-6.198.956zM381.59 474.85l1.945-1.945c4.422.845 12.214-1.987 12.024 3.89.238 4.067 2.042 5.152 2.409 8.384.408 3.598.348 7.664.066 11.951-9.45-.68-5.626-7.553-8.382-11.357-2.711-5.059-6.353-5-8.062-10.923zM380.882 456.99c-7.672 2.773-11.555 1.375-15.05 3.282-1.89 1.03-1.097 2.245-1.61 4.406-.163.692-1.698 1.48-1.022 2.392.732 1.135 2.296 1.835 1.466 3.607-1.273 2.72-4.452 1.927-7.655 4.88 6.656 2.4 11.108 1.875 14.701-.128 4.22-2.352 3.897-8.158 11.292-10.835-.24-2.986-3.81.022-6.189.884.317-5.664 6.246-6.542 4.067-8.487z" transform="translate(-236.95 -321.934)"/><path style="fill:#fff;stroke:#231f20;stroke-width:1px;stroke-linecap:butt;stroke-linejoin:miter;stroke-opacity:1" d="m299.896 588.372 3.006 4.774c.742-1.25 1.76-2.602 1.238-7.426-1.365.585-2.456-.47-4.244 2.652zM284.69 620.731c.111-2.324-.452-4.141 1.414-7.78-1.769-.455-3.537-1.586-5.305.177.109 3.96 1.423 6.473 3.89 7.603zM253.391 613.87c.112-2.324-1.689-5.38.177-9.018-1.768-.454-3.36-2.824-5.128-1.06.109 3.959 2.484 8.948 4.951 10.078zM246.783 546.923c1.76 1.52 3.539 2.198 5.254 5.91 1.448-1.112 3.429-1.807 3.131-4.286-3.185-2.355-5.974-2.87-8.385-1.624z" transform="translate(-236.95 -321.934)"/><path style="fill:#ed1c24;fill-opacity:1;stroke:#231f20;stroke-width:1px;stroke-linecap:butt;stroke-linejoin:miter;stroke-opacity:1" d="m274.787 560.787-8.31 7.25c-3.504-5.395-11.255-6.378-13.82-9.7-1.062-1.376-1.265-2.79.027-4.27 3.067-.292 4.027-2.691 4.774-5.304 1.049-1.207 1.969-1.038 2.961-.28 4.813 3.677 4.106 8.923 6.234 10.182l1.238-3.713c2 .158 4.155 1.237 6.896 5.835z" transform="translate(-236.95 -321.934)"/><path style="fill:#fff;stroke:#231f20;stroke-width:1px;stroke-linecap:butt;stroke-linejoin:miter;stroke-opacity:1" d="M264.43 434.21c1.77-1.39 3.468-3.065 3.6-5.606.157-3.022 3.157-5.487 2.605-4.392 1.984 1.27 5.534 1.366 4.138 5.172-1.72 2.682-3.766 6.117-10.343 4.826z" transform="translate(-236.95 -321.934)"/><path style="fill:#ed1c24;fill-opacity:1;stroke:#231f20;stroke-width:1px;stroke-linecap:butt;stroke-linejoin:miter;stroke-opacity:1" d="M250.295 393.184c.455-5.296 2.698-8.06 5.295-7.343 1.697.468 3.397 1.908 4.507 3.908.729 1.318 0 3.502.018 4.814.024 1.73.585 2.58-.071 4.245a16.499 16.499 0 0 1-2.165 3.857c-1.09.566-1.611-.369-2.745-.872-2.21-.98-3.05-7.703-4.84-8.61z" transform="translate(-236.95 -321.934)"/><path style="fill:#fff;stroke:#231f20;stroke-width:1px;stroke-linecap:butt;stroke-linejoin:miter;stroke-opacity:1" d="M245.64 403.01c.467-3.661 1.04-7.053 2.414-8.447 1.318 1.156 4.032.484 3.275 6.206-3.47.747-4.429 1.494-5.689 2.24zM296.837 354.743c-.446-2.741-1.183-5.845-3.448-10.86 5.236 2.543 10.14 5.851 10.343 9.309-.26 2.21-3.928 2.048-6.895 1.551zM253.225 345.262c3.692 2.656 4.753 5.734 5.689 7.93 2.62.717 6.247.706 4.826-3.965-1.307-1.102-4.613-2.403-10.515-3.965z" transform="translate(-236.95 -321.934)"/><path style="fill:#ed1c24;fill-opacity:1;stroke:#231f20;stroke-width:1px;stroke-linecap:butt;stroke-linejoin:miter;stroke-opacity:1" d="m291.666 372.843 6.895 4.482c2.355-3.467 5.645-7.36 5.516-19.651-1.037-.312-2.828-.03-3.65-.187-2.371-.456-2.99-.794-3.59.014-1.365 9.373-6.285 11.08-5.171 15.342z" transform="translate(-236.95 -321.934)"/><path style="fill:#231f20;fill-opacity:1;stroke:#231f20;stroke-width:1px;stroke-linecap:butt;stroke-linejoin:miter;stroke-opacity:1" d="m308.214 409.732-.517 10.515s2.131.855 2.24 0c.403-3.14-.792-15.788-1.723-10.515zM319.982 421.985l1.551 5.689c-.05.153.35 6.251 1.38 2.586.855-3.048-2-13.547-2.931-8.275zM314.915 416.923l.158 4.12c-.082.079-1.1 4.065.706 2.101 1.502-1.633 1.215-9.234-.864-6.221z" transform="translate(-236.95 -321.934)"/><path style="fill:#231f20;fill-opacity:1;stroke:#231f20;stroke-width:.99999994px;stroke-linecap:butt;stroke-linejoin:miter;stroke-opacity:1" d="m295.913 397.461.839 4.618c-.076.103-.523 4.753 1.1 2.26 1.348-2.073-.193-10.595-1.94-6.878z" transform="translate(-236.95 -321.934)"/><path style="fill:#231f20;fill-opacity:1;stroke:#231f20;stroke-width:1px;stroke-linecap:butt;stroke-linejoin:miter;stroke-opacity:1" d="m302.514 400.266-.287 10.515s1.182.855 1.242 0c.223-3.14-.44-15.788-.955-10.515z" transform="translate(-236.95 -321.934)"/><path style="fill:#ed1c24;fill-opacity:1;stroke:#231f20;stroke-width:1px;stroke-linecap:butt;stroke-linejoin:miter;stroke-opacity:1" d="M303.043 484.028c-.573 7.712 1.714 10.33 5.544 10.2 5.004-.17 12.813-3.479 19.968-9.338-4.45-.929-9.144-2.052-11.377-1.207-3.18 2.989-7.3 4.213-14.135.345z" transform="translate(-236.95 -321.934)"/><path style="fill:#231f20;fill-opacity:1;stroke:#231f20;stroke-width:1px;stroke-linecap:butt;stroke-linejoin:miter;stroke-opacity:1" d="M290.287 566.08c-.983-.694 4.54-.625 5.234-2.417.595-1.533-1.49-3.903.393-4.003 3.41-.182 4.752-4.172 6.44-6.336 1.833-.183 3.335-.117 1.55 2.414-3.9 2.877-5.824 6.73-5.99 9.215-.14 2.075-1.905 2.976-5.042 3.023zM331.14 507.127c-.556-.925.62-2.536 2.067-3.397 1.113-.662 2.897-1.085 5.863-1.085-.371 4.54-2.528 5.549-7.93 4.482zM316.432 546.996l-7.488-.375s-.61 1.546 0 1.626c2.236.291 11.243-.576 7.488-1.251zM328.05 523.232l4.099-.446c.067-.093 3.86-1.684 2.183.39-1.396 1.724-8.957 2.555-6.282.056z" transform="translate(-236.95 -321.934)"/><path style="fill:#231f20;fill-opacity:1;stroke:#231f20;stroke-width:.99999994px;stroke-linecap:butt;stroke-linejoin:miter;stroke-opacity:1" d="m318.776 460.67-.145-19.426s.597-1.58.628 0c.113 5.8-.222 29.167-.483 19.426z" transform="translate(-236.95 -321.934)"/><path style="fill:#231f20;fill-opacity:1;stroke:#231f20;stroke-width:1px;stroke-linecap:butt;stroke-linejoin:miter;stroke-opacity:1" d="m331.922 529.447-7.49.343s-.458 1.598.156 1.619c2.254.076 11.136-1.65 7.334-1.962zM329.942 513.775l4.099-.32c.066-.066 3.86-1.203 2.182.28-1.395 1.232-8.956 1.826-6.281.04zM321.409 538.171l-7.49.177s-.458.821.156.832c2.254.039 11.136-.848 7.334-1.009zM450.49 400.346c-3.333.616-4.37-3.358-6.367-5.413-1.745 3.563-4.203 5.214-4.939 6.931-1.235 2.884-.723 4.455-1.429 6.44-2.27-4.113-2.246-7.407-.964-10.253.857-1.904 2.915-.741 4.59-2.354 1.524-1.469 2.623-5.728 4.334-7.131.005 6.572 2.262 9.388 4.775 11.78zM446.3 378.466c1.675 2.388 3.405 4.81 7.429 8.667-4.93-1.735-6.738-5.267-7.204-6.078-1.852-3.036-1.002-2.767-.225-2.589zM386.306 423.152c-1.082.582-.941 2.602-.418 3.516.32.557 1.156.913 3.007.874 7.042.917 8.159-1.993 11.26-1.977 1.293.007 1.532-.708-.004-1.062-1.882-.963-2.703-2.124-13.845-1.35zM410.844 428.555c.392-.219.013.922.07 2.498.09 2.486.256 6.053-1.421 7.07-.91.913-1.766-.207-2.443-.79-3.56-3.071.937-3.786-1.278-5.216-1.433-.925-7.402.29-7.535-.635 1.052-1.266 6.207-1.376 8.705-2.124 1.912-.572 2.64-1.31 3.902-.803zM373.586 420.901c2.438.878 6.581-1.996 10.345-4.036 1.85-1.24 2.036-.528 1.754 1.241-.228.652-.642 1.26-1.186 1.839-1.451 1.541-3.827 2.866-6.073 4.22-2.327.75-4.214-1.006-5.073-1.563-.815-.528-.808-1.092.233-1.7zM418.273 431.932c1.204-2.038 1.312-.61 1.013.9-2.469 6.232 2.136 7.776 2.026 11.031-.799.44-1.509 1.59-2.59-.225-.38-3.93-2.214-8.043-.45-11.706zM425.251 405.705c.193 1.636.638 2.965 3.49 1.351.176-.034 1.177-1.906 3.602-4.277-.114-.739-.081-1.734-1.351-.45-2.921 2.851-5.262 2.112-5.74 3.376z" transform="translate(-236.95 -321.934)"/><path style="fill:#fff;stroke:#231f20;stroke-width:1px;stroke-linecap:butt;stroke-linejoin:miter;stroke-opacity:1" d="m439.772 489.225-6.754 7.429c-2.139.38-2.32-.695-2.689-2.173-.547-2.188.218-5.752.438-8.745.525-1.161 1.083-1.843 1.72-1.91 4.1-.434 1.542 2.423 3.342 3.916.817.679 2.136-.314 3.943 1.483zM430.767 499.018l-4.052 3.714-1.407-1.407c-1.504-1.983-1.931-1.086-3.449.115-.807.597-1.532 1.011-2.197 1.29-3.48 1.46-8.659 1.218-8.368-.223-.831-3.014 5.497-.777 9.565-3.494.744-.497.904-1.224.34-2.021-1.274-3.766.365-5.005.45-6.867 1.946-2.776 4.425 5.53 9.118 8.893zM425.702 477.294c.353-1.945 1.945-3.33 2.554-3.174.74.189 1.755 2.16 1.61 3.624-.514 3.596.166 10.778-1.688 10.355-3.468.89-1.716-7.094-2.476-10.805zM385.103 383.741c-.424 2.535.52 3.873 3.156 3.73.68-.058 1.129-1.25.287-3.73-1.905-1.082-2.872-.824-3.443 0zM383.31 392.565l-5.31.43c-1.688-.61-.435-3.057-.645-4.59 1.783-.443 3.37-.72 4.017-.216-1.003.582-2.732 1.244-2.152 1.65.388.714 3.17 1.04 4.09 2.726z" transform="translate(-236.95 -321.934)"/><path style="fill:#ed1c24;fill-opacity:1;stroke:#231f20;stroke-width:1px;stroke-linecap:butt;stroke-linejoin:miter;stroke-opacity:1" d="M545.023 374.228c-.47-8.468-4.234-12.242-8.809-14.536-11.762-5.895-21.44-1.144-30.962-2.103 4.508-2.81 7.641-4.727 16.227-6.328 3.148-.588 5.662.479 10.76.47 4.811-.01 12.078-1.131 19.278-.432-.344-3.171-2.464-5-5.832-5.884-2.454-.644-6.244-.788-10.603-.586-11.326.525-22.844-.268-32.062 5.861 4.51-8.472 26.154-7.057 39.763-7.177 2.357-.02 4.416.622 6.096 1.496 1.613-4.313 1.73-7.389-1.213-8.5-6.716-2.533-15.076 2.965-30.645-.226 3.42-2.104 4.657-3.772 0-4.26-13.977 1.587-20.54 6.601-26.504 14.102-8.056 10.13-15.549 20.418-18.542 31.756-1.09 7.94-.02 17.767 3.87 28.241 2.941 7.918 8.421 17.133 18.653 28.777l7.508-7.71c-10.151-12.85-22.375-30.634-22.212-44.643.057-4.855 1.82-9.55 6.182-14 9.633-5.976 25.638.453 31.145 5.587 5.081 4.737 5.776 16.14-2.129 25.256 4.136-.327 9.355-.038 17.45-2.84l6.088-6.697c1.122-5.127-.057-13.382-2.435-18.87 2.626-.72 5.268.343 8.928 3.246z" transform="translate(-236.95 -321.934)"/><path style="fill:#fff;stroke:#231f20;stroke-width:1px;stroke-linecap:butt;stroke-linejoin:miter;stroke-opacity:1" d="m558.01 340.342.609 2.435c2.78-.159 7.537-3.105 9.764-4.475 1.992-1.227 2.932-2.33 2.207-3.236-4.218 1.734-10.875 1.029-12.58 5.276zM551.968 355.074l-.435 1.746c2.563.766 8.026.368 10.58.187 2.284-.162 3.573-.573 3.288-1.379-4.49-.207-10.188-2.736-13.433-.554z" transform="translate(-236.95 -321.934)"/><path style="fill:#231f20;fill-opacity:1;stroke:#231f20;stroke-width:1px;stroke-linecap:butt;stroke-linejoin:miter;stroke-opacity:1" d="M360.667 432.96c2.119.75 6.289-.652 10.003-1.576 1.857-.598 1.934-.146 1.445.916-.294.38-.753.717-1.326 1.024-1.53.82-3.88 1.425-6.113 2.06-2.23.258-3.73-.984-4.445-1.401-.678-.395-.598-.741.436-1.024zM360.437 440.677c2.118.752 9.94.567 16.496-3.807 1.857-.599 1.934-.146 1.445.915-.294.38-.753.718-1.326 1.025-1.53.82-10.373 3.657-12.606 4.293-2.23.257-3.73-.985-4.445-1.402-.678-.396-.598-.741.436-1.024zM364.952 456.029c1.764.436 7.934-.883 12.615-6.162 1.4-.862 1.514-.425 1.25.696-.189.419-.512.819-.93 1.206-1.117 1.033-7.786 5.124-9.48 6.077-1.735.578-3.066-.433-3.68-.742-.583-.292-.56-.646.225-1.075zM419.324 423.965c.144 1.253.474 2.272 2.591 1.035.13-.026.874-1.46 2.674-3.278-.084-.566-.06-1.329-1.002-.345-2.17 2.185-3.907 1.619-4.263 2.588zM366.637 448.507c1.184.461 3.196-1.046 5.024-2.116.9-.65.99-.277.852.65-.11.343-.312.662-.576.965-.705.808-1.859 1.503-2.95 2.213-1.13.393-2.046-.527-2.464-.82-.396-.276-.392-.572.114-.892zM414.793 467.663c1.25.18 2.318.12 1.66-2.243.008-.133-1.19-1.217-2.49-3.42-.57-.062-1.3-.28-.589.882 1.562 2.654.573 4.19 1.42 4.78zM394.012 455.438l3.502-2.177c.11.032 4.077-1.057 1.477-1.654-2.162-.496-8.626 3.514-4.979 3.83zM407.172 472.831c1.046-1.849 3.535.12 3.08-3.866.009-.133-1.19-1.216-2.49-3.42-.569-.061-1.3-.28-.588.883 1.562 2.653-.848 5.813-.001 6.403zM386.57 446.49l1.962-.548c.032-.114 1.848-2.064 1.045.479-.668 2.115-4.288 3.133-3.008.069z" transform="translate(-236.95 -321.934)"/><path style="fill:#231f20;fill-opacity:1;stroke:#231f20;stroke-width:.99999994px;stroke-linecap:butt;stroke-linejoin:miter;stroke-opacity:1" d="m383.658 439.895 1.219-.466c.02-.097 1.148-1.759.649.407-.415 1.802-2.663 2.67-1.868.059z" transform="translate(-236.95 -321.934)"/><path style="fill:#231f20;fill-opacity:1;stroke:#231f20;stroke-width:.99999988px;stroke-linecap:butt;stroke-linejoin:miter;stroke-opacity:1" d="m395.502 461.445 2.133-.466c.035-.097 2.01-1.759 1.136.408-.726 1.801-4.66 2.668-3.269.058z" transform="translate(-236.95 -321.934)"/><path style="fill:#231f20;fill-opacity:1;stroke:#231f20;stroke-width:.99999994px;stroke-linecap:butt;stroke-linejoin:miter;stroke-opacity:1" d="M402.48 407.075c-2.957.183-6.136 1.782-9.265 3.067-1.438.701-1.936.525-2.386-.05-.034-.233.148-.488.48-.757.887-.718 2.847-1.54 4.655-2.347 2.152-.643 4.896-.466 6.044-.457 1.088.008 1.32.176.472.544z" transform="translate(-236.95 -321.934)"/><path style="fill:#ed1c24;fill-opacity:1;stroke:#231f20;stroke-width:3;stroke-linecap:butt;stroke-linejoin:miter;stroke-miterlimit:4;stroke-opacity:1;stroke-dasharray:none" d="M599.615 437.37 302.65 738.503c17.989 13.292 35.004 24.961 47.079 28.397L599.57 514.288zM600.054 539.96 368.69 774.841c27.307 6.98 50.32 9.051 69.668 5.91l160.555-163.729z" transform="translate(-236.95 -321.934)"/><path style="fill:none;stroke:#231f20;stroke-width:2.20000005;stroke-linecap:butt;stroke-linejoin:miter;stroke-miterlimit:4;stroke-opacity:1;stroke-dasharray:none" d="M600.435 452.095 310.123 743.734M320.585 750.46l279.924-283.082M600.919 483.818l-270.62 272.62M338.52 761.669 602.025 498.5M601.014 557.367 381.862 777.362M394.449 780.541l207.24-208.323M601.952 586.006 407.995 781.699M422.963 781.845 602.12 601.193" transform="translate(-236.95 -321.934)"/><path style="fill:#ed1c24;fill-opacity:1;stroke:#231f20;stroke-width:2;stroke-linecap:butt;stroke-linejoin:miter;stroke-miterlimit:4;stroke-opacity:1;stroke-dasharray:none" d="m284.715 721.316 179.258-178.84 135.26-134.595-.217-75.03-343.35 342.785c7.143 15.405 15.347 32.093 29.05 45.68z" transform="translate(-236.95 -321.934)"/><path style="fill:none;stroke:#231f20;stroke-width:2.20000005;stroke-linecap:butt;stroke-linejoin:miter;stroke-miterlimit:4;stroke-opacity:1;stroke-dasharray:none" d="M602.31 339.454 259.308 683.95M264.517 693.93l337.677-337.34M601.857 373.704 270.905 705.886M278.737 713.843 601.52 391.228" transform="translate(-236.95 -321.934)"/></svg>