<svg xmlns="http://www.w3.org/2000/svg" width="200" height="217" style="shape-rendering:geometricPrecision;text-rendering:geometricPrecision;image-rendering:optimizeQuality;fill-rule:evenodd;clip-rule:evenodd"><path style="opacity:1" fill="#110e0e" d="M8.5 9.5h181a2325.552 2325.552 0 0 1-12.5 132c-11.941 40.074-38.774 62.408-80.5 67-40.456-3.959-66.623-25.292-78.5-64a161.802 161.802 0 0 1-2-17 5264.713 5264.713 0 0 0-5.5-82 271.471 271.471 0 0 1-2-36z"/><path style="opacity:1" fill="#f53912" d="M13.5 14.5h171a4795.032 4795.032 0 0 1-6 90 24.935 24.935 0 0 0-7 .5c-3.769 4.947-7.769 5.28-12 1a25.716 25.716 0 0 0-5.5-1.5c-3.858 1.013-7.358 2.68-10.5 5-3.388-2.609-7.221-4.275-11.5-5a40.722 40.722 0 0 0-12.5 5 48.493 48.493 0 0 1-7-4.5 12.494 12.494 0 0 0-7 0c-2.218 2.276-4.885 3.776-8 4.5a49.58 49.58 0 0 0-11-5 188.147 188.147 0 0 0-11.5 6 30.112 30.112 0 0 0-10.5-5l-12 5-12-5a83.352 83.352 0 0 1-11 5c-2.056-.548-3.723-1.714-5-3.5a20.088 20.088 0 0 0-6-1.5 2779.991 2779.991 0 0 0-5-91z"/><path style="opacity:1" fill="#201e10" d="M129.5 17.5c1.542.8 3.208 1.134 5 1v4a8.435 8.435 0 0 0-4 .5c2.74 3.872 5.74 7.54 9 11-2.385 3.115-2.385 6.115 0 9-1.896 1.808-2.396 3.975-1.5 6.5 1.294.399 2.794.399 4.5 0l-1-2a13.017 13.017 0 0 0 4.5-4l1-13c1.049 1.607 2.549 2.273 4.5 2v5h-4c-.163 2.357.003 4.69.5 7l3 2c.29 2.452.956 4.785 2 7a7.292 7.292 0 0 0 2-3 27.073 27.073 0 0 0 3 11c1.044-1.123 1.71-2.456 2-4 .498 2.027.331 4.027-.5 6a13.055 13.055 0 0 0 3 4c-.985 1.598-1.151 3.265-.5 5l4 4c.5 6.992.666 13.992.5 21h-138c-.166-6.675 0-13.342.5-20 4.36-5.046 6.694-11.046 7-18l2 2a8.19 8.19 0 0 1 2.5-4c-1.224-2.34-1.224-4.672 0-7l2 1a23.973 23.973 0 0 1 3.5-8l1-12c1.049 1.607 2.549 2.273 4.5 2v5h-4c-.638 3.955.862 6.622 4.5 8a8.434 8.434 0 0 1 .5 4c2.357.163 4.69-.003 7-.5-2.974-4.947-1.974-9.114 3-12.5a86.7 86.7 0 0 0 1.5-13c1.4 1.692 3.234 2.359 5.5 2 .116 3.41-1.55 4.744-5 4a9.864 9.864 0 0 0 1 6 21.745 21.745 0 0 1 6.5 7c.687 2.42.187 4.587-1.5 6.5 5.323.5 10.656.666 16 .5a60.94 60.94 0 0 1 .5-11c1.7.906 3.533 1.24 5.5 1v4h-5v6h27a60.93 60.93 0 0 1 .5-11c1.356.88 2.856 1.214 4.5 1v4h-4v6c6.738 1.007 8.738-1.66 6-8 2.494-2.58 2.494-5.247 0-8a31.861 31.861 0 0 1 6.5-9 18.991 18.991 0 0 0 1.5-8z"/><path style="opacity:1" fill="#e3e65c" d="M129.5 26.5a54.547 54.547 0 0 1 6.5 6c.33 3.366-.003 6.7-1 10-1.797-2.174-1.964-4.507-.5-7a35.03 35.03 0 0 1-5-9z"/><path style="opacity:1" fill="#e7d9ce" d="M147.5 33.5c1.175-.219 2.175.114 3 1-1.552 1.298-2.552.965-3-1z"/><path style="opacity:1" fill="#decaa9" d="M47.5 34.5c1.175-.219 2.175.114 3 1-1.552 1.298-2.552.965-3-1z"/><path style="opacity:1" fill="#b9ac3b" d="M126.5 30.5c.722.418 1.222 1.084 1.5 2l1-1c.824 3.382.657 6.716-.5 10a26.722 26.722 0 0 1-1.5-7c-.118 2.871-.784 5.538-2 8 .723-2.482.556-4.982-.5-7.5a27.648 27.648 0 0 1 2-4.5z"/><path style="opacity:1" fill="#ede28e" d="M130.5 32.5c.617.11 1.117.444 1.5 1 .818 2.727.652 5.394-.5 8a21.128 21.128 0 0 1-1-9z"/><path style="opacity:1" fill="#f8f436" d="M65.5 49.5c1-.333 1.667-1 2-2 1.251-6.57 2.085-6.57 2.5 0-.835 2.769-2.335 3.435-4.5 2z"/><path style="opacity:1" fill="#d7cbac" d="M87.5 41.5c4.088-.282 4.588.385 1.5 2-1.03-.336-1.53-1.003-1.5-2z"/><path style="opacity:1" fill="#f0cea1" d="M115.5 41.5c1.175-.219 2.175.114 3 1-1.552 1.298-2.552.965-3-1z"/><path style="opacity:1" fill="#d4c642" d="M124.5 43.5c.722.417 1.222 1.084 1.5 2 2.106-1.791 4.606-2.458 7.5-2v7h-3c-.333-5.333-.667-5.333-1 0-1.624.14-2.79-.527-3.5-2l-1 2a24.935 24.935 0 0 1-.5-7z"/><path style="opacity:1" fill="#beac64" d="M134.5 43.5c1.225.652 1.892 1.819 2 3.5l-1 3.5a13.115 13.115 0 0 1-1-7z"/><path style="opacity:1" fill="#a9a03b" d="M67.5 47.5c-.333 1-1 1.667-2 2-2.439 1.4-4.272.733-5.5-2-.82-2.228-.487-4.228 1-6l1 6c1.25-10.144 3.084-10.144 5.5 0z"/><path style="opacity:1" fill="#b6b147" d="M45.5 50.5c4.623-1.092 6.456.575 5.5 5-.807-3.949-1.307-3.949-1.5 0h-4v-5z"/><path style="opacity:1" fill="#f9f532" d="M56.5 52.5a196.88 196.88 0 0 1 28 1 28.04 28.04 0 0 0-1.5 5 6.807 6.807 0 0 0-1.5-3 64.875 64.875 0 0 0-1 16c-6.342.166-12.675 0-19-.5 1.364-2.575.698-4.575-2-6 1.872-1.974 2.205-4.14 1-6.5a12.417 12.417 0 0 0-2.5 4 13.754 13.754 0 0 0-2.5-5.5c.648-1.44.98-2.94 1-4.5z"/><path style="opacity:1" fill="#f5f036" d="M90.5 53.5c7.177-1.32 14.51-1.32 22 0-.789 1.988-1.955 2.321-3.5 1-1.228 5.382-1.395 10.715-.5 16h-15c.105-3.97.439-7.637 1-11-.324-2.069-1.157-2.402-2.5-1-.198-1.882-.698-3.548-1.5-5z"/><path style="opacity:1" fill="#f4f035" d="M132.5 67.5v3h-11c-.268-2.62.065-5.12 1-7.5a34.041 34.041 0 0 1-1.5-7.5 7.292 7.292 0 0 1-2 3l-.5-1c1.333-1.333 1.333-2.667 0-4 6.634-.997 13.3-1.33 20-1 .019 1.56.352 3.06 1 4.5-.84 1.171-1.673 2.338-2.5 3.5-1.223-4.77-2.39-4.937-3.5-.5 2.932 3.095 2.599 5.595-1 7.5z"/><path style="opacity:1" fill="#b7b356" d="M144.5 50.5c1.788-.285 3.455.048 5 1-.875 2.273-2.542 3.273-5 3v-4z"/><path style="opacity:1" fill="#d0d454" d="M114.5 52.5c1.548.321 2.215 1.321 2 3-2.748.098-3.414-.902-2-3z"/><path style="opacity:1" fill="#ebed4c" d="M109.5 57.5c.577-1.273 1.243-1.273 2 0-.47.963-1.137.963-2 0z"/><path style="opacity:1" fill="#b0b04c" d="M48.5 58.5h3v4h-3v-4z"/><path style="opacity:1" fill="#e5e836" d="M146.5 58.5c-2.342.71-2.675 2.044-1 4-1.756-1.052-2.423-2.719-2-5 1.291-.237 2.291.096 3 1z"/><path style="opacity:1" fill="#b6af3f" d="M146.5 62.5c.951-1.419 1.284-3.085 1-5h3c.322 2.222-.345 4.056-2 5.5l9 1c-6.667.667-13.333.667-20 0 3.195-.18 6.195-.68 9-1.5z"/><path style="opacity:1" fill="#dedb5b" d="M52.5 58.5c2.032.548 3.032 1.881 3 4h-3v-4z"/><path style="opacity:1" fill="#b5b63f" d="M85.5 60.5a25.214 25.214 0 0 1 2.5-8c-.076 3.849 1.424 6.849 4.5 9l-2 1a325.759 325.759 0 0 0-5-2z"/><path style="opacity:1" fill="#d8db61" d="M114.5 56.5a2.427 2.427 0 0 1 2 .5c-.193 1.645-.36 3.479-.5 5.5-2.238-1.71-2.738-3.71-1.5-6z"/><path style="opacity:1" fill="#847d45" d="M146.5 58.5v4h-1c-1.675-1.956-1.342-3.29 1-4z"/><path style="opacity:1" fill="#f7f45e" d="M42.5 58.5c.934 1.068 1.268 2.401 1 4-1.175.219-2.175-.114-3-1 1.112-.765 1.779-1.765 2-3z"/><path style="opacity:1" fill="#eceb60" d="M44.5 59.5c.709-.904 1.709-1.237 3-1v4c-3.297.171-3.63-.495-1-2-.457-.797-1.124-1.13-2-1z"/><path style="opacity:1" fill="#d5d863" d="M85.5 60.5c-.448 1.965-1.448 2.298-3 1 .825-.886 1.825-1.219 3-1z"/><path style="opacity:1" fill="#fbf828" d="M110.5 60.5c1.837.14 2.17.806 1 2-.798-.457-1.131-1.124-1-2z"/><path style="opacity:1" fill="#cfcf33" d="M151.5 57.5c1.557.966 2.89 2.3 4 4-1.189.929-2.522 1.262-4 1v-5z"/><path style="opacity:1" fill="#e8f735" d="M117.5 59.5c1.832.64 2.165 1.64 1 3-.886-.825-1.219-1.825-1-3z"/><path style="opacity:1" fill="#cac645" d="M141.5 57.5c1.288 1.991.788 3.658-1.5 5l-1.5-1c1.788-.783 2.788-2.116 3-4z"/><path style="opacity:1" fill="#ac9e3c" d="M83.5 63.5h8v8h-4c-.333-8-.667-8-1 0-3.623-.15-3.957-1.316-1-3.5-1.207-1.3-1.874-2.8-2-4.5z"/><path style="opacity:1" fill="#eaea43" d="M137.5 65.5c1.288 1.535 1.288 3.201 0 5l-3-1.5c1.556-.72 2.556-1.887 3-3.5z"/><path style="opacity:1" fill="#3e3420" d="M98.5 64.5c3.096-.593 5.429.407 7 3a16.868 16.868 0 0 1-8 1c-.067-1.459.266-2.792 1-4z"/><path style="opacity:1" fill="#f7f23c" d="M110.5 65.5h4v5h-4v-5z"/><path style="opacity:1" fill="#241e19" d="M132.5 67.5a40.939 40.939 0 0 1-9-.5c3.343-3.42 6.343-3.253 9 .5z"/><path style="opacity:1" fill="#6e6334" d="M151.5 65.5a30.968 30.968 0 0 0 2 2c-.457.797-1.124 1.13-2 1 0-.667-.333-1-1-1a5.728 5.728 0 0 1-3 1v-3h4z"/><path style="opacity:1" fill="#7b6d28" d="M39.5 65.5c.973 1.291 1.973 1.291 3 0 .929 1.189 1.262 2.522 1 4h-4v-4z"/><path style="opacity:1" fill="#e4e55e" d="M44.5 65.5c3.556-.225 3.89.608 1 2.5 2.89 1.892 2.556 2.725-1 2.5v-5z"/><path style="opacity:1" fill="#19100d" d="M69.5 64.5c3.1-.408 5.433.759 7 3.5a25.249 25.249 0 0 1-10 0 14.692 14.692 0 0 0 3-3.5z"/><path style="opacity:1" fill="#e1ed48" d="M70.5 65.5c1.256-.039 2.256.461 3 1.5-1.333.667-2.667.667-4 0 .556-.383.89-.883 1-1.5z"/><path style="opacity:1" fill="#3c242e" d="M111.5 66.5c1.965.448 2.298 1.448 1 3-.886-.825-1.219-1.825-1-3z"/><path style="opacity:1" fill="#f0f147" d="M39.5 65.5v4h4c-2.193 1.297-4.527 1.297-7 0a171.62 171.62 0 0 1 3-4z"/><path style="opacity:1" fill="#d2cf63" d="M48.5 65.5h3v5h-3v-5z"/><path style="opacity:1" fill="#d7d255" d="M52.5 66.5c.709-.904 1.709-1.237 3-1v5c-3.396-.133-3.73-1.133-1-3-.457-.797-1.124-1.13-2-1z"/><path style="opacity:1" fill="#ecf353" d="M56.5 65.5a20.665 20.665 0 0 0 4 3.5c-1.063 1.188-2.397 1.688-4 1.5v-5z"/><path style="opacity:1" fill="#efe664" d="M143.5 65.5c.768.763 1.268 1.763 1.5 3l1-3c.494 1.634.66 3.3.5 5h-3v-5z"/><path style="opacity:1" fill="#e8e74e" d="M150.5 67.5v3c-1.679.215-2.679-.452-3-2a5.728 5.728 0 0 0 3-1z"/><path style="opacity:1" fill="#eeee43" d="M151.5 65.5h3v5c-1.679.215-2.679-.452-3-2 .876.13 1.543-.203 2-1a30.968 30.968 0 0 1-2-2z"/><path style="opacity:1" fill="#e9de1f" d="M155.5 65.5c5.665 1.33 5.998 2.997 1 5-.952-1.545-1.285-3.212-1-5z"/><path style="opacity:1" fill="#d1d33e" d="M115.5 65.5h4v5h-4v-5z"/><path style="opacity:1" fill="#dbd04b" d="M141.5 65.5c.951 1.419 1.284 3.085 1 5-1.175.219-2.175-.114-3-1 1.353-1.024 2.02-2.357 2-4z"/><path style="opacity:1" fill="#e7e338" d="M93.5 72.5h15v7h-15v-7z"/><path style="opacity:1" fill="#f5f035" d="M61.5 73.5h19v6a86.739 86.739 0 0 0-18 1 13.117 13.117 0 0 1-1-7z"/><path style="opacity:1" fill="#e7e249" d="M44.5 74.5h15v6h-7c-.333-6.667-.667-6.667-1 0h-7v-6z"/><path style="opacity:1" fill="#fbf828" d="M110.5 74.5c.603 1.69 1.603 3.19 3 4.5a4.932 4.932 0 0 1-3 .5v-5z"/><path style="opacity:1" fill="#433310" d="M67.5 75.5c1.965.448 2.298 1.448 1 3-.886-.825-1.219-1.825-1-3z"/><path style="opacity:1" fill="#6d5b3c" d="M103.5 74.5h4v4h-4v-4z"/><path style="opacity:1" fill="#523d21" d="M63.5 74.5c1.086.12 1.753.787 2 2l-1 2c-.929-1.189-1.262-2.522-1-4z"/><path style="opacity:1" fill="#544b17" d="M70.5 74.5c1.208.734 2.541 1.067 4 1 .219 1.175-.114 2.175-1 3-.925-1.14-1.759-1.14-2.5 0a8.434 8.434 0 0 1-.5-4z"/><path style="opacity:1" fill="#5d4442" d="M77.5 75.5c1.965.448 2.298 1.448 1 3-.886-.825-1.219-1.825-1-3z"/><path style="opacity:1" fill="#34251a" d="M95.5 74.5c1.965.448 2.298 1.448 1 3-.886-.825-1.219-1.825-1-3z"/><path style="opacity:1" fill="#f7f13c" d="M114.5 74.5c1.545.73 2.378 2.063 2.5 4 1.458-5.094 2.291-4.761 2.5 1h-5v-5z"/><path style="opacity:1" fill="#edf136" d="M121.5 72.5h12v7h-12v-7z"/><path style="opacity:1" fill="#7d6e3f" d="M123.5 73.5c2.679.025 4.012 1.358 4 4h-4v-4z"/><path style="opacity:1" fill="#30281d" d="M129.5 74.5c1.725.343 2.225 1.343 1.5 3-1.039-.744-1.539-1.744-1.5-3z"/><path style="opacity:1" fill="#554d0f" d="M46.5 75.5h4v3h-4v-3z"/><path style="opacity:1" fill="#5f551a" d="M54.5 75.5h4c.219 1.175-.114 2.175-1 3-1.713-.38-2.713-1.38-3-3z"/><path style="opacity:1" fill="#9b8f37" d="M142.5 74.5c-.268 1.599.066 2.932 1 4v1h-2c-1.468-1.28-2.135-2.946-2-5h3z"/><path style="opacity:1" fill="#faf551" d="M143.5 79.5v-6h7v6h-7z"/><path style="opacity:1" fill="#50462b" d="M144.5 74.5h5c-.151 3.218-.984 3.552-2.5 1-1.516 2.552-2.349 2.218-2.5-1z"/><path style="opacity:1" fill="#faf637" d="M151.5 73.5h8v6h-8v-6z"/><path style="opacity:1" fill="#4c462a" d="M153.5 74.5c1.347.671 2.514.671 3.5 0 .483.948.649 1.948.5 3-1.322-.17-2.489.163-3.5 1a8.43 8.43 0 0 1-.5-4z"/><path style="opacity:1" fill="#ded432" d="M161.5 76.5c4.813 1.995 4.813 2.995 0 3v-3z"/><path style="opacity:1" fill="#a18c4d" d="M32.5 76.5c1.676.683 2.343 2.017 2 4h-3c-.067-1.459.266-2.792 1-4z"/><path style="opacity:1" fill="#bcb35a" d="M82.5 74.5c1.951-.273 3.451.393 4.5 2 1.049-1.607 2.549-2.273 4.5-2v5c-1.951.273-3.451-.393-4.5-2-1.049 1.607-2.549 2.273-4.5 2v-5z"/><path style="opacity:1" fill="#f0ed3e" d="M142.5 74.5h-3c-.135 2.054.532 3.72 2 5h-6v-6c2.559-.302 4.893.032 7 1z"/><path style="opacity:1" fill="#2e2807" d="M136.5 74.5c1.965.448 2.298 1.448 1 3-.886-.825-1.219-1.825-1-3z"/><path style="opacity:1" fill="#d0cd29" d="M35.5 74.5h8v6h-8v-6z"/><path style="opacity:1" fill="#665b3a" d="M37.5 75.5h4v3h-4v-3z"/><path style="opacity:1" fill="#eae436" d="M82.5 80.5a21.12 21.12 0 0 1 9 1l-4.5 1c-1.986-.069-3.486-.735-4.5-2z"/><path style="opacity:1" fill="#f2ee33" d="M93.5 80.5a57.124 57.124 0 0 1 15 1l-7.5 1c-2.93-.025-5.43-.691-7.5-2z"/><path style="opacity:1" fill="#eeea31" d="M110.5 80.5a21.12 21.12 0 0 1 9 1l-4.5 1c-1.986-.069-3.486-.735-4.5-2z"/><path style="opacity:1" fill="#bebd26" d="M121.5 80.5a60.94 60.94 0 0 1 11 .5c-1.788 1.088-3.788 1.588-6 1.5-2.14-.056-3.806-.723-5-2z"/><path style="opacity:1" fill="#e1e32f" d="M35.5 83.5c3.21-.488 6.044.179 8.5 2 2.106-1.791 4.606-2.458 7.5-2 .333 5.333.667 5.333 1 0h7v5h-24v-5z"/><path style="opacity:1" fill="#f5f143" d="M93.5 83.5h15c.285 1.788-.048 3.455-1 5-4.54-5.288-9.04-5.288-13.5 0-.493-1.634-.66-3.3-.5-5z"/><path style="opacity:1" fill="#f4f631" d="M110.5 83.5c1.175-.219 2.175.114 3 1-.941-.01-1.608.49-2 1.5 2.89 1.892 2.556 2.725-1 2.5v-5z"/><path style="opacity:1" fill="#f2ef30" d="M139.5 83.5c.331 1.822.998 3.49 2 5h-6v-5h4z"/><path style="opacity:1" fill="#958d37" d="M139.5 83.5h4v5h-2a13.224 13.224 0 0 1-2-5z"/><path style="opacity:1" fill="#d1cf26" d="M151.5 83.5h8v5h-8v-5z"/><path style="opacity:1" fill="#fbf82a" d="M161.5 83.5h3v5h-3v-5z"/><path style="opacity:1" fill="#f3ee4c" d="M30.5 83.5h3v5h-3v-5z"/><path style="opacity:1" fill="#f6f73d" d="M61.5 83.5h19v5h-19v-5z"/><path style="opacity:1" fill="#39260f" d="M77.5 84.5c1.965.448 2.298 1.448 1 3-.886-.825-1.219-1.825-1-3z"/><path style="opacity:1" fill="#d9d637" d="M114.5 83.5h5v5h-5v-5z"/><path style="opacity:1" fill="#736743" d="M37.5 84.5h4v3h-4v-3z"/><path style="opacity:1" fill="#5d5837" d="M53.5 84.5h4a4.932 4.932 0 0 1-.5 3c-.667-1.333-1.333-1.333-2 0-1.039-.744-1.539-1.744-1.5-3z"/><path style="opacity:1" fill="#422d10" d="M63.5 84.5c1.965.448 2.298 1.448 1 3-.886-.825-1.219-1.825-1-3z"/><path style="opacity:1" fill="#7c7044" d="M67.5 84.5h4v3h-4v-3z"/><path style="opacity:1" fill="#483e07" d="M72.5 84.5c1.965.448 2.298 1.448 1 3-.886-.825-1.219-1.825-1-3z"/><path style="opacity:1" fill="#a1964d" d="M87.5 83.5c.59.651 1.257 1.318 2 2-1.112.765-1.779 1.765-2 3h-5v-5h5z"/><path style="opacity:1" fill="#444305" d="M136.5 84.5c1.837.14 2.17.806 1 2-.798-.457-1.131-1.124-1-2z"/><path style="opacity:1" fill="#4a402e" d="M46.5 84.5c.897 1.098 1.73 1.098 2.5 0 .483.948.65 1.948.5 3h-3v-3z"/><path style="opacity:1" fill="#ece749" d="M143.5 83.5h7v5h-7v-5z"/><path style="opacity:1" fill="#412b10" d="M147.5 84.5c1.837.14 2.17.806 1 2-.798-.457-1.131-1.124-1-2z"/><path style="opacity:1" fill="#362d05" d="M144.5 84.5c1.837.14 2.17.806 1 2-.798-.457-1.131-1.124-1-2z"/><path style="opacity:1" fill="#e7e62c" d="M87.5 83.5h4v5h-4c.221-1.235.888-2.235 2-3a30.943 30.943 0 0 1-2-2z"/><path style="opacity:1" fill="#ebed3f" d="M121.5 83.5c.876-.13 1.543.203 2 1-1.006.896-1.006 1.562 0 2a6.802 6.802 0 0 0 1.5-3c1.114 3.956 1.947 3.956 2.5 0 4.964-1.043 6.631.624 5 5h-11v-5z"/><path style="opacity:1" fill="#392b0b" d="M129.5 84.5c1.837.14 2.17.806 1 2-.798-.457-1.131-1.124-1-2z"/><path style="opacity:1" fill="#c4ba33" d="M95.5 89.5c1.837.14 2.17.806 1 2-.797-.457-1.13-1.124-1-2z"/><path style="opacity:1" fill="#fbf749" d="M106.5 91.5c1.086.12 1.753.787 2 2l-1 2c-.929-1.189-1.262-2.522-1-4z"/><path style="opacity:1" fill="#fbf735" d="M110.5 91.5h3v4h-3v-4z"/><path style="opacity:1" fill="#e9e438" d="M114.5 91.5h5c.116 3.41-1.55 4.744-5 4v-4z"/><path style="opacity:1" fill="#faf637" d="M121.5 91.5h11v4h-11v-4z"/><path style="opacity:1" fill="#f9f433" d="M134.5 91.5h7v4h-7v-4z"/><path style="opacity:1" fill="#faf52c" d="M142.5 91.5h8v4h-8v-4z"/><path style="opacity:1" fill="#fbf733" d="M151.5 91.5h8v4h-8v-4z"/><path style="opacity:1" fill="#f9f528" d="M43.5 92.5h7v3h-7v-3z"/><path style="opacity:1" fill="#efe92d" d="M51.5 92.5h8v3h-8v-3z"/><path style="opacity:1" fill="#f9f637" d="M61.5 92.5h19v3h-19v-3z"/><path style="opacity:1" fill="#fcf73b" d="M161.5 91.5h3v4h-3v-4z"/><path style="opacity:1" fill="#f8f53d" d="M35.5 92.5h7v3h-7v-3z"/><path style="opacity:1" fill="#f0ec4e" d="M82.5 91.5h3v4h-3v-4z"/><path style="opacity:1" fill="#eeec39" d="M87.5 91.5h4v4h-4v-4z"/><path style="opacity:1" fill="#f6f537" d="M30.5 92.5h3v3h-3v-3z"/><path style="opacity:1" fill="#ecebe4" d="M107.5 106.5a8.43 8.43 0 0 1 4 .5c2.37 2.37 5.204 3.87 8.5 4.5a180.652 180.652 0 0 1 11.5-5c4.03 1.722 8.03 3.389 12 5a82.239 82.239 0 0 0 11-5 103.993 103.993 0 0 0 10.5 5c3.296-.63 6.13-2.13 8.5-4.5a8.43 8.43 0 0 1 4-.5c1.053 9.036-2.781 14.703-11.5 17a40.892 40.892 0 0 0-12.5-5c-3.182 1.977-6.682 3.311-10.5 4-2.852.157-5.018-1.01-6.5-3.5a12.494 12.494 0 0 0-7 0 26.035 26.035 0 0 1-7.5 4.5 19.381 19.381 0 0 1-7.5-5.5 12.494 12.494 0 0 0-7 0 54.114 54.114 0 0 1-8 5.5 44.15 44.15 0 0 0-12-4 63.927 63.927 0 0 0-13 5c-2.715-.878-5.049-2.378-7-4.5l-3.5-.5-13 5-3.5-.5c-1.951-2.122-4.285-3.622-7-4.5a104.096 104.096 0 0 1-10.5 5c-2.57-.033-4.403-1.2-5.5-3.5a12.93 12.93 0 0 0-5-.5v-12a96.152 96.152 0 0 1 10.5 4l3.5-.5a19.646 19.646 0 0 1 7-4.5c4.1 2.134 8.267 4.134 12.5 6a333.904 333.904 0 0 1 11-5 101.185 101.185 0 0 0 10.5 4l12-5a162.913 162.913 0 0 1 11.5 4c3.722-.776 6.889-2.443 9.5-5z"/><path style="opacity:1" fill="#262322" d="M90.5 112.5c1.763-.834 3.43-.334 5 1.5-1.782.122-3.448-.378-5-1.5z"/><path style="opacity:1" fill="#1f1410" d="M159.5 112.5a10.134 10.134 0 0 1-4-1.5c1.852-.773 3.186-.273 4 1.5z"/><path style="opacity:1" fill="#191817" d="M21.5 113.5c1.763-.834 3.43-.334 5 1.5-1.782.122-3.448-.378-5-1.5z"/><path style="opacity:1" fill="#1f1c17" d="M44.5 113.5c.997-1.213 1.997-1.046 3 .5-1.077.47-2.077.303-3-.5z"/><path style="opacity:1" fill="#363330" d="M65.5 112.5c2.166-1.129 4.166-.629 6 1.5-2.006-.15-4.006-.65-6-1.5z"/><path style="opacity:1" fill="#1f1d15" d="M114.5 113.5c.997-1.213 1.997-1.046 3 .5-1.077.47-2.077.303-3-.5z"/><path style="opacity:1" fill="#0f0c03" d="M159.5 112.5c1.256-.039 2.256.461 3 1.5-1.498.585-2.498.085-3-1.5z"/><path style="opacity:1" fill="#18191a" d="M111.5 115.5c1.221-.965 2.554-.798 4 .5-1.428.579-2.762.412-4-.5z"/><path style="opacity:1" fill="#2c221e" d="M155.5 115.5c.235-.597.735-.93 1.5-1a40.79 40.79 0 0 1 5.5 2.5c-2.422.135-4.755-.365-7-1.5z"/><path style="opacity:1" fill="#201b19" d="M21.5 117.5c1.59-1.121 3.256-.954 5 .5-1.697.384-3.363.218-5-.5z"/><path style="opacity:1" fill="#387029" d="M108.5 119.5c4.655 1.659 9.322 3.326 14 5a38.46 38.46 0 0 0 10-4c3.21 2.133 6.71 3.8 10.5 5a504.31 504.31 0 0 1 11-5 98.37 98.37 0 0 0 12 5c3.775-.765 6.775-2.765 9-6-.245 34.991-15.745 60.824-46.5 77.5-41.46 15.402-74.294 4.569-98.5-32.5-7.068-13.18-10.235-27.18-9.5-42a65.823 65.823 0 0 0 8.5 5 44.037 44.037 0 0 0 11-6 188.147 188.147 0 0 0 11.5 6 188.903 188.903 0 0 1 12.5-5 40.784 40.784 0 0 1 11 5 71.96 71.96 0 0 1 12.5-6 42.594 42.594 0 0 1 8 3.5c2 .667 4 .667 6 0a478.42 478.42 0 0 0 7-5.5z"/><path style="opacity:1" fill="#0c0b09" d="M98.5 135.5c-.397-1.025-1.063-1.192-2-.5a84.9 84.9 0 0 1-7 8.5c2.135 1.145 4.301 1.145 6.5 0 1.8.82 3.634 1.486 5.5 2-.709.904-1.709 1.237-3 1a307.636 307.636 0 0 0-10-1c-.667 3.333.667 5.333 4 6a135.441 135.441 0 0 0 2.5 7c2.454-1.941 4.287-4.275 5.5-7 1.25-.077 2.083-.744 2.5-2 .414.457.914.791 1.5 1l1-3c-.14-1.53-.807-2.53-2-3 .418-.722 1.084-1.222 2-1.5-.228-.399-.562-.565-1-.5 1.349-1.297 2.682-1.13 4 .5-1.423 2.62-1.257 5.12.5 7.5 3.373-.968 6.539-1.635 9.5-2 2.019.633 2.353 1.633 1 3-5.694-.26-11.027.74-16 3-3.653 1.653-6.32 4.32-8 8a21.878 21.878 0 0 0 6 7 48.401 48.401 0 0 1 15.5 2c5.779-2.86 11.946-4.527 18.5-5a26.091 26.091 0 0 1 5-3.5c-1.55-2.525-3.717-4.359-6.5-5.5.401-2.561.235-5.228-.5-8h-3a21.336 21.336 0 0 1 1-7c-.624-3.594-2.124-3.928-4.5-1a57.56 57.56 0 0 0-3 8c-.671.752-1.504 1.086-2.5 1a8.43 8.43 0 0 1 .5-4 19.414 19.414 0 0 0 4.5-8 109.636 109.636 0 0 0 6.5-2 4.457 4.457 0 0 1 1.5 2c-1.955 2.168-2.621 4.502-2 7 1.902 1.651 3.902 1.984 6 1a9.425 9.425 0 0 1 3 3 3.647 3.647 0 0 0 1.5-1c1.635 2.167 3.468 3.334 5.5 3.5-2.231 2.748-3.231 5.915-3 9.5h-3c.803.923.97 1.923.5 3a51.064 51.064 0 0 1-5.5 4l2 4c-1.688 1.021-3.021 2.355-4 4a20.69 20.69 0 0 0-5-1l-3-2a27.285 27.285 0 0 0 9-2 3.647 3.647 0 0 0-1-1.5c-5.574-.774-10.908.059-16 2.5 1.41 1.069 2.41 2.403 3 4-.444 1.613-1.444 2.78-3 3.5 1.063 1.188 2.397 1.688 4 1.5v-4h4c0 1.333.667 2 2 2-.104 2.473-1.104 3.139-3 2a14.972 14.972 0 0 0-3.5 3c-1.47-1.652-3.303-2.652-5.5-3l-13 2a239.152 239.152 0 0 1-13.5-5c-1.11 1.537-2.61 2.203-4.5 2 2.273-2.295 2.273-4.462 0-6.5-7.504 1.424-15.17 1.924-23 1.5l-2-.5c.82-6.576-1.18-7.243-6-2 3.527.783 3.86 2.283 1 4.5-1.174-1.941-2.84-3.441-5-4.5 2.412-1.277 5.079-2.943 8-5-3.698-1.994-6.698-4.661-9-8a4.934 4.934 0 0 1 3-.5c1.96.96 3.627 2.293 5 4 .473 1.406 1.473 2.073 3 2 .582 1.431 1.415 2.764 2.5 4 1.292-1.291 2.458-1.291 3.5 0-2.612.595-2.612 1.429 0 2.5l-4 1c4.847.38 9.68.88 14.5 1.5 2.76-.114 5.093-1.114 7-3a261.273 261.273 0 0 0 13.5 7c1.548 1.294 3.548 1.961 6 2 2.706-.452 5.206-.452 7.5 0a14.293 14.293 0 0 1 6.5-2.5c1.231-1.183 1.231-2.349 0-3.5-5.694-2.579-11.527-3.245-17.5-2l-4.5-4.5c-.95-.617-1.782-.451-2.5.5.038-5.375-1.296-10.375-4-15-5.965-4.915-12.131-5.248-18.5-1-1.823-1.247-3.823-1.914-6-2 .898-2.966 2.231-5.8 4-8.5-2.094-1.352-4.427-1.852-7-1.5.75-1.746 2.083-2.746 4-3 1.543 1.647 3.21 2.48 5 2.5.253 2.638-.414 5.304-2 8l1 1.5c4.207-1.763 8.373-2.763 12.5-3l2 2a83.325 83.325 0 0 0 3-8c3.333-2 6-4.667 8-8 1 1.333 2 1.333 3 0 .74 1.249.573 2.249-.5 3z"/><path style="opacity:1" fill="#f0ee38" d="M98.5 135.5c-.438-.065-.772.101-1 .5 2.667.667 2.667 1.333 0 2 2.667.667 2.667 1.333 0 2 7.667.813 7.334 1.479-1 2 2.646.497 5.313.664 8 .5.438-.065.772.101 1 .5-.916.278-1.582.778-2 1.5-.992-.172-1.658.162-2 1a36.865 36.865 0 0 1-5.5-2c-2.199 1.145-4.365 1.145-6.5 0a84.9 84.9 0 0 0 7-8.5c.937-.692 1.603-.525 2 .5z"/><path style="opacity:1" fill="#100d06" d="M62.5 140.5a25.4 25.4 0 0 0-7 5 2.429 2.429 0 0 1-2-.5c2.022-3.534 5.022-5.034 9-4.5z"/><path style="opacity:1" fill="#ebe731" d="M62.5 140.5c2.573-.352 4.906.148 7 1.5-1.769 2.7-3.102 5.534-4 8.5 2.177.086 4.177.753 6 2 6.369-4.248 12.535-3.915 18.5 1 2.704 4.625 4.038 9.625 4 15 .718-.951 1.55-1.117 2.5-.5l4.5 4.5c5.973-1.245 11.806-.579 17.5 2 1.231 1.151 1.231 2.317 0 3.5a14.293 14.293 0 0 0-6.5 2.5c-2.294-.452-4.794-.452-7.5 0-2.452-.039-4.452-.706-6-2a261.273 261.273 0 0 1-13.5-7c-1.907 1.886-4.24 2.886-7 3-4.82-.62-9.653-1.12-14.5-1.5l4-1c-2.612-1.071-2.612-1.905 0-2.5-1.042-1.291-2.208-1.291-3.5 0-1.085-1.236-1.918-2.569-2.5-4 2.585-4.4 1.585-5.067-3-2a14.554 14.554 0 0 0-5-4 35.347 35.347 0 0 0-4-6c-1.306-.967-1.973-2.301-2-4 2.32.667 4.653.834 7 .5.837-1.011 1.17-2.178 1-3.5v-1a25.4 25.4 0 0 1 7-5z"/><path style="opacity:1" fill="#f6f241" d="M98.5 146.5c-1.194.47-1.86 1.47-2 3-.003 3.102.497 3.435 1.5 1l1 2c.18-1.924.346-3.591.5-5 .929 1.189 1.262 2.522 1 4-1.213 2.725-3.046 5.059-5.5 7a135.441 135.441 0 0 1-2.5-7c-3.333-.667-4.667-2.667-4-6 3.428.288 6.761.621 10 1z"/><path style="opacity:1" fill="#2b2113" d="M58.5 145.5c2.057.702 4.057 1.035 6 1-2.1 2.02-4.433 2.354-7 1 .363-.683.696-1.35 1-2z"/><path style="opacity:1" fill="#999331" d="M103.5 144.5c1.193.47 1.86 1.47 2 3l-1 3a3.647 3.647 0 0 1-1.5-1c-.417 1.256-1.25 1.923-2.5 2 .262-1.478-.071-2.811-1-4-.154 1.409-.32 3.076-.5 5l-1-2c-1.003 2.435-1.503 2.102-1.5-1 .14-1.53.806-2.53 2-3 1.291.237 2.291-.096 3-1 .342-.838 1.008-1.172 2-1z"/><path style="opacity:1" fill="#191616" d="M55.5 146.5c.17 1.322-.163 2.489-1 3.5-2.347.334-4.68.167-7-.5-1.238-.31-1.238-.81 0-1.5 1.399-.595 2.732-.428 4 .5 1.122-1.13 2.456-1.797 4-2z"/><path style="opacity:1" fill="#dad82a" d="M101.5 169.5c.848-1.593 2.181-2.76 4-3.5l-2-1c1.167-.5 2-1.333 2.5-2.5 1.588 2.468 3.422 2.634 5.5.5a7.293 7.293 0 0 1-3-2c1.884-.216 3.551-.883 5-2-1.172-.353-2.338-.187-3.5.5-1.3-1.207-2.8-1.874-4.5-2 .215-1.679-.452-2.679-2-3 4.973-2.26 10.306-3.26 16-3 .992.172 1.658-.162 2-1 .996.086 1.829-.248 2.5-1a57.56 57.56 0 0 1 3-8c2.376-2.928 3.876-2.594 4.5 1a21.336 21.336 0 0 0-1 7h3c.735 2.772.901 5.439.5 8 2.783 1.141 4.95 2.975 6.5 5.5a26.091 26.091 0 0 0-5 3.5c-6.554.473-12.721 2.14-18.5 5a48.401 48.401 0 0 0-15.5-2z"/><path style="opacity:1" fill="#41350b" d="M128.5 151.5c2.475.247 2.475.913 0 2-.963-.47-.963-1.137 0-2z"/><path style="opacity:1" fill="#e2de3e" d="M144.5 155.5c-1.815 1.13-3.815 1.796-6 2h-3a32.462 32.462 0 0 1 .5-8c.667 4 1.333 4 2 0 .359 3.044 1.026 3.378 2 1 .667 2.667 1.333 2.667 2 0 .317 1.801.984 2.134 2 1 1.768 1.182 1.935 2.515.5 4z"/><path style="opacity:1" fill="#02050a" d="M49.5 153.5c.219 1.175-.114 2.175-1 3a8.193 8.193 0 0 0-4-2.5l1-1c-1.76-.965-2.094-2.132-1-3.5.86 2.431 2.527 3.764 5 4z"/><path style="opacity:1" fill="#2d2623" d="M83.5 152.5c2.483.23 2.983.897 1.5 2-1.03-.336-1.53-1.003-1.5-2z"/><path style="opacity:1" fill="#d4cf32" d="M103.5 154.5c1.548.321 2.215 1.321 2 3 1.7.126 3.2.793 4.5 2 1.162-.687 2.328-.853 3.5-.5-1.449 1.117-3.116 1.784-5 2a7.293 7.293 0 0 0 3 2c-2.078 2.134-3.912 1.968-5.5-.5-.5 1.167-1.333 2-2.5 2.5l2 1c-1.819.74-3.152 1.907-4 3.5a21.878 21.878 0 0 1-6-7c1.68-3.68 4.347-6.347 8-8z"/><path style="opacity:1" fill="#4a2e2e" d="M82.5 156.5c.997-1.213 1.997-1.046 3 .5-1.077.47-2.077.303-3-.5z"/><path style="opacity:1" fill="#8a803f" d="M144.5 155.5c-.453.958-1.119 1.792-2 2.5 1.184 1.145 1.184 2.312 0 3.5-1.667-1-3-2.333-4-4 2.185-.204 4.185-.87 6-2z"/><path style="opacity:1" fill="#5b4b23" d="M128.5 159.5c3.743-.041 3.91.626.5 2a2.428 2.428 0 0 1-.5-2z"/><path style="opacity:1" fill="#6b612f" d="M70.5 162.5h-1a8.43 8.43 0 0 1-4-.5c2.5-1.167 4.333-3 5.5-5.5a237.67 237.67 0 0 1-.5 6z"/><path style="opacity:1" fill="#83803b" d="M61.5 165.5c-1.527.073-2.527-.594-3-2 4.585-3.067 5.585-2.4 3 2z"/><path style="opacity:1" fill="#231b19" d="M69.5 162.5h1l5 5c-2.041 4.171-4.708 4.838-8 2 2.25.319 4.25-.181 6-1.5-1.964-1.451-3.297-3.284-4-5.5z"/><path style="opacity:1" fill="#615e24" d="M109.5 165.5c1.879-.107 2.212.393 1 1.5-4.802 1.94-5.135 1.44-1-1.5z"/><path style="opacity:1" fill="#503919" d="M116.5 167.5c3.839.112 3.839.779 0 2-.963-.47-.963-1.137 0-2z"/><path style="opacity:1" fill="#615326" d="M90.5 168.5a10.526 10.526 0 0 1 3 2.5c-1.99.519-2.99-.314-3-2.5z"/><path style="opacity:1" fill="#5a433c" d="M94.5 170.5c1.996-1.188 2.83-.521 2.5 2-.708-.881-1.542-1.547-2.5-2z"/><path style="opacity:1" fill="#e6e437" d="M127.5 173.5a17.907 17.907 0 0 1-5 3c-.59-1.597-1.59-2.931-3-4 5.092-2.441 10.426-3.274 16-2.5.457.414.791.914 1 1.5a27.285 27.285 0 0 1-9 2z"/><path style="opacity:1" fill="#393209" d="M94.5 174.5c.997-1.213 1.997-1.046 3 .5-1.077.47-2.077.303-3-.5z"/><path style="opacity:1" fill="#dede3f" d="M86.5 180.5h-1c-1.927-3.834-3.594-3.834-5 0-.79-1.109-1.29-2.442-1.5-4a19.588 19.588 0 0 0-3.5 2l-3 2c.293-1.143.293-2.477 0-4-1.621 1.653-2.788 3.653-3.5 6a2.427 2.427 0 0 1-.5-2c1.314-3.05.314-3.717-3-2-1.196-.346-1.196-.846 0-1.5l-2-.5a223.62 223.62 0 0 1-8 3v-1c.667 0 1-.333 1-1 2.86-2.217 2.527-3.717-1-4.5 4.82-5.243 6.82-4.576 6 2l2 .5c7.83.424 15.496-.076 23-1.5 2.273 2.038 2.273 4.205 0 6.5z"/><path style="opacity:1" fill="#929334" d="m127.5 173.5 3 2a2.428 2.428 0 0 0-2 .5c5.142 2.364 4.809 2.864-1 1.5h-4v4c-1.603.188-2.937-.312-4-1.5 1.556-.72 2.556-1.887 3-3.5a17.907 17.907 0 0 0 5-3z"/><path style="opacity:1" fill="#1c1a13" d="M98.5 178.5c.325-1.632 1.325-2.632 3-3a181.111 181.111 0 0 0 16 1.5c-6.587.741-12.921 1.241-19 1.5z"/><path style="opacity:1" fill="#14141d" d="M85.5 180.5c-.283.789-.783 1.456-1.5 2a19.588 19.588 0 0 1-3.5-2c1.406-3.834 3.073-3.834 5 0z"/><path style="opacity:1" fill="#cbd541" d="M130.5 175.5a20.69 20.69 0 0 1 5 1c2.669 3.177 1.669 4.51-3 4a5.727 5.727 0 0 1-3-1c-1.333 0-2-.667-2-2 5.809 1.364 6.142.864 1-1.5a2.428 2.428 0 0 1 2-.5z"/><path style="opacity:1" fill="#323a18" d="M68.5 180.5h-1c-4.16-.893-8.16-1.226-12-1a223.62 223.62 0 0 0 8-3l2 .5c-1.196.654-1.196 1.154 0 1.5 3.314-1.717 4.314-1.05 3 2z"/><path style="opacity:1" fill="#0b0a14" d="M55.5 178.5v1c3.84-.226 7.84.107 12 1-.15 3.218-.984 3.551-2.5 1-1.714 1.425-3.047 1.092-4-1-3.104 2.619-5.937 2.452-8.5-.5l3-1.5z"/><path style="opacity:1" fill="#0d0b13" d="M75.5 178.5c.901 2.257 2.568 3.757 5 4.5a9.465 9.465 0 0 0-1.5 2.5c-1.798-2.337-3.965-3.003-6.5-2-1.062-.925-1.062-1.925 0-3l3-2z"/><path style="opacity:1" fill="#111114" d="M135.5 176.5a33.052 33.052 0 0 0 6 2.5c-1.349.772-2.182 1.939-2.5 3.5a3.647 3.647 0 0 0-1.5-1c-2.311 1.461-4.644 1.794-7 1a31.147 31.147 0 0 0 2-2c4.669.51 5.669-.823 3-4z"/></svg>