<svg xmlns="http://www.w3.org/2000/svg" width="326" height="428" style="shape-rendering:geometricPrecision;text-rendering:geometricPrecision;image-rendering:optimizeQuality;fill-rule:evenodd;clip-rule:evenodd"><path style="opacity:1" fill="#030310" d="M71.5.5h254v274a157.75 157.75 0 0 1-9 39c.412-2.473-.588-3.806-3-4v-2h1c3.828-5.977 5.494-12.644 5-20 .598-5.313.931-10.646 1-16a17823.85 17823.85 0 0 0 1-267h-256c2.469-.817 5.135-1.317 8-1.5-1.256-.417-1.923-1.25-2-2.5z"/><path style="opacity:1" fill="#628d60" d="M63.5 6.5v-1h4l4 5a28.268 28.268 0 0 0-8-4z"/><path style="opacity:1" fill="#028afd" d="M318.5 7.5v3c-80.009.652-160.009 1.319-240 2a325.759 325.759 0 0 0-5-2l-1-2c.235-.597.735-.93 1.5-1l4 2a7277.005 7277.005 0 0 1 240.5-2z"/><path style="opacity:1" fill="#018bfd" d="M319.5 114.5a852.448 852.448 0 0 0-1 53c-1.149.291-1.816 1.124-2 2.5a792.973 792.973 0 0 1 2 55l-.5 52.5a65.495 65.495 0 0 0-3.5 14.5l-4.5 4.5a11.123 11.123 0 0 1-2.5-1c-.973-1.639-2.306-2.973-4-4a46.428 46.428 0 0 1-3.5-7c-.671-.752-1.504-1.086-2.5-1-2.461-4.8-6.127-8.133-11-10a5.727 5.727 0 0 0-3-1c.086-.996-.248-1.829-1-2.5-3.04-2.22-6.373-3.72-10-4.5v-3c-1.88.271-3.213-.396-4-2a20.69 20.69 0 0 1-1-5h-3c.831-3.976.997-7.976.5-12a17.303 17.303 0 0 0-4.5-4c-1.529.029-2.696.696-3.5 2a53.583 53.583 0 0 0-3.5-11.5 41.474 41.474 0 0 1 2-7.5c-2.059-1.451-3.059-3.451-3-6-2.403-.107-4.236.893-5.5 3l-2.5-2.5a14.828 14.828 0 0 0 2-6.5c-3.382.226-6.382 1.226-9 3-2.112-2.271-4.779-3.604-8-4-3.231-3.762-7.231-6.428-12-8-1.64-2.649-3.307-5.316-5-8a60.678 60.678 0 0 0-3-13.5 13.24 13.24 0 0 1 3-5 308.5 308.5 0 0 0 25-1.5h46c8.692.706 17.525 1.373 26.5 2l1.5-1a883.897 883.897 0 0 1-1.5-41c-.186-2.536-.686-4.869-1.5-7l-2-3c-1.007-2.022-2.674-3.355-5-4 1.835-.928 2.168-2.094 1-3.5-2.679-.434-5.346-.268-8 .5-2.291-.122-4.291-.955-6-2.5a136.26 136.26 0 0 0 11-3.5c-.577-2.05-1.91-3.05-4-3a4.934 4.934 0 0 0-.5-3c-1.596.548-2.763-.118-3.5-2-2.032-.548-3.032-1.881-3-4-2.216.225-3.883-.608-5-2.5a30.931 30.931 0 0 0 3-8c-1.249-2.98-2.916-3.146-5-.5a4.94 4.94 0 0 1-2.5-1 74.524 74.524 0 0 1-2-12c-.708-.88-1.542-1.547-2.5-2a194.338 194.338 0 0 1-3-23h-3c.446-2.51-.22-4.51-2-6a32.462 32.462 0 0 1 .5-8l1 1 .5-2.5a42.823 42.823 0 0 0-6.5-8.5c-2.657 1.073-4.823 2.74-6.5 5 1.077 2.974 1.077 5.974 0 9-2.693 3.04-3.693 6.706-3 11-2.554 4.297-4.554 8.963-6 14a42.912 42.912 0 0 0-2 11c-2.033.449-3.7 1.449-5 3l1 2a6177.913 6177.913 0 0 0-4 17c-1.322-.17-2.489.163-3.5 1a4.934 4.934 0 0 1-.5-3c-1.175-.219-2.175.114-3 1 2.062 1.592 2.395 3.425 1 5.5a18.453 18.453 0 0 1-6 .5v3c3.981-.073 5.647 1.927 5 6 .537 3.798-1.129 5.798-5 6-.798.457-1.131 1.124-1 2a19.22 19.22 0 0 0-6 1c-2.975.213-5.642 1.213-8 3a394.281 394.281 0 0 0-1.5 28c-1.826-1.341-2.993-.841-3.5 1.5.77 1.775 1.937 3.275 3.5 4.5.79 3.134.457 6.134-1 9a45.296 45.296 0 0 1 .5-7h-4c.039 1.859-.794 3.192-2.5 4a29.232 29.232 0 0 0-.5-8c-.925 1.141-1.759 1.141-2.5 0-.342 2.119-1.175 2.453-2.5 1-1.014-1.174-2.347-1.84-4-2a10.134 10.134 0 0 0-1.5-4 113.494 113.494 0 0 1-9.5-8 171.57 171.57 0 0 0-11-16c-1.967-.239-3.801.094-5.5 1-2.24-2.868-5.074-4.868-8.5-6-2.172-5.678-4.839-11.011-8-16-.27-3.858-1.603-7.191-4-10a19.17 19.17 0 0 0-2.5-5 18.452 18.452 0 0 1-.5-6c-3.053-.072-5.719-1.072-8-3h-2c-2.302-4.647-5.969-7.314-11-8-1.982-2.637-4.648-3.97-8-4a5628.602 5628.602 0 0 1-8-9v-4a15.892 15.892 0 0 1 1-6.5l-1-1.5c-1.109 1.09-2.109 1.09-3 0-.103-3.97-1.77-6.97-5-9v-4c.595-5.483-.072-10.816-2-16h-4c.16 1.7-.007 3.366-.5 5-1.75-1.99-2.75-4.323-3-7L80.5 14l1.5-1.5h224l11 2 1-1a1600.552 1600.552 0 0 0-1.5 94.5c-.459 2.96.541 5.126 3 6.5z"/><path style="opacity:1" fill="#ede829" d="M63.5 6.5a28.268 28.268 0 0 1 8 4l2 3c-3.753.726-6.42-.607-8-4-1.395 1.315-2.395.981-3-1a757.127 757.127 0 0 0-55-1c.032 25.512.032 50.845 0 76a1482.841 1482.841 0 0 1-1-77h57z"/><path style="opacity:1" fill="#4a8d75" d="M71.5 10.5h2c4.185 3.262 8.185 6.928 12 11 3.808 4.451 7.141 9.118 10 14v4a167.291 167.291 0 0 0-8-12c-3.64-5.64-8.306-10.306-14-14l-2-3z"/><path style="opacity:1" fill="#0788f3" d="M318.5 7.5a2863.172 2863.172 0 0 1 1 107c-2.459-1.374-3.459-3.54-3-6.5-.428-31.655.072-63.155 1.5-94.5l-1 1-11-2H82L80.5 14l5.5 3.5c.25 2.677 1.25 5.01 3 7 .493-1.634.66-3.3.5-5h4c1.928 5.184 2.595 10.517 2 16-2.859-4.882-6.192-9.549-10-14-3.815-4.072-7.815-7.738-12-11 1.656.646 3.323 1.313 5 2 79.991-.681 159.991-1.348 240-2v-3z"/><path style="opacity:1" fill="#104375" d="M65.5 5.5v-1h256a17823.85 17823.85 0 0 1-1 267V5.5h-255z"/><path style="opacity:1" fill="#948d36" d="M63.5 5.5h-58v80h-1v-81c19.84-.33 39.507.003 59 1z"/><path style="opacity:1" fill="#fbf565" d="M63.5 5.5v1h-57c-.331 25.839.002 51.505 1 77 0 1.333-.667 2-2 2v-80h58z"/><path style="opacity:1" fill="#1a81de" d="M266.5 43.5c-.838-.342-1.172-1.008-1-2a42.198 42.198 0 0 0-3.5-13 4.934 4.934 0 0 0-.5 3h-4v6l-2 2c1.077-3.026 1.077-6.026 0-9 1.677-2.26 3.843-3.927 6.5-5a42.823 42.823 0 0 1 6.5 8.5l-.5 2.5-1-1a32.462 32.462 0 0 0-.5 8z"/><path style="opacity:1" fill="#1a3433" d="M261.5 31.5c1.268 2.405 1.935 5.072 2 8a53.405 53.405 0 0 1-3.5-7 38.728 38.728 0 0 1-2.5 5v-6h4z"/><path style="opacity:1" fill="#2e7fb5" d="m265.5 41.5-2-2c-.065-2.928-.732-5.595-2-8a4.934 4.934 0 0 1 .5-3 42.198 42.198 0 0 1 3.5 13z"/><path style="opacity:1" fill="#c5e467" d="M87.5 27.5a167.291 167.291 0 0 1 8 12v4a257.113 257.113 0 0 1-7.5-12 8.434 8.434 0 0 1-.5-4z"/><path style="opacity:1" fill="#0e281f" d="M257.5 37.5a81.798 81.798 0 0 0-2 10l-2 3a128.712 128.712 0 0 1 2-11l2-2z"/><path style="opacity:1" fill="#d7db54" d="M263.5 39.5c1.561 8.337 3.894 16.337 7 24l1 8c-1.25-.077-2.083-.744-2.5-2a222.584 222.584 0 0 1-7-28 3.646 3.646 0 0 0-1.5-1c-.95 2.92-2.616 5.253-5 7a81.798 81.798 0 0 1 2-10 38.728 38.728 0 0 0 2.5-5 53.405 53.405 0 0 0 3.5 7z"/><path style="opacity:1" fill="#2e7cac" d="M255.5 39.5a128.712 128.712 0 0 0-2 11h-1c-.693-4.294.307-7.96 3-11z"/><path style="opacity:1" fill="#548965" d="M95.5 41.5c2.592 1.536 3.592 3.87 3 7a27.185 27.185 0 0 1-3-5v-2z"/><path style="opacity:1" fill="#208ad6" d="M95.5 39.5c3.23 2.03 4.897 5.03 5 9 .891 1.09 1.891 1.09 3 0l1 1.5a15.892 15.892 0 0 0-1 6.5 46.702 46.702 0 0 0-5-8c.592-3.13-.408-5.464-3-7v-2z"/><path style="opacity:1" fill="#40867f" d="M98.5 48.5a46.702 46.702 0 0 1 5 8v4a25.106 25.106 0 0 1-5-8v-4z"/><path style="opacity:1" fill="#16372b" d="m263.5 39.5 2 2c-.172.992.162 1.658 1 2a328.046 328.046 0 0 0 4 20c-3.106-7.663-5.439-15.663-7-24z"/><path style="opacity:1" fill="#2881cf" d="M266.5 43.5c1.78 1.49 2.446 3.49 2 6h3c.543 7.733 1.543 15.4 3 23a98.42 98.42 0 0 1-4-9 328.046 328.046 0 0 1-4-20z"/><path style="opacity:1" fill="#082110" d="M252.5 50.5h1c-.428 3.285-1.428 6.285-3 9a33.693 33.693 0 0 1 2-9z"/><path style="opacity:1" fill="#559164" d="M103.5 60.5c2.638 2.974 5.305 5.974 8 9-4.102-1.766-6.769-4.766-8-9z"/><path style="opacity:1" fill="#2e6ca1" d="M252.5 50.5a33.693 33.693 0 0 0-2 9c.268 1.599-.066 2.932-1 4-2.306 3.585-3.639 7.585-4 12h-1c.185-3.744.852-7.41 2-11 1.446-5.037 3.446-9.703 6-14z"/><path style="opacity:1" fill="#dfdd40" d="M255.5 47.5a359.112 359.112 0 0 0-3.5 21c-3.115 5.175-5.115 10.842-6 17-.377 1.442-1.21 2.442-2.5 3v-3a81.798 81.798 0 0 0 2-10c1.905-3.716 3.239-7.716 4-12 .934-1.068 1.268-2.401 1-4 1.572-2.715 2.572-5.715 3-9l2-3z"/><path style="opacity:1" fill="#e1ee44" d="M98.5 52.5a25.106 25.106 0 0 0 5 8c1.231 4.234 3.898 7.234 8 9 1.982 2.637 4.648 3.97 8 4a31.54 31.54 0 0 1 8 7 120.832 120.832 0 0 1-19-8.5 34.706 34.706 0 0 0-7.5-6.5 89.427 89.427 0 0 1-2.5-13z"/><path style="opacity:1" fill="#0b2216" d="M249.5 63.5c-.761 4.284-2.095 8.284-4 12 .361-4.415 1.694-8.415 4-12z"/><path style="opacity:1" fill="#fcf10d" d="M271.5 71.5a66.753 66.753 0 0 0 1.5 14 6.544 6.544 0 0 1 3 3c.18 3.456.847 6.789 2 10 1.011.837 2.178 1.17 3.5 1 1 .333 1.667 1 2 2-.086.996.248 1.829 1 2.5a8.43 8.43 0 0 1-4 .5c-14.337.167-28.671 0-43-.5-.811-2.291.023-4.125 2.5-5.5 1.17-3.357 2.337-6.69 3.5-10 1.29-.558 2.123-1.558 2.5-3 .885-6.158 2.885-11.825 6-17a359.112 359.112 0 0 1 3.5-21c2.384-1.747 4.05-4.08 5-7 .586.21 1.086.543 1.5 1a222.584 222.584 0 0 0 7 28c.417 1.256 1.25 1.923 2.5 2z"/><path style="opacity:1" fill="#13271a" d="M270.5 63.5a98.42 98.42 0 0 0 4 9 241.573 241.573 0 0 1 3 15 360.136 360.136 0 0 1-6-16l-1-8z"/><path style="opacity:1" fill="#4a8771" d="M111.5 69.5c3.352.03 6.018 1.363 8 4-3.352-.03-6.018-1.363-8-4z"/><path style="opacity:1" fill="#498884" d="M119.5 73.5c5.031.686 8.698 3.353 11 8a5.728 5.728 0 0 1-3-1 31.54 31.54 0 0 0-8-7z"/><path style="opacity:1" fill="#2a7ec4" d="M244.5 75.5a214.185 214.185 0 0 0-4 16l-4 6a6177.913 6177.913 0 0 1 4-17l-1-2c1.3-1.551 2.967-2.551 5-3z"/><path style="opacity:1" fill="#40826f" d="M130.5 81.5h2c3.137 2.799 5.471 6.132 7 10l-2-1a44.893 44.893 0 0 0-7-9z"/><path style="opacity:1" fill="#072110" d="M244.5 75.5h1a81.798 81.798 0 0 1-2 10l-3 6a214.185 214.185 0 0 1 4-16z"/><path style="opacity:1" fill="#2488c6" d="M132.5 81.5c2.281 1.928 4.947 2.928 8 3a18.452 18.452 0 0 0 .5 6 19.17 19.17 0 0 1 2.5 5c-1.667-1-3-2.333-4-4-1.529-3.868-3.863-7.201-7-10z"/><path style="opacity:1" fill="#410000" d="M4.5 86.5c-.298 67.01.035 134.01 1 201-.817-2.469-1.317-5.135-1.5-8a6213.936 6213.936 0 0 1 .5-193z"/><path style="opacity:1" fill="#fc0100" d="M9.5 90.5c8.315 5.305 16.648 10.639 25 16 1.13 1.815 1.796 3.815 2 6 3.194-.324 4.194.842 3 3.5a13.017 13.017 0 0 1 4 4.5c.825.886 1.825 1.219 3 1a172.133 172.133 0 0 0 3.5 22c.763 2.693 2.263 4.693 4.5 6a9.864 9.864 0 0 0 1 6c5.43 1.749 8.096 5.416 8 11 1.7-.126 3.2-.793 4.5-2 7.086 1.398 7.253 3.231.5 5.5-1.333.667-1.333 1.333 0 2 2 .667 4 .667 6 0 1.272-2.261 2.938-2.761 5-1.5a47.059 47.059 0 0 0 5 6.5c-7 4.825-6 7.325 3 7.5-.225-2.216.608-3.883 2.5-5 .374.916.874 1.75 1.5 2.5.095 2.479-.571 4.979-2 7.5 2.412.363 3.912-.637 4.5-3 1.836 1.169 3.002 2.836 3.5 5-2.487.282-5.153.282-8 0-1.075 4.438.592 6.438 5 6-.32 3.811 1.18 5.144 4.5 4a419.096 419.096 0 0 1 8.5 17.5c-2.25.611-3.917 1.944-5 4a43.077 43.077 0 0 0-10 2.5l-3-.5c1.333-.667 1.333-1.333 0-2-3.428-.701-6.762-.368-10 1 2.841 2.591 6.008 3.424 9.5 2.5.995.566 1.828 1.233 2.5 2-2.568 1.143-5.235.976-8-.5a42.479 42.479 0 0 0-13 0 14.962 14.962 0 0 0-3 3.5c-1.545.952-3.212 1.285-5 1 .216 2.181-.617 3.847-2.5 5a62.687 62.687 0 0 1-1.5 11c-3.14.589-6.14 1.256-9 2a32.743 32.743 0 0 0-8.5 6 8.435 8.435 0 0 0-.5 4c-1.138 2.804-1.304 5.804-.5 9 1.663 1.658 2.496 3.658 2.5 6h7a8.43 8.43 0 0 1 4 .5c1.228 2.14 2.895 3.807 5 5 .621 2.498-.045 4.832-2 7 2.437 1.375 5.103 1.875 8 1.5v7a179.674 179.674 0 0 1-26.5-1c-2.574 1.502-5.407 2.502-8.5 3a26.035 26.035 0 0 0-4 4.5c1.646 1.555 1.98 3.221 1 5 1.5.833 2.667 2 3.5 3.5 1.77-1.918 3.937-2.418 6.5-1.5 1.51 2.506 3.01 5.006 4.5 7.5 4.008 2.078 7.508 4.744 10.5 8 .395 3.023-.605 4.023-3 3a13.118 13.118 0 0 0-1 7h-6v6h-4c.787 4.43 1.62 8.763 2.5 13-1.262-1.803-2.929-3.136-5-4-.518-2.523-1.852-4.523-4-6-2.198-3.337-2.03-5.671.5-7a42.663 42.663 0 0 0-5-12l-2 2c-4.212-2.861-5.212-6.695-3-11.5a87.007 87.007 0 0 0-2-8.5 29.806 29.806 0 0 1-5 .5c1.537-1.11 2.203-2.61 2-4.5-1.322.17-2.489-.163-3.5-1 .948-5.598-.052-10.931-3-16l-1-8c-.174-62.022-.674-124.022-1.5-186 .247-1.213.914-1.88 2-2z"/><path style="opacity:1" fill="#a3cb70" d="m137.5 90.5 2 1c1 1.667 2.333 3 4 4a53.76 53.76 0 0 0 2 8 45.234 45.234 0 0 0-6-9c-1.1-1.105-1.767-2.438-2-4z"/><path style="opacity:1" fill="#d7db48" d="M271.5 71.5a360.136 360.136 0 0 0 6 16c.112 4.465 1.445 8.465 4 12-1.322.17-2.489-.163-3.5-1a34.784 34.784 0 0 1-2-10 6.544 6.544 0 0 0-3-3 66.753 66.753 0 0 1-1.5-14z"/><path style="opacity:1" fill="#fbd52f" d="M7.5 83.5c2.75 1.244 5.083 3.077 7 5.5 4.209.55 7.542 2.55 10 6a29.95 29.95 0 0 0 9 2c-2.189.677-2.522 1.844-1 3.5a50.531 50.531 0 0 0 12 6l3 10c-10.811-11.75-23.478-21.084-38-28l-4-3c1.333 0 2-.667 2-2z"/><path style="opacity:1" fill="#182e15" d="M277.5 87.5c1.608 2.71 2.775 5.71 3.5 9 2.782 2.27 4.949 4.937 6.5 8l-4-3c-.333-1-1-1.667-2-2-2.555-3.535-3.888-7.535-4-12z"/><path style="opacity:1" fill="#348381" d="M143.5 95.5c2.397 2.809 3.73 6.142 4 10l-2-2a53.76 53.76 0 0 1-2-8z"/><path style="opacity:1" fill="#bfc146" d="M243.5 85.5v3c-1.163 3.31-2.33 6.643-3.5 10-2.477 1.375-3.311 3.209-2.5 5.5 14.329.5 28.663.667 43 .5v1h-47c-2.198.091-2.531-.575-1-2 4.709-2.697 7.376-6.697 8-12l3-6z"/><path style="opacity:1" fill="#182a17" d="M240.5 91.5c-.624 5.303-3.291 9.303-8 12a17.901 17.901 0 0 1 4-6l4-6z"/><path style="opacity:1" fill="#e3eb43" d="M139.5 94.5a45.234 45.234 0 0 1 6 9c-.09 2.652.576 4.985 2 7a154.462 154.462 0 0 0 12 20 4.934 4.934 0 0 1-3-.5 50.97 50.97 0 0 0-9-11.5c-1.434-6.715-3.934-13.048-7.5-19a12.93 12.93 0 0 1-.5-5z"/><path style="opacity:1" fill="#c23600" d="M9.5 88.5c14.522 6.916 27.189 16.25 38 28v1a36.721 36.721 0 0 1 4 14v4a954.58 954.58 0 0 0-4.5-15c-3.11-2.283-5.278-5.283-6.5-9-2.02-1.69-4.02-3.356-6-5a10979.333 10979.333 0 0 0-25-16v-2z"/><path style="opacity:1" fill="#9ec074" d="m283.5 101.5 4 3v1h-7v-1a8.43 8.43 0 0 0 4-.5c-.752-.671-1.086-1.504-1-2.5z"/><path style="opacity:1" fill="#2984d3" d="M274.5 72.5c.958.453 1.792 1.12 2.5 2a74.524 74.524 0 0 0 2 12 4.94 4.94 0 0 0 2.5 1c2.084-2.646 3.751-2.48 5 .5a30.931 30.931 0 0 1-3 8c1.117 1.892 2.784 2.725 5 2.5-.032 2.119.968 3.452 3 4 1.505 6.155-.829 8.155-7 6 .188 2.706 1.188 5.039 3 7h-2c-.815-1.337-1.982-2.337-3.5-3a18.453 18.453 0 0 1-.5-6c2.235.295 4.235-.039 6-1v-1c-1.551-3.063-3.718-5.73-6.5-8-.725-3.29-1.892-6.29-3.5-9a241.573 241.573 0 0 0-3-15z"/><path style="opacity:1" fill="#b4d97b" d="m145.5 103.5 2 2v5c-1.424-2.015-2.09-4.348-2-7z"/><path style="opacity:1" fill="#3e8681" d="M147.5 105.5c3.161 4.989 5.828 10.322 8 16a50.784 50.784 0 0 1 5.5 8c1.637 2.31 3.804 3.81 6.5 4.5a30.786 30.786 0 0 0 3 4.5 66.438 66.438 0 0 1-9-6c-.333-1-1-1.667-2-2a154.462 154.462 0 0 1-12-20v-5z"/><path style="opacity:1" fill="#354022" d="M239.5 106.5v-1h48c-1.765.961-3.765 1.295-6 1a18.453 18.453 0 0 0 .5 6c1.518.663 2.685 1.663 3.5 3a20.69 20.69 0 0 1-5-1h-1v-8h-40z"/><path style="opacity:1" fill="#0a0403" d="M71.5.5c.077 1.25.744 2.083 2 2.5-2.865.183-5.531.683-8 1.5v1h-2a870.843 870.843 0 0 0-59-1v82a6213.936 6213.936 0 0 0-.5 193c.183 2.865.683 5.531 1.5 8a60.937 60.937 0 0 0 .5 11 87.723 87.723 0 0 1 6.5 26c-6.65-15.229-10.65-31.229-12-48V.5h71z"/><path style="opacity:1" fill="#fbf10e" d="M266.5 157.5c.14-1.624-.527-2.79-2-3.5l1-1c-12.37-4.281-17.036-.281-14 12a16.2 16.2 0 0 1-1.5 3.5c-3 1.333-6 1.333-9 0a873.708 873.708 0 0 0-1.5-42v-12c.968-2.107 1.302-4.441 1-7h38v62a49.369 49.369 0 0 1-11-1c.315-3.871-.018-7.538-1-11z"/><path style="opacity:1" fill="#1589eb" d="M291.5 102.5c.737 1.882 1.904 2.548 3.5 2 .483.948.649 1.948.5 3 2.09-.05 3.423.95 4 3a136.26 136.26 0 0 1-11 3.5c1.709 1.545 3.709 2.378 6 2.5 2.654-.768 5.321-.934 8-.5 1.168 1.406.835 2.572-1 3.5 2.326.645 3.993 1.978 5 4a245.215 245.215 0 0 1-19-8c-1.812-1.961-2.812-4.294-3-7 6.171 2.155 8.505.155 7-6z"/><path style="opacity:1" fill="#807d83" d="M-.5-.5h326v1H.5v276h-1V-.5z"/><path style="opacity:1" fill="#113324" d="M233.5 105.5h6v1a31.204 31.204 0 0 1-3 9 29.417 29.417 0 0 1-7 2c2.108-1.559 4.441-2.892 7-4a13.116 13.116 0 0 0 1-7c-1.599.268-2.932-.066-4-1z"/><path style="opacity:1" fill="#2d83ce" d="M236.5 97.5a17.901 17.901 0 0 0-4 6c-1.531 1.425-1.198 2.091 1 2 1.068.934 2.401 1.268 4 1a13.116 13.116 0 0 1-1 7c-2.559 1.108-4.892 2.441-7 4-2.053-.098-3.72.569-5 2h-1c-.131-.876.202-1.543 1-2 3.871-.202 5.537-2.202 5-6 .647-4.073-1.019-6.073-5-6v-3a18.453 18.453 0 0 0 6-.5c1.395-2.075 1.062-3.908-1-5.5.825-.886 1.825-1.219 3-1a4.934 4.934 0 0 0 .5 3c1.011-.837 2.178-1.17 3.5-1z"/><path style="opacity:1" fill="#dc2303" d="M34.5 106.5c1.98 1.644 3.98 3.31 6 5 1.222 3.717 3.39 6.717 6.5 9a954.58 954.58 0 0 1 4.5 15l4 8c1.957 4.275 4.624 7.941 8 11l4 5c-3.595.028-6.595-1.305-9-4-.858-2.401-2.191-4.401-4-6-2.237-1.307-3.737-3.307-4.5-6a172.133 172.133 0 0 1-3.5-22c-1.175.219-2.175-.114-3-1a13.017 13.017 0 0 0-4-4.5c1.194-2.658.194-3.824-3-3.5-.204-2.185-.87-4.185-2-6z"/><path style="opacity:1" fill="#103c1e" d="M229.5 117.5c-1.28 1.431-2.947 2.098-5 2 1.28-1.431 2.947-2.098 5-2z"/><path style="opacity:1" fill="#a0993c" d="M280.5 114.5a20.69 20.69 0 0 0 5 1v1h-4v9c-.982-3.462-1.315-7.129-1-11z"/><path style="opacity:1" fill="#296157" d="M223.5 119.5h1l-2 2a32.508 32.508 0 0 0-7 3v-1c.282-1.278.949-2.278 2-3a19.22 19.22 0 0 1 6-1z"/><path style="opacity:1" fill="#f8ee1e" d="M233.5 125.5h-10c-.418-.722-1.084-1.222-2-1.5.752-.671 1.086-1.504 1-2.5 2.747.313 5.414-.02 8-1 1.439-2.053 3.439-3.053 6-3 .671 3.486-.329 6.153-3 8z"/><path style="opacity:1" fill="#dfdd4c" d="M236.5 115.5c1.277 1.194 1.944 2.86 2 5-.007 1.869-.34 3.536-1 5h-4c2.671-1.847 3.671-4.514 3-8-2.561-.053-4.561.947-6 3a16.873 16.873 0 0 1-8 1l2-2c2.053.098 3.72-.569 5-2a29.417 29.417 0 0 0 7-2z"/><path style="opacity:1" fill="#8e831f" d="M256.5 116.5c6.849-.377 9.516 2.956 8 10h-10c-.348-3.585.319-6.918 2-10z"/><path style="opacity:1" fill="#e9e342" d="M255.5 121.5h8v4h-8v-4z"/><path style="opacity:1" fill="#e5f26c" d="M222.5 121.5c.086.996-.248 1.829-1 2.5.916.278 1.582.778 2 1.5-3.213.31-6.213-.023-9-1h1a32.508 32.508 0 0 1 7-3z"/><path style="opacity:1" fill="#f3f141" d="M285.5 116.5c4.662 1.997 9.329 3.997 14 6v3h-18v-9h4z"/><path style="opacity:1" fill="#dae295" d="M299.5 122.5a16.339 16.339 0 0 0 5 2c-1.419.951-3.085 1.284-5 1v-3z"/><path style="opacity:1" fill="#938927" d="M214.5 124.5c2.787.977 5.787 1.31 9 1h14c-8.15.993-16.483 1.326-25 1 .333-1 1-1.667 2-2z"/><path style="opacity:1" fill="#958827" d="M304.5 124.5c1 .333 1.667 1 2 2-8.517.326-16.85-.007-25-1h18c1.915.284 3.581-.049 5-1z"/><path style="opacity:1" fill="#fde229" d="M47.5 117.5c4.123 1.483 6.123 4.483 6 9l4 2c-.825.886-1.825 1.219-3 1a24.846 24.846 0 0 0 1 8c2.132 1.753 3.799 3.92 5 6.5-.457.414-.79.914-1 1.5a53.045 53.045 0 0 1 4 9c-3.376-3.059-6.043-6.725-8-11-.426-4.402-1.76-8.402-4-12a36.721 36.721 0 0 0-4-14z"/><path style="opacity:1" fill="#4e3f00" d="M279.5 114.5h1c-.315 3.871.018 7.538 1 11 8.15.993 16.483 1.326 25 1 .667 0 1 .333 1 1h-26a484.723 484.723 0 0 0-1 44h-1v-57z"/><path style="opacity:1" fill="#138be7" d="M155.5 121.5c3.426 1.132 6.26 3.132 8.5 6 1.699-.906 3.533-1.239 5.5-1a171.57 171.57 0 0 1 11 16c-3.16-1.919-6.494-3.252-10-4a30.786 30.786 0 0 1-3-4.5c-2.696-.69-4.863-2.19-6.5-4.5a50.784 50.784 0 0 0-5.5-8z"/><path style="opacity:1" fill="#f9be31" d="M51.5 131.5c2.24 3.598 3.574 7.598 4 12l-4-8v-4z"/><path style="opacity:1" fill="#ece256" d="M239.5 106.5h40v65h-13v-14c.982 3.462 1.315 7.129 1 11a49.369 49.369 0 0 0 11 1v-62h-38c.302 2.559-.032 4.893-1 7v-8z"/><path style="opacity:1" fill="#418a84" d="M170.5 138.5c3.506.748 6.84 2.081 10 4a113.494 113.494 0 0 0 9.5 8 10.134 10.134 0 0 1 1.5 4l-4-3h-1a74.658 74.658 0 0 0-16-13z"/><path style="opacity:1" fill="#574e01" d="M239.5 106.5v65h-2v-1a462.903 462.903 0 0 0 1-43h-27c0-.667.333-1 1-1 8.517.326 16.85-.007 25-1 .66-1.464.993-3.131 1-5-.056-2.14-.723-3.806-2-5a31.204 31.204 0 0 0 3-9z"/><path style="opacity:1" fill="#b1ae47" d="M281.5 127.5v43h25v-43h1v43c0 .667-.333 1-1 1h-26a484.723 484.723 0 0 1 1-44z"/><path style="opacity:1" fill="#faf151" d="M281.5 127.5h2a285.902 285.902 0 0 0-.5 41 130.161 130.161 0 0 0 22.5 1v-41c-6.854.324-13.521-.009-20-1h21v43h-25v-43z"/><path style="opacity:1" fill="#e9ec36" d="M161.5 132.5a66.438 66.438 0 0 0 9 6 74.658 74.658 0 0 1 16 13c-4.144-.907-7.644-2.907-10.5-6-.822 4.005-1.322 7.838-1.5 11.5a50.356 50.356 0 0 1 5 10.5c-4.383-7.222-10.05-13.389-17-18.5-3.436.384-6.436 1.884-9 4.5a51.569 51.569 0 0 0-1-7c1.322-.17 2.489.163 3.5 1 4.742-3.988 8.242-3.322 10.5 2 1.806 1.359 3.306 1.025 4.5-1a11.333 11.333 0 0 1 1.5-3.5c-2.36-4.093-5.693-7.26-10-9.5a5.576 5.576 0 0 1-1-3z"/><path style="opacity:1" fill="#317ea3" d="M215.5 123.5v1h-1c-1 .333-1.667 1-2 2-.667 0-1 .333-1 1a441.579 441.579 0 0 0-1 42c-1.161-14.494-1.328-29.161-.5-44 1.584-1.361 3.418-2.028 5.5-2z"/><path style="opacity:1" fill="#a3cc74" d="m187.5 151.5 4 3v2c-2.087-1.085-3.42-2.751-4-5z"/><path style="opacity:1" fill="#092611" d="M285.5 116.5v-1h2a245.215 245.215 0 0 0 19 8l2 3v44h-1v-43c0-.667-.333-1-1-1-.333-1-1-1.667-2-2a16.339 16.339 0 0 1-5-2 39263.53 39263.53 0 0 0-14-6z"/><path style="opacity:1" fill="#a1b352" d="M211.5 127.5h1c-.65 14.706.017 29.039 2 43h23v1h-25a484.723 484.723 0 0 1-1-44z"/><path style="opacity:1" fill="#fcd031" d="M63.5 154.5a31.69 31.69 0 0 1 6 2c2.51 3.255 5.844 4.922 10 5a4.932 4.932 0 0 0 .5 3 20.428 20.428 0 0 0 5.5 1.5 39.098 39.098 0 0 1 2 4.5 320.443 320.443 0 0 0-19-11h-1l-4-5z"/><path style="opacity:1" fill="#8fbc6d" d="M191.5 156.5c2.414 1.411 4.081 3.411 5 6l-3-2c-1.1-1.105-1.767-2.438-2-4z"/><path style="opacity:1" fill="#2e86a6" d="M191.5 154.5c1.653.16 2.986.826 4 2a32.894 32.894 0 0 1 3 7l-2-1c-.919-2.589-2.586-4.589-5-6v-2z"/><path style="opacity:1" fill="#6a5f13" d="m264.5 156.5 2 1v14c-2.235.295-4.235-.039-6-1h5c.313-3.542-.021-6.875-1-10h-10c-.979 3.125-1.313 6.458-1 10h5c-1.765.961-3.765 1.295-6 1a98.432 98.432 0 0 1 .5-14c2.608-3.88 6.108-4.88 10.5-3 .363.683.696 1.35 1 2z"/><path style="opacity:1" fill="#c9bf82" d="M264.5 156.5c-1.422 2.601-2.756 2.434-4-.5l.5-1.5c.816 1.323 1.983 1.989 3.5 2z"/><path style="opacity:1" fill="#aca226" d="M254.5 160.5v9h4v-9h2v9h4v-9c.979 3.125 1.313 6.458 1 10h-12c-.313-3.542.021-6.875 1-10z"/><path style="opacity:1" fill="#4c875f" d="m196.5 162.5 2 1 1 4v2c-1.565-2.009-2.565-4.343-3-7z"/><path style="opacity:1" fill="#f2f146" d="M254.5 160.5h4v9h-4v-9z"/><path style="opacity:1" fill="#dcd846" d="M212.5 127.5h26a462.903 462.903 0 0 1-1 43 510.54 510.54 0 0 0-1-42 121.862 121.862 0 0 0-22 1 210.835 210.835 0 0 0 0 41c-1.983-13.961-2.65-28.294-2-43z"/><path style="opacity:1" fill="#f9ef17" d="M237.5 170.5h-23a210.835 210.835 0 0 1 0-41 121.862 121.862 0 0 1 22-1 510.54 510.54 0 0 1 1 42z"/><path style="opacity:1" fill="#938808" d="M231.5 142.5c.985 4.134 1.318 8.468 1 13h-14v-12h1v10h11v-10c.667 0 1-.333 1-1z"/><path style="opacity:1" fill="#f5ed41" d="M219.5 143.5h11v10h-11v-10z"/><path style="opacity:1" fill="#352e01" d="M219.5 140.5c3.616 2.342 7.616 2.675 12 1v1c0 .667-.333 1-1 1h-12c-.237-1.291.096-2.291 1-3z"/><path style="opacity:1" fill="#8e843c" d="M231.5 141.5c-4.384 1.675-8.384 1.342-12-1 2.413-4.185 5.746-5.019 10-2.5a18.473 18.473 0 0 1 2 3.5z"/><path style="opacity:1" fill="#fcf108" d="M73.5 13.5c5.694 3.694 10.36 8.36 14 14a8.434 8.434 0 0 0 .5 4 257.113 257.113 0 0 0 7.5 12 27.185 27.185 0 0 0 3 5v4a89.427 89.427 0 0 0 2.5 13 34.706 34.706 0 0 1 7.5 6.5 120.832 120.832 0 0 0 19 8.5c.891.61 1.891.943 3 1a44.893 44.893 0 0 1 7 9c.233 1.562.9 2.895 2 4-.16 1.7.006 3.366.5 5 3.566 5.952 6.066 12.285 7.5 19a50.97 50.97 0 0 1 9 11.5 4.934 4.934 0 0 0 3 .5c1 .333 1.667 1 2 2a5.576 5.576 0 0 0 1 3c4.307 2.24 7.64 5.407 10 9.5a11.333 11.333 0 0 0-1.5 3.5c-1.194 2.025-2.694 2.359-4.5 1-2.258-5.322-5.758-5.988-10.5-2-1.011-.837-2.178-1.17-3.5-1a51.569 51.569 0 0 1 1 7c-2.714-.25-5.381-.417-8-.5 2.456 2.159 1.79 2.992-2 2.5l-2-1c-.011-1.517-.677-2.684-2-3.5a56.723 56.723 0 0 0-17 .5c-1.287 1.563-2.454 3.897-3.5 7a145.053 145.053 0 0 0-.5 17c1.859-.039 3.192.794 4 2.5-2.177 1.186-3.177 3.019-3 5.5-7.834 2.339-9.668 7.005-5.5 14 1.451 1.964 3.284 3.297 5.5 4 13.811 13.96 30.478 18.96 50 15 4.184.21 7.684-1.123 10.5-4a86.81 86.81 0 0 0 2.5-19v-2c1.317-6.178 1.317-12.512 0-19-.641-1.493-1.641-2.493-3-3v-2a50.356 50.356 0 0 0-5-10.5c.178-3.662.678-7.495 1.5-11.5 2.856 3.093 6.356 5.093 10.5 6h1c.58 2.249 1.913 3.915 4 5 .233 1.562.9 2.895 2 4 3.031 5.924 5.198 12.257 6.5 19a51.882 51.882 0 0 1 4.5 9c.457.798 1.124 1.131 2 1 1.39 1.399 2.39 3.066 3 5 2.667 4.667 6.333 8.333 11 11 2.437 4.063 6.104 6.397 11 7 2.245.596 4.245 1.596 6 3l2 3a82.014 82.014 0 0 1 5.5 9 30.786 30.786 0 0 1 4.5 3v1a118.82 118.82 0 0 1 3.5 14c1.935 5.197 4.601 9.863 8 14a100.235 100.235 0 0 1 12.5 11.5c1.973.495 3.973.662 6 .5l4 1c.473 1.406 1.473 2.073 3 2 1.739 2.743 4.073 4.743 7 6a25.497 25.497 0 0 0 5 7c.756 4.425 3.089 7.758 7 10l2 2 1 4c.831 3.976.997 7.976.5 12a428.145 428.145 0 0 1-7.5 20c-3.062 2.744-5.396 6.078-7 10a7.248 7.248 0 0 1-2.5-2 76.366 76.366 0 0 0-2.5 12c-1.175-.219-2.175.114-3 1-.822 3.292-2.656 4.625-5.5 4 .584 4.935-1.249 6.602-5.5 5-.901 4.004-1.901 7.337-3 10-1.478-.262-2.811.071-4 1-.646 2.477-2.146 4.144-4.5 5a88.06 88.06 0 0 1-7.5-10 135.23 135.23 0 0 1-10-9.5c-4.962-2.695-10.295-4.195-16-4.5a55.849 55.849 0 0 1-14-11 66.78 66.78 0 0 0-4.5-10 102.082 102.082 0 0 0-2.5-14c-3.221-3.69-5.221-8.023-6-13l-5-4c-2.027-6.364-6.361-9.697-13-10-2.353-.84-4.353-2.174-6-4-2.926-2.615-6.259-4.615-10-6-2.414-1.411-4.081-3.411-5-6a12.93 12.93 0 0 0-.5-5c-5.522-6.218-8.522-13.551-9-22-.589-2.363-2.089-3.363-4.5-3v-1c.262-1.478-.071-2.811-1-4a129.435 129.435 0 0 1-7.5-9c-2.397-2.282-5.231-3.616-8.5-4a4.934 4.934 0 0 0-.5-3 40.04 40.04 0 0 0-6.5-4l1-2c-2.218-.557-4.551-.557-7 0 .012-2.642-1.321-3.975-4-4a9.108 9.108 0 0 0-1-5c.535-1.771 1.369-2.104 2.5-1a4.934 4.934 0 0 0 .5-3c3.297.171 3.631-.495 1-2-5.622 4.685-8.955 3.351-10-4-3.513-4.339-5.68-9.339-6.5-15-1.139-3.323-2.973-5.99-5.5-8a70.882 70.882 0 0 0-10-10 39.098 39.098 0 0 0-2-4.5 20.428 20.428 0 0 1-5.5-1.5 4.932 4.932 0 0 1-.5-3c-4.156-.078-7.49-1.745-10-5a31.69 31.69 0 0 0-6-2 53.045 53.045 0 0 0-4-9 3.646 3.646 0 0 1 1-1.5c-1.201-2.58-2.868-4.747-5-6.5a24.846 24.846 0 0 1-1-8c1.175.219 2.175-.114 3-1l-4-2c.123-4.517-1.877-7.517-6-9v-1l-3-10a50.531 50.531 0 0 1-12-6c-1.522-1.656-1.189-2.823 1-3.5a29.95 29.95 0 0 1-9-2c-2.458-3.45-5.791-5.45-10-6-1.917-2.423-4.25-4.256-7-5.5.032-25.155.032-50.488 0-76 18.345-.333 36.679 0 55 1 .605 1.981 1.605 2.315 3 1 1.58 3.393 4.247 4.726 8 4z"/><path style="opacity:1" fill="#b9b943" d="M83.5 80.5c.696 4.662-.304 8.829-3 12.5a8.434 8.434 0 0 1-4 .5 19.606 19.606 0 0 1 3.5-2c1.034-3.833 2.2-7.5 3.5-11z"/><path style="opacity:1" fill="#eee337" d="M17.5 65.5a11.81 11.81 0 0 0-2 3.5C24.551 85.788 38.718 94.62 58 95.5c5.869-.434 11.702-1.1 17.5-2-.93.815-1.93 1.648-3 2.5-12.063.87-24.063.37-36-1.5a7.253 7.253 0 0 0-2-2.5l-9-1-3-3c2.355-1.865 2.522-4.031.5-6.5-1.183 1.231-2.35 1.231-3.5 0 1.333-1 1.333-2 0-3a54.513 54.513 0 0 0-4.5-2c-.667-4-.667-8 0-12 .67.752 1.504 1.086 2.5 1z"/><path style="opacity:1" fill="#e9e049" d="M68.5 28.5c2.575 1.228 4.908 2.895 7 5a3.646 3.646 0 0 0 1.5-1c4.404 5.486 7.237 11.82 8.5 19a196.88 196.88 0 0 1 1 28h-3c5.07-20.072.07-37.072-15-51z"/><path style="opacity:1" fill="#172211" d="M68.5 28.5c15.07 13.928 20.07 30.928 15 51v1a125.57 125.57 0 0 0-3.5 11 19.606 19.606 0 0 0-3.5 2h-1c-5.798.9-11.631 1.566-17.5 2-19.282-.88-33.449-9.712-42.5-26.5a11.81 11.81 0 0 1 2-3.5c3.922-2.416 7.422-5.416 10.5-9 .667-1 .667-2 0-3-5.387-5.1-6.72-11.1-4-18 1.451-1.964 3.284-3.297 5.5-4 4.046-2.298 8.38-2.631 13-1 1.64.973 2.973 2.306 4 4 .754 1.946 2.088 2.78 4 2.5a211.38 211.38 0 0 0 13-11.5 19.228 19.228 0 0 0 5 3z"/><path style="opacity:1" fill="#2f78b8" d="M80.5 83.5a21.445 21.445 0 0 0-1 7 100.743 100.743 0 0 1-20.5 3c-4.427.106-8.594-.56-12.5-2 9.685.078 19.352-.255 29-1a4.932 4.932 0 0 1 .5-3 26.393 26.393 0 0 0 4.5-4z"/><path style="opacity:1" fill="#256fbb" d="M30.5 57.5a259.177 259.177 0 0 0 29 13c-1.788 1.123-3.788 1.29-6 .5l-20-10c-4.833-1.166-6.667.667-5.5 5.5l1-1a43.947 43.947 0 0 0 4.5 4.5 51.398 51.398 0 0 0 3 7c-.809 3.683-.142 7.183 2 10.5-.996.086-1.83-.248-2.5-1-1.704-4.459-4.038-8.459-7-12a24.939 24.939 0 0 1-.5-7h-5c.571 3.81 2.238 7.143 5 10-1.561.847-3.061.514-4.5-1a55.776 55.776 0 0 1-4.5-9 39.315 39.315 0 0 1 11-10z"/><path style="opacity:1" fill="#30689e" d="M19.5 67.5a55.776 55.776 0 0 0 4.5 9c1.439 1.514 2.939 1.847 4.5 1-2.762-2.857-4.429-6.19-5-10h5c-.163 2.357.003 4.69.5 7 2.962 3.541 5.296 7.541 7 12 .67.752 1.504 1.086 2.5 1 2.382.85 4.382 2.184 6 4-11.963-3.623-20.963-10.957-27-22 .355-1.022 1.022-1.689 2-2z"/><path style="opacity:1" fill="#072159" d="M48.5 40.5h1c5.167 9.31 8.5 19.31 10 30a259.177 259.177 0 0 1-29-13 5.728 5.728 0 0 0 1-3c2.045 2.484 4.712 3.484 8 3-.17 1.322.163 2.489 1 3.5a52.797 52.797 0 0 0 16 5.5c.295-2.235-.039-4.235-1-6v-1c-1.075-4.366-2.741-8.366-5-12a5.728 5.728 0 0 0-1-3c-.734-1.208-1.067-2.541-1-4z"/><path style="opacity:1" fill="#305688" d="M50.5 47.5c2.259 3.634 3.925 7.634 5 12-.996.086-1.83-.248-2.5-1a31.311 31.311 0 0 0-5.5-9c.505-1.419 1.505-2.085 3-2z"/><path style="opacity:1" fill="#2b7bcb" d="M49.5 44.5c.61.891.943 1.891 1 3-1.495-.085-2.495.581-3 2 2.348 2.7 4.182 5.7 5.5 9 .67.752 1.504 1.086 2.5 1v1c-1.38-.435-2.38.398-3 2.5-4.279.916-6.112-.917-5.5-5.5-1.65-3.377-3.65-3.71-6-1l-1-1c-.417-2.288.25-4.288 2-6 1.113 1.83 2.613 2.663 4.5 2.5a58.256 58.256 0 0 0-5.5-5.5c-.52-2.618.646-3.951 3.5-4 1.556 1.047 3.223 1.714 5 2z"/><path style="opacity:1" fill="#2b6097" d="M42.5 33.5c2.724 1.723 4.724 4.056 6 7-.067 1.459.266 2.792 1 4-1.777-.286-3.444-.953-5-2-2.854.049-4.02 1.382-3.5 4a58.256 58.256 0 0 1 5.5 5.5c-1.887.163-3.387-.67-4.5-2.5-1.75 1.712-2.417 3.712-2 6l1 1c2.35-2.71 4.35-2.377 6 1-.612 4.583 1.221 6.416 5.5 5.5.62-2.102 1.62-2.935 3-2.5.961 1.765 1.295 3.765 1 6a52.797 52.797 0 0 1-16-5.5c-.837-1.011-1.17-2.178-1-3.5-3.288.484-5.955-.516-8-3a279.1 279.1 0 0 1-6-6 6.845 6.845 0 0 1-1-4c2.18.617 4.18 1.617 6 3 1.406-1.168 2.572-.835 3.5 1 .71-1.473 1.876-2.14 3.5-2 .42-2.174.42-4.174 0-6l2-1a3.646 3.646 0 0 0-1-1.5l5-1c-.837-1.011-1.17-2.178-1-3.5z"/><path style="opacity:1" fill="#088af7" d="M53.5 37.5c2.83.194 5.496.86 8 2 2.343 1.941 4.343 4.274 6 7 4.777.923 9.11 2.59 13 5a142.53 142.53 0 0 1 0 32 26.393 26.393 0 0 1-4.5 4 4.932 4.932 0 0 0-.5 3 340.654 340.654 0 0 1-29 1h-2c-1.618-1.816-3.618-3.15-6-4-2.142-3.317-2.809-6.817-2-10.5a51.398 51.398 0 0 1-3-7 43.947 43.947 0 0 1-4.5-4.5l-1 1c-1.167-4.833.667-6.666 5.5-5.5l20 10c2.212.79 4.212.623 6-.5-1.5-10.69-4.833-20.69-10-30 .762-1.762 2.096-2.762 4-3z"/><path style="opacity:1" fill="#2769b0" d="M80.5 47.5c2.402 4.94 3.402 10.273 3 16 .1 6.97-.9 13.636-3 20a142.53 142.53 0 0 0 0-32c-3.89-2.41-8.223-4.077-13-5-1.657-2.726-3.657-5.059-6-7-1.098-.897-1.098-1.73 0-2.5-3.704-2.932-3.037-5.098 2-6.5a49.55 49.55 0 0 0 10.5 9c.626 4.11 2.793 6.776 6.5 8z"/><path style="opacity:1" fill="#3674a5" d="M80.5 47.5c-3.707-1.224-5.874-3.89-6.5-8a49.55 49.55 0 0 1-10.5-9c-5.037 1.402-5.704 3.568-2 6.5-1.098.77-1.098 1.603 0 2.5-2.504-1.14-5.17-1.806-8-2 2.857-4.725 6.857-7.559 12-8.5 6.56 4.935 11.56 11.102 15 18.5z"/><path style="opacity:1" fill="#286bb6" d="M42.5 33.5c-.17 1.322.163 2.489 1 3.5l-5 1c.457.414.79.914 1 1.5l-2 1c.42 1.826.42 3.826 0 6-1.624-.14-2.79.527-3.5 2-.928-1.835-2.094-2.168-3.5-1a17.886 17.886 0 0 0-6-3v-1a45.747 45.747 0 0 1 5-11v-1c1.9.067 3.734-.267 5.5-1a609.189 609.189 0 0 0 3.5 3c1.424-2.606 2.757-2.606 4 0z"/><path style="opacity:1" fill="#3e7792" d="M29.5 32.5a45.747 45.747 0 0 0-5 11c-1.098-1.1-1.265-2.434-.5-4a59.463 59.463 0 0 1 5.5-7z"/><path style="opacity:1" fill="#dad94b" d="M42.5 30.5c-4.62-1.631-8.954-1.298-13 1-2.216.703-4.049 2.036-5.5 4-2.72 6.9-1.387 12.9 4 18 .667 1 .667 2 0 3-3.078 3.584-6.578 6.584-10.5 9 0-4 2-6 6-6a9.106 9.106 0 0 1 1-5c-3.083-6.574-3.75-13.408-2-20.5 4.394-6.235 10.394-8.235 18-6 .88.708 1.547 1.542 2 2.5z"/><path style="opacity:1" fill="#ede340" d="M68.5 28.5a19.228 19.228 0 0 1-5-3 211.38 211.38 0 0 1-13 11.5c-1.912.28-3.246-.554-4-2.5 3.45.744 5.116-.59 5-4 1.322-.17 2.489.163 3.5 1 .687-2.067.52-4.067-.5-6 1.98.197 3.98-.47 6-2 1.926.56 3.926.727 6 .5a9.173 9.173 0 0 1 2 4.5z"/><path style="opacity:1" fill="#d2ea5f" d="m193.5 160.5 3 2c.435 2.657 1.435 4.991 3 7a88.984 88.984 0 0 0 7 20c-.876.131-1.543-.202-2-1a51.882 51.882 0 0 0-4.5-9c-1.302-6.743-3.469-13.076-6.5-19z"/><path style="opacity:1" fill="#f4ed48" d="M260.5 160.5h4v9h-4v-9z"/><path style="opacity:1" fill="#f8f015" d="M283.5 127.5h2c6.479.991 13.146 1.324 20 1v41a130.161 130.161 0 0 1-22.5-1 285.902 285.902 0 0 1 .5-41z"/><path style="opacity:1" fill="#908602" d="M300.5 141.5c.986 4.47 1.319 9.137 1 14-4.863.319-9.53-.014-14-1 .667 0 1-.333 1-1h11v-10c.838-.342 1.172-1.008 1-2z"/><path style="opacity:1" fill="#f4eb53" d="M299.5 143.5v10h-11v-10h11z"/><path style="opacity:1" fill="#f5f01f" d="M290.5 144.5c5.808-.435 8.475 2.232 8 8h-9c-.221-2.779.112-5.446 1-8z"/><path style="opacity:1" fill="#483f09" d="M299.5 140.5c.667 0 1 .333 1 1 .172.992-.162 1.658-1 2h-11v10c0 .667-.333 1-1 1v-13c1.879.841 3.879 1.175 6 1-.008-5.708.492-6.041 1.5-1l1-1c1.376 2.625 2.542 2.625 3.5 0z"/><path style="opacity:1" fill="#978c3f" d="M299.5 140.5c-.958 2.625-2.124 2.625-3.5 0l-1 1c-1.008-5.041-1.508-4.708-1.5 1-2.121.175-4.121-.159-6-1 3.719-5.946 7.719-6.28 12-1z"/><path style="opacity:1" fill="#1489eb" d="M217.5 120.5c-1.051.722-1.718 1.722-2 3-2.082-.028-3.916.639-5.5 2-.828 14.839-.661 29.506.5 44v4h27a308.5 308.5 0 0 1-25 1.5 13.24 13.24 0 0 0-3 5 60.678 60.678 0 0 1 3 13.5 14.698 14.698 0 0 1-3.5-3 193.674 193.674 0 0 1-7-21c-.708-.881-1.542-1.547-2.5-2l-1-4a32.894 32.894 0 0 0-3-7c1.325 1.453 2.158 1.119 2.5-1 .741 1.141 1.575 1.141 2.5 0 .531 2.599.698 5.265.5 8 1.706-.808 2.539-2.141 2.5-4h4a45.296 45.296 0 0 0-.5 7c1.457-2.866 1.79-5.866 1-9-1.563-1.225-2.73-2.725-3.5-4.5.507-2.341 1.674-2.841 3.5-1.5.168-9.351.668-18.684 1.5-28 2.358-1.787 5.025-2.787 8-3z"/><path style="opacity:1" fill="#efe64c" d="M239.5 126.5a873.708 873.708 0 0 1 1.5 42c3 1.333 6 1.333 9 0a16.2 16.2 0 0 0 1.5-3.5c-3.036-12.281 1.63-16.281 14-12l-1 1c1.473.71 2.14 1.876 2 3.5l-2-1a43.836 43.836 0 0 0-1-2c-4.392-1.88-7.892-.88-10.5 3a98.432 98.432 0 0 0-.5 14h-13v-45z"/><path style="opacity:1" fill="#3a828e" d="M199.5 167.5c.958.453 1.792 1.119 2.5 2a193.674 193.674 0 0 0 7 21 14.698 14.698 0 0 0 3.5 3c1.693 2.684 3.36 5.351 5 8l-8-7c-.61-1.934-1.61-3.601-3-5a88.984 88.984 0 0 1-7-20v-2z"/><path style="opacity:1" fill="#164451" d="M211.5 127.5a484.723 484.723 0 0 0 1 44 1105.276 1105.276 0 0 0 94 0c.667 0 1-.333 1-1h1v3h-98v-4a441.579 441.579 0 0 1 1-42z"/><path style="opacity:1" fill="#031b02" d="M258.5 170.5h2c1.765.961 3.765 1.295 6 1h40a1105.276 1105.276 0 0 1-94 0h40c2.235.295 4.235-.039 6-1z"/><path style="opacity:1" fill="#d0d148" d="M179.5 169.5c1.359.507 2.359 1.507 3 3 1.317 6.488 1.317 12.822 0 19 .427-7.572-.573-14.905-3-22z"/><path style="opacity:1" fill="#2f84c4" d="M308.5 126.5c.814 2.131 1.314 4.464 1.5 7a883.897 883.897 0 0 0 1.5 41l-1.5 1a2352.304 2352.304 0 0 1-26.5-2h25v-47z"/><path style="opacity:1" fill="#e6e141" d="M141.5 154.5c-7.035-4.475-13.535-3.808-19.5 2-3.154 5.248-3.32 10.582-.5 16 1.546 2.382 2.213 5.049 2 8a308.607 308.607 0 0 1-4 3c-.177-2.481.823-4.314 3-5.5-.808-1.706-2.141-2.539-4-2.5-.166-5.676.001-11.343.5-17 1.046-3.103 2.213-5.437 3.5-7a56.723 56.723 0 0 1 17-.5c1.323.816 1.989 1.983 2 3.5z"/><path style="opacity:1" fill="#cdd25f" d="M121.5 172.5a17.858 17.858 0 0 1 5 5c-.688 1.355-1.688 2.355-3 3 .213-2.951-.454-5.618-2-8z"/><path style="opacity:1" fill="#be1f1f" d="M4.5 85.5h1l4 3h-3a10454.06 10454.06 0 0 0 1 199h-2a10659.04 10659.04 0 0 1-1-201v-1z"/><path style="opacity:1" fill="#2f85d0" d="M67.5 5.5h253v266a161.574 161.574 0 0 1-1 16h-1c1.309-40.01 1.309-80.01 0-120a852.448 852.448 0 0 1 1-53c.332-35.837-.002-71.504-1-107a10483.431 10483.431 0 0 0-248-.5c.544.717 1.21 1.217 2 1.5l1 2h-2l-4-5z"/><path style="opacity:1" fill="#1382e5" d="M318.5 7.5c-80.274-.657-160.441.01-240.5 2l-4-2c-.765.07-1.265.403-1.5 1-.79-.283-1.456-.783-2-1.5 82.673-.811 165.339-.644 248 .5z"/><path style="opacity:1" fill="#1585e1" d="M318.5 167.5c1.309 39.99 1.309 79.99 0 120a109.656 109.656 0 0 1-4 20h-1a66.492 66.492 0 0 1-6-8v-4c.765.423 1.598.757 2.5 1l4.5-4.5a65.495 65.495 0 0 1 3.5-14.5l.5-52.5a792.973 792.973 0 0 0-2-55c.184-1.376.851-2.209 2-2.5z"/><path style="opacity:1" fill="#d5d357" d="M119.5 183.5a85.665 85.665 0 0 0-7 8.5 32.842 32.842 0 0 0 7 9.5c-2.216-.703-4.049-2.036-5.5-4-4.168-6.995-2.334-11.661 5.5-14z"/><path style="opacity:1" fill="#bdde64" d="m209.5 194.5 8 7 3 4c-4.667-2.667-8.333-6.333-11-11z"/><path style="opacity:1" fill="#cc3401" d="M68.5 159.5a320.443 320.443 0 0 1 19 11 70.882 70.882 0 0 1 10 10c3.287 11.103 7.787 21.77 13.5 32a45.494 45.494 0 0 1 5.5 6l1 2c-3.569-.393-5.902-2.393-7-6a6.846 6.846 0 0 0-4-1 18.453 18.453 0 0 0-.5-6 47.79 47.79 0 0 1-6-10 55.774 55.774 0 0 0-2-12c-7.067-10.466-16.567-17.966-28.5-22.5-.837-1.011-1.17-2.178-1-3.5z"/><path style="opacity:1" fill="#3c8197" d="M217.5 201.5c4.769 1.572 8.769 4.238 12 8a8.43 8.43 0 0 1-4-.5c-1.346-1.669-3.013-2.836-5-3.5l-3-4z"/><path style="opacity:1" fill="#b0d266" d="M220.5 205.5c1.987.664 3.654 1.831 5 3.5a8.43 8.43 0 0 0 4 .5l2 3c-4.896-.603-8.563-2.937-11-7z"/><path style="opacity:1" fill="#c3c745" d="M182.5 193.5a86.81 86.81 0 0 1-2.5 19c-2.816 2.877-6.316 4.21-10.5 4 2.338-1.54 5.005-2.206 8-2a51.569 51.569 0 0 0 1-7 109.604 109.604 0 0 0 4-14z"/><path style="opacity:1" fill="#fddf2c" d="M97.5 180.5c2.527 2.01 4.361 4.677 5.5 8 .82 5.661 2.987 10.661 6.5 15 1.045 7.351 4.378 8.685 10 4 2.631 1.505 2.297 2.171-1 2a4.934 4.934 0 0 1-.5 3c-1.131-1.104-1.965-.771-2.5 1a9.108 9.108 0 0 1 1 5 45.494 45.494 0 0 0-5.5-6c-5.713-10.23-10.213-20.897-13.5-32z"/><path style="opacity:1" fill="#142115" d="M179.5 167.5v2c2.427 7.095 3.427 14.428 3 22v2a109.604 109.604 0 0 1-4 14 51.569 51.569 0 0 1-1 7c-2.995-.206-5.662.46-8 2-19.522 3.96-36.189-1.04-50-15a32.842 32.842 0 0 1-7-9.5 85.665 85.665 0 0 1 7-8.5 308.607 308.607 0 0 0 4-3c1.312-.645 2.312-1.645 3-3a17.858 17.858 0 0 0-5-5c-2.82-5.418-2.654-10.752.5-16 5.965-5.808 12.465-6.475 19.5-2l2 1c.212 1.884 1.212 3.217 3 4a22.948 22.948 0 0 0 7-6c2.564-2.616 5.564-4.116 9-4.5 6.95 5.111 12.617 11.278 17 18.5z"/><path style="opacity:1" fill="#2b6aa5" d="M127.5 179.5a123.401 123.401 0 0 1 13 7c-1.101 1.098-2.434 1.265-4 .5a25.01 25.01 0 0 0-9.5-4.5c-1.28.113-2.113.78-2.5 2 6.153 7.568 9.487 16.235 10 26-8.572-4.237-15.239-10.57-20-19a78.443 78.443 0 0 1 13-12z"/><path style="opacity:1" fill="#04215b" d="M147.5 161.5a249.998 249.998 0 0 0 7.5 20c.339 3.38.839 6.713 1.5 10a55.837 55.837 0 0 1-16-5 123.401 123.401 0 0 0-13-7v-4c1.578.566 2.912 1.566 4 3 1.545.952 3.212 1.285 5 1a11.105 11.105 0 0 0 3 4.5 25.607 25.607 0 0 0 10 3.5c1.28 1.431 2.947 2.098 5 2a59.137 59.137 0 0 0-3.5-14c-1.835-4.02-3.668-8.02-5.5-12l2-2z"/><path style="opacity:1" fill="#088af7" d="M175.5 212.5c-11.001.54-22.001.706-33 .5-2.409-1.707-5.075-2.54-8-2.5-.513-9.765-3.847-18.432-10-26 .387-1.22 1.22-1.887 2.5-2a25.01 25.01 0 0 1 9.5 4.5c1.566.765 2.899.598 4-.5a55.837 55.837 0 0 0 16 5c.624-.417.957-1.084 1-2a98.305 98.305 0 0 1-1.5-9c-1.177-5.633-3.01-10.967-5.5-16-.323-3.509 1.177-5.843 4.5-7 1.442.712 2.275 1.879 2.5 3.5a11.187 11.187 0 0 0-1 4.5c1.643.02 2.976-.647 4-2a52.31 52.31 0 0 0 11 8.5 12.93 12.93 0 0 0 5 .5 165.9 165.9 0 0 1 2 15.5 249.095 249.095 0 0 1-3 24.5z"/><path style="opacity:1" fill="#316096" d="M145.5 163.5c1.832 3.98 3.665 7.98 5.5 12a59.137 59.137 0 0 1 3.5 14c-2.053.098-3.72-.569-5-2 1.465-7.939-1.202-14.439-8-19.5l2-1c-.55-1.845-1.55-3.345-3-4.5-1.196.346-1.196.846 0 1.5-1.435-.311-2.768-.145-4 .5-.952-1.545-1.285-3.212-1-5-3.116-.211-5.95-.545-8.5-1-1.617 1.036-1.784 2.203-.5 3.5-3.129.117-4.295 1.617-3.5 4.5 1.695.276 3.528-.057 5.5-1l2 1c-.825.886-1.825 1.219-3 1a13.116 13.116 0 0 0 1 7 8.905 8.905 0 0 1 4-3c1.883 2.433 3.217 5.1 4 8-1.788.285-3.455-.048-5-1-1.088-1.434-2.422-2.434-4-3-7.643-6.677-7.977-13.843-1-21.5 8.163-2.54 14.163-.207 18 7l-1 1c.916.278 1.582.778 2 1.5z"/><path style="opacity:1" fill="#2b71be" d="M149.5 187.5a25.607 25.607 0 0 1-10-3.5 11.105 11.105 0 0 1-3-4.5c-.783-2.9-2.117-5.567-4-8a8.905 8.905 0 0 0-4 3 13.116 13.116 0 0 1-1-7c1.175.219 2.175-.114 3-1l-2-1c-1.972.943-3.805 1.276-5.5 1-.795-2.883.371-4.383 3.5-4.5-1.284-1.297-1.117-2.464.5-3.5 2.55.455 5.384.789 8.5 1-.285 1.788.048 3.455 1 5 1.232-.645 2.565-.811 4-.5-1.196-.654-1.196-1.154 0-1.5 1.45 1.155 2.45 2.655 3 4.5l-2 1c6.798 5.061 9.465 11.561 8 19.5z"/><path style="opacity:1" fill="#2c6fb1" d="M178.5 207.5a27.195 27.195 0 0 0-3 5 249.095 249.095 0 0 0 3-24.5 165.9 165.9 0 0 0-2-15.5 12.93 12.93 0 0 1-5-.5 52.31 52.31 0 0 1-11-8.5c-1.024 1.353-2.357 2.02-4 2 .019-1.56.352-3.06 1-4.5-.225-1.621-1.058-2.788-2.5-3.5-3.323 1.157-4.823 3.491-4.5 7 2.49 5.033 4.323 10.367 5.5 16a98.305 98.305 0 0 0 1.5 9c-.043.916-.376 1.583-1 2a102.65 102.65 0 0 1-1.5-10 249.998 249.998 0 0 1-7.5-20 348.003 348.003 0 0 0 13.5-11c9.384 6.046 15.717 14.38 19 25a130.482 130.482 0 0 1-1.5 32z"/><path style="opacity:1" fill="#e1de45" d="M153.5 153.5a22.948 22.948 0 0 1-7 6c-1.788-.783-2.788-2.116-3-4 3.79.492 4.456-.341 2-2.5 2.619.083 5.286.25 8 .5z"/><path style="opacity:1" fill="#3882a5" d="M229.5 209.5c3.221.396 5.888 1.729 8 4l2 2h-2c-1.755-1.404-3.755-2.404-6-3l-2-3z"/><path style="opacity:1" fill="#2d79b8" d="M134.5 210.5c2.925-.04 5.591.793 8 2.5 10.999.206 21.999.04 33-.5-11.027 3.362-22.36 3.862-34 1.5-2.674-.67-5.007-1.837-7-3.5z"/><path style="opacity:1" fill="#298ac0" d="M239.5 215.5c4.431 2.095 7.431 5.429 9 10a6708.16 6708.16 0 0 0-9-10z"/><path style="opacity:1" fill="#f40605" d="M54.5 149.5c1.809 1.599 3.142 3.599 4 6 2.405 2.695 5.405 4.028 9 4h1c-.17 1.322.163 2.489 1 3.5 11.933 4.534 21.433 12.034 28.5 22.5a55.774 55.774 0 0 1 2 12 47.79 47.79 0 0 0 6 10c.495 1.973.662 3.973.5 6a6.846 6.846 0 0 1 4 1c1.098 3.607 3.431 5.607 7 6 4.282 6.974 10.282 12.141 18 15.5 2.02 3.006 4.687 4.839 8 5.5.238 2.569 1.571 4.235 4 5a145.259 145.259 0 0 0 12 31c-4.194-1.418-5.861-4.418-5-9h-3c-.114-4.09-1.281-7.757-3.5-11-.667 1.333-1.333 1.333-2 0-.87.608-1.37 1.441-1.5 2.5 1.778 2.225 2.278 4.725 1.5 7.5-1.011.837-2.178 1.17-3.5 1 .923-3.564 1.256-7.231 1-11-2.185-.204-4.185-.87-6-2l-1-2c-.79-.901-1.79-1.568-3-2-2.345-2.575-5.345-3.575-9-3-.553-2.439-.553-4.773 0-7-2.629-2.926-4.462-6.259-5.5-10l-1 1c-6.601-5.122-13.768-6.122-21.5-3a39.103 39.103 0 0 1-5-1c-.672-.767-1.505-1.434-2.5-2-3.492.924-6.659.091-9.5-2.5 3.238-1.368 6.572-1.701 10-1 1.333.667 1.333 1.333 0 2l3 .5a43.077 43.077 0 0 1 10-2.5c1.083-2.056 2.75-3.389 5-4a419.096 419.096 0 0 0-8.5-17.5c-3.32 1.144-4.82-.189-4.5-4-4.408.438-6.075-1.562-5-6 2.847.282 5.513.282 8 0-.498-2.164-1.664-3.831-3.5-5-.588 2.363-2.088 3.363-4.5 3 1.429-2.521 2.095-5.021 2-7.5a9.465 9.465 0 0 1-1.5-2.5c-1.892 1.117-2.725 2.784-2.5 5-9-.175-10-2.675-3-7.5a47.059 47.059 0 0 1-5-6.5c-2.062-1.261-3.728-.761-5 1.5-2 .667-4 .667-6 0-1.333-.667-1.333-1.333 0-2 6.753-2.269 6.586-4.102-.5-5.5-1.3 1.207-2.8 1.874-4.5 2 .096-5.584-2.57-9.251-8-11a9.864 9.864 0 0 1-1-6z"/><path style="opacity:1" fill="#c2e56b" d="M239.5 218.5c4.457 3.119 7.791 7.119 10 12a30.786 30.786 0 0 0-4.5-3 82.014 82.014 0 0 0-5.5-9z"/><path style="opacity:1" fill="#fcd828" d="M116.5 218.5c2.679.025 4.012 1.358 4 4 2.449-.557 4.782-.557 7 0l-1 2a40.04 40.04 0 0 1 6.5 4c.483.948.649 1.948.5 3-6.385-2.188-11.718-5.855-16-11l-1-2z"/><path style="opacity:1" fill="#3f8271" d="M237.5 215.5h2a6708.16 6708.16 0 0 1 9 10c3.088 4.178 5.088 8.845 6 14l-5-8v-1c-2.209-4.881-5.543-8.881-10-12l-2-3z"/><path style="opacity:1" fill="#df1110" d="M91.5 228.5c1.626.438 3.293.772 5 1 7.732-3.122 14.899-2.122 21.5 3l1-1c1.038 3.741 2.871 7.074 5.5 10-.553 2.227-.553 4.561 0 7 3.655-.575 6.655.425 9 3a45.782 45.782 0 0 0-12-1c.577-6.005-.756-11.505-4-16.5-2.369-.536-4.369-1.703-6-3.5-3.815-1.308-7.481-1.308-11 0h-5v3a34.163 34.163 0 0 1-10-1c-.992.172-1.658-.162-2-1-10.16-3.038-17.16.462-21 10.5-.086 2.352.914 3.852 3 4.5l2 2a96.631 96.631 0 0 0 6.5 2 84.94 84.94 0 0 1 .5 13h-3a106.556 106.556 0 0 1-8-11c-.11-.617-.444-1.117-1-1.5a84.9 84.9 0 0 0-13-.5c2.86-.744 5.86-1.411 9-2a62.687 62.687 0 0 0 1.5-11c1.883-1.153 2.716-2.819 2.5-5 1.788.285 3.455-.048 5-1a14.962 14.962 0 0 1 3-3.5 42.479 42.479 0 0 1 13 0c2.765 1.476 5.432 1.643 8 .5z"/><path style="opacity:1" fill="#7f200e" d="M100.5 230.5c2.559-.302 4.893.032 7 1-5.502-.222-10.335 1.445-14.5 5a8.435 8.435 0 0 0-.5 4c-.667 0-1-.333-1-1a6.544 6.544 0 0 0-3-3l-3-4a34.163 34.163 0 0 0 10 1v-3h5z"/><path style="opacity:1" fill="#7c7e05" d="M82.5 236.5c0 .667-.333 1-1 1a18.834 18.834 0 0 0-7-2.5c2.998-.891 5.664-.391 8 1.5z"/><path style="opacity:1" fill="#d4bd49" d="M107.5 231.5c1.21.432 2.21 1.099 3 2a32.462 32.462 0 0 0-8 .5c1.507.837 2.007 2.004 1.5 3.5-1.049-1.017-2.216-1.184-3.5-.5 1.939.908 2.939 2.408 3 4.5h-4c1.388-2.509.554-4.176-2.5-5-2.019.857-3.519 2.191-4.5 4a8.435 8.435 0 0 1 .5-4c4.165-3.555 8.998-5.222 14.5-5z"/><path style="opacity:1" fill="#c53700" d="M117.5 220.5c4.282 5.145 9.615 8.812 16 11a2793.19 2793.19 0 0 1 11 10c1.452 1.44 2.452 3.106 3 5-2.429-.765-3.762-2.431-4-5-3.313-.661-5.98-2.494-8-5.5-7.718-3.359-13.718-8.526-18-15.5z"/><path style="opacity:1" fill="#917346" d="M86.5 237.5v-1h2a6.544 6.544 0 0 1 3 3c-.722.418-1.222 1.084-1.5 2-.66-1.824-1.827-3.157-3.5-4z"/><path style="opacity:1" fill="#e3dd4a" d="m99.5 241.5-2 8a9.864 9.864 0 0 0-1-6l-1 1a94.939 94.939 0 0 0 2 8c-2.35 1.713-3.35 4.047-3 7h3c.172.992-.162 1.658-1 2-.06-.543-.393-.876-1-1a1035.16 1035.16 0 0 1-2 12 40.252 40.252 0 0 0-2-13c1.844-1.779 2.51-4.112 2-7a55.187 55.187 0 0 1-3-4c-.596-2.613-1.429-2.613-2.5 0-.399-.228-.565-.562-.5-1v-1a10.978 10.978 0 0 0 1-3.5 27.206 27.206 0 0 1-2-5.5c1.673.843 2.84 2.176 3.5 4 .278-.916.778-1.582 1.5-2 0 .667.333 1 1 1 .981-1.809 2.481-3.143 4.5-4 3.054.824 3.888 2.491 2.5 5z"/><path style="opacity:1" fill="#d2bd36" d="M110.5 233.5c3.388.848 5.721 2.848 7 6-6.181-3.983-7.181-2.816-3 3.5-2.429-.198-4.762-1.031-7-2.5.774-1.211 1.607-1.211 2.5 0 .497-2.31.663-4.643.5-7z"/><path style="opacity:1" fill="#4c4307" d="M81.5 238.5c.342.838 1.008 1.172 2 1 .803.923.97 1.923.5 3-4.704-4.239-9.037-3.905-13 1a2.427 2.427 0 0 1-.5-2c3.168-2.556 6.834-3.556 11-3z"/><path style="opacity:1" fill="#e6d463" d="M83.5 231.5c.342.838 1.008 1.172 2 1l3 4h-2c-1.333-1.333-2.667-1.333-4 0-2.336-1.891-5.002-2.391-8-1.5a18.834 18.834 0 0 1 7 2.5v1c-4.166-.556-7.832.444-11 3-3.465.357-4.465 2.023-3 5h-2c-1.544-7.381 1.456-12.214 9-14.5a40.911 40.911 0 0 1 9-.5z"/><path style="opacity:1" fill="#0f8ced" d="M268.5 260.5c-1.105-1.1-2.438-1.767-4-2a91.884 91.884 0 0 1-10-19c-.912-5.155-2.912-9.822-6-14-1.569-4.571-4.569-7.905-9-10l-2-2c2.618-1.774 5.618-2.774 9-3a14.828 14.828 0 0 1-2 6.5l2.5 2.5c1.264-2.107 3.097-3.107 5.5-3-.059 2.549.941 4.549 3 6a41.474 41.474 0 0 0-2 7.5 53.583 53.583 0 0 1 3.5 11.5c.804-1.304 1.971-1.971 3.5-2a17.303 17.303 0 0 1 4.5 4 36.433 36.433 0 0 1-.5 12h3a20.69 20.69 0 0 0 1 5z"/><path style="opacity:1" fill="#e7df46" d="M83.5 239.5c1.086.12 1.753.787 2 2l-1 2c-1.916.748-3.916.748-6 0-1.279-1.215-2.279-.882-3 1-1.939 1.663-4.272 2.329-7 2h-1c-1.465-2.977-.465-4.643 3-5a2.427 2.427 0 0 0 .5 2c3.963-4.905 8.296-5.239 13-1 .47-1.077.303-2.077-.5-3z"/><path style="opacity:1" fill="#5d3a02" d="M78.5 243.5c-.667 0-1 .333-1 1h-2c.721-1.882 1.721-2.215 3-1z"/><path style="opacity:1" fill="#4d4504" d="M90.5 242.5c2.475.247 2.475.913 0 2-.963-.47-.963-1.137 0-2z"/><path style="opacity:1" fill="#7c1e06" d="M83.5 231.5a40.911 40.911 0 0 0-9 .5c-7.544 2.286-10.544 7.119-9 14.5-2.086-.648-3.086-2.148-3-4.5 3.84-10.038 10.84-13.538 21-10.5z"/><path style="opacity:1" fill="#fdd62f" d="M133.5 231.5c3.269.384 6.103 1.718 8.5 4a129.435 129.435 0 0 0 7.5 9c.929 1.189 1.262 2.522 1 4l-3-2c-.548-1.894-1.548-3.56-3-5a2793.19 2793.19 0 0 0-11-10z"/><path style="opacity:1" fill="#488779" d="M254.5 239.5a91.884 91.884 0 0 0 10 19c-6.223-4.779-9.557-11.112-10-19z"/><path style="opacity:1" fill="#a09742" d="M87.5 246.5v1c-.838.342-1.172 1.008-1 2-.951 1.419-1.284 3.085-1 5-.81-1.792-1.31-3.792-1.5-6a40.939 40.939 0 0 0-.5 9c-.65.304-1.317.637-2 1-1.333-4-1.333-8 0-12 1.982 1.123 3.982 1.123 6 0z"/><path style="opacity:1" fill="#433201" d="M97.5 249.5v3a94.939 94.939 0 0 1-2-8l1-1a9.864 9.864 0 0 1 1 6z"/><path style="opacity:1" fill="#f3ea2a" d="M110.5 233.5a24.935 24.935 0 0 1-.5 7c-.893-1.211-1.726-1.211-2.5 0 2.238 1.469 4.571 2.302 7 2.5-4.181-6.316-3.181-7.483 3-3.5a51.569 51.569 0 0 0-1 7 330.405 330.405 0 0 0-8.5-1c-1.986.069-3.486.735-4.5 2a34.163 34.163 0 0 1-1 10c-1.241 2.431-2.408 2.431-3.5 0-.717.544-1.217 1.211-1.5 2h-3c-.35-2.953.65-5.287 3-7v-3l2-8h4c-.061-2.092-1.061-3.592-3-4.5 1.284-.684 2.451-.517 3.5.5.507-1.496.007-2.663-1.5-3.5a32.462 32.462 0 0 1 8-.5z"/><path style="opacity:1" fill="#5a510b" d="M90.5 248.5c-1.187 1.034-2.02 2.367-2.5 4-1.039-.744-1.539-1.744-1.5-3-.172-.992.162-1.658 1-2-.065.438.101.772.5 1 1.071-2.613 1.904-2.613 2.5 0z"/><path style="opacity:1" fill="#ba1b17" d="M100.5 230.5c3.519-1.308 7.185-1.308 11 0 1.631 1.797 3.631 2.964 6 3.5 3.244 4.995 4.577 10.495 4 16.5 4.066-.193 8.066.14 12 1 1.21.432 2.21 1.099 3 2a45.824 45.824 0 0 1-9-2c-1.226.02-2.226.353-3 1-2.64.454-4.973 1.621-7 3.5-1.323.816-1.989 1.983-2 3.5-1.634.707-2.968 1.873-4 3.5a4.934 4.934 0 0 1-3 .5 84.902 84.902 0 0 1 .5-13 51.727 51.727 0 0 1 9.5-1.5c1.966-1.347 2.299-2.847 1-4.5.38-2.198-.287-3.865-2-5-1.279-3.152-3.612-5.152-7-6-.79-.901-1.79-1.568-3-2-2.107-.968-4.441-1.302-7-1z"/><path style="opacity:1" fill="#781f06" d="M63.5 252.5a106.556 106.556 0 0 0 8 11c1.1 1.105 1.767 2.438 2 4v1h-1a11.743 11.743 0 0 0-3-5 45.352 45.352 0 0 0-9-10.5c-4.521-.85-8.855-.35-13 1.5.453-.958 1.12-1.792 2-2.5 4.72-.717 9.386-.55 14 .5z"/><path style="opacity:1" fill="#741605" d="M124.5 252.5c.774-.647 1.774-.98 3-1a45.824 45.824 0 0 0 9 2l1 2c1.885 1.553 2.885 3.553 3 6-1.714-2.713-4.047-4.713-7-6-2.456-2.368-5.456-3.368-9-3z"/><path style="opacity:1" fill="#b81f15" d="M49.5 250.5a84.9 84.9 0 0 1 13 .5c.556.383.89.883 1 1.5a37.297 37.297 0 0 0-14-.5c-.88.708-1.547 1.542-2 2.5 0 .667-.333 1-1 1-2.615.95-4.615 2.617-6 5a8.435 8.435 0 0 1 .5-4 32.743 32.743 0 0 1 8.5-6z"/><path style="opacity:1" fill="#cee85a" d="m249.5 231.5 5 8c.443 7.888 3.777 14.221 10 19a33.673 33.673 0 0 1 4 5.5 4.934 4.934 0 0 0 3 .5v3c3.254.294 5.921 1.627 8 4a18.453 18.453 0 0 1-6-.5 100.235 100.235 0 0 0-12.5-11.5c-3.399-4.137-6.065-8.803-8-14a118.82 118.82 0 0 0-3.5-14z"/><path style="opacity:1" fill="#e3cc68" d="M69.5 263.5c-1.431.381-2.264 1.381-2.5 3-.728-2.687-1.895-5.02-3.5-7-2.787-2.381-6.12-4.047-10-5-.963.47-.963 1.137 0 2-3.289-1.689-5.289-.689-6 3-2.473-.412-3.806.588-4 3v5c-1.911-4.659-.911-8.659 3-12 .667 0 1-.333 1-1 4.145-1.85 8.479-2.35 13-1.5a45.352 45.352 0 0 1 9 10.5z"/><path style="opacity:1" fill="#a1702b" d="M107.5 247.5c-.325 7.519.008 14.852 1 22-.06.543-.393.876-1 1-1.32-7.823-1.32-15.49 0-23z"/><path style="opacity:1" fill="#cdb663" d="M124.5 252.5c3.544-.368 6.544.632 9 3-5.91-2.105-6.91-1.105-3 3a23.65 23.65 0 0 0-3.5 3 2.428 2.428 0 0 1-.5-2c1.186-1.205 1.186-2.539 0-4-1.205-1.186-2.539-1.186-4 0h-1a10.165 10.165 0 0 1 3-3z"/><path style="opacity:1" fill="#772a08" d="M124.5 252.5a10.165 10.165 0 0 0-3 3 18.33 18.33 0 0 1-6 4c.011-1.517.677-2.684 2-3.5 2.027-1.879 4.36-3.046 7-3.5z"/><path style="opacity:1" fill="#443b03" d="M126.5 255.5c-1.517.011-2.684.677-3.5 2a2.428 2.428 0 0 1-.5-2c1.461-1.186 2.795-1.186 4 0z"/><path style="opacity:1" fill="#736000" d="M93.5 252.5c.51 2.888-.156 5.221-2 7-.51-2.888.156-5.221 2-7z"/><path style="opacity:1" fill="#e50c0c" d="M109.5 251.5h9c-2.191 3.545-4.858 6.878-8 10a25.879 25.879 0 0 1-1-10z"/><path style="opacity:1" fill="#a22016" d="M67.5 248.5h8c.166 5.676 0 11.343-.5 17-.278.916-.778 1.582-1.5 2-.233-1.562-.9-2.895-2-4h3a84.94 84.94 0 0 0-.5-13 96.631 96.631 0 0 1-6.5-2z"/><path style="opacity:1" fill="#f3ec36" d="M86.5 236.5v1a27.206 27.206 0 0 0 2 5.5 10.978 10.978 0 0 1-1 3.5c-2.018 1.123-4.018 1.123-6 0-1.333 4-1.333 8 0 12 .683-.363 1.35-.696 2-1 1.548-.321 2.215-1.321 2-3-.284-1.915.049-3.581 1-5-.039 1.256.461 2.256 1.5 3 .48-1.633 1.313-2.966 2.5-4a55.187 55.187 0 0 0 3 4c-1.844 1.779-2.51 4.112-2 7a40.252 40.252 0 0 1 2 13v3h-6c-.418-.722-1.084-1.222-2-1.5.964-4.066 1.297-8.233 1-12.5a6.845 6.845 0 0 1-4-1l-1 2.5c1.28 2.36 1.947 4.86 2 7.5-2.48.177-4.314-.823-5.5-3-.5-7.659-.666-15.326-.5-23 0-.667.333-1 1-1 2.084.748 4.084.748 6 0l1-2c-.247-1.213-.914-1.88-2-2-.992.172-1.658-.162-2-1v-1c.667 0 1-.333 1-1 1.333-1.333 2.667-1.333 4 0z"/><path style="opacity:1" fill="#5e5b09" d="M85.5 254.5c.215 1.679-.452 2.679-2 3a40.939 40.939 0 0 1 .5-9c.19 2.208.69 4.208 1.5 6z"/><path style="opacity:1" fill="#dfc363" d="M133.5 255.5c2.953 1.287 5.286 3.287 7 6 .634 4.408-1.033 7.408-5 9-.916-.043-1.583-.376-2-1 1.699-.027 3.033-.694 4-2 1.535-2.83.535-4.163-3-4-.086-.996.248-1.829 1-2.5-1.655-1.444-2.322-3.278-2-5.5z"/><path style="opacity:1" fill="#fc0101" d="M159.5 277.5c3.457 5.291 7.79 9.791 13 13.5a12.93 12.93 0 0 0 5 .5 293.488 293.488 0 0 1 22 19c3.082 7.654 5.249 15.654 6.5 24a73.072 73.072 0 0 1 11 20 20.431 20.431 0 0 0 5.5 1.5c7.671 6.336 16.338 10.836 26 13.5a25.241 25.241 0 0 0 6.5 8 25.775 25.775 0 0 0 3.5 7.5c-1.956 2.667-4.623 4.167-8 4.5-.886.825-1.219 1.825-1 3l-10 9a8.43 8.43 0 0 0-4 .5 18.33 18.33 0 0 1-6 4 981.062 981.062 0 0 0-22 8.5 118.8 118.8 0 0 0-21 2.5 7.293 7.293 0 0 1-3 2c-21.622 1.762-42.955.262-64-4.5v-3c-7.143-.018-13.477-2.185-19-6.5a12.93 12.93 0 0 0-5-.5c-4.733-.964-9.066-2.797-13-5.5a129.105 129.105 0 0 1-15-12 52.281 52.281 0 0 0-8-4.5 11.743 11.743 0 0 0-3-5 42.593 42.593 0 0 1-3-9.5c3.275-.929 6.275-.429 9 1.5 5.145-1.557 10.479-2.557 16-3a452.496 452.496 0 0 0-30-1.5c-1.017-1.049-1.184-2.216-.5-3.5 26.135-.238 52.635.095 79.5 1 2.107 2.449 4.44 2.616 7 .5a39.872 39.872 0 0 0-11-4.5c-7.235.714-13.735 1.047-19.5 1a1199.678 1199.678 0 0 0-48.5-1.5l-8-1 1-1a212.064 212.064 0 0 1 22.5-1.5 1165.64 1165.64 0 0 0 62.5 1.5c4.778-2.799 5.111-5.966 1-9.5.336-2.979-.831-5.646-3.5-8a12.93 12.93 0 0 1-.5-5c-2.195 1.108-4.195.941-6-.5 1.926-.422 2.926-1.589 3-3.5a1533.07 1533.07 0 0 0 14-11 3103.456 3103.456 0 0 0 13-16c1.545-.952 3.212-1.285 5-1v-4a484.862 484.862 0 0 1-44-1c2.274-2.213 3.774-4.879 4.5-8 5.437-3.034 8.27-7.7 8.5-14a60.931 60.931 0 0 0 11-.5c1.369-1.719 2.369-3.552 3-5.5 1.322.17 2.489-.163 3.5-1 .778-2.775.278-5.275-1.5-7.5.13-1.059.63-1.892 1.5-2.5.667 1.333 1.333 1.333 2 0 2.219 3.243 3.386 6.91 3.5 11h3c-.861 4.582.806 7.582 5 9z"/><path style="opacity:1" fill="#efe932" d="M63.5 259.5c-.65.304-1.316.637-2 1a102.628 102.628 0 0 0-13-1.5c1.15-1.744 2.483-1.911 4-.5.797-.457 1.13-1.124 1-2-.963-.863-.963-1.53 0-2 3.88.953 7.213 2.619 10 5z"/><path style="opacity:1" fill="#531900" d="M65.5 246.5h3c2.448.973 5.115 1.306 8 1 .326 8.184-.008 16.184-1 24l-2-3v-1c.722-.418 1.222-1.084 1.5-2 .5-5.657.666-11.324.5-17h-8l-2-2z"/><path style="opacity:1" fill="#5e4b03" d="M47.5 259.5c.11.617.444 1.117 1 1.5a27.586 27.586 0 0 0-5 1.5c.194-2.412 1.527-3.412 4-3z"/><path style="opacity:1" fill="#661404" d="M119.5 244.5c1.299 1.653.966 3.153-1 4.5a51.727 51.727 0 0 0-9.5 1.5 84.902 84.902 0 0 0-.5 13 4.934 4.934 0 0 0 3-.5c1.032-1.627 2.366-2.793 4-3.5a2349.814 2349.814 0 0 1-7 10c-.992-7.148-1.325-14.481-1-22 .06-.543.393-.876 1-1 2.457 1.725 5.123 2.225 8 1.5 1.926-.422 2.926-1.589 3-3.5z"/><path style="opacity:1" fill="#554402" d="m122.5 259.5-7 8h-1c-.438.065-.772-.101-1-.5 2.601-3.112 5.601-5.612 9-7.5z"/><path style="opacity:1" fill="#c93c02" d="m147.5 246.5 3 2v1a72.437 72.437 0 0 1 5.5 17 66.018 66.018 0 0 0 8.5 13c.919 2.589 2.586 4.589 5 6 2.344 2.497 5.011 4.497 8 6a12.93 12.93 0 0 1-5-.5c-5.21-3.709-9.543-8.209-13-13.5a145.259 145.259 0 0 1-12-31z"/><path style="opacity:1" fill="#ddce4e" d="M53.5 256.5c.13.876-.203 1.543-1 2-1.517-1.411-2.85-1.244-4 .5 4.387.226 8.72.726 13 1.5.684-.363 1.35-.696 2-1 1.605 1.98 2.772 4.313 3.5 7 .236-1.619 1.069-2.619 2.5-3a11.743 11.743 0 0 1 3 5 14.696 14.696 0 0 1-3.5-3 28.936 28.936 0 0 1-3.5 5c-.37-2.767-1.704-4.767-4-6v-3c-3.317.281-6.483.281-9.5 0-1.417.578-2.25 1.578-2.5 3h-4c-.37 2.493.297 3.16 2 2a2.427 2.427 0 0 0 .5 2c2.719-1.896 5.552-2.229 8.5-1-.342.838-1.008 1.172-2 1-.617-.111-1.117-.444-1.5-1-1.397 1.57-2.897 2.904-4.5 4-2.867.131-4.533-1.203-5-4v-5a27.586 27.586 0 0 1 5-1.5c-.556-.383-.89-.883-1-1.5.711-3.689 2.711-4.689 6-3z"/><path style="opacity:1" fill="#585d03" d="M61.5 264.5c2.296 1.233 3.63 3.233 4 6-1.826-1.647-3.16-3.647-4-6z"/><path style="opacity:1" fill="#484301" d="M134.5 263.5c3.535-.163 4.535 1.17 3 4-.256-2.276-1.59-3.443-4-3.5.228-.399.562-.565 1-.5z"/><path style="opacity:1" fill="#877900" d="M49.5 264.5c.438-.065.772.101 1 .5-1.237.232-2.237.732-3 1.5-1.703 1.16-2.37.493-2-2h4z"/><path style="opacity:1" fill="#418395" d="M264.5 258.5c1.562.233 2.895.9 4 2 .787 1.604 2.12 2.271 4 2v3c3.627.78 6.96 2.28 10 4.5.752.671 1.086 1.504 1 2.5l-4-1c-2.079-2.373-4.746-3.706-8-4v-3a4.934 4.934 0 0 1-3-.5 33.673 33.673 0 0 0-4-5.5z"/><path style="opacity:1" fill="#e6dc48" d="M133.5 255.5c-.322 2.222.345 4.056 2 5.5-.752.671-1.086 1.504-1 2.5-.438-.065-.772.101-1 .5 2.41.057 3.744 1.224 4 3.5-.967 1.306-2.301 1.973-4 2-1.235-.221-2.235-.888-3-2a43.816 43.816 0 0 0-8 13 21.614 21.614 0 0 0-4 5h-4a44.093 44.093 0 0 1 3-2c-1.851-1.956-4.184-2.956-7-3 .787-1.604 2.12-2.271 4-2 .275 2.342 1.108 2.342 2.5 0a36.16 36.16 0 0 1 4-7c.74-1.249.573-2.249-.5-3 .03-.997-.47-1.664-1.5-2a14.093 14.093 0 0 1-3.5 1l7-8c1.333-1.333 2.667-1.333 4 0a2.428 2.428 0 0 0 .5 2 23.65 23.65 0 0 1 3.5-3c-3.91-4.105-2.91-5.105 3-3z"/><path style="opacity:1" fill="#fae12c" d="M150.5 249.5c2.411-.363 3.911.637 4.5 3 .478 8.449 3.478 15.782 9 22a12.93 12.93 0 0 1 .5 5 66.018 66.018 0 0 1-8.5-13 72.437 72.437 0 0 0-5.5-17z"/><path style="opacity:1" fill="#a19102" d="M88.5 263.5c1.265 1.014 1.931 2.514 2 4.5l-1 4.5a21.12 21.12 0 0 1-1-9z"/><path style="opacity:1" fill="#7b2205" d="M46.5 255.5c-3.911 3.341-4.911 7.341-3 12 .467 2.797 2.133 4.131 5 4-1.723 1.307-3.556 1.307-5.5 0a28.783 28.783 0 0 1-2.5-11c1.385-2.383 3.385-4.05 6-5z"/><path style="opacity:1" fill="#9d853f" d="M60.5 271.5h-3a6.544 6.544 0 0 1-3-3c.992.172 1.658-.162 2-1 .06-.543.393-.876 1-1a19.227 19.227 0 0 1 3 5z"/><path style="opacity:1" fill="#6d1704" d="M140.5 261.5c1.302 2.607 1.136 5.273-.5 8-1.126 1.444-2.626 2.11-4.5 2-2.024-.521-4.024-.688-6-.5-1.811 3.631-4.144 6.798-7 9.5a43.816 43.816 0 0 1 8-13c.765 1.112 1.765 1.779 3 2 .417.624 1.084.957 2 1 3.967-1.592 5.634-4.592 5-9z"/><path style="opacity:1" fill="#5b5408" d="M103.5 247.5a350.665 350.665 0 0 1 2 28h-2a407.946 407.946 0 0 0-1-18 34.163 34.163 0 0 0 1-10z"/><path style="opacity:1" fill="#71180c" d="M54.5 268.5a6.544 6.544 0 0 0 3 3c1.1 1.105 1.767 2.438 2 4-2.783-3.508-6.45-4.842-11-4 1.603-1.096 3.103-2.43 4.5-4 .383.556.883.889 1.5 1z"/><path style="opacity:1" fill="#e5d453" d="M117.5 239.5c1.713 1.135 2.38 2.802 2 5-.074 1.911-1.074 3.078-3 3.5-2.877.725-5.543.225-8-1.5-.607.124-.94.457-1 1-1.32 7.51-1.32 15.177 0 23 .607-.124.94-.457 1-1 2.359-3.351 4.692-6.685 7-10a18.33 18.33 0 0 0 6-4h1a2.428 2.428 0 0 0 .5 2c.816-1.323 1.983-1.989 3.5-2 1.186 1.461 1.186 2.795 0 4-1.333-1.333-2.667-1.333-4 0-3.399 1.888-6.399 4.388-9 7.5.228.399.562.565 1 .5-.086.996.248 1.829 1 2.5a10.756 10.756 0 0 0-3 2.5 285.72 285.72 0 0 1-6 0c2.535 2.436 5.535 4.103 9 5 0 .667-.333 1-1 1-1.88-.271-3.213.396-4 2-3.342-.693-5.009-2.359-5-5-.304-9.51-.97-18.843-2-28 1.014-1.265 2.514-1.931 4.5-2 2.848.298 5.681.631 8.5 1a51.569 51.569 0 0 1 1-7z"/><path style="opacity:1" fill="#746e06" d="M124.5 267.5c.362 2.983-.805 5.65-3.5 8 .826-2.667 1.992-5.334 3.5-8z"/><path style="opacity:1" fill="#f0ea35" d="M61.5 264.5c.84 2.353 2.174 4.353 4 6a28.936 28.936 0 0 0 3.5-5 14.696 14.696 0 0 0 3.5 3h1l2 3c1.587 2.669 2.42 5.669 2.5 9 1.406-1.168 2.572-.835 3.5 1 .797-.457 1.13-1.124 1-2 1.194.47 1.86 1.47 2 3 .064 2.057-.602 3.723-2 5-.992-.172-1.658.162-2 1-1.359-.507-2.359-1.507-3-3-.607.124-.94.457-1 1-2.744-.572-3.577-2.238-2.5-5 .718.951 1.55 1.117 2.5.5a3363.873 3363.873 0 0 1-5-8c-1.909-.448-3.076.385-3.5 2.5-1.281-1.147-1.614-.813-1 1 1 1.333 2 1.333 3 0 .536 2.115-.297 3.448-2.5 4a7.468 7.468 0 0 1-3-2l2-6c-1.505-2.631-2.171-2.297-2 1h-3c.237-1.291-.096-2.291-1-3a19.227 19.227 0 0 0-3-5c-.607.124-.94.457-1 1-2.948-1.229-5.781-.896-8.5 1a2.427 2.427 0 0 1-.5-2c.763-.768 1.763-1.268 3-1.5-.228-.399-.562-.565-1-.5.25-1.422 1.083-2.422 2.5-3 3.017.281 6.183.281 9.5 0v3z"/><path style="opacity:1" fill="#767105" d="M96.5 261.5a290.98 290.98 0 0 1-1 16c.219 1.175-.114 2.175-1 3-.952-1.545-1.285-3.212-1-5v-3a1035.16 1035.16 0 0 0 2-12c.607.124.94.457 1 1z"/><path style="opacity:1" fill="#498c78" d="M283.5 272.5a5.727 5.727 0 0 1 3 1v1c-1.527.073-2.527-.594-3-2z"/><path style="opacity:1" fill="#c5b73b" d="M75.5 244.5h2c-.166 7.674 0 15.341.5 23 1.186 2.177 3.02 3.177 5.5 3-.053-2.64-.72-5.14-2-7.5l1-2.5a6.845 6.845 0 0 0 4 1c.297 4.267-.036 8.434-1 12.5.916.278 1.582.778 2 1.5-.992-.172-1.658.162-2 1-1.69.356-2.69 1.356-3 3 .13.876-.203 1.543-1 2-.928-1.835-2.094-2.168-3.5-1-.08-3.331-.913-6.331-2.5-9 .992-7.816 1.326-15.816 1-24-2.885.306-5.552-.027-8-1 2.728.329 5.061-.337 7-2z"/><path style="opacity:1" fill="#f1ec31" d="M120.5 268.5a58.55 58.55 0 0 0-5 9c-3.465-.897-6.465-2.564-9-5 2.011.021 4.011.021 6 0a10.756 10.756 0 0 1 3-2.5c-.752-.671-1.086-1.504-1-2.5h1a14.093 14.093 0 0 0 3.5-1c1.03.336 1.53 1.003 1.5 2z"/><path style="opacity:1" fill="#2980a3" d="M286.5 274.5v-1c4.873 1.867 8.539 5.2 11 10l-4-3c-1.739-2.743-4.073-4.743-7-6z"/><path style="opacity:1" fill="#dfc559" d="M60.5 271.5c.904.709 1.237 1.709 1 3h3c-.171-3.297.495-3.631 2-1l-2 6a7.468 7.468 0 0 0 3 2c1.446 2.204 2.28 4.537 2.5 7-.708-.881-1.542-1.547-2.5-2a34.382 34.382 0 0 0-6-8c.073-1.527-.594-2.527-2-3-.233-1.562-.9-2.895-2-4h3z"/><path style="opacity:1" fill="#619968" d="M286.5 274.5c2.927 1.257 5.261 3.257 7 6-2.927-1.257-5.261-3.257-7-6z"/><path style="opacity:1" fill="#bf1c14" d="M40.5 260.5a28.783 28.783 0 0 0 2.5 11c1.944 1.307 3.777 1.307 5.5 0 4.55-.842 8.217.492 11 4 1.406.473 2.073 1.473 2 3 1.42 2.761 2.087 5.761 2 9-2.811-3.033-4.644-6.7-5.5-11-1.5-.833-2.667-2-3.5-3.5-2.762-1.077-4.428-.244-5 2.5h-7c-.004-2.342-.837-4.342-2.5-6-.804-3.196-.638-6.196.5-9z"/><path style="opacity:1" fill="#786e16" d="M100.5 281.5a24.935 24.935 0 0 0-.5-7c-.236 1.619-1.069 2.619-2.5 3v-4h5a60.931 60.931 0 0 1-.5 11l-1 1a8.43 8.43 0 0 1-.5-4z"/><path style="opacity:1" fill="#695b0e" d="M120.5 268.5c1.073.751 1.24 1.751.5 3a36.16 36.16 0 0 0-4 7c-1.392 2.342-2.225 2.342-2.5 0 .667 0 1-.333 1-1a58.55 58.55 0 0 1 5-9z"/><path style="opacity:1" fill="#cfc552" d="M102.5 257.5c.466 5.991.799 11.991 1 18a8.43 8.43 0 0 0 .5 4c3.878 1.088 5.044 3.421 3.5 7 1.189.929 2.522 1.262 4 1a4.934 4.934 0 0 1 .5-3c.671.752 1.504 1.086 2.5 1a11.743 11.743 0 0 0-3 5c2.087-1.085 3.42-2.751 4-5h3a409.027 409.027 0 0 0-3 6c-.838.342-1.172 1.008-1 2-2.39 1.767-4.057 4.1-5 7-1.961-1.812-4.294-2.812-7-3v-10h-3a23.842 23.842 0 0 0 1 9c-.925 1.062-1.925 1.062-3 0-.838-.342-1.172-1.008-1-2-.837-5.147.496-9.48 4-13a8.43 8.43 0 0 0 .5 4l1-1c.499-3.652.665-7.318.5-11h-5v4h-2a290.98 290.98 0 0 0 1-16c.838-.342 1.172-1.008 1-2 .283-.789.783-1.456 1.5-2 1.092 2.431 2.259 2.431 3.5 0z"/><path style="opacity:1" fill="#f0ee29" d="M103.5 275.5h2c-.009 2.641 1.658 4.307 5 5 2.816.044 5.149 1.044 7 3a44.093 44.093 0 0 0-3 2c-.996.086-1.829-.248-2.5-1a4.934 4.934 0 0 0-.5 3c-1.478.262-2.811-.071-4-1 1.544-3.579.378-5.912-3.5-7a8.43 8.43 0 0 1-.5-4z"/><path style="opacity:1" fill="#182414" d="M287.5 313.5a105.178 105.178 0 0 1-2 22v1c-1.37 3.119-2.37 6.452-3 10a155.067 155.067 0 0 1-21 3 86.152 86.152 0 0 1-22-4 5972.454 5972.454 0 0 1-14-11 3451.643 3451.643 0 0 0-8-11l2-4a56.72 56.72 0 0 0 10-8c1.195-.366 1.861-1.199 2-2.5a117.517 117.517 0 0 1-6.5-8.5c-.81-4.19-.31-8.19 1.5-12a16.635 16.635 0 0 0 6-5c6.666-1.237 12.333.43 17 5-.085 1.495.581 2.495 2 3 1.761-.535 3.094-1.535 4-3a25.619 25.619 0 0 0 6-6 20.987 20.987 0 0 1 4.5-3c12.507 8.026 19.674 19.359 21.5 34z"/><path style="opacity:1" fill="#322404" d="M103.5 281.5c.6 3.125 1.767 3.458 3.5 1-.032 2.098-.699 4.098-2 6l-1 8a112.97 112.97 0 0 1-.5-15z"/><path style="opacity:1" fill="#eae636" d="M261.5 282.5a25.619 25.619 0 0 1-6 6h-6c-4.667-4.57-10.334-6.237-17-5 .111-.617.444-1.117 1-1.5a42.479 42.479 0 0 1 13 0c.535 2.109 1.535 2.609 3 1.5 1.333 2.667 2.667 2.667 4 0a4.457 4.457 0 0 1 1.5 2c1.636-2.05 3.802-3.05 6.5-3z"/><path style="opacity:1" fill="#5b9976" d="m293.5 280.5 4 3c.996-.086 1.829.248 2.5 1a46.428 46.428 0 0 0 3.5 7l-5-4a25.497 25.497 0 0 1-5-7z"/><path style="opacity:1" fill="#e11310" d="M63.5 287.5c2.936 1.015 4.27 3.182 4 6.5-.175 1.658-.842 2.991-2 4-11.507.169-22.84.669-34 1.5-1.037 1.993-.703 3.993 1 6a58.672 58.672 0 0 1 9 5c1.982 3.646 4.648 6.646 8 9a2.427 2.427 0 0 0 .5 2c4.3 3.298 8.3 6.965 12 11 .52 1.989-.314 2.989-2.5 3-1.454-4.14-4.12-7.473-8-10-2.992-3.256-6.492-5.922-10.5-8-1.49-2.494-2.99-4.994-4.5-7.5-2.563-.918-4.73-.418-6.5 1.5-.833-1.5-2-2.667-3.5-3.5.98-1.779.646-3.445-1-5a26.035 26.035 0 0 1 4-4.5c3.093-.498 5.926-1.498 8.5-3a179.674 179.674 0 0 0 26.5 1v-7c-2.897.375-5.563-.125-8-1.5 1.955-2.168 2.621-4.502 2-7-2.105-1.193-3.772-2.86-5-5a8.43 8.43 0 0 0-4-.5c.572-2.744 2.238-3.577 5-2.5.833 1.5 2 2.667 3.5 3.5.856 4.3 2.689 7.967 5.5 11z"/><path style="opacity:1" fill="#574b04" d="M114.5 285.5h1c-.58 2.249-1.913 3.915-4 5a11.743 11.743 0 0 1 3-5z"/><path style="opacity:1" fill="#cbc666" d="M249.5 288.5h6c-.906 1.465-2.239 2.465-4 3-1.419-.505-2.085-1.505-2-3z"/><path style="opacity:1" fill="#6d1b06" d="M122.5 280.5c-1.587 4.183-3.921 7.85-7 11a409.027 409.027 0 0 1 3-6 21.614 21.614 0 0 1 4-5z"/><path style="opacity:1" fill="#478" d="M242.5 285.5c3 1 5 3 6 6-.958-.453-1.792-1.119-2.5-2-.718.951-1.551 1.117-2.5.5a56.43 56.43 0 0 1-1-4.5z"/><path style="opacity:1" fill="#fab736" d="M169.5 285.5c3.741 1.385 7.074 3.385 10 6h-2c-2.989-1.503-5.656-3.503-8-6z"/><path style="opacity:1" fill="#2b598b" d="M242.5 285.5a56.43 56.43 0 0 0 1 4.5c.949.617 1.782.451 2.5-.5.708.881 1.542 1.547 2.5 2 .667 0 1 .333 1 1 1.439 2.088 2.106 4.421 2 7-1.107-1.492-2.607-2.492-4.5-3-1.79-.785-3.457-.785-5 0-2.039-1.478-2.872-3.478-2.5-6-3.194.324-4.194-.842-3-3.5a8.43 8.43 0 0 0-4-.5c.996-1.165 2.329-1.832 4-2 1.953.656 3.953.989 6 1z"/><path style="opacity:1" fill="#d6e859" d="m298.5 287.5 5 4 2 6c-3.911-2.242-6.244-5.575-7-10z"/><path style="opacity:1" fill="#ce1619" d="M7.5 287.5a51.202 51.202 0 0 0 2.5 4 131.108 131.108 0 0 0 5.5 24c-1.278-.282-2.278-.949-3-2a34.533 34.533 0 0 0-3-11 89.907 89.907 0 0 0-2-15z"/><path style="opacity:1" fill="#403b14" d="M111.5 290.5c-.873 2.386-2.373 4.386-4.5 6-.969-2.828-.303-5.162 2-7 .342 2.119 1.175 2.453 2.5 1z"/><path style="opacity:1" fill="#43826d" d="M303.5 291.5c1.694 1.027 3.027 2.361 4 4v4l-2-2-2-6z"/><path style="opacity:1" fill="#ebe545" d="M76.5 286.5c.06-.543.393-.876 1-1 .641 1.493 1.641 2.493 3 3a16.868 16.868 0 0 0 1 8 21.12 21.12 0 0 0 1-9c1.398-1.277 2.064-2.943 2-5-.14-1.53-.806-2.53-2-3 .31-1.644 1.31-2.644 3-3a84.94 84.94 0 0 0 .5 13c1.437-4.472 1.937-9.139 1.5-14h6c-.285 1.788.048 3.455 1 5 .886-.825 1.219-1.825 1-3h2c1.431-.381 2.264-1.381 2.5-3 .497 2.31.663 4.643.5 7-3.504 3.52-4.837 7.853-4 13-1.278.282-2.278.949-3 2-4.767.058-9.767.725-15 2-.552-1.503-.552-3.169 0-5-1.644-.214-3.144.12-4.5 1a4.932 4.932 0 0 1-.5-3h-3v4h-1l-2-9c.958.453 1.792 1.119 2.5 2-.22-2.463-1.054-4.796-2.5-7 2.203-.552 3.036-1.885 2.5-4-1 1.333-2 1.333-3 0-.614-1.813-.281-2.147 1-1 .424-2.115 1.591-2.948 3.5-2.5 1.658 2.661 3.324 5.327 5 8-.95.617-1.782.451-2.5-.5-1.077 2.762-.244 4.428 2.5 5z"/><path style="opacity:1" fill="#7f7111" d="M88.5 290.5c1.194.47 1.86 1.47 2 3l-1 3a9.864 9.864 0 0 1-1-6z"/><path style="opacity:1" fill="#746500" d="M82.5 287.5a21.12 21.12 0 0 1-1 9 16.868 16.868 0 0 1-1-8c.342-.838 1.008-1.172 2-1z"/><path style="opacity:1" fill="#796c12" d="M93.5 296.5c-1.662-5.156-2.995-10.656-4-16.5l1-3.5c2.398 6.451 3.398 13.118 3 20z"/><path style="opacity:1" fill="#584405" d="M76.5 286.5c.961 1.765 1.295 3.765 1 6-2.473-.236-4.14-1.569-5-4l1-1a12.412 12.412 0 0 1 2.5 4c.493-1.634.66-3.301.5-5z"/><path style="opacity:1" fill="#6f6800" d="M87.5 275.5c.437 4.861-.063 9.528-1.5 14a84.94 84.94 0 0 1-.5-13c.342-.838 1.008-1.172 2-1z"/><path style="opacity:1" fill="#c94202" d="M177.5 291.5h2c1.647 1.826 3.647 3.16 6 4a140.22 140.22 0 0 0 10.5 9 30.137 30.137 0 0 1 3.5 6 293.488 293.488 0 0 0-22-19z"/><path style="opacity:1" fill="#05163a" d="M318.5 287.5h1c.494 7.356-1.172 14.023-5 20a109.656 109.656 0 0 0 4-20z"/><path style="opacity:1" fill="#2673c8" d="M232.5 286.5a8.43 8.43 0 0 1 4 .5c-1.194 2.658-.194 3.824 3 3.5-.372 2.522.461 4.522 2.5 6 1.543-.785 3.21-.785 5 0 1.893.508 3.393 1.508 4.5 3 .838.342 1.172 1.008 1 2-.863-.963-1.53-.963-2 0 .724 3.115 2.224 5.782 4.5 8a51.727 51.727 0 0 0 1.5 9.5 2.428 2.428 0 0 1-2 .5 45.777 45.777 0 0 1-7-3c.671-1.347.671-2.514 0-3.5l2-1c-1.388-2.497-3.221-3.33-5.5-2.5-4.227-1.395-4.56-2.395-1-3a11.333 11.333 0 0 1 1.5-3.5l-8.5-4.5-1-4c-2.755-1.51-3.921-3.843-3.5-7 0-.667.333-1 1-1z"/><path style="opacity:1" fill="#fcfcfc" d="M325.5 274.5v153h-174v-1c75.093 1.049 128.593-32.284 160.5-100a100.103 100.103 0 0 0 4.5-13 157.75 157.75 0 0 0 9-39z"/><path style="opacity:1" fill="#831516" d="M6.5 287.5h1a89.907 89.907 0 0 1 2 15c-2.518-4.573-3.518-9.573-3-15z"/><path style="opacity:1" fill="#92240d" d="M61.5 278.5a34.382 34.382 0 0 1 6 8l2 9c-.934 1.068-1.268 2.401-1 4h-37a570.638 570.638 0 0 1 34-1.5c1.158-1.009 1.825-2.342 2-4 .27-3.318-1.064-5.485-4-6.5.087-3.239-.58-6.239-2-9z"/><path style="opacity:1" fill="#1e7ed5" d="M255.5 291.5c5.11.9 9.444 3.4 13 7.5 3.895 1.437 7.895 3.271 12 5.5-2.738-.535-4.572.465-5.5 3a32.065 32.065 0 0 1-2.5-4c-3.305-1.371-5.971-3.537-8-6.5-2.476-2.571-5.476-4.071-9-4.5.079 2.166.746 4.166 2 6a343.58 343.58 0 0 0-1 4c-2.294-2.87-3.628-6.203-4-10a5.727 5.727 0 0 1 3-1z"/><path style="opacity:1" fill="#5f1601" d="M69.5 295.5v5h-37c.446 4.073 2.78 6.073 7 6l2 3v1a58.672 58.672 0 0 0-9-5c-1.703-2.007-2.037-4.007-1-6h37c-.268-1.599.066-2.932 1-4z"/><path style="opacity:1" fill="#5d1e02" d="M114.5 293.5a14.093 14.093 0 0 1-1 3.5c.405.945 1.072 1.612 2 2 12.347.167 24.68.667 37 1.5-.355 1.022-1.022 1.689-2 2-13.292-1.982-26.959-2.649-41-2 .943-2.9 2.61-5.233 5-7z"/><path style="opacity:1" fill="#dcdb4e" d="M226.5 288.5c-1.81 3.81-2.31 7.81-1.5 12a117.517 117.517 0 0 0 6.5 8.5c-.139 1.301-.805 2.134-2 2.5.333-3-1-4.333-4-4-2.356-6.584-2.523-13.251-.5-20 .383.556.883.889 1.5 1z"/><path style="opacity:1" fill="#2c6baa" d="M284.5 327.5c.33-6.7-.003-13.366-1-20-.641-1.493-1.641-2.493-3-3-4.105-2.229-8.105-4.063-12-5.5-3.556-4.1-7.89-6.6-13-7.5a52.741 52.741 0 0 1 10.5-9c16.7 10.727 22.867 25.727 18.5 45z"/><path style="opacity:1" fill="#f7f017" d="M93.5 296.5c.722-1.051 1.722-1.718 3-2-.172.992.162 1.658 1 2 1.535 1.552 3.369 2.885 5.5 4 2.761-1.517 4.594-.684 5.5 2.5-12.329.5-24.662.667-37 .5.302-2.559-.032-4.893-1-7v-5h3a4.932 4.932 0 0 0 .5 3c1.356-.88 2.856-1.214 4.5-1-.552 1.831-.552 3.497 0 5 5.233-1.275 10.233-1.942 15-2z"/><path style="opacity:1" fill="#d8b661" d="M69.5 295.5h1v6a111.65 111.65 0 0 0-32 3c.363.683.696 1.35 1 2-4.22.073-6.554-1.927-7-6h37v-5z"/><path style="opacity:1" fill="#7d7c04" d="M135.5 302.5c13.137 1.134 13.137 1.801 0 2v-2z"/><path style="opacity:1" fill="#355a8c" d="M252.5 301.5c3.996 5.6 6.329 11.933 7 19-1.915.284-3.581-.049-5-1a2.428 2.428 0 0 0 2-.5 51.727 51.727 0 0 1-1.5-9.5c-2.276-2.218-3.776-4.885-4.5-8 .47-.963 1.137-.963 2 0z"/><path style="opacity:1" fill="#f7ec52" d="m109.5 300.5 26 2v2h-5c-29.669-.167-59.335 0-89 .5l3 1c-1.314.985-2.314 2.152-3 3.5l-2-3a44.043 44.043 0 0 0-1-2 111.65 111.65 0 0 1 32-3v-5c.968 2.107 1.302 4.441 1 7 12.338.167 24.671 0 37-.5-.906-3.184-2.739-4.017-5.5-2.5-2.131-1.115-3.965-2.448-5.5-4 1.075 1.062 2.075 1.062 3 0a23.842 23.842 0 0 1-1-9h3v10c2.706.188 5.039 1.188 7 3z"/><path style="opacity:1" fill="#7e7315" d="M130.5 304.5c-24.903.657-49.236 1.324-73 2 .172.992-.162 1.658-1 2-3.848-.887-7.68-1.22-11.5-1l-1.5 1.5c3.317.498 6.65.665 10 .5-1.098.897-1.098 1.73 0 2.5-3.06.817-5.894.317-8.5-1.5-.765.07-1.265.403-1.5 1l-2-1v-1c.686-1.348 1.686-2.515 3-3.5l-3-1c29.665-.5 59.331-.667 89-.5z"/><path style="opacity:1" fill="#ecd569" d="M109.5 300.5c14.041-.649 27.708.018 41 2-2.414 1.411-4.081 3.411-5 6l-2 1v-3h-4l-4-2c13.137-.199 13.137-.866 0-2l-26-2z"/><path style="opacity:1" fill="#948b00" d="M130.5 304.5h5l4 2h-82c23.764-.676 48.097-1.343 73-2z"/><path style="opacity:1" fill="#6b1601" d="M150.5 302.5c-.919 2.589-2.586 4.589-5 6 .919-2.589 2.586-4.589 5-6z"/><path style="opacity:1" fill="#3166a2" d="M231.5 287.5c-.421 3.157.745 5.49 3.5 7l1 4 8.5 4.5a11.333 11.333 0 0 0-1.5 3.5c-3.56.605-3.227 1.605 1 3 2.279-.83 4.112.003 5.5 2.5l-2 1c.671.986.671 2.153 0 3.5-4.084-3.541-8.751-6.207-14-8a19.139 19.139 0 0 1-5-7.5l1-1c-4.163-4.859-3.496-9.026 2-12.5z"/><path style="opacity:1" fill="#588461" d="M307.5 299.5a66.492 66.492 0 0 0 6 8v2a26.335 26.335 0 0 1-2 5c-.017-4.034-1.017-7.701-3-11l-1-4z"/><path style="opacity:1" fill="#078af8" d="M280.5 304.5c1.359.507 2.359 1.507 3 3 .997 6.634 1.33 13.3 1 20-2.376 3.893-3.376 8.227-3 13-1.19 2.326-3.19 3.493-6 3.5-11.76 2.749-23.094 1.916-34-2.5-1.876-1.772-2.21-3.605-1-5.5-2.179-.442-2.845-1.442-2-3a15.256 15.256 0 0 1-1.5-4.5 142.464 142.464 0 0 1-7.5-14 5.576 5.576 0 0 0 3-1l2 5c1.691-1.756 3.691-2.256 6-1.5a55.62 55.62 0 0 1 11 8c4.264-.016 8.264.817 12 2.5 2.05-.577 3.05-1.91 3-4h-3a40.618 40.618 0 0 0-2-14c-1.228-2.513-2.895-4.513-5-6v-1a343.58 343.58 0 0 1 1-4c-1.254-1.834-1.921-3.834-2-6 3.524.429 6.524 1.929 9 4.5 2.029 2.963 4.695 5.129 8 6.5a32.065 32.065 0 0 0 2.5 4c.928-2.535 2.762-3.535 5.5-3z"/><path style="opacity:1" fill="#484112" d="M56.5 308.5h-1c-.992-.172-1.658.162-2 1a50.464 50.464 0 0 1-10-.5l1.5-1.5c3.82-.22 7.652.113 11.5 1z"/><path style="opacity:1" fill="#fdfdfd" d="M-.5 276.5h1c1.35 16.771 5.35 32.771 12 48 22.263 50.425 59.93 83.259 113 98.5a139.057 139.057 0 0 0 26 3.5v1H-.5v-151z"/><path style="opacity:1" fill="#fbf010" d="M57.5 306.5h86v3c-5.771-.613-11.104.054-16 2-1.333.667-1.333 1.333 0 2-.709.904-1.709 1.237-3 1 .202 2.45-.131 4.783-1 7-.992-.172-1.658.162-2 1-2.959-.15-5.459.85-7.5 3l-1-1c-.967 1.178-1.467 2.511-1.5 4a3.647 3.647 0 0 1-1.5-1c-.979 1.82-2.479 2.987-4.5 3.5a240.38 240.38 0 0 1-31 0c-.566-.995-1.233-1.828-2-2.5h-2a301.462 301.462 0 0 0-3-4c-.709-.904-1.709-1.237-3-1v-3c.172-.992-.162-1.658-1-2a80.944 80.944 0 0 0-8-5c-1.333-1.667-1.333-3.333 0-5h1c.838-.342 1.172-1.008 1-2z"/><path style="opacity:1" fill="#cc1a14" d="M137.5 255.5c1.815 1.13 3.815 1.796 6 2 .256 3.769-.077 7.436-1 11-.631 1.948-1.631 3.781-3 5.5a60.931 60.931 0 0 1-11 .5c-.23 6.3-3.063 10.966-8.5 14-.726 3.121-2.226 5.787-4.5 8a484.862 484.862 0 0 0 44 1v4c-1.788-.285-3.455.048-5 1a3103.456 3103.456 0 0 1-13 16 1533.07 1533.07 0 0 1-14 11h-4a56.051 56.051 0 0 1 12-9.5c3.939-3.429 7.272-7.263 10-11.5 2.414-1.411 4.081-3.411 5-6 .978-.311 1.645-.978 2-2a685.873 685.873 0 0 0-37-1.5c-.928-.388-1.595-1.055-2-2a14.093 14.093 0 0 0 1-3.5c-.172-.992.162-1.658 1-2 3.079-3.15 5.413-6.817 7-11 2.856-2.702 5.189-5.869 7-9.5 1.976-.188 3.976-.021 6 .5 1.874.11 3.374-.556 4.5-2 1.636-2.727 1.802-5.393.5-8-.115-2.447-1.115-4.447-3-6z"/><path style="opacity:1" fill="#fcdd2c" d="M185.5 295.5c6.639.303 10.973 3.636 13 10l5 4c.779 4.977 2.779 9.31 6 13a102.082 102.082 0 0 1 2.5 14 66.78 66.78 0 0 1 4.5 10 49.056 49.056 0 0 1-5.5-8 443.035 443.035 0 0 1-5-18c-1.535-3.823-3.701-7.156-6.5-10a30.137 30.137 0 0 0-3.5-6 140.22 140.22 0 0 1-10.5-9z"/><path style="opacity:1" fill="#03225b" d="M249.5 292.5h3c.372 3.797 1.706 7.13 4 10v1c2.915 6.327 4.582 12.994 5 20-10.364-2.183-19.697-6.516-28-13v-2c5.249 1.793 9.916 4.459 14 8a45.777 45.777 0 0 0 7 3c1.419.951 3.085 1.284 5 1-.671-7.067-3.004-13.4-7-19 .172-.992-.162-1.658-1-2 .106-2.579-.561-4.912-2-7z"/><path style="opacity:1" fill="#6a1c05" d="M145.5 308.5c-2.728 4.237-6.061 8.071-10 11.5a56.051 56.051 0 0 0-12 9.5c-2.986.492-5.319 1.992-7 4.5a35.252 35.252 0 0 0 6 5.5l-8-3c0-.667-.333-1-1-1-.992.172-1.658-.162-2-1a102.484 102.484 0 0 0 16-11c6.247-3.578 11.58-8.244 16-14l2-1z"/><path style="opacity:1" fill="#e7d96b" d="M55.5 308.5c-1.333 1.667-1.333 3.333 0 5a24.935 24.935 0 0 0-7 .5c4.307 4.486 9.307 5.986 15 4.5.838.342 1.172 1.008 1 2a40.911 40.911 0 0 0-9 .5c2.153.099 3.82.933 5 2.5-1.679-.215-2.679.452-3 2a34.492 34.492 0 0 0-8-6 34.47 34.47 0 0 0-6-8c.235-.597.735-.93 1.5-1 2.606 1.817 5.44 2.317 8.5 1.5-1.098-.77-1.098-1.603 0-2.5.342-.838 1.008-1.172 2-1z"/><path style="opacity:1" fill="#e5e54b" d="M308.5 303.5c1.983 3.299 2.983 6.966 3 11-2.198 7.623-5.532 14.623-10 21a428.145 428.145 0 0 0 7.5-20 36.433 36.433 0 0 0-.5-12z"/><path style="opacity:1" fill="#2084da" d="M256.5 303.5c2.105 1.487 3.772 3.487 5 6a40.618 40.618 0 0 1 2 14h3c.05 2.09-.95 3.423-3 4-3.736-1.683-7.736-2.516-12-2.5a55.62 55.62 0 0 0-11-8c-2.309-.756-4.309-.256-6 1.5l-2-5a5.576 5.576 0 0 1-3 1c1-1.667 2.333-3 4-4 8.303 6.484 17.636 10.817 28 13-.418-7.006-2.085-13.673-5-20z"/><path style="opacity:1" fill="#f30506" d="M9.5 88.5v2c-1.086.12-1.753.787-2 2 .826 61.978 1.326 123.978 1.5 186l1 8c2.948 5.069 3.948 10.402 3 16 1.011.837 2.178 1.17 3.5 1 .203 1.89-.463 3.39-2 4.5a29.806 29.806 0 0 0 5-.5 87.007 87.007 0 0 1 2 8.5c-2.212 4.805-1.212 8.639 3 11.5l2-2a42.663 42.663 0 0 1 5 12c-2.53 1.329-2.698 3.663-.5 7 2.148 1.477 3.482 3.477 4 6 2.071.864 3.738 2.197 5 4-.88-4.237-1.713-8.57-2.5-13h4v-6h6a13.118 13.118 0 0 1 1-7c2.395 1.023 3.395.023 3-3 3.88 2.527 6.546 5.86 8 10-2.412.194-3.412 1.527-3 4-6.066.898-9.733 4.398-11 10.5.556 1.011 1.222 1.844 2 2.5a3404.81 3404.81 0 0 0 85 2.5c3.105-2.254 3.772-5.087 2-8.5 4.111 3.534 3.778 6.701-1 9.5a1165.64 1165.64 0 0 1-62.5-1.5c-7.527.101-15.027.601-22.5 1.5l-1 1 8 1c16.24.175 32.407.675 48.5 1.5 5.765.047 12.265-.286 19.5-1a39.872 39.872 0 0 1 11 4.5c-2.56 2.116-4.893 1.949-7-.5a1858.673 1858.673 0 0 0-79.5-1c-.684 1.284-.517 2.451.5 3.5 10.017.168 20.017.668 30 1.5-5.521.443-10.855 1.443-16 3-2.725-1.929-5.725-2.429-9-1.5a42.593 42.593 0 0 0 3 9.5c-2.409-2.717-5.409-4.717-9-6l-2-4c-.231-3.4-2.064-5.4-5.5-6a76.701 76.701 0 0 0-11-17 4.932 4.932 0 0 1-.5-3c-4.466-6.367-7.8-13.367-10-21-.825-.886-1.825-1.219-3-1v-4a131.108 131.108 0 0 1-5.5-24 51.202 51.202 0 0 1-2.5-4 10454.06 10454.06 0 0 1-1-199h3z"/><path style="opacity:1" fill="#190b09" d="M5.5 287.5h1c-.518 5.427.482 10.427 3 15a34.533 34.533 0 0 1 3 11c-.475 2.813.525 4.813 3 6 .6 3.463 1.6 6.796 3 10-.009 1.808.491 3.475 1.5 5a85.596 85.596 0 0 0 11 14 88.028 88.028 0 0 0 8 14c1.777 2.29 3.944 3.957 6.5 5l2 4c3.229 4.687 7.229 8.353 12 11a119.94 119.94 0 0 0 9 9.5 115.551 115.551 0 0 1 21 13l6 1.5c.683 1.676 2.017 2.343 4 2a81.316 81.316 0 0 0 3 2.5 274.396 274.396 0 0 0 22 6.5c3.774 2.661 8.107 3.661 13 3h1c1.452.802 3.118 1.302 5 1.5 10.661.5 21.328.667 32 .5 7.02.43 13.686-.57 20-3 4.259-.809 8.259-2.142 12-4a19.22 19.22 0 0 1 6-1c3.354-.247 6.354-1.247 9-3a215.62 215.62 0 0 0 17-10 38.056 38.056 0 0 0 10-4.5 64.783 64.783 0 0 1 11-8c.722-1.751 1.722-3.251 3-4.5a57.51 57.51 0 0 0 9-9 121.786 121.786 0 0 0 17-20 76.125 76.125 0 0 0 12-20c4.468-6.377 7.802-13.377 10-21a26.335 26.335 0 0 0 2-5c2.412.194 3.412 1.527 3 4a100.103 100.103 0 0 1-4.5 13c-31.907 67.716-85.407 101.049-160.5 100a139.057 139.057 0 0 1-26-3.5c-53.07-15.241-90.737-48.075-113-98.5a87.723 87.723 0 0 0-6.5-26 60.937 60.937 0 0 1-.5-11z"/><path style="opacity:1" fill="#470304" d="M191.5 419.5h4c-6.314 2.43-12.98 3.43-20 3v-1c5.551-.027 10.884-.694 16-2z"/><path style="opacity:1" fill="#9d2120" d="M138.5 420.5a505.577 505.577 0 0 0 37 1v1c-10.672.167-21.339 0-32-.5-1.882-.198-3.548-.698-5-1.5z"/><path style="opacity:1" fill="#7e1315" d="M124.5 417.5c4.485.84 8.819 1.84 13 3-4.893.661-9.226-.339-13-3z"/><path style="opacity:1" fill="#9c191d" d="M207.5 415.5c-3.741 1.858-7.741 3.191-12 4h-4c4.933-1.978 10.266-3.311 16-4z"/><path style="opacity:1" fill="#4d0403" d="M222.5 411.5c-2.646 1.753-5.646 2.753-9 3 2.456-2.368 5.456-3.368 9-3z"/><path style="opacity:1" fill="#d21417" d="M95.5 404.5c1.7-.16 3.366.006 5 .5 5.523 4.315 11.857 6.482 19 6.5v3c21.045 4.762 42.378 6.262 64 4.5a7.293 7.293 0 0 0 3-2 118.8 118.8 0 0 1 21-2.5v1c-5.734.689-11.067 2.022-16 4-5.116 1.306-10.449 1.973-16 2a505.577 505.577 0 0 1-37-1h-1a156.12 156.12 0 0 0-13-3 274.396 274.396 0 0 1-22-6.5 81.316 81.316 0 0 1-3-2.5c-.683-1.676-2.017-2.343-4-2v-2z"/><path style="opacity:1" fill="#af1a1c" d="M239.5 401.5a215.62 215.62 0 0 1-17 10c-3.544-.368-6.544.632-9 3a19.22 19.22 0 0 0-6 1v-1a981.062 981.062 0 0 1 22-8.5 18.33 18.33 0 0 0 6-4 8.43 8.43 0 0 1 4-.5z"/><path style="opacity:1" fill="#8f1919" d="M95.5 406.5c1.983-.343 3.317.324 4 2-1.983.343-3.317-.324-4-2z"/><path style="opacity:1" fill="#9a1a1c" d="M59.5 382.5a52.281 52.281 0 0 1 8 4.5c4.711 4.38 9.711 8.38 15 12 3.934 2.703 8.267 4.536 13 5.5v2l-6-1.5a115.551 115.551 0 0 0-21-13 119.94 119.94 0 0 1-9-9.5z"/><path style="opacity:1" fill="#9b201a" d="M258.5 378.5c1.19 2.369 2.857 4.369 5 6-1.278 1.249-2.278 2.749-3 4.5a64.783 64.783 0 0 0-11 8 38.056 38.056 0 0 1-10 4.5l10-9a28.12 28.12 0 0 0 9-5c.821-2.946.821-5.946 0-9z"/><path style="opacity:1" fill="#821415" d="M47.5 371.5c3.591 1.283 6.591 3.283 9 6a11.743 11.743 0 0 1 3 5c-4.771-2.647-8.771-6.313-12-11z"/><path style="opacity:1" fill="#f7d43e" d="M230.5 357.5c5.705.305 11.038 1.805 16 4.5a135.23 135.23 0 0 0 10 9.5 88.06 88.06 0 0 0 7.5 10c2.354-.856 3.854-2.523 4.5-5 1.189-.929 2.522-1.262 4-1a57.51 57.51 0 0 1-9 9c-2.143-1.631-3.81-3.631-5-6-2.415-3.922-5.415-7.422-9-10.5a267.291 267.291 0 0 0-19-10.5z"/><path style="opacity:1" fill="#dcd83f" d="M289.5 355.5a121.786 121.786 0 0 1-17 20c1.099-2.663 2.099-5.996 3-10 4.251 1.602 6.084-.065 5.5-5 2.844.625 4.678-.708 5.5-4 .825-.886 1.825-1.219 3-1z"/><path style="opacity:1" fill="#e30f0b" d="M123.5 329.5h4c-.074 1.911-1.074 3.078-3 3.5 1.805 1.441 3.805 1.608 6 .5a12.93 12.93 0 0 0 .5 5c2.669 2.354 3.836 5.021 3.5 8 1.772 3.413 1.105 6.246-2 8.5a3404.81 3404.81 0 0 1-85-2.5c28.505.331 56.838-.002 85-1v-2c-2.508-6.513-6.841-11.513-13-15a14.555 14.555 0 0 0 4-5z"/><path style="opacity:1" fill="#b52111" d="M56.5 339.5a44.906 44.906 0 0 0-7 9c-.838.342-1.172 1.008-1 2 27.828.998 55.828 1.331 84 1a1807.265 1807.265 0 0 1-85 1c-.778-.656-1.444-1.489-2-2.5 1.267-6.102 4.934-9.602 11-10.5z"/><path style="opacity:1" fill="#5e0c01" d="M128.5 345.5c1.694 1.027 3.027 2.361 4 4v2c-28.172.331-56.172-.002-84-1h71a31.116 31.116 0 0 0 11-1c-1.13-1.122-1.797-2.456-2-4z"/><path style="opacity:1" fill="#e6e055" d="M285.5 336.5c1.683 7.163-.984 11.329-8 12.5a100.346 100.346 0 0 1-34 0c-1.593-.949-2.926-2.115-4-3.5a86.152 86.152 0 0 0 22 4 155.067 155.067 0 0 0 21-3c.63-3.548 1.63-6.881 3-10z"/><path style="opacity:1" fill="#dab352" d="M119.5 345.5c1.879-.107 2.212.393 1 1.5.881.708 1.547 1.542 2 2.5-1.291-.237-2.291.096-3 1h-24v-1c7.674.166 15.341 0 23-.5.837-1.011 1.17-2.178 1-3.5z"/><path style="opacity:1" fill="#a37929" d="M61.5 349.5h34v1h-47c-.172-.992.162-1.658 1-2 1.788 1.122 3.788 1.289 6 .5-1.388-.889-1.221-1.389.5-1.5 1.597 1.385 3.43 2.051 5.5 2z"/><path style="opacity:1" fill="#ddb993" d="m124.5 342.5 4 3c.203 1.544.87 2.878 2 4a31.116 31.116 0 0 1-11 1c.709-.904 1.709-1.237 3-1a18.453 18.453 0 0 0 6-.5c-2.522-1.359-3.855-3.526-4-6.5z"/><path style="opacity:1" fill="#95191b" d="M18.5 329.5a85.178 85.178 0 0 0 10 12 4.932 4.932 0 0 0 .5 3 76.701 76.701 0 0 1 11 17c3.436.6 5.269 2.6 5.5 6-2.556-1.043-4.723-2.71-6.5-5a88.028 88.028 0 0 1-8-14 85.596 85.596 0 0 1-11-14c-1.009-1.525-1.509-3.192-1.5-5z"/><path style="opacity:1" fill="#e1de42" d="M301.5 335.5a76.125 76.125 0 0 1-12 20c.51-4.06 1.344-8.06 2.5-12a7.248 7.248 0 0 0 2.5 2c1.604-3.922 3.938-7.256 7-10z"/><path style="opacity:1" fill="#faed29" d="M115.5 341.5c1.828.783 3.161 2.116 4 4 .17 1.322-.163 2.489-1 3.5-7.659.5-15.326.666-23 .5h-34c-.734-1.208-1.067-2.541-1-4 1.28-1.468 2.946-2.135 5-2v-3h7c-.11-.617-.444-1.117-1-1.5 1.62-.236 2.62-1.069 3-2.5a281.603 281.603 0 0 1 33-1c.046 5.362 2.713 7.362 8 6z"/><path style="opacity:1" fill="#686021" d="M113.5 335.5c.667 0 1 .333 1 1 2.587 2.972 5.92 4.972 10 6 .145 2.974 1.478 5.141 4 6.5a18.453 18.453 0 0 1-6 .5c-.453-.958-1.119-1.792-2-2.5 1.212-1.107.879-1.607-1-1.5-.839-1.884-2.172-3.217-4-4a112.33 112.33 0 0 0-5-2l-1-2a71.254 71.254 0 0 0 4-2z"/><path style="opacity:1" fill="#766b08" d="M106.5 333.5c-10.872.342-21.54 1.342-32 3-.38 1.431-1.38 2.264-3 2.5.556.383.89.883 1 1.5h-7v3c-2.054-.135-3.72.532-5 2-4.893 1.47-5.226.47-1-3 3.995-2.331 7.995-4.665 12-7a14.72 14.72 0 0 0-5-1.5c13.33-.5 26.662-.667 40-.5z"/><path style="opacity:1" fill="#d3b77e" d="m114.5 336.5 8 3 2 3c-4.08-1.028-7.413-3.028-10-6z"/><path style="opacity:1" fill="#b91d17" d="M123.5 329.5a14.555 14.555 0 0 1-4 5c6.159 3.487 10.492 8.487 13 15-.973-1.639-2.306-2.973-4-4l-4-3-2-3a35.252 35.252 0 0 1-6-5.5c1.681-2.508 4.014-4.008 7-4.5z"/><path style="opacity:1" fill="#fbf108" d="M72.5 340.5a10.1 10.1 0 0 0 6-1.5l-1-1c9.7-.755 19.368-.588 29 .5-.219 1.175.114 2.175 1 3 4.307.322 7.974 1.989 11 5-3.284 1.157-6.618 1.324-10 .5-1.877-.74-3.377-1.573-4.5-2.5-7.825 2.962-15.992 3.795-24.5 2.5a532.271 532.271 0 0 1-10-4c1.442-.377 2.442-1.21 3-2.5z"/><path style="opacity:1" fill="#73240a" d="M49.5 319.5a34.492 34.492 0 0 1 8 6 45.426 45.426 0 0 0 8 8 67.93 67.93 0 0 1-9 6c-.412-2.473.588-3.806 3-4 2.186-.011 3.02-1.011 2.5-3a93.312 93.312 0 0 0-12-11 2.427 2.427 0 0 1-.5-2z"/><path style="opacity:1" fill="#2f6ca3" d="M241.5 341.5c10.906 4.416 22.24 5.249 34 2.5 2.81-.007 4.81-1.174 6-3.5.273 1.951-.393 3.451-2 4.5-15.274 4.437-29.941 3.104-44-4-4.195-3.03-7.861-6.53-11-10.5 2.695.433 4.862 1.766 6.5 4 .991-1.947 1.325-3.947 1-6-2.391-.929-4.225-2.429-5.5-4.5l1-1.5a28.043 28.043 0 0 0 5 1.5c2.475 4.833 4.141 10 5 15.5 1.122 1.13 2.456 1.797 4 2z"/><path style="opacity:1" fill="#c0b434" d="M110.5 331.5c0 .667.333 1 1 1v2c.342.838 1.008 1.172 2 1a71.254 71.254 0 0 1-4 2l1 2a112.33 112.33 0 0 1 5 2c-5.287 1.362-7.954-.638-8-6a281.603 281.603 0 0 0-33 1c10.46-1.658 21.128-2.658 32-3 1.699-.027 3.033-.694 4-2z"/><path style="opacity:1" fill="#2782bc" d="M284.5 327.5a24.935 24.935 0 0 1-.5 7 41.362 41.362 0 0 0-2.5 6c-.376-4.773.624-9.107 3-13z"/><path style="opacity:1" fill="#ebe148" d="M121.5 322.5c-.399 1.021-1.733 1.354-4 1v3c-1.983-.343-3.317.324-4 2-1.4.6-2.4 1.6-3 3-.967 1.306-2.301 1.973-4 2-13.338-.167-26.67 0-40 .5a14.72 14.72 0 0 1 5 1.5c-4.005 2.335-8.005 4.669-12 7-4.226 3.47-3.893 4.47 1 3-.067 1.459.266 2.792 1 4-2.07.051-3.903-.615-5.5-2-1.721.111-1.888.611-.5 1.5-2.212.789-4.212.622-6-.5a44.906 44.906 0 0 1 7-9 67.93 67.93 0 0 0 9-6 45.426 45.426 0 0 1-8-8c.321-1.548 1.321-2.215 3-2 2.197 2.045 4.53 2.378 7 1a301.462 301.462 0 0 1 3 4c-2.583.592-2.583 1.258 0 2 1.213-.247 1.88-.914 2-2 .767.672 1.434 1.505 2 2.5a240.38 240.38 0 0 0 31 0c2.021-.513 3.521-1.68 4.5-3.5.414.457.914.791 1.5 1 .033-1.489.533-2.822 1.5-4l1 1c2.041-2.15 4.541-3.15 7.5-3z"/><path style="opacity:1" fill="#605025" d="M111.5 332.5c-.667 0-1-.333-1-1 .6-1.4 1.6-2.4 3-3 1.358-1.126 2.692-1.126 4 0a508.064 508.064 0 0 1-6 4z"/><path style="opacity:1" fill="#2868ae" d="M229.5 314.5a142.464 142.464 0 0 0 7.5 14 15.256 15.256 0 0 0 1.5 4.5c-.845 1.558-.179 2.558 2 3-1.21 1.895-.876 3.728 1 5.5-1.544-.203-2.878-.87-4-2-.859-5.5-2.525-10.667-5-15.5a28.043 28.043 0 0 1-5-1.5l-1 1.5c1.275 2.071 3.109 3.571 5.5 4.5.325 2.053-.009 4.053-1 6-1.638-2.234-3.805-3.567-6.5-4a26.544 26.544 0 0 1-5-7 32.295 32.295 0 0 1 10-9z"/><path style="opacity:1" fill="#d22f04" d="M199.5 310.5c2.799 2.844 4.965 6.177 6.5 10a443.035 443.035 0 0 0 5 18 49.056 49.056 0 0 0 5.5 8 55.849 55.849 0 0 0 14 11 267.291 267.291 0 0 1 19 10.5c3.585 3.078 6.585 6.578 9 10.5.821 3.054.821 6.054 0 9a28.12 28.12 0 0 1-9 5c-.219-1.175.114-2.175 1-3 3.377-.333 6.044-1.833 8-4.5a25.775 25.775 0 0 1-3.5-7.5 25.241 25.241 0 0 1-6.5-8c-9.662-2.664-18.329-7.164-26-13.5a20.431 20.431 0 0 1-5.5-1.5 73.072 73.072 0 0 0-11-20c-1.251-8.346-3.418-16.346-6.5-24z"/><path style="opacity:1" fill="#d3c074" d="M127.5 323.5a102.484 102.484 0 0 1-16 11v-2a508.064 508.064 0 0 0 6-4c-1.308-1.126-2.642-1.126-4 0 .683-1.676 2.017-2.343 4-2a37.266 37.266 0 0 0 10-3z"/><path style="opacity:1" fill="#847900" d="M70.5 328.5h2c-.12 1.086-.787 1.753-2 2-2.583-.742-2.583-1.408 0-2z"/><path style="opacity:1" fill="#ccc350" d="M287.5 313.5c1.151 5.15 1.317 10.484.5 16-.24 2.352-1.073 4.352-2.5 6a105.178 105.178 0 0 0 2-22z"/><path style="opacity:1" fill="#be1b1c" d="M15.5 319.5c1.175-.219 2.175.114 3 1 2.2 7.633 5.534 14.633 10 21a85.178 85.178 0 0 1-10-12 43.288 43.288 0 0 1-3-10z"/><path style="opacity:1" fill="#807312" d="M127.5 323.5a37.266 37.266 0 0 1-10 3v-3c2.267.354 3.601.021 4-1 .342-.838 1.008-1.172 2-1 1.256-.404 2.423-1.071 3.5-2 1.811.924 1.645 1.757-.5 2.5.556.383.889.883 1 1.5z"/><path style="opacity:1" fill="#645618" d="M64.5 320.5v3c1.291-.237 2.291.096 3 1-2.47 1.378-4.803 1.045-7-1-1.18-1.567-2.847-2.401-5-2.5a40.911 40.911 0 0 1 9-.5z"/><path style="opacity:1" fill="#dbd247" d="m219.5 319.5-2 4c2.691 3.685 5.358 7.352 8 11-3.4-.231-5.4-2.064-6-5.5a4.934 4.934 0 0 0-3-.5v-9h3z"/><path style="opacity:1" fill="#7a6f33" d="M55.5 313.5a80.944 80.944 0 0 1 8 5c-5.693 1.486-10.693-.014-15-4.5a24.935 24.935 0 0 1 7-.5z"/><path style="opacity:1" fill="#841a1b" d="M12.5 313.5c.722 1.051 1.722 1.718 3 2v4c-2.475-1.187-3.475-3.187-3-6z"/><path style="opacity:1" fill="#6d1a03" d="m41.5 310.5 2 1a34.47 34.47 0 0 1 6 8c-3.352-2.354-6.018-5.354-8-9z"/><path style="opacity:1" fill="#797725" d="M127.5 311.5c12 .667 12 1.333 0 2-1.333-.667-1.333-1.333 0-2z"/><path style="opacity:1" fill="#ccba55" d="M143.5 309.5c-4.42 5.756-9.753 10.422-16 14-.111-.617-.444-1.117-1-1.5 2.145-.743 2.311-1.576.5-2.5-1.077.929-2.244 1.596-3.5 2 .869-2.217 1.202-4.55 1-7 1.291.237 2.291-.096 3-1 12-.667 12-1.333 0-2 4.896-1.946 10.229-2.613 16-2z"/></svg>