<svg xmlns="http://www.w3.org/2000/svg" width="324" height="425" style="shape-rendering:geometricPrecision;text-rendering:geometricPrecision;image-rendering:optimizeQuality;fill-rule:evenodd;clip-rule:evenodd"><path style="opacity:1" fill="#fce409" d="M279.5 15.5c-.958.453-1.792 1.12-2.5 2l-1-2c-.423 1.456-1.256 1.956-2.5 1.5 1.196-.654 1.196-1.154 0-1.5a48.925 48.925 0 0 0-3 9c-1.253 4.11-3.253 7.777-6 11-1.536 1.525-2.536 3.525-3 6-3.377 7.08-2.377 13.247 3 18.5 1.634.493 3.301.66 5 .5 1.65 6.438 2.65 13.105 3 20-.172.992.162 1.658 1 2v2l-2 4c-.904.709-1.237 1.709-1 3a4.932 4.932 0 0 1-3-.5 13.923 13.923 0 0 0-3-4 113.312 113.312 0 0 0-11-7.5h-1c-.667-1.333-1.333-1.333-2 0-1.155 7.155-1.322 14.488-.5 22 .566 2.223 1.4 4.223 2.5 6v1c-.188 3.591.645 6.924 2.5 10 3.421.231 6.921-.103 10.5-1a5.576 5.576 0 0 0 3-1l1 3.5a108.83 108.83 0 0 1-4 11c-.007 1.812.66 3.312 2 4.5a10.776 10.776 0 0 1-6 2c.012-3.946-1.988-5.613-6-5-1.73-.526-3.064-1.526-4-3-.342-.838-1.008-1.172-2-1-1.539 11.82-.873 23.653 2 35.5.63 1.31 1.63 2.144 3 2.5.077 1.25.744 2.083 2 2.5 2.982.498 5.982.665 9 .5.166 7.341 0 14.674-.5 22-1.426 3.361-3.593 3.861-6.5 1.5l1-1c-2.493-1.325-3.66-3.491-3.5-6.5a3.647 3.647 0 0 1-1.5 1c-5.702-2.659-10.702-1.659-15 3 .72 4.637 1.22 9.303 1.5 14 .122 1.937.955 3.27 2.5 4h1v2c.215 6.749 1.882 13.082 5 19 3.298.199 6.632.199 10 0 1.147.318 1.981.984 2.5 2a54.557 54.557 0 0 1-.5 18 12.805 12.805 0 0 0-6-3c-4.336-2.671-8.67-5.338-13-8-.667-1.333-1.333-1.333-2 0-1.157 8.49-1.324 17.157-.5 26a40.23 40.23 0 0 1 2 11c3.366 6.843 8.7 8.843 16 6 1.771.847 2.937 2.18 3.5 4a333.668 333.668 0 0 1-1 19 275.427 275.427 0 0 1-6 32c-3.487 1.022-4.82 3.355-4 7a203.918 203.918 0 0 1-9 3.5l1 1a8.43 8.43 0 0 1-4 .5c-.246 2.97-1.912 4.303-5 4v4c-3.635 2.107-5.801 5.107-6.5 9a82.343 82.343 0 0 1 7.5-4h8c.285 1.788-.048 3.455-1 5-1.484.967-2.484 2.3-3 4-3.654.251-5.821 2.251-6.5 6-6.743 2.879-8.076 7.212-4 13 1.895-1.682 4.062-2.182 6.5-1.5l-1 1c1.236 1.388 2.569 2.554 4 3.5 2.556-.368 4.556.466 6 2.5-1.6 1.123-2.6 2.623-3 4.5h-1c-5.872 1.377-11.205 3.877-16 7.5a137.108 137.108 0 0 1-16 4l1 1c-6.387.494-12.054 2.328-17 5.5a385.119 385.119 0 0 1-48 2c-5.671-2.124-11.671-3.124-18-3-5.05-.355-9.717-1.688-14-4-.212-1.884-1.212-3.217-3-4a20.506 20.506 0 0 1-7-3.5c1.771-.535 2.104-1.369 1-2.5-1.268.928-2.601 1.095-4 .5-3.868-2.778-7.368-5.612-10.5-8.5l-1 1a29.555 29.555 0 0 0-4.5-2.5c3.206-2.621 3.539-5.455 1-8.5 1.189-.929 2.522-1.262 4-1 2.882.486 5.548.486 8 0-.24-1.967.094-3.801 1-5.5-4.093-1.267-7.76-3.267-11-6a50.584 50.584 0 0 1-5-8.5c2.265-1.147 4.598-1.314 7-.5a50.091 50.091 0 0 0 12.5 3.5c.966-4.984-1.201-7.651-6.5-8-2.59-3.271-5.256-6.604-8-10a383.48 383.48 0 0 0-12-4c-.957-3.865-3.29-6.531-7-8a64.987 64.987 0 0 0-5.5-16 128.43 128.43 0 0 1-.5-16v-25c8.745 2.088 15.412-.579 20-8 2.93-11.456 3.763-23.123 2.5-35-.388-.928-1.055-1.595-2-2-2.448.199-4.281 1.199-5.5 3-5.42 4.183-11.254 7.516-17.5 10a118.163 118.163 0 0 1-1.5-22h3c7.016 1.656 12.016-.677 15-7 1.617-1.621 2.784-3.621 3.5-6a303.94 303.94 0 0 1 1.5-22c-.212-2.388-1.545-3.388-4-3-2.73-.111-4.73.889-6 3a38.457 38.457 0 0 1-13 2c-1.718-7.86-2.385-15.86-2-24h3c6.94 2.612 11.44.279 13.5-7 .834-11.018 1.667-22.018 2.5-33h-6v3a46.475 46.475 0 0 1-9 7 51.56 51.56 0 0 0-7 1 811.033 811.033 0 0 1-2-23 29.305 29.305 0 0 1 9 3c2.548.235 4.214-.765 5-3 1.815-1.13 3.815-1.796 6-2v-10c.722-.418 1.222-1.084 1.5-2A483.82 483.82 0 0 1 72.5 81c.73-4.937-1.27-6.604-6-5a118.884 118.884 0 0 0-10 9.5 3.646 3.646 0 0 1-1.5-1c-1.308 2.801-3.142 5.134-5.5 7-.975-2.811-1.642-5.811-2-9 .325-7.852-.008-15.518-1-23 2.172-.745 4.505-.911 7-.5 1.824-.66 3.157-1.827 4-3.5l1-4c1.433-5.35.933-10.684-1.5-16a184.166 184.166 0 0 1-8.5-16c-.825-.886-1.825-1.219-3-1-.667-1.333-1.333-1.333-2 0-1.175-.219-2.175.114-3 1-1.09 3.09-3.09 5.09-6 6-.552 5.412-2.718 10.078-6.5 14-.667 4-.667 8 0 12 .497 3.05 1.997 4.05 4.5 3a61.436 61.436 0 0 1 5.5 5c.19 2.208.69 4.208 1.5 6v9c-3.735-.776-7.069-2.442-10-5a16.869 16.869 0 0 0-8-1 20.23 20.23 0 0 0-4-4 41.744 41.744 0 0 0-6-2 211.172 211.172 0 0 1 0-38.5l-.5-7.5A9.467 9.467 0 0 0 8.5 15l1-1a11928.18 11928.18 0 0 1 297-1c.457.414.791.914 1 1.5a1200.435 1200.435 0 0 0-1.5 48l-1-46c-5.779-1.307-11.612-1.307-17.5 0a4.458 4.458 0 0 1-1.5 2c-1.094-3.634-3.26-4.634-6.5-3z"/><path style="opacity:1" fill="#70776d" d="M-.5-.5h324v1H.5v274h-1V-.5z"/><path style="opacity:1" fill="#fcfcfc" d="M323.5 274.5v150h-144c28.325-4.331 53.991-14.997 77-32 38.414-30.157 60.747-69.49 67-118z"/><path style="opacity:1" fill="#090504" d="M323.5.5v274c-6.253 48.51-28.586 87.843-67 118a4.934 4.934 0 0 1-3-.5c-1.333-.667-1.333-1.333 0-2a55.582 55.582 0 0 1-9-1.5c-1.797 1.432-3.13 1.099-4-1a47.129 47.129 0 0 0 7-6c2.169-1.84 3.502-4.174 4-7a135.685 135.685 0 0 0-17 9 179.42 179.42 0 0 0-7 .5c4.27-3.761 7.937-7.928 11-12.5 3.863-2.685 5.696-6.352 5.5-11-3.269-1.318-6.435-1.318-9.5 0a82.343 82.343 0 0 0-7.5 4c.699-3.893 2.865-6.893 6.5-9a803.573 803.573 0 0 0 21.5-15 121.37 121.37 0 0 0 5.5-37c.722-.418 1.222-1.084 1.5-2 .5-7.993.666-15.993.5-24 3.354-.761 6.187-2.428 8.5-5-1.026 3.879-.359 7.546 2 11 3.573 3.54 7.739 6.206 12.5 8a345.94 345.94 0 0 0 2 8v2c.42 8.282 1.753 16.282 4 24v1a56.376 56.376 0 0 0 2.5 18 31.245 31.245 0 0 0 5.5-9 167.973 167.973 0 0 0 14-33c1.777-3.005 2.777-6.338 3-10a734.875 734.875 0 0 0 2-17c.999-90.165 1.333-180.499 1-271H3.5c-.333 89.168 0 178.168 1 267-.245 5.584.422 10.917 2 16 .942 8.813 3.275 17.146 7 25 1.99 8.308 5.324 15.975 10 23l2 4c.664 1.987 1.83 3.654 3.5 5a67.363 67.363 0 0 0 1.5-13v-1a1253.567 1253.567 0 0 0 7-40c5.439-3.591 9.106-8.424 11-14.5a9.84 9.84 0 0 0-1-4c2.77 2.209 6.103 3.709 10 4.5-.315 3.871.018 7.538 1 11v3c-.166 9.006 0 18.006.5 27 1.91 6.385 4.41 12.385 7.5 18 .613 4.147 2.946 6.813 7 8l1 2c.602 2.904 2.435 4.57 5.5 5a14.439 14.439 0 0 0 2.5 5.5c-9.22-.314-11.22 3.186-6 10.5a19.857 19.857 0 0 1-7.5 5c-1.836 3.068-1.67 5.901.5 8.5-1.854 1.29-2.187 2.79-1 4.5-3.674-.993-7.34-.993-11 0-33.739-28.805-52.739-65.472-57-110V.5h323z"/><path style="opacity:1" fill="#f0e04e" d="M303.5 6.5v-1h15v270a734.875 734.875 0 0 1-2 17c-1.777 3.005-2.777 6.338-3 10a167.973 167.973 0 0 1-14 33h-2c.178-7.023 3.012-12.69 8.5-17 4.092-7.446 6.092-15.446 6-24a31.53 31.53 0 0 1 4-7c.498-3.317.665-6.65.5-10a9122.113 9122.113 0 0 0 0-270 46.772 46.772 0 0 0-13-1z"/><path style="opacity:1" fill="#f3e511" d="M303.5 6.5a46.772 46.772 0 0 1 13 1 9122.113 9122.113 0 0 1 0 270 178.869 178.869 0 0 1-1-38 1573.036 1573.036 0 0 1-2-56 320.59 320.59 0 0 1 2-39c-1.888-5.438-2.554-11.105-2-17h3a112.97 112.97 0 0 0-.5-15l-2-2a1612.85 1612.85 0 0 1 .5-98l-2-4c-101.664-1-203.331-1.333-305-1 .33 18.84-.003 37.508-1 56v-57h297z"/><path style="opacity:1" fill="#e7d95f" d="M5.5 5.5c-.306 94.009.027 188.009 1 282-1.578-5.083-2.245-10.416-2-16-.333-88.835 0-177.502 1-266z"/><path style="opacity:1" fill="#fce40c" d="M316.5 277.5a50.464 50.464 0 0 1-.5 10 31.53 31.53 0 0 0-4 7c.092 8.554-1.908 16.554-6 24-5.488 4.31-8.322 9.977-8.5 17-.025 2.679-1.358 4.012-4 4 .344-4.622-.323-8.955-2-13v-1c.286-8.53-1.047-16.53-4-24v-11c1.599.268 2.932-.066 4-1 1.89.203 3.39-.463 4.5-2a17.758 17.758 0 0 0 1.5-7c1.734-2.183 2.734-4.85 3-8a19.887 19.887 0 0 0 3.5-4c.499-3.652.665-7.318.5-11-4.506-.352-8.839.315-13 2-.798.457-1.131 1.124-1 2-1.322.17-2.489-.163-3.5-1a60.931 60.931 0 0 1-.5-11 41.541 41.541 0 0 0 8-1c1.8-4.949 3.633-9.949 5.5-15a82.105 82.105 0 0 0 1.5-18c1.844-1.779 2.51-4.112 2-7-4.664-.319-8.664 1.014-12 4-.342.838-1.008 1.172-2 1l-6 1c.372-5.25.539-10.583.5-16 5.569-1.065 8.403-4.399 8.5-10-.134-1.792.199-3.458 1-5a156.561 156.561 0 0 1 8-19c1.972-2.584 2.972-5.584 3-9a24.935 24.935 0 0 0-7 .5l-7 5.5c.011-.941-.489-1.608-1.5-2-2.102.538-2.935 1.538-2.5 3-1.786-1.521-3.619-1.854-5.5-1-.433-2.164.067-4.164 1.5-6a20.222 20.222 0 0 1-1-5c3.35.165 6.683-.002 10-.5 1.167-.5 2-1.333 2.5-2.5l1 1a171.678 171.678 0 0 0 6.5-30v-7c-7.068.11-13.401 2.276-19 6.5a8.43 8.43 0 0 1-4 .5v-14h11c2.591-.754 4.424-2.421 5.5-5a204.946 204.946 0 0 0 3.5-24c4.564-1.934 5.897-5.267 4-10-.607.124-.94.457-1 1h-1a108.61 108.61 0 0 0-19 6.5c1.196.654 1.196 1.154 0 1.5-1-.333-1.667-1-2-2a89.477 89.477 0 0 0 1.5-12 27.713 27.713 0 0 0 10-7c-.119-2.393.381-4.893 1.5-7.5-.293-3.42-1.959-5.92-5-7.5.431-.794.765-1.627 1-2.5-1.549-3.456-2.549-7.123-3-11-.924-1.811-1.757-1.645-2.5.5-2.685-2.712-3.852-6.045-3.5-10 3.24-1.634 5.406-.634 6.5 3a4.458 4.458 0 0 0 1.5-2c5.888-1.307 11.721-1.307 17.5 0l1 46c.181-16.044.681-32.044 1.5-48a3.647 3.647 0 0 0-1-1.5c-99.006-.9-198.006-.566-297 1l-1 1c.916.374 1.75.874 2.5 1.5l.5 7.5a211.172 211.172 0 0 0 0 38.5 41.744 41.744 0 0 1 6 2h-5a8.434 8.434 0 0 0 .5 4 93.229 93.229 0 0 0 7 11 87.252 87.252 0 0 1 3 18c2.49 3.175 5.49 5.509 9 7a48.797 48.797 0 0 1 8.5-2c.166 5.011 0 10.011-.5 15-1.011.837-2.178 1.17-3.5 1-5.55-6.188-12.55-8.854-21-8a53.035 53.035 0 0 0 1.5 14c.235 1.619 1.069 2.619 2.5 3a208.925 208.925 0 0 1 5.5 16c.949 1.593 2.115 2.926 3.5 4 3.125.979 6.458 1.313 10 1a84.94 84.94 0 0 1-.5 13c-.29 1.544-.956 2.877-2 4a6227.513 6227.513 0 0 1-16-8 31.881 31.881 0 0 0-8.5-1c1.145 2.965 2.311 5.965 3.5 9 3.094 1.87 4.927 4.537 5.5 8a60.94 60.94 0 0 0 .5 11 33.1 33.1 0 0 1 3.5 8.5c2.744 2.884 6.077 4.717 10 5.5a206.893 206.893 0 0 1-1.5 14c-5.508-2.555-11.342-4.222-17.5-5-1.248.834-1.915 2.167-2 4 .13 3.084 1.13 5.75 3 8a30.555 30.555 0 0 1 3 12 70.523 70.523 0 0 0 1.5 9c.708.881 1.542 1.547 2.5 2 1.28 4.42 4.28 6.087 9 5-.087 4.357-.42 8.69-1 13a7384.133 7384.133 0 0 0-15.5-5 6.29 6.29 0 0 0-3 1c.396 7.476 1.896 14.81 4.5 22 .247 1.213.914 1.88 2 2 .296 2.763 1.296 5.263 3 7.5a189.246 189.246 0 0 1 12 3.5 851.56 851.56 0 0 0-4 39v1c-.617.111-1.117.444-1.5 1a24.939 24.939 0 0 0-.5 7h-3l-2-4a697.21 697.21 0 0 1-7.5-20 81.216 81.216 0 0 0-2.5-3c-1.052-4.681-1.052-9.348 0-14-4.374-6.946-6.374-14.612-6-23-.097-2.445.57-4.611 2-6.5l-.5-1.5a4.452 4.452 0 0 1-1.5 2c-1-68.663-1.333-137.33-1-206a784.595 784.595 0 0 0 1-56c101.669-.333 203.336 0 305 1l2 4a1612.85 1612.85 0 0 0-.5 98l2 2c.499 4.989.666 9.989.5 15h-3c-.554 5.895.112 11.562 2 17a320.59 320.59 0 0 0-2 39 1573.036 1573.036 0 0 0 2 56 178.869 178.869 0 0 0 1 38z"/><path style="opacity:1" fill="#b8a65e" d="m213.5 282.5 2 5c.904.709 1.237 1.709 1 3-2.124-1.559-3.791-3.559-5-6a31.147 31.147 0 0 0 2-2z"/><path style="opacity:1" fill="#c8ba52" d="M129.5 271.5c3.979.123 4.979 1.956 3 5.5a25.113 25.113 0 0 0 3 9 30.159 30.159 0 0 1-1.5 9.5c-2.153 1.944-4.653 2.444-7.5 1.5a118.62 118.62 0 0 1-12-9.5 119.3 119.3 0 0 1 13 6.5c1.735.651 3.402.485 5-.5 1.155-2.946 1.321-5.946.5-9-.601-4.616-1.768-8.95-3.5-13z"/><path style="opacity:1" fill="#090608" d="M297.5 280.5c-1.257 3.52-3.257 6.52-6 9-6.599.285-12.099-2.049-16.5-7-3.863-5.317-3.03-9.817 2.5-13.5 3.623-2.503 7.29-4.67 11-6.5.992.172 1.658-.162 2-1a47.15 47.15 0 0 1 13-3 144.554 144.554 0 0 0-6 22z"/><path style="opacity:1" fill="#eddc40" d="M240.5 237.5c-.324 6.854.009 13.521 1 20a41.73 41.73 0 0 1 1 9c.023 2.427.523 4.76 1.5 7 .422 1.926 1.589 2.926 3.5 3 3.461 1.591 7.128 2.258 11 2h3v6c-.563-1.82-1.729-3.153-3.5-4-7.3 2.843-12.634.843-16-6a40.23 40.23 0 0 0-2-11c-.824-8.843-.657-17.51.5-26z"/><path style="opacity:1" fill="#c7b756" d="M242.5 266.5a50.815 50.815 0 0 0 5 10c-1.911-.074-3.078-1.074-3.5-3a17.758 17.758 0 0 1-1.5-7z"/><path style="opacity:1" fill="#c1bc8a" d="M55.5 249.5h3a120 120 0 0 0-9.5 9c-1.483 3.202-1.817 6.536-1 10 3.464 3.305 7.297 5.972 11.5 8-.982 3.462-1.315 7.129-1 11-.982-3.462-1.315-7.129-1-11-3.897-.791-7.23-2.291-10-4.5a9.84 9.84 0 0 1 1 4c-1.894 6.076-5.561 10.909-11 14.5.215-1.679-.452-2.679-2-3a68.055 68.055 0 0 0 10.5-8c1.567-5.033.067-8.867-4.5-11.5a70.103 70.103 0 0 1-8-4.5v-1h2a161.813 161.813 0 0 1 9.5 6c.16-3.787.826-7.454 2-11a95.343 95.343 0 0 1 8.5-8z"/><path style="opacity:1" fill="#0b0706" d="M33.5 263.5a70.103 70.103 0 0 0 8 4.5c4.567 2.633 6.067 6.467 4.5 11.5a68.055 68.055 0 0 1-10.5 8c-4.352 1.601-8.518 1.267-12.5-1-.6-2.41-1.766-4.41-3.5-6a116.676 116.676 0 0 0-6-23c6.84 1.42 13.508 3.42 20 6z"/><path style="opacity:1" fill="#e3d245" d="M297.5 280.5a144.554 144.554 0 0 1 6-22 47.15 47.15 0 0 0-13 3c-.131-.876.202-1.543 1-2 4.161-1.685 8.494-2.352 13-2a60.931 60.931 0 0 1-.5 11 19.887 19.887 0 0 1-3.5 4c-.266 3.15-1.266 5.817-3 8z"/><path style="opacity:1" fill="#d8ca56" d="M205.5 250.5c-.206 8.56 2.794 15.726 9 21.5-.165 1.117-.498 2.284-1 3.5 1.645 3.825 2.312 7.825 2 12l-2-5a44.082 44.082 0 0 0-4-6l2-2c-1.434-1.72-2.267-3.72-2.5-6a15.265 15.265 0 0 0-5.5-3c3.84-1.36 3.84-2.86 0-4.5 2.558-1.38 2.558-2.88 0-4.5 1.213-2.351.547-4.184-2-5.5a8.43 8.43 0 0 1 4-.5z"/><path style="opacity:1" fill="#e0d14f" d="M23.5 242.5a11.741 11.741 0 0 0 5 3c1.419.951 3.085 1.284 5 1v17a120.222 120.222 0 0 0-20-6 116.676 116.676 0 0 1 6 23c-1.086-.12-1.753-.787-2-2-2.604-7.19-4.104-14.524-4.5-22a6.29 6.29 0 0 1 3-1 7384.133 7384.133 0 0 1 15.5 5c.58-4.31.913-8.643 1-13-4.72 1.087-7.72-.58-9-5z"/><path style="opacity:1" fill="#080506" d="M79.5 236.5c.991 6.813 1.325 13.813 1 21-.284 6.692-2.618 12.526-7 17.5-4.44 2.638-9.107 3.138-14 1.5-4.203-2.028-8.036-4.695-11.5-8-.817-3.464-.483-6.798 1-10a120 120 0 0 1 9.5-9 220.912 220.912 0 0 1 21-13z"/><path style="opacity:1" fill="#b8b586" d="M264.5 241.5a40.914 40.914 0 0 0 .5 9c5.97 4.613 9.303 10.613 10 18a113.414 113.414 0 0 1 8.5-5.5c.752-.671 1.086-1.504 1-2.5.967 1.306 2.301 1.973 4 2-3.71 1.83-7.377 3.997-11 6.5-5.53 3.683-6.363 8.183-2.5 13.5 4.401 4.951 9.901 7.285 16.5 7-1.068.934-2.401 1.268-4 1v9a345.94 345.94 0 0 1-2-8c-4.761-1.794-8.927-4.46-12.5-8-2.359-3.454-3.026-7.121-2-11-2.313 2.572-5.146 4.239-8.5 5h-3c6.467-1.967 10.8-6.134 13-12.5a18.091 18.091 0 0 0-2.5-6.5 118.86 118.86 0 0 0-9.5-9c.996-.086 1.829.248 2.5 1 .181-3.195.681-6.195 1.5-9z"/><path style="opacity:1" fill="#0b0706" d="M242.5 237.5c4.33 2.662 8.664 5.329 13 8a21.614 21.614 0 0 0 5 4 118.86 118.86 0 0 1 9.5 9 18.091 18.091 0 0 1 2.5 6.5c-2.2 6.366-6.533 10.533-13 12.5-.667 0-1 .333-1 1-3.872.258-7.539-.409-11-2a50.815 50.815 0 0 1-5-10 41.73 41.73 0 0 0-1-9c-.324-6.854.009-13.521 1-20z"/><path style="opacity:1" fill="#e9db46" d="m60.5 303.5-2-13v-3c-.315-3.871.018-7.538 1-11 4.893 1.638 9.56 1.138 14-1.5 4.382-4.974 6.716-10.808 7-17.5.665-3.484.999-7.151 1-11-.011-4.065-.678-7.732-2-11l-4 1c1.219-1.801 3.052-2.801 5.5-3 .945.405 1.612 1.072 2 2 1.263 11.877.43 23.544-2.5 35-4.588 7.421-11.255 10.088-20 8v25z"/><path style="opacity:1" fill="#060504" d="M197.5 153.5c1.2 3.202 1.2 6.369 0 9.5a2.428 2.428 0 0 0 2 .5c1.274.689 1.274 1.523 0 2.5 3.083 2.188 4.083 5.022 3 8.5l4 5a10.258 10.258 0 0 1-4 1.5 29.144 29.144 0 0 0 5 2.5c-2.548 1.719-2.215 3.052 1 4a3.647 3.647 0 0 1-1 1.5c2.386 1.844 3.553 4.344 3.5 7.5 1.129 1.641 2.629 2.641 4.5 3v1c-.97 4.428.363 8.095 4 11 .662 4.228-.838 7.228-4.5 9-.945-.405-1.612-1.072-2-2a12.93 12.93 0 0 0-.5 5c-5.915 4.134-7.248 9.468-4 16-2.776-.411-3.443.422-2 2.5-1.221 1.982-2.888 3.482-5 4.5a514.367 514.367 0 0 0 4 3v1a8.43 8.43 0 0 0-4 .5c2.547 1.316 3.213 3.149 2 5.5 2.558 1.62 2.558 3.12 0 4.5 3.84 1.64 3.84 3.14 0 4.5 2.067.634 3.9 1.634 5.5 3 .233 2.28 1.066 4.28 2.5 6l-2 2a44.082 44.082 0 0 1 4 6 31.147 31.147 0 0 1-2 2c1.209 2.441 2.876 4.441 5 6a36.261 36.261 0 0 0-4 12h-3v3h-3c-.151 3.218-.984 3.551-2.5 1-1.748 1.635-2.915 3.635-3.5 6a6.802 6.802 0 0 1-1.5-3c-.284 2.386-1.284 3.052-3 2 .526 1.727.359 3.394-.5 5h-4c-2.96 2.6-4.294 5.933-4 10h-3c.17-1.322-.163-2.489-1-3.5-5.34-3.047-8.007-1.547-8 4.5-1.679.215-2.679-.452-3-2 .584-3.483-.249-6.483-2.5-9-1.307 1.692-2.807 3.025-4.5 4-.161-3.028.506-5.861 2-8.5l-1-1.5c-1.44 1.452-3.106 2.452-5 3h-1c.151-3.667 1.818-6.5 5-8.5a96.485 96.485 0 0 0-6-4.5 16.873 16.873 0 0 1 8-1c3.801 1.297 7.634 2.63 11.5 4a14.748 14.748 0 0 1 4.5-3c-2.667-1.333-2.667-2.667 0-4a43.836 43.836 0 0 1-1-2c4.643.417 5.643-.917 3-4 2.537-2.073 3.704-4.74 3.5-8-1.164-.335-2.497-.335-4 0-1.807-1.191-3.141-3.191-4-6-.342 2.119-1.175 2.453-2.5 1h-1l-3.5-7a12 12 0 0 0-3.5 1c.065.438-.101.772-.5 1-.935-2.602-2.602-4.602-5-6l-2 8c-.908 1.939-2.408 2.939-4.5 3a12.992 12.992 0 0 1-1 5.5c1.6 1.123 2.6 2.623 3 4.5-2.016.986-3.349 2.653-4 5-.896-1.006-1.562-1.006-2 0a18.08 18.08 0 0 0 2 3.5c-1.607 1.049-2.273 2.549-2 4.5a65.318 65.318 0 0 1-5 10c-1.005 2.243-2.505 2.576-4.5 1a11.068 11.068 0 0 0-3.5 2 4.457 4.457 0 0 1-1.5-2c-.816 1.323-1.983 1.989-3.5 2-5.106-.447-10.439-.447-16 0-.246 5.443-2.913 7.443-8 6 .124-.607.457-.94 1-1 1.212-1.764.879-3.43-1-5-1.458-1.282-2.792-1.282-4 0-1.399 1.39-3.066 2.39-5 3 .114-3.711 1.114-7.045 3-10a6.846 6.846 0 0 0-4 1c-.886-.825-1.219-1.825-1-3a17.858 17.858 0 0 1 5-5l-1-1c-4.934 1.889-5.267.722-1-3.5 2.15-1.411 4.484-2.245 7-2.5-.204-2.185-.87-4.185-2-6a20.69 20.69 0 0 1 5 1 118.62 118.62 0 0 0 12 9.5c2.847.944 5.347.444 7.5-1.5a30.159 30.159 0 0 0 1.5-9.5 25.113 25.113 0 0 1-3-9c1.979-3.544.979-5.377-3-5.5a70.407 70.407 0 0 1-3-11c1.312-.645 2.312-1.645 3-3l-4-6c2.892-2.704 2.558-3.371-1-2v-1a514.367 514.367 0 0 1 3-4 3.647 3.647 0 0 0-1-1.5 40.703 40.703 0 0 0 2.5-9.5c1.692-.176 3.192-.676 4.5-1.5-.682-2.188-.348-4.355 1-6.5a19.704 19.704 0 0 0 8-3.5c-1.663-.265-3.163.235-4.5 1.5a4.934 4.934 0 0 1-.5-3c1.208-.734 2.541-1.067 4-1-.541-3.795 1.125-5.795 5-6a43.836 43.836 0 0 1-1-2c.992.172 1.658-.162 2-1a27.241 27.241 0 0 1 5-3.5c-1.666-2.48-2.499-5.313-2.5-8.5-1.011-.837-2.178-1.17-3.5-1 .073-1.527-.594-2.527-2-3-1.082-1.094-1.748-2.427-2-4a19.048 19.048 0 0 0 1-6c.438.065.772-.101 1-.5a26.023 26.023 0 0 0-4-4.5c3.636-1.436 3.803-3.103.5-5a74.513 74.513 0 0 0-2-12 261.12 261.12 0 0 1-7.5-2c3-1.333 6-1.333 9 0l1.5 3c1.011-.837 2.178-1.17 3.5-1-.307 1.946-.307 3.613 0 5 3.757-1.088 7.424-1.088 11 0a6.547 6.547 0 0 0 3-3c-.645-1.232-.811-2.565-.5-4-.97-.124-1.803-.124-2.5 0 .233-1.562.9-2.895 2-4a2.428 2.428 0 0 0 2-.5c-2.284-1.363-2.451-2.863-.5-4.5a6.802 6.802 0 0 0 1.5 3c.871-3.96 2.538-4.627 5-2 1.135.974 2.135 2.141 3 3.5 1.135.749 2.135.583 3-.5-.485-2.612.349-2.612 2.5 0-.423-1.887-.256-3.887.5-6 .838-.342 1.172-1.008 1-2 .981 1.809 2.481 3.143 4.5 4 .163-1.887-.671-3.387-2.5-4.5 2.072-1.273 3.405-3.107 4-5.5h5a7.248 7.248 0 0 1 2.5 2 22.981 22.981 0 0 0 2-5 22.981 22.981 0 0 1 2 5l1-1a16.473 16.473 0 0 0 3.5 5.5c-.906 1.699-1.239 3.533-1 5.5z"/><path style="opacity:1" fill="#bbac5c" d="M185.5 290.5a13.116 13.116 0 0 0-1-7 199.63 199.63 0 0 0-6-3v-3c1.325 1.453 2.158 1.119 2.5-1 .859 2.809 2.193 4.809 4 6 1.503-.335 2.836-.335 4 0 .204 3.26-.963 5.927-3.5 8z"/><path style="opacity:1" fill="#433819" d="M170.5 271.5a12 12 0 0 1 3.5-1l3.5 7a2.428 2.428 0 0 1-.5 2c-1.117-1.449-1.784-3.116-2-5l-1 1c-.416-2.05-1.583-3.384-3.5-4z"/><path style="opacity:1" fill="#ddcf59" d="M170.5 271.5c1.917.616 3.084 1.95 3.5 4l1-1c.216 1.884.883 3.551 2 5a2.428 2.428 0 0 0 .5-2h1v3c-3.627-.121-5.96-1.955-7-5.5l-5-2.5a57.688 57.688 0 0 0-5.5 7c-.009 2.869-.176 5.536-.5 8-.4-1.877-1.4-3.377-3-4.5a12.992 12.992 0 0 0 1-5.5c2.092-.061 3.592-1.061 4.5-3l2-8c2.398 1.398 4.065 3.398 5 6 .399-.228.565-.562.5-1z"/><path style="opacity:1" fill="#f7e639" d="M5.5 5.5h298v1H6.5v57c-.333 68.67 0 137.337 1 206a4.452 4.452 0 0 0 1.5-2l.5 1.5c-1.43 1.889-2.097 4.055-2 6.5-.374 8.388 1.626 16.054 6 23-1.052 4.652-1.052 9.319 0 14-3.725-7.854-6.058-16.187-7-25a20722.733 20722.733 0 0 1-1-282z"/><path style="opacity:1" fill="#988636" d="M318.5 275.5V5.5H5.5c-1 88.498-1.333 177.165-1 266-1-88.832-1.333-177.832-1-267h316c.333 90.501-.001 180.835-1 271z"/><path style="opacity:1" fill="#babcbb" d="M168.5 258.5c1.548.321 2.215 1.321 2 3-2.748.098-3.414-.902-2-3z"/><path style="opacity:1" fill="#c0b360" d="M125.5 259.5c.667 0 1 .333 1 1 .7 3.738 1.7 7.405 3 11-2.871-3.364-4.205-7.364-4-12z"/><path style="opacity:1" fill="#9d9ca1" d="M164.5 255.5c1.276.886 1.276 1.886 0 3-1.062-.925-1.062-1.925 0-3z"/><path style="opacity:1" fill="#4e4a27" d="M126.5 260.5c0-.667-.333-1-1-1a9.108 9.108 0 0 1 1-5c-1.505-1.342-2.172-3.008-2-5 3.558-1.371 3.892-.704 1 2l4 6c-.688 1.355-1.688 2.355-3 3z"/><path style="opacity:1" fill="#281c0a" d="M38.5 244.5c.11.617.444 1.117 1 1.5-1.5.833-2.667 2-3.5 3.5-1.09 4.398-1.258 8.731-.5 13h-2v-13c.61-2.611 2.277-4.278 5-5z"/><path style="opacity:1" fill="#c4c4c4" d="M161.5 247.5c1.074 1.779 2.407 3.446 4 5-.333 1-1 1.667-2 2a18.404 18.404 0 0 1-2-7z"/><path style="opacity:1" fill="#eada48" d="M301.5 215.5a82.105 82.105 0 0 1-1.5 18c-1.867 5.051-3.7 10.051-5.5 15a41.541 41.541 0 0 1-8 1 60.931 60.931 0 0 0 .5 11c1.011.837 2.178 1.17 3.5 1-.342.838-1.008 1.172-2 1-1.699-.027-3.033-.694-4-2v-14c3.102.346 5.935-.321 8.5-2a489.817 489.817 0 0 0 8.5-29z"/><path style="opacity:1" fill="#d5c559" d="M208.5 239.5a36.138 36.138 0 0 1-3 10 514.367 514.367 0 0 1-4-3c2.112-1.018 3.779-2.518 5-4.5-1.443-2.078-.776-2.911 2-2.5z"/><path style="opacity:1" fill="#473a08" d="M79.5 236.5v-1c1.322 3.268 1.989 6.935 2 11-.001 3.849-.335 7.516-1 11 .325-7.187-.009-14.187-1-21z"/><path style="opacity:1" fill="#c6bf8e" d="M33.5 215.5h3c4.899 2.397 9.066 5.73 12.5 10 .837 3.795.504 7.461-1 11-2.747 3.254-5.913 5.92-9.5 8-2.723.722-4.39 2.389-5 5v-3c-1.915.284-3.581-.049-5-1 7.976-.734 14.143-4.401 18.5-11 1.04-4.033.374-7.699-2-11a248.948 248.948 0 0 0-11.5-8z"/><path style="opacity:1" fill="#c6c6c6" d="M160.5 239.5h3c.262 1.478-.071 2.811-1 4-.411-.762-.577-1.762-.5-3-2.179 1.34-2.679 1.007-1.5-1z"/><path style="opacity:1" fill="#5e5005" d="M242.5 237.5c-.991 6.479-1.324 13.146-1 20-.991-6.479-1.324-13.146-1-20 .667-1.333 1.333-1.333 2 0z"/><path style="opacity:1" fill="#d8cc58" d="M55.5 223.5c1.599-.268 2.932.066 4 1h-3a118.163 118.163 0 0 0 1.5 22c6.246-2.484 12.08-5.817 17.5-10l4-1v1a220.912 220.912 0 0 0-21 13h-3a358.585 358.585 0 0 0-1-25c.667 0 1-.333 1-1z"/><path style="opacity:1" fill="#bcba8d" d="M281.5 207.5c.973 2.448 1.306 5.115 1 8h4c-19.048 9.26-19.714 19.593-2 31v1c-18.532-8.579-19.699-18.912-3.5-31 .498-2.982.665-5.982.5-9z"/><path style="opacity:1" fill="#b5ac4a" d="M19.5 231.5c1.704 3.439 3.038 7.105 4 11-.958-.453-1.792-1.119-2.5-2a70.523 70.523 0 0 1-1.5-9z"/><path style="opacity:1" fill="#727272" d="M160.5 229.5c1.208-1.282 2.542-1.282 4 0a29.825 29.825 0 0 1-2 5c-1.145-1.276-1.145-2.609 0-4-.457-.798-1.124-1.131-2-1z"/><path style="opacity:1" fill="#a9a9a9" d="M166.5 227.5c.965 1.221.798 2.554-.5 4-.579-1.428-.412-2.762.5-4z"/><path style="opacity:1" fill="#eade41" d="M244.5 209.5a92.756 92.756 0 0 0 3 10c-.45 3.724 1.217 5.891 5 6.5 4.037.607 8.037.44 12-.5v16c-.819 2.805-1.319 5.805-1.5 9-.671-.752-1.504-1.086-2.5-1a21.614 21.614 0 0 1-5-4 12.805 12.805 0 0 1 6 3 54.557 54.557 0 0 0 .5-18c-.519-1.016-1.353-1.682-2.5-2a83.824 83.824 0 0 1-10 0c-3.118-5.918-4.785-12.251-5-19z"/><path style="opacity:1" fill="#d6c853" d="M212.5 223.5a48.582 48.582 0 0 0-4 16c-3.248-6.532-1.915-11.866 4-16z"/><path style="opacity:1" fill="#c9bc4f" d="M134.5 224.5v1c-1.348 2.145-1.682 4.312-1 6.5-1.308.824-2.808 1.324-4.5 1.5a40.703 40.703 0 0 1-2.5 9.5c.457.414.791.914 1 1.5a514.367 514.367 0 0 0-3 4c-.543-.06-.876-.393-1-1a224.237 224.237 0 0 0 4.5-16c2.649-2.029 4.815-4.362 6.5-7z"/><path style="opacity:1" fill="#a59841" d="M247.5 219.5c.809 2.939 2.809 4.773 6 5.5 3.688.45 7.354.283 11-.5h1c.31 3.213-.023 6.213-1 9v-8a31.337 31.337 0 0 1-12 .5c-3.783-.609-5.45-2.776-5-6.5z"/><path style="opacity:1" fill="#928768" d="M137.5 220.5a4.934 4.934 0 0 0 .5 3c1.337-1.265 2.837-1.765 4.5-1.5a19.704 19.704 0 0 1-8 3.5v-2c1.4-.6 2.4-1.6 3-3z"/><path style="opacity:1" fill="#090607" d="M301.5 215.5a489.817 489.817 0 0 1-8.5 29c-2.565 1.679-5.398 2.346-8.5 2-17.714-11.407-17.048-21.74 2-31 1.21-.432 2.21-1.099 3-2 .992.172 1.658-.162 2-1 3.301-.153 6.301-1.153 9-3l2 1a9.108 9.108 0 0 0-1 5z"/><path style="opacity:1" fill="#c8c1a4" d="M51.5 201.5h2c-9.93 8.462-9.264 15.796 2 22 0 .667-.333 1-1 1-12.077-6.282-13.077-13.948-3-23z"/><path style="opacity:1" fill="#d9cc57" d="M219.5 211.5c1.134 2.466 1.301 5.133.5 8-1.989 2.339-4.489 3.673-7.5 4a12.93 12.93 0 0 1 .5-5c.388.928 1.055 1.595 2 2 3.662-1.772 5.162-4.772 4.5-9z"/><path style="opacity:1" fill="#cac4a0" d="M267.5 191.5c-.165 3.35.002 6.683.5 10 6.339 4.747 8.005 10.747 5 18-1.857 2.7-4.357 4.366-7.5 5h-1c11.816-7.386 11.816-15.053 0-23 1.619-3.048 2.619-6.381 3-10z"/><path style="opacity:1" fill="#c0ae4d" d="M15.5 207.5v1c-.624.417-.957 1.084-1 2a33.39 33.39 0 0 1 2 9c-1.87-2.25-2.87-4.916-3-8 .085-1.833.752-3.166 2-4z"/><path style="opacity:1" fill="#090606" d="M15.5 208.5a54.157 54.157 0 0 0 11 4c2.149 1.236 4.482 2.236 7 3a248.948 248.948 0 0 1 11.5 8c2.374 3.301 3.04 6.967 2 11-4.357 6.599-10.524 10.266-18.5 11a11.741 11.741 0 0 1-5-3c-.962-3.895-2.296-7.561-4-11a30.555 30.555 0 0 0-3-12 33.39 33.39 0 0 0-2-9c.043-.916.376-1.583 1-2z"/><path style="opacity:1" fill="#aeaeaf" d="M159.5 211.5h3c2.805 3.46 2.638 6.794-.5 10-.265-1.663.235-3.163 1.5-4.5-1.27-.9-2.27-2.066-3-3.5-2.2.956-2.533.29-1-2z"/><path style="opacity:1" fill="#decb4a" d="M145.5 211.5c.304.65.637 1.317 1 2-3.875.205-5.541 2.205-5 6-1.459-.067-2.792.266-4 1-.6 1.4-1.6 2.4-3 3-.262-1.478.071-2.811 1-4 3.271-1.047 4.271-3.047 3-6a34.104 34.104 0 0 1 7-2z"/><path style="opacity:1" fill="#ccbc4c" d="M301.5 215.5a9.108 9.108 0 0 1 1-5l-2-1c-2.699 1.847-5.699 2.847-9 3 3.336-2.986 7.336-4.319 12-4 .51 2.888-.156 5.221-2 7z"/><path style="opacity:1" fill="#848680" d="M159.5 211.5h-3c2.016-9.041 3.016-9.041 3 0z"/><path style="opacity:1" fill="#cfc066" d="M146.5 197.5c1.322-.17 2.489.163 3.5 1 .001 3.187.834 6.02 2.5 8.5a27.241 27.241 0 0 0-5 3.5 53.669 53.669 0 0 0 2-7c-.117-2.55-1.117-4.55-3-6z"/><path style="opacity:1" fill="#e6d957" d="M292.5 188.5c-.097 5.601-2.931 8.935-8.5 10 .039 5.417-.128 10.75-.5 16l6-1c-.79.901-1.79 1.568-3 2h-4c.306-2.885-.027-5.552-1-8v-13c5.648 1.309 9.315-.691 11-6z"/><path style="opacity:1" fill="#c8bc56" d="M215.5 200.5c.617.111 1.117.444 1.5 1 .307 3.547 1.14 6.88 2.5 10-3.637-2.905-4.97-6.572-4-11z"/><path style="opacity:1" fill="#d8ce5c" d="M33.5 194.5c.709-.904 1.709-1.237 3-1 .667 0 1 .333 1 1a288.335 288.335 0 0 1-1 21h-3c-2.518-.764-4.851-1.764-7-3 2.706.075 5.373.408 8 1 .428-3.984.76-7.984 1-12-.029-2.769-.695-5.103-2-7z"/><path style="opacity:1" fill="#110d07" d="M279.5 162.5v5c-13.667 10.338-13 19.672 2 28v12a40.914 40.914 0 0 1-.5 9c-16.199 12.088-15.032 22.421 3.5 31v13c.086.996-.248 1.829-1 2.5a113.414 113.414 0 0 0-8.5 5.5c-.697-7.387-4.03-13.387-10-18a40.914 40.914 0 0 1-.5-9v-8c.977-2.787 1.31-5.787 1-9 3.143-.634 5.643-2.3 7.5-5 3.005-7.253 1.339-13.253-5-18a50.464 50.464 0 0 1-.5-10v-8c.667-5.846 1.333-11.846 2-18 3.269-2.537 4.935-5.87 5-10a103.26 103.26 0 0 1-3.5-14 29.964 29.964 0 0 0 7 6c.174 5.184.674 10.184 1.5 15z"/><path style="opacity:1" fill="#0b0706" d="M245.5 188.5a282.872 282.872 0 0 1 19 13c11.816 7.947 11.816 15.614 0 23-3.646.783-7.312.95-11 .5-3.191-.727-5.191-2.561-6-5.5a92.756 92.756 0 0 1-3-10v-2c-.323-6.522.01-12.855 1-19z"/><path style="opacity:1" fill="#eadd36" d="M20.5 173.5c.821 3.141 1.321 6.475 1.5 10a39.433 39.433 0 0 1 3.5 8c.457.798 1.124 1.131 2 1 1.642 1.581 3.642 2.247 6 2 1.305 1.897 1.971 4.231 2 7-.24 4.016-.572 8.016-1 12a41.541 41.541 0 0 0-8-1 54.157 54.157 0 0 1-11-4v-1c6.158.778 11.992 2.445 17.5 5a206.893 206.893 0 0 0 1.5-14c-3.923-.783-7.256-2.616-10-5.5a33.1 33.1 0 0 0-3.5-8.5 60.94 60.94 0 0 1-.5-11z"/><path style="opacity:1" fill="#97862d" d="M245.5 188.5c-.99 6.145-1.323 12.478-1 19h-1c-.33-6.7.003-13.366 1-20 .607.124.94.457 1 1z"/><path style="opacity:1" fill="#d9cb61" d="M51.5 164.5h1c1.934.61 3.6 1.61 5 3h-3c-1.086.12-1.753.787-2 2a985.01 985.01 0 0 1 2 28h4c-1.08 2.043-2.746 3.376-5 4h-2a494.25 494.25 0 0 0 0-37z"/><path style="opacity:1" fill="#090605" d="M74.5 217.5c-2.984 6.323-7.984 8.656-15 7-1.068-.934-2.401-1.268-4-1-11.264-6.204-11.93-13.538-2-22 2.254-.624 3.92-1.957 5-4a88.16 88.16 0 0 0 11-6c1.859-2.073 4.192-3.406 7-4 1.546 10.171.88 20.171-2 30z"/><path style="opacity:1" fill="#efde2b" d="M54.5 167.5c-.385 8.14.282 16.14 2 24 4.48.075 8.814-.592 13-2v2a88.16 88.16 0 0 1-11 6h-4a985.01 985.01 0 0 0-2-28c.247-1.213.914-1.88 2-2z"/><path style="opacity:1" fill="#eedd39" d="M254.5 166.5c3.299 1.247 6.633 1.247 10 0h3v25c-.381 3.619-1.381 6.952-3 10a282.872 282.872 0 0 0-19-13c-.06-.543-.393-.876-1-1-.997 6.634-1.33 13.3-1 20-1.545-.73-2.378-2.063-2.5-4-.28-4.697-.78-9.363-1.5-14 4.298-4.659 9.298-5.659 15-3a3.647 3.647 0 0 0 1.5-1c-.16 3.009 1.007 5.175 3.5 6.5l-1 1c2.907 2.361 5.074 1.861 6.5-1.5.5-7.326.666-14.659.5-22a40.914 40.914 0 0 1-9-.5c-1.256-.417-1.923-1.25-2-2.5z"/><path style="opacity:1" fill="#c6bfa1" d="M39.5 163.5a8.435 8.435 0 0 0 .5 4c13.157 10.102 12.324 19.102-2.5 27 0-.667-.333-1-1-1 14.655-8.715 14.655-17.382 0-26 1.478-.948 2.478-2.281 3-4z"/><path style="opacity:1" fill="#b8b391" d="M279.5 167.5c.992-.172 1.658.162 2 1-12 8.667-12 17.333 0 26v1c-15-8.328-15.667-17.662-2-28z"/><path style="opacity:1" fill="#cec054" d="M74.5 217.5c2.88-9.829 3.546-19.829 2-30-2.808.594-5.141 1.927-7 4v-2c1.27-2.111 3.27-3.111 6-3 2.455-.388 3.788.612 4 3a303.94 303.94 0 0 0-1.5 22c-.716 2.379-1.883 4.379-3.5 6z"/><path style="opacity:1" fill="#e2d358" d="M143.5 184.5a19.048 19.048 0 0 1-1 6c.252 1.573.918 2.906 2 4a5.576 5.576 0 0 1-3-1l-2-8a3.647 3.647 0 0 1-1.5-1 742.14 742.14 0 0 1-3.5-19c-4.286 4.99-9.286 5.99-15 3a343.58 343.58 0 0 1-4 1c2.916-3.957 5.916-3.957 9 0 3.919-3.07 8.252-5.07 13-6 .287 4.767.287 9.434 0 14a28.741 28.741 0 0 1 2 7h4z"/><path style="opacity:1" fill="#0c0706" d="M301.5 161.5c-4.482 6.542-7.148 13.875-8 22-.801 1.542-1.134 3.208-1 5-1.685 5.309-5.352 7.309-11 6-12-8.667-12-17.333 0-26a228.781 228.781 0 0 1 18-9.5c2.719-.594 3.386.24 2 2.5z"/><path style="opacity:1" fill="#0a0706" d="M36.5 167.5c14.655 8.618 14.655 17.285 0 26-1.291-.237-2.291.096-3 1-2.358.247-4.358-.419-6-2a116.415 116.415 0 0 1-6.5-23 45.46 45.46 0 0 0-6.5-11l1-1c7.06 3.346 14.06 6.679 21 10z"/><path style="opacity:1" fill="#d2c556" d="M301.5 161.5v3a156.561 156.561 0 0 0-8 19c.852-8.125 3.518-15.458 8-22z"/><path style="opacity:1" fill="#c6b65c" d="M114.5 169.5c-6.732-1.472-13.399-1.139-20 1 .558-1.29 1.558-2.123 3-2.5 4.851-.174 9.518-.674 14-1.5.709-.904 1.709-1.237 3-1v4z"/><path style="opacity:1" fill="#e2d44f" d="M57.5 167.5c5.862.311 9.696-2.356 11.5-8 2.408-10.251 2.908-20.584 1.5-31a184.223 184.223 0 0 1-3 2v-3h6c-.833 10.982-1.666 21.982-2.5 33-2.06 7.279-6.56 9.612-13.5 7z"/><path style="opacity:1" fill="#e7da48" d="M85.5 159.5h8a18.437 18.437 0 0 1-.5 6 30.123 30.123 0 0 0-3.5 6c-1.756-1.052-2.423-2.719-2-5h3c.498-4.035-1.168-6.369-5-7z"/><path style="opacity:1" fill="#b8ae79" d="M270.5 130.5a32.462 32.462 0 0 0 .5 8c3.435 3.945 7.268 7.278 11.5 10h-3v14c-.826-4.816-1.326-9.816-1.5-15a29.964 29.964 0 0 1-7-6 103.26 103.26 0 0 0 3.5 14c-.065 4.13-1.731 7.463-5 10a3213.956 3213.956 0 0 1-2 18v-17h-3c8.344-4.284 10.177-10.617 5.5-19-2.028-3.192-4.528-5.859-7.5-8a199.63 199.63 0 0 1 6 3 1041.63 1041.63 0 0 1 2-12z"/><path style="opacity:1" fill="#e1d255" d="M249.5 128.5c-.324 6.854.009 13.521 1 20 .265 6.264 1.598 12.264 4 18-1.37-.356-2.37-1.19-3-2.5-2.873-11.847-3.539-23.68-2-35.5z"/><path style="opacity:1" fill="#110c08" d="M48.5 140.5c.904.709 1.237 1.709 1 3-5.454 5.346-6.288 11.346-2.5 18 1.129 1.641 2.629 2.641 4.5 3a494.25 494.25 0 0 1 0 37c-10.077 9.052-9.077 16.718 3 23 .624 8.319.957 16.652 1 25a95.343 95.343 0 0 0-8.5 8 40.226 40.226 0 0 0-2 11 161.813 161.813 0 0 0-9.5-6c-.758-4.269-.59-8.602.5-13 .833-1.5 2-2.667 3.5-3.5-.556-.383-.89-.883-1-1.5 3.587-2.08 6.753-4.746 9.5-8 1.504-3.539 1.837-7.205 1-11-3.434-4.27-7.601-7.603-12.5-10 .589-6.985.922-13.985 1-21 14.824-7.898 15.657-16.898 2.5-27a8.435 8.435 0 0 1-.5-4v-12c1.8-4.484 4.8-8.15 9-11z"/><path style="opacity:1" fill="#dbca53" d="M36.5 146.5h3v17c-.522 1.719-1.522 3.052-3 4-6.94-3.321-13.94-6.654-21-10l-1 1a45.46 45.46 0 0 1 6.5 11 116.415 116.415 0 0 0 6.5 23c-.876.131-1.543-.202-2-1a39.433 39.433 0 0 0-3.5-8c-.179-3.525-.679-6.859-1.5-10-.573-3.463-2.406-6.13-5.5-8a2011.716 2011.716 0 0 1-3.5-9 31.881 31.881 0 0 1 8.5 1c5.341 2.68 10.674 5.347 16 8 1.044-1.123 1.71-2.456 2-4a84.94 84.94 0 0 0 .5-13c-3.542.313-6.875-.021-10-1 2.885.306 5.552-.027 8-1z"/><path style="opacity:1" fill="#bfbfc0" d="M158.5 156.5c-1.1 1.105-1.767 2.438-2 4-1.605 1.469-2.105 1.135-1.5-1a8.905 8.905 0 0 1 3-4c.399.228.565.562.5 1z"/><path style="opacity:1" fill="#baac64" d="M200.5 152.5a39.712 39.712 0 0 0-1 11 2.428 2.428 0 0 1-2-.5c1.2-3.131 1.2-6.298 0-9.5a5.727 5.727 0 0 0 3-1z"/><path style="opacity:1" fill="#c8c198" d="M49.5 143.5h2c-2.325 3.152-3.992 6.652-5 10.5.57 4.384 2.57 7.884 6 10.5h-1c-1.871-.359-3.371-1.359-4.5-3-3.788-6.654-2.954-12.654 2.5-18z"/><path style="opacity:1" fill="#1f190c" d="M91.5 152.5c1.944.578 2.277 1.578 1 3 2.23 2.859 3.563 6.192 4 10 5.106.767 10.106 1.1 15 1-4.482.826-9.149 1.326-14 1.5-1.442.377-2.442 1.21-3 2.5a20.691 20.691 0 0 1-5 1 30.123 30.123 0 0 1 3.5-6c.496-1.973.662-3.973.5-6h-8c-1.186-1.205-1.186-2.539 0-4l3-2c1.291.237 2.291-.096 3-1z"/><path style="opacity:1" fill="#777a50" d="M87.5 150.5c1.983-.343 3.317.324 4 2-.709.904-1.709 1.237-3 1 .418-.722 1.084-1.222 2-1.5-1.237-.232-2.237-.732-3-1.5z"/><path style="opacity:1" fill="#dfd151" d="M210.5 126.5c.547 3.79-1.12 5.79-5 6-1.871 2.73-2.538 5.564-2 8.5a80.45 80.45 0 0 0-3 16.5c.457 3.547 1.957 6.547 4.5 9l7 28c1.649 1.385 2.816 3.051 3.5 5-1.871-.359-3.371-1.359-4.5-3 .053-3.156-1.114-5.656-3.5-7.5a3.647 3.647 0 0 0 1-1.5c-3.215-.948-3.548-2.281-1-4a29.144 29.144 0 0 1-5-2.5 10.258 10.258 0 0 0 4-1.5l-4-5c1.083-3.478.083-6.312-3-8.5 1.274-.977 1.274-1.811 0-2.5a39.712 39.712 0 0 1 1-11 52.125 52.125 0 0 1-2.5-10c.414.457.914.791 1.5 1 .94-3.303 1.773-6.636 2.5-10 2.326-1.313 3.659-3.313 4-6a4.457 4.457 0 0 0 1.5 2c.641-1.493 1.641-2.493 3-3z"/><path style="opacity:1" fill="#b6b28a" d="M48.5 137.5v3c-4.2 2.85-7.2 6.516-9 11v-5h-3c4.754-2.039 8.754-5.039 12-9z"/><path style="opacity:1" fill="#e8d543" d="M301.5 118.5a171.678 171.678 0 0 1-6.5 30l-1-1c-.5 1.167-1.333 2-2.5 2.5-3.317.498-6.65.665-10 .5.12 1.699.454 3.365 1 5-1.433 1.836-1.933 3.836-1.5 6 1.881-.854 3.714-.521 5.5 1-.435-1.462.398-2.462 2.5-3 1.011.392 1.511 1.059 1.5 2l7-5.5a24.935 24.935 0 0 1 7-.5c-.028 3.416-1.028 6.416-3 9v-3c1.386-2.26.719-3.094-2-2.5a228.781 228.781 0 0 0-18 9.5c-.342-.838-1.008-1.172-2-1v-19h3c3.787.686 6.954-.314 9.5-3a285.257 285.257 0 0 0 6.5-22 27.195 27.195 0 0 1 3-5z"/><path style="opacity:1" fill="#0c0705" d="M251.5 129.5c.936 1.474 2.27 2.474 4 3a34.832 34.832 0 0 0 7 7c2.972 2.141 5.472 4.808 7.5 8 4.677 8.383 2.844 14.716-5.5 19-3.367 1.247-6.701 1.247-10 0-2.402-5.736-3.735-11.736-4-18-.323-6.522.01-12.855 1-19z"/><path style="opacity:1" fill="#0b0606" d="M57.5 167.5c-1.4-1.39-3.066-2.39-5-3-3.43-2.616-5.43-6.116-6-10.5 1.008-3.848 2.675-7.348 5-10.5a44.42 44.42 0 0 0 7-6 46.475 46.475 0 0 0 9-7c.982-.641 1.982-1.307 3-2 1.408 10.416.908 20.749-1.5 31-1.804 5.644-5.638 8.311-11.5 8z"/><path style="opacity:1" fill="#0b0706" d="M298.5 123.5a285.257 285.257 0 0 1-6.5 22c-2.546 2.686-5.713 3.686-9.5 3-4.232-2.722-8.065-6.055-11.5-10a32.462 32.462 0 0 1-.5-8 5.727 5.727 0 0 0 1-3 983.77 983.77 0 0 0 8-7 436.074 436.074 0 0 1 16-7.5 12.93 12.93 0 0 1 5-.5l-2 11z"/><path style="opacity:1" fill="#ebe039" d="M268.5 114.5c1.625 3.391 2.625 7.058 3 11v2a5.727 5.727 0 0 1-1 3 1041.63 1041.63 0 0 0-2 12 199.63 199.63 0 0 0-6-3 34.832 34.832 0 0 1-7-7c4.012-.613 6.012 1.054 6 5a10.776 10.776 0 0 0 6-2c-1.34-1.188-2.007-2.688-2-4.5a108.83 108.83 0 0 0 4-11l-1-3.5a5.576 5.576 0 0 1-3 1l1-2c.342-.838 1.008-1.172 2-1z"/><path style="opacity:1" fill="#e6d84d" d="M131.5 115.5c3.082 1.414 5.082 3.748 6 7 1.679-.215 2.679.452 3 2v3c-.543.06-.876.393-1 1a6.802 6.802 0 0 0 3 1.5l-6 1a349.769 349.769 0 0 1-7 9.5l-4 2a3.647 3.647 0 0 0 1 1.5 111.576 111.576 0 0 0-10.5 3.5c-.576-2.624-1.91-3.291-4-2-1.796-4.973-4.963-8.639-9.5-11-.961 1.765-1.295 3.765-1 6h-4c-1.956-1.675-3.29-1.342-4 1-.934 1.068-1.268 2.401-1 4-3.013.264-5.346 1.597-7 4 .457.798 1.124 1.131 2 1 .763.768 1.763 1.268 3 1.5-.916.278-1.582.778-2 1.5l-3 2a29.134 29.134 0 0 1-.5-9c1.584-1.361 3.418-2.028 5.5-2a24.96 24.96 0 0 1 2-7.5c2.832-.326 5.499.174 8 1.5v-5c6.779-.391 10.779 2.776 12 9.5 2.982.498 5.982.665 9 .5v-3c7.258.775 9.258-1.892 6-8l.5-1c2.178 2.968 3.344 2.635 3.5-1 3.98-.683 5.48-3.017 4.5-7-2.109-.535-2.609-1.535-1.5-3l-3-2.5c1.098-.77 1.098-1.603 0-2.5z"/><path style="opacity:1" fill="#d7ca82" d="M93.5 141.5c.64.982 1.308 1.982 2 3-.825.886-1.825 1.219-3 1-.268-1.599.066-2.932 1-4z"/><path style="opacity:1" fill="#818443" d="M102.5 134.5v8c-2.053.098-3.72-.569-5-2h4c-.295-2.235.039-4.235 1-6z"/><path style="opacity:1" fill="#7d7222" d="M249.5 128.5c.992-.172 1.658.162 2 1-.99 6.145-1.323 12.478-1 19-.991-6.479-1.324-13.146-1-20z"/><path style="opacity:1" fill="#ddcf53" d="M48.5 113.5h3c3.728 2.583 7.728 3.25 12 2-.786 2.235-2.452 3.235-5 3a29.305 29.305 0 0 0-9-3 811.033 811.033 0 0 0 2 23 51.56 51.56 0 0 1 7-1 44.42 44.42 0 0 1-7 6h-2c.237-1.291-.096-2.291-1-3v-3c1.523-3.855 1.19-7.521-1-11v-2c.982-3.462 1.315-7.129 1-11z"/><path style="opacity:1" fill="#958a63" d="M140.5 127.5v-3c1.805-1.409 3.805-1.909 6-1.5-3.09 1.013-5.09 2.513-6 4.5z"/><path style="opacity:1" fill="#d1c59b" d="M277.5 120.5h2a983.77 983.77 0 0 1-8 7v-2c.667 0 1-.333 1-1a21.614 21.614 0 0 1 5-4z"/><path style="opacity:1" fill="#c2be8b" d="M39.5 119.5h2a16.626 16.626 0 0 1 6 5v2a30.572 30.572 0 0 1-8-7z"/><path style="opacity:1" fill="#8a7d32" d="M270.5 112.5c0 .667.333 1 1 1-.315 3.871.018 7.538 1 11 0 .667-.333 1-1 1-.375-3.942-1.375-7.609-3-11 .333-1 1-1.667 2-2z"/><path style="opacity:1" fill="#d7c85a" d="M292.5 97.5c.35 2.953-.65 5.287-3 7h-11v14a8.43 8.43 0 0 0 4-.5c5.599-4.224 11.932-6.39 19-6.5v7a27.195 27.195 0 0 0-3 5l2-11a12.93 12.93 0 0 0-5 .5 436.074 436.074 0 0 0-16 7.5h-2v-19c0-.667.333-1 1-1 6.055 4.773 10.722 3.773 14-3z"/><path style="opacity:1" fill="#0a0606" d="M36.5 118.5c.709.904 1.709 1.237 3 1a30.572 30.572 0 0 0 8 7c2.19 3.479 2.523 7.145 1 11-3.246 3.961-7.246 6.961-12 9-2.448.973-5.115 1.306-8 1-1.385-1.074-2.551-2.407-3.5-4a208.925 208.925 0 0 0-5.5-16 2593.714 2593.714 0 0 1-3-16c7.102 1.224 13.769 3.557 20 7z"/><path style="opacity:1" fill="#cab94d" d="M252.5 108.5c2.014 7.687 6.681 10.02 14 7l-1 2c-3.579.897-7.079 1.231-10.5 1-1.855-3.076-2.688-6.409-2.5-10z"/><path style="opacity:1" fill="#171108" d="M277.5 101.5v19a21.614 21.614 0 0 0-5 4c-.982-3.462-1.315-7.129-1-11 3.167-3.664 4.667-7.997 4.5-13 .383.556.883.889 1.5 1z"/><path style="opacity:1" fill="#ddd15b" d="M215.5 107.5c.342.838 1.008 1.172 2 1a15.894 15.894 0 0 0 1 6.5c-2.275 2.352-3.441 5.186-3.5 8.5a30.786 30.786 0 0 0-4.5 3v-3h1c1.495.085 2.495-.581 3-2a43.286 43.286 0 0 0-3-5.5l1-1.5c1.384 2.633 2.718 2.633 4 0-1.509-2.402-1.842-4.735-1-7z"/><path style="opacity:1" fill="#1c1407" d="M48.5 113.5c.315 3.871-.018 7.538-1 11a16.626 16.626 0 0 0-6-5v-18c.502-1.585 1.502-2.085 3-1.5-1.595 5.381-.261 9.881 4 13.5z"/><path style="opacity:1" fill="#ddcc4e" d="M36.5 118.5c-6.231-3.443-12.898-5.776-20-7 .978 5.307 1.978 10.641 3 16-1.431-.381-2.265-1.381-2.5-3a53.035 53.035 0 0 1-1.5-14c8.45-.854 15.45 1.812 21 8z"/><path style="opacity:1" fill="#caba46" d="M69.5 104.5v9c-2.185.204-4.185.87-6 2 3.028-3.147 5.028-6.814 6-11z"/><path style="opacity:1" fill="#bdb697" d="M275.5 98.5c1.527-.073 2.527.594 3 2-.667 0-1 .333-1 1-.617-.111-1.117-.444-1.5-1 .167 5.003-1.333 9.336-4.5 13-.667 0-1-.333-1-1 2.371-2.497 3.371-5.497 3-9a26.335 26.335 0 0 0 2-5z"/><path style="opacity:1" fill="#655a10" d="M217.5 102.5h1a19.22 19.22 0 0 0-1 6c-.992.172-1.658-.162-2-1a26.335 26.335 0 0 0 2-5z"/><path style="opacity:1" fill="#c6bb8c" d="M43.5 96.5c-.107 1.879.393 2.212 1.5 1 .278.916.778 1.582 1.5 2-1.711 5.904-.045 10.571 5 14h-3c-4.261-3.619-5.595-8.119-4-13.5-1.498-.585-2.498-.085-3 1.5h-4l6-5z"/><path style="opacity:1" fill="#e0d260" d="M116.5 93.5c2.705-.12 3.372.88 2 3 .825.886 1.825 1.219 3 1 .513 3.36 1.847 6.36 4 9a3.647 3.647 0 0 0 1.5-1 10.756 10.756 0 0 0 2.5 3c-1.181 1.698-1.181 3.365 0 5 1.714-1.109 2.381-.442 2 2a5.576 5.576 0 0 1-3-1 118.976 118.976 0 0 0-11.5-17 8.43 8.43 0 0 1-.5-4z"/><path style="opacity:1" fill="#e9d841" d="M298.5 75.5a204.946 204.946 0 0 1-3.5 24c-1.076 2.579-2.909 4.246-5.5 5 2.35-1.713 3.35-4.047 3-7a172.26 172.26 0 0 1 3.5-18c.608-1.566 1.442-2.9 2.5-4z"/><path style="opacity:1" fill="#d7ce74" d="M44.5 80.5h1c0 1.333.667 2 2 2 .358 3.189 1.025 6.189 2 9h3a34.314 34.314 0 0 0-6 8c-.722-.418-1.222-1.084-1.5-2-1.107 1.212-1.607.879-1.5-1 4.8-4.34 5.134-9.006 1-14v-2z"/><path style="opacity:1" fill="#d1c54c" d="M17.5 64.5a20.23 20.23 0 0 1 4 4c-2.662-1.237-5.328-2.07-8-2.5 7.156 8.458 10.99 18.291 11.5 29.5 1.901 6.681 6.068 8.681 12.5 6h4v18h-2c-1.291.237-2.291-.096-3-1 1.322.17 2.489-.163 3.5-1 .5-4.989.666-9.989.5-15a48.797 48.797 0 0 0-8.5 2c-3.51-1.491-6.51-3.825-9-7a87.252 87.252 0 0 0-3-18 93.229 93.229 0 0 1-7-11 8.434 8.434 0 0 1-.5-4h5z"/><path style="opacity:1" fill="#d1ca54" d="M217.5 80.5c.992 7.148 1.325 14.48 1 22h-1c-.789-.283-1.456-.783-2-1.5a99.708 99.708 0 0 1 2-20.5z"/><path style="opacity:1" fill="#decd57" d="M250.5 79.5c-.325 7.187.009 14.187 1 21a51.569 51.569 0 0 1 1 7c-1.1-1.777-1.934-3.777-2.5-6-.822-7.512-.655-14.845.5-22z"/><path style="opacity:1" fill="#58490a" d="M252.5 79.5c-.991 6.813-1.325 13.813-1 21-.991-6.813-1.325-13.813-1-21 .667-1.333 1.333-1.333 2 0z"/><path style="opacity:1" fill="#0c0805" d="M69.5 103.5v1c-.972 4.186-2.972 7.853-6 11-4.272 1.25-8.272.583-12-2-5.045-3.429-6.711-8.096-5-14a34.314 34.314 0 0 1 6-8c5.67-4.833 11.503-9.5 17.5-14 .71 8.694.544 17.36-.5 26z"/><path style="opacity:1" fill="#d7d05b" d="M253.5 79.5a113.312 113.312 0 0 1 11 7.5 13.923 13.923 0 0 1 3 4c.948.483 1.948.65 3 .5-.237-1.291.096-2.291 1-3a32.784 32.784 0 0 0 4 10 26.335 26.335 0 0 1-2 5 42.305 42.305 0 0 0-3.5-8 194.303 194.303 0 0 0-16.5-16z"/><path style="opacity:1" fill="#090604" d="M252.5 79.5h1a194.303 194.303 0 0 1 16.5 16 42.305 42.305 0 0 1 3.5 8c.371 3.503-.629 6.503-3 9-1 .333-1.667 1-2 2-.992-.172-1.658.162-2 1-7.319 3.02-11.986.687-14-7v-1a51.569 51.569 0 0 0-1-7c-.325-7.187.009-14.187 1-21z"/><path style="opacity:1" fill="#ead84a" d="M69.5 103.5c1.044-8.64 1.21-17.306.5-26a361.025 361.025 0 0 0-17.5 14h-3c2.358-1.866 4.192-4.199 5.5-7 .414.457.914.79 1.5 1a118.884 118.884 0 0 1 10-9.5c4.73-1.604 6.73.063 6 5a483.82 483.82 0 0 0-1.5 20.5c-.278.916-.778 1.582-1.5 2z"/><path style="opacity:1" fill="#d7c664" d="M113.5 75.5a44.293 44.293 0 0 1 2 3c.951-.826 1.951-.992 3-.5-4.957 3.862-5.29 8.196-1 13-.228.399-.562.565-1 .5a81.819 81.819 0 0 1-2.5-3 84.9 84.9 0 0 1-.5-13z"/><path style="opacity:1" fill="#0b0805" d="M21.5 68.5a289.34 289.34 0 0 0 17 9c1.975 1.637 3.975 3.304 6 5 4.134 4.994 3.8 9.66-1 14l-6 5c-6.432 2.681-10.599.681-12.5-6-.51-11.209-4.344-21.042-11.5-29.5 2.672.43 5.338 1.263 8 2.5z"/><path style="opacity:1" fill="#0b0807" d="M300.5 66.5h1c.543.06.876.393 1 1a26.381 26.381 0 0 0-4 8c-1.058 1.1-1.892 2.434-2.5 4a172.26 172.26 0 0 0-3.5 18c-3.278 6.773-7.945 7.773-14 3-.473-1.406-1.473-2.073-3-2a32.784 32.784 0 0 1-4-10l2-4 10-9c6.15-2.24 11.816-5.24 17-9z"/><path style="opacity:1" fill="#b8b58f" d="M217.5 77.5v3c-4.84-3.022-4.84-4.022 0-3z"/><path style="opacity:1" fill="#0a0807" d="M118.5 21.5a39.718 39.718 0 0 1 5 7 13.115 13.115 0 0 0 1-7c1.322-.17 2.489.163 3.5 1 1.775 8.827 4.275 9.16 7.5 1 1.737 2.508 2.57 5.508 2.5 9 1.11-1.537 2.61-2.203 4.5-2 .611 3.461-.556 6.128-3.5 8a881.192 881.192 0 0 1-3.5 13.5 18.11 18.11 0 0 0 4 4.5l-4 2c2.082.866 3.415 2.366 4 4.5-.666 1.669-.666 3.169 0 4.5-2.963 3.73-1.963 5.398 3 5-.215 1.679.452 2.679 2 3-.237 1.291.096 2.291 1 3v3c3.737.245 7.403.911 11 2 2.422.243 4.088-.757 5-3 2.268 1.044 4.601 1.211 7 .5-1.333-.667-1.333-1.333 0-2a8.435 8.435 0 0 1 4-.5c1-5-1-7-6-6-2.167-2.56-4.834-4.56-8-6a185.476 185.476 0 0 1-1-11 21.622 21.622 0 0 0 5-4c1.291-.237 2.291.096 3 1-1.276.886-1.276 1.886 0 3 1.022-.355 1.689-1.022 2-2a20.676 20.676 0 0 1 5-1 8.43 8.43 0 0 0-.5-4c-1.697-.864-2.863-2.197-3.5-4a285.102 285.102 0 0 1-6-3 103.155 103.155 0 0 0-1-9 53.646 53.646 0 0 1 2-7c.667 0 1-.333 1-1 3.737.7 7.404 1.7 11 3 .418.722 1.084 1.222 2 1.5a49.13 49.13 0 0 0 16.5-.5c5.099.602 8.599 3.269 10.5 8 3.257-4.364 7.591-5.864 13-4.5 2.541 1.848 3.541 4.348 3 7.5 2.688-.334 5.021.333 7 2l2 3c.258 3.867-.408 7.534-2 11-.838.342-1.172 1.008-1 2a23.062 23.062 0 0 0-8 3c-.792 1.2-.792 2.533 0 4-.876-.13-1.543.203-2 1 .037 3.549.37 7.216 1 11v1c-4.84-1.022-4.84-.022 0 3a99.708 99.708 0 0 0-2 20.5c.544.717 1.211 1.217 2 1.5a26.335 26.335 0 0 1-2 5c-.842 2.265-.509 4.598 1 7-1.282 2.633-2.616 2.633-4 0l-1 1.5a43.286 43.286 0 0 1 3 5.5c-.505 1.419-1.505 2.085-3 2 .039-1.256-.461-2.256-1.5-3-.74 1.249-.573 2.249.5 3v3c-1.359.507-2.359 1.507-3 3a4.457 4.457 0 0 1-1.5-2c-.341 2.687-1.674 4.687-4 6a159.983 159.983 0 0 1-2.5 10 3.647 3.647 0 0 1-1.5-1 52.125 52.125 0 0 0 2.5 10 5.727 5.727 0 0 1-3 1c-.239-1.967.094-3.801 1-5.5a16.473 16.473 0 0 1-3.5-5.5l-1 1a22.981 22.981 0 0 0-2-5 22.981 22.981 0 0 1-2 5 7.248 7.248 0 0 0-2.5-2h-5c-.595 2.393-1.928 4.227-4 5.5 1.829 1.113 2.663 2.613 2.5 4.5-2.019-.857-3.519-2.191-4.5-4 1.011-1.902 1.178-3.902.5-6a32.448 32.448 0 0 0-2.5 6c-1.671-2.581-2.171-2.248-1.5 1 .671.752 1.504 1.086 2.5 1-.756 2.113-.923 4.113-.5 6-2.151-2.612-2.985-2.612-2.5 0-.865 1.083-1.865 1.249-3 .5-.865-1.359-1.865-2.526-3-3.5-2.462-2.627-4.129-1.96-5 2a6.802 6.802 0 0 1-1.5-3c-1.951 1.637-1.784 3.137.5 4.5a2.428 2.428 0 0 1-2 .5c.065-.438-.101-.772-.5-1a8.905 8.905 0 0 0-3 4c-.605 2.135-.105 2.469 1.5 1 .697-.124 1.53-.124 2.5 0-.311 1.435-.145 2.768.5 4a6.547 6.547 0 0 1-3 3c-3.576-1.088-7.243-1.088-11 0-.307-1.387-.307-3.054 0-5-1.322-.17-2.489.163-3.5 1l-1.5-3c-3-1.333-6-1.333-9 0a261.12 261.12 0 0 0 7.5 2 74.513 74.513 0 0 1 2 12c3.303 1.897 3.136 3.564-.5 5a26.023 26.023 0 0 1 4 4.5c-.228.399-.562.565-1 .5h-4a28.741 28.741 0 0 0-2-7c.287-4.566.287-9.233 0-14-4.748.93-9.081 2.93-13 6-3.084-3.957-6.084-3.957-9 0h-1v-4c-1.291-.237-2.291.096-3 1-4.894.1-9.894-.233-15-1-.437-3.808-1.77-7.141-4-10 1.277-1.422.944-2.422-1-3-.683-1.676-2.017-2.343-4-2-.876.131-1.543-.202-2-1 1.654-2.403 3.987-3.736 7-4 1.175.219 2.175-.114 3-1a187.991 187.991 0 0 1-2-3c.71-2.342 2.044-2.675 4-1 1.28 1.431 2.947 2.098 5 2v-8c4.537 2.361 7.704 6.027 9.5 11 2.09-1.291 3.424-.624 4 2a111.576 111.576 0 0 1 10.5-3.5 3.647 3.647 0 0 1-1-1.5l4-2a349.769 349.769 0 0 0 7-9.5l6-1a6.802 6.802 0 0 1-3-1.5c.124-.607.457-.94 1-1 .91-1.987 2.91-3.487 6-4.5-2.195-.409-4.195.091-6 1.5-.321-1.548-1.321-2.215-3-2-.918-3.252-2.918-5.586-6-7 .381-2.442-.286-3.109-2-2-1.181-1.635-1.181-3.302 0-5a10.756 10.756 0 0 1-2.5-3 3.647 3.647 0 0 1-1.5 1c-2.153-2.64-3.487-5.64-4-9-1.175.219-2.175-.114-3-1 1.372-2.12.705-3.12-2-3v-2c.438.065.772-.101 1-.5-4.29-4.804-3.957-9.138 1-13-1.049-.492-2.049-.326-3 .5a44.293 44.293 0 0 0-2-3v-3c.72-2.56 2.387-4.394 5-5.5-4.329.648-4.996-.852-2-4.5-2.301-1.663-2.301-3.497 0-5.5l-2-1c1.919-1.804 2.252-3.804 1-6a324.52 324.52 0 0 1 2-9.5c-.82-1.611-2.154-2.278-4-2h-2c-1.779-1.17-2.779-2.836-3-5h8c.258-3.867-.408-7.534-2-11 1.068-.934 2.401-1.268 4-1z"/><path style="opacity:1" fill="#a1a1a1" d="M152.5 154.5c.876-.131 1.543.202 2 1-2.546 5.133-3.213 4.8-2-1z"/><path style="opacity:1" fill="#c2c2c2" d="M166.5 152.5c.582-1.431 1.415-2.764 2.5-4 .91 2.445.076 3.778-2.5 4z"/><path style="opacity:1" fill="#a8a8a8" d="M176.5 147.5c.172.992-.162 1.658-1 2-.996.086-1.829-.248-2.5-1-.671-3.248-.171-3.581 1.5-1a32.448 32.448 0 0 1 2.5-6c.678 2.098.511 4.098-.5 6z"/><path style="opacity:1" fill="#b8aea3" d="M211.5 123.5h-1c-1.073-.751-1.24-1.751-.5-3 1.039.744 1.539 1.744 1.5 3z"/><path style="opacity:1" fill="#cbcbcb" d="M150.5 116.5c2.768.913 5.434 1.246 8 1-3.12 2.616-5.786 2.283-8-1z"/><path style="opacity:1" fill="#e6e6e6" d="M154.5 113.5c3.743-.041 3.91.626.5 2a2.428 2.428 0 0 1-.5-2z"/><path style="opacity:1" fill="#cdcdcd" d="M158.5 107.5c3.607.325 4.274 1.492 2 3.5a4.457 4.457 0 0 1 2 1.5c-1.189.929-2.522 1.262-4 1 .88-2.111.88-4.111 0-6z"/><path style="opacity:1" fill="#e1e1e1" d="M165.5 102.5c1.478-.262 2.811.071 4 1-.825.886-1.825 1.219-3 1v3c-1.846.278-3.18-.389-4-2 1.27-.788 2.27-1.788 3-3z"/><path style="opacity:1" fill="#838383" d="M170.5 99.5c1.929-.27 3.595.23 5 1.5l-2.5.5c-1.376-.184-2.209-.851-2.5-2z"/><path style="opacity:1" fill="#c5c5c5" d="M177.5 95.5v1c-.447 2.473-1.447 2.64-3 .5.744-1.039 1.744-1.539 3-1.5z"/><path style="opacity:1" fill="#4f4f4f" d="M177.5 96.5v-1c2.322-2.247 4.989-2.914 8-2-.936 1.474-2.27 2.474-4 3-1.226-.863-2.56-.863-4 0z"/><path style="opacity:1" fill="#a3a3a3" d="M187.5 93.5c.886-1.276 1.886-1.276 3 0-.925 1.062-1.925 1.062-3 0z"/><path style="opacity:1" fill="#9d9d8b" d="M161.5 83.5c5.58.822 5.914 1.656 1 2.5-1.333.667-1.333 1.333 0 2-1.135.75-2.135.583-3-.5 1.13-1.122 1.797-2.456 2-4z"/><path style="opacity:1" fill="#d9c75d" d="M166.5 72.5c5-1 7 1 6 6a8.435 8.435 0 0 0-4 .5c-1.333.667-1.333 1.333 0 2-2.399.711-4.732.544-7-.5-.912 2.243-2.578 3.243-5 3a48.852 48.852 0 0 0-11-2v-3c3.123 1.895 6.623 2.895 10.5 3a158.95 158.95 0 0 1 15.5-4 4.934 4.934 0 0 0-.5-3 36.28 36.28 0 0 1-4.5-2z"/><path style="opacity:1" fill="#969696" d="M199.5 74.5c2.141 1.255 2.807 2.922 2 5-1.45-1.35-2.117-3.016-2-5z"/><path style="opacity:1" fill="#a89c70" d="M40.5 65.5c.824 3.812 1.324 7.812 1.5 12a10.521 10.521 0 0 1 2.5 3v2a1464.947 1464.947 0 0 0-6-5c1.923-3.53 2.59-7.53 2-12z"/><path style="opacity:1" fill="#c0b76a" d="M278.5 65.5a60.93 60.93 0 0 0 .5 11c1.356-.88 2.856-1.213 4.5-1l-10 9v-2a19.565 19.565 0 0 1 3.5-4c.175-4.52.675-8.853 1.5-13z"/><path style="opacity:1" fill="#8a7f2b" d="M46.5 59.5c.992 7.482 1.325 15.148 1 23-1.333 0-2-.667-2-2 .991-6.813 1.325-13.813 1-21z"/><path style="opacity:1" fill="#252525" d="M181.5 76.5c.111-2.148-.556-2.481-2-1a14.74 14.74 0 0 0-1-2c1.939-.06 3.939-.06 6 0a4.458 4.458 0 0 0 1.5-2c.589 2.363 2.089 3.363 4.5 3 .14 1.624-.527 2.79-2 3.5 1.124.25 2.124.75 3 1.5-1.796.641-3.296 1.641-4.5 3-.908-1.939-2.408-2.939-4.5-3 .237-1.291-.096-2.291-1-3z"/><path style="opacity:1" fill="#f7e417" d="M166.5 72.5a36.28 36.28 0 0 0 4.5 2c.483.948.649 1.948.5 3a158.95 158.95 0 0 0-15.5 4c-3.877-.105-7.377-1.105-10.5-3-.904-.709-1.237-1.709-1-3-.16-1.653-.826-2.986-2-4-.251-5.168-.251-10.001 0-14.5a18.95 18.95 0 0 1 5-3l-2-1c3.424-1.658 6.758-1.325 10 1-1.295 2.8-1.295 5.634 0 8.5-.891 1.09-1.891 1.09-3 0-1.759 3.779-.759 5.112 3 4a29.578 29.578 0 0 0 11 6z"/><path style="opacity:1" fill="#cdcdcd" d="M178.5 73.5c.38.633.713 1.3 1 2 1.444-1.481 2.111-1.148 2 1-1.419.951-3.085 1.284-5 1-.271-1.88.396-3.213 2-4z"/><path style="opacity:1" fill="#170c03" d="M46.5 59.5c.325 7.187-.009 14.187-1 21h-1a10.521 10.521 0 0 0-2.5-3c-.176-4.188-.676-8.188-1.5-12v-6h6z"/><path style="opacity:1" fill="#decc52" d="M301.5 66.5c.06-.543.393-.876 1-1 1.897 4.733.564 8.066-4 10a26.381 26.381 0 0 1 4-8c-.124-.607-.457-.94-1-1z"/><path style="opacity:1" fill="#a9a9a9" d="M204.5 72.5c1.837.14 2.17.806 1 2-.798-.457-1.131-1.124-1-2z"/><path style="opacity:1" fill="#dccc5c" d="M57.5 55.5c-.843 1.673-2.176 2.84-4 3.5-2.495-.411-4.828-.245-7 .5h-6v6c.59 4.47-.077 8.47-2 12a289.34 289.34 0 0 1-17-9c2.747-.313 5.413.02 8 1 2.931 2.558 6.265 4.224 10 5v-9c.435-3.337-.232-6.337-2-9 6.764 1.505 13.43 1.172 20-1z"/><path style="opacity:1" fill="#aa9e50" d="M218.5 64.5c-.216 3.56.118 7.06 1 10.5-.336 1.03-1.003 1.53-2 1.5-.63-3.784-.963-7.451-1-11 .457-.797 1.124-1.13 2-1z"/><path style="opacity:1" fill="#b1b3ae" d="M206.5 68.5c1.837.14 2.17.806 1 2-.798-.457-1.131-1.124-1-2z"/><path style="opacity:1" fill="#c8bf68" d="M269.5 58.5h8l1 2h-6v20c-.35-6.895-1.35-13.562-3-20v-2z"/><path style="opacity:1" fill="#160c03" d="M278.5 60.5v5c-.825 4.147-1.325 8.48-1.5 13a19.565 19.565 0 0 0-3.5 4c-.838-.342-1.172-1.008-1-2v-20h6z"/><path style="opacity:1" fill="#c1b349" d="M157.5 55.5c.224 3.679.558 7.346 1 11-.617-.11-1.117-.444-1.5-1l-1.5-7.5c.184-1.376.851-2.209 2-2.5z"/><path style="opacity:1" fill="#b8aa58" d="M226.5 57.5c-1.348 1.98-3.348 3.147-6 3.5a19.588 19.588 0 0 1-2 3.5c-.792-1.467-.792-2.8 0-4a23.062 23.062 0 0 1 8-3z"/><path style="opacity:1" fill="#dacb49" d="M264.5 35.5a19.934 19.934 0 0 1-2.5 9c-1.193 4.652-.36 8.819 2.5 12.5 1.525 1.009 3.192 1.509 5 1.5v2a12.935 12.935 0 0 1-5-.5c-5.377-5.253-6.377-11.42-3-18.5.464-2.475 1.464-4.475 3-6z"/><path style="opacity:1" fill="#d0ced8" d="M172.5 55.5c1.976.927 2.309 2.26 1 4-.929-1.189-1.262-2.522-1-4z"/><path style="opacity:1" fill="#e5dddb" d="M168.5 54.5c3.599-.238 3.933.762 1 3-.886-.825-1.219-1.825-1-3z"/><path style="opacity:1" fill="#d9bda8" d="M165.5 52.5c.992-.172 1.658.162 2 1-.311.978-.978 1.645-2 2-1.276-1.114-1.276-2.114 0-3z"/><path style="opacity:1" fill="#cabb4a" d="M229.5 44.5c1.193.47 1.86 1.47 2 3-.02 3.435-1.354 6.102-4 8 1.592-3.466 2.258-7.133 2-11z"/><path style="opacity:1" fill="#e3c771" d="M150.5 48.5c3.75 1.646 7.75 2.646 12 3a21.622 21.622 0 0 1-5 4 4.934 4.934 0 0 0-.5-3 20.438 20.438 0 0 0-5.5-1.5c-.752-.67-1.086-1.504-1-2.5z"/><path style="opacity:1" fill="#f2dd2b" d="m148.5 47.5 2 1c-.086.996.248 1.83 1 2.5 1.933.251 3.766.751 5.5 1.5.483.948.649 1.948.5 3-1.149.291-1.816 1.124-2 2.5l1.5 7.5c.383.556.883.89 1.5 1 3.166 1.44 5.833 3.44 8 6a29.578 29.578 0 0 1-11-6c-3.759 1.112-4.759-.221-3-4 1.109 1.09 2.109 1.09 3 0-1.295-2.866-1.295-5.7 0-8.5-3.242-2.325-6.576-2.658-10-1l2 1a18.95 18.95 0 0 0-5 3c-.251 4.499-.251 9.332 0 14.5-.617-.11-1.117-.444-1.5-1a101.031 101.031 0 0 0-2.5-21.5c.446-3.175.946-6.342 1.5-9.5a7.248 7.248 0 0 1 2.5-2c.84 4.142 2.84 7.476 6 10z"/><path style="opacity:1" fill="#dacb5d" d="M135.5 23.5c.709-.904 1.709-1.237 3-1-.16 1.7.006 3.366.5 5a20.515 20.515 0 0 1 4.5 2.5c2.52.014 5.02-.486 7.5-1.5 1.385.014 2.551.348 3.5 1h-1c-6.997.981-9.83 4.981-8.5 12a699.39 699.39 0 0 0 3.5 5v1c-3.16-2.524-5.16-5.858-6-10a7.248 7.248 0 0 0-2.5 2 282.082 282.082 0 0 0-1.5 9.5 101.031 101.031 0 0 1 2.5 21.5c.383.556.883.89 1.5 1 1.174 1.014 1.84 2.347 2 4-1.548-.321-2.215-1.321-2-3-4.963.398-5.963-1.27-3-5-.666-1.331-.666-2.831 0-4.5-.585-2.134-1.918-3.634-4-4.5l4-2a18.11 18.11 0 0 1-4-4.5 881.192 881.192 0 0 0 3.5-13.5c2.944-1.872 4.111-4.539 3.5-8-1.89-.203-3.39.463-4.5 2 .07-3.492-.763-6.492-2.5-9z"/><path style="opacity:1" fill="#581711" d="M153.5 29.5h1a32.462 32.462 0 0 0 .5 8c.278.916.778 1.583 1.5 2 1.49 1.78 3.49 2.447 6 2 1.906.982 3.906 1.982 6 3 .637 1.803 1.803 3.136 3.5 4a8.43 8.43 0 0 1 .5 4 20.676 20.676 0 0 0-5 1c-.342-.838-1.008-1.172-2-1-.709-.904-1.709-1.237-3-1-4.25-.354-8.25-1.354-12-3l-2-1v-1c.667 0 1-.333 1-1 6.334 1.243 12.501 3.243 18.5 6 1.28-.114 2.113-.78 2.5-2a74.8 74.8 0 0 0-6-5.5 55.692 55.692 0 0 1-9-1.5c-4.682-8.648-6.682-7.981-6 2-.617-.11-1.117-.444-1.5-1a25.238 25.238 0 0 1 0-10c2.685-2.805 4.352-2.138 5 2 .495-1.973.662-3.973.5-6z"/><path style="opacity:1" fill="#bcbbb9" d="M216.5 47.5c-1.595 7.057-3.595 7.39-6 1 1.62-3.5 3.62-3.832 6-1z"/><path style="opacity:1" fill="#6c6015" d="M285.5 39.5c1.517 1.962 2.184 4.295 2 7-.007 1.87-.34 3.536-1 5a54.965 54.965 0 0 0-1-12z"/><path style="opacity:1" fill="#af231d" d="M149.5 45.5v-1c-.682-9.981 1.318-10.648 6-2a55.692 55.692 0 0 0 9 1.5 74.8 74.8 0 0 1 6 5.5c-.387 1.22-1.22 1.886-2.5 2-5.999-2.757-12.166-4.757-18.5-6z"/><path style="opacity:1" fill="#a4a4a0" d="M216.5 47.5c-.282-4.088.385-4.588 2-1.5-.336 1.03-1.003 1.53-2 1.5z"/><path style="opacity:1" fill="#d7c860" d="M113.5 38.5c1.846-.278 3.18.389 4 2a324.52 324.52 0 0 0-2 9.5c1.252 2.196.919 4.196-1 6l2 1c-2.301 2.003-2.301 3.837 0 5.5-2.996 3.648-2.329 5.148 2 4.5-2.613 1.106-4.28 2.94-5 5.5.601-11.41.601-22.743 0-34z"/><path style="opacity:1" fill="#b8bdb6" d="M212.5 37.5c1.347.671 2.514.671 3.5 0 .483.948.649 1.948.5 3a8.435 8.435 0 0 1-4-.5c-1.098-.77-1.098-1.603 0-2.5z"/><path style="opacity:1" fill="#e2d23e" d="M43.5 18.5a158.325 158.325 0 0 0-11.5 21 28.725 28.725 0 0 0 .5 13 14.562 14.562 0 0 0 5 4c1.768 2.663 2.435 5.663 2 9-.81-1.792-1.31-3.792-1.5-6a61.436 61.436 0 0 0-5.5-5c-2.503 1.05-4.003.05-4.5-3-.667-4-.667-8 0-12 3.782-3.922 5.948-8.588 6.5-14 2.91-.91 4.91-2.91 6-6 .825-.886 1.825-1.219 3-1z"/><path style="opacity:1" fill="#d2d2d2" d="M181.5 37.5a9.864 9.864 0 0 1 6 1c1.145 1.391 1.145 2.724 0 4-.886-.825-1.219-1.825-1-3-2.281.423-3.948-.244-5-2z"/><path style="opacity:1" fill="#f0de34" d="M279.5 15.5c-.352 3.955.815 7.288 3.5 10 .743-2.145 1.576-2.311 2.5-.5.451 3.877 1.451 7.544 3 11a11.462 11.462 0 0 1-1 2.5c3.041 1.58 4.707 4.08 5 7.5-1.119 2.607-1.619 5.107-1.5 7.5a27.713 27.713 0 0 1-10 7 89.477 89.477 0 0 1-1.5 12c.333 1 1 1.667 2 2 1.196-.346 1.196-.846 0-1.5a108.61 108.61 0 0 1 19-6.5c-5.184 3.76-10.85 6.76-17 9-1.644-.213-3.144.12-4.5 1a60.93 60.93 0 0 1-.5-11v-5l-1-2c4.215-.743 7.215-3.077 9-7 .66-1.464.993-3.13 1-5 .184-2.705-.483-5.038-2-7a105.163 105.163 0 0 0-11-21 518.115 518.115 0 0 1-4 6 48.925 48.925 0 0 1 3-9c1.196.346 1.196.846 0 1.5 1.244.456 2.077-.044 2.5-1.5l1 2c.708-.88 1.542-1.547 2.5-2z"/><path style="opacity:1" fill="#d7cb4a" d="M113.5 22.5h1c1.592 3.466 2.258 7.133 2 11h-8c.221 2.164 1.221 3.83 3 5-3.202-.13-5.535-1.63-7-4.5 2.983-2.08 6.317-2.913 10-2.5a104.653 104.653 0 0 0-1-9z"/><path style="opacity:1" fill="#dce7d8" d="M166.5 28.5c1.086.12 1.753.787 2 2l-1 2c-.929-1.189-1.262-2.522-1-4z"/><path style="opacity:1" fill="#291205" d="M153.5 29.5a18.452 18.452 0 0 1-.5 6c-.648-4.138-2.315-4.805-5-2a25.238 25.238 0 0 0 0 10c.383.556.883.89 1.5 1v1c0 .667-.333 1-1 1a699.39 699.39 0 0 1-3.5-5c-1.33-7.019 1.503-11.019 8.5-12z"/><path style="opacity:1" fill="#e8d264" d="M163.5 25.5a53.646 53.646 0 0 0-2 7c.466 2.992.799 5.992 1 9-2.51.447-4.51-.22-6-2h4a84.9 84.9 0 0 1 .5-13c.671-.752 1.504-1.086 2.5-1z"/><path style="opacity:1" fill="#d7ca5e" d="M45.5 18.5c1.175-.219 2.175.114 3 1a184.166 184.166 0 0 0 8.5 16c2.433 5.316 2.933 10.65 1.5 16 .015-4.06-.485-8.06-1.5-12a158.998 158.998 0 0 0-11.5-21z"/><path style="opacity:1" fill="#d3c64a" d="M175.5 27.5h23c1.923.295 3.59 1.128 5 2.5 5.991.5 11.991.666 18 .5 1.139 2.504 1.806 5.17 2 8 2.473-.412 3.806.588 4 3-1.979-1.667-4.312-2.334-7-2 .541-3.152-.459-5.652-3-7.5-5.409-1.364-9.743.136-13 4.5-1.901-4.731-5.401-7.398-10.5-8a49.13 49.13 0 0 1-16.5.5c-.916-.278-1.582-.778-2-1.5z"/><path style="opacity:1" fill="#0a0707" d="M45.5 18.5a158.998 158.998 0 0 1 11.5 21 47.184 47.184 0 0 1 1.5 12l-1 4c-6.57 2.172-13.236 2.505-20 1a14.562 14.562 0 0 1-5-4 28.725 28.725 0 0 1-.5-13 158.325 158.325 0 0 1 11.5-21c.667-1.333 1.333-1.333 2 0z"/><path style="opacity:1" fill="#0b0706" d="M285.5 39.5a54.965 54.965 0 0 1 1 12c-1.785 3.923-4.785 6.257-9 7h-8c-1.808.009-3.475-.491-5-1.5-2.86-3.681-3.693-7.848-2.5-12.5a19.934 19.934 0 0 0 2.5-9c2.747-3.223 4.747-6.89 6-11a518.115 518.115 0 0 0 4-6 105.163 105.163 0 0 1 11 21z"/><path style="opacity:1" fill="#d7ce6b" d="M118.5 21.5c2.049 1.141 4.049 1.141 6 0a13.115 13.115 0 0 1-1 7 39.718 39.718 0 0 0-5-7z"/><path style="opacity:1" fill="#f5e221" d="M198.5 27.5h-23c-3.048-3.666-6.715-4.666-11-3 0 .667-.333 1-1 1-.996-.086-1.829.248-2.5 1a84.9 84.9 0 0 0-.5 13h-4c-.722-.417-1.222-1.084-1.5-2a32.462 32.462 0 0 1-.5-8c-.949-.652-2.115-.986-3.5-1-2.48 1.014-4.98 1.514-7.5 1.5a20.515 20.515 0 0 0-4.5-2.5 12.93 12.93 0 0 1-.5-5c-1.291-.237-2.291.096-3 1-3.225 8.16-5.725 7.827-7.5-1-1.011-.837-2.178-1.17-3.5-1-1.951 1.141-3.951 1.141-6 0-1.599-.268-2.932.066-4 1h-1c-.418-.722-1.084-1.222-2-1.5 2.508-.654 4.674-1.821 6.5-3.5.519 1.016 1.353 1.682 2.5 2a20.52 20.52 0 0 0 4.5-3c1.938 1.36 3.604 1.027 5-1v4c.414-.457.914-.79 1.5-1l9 2c-.351-1.703.316-3.37 2-5 1.09.891 1.09 1.891 0 3 .365 1.402 1.199 2.402 2.5 3 3.45-.97 6.283-2.803 8.5-5.5 1.933-.783 3.433-.283 4.5 1.5 1.356-.88 2.856-1.213 4.5-1 .417 2.58-.25 4.746-2 6.5 2.405.148 4.739-.352 7-1.5a51.54 51.54 0 0 1 8 2l1 2c5.294.84 10.461 1.173 15.5 1 .945-.405 1.612-1.072 2-2 1.409 1.281 2.909 2.281 4.5 3z"/><path style="opacity:1" fill="#d0bf53" d="M164.5 24.5c4.285-1.666 7.952-.666 11 3a70.379 70.379 0 0 0-11-3z"/><path style="opacity:1" fill="#f9e316" d="M178.5 280.5a199.63 199.63 0 0 1 6 3 13.116 13.116 0 0 1 1 7c2.643 3.083 1.643 4.417-3 4-1.78 1.49-2.446 3.49-2 6a77.1 77.1 0 0 0-13-1c-2.787-.977-5.787-1.31-9-1-.258-3.872.409-7.539 2-11 .324-2.464.491-5.131.5-8a57.688 57.688 0 0 1 5.5-7l5 2.5c1.04 3.545 3.373 5.379 7 5.5z"/><path style="opacity:1" fill="#c1b34c" d="M297.5 280.5a17.758 17.758 0 0 1-1.5 7c-1.11 1.537-2.61 2.203-4.5 2 2.743-2.48 4.743-5.48 6-9z"/><path style="opacity:1" fill="#d4c95f" d="M258.5 278.5c0-.667.333-1 1-1h3c.166 8.007 0 16.007-.5 24-.278.916-.778 1.582-1.5 2 .514-6.322.847-12.655 1-19v-6h-3z"/><path style="opacity:1" fill="#dcd261" d="M109.5 286.5c1.13 1.815 1.796 3.815 2 6-2.516.255-4.85 1.089-7 2.5-4.267 4.222-3.934 5.389 1 3.5l1 1a17.858 17.858 0 0 0-5 5c-.838.342-1.172 1.008-1 2-.597-.235-.93-.735-1-1.5a65.81 65.81 0 0 0 1.5-8.5c1.026-3.193 3.192-4.526 6.5-4-.475-2.582.192-4.582 2-6z"/><path style="opacity:1" fill="#dbc95a" d="M216.5 290.5c1.052 4.611-.281 8.611-4 12a36.261 36.261 0 0 1 4-12z"/><path style="opacity:1" fill="#554814" d="M316.5 292.5c-.223 3.662-1.223 6.995-3 10 .223-3.662 1.223-6.995 3-10z"/><path style="opacity:1" fill="#d1c661" d="M182.5 294.5c.304.65.637 1.317 1 2-2.667 1.333-2.667 2.667 0 4a14.748 14.748 0 0 0-4.5 3c-3.866-1.37-7.699-2.703-11.5-4a77.1 77.1 0 0 1 13 1c-.446-2.51.22-4.51 2-6z"/><path style="opacity:1" fill="#fdfdfc" d="M-.5 274.5h1c4.261 44.528 23.261 81.195 57 110 24.918 22.196 53.919 35.529 87 40H-.5v-150z"/><path style="opacity:1" fill="#decb54" d="M19.5 280.5c1.734 1.59 2.9 3.59 3.5 6 3.982 2.267 8.148 2.601 12.5 1 1.548.321 2.215 1.321 2 3a1253.567 1253.567 0 0 1-7 40 851.56 851.56 0 0 1 4-39 189.246 189.246 0 0 0-12-3.5c-1.704-2.237-2.704-4.737-3-7.5z"/><path style="opacity:1" fill="#c9c24f" d="M154.5 300.5c.206 4.442-1.46 7.775-5 10a65.318 65.318 0 0 0 5-10z"/><path style="opacity:1" fill="#e1ce41" d="M160.5 287.5c-1.591 3.461-2.258 7.128-2 11 3.213-.31 6.213.023 9 1a16.873 16.873 0 0 0-8 1 96.485 96.485 0 0 1 6 4.5c-3.182 2-4.849 4.833-5 8.5-.76-4.313-1.927-8.646-3.5-13-.77-1.098-1.603-1.098-2.5 0-.273-1.951.393-3.451 2-4.5a18.08 18.08 0 0 1-2-3.5c.438-1.006 1.104-1.006 2 0 .651-2.347 1.984-4.014 4-5z"/><path style="opacity:1" fill="#ada660" d="M101.5 304.5c-.219 1.175.114 2.175 1 3a6.846 6.846 0 0 1 4-1c-1.886 2.955-2.886 6.289-3 10a92.756 92.756 0 0 0-3-10c-.172-.992.162-1.658 1-2z"/><path style="opacity:1" fill="#dbc75a" d="M212.5 302.5c-1.438 3.774-4.105 6.107-8 7 .203 1.89-.463 3.39-2 4.5-2.531.448-4.864 1.281-7 2.5.859-1.606 1.026-3.273.5-5 1.716 1.052 2.716.386 3-2a6.802 6.802 0 0 0 1.5 3c.585-2.365 1.752-4.365 3.5-6 1.516 2.551 2.349 2.218 2.5-1h3v-3h3z"/><path style="opacity:1" fill="#dcce5c" d="m58.5 290.5 2 13c-.166 5.344 0 10.677.5 16a64.987 64.987 0 0 1 5.5 16c-3.09-5.615-5.59-11.615-7.5-18-.5-8.994-.666-17.994-.5-27z"/><path style="opacity:1" fill="#a0955a" d="M108.5 313.5c1.208-1.282 2.542-1.282 4 0 1.879 1.57 2.212 3.236 1 5-.569-2.835-2.236-4.501-5-5z"/><path style="opacity:1" fill="#c8bf61" d="M165.5 320.5a335.912 335.912 0 0 1-4-7c1.894-.548 3.56-1.548 5-3l1 1.5c-1.494 2.639-2.161 5.472-2 8.5z"/><path style="opacity:1" fill="#e0d255" d="M13.5 312.5a81.216 81.216 0 0 1 2.5 3 697.21 697.21 0 0 0 7.5 20c-4.676-7.025-8.01-14.692-10-23z"/><path style="opacity:1" fill="#d0bd53" d="M136.5 313.5a740.086 740.086 0 0 0-14 2.5c-3.65 6.221-7.983 6.888-13 2l1-1c-2.495.412-4.829.245-7-.5 1.934-.61 3.601-1.61 5-3 2.764.499 4.431 2.165 5 5-.543.06-.876.393-1 1 5.087 1.443 7.754-.557 8-6 5.561-.447 10.894-.447 16 0z"/><path style="opacity:1" fill="#e3d758" d="M287.5 301.5c2.953 7.47 4.286 15.47 4 24-2.247-7.718-3.58-15.718-4-24z"/><path style="opacity:1" fill="#dcc95e" d="M172.5 325.5c-1.491-2.591-3.825-3.591-7-3v-2c1.693-.975 3.193-2.308 4.5-4 2.251 2.517 3.084 5.517 2.5 9z"/><path style="opacity:1" fill="#ebd84b" d="M191.5 316.5a102.098 102.098 0 0 1-3 11c-1.223 1.114-2.556 1.281-4 .5a10.756 10.756 0 0 0-3-2.5c-2.957 2.312-6.291 3.812-10 4.5-.906 1.699-1.239 3.533-1 5.5h-1c.268-1.599-.066-2.932-1-4-3.747-4.845-7.914-5.179-12.5-1a95.554 95.554 0 0 0-1.5 22h-33v10c-1.398-1.277-2.064-2.943-2-5 .497-2.318.83-4.652 1-7h33a123.9 123.9 0 0 1 1-21c.318-1.147.984-1.981 2-2.5l4.5-.5c3.422.298 6.422.965 9 2 .667-1.333.667-2.667 0-4a36.354 36.354 0 0 1-4.5-2c3.175-.591 5.509.409 7 3 .321 1.548 1.321 2.215 3 2-.007-6.047 2.66-7.547 8-4.5.837 1.011 1.17 2.178 1 3.5h3c-.294-4.067 1.04-7.4 4-10z"/><path style="opacity:1" fill="#d5c86c" d="M30.5 331.5a67.363 67.363 0 0 1-1.5 13c-1.67-1.346-2.836-3.013-3.5-5h3c-.163-2.357.003-4.69.5-7 .383-.556.883-.889 1.5-1z"/><path style="opacity:1" fill="#d0c64f" d="M66.5 335.5c3.71 1.469 6.043 4.135 7 8-4.054-1.187-6.387-3.853-7-8z"/><path style="opacity:1" fill="#8b8236" d="M168.5 331.5c.934 1.068 1.268 2.401 1 4a77.772 77.772 0 0 0 1 17c-1.961-6.587-2.628-13.587-2-21z"/><path style="opacity:1" fill="#e0d167" d="M291.5 326.5c1.677 4.045 2.344 8.378 2 13 2.642.012 3.975-1.321 4-4h2a31.245 31.245 0 0 1-5.5 9 56.376 56.376 0 0 1-2.5-18z"/><path style="opacity:1" fill="#e0d149" d="M260.5 303.5a121.37 121.37 0 0 1-5.5 37 803.573 803.573 0 0 1-21.5 15v-4c3.088.303 4.754-1.03 5-4a8.43 8.43 0 0 0 4-.5l-1-1a203.918 203.918 0 0 0 9-3.5c-.82-3.645.513-5.978 4-7a275.427 275.427 0 0 0 6-32z"/><path style="opacity:1" fill="#d7c949" d="M73.5 343.5a383.48 383.48 0 0 1 12 4c2.744 3.396 5.41 6.729 8 10a93.98 93.98 0 0 0-19-12l-1-2z"/><path style="opacity:1" fill="#d9c85d" d="M169.5 335.5h1a62.792 62.792 0 0 0 1 15.5c9.91.18 19.744.68 29.5 1.5 1.195 6.967.362 13.634-2.5 20-.683.363-1.35.696-2 1a186.061 186.061 0 0 0 3.5-13c.769-2.599.602-5.099-.5-7.5-9.661-.5-19.328-.666-29-.5a77.772 77.772 0 0 1-1-17z"/><path style="opacity:1" fill="#0d0a09" d="M168.5 331.5c-.628 7.413.039 14.413 2 21 9.672-.166 19.339 0 29 .5 1.102 2.401 1.269 4.901.5 7.5a186.061 186.061 0 0 1-3.5 13c-2.746 6.471-6.746 12.138-12 17a42.493 42.493 0 0 1-11 5.5c-21.922 4.783-37.589-2.717-47-22.5a92.567 92.567 0 0 1-5-16v-5h33a95.554 95.554 0 0 1 1.5-22c4.586-4.179 8.753-3.845 12.5 1z"/><path style="opacity:1" fill="#d2c861" d="M88.5 360.5h-9v5c-1.847-1.53-2.847-3.53-3-6a27.355 27.355 0 0 1 11-.5c.556.383.89.883 1 1.5z"/><path style="opacity:1" fill="#d6d5d9" d="M139.5 358.5c1.321 3.098 1.988 6.598 2 10.5l-.5 10.5c-1.995-2.797-2.828-5.963-2.5-9.5.257-3.848.591-7.682 1-11.5z"/><path style="opacity:1" fill="#bbbcbb" d="M187.5 356.5c1.318 2.758 1.985 5.924 2 9.5l-1 9.5a91.123 91.123 0 0 1-1-19z"/><path style="opacity:1" fill="#e9d843" d="M93.5 357.5c5.299.349 7.466 3.016 6.5 8a50.091 50.091 0 0 1-12.5-3.5c-2.402-.814-4.735-.647-7 .5a50.584 50.584 0 0 0 5 8.5c3.24 2.733 6.907 4.733 11 6-.906 1.699-1.24 3.533-1 5.5a96.502 96.502 0 0 1-16-17v-5h9c2.501 1.326 5.168 1.826 8 1.5a30.818 30.818 0 0 0-3-4.5z"/><path style="opacity:1" fill="#ececee" d="M151.5 354.5c.322 5.858-.011 11.525-1 17a46.183 46.183 0 0 1-1-9c.022-3.09.688-5.757 2-8z"/><path style="opacity:1" fill="#c6b750" d="M121.5 357.5a92.567 92.567 0 0 0 5 16c-2.114-1.407-3.614-3.407-4.5-6a12.93 12.93 0 0 1-.5-5v-5z"/><path style="opacity:1" fill="#cdc35a" d="M234.5 360.5c3.065-1.318 6.231-1.318 9.5 0 .196 4.648-1.637 8.315-5.5 11v-2c.516-1.7 1.516-3.033 3-4 .952-1.545 1.285-3.212 1-5h-8z"/><path style="opacity:1" fill="#e1e2e1" d="M160.5 379.5v9h3v6h-7c.431-4.82.764-9.653 1-14.5-.297-6.052-1.297-11.886-3-17.5l1-8a222.15 222.15 0 0 0 2.5 12c1.814 1.26 3.647 1.26 5.5 0-.825-.886-1.825-1.219-3-1v-35h3a79.747 79.747 0 0 0 2 23.5c-1.785 3.664-1.285 6.831 1.5 9.5.498 2.982.665 5.982.5 9h-7v7z"/><path style="opacity:1" fill="#b4b5b4" d="M181.5 354.5h3c.466 8.172-.034 16.172-1.5 24-1.466-7.828-1.966-15.828-1.5-24z"/><path style="opacity:1" fill="#ccc" d="M168.5 369.5c4.637.108 4.97 1.108 1 3-.886-.825-1.219-1.825-1-3z"/><path style="opacity:1" fill="#79787a" d="M151.5 354.5c.99 6.145 1.323 12.478 1 19-1.165 4.173-1.165 8.507 0 13l-1 3a16.873 16.873 0 0 1-1-8v-10c.989-5.475 1.322-11.142 1-17z"/><path style="opacity:1" fill="#d6ce67" d="M247.5 381.5v-3c-4.019 2.233-8.352 3.9-13 5a135.685 135.685 0 0 1 17-9c-.498 2.826-1.831 5.16-4 7z"/><path style="opacity:1" fill="#d7d7d7" d="M150.5 381.5a16.873 16.873 0 0 0 1 8l1-3c-1.165-4.493-1.165-8.827 0-13a102.312 102.312 0 0 1 2 20c-1.89.203-3.39-.463-4.5-2a90.783 90.783 0 0 1-4.5-21l1-7 1 1.5c.424 5.746 1.424 11.246 3 16.5z"/><path style="opacity:1" fill="#f1de2e" d="M170.5 335.5c1.775 3.886 2.608 8.22 2.5 13l1-2c2.908 1.525 6.074 2.525 9.5 3 5.972.83 11.972 1.33 18 1.5 1.124.839 1.791 2.006 2 3.5a240.528 240.528 0 0 0-1.5 16 214.054 214.054 0 0 1-6 13c-1.491 1.504-3.324 2.337-5.5 2.5-1.38 3.707-3.713 6.707-7 9a10.098 10.098 0 0 1-6 1.5c2.944-1.277 5.277-3.277 7-6 5.254-4.862 9.254-10.529 12-17 .65-.304 1.317-.637 2-1 2.862-6.366 3.695-13.033 2.5-20-9.756-.82-19.59-1.32-29.5-1.5a62.792 62.792 0 0 1-1-15.5z"/><path style="opacity:1" fill="#767b74" d="M160.5 379.5c2.173 2.517 3.173 5.517 3 9h-3v-9z"/><path style="opacity:1" fill="#e9da3c" d="M238.5 369.5v2c-3.063 4.572-6.73 8.739-11 12.5a179.42 179.42 0 0 1 7-.5c4.648-1.1 8.981-2.767 13-5v3a47.129 47.129 0 0 1-7 6c-2.695.063-3.695 1.063-3 3v1c-1.431-.946-2.764-2.112-4-3.5l1-1c-2.438-.682-4.605-.182-6.5 1.5-4.076-5.788-2.743-10.121 4-13 .679-3.749 2.846-5.749 6.5-6z"/><path style="opacity:1" fill="#e5e6e2" d="M167.5 385.5c1.149.291 1.816 1.124 2 2.5a25.716 25.716 0 0 1-1.5 5.5 32.462 32.462 0 0 1-.5-8z"/><path style="opacity:1" fill="#eedc33" d="m75.5 376.5 12 6c-1.478-.262-2.811.071-4 1 2.539 3.045 2.206 5.879-1 8.5 1.58.707 3.08 1.54 4.5 2.5l1-1c3.132 2.888 6.632 5.722 10.5 8.5 1.399.595 2.732.428 4-.5 1.104 1.131.771 1.965-1 2.5a20.506 20.506 0 0 0 7 3.5c1.788.783 2.788 2.116 3 4a76.135 76.135 0 0 1-11-4c-1.142-1.933-2.808-3.433-5-4.5a55.635 55.635 0 0 0-10-3.5 48.215 48.215 0 0 1-10-6v-3c2.235.295 4.235-.039 6-1l3-1.5c-4.08-2.029-7.746-4.529-11-7.5-.343-1.983.323-3.317 2-4z"/><path style="opacity:1" fill="#decf4b" d="M126.5 373.5c9.411 19.783 25.078 27.283 47 22.5a42.493 42.493 0 0 0 11-5.5c-1.723 2.723-4.056 4.723-7 6a359.62 359.62 0 0 1-26.5 3 31.557 31.557 0 0 0-9.5-3c.067-3.266-1.599-4.766-5-4.5a17.842 17.842 0 0 0-5.5-4.5c-.327-2.964-1.493-5.464-3.5-7.5a29.495 29.495 0 0 1-1-6.5z"/><path style="opacity:1" fill="#15110b" d="M74.5 345.5a93.98 93.98 0 0 1 19 12 30.818 30.818 0 0 1 3 4.5c-2.832.326-5.499-.174-8-1.5-.11-.617-.444-1.117-1-1.5a27.355 27.355 0 0 0-11 .5c.153 2.47 1.153 4.47 3 6a96.502 96.502 0 0 0 16 17c-2.452.486-5.118.486-8 0l-12-6c-1.464-2.13-3.464-3.463-6-4 .294 3.254 1.627 5.921 4 8 3.254 2.971 6.92 5.471 11 7.5l-3 1.5c-4.807-.019-9.474-.519-14-1.5a60.364 60.364 0 0 0 8 5.5c3.066 2.39 6.4 4.39 10 6 4.516 3.427 9.516 6.093 15 8a76.135 76.135 0 0 0 11 4c4.283 2.312 8.95 3.645 14 4 5.656 2.341 11.656 3.674 18 4a138.35 138.35 0 0 0 28 .5c6.991-.113 13.658-1.28 20-3.5 17.377-2.704 33.377-8.704 48-18h1a49.781 49.781 0 0 0 11-7.5 98.432 98.432 0 0 0-14-.5c-.695-1.937.305-2.937 3-3 .87 2.099 2.203 2.432 4 1a55.582 55.582 0 0 0 9 1.5c-1.333.667-1.333 1.333 0 2a4.934 4.934 0 0 0 3 .5c-23.009 17.003-48.675 27.669-77 32h-35c-33.081-4.471-62.082-17.804-87-40 3.66-.993 7.326-.993 11 0-1.187-1.71-.854-3.21 1-4.5-2.17-2.599-2.336-5.432-.5-8.5a19.857 19.857 0 0 0 7.5-5c-5.22-7.314-3.22-10.814 6-10.5a14.439 14.439 0 0 1-2.5-5.5c-3.065-.43-4.898-2.096-5.5-5z"/><path style="opacity:1" fill="#c8ba56" d="M85.5 399.5a55.635 55.635 0 0 1 10 3.5c2.192 1.067 3.858 2.567 5 4.5-5.484-1.907-10.484-4.573-15-8z"/><path style="opacity:1" fill="#d9cf66" d="M237.5 391.5v-1a98.432 98.432 0 0 1 14 .5 49.781 49.781 0 0 1-11 7.5c.4-1.877 1.4-3.377 3-4.5-1.444-2.034-3.444-2.868-6-2.5z"/><path style="opacity:1" fill="#c9c177" d="M81.5 389.5c-1.765.961-3.765 1.295-6 1v3a60.364 60.364 0 0 1-8-5.5c4.526.981 9.193 1.481 14 1.5z"/><path style="opacity:1" fill="#cec46d" d="M75.5 376.5c-1.677.683-2.343 2.017-2 4-2.373-2.079-3.706-4.746-4-8 2.536.537 4.536 1.87 6 4z"/><path style="opacity:1" fill="#e3d44c" d="M239.5 398.5c-14.623 9.296-30.623 15.296-48 18 4.946-3.172 10.613-5.006 17-5.5l-1-1a137.108 137.108 0 0 0 16-4c4.795-3.623 10.128-6.123 16-7.5z"/><path style="opacity:1" fill="#c5b250" d="M125.5 415.5c6.329-.124 12.329.876 18 3v1c-6.344-.326-12.344-1.659-18-4z"/><path style="opacity:1" fill="#d3c748" d="M191.5 416.5c-6.342 2.22-13.009 3.387-20 3.5a138.35 138.35 0 0 1-28-.5v-1a385.119 385.119 0 0 0 48-2z"/></svg>