<svg xmlns="http://www.w3.org/2000/svg" viewBox="0 0 609 740" xml:space="preserve"><path fill="#140B14" d="M610 463c0 2.37 0 4.741-.374 7.752-2.515 29.097-9.405 56.378-21.18 82.348-26.36 58.139-67.959 102.98-121.277 137.236-42.18 27.099-88.024 44.291-138.23 48.977-3.998.374-7.96 1.116-11.939 1.687-8.02 0-16.042 0-24.704-.39-18.84-3.309-37.414-4.784-55.169-9.405-68.43-17.81-125.11-54.824-170.705-108.613-33.364-39.36-55.585-84.161-63.033-135.696C2.669 481.92 1.799 476.965 1 472c0-2.042 0-4.083.366-6.788a99.33 99.33 0 0 0 .614-11.104c.012-148.508.01-297.016.018-445.525 0-2.16.115-4.321.627-6.529 150.722-.052 300.994-.068 451.266-.058 51.644.003 103.288.07 154.998.564.083.957.113 1.456.113 1.956.001 151.132-.003 302.263.04 453.395 0 1.696.625 3.393.958 5.089M190.867 345.33c7.816-15.343 17.805-28.85 32.397-38.5 7.908-5.23 15.713-10.616 23.667-15.775 22.802-14.789 27.691-41.458 19.16-61.278-7.956-18.483-7.992-37.138-1.534-55.98 6.97-20.337 8.483-40.17 1.356-61.436-7.853-23.435-7.463-48.058-1.51-72.338 1.497-6.11 2.74-12.345 3.343-18.596.649-6.74-.347-7.42-6.98-7.42-80.141-.002-160.283-.002-240.424 0-6.377 0-6.378.005-6.378 6.578 0 138.624-.066 277.247.092 415.87.019 16.438.817 32.91 2.12 49.298.723 9.086 3.24 18.03 5.192 28.312 1.517-2.019 2.078-2.621 2.477-3.317 6.718-11.742 16.793-19.338 29.004-24.879 11.15-5.058 23.554-8.883 31.429-18.783 8.544-10.74 15.605-22.664 23.259-34.107 6.544-9.784 11.724-20.909 19.882-29.065 8.042-8.04 18.818-13.524 28.847-19.35 11.707-6.799 22.571-14.045 27.97-27.264 1.62-3.968 4.164-7.558 6.63-11.97M597.036 164.5V14.427H343.153c2.488 13.333-.132 25.847-2.586 38.422-2.157 11.053-5.198 22.21-2.453 33.513 2.11 8.69 5.016 17.213 7.994 25.66 3.544 10.053 7.904 20.04 5.798 30.927-1.631 8.431-3.725 16.945-6.994 24.852-6.249 15.111-8.433 30.088-1.736 45.465 7.094 16.287 9.838 33.297 9.975 50.978.103 13.228 6.026 23.654 17.548 30.57 7.417 4.453 14.7 9.178 22.364 13.161 19.195 9.975 33.938 23.763 40.867 44.89 4.74 14.456 14.834 24.17 28.276 30.719 2.246 1.094 4.406 2.372 6.677 3.405 15.586 7.092 27.72 17.838 36.599 32.639 13.232 22.057 29.825 40.76 54.15 51.279 11.816 5.11 19.75 14.344 25.739 25.468 1.576 2.926 3.364 5.738 5.054 8.603 4.084-14.614 6.572-28.931 6.574-43.587.014-98.63.024-197.26.036-296.891m-134.39 226.357c-2.32-1.305-4.585-2.722-6.97-3.896-11.107-5.466-19.692-13.388-25.048-24.734-1.838-3.893-4.542-7.367-6.553-11.189-9.268-17.61-22.492-30.907-40.384-40.084-9.535-4.89-18.244-11.57-26.814-18.111-9.015-6.882-13.92-16.091-14.026-27.91-.156-17.525-2.135-34.818-8.451-51.415-3.892-10.227-4.236-20.844-1.417-31.405 1.965-7.363 4.12-14.709 6.778-21.843 3.969-10.655 4.704-21.453 2.01-32.354-1.665-6.74-4.62-13.156-6.357-19.882-1.895-7.338-4.361-14.886-4.248-22.306.206-13.6 2.221-27.165 3.298-40.76.81-10.23 1.694-20.496-.847-30.651h-59.808c2.193 10.66-.171 20.605-3.161 30.298-7.956 25.79-4.203 50.672 5.43 75.05 3.9 9.865 5.927 19.973 4.174 30.258a154.324 154.324 0 0 1-7.655 28.222c-4.522 12.025-5.404 23.87-1.886 36.133 1.556 5.425 3.05 10.868 4.678 16.271 8.868 29.433-.668 55.627-26.664 72.151-7.282 4.629-15.011 8.578-22.668 12.585-9.83 5.143-17.07 12.54-21.208 22.91-1.108 2.777-2.556 5.417-3.668 8.192-8.468 21.13-21.777 37.58-43.869 45.592-.31.112-.595.296-.9.427-15.093 6.51-26.258 17.481-34.611 31.321-4.364 7.23-8.218 14.824-11.652 22.543-4.892 10.997-11.482 20.45-20.793 28.242-10.926 9.143-23.23 15.357-36.73 19.48-12.946 3.953-21.699 12.54-27.123 24.713-.62 1.39-1.124 3.27-.704 4.618 7.06 22.665 17.537 43.687 30.845 63.833.537-1.37 1.034-2.247 1.228-3.187 4.742-22.912 18.443-38.81 38.327-50.364 9.896-5.75 19.377-12.337 28.511-19.251 15.564-11.782 29.46-25.053 34.338-45.098.427-1.752 1.365-3.387 2.125-5.05 7.695-16.829 18.958-29.874 37.01-36.322 7.477-2.67 14.583-6.419 21.77-9.862 14.838-7.109 24.934-18.398 30.265-34.083 6.54-19.245 18.495-33.685 37.984-40.976 5.894-2.206 9.566-6.372 11.816-12.048 1.995-5.033 4.01-10.057 6.458-16.198 1.282 1.86 2.135 2.871 2.741 4.014 2.647 4.99 5.42 9.927 7.782 15.052 4.612 10.012 12.267 16.154 22.67 19.534a100.337 100.337 0 0 1 16.887 7.255c15.127 8.236 24.163 21.472 29.537 37.491 3.267 9.74 10.275 15.65 19.593 19.207 4.964 1.896 9.954 3.726 14.898 5.675 12.471 4.915 22.618 12.583 29.046 24.645 3.91 7.336 8.371 14.425 11.705 22.012 5.346 12.162 13.846 20.967 25.589 26.862 11.73 5.888 23.48 11.734 35.179 17.683 11.964 6.084 20.381 15.362 24.615 28.182 1.351 4.09 2.251 8.327 3.367 12.495 2.255 8.423 5.103 16.514 12.527 22.4 11.324-18.583 20.025-38.078 26.183-58.697.417-1.396.034-3.365-.666-4.71-7.315-14.054-16.258-26.72-30.266-35.046-5.001-2.973-9.636-6.581-14.711-9.409-19.655-10.947-34.688-26.03-43.964-46.804-3.982-8.919-10.154-16.453-18.541-21.783-5.328-3.385-10.884-6.412-17.002-9.918m-300.348 91.967c-5.786 15.284-16.447 26.527-29.939 35.138-9.531 6.084-19.592 11.332-29.222 17.269-4.638 2.859-9.413 5.89-13.113 9.803-12.855 13.593-22.489 29.26-28.024 47.25-.419 1.362-.417 3.434.342 4.494 19.17 26.767 42.183 49.77 68.61 69.362 3.874 2.872 5.78 2.086 6.956-2.62 2.034-8.133 4.262-16.192 10.408-22.328 5.056-5.048 5.363-10.882 4.407-17.52a77.56 77.56 0 0 1-.51-17.314c.654-7.92 2.26-15.756 3.307-23.648.907-6.834 4.616-11.25 10.455-14.864 4.662-2.885 8.594-7.06 12.525-10.988 3.83-3.826 7.276-8.038 10.83-12.134 1.807-2.084 3.481-4.284 5.794-7.148-2.516-.405-3.49-.542-4.455-.72-8.878-1.645-9.405-2.431-10.815-11.398-.384-2.444-1.864-4.938-3.442-6.935-7.976-10.093-6.927-24.659 2.39-33.822 2.935-2.888 5.761-6.087 7.813-9.623 2.572-4.43 6.106-7.258 10.937-7.814 12.195-1.405 22.626-6.06 31.368-14.815 4.638-4.645 10.518-5.675 17.107-4.761 11.331 1.571 23.093 1.251 34.019 4.174 9.438 2.524 19.328 4.073 28.293 7.814 12.28 5.124 24.418 7.822 37.274 3.665 18.236-5.898 34.911-2.194 50.308 8.087 6.542 4.368 12.825 6.75 20.868 5.535 8.287-1.253 17.037-.063 22.659 6.562 7.27 8.57 14.03 17.839 19.379 27.692 5.21 9.596-3.876 24.263-14.76 25.008-5.885.403-11.865-.687-17.81-.942-2.452-.105-4.922.213-7.385.338l-.646 1.917c2.61 2.091 5.26 4.136 7.822 6.287 3.026 2.54 7.25 4.6 8.72 7.872 4.406 9.805 11.962 16.694 19.45 23.781 7.056 6.68 9.951 14.985 8.673 24.44-.567 4.196-2.428 8.267-4.034 12.261-2.838 7.06-2.64 13.604 2.429 19.64 4.77 5.68 5.57 12.264 4.294 19.305-.238 1.308-.474 2.626-.564 3.95-.586 8.621-.128 9.045 8.277 8.2 1.988-.2 4.096.13 5.967-.41 3.393-.981 7.306-1.66 9.848-3.823 10.268-8.737 20.436-17.648 30.008-27.133 14.808-14.673 27.648-31.009 38.967-48.942-9.9-7.056-14.474-17.375-18.571-28.01-1.315-3.414-2.698-6.802-4.083-10.188-6.074-14.846-17.734-24.241-31.196-31.834-4.64-2.616-9.253-5.35-14.116-7.489-20.949-9.212-36.549-24.018-47.206-44.195-9.354-17.71-22.219-31.375-42.094-37.449-8.08-2.469-13.993-8.284-18.407-15.431-2.71-4.387-5.282-8.877-7.615-13.474-8.506-16.762-21.61-28.432-38.778-35.834-10.737-4.628-20.166-10.99-26.443-21.252-.9-1.474-2.195-2.708-3.613-4.423-2.659 4.06-4.512 7.887-7.286 10.854-2.914 3.116-6.437 5.894-10.165 7.973-15.49 8.637-25.158 22.015-31.608 38.031-3.323 8.25-8.045 15.605-15.196 20.673-10.836 7.68-21.748 15.565-33.573 21.468-21.28 10.624-37.062 25.642-44.936 48.374-.164.472-.36.933-.9 2.064m230.713 229.748c26.037-9.18 50.565-21.301 73.352-36.816l-.348-2.081-318.047 2.935c1.874 2.626 4.015 4.05 6.205 5.396 46.311 28.443 96.17 45.37 150.928 45.843 29.91.258 58.89-5.493 87.91-15.277m-46.635-169.688c-9.677 3.394-19.308 3.696-29.41 1.262-6.623-1.595-13.707-1.38-20.598-1.722-4.304-.215-8.663.395-12.94.01-8.444-.76-16.858-1.885-25.266-2.998-3.888-.515-4.721 1.357-3.245 4.295 1.553 3.094 3.421 6.173 5.747 8.714 13.595 14.849 16.998 31.38 10.988 50.82-3.642 11.776-3.096 24.39.518 36.39 1.327 4.405 1.287 8.22.062 12.573-1.106 3.932-.957 8.217-1.294 11.654 11.57.997 21.812 2.57 32.056 2.582 12.113.013 24.233-1.251 36.333-2.177 1.254-.095 3.378-1.607 3.42-2.537.189-4.165.81-8.76-.622-12.467-4.637-11.99-4.444-22.998 3.86-33.343 1.655-2.063 2.689-4.623 4.326-6.705 4.278-5.438 3.723-11.005 1.061-16.874-8.624-19.018-6.485-30.459 8.257-45.445 1.758-1.786 3.203-3.88 4.793-5.832l-1.018-1.796c-5.413 1.122-10.826 2.245-17.028 3.596m35.922-47.287c-5.691-2.383-10.964-6.262-17.76-4.714-.57.13-2.057-1.292-2.12-2.073-.073-.906.811-2.569 1.538-2.728 1.983-.436 4.106-.354 6.167-.294 3.59.105 8.206 1.84 10.548.221 4.843-3.347 8.005-.58 11.923.848 3.646 1.33 7.44 2.374 11.257 3.044 1.231.216 2.74-1.157 4.123-1.803-.775-1.353-1.302-2.977-2.397-3.98-1.033-.945-2.654-1.699-4.036-1.732-4.77-.113-9.634.48-13.115-3.943-.302-.384-1.408-.566-1.873-.324-5.568 2.893-8.293-1.48-11.995-4.18-3.46-2.523-7.78-5.828-11.508-5.581-6.165.408-12.16 3.393-18.743 5.455l6.917 9.59-16.176.887-.347 2.425c3.3 1.123 6.58 2.303 9.903 3.352 2.922.922 5.902 1.655 8.834 2.547 2.52.767 5.022 1.595 7.502 2.481 2.318.829 4.86 1.38 6.849 2.728 9.84 6.668 16.353 5.355 26.69.154-3.932-4.628-6.59-5.251-12.181-2.38M159.249 657.891l-4.504-.56c2.692-7.658 5.807-14.107 11.39-19.181 3.83-3.482 4.009-7.99.685-10.806-1.636 1.227-3.935 2.105-4.799 3.74-4.792 9.075-9.505 18.214-13.65 27.593-1.445 3.269-1.193 7.288-1.716 10.964 3.597.127 7.2.41 10.787.266.871-.035 2.444-1.523 2.402-2.27-.239-4.174 2.663-5.39 5.659-6.543 3.563-1.37 7.178-2.603 10.77-3.895l-.14-2.257c-2.464-.263-5.045-1.112-7.36-.643-3.026.613-5.84 2.267-9.524 3.592m8.765-54.478c.728-8.814-.03-18.398 11.346-21.66.579-.166 1.042-.807 1.51-1.276 3.42-3.43 7.131-4.31 11.744-2.164 1.495.697 3.694-.119 5.57-.243-.908-2.074-1.62-4.27-2.792-6.183-.81-1.321-2.643-2.05-3.349-3.394-2.64-5.027-4.03-5.04-7.936-.882-4.017 4.278-8.042 9-13.033 11.805-7.302 4.103-9.068 9.997-8.746 17.4.086 1.984.529 3.96.528 5.94-.001 3.255 1.505 4.848 4.932 5.074.095-1.288.18-2.416.226-4.417m197.533-.625 2.087 4.761c1.28-1.103 2.634-2.133 3.825-3.326 1.635-1.638 3.406-3.237 4.62-5.166.773-1.229.643-3.026.918-4.568-1.303-.202-2.61-.384-3.908-.613-1.411-.249-2.915-.305-4.202-.858-4.057-1.742-5.33-4.68-4.587-9.205.755-4.597 1.747-9.804.311-13.936-1.549-4.455-1.862-6.799 2.428-9.327 2.83-1.669 4.278-4.412 1.274-7.836-2.253 2.83-3.852 5.574-6.123 7.542-4.947 4.287-6.392 10.029-4.135 15.936 1.19 3.112 1.23 6.648 1.985 9.947.598 2.613.728 6.02 2.434 7.537 2.786 2.479 3.566 4.955 3.073 9.112m63.166 25.393c-2.8 1.298-5.64 2.519-8.387 3.92-1.732.885-3.326 2.038-4.982 3.07l.947 2.1c3.08-.719 6.62-.71 9.141-2.308 5.001-3.17 9.531-4.797 14.749-.76 2.139 1.655 4.51 3.025 6.85 4.4 2.194 1.288 4.485 2.412 6.733 3.608-1.023-2.192-1.572-4.84-3.158-6.49-5.029-5.234-6.64-10.844-3.612-17.649.999-2.243 1.55-4.686 2.305-7.037l-1.726-.762c-1.216 2.159-2.722 4.208-3.589 6.499-1.927 5.094-4.405 9.168-10.735 9.122-1.331-.01-2.67 1.13-4.536 2.287m-45.324 10.688 6.954-3.526c-2.79-1.39-4.346-2.164-5.9-2.942-5.34-2.673-5.737-4.178-3.549-9.579.866-2.137.764-4.666 1.102-7.017l-1.627-.359c-2.902 2.056-4.734 4.783-4.287 8.632.65 5.6-.964 9.74-6.074 12.875-3.31 2.03-5.892 5.305-8.613 8.198-.613.65-.925 2.319-.514 3 .438.727 2.092 1.397 2.873 1.122 3.053-1.077 6.08-2.34 8.909-3.907 3.44-1.904 6.673-4.184 10.726-6.497m-210.051-.7c2.893 2.312 5.49 1.802 8.568-.104 3.339-2.067 7.084-4.397 10.815-4.718 7.41-.64 10.41-6.455 14.623-10.806.944-.975.139-3.642.139-5.53-5.625 3.645-9.576 7.55-13.818 11.108-.835.701-2.797-.019-4.23.066-1.872.111-3.95-.086-5.557.665-3.15 1.473-6.136 3.37-8.98 5.387-1.043.74-1.49 2.322-1.56 3.932m173.995-7.981c.65 2.341 1.25 4.698 1.969 7.018.409 1.321 1.01 2.583 1.524 3.872.719-1.292 1.756-2.51 2.076-3.894.404-1.747-.137-3.741.388-5.423.601-1.927 1.59-4.824 2.994-5.22 6.024-1.692 6.315-5.243 4.804-10.333-1.085-3.656-3.087-4.927-5.31-1.955-3.46 4.627-5.842 10.06-8.445 15.935M242.498 462.942l-.347-7.891c-2.64 1.403-5.587 2.722-8.26 4.46-2.514 1.636-4.67 3.815-7.121 5.56-1.505 1.072-3.27 1.778-4.92 2.648l.284 2.058 20.859.977c0-3.406 0-5.32-.495-7.812m33.359 18.894c-9.012-3.697-9.012-3.697-11.912-1.295 9.812 6.7 30.145 13.835 40.417 6.15-3.055-.626-5.349-1.18-7.671-1.556-6.674-1.08-13.36-2.09-20.834-3.299m-20.933 94.721c.022 4.199.06 8.397.057 12.595 0 1.937-.35 3.93.036 5.776.12.57 2.144.742 3.296 1.096 1.44-4.764 4.547-9.762 3.917-14.234-.894-6.337-4.512-12.3-7.04-18.392-.565-1.358-1.438-2.588-2.17-3.877l-.788.423c.849 5.25 1.697 10.498 2.692 16.613m63.131-98.674c8.446 3.412 16.231-.065 25.343-2.144-1.883-.864-2.747-1.64-3.513-1.553-7.678.873-14.758-1.184-21.803-3.904-2.429-.938-5.184-1.23-7.814-1.37-1.49-.08-3.03.746-4.975 1.282 4.625 2.736 8.386 4.96 12.762 7.689m-3.01 29.07c-2.991-.105-6.02-.54-8.96-.199-1.978.23-3.83 1.558-5.737 2.394 1.88.973 3.732 2.013 5.661 2.878.54.242 1.336.077 1.971-.08 7.1-1.75 13.715-.525 20.327 2.495 5.372 2.454 9.158 1.95 13.494-.519-5.877-1.707-11.664-3.441-17.483-5.056-2.777-.77-5.617-1.314-9.273-1.914m-105.55-29.661c-.74-5.639 5.187-1.654 6.556-4.528-1.617-3.716-4.192-3.022-6.851-1.468-3.28 1.916-6.456 4.013-9.742 5.92-4.985 2.891-5.37 4.729-1.72 10.09 2.358-.998 4.695-2.504 7.216-2.936 3.845-.659 4.999-2.725 4.541-7.078m42.923 130.992-1.249-2.725-1.83.2c0 2.46-.338 4.978.084 7.363.533 3.01 1.622 5.74-2.16 7.617-.807.4-1.194 2.728-.883 3.939.233.904 2.036 2.176 2.904 2.014 4.186-.779 4.803 2.058 6.118 4.87.686 1.468 2.863 2.24 4.366 3.326-.307-1.7-.293-3.544-.975-5.077-2.974-6.678-8.488-12.549-6.375-21.527m143.72-1.53c1.921.13 4.757-.484 5.587.536 2.195 2.695 4.359 3.347 7.34 1.98 3.462-1.59 4.653-4.31 4.226-7.08-5.143-.823-9.708-1.907-14.314-2.125-1.954-.093-4.506 1.155-5.882 2.635-2.374 2.553-1.916 4.618 3.043 4.054M265.883 455.996c-2.532.63-2.983 1.705-.952 3.63 5.53 5.243 12.297 4.46 20.464 4.634-1.533-2.397-2.149-4.618-3.305-4.95-5.027-1.439-10.212-2.328-16.207-3.314m141.563 47.054c2.403 1.025 4.725 2.547 7.228 2.951 3.293.533 6.737.316 10.093.092.558-.037 1.496-1.84 1.351-2.67-.126-.725-1.78-1.921-2.327-1.722-4.836 1.76-8.879-.033-13.154-2.028-1.373-.64-5.517-1.668-3.19 3.377m-207.243 41.547c-1.773 1.83-3.745 3.52-5.2 5.577-.449.633.213 2.547.948 3.326.4.425 2.447.072 3.015-.575 2.18-2.492 4.065-5.244 6.862-8.967-2.771.164-3.864.228-5.625.64m71.526-15.896c-.797-.178-1.626-.591-2.385-.489a54.816 54.816 0 0 0-6.963 1.379c-.2.054-.09 2.486.087 2.514 2.548.41 5.157.922 7.701.735 1.884-.139 4.15-.984 1.56-4.139z"/><path fill="#FEFEFE" d="M317.469 741c3.51-.57 7.472-1.313 11.47-1.687 50.206-4.686 96.05-21.878 138.23-48.977 53.318-34.256 94.917-79.097 121.277-137.236 11.775-25.97 18.665-53.25 21.18-81.904C610 560.93 610 650.86 610 741H317.469zM1 472.469c.8 4.496 1.67 9.45 2.389 14.427 7.448 51.535 29.669 96.335 63.033 135.696 45.596 53.789 102.274 90.802 170.705 108.613 17.755 4.62 36.33 6.096 54.7 9.406C195.076 741 98.152 741 1 741V472.469z"/><path fill="#6C626D" d="M608.823 2.103C557.179 2.066 505.535 2 453.89 1.996c-150.272-.01-300.544.006-451.56.038C1.391 2.041 1.195 2.02 1 2c.167-.333.316-.944.503-.956C2.83.961 4.167 1 5.5 1c201.5 0 403 0 604.206.53-.49.545-.687.56-.883.573z"/><path fill="#5C525D" d="M1 2.469c.195-.449.39-.428.88-.388.233 2.18.118 4.342.118 6.502C1.99 157.092 1.992 305.6 1.98 454.108c0 3.48-.162 6.96-.614 10.666C1 310.979 1 156.958 1 2.469z"/><path fill="#5A555C" d="M608.89 2.56c.13-.47.326-.485.816-.53.294 153.324.294 306.678.294 460.501-.333-1.227-.957-2.924-.958-4.62-.043-151.132-.039-302.263-.04-453.395 0-.5-.03-1-.113-1.956z"/><path fill="#007642" d="M190.693 345.655c-2.293 4.087-4.837 7.677-6.457 11.645-5.399 13.22-16.263 20.465-27.97 27.265-10.03 5.825-20.805 11.31-28.847 19.35-8.158 8.155-13.338 19.28-19.882 29.064-7.654 11.443-14.715 23.367-23.26 34.107-7.874 9.9-20.279 13.725-31.428 18.783-12.21 5.54-22.286 13.137-29.004 24.879-.399.696-.96 1.298-2.477 3.317-1.951-10.282-4.47-19.226-5.192-28.312-1.303-16.387-2.101-32.86-2.12-49.297-.158-138.624-.091-277.247-.092-415.87 0-6.574.001-6.58 6.378-6.58h240.425c6.632 0 7.628.68 6.979 7.421-.603 6.25-1.846 12.486-3.344 18.596-5.952 24.28-6.342 48.903 1.51 72.338 7.128 21.267 5.615 41.099-1.355 61.435-6.458 18.843-6.422 37.498 1.534 55.981 8.531 19.82 3.642 46.49-19.16 61.278-7.954 5.159-15.76 10.545-23.667 15.775-14.592 9.65-24.581 23.157-32.57 38.825zM597.035 165c-.012 99.13-.022 197.76-.036 296.391-.002 14.656-2.49 28.973-6.574 43.587-1.69-2.865-3.478-5.677-5.054-8.603-5.99-11.124-13.923-20.359-25.74-25.468-24.324-10.518-40.917-29.222-54.15-51.28-8.878-14.8-21.012-25.546-36.598-32.638-2.271-1.033-4.43-2.31-6.677-3.405-13.442-6.549-23.535-16.263-28.276-30.72-6.929-21.126-21.672-34.914-40.867-44.889-7.665-3.983-14.947-8.708-22.364-13.16-11.522-6.917-17.445-17.343-17.548-30.57-.137-17.682-2.88-34.692-9.975-50.98-6.697-15.376-4.513-30.353 1.736-45.464 3.269-7.907 5.363-16.42 6.994-24.852 2.106-10.887-2.254-20.874-5.798-30.926-2.978-8.448-5.885-16.97-7.994-25.661-2.745-11.304.296-22.46 2.453-33.513 2.454-12.575 5.074-25.089 2.586-38.422h253.882V165z"/><path fill="#FEFEFE" d="M462.976 391.017c5.786 3.346 11.342 6.373 16.67 9.758 8.387 5.33 14.559 12.864 18.541 21.783 9.276 20.774 24.31 35.857 43.964 46.804 5.075 2.828 9.71 6.436 14.711 9.409 14.008 8.327 22.95 20.992 30.266 35.046.7 1.345 1.083 3.314.666 4.71-6.158 20.62-14.859 40.114-26.183 58.697-7.424-5.886-10.272-13.977-12.527-22.4-1.116-4.168-2.016-8.406-3.367-12.495-4.234-12.82-12.651-22.098-24.615-28.182-11.699-5.949-23.45-11.795-35.18-17.683-11.742-5.895-20.242-14.7-25.588-26.862-3.334-7.587-7.795-14.676-11.705-22.012-6.428-12.062-16.575-19.73-29.046-24.645-4.944-1.949-9.934-3.779-14.898-5.675-9.318-3.557-16.326-9.468-19.593-19.207-5.374-16.02-14.41-29.255-29.537-37.491a100.337 100.337 0 0 0-16.887-7.255c-10.403-3.38-18.058-9.522-22.67-19.534-2.361-5.125-5.135-10.062-7.782-15.052-.606-1.143-1.459-2.155-2.74-4.014-2.45 6.14-4.464 11.165-6.459 16.198-2.25 5.676-5.922 9.842-11.816 12.048-19.489 7.29-31.443 21.731-37.984 40.976-5.33 15.685-15.427 26.974-30.266 34.083-7.186 3.443-14.292 7.191-21.77 9.862-18.051 6.448-29.314 19.493-37.01 36.323-.76 1.662-1.697 3.297-2.124 5.05-4.878 20.044-18.774 33.315-34.338 45.097-9.134 6.914-18.615 13.5-28.511 19.251-19.884 11.554-33.585 27.452-38.327 50.364-.194.94-.69 1.818-1.228 3.187-13.308-20.146-23.785-41.168-30.845-63.833-.42-1.349.084-3.229.704-4.618 5.424-12.173 14.177-20.76 27.124-24.714 13.499-4.122 25.803-10.336 36.729-19.479 9.311-7.791 15.901-17.245 20.793-28.242 3.434-7.719 7.288-15.313 11.652-22.543 8.353-13.84 19.518-24.811 34.611-31.32.305-.132.59-.316.9-.428 22.092-8.013 35.4-24.462 43.87-45.592 1.111-2.775 2.56-5.415 3.667-8.192 4.137-10.37 11.377-17.767 21.208-22.91 7.657-4.007 15.386-7.956 22.668-12.585 25.996-16.524 35.532-42.718 26.664-72.151-1.628-5.403-3.122-10.846-4.678-16.271-3.518-12.263-2.636-24.108 1.886-36.133a154.324 154.324 0 0 0 7.655-28.222c1.753-10.285-.274-20.393-4.174-30.259-9.633-24.377-13.386-49.258-5.43-75.049 2.99-9.693 5.354-19.637 3.161-30.298h59.808c2.54 10.155 1.657 20.422.847 30.651-1.077 13.595-3.092 27.16-3.298 40.76-.113 7.42 2.353 14.968 4.248 22.306 1.737 6.726 4.692 13.143 6.357 19.882 2.694 10.901 1.959 21.699-2.01 32.354-2.657 7.134-4.813 14.48-6.778 21.843-2.819 10.56-2.475 21.178 1.417 31.405 6.316 16.597 8.295 33.89 8.45 51.415.106 11.819 5.012 21.028 14.027 27.91 8.57 6.542 17.28 13.22 26.814 18.11 17.892 9.178 31.116 22.475 40.384 40.085 2.01 3.822 4.715 7.296 6.553 11.189 5.356 11.346 13.941 19.268 25.049 24.734 2.384 1.174 4.649 2.591 7.3 4.056z"/><path fill="#FDCB01" d="M162.475 482.492c.36-.799.556-1.26.72-1.732 7.874-22.732 23.657-37.75 44.936-48.374 11.825-5.903 22.737-13.788 33.573-21.468 7.15-5.068 11.873-12.423 15.196-20.673 6.45-16.016 16.119-29.394 31.608-38.031 3.728-2.08 7.251-4.857 10.165-7.973 2.774-2.967 4.627-6.794 7.286-10.854 1.418 1.715 2.712 2.95 3.613 4.423 6.277 10.263 15.706 16.624 26.443 21.252 17.167 7.402 30.272 19.072 38.778 35.834 2.333 4.597 4.906 9.087 7.615 13.474 4.414 7.147 10.328 12.962 18.407 15.431 19.875 6.074 32.74 19.74 42.094 37.449 10.657 20.177 26.257 34.983 47.206 44.195 4.863 2.139 9.476 4.873 14.116 7.49 13.462 7.592 25.122 16.987 31.196 31.833 1.385 3.386 2.768 6.774 4.083 10.188 4.097 10.635 8.671 20.954 18.57 28.01-11.318 17.933-24.158 34.269-38.966 48.942-9.572 9.485-19.74 18.396-30.008 27.133-2.542 2.162-6.455 2.842-9.848 3.822-1.871.541-3.98.21-5.967.41-8.405.846-8.863.422-8.277-8.2.09-1.323.326-2.64.564-3.949 1.276-7.041.477-13.626-4.294-19.306-5.069-6.035-5.267-12.579-2.429-19.639 1.606-3.994 3.467-8.065 4.034-12.261 1.278-9.455-1.617-17.76-8.674-24.44-7.487-7.087-15.043-13.976-19.448-23.78-1.47-3.273-5.695-5.332-8.721-7.873-2.561-2.15-5.211-4.196-7.822-6.287l.646-1.917c2.463-.125 4.933-.443 7.386-.338 5.944.255 11.924 1.345 17.81.942 10.883-.745 19.969-15.412 14.759-25.008-5.35-9.853-12.11-19.123-19.38-27.692-5.62-6.625-14.37-7.815-22.658-6.562-8.043 1.216-14.326-1.167-20.868-5.535-15.397-10.281-32.072-13.985-50.308-8.087-12.856 4.157-24.995 1.46-37.274-3.665-8.965-3.741-18.855-5.29-28.293-7.814-10.926-2.923-22.688-2.603-34.02-4.174-6.588-.914-12.468.116-17.106 4.761-8.742 8.755-19.173 13.41-31.368 14.815-4.831.556-8.365 3.383-10.937 7.814-2.052 3.536-4.878 6.735-7.814 9.623-9.316 9.163-10.365 23.73-2.389 33.822 1.578 1.997 3.058 4.491 3.442 6.935 1.41 8.967 1.937 9.753 10.815 11.397.965.18 1.939.316 4.455.721-2.313 2.864-3.987 5.064-5.794 7.148-3.554 4.096-7 8.308-10.83 12.134-3.93 3.928-7.863 8.103-12.525 10.988-5.839 3.614-9.548 8.03-10.455 14.864-1.048 7.892-2.653 15.729-3.307 23.648a77.56 77.56 0 0 0 .51 17.314c.956 6.638.65 12.472-4.407 17.52-6.146 6.136-8.374 14.195-10.408 22.328-1.177 4.706-3.082 5.492-6.956 2.62-26.427-19.591-49.44-42.595-68.61-69.362-.759-1.06-.76-3.132-.342-4.495 5.535-17.99 15.169-33.656 28.024-47.249 3.7-3.912 8.475-6.944 13.113-9.803 9.63-5.937 19.691-11.185 29.222-17.269 13.492-8.611 24.153-19.854 30.118-35.47z"/><path fill="#FCCA01" d="M392.642 712.722c-28.654 9.634-57.634 15.385-87.544 15.127-54.758-.473-104.617-17.4-150.928-45.843-2.19-1.346-4.331-2.77-6.205-5.396l318.047-2.935.348 2.08c-22.787 15.516-47.315 27.637-73.718 36.967z"/><path fill="#FDCB01" d="M346.767 542.77c5.808-1.237 11.22-2.36 16.634-3.482l1.018 1.796c-1.59 1.952-3.035 4.046-4.793 5.832-14.742 14.986-16.881 26.427-8.257 45.445 2.662 5.87 3.217 11.436-1.06 16.874-1.638 2.082-2.672 4.642-4.328 6.705-8.303 10.345-8.496 21.353-3.86 33.343 1.434 3.707.812 8.302.623 12.467-.042.93-2.166 2.442-3.42 2.537-12.1.926-24.22 2.19-36.333 2.177-10.244-.012-20.486-1.585-32.056-2.582.337-3.437.188-7.722 1.294-11.654 1.225-4.353 1.265-8.168-.062-12.573-3.614-12-4.16-24.614-.518-36.39 6.01-19.44 2.607-35.971-10.988-50.82-2.326-2.54-4.194-5.62-5.747-8.714-1.476-2.938-.643-4.81 3.245-4.295 8.408 1.113 16.822 2.238 25.265 2.998 4.278.385 8.637-.225 12.941-.01 6.89.343 13.975.127 20.598 1.722 10.102 2.434 19.733 2.132 29.804-1.376z"/><path fill="#F8F7F8" d="M382.664 495.446c5.221-2.72 7.88-2.097 11.812 2.53-10.337 5.202-16.85 6.515-26.69-.153-1.988-1.347-4.53-1.9-6.85-2.728a165.424 165.424 0 0 0-7.501-2.48c-2.932-.893-5.912-1.626-8.834-2.548-3.323-1.049-6.604-2.23-9.903-3.352l.347-2.425 16.176-.888-6.917-9.59c6.583-2.06 12.578-5.046 18.743-5.454 3.729-.247 8.048 3.058 11.508 5.58 3.702 2.7 6.427 7.074 11.995 4.18.465-.24 1.571-.059 1.873.325 3.481 4.423 8.345 3.83 13.115 3.943 1.382.033 3.003.787 4.036 1.732 1.095 1.003 1.622 2.627 2.397 3.98-1.382.646-2.892 2.019-4.123 1.803-3.817-.67-7.61-1.715-11.257-3.044-3.918-1.427-7.08-4.195-11.923-.848-2.342 1.618-6.958-.116-10.548-.22-2.061-.06-4.184-.143-6.167.293-.727.16-1.61 1.822-1.538 2.728.063.78 1.55 2.202 2.12 2.073 6.796-1.548 12.069 2.33 18.13 4.563z"/><path fill="#F5F4F4" d="M159.638 657.832c3.294-1.266 6.11-2.92 9.135-3.533 2.315-.469 4.896.38 7.36.643l.14 2.257c-3.592 1.292-7.207 2.525-10.77 3.895-2.996 1.152-5.898 2.37-5.66 6.543.043.747-1.53 2.235-2.401 2.27-3.586.145-7.19-.14-10.787-.266.523-3.676.27-7.695 1.715-10.964 4.146-9.38 8.86-18.518 13.651-27.592.864-1.636 3.163-2.514 4.798-3.743 3.325 2.819 3.146 7.326-.685 10.808-5.582 5.074-8.697 11.523-11.389 19.182 1.787.222 3.145.39 4.893.5z"/><path fill="#F6F5F6" d="M168.033 603.85c-.066 1.564-.15 2.692-.245 3.98-3.427-.226-4.933-1.819-4.932-5.074 0-1.98-.442-3.956-.528-5.94-.322-7.403 1.444-13.297 8.746-17.4 4.99-2.804 9.016-7.527 13.033-11.805 3.906-4.159 5.296-4.145 7.936.882.706 1.345 2.539 2.073 3.349 3.394 1.172 1.913 1.884 4.109 2.793 6.183-1.877.124-4.076.94-5.571.243-4.613-2.146-8.325-1.267-11.745 2.164-.467.469-.93 1.11-1.509 1.276-11.376 3.262-10.618 12.846-11.327 22.097z"/><path fill="#F2F1F2" d="M365.541 602.374c.499-3.743-.28-6.22-3.067-8.698-1.706-1.517-1.836-4.924-2.434-7.537-.755-3.3-.795-6.835-1.985-9.947-2.257-5.907-.812-11.65 4.135-15.936 2.271-1.968 3.87-4.712 6.123-7.542 3.004 3.424 1.557 6.167-1.274 7.836-4.29 2.528-3.977 4.872-2.428 9.327 1.436 4.132.444 9.34-.311 13.936-.743 4.525.53 7.463 4.587 9.205 1.287.553 2.791.61 4.202.858 1.298.229 2.605.41 3.908.613-.275 1.542-.145 3.34-.918 4.568-1.214 1.93-2.985 3.528-4.62 5.166-1.191 1.193-2.544 2.223-3.825 3.326-.696-1.587-1.392-3.174-2.093-5.175z"/><path fill="#F1F0F2" d="M428.978 627.907c1.6-.884 2.94-2.023 4.27-2.013 6.33.046 8.81-4.028 10.736-9.122.867-2.291 2.373-4.34 3.589-6.5l1.726.763c-.755 2.351-1.306 4.794-2.305 7.037-3.029 6.805-1.417 12.415 3.612 17.649 1.586 1.65 2.135 4.298 3.158 6.49-2.248-1.196-4.539-2.32-6.732-3.608-2.34-1.375-4.712-2.745-6.851-4.4-5.218-4.037-9.748-2.41-14.749.76-2.521 1.598-6.062 1.59-9.141 2.308l-.947-2.1c1.656-1.032 3.25-2.185 4.982-3.07 2.747-1.401 5.586-2.622 8.652-4.194z"/><path fill="#F4F2F3" d="M383.024 638.967c-3.688 2.215-6.92 4.495-10.361 6.4-2.83 1.566-5.856 2.829-8.909 3.906-.78.275-2.435-.395-2.873-1.122-.41-.681-.1-2.35.514-3 2.721-2.893 5.303-6.167 8.613-8.198 5.11-3.135 6.723-7.275 6.074-12.875-.447-3.849 1.385-6.576 4.287-8.632l1.627.36c-.338 2.35-.236 4.88-1.102 7.016-2.188 5.4-1.791 6.906 3.55 9.58 1.553.777 3.109 1.55 5.9 2.941-3.073 1.558-5.014 2.542-7.32 3.624z"/><path fill="#F2F1F2" d="M173.013 637.963c.395-1.404.842-2.985 1.885-3.726 2.844-2.018 5.83-3.914 8.98-5.387 1.608-.75 3.685-.554 5.557-.665 1.433-.085 3.395.635 4.23-.066 4.242-3.558 8.193-7.463 13.818-11.108 0 1.888.805 4.555-.139 5.53-4.212 4.35-7.214 10.167-14.623 10.806-3.731.321-7.476 2.65-10.815 4.718-3.078 1.906-5.675 2.416-8.893-.102z"/><path fill="#F4F4F4" d="M347.215 629.796c2.721-5.483 5.104-10.916 8.563-15.543 2.223-2.972 4.225-1.701 5.31 1.955 1.51 5.09 1.22 8.64-4.804 10.334-1.405.395-2.393 3.292-2.994 5.219-.525 1.682.016 3.676-.388 5.423-.32 1.384-1.357 2.602-2.076 3.894-.515-1.289-1.115-2.55-1.524-3.872-.718-2.32-1.319-4.677-2.087-7.41z"/><path fill="#F4F3F5" d="M242.746 463.23c.247 2.203.247 4.118.247 7.524l-20.859-.977-.283-2.058c1.648-.87 3.414-1.576 4.919-2.648 2.451-1.745 4.607-3.924 7.121-5.56 2.673-1.738 5.62-3.057 8.26-4.46.15 3.423.25 5.657.595 8.18z"/><path fill="#EEEDEE" d="M276.254 481.922c7.077 1.123 13.763 2.132 20.437 3.213 2.322.376 4.616.93 7.671 1.555-10.272 7.686-30.605.552-40.417-6.15 2.9-2.401 2.9-2.401 12.309 1.382z"/><path fill="#F0EEF0" d="M254.851 576.124c-.922-5.682-1.77-10.93-2.619-16.18l.789-.423c.73 1.29 1.604 2.519 2.168 3.877 2.529 6.092 6.147 12.055 7.04 18.392.631 4.472-2.477 9.47-3.916 14.234-1.152-.354-3.177-.526-3.296-1.096-.386-1.847-.037-3.84-.036-5.776.003-4.198-.035-8.396-.13-13.028z"/><path fill="#F0EFF0" d="M317.747 477.631c-4.068-2.476-7.829-4.701-12.454-7.437 1.945-.536 3.484-1.362 4.975-1.282 2.63.14 5.385.432 7.814 1.37 7.045 2.72 14.125 4.777 21.803 3.904.766-.087 1.63.69 3.513 1.553-9.112 2.08-16.897 5.556-25.65 1.892z"/><path fill="#F0EFF1" d="M315.467 506.93c3.234.622 6.074 1.166 8.85 1.936 5.82 1.615 11.607 3.349 17.484 5.056-4.336 2.47-8.122 2.973-13.494.52-6.612-3.02-13.227-4.246-20.327-2.495-.635.156-1.43.321-1.97.079-1.93-.865-3.781-1.905-5.662-2.878 1.908-.836 3.759-2.164 5.737-2.394 2.94-.341 5.969.094 9.382.175z"/><path fill="#F2F0F2" d="M209.543 477.72c.41 3.924-.744 5.99-4.59 6.65-2.52.431-4.857 1.937-7.214 2.936-3.652-5.362-3.266-7.2 1.72-10.092 3.285-1.906 6.46-4.003 9.74-5.92 2.66-1.553 5.235-2.247 6.852 1.469-1.369 2.874-7.297-1.111-6.508 4.957z"/><path fill="#ECEBED" d="M252.445 608.653c-2.14 8.608 3.374 14.479 6.348 21.157.682 1.533.668 3.376.975 5.077-1.503-1.086-3.68-1.858-4.366-3.326-1.315-2.812-1.932-5.649-6.118-4.87-.868.162-2.671-1.11-2.904-2.014-.31-1.211.076-3.539.882-3.939 3.783-1.878 2.694-4.608 2.161-7.617-.422-2.385-.085-4.904-.085-7.363l1.831-.2c.417.908.833 1.817 1.276 3.095z"/><path fill="#F3F2F2" d="M395.734 606.855c-4.555.462-5.013-1.603-2.639-4.156 1.376-1.48 3.928-2.728 5.882-2.635 4.606.218 9.17 1.302 14.314 2.125.427 2.77-.764 5.49-4.226 7.08-2.981 1.367-5.145.715-7.34-1.98-.83-1.02-3.666-.406-5.99-.434z"/><path fill="#F4F3F3" d="M266.317 455.945c5.56 1.037 10.746 1.926 15.773 3.366 1.156.33 1.772 2.552 3.305 4.949-8.167-.175-14.934.61-20.464-4.634-2.03-1.925-1.58-3 1.386-3.681z"/><path fill="#EFEDEF" d="M407.093 502.885c-1.973-4.88 2.17-3.853 3.544-3.212 4.275 1.995 8.318 3.788 13.154 2.028.547-.2 2.2.997 2.327 1.722.145.83-.793 2.633-1.35 2.67-3.357.224-6.801.441-10.094-.092-2.503-.404-4.825-1.926-7.581-3.116z"/><path fill="#EEEDEF" d="M200.538 544.424c1.427-.238 2.52-.302 5.291-.466-2.797 3.723-4.681 6.475-6.862 8.967-.568.647-2.615 1-3.015.575-.735-.779-1.397-2.693-.949-3.326 1.456-2.056 3.428-3.746 5.535-5.75z"/><path fill="#EDECED" d="M272.13 528.855c2.19 3.002-.076 3.847-1.96 3.986-2.544.187-5.153-.324-7.701-.735-.176-.028-.286-2.46-.087-2.514a54.816 54.816 0 0 1 6.963-1.379c.76-.102 1.588.311 2.785.642z"/></svg>