<svg xmlns="http://www.w3.org/2000/svg" viewBox="0 0 105.833 119.063" height="450" width="400"><path d="M-126.458 22.116v65.13a52.135 52.104 0 0 0 104.27 0v-65.39z" style="fill:#feee01;fill-opacity:1;stroke:#000;stroke-width:1.56358361" transform="translate(127.24 -21.07)"/><path style="fill:#00a850;fill-opacity:1;stroke:none;stroke-width:.30506313;stroke-opacity:1" d="M128.766 133.946c.656-1.97.921-4.133.614-6.188-1.047-1.24-2.316-2.367-3.151-3.815-.98-1.548-2.441-2.757-3.262-4.403-.677-1.713 1.603-2.241 2.21-2.825-1.384-2.452-3.828-4.1-5.16-6.573-.498-1.453-1.019-4.287 1.145-4.554 1.261-.59 2.863.804 3.793.241-1.055-2.662-3.351-4.698-4.211-7.45-.456-1.765.504-3.546 2.128-4.3 1.16-.422 2.254.33 3.313.72-.174-1.48-.662-3.19.51-4.407 1.288-1.25 2.459-3.178 4.444-3.195 2.267-.623 2.56 2.324 4.423 2.764 1.636.788 1.95 2.865.976 4.303-.91 2.582 3.042-.86 3.958.99 1.631 1.658.642 4.241-.454 5.912-.562 1.118-3.38 2.742-1.885 3.81 1.626.116 4.312-1.08 4.93 1.123.415 3.004-1.564 5.803-3.82 7.586-1.002.559-3.56 2.32-2.225 3.252.127.06 3.68-1.127 2.735 1.778-1.276 3.355-4.344 5.489-6.298 8.402-1.636 1.25-1.068 3.345-.866 5.073-.972.94-2.632 2.107-3.916 2.14-.061.039.07-.52.069-.384z" transform="matrix(1.01498 0 0 1.01498 -53.083 -81.902)"/><path style="fill:#000;stroke:none;stroke-width:.30506313;stroke-opacity:1" d="M128.766 133.946c.656-1.97.921-4.133.614-6.188-1.047-1.24-2.316-2.367-3.151-3.815-.98-1.548-2.441-2.757-3.262-4.403-.677-1.713 1.603-2.241 2.21-2.825-1.384-2.452-3.828-4.1-5.16-6.573-.498-1.453-1.019-4.287 1.145-4.554 1.261-.59 2.863.804 3.793.241-1.055-2.662-3.351-4.698-4.211-7.45-.456-1.765.504-3.546 2.128-4.3 1.16-.422 2.254.33 3.313.72-.174-1.48-.662-3.19.51-4.407 1.288-1.25 2.459-3.178 4.444-3.195 2.267-.623 2.56 2.324 4.423 2.764 1.636.788 1.95 2.865.976 4.303-.91 2.582 3.042-.86 3.958.99 1.631 1.658.642 4.241-.454 5.912-.562 1.118-3.38 2.742-1.885 3.81 1.626.116 4.312-1.08 4.93 1.123.415 3.004-1.564 5.803-3.82 7.586-1.002.559-3.56 2.32-2.225 3.252.127.06 3.68-1.127 2.735 1.778-1.276 3.355-4.344 5.489-6.298 8.402-1.636 1.25-1.068 3.345-.866 5.073-.972.94-2.632 2.107-3.916 2.14-.061.039.07-.52.069-.384zm3.036-2.505c-.383-3.397.002-6.852-.615-10.231-.614 3.62-.965 7.272-1.272 10.928-.148.768-.226 1.437.645.763.59-.3 1.599-.592 1.242-1.46zm4.089-8.071c1.424-1.726 4.074-5.138 3.411-5.833-.704-.553-4.435.876-3.037-1.744 1.671-2.569 5.043-3.773 5.894-6.912 1.181-1.78-.107-4.648-2.405-3.306-1.844.975-3.82-.712-2.434-2.516 1.335-1.454 2.793-2.907 3.333-4.916.796-1.504-1.29-3.602-2.654-2.304-1.143.75-3.397.521-2.375-1.281 1.145-1.63.873-3.98-1.354-4.366-1.18-1.162-1.966-3.334-4.034-2.059-1.518.96-3.121 2.269-3.649 4.05-.22 1.174 1.309 3.673-1.119 2.813-.873-.284-1.33-.817-2.374-.476-1.09.563-2.352 2.217-1.597 3.809 1.031 2.8 3.318 4.937 4.397 7.699-.617 2.303-3.039-.394-4.514.17-2.054.908-.902 3.6.113 4.931 1.346 1.746 3.096 3.164 4.167 5.127 1.62 2.071-3.247 1.044-1.663 3.48.926 1.576 2.461 2.707 3.195 4.43.52 1.126 2.656 3.593 2.463.868-.343-2.114-1.707-3.818-2.747-5.615-.201-1.996 1.428.865 1.991 1.302 1.052 1.645 1.76.198 1.562-1.138.282-1.972.237-4.067-1.224-5.597-.47-1.265-1.934-2.454-2.02-3.622 1.419.731 2.363 2.131 3.513 3.22-.075-2.432.234-4.909-.296-7.298-.594-1.937-1.93-3.528-2.707-5.363.196-1.472 1.558 1.213 2.079 1.817.283.254.942 1.72.937 1.048.044-4.197-.132-8.406.215-12.592 0 0 .045-1.077.545 4.622.108 2.242.205 4.486.308 6.729 1.133-.94 2.103-2.18 3.428-2.806-.62 1.483-2 2.566-3.043 3.8-.644.403-.56 1.084-.524 1.747.073 2.205-.086 4.444.306 6.617 1.448-.446 2.782-2.552 4.187-2.221-1.075 1.784-3.346 2.588-4.222 4.51-.07 2.283-.106 4.605.25 6.86 1.446-.717 2.612-2.528 4.105-2.784-1.056 1.716-2.67 2.998-4.034 4.465.08 1.388-.09 2.82.266 4.17 1.292-.521 2.152-2.53 3.36-3.535z" transform="matrix(1.01498 0 0 1.01498 -53.083 -81.902)"/><path style="fill:#00a850;fill-opacity:1;stroke:none;stroke-width:.30506313;stroke-opacity:1" d="M128.766 133.946c.656-1.97.921-4.133.614-6.188-1.047-1.24-2.316-2.367-3.151-3.815-.98-1.548-2.441-2.757-3.262-4.403-.677-1.713 1.603-2.241 2.21-2.825-1.384-2.452-3.828-4.1-5.16-6.573-.498-1.453-1.019-4.287 1.145-4.554 1.261-.59 2.863.804 3.793.241-1.055-2.662-3.351-4.698-4.211-7.45-.456-1.765.504-3.546 2.128-4.3 1.16-.422 2.254.33 3.313.72-.174-1.48-.662-3.19.51-4.407 1.288-1.25 2.459-3.178 4.444-3.195 2.267-.623 2.56 2.324 4.423 2.764 1.636.788 1.95 2.865.976 4.303-.91 2.582 3.042-.86 3.958.99 1.631 1.658.642 4.241-.454 5.912-.562 1.118-3.38 2.742-1.885 3.81 1.626.116 4.312-1.08 4.93 1.123.415 3.004-1.564 5.803-3.82 7.586-1.002.559-3.56 2.32-2.225 3.252.127.06 3.68-1.127 2.735 1.778-1.276 3.355-4.344 5.489-6.298 8.402-1.636 1.25-1.068 3.345-.866 5.073-.972.94-2.632 2.107-3.916 2.14-.061.039.07-.52.069-.384z" transform="matrix(1.01498 0 0 1.01498 -80.712 -81.902)"/><path style="fill:#000;stroke:none;stroke-width:.30506313;stroke-opacity:1" d="M128.766 133.946c.656-1.97.921-4.133.614-6.188-1.047-1.24-2.316-2.367-3.151-3.815-.98-1.548-2.441-2.757-3.262-4.403-.677-1.713 1.603-2.241 2.21-2.825-1.384-2.452-3.828-4.1-5.16-6.573-.498-1.453-1.019-4.287 1.145-4.554 1.261-.59 2.863.804 3.793.241-1.055-2.662-3.351-4.698-4.211-7.45-.456-1.765.504-3.546 2.128-4.3 1.16-.422 2.254.33 3.313.72-.174-1.48-.662-3.19.51-4.407 1.288-1.25 2.459-3.178 4.444-3.195 2.267-.623 2.56 2.324 4.423 2.764 1.636.788 1.95 2.865.976 4.303-.91 2.582 3.042-.86 3.958.99 1.631 1.658.642 4.241-.454 5.912-.562 1.118-3.38 2.742-1.885 3.81 1.626.116 4.312-1.08 4.93 1.123.415 3.004-1.564 5.803-3.82 7.586-1.002.559-3.56 2.32-2.225 3.252.127.06 3.68-1.127 2.735 1.778-1.276 3.355-4.344 5.489-6.298 8.402-1.636 1.25-1.068 3.345-.866 5.073-.972.94-2.632 2.107-3.916 2.14-.061.039.07-.52.069-.384zm3.036-2.505c-.383-3.397.002-6.852-.615-10.231-.614 3.62-.965 7.272-1.272 10.928-.148.768-.226 1.437.645.763.59-.3 1.599-.592 1.242-1.46zm4.089-8.071c1.424-1.726 4.074-5.138 3.411-5.833-.704-.553-4.435.876-3.037-1.744 1.671-2.569 5.043-3.773 5.894-6.912 1.181-1.78-.107-4.648-2.405-3.306-1.844.975-3.82-.712-2.434-2.516 1.335-1.454 2.793-2.907 3.333-4.916.796-1.504-1.29-3.602-2.654-2.304-1.143.75-3.397.521-2.375-1.281 1.145-1.63.873-3.98-1.354-4.366-1.18-1.162-1.966-3.334-4.034-2.059-1.518.96-3.121 2.269-3.649 4.05-.22 1.174 1.309 3.673-1.119 2.813-.873-.284-1.33-.817-2.374-.476-1.09.563-2.352 2.217-1.597 3.809 1.031 2.8 3.318 4.937 4.397 7.699-.617 2.303-3.039-.394-4.514.17-2.054.908-.902 3.6.113 4.931 1.346 1.746 3.096 3.164 4.167 5.127 1.62 2.071-3.247 1.044-1.663 3.48.926 1.576 2.461 2.707 3.195 4.43.52 1.126 2.656 3.593 2.463.868-.343-2.114-1.707-3.818-2.747-5.615-.201-1.996 1.428.865 1.991 1.302 1.052 1.645 1.76.198 1.562-1.138.282-1.972.237-4.067-1.224-5.597-.47-1.265-1.934-2.454-2.02-3.622 1.419.731 2.363 2.131 3.513 3.22-.075-2.432.234-4.909-.296-7.298-.594-1.937-1.93-3.528-2.707-5.363.196-1.472 1.558 1.213 2.079 1.817.283.254.942 1.72.937 1.048.044-4.197-.132-8.406.215-12.592 0 0 .045-1.077.545 4.622.108 2.242.205 4.486.308 6.729 1.133-.94 2.103-2.18 3.428-2.806-.62 1.483-2 2.566-3.043 3.8-.644.403-.56 1.084-.524 1.747.073 2.205-.086 4.444.306 6.617 1.448-.446 2.782-2.552 4.187-2.221-1.075 1.784-3.346 2.588-4.222 4.51-.07 2.283-.106 4.605.25 6.86 1.446-.717 2.612-2.528 4.105-2.784-1.056 1.716-2.67 2.998-4.034 4.465.08 1.388-.09 2.82.266 4.17 1.292-.521 2.152-2.53 3.36-3.535z" transform="matrix(1.01498 0 0 1.01498 -80.712 -81.902)"/><g><path style="fill:#00a850;fill-opacity:1;stroke:none;stroke-width:.30506313;stroke-opacity:1" d="M128.766 133.946c.656-1.97.921-4.133.614-6.188-1.047-1.24-2.316-2.367-3.151-3.815-.98-1.548-2.441-2.757-3.262-4.403-.677-1.713 1.603-2.241 2.21-2.825-1.384-2.452-3.828-4.1-5.16-6.573-.498-1.453-1.019-4.287 1.145-4.554 1.261-.59 2.863.804 3.793.241-1.055-2.662-3.351-4.698-4.211-7.45-.456-1.765.504-3.546 2.128-4.3 1.16-.422 2.254.33 3.313.72-.174-1.48-.662-3.19.51-4.407 1.288-1.25 2.459-3.178 4.444-3.195 2.267-.623 2.56 2.324 4.423 2.764 1.636.788 1.95 2.865.976 4.303-.91 2.582 3.042-.86 3.958.99 1.631 1.658.642 4.241-.454 5.912-.562 1.118-3.38 2.742-1.885 3.81 1.626.116 4.312-1.08 4.93 1.123.415 3.004-1.564 5.803-3.82 7.586-1.002.559-3.56 2.32-2.225 3.252.127.06 3.68-1.127 2.735 1.778-1.276 3.355-4.344 5.489-6.298 8.402-1.636 1.25-1.068 3.345-.866 5.073-.972.94-2.632 2.107-3.916 2.14-.061.039.07-.52.069-.384z" transform="matrix(1.01498 0 0 1.01498 -107.739 -81.902)"/><path style="fill:#000;stroke:none;stroke-width:.30506313;stroke-opacity:1" d="M128.766 133.946c.656-1.97.921-4.133.614-6.188-1.047-1.24-2.316-2.367-3.151-3.815-.98-1.548-2.441-2.757-3.262-4.403-.677-1.713 1.603-2.241 2.21-2.825-1.384-2.452-3.828-4.1-5.16-6.573-.498-1.453-1.019-4.287 1.145-4.554 1.261-.59 2.863.804 3.793.241-1.055-2.662-3.351-4.698-4.211-7.45-.456-1.765.504-3.546 2.128-4.3 1.16-.422 2.254.33 3.313.72-.174-1.48-.662-3.19.51-4.407 1.288-1.25 2.459-3.178 4.444-3.195 2.267-.623 2.56 2.324 4.423 2.764 1.636.788 1.95 2.865.976 4.303-.91 2.582 3.042-.86 3.958.99 1.631 1.658.642 4.241-.454 5.912-.562 1.118-3.38 2.742-1.885 3.81 1.626.116 4.312-1.08 4.93 1.123.415 3.004-1.564 5.803-3.82 7.586-1.002.559-3.56 2.32-2.225 3.252.127.06 3.68-1.127 2.735 1.778-1.276 3.355-4.344 5.489-6.298 8.402-1.636 1.25-1.068 3.345-.866 5.073-.972.94-2.632 2.107-3.916 2.14-.061.039.07-.52.069-.384zm3.036-2.505c-.383-3.397.002-6.852-.615-10.231-.614 3.62-.965 7.272-1.272 10.928-.148.768-.226 1.437.645.763.59-.3 1.599-.592 1.242-1.46zm4.089-8.071c1.424-1.726 4.074-5.138 3.411-5.833-.704-.553-4.435.876-3.037-1.744 1.671-2.569 5.043-3.773 5.894-6.912 1.181-1.78-.107-4.648-2.405-3.306-1.844.975-3.82-.712-2.434-2.516 1.335-1.454 2.793-2.907 3.333-4.916.796-1.504-1.29-3.602-2.654-2.304-1.143.75-3.397.521-2.375-1.281 1.145-1.63.873-3.98-1.354-4.366-1.18-1.162-1.966-3.334-4.034-2.059-1.518.96-3.121 2.269-3.649 4.05-.22 1.174 1.309 3.673-1.119 2.813-.873-.284-1.33-.817-2.374-.476-1.09.563-2.352 2.217-1.597 3.809 1.031 2.8 3.318 4.937 4.397 7.699-.617 2.303-3.039-.394-4.514.17-2.054.908-.902 3.6.113 4.931 1.346 1.746 3.096 3.164 4.167 5.127 1.62 2.071-3.247 1.044-1.663 3.48.926 1.576 2.461 2.707 3.195 4.43.52 1.126 2.656 3.593 2.463.868-.343-2.114-1.707-3.818-2.747-5.615-.201-1.996 1.428.865 1.991 1.302 1.052 1.645 1.76.198 1.562-1.138.282-1.972.237-4.067-1.224-5.597-.47-1.265-1.934-2.454-2.02-3.622 1.419.731 2.363 2.131 3.513 3.22-.075-2.432.234-4.909-.296-7.298-.594-1.937-1.93-3.528-2.707-5.363.196-1.472 1.558 1.213 2.079 1.817.283.254.942 1.72.937 1.048.044-4.197-.132-8.406.215-12.592 0 0 .045-1.077.545 4.622.108 2.242.205 4.486.308 6.729 1.133-.94 2.103-2.18 3.428-2.806-.62 1.483-2 2.566-3.043 3.8-.644.403-.56 1.084-.524 1.747.073 2.205-.086 4.444.306 6.617 1.448-.446 2.782-2.552 4.187-2.221-1.075 1.784-3.346 2.588-4.222 4.51-.07 2.283-.106 4.605.25 6.86 1.446-.717 2.612-2.528 4.105-2.784-1.056 1.716-2.67 2.998-4.034 4.465.08 1.388-.09 2.82.266 4.17 1.292-.521 2.152-2.53 3.36-3.535z" transform="matrix(1.01498 0 0 1.01498 -107.739 -81.902)"/></g><g><path style="fill:#00a850;fill-opacity:1;stroke:none;stroke-width:.30506313;stroke-opacity:1" d="M128.766 133.946c.656-1.97.921-4.133.614-6.188-1.047-1.24-2.316-2.367-3.151-3.815-.98-1.548-2.441-2.757-3.262-4.403-.677-1.713 1.603-2.241 2.21-2.825-1.384-2.452-3.828-4.1-5.16-6.573-.498-1.453-1.019-4.287 1.145-4.554 1.261-.59 2.863.804 3.793.241-1.055-2.662-3.351-4.698-4.211-7.45-.456-1.765.504-3.546 2.128-4.3 1.16-.422 2.254.33 3.313.72-.174-1.48-.662-3.19.51-4.407 1.288-1.25 2.459-3.178 4.444-3.195 2.267-.623 2.56 2.324 4.423 2.764 1.636.788 1.95 2.865.976 4.303-.91 2.582 3.042-.86 3.958.99 1.631 1.658.642 4.241-.454 5.912-.562 1.118-3.38 2.742-1.885 3.81 1.626.116 4.312-1.08 4.93 1.123.415 3.004-1.564 5.803-3.82 7.586-1.002.559-3.56 2.32-2.225 3.252.127.06 3.68-1.127 2.735 1.778-1.276 3.355-4.344 5.489-6.298 8.402-1.636 1.25-1.068 3.345-.866 5.073-.972.94-2.632 2.107-3.916 2.14-.061.039.07-.52.069-.384z" transform="matrix(1.01498 0 0 1.01498 -52.956 -31.63)"/><path style="fill:#000;stroke:none;stroke-width:.30506313;stroke-opacity:1" d="M128.766 133.946c.656-1.97.921-4.133.614-6.188-1.047-1.24-2.316-2.367-3.151-3.815-.98-1.548-2.441-2.757-3.262-4.403-.677-1.713 1.603-2.241 2.21-2.825-1.384-2.452-3.828-4.1-5.16-6.573-.498-1.453-1.019-4.287 1.145-4.554 1.261-.59 2.863.804 3.793.241-1.055-2.662-3.351-4.698-4.211-7.45-.456-1.765.504-3.546 2.128-4.3 1.16-.422 2.254.33 3.313.72-.174-1.48-.662-3.19.51-4.407 1.288-1.25 2.459-3.178 4.444-3.195 2.267-.623 2.56 2.324 4.423 2.764 1.636.788 1.95 2.865.976 4.303-.91 2.582 3.042-.86 3.958.99 1.631 1.658.642 4.241-.454 5.912-.562 1.118-3.38 2.742-1.885 3.81 1.626.116 4.312-1.08 4.93 1.123.415 3.004-1.564 5.803-3.82 7.586-1.002.559-3.56 2.32-2.225 3.252.127.06 3.68-1.127 2.735 1.778-1.276 3.355-4.344 5.489-6.298 8.402-1.636 1.25-1.068 3.345-.866 5.073-.972.94-2.632 2.107-3.916 2.14-.061.039.07-.52.069-.384zm3.036-2.505c-.383-3.397.002-6.852-.615-10.231-.614 3.62-.965 7.272-1.272 10.928-.148.768-.226 1.437.645.763.59-.3 1.599-.592 1.242-1.46zm4.089-8.071c1.424-1.726 4.074-5.138 3.411-5.833-.704-.553-4.435.876-3.037-1.744 1.671-2.569 5.043-3.773 5.894-6.912 1.181-1.78-.107-4.648-2.405-3.306-1.844.975-3.82-.712-2.434-2.516 1.335-1.454 2.793-2.907 3.333-4.916.796-1.504-1.29-3.602-2.654-2.304-1.143.75-3.397.521-2.375-1.281 1.145-1.63.873-3.98-1.354-4.366-1.18-1.162-1.966-3.334-4.034-2.059-1.518.96-3.121 2.269-3.649 4.05-.22 1.174 1.309 3.673-1.119 2.813-.873-.284-1.33-.817-2.374-.476-1.09.563-2.352 2.217-1.597 3.809 1.031 2.8 3.318 4.937 4.397 7.699-.617 2.303-3.039-.394-4.514.17-2.054.908-.902 3.6.113 4.931 1.346 1.746 3.096 3.164 4.167 5.127 1.62 2.071-3.247 1.044-1.663 3.48.926 1.576 2.461 2.707 3.195 4.43.52 1.126 2.656 3.593 2.463.868-.343-2.114-1.707-3.818-2.747-5.615-.201-1.996 1.428.865 1.991 1.302 1.052 1.645 1.76.198 1.562-1.138.282-1.972.237-4.067-1.224-5.597-.47-1.265-1.934-2.454-2.02-3.622 1.419.731 2.363 2.131 3.513 3.22-.075-2.432.234-4.909-.296-7.298-.594-1.937-1.93-3.528-2.707-5.363.196-1.472 1.558 1.213 2.079 1.817.283.254.942 1.72.937 1.048.044-4.197-.132-8.406.215-12.592 0 0 .045-1.077.545 4.622.108 2.242.205 4.486.308 6.729 1.133-.94 2.103-2.18 3.428-2.806-.62 1.483-2 2.566-3.043 3.8-.644.403-.56 1.084-.524 1.747.073 2.205-.086 4.444.306 6.617 1.448-.446 2.782-2.552 4.187-2.221-1.075 1.784-3.346 2.588-4.222 4.51-.07 2.283-.106 4.605.25 6.86 1.446-.717 2.612-2.528 4.105-2.784-1.056 1.716-2.67 2.998-4.034 4.465.08 1.388-.09 2.82.266 4.17 1.292-.521 2.152-2.53 3.36-3.535z" transform="matrix(1.01498 0 0 1.01498 -52.956 -31.63)"/><path style="fill:#00a850;fill-opacity:1;stroke:none;stroke-width:.30506313;stroke-opacity:1" d="M128.766 133.946c.656-1.97.921-4.133.614-6.188-1.047-1.24-2.316-2.367-3.151-3.815-.98-1.548-2.441-2.757-3.262-4.403-.677-1.713 1.603-2.241 2.21-2.825-1.384-2.452-3.828-4.1-5.16-6.573-.498-1.453-1.019-4.287 1.145-4.554 1.261-.59 2.863.804 3.793.241-1.055-2.662-3.351-4.698-4.211-7.45-.456-1.765.504-3.546 2.128-4.3 1.16-.422 2.254.33 3.313.72-.174-1.48-.662-3.19.51-4.407 1.288-1.25 2.459-3.178 4.444-3.195 2.267-.623 2.56 2.324 4.423 2.764 1.636.788 1.95 2.865.976 4.303-.91 2.582 3.042-.86 3.958.99 1.631 1.658.642 4.241-.454 5.912-.562 1.118-3.38 2.742-1.885 3.81 1.626.116 4.312-1.08 4.93 1.123.415 3.004-1.564 5.803-3.82 7.586-1.002.559-3.56 2.32-2.225 3.252.127.06 3.68-1.127 2.735 1.778-1.276 3.355-4.344 5.489-6.298 8.402-1.636 1.25-1.068 3.345-.866 5.073-.972.94-2.632 2.107-3.916 2.14-.061.039.07-.52.069-.384z" transform="matrix(1.01498 0 0 1.01498 -107.866 -31.63)"/><path style="fill:#000;stroke:none;stroke-width:.30506313;stroke-opacity:1" d="M128.766 133.946c.656-1.97.921-4.133.614-6.188-1.047-1.24-2.316-2.367-3.151-3.815-.98-1.548-2.441-2.757-3.262-4.403-.677-1.713 1.603-2.241 2.21-2.825-1.384-2.452-3.828-4.1-5.16-6.573-.498-1.453-1.019-4.287 1.145-4.554 1.261-.59 2.863.804 3.793.241-1.055-2.662-3.351-4.698-4.211-7.45-.456-1.765.504-3.546 2.128-4.3 1.16-.422 2.254.33 3.313.72-.174-1.48-.662-3.19.51-4.407 1.288-1.25 2.459-3.178 4.444-3.195 2.267-.623 2.56 2.324 4.423 2.764 1.636.788 1.95 2.865.976 4.303-.91 2.582 3.042-.86 3.958.99 1.631 1.658.642 4.241-.454 5.912-.562 1.118-3.38 2.742-1.885 3.81 1.626.116 4.312-1.08 4.93 1.123.415 3.004-1.564 5.803-3.82 7.586-1.002.559-3.56 2.32-2.225 3.252.127.06 3.68-1.127 2.735 1.778-1.276 3.355-4.344 5.489-6.298 8.402-1.636 1.25-1.068 3.345-.866 5.073-.972.94-2.632 2.107-3.916 2.14-.061.039.07-.52.069-.384zm3.036-2.505c-.383-3.397.002-6.852-.615-10.231-.614 3.62-.965 7.272-1.272 10.928-.148.768-.226 1.437.645.763.59-.3 1.599-.592 1.242-1.46zm4.089-8.071c1.424-1.726 4.074-5.138 3.411-5.833-.704-.553-4.435.876-3.037-1.744 1.671-2.569 5.043-3.773 5.894-6.912 1.181-1.78-.107-4.648-2.405-3.306-1.844.975-3.82-.712-2.434-2.516 1.335-1.454 2.793-2.907 3.333-4.916.796-1.504-1.29-3.602-2.654-2.304-1.143.75-3.397.521-2.375-1.281 1.145-1.63.873-3.98-1.354-4.366-1.18-1.162-1.966-3.334-4.034-2.059-1.518.96-3.121 2.269-3.649 4.05-.22 1.174 1.309 3.673-1.119 2.813-.873-.284-1.33-.817-2.374-.476-1.09.563-2.352 2.217-1.597 3.809 1.031 2.8 3.318 4.937 4.397 7.699-.617 2.303-3.039-.394-4.514.17-2.054.908-.902 3.6.113 4.931 1.346 1.746 3.096 3.164 4.167 5.127 1.62 2.071-3.247 1.044-1.663 3.48.926 1.576 2.461 2.707 3.195 4.43.52 1.126 2.656 3.593 2.463.868-.343-2.114-1.707-3.818-2.747-5.615-.201-1.996 1.428.865 1.991 1.302 1.052 1.645 1.76.198 1.562-1.138.282-1.972.237-4.067-1.224-5.597-.47-1.265-1.934-2.454-2.02-3.622 1.419.731 2.363 2.131 3.513 3.22-.075-2.432.234-4.909-.296-7.298-.594-1.937-1.93-3.528-2.707-5.363.196-1.472 1.558 1.213 2.079 1.817.283.254.942 1.72.937 1.048.044-4.197-.132-8.406.215-12.592 0 0 .045-1.077.545 4.622.108 2.242.205 4.486.308 6.729 1.133-.94 2.103-2.18 3.428-2.806-.62 1.483-2 2.566-3.043 3.8-.644.403-.56 1.084-.524 1.747.073 2.205-.086 4.444.306 6.617 1.448-.446 2.782-2.552 4.187-2.221-1.075 1.784-3.346 2.588-4.222 4.51-.07 2.283-.106 4.605.25 6.86 1.446-.717 2.612-2.528 4.105-2.784-1.056 1.716-2.67 2.998-4.034 4.465.08 1.388-.09 2.82.266 4.17 1.292-.521 2.152-2.53 3.36-3.535z" transform="matrix(1.01498 0 0 1.01498 -107.866 -31.63)"/><g><path style="fill:#00a850;fill-opacity:1;stroke:none;stroke-width:.30506313;stroke-opacity:1" d="M128.766 133.946c.656-1.97.921-4.133.614-6.188-1.047-1.24-2.316-2.367-3.151-3.815-.98-1.548-2.441-2.757-3.262-4.403-.677-1.713 1.603-2.241 2.21-2.825-1.384-2.452-3.828-4.1-5.16-6.573-.498-1.453-1.019-4.287 1.145-4.554 1.261-.59 2.863.804 3.793.241-1.055-2.662-3.351-4.698-4.211-7.45-.456-1.765.504-3.546 2.128-4.3 1.16-.422 2.254.33 3.313.72-.174-1.48-.662-3.19.51-4.407 1.288-1.25 2.459-3.178 4.444-3.195 2.267-.623 2.56 2.324 4.423 2.764 1.636.788 1.95 2.865.976 4.303-.91 2.582 3.042-.86 3.958.99 1.631 1.658.642 4.241-.454 5.912-.562 1.118-3.38 2.742-1.885 3.81 1.626.116 4.312-1.08 4.93 1.123.415 3.004-1.564 5.803-3.82 7.586-1.002.559-3.56 2.32-2.225 3.252.127.06 3.68-1.127 2.735 1.778-1.276 3.355-4.344 5.489-6.298 8.402-1.636 1.25-1.068 3.345-.866 5.073-.972.94-2.632 2.107-3.916 2.14-.061.039.07-.52.069-.384z" transform="matrix(1.01498 0 0 1.01498 -80.714 -31.63)"/><path style="fill:#000;stroke:none;stroke-width:.30506313;stroke-opacity:1" d="M128.766 133.946c.656-1.97.921-4.133.614-6.188-1.047-1.24-2.316-2.367-3.151-3.815-.98-1.548-2.441-2.757-3.262-4.403-.677-1.713 1.603-2.241 2.21-2.825-1.384-2.452-3.828-4.1-5.16-6.573-.498-1.453-1.019-4.287 1.145-4.554 1.261-.59 2.863.804 3.793.241-1.055-2.662-3.351-4.698-4.211-7.45-.456-1.765.504-3.546 2.128-4.3 1.16-.422 2.254.33 3.313.72-.174-1.48-.662-3.19.51-4.407 1.288-1.25 2.459-3.178 4.444-3.195 2.267-.623 2.56 2.324 4.423 2.764 1.636.788 1.95 2.865.976 4.303-.91 2.582 3.042-.86 3.958.99 1.631 1.658.642 4.241-.454 5.912-.562 1.118-3.38 2.742-1.885 3.81 1.626.116 4.312-1.08 4.93 1.123.415 3.004-1.564 5.803-3.82 7.586-1.002.559-3.56 2.32-2.225 3.252.127.06 3.68-1.127 2.735 1.778-1.276 3.355-4.344 5.489-6.298 8.402-1.636 1.25-1.068 3.345-.866 5.073-.972.94-2.632 2.107-3.916 2.14-.061.039.07-.52.069-.384zm3.036-2.505c-.383-3.397.002-6.852-.615-10.231-.614 3.62-.965 7.272-1.272 10.928-.148.768-.226 1.437.645.763.59-.3 1.599-.592 1.242-1.46zm4.089-8.071c1.424-1.726 4.074-5.138 3.411-5.833-.704-.553-4.435.876-3.037-1.744 1.671-2.569 5.043-3.773 5.894-6.912 1.181-1.78-.107-4.648-2.405-3.306-1.844.975-3.82-.712-2.434-2.516 1.335-1.454 2.793-2.907 3.333-4.916.796-1.504-1.29-3.602-2.654-2.304-1.143.75-3.397.521-2.375-1.281 1.145-1.63.873-3.98-1.354-4.366-1.18-1.162-1.966-3.334-4.034-2.059-1.518.96-3.121 2.269-3.649 4.05-.22 1.174 1.309 3.673-1.119 2.813-.873-.284-1.33-.817-2.374-.476-1.09.563-2.352 2.217-1.597 3.809 1.031 2.8 3.318 4.937 4.397 7.699-.617 2.303-3.039-.394-4.514.17-2.054.908-.902 3.6.113 4.931 1.346 1.746 3.096 3.164 4.167 5.127 1.62 2.071-3.247 1.044-1.663 3.48.926 1.576 2.461 2.707 3.195 4.43.52 1.126 2.656 3.593 2.463.868-.343-2.114-1.707-3.818-2.747-5.615-.201-1.996 1.428.865 1.991 1.302 1.052 1.645 1.76.198 1.562-1.138.282-1.972.237-4.067-1.224-5.597-.47-1.265-1.934-2.454-2.02-3.622 1.419.731 2.363 2.131 3.513 3.22-.075-2.432.234-4.909-.296-7.298-.594-1.937-1.93-3.528-2.707-5.363.196-1.472 1.558 1.213 2.079 1.817.283.254.942 1.72.937 1.048.044-4.197-.132-8.406.215-12.592 0 0 .045-1.077.545 4.622.108 2.242.205 4.486.308 6.729 1.133-.94 2.103-2.18 3.428-2.806-.62 1.483-2 2.566-3.043 3.8-.644.403-.56 1.084-.524 1.747.073 2.205-.086 4.444.306 6.617 1.448-.446 2.782-2.552 4.187-2.221-1.075 1.784-3.346 2.588-4.222 4.51-.07 2.283-.106 4.605.25 6.86 1.446-.717 2.612-2.528 4.105-2.784-1.056 1.716-2.67 2.998-4.034 4.465.08 1.388-.09 2.82.266 4.17 1.292-.521 2.152-2.53 3.36-3.535z" transform="matrix(1.01498 0 0 1.01498 -80.714 -31.63)"/></g></g></svg>