<svg xmlns="http://www.w3.org/2000/svg" width="160" height="180" style="shape-rendering:geometricPrecision;text-rendering:geometricPrecision;image-rendering:optimizeQuality;fill-rule:evenodd;clip-rule:evenodd"><path style="opacity:.366" fill="#090701" d="M-.5-.5h160v105c-1.333.333-1.333.667 0 1v13h-3c-1.63 5.168-4.296 10.334-8 15.5l2 1-8 8 2 1c-1.063 1.188-2.397 1.688-4 1.5a8.43 8.43 0 0 1-.5 4l-1-1-1 3-1-1a4.934 4.934 0 0 0-.5 3h-1c-1.29.558-2.123 1.558-2.5 3l-1-1-1 3c-.914-1.154-1.747-.987-2.5.5 1.098.77 1.098 1.603 0 2.5h-1c-1.049.098-2.215.098-3.5 0l-3 5c-3.063-1.116-5.896-.116-8.5 3-1.057.706-.724 1.039 1 1v1h-1c-2.358-.678-4.525-1.012-6.5-1-2.438 1.068-4.605 2.402-6.5 4v1c.065.438-.101.772-.5 1l-3-3-3 3-2-2a78.8 78.8 0 0 0-8 3c-.875-2.013-2.209-2.013-4 0-2.324-1.345-4.658-1.678-7-1l-3-2c-3.203.795-6.536 1.128-10 1a49.595 49.595 0 0 0-13.5-6.5l4-1c-2.075-1.693-4.409-2.36-7-2 1.017 1.049 1.184 2.216.5 3.5-.77-1.098-1.603-1.098-2.5 0v-1c-.417-.722-1.084-1.222-2-1.5l1-1c-2.795-1.139-5.295-2.639-7.5-4.5l-1 1c-2.333-3-5-5.667-8-8-.984 2.295-1.817 1.961-2.5-1 1.13-2.029.63-2.363-1.5-1A475.702 475.702 0 0 1 3.5 129l1-1a2134.34 2134.34 0 0 0-5-5.5V-.5zm148 11c1.149.291 1.816 1.124 2 2.5l-.5 2.5c-1.802 1.29-2.969 2.956-3.5 5a19.588 19.588 0 0 0-2 3.5l-10 3a20.823 20.823 0 0 0-3 7.5c-2.982-.084-5.982.416-9 1.5a71.247 71.247 0 0 0-5 8c-6.587-.38-10.587 2.62-12 9a25.79 25.79 0 0 1-8 2c-.556.383-.89.883-1 1.5-1.745 1.533-2.745 3.533-3 6a53.843 53.843 0 0 0-10 2.5 29.686 29.686 0 0 1-5 8l-7 1a29.686 29.686 0 0 0-5 8c-6.463-.466-10.13 2.368-11 8.5a96.598 96.598 0 0 1-11 3.5 48.6 48.6 0 0 1-4 7c-6.587-.379-10.587 2.621-12 9-7.179.015-11.512 3.515-13 10.5a24.935 24.935 0 0 0-7 .5c-.556.383-.89.883-1 1.5-1.27-1.609-2.27-3.442-3-5.5 1.824-.66 3.157-1.827 4-3.5 1.904-.238 3.238-1.238 4-3 1.527.073 2.527-.594 3-2 .667 0 1-.333 1-1 1.527.073 2.527-.594 3-2 1.904-.238 3.238-1.238 4-3 1.904-.238 3.238-1.238 4-3 1.527.073 2.527-.594 3-2a27.683 27.683 0 0 0 8-6c1.904-.238 3.238-1.238 4-3 2.87-.933 5.204-2.6 7-5 1.904-.238 3.238-1.238 4-3 1.904-.238 3.238-1.238 4-3 1.904-.238 3.238-1.238 4-3 1.904-.238 3.238-1.238 4-3 1.527.073 2.527-.594 3-2 1.904-.238 3.238-1.238 4-3 1.904-.238 3.238-1.238 4-3 1.527.073 2.527-.594 3-2 1.904-.238 3.238-1.238 4-3a39.724 39.724 0 0 0 12-9c1.904-.238 3.238-1.238 4-3 1.527.073 2.527-.594 3-2a8.435 8.435 0 0 0 4-.5c-1.098-.77-1.098-1.603 0-2.5 1.904-.238 3.238-1.238 4-3 1.904-.238 3.238-1.238 4-3 1.904-.238 3.238-1.238 4-3 1.904-.238 3.238-1.238 4-3 1.527.073 2.527-.594 3-2 1.904-.238 3.238-1.238 4-3 2.328-1.8 4.995-2.967 8-3.5-1.098-.77-1.098-1.603 0-2.5a8.435 8.435 0 0 0 4-.5c-1.098-.77-1.098-1.603 0-2.5 1.904-.238 3.238-1.238 4-3 1.527.073 2.527-.594 3-2zm-2 40c-1.904.238-3.238 1.238-4 3-1.904.238-3.238 1.238-4 3-1.904.238-3.238 1.238-4 3a27.68 27.68 0 0 0-8 6c-1.527-.073-2.527.594-3 2-2.249.58-3.915 1.913-5 4-1.527-.073-2.527.594-3 2-1.904.238-3.238 1.238-4 3-1.904.238-3.238 1.238-4 3-1.904.238-3.238 1.238-4 3-1.904.238-3.238 1.238-4 3-1.904.238-3.238 1.238-4 3-1.527-.073-2.527.594-3 2-1.904.238-3.238 1.238-4 3-1.904.238-3.238 1.238-4 3-1.527-.073-2.527.594-3 2-1.904.238-3.238 1.238-4 3-1.904.238-3.238 1.238-4 3-1.904.238-3.238 1.238-4 3-1.904.238-3.238 1.238-4 3-1.527-.073-2.527.594-3 2-1.904.238-3.238 1.238-4 3-1.904.238-3.238 1.238-4 3-1.904.238-3.238 1.238-4 3-1.904.238-3.238 1.238-4 3-1.904.238-3.238 1.238-4 3-1.527-.073-2.527.594-3 2-1.904.238-3.238 1.238-4 3a5.727 5.727 0 0 0-3 1l-4 4c-1.904.238-3.238 1.238-4 3-1.904.238-3.238 1.238-4 3-2.78-1.117-3.112-2.283-1-3.5l-4-2c-.95-.718-1.117-1.551-.5-2.5a71.978 71.978 0 0 1 10.5-3.5 29.087 29.087 0 0 1 4.5-7.5c1.657-.671 3.657-.671 6 0 3.313-2.657 5.48-5.991 6.5-10 2.357.163 4.69-.003 7-.5.556-.383.89-.883 1-1.5 2.114-1.284 3.114-3.284 3-6 .667 0 1-.333 1-1 4.243.428 8.243-.739 12-3.5l-1-1c.553-1.878 1.553-3.378 3-4.5l6-2c2.797-.467 4.13-2.133 4-5 3.098.088 3.432-.412 1-1.5 1.619-1.923 3.452-2.423 5.5-1.5 1.878-.553 3.378-1.553 4.5-3 2.039-1.411 3.039-3.411 3-6a33.085 33.085 0 0 0 11-3c.946-6.158 4.613-8.992 11-8.5a71.247 71.247 0 0 0 5-8c6.463.466 10.129-2.368 11-8.5 3.92-1.237 8.253-2.404 13-3.5-1.091-5.416 1.243-7.916 7-7.5.716 4.84-.617 8.84-4 12zm-117-9c.994 9.486 1.327 19.152 1 29h-1c-2.107-.968-4.44-1.302-7-1 .293-6.755-.04-13.422-1-20 3-2.333 5.667-5 8-8zm3 1c2.26.738 2.427 1.738.5 3a4.932 4.932 0 0 1-.5-3zm15 0c.876-.13 1.543.203 2 1-2.308 1.373-2.975 1.04-2-1zm9 4a6.541 6.541 0 0 0 3 3 106.252 106.252 0 0 0-1 20c-.865.064-1.865.397-3 1-.326-8.184.008-16.184 1-24zm-8 5c1.113 1.446 1.28 3.113.5 5L46.5 55c.837-1.011 1.17-2.178 1-3.5zm-3 10c1.91-.074 3.078-1.074 3.5-3a8.434 8.434 0 0 1 .5 4c-1.599.268-2.932-.066-4-1zm-2-2c1.333 0 2 .667 2 2-1-.333-1.667-1-2-2zm-7 1c1.114 1.853.448 2.353-2 1.5.544-.717 1.21-1.217 2-1.5zm74 52c2.116 1.588 2.449 3.588 1 6l-2-4-1 1c.706 2.731 1.206 5.731 1.5 9-3.009.654-5.842.654-8.5 0h-1l4-2c-.996.086-1.829-.248-2.5-1-.837-1.851-1.67-3.684-2.5-5.5 1.39-1.65 2.891-2.15 4.5-1.5a15.256 15.256 0 0 1 4.5-1.5c-1.759-.98-3.426-1.647-5-2l4-1c-8.669 1.916-9.669.416-3-4.5 1.196.346 1.196.846 0 1.5 1.284.684 2.451.517 3.5-.5 1.487.753 1.654 1.586.5 2.5a18.473 18.473 0 0 1 2 3.5zm28 3c2.667.667 2.667 1.333 0 2v-2zm-6 11h2a5.727 5.727 0 0 0-1 3c-.904-.709-1.237-1.709-1-3zm4-2h-2c.667-2.667 1.333-2.667 2 0zm-41-7h4c-.213 1.644.12 3.144 1 4.5a42.635 42.635 0 0 0-8 3.5c-.607-.124-.94-.457-1-1 1.333-.333 1.333-.667 0-1 .333-1 1-1.667 2-2 1.1-1.105 1.767-2.438 2-4zm-4 2c.283-.789.783-1.456 1.5-2 .528 1.316.028 1.983-1.5 2zm39 15c-.011 2.501-.678 2.668-2 .5a2.428 2.428 0 0 1 2-.5zm-49 5c1 .333 1.667 1 2 2-1.333 0-2-.667-2-2zm39 5c-.886 1.276-1.886 1.276-3 0 .733-.587 1.733-.587 3 0z"/><path style="opacity:.886" fill="#f70600" d="M149.5 2.5c.393 3.013-.274 5.68-2 8-1.527-.073-2.527.594-3 2-1.904.238-3.238 1.238-4 3-1.904.238-3.238 1.238-4 3-3.391 1.03-6.057 3.03-8 6-1.904.238-3.238 1.238-4 3-1.527-.073-2.527.594-3 2-1.904.238-3.238 1.238-4 3-1.904.238-3.238 1.238-4 3-1.904.238-3.238 1.238-4 3-1.904.238-3.238 1.238-4 3-1.904.238-3.238 1.238-4 3-1.527-.073-2.527.594-3 2-1.904.238-3.238 1.238-4 3a39.724 39.724 0 0 0-12 9c-1.904.238-3.238 1.238-4 3-1.527-.073-2.527.594-3 2-1.904.238-3.238 1.238-4 3-1.904.238-3.238 1.238-4 3-1.527-.073-2.527.594-3 2-1.904.238-3.238 1.238-4 3-1.904.238-3.238 1.238-4 3-1.904.238-3.238 1.238-4 3-1.904.238-3.238 1.238-4 3-2.87.933-5.204 2.6-7 5-1.904.238-3.238 1.238-4 3-3.39 1.03-6.057 3.03-8 6a5.728 5.728 0 0 0-3 1c-2.158-1.72-4.825-2.553-8-2.5l9-3c-7.003-.497-7.337-1.163-1-2l-6-1a26.692 26.692 0 0 0 6.5-1.5c1.727.874 3.56.707 5.5-.5l-11-1 10-1a42.498 42.498 0 0 0-13 0l2 1c-2.956.139-5.79.972-8.5 2.5l-1-2c-2.064 1.091-4.23 1.258-6.5.5 2.491-.626 2.491-1.46 0-2.5 1.256-.53 2.756-.53 4.5 0a167.29 167.29 0 0 0 6.5-2l-.5-1c-3.744 1.126-7.577 1.293-11.5.5L5 81.5c2.42.988 4.753.655 7-1l5 2a51.676 51.676 0 0 1 9.5-1.5l-6-1c2.547-.067 4.714-.9 6.5-2.5.667 5.333 1.333 5.333 2 0 .805 2.401 1.638 2.234 2.5-.5L30 75.5l-3 1a42.336 42.336 0 0 0-8.5-1.5c3.832.038 7.332-.795 10.5-2.5l1 2a88.693 88.693 0 0 1 7.5-3h22c.324-6.522-.01-12.855-1-19 2.598-.972 2.598-1.972 0-3a6.541 6.541 0 0 1-3-3 54.735 54.735 0 0 1-9.5-12l-6-20a61.161 61.161 0 0 1-4.5 10c-2.612-.596-2.612-1.429 0-2.5-4.919-.802-9.752-.635-14.5.5l-1-2c-2.667 1.333-5.333 1.333-8 0-2.553 2.229-5.386 2.562-8.5 1-1.13-1.575-1.298-3.241-.5-5l1 1 1-3c1.268.116 2.602.45 4 1 2.868-1.925 5.535-1.925 8 0 3.79-.636 7.623-1.303 11.5-2a334.8 334.8 0 0 1-11.5-2c-2.868 1.925-5.535 1.925-8 0-2.702.974-4.035-.026-4-3 .741 1.14 1.575 1.14 2.5 0a4.453 4.453 0 0 1 1.5 2l3-4c1.337 1.504 3.004 2.504 5 3 3.59-.385 6.923-1.385 10-3 .974 2.378 1.641 2.044 2-1 .667 4 1.333 4 2 0 1.008.482 2.175.648 3.5.5-1.154.914-.987 1.747.5 2.5l3-3c1.16 2.297 2.16 1.964 3-1l2 2c2.738-.604 5.738-.937 9-1 1.658.175 2.991.842 4 2 1.16-2.297 2.16-1.964 3 1a8.905 8.905 0 0 1 3-4c.626 2.491 1.46 2.491 2.5 0 3.193.388 6.527.388 10 0 1.288 1.975 2.955 1.975 5 0a4.452 4.452 0 0 1 1.5 2c.52-1.016 1.353-1.682 2.5-2 2.848-.014 5.348.319 7.5 1 .691-2.391 1.691-2.391 3 0 2.093-.746 4.093-1.08 6-1 .626 2.491 1.459 2.491 2.5 0 1.561.847 3.061.514 4.5-1 .667 1.333 1.333 1.333 2 0 .667 2.667 1.333 2.667 2 0 .667 2.667 1.333 2.667 2 0 1.402 2.473 2.902 2.473 4.5 0h5a91.566 91.566 0 0 1 4.5 3c2.038-1.572 4.371-2.572 7-3 .359 3.044 1.026 3.378 2 1 3.668.173 7.668.506 12 1 .232-1.237.732-2.237 1.5-3z"/><path style="opacity:.345" fill="#114645" d="M147.5 10.5c-.473 1.406-1.473 2.073-3 2 .473-1.406 1.473-2.073 3-2z"/><path style="opacity:.624" fill="#1b3834" d="M144.5 12.5c-.762 1.762-2.096 2.762-4 3 .762-1.762 2.096-2.762 4-3z"/><path style="opacity:.419" fill="#0f110f" d="M140.5 15.5c-1.098.897-1.098 1.73 0 2.5a8.435 8.435 0 0 1-4 .5c.762-1.762 2.096-2.762 4-3z"/><path style="opacity:.274" fill="#1e2521" d="M136.5 18.5c-1.098.897-1.098 1.73 0 2.5-3.005.533-5.672 1.7-8 3.5 1.943-2.97 4.609-4.97 8-6z"/><path style="opacity:.031" fill="#0d1c1a" d="M128.5 24.5c-.762 1.762-2.096 2.762-4 3 .762-1.762 2.096-2.762 4-3z"/><path style="opacity:.345" fill="#114645" d="M124.5 27.5c-.473 1.406-1.473 2.073-3 2 .473-1.406 1.473-2.073 3-2z"/><path style="opacity:.655" fill="#030500" d="M145.5 20.5c.214 1.644-.12 3.144-1 4.5l-10 3c-1.068 2.438-2.402 4.605-4 6.5a20.823 20.823 0 0 1 3-7.5l10-3a19.588 19.588 0 0 1 2-3.5z"/><path style="opacity:.788" fill="#1700d0" d="M129.5 49.5a49.908 49.908 0 0 0-4 5.5c-2.698.613-5.365 1.28-8 2a71.247 71.247 0 0 1-5 8c-6.557-.446-10.557 2.554-12 9a25.792 25.792 0 0 1-8 2c-.556.383-.89.883-1 1.5-1.745 1.533-2.745 3.533-3 6a53.843 53.843 0 0 0-10 2.5c-1.208 3.154-2.875 5.987-5 8.5a24.939 24.939 0 0 0-7 .5 29.685 29.685 0 0 0-5 8l-7 1c-.556.383-.89.883-1 1.5 0 .667-.333 1-1 1-1.508 1.681-2.508 3.681-3 6-2.83.463-5.497 1.129-8 2-.996-.086-1.83.248-2.5 1a20.883 20.883 0 0 1-3.5 6.5c-6.321-.431-10.155 2.402-11.5 8.5-2.596 1.52-5.43 2.353-8.5 2.5a6.977 6.977 0 0 0-3.5 2.5 15.83 15.83 0 0 0-3.5-5.5c1.566-.608 2.9-1.442 4-2.5-4.743 1.477-6.743-.189-6-5 2.357.163 4.69-.003 7-.5.556-.383.89-.883 1-1.5a74.04 74.04 0 0 0 6-7.5l7-1a71.26 71.26 0 0 0 5-8c2.589-.335 5.256-1.002 8-2a18.373 18.373 0 0 0 4-7 25.792 25.792 0 0 1 8-2c1.256-.417 1.923-1.25 2-2.5a59.917 59.917 0 0 1 4-5.5c2.573-.194 5.24-.86 8-2a71.233 71.233 0 0 1 5-8c6.557.446 10.557-2.554 12-9 1.61-1.495 3.276-1.661 5-.5 1.761-.535 3.094-1.535 4-3 1.745-1.533 2.745-3.533 3-6a53.851 53.851 0 0 0 10-2.5 48.609 48.609 0 0 1 4-7l8-2a71.247 71.247 0 0 0 5-8l7-1c.556-.383.889-.883 1-1.5 1.598-1.895 2.932-4.062 4-6.5l10-3c.88-1.356 1.214-2.856 1-4.5a14.694 14.694 0 0 0 3.5-3c3.279 9.414.112 14.247-9.5 14.5a22.798 22.798 0 0 0-5 8 25.789 25.789 0 0 0-8 2c3.094.652 6.094.319 9-1 1.443-6.446 5.443-9.446 12-9l1.5-1.5c.667 2 .667 4 0 6-5.145.12-8.312 2.954-9.5 8.5a25.789 25.789 0 0 1-8 2c-1.256.417-1.923 1.25-2 2.5z"/><path style="opacity:.176" fill="#141512" d="M121.5 29.5c-.762 1.762-2.096 2.762-4 3 .762-1.762 2.096-2.762 4-3z"/><path style="opacity:.624" fill="#1f423e" d="M117.5 32.5c-.762 1.762-2.096 2.762-4 3 .762-1.762 2.096-2.762 4-3z"/><path style="opacity:.867" fill="#f70700" d="M149.5 2.5c-.768.763-1.268 1.763-1.5 3-4.332-.494-8.332-.827-12-1-.974 2.378-1.641 2.044-2-1-2.629.428-4.962 1.428-7 3a91.566 91.566 0 0 0-4.5-3h-5c-1.598 2.473-3.098 2.473-4.5 0-.667 2.667-1.333 2.667-2 0-.667 2.667-1.333 2.667-2 0-.667 1.333-1.333 1.333-2 0-1.439 1.514-2.939 1.847-4.5 1-1.041 2.491-1.874 2.491-2.5 0-1.907-.08-3.907.254-6 1-1.309-2.391-2.309-2.391-3 0-2.152-.681-4.652-1.014-7.5-1-1.147.318-1.98.984-2.5 2a4.452 4.452 0 0 0-1.5-2c-2.045 1.975-3.712 1.975-5 0-3.473.388-6.807.388-10 0-1.04 2.491-1.874 2.491-2.5 0a8.905 8.905 0 0 0-3 4c-.84-2.964-1.84-3.297-3-1-1.009-1.158-2.342-1.825-4-2-3.262.063-6.262.396-9 1l-2-2c-.84 2.964-1.84 3.297-3 1l-3 3c-1.487-.753-1.654-1.586-.5-2.5-1.325.148-2.492-.018-3.5-.5-.667 4-1.333 4-2 0-.359 3.044-1.026 3.378-2 1-3.077 1.615-6.41 2.615-10 3-1.996-.496-3.663-1.496-5-3l-3 4a4.453 4.453 0 0 0-1.5-2c-.925 1.14-1.759 1.14-2.5 0-.035 2.974 1.298 3.974 4 3 2.465 1.925 5.132 1.925 8 0 4.166.793 8 1.46 11.5 2-3.877.697-7.71 1.364-11.5 2-2.465-1.925-5.132-1.925-8 0-1.398-.55-2.732-.884-4-1l-1 3-1-1c-.798 1.759-.63 3.425.5 5 3.114 1.562 5.947 1.229 8.5-1 2.667 1.333 5.333 1.333 8 0l1 2c4.748-1.135 9.581-1.302 14.5-.5-2.612 1.071-2.612 1.904 0 2.5a54.884 54.884 0 0 1-2.5 10c-2.51 1.722-4.01 4.055-4.5 7-2.333 3-5 5.667-8 8-.79.283-1.456.783-2 1.5 1.934 6.211 2.601 12.711 2 19.5 5.475.989 11.142 1.322 17 1a88.693 88.693 0 0 0-7.5 3l-1-2c-3.168 1.705-6.668 2.538-10.5 2.5 2.926.218 5.76.718 8.5 1.5l3-1 1.5 1.5c-.862 2.734-1.695 2.901-2.5.5-.667 5.333-1.333 5.333-2 0-1.786 1.6-3.953 2.433-6.5 2.5l6 1a51.676 51.676 0 0 0-9.5 1.5l-5-2c-2.247 1.655-4.58 1.988-7 1L3.5 83c3.923.793 7.756.626 11.5-.5l.5 1a167.29 167.29 0 0 1-6.5 2c-1.744-.53-3.244-.53-4.5 0 2.491 1.04 2.491 1.874 0 2.5 2.27.758 4.436.591 6.5-.5l1 2c2.71-1.528 5.544-2.361 8.5-2.5l-2-1a42.498 42.498 0 0 1 13 0l-10 1 11 1c-1.94 1.207-3.773 1.374-5.5.5a26.692 26.692 0 0 1-6.5 1.5l6 1c-6.337.837-6.003 1.503 1 2l-9 3c3.175-.053 5.842.78 8 2.5v1c-1.904.238-3.238 1.238-4 3-1.904.238-3.238 1.238-4 3-1.527-.073-2.527.594-3 2 0 .667-.333 1-1 1-1.527-.073-2.527.594-3 2-1.904.238-3.238 1.238-4 3-1.517.011-2.684.677-3.5 2-1.74-3.409-2.74-7.076-3-11C.5 70.168.333 35.835.5 1.5a5550.85 5550.85 0 0 1 149 1z"/><path style="opacity:.624" fill="#1f423e" d="M113.5 35.5c-.762 1.762-2.096 2.762-4 3 .762-1.762 2.096-2.762 4-3z"/><path style="opacity:.306" fill="#222b26" d="M109.5 38.5c-.762 1.762-2.096 2.762-4 3 .762-1.762 2.096-2.762 4-3z"/><path style="opacity:.918" fill="#090901" d="M55.5 46.5c-.992 7.816-1.326 15.816-1 24h-25c.327-9.848-.006-19.514-1-29 .49-2.945 1.99-5.278 4.5-7a54.884 54.884 0 0 0 2.5-10 61.161 61.161 0 0 0 4.5-10l6 20a54.735 54.735 0 0 0 9.5 12zm-24-4a4.932 4.932 0 0 0 .5 3c1.927-1.262 1.76-2.262-.5-3zm15 0c-.975 2.04-.308 2.373 2 1-.457-.797-1.124-1.13-2-1zm1 9c.17 1.322-.163 2.489-1 3.5l1.5 1.5c.78-1.887.613-3.554-.5-5zm-3 10c1.068.934 2.401 1.268 4 1a8.434 8.434 0 0 0-.5-4c-.422 1.926-1.59 2.926-3.5 3zm-2-2c1.333 0 2 .667 2 2-1-.333-1.667-1-2-2zm-7 1c-.79.283-1.456.783-2 1.5 2.448.853 3.114.353 2-1.5z"/><path style="opacity:.419" fill="#030908" d="M105.5 41.5c-1.098.897-1.098 1.73 0 2.5a8.435 8.435 0 0 1-4 .5c.762-1.762 2.096-2.762 4-3z"/><path style="opacity:.824" fill="#080500" d="M130.5 34.5c-.111.617-.444 1.117-1 1.5l-7 1a71.247 71.247 0 0 1-5 8l-8 2a48.609 48.609 0 0 0-4 7 53.851 53.851 0 0 1-10 2.5c.11-.617.444-1.117 1-1.5a25.79 25.79 0 0 0 8-2c1.413-6.38 5.413-9.38 12-9a71.247 71.247 0 0 1 5-8c3.018-1.084 6.018-1.584 9-1.5z"/><path style="opacity:.886" fill="#14072b" d="M124.5 43.5c.965 1.221.798 2.554-.5 4-.579-1.428-.412-2.762.5-4z"/><path style="opacity:.345" fill="#143735" d="M101.5 44.5c-.473 1.406-1.473 2.073-3 2 .473-1.406 1.473-2.073 3-2z"/><path style="opacity:.176" fill="#141512" d="M98.5 46.5c-.762 1.762-2.096 2.762-4 3 .762-1.762 2.096-2.762 4-3z"/><path style="opacity:.918" fill="#000700" d="M114.5 51.5c2.52-1.032 5.186-1.532 8-1.5-2.437 1.375-5.103 1.875-8 1.5z"/><path style="opacity:.516" fill="#1d241f" d="M94.5 49.5a39.724 39.724 0 0 1-12 9 39.724 39.724 0 0 1 12-9z"/><path style="opacity:.918" fill="#000700" d="M114.5 51.5a10.526 10.526 0 0 1-2.5 3c-.519-1.99.314-2.99 2.5-3z"/><path style="opacity:1" fill="#212521" d="M145.5 50.5c-.762 1.762-2.096 2.762-4 3 .762-1.762 2.096-2.762 4-3z"/><path style="opacity:.471" fill="#152b27" d="M20.5 49.5a106.252 106.252 0 0 1 1 20c2.56-.302 4.893.032 7 1h-8c.601-6.789-.066-13.289-2-19.5.544-.717 1.21-1.217 2-1.5z"/><path style="opacity:1" fill="#20221e" d="M141.5 53.5c-.762 1.762-2.096 2.762-4 3 .762-1.762 2.096-2.762 4-3z"/><path style="opacity:.74" fill="#080600" d="M129.5 49.5c-.871 6.132-4.537 8.966-11 8.5a71.247 71.247 0 0 1-5 8c-6.387-.492-10.054 2.342-11 8.5a33.085 33.085 0 0 1-11 3c.11-.617.444-1.117 1-1.5a25.792 25.792 0 0 0 8-2c1.443-6.446 5.443-9.446 12-9a71.247 71.247 0 0 0 5-8c2.635-.72 5.302-1.387 8-2a49.908 49.908 0 0 1 4-5.5z"/><path style="opacity:.345" fill="#124b4a" d="M58.5 49.5c2.598 1.028 2.598 2.028 0 3 .322 5.858-.011 11.525-1 17-.293-6.755.04-13.422 1-20z"/><path style="opacity:.918" fill="#000700" d="M106.5 60.5a30.155 30.155 0 0 0 3.5-3c.333 2.434-.834 3.434-3.5 3z"/><path style="opacity:1" fill="#1e1d1a" d="M137.5 56.5c-.762 1.762-2.096 2.762-4 3 .762-1.762 2.096-2.762 4-3z"/><path style="opacity:1" fill="#120900" d="M95.5 56.5c-.255 2.467-1.255 4.467-3 6 .255-2.467 1.255-4.467 3-6z"/><path style="opacity:.031" fill="#0d1c1a" d="M82.5 58.5c-.762 1.762-2.096 2.762-4 3 .762-1.762 2.096-2.762 4-3z"/><path style="opacity:1" fill="#321b12" d="M133.5 59.5c-1.943 2.97-4.609 4.97-8 6a27.68 27.68 0 0 1 8-6z"/><path style="opacity:.345" fill="#104745" d="M78.5 61.5c-.473 1.406-1.473 2.073-3 2 .473-1.406 1.473-2.073 3-2z"/><path style="opacity:.392" fill="#132420" d="M75.5 63.5c-.762 1.762-2.096 2.762-4 3 .762-1.762 2.096-2.762 4-3z"/><path style="opacity:.933" fill="#32201a" d="M125.5 65.5c-.473 1.406-1.473 2.073-3 2 .473-1.406 1.473-2.073 3-2z"/><path style="opacity:.516" fill="#07110e" d="M71.5 66.5c-.762 1.762-2.096 2.762-4 3 .762-1.762 2.096-2.762 4-3z"/><path style="opacity:.886" fill="#130626" d="M106.5 60.5c-1.452.802-3.118 1.302-5 1.5a71.29 71.29 0 0 1-5 8 12.5 12.5 0 0 1-7 0l6-1a71.233 71.233 0 0 1 5-8 18.437 18.437 0 0 1 6-.5z"/><path style="opacity:1" fill="#181410" d="M122.5 67.5c-1.085 2.087-2.751 3.42-5 4 1.085-2.087 2.751-3.42 5-4z"/><path style="opacity:.933" fill="#5a0b05" d="M58.5 52.5c.99 6.145 1.324 12.478 1 19h-22c-5.858.322-11.525-.011-17-1h34c1.135-.603 2.135-.936 3-1 .989-5.475 1.322-11.142 1-17z"/><path style="opacity:.392" fill="#1a130c" d="M67.5 69.5c-.473 1.406-1.473 2.073-3 2 .473-1.406 1.473-2.073 3-2z"/><path style="opacity:.624" fill="#1b3834" d="M64.5 71.5c-.762 1.762-2.096 2.762-4 3 .762-1.762 2.096-2.762 4-3z"/><path style="opacity:.886" fill="#15072d" d="M84.5 77.5c.004-2.342.838-4.342 2.5-6 .237 2.456-.596 4.456-2.5 6z"/><path style="opacity:.933" fill="#301c16" d="M117.5 71.5c-.473 1.406-1.473 2.073-3 2 .473-1.406 1.473-2.073 3-2z"/><path style="opacity:1" fill="#29221a" d="M114.5 73.5c-.762 1.762-2.096 2.762-4 3 .762-1.762 2.096-2.762 4-3z"/><path style="opacity:.886" fill="#f60600" d="M149.5 74.5c.166 10.339 0 20.672-.5 31a75.293 75.293 0 0 1-3.5 14c-3.053-.17-5.72-.503-8-1v-1c2.667-.667 2.667-1.333 0-2-1.521.313-3.188-.187-5-1.5 1.926-.422 2.926-1.589 3-3.5-1.273-2.117-1.273-4.284 0-6.5a21.425 21.425 0 0 1-3.5-6.5 22.981 22.981 0 0 0-2 5c-.893-1.211-1.726-1.211-2.5 0 .59 1.299 1.59 2.132 3 2.5l-1 1c.553 1.878 1.553 3.378 3 4.5.172.992-.162 1.658-1 2h-1c-.897.969-.897 2.302 0 4h-1c.065-.438-.101-.772-.5-1-.844 1.963-.344 3.296 1.5 4 .131.876-.202 1.543-1 2-1.187-1.153-2.187-1.153-3 0v1c-.543.06-.876.393-1 1 1.189.929 2.522 1.262 4 1v1c-.992-.172-1.658.162-2 1-1.69.356-2.69 1.356-3 3-.838.342-1.172 1.008-1 2-1.599-.268-2.932.066-4 1-2.036-2.838-3.536-2.505-4.5 1-.377-1.442-1.21-2.442-2.5-3-1.062-1.075-1.062-2.075 0-3 1.635-.83 3.302-.997 5-.5-2.01-4.609-2.51-9.442-1.5-14.5 1.916-1.428 4.083-2.428 6.5-3-1.672-2.837-3.839-5.17-6.5-7a3.647 3.647 0 0 1-1.5 1c-2.331-1.899-4.998-3.066-8-3.5-2.198-5.055-3.698-5.222-4.5-.5-.708-.88-1.542-1.547-2.5-2-1.63-1.56-2.796-1.227-3.5 1a9.468 9.468 0 0 0-1.5-2.5 10.253 10.253 0 0 0 4-1.5c-1.14-1.578-1.64-3.245-1.5-5l2 2c1.243-2.333 2.909-3 5-2 2.667-2.667 5.333-2.667 8 0l5-2c3.809.946 7.475.946 11 0a11.357 11.357 0 0 1 3.5-1.5 9.465 9.465 0 0 1-2.5-1.5c-3.245.815-6.412 1.148-9.5 1-1.083-.865-1.249-1.865-.5-3l1 1c2.204-2.702 5.037-3.535 8.5-2.5l-6 1c.916.374 1.75.874 2.5 1.5 2.667-1.333 5.333-1.333 8 0a11.357 11.357 0 0 1 3.5-1.5l-7-1 3-1a20.211 20.211 0 0 1-6-1.5 52.204 52.204 0 0 1 10-1.5l-9-1a9.465 9.465 0 0 0 2.5-1.5c5.219.36 10.219 1.36 15 3a7.292 7.292 0 0 1 2-3c.77 1.098 1.603 1.098 2.5 0zm-12 41c2.667.667 2.667 1.333 0 2v-2z"/><path style="opacity:.624" fill="#1f423e" d="M60.5 74.5c-.762 1.762-2.096 2.762-4 3 .762-1.762 2.096-2.762 4-3z"/><path style="opacity:1" fill="#1e1d1a" d="M110.5 76.5c-.762 1.762-2.096 2.762-4 3 .762-1.762 2.096-2.762 4-3z"/><path style="opacity:.624" fill="#203c38" d="M56.5 77.5c-.762 1.762-2.096 2.762-4 3 .762-1.762 2.096-2.762 4-3z"/><path style="opacity:.886" fill="#14072d" d="M84.5 77.5c.03.997-.47 1.664-1.5 2a19.524 19.524 0 0 1-7.5 1c2.738-1.525 5.738-2.525 9-3z"/><path style="opacity:.918" fill="#0c0800" d="M92.5 62.5c-.906 1.465-2.239 2.465-4 3-1.724-1.161-3.39-.995-5 .5-1.443 6.446-5.443 9.446-12 9a71.233 71.233 0 0 0-5 8c-2.76 1.14-5.427 1.806-8 2a59.917 59.917 0 0 0-4 5.5c.87-6.132 4.537-8.966 11-8.5a29.686 29.686 0 0 1 5-8l7-1a29.686 29.686 0 0 0 5-8 53.843 53.843 0 0 1 10-2.5z"/><path style="opacity:.918" fill="#000700" d="M75.5 80.5c-.333 1-1 1.667-2 2 0-1.333.667-2 2-2z"/><path style="opacity:1" fill="#1a140e" d="M106.5 79.5c-.762 1.762-2.096 2.762-4 3 .762-1.762 2.096-2.762 4-3z"/><path style="opacity:.306" fill="#020d0b" d="M52.5 80.5c-.762 1.762-2.096 2.762-4 3 .762-1.762 2.096-2.762 4-3z"/><path style="opacity:.614" fill="#030300" d="M91.5 77.5c.039 2.589-.961 4.589-3 6 .255-2.467 1.255-4.467 3-6z"/><path style="opacity:.933" fill="#3e1e15" d="M102.5 82.5c-.762 1.762-2.096 2.762-4 3 .762-1.762 2.096-2.762 4-3z"/><path style="opacity:1" fill="#030400" d="M88.5 83.5c-1.122 1.447-2.622 2.447-4.5 3-2.048-.923-3.881-.423-5.5 1.5 2.432 1.088 2.098 1.588-1 1.5.13 2.867-1.203 4.533-4 5 2.125-2.513 3.792-5.346 5-8.5a53.843 53.843 0 0 1 10-2.5z"/><path style="opacity:.918" fill="#11061e" d="M73.5 82.5c.61 3.529-.723 5.362-4 5.5a49.974 49.974 0 0 1 4-5.5z"/><path style="opacity:.933" fill="#3b1b12" d="M98.5 85.5c-.762 1.762-2.096 2.762-4 3 .762-1.762 2.096-2.762 4-3z"/><path style="opacity:.345" fill="#163433" d="M48.5 83.5c-1.796 2.4-4.13 4.067-7 5 1.796-2.4 4.13-4.067 7-5z"/><path style="opacity:.624" fill="#1f423e" d="M41.5 88.5c-.762 1.762-2.096 2.762-4 3 .762-1.762 2.096-2.762 4-3z"/><path style="opacity:.933" fill="#301c16" d="M94.5 88.5c-.473 1.406-1.473 2.073-3 2 .473-1.406 1.473-2.073 3-2z"/><path style="opacity:.918" fill="#000700" d="M59.5 94.5c-.188-1.603.312-2.937 1.5-4 .348 1.64-.152 2.973-1.5 4z"/><path style="opacity:1" fill="#1e201d" d="M91.5 90.5c-.762 1.762-2.096 2.762-4 3 .762-1.762 2.096-2.762 4-3z"/><path style="opacity:.867" fill="#f80600" d="M149.5 74.5c-.897 1.098-1.73 1.098-2.5 0a7.292 7.292 0 0 0-2 3c-4.781-1.64-9.781-2.64-15-3a9.465 9.465 0 0 1-2.5 1.5l9 1a52.204 52.204 0 0 0-10 1.5 20.211 20.211 0 0 0 6 1.5l-3 1 7 1c-1.266.31-2.433.81-3.5 1.5-2.667-1.333-5.333-1.333-8 0a9.465 9.465 0 0 0-2.5-1.5l6-1c-3.463-1.035-6.296-.202-8.5 2.5l-1-1c-.749 1.135-.583 2.135.5 3 3.088.148 6.255-.185 9.5-1a9.465 9.465 0 0 0 2.5 1.5c-1.266.31-2.433.81-3.5 1.5-3.525.946-7.191.946-11 0l-5 2c-2.667-2.667-5.333-2.667-8 0-2.091-1-3.757-.333-5 2l-2-2c-.14 1.755.36 3.422 1.5 5a10.253 10.253 0 0 1-4 1.5 9.468 9.468 0 0 1 1.5 2.5c.704-2.227 1.87-2.56 3.5-1a21.033 21.033 0 0 0 2 7c-4.398 3.395-8.064 7.395-11 12-2.273 1.235-4.106.902-5.5-1-2.106 1.091-4.606 1.091-7.5 0 .13-.876-.203-1.543-1-2l-2.5 3a34.057 34.057 0 0 0-3-6c-.067 2.547-.9 4.714-2.5 6.5 1.964 1.451 3.297 3.284 4 5.5-1.951-.273-3.451.393-4.5 2-1-2.667-2-2.667-3 0-.667-2.667-1.333-2.667-2 0-1.916-2.533-3.916-2.533-6 0l-1-1a8.908 8.908 0 0 1-3 4c-2.188-.947-4.522-.947-7 0a2.427 2.427 0 0 1-.5-2v-1c1.904-.238 3.238-1.238 4-3 1.904-.238 3.238-1.238 4-3 1.904-.238 3.238-1.238 4-3 1.904-.238 3.238-1.238 4-3 1.527.073 2.527-.594 3-2 1.904-.238 3.238-1.238 4-3 1.904-.238 3.238-1.238 4-3 1.904-.238 3.238-1.238 4-3 1.904-.238 3.238-1.238 4-3 1.527.073 2.527-.594 3-2 1.904-.238 3.238-1.238 4-3 1.904-.238 3.238-1.238 4-3 1.527.073 2.527-.594 3-2 1.904-.238 3.238-1.238 4-3 1.904-.238 3.238-1.238 4-3 1.904-.238 3.238-1.238 4-3 1.904-.238 3.238-1.238 4-3 1.904-.238 3.238-1.238 4-3 1.527.073 2.527-.594 3-2 2.249-.58 3.915-1.913 5-4 1.527.073 2.527-.594 3-2 3.391-1.03 6.057-3.03 8-6 1.904-.238 3.238-1.238 4-3 1.904-.238 3.238-1.238 4-3 1.904-.238 3.238-1.238 4-3 1.517-.01 2.684-.677 3.5-2 .5 8.66.666 17.327.5 26z"/><path style="opacity:.516" fill="#1b2723" d="M37.5 91.5a27.683 27.683 0 0 1-8 6c1.943-2.97 4.61-4.97 8-6z"/><path style="opacity:1" fill="#21130b" d="M87.5 93.5c-.762 1.762-2.096 2.762-4 3 .762-1.762 2.096-2.762 4-3z"/><path style="opacity:.716" fill="#060500" d="m73.5 94.5-6 2c-1.447 1.122-2.447 2.622-3 4.5l1 1c-3.757 2.761-7.757 3.928-12 3.5.11-.617.444-1.117 1-1.5l7-1a29.685 29.685 0 0 1 5-8 24.939 24.939 0 0 1 7-.5z"/><path style="opacity:.933" fill="#32201a" d="M83.5 96.5c-.473 1.406-1.473 2.073-3 2 .473-1.406 1.473-2.073 3-2z"/><path style="opacity:.345" fill="#104745" d="M29.5 97.5c-.473 1.406-1.473 2.073-3 2v-1a5.728 5.728 0 0 1 3-1z"/><path style="opacity:.918" fill="#140627" d="M59.5 94.5c.17 1.322-.163 2.489-1 3.5a90.976 90.976 0 0 1-10 2.5c.558-1.29 1.558-2.123 3-2.5l6-1c.566-.995 1.233-1.828 2-2.5z"/><path style="opacity:1" fill="#242b27" d="M80.5 98.5c-.762 1.762-2.096 2.762-4 3 .762-1.762 2.096-2.762 4-3z"/><path style="opacity:.624" fill="#1b322e" d="M26.5 99.5c-.762 1.762-2.096 2.762-4 3 .762-1.762 2.096-2.762 4-3z"/><path style="opacity:.655" fill="#122420" d="M22.5 102.5c-.762 1.762-2.096 2.762-4 3 .762-1.762 2.096-2.762 4-3z"/><path style="opacity:1" fill="#1d1b16" d="M76.5 101.5c-.762 1.762-2.096 2.762-4 3 .762-1.762 2.096-2.762 4-3z"/><path style="opacity:.773" fill="#550f02" d="M135.5 110.5h-3c-1.447-1.122-2.447-2.622-3-4.5l1-1c-1.41-.368-2.41-1.201-3-2.5.774-1.211 1.607-1.211 2.5 0a22.981 22.981 0 0 1 2-5 21.425 21.425 0 0 0 3.5 6.5c-1.273 2.216-1.273 4.383 0 6.5z"/><path style="opacity:1" fill="#1c1813" d="M72.5 104.5c-.762 1.762-2.096 2.762-4 3 .762-1.762 2.096-2.762 4-3z"/><path style="opacity:.345" fill="#143735" d="M18.5 105.5c-.473 1.406-1.473 2.073-3 2 .473-1.406 1.473-2.073 3-2z"/><path style="opacity:.886" fill="#150734" d="M48.5 100.5c-.236 3.121-1.57 5.454-4 7 .595-2.817 1.928-5.15 4-7z"/><path style="opacity:.918" fill="#0c0616" d="M44.5 107.5c-2.47 1.193-5.136 1.693-8 1.5 2.437-1.375 5.103-1.875 8-1.5z"/><path style="opacity:1" fill="#0c0700" d="M52.5 106.5c.114 2.716-.886 4.716-3 6 .492-2.319 1.492-4.319 3-6z"/><path style="opacity:1" fill="#1e1d1a" d="M68.5 107.5c-.762 1.762-2.096 2.762-4 3 .762-1.762 2.096-2.762 4-3z"/><path style="opacity:.306" fill="#1a120d" d="M14.5 108.5c-.473 1.406-1.473 2.073-3 2 .473-1.406 1.473-2.073 3-2z"/><path style="opacity:.627" fill="#1e231d" d="M11.5 110.5c-.762 1.762-2.096 2.762-4 3 .762-1.762 2.096-2.762 4-3z"/><path style="opacity:.886" fill="#14072b" d="M33.5 114.5c-.188-1.603.312-2.937 1.5-4 .348 1.64-.152 2.973-1.5 4z"/><path style="opacity:1" fill="#010400" d="M64.5 110.5c-.473 1.406-1.473 2.073-3 2 .473-1.406 1.473-2.073 3-2z"/><path style="opacity:.918" fill="#0e0b03" d="M112.5 130.5c-.06.543-.393.876-1 1-1.345-.847-2.345-2.013-3-3.5l-7-1c-.752-.671-1.086-1.504-1-2.5 2.658.654 5.491.654 8.5 0-.294-3.269-.794-6.269-1.5-9l1-1 2 4c1.449-2.412 1.116-4.412-1-6a18.473 18.473 0 0 0-2-3.5c1.154-.914.987-1.747-.5-2.5-1.049 1.017-2.216 1.184-3.5.5 1.196-.654 1.196-1.154 0-1.5-6.669 4.916-5.669 6.416 3 4.5l-4 1c1.574.353 3.241 1.02 5 2a15.256 15.256 0 0 0-4.5 1.5c-1.609-.65-3.11-.15-4.5 1.5.83 1.816 1.663 3.649 2.5 5.5.671.752 1.504 1.086 2.5 1l-4 2c-2.65.99-5.317 1.99-8 3-2.825-.322-5.158-1.488-7-3.5.336-1.03 1.003-1.53 2-1.5.333 2.667.667 2.667 1 0 .667 0 1-.333 1-1 .667 0 1-.333 1-1 .667 0 1-.333 1-1h-1a5.728 5.728 0 0 1 1-3c2.936-4.605 6.602-8.605 11-12a21.033 21.033 0 0 1-2-7c.958.453 1.792 1.12 2.5 2 .802-4.722 2.302-4.555 4.5.5 3.002.434 5.669 1.601 8 3.5a3.647 3.647 0 0 0 1.5-1c2.661 1.83 4.828 4.163 6.5 7-2.417.572-4.584 1.572-6.5 3-1.01 5.058-.51 9.891 1.5 14.5-1.698-.497-3.365-.33-5 .5-1.062.925-1.062 1.925 0 3zm-3-18c2.116 1.588 2.449 3.588 1 6l-2-4-1 1c.706 2.731 1.206 5.731 1.5 9-3.009.654-5.842.654-8.5 0h-1l4-2c-.996.086-1.829-.248-2.5-1-.837-1.851-1.67-3.684-2.5-5.5 1.39-1.65 2.891-2.15 4.5-1.5a15.256 15.256 0 0 1 4.5-1.5c-1.759-.98-3.426-1.647-5-2l4-1c-8.669 1.916-9.669.416-3-4.5 1.196.346 1.196.846 0 1.5 1.284.684 2.451.517 3.5-.5 1.487.753 1.654 1.586.5 2.5a18.473 18.473 0 0 1 2 3.5zm-15 5h4c-.213 1.644.12 3.144 1 4.5a42.635 42.635 0 0 0-8 3.5c-.607-.124-.94-.457-1-1 1.333-.333 1.333-.667 0-1 .333-1 1-1.667 2-2 1.1-1.105 1.767-2.438 2-4zm-4 2c1.528-.017 2.028-.684 1.5-2-.717.544-1.217 1.211-1.5 2z"/><path style="opacity:.933" fill="#281004" d="M132.5 110.5h1c.333 1.333.667 1.333 1 0h1c-.074 1.911-1.074 3.078-3 3.5 1.812 1.313 3.479 1.813 5 1.5v3a185.977 185.977 0 0 1-3-2 6.846 6.846 0 0 1-4 1v-1c-.897-1.698-.897-3.031 0-4 .333 1.333.667 1.333 1 0 .838-.342 1.172-1.008 1-2z"/><path style="opacity:.769" fill="#0c0900" d="M49.5 112.5c-.11.617-.444 1.117-1 1.5-2.31.497-4.643.663-7 .5 2.503-.871 5.17-1.537 8-2z"/><path style="opacity:1" fill="#1c1813" d="M61.5 112.5c-.762 1.762-2.096 2.762-4 3 .762-1.762 2.096-2.762 4-3z"/><path style="opacity:1" fill="#080600" d="M54.5 90.5c-.077 1.25-.744 2.083-2 2.5a25.792 25.792 0 0 0-8 2 18.373 18.373 0 0 1-4 7c-2.744.998-5.411 1.665-8 2a71.26 71.26 0 0 1-5 8l-7 1a74.04 74.04 0 0 1-6 7.5c1.488-6.985 5.821-10.485 13-10.5 1.413-6.379 5.413-9.379 12-9a48.6 48.6 0 0 0 4-7 96.598 96.598 0 0 0 11-3.5z"/><path style="opacity:.918" fill="#000700" d="M33.5 114.5c0 2-1 3-3 3a6.544 6.544 0 0 1 3-3z"/><path style="opacity:1" fill="#1b1814" d="M57.5 115.5c-.762 1.762-2.096 2.762-4 3 .762-1.762 2.096-2.762 4-3z"/><path style="opacity:.918" fill="#010d06" d="M30.5 117.5c-2.52 1.032-5.186 1.532-8 1.5 2.437-1.375 5.104-1.875 8-1.5z"/><path style="opacity:.392" fill="#230b00" d="M129.5 116.5c0 .667.333 1 1 1v2c-1.844-.704-2.344-2.037-1.5-4 .399.228.565.562.5 1z"/><path style="opacity:1" fill="#1c1913" d="M53.5 118.5c-.762 1.762-2.096 2.762-4 3 .762-1.762 2.096-2.762 4-3z"/><path style="opacity:.871" fill="#0c0800" d="M14.5 120.5c-.11.617-.444 1.117-1 1.5-2.31.497-4.643.663-7 .5.11-.617.444-1.117 1-1.5a24.935 24.935 0 0 1 7-.5z"/><path style="opacity:.918" fill="#391406" d="M77.5 115.5c-2.014 1.342-2.347 3.008-1 5-.378 2.217-1.045 4.217-2 6-1.677-.683-2.343-2.017-2-4-.703-2.216-2.036-4.049-4-5.5 1.6-1.786 2.433-3.953 2.5-6.5a34.057 34.057 0 0 1 3 6l2.5-3c.797.457 1.13 1.124 1 2z"/><path style="opacity:.031" fill="#010100" d="M156.5 118.5c.709.904 1.709 1.237 3 1v4c-1.333.333-1.333.667 0 1v12c-1.333.333-1.333.667 0 1v21c-1.333.333-1.333.667 0 1v20h-25c-.333-1.333-.667-1.333-1 0h-54c-.333-1.333-.667-1.333-1 0h-79v-57a2134.34 2134.34 0 0 1 5 5.5l-1 1A475.702 475.702 0 0 0 19 152.5c2.13-1.363 2.63-1.029 1.5 1 .683 2.961 1.516 3.295 2.5 1 3 2.333 5.667 5 8 8l1-1c2.205 1.861 4.705 3.361 7.5 4.5l-1 1c.916.278 1.583.778 2 1.5-1.333.333-1.333.667 0 1 .897-1.098 1.73-1.098 2.5 0 .684-1.284.517-2.451-.5-3.5 2.591-.36 4.925.307 7 2l-4 1a49.595 49.595 0 0 1 13.5 6.5c3.464.128 6.797-.205 10-1l3 2c2.342-.678 4.676-.345 7 1 1.791-2.013 3.125-2.013 4 0a78.8 78.8 0 0 1 8-3l2 2 3-3 3 3c.399-.228.565-.562.5-1 1.333-.333 1.333-.667 0-1 1.895-1.598 4.062-2.932 6.5-4 1.975-.012 4.142.322 6.5 1 .333 1.333.667 1.333 1 0v-1c1.057-.706.724-1.039-1-1 2.604-3.116 5.437-4.116 8.5-3l3-5c1.285.098 2.451.098 3.5 0 .333 1.333.667 1.333 1 0 1.098-.897 1.098-1.73 0-2.5.753-1.487 1.586-1.654 2.5-.5l1-3 1 1c.377-1.442 1.21-2.442 2.5-3 2.643 1.007 2.977 1.007 1 0a4.934 4.934 0 0 1 .5-3l1 1 1-3 1 1a8.43 8.43 0 0 0 .5-4c1.603.188 2.937-.312 4-1.5l-2-1 8-8-2-1c3.704-5.166 6.37-10.332 8-15.5zm-25 8h2a5.727 5.727 0 0 0-1 3c-.904-.709-1.237-1.709-1-3zm4-2h-2c.667-2.667 1.333-2.667 2 0zm19 8c.789.283 1.456.783 2 1.5-1.316.528-1.983.028-2-1.5zm-25 2a2.428 2.428 0 0 0-2 .5c1.322 2.168 1.989 2.001 2-.5zm-49 5c1 .333 1.667 1 2 2-1.333 0-2-.667-2-2zm39 5c-1.267-.587-2.267-.587-3 0 1.114 1.276 2.114 1.276 3 0zm27 0a27.603 27.603 0 0 0 5 1.5l-2.5.5c-1.376-.184-2.209-.851-2.5-2zm0 3c.789.283 1.456.783 2 1.5-1.667.667-3.333.667-5 0 1.237-.232 2.237-.732 3-1.5z"/><path style="opacity:.933" fill="#31160e" d="M49.5 121.5c-.762 1.762-2.096 2.762-4 3 .762-1.762 2.096-2.762 4-3z"/><path style="opacity:.886" fill="#f60600" d="M72.5 122.5c-.343 1.983.323 3.317 2 4v3h1v2c-1.333 1-1.333 2 0 3-2.396 1.426-2.063 2.76 1 4 .607-.124.94-.457 1-1 1.696-1.629 2.696-1.296 3 1h-1c-.79.283-1.456.783-2 1.5.482 1.008.648 2.175.5 3.5 1-1.333 2-1.333 3 0 .717-.544 1.217-1.211 1.5-2h2c1.249 2.329.582 4.162-2 5.5a11.371 11.371 0 0 0 2 2.5c1.273.246 2.44.246 3.5 0l1-3c1.657 2.66 3.324 2.66 5 0 4.192.592 5.025 2.259 2.5 5 5.123-2.544 8.789-1.544 11 3a9.108 9.108 0 0 1 5-1c.027 1.699.694 3.033 2 4-32.77 17.038-63.436 13.871-92-9.5-1.641-1.129-2.641-2.629-3-4.5 1.904-.238 3.238-1.238 4-3 1.904-.238 3.238-1.238 4-3 3.174-.51 5.508-2.177 7-5 1.904-.238 3.238-1.238 4-3 1.527.073 2.527-.594 3-2 1.562-.233 2.895-.9 4-2a2.427 2.427 0 0 0 .5 2c2.478-.947 4.812-.947 7 0a8.908 8.908 0 0 0 3-4l1 1c2.084-2.533 4.084-2.533 6 0 .667-2.667 1.333-2.667 2 0 1-2.667 2-2.667 3 0 1.049-1.607 2.549-2.273 4.5-2z"/><path style="opacity:.886" fill="#140726" d="M12.5 127.5c1.792-.809 3.792-1.309 6-1.5 1.393-1.171 2.227-2.671 2.5-4.5.825 2.201.325 4.034-1.5 5.5-2.31.497-4.643.663-7 .5z"/><path style="opacity:.933" fill="#2f1309" d="M45.5 124.5v1c-1.105 1.1-2.438 1.767-4 2 .762-1.762 2.096-2.762 4-3z"/><path style="opacity:.933" fill="#320b00" d="m77.5 124.5 1 4v1h-4v-2c1.333 0 2-.667 2-2 .667 0 1-.333 1-1z"/><path style="opacity:.933" fill="#301c16" d="M41.5 127.5c-.473 1.406-1.473 2.073-3 2 .473-1.406 1.473-2.073 3-2z"/><path style="opacity:.918" fill="#270f00" d="M78.5 128.5c.06-.543.393-.876 1-1 2.336 1.573 2.336 2.906 0 4-.797-.457-1.13-1.124-1-2 1.333-.333 1.333-.667 0-1z"/><path style="opacity:1" fill="#2c261f" d="M38.5 129.5c-.762 1.762-2.096 2.762-4 3 .762-1.762 2.096-2.762 4-3z"/><path style="opacity:.031" fill="#131c19" d="M74.5 129.5c-.924 2.631-2.591 3.298-5 2 1.168-1.717 2.835-2.384 5-2z"/><path style="opacity:.886" fill="#eb0600" d="M77.5 115.5c2.894 1.091 5.394 1.091 7.5 0 1.394 1.902 3.227 2.235 5.5 1a5.728 5.728 0 0 0-1 3v1c-.667 0-1 .333-1 1-.667 0-1 .333-1 1h-1c-.997-.03-1.664.47-2 1.5 1.842 2.012 4.175 3.178 7 3.5 2.683-1.01 5.35-2.01 8-3h1c-.086.996.248 1.829 1 2.5l7 1c.655 1.487 1.655 2.653 3 3.5.607-.124.94-.457 1-1 1.29.558 2.123 1.558 2.5 3 .964-3.505 2.464-3.838 4.5-1 .904.709 1.237 1.709 1 3-1.333.667-1.333 1.333 0 2a5.727 5.727 0 0 1-1 3l4 3c.667 1.333 1.333 1.333 2 0 .934-1.068 1.268-2.401 1-4 .722-.418 1.222-1.084 1.5-2 .853 2.103 2.02 2.103 3.5 0v-1c0-1.333-.667-2-2-2l-3-3c-.768.763-1.268 1.763-1.5 3-.383-.556-.883-.889-1.5-1v-2c-.172-.992.162-1.658 1-2 1.221.965 2.554.798 4-.5-.752-.671-1.086-1.504-1-2.5.342-.838 1.008-1.172 2-1v-1h6c.789-.283 1.456-.783 2-1.5l-7-3.5v-2a6.846 6.846 0 0 0 4-1c1.018.693 2.018 1.359 3 2 2.28.497 4.947.83 8 1-5.953 16.282-16.286 28.948-31 38-1.306-.967-1.973-2.301-2-4-3.681-1.209-7.014-3.209-10-6-2.643.185-5.31-.481-8-2v-1h1c.543-.06.876-.393 1-1-1.077-1.205-2.41-1.872-4-2-.667 0-1 .333-1 1-.765.423-1.598.757-2.5 1a15.424 15.424 0 0 0-4.5-2v-1c-4.184-2.867-3.851-5.034 1-6.5-.498-1.158-1.332-1.991-2.5-2.5a15.009 15.009 0 0 0-3.5 4 6.845 6.845 0 0 0-4-1c1.125-1.152 1.125-2.152 0-3v-2h3c-.13.876.203 1.543 1 2 2.336-1.094 2.336-2.427 0-4-.607.124-.94.457-1 1l-1-4c-.667 0-1 .333-1 1 0 1.333-.667 2-2 2v-1c.955-1.783 1.622-3.783 2-6-1.347-1.992-1.014-3.658 1-5zm54 11h2a5.727 5.727 0 0 0-1 3c-.904-.709-1.237-1.709-1-3zm4-2h-2c.667-2.667 1.333-2.667 2 0zm-41-7h4c-.213 1.644.12 3.144 1 4.5a42.635 42.635 0 0 0-8 3.5c-.607-.124-.94-.457-1-1 1.333-.333 1.333-.667 0-1 .333-1 1-1.667 2-2 1.1-1.105 1.767-2.438 2-4zm-4 2c1.528-.017 2.028-.684 1.5-2-.717.544-1.217 1.211-1.5 2zm39 15a2.428 2.428 0 0 0-2 .5c1.322 2.168 1.989 2.001 2-.5zm-10 10c-1.267-.587-2.267-.587-3 0 1.114 1.276 2.114 1.276 3 0z"/><path style="opacity:.863" fill="#0f302d" d="M133.5 126.5c2.834 2.149 2.501 3.149-1 3a5.727 5.727 0 0 1 1-3z"/><path style="opacity:.306" fill="#0a1614" d="M127.5 126.5c-.086.996.248 1.829 1 2.5-1.446 1.298-2.779 1.465-4 .5.31-1.644 1.31-2.644 3-3z"/><path style="opacity:.613" fill="#201f1b" d="M129.5 125.5c.992-.172 1.658.162 2 1-.237 1.291.096 2.291 1 3-.689 1.274-1.523 1.274-2.5 0a8.43 8.43 0 0 1-.5-4z"/><path style="opacity:.933" fill="#462016" d="m130.5 119.5 7 3.5c-.544.717-1.211 1.217-2 1.5-.667-2.667-1.333-2.667-2 0h-1c-.333-1.333-.667-1.333-1 0h-2c-1.478.262-2.811-.071-4-1 .124-.607.457-.94 1-1 1.333-.333 1.333-.667 0-1 .813-1.153 1.813-1.153 3 0 .798-.457 1.131-1.124 1-2zm5 5h-2c.667-2.667 1.333-2.667 2 0z"/><path style="opacity:.471" fill="#2b332d" d="M133.5 118.5c1.837.139 2.17.806 1 2-.798-.457-1.131-1.124-1-2z"/><path style="opacity:.633" fill="#081612" d="M75.5 131.5c1.125.848 1.125 1.848 0 3-1.333-1-1.333-2 0-3z"/><path style="opacity:1" fill="#2b1b13" d="M34.5 132.5c-1.492 2.823-3.826 4.49-7 5l4-4a5.727 5.727 0 0 1 3-1z"/><path style="opacity:.918" fill="#202d27" d="M119.5 132.5c1.068-.934 2.401-1.268 4-1v2c-2.667.333-2.667.667 0 1-.709.904-1.709 1.237-3 1 .237-1.291-.096-2.291-1-3z"/><path style="opacity:.137" fill="#1e1c16" d="M84.5 140.5v1h-2c-.333-1-1-1.667-2-2v-1c-.304-2.296-1.304-2.629-3-1-.06.543-.393.876-1 1-3.063-1.24-3.396-2.574-1-4a6.845 6.845 0 0 1 4 1 15.009 15.009 0 0 1 3.5-4c1.168.509 2.002 1.342 2.5 2.5-4.851 1.466-5.184 3.633-1 6.5z"/><path style="opacity:.459" fill="#161d19" d="m126.5 131.5 3 3c1.333 0 2 .667 2 2-1.333.333-1.333.667 0 1-1.48 2.103-2.647 2.103-3.5 0-.278.916-.778 1.582-1.5 2v-8zm3 3a2.428 2.428 0 0 0-2 .5c1.322 2.168 1.989 2.001 2-.5z"/><path style="opacity:.863" fill="#970e05" d="M126.5 131.5v8c.268 1.599-.066 2.932-1 4v-3c-.077-1.25-.744-2.083-2-2.5l1-1c-1.319-.195-2.653-.028-4 .5-1.333-.667-1.333-1.333 0-2 1.291.237 2.291-.096 3-1v-1c.617.111 1.117.444 1.5 1 .232-1.237.732-2.237 1.5-3z"/><path style="opacity:.918" fill="#15150f" d="M125.5 140.5c-1.333.333-1.333.667 0 1v2c-.667 1.333-1.333 1.333-2 0l-4-3a5.727 5.727 0 0 0 1-3c1.347-.528 2.681-.695 4-.5l-1 1c1.256.417 1.923 1.25 2 2.5z"/><path style="opacity:.7" fill="#0f1c1b" d="M86.5 137.5c0 .667.333 1 1 1-.321 1.548-1.321 2.215-3 2-.215-1.679.452-2.679 2-3z"/><path style="opacity:.627" fill="#09130c" d="M115.5 136.5c3.982 1.303 3.982 2.637 0 4-2.667-1.333-2.667-2.667 0-4z"/><path style="opacity:1" fill="#242c27" d="M27.5 137.5c-.762 1.762-2.096 2.762-4 3 .762-1.762 2.096-2.762 4-3z"/><path style="opacity:.392" fill="#0f1a16" d="M79.5 138.5c0 .667.333 1 1 1 0 1.333.667 2 2 2-.283.789-.783 1.456-1.5 2-1-1.333-2-1.333-3 0 .148-1.325-.018-2.492-.5-3.5.544-.717 1.21-1.217 2-1.5z"/><path style="opacity:1" fill="#212521" d="M23.5 140.5c-.762 1.762-2.096 2.762-4 3 .762-1.762 2.096-2.762 4-3z"/><path style="opacity:.918" fill="#161711" d="M115.5 140.5h4c-.418.722-1.084 1.222-2 1.5.881.708 1.547 1.542 2 2.5 1.153.813 1.153 1.813 0 3-.757 1.273-1.423 1.273-2 0-1.548-.321-2.215-1.321-2-3-4.054 1.906-4.888.906-2.5-3 1.461 1.383 2.294 1.049 2.5-1zm4 4c-1.267-.587-2.267-.587-3 0 1.114 1.276 2.114 1.276 3 0z"/><path style="opacity:.627" fill="#191812" d="M109.5 142.5c-1.333.333-1.333.667 0 1a55.78 55.78 0 0 1 1 4l-1 1a44.093 44.093 0 0 0-2-3c-1.28 1.431-2.947 2.098-5 2 1.369-1.568 2.369-3.401 3-5.5 1.566-.765 2.899-.598 4 .5z"/><path style="opacity:.933" fill="#301408" d="M84.5 141.5a15.424 15.424 0 0 1 4.5 2 11.114 11.114 0 0 0 2.5-1c.706 1.057 1.04.724 1-1 1.59.128 2.923.795 4 2-.124.607-.457.94-1 1-.333-1.333-.667-1.333-1 0-1.333.333-1.333.667 0 1 2.69 1.519 5.357 2.185 8 2 2.986 2.791 6.319 4.791 10 6a9.108 9.108 0 0 0-5 1c-2.211-4.544-5.877-5.544-11-3 2.525-2.741 1.692-4.408-2.5-5-1.676 2.66-3.343 2.66-5 0l-1 3c-1.06.246-2.227.246-3.5 0a11.371 11.371 0 0 1-2-2.5c2.582-1.338 3.249-3.171 2-5.5z"/><path style="opacity:.918" fill="#280e00" d="M96.5 151.5c-.689 1.207-.855 2.541-.5 4a15.83 15.83 0 0 0-5.5-3.5 18.452 18.452 0 0 1 6-.5z"/></svg>