<svg xmlns="http://www.w3.org/2000/svg" width="108" height="114" style="shape-rendering:geometricPrecision;text-rendering:geometricPrecision;image-rendering:optimizeQuality;fill-rule:evenodd;clip-rule:evenodd"><path style="opacity:1" fill="#228c5b" d="M20.5 50.5c-.838.342-1.172 1.008-1 2-1.314 2.395-1.314 4.895 0 7.5l-4 2 1.5 1.5a647.823 647.823 0 0 1 1.5 16c3.088-.569 6.088-.569 9 0-.92 2.472.08 4.138 3 5 .546 1.272.88 2.606 1 4a24.264 24.264 0 0 0-3 7h-7c-1.604-.787-2.27-2.12-2-4-1.322.17-2.489-.163-3.5-1-1.706-4.1-3.873-7.767-6.5-11a269.572 269.572 0 0 1-2-31c-.332-11.02.001-22.02 1-33a514.19 514.19 0 0 1 1.5 32c1.753 2.49 1.92 5.156.5 8a33.69 33.69 0 0 0 2 7 21.12 21.12 0 0 0 1-9h4v-7h3v4z"/><path style="opacity:1" fill="#f2f2f0" d="M-.5-.5h108v75c-.617.11-1.117.444-1.5 1-.213 5.807-1.213 11.14-3 16-1.147.958-2.147.625-3-1-.21-1.558-.71-2.891-1.5-4 1.44-2.088 2.106-4.421 2-7 2.218-3.934 3.385-8.267 3.5-13a7257 7257 0 0 1 1.5-65H1.5c.215 20.353.882 40.687 2 61 .008 13.662 4.675 25.328 14 35 8.052 9.026 18.053 14.359 30 16h-48V-.5z"/><path style="opacity:1" fill="#ebeb26" d="M49.5 53.5h4v3c-5.533.22-9.867 2.553-13 7-.934-1.068-1.268-2.401-1-4l2-3a20.536 20.536 0 0 1 8-3z"/><path style="opacity:1" fill="#50631c" d="M38.5 55.5c.891.61 1.891.943 3 1l-2 3-4 4a5.576 5.576 0 0 1 1-3c-.457-.797-1.124-1.13-2-1 1.068-.934 2.401-1.268 4-1v-3z"/><path style="opacity:1" fill="#228d5a" d="M100.5 71.5h-1l-2 1c-.81 1.792-1.31 3.792-1.5 6-.777-5.174-1.277-10.174-1.5-15-1.196.346-1.196.846 0 1.5-1.59 1.543-2.923 1.543-4 0 2.603-3.81 2.27-7.31-1-10.5 1.574-1.602 2.24-3.602 2-6 .967-5.225-.366-9.559-4-13v-2c.321-1.548 1.321-2.215 3-2 .433 2.785 1.766 5.119 4 7l1-1.5a102.945 102.945 0 0 1-3-7.5 4.452 4.452 0 0 1 1.5-2l3 5a54.56 54.56 0 0 0-.5-18c-3.087-1.73-6.42-2.73-10-3a29.428 29.428 0 0 1-6-5c2.265-1.147 4.598-1.314 7-.5 1.646 1.07 3.313 1.904 5 2.5a22.343 22.343 0 0 1 8-2v65z"/><path style="opacity:1" fill="#2b8751" d="M38.5 55.5v3c-1.599-.268-2.932.066-4 1a6.541 6.541 0 0 1-3-3c.813-1.153 1.813-1.153 3 0 1.333-1.333 1.333-2.667 0-4-1.109 1.09-2.109 1.09-3 0 1.353-1.024 2.02-2.357 2-4a51.639 51.639 0 0 0 7-1 23.144 23.144 0 0 0-2 8z"/><path style="opacity:1" fill="#2c8861" d="M71.5 57.5c1.16-.765 2.16-1.765 3-3-.825-.886-1.825-1.219-3-1v-5a41.744 41.744 0 0 1 9-1c-.585 4.43-2.085 8.43-4.5 12-1.049-1.607-2.549-2.273-4.5-2z"/><path style="opacity:1" fill="#cdd654" d="M41.5 52.5h4c-1.014 1.174-2.347 1.84-4 2v-2z"/><path style="opacity:1" fill="#c7d4c4" d="M29.5 49.5c-1.586 2.716-1.253 5.05 1 7-.17 1.322.163 2.489 1 3.5a4.932 4.932 0 0 1-3 .5c.18-2.454-.487-4.62-2-6.5a53.284 53.284 0 0 1 2-5.5c.706-1.057 1.04-.724 1 1z"/><path style="opacity:1" fill="#48530f" d="M51.5 48.5v1c.12 1.086.787 1.753 2 2 .916-.043 1.583-.376 2-1 3.163 1.464 6.163 1.13 9-1 1.778 1.764 3.11 3.764 4 6-.128 1.63.872 2.962 3 4v3c-3.358-5.014-8.025-8.014-14-9-2.667-1.333-5.333-1.333-8 0-2.88.44-5.547 1.44-8 3v-2c1.653-.16 2.986-.826 4-2 2.737-.36 4.737-1.693 6-4z"/><path style="opacity:1" fill="#c7d76c" d="M62.5 51.5c1.696.185 3.03 1.019 4 2.5-2.114.442-3.448-.391-4-2.5z"/><path style="opacity:1" fill="#cbbb35" d="M49.5 53.5c2.667-1.333 5.333-1.333 8 0-1.548.321-2.215 1.321-2 3h-2v-3h-4z"/><path style="opacity:1" fill="#b9c7b6" d="M77.5 43.5h2l4 2v10a25.15 25.15 0 0 0-4.5 4c-.551-1.853.115-3.187 2-4 .498-2.982.665-5.982.5-9h-6c1.109-.79 2.442-1.29 4-1.5-.916-.278-1.582-.778-2-1.5z"/><path style="opacity:1" fill="#34533f" d="M75.5 46.5h6a40.936 40.936 0 0 1-.5 9c-1.885.813-2.551 2.147-2 4a25.15 25.15 0 0 1 4.5-4 38.25 38.25 0 0 0-5 9c-1.05-2.344-2.718-4.011-5-5h-2v-2c1.951-.273 3.451.393 4.5 2 2.415-3.57 3.915-7.57 4.5-12a41.744 41.744 0 0 0-9 1c-6.917-2.22-14.084-3.887-21.5-5a24.321 24.321 0 0 0-5.5 2 186.2 186.2 0 0 1 2-3c-.825-.886-1.825-1.219-3-1 .645-1.312 1.645-2.312 3-3 5.157 4.37 11.157 6.37 18 6a18.436 18.436 0 0 1 .5-6c1.252 2.514 1.752 5.18 1.5 8h9z"/><path style="opacity:1" fill="#2b8f4e" d="M71.5 48.5v5c1.175-.219 2.175.114 3 1-.84 1.235-1.84 2.235-3 3v2c-2.128-1.038-3.128-2.37-3-4 .917-2.162.917-4.495 0-7h3z"/><path style="opacity:1" fill="#367151" d="M41.5 43.5c.321 1.548 1.321 2.215 3 2a19.51 19.51 0 0 1-3 7v4a5.728 5.728 0 0 1-3-1c.193-2.809.86-5.475 2-8a51.639 51.639 0 0 1-7 1c.02 1.643-.647 2.976-2 4 .891 1.09 1.891 1.09 3 0 1.333 1.333 1.333 2.667 0 4-1.187-1.153-2.187-1.153-3 0h-1c-2.253-1.95-2.586-4.284-1-7a20.517 20.517 0 0 1 6-3c2.284-.475 4.284-1.475 6-3z"/><path style="opacity:1" fill="#308155" d="M71.5 48.5h-3c.917 2.505.917 4.838 0 7-.89-2.236-2.222-4.236-4-6-2.837 2.13-5.837 2.464-9 1-1.068-.934-2.401-1.268-4-1v-1c-1.068-.934-2.401-1.268-4-1 .108 2.014-.558 3.68-2 5h-4a19.51 19.51 0 0 0 3-7 24.321 24.321 0 0 1 5.5-2c7.416 1.113 14.583 2.78 21.5 5z"/><path style="opacity:1" fill="#b0c436" d="M51.5 49.5c1.599-.268 2.932.066 4 1-.417.624-1.084.957-2 1-1.213-.247-1.88-.914-2-2z"/><path style="opacity:1" fill="#357f64" d="M51.5 48.5c-1.263 2.307-3.263 3.64-6 4 1.442-1.32 2.108-2.986 2-5 1.599-.268 2.932.066 4 1z"/><path style="opacity:1" fill="#7b7d76" d="M25.5 47.5c3.125-.98 6.458-1.313 10-1a20.517 20.517 0 0 0-6 3c.04-1.724-.294-2.057-1-1a5.728 5.728 0 0 0-3-1z"/><path style="opacity:1" fill="#aebbaa" d="M87.5 39.5c1.499 1.664 2.499 3.664 3 6-.061 2.153-1.061 3.486-3 4 1.207-3.314 1.207-6.648 0-10z"/><path style="opacity:1" fill="#3d5a47" d="M87.5 39.5c1.207 3.352 1.207 6.686 0 10 .188-2.812-.145-5.812-1-9-1.929-.27-3.595.23-5 1.5 1.323.816 1.99 1.983 2 3.5l-4-2v-4c2.73-1.03 5.396-1.03 8 0z"/><path style="opacity:1" fill="#34332c" d="M78.5 36.5h2v1l-1 2v4h-5c1.068-.934 2.401-1.268 4-1v-6z"/><path style="opacity:1" fill="#3f614c" d="M18.5 21.5c.709.904 1.709 1.237 3 1a171.62 171.62 0 0 1-4 3c1.216.596 2.55.763 4 .5a40.281 40.281 0 0 1-4 4.5c.762.41 1.762.577 3 .5a14.974 14.974 0 0 1-3 3.5c.925 1.062 1.925 1.062 3 0 .086.996-.248 1.83-1 2.5 3.857-.076 3.857 1.258 0 4 3.848.987 5.848-.513 6-4.5.81-1.792 1.31-3.792 1.5-6 1.313-.787 2.48-.454 3.5 1h-3a15.42 15.42 0 0 1-1 7c1.282 2.204 2.949 2.538 5 1 0 .667.333 1 1 1a734.923 734.923 0 0 0-9 3.5 36.213 36.213 0 0 1-2 4.5c.901-3.74-.432-5.74-4-6a45.884 45.884 0 0 0-2-9c1.232-3.697 1.232-7.364 0-11a5.728 5.728 0 0 1 3-1z"/><path style="opacity:1" fill="#878881" d="M75.5 34.5c1.527-.073 2.527.594 3 2v6c-1.599-.268-2.932.066-4 1-1.203-1.443-1.703-3.11-1.5-5a7.291 7.291 0 0 1 2 3l1-1a17.64 17.64 0 0 0-.5-6z"/><path style="opacity:1" fill="#34845a" d="M30.5 31.5c.973 2.448 1.306 5.115 1 8-2.051 1.538-3.718 1.204-5-1a15.42 15.42 0 0 0 1-7h3z"/><path style="opacity:1" fill="#d7e4d8" d="M87.5 39.5c-2.604-1.03-5.27-1.03-8 0l1-2c1.955-.824 3.955-.99 6-.5.752.67 1.086 1.504 1 2.5z"/><path style="opacity:1" fill="#365d43" d="M87.5 35.5c3.634 3.441 4.967 7.775 4 13-1.058 1.1-1.892 2.434-2.5 4-1.039-.744-1.539-1.744-1.5-3 1.939-.514 2.939-1.847 3-4-.501-2.336-1.501-4.336-3-6 .086-.996-.248-1.83-1-2.5-2.045-.49-4.045-.324-6 .5v-1c2.042-2.09 4.375-2.424 7-1z"/><path style="opacity:1" fill="#95928c" d="m76.5 32.5-1 2c-2.257-1.062-3.423-2.729-3.5-5 1.129 1.641 2.629 2.641 4.5 3z"/><path style="opacity:1" fill="#a1a49c" d="M20.5 34.5c-1.075 1.062-2.075 1.062-3 0a14.974 14.974 0 0 0 3-3.5c-1.238.077-2.238-.09-3-.5a40.281 40.281 0 0 0 4-4.5c-1.45.263-2.784.096-4-.5a171.62 171.62 0 0 0 4-3c1.788-1.122 3.788-1.29 6-.5l-5 1c1.884.216 3.55.883 5 2l-5 4 1 1c-.9 1.652-1.9 3.152-3 4.5z"/><path style="opacity:1" fill="#2f4f3b" d="M23.5 18.5c6.54-.628 9.707 2.372 9.5 9a3.943 3.943 0 0 0 2 1 14.795 14.795 0 0 1 7-2c3.535 1.01 7.035 1.01 10.5 0 .266-3.15 1.266-5.817 3-8 .417.722 1.084 1.222 2 1.5.548 1.596-.118 2.763-2 3.5l2 2c-1.175-.219-2.175.114-3 1 1.189.929 2.522 1.262 4 1v1a114.74 114.74 0 0 1-21 .5 6.975 6.975 0 0 0-3.5 2.5 30.444 30.444 0 0 0-1.5 9c-.667 0-1-.333-1-1 .306-2.885-.027-5.552-1-8-1.02-1.454-2.187-1.787-3.5-1-.19 2.208-.69 4.208-1.5 6-.268-2.62.065-5.12 1-7.5 2.411.052 4.744.385 7 1-1.621-2.166-2.455-4.666-2.5-7.5-1.255-2.094-3.088-3.094-5.5-3a29.89 29.89 0 0 0-7 2 5.728 5.728 0 0 0-3 1c2.195-1.918 4.862-3.25 8-4z"/><path style="opacity:1" fill="#f4f5f2" d="M78.5 8.5c-3.098-.087-3.432.413-1 1.5a4.452 4.452 0 0 0-2 1.5c1.545.952 3.212 1.285 5 1 2.087 1.085 3.42 2.751 4 5-.992-.172-1.658.162-2 1 .065.438-.101.772-.5 1-1.701-2.61-3.868-3.61-6.5-3h-3c-.21-3.47-1.377-3.47-3.5 0-1.579 3.62-1.745 7.286-.5 11a110.985 110.985 0 0 1 2.5-11c.383.556.883.89 1.5 1 1.04 5.08 2.374 10.08 4 15-1.871-.359-3.371-1.359-4.5-3 .077 2.271 1.243 3.938 3.5 5a17.64 17.64 0 0 1 .5 6l-1 1a7.291 7.291 0 0 0-2-3c-.203 1.89.297 3.557 1.5 5h3c.418.722 1.084 1.222 2 1.5-1.558.21-2.891.71-4 1.5h-9c.252-2.82-.248-5.486-1.5-8a18.436 18.436 0 0 0-.5 6c-6.843.37-12.843-1.63-18-6-1.355.688-2.355 1.688-3 3-1 .333-1.667 1-2 2-1.716 1.525-3.716 2.525-6 3-3.542-.313-6.875.02-10 1-2.476 2.788-3.476 6.121-3 10-2.253-1.95-2.586-4.284-1-7v-2a36.213 36.213 0 0 0 2-4.5 734.923 734.923 0 0 1 9-3.5 30.444 30.444 0 0 1 1.5-9 6.975 6.975 0 0 1 3.5-2.5 114.74 114.74 0 0 0 21-.5c.996.086 1.83-.248 2.5-1l2.5-12c1.474-.936 2.474-2.27 3-4 2.235-.728 4.068-2.061 5.5-4a4.452 4.452 0 0 0 1.5 2c1.546-1.984 3.213-2.317 5-1z"/><path style="opacity:1" fill="#93a596" d="M43.5 41.5c1.175-.219 2.175.114 3 1a186.2 186.2 0 0 0-2 3c-1.679.215-2.679-.452-3-2 .333-1 1-1.667 2-2z"/><path style="opacity:1" fill="#b4b7b0" d="M58.5 27.5c-1.478.262-2.811-.071-4-1 .825-.886 1.825-1.219 3-1 3.61-1.347 3.943-.68 1 2z"/><path style="opacity:1" fill="#e0e4df" d="M25.5 36.5c-.152 3.987-2.152 5.487-6 4.5 3.857-2.742 3.857-4.076 0-4 .752-.67 1.086-1.504 1-2.5 1.1-1.348 2.1-2.848 3-4.5l-1-1 5-4c-1.45-1.117-3.116-1.784-5-2l5-1c-2.212-.79-4.212-.622-6 .5-1.291.237-2.291-.096-3-1a29.89 29.89 0 0 1 7-2c2.412-.094 4.245.906 5.5 3 .045 2.834.879 5.334 2.5 7.5a28.885 28.885 0 0 0-7-1c-.935 2.38-1.268 4.88-1 7.5z"/><path style="opacity:1" fill="#294e36" d="M82.5 18.5c2.293.801 1.96 1.468-1 2h-1c-1.418-1.808-3.418-2.475-6-2a248.054 248.054 0 0 1 5 18h-1c-.473-1.406-1.473-2.073-3-2l1-2c-1.626-4.92-2.96-9.92-4-15 1.291.237 2.291-.096 3-1 2.632-.61 4.799.39 6.5 3 .399-.228.565-.562.5-1z"/><path style="opacity:1" fill="#38825e" d="M80.5 20.5c-1.208-.734-2.541-1.067-4-1 .007 3.018 1.007 5.684 3 8-.748 1.916-.748 3.916 0 6h8v2c-2.625-1.424-4.958-1.09-7 1h-1a248.054 248.054 0 0 0-5-18c2.582-.475 4.582.192 6 2z"/><path style="opacity:1" fill="#898886" d="M75.5 16.5c-.709.904-1.709 1.237-3 1-.617-.11-1.117-.444-1.5-1a110.985 110.985 0 0 0-2.5 11c-1.245-3.714-1.079-7.38.5-11 2.123-3.47 3.29-3.47 3.5 0h3z"/><path style="opacity:1" fill="#56554f" d="m63.5 15.5-2.5 12c-.67.752-1.504 1.086-2.5 1v-1c2.943-2.68 2.61-3.347-1-2l-2-2c4.383.338 6.05-1.495 5-5.5 1.19-.698 2.19-1.531 3-2.5z"/><path style="opacity:1" fill="#2b3829" d="M97.5 1.5h8a7257 7257 0 0 0-1.5 65c-.115 4.733-1.282 9.066-3.5 13v-8a1936.014 1936.014 0 0 0 2-56c.983-3.798 1.317-7.798 1-12h-98l92-2z"/><path style="opacity:1" fill="#318258" d="M102.5 15.5a1936.014 1936.014 0 0 1-2 56v-65a22.343 22.343 0 0 0-8 2c-1.688-.596-3.354-1.43-5-2.5-2.402-.814-4.735-.647-7 .5a29.428 29.428 0 0 0 6 5c2.891 4.337 2.391 8.337-1.5 12-1.519-.663-2.685-1.663-3.5-3 2.96-.532 3.293-1.199 1-2 .342-.838 1.008-1.172 2-1 .722.418 1.222 1.084 1.5 2 .667-1.333.667-2.667 0-4-3.605-2.431-5.772-5.765-6.5-10 7.482-.992 15.148-1.325 23-1v11z"/><path style="opacity:1" fill="#a9a49d" d="M63.5 15.5c-.81.969-1.81 1.802-3 2.5 1.05 4.005-.617 5.838-5 5.5 1.882-.737 2.548-1.904 2-3.5-.916-.278-1.583-.778-2-1.5a10.123 10.123 0 0 0 4-1.5l-1-1c1.473-.71 2.14-1.876 2-3.5a8.434 8.434 0 0 1 4 .5c-.752.67-1.086 1.504-1 2.5z"/><path style="opacity:1" fill="#3c5441" d="M62.5 10.5c1.068.934 2.401 1.268 4 1-.526 1.73-1.526 3.064-3 4-.086-.996.248-1.83 1-2.5a8.434 8.434 0 0 0-4-.5c.14 1.624-.527 2.79-2 3.5l1 1a10.123 10.123 0 0 1-4 1.5 22.376 22.376 0 0 1 3-6.5l-1-1c1.634-.493 3.3-.66 5-.5z"/><path style="opacity:1" fill="#258959" d="M66.5 6.5a111.864 111.864 0 0 1-19 1v4a118.47 118.47 0 0 0-16 1v5c-2.885-.306-5.552.027-8 1-3.138.75-5.805 2.082-8 4 1.232 3.636 1.232 7.303 0 11a45.884 45.884 0 0 1 2 9c3.568.26 4.901 2.26 4 6v2h-1v-4h-3v7h-4a21.12 21.12 0 0 1-1 9 33.69 33.69 0 0 1-2-7c1.42-2.844 1.253-5.51-.5-8a514.19 514.19 0 0 0-1.5-32 273.124 273.124 0 0 0-1 33 462.846 462.846 0 0 1-1-43 679.417 679.417 0 0 1 61-.5c-.556.383-.89.883-1 1.5z"/><path style="opacity:1" fill="#238d5c" d="M86.5 11.5c3.58.27 6.913 1.27 10 3a54.56 54.56 0 0 1 .5 18l-3-5a4.452 4.452 0 0 0-1.5 2c.902 2.54 1.902 5.04 3 7.5l-1 1.5c-2.234-1.881-3.567-4.215-4-7-1.679-.215-2.679.452-3 2h-8c-.748-2.084-.748-4.084 0-6-1.993-2.316-2.993-4.982-3-8 1.459-.067 2.792.266 4 1h1c.815 1.337 1.981 2.337 3.5 3 3.891-3.663 4.391-7.663 1.5-12z"/><path style="opacity:1" fill="#344f39" d="M79.5 5.5c.728 4.235 2.895 7.569 6.5 10 .667 1.333.667 2.667 0 4-.278-.916-.778-1.582-1.5-2-.58-2.249-1.913-3.915-4-5-1.1-1.105-1.767-2.438-2-4-1.787-1.317-3.454-.984-5 1a4.452 4.452 0 0 1-1.5-2c-1.432 1.939-3.265 3.272-5.5 4-1.102-1.592-.435-2.425 2-2.5a8.434 8.434 0 0 0-4-.5l2-2c4.46-.636 8.794-.97 13-1z"/><path style="opacity:1" fill="#298357" d="m66.5 6.5-2 2c0 1.333-.667 2-2 2-1.7-.16-3.366.007-5 .5l1 1a22.376 22.376 0 0 0-3 6.5c-1.734 2.183-2.734 4.85-3 8-3.465 1.01-6.965 1.01-10.5 0-2.5.084-4.834.75-7 2a3.943 3.943 0 0 1-2-1c.207-6.628-2.96-9.628-9.5-9 2.448-.973 5.115-1.306 8-1v-5a118.47 118.47 0 0 1 16-1v-4c6.378.205 12.711-.128 19-1z"/><path style="opacity:1" fill="#337150" d="M4.5 3.5h99c.317 4.202-.017 8.202-1 12v-11c-7.852-.325-15.518.008-23 1-4.206.03-8.54.364-13 1 .11-.617.444-1.117 1-1.5a679.417 679.417 0 0 0-61 .5c-.33 14.51.004 28.843 1 43a269.572 269.572 0 0 0 2 31c-1.387-2.377-2.22-5.043-2.5-8a4643.3 4643.3 0 0 1-2.5-68z"/><path style="opacity:1" fill="#91938c" d="M78.5 8.5c.233 1.562.9 2.895 2 4-1.788.285-3.455-.048-5-1a4.452 4.452 0 0 1 2-1.5c-2.432-1.087-2.098-1.587 1-1.5z"/><path style="opacity:1" fill="#a8b9ab" d="M64.5 8.5a8.434 8.434 0 0 1 4 .5c-2.435.075-3.102.908-2 2.5-1.599.268-2.932-.066-4-1 1.333 0 2-.667 2-2z"/><path style="opacity:1" fill="#38322c" d="m97.5 1.5-92 2h-1c-1.195.366-1.861 1.199-2 2.5 1.791 18.958 2.124 37.791 1 56.5a1373.499 1373.499 0 0 1-2-61h96z"/><path style="opacity:1" fill="#dbd149" d="M39.5 59.5c-.268 1.599.066 2.932 1 4 0 .667-.333 1-1 1-1.459-.067-2.792.266-4 1v-2l4-4z"/><path style="opacity:1" fill="#bfc863" d="M71.5 59.5h2v4l-2-1v-3z"/><path style="opacity:1" fill="#3d6449" d="M25.5 47.5a5.728 5.728 0 0 1 3 1 53.284 53.284 0 0 0-2 5.5c1.513 1.88 2.18 4.046 2 6.5a4.932 4.932 0 0 0 3-.5c-.837-1.011-1.17-2.178-1-3.5h1a6.541 6.541 0 0 0 3 3c.172.992-.162 1.658-1 2-.838.342-1.172 1.008-1 2-1.544-.203-2.878-.87-4-2-3.104 2.888-5.77 2.555-8-1a3.646 3.646 0 0 1 1-1.5c-1.729-1.789-2.396-3.956-2-6.5-.172-.992.162-1.658 1-2h1c-1.586 2.716-1.253 5.05 1 7-.476-3.879.524-7.212 3-10z"/><path style="opacity:1" fill="#b5c2b2" d="M22.5 57.5c3.247 2.238 3.247 3.571 0 4v-4z"/><path style="opacity:1" fill="#c2d05b" d="M34.5 59.5c.876-.13 1.543.203 2 1a5.576 5.576 0 0 0-1 3c-1.333 0-2-.667-2-2 .838-.342 1.172-1.008 1-2z"/><path style="opacity:1" fill="#238b5a" d="M89.5 54.5c3.27 3.19 3.603 6.69 1 10.5 1.077 1.543 2.41 1.543 4 0-1.196-.654-1.196-1.154 0-1.5.223 4.826.723 9.826 1.5 15 .19-2.208.69-4.208 1.5-6 1.195 5.343-.471 9.343-5 12a10.253 10.253 0 0 0-1.5 4c-2.75.404-3.916 2.404-3.5 6-3.307.437-6.307-.23-9-2-1.231 1.15-1.231 2.317 0 3.5-2.727.818-5.394.652-8-.5 1.797-1.195 2.797-2.862 3-5-2.014.109-3.68-.558-5-2 .8-2.008 2.134-2.508 4-1.5l3.5-3.5c.692-.937.525-1.603-.5-2v-4c4.493-.317 7.826-2.484 10-6.5l-5-1c1.903-1.782 4.57-3.449 8-5a9.468 9.468 0 0 1-1.5-2.5c-1.388 1.054-2.888 1.22-4.5.5a25.245 25.245 0 0 0 4-10.5c1.239.442 2.239 1.11 3 2z"/><path style="opacity:1" fill="#4e5f1d" d="M53.5 56.5h2c1.495.489 2.828 1.155 4 2 4.556 1.385 7.722 4.385 9.5 9 .808 3.527.64 6.86-.5 10-4.307 9.834-11.64 13-22 9.5a14.692 14.692 0 0 1-3-3.5c-5.868-5.295-7.202-11.628-4-19 .667 0 1-.333 1-1 3.133-4.447 7.467-6.78 13-7z"/><path style="opacity:1" fill="#377e58" d="M48.5 67.5c-2.174-.25-3.84-1.25-5-3 1.43-4.223 4.43-6.223 9-6a168.19 168.19 0 0 1-1.5 8c-.67.752-1.504 1.086-2.5 1z"/><path style="opacity:1" fill="#387a52" d="m59.5 58.5 5 5c-6.953 6.151-9.953 4.485-9-5h4z"/><path style="opacity:1" fill="#485c20" d="M33.5 61.5c0 1.333.667 2 2 2v2a20.677 20.677 0 0 0-1 5h-3v4h3c-.237 1.291.096 2.291 1 3 .572 4.816 2.906 8.483 7 11 0 .667-.333 1-1 1l-2-1c-1.49-1.78-3.49-2.447-6-2v-3c.651.59 1.318 1.257 2 2 1-2.005.332-3.338-2-4v-6h-3v-6h3c.175-2.12-.159-4.12-1-6-.172-.992.162-1.658 1-2z"/><path style="opacity:1" fill="#bfad39" d="M34.5 70.5a51.639 51.639 0 0 1 1 7c-.904-.709-1.237-1.709-1-3h-3v-4h3z"/><path style="opacity:1" fill="#327f54" d="M87.5 49.5c-.039 1.256.461 2.256 1.5 3 .608-1.566 1.442-2.9 2.5-4 .24 2.398-.426 4.398-2 6-.761-.89-1.761-1.558-3-2a25.245 25.245 0 0 1-4 10.5c1.612.72 3.112.554 4.5-.5.374.916.874 1.75 1.5 2.5-3.43 1.551-6.097 3.218-8 5l5 1c-2.174 4.016-5.507 6.183-10 6.5v4h-2a20.677 20.677 0 0 0 1-5h3v-7h-3c-.24-1.967.094-3.8 1-5.5a2.428 2.428 0 0 0-2-.5v-4c2.282.989 3.95 2.656 5 5a38.25 38.25 0 0 1 5-9v-10c-.01-1.517-.677-2.684-2-3.5 1.405-1.27 3.071-1.77 5-1.5.855 3.188 1.188 6.188 1 9z"/><path style="opacity:1" fill="#288657" d="M19.5 52.5c-.396 2.544.271 4.711 2 6.5-.457.414-.79.914-1 1.5 2.23 3.555 4.896 3.888 8 1 1.122 1.13 2.456 1.797 4 2 .841 1.88 1.175 3.88 1 6h-3v6h3v11c2.51-.447 4.51.22 6 2 .193 2.808.86 5.475 2 8-6.835 1.124-13.502.79-20-1h7a24.264 24.264 0 0 1 3-7 12.896 12.896 0 0 0-1-4c-2.92-.862-3.92-2.528-3-5-2.912-.569-5.912-.569-9 0a647.823 647.823 0 0 0-1.5-16L15.5 62l4-2c-1.314-2.605-1.314-5.105 0-7.5z"/><path style="opacity:1" fill="#505d18" d="m71.5 62.5 2 1a2.428 2.428 0 0 1 2 .5c-.906 1.7-1.24 3.533-1 5.5h3v7h-3a20.677 20.677 0 0 1-1 5c-1.348 1.027-1.848 2.36-1.5 4 1.481-.97 2.315-2.304 2.5-4h1c1.025.397 1.192 1.063.5 2L72.5 87c-1.866-1.008-3.2-.508-4 1.5-.667 0-1 .333-1 1-.992.172-1.658-.162-2-1 7.951-7.147 9.951-15.813 6-26z"/><path style="opacity:1" fill="#ebe52d" d="M57.5 53.5c5.975.986 10.642 3.986 14 9 3.951 10.187 1.951 18.853-6 26-2.25.63-4.25 1.63-6 3-2.266.359-4.1-.308-5.5-2-1.049 1.607-2.549 2.273-4.5 2h-3c-.936-1.474-2.27-2.474-4-3-4.094-2.517-6.428-6.184-7-11a51.639 51.639 0 0 0-1-7 20.677 20.677 0 0 1 1-5c1.208-.734 2.541-1.067 4-1-3.202 7.372-1.868 13.705 4 19 .79 1.294 1.79 2.46 3 3.5 10.36 3.5 17.693.334 22-9.5 1.14-3.14 1.308-6.473.5-10-1.778-4.615-4.944-7.615-9.5-9-1.172-.845-2.505-1.511-4-2-.215-1.679.452-2.679 2-3z"/><path style="opacity:1" fill="#c1ce56" d="M42.5 77.5a16.066 16.066 0 0 0 5-2l1 1-6 4c-1.062-.925-1.062-1.925 0-3z"/><path style="opacity:1" fill="#cad36f" d="M61.5 75.5c.79.901 1.79 1.568 3 2 2.74 2.523 2.406 3.19-1 2-1.074-1.385-2.407-2.551-4-3.5a2.428 2.428 0 0 1 2-.5z"/><path style="opacity:1" fill="#377d52" d="M68.5 77.5h-4c-1.21-.432-2.21-1.099-3-2-.912-1.238-1.08-2.572-.5-4l6-4c1.405 3.119 1.905 6.452 1.5 10z"/><path style="opacity:1" fill="#dad845" d="M51.5 77.5c-2.612-3.17-2.612-6.336 0-9.5 3.7-.823 6.032.677 7 4.5-.498 2.164-1.664 3.83-3.5 5l-1 10c.084-3.811-.75-7.145-2.5-10z"/><path style="opacity:1" fill="#4a570a" d="M51.5 70.5h5v4h-5v-4z"/><path style="opacity:1" fill="#358259" d="M44.5 68.5a14.185 14.185 0 0 1 3 4c-.324 2.069-1.157 2.402-2.5 1a16.569 16.569 0 0 1-2.5 4c-.996.086-1.83-.248-2.5-1a16.25 16.25 0 0 1 0-8c1.414-.913 2.914-.913 4.5 0z"/><path style="opacity:1" fill="#ccdb56" d="M64.5 65.5c1.879-.107 2.212.393 1 1.5-7.393 3.264-7.726 2.764-1-1.5z"/><path style="opacity:1" fill="#b7d355" d="M43.5 64.5c1.16 1.75 2.826 2.75 5 3 .13.876-.203 1.543-1 2a5.576 5.576 0 0 0-3-1c-.73-1.212-1.73-2.212-3-3 .457-.797 1.124-1.13 2-1z"/><path style="opacity:1" fill="#2f8956" d="M51.5 77.5c.11.617.444 1.117 1 1.5l-2 7c-1 .667-2 .667-3 0-.97-1.481-2.304-2.315-4-2.5 1.473-3.421 4.14-5.421 8-6z"/><path style="opacity:1" fill="#338659" d="M63.5 79.5c-.759 4.421-3.425 6.755-8 7-2.01-8.34.657-10.673 8-7z"/><path style="opacity:1" fill="#cecf67" d="M73.5 81.5h1c-.185 1.696-1.019 3.03-2.5 4-.348-1.64.152-2.973 1.5-4z"/><path style="opacity:1" fill="#2d3e2e" d="M4.5 3.5a4643.3 4643.3 0 0 0 2.5 68c.28 2.957 1.113 5.623 2.5 8 2.056 7.04 5.723 13.04 11 18h-3c-9.325-9.672-13.992-21.338-14-35 1.124-18.709.791-37.542-1-56.5.139-1.301.805-2.134 2-2.5z"/><path style="opacity:1" fill="#2e4533" d="M99.5 71.5h1v8c.106 2.579-.56 4.912-2 7a62.317 62.317 0 0 1-9 12 20.677 20.677 0 0 0-5 1c-5.141-.177-10.474-.344-16-.5-.916-.278-1.582-.778-2-1.5 8.366.992 16.366-.341 24-4 6.119-6.015 9.119-13.349 9-22z"/><path style="opacity:1" fill="#cbd66c" d="M33.5 81.5c2.332.662 3 1.995 2 4a30.943 30.943 0 0 0-2-2v-2z"/><path style="opacity:1" fill="#fafafa" d="M107.5 74.5v39h-49v-1c6.028.076 11.695-1.257 17-4a80.313 80.313 0 0 0 14-10 62.317 62.317 0 0 0 9-12c.79 1.109 1.29 2.442 1.5 4 .853 1.625 1.853 1.958 3 1 1.787-4.86 2.787-10.193 3-16 .383-.556.883-.89 1.5-1z"/><path style="opacity:1" fill="#989329" d="M65.5 88.5c.342.838 1.008 1.172 2 1v1c-2.308 2.272-4.975 2.606-8 1 1.75-1.37 3.75-2.37 6-3z"/><path style="opacity:1" fill="#998c0e" d="M59.5 91.5c-3.333 1.333-6.667 1.333-10 0 1.951.273 3.451-.393 4.5-2 1.4 1.692 3.234 2.359 5.5 2z"/><path style="opacity:1" fill="#8d942a" d="M42.5 88.5c1.73.526 3.064 1.526 4 3-.838.342-1.172 1.008-1 2-2.333-.333-3.667-1.667-4-4 .667 0 1-.333 1-1z"/><path style="opacity:1" fill="#32855d" d="M99.5 71.5c.119 8.651-2.881 15.985-9 22-7.634 3.659-15.634 4.992-24 4l-9-2c2.855-1.75 6.189-2.584 10-2.5 1.274-.977 1.274-1.81 0-2.5v-1c0-.667.333-1 1-1 1.32 1.442 2.986 2.109 5 2-.203 2.138-1.203 3.805-3 5 2.606 1.152 5.273 1.318 8 .5-1.231-1.183-1.231-2.35 0-3.5 2.693 1.77 5.693 2.437 9 2-.416-3.596.75-5.596 3.5-6a10.253 10.253 0 0 1 1.5-4c4.529-2.657 6.195-6.657 5-12l2-1z"/><path style="opacity:1" fill="#3c5217" d="M67.5 90.5c1.274.69 1.274 1.523 0 2.5-3.811-.084-7.145.75-10 2.5h-1c-.291-1.15-1.124-1.816-2.5-2-1.376.184-2.209.85-2.5 2-1.512-2.434-3.512-3.1-6-2-.172-.992.162-1.658 1-2h3c3.333 1.333 6.667 1.333 10 0 3.025 1.606 5.692 1.272 8-1z"/><path style="opacity:1" fill="#c2d54b" d="M56.5 95.5h-5c.291-1.15 1.124-1.816 2.5-2 1.376.184 2.209.85 2.5 2z"/><path style="opacity:1" fill="#3c7a56" d="m39.5 88.5 2 1c.333 2.333 1.667 3.667 4 4 2.488-1.1 4.488-.434 6 2 .417.722 1.084 1.222 2 1.5-3.993.17-7.993.004-12-.5a23.144 23.144 0 0 1-2-8z"/><path style="opacity:1" fill="#426b52" d="M9.5 79.5c2.627 3.233 4.794 6.9 6.5 11 1.011.837 2.178 1.17 3.5 1-.27 1.88.396 3.213 2 4 6.498 1.79 13.165 2.124 20 1 4.007.504 8.007.67 12 .5-.916-.278-1.583-.778-2-1.5h6l9 2a96.557 96.557 0 0 0-13.5 2 29.794 29.794 0 0 1-9.5-2 18.861 18.861 0 0 1-8 2 71.796 71.796 0 0 0-11-1c-1.068-.934-2.401-1.268-4-1-5.277-4.96-8.944-10.96-11-18z"/><path style="opacity:1" fill="#eef1ed" d="M66.5 97.5c.418.722 1.084 1.222 2 1.5 5.526.156 10.859.323 16 .5a18.329 18.329 0 0 1-6 4c-3.842.261-7.509-.406-11-2-1.836.528-3.503 1.194-5 2-3.502 1.417-7.17 2.084-11 2 1.452-.802 3.118-1.302 5-1.5a131.394 131.394 0 0 1-11-2.5c-1.922.301-3.588.967-5 2-2.286.095-4.286.762-6 2a38.7 38.7 0 0 1-10-4.5c-1.274-.977-1.274-1.81 0-2.5 3.688.05 7.355.384 11 1a18.861 18.861 0 0 0 8-2 29.794 29.794 0 0 0 9.5 2 96.557 96.557 0 0 1 13.5-2z"/><path style="opacity:1" fill="#3b3e37" d="M17.5 97.5h3c1.599-.268 2.932.066 4 1-1.274.69-1.274 1.523 0 2.5a38.7 38.7 0 0 0 10 4.5c.667 0 1 .333 1 1 1.288 1.829 3.622 2.829 7 3 4.898 2.568 10.231 3.568 16 3v1h-11c-11.947-1.641-21.948-6.974-30-16z"/><path style="opacity:1" fill="#9b9893" d="M51.5 105.5h-2c-2.719-1.413-5.719-2.08-9-2 1.412-1.033 3.078-1.699 5-2 3.631.991 7.298 1.824 11 2.5-1.882.198-3.548.698-5 1.5z"/><path style="opacity:1" fill="#9fa098" d="M78.5 103.5c-1.714 1.238-3.714 1.905-6 2a81.798 81.798 0 0 0-10-2c1.497-.806 3.164-1.472 5-2 3.491 1.594 7.158 2.261 11 2z"/><path style="opacity:1" fill="#2a4b33" d="M40.5 103.5c3.281-.08 6.281.587 9 2-4.793-1.402-9.46-1.069-14 1 0-.667-.333-1-1-1 1.714-1.238 3.714-1.905 6-2z"/><path style="opacity:1" fill="#2d4130" d="M62.5 103.5a81.798 81.798 0 0 1 10 2 10.177 10.177 0 0 1 3 3c-5.305 2.743-10.972 4.076-17 4-5.769.568-11.102-.432-16-3 9.9 1.758 19.568.925 29-2.5-7.435-1.066-14.768-1.566-22-1.5h2c3.83.084 7.498-.583 11-2z"/><path style="opacity:1" fill="#3e3631" d="M89.5 98.5a80.313 80.313 0 0 1-14 10 10.177 10.177 0 0 0-3-3c2.286-.095 4.286-.762 6-2a18.329 18.329 0 0 0 6-4 20.677 20.677 0 0 1 5-1z"/><path style="opacity:1" fill="#34865c" d="M49.5 105.5c7.232-.066 14.565.434 22 1.5-9.432 3.425-19.1 4.258-29 2.5-3.378-.171-5.712-1.171-7-3 4.54-2.069 9.207-2.402 14-1z"/></svg>