<svg xmlns="http://www.w3.org/2000/svg" width="105" height="144" style="shape-rendering:geometricPrecision;text-rendering:geometricPrecision;image-rendering:optimizeQuality;fill-rule:evenodd;clip-rule:evenodd"><path style="opacity:1" fill="#7a7c7a" d="M-.5-.5h105v89h-1V.5H.5v87h-1v-88z"/><path style="opacity:1" fill="#1b0802" d="M103.5 88.5a104.653 104.653 0 0 0-1 9c.11-28.14-.057-56.473-.5-85a3466.172 3466.172 0 0 0-2.5 82 3121 3121 0 0 0-.5-79 937.25 937.25 0 0 1-6.5 9v-1c2.119-5.465 5.452-10.132 10-14-.282-2.487-.282-5.153 0-8-5.736-.945-10.736.389-15 4v-2c1.256.039 2.256-.461 3-1.5-29.665-.5-59.331-.667-89-.5v86c.237 1.291-.096 2.291-1 3V.5h103v88z"/><path style="opacity:1" fill="#d6dedc" d="M87.5 3.5h-84l-2 84v-86c29.669-.167 59.335 0 89 .5-.744 1.039-1.744 1.539-3 1.5z"/><path style="opacity:1" fill="#b7b7b7" d="M92.5 23.5c-1.29-.558-2.123-1.558-2.5-3a7.291 7.291 0 0 1-2 3l-.5-1c1.247-1.542 1.247-3.042 0-4.5 2.778-.15 3.278-.983 1.5-2.5-1.79.123-3.623.123-5.5 0 1.333-1.333 1.333-2.667 0-4 1.778-1.764 3.11-3.764 4-6 4.264-3.611 9.264-4.945 15-4-.282 2.847-.282 5.513 0 8-4.548 3.868-7.881 8.535-10 14z"/><path style="opacity:1" fill="#f90100" d="M86.5 5.5a19.567 19.567 0 0 1-3.5 4c-1.415 6.515-4.582 11.849-9.5 16-1.764.826-3.098 2.16-4 4-.958.453-1.792 1.12-2.5 2a56.784 56.784 0 0 1-5 11c-4.792 2.953-8.292 6.953-10.5 12v2c-2.229 3.575-4.895 6.908-8 10-2.667.667-4.333 2.333-5 5a100.829 100.829 0 0 1-10 16c-1.89-.204-3.39.463-4.5 2-2.899 3.131-4.732 6.798-5.5 11-2.285 3.618-5.285 6.618-9 9-3.021-4.646-4.688-9.646-5-15v-90c27.505-.331 54.838.002 82 1z"/><path style="opacity:1" fill="#500e0c" d="M59.5 6.5c.972-1.251 1.639-.918 2 1 .047 1.538-.62 2.538-2 3 .854-1.535.854-2.868 0-4z"/><path style="opacity:1" fill="#532113" d="M72.5 13.5a2.428 2.428 0 0 0-.5-2c-.67.752-1.504 1.086-2.5 1 1.415-2.417 3.081-2.917 5-1.5-.139 1.301-.805 2.134-2 2.5z"/><path style="opacity:1" fill="#2e150c" d="M58.5 7.5c-1.257 2.927-3.257 5.26-6 7 1.257-2.927 3.257-5.26 6-7z"/><path style="opacity:1" fill="#3b1611" d="M70.5 15.5c-.473 1.406-1.473 2.073-3 2 .473-1.406 1.473-2.073 3-2z"/><path style="opacity:1" fill="#f90000" d="M99.5 94.5a21.445 21.445 0 0 0-1 7c-1.037 1.43-1.704 3.097-2 5-6.742 17.072-19.075 27.738-37 32-15.838 1.993-29.338-2.674-40.5-14 .058-1.935.891-3.602 2.5-5 3.311-1.311 5.645-3.645 7-7 2.33-3.327 4.163-6.993 5.5-11 2.2-1.151 3.7-2.817 4.5-5a25.548 25.548 0 0 0 6.5-5c1.386-5.1 3.552-9.767 6.5-14 2.872-1.026 5.372-2.692 7.5-5a55.896 55.896 0 0 0 5.5-13c.838-.342 1.172-1.008 1-2 4-2 7-5 9-9 2.58-2.82 4.414-6.154 5.5-10a140.166 140.166 0 0 0 10.5-9c1.442-1.32 2.109-2.986 2-5a937.25 937.25 0 0 0 6.5-9 3121 3121 0 0 1 .5 79z"/><path style="opacity:1" fill="#a1aca8" d="M102.5 97.5c.172.992-.162 1.658-1 2-1.197.761-2.03 2.428-2.5 5a4.932 4.932 0 0 1-.5-3 21.445 21.445 0 0 1 1-7c.509-27.31 1.342-54.643 2.5-82 .443 28.527.61 56.86.5 85z"/><path style="opacity:1" fill="#4b1c01" d="M67.5 17.5c-1.085 2.087-2.751 3.42-5 4 1.085-2.087 2.751-3.42 5-4z"/><path style="opacity:1" fill="#5e5d5c" d="M86.5 5.5h1c-.89 2.236-2.222 4.236-4 6 1.333 1.333 1.333 2.667 0 4 1.877.123 3.71.123 5.5 0 1.778 1.517 1.278 2.35-1.5 2.5 1.247 1.458 1.247 2.958 0 4.5l.5 1a7.291 7.291 0 0 0 2-3c.377 1.442 1.21 2.442 2.5 3v1c.109 2.014-.558 3.68-2 5h-1c-.051-2.973-1.218-3.973-3.5-3-.945-.405-1.612-1.072-2-2l-1 1c-3.194-2.571-6.36-2.571-9.5 0 4.918-4.151 8.085-9.485 9.5-16a19.567 19.567 0 0 0 3.5-4z"/><path style="opacity:1" fill="#422408" d="M48.5 18.5c-.58 2.249-1.913 3.915-4 5 .58-2.249 1.913-3.915 4-5z"/><path style="opacity:1" fill="#592209" d="M62.5 21.5c-.473 1.406-1.473 2.073-3 2 .473-1.406 1.473-2.073 3-2z"/><path style="opacity:1" fill="#bebebe" d="M89.5 29.5c-7.073 3.29-11.907 8.624-14.5 16-.667-2.667-1.333-2.667-2 0-1.281-1.147-1.614-.813-1 1 .667 1.333 1.333 1.333 2 0 .464.594.631 1.261.5 2-2.113-.756-4.113-.923-6-.5 2.46-2.314 2.96-4.814 1.5-7.5-.556 2.095-1.056 2.262-1.5.5a11.292 11.292 0 0 1 2-4c-1.439-.99-2.439-2.324-3-4 1.323-.816 1.99-1.983 2-3.5.902-1.84 2.236-3.174 4-4 3.14-2.571 6.306-2.571 9.5 0l1-1c.388.928 1.055 1.595 2 2 2.282-.973 3.449.027 3.5 3z"/><path style="opacity:1" fill="#dbdd14" d="M59.5 6.5c.854 1.132.854 2.465 0 4-.667 0-1 .333-1 1-2.087 1.085-3.42 2.751-4 5-1.333 0-2 .667-2 2-3.072 2.07-5.406 4.736-7 8v1c-2.29 2.577-3.456 5.577-3.5 9 2.696-3.86 5.863-7.194 9.5-10 0-.667.333-1 1-1a6.541 6.541 0 0 0 3-3l4-3c1.527.073 2.527-.594 3-2 1.904-.238 3.238-1.238 4-3 1.527.073 2.527-.594 3-2 .996.086 1.83-.248 2.5-1 .464.594.631 1.261.5 2-1 .333-1.667 1-2 2-1.527-.073-2.527.594-3 2-2.249.58-3.915 1.913-5 4-1.527-.073-2.527.594-3 2-.667 0-1 .333-1 1-1.527-.073-2.527.594-3 2-2.382 1.715-4.382 3.715-6 6-1.667 1-3 2.333-4 4v1c-.901 2.257-2.568 3.757-5 4.5 1.361 1.584 2.028 3.418 2 5.5-2.904-1.114-4.904-3.114-6-6l1-2v-3c.81-1.792 1.31-3.792 1.5-6 .377-1.442 1.21-2.442 2.5-3 1.406-.473 2.073-1.473 2-3 .667 0 1-.333 1-1 2.087-1.085 3.42-2.751 4-5 .972-1.64 2.306-2.973 4-4 2.743-1.74 4.743-4.073 6-7 .667 0 1-.333 1-1z"/><path style="opacity:1" fill="#2f2621" d="M55.5 22.5a6.541 6.541 0 0 1-3 3c0-2 1-3 3-3z"/><path style="opacity:1" fill="#511d09" d="M52.5 18.5c-1.594 3.264-3.928 5.93-7 8 1.594-3.264 3.928-5.93 7-8z"/><path style="opacity:1" fill="#4d4209" d="M62.5 17.5c-.473 1.406-1.473 2.073-3 2 .473-1.406 1.473-2.073 3-2z"/><path style="opacity:1" fill="#5b3825" d="M66.5 14.5c-.762 1.762-2.096 2.762-4 3 .762-1.762 2.096-2.762 4-3z"/><path style="opacity:1" fill="#1a1724" d="M69.5 12.5c-.473 1.406-1.473 2.073-3 2 .473-1.406 1.473-2.073 3-2z"/><path style="opacity:1" fill="#2a1a1f" d="M58.5 11.5c-.58 2.249-1.913 3.915-4 5 .58-2.249 1.913-3.915 4-5z"/><path style="opacity:1" fill="#38130a" d="M58.5 24.5c-.473 1.406-1.473 2.073-3 2 .473-1.406 1.473-2.073 3-2z"/><path style="opacity:1" fill="#222325" d="M43.5 24.5c.073 1.527-.594 2.527-2 3-.073-1.527.594-2.527 2-3z"/><path style="opacity:1" fill="#710604" d="M8.5 29.5c4.053-.131 7.386 1.702 10 5.5-3.34-1.51-6.674-3.343-10-5.5z"/><path style="opacity:1" fill="#af0000" d="M3.5 3.5h84v2h-1a1681.603 1681.603 0 0 0-82-1v83a1764.594 1764.594 0 0 1-1-84z"/><path style="opacity:1" fill="#778a85" d="M3.5 3.5c-.331 28.172.002 56.172 1 84v7c.16 1.7-.006 3.366-.5 5-.232-1.237-.732-2.237-1.5-3-1.574-1.602-2.24-3.602-2-6 .904-.709 1.237-1.709 1-3l2-84z"/><path style="opacity:1" fill="#372514" d="M51.5 26.5c-3.637 2.806-6.804 6.14-9.5 10 .044-3.423 1.21-6.423 3.5-9-.13.876.203 1.543 1 2 1.44-1.452 3.106-2.452 5-3z"/><path style="opacity:1" fill="#7a0302" d="M18.5 28.5a142.262 142.262 0 0 1 14 7.5c-1.669.122-3.335-.212-5-1a436.77 436.77 0 0 1-9-6.5z"/><path style="opacity:1" fill="#491204" d="M49.5 32.5c-.333 2.333-1.667 3.667-4 4 1-1.667 2.333-3 4-4z"/><path style="opacity:1" fill="#2b1000" d="M37.5 36.5v3c-5.342-2.257-5.342-3.257 0-3z"/><path style="opacity:1" fill="#221816" d="M89.5 29.5h1a140.166 140.166 0 0 1-10.5 9c-1.086 3.846-2.92 7.18-5.5 10a2.428 2.428 0 0 0-.5-2c-.667 1.333-1.333 1.333-2 0-.614-1.813-.281-2.147 1-1 .667-2.667 1.333-2.667 2 0 2.593-7.376 7.427-12.71 14.5-16z"/><path style="opacity:1" fill="#281a13" d="M45.5 37.5c-.63 3.548-1.63 6.881-3 10 .028-2.082-.639-3.916-2-5.5 2.432-.743 4.099-2.243 5-4.5z"/><path style="opacity:1" fill="#47130f" d="M36.5 41.5c1.096 2.886 3.096 4.886 6 6l-4 2c-1.208-.734-2.541-1.067-4-1a173.985 173.985 0 0 0-14-11.5c1.325.148 2.492-.018 3.5-.5a64.258 64.258 0 0 1 10 9c1.688-.825 1.855-1.825.5-3 .457-.797 1.124-1.13 2-1z"/><path style="opacity:1" fill="#4d4746" d="M69.5 29.5c-.01 1.517-.677 2.684-2 3.5.561 1.676 1.561 3.01 3 4a11.292 11.292 0 0 0-2 4c.444 1.762.944 1.595 1.5-.5 1.46 2.686.96 5.186-1.5 7.5 1.887-.423 3.887-.256 6 .5-2 4-5 7-9 9 1.419-2.6 3.085-5.1 5-7.5-2.69.054-4.524-1.113-5.5-3.5l-1 2a8.905 8.905 0 0 0-3-4 129.922 129.922 0 0 0-9.5 10c2.208-5.047 5.708-9.047 10.5-12a56.784 56.784 0 0 0 5-11c.708-.88 1.542-1.547 2.5-2z"/><path style="opacity:1" fill="#bdbebe" d="M65.5 57.5c.172.992-.162 1.658-1 2a74.608 74.608 0 0 0-4.5 7l-3-5c-.29 1.544-.956 2.877-2 4-.492-1.049-.326-2.049.5-3-1.026-2.331-2.36-4.331-4-6v-2a129.922 129.922 0 0 1 9.5-10 8.905 8.905 0 0 1 3 4l1-2c.976 2.387 2.81 3.554 5.5 3.5a51.788 51.788 0 0 0-5 7.5z"/><path style="opacity:1" fill="#eeee15" d="M34.5 48.5c1.459-.067 2.792.266 4 1 .52 2.792-.48 5.292-3 7.5l1 1c-1.063 1.188-2.397 1.688-4 1.5-1.13-2.697-1.13-5.363 0-8l2-3z"/><path style="opacity:1" fill="#6f0101" d="M45.5 44.5c.69-1.274 1.523-1.274 2.5 0a56.691 56.691 0 0 0 1.5 6.5c-.13 1.059-.63 1.892-1.5 2.5l-1-8c-.383-.556-.883-.89-1.5-1z"/><path style="opacity:1" fill="#2b1d18" d="M85.5 53.5c-1.141.839-2.475 1.506-4 2a246.13 246.13 0 0 1-2 7 16.869 16.869 0 0 1 1-8 9.106 9.106 0 0 1 5-1z"/><path style="opacity:1" fill="#3f1d1a" d="M25.5 54.5c-3.439 1.704-7.105 3.038-11 4 3.126-2.49 6.792-3.823 11-4z"/><path style="opacity:1" fill="#afb0b0" d="M25.5 54.5h5a6.845 6.845 0 0 0 1 4 4.452 4.452 0 0 1-2 1.5c1.425 1.714 1.092 3.047-1 4-5 .667-10 .667-15 0-2.244-.05-3.91-.883-5-2.5 1.187-2.475 3.187-3.475 6-3 3.895-.962 7.561-2.296 11-4z"/><path style="opacity:1" fill="#312525" d="M90.5 58.5c.306 2.885-.027 5.552-1 8a11.989 11.989 0 0 0-1-6c.356-1.022 1.022-1.689 2-2z"/><path style="opacity:1" fill="#26221c" d="M38.5 49.5c1.923.295 3.59 1.128 5 2.5a9.468 9.468 0 0 0-2.5 1.5c-.374 6.706-3.874 10.54-10.5 11.5a98.53 98.53 0 0 1-23-.5c-.237-1.291.096-2.291 1-3 1.09 1.617 2.756 2.45 5 2.5 5 .667 10 .667 15 0 2.092-.953 2.425-2.286 1-4a4.452 4.452 0 0 0 2-1.5 6.845 6.845 0 0 1-1-4h-4c2.088-.7 4.088-1.7 6-3-1.13 2.637-1.13 5.303 0 8 1.603.188 2.937-.312 4-1.5l-1-1c2.52-2.208 3.52-4.708 3-7.5z"/><path style="opacity:1" fill="#acabab" d="M90.5 58.5c-.978.311-1.644.978-2 2a11.989 11.989 0 0 1 1 6c-1.62.287-2.62 1.287-3 3a35.64 35.64 0 0 0 5 1c.99 2.744.657 5.41-1 8-1.101 1.3-2.434 1.8-4 1.5 2.456-2.367 3.29-5.2 2.5-8.5-1.957 1.827-3.124 3.66-3.5 5.5a22.948 22.948 0 0 1-5 2c5.04 1.008 4.708 1.508-1 1.5-.222 3.004-1.222 5.67-3 8-1.424 1.531-2.091 1.198-2-1-.768.763-1.268 1.763-1.5 3a6.807 6.807 0 0 0-1.5-3c-1.22 1.211-2.387 1.211-3.5 0 .083 2.62.25 5.286.5 8-1.7-.16-3.366.007-5 .5 1.496 2.447 1.163 3.28-1 2.5-.16-1.7.007-3.366.5-5 .667-1.333 1.333-1.333 2 0 .765-1.566.598-2.9-.5-4a325.759 325.759 0 0 0-2-5c.3-1.922.968-3.588 2-5 .65-.304 1.317-.637 2-1 1.195 1.797 2.862 2.797 5 3 .295-2.235-.039-4.235-1-6a12.625 12.625 0 0 1-1-4 87.93 87.93 0 0 0 3-9c2.625-.693 4.959-.693 7 0a246.13 246.13 0 0 0 2-7c1.525-.494 2.859-1.161 4-2 .98-2.657 2.646-3.323 5-2 1.322 2.365 1.322 4.698 0 7z"/><path style="opacity:1" fill="#585353" d="M51.5 56.5c1.64 1.669 2.974 3.669 4 6-.826.951-.992 1.951-.5 3 1.044-1.123 1.71-2.456 2-4l3 5a74.608 74.608 0 0 1 4.5-7 55.896 55.896 0 0 1-5.5 13c-2.128 2.308-4.628 3.974-7.5 5 .074-1.91 1.074-3.078 3-3.5-2.178-.442-2.845-1.442-2-3-2.711-1.26-4.878-3.094-6.5-5.5-.67.752-1.504 1.086-2.5 1 3.105-3.092 5.771-6.425 8-10z"/><path style="opacity:1" fill="#2a1615" d="M89.5 66.5c-.11.617-.444 1.117-1 1.5 1.62.236 2.62 1.069 3 2.5a35.64 35.64 0 0 1-5-1c.38-1.713 1.38-2.713 3-3z"/><path style="opacity:1" fill="#b5b5b5" d="M51.5 77.5c-1.574.437-2.741 1.437-3.5 3-1.359 3.224-2.859 6.224-4.5 9-2.128-.78-2.295-1.78-.5-3 1.281 1.147 1.614.813 1-1-.667-1.333-1.333-1.333-2 0a31.007 31.007 0 0 0-5.5-9 16.066 16.066 0 0 0 2-5c.667-2.667 2.333-4.333 5-5 .996.086 1.83-.248 2.5-1 1.622 2.406 3.789 4.24 6.5 5.5-.845 1.558-.178 2.558 2 3-1.926.422-2.926 1.59-3 3.5z"/><path style="opacity:1" fill="#4a4242" d="M90.5 78.5c-.212 1.884-1.212 3.217-3 4 3.218 2.216 3.552 4.55 1 7-.755-3.012-2.088-5.678-4-8a8.434 8.434 0 0 0-4 .5l1 1c-1.393 1.171-2.227 2.671-2.5 4.5-.67.752-1.504 1.086-2.5 1 1.778-2.33 2.778-4.996 3-8 5.708.008 6.04-.492 1-1.5a22.948 22.948 0 0 0 5-2c.376-1.84 1.543-3.673 3.5-5.5.79 3.3-.044 6.133-2.5 8.5 1.566.3 2.899-.2 4-1.5z"/><path style="opacity:1" fill="#311913" d="M70.5 75.5c.961 1.765 1.295 3.765 1 6-2.138-.203-3.805-1.203-5-3-.683.363-1.35.696-2 1 2.308-4.265 4.142-3.931 5.5 1 .493-1.634.66-3.3.5-5z"/><path style="opacity:1" fill="#4b4b4b" d="M74.5 87.5a2.428 2.428 0 0 0-.5-2c-.654 1.196-1.154 1.196-1.5 0a69.462 69.462 0 0 0 3.5-9c.556 2.095 1.056 2.262 1.5.5a16.228 16.228 0 0 0-1.5-3.5c-.556 2.095-1.056 2.262-1.5.5a111.772 111.772 0 0 1 10-11.5c-.31-1.701.19-3.368 1.5-5-.175 3.297-.008 6.13.5 8.5-1.815 1.676-3.649 2.509-5.5 2.5-1.25 2.577-1.584 5.243-1 8 1.113-1.26 1.28-2.427.5-3.5 3.94-4.78 4.774-4.28 2.5 1.5-1.193 2.105-2.86 3.772-5 5-.578 3.072-1.745 5.739-3.5 8z"/><path style="opacity:1" fill="#b8b8b8" d="M88.5 89.5a186.2 186.2 0 0 0-3 2c-1.196-.346-1.196-.846 0-1.5-2.228-.82-4.228-.487-6 1l2 1c-2.577 1.25-5.243 1.584-8 1 1.216-1.74 2.882-2.74 5-3-.916-.278-1.582-.778-2-1.5.996.086 1.83-.248 2.5-1 .273-1.829 1.107-3.329 2.5-4.5l-1-1a8.434 8.434 0 0 1 4-.5c1.912 2.322 3.245 4.988 4 8z"/><path style="opacity:1" fill="#5d5a5a" d="M38.5 71.5a16.066 16.066 0 0 1-2 5 31.007 31.007 0 0 1 5.5 9c.667-1.333 1.333-1.333 2 0 .614 1.813.281 2.147-1 1-1.795 1.22-1.628 2.22.5 3-1.8 1.105-2.967.439-3.5-2-1.279 2.437-2.779 2.937-4.5 1.5 1.46-.811 1.793-1.645 1-2.5-2.728 1.991-5.395 2.325-8 1a100.829 100.829 0 0 0 10-16z"/><path style="opacity:1" fill="#b5b6b6" d="M43.5 89.5c-.185 1.696-1.019 3.03-2.5 4l-1-2a42.618 42.618 0 0 0-1.5 5c-2.216.703-4.049 2.036-5.5 4a52.316 52.316 0 0 0-4.5 12c-2.591 1.924-4.925 4.258-7 7-2.216.703-4.049 2.036-5.5 4-.708-.881-1.542-1.547-2.5-2-1-.333-1.667-1-2-2a19.21 19.21 0 0 0-3-6.5c2.21-3.214 5.21-5.214 9-6a20.477 20.477 0 0 1 2.5-3.5c-.43 1.627-.596 3.127-.5 4.5 2.069.324 2.402 1.158 1 2.5 1.598 2.473 3.098 2.473 4.5 0 .667-1 .667-2 0-3l-1 1a15.653 15.653 0 0 0-2.5-4c1.333-1.12 1.833-2.453 1.5-4-1.016 1.134-1.683.801-2-1a7.292 7.292 0 0 0-2 3 2.427 2.427 0 0 1-.5-2c.768-4.202 2.601-7.869 5.5-11 1.11-1.537 2.61-2.204 4.5-2 2.605 1.325 5.272.991 8-1 .793.855.46 1.689-1 2.5 1.721 1.437 3.221.937 4.5-1.5.533 2.439 1.7 3.105 3.5 2z"/><path style="opacity:1" fill="#fbfbfb" d="M-.5 87.5h1v3c-.24 2.398.426 4.398 2 6 .078 8.915 3.078 16.582 9 23 .333 1 1 1.667 2 2 1.419 2.6 3.085 5.1 5 7.5a76.203 76.203 0 0 0 20 11.5c9.34 2.607 18.674 2.607 28 0 .992.172 1.658-.162 2-1 4.112-1.222 7.779-3.222 11-6 5.74-3.406 10.074-8.072 13-14 5.29-5.501 8.291-12.167 9-20 .838-.342 1.172-1.008 1-2 .204-3.018.537-6.018 1-9h1v55H-.5v-56z"/><path style="opacity:1" fill="#626060" d="M74.5 87.5c-.091 2.198.576 2.531 2 1 .418.722 1.084 1.222 2 1.5-2.118.26-3.784 1.26-5 3 2.757.584 5.423.25 8-1l-2-1c1.772-1.487 3.772-1.82 6-1-1.196.654-1.196 1.154 0 1.5a186.2 186.2 0 0 1 3-2c.17 1.322-.163 2.489-1 3.5-1.941 1.903-4.274 2.736-7 2.5.284 1.915-.049 3.581-1 5-.787 1.604-2.12 2.271-4 2a12.93 12.93 0 0 0-5 .5c1.493 1.156 1.326 1.99-.5 2.5-1.098-.884-1.598-1.884-1.5-3-2.652 4.022-3.486 3.688-2.5-1-1.044 1.123-1.71 2.456-2 4-.383-.556-.883-.889-1.5-1v-6c2.163.78 2.496-.053 1-2.5 1.634-.493 3.3-.66 5-.5-.25-2.714-.417-5.38-.5-8 1.113 1.211 2.28 1.211 3.5 0a6.807 6.807 0 0 1 1.5 3c.232-1.237.732-2.237 1.5-3z"/><path style="opacity:1" fill="#2b1716" d="M51.5 77.5c-2.948 4.233-5.114 8.9-6.5 14a25.548 25.548 0 0 1-6.5 5 42.618 42.618 0 0 1 1.5-5l1 2c1.481-.97 2.315-2.304 2.5-4 1.641-2.776 3.141-5.776 4.5-9 .759-1.563 1.926-2.563 3.5-3z"/><path style="opacity:1" fill="#332321" d="M64.5 89.5c1.098 1.1 1.265 2.434.5 4-.667-1.333-1.333-1.333-2 0-.493 1.634-.66 3.3-.5 5-1.123-1.788-1.29-3.788-.5-6 1.417-.578 2.25-1.578 2.5-3z"/><path style="opacity:1" fill="#c0c1c1" d="M79.5 100.5c-4.755 1.458-5.089.791-1-2-.333-1-1-1.667-2-2-1.972.805-3.472 2.138-4.5 4l-1-2c-.718.95-1.55 1.117-2.5.5a12.134 12.134 0 0 1 3.5-4.5c1.395.93 2.895.93 4.5 0 2.475 1.177 3.475 3.177 3 6z"/><path style="opacity:1" fill="#e2e312" d="M49.5 95.5c1.603 1.096 3.103 2.43 4.5 4 .18 1.988.014 3.988-.5 6-1.238.912-2.572 1.079-4 .5-3.643-4.283-5.143-4.117-4.5.5a14.696 14.696 0 0 0-3.5-3c.401-1.491.568-3.158.5-5l1 1c1.026-3.193 3.192-4.526 6.5-4z"/><path style="opacity:1" fill="#431711" d="M49.5 95.5c-3.308-.526-5.474.807-6.5 4l-1-1c.068 1.842-.099 3.509-.5 5-.968-2.107-1.302-4.44-1-7a29.313 29.313 0 0 0 6.5-2c1.07.028 1.903.361 2.5 1z"/><path style="opacity:1" fill="#3c2c26" d="M49.5 95.5c2.357-.163 4.69.003 7 .5 1.256.417 1.923 1.25 2 2.5-3.636-1.865-4.636-1.032-3 2.5-.025 1.876-.691 3.376-2 4.5.514-2.012.68-4.012.5-6-1.397-1.57-2.897-2.904-4.5-4z"/><path style="opacity:1" fill="#1d1614" d="M38.5 96.5c-.8 2.183-2.3 3.849-4.5 5-1.337 4.007-3.17 7.673-5.5 11a52.316 52.316 0 0 1 4.5-12c1.451-1.964 3.284-3.297 5.5-4z"/><path style="opacity:1" fill="#6e6628" d="M53.5 105.5c-.754 2.591-2.421 4.424-5 5.5.556.383.89.883 1 1.5l-8-9c1.294.79 2.46 1.79 3.5 3-.643-4.617.857-4.783 4.5-.5 1.428.579 2.762.412 4-.5z"/><path style="opacity:1" fill="#403938" d="M58.5 98.5c1.398 1.277 2.064 2.943 2 5-.672 2.332-.84 4.666-.5 7 1.663-1.658 2.496-3.658 2.5-6 .617.111 1.117.444 1.5 1 .29-1.544.956-2.877 2-4-.986 4.688-.152 5.022 2.5 1-.098 1.116.402 2.116 1.5 3 1.826-.51 1.993-1.344.5-2.5a12.93 12.93 0 0 1 5-.5c-.709.904-1.709 1.237-3 1 .17 1.322-.163 2.489-1 3.5 2.314 1.087 3.648 2.921 4 5.5a20.691 20.691 0 0 0-5-1c-3.052 3.165-3.385 6.832-1 11 1.505-2.631 2.171-2.297 2 1-1.291-.237-2.291.096-3 1-1.291.237-2.291-.096-3-1 .876.131 1.543-.202 2-1-1.295-2.866-1.295-5.699 0-8.5-2.416-2.615-5.25-3.115-8.5-1.5a8.435 8.435 0 0 1-.5-4 4.934 4.934 0 0 1-3-.5c1.904-2.877 2.904-6.044 3-9.5z"/><path style="opacity:1" fill="#5b5656" d="M4.5 94.5c.312 5.354 1.979 10.354 5 15 3.715-2.382 6.715-5.382 9-9a2.427 2.427 0 0 0 .5 2 7.292 7.292 0 0 1 2-3c.317 1.801.984 2.134 2 1 .333 1.547-.167 2.88-1.5 4a15.653 15.653 0 0 1 2.5 4l1-1c.667 1 .667 2 0 3-1.402 2.473-2.902 2.473-4.5 0 1.402-1.342 1.069-2.176-1-2.5-.096-1.373.07-2.873.5-4.5a20.477 20.477 0 0 0-2.5 3.5c-3.79.786-6.79 2.786-9 6a19.21 19.21 0 0 1 3 6.5c-5.922-6.418-8.922-14.085-9-23 .768.763 1.268 1.763 1.5 3 .494-1.634.66-3.3.5-5z"/><path style="opacity:1" fill="#b8baba" d="M70.5 111.5c-.996-.086-1.83.248-2.5 1-.5-1.167-1.333-2-2.5-2.5 2.076-1.165 4.243-1.665 6.5-1.5l1.5 1.5c-1.237.232-2.237.732-3 1.5z"/><path style="opacity:1" fill="#9b9a9c" d="M58.5 98.5c-.096 3.456-1.096 6.623-3 9.5a4.934 4.934 0 0 0 3 .5 8.435 8.435 0 0 0 .5 4c3.25-1.615 6.084-1.115 8.5 1.5-1.295 2.801-1.295 5.634 0 8.5-.457.798-1.124 1.131-2 1l-2-1c.221-1.235.888-2.235 2-3l-2-1a26.078 26.078 0 0 0 0-5.5l-1-.5a6.807 6.807 0 0 0-1.5 3c-1.087-2.432-1.587-2.098-1.5 1-1.175.219-2.175-.114-3-1 .985-1.598 1.151-3.265.5-5-2.135 1.778-4.635 2.445-7.5 2-.11-.617-.444-1.117-1-1.5 2.579-1.076 4.246-2.909 5-5.5 1.309-1.124 1.975-2.624 2-4.5-1.636-3.532-.636-4.365 3-2.5z"/><path style="opacity:1" fill="#e1e20f" d="M70.5 111.5c1.716.129 3.383.462 5 1 .342.838 1.008 1.172 2 1a362.91 362.91 0 0 0 3 6c.107 1.879-.393 2.212-1.5 1-1.848 2.541-4.348 3.541-7.5 3 .171-3.297-.495-3.631-2-1-2.385-4.168-2.052-7.835 1-11z"/><path style="opacity:1" fill="#222323" d="M101.5 99.5c-.709 7.833-3.71 14.499-9 20a121.958 121.958 0 0 1 6-12.5c-.183-1.684-.85-1.85-2-.5.296-1.903.963-3.57 2-5a4.932 4.932 0 0 0 .5 3c.47-2.572 1.303-4.239 2.5-5z"/><path style="opacity:1" fill="#471d20" d="M77.5 113.5c2.469 1.107 3.469 3.107 3 6a362.91 362.91 0 0 1-3-6z"/><path style="opacity:1" fill="#241e1d" d="M63.5 122.5a23.923 23.923 0 0 0-5.5-5c-.67.752-1.504 1.086-2.5 1-.321-1.548-1.321-2.215-3-2 .93-.815 1.93-1.648 3-2.5-2.208-.191-4.208-.691-6-1.5 2.865.445 5.365-.222 7.5-2 .651 1.735.485 3.402-.5 5 .825.886 1.825 1.219 3 1-.087-3.098.413-3.432 1.5-1a6.807 6.807 0 0 1 1.5-3l1 .5a26.078 26.078 0 0 1 0 5.5l2 1c-1.112.765-1.779 1.765-2 3z"/><path style="opacity:1" fill="#280d08" d="M28.5 112.5c-1.355 3.355-3.689 5.689-7 7 2.075-2.742 4.409-5.076 7-7z"/><path style="opacity:1" fill="#261e1b" d="M52.5 116.5a88.81 88.81 0 0 1-6.5 5c-.075-2.435-.908-3.102-2.5-2 .955-2.21 2.455-2.543 4.5-1 1.11-1.537 2.61-2.203 4.5-2z"/><path style="opacity:1" fill="#241412" d="M55.5 118.5c-2.514 3.144-5.847 5.144-10 6 .584-1.757 1.751-3.09 3.5-4a91.267 91.267 0 0 0 6.5-2z"/><path style="opacity:1" fill="#8a8c8c" d="M52.5 116.5c1.679-.215 2.679.452 3 2a91.267 91.267 0 0 1-6.5 2c-1.749.91-2.916 2.243-3.5 4-.333 1-1 1.667-2 2a2.429 2.429 0 0 1-2-.5c2.048-1.226 2.381-2.726 1-4.5-.172-.992.162-1.658 1-2 1.592-1.102 2.425-.435 2.5 2a88.81 88.81 0 0 0 6.5-5z"/><path style="opacity:1" fill="#2e1e1c" d="M42.5 121.5c1.381 1.774 1.048 3.274-1 4.5a2.429 2.429 0 0 0 2 .5c-2.056 3.362-5.056 5.196-9 5.5 7.101-4.995 6.435-6.995-2-6 3.883-.454 7.216-1.954 10-4.5z"/><path style="opacity:1" fill="#6c120d" d="M80.5 119.5c.934 1.068 1.268 2.401 1 4a77.1 77.1 0 0 1-13 1c.709-.904 1.709-1.237 3-1 3.152.541 5.652-.459 7.5-3 1.107 1.212 1.607.879 1.5-1z"/><path style="opacity:1" fill="#67534f" d="M21.5 119.5c-1.609 1.398-2.442 3.065-2.5 5 11.162 11.326 24.662 15.993 40.5 14l-16 2c-1.784-1.22-3.45-1.22-5 0a76.203 76.203 0 0 1-20-11.5 51.832 51.832 0 0 1-5-7.5c.958.453 1.792 1.119 2.5 2 1.451-1.964 3.284-3.297 5.5-4z"/><path style="opacity:1" fill="#141414" d="M92.5 119.5c-2.926 5.928-7.26 10.594-13 14 4.311-4.646 8.645-9.313 13-14z"/><path style="opacity:1" fill="#9c9696" d="M92.5 119.5a30031.34 30031.34 0 0 0-13 14c-4.628 1.453-8.294 3.453-11 6-.342.838-1.008 1.172-2 1-7.451.99-15.118.99-23 0l16-2c17.925-4.262 30.258-14.928 37-32 1.15-1.35 1.817-1.184 2 .5a121.958 121.958 0 0 0-6 12.5z"/><path style="opacity:1" fill="#1e1d1d" d="M79.5 133.5c-3.221 2.778-6.888 4.778-11 6 2.706-2.547 6.372-4.547 11-6z"/><path style="opacity:1" fill="#030204" d="M38.5 140.5c1.55-1.22 3.216-1.22 5 0 7.882.99 15.549.99 23 0-9.326 2.607-18.66 2.607-28 0z"/></svg>