<svg xmlns="http://www.w3.org/2000/svg" height="490" width="410"><path d="M5 5v280c0 110.457 89.543 200 200 200s200-89.543 200-200V5z" fill="#fcdd09"/><path d="M83 167h9m10 1h9" fill="none" stroke="#0000f9"/><path d="M5.728 248h127v45h-127z" fill-rule="evenodd" stroke="#000" stroke-linecap="round" stroke-linejoin="round"/><path d="M19.728 259h-9v21h22v-9h-13zm46-.082h-9V271l-13-.082v9h35v-9h-13zm47 0h-9V271l-13-.082v9h35v-9h-13z" fill="#fcdd09" fill-rule="evenodd" stroke="#fcdd09" stroke-linecap="round" stroke-linejoin="round"/><path d="M5.974 293h126.925L134 380H26.784c-14.434-28.384-18.331-57.801-20.81-87z" fill="#da121a" fill-rule="evenodd" stroke="#000" stroke-width="3" stroke-linecap="round" stroke-linejoin="round"/><path d="M108.728 359v22m-46-22v22m22-43v21m-47-22v22m71-44v22m-46-22v22m22-43v21m-47-22v22m-31 0h126m-122 22h122m-115 22h115" fill="none" stroke="#000" stroke-width="3"/><path d="M21.728 143h87v105h-87z" fill="#da121a" fill-rule="evenodd" stroke="#000" stroke-width="3" stroke-linejoin="round"/><path d="M21.728 148h87m-87 15h87" fill="none" stroke="#000" stroke-width="3"/><path d="M31.728 148v15h10v-15h-10m19 0v15h10v-15h-10m19 0v15h10v-15h-10m19 0v15h10v-15h-10" fill-rule="evenodd"/><path d="m116.728 143-51.5-76-51.5 76z" fill-rule="evenodd" stroke="#000" stroke-width="2" stroke-linecap="round" stroke-linejoin="round"/><path d="M65.228 67v-9" fill="none" stroke="#000" stroke-width="3" stroke-linecap="round"/><path d="M62.228 54.8c0-4 6-4 6 0s-6 4-6 0z" fill-rule="evenodd" stroke="#000"/><path d="M406.272 248h-129v45h129z" fill-rule="evenodd" stroke="#000" stroke-linecap="round" stroke-linejoin="round"/><path d="M390.272 259h9v21h-22v-9h13zm-46-.082h9V271l13-.082v9h-35v-9h13zm-47 0h9V271l13-.082v9h-35v-9h13z" fill="#fcdd09" fill-rule="evenodd" stroke="#fcdd09" stroke-linecap="round" stroke-linejoin="round"/><path d="M406.026 293H277.101L276 380h107.216c11.476-31.448 17.997-57.654 22.81-87z" fill="#da121a" fill-rule="evenodd" stroke="#000" stroke-width="3" stroke-linecap="round" stroke-linejoin="round"/><path d="M301.272 359v22m46-22v22m-22-43v21m47-22v22m-71-44v22m46-22v22m-22-43v21m47-22v22m31 0h-126m122 22h-122m115 22h-115" fill="none" stroke="#000" stroke-width="3"/><path d="M388.272 143h-87v105h87z" fill="#da121a" fill-rule="evenodd" stroke="#000" stroke-width="3" stroke-linejoin="round"/><path d="M388.272 148h-87m87 15h-87" fill="none" stroke="#000" stroke-width="3"/><path d="M378.272 148v15h-10v-15h10m-19 0v15h-10v-15h10m-19 0v15h-10v-15h10m-19 0v15h-10v-15h10" fill-rule="evenodd"/><path d="m293.272 143 51.5-76 51.5 76z" fill-rule="evenodd" stroke="#000" stroke-width="2" stroke-linecap="round" stroke-linejoin="round"/><path d="M344.772 67v-9" fill="none" stroke="#000" stroke-width="3" stroke-linecap="round"/><path d="M347.772 54.8c0-4-6-4-6 0s6 4 6 0z" fill-rule="evenodd" stroke="#000"/><g fill-rule="evenodd"><path d="M130 380V210h20v-45h20v-40h20V80h30v45h20v40h20v45h20v170" fill="#da121a" stroke="#000" stroke-width="3" stroke-linecap="round" stroke-linejoin="round"/><path d="M199 128h12v21h-12z"/><path d="M172.5 380v-70c0-40 65-40 65 0v70z" fill="#fcdd09" stroke="#000" stroke-width="3" stroke-linecap="round" stroke-linejoin="round"/><path d="M163 213h20v29h-20v-29m84 0h-20v29h20v-29m-69-38h15v30h-15zm54 0h-15v30h15z"/></g><path d="M30.102 380h349.643C345.225 444.172 278.175 485.442 205 485c-73.174-.443-135.744-42.75-174.898-105z" fill="#0f47af" fill-rule="evenodd" stroke="#000" stroke-width="3"/><path d="M5 5v280c0 110.457 89.543 200 200 200s200-89.543 200-200V5z" fill="none" stroke="#000100" stroke-width="8"/></svg>