<svg xmlns="http://www.w3.org/2000/svg" height="522" width="452"><path fill="#da121a" d="M446 6H6v280c0 130 85 230 220 230s220-100 220-230V6"/><g stroke-width="3" stroke="#000"><g stroke-linejoin="round"><g stroke-linecap="round"><g fill-rule="evenodd"><path fill="#0f47af" d="M109 131h235l-55-80H164z"/><path fill="none" d="M199 51v20m-27 0v20m53-20v20m26-40v20m30 0v20m41 20v20m-20-40v20m-21 0v20m-30-40v20m-26 0v20m-26-40v20m-52-20v20m25 0v20m-40-20v20m5-40h179M151 71h150m-178 40h207"/></g><g fill="#fcdd09"><circle cx="289" cy="39.5" r="11.5"/><circle cx="164" cy="39.5" r="11.5"/><path fill-rule="evenodd" color="#000" d="M225.94 214.943A4 4 0 0 0 222 219v25h-14v-10a4 4 0 1 0-8 0v10h-8a4 4 0 1 0 0 8h8v22h-14v-12a4 4 0 1 0-8 0v12h-4a4 4 0 1 0 0 8h4v22h-11a4 4 0 1 0 0 8h11v22a4 4 0 1 0 8 0v-22h14v22a4 4 0 1 0 8 0v-22h14v22a4 4 0 1 0 8 0v-22h14v22a4 4 0 1 0 8 0v-22h14v22a4 4 0 1 0 8 0v-22h11a4 4 0 1 0 0-8h-11v-22h4a4 4 0 1 0 0-8h-4v-12a4 4 0 1 0-8 0v12h-14v-22h8a4 4 0 1 0 0-8h-8v-9a4 4 0 1 0-8 0v9h-14v-25a4 4 0 0 0-4.06-4.057zM208 252h14v22h-14v-22zm22 0h14v22h-14v-22zm-44 30h14v22h-14v-22zm22 0h14v22h-14v-22zm22 0h14v22h-14v-22zm22 0h14v22h-14v-22z"/></g><g fill-rule="evenodd"><g fill="#fff"><path d="M129 373c-18.6-26-31-43-52-45-1.7-21.5-6.7-44-30-55v-5h16c17.3 17.3 22.9 33 24.9 48 16.7 8.9 29 17.5 41 37.9"/><path d="M129 354c-7.3-20.3-33.8-68-66-86h18c22.3 17 36.5 38 48 60zM129 268H47v-89h16v28h22l.2-28H101v42h28z"/></g><path fill="#0f47af" d="M34 179h80L74 97z"/><path fill="#fff" d="M167 310v199c-22.8-6.1-45-14-66-28v-47h28V131h22v32h38v-32h20v32h34v-32h20v32h38v-32h22v303h28v45c-22 16-44 23.6-66 30V310c0-30-27-74-59-90-32 16-59 60-59 90z"/></g></g><path fill="none" d="m73 221-.2 47m-26-24h82m-82-23h54v47m-54-61h54m-42-53v25m30-25v25m-15-48v23m-16-23h32m-44 23h55"/><g stroke-linecap="round"><circle fill="#fcdd09" cx="74" cy="85" r="11.5"/><g fill-rule="evenodd"><g fill="#fff"><path d="M323 373c18.6-26 31-43 52-45 1.7-21.5 6.7-44 30-55v-5h-16c-17.3 17.3-22.9 33-24.9 48-16.7 8.9-29 17.5-41 37.9"/><path d="M323 354c7.3-20.3 33.8-68 66-86h-18c-22.3 17-36.5 38-48 60zM323 268h82v-89h-16v28h-22l-.2-28H351v42h-28z"/></g><path fill="#0f47af" d="M418 179h-80l40-82z"/></g></g><path fill="none" d="m379 221 .2 47m26-24h-82m82-23h-54v47m54-61h-54m42-53v25m-30-25v25m15-48v23m16-23h-32m44 23h-55"/><circle stroke-linecap="round" fill="#fcdd09" cx="-378" cy="85" r="11.5" transform="scale(-1 1)"/></g><path fill="none" d="M169 241v30m-20-65v35m40-35v31m-20-66v35m40-35v35m35-35v35m40-35v35m0 35v30m15-65v35m-5 225 57 .4M129 496v-62l27.9.1m-55.9 32 55-.4m139-32h28v62m-29-95h28m-193 0h27m-27-32h27.4m138 0h28m-193-33h28m137 0h28m-29.9-33h31.9m-195 0h30m136 204v-181c0-45-22.6-92-69-120-46 27.5-69 75-69 120v181m-28-236h39.7m115 0h39m-194-30h57m80 0h56m-193-35h194m-194-35h194m-194-8h194"/></g><path stroke-width="6" stroke-linecap="round" stroke-linejoin="round" stroke="#000" fill="none" d="M446 6H6v280c0 130 85 230 220 230s220-100 220-230V6"/><g fill-rule="evenodd"><path d="M190 491.8c20-8.2 49.7-8.4 75-12.3-.8 15-24 16.3-46 15-7.9-3.6-20.9-3.3-28.6-2.7"/><g stroke="#000" stroke-linejoin="round" stroke-width="3"><path d="M191 493.6c3.7-1.3 7.4.1 9.9-8.1 3.5 10.5 7.7 11.3 10-2.8.5 10.3 6.2 5.3 10.4 2.5 1.6 6.4 3.9 9.7 8.3 1.6-1.9 14 6.2 11.6 6.5 0 .6 12.9 4.5 9.9 7.6-1.9-.3 11.5 4.9 11.4 6.1 2.7 4.3 7.7 7.8 12.4 10.6-1.1l-.8-13.5c2.2 12.2 5 8.7 7.9 4.6-3-10.5-5.9-21-12.9-26-8-8.1-12.7-16.7-27-17.7-9.8-.7-26 8.8-30.4 21-7.9 10.4-6.5 23-6.1 38.6z" fill="#fff"/><path d="M191 483.6c-5-15.9-4.3-24.8.4-39-13.5-21.8-17.9-47.8-7.8-67 8.4-16.5 22-25.6 43.5-26 21.7-.4 36 13.7 42.6 29.4 8.2 20 4.4 43-7.1 63 8.2 9.5 4.6 26.8 4.8 34-2.3-9.7-5.6-19.5-11.3-24-6.6-9.9-13.4-8.6-19.9-17.6-5.4 2.4-10.9 5.5-16.3.2-8.8 7.1-18.5 14.4-20.7 19.5-7.1 10.8-5.1 25-8.3 28.5z" fill="#f2a772"/></g></g><g fill="#fff" color="#000"><path d="M180 396.8c4.1 1.6 4.8 4.5 10-.8l4.6-14.4c1.6 1.7 3.1 1.5 4.2-3.2l-1-16.6c-7.7 4.7-12.8 15.4-17 24zM254 360.8l.4.8c1.1 10.2 1.7 20.6 8 29 1.5 9.5 3.2 18.7 9.4 21.4-1.2-11 1.9-20.5-3.7-33.5z"/></g><g stroke="#000" stroke-linejoin="round" stroke-linecap="round"><g fill="none"><g fill-rule="evenodd" stroke-width="3"><path d="M204 416.1c3.9-3.4 11.9-4.7 15.6-.8m20-2.1c5.2-2.3 9.3-2.7 13 2.2M264 392.1c-1.3 8.5 4.9 17.7 8.4 22-2.8-12-1.1-19.6-.7-31 0 12.6.9 20.9 1.6 28M204 399.1c5.7-2.4 13.9-2.3 17.7-.4M257 399.1c-11-2.8-15.6-1.5-21 .8m-5.2 3.5c-.7 6.9-2.1 18.4-2.5 36M206 407.1c5.4-2.8 10.5-1.1 13.9-.5M244 406.1c5.4-1 7.5-.8 11.3.9M215 451.1c9.7-1.3 20-.8 30.8-.2-11.3 2.2-23.8 3.9-30.5.3M194 450.1c-2.3 10.9-.8 16.6-.2 23M198 362.1l1.7 21.8c-5.6-.7-5.1-15-6.3-18.9l1.6 20.6c-3.1 1.7-2.6 14.7-3.2 24l-5.4-38 .6 39.7c-3-6.7-4.1-19-5.8-29.6-.6 13.3 1.1 28.6.7 35.4M255 361.1c1.6 11.2 1.7 21 8.8 30.4.9-7-.6-12 3.5-19-4.6 1.1-2.3-3.2-3.8-5.4l-1.2 7.4-3.1-11.5"/><path d="M211 444.1c2.2 7 7.2 10.8 8.7 1.1 3.9 10.5 7.3 6.9 8-5.1-1.3 9.3 4.6 13.9 7.5 4.8 1.1 6.5 2.9 9.3 6.7 1.2-.6 5.5.4 7.7 3.9 4.8 3 6.1 8.5 3.2 7.4 8.7 1.8-1.9.8-4.6 1.3-9.2M206 449.1c0 9.4-.2 14.5.9 14.5 1.1.1 3.4-5.6 7.2-12.2M215 466.1c-4.7 5.6-3.9 13-3.2 18.6M237 470.1c.7 7-.7 13.3-1 17.8M250 468.1c2.4 9.7.9 17 .6 22M202 474.1c-1.3 7-.8 9.6-.2 12M222 473.1c1.1 3.9-.9 9.5-1 13.4M244 477.1c.8 3.3-.1 8.9-.7 9.5"/></g><g fill-opacity="0" color="#000" stroke-miterlimit="0"><path d="M206 415.9c4.1 5 8.8 3.9 13.6.3M240 413.9c3.9 4.7 8.3 4.1 12.9 1.9"/></g></g><g color="#000" stroke-miterlimit="0"><path d="M209 413.9c1.6 2.8 3.9 3.4 7.3-.1M244 411.9c1.5 4.6 4 3.7 6.9 1"/><path d="M219 433.9c5.2 5.9 13.7 6.5 19.9-.5" fill="none" stroke-width="3"/></g></g></svg>