<svg xml:space="preserve" width="466.203" height="559.907" xmlns="http://www.w3.org/2000/svg"><path d="M327.406 631.946c11.15-30.242 37.016-49.798 68.584-60.563 79.972-27.271 117.263-84.645 123.21-144.067 3.047-30.43-1.263-61.135-5.614-91.766-7.602-53.52 2.406-85.91 39.145-100.43l-33.13-97.702c-33.93 6.177-74.932 3.548-125.215-28.556-18.943-12.095-40.108-18.049-66.98-18.049-26.792 0-47.967 5.938-66.98 18.049-50.374 32.088-91.365 34.733-125.216 28.556l-33.048 97.783c36.738 14.599 46.793 46.996 39.145 100.43-4.386 30.638-8.661 61.335-5.615 91.766 5.947 59.421 43.226 116.83 123.21 144.066 31.48 10.72 57.434 30.241 68.504 60.483z" style="stroke:none;stroke-width:4.5;stroke-linecap:butt;stroke-linejoin:miter;stroke-miterlimit:10;stroke-dasharray:none;fill:#fff" transform="translate(-94.346 -83.563)"/><path style="fill:#da121a;stroke:#000;stroke-width:3.5;stroke-linecap:butt;stroke-linejoin:miter;stroke-miterlimit:10;stroke-dasharray:none" d="M243.662 118.625c-20.18 10.733-38.756 16.722-55.91 19.488v392.682c15.076 13.664 33.59 25.551 55.91 34.879zm167.568.063v446.9c22.282-9.32 40.768-21.19 55.83-34.826V138.13c-17.143-2.755-35.695-8.73-55.83-19.444zm-83.824-27.876c-10.064 0-19.334.84-27.996 2.528v499.986c12.448 10.186 22.254 22.931 27.996 38.62 5.767-15.64 15.523-28.367 27.914-38.553V93.32c-8.63-1.672-17.872-2.507-27.914-2.507z" transform="translate(-94.346 -83.563)"/><path style="fill:#0f47af;stroke:#000;stroke-width:3.5;stroke-linecap:butt;stroke-linejoin:miter;stroke-miterlimit:10;stroke-dasharray:none" d="M299.41 93.34c-14.398 2.806-27.114 7.96-38.984 15.521-50.374 32.088-91.364 34.734-125.215 28.557l-33.049 97.783c24.656 9.798 37.244 27.657 40.578 54.465h156.67z" transform="translate(-94.346 -83.563)"/><path d="M327.406 631.946c11.15-30.242 37.016-49.798 68.584-60.563 79.972-27.271 117.263-84.645 123.21-144.067 3.047-30.43-1.263-61.135-5.614-91.766-7.602-53.52 2.406-85.91 39.145-100.43l-33.13-97.702c-33.93 6.177-74.932 3.548-125.215-28.556-18.943-12.095-40.108-18.049-66.98-18.049-26.792 0-47.967 5.938-66.98 18.049-50.374 32.088-91.365 34.733-125.216 28.556l-33.048 97.783c36.738 14.599 46.793 46.996 39.145 100.43-4.386 30.638-8.661 61.335-5.615 91.766 5.947 59.421 43.226 116.83 123.21 144.066 31.48 10.72 57.434 30.241 68.504 60.483z" style="stroke-width:4.5;stroke-linecap:butt;stroke-linejoin:miter;stroke-miterlimit:10;stroke-dasharray:none;fill:none;stroke:#000" transform="translate(-94.346 -83.563)"/></svg>