<svg height="529" width="472.851" xmlns="http://www.w3.org/2000/svg"><path d="M153.417 534.898h243.37c1.715-24.624 2.015-44.779 2.718-52.965 1.12-13.03 1.979-33.176 5.634-55.148 2.278-13.7 7.404-25.646 11.696-31.477-14.076-9.02-23.675-19.764-33.387-30.494-47.63 4.723-88.783-1.754-108.346-8.499-19.562 6.745-60.715 13.222-108.345 8.5-9.712 10.729-19.311 21.472-33.387 30.493 4.292 5.831 9.418 17.777 11.696 31.477 3.655 21.972 4.515 42.118 5.634 55.148.703 8.186 1.002 28.34 2.717 52.965z" style="fill:#0f47af;fill-rule:evenodd;stroke:#000;stroke-width:.216;stroke-linecap:butt;stroke-linejoin:miter;stroke-dasharray:none" transform="matrix(1.59837 0 0 1.59837 -203.289 -560.927)"/><path d="M387.006 388.916c.26-3.564-10.97-7.477-14.191 1.912-.665 1.262 1.438 3.568 2.197 2.064 2.573-5.093 6.7-7.294 9.409-1.543.67 1.425 2.275-1.09 2.585-2.433z" style="fill:#fff;fill-rule:evenodd;stroke:#000;stroke-width:2.2677;stroke-linecap:butt;stroke-linejoin:miter;stroke-dasharray:none" transform="matrix(1.59837 0 0 1.59837 -203.289 -560.927)"/><path d="M389.642 386.5c1.57 4.518-.17 7.7-1.833 9.574-.104 1.878-.475 3.543-1.037 4.994.655 2.467.214 6.83-.386 9.485-.686 3.034-2.783 5.23-6.504 6.505-3.721 1.275-7.47-.036-11.46-3.098-3.99-3.061-9.631-.857-11.92.727-2.287 1.585-5.442 2.092-7.901.556-3.8 4.413-.957 11.026 2.785 14.41 3.741 3.385 8.527 7.788 9.275 12.519 2.521-1.659 6.174-2.608 10.445-2.813 6.356-.306 12.282-1.935 14.145-4.956 1.862-3.021.904-6.07-1.768-6.455-2.672-.386-4.502.328-4.927 5.144-3.856-1.1-2.746-7.642 2.152-9.101 4.898-1.46 10.742 2.844 10.436 7.79-.306 4.947-5.299 11.124-10.54 13.05-5.24 1.925-17.076 5.144-18.728 10.437-1.24 3.969-2.185 7.497-3.193 10.25-.335.919-.763 1.665-1.04 2.485.728-.264 1.463-.862 2.249-1.266 2.86-1.47 6.389-2.632 12.688-2.752 5.883-.112 13.439-1.51 14.013-6.042.375-2.964-2.263-5.463-4.556-5.733-2.292-.269-6.02.225-4.323 4.287-2.736.355-3.659-1.598-3.47-3.371.267-2.506 3.732-4.346 7.046-4.579 4.521-.317 10.457 3.283 9.54 10.725-.222 1.801-.61 3.362-1.113 4.701 2.67 7.858-1.992 12.135-9.629 13.793-7.637 1.658-15.892-.224-22.404 5.265-6.156 5.19-8.19 11.284-9.715 16.787.697-.595 1.42-1.11 2.168-1.526 5.587-3.11 11.893-2.398 14.465-2.085 4.573.556 9.918.23 10.42-3.7.5-3.93 3.168-3.318 3.001-.08-.132 2.58-1.278 4.494-3.792 5.814-.642.337-1.55.502-2.196.897 1.66.563 4.966.828 8.251-.922 3.285-1.75 5.364-7.145 3.416-10.229-1.948-3.084-5.45-4.169-8.363-3.407-2.914.762-4.866 3.427-4.543 6.401-5.73-1.301-2.697-7.704 3.098-9.601 5.794-1.898 10.316.438 12.699 4.13 2.382 3.691 4.078 11.893-1.446 17.138-5.523 5.246-13.407 5.6-16.956 5.464-2.551-.097-7.503-1.016-11.357-.549-1.509.184-3.226.516-3.813 1.32.895-.06 1.942-.396 3.08-.317 4.466.31 10.338 3.136 13.949 4.66 4.533 1.914 9.753 2.684 12.62.882 2.866-1.8 3.045-4.488 1.223-7.393 4.722-2.54 5.995 2.384 4.455 6.877-1.54 4.494-9.829 9.282-17.798 5.583-7.97-3.699-16.514-6.136-22.626-2.168-5.055 3.282-8.372 7.091-8.618 16.924-.246 9.834-12.71 5.442-12.71-.443s5.741-22.343 7.96-30.117c2.22-7.774 6.31-18.162 9.706-24.676 3.397-6.514 6.143-13.546 7.227-22.507 1.084-8.962-3.15-17.037-8.776-22.715-5.627-5.677-5.145-16.772-2.172-23.44-5.233-3.834-8.363-9.666-6.397-15.425 1.965-5.758 8.862-8.681 11.753-9.817 2.891-1.136 5.282-1.266 6.587-4.04 1.305-2.774 4.886-4.368 7.575-5.095 2.688-.727 6.313-1.542 7.457-1.685 1.144-.144 3.248-.236 4.854-2.651 2.841 2.539-.734 4.68-3.211 5.403-2.478.723-5.974 1.294-8.068 2.753-2.094 1.459-5.773 3.583-6.975 7.227 5.05-.103 10.014-.174 15.082 2.837 5.068 3.012 11.56 4.525 14.554 1.545 2.994-2.98 4.366-7.458-1.698-9.8-1.456-.562-5.006-.334-7.528.826-2.01.926-3.196 2.63-3.375 4.507-3.523-1.7-1.94-4.651-.76-6.168 1.182-1.516 6.74-4.995 12.642-2.478 5.44 2.321 6.714 5.658 6.609 8.529z" style="fill:#fff;fill-rule:evenodd;stroke:#000;stroke-width:2.2677;stroke-linecap:butt;stroke-linejoin:miter;stroke-dasharray:none" transform="matrix(1.59837 0 0 1.59837 -203.289 -560.927)"/><path d="M339.237 534.897h-12.4a4.388 4.388 0 0 1-.24-1.41c0-5.884 5.74-22.342 7.96-30.116.363-1.275.778-2.619 1.231-4.005h12.308l-.127.452c.183-.156.37-.307.556-.452h24.365c1.084.223 2.534.3 4.127 0h10.553a11.504 11.504 0 0 1-2.423 3.282c-5.524 5.245-13.407 5.6-16.956 5.464-2.551-.097-7.502-1.016-11.358-.548-1.508.183-3.225.516-3.812 1.319.895-.06 1.942-.396 3.08-.317 4.465.31 10.338 3.136 13.949 4.66 4.533 1.913 9.753 2.684 12.62.883 2.866-1.802 3.045-4.49 1.222-7.394 4.723-2.54 5.996 2.384 4.456 6.877s-9.829 9.282-17.798 5.583c-7.97-3.699-16.515-6.136-22.626-2.168-5.055 3.282-8.372 7.091-8.618 16.924-.009.34-.033.66-.07.966zM389.769 463.836H375.37c5.243-.465 10.736-2.055 11.222-5.893.375-2.964-2.263-5.463-4.556-5.732-2.291-.27-6.021.225-4.323 4.286-2.736.355-3.658-1.598-3.47-3.371.267-2.507 3.732-4.346 7.046-4.579 4.52-.317 10.457 3.283 9.54 10.725-.214 1.74-.583 3.255-1.061 4.564zm-30.505 0h-9.189a61.264 61.264 0 0 0 1.414-7.648c1.084-8.962-3.149-17.037-8.776-22.715-1.418-1.43-2.447-3.206-3.147-5.168h10.523c.413.49.848.942 1.297 1.348 3.741 3.385 8.527 7.787 9.275 12.518 2.52-1.658 6.174-2.608 10.445-2.812 6.356-.306 12.282-1.935 14.145-4.956 1.576-2.557 1.132-5.133-.662-6.098h5.76c.57 1.068.87 2.252.795 3.476-.306 4.946-5.299 11.124-10.54 13.05-5.24 1.925-17.077 5.144-18.728 10.437-1 3.201-1.808 6.115-2.612 8.568zm17.176-35.531h4.1c-1.046.638-1.742 2.05-1.984 4.787-2.05-.585-2.696-2.708-2.116-4.787z" style="fill:#da121a;fill-rule:evenodd;stroke:#000;stroke-width:1.7008;stroke-linecap:butt;stroke-linejoin:miter;stroke-dasharray:none" transform="matrix(1.59837 0 0 1.59837 -203.289 -560.927)"/><path d="M354.1 385.894c.404-.008.808-.016.824.793.016.808-.388.817-.793.825-5.805.118-9.66 1.855-13.687 5.824 2.223-4.93 8.268-7.332 13.656-7.441z" style="fill:#1b1918;fill-rule:evenodd;stroke:#000;stroke-width:.5669;stroke-linecap:round;stroke-linejoin:round;stroke-dasharray:none" transform="matrix(1.59837 0 0 1.59837 -203.289 -560.927)"/><path d="M388.376 396.686a12.25 12.25 0 0 1-.657.68c-1.074 1.021-2.777 2.194-4.826 3.104-1.647.731-3.533 1.298-5.517 1.49-2.452.237-5.432-.8-8.652-1.92-2.632-.914-5.434-1.89-8.132-2.214-5.657-.682-9.725-.007-13.92 4.104 1.507-5.682 10.514-6.143 14.11-5.71 2.856.345 5.752 1.352 8.472 2.298 3.047 1.06 5.867 2.04 7.97 1.837 1.788-.172 3.506-.692 5.018-1.363 1.87-.83 3.408-1.885 4.365-2.796a9.708 9.708 0 0 0 .562-.584c.269-.302.538-.604 1.14-.067.604.537.336.84.067 1.141zM349.027 414.558c.343.214.686.428.26 1.113-.427.686-.77.472-1.113.258-3.462-2.162-3.11-9.496.057-11.93-1.295 3.16-1.9 8.875.796 10.559zM364.755 407.25c2.493.748 4.901 2.244 7.604 3.922l1.094.68c1.687 1.038 4.426 1.673 7.19.76 2.059-.681 4.134-2.228 5.807-5.116.135-.233.27-.467.735-.197.466.27.33.503.196.736-1.824 3.148-4.115 4.844-6.4 5.6-3.1 1.024-6.187.304-8.093-.87-.63-.388-.879-.543-1.098-.679-2.638-1.638-4.988-3.098-7.342-3.805-4.172-1.252-8.416-.021-12.04 2.295 2.409-3.625 8.938-4.35 12.347-3.327z" style="fill:#000;fill-rule:evenodd;stroke:#000;stroke-width:.5669;stroke-linecap:round;stroke-linejoin:round;stroke-dasharray:none" transform="matrix(1.59837 0 0 1.59837 -203.289 -560.927)"/><path d="M387.524 401.358c-.903 2.333-2.272 4.15-3.827 5.454-1.794 1.503-3.838 2.33-5.71 2.485-3.8.313-7.513-2.24-10.932-4.593a79.046 79.046 0 0 0-2.27-1.522c-4.009-2.564-8.77-1.763-12.82.42 2.823-4.01 9.942-4.183 13.692-1.784.668.427 1.483.988 2.314 1.56 3.185 2.19 6.643 4.569 9.883 4.301 1.564-.128 3.284-.83 4.806-2.105 1.362-1.142 2.564-2.74 3.36-4.797.146-.377.292-.754 1.044-.463.751.29.606.668.46 1.045zM340.945 409.763c.084.256.167.512-.344.678-.512.167-.596-.09-.68-.345-1.231-3.767-1.753-8.766.885-12.655-1.29 4.779-1.27 8.016.139 12.322zM338.067 406.781c.095.252.19.504-.313.694-.504.19-.599-.063-.694-.315-1.458-3.853-1.434-7.894.263-11.971-.599 4.336-.684 7.82.744 11.592zM385.226 393.707c2.443-1.973 3.471-5.62 3.665-7.312.056-.494.053-.458.77-.433.735.026.277.738.22 1.238-.217 1.886-1.29 5.172-3.982 7.346-.933.753-4.735 2.39-8.104 1.723 2.291-.322 5.637-1.114 7.43-2.562zM370.865 471.672c3.91-.47 9.661-1.16 12.034-1.713 1.133-.265 2.37-.925 3.498-2.077.984-1.004 1.884-2.38 2.565-4.193.142-.379.285-.757 1.04-.473.755.284.612.663.47 1.041-.765 2.038-1.793 3.602-2.925 4.756-1.36 1.39-2.877 2.191-4.281 2.519-2.466.575-8.268 1.272-12.21 1.745-5.038.603-9.56 1.049-13.994 4.052 3.065-4.198 9.217-5.108 13.803-5.657zM375.96 443.288c-6.229 1.749-13.745 3.859-15.518 7.655-1.325 2.838-2.312 6.61-3.286 10.334-.26.995-2.464 7.565-4.265 10.978 1.208-4.309 2.905-10.023 3.225-11.247.986-3.77 1.985-7.59 3.353-10.52 1.982-4.244 9.757-6.428 16.2-8.237.902-.253 4.691-.815 8.067-2.205-2.674 2.083-7.028 3.032-7.776 3.242zM342.32 506.028c.896-3.755 1.825-6.949 2.843-9.878a86.642 86.642 0 0 1 3.36-8.244c1.27-2.733 3.194-5.655 6.585-8.031 1.645-1.153 7.816-3.914 15.813-4.215-7.814 1.38-12.752 3.388-15.194 5.1-3.205 2.245-5.024 5.01-6.227 7.596a85.617 85.617 0 0 0-3.322 8.148c-1 2.878-1.918 6.037-2.809 9.772-.062.262-.125.525-.65.4-.523-.124-.46-.386-.399-.648z" style="fill:#000;fill-rule:evenodd;stroke:#000;stroke-width:.5669;stroke-linecap:round;stroke-linejoin:round;stroke-dasharray:none" transform="matrix(1.59837 0 0 1.59837 -203.289 -560.927)"/><path d="M347.445 499.206c.307-.263.615-.526 1.139.087s.217.876-.09 1.138c-3.488 2.982-6.764 8.459-8.979 12.386 1.253-5.148 3.855-10.128 7.93-13.611zM372.127 505.21c-2.98.175-5.816-.19-8.548-.673-2.637-.466-5.608-1.065-9.098.017-3.675 1.139-9.75 5.689-13.379 10.352 3.307-6.071 10.772-10.67 13.063-11.38 3.753-1.163 6.848-.537 9.6-.05 2.659.469 5.416.825 8.299.655a28.72 28.72 0 0 0 9.743-2.245c-3.406 2.699-8.502 3.254-9.68 3.323zM340.697 519.895c-3.025 3.114-5.388 7.352-5.887 12.935-.024.269-.048.537-.587.49-.539-.045-.515-.314-.49-.582.523-5.86 3.01-10.315 6.192-13.592.712-.733 7.512-6.76 14.885-7.035-7.81 1.584-12.825 6.458-14.114 7.784zM371.97 469.632c-3.179.236-7.408.946-11.278 2.754-1.664.778-4.778 2.475-8.068 6.027 1.773-4.131 6.647-6.549 7.613-7 4.025-1.881 8.387-2.617 11.657-2.859 5.414-.4 11.311-1.378 15.363-5.338-3.17 5.149-9.838 6.013-15.287 6.416z" style="fill:#000;fill-rule:evenodd;stroke:#000;stroke-width:.5669;stroke-linecap:round;stroke-linejoin:round;stroke-dasharray:none" transform="matrix(1.59837 0 0 1.59837 -203.289 -560.927)"/><path d="M384.73 404.615c-.104.688-.207 1.31-.314 1.75-.507 2.087-4.151 5.265-7.042 4.556-2.891-.71-5.161-2.743-7.243-5.122l-.009-.011c2.541 1.613 5.187 2.916 7.798 2.7 2.285-.188 4.857-1.477 6.81-3.873zM383.384 399.344c-.168 3.866-3.246 5.629-6.418 5.214-2.65-.347-4.991-2.206-6.17-4.491a.7.7 0 0 1-.066-.19c2.461.828 4.72 1.46 6.57 1.28 2.22-.214 4.322-.93 6.084-1.813z" style="fill:#0f47af;fill-rule:evenodd;stroke:#000;stroke-width:1.7008;stroke-linecap:butt;stroke-linejoin:miter;stroke-dasharray:none" transform="matrix(1.59837 0 0 1.59837 -203.289 -560.927)"/><path d="M357.283 444.838c-.277-3.17-4.068-7.49-7.323-11.198-1.27-1.447-2.461-2.804-3.353-3.992-1.903-2.534-3.684-5.923-3.779-9.52-.071-2.738.826-5.582 3.37-8.244l.779.742c-2.317 2.424-3.135 5.002-3.07 7.476.087 3.335 1.766 6.513 3.56 8.902.86 1.147 2.042 2.492 3.302 3.928 2.925 3.333 6.268 7.144 7.292 10.404.127-.13.254-.25.367-.368a10.427 10.427 0 0 1 1.787-1.473c.338-.222.676-.444 1.121.232.446.676.108.899-.23 1.12-1.29.849-2.586 1.86-3.747 3.082a3.366 3.366 0 0 1-.076-1.09z" style="fill:#000;fill-rule:evenodd;stroke:#000;stroke-width:.5669;stroke-linecap:round;stroke-linejoin:round;stroke-dasharray:none" transform="matrix(1.59837 0 0 1.59837 -203.289 -560.927)"/><path d="M389.642 386.5c1.57 4.518-.17 7.7-1.833 9.574-.104 1.878-.475 3.543-1.037 4.994.655 2.467.214 6.83-.386 9.485-.686 3.034-2.783 5.23-6.504 6.505-3.721 1.275-7.47-.036-11.46-3.098-3.99-3.061-9.631-.857-11.92.727-2.287 1.585-5.442 2.092-7.901.556-3.8 4.413-.957 11.026 2.785 14.41 3.741 3.385 8.527 7.788 9.275 12.519 2.521-1.659 6.174-2.608 10.445-2.813 6.356-.306 12.282-1.935 14.145-4.956 1.862-3.021.904-6.07-1.768-6.455-2.672-.386-4.502.328-4.927 5.144-3.856-1.1-2.746-7.642 2.152-9.101 4.898-1.46 10.742 2.844 10.436 7.79-.306 4.947-5.299 11.124-10.54 13.05-5.24 1.925-17.076 5.144-18.728 10.437-1.24 3.969-2.185 7.497-3.193 10.25-.335.919-.763 1.665-1.04 2.485.728-.264 1.463-.862 2.249-1.266 2.86-1.47 6.389-2.632 12.688-2.752 5.883-.112 13.439-1.51 14.013-6.042.375-2.964-2.263-5.463-4.556-5.733-2.292-.269-6.02.225-4.323 4.287-2.736.355-3.659-1.598-3.47-3.371.267-2.506 3.732-4.346 7.046-4.579 4.521-.317 10.457 3.283 9.54 10.725-.222 1.801-.61 3.362-1.113 4.701 2.67 7.858-1.992 12.135-9.629 13.793-7.637 1.658-15.892-.224-22.404 5.265-6.156 5.19-8.19 11.284-9.715 16.787.697-.595 1.42-1.11 2.168-1.526 5.587-3.11 11.893-2.398 14.465-2.085 4.573.556 9.918.23 10.42-3.7.5-3.93 3.168-3.318 3.001-.08-.132 2.58-1.278 4.494-3.792 5.814-.642.337-1.55.502-2.196.897 1.66.563 4.966.828 8.251-.922 3.285-1.75 5.364-7.145 3.416-10.229-1.948-3.084-5.45-4.169-8.363-3.407-2.914.762-4.866 3.427-4.543 6.401-5.73-1.301-2.697-7.704 3.098-9.601 5.794-1.898 10.316.438 12.699 4.13 2.382 3.691 4.078 11.893-1.446 17.138-5.523 5.246-13.407 5.6-16.956 5.464-2.551-.097-7.503-1.016-11.357-.549-1.509.184-3.226.516-3.813 1.32.895-.06 1.942-.396 3.08-.317 4.466.31 10.338 3.136 13.949 4.66 4.533 1.914 9.753 2.684 12.62.882 2.866-1.8 3.045-4.488 1.223-7.393 4.722-2.54 5.995 2.384 4.455 6.877-1.54 4.494-9.829 9.282-17.798 5.583-7.97-3.699-16.514-6.136-22.626-2.168-5.055 3.282-8.372 7.091-8.618 16.924-.246 9.834-12.71 5.442-12.71-.443s5.741-22.343 7.96-30.117c2.22-7.774 6.31-18.162 9.706-24.676 3.397-6.514 6.143-13.546 7.227-22.507 1.084-8.962-3.15-17.037-8.776-22.715-5.627-5.677-5.145-16.772-2.172-23.44-5.233-3.834-8.363-9.666-6.397-15.425 1.965-5.758 8.862-8.681 11.753-9.817 2.891-1.136 5.282-1.266 6.587-4.04 1.305-2.774 4.886-4.368 7.575-5.095 2.688-.727 6.313-1.542 7.457-1.685 1.144-.144 3.248-.236 4.854-2.651 2.841 2.539-.734 4.68-3.211 5.403-2.478.723-5.974 1.294-8.068 2.753-2.094 1.459-5.773 3.583-6.975 7.227 5.05-.103 10.014-.174 15.082 2.837 5.068 3.012 11.56 4.525 14.554 1.545 2.994-2.98 4.366-7.458-1.698-9.8-1.456-.562-5.006-.334-7.528.826-2.01.926-3.196 2.63-3.375 4.507-3.523-1.7-1.94-4.651-.76-6.168 1.182-1.516 6.74-4.995 12.642-2.478 5.44 2.321 6.714 5.658 6.609 8.529z" style="fill:none;stroke:#000;stroke-width:2.2677;stroke-linecap:butt;stroke-linejoin:miter;stroke-dasharray:none" transform="matrix(1.59837 0 0 1.59837 -203.289 -560.927)"/><g><path d="M203.501 428.804c0 1.747-.77 4.026-2.127 5.093-1.81 1.422-5.676.424-8.048-1.86-2.371-2.286-5.444-7.267-3.644-9.684 1.8-2.417 4.736.79 4.736-.592 0-1.38-1.776-3.17-.296-4.057 1.48-.888.259-2.183-1.776-1.419-2.035.765-1.702 1.123-3.552 1.332-1.85.21-5.08-.741-4.464-3.442.616-2.7-2.529-1.651-1.937-.122.592 1.529-3.787 6.253-7.806 6.376-4.02.124-5.119-4.983-6.006-9.484-.71-3.592 2.158-7.387 4.822-6.351 2.664 1.036 7.61 1.06 10.211-.74 2.602-1.8 5.611-1.38 7.98.247.74.508 1.635.881 2.57 1.248 0-1.184 1.388-4.591-3.334-5.084-4.723-.493-5.304-3.688-3.392-6.635 1.91-2.948-.803-4.686-2.529-1.567-1.726 3.12-4.538.111-6.623-2.417-2.084-2.527-1.418-5.081.592-7.843 2.01-2.762 7.809-9.667 9.88-6.622 2.07 3.044 2.601 3.71 5.277 4.39 2.676.677 4.206 2.69 3.935 5.093-.272 2.405.63 4.576 1.776 6.462.68 1.12 1.266 2.328 2.136 3.677 1.48 0 5.51.763 4.548-.84-.961-1.604-.37-4.008.568-5.76-2.162-1.907-2.767-3.771-1.889-6.394 1.204-3.593 5.714-2.774 9.288-1.264 6.662 2.815 8.57 4.898 6.807 7.13-1.763 2.23-1.627 3.87-1.183 5.363.444 1.491-.185 3.811-2.96 5.192-2.775 1.381-2.306 4.588-2.306 7.116 0 2.527.74 7.475 3.786 9.607 3.045 2.133 8.128 6.082 10.89 11.84 2.76 5.757 12.125 10.052 20.781 12.432 1.208 4.292 1.514 15.874-6.892 19.804-8.407 3.93-11.79 5.803-16.578 6.924-4.787 1.121-11.64-.727-13.242-2.922 4.609-1.247 6.255-4.042 5.496-7.02-.759-2.977-2.407-5.433-1.689-9.1-2.62 2.401.282 8.76-3.011 12.25s-10.039 2.052-12.677-1.782c1.417-1.245 3.029-.838 5.753-.884 2.724-.046 3.631-3.798 2.976-5.545-.655-1.747-1.068-4.798-.304-6.436.763-1.638.353-3.96-.084-5.053-.636 1.096-1.306 1.963-1.95 2.537-1.966 1.746-4.044 3.198-1.77 7.274-8.164 2.006-6.408-8.9-3.529-11.883 2.88-2.983 1.664-6.947.79-8.585z" style="fill:#fff;fill-rule:evenodd;stroke:#000;stroke-width:2.2677;stroke-linecap:butt;stroke-linejoin:miter;stroke-dasharray:none" transform="matrix(1.59837 0 0 1.59837 -203.289 -560.927)"/><path d="M233.004 463.836h-18.666a3.877 3.877 0 0 1-.838-.805c4.609-1.247 6.255-4.042 5.496-7.02-.759-2.977-2.407-5.433-1.689-9.1-2.62 2.401.282 8.76-3.011 12.25s-10.039 2.051-12.676-1.782c1.416-1.245 3.028-.838 5.752-.884 2.724-.046 3.631-3.798 2.976-5.545-.655-1.747-1.069-4.798-.305-6.436.765-1.638.354-3.96-.083-5.053-.636 1.096-1.306 1.963-1.95 2.537-1.966 1.746-4.045 3.198-1.77 7.274-8.164 2.006-6.408-8.9-3.53-11.883 2.88-2.982 1.664-6.947.791-8.585 0 1.747-.77 4.026-2.127 5.093-1.81 1.422-5.676.424-8.048-1.861-.956-.921-2.025-2.279-2.843-3.731h39.845c3.538 5 12.004 8.753 19.884 10.92 1.208 4.292 1.514 15.873-6.892 19.804-4.586 2.144-7.676 3.676-10.316 4.807z" style="fill:#da121a;fill-rule:evenodd;stroke:#000;stroke-width:1.7008;stroke-linecap:butt;stroke-linejoin:miter;stroke-dasharray:none" transform="matrix(1.59837 0 0 1.59837 -203.289 -560.927)"/><path d="M193.87 406.1c-.376-.147-.752-.294-.458-1.046.293-.752.67-.604 1.046-.457 2.456.961 4.467 2.125 5.658 5.153-2.126-1.818-3.772-2.68-6.245-3.65zM203.589 398.332a23.203 23.203 0 0 1-2.386-3.093c-.22-.34-.438-.68.24-1.115.68-.436.9-.096 1.118.243.288.446.606.907.97 1.382.353.464.764.958 1.252 1.49 2.801 3.059.294 5.175 1.664 7.668-2.655-1.121-.92-4.458-2.858-6.575zM202.692 428.804c0-.254-.018-.49-.054-.697v.003a2.101 2.101 0 0 0-.136-.483l-.003-.003c-.102-.23-.19-.415-.273-.59-.766-1.62-1.29-2.725.55-4.012 1.066-.746 1.805-2.057 1.863-4.182 1.024 2.039 1.077 4.102-.934 5.509-.725.506-.438 1.111-.02 1.996.1.21.205.431.293.628l-.003-.003c.117.264.202.555.256.863v.003c.053.305.08.631.08.968 0 .404 0 .809-.81.809-.808 0-.808-.405-.808-.809zM209.262 439.057c1.614-2.777 2.76-5.88 3.826-9.432.078 3.909-.554 7.015-2.43 10.24-.202.35-.406.7-1.104.295-.698-.404-.495-.754-.292-1.103zM207.559 387.652c1.534 1.355 2.54 2.222 4.434 3.872-2.256-.256-3.872-1.227-5.502-2.665-.303-.267-.606-.535-.072-1.138.533-.604.837-.336 1.14-.069zM217.853 447.508c-.297.273-.596.546-1.142-.051-.546-.597-.248-.87.05-1.144 2.644-2.423 2.734-9.149 2.867-13.523.948 4.27 1.806 11.436-1.775 14.718z" style="fill:#000;fill-rule:evenodd;stroke:#000;stroke-width:.5669;stroke-linecap:round;stroke-linejoin:round;stroke-dasharray:none" transform="matrix(1.59837 0 0 1.59837 -203.289 -560.927)"/><path d="M203.501 428.804c0 1.747-.77 4.026-2.127 5.093-1.81 1.422-5.676.424-8.048-1.86-2.371-2.286-5.444-7.267-3.644-9.684 1.8-2.417 4.736.79 4.736-.592 0-1.38-1.776-3.17-.296-4.057 1.48-.888.259-2.183-1.776-1.419-2.035.765-1.702 1.123-3.552 1.332-1.85.21-5.08-.741-4.464-3.442.616-2.7-2.529-1.651-1.937-.122.592 1.529-3.787 6.253-7.806 6.376-4.02.124-5.119-4.983-6.006-9.484-.71-3.592 2.158-7.387 4.822-6.351 2.664 1.036 7.61 1.06 10.211-.74 2.602-1.8 5.611-1.38 7.98.247.74.508 1.635.881 2.57 1.248 0-1.184 1.388-4.591-3.334-5.084-4.723-.493-5.304-3.688-3.392-6.635 1.91-2.948-.803-4.686-2.529-1.567-1.726 3.12-4.538.111-6.623-2.417-2.084-2.527-1.418-5.081.592-7.843 2.01-2.762 7.809-9.667 9.88-6.622 2.07 3.044 2.601 3.71 5.277 4.39 2.676.677 4.206 2.69 3.935 5.093-.272 2.405.63 4.576 1.776 6.462.68 1.12 1.266 2.328 2.136 3.677 1.48 0 5.51.763 4.548-.84-.961-1.604-.37-4.008.568-5.76-2.162-1.907-2.767-3.771-1.889-6.394 1.204-3.593 5.714-2.774 9.288-1.264 6.662 2.815 8.57 4.898 6.807 7.13-1.763 2.23-1.627 3.87-1.183 5.363.444 1.491-.185 3.811-2.96 5.192-2.775 1.381-2.306 4.588-2.306 7.116 0 2.527.74 7.475 3.786 9.607 3.045 2.133 8.128 6.082 10.89 11.84 2.76 5.757 12.125 10.052 20.781 12.432 1.208 4.292 1.514 15.874-6.892 19.804-8.407 3.93-11.79 5.803-16.578 6.924-4.787 1.121-11.64-.727-13.242-2.922 4.609-1.247 6.255-4.042 5.496-7.02-.759-2.977-2.407-5.433-1.689-9.1-2.62 2.401.282 8.76-3.011 12.25s-10.039 2.052-12.677-1.782c1.417-1.245 3.029-.838 5.753-.884 2.724-.046 3.631-3.798 2.976-5.545-.655-1.747-1.068-4.798-.304-6.436.763-1.638.353-3.96-.084-5.053-.636 1.096-1.306 1.963-1.95 2.537-1.966 1.746-4.044 3.198-1.77 7.274-8.164 2.006-6.408-8.9-3.529-11.883 2.88-2.983 1.664-6.947.79-8.585z" style="fill:none;stroke:#000;stroke-width:2.2677;stroke-linecap:butt;stroke-linejoin:miter;stroke-dasharray:none" transform="matrix(1.59837 0 0 1.59837 -203.289 -560.927)"/><path d="M165.815 422.17c-6.438-4.138-.41-12.512 4.548-13.79 4.08-1.054 5.429 6.1 1.731 6.808-3.697.709-5.3 4.085-6.28 6.981zM170.923 385.041c-2.866-7.096 6.893-10.448 11.679-8.628 3.939 1.498.907 8.115-2.52 6.558-3.428-1.558-6.687.272-9.16 2.07zM207.94 374.176c6.205-4.478 11.793 4.196 11.17 9.278-.514 4.183-7.664 2.82-6.97-.88.692-3.7-1.863-6.427-4.2-8.398zM184.447 432.204c1.129 5.958 9.07 4.013 11.48.75 1.985-2.686-2.87-5.798-4.488-3.292-1.618 2.506-4.574 2.682-6.992 2.542z" style="fill:#fcdd09;fill-rule:evenodd;stroke:#000;stroke-width:2.2677;stroke-linecap:butt;stroke-linejoin:miter;stroke-dasharray:none" transform="matrix(1.59837 0 0 1.59837 -203.289 -560.927)"/></g><g><path d="M286.666 413.14c4.258 5.452 3.763 7.168 1.749 11.19-1.932 3.857-4.335 7.455-5.475 9.018-1.409 1.932 12.47-.381 13.535-.839 1.065-.457 5.475-9.075 5.475-10.066 0-.991-1.445-11.287-3.042-12.736-1.597-1.448-10.493-.305-12.242 3.432z" style="fill:#da121a;fill-rule:evenodd;stroke:#000;stroke-width:2.2677;stroke-linecap:butt;stroke-linejoin:miter;stroke-dasharray:none" transform="matrix(1.59837 0 0 1.59837 -203.289 -560.927)"/><path d="M265.6 417.263c-1.005-1.476-1.928-5.702-1.522-5.72l7.148-.305s.076 2.967-.608 4.042c-.685 1.075-2.358 1.602-5.019 1.983zM271.458 411.385c-.076 1.83-.684 4.424 1.597 5.872 3.574-.458 5.627-3.355 5.17-6.634-.456-3.28-5.855.457-6.767.762zM291.613 410.174v6.025l6.159-1.678z" style="fill:#fff;fill-rule:evenodd;stroke:#000;stroke-width:2.2677;stroke-linecap:butt;stroke-linejoin:miter;stroke-dasharray:none" transform="matrix(1.59837 0 0 1.59837 -203.289 -560.927)"/><path d="M291.624 410.1c-.042 2.08-1.4 4.65-2.677 5.484-1.97-.79-4.685-3.404-4.714-4.88-.03-1.477 5.642-.832 7.39-.603z" style="fill:#fff;fill-rule:evenodd;stroke:#000;stroke-width:2.2677;stroke-linecap:butt;stroke-linejoin:miter;stroke-dasharray:none" transform="matrix(1.59837 0 0 1.59837 -203.289 -560.927)"/><path d="M277.93 410.055c.407 2.486 2.053 4.505 4.443 5.813 2.384-1.533 2.994-3.18 2.994-6.16 0-.38-6.22.042-7.436.347zM293.357 430.755c-1.272-2.258-3.82-4.069-6.096-4.657-1.33 1.383-1.687 2.876-2.135 5.509-1.592-2.466-3.544-4.45-6.14-5.58-1.548 1.177-2.49 2.817-2.034 5.442-.382-1.995-1.097-3.657-2.148-4.984-1.968 1.395-2.61 2.776-2.407 4.977l.43 1.276 6.387.153 12.014-.916z" style="fill:#fff;fill-rule:evenodd;stroke:#000;stroke-width:2.2677;stroke-linecap:butt;stroke-linejoin:miter;stroke-dasharray:none" transform="matrix(1.59837 0 0 1.59837 -203.289 -560.927)"/><path d="M299.06 423.053c-3.878-2.288-12.85-3.127-22.507-1.83-9.658 1.296-17.794.229-21.748-6.101-3.953-6.33-11.364.961-7.603 4.804 5.131 5.244 14.371 7.397 28.97 5.262 14.6-2.135 17.641 1.525 20.15 3.203 2.51 1.678 3.803-3.737 2.738-5.338z" style="fill:#da121a;fill-rule:evenodd;stroke:#000;stroke-width:2.2677;stroke-linecap:butt;stroke-linejoin:miter;stroke-dasharray:none" transform="matrix(1.59837 0 0 1.59837 -203.289 -560.927)"/><path d="M250.319 416.294c.748 2.05 3.1 3.907 6.758 5.186 2.17.76 7.754 2.266 14.04 2.247-4.6.805-12.817-.68-14.394-1.231-3.975-1.391-6.556-3.48-7.415-5.835-.092-.254-.041-.536.32-.69.363-.154.599.07.69.323z" style="fill:#000;fill-rule:evenodd;stroke:#000;stroke-width:.5669;stroke-linecap:round;stroke-linejoin:round;stroke-dasharray:none" transform="matrix(1.59837 0 0 1.59837 -203.289 -560.927)"/><path d="M193.753 496.695c0-1.856-1.31-11.245-5.677-11.245-4.367 0-3.057-5.677-9.062-4.804-6.004.873-5.131 6.55-6.441 7.97-1.31 1.42-1.31 3.166.437 4.148 1.747.983 6.769 3.494 7.751 1.31.983-2.183 2.948-1.965 3.057.656.11 2.62.656 5.677 2.293 6.66 1.637.982 6.332-4.368 7.642-4.695z" style="fill:#fff;fill-rule:evenodd;stroke:#000;stroke-width:2.2677;stroke-linecap:butt;stroke-linejoin:miter;stroke-dasharray:none" transform="matrix(1.59837 0 0 1.59837 -203.289 -560.927)"/><path d="M163.751 489.467c-1.955-7.399 8.146-9.505 12.667-7.1 3.72 1.978-.115 8.164-3.321 6.19-3.206-1.973-6.668-.565-9.346.91z" style="fill:#fcdd09;fill-rule:evenodd;stroke:#000;stroke-width:2.2677;stroke-linecap:butt;stroke-linejoin:miter;stroke-dasharray:none" transform="matrix(1.59837 0 0 1.59837 -203.289 -560.927)"/><path d="M235.293 503.517c-2.022 5.755 2.168 4.759 3.354 7.305 1.185 2.547.11 3.154 3.319 4.542 3.208 1.388 7.916-2.005 6.215-4.652-2.713 1.306-3.954.735-4.993-2.16-1.039-2.897 5.83-5.033 8.974-6.43-.903 2.492-.987 4.589.634 6.779 2.096 2.831 8.44 6.702 11.465.597-1.897-.839-3.73-.81-4.978-1.878-1.267-1.084-1.877-2.2-1.072-4.134.308-.74.66-1.428 1.048-2.07 2.926-1.18 5.417-.786 6.598 1.357-.229 4.11 1.941 8.451 3.873 11.49 2.877 4.524 5.437 10.227 3.471 20.071-1.965 9.845 42.566 5.983 41.189.8-3.194-12.164-5.014-35.652-5.44-41.153-.427-5.501-7.89-6.823-9.596-9.382-1.706-2.559 6.186-19.27 2.134-19.483-4.051-.214-44.567-3.546-46.7-3.333-2.131.214-20.002 1.266-24.734 10.662-4.732 9.396-25.958 19.924-31.99 21.432-6.032 1.508-10.453 3.828-12.685 5.866-2.23 2.039-4.967 3.194-8.092 2.45-3.125-.744-5.768.645-6.943 2.564-1.175 1.919-9.444 4.338-4.473 7.562 4.971 3.224 4.041 4.775 4.905 7.25.863 2.475 4.373 2.35 7.156 1.28 1.956-.754 4.846-4.238 4.869-8.023 2.446.175 5.843.42 6.41-2.419.568-2.838 1.354-2.052 2.359-2.008-1.18 2.554.59 6.026-2.271 8.668-2.86 2.642-1.529 4.258 0 6.922 1.528 2.664 7.62 1.463 11.223 1.725 3.603.262 8.363-5.262 5.808-7.359-2.554-2.096-3.166-3.471-1.943-4.694 1.223-1.223 2.598-2.424 4.389-4.76-.83 3.886 2.97 5.808 5.415 5.284 2.446-.524 5.743-2.62 6.463-5.11 1.275-2.07 4.132-2.284 6.574-2.353-1.352 2.222-1.63 4.68-1.382 6.508.377 2.773 3.33 4.501 6.512 1.435-3.126-1.47-1.875-4.082-.524-6.114.739-1.11 1.976-3.008 3.46-5.034z" style="fill:#fff;fill-rule:evenodd;stroke:#000;stroke-width:2.2677;stroke-linecap:butt;stroke-linejoin:miter;stroke-dasharray:none" transform="matrix(1.59837 0 0 1.59837 -203.289 -560.927)"/><path d="M314.329 534.897h-41.184c.003-.183.018-.369.056-.563 1.966-9.844-.594-15.546-3.47-20.07-1.933-3.04-4.103-7.381-3.874-11.49-1.18-2.144-3.672-2.537-6.598-1.358-.388.643-.74 1.33-1.048 2.07-.805 1.933-.195 3.05 1.072 4.134 1.248 1.068 3.08 1.04 4.978 1.878-3.025 6.105-9.37 2.234-11.465-.597-1.621-2.19-1.537-4.287-.634-6.78-3.144 1.398-10.012 3.534-8.974 6.43 1.04 2.896 2.28 3.466 4.993 2.16 1.7 2.648-3.007 6.041-6.215 4.653-3.21-1.388-2.133-1.995-3.32-4.542-1.185-2.547-5.375-1.55-3.353-7.305-1.483 2.026-2.72 3.923-3.459 5.034-1.351 2.032-2.602 4.643.524 6.114-3.182 3.066-6.135 1.337-6.512-1.435-.248-1.827.03-4.286 1.382-6.508-2.442.069-5.299.283-6.573 2.353-.721 2.49-4.018 4.586-6.464 5.11-2.445.524-6.245-1.398-5.415-5.284-1.79 2.336-3.166 3.537-4.389 4.76-1.223 1.223-.611 2.598 1.944 4.694 2.554 2.096-2.206 7.62-5.809 7.359-3.603-.262-9.695.939-11.223-1.725-1.529-2.664-2.86-4.28 0-6.922 2.86-2.642 1.092-6.114 2.27-8.669-1.004-.043-1.79-.83-2.357 2.01-.568 2.838-3.965 2.593-6.411 2.418-.023 3.785-2.913 7.269-4.87 8.022-2.782 1.071-6.292 1.196-7.155-1.28-.863-2.475.066-4.025-4.905-7.25-4.97-3.223 3.298-5.642 4.473-7.561 1.175-1.92 3.818-3.308 6.943-2.564 3.125.744 5.861-.411 8.093-2.45.136-.125.282-.25.435-.377h123.573c.786 9.18 2.435 25.82 4.94 35.531z" style="fill:#da121a;fill-rule:evenodd;stroke:#000;stroke-width:1.7008;stroke-linecap:butt;stroke-linejoin:miter;stroke-dasharray:none" transform="matrix(1.59837 0 0 1.59837 -203.289 -560.927)"/><path d="M181.992 512.823c.012-2.09-.496-3.604-1.824-5.809 2.344.326 3.452 3.88 3.442 5.815-.002.405-.005.809-.814.806-.808-.003-.806-.408-.804-.812zM208.792 509.71c-2.315.053-5.3-1.692-4.088-4.632 1.124 2.009 1.974 3.061 4.056 3.014.404-.009.809-.019.824.79.016.809-.388.818-.792.827zM221.535 508.872c-.024.125-.06.268-.107.428-.112.388-.225.776-.999.552-.774-.224-.661-.613-.549-1 .023-.077.046-.176.07-.295.555-5.223-3.307-5.87-5.154-6.518 2.048-1.277 7.225 1.166 6.74 6.833zM244.49 497.209c-1.598.266-3.205.535-4.563 1.945a37.812 37.812 0 0 0-2.056 2.336 61.788 61.788 0 0 0-1.927 2.504c-.239.326-.478.653-1.128.175-.65-.477-.412-.803-.173-1.129a62.998 62.998 0 0 1 1.978-2.568 39.41 39.41 0 0 1 2.143-2.437c1.73-1.796 3.6-2.108 5.46-2.419 1.754-.292 2.981-.223 5.798-2.16-1.771 3.156-4.527 3.585-5.532 3.753zM258.567 500.999c1.67-2.767 3.67-4.764 7.045-5.942-2.505 2.326-4.19 4.34-5.661 6.776-.21.346-.418.692-1.11.275-.692-.417-.483-.763-.274-1.109zM253.875 500.161c-.178.378-.353.76-.523 1.157-.165.385-.311.746-.431 1.078-.138.38-.275.76-1.033.485-.759-.274-.621-.655-.484-1.035.144-.397.299-.783.463-1.166.159-.37.344-.775.549-1.207 1.228-2.6 4.223-4.196 7.616-4.398-3.26 2.1-5.031 2.706-6.157 5.086zM265.049 502.73c.145-2.628.879-4.443 3.713-6.232-1.585 2.663-1.964 3.953-2.096 6.32-.022.403-.045.807-.853.763-.81-.045-.787-.448-.764-.852z" style="fill:#000;fill-rule:evenodd;stroke:#000;stroke-width:.5669;stroke-linecap:round;stroke-linejoin:round;stroke-dasharray:none" transform="matrix(1.59837 0 0 1.59837 -203.289 -560.927)"/><path d="M275.072 503.065c-.237.37-.32.938-.233 1.547.08.56.304 1.139.684 1.623.372.473.9.858 1.595 1.048.881.241 2.039.178 3.506-.384l1.794-.686-.768 1.764c-1.006 2.312-2.576 3.606-4.36 4.098-1.33.366-2.765.273-4.163-.186-1.36-.446-2.687-1.24-3.841-2.294-2.367-2.158-4.037-5.42-3.817-9.007l1.405.148c-.188 3.064 1.463 5.808 3.499 7.665.988.902 2.112 1.579 3.254 1.953 1.103.362 2.222.44 3.24.16.862-.238 1.665-.744 2.337-1.563-.953.143-1.789.09-2.51-.107a4.595 4.595 0 0 1-2.44-1.61 5.055 5.055 0 0 1-1.013-2.395c-.14-.986.026-1.955.466-2.645 1.508-2.364 2.253-5.162 2.105-8.332 1.949 2.801.704 6.941-.74 9.203z" style="fill:#000;fill-rule:evenodd;stroke:#000;stroke-width:.5669;stroke-linecap:round;stroke-linejoin:round;stroke-dasharray:none" transform="matrix(1.59837 0 0 1.59837 -203.289 -560.927)"/><path d="M235.293 503.517c-2.022 5.755 2.168 4.759 3.354 7.305 1.185 2.547.11 3.154 3.319 4.542 3.208 1.388 7.916-2.005 6.215-4.652-2.713 1.306-3.954.735-4.993-2.16-1.039-2.897 5.83-5.033 8.974-6.43-.903 2.492-.987 4.589.634 6.779 2.096 2.831 8.44 6.702 11.465.597-1.897-.839-3.73-.81-4.978-1.878-1.267-1.084-1.877-2.2-1.072-4.134.308-.74.66-1.428 1.048-2.07 2.926-1.18 5.417-.786 6.598 1.357-.229 4.11 1.941 8.451 3.873 11.49 2.877 4.524 5.437 10.227 3.471 20.071-1.965 9.845 42.566 5.983 41.189.8-3.194-12.164-5.014-35.652-5.44-41.153-.427-5.501-7.89-6.823-9.596-9.382-1.706-2.559 6.186-19.27 2.134-19.483-4.051-.214-44.567-3.546-46.7-3.333-2.131.214-20.002 1.266-24.734 10.662-4.732 9.396-25.958 19.924-31.99 21.432-6.032 1.508-10.453 3.828-12.685 5.866-2.23 2.039-4.967 3.194-8.092 2.45-3.125-.744-5.768.645-6.943 2.564-1.175 1.919-9.444 4.338-4.473 7.562 4.971 3.224 4.041 4.775 4.905 7.25.863 2.475 4.373 2.35 7.156 1.28 1.956-.754 4.846-4.238 4.869-8.023 2.446.175 5.843.42 6.41-2.419.568-2.838 1.354-2.052 2.359-2.008-1.18 2.554.59 6.026-2.271 8.668-2.86 2.642-1.529 4.258 0 6.922 1.528 2.664 7.62 1.463 11.223 1.725 3.603.262 8.363-5.262 5.808-7.359-2.554-2.096-3.166-3.471-1.943-4.694 1.223-1.223 2.598-2.424 4.389-4.76-.83 3.886 2.97 5.808 5.415 5.284 2.446-.524 5.743-2.62 6.463-5.11 1.275-2.07 4.132-2.284 6.574-2.353-1.352 2.222-1.63 4.68-1.382 6.508.377 2.773 3.33 4.501 6.512 1.435-3.126-1.47-1.875-4.082-.524-6.114.739-1.11 1.976-3.008 3.46-5.034z" style="fill:none;stroke:#000;stroke-width:2.2677;stroke-linecap:butt;stroke-linejoin:miter;stroke-dasharray:none" transform="matrix(1.59837 0 0 1.59837 -203.289 -560.927)"/><path d="M168.424 526.5c-7.424-1.856-4.396-11.72-.109-14.52 3.528-2.305 7.097 4.039 3.821 5.895-3.275 1.856-3.712 5.568-3.712 8.625zM205.682 528.9c-4.384 6.272-12.518-.077-13.603-5.081-.894-4.118 6.306-5.187 6.87-1.465.566 3.722 3.877 5.454 6.733 6.546zM213.773 518.292c5.754 1.91 7.916-5.975 6.237-9.668-1.382-3.04-6.463-.31-5.06 2.322 1.404 2.632.12 5.3-1.177 7.346z" style="fill:#fcdd09;fill-rule:evenodd;stroke:#000;stroke-width:2.2677;stroke-linecap:butt;stroke-linejoin:miter;stroke-dasharray:none" transform="matrix(1.59837 0 0 1.59837 -203.289 -560.927)"/><path d="M294.3 475.768c-6.76 9.282-4.22 15.932-2.27 19.657 1.952 3.724 7.58 5.502 10.36 3.48.11 2.279-4.153 5.056-8.606 3.358s-7.856-5.038-9.265-8.605c-1.41-3.566-2.221-7.268-.081-14.73-3.974-.26-7.388 1.406-8.841 7.026-1.453 5.62-6.454 6.899-11.262 6.882-4.807-.017-8.744-3.154-10.478-8.415 3.157 2.982 6.978 6.3 10.246 5.226 3.269-1.074 4.92-3.514 5.299-5.41.38-1.897 1.255-3.286 1.76-4.676-1.849.375-5.228.749-8.555.577-3.327-.172-7.631 2.246-11.02 4.902-3.39 2.657-11.08 2.999-15.562 1.88-4.482-1.12-11.74-5.484-9.113-11.026 2.31 3.063 4.25 4.557 7.894 5.618 3.643 1.06 8.703-2.078 9.048-6.124.345-4.045 4.644-6.48 9.356-8.723-5.388-.206-8 2.523-12.492 5.42-4.493 2.896-8.27 2.68-10.917 1.984-2.647-.696-6.353-.471-10.727.94-4.374 1.412-11.738.795-15.678 0-3.94-.794-9.218-2.889-11.631-4.93-2.414-2.042-4.497-5.062-4.633-8.877-.136-3.816.912-8.425 6.265-9.575 3.23-.693 5.46.657 5.665 3.261-2.783-.475-4.236-.38-5.718 1.076-1.481 1.455-2.792 6.732.697 9.563 3.489 2.83 7.287 3.223 10.73 3.414 3.441.19 5.773.347 9.732-2.023 3.96-2.37 6.156-2.076 9.456-2.52 3.3-.443 5.616-1.27 7.884-4.434 2.268-3.164 4.93-4.172 6.448-4.93-1.28.323-2.568.44-3.986.505-6.605.307-11.157-6.533-12.241-10.415-.535-1.914.039-5.337 1.913-7.16 3.143-3.06 6.951-1.14 7.613 1.519-3.66-.888-5.63.855-5.436 3.287.193 2.432 4.363 6.857 8.47 5.563 3.21-1.011 8.04-4.3 12.292-5.45-2.813-1.35-7.186-4.11-7.945-7.271-.758-3.161.288-6.984 3.046-8.17s6.87.106 6.262 3.696c-3.697-.994-5.75-1.048-6.292 1.253-.542 2.3.311 4.34 3.51 4.437 3.2.096 3.377-.067 6.032-1.71 2.655-1.644 8.232-2.288 9.972.693 1.74 2.982 6.61 5.914 11.814 1.169-2.437.217-3.602-2.88-1.06-5.988 1.384-.422 6.134-.51 9.935-.507 3.8.004 10.397 1.911 13.813-5.844 3.417-7.754-.815-13.02-5.262-13.342-4.446-.321-9.446 1.471-12.105.265-5.111 1.648-10.312 2.178-12.469 1.158-4.376 1.583-5.549-2-5.312-3.81.237-1.81 1.322-2.22-.01-5.355-1.332-3.135 3.452-4.315 4.904-4.798 1.453-.483 3.434-1.341 5.685-1.518 2.25-.177 1.56-3.232 1.735-4.382 11.416-5.217 38.85-4.73 41.495-1.636 1.194-.758 2.667-.71 4.21.275 3.29 2.103 4.67 11.052 1.02 15.678a9.821 9.821 0 0 1-.867.966c1.085 4.584.51 11.271 3.632 13.588 3.12 2.316 7.485 2.076 8.624-1.784 2.547 2.19 1.601 8.003-.877 9.738-2.637 1.846-6.827 1.643-8.546.696 1.328 2.957.573 7.245-.252 12.137-.826 4.892 1.27 10.987 6.955 12.271 5.685 1.285 11.703 6.307 2.246 12.682 1.33-5.943-.16-6.687-3.826-7.193-1.374-.19-3.163-.581-4.95-1.617.453 4.313-1.25 8.49-2.136 11.651-.885 3.16.572 5.787 4.112 6.289 3.63.514 5.505 5.225 4.702 9.09-.644 3.102-3.75 6.665-7.571 5.342 3.98-2.877 4.054-4.97 2.065-6.587-.87-.707-2.915-1.366-5.158-1.423-2.837-.073-5.812-1.941-6.9-4.495-.291.63-.584 1.209-.865 1.732-2.117 3.943-4.392 6.8 1.211 8.657 5.604 1.857 7.959 3.846 9.236 8.351 1.278 4.506.846 9.175-3.24 11.412-4.087 2.237-12.78-2.984-10.674-10.028 2.156 3.487 4.572 7.533 7.62 7.027 3.048-.505 4.105-3.745 2.115-6.142-1.99-2.396-6.714-2.498-11.884-3.413-3.182-.564-10.195-2.15-11.925-7.234-1.677-4.927 2.376-10.796 4.865-15.238 2.49-4.441-3.056 1.515-3.307 2.117z" style="fill:#fff;fill-rule:evenodd" transform="matrix(1.59837 0 0 1.59837 -203.289 -560.927)"/><path d="M187.552 463.836a10.887 10.887 0 0 1-.42-2.634c-.136-3.816.912-8.425 6.265-9.575 3.23-.693 5.46.657 5.665 3.261-2.783-.475-4.236-.38-5.718 1.076-1.22 1.198-2.323 4.99-.726 7.872zm39.162 0c1.945-.596 3.548-1.666 5.13-3.872 2.267-3.164 4.93-4.172 6.447-4.93-1.28.323-2.568.44-3.986.505-6.604.307-11.157-6.533-12.241-10.415-.535-1.914.039-5.337 1.912-7.16 3.145-3.06 6.952-1.14 7.614 1.519-3.66-.888-5.63.855-5.437 3.287.193 2.432 4.364 6.857 8.471 5.563 3.21-1.011 8.04-4.3 12.292-5.45-2.814-1.35-7.186-4.11-7.945-7.271-.624-2.6-.026-5.647 1.74-7.307 2.37-1.191 4.642-1.191 6.812 0 .632.68.96 1.626.756 2.833-3.697-.993-5.75-1.048-6.292 1.253-.542 2.3.312 4.34 3.51 4.437 3.2.096 3.377-.067 6.032-1.71 2.655-1.644 8.232-2.288 9.972.694 1.74 2.98 6.61 5.913 11.814 1.168-2.437.217-3.602-2.88-1.06-5.987 1.384-.424 6.134-.512 9.934-.508 3.018.004 7.799 1.206 11.35-2.18h38.1c-.347.572-.761 1.049-1.232 1.379-2.638 1.847-6.828 1.643-8.546.696 1.327 2.957.572 7.245-.253 12.137-.826 4.892 1.27 10.987 6.955 12.271 4.551 1.028 9.313 4.452 6.181 9.048l-3.157 2.831-.301-2.831c-.057-2.675-1.578-3.183-4.302-3.559-1.375-.19-3.163-.581-4.95-1.617.185 1.768.008 3.514-.327 5.176z" style="fill:#da121a;fill-rule:evenodd;stroke:#000;stroke-width:1.7008;stroke-linecap:butt;stroke-linejoin:miter;stroke-dasharray:none" transform="matrix(1.59837 0 0 1.59837 -203.289 -560.927)"/><path d="M319.59 408.72c-1.236 1.2-2.531 1.795-3.69 1.911-.797.08-1.536-.066-2.16-.4-1.593-.85-2.744-4.198-.702-5.323-.28 1.726.26 3.26 1.46 3.902.346.184.77.263 1.244.216.819-.082 1.769-.537 2.723-1.463.29-.281.58-.562 1.143.016.562.578.272.86-.018 1.14zM314.232 390.54c.341-.216.683-.433 1.115.25.433.682.092.899-.25 1.115-1.4.89-2.668 3.446-3.206 5.608-.84-2.524.054-5.522 2.341-6.972zM321.63 459.358c-4.83-2.798-7.06-8.695-6.71-14.102 1.23 4.532 3.19 10.198 7.518 12.706.35.203.7.406.295 1.104-.404.698-.754.495-1.104.292zM310.935 412.066c.456.845.68 1.88.777 2.92.094 1.013.072 2 .027 2.812-.053.95-.26 1.658-.695 2.26-.422.586-1.024 1.015-1.88 1.428-.365.177-.94.435-1.587.725-1.739.78-4.046 1.814-4.388 2.207-.136.155-.36.919-.618 1.792-.435 1.475-.948 3.217-1.782 3.99-.468.433-1.093.942-1.708 1.443-.765.623-1.515 1.234-1.946 1.714-.463.516-1.292 1.004-2.273 1.407-.999.41-2.175.746-3.277.938h-.003c-.566.099-1.5.202-2.605.324-2.872.317-6.945.766-8.12 1.508a6.971 6.971 0 0 1-1.634.739c-.886.274-1.844.394-2.682.297-.856-.1-1.607-.424-2.098-1.03a4.053 4.053 0 0 1-1.059.249c-.402.036-.805.071-.874-.737-.07-.809.333-.845.736-.88a2.42 2.42 0 0 0 .542-.113c.193-.063.397-.152.608-.269.424-.234 1.016.005 1.16.468.023.074.052.14.087.195.185.293.587.455 1.082.512.617.072 1.341-.022 2.024-.234a5.323 5.323 0 0 0 1.248-.562c1.493-.942 5.78-1.415 8.803-1.748 1.074-.118 1.983-.219 2.51-.31h-.002a14.658 14.658 0 0 0 2.941-.838c.763-.314 1.38-.662 1.68-.996.485-.54 1.301-1.206 2.136-1.885a34.615 34.615 0 0 0 1.625-1.38c.514-.476.958-1.982 1.333-3.257.31-1.053.582-1.973.953-2.4.573-.656 3.066-1.774 4.944-2.616a67.47 67.47 0 0 0 1.544-.706c.615-.298 1.028-.577 1.273-.917.234-.324.35-.766.384-1.406.044-.78.067-1.706-.014-2.578-.078-.844-.25-1.667-.593-2.301-.86-1.594-1.889-4.78.04-7.057-.553 3.055.554 4.757 1.382 6.292z" style="fill:#000;fill-rule:evenodd;stroke:#000;stroke-width:.5669;stroke-linecap:round;stroke-linejoin:round;stroke-dasharray:none" transform="matrix(1.59837 0 0 1.59837 -203.289 -560.927)"/><path d="M266.511 411.993c.366.172.731.345.387 1.075s-.71.557-1.075.384c-2.189-1.033-2.362-4.323-.894-6.137-.015 1.703.368 4.105 1.582 4.678zM290.604 408.303c1.206-.319 2.14-.478 2.95-.419.868.064 1.581.367 2.295.971.642.543 1.398 1.17 2.088 2.125.445.614 1.302 2.729 1.163 4.62-.668-1.584-1.341-3.034-2.035-3.993-.606-.838-1.312-1.425-1.91-1.93-.526-.446-1.048-.668-1.677-.714-.687-.051-1.514.093-2.6.38-2.304.61-4.655.707-6.837-.358 2.303.142 4.37-.101 6.563-.682zM317.321 395.618v.003a.318.318 0 0 0-.106.088.208.208 0 0 0-.022.109c0 .169.08.41.275.746.378.646.518 1.276.452 1.851-.093.796-.573 1.427-1.255 1.825-.563.329-1.31.527-2.2.55.079.17.183.319.305.446.19.197.426.339.684.405 1.21.31 1.875.073 3.003-1.178-.029 1.884-1.655 3.192-3.4 2.745a3.073 3.073 0 0 1-1.45-.854 3.41 3.41 0 0 1-.935-2.427l.012-.896.888.103c1.006.117 1.787-.004 2.278-.29a1.08 1.08 0 0 0 .343-.299v.003a.679.679 0 0 0 .121-.316c.027-.233-.049-.522-.242-.853-.353-.604-.496-1.122-.496-1.561 0-.384.106-.708.28-.98.44-.684 1.68-1.302 2.116-.16 0 1.143.06.524-.65.94zM282.403 397.059a.12.12 0 0 0 .05.097c.115.081.33.139.67.16 2.124.138 2.834-.546 3.921-1.595l.411-.394c1.949-1.839 2.86-.973 4.438.528l.283.268c.803.755 2.851 2.21 5.138 3.207 1.48.645 3.047 1.089 4.39.993l.664-.048.173.651c.454 1.707 2.12 3.018 4.874 3.702-2.435 1.1-5.086-.627-6.18-2.672-1.47-.022-3.066-.495-4.565-1.148-2.471-1.078-4.712-2.675-5.6-3.51l-.29-.274c-.875-.833-1.38-1.313-2.219-.522-.164.156-.285.272-.398.382-1.402 1.35-2.317 2.232-5.142 2.05-.65-.042-1.14-.206-1.498-.458a1.672 1.672 0 0 1-.738-1.341c-.02-.427.103-.887.328-1.343.487-.99 1.155-1.618 2.482-1.653-1.467 1.375-1.22 2.343-1.192 2.92z" style="fill:#000;fill-rule:evenodd" transform="matrix(1.59837 0 0 1.59837 -203.289 -560.927)"/><path d="M263.779 404.045c-.09-.36-.105-.688.067-1.02.158-.304.459-.557.988-.76.556-.214.99-.199 1.363.012.346.196.58.54.775 1.009.059.14.153.383.259.658.252.652.644 1.886 1 3.252-1.245-.905-1.779-2.286-2.002-2.864a25.48 25.48 0 0 0-.25-.633c-.107-.256-.206-.427-.313-.487-.079-.044-.22-.03-.448.059-.255.098-.378.178-.416.25-.024.046-.01.14.022.263.065.262.13.523-.392.654-.522.13-.588-.131-.653-.393zM271.087 404.121c.037.588-.449 1.98-1.468 2.25.343-.658.443-1.321.39-2.187-.052-.856-.213-1.524-.604-2.567 1.143-.097 1.647 1.924 1.682 2.504z" style="fill:#000;fill-rule:evenodd;stroke:#000;stroke-width:.5669;stroke-linecap:round;stroke-linejoin:round;stroke-dasharray:none" transform="matrix(1.59837 0 0 1.59837 -203.289 -560.927)"/><path d="M291.776 396.427c-.302 1.268-.483 2.142-.423 2.746.06.604-.703.476-1.186.174s-1.47.224-.504.767c.966.544 1.79.86 2.855.522 1.066-.337 2.519-1.552 2.7-2.216-1.727-.328-2.674-1.337-3.442-1.993z" style="fill:#000;fill-rule:evenodd" transform="matrix(1.59837 0 0 1.59837 -203.289 -560.927)"/><path d="M285.272 398.026c.781 1.603 2.58 4.535 4.495 4.691 1.915.156 5.55-1.055 7.153-2.697" style="fill:none;stroke:#000;stroke-width:1.7008;stroke-linecap:butt;stroke-linejoin:miter;stroke-dasharray:none" transform="matrix(1.59837 0 0 1.59837 -203.289 -560.927)"/><path d="M284.302 398.417a5.332 5.332 0 0 0-.216 1.1c-.023.29-.013.556.048.747l-.002-.002c.032.1.075.17.132.188l.002.002a.445.445 0 0 0 .052.006c1.066.085 1.346.51 1.67 1.001.06.092.123.188.149.221a7.44 7.44 0 0 0 1.418 1.383c.417.306.888.572 1.366.688 1.912.465 3.607-.016 5.92-.51-1.745 1.41-3.999 2.084-6.172 1.555-.637-.155-1.235-.487-1.75-.866a8.638 8.638 0 0 1-1.642-1.605 4.699 4.699 0 0 1-.19-.272c-.168-.254-.313-.474-.854-.517a1.335 1.335 0 0 1-.283-.056l.002.002c-.44-.135-.706-.46-.844-.892l-.002-.002c-.109-.34-.131-.745-.098-1.156.035-.447.138-.921.262-1.327z" style="fill:#000;fill-rule:evenodd" transform="matrix(1.59837 0 0 1.59837 -203.289 -560.927)"/><g><path d="M278.996 407.427a.606.606 0 0 1 .606.606.606.606 0 1 1-.606-.606zM276.489 407.762a.606.606 0 0 1 .606.606.606.606 0 1 1-.606-.606zM273.665 408.947a.606.606 0 0 1 .606.606.606.606 0 1 1-.606-.606zM271.793 406.948a.606.606 0 0 1 .606.606.606.606 0 1 1-.606-.606zM274.311 405.161a.606.606 0 0 1 .606.606.606.606 0 1 1-.606-.606z" style="fill:#000;fill-rule:evenodd" transform="matrix(1.59837 0 0 1.59837 -203.289 -560.927)"/></g><path d="M288.808 499.366h8.238c1.587.493 3.226.531 4.513 0h.796c-.425 2.17-4.415 4.482-8.57 2.897a17.664 17.664 0 0 1-4.977-2.897zm17.83 0h.62c2.044 3.3 4.336 6.784 7.177 6.312 3.048-.505 4.106-3.746 2.116-6.141a4.12 4.12 0 0 0-.15-.17h4.793c.592 3.796-.252 7.421-3.705 9.312-3.947 2.16-12.19-2.636-10.85-9.313z" style="fill:#da121a;fill-rule:evenodd;stroke:#000;stroke-width:1.7008;stroke-linecap:butt;stroke-linejoin:miter;stroke-dasharray:none" transform="matrix(1.59837 0 0 1.59837 -203.289 -560.927)"/><path d="M311.881 478.865c-.17.366-.34.733-1.073.395-.733-.338-.563-.705-.393-1.071 2.729-5.883 3.11-10.874 2.941-17.88 1.588 6.6 1.17 12.856-1.475 18.556zM246.707 442.102c.631-.17 1.254-.297 1.862-.367a8.324 8.324 0 0 1 1.815-.02c1.853.194 3.915.999 6.059 1.834 1.916.747 4.675 3.507 11.155 1.916-3.739 2.953-11.12-.172-11.737-.412-2.04-.796-4.003-1.561-5.642-1.733a6.745 6.745 0 0 0-1.466.02c-.524.06-1.07.172-1.629.323-.39.105-.78.211-.989-.57-.208-.78.182-.885.572-.99zM253.494 453.116c-1.143-.21-2.157-.396-2.992-.482-.996-.103-2.317-.169-3.74.01-1.39.175-2.874.585-4.227 1.432a14.059 14.059 0 0 1-4.016 1.715c-.392.099-.784.198-.98-.586-.196-.783.196-.882.588-.98a12.301 12.301 0 0 0 1.782-.593c.583-.246 1.172-.55 1.773-.927 1.581-.989 3.291-1.466 4.883-1.666 1.558-.196 3.008-.123 4.102-.01.882.09 1.933.284 3.117.502 2.46.451 8.745 2.43 14.742.75-5.502 2.786-13.38 1.138-15.032.835z" style="fill:#000;fill-rule:evenodd;stroke:#000;stroke-width:.5669;stroke-linecap:round;stroke-linejoin:round;stroke-dasharray:none" transform="matrix(1.59837 0 0 1.59837 -203.289 -560.927)"/><path d="M306.644 476.557a18.367 18.367 0 0 0-2.112 3.284c-.957 1.913-1.516 3.918-1.484 5.718.031 1.733.619 3.275 1.944 4.343.309.248.661.474 1.06.673 2.079 1.04 3.675 1.378 5.066 1.673.967.205 5.46 1.954 6.025 4.042-1.974-1.896-4.465-2.61-6.248-2.989-1.456-.308-3.127-.663-5.324-1.761a6.942 6.942 0 0 1-1.253-.8c-1.601-1.29-2.311-3.122-2.348-5.165-.035-1.976.567-4.153 1.597-6.214a19.46 19.46 0 0 1 2.239-3.478c4.167-5.173.304-10.598 1.636-16.417.161 5.757 3.36 11.929-.798 17.091zM315.812 474.492c.233 1.98.94 3.664 2.007 4.303 2.122 1.273 3.12 1.308 4.615 1.358l.373.014c2.655.101 4 2.563 3.9 4.997-.798-2.269-1.99-3.844-3.938-3.92-.138-.004-.258-.01-.369-.012-1.659-.057-2.767-.095-5.133-1.514-1.368-.821-2.255-2.81-2.525-5.1-.097-.824.395-4.51 1.724-6.958-.733 3.063-.834 5.31-.654 6.832zM227.896 469.678c2.132.466 4.456.421 6.658-.303 1.947-.64 3.803-1.814 5.352-3.639 1.127-1.328 3.055-2.502 5.558-3.347 1.048-.354 5.571-1.32 8.839-.861-3.766.528-7.055 1.393-8.497 1.88-2.316.782-4.077 1.842-5.079 3.023-1.687 1.988-3.713 3.268-5.84 3.968-2.393.787-4.912.836-7.219.332-2.916-.636-5.886-.748-8.87.416 2.18-2.343 6.683-1.995 9.098-1.468zM254.232 473.642c.996-1.405 2.712-2.625 4.816-3.514 2.068-.875 4.519-1.437 7.026-1.546 2.345-.102 4.33-.797 6.3-2.139 1.388-.945 4.419-3.59 7.15-6.258-1.88 2.978-5.512 6.445-6.543 7.146-2.145 1.462-4.306 2.219-6.86 2.33-2.388.103-4.709.633-6.657 1.457-1.922.813-3.476 1.906-4.356 3.147-1.722 2.427-3.457 3.977-6.58 4.617 2.638-1.688 4.045-2.902 5.704-5.24zM299.554 439.904c-.498 3.325.124 6.754 1.458 9.674 1.162 2.544 2.908 4.309 4.773 5.283 1.387.725 2.832 1.007 4.135.843-1.32-.933-2.284-1.943-2.96-2.991a8.146 8.146 0 0 1-1.302-5.166c.25-3.154 7.179-11.198 9.22-13.641-1.173 2.796-7.434 11.638-7.602 13.767-.109 1.374.163 2.808 1.042 4.168.78 1.208 2.04 2.374 3.934 3.417.557.307.535 1.156-.037 1.434-2.094 1.017-4.735.878-7.176-.397-2.158-1.127-4.17-3.15-5.493-6.047-2.8-6.13-2.296-14.817 4.09-19.452-1.882 2.586-3.693 6.507-4.082 9.108zM292.287 473.755c-1.705 2.603-3.614 5.517-4.517 9.216-1.04 4.26-.862 7.298.15 9.801.697 1.728 2.774 5.041 5.351 7.377-2.968-1.723-5.926-5.926-6.35-6.977-1.094-2.706-1.295-5.95-.196-10.453.949-3.888 2.91-6.88 4.66-9.554 1.72-2.627 3.548-6.878 3.285-10.155 1.783 3.552-2.297 10.613-2.383 10.745z" style="fill:#000;fill-rule:evenodd;stroke:#000;stroke-width:.5669;stroke-linecap:round;stroke-linejoin:round;stroke-dasharray:none" transform="matrix(1.59837 0 0 1.59837 -203.289 -560.927)"/><path d="M292.987 494.928c.81 1.547 2.321 2.676 3.962 3.282 1.732.64 3.567.695 4.827.043l1.49-.772.081 1.677c.02.416-.054.834-.21 1.244-.36.944-1.186 1.835-2.312 2.491-1.053.613-2.39 1.038-3.852 1.108a9.277 9.277 0 0 1-3.755-.61 17.455 17.455 0 0 1-5.867-3.72c-1.742-1.674-3.05-3.63-3.835-5.617-.743-1.88-1.328-3.8-1.447-6.25-.103-2.115.15-4.612.961-7.8-1.236.084-2.37.424-3.335 1.108-1.332.945-2.4 2.57-3.058 5.111-.816 3.156-2.637 5.098-4.933 6.25-2.206 1.107-4.822 1.45-7.369 1.44-2.658-.008-5.078-.884-7.074-2.487-1.833-1.472-3.296-3.553-4.24-6.129-.262.195-.52.392-.773.59-1.738 1.363-4.421 2.166-7.264 2.51-3.217.388-6.697.198-9.22-.432a18.306 18.306 0 0 1-3.33-1.215c-1.955-.926-3.927-2.248-5.29-3.866h.003c-1.47-1.743-2.26-3.822-1.682-6.138.107-.43.264-.867.474-1.31l.314-.664c-.39.008-.796.03-1.214.067-1.71.15-3.605.538-5.637 1.194-2.02.652-4.592.897-7.184.897-3.337 0-6.746-.403-9.032-.864-2.102-.423-4.582-1.21-6.832-2.164-2.116-.897-4.04-1.95-5.284-3.002-1.4-1.184-2.698-2.677-3.623-4.449a12.114 12.114 0 0 1-1.393-5.211c-.084-2.337.255-4.967 1.64-7.085 1.102-1.683 2.832-3.012 5.48-3.58a9.33 9.33 0 0 1 1.207-.185c1.438-.113 2.687.17 3.661.786 1.024.647 1.716 1.637 1.988 2.902.055.258.092.5.11.726l.11 1.38-1.37-.234c-1.281-.22-2.237-.31-2.993-.186-.664.108-1.218.406-1.789.966a1.56 1.56 0 0 0-.12.133l-.003.004c-1.165 1.436-2.041 5.567.744 7.826 1.61 1.306 3.294 2.05 4.973 2.49 1.702.446 3.46.586 5.137.679 1.675.093 3.083.177 4.45-.034 1.375-.213 2.825-.727 4.672-1.833 3.366-2.015 5.516-2.221 8.017-2.46a47.325 47.325 0 0 0 1.848-.202c1.536-.206 2.834-.497 3.979-1.088 1.122-.578 2.143-1.474 3.172-2.909a14.2 14.2 0 0 1 2.522-2.715c-2.734-.101-5.11-1.288-7.05-2.938-2.838-2.414-4.74-5.87-5.412-8.273-.333-1.195-.306-2.862.118-4.452.374-1.397 1.058-2.77 2.082-3.765.943-.918 1.954-1.462 2.951-1.71a5.34 5.34 0 0 1 2.882.077c.888.275 1.677.77 2.295 1.405a4.997 4.997 0 0 1 1.28 2.26l.428 1.72-1.726-.418c-.718-.174-1.363-.229-1.927-.184-.638.05-1.136.233-1.488.51a1.807 1.807 0 0 0-.64 1.011 2.63 2.63 0 0 0-.05.821c.01.144.041.294.088.443.293.93 1.126 2.07 2.257 2.967 1.103.875 2.47 1.485 3.852 1.375a3.94 3.94 0 0 0 .875-.165c1.314-.414 3.005-1.282 4.819-2.213 1.64-.842 3.379-1.734 5.111-2.43-1.19-.711-2.43-1.573-3.488-2.542-1.362-1.246-2.446-2.688-2.824-4.26-.443-1.846-.332-3.905.317-5.646.624-1.675 1.745-3.07 3.353-3.762 1.14-.491 2.472-.628 3.693-.421a5.72 5.72 0 0 1 2.217.855c.687.459 1.24 1.077 1.574 1.854.316.735.43 1.596.264 2.575l-.198 1.17-1.141-.307c-1.718-.461-3.027-.709-3.9-.583-.56.08-.913.394-1.065 1.04-.07.3-.112.593-.12.875-.016.535.088 1.006.337 1.357.247.348.666.617 1.287.763.283.067.612.108.986.12 1.484.044 2.254.033 2.884-.157.638-.193 1.308-.618 2.555-1.39 1.64-1.015 4.257-1.69 6.58-1.53 2.036.142 3.901.907 4.886 2.595v.004c.206.352.469.71.78 1.052.812.89 1.934 1.648 3.243 1.946 1.298.295 2.804.137 4.408-.8h.004c.056-.032.113-.066.168-.1l-.022-.018a3.287 3.287 0 0 1-.869-1.106 3.943 3.943 0 0 1-.38-1.387c-.118-1.325.356-2.957 1.658-4.55l.522-.35c.695-.211 2.015-.346 3.605-.427 1.978-.1 4.46-.128 6.641-.125.654 0 1.302.046 1.993.094 3.506.245 8.249.576 10.835-5.294.678-1.538 1.03-2.969 1.124-4.268.132-1.83-.252-3.38-.953-4.588-.688-1.185-1.682-2.053-2.789-2.54a5.238 5.238 0 0 0-1.734-.434c-1.825-.132-3.782.114-5.613.344-2.46.309-4.716.593-6.459-.016-2.53.79-5.073 1.31-7.267 1.514-2.112.196-3.941.093-5.195-.35-.99.306-1.853.378-2.597.28a4.024 4.024 0 0 1-2.268-1.047 4.655 4.655 0 0 1-1.186-1.838l.004.004c-.312-.863-.388-1.784-.295-2.496.081-.625.233-1.074.378-1.502v.004c.256-.76.482-1.426-.312-3.296-1.223-2.88.974-4.477 3.16-5.405.75-.32 1.464-.543 1.994-.709.125-.039.245-.076.403-.13.252-.083.555-.191.875-.305 1.394-.499 3.117-1.114 5.062-1.267.737-.058.722-1.34.71-2.28v-.003c-.004-.44-.01-.833.044-1.18l.088-.574.531-.243c5.307-2.425 13.892-3.649 21.942-3.966 8.899-.351 17.28.478 20.085 2.048a4.308 4.308 0 0 1 1.986-.334c.882.058 1.8.371 2.719.958 2.024 1.294 3.417 4.65 3.652 8.25.206 3.171-.462 6.595-2.366 9.007v-.004c-.154.196-.312.383-.472.561h.004l-.07.077c.27 1.33.429 2.787.587 4.25.368 3.393.74 6.824 2.509 8.137.65.482 1.36.835 2.077 1.047.864.254 1.728.301 2.49.116a3.103 3.103 0 0 0 1.796-1.17c.581-.782.787-1.888 1.06-2.813.697.599 1.512 1.187 2.043 1.945.942 1.346 1.238 3.216 1.043 5.027-.192 1.777-.866 3.54-1.871 4.709-.286.332-.591.617-.911.84-1.364.956-3.062 1.43-4.685 1.562a11.57 11.57 0 0 1-2.878-.123c.208 1.16.24 2.426.157 3.78-.128 2.077-.53 4.416-.95 6.908-.407 2.411-.043 5.135 1.189 7.309 1.02 1.8 2.649 3.218 4.94 3.736 1.984.448 4.016 1.327 5.522 2.549 1.116.905 1.957 2.004 2.318 3.272.372 1.31.235 2.753-.631 4.285-1.495 2.644-4.279 4.299-6.718 5.98.34-1.871 1.551-5.952.587-7.393-.43-.643-1.496-.877-3.037-1.09a16.603 16.603 0 0 1-2.484-.524 13.751 13.751 0 0 1-1.174-.408c-.05 3.035-.935 5.894-1.695 8.348-.196.633-.384 1.237-.553 1.843a5.908 5.908 0 0 0-.163.764c-.139.978.013 1.85.443 2.53.426.675 1.148 1.193 2.155 1.475.249.07.512.125.788.164 2.115.3 3.722 1.726 4.707 3.63 1.019 1.971 1.369 4.489.9 6.746a8.15 8.15 0 0 1-.276 1.004c-.525 1.515-1.525 3.026-2.848 4.068-1.389 1.094-3.129 1.686-5.063 1.284-.93-.192-1.85-.584-2.743-.893l1.678-1.213c1.765-1.275 2.647-2.31 2.854-3.151.152-.617-.177-1.192-.84-1.73-.343-.28-.98-.563-1.796-.788a11.415 11.415 0 0 0-2.708-.391c-1.63-.042-3.296-.601-4.702-1.517a9.042 9.042 0 0 1-2.072-1.848l-.018.034c-.154.287-.38.695-.604 1.096-.58 1.045-1.11 2-1.385 2.832-.426 1.284-.026 2.329 2.59 3.196 2.94.974 5.048 2 6.618 3.4 1.614 1.44 2.62 3.225 3.317 5.684.735 2.593.936 5.26.28 7.574-.595 2.09-1.868 3.88-4.044 5.071-1.55.849-3.6.896-5.589.301a10.992 10.992 0 0 1-3.447-1.75c-1.06-.802-1.981-1.815-2.63-2.999-.964-1.762-1.314-3.879-.613-6.221l.446-1.493a74.293 74.293 0 0 1-1.688-.276c-1.644-.291-4.206-.818-6.624-1.95-2.522-1.18-4.853-3.005-5.83-5.878-1.126-3.308.783-9.437 5.99-15.836-2.373 6.714-5.422 12.045-3.952 15.145 1 2.11 2.642 3.66 4.702 4.624 2.163 1.012 4.548 1.5 6.085 1.772 1.151.203 2.224.36 3.252.51 4.035.587 7.459 1.086 9.276 3.274a5.384 5.384 0 0 1 1.196 2.561c.134.809.06 1.61-.201 2.336a4.466 4.466 0 0 1-1.352 1.93c-.636.527-1.449.907-2.415 1.068-1.924.318-3.534-.512-5.01-1.961-.694-.681-1.352-1.496-1.998-2.384.113.627.329 1.213.623 1.752.491.896 1.207 1.676 2.04 2.307a8.819 8.819 0 0 0 2.766 1.405c1.468.44 2.921.437 3.946-.124 1.612-.882 2.556-2.211 2.998-3.765.54-1.907.356-4.17-.28-6.412-.58-2.047-1.392-3.51-2.676-4.656-1.326-1.183-3.2-2.08-5.86-2.962-4.247-1.408-4.802-3.388-3.964-5.917.33-.997.916-2.051 1.555-3.203.168-.302.343-.617.586-1.07a32.635 32.635 0 0 0 .837-1.674l1.018-2.2.949 2.23c.452 1.062 1.308 1.993 2.353 2.674 1.078.703 2.348 1.132 3.582 1.163 1.153.03 2.27.21 3.23.475 1.099.303 2.015.733 2.58 1.193 1.327 1.078 1.955 2.36 1.573 3.911-.196.795-.686 1.633-1.521 2.522a4.562 4.562 0 0 0 1.373-.755c.99-.78 1.742-1.922 2.141-3.074.09-.26.16-.51.209-.744.37-1.783.096-3.769-.707-5.321-.68-1.316-1.74-2.294-3.09-2.485a8.3 8.3 0 0 1-1.073-.223c-1.545-.432-2.684-1.277-3.394-2.402-.706-1.119-.965-2.485-.754-3.97.049-.347.123-.698.221-1.05.16-.572.36-1.218.57-1.893.855-2.76 1.878-6.066 1.533-9.358l-.22-2.1 1.829 1.06c.81.47 1.626.795 2.398 1.025a14.4 14.4 0 0 0 2.156.457c2.125.293 3.639.684 4.536 2.025.572.854.796 2.02.648 3.717.84-.759 1.433-1.48 1.818-2.16.557-.985.657-1.87.437-2.643-.232-.815-.815-1.556-1.601-2.194-1.24-1.006-2.95-1.738-4.638-2.12-2.95-.666-5.038-2.477-6.339-4.772-1.481-2.614-1.924-5.863-1.442-8.724.405-2.4.793-4.652.917-6.68.18-2.928-.55-4.753-1.526-7.374 2.2 1.036 3.663 1.896 6.235 1.687 1.282-.105 2.598-.462 3.615-1.174.189-.132.362-.292.516-.47.725-.845 1.217-2.17 1.365-3.538.103-.954.036-1.909-.241-2.703l-.038.052c-.773 1.042-1.83 1.689-3.017 1.978-1.136.276-2.385.218-3.603-.142a8.837 8.837 0 0 1-2.75-1.383c-2.528-1.876-2.95-5.778-3.369-9.636-.173-1.602-.346-3.197-.671-4.571l-.14-.59.439-.425c.099-.096.227-.232.386-.41h.004c.126-.139.253-.29.38-.45v-.005c1.542-1.955 2.078-4.83 1.902-7.532-.193-2.962-1.208-5.64-2.658-6.566-.6-.384-1.17-.587-1.691-.621a2.223 2.223 0 0 0-1.36.345l-.787.5-.607-.71c-1.25-1.463-9.764-2.218-19.098-1.85-7.525.297-15.475 1.384-20.534 3.503 0 .09 0 .185.002.283v.004-.004.004c.022 1.795.049 4.241-2.699 4.457-1.685.132-3.244.69-4.506 1.14-.317.113-.616.22-.926.323-.08.027-.244.078-.436.138-.492.154-1.156.362-1.792.632-1.25.531-2.542 1.362-2.023 2.583 1.114 2.623.766 3.651.37 4.822v.004c-.113.336-.232.689-.285 1.09-.053.41-.005.957.186 1.485l.004.004c.135.371.338.722.622.987.269.25.624.432 1.08.491.52.068 1.174-.013 1.988-.307l.422-.153.403.19c.891.422 2.511.516 4.507.331 2.144-.199 4.666-.73 7.174-1.539l.771.042c1.238.561 3.37.293 5.714 0 1.945-.245 4.023-.506 6.025-.361.83.06 1.66.27 2.45.618 1.509.665 2.858 1.839 3.783 3.434.911 1.57 1.412 3.54 1.248 5.818-.11 1.522-.52 3.193-1.31 4.984-3.2 7.264-8.805 6.872-12.949 6.583-.691-.049-1.34-.094-1.85-.094-2.122-.002-4.554.025-6.53.125-1.197.061-2.192.145-2.783.26-.745 1.009-1.023 1.969-.956 2.725.022.245.078.457.162.629.076.154.176.284.295.381.203.167.493.249.846.217l.817 1.875a12.38 12.38 0 0 1-2.094 1.556h.004c-2.13 1.244-4.177 1.444-5.968 1.036-1.78-.406-3.286-1.415-4.362-2.595a8.445 8.445 0 0 1-1.05-1.423v.004c-.57-.976-1.792-1.428-3.169-1.524-1.902-.132-4.011.399-5.307 1.201-1.409.872-2.156 1.35-3.069 1.626-.922.278-1.843.3-3.557.248a7.107 7.107 0 0 1-1.417-.177c-1.17-.277-2.005-.848-2.55-1.614-.542-.763-.771-1.68-.742-2.663.013-.421.075-.86.18-1.305.39-1.654 1.335-2.464 2.86-2.683.91-.13 2.023-.007 3.36.288a1.968 1.968 0 0 0-.062-.161 2.116 2.116 0 0 0-.791-.918 3.551 3.551 0 0 0-1.375-.519c-.829-.14-1.726-.05-2.488.278-1.028.442-1.763 1.385-2.19 2.532-.5 1.342-.582 2.946-.233 4.4.263 1.095 1.107 2.18 2.183 3.165 1.582 1.447 3.626 2.638 5.176 3.381l-.185 2.013c-2.265.612-4.78 1.903-7.093 3.09-1.89.97-3.65 1.873-5.156 2.348a6.068 6.068 0 0 1-1.347.267c-1.977.157-3.87-.665-5.36-1.847-1.463-1.16-2.561-2.705-2.973-4.012a4.192 4.192 0 0 1-.19-.914c-.04-.508 0-1.011.118-1.496a3.93 3.93 0 0 1 1.398-2.2c.686-.54 1.577-.886 2.65-.972.082-.006.165-.012.248-.015a3.299 3.299 0 0 0-1.06-.555 3.218 3.218 0 0 0-1.736-.044c-.645.16-1.316.529-1.967 1.162-.72.702-1.217 1.72-1.5 2.78-.329 1.23-.363 2.473-.126 3.323.58 2.078 2.244 5.081 4.738 7.203 1.762 1.5 3.938 2.535 6.42 2.42.7-.032 1.356-.076 1.965-.148h.004c.613-.072 1.21-.174 1.802-.324l.742 2.01c-.187.093-.374.182-.572.277-1.457.696-3.63 1.734-5.48 4.316-1.24 1.73-2.511 2.83-3.938 3.566-1.405.725-2.916 1.07-4.68 1.307-.673.09-1.313.152-1.93.21-2.24.215-4.165.4-7.116 2.166-2.111 1.263-3.808 1.857-5.448 2.11-1.65.256-3.13.166-4.896.068-1.764-.097-3.628-.25-5.558-.754-1.952-.512-3.912-1.38-5.791-2.903-3.87-3.14-2.668-8.864-1.056-10.85l-.004.003c.094-.116.19-.222.288-.318.91-.893 1.824-1.372 2.952-1.556.605-.1 1.254-.107 1.987-.045a2.21 2.21 0 0 0-.632-.6c-.575-.364-1.374-.526-2.348-.45-.32.026-.631.07-.929.134-2.013.433-3.312 1.416-4.123 2.655-1.094 1.672-1.357 3.857-1.287 5.829a9.984 9.984 0 0 0 1.15 4.293c.786 1.507 1.898 2.784 3.1 3.8 1.078.912 2.804 1.85 4.728 2.665 2.103.892 4.433 1.63 6.419 2.03 2.175.439 5.424.822 8.61.822 2.406 0 4.754-.216 6.528-.788 2.23-.72 4.281-1.144 6.108-1.304 1.974-.173 3.735-.044 5.222.347 1.212.32 2.684.528 4.366.325 1.69-.203 3.603-.826 5.695-2.175 6.222-4.01 8.812-5.112 17.143-5.058-6.651 1.71-11.933 4.497-12.347 9.356a6.459 6.459 0 0 1-.242 1.25c-.538 1.85-1.871 3.446-3.515 4.53-1.642 1.082-3.617 1.676-5.44 1.52a6.325 6.325 0 0 1-1.229-.233c-1.948-.567-3.448-1.256-4.78-2.219h.005c-.82-.592-1.562-1.279-2.297-2.094 0 1.179.53 2.283 1.356 3.264h.004c1.154 1.369 2.857 2.504 4.557 3.31 1.02.483 2.038.847 2.934 1.07 2.288.572 5.474.74 8.445.382 2.493-.301 4.795-.966 6.195-2.063 1.904-1.493 4.095-2.916 6.26-3.88 1.895-.842 3.783-1.342 5.476-1.254a36 36 0 0 0 4.213-.047c1.658-.112 3.101-.311 4.077-.51l1.878-.381-.656 1.805a20.785 20.785 0 0 1-.635 1.504c-.41.903-.852 1.877-1.08 3.016-.244 1.22-.93 2.624-2.12 3.84-.958.978-2.249 1.84-3.903 2.383-1.986.653-4.051.026-6.058-1.193-.1-.06-.2-.124-.301-.188.173.16.35.315.532.461 1.61 1.293 3.57 2 5.727 2.007 2.26.008 4.55-.28 6.408-1.213 1.77-.888 3.176-2.396 3.813-4.86.796-3.078 2.16-5.096 3.891-6.324 1.76-1.248 3.842-1.655 6.057-1.51l1.338.088-.369 1.285c-1.033 3.603-1.355 6.283-1.248 8.48.104 2.158.63 3.874 1.296 5.56.677 1.714 1.81 3.407 3.32 4.858a15.294 15.294 0 0 0 5.143 3.257c.987.377 1.972.51 2.887.466 1.11-.053 2.105-.364 2.875-.813.099-.057.193-.118.284-.18-1.239.06-2.565-.154-3.823-.62-2.104-.777-4.057-2.255-5.133-4.31-1.027-1.959-2.305-4.662-2.414-8.18-.07-2.226.193-5.83 5.416-12.124-4.103 8.567-4.851 12.129-1.09 19.31zM254.95 483.97c1.435 1.343 2.994 2.717 4.55 3.661 1.509.917 2.99 1.412 4.272.991 1.295-.426 2.298-1.091 3.035-1.844.87-.889 1.367-1.893 1.539-2.753.239-1.197.648-2.184 1.054-3.09-.726.094-1.531.176-2.38.233a38.115 38.115 0 0 1-4.467.047c-1.342-.069-2.897.353-4.49 1.062a24.242 24.242 0 0 0-3.113 1.693zm-27.519-9.178.342.453c1.094 1.451 2.088 2.521 3.214 3.336h.004c1.127.815 2.42 1.405 4.114 1.898.236.068.508.115.808.14 1.341.115 2.822-.34 4.075-1.166 1.251-.825 2.254-2 2.64-3.324.071-.248.122-.525.148-.83.174-2.045 1.19-3.714 2.716-5.149-.58.378-1.168.785-1.78 1.209-.768.53-1.572 1.088-2.413 1.63-2.4 1.547-4.623 2.266-6.605 2.504-1.99.24-3.732-.007-5.166-.384a10.733 10.733 0 0 0-2.097-.317zm79.495 22.78.727 1.094c1.168 1.756 2.295 3.441 3.454 4.579 1.001.983 2.033 1.557 3.156 1.37a2.868 2.868 0 0 0 1.379-.604 2.31 2.31 0 0 0 .703-.994c.142-.393.182-.828.11-1.266-.084-.507-.324-1.032-.733-1.525-1.296-1.56-4.337-2.004-7.92-2.525l-.876-.129z" style="fill:#000;fill-rule:evenodd" transform="matrix(1.59837 0 0 1.59837 -203.289 -560.927)"/><path d="M294.19 389.557c2.19 0 11.618.822 18.562 2.372a5.47 5.47 0 0 1 1.48-1.389c.631-.4.789.193.879-.426.513-3.484 1.835-6.71 3.898-9.296 2.519-3.156 4.038-3.795 7.582-6.441 1.037-.774 1.053-2.077-.16-2.469-3.322-1.074-7.089-.886-8.04.878-1.137 2.11-1.723.895-1.868-.454-.145-1.35-4.689-2.392-6.889.792-2.2 3.185-1.044 5.793.294 7.131 1.34 1.339 3.185.144 5.201-.042-5.553 7.423-7.715.445-8.365-1.923-4.547 7.283-8.809 3.355-9.432 1.182-.622-2.174 1.723-2.359 2.074-1.155.351 1.204 1.433 1.29 2.645 1.012 1.213-.278 3.043-1.624 3.558-4.301.24-1.255-.224-3.351-1.618-4.363-2.173-1.575-3.74-.246-4.566.909-1.414 1.98-3.136 1.048-1.493-.956 1.643-2.005-.647-4.708-3.742-4.708-3.094 0-5.384 2.703-3.74 4.708 1.642 2.004-.08 2.936-1.494.956-.825-1.155-2.393-2.484-4.566-.909-1.395 1.012-1.859 3.108-1.618 4.363.515 2.677 2.345 4.023 3.558 4.3 1.212.278 2.294.193 2.645-1.01.35-1.205 2.696-1.02 2.073 1.154-.622 2.173-4.885 6.1-9.43-1.182-.652 2.368-2.813 9.346-8.366 1.923 2.015.186 3.862 1.381 5.2.042 1.339-1.338 2.494-3.946.295-7.13-2.2-3.185-6.745-2.143-6.89-.793-.145 1.35-.73 2.564-1.868.454-.95-1.764-4.717-1.952-8.04-.878-1.212.392-1.196 1.695-.16 2.469 3.545 2.646 5.064 3.284 7.583 6.44 2.519 3.157 3.932 7.269 4.119 11.637 6.973-1.888 18.275-2.897 20.7-2.897z" style="fill:#fcdd09;fill-rule:evenodd;stroke:#000;stroke-width:1.7008;stroke-linecap:butt;stroke-linejoin:miter;stroke-dasharray:none" transform="matrix(1.59837 0 0 1.59837 -203.289 -560.927)"/><path d="M273.206 391.76c2.806-1.476 6.585-2.297 10.416-2.747 3.773-.443 7.598-.53 10.569-.53 2.97 0 6.796.087 10.568.53 3.145.37 6.254.99 8.82 2.016a5.687 5.687 0 0 0-1.364 1.788c-2.251-.823-4.958-1.34-7.714-1.665-3.654-.429-7.396-.513-10.31-.513-2.914 0-6.656.084-10.31.513-3.596.423-7.107 1.175-9.632 2.504-.486.255-1.14.18-1.492-.437-.353-.618-.036-1.203.45-1.459z" style="fill:#fcdd09;fill-rule:evenodd;stroke:#000;stroke-width:1.4173;stroke-linecap:round;stroke-linejoin:round;stroke-dasharray:none" transform="matrix(1.59837 0 0 1.59837 -203.289 -560.927)"/><g><path d="M311.05 386.344a5.77 5.77 0 0 1-2.46.063 4.533 4.533 0 0 1-2.002-.928 3.72 3.72 0 0 1-.97-1.21 8.758 8.758 0 0 1-2.88 1.41c-1.38.38-2.724.374-3.832.11-1.502-.358-2.803-.965-3.742-1.966a5.214 5.214 0 0 1-.973-1.475 5.212 5.212 0 0 1-.974 1.475c-.939 1.001-2.24 1.608-3.742 1.966a7.691 7.691 0 0 1-3.778-.08 8.492 8.492 0 0 1-2.913-1.453 5.232 5.232 0 0 1-1.06 1.195 4.883 4.883 0 0 1-2.623 1.1c-.977.1-2.04-.078-3.12-.605-.86-.42-2.372-1.584-3.125-3.277 1.535 1.026 2.573 1.808 3.597 2.308.892.435 1.756.585 2.539.504a3.81 3.81 0 0 0 2.046-.86 4.254 4.254 0 0 0 1.106-1.42l.308-.631.53.462c.967.845 1.995 1.364 2.997 1.637a6.61 6.61 0 0 0 3.247.071c1.31-.312 2.43-.824 3.208-1.654 1.186-1.266 1.453-2.168 1.756-3.923.36 1.724.627 2.718 1.757 3.923.778.83 1.898 1.342 3.208 1.654.95.227 2.106.23 3.297-.098a7.797 7.797 0 0 0 3.06-1.667l.673-.587.206.87a2.57 2.57 0 0 0 .884 1.392c.41.338.932.581 1.526.7.61.123 1.292.114 2.005-.054 1.71-.404 3.035-1.06 4.575-2.346-1.133 2.22-3.412 3.177-4.331 3.394z" style="fill:#000;fill-rule:evenodd" transform="matrix(1.59837 0 0 1.59837 -203.289 -560.927)"/><path d="M276.165 386.322a2.051 2.051 0 0 0-2.051 2.052 2.051 2.051 0 1 0 2.051-2.052zM312.216 386.322a2.051 2.051 0 0 1 2.051 2.052 2.051 2.051 0 1 1-2.051-2.052zM294.19 384.14a2.051 2.051 0 0 1 2.052 2.051 2.051 2.051 0 1 1-2.051-2.051z" style="fill:#fff;fill-rule:evenodd;stroke:#000;stroke-width:1.1339;stroke-linecap:butt;stroke-linejoin:miter;stroke-dasharray:none" transform="matrix(1.59837 0 0 1.59837 -203.289 -560.927)"/></g></g><path d="M153.417 534.898c1.024 14.7 2.553 30.995 4.974 47.287 6.476 43.582 30.359 63.687 47.225 71.917 16.866 8.231 48.844 13.763 54.646 14.978 5.802 1.214 12.274 2.686 14.84 6.133 2.566-3.447 9.038-4.92 14.84-6.133 5.802-1.215 37.78-6.747 54.647-14.978 16.866-8.23 40.748-28.335 47.225-71.917 2.42-16.292 3.95-32.586 4.973-47.287z" style="fill:#078930;fill-rule:evenodd;stroke:#000;stroke-width:3.4016;stroke-linecap:butt;stroke-linejoin:miter;stroke-dasharray:none" transform="matrix(1.59837 0 0 1.59837 -203.289 -560.927)"/><g><path d="M185.18 639.43c6.946 6.922 14.175 11.617 20.436 14.672 2.895 1.413 6.235 2.746 9.81 3.99l59.676-41.54 59.675 41.54c3.576-1.245 6.917-2.577 9.812-3.99 6.261-3.055 13.49-7.75 20.435-14.673l-61.393-42.736 88.771-61.795h-57.056l-60.243 41.936-60.244-41.936h-57.057l88.772 61.795z" style="fill:#fcdd09;fill-rule:evenodd;stroke:#000;stroke-width:2.8346;stroke-linecap:butt;stroke-linejoin:miter;stroke-dasharray:none" transform="matrix(1.59837 0 0 1.59837 -203.289 -560.927)"/><path d="m198.794 649.813 165.08-114.915M351.732 650.036 186.331 534.898M275.102 616.813v-40.24M246.443 596.693h57.319" style="fill:none;stroke:#000;stroke-width:2.2677;stroke-linecap:butt;stroke-linejoin:miter;stroke-dasharray:none" transform="matrix(1.59837 0 0 1.59837 -203.289 -560.927)"/></g><path d="M275.102 356.315c-19.562 6.745-60.715 13.222-108.345 8.5-9.712 10.729-19.311 21.472-33.387 30.493 4.292 5.831 9.418 17.777 11.696 31.476 3.655 21.973 4.515 42.119 5.634 55.149 1.123 13.073 1.214 56.67 7.69 100.252 6.478 43.582 30.36 63.687 47.226 71.917 16.866 8.231 48.844 13.763 54.646 14.978 5.802 1.214 12.274 2.686 14.84 6.133 2.566-3.447 9.038-4.92 14.84-6.133 5.802-1.215 37.78-6.747 54.647-14.978 16.866-8.23 40.748-28.335 47.225-71.917 6.476-43.582 6.568-87.178 7.69-100.252 1.12-13.03 1.98-33.176 5.635-55.148 2.278-13.7 7.404-25.646 11.696-31.477-14.076-9.02-23.675-19.764-33.387-30.494-47.63 4.723-88.783-1.754-108.346-8.499z" style="fill:none;stroke:#000;stroke-width:4.252;stroke-linecap:butt;stroke-linejoin:miter;stroke-dasharray:none" transform="matrix(1.59837 0 0 1.59837 -203.289 -560.927)"/></svg>