<svg xmlns="http://www.w3.org/2000/svg" version="1.0" width="462.612" height="481.887"><defs><linearGradient id="e"><stop style="stop-color:#000;stop-opacity:1" offset="0"/><stop style="stop-color:#000;stop-opacity:0" offset="1"/></linearGradient><linearGradient id="d"><stop style="stop-color:#f9d100;stop-opacity:1" offset="0"/><stop style="stop-color:#f9d100;stop-opacity:0" offset="1"/></linearGradient><linearGradient id="c"><stop style="stop-color:#f9d100;stop-opacity:1" offset="0"/><stop style="stop-color:#f9d100;stop-opacity:1" offset=".5"/><stop style="stop-color:#f9d100;stop-opacity:0" offset="1"/></linearGradient><linearGradient id="b"><stop style="stop-color:#0092c0;stop-opacity:1" offset="0"/><stop style="stop-color:#0092c0;stop-opacity:1" offset=".381"/><stop style="stop-color:#fff;stop-opacity:0" offset="1"/></linearGradient><linearGradient id="a"><stop style="stop-color:#f9d100;stop-opacity:1" offset="0"/><stop style="stop-color:#f9d100;stop-opacity:0" offset="1"/></linearGradient></defs><path d="m0 68.164 47.404-56.979s-6.349 15.442 11.095 12.956C85.73 20.258 125.063 0 239.042 0c87.136 0 171.466 27.04 171.466 27.04s6.003.29 5.336-13.518c-.3-6.22 37.319 51.18 45.39 53.111 8.071 1.932-21.68-4.635-27.73 19.505-6.052 24.145-14.929 224.82-14.929 224.82s-18.152 170.93-188.61 170.93c-170.457 0-190.628-169.966-190.628-182.521 0-12.554-4.037-152.578-4.037-152.578S41.354 53.68 0 68.164z" style="fill:#231f20;fill-opacity:1"/><path d="M435.147 54.76s-5.641-2.996-16.18-7.425c-29.86-12.55-99.04-36.601-190.64-36.601-123.928 0-206.82 44.026-206.82 44.026l19.818-33.94s4.208 9.444 14.086 7.082c16.222-3.876 85.51-24.277 172.917-24.277S406.895 32.62 411.415 31.836c4.522-.784 6.505-3.68 6.505-3.68l17.227 26.604z" style="fill:#fff;stroke:#231f20;stroke-width:1.87469995;stroke-opacity:1"/><path d="M229.321 472.979c48.935-.5 87.332-14.481 118.34-40.942 27.155-22.655 57.67-62.043 64.46-122.456l2.176-59.621 4.85-166.166c.69-10.924.99-20.425 13.872-29.876C287.992-5.9 153.157 2.827 26.579 53.702c8.6 6.59 15.862 16.608 14.671 27.226l4.34 169.066 1.478 61.16c2.663 26.447 10.473 67.54 62.703 119.245 21.92 17.7 56.473 41.488 119.55 42.58z" style="fill:#ed1c24;fill-opacity:1;fill-rule:evenodd;stroke:none;stroke-width:1px;stroke-linecap:butt;stroke-linejoin:miter;stroke-opacity:1"/><path d="m381.951 80.434 32.343 30.475 6.279 23.677c-66.241 11.165-55.258 44.331-77.833 66.376-15.851 16.785-37.425 16.975-58.672 34.942-22.544 24.29-14.865 37.867-36.337 55-15.91 14.388-26.933 6.64-45.996 20.903-13.515 10.74-14.437 38.318-36.048 55.638-21.01 14.92-63.297 9.315-68.462 55.075C76.6 272.755 293.998 184.534 381.95 80.434z" style="fill:#231f20;fill-opacity:1;fill-rule:evenodd;stroke:#231f20;stroke-width:1.47217536px;stroke-linecap:butt;stroke-linejoin:miter;stroke-opacity:1"/><g style="fill:none"><path d="M-410.609 328.173c14.527-14.427 44.422-18.13 61.47-28.637 21.02-18.58 10.305-26.758 29.821-48.364 24.018-22.57 39.614-9.392 57.465-25.884 18.994-23.269 12.955-29.741 31.437-50.115 17.63-21.829 36.776-15.067 55.456-30.92 12.856-12.928 16.214-35.588 36.839-54.006 21.206-17.847 42.425-1.038 63.746-42.714.68-.449 3.797-9.051 5.725-10.693 6.228.455 39.694 16.364 39.646 16.407-12.11 11.056-8.417 31.064-12.284 79.689-61.03 9.175-57.34 39.184-72.84 55.925-10.348 13.374-12.504 23.668-45.896 35.453-31.306 4.968-29.28 40.97-50.158 58.82-15.412 14.921-29.194 6.683-47.762 21.584-13.142 11.194-13.549 37.549-34.56 55.592-16.118 20.853-66.026 6.344-70.597 56.051-20.396-14.383-44.608-68.59-47.508-88.188z" style="fill:#fff;fill-rule:evenodd;stroke:#231f20;stroke-width:3;stroke-linecap:butt;stroke-linejoin:miter;stroke-miterlimit:4;stroke-dasharray:none;stroke-opacity:1" transform="translate(459.55 1.242)"/><path d="M-405.7 346.63c15.664-13.628 40.683-16.539 62.674-30.756 26.944-17.839 13.862-34.994 38.843-57.687 23.997-18.87 34.322-9.402 52.19-24.215 22.959-19.124 10.467-28.554 30.014-47.923 18.672-15.019 38.138-12.2 54.973-27.79 22.359-23.574 13.14-35.75 39.814-56.417 10.678-12.945 56.92-7.083 71.63-61.06" style="fill:none;fill-rule:evenodd;stroke:#231f20;stroke-width:2;stroke-linecap:butt;stroke-linejoin:miter;stroke-miterlimit:4;stroke-dasharray:none;stroke-opacity:1" transform="translate(459.55 1.242)"/><path d="M-399.373 364.332c15.048-17.547 42.873-19.516 67.042-35.14 26.945-17.84 13.862-34.995 38.843-57.688 23.997-18.87 34.322-9.402 52.19-24.215 22.959-19.123 10.467-28.554 30.015-47.923 18.671-15.019 38.138-12.199 54.972-27.79 22.36-23.574 14.383-35.129 38.573-55.796 18.686-17.447 58.343-12.805 75.273-70.574" style="fill:none;fill-rule:evenodd;stroke:#231f20;stroke-width:2;stroke-linecap:butt;stroke-linejoin:miter;stroke-miterlimit:4;stroke-dasharray:none;stroke-opacity:1" transform="translate(459.55 1.242)"/><path d="M-391.897 381.472c14.051-21.43 44.192-22.475 70.123-39.24 26.945-17.838 13.862-34.994 38.843-57.686 23.997-18.871 34.323-9.403 52.19-24.216 22.96-19.123 10.468-28.554 30.015-47.923 18.671-15.018 35.654-12.82 52.488-28.41 24.843-26.68 16.867-37.614 40.436-58.28 16.514-16.469 50.5-4.106 69.14-44.977" style="fill:none;fill-rule:evenodd;stroke:#231f20;stroke-width:2;stroke-linecap:butt;stroke-linejoin:miter;stroke-miterlimit:4;stroke-dasharray:none;stroke-opacity:1" transform="translate(459.55 1.242)"/><path d="M-379.004 400.512c5.048-9.42 11.073-18.565 19.856-26.082 9.934-8.502 28.365-13.678 42.963-17.293 26.945-17.839 13.862-34.994 38.843-57.687 23.998-18.87 34.323-9.402 52.19-24.215 22.96-19.124 10.468-28.554 30.015-47.923 18.672-15.019 38.138-12.2 54.973-27.79 22.359-23.574 16.245-40.718 42.919-61.385 15.692-12.92 41.032-5.838 59.525-27.367" style="fill:none;fill-rule:evenodd;stroke:#231f20;stroke-width:2;stroke-linecap:butt;stroke-linejoin:miter;stroke-miterlimit:4;stroke-dasharray:none;stroke-opacity:1" transform="translate(459.55 1.242)"/></g><g style="fill:#231f20;fill-opacity:1"><path transform="matrix(-.5671 -.82365 .511 -.85958 465.789 .913)" style="opacity:.98989898;fill:#231f20;fill-opacity:1;fill-rule:nonzero;stroke:#231f20;stroke-width:4.03413391;stroke-linecap:round;stroke-linejoin:round;marker:none;marker-start:none;marker-mid:none;marker-end:none;stroke-miterlimit:4;stroke-dasharray:none;stroke-dashoffset:0;stroke-opacity:1;visibility:visible;display:inline;overflow:visible;enable-background:accumulate" d="M19.321-530.334h48.143v48.854H19.321z"/><path transform="matrix(-.5671 -.82365 .511 -.85958 465.789 .913)" style="opacity:.98989898;fill:#231f20;fill-opacity:1;fill-rule:nonzero;stroke:#231f20;stroke-width:4.03413391;stroke-linecap:round;stroke-linejoin:round;marker:none;marker-start:none;marker-mid:none;marker-end:none;stroke-miterlimit:4;stroke-dasharray:none;stroke-dashoffset:0;stroke-opacity:1;visibility:visible;display:inline;overflow:visible;enable-background:accumulate" d="M-10.013-430.629H38.13v48.854h-48.143z"/><path transform="matrix(-.5671 -.82365 .511 -.85958 465.789 .913)" style="opacity:.98989898;fill:#231f20;fill-opacity:1;fill-rule:nonzero;stroke:#231f20;stroke-width:4.03413391;stroke-linecap:round;stroke-linejoin:round;marker:none;marker-start:none;marker-mid:none;marker-end:none;stroke-miterlimit:4;stroke-dasharray:none;stroke-dashoffset:0;stroke-opacity:1;visibility:visible;display:inline;overflow:visible;enable-background:accumulate" d="M-37.841-327.464h48.143v48.854h-48.143z"/><path transform="matrix(-.5671 -.82365 .511 -.85958 465.789 .913)" style="opacity:.98989898;fill:#231f20;fill-opacity:1;fill-rule:nonzero;stroke:#231f20;stroke-width:4.03413391;stroke-linecap:round;stroke-linejoin:round;marker:none;marker-start:none;marker-mid:none;marker-end:none;stroke-miterlimit:4;stroke-dasharray:none;stroke-dashoffset:0;stroke-opacity:1;visibility:visible;display:inline;overflow:visible;enable-background:accumulate" d="M-65.808-231.603h48.143v48.854h-48.143z"/><path transform="matrix(-.5671 -.82365 .511 -.85958 465.789 .913)" style="opacity:.98989898;fill:#231f20;fill-opacity:1;fill-rule:nonzero;stroke:#231f20;stroke-width:4.03413391;stroke-linecap:round;stroke-linejoin:round;marker:none;marker-start:none;marker-mid:none;marker-end:none;stroke-miterlimit:4;stroke-dasharray:none;stroke-dashoffset:0;stroke-opacity:1;visibility:visible;display:inline;overflow:visible;enable-background:accumulate" d="M-121.998-290.387h48.143v48.854h-48.143z"/><path transform="matrix(-.5671 -.82365 .511 -.85958 465.789 .913)" style="opacity:.98989898;fill:#231f20;fill-opacity:1;fill-rule:nonzero;stroke:#231f20;stroke-width:4.03413391;stroke-linecap:round;stroke-linejoin:round;marker:none;marker-start:none;marker-mid:none;marker-end:none;stroke-miterlimit:4;stroke-dasharray:none;stroke-dashoffset:0;stroke-opacity:1;visibility:visible;display:inline;overflow:visible;enable-background:accumulate" d="M-92.629-391.842h48.143v48.854h-48.143z"/><path transform="matrix(-.5671 -.82365 .511 -.85958 465.789 .913)" style="opacity:.98989898;fill:#231f20;fill-opacity:1;fill-rule:nonzero;stroke:#231f20;stroke-width:4.03413391;stroke-linecap:round;stroke-linejoin:round;marker:none;marker-start:none;marker-mid:none;marker-end:none;stroke-miterlimit:4;stroke-dasharray:none;stroke-dashoffset:0;stroke-opacity:1;visibility:visible;display:inline;overflow:visible;enable-background:accumulate" d="M-61.205-491.015h48.143v48.854h-48.143z"/></g><path transform="matrix(-.5671 -.82365 .511 -.85958 0 0)" style="opacity:.98989898;fill:#fff;fill-opacity:1;fill-rule:nonzero;stroke:#231f20;stroke-width:4.03413391;stroke-linecap:round;stroke-linejoin:round;marker:none;marker-start:none;marker-mid:none;marker-end:none;stroke-miterlimit:4;stroke-dasharray:none;stroke-dashoffset:0;stroke-opacity:1;visibility:visible;display:inline;overflow:visible;enable-background:accumulate" d="M-420.326-108.868h48.143v48.854h-48.143z"/><path transform="matrix(-.5671 -.82365 .511 -.85958 0 0)" style="opacity:.98989898;fill:#fff;fill-opacity:1;fill-rule:nonzero;stroke:#231f20;stroke-width:4.03413391;stroke-linecap:round;stroke-linejoin:round;marker:none;marker-start:none;marker-mid:none;marker-end:none;stroke-miterlimit:4;stroke-dasharray:none;stroke-dashoffset:0;stroke-opacity:1;visibility:visible;display:inline;overflow:visible;enable-background:accumulate" d="M-449.66-9.162h48.143v48.854h-48.143z"/><path transform="matrix(-.5671 -.82365 .511 -.85958 0 0)" style="opacity:.98989898;fill:#fff;fill-opacity:1;fill-rule:nonzero;stroke:#231f20;stroke-width:4.03413391;stroke-linecap:round;stroke-linejoin:round;marker:none;marker-start:none;marker-mid:none;marker-end:none;stroke-miterlimit:4;stroke-dasharray:none;stroke-dashoffset:0;stroke-opacity:1;visibility:visible;display:inline;overflow:visible;enable-background:accumulate" d="M-477.488 94.003h48.143v48.854h-48.143z"/><path transform="matrix(-.5671 -.82365 .511 -.85958 0 0)" style="opacity:.98989898;fill:#fff;fill-opacity:1;fill-rule:nonzero;stroke:#231f20;stroke-width:4.03413391;stroke-linecap:round;stroke-linejoin:round;marker:none;marker-start:none;marker-mid:none;marker-end:none;stroke-miterlimit:4;stroke-dasharray:none;stroke-dashoffset:0;stroke-opacity:1;visibility:visible;display:inline;overflow:visible;enable-background:accumulate" d="M-505.455 189.864h48.143v48.854h-48.143z"/><path transform="matrix(-.5671 -.82365 .511 -.85958 0 0)" style="opacity:.98989898;fill:#fff;fill-opacity:1;fill-rule:nonzero;stroke:#231f20;stroke-width:4.03413391;stroke-linecap:round;stroke-linejoin:round;marker:none;marker-start:none;marker-mid:none;marker-end:none;stroke-miterlimit:4;stroke-dasharray:none;stroke-dashoffset:0;stroke-opacity:1;visibility:visible;display:inline;overflow:visible;enable-background:accumulate" d="M-561.645 131.079h48.143v48.854h-48.143z"/><path transform="matrix(-.5671 -.82365 .511 -.85958 0 0)" style="opacity:.98989898;fill:#fff;fill-opacity:1;fill-rule:nonzero;stroke:#231f20;stroke-width:4.03413391;stroke-linecap:round;stroke-linejoin:round;marker:none;marker-start:none;marker-mid:none;marker-end:none;stroke-miterlimit:4;stroke-dasharray:none;stroke-dashoffset:0;stroke-opacity:1;visibility:visible;display:inline;overflow:visible;enable-background:accumulate" d="M-532.276 29.625h48.143v48.854h-48.143z"/><path transform="matrix(-.5671 -.82365 .511 -.85958 0 0)" style="opacity:.98989898;fill:#fff;fill-opacity:1;fill-rule:nonzero;stroke:#231f20;stroke-width:4.03413391;stroke-linecap:round;stroke-linejoin:round;marker:none;marker-start:none;marker-mid:none;marker-end:none;stroke-miterlimit:4;stroke-dasharray:none;stroke-dashoffset:0;stroke-opacity:1;visibility:visible;display:inline;overflow:visible;enable-background:accumulate" d="M-499.858-69.257h48.143v48.854h-48.143z"/><path d="M-349.106 222.983c8.868 13.346 8.766 24.897 11.702 37.056 24.908-12.319 17.61-25.695 18.528-38.031 3.94 1.592 6.591 9.626 9.264 17.553 13.58-10.42 17.304-21.564 6.338-47.295l21.454 24.379c15.751-21.324 1.111-37.363-12.19-53.634 14.465.413 28.93 16.649 43.395 26.33 10.411-31.106-1.576-35.612-11.215-42.908 18.649.693 30.547 8.135 44.37 13.653 2.725-9.463 2.448-16.702.289-22.472-6.451-17.242-33.238-17.282-44.659-25.799 28.445-1.143 51.09 9.313 73.137 20.966 14.65-45.417-33.826-42.076-50.22-51.196 38.842-2.463 67.412 3.633 90.69 14.14 16.52-46.853-52.333-35.027-85.815-45.832 45.016-7.389 125.548 15.056 131.647-.488 3.288-9.297-5.728-16.544-25.842-21.94-94.219-10.264-189.732-24.409-263.78 25.84-13.786 11.954-20.761 27.56.488 46.32 5.116 7.518 55.209 29.186 22.428 61.923-14.041 12.353-30.884 22.104-27.473 50.661 17.856 24.129 18.95 22.082 28.936 20.038 7.332.38 14.971 1.681 18.528-9.264z" style="fill:#231f20;fill-opacity:1;fill-rule:evenodd;stroke:#231f20;stroke-width:3;stroke-linecap:round;stroke-linejoin:round;stroke-miterlimit:4;stroke-dasharray:none;stroke-opacity:1" transform="matrix(1.0046 0 0 1.0046 454.258 4.574)"/><path d="M-271.593 47.865c14.74 2.296 56.064 5.019 97.394 13.476 19.02 3.893 32.621 13.652 25.36 31.715-8.116-3.093-17.283-6.413-27.472-8.627-24.708-5.368-54.153-7.631-104.57-6.555 20.952 4.803 108.042 3.068 90.633 51.93-28.976-12.254-61.608-26.905-106.951-21.27l7.505 5.346c41.366 4.757 82.036 8.738 71.303 43.616-22.706-10.063-45.971-15.013-69.77-21.22l1.841 2.824c23.403 8.439 49.327 17.288 34.885 47.303-14.608-13.248-31.27-23.53-49.088-29.896l.945 4.94c18.698 17.055 29.32 35.107 18.203 51.566-11.642-12.398-23.284-26.959-34.927-36.694l-2.26.55 1.088 6.83c18.32 13.86 25.894 36.995 10.066 53.182-6.388-13.879-9.091-26.65-21.083-37.759l-3.324 3.863c1.814 6.238 26.518 37.684-3.643 53.638-2.404-13.856-5.531-27.814-12.1-42.264-.557 5.37-.753 11.005-6.015 13.846-2.698 2.23-8.376 1.976-14.64 1.234-12.35 2.73-21.194-7.41-25.415-15.08-7.243-26.143 12.792-41.398 21.264-48.462 32.703-28.112 9.24-45.356-.176-54.715-12.844-9.675-39.954-26.786-29-45.176 24.461-26.356 53.027-33.95 81.594-41.538 81.482-13.105 135.072-2.323 195.322 5.805 7.01 1.756 28.924 9.243 19.287 20.14-13.536 7.43-67.128-1.734-100.692-3.1l-67.434-2.076 1.87 2.628z" style="fill:#fff;fill-rule:evenodd;stroke:none;stroke-width:1px;stroke-linecap:butt;stroke-linejoin:miter;stroke-opacity:1" transform="matrix(1.0046 0 0 1.0046 454.258 4.574)"/><path d="M-371.898 204.796c7.812-.051 30.931 11.562 14.068-9.26 2.525-3.773 8.247-1.152 13.526-3.131 4.477-1.679 6.976-5.462 1.05-14.988 23.413 6.542 14.45-3.843 11.73-14.349 6.987 2.626 21.613 1.892 6.75-12.974 22.536 3.573 14.014-12.776 3.414-20.828 23.697-5.51 12.12-21.348 1.962-26.353 17.687-7.62 3.109-14.134-8.775-20.74 13.49-18.06-9.295-14.636-17.067-20.104 6.263-5.627 7.075-21.15-3.398-17.725-1.835.6-3.738 5.135-5.934 5.64-1.49.341-2.144 1.465-3.445-.514 9.953-11.444 3.354-12.66-10.366-6.726-2.955-1.778-3.969-.79-1.936-2.95 17.91-3.895 15.944-9.602 21.45-.268 14.497-.448 14.333 11.312 9.584 20.396 21.847 4.514 19.885 12.638 16.3 21.009 18.175 6.558 16.279 15.24 12.64 24.106 8.478 6.811 8.944 15.664-.757 27.105 3.207 8.242 7.969 18.608-4.111 23.136 1.477 9.285.51 9.715-9.008 12.053 4.355 12.525-4.297 13.72-9.505 17.915-1.696 8.909-10.715 14.053-18.588 11.537 10.96 17.4-10.63 16.474-15.76 10.207.13.25-3.928-2.221-3.824-2.194z" style="fill:#231f20;fill-opacity:1;fill-rule:evenodd;stroke:none;stroke-width:1px;stroke-linecap:butt;stroke-linejoin:miter;stroke-opacity:1" transform="matrix(1.0046 0 0 1.0046 455.573 4.594)"/><path d="M-356.069 211.535c6.542-.047 25.898 10.495 11.779-8.405 2.114-3.425 6.905-1.046 11.325-2.842 3.749-1.524 5.84-4.958.88-13.605 19.602 5.938 12.098-3.488 9.82-13.024 5.85 2.384 18.096 1.717 5.652-11.776 3.347.575 11.76 2.208 14.248-.054 2.183-1.983-1.459-7.596.06-10.982 1.399-3.12 12.52-2.561 14.332-7.455 1.295-3.496-6.885-13.31-9.365-14.036-5.455-1.596 9.196-3.2 10.067-8.55.668-4.107-10.82-8.074-14.064-13.41 19.841-5.003 10.54-14.081 2.036-18.624 14.808-6.917 2.603-12.83-7.347-18.825 11.295-16.393-7.783-13.286-14.29-18.249 5.244-5.108 5.924-19.197-2.844-16.088-1.537.545-3.13 4.66-4.97 5.118-1.247.31-1.794 1.33-2.883-.466 8.333-10.387 2.808-11.49-8.68-6.104-2.474-1.614-3.322-.718-1.62-2.679 14.995-3.534 13.349-8.715 17.96-.243 12.137-.406 12 10.268 8.023 18.514 18.292 4.097 16.649 11.471 13.648 19.069 15.217 5.952 13.629 13.833 10.583 21.88 7.098 6.183 7.095 8.921-1.027 19.307.964 2.684 19.912 7.602 2.368 19.111-.269.177 7.572 8.744 5.458 15.992-1.167 4-9.797 6.163-14.547 7.357-.773.195 1.84 7.748.662 10.237-1.795 3.793-8.65 3.416-9.804 3.885 1.237 8.428.428 8.818-7.541 10.94 3.646 11.37-3.598 12.454-7.958 16.262-1.42 8.086-8.972 12.755-15.563 10.471 9.176 15.794-8.9 14.954-13.195 9.266.108.226-3.29-2.017-3.203-1.992z" style="fill:#231f20;fill-opacity:1;fill-rule:evenodd;stroke:none;stroke-width:1px;stroke-linecap:butt;stroke-linejoin:miter;stroke-opacity:1" transform="matrix(1.0046 0 0 1.0046 455.573 4.594)"/><path style="fill:#231f20;fill-opacity:1;fill-rule:evenodd;stroke:none;stroke-width:1px;stroke-linecap:butt;stroke-linejoin:miter;stroke-opacity:1" d="M-262.463 17.438c-3.959 11.669-18.917 20.346-34.019 23.86 17.886-.535 24.011 7.732 23.52 10.38-1.476 7.942-12.052 6.272-19.74 9.228 24.894 8.792 14.904 16.737 3.543 17.482 18.142 3.289 18.955-3.567 11.34-15.356 12.587-8.1 11.74-16.546-.236-25.277 13.657-4.542 18.474-12.488 22.206-20.08l-6.614-.237zM-376.72 190.584c6.18-.668 24.467 6.48 11.128-8.312 1.998-3.13 6.524-1.557 10.699-3.516 3.542-1.662 5.518-4.796.831-11.708 18.52 3.192 11.43-4.142 9.278-12.07 5.526 1.474 17.095-.27 5.34-10.605 17.825.96 11.084-11.035 2.7-16.426 6.418-2.116-1.087-8.651-1.03-8.711 2.33-2.463 2.427-9.042-.495-12.296-2.474-2.754-7.995-2.397-7.951-2.607.919-4.47-1.47-8.144-3.731-9.007 13.99-7.331 2.46-11.21-6.941-15.378 10.67-15.09-7.352-10.604-13.5-14.22 4.954-4.867 5.597-16.97-2.687-13.472-1.451.613-2.957 4.283-4.694 4.85-1.18.385-1.696 1.309-2.725-.121 7.873-9.675 2.653-10.088-8.2-4.383-2.337-1.14-3.139-.294-1.53-2.132 14.165-4.46 12.61-8.728 16.967-1.932 11.466-1.513 11.336 7.62 7.58 15.047 17.28 1.744 15.728 8.203 12.893 14.982 14.376 3.625 12.876 10.51 9.999 17.678 1.137.78-.21 3.969 1.26 5.454 1.499 1.516 5.816 1.34 7.34 3.35 3.305 4.355 1.749 8.678.768 13.001-.828 3.65 3.687 3.127 4.79 11.302 2.537 6.134 6.304 13.79-3.252 18.273 1.169 7.082.405 7.493-7.124 10.072 3.445 9.363-3.4 10.985-7.519 14.657-1.342 7.045-8.475 11.76-14.702 10.441 8.67 12.612-8.409 13.63-12.466 9.183.102.183-3.108-1.407-3.026-1.394z" transform="matrix(1.0046 0 0 1.0046 455.573 4.594)"/><path style="fill:#231f20;fill-opacity:1;fill-rule:evenodd;stroke:none;stroke-width:1px;stroke-linecap:butt;stroke-linejoin:miter;stroke-opacity:1" d="M-119.096 45.008c-72.775-14.32-115.54-10.536-158.072-8.32l8.073-5.828c46.429.153 83.135-3.086 150 14.148zM-164.538 74.84c-55.207-13.129-83.084-12.322-116.98-9.808l8.072-5.829c46.43.153 63.482.19 108.908 15.637zM-194.17 114.848c-32.033-21.961-71.01-20.076-94.019-20.62l-3.902-5.309c37.269 3.066 67.629 1.989 97.92 25.93zM-224.093 144.974c-20.042-13.74-42.803-18.146-62.67-19.652-.952-.17 3.146-3.203 3.582-3.104 20.866 2.513 39.99 7.663 59.088 22.756zM-256.833 170.783c-20.042-13.74-20.47-18.146-40.337-19.652-.952-.17 3.146-3.203 3.581-3.103 21.76 4.001 26.293 10.342 36.756 22.755zM-282.232 196.644c-14.348-13.016-17.148-18.467-27.565-22.26.596-1.029 2.308-2.767 1.782-2.472 14.525 6.088 18.259 12.851 25.783 24.732zM-306.196 219.151c-10.725-16.132-12.106-22.102-21.277-28.33.83-.85 2.915-2.118 2.333-1.96 12.593 9.458 14.557 16.93 18.944 30.29zM-329.236 243.51c-3.7-14.44-3.83-21.286-10.096-27.605-.613-.912 3.984.55 1.854-2.529 7.1 10.13 7.296 17.627 8.242 30.135z" transform="matrix(1.0046 0 0 1.0046 454.258 4.574)"/></svg>