<svg width="777.007" height="1011.473" viewBox="0 0 205.583 267.619" xmlns="http://www.w3.org/2000/svg"><path d="M62.63 27.233c-22.272-.992-36.716 30.003-60.676 37.481 17.693 47.921 21.275 99.772 13.35 151.972 1.859 2.657 3.832 4.781 6.037 6.919 6.119-1.4 10.002-2.04 15.902-5.889 6.878 18.775 18.385 23.842 42.583 34.717 11.782 5.295 16.989 6.557 22.967 12.995 6.24-6.569 11.185-7.699 22.967-12.995 24.197-10.876 35.704-15.943 42.582-34.717 5.899 3.849 9.782 4.489 15.902 5.889 2.205-2.138 4.178-4.261 6.037-6.919-7.925-52.201-4.343-104.052 13.35-151.972-23.96-7.477-38.403-38.473-60.676-37.481-3.611-14.818-30.162-16.105-40.162-25.205-10 9.1-36.923 10.201-40.162 25.205z" fill="#fcdd09"/><path d="M125.758 244.67c23.079-8.507 33.336-15.022 40.214-33.796 6.367 2.366 16.159 4.676 23.908 5.813-7.353-48.428-4.308-97.02 10.226-141.986-24.553-9.415-34.961-38.727-61.432-41.419-3.239-15.004-25.882-13.872-35.882-22.972-10 9.1-32.643 7.968-35.882 22.972-26.472 2.692-36.88 32.004-61.432 41.419 14.534 44.967 17.479 93.559 10.126 141.986 7.749-1.137 17.641-3.446 24.008-5.813 6.878 18.775 17.135 25.289 40.214 33.796 12.12 4.467 18.877 6.19 22.967 10.034 4.09-3.845 10.847-5.567 22.967-10.034z" fill="#fff" stroke="#000" stroke-linecap="square" stroke-width="2"/><g fill="none" stroke="#000"><path d="m39.455 210.709-1.907 6.158M102.791 254.704v10.724M166.106 210.709l1.907 6.158M62.917 27.658l3.619 5.318M142.658 27.658l-3.619 5.318"/><g stroke-width=".5"><path d="m57.977 28.668 3.619 5.318M54.83 29.078l3.619 5.318M52.036 30.456l3.619 5.318M188.13 57.261l-4.867 5.8M190.801 59.029l-5.2 6.342M193.166 60.142l-5.293 7.086M195.214 61.264l-5.2 7.505M197.463 62.617l-4.782 7.412M200.243 62.866l-4.921 8.715M106.496 251.529v10.724M111.787 249.412v9.84M119.196 246.237v9.84M122.371 245.179v9.84"/></g></g><g fill="#078930" stroke="#000" stroke-linecap="round" stroke-linejoin="round" stroke-width="1.5"><path d="m67.862 170.14-.377-4.118c-3.534.641-7.123-.662-10.603-2.114-1.184-.494-1.32-2.6.172-3.247 3.257-1.412 3.253-5.66.306-5.778-2.475-.099-2.026-2.014-.097-3.689 4.149-3.603.019-14.258-4.881-6.184-3.232 5.324-5.676 2.511-3.089-.711 4.628-5.763 2.135-8.315-.296-8.171-1.368.081-2.174-.656-2.507-2.33-.811-4.075-6.526-4.322-5.735 1.53.908 6.723-3.379 5.11-3.853 1.188-.45-3.723-2.164-3.935-4.074-3.294-1.524.512-3.099.849-4.375-.935-2.122-2.968-11.403 3.003-3.783 7.708 2.625 1.621 4.586 3.491 1.869 5.607-1.77 1.379-2.361 4.174.117 5.604.753.434 1.065 1.303 1.426 2.053 1.5 3.121 3.717 3.07 6.492 2.077 2.081-.745 3.667-.022 1.6 2.051-2.075 2.08 3.488 10.301 8.91 6.043.718-.564 1.384-1.161 2.325-.344.709.615.472 1.937 2.953 1.361.947-.22 1.658-.068 2.776.855 1.788 1.476 5.238 3.492 7.557 3.94-2.013 1.25-4.777 3.067-6.486 4.688-1.019.966-2.337.486-3.234-.86-2.493-3.739-8.872-.843-5.959 3.599 1.325 2.02.656 2.971-.686 3.618-1.476.712-2.793.728-4.222-3.017-1.497-3.923-3.921-2.865-7.458-2.44-3.321.399-7.009 4.597-1.785 7.291 1.19.574 1.678 2.488 3.026 3.73 1.671 1.538 1.996 2.253 1.069 3.349-1.064 1.259-1.195-1.708-4.472-2.586-2.65-.71-4.365.295-5.53 2.457-1.15 2.134-1.636 4.987 1.123 6.326 3.086 1.498 2.793 3.406.215 4.082-2.438.639-1.802 6.128-.048 8.187 1.635 1.92 2.614 1.727 3.352.405 1.395-2.497 4.717-1.761 5.114-3.165 1.504-5.312 4.72-2.841 5.789-1.106 2.466 4.005 5.38 2.837 6.499.631.903-1.783 5.722-2.44 1.912-6.25-2.303-2.303.45-6.364 3.43-1.804 4.591 7.024 6.789-2.653 4.629-3.103-1.863-.388-2.109-1.348-1.206-2.196 1.415-1.329 2.181-2.799.166-3.823-3.814-1.937-1.919-4.615-.206-5.021 3.451-.818 3.399-2.279 1.106-4.25-1.165-1.002-.303-2.308.732-2.814zM137.543 169.489c5.037-.034 8.431 1.085 11.997 3.727 1.438 1.065.952 2.059-.263 2.76-2.482 1.433-1.701 6.089 1.43 6.757 3.672.784 1.904 1.136-.545 1.136-7.345 0-2.782 13.746 2.882 8.082 3.724-3.724 4.305.624 2.072 3.002-2.368 2.521 5.147 15.411 7.301 7.373.924-3.448 4.005-1.423 4.185.327.406 3.954 7.779 5.003 11.212 2.999 2.978-1.738 3.779-8.389-1.44-10.184-1.88-.647-.127-1.123.251-1.021 5.501 1.474 6.793-7.367-1.101-9.482-3.563-.955-1.651-2.46.503-3.155 7.201-2.322-4.316-11.727-6.75-5.828-.886 2.148-6.462 1.428-3.778-1.657 1.259-1.448-.451-2.443-2.192-3.076-1.84-.67-3.765-.892-4.131.85-.427 2.033-1.596 1.868-2.526.88-3.001-3.19-12.189-6.574-12.594-6.067 2.77-.791 5.173-2.78 6.896-4.227 1.239-1.04 2.355-1.071 3.424-.244.929.719 2.943.136 3.518-.635.726-.973 1.724-.574 2.323.164 4.012 4.95 14.334-2.414 7.254-5.058-4.953-1.849-1.153-7.101 3.287-2.661 3.435 3.435 6.423-.123 6.755-2.808.074-.599.749-1.998 1.487-2.781 2.38-2.525.261-6.694-2.652-6.211-6.094 1.009-5.576-1.35-1.441-3.142.777-.337 2.666-.897 2.175-2.54-.49-1.643 1.241-1.941 1.711-2.095 1.625-.534 2.514-4.099 1.177-6.479-1.893-3.371-7.954-3.616-10.358.548-3.272 5.668-2.736 1.626-2.665.157.289-6.019-10.173-5.062-7.356 3.183 1.464 4.286-.526 6.748-3.556 1.5-2.68-4.642-4.649 1.093-5.754 2.942-1.291 2.16-1.885 6.079.158 7.548 3.468 2.494 3.122 4.82-2.775 3.494-3.394-.763-3.088 10.248.386 10.43 4.336.227-4.069 6.501-10.23 6.501zM107.403 127.967c-1.895-8.189-1.665-15.918 19.483-13.491l.357-3.04c-5.652-.596-11.161-.191-16.639.429 11.777-12.719 18.437-23.99 33.969-13.505-.35 1.829 2.562 4.223 4.108 2.677.858-.858 2.401.069 1.536 2.15-1.275 3.068 2.245 6.206 5.174 5.814 1.661-.223 4.658-2.57 3.142 3.09-1.42 5.3 7.084 10.078 9.272 4.643.827-2.053 2.909-1.625 3.809 1.166 1.095 3.395 6.189 2.897 11.026-1.049 1.649-3.156.531-5.748-1.867-7.61-1.978-1.536-5.618.488-5.385-1.52.27-2.333 2.497.506 4.963-1.959 2.218-2.218 1.104-4.846-2.626-6.632-2.423-1.16-5.203-1.986-6.949-.275-1.622 1.59-2.868.616-1.254-1.075 2.171-2.274-.501-3.106-2.271-3.921-2.031-.936-3.728-.748-5.06 1.484-.522.875-1.196 1.643-2.42-.201-1.607-2.423-5.625-2.206-7.057.455-.598 1.111-1.241 1.235-1.57.195-.811-2.567-3.483-3.082-5.439.498-3.908-3.328-9.75-5.288-16.79-4.258 3.383-3.046 9.378-7.159 12.714-5.784 4.452 1.836 8.919 2.129 8.288-1.605-.296-1.749 2.129-3.579 2.513.716.35 3.913 12.314 4.03 10.821.061-.642-1.707 3.929-5.383 3.939 1.589.006 4.505 10.994 7.311 9.146.667-.626-2.25 2.135-4.041 1.892-.174-.221 3.505 11.264 2.773 9.195-4.27-.462-1.574-1.108-2.833-.484-4.396.862-2.16-2.52-4.857-4.391-4.66-1.414.149-2.216-1.651-1.466-2.586 2.175-2.71-5.089-6.867-7.347-3.561-1.821 2.667-4.163 1.054-1.134-1.249 4.894-3.722.148-8.886-5.998-6.781-4.33 1.482-8.915 3.217-6.267 7.015 3.059 4.388-7.107 6.753-4.134 1.211 2.469-4.604-1.504-5.552-5.261-2.939-2.635 1.832-5.253 4.9-3.151 6.837 1.727 1.592-.756 3.578-1.439 1.448-1.876-5.853-10.885 2.894-7.248 5.263 3.964 2.582 3.02 2.302-.298 3.388-2.739.896-7.053 2.953-11.93 6.285-.533-9.597-6.213-13.909-10.734-10.836 7.985 6.245 5.081 14.63-.062 19.891-4.015 4.107-8.225 8.823-11.037 12.801 1.962-8.658 2.092-15.757 2.217-21.7.213-10.206 7.568-16.263 18.964-24.691l-1.211-2.532c-5.398 2.367-11.919 8.384-18.708 15.272-.15-5.028-.993-10.299 2.171-13.148.782-.704 4.315 2.348 5.658-2.245.351-1.199.931-2.967 1.845-3.263 1.704-.552 1.575-3.306-1.035-3.22-5.69.186-1.107-4.226 1.392-3.525 1.971.553 4.492-.642 4.951-6.363.197-2.451 2.666-7.042-4.667-4.649-3.199 1.044-4.508-.214-4.522-1.512-.013-1.192 1.017-2.417 3.786-1.919 3.262.586 4.598-3.709 5.994-6.148 3.899-6.813-.531-9.654-7.182-4.147-5.304 4.392-7.714.669-4.429-1.93 3.159-2.499.997-4.502-2.607-6.72-1.648-1.015-3.585-2.525-5.52-4.299-1.569 2.072-3.111 4.042-4.672 4.993-3.138 1.913-3.646 6.727-1.078 6.71 1.806-.012.573 1.746-1.513 1.962-1.979.205-3.893.327-5.746.261-6.242-.222-1.87 4.397-3.053 7.37-.732 1.84.175 4.788 4.726 3.569 5.165-1.384 7.043 3.943.673 3.943-3.158 0-3.447 2.165-1.769 2.888 1.078.465 1.358 2.618 1.131 3.779-.509 2.595 1.88 3.163 3.081 2.674 4.892-1.995 6.92 3.064 2.18 4.093-2.126.461-2.553 2.396-1.068 3.416 1.314.903.865 3.608 3.842 4.446 3.843 1.082 2.616 7.277 2.441 13.56-6.27-7.839-12.796-14.655-20.053-18.546l-1.714 2.736c8.092 5.753 17.489 12.662 19.671 22.79 1.291 5.993 1.125 13.997-.055 25.296-1.856-2.868-3.144-4.497-4.931-6.594-7.173-8.42-13.512-21.931-1.861-26.435-7.297-.927-10.552 4.816-8.704 14.605-3.329-2.428-8.921-6.022-14.64-9.38-2.744-1.611-3.432-3.928-1.635-5.518 2.76-2.443-.961-4.525-2.743-7.186-1.24-1.852-4.623-.45-4.623 1.591 0 4.509-4.901 1.896-3.234-.991 2.499-4.329-3.899-4.15-4.88-5.549-2.241-3.197-6.722 1.368-4.494 4.561 2.66 3.812-2.029 3.397-1.181.243.407-1.514-2.922-5.834-5.788-4.741-1.649.629-2.691-.128-4.064-.873-3.639-1.976-7.317.507-4.438 4.673 2.977 4.308.072 5.102-1.469 1.892-1.308-2.725-13.501 2.346-8.376 5.023 1.641.857 1.449 1.814-.373 1.814-5.385 0-8.297 8.126-5.893 12.015 1.292 2.091 4.837 4.815 7.816.83 2.606-3.486 6.573-2.353 5.147.677-3.407 7.24 10.669 2.736 8.723-1.559-1.208-2.665.601-3.242 2.581-4.03 3.543-1.41 4.751.849 3.131 3.132-3.862 5.445 9.069 3.696 10.63-.869 1.907-5.578 3.676-2.672 2.926-.68-1.115 2.962 6.221 2.398 6.804.205 1.456-5.482 14.637 6.126 14.637 6.126-4.501-.354-10.685.329-14.963 1.672-2.629.825-4.473.833-5.178-.09-1.423-1.862-5.48-.774-4.939 1.334.35 1.364-1.79 4.043-2.696.851-.814-2.865-7.958-1.909-7.312.992.528 2.369-1.536 3.024-3.516 1.194-1.592-1.472-14.486-1.966-9.835 4.364 1.153 1.569 2.41 3.623 3.676 3.547 2.904-.175 3.347 3.052-.754.63-4.244-2.506-6.667.04-8.888 2.393-2.293 2.43-4.23 4.905-.112 6.08 2.492.71 1.41 1.385-.457 2.663-1.614 1.105-.399 4.673 1.243 5.735 3.234 2.092 12.155 1.689 11.582-2.675-.423-3.221 2.938-4.165 3.461-1.156.848 4.878 12.563-1.545 7.325-6.066-3.102-2.677 1.425-5.925 2.192-1.888 1.304 6.864 8.778-4.202 6.327-5.581-1.785-1.004-.307-3.478 1.323-1.688.905.994 5.654-.929 3.873-4.218-1.463-2.701.889-3.525 9.037-4.941 14.079-2.448 18.584 7.153 24.362 16.074-3.644-.792-7.235-.763-11.283-.491l.509 2.993c9.595-.091 14.75-1.769 15.313 13.705z"/></g><g stroke="#000" stroke-linecap="round"><path d="M110.956 31.516c-3.51.776-5.952 3.75-5.024 13.649" fill="none"/><path d="M93.712 220.003c2.832.169 2.789-4.008 2.707-6.613" fill="none" stroke-width="2.9"/><path d="M107.411 242.058c-4.261-1.399-2.73-7.484 1.942-6.104 1.908.575 3.324 1.243 5.504 2.712 1.358.179 3.062-.151 4.073.828.868.842 2.76.847 4.141 1.405 2.383-1.72 6.939-.072 8.249-1.428-3.072-.742-13.966-1.852-11.763-4.44.707-.831-.468-1.092-1.464-.86-2.788.647-5.09.439-6.835-.007-2.787-.713-4.222-2.23-4.468-3.362.351-.97.539-2.048.518-3.265-.273-1.723 1.067-2.521 2.388-2.354 3.204.406 8-1.106 9.254 1.356 1.354 2.658 5.237 3.266 8.01 3.945 5.841 1.43 6.836 6.653 10.374 6.083l-1.486-4.718c1.007-1.749 3.818-2.704 5.744-2.582 2.862.181 6.593-.56 9.213-3.177-3.91.283-10.347 2.755-11.729.848-.389-.537-1.801-.845-3.149.25-1.266 1.028-6.293.942-7.157.171-1.216-1.085-2.87-.26-3.953-1.343-1.557-1.557-.012-4.521 3.954-4.62 4.357-.109 7.295.449 8.215-.47 1.057-1.057 3.226-.656 4.514.064 4.337 2.424 13.447-.19 17.541-4.057l-25.528.775c-3.526-.962-2.643-3.924.595-5.859 3.548-2.121 7.169-5.36 6.287-9.726-1.652 1.443-4.652 8.174-10.437 9.76-1.509.414-2.774.774-3.345 2.486-.396 1.673-3.104 4.287-5.584 3.657-1.802-.457-3.124.994-4.578 1.956-4.188 2.771-9.246 1.62-8.713-6.552l-10.666.654c-.065 2.06-.746 2.847-.803 3.984-.205 4.125-2.314.092-5.119 1.257-1.431.594-3.286-.552-5.262-1.251-1.411-.694-2.867-.978-4.402-.557-5.078.6-7.301-1.036-8.094-3.916-1.299-7.527-7.847-1.375-16.237-5.97 4.578 5.223 11.664 3.241 12.617 8.411-1.895 1.117-4.565 1.623-6.545 2.699-3.997 2.172-9.088 2.688-15.438 1.636 7.347 3.1 13.245 2.002 17.39.287 3.02-1.25 7.973-1.31 8.86.046 1.406 2.147 2.59.544 4.317.519 1.56-.023 3.224-.012 4.667 1.108 1.158.899 2.734 1.062 4.179 1.412-.9.866-1.12.806-1.225 2.12-.207 2.571-6.134 4.196-12.744 3.586-1.26-.116-1.897.346-3.009 1.072-4.226 2.758-7.859 2.813-11.236 1.041 1.651 1.915 5.886 3.244 9.066 1.856 5.426-2.368 7.158 1.171 2.201 4.524 5.071.343 3.554-5.332 9.608-5.182 3.436.085 7.138-1.771 10.475-4.545 2.926-2.432 6.129-1.962 8.767-3.668-.592 2.03.72 3.283.334 5.118-1.3 6.167-6.073 1.941-8.631 2.658.982 5.575-1.619 3.514-2.653 4.786-.529.651-1.516.732-2.662 1.037-.996.265-1.845 1.46-3.71 1.392-1.695-.062-3.568.049-4.063 1.053.875.012 1.763-.352 3.047.105 1.279.455 2.977.68 4.123-.325.886-.776 2.369-.753 3.713-.85 2.225-.16 3.108-1.537 4.483-1.632.961-.066 2.477.018 3.703-.763.841-.536 2.624-.258 3.237-.754.272 2.713.215 5.144-2.321 5.685-2.43.518-2.859 1.869-2.414 2.918 2.301-1.559 4.484-2.907 5.205.974.461 2.48 2.943 1.493 4.932 1.296-.81-2.188-.387-3.17 1.697-2.991 2.178.186 1.792-1.704.284-2.199z" fill="#078930" stroke-linejoin="round" stroke-width="1.5"/></g><g fill="none" stroke="#000"><g stroke-linecap="round" stroke-width="1.5"><path d="M30.705 138.281c9.239 8.228 12.734 17.935 25.922 25.493M30.356 119.319c11.783-14.553 20.955-16.485 30.762-21.492M149.367 173.082c6.255 3.108 12.619 6.239 16.072 16.424 1.536 4.531 6.905 7.431 8.864 12.391M150.883 162.739c9.217-7.24 11.714-17.414 17.136-26.359M19.848 85.713c19.312-10.701 34.311-7.818 47.825-.262M103.441 19.675c.195 6.833-1.547 11.71-1.086 18.326.795 11.391 2.166 24.191 3.784 35.052"/></g><path d="M102.791 2.629v8.345"/><g stroke-linecap="round"><path d="M175.605 79.758c-6.376-6.03-19.498-4.245-25.8-1.43-2.994 1.337-6.225 2.54-9.278 3.355" stroke-width="1.5"/><path d="M46.874 180.339c-3.483 7.275-10.435 13.287-15.264 18.816M56.88 175.321c-2.753 2.055-7.009 6.171-7.9 8.57M151.641 99.206c7.793 2.28 16.065 7.705 22.889 15.323"/><path d="M126.237 85.367c.803 3.984-2.71 8.336-5.699 12.168 3.122-3.651 5.282-8.18 8.261-10.037" stroke-linejoin="round"/><path d="M105.076 114.521c-1.658 3.344-2.707 7.358-1.898 13.415"/></g></g><g stroke="#000"><g stroke-linecap="round"><path d="M102.791 126.728c-13.397 0-27.322 1.348-40.983 3.361 4.171 15.268 5.278 30.298 4.983 45.921-.507 26.853 13.113 38.319 36 38.319s36.508-11.465 36-38.319c-.295-15.623.811-30.653 4.983-45.921-13.661-2.013-27.586-3.361-40.983-3.361z" fill="#fcdd09" stroke-linejoin="round" stroke-width="2"/><path d="M106.235 80.335c-3.228 3.406-1.83 20.808-.765 26.284M104.772 221.197c.649-2.285 1.313-4.047 2.673-6.418" fill="none"/><path d="M135.301 121.766c-6.712 2.436-10.77-1.226-8.405-8.931 2.028-7.568 4.826-8.601 10.657-8.428 2.312.069 4.594.817 4.727 2.687 5.237 3.992 8.532 7.778 7.999 11.358-.592 3.977-8.771 6.337-14.978 3.314zM142.651 63.334c7.342-4.557 12.195-11.603 9.118-16.254-2.737-4.137-10.022-3.066-18.519 1.867-8.361-1.534-10.301 7.917-7.554 14.427 2.762 6.547 10.253 10.129 16.955-.041z" fill="#fcdd09" stroke-linejoin="round" stroke-width="1.5"/></g><path d="m141.449 24.587-3.619 5.318" fill="none" stroke-width=".5"/><path d="M53.421 45.934c5.266-5.679 12.624-2.908 18.144.867 10.296-4.748 11.904 7.679 9.123 13.84-2.846 6.305-12.876 10.675-15.266.123-6.91-4.044-12.177-9.527-12-14.83zM72.919 121.96c5.982 6.841 10.978-1.287 10.053-9.141-1.32-11.207-9.417-11.427-12.29-6.451-3.729 1.039-11.741 2.181-11.186 8.96.404 4.927 8.272 7.537 13.423 6.631z" fill="#fcdd09" stroke-linecap="round" stroke-linejoin="round" stroke-width="1.5"/></g><g fill="none" stroke="#000"><path d="M132.977 48.963c-2.239 10.666 4.096 14.969 9.265 14.393" stroke-linecap="round" stroke-width="1.5"/><path d="m138.983 21.47-3.619 5.318" stroke-width=".5"/><g stroke-linecap="round"><g stroke-width="1.5"><path d="M71.8 47.056c2.484 2.564-.169 11.756-6.085 13.833M72.846 121.991c1.523-5.971 2.064-11.705-2.151-15.59M142.18 107.28c-3.928 1.476-7.169 8.604-6.776 14.482"/></g><g stroke-width=".5"><path d="M132.536 54.05c-1.779 3.86-3.965 7.161-6.176 10.326M132.207 52.372c-3.61 1.196-5.044 4.826-6.834 8.55M133.556 58.491c-1.779 3.86-2.912 5.681-5.649 8.221M138.096 62.965c-.792 2.873-1.925 4.365-4.926 6.543M135.694 61.254c-1.779 3.86-2.583 5.253-5.584 7.431"/><path d="M125.727 52.076c2.194 2.988 4.912 5.636 8.595 7.661M128.128 49.905c1.01 1.935 2.544 2.742 4.318 3.615M124.97 56.715c2.243 3.759 11.549 11.805 14.746 9.898M135.486 118.776c-5.036.574-7.509-2.301-7.985-7.866M136.012 116.21c-4.049-1.531-5.338-3.288-6.867-8.721M137.459 112.591c-2.376-2.525-3.788-4.588-5.288-7.537"/><path d="M138.393 110.093c-3.87.792-7.986 4.719-11.732 8.731M136.346 115.211c-3.451 1.676-5.055 4.115-7.08 6.731M139.537 104.848c-4.625 1.465-10.852 6.374-12.541 9.165"/><path d="M139.297 108.888c.609-1.066-1.574-3.592-3.145-4.359M82.994 115.665c-2.907 3.229-6.3 5.195-9.959 6.411M82.468 111.257c-2.837 2.422-5.674 4.493-8.511 6.214M81.086 107.507c-2.191 1.974-4.244 3.809-6.932 6.28M79.31 105.072c-2.31 1.029-3.962 3-5.748 5.424"/><path d="M81.481 121.52c-2.108-4.337-5.357-13.111-9.367-13.787M74.178 114.612c1.935 1.963 3.194 6.107 3.923 9.964M82.731 113.691c-2.991-3.67-6.305-9.343-9.564-9.576M65.822 62.702c5.716.956 10.722-.783 15.569-3.129M82.007 52.504c-2.396 3.603-7.599 4.739-12.854 6.017M77.731 46.385c-.05 1.852-2.115 3.704-4.959 5.556"/><path d="M71.481 55.53a86.872 86.872 0 0 0 3.529 10.819M79.31 62.636c-1.473-5.224-3.774-9.502-6.472-13.327M72.928 46.319c4.329 1.628 6.942 5.402 9.187 9.635M69.309 58.359c-.708 3.198.563 6.441 2.213 8.714"/></g></g></g><path d="m102.792 132.157-3.424 25.707-20.598-15.757 15.757 20.598-25.706 3.423h67.942l-25.706-3.423 15.757-20.598-20.598 15.757z" stroke="#000" stroke-linecap="round" stroke-linejoin="round" stroke-miterlimit="8"/><path d="m102.792 144.271-1.259 18.355-14.197-12.111 12.416 13.847-18.818 1.228h43.714l-18.818-1.228 12.416-13.847-14.197 12.111z" fill="#fff"/><g stroke="#000"><path d="M91.52 189.153h23.217v2.513s-3.894-.7-5.862-.7H95.592c-1.377 0-4.072.7-4.072.7z" stroke-linecap="round" stroke-linejoin="round" stroke-miterlimit="8" stroke-width=".5"/><path d="M93.351 174.739c-2.446 8.168-4.894 16.335-8.071 24.016-1.086 2.625-2.516 4.456-4.42 5.055h10.832c-.816-3.276-.259-7.173.536-10.473l4.459-18.504h11.592l1.62 1.58 6.337 23.534c.553 2.053-.713 3.195-2.191 4.343h9.225c1.568-.063.883-1.666.397-2.844l-10.117-24.5c-.833-2.018-.054-5.494 12.992-1.08l-4.992-5.129H82.598c-1.149 2.128-3.381 4.477-5.898 6.729 2.405-.409 4.601-2.759 6.573-3.087 3.847-.638 6.592-1.162 10.078.361z" stroke-linecap="round" stroke-linejoin="round" stroke-width="2"/><path d="M62.63 27.233c-22.272-.992-36.716 30.003-60.676 37.481 17.693 47.921 21.275 99.772 13.35 151.972 1.859 2.657 3.832 4.781 6.037 6.919 6.119-1.4 10.002-2.04 15.902-5.889 6.878 18.775 18.385 23.842 42.583 34.717 11.782 5.295 16.989 6.557 22.967 12.995 6.24-6.569 11.185-7.699 22.967-12.995 24.197-10.876 35.704-15.943 42.582-34.717 5.899 3.849 9.782 4.489 15.902 5.889 2.205-2.138 4.178-4.261 6.037-6.919-7.925-52.201-4.343-104.052 13.35-151.972-23.96-7.477-38.403-38.473-60.676-37.481-3.611-14.818-30.162-16.105-40.162-25.205-10 9.1-36.923 10.201-40.162 25.205z" fill="none" stroke-linecap="square" stroke-miterlimit="8" stroke-width="3"/></g></svg>