<svg version="1.1" viewBox="0 0 1080 1168" id="svg8" xmlns:xlink="http://www.w3.org/1999/xlink" xmlns="http://www.w3.org/2000/svg"><defs id="defs12"><radialGradient cx="-941.504" cy="516.538" r="209.292" fx="-941.504" fy="516.538" id="radialGradient3977" xlink:href="#linearGradient5353" gradientUnits="userSpaceOnUse" gradientTransform="matrix(.37642 -7.70388 8.89618 .40232 -3870.8 -7107.54)"/><radialGradient cx="-941.504" cy="516.538" r="209.292" fx="-941.504" fy="516.538" id="radialGradient5359" xlink:href="#linearGradient5353" gradientUnits="userSpaceOnUse" gradientTransform="matrix(.41963 -8.89134 9.91717 .46433 -4258.93 -7979.38)"/><radialGradient cx="-941.504" cy="516.538" r="209.292" fx="-941.504" fy="516.538" id="radialGradient2893" xlink:href="#linearGradient5353" gradientUnits="userSpaceOnUse" gradientTransform="matrix(.46234 -9.46235 10.9268 .49415 -4923.85 -8781.59)"/><radialGradient cx="-941.504" cy="516.538" r="209.292" fx="-941.504" fy="516.538" id="radialGradient3442" xlink:href="#linearGradient5353" gradientUnits="userSpaceOnUse" gradientTransform="matrix(.37439 -7.59531 8.84811 .39665 -3880.78 -7030.1)"/><radialGradient cx="-941.504" cy="516.538" r="209.292" fx="-941.504" fy="516.538" id="radialGradient2822" xlink:href="#linearGradient5353" gradientUnits="userSpaceOnUse" gradientTransform="matrix(.37112 -7.59544 8.77096 .39666 -4730.55 -7040.28)"/><radialGradient cx="-941.504" cy="516.538" r="209.292" fx="-941.504" fy="516.538" id="radialGradient2820" xlink:href="#linearGradient5353" gradientUnits="userSpaceOnUse" gradientTransform="matrix(.41963 -8.89134 9.91717 .46433 -4258.93 -7979.38)"/><radialGradient cx="-941.504" cy="516.538" r="209.292" fx="-941.504" fy="516.538" id="radialGradient3022" xlink:href="#linearGradient5353" gradientUnits="userSpaceOnUse" gradientTransform="matrix(.37439 -7.59531 8.84811 .39665 -3880.78 -7030.1)"/><radialGradient cx="263.015" cy="254.599" r="203.22" fx="263.015" fy="254.599" id="radialGradient3778" xlink:href="#linearGradient3770" gradientUnits="userSpaceOnUse" gradientTransform="matrix(1.552 1.80415 -1.39107 1.19665 379.733 -487.208)"/><linearGradient id="linearGradient2814"><stop id="stop2816" style="stop-color:#fff;stop-opacity:1" offset="0"/><stop id="stop2818" style="stop-color:#f9d100;stop-opacity:0" offset="1"/></linearGradient><linearGradient id="linearGradient3448"><stop id="stop3450" style="stop-color:#f9d100;stop-opacity:0" offset="0"/><stop id="stop3452" style="stop-color:#f9d100;stop-opacity:0" offset="1"/></linearGradient><linearGradient id="linearGradient5353"><stop id="stop5355" style="stop-color:#f9d100;stop-opacity:1" offset="0"/><stop id="stop5357" style="stop-color:#f9d100;stop-opacity:0" offset="1"/></linearGradient><linearGradient id="linearGradient3770"><stop id="stop3772" style="stop-color:#fff;stop-opacity:1" offset="0"/><stop id="stop3780" style="stop-color:#fff;stop-opacity:1" offset=".502"/><stop id="stop3774" style="stop-color:#fff;stop-opacity:0" offset="1"/></linearGradient><linearGradient id="linearGradient3980"><stop id="stop3982" style="stop-color:#f9d100;stop-opacity:1" offset="0"/><stop id="stop3988" style="stop-color:#f9d100;stop-opacity:1" offset=".5"/><stop id="stop3984" style="stop-color:#f9d100;stop-opacity:0" offset="1"/></linearGradient><linearGradient x1="-645.17" y1="187.54" x2="-343.188" y2="141.644" id="linearGradient4044" xlink:href="#linearGradient3980" gradientUnits="userSpaceOnUse" gradientTransform="translate(-220.872 -28.685)"/><clipPath id="clipPath2438"><path d="M-.138 841.445h595.276V-.445H-.138v841.89z" id="path2440"/></clipPath><clipPath id="clipPath2444"><path d="M.03 841.95h595.26V.03H.03v841.92z" id="path2446"/></clipPath><clipPath id="clipPath3474"><path d="M-.138 841.445h595.276V-.445H-.138v841.89z" id="path3476"/></clipPath><clipPath id="clipPath3480"><path d="M.03 841.95h595.26V.03H.03v841.92z" id="path3482"/></clipPath><clipPath id="clippath"><path d="M360 4140c0 1789.403 1450.597 3240 3240 3240s3240-1450.597 3240-3240V270H360v3870z" id="path11"/></clipPath><path id="B" d="M134.41 285.663c12.742 8.653 24.725 31.478 24.373 44.048"/><path id="C" d="M325.107 288.33c-12.741 8.652-24.725 31.477-24.373 44.047"/><style type="text/css" id="style243">.fil5{fill:#202326}</style></defs><path d="M974.5 35.47c26.21 32.62 62.79 73.78 104 119 0 0-57.1-4.47-61 74l-25 503c-3.97 81.4-19.86 133.3-54.19 199.8-30.81 59.7-76 108.7-131.8 151.1-61.52 46.8-162.4 83.23-250 84.11-96.99.97-194.6-24.74-277-87.03-74-56-128.1-127.2-160.5-212.5-17-47-23.42-87-27-145l-30.98-502c-4.13-66.98-59.52-63.51-59.52-63.51s62.99-65.68 98.5-122.5c-3 24.52 9 30.17 28.5 24.47C260.01 19.94 393.01.94 537.01.94c129 0 268 17.21 401 55 18.55 5.27 36.65 13 36.49-20.53z" id="path2"/><path d="M94 58c11.51 17.09 36 7 63 0C283.9 26 402 9.46 537 9.46c144 0 280 21.54 390.9 51.58C955.16 68.425 970 72 980 58l50 70C928 75 747 25 537 25c-167-.02-355 33-493 103z" fill="#fff" id="path4"/><path d="m88 251 12.84 462.8c0 57.09 11.32 114.2 33.26 167 21.84 52.69 54.09 101.1 94.56 141.5 40.37 40.07 88.75 73.12 141.4 94.16 52.79 22.04 109.9 33.05 167 33.05s114.2-11.02 167-33.05c52.69-21.03 101.1-54.09 141.4-94.16 40.47-40.47 72.72-88.85 94.56-141.5 21.94-52.79 33.26-109.9 33.26-167l12.47-456c2.1-76.85 1.25-93.85 44.25-129.8-164.2-71.71-318.4-96.32-493-96.32S204.2 57.05 44 128c49 34.95 42.96 79.76 44 123z" fill="#fff" id="path6" style="fill:#da121a"/><g style="fill-rule:evenodd;image-rendering:optimizeQuality;shape-rendering:geometricPrecision;text-rendering:geometricPrecision" id="g533" transform="matrix(.14664 0 0 .14664 -8.765 -8.302)"><g id="Ebene_x0020_1"><g id="g421"><g id="g417"><path d="M3734 6674c1567 0 2845-1279 2845-2846S5301 983 3734 983 889 2261 889 3828s1278 2846 2845 2846z" id="path413" style="fill:#fff"/><path d="M3734 6660v27zm0 0c780 0 1488-318 2001-831l19 19c-518 518-1232 839-2020 839zm2001-831c512-513 830-1221 830-2001h28c0 788-321 1503-839 2020zm830-2001h28zm0 0h28zm0 0c0-779-318-1487-830-2000l19-20c518 518 839 1233 839 2020zm-830-2000c-513-513-1221-831-2001-831v-28c788 0 1502 321 2020 839zM3734 997v-28zm0 0v-28zm0 0c-780 0-1487 318-2000 831l-20-20c518-518 1233-839 2020-839zm-2000 831c-513 513-831 1221-831 2000h-28c0-787 321-1502 839-2020zM903 3828h-28zm0 0h-28zm0 0c0 780 318 1488 831 2001l-20 19c-518-517-839-1232-839-2020zm831 2001c513 513 1220 831 2000 831v27c-787 0-1502-321-2020-839zm2000 831v27z" id="path415" style="stroke:#000;stroke-opacity:1;fill:#000;stroke-width:14"/></g><path d="m5000 5901-837-1712-391 191 837 1712c-266 102-554 159-855 159-300 0-586-56-851-157l834-1714-391-190-834 1714c-491-299-868-770-1046-1327l1861-412-94-424-1861 411c-13-100-21-201-21-304 0-496 151-957 410-1341l1479 1203 274-337-1478-1203c389-397 916-661 1500-714v1906h435V1456c611 56 1158 340 1552 768L4008 3381l264 345 1515-1156c234 370 370 808 370 1278 0 114-10 226-25 336l-1856-436-99 423 1855 436c-181 544-551 1001-1032 1294z" id="path419" style="fill:#da121a;stroke:#000;stroke-opacity:1;stroke-width:35"/></g><g id="g427"><path class="fil5" d="M2638 2576h2224v1180c0 1758-2225 1750-2224 0z" id="path423" style="fill:#000"/><path class="fil5" d="M2638 2562h2224v27H2638zm2224 0c7 0 14 7 14 14h-14zm14 14v1180h-28V2576zm0 1180c0 638-291 1046-664 1224l-13-24c364-174 649-574 649-1200zm-664 1224c-145 70-303 105-461 105v-27c153 0 307-34 448-102zm-461 105c-158 0-316-35-462-105l13-24c142 68 295 102 449 102zm-462-105c-373-179-665-588-665-1224h28c0 625 285 1025 650 1200zm-665-1224V2576h28v1180zm0-1180c0-7 7-14 14-14v14z" id="path425" style="fill:#000"/></g><path d="M2664 2612h2163v1147c0 1710-2164 1702-2163 0z" id="path429" style="stroke:#fff;stroke-opacity:1;fill:none;stroke-width:14;stroke-linecap:round;stroke-linejoin:round"/><path d="m3410 3963-668-135 668-133-377-567 567 376 133-667 135 667 567-376-379 567 670 133-670 135 379 567-567-377-135 667-135-667-565 377z" id="path431" style="fill:#fcdd09"/></g></g></svg>