<svg xmlns="http://www.w3.org/2000/svg" width="283" height="307" style="shape-rendering:geometricPrecision;text-rendering:geometricPrecision;image-rendering:optimizeQuality;fill-rule:evenodd;clip-rule:evenodd"><path style="opacity:1" fill="#697167" d="M116.5.5v-1h41v1c-2.888-.51-5.221.156-7 2h-25c-2.488-1.888-5.488-2.555-9-2z"/><path style="opacity:1" fill="#323433" d="M158.5-.5h6c2.503.87 5.17 1.537 8 2-1.371 1.287-3.205 1.954-5.5 2a137.176 137.176 0 0 0-16.5-1c1.779-1.844 4.112-2.51 7-2 .667 0 1-.333 1-1z"/><path style="opacity:1" fill="#dbdede" d="M176.5 1.5c4.622-.344 8.955.323 13 2-4.528-.27-8.861-.937-13-2z"/><path style="opacity:1" fill="#191a1c" d="M262.5 26.5h4c3.922 4.261 7.922 8.594 12 13-7.403.61-12.569 4.277-15.5 11a8763.688 8763.688 0 0 1-4.5 141l1 6c-1.598 9.328-3.932 18.328-7 27a27.603 27.603 0 0 1-5 1.5c1.619.236 2.619 1.069 3 2.5-2.796 6.267-5.63 12.6-8.5 19a783.692 783.692 0 0 1-11.5 15c-2.087 1.085-3.42 2.751-4 5a45.26 45.26 0 0 1-10 8c-1.406.473-2.073 1.473-2 3-2.174.25-3.841 1.25-5 3-.342.838-1.008 1.172-2 1a6.547 6.547 0 0 0-3 3l-2 1c-1.527-.073-2.527.594-3 2-1.527-.073-2.527.594-3 2-1.527-.073-2.527.594-3 2-3.042.233-5.708 1.233-8 3-.342.838-1.008 1.172-2 1 1.105-1.8.439-2.967-2-3.5.752-.671 1.086-1.504 1-2.5a89.378 89.378 0 0 0 19-11c.438.065.772-.101 1-.5-1.237-.232-2.237-.732-3-1.5a18.991 18.991 0 0 0 8-1.5 83.084 83.084 0 0 1 8-7.5c0-.667.333-1 1-1a19.552 19.552 0 0 0 4-3.5c-1.64-.348-2.973.152-4 1.5-.543-.06-.876-.393-1-1a31.147 31.147 0 0 0 2-2h4v-11c-1.915-.284-3.581.049-5 1-1.333-.667-1.333-1.333 0-2a235.466 235.466 0 0 1 15-2v-11c.342-.838 1.008-1.172 2-1-1.258 3.623-1.258 7.29 0 11a46.42 46.42 0 0 0 6-10c.543-.06.876-.393 1-1-1.189-.929-2.522-1.262-4-1 2.018-.547 3.851-1.547 5.5-3 .821-3.054.655-6.054-.5-9a19.372 19.372 0 0 1-8 1c-.992.172-1.658-.162-2-1h2a51.752 51.752 0 0 0 13.5-3c.897-2.99 1.731-5.99 2.5-9a9.86 9.86 0 0 0-6-1c-.992.172-1.658-.162-2-1 .982-3.462 1.315-7.129 1-11-4.324.427-8.658.761-13 1 6.833-1.7 13.833-3.2 21-4.5l-3-.5a354.017 354.017 0 0 1-37 5 481.631 481.631 0 0 1 42-7v-15a37.118 37.118 0 0 0-12 1.5c-1.522 3.379-2.189 6.712-2 10a57.35 57.35 0 0 1-15 1.5v-9a72.032 72.032 0 0 0-11 1 72.032 72.032 0 0 1-1 11 98.378 98.378 0 0 1-14 1.5 51.727 51.727 0 0 1-1.5-9.5l-10 2a40.914 40.914 0 0 0-.5 9l-2-1c.923-3.564 1.256-7.231 1-11 4.324-.427 8.658-.761 13-1 .244-32.669.577-64.169 1-94.5-.55-3.324-1.217-6.49-2-9.5a184.223 184.223 0 0 0-2-3 75.752 75.752 0 0 0 3.5-14c3.018-6.357 7.851-10.523 14.5-12.5-2.939-3.973-2.272-7.307 2-10 2.808-.92 4.975-.087 6.5 2.5.422 2.736.422 5.402 0 8 12.094 3.98 17.594 12.48 16.5 25.5-.77 1.775-1.937 3.275-3.5 4.5-.5 35.665-.667 71.332-.5 107 1.322.17 2.489-.163 3.5-1 .314-3.365.481-6.531.5-9.5a117.754 117.754 0 0 1 15-2.5 7231.412 7231.412 0 0 0 3-83.5c-.847-9.912-1.181-20.245-1-31-.429-10.808 3.904-19.141 13-25-29.191-11.874-59.525-19.374-91-22.5C117.75 5.762 61.083 13.928 6.5 37c4.468 2.777 7.635 6.61 9.5 11.5.352 37.38 1.186 74.713 2.5 112l-1 2c.611 4.32 1.278 8.653 2 13 4.852.68 9.52 1.68 14 3-1.291-.237-2.291.096-3 1a73.312 73.312 0 0 0-12-1c-.302 4.93.03 9.763 1 14.5 6.764.608 13.43 1.608 20 3a82.135 82.135 0 0 1-18-1.5l-3 .5c.916.278 1.582.778 2 1.5-2.44 3.562-2.44 7.396 0 11.5 1.558.21 2.892.71 4 1.5-1.599-.268-2.932.066-4 1l2.5 10c1.356.88 2.856 1.214 4.5 1-1.765.961-3.765 1.295-6 1v-1c-.296-1.903-.962-3.57-2-5a29.45 29.45 0 0 1-2-9c-.095-2.286-.762-4.286-2-6-.874-44.983-1.874-90.317-3-136 1.123-1.788 1.29-3.788.5-6-.572-3.663-1.738-6.996-3.5-10v-1c-.762-1.762-2.096-2.762-4-3-1-.333-1.667-1-2-2a30.958 30.958 0 0 0-2-2 6.845 6.845 0 0 0 1-4c4.172-7.652 9.339-14.652 15.5-21 1.3 1.48 2.966 2.146 5 2a97.32 97.32 0 0 0 10.5-2c2.652.09 4.986-.576 7-2 .342-.838 1.008-1.172 2-1 1.192 1.066.859 1.9-1 2.5a138.358 138.358 0 0 0-15 5 29.919 29.919 0 0 0-10 .5l-6.5 9c-.688.832-.521 1.498.5 2C80.107 4.639 151.44-.194 224.5 18a246.478 246.478 0 0 1 39 12.5l1-.5c-1.323-.816-1.989-1.983-2-3.5z"/><path style="opacity:1" fill="#41423f" d="M116.5.5c3.512-.555 6.512.112 9 2a348.781 348.781 0 0 0-79 12c-1.213-.247-1.88-.914-2-2 23.652-7.09 47.652-11.09 72-12z"/><path style="opacity:1" fill="#2a2c2d" d="M173.5 1.5h3c4.139 1.063 8.472 1.73 13 2 .617-.11 1.117-.444 1.5-1 20.942 4.48 41.776 9.48 62.5 15 .722-1.051 1.722-1.718 3-2a39.308 39.308 0 0 1 10 11h-4c-2-1.476-3.667-3.31-5-5.5l-10-1a433.15 433.15 0 0 0-73-16.5c-.798-.457-1.131-1.124-1-2z"/><path style="opacity:1" fill="#a5a5a7" d="M172.5 1.5h1c-.131.876.202 1.543 1 2a433.15 433.15 0 0 1 73 16.5l10 1c1.333 2.19 3 4.024 5 5.5.011 1.517.677 2.684 2 3.5l-1 .5a246.478 246.478 0 0 0-39-12.5C151.44-.194 80.107 4.639 10.5 32.5c-1.021-.502-1.188-1.168-.5-2l6.5-9a29.919 29.919 0 0 1 10-.5 138.358 138.358 0 0 1 15-5c1.859-.6 2.192-1.434 1-2.5.342-.838 1.008-1.172 2-1 .12 1.086.787 1.753 2 2a348.781 348.781 0 0 1 79-12h25c5.518.002 11.018.335 16.5 1 2.295-.046 4.129-.713 5.5-2z"/><path style="opacity:1" fill="#7c7e81" d="M40.5 14.5c-2.014 1.424-4.348 2.09-7 2 2.014-1.424 4.348-2.09 7-2z"/><path style="opacity:1" fill="#c9c9ca" d="M256.5 15.5c-1.278.282-2.278.949-3 2v-3c1.291-.237 2.291.096 3 1z"/><path style="opacity:1" fill="#131417" d="M180.5 49.5c-2.699-.034-5.199.633-7.5 2-.5 32.998-.667 65.998-.5 99a64.873 64.873 0 0 1 16 1l1 2a424.059 424.059 0 0 0-1.5 28c-3.021.59-5.188 2.257-6.5 5 .573 1.66.573 3.494 0 5.5.108 1.681.775 2.848 2 3.5l2 1a19.602 19.602 0 0 1-3.5 2l-.5 2.5c.184 1.376.851 2.209 2 2.5a2.428 2.428 0 0 1 2 .5c-5.304 1.48-5.304 2.647 0 3.5-1.291-.237-2.291.096-3 1-.992 7.482-1.325 15.148-1 23h6l-6 2-2 2a644.593 644.593 0 0 0-1-50.5 3610.88 3610.88 0 0 0-85-.5 7656.291 7656.291 0 0 0 0 94.5c.59 4.832 1.257 9.665 2 14.5a38.305 38.305 0 0 0 8 3c.997-21.494 1.331-43.16 1-65 2.317-14.139 10.317-23.306 24-27.5 22.108-1.887 34.775 8.113 38 30a499.372 499.372 0 0 0 0 62.5 9.108 9.108 0 0 1 5-1c-.963.863-.963 1.53 0 2 2.09-1.042 4.09-1.876 6-2.5-.88 1.356-1.214 2.856-1 4.5a65.478 65.478 0 0 1-14 3 89.644 89.644 0 0 1-27 3c-1.291-.237-2.291.096-3 1h-7v-1c-3.044-1.511-6.378-2.178-10-2-2.461-1.031-5.127-1.698-8-2-8.235-1.296-15.901-3.963-23-8-1.014-1.174-2.347-1.84-4-2-.473-1.406-1.473-2.073-3-2-.746-1.843-2.08-3.176-4-4 .124-.607.457-.94 1-1a378.8 378.8 0 0 0 16.5 8 60.94 60.94 0 0 0 .5-11c-3.33.285-6.33-.382-9-2h9v-10l-12-2a50.442 50.442 0 0 1-.5 10 76.441 76.441 0 0 0-1.5-11c-4.692-.04-9.36-.373-14-1a9.864 9.864 0 0 1-1 6c-.73-1.434-1.73-2.6-3-3.5a338.405 338.405 0 0 0 1-36.5h-4a717.269 717.269 0 0 0-1.5 34c-.71-1.473-1.876-2.14-3.5-2l3-2v-10h-3l3-2a96.225 96.225 0 0 1 1-19c2.45-1.41 4.616-1.076 6.5 1l1 7c1.7.906 3.533 1.239 5.5 1a25.87 25.87 0 0 0-1-10 11.987 11.987 0 0 0-6-1c0-.667.333-1 1-1 5.347.573 10.68 1.24 16 2v-11a224.34 224.34 0 0 1-17-2.5 18.452 18.452 0 0 1 6-.5c.983-3.798 1.317-7.798 1-12 3.398-.32 6.732.013 10 1-2.947.821-5.947.821-9 0v12a141.61 141.61 0 0 0 21 2v-11l-9-1.5c11.89.426 11.89-.574 0-3 2.73-.728 5.397-.562 8 .5 1.742-3.934.409-5.601-4-5 .72-3.317.888-6.651.5-10a32.116 32.116 0 0 0-11.5-2c.284 3.277-.05 6.443-1 9.5-4.678.192-9.178-.641-13.5-2.5a50.442 50.442 0 0 1-.5-10 116.175 116.175 0 0 1-12-2v11c-4.654-.829-9.32-1.663-14-2.5-.329-3.892-1.329-7.392-3-10.5.709-.904 1.709-1.237 3-1 .82 2.805 1.32 5.805 1.5 9 1.11 1.537 2.61 2.203 4.5 2v-25c.331-26.172-.002-52.172-1-78 .146-3.326-.521-6.493-2-9.5-1.667-13.033 3.667-21.366 16-25-4.356-4.738-3.69-8.572 2-11.5 5.69 1.717 7.356 5.384 5 11 5.74.53 10.24 3.196 13.5 8A234.981 234.981 0 0 1 77.5 77a463.76 463.76 0 0 1-2.5 4.5c-.667 34-.667 68 0 102 4.339 1.522 8.839 2.189 13.5 2v11h3a60.94 60.94 0 0 0-.5-11l-6-4c-.18-9.577-.68-19.077-1.5-28.5 5.145-1.446 10.479-1.946 16-1.5a1958.8 1958.8 0 0 0 0-100 37.148 37.148 0 0 0-8-2.5 20.064 20.064 0 0 1-1-6 329.794 329.794 0 0 1 2-21c4.598.245 9.265.245 14 0a90.825 90.825 0 0 1 0 12.5c3.277.284 6.443-.05 9.5-1 .499-3.986.666-7.986.5-12h15v12h9c-.293-3.937.04-7.77 1-11.5 5.084-.778 10.084-.611 15 .5v11h9c-.293-3.937.04-7.77 1-11.5 4.253-.2 8.42-.7 12.5-1.5l3 2c-.042 9.05-.542 18.05-1.5 27z"/><path style="opacity:1" fill="#05459d" d="M176.5 12.5c.43.921 1.764 1.421 4 1.5a9.457 9.457 0 0 0-1.5 2.5c-1.099-2.544-2.265-2.544-3.5 0 2.481 1.36 2.148 2.36-1 3a18.085 18.085 0 0 1-3.5-2 6.802 6.802 0 0 1-1.5 3c-3.788-1.196-6.621-2.863-8.5-5-.456 1.244.044 2.077 1.5 2.5-.354 1.625-.354 3.459 0 5.5a19.24 19.24 0 0 1-6-1c-4.916-1.111-9.916-1.278-15-.5-.96 3.73-1.293 7.563-1 11.5h-9v-12h-15a72.368 72.368 0 0 1-.5 12c-3.057.95-6.223 1.284-9.5 1a90.825 90.825 0 0 0 0-12.5c-4.735.245-9.402.245-14 0a329.794 329.794 0 0 0-2 21 20.064 20.064 0 0 0 1 6 37.148 37.148 0 0 1 8 2.5 1958.8 1958.8 0 0 1 0 100c-5.521-.446-10.855.054-16 1.5.82 9.423 1.32 18.923 1.5 28.5l6 4a60.94 60.94 0 0 1 .5 11h-3v-11c-4.661.189-9.161-.478-13.5-2-.667-34-.667-68 0-102 .85-1.51 1.683-3.01 2.5-4.5A234.981 234.981 0 0 0 73 59.5c-3.26-4.804-7.76-7.47-13.5-8 2.356-5.616.69-9.283-5-11-5.69 2.928-6.356 6.762-2 11.5-12.333 3.634-17.667 11.967-16 25 1.479 3.007 2.146 6.174 2 9.5.3 4.599-.033 9.099-1 13.5.661 21.598 1.328 43.098 2 64.5v25c-1.89.203-3.39-.463-4.5-2-.18-3.195-.68-6.195-1.5-9a97.227 97.227 0 0 0-14-3 549.684 549.684 0 0 1-2-13l1-2a4341.063 4341.063 0 0 1-2.5-112c-1.865-4.89-5.032-8.723-9.5-11.5 54.583-23.072 111.25-31.238 170-24.5z"/><path style="opacity:1" fill="#434b40" d="M104.5 24.5c-3.914-.389-7.58.278-11 2a44.358 44.358 0 0 0-1-2c4.15-1.31 8.149-1.31 12 0z"/><path style="opacity:1" fill="#05449c" d="M176.5 12.5c31.475 3.126 61.809 10.626 91 22.5-9.096 5.859-13.429 14.192-13 25-.181 10.755.153 21.088 1 31a7231.412 7231.412 0 0 1-3 83.5 117.754 117.754 0 0 0-15 2.5c-.019 2.969-.186 6.135-.5 9.5-1.011.837-2.178 1.17-3.5 1-.167-35.668 0-71.335.5-107 1.563-1.225 2.73-2.725 3.5-4.5 1.094-13.02-4.406-21.52-16.5-25.5.422-2.598.422-5.264 0-8-1.525-2.587-3.692-3.42-6.5-2.5-4.272 2.693-4.939 6.027-2 10-6.649 1.977-11.482 6.143-14.5 12.5a75.752 75.752 0 0 1-3.5 14 184.223 184.223 0 0 1 2 3v15c-2.25-.319-4.25.181-6 1.5l1.5 1.5c1.049-1.607 2.549-2.273 4.5-2v7c-2.753-1.197-5.42-1.863-8-2-.079-2.43.255-4.93 1-7.5a4.451 4.451 0 0 0-2-1.5 42.758 42.758 0 0 0-1.5 9 73.397 73.397 0 0 0-1.5-11.5c1.801-.317 2.134-.984 1-2a20.211 20.211 0 0 0 6-1.5 10.756 10.756 0 0 0-2.5-3c-3.963.481-7.629.481-11 0 .077-1.238-.089-2.238-.5-3a31.117 31.117 0 0 0-1 11c4 .333 4 .667 0 1-1.753.527-1.753-4.306 0-14.5-2.667-1-2.667-2 0-3-1.211-1.113-1.211-2.28 0-3.5a4.451 4.451 0 0 0-2-1.5c5.333-.667 5.333-1.333 0-2a7.292 7.292 0 0 0 3-2c-.923-2.04-1.256-4.208-1-6.5 2.516-.255 4.85-1.089 7-2.5a9.465 9.465 0 0 1-2.5-1.5c-1.688 2.348-3.522 2.515-5.5.5 2.667-.667 2.667-1.333 0-2 1.608-.658 2.775-.158 3.5 1.5 1.333-1.333 2.667-1.333 4 0-.74-1.55-1.573-3.218-2.5-5 .958-8.95 1.458-17.95 1.5-27l-3-2c-4.08.8-8.247 1.3-12.5 1.5-.96 3.73-1.293 7.563-1 11.5h-9v-11a19.24 19.24 0 0 0 6 1c-.354-2.041-.354-3.875 0-5.5-1.456-.423-1.956-1.256-1.5-2.5 1.879 2.137 4.712 3.804 8.5 5a6.802 6.802 0 0 0 1.5-3 18.085 18.085 0 0 0 3.5 2c3.148-.64 3.481-1.64 1-3 1.235-2.544 2.401-2.544 3.5 0a9.457 9.457 0 0 1 1.5-2.5c-2.236-.079-3.57-.579-4-1.5z"/><path style="opacity:1" fill="#7f847e" d="M2.5 37.5a6.845 6.845 0 0 1-1 4c.743.682 1.41 1.349 2 2-1.459.067-2.792-.266-4-1v-1l3-4z"/><path style="opacity:1" fill="#aa1513" d="M53.5 42.5c4.476.3 5.81 2.467 4 6.5-5.762.418-7.096-1.749-4-6.5z"/><path style="opacity:1" fill="#a7a7a7" d="M143.5 24.5h10c-.315 3.871.018 7.538 1 11 3.811 1.145 7.811 1.312 12 .5 1.812-3.922 2.479-8.089 2-12.5h11a184.091 184.091 0 0 1-1 23h-85v-20c3.42-1.722 7.086-2.389 11-2a60.93 60.93 0 0 0 .5 11c4.136 1.309 8.302 1.309 12.5 0 .697-3.877 1.364-7.71 2-11.5a50.442 50.442 0 0 1 10-.5v13a77.174 77.174 0 0 1 13-1c-.315-3.871.018-7.538 1-11z"/><path style="opacity:1" fill="#515251" d="M143.5 24.5c3.462-.982 7.129-1.315 11-1v12c-.982-3.462-1.315-7.129-1-11h-10z"/><path style="opacity:1" fill="#b71713" d="M214.5 42.5c2.761-.585 4.427.415 5 3-2.247 5.222-4.58 5.222-7 0a184.223 184.223 0 0 0 2-3z"/><path style="opacity:1" fill="#a6a7a8" d="M5.5 45.5c1.904.238 3.238 1.238 4 3-1.904-.238-3.238-1.238-4-3z"/><path style="opacity:1" fill="#b21916" d="M54.5 51.5c13.778 2.284 20.445 10.45 20 24.5a95.833 95.833 0 0 1-19 1.5l-17-1c.2-6.027 1.7-11.694 4.5-17 2.707-2.436 5.873-3.936 9.5-4.5 1.323-.816 1.99-1.983 2-3.5zM214.5 51.5c14.713 1.727 21.379 10.06 20 25a343.122 343.122 0 0 1-37-1c.781-6.065 2.614-11.731 5.5-17 3.514-3 7.347-5.333 11.5-7z"/><path style="opacity:1" fill="#bcbbba" d="M9.5 49.5c1.762 3.004 2.928 6.337 3.5 10 .79 2.212.623 4.212-.5 6-.61-5.163-1.61-10.497-3-16z"/><path style="opacity:1" fill="#adadae" d="M102.5 51.5h67v114h-10a84.902 84.902 0 0 0-.5-13c-5.667-1.333-11.333-1.333-17 0a84.902 84.902 0 0 0-.5 13h-11v-14a145.053 145.053 0 0 0-17 .5c-.967 4.401-1.3 8.901-1 13.5h-11c.118-38.002.451-76.002 1-114z"/><path style="opacity:1" fill="#0c0e13" d="M119.5 68.5c2.544-.396 4.711.271 6.5 2a100.2 100.2 0 0 1 0 20c-2.563.159-5.23-.175-8-1-1.046-7.203-.546-14.203 1.5-21z"/><path style="opacity:1" fill="#090b0e" d="M147.5 68.5c2.403-.107 4.236.893 5.5 3 .667 6 .667 12 0 18-2.719.944-5.552 1.277-8.5 1-.166-6.342 0-12.675.5-19a10.526 10.526 0 0 0 2.5-3z"/><path style="opacity:1" fill="#064caf" d="M123.5 74.5a379.57 379.57 0 0 1 2 10.5c-1.117 1.892-2.784 2.725-5 2.5a184.12 184.12 0 0 0 3-13z"/><path style="opacity:1" fill="#303429" d="M72.5 80.5h-18c-1.452-.802-3.118-1.302-5-1.5l3-.5c4.657.13 9.324.13 14 0 2.382-.139 4.382.528 6 2z"/><path style="opacity:1" fill="#054cb0" d="M150.5 75.5c1.467 3.928 1.801 7.928 1 12-1.478.262-2.811-.071-4-1a44.898 44.898 0 0 0 3-11z"/><path style="opacity:1" fill="#032a57" d="M38.5 86.5a1521.636 1521.636 0 0 1 1 78c-.672-21.402-1.339-42.902-2-64.5a48.041 48.041 0 0 0 1-13.5z"/><path style="opacity:1" fill="#15181f" d="M131.5 103.5c2.357-.163 4.69.003 7 .5.928.388 1.595 1.055 2 2a148.767 148.767 0 0 1 1 23.5 61.26 61.26 0 0 1-13-1c-.166-7.341 0-14.674.5-22 .698-1.191 1.531-2.191 2.5-3z"/><path style="opacity:1" fill="#b6b4b2" d="M134.5 116.5v-8c-1.291-.237-2.291.096-3 1a128.507 128.507 0 0 1-.5 16c-1.284-6.245-1.284-12.579 0-19 2.667-2.667 5.333-2.667 8 0 .667 1 .667 2 0 3-.667-1.333-1.333-1.333-2 0-.17 5.696-.67 11.362-1.5 17a25.879 25.879 0 0 1-1-10z"/><path style="opacity:1" fill="#365981" d="M131.5 109.5c.709-.904 1.709-1.237 3-1v8c-.417-2.659-1.417-4.992-3-7z"/><path style="opacity:1" fill="#0548a2" d="M180.5 49.5c.927 1.782 1.76 3.45 2.5 5-1.333-1.333-2.667-1.333-4 0-.725-1.658-1.892-2.158-3.5-1.5 2.667.667 2.667 1.333 0 2 1.978 2.015 3.812 1.848 5.5-.5a9.465 9.465 0 0 0 2.5 1.5c-2.15 1.411-4.484 2.245-7 2.5-.256 2.292.077 4.46 1 6.5a7.292 7.292 0 0 1-3 2c5.333.667 5.333 1.333 0 2a4.451 4.451 0 0 1 2 1.5c-1.211 1.22-1.211 2.387 0 3.5-2.667 1-2.667 2 0 3-1.753 10.194-1.753 15.027 0 14.5 4-.333 4-.667 0-1a31.117 31.117 0 0 1 1-11c.411.762.577 1.762.5 3 3.371.481 7.037.481 11 0a10.756 10.756 0 0 1 2.5 3 20.211 20.211 0 0 1-6 1.5c1.134 1.016.801 1.683-1 2a73.397 73.397 0 0 1 1.5 11.5 42.758 42.758 0 0 1 1.5-9 4.451 4.451 0 0 1 2 1.5c-.745 2.57-1.079 5.07-1 7.5 2.58.137 5.247.803 8 2v-7c-1.951-.273-3.451.393-4.5 2l-1.5-1.5c1.75-1.319 3.75-1.819 6-1.5v-15c.783 3.01 1.45 6.176 2 9.5a14607.95 14607.95 0 0 0-1 94.5c-4.342.239-8.676.573-13 1 .256 3.769-.077 7.436-1 11-1.225-.652-1.892-1.819-2-3.5.573-2.006.573-3.84 0-5.5 1.312-2.743 3.479-4.41 6.5-5 .193-9.381.693-18.714 1.5-28l-1-2a64.873 64.873 0 0 0-16-1c-.167-33.002 0-66.002.5-99 2.301-1.367 4.801-2.034 7.5-2z"/><path style="opacity:1" fill="#adadae" d="M203.5 79.5h28c-.253 36.334-.586 72.668-1 109h-4v-10a273.611 273.611 0 0 0-15 2.5c-.956 3.394-1.289 6.894-1 10.5-3.307.551-6.64.884-10 1v-112c1.291.237 2.291-.096 3-1z"/><path style="opacity:1" fill="#030407" d="M219.5 92.5c1.89-.204 3.39.463 4.5 2 .499 5.991.666 11.991.5 18h-7c-.166-6.009.001-12.009.5-18 .717-.544 1.217-1.21 1.5-2z"/><path style="opacity:1" fill="#064db6" d="M221.5 103.5c1.297 2.193 1.297 4.527 0 7-.863-2.271-.863-4.605 0-7z"/><path style="opacity:1" fill="#090b0d" d="M207.5 93.5c2.222-.322 4.056.345 5.5 2-.132 5.64-.299 11.307-.5 17h-7c-.166-5.676.001-11.343.5-17 .717-.544 1.217-1.21 1.5-2z"/><path style="opacity:1" fill="#064bb1" d="M209.5 105.5a19.602 19.602 0 0 1 2 3.5 4.457 4.457 0 0 1-2 1.5c-.934-1.595-.934-3.261 0-5z"/><path style="opacity:1" fill="#0c0b11" d="M213.5 128.5a6.846 6.846 0 0 1 4 1 91.123 91.123 0 0 1 1 19h-7c-.166-6.009.001-12.009.5-18 .717-.544 1.217-1.211 1.5-2z"/><path style="opacity:1" fill="#0647a4" d="M216.5 138.5c1.134 2.466 1.301 5.133.5 8-.893 1.211-1.726 1.211-2.5 0a87.147 87.147 0 0 0 2-8z"/><path style="opacity:1" fill="#acacad" d="M54.5 80.5h18v18c-.684 6.401-1.35 12.901-2 19.5a1435.219 1435.219 0 0 1 1 75.5 19.372 19.372 0 0 1-8-1c-.7-3.541-1.367-7.041-2-10.5a68.769 68.769 0 0 0-15-1.5v9h-5a8175.84 8175.84 0 0 1 0-109h13z"/><path style="opacity:1" fill="#090b11" d="M53.5 129.5c2.222-.322 4.056.345 5.5 2 .5 5.657.666 11.324.5 17h-7a96.254 96.254 0 0 1 1-19z"/><path style="opacity:1" fill="#0748a4" d="M57.5 136.5c1.56 3.841 1.06 7.508-1.5 11-.313-3.758.187-7.424 1.5-11z"/><path style="opacity:1" fill="#06090f" d="M60.5 93.5c1.67.251 3.17.918 4.5 2 .5 5.991.666 11.991.5 18h-7c-.166-6.009 0-12.009.5-18 .717-.544 1.217-1.21 1.5-2z"/><path style="opacity:1" fill="#074fb3" d="M62.5 104.5c1.3 2.524 1.3 5.191 0 8-.45-2.544-.45-5.21 0-8z"/><path style="opacity:1" fill="#060506" d="M48.5 94.5c1.644-.213 3.144.12 4.5 1 .5 5.991.666 11.991.5 18h-7c-.166-5.676 0-11.343.5-17 .717-.544 1.217-1.21 1.5-2z"/><path style="opacity:1" fill="#064cb0" d="M51.5 101.5c.982 3.462 1.315 7.129 1 11h-3l2-11z"/><path style="opacity:1" fill="#7a7875" d="M72.5 98.5c.332 31.838-.002 63.504-1 95 .328-25.241-.005-50.408-1-75.5.65-6.599 1.316-13.099 2-19.5z"/><path style="opacity:1" fill="#b4b3b4" d="M113.5 168.5c1.411 2.039 3.411 3.039 6 3 .333 4 .667 4 1 0 2.442-.381 3.109.286 2 2a25.866 25.866 0 0 1 3 5c.387-1.868.554-3.868.5-6 2.24 2.169 4.073 1.669 5.5-1.5l-.5-1.5c-1.049 1.017-2.216 1.184-3.5.5l1-1a42.479 42.479 0 0 1 13 0c1.376 2.543 2.543 2.709 3.5.5a4.457 4.457 0 0 0 1.5 2 22.755 22.755 0 0 1 5-4c2.965 2.127 2.631 3.294-1 3.5 1.829 1.538 3.329 1.038 4.5-1.5l1 1a4.934 4.934 0 0 0 .5-3h15v-14h15v26h-100v-26h12c-.166 4.679 0 9.345.5 14a55.155 55.155 0 0 0 14.5 1z"/><path style="opacity:1" fill="#a6a6a6" d="M156.5 167.5a4.934 4.934 0 0 1-.5 3l-1-1c-1.171 2.538-2.671 3.038-4.5 1.5 3.631-.206 3.965-1.373 1-3.5a22.755 22.755 0 0 0-5 4 4.457 4.457 0 0 1-1.5-2c-.957 2.209-2.124 2.043-3.5-.5a42.479 42.479 0 0 0-13 0l-1 1c1.284.684 2.451.517 3.5-.5l.5 1.5c-1.427 3.169-3.26 3.669-5.5 1.5.054 2.132-.113 4.132-.5 6a25.866 25.866 0 0 0-3-5c1.109-1.714.442-2.381-2-2-.333 4-.667 4-1 0-2.589.039-4.589-.961-6-3a61.281 61.281 0 0 0 1-15h14v14h15v-14h13v14z"/><path style="opacity:1" fill="#acacae" d="M30.5 179.5c1.671 3.108 2.671 6.608 3 10.5 4.68.837 9.346 1.671 14 2.5v-11c3.962.876 7.962 1.542 12 2-.165 3.35.002 6.683.5 10 4.322 1.859 8.822 2.692 13.5 2.5.95-3.057 1.284-6.223 1-9.5a32.116 32.116 0 0 1 11.5 2c.388 3.349.22 6.683-.5 10 4.409-.601 5.742 1.066 4 5-2.603-1.062-5.27-1.228-8-.5 11.89 2.426 11.89 3.426 0 3l9 1.5v11a141.61 141.61 0 0 1-21-2v-12c3.053.821 6.053.821 9 0a25.878 25.878 0 0 0-10-1c-1.109-.79-2.442-1.29-4-1.5a23.639 23.639 0 0 1 10.5.5c3.104-.351 2.937-.851-.5-1.5a64.868 64.868 0 0 0-15-1c4.78.699 4.947 1.199.5 1.5-8.746-2.073-12.913-2.406-12.5-1v12a12.93 12.93 0 0 0-5 .5 88.108 88.108 0 0 0 15 2.5v11a44.87 44.87 0 0 0-10-1v11c-3.99-.69-7.99-.857-12-.5 1.233 1.698 1.9 3.698 2 6l-.5 5.5c-3.482-3.299-5.65-7.299-6.5-12a8.43 8.43 0 0 0 4-.5 20.204 20.204 0 0 1-6-1.5 37.382 37.382 0 0 1-4-10 147.2 147.2 0 0 1 19 2l3-.5a34.026 34.026 0 0 0-8-1.5v-11a4.934 4.934 0 0 0 3-.5 359.218 359.218 0 0 0-13-2.5 31.12 31.12 0 0 1-1-11 65.8 65.8 0 0 0 13 .5 102.593 102.593 0 0 0-20-2.5c-.418-.722-1.084-1.222-2-1.5l3-.5a82.135 82.135 0 0 0 18 1.5 169.668 169.668 0 0 0-20-3 55.167 55.167 0 0 1-1-14.5c4.034.005 8.034.338 12 1z"/><path style="opacity:1" fill="#aeaeaf" d="M179.5 235.5a1505.466 1505.466 0 0 1-2 57c-2.28.636-4.28 1.636-6 3a9.108 9.108 0 0 0-5 1 499.372 499.372 0 0 1 0-62.5c-3.225-21.887-15.892-31.887-38-30-13.683 4.194-21.683 13.361-24 27.5-1.025.874-1.692 2.041-2 3.5a970.357 970.357 0 0 1 1 61.5 38.305 38.305 0 0 1-8-3 473.742 473.742 0 0 1-2-14.5 7656.291 7656.291 0 0 1 0-94.5c28.335-.167 56.669 0 85 .5a644.593 644.593 0 0 1 1 50.5z"/><path style="opacity:1" fill="#2d2f2e" d="M40.5 197.5c5.9-.688 11.9-.188 18 1.5a67.94 67.94 0 0 1-18-1.5z"/><path style="opacity:1" fill="#acadad" d="M210.5 199.5a222.407 222.407 0 0 0-24 3c-1.291-.237-2.291.096-3 1-1.149-.291-1.816-1.124-2-2.5l.5-2.5a19.602 19.602 0 0 0 3.5-2 40.914 40.914 0 0 1 .5-9l10-2a51.727 51.727 0 0 0 1.5 9.5 98.378 98.378 0 0 0 14-1.5 72.032 72.032 0 0 0 1-11 72.032 72.032 0 0 1 11-1v9a57.35 57.35 0 0 0 15-1.5c-.189-3.288.478-6.621 2-10a37.118 37.118 0 0 1 12-1.5v15a481.631 481.631 0 0 0-42 7z"/><path style="opacity:1" fill="#a5a6a7" d="M229.5 199.5c-6.059.199-12.059.866-18 2h-4l3-2a354.017 354.017 0 0 0 37-5l3 .5c-7.167 1.3-14.167 2.8-21 4.5z"/><path style="opacity:1" fill="#aaadad" d="M250.5 196.5c1.144 3.852 1.144 7.852 0 12a51.569 51.569 0 0 1-7 1 60.931 60.931 0 0 1 .5-11 96.578 96.578 0 0 0 6.5-2z"/><path style="opacity:1" fill="#181718" d="m210.5 199.5-3 2c-6.046.197-12.046.864-18 2-1.226-.02-2.226-.353-3-1a222.407 222.407 0 0 1 24-3z"/><path style="opacity:1" fill="#d1d1d2" d="M15.5 201.5c1.238 1.714 1.905 3.714 2 6-1.574-1.602-2.24-3.602-2-6z"/><path style="opacity:1" fill="#aeafaf" d="M241.5 209.5c-5.978.998-11.978 1.998-18 3a31.116 31.116 0 0 1 1-11c1.836-.528 3.503-1.194 5-2 4.342-.239 8.676-.573 13-1 .315 3.871-.018 7.538-1 11z"/><path style="opacity:1" fill="#635f66" d="M207.5 201.5h4c0 .667.333 1 1 1-2.448.973-5.115 1.306-8 1-4.561-.351-8.228.315-11 2-2.405 1.268-5.072 1.935-8 2-5.304-.853-5.304-2.02 0-3.5a2.428 2.428 0 0 0-2-.5c.709-.904 1.709-1.237 3-1 .774.647 1.774.98 3 1a116.068 116.068 0 0 1 18-2z"/><path style="opacity:1" fill="#b0b1b1" d="M20.5 196.5c1.419.951 3.085 1.284 5 1 .317 4.202-.017 8.202-1 12-1.108-.79-2.442-1.29-4-1.5-2.44-4.104-2.44-7.938 0-11.5z"/><path style="opacity:1" fill="#b1b1b2" d="M67.5 215.5a18.452 18.452 0 0 0-6 .5 224.34 224.34 0 0 0 17 2.5v11a459.031 459.031 0 0 0-16-2c-.709-.904-1.709-1.237-3-1-.294-3.937.04-7.77 1-11.5a33.725 33.725 0 0 0-11-1.5v-12c5.989.76 11.989 1.427 18 2v12z"/><path style="opacity:1" fill="#2b2c2d" d="M20.5 196.5c6.748.177 13.415 1.01 20 2.5a65.8 65.8 0 0 1-13-.5 31.12 31.12 0 0 0 1 11c4.335.751 8.668 1.584 13 2.5a4.934 4.934 0 0 1-3 .5v11c2.717.178 5.383.678 8 1.5l-3 .5a147.2 147.2 0 0 0-19-2 37.382 37.382 0 0 0 4 10 20.204 20.204 0 0 0 6 1.5 8.43 8.43 0 0 1-4 .5c.85 4.701 3.018 8.701 6.5 12l.5-5.5c-.1-2.302-.767-4.302-2-6 4.01-.357 8.01-.19 12 .5v-11a44.87 44.87 0 0 1 10 1v-11a88.108 88.108 0 0 1-15-2.5 12.93 12.93 0 0 1 5-.5v-12c-.413-1.406 3.754-1.073 12.5 1 4.447-.301 4.28-.801-.5-1.5a64.868 64.868 0 0 1 15 1c3.437.649 3.604 1.149.5 1.5a23.639 23.639 0 0 0-10.5-.5c1.558.21 2.891.71 4 1.5.317 4.202-.017 8.202-1 12v-12a580.577 580.577 0 0 1-18-2v12a33.725 33.725 0 0 1 11 1.5c-.96 3.73-1.294 7.563-1 11.5 1.291-.237 2.291.096 3 1-.667 0-1 .333-1 1a260.84 260.84 0 0 0-12-2v11c-.444 1.155-3.777 1.155-10 0v12c-.667 0-1 .333-1 1a145.582 145.582 0 0 1 8.5 11 60.94 60.94 0 0 0 .5-11 13.115 13.115 0 0 1-7-1l2-1a45.744 45.744 0 0 0 12 1l-3 2c-1.902 2.837-2.569 6.171-2 10h5l-3 2a2.429 2.429 0 0 0-2 .5c4.078 4.749 8.745 8.749 14 12 7.18.933 14.18 2.1 21 3.5h-2a327.383 327.383 0 0 0-15-.5 59.4 59.4 0 0 1 7 5.5c-.543.06-.876.393-1 1 1.92.824 3.254 2.157 4 4-10.801-5.147-20.134-12.147-28-21 .073-1.527-.594-2.527-2-3-1.644-.31-2.644-1.31-3-3-.333-1-1-1.667-2-2a126.647 126.647 0 0 1-17-29c-.489-1.495-1.155-2.829-2-4a26.329 26.329 0 0 1-2-5c2.235.295 4.235-.039 6-1a81.798 81.798 0 0 1 10 2 31.12 31.12 0 0 0-1-11 117.751 117.751 0 0 0-16-2c1.068-.934 2.401-1.268 4-1 .983-3.798 1.317-7.798 1-12-1.915.284-3.581-.049-5-1z"/><path style="opacity:1" fill="#b2b2b3" d="M204.5 203.5c2.885.306 5.552-.027 8-1a41.73 41.73 0 0 0 9-1v12l-19 2c-.484-4.327.182-8.327 2-12z"/><path style="opacity:1" fill="#aaabb1" d="M131.5 205.5c16.357-.12 26.857 7.547 31.5 23 .667 23 .667 46 0 69a1327.212 1327.212 0 0 0-2-70c-7.003-15.919-18.837-21.752-35.5-17.5-8.037 4.369-13.537 10.869-16.5 19.5a2314.979 2314.979 0 0 1-1.5 68 542.44 542.44 0 0 1 .5-72c4.39-10.903 12.224-17.569 23.5-20z"/><path style="opacity:1" fill="#c59b04" d="M133.5 210.5h4c-.61 4.135.223 7.801 2.5 11 2.212-2.502 3.045-5.502 2.5-9h3v8c3.722 2.252 5.889 1.252 6.5-3 2.077 1.576 3.577 3.576 4.5 6a92.852 92.852 0 0 0-3.5 13c-1.354-3.863-1.854-7.863-1.5-12-1.967-.239-3.801.094-5.5 1a62.744 62.744 0 0 1-1.5 11 3.647 3.647 0 0 1-1.5-1 60.931 60.931 0 0 1-.5-11h-5a50.464 50.464 0 0 1-.5 10l-2 2c-1.354-3.863-1.854-7.863-1.5-12-2.25-.319-4.25.181-6 1.5 1.664 3.861 1.164 7.361-1.5 10.5-1.424-3.797-1.924-7.797-1.5-12h-5c.463 4.328-.37 8.328-2.5 12-1.254-3.476-1.921-7.142-2-11l-1.5-1.5a13.271 13.271 0 0 1 5-5.5c1.679 1.604 3.679 2.271 6 2-.163-2.357.003-4.69.5-7a3.647 3.647 0 0 1 1.5-1 34.251 34.251 0 0 1 1.5 8c1.626.354 3.459.354 5.5 0v-10z"/><path style="opacity:1" fill="#084087" d="M129.5 210.5h3v9h-3v-9z"/><path style="opacity:1" fill="#b4b3b4" d="M184.5 218.5c-1.902-2.837-2.569-6.171-2-10 .709-.904 1.709-1.237 3-1 2.928-.065 5.595-.732 8-2 2.42.208 4.753-.126 7-1a36.875 36.875 0 0 1 1 12 446.684 446.684 0 0 0-17 2z"/><path style="opacity:1" fill="#074aa0" d="M139.5 211.5c2.418 2.378 2.585 5.045.5 8a32.462 32.462 0 0 1-.5-8z"/><path style="opacity:1" fill="#09519b" d="M147.5 215.5c1.086.12 1.753.787 2 2l-1 2c-.929-1.189-1.262-2.522-1-4z"/><path style="opacity:1" fill="#b0b0b1" d="M243.5 210.5a9.86 9.86 0 0 1 6 1c-.769 3.01-1.603 6.01-2.5 9a51.752 51.752 0 0 1-13.5 3v-11c3.511-.399 6.844-1.066 10-2z"/><path style="opacity:1" fill="#064aa4" d="M121.5 215.5c1.282 1.208 1.282 2.542 0 4-1.126-1.308-1.126-2.642 0-4z"/><path style="opacity:1" fill="#dddede" d="M19.5 216.5c1.038 1.43 1.704 3.097 2 5-1.713-1.135-2.38-2.802-2-5z"/><path style="opacity:1" fill="#acacaf" d="M20.5 210.5c5.392.303 10.725.969 16 2a31.12 31.12 0 0 1 1 11 81.798 81.798 0 0 0-10-2c-1.644.214-3.144-.12-4.5-1l-2.5-10z"/><path style="opacity:1" fill="#7f7b81" d="M182.5 208.5c-.569 3.829.098 7.163 2 10 .709.904 1.709 1.237 3 1-1.02 1.454-2.187 1.787-3.5 1a10.413 10.413 0 0 0-1.5 5c.568 1.704.568 3.204 0 4.5a12.93 12.93 0 0 0 5 .5v1h-6c-.325-7.852.008-15.518 1-23z"/><path style="opacity:1" fill="#b8b8b9" d="M187.5 219.5h3v11h-3a12.93 12.93 0 0 1-5-.5c.568-1.296.568-2.796 0-4.5a10.413 10.413 0 0 1 1.5-5c1.313.787 2.48.454 3.5-1z"/><path style="opacity:1" fill="#727372" d="M252.5 224.5c-.16 1.653-.826 2.986-2 4-.381-1.431-1.381-2.264-3-2.5a27.603 27.603 0 0 0 5-1.5z"/><path style="opacity:1" fill="#a09da3" d="M243.5 223.5a2.428 2.428 0 0 1 2 .5c-1.381 6.02-2.047 5.853-2-.5z"/><path style="opacity:1" fill="#dad8d9" d="M23.5 227.5c.845 1.171 1.511 2.505 2 4-1.677-.683-2.343-2.017-2-4z"/><path style="opacity:1" fill="#aeafb0" d="M236.5 235.5c-4.693.04-9.359.373-14 1v-10c3.925.07 7.591-.597 11-2a19.372 19.372 0 0 0 8-1c1.155 2.946 1.321 5.946.5 9-1.649 1.453-3.482 2.453-5.5 3z"/><path style="opacity:1" fill="#191919" d="M229.5 199.5c-1.497.806-3.164 1.472-5 2a31.116 31.116 0 0 0-1 11c6.022-1.002 12.022-2.002 18-3 .342.838 1.008 1.172 2 1-3.156.934-6.489 1.601-10 2v11h-2c.342.838 1.008 1.172 2 1-3.409 1.403-7.075 2.07-11 2v10c4.641-.627 9.307-.96 14-1 1.478-.262 2.811.071 4 1-.124.607-.457.94-1 1-1.765-.961-3.765-1.295-6-1-.992-.172-1.658.162-2 1a66.755 66.755 0 0 0-14 1.5c-.752.671-1.086 1.504-1 2.5-1.333-2.333-1.333-4.667 0-7v3h5v-10a245.158 245.158 0 0 0-19 2v10h5a32.462 32.462 0 0 1 .5-8c2.621-2.64 5.121-2.64 7.5 0 .172.992-.162 1.658-1 2-1.255-3.147-2.921-3.48-5-1l1.5 3a204.664 204.664 0 0 1-.5 35c-1.342-1.402-2.176-1.069-2.5 1a20.2 20.2 0 0 0-1.5-6 92.425 92.425 0 0 1-15 2v11a41.541 41.541 0 0 0 8-1c.763.768 1.763 1.268 3 1.5-.228.399-.562.565-1 .5-5.007.251-10.007.584-15 1a36.354 36.354 0 0 1-4.5 2c-.801 2.867-.634 5.534.5 8 .086.996-.248 1.829-1 2.5 2.439.533 3.105 1.7 2 3.5-2.071 1.445-4.404 2.445-7 3-.214-1.644.12-3.144 1-4.5-1.91.624-3.91 1.458-6 2.5-.963-.47-.963-1.137 0-2 1.72-1.364 3.72-2.364 6-3a1505.466 1505.466 0 0 0 2-57l2-2v9a97.59 97.59 0 0 1 14-.5 11.333 11.333 0 0 0-3.5 1.5 25.238 25.238 0 0 0 0 10l1.5 1.5c-3.842.956-7.675 1.79-11.5 2.5a50.464 50.464 0 0 0-.5 10 245.158 245.158 0 0 0 19-2v-11a18.453 18.453 0 0 1-6-.5 57.078 57.078 0 0 0 12.5-2.5c.499-3.652.665-7.318.5-11-6.395 1.662-8.728 1.662-7 0v-10c-4.324.427-8.658.761-13 1v-1h3v-11h-3c-1.291.237-2.291-.096-3-1a446.684 446.684 0 0 1 17-2 36.875 36.875 0 0 0-1-12 15.418 15.418 0 0 1-7 1c2.772-1.685 6.439-2.351 11-2-1.818 3.673-2.484 7.673-2 12l19-2v-12a41.73 41.73 0 0 1-9 1c-.667 0-1-.333-1-1a116.203 116.203 0 0 1 18-2z"/><path style="opacity:1" fill="#afafb1" d="M203.5 216.5h8a25.879 25.879 0 0 1-1 10 73.849 73.849 0 0 1-18 3v-11c3.958.249 7.624-.418 11-2z"/><path style="opacity:1" fill="#b2b3b4" d="M231.5 223.5a187.78 187.78 0 0 1-19 3v-11a737.012 737.012 0 0 1 19-2v10z"/><path style="opacity:1" fill="#b1b0b2" d="M216.5 234.5c.237-1.291-.096-2.291-1-3-2.379-2.64-4.879-2.64-7.5 0a32.462 32.462 0 0 0-.5 8h-5v-10a245.158 245.158 0 0 1 19-2v10h-5v-3z"/><path style="opacity:1" fill="#3b3c3e" d="M215.5 231.5c.904.709 1.237 1.709 1 3-1.333 2.333-1.333 4.667 0 7v9c-1.333.667-1.333 1.333 0 2-.313 3.542.021 6.875 1 10a31.147 31.147 0 0 1-2 2c.124.607.457.94 1 1v2c-.667 0-1 .333-1 1-.995-11.488-1.328-23.155-1-35 .838-.342 1.172-1.008 1-2z"/><path style="opacity:1" fill="#a7a7a8" d="M73.5 241.5c-1.068-.934-2.401-1.268-4-1a31.12 31.12 0 0 1 1-11 35.61 35.61 0 0 0 15 1.5 15.252 15.252 0 0 1-4.5-1.5 51.676 51.676 0 0 0-1.5-9.5 71.586 71.586 0 0 1 12 .5v11c-6.667.333-6.667.667 0 1v11a165.624 165.624 0 0 0-18-2z"/><path style="opacity:1" fill="#a0a4a3" d="M233.5 236.5c2.235-.295 4.235.039 6 1a46.42 46.42 0 0 1-6 10c-1.258-3.71-1.258-7.377 0-11z"/><path style="opacity:1" fill="#aaa9a9" d="M61.5 228.5a11.987 11.987 0 0 1 6 1 25.87 25.87 0 0 1 1 10c-1.967.239-3.8-.094-5.5-1l-1-7c-1.884-2.076-4.05-2.41-6.5-1a96.225 96.225 0 0 0-1 19 45.744 45.744 0 0 1-12-1l-2 1a13.115 13.115 0 0 0 7 1 60.94 60.94 0 0 1-.5 11 145.582 145.582 0 0 0-8.5-11c.667 0 1-.333 1-1v-12c6.223 1.155 9.556 1.155 10 0v-11a260.84 260.84 0 0 1 12 2z"/><path style="opacity:1" fill="#a8a9aa" d="m181.5 233.5 6-2c4.342-.239 8.676-.573 13-1v10c-1.728 1.662.605 1.662 7 0a60.931 60.931 0 0 1-.5 11 57.078 57.078 0 0 1-12.5 2.5c1.973.495 3.973.662 6 .5v11a245.158 245.158 0 0 1-19 2c-.165-3.35.002-6.683.5-10 3.825-.71 7.658-1.544 11.5-2.5l-1.5-1.5a25.238 25.238 0 0 1 0-10 11.333 11.333 0 0 1 3.5-1.5 97.59 97.59 0 0 0-14 .5v-9z"/><path style="opacity:1" fill="#abacac" d="M231.5 237.5v11a235.466 235.466 0 0 0-15 2v-9c-.086-.996.248-1.829 1-2.5a66.755 66.755 0 0 1 14-1.5z"/><path style="opacity:1" fill="#b4b4b6" d="M184.5 243.5h6v11a41.73 41.73 0 0 0-9 1v-11c1.291.237 2.291-.096 3-1z"/><path style="opacity:1" fill="#afaeaf" d="M80.5 243.5c3.635.614 7.302.948 11 1v11a185.476 185.476 0 0 1-11-1v-11z"/><path style="opacity:1" fill="#b1b1b2" d="M73.5 241.5a36.287 36.287 0 0 0 4.5 2c.498 3.317.665 6.65.5 10a116.292 116.292 0 0 1-15-2 72.045 72.045 0 0 1-1-11c3.635.614 7.302.948 11 1z"/><path style="opacity:1" fill="#a5a3a6" d="M217.5 262.5c-.979-3.125-1.313-6.458-1-10 1.419-.951 3.085-1.284 5-1v11h-4z"/><path style="opacity:1" fill="#abaaac" d="M230.5 249.5c1.025.397 1.192 1.063.5 2l-8 10a60.931 60.931 0 0 1-.5-11c2.885.306 5.552-.027 8-1z"/><path style="opacity:1" fill="#8f8682" d="M104.5 231.5c.331 21.84-.003 43.506-1 65a970.357 970.357 0 0 0-1-61.5c.308-1.459.975-2.626 2-3.5z"/><path style="opacity:1" fill="#acaeaf" d="M51.5 251.5h3v10h-5c-.569-3.829.098-7.163 2-10z"/><path style="opacity:1" fill="#a5a5a5" d="M202.5 253.5h5v11h-5v-11z"/><path style="opacity:1" fill="#afacab" d="M63.5 253.5h5v11c-1.644.214-3.144-.12-4.5-1a50.442 50.442 0 0 1-.5-10z"/><path style="opacity:1" fill="#adacae" d="M77.5 266.5c-2.46-1.031-5.127-1.698-8-2v-10a252.468 252.468 0 0 1 22 3v10a198.917 198.917 0 0 0-14-1z"/><path style="opacity:1" fill="#d7d9da" d="M42.5 260.5c1 .333 1.667 1 2 2-1.333 0-2-.667-2-2z"/><path style="opacity:1" fill="#a5a8a7" d="M216.5 267.5v-2c1.027-1.348 2.36-1.848 4-1.5a19.552 19.552 0 0 1-4 3.5z"/><path style="opacity:1" fill="#b8b8b7" d="M230.5 262.5c-.58 2.249-1.913 3.915-4 5 .58-2.249 1.913-3.915 4-5z"/><path style="opacity:1" fill="#bdbebc" d="M47.5 265.5c1.406.473 2.073 1.473 2 3-1.406-.473-2.073-1.473-2-3z"/><path style="opacity:1" fill="#afafb0" d="M214.5 233.5c-.328 11.845.005 23.512 1 35a83.084 83.084 0 0 0-8 7.5 18.991 18.991 0 0 1-8 1.5 41.541 41.541 0 0 1-8 1v-11a92.425 92.425 0 0 0 15-2 20.2 20.2 0 0 1 1.5 6c.324-2.069 1.158-2.402 2.5-1a204.664 204.664 0 0 0 .5-35l-1.5-3c2.079-2.48 3.745-2.147 5 1z"/><path style="opacity:1" fill="#a7a7a9" d="M77.5 266.5a76.441 76.441 0 0 1 1.5 11c.498-3.317.665-6.65.5-10l12 2v10h-7c-6.82-1.4-13.82-2.567-21-3.5-5.255-3.251-9.922-7.251-14-12a2.429 2.429 0 0 1 2-.5c1.624-.14 2.79.527 3.5 2a717.269 717.269 0 0 1 1.5-34h4a338.405 338.405 0 0 1-1 36.5c1.27.9 2.27 2.066 3 3.5a9.864 9.864 0 0 0 1-6c4.64.627 9.308.96 14 1z"/><path style="opacity:1" fill="#adadaf" d="M186.5 280.5h-5v-11a41.541 41.541 0 0 0 8-1v11c-1.291-.237-2.291.096-3 1z"/><path style="opacity:1" fill="#c0c1bf" d="M216.5 275.5c.073 1.527-.594 2.527-2 3-.073-1.527.594-2.527 2-3z"/><path style="opacity:1" fill="#c2c2c3" d="M214.5 278.5c-1.159 1.75-2.826 2.75-5 3 1.159-1.75 2.826-2.75 5-3z"/><path style="opacity:1" fill="#abaaac" d="M82.5 279.5c2.67 1.618 5.67 2.285 9 2a60.94 60.94 0 0 1-.5 11 378.8 378.8 0 0 1-16.5-8 59.4 59.4 0 0 0-7-5.5c4.978.051 9.978.218 15 .5z"/><path style="opacity:1" fill="#08418c" d="M142.5 278.5a10.098 10.098 0 0 0 1.5 6c.893 1.211 1.726 1.211 2.5 0a741.86 741.86 0 0 1 9.5-30 18.924 18.924 0 0 1 3-5c.5 16.33.667 32.663.5 49-16.004 2.666-32.004 2.666-48 0-1.039-22.372-1.039-45.538 0-69.5a9.454 9.454 0 0 0 1.5-2.5l1 9c1.269 4.944 3.269 5.278 6 1a52.141 52.141 0 0 1 1.5-10 250.94 250.94 0 0 0 2.5 11c1.913 2.456 3.579 2.122 5-1 .498-3.317.665-6.65.5-10h3c-.447 4.551.219 8.884 2 13 4.296-3.186 6.13-7.519 5.5-13 2.627 17.217 5.46 17.217 8.5 0 3.191 17.291 6.024 17.291 8.5 0 1.117 1.449 1.784 3.116 2 5 .499 5.323.666 10.656.5 16h-12a6.846 6.846 0 0 0 1 4 186.467 186.467 0 0 0-3.5 13 278.863 278.863 0 0 1-8-17l-9 18-3.5-13.5c.259-1.261.926-2.261 2-3-4.135-1.431-8.468-1.931-13-1.5l11 38a294.803 294.803 0 0 0 11.5-20 262.015 262.015 0 0 0 6.5 13z"/><path style="opacity:1" fill="#c99c04" d="M142.5 278.5a63.13 63.13 0 0 0-7-17 284.543 284.543 0 0 0-10.5 20 254.23 254.23 0 0 1-8.5-32h7a139.56 139.56 0 0 0 2.5 19c.414.457.914.791 1.5 1 2.73-5.793 5.73-11.46 9-17 3.102 4.543 5.436 9.543 7 15 .502 1.021 1.168 1.188 2 .5a62.988 62.988 0 0 0 4-18.5c2.357-.163 4.69.003 7 .5a164.758 164.758 0 0 0-10.5 30.5l-1 2c-.608-1.566-1.442-2.9-2.5-4z"/><path style="opacity:1" fill="#ababac" d="M201.5 279.5a89.378 89.378 0 0 1-19 11c-1.134-2.466-1.301-5.133-.5-8a36.354 36.354 0 0 0 4.5-2c4.993-.416 9.993-.749 15-1z"/><path style="opacity:1" fill="#dcdbdb" d="M207.5 282.5c0 2-1 3-3 3a6.547 6.547 0 0 1 3-3z"/><path style="opacity:1" fill="#cecfcf" d="M202.5 286.5c-.473 1.406-1.473 2.073-3 2 .473-1.406 1.473-2.073 3-2z"/><path style="opacity:1" fill="#e6e6e7" d="M199.5 288.5c-.473 1.406-1.473 2.073-3 2 .473-1.406 1.473-2.073 3-2z"/><path style="opacity:1" fill="#c2c3c1" d="M77.5 289.5c1.527-.073 2.527.594 3 2-1.527.073-2.527-.594-3-2z"/><path style="opacity:1" fill="#dfdfe0" d="M196.5 290.5c-.473 1.406-1.473 2.073-3 2 .473-1.406 1.473-2.073 3-2z"/><path style="opacity:1" fill="#c1c2c2" d="M80.5 291.5c1.653.16 2.986.826 4 2-1.88.271-3.213-.396-4-2z"/><path style="opacity:1" fill="#c5c7c6" d="M193.5 292.5c-2.292 1.767-4.958 2.767-8 3 2.292-1.767 4.958-2.767 8-3z"/><path style="opacity:1" fill="#b7b8b8" d="M107.5 301.5c2.873.302 5.539.969 8 2-3.053.389-5.72-.277-8-2z"/><path style="opacity:1" fill="#c6c7c6" d="M115.5 303.5c3.622-.178 6.956.489 10 2-3.578-.049-6.911-.715-10-2z"/><path style="opacity:1" fill="#dddedd" d="M162.5 302.5a264.801 264.801 0 0 1-12 4h-15v-1a89.644 89.644 0 0 0 27-3z"/></svg>