<svg xmlns="http://www.w3.org/2000/svg" width="748.09" height="791.22" viewBox="0 0 701.334 741.769"><path style="fill:gold;fill-opacity:1;fill-rule:evenodd;stroke:none;stroke-width:11;stroke-opacity:1" d="m16.698 31.264 13.398 416.624c7.415 175.25 153.92 314.046 331.589 314.144 177.51-.215 324.07-139.061 331.59-314.144l13.397-416.624h-344.98z" transform="translate(-11.018 -25.764)"/><g style="fill:#000;stroke:#fff;stroke-width:.92897379;stroke-opacity:1"><path style="opacity:1;fill:#000;fill-opacity:1;fill-rule:nonzero;stroke:#fff;stroke-width:3.70489359;stroke-linecap:round;stroke-linejoin:round;stroke-miterlimit:4;stroke-dasharray:none;stroke-dashoffset:0;stroke-opacity:1" d="m-203.77 141.43-21.043 36.446h-42.084l-21.042-36.446 21.042-36.446h42.084z" transform="matrix(.93429 0 0 .7018 763.894 -41.668)"/><path style="opacity:1;fill:#000;fill-opacity:1;fill-rule:nonzero;stroke:#fff;stroke-width:4.57126427;stroke-linecap:round;stroke-linejoin:round;stroke-miterlimit:4;stroke-dasharray:none;stroke-dashoffset:0;stroke-opacity:1" d="m-203.77 141.43-21.043 36.446h-42.084l-21.042-36.446 21.042-36.446h42.084z" transform="matrix(.7697 0 0 .55956 723.429 -21.552)"/></g><g style="stroke:#fff;stroke-width:.92897379;stroke-opacity:1"><path style="opacity:1;fill:none;fill-opacity:1;fill-rule:nonzero;stroke:#fff;stroke-width:3.70489359;stroke-linecap:round;stroke-linejoin:round;stroke-miterlimit:4;stroke-dasharray:none;stroke-dashoffset:0;stroke-opacity:1" d="m-203.77 141.43-21.043 36.446h-42.084l-21.042-36.446 21.042-36.446h42.084z" transform="matrix(.93429 0 0 .7018 763.894 93.18)"/><path style="opacity:1;fill:none;fill-opacity:1;fill-rule:nonzero;stroke:#fff;stroke-width:4.57126427;stroke-linecap:round;stroke-linejoin:round;stroke-miterlimit:4;stroke-dasharray:none;stroke-dashoffset:0;stroke-opacity:1" d="m-203.77 141.43-21.043 36.446h-42.084l-21.042-36.446 21.042-36.446h42.084z" transform="matrix(.7697 0 0 .55956 723.429 113.295)"/></g><path d="M467.586 143.335v116.372h39.319V143.335z" style="fill:#000;fill-rule:evenodd;stroke:#fff;stroke-width:2.78692126;stroke-linecap:butt;stroke-linejoin:round;stroke-miterlimit:4;stroke-dasharray:none;stroke-opacity:1" transform="matrix(1 0 0 1.15876 46.95 -82.926)"/><path d="M447.927 121.262v116.372l19.66 22.073V143.335zM526.564 121.262v116.372l-19.66 22.073V143.335z" style="fill:#000;fill-rule:evenodd;stroke:#fff;stroke-width:2.78692126;stroke-linecap:butt;stroke-linejoin:round;stroke-miterlimit:4;stroke-dasharray:none;stroke-opacity:1" transform="matrix(1 0 0 1.15876 46.95 -82.926)"/><path d="M472.19 148.033V255.01H502.3V148.033zM451.987 132.708v102.704l11.54 12.85V145.558zM522.504 132.708v102.704l-11.54 12.85V145.558z" style="fill:none;fill-rule:evenodd;stroke:#fff;stroke-width:2.78692126;stroke-linecap:butt;stroke-linejoin:round;stroke-miterlimit:4;stroke-dasharray:none;stroke-opacity:1" transform="matrix(1 0 0 1.15876 46.95 -82.926)"/><path style="fill:red;fill-rule:evenodd;stroke:#000;stroke-width:11;stroke-linecap:butt;stroke-linejoin:round;stroke-miterlimit:4;stroke-dasharray:none;stroke-opacity:1;fill-opacity:1" d="m5.68 5.5 4.3 133.75c12.437 4.558 25.363 7.99 38.01 12.004 19.69 6.25 39.535 14.427 53.844 29.326 14.305 14.895 21.635 34.95 28.984 54.25 7.35 19.3 15.593 39.187 31.051 52.88 15.47 13.705 36.201 19.48 56.137 24.929 19.936 5.448 40.652 11.41 55.9 25.359 15.249 13.95 23.026 34.056 30.223 53.43 7.197 19.373 14.789 39.511 29.812 53.703 15.013 14.181 35.556 20.626 55.432 26.232 19.876 5.607 40.501 11.127 56.607 24.053 16.11 12.93 26.018 31.971 33.99 51.027 7.973 19.057 14.586 38.919 26.046 56.106 11.972 17.956 29.088 32.44 48.777 41.277a114.722 114.722 0 0 0 19.238 6.64c42.862-38.605 75.511-88.148 93.336-144.228-15.854-8.898-29.602-21.548-39.69-36.677-11.459-17.187-18.071-37.05-26.044-56.106-7.973-19.056-17.88-38.098-33.99-51.027-16.107-12.926-36.732-18.446-56.608-24.053-19.876-5.607-40.417-12.053-55.43-26.234-15.023-14.192-22.617-34.328-29.814-53.702-7.197-19.373-14.972-39.48-30.22-53.43-15.25-13.95-35.967-19.91-55.903-25.359-19.936-5.448-40.667-11.223-56.137-24.927-15.458-13.695-23.702-33.583-31.05-52.883-7.35-19.3-14.68-39.355-28.985-54.25-14.309-14.899-34.155-23.075-53.844-29.324-13.343-4.236-26.997-7.82-40.058-12.766H5.68z"/><path style="fill:#fff;fill-rule:evenodd;stroke:#000;stroke-width:11;stroke-linecap:butt;stroke-linejoin:round;stroke-miterlimit:4;stroke-dasharray:none;stroke-opacity:1" d="M191.356 88.439 78.839 65.074 112.1 175.073l112.519 23.366-33.263-110zm188.055 172.039-112.517-23.364 33.261 109.998 112.519 23.366-33.263-110zm188.055 172.04L454.95 409.152l33.262 109.998 112.518 23.366-33.263-110z" transform="translate(-11.018 -25.764)"/><path style="fill:none;fill-rule:evenodd;stroke:#000;stroke-width:11;stroke-opacity:1" d="m16.698 31.264 13.398 416.624c7.415 175.25 153.92 314.046 331.589 314.144 177.51-.215 324.07-139.061 331.59-314.144l13.397-416.624h-344.98z" transform="translate(-11.018 -25.764)"/><path style="opacity:1;fill:none;fill-opacity:1;fill-rule:nonzero;stroke:#000;stroke-width:15;stroke-linecap:round;stroke-linejoin:round;stroke-miterlimit:4;stroke-dasharray:none;stroke-dashoffset:0;stroke-opacity:1" d="M255.723 447.475a177.987 126.612 0 0 0-48.767 86.844 177.987 126.612 0 0 0 48.617 86.843 177.987 126.612 0 0 0 48.767-86.843 177.987 126.612 0 0 0-48.617-86.844z" transform="translate(-11.018 -25.764)"/><path style="opacity:1;fill:none;fill-opacity:1;fill-rule:nonzero;stroke:#000;stroke-width:15;stroke-linecap:round;stroke-linejoin:round;stroke-miterlimit:4;stroke-dasharray:none;stroke-dashoffset:0;stroke-opacity:1" d="M357.298 624.48a126.612 177.987 30 0 0-50.825-85.655 126.612 177.987 30 0 0-99.517-1.319 126.612 177.987 30 0 0 50.825 85.656 126.612 177.987 30 0 0 99.517 1.318z" transform="translate(-11.018 -25.764)"/><path style="opacity:1;fill:none;fill-opacity:1;fill-rule:nonzero;stroke:#000;stroke-width:15;stroke-linecap:round;stroke-linejoin:round;stroke-miterlimit:4;stroke-dasharray:none;stroke-dashoffset:0;stroke-opacity:1" d="M153.998 624.48a177.987 126.612 60 0 1 50.825-85.655 177.987 126.612 60 0 1 99.517-1.319 177.987 126.612 60 0 1-50.825 85.656 177.987 126.612 60 0 1-99.517 1.318z" transform="translate(-11.018 -25.764)"/><g><g style="stroke:#fff;stroke-opacity:1;fill:#000"><path style="opacity:1;fill:#000;fill-opacity:1;fill-rule:nonzero;stroke:#fff;stroke-width:3.98815727;stroke-linecap:round;stroke-linejoin:round;stroke-miterlimit:4;stroke-dasharray:none;stroke-dashoffset:0;stroke-opacity:1" d="m-203.77 141.43-21.043 36.446h-42.084l-21.042-36.446 21.042-36.446h42.084z" transform="matrix(.93429 0 0 .60564 705.926 9.842)"/><path style="opacity:1;fill:#000;fill-opacity:1;fill-rule:nonzero;stroke:#fff;stroke-width:4.92076778;stroke-linecap:round;stroke-linejoin:round;stroke-miterlimit:4;stroke-dasharray:none;stroke-dashoffset:0;stroke-opacity:1" d="m-203.77 141.43-21.043 36.446h-42.084l-21.042-36.446 21.042-36.446h42.084z" transform="matrix(.7697 0 0 .4829 665.462 27.202)"/></g><g style="stroke:#fff;stroke-opacity:1"><path style="opacity:1;fill:none;fill-opacity:1;fill-rule:nonzero;stroke:#fff;stroke-width:3.98815727;stroke-linecap:round;stroke-linejoin:round;stroke-miterlimit:4;stroke-dasharray:none;stroke-dashoffset:0;stroke-opacity:1" d="m-203.77 141.43-21.043 36.446h-42.084l-21.042-36.446 21.042-36.446h42.084z" transform="matrix(.93429 0 0 .60564 705.926 126.214)"/><path style="opacity:1;fill:none;fill-opacity:1;fill-rule:nonzero;stroke:#fff;stroke-width:4.92076778;stroke-linecap:round;stroke-linejoin:round;stroke-miterlimit:4;stroke-dasharray:none;stroke-dashoffset:0;stroke-opacity:1" d="m-203.77 141.43-21.043 36.446h-42.084l-21.042-36.446 21.042-36.446h42.084z" transform="matrix(.7697 0 0 .4829 665.462 143.574)"/></g><path d="M467.586 143.335v116.372h39.319V143.335z" style="fill:#000;fill-rule:evenodd;stroke:#fff;stroke-width:3;stroke-linecap:butt;stroke-linejoin:round;stroke-miterlimit:4;stroke-dasharray:none;stroke-opacity:1" transform="translate(-11.018 -25.764)"/><path d="M447.927 121.262v116.372l19.66 22.073V143.335zM526.564 121.262v116.372l-19.66 22.073V143.335z" style="fill:#000;fill-rule:evenodd;stroke:#fff;stroke-width:3;stroke-linecap:butt;stroke-linejoin:round;stroke-miterlimit:4;stroke-dasharray:none;stroke-opacity:1" transform="translate(-11.018 -25.764)"/><path d="M472.19 148.033V255.01H502.3V148.033z" style="fill:none;fill-rule:evenodd;stroke:#fff;stroke-width:3;stroke-linecap:butt;stroke-linejoin:round;stroke-miterlimit:4;stroke-dasharray:none;stroke-opacity:1" transform="translate(-11.018 -25.764)"/><path d="M451.987 132.708v102.704l11.54 12.85V145.558zM522.504 132.708v102.704l-11.54 12.85V145.558z" style="fill:none;fill-rule:evenodd;stroke:#fff;stroke-width:2.99999976;stroke-linecap:butt;stroke-linejoin:round;stroke-miterlimit:4;stroke-dasharray:none;stroke-opacity:1" transform="translate(-11.018 -25.764)"/></g><g><g style="fill:#000;stroke:#fff;stroke-width:.95375979;stroke-opacity:1"><path style="opacity:1;fill:#000;fill-opacity:1;fill-rule:nonzero;stroke:#fff;stroke-width:3.80374408;stroke-linecap:round;stroke-linejoin:round;stroke-miterlimit:4;stroke-dasharray:none;stroke-dashoffset:0;stroke-opacity:1" d="m-203.77 141.43-21.043 36.446h-42.084l-21.042-36.446 21.042-36.446h42.084z" transform="matrix(.93429 0 0 .6658 827.417 36.767)"/><path style="opacity:1;fill:#000;fill-opacity:1;fill-rule:nonzero;stroke:#fff;stroke-width:4.69323063;stroke-linecap:round;stroke-linejoin:round;stroke-miterlimit:4;stroke-dasharray:none;stroke-dashoffset:0;stroke-opacity:1" d="m-203.77 141.43-21.043 36.446h-42.084l-21.042-36.446 21.042-36.446h42.084z" transform="matrix(.7697 0 0 .53086 786.952 55.85)"/></g><g style="stroke:#fff;stroke-width:.95375979;stroke-opacity:1"><path style="opacity:1;fill:none;fill-opacity:1;fill-rule:nonzero;stroke:#fff;stroke-width:3.80374408;stroke-linecap:round;stroke-linejoin:round;stroke-miterlimit:4;stroke-dasharray:none;stroke-dashoffset:0;stroke-opacity:1" d="m-203.77 141.43-21.043 36.446h-42.084l-21.042-36.446 21.042-36.446h42.084z" transform="matrix(.93429 0 0 .6658 827.417 164.696)"/><path style="opacity:1;fill:none;fill-opacity:1;fill-rule:nonzero;stroke:#fff;stroke-width:4.69323063;stroke-linecap:round;stroke-linejoin:round;stroke-miterlimit:4;stroke-dasharray:none;stroke-dashoffset:0;stroke-opacity:1" d="m-203.77 141.43-21.043 36.446h-42.084l-21.042-36.446 21.042-36.446h42.084z" transform="matrix(.7697 0 0 .53086 786.952 183.78)"/></g><path d="M467.586 143.335v116.372h39.319V143.335z" style="fill:#000;fill-rule:evenodd;stroke:#fff;stroke-width:2.86127925;stroke-linecap:butt;stroke-linejoin:round;stroke-miterlimit:4;stroke-dasharray:none;stroke-opacity:1" transform="matrix(1 0 0 1.09931 110.473 -2.375)"/><path d="M447.927 121.262v116.372l19.66 22.073V143.335zM526.564 121.262v116.372l-19.66 22.073V143.335z" style="fill:#000;fill-rule:evenodd;stroke:#fff;stroke-width:2.86127925;stroke-linecap:butt;stroke-linejoin:round;stroke-miterlimit:4;stroke-dasharray:none;stroke-opacity:1" transform="matrix(1 0 0 1.09931 110.473 -2.375)"/><path d="M472.19 148.033V255.01H502.3V148.033zM451.987 132.708v102.704l11.54 12.85V145.558zM522.504 132.708v102.704l-11.54 12.85V145.558z" style="fill:none;fill-rule:evenodd;stroke:#fff;stroke-width:2.86127925;stroke-linecap:butt;stroke-linejoin:round;stroke-miterlimit:4;stroke-dasharray:none;stroke-opacity:1" transform="matrix(1 0 0 1.09931 110.473 -2.375)"/></g></svg>