<svg xmlns="http://www.w3.org/2000/svg" width="300" height="350" style="shape-rendering:geometricPrecision;text-rendering:geometricPrecision;image-rendering:optimizeQuality;fill-rule:evenodd;clip-rule:evenodd"><path style="opacity:1" fill="#444c4d" d="M292.5 132.5V5.5H5.5c.331 28.505-.002 56.838-1 85v-86h289a4095.62 4095.62 0 0 1-1 128z"/><path style="opacity:1" fill="#140c0b" d="M292.5 132.5c.167 27.002 0 54.002-.5 81a94.621 94.621 0 0 1-3.5 19c-.656-.778-1.489-1.444-2.5-2l-1.5 1c.985 1.598 1.151 3.265.5 5-.974-2.378-1.641-2.044-2 1a2.428 2.428 0 0 1-.5-2v-3c.904-.709 1.237-1.709 1-3-90.168-.333-180.168.001-270 1v3c.156 4.264-.51 8.264-2 12-3.237-8.619-5.404-17.619-6.5-27-.5-42.665-.667-85.332-.5-128a1806.842 1806.842 0 0 0 1-85h287v127z"/><path style="opacity:1" fill="#c61812" d="M99.5 98.5a1892.847 1892.847 0 0 1-1-87h-40a380.842 380.842 0 0 1-1 39v-40h42v88z"/><path style="opacity:1" fill="#c1100b" d="M286.5 52.5v-41h-43v41a441.585 441.585 0 0 1-1-42h45a441.585 441.585 0 0 1-1 42z"/><path style="opacity:1" fill="#f20b04" d="M193.5 10.5v41h-43v-41h43z"/><path style="opacity:1" fill="#ef0903" d="M286.5 52.5h-43v-41h43v41z"/><path style="opacity:1" fill="#dfe0e3" d="M196.5 10.5h44v42h-44v-42z"/><path style="opacity:1" fill="#be1310" d="M193.5 10.5a441.585 441.585 0 0 1 1 42c-14.843.33-29.51-.004-44-1h43v-41z"/><path style="opacity:1" fill="#b3100c" d="M196.5 55.5a484.614 484.614 0 0 1 44-1v42c-14.843.33-29.51-.004-44-1h43v-40h-43z"/><path style="opacity:1" fill="#ef0903" d="M196.5 55.5h43v40h-43v-40z"/><path style="opacity:1" fill="#dddfe3" d="M150.5 54.5h44a420.768 420.768 0 0 1-1 41h-43v-41z"/><path style="opacity:1" fill="#bab8bb" d="M55.5 39.5v57a506.865 506.865 0 0 1-45-1h44c-.33-18.84.003-37.508 1-56z"/><path style="opacity:1" fill="#c4c3c4" d="M101.5 95.5h45c.308-27.365-.026-54.699-1-82a24.939 24.939 0 0 1-7-.5l6-1a882.407 882.407 0 0 0-42-.5c.331 27.838-.002 55.505-1 83v-84h46v86a529.612 529.612 0 0 1-46-1z"/><path style="opacity:1" fill="#e0e1e5" d="M101.5 95.5v-1a1723.113 1723.113 0 0 0 1-83c14.004-.167 28.004 0 42 .5l-6 1c2.31.497 4.643.663 7 .5a1747.878 1747.878 0 0 1 1 82h-45z"/><path style="opacity:1" fill="#dddfe2" d="M242.5 95.5v-7c.995-10.82 1.328-21.82 1-33h43v40h-44z"/><path style="opacity:1" fill="#e1e3e6" d="M55.5 39.5a784.618 784.618 0 0 0-1 56h-44v-85h45v29z"/><path style="opacity:1" fill="#a4a3a5" d="M242.5 95.5h44v-40h-43c.328 11.18-.005 22.18-1 33v-34h45v42a506.865 506.865 0 0 1-45-1z"/><path style="opacity:1" fill="#f00904" d="M99.5 98.5h47v41a576.628 576.628 0 0 0-48 1v87h-41v-88h-47v-41h47v-48a380.842 380.842 0 0 0 1-39h40c-.331 29.172.002 58.171 1 87z"/><path style="opacity:1" fill="#646a6d" d="M150.5 54.5v41h43a484.614 484.614 0 0 1-44 1 441.585 441.585 0 0 1 1-42z"/><path style="opacity:1" fill="#f20903" d="M150.5 98.5h43v41h-43v-41z"/><path style="opacity:1" fill="#ed0702" d="M242.5 98.5h44v41h-44v-41z"/><path style="opacity:1" fill="#a0100d" d="M146.5 98.5a441.579 441.579 0 0 1 1 42h-49a576.628 576.628 0 0 1 48-1v-41z"/><path style="opacity:1" fill="#780708" d="M150.5 98.5v41h43a484.723 484.723 0 0 1-44 1 441.579 441.579 0 0 1 1-42z"/><path style="opacity:1" fill="#767174" d="M196.5 98.5a484.614 484.614 0 0 1 44-1v43h-45a441.579 441.579 0 0 1 1-42z"/><path style="opacity:1" fill="#dfdfe3" d="M196.5 98.5h43v41h-43v-41z"/><path style="opacity:1" fill="#710e0d" d="M242.5 98.5a506.865 506.865 0 0 1 45-1v43a507.055 507.055 0 0 1-45-1h44v-41h-44z"/><path style="opacity:1" fill="#6a0e0b" d="M195.5 142.5a507.055 507.055 0 0 1 45-1 441.579 441.579 0 0 1-1 42v-41h-44z"/><path style="opacity:1" fill="#ed0803" d="M195.5 142.5h44v41h-44v-41z"/><path style="opacity:1" fill="#dadee0" d="M242.5 142.5h44v41h-44v-41z"/><path style="opacity:1" fill="#e0e1e5" d="M193.5 142.5v41h-43v-41h43z"/><path style="opacity:1" fill="#797778" d="M193.5 142.5h-43v41h43a484.723 484.723 0 0 1-44 1v-43c14.843-.329 29.51.004 44 1z"/><path style="opacity:1" fill="#8e0c09" d="M286.5 186.5h-44v41a441.579 441.579 0 0 1-1-42 507.055 507.055 0 0 1 45 1z"/><path style="opacity:1" fill="#940c09" d="M10.5 139.5h47v88a1892.863 1892.863 0 0 1-1-87c-15.51.33-30.842-.004-46-1z"/><path style="opacity:1" fill="#e1e2e5" d="M54.5 227.5h-42c.237-1.291-.096-2.291-1-3a957.24 957.24 0 0 1-2-82h45v85z"/><path style="opacity:1" fill="#605a5a" d="M195.5 186.5a507.055 507.055 0 0 1 45-1 441.579 441.579 0 0 1-1 42v-41h-44z"/><path style="opacity:1" fill="#686565" d="M146.5 227.5v-85h-45v85a1850.088 1850.088 0 0 1-1-86h47c.331 28.838-.002 57.505-1 86z"/><path style="opacity:1" fill="#dfe2e5" d="M146.5 227.5h-45v-85h45v85z"/><path style="opacity:1" fill="#dfe0e3" d="M195.5 186.5h44v41h-44v-41z"/><path style="opacity:1" fill="#e60702" d="M286.5 186.5a284.801 284.801 0 0 1-2 41h-42v-41h44z"/><path style="opacity:1" fill="#bf0f0b" d="M149.5 185.5h44v42h-44v-42z"/><path style="opacity:1" fill="#eb0802" d="M150.5 186.5h42v40h-42v-40z"/><path style="opacity:1" fill="#3f4143" d="M11.5 224.5c.904.709 1.237 1.709 1 3h42a462.905 462.905 0 0 1-43 1v-4z"/><path style="opacity:1" fill="#340806" d="M13.5 230.5c89.832-.999 179.832-1.333 270-1 .237 1.291-.096 2.291-1 3a9048.442 9048.442 0 0 0-269-2z"/><path style="opacity:1" fill="#e30803" d="M13.5 230.5c90.006-.664 179.673.003 269 2v3c-18.22 55.146-55.887 88.646-113 100.5-32.126 5.34-62.126-.16-90-16.5a34.094 34.094 0 0 0 7-2 7.248 7.248 0 0 0-2-2.5l1-1-4-3c.556-.383.89-.883 1-1.5 54.346 33.736 103.013 26.903 146-20.5 6.264-2.554 6.597-5.72 1-9.5l9 2a8.43 8.43 0 0 0 .5 4c1.779-.979 3.445-.646 5 1 1.754-1.75 3.921-2.417 6.5-2l3-9c1.098-1.115 2.265-1.115 3.5 0 3.101-1.209 3.268-2.875.5-5 .59-1.299 1.59-2.132 3-2.5l-2-1c1.725-.865 3.392-1.531 5-2a3.647 3.647 0 0 1-1-1.5c2.305-2.481 2.305-4.814 0-7 .346-1.196.846-1.196 1.5 0a20.431 20.431 0 0 1 1.5-5.5c-.84-1.666-.34-1.833 1.5-.5 1.688-.825 1.855-1.825.5-3l4-2c-4.621-4.573-3.621-7.073 3-7.5a20.79 20.79 0 0 1-1-2.5c-1.943 2.026-4.109 2.026-6.5 0-1.147.958-2.147.625-3-1-2.462.412-4.795.412-7 0-4.144.816-4.644 2.649-1.5 5.5a4.934 4.934 0 0 1-3 .5c.219-1.175-.114-2.175-1-3a12.403 12.403 0 0 0-2.5 4c-2.176-5.058-5.509-6.391-10-4-.442-5.506-2.942-6.506-7.5-3-1.901 3.878-3.734 3.878-5.5 0l-4 2a126.194 126.194 0 0 0-9 0c-.739-1.074-1.739-1.741-3-2a34.802 34.802 0 0 1-6 3l-1-1c-1.807 2.269-1.307 4.103 1.5 5.5-1.22 1.63-3.22 2.63-6 3-.119 1.281.381 2.448 1.5 3.5a6.293 6.293 0 0 1 3-1c3.09.893 5.923 1.559 8.5 2 1.231 1.151 1.231 2.317 0 3.5a12.93 12.93 0 0 1-5 .5c-.149-3.623-1.316-3.957-3.5-1l-1.5-1c2.566-3.508 2.066-3.841-1.5-1a3.647 3.647 0 0 0-1.5-1l-2 4c-3.941-.787-3.941-2.621 0-5.5-6.451-2.197-13.451-3.364-21-3.5-.221 2.567-.888 4.901-2 7 .644-4.885-1.356-8.052-6-9.5a57.025 57.025 0 0 0-17-1.5c4.147-.825 8.481-1.325 13-1.5l-6-1a42.769 42.769 0 0 0 9-1.5c-1.412-1.306-3.079-2.14-5-2.5a3.647 3.647 0 0 0 1-1.5l-74-1c-25.01 0-49.676.667-74 2h-1v-3z"/><path style="opacity:1" fill="#e90904" d="M150.5 240.5c-4.261.045-8.095 1.378-11.5 4-1.619 5.532-.119 9.866 4.5 13 2.942 4.611 6.609 8.611 11 12-8.492 10.169-18.159 18.835-29 26a113.368 113.368 0 0 1-18-9 14.72 14.72 0 0 1-1.5-5 19.552 19.552 0 0 1-3.5-4c3.241-.537 4.241-2.204 3-5a6.802 6.802 0 0 1 3-1.5c-1.544-.29-2.877-.956-4-2a49.226 49.226 0 0 1 14 0c-1.858 2.489-2.858 4.989-3 7.5 1.521.38 3.187.546 5 .5a11.333 11.333 0 0 1 1.5 3.5c.667-1.333 1.333-1.333 2 0l.5-1.5c-.922-3.13-.922-6.13 0-9l1-.5a32.065 32.065 0 0 0 2.5 4c2.945-.276 6.111-.776 9.5-1.5l-5-1c1.104-1.131.771-1.965-1-2.5l-1 2c-4.302-1.758-5.635-4.758-4-9a40.739 40.739 0 0 1-3.5-8c-2.305.079-4.805.246-7.5.5a18.621 18.621 0 0 1 3 8.5c-4.663 1.124-7.497-.543-8.5-5a10.258 10.258 0 0 1-1.5 4c-.697-1.885-1.697-2.218-3-1-1.196-.346-1.196-.846 0-1.5-1.595.617-2.928.284-4-1a10.91 10.91 0 0 0 5-4.5 28.043 28.043 0 0 1 5-1.5c-1.333-1-1.333-2 0-3 1.535-.496 3.035-.33 4.5.5 1.581-2.347 2.914-2.347 4 0 1.84-3.388.673-5.388-3.5-6-1.844 2.627-3.177 2.46-4-.5.405-.945 1.072-1.612 2-2a14.51 14.51 0 0 1-4.5-4.5 4.457 4.457 0 0 1-1.5 2 26.793 26.793 0 0 1-6.5-3 361.103 361.103 0 0 0-20.5 0c-3.42-2.383-6.586-2.05-9.5 1-1.925-2.79-3.925-3.123-6-1-2.133-.853-4.133-1.186-6-1-2.124.727-4.29 1.394-6.5 2-4.888-2.929-10.055-3.262-15.5-1-3.039-1.466-5.872-1.133-8.5 1-2.528-.998-2.528-1.831 0-2.5-2.87-.377-5.37.456-7.5 2.5l-1-1a15.28 15.28 0 0 1-1.5 4.5c3.227-.936 4.227.231 3 3.5 1.362 3.611 3.362 6.778 6 9.5-.55 1.398-.884 2.732-1 4a7.292 7.292 0 0 0 3 2c-.55 1.398-.884 2.732-1 4 1.537 1.11 2.203 2.61 2 4.5 1.624.14 2.79-.527 3.5-2l1.5 1.5c-2.954 4.284-1.954 7.451 3 9.5l-1 2 5 2c1.14.925 1.14 1.759 0 2.5l2 2c2.871.118 5.538.784 8 2-.983 2.705-.15 4.872 2.5 6.5 1.367-1.024 2.2-.524 2.5 1.5-.405.945-1.072 1.612-2 2 2.667.667 5.333.667 8 0a6.802 6.802 0 0 1-3-1.5c1.14-.925 1.14-1.759 0-2.5 2.178-.442 2.845-1.442 2-3 1.546-1.44 2.379-3.273 2.5-5.5 1.296 2.282 1.796 4.615 1.5 7a6.807 6.807 0 0 0 1.5-3c1.356.88 2.856 1.214 4.5 1-3.843 5.637-3.843 11.137 0 16.5a25.78 25.78 0 0 0 8 2c.556.383.89.883 1 1.5-.11.617-.444 1.117-1 1.5l4 3-1 1a7.248 7.248 0 0 1 2 2.5 34.094 34.094 0 0 1-7 2c-33.764-19.442-55.43-48.109-65-86 24.324-1.333 48.99-2 74-2l74 1a3.647 3.647 0 0 1-1 1.5c1.921.36 3.588 1.194 5 2.5a42.769 42.769 0 0 1-9 1.5l6 1c-4.519.175-8.853.675-13 1.5z"/><path style="opacity:1" fill="#eb0702" d="M229.5 279.5a11.596 11.596 0 0 0-7-.5l-4 7a266.655 266.655 0 0 1-24 10c-1.566.765-2.899.598-4-.5-.763-.768-1.763-1.268-3-1.5-7.5-8.833-15.667-17-24.5-24.5a2.428 2.428 0 0 1-.5-2c3.473-2.137 5.806-5.137 7-9 2.072-1.85 3.405-4.183 4-7 1.112-2.099 1.779-4.433 2-7 7.549.136 14.549 1.303 21 3.5-3.941 2.879-3.941 4.713 0 5.5l2-4a3.647 3.647 0 0 1 1.5 1c3.566-2.841 4.066-2.508 1.5 1l1.5 1c2.184-2.957 3.351-2.623 3.5 1a12.93 12.93 0 0 0 5-.5c1.231-1.183 1.231-2.349 0-3.5-2.577-.441-5.41-1.107-8.5-2a6.293 6.293 0 0 0-3 1c-1.119-1.052-1.619-2.219-1.5-3.5 2.78-.37 4.78-1.37 6-3-2.807-1.397-3.307-3.231-1.5-5.5l1 1a34.802 34.802 0 0 0 6-3c1.261.259 2.261.926 3 2 2.935-.107 5.935-.107 9 0l4-2c1.766 3.878 3.599 3.878 5.5 0 4.558-3.506 7.058-2.506 7.5 3 4.491-2.391 7.824-1.058 10 4a12.403 12.403 0 0 1 2.5-4c.886.825 1.219 1.825 1 3a4.934 4.934 0 0 0 3-.5c-3.144-2.851-2.644-4.684 1.5-5.5 2.205.412 4.538.412 7 0 .853 1.625 1.853 1.958 3 1 2.391 2.026 4.557 2.026 6.5 0 .236.747.57 1.58 1 2.5-6.621.427-7.621 2.927-3 7.5l-4 2c1.355 1.175 1.188 2.175-.5 3-1.84-1.333-2.34-1.166-1.5.5a20.431 20.431 0 0 0-1.5 5.5c-.654-1.196-1.154-1.196-1.5 0 2.305 2.186 2.305 4.519 0 7a3.647 3.647 0 0 0 1 1.5c-1.608.469-3.275 1.135-5 2l2 1c-1.41.368-2.41 1.201-3 2.5 2.768 2.125 2.601 3.791-.5 5-1.235-1.115-2.402-1.115-3.5 0l-3 9c-2.579-.417-4.746.25-6.5 2-1.555-1.646-3.221-1.979-5-1a8.43 8.43 0 0 1-.5-4l-9-2z"/><path style="opacity:1" fill="#160f0e" d="M288.5 232.5c-14.906 54.74-49.572 90.24-104 106.5-70.02 14.057-124.186-8.776-162.5-68.5a106.353 106.353 0 0 1-10.5-25c1.49-3.736 2.156-7.736 2-12h1c9.57 37.891 31.236 66.558 65 86 27.874 16.34 57.874 21.84 90 16.5 57.113-11.854 94.78-45.354 113-100.5a2.428 2.428 0 0 0 .5 2c.359-3.044 1.026-3.378 2-1 .651-1.735.485-3.402-.5-5l1.5-1c1.011.556 1.844 1.222 2.5 2z"/><path style="opacity:1" fill="#cc9322" d="M169.5 258.5a45.728 45.728 0 0 0-7 9 74320.851 74320.851 0 0 0-29 26l-1-.5a289.704 289.704 0 0 0 25-24.5c7.809-4.969 11.976-11.969 12.5-21-1.8-1.817-3.966-2.984-6.5-3.5-6-.667-12-.667-18 0-3.793 1.553-4.793 4.053-3 7.5l1 4c-6.188-6.524-4.855-11.024 4-13.5a64.218 64.218 0 0 1 16 0c3.048.606 5.548 2.106 7.5 4.5.81 4.19.31 8.19-1.5 12z"/><path style="opacity:1" fill="#2d130c" d="M143.5 257.5c4.112 4.453 8.778 8.12 14 11a289.704 289.704 0 0 1-25 24.5l1 .5c9.687-8.689 19.353-17.356 29-26a2.428 2.428 0 0 0 .5 2c8.833 7.5 17 15.667 24.5 24.5 1.237.232 2.237.732 3 1.5h-5c-6.582-9.585-14.582-17.918-24-25l-1 .5a829.64 829.64 0 0 1 24 24.5h-1c-7.979-7.645-15.979-15.312-24-23a760.736 760.736 0 0 0-24.5 22 8.43 8.43 0 0 0-.5 4l-2-1c1.195-1.85.529-2.85-2-3l-2 1a31.147 31.147 0 0 1 2 2c-.667 0-1 .333-1 1-.065 2.928-.732 5.595-2 8 .31-3.213-.023-6.213-1-9l-1-2c10.841-7.165 20.508-15.831 29-26-4.391-3.389-8.058-7.389-11-12z"/><path style="opacity:1" fill="#e60a04" d="M183.5 295.5c1.184 1.188 1.184 2.355 0 3.5-16.386 3.47-32.719 3.303-49-.5a8.43 8.43 0 0 1 .5-4 760.736 760.736 0 0 1 24.5-22c8.021 7.688 16.021 15.355 24 23z"/><path style="opacity:1" fill="#cf931c" d="M185.5 295.5h-1a829.64 829.64 0 0 0-24-24.5l1-.5c9.418 7.082 17.418 15.415 24 25z"/><path style="opacity:1" fill="#271811" d="M169.5 258.5c-1.194 3.863-3.527 6.863-7 9a45.728 45.728 0 0 1 7-9z"/><path style="opacity:1" fill="#cb8f1b" d="M143.5 255.5a34.482 34.482 0 0 0 8 6 172.07 172.07 0 0 1 6 7c-5.222-2.88-9.888-6.547-14-11v-2z"/><path style="opacity:1" fill="#2b180c" d="M142.5 251.5a6708.16 6708.16 0 0 0 9 10 34.482 34.482 0 0 1-8-6l-1-4z"/><path style="opacity:1" fill="#e60a04" d="M151.5 261.5a6708.16 6708.16 0 0 1-9-10c-.526-3.308.807-5.474 4-6.5 5-.667 10-.667 15 0 6.505.177 8.672 3.344 6.5 9.5-2.075 4.079-4.908 7.579-8.5 10.5-2.938-.411-5.605-1.578-8-3.5z"/><path style="opacity:1" fill="#2a150d" d="M157.5 268.5a172.07 172.07 0 0 0-6-7c2.395 1.922 5.062 3.089 8 3.5 3.592-2.921 6.425-6.421 8.5-10.5 2.172-6.156.005-9.323-6.5-9.5-5-.667-10-.667-15 0-3.193 1.026-4.526 3.192-4 6.5-1.793-3.447-.793-5.947 3-7.5 6-.667 12-.667 18 0 2.534.516 4.7 1.683 6.5 3.5-.524 9.031-4.691 16.031-12.5 21z"/><path style="opacity:1" fill="#31190e" d="M150.5 240.5a57.025 57.025 0 0 1 17 1.5c4.644 1.448 6.644 4.615 6 9.5-.595 2.817-1.928 5.15-4 7 1.81-3.81 2.31-7.81 1.5-12-1.952-2.394-4.452-3.894-7.5-4.5a64.218 64.218 0 0 0-16 0c-8.855 2.476-10.188 6.976-4 13.5v2c-4.619-3.134-6.119-7.468-4.5-13 3.405-2.622 7.239-3.955 11.5-4z"/><path style="opacity:1" fill="#ef0903" d="M102.5 277.5c-11.8-1.27-21.466 2.73-29 12-1.644.214-3.144-.12-4.5-1a6.807 6.807 0 0 1-1.5 3c.296-2.385-.204-4.718-1.5-7-.121 2.227-.954 4.06-2.5 5.5.845 1.558.178 2.558-2 3 1.14.741 1.14 1.575 0 2.5a6.802 6.802 0 0 0 3 1.5 16.242 16.242 0 0 1-8 0c.928-.388 1.595-1.055 2-2-.3-2.024-1.133-2.524-2.5-1.5-2.65-1.628-3.483-3.795-2.5-6.5-2.462-1.216-5.129-1.882-8-2l-2-2c1.14-.741 1.14-1.575 0-2.5l-5-2 1-2c-4.954-2.049-5.954-5.216-3-9.5l-1.5-1.5c-.71 1.473-1.876 2.14-3.5 2 .203-1.89-.463-3.39-2-4.5.116-1.268.45-2.602 1-4a7.292 7.292 0 0 1-3-2c.116-1.268.45-2.602 1-4-2.638-2.722-4.638-5.889-6-9.5 1.227-3.269.227-4.436-3-3.5a15.28 15.28 0 0 0 1.5-4.5l1 1c2.13-2.044 4.63-2.877 7.5-2.5-2.528.669-2.528 1.502 0 2.5 2.628-2.133 5.461-2.466 8.5-1 5.445-2.262 10.612-1.929 15.5 1 2.21-.606 4.376-1.273 6.5-2 1.867-.186 3.867.147 6 1 2.075-2.123 4.075-1.79 6 1 2.914-3.05 6.08-3.383 9.5-1a361.103 361.103 0 0 1 20.5 0 26.793 26.793 0 0 0 6.5 3 4.457 4.457 0 0 0 1.5-2 14.51 14.51 0 0 0 4.5 4.5c-.928.388-1.595 1.055-2 2 .823 2.96 2.156 3.127 4 .5 4.173.612 5.34 2.612 3.5 6-1.086-2.347-2.419-2.347-4 0-1.465-.83-2.965-.996-4.5-.5-1.333 1-1.333 2 0 3a28.043 28.043 0 0 0-5 1.5 10.91 10.91 0 0 1-5 4.5c1.072 1.284 2.405 1.617 4 1-1.196.654-1.196 1.154 0 1.5 1.303-1.218 2.303-.885 3 1a10.258 10.258 0 0 0 1.5-4c1.003 4.457 3.837 6.124 8.5 5a18.621 18.621 0 0 0-3-8.5c2.695-.254 5.195-.421 7.5-.5a40.739 40.739 0 0 0 3.5 8c-1.635 4.242-.302 7.242 4 9l1-2c1.771.535 2.104 1.369 1 2.5l5 1c-3.389.724-6.555 1.224-9.5 1.5a32.065 32.065 0 0 1-2.5-4l-1 .5c-.922 2.87-.922 5.87 0 9l-.5 1.5c-.667-1.333-1.333-1.333-2 0a11.333 11.333 0 0 0-1.5-3.5c-1.813.046-3.479-.12-5-.5.142-2.511 1.142-5.011 3-7.5a49.226 49.226 0 0 0-14 0c1.123 1.044 2.456 1.71 4 2a6.802 6.802 0 0 0-3 1.5c1.241 2.796.241 4.463-3 5z"/><path style="opacity:1" fill="#201615" d="M102.5 277.5a19.552 19.552 0 0 0 3.5 4 14.72 14.72 0 0 0 1.5 5 113.368 113.368 0 0 0 18 9l1 2a107.999 107.999 0 0 1-18-8c-.683.363-1.35.696-2 1a4.934 4.934 0 0 0-.5-3 23.423 23.423 0 0 0-2.5 6c-5.496 6.247-12.163 10.747-20 13.5 1.988.18 3.988.014 6-.5-1.1 1.058-2.434 1.892-4 2.5a185.427 185.427 0 0 0 28 14.5c6.168-4.495 10.835-10.162 14-17-1.78 7.292-5.78 13.126-12 17.5 1.319.195 2.653.028 4-.5-.086.996.248 1.829 1 2.5 25.65 6.027 49.983 2.693 73-10 .671-.986.671-2.153 0-3.5.958.453 1.792 1.119 2.5 2a2.428 2.428 0 0 0 .5-2c11.754-5.576 21.754-13.576 30-24a12.793 12.793 0 0 0-4.5-2 140.639 140.639 0 0 1-31.5 12 30.228 30.228 0 0 0 3 10l-2-1c-.82-2.312-1.653-4.646-2.5-7-.654-1.196-1.154-1.196-1.5 0a6.846 6.846 0 0 1 1 4c-.891-.761-1.558-1.761-2-3l-3-1c-16.78 4.232-33.447 3.899-50-1-1.091 3.874-2.424 7.541-4 11 1.039-4.158 1.039-8.158 0-12 0-.667.333-1 1-1h2l2 1c16.281 3.803 32.614 3.97 49 .5 1.184-1.145 1.184-2.312 0-3.5h3c-1.062 1.075-1.062 2.075 0 3 1.713-.379 2.713-1.379 3-3h1c1.101 1.098 2.434 1.265 4 .5a266.655 266.655 0 0 0 24-10l4-7a11.596 11.596 0 0 1 7 .5c5.597 3.78 5.264 6.946-1 9.5-42.987 47.403-91.654 54.236-146 20.5-.11-.617-.444-1.117-1-1.5a25.78 25.78 0 0 1-8-2c-3.843-5.363-3.843-10.863 0-16.5 7.534-9.27 17.2-13.27 29-12z"/><path style="opacity:1" fill="#917124" d="m191.5 307.5 2 1c-.801 2.293-1.468 1.96-2-1z"/><path style="opacity:1" fill="#dee2e4" d="M188.5 304.5c-.172.992.162 1.658 1 2 .345 2.698 1.678 4.698 4 6 .671 1.347.671 2.514 0 3.5-23.017 12.693-47.35 16.027-73 10-.752-.671-1.086-1.504-1-2.5 4.993-2.953 8.326-7.286 10-13 1.576-3.459 2.909-7.126 4-11 16.553 4.899 33.22 5.232 50 1l3 1c.442 1.239 1.109 2.239 2 3z"/><path style="opacity:1" fill="#8b6724" d="m191.5 307.5-2-1c-.838-.342-1.172-1.008-1-2a6.846 6.846 0 0 0-1-4c.346-1.196.846-1.196 1.5 0 .847 2.354 1.68 4.688 2.5 7z"/><path style="opacity:1" fill="#d6ac27" d="M129.5 298.5c1.039 3.842 1.039 7.842 0 12a156.208 156.208 0 0 1-10 13c-1.347.528-2.681.695-4 .5 6.22-4.374 10.22-10.208 12-17.5 1.268-2.405 1.935-5.072 2-8z"/><path style="opacity:1" fill="#bb8f23" d="M103.5 293.5a39.34 39.34 0 0 1-10 11c-1.653.16-2.986.826-4 2-2.012.514-4.012.68-6 .5 7.837-2.753 14.504-7.253 20-13.5z"/><path style="opacity:1" fill="#c3c4c5" d="M93.5 278.5c10.756-.753 13.589 3.58 8.5 13-5.313 8.078-12.813 12.745-22.5 14-6.19-.535-8.523-3.868-7-10h1c-.631 4.696 1.369 7.363 6 8 11.417-1.591 19.084-7.758 23-18.5-1.313-4.544-4.313-6.711-9-6.5z"/><path style="opacity:1" fill="#272524" d="M105.5 292.5c-2.333 5.667-6.333 9.667-12 12a39.34 39.34 0 0 0 10-11l2-1z"/><path style="opacity:1" fill="#c9941f" d="M186.5 295.5h3c-.287 1.621-1.287 2.621-3 3-1.062-.925-1.062-1.925 0-3z"/><path style="opacity:1" fill="#dbdee0" d="M126.5 297.5c.977 2.787 1.31 5.787 1 9-3.165 6.838-7.832 12.505-14 17a185.427 185.427 0 0 1-28-14.5c1.566-.608 2.9-1.442 4-2.5 1.014-1.174 2.347-1.84 4-2 5.667-2.333 9.667-6.333 12-12-.172-.992.162-1.658 1-2 .65-.304 1.317-.637 2-1a107.999 107.999 0 0 0 18 8z"/><path style="opacity:1" fill="#d5d6d9" d="M196.5 312.5c-.238-1.904-1.238-3.238-3-4a30.228 30.228 0 0 1-3-10 140.639 140.639 0 0 0 31.5-12 12.793 12.793 0 0 1 4.5 2c-8.246 10.424-18.246 18.424-30 24z"/><path style="opacity:1" fill="#dfa41f" d="M132.5 297.5h-2a31.147 31.147 0 0 0-2-2l2-1c2.529.15 3.195 1.15 2 3z"/><path style="opacity:1" fill="#787678" d="M82.5 284.5c-.453.958-1.12 1.792-2 2.5l2 1c-2.138 1.422-3.305 3.255-3.5 5.5 2.064-2.774 4.564-4.607 7.5-5.5a63.68 63.68 0 0 1-7 6.5c-1.333 1.333-2.667 1.333-4 0 .065-.438-.101-.772-.5-1-.278.916-.778 1.582-1.5 2h-1c1.964-4.962 5.298-8.629 10-11z"/><path style="opacity:1" fill="#a97d24" d="M106.5 290.5c-.838.342-1.172 1.008-1 2l-2 1a23.423 23.423 0 0 1 2.5-6c.483.948.649 1.948.5 3z"/><path style="opacity:1" fill="#bab5b6" d="M225.5 281.5c1.846-.278 3.18.389 4 2-2.333 1.441-3.666.775-4-2z"/><path style="opacity:1" fill="#bcb6b8" d="M222.5 281.5a30.233 30.233 0 0 0 3 3.5c-2.434.333-3.434-.834-3-3.5z"/><path style="opacity:1" fill="#3b3b3b" d="M93.5 278.5c4.688-.211 7.687 1.956 9 6.5-3.916 10.742-11.583 16.909-23 18.5-4.631-.637-6.631-3.304-6-8 .722-.418 1.222-1.084 1.5-2 .399.228.565.562.5 1-1.36 6.455 1.308 8.621 8 6.5 7.229-1.897 12.729-6.064 16.5-12.5.851-2.553.518-4.886-1-7a10.76 10.76 0 0 1-2.5 3c-6.22 1.713-11.22 5.213-15 10.5-.937.692-1.603.525-2-.5a63.68 63.68 0 0 0 7-6.5c-2.936.893-5.436 2.726-7.5 5.5.195-2.245 1.362-4.078 3.5-5.5l-2-1c.88-.708 1.547-1.542 2-2.5 2.968-3.115 6.635-5.115 11-6z"/><path style="opacity:1" fill="#dadddf" d="M75.5 294.5c1.333 1.333 2.667 1.333 4 0 .397 1.025 1.063 1.192 2 .5 3.78-5.287 8.78-8.787 15-10.5a10.76 10.76 0 0 0 2.5-3c1.518 2.114 1.851 4.447 1 7-3.771 6.436-9.271 10.603-16.5 12.5-6.692 2.121-9.36-.045-8-6.5z"/><path style="opacity:1" fill="#4c3e24" d="m189.5 306.5 2 1c.532 2.96 1.199 3.293 2 1 1.762.762 2.762 2.096 3 4a2.428 2.428 0 0 1-.5 2c-.708-.881-1.542-1.547-2.5-2-2.322-1.302-3.655-3.302-4-6z"/><path style="opacity:1" fill="#302c2a" d="M129.5 310.5c-1.674 5.714-5.007 10.047-10 13a156.208 156.208 0 0 0 10-13z"/><path style="opacity:1" fill="#a0a0a0" d="M165.5 348.5c10.158-1.159 20.492-1.325 31-.5-10.328.5-20.661.666-31 .5z"/><path style="opacity:1" fill="#a7a8a7" d="M74.5 349.5c-.667-1.333-.667-1.333 0 0z"/></svg>