<svg xmlns="http://www.w3.org/2000/svg" width="726.469" height="791.22" viewBox="0 0 681.065 741.769"><g transform="translate(21.466 -14.497)"><path style="fill:gold;fill-opacity:1;fill-rule:evenodd;stroke:none;stroke-width:11;stroke-opacity:1" d="m654.054 19.997-3.398 416.625c-7.415 175.25-153.92 314.046-331.59 314.144-177.509-.215-324.069-139.061-331.589-314.144L-15.92 19.997h334.98z"/><path style="fill:#fff;fill-opacity:1;fill-rule:evenodd;stroke:#000;stroke-width:7.24580574;stroke-linecap:round;stroke-linejoin:round;stroke-miterlimit:4;stroke-dasharray:none;stroke-opacity:1" d="M177.194 464.999a14.121 14.121 0 0 0 5.88 1.946c4.448.44 9.058-1.265 12.15-4.492a23.57 23.57 0 0 1-8.505-9.809c-2.75-5.944-2.85-13.057-.267-19.076l-14.21-.655a50.373 50.373 0 0 0-2.159 16.896c.1 2.296.36 4.597 1.005 6.802.645 2.206 1.69 4.32 3.228 6.026a12.738 12.738 0 0 0 2.878 2.362z"/><path style="fill:red;fill-rule:evenodd;stroke:#000;stroke-width:6.65999985;stroke-linecap:round;stroke-linejoin:round;stroke-miterlimit:4;stroke-dasharray:none;stroke-opacity:1;fill-opacity:1" d="M169.525 324.202a416.07 416.07 0 0 1 78.139 101.121 415.586 415.586 0 0 1 32.175 75.075c19.986-2.114 39.41-9.335 55.925-20.788 16.514-11.454 30.084-27.116 39.068-45.094 5.542-11.09 9.367-23.097 10.629-35.43 1.262-12.333-.083-24.997-4.5-36.58-7.244-18.993-22.068-33.897-33.708-50.561-15.518-22.216-25.595-48.205-29.11-75.075l-148.618 87.332z"/><path d="M-61.43 289.736a14.121 14.121 0 0 0-5.67-2.496c-4.385-.862-9.136.397-12.52 3.316a23.57 23.57 0 0 1 7.533 10.573c2.172 6.178 1.594 13.27-1.55 19.015l14.083 2.003a50.373 50.373 0 0 0 3.757-16.614c.12-2.294.08-4.61-.353-6.867-.432-2.256-1.27-4.46-2.64-6.304a12.738 12.738 0 0 0-2.64-2.626zm-47.525 49.75a50.358 50.358 0 0 0-16.52-4.135c-2.292-.173-4.608-.188-6.874.192s-4.49 1.167-6.366 2.493c-2.718 1.922-4.594 4.936-5.31 8.187-.964 4.364.183 9.145 3.023 12.596a23.576 23.576 0 0 1 10.747-7.285c6.228-2.03 13.301-1.29 18.973 1.986zm5.07 54.105a50.37 50.37 0 0 0-16.33 4.847c-2.06 1.018-4.06 2.184-5.817 3.665-1.757 1.48-3.27 3.289-4.21 5.386-1.361 3.037-1.441 6.588-.404 9.75 1.392 4.248 4.813 7.779 9.014 9.304a23.57 23.57 0 0 1 5.541-11.74c4.327-4.917 10.795-7.882 17.344-7.949z" style="fill:#fff;fill-opacity:1;fill-rule:evenodd;stroke:#000;stroke-width:7.24580574;stroke-linecap:round;stroke-linejoin:round;stroke-miterlimit:4;stroke-dasharray:none;stroke-opacity:1" transform="rotate(-59.896 76.831 229.187)"/><path d="M44.458 406.876c-1.24-.955-2.406-2.073-3.838-2.702-12.656-5.563-27.897-3.207-40.52-8.843-17.555-7.838-33.29-20.041-46.772-33.746-3.67-3.73-7.786-7.784-8.976-12.88-.454-1.946-.15-4.226.895-5.93 2.475-4.039 8.804-4.412 11.559-8.265 1.645-2.3 2.898-5.334 2.439-8.124-.655-3.977-3.731-7.504-7.006-9.853-3.447-2.472-7.959-3.32-12.186-3.658-3.942-.315-7.807 1.597-11.761 1.562-3.499-.031-6.909-2.013-10.38-1.566-3.383.436-7.779 1.04-9.404 4.04-2.41 4.448.07 10.569 2.597 14.95 1.345 2.332 5.328 2.632 6.194 5.18.936 2.752-.607 5.904-1.89 8.511-1.19 2.415-2.494 6.355-5.18 6.194-6.009-.36-8.21-9.342-9.85-15.134-.658-2.326 1.383-5.15.185-7.251-2.116-3.71-6.928-5.986-11.19-6.238-2.91-.171-5.808 1.51-8.086 3.33-1.571 1.256-2.885 3.011-3.474 4.935-1.217 3.976.983 8.38.242 12.472-1.025 5.654-3.911 10.825-6.36 16.024-.863 1.831-3.476 3.373-2.926 5.321 1.28 4.539 7.575 6.821 12.287 7.01 3.601.145 6.191-4.776 9.791-4.589 3.133.163 7.2 1.84 8.063 4.856.87 3.04-2.068 6.219-4.308 8.45-2.692 2.68-7.301 2.652-10.177 5.136-2.706 2.338-6.568 5.219-6.176 8.774.592 5.374 9.14 6.323 12.002 10.91 1.516 2.428.939 5.782 2.395 8.246 2.656 4.492 5.855 11.312 11.068 11.072 5.6-.258 8.189-7.948 10.748-12.936 1.743-3.4.11-8.465 2.886-11.09 4.25-4.02 11.909-5.957 17.204-3.47 3.167 1.487 3.543 6.05 4.975 9.242 2.563 5.715 3.355 12.2 6.436 17.652 1.6 2.834 3.387 5.85 6.133 7.598 3.64 2.32 8.394 4.198 12.572 3.11 5.303-1.381 6.531-10.995 12.006-11.23 4.25-.183 7.03 4.871 10.033 7.882C-7.85 437.286-3.44 443.71.943 450.051c5.407 7.823 8.075 17.675 14.823 24.376 4.294 4.265 9.545 8.843 15.577 9.326 6.119.49 11.859-3.634 17.104-6.822 5.514-3.35 9.884-8.3 14.647-12.651 7.897-7.215 23.078-22.298 23.078-22.298s-27.318-24.014-41.714-35.106z" style="fill:red;fill-opacity:1;fill-rule:evenodd;stroke:#000;stroke-width:7.24580574;stroke-linecap:round;stroke-linejoin:round;stroke-miterlimit:4;stroke-dasharray:none;stroke-opacity:1" transform="rotate(-59.896 76.831 229.187)"/><path style="fill:#fff;fill-opacity:1;fill-rule:evenodd;stroke:#000;stroke-width:7.24580574;stroke-linecap:round;stroke-linejoin:round;stroke-miterlimit:4;stroke-dasharray:none;stroke-opacity:1" d="M84.91 149.374a14.121 14.121 0 0 0-5.67-2.497c-4.384-.861-9.136.397-12.52 3.316a23.57 23.57 0 0 1 7.533 10.573c2.173 6.179 1.594 13.27-1.55 19.016l14.083 2.003a50.373 50.373 0 0 0 3.757-16.614c.12-2.294.08-4.61-.353-6.867-.432-2.256-1.27-4.46-2.64-6.305a12.738 12.738 0 0 0-2.64-2.625zm-47.524 49.75a50.358 50.358 0 0 0-16.522-4.136c-2.29-.172-4.607-.187-6.873.193s-4.49 1.167-6.366 2.493c-2.718 1.922-4.593 4.936-5.31 8.187-.963 4.364.183 9.145 3.024 12.596a23.576 23.576 0 0 1 10.747-7.286c6.227-2.03 13.3-1.288 18.972 1.987zm5.07 54.105a50.37 50.37 0 0 0-16.33 4.847c-2.06 1.018-4.06 2.184-5.818 3.664-1.757 1.48-3.27 3.29-4.21 5.386-1.361 3.038-1.441 6.588-.404 9.752 1.392 4.246 4.813 7.778 9.014 9.303a23.57 23.57 0 0 1 5.542-11.74c4.327-4.917 10.794-7.882 17.343-7.949z"/><path style="fill:red;fill-opacity:1;fill-rule:evenodd;stroke:#000;stroke-width:7.24580574;stroke-linecap:round;stroke-linejoin:round;stroke-miterlimit:4;stroke-dasharray:none;stroke-opacity:1" d="M190.798 266.514c-1.239-.956-2.405-2.073-3.838-2.703-12.656-5.563-27.897-3.206-40.52-8.842-17.555-7.839-33.29-20.042-46.772-33.746-3.67-3.73-7.785-7.784-8.975-12.88-.455-1.947-.15-4.226.894-5.93 2.476-4.039 8.804-4.413 11.56-8.265 1.644-2.3 2.897-5.335 2.438-8.125-.655-3.976-3.731-7.504-7.006-9.852-3.446-2.472-7.958-3.32-12.186-3.658-3.942-.316-7.806 1.597-11.76 1.562-3.5-.031-6.91-2.013-10.38-1.566-3.384.435-7.78 1.04-9.405 4.04-2.41 4.447.07 10.569 2.597 14.95 1.345 2.332 5.328 2.632 6.194 5.18.936 2.752-.606 5.904-1.89 8.51-1.19 2.416-2.494 6.356-5.18 6.195-6.009-.36-8.21-9.343-9.85-15.134-.657-2.327 1.383-5.151.185-7.251-2.116-3.71-6.927-5.986-11.19-6.238-2.91-.172-5.808 1.51-8.085 3.33-1.572 1.255-2.886 3.011-3.474 4.935-1.217 3.976.982 8.38.241 12.471-1.025 5.655-3.911 10.826-6.36 16.025-.863 1.831-3.475 3.373-2.926 5.321 1.28 4.539 7.576 6.821 12.287 7.01 3.602.144 6.192-4.776 9.791-4.589 3.133.163 7.2 1.84 8.063 4.856.87 3.04-2.068 6.218-4.308 8.45-2.692 2.68-7.3 2.652-10.177 5.136-2.706 2.338-6.568 5.219-6.176 8.774.593 5.374 9.14 6.322 12.002 10.91 1.516 2.428.939 5.782 2.396 8.246 2.655 4.492 5.855 11.312 11.068 11.072 5.6-.258 8.188-7.948 10.747-12.937 1.743-3.398.111-8.464 2.886-11.09 4.25-4.02 11.909-5.956 17.205-3.47 3.167 1.488 3.542 6.05 4.974 9.243 2.564 5.714 3.355 12.2 6.436 17.652 1.601 2.834 3.388 5.85 6.133 7.598 3.641 2.319 8.394 4.198 12.572 3.11 5.303-1.381 6.531-10.995 12.006-11.23 4.25-.183 7.03 4.87 10.033 7.882 5.442 5.458 9.853 11.882 14.235 18.222 5.407 7.824 8.076 17.676 14.823 24.377 4.294 4.265 9.545 8.842 15.578 9.326 6.118.49 11.858-3.635 17.103-6.822 5.514-3.35 9.885-8.3 14.647-12.651 7.897-7.216 23.078-22.298 23.078-22.298s-27.318-24.014-41.714-35.106z"/><path style="fill:red;fill-rule:evenodd;stroke:#000;stroke-width:6.65999985;stroke-linecap:round;stroke-linejoin:round;stroke-miterlimit:4;stroke-dasharray:none;stroke-opacity:1;fill-opacity:1" d="M570.88 41.455c-21.934 12.842-47.825 18.817-73.17 16.885-15.423-1.176-30.467-5.175-45.544-8.636-15.076-3.46-30.48-6.41-45.917-5.435-13.927.88-27.948 5.17-38.696 14.07-11.45 9.482-18.509 23.878-19.7 38.696-.916 11.411 1.47 22.873 5.157 33.711 3.686 10.838 8.66 21.184 13.136 31.72 12.296 28.947 20.872 59.532 24.624 90.759 5.358 44.587.759 90.343-13.367 132.971l38.695 2.111a199.374 199.374 0 0 1-2.11-47.842c1.472-19.22 5.722-38.106 8.626-57.163 2.905-19.057 4.448-38.643.52-57.516-5.018-24.11-18.607-45.497-33.067-65.43-6.059-8.353-12.377-16.664-16.415-26.159-2.019-4.747-3.448-9.773-3.883-14.914-.436-5.14.142-10.401 2.005-15.212 1.906-4.918 5.139-9.296 9.19-12.672 4.053-3.376 8.909-5.756 14.028-7.028 11.944-2.966 24.91.252 35.177 7.036 3.797 2.509 7.34 5.553 9.714 9.435 1.187 1.942 2.068 4.08 2.488 6.317.42 2.236.373 4.57-.241 6.762-.733 2.614-2.25 4.963-4.118 6.933-1.867 1.97-4.08 3.583-6.372 5.038-4.584 2.909-9.604 5.285-13.431 9.135-4.01 4.034-6.448 9.538-6.99 15.2-.543 5.662.773 11.45 3.488 16.449 2.716 4.997 6.8 9.207 11.578 12.293 4.778 3.085 10.237 5.063 15.845 6.01a47.768 47.768 0 0 0 23.92-2.11c-6.863-.746-13.366-4.387-17.588-9.85-1.855-2.4-3.297-5.176-3.803-8.167-.505-2.991-.013-6.21 1.692-8.718.975-1.435 2.315-2.603 3.812-3.48 1.497-.876 3.149-1.468 4.838-1.862 3.38-.788 6.882-.792 10.346-.99 3.88-.222 7.765-.697 11.5-1.773 3.734-1.077 7.325-2.774 10.31-5.263 5.195-4.33 8.262-10.883 9.147-17.588.941-7.142-.486-14.577-4.006-20.862-3.52-6.285-9.112-11.387-15.694-14.316 13.578 6.785 29.48 8.804 44.324 5.628 13.156-2.815 25.465-9.707 34.474-19.7 8.573-9.508 14.069-21.749 15.478-34.473z"/><path style="fill:red;fill-rule:evenodd;stroke:#000;stroke-width:11;stroke-linecap:butt;stroke-linejoin:round;stroke-miterlimit:4;stroke-dasharray:none;stroke-opacity:1;fill-opacity:1" d="M654.054 19.997c-8.626 6.728-18.54 11.559-28.084 16.908-9.542 5.35-18.955 11.417-25.789 19.96-6.833 8.54-10.675 19.022-14.566 29.245-3.891 10.223-8.091 20.629-15.445 28.727-7.358 8.101-17.31 13.28-27.02 18.328-9.71 5.049-19.632 10.316-26.853 18.539-7.224 8.224-11.168 18.744-14.975 29.006-3.807 10.262-7.776 20.776-15.035 28.969-7.26 8.192-17.22 13.397-26.944 18.425-9.723 5.028-19.68 10.24-26.93 18.442-7.25 8.2-11.202 18.723-15.003 28.988-3.802 10.265-7.755 20.785-15.008 28.984-7.253 8.2-17.212 13.407-26.936 18.434-9.723 5.027-19.685 10.234-26.937 18.434-7.252 8.199-11.205 18.72-15.006 28.986-3.801 10.265-7.752 20.788-15.004 28.988-7.251 8.2-17.212 13.409-26.935 18.436-9.724 5.027-19.684 10.234-26.938 18.431-7.254 8.198-11.21 18.718-15.013 28.983-3.803 10.264-7.754 20.784-14.999 28.99-7.244 8.206-17.193 13.43-26.914 18.463-9.72 5.032-19.678 10.23-26.959 18.404-7.279 8.173-11.296 18.664-15.12 28.918-3.826 10.254-7.747 20.765-14.89 29.057-7.138 8.288-16.953 13.727-26.624 18.838-9.672 5.11-19.605 10.203-27.248 18.029-6.96 7.126-11.615 16.124-15.522 25.32 60.448 61.347 144.834 99.425 237.71 99.537 177.669-.098 324.174-138.894 331.589-314.144l3.398-416.625z"/><path style="fill:none;fill-rule:evenodd;stroke:#000;stroke-width:11;stroke-opacity:1" d="m654.054 19.997-3.398 416.625c-7.415 175.25-153.92 314.046-331.59 314.144-177.509-.215-324.069-139.061-331.589-314.144L-15.92 19.997h334.98z"/><path style="fill:#fff;fill-opacity:1;stroke:#000;stroke-width:8.097;stroke-linejoin:round;stroke-miterlimit:4;stroke-dasharray:none;stroke-opacity:1" d="M309.01 536.172a28.846 28.846 0 0 0 14.398 31.805 28.846 28.846 0 0 0 16.072 3.35l23.444 38.902 29.292 48.605 17.552 29.125 10.203-45.851 3.392-15.246 11.15-50.107 6.92-31.097 20.89-93.883 8.658-38.906-.08-.424 16.432 27.263 2.942 4.88a28.846 28.846 0 0 0 0 .131l15.088 24.905a28.846 28.846 0 0 0 39.094-11.654 28.846 28.846 0 0 0 2.744-7.289 28.846 28.846 0 0 0-14.398-31.805 28.846 28.846 0 0 0-16.072-3.35l-23.444-38.902-29.292-48.605-17.552-29.125-10.203 45.851-3.393 15.247-11.15 50.106-6.92 31.097-20.89 93.883-8.658 38.906.08.424-16.431-27.263-2.942-4.88a28.846 28.846 0 0 0-.001-.13l-15.088-24.906a28.846 28.846 0 0 0-39.093 11.654 28.846 28.846 0 0 0-2.745 7.29z"/><path style="fill:#fff;fill-opacity:1;stroke:#000;stroke-width:7.63089943;stroke-linejoin:round;stroke-miterlimit:4;stroke-dasharray:none;stroke-opacity:1" d="M362.141 439.82a28.422 26.005 12.545 0 0 14.694 29.052 28.422 26.005 12.545 0 0 15.833 3.32l23.7 35.641 2.271 3.416 8.24 12.393 8.241 12.394 2.974 4.47a28.422 26.005 12.545 0 0 .003.119l15.25 22.82a28.422 26.005 12.545 0 0 38.158-9.859 28.422 26.005 12.545 0 0 2.564-6.551 28.422 26.005 12.545 0 0-14.696-29.053 28.422 26.005 12.545 0 0-15.833-3.32l-23.697-35.642-2.273-3.418-.79-1.188-7.451-11.203-8.241-12.394-2.974-4.47a28.422 26.005 12.545 0 0-.003-.118l-15.247-22.82a28.422 26.005 12.545 0 0-38.16 9.858 28.422 26.005 12.545 0 0-2.563 6.552z"/><path style="fill:#fff;fill-rule:evenodd;stroke:#000;stroke-width:3.99936128;stroke-linecap:round;stroke-linejoin:round;stroke-miterlimit:4;stroke-dasharray:none;stroke-opacity:1" d="m172.816 106.903-9.446 1.088a36.903 36.903 0 0 0 1.09 18.888 36.827 36.827 0 0 0 7.265 12.714 20.29 20.29 0 0 0 2.18-5.811c.865-4.166.4-8.479 0-12.715a402.731 402.731 0 0 1-1.089-14.164zm-1.145 38.137a36.827 36.827 0 0 0-7.265 12.714 36.903 36.903 0 0 0-1.09 18.888l9.443 1.088c.28-4.728.645-9.45 1.091-14.164.401-4.236.866-8.548 0-12.714a20.29 20.29 0 0 0-2.18-5.812z"/><path style="fill:#fff;fill-opacity:1;fill-rule:evenodd;stroke:#000;stroke-width:3.99936128;stroke-linecap:round;stroke-linejoin:round;stroke-miterlimit:4;stroke-dasharray:none;stroke-opacity:1" d="M119.527 108.223a32.671 32.671 0 0 0-9.136 13.261 32.669 32.669 0 0 0-1.651 16.018c.838 5.638 3.213 11.077 6.988 15.347 3.776 4.27 8.969 7.322 14.587 8.282 4.581.784 9.317.189 13.779-1.117 4.461-1.305 8.686-3.303 12.852-5.366 4.165-2.063 8.305-4.205 12.662-5.825 4.357-1.62 8.968-2.713 13.615-2.588 6.184.167 12.15 2.486 17.466 5.65a57.384 57.384 0 0 1 20.546 21.062l3.083-16.437a132.645 132.645 0 0 0-22.088-19.008c-3.67-2.512-7.49-4.853-11.62-6.501-4.131-1.649-8.604-2.59-13.037-2.232-6.501.527-12.42 3.758-18.279 6.624-2.93 1.433-5.91 2.796-9.04 3.71-3.13.916-6.429 1.375-9.665.97-3.593-.451-7.02-1.968-9.905-4.156-2.885-2.189-5.242-5.035-7.048-8.174-3.372-5.859-4.832-12.798-4.109-19.52z"/><path style="fill:red;fill-opacity:1;fill-rule:evenodd;stroke:#000;stroke-width:6.666;stroke-linecap:round;stroke-linejoin:round;stroke-miterlimit:4;stroke-dasharray:none;stroke-opacity:1" d="M164.217 226.37c-6.538-1.305-13.59.22-19.006 4.109-3.545 2.546-6.332 5.981-9.358 9.127-3.026 3.145-6.477 6.115-10.675 7.31-2.893.824-6.04.74-8.877-.258a14.39 14.39 0 0 1-7.047-5.392 14.196 14.196 0 0 1-2.465-7.962c0-2.82.871-5.635 2.465-7.962-6.29 2.627-11.53 7.68-14.383 13.87a28.343 28.343 0 0 0-2.569 11.3c-.082 4.385.86 8.818 2.957 12.669 2.098 3.85 5.379 7.092 9.372 8.906a18.687 18.687 0 0 0 11.55 1.248 18.687 18.687 0 0 0 10.024-5.871 121.376 121.376 0 0 1-10.787 18.492c-2.28 3.217-4.727 6.335-7.595 9.04-2.868 2.705-6.176 4.995-9.87 6.37a23.787 23.787 0 0 1-13.07.99 23.787 23.787 0 0 1-11.587-6.126 24.401 24.401 0 0 0 1.206 15.236 24.401 24.401 0 0 0 10.095 11.475 24.369 24.369 0 0 0 13.588 3.256 24.369 24.369 0 0 0 13.123-4.797c-1.517 4.21-4.717 7.785-8.732 9.76-3.947 1.94-8.637 2.316-12.842 1.027 5.195 6.812 12.75 11.788 21.06 13.87a38.366 38.366 0 0 0 19.955-.382 38.366 38.366 0 0 0 17.03-10.406 23.464 23.464 0 0 1-6.677 13.356c-4.683 4.637-11.405 7.134-17.979 6.678 11.716 4.466 24.764 5.372 36.985 2.568 11.028-2.53 21.622-8.296 28.252-17.465 6.993-9.67 8.947-21.945 12.329-33.389a128.859 128.859 0 0 1 11.3-26.711 106.401 106.401 0 0 0-12.328 28.766c-2.165 8.238-3.302 17.122-.513 25.17 2.432 7.02 7.702 12.808 13.869 16.952a47.477 47.477 0 0 0 17.465 7.191 70.402 70.402 0 0 1-6.164-25.17c-1.138-20.846 7.603-42.02 23.115-55.991-9.742 12.233-15.57 27.534-16.437 43.149-.23 4.13-.118 8.303.717 12.355.836 4.051 2.418 7.99 4.933 11.274 3.338 4.359 8.188 7.393 13.356 9.246a39.193 39.193 0 0 0 17.465 2.055 41.983 41.983 0 0 1-9.246-14.897c-2.412-6.725-3.061-13.936-3.596-21.06a810.838 810.838 0 0 1-1.541-26.198c-1.701 10.129.142 20.818 5.137 29.793 1.545 2.776 3.402 5.415 5.786 7.517 2.383 2.1 5.327 3.644 8.482 4.02 3.283.39 6.638-.505 9.518-2.127 5.753-3.24 9.688-9.499 10.117-16.088-3.98 1.543-8.66 1.153-12.329-1.027-2.863-1.701-5.058-4.391-6.529-7.38-1.47-2.988-2.255-6.273-2.717-9.571a53.181 53.181 0 0 1 2.055-23.63 15.215 15.215 0 0 0 .326 10.298 15.215 15.215 0 0 0 6.865 7.681c4.039 2.168 8.974 2.373 13.356 1.027 5.951-1.827 10.86-6.365 13.87-11.814a29.832 29.832 0 0 0 3.595-11.815 17.38 17.38 0 0 1-10.274-5.65c-3.447-3.928-4.929-9.207-5.65-14.383a62.117 62.117 0 0 1 1.541-24.657 39.216 39.216 0 0 0 5.137 14.383c1.493 2.492 3.3 4.853 5.663 6.544 2.362 1.69 5.34 2.66 8.206 2.189 1.712-.282 3.324-1.063 4.68-2.144 1.357-1.08 2.466-2.454 3.34-3.952 1.75-2.996 2.56-6.435 3.281-9.828.978-4.6 1.834-9.225 2.569-13.87-3.66 2.192-8.157 2.941-12.329 2.055-2.828-.6-5.484-1.925-7.749-3.721-2.264-1.797-4.143-4.06-5.606-6.553-4.236-7.213-4.826-16.45-1.542-24.143-.606 3.774.382 7.778 2.676 10.836 2.293 3.058 5.86 5.128 9.653 5.602 2.411.302 4.887-.023 7.173-.847 2.286-.825 4.383-2.143 6.182-3.776a20.903 20.903 0 0 0 5.939-9.417 20.904 20.904 0 0 0 .226-11.13c-4.334 2.42-9.75 2.807-14.383 1.027-2.887-1.109-5.435-2.999-7.552-5.253-2.116-2.254-3.82-4.869-5.29-7.589a57.197 57.197 0 0 1-5.65-15.41c-.05 3.887 1.815 7.753 4.889 10.133 3.073 2.38 7.284 3.217 11.034 2.195 2.358-.642 4.503-1.974 6.238-3.694 1.735-1.72 3.07-3.822 4.036-6.066a23.359 23.359 0 0 0 1.027-15.41c-3.28 2.577-7.761 3.55-11.814 2.568-4.385-1.063-8.064-4.286-10.274-8.219-3.026-5.383-3.45-11.804-3.596-17.978-.1-4.28-.1-8.563 0-12.842a174.55 174.55 0 0 0 11.301-11.301c2.692-2.951 5.304-6.025 7.191-9.545 1.887-3.52 3.02-7.548 2.569-11.516-.379-3.335-1.862-6.486-3.908-9.147-2.045-2.662-4.636-4.862-7.393-6.777-3.523-2.448-7.394-4.48-11.572-5.451-5.185-1.204-10.74-.703-15.653 1.341a26.443 26.443 0 0 0-11.815 9.76 71.702 71.702 0 0 0-7.191-3.596c-3.943-1.702-8.068-3.055-12.328-3.595-7.48-.949-15.063 0-22.602 0h-22.089c-2.708 0-5.406-.294-8.074-.764-1.334-.235-2.68-.46-4.034-.425-1.354.036-2.743.362-3.816 1.189-.991.764-1.638 1.9-2.054 3.082a10.926 10.926 0 0 0 0 7.191 70.313 70.313 0 0 1-22.089 0c-3.948-.629-7.842-1.596-11.814-2.054a46.782 46.782 0 0 0-16.438 1.027c.247 1.613.77 3.184 1.541 4.623 1.391 2.597 3.585 4.74 6.164 6.164a16.588 16.588 0 0 0 8.22 2.055 42.363 42.363 0 0 0-19.007 14.897c-2.377 3.364-4.289 7.195-4.623 11.3-.43 5.276 1.78 10.433 4.623 14.897 1.866 2.93 4.055 5.705 6.817 7.812 2.762 2.106 6.147 3.514 9.62 3.49 3.91-.029 7.605-1.84 10.788-4.11 2.242-1.6 4.304-3.44 6.528-5.066 2.224-1.624 4.657-3.05 7.341-3.667 2.747-.632 5.65-.384 8.351.419 2.702.803 5.217 2.144 7.573 3.69 6.515 4.276 11.878 10.12 16.438 16.438 2.6 3.602 4.99 7.443 6.195 11.718.603 2.138.9 4.37.758 6.587-.141 2.216-.73 4.415-1.816 6.352-1.206 2.149-3.004 3.935-5.063 5.29-2.058 1.353-4.373 2.287-6.752 2.929-6.067 1.637-12.677 1.357-18.492-1.027-3.145-1.29-6.02-3.16-9.116-4.563-3.096-1.403-6.572-2.339-9.89-1.602-3.316.737-6.148 3.146-7.705 6.165-1.3 2.517-1.762 5.417-1.581 8.244.18 2.827.983 5.588 2.094 8.193a35.643 35.643 0 0 0 6.678 10.274 10.713 10.713 0 0 1 3.082-6.164c1.447-1.423 3.298-2.412 5.263-2.916 1.966-.504 4.042-.53 6.038-.166 2.915.53 5.62 1.864 8.186 3.344 2.566 1.479 5.047 3.123 7.738 4.36 5.57 2.562 11.89 3.28 17.979 2.57 9.313-1.087 18.2-5.53 24.657-12.33-6.317 13.077-17.767 23.589-31.335 28.767-5.402 2.062-11.173 3.309-16.951 3.082-10.211-.4-20.126-5.65-26.198-13.87a19.944 19.944 0 0 0-5.65 10.788c-1.035 6.033.927 12.507 5.136 16.951z"/><g style="stroke:#000;stroke-opacity:1"><path d="M-157.59 146.96c1.641 22.001-5.074 44.525-18.496 62.036a90.962 90.962 0 0 1-15.028 15.413 48.481 48.481 0 0 0 25.817-8.092c8.432-5.627 15.01-13.985 18.495-23.505" style="fill:none;fill-rule:evenodd;stroke:#000;stroke-width:5;stroke-linecap:round;stroke-linejoin:round;stroke-miterlimit:4;stroke-dasharray:none;stroke-opacity:1" transform="translate(476.527 -38.892) scale(1.33312)"/><g style="stroke:#000;stroke-opacity:1"><g style="stroke:#000;stroke-opacity:1"><path style="fill:none;fill-rule:evenodd;stroke:#000;stroke-width:5;stroke-linecap:round;stroke-linejoin:round;stroke-miterlimit:4;stroke-dasharray:none;stroke-opacity:1" d="M-273.958 270.262a41.935 41.935 0 0 0 13.872-12.33c4.986-6.983 7.73-15.365 12.715-22.349a42.03 42.03 0 0 1 16.954-13.871M-246.6 280.666a318.696 318.696 0 0 1 30.055-47.78" transform="translate(476.527 -38.892) scale(1.33312)"/><path d="M-234.27 198.978a43.799 43.799 0 0 0 21.578 11.56c7.807 1.636 16.109 1.06 23.505-1.927 8.498-3.433 15.577-9.946 20.422-17.725 4.168-6.693 6.747-14.27 8.477-21.963a111.982 111.982 0 0 0 2.697-21.964M-191.884 157.748a21.108 21.108 0 0 0 6.55-10.018c1.149-3.856 1.163-7.998.385-11.945a30.853 30.853 0 0 0-4.624-11.174" style="fill:none;fill-rule:evenodd;stroke:#000;stroke-width:5;stroke-linecap:round;stroke-linejoin:miter;stroke-miterlimit:4;stroke-dasharray:none;stroke-opacity:1" transform="translate(476.527 -38.892) scale(1.33312)"/></g><path style="fill:none;fill-rule:evenodd;stroke:#000;stroke-width:5;stroke-linecap:round;stroke-linejoin:round;stroke-miterlimit:4;stroke-dasharray:none;stroke-opacity:1" d="M-234.27 198.978a62.26 62.26 0 0 0 26.973 0c7.807-1.74 15.32-5.038 21.578-10.019 5.418-4.312 9.857-9.876 12.715-16.183 3.742-8.258 4.699-17.745 2.698-26.587a42.165 42.165 0 0 0-3.854-10.404" transform="translate(476.527 -38.892) scale(1.33312)"/></g></g><path style="fill:none;fill-rule:evenodd;stroke:#000;stroke-width:6.66560221;stroke-linecap:round;stroke-linejoin:round;stroke-miterlimit:4;stroke-dasharray:none;stroke-opacity:1" d="M277.227 122.606a66.29 66.29 0 0 1 10.787 26.711 66.35 66.35 0 0 1-2.568 31.849M190.929 61.478a37.956 37.956 0 0 0 11.814 10.53 37.892 37.892 0 0 0 10.788 4.11"/><path style="fill:#000;fill-rule:evenodd;stroke:#000;stroke-width:1.33312035px;stroke-linecap:butt;stroke-linejoin:miter;stroke-opacity:1" d="M296.233 91.528a20.35 20.35 0 0 0 10.53-6.42c2.657-3.073 4.36-6.992 4.624-11.045.14-2.165-.125-4.364-.853-6.408-.728-2.045-1.922-3.93-3.514-5.406-1.747-1.62-3.945-2.72-6.258-3.292-2.312-.572-4.737-.626-7.097-.304-4.043.55-7.946 2.225-11.044 4.88a20.294 20.294 0 0 0-6.678 11.558 20.996 20.996 0 0 1 9.246-3.082c1.85-.16 3.74-.07 5.511.487 1.77.557 3.418 1.604 4.506 3.108.786 1.088 1.258 2.38 1.513 3.697.254 1.317.297 2.667.285 4.009a49.111 49.111 0 0 1-.771 8.218zM258.22 105.912a38.715 38.715 0 0 1-4.366-11.301c-1.122-5.236-1.177-10.769-3.338-15.668-2.002-4.536-5.732-8.202-10.1-10.547-4.368-2.345-9.345-3.423-14.3-3.579a41.523 41.523 0 0 0-22.602 5.907 48.837 48.837 0 0 0 4.623 19.007c2.89 6.125 7.165 11.716 12.842 15.41 1.935 1.26 4.042 2.298 6.298 2.792 2.255.493 4.673.416 6.8-.48 2.097-.884 3.789-2.49 5.672-3.765.942-.637 1.947-1.199 3.036-1.527 1.09-.328 2.27-.413 3.364-.102.93.264 1.76.799 2.535 1.377.775.578 1.515 1.21 2.345 1.705a8.766 8.766 0 0 0 7.192.77z"/><path style="fill:#fff;fill-rule:evenodd;stroke:none;stroke-width:1px;stroke-linecap:butt;stroke-linejoin:miter;stroke-opacity:1" d="M224.574 69.953c-3.898 1.337-7.16 4.411-8.73 8.22-.983 2.384-1.319 5.017-1.063 7.582.256 2.566 1.094 5.06 2.346 7.314 1.546 2.782 3.742 5.215 6.42 6.934a18.033 18.033 0 0 0 10.275 2.825 24.624 24.624 0 0 1-5.137-7.704c-1.739-4.132-2.312-8.647-2.825-13.1-.463-4.02-.894-8.043-1.286-12.07zm18.494 9.762a3.853 5.522 0 0 0-3.853 5.52 3.853 5.522 0 0 0 3.853 5.522 3.853 5.522 0 0 0 3.851-5.522 3.853 5.522 0 0 0-3.85-5.52z"/><circle style="fill:#000;fill-opacity:1;stroke:none;stroke-width:5;stroke-linecap:round;stroke-linejoin:round;stroke-miterlimit:4;stroke-dasharray:none;stroke-opacity:1" cx="159.772" cy="98.606" r="2.848"/><circle style="fill:#000;fill-opacity:1;stroke:none;stroke-width:5;stroke-linecap:round;stroke-linejoin:round;stroke-miterlimit:4;stroke-dasharray:none;stroke-opacity:1" cx="168.185" cy="93.391" r="2.848"/><circle style="fill:#000;fill-opacity:1;stroke:none;stroke-width:5;stroke-linecap:round;stroke-linejoin:round;stroke-miterlimit:4;stroke-dasharray:none;stroke-opacity:1" cx="168.91" cy="103.724" r="2.848"/><circle style="fill:#000;fill-opacity:1;stroke:none;stroke-width:5;stroke-linecap:round;stroke-linejoin:round;stroke-miterlimit:4;stroke-dasharray:none;stroke-opacity:1" cx="174.269" cy="98.386" r="2.848"/><circle style="fill:#000;fill-opacity:1;stroke:none;stroke-width:5;stroke-linecap:round;stroke-linejoin:round;stroke-miterlimit:4;stroke-dasharray:none;stroke-opacity:1" cx="154.381" cy="89.286" r="2.848"/><circle style="fill:#000;fill-opacity:1;stroke:none;stroke-width:5;stroke-linecap:round;stroke-linejoin:round;stroke-miterlimit:4;stroke-dasharray:none;stroke-opacity:1" cx="144.121" cy="98.477" r="2.848"/><circle style="fill:#000;fill-opacity:1;stroke:none;stroke-width:5;stroke-linecap:round;stroke-linejoin:round;stroke-miterlimit:4;stroke-dasharray:none;stroke-opacity:1" cx="144.938" cy="109.283" r="2.848"/><circle style="fill:#000;fill-opacity:1;stroke:none;stroke-width:5;stroke-linecap:round;stroke-linejoin:round;stroke-miterlimit:4;stroke-dasharray:none;stroke-opacity:1" cx="159.649" cy="109.464" r="2.848"/><path style="fill:none;fill-rule:evenodd;stroke:#000;stroke-width:6.65999985;stroke-linecap:round;stroke-linejoin:round;stroke-miterlimit:4;stroke-dasharray:none;stroke-opacity:1" d="M476.604 90a144.864 144.864 0 0 0-30.956-16.885c-10.98-4.35-22.67-7.369-34.475-7.036a62.73 62.73 0 0 0-18.996 3.518M238.9 410.177a72.285 72.285 0 0 0 26.415-.152c4.91-.945 9.926-2.518 13.51-6.004 2.282-2.22 3.846-5.103 4.833-8.13.986-3.028 1.42-6.208 1.67-9.382.609-7.69.182-15.521 2.002-23.016 1.196-4.924 3.337-9.58 4.503-14.51a38.08 38.08 0 0 0 1.001-10.008"/></g></svg>