<svg xmlns="http://www.w3.org/2000/svg" width="675.208" height="791.22" viewBox="0 0 178.649 209.344"><path style="fill:#fff;fill-rule:evenodd;stroke:none;stroke-width:3.10444427;stroke-opacity:1" d="m177.35 5.612-.89 117.58c-1.942 49.46-40.324 88.631-86.87 88.659-46.504-.061-84.9-39.246-86.87-88.659L1.83 5.612h87.758z" transform="translate(-.266 -4.06)"/><path style="fill:red;fill-opacity:1;stroke:#000;stroke-width:1.32291675;stroke-linecap:round;stroke-linejoin:round;stroke-miterlimit:4;stroke-dasharray:none;stroke-opacity:1;paint-order:markers fill stroke" d="M27.174 152.258h20.805v20.786H27.174z" transform="translate(-.266 -4.06)"/><path style="fill:#fff;fill-opacity:1;stroke:#000;stroke-width:1.32291675;stroke-linecap:round;stroke-linejoin:round;stroke-miterlimit:4;stroke-dasharray:none;stroke-opacity:1;paint-order:markers fill stroke" d="M47.979 152.258h20.805v20.786H47.979z" transform="translate(-.266 -4.06)"/><path style="fill:red;fill-opacity:1;stroke:#000;stroke-width:1.32291675;stroke-linecap:round;stroke-linejoin:round;stroke-miterlimit:4;stroke-dasharray:none;stroke-opacity:1;paint-order:markers fill stroke" transform="matrix(-1 0 0 1 -.266 -4.06)" d="M-68.785 131.472h20.805v20.786h-20.805z"/><path style="fill:#fff;fill-opacity:1;stroke:#000;stroke-width:1.32291675;stroke-linecap:round;stroke-linejoin:round;stroke-miterlimit:4;stroke-dasharray:none;stroke-opacity:1;paint-order:markers fill stroke" transform="matrix(-1 0 0 1 -.266 -4.06)" d="M-47.979 131.472h20.805v20.786h-20.805z"/><path style="fill:red;fill-opacity:1;stroke:#000;stroke-width:1.32291675;stroke-linecap:round;stroke-linejoin:round;stroke-miterlimit:4;stroke-dasharray:none;stroke-opacity:1;paint-order:markers fill stroke" d="M68.785 152.258H89.59v20.786H68.785z" transform="translate(-.266 -4.06)"/><path style="fill:#fff;fill-opacity:1;stroke:#000;stroke-width:1.32291675;stroke-linecap:round;stroke-linejoin:round;stroke-miterlimit:4;stroke-dasharray:none;stroke-opacity:1;paint-order:markers fill stroke" d="M89.59 152.258h20.805v20.786H89.59z" transform="translate(-.266 -4.06)"/><path style="fill:red;fill-opacity:1;stroke:#000;stroke-width:1.32291675;stroke-linecap:round;stroke-linejoin:round;stroke-miterlimit:4;stroke-dasharray:none;stroke-opacity:1;paint-order:markers fill stroke" transform="matrix(-1 0 0 1 -.266 -4.06)" d="M-110.395 131.472h20.805v20.786h-20.805z"/><path style="fill:#fff;fill-opacity:1;stroke:#000;stroke-width:1.32291675;stroke-linecap:round;stroke-linejoin:round;stroke-miterlimit:4;stroke-dasharray:none;stroke-opacity:1;paint-order:markers fill stroke" transform="matrix(-1 0 0 1 -.266 -4.06)" d="M-89.59 131.472h20.805v20.786H-89.59z"/><path style="fill:red;fill-opacity:1;stroke:#000;stroke-width:5.00000048;stroke-linecap:round;stroke-linejoin:round;stroke-miterlimit:4;stroke-dasharray:none;stroke-opacity:1;paint-order:markers fill stroke" d="M23.066 481.559v55.152a362.28 362.28 0 0 0 7.534 23.41H101.7V481.56H23.066zm629.077 0v55.373a366.857 366.857 0 0 0 11.242-55.373h-11.242zm-78.635 78.562v78.56h31.512c16.193-24.076 29.583-50.442 39.675-78.56h-71.187zm-314.54 157.233v57.765a309.555 309.555 0 0 0 78.563 10.235v-68H258.97z" transform="scale(.26458)"/><path style="fill:#fff;fill-opacity:1;stroke:#000;stroke-width:5.00000048;stroke-linecap:round;stroke-linejoin:round;stroke-miterlimit:4;stroke-dasharray:none;stroke-opacity:1;paint-order:markers fill stroke" d="M11.865 481.559a366.75 366.75 0 0 0 11.201 55.152v-55.152h-11.2zm561.643 0v78.562h71.187a362.202 362.202 0 0 0 7.448-23.19V481.56h-78.635zM30.6 560.12c10.117 28.116 23.534 54.482 39.754 78.56H101.7v-78.56H30.6zM337.53 717.354v68h.073a309.761 309.761 0 0 0 78.488-10.13v-57.87h-78.56z" transform="scale(.26458)"/><path style="fill:red;fill-opacity:1;stroke:#000;stroke-width:1.32291675;stroke-linecap:round;stroke-linejoin:round;stroke-miterlimit:4;stroke-dasharray:none;stroke-opacity:1;paint-order:markers fill stroke" d="M110.395 152.258H131.2v20.786h-20.805z" transform="translate(-.266 -4.06)"/><path style="fill:#fff;fill-opacity:1;stroke:#000;stroke-width:1.32291675;stroke-linecap:round;stroke-linejoin:round;stroke-miterlimit:4;stroke-dasharray:none;stroke-opacity:1;paint-order:markers fill stroke" d="M131.201 152.258h20.805v20.786h-20.805z" transform="translate(-.266 -4.06)"/><path style="fill:red;fill-opacity:1;stroke:#000;stroke-width:1.32291675;stroke-linecap:round;stroke-linejoin:round;stroke-miterlimit:4;stroke-dasharray:none;stroke-opacity:1;paint-order:markers fill stroke" transform="matrix(-1 0 0 1 -.266 -4.06)" d="M-152.006 131.472h20.805v20.786h-20.805z"/><path style="fill:#fff;fill-opacity:1;stroke:#000;stroke-width:1.32291675;stroke-linecap:round;stroke-linejoin:round;stroke-miterlimit:4;stroke-dasharray:none;stroke-opacity:1;paint-order:markers fill stroke" transform="matrix(-1 0 0 1 -.266 -4.06)" d="M-131.201 131.472h20.805v20.786h-20.805z"/><path style="fill:red;fill-opacity:1;stroke:#000;stroke-width:1.32291675;stroke-linecap:round;stroke-linejoin:round;stroke-miterlimit:4;stroke-dasharray:none;stroke-opacity:1;paint-order:markers fill stroke" transform="rotate(90 1.897 -2.162)" d="M69.027-89.571h20.805v20.786H69.027z"/><path style="fill:#fff;fill-opacity:1;stroke:#000;stroke-width:1.32291675;stroke-linecap:round;stroke-linejoin:round;stroke-miterlimit:4;stroke-dasharray:none;stroke-opacity:1;paint-order:markers fill stroke" transform="rotate(90 1.897 -2.162)" d="M89.832-89.571h20.805v20.786H89.832z"/><path style="fill:red;fill-opacity:1;stroke:#000;stroke-width:1.32291675;stroke-linecap:round;stroke-linejoin:round;stroke-miterlimit:4;stroke-dasharray:none;stroke-opacity:1;paint-order:markers fill stroke" transform="matrix(0 -1 -1 0 -.266 -4.06)" d="M-110.637-110.357h20.805v20.786h-20.805z"/><path style="fill:#fff;fill-opacity:1;stroke:#000;stroke-width:1.32291675;stroke-linecap:round;stroke-linejoin:round;stroke-miterlimit:4;stroke-dasharray:none;stroke-opacity:1;paint-order:markers fill stroke" transform="matrix(0 -1 -1 0 -.266 -4.06)" d="M-89.832-110.357h20.805v20.786h-20.805z"/><path style="fill:red;fill-opacity:1;stroke:#000;stroke-width:1.32291675;stroke-linecap:round;stroke-linejoin:round;stroke-miterlimit:4;stroke-dasharray:none;stroke-opacity:1;paint-order:markers fill stroke" transform="rotate(90 1.897 -2.162)" d="M110.637-89.571h20.805v20.786h-20.805z"/><path style="fill:#fff;fill-opacity:1;stroke:#000;stroke-width:1.32291675;stroke-linecap:round;stroke-linejoin:round;stroke-miterlimit:4;stroke-dasharray:none;stroke-opacity:1;paint-order:markers fill stroke" transform="rotate(90 1.897 -2.162)" d="M131.443-89.571h20.805v20.786h-20.805z"/><path style="fill:red;fill-opacity:1;stroke:#000;stroke-width:1.32291675;stroke-linecap:round;stroke-linejoin:round;stroke-miterlimit:4;stroke-dasharray:none;stroke-opacity:1;paint-order:markers fill stroke" transform="matrix(0 -1 -1 0 -.266 -4.06)" d="M-152.248-110.357h20.805v20.786h-20.805z"/><path style="fill:#fff;fill-opacity:1;stroke:#000;stroke-width:1.32291675;stroke-linecap:round;stroke-linejoin:round;stroke-miterlimit:4;stroke-dasharray:none;stroke-opacity:1;paint-order:markers fill stroke" transform="matrix(0 -1 -1 0 -.266 -4.06)" d="M-131.443-110.357h20.805v20.786h-20.805z"/><path style="fill:red;fill-opacity:1;stroke:#000;stroke-width:1.32291675;stroke-linecap:round;stroke-linejoin:round;stroke-miterlimit:4;stroke-dasharray:none;stroke-opacity:1;paint-order:markers fill stroke" transform="rotate(90 1.897 -2.162)" d="M27.416-89.571h20.805v20.786H27.416z"/><path style="fill:#fff;fill-opacity:1;stroke:#000;stroke-width:1.32291675;stroke-linecap:round;stroke-linejoin:round;stroke-miterlimit:4;stroke-dasharray:none;stroke-opacity:1;paint-order:markers fill stroke" transform="rotate(90 1.897 -2.162)" d="M48.221-89.571h20.805v20.786H48.221z"/><path style="fill:red;fill-opacity:1;stroke:#000;stroke-width:1.32291675;stroke-linecap:round;stroke-linejoin:round;stroke-miterlimit:4;stroke-dasharray:none;stroke-opacity:1;paint-order:markers fill stroke" transform="matrix(0 -1 -1 0 -.266 -4.06)" d="M-69.027-110.357h20.805v20.786h-20.805z"/><path style="fill:#fff;fill-opacity:1;stroke:#000;stroke-width:1.32291675;stroke-linecap:round;stroke-linejoin:round;stroke-miterlimit:4;stroke-dasharray:none;stroke-opacity:1;paint-order:markers fill stroke" transform="matrix(0 -1 -1 0 -.266 -4.06)" d="M-48.221-110.357h20.805v20.786h-20.805z"/><path style="fill:red;fill-opacity:1;stroke:#000;stroke-width:1.32291675;stroke-linecap:round;stroke-linejoin:round;stroke-miterlimit:4;stroke-dasharray:none;stroke-opacity:1;paint-order:markers fill stroke" transform="rotate(90 1.897 -2.162)" d="M152.248-89.571h20.805v20.786h-20.805z"/><path style="fill:#fff;fill-opacity:1;stroke:#000;stroke-width:1.32291675;stroke-linecap:round;stroke-linejoin:round;stroke-miterlimit:4;stroke-dasharray:none;stroke-opacity:1;paint-order:markers fill stroke" transform="rotate(90 1.897 -2.162)" d="M173.054-89.571h20.805v20.786h-20.805z"/><path style="fill:red;fill-opacity:1;stroke:#000;stroke-width:1.32291675;stroke-linecap:round;stroke-linejoin:round;stroke-miterlimit:4;stroke-dasharray:none;stroke-opacity:1;paint-order:markers fill stroke" transform="matrix(0 -1 -1 0 -.266 -4.06)" d="M-193.859-110.357h20.805v20.786h-20.805z"/><path style="fill:#fff;fill-opacity:1;stroke:#000;stroke-width:1.32291675;stroke-linecap:round;stroke-linejoin:round;stroke-miterlimit:4;stroke-dasharray:none;stroke-opacity:1;paint-order:markers fill stroke" transform="matrix(0 -1 -1 0 -.266 -4.06)" d="M-173.054-110.357h20.805v20.786h-20.805z"/><path style="fill:#090;stroke:#000;stroke-width:2.9104166;stroke-linecap:round;stroke-linejoin:round;stroke-miterlimit:4;stroke-dasharray:none;stroke-opacity:1;fill-opacity:1" d="m1.828 5.514.89 117.58c.128 3.264.419 6.48.856 9.645 11.05-.772 21.934-3.972 31.606-9.375 12.307-6.875 22.528-17.164 30.302-28.923 7.775-11.76 13.178-24.969 17.012-38.534A188.626 188.626 0 0 0 89.59 5.514zm87.762 0a188.627 188.627 0 0 0 7.096 50.393c3.834 13.565 9.237 26.775 17.012 38.534 7.774 11.759 17.995 22.048 30.302 28.923 9.672 5.403 20.556 8.603 31.606 9.375.437-3.165.728-6.381.856-9.644l.89-117.58z" transform="translate(-.266 -4.06)"/><path style="fill:none;fill-rule:evenodd;stroke:#000;stroke-width:3.10444427;stroke-opacity:1" d="m177.35 5.612-.89 117.58c-1.942 49.46-40.324 88.631-86.87 88.659-46.504-.061-84.9-39.246-86.87-88.659L1.83 5.612h87.758z" transform="translate(-.266 -4.06)"/><path style="fill:#fff;stroke:#000;stroke-width:.79374993;stroke-linecap:round;stroke-linejoin:round;stroke-miterlimit:4;stroke-dasharray:none;stroke-opacity:1" d="M139.086 11.87c-.018.361-.017.722 0 1.082v.004c.017-.362.017-.724 0-1.085zm0 1.086v.003a11.98 11.98 0 0 1-2.384 6.61c-1.195 1.587-2.766 2.865-4.176 4.276-1.411 1.412-2.707 3.04-3.135 4.961-.428 1.926.067 3.946.89 5.748.824 1.8 1.967 3.446 2.925 5.183 2.528 4.587 3.737 9.762 4.29 14.934.344 3.207.429 6.547-.794 9.546-.513 1.259-1.244 2.423-1.843 3.646-.599 1.223-1.073 2.545-1.018 3.898.054 1.323.612 2.582 1.302 3.725.69 1.144 1.52 2.205 2.195 3.357.839 1.433 1.432 3 1.748 4.619.316-1.619.91-3.186 1.748-4.62.675-1.151 1.504-2.212 2.194-3.356.69-1.143 1.248-2.402 1.302-3.725.056-1.353-.418-2.675-1.017-3.898-.6-1.223-1.33-2.387-1.843-3.646-1.223-2.999-1.138-6.34-.795-9.546.554-5.172 1.762-10.347 4.291-14.934.958-1.737 2.1-3.382 2.924-5.183.824-1.802 1.319-3.822.89-5.748-.427-1.92-1.723-3.55-3.133-4.96-1.411-1.412-2.982-2.69-4.177-4.277a11.98 11.98 0 0 1-2.384-6.613z" transform="translate(-.266 -4.06)"/><path style="fill:#fff;stroke:#000;stroke-width:.79374999;stroke-linecap:round;stroke-linejoin:round;stroke-miterlimit:4;stroke-dasharray:none;stroke-opacity:1" d="M119.744 32.761c-1.942-.024-3.906.517-5.466 1.669-1.664 1.229-2.823 3.177-2.927 5.243-.095 1.906.683 3.768 1.777 5.331a13.939 13.939 0 0 0 7.422 5.331 5.73 5.73 0 0 1-.418-4.077 5.415 5.415 0 0 1 1.292-2.304 4.93 4.93 0 0 1 2.262-1.354c.992-.268 2.063-.2 3.037.13.974.328 1.853.91 2.587 1.63 1.466 1.441 2.329 3.387 2.947 5.348.56 1.778.95 3.624.961 5.488.01 1.864-.37 3.752-1.274 5.383-.647 1.166-1.562 2.192-2.687 2.91-1.125.716-2.461 1.115-3.794 1.062-1.07-.042-2.138-.38-2.997-1.02-.86-.64-1.5-1.587-1.707-2.638a4.04 4.04 0 0 1 .627-3.032 6.721 6.721 0 0 0-2.909 2.49 6.722 6.722 0 0 0-1.063 3.678c.019 1.957.94 3.876 2.414 5.164 1.474 1.288 3.47 1.941 5.426 1.839 2.03-.106 3.983-1.003 5.5-2.357 1.516-1.354 2.61-3.146 3.28-5.065 1.43-4.092.963-8.588.21-12.857-.716-4.054-1.713-8.161-3.973-11.603-1.137-1.732-2.588-3.271-4.32-4.408-1.732-1.137-3.75-1.862-5.819-1.968-.13-.007-.259-.011-.388-.013zm38.684 0c-.13.002-.26.006-.388.013-2.07.106-4.087.831-5.819 1.968-1.732 1.137-3.184 2.676-4.32 4.408-2.26 3.442-3.257 7.549-3.973 11.603-.753 4.27-1.221 8.765.21 12.857.67 1.92 1.764 3.71 3.28 5.065 1.517 1.354 3.47 2.25 5.5 2.357 1.955.102 3.951-.551 5.426-1.84 1.474-1.287 2.395-3.206 2.413-5.163a6.722 6.722 0 0 0-1.063-3.679 6.721 6.721 0 0 0-2.908-2.489c.6.873.831 1.992.627 3.032-.207 1.05-.847 1.998-1.707 2.638-.86.64-1.927.978-2.997 1.02-1.333.053-2.67-.346-3.794-1.063-1.125-.717-2.04-1.743-2.687-2.91-.904-1.63-1.285-3.518-1.274-5.382.01-1.864.4-3.71.96-5.488.619-1.961 1.481-3.907 2.948-5.348.733-.72 1.613-1.302 2.587-1.63.974-.33 2.044-.398 3.037-.13a4.93 4.93 0 0 1 2.261 1.354 5.415 5.415 0 0 1 1.293 2.304 5.73 5.73 0 0 1-.418 4.077 13.939 13.939 0 0 0 7.421-5.33c1.095-1.564 1.873-3.426 1.778-5.332-.104-2.066-1.263-4.014-2.927-5.243-1.56-1.152-3.525-1.693-5.466-1.669z" transform="translate(-.266 -4.06)"/><path style="fill:#000;stroke:#000;stroke-width:.26458332px;stroke-linecap:butt;stroke-linejoin:miter;stroke-opacity:1" d="M139.086 22.802a560.499 560.499 0 0 0 0 53.115 560.48 560.48 0 0 0 0-53.115zm-17.947 14.903c-1.036.034-2.077.323-2.93.912-.853.59-1.505 1.493-1.705 2.51a3.602 3.602 0 0 0 .428 2.496 4.095 4.095 0 0 1 .57-2.78c.667-1.065 1.83-1.778 3.067-1.997 1.238-.22 2.528.03 3.682.53 1.153.502 2.186 1.244 3.163 2.037a32.593 32.593 0 0 1 3.993 3.85 19.533 19.533 0 0 0-3.209-4.207c-.95-.945-2.005-1.797-3.196-2.411-1.19-.614-2.524-.984-3.863-.94zm35.894 0c-1.34-.044-2.673.326-3.864.94-1.19.614-2.246 1.466-3.195 2.411a19.532 19.532 0 0 0-3.21 4.207 32.593 32.593 0 0 1 3.994-3.85c.977-.793 2.01-1.535 3.163-2.036 1.154-.501 2.443-.751 3.682-.531 1.237.22 2.4.932 3.067 1.996.513.82.72 1.826.57 2.781.438-.743.593-1.649.427-2.496-.199-1.017-.851-1.92-1.704-2.51-.854-.59-1.894-.878-2.93-.912zM132.69 62.662a11.746 11.746 0 0 1-2.923 3.137c-1.321.977-2.925 1.685-4.563 1.57a5.015 5.015 0 0 1-3.28-1.57 4.763 4.763 0 0 0 3.707 2.282c1.52.103 3.015-.55 4.207-1.497a9.142 9.142 0 0 0 2.852-3.922zm12.791 0a9.142 9.142 0 0 0 2.852 3.922c1.192.948 2.688 1.6 4.207 1.497a4.763 4.763 0 0 0 3.709-2.282 5.015 5.015 0 0 1-3.28 1.57c-1.64.115-3.243-.593-4.564-1.57a11.746 11.746 0 0 1-2.924-3.137z" transform="translate(-.266 -4.06)"/><g transform="translate(188.437 -4.06)" style="fill:#fff"><rect rx="3.025" ry="1.714" y="52.257" x="-59.248" height="6.656" width="19.261" style="fill:#fff;fill-opacity:1;stroke:#000;stroke-width:.79374999;stroke-linecap:round;stroke-linejoin:round;stroke-miterlimit:4;stroke-dasharray:none;stroke-opacity:1;paint-order:markers fill stroke"/><rect ry="1.714" rx="3.025" y="53.518" x="-61.264" height="4.135" width="23.294" style="fill:#fff;fill-opacity:1;stroke:#000;stroke-width:.79374999;stroke-linecap:round;stroke-linejoin:round;stroke-miterlimit:4;stroke-dasharray:none;stroke-opacity:1;paint-order:markers fill stroke"/></g><g transform="matrix(-.58292 .35127 .35062 .58401 208.95 -134.912)" style="stroke-width:1.46869493"><path transform="rotate(45 304.704 159.89) scale(.74694)" d="M341.23 38.943c1.027-.964-8.373-1.26-7.41-.234.965 1.027 1.262-8.372.235-7.408-1.027.964 8.373 1.26 7.409.234-.964-1.027-1.261 8.372-.234 7.408z" style="fill:#fff;fill-opacity:1;stroke:#000;stroke-width:1.56073546;stroke-linecap:round;stroke-linejoin:round;stroke-miterlimit:4;stroke-dasharray:none;stroke-opacity:1;paint-order:markers fill stroke"/><path d="M360.378 32.713s.31 4.383-.138 6.517c-.372 1.767-2.085 5.048-2.085 5.048s1.713 3.283 2.085 5.05c.448 2.134.138 6.517.138 6.517h1.708l1.708.001s-.31-4.383.139-6.517c.371-1.767 2.092-5.049 2.092-5.049s-1.72-3.282-2.092-5.05c-.449-2.133-.139-6.516-.139-6.516h-1.708z" style="fill:#fff;fill-opacity:1;stroke:#000;stroke-width:1.24349511;stroke-linecap:round;stroke-linejoin:round;stroke-miterlimit:4;stroke-dasharray:none;stroke-opacity:1"/><path d="m357.7 59.13 2.286 111.592 2.1 2.115 2.1-2.114 2.293-111.59-4.393-.001z" style="fill:#fff;fill-opacity:1;stroke:#000;stroke-width:1.24349499;stroke-linecap:round;stroke-linejoin:round;stroke-miterlimit:4;stroke-dasharray:none;stroke-opacity:1"/><path d="M362.086 172.837V61.63" style="fill:red;fill-opacity:1;stroke:#000;stroke-width:1.24349511;stroke-linecap:round;stroke-linejoin:miter;stroke-miterlimit:4;stroke-dasharray:none;stroke-opacity:1"/><path transform="matrix(.26458 0 0 .26458 .266 4.06)" d="M1344.478 205.807c-.034.35-.086.72-.086 1.076 0 8.785 10.379 15.885 23.147 15.888 12.768.003 23.12-7.093 23.12-15.878-.001-.356-.056-.726-.089-1.077h-1.738c-3.515 5.695-11.725 9.678-21.293 9.676-9.568-.002-17.794-3.99-21.316-9.685z" style="fill:#fff;fill-opacity:1;stroke:#000;stroke-width:4.69982433;stroke-linecap:round;stroke-linejoin:round;stroke-miterlimit:4;stroke-dasharray:none;stroke-dashoffset:3.1181097;stroke-opacity:1"/><path d="m344.478 55.923-4.8 1.939 4.8 1.933 4.309-1.931zm35.224.008-4.309 1.94 4.309 1.932 4.8-1.93z" style="fill:#fff;fill-opacity:1;stroke:#000;stroke-width:1.24349511;stroke-linecap:round;stroke-linejoin:round;stroke-miterlimit:4;stroke-dasharray:none;stroke-opacity:1"/><path d="M343.894 52.84a1.357 1.357 0 0 0-.677.1c-.566.267-1.172.67-1.393 1.255-.266.703-.128 1.593.254 2.24.377.64 1.136.993 1.816 1.294.19.083.607-.077.607.13 0 .208-.418.048-.607.131-.68.3-1.439.653-1.816 1.293-.382.647-.52 1.537-.254 2.24.221.584.796 1.07 1.393 1.255.556.172 1.278.136 1.73-.23.292-.237.39-.687.378-1.063-.007-.242-.362-.44-.285-.67.132-.393.69-.473 1.077-.62.507-.192 1.054-.271 1.593-.326 3.68-.372 7.396.002 11.095.003l6.57.001c3.699.001 7.416-.371 11.095.003.54.055 1.086.134 1.593.327.387.146.945.227 1.077.62.077.23-.277.427-.285.67-.011.375.086.825.377 1.062.453.367 1.175.404 1.731.231.597-.184 1.172-.67 1.393-1.254.266-.702.128-1.592-.254-2.24-.377-.64-1.136-.993-1.816-1.293-.19-.084-.607.076-.607-.131 0-.208.418-.047.607-.131.68-.3 1.439-.652 1.816-1.293.382-.647.52-1.537.254-2.24-.221-.584-.827-.988-1.393-1.254a1.357 1.357 0 0 0-.677-.1c-.367.028-.789.075-1.054.33-.27.26-.388.687-.377 1.062.007.243.362.44.285.67-.132.393-.69.473-1.077.62-.507.192-1.054.272-1.593.326-3.68.372-7.396-.002-11.095-.003l-6.57-.001c-3.699 0-7.416.371-11.095-.003-.54-.054-1.086-.134-1.593-.326-.387-.147-.945-.228-1.077-.621-.077-.23.277-.427.285-.67.011-.375-.107-.801-.377-1.062-.265-.256-.687-.302-1.054-.331z" style="fill:#fff;fill-opacity:1;stroke:#000;stroke-width:1.24349511;stroke-linecap:round;stroke-linejoin:round;stroke-miterlimit:4;stroke-dasharray:none;stroke-opacity:1"/><path transform="matrix(.2462 .00006 0 .2463 -317.89 4.437)" d="M2690.36 216.267h142.874" style="fill:red;fill-opacity:1;stroke:#000;stroke-width:5.04958296;stroke-linecap:round;stroke-linejoin:miter;stroke-miterlimit:4;stroke-dasharray:none;stroke-opacity:1"/><path d="m358.222 44.278 7.736.002M358.614 43.378l6.952.002M359.033 42.478l6.114.002M359.397 41.578l5.386.002M359.87 40.678l4.44.001M360.217 39.778l3.746.001" style="fill:red;fill-opacity:1;stroke:#000;stroke-width:.41449839px;stroke-linecap:butt;stroke-linejoin:miter;stroke-opacity:1"/><path d="m360.383 38.878 3.414.001M360.383 37.978h3.414M360.52 37.078h3.14M360.506 36.178h3.168M360.506 35.278h3.168M360.506 34.378h3.168" style="fill:red;fill-opacity:1;stroke:#000;stroke-width:.41449836px;stroke-linecap:butt;stroke-linejoin:miter;stroke-opacity:1"/><path d="m358.222 44.278 7.736.002M358.614 45.179l6.952.001M359.033 46.079l6.114.001M359.397 46.98h5.386M359.87 47.88h4.44M360.217 48.78h3.746" style="fill:red;fill-opacity:1;stroke:#000;stroke-width:.41449839px;stroke-linecap:butt;stroke-linejoin:miter;stroke-opacity:1"/><path d="M360.383 49.68h3.414M360.383 50.58h3.414M360.52 51.48h3.14M360.506 52.38h3.168M360.506 53.28l3.168.001M360.506 54.18l3.168.001" style="fill:red;fill-opacity:1;stroke:#000;stroke-width:.41449836px;stroke-linecap:butt;stroke-linejoin:miter;stroke-opacity:1"/><rect ry="2.515" rx="1.581" y="30.763" x="359.902" height="1.95" width="4.367" style="fill:#fff;fill-opacity:1;stroke:#000;stroke-width:1.16577661;stroke-linecap:round;stroke-linejoin:round;stroke-miterlimit:4;stroke-dasharray:none;stroke-opacity:1;paint-order:markers fill stroke"/><path transform="scale(.34502) rotate(45 637.094 917.741)" d="M341.23 38.943c1.027-.964-8.373-1.26-7.41-.234.965 1.027 1.262-8.372.235-7.408-1.027.964 8.373 1.26 7.409.234-.964-1.027-1.261 8.372-.234 7.408z" style="fill:#fff;fill-opacity:1;stroke:#000;stroke-width:3.37884021;stroke-linecap:round;stroke-linejoin:round;stroke-miterlimit:4;stroke-dasharray:none;stroke-opacity:1;paint-order:markers fill stroke"/></g><g transform="matrix(.58292 .35127 -.35062 .58401 -135.422 -134.912)" style="stroke-width:1.46869493"><path transform="rotate(45 304.704 159.89) scale(.74694)" d="M341.23 38.943c1.027-.964-8.373-1.26-7.41-.234.965 1.027 1.262-8.372.235-7.408-1.027.964 8.373 1.26 7.409.234-.964-1.027-1.261 8.372-.234 7.408z" style="fill:#fff;fill-opacity:1;stroke:#000;stroke-width:1.56073546;stroke-linecap:round;stroke-linejoin:round;stroke-miterlimit:4;stroke-dasharray:none;stroke-opacity:1;paint-order:markers fill stroke"/><path d="M360.378 32.713s.31 4.383-.138 6.517c-.372 1.767-2.085 5.048-2.085 5.048s1.713 3.283 2.085 5.05c.448 2.134.138 6.517.138 6.517h1.708l1.708.001s-.31-4.383.139-6.517c.371-1.767 2.092-5.049 2.092-5.049s-1.72-3.282-2.092-5.05c-.449-2.133-.139-6.516-.139-6.516h-1.708z" style="fill:#fff;fill-opacity:1;stroke:#000;stroke-width:1.24349511;stroke-linecap:round;stroke-linejoin:round;stroke-miterlimit:4;stroke-dasharray:none;stroke-opacity:1"/><path d="m357.7 59.13 2.286 111.592 2.1 2.115 2.1-2.114 2.293-111.59-4.393-.001z" style="fill:#fff;fill-opacity:1;stroke:#000;stroke-width:1.24349499;stroke-linecap:round;stroke-linejoin:round;stroke-miterlimit:4;stroke-dasharray:none;stroke-opacity:1"/><path d="M362.086 172.837V61.63" style="fill:red;fill-opacity:1;stroke:#000;stroke-width:1.24349511;stroke-linecap:round;stroke-linejoin:miter;stroke-miterlimit:4;stroke-dasharray:none;stroke-opacity:1"/><path transform="matrix(.26458 0 0 .26458 .266 4.06)" d="M1344.478 205.807c-.034.35-.086.72-.086 1.076 0 8.785 10.379 15.885 23.147 15.888 12.768.003 23.12-7.093 23.12-15.878-.001-.356-.056-.726-.089-1.077h-1.738c-3.515 5.695-11.725 9.678-21.293 9.676-9.568-.002-17.794-3.99-21.316-9.685z" style="fill:#fff;fill-opacity:1;stroke:#000;stroke-width:4.69982433;stroke-linecap:round;stroke-linejoin:round;stroke-miterlimit:4;stroke-dasharray:none;stroke-dashoffset:3.1181097;stroke-opacity:1"/><path d="m344.478 55.923-4.8 1.939 4.8 1.933 4.309-1.931zm35.224.008-4.309 1.94 4.309 1.932 4.8-1.93z" style="fill:#fff;fill-opacity:1;stroke:#000;stroke-width:1.24349511;stroke-linecap:round;stroke-linejoin:round;stroke-miterlimit:4;stroke-dasharray:none;stroke-opacity:1"/><path d="M343.894 52.84a1.357 1.357 0 0 0-.677.1c-.566.267-1.172.67-1.393 1.255-.266.703-.128 1.593.254 2.24.377.64 1.136.993 1.816 1.294.19.083.607-.077.607.13 0 .208-.418.048-.607.131-.68.3-1.439.653-1.816 1.293-.382.647-.52 1.537-.254 2.24.221.584.796 1.07 1.393 1.255.556.172 1.278.136 1.73-.23.292-.237.39-.687.378-1.063-.007-.242-.362-.44-.285-.67.132-.393.69-.473 1.077-.62.507-.192 1.054-.271 1.593-.326 3.68-.372 7.396.002 11.095.003l6.57.001c3.699.001 7.416-.371 11.095.003.54.055 1.086.134 1.593.327.387.146.945.227 1.077.62.077.23-.277.427-.285.67-.011.375.086.825.377 1.062.453.367 1.175.404 1.731.231.597-.184 1.172-.67 1.393-1.254.266-.702.128-1.592-.254-2.24-.377-.64-1.136-.993-1.816-1.293-.19-.084-.607.076-.607-.131 0-.208.418-.047.607-.131.68-.3 1.439-.652 1.816-1.293.382-.647.52-1.537.254-2.24-.221-.584-.827-.988-1.393-1.254a1.357 1.357 0 0 0-.677-.1c-.367.028-.789.075-1.054.33-.27.26-.388.687-.377 1.062.007.243.362.44.285.67-.132.393-.69.473-1.077.62-.507.192-1.054.272-1.593.326-3.68.372-7.396-.002-11.095-.003l-6.57-.001c-3.699 0-7.416.371-11.095-.003-.54-.054-1.086-.134-1.593-.326-.387-.147-.945-.228-1.077-.621-.077-.23.277-.427.285-.67.011-.375-.107-.801-.377-1.062-.265-.256-.687-.302-1.054-.331z" style="fill:#fff;fill-opacity:1;stroke:#000;stroke-width:1.24349511;stroke-linecap:round;stroke-linejoin:round;stroke-miterlimit:4;stroke-dasharray:none;stroke-opacity:1"/><path transform="matrix(.2462 .00006 0 .2463 -317.89 4.437)" d="M2690.36 216.267h142.874" style="fill:red;fill-opacity:1;stroke:#000;stroke-width:5.04958296;stroke-linecap:round;stroke-linejoin:miter;stroke-miterlimit:4;stroke-dasharray:none;stroke-opacity:1"/><path d="m358.222 44.278 7.736.002M358.614 43.378l6.952.002M359.033 42.478l6.114.002M359.397 41.578l5.386.002M359.87 40.678l4.44.001M360.217 39.778l3.746.001" style="fill:red;fill-opacity:1;stroke:#000;stroke-width:.41449839px;stroke-linecap:butt;stroke-linejoin:miter;stroke-opacity:1"/><path d="m360.383 38.878 3.414.001M360.383 37.978h3.414M360.52 37.078h3.14M360.506 36.178h3.168M360.506 35.278h3.168M360.506 34.378h3.168" style="fill:red;fill-opacity:1;stroke:#000;stroke-width:.41449836px;stroke-linecap:butt;stroke-linejoin:miter;stroke-opacity:1"/><path d="m358.222 44.278 7.736.002M358.614 45.179l6.952.001M359.033 46.079l6.114.001M359.397 46.98h5.386M359.87 47.88h4.44M360.217 48.78h3.746" style="fill:red;fill-opacity:1;stroke:#000;stroke-width:.41449839px;stroke-linecap:butt;stroke-linejoin:miter;stroke-opacity:1"/><path d="M360.383 49.68h3.414M360.383 50.58h3.414M360.52 51.48h3.14M360.506 52.38h3.168M360.506 53.28l3.168.001M360.506 54.18l3.168.001" style="fill:red;fill-opacity:1;stroke:#000;stroke-width:.41449836px;stroke-linecap:butt;stroke-linejoin:miter;stroke-opacity:1"/><rect ry="2.515" rx="1.581" y="30.763" x="359.902" height="1.95" width="4.367" style="fill:#fff;fill-opacity:1;stroke:#000;stroke-width:1.16577661;stroke-linecap:round;stroke-linejoin:round;stroke-miterlimit:4;stroke-dasharray:none;stroke-opacity:1;paint-order:markers fill stroke"/><path transform="scale(.34502) rotate(45 637.094 917.741)" d="M341.23 38.943c1.027-.964-8.373-1.26-7.41-.234.965 1.027 1.262-8.372.235-7.408-1.027.964 8.373 1.26 7.409.234-.964-1.027-1.261 8.372-.234 7.408z" style="fill:#fff;fill-opacity:1;stroke:#000;stroke-width:3.37884021;stroke-linecap:round;stroke-linejoin:round;stroke-miterlimit:4;stroke-dasharray:none;stroke-opacity:1;paint-order:markers fill stroke"/></g></svg>