<?xml version="1.0" encoding="UTF-8" standalone="no"?>
<!-- Created with Inkscape (http://www.inkscape.org/) -->

<svg
   xmlns:dc="http://purl.org/dc/elements/1.1/"
   xmlns:cc="http://creativecommons.org/ns#"
   xmlns:rdf="http://www.w3.org/1999/02/22-rdf-syntax-ns#"
   xmlns:svg="http://www.w3.org/2000/svg"
   xmlns="http://www.w3.org/2000/svg"
   xmlns:sodipodi="http://sodipodi.sourceforge.net/DTD/sodipodi-0.dtd"
   xmlns:inkscape="http://www.inkscape.org/namespaces/inkscape"
   width="197.93207mm"
   height="209.34358mm"
   viewBox="0 0 701.3341 741.76859"
   id="svg7742"
   version="1.1"
   inkscape:version="0.91 r13725"
   sodipodi:docname="DEU Gönnersdorf COA.svg">
  <defs
     id="defs7744">
    <inkscape:path-effect
       effect="spiro"
       id="path-effect9959"
       is_visible="true" />
    <inkscape:path-effect
       effect="spiro"
       id="path-effect9895"
       is_visible="true" />
  </defs>
  <sodipodi:namedview
     id="base"
     pagecolor="#ffffff"
     bordercolor="#666666"
     borderopacity="1.0"
     inkscape:pageopacity="0.0"
     inkscape:pageshadow="2"
     inkscape:zoom="0.72798985"
     inkscape:cx="350.66704"
     inkscape:cy="370.88431"
     inkscape:document-units="px"
     inkscape:current-layer="layer1"
     showgrid="false"
     inkscape:window-width="1366"
     inkscape:window-height="745"
     inkscape:window-x="-8"
     inkscape:window-y="-8"
     inkscape:window-maximized="1"
     fit-margin-top="0"
     fit-margin-left="0"
     fit-margin-right="0"
     fit-margin-bottom="0"
     inkscape:snap-midpoints="true"
     inkscape:snap-smooth-nodes="true"
     inkscape:object-nodes="true"
     inkscape:snap-nodes="true"
     inkscape:object-paths="false"
     showguides="false" />
  <metadata
     id="metadata7747">
    <rdf:RDF>
      <cc:Work
         rdf:about="">
        <dc:format>image/svg+xml</dc:format>
        <dc:type
           rdf:resource="http://purl.org/dc/dcmitype/StillImage" />
        <dc:title></dc:title>
      </cc:Work>
    </rdf:RDF>
  </metadata>
  <g
     inkscape:label="Ebene 1"
     inkscape:groupmode="layer"
     id="layer1"
     transform="translate(-25.303685,-35.763622)">
    <path
       style="fill:#ffffff;fill-rule:evenodd;stroke:none;stroke-width:11;stroke-opacity:1"
       inkscape:connector-curvature="0"
       d="m 30.983405,41.263625 13.398,416.624405 C 51.796405,633.1378 198.30119,771.9341 375.97065,772.0322 553.48036,771.8173 700.04005,632.971 707.56006,457.88803 l 13.39799,-416.624405 -344.9794,0 z"
       id="path10563-0-8" />
    <path
       style="opacity:1;fill:#009900;fill-opacity:1;fill-rule:nonzero;stroke:#000000;stroke-width:11;stroke-linecap:round;stroke-linejoin:round;stroke-miterlimit:4;stroke-dasharray:none;stroke-dashoffset:0;stroke-opacity:1"
       d="M 5.6796875 5.5 L 18.287109 397.50781 L 683.04688 397.50781 L 695.6543 5.5 L 350.67578 5.5 L 5.6796875 5.5 z "
       transform="translate(25.303685,35.763622)"
       id="rect8373" />
    <path
       style="opacity:1;fill:#ffd700;fill-opacity:1;fill-rule:nonzero;stroke:#000000;stroke-width:11;stroke-linecap:round;stroke-linejoin:round;stroke-miterlimit:4;stroke-dasharray:none;stroke-dashoffset:0;stroke-opacity:1"
       d="M 5.6796875 5.5 L 18.287109 397.50781 L 346.80859 397.50781 C 348.9465 397.50781 350.66797 396.35413 350.66797 394.92188 L 350.66797 5.5 L 5.6796875 5.5 z "
       transform="translate(25.303685,35.763622)"
       id="rect8391" />
    <path
       style="fill:#ffffff;fill-opacity:1;fill-rule:evenodd;stroke:#000000;stroke-width:8;stroke-linecap:butt;stroke-linejoin:round;stroke-miterlimit:4;stroke-dasharray:none;stroke-opacity:1"
       d="M 660.54883 5.5 C 656.44108 11.412718 652.59842 17.444271 648.77539 23.416016 C 640.58158 36.215136 631.96562 49.30478 620.64648 60.453125 C 609.32187 71.606839 596.17602 79.949708 583.35742 88.080078 C 570.53882 96.210428 557.39081 104.65086 546.17188 115.91211 C 534.95119 127.17506 526.57769 140.33638 518.46289 153.16016 C 510.34807 165.98395 501.95475 179.14485 490.71289 190.38672 C 479.47101 201.62859 466.30815 210.02191 453.48438 218.13672 C 440.66061 226.25153 427.50124 234.62505 416.23828 245.8457 C 404.97705 257.06464 396.5366 270.21265 388.40625 283.03125 C 380.27588 295.84985 371.93302 308.9957 360.7793 320.32031 C 357.5549 323.59411 354.16339 326.63499 350.66797 329.51172 L 350.66797 394.92188 C 350.66797 396.35413 348.9465 397.50781 346.80859 397.50781 L 381.7793 397.50781 C 392.79561 390.33415 403.79432 382.61594 413.36133 372.90234 C 424.51506 361.57774 432.85598 348.43189 440.98633 335.61328 C 449.11669 322.79467 457.55711 309.64666 468.81836 298.42773 C 480.08131 287.20706 493.24262 278.83355 506.06641 270.71875 C 518.89019 262.60394 532.0511 254.21062 543.29297 242.96875 C 554.53484 231.72688 562.93012 218.56597 571.04492 205.74219 C 579.15971 192.9184 587.5313 179.7571 598.75195 168.49414 C 609.97089 157.23291 623.1189 148.79051 635.9375 140.66016 C 648.7561 132.52981 661.90195 124.18889 673.22656 113.03516 C 680.79542 105.5805 687.14464 97.252717 692.97852 88.728516 L 695.6543 5.5 L 660.54883 5.5 z "
       transform="translate(25.303685,35.763622)"
       id="path8330" />
    <path
       inkscape:connector-curvature="0"
       style="opacity:1;fill:none;fill-opacity:1;fill-rule:nonzero;stroke:#000000;stroke-width:11;stroke-linecap:round;stroke-linejoin:round;stroke-miterlimit:4;stroke-dasharray:none;stroke-dashoffset:0;stroke-opacity:1"
       d="m 30.983379,41.263622 12.60742,392.007808 664.759761,0 12.60742,-392.007808 -344.97852,0 -344.996081,0 z"
       id="rect8373-2" />
    <path
       style="fill:none;fill-rule:evenodd;stroke:#000000;stroke-width:11;stroke-opacity:1"
       inkscape:connector-curvature="0"
       d="m 30.9834,41.263622 13.398,416.624408 c 7.415,175.24977 153.9198,314.04607 331.58926,314.14417 177.5097,-0.2149 324.0694,-139.0612 331.5894,-314.14417 l 13.398,-416.624408 -344.9794,0 z"
       id="path10563-0" />
    <path
       inkscape:connector-curvature="0"
       style="opacity:1;fill:none;fill-opacity:1;fill-rule:nonzero;stroke:#000000;stroke-width:11;stroke-linecap:round;stroke-linejoin:round;stroke-miterlimit:4;stroke-dasharray:none;stroke-dashoffset:0;stroke-opacity:1"
       d="m 30.983376,41.263622 12.60742,392.007808 328.521474,0 c 2.13791,0 3.85938,-1.15368 3.85938,-2.58593 l 0,-389.421878 -344.988274,0 z"
       id="rect8391-8" />
    <path
       style="fill:#ff0000;fill-opacity:1;fill-rule:evenodd;stroke:#000000;stroke-width:1px;stroke-linecap:butt;stroke-linejoin:miter;stroke-opacity:1"
       d="m 177.68176,222.83463 c -2.10383,6.62142 -1.91341,13.94822 0.53154,20.45142 2.27739,6.05753 6.39699,11.28088 11.11835,15.70683 3.00015,2.81243 6.32904,5.38007 10.17837,6.82689 1.92467,0.72341 3.96738,1.1568 6.02344,1.17314 2.05606,0.0163 4.12567,-0.39117 5.97994,-1.27963 2.78936,-1.3365 4.9773,-3.69499 6.66814,-6.28494 1.69084,-2.58996 2.94153,-5.43604 4.32854,-8.20063 2.32097,-4.62616 5.05018,-9.07673 6.76446,-13.96033 0.81935,-2.33414 1.40216,-4.76962 1.48338,-7.24206 0.0812,-2.47244 -0.35545,-4.98903 -1.48338,-7.19069 -1.5342,-2.99469 -4.27047,-5.25219 -7.30439,-6.7073 -3.03391,-1.4551 -6.36806,-2.16986 -9.696,-2.66661 -4.80264,-0.71688 -9.75953,-0.99716 -14.47142,0.17648 -4.4316,1.10382 -8.48719,3.33331 -12.56539,5.38897 l -7.55558,3.80846 z"
       id="path9893"
       inkscape:path-effect="#path-effect9895"
       inkscape:original-d="m 177.68176,222.83463 c 0,0 -0.17435,17.62772 0.53154,20.45142 0.70597,2.8237 7.4122,13.2361 11.11835,15.70683 3.70606,2.47074 21.06801,10.97005 22.18175,6.7204 1.11374,-4.24966 9.23191,-11.30891 10.99668,-14.48557 1.76484,-3.17667 8.7639,-9.21364 6.76446,-13.96033 -1.99944,-4.74669 4.11719,-13.52994 0,-14.43275 -4.11719,-0.90281 -13.11779,-9.02095 -17.00039,-9.37391 -3.88251,-0.35297 -10.23584,-1.23538 -14.47142,0.17648 -4.23559,1.41185 -12.56539,5.38897 -12.56539,5.38897 z"
       inkscape:connector-curvature="0" />
    <g
       id="g9874"
       style="stroke:#ffd700;stroke-width:13.07274914;stroke-linejoin:round;stroke-miterlimit:4;stroke-dasharray:none;stroke-opacity:1"
       transform="matrix(0.84144504,0,0,0.84144504,1116.6268,17.531941)">
      <path
         inkscape:connector-curvature="0"
         id="rect12207"
         transform="translate(25.303685,35.763622)"
         d="m -1127.6719,107.34961 0,87.37109 34.3047,0 0,-87.37109 -34.3047,0 z m -100.875,100.875 0,34.30469 87.3711,0 0,-34.30469 -87.3711,0 z m 148.6856,0 0,34.30469 87.37107,0 0,-34.30469 -87.37107,0 z m -47.8106,47.81055 0,87.37109 34.3047,0 0,-87.37109 -34.3047,0 z"
         style="opacity:1;fill:#000000;fill-opacity:1;fill-rule:nonzero;stroke:#ffd700;stroke-width:13.07274914;stroke-linecap:round;stroke-linejoin:round;stroke-miterlimit:4;stroke-dasharray:none;stroke-dashoffset:0;stroke-opacity:1" />
      <path
         sodipodi:nodetypes="cccccccccc"
         inkscape:connector-curvature="0"
         id="rect12207-8"
         d="m -1172.6371,109.72127 4.6408,49.31148 17.8719,-10.31835 17.872,-10.31836 z m 134.4601,274.16517 40.38467,28.67478 -4.64077,-49.3115 -17.8719,10.31837 z"
         style="opacity:1;fill:#000000;fill-opacity:1;fill-rule:nonzero;stroke:#ffd700;stroke-width:13.07274914;stroke-linecap:round;stroke-linejoin:round;stroke-miterlimit:4;stroke-dasharray:none;stroke-dashoffset:0;stroke-opacity:1" />
      <path
         sodipodi:nodetypes="cccccccccc"
         inkscape:connector-curvature="0"
         id="rect12207-7-3"
         d="m -1236.6347,348.56361 49.3115,-4.64078 -10.3183,-17.87191 -10.3184,-17.87193 z m 274.1652,-134.46012 28.67478,-40.38461 -49.3115,4.64077 10.31836,17.87193 z"
         style="opacity:1;fill:#000000;fill-opacity:1;fill-rule:nonzero;stroke:#ffd700;stroke-width:13.07274914;stroke-linecap:round;stroke-linejoin:round;stroke-miterlimit:4;stroke-dasharray:none;stroke-dashoffset:0;stroke-opacity:1" />
      <path
         sodipodi:nodetypes="cccccccccc"
         inkscape:connector-curvature="0"
         id="rect12207-8-8"
         d="m -997.79233,109.72127 -4.64077,49.31148 -17.8719,-10.31835 -17.872,-10.31836 z m -134.46017,274.16517 -40.3846,28.67477 4.6408,-49.31149 17.8719,10.31836 z"
         style="opacity:1;fill:#000000;fill-opacity:1;fill-rule:nonzero;stroke:#ffd700;stroke-width:13.07274914;stroke-linecap:round;stroke-linejoin:round;stroke-miterlimit:4;stroke-dasharray:none;stroke-dashoffset:0;stroke-opacity:1" />
      <path
         sodipodi:nodetypes="cccccccccc"
         inkscape:connector-curvature="0"
         id="rect12207-7-3-3"
         d="m -933.79472,348.56361 -49.31148,-4.64078 10.31835,-17.87191 10.31838,-17.87194 z m -274.16518,-134.46012 -28.6748,-40.38461 49.3115,4.64076 -10.3183,17.87194 z"
         style="opacity:1;fill:#000000;fill-opacity:1;fill-rule:nonzero;stroke:#ffd700;stroke-width:13.07274914;stroke-linecap:round;stroke-linejoin:round;stroke-miterlimit:4;stroke-dasharray:none;stroke-dashoffset:0;stroke-opacity:1" />
      <path
         id="rect12207-7"
         d="m -1013.8862,165.5529 -61.7807,61.78069 24.2571,24.25709 61.78071,-61.78069 -24.25711,-24.25709 z m -142.6588,0 -24.257,24.25708 61.7806,61.7807 24.2571,-24.25708 -61.7807,-61.7807 z m 105.1366,105.1366 -24.2571,24.25708 61.7807,61.78065 24.25707,-24.25708 -61.78067,-61.78065 z m -67.6143,-4e-5 -61.7807,61.78069 24.2571,24.25708 61.7807,-61.78069 -24.2571,-24.25708 z"
         style="opacity:1;fill:#000000;fill-opacity:1;fill-rule:nonzero;stroke:#ffd700;stroke-width:13.07274914;stroke-linecap:round;stroke-linejoin:round;stroke-miterlimit:4;stroke-dasharray:none;stroke-dashoffset:0;stroke-opacity:1"
         inkscape:connector-curvature="0" />
      <path
         sodipodi:nodetypes="cccccccccc"
         inkscape:connector-curvature="0"
         id="rect12207-7-3-3-5"
         d="m -1085.2156,435.98549 -20.6367,-45.02538 20.6367,0 20.6367,1e-5 z m -20.6367,-304.66407 20.6367,-45.02542 20.6367,45.0254 -20.6367,6e-5 z"
         style="opacity:1;fill:#000000;fill-opacity:1;fill-rule:nonzero;stroke:#ffd700;stroke-width:13.07274914;stroke-linecap:round;stroke-linejoin:round;stroke-miterlimit:4;stroke-dasharray:none;stroke-dashoffset:0;stroke-opacity:1" />
      <path
         sodipodi:nodetypes="cccccccccc"
         inkscape:connector-curvature="0"
         id="rect12207-7-3-3-5-9"
         d="m -1260.0603,261.14074 45.0253,-20.6367 0,20.6367 0,20.6367 z m 304.66402,-20.6367 45.02542,20.6367 -45.02539,20.6367 -6e-5,-20.6367 z"
         style="opacity:1;fill:#000000;fill-opacity:1;fill-rule:nonzero;stroke:#ffd700;stroke-width:13.07274914;stroke-linecap:round;stroke-linejoin:round;stroke-miterlimit:4;stroke-dasharray:none;stroke-dashoffset:0;stroke-opacity:1" />
    </g>
    <path
       style="opacity:1;fill:#000000;fill-opacity:1;fill-rule:nonzero;stroke:#000000;stroke-width:2.99999976;stroke-linecap:round;stroke-linejoin:round;stroke-miterlimit:4;stroke-dasharray:none;stroke-dashoffset:0;stroke-opacity:1"
       d="M 203.47752,116.75189 A 120.51581,120.51581 0 0 0 82.961887,237.26752 120.51581,120.51581 0 0 0 203.47752,357.78316 120.51581,120.51581 0 0 0 323.99315,237.26752 120.51581,120.51581 0 0 0 203.47752,116.75189 Z m 0,27.71509 a 92.799473,92.799473 0 0 1 92.79887,92.80054 92.799473,92.799473 0 0 1 -92.79887,92.79889 92.799473,92.799473 0 0 1 -92.80054,-92.79889 92.799473,92.799473 0 0 1 92.80054,-92.80054 z m 0,55.27406 a 37.526381,37.526381 0 0 0 -37.52652,37.52648 37.526381,37.526381 0 0 0 37.52652,37.52647 37.526381,37.526381 0 0 0 37.52643,-37.52647 37.526381,37.526381 0 0 0 -37.52643,-37.52648 z m 0,20.07143 a 17.455566,17.455566 0 0 1 17.45502,17.45505 17.455566,17.455566 0 0 1 -17.45502,17.45506 17.455566,17.455566 0 0 1 -17.45511,-17.45506 17.455566,17.455566 0 0 1 17.45511,-17.45505 z"
       id="path12160"
       inkscape:connector-curvature="0" />
    <path
       style="fill:#000000;fill-rule:evenodd;stroke:#000000;stroke-width:1px;stroke-linecap:butt;stroke-linejoin:miter;stroke-opacity:1"
       d="m 303.27148,478.61523 0,4.83399 -4.7539,0 0,6.13672 4.7539,0 0,7.67968 -7.1914,0 -24.39453,57.51563 8,0 0,44.50977 0,33.36914 c -0.32467,-0.029 -0.65767,0.0339 -0.94922,0.17968 -0.29155,0.14578 -0.54131,0.3752 -0.71289,0.65235 -0.2594,0.41899 -0.33072,0.92177 -0.48242,1.39062 -0.0759,0.23443 -0.17357,0.46418 -0.32032,0.66211 -0.14674,0.19793 -0.34743,0.36413 -0.58203,0.43946 -0.2438,0.0783 -0.51077,0.0549 -0.7539,-0.0254 -0.24314,-0.0803 -0.46536,-0.21542 -0.67579,-0.36132 -0.21042,-0.14591 -0.41269,-0.30345 -0.63086,-0.4375 -0.21816,-0.13406 -0.45396,-0.24414 -0.70703,-0.28321 -0.39375,-0.0608 -0.80639,0.0591 -1.1289,0.29297 -0.32252,0.23392 -0.55825,0.57417 -0.70313,0.94531 -0.28975,0.74229 -0.21979,1.57246 -0.10742,2.36133 0.13283,0.93244 0.31867,1.85774 0.55469,2.76953 l -16.33985,-1.38476 c -1.10957,1.08166 -1.9688,2.41846 -2.49218,3.87695 -0.7951,2.21566 -0.7951,4.70621 0,6.92188 -1.18977,-0.19032 -2.39473,-0.28346 -3.59961,-0.27735 -1.04123,0.005 -2.11351,0.0932 -3.04688,0.55469 -0.6485,0.32067 -1.19886,0.80746 -1.71875,1.31055 -0.51988,0.50308 -1.02009,1.0312 -1.60351,1.45898 -1.25902,0.92316 -2.88632,1.32949 -4.43164,1.10742 l -9.41407,-1.10742 c 0.50957,1.69904 0.69736,3.49382 0.55274,5.26172 -0.1008,1.23224 -0.36324,2.45478 -0.83008,3.59961 -0.17732,0.43484 -0.38409,0.86006 -0.6543,1.24414 -0.27021,0.38408 -0.60668,0.72652 -1.00781,0.9707 -0.60138,0.36608 -1.31913,0.49545 -1.9375,0.83203 -0.70534,0.38394 -1.25777,1.04088 -1.51172,1.80274 -0.25395,0.76185 -0.20697,1.61926 0.12695,2.34961 l -16.0625,-0.55274 c -1.55584,0.12478 -3.05734,0.82521 -4.15234,1.9375 -0.87514,0.88897 -1.48566,2.02149 -1.83594,3.21875 -0.35027,1.19727 -0.44843,2.45946 -0.38086,3.70508 0.0702,1.29455 0.31692,2.58112 0.27735,3.87695 -0.02,0.65378 -0.11346,1.30431 -0.27735,1.9375 l -34.12109,-1.9121 c 52.49719,34.29458 115.32729,54.25384 182.64063,54.29101 86.41134,-0.10461 165.48205,-33.07023 224.75586,-87.06641 -4.1002,-0.99761 -8.20104,-1.99253 -12.30079,-2.99218 -5.6564,-1.37923 -11.42551,-2.77039 -17.23242,-2.34961 -2.16204,0.15666 -4.33729,0.57619 -6.26562,1.5664 -1.87668,0.96369 -3.48673,2.44885 -5.48243,3.13282 -1.49321,0.51175 -3.10958,0.5386 -4.68359,0.41992 -1.574,-0.11868 -3.13694,-0.37731 -4.71484,-0.41992 -1.82821,-0.0494 -3.6637,0.19239 -5.48242,0 -1.65497,-0.17508 -3.27216,-0.71349 -4.70118,-1.56641 l -18.79687,0 c -3.43427,-1.11445 -6.49883,-3.34179 -8.61719,-6.26562 -0.77738,-1.07298 -1.43074,-2.23729 -2.27344,-3.25977 -0.84269,-1.02248 -1.91953,-1.91782 -3.20898,-2.22266 -1.29378,-0.30585 -2.65124,0.0108 -3.97656,-0.0937 -1.87855,-0.14819 -3.6648,-1.19961 -4.70703,-2.76953 l -3.34571,1.0586 -4.13086,-3.27344 c -0.66014,-0.0459 -1.30662,-0.28071 -1.84179,-0.66992 -0.53517,-0.38922 -0.95802,-0.93104 -1.20508,-1.54493 -0.253,-0.62863 -0.32075,-1.3136 -0.42969,-1.98242 -0.10894,-0.66882 -0.27108,-1.35247 -0.67773,-1.89453 -0.43993,-0.58641 -1.1192,-0.94458 -1.80664,-1.19922 -0.68744,-0.25463 -1.40755,-0.42694 -2.07032,-0.74023 -0.89838,-0.42467 -1.67048,-1.10617 -2.21484,-1.9375 -0.63459,-0.96912 -0.96094,-2.12478 -1.66211,-3.04688 -0.91191,-1.19923 -2.36387,-1.8825 -3.32227,-3.04492 -0.81941,-0.99385 -1.22834,-2.31897 -1.10937,-3.60156 -0.92159,0.0642 -1.84599,0.0642 -2.76758,0 -0.943,-0.0657 -1.89245,-0.20016 -2.76953,-0.55274 -0.62503,-0.25124 -1.20824,-0.61261 -1.69141,-1.08203 -0.48316,-0.46941 -0.86479,-1.04852 -1.07812,-1.6875 -0.23944,-0.71719 -0.26302,-1.4842 -0.31836,-2.23828 -0.0553,-0.75408 -0.15041,-1.52916 -0.51172,-2.19336 -0.23867,-0.43874 -0.58607,-0.81117 -0.97461,-1.125 -0.38854,-0.31383 -0.81912,-0.57018 -1.25586,-0.8125 -0.87347,-0.48463 -1.79822,-0.93066 -2.47851,-1.66211 -0.79478,-0.85453 -1.17206,-2.00751 -1.48829,-3.13086 -0.31623,-1.12334 -0.60734,-2.28552 -1.28124,-3.23828 -0.61893,-0.87502 -1.51953,-1.51113 -2.45118,-2.04101 -0.93164,-0.52989 -1.91358,-0.97192 -2.81054,-1.5586 -1.86613,-1.22058 -3.33342,-3.09913 -3.87696,-5.26171 -0.31821,-1.2661 -0.31821,-2.61087 0,-3.87696 l -0.83008,-1.66211 -37.09179,0.13477 -5.55469,-3.17969 -1.9375,-2.49219 c 0.005,-0.46152 0.005,-0.92324 0,-1.38476 -0.0184,-1.84887 -0.11127,-3.69758 -0.27734,-5.53906 l -44.72461,0 0,-11.14063 8,0 -24.39649,-57.51563 -7.18945,0 0,-7.67968 4.75391,0 0,-6.13672 -4.75391,0 0,-4.83399 z"
       transform="translate(25.303685,35.763622)"
       id="path9957"
       inkscape:connector-curvature="0"
       sodipodi:nodetypes="cccccccccccsccccccccccsccscccssccsssscsccssccccccssssscsccsssccccscsscsssscscsscsssssccsscccccccccccccccccc" />
  </g>
</svg>
