<svg xmlns="http://www.w3.org/2000/svg" version="1.0" width="402.484" height="480.059"><path d="M200 477V2h198v278c0 109.138-88.308 197-198 197z" style="fill:#fff;fill-opacity:1;fill-rule:nonzero;stroke:none;stroke-width:3;marker:none;visibility:visible;display:inline;overflow:visible;enable-background:accumulate" transform="translate(5 5.03) scale(.98121)"/><path d="M200 477V2H2v278c0 109.138 88.308 197 198 197z" style="fill:#f50000;fill-opacity:1;fill-rule:nonzero;stroke:none;stroke-width:3;marker:none;visibility:visible;display:inline;overflow:visible;enable-background:accumulate" transform="translate(5 5.03) scale(.98121)"/><path d="M331 2v192h67v63h-67v170.938a197.469 197.469 0 0 1-63 37.218V257h-68v-63h68V2h63z" style="fill:#000;fill-opacity:1;fill-rule:nonzero;stroke:none;stroke-width:3;marker:none;visibility:visible;display:inline;overflow:visible;enable-background:accumulate" transform="translate(5 5.03) scale(.98121)"/><path d="M200 477V2M200 477C90.308 477 2 389.138 2 280V2h396v278c0 109.138-88.308 197-198 197z" style="fill:none;stroke:#000;stroke-width:4;stroke-linecap:round;stroke-linejoin:miter;stroke-miterlimit:4;stroke-opacity:1;stroke-dasharray:none;stroke-dashoffset:0;marker:none;visibility:visible;display:inline;overflow:visible;enable-background:accumulate" transform="translate(5 5.03) scale(.98121)"/><path transform="matrix(-.44248 .87578 -.44248 -.87578 5 5.03)" style="fill:#fff;fill-opacity:1;fill-rule:evenodd;stroke:#000;stroke-width:4.4582295418" d="M-2.198-285.417h65.864v65.864H-2.198zM-117.956-269.447h65.864v65.864h-65.864zM-18.168-169.659h65.864v65.864h-65.864z"/></svg>