<?xml version="1.0" encoding="UTF-8" standalone="no"?>
<!-- Created with Inkscape (http://www.inkscape.org/) -->

<svg
   xmlns:dc="http://purl.org/dc/elements/1.1/"
   xmlns:cc="http://creativecommons.org/ns#"
   xmlns:rdf="http://www.w3.org/1999/02/22-rdf-syntax-ns#"
   xmlns:svg="http://www.w3.org/2000/svg"
   xmlns="http://www.w3.org/2000/svg"
   xmlns:sodipodi="http://sodipodi.sourceforge.net/DTD/sodipodi-0.dtd"
   xmlns:inkscape="http://www.inkscape.org/namespaces/inkscape"
   width="197.93207mm"
   height="209.34358mm"
   viewBox="0 0 701.3341 741.76859"
   id="svg5976"
   version="1.1"
   inkscape:version="0.91 r13725"
   sodipodi:docname="DEU Fiersbach COA.svg">
  <defs
     id="defs5978">
    <inkscape:path-effect
       effect="spiro"
       id="path-effect7899"
       is_visible="true" />
    <inkscape:path-effect
       effect="spiro"
       id="path-effect7880"
       is_visible="true" />
    <inkscape:path-effect
       effect="spiro"
       id="path-effect7874"
       is_visible="true" />
    <inkscape:path-effect
       effect="spiro"
       id="path-effect7870"
       is_visible="true" />
    <inkscape:path-effect
       effect="spiro"
       id="path-effect7801"
       is_visible="true" />
    <inkscape:path-effect
       effect="spiro"
       id="path-effect7722"
       is_visible="true" />
    <inkscape:path-effect
       effect="spiro"
       id="path-effect7681"
       is_visible="true" />
    <inkscape:path-effect
       effect="spiro"
       id="path-effect7677"
       is_visible="true" />
    <inkscape:path-effect
       effect="spiro"
       id="path-effect14221-9"
       is_visible="true" />
    <inkscape:path-effect
       effect="spiro"
       id="path-effect14221-1-5"
       is_visible="true" />
    <inkscape:path-effect
       effect="spiro"
       id="path-effect4876"
       is_visible="true" />
    <inkscape:path-effect
       effect="spiro"
       id="path-effect4876-9"
       is_visible="true" />
    <inkscape:path-effect
       effect="spiro"
       id="path-effect7681-2"
       is_visible="true" />
    <inkscape:path-effect
       effect="spiro"
       id="path-effect7681-2-8"
       is_visible="true" />
  </defs>
  <sodipodi:namedview
     id="base"
     pagecolor="#ffffff"
     bordercolor="#666666"
     borderopacity="1.0"
     inkscape:pageopacity="0.0"
     inkscape:pageshadow="2"
     inkscape:zoom="0.72798892"
     inkscape:cx="350.66705"
     inkscape:cy="370.88383"
     inkscape:document-units="px"
     inkscape:current-layer="layer1"
     showgrid="false"
     inkscape:window-width="1366"
     inkscape:window-height="745"
     inkscape:window-x="-8"
     inkscape:window-y="-8"
     inkscape:window-maximized="1"
     fit-margin-top="0"
     fit-margin-left="0"
     fit-margin-right="0"
     fit-margin-bottom="0"
     inkscape:snap-midpoints="true"
     inkscape:snap-smooth-nodes="true"
     inkscape:object-nodes="true"
     inkscape:snap-nodes="false" />
  <metadata
     id="metadata5981">
    <rdf:RDF>
      <cc:Work
         rdf:about="">
        <dc:format>image/svg+xml</dc:format>
        <dc:type
           rdf:resource="http://purl.org/dc/dcmitype/StillImage" />
        <dc:title></dc:title>
      </cc:Work>
    </rdf:RDF>
  </metadata>
  <g
     inkscape:label="Ebene 1"
     inkscape:groupmode="layer"
     id="layer1"
     transform="translate(-16.017985,-46.083241)">
    <path
       style="fill:#ffd700;fill-opacity:1;fill-rule:evenodd;stroke:none;stroke-width:11;stroke-opacity:1"
       inkscape:connector-curvature="0"
       d="m 21.697705,51.583241 13.398,416.624409 c 7.415,175.24977 153.919805,314.04607 331.589245,314.14417 177.50971,-0.2149 324.06941,-139.0612 331.58942,-314.14417 l 13.39799,-416.624409 -344.97941,0 z"
       id="path10563-0-32" />
    <path
       style="fill:#0033ff;fill-opacity:1;fill-rule:evenodd;stroke:#000000;stroke-width:5;stroke-linecap:butt;stroke-linejoin:round;stroke-miterlimit:4;stroke-dasharray:none;stroke-opacity:1"
       d="m 689.13086,5.5 c -7.03175,13.087278 -11.67574,28.114359 -22.26953,38.478516 -10.951,10.71362 -26.89675,14.67806 -40.29492,22.107422 -13.38179,7.42027 -29.25459,11.592366 -40.04493,22.441406 -10.79804,10.85679 -14.81468,26.801976 -22.24023,40.193356 -7.42386,13.38837 -11.48174,29.32135 -22.30664,40.14649 -10.82455,10.82479 -26.75668,14.88286 -40.14453,22.30664 -13.3913,7.42569 -29.3366,11.44412 -40.19336,22.24219 -10.84904,10.79034 -15.02293,26.66124 -22.44336,40.04296 -7.42926,13.39765 -11.39208,29.34244 -22.10547,40.29297 -10.68424,10.92072 -26.33042,15.51055 -39.69141,22.91993 -8.5087,4.71852 -18.02394,7.97336 -26.72851,12.36914 l 0,42.24609 14.26172,0 c 0.79355,-0.80687 1.60024,-1.60217 2.43554,-2.37109 11.29184,-10.39447 27.22646,-14.18181 40.64844,-21.625 13.36122,-7.4095 29.0072,-12.00079 39.69141,-22.92188 10.71321,-10.95073 14.67622,-26.89531 22.10547,-40.29297 7.42043,-13.38173 11.59433,-29.25458 22.44336,-40.04492 10.85679,-10.79804 26.80206,-14.81454 40.19336,-22.24023 13.38785,-7.42378 29.31803,-11.48381 40.14257,-22.3086 10.82491,-10.82514 14.88473,-26.75616 22.3086,-40.14453 7.42554,-13.39137 11.44216,-29.3366 22.24023,-40.19336 10.79033,-10.84904 26.66312,-15.02309 40.04492,-22.443358 11.78548,-6.535115 25.53836,-10.392856 36.13282,-18.517578 L 695.6543,5.5 Z"
       transform="translate(16.017985,46.083241)"
       id="path22299"
       inkscape:connector-curvature="0"
       sodipodi:nodetypes="csssssssssscccssssssssssccc" />
    <path
       style="opacity:1;fill:#ff0000;fill-opacity:1;fill-rule:nonzero;stroke:#000000;stroke-width:11;stroke-linecap:round;stroke-linejoin:round;stroke-miterlimit:4;stroke-dasharray:none;stroke-dashoffset:0;stroke-opacity:1"
       d="M 5.6796875 5.5 L 17.443359 371.28711 L 350.66797 371.28711 L 350.66797 5.5 L 5.6796875 5.5 z M 350.66797 371.28711 L 350.66797 736.26953 C 528.17679 736.05361 674.73588 597.20733 682.25586 422.125 L 683.89062 371.28711 L 350.66797 371.28711 z "
       id="rect7381"
       transform="translate(16.017985,46.083241)" />
    <path
       style="fill:none;fill-rule:evenodd;stroke:#000000;stroke-width:11;stroke-opacity:1"
       inkscape:connector-curvature="0"
       d="m 21.6977,51.583241 13.398,416.624409 c 7.415,175.24977 153.9198,314.04607 331.58926,314.14417 177.5097,-0.2149 324.0694,-139.0612 331.5894,-314.14417 l 13.398,-416.624409 -344.9794,0 z"
       id="path10563-0" />
    <g
       transform="matrix(1.0934814,0,0,1.0932295,-50.52555,-647.93804)"
       id="g7462">
      <g
         transform="matrix(0.91670068,0,0,0.91692401,693.90583,102.20153)"
         id="g24170">
        <g
           id="g24124"
           transform="matrix(0.97717764,0,0,0.93610078,463.11723,214.12555)">
          <path
             id="path7848"
             d="m -933.43549,435.92594 c -0.23143,1.63603 -0.1213,3.36967 0.31401,4.91616 0.63619,2.26006 1.97812,4.08113 3.57659,4.85578 l -0.57852,6.82338 -4.93815,2.15624 c -0.93578,-2.09539 -1.68913,-4.36205 -2.23455,-6.72906 -0.36275,-1.57424 -0.63628,-3.22578 -0.54724,-4.88031 0.1,-1.85804 0.6737,-3.65563 1.58438,-4.97274 0.76503,-1.10647 1.76186,-1.87186 2.82348,-2.16945 z"
             style="fill:#ffd700;fill-opacity:1;fill-rule:evenodd;stroke:#000000;stroke-width:2.08612394;stroke-linecap:butt;stroke-linejoin:round;stroke-miterlimit:4;stroke-dasharray:none;stroke-opacity:1"
             inkscape:connector-curvature="0" />
          <path
             id="path7846"
             d="m -910.90366,439.31028 c 0.96404,0.059 1.91839,0.48658 2.73097,1.2413 0.91016,0.84535 1.63991,2.09174 2.06777,3.52959 -1.15332,0.0226 -2.29924,0.5495 -3.24954,1.49598 -1.38877,1.38319 -2.33133,3.6706 -2.51208,6.09708 l -4.72708,0.6414 -2.51077,-6.52343 c 1.21357,-1.7717 2.58225,-3.32152 4.06257,-4.59923 0.98455,-0.84977 2.03994,-1.58871 3.17528,-1.81667 0.31876,-0.064 0.64153,-0.0857 0.96288,-0.066 z"
             style="fill:#ffd700;fill-opacity:1;fill-rule:evenodd;stroke:#000000;stroke-width:2.08612394;stroke-linecap:butt;stroke-linejoin:round;stroke-miterlimit:4;stroke-dasharray:none;stroke-opacity:1"
             inkscape:connector-curvature="0" />
          <path
             id="path7844"
             d="m -904.42021,462.47052 c 0.28526,-0.005 0.57063,0.0156 0.85473,0.0698 1.2762,0.24305 2.48451,1.16592 3.34467,2.5524 0.72259,1.16473 1.19825,2.64671 1.34724,4.19741 -1.11612,-0.42132 -2.31881,-0.35314 -3.4085,0.1943 -1.5925,0.80002 -2.91851,2.64234 -3.5375,4.91238 l -4.67627,-1.19602 -1.22477,-7.25538 c 1.4948,-1.24191 3.09822,-2.20996 4.75966,-2.8731 0.82874,-0.33077 1.68496,-0.58581 2.54074,-0.60178 z"
             style="fill:#ffd700;fill-opacity:1;fill-rule:evenodd;stroke:#000000;stroke-width:2.08612394;stroke-linecap:butt;stroke-linejoin:round;stroke-miterlimit:4;stroke-dasharray:none;stroke-opacity:1"
             inkscape:connector-curvature="0" />
          <path
             id="path7840"
             d="m -912.15318,487.89831 c 0.7424,2.19109 2.16649,3.87299 3.79808,4.48603 1.11644,0.41951 2.31793,0.34924 3.40721,-0.19996 -0.0629,1.56298 -0.45417,3.09421 -1.11012,4.33889 -0.78081,1.48163 -1.93483,2.54342 -3.19351,2.93346 -1.12084,0.34734 -2.28922,0.17397 -3.41503,-0.13771 -1.69275,-0.46863 -3.34438,-1.24795 -4.90298,-2.31281 l 0.82216,-7.37423 4.59419,-1.73367 z"
             style="fill:#ffd700;fill-opacity:1;fill-rule:evenodd;stroke:#000000;stroke-width:2.08612394;stroke-linecap:butt;stroke-linejoin:round;stroke-miterlimit:4;stroke-dasharray:none;stroke-opacity:1"
             inkscape:connector-curvature="0" />
          <path
             id="path7838"
             d="m -910.68477,558.37509 c 0.80427,0.009 1.60844,0.27091 2.33358,0.77535 0.97467,0.67802 1.80452,1.7858 2.35051,3.1372 -1.14277,0.22647 -2.23641,0.95255 -3.0997,2.06003 -1.26166,1.61849 -2.00323,4.05486 -1.97788,6.49514 l -4.63848,1.47333 -3.04238,-6.03105 c 1.05499,-1.97311 2.28291,-3.75215 3.64434,-5.28214 0.90547,-1.01756 1.89047,-1.94045 2.99808,-2.36752 0.46643,-0.17986 0.94938,-0.26547 1.43193,-0.26034 z"
             style="fill:#ffd700;fill-opacity:1;fill-rule:evenodd;stroke:#000000;stroke-width:2.08612394;stroke-linecap:butt;stroke-linejoin:round;stroke-miterlimit:4;stroke-dasharray:none;stroke-opacity:1"
             inkscape:connector-curvature="0" />
          <path
             id="path7836"
             d="m -899.02602,580.07332 c 0.21451,-0.0124 0.42863,-0.013 0.64235,0.002 0.28496,0.0199 0.56953,0.0661 0.85083,0.14526 1.26359,0.35524 2.43112,1.38499 3.2313,2.8448 0.67221,1.22636 1.08403,2.74584 1.16744,4.30681 -1.0963,-0.51904 -2.29909,-0.55587 -3.4098,-0.10563 -1.62323,0.65798 -3.02473,2.38049 -3.73815,4.59168 l -4.61634,-1.60917 -0.91858,-7.34782 c 1.54431,-1.10767 3.18544,-1.93338 4.87171,-2.44864 0.63086,-0.19276 1.27572,-0.34168 1.91924,-0.37918 z"
             style="fill:#ffd700;fill-opacity:1;fill-rule:evenodd;stroke:#000000;stroke-width:2.08612394;stroke-linecap:butt;stroke-linejoin:round;stroke-miterlimit:4;stroke-dasharray:none;stroke-opacity:1"
             inkscape:connector-curvature="0" />
          <path
             id="path7834"
             d="m -908.61178,600.50761 c 1.48857,1.25748 2.8662,2.78943 4.09125,4.54452 0.81475,1.16728 1.57503,2.46119 2.01174,3.99555 0.49044,1.7231 0.5397,3.70011 0.13812,5.47078 -0.33737,1.48747 -0.98805,2.82448 -1.84237,3.78426 -0.30392,-1.61098 -0.94416,-3.08726 -1.815,-4.18232 -1.27266,-1.60032 -3.03715,-2.34635 -4.70494,-1.99211 l -1.61174,-6.46683 3.73294,-5.15385 z"
             style="fill:#ffd700;fill-opacity:1;fill-rule:evenodd;stroke:#000000;stroke-width:2.08612394;stroke-linecap:butt;stroke-linejoin:round;stroke-miterlimit:4;stroke-dasharray:none;stroke-opacity:1"
             inkscape:connector-curvature="0" />
          <path
             id="path7832"
             d="m -923.26991,609.7004 4.07431,3.52959 c -0.55942,2.30223 -0.39041,4.95371 0.45082,7.06862 0.57562,1.44717 1.45342,2.63837 2.48732,3.37867 -0.81419,1.03031 -1.84434,1.69938 -2.91729,1.89402 -1.27722,0.2317 -2.60793,-0.21824 -3.68213,-1.24507 -0.95655,-0.91435 -1.68913,-2.24073 -2.32446,-3.62203 -0.95527,-2.07688 -1.72831,-4.32955 -2.29578,-6.68567 l 4.20721,-4.31813 z"
             style="fill:#ffd700;fill-opacity:1;fill-rule:evenodd;stroke:#000000;stroke-width:2.08612394;stroke-linecap:butt;stroke-linejoin:round;stroke-miterlimit:4;stroke-dasharray:none;stroke-opacity:1"
             inkscape:connector-curvature="0" />
          <path
             id="path7830"
             d="m -925.30511,670.27131 c 0.32148,0.0159 0.64188,0.0728 0.95636,0.17167 1.05676,0.33201 2.04062,1.13082 2.7883,2.26188 -1.07526,0.60425 -2.02184,1.67745 -2.68406,3.04476 -0.96779,1.99823 -1.29922,4.61672 -0.8834,6.98185 l -4.27496,2.99194 -3.92577,-4.84446 c 0.70991,-2.27372 1.61807,-4.41553 2.69709,-6.36119 0.71764,-1.29402 1.52923,-2.52317 2.53813,-3.31075 0.84976,-0.66336 1.82387,-0.98348 2.78831,-0.9357 z"
             style="fill:#ffd700;fill-opacity:1;fill-rule:evenodd;stroke:#000000;stroke-width:2.08612394;stroke-linecap:butt;stroke-linejoin:round;stroke-miterlimit:4;stroke-dasharray:none;stroke-opacity:1"
             inkscape:connector-curvature="0" />
          <path
             id="path7828"
             d="m -1051.3038,693.72396 c 1.2872,-0.0101 2.5709,0.66691 3.5532,1.87138 0.8251,1.01184 1.4359,2.38666 1.7289,3.89368 -1.1452,-0.19792 -2.3307,0.10735 -3.3589,0.864 -1.5027,1.1058 -2.6434,3.19247 -3.0437,5.56321 l -4.7454,-0.26787 -1.8944,-6.94601 c 1.3644,-1.52437 2.8618,-2.79864 4.4456,-3.78238 1.0534,-0.65425 2.1685,-1.18732 3.3147,-1.19601 z"
             style="fill:#ffd700;fill-opacity:1;fill-rule:evenodd;stroke:#000000;stroke-width:2.08612394;stroke-linecap:butt;stroke-linejoin:round;stroke-miterlimit:4;stroke-dasharray:none;stroke-opacity:1"
             inkscape:connector-curvature="0" />
          <path
             id="path7826"
             d="m -913.87568,696.42915 c 0.863,0.0302 1.72258,0.19149 2.52511,0.63763 1.20166,0.66805 2.22782,1.9754 2.84042,3.61449 0.51463,1.37694 0.7373,2.97879 0.63193,4.53698 -1.01725,-0.78724 -2.19678,-1.12764 -3.34466,-0.964 -1.67753,0.23915 -3.26508,1.58272 -4.23327,3.58053 l -4.35314,-2.74671 -0.0209,-7.46855 c 1.65384,-0.70186 3.36944,-1.10004 5.09191,-1.18282 0.2864,-0.0137 0.57489,-0.0174 0.86255,-0.008 z"
             style="fill:#ffd700;fill-opacity:1;fill-rule:evenodd;stroke:#000000;stroke-width:2.08612394;stroke-linecap:butt;stroke-linejoin:round;stroke-miterlimit:4;stroke-dasharray:none;stroke-opacity:1"
             inkscape:connector-curvature="0" />
          <path
             id="path7824"
             d="m -1085.5205,714.09221 5.0151,1.745 0.8456,6.76488 c -1.5653,0.90537 -2.8324,2.83363 -3.3785,5.14253 -0.3737,1.57992 -0.4154,3.32077 -0.1199,4.93503 -1.0716,-0.20946 -2.0969,-0.89212 -2.9042,-1.93364 -0.9611,-1.23978 -1.6043,-2.98639 -1.7773,-4.83314 -0.154,-1.64448 0.055,-3.31642 0.3544,-4.91805 0.4514,-2.40819 1.1131,-4.73338 1.9648,-6.90261 z"
             style="fill:#ffd700;fill-opacity:1;fill-rule:evenodd;stroke:#000000;stroke-width:2.08612394;stroke-linecap:butt;stroke-linejoin:round;stroke-miterlimit:4;stroke-dasharray:none;stroke-opacity:1"
             inkscape:connector-curvature="0" />
          <path
             id="path7822"
             d="m -929.08105,714.93924 c 1.4303,1.39206 2.73865,3.04611 3.88408,4.9105 0.76181,1.23997 1.46224,2.60139 1.83064,4.17288 0.41373,1.76479 0.37696,3.74259 -0.10163,5.47266 -0.40204,1.45338 -1.11046,2.72591 -2.00523,3.60505 -0.2325,-1.63572 -0.80643,-3.16583 -1.62738,-4.33889 -1.19975,-1.71433 -2.92724,-2.62211 -4.60721,-2.42223 l -1.3251,-6.60078 3.95183,-4.79919 z"
             style="fill:#ffd700;fill-opacity:1;fill-rule:evenodd;stroke:#000000;stroke-width:2.08612394;stroke-linecap:butt;stroke-linejoin:round;stroke-miterlimit:4;stroke-dasharray:none;stroke-opacity:1"
             inkscape:connector-curvature="0" />
          <path
             id="path7820"
             d="m -943.69878,717.37468 3.41371,4.77655 c -0.90626,2.05782 -1.15815,4.6945 -0.67102,7.03088 0.33333,1.59874 0.99998,3.04941 1.89058,4.11063 -0.95466,0.73535 -2.06207,1.04649 -3.13749,0.88288 -1.28014,-0.19474 -2.50541,-1.06874 -3.39027,-2.42224 -0.78793,-1.20526 -1.29332,-2.73938 -1.69513,-4.29361 -0.60414,-2.33692 -1.00431,-4.78361 -1.18698,-7.26481 l 4.7766,-2.82028 z"
             style="fill:#ffd700;fill-opacity:1;fill-rule:evenodd;stroke:#000000;stroke-width:2.08612394;stroke-linecap:butt;stroke-linejoin:round;stroke-miterlimit:4;stroke-dasharray:none;stroke-opacity:1"
             inkscape:connector-curvature="0" />
          <path
             id="path7818"
             d="m -1053.8497,720.06102 c 1.6823,0.54158 3.3174,1.39236 4.8534,2.52411 1.0215,0.75268 2.0171,1.65125 2.7558,2.92025 0.8295,1.42509 1.2922,3.28646 1.2821,5.15008 -0.01,1.56558 -0.3471,3.12541 -0.959,4.41623 -0.6283,-1.40052 -1.5487,-2.5233 -2.6085,-3.18248 -1.5488,-0.96334 -3.3863,-0.89718 -4.9004,0.17544 l -2.8952,-5.44813 2.4718,-6.5555 z"
             style="fill:#ffd700;fill-opacity:1;fill-rule:evenodd;stroke:#000000;stroke-width:2.08612394;stroke-linecap:butt;stroke-linejoin:round;stroke-miterlimit:4;stroke-dasharray:none;stroke-opacity:1"
             inkscape:connector-curvature="0" />
          <path
             id="path12919-9-1"
             d="m -1068.887,725.95813 3.4619,5.53491 c -0.9063,2.1224 -1.9973,4.07836 -3.2404,5.80658 -0.8268,1.1494 -1.7412,2.21609 -2.8118,2.80896 -1.2022,0.6658 -2.5689,0.68505 -3.7811,0.0584 -1.0184,-0.52632 -1.9234,-1.50071 -2.5642,-2.76179 1.12,-0.39868 2.1545,-1.28791 2.9329,-2.52034 1.1375,-1.80108 1.699,-4.33626 1.4971,-6.75923 l 4.5056,-2.16756 z"
             style="fill:#ffd700;fill-opacity:1;fill-rule:evenodd;stroke:#000000;stroke-width:2.08612394;stroke-linecap:butt;stroke-linejoin:round;stroke-miterlimit:4;stroke-dasharray:none;stroke-opacity:1"
             inkscape:connector-curvature="0" />
          <path
             sodipodi:nodetypes="ccscsccccccssscscssscsccsccccscccccccccssssccscsscsscscsscccssscsscsscssscscscssccssscscscscccsccsssssscssccsccssccccccscscscsccscsccccccccssssssssscsscsccccccsccccscssssssssscsscssccscsscscsccssccccsssscsscsscscccsssscsccccscscccssssssccccssscccccssscsscssscscssccccssccssccscsscccscsscssscsccccssscsscsccssscsscssssscsssssssssccsccccc"
             id="path13220-5-7"
             d="m -916.75779,441.50425 c 0.20839,-0.01 0.41563,10e-4 0.6202,0.0585 0.20457,0.0571 0.40422,0.16203 0.57721,0.33013 0.17298,0.16809 0.31881,0.40133 0.4,0.67913 0.0897,0.30694 0.0975,0.65466 0.0573,0.98285 -0.0401,0.32818 -0.12684,0.63943 -0.2215,0.94324 -0.0947,0.3038 -0.19827,0.60322 -0.27622,0.91683 -0.0779,0.31359 -0.12971,0.64638 -0.11597,0.97907 0.0195,0.47394 0.17433,0.92499 0.40261,1.26583 0.22829,0.34083 0.52618,0.57539 0.8404,0.7112 0.62844,0.27159 1.30172,0.15943 1.95182,0.0339 0.38051,-0.0734 0.76464,-0.15095 1.14789,-0.11885 0.38324,0.0321 0.77077,0.18157 1.07493,0.52067 0.23621,0.26335 0.41334,0.6335 0.51466,1.03944 0.10132,0.40595 0.12927,0.84625 0.0964,1.27526 -0.0657,0.85802 -0.36835,1.6467 -0.74919,2.31094 -0.8212,1.43226 -1.99643,2.34724 -3.19612,3.01647 -0.59702,0.33302 -1.20865,0.61546 -1.78896,1.00549 -0.5803,0.39003 -1.13423,0.89775 -1.54398,1.60916 -0.30036,0.52147 -0.51666,1.14752 -0.61629,1.81102 -0.0996,0.66349 -0.0822,1.36391 0.0599,2.01098 0.2355,1.07225 0.81578,1.96567 1.52835,2.41468 0.74201,0.46756 1.61597,0.45759 2.36094,0 0.59317,-0.36438 1.09332,-0.98757 1.54789,-1.64878 0.45458,-0.66118 0.87578,-1.37172 1.3694,-1.97136 0.67502,-0.81999 1.49062,-1.42214 2.36224,-1.60916 0.38229,-0.0821 0.77753,-0.0836 1.1492,0.0698 0.37165,0.15341 0.71853,0.47136 0.9342,0.93569 0.17657,0.38011 0.25875,0.84371 0.25148,1.30167 -0.007,0.45795 -0.1014,0.90972 -0.25148,1.31299 -0.29851,0.80213 -0.80109,1.39597 -1.1961,2.10529 -0.1975,0.35467 -0.3708,0.74563 -0.46775,1.17905 -0.097,0.43342 -0.1126,0.91443 -0.003,1.34128 0.0969,0.37623 0.2857,0.69032 0.50423,0.93758 0.21854,0.24726 0.46714,0.43387 0.71533,0.6131 0.24818,0.17923 0.49868,0.35421 0.72574,0.58481 0.22705,0.2306 0.43183,0.52124 0.55505,0.88098 0.17467,0.50999 0.17172,1.11763 0.0704,1.66764 -0.10135,0.55003 -0.29393,1.05504 -0.48731,1.55069 -0.44156,1.13184 -0.92373,2.28614 -1.66646,3.01647 -0.68232,0.67093 -1.56679,0.91935 -2.36224,0.60369 -0.536,-0.21271 -1.01191,-0.66082 -1.45279,-1.15077 -0.44086,-0.48993 -0.85734,-1.02933 -1.32509,-1.4639 -0.66247,-0.61549 -1.43571,-1.01267 -2.22282,-1.00549 -0.44832,0.004 -0.90013,0.1417 -1.29643,0.4452 -0.3963,0.30351 -0.73469,0.77903 -0.92639,1.36582 -0.24514,0.75032 -0.23412,1.65514 0,2.41281 0.23601,0.76378 0.6803,1.36589 1.18437,1.77516 0.50408,0.40929 1.06696,0.63948 1.63259,0.81119 0.56563,0.17171 1.13986,0.28847 1.70165,0.48482 0.56179,0.19636 1.11706,0.47716 1.5935,0.95078 0.68764,0.68359 1.16987,1.72604 1.52836,2.81651 0.35422,1.07749 0.60666,2.26786 0.51726,3.45414 -0.0447,0.59314 -0.17558,1.17597 -0.40521,1.67141 -0.22963,0.49545 -0.56028,0.89899 -0.94594,1.10925 -0.33026,0.18006 -0.69063,0.21536 -1.04236,0.17356 -0.35172,-0.0418 -0.69738,-0.15745 -1.04105,-0.27355 -0.34367,-0.1161 -0.68933,-0.23366 -1.04105,-0.27542 -0.35173,-0.0417 -0.71212,-0.004 -1.04236,0.17544 -0.32138,0.17533 -0.60341,0.48215 -0.83389,0.85081 -0.23047,0.36866 -0.41213,0.79731 -0.56417,1.24318 -0.30408,0.89175 -0.4968,1.85778 -0.82476,2.73161 -0.2264,0.60322 -0.51972,1.16325 -0.89904,1.57521 -0.37932,0.41196 -0.85009,0.6683 -1.32378,0.63763 -0.57121,-0.037 -1.10772,-0.49369 -1.46712,-1.13754 -0.35941,-0.64387 -0.55213,-1.45813 -0.6163,-2.28075 -0.0864,-1.10782 0.0479,-2.22411 0.13681,-3.33152 0.0888,-1.1074 0.1287,-2.2605 -0.13681,-3.30699 -0.30083,-1.18577 -0.97797,-2.12338 -1.76287,-2.67501 -0.78492,-0.55163 -1.67086,-0.74396 -2.54336,-0.74328 -1.94303,0.002 -3.92414,1.00073 -5.27953,3.01647 -1.40171,2.08463 -2.034,5.18553 -1.66646,8.04582 0.25395,1.97638 0.95887,3.81262 1.94399,5.22931 1.12078,1.61178 2.60507,2.68534 4.16812,3.01647 -2.28037,1.03502 -4.70963,1.37958 -7.08542,1.00549 -2.38997,-0.37632 -4.72377,-1.48006 -6.80658,-3.21833 2.13288,2.32357 3.53386,6.00504 3.75118,9.85683 0.21353,3.78458 -0.71652,7.67507 -2.50035,10.45861 -0.8503,-3.4201 -2.18288,-6.58872 -3.8906,-9.25316 -0.61468,-0.95906 -1.28162,-1.85852 -2.04692,-2.55428 -0.7653,-0.69577 -1.63504,-1.18171 -2.53684,-1.26582 -0.60276,-0.0562 -1.21908,0.0708 -1.76679,0.43953 -0.54769,0.36876 -1.0234,0.98662 -1.28992,1.77141 -0.34073,1.00337 -0.3201,2.20344 -0.0951,3.27304 0.225,1.06957 0.6391,2.03425 1.06842,2.96364 1.30073,2.81589 2.79093,5.44704 4.44434,7.84396 -2.20748,0.90563 -4.57543,0.97446 -6.80659,0.19997 -2.1569,-0.7487 -4.18135,-2.28289 -5.83458,-4.42378 0.96068,2.42946 1.44696,5.24573 1.38894,8.04392 -0.0732,3.52987 -1.0232,7.0089 -2.63847,9.65498 0.0834,-3.06815 -0.80377,-6.16331 -2.36223,-8.24578 -1.41405,-1.8895 -3.35549,-2.92611 -5.27823,-2.8165 0.57978,0.99215 1.00873,2.16817 1.24951,3.42018 0.40826,2.12267 0.2567,4.45894 -0.41694,6.43476 -1.36725,-0.89217 -2.82155,-1.50251 -4.30623,-1.80913 -4.91675,-1.01546 -10.12211,1.52198 -13.61316,6.63661 l -15.9754,-27.35387 c 9.38543,1.1423 19.04292,-3.64252 25.9768,-12.87141 3.6251,-4.82498 6.55971,-10.81871 10.69718,-14.68432 3.58359,-3.34812 7.81229,-4.85611 11.93237,-6.45174 4.12008,-1.59562 8.32866,-3.41247 11.6835,-7.2252 1.7021,-1.93441 3.1264,-4.32085 4.58377,-6.63662 0.63826,-1.0142 1.29616,-2.04112 1.68861,-3.29001 0.19622,-0.62444 0.3218,-1.30054 0.33095,-1.98646 0.009,-0.6859 -0.10165,-1.38117 -0.3518,-1.96381 -0.22488,-0.52379 -0.55475,-0.94317 -0.91857,-1.26394 -0.36382,-0.32076 -0.76308,-0.5475 -1.16614,-0.74704 -0.59616,-0.29517 -1.20646,-0.5325 -1.78764,-0.88476 -0.58118,-0.35227 -1.14065,-0.83228 -1.54659,-1.52993 -0.5764,-0.9906 -0.79018,-2.32632 -0.83259,-3.62015 -0.0223,-0.68029 -10e-4,-1.37248 0.14333,-2.02041 0.14493,-0.64793 0.42431,-1.25176 0.82867,-1.59973 0.25283,-0.21757 0.5449,-0.32916 0.83779,-0.36786 0.29291,-0.0387 0.58869,-0.006 0.8808,0.0433 0.5842,0.0995 1.17611,0.27337 1.75506,0.12262 0.65044,-0.16939 1.22387,-0.7415 1.67038,-1.44694 0.44651,-0.70542 0.78067,-1.54153 1.1075,-2.37317 0.16681,-0.42446 0.33443,-0.85281 0.55636,-1.22055 0.22193,-0.36776 0.50485,-0.67683 0.83258,-0.79232 0.21984,-0.0775 0.45362,-0.0652 0.67232,0.0189 0.2187,0.0841 0.42226,0.23859 0.60196,0.43766 0.35941,0.39813 0.61485,0.96459 0.80913,1.55635 0.38506,1.1729 0.55201,2.47828 0.56939,3.77671 0.0174,1.29844 -0.10985,2.59335 -0.29056,3.86538 -0.11315,0.7965 -0.24817,1.61504 -0.13942,2.41281 0.0631,0.46297 0.2085,0.90106 0.41043,1.27148 0.20193,0.37043 0.45963,0.6742 0.74659,0.89797 0.57392,0.44752 1.25325,0.56859 1.89969,0.44709 0.75614,-0.14213 1.48081,-0.60948 2.06517,-1.31866 0.58436,-0.70917 1.02598,-1.6582 1.26777,-2.70519 0.25114,-1.08759 0.28611,-2.25281 0.27362,-3.39943 -0.0125,-1.14663 -0.0691,-2.29734 0.005,-3.43905 0.0535,-0.82081 0.17642,-1.63888 0.42216,-2.38262 0.24571,-0.74373 0.6188,-1.41178 1.10489,-1.84119 0.40741,-0.35991 0.87993,-0.54243 1.35245,-0.63951 0.47254,-0.0971 0.95082,-0.11214 1.42673,-0.16413 0.20774,-0.0227 0.41703,-0.0527 0.62542,-0.0622 z m -120.42081,158.71284 c 2.7813,4.46237 6.4484,7.75505 10.4457,9.37766 3.9231,1.59245 8.0983,1.5824 12.1161,0.60367 1.9456,-0.47392 3.8636,-1.16954 5.8151,-1.59029 1.9514,-0.42075 3.9611,-0.5599 5.8841,0.0792 1.9314,0.64189 3.7214,2.06001 5.22347,3.9314 1.35863,1.69271 2.53636,3.79457 4.17725,4.83882 1.36769,0.8704 2.95288,0.90334 4.38831,0.30372 0.85004,-0.35509 1.64946,-0.91894 2.46517,-1.41485 0.81573,-0.49591 1.66538,-0.93059 2.54857,-1.00549 1.15925,-0.0983 2.30797,0.43309 3.33945,1.20545 1.03145,0.77237 1.96706,1.78135 2.92771,2.72596 2.75351,2.70753 5.8664,4.95172 9.19227,5.14253 2.85913,0.164 5.74824,-1.26617 7.93885,-3.93141 -1.081,3.54673 -2.56988,6.83222 -4.38702,9.6795 -1.29775,2.03344 -2.80324,3.87857 -4.59679,4.83879 -0.59318,0.31759 -1.21326,0.51983 -1.84106,0.62821 -1.27573,-0.0657 -2.54789,-0.26382 -3.79938,-0.62821 1.20774,0.64661 2.52117,0.84885 3.79938,0.62821 0.75294,0.0387 1.50728,0.0435 2.25931,-0.0226 1.91343,-0.16846 3.81223,-0.67821 5.64044,-1.51295 -1.11224,2.65131 -2.71586,4.86638 -4.59678,6.35175 -2.37575,1.87613 -5.14522,2.56373 -7.84764,2.3581 -0.88738,-0.0675 -1.77095,-0.23127 -2.64237,-0.48294 -0.76913,-0.54481 -1.60816,-0.88364 -2.46257,-0.96777 0.80372,0.40537 1.62794,0.7267 2.46257,0.96777 0.72407,0.5129 1.38742,1.2085 1.93748,2.06191 1.13434,1.75993 1.78439,4.15584 1.78243,6.56304 -0.002,2.76113 -0.81612,5.36606 -1.5935,7.88736 -0.7774,2.52128 -1.54792,5.17107 -1.4541,7.92884 0.0619,1.81904 0.50809,3.59336 1.21566,5.09915 0.70755,1.50579 1.66988,2.74527 2.75312,3.67107 1.51764,1.29706 3.25158,1.97752 4.99028,2.39394 1.73869,0.41643 3.50136,0.58315 5.24696,0.93381 3.54384,0.71188 7.07049,2.2263 10.02747,5.14252 1.87704,1.85117 3.47997,4.21801 5.24696,6.28384 1.76697,2.06584 3.782,3.87633 6.03393,4.30305 1.19284,0.22604 2.43542,0.0433 3.53358,-0.6678 1.09817,-0.71117 2.04144,-1.97253 2.52512,-3.56733 0.54142,-1.78521 0.48208,-3.83712 0.20847,-5.7462 -0.14567,-1.0164 -0.3494,-2.02042 -0.41434,-3.0542 -0.0649,-1.03379 0.0218,-2.12707 0.41434,-2.99571 0.28011,-0.6199 0.70038,-1.08824 1.15831,-1.41863 0.45793,-0.3304 0.95571,-0.53233 1.45409,-0.69988 0.33157,-0.11149 0.66809,-0.20827 1.00848,-0.20941 0.34039,-9.7e-4 0.68751,0.10039 0.9759,0.3622 0.36371,0.33019 0.60149,0.88075 0.80001,1.43184 0.19853,0.55109 0.37447,1.13051 0.6619,1.59218 0.39829,0.63975 0.98257,0.9946 1.57265,1.10359 0.59009,0.10899 1.18999,-0.01 1.77071,-0.19619 0.48696,-0.15664 0.96763,-0.36262 1.4632,-0.44522 0.49557,-0.0826 1.01605,-0.0334 1.4606,0.29429 0.40379,0.29762 0.72198,0.8146 0.91337,1.40921 0.19139,0.59461 0.26048,1.26349 0.23584,1.91853 -0.0392,1.04027 -0.3125,2.0512 -0.74269,2.88631 -0.43018,0.83513 -1.01315,1.49602 -1.65995,1.9525 -0.78027,0.55069 -1.64126,0.8051 -2.47039,1.17716 -0.82912,0.37205 -1.66186,0.89582 -2.22934,1.84686 -0.2094,0.35096 -0.37848,0.75782 -0.47556,1.1998 -0.0971,0.44197 -0.12055,0.92009 -0.0469,1.37147 0.10612,0.65047 0.40673,1.20816 0.77004,1.62047 0.36331,0.41233 0.78804,0.69439 1.21435,0.95079 0.99475,0.5983 2.06349,1.086 3.13358,0.90739 1.00081,-0.16704 1.90707,-0.89886 2.82087,-1.51295 0.97083,-0.6524 1.98297,-1.18524 3.02936,-1.51107 0.42074,-0.13102 0.84942,-0.22919 1.27948,-0.20562 0.43007,0.0236 0.8639,0.17381 1.22738,0.50746 0.36961,0.33928 0.65617,0.8667 0.79088,1.46957 0.13471,0.60286 0.11502,1.27736 -0.06,1.85817 -0.21092,0.70029 -0.62212,1.22266 -0.98242,1.78083 -0.18015,0.27909 -0.35112,0.57366 -0.47948,0.9074 -0.12836,0.33374 -0.21273,0.7103 -0.20978,1.09227 0.003,0.41519 0.11023,0.81886 0.26972,1.16395 0.15949,0.34509 0.3701,0.63686 0.59413,0.89608 0.44809,0.51843 0.96281,0.93194 1.33032,1.56955 0.30998,0.53779 0.49817,1.22001 0.5342,1.91854 0.0361,0.69853 -0.0802,1.41119 -0.32573,2.01475 -0.35933,0.88333 -0.98131,1.50439 -1.65735,1.80912 -0.67604,0.30474 -1.40315,0.31253 -2.10296,0.15659 -1.8293,-0.40763 -3.44903,-1.86732 -5.11796,-3.02591 -1.14729,-0.79646 -2.38606,-1.47177 -3.65606,-1.36014 -0.539,0.0475 -1.08241,0.24476 -1.53227,0.67724 -0.22492,0.21624 -0.42463,0.48866 -0.5772,0.81118 -0.15257,0.32252 -0.25668,0.69551 -0.29316,1.08284 -0.0399,0.42327 10e-4,0.85915 0.10684,1.25827 0.10519,0.39912 0.27233,0.76184 0.47557,1.07152 0.4065,0.61935 0.94874,1.01957 1.50621,1.29979 0.7183,0.36105 1.47457,0.53916 2.20458,0.84702 0.73002,0.30785 1.45539,0.7663 1.97396,1.57143 0.17087,0.26529 0.31685,0.56869 0.41304,0.90363 0.0962,0.33494 0.14142,0.70419 0.10944,1.06396 -0.0345,0.38791 -0.15652,0.75346 -0.32573,1.05832 -0.16921,0.30487 -0.38486,0.5517 -0.61499,0.75647 -0.86446,0.7692 -1.91272,0.93532 -2.92381,1.05832 -0.4669,0.0568 -0.95269,0.11487 -1.35897,0.45275 -0.24171,0.20101 -0.44312,0.49385 -0.60848,0.81874 -0.16536,0.32488 -0.2965,0.68393 -0.41824,1.04697 -0.2435,0.72609 -0.46148,1.49362 -0.85343,2.06759 -0.34295,0.50221 -0.80561,0.82211 -1.28861,0.92059 -0.48301,0.0985 -0.9835,-0.0221 -1.42673,-0.31692 -0.42757,-0.28442 -0.80327,-0.72923 -1.07754,-1.28281 -0.27426,-0.55356 -0.44674,-1.21373 -0.48991,-1.89212 -0.0584,-0.91797 0.11394,-1.8299 0.27884,-2.7203 0.1649,-0.89041 0.32551,-1.80986 0.24365,-2.72407 -0.0742,-0.82824 -0.34587,-1.60179 -0.7075,-2.25245 -0.36164,-0.65066 -0.81082,-1.18875 -1.27689,-1.68086 -0.30539,-0.32245 -0.62408,-0.63044 -0.97851,-0.82061 -0.35442,-0.19018 -0.75049,-0.2553 -1.11011,-0.0867 -0.23627,0.11073 -0.44859,0.31945 -0.6176,0.58292 -0.169,0.26345 -0.29639,0.58175 -0.38306,0.91871 -0.17334,0.67392 -0.18619,1.41088 -0.14854,2.12794 0.0765,1.45653 0.35478,2.87975 0.73095,4.23514 0.16251,0.58552 0.34351,1.16131 0.47297,1.76385 0.12948,0.60255 0.20665,1.23936 0.15375,1.86572 -0.046,0.54501 -0.19193,1.07237 -0.41824,1.51296 -0.22413,0.43634 -0.52915,0.78878 -0.87949,0.98473 -0.35034,0.19596 -0.74534,0.23069 -1.1049,0.0737 -0.31282,-0.13672 -0.5898,-0.41134 -0.83127,-0.73007 -0.24148,-0.31873 -0.45152,-0.68351 -0.66972,-1.03567 -0.2182,-0.35216 -0.44718,-0.69533 -0.71792,-0.96022 -0.27073,-0.26488 -0.58791,-0.44744 -0.91467,-0.44899 -0.42561,-0.002 -0.82286,0.2989 -1.18177,0.63009 -0.35891,0.3312 -0.70874,0.70499 -1.11663,0.88098 -0.45736,0.19735 -0.95716,0.12538 -1.40457,-0.11507 -0.44742,-0.24045 -0.84655,-0.64049 -1.20653,-1.09416 -0.2234,-0.28156 -0.43544,-0.5874 -0.60457,-0.93945 -0.16911,-0.35206 -0.29519,-0.75244 -0.33615,-1.17716 -0.0402,-0.41629 0.003,-0.84537 0.10423,-1.23942 0.10103,-0.39407 0.25843,-0.75587 0.44561,-1.07717 0.37436,-0.64266 0.85981,-1.12419 1.3303,-1.61678 0.80503,-0.84284 1.60124,-1.76518 2.11989,-2.99195 0.25934,-0.6134 0.44416,-1.2992 0.50555,-2.01287 0.0614,-0.71367 -0.005,-1.45687 -0.22281,-2.10342 -0.17603,-0.52326 -0.44563,-0.97275 -0.75571,-1.34317 -0.31007,-0.37041 -0.65938,-0.66397 -1.0189,-0.92437 -0.80657,-0.58421 -1.67642,-1.00617 -2.57331,-1.1432 -0.89689,-0.13705 -1.82288,0.0178 -2.65019,0.53764 -1.32516,0.83271 -2.324,2.57306 -2.82088,4.53697 -0.4656,1.84023 -0.49481,3.88899 -0.13029,5.7745 -0.311,-0.82555 -0.68525,-1.60131 -1.12314,-2.29584 -0.81405,-1.29116 -1.82045,-2.3083 -2.6111,-3.62958 -1.1646,-1.94617 -1.78561,-4.53311 -1.75638,-7.10446 0.0494,-0.50234 0.0807,-1.00918 0.0847,-1.51672 -0.0582,0.50116 -0.0789,1.00924 -0.0847,1.51672 -0.18941,1.9241 -0.70175,3.78085 -1.49448,5.35004 -1.46446,2.89893 -3.87891,4.74349 -6.35837,4.85391 1.23661,-0.92709 2.24661,-2.47107 2.81957,-4.30871 0.72356,-2.32063 0.72624,-5.09309 0,-7.41196 -0.47699,-1.52305 -1.27212,-2.86225 -2.29838,-3.62958 -0.76599,-0.5727 -1.65705,-0.81337 -2.50687,-0.60367 -0.85474,0.21091 -1.64243,0.87046 -2.24759,1.76952 -0.60516,0.89904 -1.03274,2.02732 -1.30294,3.2202 -0.68274,3.01411 -0.32405,6.4825 0.93942,9.07394 -1.74608,-0.89739 -3.33739,-2.41664 -4.59549,-4.38605 -1.18722,-1.85845 -2.05921,-4.12257 -2.56289,-6.54606 6.7e-4,-0.0165 0.003,-0.0326 0.004,-0.0491 0.0546,-1.21138 -0.10926,-2.44151 -0.47036,-3.53714 0.0595,1.2169 0.22374,2.41832 0.46645,3.5862 -0.0597,1.19434 -0.33033,2.36651 -0.78046,3.37113 -0.4664,1.04091 -1.11685,1.89279 -1.84106,2.55617 -0.72419,0.66338 -1.52103,1.14333 -2.33618,1.52616 -0.88487,0.41556 -1.79549,0.71952 -2.71664,0.90739 0.8829,-0.70823 1.62635,-1.77671 2.1212,-3.05043 0.49485,-1.27371 0.74012,-2.74851 0.69967,-4.20872 -0.0701,-2.53244 -1.03556,-4.97857 -2.50687,-6.35176 0.35329,3.09664 -0.18669,6.38631 -1.4632,8.92303 -1.38241,2.74712 -3.61346,4.56237 -5.95315,4.84069 1.0003,-0.51125 1.8585,-1.58239 2.35572,-2.93914 0.49722,-1.35673 0.628,-2.98689 0.35962,-4.47282 -0.20795,-1.15129 -0.64262,-2.19599 -1.16353,-3.11646 -0.52092,-0.92047 -1.12855,-1.72705 -1.73292,-2.53353 -0.60437,-0.80647 -1.21025,-1.61951 -1.72379,-2.54863 -0.51355,-0.9291 -0.93492,-1.98494 -1.12445,-3.14287 -0.24328,-1.48632 -0.0898,-3.06408 0.26059,-4.50489 0.35035,-1.44081 0.88905,-2.76732 1.43454,-4.07478 0.54548,-1.30747 1.10385,-2.61399 1.49708,-4.0314 0.39324,-1.41742 0.61714,-2.9691 0.46386,-4.48038 -0.14719,-1.45118 -0.6343,-2.79299 -1.24823,-3.95971 -0.61394,-1.16671 -1.35564,-2.17725 -2.0834,-3.19758 -0.72777,-1.02033 -1.44999,-2.06383 -2.01963,-3.2768 -0.5695,-1.21295 -0.9831,-2.61851 -1.0215,-4.08422 -0.029,-1.12115 0.1612,-2.23779 0.46,-3.27303 0.2987,-1.03523 0.70374,-1.99636 1.12183,-2.94101 0.83618,-1.88929 1.75472,-3.81455 1.97005,-6.03672 0.17167,-1.77168 -0.13389,-3.60676 -0.75441,-5.15384 -0.62052,-1.54709 -1.54231,-2.81524 -2.58767,-3.76919 -1.4757,-1.34674 -3.1867,-2.08146 -4.9121,-2.45429 -1.7253,-0.37282 -3.4765,-0.39752 -5.2209,-0.41879 -4.2478,-0.0518 -8.4952,-0.0852 -12.7428,0 -3.9696,0.0796 -7.943,0.26258 -11.9089,0 -2.5518,-0.16896 -5.0973,-0.52209 -7.6249,-1.05833 l -5.0137,-14.36738 c 0.4797,-5.22452 2.1098,-10.21515 4.5955,-14.06555 1.7954,-2.78117 4.0272,-4.96917 6.4769,-6.35176 z m 81.76243,117.38774 c 0.26875,0.71337 0.49163,1.46274 0.65278,2.24113 -0.28894,-0.69906 -0.50125,-1.45735 -0.65278,-2.24113 z"
             style="fill:#ffd700;fill-opacity:1;fill-rule:evenodd;stroke:#000000;stroke-width:3.12918663;stroke-linecap:butt;stroke-linejoin:round;stroke-miterlimit:4;stroke-dasharray:none;stroke-opacity:1"
             inkscape:connector-curvature="0" />
          <path
             sodipodi:nodetypes="csscssscsssssscaaccccccccccccccccscssccccscccccccscccscccsssccccccscccccccccccsccccccccccccccsccccccccccsccccccccccscscccsccccccccsccccccccsccccccccccscccccscccccccccccccccscccccsccccccsccscscccccccccccssccccsscsccccssccccsccccsccssccccsccsccscccscssscssccscscccssccscccsccsssssccscccsscccccsccsscccsccccccsscccsccsscscssccccccccccssccccccsssscccccccccccsscsscssssssssssscccaaaaaccsscsssssscsscsscscssscscccscssccssssccsssc"
             inkscape:connector-curvature="0"
             id="path13321-6-0"
             transform="matrix(1.1163463,0,0,1.1650486,-1226.7042,-8.2257418)"
             d="m 103.16016,387.5293 c -1.83432,5.41035 -2.30146,11.28312 -1.34571,16.91797 1.22497,7.22218 4.70456,13.86731 8.7461,19.96289 1.60223,2.41656 3.3019,4.77569 5.01562,7.12304 -1.76716,3.25112 -3.53708,6.50137 -5.21679,9.79688 -2.22647,4.36826 -4.29775,8.83906 -5.71876,13.53515 -2.73583,9.0413 -2.96688,18.84464 -0.57617,27.98438 1.88512,7.20685 5.39639,13.97261 10.16602,19.67383 -0.64687,0.82041 -1.28812,1.64644 -1.9375,2.46484 -1.85223,2.3343 -3.71911,4.66882 -5.26172,7.2207 -1.54262,2.5519 -2.7616,5.34495 -3.19922,8.29883 -0.40521,2.73511 -0.11624,5.59635 1.00977,8.11914 0.79463,1.78032 1.98815,3.36346 3.36523,4.73828 3.71314,3.7071 8.70243,5.89017 13.79297,7.10547 7.87219,1.87937 16.2451,1.58501 23.97266,-0.82226 1.73863,1.27521 2.51962,2.78081 3.52343,4.35547 1.19327,1.87186 2.20399,3.8832 2.92579,5.98242 0.46446,1.35081 0.95895,2.71463 0.88281,4.19336 -0.0712,1.38645 -0.55429,2.71619 -1.29492,3.65234 -0.74055,0.93613 -1.72767,1.47802 -2.72852,1.54102 -1.02656,0.0645 -2.04606,-0.35816 -2.96289,-1.00196 -0.91692,-0.64381 -1.74424,-1.5035 -2.55859,-2.37304 -0.7177,-0.76646 -1.43588,-1.54797 -2.24415,-2.11524 -0.80826,-0.5673 -1.72379,-0.91398 -2.62109,-0.74219 -1.09652,0.20997 -2.05418,1.16941 -2.78711,2.32032 -0.73284,1.1509 -1.28015,2.50222 -1.89062,3.7832 -0.63466,1.33153 -1.35076,2.60582 -2.23633,3.625 -0.88566,1.01918 -1.95455,1.77567 -3.09766,1.95703 -1.34447,0.21329 -2.7509,-0.41451 -3.74414,-1.68945 -0.49716,-0.63813 -0.88596,-1.4161 -1.30859,-2.15039 -0.42254,-0.73429 -0.89564,-1.44385 -1.49805,-1.87305 -0.53424,-0.38054 -1.1494,-0.51853 -1.74805,-0.45312 -0.59865,0.0653 -1.18008,0.32848 -1.71289,0.71289 -0.97201,0.7014 -1.77439,1.78904 -2.45312,2.98242 -0.67873,1.19337 -1.24638,2.5003 -1.85156,3.76758 -0.58549,1.22619 -1.21399,2.42692 -1.9961,3.41992 -0.7821,0.993 -1.73358,1.77347 -2.77734,2.03125 -0.95436,0.2357 -1.9635,0.0179 -2.82031,-0.61133 -0.85673,-0.62926 -1.55515,-1.66307 -1.95118,-2.89062 0.55386,3.11587 1.99067,5.91026 3.93164,7.65625 2.29195,2.06177 5.26207,2.60321 7.85938,1.42968 -2.01721,0.99749 -4.13328,1.60983 -6.26953,1.81641 -1.0899,0.10539 -2.1855,0.10539 -3.27539,0 1.24871,1.79345 2.8518,3.10792 4.58594,3.76367 1.64527,0.62218 3.40319,0.64175 5.05859,0.0762 -1.44633,0.69181 -2.74132,1.98482 -3.6543,3.68946 -1.03185,1.92671 -1.5706,4.35182 -1.49804,6.75 0.27966,-1.50565 1.05209,-2.81982 2.05859,-3.50391 0.66171,-0.44984 1.40979,-0.63158 2.14648,-0.60352 0.73669,0.0281 1.46389,0.2608 2.15821,0.60352 1.24862,0.61633 2.40225,1.59315 3.36718,2.85352 -0.6472,2.33613 -1.80059,4.39651 -3.27343,5.84179 -1.62333,1.59306 -3.62795,2.42816 -5.61524,2.33789 1.58732,1.7924 3.57474,2.89445 5.61524,3.11524 1.81717,0.19662 3.66981,-0.30603 5.30273,-1.42774 -1.84557,1.55041 -3.20699,4.19582 -3.61914,7.13868 -0.37909,2.7075 0.033,5.61144 1.12305,7.91796 -0.22986,-1.89242 0.11564,-3.90551 0.93554,-5.45117 0.99611,-1.87785 2.63202,-2.99182 4.30274,-3.24414 1.52533,-0.23035 3.07927,0.20691 4.49219,1.03711 0.78828,0.46318 1.55839,1.07163 2.09765,1.99414 0.26954,0.46125 0.47816,0.99487 0.57813,1.57227 0.0997,0.57741 0.0897,1.19684 -0.0547,1.75586 -0.17306,0.67007 -0.5348,1.23251 -0.97266,1.60351 -0.43785,0.37101 -0.94882,0.55811 -1.46093,0.60352 -0.68949,0.061 -1.37725,-0.12578 -2.06055,-0.26758 -0.6833,-0.1416 -1.38875,-0.23763 -2.05664,0.008 -0.62015,0.22789 -1.17902,0.74832 -1.5918,1.42969 -0.25942,0.42826 -0.46316,0.92249 -0.58203,1.45703 -0.11914,0.53455 -0.15109,1.10948 -0.0723,1.6582 0.0687,0.48097 0.22474,0.94216 0.46876,1.29688 0.21534,0.31312 0.49056,0.53436 0.78124,0.69141 0.29069,0.15704 0.59787,0.25379 0.90235,0.34765 0.39674,0.12227 0.79547,0.24053 1.17187,0.45313 0.37632,0.21259 0.73342,0.52689 0.98047,0.97461 0.3275,0.5936 0.43322,1.35701 0.56446,2.08203 0.0656,0.36251 0.14172,0.72322 0.25781,1.06054 0.116,0.33733 0.27313,0.65432 0.48633,0.88282 0.35401,0.3792 0.83672,0.49085 1.27539,0.36914 0.43866,-0.12171 0.835,-0.46154 1.1582,-0.89063 0.39898,-0.52979 0.69614,-1.20815 0.8418,-1.94726 0.1212,-0.61711 0.13799,-1.26062 0.17382,-1.89844 0.0358,-0.63781 0.0955,-1.2864 0.29493,-1.86328 0.19698,-0.56997 0.52361,-1.04478 0.91211,-1.375 0.38841,-0.33023 0.83811,-0.52135 1.29101,-0.58985 0.90581,-0.13693 1.81435,0.20045 2.66211,0.66407 0.42326,0.23145 0.83916,0.49772 1.21484,0.85351 0.37569,0.35581 0.71159,0.80767 0.9375,1.35547 0.17155,0.4163 0.2762,0.88771 0.28516,1.36719 0.008,0.47948 -0.0866,0.96473 -0.28516,1.35742 -0.16948,0.33535 -0.40957,0.59627 -0.67382,0.7793 -0.26399,0.18301 -0.55271,0.29146 -0.84375,0.36132 -0.58181,0.13962 -1.17923,0.12461 -1.75782,0.28711 -0.52546,0.14755 -1.0323,0.44607 -1.45117,0.91016 -0.41886,0.46409 -0.74509,1.09911 -0.88672,1.81641 -0.0788,0.40356 -0.10209,0.83186 -0.043,1.24218 0.059,0.41034 0.20049,0.80093 0.41601,1.09375 0.29319,0.39855 0.70631,0.59449 1.11523,0.64454 0.40893,0.0501 0.81945,-0.0331 1.22461,-0.125 0.53057,-0.12041 1.06446,-0.2573 1.60157,-0.22657 0.53711,0.0308 1.08539,0.24619 1.48437,0.7461 0.35168,0.44061 0.55627,1.05724 0.77735,1.63867 0.11053,0.29071 0.22836,0.57774 0.375,0.83594 0.14655,0.25821 0.32341,0.48774 0.5332,0.64062 0.2896,0.21139 0.63107,0.26791 0.95508,0.20508 0.32391,-0.0628 0.63178,-0.2401 0.91601,-0.46484 0.30681,-0.24264 0.5901,-0.54637 0.82031,-0.91797 0.23022,-0.3716 0.40693,-0.81285 0.49024,-1.28907 0.12998,-0.74417 0.0297,-1.53606 -0.16992,-2.25 -0.19949,-0.71392 -0.49403,-1.36665 -0.76563,-2.0332 -0.22323,-0.54747 -0.43436,-1.11761 -0.50781,-1.73828 -0.0367,-0.31033 -0.0393,-0.63093 0.0117,-0.9375 0.0505,-0.30657 0.1538,-0.59847 0.30859,-0.82813 0.14763,-0.21885 0.33961,-0.37721 0.54492,-0.4707 0.20523,-0.0935 0.42288,-0.12379 0.63868,-0.10937 0.43149,0.0287 0.84707,0.23279 1.25,0.44922 0.96206,0.51675 1.93082,1.14107 2.61914,2.20703 0.48175,0.74618 0.79685,1.66545 1.09765,2.57617 0.30081,0.91072 0.59946,1.83964 1.05469,2.61719 0.27115,0.46303 0.60075,0.87013 0.99023,1.12304 0.38949,0.25294 0.84318,0.34101 1.25586,0.17383 0.29821,-0.12075 0.56465,-0.3699 0.77149,-0.69141 0.20683,-0.32149 0.3536,-0.71245 0.44336,-1.125 0.22708,-1.04191 0.0906,-2.16643 0.18945,-3.24609 0.0361,-0.39426 0.10386,-0.78617 0.22461,-1.14648 0.12093,-0.36031 0.296,-0.68795 0.52344,-0.92969 0.28432,-0.30228 0.6333,-0.45559 0.97656,-0.59766 0.34326,-0.14205 0.69608,-0.28291 0.98828,-0.57031 0.36799,-0.36186 0.61527,-0.94394 0.69141,-1.56055 0.0766,-0.61664 -0.0134,-1.26162 -0.22461,-1.81445 -0.33556,-0.87822 -0.97906,-1.50857 -1.68359,-1.68945 -0.76608,-0.19669 -1.54706,0.10594 -2.29297,0.41797 -0.74583,0.31203 -1.51948,0.64165 -2.29102,0.49218 -0.61459,-0.11905 -1.18203,-0.53592 -1.68555,-1.03906 -0.48793,-0.48761 -0.93688,-1.07846 -1.21484,-1.81836 -0.18041,-0.48043 -0.2801,-1.01688 -0.28906,-1.55859 -0.004,-0.54171 0.0939,-1.08749 0.28906,-1.55664 0.32463,-0.78018 0.90566,-1.31363 1.5293,-1.56446 0.62373,-0.25081 1.28784,-0.2393 1.93164,-0.12109 0.66296,0.12175 1.31445,0.35508 1.98047,0.44141 0.66583,0.0863 1.36633,0.0136 1.94921,-0.44141 0.5716,-0.44633 0.98121,-1.23068 1.2168,-2.08008 0.11914,-0.42959 0.19972,-0.88593 0.1836,-1.3457 -0.0163,-0.45976 -0.13685,-0.92191 -0.3711,-1.24805 -0.15103,-0.21035 -0.3436,-0.35915 -0.54883,-0.44336 -0.20522,-0.0837 -0.42307,-0.10548 -0.63671,-0.0879 -0.42729,0.0351 -0.83655,0.22978 -1.2461,0.40235 -0.46715,0.19685 -0.95002,0.36756 -1.4375,0.33203 -0.24374,-0.0178 -0.48692,-0.0883 -0.70898,-0.22852 -0.22225,-0.14027 -0.42351,-0.35046 -0.56836,-0.62305 -0.14243,-0.26816 -0.22727,-0.59153 -0.26758,-0.91992 -0.0403,-0.3284 -0.037,-0.66455 -0.0137,-0.99609 0.0469,-0.66308 0.17422,-1.31258 0.18945,-1.97852 0.009,-0.40142 -0.025,-0.80786 -0.11523,-1.18945 -0.0904,-0.38158 -0.23927,-0.74014 -0.44727,-1.01953 -0.32983,-0.4431 -0.79686,-0.6684 -1.25586,-0.65234 -0.459,0.016 -0.90798,0.26321 -1.27148,0.65234 -0.33287,0.35635 -0.59758,0.82864 -0.79492,1.34375 -0.19726,0.5151 -0.32739,1.07357 -0.41993,1.64258 -0.10731,0.65939 -0.1625,1.33318 -0.25781,1.99609 -0.0954,0.66289 -0.2351,1.32412 -0.49219,1.89844 -0.32319,0.72251 -0.82488,1.27518 -1.38672,1.61523 -0.56183,0.34006 -1.18016,0.47399 -1.79296,0.46094 -1.29915,-0.0276 -2.56077,-0.70389 -3.65039,-1.68555 -0.54733,-0.49305 -1.06225,-1.07211 -1.45899,-1.79101 -0.39665,-0.71888 -0.67096,-1.58937 -0.69336,-2.49414 -0.0207,-0.81401 0.1604,-1.61887 0.44141,-2.33399 0.28109,-0.7151 0.66026,-1.34836 1.05664,-1.94922 0.62436,-0.94634 1.30141,-1.83036 1.85742,-2.85546 0.55592,-1.02509 0.99191,-2.22495 1.04297,-3.50586 0.0509,-1.28268 -0.28969,-2.54821 -0.79688,-3.62305 -0.5071,-1.07486 -1.17487,-1.98466 -1.84375,-2.87305 -0.66879,-0.88838 -1.3507,-1.77082 -1.89453,-2.81054 -0.54383,-1.03973 -0.94781,-2.2614 -0.98633,-3.54493 -0.0283,-0.94768 0.14663,-1.9012 0.47852,-2.73046 0.3318,-0.82929 0.81914,-1.53579 1.38867,-2.06055 1.13899,-1.04916 2.58534,-1.3478 3.93555,-1.04883 1.56914,0.34742 2.99042,1.43788 4.42187,2.39453 1.43155,0.95665 2.97708,1.81075 4.56055,1.62891 1.66194,-0.19084 3.22539,-1.6053 4.02344,-3.63672 -0.59829,1.75861 -0.84099,3.74782 -0.69336,5.68164 0.14753,1.93382 0.6847,3.80966 1.53516,5.35547 0.92193,1.67579 2.20909,2.95671 3.64843,3.63281 -1.04573,-1.2132 -1.70478,-3.04519 -1.77734,-4.93359 -0.0538,-1.40517 0.21094,-2.82983 0.74805,-4.02344 0.0699,2.07927 0.5585,4.129 1.39453,5.85742 0.83603,1.72843 2.01644,3.13204 3.37695,4.00977 1.50661,0.97196 3.22899,1.2929 4.86719,0.9082 -0.94191,-0.40429 -1.76239,-1.32607 -2.24414,-2.51953 -0.48175,-1.19346 -0.61866,-2.64726 -0.375,-3.97266 0.21283,-1.15725 0.69632,-2.18515 1.26953,-3.07617 0.57321,-0.89102 1.23728,-1.6618 1.87695,-2.46094 0.63986,-0.79912 1.26472,-1.63973 1.73438,-2.64062 0.46965,-1.0009 0.7781,-2.1824 0.73242,-3.375 -0.0284,-0.73739 -0.18998,-1.45471 -0.41016,-2.12696 -0.22027,-0.67224 -0.49872,-1.30535 -0.77148,-1.93945 -0.27277,-0.63409 -0.54295,-1.2734 -0.74414,-1.95703 -0.2012,-0.68362 -0.33286,-1.41608 -0.32032,-2.1543 0.0186,-1.05399 0.33277,-2.06675 0.77735,-2.92187 0.44448,-0.85513 1.01619,-1.5704 1.59961,-2.24609 0.58333,-0.67569 1.18665,-1.32136 1.71875,-2.07422 0.532,-0.75287 0.99499,-1.6242 1.23828,-2.62305 0.24204,-0.99542 0.25445,-2.08759 0.084,-3.11133 -0.17046,-1.02372 -0.52002,-1.97984 -0.97265,-2.82226 -0.90528,-1.68484 -2.1962,-2.88714 -3.50977,-3.9336 -1.32934,-1.05906 -2.71741,-2.00331 -3.91211,-3.33594 -0.59748,-0.6663 -1.14537,-1.43084 -1.57812,-2.30859 -0.43266,-0.87774 -0.74934,-1.87246 -0.87305,-2.92187 -0.20397,-1.72982 0.13255,-3.5356 0.78906,-5.03321 0.65652,-1.49762 1.61627,-2.70702 2.67383,-3.66601 1.4569,-1.3211 3.09864,-2.18645 4.68945,-3.16602 1.59091,-0.97958 3.17321,-2.11085 4.38672,-3.8418 1.05559,-1.50569 1.78958,-3.41535 2.20899,-5.43359 0.42881,-2.06318 0.53587,-4.2534 0.3164,-6.37891 0.66163,2.46711 1.84721,4.65853 3.36914,6.23047 1.18593,1.22497 2.5721,2.07505 4.02344,2.4668 -0.65051,-1.18005 -1.06843,-2.60365 -1.19922,-4.07813 -0.13078,-1.47447 0.0263,-2.9957 0.45117,-4.35937 0.45076,-1.44678 1.20302,-2.71349 2.14063,-3.60352 0.9377,-0.89001 2.05618,-1.40214 3.19141,-1.46093 -0.58002,3.32025 -0.0517,6.98099 1.40429,9.73632 1.64017,3.10417 4.43327,4.96563 7.20508,4.80274 -1.73333,-1.12285 -3.09563,-3.29992 -3.65039,-5.83984 -0.46043,-2.10798 -0.35514,-4.49284 0.45312,-6.38868 0.40418,-0.94791 0.97665,-1.76348 1.66407,-2.31445 0.68733,-0.55095 1.48866,-0.83343 2.28125,-0.77344 0.65616,0.0497 1.30019,0.33216 1.86718,0.79297 0.56702,0.46082 1.05783,1.0957 1.44336,1.83399 0.77106,1.4766 1.10975,3.33704 1.0879,5.16015 -0.0347,2.88845 -0.97245,5.73565 -2.5254,7.66016 1.61791,0.31437 3.29872,-0.0525 4.76954,-1.03906 1.19171,-0.79934 2.26263,-2.02857 2.90429,-3.63477 0.48113,-1.20433 0.70683,-2.59997 0.65039,-3.97461 -0.42895,-1.26756 -0.78096,-2.58636 -1.02539,-3.94531 0.59917,1.12334 0.95946,2.49032 1.02539,3.88476 9e-4,0.0204 -6e-4,0.04 0,0.0606 0.96911,2.86385 2.37183,5.44642 4.11914,7.48047 1.61454,1.8795 3.50538,3.29998 5.52149,4.15234 -1.05776,-0.60086 -1.96447,-1.69835 -2.53516,-3.07226 -0.57065,-1.3739 -0.80016,-3.015 -0.64453,-4.58594 0.11876,-1.19882 0.45777,-2.35345 0.97852,-3.32422 0.52072,-0.97077 1.22004,-1.75575 2.01367,-2.25781 0.7501,3.73461 2.1788,7.20351 4.11719,9.99609 1.74864,2.51922 3.90833,4.48576 6.26953,5.71094 -1.55466,-1.84966 -2.47274,-4.68653 -2.4336,-7.52734 0.0381,-2.7744 0.98643,-5.50228 2.52735,-7.27149 0.23342,3.35044 1.18879,6.59772 2.71289,9.2168 1.64072,2.81953 3.93568,4.89556 6.45703,5.8418 -0.90303,-1.32276 -1.48619,-3.05733 -1.63672,-4.86719 -0.15053,-1.80984 0.13082,-3.68449 0.79297,-5.25781 0.57057,-1.35569 1.44916,-2.50978 2.52734,-2.98633 0.71432,-0.31573 1.495,-0.32206 2.2168,-0.041 0.7218,0.28105 1.3832,0.84667 1.90039,1.59961 0.57952,0.8437 0.97533,1.91102 1.20703,3.03125 0.23169,1.12022 0.30535,2.29178 0.29102,3.45703 -0.0314,2.56071 -0.48326,5.11089 -1.31055,7.40039 1.80456,-0.28968 3.53558,-1.39805 4.86523,-3.11523 1.87653,-2.42344 2.9029,-6.05849 2.71289,-9.60547 -0.0297,3.78224 0.9141,7.56626 2.6211,10.51563 1.36085,2.35127 3.19372,4.16809 5.23828,5.1914 -0.69613,-0.43171 -1.30638,-1.12592 -1.74805,-1.98828 -0.44165,-0.86235 -0.71258,-1.88933 -0.77734,-2.94336 -0.0889,-1.44553 0.21084,-2.90958 0.74805,-4.1543 0.47937,-1.11072 1.14783,-2.06498 1.9414,-2.74609 0.79356,-0.68111 1.71245,-1.08655 2.64453,-1.14844 0.76729,-0.051 1.55762,0.13779 2.21485,0.68946 0.32861,0.27584 0.62042,0.64077 0.83984,1.07812 0.21942,0.43734 0.36691,0.9468 0.4082,1.47656 0.0396,0.50785 -0.0182,1.0271 -0.13867,1.50977 -0.12052,0.48267 -0.30381,0.92981 -0.51758,1.3457 -0.44831,0.87226 -1.02708,1.59798 -1.53711,2.40235 -0.51002,0.80437 -0.96388,1.73234 -1.08203,2.79101 -0.1109,0.99392 0.10183,2.05512 0.58203,2.8086 0.48021,0.75347 1.22139,1.17715 1.94336,1.08593 0.63074,-0.0797 1.20481,-0.52091 1.74805,-0.97265 0.54325,-0.45174 1.09372,-0.93174 1.71485,-1.10352 0.72782,-0.20128 1.49275,0.0476 2.15234,0.51953 0.54639,0.39093 1.03289,0.92991 1.58984,1.29102 0.27848,0.18056 0.57473,0.3148 0.88086,0.35351 0.30613,0.0386 0.62297,-0.0222 0.89649,-0.21679 0.25717,-0.18301 0.47039,-0.48111 0.61523,-0.82813 0.14484,-0.34701 0.22237,-0.74271 0.24414,-1.14258 0.0437,-0.7997 -0.1386,-1.594 -0.39258,-2.31445 -0.3152,-0.89418 -0.73914,-1.70207 -1.10937,-2.55469 -0.37024,-0.85261 -0.69043,-1.77684 -0.75977,-2.76758 -0.0634,-0.90626 0.0945,-1.84583 0.4668,-2.5957 0.4602,-0.92692 1.24756,-1.52806 2.05859,-1.55664 0.6006,-0.0212 1.20306,0.26343 1.67383,0.78125 0.47077,0.51784 0.80862,1.26323 0.94727,2.07422 0.17851,1.04381 0.0348,2.13443 -0.0703,3.19727 -0.0525,0.5314 -0.0967,1.06546 -0.084,1.60156 0.0127,0.5361 0.0821,1.07478 0.24609,1.56054 0.18919,0.56054 0.49987,1.03369 0.86133,1.39649 0.36145,0.36281 0.77287,0.62158 1.19727,0.8125 0.48762,0.21939 1.00273,0.35464 1.51367,0.29687 0.51093,-0.0578 1.01872,-0.3213 1.38672,-0.8164 0.3169,-0.42636 0.51368,-1.0002 0.64258,-1.58594 0.12889,-0.58575 0.19766,-1.19168 0.29492,-1.78906 0.0648,-0.39779 0.14382,-0.79546 0.27539,-1.16016 0.13157,-0.36467 0.31871,-0.69835 0.5664,-0.91797 0.2225,-0.19729 0.48303,-0.29519 0.74415,-0.34961 0.26112,-0.0545 0.52701,-0.068 0.78906,-0.11328 0.26204,-0.0452 0.52308,-0.12393 0.75586,-0.29687 0.23277,-0.17294 0.43516,-0.44882 0.51758,-0.79688 0.0655,-0.27663 0.051,-0.58418 -0.0215,-0.85742 -0.0725,-0.27325 -0.1994,-0.51431 -0.35547,-0.70898 -0.31211,-0.38937 -0.7198,-0.59215 -1.11914,-0.77149 -0.93113,-0.41816 -1.88265,-0.75939 -2.7832,-1.29101 -0.90056,-0.53164 -1.76121,-1.27331 -2.36328,-2.34375 -0.1155,-0.20534 -0.22317,-0.42339 -0.29492,-0.66407 -0.0718,-0.24066 -0.10722,-0.50594 -0.0801,-0.76367 0.0224,-0.21335 0.0889,-0.41686 0.18164,-0.58984 0.0928,-0.17298 0.21181,-0.31768 0.34375,-0.43164 0.26388,-0.22789 0.57254,-0.33329 0.8789,-0.40625 0.87262,-0.20775 1.78639,-0.15735 2.61914,0.25976 0.53854,0.26974 1.0319,0.68249 1.54493,1.03516 0.51303,0.35267 1.06417,0.65063 1.63672,0.65234 0.54704,10e-4 1.08828,-0.27768 1.51757,-0.74804 0.4293,-0.47038 0.7475,-1.1276 0.91602,-1.84961 0.1581,-0.67768 0.18675,-1.41039 0.0879,-2.10938 -0.0989,-0.69899 -0.32373,-1.36226 -0.64844,-1.91406 -0.40684,-0.69137 -0.95755,-1.19603 -1.39258,-1.85352 -0.21753,-0.32875 -0.40582,-0.69975 -0.51953,-1.11718 -0.11367,-0.41742 -0.14773,-0.88534 -0.0547,-1.3125 0.0609,-0.27986 0.17373,-0.53443 0.30273,-0.76563 0.12898,-0.23119 0.2736,-0.44373 0.41211,-0.66406 0.13853,-0.22032 0.2719,-0.44821 0.36719,-0.70899 0.0953,-0.26077 0.15286,-0.55636 0.13476,-0.84765 -0.0178,-0.28723 -0.10805,-0.56107 -0.24219,-0.78125 -0.13412,-0.22019 -0.31203,-0.38887 -0.50195,-0.50586 -0.37984,-0.23394 -0.80512,-0.26352 -1.2207,-0.26953 -0.7755,-0.0101 -1.59002,0.0747 -2.24609,0.64843 -0.43337,0.37896 -0.76437,0.94361 -1.0586,1.5254 -0.29422,0.58178 -0.56162,1.19488 -0.90625,1.7207 -0.65817,1.00424 -1.57384,1.64132 -2.52734,1.94531 -0.57344,0.18287 -1.17934,0.25041 -1.74805,0.041 -0.28436,-0.10471 -0.55525,-0.27962 -0.78906,-0.52735 -0.23381,-0.24774 -0.4293,-0.56968 -0.55078,-0.9414 -0.11871,-0.36312 -0.16537,-0.76549 -0.15821,-1.16407 0.007,-0.39856 0.0679,-0.7953 0.15821,-1.17382 0.31959,-1.34011 0.99746,-2.46646 1.77734,-3.37305 0.55434,-0.6444 1.16634,-1.18951 1.73438,-1.81055 0.56804,-0.62104 1.1005,-1.33239 1.44726,-2.21289 0.19285,-0.4897 0.32544,-1.03573 0.32813,-1.59375 0.002,-0.55803 -0.13451,-1.12827 -0.41993,-1.52148 -0.16855,-0.23222 -0.38148,-0.39633 -0.60742,-0.49805 -0.22596,-0.10169 -0.46563,-0.14181 -0.70312,-0.15039 -0.79141,-0.0269 -1.56273,0.30804 -2.33985,0.51758 -0.43904,0.11812 -0.88819,0.19774 -1.33203,0.12109 -0.44383,-0.0766 -0.88435,-0.32093 -1.19336,-0.76953 -0.22832,-0.33148 -0.37435,-0.75544 -0.51562,-1.16992 -0.14128,-0.41449 -0.28545,-0.83442 -0.51367,-1.16602 -0.27615,-0.40123 -0.66027,-0.6436 -1.05274,-0.75 -0.39246,-0.10634 -0.79553,-0.0855 -1.19336,-0.0293 -0.52614,0.0743 -1.06698,0.22142 -1.49804,0.64648 -0.39496,0.38946 -0.66843,0.99199 -0.80079,1.63867 -0.13236,0.6467 -0.1296,1.33712 -0.041,1.99805 0.19432,1.45003 0.78002,2.72982 1.30078,4.01562 0.26039,0.64291 0.50731,1.29939 0.68555,1.99414 0.17824,0.69476 0.28673,1.43149 0.25976,2.16797 -0.0471,1.28519 -0.51446,2.5134 -1.21094,3.36329 -0.69649,0.84988 -1.60702,1.33048 -2.53124,1.43945 -1.32977,0.15678 -2.65647,-0.43057 -3.83594,-1.29688 -1.88364,-1.3835 -3.45428,-3.4535 -4.96094,-5.54492 -1.50666,-2.09142 -2.99277,-4.25184 -4.77148,-5.88086 -2.51638,-2.30459 -5.47901,-3.42365 -8.32618,-4.80078 -4.77613,-2.31015 -9.3316,-5.41332 -13.84961,-8.56836 -7.98094,-5.57329 -16.06724,-11.41607 -24.89062,-13.36914 -5.19009,-1.14884 -10.48373,-0.91172 -15.71875,-1.55859 -4.84052,-0.59813 -9.66505,-1.95527 -14.51758,-1.58789 -2.42622,0.18369 6.82908,-21.95047 4.59375,-20.62891 -2.23533,1.32156 -15.95668,26.12242 -17.39844,28.83594 -1.52193,2.8645 -2.32015,6.34209 -2.875,9.8164 -0.55475,3.47432 -0.89366,7.02153 -1.61718,10.43555 -1.13773,5.36754 -3.5327,9.67259 -6.54883,13.75977 -0.88807,1.20343 -2.32687,1.90372 -3.30274,3.03711 -1.04293,1.21128 -2.14008,2.47019 -2.68554,3.97265 -0.78724,2.16845 -0.56462,4.58212 -0.70508,6.88477 -0.14221,2.33141 0.23021,4.69943 -0.13867,7.00586 -0.14281,0.89293 -0.32836,1.83017 -0.79493,2.59375 -3.20064,-0.12628 -6.40254,-0.22011 -9.60546,-0.25782 -2.82968,-0.0332 -5.66989,-0.0315 -8.47461,-0.41015 -2.80472,-0.37866 -5.59515,-1.15378 -8.01172,-2.63477 -1.54854,-0.94903 -2.93512,-2.19001 -3.95899,-3.69531 -1.02389,-1.50529 -1.67679,-3.27975 -1.76172,-5.10156 -0.087,-1.86635 0.41898,-3.72394 1.21094,-5.41407 0.79196,-1.69014 1.8652,-3.23131 2.96875,-4.73437 6.2667,-8.53536 13.88016,-16.44184 17.25586,-26.49414 3.01933,-8.99106 2.29257,-18.94295 -0.57422,-27.98438 -1.48246,-4.67547 -3.5145,-9.15796 -5.7207,-13.53515 -1.66455,-3.30254 -3.43181,-6.55443 -5.19922,-9.80469 1.70722,-2.34561 3.39882,-4.70114 4.99609,-7.11523 4.03556,-6.09922 7.52098,-12.74138 8.74805,-19.96289 0.95744,-5.6347 0.49028,-11.50803 -1.3457,-16.91797 -0.0589,2.54 -1.17622,5.03867 -3.02735,6.76758 -0.85648,0.79993 -1.88586,1.44763 -3.02929,1.6914 -1.11813,0.23837 -2.29749,0.0775 -3.36328,-0.33789 -1.30248,-0.50748 -2.45852,-1.39444 -3.28711,-2.52539 -0.82858,-1.13095 -1.32772,-2.50281 -1.42383,-3.9043 -0.12371,2.48458 -0.009,4.98031 0.33789,7.44336 0.41312,2.92961 1.1579,5.84171 1.05469,8.79883 -0.11925,3.41649 -1.3655,6.6851 -2.73828,9.8125 -0.8149,1.85649 -1.68778,3.68437 -2.58594,5.5 -0.90161,-1.81565 -1.77897,-3.64262 -2.5957,-5.5 -1.37482,-3.12657 -2.61764,-6.39591 -2.73633,-9.8125 -0.10268,-2.95713 0.6417,-5.8692 1.05468,-8.79883 0.34718,-2.46307 0.45952,-4.95878 0.33594,-7.44336 -0.0961,1.40149 -0.59524,2.77335 -1.42383,3.9043 -0.82858,1.13095 -1.98266,2.01791 -3.28515,2.52539 -1.06578,0.4153 -2.24712,0.57626 -3.36524,0.33789 -1.14343,-0.24377 -2.17086,-0.89147 -3.02734,-1.6914 -1.85112,-1.7289 -2.96841,-4.22758 -3.02734,-6.76758 z m 18.07812,51.89258 c 2.27759,3.32036 4.40477,6.72977 6.14453,10.36718 2.32317,4.85719 3.93454,10.09249 4.39063,15.46289 0.45608,5.37039 -0.26805,10.88004 -2.41992,15.81641 -1.74537,4.00385 -4.37633,7.54349 -7.01758,11.01562 -0.39077,0.51371 -0.78739,1.02263 -1.17969,1.53516 -0.34427,-0.51301 -0.6863,-1.02801 -1.03906,-1.53516 -2.48936,-3.57896 -5.21025,-7.04408 -7.01758,-11.01562 -2.23377,-4.90859 -2.97376,-10.43707 -2.50195,-15.81445 0.4718,-5.37736 2.12567,-10.60999 4.47265,-15.46485 1.75643,-3.63332 3.8885,-7.04347 6.16797,-10.36718 z"
             style="fill:#ffd700;fill-opacity:1;fill-rule:evenodd;stroke:#000000;stroke-width:2.74384737;stroke-linecap:round;stroke-linejoin:round;stroke-miterlimit:4;stroke-dasharray:none;stroke-opacity:1" />
        </g>
        <path
           inkscape:connector-curvature="0"
           style="fill:#ffd700;fill-opacity:1;fill-rule:evenodd;stroke:#000000;stroke-width:2.99281216;stroke-linecap:butt;stroke-linejoin:round;stroke-miterlimit:4;stroke-dasharray:none;stroke-opacity:1"
           d="m -536.81308,638.32072 c -0.26675,-0.007 -0.53459,0.002 -0.80227,0.0263 -2.14364,0.19451 -4.1265,1.41987 -5.65668,3.05175 -1.11555,1.1896 -2.02808,2.60971 -2.61107,4.18093 -0.58292,1.57122 -0.83006,3.29449 -0.65125,4.97597 0.26355,2.47779 1.44391,4.77657 3.0457,6.57427 2.72687,3.06033 6.73359,4.7371 10.65917,4.46075 l 8.48436,-10.33052 c -0.90331,-4.51216 -3.55334,-8.58572 -7.17883,-11.03502 -1.59375,-1.07671 -3.42231,-1.85662 -5.28913,-1.90447 z m 51.1453,0 c -1.86682,0.0479 -3.69538,0.82776 -5.28913,1.90447 -3.62557,2.4493 -6.27553,6.52286 -7.17884,11.03503 l 8.48437,10.33052 c 3.92558,0.27634 7.93229,-1.40043 10.65909,-4.46076 1.60179,-1.7977 2.78223,-4.09647 3.04569,-6.57427 0.17882,-1.68147 -0.0679,-3.40475 -0.65124,-4.97597 -0.58292,-1.57122 -1.497,-2.99133 -2.61247,-4.18092 -1.53027,-1.63189 -3.51157,-2.85725 -5.65521,-3.05176 -0.26768,-0.0243 -0.53559,-0.0332 -0.80226,-0.0263 z"
           id="path14215-2" />
        <path
           style="fill:#000000;fill-rule:evenodd;stroke:#000000;stroke-width:0.99760407px;stroke-linecap:butt;stroke-linejoin:miter;stroke-opacity:1"
           d="m -536.9285,656.6809 c -1.53932,-0.7539 -2.73201,-2.18418 -3.19703,-3.83391 -0.41758,-1.48143 -0.26035,-3.07721 0.17757,-4.55276 0.31104,-1.04804 0.79099,-2.09452 1.64295,-2.77958 0.73226,-0.58881 1.68167,-0.8577 2.61981,-0.91056 1.02469,-0.0577 2.07342,0.13283 2.97511,0.62301 0.92682,0.50384 1.66839,1.30539 2.22016,2.2045 0.47955,0.78143 0.82641,1.64407 1.0213,2.53996 l -7.45987,6.70934 z"
           id="path14219-5"
           inkscape:path-effect="#path-effect14221-9"
           inkscape:original-d="m -536.9285,656.6809 c 0,0 -2.65776,-2.2161 -3.19703,-3.83391 -0.47648,-1.42923 -0.24495,-3.10391 0.17757,-4.55276 0.30579,-1.0483 0.83678,-2.10816 1.64295,-2.77958 0.72636,-0.60494 1.70401,-0.85124 2.61981,-0.91056 1.00842,-0.0653 2.07336,0.13148 2.97511,0.62301 0.89761,0.48931 1.63732,1.32007 2.22016,2.2045 0.49562,0.75211 1.0213,2.53996 1.0213,2.53996 z"
           inkscape:connector-curvature="0"
           sodipodi:nodetypes="caaaaaacc" />
        <path
           style="fill:#000000;fill-rule:evenodd;stroke:#000000;stroke-width:0.99760407px;stroke-linecap:butt;stroke-linejoin:miter;stroke-opacity:1"
           d="m -485.55268,656.68089 c 1.53934,-0.75387 2.73206,-2.18417 3.19707,-3.83391 0.41757,-1.48143 0.26031,-3.07721 -0.17762,-4.55276 -0.31105,-1.04804 -0.79099,-2.09452 -1.64294,-2.77958 -0.73226,-0.58882 -1.68167,-0.85771 -2.61982,-0.91056 -1.02467,-0.0577 -2.07337,0.13284 -2.97505,0.62301 -0.92683,0.50384 -1.66841,1.30538 -2.22019,2.2045 -0.47955,0.78143 -0.82641,1.64407 -1.02129,2.53996 l 7.45984,6.70934 z"
           id="path14219-9-9"
           inkscape:path-effect="#path-effect14221-1-5"
           inkscape:original-d="m -485.55268,656.68089 c 0,0 2.65775,-2.2161 3.19707,-3.83391 0.47645,-1.42923 0.24495,-3.10391 -0.17762,-4.55276 -0.30574,-1.0483 -0.83679,-2.10816 -1.64294,-2.77958 -0.72632,-0.60494 -1.70403,-0.85123 -2.61982,-0.91056 -1.00837,-0.0653 -2.07336,0.13148 -2.97505,0.62301 -0.89762,0.48931 -1.63734,1.32007 -2.22019,2.2045 -0.49565,0.75211 -1.02129,2.53996 -1.02129,2.53996 z"
           inkscape:connector-curvature="0"
           sodipodi:nodetypes="caaaaaacc" />
        <path
           inkscape:connector-curvature="0"
           style="fill:#ffd700;fill-opacity:1;fill-rule:evenodd;stroke:#000000;stroke-width:2.99281216;stroke-linecap:butt;stroke-linejoin:round;stroke-miterlimit:4;stroke-dasharray:none;stroke-opacity:1"
           d="m -519.60119,638.51825 c -0.62602,0.018 -1.25634,0.13501 -1.86377,0.29793 -1.90446,0.51086 -3.71545,1.46081 -5.22206,2.81801 -1.73782,1.56555 -3.06975,3.6578 -5.0024,4.92988 -0.98998,0.65162 -2.09796,1.05945 -3.16767,1.54234 -1.06979,0.48289 -2.13309,1.06474 -2.92372,1.98018 -0.98929,1.14544 -1.45757,2.70878 -1.68676,4.25501 -0.22926,1.54622 -0.24948,3.12221 -0.4896,4.66651 -0.14993,0.96413 -0.3888,1.92109 -0.80679,2.78838 -0.418,0.8673 -1.02482,1.64503 -1.8042,2.14314 -0.6033,0.38551 -1.29179,0.59449 -1.98731,0.68969 -0.69544,0.0952 -1.39986,0.0803 -2.10007,0.0428 -1.40041,-0.0751 -2.83806,-0.23669 -4.17889,0.20576 -1.38058,0.45557 -2.56406,1.56357 -3.17681,2.97439 -0.61274,1.41081 -0.64421,3.10307 -0.0854,4.53977 2.63355,-0.79228 5.32841,-1.34361 8.04809,-1.6444 2.2393,-0.24765 4.49476,-0.32512 6.74413,-0.23374 -1.15741,2.64179 -2.88414,4.98998 -5.00396,6.80801 -2.49761,2.14207 -5.53854,3.53752 -8.70083,3.99163 1.43055,1.01716 3.08404,1.66596 4.78587,1.87814 3.12488,0.3896 6.38523,-0.75383 8.70082,-3.05175 0.59885,4.28188 -0.72254,8.82957 -3.48033,11.97491 -2.60591,2.97208 -6.43693,4.64337 -10.22445,4.46075 1.61132,1.17958 3.50032,1.91228 5.43859,2.11187 2.40304,0.24745 4.87441,-0.33504 6.96222,-1.64275 1.19824,3.24129 0.95094,7.06483 -0.65273,10.09515 -0.919,1.73658 -2.26022,3.21069 -3.85249,4.2336 -1.59227,1.02291 -3.43207,1.59389 -5.2846,1.6378 3.09825,2.00046 6.94402,2.6049 10.44262,1.64275 1.90001,-0.52253 3.6932,-1.49102 5.2205,-2.81802 -0.16086,4.25186 -0.97273,8.47428 -2.39289,12.44404 -1.10157,3.07906 -2.56781,6.00653 -4.35124,8.68777 3.11059,-0.55375 6.07578,-2.03153 8.48429,-4.22702 2.20549,-2.01034 3.94144,-4.61562 5.00396,-7.51251 -0.0885,4.52916 -0.7494,9.04405 -1.95826,13.38228 -0.78828,2.82893 -1.8088,5.58339 -3.0457,8.21866 2.6505,-0.79086 5.12773,-2.25008 7.17884,-4.22702 1.58797,-1.53062 2.92154,-3.36749 3.91652,-5.399 0.81601,2.96712 0.81601,6.18978 0,9.1569 -1.0384,3.77596 -3.41239,7.10512 -6.52759,9.1569 3.33064,-0.99106 6.50705,-2.58556 9.35519,-4.69615 3.14573,-2.33112 5.88978,-5.29268 8.04966,-8.68777 2.15988,3.3951 3.25208,10.85373 6.34431,15.50291 2.17231,3.26608 4.97769,6.26946 8.32106,8.32084 4.48425,2.7514 12.8719,4.25945 15.00516,4.89423 -3.1152,-2.05178 -10.65249,-9.98368 -14.02267,-16.3128 -2.81684,-5.28994 -5.58661,-14.36794 -4.7706,-17.33506 0.99498,2.03152 5.78204,11.19308 10.38942,15.28095 4.6946,4.16525 14.06944,7.866 16.71994,8.65686 -1.23689,-2.63527 -9.63257,-8.33435 -12.92765,-13.67077 -4.14486,-6.71267 -8.00192,-17.7128 -8.09032,-22.24196 1.06253,2.89689 2.797,5.50218 5.0024,7.51251 2.40859,2.19548 12.6776,12.80092 15.78827,13.35467 -1.7835,-2.68124 -10.55208,-14.73636 -11.65365,-17.81542 -1.42016,-3.96976 -2.23203,-8.19218 -2.39289,-12.44404 1.5273,1.327 3.32048,2.29549 5.22049,2.81802 3.4986,0.96215 7.3443,0.35771 10.44263,-1.64275 -1.85253,-0.0439 -3.69233,-0.61489 -5.2846,-1.6378 -1.59227,-1.02291 -2.93349,-2.49701 -3.85249,-4.2336 -1.60367,-3.03031 -1.85097,-6.85386 -0.65273,-10.09515 2.08781,1.30771 4.55761,1.8902 6.96066,1.64275 1.93827,-0.19959 3.82725,-0.93229 5.43863,-2.11187 -3.78749,0.18262 -7.61858,-1.48867 -10.2245,-4.46075 -2.75779,-3.14534 -4.07917,-7.69302 -3.48033,-11.97491 2.31559,2.29793 5.57751,3.44135 8.70239,3.05175 1.70182,-0.21218 3.35532,-0.86098 4.78589,-1.87814 -3.16231,-0.45411 -6.20473,-1.84956 -8.70241,-3.99163 -2.11983,-1.81802 -3.84648,-4.16622 -5.00396,-6.80801 2.24937,-0.0914 4.5049,-0.014 6.74412,0.23374 2.71969,0.30079 5.4161,0.85212 8.04965,1.6444 0.55874,-1.4367 0.52735,-3.12896 -0.0854,-4.53977 -0.61275,-1.41082 -1.79779,-2.51882 -3.17838,-2.97439 -1.34083,-0.44245 -2.77693,-0.28086 -4.17734,-0.20576 -0.7002,0.0376 -1.40462,0.0524 -2.10014,-0.0428 -0.69544,-0.0952 -1.3855,-0.30418 -1.98872,-0.68969 -0.77946,-0.49811 -1.38619,-1.27584 -1.80427,-2.14314 -0.418,-0.86729 -0.65687,-1.82424 -0.80679,-2.78838 -0.24012,-1.54429 -0.25878,-3.12028 -0.48805,-4.66651 -0.22926,-1.54623 -0.69747,-3.10957 -1.68675,-4.25501 -0.79071,-0.91544 -1.85394,-1.49729 -2.92373,-1.98018 -1.06971,-0.48289 -2.17768,-0.89072 -3.16767,-1.54234 -1.93265,-1.27208 -3.26613,-3.36433 -5.00396,-4.92988 -1.5066,-1.3572 -3.31603,-2.30715 -5.22057,-2.81801 -1.21479,-0.32586 -2.52486,-0.47005 -3.69842,0 -1.22144,0.48923 -2.13911,1.5728 -3.0457,2.58264 -1.10712,1.23318 -2.26874,2.40958 -3.48033,3.52251 -1.2116,-1.11292 -2.37478,-2.28934 -3.48189,-3.52251 -0.90659,-1.00984 -1.82271,-2.09341 -3.04414,-2.58264 -0.58682,-0.23502 -1.20878,-0.31595 -1.83481,-0.29793 z"
           id="path14352-0"
           sodipodi:nodetypes="cccscsccscccsscscscscscscsscscccccscccccscaacacacacccccscsscscscscscccssccccssccsccsscsccc" />
        <path
           style="stroke:#000000;stroke-width:0.99760407;stroke-opacity:1"
           d="m -505.95224,671.36223 c -0.56652,-0.12586 -0.56495,1.02146 -0.7376,1.57477 -0.19038,0.6098 -0.29002,1.25033 -0.31704,1.89046 -0.0351,0.84242 0.0562,1.6919 0.20857,2.52103 0.25058,1.3625 0.8214,2.64732 1.1535,3.99277 0.2491,1.00651 0.52404,2.01509 0.62829,3.04652 0.0601,0.59194 0.0461,1.19218 0,1.78578 -0.0531,0.67128 0.0398,1.42439 -0.31742,1.99556 -0.61291,0.98075 -1.94249,1.26529 -2.84112,1.99348 -0.55878,0.45237 -1.14772,0.89393 -1.57868,1.46925 -0.23473,0.31362 -0.43635,0.66879 -0.5263,1.04971 -0.12127,0.51093 -0.48039,1.35917 0,1.57559 0.72402,0.32691 1.23072,-1.009 1.78912,-1.57434 0.45416,-0.45943 0.75346,-1.07256 1.26314,-1.46968 0.92759,-0.72195 2.10389,-1.04887 3.15658,-1.5731 0.63141,-0.31445 1.48443,-0.3697 1.89415,-0.94419 0.47196,-0.66297 0.26378,-1.60509 0.3175,-2.41594 0.0687,-1.04846 0.29267,-2.14136 0,-3.15119 -0.49124,-1.70892 -2.11779,-2.89239 -2.83611,-4.51866 -0.63173,-1.4298 -1.0473,-2.96966 -1.25853,-4.51743 -0.0757,-0.55496 0,-1.12032 0,-1.68026 0,-0.35019 0.34296,-0.97452 0,-1.05054 z"
           id="path15610"
           inkscape:connector-curvature="0" />
        <path
           style="stroke:#000000;stroke-width:0.99760407;stroke-opacity:1"
           d="m -516.54495,671.34977 c 0.56691,-0.12462 0.56348,1.02271 0.73496,1.57642 0.1892,0.61064 0.28845,1.2545 0.31391,1.89089 0.0336,0.84241 -0.0586,1.6919 -0.2124,2.52103 -0.25253,1.36167 -0.82561,2.64606 -1.1585,3.9907 -0.25027,1.0065 -0.52677,2.01425 -0.63336,3.04527 -0.0609,0.59192 -0.0476,1.19218 0,1.78578 0.0523,0.67127 -0.0422,1.42439 0.31399,1.99597 0.61095,0.98158 1.93858,1.26861 2.83759,1.99764 0.55801,0.45319 1.14655,0.896 1.57634,1.47173 0.23442,0.31405 0.43526,0.66963 0.52482,1.05096 0.1201,0.51135 0.47844,1.35959 0,1.57559 -0.72448,0.32608 -1.22916,-1.01107 -1.78686,-1.57684 -0.45329,-0.45984 -0.75143,-1.07338 -1.2604,-1.47174 -0.92642,-0.72363 -2.10233,-1.05179 -3.15392,-1.57767 -0.63055,-0.31571 -1.48404,-0.3722 -1.8922,-0.94669 -0.47071,-0.6638 -0.26144,-1.6055 -0.3136,-2.41636 -0.0671,-1.04845 -0.28923,-2.14177 0,-3.15118 0.4939,-1.70769 2.12201,-2.88907 2.84299,-4.51452 0.63414,-1.42896 1.05198,-2.96758 1.26547,-4.51534 0.0765,-0.55497 0,-1.12033 0,-1.68027 0,-0.35018 -0.34171,-0.97493 0,-1.05054 z"
           id="path15612"
           inkscape:connector-curvature="0" />
        <path
           style="fill:none;stroke:#000000;stroke-width:4.98801994;stroke-linecap:round;stroke-linejoin:round;stroke-miterlimit:4;stroke-dasharray:none;stroke-opacity:1"
           d="m -486.23297,659.84748 c 0,0 -1.73205,1.11699 -2.68838,1.4086 -0.88909,0.27168 -1.83285,0.34146 -2.75396,0.29494 -0.84232,-0.0424 -1.65216,-0.37428 -2.48511,-0.52175 -1.02575,-0.18193 -2.05704,-0.32109 -3.08912,-0.44821 -0.4914,-0.0607 -0.98319,-0.13707 -1.4774,-0.14954 -0.49288,-0.0129 -1.47779,0.0731 -1.47779,0.0731"
           id="path15618"
           inkscape:connector-curvature="0" />
        <path
           style="fill:none;stroke:#000000;stroke-width:4.98801994;stroke-linecap:round;stroke-linejoin:round;stroke-miterlimit:4;stroke-dasharray:none;stroke-opacity:1"
           d="m -536.24797,659.80594 c 0,0 1.73064,1.1199 2.68666,1.41318 0.88862,0.27291 1.83246,0.34435 2.75357,0.29949 0.84232,-0.0411 1.65287,-0.37178 2.48574,-0.51758 1.02575,-0.17986 2.05751,-0.31777 3.08989,-0.44281 0.4914,-0.0598 0.9832,-0.13542 1.47772,-0.14705 0.49288,-0.012 1.47779,0.0756 1.47779,0.0756"
           id="path15620"
           inkscape:connector-curvature="0" />
        <path
           style="fill:none;stroke:#000000;stroke-width:4.98803568;stroke-linecap:round;stroke-opacity:1"
           inkscape:connector-curvature="0"
           id="path15622"
           d="m -511.23504,654.10672 0,5.7931" />
        <path
           style="stroke:#000000;stroke-width:0.99760407;stroke-opacity:1"
           d="m -483.96744,665.26838 c -0.064,0.69746 -1.3837,0.23637 -2.08265,0.29577 -0.86466,0.0731 -1.73814,0.14829 -2.60279,0.0723 -0.85732,-0.0756 -1.71307,-0.24717 -2.5283,-0.52175 -0.59892,-0.20188 -1.09977,-0.65383 -1.70994,-0.81833 -0.6001,-0.16199 -1.2547,-0.005 -1.85902,-0.14995 -0.44337,-0.10634 -1.23502,-0.0665 -1.26399,-0.52091 -0.0258,-0.39836 0.66116,-0.47479 1.04153,-0.59318 0.54645,-0.1699 1.1392,-0.17737 1.71033,-0.14705 0.78165,0.0411 1.54237,0.27083 2.30473,0.44738 0.65031,0.15037 1.28555,0.35973 1.93468,0.52132 0.86349,0.21559 1.74555,0.35558 2.6024,0.59609 0.82991,0.23304 2.53142,-0.0386 2.45341,0.81874 z"
           id="path15624"
           inkscape:connector-curvature="0" />
        <path
           style="stroke:#000000;stroke-width:0.99760407;stroke-opacity:1"
           d="m -538.52194,665.22684 c 0.0625,0.69746 1.38323,0.23844 2.08219,0.29867 0.86466,0.0743 1.73782,0.15121 2.60279,0.076 0.85731,-0.0743 1.71307,-0.24467 2.52908,-0.518 0.59931,-0.20063 1.10063,-0.65217 1.71111,-0.81583 0.60049,-0.16118 1.2547,-0.003 1.85901,-0.14705 0.44338,-0.10593 1.23503,-0.0648 1.26478,-0.51883 0.0266,-0.39837 -0.66038,-0.47562 -1.04035,-0.59484 -0.54606,-0.17073 -1.13882,-0.17904 -1.71042,-0.14954 -0.78157,0.0403 -1.54276,0.26834 -2.30504,0.44363 -0.65031,0.14954 -1.28633,0.35807 -1.93468,0.51842 -0.86388,0.21392 -1.74626,0.35308 -2.60318,0.59194 -0.8303,0.23179 -2.53142,-0.0428 -2.45489,0.815 z"
           id="path15626"
           inkscape:connector-curvature="0" />
        <path
           inkscape:connector-curvature="0"
           id="path15634"
           d="m -512.50169,664.79484 c 0,0 -0.1846,-1.71974 -0.36998,-2.56258 -0.18576,-0.84532 -0.37263,-1.7056 -0.74182,-2.48862 -0.44525,-0.94461 -1.07666,-1.79867 -1.74547,-2.60079 -0.40934,-0.491 -0.75112,-1.19509 -1.3748,-1.33799 -0.26721,-0.0614 -0.61595,0.0407 -0.78126,0.25962 -0.17952,0.23719 -0.14243,0.61312 -0.0375,0.89102 0.13251,0.35226 0.51982,0.545 0.78009,0.8175 0.56925,0.59526 1.24853,1.10121 1.70916,1.7837 0.60713,0.90059 0.93571,1.96233 1.33622,2.97299 0.25136,0.63348 0.23824,1.40237 0.66803,1.93159 0.13673,0.16823 0.55731,0.33481 0.55731,0.33481 z"
           style="stroke:#000000;stroke-width:0.99760723;stroke-linejoin:round;stroke-opacity:1" />
        <path
           inkscape:connector-curvature="0"
           id="path15636"
           d="m -509.98386,664.799 c 0,0 0.18733,-1.71974 0.3738,-2.56216 0.18733,-0.84492 0.37537,-1.70478 0.74573,-2.48739 0.44642,-0.94377 1.07932,-1.797 1.74969,-2.5983 0.41012,-0.49017 0.75307,-1.19384 1.37675,-1.33591 0.26722,-0.0611 0.61595,0.0416 0.78009,0.26087 0.17913,0.2376 0.14165,0.61312 0.0359,0.89144 -0.13322,0.35225 -0.52053,0.54458 -0.78157,0.81625 -0.57004,0.59443 -1.25041,1.09955 -1.7119,1.78121 -0.60861,0.89975 -0.93876,1.96109 -1.34083,2.97091 -0.25214,0.63306 -0.24058,1.40196 -0.67076,1.93075 -0.13705,0.16824 -0.55801,0.33399 -0.55801,0.33399 z"
           style="stroke:#000000;stroke-width:0.99760723;stroke-linejoin:round;stroke-opacity:1" />
        <path
           style="stroke:#000000;stroke-width:0.99760407;stroke-opacity:1"
           d="m -514.78784,664.64945 c 0,0 -0.50124,-1.56438 -0.85341,-2.30296 -0.16687,-0.351 -0.37154,-0.68498 -0.59393,-1.00276 -0.45923,-0.6559 -0.97897,-1.27027 -1.52347,-1.85806 -0.28002,-0.30241 -0.56847,-0.59942 -0.89167,-0.85489 -0.19694,-0.15577 -0.38076,-0.40708 -0.6318,-0.40874 -0.23364,-0.003 -0.48196,0.16657 -0.5951,0.37136 -0.09,0.16243 -0.0578,0.3805 0,0.55704 0.11088,0.33606 0.40199,0.5853 0.6318,0.85447 0.5167,0.6069 1.17013,1.08959 1.67215,1.70977 0.60626,0.75103 0.97273,1.6782 1.59679,2.41511 0.1529,0.18069 0.30236,0.39047 0.52014,0.48352 0.20584,0.0872 0.66928,0.0374 0.66928,0.0374 z"
           id="path15638"
           inkscape:connector-curvature="0" />
        <path
           style="stroke:#000000;stroke-width:0.99760407;stroke-opacity:1"
           d="m -507.70162,664.6536 c 0,0 0.50359,-1.56313 0.85693,-2.30171 0.16804,-0.35059 0.37232,-0.68374 0.59588,-1.00235 0.46032,-0.65507 0.98124,-1.26861 1.52613,-1.85557 0.28041,-0.30157 0.56964,-0.59857 0.89284,-0.85322 0.19694,-0.15535 0.38193,-0.40625 0.63258,-0.40791 0.23364,-0.002 0.48118,0.16698 0.59471,0.37178 0.0904,0.16241 0.0586,0.3805 0,0.55704 -0.11127,0.33606 -0.40277,0.58405 -0.63258,0.85364 -0.51787,0.60606 -1.17317,1.0875 -1.67441,1.70686 -0.60783,0.7502 -0.97507,1.67819 -1.60109,2.41261 -0.15329,0.1807 -0.30275,0.39048 -0.52131,0.48228 -0.20545,0.0868 -0.67116,0.0362 -0.67116,0.0362 z"
           id="path15640"
           inkscape:connector-curvature="0" />
        <path
           inkscape:connector-curvature="0"
           id="path15644"
           d="m -520.62287,667.69014 c 0,0 0.72253,0.18444 1.07814,0.29825 0.27611,0.0885 0.62868,0.076 0.81757,0.29743 0.13009,0.1537 0.11736,0.39296 0.1108,0.59443 -0.0109,0.35724 -0.10268,0.71905 -0.26104,1.03973 -0.23325,0.47273 -0.63328,0.84409 -0.98319,1.2383 -0.45103,0.50802 -0.90948,1.02021 -1.43617,1.44723 -0.57386,0.4669 -1.2091,0.85904 -1.8598,1.21046 -0.48812,0.26337 -0.98858,0.52589 -1.52691,0.66671 -0.57846,0.15204 -1.18746,0.20313 -1.78491,0.18403 -0.4522,-0.0142 -0.90713,-0.0881 -1.33809,-0.2239 -0.58542,-0.18485 -1.13343,-0.47937 -1.66169,-0.79216 -0.95617,-0.56577 -1.88642,-1.19675 -2.70703,-1.94572 -0.35569,-0.32442 -0.70013,-0.6775 -0.94579,-1.09124 -0.1618,-0.27291 -0.41511,-0.58487 -0.33359,-0.89143 0.025,-0.0931 0.13939,-0.13667 0.22356,-0.18569 0.36646,-0.21226 0.78392,-0.32566 1.1902,-0.44488 0.27955,-0.0818 0.5684,-0.13459 0.85537,-0.18485 0.27103,-0.0474 0.81788,-0.1105 0.81788,-0.1105 0,0 -0.0125,0.58114 0.0734,0.85406 0.11158,0.35474 0.32906,0.6721 0.55684,0.9662 0.48812,0.62974 1.08517,1.1764 1.70924,1.67404 0.28767,0.22888 0.59432,0.44199 0.92907,0.59485 0.39934,0.18194 0.82757,0.31902 1.264,0.37261 0.28345,0.0345 0.57425,0.0137 0.85575,-0.0366 0.46688,-0.0835 0.93337,-0.21725 1.35543,-0.43368 0.33757,-0.17321 0.63641,-0.41955 0.91408,-0.67875 0.6001,-0.55954 1.22495,-1.14026 1.60227,-1.86845 0.23285,-0.44945 0.28267,-0.9741 0.37107,-1.47216 0.0632,-0.35558 0.11236,-1.0767 0.11236,-1.0767 z"
           style="stroke:#000000;stroke-width:0.99760723;stroke-linejoin:round;stroke-opacity:1" />
        <path
           style="stroke:#000000;stroke-width:2.99282146;stroke-linejoin:round;stroke-opacity:1"
           inkscape:connector-curvature="0"
           id="path15646"
           d="m -524.47302,667.88123 c 0.19115,0.0308 0.3777,0.0984 0.55223,0.18443 0.11353,0.0556 0.22863,0.11797 0.31508,0.21019 0.0835,0.0889 0.13517,0.20354 0.18342,0.31487 0.10932,0.25173 0.24715,0.51426 0.23598,0.78801 -0.0117,0.29036 -0.10698,0.61104 -0.31625,0.81416 -0.18694,0.18154 -0.47735,0.24302 -0.73683,0.26212 -0.27572,0.0207 -0.58971,0.003 -0.81444,-0.15826 -0.21435,-0.15245 -0.30509,-0.43617 -0.39426,-0.68333 -0.10542,-0.29285 -0.19038,-0.6098 -0.15719,-0.91927 0.025,-0.2347 0.0903,-0.49597 0.26338,-0.65591 0.12822,-0.1188 0.32703,-0.13085 0.49968,-0.15743 0.12166,-0.0187 0.24715,-0.0195 0.36842,0" />
        <path
           inkscape:connector-curvature="0"
           id="path15648"
           d="m -501.87813,667.71091 c 0,0 -0.72332,0.18361 -1.07893,0.29618 -0.27612,0.0876 -0.63063,0.0752 -0.81835,0.29659 -0.13087,0.15328 -0.11815,0.39297 -0.11237,0.59402 0.0102,0.35682 0.10159,0.71946 0.25956,1.04139 0.23247,0.47272 0.63134,0.84533 0.98085,1.23954 0.45064,0.50886 0.90714,1.01938 1.43344,1.44932 0.57308,0.46773 1.20761,0.86111 1.85792,1.21378 0.48773,0.2646 0.98741,0.52755 1.5234,0.66961 0.57776,0.15329 1.18715,0.20521 1.78452,0.18652 0.45259,-0.0142 0.90713,-0.0868 1.33887,-0.22182 0.58542,-0.18361 1.13453,-0.47812 1.66286,-0.78925 0.95766,-0.56411 1.88759,-1.19385 2.71094,-1.94198 0.356,-0.32401 0.70091,-0.67667 0.94805,-1.08999 0.16258,-0.27292 0.41589,-0.58405 0.33515,-0.89061 -0.025,-0.0935 -0.13938,-0.13708 -0.22317,-0.1861 -0.36568,-0.21309 -0.78352,-0.32691 -1.18981,-0.44655 -0.27994,-0.0827 -0.56808,-0.13542 -0.8538,-0.18609 -0.27073,-0.0478 -0.81796,-0.11174 -0.81796,-0.11174 0,0 0.0117,0.58155 -0.075,0.85405 -0.11159,0.35433 -0.33055,0.67169 -0.55879,0.96538 -0.4889,0.62891 -1.08666,1.17473 -1.71229,1.66989 -0.28806,0.22888 -0.59471,0.44197 -0.92947,0.59359 -0.39972,0.18195 -0.82795,0.31778 -1.26438,0.37012 -0.28345,0.0341 -0.57456,0.0125 -0.8538,-0.0378 -0.46688,-0.0839 -0.93298,-0.21849 -1.35465,-0.43616 -0.33757,-0.17363 -0.63571,-0.42079 -0.91291,-0.68 -0.5994,-0.56037 -1.22347,-1.14151 -1.59953,-1.87094 -0.23216,-0.45029 -0.2808,-0.97452 -0.36881,-1.47258 -0.0625,-0.35516 -0.11088,-1.07712 -0.11088,-1.07712 z"
           style="stroke:#000000;stroke-width:0.99760723;stroke-linejoin:round;stroke-opacity:1" />
        <path
           style="stroke:#000000;stroke-width:2.99282146;stroke-linejoin:round;stroke-opacity:1"
           inkscape:connector-curvature="0"
           id="path15650"
           d="m -498.02408,667.90199 c -0.19163,0.0308 -0.37771,0.0985 -0.55184,0.18361 -0.11393,0.0556 -0.22903,0.11756 -0.31594,0.21018 -0.0834,0.0889 -0.13556,0.20314 -0.18382,0.31488 -0.10924,0.25132 -0.24753,0.51343 -0.23707,0.788 0.0109,0.29078 0.1062,0.61146 0.31469,0.81417 0.18655,0.18154 0.47617,0.24343 0.73605,0.26295 0.27611,0.0212 0.5901,0.003 0.81522,-0.15743 0.21396,-0.15245 0.30548,-0.43533 0.39466,-0.68291 0.10619,-0.29244 0.19115,-0.6098 0.15836,-0.91927 -0.025,-0.23428 -0.0897,-0.49639 -0.26222,-0.65633 -0.12783,-0.1188 -0.32672,-0.13168 -0.49937,-0.15785 -0.12165,-0.0187 -0.24714,-0.0195 -0.36841,0" />
        <path
           style="fill:none;stroke:#000000;stroke-width:2.99308991;stroke-linecap:round;stroke-linejoin:round;stroke-opacity:1"
           d="m -517.33105,713.06334 c 0,0 -2.92677,-1.72459 -3.78494,-3.17333 -0.66273,-1.11969 -1.02911,-2.57143 -0.82288,-3.87818 0.34522,-2.18662 3.2912,-5.64138 3.2912,-5.64138"
           id="path16749"
           inkscape:connector-curvature="0" />
        <path
           style="fill:none;stroke:#000000;stroke-width:2.99308991;stroke-linecap:round;stroke-linejoin:round;stroke-opacity:1"
           d="m -505.14982,712.53137 c 0,0 2.92678,-1.72458 3.78487,-3.17332 0.66272,-1.1197 1.02911,-2.57144 0.82288,-3.87818 -0.34514,-2.18663 -3.29112,-5.64138 -3.29112,-5.64138"
           id="path16751"
           inkscape:connector-curvature="0" />
        <path
           style="fill:none;stroke:#000000;stroke-width:2.99308991;stroke-linecap:round;stroke-linejoin:round;stroke-opacity:1"
           d="m -524.07837,687.32321 c 0,0 -1.69386,2.68298 -1.97451,4.23124 -0.26229,1.4466 -0.20583,3.04935 0.32914,4.40758 0.45329,1.15101 1.32623,2.13987 2.30372,2.82069 1.39627,0.97255 3.10692,1.55298 4.77196,1.58645 1.47678,0.03 3.03086,-0.38739 4.27861,-1.23424 1.21613,-0.8254 2.27764,-2.08753 2.79746,-3.52597 0.57456,-1.59031 0.16453,-5.11242 0.16453,-5.11242"
           id="path16757"
           inkscape:connector-curvature="0" />
        <path
           style="fill:none;stroke:#000000;stroke-width:2.99308991;stroke-linecap:round;stroke-linejoin:round;stroke-opacity:1"
           d="m -498.40257,686.79553 c 0,0 1.69386,2.68342 1.97458,4.23126 0.2623,1.44659 0.20584,3.04934 -0.32913,4.40756 -0.4533,1.15101 -1.32631,2.13987 -2.30372,2.82069 -1.39635,0.97255 -3.107,1.55299 -4.77196,1.58645 -1.47686,0.03 -3.03094,-0.38739 -4.27822,-1.23424 -1.21613,-0.8254 -2.27772,-2.08752 -2.79746,-3.52597 -0.57465,-1.59031 -0.16461,-5.11241 -0.16461,-5.11241"
           id="path16759"
           inkscape:connector-curvature="0" />
        <path
           style="fill:#ffd700;fill-opacity:1;stroke:#000000;stroke-width:2.99308991;stroke-linejoin:round;stroke-opacity:1"
           inkscape:connector-curvature="0"
           id="path14548"
           d="m -517.61317,699.47602 0,15.47249 0.0453,0 c 0,0.0262 0,0.0515 0,0.0773 0,3.77357 2.77497,6.8344 6.20759,6.8344 3.43066,0 6.22828,-3.06249 6.22828,-6.8344 0,-0.0262 0,-0.0515 0,-0.0773 l 0.0226,0 0,-15.47249 -12.50201,0 z" />
      </g>
      <path
         sodipodi:nodetypes="cac"
         inkscape:connector-curvature="0"
         inkscape:original-d="m 135.1655,723.01072 c 0,0 2.09046,2.61479 3.06471,3.97554 0.91144,1.273 2.59806,3.914 2.59806,3.914"
         inkscape:path-effect="#path-effect4876"
         id="path4874"
         d="m 135.1655,723.01072 c 1.06953,1.28726 2.09201,2.61362 3.06471,3.97554 0.91029,1.27455 1.77699,2.58023 2.59806,3.914"
         style="fill:none;fill-rule:evenodd;stroke:#000000;stroke-width:2.74384689;stroke-linecap:round;stroke-linejoin:miter;stroke-miterlimit:4;stroke-dasharray:none;stroke-opacity:1" />
      <path
         sodipodi:nodetypes="cac"
         inkscape:connector-curvature="0"
         inkscape:original-d="m 140.81994,712.25348 c 0,0 1.69531,3.6481 2.63183,5.4267 C 144.40348,719.48758 -1192916600,846660010 146.48439,723.00402"
         inkscape:path-effect="#path-effect4876-9"
         id="path4874-3"
         d="m 140.81994,712.25348 c 0.81753,1.83707 1.69544,3.64727 2.63183,5.4267 0.95127,1.80769 1.96289,3.58363 3.03262,5.32384"
         style="fill:none;fill-rule:evenodd;stroke:#000000;stroke-width:2.74384689;stroke-linecap:round;stroke-linejoin:miter;stroke-miterlimit:4;stroke-dasharray:none;stroke-opacity:1" />
    </g>
    <path
       style="fill:#009900;fill-rule:evenodd;stroke:#000000;stroke-width:5;stroke-linecap:butt;stroke-linejoin:round;stroke-miterlimit:4;stroke-dasharray:none;stroke-opacity:1;fill-opacity:1"
       d="m 132.30498,476.38988 a 23.86022,12.703047 42.981389 0 0 -5.82617,2.44727 23.86022,12.703047 42.981389 0 0 8.79883,25.5625 23.86022,12.703047 42.981389 0 0 8.18945,5.98632 12.703244,23.859853 15.29961 0 0 -4.02734,9.76172 12.703244,23.859853 15.29961 0 0 5.95312,26.36914 12.703244,23.859853 15.29961 0 0 18.55078,-19.65625 12.703244,23.859853 15.29961 0 0 0.52149,-2.13672 c 0.7955,0.65183 1.551,1.35248 2.25586,2.10157 1.23296,1.31036 2.31061,2.76441 3.2207,4.3164 -1.11618,1.38789 -2.15054,2.84274 -3.08984,4.35743 -3.75139,6.04939 -5.98659,13.0552 -6.26367,20.16796 -0.29516,7.57689 1.66765,15.26382 5.77343,21.63868 0.0952,0.14778 0.19744,0.2912 0.29493,0.4375 -1.10498,1.17704 -2.46311,2.11652 -3.9629,2.71484 -2.16932,0.86542 -4.59222,1.0205 -6.89062,0.60547 -3.84142,-0.69366 -7.363,-3.00859 -9.52344,-6.25977 -0.24084,2.62288 0.25537,5.30843 1.41797,7.67188 1.58441,3.22096 4.46672,5.83378 7.9043,6.86719 3.51482,1.05663 7.36729,0.44172 10.73828,-1.00977 2.23945,-0.96427 4.3108,-2.30393 6.13281,-3.92383 3.33336,2.95114 7.2314,5.25745 11.45899,6.64844 6.86397,2.25843 14.44026,2.09351 21.32226,-0.10938 0.46426,-0.1486 0.92643,-0.30746 1.38477,-0.47461 a 22.169781,11.80918 88.991109 0 0 11.89453,17.65235 22.169781,11.80918 88.991109 0 0 11.41601,-22.375 22.169781,11.80918 88.991109 0 0 -1.39453,-9.71094 11.805952,22.175842 61.354168 0 0 8.75977,-3.50976 11.805952,22.175842 61.354168 0 0 13.79492,-20.99219 11.805952,22.175842 61.354168 0 0 -25.125,0.27539 11.805952,22.175842 61.354168 0 0 -7.67773,5.46875 22.17612,11.805805 33.661266 0 0 -7.43165,-6.41016 22.17612,11.805805 33.661266 0 0 -25.0039,-2.4707 22.17612,11.805805 33.661266 0 0 11.90625,22.11719 22.17612,11.805805 33.661266 0 0 9.89844,4.75195 22.169781,11.80918 88.991109 0 0 -0.79883,3.63281 c -0.9402,0.3594 -1.89378,0.68379 -2.86328,0.95703 -5.18859,1.46235 -10.81527,1.67233 -15.93555,-0.0137 -4.87875,-1.60647 -9.16171,-4.92538 -11.99609,-9.20898 -2.83438,-4.2836 -4.21384,-9.49981 -3.93946,-14.62891 0.25681,-4.80067 1.93163,-9.48109 4.54297,-13.51758 2.61134,-4.0365 6.13846,-7.44246 10.10547,-10.1582 8.34624,-5.71368 18.63294,-8.34967 28.74219,-8.01953 12.91365,0.42172 25.86772,5.87221 34.15234,15.78711 6.38204,7.63792 9.74815,17.55048 10.26758,27.49023 0.40321,7.71576 -0.83733,15.47115 -3.19141,22.83008 -2.51149,7.85101 -6.4974,15.54531 -13.03906,20.56055 -5.99245,4.59418 -13.65686,6.55721 -21.19726,6.95508 -3.47681,0.18345 -7.06377,0.0387 -10.26758,-1.32422 -3.65447,-1.55461 -6.47096,-4.53335 -9.51172,-7.08789 -1.52038,-1.27727 -3.13151,-2.46968 -4.92578,-3.32032 -1.79427,-0.85064 -3.78869,-1.34982 -5.76758,-1.18554 -1.7881,0.14844 -3.49921,0.82993 -5.04883,1.73437 -1.54962,0.90445 -2.9547,2.03014 -4.35937,3.14649 -1.40468,1.11635 -2.82099,2.23353 -4.38477,3.11328 -1.56377,0.87976 -3.29403,1.51963 -5.08594,1.61133 -1.62679,0.0832 -3.25434,-0.28973 -4.76367,-0.90235 -1.50932,-0.61261 -2.91211,-1.45994 -4.27148,-2.35742 -2.71875,-1.79495 -5.37393,-3.84172 -8.51953,-4.68945 -3.25605,-0.8775 -6.87001,-0.33162 -9.72266,1.46679 -2.85265,1.79841 -4.90146,4.8225 -5.51367,8.13868 5.81377,-2.02491 12.59761,-1.00031 17.55468,2.65039 3.13869,2.31152 5.48928,5.52113 8.36524,8.15234 1.43798,1.31561 3.02356,2.49484 4.80859,3.27734 1.78502,0.78247 3.78374,1.15141 5.70508,0.82422 1.58813,-0.27045 3.06856,-1.00217 4.39258,-1.91992 1.32402,-0.91775 2.50707,-2.02103 3.68945,-3.11523 1.18238,-1.0942 2.37655,-2.18913 3.71485,-3.08594 1.33829,-0.89681 2.83774,-1.59409 4.43359,-1.81445 1.65254,-0.22819 3.35157,0.0658 4.9043,0.67578 1.55272,0.60992 2.96827,1.52613 4.2832,2.55273 2.62987,2.0532 4.8984,4.57295 7.70508,6.37695 1.129,0.72567 2.33731,1.30926 3.58789,1.78711 -0.17581,0.24989 -0.34831,0.50254 -0.52735,0.75 -1.01872,1.40816 -2.12194,2.77438 -3.47656,3.86329 -1.35462,1.08888 -2.9847,1.89173 -4.71679,2.03515 -2.25743,0.18693 -4.45257,-0.74279 -6.44922,-1.8125 -1.99666,-1.0697 -3.944,-2.31437 -6.14453,-2.85156 -3.12319,-0.76242 -6.59175,0.0598 -9.03907,2.14453 -2.44732,2.08476 -3.81088,5.37735 -3.55468,8.58203 3.00742,-1.7115 6.75583,-2.05906 10.02734,-0.93164 2.9252,1.00807 5.34306,3.07147 7.76562,4.99609 2.42257,1.92463 5.0449,3.80529 8.09375,4.33204 2.87506,0.49672 5.86449,-0.28612 8.41602,-1.70118 2.55153,-1.41505 4.7183,-3.42766 6.74414,-5.52734 4.0713,-4.21969 7.68083,-8.88223 10.76172,-13.87109 0.95271,-0.28626 1.89599,-0.60361 2.82617,-0.95118 6.43182,-2.40326 12.33128,-6.11777 17.55469,-10.57421 6.93764,-5.91896 12.76401,-13.2388 16.41016,-21.59766 2.13174,-4.88708 3.49066,-10.06094 4.21484,-15.34375 1.03986,-0.51346 2.17043,-0.84568 3.32617,-0.94336 1.95018,-0.16483 3.92943,0.3002 5.67188,1.19141 2.90399,1.48531 5.16315,4.18358 6.11718,7.30273 0.52873,-2.11491 0.99912,-4.29608 0.72657,-6.45898 -0.37614,-2.98493 -2.14528,-5.75736 -4.67188,-7.39063 -2.58019,-1.66792 -5.80244,-2.13092 -8.85742,-1.80469 -0.56713,0.0606 -1.13053,0.15124 -1.68945,0.26368 0.0676,-2.69464 -0.006,-5.39555 -0.20899,-8.07618 -1.01228,-13.37759 -5.33738,-26.84501 -14.16992,-36.92187 0.93413,-1.62916 2.05287,-3.15178 3.33984,-4.51953 0.70485,-0.74909 1.46036,-1.44975 2.25586,-2.10157 a 23.859853,12.703244 74.70039 0 0 0.52149,2.13672 23.859853,12.703244 74.70039 0 0 18.55078,19.65625 23.859853,12.703244 74.70039 0 0 5.95312,-26.36914 23.859853,12.703244 74.70039 0 0 -4.02734,-9.76172 12.703047,23.86022 47.018611 0 0 8.18945,-5.98632 12.703047,23.86022 47.018611 0 0 8.79883,-25.5625 12.703047,23.86022 47.018611 0 0 -5.82617,-2.44727 12.703047,23.86022 47.018611 0 0 -20.28906,9.41797 12.703047,23.86022 47.018611 0 0 -6.55274,7.75391 23.855447,12.705589 19.372981 0 0 -9.44531,-4.7168 23.855447,12.705589 19.372981 0 0 -26.7207,4.07226 23.855447,12.705589 19.372981 0 0 18.29101,19.9004 23.855447,12.705589 19.372981 0 0 4.69727,1.35546 c -0.66473,1.91441 -1.55811,3.74953 -2.67969,5.4375 -0.99877,1.50315 -2.17043,2.8893 -3.47852,4.13282 -3.64683,-2.62052 -7.62017,-4.79723 -11.78906,-6.47071 -4.12051,-1.65407 -8.42027,-2.82435 -12.79492,-3.58984 0.71444,-2.66128 0.79721,-5.52314 -0.1543,-8.09766 -1.04484,-2.82704 -3.36676,-5.18324 -6.22656,-6.13476 -2.06486,-0.68703 -4.28869,-0.66602 -6.46484,-0.66602 2.84465,1.596 4.99879,4.37768 5.83203,7.53125 0.49996,1.8922 0.53313,3.92449 -0.043,5.79492 -0.0707,0.22967 -0.17116,0.44855 -0.25977,0.67188 -1.14829,-0.0815 -2.29923,-0.14442 -3.44921,-0.17383 -11.47111,-0.29336 -23.19937,2.04453 -32.98633,8.03516 -1.33754,0.81871 -2.62668,1.71642 -3.87696,2.66406 -1.12975,-1.13023 -2.15472,-2.36634 -3.03906,-3.69727 -1.12158,-1.68797 -2.01496,-3.52309 -2.67969,-5.4375 a 12.705589,23.855447 70.627019 0 0 4.69727,-1.35546 12.705589,23.855447 70.627019 0 0 18.29101,-19.9004 12.705589,23.855447 70.627019 0 0 -26.7207,-4.07226 12.705589,23.855447 70.627019 0 0 -9.44531,4.7168 23.86022,12.703047 42.981389 0 0 -6.55273,-7.75391 23.86022,12.703047 42.981389 0 0 -20.28907,-9.41797 z"
       id="path7675"
       inkscape:connector-curvature="0" />
    <path
       style="fill:#ffffff;fill-rule:evenodd;stroke:#000000;stroke-width:5;stroke-linecap:butt;stroke-linejoin:round;stroke-miterlimit:4;stroke-dasharray:none;stroke-opacity:1"
       d="m 484.87933,620.42843 c -1.698,4.74857 -1.64643,9.93317 -1.26209,14.96153 0.4523,5.91741 1.33759,11.80168 2.64646,17.59022 6.39521,-1.47032 12.87191,-2.58612 19.39045,-3.34056 5.20798,-0.60276 10.54121,-0.99902 15.37353,-3.0325 5.73842,-2.41477 10.28553,-6.92802 15.39513,-10.48506 4.96877,-3.459 10.66203,-6.16297 14.39735,-10.9275 1.8156,-2.31586 3.0953,-5.07286 3.53961,-7.98185 0.48739,-3.19099 -0.0347,-6.47596 -1.08754,-9.52742 -1.05286,-3.05146 -2.62217,-5.89701 -4.27449,-8.67005 -2.36179,-3.96372 -4.94469,-7.85792 -8.32445,-10.99899 -3.37977,-3.14108 -7.64813,-5.50148 -12.24628,-5.88382 -3.04784,-0.25343 -6.13366,0.37029 -8.9515,1.55913 -2.81784,1.18884 -5.37913,2.92972 -7.6976,4.92428 -4.63693,3.98913 -8.30599,8.96096 -12.47964,13.43253 -2.67883,2.87004 -5.57091,5.53913 -8.17057,8.48108 -2.59966,2.94194 -4.92648,6.20224 -6.24837,9.89898 z"
       id="path7872"
       inkscape:path-effect="#path-effect7874"
       inkscape:original-d="m 484.87933,620.42843 c -1.83165,4.65765 -1.42516,9.9593 -1.26209,14.96153 0.1932,5.92625 2.64646,17.59022 2.64646,17.59022 0,0 12.94088,-2.14908 19.39045,-3.34056 5.13633,-0.94888 10.55513,-1.01613 15.37353,-3.0325 5.72752,-2.39681 10.35477,-6.8595 15.39513,-10.48506 4.891,-3.51815 10.65842,-6.20312 14.39735,-10.9275 1.80619,-2.28225 3.34929,-5.07757 3.53961,-7.98185 0.41341,-6.31014 -1.86984,-12.92553 -5.36203,-18.19747 -4.89872,-7.39526 -11.70868,-16.4947 -20.57073,-16.88281 -11.75086,-0.51461 -20.54378,11.87562 -29.12874,19.91594 -5.68358,5.323 -11.56906,11.13332 -14.41894,18.38006 z"
       inkscape:connector-curvature="0"
       sodipodi:nodetypes="aacaaaaaaaaa" />
    <path
       style="fill:#ffffff;fill-rule:evenodd;stroke:#000000;stroke-width:5;stroke-linecap:butt;stroke-linejoin:round;stroke-miterlimit:4;stroke-dasharray:none;stroke-opacity:1"
       d="m 459.08095,580.33351 c 0.15198,8.24766 1.10664,16.48034 2.84612,24.54392 1.14375,5.30202 2.64133,10.57009 5.11042,15.3995 0.98111,1.91901 2.1211,3.77312 3.57499,5.36415 1.4539,1.59103 3.23768,2.91546 5.27016,3.63254 3.33789,1.17763 7.07321,0.6295 10.37773,-0.63875 3.30453,-1.26824 6.2975,-3.21258 9.39881,-4.91852 4.74325,-2.60912 9.76686,-4.67259 14.84419,-6.55052 6.76753,-2.50308 13.67398,-4.69613 20.14699,-7.8844 6.47301,-3.18827 12.5779,-7.47209 16.73793,-13.36777 4.1258,-5.84716 6.1311,-13.04698 6.27223,-20.20181 0.12958,-6.56917 -1.27147,-13.16375 -4.0606,-19.11283 -5.82845,-1.1024 -11.74697,-1.72826 -17.67708,-1.8693 -26.29961,-0.62549 -52.7177,8.66042 -72.84189,25.60379 z"
       id="path7868"
       inkscape:path-effect="#path-effect7870"
       inkscape:original-d="m 459.08095,580.33351 c 0,0 1.06534,16.50262 2.84612,24.54392 1.16936,5.28052 2.28966,10.78489 5.11042,15.3995 2.19342,3.58822 4.78094,7.91564 8.84515,8.99669 6.61738,1.76021 13.33193,-3.24299 19.77654,-5.55727 5.09011,-1.82787 10.02011,-4.10521 14.84419,-6.55052 12.65666,-6.41562 28.02262,-10.1702 36.88492,-21.25217 4.40379,-5.50674 5.94904,-13.15818 6.27223,-20.20181 0.29855,-6.5063 -4.0606,-19.11283 -4.0606,-19.11283 0,0 -15.95928,-1.70448 -17.67708,-1.8693 -1.7178,-0.16482 -72.84189,25.60379 -72.84189,25.60379 z"
       inkscape:connector-curvature="0"
       sodipodi:nodetypes="caaaaaaacsc" />
    <path
       style="fill:#ffffff;fill-rule:evenodd;stroke:#000000;stroke-width:5;stroke-linecap:butt;stroke-linejoin:round;stroke-miterlimit:4;stroke-dasharray:none;stroke-opacity:1"
       d="m 514.40616,545.76791 -70.84262,-2.46261 c -1.548,0.64702 -3.06435,1.36975 -4.54182,2.16474 -3.05041,1.64134 -6.03853,3.70028 -7.75174,6.71091 -1.34334,2.36066 -1.79431,5.2427 -1.10168,7.86901 0.42681,1.61838 1.26361,3.10595 2.26959,4.44361 1.00598,1.33765 2.18193,2.53689 3.36121,3.72458 4.42753,4.45912 9.01488,8.89299 12.14646,14.34092 1.23516,2.14878 2.22801,4.43057 3.48114,6.56892 1.25314,2.13834 2.80816,4.16715 4.8956,5.50336 1.70994,1.09456 3.71353,1.67789 5.73299,1.88708 2.01945,0.2092 4.06129,0.0566 6.07056,-0.23457 9.96225,-1.44381 19.08683,-6.21101 28.63875,-9.38779 6.72892,-2.2379 13.70783,-3.69544 20.35754,-6.15876 6.64971,-2.46332 13.11029,-6.08022 17.4167,-11.71417 1.71909,-2.24904 3.06917,-4.80144 3.78271,-7.54084 0.71355,-2.7394 0.77491,-5.66985 -2.7e-4,-8.39245 -1.26268,-4.4348 -4.79508,-8.12557 -9.12289,-9.71674 -2.45005,-0.90079 -5.13321,-1.15892 -7.71005,-0.74174 -2.57685,0.41718 -5.0415,1.50872 -7.08218,3.13654 z"
       id="path7878"
       inkscape:path-effect="#path-effect7880"
       inkscape:original-d="m 514.40616,545.76791 -70.84262,-2.46261 c 0,0 -3.13816,1.24683 -4.54182,2.16474 -2.86036,1.87059 -6.11868,3.7086 -7.75174,6.71091 -1.26551,2.32666 -1.71124,5.29152 -1.10168,7.86901 0.76111,3.2182 3.62123,5.54185 5.6308,8.16819 3.80688,4.97515 8.33197,9.37161 12.14646,14.34092 2.98241,3.88528 4.2053,9.50534 8.37674,12.07228 3.38358,2.08214 7.84631,2.00498 11.80355,1.65251 10.00642,-0.89123 19.30692,-5.66756 28.63875,-9.38779 12.93936,-5.15841 29.00485,-7.05004 37.77424,-17.87293 3.4365,-4.24122 5.1879,-10.65863 3.78244,-15.93329 -1.14388,-4.29297 -4.91732,-8.28464 -9.12289,-9.71674 -4.72829,-1.61009 -14.79223,2.3948 -14.79223,2.3948 z"
       inkscape:connector-curvature="0"
       sodipodi:nodetypes="ccaaaaaaaaaaac" />
    <rect
       style="opacity:1;fill:#ffffff;fill-opacity:1;fill-rule:nonzero;stroke:#000000;stroke-width:5.00000911;stroke-linecap:round;stroke-linejoin:round;stroke-miterlimit:4;stroke-dasharray:none;stroke-dashoffset:0;stroke-opacity:1"
       id="rect7876"
       width="103.8878"
       height="21.326275"
       x="127.06115"
       y="796.11456"
       ry="10.997539"
       rx="10.997538"
       transform="matrix(0.89050296,-0.45497746,0.45256867,0.89172956,0,0)" />
    <path
       style="fill:#ffffff;fill-rule:evenodd;stroke:#000000;stroke-width:5;stroke-linecap:butt;stroke-linejoin:round;stroke-miterlimit:4;stroke-dasharray:none;stroke-opacity:1"
       d="m 519.79701,537.95855 -86.45962,-8.26706 c -1.72853,-0.17367 -3.35735,-1.16338 -4.30783,-2.61753 -0.73853,-1.12989 -1.06525,-2.4888 -1.14733,-3.83614 -0.15262,-2.50533 0.5056,-5.01932 1.63501,-7.26083 1.12941,-2.24152 2.71633,-4.22673 4.4687,-6.02372 2.3313,-2.39065 4.98086,-4.48042 7.89893,-6.10372 2.99589,-1.66659 6.28832,-2.83978 9.69413,-3.23138 2.07103,-0.23813 4.1845,-0.18535 6.21914,0.26864 2.03464,0.45399 3.98964,1.31625 5.62926,2.6037 2.07088,1.62609 3.60399,3.92576 4.3085,6.46276 2.24574,-3.96559 4.89696,-7.7014 7.89893,-11.13031 10.06922,-11.50125 23.80657,-19.24655 38.05846,-24.7739 15.51472,-6.01711 32.37625,-9.66981 48.82973,-7.18085 12.98943,1.96495 25.36074,7.79537 35.18612,16.51594 4.33948,3.85153 8.20946,8.27914 11.09461,13.31315 2.88515,5.034 4.76561,10.69276 5.06229,16.48735 0.34419,6.7225 -1.44038,13.41839 -4.19496,19.56028 -2.75458,6.14189 -6.46082,11.80173 -10.16673,17.42105 -7.30162,11.07153 -14.8325,22.50197 -17.23402,35.54517 -1.01284,5.50095 -1.04257,11.33973 1.07713,16.51594 1.15116,2.81108 2.89295,5.3322 4.50611,7.90611 1.61317,2.57391 3.13044,5.27737 3.75186,8.25078 0.62183,2.97537 0.30421,6.11348 -0.71809,8.97606 -1.4359,4.02071 -4.36203,7.58876 -8.25796,9.33509 -2.88847,1.29474 -6.17173,1.54867 -9.30582,1.10467 -3.13409,-0.444 -6.13896,-1.55692 -9.00533,-2.89988 -6.03295,-2.82658 -11.54673,-6.69264 -16.51594,-11.13031 -5.28266,-4.71759 -10.0675,-10.24796 -12.56647,-16.87497 -3.21937,-8.53743 -2.35108,-18.11201 0,-26.92816 1.33713,-5.01401 3.13896,-9.92295 3.93543,-15.0507 0.79648,-5.12774 0.49688,-10.63963 -2.14022,-15.10884 -1.86789,-3.1656 -4.78009,-5.59492 -7.89893,-7.53989 -2.91562,-1.81823 -6.05986,-3.26942 -9.33509,-4.3085 z"
       id="path7897"
       inkscape:path-effect="#path-effect7899"
       inkscape:original-d="m 519.79701,537.95855 -86.45962,-8.26706 c 0,0 -3.2807,-1.28779 -4.30783,-2.61753 -0.81589,-1.05626 -1.24073,-2.50473 -1.14733,-3.83614 0.34103,-4.86127 3.07064,-9.47027 6.10371,-13.28455 2.071,-2.60442 4.96271,-4.53826 7.89893,-6.10372 3.00566,-1.60249 6.29096,-3.08851 9.69413,-3.23138 4.06029,-0.17046 8.51819,0.54323 11.8484,2.87234 2.12167,1.48387 4.3085,6.46276 4.3085,6.46276 0,0 4.61806,-7.9786 7.89893,-11.13031 10.91628,-10.48653 23.89982,-19.41988 38.05846,-24.7739 15.38818,-5.81897 32.55414,-9.58116 48.82973,-7.18085 12.81786,1.89037 25.76291,7.62358 35.18612,16.51594 8.21811,7.75514 15.44331,18.52352 16.1569,29.8005 0.83512,13.19764 -9.07909,24.85824 -14.36169,36.98133 -5.26005,12.07135 -14.7063,22.62247 -17.23402,35.54517 -1.05907,5.4144 -0.38811,11.19706 1.07713,16.51594 1.60635,5.8311 7.0781,10.22477 8.25797,16.15689 0.58553,2.94391 0.45642,6.21381 -0.71809,8.97606 -1.62564,3.82323 -4.39128,7.8157 -8.25796,9.33509 -5.70811,2.24297 -12.54031,0.28105 -18.31115,-1.79521 -6.24677,-2.24749 -11.71241,-6.54779 -16.51594,-11.13031 -5.07454,-4.84105 -10.36002,-10.21777 -12.56647,-16.87497 -2.82394,-8.52026 -0.26679,-17.95607 0,-26.92816 0.29933,-10.06652 5.48016,-20.78694 1.79521,-30.15954 -1.33185,-3.38753 -4.88917,-5.49281 -7.89893,-7.53989 -2.83379,-1.92739 -9.33509,-4.3085 -9.33509,-4.3085 z"
       inkscape:connector-curvature="0"
       sodipodi:nodetypes="ccaaaaaacaaaaaaaaaaaaaaaaac" />
    <rect
       style="opacity:1;fill:#ffffff;fill-opacity:1;fill-rule:nonzero;stroke:#000000;stroke-width:5.00000385;stroke-linecap:round;stroke-linejoin:round;stroke-miterlimit:4;stroke-dasharray:none;stroke-dashoffset:0;stroke-opacity:1"
       id="rect7901"
       width="24.312349"
       height="51.636246"
       x="740.8194"
       y="90.566666"
       rx="10.997483"
       ry="10.997483"
       transform="matrix(0.8038045,0.59489354,-0.59630201,0.80276018,0,0)" />
    <circle
       style="opacity:1;fill:#ffffff;fill-opacity:1;fill-rule:nonzero;stroke:#000000;stroke-width:5;stroke-linecap:round;stroke-linejoin:round;stroke-miterlimit:4;stroke-dasharray:none;stroke-dashoffset:0;stroke-opacity:1"
       id="path7903"
       cx="541.21057"
       cy="534.49713"
       r="5.6156898" />
  </g>
</svg>
