<svg xmlns="http://www.w3.org/2000/svg" width="105" height="120" style="shape-rendering:geometricPrecision;text-rendering:geometricPrecision;image-rendering:optimizeQuality;fill-rule:evenodd;clip-rule:evenodd"><path style="opacity:.871" fill="#006cc7" d="M-.5-.5h105v120H-.5V-.5zm52 56c-.283.79-.783 1.456-1.5 2a8.434 8.434 0 0 1-.5-4 8.434 8.434 0 0 1 4 .5c-.544.717-1.21 1.217-2 1.5zm-35 39c-1-1.333-2-1.333-3 0-2.424-2.508-4.09-5.508-5-9-2.57-4.213-4.07-8.88-4.5-14-.5-5.99-.666-11.99-.5-18h24c.166 10.006 0 20.006-.5 30a160.88 160.88 0 0 0-10.5 11zm33-91c16.337-.167 32.67 0 49 .5l-24 27c-8.327.5-16.66.666-25 .5v-28zm-46 0h24v28h-24v-28zm43 81c.767.672 1.434 1.505 2 2.5-1.634.493-3.3.66-5 .5a10.174 10.174 0 0 0 3-3zm-6 0c1.098.897 1.098 1.73 0 2.5.948.483 1.948.65 3 .5l-3 2c-1.333-1.667-1.333-3.333 0-5zm19-2c1.915-.284 3.581.049 5 1-2.522-.372-4.522.461-6 2.5l3 1c-5.263 2.649-6.263 1.482-3-3.5.667 0 1-.333 1-1zm-15 0 2 2h-6c.787-1.604 2.12-2.27 4-2zm5-3c1.49 1.78 3.49 2.447 6 2a163.344 163.344 0 0 1-2.5 10 236.648 236.648 0 0 0-4.5-11c.124-.607.457-.94 1-1zm4-2c1.333 0 2 .667 2 2-1-.333-1.667-1-2-2zm-13 12c1.256-.039 2.256.461 3 1.5-1.498.585-2.498.085-3-1.5zm24 0c-.502 1.585-1.502 2.085-3 1.5.744-1.039 1.744-1.539 3-1.5zm-11 12c-1.333.667-1.333 1.333 0 2 .172.992-.162 1.658-1 2-1.241-3.008-1.074-6.008.5-9 .493 1.634.66 3.3.5 5zm6-4c.904.709 1.237 1.709 1 3h-4v-1c1.527.073 2.527-.594 3-2zm-10 1c-.12 1.086-.787 1.753-2 2l-2-1c1.191.095 2.525-.238 4-1z"/><path style="opacity:.898" fill="#1c1502" d="M.5.5h103c.167 24.002 0 48.002-.5 72-5.716 27.712-22.716 42.712-51 45-29.156-2.489-46.156-18.156-51-47C.5 47.169.333 23.836.5.5zm51 55c.79-.283 1.456-.783 2-1.5a8.434 8.434 0 0 0-4-.5 8.434 8.434 0 0 0 .5 4c.717-.544 1.217-1.21 1.5-2zm-35 39c-1-1.333-2-1.333-3 0-2.424-2.508-4.09-5.508-5-9-2.57-4.213-4.07-8.88-4.5-14-.5-5.99-.666-11.99-.5-18h24c.166 10.006 0 20.006-.5 30a160.88 160.88 0 0 0-10.5 11zm33-91v28c8.34.166 16.673 0 25-.5l24-27c-16.33-.5-32.663-.667-49-.5zm-46 0v28h24v-28h-24zm43 81c.767.672 1.434 1.505 2 2.5-1.634.493-3.3.66-5 .5a10.174 10.174 0 0 0 3-3zm-6 0c1.098.897 1.098 1.73 0 2.5.948.483 1.948.65 3 .5l-3 2c-1.333-1.667-1.333-3.333 0-5zm19-2c1.915-.284 3.581.049 5 1-2.522-.372-4.522.461-6 2.5l3 1c-5.263 2.649-6.263 1.482-3-3.5.667 0 1-.333 1-1zm-15 0 2 2h-6c.787-1.604 2.12-2.27 4-2zm5-3c1.49 1.78 3.49 2.447 6 2a163.344 163.344 0 0 1-2.5 10 236.648 236.648 0 0 0-4.5-11c.124-.607.457-.94 1-1zm4-2c1.333 0 2 .667 2 2-1-.333-1.667-1-2-2zm-13 12c.502 1.585 1.502 2.085 3 1.5-.744-1.039-1.744-1.539-3-1.5zm24 0c-1.256-.039-2.256.461-3 1.5 1.498.585 2.498.085 3-1.5zm-11 12c-1.333.667-1.333 1.333 0 2 .172.992-.162 1.658-1 2-1.241-3.008-1.074-6.008.5-9 .493 1.634.66 3.3.5 5zm6-4c.904.709 1.237 1.709 1 3h-4v-1c1.527.073 2.527-.594 3-2zm-10 1c-1.475.762-2.809 1.095-4 1l2 1c1.213-.247 1.88-.914 2-2z"/><path style="opacity:.941" fill="#281a08" d="M57.5 51.5a286.537 286.537 0 0 1-27 30v-1a151.267 151.267 0 0 1 15.5-17c1.354-3.863 1.854-7.863 1.5-12h10zm-6 4c.79-.283 1.456-.783 2-1.5a8.434 8.434 0 0 0-4-.5 8.434 8.434 0 0 0 .5 4c.717-.544 1.217-1.21 1.5-2z"/><path style="opacity:.98" fill="#003767" d="M99.5 5.5c.06-.543.393-.876 1-1 1.329 22.83 1.329 45.496 0 68 .331-22.506-.003-44.84-1-67z"/><path style="opacity:1" fill="#932500" d="M47.5 3.5h-18v30h-26v18h26c-.327 9.848.006 19.514 1 29v1c-1.973-9.275-2.64-18.942-2-29h-26v-20h26v-30c6.522-.324 12.855.01 19 1z"/><path style="opacity:1" fill="#ec3300" d="M47.5 3.5v30c8.184-.326 16.184.008 24 1a280.591 280.591 0 0 0-14 17h-10c.354 4.137-.146 8.137-1.5 12a151.267 151.267 0 0 0-15.5 17c-.994-9.486-1.327-19.152-1-29h-26v-18h26v-30h18z"/><path style="opacity:.996" fill="#016ac1" d="M99.5 5.5c.997 22.16 1.331 44.494 1 67-4.529 24.028-18.862 38.195-43 42.5-15.792 1.519-29.292-3.315-40.5-14.5-.418-2.288.25-4.288 2-6 4.413-3.908 8.247-8.241 11.5-13a286.537 286.537 0 0 0 27-30 1373.447 1373.447 0 0 0 42-46zm-53 79c.767.672 1.434 1.505 2 2.5-1.634.493-3.3.66-5 .5a10.174 10.174 0 0 0 3-3zm-6 0c1.098.897 1.098 1.73 0 2.5.948.483 1.948.65 3 .5l-3 2c-1.333-1.667-1.333-3.333 0-5zm19-2c1.915-.284 3.581.049 5 1-2.522-.372-4.522.461-6 2.5l3 1c-5.263 2.649-6.263 1.482-3-3.5.667 0 1-.333 1-1zm-15 0 2 2h-6c.787-1.604 2.12-2.27 4-2zm5-3c1.49 1.78 3.49 2.447 6 2a163.344 163.344 0 0 1-2.5 10 236.648 236.648 0 0 0-4.5-11c.124-.607.457-.94 1-1zm4-2c1.333 0 2 .667 2 2-1-.333-1.667-1-2-2zm-13 12c.502 1.585 1.502 2.085 3 1.5-.744-1.039-1.744-1.539-3-1.5zm24 0c-1.256-.039-2.256.461-3 1.5 1.498.585 2.498.085 3-1.5zm-11 12c-1.333.667-1.333 1.333 0 2 .172.992-.162 1.658-1 2-1.241-3.008-1.074-6.008.5-9 .493 1.634.66 3.3.5 5zm6-4c.904.709 1.237 1.709 1 3h-4v-1c1.527.073 2.527-.594 3-2zm-10 1c-1.475.762-2.809 1.095-4 1l2 1c1.213-.247 1.88-.914 2-2z"/><path style="opacity:.984" fill="#6a5006" d="M90.5 51.5c.709-.904 1.709-1.237 3-1 .306 2.885-.027 5.552-1 8 .51-2.888-.156-5.221-2-7z"/><path style="opacity:.984" fill="#725800" d="M78.5 50.5v3c1.791.134 3.458-.2 5-1l2 2c-1.701.466-3.201.466-4.5 0-1.188 1.063-1.688 2.397-1.5 4 1.599-.268 2.932.066 4 1-.934 1.068-1.268 2.401-1 4-.6-1.4-1.6-2.4-3-3 0-.667-.333-1-1-1v-5h-3a22.853 22.853 0 0 0 3-4z"/><path style="opacity:1" fill="#e9af00" d="M90.5 51.5c1.844 1.779 2.51 4.112 2 7-.876.13-1.543-.203-2-1 .42-1.826.42-3.826 0-6z"/><path style="opacity:1" fill="#dba400" d="M70.5 50.5c.343 1.983-.323 3.317-2 4-.734-1.208-1.067-2.541-1-4h3z"/><path style="opacity:1" fill="#ebae00" d="M83.5 52.5c-1.542.8-3.209 1.134-5 1v-3c1.419-.951 3.085-1.285 5-1v3z"/><path style="opacity:.996" fill="#622000" d="M47.5 3.5c.994 9.486 1.327 19.152 1 29 8.028-.331 16.028.002 24 1-.124.607-.457.94-1 1-7.816-.992-15.816-1.326-24-1v-30z"/><path style="opacity:.984" fill="#745303" d="m70.5 50.5 2 3c-1.766 2.967-1.1 4.967 2 6-2.632 3.246-1.632 4.912 3 5-1.792.81-3.792 1.31-6 1.5a54.56 54.56 0 0 0 18-.5c1.235-1.816 1.235-3.483 0-5-1.068-.934-2.401-1.268-4-1v-5h2l3-3c.42 2.174.42 4.174 0 6 .457.797 1.124 1.13 2 1a328.774 328.774 0 0 1-2 15 20.677 20.677 0 0 1-1-5h-6a20.677 20.677 0 0 0 1 5h-14c.183-6.324-.484-12.658-2-19 1.677-.683 2.343-2.017 2-4z"/><path style="opacity:1" fill="#c59400" d="M79.5 60.5c1.4.6 2.4 1.6 3 3h1c.291 1.15 1.124 1.816 2.5 2 1.376-.184 2.209-.85 2.5-2a5.728 5.728 0 0 0 1-3c1.235 1.517 1.235 3.184 0 5a54.56 54.56 0 0 1-18 .5c2.208-.19 4.208-.69 6-1.5l1-2c.838-.342 1.172-1.008 1-2z"/><path style="opacity:.745" fill="#231d0a" d="M83.5 63.5c1.667 1.333 3.333 1.333 5 0-.291 1.15-1.124 1.816-2.5 2-1.376-.184-2.209-.85-2.5-2z"/><path style="opacity:1" fill="#0f5ba5" d="M74.5 59.5h2c1.051.722 1.718 1.722 2 3l-1 2c-4.632-.088-5.632-1.754-3-5z"/><path style="opacity:.996" fill="#035da9" d="M83.5 59.5h2c1.599-.268 2.932.066 4 1a5.728 5.728 0 0 1-1 3c-1.667 1.333-3.333 1.333-5 0h-1c-.268-1.599.066-2.932 1-4z"/><path style="opacity:.835" fill="#0f1b23" d="M76.5 59.5h2c.667 0 1 .333 1 1 .172.992-.162 1.658-1 2-.282-1.278-.949-2.278-2-3z"/><path style="opacity:.988" fill="#c19200" d="M85.5 54.5v5h-2c-1.068-.934-2.401-1.268-4-1-.188-1.603.312-2.937 1.5-4 1.299.466 2.799.466 4.5 0z"/><path style="opacity:1" fill="#2b2205" d="M74.5 54.5h1c-.134 1.791.2 3.458 1 5h-2v-5z"/><path style="opacity:1" fill="#daa400" d="m72.5 53.5 2 1v5c-3.1-1.033-3.766-3.033-2-6z"/><path style="opacity:1" fill="#eeb200" d="M87.5 54.5c1.677.683 2.343 2.017 2 4h-3c-.067-1.459.266-2.792 1-4z"/><path style="opacity:1" fill="#eaaf00" d="M75.5 54.5h3v5h-2c-.8-1.542-1.134-3.209-1-5z"/><path style="opacity:.992" fill="#c685ff" d="M72.5 68.5a21.12 21.12 0 0 1 9 1 6.807 6.807 0 0 1-3 1.5l4 1a30.499 30.499 0 0 1-11 0c.837-1.011 1.17-2.178 1-3.5z"/><path style="opacity:.992" fill="#c29000" d="M90.5 73.5h-6a20.677 20.677 0 0 1-1-5h6a20.677 20.677 0 0 0 1 5z"/><path style="opacity:.563" fill="#1a1008" d="M58.5 83.5c-3.263 4.982-2.263 6.149 3 3.5l-3-1c1.478-2.039 3.478-2.872 6-2.5-1.419-.951-3.085-1.284-5-1 2.678-2.723 5.178-2.39 7.5 1 1.666 6.663-.834 9.496-7.5 8.5 1.493-1.156 1.326-1.99-.5-2.5-.902.243-1.735.577-2.5 1 1.123 2.018 1.123 4.018 0 6 .825.886 1.825 1.219 3 1-.473 1.406-1.473 2.073-3 2v1c-.992-.172-1.658.162-2 1h-1c.16-1.7-.007-3.366-.5-5-1.574 2.992-1.741 5.992-.5 9-1.962-2.138-4.462-3.472-7.5-4-1.038-4.469.462-5.802 4.5-4v1c.543-.06.876-.393 1-1-3.579-1.66-3.912-3.827-1-6.5-.556-.383-.89-.883-1-1.5-1.208-.734-2.541-1.067-4-1-.17 1.322.163 2.489 1 3.5-4.658 1.187-7.325-.647-8-5.5 1.06-4.126 3.392-5.46 7-4h3c.297-3.826 2.13-6.826 5.5-9 3.553 2.52 5.386 5.852 5.5 10zm-12 1c.767.672 1.434 1.505 2 2.5-1.634.493-3.3.66-5 .5a10.174 10.174 0 0 0 3-3zm-6 0c1.098.897 1.098 1.73 0 2.5.948.483 1.948.65 3 .5l-3 2c-1.333-1.667-1.333-3.333 0-5zm19-2c1.915-.284 3.581.049 5 1-2.522-.372-4.522.461-6 2.5l3 1c-5.263 2.649-6.263 1.482-3-3.5.667 0 1-.333 1-1zm-15 0 2 2h-6c.787-1.604 2.12-2.27 4-2zm5-3c1.49 1.78 3.49 2.447 6 2a163.344 163.344 0 0 1-2.5 10 236.648 236.648 0 0 0-4.5-11c.124-.607.457-.94 1-1zm4-2c1.333 0 2 .667 2 2-1-.333-1.667-1-2-2zm-13 12c.502 1.585 1.502 2.085 3 1.5-.744-1.039-1.744-1.539-3-1.5zm24 0c-1.256-.039-2.256.461-3 1.5 1.498.585 2.498.085 3-1.5zm-15 9c-1.475.762-2.809 1.095-4 1l2 1c1.213-.247 1.88-.914 2-2z"/><path style="opacity:.031" fill="#1f0000" d="M40.5 84.5h6a10.174 10.174 0 0 1-3 3 4.932 4.932 0 0 1-3-.5c1.098-.77 1.098-1.603 0-2.5zM51.5 77.5h2c.333 1 1 1.667 2 2v2c-2.51.447-4.51-.22-6-2 .667 0 1-.333 1-1 .667 0 1-.333 1-1zM13.5 94.5c1-1.333 2-1.333 3 0-.667 0-1 .333-1 1h-1c0-.667-.333-1-1-1z"/><path style="opacity:.659" fill="#1e150e" d="M54.5 101.5c1.129 2.166.629 4.166-1.5 6a2.427 2.427 0 0 1-.5-2c.838-.342 1.172-1.008 1-2 .838-.342 1.172-1.008 1-2z"/></svg>