<svg xmlns="http://www.w3.org/2000/svg" width="300" height="350" style="shape-rendering:geometricPrecision;text-rendering:geometricPrecision;image-rendering:optimizeQuality;fill-rule:evenodd;clip-rule:evenodd"><path style="opacity:1" fill="#404040" d="M7.5 10.5c94.499-1 189.165-1.333 284-1v196h-1v-195H7.5z"/><path style="opacity:1" fill="#181817" d="M7.5 10.5h283v195a376.234 376.234 0 0 1-6 35c-12.527 42.704-39.194 73.204-80 91.5a119.895 119.895 0 0 1-25 7.5 385.274 385.274 0 0 1-51 2c-51.582-8.088-88.416-35.755-110.5-83a68.547 68.547 0 0 1-4.5-14c-.842-8.146-2.842-15.812-6-23v-211z"/><path style="opacity:1" fill="#c23223" d="M285.5 187.5h-28a45.553 45.553 0 0 0-2-12.5 15.894 15.894 0 0 0 1-6.5c3.321-.598 4.321-2.265 3-5v-1c.356-1.69 1.356-2.69 3-3a25.406 25.406 0 0 1 8.5-6c2.003-3 2.836-6.333 2.5-10 .617.111 1.117.444 1.5 1 1.392-3.72.225-5.72-3.5-6-.473-1.406-1.473-2.073-3-2 .03-.997-.47-1.664-1.5-2-1.465.83-2.965.996-4.5.5 2.262-2.931 5.095-5.097 8.5-6.5a8.43 8.43 0 0 0 .5-4c1.578-.566 2.912-1.566 4-3-.457-.798-1.124-1.131-2-1 1.1-1.105 1.767-2.438 2-4h3a36.875 36.875 0 0 0-1-12 43.836 43.836 0 0 0-2-1 8.43 8.43 0 0 0-.5-4c-1.627-1.032-2.793-2.366-3.5-4 1.692-1.705 3.025-3.705 4-6h3c-.322-2.222.345-4.056 2-5.5-.228-.399-.562-.565-1-.5-.903-2.891-1.236-5.891-1-9 .978-.311 1.645-.978 2-2-2.526-2.427-2.526-4.927 0-7.5-.028-1.07-.361-1.903-1-2.5 1.532-7.14 1.199-14.14-1-21 1.528-.017 2.028-.684 1.5-2a81.307 81.307 0 0 0-6.5-6.5c-.937-.692-1.603-.525-2 .5-1.105-1.1-2.438-1.767-4-2v-4c-2.235-.295-4.235.039-6 1a5.728 5.728 0 0 0-3-1c-2.758-1.318-5.924-1.985-9.5-2-3.576.015-6.742.682-9.5 2h-3c-3.306.32-5.973 1.652-8 4-3.333.667-5.333 2.667-6 6-.845 1.172-1.511 2.505-2 4-.958.453-1.792 1.12-2.5 2-.114 4.687-1.281 9.02-3.5 13a94.025 94.025 0 0 1 3 13c1.783 2.918 4.117 5.418 7 7.5 1.963.844 3.296.344 4-1.5 4.333 1.333 8.667 1.333 13 0v5c-3.312-.351-5.645.982-7 4h-6v4h-2a8.435 8.435 0 0 0-4 .5 83.23 83.23 0 0 1-5 8.5l-4 7c-4.406 1.244-5.739 3.91-4 8-1.237 5.813-1.237 11.646 0 17.5.069 1.986.735 3.486 2 4.5 1.139 2.504 1.806 5.17 2 8a57.664 57.664 0 0 1 5 8c1.024 1.353 2.357 2.02 4 2 4.972 1.975 8.638 5.308 11 10a11.123 11.123 0 0 0-1 2.5c1.207 1.3 1.874 2.8 2 4.5h3l4 4c.294 3.768 1.628 7.102 4 10a2.428 2.428 0 0 0-2 .5c1.473.71 2.14 1.876 2 3.5h-17c-1.395-1.879-3.395-2.879-6-3 0-.667-.333-1-1-1a16.076 16.076 0 0 1-5-2c-4.109-5.116-8.776-9.449-14-13-.485-4.401-2.819-6.067-7-5v-3c-3.461.611-6.128-.556-8-3.5a34.033 34.033 0 0 0-8-1.5c.507-1.359 1.507-2.359 3-3-.825-.886-1.825-1.219-3-1v-5h-4c-.841-1.879-1.175-3.879-1-6 3.053.389 5.72-.277 8-2v-2c-2.671-1.847-3.671-4.514-3-8l8 2c-.131.876.202 1.543 1 2 6.866-3.539 6.533-6.205-1-8h-4v-2a13.116 13.116 0 0 1 1-7 5.576 5.576 0 0 1 3-1c2.058 1.433 4.392 2.1 7 2h2c1.149-.291 1.816-1.124 2-2.5-.184-1.376-.851-2.209-2-2.5-1.568.141-3.235.474-5 1-2.024-3.167-2.357-6.5-1-10 2.803 1.276 5.47 1.276 8 0h3a6.846 6.846 0 0 1 1-4c-1.531-.921-2.865-.588-4 1h-1c-3.327-1.9-4.993-4.9-5-9a18.977 18.977 0 0 0 8 2c.227-2.433-.773-4.1-3-5-.667 0-1-.333-1-1 4.411-3.85 6.411-8.85 6-15v-6h1a68.582 68.582 0 0 0 4-16c1.086-.12 1.753-.787 2-2-.043-.916-.376-1.583-1-2 .671-1.347.671-2.514 0-3.5l-11-1c-.837-1.011-1.17-2.178-1-3.5-3.885-.61-7.218-2.276-10-5a636.897 636.897 0 0 1-20-3c-1.461-2.311-3.294-2.311-5.5 0a18.574 18.574 0 0 0-4.5-6c-1.737 1.397-3.071 3.064-4 5a267.995 267.995 0 0 1-4 17c-3.139.099-5.473 1.432-7 4a10.02 10.02 0 0 1 1 3 272.648 272.648 0 0 1-4 14 7.468 7.468 0 0 0 3 2c0 1.333.667 2 2 2v1h-3v6c-.992-.172-1.658.162-2 1-2.927 1.257-5.261 3.257-7 6-3.36.116-6.693.45-10 1-1.419-.951-3.085-1.284-5-1l2 6-10-1c-.134 1.791.199 3.458 1 5a20.676 20.676 0 0 0-5 1 44.764 44.764 0 0 1-7-3c-2.713-2.593-4.713-5.593-6-9a41.58 41.58 0 0 0-1-8h3c.14-1.624-.527-2.79-2-3.5 1.017-1.05 1.184-2.216.5-3.5-1.75-1.924-3.583-3.59-5.5-5v-5c3.781.204 6.114-1.463 7-5 1.599.268 2.932-.066 4-1 .342-.838 1.008-1.172 2-1 .996.086 1.829-.248 2.5-1 .81-3.858.643-7.524-.5-11-1.599.268-2.932-.066-4-1-.709-.904-1.709-1.237-3-1-.204 2.185-.87 4.185-2 6-3.198-.536-5.865.131-8 2-4.511.611-8.178-.722-11-4v-2c-1.644-1.98-3.31-3.98-5-6-1.246-2.732-3.412-4.066-6.5-4a60.553 60.553 0 0 1-7.5 2v8a19.242 19.242 0 0 0 6-1c-.126 1.7-.793 3.2-2 4.5.495 2.01.495 4.176 0 6.5 1.291.237 2.291-.096 3-1 1.288 1.535 1.288 3.202 0 5-1.105 2.111-2.771 3.445-5 4a609.785 609.785 0 0 0-6 3c-1.527-.073-2.527.594-3 2-3.725.28-4.892 2.28-3.5 6 .759 1.563 1.926 2.563 3.5 3-.082 1.752.75 2.752 2.5 3 1.867-.877 3.034-2.377 3.5-4.5 2.551-.002 4.551-.836 6-2.5a41.35 41.35 0 0 1 10-2c5.281 2.51 5.281 5.176 0 8-3.446 1.112-5.446 3.445-6 7a81.906 81.906 0 0 0-8-4l-1 4.5c.069 1.986.735 3.486 2 4.5 1.666 4.032 4 4.699 7 2h6a2240.73 2240.73 0 0 0 2 11c-.32 3.348-.653 6.348-1 9-1.025-1.701-2.525-3.035-4.5-4-1.28.113-2.113.78-2.5 2 1.91.977 3.91 1.643 6 2-1.36 2.027-3.027 3.694-5 5-.14 1.624.527 2.79 2 3.5-1.607 1.049-2.273 2.549-2 4.5h4a5.577 5.577 0 0 0 1 3c-.825.886-1.825 1.219-3 1v3c3.176-.392 6.176-.392 9 0l2 1c1.28 1.468 2.946 2.135 5 2v1c-.973 1.291-1.973 1.291-3 0a22.522 22.522 0 0 1-3 4 9.86 9.86 0 0 0 6 1c1.379 2.547 3.046 2.547 5 0l1 2a88.61 88.61 0 0 0-2 4c-4.499-.333-8.832-.333-13 0-2.516-3.067-5.849-4.401-10-4-2.654-1.321-5.32-1.321-8 0-1.544-.29-2.877-.956-4-2-1.605 1.087-2.271.421-2-2 .29-1.544.956-2.877 2-4a44.043 44.043 0 0 1-1-2c.408-4.594-1.592-7.594-6-9-2.265-1.147-4.598-1.314-7-.5-1.291 1.292-1.291 2.458 0 3.5 1.78 1.49 2.447 3.49 2 6-.667 0-1 .333-1 1-1.604 2.903-2.604 6.237-3 10-2.627.558-4.96 1.558-7 3-1.7.027-3.033.694-4 2 .03-.997-.47-1.664-1.5-2a22.566 22.566 0 0 1-7 4 32.438 32.438 0 0 0-.5 8 57.398 57.398 0 0 0 9-2c4.637.345 9.304.678 14 1 .48 4.596 1.48 8.93 3 13-1.086.12-1.753.787-2 2 .247 1.213.914 1.88 2 2-.135 2.054.532 3.721 2 5 1.738 3.673 4.238 4.006 7.5 1-1.51-2.231-2.343-4.897-2.5-8 3.41.116 4.744-1.55 4-5 .543-.06.876-.393 1-1-2.636-1.564-2.469-2.897.5-4 .483-.948.65-1.948.5-3h3c-.306 2.885.027 5.552 1 8 1.135 1.713 2.802 2.38 5 2v1h-5c-.638 3.263-.638 6.429 0 9.5 2 .667 4 .667 6 0 1.926-.422 2.926-1.589 3-3.5.968-2.107 1.302-4.441 1-7 1.791.134 3.458-.199 5-1 2.589-.039 4.589.961 6 3a29.07 29.07 0 0 0 2 8c.607-.124.94-.457 1-1h3v3c-2.227.901-3.227 2.567-3 5a8.43 8.43 0 0 0 4-.5c1.93-.902 3.597-2.069 5-3.5v-1h1l1 2v3c2.357-.163 4.69.003 7 .5-.88 1.356-1.213 2.856-1 4.5 3.308-.565 5.308-2.565 6-6 .699-2.056 1.699-4.056 3-6a31.147 31.147 0 0 1-2-2c-.131-.876.202-1.543 1-2 1.713.379 2.713 1.379 3 3 .086.996-.248 1.829-1 2.5 1.237.232 2.237.732 3 1.5v3c3 .333 4.333-1 4-4 1-.333 1.667-1 2-2 1.63 1.526 2.463 3.526 2.5 6 1.356.88 2.856 1.214 4.5 1v-4l6-1v5c3.013-.393 5.68.274 8 2 .978.311 1.645.978 2 2a2120.485 2120.485 0 0 1-53 3h-23a716.533 716.533 0 0 1-53-1v-174h273v173z"/><path style="opacity:1" fill="#460c00" d="M258.5 27.5h-19c2.758-1.318 5.924-1.985 9.5-2 3.576.015 6.742.682 9.5 2z"/><path style="opacity:1" fill="#4f0f02" d="m267.5 31.5-6-2v-1c1.765-.961 3.765-1.295 6-1v4z"/><path style="opacity:1" fill="#581705" d="M166.5 29.5c-1.014 1.265-2.514 1.931-4.5 2a217.803 217.803 0 0 0-9.5-3c.929-1.936 2.263-3.603 4-5a18.574 18.574 0 0 1 4.5 6c2.206-2.311 4.039-2.311 5.5 0z"/><path style="opacity:1" fill="#530b00" d="M236.5 27.5a20.236 20.236 0 0 1-4 4h-4c2.027-2.348 4.694-3.68 8-4z"/><path style="opacity:1" fill="#bb8403" d="M236.5 27.5h22a5.728 5.728 0 0 1 3 1v1a72.595 72.595 0 0 0-20-.5c-5.111 1.672-5.111 2.838 0 3.5v1c-2.47.154-4.47 1.154-6 3a5.728 5.728 0 0 1-3 1c1.964-1.627 3.297-3.627 4-6h-4a20.236 20.236 0 0 0 4-4z"/><path style="opacity:1" fill="#894f01" d="M254.5 32.5h-9l-4 1v-1c4.333-1.333 8.667-1.333 13 0z"/><path style="opacity:1" fill="#26018a" d="M68.5 33.5c.65 1.935.983 3.935 1 6h-6a5.728 5.728 0 0 1-3-1c-1.935.65-3.935.983-6 1v-8a60.553 60.553 0 0 0 7.5-2c3.088-.066 5.254 1.268 6.5 4z"/><path style="opacity:1" fill="#c07d11" d="M152.5 28.5c3.154.916 6.321 1.916 9.5 3 1.986-.069 3.486-.735 4.5-2a636.897 636.897 0 0 0 20 3 59.525 59.525 0 0 1-14-1c-2.452 1.893-5.119 3.226-8 4v-3c-3.018.204-6.018.537-9 1 .262-1.478-.071-2.811-1-4a3.646 3.646 0 0 0-1.5 1 65.756 65.756 0 0 1-1.5 10c1.545.952 3.212 1.285 5 1-.067 1.459.266 2.792 1 4a15.407 15.407 0 0 1-4.5-2c-1.3 1.207-2.8 1.874-4.5 2a267.995 267.995 0 0 0 4-17z"/><path style="opacity:1" fill="#5e1601" d="M228.5 31.5c-1.096 2.886-3.096 4.886-6 6 .667-3.333 2.667-5.333 6-6z"/><path style="opacity:1" fill="#460c02" d="M248.5 32.5h6c3.115-.106 5.781.894 8 3 .131.876-.202 1.543-1 2a204.117 204.117 0 0 1-13-5z"/><path style="opacity:1" fill="#2a0702" d="M245.5 32.5a30.968 30.968 0 0 0 2 2c-2.475.464-4.475 1.464-6 3v4h-4c.221-1.235.888-2.235 2-3a70.915 70.915 0 0 1-4-2c1.53-1.846 3.53-2.846 6-3l4-1z"/><path style="opacity:1" fill="#5f1c05" d="m278.5 41.5-3-2-4-6c.397-1.025 1.063-1.192 2-.5a81.307 81.307 0 0 1 6.5 6.5c.528 1.316.028 1.983-1.5 2z"/><path style="opacity:1" fill="#90210f" d="M245.5 32.5h3c4.17 1.774 8.504 3.44 13 5 .798-.457 1.131-1.124 1-2 2.64.454 4.973 1.62 7 3.5a9.173 9.173 0 0 1 2 4.5h-4c-.969 4.058-2.802 7.725-5.5 11a12.93 12.93 0 0 0-.5 5h-3v-4c.617-.11 1.117-.444 1.5-1 .498-2.982.665-5.982.5-9 1.911.074 3.078 1.074 3.5 3 1.301-1.902 1.968-3.902 2-6-2.867-.435-5.367-1.601-7.5-3.5-1.566-.765-2.899-.598-4 .5-4.096-1.712-8.43-2.38-13-2 1.525-1.536 3.525-2.536 6-3a30.968 30.968 0 0 1-2-2z"/><path style="opacity:1" fill="#681637" d="M68.5 33.5c1.69 2.02 3.356 4.02 5 6h-4a19.242 19.242 0 0 0-1-6z"/><path style="opacity:1" fill="#fce009" d="M73.5 41.5c2.822 3.278 6.489 4.611 11 4 3.033-.368 5.7.298 8 2 1.303 6.023-1.03 9.69-7 11a9.106 9.106 0 0 0-1 5 77.284 77.284 0 0 1 4 20 37.666 37.666 0 0 1 6 11.5c-2.541 2.393-2.541 4.56 0 6.5a51.56 51.56 0 0 0 7 1v4c-3.119 1.551-6.452 2.551-10 3v4h6v3c-2.333.333-3.667 1.667-4 4h-1c-4.937 2.029-7.27.363-7-5a5.728 5.728 0 0 0 1-3c-1.068-.934-2.401-1.268-4-1 .285-1.788-.048-3.455-1-5-1.45-1.155-2.45-2.655-3-4.5a17.648 17.648 0 0 0-6 .5c1.072-5.845.738-11.512-1-17-1.765-.961-3.765-1.295-6-1v-1a18.436 18.436 0 0 1 .5-6 19.568 19.568 0 0 0 3.5-4c5.281-2.824 5.281-5.49 0-8a60.435 60.435 0 0 0-12 0 13.117 13.117 0 0 1 1-7c2.07-1.403 3.736-3.07 5-5 1.15-.291 1.816-1.124 2-2.5-.058-2.528-1.058-4.528-3-6 1.537-1.11 2.204-2.61 2-4.5 3.109-.236 6.109.097 9 1z"/><path style="opacity:1" fill="#b92e1d" d="M235.5 36.5a70.915 70.915 0 0 0 4 2c-1.112.765-1.779 1.765-2 3-1.243 3.984-1.243 7.984 0 12v6h3v8c-3.848.618-7.181.618-10 0-2.938.227-5.271-.773-7-3a67.243 67.243 0 0 1-1-15 83.78 83.78 0 0 0 10-9c1.109-1.714.442-2.38-2-2 .342-.838 1.008-1.172 2-1a5.728 5.728 0 0 0 3-1z"/><path style="opacity:1" fill="#1f045c" d="M241.5 37.5c4.57-.38 8.904.288 13 2 2.522 1.502 2.522 2.835 0 4 0-.667-.333-1-1-1h-1c-3.638-1.505-7.305-1.838-11-1v-4z"/><path style="opacity:1" fill="#c07f09" d="M186.5 32.5c2.782 2.724 6.115 4.39 10 5-.17 1.322.163 2.489 1 3.5l11 1c.671.986.671 2.153 0 3.5-4.303.235-5.97 2.569-5 7v13h-1a81.884 81.884 0 0 0-1-18c-1.725 1.592-2.725 1.258-3-1a70.915 70.915 0 0 1 4-2c-2.108-1.444-4.441-2.11-7-2v3c-2.135.353-3.468-.48-4-2.5a273.269 273.269 0 0 1 4-4 27.483 27.483 0 0 0-11.5.5 31.148 31.148 0 0 0-8.5-2.5c3.813-1.262 7.813-1.929 12-2-.752-.67-1.086-1.504-1-2.5z"/><path style="opacity:1" fill="#260c3d" d="M254.5 39.5c1.101-1.098 2.434-1.265 4-.5 2.133 1.899 4.633 3.065 7.5 3.5-.032 2.098-.699 4.098-2 6-.422-1.926-1.589-2.926-3.5-3-2.198-.375-4.198-1.042-6-2 2.522-1.165 2.522-2.498 0-4z"/><path style="opacity:1" fill="#d6aa10" d="M63.5 39.5h10v2c-2.891-.903-5.891-1.236-9-1 .204 1.89-.463 3.39-2 4.5 1.942 1.472 2.942 3.472 3 6-.184 1.376-.85 2.209-2 2.5a18.436 18.436 0 0 0-.5-6c-.383-.556-.883-.89-1.5-1-1.098-1.1-1.265-2.434-.5-4a10.521 10.521 0 0 0 2.5-3z"/><path style="opacity:1" fill="#7e115a" d="M101.5 39.5c1.143 3.476 1.31 7.142.5 11-.671.752-1.504 1.086-2.5 1 1.843-3.687 2.51-7.687 2-12z"/><path style="opacity:1" fill="#5b1a04" d="M230.5 38.5c2.442-.38 3.109.286 2 2a83.78 83.78 0 0 1-10 9c-.067-1.459.266-2.792 1-4a34.825 34.825 0 0 0 7-7z"/><path style="opacity:1" fill="#bb2d20" d="M271.5 43.5c.282 1.278.949 2.278 2 3-1.93 3.873-2.597 8.206-2 13 .271 1.88-.396 3.213-2 4h-2a9.864 9.864 0 0 0-6 1c.825.886 1.825 1.219 3 1 .268 1.599-.066 2.932-1 4a91.399 91.399 0 0 1-9 3.5c-1.323.816-1.989 1.983-2 3.5-.992-.172-1.658.162-2 1h-2c-.763-.768-1.763-1.268-3-1.5 6.348-3.511 10.681-8.678 13-15.5v-1h3c-.16-1.7.006-3.366.5-5 2.698-3.275 4.531-6.942 5.5-11h4z"/><path style="opacity:1" fill="#4c1515" d="M92.5 43.5v4c-2.3-1.702-4.967-2.368-8-2 2.135-1.869 4.802-2.536 8-2z"/><path style="opacity:1" fill="#f8d809" d="M228.5 31.5h8c-.703 2.373-2.036 4.373-4 6-.992-.172-1.658.162-2 1a34.825 34.825 0 0 1-7 7c-1.316 2.587-1.983 5.587-2 9l.5 9c.383.556.883.89 1.5 1 1.729 2.227 4.062 3.227 7 3 .925 2.384 2.758 3.384 5.5 3 4.003-.33 6.503-2.498 7.5-6.5a32.11 32.11 0 0 1-2.5-9.5c-.383-.556-.883-.89-1.5-1-3.999-7.003-1.999-10.67 6-11 2.308-.135 4.308.531 6 2 .798-.457 1.131-1.124 1-2h1v4h6a41.732 41.732 0 0 1-1 9v5c-2.867 2.667-5.534 5.667-8 9-3.291 1.325-6.291 2.991-9 5-8.486 1.04-15.819-1.293-22-7-1.093-4.455-1.76-8.788-2-13a82.029 82.029 0 0 1 3-13c.489-1.495 1.155-2.828 2-4 2.904-1.114 4.904-3.114 6-6z"/><path style="opacity:1" fill="#cb8e0c" d="m275.5 39.5 3 2c2.199 6.86 2.532 13.86 1 21l-2 1c3.152-8.362 2.485-16.362-2-24z"/><path style="opacity:1" fill="#400267" d="M97.5 38.5c-1.685.684-2.685 2.017-3 4 .207 2.896.373 5.896.5 9 .67.752 1.504 1.086 2.5 1-1.068.934-2.401 1.268-4 1 .295-2.235-.039-4.235-1-6v-4c1.13-1.815 1.796-3.815 2-6 1.291-.237 2.291.096 3 1z"/><path style="opacity:1" fill="#140099" d="M97.5 38.5c1.068.934 2.401 1.268 4 1 .51 4.313-.157 8.313-2 12-.992-.172-1.658.162-2 1-.996.086-1.83-.248-2.5-1a296.49 296.49 0 0 0-.5-9c.315-1.983 1.315-3.316 3-4z"/><path style="opacity:1" fill="#621706" d="M60.5 38.5c.891.61 1.891.943 3 1a10.521 10.521 0 0 1-2.5 3c-.765 1.566-.598 2.9.5 4v2c-.709.904-1.709 1.237-3 1 .495-2.324.495-4.49 0-6.5 1.207-1.3 1.874-2.8 2-4.5z"/><path style="opacity:1" fill="#250b0f" d="M157.5 45.5c0 4-2 6-6 6l-2 3-3-2c-1.17-1.779-2.836-2.779-5-3 1.527-2.568 3.861-3.901 7-4 1.7-.126 3.2-.793 4.5-2a15.407 15.407 0 0 0 4.5 2z"/><path style="opacity:1" fill="#b26c09" d="M252.5 42.5c.131.876-.202 1.543-1 2-1.692-1.469-3.692-2.135-6-2-7.999.33-9.999 3.997-6 11h-2c-1.243-4.016-1.243-8.016 0-12h4c3.695-.838 7.362-.505 11 1z"/><path style="opacity:1" fill="#c18411" d="M223.5 45.5c-.734 1.208-1.067 2.541-1 4a67.243 67.243 0 0 0 1 15c-.617-.11-1.117-.444-1.5-1l-.5-9c.017-3.413.684-6.413 2-9z"/><path style="opacity:1" fill="#c99c18" d="M253.5 42.5c.667 0 1 .333 1 1 1.802.958 3.802 1.625 6 2a40.911 40.911 0 0 1-.5 9c-.383.556-.883.89-1.5 1a41.732 41.732 0 0 0 1-9h-6v-4z"/><path style="opacity:1" fill="#af6e11" d="M61.5 46.5c.617.11 1.117.444 1.5 1 .495 1.973.662 3.973.5 6-1.264 1.93-2.93 3.597-5 5a13.117 13.117 0 0 0-1 7h-1c.268-1.599-.066-2.932-1-4l1-4c2.229-.555 3.895-1.889 5-4 1.288-1.798 1.288-3.465 0-5v-2z"/><path style="opacity:1" fill="#350801" d="M208.5 45.5c.624.417.957 1.084 1 2-.247 1.213-.914 1.88-2 2h-3c.237 1.291-.096 2.291-1 3-.97-4.431.697-6.765 5-7z"/><path style="opacity:1" fill="#a66d02" d="M157.5 45.5c1.684 3.218 1.017 5.885-2 8a5.577 5.577 0 0 0-3 1c-.886-.825-1.219-1.825-1-3 4 0 6-2 6-6z"/><path style="opacity:1" fill="#552a02" d="M151.5 51.5c-.219 1.175.114 2.175 1 3a5.577 5.577 0 0 1 3-1v4c-2.813.475-4.813-.525-6-3l2-3z"/><path style="opacity:1" fill="#deae05" d="M198.5 46.5c.275 2.258 1.275 2.592 3 1a81.884 81.884 0 0 1 1 18v6h-2a75.073 75.073 0 0 0 0-20c-5.443 1.519-6.11-.148-2-5z"/><path style="opacity:1" fill="#7b2f07" d="M273.5 46.5a31.661 31.661 0 0 1 2 8.5c.193 2.008-.474 3.508-2 4.5h-2c-.597-4.794.07-9.127 2-13z"/><path style="opacity:1" fill="#b16f13" d="M92.5 47.5c.961 1.765 1.295 3.765 1 6-.886 3.537-3.219 5.204-7 5v5h-2a9.106 9.106 0 0 1 1-5c5.97-1.31 8.303-4.977 7-11z"/><path style="opacity:1" fill="#f0c808" d="m261.5 29.5 6 2c1.562.233 2.895.9 4 2l4 6c4.485 7.638 5.152 15.638 2 24-1.542.8-3.208 1.134-5 1-.134-1.791.199-3.458 1-5 1.526-.992 2.193-2.492 2-4.5a31.661 31.661 0 0 0-2-8.5c-1.051-.722-1.718-1.722-2-3a9.173 9.173 0 0 0-2-4.5c-2.027-1.88-4.36-3.046-7-3.5-2.219-2.106-4.885-3.106-8-3-4.333-1.333-8.667-1.333-13 0-5.111-.662-5.111-1.828 0-3.5a72.595 72.595 0 0 1 20 .5z"/><path style="opacity:1" fill="#772b04" d="M141.5 49.5c2.164.221 3.83 1.221 5 3-1.644.31-2.644 1.31-3 3-.891.761-1.558 1.761-2 3 .32 3.215.32 6.548 0 10a7.468 7.468 0 0 1-3-2 272.648 272.648 0 0 0 4-14 10.02 10.02 0 0 0-1-3z"/><path style="opacity:1" fill="#e0b105" d="m146.5 52.5 3 2c1.187 2.475 3.187 3.475 6 3-.683 1.676-2.017 2.343-4 2-.032 2.576.635 4.91 2 7h-3v3c-2.21-.955-2.543-2.455-1-4.5-2.098-.678-4.098-.51-6 .5 2.246-1.534 4.58-3.2 7-5-2.108-1.444-4.441-2.11-7-2v-3c.356-1.69 1.356-2.69 3-3z"/><path style="opacity:1" fill="#66103e" d="m56.5 57.5-1 4c-1.542-.8-3.209-1.134-5-1a609.785 609.785 0 0 1 6-3z"/><path style="opacity:1" fill="#ebb808" d="M196.5 71.5h-7a16.874 16.874 0 0 1-1 8c-1.983.315-3.316 1.315-4 3-.934-1.068-1.268-2.401-1-4h5v-6a6.846 6.846 0 0 0-4 1c-.798-.457-1.131-1.124-1-2 5.656-.367 7.489-3.367 5.5-9-.74 1.819-1.907 3.152-3.5 4 .444-2.722 1.777-4.889 4-6.5-2.673-1.27-2.673-1.937 0-2a7.253 7.253 0 0 1 2 2.5 28.818 28.818 0 0 0-1 10c1.175.219 2.175-.114 3-1a6.895 6.895 0 0 1-2-4c1.549-2.402 2.216-5.068 2-8h3v14z"/><path style="opacity:1" fill="#dda507" d="M220.5 41.5a82.029 82.029 0 0 0-3 13c.24 4.212.907 8.545 2 13 6.181 5.707 13.514 8.04 22 7v1c-4.333 1.333-8.667 1.333-13 0a1090.33 1090.33 0 0 1-11-6 94.025 94.025 0 0 0-3-13c2.219-3.98 3.386-8.313 3.5-13 .708-.88 1.542-1.547 2.5-2z"/><path style="opacity:1" fill="#691905" d="M207.5 49.5a68.582 68.582 0 0 1-4 16v-13c.904-.709 1.237-1.709 1-3h3z"/><path style="opacity:1" fill="#bc7607" d="M143.5 55.5v3c2.559-.11 4.892.556 7 2-2.42 1.8-4.754 3.466-7 5-1.22 1.55-1.22 3.216 0 5-1.333 0-2-.667-2-2 .32-3.452.32-6.785 0-10 .442-1.239 1.109-2.239 2-3z"/><path style="opacity:1" fill="#bb7316" d="M271.5 59.5h2c-.801 1.542-1.134 3.209-1 5 1.792.134 3.458-.2 5-1-1.13 1.815-1.796 3.815-2 6a44.043 44.043 0 0 1-2-1c-.667 5.82-1.333 11.486-2 17v-16c-.114-2.218-.78-4.218-2-6 1.604-.787 2.271-2.12 2-4z"/><path style="opacity:1" fill="#9d3e09" d="M237.5 53.5h2c.617.11 1.117.444 1.5 1a32.11 32.11 0 0 0 2.5 9.5c-.997 4.002-3.497 6.17-7.5 6.5-2.742.384-4.575-.616-5.5-3 2.819.618 6.152.618 10 0v-8h-3v-6z"/><path style="opacity:1" fill="#17009b" d="M50.5 60.5c1.791-.134 3.458.2 5 1 .934 1.068 1.268 2.401 1 4-2.835 1.913-6.168 2.913-10 3-2.668-2.364-2.335-4.364 1-6 .473-1.406 1.473-2.073 3-2z"/><path style="opacity:1" fill="#da8d0e" d="M69.5 65.5a41.35 41.35 0 0 0-10 2c-1-.333-1.667-1-2-2 4.03-.398 8.03-.398 12 0z"/><path style="opacity:1" fill="#fbdf0b" d="M150.5 69.5v4c-2.121.175-4.121-.159-6-1 0-.667-.333-1-1-1v-1c-1.22-1.784-1.22-3.45 0-5 1.902-1.01 3.902-1.178 6-.5-1.543 2.045-1.21 3.545 1 4.5z"/><path style="opacity:1" fill="#3d216e" d="M267.5 63.5h2c1.22 1.782 1.886 3.782 2 6h-3l-1-6z"/><path style="opacity:1" fill="#770a48" d="M47.5 62.5c-3.335 1.636-3.668 3.636-1 6a5.728 5.728 0 0 0 1 3c-1.574-.437-2.741-1.437-3.5-3-1.392-3.72-.225-5.72 3.5-6z"/><path style="opacity:1" fill="#270509" d="m267.5 63.5 1 6c-.992-.172-1.658.162-2 1-1.291.237-2.291-.096-3-1 .934-1.068 1.268-2.401 1-4-1.175.219-2.175-.114-3-1a9.864 9.864 0 0 1 6-1z"/><path style="opacity:1" fill="#41006b" d="M56.5 65.5h1c.333 1 1 1.667 2 2-1.449 1.664-3.449 2.498-6 2.5-.466 2.123-1.633 3.623-3.5 4.5-1.75-.248-2.582-1.248-2.5-3a5.728 5.728 0 0 1-1-3c3.832-.087 7.165-1.087 10-3z"/><path style="opacity:1" fill="#712404" d="M86.5 63.5c1.917 1.41 3.75 3.076 5.5 5 .684 1.284.517 2.45-.5 3.5 1.473.71 2.14 1.876 2 3.5h-3c.268-1.599-.066-2.932-1-4a21.542 21.542 0 0 1-3-8z"/><path style="opacity:1" fill="#2f1119" d="M155.5 76.5v1h-4c-1.251-2.061-2.918-2.394-5-1-.528 1.836-1.194 3.503-2 5v-4h-4v-6h3c.667 0 1 .333 1 1 1.779 1.844 4.112 2.51 7 2-.285-1.788.048-3.455 1-5 1.901 1.435 2.234 3.102 1 5 .355 1.022 1.022 1.689 2 2z"/><path style="opacity:1" fill="#631002" d="M217.5 69.5c3.691 2.04 7.358 4.04 11 6-.704 1.844-2.037 2.344-4 1.5-2.883-2.082-5.217-4.582-7-7.5z"/><path style="opacity:1" fill="#621705" d="M279.5 62.5c.639.597.972 1.43 1 2.5-2.526 2.573-2.526 5.073 0 7.5-.355 1.022-1.022 1.689-2 2-.526-1.73-1.526-3.064-3-4v-1c.204-2.185.87-4.185 2-6l2-1z"/><path style="opacity:1" fill="#e7b90b" d="M164.5 77.5a51.648 51.648 0 0 0-7 1c-.342-.838-1.008-1.172-2-1v-1a6.845 6.845 0 0 1 1-4 19.223 19.223 0 0 1-3-5c1.317.321 2.651.654 4 1 1.556-1.047 3.223-1.714 5-2v6c-2.512-.077-4.512.923-6 3 2.806.668 5.472 1.334 8 2z"/><path style="opacity:1" fill="#632003" d="M263.5 69.5c.709.904 1.709 1.237 3 1a13.938 13.938 0 0 0-6 3 38.102 38.102 0 0 0-8 3c.011-1.517.677-2.684 2-3.5a91.399 91.399 0 0 0 9-3.5z"/><path style="opacity:1" fill="#945d04" d="M153.5 66.5v1a19.223 19.223 0 0 0 3 5 6.845 6.845 0 0 0-1 4c-.978-.311-1.645-.978-2-2 1.234-1.898.901-3.565-1-5-.952 1.545-1.285 3.212-1 5-2.888.51-5.221-.156-7-2 1.879.841 3.879 1.175 6 1v-7h3z"/><path style="opacity:1" fill="#e5bb06" d="M266.5 70.5h3l-2 7h-10v-3c1.291.237 2.291-.096 3-1a13.938 13.938 0 0 1 6-3z"/><path style="opacity:1" fill="#a06006" d="M196.5 71.5c1.068.934 2.401 1.268 4 1a19.51 19.51 0 0 1-3.5 7 24.935 24.935 0 0 0-.5 7 32.845 32.845 0 0 1-5.5-6l-1 5c-1 1.333-2 1.333-3 0a4.934 4.934 0 0 0-.5 3h-3c-.273-1.951.393-3.451 2-4.5-.556-.383-.889-.883-1-1.5.684-1.685 2.017-2.685 4-3a16.874 16.874 0 0 0 1-8h7z"/><path style="opacity:1" fill="#c98f06" d="M275.5 70.5c1.474.936 2.474 2.27 3 4-.236 3.109.097 6.109 1 9a5.728 5.728 0 0 0-3 1 198.917 198.917 0 0 0-1-14z"/><path style="opacity:1" fill="#ab6501" d="M89.5 71.5c.934 1.068 1.268 2.401 1 4a41.58 41.58 0 0 1 1 8c-.617-.11-1.117-.444-1.5-1a60.94 60.94 0 0 1-.5-11z"/><path style="opacity:1" fill="#792207" d="M258.5 60.5c-2.319 6.822-6.652 11.989-13 15.5 1.237.232 2.237.732 3 1.5-1.536 2.592-3.869 3.592-7 3v-6c2.709-2.009 5.709-3.675 9-5 2.466-3.333 5.133-6.333 8-9z"/><path style="opacity:1" fill="#aa2b1a" d="M266.5 70.5c.342-.838 1.008-1.172 2-1h3v16c-.904.709-1.237 1.709-1 3-2.473-.412-3.806.588-4 3a50.442 50.442 0 0 0-10 .5 41.083 41.083 0 0 1-8 3.5v3l-3 2h-1c-2.466-1.134-5.133-1.3-8-.5-.752.671-1.086 1.504-1 2.5h-7c1.637-3.8 4.47-6.466 8.5-8a4.934 4.934 0 0 0 .5-3 20.093 20.093 0 0 0 6-1.5c.837-1.011 1.17-2.178 1-3.5 1.291.237 2.291-.096 3-1v-1c.473-1.406 1.473-2.073 3-2 4.131-.21 7.464-1.877 10-5h7l2-7h-3z"/><path style="opacity:1" fill="#c7900b" d="M69.5 73.5a19.568 19.568 0 0 1-3.5 4 18.436 18.436 0 0 0-.5 6c-1.406-.473-2.073-1.473-2-3 .554-3.555 2.554-5.888 6-7z"/><path style="opacity:1" fill="#e5b504" d="M84.5 63.5h2a21.542 21.542 0 0 0 3 8 60.94 60.94 0 0 0 .5 11c.383.556.883.89 1.5 1 1.287 3.407 3.287 6.407 6 9l1 6h-4v3c-2.541-1.94-2.541-4.107 0-6.5a37.666 37.666 0 0 0-6-11.5 77.284 77.284 0 0 0-4-20z"/><path style="opacity:1" fill="#560f03" d="M200.5 71.5h2c.411 6.15-1.589 11.15-6 15-.163-2.357.003-4.69.5-7a19.51 19.51 0 0 0 3.5-7v-1z"/><path style="opacity:1" fill="#f6ce07" d="M250.5 77.5a9.864 9.864 0 0 1 6 1 44.136 44.136 0 0 0-6 4c-1.527-.073-2.527.594-3 2-7.52-.034-7.52-1.2 0-3.5a14.696 14.696 0 0 0 3-3.5z"/><path style="opacity:1" fill="#c17c07" d="M260.5 73.5c-.709.904-1.709 1.237-3 1v3h3c-2.536 3.123-5.869 4.79-10 5a44.136 44.136 0 0 1 6-4 9.864 9.864 0 0 0-6-1c.342-.838 1.008-1.172 2-1a38.102 38.102 0 0 1 8-3z"/><path style="opacity:1" fill="#220a11" d="M162.5 82.5h-1c-.948-1.478-2.281-2.478-4-3a9.107 9.107 0 0 0 5-1c.792 1.2.792 2.533 0 4z"/><path style="opacity:1" fill="#0000b6" d="M151.5 77.5c1.068.934 2.401 1.268 4 1v7c-.802 1.452-1.302 3.118-1.5 5a39.8 39.8 0 0 1-4.5-9.5c.108-1.681.775-2.848 2-3.5z"/><path style="opacity:1" fill="#13067e" d="M151.5 77.5h4c.992-.172 1.658.162 2 1v1c1.719.522 3.052 1.522 4 3a43.824 43.824 0 0 1-6 2v-6c-1.599.268-2.932-.066-4-1z"/><path style="opacity:1" fill="#865406" d="M164.5 77.5c.38 2.198-.287 3.865-2 5 .792-1.467.792-2.8 0-4a9.107 9.107 0 0 1-5 1v-1a51.648 51.648 0 0 1 7-1z"/><path style="opacity:1" fill="#651b04" d="M138.5 78.5c-.282 1.278-.949 2.278-2 3-.874 2.19-2.541 3.19-5 3 1.739-2.743 4.073-4.743 7-6z"/><path style="opacity:1" fill="#b78016" d="M140.5 77.5h4v4a13.802 13.802 0 0 0-4 4v11c-.942-3.644-1.608-7.478-2-11.5-.108-1.681-.775-2.848-2-3.5 1.051-.722 1.718-1.722 2-3 .342-.838 1.008-1.172 2-1z"/><path style="opacity:1" fill="#5b1803" d="M241.5 80.5c-1.165 3.09-3.498 4.424-7 4 1.355-3.018 3.688-4.351 7-4z"/><path style="opacity:1" fill="#240091" d="M63.5 80.5c-.073 1.527.594 2.527 2 3v1c.61.891.943 1.891 1 3h-3c-2.608.1-4.942-.567-7-2-1.265-1.014-1.931-2.514-2-4.5l1-4.5a81.906 81.906 0 0 1 8 4z"/><path style="opacity:1" fill="#c28e02" d="M248.5 77.5h2a14.696 14.696 0 0 1-3 3.5c-7.52 2.3-7.52 3.466 0 3.5v1c-1.788-.285-3.455.048-5 1-1.386 2.242-3.386 3.575-6 4 1.088-1.5 2.421-2.833 4-4-2.333-1.333-4.667-1.333-7 0a198.752 198.752 0 0 1-12.5 11c-1.303 2.966-3.303 5.3-6 7-.037 2.474-.87 4.474-2.5 6l1-6 4-7a2.427 2.427 0 0 0 2-.5 95.635 95.635 0 0 1 7-8.5h2c2.333-.333 3.667-1.667 4-4h2c3.502.424 5.835-.91 7-4 3.131.592 5.464-.408 7-3z"/><path style="opacity:1" fill="#58280d" d="M65.5 84.5c2.235-.295 4.235.039 6 1 0 1.333-.667 2-2 2h-3a5.728 5.728 0 0 0-1-3z"/><path style="opacity:1" fill="#3c0801" d="M232.5 84.5c-.333 2.333-1.667 3.667-4 4v-4h4z"/><path style="opacity:1" fill="#652104" d="M279.5 83.5c.438-.065.772.101 1 .5-1.655 1.444-2.322 3.278-2 5.5h-3c-.134-1.791.199-3.458 1-5a5.728 5.728 0 0 1 3-1z"/><path style="opacity:1" fill="#7a0d5c" d="M56.5 85.5c2.058 1.433 4.392 2.1 7 2-3 2.699-5.334 2.032-7-2z"/><path style="opacity:1" fill="#c78f02" d="M136.5 81.5c.17 1.322-.163 2.489-1 3.5a57.657 57.657 0 0 1-13 2.5c.268 1.599-.066 2.932-1 4v-6c3.307-.55 6.64-.884 10-1 2.459.19 4.126-.81 5-3z"/><path style="opacity:1" fill="#0f0395" d="M151.5 77.5c-1.225.652-1.892 1.819-2 3.5a39.8 39.8 0 0 0 4.5 9.5c.198-1.882.698-3.548 1.5-5 .911 4.867-.422 8.867-4 12-2.891.903-5.891 1.236-9 1-.333-1-1-1.667-2-2v-11h4v-4c.806-1.497 1.472-3.164 2-5 2.082-1.394 3.749-1.061 5 1z"/><path style="opacity:1" fill="#f5cd07" d="M275.5 69.5v1c.498 4.652.831 9.319 1 14-.801 1.542-1.134 3.209-1 5-1.713 2.35-4.047 3.35-7 3v-3h3v-4c.667-5.514 1.333-11.18 2-17 .683.363 1.35.696 2 1z"/><path style="opacity:1" fill="#591d04" d="M121.5 85.5v6h-1a35.436 35.436 0 0 0-11 3c-.801-1.542-1.134-3.209-1-5l10 1-2-6c1.915-.284 3.581.049 5 1z"/><path style="opacity:1" fill="#cb840e" d="M197.5 87.5c2.227.9 3.227 2.567 3 5a18.977 18.977 0 0 1-8-2c1.862-.892 3.862-1.059 6-.5-.752-.67-1.086-1.504-1-2.5z"/><path style="opacity:1" fill="#fbdc08" d="M236.5 90.5a65.345 65.345 0 0 0-14 13 94.977 94.977 0 0 0-2 8l1 1c1.235-.84 2.235-1.84 3-3 3.64-.65 6.973-2.15 10-4.5a16.242 16.242 0 0 1 8 0c-2.551.002-4.551.836-6 2.5l-2 3a57.422 57.422 0 0 0-9 9 5.576 5.576 0 0 0-3 1l-1 9c.017 3.413.684 6.413 2 9h1c-.763 3.638.57 5.138 4 4.5.603-1.825 1.27-3.659 2-5.5a62.45 62.45 0 0 1 6.5-8 8.43 8.43 0 0 0 .5-4c1.478-.262 2.811.071 4 1a62.913 62.913 0 0 0-4 8c-.514 4.307-1.848 8.307-4 12h4c.904-.709 1.237-1.709 1-3 1.175-.219 2.175.114 3 1-3.207 5.444-3.707 11.111-1.5 17 1.506 1.674 3.339 2.674 5.5 3 .343 1.725 1.343 2.225 3 1.5 2.496-1.331 4.496-3.164 6-5.5h1a30.728 30.728 0 0 1 5.5-3c1.03.336 1.53 1.003 1.5 2-1.644.31-2.644 1.31-3 3-3.149.66-4.649 2.66-4.5 6a118.217 118.217 0 0 0 .5 17h-7c-.194-2.83-.861-5.496-2-8-2.9.092-4.567-1.241-5-4l-4-4c.351-3.312-.982-5.645-4-7-2.362-4.692-6.028-8.025-11-10 .262-1.478-.071-2.811-1-4-1.355-.688-2.355-1.688-3-3 .223-2.614-.944-4.281-3.5-5-.424-2.525-1.59-4.525-3.5-6a52.85 52.85 0 0 0-1-12.5 115.659 115.659 0 0 0 2-11.5c1.63-1.526 2.463-3.526 2.5-6 2.697-1.7 4.697-4.034 6-7 4.34-3.51 8.507-7.176 12.5-11 2.333-1.333 4.667-1.333 7 0-1.579 1.167-2.912 2.5-4 4z"/><path style="opacity:1" fill="#651e03" d="M226.5 88.5a95.635 95.635 0 0 0-7 8.5 2.427 2.427 0 0 1-2 .5 83.23 83.23 0 0 0 5-8.5 8.435 8.435 0 0 1 4-.5z"/><path style="opacity:1" fill="#c28403" d="M120.5 91.5c-1.779 1.844-4.112 2.51-7 2v3c-4.13.034-8.13.701-12 2a10.162 10.162 0 0 1 3-3 20.676 20.676 0 0 1 5-1 35.436 35.436 0 0 1 11-3z"/><path style="opacity:1" fill="#c28d19" d="M135.5 90.5a59.843 59.843 0 0 0 3 12c-1.047 1.556-1.714 3.223-2 5h-3v-5c-3.041.094-4.707-1.406-5-4.5a17.758 17.758 0 0 0-7-1.5 157.562 157.562 0 0 1 2 13 19.22 19.22 0 0 0-6 1c.333-1 1-1.667 2-2 1.175.219 2.175-.114 3-1-4.636-1.672-9.302-2.006-14-1h-1a5.576 5.576 0 0 1 1-3c-2.545-.833-4.212.167-5 3h-2v-4l-2-2a112.97 112.97 0 0 1 15 .5c1.588 2.043 2.921 1.876 4-.5-1.939-1.622-2.272-3.456-1-5.5 4.082.129 7.082-1.538 9-5 3.196-.805 6.196-.638 9 .5z"/><path style="opacity:1" fill="#170016" d="M266.5 91.5c-2.107.968-4.441 1.302-7 1 .322 2.222-.345 4.056-2 5.5a40.939 40.939 0 0 1-9 .5v-3a41.083 41.083 0 0 0 8-3.5 50.442 50.442 0 0 1 10-.5z"/><path style="opacity:1" fill="#a15b06" d="M271.5 85.5v4h-3v3c2.953.35 5.287-.65 7-3-.975 2.295-2.308 4.295-4 6h-5v3c-1.278.282-2.278.949-3 2-.291-1.15-1.124-1.816-2.5-2a369.576 369.576 0 0 1-15.5 2l3-2a40.939 40.939 0 0 0 9-.5c1.655-1.444 2.322-3.278 2-5.5 2.559.302 4.893-.032 7-1 .194-2.412 1.527-3.412 4-3-.237-1.291.096-2.291 1-3z"/><path style="opacity:1" fill="#905203" d="M97.5 92.5a44.764 44.764 0 0 0 7 3 10.162 10.162 0 0 0-3 3l-2 2 2 2a51.56 51.56 0 0 1-7-1v-3h4l-1-6z"/><path style="opacity:1" fill="#c88804" d="M192.5 90.5c.007 4.1 1.673 7.1 5 9h1v3c-2.53 1.276-5.197 1.276-8 0-1.357 3.5-1.024 6.833 1 10 1.765-.526 3.432-.859 5-1v5h-2v-3c-2.825.338-4.992-.662-6.5-3a72.367 72.367 0 0 1-.5-12h4c-.306-2.885.027-5.552 1-8z"/><path style="opacity:1" fill="#5c0e02" d="M198.5 102.5v-3c1.135-1.588 2.469-1.921 4-1a6.846 6.846 0 0 0-1 4h-3z"/><path style="opacity:1" fill="#fad209" d="M197.5 99.5v3h-5v-3h5z"/><path style="opacity:1" fill="#370400" d="M244.5 100.5h-1c-2.83.194-5.496.861-8 2-.086-.996.248-1.829 1-2.5 2.867-.8 5.534-.634 8 .5z"/><path style="opacity:1" fill="#edc406" d="M263.5 100.5a16.339 16.339 0 0 1-5 2c-3.989-.384-7.655.283-11 2v1a108.989 108.989 0 0 0-11 2c1.449-1.664 3.449-2.498 6-2.5a16.242 16.242 0 0 0-8 0c-3.027 2.35-6.36 3.85-10 4.5a34.406 34.406 0 0 1 8-5c4.118-.39 7.785-1.724 11-4h2a369.576 369.576 0 0 0 15.5-2c1.376.184 2.209.85 2.5 2z"/><path style="opacity:1" fill="#651f06" d="M247.5 85.5c-.709.904-1.709 1.237-3 1 .17 1.322-.163 2.489-1 3.5a20.093 20.093 0 0 1-6 1.5 4.934 4.934 0 0 1-.5 3c-4.03 1.534-6.863 4.2-8.5 8h4v2a9.108 9.108 0 0 1-5-1c-1.021 2.119-2.521 3.786-4.5 5a12.93 12.93 0 0 1-.5-5 65.345 65.345 0 0 1 14-13c2.614-.425 4.614-1.758 6-4 1.545-.952 3.212-1.285 5-1z"/><path style="opacity:1" fill="#965f01" d="M243.5 100.5c-3.215 2.276-6.882 3.61-11 4v-2h3c2.504-1.139 5.17-1.806 8-2z"/><path style="opacity:1" fill="#bc3220" d="M263.5 100.5a167.66 167.66 0 0 0 4.5 5c.313 4.502-.52 8.836-2.5 13-3.415 3.075-6.415 6.408-9 10h-2c-2.543.857-4.877 2.19-7 4 1.897 1.152 3.564.819 5-1 .086.996-.248 1.829-1 2.5a57.809 57.809 0 0 0-8 3.5 44.093 44.093 0 0 0-3-2 5.576 5.576 0 0 0 1-3v-2c1.517-.011 2.684-.677 3.5-2 3.793-6.773 3.293-13.106-1.5-19a31.147 31.147 0 0 0 2-2c.992.172 1.658-.162 2-1a29.146 29.146 0 0 0 9-1c1.213-.247 1.88-.914 2-2v-1a16.339 16.339 0 0 0 5-2z"/><path style="opacity:1" fill="#a97305" d="M258.5 102.5v1a72.032 72.032 0 0 1-11 1c3.345-1.717 7.011-2.384 11-2z"/><path style="opacity:1" fill="#fcdf09" d="M271.5 103.5c0-.667-.333-1-1-1v-3h3a40.922 40.922 0 0 1 0 17c-.667-4.482-1.334-8.816-2-13z"/><path style="opacity:1" fill="#2b0500" d="M70.5 107.5h-1a20.807 20.807 0 0 1-6-2c.387-1.22 1.22-1.887 2.5-2 1.975.965 3.475 2.299 4.5 4z"/><path style="opacity:1" fill="#542e37" d="M107.5 106.5h-4c.788-2.833 2.455-3.833 5-3a5.576 5.576 0 0 0-1 3z"/><path style="opacity:1" fill="#571102" d="M258.5 103.5c-.12 1.086-.787 1.753-2 2a29.146 29.146 0 0 1-9 1v-2a72.032 72.032 0 0 0 11-1z"/><path style="opacity:1" fill="#651606" d="m213.5 104.5-1 6c-1.278.282-2.278.949-3 2-1.739-4.09-.406-6.756 4-8z"/><path style="opacity:1" fill="#641903" d="m266.5 98.5 4 4c.667 0 1 .333 1 1a72.367 72.367 0 0 1-.5 12c-2.693 2.338-4.86 5.171-6.5 8.5a62.8 62.8 0 0 0-8 4.5c2.585-3.592 5.585-6.925 9-10 1.98-4.164 2.813-8.498 2.5-13a167.66 167.66 0 0 1-4.5-5c.722-1.051 1.722-1.718 3-2z"/><path style="opacity:1" fill="#381267" d="m78.5 107.5 2 9h-3c-.072-3.053-1.072-5.719-3-8 1.381-4.128 2.715-4.462 4-1z"/><path style="opacity:1" fill="#965901" d="M222.5 103.5a12.93 12.93 0 0 0 .5 5c1.979-1.214 3.479-2.881 4.5-5a9.108 9.108 0 0 0 5 1 34.406 34.406 0 0 0-8 5c-.765 1.16-1.765 2.16-3 3l-1-1a94.977 94.977 0 0 1 2-8z"/><path style="opacity:1" fill="#493680" d="M119.5 108.5c-1 .333-1.667 1-2 2-1.32 1.442-2.986 2.108-5 2 1.29-3.694 3.623-5.028 7-4z"/><path style="opacity:1" fill="#a76904" d="M247.5 105.5v1c-.342.838-1.008 1.172-2 1-2.928.065-5.595.732-8 2a5.727 5.727 0 0 1-3 1l2-3a108.989 108.989 0 0 1 11-2z"/><path style="opacity:1" fill="#ce9910" d="M71.5 85.5c1.738 5.488 2.072 11.155 1 17a17.648 17.648 0 0 1 6-.5c.55 1.845 1.55 3.345 3 4.5.952 1.545 1.285 3.212 1 5 1.599-.268 2.932.066 4 1-4.278.697-6.945-.97-8-5-1.285-3.462-2.619-3.128-4 1-.639.597-.972 1.43-1 2.5.645 2.476 1.978 4.309 4 5.5h1c1.346 2.292 1.012 4.292-1 6 .384-2.165-.283-3.832-2-5l-1 3c.14 1.53.806 2.53 2 3 0 .667-.333 1-1 1-2.705.12-3.371-.88-2-3-1.545-.952-3.212-1.285-5-1h-1v-4c1.599.268 2.932-.066 4-1 .904-.709 1.237-1.709 1-3h-8c1.973-1.306 3.64-2.973 5-5h1c.347-2.652.68-5.652 1-9a2240.73 2240.73 0 0 1-2-11c1.333 0 2-.667 2-2z"/><path style="opacity:1" fill="#32090a" d="M245.5 107.5a31.147 31.147 0 0 1-2 2c4.793 5.894 5.293 12.227 1.5 19-.816 1.323-1.983 1.989-3.5 2 .386-2.437 1.553-4.437 3.5-6 .497-2.31.663-4.643.5-7-2.58-1.589-3.913-3.922-4-7-1.599.268-2.932-.066-4-1 2.405-1.268 5.072-1.935 8-2z"/><path style="opacity:1" fill="#99651b" d="M119.5 108.5c-3.377-1.028-5.71.306-7 4-1.142-2.472-3.142-3.472-6-3 .284 1.915-.049 3.581-1 5-2.128-1.129-4.461-1.296-7-.5.752.671 1.086 1.504 1 2.5h-2v-3h-6v-4c3.548-.449 6.881-1.449 10-3h2c-.111.617-.444 1.117-1 1.5 2.333.667 4.667.667 7 0-.556-.383-.889-.883-1-1.5 4.698-1.006 9.364-.672 14 1-.825.886-1.825 1.219-3 1z"/><path style="opacity:1" fill="#271787" d="M103.5 106.5h5c.111.617.444 1.117 1 1.5a12.494 12.494 0 0 1-7 0c.556-.383.889-.883 1-1.5z"/><path style="opacity:1" fill="#a83019" d="M237.5 109.5c1.068.934 2.401 1.268 4 1 .087 3.078 1.42 5.411 4 7-1.517.011-2.684.677-3.5 2-.437 3.272-2.27 4.939-5.5 5a8.43 8.43 0 0 1-.5 4 564.888 564.888 0 0 1-7.5 10c-1.536-1.525-2.536-3.525-3-6-.765-1.112-1.765-1.779-3-2-.377-4.107.623-7.774 3-11a57.422 57.422 0 0 1 9-9 5.727 5.727 0 0 0 3-1z"/><path style="opacity:1" fill="#6c2205" d="M275.5 103.5c.65.304 1.317.637 2 1a36.875 36.875 0 0 1 1 12h-3v-13z"/><path style="opacity:1" fill="#1e0200" d="M71.5 115.5c-1.068.934-2.401 1.268-4 1-.077-1.25-.744-2.083-2-2.5l3-.5c1.53.14 2.53.807 3 2z"/><path style="opacity:1" fill="#804729" d="M74.5 108.5c1.928 2.281 2.928 4.947 3 8-2.022-1.191-3.355-3.024-4-5.5.028-1.07.361-1.903 1-2.5z"/><path style="opacity:1" fill="#663c3c" d="M78.5 107.5c1.055 4.03 3.722 5.697 8 5a5.728 5.728 0 0 1-1 3c-1.78 1.49-2.447 3.49-2 6h3a29.772 29.772 0 0 0-2 7c-1.677-.683-2.343-2.017-2-4h-5v4l-2-1c-1.333-1-1.333-2 0-3 .667 0 1-.333 1-1s.333-1 1-1c2.012-1.708 2.346-3.708 1-6h2l-2-9z"/><path style="opacity:1" fill="#371c20" d="M105.5 114.5c-1.815 1.13-3.815 1.796-6 2 .086-.996-.248-1.829-1-2.5 2.539-.796 4.872-.629 7 .5z"/><path style="opacity:1" fill="#f9da0b" d="M186.5 32.5c-.086.996.248 1.83 1 2.5-4.187.071-8.187.738-12 2a31.148 31.148 0 0 1 8.5 2.5 27.483 27.483 0 0 1 11.5-.5 273.269 273.269 0 0 0-4 4c.532 2.02 1.865 2.853 4 2.5v-3c2.559-.11 4.892.556 7 2a70.915 70.915 0 0 0-4 2c-4.11 4.852-3.443 6.519 2 5a75.073 75.073 0 0 1 0 20v1c-1.599.268-2.932-.066-4-1v-14h-3c.216 2.932-.451 5.598-2 8a6.895 6.895 0 0 0 2 4c-.825.886-1.825 1.219-3 1a28.818 28.818 0 0 1 1-10 7.253 7.253 0 0 0-2-2.5c-2.673.063-2.673.73 0 2-2.223 1.611-3.556 3.778-4 6.5-1.756 1.052-2.423 2.719-2 5-.131.876.202 1.543 1 2a6.846 6.846 0 0 1 4-1v6h-5c-.268 1.599.066 2.932 1 4 .111.617.444 1.117 1 1.5-1.607 1.049-2.273 2.549-2 4.5h3a4.934 4.934 0 0 1 .5-3c1 1.333 2 1.333 3 0l1-5a32.845 32.845 0 0 0 5.5 6c0 .667.333 1 1 1-.086.996.248 1.83 1 2.5-2.138-.559-4.138-.392-6 .5-.973 2.448-1.306 5.115-1 8h-4a72.367 72.367 0 0 0 .5 12c1.508 2.338 3.675 3.338 6.5 3v3c-2.608.1-4.942-.567-7-2-1.328-2.245-3.161-2.578-5.5-1-.927 3.363-.427 6.363 1.5 9v2c1.35 1.324 1.183 2.324-.5 3a14.093 14.093 0 0 0-3.5-1v-1c-.499-2.889-1.999-3.556-4.5-2a84.902 84.902 0 0 0-.5 13c-1.032 4.841-1.032 9.841 0 15-1.322.17-2.489-.163-3.5-1a278.773 278.773 0 0 0-3.5-8 32.462 32.462 0 0 0-.5-8c-1.333-1.333-2.667-1.333-4 0a62.744 62.744 0 0 1-1.5 11c-.929-1.189-1.262-2.522-1-4-1.478.262-2.811-.071-4-1 1.586-1.673 2.253-3.673 2-6h1c.961-1.765 1.295-3.765 1-6 2.357.163 4.69-.003 7-.5 1.164-2.947 2.83-5.447 5-7.5-.343-1.983.324-3.317 2-4 1.844-1.779 2.51-4.112 2-7 3.381-1.208 5.715-3.541 7-7-.039-1.859.794-3.192 2.5-4 .667-1.667.667-3.333 0-5a13.908 13.908 0 0 1-4-3c.083 2.62.25 5.286.5 8-2.844-.157-4.511 1.176-5 4-2.616 3.904-3.283 3.404-2-1.5-.184-1.376-.851-2.209-2-2.5h-1c-3.891-4.933-8.225-5.267-13-1-.233 1.562-.9 2.895-2 4-.951 1.419-1.284 3.085-1 5-1.808 1.418-2.475 3.418-2 6h-4v-4c-1.984-.117-3.65.55-5 2a9.86 9.86 0 0 1-1-6c-1.644-.214-3.144.12-4.5 1a18.453 18.453 0 0 0-.5 6c1.788-.285 3.455.048 5 1-1.112.765-1.779 1.765-2 3v3a51.569 51.569 0 0 0-7-1v7c2.792.048 4.625-1.285 5.5-4 .383.556.883.889 1.5 1 .342.838 1.008 1.172 2 1a18.473 18.473 0 0 0 3.5-2 14.72 14.72 0 0 0 1.5 5 3.647 3.647 0 0 0 1.5-1c.312-2.809-.188-5.476-1.5-8 .667 0 1-.333 1-1h1a8.43 8.43 0 0 1 4 .5c-1.317 2.937-1.317 5.77 0 8.5 1.599.268 2.932-.066 4-1 .617-.111 1.117-.444 1.5-1 .278.916.778 1.582 1.5 2-2.106 1.579-4.44 2.912-7 4h-2c-.996-.086-1.829.248-2.5 1a72.367 72.367 0 0 0-.5 12c1.478-.262 2.811.071 4 1a31.827 31.827 0 0 0-2.5 9c-.671-.752-1.504-1.086-2.5-1-3.088-.303-4.754 1.03-5 4-2.32 1.726-4.987 2.393-8 2-.539 3.458-1.706 6.791-3.5 10-.198-1.882-.698-3.548-1.5-5-.151-3.218-.984-3.551-2.5-1a213.816 213.816 0 0 1-1.5 13c-1.737-2.508-2.57-5.508-2.5-9l-5-2a57.348 57.348 0 0 0-.5-9c-1.024 1.353-2.357 2.02-4 2 .302-2.559-.032-4.893-1-7-1.333 0-2-.667-2-2a43.836 43.836 0 0 0-1-2c4.187.054 6.52-1.946 7-6a8.941 8.941 0 0 0 3-4c.996.086 1.829-.248 2.5-1 .607 4.037.44 8.037-.5 12 1.599.268 2.932-.066 4-1 1.542-.801 3.208-1.134 5-1 .583-2.989 1.916-5.655 4-8-1.523-1.783-3.523-2.449-6-2-.342-.838-1.008-1.172-2-1-1.274-2.493-1.94-5.159-2-8h-5v-4h-24l2-4c2.185-.204 4.185-.87 6-2 .951-1.419 1.284-3.085 1-5 2.858-.472 4.858.528 6 3 1.068.934 2.401 1.268 4 1v3c-1.478-.262-2.811.071-4 1l2 1a30.947 30.947 0 0 1 6-2.5c.837-1.011 1.17-2.178 1-3.5-1.983.343-3.317-.324-4-2a19.22 19.22 0 0 1 6-1 157.562 157.562 0 0 0-2-13c2.427.023 4.76.523 7 1.5.293 3.094 1.959 4.594 5 4.5v5h3c.286-1.777.953-3.444 2-5a59.843 59.843 0 0 1-3-12c-2.804-1.138-5.804-1.305-9-.5-1.918 3.462-4.918 5.129-9 5-1.272 2.044-.939 3.878 1 5.5-1.079 2.376-2.412 2.543-4 .5a112.97 112.97 0 0 0-15-.5l2-2a38.477 38.477 0 0 1 12-2v-3c2.888.51 5.221-.156 7-2h1c.934-1.068 1.268-2.401 1-4a57.657 57.657 0 0 0 13-2.5c.837-1.011 1.17-2.178 1-3.5 1.225.652 1.892 1.819 2 3.5.392 4.022 1.058 7.856 2 11.5 1 .333 1.667 1 2 2 1.293.658 2.793.992 4.5 1 1.986-.069 3.486-.735 4.5-2 2.956-.955 4.956-2.955 6-6 .825-.886 1.825-1.219 3-1l2-8c1.713-1.135 2.38-2.802 2-5a345.429 345.429 0 0 0-8-2c1.488-2.077 3.488-3.077 6-3v-6c-1.777.286-3.444.953-5 2a349.752 349.752 0 0 0-4-1v-1c-1.365-2.09-2.032-4.424-2-7 1.983.343 3.317-.324 4-2v-4c3.017-2.115 3.684-4.782 2-8-.734-1.208-1.067-2.541-1-4-1.788.285-3.455-.048-5-1a65.756 65.756 0 0 0 1.5-10c.414-.457.914-.79 1.5-1 .929 1.189 1.262 2.522 1 4 2.982-.463 5.982-.796 9-1v3c2.881-.774 5.548-2.107 8-4a59.525 59.525 0 0 0 14 1z"/><path style="opacity:1" fill="#452884" d="M135.5 114.5c-.667 0-1 .333-1 1-2.098 1.414-3.098.748-3-2 1.599-.268 2.932.066 4 1z"/><path style="opacity:1" fill="#ba7913" d="M130.5 112.5a6.846 6.846 0 0 0-4 1c-.952-1.545-1.285-3.212-1-5h5v4z"/><path style="opacity:1" fill="#c68d15" d="M156.5 106.5c.65-.304 1.317-.637 2-1 1.404 2.903 1.071 5.57-1 8a168.522 168.522 0 0 0-6 2h-1a2.428 2.428 0 0 0-.5-2c-2.085 2.644-4.585 3.311-7.5 2 .221-1.235.888-2.235 2-3-1.545-.952-3.212-1.285-5-1a18.453 18.453 0 0 1 .5-6c1.356-.88 2.856-1.214 4.5-1a9.86 9.86 0 0 0 1 6c1.35-1.45 3.016-2.117 5-2v4h4c-.475-2.582.192-4.582 2-6z"/><path style="opacity:1" fill="#512000" d="M140.5 106.5c1.086.12 1.753.787 2 2l-1 2c-.929-1.189-1.262-2.522-1-4z"/><path style="opacity:1" fill="#fee108" d="M166.5 99.5h3v6c-2.252-.833-4.419-.833-6.5 0a50.464 50.464 0 0 0-.5 10c-1.478.262-2.811-.071-4-1 1.331-4.364 2.665-8.698 4-13l4-2z"/><path style="opacity:1" fill="#bf7a0d" d="m166.5 99.5-4 2c-1.834.994-3.501.994-5 0 1.1-1.105 1.767-2.438 2-4a5.577 5.577 0 0 1 3 1c.886-.825 1.219-1.825 1-3h5c-.027 1.7-.694 3.033-2 4z"/><path style="opacity:1" fill="#c68904" d="M183.5 102.5c-2.488 1.24-4.321 3.24-5.5 6a18.453 18.453 0 0 1-.5-6c.489-2.824 2.156-4.157 5-4-.25-2.714-.417-5.38-.5-8a13.908 13.908 0 0 0 4 3c.667 1.667.667 3.333 0 5-1.706.808-2.539 2.141-2.5 4z"/><path style="opacity:1" fill="#785e4b" d="M151.5 97.5c-1.014 1.265-2.514 1.931-4.5 2-1.707-.008-3.207-.342-4.5-1 3.109.236 6.109-.097 9-1z"/><path style="opacity:1" fill="#4e283b" d="M127.5 91.5c2.448-.973 5.115-1.306 8-1v3h-6c.763-.768 1.763-1.268 3-1.5a12.935 12.935 0 0 0-5-.5z"/><path style="opacity:1" fill="#391a69" d="M127.5 91.5c1.699-.16 3.366.007 5 .5-1.237.232-2.237.732-3 1.5-.656.778-1.489 1.444-2.5 2l-1.5-1a184.223 184.223 0 0 0 2-3z"/><path style="opacity:1" fill="#c58f02" d="M174.5 85.5h3c.705-2.744.705-5.411 0-8a173.333 173.333 0 0 1-3 4c.121-3.627 1.955-5.96 5.5-7a259.685 259.685 0 0 0-.5 17c-4.408.438-6.075-1.562-5-6z"/><path style="opacity:1" fill="#b17e27" d="M161.5 82.5h1l-2 8c-1.175-.219-2.175.114-3 1-1.044 3.045-3.044 5.045-6 6 3.578-3.133 4.911-7.133 4-12v-1a43.824 43.824 0 0 0 6-2z"/><path style="opacity:1" fill="#0000b5" d="M141.5 89.5c3.216.484 6.549.484 10 0a6.845 6.845 0 0 0 1 4c-5.902 4.544-9.569 3.21-11-4z"/><path style="opacity:1" fill="#b67a07" d="M174.5 82.5a5.727 5.727 0 0 0-1 3c-1.597.59-2.931 1.59-4 3l-1-1.5c1.428-2.219 3.428-3.719 6-4.5z"/><path style="opacity:1" fill="#421336" d="M144.5 81.5v4h-4a13.802 13.802 0 0 1 4-4z"/><path style="opacity:1" fill="#4f1d03" d="M174.5 85.5h-1a5.727 5.727 0 0 1 1-3v-1a173.333 173.333 0 0 0 3-4c.705 2.589.705 5.256 0 8h-3z"/><path style="opacity:1" fill="#a16a04" d="M183.5 71.5c-.423-2.281.244-3.948 2-5 1.593-.848 2.76-2.181 3.5-4 1.989 5.633.156 8.633-5.5 9z"/><path style="opacity:1" fill="#dea907" d="M166.5 65.5a19.24 19.24 0 0 0 6 1 29.752 29.752 0 0 0-2 7c-1.175.219-2.175-.114-3-1a29.3 29.3 0 0 0-1-7z"/><path style="opacity:1" fill="#783a0d" d="M174.5 49.5a19.222 19.222 0 0 0-1 6l-6-2v5h3v3h4l-4 2a19.24 19.24 0 0 0-6-1 91.285 91.285 0 0 0 2.5-10c2.237-1.704 4.737-2.704 7.5-3z"/><path style="opacity:1" fill="#240900" d="M173.5 55.5c.961 1.765 1.295 3.765 1 6h-4v-3h-3v-5l6 2z"/><path style="opacity:1" fill="#b37f13" d="M174.5 49.5c.876-.13 1.543.203 2 1a135.42 135.42 0 0 1-1 13h-5l4-2c.295-2.235-.039-4.235-1-6 .017-2.065.35-4.065 1-6z"/><path style="opacity:1" fill="#b26c07" d="M174.5 116.5c-1.676.683-2.343 2.017-2 4-3.043-1.244-4.376-3.577-4-7h3v-7h3v10z"/><path style="opacity:1" fill="#400400" d="M196.5 111.5c1.149.291 1.816 1.124 2 2.5-.184 1.376-.851 2.209-2 2.5v-5z"/><path style="opacity:1" fill="#e8bb0f" d="M172.5 98.5c-1.676.683-2.343 2.017-2 4h4c.067-1.459-.266-2.792-1-4 1.149.291 1.816 1.124 2 2.5-1.283 4.904-.616 5.404 2 1.5a18.453 18.453 0 0 0 .5 6c1.179-2.76 3.012-4.76 5.5-6-1.285 3.459-3.619 5.792-7 7 .51 2.888-.156 5.221-2 7v-10h-3v7h-3c-.376 3.423.957 5.756 4 7-2.17 2.053-3.836 4.553-5 7.5-2.31.497-4.643.663-7 .5.295 2.235-.039 4.235-1 6v-6h-4c2.56-1.088 4.894-2.421 7-4h1v3c4.3-.315 5.967-2.649 5-7a24.935 24.935 0 0 1-7-.5c-1.669-1.669-3.669-2.502-6-2.5v7c-1.317-2.73-1.317-5.563 0-8.5a8.43 8.43 0 0 0-4-.5 168.522 168.522 0 0 1 6-2c2.071-2.43 2.404-5.097 1-8-.683.363-1.35.696-2 1-.284-1.915.049-3.581 1-5 1.499.994 3.166.994 5 0a2795.833 2795.833 0 0 0-4 13c1.189.929 2.522 1.262 4 1-.165-3.35.002-6.683.5-10 2.081-.833 4.248-.833 6.5 0v-6h-3c1.306-.967 1.973-2.3 2-4h-5c.219 1.175-.114 2.175-1 3a5.577 5.577 0 0 0-3-1c4.775-4.267 9.109-3.933 13 1z"/><path style="opacity:1" fill="#632803" d="M164.5 107.5h4c.256 2.412-.744 4.079-3 5-.952-1.545-1.285-3.212-1-5z"/><path style="opacity:1" fill="#7c4303" d="M172.5 98.5h1c.734 1.208 1.067 2.541 1 4h-4c-.343-1.983.324-3.317 2-4z"/><path style="opacity:1" fill="#661e01" d="M64.5 112.5h8c.237 1.291-.096 2.291-1 3-.47-1.193-1.47-1.86-3-2l-3 .5c1.256.417 1.923 1.25 2 2.5v4h-3c-.273-1.951.393-3.451 2-4.5-1.473-.71-2.14-1.876-2-3.5z"/><path style="opacity:1" fill="#c48717" d="M117.5 110.5c.683 1.676 2.017 2.343 4 2 .17 1.322-.163 2.489-1 3.5a30.947 30.947 0 0 0-6 2.5l-2-1c1.189-.929 2.522-1.262 4-1v-3c-1.599.268-2.932-.066-4-1 2.014.108 3.68-.558 5-2z"/><path style="opacity:1" fill="#6d4a5e" d="M150.5 115.5c0 .667-.333 1-1 1l-2 1h-5v-2c2.915 1.311 5.415.644 7.5-2 .464.594.631 1.261.5 2z"/><path style="opacity:1" fill="#97703c" d="M130.5 112.5a9.86 9.86 0 0 1 6 1c-.124.607-.457.94-1 1-1.068-.934-2.401-1.268-4-1-.098 2.748.902 3.414 3 2-.287 1.621-1.287 2.621-3 3a9.86 9.86 0 0 1-1-6z"/><path style="opacity:1" fill="#a75b09" d="M187.5 114.5a5.576 5.576 0 0 0-3 1 13.116 13.116 0 0 0-1 7c-1.927-2.637-2.427-5.637-1.5-9 2.339-1.578 4.172-1.245 5.5 1z"/><path style="opacity:1" fill="#f8dc13" d="M77.5 122.5c-.667 0-1 .333-1 1-1.194-.47-1.86-1.47-2-3l1-3c1.717 1.168 2.384 2.835 2 5z"/><path style="opacity:1" fill="#280a8b" d="M80.5 116.5c1.086.12 1.753.787 2 2l-1 2c-.929-1.189-1.262-2.522-1-4z"/><path style="opacity:1" fill="#61341b" d="M97.5 116.5h2l-2 4h-4c.333-2.333 1.667-3.667 4-4z"/><path style="opacity:1" fill="#b17619" d="M149.5 116.5c1.312 2.524 1.812 5.191 1.5 8a3.647 3.647 0 0 1-1.5 1 14.72 14.72 0 0 1-1.5-5 18.473 18.473 0 0 1-3.5 2 400.493 400.493 0 0 1 3-5l2-1z"/><path style="opacity:1" fill="#52015c" d="M50.5 128.5h-1c-1.293-5.81-4.96-8.644-11-8.5-.752.671-1.086 1.504-1 2.5-1.291-1.042-1.291-2.208 0-3.5 2.402-.814 4.735-.647 7 .5 4.408 1.406 6.408 4.406 6 9z"/><path style="opacity:1" fill="#624c6d" d="M97.5 120.5h19c0 1.333-.667 2-2 2l-17-2z"/><path style="opacity:1" fill="#b27513" d="M142.5 118.5v3c-.617-.111-1.117-.444-1.5-1-.875 2.715-2.708 4.048-5.5 4v-7c2.361.174 4.694.507 7 1z"/><path style="opacity:1" fill="#401e71" d="M142.5 117.5h5a400.493 400.493 0 0 0-3 5c-.992.172-1.658-.162-2-1v-4z"/><path style="opacity:1" fill="#170196" d="M49.5 128.5h-2c-2.756-.754-5.422-.754-8 0 .447-2.51-.22-4.51-2-6-.086-.996.248-1.829 1-2.5 6.04-.144 9.707 2.69 11 8.5z"/><path style="opacity:1" fill="#2d1d8b" d="M93.5 120.5h4l17 2c-7.413.628-14.413-.039-21-2z"/><path style="opacity:1" fill="#421200" d="M273.5 120.5c.876-.131 1.543.202 2 1-1.088 1.434-2.422 2.434-4 3-.271-1.88.396-3.213 2-4z"/><path style="opacity:1" fill="#351302" d="M155.5 120.5h4v3c-1.068.934-2.401 1.268-4 1v-4z"/><path style="opacity:1" fill="#996319" d="M163.5 124.5c2.9 1.454 4.233.454 4-3h-5v3c-.722-.418-1.222-1.084-1.5-2-.383.556-.883.889-1.5 1v-3h-4v-3c2.331-.002 4.331.831 6 2.5 2.31.497 4.643.663 7 .5.967 4.351-.7 6.685-5 7v-3z"/><path style="opacity:1" fill="#260f2d" d="M163.5 124.5h-1v-3h5c.233 3.454-1.1 4.454-4 3z"/><path style="opacity:1" fill="#722107" d="M68.5 120.5c1.788-.285 3.455.048 5 1-1.371 2.12-.705 3.12 2 3-1.333 1-1.333 2 0 3-2.824-.392-5.824-.392-9 0v-3c1.175.219 2.175-.114 3-1a5.577 5.577 0 0 1-1-3z"/><path style="opacity:1" fill="#3e2021" d="M92.5 120.5h1c6.587 1.961 13.587 2.628 21 2v1h-4a145.052 145.052 0 0 0-17 .5c3.823.818 3.99 1.984.5 3.5-4.972-1.841-5.472-4.174-1.5-7z"/><path style="opacity:1" fill="#cd9802" d="M179.5 125.5c-1.208-.734-2.541-1.067-4-1v12h-1a84.902 84.902 0 0 1 .5-13c2.501-1.556 4.001-.889 4.5 2z"/><path style="opacity:1" fill="#c28301" d="M183.5 124.5h4c1.141 2.049 1.141 4.049 0 6l-8-2v-2c1.195.178 2.362.511 3.5 1 1.683-.676 1.85-1.676.5-3z"/><path style="opacity:1" fill="#541402" d="M187.5 124.5c7.533 1.795 7.866 4.461 1 8-.798-.457-1.131-1.124-1-2 1.141-1.951 1.141-3.951 0-6z"/><path style="opacity:1" fill="#db9807" d="M212.5 110.5a115.659 115.659 0 0 1-2 11.5 52.85 52.85 0 0 1 1 12.5c-1.265-1.014-1.931-2.514-2-4.5-1.237-5.854-1.237-11.687 0-17.5.722-1.051 1.722-1.718 3-2z"/><path style="opacity:1" fill="#b58323" d="M84.5 128.5c0 1.333-.667 2-2 2-2.054.135-3.72-.532-5-2v-4h5c-.343 1.983.323 3.317 2 4z"/><path style="opacity:1" fill="#ac7512" d="M85.5 115.5c-.27 5.363 2.063 7.029 7 5-3.972 2.826-3.472 5.159 1.5 7 3.49-1.516 3.323-2.682-.5-3.5a145.052 145.052 0 0 1 17-.5c-3.477.823-7.144 1.323-11 1.5a71.27 71.27 0 0 1-9 6.5l-4 1c1.502-2.329.836-3.663-2-4a29.772 29.772 0 0 1 2-7h-3c-.447-2.51.22-4.51 2-6z"/><path style="opacity:1" fill="#5b3249" d="M155.5 129.5v-1h4v6h-2a20.69 20.69 0 0 0 1-5h-3z"/><path style="opacity:1" fill="#eeca0c" d="M110.5 123.5h4c1.086.12 1.753.787 2 2-.442 1.239-1.109 2.239-2 3a20.238 20.238 0 0 1-4 4c-1.042-1.291-2.208-1.291-3.5 0-.21-1.558-.71-2.891-1.5-4-3-.333-4.333 1-4 4h-4c-2.613.935-5.28 1.102-8 .5.556-.383.89-.883 1-1.5a71.27 71.27 0 0 0 9-6.5c3.856-.177 7.523-.677 11-1.5z"/><path style="opacity:1" fill="#c18a02" d="M245.5 117.5a24.935 24.935 0 0 1-.5 7c-1.947 1.563-3.114 3.563-3.5 6v2l-4 2a62.913 62.913 0 0 1 4-8c-1.189-.929-2.522-1.262-4-1a8.43 8.43 0 0 1-.5 4 62.45 62.45 0 0 0-6.5 8 100.262 100.262 0 0 0-2 5.5c-3.43.638-4.763-.862-4-4.5.904.709 1.237 1.709 1 3h3v-3a564.888 564.888 0 0 0 7.5-10 8.43 8.43 0 0 0 .5-4c3.23-.061 5.063-1.728 5.5-5 .816-1.323 1.983-1.989 3.5-2z"/><path style="opacity:1" fill="#621b03" d="M254.5 128.5c-.282 1.278-.949 2.278-2 3-1.436 1.819-3.103 2.152-5 1 2.123-1.81 4.457-3.143 7-4z"/><path style="opacity:1" fill="#bf8d25" d="M116.5 120.5h5v4h5c.06 2.841.726 5.507 2 8-.958.453-1.792 1.119-2.5 2a24.935 24.935 0 0 0-.5 7c-.215 1.679.452 2.679 2 3-1.068.934-2.401 1.268-4 1a31.337 31.337 0 0 0 .5-12c-.671.752-1.504 1.086-2.5 1a8.941 8.941 0 0 1-3 4c-.375-2.198-1.042-4.198-2-6 .343-1.983-.324-3.317-2-4 .891-.761 1.558-1.761 2-3-.247-1.213-.914-1.88-2-2v-1c1.333 0 2-.667 2-2z"/><path style="opacity:1" fill="#240558" d="M84.5 128.5c2.836.337 3.502 1.671 2 4h-1c-.667 0-1 .333-1 1-1.333 0-2-.667-2-2v-1c1.333 0 2-.667 2-2z"/><path style="opacity:1" fill="#6f4a56" d="M121.5 134.5h-3v-3h3v3z"/><path style="opacity:1" fill="#a36602" d="M153.5 128.5h2v1c-.843 1.987-1.51 4.154-2 6.5.336 1.03 1.003 1.53 2 1.5-.683 1.676-2.017 2.343-4 2-.49-3.987.176-7.654 2-11z"/><path style="opacity:1" fill="#742d05" d="M179.5 125.5v3c-.671 3.486.329 6.153 3 8h-7v-12c1.459-.067 2.792.266 4 1z"/><path style="opacity:1" fill="#2c0f7e" d="M155.5 129.5h3a20.69 20.69 0 0 1-1 5c.172.992-.162 1.658-1 2-.968-2.107-1.302-4.441-1-7z"/><path style="opacity:1" fill="#431c03" d="M105.5 128.5c-.204 2.185-.87 4.185-2 6h-4c-1.333 0-2-.667-2-2h4c-.333-3 1-4.333 4-4z"/><path style="opacity:1" fill="#250402" d="M82.5 131.5c0 1.333.667 2 2 2-1.051.722-1.718 1.722-2 3a9.86 9.86 0 0 1-6-1 22.522 22.522 0 0 0 3-4c1.027 1.291 2.027 1.291 3 0z"/><path style="opacity:1" fill="#925a1e" d="M114.5 128.5c.135 2.917-.532 5.584-2 8-1.984-.117-3.65.55-5 2-1.154-3.026-.154-5.026 3-6a20.238 20.238 0 0 0 4-4z"/><path style="opacity:1" fill="#2e0f76" d="M114.5 128.5c1.676.683 2.343 2.017 2 4v6h-4v-2c1.468-2.416 2.135-5.083 2-8z"/><path style="opacity:1" fill="#ce9a02" d="M225.5 119.5c-2.377 3.226-3.377 6.893-3 11a24.93 24.93 0 0 1 1 8c-1.316-2.587-1.983-5.587-2-9l1-9a5.576 5.576 0 0 1 3-1z"/><path style="opacity:1" fill="#531702" d="M222.5 130.5c1.235.221 2.235.888 3 2 .464 2.475 1.464 4.475 3 6v3h-3c.237-1.291-.096-2.291-1-3h-1a24.93 24.93 0 0 0-1-8z"/><path style="opacity:1" fill="#674b5c" d="M128.5 132.5c.992-.172 1.658.162 2 1a71.254 71.254 0 0 0 4 2c-2.671 1.966-4.671 4.3-6 7 1.303-2.619.803-4.953-1.5-7-.191 2.208-.691 4.208-1.5 6-.163-2.357.003-4.69.5-7 .708-.881 1.542-1.547 2.5-2z"/><path style="opacity:1" fill="#421b1c" d="M155.5 129.5c-.302 2.559.032 4.893 1 7 0 .667-.333 1-1 1-.997.03-1.664-.47-2-1.5.49-2.346 1.157-4.513 2-6.5z"/><path style="opacity:1" fill="#612803" d="M241.5 132.5a5.576 5.576 0 0 1-1 3 44.093 44.093 0 0 1 3 2c-.709.904-1.709 1.237-3 1 .237 1.291-.096 2.291-1 3-1.844-1.779-2.51-4.112-2-7l4-2z"/><path style="opacity:1" fill="#581e05" d="M85.5 132.5c2.217 1.58 4.884 2.58 8 3-1.753 2.01-2.753 4.343-3 7h-4a88.61 88.61 0 0 1 2-4l-1-2c-1.954 2.547-3.621 2.547-5 0 .282-1.278.949-2.278 2-3 0-.667.333-1 1-1z"/><path style="opacity:1" fill="#2e0100" d="M175.5 136.5h7v2c-2.292-.256-4.459.077-6.5 1a4.934 4.934 0 0 1-.5-3z"/><path style="opacity:1" fill="#431a29" d="M116.5 132.5c.958 1.802 1.625 3.802 2 6h-2v-6z"/><path style="opacity:1" fill="#7f2411" d="M271.5 124.5a8.43 8.43 0 0 1-.5 4c-3.405 1.403-6.238 3.569-8.5 6.5 1.535.496 3.035.33 4.5-.5 1.03.336 1.53 1.003 1.5 2-.961 1.765-1.295 3.765-1 6h-1v-6h-3c-2.386.873-4.386 2.373-6 4.5a4.934 4.934 0 0 0 3 .5c-1.419.951-3.085 1.284-5 1 .02-1.643-.647-2.976-2-4 1.326-1.142 2.326-2.476 3-4 2.36-2.001 5.027-3.668 8-5a8.905 8.905 0 0 0 3-4c1.189-.929 2.522-1.262 4-1z"/><path style="opacity:1" fill="#a8600b" d="M47.5 128.5h3c.304.65.637 1.317 1 2-1.044 1.123-1.71 2.456-2 4-.271 2.421.395 3.087 2 2 1.123 1.044 2.456 1.71 4 2 2.68-1.321 5.346-1.321 8 0v2a100.173 100.173 0 0 1-14-1.5 522.326 522.326 0 0 1-2-10.5z"/><path style="opacity:1" fill="#c69400" d="M211.5 134.5c1.91 1.475 3.076 3.475 3.5 6 2.556.719 3.723 2.386 3.5 5a11.743 11.743 0 0 0-5-3c-.194-2.83-.861-5.496-2-8z"/><path style="opacity:1" fill="#deb105" d="M105.5 128.5c.79 1.109 1.29 2.442 1.5 4 1.292-1.291 2.458-1.291 3.5 0-3.154.974-4.154 2.974-3 6 1.35-1.45 3.016-2.117 5-2v5h4v-3h2c-.48 4.054-2.813 6.054-7 6 .363.683.696 1.35 1 2-3.135.048-4.802 1.715-5 5-1.103-2.454-.77-4.787 1-7a14.753 14.753 0 0 0-4-5c-1.365 2.36-3.365 4.027-6 5-2.12-1.372-3.12-.705-3 2h-1c-.104-2.59.563-4.923 2-7l-1-2c-1.054 2.388-2.721 4.055-5 5 .247-2.657 1.247-4.99 3-7-3.116-.42-5.783-1.42-8-3h1l4-1c-.11.617-.444 1.117-1 1.5 2.72.602 5.387.435 8-.5 0 1.333.667 2 2 2-.823 1.955-.99 3.955-.5 6 2.655-1.126 4.155-3.126 4.5-6 1.13-1.815 1.796-3.815 2-6z"/><path style="opacity:1" fill="#8c5201" d="M99.5 134.5h4c-.345 2.874-1.845 4.874-4.5 6-.49-2.045-.323-4.045.5-6z"/><path style="opacity:1" fill="#270f8a" d="M128.5 142.5c-.838.342-1.172 1.008-1 2-1.548-.321-2.215-1.321-2-3 .809-1.792 1.309-3.792 1.5-6 2.303 2.047 2.803 4.381 1.5 7z"/><path style="opacity:1" fill="#b48318" d="M130.5 133.5c2.477-.449 4.477.217 6 2-2.084 2.345-3.417 5.011-4 8-1.792-.134-3.458.199-5 1-.172-.992.162-1.658 1-2 1.329-2.7 3.329-5.034 6-7a71.254 71.254 0 0 1-4-2z"/><path style="opacity:1" fill="#aa752e" d="M166.5 142.5c-.617-.111-1.117-.444-1.5-1-.198 1.882-.698 3.548-1.5 5v-11h3v7z"/><path style="opacity:1" fill="#b6311e" d="M256.5 134.5c-.674 1.524-1.674 2.858-3 4 1.353 1.024 2.02 2.357 2 4 1.915.284 3.581-.049 5-1 .342-.838 1.008-1.172 2-1 1.105 1.1 2.438 1.767 4 2h1c1.447.634 2.113 1.801 2 3.5-1.94 6.321-6.274 9.821-13 10.5.067 1.459-.266 2.792-1 4h-1a11.743 11.743 0 0 0-5 3 71.254 71.254 0 0 0-4-2c-.989-2.086-2.322-3.753-4-5v-6c1.988-2.628 3.988-5.295 6-8h5c.268-1.599-.066-2.932-1-4 1.079-2.043 2.746-3.376 5-4z"/><path style="opacity:1" fill="#1f0006" d="m263.5 136.5-1 4c-.992-.172-1.658.162-2 1a4.934 4.934 0 0 1-3-.5c1.614-2.127 3.614-3.627 6-4.5z"/><path style="opacity:1" fill="#28035e" d="M263.5 136.5h3v6c-1.562-.233-2.895-.9-4-2l1-4z"/><path style="opacity:1" fill="#c07a14" d="M38.5 129.5a82.906 82.906 0 0 1-1 12 41.732 41.732 0 0 1-9 1c2.04-1.442 4.373-2.442 7-3 .396-3.763 1.396-7.097 3-10z"/><path style="opacity:1" fill="#7c4310" d="M112.5 138.5h4v3h-4v-3z"/><path style="opacity:1" fill="#a26c20" d="M144.5 144.5c.314 3.693-1.352 6.027-5 7-1.333-5.333-1.333-10.667 0-16 .504 2.842 2.171 4.175 5 4v-3c1.478-.262 2.811.071 4 1a49.497 49.497 0 0 1-4 7z"/><path style="opacity:1" fill="#e7bc11" d="M153.5 128.5c-1.824 3.346-2.49 7.013-2 11 1.983.343 3.317-.324 4-2 .667 0 1-.333 1-1 .838-.342 1.172-1.008 1-2h1c.253 2.327-.414 4.327-2 6 1.189.929 2.522 1.262 4 1-.262 1.478.071 2.811 1 4a62.744 62.744 0 0 0 1.5-11c1.333-1.333 2.667-1.333 4 0 .497 2.646.664 5.313.5 8h-1v-7h-3v11c-2.386.241-4.386-.425-6-2-1.123-1.257-1.789-.924-2 1a78.508 78.508 0 0 0-4 11c-1.333 0-2-.667-2-2v-4c.996-.086 1.829.248 2.5 1a31.827 31.827 0 0 1 2.5-9c-1.189-.929-2.522-1.262-4-1a72.367 72.367 0 0 1 .5-12c.671-.752 1.504-1.086 2.5-1z"/><path style="opacity:1" fill="#591202" d="M271.5 138.5c3.725.28 4.892 2.28 3.5 6-.383-.556-.883-.889-1.5-1a16.339 16.339 0 0 1-2-5z"/><path style="opacity:1" fill="#fae00c" d="M47.5 128.5c.63 3.504 1.297 7.004 2 10.5 4.637.829 9.304 1.329 14 1.5 3.13 1.523 6.463 2.189 10 2 4.38 2.489 8.714 2.489 13 0h4c2.279-.945 3.946-2.612 5-5l1 2c-1.437 2.077-2.104 4.41-2 7-1.442 1.32-2.109 2.986-2 5h3c2.98-2.552 5.98-5.219 9-8 1.083.865 1.249 1.865.5 3a459.027 459.027 0 0 0-5.5 10h-3v3a73.312 73.312 0 0 0-12 1c-.767-.672-1.434-1.505-2-2.5a41.047 41.047 0 0 0-13-1.5 28.527 28.527 0 0 0-3 7h-7c.31-3.213-.023-6.213-1-9-6.333-1-9 1.667-8 8-1.925 3.508-4.925 4.841-9 4-1.52-4.07-2.52-8.404-3-13-4.696-.322-9.363-.655-14-1v-8c.967-1.306 2.3-1.973 4-2a41.732 41.732 0 0 0 9-1c.63-4.049.964-8.049 1-12 0-.667.333-1 1-1 2.578-.754 5.244-.754 8 0z"/><path style="opacity:1" fill="#7e2d08" d="M63.5 138.5c4.151-.401 7.484.933 10 4-3.537.189-6.87-.477-10-2v-2z"/><path style="opacity:1" fill="#885b01" d="M237.5 134.5c-.51 2.888.156 5.221 2 7-1.468 1.279-2.135 2.946-2 5h-4c2.152-3.693 3.486-7.693 4-12z"/><path style="opacity:1" fill="#4f1203" d="M251.5 138.5c.934 1.068 1.268 2.401 1 4h-5c.394-2.21 1.727-3.543 4-4z"/><path style="opacity:1" fill="#c07d03" d="M86.5 142.5c-4.286 2.489-8.62 2.489-13 0 4.168-.333 8.501-.333 13 0z"/><path style="opacity:1" fill="#5e1a02" d="M247.5 142.5a1234.533 1234.533 0 0 1-6 8c-.236-2.726.597-5.059 2.5-7 1.011-.837 2.178-1.17 3.5-1z"/><path style="opacity:1" fill="#3d1603" d="M94.5 146.5h1c1.175-.219 2.175.114 3 1a494.818 494.818 0 0 0-3 4h-3c-.109-2.014.558-3.68 2-5z"/><path style="opacity:1" fill="#462757" d="M144.5 144.5c-.641 1.542-1.641 2.876-3 4-1.364-2.874-.697-5.207 2-7 .886.825 1.219 1.825 1 3z"/><path style="opacity:1" fill="#461602" d="M157.5 144.5a9.86 9.86 0 0 1-1 6c-.952-1.545-1.285-3.212-1-5 .211-1.924.877-2.257 2-1z"/><path style="opacity:1" fill="#250500" d="M175.5 146.5h4v5c1.175-.219 2.175.114 3 1-1.493.641-2.493 1.641-3 3a8.43 8.43 0 0 1-4-.5c.327-2.685.327-5.518 0-8.5z"/><path style="opacity:1" fill="#2f0480" d="M24.5 144.5v8a57.398 57.398 0 0 1-9 2 32.438 32.438 0 0 1 .5-8 22.566 22.566 0 0 0 7-4c1.03.336 1.53 1.003 1.5 2z"/><path style="opacity:1" fill="#9c6204" d="M112.5 146.5c0 1.333.667 2 2 2 .423 2.281-.244 3.948-2 5-2.696-1.069-4.696-.069-6 3a19.49 19.49 0 0 1-7 3v-3a459.027 459.027 0 0 1 5.5-10c.749-1.135.583-2.135-.5-3a333.668 333.668 0 0 1-9 8 494.818 494.818 0 0 1 3-4c-.825-.886-1.825-1.219-3-1-.12-2.705.88-3.372 3-2 2.635-.973 4.635-2.64 6-5a14.753 14.753 0 0 1 4 5c-1.77 2.213-2.103 4.546-1 7 .198-3.285 1.865-4.952 5-5z"/><path style="opacity:1" fill="#b97d13" d="M166.5 142.5h1a278.773 278.773 0 0 1 3.5 8c1.011.837 2.178 1.17 3.5 1-1.051.722-1.718 1.722-2 3-1.235-.221-2.235-.888-3-2-.607.124-.94.457-1 1-1.195-.366-1.861-1.199-2-2.5.81-2.783.81-5.617 0-8.5z"/><path style="opacity:1" fill="#6b2405" d="M213.5 142.5a11.743 11.743 0 0 1 5 3c.645 1.312 1.645 2.312 3 3 .929 1.189 1.262 2.522 1 4-1.643.02-2.976-.647-4-2a57.664 57.664 0 0 0-5-8z"/><path style="opacity:1" fill="#bb770b" d="M149.5 150.5v4h-1c-1.205-1.186-2.539-1.186-4 0 .246-2.97 1.912-4.303 5-4z"/><path style="opacity:1" fill="#4d256d" d="M166.5 142.5c.81 2.883.81 5.717 0 8.5.139 1.301.805 2.134 2 2.5a23.142 23.142 0 0 1 2 8h-3c.237-1.291-.096-2.291-1-3 .172-.992-.162-1.658-1-2-1.547-1.268-2.547-2.935-3-5 .17-1.322-.163-2.489-1-3.5.916-.278 1.582-.778 2-1.5.802-1.452 1.302-3.118 1.5-5 .383.556.883.889 1.5 1z"/><path style="opacity:1" fill="#8c4a02" d="M174.5 136.5h1a4.934 4.934 0 0 0 .5 3c2.041-.923 4.208-1.256 6.5-1-2.28 1.723-4.947 2.389-8 2-.175 2.121.159 4.121 1 6 .327 2.982.327 5.815 0 8.5a8.43 8.43 0 0 0 4 .5c-1.419.951-3.085 1.284-5 1-.333-1-1-1.667-2-2 .282-1.278.949-2.278 2-3-1.032-5.159-1.032-10.159 0-15z"/><path style="opacity:1" fill="#d7a70c" d="M162.5 151.5c.453 2.065 1.453 3.732 3 5 .03.997-.47 1.664-1.5 2a604.676 604.676 0 0 0-3.5-3l-2 5a135.594 135.594 0 0 0-3-7.5c.637-1.713 1.637-1.879 3-.5l2-3a31.147 31.147 0 0 0 2 2z"/><path style="opacity:1" fill="#f9da0d" d="M112.5 153.5a272.002 272.002 0 0 1-2 6 39.533 39.533 0 0 0 1 5c.247 1.213.914 1.88 2 2 1.675 1.956 1.342 3.289-1 4l-3-2c-.709-.904-1.709-1.237-3-1v-3h-4c.17-1.322-.163-2.489-1-3.5 2.16-.996 3.827-2.496 5-4.5 1.304-3.069 3.304-4.069 6-3z"/><path style="opacity:1" fill="#dfae07" d="M268.5 136.5c1.527-.073 2.527.594 3 2a16.339 16.339 0 0 0 2 5c.336 3.667-.497 7-2.5 10a25.406 25.406 0 0 0-8.5 6c.03-.997-.47-1.664-1.5-2a30.728 30.728 0 0 0-5.5 3c.734-1.208 1.067-2.541 1-4 6.726-.679 11.06-4.179 13-10.5.113-1.699-.553-2.866-2-3.5-.295-2.235.039-4.235 1-6z"/><path style="opacity:1" fill="#61405e" d="M148.5 154.5h1c0 1.333.667 2 2 2 2.342.711 2.675 2.044 1 4-.934 1.068-1.268 2.401-1 4-1.517-.011-2.684-.677-3.5-2-.383.556-.883.889-1.5 1 .203-1.544.87-2.878 2-4l-2-4c.457-.798 1.124-1.131 2-1z"/><path style="opacity:1" fill="#a6650d" d="M157.5 144.5c1.614 1.575 3.614 2.241 6 2-.418.722-1.084 1.222-2 1.5.837 1.011 1.17 2.178 1 3.5a31.147 31.147 0 0 1-2-2l-2 3c-1.363-1.379-2.363-1.213-3 .5a135.594 135.594 0 0 1 3 7.5l2-5c1.165.991 2.332 1.991 3.5 3 1.03-.336 1.53-1.003 1.5-2 .838.342 1.172 1.008 1 2a13.227 13.227 0 0 1-2 5 18.473 18.473 0 0 1-3.5-2 32.462 32.462 0 0 0-.5 8h-3v-5c-.212-1.884-1.212-3.217-3-4a624.355 624.355 0 0 1-2 10v-10c1.675-1.956 1.342-3.289-1-4a78.508 78.508 0 0 1 4-11c-.285 1.788.048 3.455 1 5a9.86 9.86 0 0 0 1-6z"/><path style="opacity:1" fill="#fde309" d="M172.5 154.5c1 .333 1.667 1 2 2 4.178.906 8.512 1.74 13 2.5 3.401 4.586 7.735 7.752 13 9.5h2c5.224 3.551 9.891 7.884 14 13a16.076 16.076 0 0 0 5 2c-25.979 1.991-52.312 2.658-79 2-1.1-1.105-1.767-2.438-2-4a14.093 14.093 0 0 0-1-3.5 34.307 34.307 0 0 0 3-7.5 7.248 7.248 0 0 1 2.5 2c-.937 5.58 1.23 7.746 6.5 6.5 2.106-4.222 3.273-8.722 3.5-13.5.671-.752 1.504-1.086 2.5-1v5h3a32.462 32.462 0 0 1 .5-8 18.473 18.473 0 0 0 3.5 2c1.53 1.846 3.53 2.846 6 3v-5a23.142 23.142 0 0 0-2-8c.06-.543.393-.876 1-1 .765 1.112 1.765 1.779 3 2z"/><path style="opacity:1" fill="#e3b805" d="M271.5 95.5c.707 1.634 1.873 2.968 3.5 4a8.43 8.43 0 0 1 .5 4v13c-.233 1.562-.9 2.895-2 4-1.604.787-2.271 2.12-2 4-1.478-.262-2.811.071-4 1a8.905 8.905 0 0 1-3 4c-2.973 1.332-5.64 2.999-8 5-2.254.624-3.921 1.957-5 4-2.273.457-3.606 1.79-4 4-1.322-.17-2.489.163-3.5 1-1.903 1.941-2.736 4.274-2.5 7v6a8.43 8.43 0 0 0 .5 4 19.552 19.552 0 0 1 3.5 4c-2.161-.326-3.994-1.326-5.5-3-2.207-5.889-1.707-11.556 1.5-17-.825-.886-1.825-1.219-3-1 .237 1.291-.096 2.291-1 3-.135-2.054.532-3.721 2-5 .904-.709 1.237-1.709 1-3 1.291.237 2.291-.096 3-1a57.809 57.809 0 0 1 8-3.5c.752-.671 1.086-1.504 1-2.5 1.051-.722 1.718-1.722 2-3h2a62.8 62.8 0 0 1 8-4.5c1.64-3.329 3.807-6.162 6.5-8.5.499-3.986.666-7.986.5-12 .666 4.184 1.333 8.518 2 13a40.922 40.922 0 0 0 0-17h-3v3l-4-4v-3h5z"/><path style="opacity:1" fill="#844519" d="M148.5 154.5c-.876-.131-1.543.202-2 1l2 4c-1.13 1.122-1.797 2.456-2 4v5a17.477 17.477 0 0 0-3-7c-.438 2.795-1.438 5.128-3 7v-10h-3c.284 1.915-.049 3.581-1 5v-7c3.013.393 5.68-.274 8-2 1.461-1.186 2.795-1.186 4 0z"/><path style="opacity:1" fill="#9b4a0d" d="M58.5 154.5v9c-.973-2.448-1.306-5.115-1-8h-3a4.932 4.932 0 0 1-.5 3c-2.969 1.103-3.136 2.436-.5 4-.124.607-.457.94-1 1-.342-.838-1.008-1.172-2-1-1-6.333 1.667-9 8-8z"/><path style="opacity:1" fill="#bc8023" d="M58.5 154.5c.977 2.787 1.31 5.787 1 9h7a28.527 28.527 0 0 1 3-7 41.047 41.047 0 0 1 13 1.5c.566.995 1.233 1.828 2 2.5l2 2c-1.983.343-3.317-.324-4-2-3.054-1.674-6.388-2.174-10-1.5 1.537 1.11 2.204 2.61 2 4.5h5c.709.904 1.709 1.237 3 1 .237 1.291-.096 2.291-1 3h-2c-1.411-2.039-3.411-3.039-6-3-1.187-2.475-3.187-3.475-6-3-.027 1.699-.694 3.033-2 4h-2c-2.198.38-3.865-.287-5-2v-9z"/><path style="opacity:1" fill="#573768" d="M82.5 160.5c-3.067-.379-4.067.621-3 3h-5c.204-1.89-.463-3.39-2-4.5 3.612-.674 6.946-.174 10 1.5z"/><path style="opacity:1" fill="#542525" d="M166.5 158.5c.904.709 1.237 1.709 1 3h3v1a19.22 19.22 0 0 1-6 1 13.227 13.227 0 0 0 2-5z"/><path style="opacity:1" fill="#541b02" d="M241.5 156.5c1.678 1.247 3.011 2.914 4 5a71.254 71.254 0 0 1 4 2c-1.068.934-2.401 1.268-4 1a19.552 19.552 0 0 0-3.5-4 8.43 8.43 0 0 1-.5-4z"/><path style="opacity:1" fill="#cc9f20" d="M99.5 156.5v3a19.49 19.49 0 0 0 7-3c-1.173 2.004-2.84 3.504-5 4.5.837 1.011 1.17 2.178 1 3.5h4v3a31.894 31.894 0 0 0-6-1.5c.054-1.351-.446-2.518-1.5-3.5-1.03.336-1.53 1.003-1.5 2-1.478-.948-2.478-2.281-3-4h-3a9.818 9.818 0 0 1-3 4l-2-2-2-2a73.312 73.312 0 0 1 12-1v-3h3z"/><path style="opacity:1" fill="#deb003" d="M179.5 155.5c2.716.178 5.383.678 8 1.5 1.872 2.944 4.539 4.111 8 3.5v3c2.285.979 3.952 2.645 5 5-5.265-1.748-9.599-4.914-13-9.5a289.279 289.279 0 0 1-13-2.5c1.915.284 3.581-.049 5-1z"/><path style="opacity:1" fill="#b57803" d="M114.5 148.5c.968 2.107 1.302 4.441 1 7 1.643.02 2.976-.647 4-2 .399 2.922.566 5.922.5 9l5 2c-.07 3.492.763 6.492 2.5 9-.566 1.578-1.566 2.912-3 4l-2-11a71.254 71.254 0 0 1-2 4 9.86 9.86 0 0 0-1-6c-1.679 1.604-3.679 2.271-6 2-1.086-.12-1.753-.787-2-2a39.533 39.533 0 0 1-1-5 272.002 272.002 0 0 0 2-6c1.756-1.052 2.423-2.719 2-5z"/><path style="opacity:1" fill="#783905" d="M118.5 158.5h-5a4.934 4.934 0 0 0 .5 3c1.414-.913 2.914-.913 4.5 0-1.208 2.544-3.208 3.878-6 4v-8c2.235-.295 4.235.039 6 1z"/><path style="opacity:1" fill="#170100" d="M118.5 158.5v3c-1.586-.913-3.086-.913-4.5 0a4.934 4.934 0 0 1-.5-3h5z"/><path style="opacity:1" fill="#852b17" d="M73.5 164.5c-1.542.801-3.209 1.134-5 1 .302 2.559-.032 4.893-1 7 .51-2.888-.156-5.221-2-7 1.306-.967 1.973-2.301 2-4 2.813-.475 4.813.525 6 3z"/><path style="opacity:1" fill="#985804" d="M170.5 162.5v4c-2.47-.154-4.47-1.154-6-3a19.22 19.22 0 0 0 6-1z"/><path style="opacity:1" fill="#623c2b" d="m86.5 162.5 2 2a13.216 13.216 0 0 1-2 5h-2l2-7z"/><path style="opacity:1" fill="#39167a" d="M140.5 168.5c-.958 1.802-1.625 3.802-2 6v1c-2.412-.194-3.412-1.527-3-4a41.541 41.541 0 0 0 1-8c.951-1.419 1.284-3.085 1-5h3v10z"/><path style="opacity:1" fill="#743504" d="M202.5 168.5h-2c-1.048-2.355-2.715-4.021-5-5 4.181-1.067 6.515.599 7 5z"/><path style="opacity:1" fill="#6c2a05" d="M233.5 162.5c3.018 1.355 4.351 3.688 4 7h-3c-.126-1.7-.793-3.2-2-4.5.243-.902.577-1.735 1-2.5z"/><path style="opacity:1" fill="#d29803" d="M254.5 160.5c-1.504 2.336-3.504 4.169-6 5.5-1.657.725-2.657.225-3-1.5 1.599.268 2.932-.066 4-1a11.743 11.743 0 0 1 5-3z"/><path style="opacity:1" fill="#4e0a59" d="M50.5 162.5c.992-.172 1.658.162 2 1 .744 3.45-.59 5.116-4 5 .157 3.103.99 5.769 2.5 8-3.262 3.006-5.762 2.673-7.5-1 .982.641 1.982 1.307 3 2a21.12 21.12 0 0 0 1-9 20.223 20.223 0 0 1-5-1c-2.303.376-2.637 1.376-1 3-1.086-.12-1.753-.787-2-2 .247-1.213.914-1.88 2-2 4.075.841 7.075-.492 9-4z"/><path style="opacity:1" fill="#270d75" d="M82.5 160.5c.683 1.676 2.017 2.343 4 2l-2 7c-.342.838-1.008 1.172-2 1-.904-.709-1.237-1.709-1-3 .904-.709 1.237-1.709 1-3-1.291.237-2.291-.096-3-1-1.067-2.379-.067-3.379 3-3z"/><path style="opacity:1" fill="#553361" d="M91.5 160.5v4h3v-4c.522 1.719 1.522 3.052 3 4 .15 5.114-.85 5.781-3 2-3.165-1.212-4.832.121-5 4-1.291.237-2.291-.096-3-1a13.216 13.216 0 0 0 2-5 9.818 9.818 0 0 0 3-4z"/><path style="opacity:1" fill="#37157c" d="M91.5 160.5h3v4h-3v-4z"/><path style="opacity:1" fill="#ce9b07" d="M120.5 170.5a13.227 13.227 0 0 1-2 5c-.333 1-1 1.667-2 2-.438-2.138-.605-4.472-.5-7-.816 1.323-1.983 1.989-3.5 2v-2c2.342-.711 2.675-2.044 1-4 2.321.271 4.321-.396 6-2a9.86 9.86 0 0 1 1 6z"/><path style="opacity:1" fill="#661604" d="M259.5 163.5c1.321 2.735.321 4.402-3 5-.227-2.433.773-4.099 3-5z"/><path style="opacity:1" fill="#cfa219" d="M136.5 156.5v7a41.541 41.541 0 0 1-1 8h-1c-.65.304-1.317.637-2 1a31.116 31.116 0 0 1-1-11c.802 1.452 1.302 3.118 1.5 5 1.794-3.209 2.961-6.542 3.5-10z"/><path style="opacity:1" fill="#dcb417" d="M94.5 166.5a51.648 51.648 0 0 1-1 7v4h-2c-1.478.262-2.811-.071-4-1 1.247-1.823 1.914-3.823 2-6 .168-3.879 1.835-5.212 5-4z"/><path style="opacity:1" fill="#461f5b" d="m109.5 168.5 3 2v3c-.342.838-1.008 1.172-2 1-.287-1.621-1.287-2.621-3-3-.798.457-1.131 1.124-1 2-1.291.237-2.291-.096-3-1 .531-3.279 2.531-4.613 6-4z"/><path style="opacity:1" fill="#a86504" d="M131.5 161.5a31.116 31.116 0 0 0 1 11c.683-.363 1.35-.696 2-1v4h-3c-.967-1.306-2.301-1.973-4-2a213.816 213.816 0 0 0 1.5-13c1.516-2.551 2.349-2.218 2.5 1z"/><path style="opacity:1" fill="#10009f" d="M43.5 175.5c-1.468-1.279-2.135-2.946-2-5-1.637-1.624-1.303-2.624 1-3 1.635.546 3.301.88 5 1a21.12 21.12 0 0 1-1 9 184.223 184.223 0 0 0-3-2z"/><path style="opacity:1" fill="#6e230b" d="M79.5 167.5h2c-.237 1.291.096 2.291 1 3v4c-.06.543-.393.876-1 1a29.07 29.07 0 0 1-2-8z"/><path style="opacity:1" fill="#86491c" d="M106.5 167.5c1.291-.237 2.291.096 3 1-3.469-.613-5.469.721-6 4l-2-2h-3c-.656 1.122-.99 2.455-1 4 .085 1.833.752 3.166 2 4-1.765.961-3.765 1.295-6 1l-1-2h4a12.935 12.935 0 0 0-.5-5c-.67.752-1.504 1.086-2.5 1a51.648 51.648 0 0 0 1-7c2.15 3.781 3.15 3.114 3-2-.03-.997.47-1.664 1.5-2 1.054.982 1.554 2.149 1.5 3.5 2.086.315 4.086.815 6 1.5z"/><path style="opacity:1" fill="#623d2c" d="M140.5 168.5c.475 2.582-.192 4.582-2 6 .375-2.198 1.042-4.198 2-6z"/><path style="opacity:1" fill="#440164" d="M63.5 165.5h2c1.844 1.779 2.51 4.112 2 7-.074 1.911-1.074 3.078-3 3.5-2 .667-4 .667-6 0-.638-3.071-.638-6.237 0-9.5h5v-1z"/><path style="opacity:1" fill="#010098" d="M63.5 166.5c1.175-.219 2.175.114 3 1-.748 1.916-.748 3.916 0 6h-7c-.82-3.779.513-6.112 4-7z"/><path style="opacity:1" fill="#5f2706" d="M116.5 177.5c.333 3-1 4.333-4 4v-3c.781 2.128 1.781 2.295 3 .5-.489-2.209-1.489-4.042-3-5.5v-1c1.517-.011 2.684-.677 3.5-2-.105 2.528.062 4.862.5 7z"/><path style="opacity:1" fill="#e6bb07" d="M157.5 164.5c-.996-.086-1.829.248-2.5 1-.227 4.778-1.394 9.278-3.5 13.5-5.27 1.246-7.437-.92-6.5-6.5a7.248 7.248 0 0 0-2.5-2 34.307 34.307 0 0 1-3 7.5 14.093 14.093 0 0 1 1 3.5h-1c-1.756-1.052-2.423-2.719-2-5 .667 0 1-.333 1-1v-1c1.808-1.418 2.475-3.418 2-6 1.562-1.872 2.562-4.205 3-7a17.477 17.477 0 0 1 3 7l2 7h3a20.69 20.69 0 0 1 1-5 624.355 624.355 0 0 0 2-10c1.788.783 2.788 2.116 3 4z"/><path style="opacity:1" fill="#250894" d="M151.5 164.5a9.86 9.86 0 0 1-1 6c-1.122-1.13-2.456-1.797-4-2v-5c.617-.111 1.117-.444 1.5-1 .816 1.323 1.983 1.989 3.5 2z"/><path style="opacity:1" fill="#5b2b13" d="M152.5 160.5v10a20.69 20.69 0 0 0-1 5h-3l-2-7c1.544.203 2.878.87 4 2a9.86 9.86 0 0 0 1-6c-.268-1.599.066-2.932 1-4z"/><path style="opacity:1" fill="#a66413" d="M84.5 169.5h2c.709.904 1.709 1.237 3 1-.086 2.177-.753 4.177-2 6 1.189.929 2.522 1.262 4 1v1c-2.12.175-4.12-.159-6-1v-3h-3v-4c.992.172 1.658-.162 2-1z"/><path style="opacity:1" fill="#230700" d="M93.5 177.5v-4c.996.086 1.83-.248 2.5-1 .493 1.634.66 3.301.5 5h-3z"/><path style="opacity:1" fill="#55220c" d="M134.5 171.5h1c-.412 2.473.588 3.806 3 4 0 .667-.333 1-1 1-.951 1.419-1.284 3.085-1 5h-4c.175-2.121-.159-4.121-1-6h3v-4z"/><path style="opacity:1" fill="#c39211" d="M98.5 170.5a9.864 9.864 0 0 0 1 6c1.783-1.523 2.449-3.523 2-6l2 2c.709.904 1.709 1.237 3 1a31.147 31.147 0 0 0 2 2c-1.301 1.944-2.301 3.944-3 6h-3v-4c-1.291-.237-2.291.096-3 1-1.248-.834-1.915-2.167-2-4 .01-1.545.344-2.878 1-4z"/><path style="opacity:1" fill="#f7d70f" d="M98.5 170.5h3c.449 2.477-.217 4.477-2 6a9.864 9.864 0 0 1-1-6z"/><path style="opacity:1" fill="#661707" d="M127.5 173.5c1.699.027 3.033.694 4 2 .841 1.879 1.175 3.879 1 6h4c-.284-1.915.049-3.581 1-5-.423 2.281.244 3.948 2 5v3c-2.32-1.726-4.987-2.393-8-2v-5l-6 1v4c-1.644.214-3.144-.12-4.5-1-.037-2.474-.87-4.474-2.5-6a13.227 13.227 0 0 0 2-5 71.254 71.254 0 0 0 2-4l2 11c1.434-1.088 2.434-2.422 3-4z"/><path style="opacity:1" fill="#240308" d="M112.5 173.5c1.511 1.458 2.511 3.291 3 5.5-1.219 1.795-2.219 1.628-3-.5-.763-.768-1.763-1.268-3-1.5.752-.671 1.086-1.504 1-2.5.992.172 1.658-.162 2-1z"/><path style="opacity:1" fill="#660f05" d="M85.5 177.5c1.88.841 3.88 1.175 6 1-1.403 1.431-3.07 2.598-5 3.5a8.43 8.43 0 0 1-4 .5c-.227-2.433.773-4.099 3-5z"/><path style="opacity:1" fill="#671505" d="M105.5 181.5c-.692 3.435-2.692 5.435-6 6-.213-1.644.12-3.144 1-4.5a24.935 24.935 0 0 0-7-.5v-3c2.235.295 4.235-.039 6-1 .709-.904 1.709-1.237 3-1v4h3z"/><path style="opacity:1" fill="#dda405" d="M259.5 162.5v1c-2.227.901-3.227 2.567-3 5a15.894 15.894 0 0 1-1 6.5 45.553 45.553 0 0 1 2 12.5h28v1h-27c-5.322.674-10.989 1.34-17 2-5.251-.583-10.418-.583-15.5 0-2.121-.198-3.954-.864-5.5-2-21.917.662-44.25.995-67 1-3.421-1.701-7.087-3.034-11-4 26.688.658 53.021-.009 79-2 .667 0 1 .333 1 1v3c8.15.993 16.483 1.326 25 1 .38-2.198-.287-3.865-2-5-2.372-2.898-3.706-6.232-4-10 .433 2.759 2.1 4.092 5 4 1.139 2.504 1.806 5.17 2 8h7a118.217 118.217 0 0 1-.5-17c-.149-3.34 1.351-5.34 4.5-6z"/><path style="opacity:1" fill="#340700" d="M222.5 184.5c2.605.121 4.605 1.121 6 3h-6v-3z"/><path style="opacity:1" fill="#b56805" d="M245.5 183.5c1.713 1.135 2.38 2.802 2 5-8.517.326-16.85-.007-25-1h23c.14-1.624-.527-2.79-2-3.5a2.428 2.428 0 0 1 2-.5z"/><path style="opacity:1" fill="#c68406" d="M139.5 181.5h1c.233 1.562.9 2.895 2 4 3.913.966 7.579 2.299 11 4h-65c17.523-.77 35.189-1.77 53-3-.355-1.022-1.022-1.689-2-2v-3z"/><path style="opacity:1" fill="#fce209" d="M220.5 188.5c1.546 1.136 3.379 1.802 5.5 2 5.082-.583 10.249-.583 15.5 0 6.011-.66 11.678-1.326 17-2 .291 1.149 1.124 1.816 2.5 2 7.676-.132 15.51-.132 23.5 0v22c-1.605 20.479-7.605 39.479-18 57-.995-10.821-1.328-21.821-1-33 2.292.256 4.459-.077 6.5-1 .168-2.341-.999-3.674-3.5-4h-2a98.557 98.557 0 0 1-14-10c0-.667-.333-1-1-1-2.344-2.497-5.011-4.497-8-6a22.836 22.836 0 0 1-4-3 20.987 20.987 0 0 0-4.5-3 66.87 66.87 0 0 1-5.5 1.5c-.837 1.011-1.17 2.178-1 3.5h-4a19.22 19.22 0 0 1-6 1c.609-3.378-.724-5.378-4-6a10.165 10.165 0 0 1-3-3c-1.71-4.08-4.377-7.413-8-10 .067-1.459-.266-2.792-1-4 6.235-.353 12.235-1.353 18-3z"/><path style="opacity:1" fill="#d1a01f" d="M12.5 188.5a716.533 716.533 0 0 0 53 1v1h-17a386.869 386.869 0 0 0-35 1 418.335 418.335 0 0 0 1 34c-.722-.418-1.222-1.084-1.5-2a612.94 612.94 0 0 1-.5-35z"/><path style="opacity:1" fill="#e7be0b" d="M258.5 188.5h27c.326 8.184-.008 16.184-1 24v-22a697.265 697.265 0 0 0-23.5 0c-1.376-.184-2.209-.851-2.5-2z"/><path style="opacity:1" fill="#fdec16" d="M48.5 190.5c-.93.815-1.93 1.648-3 2.5a4.458 4.458 0 0 1 2 1.5c-.826.951-.992 1.951-.5 3a57.736 57.736 0 0 0 9.5 3.5c-4.37 1.978-5.036 4.811-2 8.5a9.86 9.86 0 0 1-6 1v8a51.56 51.56 0 0 1-7 1c-.338-2.657.329-4.99 2-7l-2-2a9.86 9.86 0 0 1 6-1 21.12 21.12 0 0 0-1-9c-1.456 3.709-4.123 6.043-8 7a80.34 80.34 0 0 0-4-7.5 18.452 18.452 0 0 0-6-.5c-.021 3.035-1.355 5.368-4 7 1.52.38 3.187.546 5 .5-1.247 1.494-1.247 2.994 0 4.5a18.915 18.915 0 0 0 5 3c-1.306 1.412-2.14 3.079-2.5 5-4.004-5.521-6.504-4.855-7.5 2h4a18.437 18.437 0 0 1-.5 6c-.71-1.473-1.876-2.14-3.5-2 .463 4.42 2.13 8.253 5 11.5a11.248 11.248 0 0 1-1 3.5c2.478 3.499 5.811 5.166 10 5 .328 12.178-.005 24.178-1 36-12.063-16.801-19.73-35.467-23-56a418.335 418.335 0 0 1-1-34 386.869 386.869 0 0 1 35-1z"/><path style="opacity:1" fill="#fde50a" d="M48.5 190.5h17c7.008-.166 14.008 0 21 .5l-2 2c1.607 1.049 2.273 2.549 2 4.5h3v7c-1.294 3.281-3.294 5.948-6 8-1.443.835-2.443 2.168-3 4-1.746-2.354-4.08-3.354-7-3v-1c-.64-.982-1.308-1.982-2-3-3.333-1.333-6.667-1.333-10 0a6713.667 6713.667 0 0 1-10 9 200.66 200.66 0 0 0-9 6c-1.545.952-3.212 1.285-5 1 .138 4.193-1.862 6.527-6 7v4c2.292-.256 4.46.077 6.5 1 .497 2.646.664 5.313.5 8-4.189.166-7.522-1.501-10-5a11.248 11.248 0 0 0 1-3.5c-2.87-3.247-4.537-7.08-5-11.5 1.624-.14 2.79.527 3.5 2 .495-1.973.662-3.973.5-6h-4c.996-6.855 3.496-7.521 7.5-2 .36-1.921 1.194-3.588 2.5-5a18.915 18.915 0 0 1-5-3c-1.247-1.506-1.247-3.006 0-4.5-1.813.046-3.48-.12-5-.5 2.645-1.632 3.979-3.965 4-7a18.452 18.452 0 0 1 6 .5 80.34 80.34 0 0 1 4 7.5c3.877-.957 6.544-3.291 8-7a21.12 21.12 0 0 1 1 9 9.86 9.86 0 0 0-6 1l2 2c-1.671 2.01-2.338 4.343-2 7a51.56 51.56 0 0 0 7-1v-8a9.86 9.86 0 0 0 6-1c-3.036-3.689-2.37-6.522 2-8.5a57.736 57.736 0 0 1-9.5-3.5c-.492-1.049-.326-2.049.5-3a4.458 4.458 0 0 0-2-1.5 81.819 81.819 0 0 0 3-2.5z"/><path style="opacity:1" fill="#f1cd06" d="M220.5 188.5c-5.765 1.647-11.765 2.647-18 3-34.668-.167-69.335 0-104 .5-.752.671-1.086 1.504-1 2.5a1686.9 1686.9 0 0 0-8 10v-7h-3c.273-1.951-.393-3.451-2-4.5l2-2c-6.992-.5-13.992-.666-21-.5v-1h88c22.75-.005 45.083-.338 67-1z"/><path style="opacity:1" fill="#754f00" d="M202.5 191.5c.734 1.208 1.067 2.541 1 4l-2-2a1737.33 1737.33 0 0 0-102-.5c-.544.717-1.21 1.217-2 1.5-.086-.996.248-1.829 1-2.5 34.665-.5 69.332-.667 104-.5z"/><path style="opacity:1" fill="#1e0901" d="M201.5 193.5c0 1.333-.667 2-2 2-.789-.283-1.456-.783-2-1.5l-26.5-.5a891.138 891.138 0 0 1-68.5.5l-8.5 8.5c-1.418 3.84-3.585 7.174-6.5 10-.934 1.068-1.268 2.401-1 4h-3v-4c2.706-2.052 4.706-4.719 6-8a1686.9 1686.9 0 0 1 8-10c.79-.283 1.456-.783 2-1.5a1737.33 1737.33 0 0 1 102 .5z"/><path style="opacity:1" fill="#bf2f21" d="M199.5 195.5c.709.904 1.709 1.237 3 1a4.934 4.934 0 0 0 .5 3 25.038 25.038 0 0 1 7.5 7c.607-.124.94-.457 1-1a10.165 10.165 0 0 0 3 3l1 2c-1.548.321-2.215 1.321-2 3-42.17.332-84.17-.001-126-1 2.915-2.826 5.082-6.16 6.5-10l8.5-8.5c22.829.711 45.663.545 68.5-.5l26.5.5c.544.717 1.211 1.217 2 1.5z"/><path style="opacity:1" fill="#582006" d="m201.5 193.5 2 2c3.623 2.587 6.29 5.92 8 10-.06.543-.393.876-1 1a25.038 25.038 0 0 0-7.5-7 4.934 4.934 0 0 1-.5-3c-1.291.237-2.291-.096-3-1 1.333 0 2-.667 2-2z"/><path style="opacity:1" fill="#daa90a" d="M73.5 212.5a5.727 5.727 0 0 1-3-1c-.992-1.526-2.492-2.193-4.5-2-4.824 1.976-8.99 4.976-12.5 9h-2c3.303-2.967 6.637-5.967 10-9 3.333-1.333 6.667-1.333 10 0 .692 1.018 1.36 2.018 2 3z"/><path style="opacity:1" fill="#b47905" d="M214.5 208.5c3.276.622 4.609 2.622 4 6a19.22 19.22 0 0 0 6-1c-.901 2.227-2.567 3.227-5 3-2.13-1.464-3.463-3.464-4-6l-1-2z"/><path style="opacity:1" fill="#601d03" d="M239.5 211.5c.131.876-.202 1.543-1 2-1.693-1.779-3.693-2.279-6-1.5-2.95 2.639-6.283 4.473-10 5.5.268 1.599-.066 2.932-1 4 .108-2.014-.558-3.68-2-5 2.433.227 4.099-.773 5-3h4c-.17-1.322.163-2.489 1-3.5a66.87 66.87 0 0 0 5.5-1.5 20.987 20.987 0 0 1 4.5 3z"/><path style="opacity:1" fill="#350400" d="M215.5 210.5c.537 2.536 1.87 4.536 4 6 1.442 1.32 2.108 2.986 2 5h-3a514.367 514.367 0 0 0-4 3l-1-1.5a25.936 25.936 0 0 0 4-4.5 42.81 42.81 0 0 1-8-3 338.584 338.584 0 0 0-52 0 240.123 240.123 0 0 1-24 1c-4.23-1.495-8.397-1.162-12.5 1a13.487 13.487 0 0 0-4-2c-1.376.184-2.209.851-2.5 2-1.992.172-3.658-.495-5-2-.607.124-.94.457-1 1-7.611-1.196-14.944-1.196-22 0-.268-1.599.066-2.932 1-4 41.83.999 83.83 1.332 126 1-.215-1.679.452-2.679 2-3z"/><path style="opacity:1" fill="#220200" d="M209.5 215.5c-2.562 1.222-5.395 1.889-8.5 2-3.657-.488-7.157-.488-10.5 0a6.895 6.895 0 0 1-4-2 5.576 5.576 0 0 1-3 1c-8.509-.824-17.176-.824-26 0v-1a338.584 338.584 0 0 1 52 0z"/><path style="opacity:1" fill="#9e7603" d="M83.5 212.5v1l-2 4a28.327 28.327 0 0 1-8-4c2.92-.354 5.254.646 7 3 .557-1.832 1.557-3.165 3-4z"/><path style="opacity:1" fill="#710906" d="M183.5 216.5c-8.795 1.288-17.462 1.288-26 0 8.824-.824 17.491-.824 26 0z"/><path style="opacity:1" fill="#972714" d="M70.5 211.5c-1.879-.107-2.212.393-1 1.5a136.85 136.85 0 0 0 21 15.5 13.216 13.216 0 0 1 2 5 12.93 12.93 0 0 0-5 .5c2.096.737 3.763 1.903 5 3.5v1c-5.663-3.995-11.33-7.995-17-12 1.725-.343 2.225-1.343 1.5-3-2.652-3.69-6.152-6.023-10.5-7-5.662 2.618-10.329 6.285-14 11-1.332 2.83-3.499 4.83-6.5 6a16.815 16.815 0 0 0-6.5-2 1671.05 1671.05 0 0 0 13-10c.886-.825 1.219-1.825 1-3 3.51-4.024 7.676-7.024 12.5-9 2.008-.193 3.508.474 4.5 2z"/><path style="opacity:1" fill="#8b190d" d="M83.5 213.5v3h3c7.056-1.196 14.389-1.196 22 0-7.541 1.336-15.207 1.836-23 1.5-.457.414-.79.914-1 1.5a29.126 29.126 0 0 1 5 2.5c-.752.671-1.086 1.504-1 2.5-3.043-1.676-5.377-4.009-7-7l2-4z"/><path style="opacity:1" fill="#641707" d="M243.5 214.5c2.989 1.503 5.656 3.503 8 6-1.068.934-2.401 1.268-4 1v-3a12.93 12.93 0 0 1-5-.5c-1.485-1.756-1.152-2.923 1-3.5z"/><path style="opacity:1" fill="#a62013" d="M157.5 215.5v1c8.538 1.288 17.205 1.288 26 0-.233 1.562-.9 2.895-2 4-2.787.977-5.787 1.31-9 1-.12-1.086-.787-1.753-2-2l-2 1c1.879 5.1 2.546 10.433 2 16-.986-4.47-1.319-9.137-1-14a1833.332 1833.332 0 0 0-33 0c-2.333-.333-2.667-1.333-1-3-1.112-.765-1.779-1.765-2-3 7.845.074 15.845-.259 24-1z"/><path style="opacity:1" fill="#8d140c" d="M209.5 215.5a42.81 42.81 0 0 0 8 3 25.936 25.936 0 0 1-4 4.5l1 1.5a514.367 514.367 0 0 1 4-3 2.428 2.428 0 0 1-.5 2 78.453 78.453 0 0 0-5.5 4c-.798-.457-1.131-1.124-1-2 .304-.65.637-1.317 1-2a121.862 121.862 0 0 0-22-1c.321 5.195-.013 10.195-1 15v-1c-.546-5.567.121-10.9 2-16-3.108 1.115-6.441 1.115-10 0 1.1-1.105 1.767-2.438 2-4a5.576 5.576 0 0 0 3-1 6.895 6.895 0 0 0 4 2c3.343-.488 6.843-.488 10.5 0 3.105-.111 5.938-.778 8.5-2z"/><path style="opacity:1" fill="#c23123" d="M238.5 221.5c.709.904 1.709 1.237 3 1a49.074 49.074 0 0 0 13 10c1.685 2.318 4.019 3.318 7 3 .167 14.337 0 28.671-.5 43-9.709 13.876-21.542 25.543-35.5 35-1.033-5.195-3.533-9.528-7.5-13a8.43 8.43 0 0 1-.5-4c-1.644.214-3.144-.12-4.5-1-.5-16.997-.667-33.997-.5-51 .821-3.141 1.321-6.475 1.5-10a54.53 54.53 0 0 1 6.5-6 320.25 320.25 0 0 1 14.5-10c1.642.478 2.809 1.478 3.5 3zM75.5 226.5c5.67 4.005 11.337 8.005 17 12 .167 17.337 0 34.67-.5 52-1.171 1.393-2.671 2.227-4.5 2.5-1.634 4.144-4.634 5.977-9 5.5-.109 3.399-1.442 6.066-4 8l-4 7c-11.574-7.239-21.241-16.572-29-28 .055-14.547.055-29.214 0-44 .647-.774.98-1.774 1-3a24.258 24.258 0 0 1-3-7c2.274.215 4.441.882 6.5 2 3.001-1.17 5.168-3.17 6.5-6a8.43 8.43 0 0 0 4-.5 26.08 26.08 0 0 1 9.5-7.5 61.855 61.855 0 0 1 9.5 7z"/><path style="opacity:1" fill="#080000" d="M189.5 236.5h-18c-.321-5.195.013-10.195 1-15 3.213.31 6.213-.023 9-1 3.559 1.115 6.892 1.115 10 0-1.879 5.1-2.546 10.433-2 16z"/><path style="opacity:1" fill="#2d0c02" d="M70.5 211.5c.891.61 1.891.943 3 1v1a28.327 28.327 0 0 0 8 4c1.623 2.991 3.957 5.324 7 7a9.82 9.82 0 0 1 4 3c.091 2.198-.576 2.531-2 1a136.85 136.85 0 0 1-21-15.5c-1.212-1.107-.879-1.607 1-1.5z"/><path style="opacity:1" fill="#c23123" d="M114.5 217.5c2.605-.99 4.938-.323 7 2a13.116 13.116 0 0 1-7 1c-.342-.838-1.008-1.172-2-1h-9v3h8c-.347 5.557.32 10.89 2 16h20a162.597 162.597 0 0 0-.5-18c-11.352-2.382-11.185-3.716.5-4 .221 1.235.888 2.235 2 3-1.667 1.667-1.333 2.667 1 3 10.899-.099 21.899-.099 33 0-.319 4.863.014 9.53 1 14 6.145.99 12.478 1.323 19 1 .987-4.805 1.321-9.805 1-15 7.363-.331 14.697.003 22 1-.363.683-.696 1.35-1 2-1.495.489-2.829 1.155-4 2a44.564 44.564 0 0 1-9 7 3.647 3.647 0 0 0 1 1.5c2.982.498 5.982.665 9 .5-.302 2.559.032 4.893 1 7v49c-4.206.555-7.873-.445-11-3-4.333-1.333-8.667-1.333-13 0-.06.543-.393.876-1 1-.998-2.753-2.831-4.753-5.5-6l-1-4c-2.276-2.595-4.942-4.595-8-6a4.934 4.934 0 0 1-.5-3 41.333 41.333 0 0 1-10-2v-22h-19a82.995 82.995 0 0 1 0 14.5c2.259 2.16 2.259 4.16 0 6a25.959 25.959 0 0 1-9 2.5v5c-3.315.472-5.649 2.305-7 5.5a4.934 4.934 0 0 1-3 .5c.087 3.239-.58 6.239-2 9a99.406 99.406 0 0 0-24-2v-50c.967-1.306 2.3-1.973 4-2a8.435 8.435 0 0 0-.5-4 69.052 69.052 0 0 1-6.5-5 9.82 9.82 0 0 0-4-3c-.086-.996.248-1.829 1-2.5a29.126 29.126 0 0 0-5-2.5 3.646 3.646 0 0 1 1-1.5c7.793.336 15.459-.164 23-1.5.06-.543.393-.876 1-1 1.342 1.505 3.008 2.172 5 2z"/><path style="opacity:1" fill="#2c0a02" d="M75.5 226.5a61.855 61.855 0 0 0-9.5-7 26.08 26.08 0 0 0-9.5 7.5 8.43 8.43 0 0 1-4 .5c3.671-4.715 8.338-8.382 14-11 4.348.977 7.848 3.31 10.5 7 .725 1.657.225 2.657-1.5 3z"/><path style="opacity:1" fill="#6d6d6d" d="M290.5 205.5h1c-.524 12.172-2.857 23.839-7 35a376.234 376.234 0 0 0 6-35z"/><path style="opacity:1" fill="#a92111" d="M239.5 211.5a22.836 22.836 0 0 0 4 3c-2.152.577-2.485 1.744-1 3.5a12.93 12.93 0 0 0 5 .5v3c1.599.268 2.932-.066 4-1 .667 0 1 .333 1 1v5c1.56.019 3.06.352 4.5 1a29.771 29.771 0 0 0 5.5 4c-.12 1.086-.787 1.753-2 2-1.834-1.254-3.834-1.921-6-2a2.428 2.428 0 0 0-.5-2 1783.64 1783.64 0 0 1-8.5-7c-1.458-1.282-2.792-1.282-4 0-1.291.237-2.291-.096-3-1 2.258-.275 2.592-1.275 1-3-1.101-1.602-2.601-2.602-4.5-3a52.282 52.282 0 0 1-10.5 6.5c-2.186 1.412-3.852 3.245-5 5.5a35.158 35.158 0 0 1-10 5c.423-2.281-.244-3.948-2-5 1.171-.845 2.505-1.511 4-2-.131.876.202 1.543 1 2a78.453 78.453 0 0 1 5.5-4 2.428 2.428 0 0 0 .5-2h3c.934-1.068 1.268-2.401 1-4 3.717-1.027 7.05-2.861 10-5.5 2.307-.779 4.307-.279 6 1.5.798-.457 1.131-1.124 1-2z"/><path style="opacity:1" fill="#520501" d="M254.5 231.5v1a49.074 49.074 0 0 1-13-10c1.208-1.282 2.542-1.282 4 0a1783.64 1783.64 0 0 0 8.5 7c.464.594.631 1.261.5 2z"/><path style="opacity:1" fill="#4e0603" d="M238.5 221.5c-.691-1.522-1.858-2.522-3.5-3a320.25 320.25 0 0 0-14.5 10c-.667 0-1-.333-1-1 1.148-2.255 2.814-4.088 5-5.5a52.282 52.282 0 0 0 10.5-6.5c1.899.398 3.399 1.398 4.5 3 1.592 1.725 1.258 2.725-1 3z"/><path style="opacity:1" fill="#5d1c05" d="M252.5 221.5a98.557 98.557 0 0 0 14 10c-1.535-.854-2.868-.854-4 0a29.771 29.771 0 0 1-5.5-4 11.187 11.187 0 0 0-4.5-1v-5z"/><path style="opacity:1" fill="#71100a" d="M207.5 227.5c1.756 1.052 2.423 2.719 2 5a35.158 35.158 0 0 0 10-5c0 .667.333 1 1 1a54.53 54.53 0 0 0-6.5 6c-.179 3.525-.679 6.859-1.5 10v-11c-1.788.285-3.455-.048-5-1 .928-1.268 1.095-2.601.5-4-2.074 2.578-4.574 4.578-7.5 6a21.127 21.127 0 0 0 9 1v8c-.968-2.107-1.302-4.441-1-7a40.914 40.914 0 0 1-9-.5 3.647 3.647 0 0 1-1-1.5 44.564 44.564 0 0 0 9-7z"/><path style="opacity:1" fill="#5e2206" d="M51.5 218.5h2c.219 1.175-.114 2.175-1 3a1671.05 1671.05 0 0 1-13 10 24.258 24.258 0 0 0 3 7c-.02 1.226-.353 2.226-1 3 0-1.333-.667-2-2-2v-4h-4a4.932 4.932 0 0 1 .5-3 62.085 62.085 0 0 0 15.5-14z"/><path style="opacity:1" fill="#350702" d="M212.5 244.5c-.819-2.805-1.319-5.805-1.5-9-.181 3.195-.681 6.195-1.5 9v-9a21.127 21.127 0 0 1-9-1c2.926-1.422 5.426-3.422 7.5-6 .595 1.399.428 2.732-.5 4 1.545.952 3.212 1.285 5 1v11z"/><path style="opacity:1" fill="#4e0804" d="M92.5 227.5a69.052 69.052 0 0 0 6.5 5 8.435 8.435 0 0 1 .5 4c-1.7.027-3.033.694-4 2-.605-1.981-1.605-2.315-3-1-1.237-1.597-2.904-2.763-5-3.5a12.93 12.93 0 0 1 5-.5 13.216 13.216 0 0 0-2-5c1.424 1.531 2.091 1.198 2-1z"/><path style="opacity:1" fill="#724202" d="M266.5 231.5h2c.453.958 1.119 1.792 2 2.5-2.094 1.352-4.427 1.852-7 1.5 1.452-.802 3.118-1.302 5-1.5-.881-.708-1.547-1.542-2-2.5z"/><path style="opacity:1" fill="#400" d="M172.5 221.5c-.987 4.805-1.321 9.805-1 15h18v1c-6.522.323-12.855-.01-19-1 .546-5.567-.121-10.9-2-16l2-1c1.213.247 1.88.914 2 2z"/><path style="opacity:1" fill="#020000" d="M212.5 244.5c-.167 17.003 0 34.003.5 51 1.356.88 2.856 1.214 4.5 1a8.43 8.43 0 0 0 .5 4c3.967 3.472 6.467 7.805 7.5 13-14.706 10.526-31.039 17.693-49 21.5-37.503 6.558-72.17-.275-104-20.5 1.468-2.416 2.135-5.083 2-8 2.558-1.934 3.891-4.601 4-8 4.366.477 7.366-1.356 9-5.5 1.829-.273 3.329-1.107 4.5-2.5.5-17.33.667-34.663.5-52v-1c1.395-1.315 2.395-.981 3 1v50a99.406 99.406 0 0 1 24 2c1.42-2.761 2.087-5.761 2-9a4.934 4.934 0 0 0 3-.5c1.351-3.195 3.685-5.028 7-5.5v-5a25.959 25.959 0 0 0 9-2.5c2.259-1.84 2.259-3.84 0-6a82.995 82.995 0 0 0 0-14.5h19v22a41.333 41.333 0 0 0 10 2 4.934 4.934 0 0 0 .5 3c3.058 1.405 5.724 3.405 8 6l1 4c2.669 1.247 4.502 3.247 5.5 6 .607-.124.94-.457 1-1 4.243.439 8.576.439 13 0 3.127 2.555 6.794 3.555 11 3v-48c.819-2.805 1.319-5.805 1.5-9 .181 3.195.681 6.195 1.5 9z"/><path style="opacity:1" fill="#545454" d="M7.5 221.5c3.158 7.188 5.158 14.854 6 23-1.32-4.731-3.32-9.231-6-13.5.895-3.095.895-6.262 0-9.5z"/><path style="opacity:1" fill="#98180b" d="M133.5 216.5c-11.685.284-11.852 1.618-.5 4 .499 5.991.666 11.991.5 18h-20c-1.68-5.11-2.347-10.443-2-16h-8v-3h9c-.397 6.22.27 12.22 2 18h17a73.133 73.133 0 0 0-1-17 52.34 52.34 0 0 1-16 0 13.116 13.116 0 0 0 7-1c-2.062-2.323-4.395-2.99-7-2 .291-1.149 1.124-1.816 2.5-2a13.487 13.487 0 0 1 4 2c4.103-2.162 8.27-2.495 12.5-1z"/><path style="opacity:1" fill="#0d0000" d="M112.5 219.5c.992-.172 1.658.162 2 1a52.34 52.34 0 0 0 16 0 73.133 73.133 0 0 1 1 17h-17c-1.73-5.78-2.397-11.78-2-18z"/><path style="opacity:1" fill="#874e02" d="M263.5 235.5c-.166 10.006 0 20.006.5 30 .191 2.208.691 4.208 1.5 6a12.64 12.64 0 0 1-2.5 4c-.827-13.506-.66-26.84.5-40z"/><path style="opacity:1" fill="#cca207" d="M51.5 218.5a62.085 62.085 0 0 1-15.5 14 4.932 4.932 0 0 0-.5 3h4v4c.167 14.67 0 29.337-.5 44-.717-.544-1.217-1.211-1.5-2 .995-11.822 1.328-23.822 1-36a32.438 32.438 0 0 0-.5-8c-2.04-.923-4.208-1.256-6.5-1v-4c4.138-.473 6.138-2.807 6-7 1.788.285 3.455-.048 5-1a200.66 200.66 0 0 1 9-6z"/><path style="opacity:1" fill="#120000" d="M61.5 245.5h12v11h-12v-11z"/><path style="opacity:1" fill="#520000" d="M229.5 245.5v11h11v-11c.983 3.798 1.317 7.798 1 12h-13c-.317-4.202.017-8.202 1-12z"/><path style="opacity:1" fill="#080000" d="M229.5 245.5h11v11h-11v-11z"/><path style="opacity:1" fill="#ecb509" d="M268.5 231.5c2.501.326 3.668 1.659 3.5 4-2.041.923-4.208 1.256-6.5 1-.328 11.179.005 22.179 1 33l-1 2c-.809-1.792-1.309-3.792-1.5-6-.5-9.994-.666-19.994-.5-30 2.573.352 4.906-.148 7-1.5-.881-.708-1.547-1.542-2-2.5z"/><path style="opacity:1" fill="#630404" d="M185.5 289.5c4.333-1.333 8.667-1.333 13 0-4.424.439-8.757.439-13 0z"/><path style="opacity:1" fill="#641b0c" d="M74.5 306.5c.135 2.917-.532 5.584-2 8-.992.172-1.658-.162-2-1l4-7z"/><path style="opacity:1" fill="#393939" d="M179.5 339.5c-16.872 4.328-33.872 4.994-51 2 17.064.46 34.064-.207 51-2z"/></svg>