<?xml version="1.0" encoding="UTF-8" standalone="no"?>
<!-- Created with Inkscape (http://www.inkscape.org/) -->

<svg
   xmlns:dc="http://purl.org/dc/elements/1.1/"
   xmlns:cc="http://creativecommons.org/ns#"
   xmlns:rdf="http://www.w3.org/1999/02/22-rdf-syntax-ns#"
   xmlns:svg="http://www.w3.org/2000/svg"
   xmlns="http://www.w3.org/2000/svg"
   xmlns:sodipodi="http://sodipodi.sourceforge.net/DTD/sodipodi-0.dtd"
   xmlns:inkscape="http://www.inkscape.org/namespaces/inkscape"
   width="197.93207mm"
   height="209.34358mm"
   viewBox="0 0 701.3341 741.76859"
   id="svg4175"
   version="1.1"
   inkscape:version="0.91 r13725"
   sodipodi:docname="DEU Hönningen COA.svg">
  <defs
     id="defs4177">
    <inkscape:path-effect
       effect="spiro"
       id="path-effect4990"
       is_visible="true" />
  </defs>
  <sodipodi:namedview
     id="base"
     pagecolor="#ffffff"
     bordercolor="#666666"
     borderopacity="1.0"
     inkscape:pageopacity="0.0"
     inkscape:pageshadow="2"
     inkscape:zoom="0.72798892"
     inkscape:cx="350.66703"
     inkscape:cy="370.88383"
     inkscape:document-units="px"
     inkscape:current-layer="layer1"
     showgrid="false"
     inkscape:window-width="1366"
     inkscape:window-height="745"
     inkscape:window-x="-8"
     inkscape:window-y="-8"
     inkscape:window-maximized="1"
     fit-margin-top="0"
     fit-margin-left="0"
     fit-margin-right="0"
     fit-margin-bottom="0"
     inkscape:snap-midpoints="true"
     inkscape:snap-smooth-nodes="true"
     inkscape:object-nodes="true" />
  <metadata
     id="metadata4180">
    <rdf:RDF>
      <cc:Work
         rdf:about="">
        <dc:format>image/svg+xml</dc:format>
        <dc:type
           rdf:resource="http://purl.org/dc/dcmitype/StillImage" />
        <dc:title></dc:title>
      </cc:Work>
    </rdf:RDF>
  </metadata>
  <g
     inkscape:label="Ebene 1"
     inkscape:groupmode="layer"
     id="layer1"
     transform="translate(-13.875085,-18.431346)">
    <path
       style="fill:#ff0000;fill-opacity:1;fill-rule:evenodd;stroke:none;stroke-width:11;stroke-opacity:1"
       inkscape:connector-curvature="0"
       d="m 19.554805,23.931348 13.398,416.624412 c 7.415,175.24977 153.919805,314.04607 331.589255,314.14417 177.50971,-0.2149 324.06939,-139.0612 331.58941,-314.14417 l 13.39799,-416.624412 -344.9794,0 z"
       id="path10563-0-8" />
    <path
       style="fill:#ffffff;fill-rule:evenodd;stroke:#000000;stroke-width:11;stroke-linecap:butt;stroke-linejoin:miter;stroke-miterlimit:4;stroke-dasharray:none;stroke-opacity:1"
       d="M 5.6796875 5.5 L 19.078125 422.125 C 26.493125 597.37477 172.99658 736.17143 350.66602 736.26953 C 353.68156 736.26588 356.6884 736.21793 359.68555 736.13477 C 359.45532 733.68458 359.11372 731.24484 358.64258 728.82617 C 356.46305 717.63734 351.87995 707.08943 347.97266 696.38086 C 344.06536 685.6723 340.77513 674.45231 341.36328 663.06836 C 341.95136 651.68567 346.36439 640.90157 350.54688 630.29883 C 354.72936 619.69608 358.79883 608.7093 358.64258 597.3125 C 358.48625 585.90981 354.11759 575.0418 349.85938 564.46289 C 345.60116 553.88398 341.32191 542.95838 341.36328 531.55469 C 341.40468 520.14899 345.76254 509.2565 350.04102 498.68359 C 354.31949 488.11068 358.65348 477.2046 358.64258 465.79883 C 358.63168 454.3925 354.27796 443.49322 349.99414 432.92188 C 345.71032 422.35053 341.36059 411.44736 341.36328 400.04102 C 341.36628 388.63454 345.72072 377.73503 350.00586 367.16406 C 354.291 356.5931 358.64257 345.69164 358.64258 334.28516 C 358.64259 322.87867 354.291 311.97723 350.00586 301.40625 C 345.72072 290.83527 341.36597 279.93383 341.36328 268.52734 C 341.36028 257.121 345.71033 246.21783 349.99414 235.64648 C 354.27796 225.07513 358.63168 214.17781 358.64258 202.77148 C 358.65348 191.36571 354.3195 180.45768 350.04102 169.88477 C 345.76255 159.31186 341.40466 148.41937 341.36328 137.01367 C 341.32188 125.60998 345.60116 114.68634 349.85938 104.10742 C 354.11759 93.528512 358.48625 82.6605 358.64258 71.257812 C 358.79883 59.861017 354.72937 48.872274 350.54688 38.269531 C 346.36439 27.666788 341.95136 16.882685 341.36328 5.5 L 5.6796875 5.5 z "
       transform="translate(13.875085,18.431346)"
       id="path4988" />
    <path
       style="fill:#ffffff;fill-rule:evenodd;stroke:#000000;stroke-width:11;stroke-linecap:butt;stroke-linejoin:round;stroke-miterlimit:4;stroke-dasharray:none;stroke-opacity:1"
       d="m 428.56006,57.21929 84.91228,257.40773 -114.14576,-82.32588 29.33926,92.92909 -29.33926,92.92698 114.14365,-82.32165 -84.91017,257.40561 93.10968,-64.26958 93.10756,64.26958 -84.90805,-257.40139 114.14154,82.31743 -29.33926,-92.92698 29.33926,-92.92909 -114.14154,82.32165 84.90805,-257.4035 -93.10756,64.26959 -93.10968,-64.26959 z"
       id="path5089"
       inkscape:connector-curvature="0" />
    <path
       style="opacity:1;fill:#000000;fill-opacity:1;fill-rule:nonzero;stroke:none;stroke-width:1;stroke-linecap:round;stroke-linejoin:round;stroke-miterlimit:4;stroke-dasharray:none;stroke-dashoffset:0;stroke-opacity:1"
       d="M 141.07812 5.5 L 141.07812 290.25391 L 14.837891 290.25391 L 16.015625 326.88477 L 17.523438 373.80859 L 141.07812 373.80859 L 141.07812 662.38086 C 141.08208 662.38405 141.08589 662.38744 141.08984 662.39062 C 147.33277 667.42339 153.76464 672.23432 160.36914 676.81641 C 160.41634 676.84915 160.46255 676.88329 160.50977 676.91602 C 162.12544 678.03571 163.75228 679.1406 165.38867 680.23242 C 165.47773 680.29184 165.56713 680.35082 165.65625 680.41016 C 170.26645 683.47976 174.96156 686.43222 179.73047 689.27539 C 180.24794 689.58371 180.76196 689.89752 181.28125 690.20312 C 182.58517 690.97096 183.89763 691.72597 185.21289 692.47656 C 185.88639 692.86067 186.56184 693.24154 187.23828 693.62109 C 188.48823 694.32289 189.7401 695.02089 191 695.70703 C 191.85131 696.17037 192.70866 696.62393 193.56445 697.08008 C 195.42484 698.07228 197.29644 699.04605 199.17773 700.00391 C 200.31845 700.58439 201.45721 701.16858 202.60547 701.73633 C 203.64417 702.25016 204.69152 702.74863 205.73633 703.25195 C 206.83547 703.78121 207.93521 704.3086 209.04102 704.82617 C 210.03361 705.29094 211.02943 705.75176 212.02734 706.20703 C 213.23841 706.75935 214.45505 707.30158 215.67383 707.83984 C 216.62559 708.26029 217.57483 708.68391 218.53125 709.0957 C 220.44443 709.91929 222.36543 710.72685 224.29688 711.51562 C 224.40934 711.56155 224.52029 711.61044 224.63281 711.65625 L 224.63281 373.80859 L 347.37109 373.80859 C 348.22863 371.57976 349.11454 369.36286 350.00586 367.16406 C 354.291 356.5931 358.64257 345.69164 358.64258 334.28516 C 358.64259 322.87867 354.291 311.97723 350.00586 301.40625 C 348.5165 297.73217 347.02951 294.01516 345.70898 290.25391 L 224.63281 290.25391 L 224.63281 5.5 L 141.07812 5.5 z "
       transform="translate(13.875085,18.431346)"
       id="rect5154" />
    <path
       style="fill:none;fill-rule:evenodd;stroke:#000000;stroke-width:11;stroke-opacity:1"
       inkscape:connector-curvature="0"
       d="m 19.5548,23.931346 13.398,416.624414 c 7.415,175.24977 153.9198,314.04607 331.58926,314.14417 177.5097,-0.2149 324.0694,-139.0612 331.5894,-314.14417 l 13.398,-416.624414 -344.9794,0 z"
       id="path10563-0" />
  </g>
</svg>
