<svg xmlns="http://www.w3.org/2000/svg" width="295" height="362" style="shape-rendering:geometricPrecision;text-rendering:geometricPrecision;image-rendering:optimizeQuality;fill-rule:evenodd;clip-rule:evenodd"><path style="opacity:1" fill="#fbfbf9" d="M-.5-.5h295v362H-.5V-.5z"/><path style="opacity:1" fill="#fbd505" d="m263.5 31.5-3 4v1c-2.513 2.755-5.513 4.755-9 6-5.188 1.512-10.522 2.178-16 2a125.688 125.688 0 0 0-29-1.5c-3.57 2.068-6.237 4.901-8 8.5-1.882 6.535-.549 12.202 4 17 .131.876-.202 1.543-1 2-.896-1.006-1.562-1.006-2 0a8.902 8.902 0 0 0 3 4c-1.667 1-3 2.333-4 4-1.211-.774-1.211-1.607 0-2.5l-2-2-14-1c1.363-2.13 1.029-2.63-1-1.5-1.196-.346-1.196-.846 0-1.5a4.932 4.932 0 0 0-3-.5v-4c.233-1.562.9-2.895 2-4v-1c2.667-3.667 2.667-7.333 0-11-.936-1.474-2.27-2.474-4-3-.293-4.293-2.626-6.626-7-7-4.008-3-8.341-3.666-13-2h-18c.135 2.054-.532 3.72-2 5-3.768 1.287-7.435 1.287-11 0v-4c-4.329.293-5.663 2.293-4 6 1.208 2.544 3.208 3.877 6 4 1.792.81 3.792 1.31 6 1.5-.556.383-.889.883-1 1.5-.958.453-1.792 1.12-2.5 2a26.803 26.803 0 0 1-3.5 7.5c-3.317.498-6.65.665-10 .5-1.042-3.84-2.042-3.674-3 .5.015 2.842 1.348 4.675 4 5.5 2.194 1.266 4.528 1.266 7 0 .667 3.813 1.334 7.48 2 11 .842 4.55-.492 8.217-4 11a106.45 106.45 0 0 0-10 2c2.036 2.484 4.702 3.484 8 3 1.792.134 3.458-.2 5-1 1.307 4.469 1.807 9.135 1.5 14-4.261 2.981-8.095 2.648-11.5-1l-1 1.5c3.1 6.988 8.1 8.821 15 5.5v3c-.934 1.068-1.268 2.401-1 4-2.065.453-3.732 1.453-5 3h-1c-2.106 1.283-4.44 2.116-7 2.5 1.493 1.156 1.326 1.99-.5 2.5a15.894 15.894 0 0 0-6.5-1c-1.175.219-2.175-.114-3-1l-2-5a88.895 88.895 0 0 0 3-8.5c-.025-1.876-.691-3.376-2-4.5-.111-.617-.444-1.117-1-1.5-2.867-.801-5.534-.634-8 .5-5.714 2.604-9.048.937-10-5a12.917 12.917 0 0 1 4-6c1.113-1.446 1.28-3.113.5-5-1.011-.837-2.178-1.17-3.5-1-8.79-2.492-10.124-7.159-4-14 1.189-.929 2.522-1.262 4-1 .955 4.29 3.622 6.29 8 6 .032-2.119-.968-3.452-3-4a29.22 29.22 0 0 1 1-9c4.684-4.281 6.184-9.615 4.5-16-2.362-3.527-5.195-6.527-8.5-9-6.524-1.232-13.191-1.232-20 0-6.7.33-13.367-.003-20-1a3.646 3.646 0 0 0-1-1.5l-7-1c-1.722-3.6-4.39-4.434-8-2.5-2.912-1.566-5.579-3.566-8-6-2.243.912-3.243 2.578-3 5 2 3.008 3.166 6.341 3.5 10 2.29 3.468 5.456 5.468 9.5 6a10.123 10.123 0 0 0 1.5 4l1-1a20.499 20.499 0 0 1 6.5 3.5c-.608.87-1.441 1.37-2.5 1.5a15.902 15.902 0 0 0-6.5-1 20.68 20.68 0 0 0-9-.5c4.072 3.563 8.739 6.063 14 7.5a29.063 29.063 0 0 0 5 4l-4.5 1a336.23 336.23 0 0 1-12.5-2c-2.117-1.816-4.45-2.15-7-1-.722.418-1.222 1.084-1.5 2-.442-2.178-1.442-2.845-3-2a1289.467 1289.467 0 0 0-1.5-51v-5h262c.087 3.098-.413 3.432-1.5 1l-1 1c-.492 3.14-1.825 5.806-4 8l-1-2a10.256 10.256 0 0 1-1.5 4 4.458 4.458 0 0 1-1.5-2c-.69 3.687-1.523 6.687-2.5 9z"/><path style="opacity:1" fill="#efd32b" d="m279.5 13.5-1 2a2506.82 2506.82 0 0 1-6 7c-2.087 1.085-3.42 2.751-4 5-1 .333-1.667 1-2 2l-3 2c.977-2.313 1.81-5.313 2.5-9a4.458 4.458 0 0 0 1.5 2 10.256 10.256 0 0 0 1.5-4l1 2c2.175-2.194 3.508-4.86 4-8l1-1c1.087 2.432 1.587 2.098 1.5-1h-262v5c-.167 57.668 0 115.334.5 173 1.3 7.271 1.8 14.604 1.5 22-1.351-5.449-2.185-11.116-2.5-17-.5-61.332-.667-122.666-.5-184 89.006-.664 177.673.002 266 2z"/><path style="opacity:1" fill="#130ad1" d="M280.5 195.5a105.226 105.226 0 0 1-2 22c-.722.418-1.222 1.084-1.5 2a133.554 133.554 0 0 0-2.5 16l-4 8a4515.34 4515.34 0 0 0 8.5-41c.667-9.333.667-18.667 0-28a37.03 37.03 0 0 0-5.5 4 409.027 409.027 0 0 0 3-6v-16a31.147 31.147 0 0 1 2 2l1-70c0-23.676-.667-47.01-2-70 .311-.978.978-1.645 2-2 1 59.663 1.333 119.33 1 179z"/><path style="opacity:1" fill="#382d6b" d="M280.5 12.5c1.333 30.16 2 60.66 2 91.5 0 30.669-.333 61.169-1 91.5.167-60.334 0-120.668-.5-181-.671.752-1.504 1.086-2.5 1l1-2c.667 0 1-.333 1-1z"/><path style="opacity:1" fill="#140c94" d="M281.5 195.5h-1c.333-59.67 0-119.337-1-179-1.022.355-1.689 1.022-2 2-1.644 1.98-3.31 3.98-5 6v-2a2506.82 2506.82 0 0 0 6-7c.996.086 1.829-.248 2.5-1 .5 60.332.667 120.666.5 181z"/><path style="opacity:1" fill="#443b2e" d="M279.5 9.5h4c.167 64.334 0 128.668-.5 193a241.636 241.636 0 0 1-5.5 25c.116-3.36.449-6.693 1-10a105.226 105.226 0 0 0 2-22h1c.667-30.331 1-60.831 1-91.5 0-30.84-.667-61.34-2-91.5a5.727 5.727 0 0 0-1-3z"/><path style="opacity:1" fill="#47275b" d="M272.5 22.5v2l-4 3c.58-2.249 1.913-3.915 4-5z"/><path style="opacity:1" fill="#473051" d="M266.5 29.5c-1 3-3 5-6 6l3-4 3-2z"/><path style="opacity:1" fill="#796314" d="M147.5 37.5c-2.469.817-5.135 1.317-8 1.5a7.253 7.253 0 0 1 2 2.5c-1.545.952-3.212 1.285-5 1 1.468-1.28 2.135-2.946 2-5h9z"/><path style="opacity:1" fill="#594705" d="M156.5 37.5c4.659-1.666 8.992-1 13 2a110.406 110.406 0 0 0-13-2z"/><path style="opacity:1" fill="#654406" d="M125.5 42.5c-2.43-2.668-3.763-2.001-4 2-1.663-3.707-.329-5.707 4-6v4z"/><path style="opacity:1" fill="#d9c01c" d="M68.5 43.5c-6.813.991-13.813 1.325-21 1-2.735-1.443-5.735-2.443-9-3-2.286-1.08-4.286-2.413-6-4 3.61-1.934 6.278-1.1 8 2.5l7 1c.457.414.79.914 1 1.5 6.633.997 13.3 1.33 20 1z"/><path style="opacity:1" fill="#0a0602" d="M147.5 37.5h9c4.376.409 8.71 1.075 13 2 4.374.374 6.707 2.707 7 7-.558 1.29-1.558 2.123-3 2.5a32.438 32.438 0 0 1-8 .5c-4.112-4.242-7.779-3.91-11 1-.929 1.436-2.095 2.77-3.5 4-.384 1.697-.218 3.363.5 5-6.408 2.478-8.908 7.145-7.5 14 .383.556.883.89 1.5 1a6.544 6.544 0 0 0 3 3c-.429 3.959.571 7.459 3 10.5a123.733 123.733 0 0 0 14 5.5 30.968 30.968 0 0 0 2 2c-5.763 2.84-11.263 2.506-16.5-1 .667 1.667.667 3.333 0 5 2.448 2.191 5.282 3.524 8.5 4 .709.904 1.709 1.237 3 1 .102 3.246 1.102 6.08 3 8.5.088 2.744-1.245 3.91-4 3.5a11.284 11.284 0 0 1-6-2 36.45 36.45 0 0 1-8.5-9c-.628 2.744.372 4.744 3 6a12.93 12.93 0 0 1 .5 5 20.093 20.093 0 0 1-6-1.5c-1.809-2.409-4.142-3.409-7-3 2.564 1.062 4.231 2.896 5 5.5-.029 1.529-.696 2.696-2 3.5-4.133-.183-8.133-.35-12-.5-.268-1.599.066-2.932 1-4 1.113-1.446 1.28-3.113.5-5-1.342 1.402-2.176 1.069-2.5-1a22.202 22.202 0 0 0 2-7.5l-2-6a14.978 14.978 0 0 1 1-4.5c-1.36-1.165-2.36-.832-3 1-1.542.8-3.208 1.134-5 1-.108-2.014.558-3.68 2-5 3.077-.873 5.41-2.707 7-5.5a9.457 9.457 0 0 1-1.5-2.5 98.433 98.433 0 0 1-.5-14c.131-.876-.202-1.543-1-2a18.352 18.352 0 0 1-9 2c-2.652-.825-3.985-2.658-4-5.5.958-4.174 1.958-4.34 3-.5 3.35.165 6.683-.002 10-.5a26.803 26.803 0 0 0 3.5-7.5c.708-.88 1.542-1.547 2.5-2 1.495.085 2.495-.581 3-2a16.868 16.868 0 0 0-8-1c-2.792-.123-4.792-1.456-6-4 .237-4.001 1.57-4.668 4-2 3.565 1.287 7.232 1.287 11 0 1.788.285 3.455-.048 5-1a7.253 7.253 0 0 0-2-2.5c2.865-.183 5.531-.683 8-1.5z"/><path style="opacity:1" fill="#0b0704" d="M32.5 37.5c1.714 1.587 3.714 2.92 6 4 3.265.557 6.265 1.557 9 3 3.484.665 7.15.999 11 1a201.494 201.494 0 0 1 30-2c3.305 2.473 6.138 5.473 8.5 9 1.684 6.385.184 11.719-4.5 16-.617.11-1.117.444-1.5 1-.8 2.867-.634 5.534.5 8 2.032.548 3.032 1.881 3 4-4.378.29-7.045-1.71-8-6-.291-1.15-1.124-1.816-2.5-2l-2.5.5c-5.052 5.517-5.052 10.85 0 16 1.634.493 3.3.66 5 .5 2.472 1.142 3.472 3.142 3 6a12.917 12.917 0 0 0-4 6c.952 5.937 4.286 7.604 10 5a29.23 29.23 0 0 1 9 1c1.309 1.124 1.975 2.624 2 4.5a88.895 88.895 0 0 1-3 8.5l2 5c.825.886 1.825 1.219 3 1 2.234-.12 4.401.213 6.5 1 1.826-.51 1.993-1.344.5-2.5 2.56-.384 4.894-1.217 7-2.5h1c5.846-2.498 10.013-.831 12.5 5-.011 5.876-1.511 11.376-4.5 16.5 2.307.271 3.474-.895 3.5-3.5a70.181 70.181 0 0 0 3-13c1.509 2.419 3.675 3.419 6.5 3-.241-3.499.592-3.832 2.5-1l.5-1c-2.22-2.051-2.886-4.384-2-7 9.787-5.409 13.62-2.409 11.5 9-2.475 3.905-5.142 3.905-8 0a104.21 104.21 0 0 1 2 9 8.43 8.43 0 0 0 .5-4 8.43 8.43 0 0 0 4-.5 74.855 74.855 0 0 0 6-5.5c5.949 4.973 9.449 3.64 10.5-4 2.196 2.625 5.03 3.625 8.5 3v1c-2.055 1.059-3.389 2.725-4 5-2.087 1.085-3.42 2.751-4 5a30.326 30.326 0 0 0-6 7c-2.414 1.411-4.081 3.411-5 6a64.231 64.231 0 0 0-9 10c-2.087 1.085-3.42 2.751-4 5-1.406.473-2.073 1.473-2 3-1.764.826-3.098 2.159-4 4h-1c-1.699.12-3.365.454-5 1-3.05-.47-3.383-1.303-1-2.5a8.43 8.43 0 0 0-4-.5 92.966 92.966 0 0 1-2.5-15c-1.548 3.547-4.048 4.88-7.5 4 .431.793.765 1.627 1 2.5-2.106 1.7-3.606 3.867-4.5 6.5-1.982-2.332-1.482-4.165 1.5-5.5-2.044-.048-4.044.452-6 1.5-1.695-.674-3.362-1.341-5-2-.352-2.205-1.352-4.038-3-5.5 1.46-.811 1.793-1.645 1-2.5a15.645 15.645 0 0 1-4 2.5l-11 1a10.526 10.526 0 0 0 3 2.5c1.621 4.803.288 8.803-4 12a28.043 28.043 0 0 0-1.5 5A205.649 205.649 0 0 1 66.5 201a97.445 97.445 0 0 1-21 9c-3.858.81-7.524.643-11-.5-2.576-2.388-3.576-5.388-3-9 24.917-11.25 43.25-29.25 55-54 1.33-1.332 2.997-2.165 5-2.5-3.288-1.358-4.788-3.858-4.5-7.5-.2 3.253-1.034 6.253-2.5 9-3.149 5.83-7.482 10.83-13 15-1.984.016-2.984-.984-3-3a640.09 640.09 0 0 0 3-6c2.216-.703 4.049-2.036 5.5-4A144.075 144.075 0 0 1 90.5 132c-2.551.687-5.051 1.854-7.5 3.5-6.073-4.005-5.906-7.838.5-11.5-2.677.831-5.343 1.998-8 3.5-1.556-1.047-3.223-1.714-5-2v-8c5.163-2.586 4.496-3.586-2-3 .215-1.679-.452-2.679-2-3 .065-.438-.101-.772-.5-1-1.729.474-2.895 1.474-3.5 3a32.864 32.864 0 0 1-5 4.5 286.313 286.313 0 0 0-23 5.5c-3.46-1.429-7.127-2.262-11-2.5-.556-.383-.89-.883-1-1.5-.613-2.637-.613-5.47 0-8.5a438.18 438.18 0 0 0 19-.5c.221-2.164 1.221-3.83 3-5a36.063 36.063 0 0 1 7-4c3.244-1.571 5.91-3.905 8-7 3.278-.52 6.61-.687 10-.5l-4-1a3.943 3.943 0 0 1-1-2 16.707 16.707 0 0 0 2.5-7.5 9.468 9.468 0 0 1 2.5-1.5c-3.604-1.334-4.771-3.834-3.5-7.5a9.468 9.468 0 0 1 2.5-1.5c-2.288-.418-4.288.25-6 2-1.333.667-1.333 1.333 0 2-2.18 1.348-3.848 3.182-5 5.5a32.034 32.034 0 0 0-2.5-4 36.546 36.546 0 0 1-6.5 7.5c-1.284.684-2.45.517-3.5-.5-.708.88-1.542 1.547-2.5 2a32.437 32.437 0 0 1-8-.5c-2.213-1.616-4.547-2.783-7-3.5-1.333-2-3-3.667-5-5-.722-.418-1.222-1.084-1.5-2a32.437 32.437 0 0 1-.5-8c2.55-1.15 4.883-.816 7 1 1.1 1.058 2.434 1.892 4 2.5a62.268 62.268 0 0 0 16 1.5c5.128.388 10.128-.112 15-1.5a14.505 14.505 0 0 0 4-5c-3.745.035-4.412-.965-2-3-.228-.399-.562-.565-1-.5v-1c2.1-1.017 3.1-2.35 3-4-2.456 1.448-5.123 2.114-8 2a57.473 57.473 0 0 0-14-2c-.453-.958-1.12-1.792-2-2.5-3.065-.368-5.732-1.535-8-3.5-4.044-.532-7.21-2.532-9.5-6-.334-3.659-1.5-6.992-3.5-10-.243-2.422.757-4.088 3-5 2.421 2.434 5.088 4.434 8 6z"/><path style="opacity:1" fill="#2b1e04" d="M251.5 42.5c-.847 1.466-2.18 2.3-4 2.5a773.076 773.076 0 0 1-40 0c-3.297.618-4.963 2.285-5 5-1.401.41-2.734.91-4 1.5 1.763-3.599 4.43-6.432 8-8.5 9.77-.618 19.436-.118 29 1.5 5.478.178 10.812-.488 16-2z"/><path style="opacity:1" fill="#443402" d="M88.5 43.5a201.494 201.494 0 0 0-30 2c-3.85-.001-7.516-.335-11-1 7.187.325 14.187-.009 21-1 6.809-1.232 13.476-1.232 20 0z"/><path style="opacity:1" fill="#0b0708" d="M260.5 36.5a422.33 422.33 0 0 0-22 27h-1c-.291-1.15-1.124-1.816-2.5-2l-2.5.5a12.648 12.648 0 0 0 4 2.5 47.422 47.422 0 0 0-10 13 152.518 152.518 0 0 0-12 13 99.65 99.65 0 0 1-7 8c-2.873-3.15-2.54-5.817 1-8 7.109-1.213 9.276-5.213 6.5-12-1.878-.553-3.378-1.553-4.5-3-.605-1.526-1.771-2.526-3.5-3l-1 3c-.198-1.882-.698-3.548-1.5-5l-2-2c-4.549-4.798-5.882-10.465-4-17a28.233 28.233 0 0 1 4-1.5c.037-2.715 1.703-4.382 5-5 13.324.345 26.657.345 40 0 1.82-.2 3.153-1.034 4-2.5 3.487-1.245 6.487-3.245 9-6z"/><path style="opacity:1" fill="#7e7025" d="M127.5 48.5c2.747-.313 5.414.02 8 1-.505 1.419-1.505 2.085-3 2 .111-.617.444-1.117 1-1.5-2.208-.19-4.208-.69-6-1.5z"/><path style="opacity:1" fill="#e1ddc4" d="m165.5 49.5-3 2v-3h-4v4c-1.983.343-3.317-.324-4-2 3.221-4.91 6.888-5.242 11-1z"/><path style="opacity:1" fill="#3f3c1e" d="M162.5 51.5c-1.068.934-2.401 1.268-4 1v-4h4v3z"/><path style="opacity:1" fill="#973417" d="M176.5 46.5c1.73.526 3.064 1.526 4 3-5.004.39-10.004.89-15 1.5l-3 3c-3.317.498-6.65.665-10 .5.284 1.915-.049 3.581-1 5-.718-1.637-.884-3.303-.5-5 1.405-1.23 2.571-2.564 3.5-4 .683 1.676 2.017 2.343 4 2 1.599.268 2.932-.066 4-1l3-2a32.438 32.438 0 0 0 8-.5c1.442-.377 2.442-1.21 3-2.5z"/><path style="opacity:1" fill="#9c3000" d="M180.5 49.5c2.667 3.667 2.667 7.333 0 11v-11z"/><path style="opacity:1" fill="#442f06" d="M44.5 58.5c4.736.089 9.403.755 14 2 2.877.114 5.544-.552 8-2 .1 1.65-.9 2.983-3 4-2.787-.977-5.787-1.31-9-1a57.314 57.314 0 0 0-10-3z"/><path style="opacity:1" fill="#e60f03" d="M180.5 49.5v12h-4v-3c-3.288-.427-6.288.24-9 2-2.268-1.044-4.601-1.211-7-.5-4.418.927-7.418 3.427-9 7.5 7.871.257 15.538 1.757 23 4.5 3.061.849 5.728 2.349 8 4.5-3.541.552-6.875-.281-10-2.5a18.437 18.437 0 0 0-6-.5 57.211 57.211 0 0 0-16-2.5c1.821 2.137 4.154 2.97 7 2.5.73 1.212 1.73 2.212 3 3a9.864 9.864 0 0 1-6 1h-6a6.544 6.544 0 0 1-3-3c-.823-1.955-.99-3.955-.5-6a82.83 82.83 0 0 0 6.5-9c.951-1.419 1.284-3.085 1-5 3.35.165 6.683-.002 10-.5l3-3a342.65 342.65 0 0 1 15-1.5z"/><path style="opacity:1" fill="#d6bd21" d="M34.5 52.5c2.268 1.965 4.935 3.132 8 3.5.88.708 1.547 1.542 2 2.5a57.314 57.314 0 0 1 10 3c1.792.81 3.792 1.31 6 1.5-3.317.498-6.65.665-10 .5-5.798.046-11.131-1.287-16-4 2.234-.12 4.401.214 6.5 1 1.059-.13 1.892-.63 2.5-1.5a20.499 20.499 0 0 0-6.5-3.5l-1 1a10.123 10.123 0 0 1-1.5-4z"/><path style="opacity:1" fill="#ac9d3b" d="M237.5 63.5c-.667 0-1 .333-1 1a12.648 12.648 0 0 1-4-2.5l2.5-.5c1.376.184 2.209.85 2.5 2z"/><path style="opacity:1" fill="#1e1502" d="M34.5 59.5c4.869 2.713 10.202 4.046 16 4 4.201 1.236 8.535 1.236 13 0 .438-.065.772.101 1 .5-2.412 2.035-1.745 3.035 2 3a14.505 14.505 0 0 1-4 5c-4.872 1.388-9.872 1.888-15 1.5 3.764-1.332 7.764-2.165 12-2.5a7.291 7.291 0 0 1 3-2 116.468 116.468 0 0 1-23-2.5c-5.261-1.437-9.928-3.937-14-7.5a20.68 20.68 0 0 1 9 .5z"/><path style="opacity:1" fill="#7e6f1c" d="M54.5 61.5c3.213-.31 6.213.023 9 1v1c-4.465 1.236-8.799 1.236-13 0 3.35.165 6.683-.002 10-.5-2.208-.19-4.208-.69-6-1.5z"/><path style="opacity:1" fill="#8b1d0d" d="M151.5 59.5a82.83 82.83 0 0 1-6.5 9c-.49 2.045-.323 4.045.5 6-.617-.11-1.117-.444-1.5-1-1.408-6.855 1.092-11.522 7.5-14z"/><path style="opacity:1" fill="#a93000" d="M180.5 61.5c-1.1 1.105-1.767 2.438-2 4-.996-.086-1.829.248-2.5 1 .529-5.143-1.638-6.976-6.5-5.5a6.977 6.977 0 0 0-2.5 3.5c-4.329-3.729-8.495-3.396-12.5 1a77.69 77.69 0 0 1 26 7.5c4.077 2.39 6.911 5.557 8.5 9.5a317.528 317.528 0 0 0-22.5-9 18.437 18.437 0 0 1 6 .5c3.125 2.219 6.459 3.052 10 2.5-2.272-2.151-4.939-3.651-8-4.5-7.462-2.743-15.129-4.243-23-4.5 1.582-4.073 4.582-6.573 9-7.5 2.399-.711 4.732-.544 7 .5 2.712-1.76 5.712-2.427 9-2v3h4z"/><path style="opacity:1" fill="#1a12b9" d="M237.5 63.5h1c-.095 2.858-1.262 5.19-3.5 7a87.04 87.04 0 0 0-8.5 7 47.422 47.422 0 0 1 10-13c0-.667.333-1 1-1z"/><path style="opacity:1" fill="#d7bc1d" d="M39.5 66.5a116.468 116.468 0 0 0 23 2.5 7.291 7.291 0 0 0-3 2c-4.236.335-8.236 1.168-12 2.5a62.268 62.268 0 0 1-16-1.5c-1.566-.608-2.9-1.442-4-2.5a336.23 336.23 0 0 0 12.5 2l4.5-1a29.063 29.063 0 0 1-5-4z"/><path style="opacity:1" fill="#aa9514" d="M127.5 67.5c-.982 3.462-1.315 7.129-1 11a813.557 813.557 0 0 1-2-11c-2.472 1.266-4.806 1.266-7 0 3.167.1 6.167-.567 9-2 .798.457 1.131 1.124 1 2z"/><path style="opacity:1" fill="#312505" d="M86.5 75.5c-1.478-.262-2.811.071-4 1-6.124 6.841-4.79 11.508 4 14-1.7.16-3.366-.007-5-.5-5.052-5.15-5.052-10.483 0-16l2.5-.5c1.376.184 2.209.85 2.5 2z"/><path style="opacity:1" fill="#847807" d="M92.5 68.5a29.22 29.22 0 0 0-1 9c-1.134-2.466-1.3-5.133-.5-8 .383-.556.883-.89 1.5-1z"/><path style="opacity:1" fill="#a93100" d="M157.5 73.5c6.774 1.8 12.274 5.467 16.5 11 .667 1 .667 2 0 3l-8.5-6.5a203.956 203.956 0 0 0-11-3.5 9.864 9.864 0 0 0 6-1c-1.27-.788-2.27-1.788-3-3z"/><path style="opacity:1" fill="#2f2006" d="M204.5 70.5c.802 1.452 1.302 3.118 1.5 5l1-3c1.729.474 2.895 1.474 3.5 3-1.93 1.263-3.597 2.93-5 5-1.698 1.18-3.365 1.18-5 0a6.544 6.544 0 0 1 3-3 13.115 13.115 0 0 0 1-7z"/><path style="opacity:1" fill="#5b4602" d="M22.5 78.5c2 1.333 3.667 3 5 5-2.667-.667-4.333-2.333-5-5z"/><path style="opacity:1" fill="#f5d111" d="M178.5 65.5v4a4.932 4.932 0 0 1 3 .5c-1.196.654-1.196 1.154 0 1.5 2.029-1.13 2.363-.63 1 1.5l14 1 2 2c-1.211.893-1.211 1.726 0 2.5 1-1.667 2.333-3 4-4a8.902 8.902 0 0 1-3-4c.438-1.006 1.104-1.006 2 0 .798-.457 1.131-1.124 1-2l2 2a13.115 13.115 0 0 1-1 7 6.544 6.544 0 0 0-3 3c1.635 1.18 3.302 1.18 5 0 1.403-2.07 3.07-3.737 5-5 1.122 1.447 2.622 2.447 4.5 3 2.776 6.787.609 10.787-6.5 12-1.322-.17-2.489.163-3.5 1-.891 2.998-.391 5.664 1.5 8-1.762.762-2.762 2.096-3 4a6.547 6.547 0 0 0-3 3c-4.221-.692-7.887.308-11 3a4693.63 4693.63 0 0 1-1 12c-1.667 1-3 2.333-4 4-1 .333-1.667 1-2 2-1.466-.847-2.3-2.18-2.5-4 .782-5.956-1.051-10.789-5.5-14.5-4.762-2.623-9.762-4.457-15-5.5a45.494 45.494 0 0 1-6-5.5c4.955.162 9.955.495 15 1a31.317 31.317 0 0 1 8 5c2.402.814 4.735.647 7-.5a10.258 10.258 0 0 0-4-1.5c-3.267-5.093-7.933-7.926-14-8.5a123.733 123.733 0 0 1-14-5.5c-2.429-3.041-3.429-6.541-3-10.5h6a203.956 203.956 0 0 1 11 3.5l8.5 6.5c.667-1 .667-2 0-3-4.226-5.533-9.726-9.2-16.5-11-2.846.47-5.179-.363-7-2.5 5.422.07 10.756.903 16 2.5a317.528 317.528 0 0 1 22.5 9c-1.589-3.943-4.423-7.11-8.5-9.5a77.69 77.69 0 0 0-26-7.5c4.005-4.396 8.171-4.729 12.5-1a6.977 6.977 0 0 1 2.5-3.5c4.862-1.476 7.029.357 6.5 5.5.671-.752 1.504-1.086 2.5-1z"/><path style="opacity:1" fill="#312507" d="M127.5 67.5a98.433 98.433 0 0 0 .5 14c.374.916.874 1.75 1.5 2.5-1.59 2.793-3.923 4.627-7 5.5 3.508-2.783 4.842-6.45 4-11-.315-3.871.018-7.538 1-11z"/><path style="opacity:1" fill="#1f15ac" d="M226.5 77.5a29.705 29.705 0 0 0-4.5 8 51.832 51.832 0 0 1-7.5 5 152.518 152.518 0 0 1 12-13z"/><path style="opacity:1" fill="#554001" d="M86.5 90.5c1.322-.17 2.489.163 3.5 1 .78 1.887.613 3.554-.5 5 .472-2.858-.528-4.858-3-6z"/><path style="opacity:1" fill="#2f1f04" d="M122.5 89.5c-1.442 1.32-2.108 2.986-2 5-3.298.484-5.964-.516-8-3a106.45 106.45 0 0 1 10-2z"/><path style="opacity:1" fill="#584309" d="M208.5 90.5c-3.54 2.183-3.873 4.85-1 8 0 .667-.333 1-1 1-1.891-2.336-2.391-5.002-1.5-8 1.011-.837 2.178-1.17 3.5-1z"/><path style="opacity:1" fill="#1f1805" d="M51.5 101.5a38.44 38.44 0 0 1 5-5.5 78.96 78.96 0 0 0-12 3 69.596 69.596 0 0 1-21 1 6.541 6.541 0 0 1-3-3c12.804-.619 25.138-3.285 37-8a656.578 656.578 0 0 1 9-7 4.452 4.452 0 0 0-2-1.5c-6.406 5.901-13.74 8.234-22 7 .958-.453 1.792-1.12 2.5-2 1.05 1.017 2.216 1.184 3.5.5a36.546 36.546 0 0 0 6.5-7.5 32.034 32.034 0 0 1 2.5 4c1.152-2.318 2.82-4.152 5-5.5-1.333-.667-1.333-1.333 0-2 1.712-1.75 3.712-2.418 6-2a9.468 9.468 0 0 0-2.5 1.5c-1.271 3.666-.104 6.166 3.5 7.5a9.468 9.468 0 0 0-2.5 1.5 16.707 16.707 0 0 1-2.5 7.5 3.943 3.943 0 0 0 1 2l4 1a47.027 47.027 0 0 0-10 .5c-2.09 3.095-4.756 5.429-8 7z"/><path style="opacity:1" fill="#2a2108" d="M165.5 93.5c6.067.574 10.733 3.407 14 8.5 1.438.219 2.771.719 4 1.5-2.265 1.147-4.598 1.314-7 .5a31.317 31.317 0 0 0-8-5 224.293 224.293 0 0 0-15-1 45.494 45.494 0 0 0 6 5.5c-3.218-.476-6.052-1.809-8.5-4 .667-1.667.667-3.333 0-5 5.237 3.506 10.737 3.84 16.5 1a30.968 30.968 0 0 1-2-2z"/><path style="opacity:1" fill="#523e45" d="M206.5 99.5c-.238 1.904-1.238 3.238-3 4 .238-1.904 1.238-3.238 3-4z"/><path style="opacity:1" fill="#2311ba" d="M214.5 90.5c-.311 3.67-1.978 6.67-5 9a6.846 6.846 0 0 0-1 4 23.776 23.776 0 0 0-6 2.5c-.837 1.011-1.17 2.178-1 3.5h-3c1.051-.722 1.718-1.722 2-3a6.547 6.547 0 0 1 3-3c1.762-.762 2.762-2.096 3-4 .667 0 1-.333 1-1a99.65 99.65 0 0 0 7-8z"/><path style="opacity:1" fill="#786702" d="M95.5 107.5c2.466-1.134 5.133-1.301 8-.5.556.383.889.883 1 1.5a29.23 29.23 0 0 0-9-1z"/><path style="opacity:1" fill="#261c05" d="M129.5 116.5v-3c-6.9 3.321-11.9 1.488-15-5.5l1-1.5c3.405 3.648 7.239 3.981 11.5 1 .307-4.865-.193-9.531-1.5-14 .64-1.832 1.64-2.165 3-1a14.978 14.978 0 0 0-1 4.5l2 6a22.202 22.202 0 0 1-2 7.5c.324 2.069 1.158 2.402 2.5 1 .78 1.887.613 3.554-.5 5z"/><path style="opacity:1" fill="#685f0a" d="M66.5 111.5c.237 1.291-.096 2.291-1 3-.304-2.296-1.304-2.629-3-1 .605-1.526 1.771-2.526 3.5-3 .399.228.565.562.5 1z"/><path style="opacity:1" fill="#231810" d="M200.5 106.5c-.282 1.278-.949 2.278-2 3a16.635 16.635 0 0 0-5 6 21.415 21.415 0 0 0-5 6c.338-3.992.671-7.992 1-12 3.113-2.692 6.779-3.692 11-3z"/><path style="opacity:1" fill="#2c2104" d="M44.5 105.5c-1.779 1.17-2.779 2.836-3 5a438.18 438.18 0 0 1-19 .5c-.613 3.03-.613 5.863 0 8.5-2.966-2.618-3.633-5.785-2-9.5 8.458.482 16.458-1.018 24-4.5z"/><path style="opacity:1" fill="#16130a" d="M159.5 103.5c5.238 1.043 10.238 2.877 15 5.5 4.449 3.711 6.282 8.544 5.5 14.5.2 1.82 1.034 3.153 2.5 4-.333 1-1 1.667-2 2-3.47.625-6.304-.375-8.5-3-1.051 7.64-4.551 8.973-10.5 4a74.855 74.855 0 0 1-6 5.5 8.43 8.43 0 0 1-4 .5 8.43 8.43 0 0 1-.5 4 104.21 104.21 0 0 0-2-9c2.858 3.905 5.525 3.905 8 0 2.12-11.409-1.713-14.409-11.5-9-.886 2.616-.22 4.949 2 7l-.5 1c-1.908-2.832-2.741-2.499-2.5 1-2.825.419-4.991-.581-6.5-3a70.181 70.181 0 0 1-3 13c-.026 2.605-1.193 3.771-3.5 3.5 2.989-5.124 4.489-10.624 4.5-16.5-2.487-5.831-6.654-7.498-12.5-5 1.268-1.547 2.935-2.547 5-3 3.867.15 7.867.317 12 .5 1.304-.804 1.971-1.971 2-3.5-.769-2.604-2.436-4.438-5-5.5 2.858-.409 5.191.591 7 3a20.093 20.093 0 0 0 6 1.5 12.93 12.93 0 0 0-.5-5c-2.628-1.256-3.628-3.256-3-6a36.45 36.45 0 0 0 8.5 9 11.284 11.284 0 0 0 6 2c2.755.41 4.088-.756 4-3.5-1.898-2.42-2.898-5.254-3-8.5-1.291.237-2.291-.096-3-1z"/><path style="opacity:1" fill="#1f1a96" d="M198.5 109.5c-.747 2.862-2.414 4.862-5 6a16.635 16.635 0 0 1 5-6z"/><path style="opacity:1" fill="#f6d30f" d="M14.5 17.5a1289.467 1289.467 0 0 1 1.5 51c1.558-.845 2.558-.178 3 2 .278-.916.778-1.582 1.5-2a32.437 32.437 0 0 0 .5 8c.278.916.778 1.582 1.5 2 .667 2.667 2.333 4.333 5 5 2.453.717 4.787 1.884 7 3.5 2.646.497 5.313.664 8 .5 8.26 1.234 15.594-1.099 22-7a4.452 4.452 0 0 1 2 1.5 656.578 656.578 0 0 0-9 7c-11.862 4.715-24.196 7.381-37 8a6.541 6.541 0 0 0 3 3c7.048.73 14.048.397 21-1a78.96 78.96 0 0 1 12-3 38.44 38.44 0 0 0-5 5.5 36.063 36.063 0 0 0-7 4c-7.542 3.482-15.542 4.982-24 4.5-1.633 3.715-.966 6.882 2 9.5.11.617.444 1.117 1 1.5 3.873.238 7.54 1.071 11 2.5a286.313 286.313 0 0 1 23-5.5 32.864 32.864 0 0 0 5-4.5c1.696-1.629 2.696-1.296 3 1a143.435 143.435 0 0 1-35 24 34.163 34.163 0 0 1-10 1c-.343 1.983.323 3.317 2 4 5.792 1.622 11.459.955 17-2a131.587 131.587 0 0 0 12-7.5A148.509 148.509 0 0 0 70 115.5c.464.594.631 1.261.5 2a18.47 18.47 0 0 0-4 6c-2.7 1.734-4.7 4.068-6 7-2 1.333-3.667 3-5 5a57.484 57.484 0 0 0-9 9 5013.735 5013.735 0 0 1-13 7.5c-3.71.844-7.377 1.844-11 3-1.729 3.491-1.062 6.325 2 8.5a43.788 43.788 0 0 0 6 2c.949.652 2.115.986 3.5 1 3.106-.307 5.94-1.307 8.5-3 5 2.115 9 .948 12-3.5 4.374-.875 7.374-3.375 9-7.5 1.695-.674 3.362-1.341 5-2a54.538 54.538 0 0 0 6.5-6l1.5 1.5a38.44 38.44 0 0 0-5 5.5 210.848 210.848 0 0 1-28 26.5 104.61 104.61 0 0 0-12 6.5c1.921 1.141 3.921 1.308 6 .5 3.684-.907 7.018-2.407 10-4.5 2.352-.84 4.352-2.174 6-4 6.918-4.248 12.918-9.581 18-16 5.518-4.17 9.851-9.17 13-15 1.424-1.531 2.091-1.198 2 1-11.75 24.75-30.083 42.75-55 54-1.13 2.128-1.296 4.461-.5 7 .816 1.323 1.983 1.989 3.5 2 3.476 1.143 7.142 1.31 11 .5a97.445 97.445 0 0 0 21-9A205.649 205.649 0 0 0 89 180.5a28.043 28.043 0 0 1 1.5-5c4.288-3.197 5.621-7.197 4-12 .652-1.225 1.819-1.892 3.5-2l3.5 1c-4.009 12.845-9.842 24.845-17.5 36A108.754 108.754 0 0 1 68.5 218c2.413.484 4.746.15 7-1 12.954-15.256 23.12-32.089 30.5-50.5.671-.752 1.504-1.086 2.5-1a56.433 56.433 0 0 1-2.5 10 251.409 251.409 0 0 1-16 33 122.774 122.774 0 0 1-10 11 8.435 8.435 0 0 0-.5 4c.812 1.493 2.145 2.16 4 2 1.226-.02 2.226-.353 3-1 2.222-.614 3.89-1.948 5-4 6.64-1.809 10.807-6.143 12.5-13 5.898-3.18 9.231-8.18 10-15a222.343 222.343 0 0 1 12-21c2.829 5.312 4.329 10.979 4.5 17l-12 15a418.597 418.597 0 0 0-24 25.5c.228.399.562.565 1 .5l-1 2c-1.406.473-2.073 1.473-2 3-3 2.333-5.667 5-8 8-.876.131-1.543-.202-2-1a162.835 162.835 0 0 1-4-11c-2.624-7.312-7.624-9.812-15-7.5-.88.708-1.547 1.542-2 2.5-1.946.535-2.946 1.868-3 4-1.297 2.193-1.297 4.527 0 7 1.35-1.45 3.017-2.117 5-2-.278 1.846.389 3.18 2 4 2.162-1.52 4.495-2.52 7-3 .303 5.285 2.637 9.285 7 12-5.736.945-10.736-.389-15-4-.453-.958-1.12-1.792-2-2.5-5.323-1.689-9.323-.189-12 4.5-1.673.843-2.84 2.176-3.5 4-1.03 5.394.47 9.894 4.5 13.5 2.471.706 4.805.373 7-1-3.962-1.751-5.295-4.584-4-8.5.617-.111 1.117-.444 1.5-1 3.48 2.97 6.314 2.47 8.5-1.5a16.597 16.597 0 0 1 7 .5 10.177 10.177 0 0 1 3 3l-4 5c-1.406.473-2.073 1.473-2 3-2.087 1.085-3.42 2.751-4 5-1.667 1-3 2.333-4 4a120.757 120.757 0 0 0-12 14l-2 2c-1.574-.437-2.741-1.437-3.5-3-14.012-22.013-22.845-46.013-26.5-72 .3-7.396-.2-14.729-1.5-22-.5-57.666-.667-115.332-.5-173z"/><path style="opacity:1" fill="#332168" d="M188.5 121.5c-.333 2.333-1.667 3.667-4 4 1-1.667 2.333-3 4-4z"/><path style="opacity:1" fill="#1e1504" d="M66.5 111.5c1.548.321 2.215 1.321 2 3 6.496-.586 7.163.414 2 3a2.427 2.427 0 0 0-.5-2A148.509 148.509 0 0 1 51.5 134a131.587 131.587 0 0 1-12 7.5c-5.541 2.955-11.208 3.622-17 2a44.043 44.043 0 0 0-1-2 34.25 34.25 0 0 1 8-1.5c.556-.383.89-.883 1-1.5a143.435 143.435 0 0 0 35-24c.904-.709 1.237-1.709 1-3z"/><path style="opacity:1" fill="#2f2308" d="M122.5 123.5c-.844 2.259-2.511 3.259-5 3v4c-3.581.362-6.581-.638-9-3 2.419 2.362 5.419 3.362 9 3v-4c2.489.259 4.156-.741 5-3z"/><path style="opacity:1" fill="#362083" d="M184.5 125.5c.131 2.867-1.203 4.533-4 5v-1c1-.333 1.667-1 2-2 .333-1 1-1.667 2-2z"/><path style="opacity:1" fill="#312a12" d="M70.5 117.5v8c1.777.286 3.444.953 5 2 2.657-1.502 5.323-2.669 8-3.5-6.406 3.662-6.573 7.495-.5 11.5 2.449-1.646 4.949-2.813 7.5-3.5A144.075 144.075 0 0 0 77 147.5c-1.451 1.964-3.284 3.297-5.5 4a38.44 38.44 0 0 1 5-5.5l-1.5-1.5a54.538 54.538 0 0 1-6.5 6c3.003-3.541 5.503-7.541 7.5-12 .72 1.612.554 3.112-.5 4.5 3.352.01 5.685-1.656 7-5-1.104-1.82-2.604-3.32-4.5-4.5-.76-1.997-1.26-3.663-1.5-5-3 3.667-6.333 7-10 10l-1-1a32.342 32.342 0 0 0 8-8.5c-2.874-1.299-4.707-3.465-5.5-6.5-.383.556-.883.889-1.5 1a18.47 18.47 0 0 1 4-6z"/><path style="opacity:1" fill="#534104" d="M279.5 9.5c.61.891.943 1.891 1 3 0 .667-.333 1-1 1a8845.591 8845.591 0 0 0-266-2c-.167 61.334 0 122.668.5 184 .315 5.884 1.149 11.551 2.5 17 3.655 25.987 12.488 49.987 26.5 72 .759 1.563 1.926 2.563 3.5 3v1c-.904.709-1.237 1.709-1 3a199.088 199.088 0 0 1-16.5-26 347.41 347.41 0 0 0-10-28 1118.205 1118.205 0 0 1-6-29 6815.997 6815.997 0 0 1-1.5-199h268z"/><path style="opacity:1" fill="#0e0904" d="M68.5 150.5c-1.638.659-3.305 1.326-5 2-1.626 4.125-4.626 6.625-9 7.5-3 4.448-7 5.615-12 3.5-2.56 1.693-5.394 2.693-8.5 3-1.385-.014-2.551-.348-3.5-1 .11-.617.444-1.117 1-1.5a24.935 24.935 0 0 0-7-.5c-3.062-2.175-3.729-5.009-2-8.5a133.761 133.761 0 0 1 11-3c4.388-2.523 8.721-5.023 13-7.5 4-2 7-5 9-9 2.667-.667 4.333-2.333 5-5 1.3-2.932 3.3-5.266 6-7 .617-.111 1.117-.444 1.5-1 .793 3.035 2.626 5.201 5.5 6.5a32.342 32.342 0 0 1-8 8.5l1 1c3.667-3 7-6.333 10-10 .24 1.337.74 3.003 1.5 5 1.896 1.18 3.396 2.68 4.5 4.5-1.315 3.344-3.648 5.01-7 5 1.054-1.388 1.22-2.888.5-4.5-1.997 4.459-4.497 8.459-7.5 12z"/><path style="opacity:1" fill="#544002" d="M60.5 130.5c-.667 2.667-2.333 4.333-5 5 1.333-2 3-3.667 5-5z"/><path style="opacity:1" fill="#221a9a" d="M176.5 135.5c-.231 2.563-1.565 4.23-4 5 .58-2.249 1.913-3.915 4-5z"/><path style="opacity:1" fill="#4a3908" d="M55.5 135.5c-2 4-5 7-9 9a57.484 57.484 0 0 1 9-9z"/><path style="opacity:1" fill="#715c06" d="M30.5 138.5c-.11.617-.444 1.117-1 1.5a34.25 34.25 0 0 0-8 1.5c.363.683.696 1.35 1 2-1.677-.683-2.343-2.017-2-4a34.163 34.163 0 0 0 10-1z"/><path style="opacity:1" fill="#504719" d="M86.5 146.5c.091-2.198-.576-2.531-2-1 1.466-2.747 2.3-5.747 2.5-9-.288 3.642 1.212 6.142 4.5 7.5-2.003.335-3.67 1.168-5 2.5z"/><path style="opacity:1" fill="#252186" d="M166.5 147.5a5.727 5.727 0 0 1-1 3l-4 3c.919-2.589 2.586-4.589 5-6z"/><path style="opacity:1" fill="#fad50c" d="M271.5 152.5c.939 2.606 2.606 4.606 5 6v14a53.622 53.622 0 0 0-6.5 8 54.7 54.7 0 0 1-5.5 4 35.28 35.28 0 0 0-10.5 3 40.914 40.914 0 0 1-.5-9c-2.885-.306-5.552.027-8 1-2.45 2.129-4.117 4.796-5 8-.961 1.765-1.295 3.765-1 6h-6v-4c.745-2.89 1.412-5.89 2-9 1.81-2.645 2.81-5.645 3-9 .768-.763 1.268-1.763 1.5-3l1 1c.497-2.646.664-5.313.5-8 1.701-.711 2.701-2.045 3-4 2.897-.93 5.23-2.597 7-5a65.97 65.97 0 0 1 9.5-2 58.696 58.696 0 0 0 10.5 2z"/><path style="opacity:1" fill="#816440" d="M244.5 157.5c-.299 1.955-1.299 3.289-3 4 .054-2.132 1.054-3.465 3-4z"/><path style="opacity:1" fill="#534101" d="M24.5 163.5c2.357-.163 4.69.003 7 .5-.556.383-.89.883-1 1.5a43.788 43.788 0 0 1-6-2z"/><path style="opacity:1" fill="#0101f9" d="M277.5 18.5c1.333 22.99 2 46.324 2 70l-1 70a31.147 31.147 0 0 0-2-2c-2.131-1.159-3.464-2.992-4-5.5-5.253-2.604-10.587-3.104-16-1.5a16.339 16.339 0 0 0-5 2c-2.973 1.31-5.307 3.31-7 6-1.946.535-2.946 1.868-3 4-.667 0-1 .333-1 1-.65.304-1.317.637-2 1a61.568 61.568 0 0 0-2 10v1c-1.586 1.581-2.586 3.581-3 6-.457.798-1.124 1.131-2 1v-10c-.172-.992.162-1.658 1-2 2.466-3.518 3.466-7.518 3-12 1.1-1.105 1.767-2.438 2-4 1.267-1.811 2.6-3.644 4-5.5-1.349-1.635-1.182-3.135.5-4.5.792-5.788.292-11.454-1.5-17 .346-1.196.846-1.196 1.5 0l1-3 1 1a4.934 4.934 0 0 0 .5-3c-2.327-.253-4.327.414-6 2a23.65 23.65 0 0 0-3-3.5l2-1a21.772 21.772 0 0 0-7-3.5h-2v-1a308.918 308.918 0 0 1-3-8c-4.012-.613-6.012 1.054-6 5v2a11.743 11.743 0 0 1-5 3c-1.359-.507-2.359-1.507-3-3-1.047 1.422-1.047 2.922 0 4.5-.444 1.762-.944 1.595-1.5-.5a8.43 8.43 0 0 0-.5 4h-3c-1.062 7.826-1.062 15.493 0 23v1a138.497 138.497 0 0 0 3 13c.22 3.468-1.113 4.468-4 3-.706-4.04-3.04-6.373-7-7 0-.667-.333-1-1-1-1.165-3.09-3.498-4.424-7-4h-11a5.727 5.727 0 0 0-3 1h-5a85.006 85.006 0 0 0-4 15c-1.081 5.071.585 8.738 5 11-.317 3.046 1.016 4.713 4 5l3 2c.333 1 1 1.667 2 2-.086.996.248 1.829 1 2.5a65.679 65.679 0 0 0 14 3.5 49.369 49.369 0 0 1-1-11h5c2.088 1.836 3.421 4.169 4 7a20.69 20.69 0 0 1 1 5c-2.888-.51-5.221.156-7 2-1.493.812-2.16 2.145-2 4 .14 1.53.807 2.53 2 3v2c3.141.821 6.475 1.321 10 1.5l1 1-3 1c1.098.77 1.098 1.603 0 2.5-.333 1-1 1.667-2 2-3.41-.116-4.744 1.55-4 5 3.35.165 6.683-.002 10-.5.881-.708 1.547-1.542 2-2.5 3.411-.567 5.411.766 6 4a29.351 29.351 0 0 0 2 12c.499 2.889 1.999 3.556 4.5 2a10.134 10.134 0 0 0 1.5-4c-.295-2.235.039-4.235 1-6 .814-2.131 1.314-4.464 1.5-7 1.356-.88 2.856-1.214 4.5-1 .473 1.406 1.473 2.073 3 2h1c12.847.794 13.18-1.206 1-6a13.227 13.227 0 0 1-2-5h12a23.788 23.788 0 0 0 .5-10c-.671-.752-1.504-1.086-2.5-1h-6v-6a95.99 95.99 0 0 0 5-6c1.545-.952 3.212-1.285 5-1v10c3.288-.427 6.288.24 9 2 .929-1.189 1.262-2.522 1-4 2.119.032 3.452-.968 4-3 3.888-1.225 6.888-3.559 9-7a37.03 37.03 0 0 1 5.5-4c.667 9.333.667 18.667 0 28a4515.34 4515.34 0 0 1-8.5 41v4a24.558 24.558 0 0 0-3 6c-3.236 3.499-4.903 7.833-5 13a57.82 57.82 0 0 1-5 9c-2.756 2.64-5.256 5.64-7.5 9a42.47 42.47 0 0 0-1.5 5c-2.322 1.302-3.655 3.302-4 6a3232.606 3232.606 0 0 1-24 26c-2.249.58-3.915 1.913-5 4-2.665 1.352-4.998 3.018-7 5-9.845 7.83-20.845 13.497-33 17a24.93 24.93 0 0 1-8 1c-.65.304-1.317.637-2 1-2.848-1.976-5.848-2.309-9-1 1.394 1.187 1.227 1.854-.5 2a41.934 41.934 0 0 1-11.5-5.5 9.839 9.839 0 0 1-1-4 33.769 33.769 0 0 0 2-12.5c.06-.543.393-.876 1-1 1.823 1.247 3.823 1.914 6 2h8c.215-1.679-.452-2.679-2-3l-1-2c-1.378-2.375-3.378-4.041-6-5a43.117 43.117 0 0 1 13-1v-3a18.453 18.453 0 0 0-.5-6c-.383-.556-.883-.889-1.5-1v-1c-1.765-.961-3.765-1.295-6-1l1-8 5-4h3a44.866 44.866 0 0 1-1 10c3.198.536 5.865-.131 8-2 2.813.475 4.813-.525 6-3 1.527.073 2.527-.594 3-2 4.246-1.245 7.246-3.912 9-8 .958-.453 1.792-1.119 2.5-2l.5-8c-.022-3.09-.688-5.757-2-8-.086-2.177-.753-4.177-2-6 1.613.468 3.113-.199 4.5-2 .563-1.225.23-2.225-1-3-2.333 1.333-4.667 1.333-7 0-1.584 1.361-3.418 2.028-5.5 2a63.22 63.22 0 0 0-19 2v4c-1.322.17-2.489-.163-3.5-1l-1.5 1.5c1.105 2.12 1.105 4.287 0 6.5-.996-.086-1.829.248-2.5 1l-1 5-1-2a180.452 180.452 0 0 1-3.5 18l-1-6.5c1.353-4.987 2.02-10.154 2-15.5a19.22 19.22 0 0 0 1-6c.958-.453 1.792-1.119 2.5-2 .44-2.366.94-4.699 1.5-7a67.15 67.15 0 0 0 .5-17c-.377-1.442-1.21-2.442-2.5-3 .108-2.014-.558-3.68-2-5-.333-2.333-1.667-3.667-4-4-1.171-4.388-3.671-7.722-7.5-10-1.376.184-2.209.851-2.5 2h-3c.214 1.644-.12 3.144-1 4.5-2.057.305-4.057.305-6 0a7.248 7.248 0 0 0-2 2.5c1.145 1.391 1.145 2.724 0 4-1.391-1.145-2.724-1.145-4 0 .825.886 1.825 1.219 3 1 .219 1.175-.114 2.175-1 3-1.391-1.145-2.724-1.145-4 0 .47 5.326.803 10.826 1 16.5a43.508 43.508 0 0 1-1.5 12.5l-1-4c-3.697 1.143-4.197.31-1.5-2.5-2.877-.725-5.543-.225-8 1.5a51.77 51.77 0 0 0-14-3c-1.104 1.131-.77 1.965 1 2.5-1.442.377-2.442 1.21-3 2.5-1.527-.073-2.527.594-3 2a27.586 27.586 0 0 1-5 1.5 69.136 69.136 0 0 0 1 15.5c-.172.992.162 1.658 1 2-.343 1.983.323 3.317 2 4-.073 1.527.594 2.527 2 3 .667 2.667 2.333 4.333 5 5-.086.996.248 1.829 1 2.5a46.45 46.45 0 0 0 15 5 285.14 285.14 0 0 0 2 9.5c.333 1 1 1.667 2 2v1c1.452.802 3.118 1.302 5 1.5a100.262 100.262 0 0 1-2 5.5c-1.316-2.528-2.483-2.528-3.5 0-.743 1.941-.576 3.774.5 5.5l15 1c-1.109 1.813-.442 2.646 2 2.5a4.934 4.934 0 0 1-.5 3c-2.29-2.095-4.79-2.762-7.5-2 1.746 2.354 4.079 3.354 7 3v3h3c.214 1.644-.12 3.144-1 4.5l3 1c-.88 1.356-1.214 2.856-1 4.5l-8-1c-3.959-2.332-8.293-3.665-13-4a113.189 113.189 0 0 1-20-10c-.473-1.406-1.473-2.073-3-2-4.103-1.716-7.436-4.383-10-8a66.426 66.426 0 0 1-6-7.5l1-1a12.93 12.93 0 0 0-5-.5c-.203-1.544-.87-2.878-2-4-1.79-2.461-4.123-4.127-7-5a103.05 103.05 0 0 1-11-13 29.221 29.221 0 0 1-1-9 132.121 132.121 0 0 1 9.5-10 10.122 10.122 0 0 0 1.5-4c2.642.012 3.975-1.321 4-4 2-1.333 3.667-3 5-5l1-2c2.743-1.739 4.743-4.073 6-7v-2h2c1.656-1.96 3.323-3.96 5-6l1-2c3.403-2.4 6.07-5.4 8-9 1.406-.473 2.073-1.473 2-3l1-2 3-2c3.254-1.827 5.587-4.493 7-8 4.357-5.352 8.69-10.686 13-16 1.871-.359 3.371-1.359 4.5-3a2174.03 2174.03 0 0 1 9.5-13c4.457-3.119 7.791-7.119 10-12 .902-1.841 2.236-3.174 4-4 3.736-1.568 6.236-4.234 7.5-8l9-8c1.438-1.4 2.271-3.067 2.5-5a5.727 5.727 0 0 0 1-3 30.326 30.326 0 0 1 6-7c2.435-.77 3.769-2.437 4-5 .611-2.275 1.945-3.941 4-5 2.797-.467 4.131-2.133 4-5 2.333-.333 3.667-1.667 4-4a21.415 21.415 0 0 1 5-6c2.586-1.138 4.253-3.138 5-6h3c-.17-1.322.163-2.489 1-3.5a23.776 23.776 0 0 1 6-2.5 6.846 6.846 0 0 1 1-4c3.022-2.33 4.689-5.33 5-9 2.6-1.419 5.1-3.085 7.5-5a29.705 29.705 0 0 1 4.5-8 87.04 87.04 0 0 1 8.5-7c2.238-1.81 3.405-4.142 3.5-7a422.33 422.33 0 0 1 22-27v-1c3-1 5-3 6-6 .333-1 1-1.667 2-2l4-3c1.69-2.02 3.356-4.02 5-6z"/><path style="opacity:1" fill="#574530" d="m203.5 160.5 2 1v2c-1.406-.473-2.073-1.473-2-3z"/><path style="opacity:1" fill="#866e3c" d="M199.5 155.5c2.087 1.085 3.42 2.751 4 5-2.087-1.085-3.42-2.751-4-5z"/><path style="opacity:1" fill="#220ea0" d="M198.5 154.5c3.96.627 6.294 2.96 7 7l-2-1c-.58-2.249-1.913-3.915-4-5-.667 0-1-.333-1-1z"/><path style="opacity:1" fill="#6e5947" d="M251.5 151.5v1c-1.77 2.403-4.103 4.07-7 5 1.693-2.69 4.027-4.69 7-6z"/><path style="opacity:1" fill="#f7d30e" d="M179.5 149.5h11a831.794 831.794 0 0 0 7 4c.667 0 1 .333 1 1s.333 1 1 1c.58 2.249 1.913 3.915 4 5-.073 1.527.594 2.527 2 3a20.69 20.69 0 0 0 1 5 19.22 19.22 0 0 0 1 6c.209 2.214-.624 3.881-2.5 5-2.983-1.232-5.816-1.232-8.5 0-.992-.172-1.658.162-2 1-.667 0-1 .333-1 1-.961 1.765-1.295 3.765-1 6a51.569 51.569 0 0 0-7-1 5.727 5.727 0 0 0-3-1c-.473-1.406-1.473-2.073-3-2l-3-2a802.777 802.777 0 0 1-4-5c-5.226-6.986-5.226-13.986 0-21 1.667-1 3-2.333 4-4 1.527.073 2.527-.594 3-2z"/><path style="opacity:1" fill="#381d79" d="M236.5 150.5h1v3c-.233 1.562-.9 2.895-2 4h-1c1.433-2.058 2.1-4.392 2-7z"/><path style="opacity:1" fill="#856451" d="M176.5 151.5c-1 1.667-2.333 3-4 4 .333-2.333 1.667-3.667 4-4z"/><path style="opacity:1" fill="#a9963c" d="M256.5 149.5c5.468-.633 10.468.367 15 3a58.696 58.696 0 0 1-10.5-2 65.97 65.97 0 0 0-9.5 2v-1a16.339 16.339 0 0 1 5-2z"/><path style="opacity:1" fill="#2f198e" d="M190.5 149.5c3.502-.424 5.835.91 7 4a831.794 831.794 0 0 1-7-4z"/><path style="opacity:1" fill="#a88b36" d="M208.5 148.5c2.451 2.396 3.451 5.396 3 9-1.572-2.715-2.572-5.715-3-9z"/><path style="opacity:1" fill="#4f3754" d="M179.5 149.5c-.473 1.406-1.473 2.073-3 2v-1a5.727 5.727 0 0 1 3-1z"/><path style="opacity:1" fill="#504944" d="M238.5 147.5a5.727 5.727 0 0 1-1 3h-1c-.073-1.527.594-2.527 2-3z"/><path style="opacity:1" fill="#2b1790" d="M256.5 149.5c5.413-1.604 10.747-1.104 16 1.5.536 2.508 1.869 4.341 4 5.5v2c-2.394-1.394-4.061-3.394-5-6-4.532-2.633-9.532-3.633-15-3z"/><path style="opacity:1" fill="#5d3e46" d="M206.5 141.5h1a21.435 21.435 0 0 1 1 7l-2-3v-4z"/><path style="opacity:1" fill="#84732f" d="M208.5 127.5a82.73 82.73 0 0 0-1 14h-1a72.367 72.367 0 0 1 .5-12c.278-.916.778-1.582 1.5-2z"/><path style="opacity:1" fill="#2f2651" d="M239.5 133.5c1.138 2.804 1.305 5.804.5 9-.383.556-.883.889-1.5 1v-2c.973-2.448 1.306-5.115 1-8z"/><path style="opacity:1" fill="#8b7940" d="M235.5 123.5c2.415 2.84 3.748 6.173 4 10 .306 2.885-.027 5.552-1 8a50.464 50.464 0 0 0-.5-10c-1.707-2.409-2.54-5.075-2.5-8z"/><path style="opacity:1" fill="#4b3e34" d="M210.5 123.5c.073 1.527-.594 2.527-2 3-.073-1.527.594-2.527 2-3z"/><path style="opacity:1" fill="#0e06dd" d="M230.5 115.5a21.772 21.772 0 0 1 7 3.5l-2 1a23.65 23.65 0 0 1 3 3.5c1.673-1.586 3.673-2.253 6-2a4.934 4.934 0 0 1-.5 3l-1-1-1 3c-.654-1.196-1.154-1.196-1.5 0 1.792 5.546 2.292 11.212 1.5 17-1.682 1.365-1.849 2.865-.5 4.5a190.093 190.093 0 0 0-4 5.5v-3a5.727 5.727 0 0 0 1-3v-4c.617-.111 1.117-.444 1.5-1 .805-3.196.638-6.196-.5-9-.252-3.827-1.585-7.16-4-10a5.727 5.727 0 0 1-1-3 14.555 14.555 0 0 0-4-5z"/><path style="opacity:1" fill="#f8d40e" d="M224.5 110.5c-.073 1.527.594 2.527 2 3l2 1v1c1.391 2.39 3.391 4.057 6 5a5.727 5.727 0 0 0 1 3c-.04 2.925.793 5.591 2.5 8 .498 3.317.665 6.65.5 10v6c-1.406.473-2.073 1.473-2 3 .1 2.608-.567 4.942-2 7a18.974 18.974 0 0 0-2 8c-1.574 1.602-2.241 3.602-2 6 .202 2.45-.131 4.783-1 7-.987 4.805-1.321 9.805-1 15h-11c.321-5.526-.012-10.86-1-16-.09-3.714-1.09-7.048-3-10-.253-3.54-.919-6.873-2-10 .451-3.604-.549-6.604-3-9a21.435 21.435 0 0 0-1-7 82.73 82.73 0 0 1 1-14v-1c1.406-.473 2.073-1.473 2-3 3.476-2.988 6.476-6.321 9-10a11.743 11.743 0 0 1 5-3z"/><path style="opacity:1" fill="#907c43" d="M219.5 113.5c-2.524 3.679-5.524 7.012-9 10l4-7a11.743 11.743 0 0 0 5-3z"/><path style="opacity:1" fill="#3b1b82" d="M228.5 115.5h2a14.555 14.555 0 0 1 4 5c-2.609-.943-4.609-2.61-6-5z"/><path style="opacity:1" fill="#170bc2" d="m214.5 116.5-4 7c-1.406.473-2.073 1.473-2 3v1c-.722.418-1.222 1.084-1.5 2a72.367 72.367 0 0 0-.5 12v3c-1.062-7.507-1.062-15.174 0-23h3a8.43 8.43 0 0 1 .5-4c.556 2.095 1.056 2.262 1.5.5-1.047-1.578-1.047-3.078 0-4.5.641 1.493 1.641 2.493 3 3z"/><path style="opacity:1" fill="#6d5f32" d="M224.5 110.5c1.406.473 2.073 1.473 2 3-1.406-.473-2.073-1.473-2-3z"/><path style="opacity:1" fill="#807150" d="M224.5 110.5a11.743 11.743 0 0 0-5 3v-2a514.367 514.367 0 0 0 4-3c.798.457 1.131 1.124 1 2z"/><path style="opacity:1" fill="#1c0fb0" d="m228.5 114.5-2-1c.073-1.527-.594-2.527-2-3 .131-.876-.202-1.543-1-2a514.367 514.367 0 0 1-4 3c-.012-3.946 1.988-5.613 6-5 .948 2.64 1.948 5.307 3 8z"/><path style="opacity:1" fill="#1d0fa4" d="M240.5 162.5c-1.429 2.808-2.095 5.808-2 9l-2 2a61.568 61.568 0 0 1 2-10c.683-.363 1.35-.696 2-1z"/><path style="opacity:1" fill="#26277b" d="M152.5 163.5c-.58 2.249-1.913 3.915-4 5 .58-2.249 1.913-3.915 4-5z"/><path style="opacity:1" fill="#170fc3" d="M165.5 150.5c-.229 1.933-1.062 3.6-2.5 5l-9 8c-1.264 3.766-3.764 6.432-7.5 8-.073-1.527.594-2.527 2-3 2.087-1.085 3.42-2.751 4-5a64.231 64.231 0 0 1 9-10l4-3z"/><path style="opacity:1" fill="#140f06" d="M141.5 175.5a4464.252 4464.252 0 0 0-9 12l-2 1c-.171-6.021-1.671-11.688-4.5-17a222.343 222.343 0 0 0-12 21c-.769 6.82-4.102 11.82-10 15-1.693 6.857-5.86 11.191-12.5 13-1.11 2.052-2.778 3.386-5 4a21.434 21.434 0 0 1-7-1 8.435 8.435 0 0 1 .5-4c3.567-3.477 6.9-7.144 10-11a251.409 251.409 0 0 0 16-33 56.433 56.433 0 0 0 2.5-10c1.638.659 3.305 1.326 5 2 1.956-1.048 3.956-1.548 6-1.5-2.982 1.335-3.482 3.168-1.5 5.5.894-2.633 2.394-4.8 4.5-6.5a11.456 11.456 0 0 0-1-2.5c3.452.88 5.952-.453 7.5-4a92.966 92.966 0 0 0 2.5 15 8.43 8.43 0 0 1 4 .5c-2.383 1.197-2.05 2.03 1 2.5a20.222 20.222 0 0 1 5-1z"/><path style="opacity:1" fill="#2012a5" d="M234.5 157.5h1c.466 4.482-.534 8.482-3 12v-4c.084-2.827.75-5.494 2-8z"/><path style="opacity:1" fill="#a99733" d="M241.5 161.5a32.462 32.462 0 0 1-.5 8l-1-1c-.232 1.237-.732 2.237-1.5 3-.095-3.192.571-6.192 2-9 0-.667.333-1 1-1z"/><path style="opacity:1" fill="#201604" d="M71.5 151.5a640.09 640.09 0 0 1-3 6c.016 2.016 1.016 3.016 3 3-5.082 6.419-11.082 11.752-18 16-2.698.345-4.698 1.678-6 4-2.982 2.093-6.316 3.593-10 4.5-2.079.808-4.079.641-6-.5a104.61 104.61 0 0 1 12-6.5 210.848 210.848 0 0 0 28-26.5z"/><path style="opacity:1" fill="#593e45" d="M232.5 165.5v4c-.838.342-1.172 1.008-1 2h-1c-.241-2.398.426-4.398 2-6z"/><path style="opacity:1" fill="#301497" d="M176.5 150.5v1c-2.333.333-3.667 1.667-4 4-5.226 7.014-5.226 14.014 0 21-4.415-2.262-6.081-5.929-5-11a85.006 85.006 0 0 1 4-15h5z"/><path style="opacity:1" fill="#7f6c31" d="M206.5 168.5c1.574 1.602 2.241 3.602 2 6h-1a19.22 19.22 0 0 1-1-6z"/><path style="opacity:1" fill="#5b4e34" d="M238.5 171.5c-.19 3.355-1.19 6.355-3 9a19.22 19.22 0 0 1 1-6v-1l2-2z"/><path style="opacity:1" fill="#e5c323" d="M207.5 174.5h1v1c-.241 2.398.426 4.398 2 6-.09 2.652.576 4.985 2 7v4c-1.765.961-3.765 1.295-6 1 .446-2.51-.22-4.51-2-6-.579-2.831-1.912-5.164-4-7-1.068-.934-2.401-1.268-4-1 2.684-1.232 5.517-1.232 8.5 0 1.876-1.119 2.709-2.786 2.5-5z"/><path style="opacity:1" fill="#645103" d="M53.5 176.5c-1.648 1.826-3.648 3.16-6 4 1.302-2.322 3.302-3.655 6-4z"/><path style="opacity:1" fill="#1f1995" d="M141.5 175.5h1c-2.209 4.881-5.543 8.881-10 12 2.976-3.982 5.976-7.982 9-12z"/><path style="opacity:1" fill="#2f1a7d" d="M172.5 176.5a802.777 802.777 0 0 0 4 5c-2.984-.287-4.317-1.954-4-5z"/><path style="opacity:1" fill="#706430" d="M208.5 175.5c1.574 1.602 2.241 3.602 2 6-1.574-1.602-2.241-3.602-2-6z"/><path style="opacity:1" fill="#2510b6" d="m206.5 145.5 2 3c.428 3.285 1.428 6.285 3 9 1.081 3.127 1.747 6.46 2 10 1.91 2.952 2.91 6.286 3 10v16c-1.459.067-2.792-.266-4-1v-4c.329-2.728-.337-5.062-2-7 .241-2.398-.426-4.398-2-6v-1c.241-2.398-.426-4.398-2-6a20.69 20.69 0 0 1-1-5v-2c2.887 1.468 4.22.468 4-3a138.497 138.497 0 0 1-3-13z"/><path style="opacity:1" fill="#0203f4" d="M213.5 167.5c.424 4.203-.076 8.203-1.5 12a104.96 104.96 0 0 0-4.5-13.5c.598-1.301 1.598-2.135 3-2.5.65 1.684 1.65 3.017 3 4z"/><path style="opacity:1" fill="#1b0cc0" d="M236.5 174.5a19.22 19.22 0 0 0-1 6c-.588 3.11-1.255 6.11-2 9-.904.709-1.237 1.709-1 3-1.265-1.014-1.931-2.514-2-4.5a38.838 38.838 0 0 1 1-6.5c.876.131 1.543-.202 2-1 .414-2.419 1.414-4.419 3-6z"/><path style="opacity:1" fill="#382362" d="M245.5 179.5c1.915-.284 3.581.049 5 1-1.788-.285-3.455.048-5 1a95.99 95.99 0 0 1-5 6c.883-3.204 2.55-5.871 5-8z"/><path style="opacity:1" fill="#462b6e" d="M276.5 172.5a409.027 409.027 0 0 1-3 6c-2.112 3.441-5.112 5.775-9 7v-1a54.7 54.7 0 0 0 5.5-4 53.622 53.622 0 0 1 6.5-8z"/><path style="opacity:1" fill="#7e6a3f" d="M179.5 183.5c1.527-.073 2.527.594 3 2h-1c-1-.333-1.667-1-2-2z"/><path style="opacity:1" fill="#c8b035" d="M245.5 179.5c2.448-.973 5.115-1.306 8-1a40.914 40.914 0 0 0 .5 9 35.28 35.28 0 0 1 10.5-3v1a5.727 5.727 0 0 0-3 1c-2.286.095-4.286.762-6 2-1.679.215-2.679-.452-3-2 .446-2.51-.22-4.51-2-6-1.419-.951-3.085-1.284-5-1z"/><path style="opacity:1" fill="#211188" d="M230.5 171.5h1v10a38.838 38.838 0 0 0-1 6.5c.069 1.986.735 3.486 2 4.5-.709.904-1.709 1.237-3 1v-15c.869-2.217 1.202-4.55 1-7z"/><path style="opacity:1" fill="#1f1704" d="M108.5 165.5c-.996-.086-1.829.248-2.5 1-7.38 18.411-17.546 35.244-30.5 50.5-2.254 1.15-4.587 1.484-7 1A108.754 108.754 0 0 0 84 198.5c7.658-11.155 13.491-23.155 17.5-36l-3.5-1c-1.681.108-2.848.775-3.5 2a10.526 10.526 0 0 1-3-2.5l11-1a15.645 15.645 0 0 0 4-2.5c.793.855.46 1.689-1 2.5 1.648 1.462 2.648 3.295 3 5.5z"/><path style="opacity:1" fill="#baa73d" d="M193.5 181.5v7h-3a20.69 20.69 0 0 0-5-1v-1c2.361.174 4.694.507 7 1-.295-2.235.039-4.235 1-6z"/><path style="opacity:1" fill="#49353f" d="M210.5 181.5c1.663 1.938 2.329 4.272 2 7-1.424-2.015-2.09-4.348-2-7z"/><path style="opacity:1" fill="#483735" d="M194.5 180.5v9c-1.599.268-2.932-.066-4-1h3v-7c0-.667.333-1 1-1z"/><path style="opacity:1" fill="#2010a8" d="M196.5 179.5c1.599-.268 2.932.066 4 1h-5a49.369 49.369 0 0 0 1 11 65.679 65.679 0 0 1-14-3.5c-.752-.671-1.086-1.504-1-2.5h1c.473 1.406 1.473 2.073 3 2a20.69 20.69 0 0 1 5 1c1.068.934 2.401 1.268 4 1v-9c.342-.838 1.008-1.172 2-1z"/><path style="opacity:1" fill="#403144" d="M182.5 185.5a5.727 5.727 0 0 1 3 1v1c-1.527.073-2.527-.594-3-2z"/><path style="opacity:1" fill="#351c74" d="M132.5 187.5a2174.03 2174.03 0 0 0-9.5 13c-1.129 1.641-2.629 2.641-4.5 3l12-15 2-1z"/><path style="opacity:1" fill="#1a0eb9" d="M250.5 180.5c1.78 1.49 2.446 3.49 2 6-.904.709-1.237 1.709-1 3 1.599.268 2.932-.066 4-1 2.398.241 4.398-.426 6-2a5.727 5.727 0 0 1 3-1c-.548 2.032-1.881 3.032-4 3 .262 1.478-.071 2.811-1 4-2.712-1.76-5.712-2.427-9-2v-10z"/><path style="opacity:1" fill="#554a41" d="M252.5 186.5c.321 1.548 1.321 2.215 3 2-1.068.934-2.401 1.268-4 1-.237-1.291.096-2.291 1-3z"/><path style="opacity:1" fill="#52304e" d="M261.5 186.5c-1.602 1.574-3.602 2.241-6 2 1.714-1.238 3.714-1.905 6-2z"/><path style="opacity:1" fill="#321585" d="M204.5 187.5c1.78 1.49 2.446 3.49 2 6-2.559-.302-4.893.032-7 1h-1c1.779-1.844 4.112-2.51 7-2a20.69 20.69 0 0 0-1-5z"/><path style="opacity:1" fill="#594216" d="M216.5 177.5c.988 5.14 1.321 10.474 1 16h11c-.321-5.195.013-10.195 1-15v15c1.291.237 2.291-.096 3-1-.237-1.291.096-2.291 1-3v4h6c-.295-2.235.039-4.235 1-6v6h6v1h-47c2.107-.968 4.441-1.302 7-1 2.235.295 4.235-.039 6-1 1.208.734 2.541 1.067 4 1v-16z"/><path style="opacity:1" fill="#f8d617" d="M198.5 194.5h48a19.22 19.22 0 0 1 1 6c.172.992-.162 1.658-1 2h-48v-8z"/><path style="opacity:1" fill="#655531" d="M246.5 194.5c1.447.634 2.113 1.801 2 3.5-.028 1.07-.361 1.903-1 2.5a19.22 19.22 0 0 0-1-6z"/><path style="opacity:1" fill="#47287c" d="M198.5 194.5v7c-1.193-.47-1.86-1.47-2-3-.16-1.855.507-3.188 2-4z"/><path style="opacity:1" fill="#5b3c0d" d="M198.5 203.5v-1h48c-4.594.365-8.927 1.365-13 3-3.238-1.248-6.738-1.915-10.5-2-3.762.085-7.262.752-10.5 2-4.215-1.936-8.881-2.603-14-2z"/><path style="opacity:1" fill="#150ea6" d="M198.5 203.5c5.119-.603 9.785.064 14 2-1.667 1-3 2.333-4 4h-2c1.098-.897 1.098-1.73 0-2.5l3-1-1-1c-3.525-.179-6.859-.679-10-1.5z"/><path style="opacity:1" fill="#230e9d" d="M246.5 194.5v-1c.996-.086 1.829.248 2.5 1a23.788 23.788 0 0 1-.5 10h-12a13.227 13.227 0 0 0 2 5c-2.275-.611-3.941-1.945-5-4 4.073-1.635 8.406-2.635 13-3 .838-.342 1.172-1.008 1-2 .639-.597.972-1.43 1-2.5.113-1.699-.553-2.866-2-3.5z"/><path style="opacity:1" fill="#564304" d="M31.5 200.5c-.576 3.612.424 6.612 3 9-1.517-.011-2.684-.677-3.5-2-.796-2.539-.63-4.872.5-7z"/><path style="opacity:1" fill="#f2cf1b" d="M233.5 205.5c1.059 2.055 2.725 3.389 5 4a6.547 6.547 0 0 0 3 3c-1.052 1.756-2.719 2.423-5 2a5.727 5.727 0 0 0-3-1c-1.395-1.8-3.061-2.134-5-1a23.832 23.832 0 0 0-1 9c-.961 1.765-1.295 3.765-1 6-1.548.321-2.215 1.321-2 3-1.291.237-2.291-.096-3-1 .115-4.388-.885-8.388-3-12 .277-4.739-1.723-6.405-6-5-2.099.731-4.099.731-6 0a185.977 185.977 0 0 0 2-3c2.333-.333 3.667-1.667 4-4 3.238-1.248 6.738-1.915 10.5-2 3.762.085 7.262.752 10.5 2z"/><path style="opacity:1" fill="#847244" d="M212.5 205.5c-.333 2.333-1.667 3.667-4 4 1-1.667 2.333-3 4-4z"/><path style="opacity:1" fill="#3c2757" d="M218.5 217.5c-.589-3.234-2.589-4.567-6-4v-1c4.277-1.405 6.277.261 6 5z"/><path style="opacity:1" fill="#b19f37" d="M206.5 209.5h2c-.641.982-1.307 1.982-2 3 1.901.731 3.901.731 6 0v1c-3.447 2.054-7.114 2.387-11 1 .84-1.235 1.84-2.235 3-3 1-.333 1.667-1 2-2z"/><path style="opacity:1" fill="#362256" d="M233.5 213.5a5.727 5.727 0 0 1 3 1v1c-1.527.073-2.527-.594-3-2z"/><path style="opacity:1" fill="#967a43" d="M241.5 212.5a7.47 7.47 0 0 1 3 2 13.116 13.116 0 0 1-7 1h-1v-1c2.281.423 3.948-.244 5-2z"/><path style="opacity:1" fill="#2c1d98" d="M238.5 209.5c12.18 4.794 11.847 6.794-1 6a13.116 13.116 0 0 0 7-1 7.47 7.47 0 0 0-3-2 6.547 6.547 0 0 1-3-3z"/><path style="opacity:1" fill="#2b1695" d="M204.5 211.5c-1.16.765-2.16 1.765-3 3 3.886 1.387 7.553 1.054 11-1-.453.958-1.119 1.792-2 2.5-3.317.498-6.65.665-10 .5-.744-3.45.59-5.116 4-5z"/><path style="opacity:1" fill="#3c2d43" d="M233.5 213.5c-1.644-.214-3.144.12-4.5 1-.186 2.536-.686 4.869-1.5 7a23.832 23.832 0 0 1 1-9c1.939-1.134 3.605-.8 5 1z"/><path style="opacity:1" fill="#513c25" d="M118.5 203.5c-4.31 5.314-8.643 10.648-13 16-3.073 2.069-5.406 4.736-7 8l-3 2c-.438.065-.772-.101-1-.5a418.597 418.597 0 0 1 24-25.5z"/><path style="opacity:1" fill="#281792" d="M105.5 219.5c-1.413 3.507-3.746 6.173-7 8 1.594-3.264 3.927-5.931 7-8z"/><path style="opacity:1" fill="#9a8846" d="M140.5 225.5a43.836 43.836 0 0 1-2-1 514.367 514.367 0 0 1-4 3c.233-1.562.9-2.895 2-4 2.329-1.502 3.663-.836 4 2z"/><path style="opacity:1" fill="#2e149b" d="M146.5 231.5a25.619 25.619 0 0 0-6-6c-.337-2.836-1.671-3.502-4-2 .291-1.149 1.124-1.816 2.5-2 3.829 2.278 6.329 5.612 7.5 10z"/><path style="opacity:1" fill="#585000" d="M79.5 223.5a21.434 21.434 0 0 0 7 1c-.774.647-1.774.98-3 1-1.855.16-3.188-.507-4-2z"/><path style="opacity:1" fill="#ac9b33" d="M218.5 217.5c2.115 3.612 3.115 7.612 3 12h-1a29.351 29.351 0 0 1-2-12z"/><path style="opacity:1" fill="#3a3444" d="M278.5 217.5a76.926 76.926 0 0 0-1 10c.268 1.599-.066 2.932-1 4l-2 4a133.554 133.554 0 0 1 2.5-16c.278-.916.778-1.582 1.5-2z"/><path style="opacity:1" fill="#ed0d04" d="M58.5 229.5c.054-2.132 1.054-3.465 3-4 2.715-1.623 5.715-2.29 9-2 .34 2.644-.327 4.977-2 7a39.699 39.699 0 0 1-10 2v-3z"/><path style="opacity:1" fill="#f20806" d="M78.5 230.5c-.35 3.554.316 6.888 2 10-.535 1.601-1.535 2.101-3 1.5-1.081-2.685-2.748-4.851-5-6.5a112.088 112.088 0 0 0-5-2 37.373 37.373 0 0 0 7-5l4 2z"/><path style="opacity:1" fill="#3e3634" d="M132.5 229.5c-.333 1-1 1.667-2 2 0-1.333.667-2 2-2z"/><path style="opacity:1" fill="#3e2674" d="M226.5 227.5a10.134 10.134 0 0 1-1.5 4c-2.501 1.556-4.001.889-4.5-2h1c.709.904 1.709 1.237 3 1-.215-1.679.452-2.679 2-3z"/><path style="opacity:1" fill="#3d2e2a" d="M130.5 231.5c-.333 1-1 1.667-2 2 0-1.333.667-2 2-2z"/><path style="opacity:1" fill="#422951" d="M146.5 231.5c2.333.333 3.667 1.667 4 4-1.667-1-3-2.333-4-4z"/><path style="opacity:1" fill="#b32b01" d="m78.5 230.5-4-2a37.373 37.373 0 0 1-7 5c1.791.67 3.458 1.337 5 2-2.505.48-4.838 1.48-7 3-1.611-.82-2.278-2.154-2-4-1.983-.117-3.65.55-5 2-1.297-2.473-1.297-4.807 0-7v3a39.699 39.699 0 0 0 10-2c1.673-2.023 2.34-4.356 2-7-3.285-.29-6.285.377-9 2 .453-.958 1.12-1.792 2-2.5 7.376-2.312 12.376.188 15 7.5z"/><path style="opacity:1" fill="#382f44" d="M94.5 231.5c.073 1.527-.594 2.527-2 3-.073-1.527.594-2.527 2-3z"/><path style="opacity:1" fill="#f9d40e" d="M140.5 225.5a25.619 25.619 0 0 1 6 6c1 1.667 2.333 3 4 4 1.442 1.32 2.108 2.986 2 5a52.73 52.73 0 0 1 1 8.5 175.945 175.945 0 0 0-3 18.5v2c-2.455 4.234-3.789 8.9-4 14-.888 2.554-1.221 5.221-1 8-.934 1.068-1.268 2.401-1 4-.982 3.462-1.315 7.129-1 11h-10c.313-3.542-.021-6.875-1-10v-1a32.462 32.462 0 0 0-.5-8c-.278-.916-.778-1.582-1.5-2a38.989 38.989 0 0 1-2-12c.073-1.527-.594-2.527-2-3v-1c-.087-3.832-1.087-7.165-3-10h-1v-17c1.406-.473 2.073-1.473 2-3v-1c1.406-.473 2.073-1.473 2-3 0-1.333.667-2 2-2 1-.333 1.667-1 2-2 1-.333 1.667-1 2-2 1-.333 1.667-1 2-2a514.367 514.367 0 0 0 4-3c.683.363 1.35.696 2 1z"/><path style="opacity:1" fill="#412f4c" d="M126.5 235.5c.073 1.527-.594 2.527-2 3-.073-1.527.594-2.527 2-3z"/><path style="opacity:1" fill="#4a305a" d="M92.5 234.5c-1.93 3.6-4.597 6.6-8 9v-1c2.333-3 5-5.667 8-8z"/><path style="opacity:1" fill="#392063" d="M124.5 239.5c.073 1.527-.594 2.527-2 3-.073-1.527.594-2.527 2-3z"/><path style="opacity:1" fill="#363249" d="M274.5 235.5c-.283 4.49-1.617 8.49-4 12v-4l4-8z"/><path style="opacity:1" fill="#be2707" d="M78.5 230.5a162.835 162.835 0 0 0 4 11c.457.798 1.124 1.131 2 1v1l-1 2c-1.562.233-2.895.9-4 2-4.363-2.715-6.697-6.715-7-12 2.252 1.649 3.919 3.815 5 6.5 1.465.601 2.465.101 3-1.5-1.684-3.112-2.35-6.446-2-10z"/><path style="opacity:1" fill="#4d126b" d="M83.5 245.5a575.787 575.787 0 0 1-5 6l1-4c1.105-1.1 2.438-1.767 4-2z"/><path style="opacity:1" fill="#dc1603" d="M64.5 243.5c.404 1.256 1.07 2.423 2 3.5-1.888 2.226-4.055 4.06-6.5 5.5-1.812.007-3.312-.66-4.5-2-.886.825-1.219 1.825-1 3h-3c-.745 6.568-1.412 6.402-2-.5a44.8 44.8 0 0 1 1-7.5c2.677-4.689 6.677-6.189 12-4.5.88.708 1.547 1.542 2 2.5z"/><path style="opacity:1" fill="#ba2206" d="M64.5 243.5c4.264 3.611 9.264 4.945 15 4l-1 4h-7a16.597 16.597 0 0 0-7-.5c-2.186 3.97-5.02 4.47-8.5 1.5-.383.556-.883.889-1.5 1-.219-1.175.114-2.175 1-3 1.188 1.34 2.688 2.007 4.5 2 2.445-1.44 4.612-3.274 6.5-5.5-.93-1.077-1.596-2.244-2-3.5z"/><path style="opacity:1" fill="#894013" d="M71.5 251.5h5v2l-2 1a10.177 10.177 0 0 0-3-3z"/><path style="opacity:1" fill="#b62a01" d="M50.5 245.5a44.8 44.8 0 0 0-1 7.5c.588 6.902 1.255 7.068 2 .5h3c-1.295 3.916.038 6.749 4 8.5-2.195 1.373-4.529 1.706-7 1-4.03-3.606-5.53-8.106-4.5-13.5.66-1.824 1.827-3.157 3.5-4z"/><path style="opacity:1" fill="#2e1f6e" d="M76.5 253.5c-1.257 2.927-3.257 5.261-6 7v-1l4-5 2-1z"/><path style="opacity:1" fill="#b49841" d="M152.5 240.5c1.29.558 2.123 1.558 2.5 3a67.15 67.15 0 0 1-.5 17l-4 7a175.945 175.945 0 0 1 3-18.5 52.73 52.73 0 0 0-1-8.5z"/><path style="opacity:1" fill="#2118a5" d="M267.5 253.5a38.287 38.287 0 0 0-1.5 7c-.876 2.258-2.043 4.258-3.5 6 .097-5.167 1.764-9.501 5-13z"/><path style="opacity:1" fill="#454235" d="M276.5 231.5a39.386 39.386 0 0 1-2.5 13c-11.198 32.359-30.032 59.359-56.5 81l3-4a3232.606 3232.606 0 0 0 24-26c1.826-1.647 3.16-3.647 4-6 3.754-4.106 6.754-8.773 9-14a57.82 57.82 0 0 0 5-9c1.457-1.742 2.624-3.742 3.5-6 .29-2.42.79-4.754 1.5-7a24.558 24.558 0 0 1 3-6c2.383-3.51 3.717-7.51 4-12l2-4z"/><path style="opacity:1" fill="#444b3e" d="M70.5 259.5v1l-1 2h-1c-.073-1.527.594-2.527 2-3z"/><path style="opacity:1" fill="#a58e3d" d="M123.5 259.5c1.913 2.835 2.913 6.168 3 10h-1l-1-4a19.22 19.22 0 0 0-1-6z"/><path style="opacity:1" fill="#1707da" d="M191.5 271.5h-1c-.798-2.466-2.131-4.466-4-6-1.815-1.13-3.815-1.796-6-2v-1c2.082.028 3.916-.639 5.5-2 2.333 1.333 4.667 1.333 7 0 1.23.775 1.563 1.775 1 3-1.387 1.801-2.887 2.468-4.5 2 1.247 1.823 1.914 3.823 2 6z"/><path style="opacity:1" fill="#1a0bd7" d="M136.5 223.5c-1.1 1.105-1.767 2.438-2 4-.333 1-1 1.667-2 2-1.333 0-2 .667-2 2-1.333 0-2 .667-2 2-1.333 0-2 .667-2 2-1.406.473-2.073 1.473-2 3v1c-1.406.473-2.073 1.473-2 3v17c-.241 2.398.426 4.398 2 6l1 4a225.969 225.969 0 0 1 3 17.5 4.934 4.934 0 0 1-3 .5c.38-2.198-.287-3.865-2-5h-1v-2c.073-1.527-.594-2.527-2-3-.76-3.861-2.76-6.861-6-9-.762-1.762-2.096-2.762-4-3-.473-1.406-1.473-2.073-3-2-5.451-1.485-10.784-1.152-16 1 .558-1.29 1.558-2.123 3-2.5-1.77-.535-2.104-1.369-1-2.5a51.77 51.77 0 0 1 14 3c2.457-1.725 5.123-2.225 8-1.5-2.697 2.81-2.197 3.643 1.5 2.5l1 4a43.508 43.508 0 0 0 1.5-12.5 310.265 310.265 0 0 0-1-16.5c1.276-1.145 2.609-1.145 4 0 .886-.825 1.219-1.825 1-3-1.175.219-2.175-.114-3-1 1.276-1.145 2.609-1.145 4 0 1.145-1.276 1.145-2.609 0-4a7.248 7.248 0 0 1 2-2.5c1.943.305 3.943.305 6 0 .88-1.356 1.214-2.856 1-4.5h3z"/><path style="opacity:1" fill="#a38949" d="M107.5 263.5v1a67.819 67.819 0 0 0-18 2c.227 2.433-.773 4.099-3 5l2-5c.473-1.406 1.473-2.073 3-2 5.216-2.152 10.549-2.485 16-1z"/><path style="opacity:1" fill="#3a1c6a" d="M68.5 262.5h1c-1.333 2-3 3.667-5 5 .58-2.249 1.913-3.915 4-5z"/><path style="opacity:1" fill="#30205f" d="M107.5 264.5v-1c1.527-.073 2.527.594 3 2a5.727 5.727 0 0 1-3-1z"/><path style="opacity:1" fill="#2f1a76" d="M122.5 259.5h1a19.22 19.22 0 0 1 1 6c-1.574-1.602-2.241-3.602-2-6z"/><path style="opacity:1" fill="#45305f" d="M110.5 265.5c1.904.238 3.238 1.238 4 3-1.904-.238-3.238-1.238-4-3z"/><path style="opacity:1" fill="#f8d410" d="M170.5 263.5h10c2.185.204 4.185.87 6 2 .429 2.647 1.762 4.647 4 6a52.392 52.392 0 0 1 1 13 5.727 5.727 0 0 0-1 3 48.8 48.8 0 0 1-9 10c-1.527-.073-2.527.594-3 2a31.686 31.686 0 0 0-6 2h-3l-2-7-2-1c-4.004-1.07-6.671.597-8 5-1.371 2.436-2.371 5.103-3 8-1.788.285-3.455-.048-5-1 1.645-3.825 2.312-7.825 2-12a5.727 5.727 0 0 0 1-3v-1c1.574-1.602 2.241-3.602 2-6v-1c1.574-1.602 2.241-3.602 2-6v-1c1-.333 1.667-1 2-2 1.667-1 3-2.333 4-4 0-1.333.667-2 2-2 2.698-.345 4.698-1.678 6-4z"/><path style="opacity:1" fill="#f7d30f" d="M107.5 264.5c.891.61 1.891.943 3 1 .762 1.762 2.096 2.762 4 3 3.24 2.139 5.24 5.139 6 9-.073 1.527.594 2.527 2 3v2c-.09 2.652.576 4.985 2 7v1a5.727 5.727 0 0 0 1 3c-.347 4.579.32 8.912 2 13h-5c-.16-1.653-.826-2.986-2-4 .268-1.599-.066-2.932-1-4-1.33-4.418-4.33-6.085-9-5-.617.111-1.117.444-1.5 1a24.935 24.935 0 0 0-.5 7h-4c-2.93-2.395-6.264-4.062-10-5l-5-4c.073-1.527-.594-2.527-2-3-.16-1.653-.826-2.986-2-4a46.797 46.797 0 0 1 1-13v-1c2.227-.901 3.227-2.567 3-5a67.819 67.819 0 0 1 18-2z"/><path style="opacity:1" fill="#3d207d" d="M154.5 260.5c-.56 2.301-1.06 4.634-1.5 7-.708.881-1.542 1.547-2.5 2v-2l4-7z"/><path style="opacity:1" fill="#8e6f41" d="M170.5 263.5c-1.302 2.322-3.302 3.655-6 4 1.534-1.869 3.534-3.202 6-4z"/><path style="opacity:1" fill="#2413ad" d="m88.5 266.5-2 5v1c-1.914 3.184-2.58 6.851-2 11a69.136 69.136 0 0 1-1-15.5 27.586 27.586 0 0 0 5-1.5z"/><path style="opacity:1" fill="#381a9b" d="M180.5 262.5v1h-10c-2.466.798-4.466 2.131-6 4-1.333 0-2 .667-2 2-2.333.333-3.667 1.667-4 4-.333 1-1 1.667-2 2 1.105-2.213 1.105-4.38 0-6.5l1.5-1.5c1.011.837 2.178 1.17 3.5 1v-4a63.22 63.22 0 0 1 19-2z"/><path style="opacity:1" fill="#877643" d="M186.5 265.5c1.869 1.534 3.202 3.534 4 6-2.238-1.353-3.571-3.353-4-6z"/><path style="opacity:1" fill="#341688" d="M64.5 267.5c-.025 2.679-1.358 4.012-4 4 1-1.667 2.333-3 4-4z"/><path style="opacity:1" fill="#917849" d="M162.5 269.5c-1 1.667-2.333 3-4 4 .333-2.333 1.667-3.667 4-4z"/><path style="opacity:1" fill="#645433" d="M126.5 270.5c1.406.473 2.073 1.473 2 3-1.406-.473-2.073-1.473-2-3z"/><path style="opacity:1" fill="#715d28" d="M190.5 271.5h1a46.809 46.809 0 0 1 1 13h-1a52.392 52.392 0 0 0-1-13z"/><path style="opacity:1" fill="#4a4141" d="M120.5 277.5c1.406.473 2.073 1.473 2 3-1.406-.473-2.073-1.473-2-3z"/><path style="opacity:1" fill="#7c6440" d="M156.5 276.5c.241 2.398-.426 4.398-2 6-.241-2.398.426-4.398 2-6z"/><path style="opacity:1" fill="#775f2a" d="M86.5 272.5a46.797 46.797 0 0 0-1 13c-.838-.342-1.172-1.008-1-2-.58-4.149.086-7.816 2-11z"/><path style="opacity:1" fill="#381f6a" d="M60.5 271.5a10.122 10.122 0 0 1-1.5 4 132.121 132.121 0 0 0-9.5 10h-1a120.757 120.757 0 0 1 12-14z"/><path style="opacity:1" fill="#533551" d="M150.5 269.5a19.22 19.22 0 0 1-1 6c-.814 2.131-1.314 4.464-1.5 7-.383.556-.883.889-1.5 1 .211-5.1 1.545-9.766 4-14z"/><path style="opacity:1" fill="#1f1992" d="M257.5 275.5c-2.246 5.227-5.246 9.894-9 14a42.47 42.47 0 0 1 1.5-5c2.244-3.36 4.744-6.36 7.5-9z"/><path style="opacity:1" fill="#695539" d="M122.5 282.5h1a51.569 51.569 0 0 1 1 7c-1.424-2.015-2.09-4.348-2-7z"/><path style="opacity:1" fill="#452c60" d="M191.5 284.5h1c.073 1.527-.594 2.527-2 3a5.727 5.727 0 0 1 1-3z"/><path style="opacity:1" fill="#210bab" d="M191.5 271.5c1.312 2.243 1.978 4.91 2 8l-.5 8c-.708.881-1.542 1.547-2.5 2v-2c1.406-.473 2.073-1.473 2-3a46.809 46.809 0 0 0-1-13z"/><path style="opacity:1" fill="#2713a8" d="M48.5 285.5h1c-.132 3.07.201 6.07 1 9-2.13-1.464-3.463-3.464-4-6v-1l2-2z"/><path style="opacity:1" fill="#43287a" d="M85.5 285.5c1.174 1.014 1.84 2.347 2 4-1.677-.683-2.343-2.017-2-4z"/><path style="opacity:1" fill="#1c0fba" d="M125.5 269.5h1v1c-.073 1.527.594 2.527 2 3a38.989 38.989 0 0 0 2 12c.551 3.307.884 6.64 1 10v6a254.282 254.282 0 0 1-3-13c-1.044 4.55-.71 9.05 1 13.5.184 1.376.851 2.209 2 2.5-.709.904-1.709 1.237-3 1a40.856 40.856 0 0 1-2-12c.073-1.527-.594-2.527-2-3v-1a51.569 51.569 0 0 0-1-7c1.713 1.135 2.38 2.802 2 5a4.934 4.934 0 0 0 3-.5 225.969 225.969 0 0 0-3-17.5z"/><path style="opacity:1" fill="#6c593c" d="M130.5 285.5c.722.418 1.222 1.084 1.5 2 .497 2.646.664 5.313.5 8h-1a76.926 76.926 0 0 0-1-10z"/><path style="opacity:1" fill="#746427" d="M154.5 283.5c.241 2.398-.426 4.398-2 6-.241-2.398.426-4.398 2-6z"/><path style="opacity:1" fill="#322a77" d="M248.5 289.5c-.84 2.353-2.174 4.353-4 6 .345-2.698 1.678-4.698 4-6z"/><path style="opacity:1" fill="#44284b" d="M87.5 289.5c1.406.473 2.073 1.473 2 3-1.406-.473-2.073-1.473-2-3z"/><path style="opacity:1" fill="#36294d" d="M124.5 290.5c1.406.473 2.073 1.473 2 3h-1a5.727 5.727 0 0 1-1-3z"/><path style="opacity:1" fill="#392a48" d="M152.5 290.5a5.727 5.727 0 0 1-1 3h-1c-.073-1.527.594-2.527 2-3z"/><path style="opacity:1" fill="#2f1c79" d="m89.5 292.5 5 4v1c-2.667-.667-4.333-2.333-5-5z"/><path style="opacity:1" fill="#381f64" d="M165.5 293.5c-1.291-.237-2.291.096-3 1l-5 4c1.329-4.403 3.996-6.07 8-5z"/><path style="opacity:1" fill="#0503eb" d="M131.5 301.5v3c-1.149-.291-1.816-1.124-2-2.5-1.71-4.45-2.044-8.95-1-13.5a254.282 254.282 0 0 0 3 13z"/><path style="opacity:1" fill="#482f5d" d="M190.5 287.5v2c-1.754 4.088-4.754 6.755-9 8a48.8 48.8 0 0 0 9-10z"/><path style="opacity:1" fill="#2511b5" d="M149.5 275.5c.02 5.346-.647 10.513-2 15.5l1 6.5a180.452 180.452 0 0 0 3.5-18l1 2 1-5c.671-.752 1.504-1.086 2.5-1v1c-1.574 1.602-2.241 3.602-2 6v1c-1.574 1.602-2.241 3.602-2 6v1c-1.406.473-2.073 1.473-2 3a38.353 38.353 0 0 1-2 12h-3v-14c-.221-2.779.112-5.446 1-8 .617-.111 1.117-.444 1.5-1 .186-2.536.686-4.869 1.5-7z"/><path style="opacity:1" fill="#160bb3" d="M162.5 294.5c.709-.904 1.709-1.237 3-1l2 1v5c-.934 1.068-1.268 2.401-1 4a19.22 19.22 0 0 0 6-1c-2.135 1.869-4.802 2.536-8 2a44.866 44.866 0 0 0 1-10h-3z"/><path style="opacity:1" fill="#a18e33" d="M94.5 297.5v-1c3.736.938 7.07 2.605 10 5a32.759 32.759 0 0 1-10-4z"/><path style="opacity:1" fill="#52315a" d="M181.5 297.5c-.473 1.406-1.473 2.073-3 2 .473-1.406 1.473-2.073 3-2z"/><path style="opacity:1" fill="#62514d" d="M110.5 293.5c-1.019 3.294-1.019 6.628 0 10-2.398.241-4.398-.426-6-2h4c-.163-2.357.003-4.69.5-7 .383-.556.883-.889 1.5-1z"/><path style="opacity:1" fill="#817257" d="m167.5 294.5 2 7c-.06.543-.393.876-1 1-.886-.825-1.219-1.825-1-3v-5z"/><path style="opacity:1" fill="#30138f" d="M178.5 299.5c-1.187 2.475-3.187 3.475-6 3v-1a31.686 31.686 0 0 1 6-2z"/><path style="opacity:1" fill="#31256d" d="M145.5 291.5v14h3c-.683 1.676-2.017 2.343-4 2v-12c-.268-1.599.066-2.932 1-4z"/><path style="opacity:1" fill="#3a2657" d="M167.5 299.5c-.219 1.175.114 2.175 1 3 .607-.124.94-.457 1-1h3v1a19.22 19.22 0 0 1-6 1c-.268-1.599.066-2.932 1-4z"/><path style="opacity:1" fill="#36215a" d="m157.5 298.5-1 8c2.235-.295 4.235.039 6 1-2.885.306-5.552-.027-8-1 .629-2.897 1.629-5.564 3-8z"/><path style="opacity:1" fill="#1b0bc0" d="M110.5 293.5c4.67-1.085 7.67.582 9 5 .934 1.068 1.268 2.401 1 4v4c-2.235-.295-4.235.039-6 1v1c0 .667-.333 1-1 1-.951 1.419-1.284 3.085-1 5a285.14 285.14 0 0 1-2-9.5 46.45 46.45 0 0 1-15-5c-.752-.671-1.086-1.504-1-2.5a32.759 32.759 0 0 0 10 4c1.602 1.574 3.602 2.241 6 2-1.019-3.372-1.019-6.706 0-10z"/><path style="opacity:1" fill="#0505f0" d="M119.5 298.5v6l-6 1c-.273-1.951.393-3.451 2-4.5-1.73-1.852-2.896-1.686-3.5.5a24.935 24.935 0 0 1-.5-7 8.43 8.43 0 0 1 4 .5 19.552 19.552 0 0 0 4 3.5z"/><path style="opacity:1" fill="#352160" d="M120.5 302.5c1.174 1.014 1.84 2.347 2 4-2.448.973-5.115 1.306-8 1 1.765-.961 3.765-1.295 6-1v-4z"/><path style="opacity:1" fill="#a4871c" d="M125.5 293.5h1a40.856 40.856 0 0 0 2 12c.683 1.676 2.017 2.343 4 2v-11c.979 3.125 1.313 6.458 1 10h10c-.315-3.871.018-7.538 1-11v12c1.983.343 3.317-.324 4-2a38.353 38.353 0 0 0 2-12h1c.312 4.175-.355 8.175-2 12 1.545.952 3.212 1.285 5 1 2.448.973 5.115 1.306 8 1v1h-48v-1c2.885.306 5.552-.027 8-1h5c-1.68-4.088-2.347-8.421-2-13z"/><path style="opacity:1" fill="#2d206c" d="M131.5 295.5h1v12c-1.983.343-3.317-.324-4-2 1.291.237 2.291-.096 3-1v-9z"/><path style="opacity:1" fill="#130ab2" d="M61.5 307.5c2.877.873 5.21 2.539 7 5 1.13 1.122 1.797 2.456 2 4a57.466 57.466 0 0 1-9-9z"/><path style="opacity:1" fill="#f8d70f" d="M114.5 308.5h48c1.186 2.374 1.186 4.708 0 7h-48c-.841-1.879-1.175-3.879-1-6 .667 0 1-.333 1-1z"/><path style="opacity:1" fill="#472965" d="M113.5 309.5c-.175 2.121.159 4.121 1 6v1c-1-.333-1.667-1-2-2-.284-1.915.049-3.581 1-5z"/><path style="opacity:1" fill="#4b2f61" d="M162.5 308.5c.617.111 1.117.444 1.5 1 .495 1.973.662 3.973.5 6l-2 1v-1c1.186-2.292 1.186-4.626 0-7z"/><path style="opacity:1" fill="#312146" d="M114.5 317.5v-1c5.119-.603 9.785.064 14 2-.333 1-1 1.667-2 2v-3h-12z"/><path style="opacity:1" fill="#a6831c" d="M114.5 316.5v-1h48v1c-5.119-.603-9.785.064-14 2a50.512 50.512 0 0 0-20 0c-4.215-1.936-8.881-2.603-14-2z"/><path style="opacity:1" fill="#322153" d="M162.5 316.5c-4.594.365-8.927 1.365-13 3-.667 0-1-.333-1-1 4.215-1.936 8.881-2.603 14-2z"/><path style="opacity:1" fill="#1a12b0" d="M70.5 316.5c1.7-.16 3.366.006 5 .5l-1 1a66.426 66.426 0 0 0 6 7.5 84.861 84.861 0 0 1-9-6.5c-.752-.671-1.086-1.504-1-2.5z"/><path style="opacity:1" fill="#efcf20" d="M148.5 318.5c0 .667.333 1 1 1l2 2c.762 1.762 2.096 2.762 4 3 .473 1.406 1.473 2.073 3 2 .111.617.444 1.117 1 1.5-2.31.497-4.643.663-7 .5a24.558 24.558 0 0 1-6-3c-2.531-2.879-3.531-2.212-3 2a104.618 104.618 0 0 0-1 9c-.801 1.542-1.134 3.208-1 5-1.435 1.901-3.102 2.234-5 1-.432-1.21-1.099-2.21-2-3a73.314 73.314 0 0 0-1-12 8.43 8.43 0 0 0-.5-4c-2.584.769-4.75 2.102-6.5 4a5.727 5.727 0 0 0-3 1 18.453 18.453 0 0 1-6-.5c.556-.383.889-.883 1-1.5l8-6c1-.333 1.667-1 2-2a50.512 50.512 0 0 1 20 0z"/><path style="opacity:1" fill="#1208b8" d="M164.5 315.5v3a43.117 43.117 0 0 0-13 1c2.622.959 4.622 2.625 6 5h-2c-.762-1.762-2.096-2.762-4-3l-2-2c4.073-1.635 8.406-2.635 13-3l2-1z"/><path style="opacity:1" fill="#3d2e4b" d="M151.5 321.5c1.904.238 3.238 1.238 4 3-1.904-.238-3.238-1.238-4-3z"/><path style="opacity:1" fill="#573d12" d="M146.5 325.5c-1.278.282-2.278.949-3 2-.531-4.212.469-4.879 3-2z"/><path style="opacity:1" fill="#38325c" d="m220.5 321.5-3 4h-2c1.085-2.087 2.751-3.42 5-4z"/><path style="opacity:1" fill="#4b3241" d="M155.5 324.5h2l1 2c-1.527.073-2.527-.594-3-2z"/><path style="opacity:1" fill="#5c492a" d="M133.5 327.5a31.147 31.147 0 0 1-2-2c-1.35 1.45-3.016 2.117-5 2 1.75-1.898 3.916-3.231 6.5-4a8.43 8.43 0 0 1 .5 4z"/><path style="opacity:1" fill="#0d05e9" d="M114.5 317.5h12v3l-8 6c-1.548.321-2.215 1.321-2 3h7a50.753 50.753 0 0 0 7.5-2 193.151 193.151 0 0 0 3.5 12c.901.79 1.568 1.79 2 3v3c3.046.317 4.713-1.016 5-4-.134-1.792.199-3.458 1-5 1.598-2.357 2.598-5.023 3-8a33.769 33.769 0 0 1-2 12.5 9.839 9.839 0 0 0 1 4 41.934 41.934 0 0 0 11.5 5.5c1.727-.146 1.894-.813.5-2 3.152-1.309 6.152-.976 9 1 .683-.363 1.35-.696 2-1a338.306 338.306 0 0 1-12 5c-.363.683-.696 1.35-1 2h-2a9.108 9.108 0 0 0-5 1c-3.45-1.724-7.117-2.391-11-2l-5-2a27.195 27.195 0 0 1-5-3l8 1c-.214-1.644.12-3.144 1-4.5l-3-1c.88-1.356 1.214-2.856 1-4.5h-3v-3c-2.921.354-5.254-.646-7-3 2.71-.762 5.21-.095 7.5 2a4.934 4.934 0 0 0 .5-3c-2.442.146-3.109-.687-2-2.5l-15-1c-1.076-1.726-1.243-3.559-.5-5.5 1.017-2.528 2.184-2.528 3.5 0 .73-1.841 1.397-3.675 2-5.5-1.882-.198-3.548-.698-5-1.5z"/><path style="opacity:1" fill="#414036" d="M46.5 288.5c.537 2.536 1.87 4.536 4 6a103.05 103.05 0 0 0 11 13 57.466 57.466 0 0 0 9 9c-.086.996.248 1.829 1 2.5a84.861 84.861 0 0 0 9 6.5c2.564 3.617 5.897 6.284 10 8 .473 1.406 1.473 2.073 3 2a113.189 113.189 0 0 0 20 10c5.447 3.487 11.447 5.821 18 7l5 2c3.738.938 7.571 1.938 11.5 3 2.008.193 3.508-.474 4.5-2h2a367.404 367.404 0 0 1 20-6.5c.556-.383.889-.883 1-1.5 12.155-3.503 23.155-9.17 33-17 3.171-.506 5.504-2.172 7-5h2c-7.72 7.372-16.387 13.539-26 18.5a416.318 416.318 0 0 1-36 14 31.41 31.41 0 0 1-13 1c-33.055-8.274-60.888-25.107-83.5-50.5a3230.664 3230.664 0 0 0-13.5-17c-.237-1.291.096-2.291 1-3z"/><path style="opacity:1" fill="#22139d" d="M136.5 354.5c3.883-.391 7.55.276 11 2a9.108 9.108 0 0 1 5-1c-.992 1.526-2.492 2.193-4.5 2a655.904 655.904 0 0 0-11.5-3z"/><path style="opacity:1" fill="#160eb7" d="M175.5 347.5c-.111.617-.444 1.117-1 1.5a367.404 367.404 0 0 0-20 6.5c.304-.65.637-1.317 1-2a338.306 338.306 0 0 0 12-5 24.93 24.93 0 0 0 8-1z"/><path style="opacity:1" fill="#241a99" d="M113.5 345.5c4.707.335 9.041 1.668 13 4a27.195 27.195 0 0 0 5 3c-6.553-1.179-12.553-3.513-18-7z"/><path style="opacity:1" fill="#594557" d="M141.5 341.5c-.287 2.984-1.954 4.317-5 4v-3c1.898 1.234 3.565.901 5-1z"/><path style="opacity:1" fill="#2a277a" d="M90.5 333.5c1.527-.073 2.527.594 3 2-1.527.073-2.527-.594-3-2z"/><path style="opacity:1" fill="#221e8d" d="M215.5 325.5c-1.496 2.828-3.829 4.494-7 5 2.002-1.982 4.335-3.648 7-5z"/><path style="opacity:1" fill="#533a3e" d="M158.5 326.5c1.548.321 2.215 1.321 2 3h-8v-1c2.357.163 4.69-.003 7-.5-.556-.383-.889-.883-1-1.5z"/><path style="opacity:1" fill="#544034" d="M118.5 326.5c-.111.617-.444 1.117-1 1.5 1.973.495 3.973.662 6 .5v1h-7c-.215-1.679.452-2.679 2-3z"/><path style="opacity:1" fill="#351a78" d="M146.5 325.5a24.558 24.558 0 0 0 6 3v1c-2.177-.086-4.177-.753-6-2-.607.124-.94.457-1 1-.402 2.977-1.402 5.643-3 8 .204-3.018.537-6.018 1-9 .722-1.051 1.722-1.718 3-2z"/><path style="opacity:1" fill="#2d1889" d="M133.5 327.5a73.314 73.314 0 0 1 1 12 193.151 193.151 0 0 1-3.5-12 50.753 50.753 0 0 1-7.5 2v-1a5.727 5.727 0 0 1 3-1c1.984.117 3.65-.55 5-2a31.147 31.147 0 0 0 2 2z"/></svg>