<svg xmlns="http://www.w3.org/2000/svg" width="748.09" height="791.22" viewBox="0 0 701.334 741.769"><path style="fill:red;fill-opacity:1;fill-rule:evenodd;stroke:none;stroke-width:11;stroke-opacity:1" d="m28.126 55.859 13.398 416.624c7.415 175.25 153.92 314.046 331.59 314.145 177.51-.215 324.069-139.062 331.589-314.145L718.1 55.86H373.12z" transform="translate(-22.446 -50.359)"/><path style="opacity:1;fill:gold;fill-opacity:1;fill-rule:nonzero;stroke:#000;stroke-width:7.99999952;stroke-linecap:round;stroke-linejoin:round;stroke-miterlimit:4;stroke-dasharray:none;stroke-dashoffset:0;stroke-opacity:1" d="M46.111 316.97c2.822 3.448 4.397 7.831 4.397 12.23 0 4.397-1.575 8.78-4.397 12.228-2.725 3.33-6.47 5.71-9.677 8.61-1.604 1.449-3.09 3.05-4.182 4.892-1.093 1.841-1.783 3.943-1.727 6.066.046 1.724.578 3.409 1.315 4.979.737 1.57 1.678 3.039 2.592 4.52.914 1.48 1.807 2.983 2.44 4.595.631 1.612.996 3.349.816 5.064-.167 1.578-.792 3.09-1.672 4.428-.88 1.337-2.013 2.507-3.239 3.559-2.452 2.103-5.287 3.755-7.726 5.873-2.864 2.486-5.109 5.617-6.586 9.054l.613 19.057c7.415 175.25 153.919 314.046 331.588 314.145 177.51-.215 324.07-139.062 331.59-314.145l.512-15.89a19.516 19.516 0 0 1-1.43-6.923c-.083-4.5 1.403-8.982.844-13.45-.602-4.806-3.48-9.012-6.145-13.108-1.332-2.048-2.632-4.126-3.613-6.352-.981-2.226-1.638-4.617-1.617-7.037.03-3.483 1.443-6.81 3.011-9.945 1.568-3.136 3.33-6.229 4.149-9.621 1.186-4.913.231-10.278-2.588-14.522-2.82-4.244-7.463-7.31-12.574-8.306 2.821 3.447 4.396 7.83 4.396 12.228s-1.575 8.78-4.396 12.229c-2.725 3.33-6.473 5.71-9.68 8.61-1.604 1.449-3.087 3.05-4.18 4.892-1.093 1.841-1.784 3.943-1.728 6.066.045 1.724.578 3.409 1.314 4.979.737 1.57 1.678 3.039 2.592 4.52.914 1.48 1.807 2.983 2.44 4.595.632 1.612.998 3.349.818 5.064-.166 1.578-.792 3.09-1.672 4.428-.88 1.337-2.014 2.507-3.24 3.559-2.452 2.103-5.288 3.755-7.727 5.873-4.396 3.816-7.363 9.139-8.273 14.783h-.848a19.66 19.66 0 0 1-2.674-9.485c-.082-4.5 1.404-8.982.844-13.45-.602-4.806-3.48-9.012-6.145-13.108-1.332-2.048-2.634-4.126-3.615-6.352-.98-2.226-1.634-4.617-1.613-7.037.03-3.483 1.44-6.81 3.008-9.945 1.568-3.136 3.333-6.229 4.152-9.621 1.186-4.913.23-10.278-2.59-14.522-2.819-4.244-7.465-7.31-12.576-8.306 2.821 3.447 4.399 7.83 4.399 12.228s-1.578 8.78-4.399 12.229c-2.725 3.33-6.472 5.71-9.68 8.61-1.603 1.449-3.086 3.05-4.18 4.892-1.092 1.841-1.78 3.943-1.724 6.066.046 1.724.574 3.409 1.31 4.979.737 1.57 1.678 3.039 2.592 4.52.914 1.48 1.81 2.983 2.442 4.595.632 1.612.997 3.349.816 5.064-.166 1.578-.791 3.09-1.672 4.428-.88 1.337-2.01 2.507-3.236 3.559-2.452 2.103-5.291 3.755-7.73 5.873-4.396 3.816-7.364 9.139-8.274 14.783h-.847a19.661 19.661 0 0 1-2.672-9.485c-.083-4.5 1.401-8.982.841-13.45-.601-4.806-3.476-9.012-6.14-13.108-1.332-2.048-2.636-4.126-3.617-6.352-.982-2.226-1.636-4.617-1.616-7.037.03-3.483 1.442-6.81 3.01-9.945 1.568-3.136 3.333-6.229 4.153-9.621 1.186-4.913.229-10.278-2.59-14.522-2.82-4.244-7.465-7.31-12.577-8.306 2.822 3.447 4.399 7.83 4.399 12.228s-1.577 8.78-4.399 12.229c-2.724 3.33-6.472 5.71-9.68 8.61-1.603 1.449-3.086 3.05-4.179 4.892-1.093 1.841-1.782 3.943-1.726 6.066.045 1.724.577 3.409 1.314 4.979.737 1.57 1.678 3.039 2.592 4.52.914 1.48 1.807 2.983 2.44 4.595.631 1.612.996 3.349.816 5.064-.166 1.578-.792 3.09-1.672 4.428-.88 1.337-2.01 2.507-3.237 3.559-2.452 2.103-5.289 3.755-7.728 5.873-4.396 3.816-7.365 9.139-8.275 14.783h-.848a19.661 19.661 0 0 1-2.672-9.485c-.082-4.5 1.401-8.982.842-13.45-.602-4.806-3.479-9.012-6.143-13.108-1.332-2.048-2.636-4.126-3.617-6.352-.981-2.226-1.634-4.617-1.613-7.037.03-3.483 1.443-6.81 3.011-9.945 1.569-3.136 3.33-6.229 4.149-9.621 1.186-4.913.23-10.278-2.59-14.522s-7.465-7.31-12.576-8.306c2.821 3.447 4.398 7.83 4.398 12.228s-1.577 8.78-4.398 12.229c-2.725 3.33-6.468 5.71-9.676 8.61-1.604 1.449-3.09 3.05-4.183 4.892-1.093 1.841-1.781 3.943-1.725 6.066.045 1.724.578 3.409 1.314 4.979.737 1.57 1.676 3.039 2.59 4.52.914 1.48 1.81 2.983 2.442 4.595.632 1.612.995 3.349.814 5.064-.166 1.578-.79 3.09-1.67 4.428-.88 1.337-2.012 2.507-3.238 3.559-2.452 2.103-5.29 3.755-7.729 5.873-4.396 3.816-7.361 9.139-8.271 14.783h-.848c-1.679-2.884-2.615-6.174-2.676-9.485-.082-4.5 1.402-8.982.842-13.45-.601-4.806-3.476-9.012-6.14-13.108-1.333-2.048-2.636-4.126-3.618-6.352-.98-2.226-1.635-4.617-1.615-7.037.03-3.483 1.444-6.81 3.012-9.945 1.568-3.136 3.331-6.229 4.15-9.621 1.186-4.913.23-10.278-2.59-14.522-2.819-4.244-7.463-7.31-12.574-8.306 2.822 3.447 4.399 7.83 4.399 12.228s-1.577 8.78-4.399 12.229c-2.725 3.33-6.472 5.71-9.68 8.61-1.603 1.449-3.086 3.05-4.18 4.892-1.092 1.841-1.784 3.943-1.728 6.066.046 1.724.578 3.409 1.315 4.979.736 1.57 1.678 3.039 2.592 4.52.914 1.48 1.807 2.983 2.439 4.595.632 1.612.997 3.349.816 5.064-.166 1.578-.79 3.09-1.67 4.428-.88 1.337-2.012 2.507-3.238 3.559-2.452 2.103-5.289 3.755-7.728 5.873-4.396 3.816-7.364 9.139-8.274 14.783h-.847a19.66 19.66 0 0 1-2.674-9.485c-.083-4.5 1.403-8.982.844-13.45-.602-4.806-3.48-9.012-6.145-13.108-1.332-2.048-2.632-4.126-3.613-6.352-.981-2.226-1.638-4.617-1.617-7.037.03-3.483 1.443-6.81 3.011-9.945 1.568-3.136 3.33-6.229 4.149-9.621 1.186-4.913.231-10.278-2.588-14.522-2.82-4.244-7.463-7.31-12.574-8.306 2.821 3.447 4.396 7.83 4.396 12.228s-1.575 8.78-4.396 12.229c-2.725 3.33-6.473 5.71-9.68 8.61-1.604 1.449-3.087 3.05-4.18 4.892-1.093 1.841-1.782 3.943-1.726 6.066.045 1.724.575 3.409 1.312 4.979.737 1.57 1.678 3.039 2.592 4.52.914 1.48 1.807 2.983 2.44 4.595.632 1.612.996 3.349.816 5.064-.166 1.578-.79 3.09-1.67 4.428-.88 1.337-2.014 2.507-3.24 3.559-2.452 2.103-5.288 3.755-7.727 5.873-4.396 3.816-7.363 9.139-8.273 14.783h-.848a19.66 19.66 0 0 1-2.674-9.485c-.082-4.5 1.404-8.982.844-13.45-.602-4.806-3.478-9.012-6.143-13.108-1.332-2.048-2.636-4.126-3.617-6.352-.98-2.226-1.634-4.617-1.613-7.037.03-3.483 1.44-6.81 3.008-9.945 1.568-3.136 3.333-6.229 4.152-9.621 1.186-4.913.23-10.278-2.59-14.522s-7.465-7.31-12.576-8.306c2.821 3.447 4.398 7.83 4.398 12.228s-1.577 8.78-4.398 12.229c-2.725 3.33-6.472 5.71-9.68 8.61-1.603 1.449-3.086 3.05-4.18 4.892-1.092 1.841-1.78 3.943-1.724 6.066.046 1.724.576 3.409 1.313 4.979.736 1.57 1.677 3.039 2.591 4.52.914 1.48 1.808 2.983 2.44 4.595.632 1.612.997 3.349.816 5.064-.166 1.578-.791 3.09-1.672 4.428-.88 1.337-2.01 2.507-3.236 3.559-2.452 2.103-5.291 3.755-7.73 5.873-4.396 3.816-7.364 9.139-8.274 14.783h-.848a19.661 19.661 0 0 1-2.671-9.485c-.083-4.5 1.4-8.982.841-13.45-.601-4.806-3.476-9.012-6.14-13.108-1.332-2.048-2.636-4.126-3.617-6.352-.982-2.226-1.636-4.617-1.616-7.037.03-3.483 1.442-6.81 3.01-9.945 1.568-3.136 3.331-6.229 4.15-9.621 1.187-4.913.232-10.278-2.587-14.522-2.82-4.244-7.465-7.31-12.577-8.306 2.822 3.447 4.399 7.83 4.399 12.228s-1.577 8.78-4.399 12.229c-2.725 3.33-6.47 5.71-9.677 8.61-1.604 1.449-3.09 3.05-4.182 4.892-1.093 1.841-1.783 3.943-1.727 6.066.046 1.724.578 3.409 1.315 4.979.737 1.57 1.678 3.039 2.592 4.52.914 1.48 1.807 2.983 2.44 4.595.631 1.612.996 3.349.816 5.064-.167 1.578-.792 3.09-1.672 4.428-.88 1.337-2.012 2.507-3.239 3.559-2.452 2.103-5.287 3.755-7.726 5.873-4.396 3.816-7.365 9.139-8.276 14.783h-.847a19.661 19.661 0 0 1-2.672-9.485c-.082-4.5 1.401-8.982.842-13.45-.602-4.806-3.479-9.012-6.143-13.108-1.332-2.048-2.636-4.126-3.617-6.352-.981-2.226-1.634-4.617-1.613-7.037.03-3.483 1.441-6.81 3.01-9.945 1.568-3.136 3.33-6.229 4.15-9.621 1.186-4.913.23-10.278-2.59-14.522s-7.465-7.31-12.576-8.306c2.821 3.447 4.398 7.83 4.398 12.228s-1.577 8.78-4.398 12.229c-2.725 3.33-6.47 5.71-9.678 8.61-1.604 1.449-3.089 3.05-4.182 4.892-1.092 1.841-1.78 3.943-1.724 6.066.045 1.724.578 3.409 1.314 4.979.737 1.57 1.676 3.039 2.59 4.52.914 1.48 1.81 2.983 2.442 4.595.632 1.612.995 3.349.814 5.064-.166 1.578-.788 3.09-1.668 4.428-.88 1.337-2.014 2.507-3.24 3.559-2.452 2.103-5.29 3.755-7.729 5.873-4.396 3.816-7.361 9.139-8.271 14.783h-.848c-1.679-2.884-2.615-6.174-2.676-9.485-.082-4.5 1.402-8.982.842-13.45-.601-4.806-3.476-9.012-6.14-13.108-1.333-2.048-2.635-4.126-3.616-6.352-.98-2.226-1.638-4.617-1.617-7.037.03-3.483 1.444-6.81 3.012-9.945 1.568-3.136 3.331-6.229 4.15-9.621 1.186-4.913.23-10.278-2.59-14.522-2.819-4.244-7.463-7.31-12.574-8.306 2.822 3.447 4.399 7.83 4.399 12.228s-1.577 8.78-4.399 12.229c-2.725 3.33-6.472 5.71-9.68 8.61-1.603 1.449-3.086 3.05-4.18 4.892-1.092 1.841-1.784 3.943-1.728 6.066.046 1.724.578 3.409 1.315 4.979.736 1.57 1.678 3.039 2.592 4.52.914 1.48 1.807 2.983 2.439 4.595.632 1.612.997 3.349.816 5.064-.166 1.578-.79 3.09-1.67 4.428-.88 1.337-2.012 2.507-3.238 3.559-2.452 2.103-5.29 3.755-7.728 5.873-4.396 3.816-7.364 9.139-8.274 14.783h-.847a19.66 19.66 0 0 1-2.674-9.485c-.083-4.5 1.403-8.982.843-13.45-.601-4.806-3.48-9.012-6.144-13.108-1.332-2.048-2.632-4.126-3.613-6.352-.981-2.226-1.638-4.617-1.618-7.037.03-3.483 1.444-6.81 3.012-9.945 1.568-3.136 3.332-6.229 4.15-9.621 1.187-4.913.228-10.278-2.591-14.522-2.82-4.244-7.461-7.31-12.572-8.306 2.82 3.447 4.396 7.83 4.396 12.228s-1.575 8.78-4.396 12.229c-2.725 3.33-6.473 5.71-9.68 8.61-1.604 1.449-3.087 3.05-4.18 4.892-1.093 1.841-1.782 3.943-1.726 6.066.045 1.724.575 3.409 1.312 4.979.737 1.57 1.678 3.039 2.592 4.52.914 1.48 1.807 2.983 2.44 4.595.632 1.612.996 3.349.816 5.064-.166 1.578-.79 3.09-1.67 4.428-.88 1.337-2.012 2.507-3.238 3.559-2.453 2.103-5.292 3.755-7.73 5.873-4.397 3.816-7.362 9.139-8.272 14.783h-.848a19.66 19.66 0 0 1-2.674-9.485c-.082-4.5 1.401-8.982.842-13.45-.602-4.806-3.476-9.012-6.14-13.108-1.333-2.048-2.637-4.126-3.618-6.352-.981-2.226-1.636-4.617-1.615-7.037.03-3.483 1.442-6.81 3.01-9.945 1.568-3.136 3.333-6.229 4.152-9.621 1.186-4.913.23-10.278-2.59-14.522s-7.465-7.31-12.576-8.306c2.821 3.447 4.398 7.83 4.398 12.228s-1.577 8.78-4.398 12.229c-2.725 3.33-6.472 5.71-9.68 8.61-1.603 1.449-3.087 3.05-4.18 4.892-1.092 1.841-1.78 3.943-1.724 6.066.045 1.724.576 3.409 1.312 4.979.737 1.57 1.678 3.039 2.592 4.52.914 1.48 1.808 2.983 2.44 4.595.632 1.612.997 3.349.816 5.064-.166 1.578-.791 3.09-1.672 4.428-.88 1.337-2.01 2.507-3.236 3.559-2.452 2.103-5.29 3.755-7.729 5.873-4.396 3.816-7.365 9.139-8.275 14.783h-.848a19.661 19.661 0 0 1-2.672-9.485c-.082-4.5 1.402-8.982.842-13.45-.601-4.806-3.476-9.012-6.14-13.108-1.332-2.048-2.636-4.126-3.618-6.352-.98-2.226-1.635-4.617-1.615-7.037.03-3.483 1.442-6.81 3.01-9.945 1.568-3.136 3.331-6.229 4.15-9.621 1.187-4.913.232-10.278-2.587-14.522-2.82-4.244-7.466-7.31-12.577-8.306z"/><path style="opacity:1;fill:#000;fill-opacity:1;fill-rule:nonzero;stroke:#000;stroke-width:5;stroke-linecap:round;stroke-linejoin:round;stroke-miterlimit:4;stroke-dasharray:none;stroke-dashoffset:0;stroke-opacity:1" d="M234.533 530.959c-4.484 0-8.093 3.818-8.093 8.56 0 4.743 3.61 8.56 8.093 8.56h15.544v10.985h4.56v17.023h9.447v25.985h217.957v-25.985h9.448v-17.023h4.56V548.08h15.544c4.483 0 8.092-3.818 8.092-8.56 0-4.743-3.61-8.561-8.092-8.561h-277.06z" transform="translate(-22.446 -50.359)"/><path style="fill:#fff;fill-rule:evenodd;stroke:none;stroke-width:1px;stroke-linecap:butt;stroke-linejoin:miter;stroke-opacity:1" d="M285.466 530.959a55.269 55.269 0 0 0-14.564 13.843 55.202 55.202 0 0 0-7.405 14.157H482.628a55.202 55.202 0 0 0-7.404-14.157 55.269 55.269 0 0 0-14.565-13.843H285.466z" transform="translate(-22.446 -50.359)"/><path style="fill:none;fill-rule:evenodd;stroke:#fff;stroke-width:5;stroke-linecap:square;stroke-linejoin:miter;stroke-miterlimit:4;stroke-dasharray:none;stroke-opacity:1" d="M264.084 576.087h217.957M254.637 559.064h236.852" transform="translate(-22.446 -50.359)"/><path style="fill:none;fill-rule:evenodd;stroke:#000;stroke-width:11;stroke-opacity:1" d="m28.126 55.859 13.398 416.624c7.415 175.25 153.92 314.046 331.59 314.145 177.51-.215 324.069-139.062 331.589-314.145L718.1 55.86H373.12z" transform="translate(-22.446 -50.359)"/><path style="fill:gold;fill-opacity:1;fill-rule:evenodd;stroke:#000;stroke-width:3;stroke-linecap:butt;stroke-linejoin:miter;stroke-miterlimit:4;stroke-dasharray:none;stroke-opacity:1" d="M167.324 131.667a18.466 18.466 0 0 0-6.874 3.891 18.337 18.337 0 0 0-5.284 8.304 18.203 18.203 0 0 0 .471 11.772 16.823 16.823 0 0 0 8.674-5.572c1.677-2.05 2.853-4.493 3.502-7.06.94-3.72.767-7.71-.489-11.335zm-51.596 3.192a18.495 18.495 0 0 0-.583 7.883 18.341 18.341 0 0 0 3.964 9.01 18.183 18.183 0 0 0 10.046 6.144 16.837 16.837 0 0 0 .186-10.309c-.771-2.533-2.148-4.87-3.921-6.835a19.92 19.92 0 0 0-9.692-5.893zm13.187 38.452c-1.31 0-2.616.154-3.889.463-2.572.624-4.983 1.866-7.047 3.523a19.936 19.936 0 0 0-6.44 9.34 18.469 18.469 0 0 0 7.832 1.039 18.317 18.317 0 0 0 9.218-3.44 18.19 18.19 0 0 0 6.712-9.677 16.786 16.786 0 0 0-6.386-1.248zm9.417 20.649a18.57 18.57 0 0 0-5.837 1.044 19.928 19.928 0 0 0-9.194 6.645 18.477 18.477 0 0 0 7.032 3.604c3.212.845 6.655.797 9.837-.153a18.184 18.184 0 0 0 9.564-6.873 16.817 16.817 0 0 0-9.422-4.18 16.9 16.9 0 0 0-1.98-.087zm257.355 44.047a18.488 18.488 0 0 0-3.911 6.868 18.346 18.346 0 0 0-.285 9.84 18.196 18.196 0 0 0 6.435 9.866 16.832 16.832 0 0 0 4.594-9.23c.39-2.62.148-5.322-.61-7.859a19.934 19.934 0 0 0-6.223-9.485zm-225.481 10.969a18.489 18.489 0 0 0-3.91 6.868 18.347 18.347 0 0 0-.286 9.84 18.196 18.196 0 0 0 6.435 9.866 16.832 16.832 0 0 0 4.594-9.23c.39-2.62.149-5.321-.61-7.859a19.934 19.934 0 0 0-6.223-9.485zm295.249 20.76c-.48-.01-.96-.001-1.438.025.053 2.655.69 5.298 1.85 7.686a18.331 18.331 0 0 0 6.525 7.367 18.172 18.172 0 0 0 11.44 2.782 16.836 16.836 0 0 0-2.968-9.875c-1.508-2.176-3.53-3.98-5.82-5.31a19.933 19.933 0 0 0-9.59-2.676zm-322.79 12.14a18.767 18.767 0 0 0-4.919.563 19.916 19.916 0 0 0-9.756 5.782 18.47 18.47 0 0 0 6.676 4.225 18.315 18.315 0 0 0 9.81.742 18.18 18.18 0 0 0 10.148-5.975 16.82 16.82 0 0 0-9.004-5.018 17.144 17.144 0 0 0-2.956-.318zm233.19 1.658c-.437.006-.874.029-1.309.069-2.635.244-5.199 1.121-7.482 2.462a19.93 19.93 0 0 0-7.726 8.306 18.472 18.472 0 0 0 7.599 2.165 18.311 18.311 0 0 0 9.618-2.066 18.188 18.188 0 0 0 8.046-8.6 16.834 16.834 0 0 0-8.747-2.336zm29.054 15.461a18.196 18.196 0 0 0-6.436 9.866c-.807 3.223-.7 6.668.286 9.84a18.489 18.489 0 0 0 3.91 6.868 19.934 19.934 0 0 0 6.224-9.485c.758-2.538 1-5.24.61-7.859a16.832 16.832 0 0 0-4.594-9.23zm103.096.202a18.2 18.2 0 0 0-.298 11.776 18.34 18.34 0 0 0 5.409 8.224 18.473 18.473 0 0 0 6.933 3.79 19.948 19.948 0 0 0 .318-11.344c-.687-2.557-1.901-4.983-3.608-7.006a16.814 16.814 0 0 0-8.754-5.44zm-20.573.454a16.82 16.82 0 0 0-9.324 4.395c-1.93 1.813-3.412 4.082-4.389 6.544a19.948 19.948 0 0 0-.992 11.304 18.476 18.476 0 0 0 7.324-2.966 18.333 18.333 0 0 0 6.32-7.545 18.202 18.202 0 0 0 1.06-11.732zm-314.533 1.365a16.822 16.822 0 0 0-8.212 6.23c-1.513 2.173-2.495 4.7-2.942 7.31a19.95 19.95 0 0 0 1.368 11.266 18.34 18.34 0 0 0 11.174-13.106c.852-3.909.354-8.1-1.388-11.7z" transform="translate(-22.446 -50.359)"/><path style="fill:gold;fill-opacity:1;fill-rule:evenodd;stroke:#000;stroke-width:3;stroke-linecap:butt;stroke-linejoin:round;stroke-miterlimit:4;stroke-dasharray:none;stroke-opacity:1" d="M226.385 234.4a19.273 19.273 0 0 1-9.384 8.095 18.8 18.8 0 0 1-5.501 1.295c-3.346.265-6.686-.384-10.032-.648-1.662-.13-3.34-.166-4.992.056-1.653.221-3.285.706-4.715 1.563a10.026 10.026 0 0 0-4.268 5.23 10.026 10.026 0 0 0 .06 6.75 15.227 15.227 0 0 1-3.8-6.964 15.227 15.227 0 0 1 .241-7.93c.664-2.18 1.813-4.189 2.476-6.37.331-1.09.54-2.228.49-3.367-.051-1.138-.371-2.28-1.024-3.214-.544-.779-1.339-1.41-2.265-1.62-.915-.205-1.89.016-2.715.462-.824.447-1.516 1.104-2.139 1.805a17.32 17.32 0 0 0-3.883 7.447 20.703 20.703 0 0 1-1.942-8.418 20.715 20.715 0 0 1 1.942-9.066c-4.342-.34-8.799 1.227-11.973 4.21a15.853 15.853 0 0 0-4.854 9.713 12.895 12.895 0 0 1-3.437-6.021 12.894 12.894 0 0 1 .201-6.93c.705-2.256 2.02-4.277 2.8-6.508.39-1.115.644-2.291.6-3.472-.043-1.18-.4-2.37-1.135-3.296-.802-1.013-2.017-1.657-3.287-1.896-1.27-.239-2.593-.092-3.832.277-1.466.438-2.822 1.18-4.25 1.729-1.428.55-3.001.908-4.486.538a4.831 4.831 0 0 1-2.266-1.295 9.71 9.71 0 0 0 2.913-6.152 9.697 9.697 0 0 0-1.618-6.152 60.171 60.171 0 0 0 6.472-1.943c.746-.27 1.492-.558 2.173-.965.682-.408 1.302-.943 1.71-1.625.594-.994.687-2.247.354-3.357-.332-1.11-1.064-2.076-1.972-2.795-1.788-1.416-4.265-1.87-6.472-1.295-2.483.646-4.487 2.441-6.795 3.562a13.44 13.44 0 0 1-9.703.75 7.134 7.134 0 0 0 2.26-4.636c.157-1.962-.552-3.976-1.893-5.418a7.266 7.266 0 0 0-4.086-2.2 7.269 7.269 0 0 0-4.58.749 4.59 4.59 0 0 1-.44-3.33 4.59 4.59 0 0 1 1.971-2.72 4.618 4.618 0 0 1 4.174-.356 14.204 14.204 0 0 0-2.265-7.77c-.65-1.004-1.424-1.921-2.1-2.908-.675-.986-1.259-2.066-1.46-3.245-.298-1.751.33-3.634 1.618-4.856a7.537 7.537 0 0 0 4.53.647 7.587 7.587 0 0 0 5.178-3.561c1.33-1.33 3.327-1.954 5.178-1.62 1.804.327 3.37 1.494 4.53 2.915a11.725 11.725 0 0 1 2.589 8.094 11.677 11.677 0 0 1 2.912-7.447c2.218-2.5 5.563-3.959 8.904-3.885.658 2.488 2.622 4.591 5.059 5.418 2.431.825 5.261.356 7.296-1.209a7.795 7.795 0 0 1 1.716 5.828 7.75 7.75 0 0 1-1.776 4.066 7.75 7.75 0 0 1-3.725 2.41 296.427 296.427 0 0 0 11.973 24.607c1.542 2.831 3.14 5.648 5.113 8.197 1.974 2.55 4.35 4.836 7.183 6.374 3.357 1.821 7.204 2.518 11.002 2.914a79.526 79.526 0 0 0 32.035-3.238l-2.588 33.997z" transform="translate(-22.446 -50.359)"/><path style="fill:gold;fill-opacity:1;fill-rule:evenodd;stroke:#000;stroke-width:3;stroke-linecap:butt;stroke-linejoin:round;stroke-miterlimit:4;stroke-dasharray:none;stroke-opacity:1" d="M536.722 219.658a27.475 27.475 0 0 1-14.827 2.618c-3.194-.335-6.366-1.257-9.058-3.01-2.691-1.752-4.874-4.378-5.769-7.462-.876-3.022-.48-6.308.599-9.263 1.08-2.956 2.809-5.628 4.634-8.191 5.375-7.547 11.833-14.494 19.814-19.2 6.604-3.892 14.121-6.154 21.753-6.873 13.802-1.302 27.538 2.337 41.352 3.506 12.184 1.03 24.936.01 35.698-5.796 4.468-2.41 8.547-5.65 11.515-9.77 2.969-4.119 4.776-9.154 4.62-14.229-.16-5.211-2.393-10.26-5.827-14.185-3.434-3.923-8.013-6.757-12.925-8.505-4.254-1.514-8.744-2.24-13.083-3.49-3.235-.933-6.522-2.252-8.721-4.8-1.194-1.385-2-3.056-2.744-4.725-.745-1.669-1.452-3.37-2.49-4.875a13.12 13.12 0 0 0-6.806-5.025 13.12 13.12 0 0 0-8.457.225 15.421 15.421 0 0 1 5.233 9.163c.519 3.092.055 6.34-1.308 9.163a14.723 14.723 0 0 1-10.466-2.181c-2.766-1.818-4.82-4.507-6.864-7.11-2.044-2.603-4.205-5.232-7.09-6.854-2.443-1.372-5.3-1.938-8.097-1.796-2.798.142-5.537.972-8.04 2.233-4.867 2.452-8.789 6.454-13.518 9.163-5.751 3.295-12.645 4.55-19.188 3.49a53.8 53.8 0 0 1 13.955 4.8c6.341 3.215 11.993 7.66 18.316 10.91 9.73 5.001 21.121 7.02 31.834 4.8 6.746-1.399 13.181-4.423 20.06-4.8 5.658-.31 11.398 1.254 16.136 4.363 2.39 1.568 4.543 3.536 6.125 5.916 1.581 2.381 2.571 5.19 2.596 8.047.015 1.652-.293 3.311-.953 4.825-.66 1.514-1.675 2.88-2.971 3.902-1.67 1.317-3.748 2.033-5.848 2.363-2.1.331-4.238.298-6.363.255-13.232-.269-26.455-.91-39.684-1.309-7.121-.215-14.244-.36-21.368-.436a67.114 67.114 0 0 0-25.73-14.4c-12.364-3.66-25.495-3.67-38.375-3.054-27.426 1.313-54.644 5.325-81.985 7.854-2.152.2-4.312.39-6.47.287-2.159-.103-4.328-.508-6.274-1.447-1.946-.94-3.667-2.453-4.566-4.418a7 7 0 0 1-.648-3.146 5.99 5.99 0 0 1 .95-3.057c.524-.799 1.252-1.454 2.074-1.94.822-.485 1.737-.804 2.674-.99 1.873-.37 3.808-.213 5.703.024 5.101.638 10.142 1.841 15.279 2.033 5.939.222 11.893-.929 17.443-3.054 9.914-3.798 18.584-10.769 24.421-19.636a61.086 61.086 0 0 0-9.594-1.31c-2.904-.163-5.815-.118-8.721 0-7.635.314-15.277 1.15-22.677 3.055a80.085 80.085 0 0 0-17.88 6.982 22.165 22.165 0 0 0 4.361-10.909 22.203 22.203 0 0 0-2.616-13.09 21.21 21.21 0 0 1-1.744 11.33 21.21 21.21 0 0 1-7.414 8.742c-4.295 2.888-9.463 4.089-14.391 5.672-2.84.913-5.672 1.988-8.088 3.736-2.417 1.748-4.404 4.25-4.995 7.173-.543 2.686.138 5.524 1.491 7.908 1.354 2.383 3.34 4.352 5.487 6.055 7.054 5.596 15.952 8.513 24.895 9.56 8.944 1.048 17.998.33 26.943-.71 19.947-2.316 39.739-6.222 59.8-7.104 10.245-.451 20.636-.093 30.527 2.618 2.944.807 5.875 1.84 8.372 3.598 2.497 1.757 4.54 4.318 5.146 7.31.534 2.637-.092 5.431-1.424 7.768-1.332 2.338-3.33 4.244-5.553 5.76-5.578 3.801-12.442 5.189-19.157 5.877-14.18 1.453-28.482.166-42.675-1.145-20.483-1.89-41.015-3.832-61.581-3.424-26.643.529-53.412 4.99-79.805 1.31-11.247-1.57-22.267-4.603-33.557-5.835-11.29-1.232-23.216-.516-33.164 4.962-3.839 2.113-7.317 4.915-10.064 8.33-2.746 3.415-4.749 7.45-5.635 11.742-1.25 6.05-.266 12.346 1.296 18.324 1.562 5.978 3.7 11.814 4.809 17.893 1.09 5.97 1.126 12.33-1.308 17.89-1.936 4.421-5.308 8.061-8.942 11.237-3.634 3.176-7.589 5.98-11.118 9.271-2.55 2.378-4.872 5.007-7.59 7.188-2.72 2.182-5.94 3.93-9.418 4.158a11.19 11.19 0 0 1-4.778-.717 9.954 9.954 0 0 1-3.944-2.774c-1.147-1.343-1.893-2.981-2.507-4.637-.615-1.656-1.117-3.357-1.854-4.963a18.514 18.514 0 0 0-5.887-7.2 6.91 6.91 0 0 1-1.626 3.115 6.91 6.91 0 0 1-2.953 1.903 6.942 6.942 0 0 1-4.792-.202 6.942 6.942 0 0 1-3.493-3.288 7.14 7.14 0 0 1-2.399 3.054c-.77.56-1.644.957-2.488 1.399-.844.44-1.679.94-2.309 1.655a4.662 4.662 0 0 0-1.046 3.984 4.662 4.662 0 0 0 2.572 3.216 10.349 10.349 0 0 0-6.759-1.745 10.555 10.555 0 0 0-5.451 2.182 10.803 10.803 0 0 0-3.489 4.8 5.51 5.51 0 0 1 3.139 1.157 5.51 5.51 0 0 1 1.876 2.77 5.517 5.517 0 0 1-.195 3.623 5.517 5.517 0 0 1-2.421 2.704 6.097 6.097 0 0 0-.157 4.32 6.097 6.097 0 0 0 2.773 3.316c1.697.944 3.762 1.015 5.67.654a13.79 13.79 0 0 0 6.105-2.836c-2.834 3.745-4.046 8.676-3.271 13.309a17.376 17.376 0 0 0 2.399 6.327c-.141-1.91.711-3.867 2.207-5.064 1.495-1.197 3.591-1.601 5.424-1.045a5.987 5.987 0 0 1 3.289 2.502 5.987 5.987 0 0 1 .854 4.043l8.286 2.618c3.464-1.73 6.04-5.14 6.759-8.945.365-1.935.273-3.922.218-5.89a148.999 148.999 0 0 1 0-8.291 15.898 15.898 0 0 1 8.504.872c3.423 1.352 6.346 3.947 8.067 7.2 1.894 3.578 2.295 7.917 1.09 11.782a28.97 28.97 0 0 0 8.068-12.873 28.894 28.894 0 0 0 1.09-11.127c2.543-.025 5.089.5 7.414 1.527 3.5 1.547 6.485 4.26 8.286 7.637a16.767 16.767 0 0 1 1.962 7.636 33.06 33.06 0 0 0 4.361-12.218c.368-2.526.441-5.094.218-7.636a17.367 17.367 0 0 1 10.248 5.672c3.436 3.935 4.928 9.491 3.925 14.618a50.807 50.807 0 0 0 4.36-13.309c.764-4.24.985-8.577.655-12.872a42.567 42.567 0 0 1 10.466 9.818 42.539 42.539 0 0 1 5.887 10.69c3.557-3.946 5.064-9.646 3.925-14.835a16.876 16.876 0 0 0-3.925-7.636 15.687 15.687 0 0 1 10.684-1.746 15.658 15.658 0 0 1 8.504 4.8 47.632 47.632 0 0 1 3.707-15.927 47.624 47.624 0 0 1 8.504-13.308 7.477 7.477 0 0 1 4.142 4.145c.6 1.517.679 3.235.219 4.8 2.493.667 5.18.59 7.631-.218 3.594-1.187 6.52-3.844 8.945-6.751 2.423-2.907 4.46-6.127 6.972-8.958 4.628-5.214 10.706-8.926 16.945-12.038 6.239-3.112 12.739-5.706 18.815-9.125 9.902-5.572 18.758-13.359 29.654-16.581 5.423-1.604 11.134-1.997 16.79-1.964 8.262.049 16.876 1.112 23.766 5.673a26.439 26.439 0 0 1 8.94 10.036 121.41 121.41 0 0 1-13.519 20.072 121.452 121.452 0 0 1-20.932 19.854 16.836 16.836 0 0 0-.872-6.982 16.91 16.91 0 0 0-6.324-8.29 7.036 7.036 0 0 1-1.242 4.678 7.035 7.035 0 0 1-3.99 2.74 7.034 7.034 0 0 1-4.751-.492 7.034 7.034 0 0 1-3.317-3.436c-3.115.989-5.658 3.617-6.542 6.764a9.99 9.99 0 0 0 .314 6.295 9.99 9.99 0 0 0 4.047 4.832 13.261 13.261 0 0 0-7.558-.975 13.261 13.261 0 0 0-6.833 3.375c-2.832 2.65-4.395 6.601-4.143 10.472a6.53 6.53 0 0 1 3.749 1.208 6.53 6.53 0 0 1 2.357 3.155 6.534 6.534 0 0 1 .04 4.11 6.534 6.534 0 0 1-2.439 3.308 13.566 13.566 0 0 0 4.858 4.617 13.566 13.566 0 0 0 6.48 1.71 13.611 13.611 0 0 0 8.198-2.7 13.61 13.61 0 0 0 4.885-7.117c-2.706 3.242-4.07 7.573-3.707 11.781a16.303 16.303 0 0 0 2.835 7.854 6.52 6.52 0 0 1 2.36-2.838 6.52 6.52 0 0 1 3.527-1.089 6.533 6.533 0 0 1 3.983 1.318 6.533 6.533 0 0 1 2.34 3.482c2.602.293 5.319-.812 6.978-2.836 1.065-1.3 1.692-2.92 1.966-4.578.274-1.658.208-3.355-.004-5.022a29.103 29.103 0 0 0-1.963-7.418 11.184 11.184 0 0 0 4.361 2.836c2.159.766 4.556.843 6.76.219a11.71 11.71 0 0 1-2.18-7.637 11.662 11.662 0 0 1 1.962-5.672c1.582 4.107 5.014 7.46 9.157 8.945a15.48 15.48 0 0 0 8.94.436 19.695 19.695 0 0 1-4.579-11.563 19.623 19.623 0 0 1 1.745-9.163 11.876 11.876 0 0 0 5.887 4.363c3.221 1.074 6.905.664 9.812-1.09a14.618 14.618 0 0 1-8.94-5.673c-2.219-3.04-3.18-6.97-2.616-10.69 2.222-.042 4.452.33 6.54 1.09a18.228 18.228 0 0 1 6.978 4.582 25.994 25.994 0 0 0-.654-10.909 25.959 25.959 0 0 0-3.707-7.854c3.07-.36 6.269.52 8.722 2.4a12.12 12.12 0 0 1 4.143 5.89 19.796 19.796 0 0 0 1.526-7.854 19.92 19.92 0 0 0-4.797-12.654c2.928-.194 5.915.67 8.286 2.4 2.29 1.67 3.942 4.044 5.717 6.253 1.775 2.209 3.822 4.365 6.494 5.31 2.393.847 5.047.624 7.504-.016 2.458-.64 4.792-1.676 7.208-2.46 2.415-.784 4.984-1.318 7.49-.907 1.253.205 2.474.65 3.521 1.369 1.047.718 1.914 1.716 2.404 2.887.429 1.023.564 2.157.473 3.263-.09 1.106-.401 2.186-.832 3.209-.862 2.045-2.19 3.852-3.347 5.746-1.655 2.708-2.983 5.631-4.946 8.125-.982 1.246-2.124 2.38-3.46 3.236-1.337.856-2.874 1.427-4.46 1.511-1.45.077-2.891-.25-4.288-.65-1.397-.398-2.78-.87-4.215-1.095a12.571 12.571 0 0 0-6.354.655 12.571 12.571 0 0 0-5.202 3.708 5.38 5.38 0 0 1 1.262 2.71 5.38 5.38 0 0 1-.39 2.963 5.396 5.396 0 0 1-2.501 2.629 5.396 5.396 0 0 1-3.604.425 8.788 8.788 0 0 0 2.616 6.109 8.73 8.73 0 0 0 3.855 2.184c1.444.38 2.987.38 4.431-.002a9.257 9.257 0 0 0-5.533 1.105 9.257 9.257 0 0 0-3.843 4.131 9.233 9.233 0 0 0-.839 4.558 9.233 9.233 0 0 0 1.493 4.387 6.434 6.434 0 0 1 2.97-1.107 6.433 6.433 0 0 1 3.135.453 6.477 6.477 0 0 1 3.446 3.43 6.477 6.477 0 0 1 .043 4.86 6.432 6.432 0 0 0 5.015 1.746c1.426-.139 2.782-.767 3.892-1.672 1.11-.905 1.985-2.077 2.65-3.346a13.802 13.802 0 0 0 1.526-7.418 26.587 26.587 0 0 0 4.143 5.018c2.341 2.216 5.09 4 8.067 5.236a5.437 5.437 0 0 1-.2-4.148 5.437 5.437 0 0 1 2.817-3.052 5.439 5.439 0 0 1 4.2-.11 5.439 5.439 0 0 1 2.995 2.947 10.473 10.473 0 0 0 2.399-6.546c.022-2.605-.966-5.183-2.617-7.2a12.35 12.35 0 0 0-5.092-3.68 12.35 12.35 0 0 0-6.246-.683 14.884 14.884 0 0 1 5.887-7.2c2.144-1.359 4.657-2.153 7.196-2.181a13.014 13.014 0 0 1 8.721 3.272 12.804 12.804 0 0 1-1.962-8.29 12.811 12.811 0 0 1 3.925-7.855c2.243 4.402 6.109 7.954 10.684 9.818 4.97 2.025 10.73 2.025 15.7 0a20.816 20.816 0 0 1-9.63-3.58 20.816 20.816 0 0 1-6.724-7.765 20.804 20.804 0 0 1-2.18-9.381 18.239 18.239 0 0 0 11.338 5.018c5.11.339 10.33-1.62 13.955-5.237a27.777 27.777 0 0 1-16.354-3.272 27.616 27.616 0 0 1-6.323-4.8 20.243 20.243 0 0 1 10.248-3.709 20.233 20.233 0 0 1 10.248 1.964 26.87 26.87 0 0 0-4.36-9.164 26.922 26.922 0 0 0-10.03-8.29 40.39 40.39 0 0 1 11.556-3.055 40.402 40.402 0 0 1 12.864.655c-4.254-5.707-10.678-9.754-17.661-11.127a29.245 29.245 0 0 0-17.88 2.181zM211.96 122.285c-.378-.009-.758.003-1.137.035-3.039.255-5.85 1.866-8.018 4.01-1.581 1.564-2.875 3.43-3.701 5.495-.827 2.064-1.177 4.329-.923 6.539.373 3.256 2.046 6.277 4.317 8.639 3.865 4.022 9.544 6.225 15.109 5.862l12.026-13.576c-1.28-5.93-5.037-11.282-10.176-14.501-2.259-1.415-4.85-2.44-7.497-2.503zm72.496 0c-2.646.063-5.238 1.088-7.497 2.503-5.139 3.219-8.895 8.572-10.175 14.501l12.026 13.576c5.564.363 11.243-1.84 15.108-5.862 2.27-2.362 3.944-5.383 4.318-8.64.253-2.209-.097-4.474-.923-6.538-.827-2.065-2.122-3.931-3.704-5.495-2.169-2.144-4.977-3.754-8.016-4.01a10.52 10.52 0 0 0-1.137-.035z" transform="translate(-22.446 -50.359)"/><path style="fill:#000;fill-rule:evenodd;stroke:#000;stroke-width:.99999994px;stroke-linecap:butt;stroke-linejoin:miter;stroke-opacity:1" d="M211.797 146.413a7.983 7.983 0 0 1-4.532-5.038c-.574-1.944-.373-4.055.252-5.983.451-1.396 1.159-2.768 2.328-3.653 1.053-.797 2.395-1.13 3.714-1.196 1.446-.072 2.925.165 4.217.818 1.287.65 2.35 1.695 3.147 2.897a10.43 10.43 0 0 1 1.448 3.338l-10.574 8.817zM284.62 146.413a7.983 7.983 0 0 0 4.531-5.038c.574-1.944.372-4.055-.252-5.983-.452-1.396-1.159-2.768-2.329-3.653-1.052-.797-2.394-1.13-3.713-1.196-1.446-.072-2.925.165-4.217.818-1.287.65-2.35 1.695-3.147 2.897a10.43 10.43 0 0 0-1.448 3.338l10.574 8.817z" transform="translate(-22.446 -50.359)"/><path style="fill:gold;fill-opacity:1;fill-rule:evenodd;stroke:#000;stroke-width:3;stroke-linecap:butt;stroke-linejoin:round;stroke-miterlimit:4;stroke-dasharray:none;stroke-opacity:1" d="M236.357 122.545c-.887.024-1.78.177-2.642.391-2.7.672-5.266 1.92-7.402 3.704-2.463 2.057-4.35 4.806-7.09 6.478-1.404.856-2.974 1.392-4.49 2.027-1.517.635-3.024 1.4-4.145 2.602-1.402 1.505-2.066 3.56-2.39 5.592-.326 2.032-.354 4.103-.695 6.132-.212 1.267-.55 2.525-1.143 3.664-.593 1.14-1.453 2.162-2.558 2.817-.855.506-1.83.781-2.816.906-.986.125-1.985.106-2.977.056-1.985-.098-4.023-.31-5.924.27a7.445 7.445 0 0 0-4.503 3.91 7.457 7.457 0 0 0-.12 5.965 68.487 68.487 0 0 1 11.407-2.16 68.488 68.488 0 0 1 9.56-.308 25.277 25.277 0 0 1-7.093 8.947 25.296 25.296 0 0 1-12.333 5.245 15.644 15.644 0 0 0 6.784 2.468c4.429.512 9.05-.99 12.333-4.01.848 5.627-1.025 11.603-4.934 15.737-3.693 3.905-9.124 6.102-14.492 5.862a16.606 16.606 0 0 0 7.709 2.775c3.406.325 6.909-.44 9.868-2.159 1.699 4.26 1.348 9.284-.925 13.266a15.39 15.39 0 0 1-5.46 5.564 15.38 15.38 0 0 1-7.491 2.152c4.391 2.629 9.842 3.423 14.802 2.159a19.534 19.534 0 0 0 7.4-3.703 51.34 51.34 0 0 1-3.392 16.353 51.284 51.284 0 0 1-6.168 11.417 25.066 25.066 0 0 0 12.026-5.555 25.06 25.06 0 0 0 7.093-9.873 65.969 65.969 0 0 1-7.093 28.386 25.57 25.57 0 0 0 10.176-5.554 25.539 25.539 0 0 0 5.551-7.095 21.3 21.3 0 0 1 0 12.033c-1.472 4.962-4.837 9.337-9.252 12.034a44.258 44.258 0 0 0 13.26-6.172 44.303 44.303 0 0 0 11.41-11.417 44.295 44.295 0 0 0 11.408 11.417 44.258 44.258 0 0 0 13.26 6.172c-4.415-2.697-7.778-7.072-9.25-12.034a21.3 21.3 0 0 1 0-12.033 25.532 25.532 0 0 0 5.55 7.095 25.57 25.57 0 0 0 10.175 5.555 65.97 65.97 0 0 1-4.317-10.8 66.018 66.018 0 0 1-2.774-17.587 25.055 25.055 0 0 0 7.091 9.873 25.066 25.066 0 0 0 12.026 5.555 51.275 51.275 0 0 1-6.165-11.417 51.34 51.34 0 0 1-3.392-16.353 19.534 19.534 0 0 0 7.4 3.703c4.959 1.264 10.41.47 14.802-2.159a15.378 15.378 0 0 1-7.49-2.152 15.39 15.39 0 0 1-5.462-5.564c-2.273-3.982-2.623-9.006-.925-13.266a16.646 16.646 0 0 0 9.867 2.159 16.606 16.606 0 0 0 7.709-2.775c-5.37.24-10.8-1.957-14.493-5.862-3.91-4.134-5.782-10.11-4.933-15.737 3.282 3.02 7.905 4.522 12.335 4.01a15.644 15.644 0 0 0 6.784-2.468 25.303 25.303 0 0 1-12.336-5.245 25.278 25.278 0 0 1-7.093-8.947 68.448 68.448 0 0 1 20.97 2.468 7.457 7.457 0 0 0-.121-5.966 7.449 7.449 0 0 0-4.505-3.908c-1.9-.582-3.936-.37-5.921-.27-.993.049-1.991.068-2.977-.057-.986-.125-1.964-.4-2.82-.906-1.104-.655-1.964-1.677-2.557-2.817-.592-1.14-.93-2.397-1.143-3.664-.34-2.03-.367-4.1-.692-6.132-.325-2.032-.989-4.087-2.391-5.592-1.12-1.203-2.628-1.967-4.144-2.602-1.517-.635-3.087-1.17-4.49-2.027-2.74-1.672-4.63-4.421-7.093-6.478-2.136-1.784-4.7-3.032-7.4-3.704-1.722-.428-3.579-.617-5.242 0-1.732.643-3.032 2.067-4.318 3.394a70.476 70.476 0 0 1-4.933 4.63 70.513 70.513 0 0 1-4.935-4.63c-1.285-1.327-2.584-2.75-4.315-3.394-.832-.308-1.713-.415-2.6-.391z" transform="translate(-22.446 -50.359)"/><path style="stroke:#000;stroke-width:.99999994;stroke-opacity:1" d="m240.69 165.69.003.002c-.485.1 0 .92 0 1.38 0 .736.108 1.48 0 2.21a20.904 20.904 0 0 1-1.794 5.93c-1.022 2.137-3.33 3.69-4.03 5.935-.415 1.326-.1 2.763-.005 4.14.073 1.066-.223 2.303.445 3.175.578.755 1.787.83 2.681 1.244 1.49.691 3.158 1.123 4.471 2.074.721.523 1.144 1.33 1.787 1.933.79.744 1.506 2.503 2.532 2.074.679-.284.17-1.4 0-2.071-.127-.501-.41-.97-.743-1.382-.609-.757-1.443-1.338-2.234-1.934-1.274-.958-3.158-1.335-4.024-2.625-.504-.751-.37-1.741-.445-2.623-.067-.78-.086-1.568 0-2.345.151-1.355.545-2.68.9-4.003.471-1.767 1.284-3.455 1.642-5.244.218-1.09.348-2.206.3-3.313a9.104 9.104 0 0 0-.445-2.486c-.243-.727-.238-2.235-1.041-2.071zm15.014.015c-.803-.165-.802 1.344-1.046 2.072a9.078 9.078 0 0 0-.45 2.483c-.05 1.107.08 2.223.296 3.313.355 1.79 1.165 3.478 1.636 5.246.353 1.323.742 2.65.89 4.005.085.778.065 1.565 0 2.345-.075.882.057 1.873-.45 2.623-.868 1.29-2.754 1.664-4.028 2.621-.792.595-1.625 1.173-2.236 1.93-.333.411-.618.878-.746 1.379-.172.671-.68 1.787 0 2.071 1.027.43 1.743-1.326 2.535-2.069.644-.604 1.069-1.41 1.791-1.931 1.315-.949 2.981-1.378 4.473-2.067.895-.413 2.106-.487 2.687-1.242.668-.87.373-2.11.45-3.175.097-1.378.414-2.813.004-4.14-.696-2.246-3-3.802-4.019-5.939a20.924 20.924 0 0 1-1.785-5.936c-.107-.73 0-1.471 0-2.207 0-.46.486-1.282 0-1.382h-.003z" transform="translate(-22.446 -50.359)"/><path style="fill:none;stroke:#000;stroke-width:5;stroke-linecap:round;stroke-linejoin:round;stroke-miterlimit:4;stroke-dasharray:none;stroke-opacity:1" d="M283.655 150.574s-2.455 1.468-3.81 1.851c-1.26.357-2.598.449-3.904.388-1.194-.056-2.342-.492-3.523-.686a89.645 89.645 0 0 0-4.378-.589c-.697-.08-1.394-.18-2.094-.196-.7-.017-2.095.096-2.095.096M212.761 150.52s2.453 1.471 3.808 1.857c1.26.358 2.598.452 3.903.393 1.194-.054 2.343-.488 3.524-.68a89.54 89.54 0 0 1 4.38-.582c.696-.078 1.393-.178 2.094-.193.699-.016 2.095.1 2.095.1" transform="translate(-22.446 -50.359)"/><path style="fill:none;stroke:#000;stroke-width:5.00001574;stroke-linecap:round;stroke-opacity:1" d="M248.216 143.03v7.613" transform="translate(-22.446 -50.359)"/><path style="stroke:#000;stroke-width:.99999994;stroke-opacity:1" d="M286.866 157.698c-.09.917-1.96.31-2.952.389-1.225.096-2.463.195-3.689.095a16.61 16.61 0 0 1-3.584-.686c-.849-.265-1.559-.86-2.424-1.075-.85-.213-1.778-.006-2.635-.197-.628-.14-1.75-.088-1.791-.685-.036-.523.937-.624 1.476-.78.775-.223 1.615-.233 2.424-.193 1.108.054 2.187.356 3.267.588.922.198 1.822.473 2.743.685 1.224.284 2.474.468 3.688.784 1.177.306 3.588-.051 3.478 1.076zM209.538 157.643c.089.917 1.96.314 2.951.393 1.226.098 2.464.199 3.69.1a16.622 16.622 0 0 0 3.584-.68c.85-.265 1.56-.858 2.426-1.073.851-.212 1.778-.005 2.635-.193.628-.14 1.75-.085 1.793-.682.037-.524-.936-.625-1.475-.782-.774-.224-1.614-.235-2.424-.196-1.108.053-2.187.352-3.268.583-.921.196-1.823.47-2.742.681-1.225.281-2.475.464-3.69.778-1.177.304-3.588-.056-3.48 1.07z" transform="translate(-22.446 -50.359)"/><path d="M246.42 157.076s-.261-2.26-.524-3.368c-.263-1.11-.528-2.241-1.052-3.27-.63-1.242-1.526-2.364-2.474-3.418-.58-.645-1.064-1.57-1.948-1.758-.38-.081-.873.053-1.108.34-.254.313-.202.807-.053 1.172.187.463.736.716 1.105 1.074.807.782 1.77 1.447 2.423 2.344.86 1.184 1.326 2.579 1.894 3.907.356.832.338 1.843.947 2.538.194.221.79.44.79.44zM249.99 157.081s.265-2.26.53-3.367c.265-1.11.531-2.24 1.056-3.269.633-1.24 1.53-2.361 2.48-3.414.582-.644 1.068-1.569 1.952-1.756.379-.08.873.055 1.105.343.254.312.201.806.052 1.172-.189.463-.738.715-1.108 1.072-.808.781-1.772 1.445-2.426 2.341-.863 1.182-1.331 2.577-1.901 3.904-.357.832-.341 1.843-.95 2.537-.195.222-.792.44-.792.44z" style="stroke:#000;stroke-width:1.00000322;stroke-linejoin:round;stroke-opacity:1" transform="translate(-22.446 -50.359)"/><path style="stroke:#000;stroke-width:.99999994;stroke-opacity:1" d="M243.18 156.885s-.71-2.056-1.21-3.027a9.081 9.081 0 0 0-.842-1.318c-.65-.861-1.387-1.669-2.16-2.441-.396-.398-.805-.788-1.263-1.124-.28-.204-.54-.535-.896-.537-.33-.004-.683.22-.843.488-.128.214-.082.5 0 .732.157.442.57.77.895 1.123.733.798 1.659 1.432 2.37 2.247.86.987 1.38 2.205 2.264 3.174.217.237.429.513.737.635.292.115.949.05.949.05zM253.224 156.89s.714-2.054 1.215-3.025c.238-.46.528-.898.845-1.317.652-.86 1.39-1.667 2.163-2.438.397-.397.807-.787 1.265-1.122.28-.204.542-.533.897-.536.331-.003.682.22.843.489.128.213.083.5 0 .732-.158.442-.571.768-.897 1.122-.734.796-1.663 1.429-2.373 2.243-.862.986-1.382 2.205-2.27 3.17-.217.238-.429.513-.739.634-.29.114-.95.048-.95.048z" transform="translate(-22.446 -50.359)"/><path d="M234.909 160.88s1.024.243 1.528.392c.392.117.891.1 1.159.391.185.202.166.517.157.781-.015.47-.145.945-.37 1.367-.33.621-.898 1.109-1.394 1.627-.639.668-1.289 1.34-2.035 1.902-.814.613-1.714 1.129-2.636 1.59-.692.347-1.402.692-2.165.877-.82.2-1.683.267-2.53.242a7.588 7.588 0 0 1-1.896-.295c-.83-.243-1.607-.63-2.356-1.04-1.355-.744-2.674-1.573-3.837-2.558-.504-.426-.992-.89-1.34-1.434-.23-.358-.589-.768-.473-1.171.034-.122.197-.18.317-.244.519-.279 1.11-.428 1.687-.585.396-.107.805-.177 1.212-.243.384-.062 1.16-.145 1.16-.145s-.018.764.103 1.123c.159.466.467.883.79 1.27.692.827 1.538 1.545 2.422 2.2.408.3.843.58 1.317.78.566.24 1.173.42 1.792.49.402.046.814.019 1.213-.048.662-.11 1.323-.285 1.921-.57.479-.227.902-.55 1.296-.891.85-.736 1.736-1.499 2.271-2.456.33-.59.4-1.28.526-1.934.09-.468.16-1.415.16-1.415z" style="stroke:#000;stroke-width:1.00000322;stroke-linejoin:round;stroke-opacity:1" transform="translate(-22.446 -50.359)"/><path style="stroke:#000;stroke-width:3.0000093;stroke-linejoin:round;stroke-opacity:1" d="M229.452 161.132c.27.04.535.129.782.242.161.073.324.155.447.276.118.117.192.268.26.414.155.33.35.676.334 1.035-.016.382-.151.803-.448 1.07-.265.239-.676.32-1.044.345-.391.027-.836.004-1.155-.208-.303-.2-.432-.573-.559-.898-.149-.385-.27-.801-.222-1.208.035-.309.128-.652.373-.862.182-.156.464-.172.708-.207.173-.025.35-.026.522 0" transform="translate(-22.446 -50.359)"/><path d="M261.479 160.908s-1.025.241-1.53.389c-.39.115-.893.099-1.16.39-.185.201-.167.516-.159.78.014.47.144.946.368 1.369.33.621.895 1.11 1.39 1.629.64.668 1.286 1.34 2.032 1.904.813.615 1.712 1.132 2.634 1.595.691.348 1.4.694 2.16.88a9.5 9.5 0 0 0 2.529.246 7.637 7.637 0 0 0 1.897-.292c.83-.241 1.609-.628 2.357-1.037 1.358-.741 2.676-1.569 3.843-2.552.505-.426.994-.89 1.344-1.433.23-.358.59-.767.475-1.17-.036-.123-.198-.18-.316-.244-.519-.28-1.111-.43-1.687-.587a11.88 11.88 0 0 0-1.21-.245c-.384-.063-1.16-.147-1.16-.147s.017.765-.106 1.123c-.158.465-.468.882-.792 1.268-.693.827-1.54 1.544-2.427 2.195-.408.3-.843.58-1.317.78a6.49 6.49 0 0 1-1.793.486 4.429 4.429 0 0 1-1.21-.05c-.662-.11-1.322-.287-1.92-.573-.478-.228-.901-.553-1.294-.893-.85-.737-1.734-1.5-2.267-2.459-.33-.592-.398-1.28-.523-1.935-.089-.467-.157-1.416-.157-1.416z" style="stroke:#000;stroke-width:1.00000322;stroke-linejoin:round;stroke-opacity:1" transform="translate(-22.446 -50.359)"/><path style="stroke:#000;stroke-width:3.0000093;stroke-linejoin:round;stroke-opacity:1" d="M266.942 161.159c-.272.04-.536.13-.783.241a1.51 1.51 0 0 0-.447.276 1.383 1.383 0 0 0-.26.414c-.156.33-.352.675-.337 1.036.016.382.15.803.446 1.07.265.238.675.32 1.044.345.39.028.836.005 1.155-.207.303-.2.433-.572.56-.897.15-.384.27-.802.224-1.208-.035-.308-.127-.653-.372-.863-.181-.156-.463-.173-.708-.207a1.813 1.813 0 0 0-.522 0" transform="translate(-22.446 -50.359)"/><path style="fill:gold;fill-opacity:1;stroke:#000;stroke-width:3.00027847;stroke-linejoin:round;stroke-opacity:1" d="M239.324 203.809v19.175h.065v.101c0 4.96 3.933 8.982 8.799 8.982 4.863 0 8.828-4.025 8.828-8.982v-.101h.033v-19.175h-17.721z" transform="translate(-22.446 -50.359)"/><path style="fill:none;stroke:#000;stroke-width:3.00027847;stroke-linecap:round;stroke-linejoin:round;stroke-opacity:1" d="M239.553 220.618s-4.148-2.266-5.364-4.17c-.94-1.472-1.46-3.38-1.167-5.097.49-2.873 4.665-7.413 4.665-7.413M256.82 220.618s4.148-2.266 5.365-4.17c.94-1.472 1.458-3.38 1.166-5.097-.49-2.873-4.665-7.413-4.665-7.413M230.226 186.68s-2.4 3.527-2.798 5.561c-.372 1.901-.292 4.007.466 5.792.643 1.513 1.88 2.812 3.266 3.707 1.979 1.278 4.404 2.04 6.764 2.085 2.093.04 4.296-.51 6.064-1.622 1.724-1.085 3.229-2.743 3.966-4.634.814-2.09.233-6.718.233-6.718" transform="translate(-22.446 -50.359)"/><path style="fill:none;stroke:#000;stroke-width:3.00027847;stroke-linecap:round;stroke-linejoin:round;stroke-opacity:1" d="M266.147 186.68s2.4 3.527 2.799 5.561c.371 1.901.291 4.007-.467 5.792-.642 1.513-1.88 2.812-3.265 3.707-1.98 1.278-4.404 2.04-6.764 2.085-2.094.04-4.297-.51-6.065-1.622-1.723-1.085-3.228-2.743-3.965-4.634-.814-2.09-.233-6.718-.233-6.718" transform="translate(-22.446 -50.359)"/><path style="opacity:1;fill:#000;fill-opacity:1;fill-rule:nonzero;stroke:#000;stroke-width:1;stroke-linecap:round;stroke-linejoin:round;stroke-miterlimit:4;stroke-dasharray:none;stroke-dashoffset:0;stroke-opacity:1" d="M246.557 715.99c.657 3.81 4.967 6.224 9.666 5.415l46.097-7.945c4.699-.81 7.954-4.529 7.298-8.337l-.173-1.001 31.623-16.325 163.678-28.209-1.108-6.429-163.678 28.21-35.263-4.798-.173-1c-.656-3.81-4.968-6.224-9.667-5.414l-46.098 7.945c-4.698.81-7.951 4.528-7.295 8.336l5.093 29.553zm61.727-18.609-2.425-14.07 23.487 3.197-21.062 10.873z" transform="translate(-22.446 -50.359)"/><path style="opacity:1;fill:#000;fill-opacity:1;fill-rule:nonzero;stroke:#000;stroke-width:5;stroke-linecap:round;stroke-linejoin:round;stroke-miterlimit:4;stroke-dasharray:none;stroke-dashoffset:0;stroke-opacity:1" d="M226.517 558.959a8.542 8.542 0 0 0-8.56 8.56 8.542 8.542 0 0 0 8.56 8.56h16.443v10.985h4.824v17.023h9.995v25.985h230.568v-25.985h9.994v-17.023h4.824V576.08h16.444a8.542 8.542 0 0 0 8.56-8.56 8.542 8.542 0 0 0-8.56-8.561H226.517z" transform="translate(-22.446 -50.359)"/><path style="fill:none;fill-rule:evenodd;stroke:#fff;stroke-width:5;stroke-linecap:square;stroke-linejoin:miter;stroke-miterlimit:4;stroke-dasharray:none;stroke-opacity:1" d="M257.779 604.087h230.568M247.784 587.064h250.557M242.96 576.08h260.205" transform="translate(-22.446 -50.359)"/></svg>