<svg xmlns="http://www.w3.org/2000/svg" width="726.469" height="791.22" viewBox="0 0 192.212 209.344"><path style="fill:red;fill-opacity:1;fill-rule:evenodd;stroke:none;stroke-width:3.10444427;stroke-opacity:1" d="m187.012 6.029-.96 117.58c-2.092 49.46-43.439 88.631-93.581 88.659-50.097-.06-91.46-39.246-93.582-88.659L-2.07 6.03H92.47z" transform="translate(3.635 -4.477)"/><path style="fill:#000;stroke:#000;stroke-width:.26458332px;stroke-linecap:butt;stroke-linejoin:miter;stroke-opacity:1" d="M148.349 8.904c-.096.001-.19.014-.285.042-.786.23-.838 1.411-1.316 2.076-.434.603-1.406 1.73-1.406 1.73s-.758-.9-1.189-1.297c-.604-.557-1.147-1.32-1.945-1.514-1.532-.372-3.641-.347-4.649.865-.3.36-.2.982 0 1.406.22.462.783.661 1.19.973.246.188.586.281.756.54.283.431.324 1.514.324 1.514s-1.326-.718-2.054-.865a5.073 5.073 0 0 0-1.945 0c-.572.11-1.141.32-1.622.648-.653.446-1.46.956-1.622 1.73-.133.636.28 1.303.649 1.837.51.737 2.054 1.73 2.054 1.73s-1.166 3.342-1.189 5.08c-.014 1.068-.033 2.315.649 3.136.547.659 1.522.944 2.378.973.683.022 1.945-.649 1.945-.649s.378 1.106.65 1.622c.483.92.895 1.974 1.729 2.594.695.517 1.626.863 2.486.757.834-.103 1.662-.622 2.162-1.297.354-.478.337-1.143.432-1.73.076-.464.109-1.405.109-1.405s.617-.141.864-.324c.62-.46 1.104-1.13 1.406-1.839.371-.872.744-1.914.432-2.81-.226-.65-.83-1.322-1.513-1.405-.368-.045-.64.375-.973.54-.578.287-1.128.814-1.771.777-.443-.025-.895-.306-1.151-.669-.445-.629-.666-1.537-.43-2.27.223-.687.887-1.262 1.573-1.49.827-.276 1.816-.085 2.597.301.764.378 1.275 1.149 1.776 1.838.721.99 1.366 2.073 1.73 3.243.378 1.212.529 2.518.432 3.784-.062.819-.185 1.7-.648 2.378-.684 1-1.852 1.59-2.92 2.162-1.586.851-3.357 1.312-5.08 1.838-.995.303-2.232.086-3.027.756-.752.635-1.136 1.72-1.189 2.703-.044.83.262 1.709.757 2.378.339.458 1.405.973 1.405.973s.137 1.385.17 2.08c.053 1.107.046 3.325.046 3.325s-.849.88-1.297 1.297c-.767.713-1.646 1.305-2.378 2.054-.554.568-1.035 1.205-1.513 1.838-.344.454-.57 1.002-.973 1.405-1.116 1.118-2.66 1.714-3.892 2.702-.994.798-2.81 2.595-2.81 2.595s-.982-.67-1.406-1.081c-1.47-1.427-2.708-3.085-3.892-4.756a39.688 39.688 0 0 1-3.026-4.973c-.811-1.6-.923-3.581-2.054-4.973-.687-.845-1.718-1.371-2.703-1.838-.917-.434-2.918-.864-2.918-.864s-.356-.656-.649-.865c-.654-.466-1.494-.652-2.292-.738-.677-.073-2.032.197-2.032.197s-1.076-.94-1.73-1.189c-.597-.227-1.903-.24-1.903-.24s-.578-1.209-1.016-1.705c-.695-.79-1.586-1.4-2.486-1.947-.372-.225-1.189-.54-1.189-.54s.204-1.47.24-2.21c.038-.776-.024-2.33-.024-2.33s1.377-.44 1.946-.865c.266-.198.383-.557.649-.756.5-.376 1.2-.411 1.707-.776.67-.483 1.314-1.08 1.69-1.816.302-.59.355-1.287.386-1.949.032-.695.076-1.445-.214-2.078-.679-1.477-1.987-2.661-3.353-3.543-.833-.538-2.81-.973-2.81-.973s-.708-1.964-1.298-2.81c-.524-.753-1.129-1.53-1.946-1.947-1.235-.629-2.723-.705-4.108-.648-1.52.063-3.05.445-4.432 1.081-1.29.594-2.59 1.364-3.46 2.486-.425.55-.756 1.946-.756 1.946s-1.127.17-1.621.432a7.238 7.238 0 0 0-2.379 2.054c-.733.983-1.555 2.127-1.513 3.352.038 1.063.775 2.043 1.513 2.81.493.512 1.838 1.08 1.838 1.08s-.043.94 0 1.407c.066.708.141 1.432.391 2.098.16.424.34.882.69 1.169.236.193.56.29.865.3.41.014 1.19-.325 1.19-.325l.432 1.298c.18.54.27 1.12.54 1.621.194.358.665.56.757.956.076.33.026.755-.217.99-.546.528-1.486.335-2.242.408-.583.057-1.226-.221-1.757.025-.348.16-.454.63-.757.864a3.406 3.406 0 0 1-1.081.54c-.521.16-1.622.217-1.622.217s-.689-.888-1.189-1.08c-.907-.352-2.001-.326-2.918 0-.7.248-1.218.866-1.73 1.404-.8.841-1.496 1.793-2.054 2.81-.334.611-.757 1.946-.757 1.946s-.588-.083-.864 0c-.249.076-.449.267-.649.433-1.39 1.157-2.54 2.578-3.783 3.892-2.121 2.241-4.186 4.535-6.27 6.81-1.12 1.223-3.352 3.675-3.352 3.675s-1.227-.126-1.837-.216c-.616-.09-1.838-.324-1.838-.324s-1.627-2.735-2.702-3.892c-.82-.882-2.811-2.27-2.811-2.27s.087-2.773.129-4.16c.03-.992.052-1.983.087-2.974.031-.865-.035-1.742.108-2.595.063-.371.194-.728.324-1.08.34-.924 1.014-1.735 1.19-2.703.116-.64.05-1.316-.109-1.946-.27-1.08-.866-2.054-1.405-3.027-.416-.752-.6-1.861-1.405-2.162-.492-.184-1.513.432-1.513.432s-.161-1.166-.325-1.73c-.162-.558-.193-1.259-.648-1.621-.371-.295-.934-.263-1.405-.216-.726.073-1.378.484-2.055.757-1.167.47-2.42.804-3.459 1.513-.42.287-.903.604-1.08 1.081-.178.474.056 1.01.107 1.513.111 1.085.287 2.163.433 3.244.107.792.27 1.58.324 2.378.042.61-.11 1.235 0 1.837.055.303.198.585.324.865.285.632.684 1.208.973 1.838.453.985.646 2.088 1.19 3.027.23.4.864 1.08.864 1.08s-.514.375-.649.65c-.127.26-.107.574-.108.864-.002.617.198 1.221.217 1.838.02.65-.109 1.946-.109 1.946s-1.143-.252-1.62 0c-.735.387-1.068 1.296-1.406 2.054-.62 1.388-.856 2.928-1.081 4.432-.37 2.463-.661 4.979-.433 7.459.221 2.402 1.044 4.714 1.73 7.026.747 2.524 1.936 4.91 2.594 7.46.265 1.026.053 2.193.54 3.135.188.362.51.663.865.864.776.44 1.707.723 2.595.649.627-.053 1.32-.279 1.73-.757.46-.538.18-1.445.54-2.054.506-.856 1.434-1.377 2.162-2.054.785-.729 2.379-2.162 2.379-2.162s2.404 1.729 3.675 2.486c.803.48 1.605.987 2.486 1.298.52.183 1.07.302 1.621.324.617.025 1.255-.017 1.839-.216.596-.204 1.083-.644 1.62-.973 1.45-.888 2.93-1.733 4.325-2.703 1.456-1.011 4.216-3.242 4.216-3.242s-.158 4.905 0 7.35c.18 2.793 1.08 8.324 1.08 8.324H67.51s-.235 2.458-.433 3.675c-.964 5.922-1.999 11.86-3.675 17.62-1.034 3.556-3.161 6.77-3.92 10.394-.388 1.85-.296 5.66-.296 5.66l56.807 2s1.488-5.504 1.513-8.324c.025-2.793-.962-5.504-1.35-8.27-.493-3.503-1.036-7.008-1.244-10.54-.123-2.086-.088-4.181 0-6.27.162-3.865.708-7.706.973-11.566.14-2.034.324-6.108.324-6.108s2.097 3.83 3.406 5.567c.352.469.731.93 1.189 1.298.308.247.635.535 1.026.594.402.061.853-.042 1.19-.27.343-.233.427-.717.702-1.027.366-.41.828-.722 1.243-1.081.792-.686 1.561-1.4 2.379-2.054.613-.492 1.891-1.405 1.891-1.405s.196 1.12.325 1.675c.14.6.06 1.338.486 1.784.445.466 1.196.544 1.838.594a8.104 8.104 0 0 0 3.73-.594c1.387-.586 2.589-1.606 3.62-2.703.429-.455 1.028-1.567 1.028-1.567s.165 3.89.216 5.837c.303 11.492.395 22.99.54 34.484.072 5.657.11 11.315.163 16.972.127 13.423.37 26.845.378 40.268.002 4.303-.326 8.61-.106 12.908.088 1.736-.335 3.7.573 5.183.365.595 1.077.961 1.749 1.151.205.058.415.09.626.113a94.243 94.243 0 0 0 4.379-3.068c-.083-2.62-.228-7.27-.303-10.504a5711.4 5711.4 0 0 1-1.189-71.346 3356.556 3356.556 0 0 1-.162-37.782c.002-3.08.045-6.161.054-9.242.004-1.478 0-4.432 0-4.432s1.306-.02 1.892-.27c.99-.425 2.08-1.026 2.54-2 .37-.783-.142-1.734-.054-2.595.066-.643.466-1.246.433-1.892-.057-1.12-.529-2.211-1.081-3.189-.302-.534-1-.821-1.19-1.405-.071-.224.012-.471.055-.702.068-.37.39-.711.324-1.081-.126-.71-.67-1.376-1.298-1.73-.473-.267-1.62-.162-1.62-.162s-.174-.68-.217-1.027c-.058-.465-.183-.955-.054-1.406.133-.46.427-.9.81-1.189.834-.626 1.963-.714 2.973-.973 1.9-.486 3.925-.456 5.784-1.08.955-.321 2.11-.538 2.703-1.352.279-.383.343-.949.216-1.405-.189-.678-.929-1.06-1.352-1.622-.444-.591-1.406-1.116-1.243-1.838.212-.937 1.764-.825 2.487-1.459a8.353 8.353 0 0 0 1.891-2.432c.432-.836.729-1.766.81-2.703.054-.614.184-1.368-.215-1.838-.17-.2-.495-.208-.757-.216-.406-.01-.79.195-1.189.27-.358.068-1.08.163-1.08.163s.546-.917.756-1.406c.298-.697.55-1.42.702-2.161.158-.762.364-1.56.216-2.325-.127-.656-.268-1.63-.918-1.784-.803-.19-1.236 1.15-2 1.46-.472.192-1.514.216-1.514.216s.23-.97.325-1.46c.104-.537.25-1.073.27-1.62.03-.796-.025-1.606-.216-2.379-.225-.91-.216-2.235-1.081-2.595-.791-.328-1.665.5-2.378.974-.552.366-1.406 1.405-1.406 1.405s-.011-1.256-.216-1.838c-.225-.641-.571-1.28-1.081-1.73-.517-.456-1.191-1.045-1.858-1.037z" transform="translate(3.635 -4.477)"/><path style="fill:gold;fill-opacity:1;stroke:none;stroke-width:1.00157475;stroke-linecap:round;stroke-linejoin:round;stroke-miterlimit:4;stroke-dasharray:none;stroke-opacity:1" d="M576.115 23.105c-.858.027-1.7.768-2.33 1.383-1.547 1.512-1.93 3.877-3.037 5.735-1.453 2.437-3.239 4.665-4.723 7.084-1.079 1.76-3.035 5.396-3.035 5.396s-2.346-2.622-3.373-4.047c-1.624-2.253-2.597-4.958-4.385-7.084-1.742-2.072-3.479-4.616-6.072-5.396-1.522-.459-3.85-.655-4.722.674-2.112 3.214 2.438 7.333 3.035 11.132.384 2.447 1.591 5.285.338 7.42-1.019 1.735-3.41 2.388-5.397 2.7-1.461.229-2.953-.312-4.387-.676-2.895-.737-5.457-3.313-8.431-3.035-2.208.206-5.105 1.246-5.735 3.373-.428 1.446.947 2.992 2.024 4.048 1.867 1.832 4.858 2 7.084 3.374 1.09.673 2.569 1.167 3.035 2.36.497 1.275.178 2.978-.674 4.048-1.288 1.617-4.31.862-5.734 2.361-1.396 1.47-1.627 3.747-2.026 5.734-.776 3.865-1.29 7.914-.674 11.807.34 2.145.611 4.787 2.362 6.072 1.362 1 3.509 1.006 5.06.336 2.274-.981 3.524-3.567 4.723-5.734 1.033-1.867 2.023-6.07 2.023-6.07s1.943 4.444 2.698 6.746c.978 2.98 1.115 6.229 2.361 9.107 2.007 4.638 3.244 11.403 8.096 12.818 2.028.592 4.149-1.303 5.734-2.699 1.1-.969 2.147-2.26 2.361-3.71.428-2.888-2.369-5.513-2.36-8.432.001-.819 0-1.899.675-2.362 1.024-.702 2.47.392 3.71.336 1.257-.056 2.56-.163 3.71-.674 1.685-.748 3.422-1.8 4.387-3.373.957-1.56 1.011-5.396 1.011-5.396s-5.195 3.076-8.095 3.709c-1.758.384-3.668.49-5.399 0-3.303-.935-6.88-2.53-8.77-5.397-2.125-3.226-1.813-7.606-1.687-11.468.053-1.61.275-3.292 1.014-4.723 1.679-3.253 4.24-6.28 7.42-8.096 3.293-1.88 7.356-2.713 11.133-2.361 2.91.271 5.816 1.542 8.095 3.373 5.034 4.044 8.648 9.893 11.131 15.854 2.943 7.065 4.484 14.96 4.047 22.601-.268 4.688-1.465 9.57-4.047 13.492-2.501 3.8-6.654 6.276-10.457 8.772-3.573 2.345-7.505 4.136-11.469 5.734-3.496 1.41-7.16 2.374-10.795 3.373-2.34.644-4.908.609-7.084 1.686-1.432.709-3.024 1.593-3.709 3.037-.77 1.626-.877 3.826 0 5.396.838 1.499 2.755 2.164 4.385 2.7 1.286.422 3.191-.714 4.047.336 1.79 2.194-.934 5.603-1.012 8.433-.096 3.492.676 10.457.676 10.457s3.737 1.681 5.734 2.024c2.217.38 6.747 0 6.747 0s.121-4.32-.338-6.409c-.39-1.774-1.612-3.29-2.024-5.06-.332-1.428-.62-2.946-.338-4.385.29-1.48.914-3.025 2.024-4.047 2.673-2.46 6.668-2.919 10.12-4.049 7.284-2.383 14.792-4.026 22.263-5.734 2.235-.511 4.613-.51 6.748-1.35 1.597-.628 4.055-1.014 4.384-2.699.402-2.052-2.378-3.446-3.71-5.058-1.601-1.937-3.548-3.573-5.133-5.522-.852-1.047-2.526-1.965-2.342-3.303.24-1.742 2.746-2.2 4.101-3.32 3.63-2.999 7.582-5.667 10.795-9.107a26.853 26.853 0 0 0 3.71-5.059c1.567-2.76 3.71-8.771 3.71-8.771s-2.214.998-3.373 1.35c-2.09.632-4.23 1.206-6.408 1.349-1.463.095-3.073.313-4.387-.338-1.213-.602-2.72-1.682-2.697-3.035.051-3.102 4.473-4.323 6.408-6.746 2.277-2.851 5.234-5.559 6.072-9.11.625-2.647-1.011-8.095-1.011-8.095s-4.664 2.176-7.084 3.037c-1.543.548-3.086 1.335-4.723 1.35-1.745.015-3.74-.208-5.06-1.35-.648-.56-.988-1.506-1.012-2.362-.038-1.315.73-2.55 1.35-3.71.985-1.845 3.023-3.086 3.71-5.061.999-2.87.704-6.092.338-9.108-.394-3.25-2.699-9.445-2.699-9.445s-2.91 2.713-4.385 4.049c-2.007 1.818-3.738 4.024-6.072 5.396-2.054 1.208-4.405 2.802-6.746 2.362-1.019-.192-1.946-1.074-2.361-2.024-.555-1.27-.052-2.786.158-4.156.294-1.921 1.582-3.684 1.527-5.627-.06-2.132-1.017-4.19-2.023-6.07-.605-1.13-1.111-2.754-2.362-3.037a1.437 1.437 0 0 0-.367-.034zm-212.2 7.96c-2.133.027-4.29.313-6.362.62-3.76.558-7.6 1.572-10.828 3.577-2.843 1.765-4.207 5.38-7.047 7.15-1.097.683-2.635.462-3.678 1.225-.374.273-.557.739-.816 1.123-.54.798-1.534 2.453-1.534 2.453s8.11-.625 12.157-1.022c4.262-.417 8.514-.93 12.767-1.431 2.76-.325 5.495-1 8.274-1.022 3.493-.027 6.932.904 10.418 1.125 1.733.11 5.209.102 5.209.102s-.24-2.612-.918-3.678c-2.638-4.145-6.832-7.595-11.442-9.295-1.965-.725-4.07-.955-6.2-.928zm4.396 17.595c-6.762-.058-13.545.724-20.217 1.81-7.55 1.23-15.374 2.277-22.246 5.635-.987.483-1.599 1.571-2.6 2.022-.715.322-1.527.45-2.31.434-.643-.014-1.237-.44-1.88-.434-.793.007-1.664.116-2.31.578-1.444 1.034-2.3 2.802-2.889 4.479-.625 1.78-.759 3.753-.578 5.632.16 1.653.508 3.396 1.444 4.768.656.963 1.7 1.652 2.746 2.166.89.438 1.921.498 2.888.723 1.343.311 3.045-.083 4.045.867.94.893.84 2.47 1.01 3.756.265 2.005 0 4.044 0 6.066 0 1.83-.439 3.714 0 5.49.248 1.004.603 2.146 1.445 2.744.794.564 2.098 1.002 2.889.434 1.113-.799.787-2.677.723-4.045-.043-.898-.26-1.829-.723-2.6-.65-1.08-2.194-1.467-2.744-2.601-.696-1.436-.544-3.174-.434-4.766.103-1.48.244-3.065 1.012-4.334.955-1.577 2.57-2.726 4.188-3.611 2.071-1.133 4.56-1.247 6.79-2.023 1.96-.682 3.76-1.827 5.778-2.31 1.034-.25 2.178-.652 3.178-.29.192.07.38.236.433.434.141.53-.074 1.174-.433 1.59-.55.636-1.54.674-2.31 1.01-2.454 1.065-4.961 2.01-7.368 3.177-2.462 1.193-5.711 1.62-7.223 3.9-.56.847-.433 2.028-.289 3.034.406 2.823 2.232 5.254 3.178 7.945 1.151 3.276 1.755 6.738 3.033 9.967 1.562 3.944 3.398 7.807 5.635 11.412 1.757 2.831 3.57 5.738 6.066 7.945 1.714 1.515 3.747 2.759 5.922 3.467 1.84.599 3.854.773 5.78.578 3.06-.31 5.99-1.516 8.81-2.744 2.848-1.24 5.67-2.677 8.09-4.623 2.125-1.71 4.301-3.611 5.488-6.067.51-1.054.482-2.299.578-3.466.179-2.16-.098-4.338 0-6.502.073-1.594.249-3.181.434-4.766.118-1.015-.092-2.157.433-3.033.46-.768 1.472-1.025 2.166-1.59 1.508-1.226 3.029-2.46 4.334-3.9.764-.842 1.635-1.676 2.022-2.745.542-1.496.289-4.767.289-4.767s-.77 1.42-1.299 2.023c-1.081 1.233-2.132 2.946-3.756 3.178-.939.134-1.916-.501-2.601-1.156-.7-.67-1.062-1.66-1.3-2.6a11.082 11.082 0 0 1-.144-4.623c.249-1.382 1.176-2.558 1.588-3.9.477-1.553 1.012-4.766 1.012-4.766s-4.966-.741-7.367-1.445c-2.137-.626-4.028-2.016-6.211-2.455-6.94-1.396-14.216-1.366-21.235-.434-3.232.43-6.329 1.616-9.388 2.744a78.924 78.924 0 0 0-9.969 4.479c-1.354.726-2.575 1.675-3.898 2.455-.947.558-1.834 1.288-2.891 1.59-.881.25-1.903.508-2.744.144-.753-.325-1.499-1.064-1.588-1.879-.112-1.027.696-2.03 1.443-2.744 3.77-3.6 9.314-4.716 14.157-6.644 4.993-1.988 10.02-4.12 15.312-5.057 4.507-.798 9.15-.64 13.723-.434 2.762.126 5.526.453 8.234 1.012 2.85.589 5.616 1.534 8.377 2.455 3.122 1.042 6.83 1.233 9.246 3.467 2.42 2.237 3.038 5.869 4.19 8.957 1.171 3.142.068 7.656 2.744 9.678.653.493 1.685.277 2.455 0 2.059-.742 3.942-2.306 5.056-4.19 1.3-2.194 1.566-4.965 1.444-7.511-.164-3.41-.943-7.019-2.889-9.823-3.157-4.549-8.2-7.785-13.289-9.966-6.148-2.636-13.109-3.017-19.79-3.323a77.882 77.882 0 0 0-2.895-.078zM364.92 81.3c.515.008 1.039.052 1.549.04.972-.021 1.943 0 2.916 0 .787 0 1.576-.06 2.361 0 .888.07 1.864-.02 2.64.417a3.52 3.52 0 0 1 1.528 1.806c.335.914.282 1.988 0 2.918-.242.8-.684 1.635-1.389 2.082-.79.503-1.844.365-2.779.418-1.341.077-2.811.433-4.027-.138-.505-.237-.66-.924-1.112-1.25-.572-.413-1.296-.558-1.945-.834-.879-.373-2.077-.34-2.64-1.112-.604-.825-.72-2.133-.278-3.056.288-.603 1.033-.903 1.668-1.111.485-.16.992-.188 1.508-.18zm-14.055.449c.66.002 1.332.06 1.85.426.779.55.465 2.739 1.389 2.5 1.157 0-.138 2.323 0 3.472.186 1.562.82 3.04 1.11 4.584.32 1.7-.156 3.637.696 5.141.438.774 1.251 1.354 2.084 1.666.998.375 2.135.03 3.195.14.84.089 1.847-.119 2.5.417.806.659 1.134 1.877 1.112 2.918-.022 1.057-.403 2.283-1.25 2.916-.635.474-1.599.494-2.362.279-.793-.223-1.137-1.363-1.945-1.53-1.408-.289-2.735 1.234-4.168 1.112-1.218-.103-2.524-.612-3.334-1.527-.708-.8-.808-2-.972-3.057-.405-2.608.14-5.282 0-7.918-.07-1.302.004-2.656-.416-3.89-.315-.925-.61-2.173-1.53-2.5-1.573-.56-3.077 1.384-4.722 1.665-.548.094-1.153.213-1.666 0-.726-.3-1.437-.914-1.668-1.666-.292-.946-.07-2.15.556-2.917.538-.66 1.546-.73 2.362-.973.948-.283 1.943-.369 2.916-.555 1.204-.23 2.387-.68 3.613-.695.211-.003.43-.008.65-.008zM166.953 93.789c-1.254-.061-2.241 1.621-2.451 2.86-.28 1.658 1.627 3.03 1.838 4.699.42 3.335-1.073 6.651-1.225 10.01-.098 2.177.307 4.359.205 6.537-.05 1.096.152 2.326-.41 3.27-.6 1.005-2.136 1.12-2.86 2.042-.452.577-.776 1.31-.816 2.043-.07 1.27.947 2.406 1.022 3.676.053.894.147 1.955-.41 2.656-.457.574-1.313.9-2.041.816-.826-.095-1.589-.733-2.043-1.43-.76-1.162-.089-2.904-.819-4.085-.408-.66-1.072-1.299-1.838-1.43-.848-.145-1.807.244-2.45.817-.957.85-1.6 2.195-1.635 3.474-.096 3.45 2.728 6.348 3.88 9.602.856 2.416 1.363 4.948 2.248 7.353.77 2.09 1.405 4.288 2.657 6.13.595.875 1.475 1.518 2.246 2.245.795.75 1.826 1.284 2.449 2.182.43.62.8 1.355.818 2.11.023.86-.363 1.718-.816 2.45-.658 1.065-1.9 1.66-2.656 2.657-.756.996-1.532 2.055-1.838 3.267-.934 3.698-.007 7.632.205 11.44.162 2.936.749 5.845.816 8.785.1 4.362-.806 8.715-.613 13.074.067 1.51.09 3.076.613 4.494.393 1.063 1.435 1.8 1.838 2.86.466 1.224.511 2.577.613 3.882.096 1.222.604 2.61 0 3.676-.39.691-1.56.597-2.042 1.227-.604.786-.851 1.868-.817 2.86.145 4.197 2.48 8.058 4.29 11.849 1.644 3.446 2.973 7.38 5.923 9.804.616.507 1.452.856 2.248.819 1.43-.067 2.863-.833 3.88-1.84 1.992-1.97 2.852-4.881 3.679-7.559.69-2.236 1.018-4.605 1.021-6.945.008-5.71-2.446-11.244-2.451-16.955-.002-2.408.93-4.745 1.021-7.15.039-1.023.157-2.107-.205-3.065-.394-1.045-1.603-1.63-2.043-2.656-.352-.824-.677-1.8-.408-2.654.622-1.976 3.377-2.638 4.291-4.497a4.55 4.55 0 0 0 .408-2.654 3.175 3.175 0 0 0-.818-1.635c-.647-.69-1.868-.685-2.451-1.43-.744-.95-1.129-2.27-1.022-3.472.068-.758.501-1.488 1.022-2.043.646-.688 1.99-.6 2.447-1.426.99-1.79-.217-4.087-.2-6.133.035-4.09.643-8.167.614-12.257-.038-5.323-1.376-10.623-1.021-15.934.07-1.04.204-2.106.611-3.064.42-.991 1.3-1.725 1.84-2.657.794-1.37 1.543-2.786 2.043-4.289.657-1.977 1.142-4.047 1.224-6.129.114-2.878-.126-5.842-1.021-8.58-.948-2.898-2.42-5.732-4.494-7.966-.835-.9-1.941-2.538-3.065-2.043-.82.36-.405 1.76-.408 2.656-.008 2.34 1.008 4.605 1.022 6.945.015 2.543-.851 5.022-1.022 7.559-.119 1.766 0 3.54 0 5.31 0 .817.45 1.77 0 2.451-.476.723-1.525.947-2.387 1.024-1.205.107-2.694.05-3.537-.818-.644-.665-.603-1.8-.543-2.723.079-1.196.838-2.25 1.157-3.406.518-1.88 1.218-3.771 1.224-5.721.012-3.686-1.87-7.16-2.246-10.826-.09-.88-.191-1.792 0-2.657.244-1.1 1.34-1.94 1.43-3.064.117-1.483-.565-2.957-1.227-4.289-.757-1.525-2.065-2.708-3.064-4.086-.488-.673-.6-2.002-1.43-2.043zm-8.435 2.68a.564.564 0 0 0-.235.082c-.52.333-.546 1.126-.648 1.734-.16.95.032 1.926.07 2.889.034.843-.128 1.728.145 2.527.178.525.734.858.94 1.373.17.43.075.932.216 1.373.099.308.171.677.433.865.415.3 1.083.489 1.516.217.47-.295.416-1.04.506-1.588.219-1.33.133-2.697.072-4.045-.04-.895-.06-1.805-.289-2.671-.154-.584-.348-1.187-.72-1.662-.318-.406-.747-.757-1.23-.94-.236-.09-.526-.188-.776-.154zm-9.09 4.095c-.285.011-.567.068-.823.176-.549.232-1.001.713-1.3 1.229-.41.707-.576 1.565-.576 2.383-.001.619.242 1.218.433 1.806.33 1.016.96 1.926 1.227 2.961.163.634.179 1.296.216 1.95.067 1.201-.147 2.416 0 3.61.073.592.04 1.288.434 1.735.307.349.854.636 1.3.506.546-.158.833-.833 1.01-1.373.151-.458.027-.963 0-1.443-.048-.895-.226-1.78-.288-2.674-.054-.77-.192-1.55-.073-2.31.167-1.062.788-2.002 1.084-3.034.217-.758.54-1.525.506-2.313-.027-.654-.194-1.346-.578-1.877a3.372 3.372 0 0 0-1.732-1.228 2.651 2.651 0 0 0-.84-.104zm208.414 6.862c.097 0 .194.01.29.031.449.097.556.784.973.973.677.305 1.492.013 2.223.138.665.115 1.467.08 1.945.555.583.578.664 1.541.694 2.361.025.663.026 1.452-.416 1.946-.39.436-1.09.463-1.668.556-1.143.186-2.352-.288-3.473 0-1.024.263-1.728 1.652-2.777 1.528-.684-.081-1.25-.76-1.53-1.389-.487-1.101-.402-2.479 0-3.613.32-.9 1.032-1.665 1.807-2.223.562-.404 1.25-.866 1.932-.863zm-197.873 3.496a.512.512 0 0 0-.168.002c-.5.088-.658.812-.795 1.3-.183.65-.015 1.348 0 2.022.011.53-.034 1.07.072 1.59.124.604.143 1.383.65 1.734a.76.76 0 0 0 .795 0c.43-.29.453-.942.579-1.445.216-.87.37-1.78.287-2.672-.055-.576-.181-1.183-.506-1.662-.227-.335-.535-.81-.914-.87zm223.66 4.842s-1.107 3.84-2.457 5.2c-2.974 2.996-7.54 3.804-11.41 5.49-2.181.949-4.29 2.263-6.645 2.599-3.733.532-7.718.263-11.267-1.01-3.294-1.182-8.668-5.924-8.668-5.924s-1.468.935-2.022 1.59c-.78.921-1.436 2.008-1.734 3.178-.393 1.54-.379 3.224 0 4.767.595 2.427 1.824 4.762 3.467 6.645 2.406 2.759 5.488 5.186 8.957 6.355 1.37.462 2.89.231 4.334.145 3.16-.189 6.336-.604 9.388-1.445 5.31-1.464 10.467-3.593 15.313-6.211 3.349-1.81 7.357-3.281 9.388-6.5.964-1.527.927-3.542.868-5.346-.043-1.284-.223-2.644-.868-3.756-.888-1.533-2.554-2.46-3.9-3.611-.886-.758-2.744-2.166-2.744-2.166zm-58.15 9.486s-4.947 5.522-5.72 8.988c-1.388 6.233.33 12.976 2.452 18.998 2.6 7.38 7.199 14.05 12.258 20.02 4.37 5.156 9.403 10.014 15.32 13.28 2.056 1.133 4.425 1.666 6.742 2.042 2.42.393 7.354.203 7.354.203s-5.787 3.212-8.989 3.473c-2.981.243-6.142-.435-8.785-1.838-8.124-4.313-14.573-11.645-19.814-19.203-4.657-6.716-8.137-14.47-9.807-22.47-1.127-5.4 0-16.548 0-16.548s-2.079-.268-3.064 0c-1.296.353-2.543 1.074-3.473 2.043-1.602 1.671-2.619 3.905-3.267 6.127-1.473 5.049-1.593 10.484-1.227 15.73.33 4.731 1.185 9.54 3.064 13.893 2.254 5.22 5.382 10.287 9.602 14.096 2.126 1.919 4.897 3.029 7.559 4.086.982.39 3.064.816 3.064.816s-4.288 3.328-6.742 3.065c-4.645-.499-8.362-4.693-11.235-8.377-5.668-7.27-9.245-16.42-10.623-25.535-.756-5.005.545-10.134 1.43-15.118.468-2.634 1.536-5.134 2.043-7.761.313-1.617 1.077-3.324.613-4.905-.15-.51-.565-.95-1.021-1.224-1.133-.682-2.561-.79-3.883-.819-1.656-.035-3.362.21-4.902.819-1.37.542-2.63 1.416-3.678 2.451-2.998 2.958-5.49 6.546-7.148 10.418-1.561 3.646-2.043 7.7-2.454 11.645-.825 7.924-1.179 16.022 0 23.902 1.033 6.902 3.459 13.572 6.13 20.02 1.888 4.559 4.503 8.785 6.945 13.074 2.721 4.78 5.023 9.9 8.58 14.095 1.685 1.99 3.6 3.929 5.926 5.108 1.62.821 5.31 1.224 5.31 1.224s-2.842 3.555-4.902 4.086c-1.746.45-3.808-.029-5.313-1.021-6.796-4.481-9.622-13.171-13.685-20.225-3.436-5.964-6.645-12.118-8.99-18.59-1.34-3.695-2.15-7.573-2.86-11.44-.94-5.125-1.53-10.322-1.838-15.524-.313-5.29-.004-15.899-.004-15.899h-.002c-.932-.423-1.399 1.555-2.31 2.022-1.144.585-2.632.244-3.756.867-.834.462-1.343 1.353-2.024 2.021-2.855 2.804-6.021 5.31-8.642 8.334-1.411 1.629-2.344 3.639-3.78 5.246-1.906 2.136-4.311 3.772-6.355 5.778-3.404 3.34-6.609 6.878-9.824 10.4-4.416 4.837-9.338 9.304-13 14.734-.843 1.25-1.466 2.644-2.022 4.045-.37.935-.867 2.889-.867 2.889s3.129 2.449 4.623 3.756a99.62 99.62 0 0 1 4.91 4.621c1.492 1.495 3.2 2.841 4.334 4.623 1.114 1.75 1.726 3.79 2.311 5.78.857 2.917 1.132 5.974 1.734 8.954.37 1.833.838 3.646 1.155 5.489.493 2.872 1.156 8.668 1.156 8.668s-4.301-2.763-5.488-4.912c-2.22-4.02-1.225-9.118-2.313-13.579-.599-2.455-.982-5.072-2.31-7.222-3.043-4.925-7.901-8.52-12.424-12.133a30.47 30.47 0 0 0-4.91-3.178c-2.03-1.06-6.356-2.601-6.356-2.601s1.496 4.83 2.31 7.222c1.189 3.49 2.164 7.076 3.757 10.4 1.12 2.34 2.136 4.89 4.044 6.645.951.875 2.25 1.302 3.467 1.735 1.674.594 5.2 1.156 5.2 1.156s-3.12 2.057-4.91 2.31c-2.415.342-5.112.063-7.223-1.156-1.72-.992-2.792-2.886-3.756-4.62-1.435-2.583-2.889-8.38-2.889-8.38s1.049 14.139 0 21.09c-1.023 6.777-3.475 13.302-6.068 19.646-1.271 3.11-4.621 8.956-4.621 8.956s7.001 6.763 10.978 9.533c2.794 1.946 5.756 3.746 8.955 4.912 1.846.672 3.816 1.261 5.778 1.156 3.528-.189 6.936-1.633 10.113-3.18 7.037-3.426 12.827-8.972 19.355-13.289 3.143-2.077 6.4-3.974 9.534-6.066 1.955-1.306 5.779-4.045 5.779-4.045s.92-12.906 1.443-19.355c.378-4.655.966-9.296 1.223-13.96.179-3.24-.534-6.576.223-9.732.622-2.597 3.466-7.222 3.466-7.222s.968 10.008.868 15.023c-.219 10.835-2.72 21.53-3.178 32.357-.61 14.434-.484 28.929.576 43.336.478 6.493.585 13.166 2.601 19.356.815 2.499 1.774 5.207 3.756 6.933.62.54 2.31.868 2.31.868s.87-8.66 1.157-13c.732-11.061.601-22.172 1.444-33.225.404-5.313.28-10.763 1.734-15.889 1.223-4.31 5.777-12.135 5.777-12.135s-.995 9.628-1.443 14.446c-2.079 22.328-4.432 44.641-5.78 67.025-.845 14.043-2.092 28.127-1.443 42.18.493 10.667 1.88 21.322 4.043 31.78 1.59 7.679 4.777 14.958 6.535 22.6.938 4.074 2.133 12.356 2.133 12.356l112.383 1.735s.636-8.473.867-12.713c.236-4.331-.101-8.71.533-13 2.038-13.775 7.934-26.751 10.446-40.448 2.69-14.675 4.193-29.587 4.912-44.49.687-14.237-.566-28.504-.578-42.758-.008-8.186.289-24.556.289-24.556s4.134 15.273 4.91 23.111c2.352 23.768-.508 47.767-.865 71.649-.162 10.786-1.247 21.59-.578 32.357.506 8.156 2.288 16.182 3.466 24.268 1.04 7.129 3.178 21.378 3.178 21.378l16.178.868s-.886-6.753-1.444-10.112c-1.342-8.084-3.387-16.048-4.578-24.156-1.23-8.372-2.093-16.802-2.644-25.246-.722-11.055-1.075-22.148-.867-33.225.284-15.147 2.075-30.229 2.888-45.357.59-10.973.948-21.958 1.446-32.936.071-1.578.44-3.168.22-4.732-.66-4.693-3.297-8.9-4.554-13.469-2.562-9.305-5.582-18.673-6.067-28.312-.306-6.097 2.022-18.201 2.022-18.201s1.565 11.2 2.6 16.757c2.073 11.142 3.936 22.377 7.222 33.223 3.36 11.09 7.154 22.19 12.713 32.357 2.68 4.902 5.248 10.372 9.822 13.579.574.402 1.327.676 2.022.578.9-.127 1.532-.977 2.312-1.444 2-1.195 4.135-2.164 6.066-3.466 5.287-3.566 10.37-7.486 15.024-11.846 1.89-1.772 5.2-5.778 5.2-5.778s-1.138-7.493-1.444-11.267c-.91-11.237-1.916-22.555-1.156-33.803.54-7.993 4.044-23.69 4.044-23.69s-3.916 4.64-5.488 7.223c-3.268 5.374-5.822 11.18-8.09 17.045-2.032 5.257-4.084 10.605-4.912 16.18-.48 3.239 0 9.822 0 9.822s-4.672-4.928-5.199-8.09c-.93-5.575 2.439-11.047 4.045-16.466 1.912-6.454 3.438-13.151 6.644-19.069 1.276-2.354 4.91-6.355 4.91-6.355s-5.507-2.654-7.8-4.623c-5.763-4.949-10.18-11.337-14.444-17.623-6.363-9.382-10.911-19.875-16.468-29.756-1.903-3.384-2.977-7.425-5.778-10.113-2.112-2.029-4.978-3.261-7.8-4.043-1.488-.413-4.623-.29-4.623-.29s.54 6.785 0 10.112c-1.61 9.92-5.448 19.42-9.534 28.601-4.05 9.102-9.425 17.571-14.734 26-4.13 6.555-8.078 13.336-13.29 19.069-4.503 4.954-9.345 9.962-15.312 13-2.914 1.483-6.274 2.04-9.533 2.312-5.388.45-10.945.195-16.18-1.156-4.213-1.088-7.61-4.483-11.843-5.488-2.906-.69-5.986-.592-8.957-.29-4.927.503-14.446 3.467-14.446 3.467s3.104-5.045 5.49-6.644c3.518-2.357 7.902-3.895 12.133-3.756 4.845.159 8.941 3.797 13.58 5.2 3.78 1.142 7.611 2.412 11.555 2.599 5.334.253 11.017.159 15.89-2.022 7.915-3.54 14.132-10.354 19.645-17.045 9.329-11.319 15.948-24.753 21.957-38.134 3.618-8.057 6.227-16.57 8.38-25.135.69-2.749 1.637-5.552 1.443-8.379-.153-2.218-.55-4.689-2.022-6.355-1.825-2.068-7.512-3.467-7.512-3.467s.273 3.204-.265 4.666c-.996 2.704-3.728 4.426-5.223 6.89-3.038 5.01-5.33 10.452-7.512 15.89-2.495 6.217-3.14 13.19-6.355 19.067-3.09 5.648-6.868 11.32-12.135 15.022-4.086 2.872-9.445 3.254-14.156 4.912-4.051 1.426-8.587 1.914-12.135 4.334-3.27 2.23-7.799 8.955-7.799 8.955s-1.14-3.925-.578-5.777c1.452-4.778 5.296-8.915 9.533-11.557 5.293-3.299 12.59-1.613 18.202-4.334 4.75-2.303 9.191-5.647 12.422-9.822 3.799-4.911 5.401-11.205 7.511-17.045 1.191-3.297 1.62-6.844 2.89-10.111 1.796-4.616 4.775-8.704 6.645-13.29 1.07-2.622 2.6-8.09 2.6-8.09s-2.01.395-2.889 0c-1.058-.474-1.32-1.998-2.312-2.599-1.698-1.028-3.793-1.491-5.778-1.445-1.005.023-2.315.04-2.888.867-.825 1.19.335 2.887.289 4.334-.141 4.465-.473 9.003-1.735 13.289-.942 3.201-2.288 6.374-4.289 9.045-3.182 4.25-7.448 7.689-11.888 10.6-3.46 2.267-8.124 2.512-11.268 5.2-1.055.904-1.804 2.174-2.31 3.468-.89 2.27-1.157 7.222-1.157 7.222s-3.46-4.146-3.466-6.644c-.008-3.575 2.394-6.998 4.912-9.536 4.52-4.556 12.36-4.567 17.045-8.955 4.038-3.782 7.042-8.867 8.666-14.156 1.216-3.963 1.24-8.331.578-12.424-.429-2.648-2.889-7.511-2.889-7.511s-5.025 6.173-8.09 8.668c-3.025 2.462-6.449 4.46-9.996 6.084-5.66 2.589-11.668 4.499-17.771 5.718-2.413.482-4.91.88-7.356.614-2.976-.325-6.026-1.092-8.58-2.655-3.245-1.985-5.927-4.96-7.967-8.172-1.56-2.455-1.766-5.568-3.064-8.171-.793-1.59-1.419-3.456-2.86-4.495-.683-.492-2.45-.613-2.45-.613s2.19 4.761 3.267 7.15c2.756 6.115 5.655 12.169 8.172 18.385 1.932 4.773 3.007 9.901 5.31 14.506.727 1.453 1.445 3.002 2.657 4.084 1.249 1.116 2.858 1.886 4.494 2.248 2.394.53 4.92.09 7.355-.205 2.56-.31 5.13-.767 7.559-1.633 3.385-1.207 9.6-4.904 9.6-4.904s-4.3 5.926-7.354 7.764c-3.27 1.967-7.27 2.414-11.031 3.064-2.826.488-5.724.862-8.58.613-2.797-.243-5.738-.643-8.172-2.043-3.131-1.8-5.44-4.839-7.559-7.763-3.878-5.352-7.1-11.299-9.191-17.569-1.07-3.207-1.362-6.64-1.635-10.01a40.77 40.77 0 0 1 0-6.742c.205-2.409 1.225-7.148 1.225-7.148zm1.84 8.578s.834 3.384.816 5.108c-.015 1.522-.911 2.974-.817 4.494.156 2.493 1.407 4.797 2.246 7.15.863 2.418 1.494 4.978 2.862 7.15 1.823 2.896 4.752 4.933 6.945 7.56 1.807 2.163 5.108 6.741 5.108 6.741s-1.007-4.11-1.635-6.129c-1.505-4.832-3.157-9.63-5.108-14.3-1.514-3.626-3.075-7.26-5.107-10.623-1.536-2.542-5.31-7.15-5.31-7.15zm245.54 28.16s-5.39.241-8.088.29c-2.696.047-5.393 0-8.09 0-.673 0-1.39-.237-2.02 0-2.75 1.028-4.517 3.757-6.647 5.777-3.015 2.858-6.123 5.672-8.666 8.957a27.385 27.385 0 0 0-3.178 5.199c-.385.828-.355 1.845-.867 2.601-.92 1.358-2.49 2.136-3.756 3.178-1.429 1.176-3.638 1.753-4.334 3.467-.292.72.202 1.539.289 2.31.108.962.371 1.925.289 2.89-.245 2.886-1.606 5.568-2.31 8.378-1.489 5.937-3.282 11.84-4.045 17.912-.854 6.787-1.144 13.695-.579 20.512.414 4.988 2.89 14.734 2.89 14.734s5.54-9.356 8.089-14.156c3.171-5.972 6.089-12.077 8.955-18.201 1.206-2.577 2.876-5.017 3.467-7.8.36-1.697.234-3.483 0-5.2-.243-1.783-2.023-3.498-1.444-5.201.31-.912 1.483-1.242 2.311-1.733 2.002-1.186 4.71-1.245 6.355-2.89.823-.823 1.41-2.015 1.446-3.178.067-2.163-1.44-4.085-2.31-6.066-.607-1.38-1.88-2.545-2.024-4.045-.173-1.791.66-3.581 1.445-5.2.782-1.611 2.326-2.758 3.178-4.334 1.174-2.17.948-5.099 2.6-6.933 1.296-1.44 3.46-1.746 5.2-2.6 2.591-1.271 5.448-2.086 7.801-3.756.889-.63 1.62-1.47 2.31-2.312.661-.806 1.733-2.6 1.733-2.6zm-279.127 7.467c1.06.177 1.854 1.691 2.557 2.621 2.638 3.49 3.183 8.208 5.531 11.899 4.852 7.625 11.279 14.147 17.43 20.77 2.478 2.667 5.236 5.06 7.828 7.618.595.588 1.39 1.034 1.776 1.776.277.532.425 1.183.312 1.773-.1.522-.339 1.167-.834 1.358-.812.312-1.753-.296-2.506-.73-2.003-1.158-3.377-3.163-5.01-4.802-5.487-5.51-11.23-10.825-16.074-16.908-4.082-5.125-7.84-10.569-10.853-16.387-.928-1.79-2.262-3.622-2.194-5.636.042-1.23.364-3.083 1.567-3.34.163-.035.319-.037.47-.012zm-20.615 3.35c.536.386.521 1.227.627 1.879.061.377.053.769 0 1.148-.105.753-.395 1.468-.627 2.191-.349 1.09-.427 2.348-1.148 3.237-.463.57-1.153 1.255-1.88 1.148-1.291-.19-2.192-1.686-2.609-2.924-.278-.827-.186-1.831.21-2.609.29-.572 1.001-.804 1.46-1.252.67-.654 1.1-1.57 1.88-2.088.613-.408 1.36-.607 2.087-.73zm288.043 3.8a.971.971 0 0 0-.242.022c-.878.193-1.151 1.387-1.635 2.144a14.553 14.553 0 0 0-1.021 1.942c-.323.729-.678 1.461-.817 2.246-.076.436-.313 1.015 0 1.328.313.313.92.17 1.328 0 .89-.368 1.403-1.323 2.043-2.043.548-.616 1.168-1.2 1.532-1.94.31-.63.523-1.34.511-2.042-.003-.248-.049-.523-.205-.715-.36-.445-.929-.923-1.494-.942zm14.235 1.348c-.962.033-1.952.432-2.832.818-2.14.94-3.861 2.648-5.618 4.188-1.358 1.19-2.833 2.345-3.779 3.883-.604.981-.897 2.138-1.125 3.267-.298 1.472-.545 3.012-.305 4.495.359 2.215 1.274 4.385 2.553 6.23 1.084 1.564 2.576 2.87 4.188 3.883.867.545 1.835 1.13 2.859 1.123 1.802-.012 3.537-1 5.006-2.043 1.553-1.104 2.813-2.647 3.78-4.29.824-1.4 1.357-2.994 1.634-4.597.353-2.047.132-4.158 0-6.23-.103-1.61-.027-3.3-.613-4.801-.642-1.636-1.888-2.984-3.065-4.29-.517-.572-.992-1.328-1.736-1.532a3.161 3.161 0 0 0-.947-.104zm-389.034 6.742s.177 2.33 0 3.475c-.206 1.34-1.049 2.536-1.226 3.88-.205 1.555-.426 3.263.205 4.698.582 1.322 2.254 1.868 3.064 3.065 1.454 2.147 2.435 4.634 3.065 7.15.58 2.32.709 4.76.611 7.15-.217 5.313-1.402 10.563-2.654 15.73-.74 3.057-1.355 6.23-2.862 8.989-1.228 2.25-3.745 3.636-4.902 5.924-.76 1.503.057 3.81-1.225 4.902-1.117.953-2.922.427-4.39.381-1.827-.058-3.677-.272-5.422-.816-1.541-.481-3.262-.938-4.35-2.131-1.248-1.37-.91-3.68-1.976-5.196-.361-.513-.995-.775-1.432-1.226-3.333-3.448-6.755-6.99-8.988-11.234-2.518-4.786-3.961-10.171-4.697-15.528-.445-3.239-.241-6.566.203-9.804.334-2.439.996-4.838 1.838-7.15.593-1.632 1.817-3.018 2.248-4.7.609-2.378.408-7.354.408-7.354s-2.663.389-3.662 1.196c-2.217 1.79-3.407 4.68-4.305 7.384-2.656 8-2.573 16.702-2.86 25.127-.203 5.996-.08 12.046.817 17.977.768 5.079 2.36 10.008 3.881 14.914 2.315 7.469 5.305 14.711 7.969 22.063 1.357 3.746 3.246 7.34 4.084 11.236.574 2.67-.276 5.587.613 8.17.4 1.16 1.101 2.277 2.043 3.064 1.31 1.096 3.013 1.772 4.7 2.043.742.12 1.572.132 2.245-.203 1.813-.902 2.786-2.942 4.086-4.494 2.65-3.164 4.834-6.707 7.559-9.807 2.48-2.82 5.469-5.162 7.967-7.966 1.386-1.557 2.468-3.372 3.882-4.903.883-.955 2.08-1.615 2.86-2.656 2.008-2.68 3.096-5.944 4.494-8.988 1.542-3.356 3.433-6.623 4.291-10.215 1.11-4.648 1.07-9.522 1.021-14.301-.068-6.701-.486-13.456-1.84-20.02-1.286-6.242-2.743-12.657-5.923-18.181-1.733-3.01-4.469-5.328-6.946-7.762-1.411-1.387-4.494-3.883-4.494-3.883zm76.422 1.575c.954.106 1.369 1.351 1.985 2.087.415.497.752 1.053 1.148 1.565.438.567 1.044 1.024 1.355 1.67.495 1.027 1.222 2.311.731 3.34-.235.491-.922.657-1.461.732-1.122.157-2.435.055-3.34-.627-.994-.75-1.384-2.128-1.67-3.34-.352-1.49-.722-3.242 0-4.592.237-.442.754-.891 1.252-.835zm33.389 1.3c.112.008.221.026.326.057 1.324.39 1.572 2.27 2.295 3.445 1.74 2.827 3.075 5.895 4.906 8.662 2.904 4.387 5.842 8.846 9.602 12.526 1.387 1.358 3.394 2.004 4.697 3.443.597.66 1.453 1.413 1.357 2.297-.07.66-.795 1.106-1.357 1.46-.493.312-1.09.589-1.67.522-1.162-.132-2.13-1.024-3.027-1.773-3.77-3.146-6.723-7.19-9.602-11.168-2.882-3.983-5.248-8.322-7.619-12.629-.563-1.022-1.209-2.02-1.566-3.13-.27-.84-.84-1.838-.416-2.61.366-.67 1.288-1.156 2.074-1.102zm-40.277 6.006c.96.109 2.64.87 2.296 1.774-.502.868 1.074 1.699 1.67 2.505.883 1.193 2.12 2.135 2.819 3.444.564 1.058 1.194 2.255 1.043 3.445-.118.93-.607 2.017-1.461 2.4-.355.16-.866.059-1.149-.208-.649-.615-.298-1.777-.625-2.61-.466-1.189-1.085-2.338-1.879-3.34-1.085-1.37-3.109-1.971-3.863-3.548-.466-.976-.76-2.308-.207-3.237.255-.428.86-.68 1.356-.625zm266.986.826s-3.985 4.343-6.338 6.086c-1.946 1.442-4.407 2.088-6.338 3.55-.667.504-1.455 1.002-1.775 1.774-.42 1.016.112 2.203 0 3.295-.213 2.061-.877 4.052-1.268 6.086-.551 2.866-1.101 5.732-1.521 8.62-.747 5.134-1.523 10.282-1.776 15.464-.49 10.047-.395 20.155.508 30.172.561 6.227 1.365 12.485 3.043 18.508.61 2.192 1.18 4.51 2.535 6.338.645.87 1.524 1.64 2.535 2.027 1.423.544 3.042.349 4.563.254 2.829-.176 5.758-.413 8.367-1.521 3.066-1.302 5.592-3.654 8.113-5.83 2.941-2.538 5.711-5.315 8.114-8.368 1.174-1.492 2.54-2.985 3.043-4.816.805-2.935-.254-9.127-.254-9.127s-2.318 5.479-4.057 7.86c-1.551 2.123-3.328 4.216-5.578 5.578-1.212.733-2.668 1.547-4.057 1.267-3.468-.7-6.224-3.854-8.113-6.846-3.733-5.91-4.347-13.361-5.324-20.283-.993-7.031-.849-14.204-.506-21.297.373-7.737 1.149-15.5 2.787-23.072.712-3.291 2.46-6.316 3.043-9.633.351-2 .254-6.086.254-6.086zm-277.287 5.743c.094-.007.188-.007.281.005 1.49.189 2.293 1.95 3.34 3.028 1.977 2.035 4.101 4.02 5.533 6.47.972 1.663 1.886 3.504 1.982 5.428.085 1.686-1.251 4.906-1.251 4.906s-.81-3.607-1.67-5.218c-.817-1.53-2.027-2.83-3.237-4.07-1.362-1.398-3.075-2.413-4.488-3.758-.891-.85-2.115-1.545-2.504-2.713-.32-.963-.256-2.187.313-3.028.366-.541 1.04-1.006 1.7-1.05zm312.158 2.12s-.466 1.933-.816 2.86c-.56 1.482-1.168 2.97-2.043 4.29-.907 1.366-2.378 2.3-3.27 3.677-.812 1.253-1.606 2.61-1.838 4.086-.287 1.827.249 3.702.613 5.515.238 1.183.789 2.289 1.02 3.473.262 1.343.473 2.719.41 4.086-.098 2.148-.822 4.22-1.226 6.332-.482 2.518-1.23 5.002-1.43 7.559-.352 4.482.34 8.988.408 13.484.023 1.566-.019 3.131 0 4.697.102 8.105.489 16.206.613 24.31.378 24.513.224 49.03.409 73.544.161 21.518.416 43.036.613 64.554.354 38.746.57 77.494 1.021 116.239.383 32.823.965 65.643 1.43 98.465.35 24.65.851 49.298 1.021 73.95.012 1.771 0 3.543 0 5.313 0 .545-.11 1.1 0 1.633.21 1.016.564 2.064 1.227 2.861.314.378.74.737 1.225.817 2.086.344 4.196-.778 6.129-1.635 1.26-.559 2.478-1.291 3.472-2.246 1.022-.982 1.97-2.14 2.451-3.473.882-2.44.529-5.17.614-7.763.663-20.284-.611-40.584-.817-60.877-.605-59.718-.365-119.444-1.226-179.159-.714-49.512-2.784-99-3.268-148.515-.272-27.782.342-55.565.203-83.348-.034-7.16-.022-14.322-.265-21.478-.071-2.104.236-4.283-.348-6.305-.194-.674-.6-1.28-1.021-1.84-.522-.692-1.244-1.207-1.838-1.838-.563-.596-1.037-1.277-1.635-1.838-.567-.53-1.838-1.43-1.838-1.43zm-319.918 5.764c.976-.058 2.008.353 2.822.889 1.803 1.186 2.899 3.241 3.967 5.115 1.686 2.958 2.858 6.215 3.758 9.498a70.244 70.244 0 0 1 2.4 15.03c.177 3.55.315 7.218-.627 10.646-.581 2.116-3.027 5.846-3.027 5.846s1.086-5.612 1.148-8.455c.092-4.192-.619-8.367-1.148-12.526-.41-3.217-.555-6.52-1.565-9.601-1.24-3.786-3.01-7.481-5.427-10.647-.942-1.233-2.509-1.894-3.446-3.13-.328-.435-.85-.93-.73-1.462.136-.604.857-1.02 1.463-1.148.136-.029.273-.046.412-.055zm-79.477.825a.529.529 0 0 0-.355.134c-.518.517-.23 1.454-.205 2.186.03.853.167 1.71.41 2.527.064.215.095.48.273.615.257.195.648.226.958.137.372-.107.74-.393.886-.752.191-.465-.04-1.008-.135-1.502-.165-.863-.32-1.762-.751-2.527-.167-.295-.369-.63-.684-.752a1.002 1.002 0 0 0-.397-.066zm264.858 9.722c.325.029.622.133.8.373.68.917-.081 2.312-.443 3.395-.411 1.233-1.213 2.303-1.92 3.394-3.518 5.436-6.905 11.096-11.511 15.647-4.265 4.212-9.481 7.383-14.614 10.48-2.166 1.308-4.286 3.757-6.79 3.395-1-.145-1.947-1.093-2.214-2.067-.23-.84.152-1.863.739-2.507 1.248-1.372 3.517-1.218 5.166-2.067 2.754-1.418 5.363-3.134 7.822-5.02 5.224-4.005 10.608-8.06 14.613-13.285 2.356-3.073 2.711-7.464 5.315-10.332.55-.606 1.264-1.163 2.066-1.328.293-.06.646-.107.97-.078zm1.092 20.988c.459-.002.945.146 1.183.493.28.407-.03.996-.146 1.476-.252 1.03-.545 2.105-1.182 2.951-1.35 1.793-3.588 2.699-5.312 4.135-3.748 3.123-6.876 7.018-10.924 9.74-2.32 1.56-4.76 4.085-7.528 3.692-.724-.103-1.598-.746-1.625-1.477-.05-1.356 1.797-2.042 2.805-2.951 1.2-1.08 2.543-1.99 3.838-2.953 2.236-1.661 4.602-3.15 6.791-4.871 2.194-1.726 4.245-3.624 6.346-5.461 1.784-1.56 3.007-4.184 5.314-4.725.137-.032.287-.048.44-.049zm5.478 6.5c.46-.002.947.146 1.186.493.28.407-.03.996-.149 1.476-.252 1.03-.542 2.105-1.18 2.951-1.349 1.793-3.59 2.697-5.314 4.133-3.748 3.123-6.875 7.02-10.924 9.742-2.319 1.56-4.76 4.085-7.527 3.692-.724-.103-1.596-.746-1.623-1.477-.05-1.356 1.796-2.044 2.805-2.953 1.199-1.08 2.542-1.989 3.837-2.951 2.236-1.661 4.6-3.15 6.79-4.871 2.193-1.726 4.246-3.624 6.347-5.461 1.784-1.56 3.005-4.184 5.313-4.725.136-.032.286-.048.44-.049zm-270.053 6.313c.112-.008.224-.007.332.006.42.048.603.594.946.84 1.146.823 2.437 1.42 3.674 2.1 1.976 1.084 3.761 2.774 5.984 3.15 1.85.312 3.708-.568 5.564-.84.735-.108 1.543-.65 2.206-.315.53.27.773.983.84 1.575.088.793-.135 1.684-.63 2.31-.543.688-1.46 1.043-2.31 1.26-1.797.458-3.71.03-5.565 0-1.05-.018-2.14.183-3.15-.106-1.282-.365-2.33-1.294-3.465-1.994-1.57-.968-3.253-1.806-4.619-3.045-.7-.635-1.47-1.313-1.785-2.205-.164-.462-.25-1.05 0-1.47.392-.66 1.199-1.207 1.978-1.266zm380.86 3.207c-1.103-.075-1.988 1.046-2.758 1.838-1.43 1.47-1.89 3.692-3.27 5.209-1.502 1.653-3.6 2.649-5.31 4.086-.424.356-.749.842-1.227 1.123-.742.437-2.45.818-2.45.818s.963 2.629 1.736 3.78c.805 1.2 1.615 2.642 2.962 3.166.828.321 1.848.161 2.657-.206 2.17-.985 3.685-3.09 5.107-5.003.918-1.235 1.542-2.671 2.145-4.086.675-1.585 1.258-3.222 1.634-4.903.315-1.405 1.024-2.945.51-4.29-.275-.722-.966-1.48-1.736-1.532zm-114.416 5.256c.364-.02.756.078.959.344.238.312.015.79-.059 1.175-.159.827-.346 1.692-.818 2.389-.999 1.476-2.74 2.28-4.049 3.488-2.848 2.626-5.172 5.842-8.273 8.162-1.777 1.33-3.613 3.428-5.823 3.227-.578-.053-1.297-.527-1.347-1.105-.094-1.074 1.344-1.693 2.107-2.454.908-.904 1.937-1.679 2.926-2.494 1.707-1.406 3.522-2.68 5.19-4.133 1.67-1.455 3.223-3.043 4.816-4.584 1.352-1.308 2.217-3.438 4.025-3.959.107-.03.224-.05.346-.056zm-264.258 3.262c.373-.03.756.023 1.086.146.765.286 1.134 1.177 1.68 1.785.646.72 1.064 1.701 1.89 2.205 1.812 1.105 4.075 1.35 6.194 1.469 1.443.08 2.993-1.129 4.306-.525.344.158.603.567.63.945.067.968-.64 1.879-1.26 2.625a6.93 6.93 0 0 1-2.731 1.996 8.802 8.802 0 0 1-4.305.523c-1.308-.17-2.547-.782-3.674-1.468-1.78-1.085-3.538-2.383-4.724-4.096-.574-.828-1.059-1.826-1.051-2.834.008-.864.257-1.894.945-2.416.28-.212.641-.325 1.014-.355zm156.82 1.287c1.216.055 2.287.85 3.473 1.123 1.206.276 2.537.031 3.678.511 1.23.518 2.481 1.306 3.166 2.452.635 1.066.913 2.471.613 3.677-.176.707-.645 1.484-1.328 1.737-.915.337-2.052-.07-2.861-.614-.753-.505-.856-1.643-1.532-2.248a4.007 4.007 0 0 0-1.736-.918c-.996-.23-2.051-.03-3.065.102-.9.118-1.75.556-2.656.613-.683.044-1.47.169-2.043-.205-1.214-.79-2.486-2.372-2.144-3.78.22-.908 1.488-1.167 2.35-1.53 1.285-.544 2.69-.984 4.085-.92zm146.68 8.691c.074-.024.15.046.223.074.327.13.745.164.959.444.272.357.223.879.22 1.328-.003.85-.026 1.77-.441 2.51-.53.942-1.463 1.668-2.436 2.138-.495.24-1.151.577-1.625.297-.401-.238-.503-.867-.441-1.33.07-.527.602-.877.885-1.328.438-.701.806-1.445 1.254-2.14.439-.684.63-1.739 1.402-1.993zm-301.26 2.451c.436-.047.82.35 1.156.631.516.432.658 1.274 1.26 1.574 1.097.547 2.459.262 3.674.106.868-.112 1.677-.972 2.52-.735.5.142.893.659 1.05 1.155.256.807.124 1.795-.314 2.52-.507.838-1.515 1.291-2.416 1.679-.788.34-1.666.614-2.52.525-1.216-.126-2.393-.72-3.359-1.468-.808-.627-1.407-1.516-1.89-2.416-.367-.683-.94-1.458-.735-2.206.184-.67.883-1.29 1.574-1.365zm161.994.897c.707-.026 1.378.09 1.881.525.657.567.705 1.707.51 2.553-.24 1.042-1.013 2.02-1.94 2.555-.95.548-2.176.305-3.269.408-1.596.15-3.202.189-4.8.306-1.227.09-2.449.324-3.679.305-1.199-.018-2.579.262-3.574-.408-1.061-.715-2.114-2.122-1.838-3.371.21-.951 1.43-1.42 2.35-1.737 1.191-.41 2.52-.098 3.78-.101 1.532-.004 3.063.084 4.595.101.715.008 1.447.156 2.144 0 .625-.14 1.11-.692 1.737-.816.652-.128 1.396-.295 2.103-.32zm95.645 1.047a.54.54 0 0 1 .342.187c.138.18.012.457-.034.68-.091.478-.2.978-.472 1.38-.577.854-1.585 1.32-2.342 2.018-1.646 1.519-2.99 3.377-4.783 4.719-1.027.769-2.09 1.981-3.367 1.865-.335-.03-.748-.306-.778-.64-.054-.621.776-.979 1.217-1.418.525-.523 1.12-.97 1.691-1.442.987-.813 2.038-1.55 3.002-2.39.967-.842 1.863-1.76 2.784-2.65.782-.757 1.282-1.987 2.328-2.288a.944.944 0 0 1 .412-.021zm49.82.55c.466-.033 1.057.065 1.33.444.288.399.03.983 0 1.474-.026.396.07.85-.148 1.182-.267.405-1.139.267-1.254.738-.11.451.372.895.738 1.18.632.493 1.762.133 2.287.738.475.547.65 1.474.37 2.14-.337.8-1.536.857-2.141 1.477-.534.547-.631 1.475-1.254 1.918-.413.294-1.026.602-1.477.37-.54-.28-.587-1.095-.664-1.698a3.982 3.982 0 0 1 .221-1.845c.215-.583.931-.937 1.033-1.55.08-.476-.157-.967-.369-1.402-.285-.583-.932-.95-1.18-1.55-.284-.688-.643-1.555-.295-2.213.49-.924 1.76-1.329 2.803-1.403zM310.17 289.107c.643-.026 1.298.025 1.928.08 1.332.118 3.066-.038 3.882 1.022.952 1.145 2.983.335 4.391.818 1.052.361 2.27.662 2.963 1.532.767.962 1.306 2.408.92 3.576-.289.873-1.25 1.954-2.145 1.736-.577-.14-.283-1.228-.716-1.635-.872-.818-2.198-.99-3.37-1.226-1.336-.27-2.724-.131-4.086-.203-1.225-.065-2.477.052-3.677-.205-.928-.2-1.96-.378-2.656-1.022-.638-.589-1.282-1.496-1.124-2.35.155-.828 1.068-1.393 1.838-1.736.578-.257 1.209-.36 1.852-.387zm3.238 13.166a.787.787 0 0 1 .53.194c.597.791 1.94.444 2.859.816 1.002.406 2.177.694 2.86 1.533.76.937 1.221 2.283 1.02 3.473-.145.866-.85 1.59-1.53 2.145-.52.424-1.205 1.038-1.838.818-.691-.24-.695-1.288-1.022-1.941-.32-.64-.315-1.56-.92-1.942-1.122-.71-2.667-.169-3.984 0-.803.103-1.539.6-2.348.613-.768.013-1.668-.006-2.248-.51-.797-.692-1.486-1.97-1.123-2.962.361-.988 1.75-1.236 2.758-1.533.982-.29 2.045-.106 3.064-.204.615-.058 1.338-.508 1.922-.5zm106.031.221s.542 2.579.295 3.838c-.127.648-.667 1.148-.884 1.772-.315.902-.69 1.854-.592 2.804.139 1.337 1.326 2.38 1.625 3.69.318 1.392.235 2.856.146 4.28-.077 1.244-.152 2.524-.59 3.69-.325.87-1.22 1.471-1.476 2.364-.271.946.507 2.108 0 2.95-.488.812-1.57 1.447-2.51 1.329-.726-.092-1.36-.794-1.623-1.477-.374-.968-.147-2.16.295-3.1.356-.755 1.232-1.132 1.771-1.769.548-.646 1.244-1.254 1.477-2.068.217-.758.094-1.61-.148-2.361-.483-1.494-1.849-2.561-2.51-3.985-.479-1.03-.98-2.113-1.033-3.248-.055-1.157.286-2.328.738-3.394.485-1.144 1.213-2.198 2.066-3.1.846-.894 2.953-2.215 2.953-2.215zm-110.814 14.477c-.025 1.603 3.24-.06 4.8.306 1.115.262 2.176.755 3.167 1.328.63.366 1.36.704 1.736 1.329.322.532.468 1.237.307 1.837-.194.725-.775 1.373-1.43 1.737-.45.25-1.043.37-1.531.205-.912-.309-1.128-1.743-2.043-2.043-.851-.279-1.762.353-2.656.408-1.19.074-2.394.066-3.575-.101-.94-.134-1.95-.214-2.757-.715-.841-.523-1.846-1.263-1.942-2.248-.053-.547.353-1.135.817-1.43 1.066-.678 2.53-.113 3.779-.307.449-.07 1.387.144 1.328-.306zm1.43 8.968a6.609 6.609 0 0 1 1.634.123c.776.163 1.563.485 2.145 1.022.75.694 1.43 1.637 1.533 2.654.065.643-.126 1.416-.613 1.84-.418.364-1.082.264-1.635.307-1.12.087-2.265-.316-3.369-.104-.839.161-1.498.962-2.35 1.022-.634.044-1.357-.096-1.84-.51-.879-.754-1.62-2.024-1.43-3.166.14-.831 1.048-1.354 1.737-1.84a7.246 7.246 0 0 1 2.555-1.123 9.182 9.182 0 0 1 1.633-.225zm-36.21 3.325s-1.143 11.199-2.023 16.756c-2.578 16.284-5.185 32.63-9.533 48.535-2.667 9.754-6.67 19.093-10.111 28.601-.944 2.607-1.747 5.274-2.889 7.801-.585 1.296-1.631 2.39-2.023 3.756-1.225 4.267-.868 13.289-.868 13.289l46.803-.865s-1.78-9.854-2.889-14.735c-2.555-11.252-6.892-22.112-8.666-33.513-1.334-8.578-1.592-17.321-1.445-26 .11-6.477 1.494-12.884 1.733-19.358.227-6.16.143-12.341-.288-18.49-.108-1.549-.578-4.621-.578-4.621s-2.907.871-4.334.576c-1.1-.227-2.888-1.732-2.888-1.732zm32.33 7.691c.49.044 1.022.21 1.491.24 1.33.088 2.69.131 3.965.522.446.137.885.34 1.254.627.545.423 1.152.904 1.355 1.564.175.57.215 1.357-.209 1.776-.696.689-1.942.293-2.922.312-1.534.03-3.107.075-4.591-.312-.708-.185-1.65-.29-1.985-.94-.551-1.067-.293-2.777.627-3.549.16-.134.345-.205.545-.234.15-.022.308-.02.47-.006zm1.907 9.424c1.109-.127 3.182 1.045 3.656.418 0-.112.021-.218.102-.313a.529.529 0 0 1-.102.313c0 .495.624 1.128.52 1.67-.071.37-.333.704-.627.94-.902.723-2.081 1.162-3.235 1.251-.816.064-1.855.09-2.4-.521-.698-.783-.914-2.27-.314-3.131.472-.679 1.578-.533 2.4-.627zm1.027 10.674a3.564 3.564 0 0 1 1.791.494c.427.25.618.773.94 1.148.577.674 1.531 1.132 1.775 1.985.224.78.094 1.77-.418 2.4-.472.582-1.344.928-2.088.834-1.111-.14-1.963-1.15-2.713-1.982-.834-.927-2.112-2.012-1.878-3.237.157-.827 1.166-1.357 1.982-1.564.197-.05.402-.076.61-.078zm41.47 6.006c.619.007 1.269.105 1.862.125.915.03 1.83.188 2.715.418 1.652.427 3.138 1.391 4.801 1.773 1.397.32 2.849.332 4.28.418 1.528.093 3.085-.17 4.591.105.617.113 1.361.155 1.776.625.328.375.308.963.312 1.461.008.744.128 1.687-.418 2.192-.925.856-2.498.41-3.758.418-2.063.011-4.1-.485-6.158-.625-2.014-.137-4.094.282-6.053-.21-2.444-.613-5.875-.989-6.785-3.34-.378-.975.31-2.296 1.149-2.923.475-.356 1.065-.443 1.685-.437zm-46.163 11.01c.186.01.366.037.535.074.553.124.639 1.005 1.149 1.252v.001c.44.213 1.024-.116 1.46.104.573.289 1.046.854 1.252 1.46.214.628.308 1.465-.103 1.983-.698.88-2.115.878-3.236.94-.811.045-1.744.061-2.4-.416-1.146-.833-2.469-2.428-1.983-3.758.417-1.142 2.023-1.72 3.326-1.64zm53.139 1.599c.835-.004 1.672.086 2.506.144 1.57.112 3.226-.041 4.697.522.559.214 1.254.483 1.46 1.045.348.942.074 2.32-.73 2.922-.696.522-1.749.026-2.61-.104-.925-.141-1.777-.665-2.712-.73-1.12-.078-2.233.23-3.34.416-1.648.278-3.235 1.1-4.906 1.045-1.41-.046-3.5.14-4.07-1.149-.41-.925.532-2.124 1.355-2.713 1.057-.755 2.585-.291 3.863-.523 1.23-.223 2.41-.713 3.653-.834.277-.026.555-.04.834-.041zm68.254.398s-.9 5.789-1.446 8.666c-.862 4.547-1.905 9.057-2.888 13.579-1.51 6.94-3.083 13.869-4.623 20.802-.578 2.6-2.183 5.174-1.733 7.8.154.895 1.386 1.405 1.443 2.312.087 1.376-1.341 2.433-1.732 3.755-.964 3.266-1.445 10.112-1.445 10.112l19.357 2.021s-.682-10.24-1.445-15.31c-1.128-7.49-4.01-14.697-4.621-22.246-.536-6.63 1.215-13.294.865-19.936-.205-3.89-1.732-11.555-1.732-11.555zm-71.5 10.483c.916.078 1.887.725 2.83.85 1.59.21 3.93-1.035 4.8.312.565 1.03 2.377.247 3.446.732.475.216 1.048.46 1.252.94.219.516.17 1.257-.21 1.67-.457.497-1.312.327-1.982.416-1.796.24-3.616.284-5.427.314-1.358.023-2.88.546-4.07-.105-1.253-.686-2.386-2.121-2.401-3.55-.007-.578.404-1.234.937-1.46.143-.06.29-.098.436-.115.128-.015.258-.016.389-.004zm2.83 13.254c.14-.015.283-.011.418.015.896.174 1.256 1.395 2.086 1.776.608.28 1.344.508 1.984.312.683-.209.91-1.745 1.564-1.46 1.085.47.392 2.432 0 3.548-.368 1.051-1.03 2.253-2.086 2.61-1.087.367-2.33-.29-3.34-.836-1.125-.61-2.52-1.365-2.818-2.61-.233-.974.323-2.122 1.043-2.818a1.998 1.998 0 0 1 1.149-.537z" transform="scale(.26458)"/><path style="fill:none;stroke:#000;stroke-width:.26458332px;stroke-linecap:butt;stroke-linejoin:miter;stroke-opacity:1" d="M-49.116 47.795s.688.382 0 0z" transform="translate(3.635 -4.477)"/><path d="m134.768 120.11-.429 48.964c-.936 20.597-19.435 36.908-41.868 36.92-22.413-.025-40.919-16.343-41.868-36.92l-.43-48.963H92.47z" style="fill:gold;fill-rule:evenodd;stroke:#000;stroke-width:1.32291667;stroke-linecap:round;stroke-linejoin:round;stroke-miterlimit:4;stroke-dasharray:none;stroke-opacity:1;fill-opacity:1" transform="translate(3.635 -4.477)"/><path d="m50.174 120.11.185 21.188h21.002v-21.187zm21.187 21.188v21.188h21.187v-21.188h21.187v-21.187H92.548v21.187zm42.374 0v21.188H92.548v21.187H71.361v17.042a43.905 43.905 0 0 0 11.057 4.145h10.13v-21.187h21.188v-21.187h20.661l.185-21.188zm0 42.375v16.976c7.276-3.954 13.152-9.873 16.748-16.976zM92.549 204.86v1.133a45.4 45.4 0 0 0 10.009-1.133zm-21.187-21.187v-21.187H50.545l.058 6.588a35.818 35.818 0 0 0 3.87 14.599z" style="fill:#03f;fill-opacity:1;stroke:#000;stroke-width:1.32291667;stroke-linecap:round;stroke-linejoin:round;stroke-miterlimit:4;stroke-dasharray:none;stroke-opacity:1" transform="translate(3.635 -4.477)"/><path style="fill:none;fill-rule:evenodd;stroke:#000;stroke-width:3.10444427;stroke-opacity:1" d="m187.012 6.029-.96 117.58c-2.092 49.46-43.439 88.631-93.581 88.659-50.097-.06-91.46-39.246-93.582-88.659L-2.07 6.03H92.47z" transform="translate(3.635 -4.477)"/></svg>