<svg xmlns="http://www.w3.org/2000/svg" width="591" height="665" style="shape-rendering:geometricPrecision;text-rendering:geometricPrecision;image-rendering:optimizeQuality;fill-rule:evenodd;clip-rule:evenodd"><path style="opacity:1" fill="#030305" d="M.5 1.5h589v381c-6.912 98.026-50.246 175.193-130 231.5-75.609 47.823-156.942 60.823-244 39C129.356 626.855 66.523 573.355 27 492.5 10.358 456.315 1.525 418.315.5 378.5V1.5z"/><path style="opacity:1" fill="#adadad" d="M-.5-.5h591v1C393.666.167 196.999.5.5 1.5v377h-1V-.5z"/><path style="opacity:1" fill="#626262" d="M.5 1.5c196.499-1 393.166-1.333 590-1v382h-1V1.5H.5z"/><path style="opacity:1" fill="#011e67" d="M8.5 9.5c191.166-1 382.499-1.333 574-1 .333 124.834 0 249.501-1 374V9.5H8.5z"/><path style="opacity:1" fill="#014797" d="M8.5 9.5h573v373c-7.738 106.029-57.405 185.529-149 238.5-71.356 36.906-145.689 44.239-223 22C119.869 612.368 58.035 552.868 24 464.5c-8.324-23.619-13.324-47.952-15-73-.5-127.333-.667-254.666-.5-382z"/><path style="opacity:1" fill="#f7e201" d="M419.5 53.5c2.518 1.857 2.518 3.69 0 5.5-4.723 2.236-9.723 3.069-15 2.5a96.042 96.042 0 0 1-10-4c-.382-2.538.951-4.371 4-5.5 7.116-.825 14.116-.325 21 1.5z"/><path style="opacity:1" fill="#0f0c06" d="M121.5 54.5c2.393 1.45 5.06 2.117 8 2 26.557-.257 53.224-.257 80 0v37c-18.336-.167-36.67 0-55 .5a32.79 32.79 0 0 1 5.5 3.5c.667 3 .667 6 0 9-1.491 1.504-3.324 2.337-5.5 2.5-3.724 3.645-3.057 6.645 2 9 8.637 2.058 15.137 6.891 19.5 14.5-.525 24.379 2.142 48.379 8 72a89.622 89.622 0 0 0 8 16c8.074 5.485 13.741 12.819 17 22 .667 2 .667 4 0 6a74.812 74.812 0 0 1-17.5 2.5 1308.706 1308.706 0 0 1-49 1.5c-.701 4.319.466 7.986 3.5 11 1.185 4.906.185 9.239-3 13a89.468 89.468 0 0 1-1.5 12c-3.88 1.295-7.714 1.295-11.5 0l-1-12c-6-5.667-6-11.333 0-17 .497-2.31.663-4.643.5-7a857.004 857.004 0 0 1-62-1.5 73.574 73.574 0 0 1-10.5-2.5c-.108-5.809 1.558-11.142 5-16 9.395-7.05 16.062-16.05 20-27 6.324-23.584 8.99-47.584 8-72 4.498-8.815 11.665-14.315 21.5-16.5 2.862-1.786 3.528-4.119 2-7-7.078-.74-9.911-4.573-8.5-11.5 1.637-2.31 3.804-3.81 6.5-4.5-18.997-.5-37.997-.667-57-.5v-37c22.06.001 44.06-.165 66-.5.556-.383.889-.883 1-1.5z"/><path style="opacity:1" fill="#f3df01" d="M422.5 69.5a25.1 25.1 0 0 1-8-5c3.081-3.59 7.081-5.257 12-5a35.904 35.904 0 0 1 15 4c1.021.502 1.188 1.168.5 2a36.012 36.012 0 0 1-4.5 3.5c-4.989.5-9.989.666-15 .5z"/><path style="opacity:1" fill="#e7d402" d="M126.5 61.5h7v27h-7v-27z"/><path style="opacity:1" fill="#f6e202" d="M394.5 60.5c2.009 1.565 4.343 2.565 7 3 3.637 2.806 6.804 6.14 9.5 10 .497 2.31.663 4.643.5 7-11.738-1.738-18.405-8.405-20-20h3z"/><path style="opacity:1" fill="#fce500" d="M59.5 61.5h48a590.395 590.395 0 0 0 5 27h-53v-27z"/><path style="opacity:1" fill="#f7e402" d="M119.5 73.5c.315 3.871-.018 7.538-1 11a704.912 704.912 0 0 1-5-23h6v12z"/><path style="opacity:1" fill="#fde600" d="M151.5 61.5h53v27c-19.012.333-38.012 0-57-1a175.575 175.575 0 0 0 4-26z"/><path style="opacity:1" fill="#766b07" d="M394.5 57.5a96.042 96.042 0 0 0 10 4 2.427 2.427 0 0 0-2 .5 114.43 114.43 0 0 0 9.5 3.5 11.114 11.114 0 0 0 2.5-1 25.1 25.1 0 0 0 8 5 83.658 83.658 0 0 0 11 5 31.12 31.12 0 0 1 2-2c1.698 2.368 4.031 4.034 7 5a116.978 116.978 0 0 0 13 6c.607-.124.94-.457 1-1a362.91 362.91 0 0 1 6 3 116.978 116.978 0 0 0 13 6c.607-.124.94-.457 1-1l8 4c.111.617.444 1.117 1 1.5-.916.278-1.582.778-2 1.5l-8-4a194.509 194.509 0 0 0-15-7c-.607.124-.94.457-1 1-1.21-.432-2.21-1.099-3-2a114.049 114.049 0 0 0-13-5l-10-3c.131-.876-.202-1.543-1-2a48.716 48.716 0 0 0-9-3 34.505 34.505 0 0 0-11-3c.111-.617.444-1.117 1-1.5a90.162 90.162 0 0 0-12-4.5c-2.657-.435-4.991-1.435-7-3-.418-.722-1.084-1.222-2-1.5.916-.278 1.582-.778 2-1.5z"/><path style="opacity:1" fill="#ebd902" d="M139.5 61.5a9.864 9.864 0 0 1 6 1l-5 26a183.082 183.082 0 0 1-1-27z"/><path style="opacity:1" fill="#f6e101" d="M442.5 77.5c-2.969-.966-5.302-2.632-7-5 3.362-3.42 7.529-4.752 12.5-4 5.772-.352 10.938 1.148 15.5 4.5-3.629 3.804-8.129 5.637-13.5 5.5-2.498-.417-4.998-.75-7.5-1z"/><path style="opacity:1" fill="#f7e201" d="M412.5 69.5a34.505 34.505 0 0 1 11 3c2.998 3.167 5.831 6.5 8.5 10 .814 2.402.647 4.735-.5 7-6.431-2.263-11.931-5.93-16.5-11-1.908-2.707-2.741-5.707-2.5-9z"/><path style="opacity:1" fill="#f6e101" d="M462.5 85.5a362.91 362.91 0 0 0-6-3c-1.025-.397-1.192-1.063-.5-2a15.83 15.83 0 0 1 5.5-3.5c7.11-1.172 13.944-.339 20.5 2.5 1.257.35 1.591 1.016 1 2-1.952 2.394-4.452 3.894-7.5 4.5-4.371.63-8.704.463-13-.5z"/><path style="opacity:1" fill="#151107" d="M419.5 53.5a2439.832 2439.832 0 0 1 86 34c-.667 0-1 .333-1 1-8.054-3.976-16.387-4.81-25-2.5a20.477 20.477 0 0 1-3.5 2.5c-.692.937-.525 1.603.5 2-.06.543-.393.876-1 1a116.978 116.978 0 0 1-13-6 35.705 35.705 0 0 0 13 .5c3.048-.606 5.548-2.106 7.5-4.5.591-.984.257-1.65-1-2-6.556-2.839-13.39-3.672-20.5-2.5a15.83 15.83 0 0 0-5.5 3.5c-.692.937-.525 1.603.5 2-.06.543-.393.876-1 1a116.978 116.978 0 0 1-13-6c2.502.25 5.002.583 7.5 1 5.371.137 9.871-1.696 13.5-5.5-4.562-3.352-9.728-4.852-15.5-4.5-4.971-.752-9.138.58-12.5 4a31.12 31.12 0 0 0-2 2 83.658 83.658 0 0 1-11-5c5.011.166 10.011 0 15-.5a36.012 36.012 0 0 0 4.5-3.5c.688-.832.521-1.498-.5-2a35.904 35.904 0 0 0-15-4c-4.919-.257-8.919 1.41-12 5-.765.423-1.598.757-2.5 1a114.43 114.43 0 0 1-9.5-3.5 2.427 2.427 0 0 1 2-.5c5.277.569 10.277-.264 15-2.5 2.518-1.81 2.518-3.643 0-5.5z"/><path style="opacity:1" fill="#f5e001" d="m433.5 77.5 10 3c6.148 3.955 9.481 9.622 10 17h-5c-4.735-2.472-8.902-5.806-12.5-10-2.006-3.036-2.84-6.37-2.5-10z"/><path style="opacity:1" fill="#a79703" d="M119.5 73.5c1.314 4.848 1.314 9.848 0 15-.929-1.189-1.262-2.522-1-4 .982-3.462 1.315-7.129 1-11z"/><path style="opacity:1" fill="#f6e201" d="M504.5 88.5c-1.24 2.488-3.24 4.321-6 5.5-4.655.5-9.321.666-14 .5l-8-4c-1.025-.397-1.192-1.063-.5-2a20.477 20.477 0 0 0 3.5-2.5c8.613-2.31 16.946-1.476 25 2.5z"/><path style="opacity:1" fill="#120f09" d="M419.5 53.5c-6.884-1.825-13.884-2.325-21-1.5-3.049 1.129-4.382 2.962-4 5.5-.418.722-1.084 1.222-2 1.5.916.278 1.582.778 2 1.5h-3c1.595 11.595 8.262 18.262 20 20a24.935 24.935 0 0 0-.5-7c-2.696-3.86-5.863-7.194-9.5-10a90.162 90.162 0 0 1 12 4.5c-.556.383-.889.883-1 1.5-.241 3.293.592 6.293 2.5 9 4.569 5.07 10.069 8.737 16.5 11 1.147-2.265 1.314-4.598.5-7a123.259 123.259 0 0 0-8.5-10 48.716 48.716 0 0 1 9 3c.798.457 1.131 1.124 1 2-.34 3.63.494 6.964 2.5 10 3.598 4.194 7.765 7.528 12.5 10a703.976 703.976 0 0 1-47-18.5c-6.455-3.941-10.789-9.441-13-16.5-10.35-3.249-20.35-2.415-30 2.5a862.625 862.625 0 0 0-42 43.5c.865 1.083 1.865 1.249 3 .5a700.112 700.112 0 0 1 46-20c15.251-2.19 28.584 1.81 40 12 7.443.147 14.11 2.481 20 7a6891.298 6891.298 0 0 1 69 71.5c-.438-.065-.772.101-1 .5.865 1.359 1.865 2.526 3 3.5-3.296-.05-4.629 1.283-4 4-.438-.065-.772.101-1 .5a25.14 25.14 0 0 1 4 4.5c-.543.06-.876.393-1 1a51.558 51.558 0 0 1 5 13c-.667 0-1 .333-1 1-2.98-.823-5.647-2.157-8-4l6 1c-2.218-10.916-8.552-18.416-19-22.5-1.135-.749-2.135-.583-3 .5 2.043 7.032 5.71 13.032 11 18-.992-.172-1.658.162-2 1h-1a11.105 11.105 0 0 1-4.5-3c-1.481.971-2.315 2.304-2.5 4a6.547 6.547 0 0 1-3-3c3.254-7.482 2.254-14.482-3-21 .829-.832 1.662-.499 2.5 1a2.428 2.428 0 0 0 .5-2c3.988 2.491 8.321 4.158 13 5a25.161 25.161 0 0 0 5.5-1c1.257-.35 1.591-1.017 1-2-6.458-8.822-14.958-12.488-25.5-11-.722.418-1.222 1.084-1.5 2-8.441-7.566-15.608-15.566-21.5-24 5.68 4.127 11.68 4.794 18 2-6.064-8.698-14.397-12.531-25-11.5-.752.671-1.086 1.504-1 2.5l-10-9c2.057 3.567 4.723 6.734 8 9.5-.916.278-1.582.778-2 1.5-1.795 10.75 1.705 19.417 10.5 26 3.401-7.103 2.567-13.77-2.5-20 3.688 1.683 6.688 4.683 9 9-.958.453-1.792 1.119-2.5 2-.998 10.325 2.669 18.659 11 25 3.553-6.592 3.053-12.926-1.5-19 3.328 1.621 6.328 4.287 9 8-1.911.074-3.078 1.074-3.5 3-.292 9.416 3.208 17.082 10.5 23 0 .667-.333 1-1 1a2299.552 2299.552 0 0 1-68.5-71c-3.71-6.504-5.71-13.504-6-21-8.116-6.291-17.283-8.79-27.5-7.5a351.14 351.14 0 0 0-23 10c6.885-.47 9.051 2.363 6.5 8.5-14.643 8.478-26.477 19.812-35.5 34 .005 3.539-1.162 6.539-3.5 9-3.427-13.838.573-25.171 12-34 .591-.983.257-1.65-1-2a355.724 355.724 0 0 0-41.5 10 54.874 54.874 0 0 1 2.5-10 1988.134 1988.134 0 0 1 41-74A158.66 158.66 0 0 1 341.5 37c1.444-.78 2.777-.614 4 .5a1393.354 1393.354 0 0 0-30 53.5l1 .5a1524.61 1524.61 0 0 0 32-33.5c13.491-9.135 27.991-10.968 43.5-5.5 7.597-3.411 15.43-3.911 23.5-1.5 1.566.608 2.9 1.441 4 2.5z"/><path style="opacity:1" fill="#f2df02" d="M366.5 52.5c6.009-.166 12.009 0 18 .5 1.921.36 3.588 1.194 5 2.5a6.845 6.845 0 0 0-1 4c-11.195-3.404-21.862-2.238-32 3.5a849.965 849.965 0 0 0-48 50c-1.902 1.301-3.902 1.968-6 2a78.676 78.676 0 0 1 7.5-12.5A1371.634 1371.634 0 0 1 353.5 58c4.217-2.451 8.55-4.285 13-5.5zM338.5 40.5a2.427 2.427 0 0 1 2 .5 1600.793 1600.793 0 0 0-40.5 74.5 18.924 18.924 0 0 0-3 5l-9 7c2.724-7.459 6.057-14.792 10-22a1604.459 1604.459 0 0 1 26-47 97.393 97.393 0 0 1 14.5-18z"/><path style="opacity:1" fill="#f4df01" d="M456.5 85.5c.79.901 1.79 1.568 3 2 6.218 2.05 10.718 6.05 13.5 12 .814 2.402.647 4.735-.5 7-10.995-2.986-17.328-9.986-19-21h3z"/><path style="opacity:1" fill="#f3e002" d="M366.5 91.5c13.51-1.439 25.51 2.061 36 10.5a36.078 36.078 0 0 0-4.5 3.5c-8.78-6.482-18.614-9.316-29.5-8.5a428.91 428.91 0 0 0-37 16 697.235 697.235 0 0 1-30 7 1378.767 1378.767 0 0 1 65-28.5z"/><path style="opacity:1" fill="#938e25" d="M504.5 88.5c0-.667.333-1 1-1a2616.592 2616.592 0 0 1 65 26.5c-1 .667-2 .667-3 0a6526.142 6526.142 0 0 0-59-23.5c-1.171-.845-2.505-1.511-4-2z"/><path style="opacity:1" fill="#efdc02" d="M109.5 99.5h47c.214 1.644-.12 3.144-1 4.5-15.33.5-30.663.667-46 .5v-5z"/><path style="opacity:1" fill="#100d07" d="M443.5 80.5a114.049 114.049 0 0 1 13 5h-3c1.672 11.014 8.005 18.014 19 21 1.147-2.265 1.314-4.598.5-7-2.782-5.95-7.282-9.95-13.5-12 .06-.543.393-.876 1-1a194.509 194.509 0 0 1 15 7c-1.149.291-1.816 1.124-2 2.5 1.722 7.394 6.055 12.728 13 16 2.409 1.707 5.075 2.54 8 2.5-.008-8.013-3.675-13.679-11-17 .418-.722 1.084-1.222 2-1.5-.556-.383-.889-.883-1-1.5 4.679.166 9.345 0 14-.5 2.76-1.179 4.76-3.012 6-5.5 1.495.489 2.829 1.155 4 2-2.674 1-3.341 2.666-2 5a10.162 10.162 0 0 0 3 3 85.693 85.693 0 0 1 11 11v2a203.254 203.254 0 0 0-17 0c-1.152-1.125-2.152-1.125-3 0-2.584.548-3.584 2.215-3 5a20.69 20.69 0 0 0-5-1 585.821 585.821 0 0 1-44-18h5c-.519-7.378-3.852-13.045-10-17z"/><path style="opacity:1" fill="#f3df02" d="M489.5 96.5c11.387-.474 20.72 3.693 28 12.5-11.223 2.979-20.39-.187-27.5-9.5a4.934 4.934 0 0 1-.5-3z"/><path style="opacity:1" fill="#f4df02" d="m475.5 93.5 8 4c7.325 3.321 10.992 8.987 11 17-2.925.04-5.591-.793-8-2.5-6.945-3.272-11.278-8.606-13-16 .184-1.376.851-2.209 2-2.5z"/><path style="opacity:1" fill="#f3df02" d="M411.5 113.5a2464.252 2464.252 0 0 1-7-6c-.14-1.624.527-2.79 2-3.5 10.351-.325 18.351 3.842 24 12.5-6.905 3.156-13.238 2.156-19-3z"/><path style="opacity:1" fill="#928c22" d="M506.5 95.5a1770.402 1770.402 0 0 1 62 25l-1 1a1550.288 1550.288 0 0 0-58-23 10.162 10.162 0 0 1-3-3z"/><path style="opacity:1" fill="#2e2a03" d="M147.5 109.5h-28c-.423 2.281.244 3.948 2 5-.709.904-1.709 1.237-3 1v-7c9.848-.327 19.514.006 29 1z"/><path style="opacity:1" fill="#fae501" d="M147.5 109.5v5a98.828 98.828 0 0 0-26 0c-1.756-1.052-2.423-2.719-2-5h28z"/><path style="opacity:1" fill="#f7e201" d="M402.5 108.5c2.029 2.358 4.029 4.692 6 7 5.054 6.194 5.887 12.86 2.5 20-8.653-6.63-12.319-15.297-11-26 .671-.752 1.504-1.086 2.5-1z"/><path style="opacity:1" fill="#847707" d="M404.5 107.5c2.358 2.029 4.692 4.029 7 6 1.621 3.328 4.287 6.328 8 9 2.667 2 5 4.333 7 7-.667 0-1 .333-1 1-.896-1.006-1.562-1.006-2 0a16.99 16.99 0 0 1-5-6c-3.004-4.04-6.338-7.04-10-9a2464.252 2464.252 0 0 0-6-7c-.091-2.198.575-2.531 2-1z"/><path style="opacity:1" fill="#8b801a" d="M520.5 109.5a88665.91 88665.91 0 0 1 45 18.5c-1.333.667-2.667.667-4 0-13.571-5.8-27.237-11.3-41-16.5v-2z"/><path style="opacity:1" fill="#938d23" d="M492.5 115.5a20.69 20.69 0 0 1 5 1 2379.76 2379.76 0 0 0 60 24.5c1.456.423 1.956 1.256 1.5 2.5a2629.776 2629.776 0 0 1-66.5-28z"/><path style="opacity:1" fill="#eedc02" d="M316.5 152.5c-1.466.847-2.3 2.18-2.5 4-1.225-5.768-.225-11.101 3-16a105.174 105.174 0 0 1 22.5-23l-1-1a37.523 37.523 0 0 1-11 6.5 353.863 353.863 0 0 0-40 8c5.442-4.054 11.442-7.054 18-9a266.674 266.674 0 0 1 45-8.5c.107 2.403-.893 4.236-3 5.5-14.066 7.892-24.399 19.059-31 33.5z"/><path style="opacity:1" fill="#f6e201" d="M426.5 129.5c-2-2.667-4.333-5-7-7 .111-.617.444-1.117 1-1.5 9.939-1.448 18.106 1.718 24.5 9.5.684 1.284.517 2.451-.5 3.5-6.814 1.558-12.814.058-18-4.5z"/><path style="opacity:1" fill="#efdc02" d="M127.5 117.5c11.412-.201 22.412 1.632 33 5.5a31 31 0 0 1 9 5.5l-1 1c-23.484-6.641-46.984-6.641-70.5 0-1.563-.602-1.396-1.435.5-2.5a59.043 59.043 0 0 1 9-5 212.866 212.866 0 0 1 20-4.5z"/><path style="opacity:1" fill="#8e861d" d="M503.5 111.5a2140.99 2140.99 0 0 1 59 24.5 822.449 822.449 0 0 1-62-24.5c.848-1.125 1.848-1.125 3 0z"/><path style="opacity:1" fill="#f6e201" d="M418.5 124.5a16.99 16.99 0 0 0 5 6c5.25 6.444 6.25 13.444 3 21-8.758-6.519-12.258-15.185-10.5-26 .671-.752 1.504-1.086 2.5-1z"/><path style="opacity:1" fill="#e9d802" d="M120.5 127.5c17.331-1.18 34.331.653 51 5.5 1.921 1.241 2.254 2.741 1 4.5-26.006-7.974-52.006-7.974-78 0-1.33-1.847-.997-3.347 1-4.5 8.328-2.492 16.662-4.325 25-5.5z"/><path style="opacity:1" fill="#fde500" d="M122.5 134.5c17.231-.956 34.064 1.044 50.5 6-1.692 27.517 2.975 53.85 14 79 3.667 5 8 9.333 13 13 2.616 3.229 4.116 6.896 4.5 11a1282.745 1282.745 0 0 0-143 0 25.931 25.931 0 0 1 3.5-9 169.454 169.454 0 0 0 15-16 164.345 164.345 0 0 0 12-42c.91-11.993 1.743-23.993 2.5-36 9.278-2.874 18.612-4.874 28-6z"/><path style="opacity:1" fill="#f6e102" d="M443.5 146.5a3741.969 3741.969 0 0 1-8-7c-.086-.996.248-1.829 1-2.5 10.603-1.031 18.936 2.802 25 11.5-6.32 2.794-12.32 2.127-18-2z"/><path style="opacity:1" fill="#f4e001" d="M431.5 141.5a4.934 4.934 0 0 1 3 .5 81.338 81.338 0 0 1 5 5.5c5.067 6.23 5.901 12.897 2.5 20-8.795-6.583-12.295-15.25-10.5-26z"/><path style="opacity:1" fill="#756909" d="m425.5 130.5 10 9c2.692 2.362 5.359 4.696 8 7 5.892 8.434 13.059 16.434 21.5 24 .278-.916.778-1.582 1.5-2a4.934 4.934 0 0 0 .5 3 46.081 46.081 0 0 1 5.5 6 2.428 2.428 0 0 1-.5 2c-.838-1.499-1.671-1.832-2.5-1-2.414-1.411-4.081-3.411-5-6-2.672-3.713-5.672-6.379-9-8a3741.969 3741.969 0 0 0-7-8c-2.312-4.317-5.312-7.317-9-9a81.338 81.338 0 0 0-5-5.5 4.934 4.934 0 0 0-3-.5c.418-.722 1.084-1.222 2-1.5-3.277-2.766-5.943-5.933-8-9.5z"/><path style="opacity:1" fill="#f1de02" d="M451.5 152.5c10.712-.811 19.379 3.023 26 11.5-4.406 2.964-9.073 3.298-14 1-4.92-2.916-9.253-6.582-13-11 .556-.383.889-.883 1-1.5z"/><path style="opacity:1" fill="#f4e002" d="M448.5 156.5c2.362 2.692 4.696 5.359 7 8 4.553 6.074 5.053 12.408 1.5 19-8.331-6.341-11.998-14.675-11-25 .708-.881 1.542-1.547 2.5-2z"/><path style="opacity:1" fill="#09080b" d="M485.5 566.5h-133v-17c5.195.321 10.195-.013 15-1a22229.299 22229.299 0 0 1 35.5-119c.667-27 .667-54 0-81a30380.78 30380.78 0 0 0-127.5-157 6.547 6.547 0 0 0-3-3c-3.042-5.222-6.709-10.055-11-14.5a148.791 148.791 0 0 0 16-13c.667-.667 1.333-.667 2 0A42548.95 42548.95 0 0 1 403 313.5l1-25a175.268 175.268 0 0 1 14-11 216.814 216.814 0 0 0 14.5 10 2050.782 2050.782 0 0 1 1.5 64 11529.975 11529.975 0 0 0 80.5 100 110.55 110.55 0 0 1-16.5 14 7069.366 7069.366 0 0 1-63.5-78 280.701 280.701 0 0 0-.5 41 8093.748 8093.748 0 0 0 35.5 119 64.873 64.873 0 0 0 16 1v18z"/><path style="opacity:1" fill="#f8f8f8" d="M276.5 166.5c2.556 1.043 4.723 2.71 6.5 5 39.76 49.85 79.76 99.516 120 149 .667 7 .667 14 0 21A16114.515 16114.515 0 0 0 267.5 175a40.248 40.248 0 0 0 9-8.5z"/><path style="opacity:1" fill="#f2de01" d="M472.5 177.5a46.081 46.081 0 0 0-5.5-6 4.934 4.934 0 0 1-.5-3c10.542-1.488 19.042 2.178 25.5 11 .591.983.257 1.65-1 2-1.792.537-3.625.87-5.5 1-4.679-.842-9.012-2.509-13-5z"/><path style="opacity:1" fill="#f5e101" d="M464.5 172.5c.919 2.589 2.586 4.589 5 6 5.254 6.518 6.254 13.518 3 21 0-.667-.333-1-1-1-7.292-5.918-10.792-13.584-10.5-23 .422-1.926 1.589-2.926 3.5-3z"/><path style="opacity:1" fill="#f0dc02" d="M490.5 203.5c-1.399-1.39-3.066-2.39-5-3-5.29-4.968-8.957-10.968-11-18 .865-1.083 1.865-1.249 3-.5 10.448 4.084 16.782 11.584 19 22.5l-6-1z"/><path style="opacity:1" fill="#edf1f7" d="M272.5 188.5a6.547 6.547 0 0 1 3 3c.602 37.001 1.268 74.001 2 111h-3a7834.87 7834.87 0 0 1-2-114z"/><path style="opacity:1" fill="#959028" d="M494.5 179.5a3520.935 3520.935 0 0 1 49 50.5c-.667.667-1.333.667-2 0a2966.181 2966.181 0 0 0-45-46.5c-1.135-.974-2.135-2.141-3-3.5.228-.399.562-.565 1-.5z"/><path style="opacity:1" fill="#908b2b" d="M492.5 187.5a3043.825 3043.825 0 0 1 45.5 47c.667.667.667 1.333 0 2a2650.962 2650.962 0 0 0-42.5-44 25.14 25.14 0 0 0-4-4.5c.228-.399.562-.565 1-.5z"/><path style="opacity:1" fill="#928c27" d="M482.5 201.5h1a2666.472 2666.472 0 0 1 42.5 44c.667.667.667 1.333 0 2a1336.46 1336.46 0 0 0-43-44 2.428 2.428 0 0 1-.5-2z"/><path style="opacity:1" fill="#918c2a" d="M471.5 198.5c.667 0 1 .333 1 1a6.547 6.547 0 0 0 3 3 3126.725 3126.725 0 0 0 46 48.5c-.667.667-1.333.667-2 0a3537.421 3537.421 0 0 1-49-51.5c.667 0 1-.333 1-1z"/><path style="opacity:1" fill="#978d1f" d="M498.5 207.5c0-.667.333-1 1-1 10.951 11.286 21.951 22.619 33 34l-1 1a179984.462 179984.462 0 0 1-33-34z"/><path style="opacity:1" fill="#e9d802" d="M128.5 245.5v3h-33a155.526 155.526 0 0 1-23-1.5 831.498 831.498 0 0 1 56-1.5z"/><path style="opacity:1" fill="#e8d702" d="M142.5 245.5c66.644 1.003 66.644 2.003 0 3v-3z"/><path style="opacity:1" fill="#524904" d="M128.5 245.5c.934 1.068 1.268 2.401 1 4-11.512.328-22.846-.005-34-1h33v-3z"/><path style="opacity:1" fill="#f1de02" d="M134.5 246.5h3a112.97 112.97 0 0 0 .5 15c6 4.333 6 8.667 0 13a50.464 50.464 0 0 0-.5 10h-3c1.158-5.661-.342-10.327-4.5-14-1.048-3.98.285-6.98 4-9 .499-4.989.666-9.989.5-15z"/><path style="opacity:1" fill="#f7f7f7" d="M416.5 283.5c4.634 1.403 8.801 3.736 12.5 7a4420.29 4420.29 0 0 1 0 133 66.488 66.488 0 0 1-10.5 8 66.488 66.488 0 0 1-10.5-8 4420.29 4420.29 0 0 1 0-133 89.868 89.868 0 0 0 8.5-7z"/><path style="opacity:1" fill="#101014" d="M274.5 302.5h3c13.897 2.563 22.23 10.896 25 25a791.35 791.35 0 0 0-9.5 38 120.655 120.655 0 0 1-31 0 557.297 557.297 0 0 0-11.5-38c2.682-13.678 10.682-22.012 24-25z"/><path style="opacity:1" fill="#014493" d="M274.5 305.5c13.131.559 21.131 7.226 24 20a242.56 242.56 0 0 0-44 0c2.406-11.073 9.073-17.74 20-20z"/><path style="opacity:1" fill="#b7b7b7" d="M263.5 326.5a184.5 184.5 0 0 1 31 1.5c-12 2-24 2-36 0 1.882-.198 3.548-.698 5-1.5z"/><path style="opacity:1" fill="#fcfcfc" d="M255.5 331.5a316.994 316.994 0 0 0 43 .5 332.883 332.883 0 0 0-7.5 31.5 119.318 119.318 0 0 1-26.5.5 600.751 600.751 0 0 1-9-32.5z"/><path style="opacity:1" fill="#161616" d="M415.5 345.5c7.712-.785 11.212 2.548 10.5 10-4.717 6.652-9.383 6.652-14 0-.667-2-.667-4 0-6a19.552 19.552 0 0 0 3.5-4z"/><path style="opacity:1" fill="#eaeaea" d="M416.5 350.5h5c.669 4.176-.831 5.509-4.5 4a8.43 8.43 0 0 1-.5-4z"/><path style="opacity:1" fill="#0e0e0f" d="M204.5 352.5c.996-.086 1.829.248 2.5 1-.158 3.916 1.509 6.582 5 8 2.819 5.48 1.652 9.814-3.5 13-1.131 1.574-1.298 3.241-.5 5l106 108c.5 20.664.667 41.331.5 62a693.347 693.347 0 0 0-45 21.5c-43.667.667-87.333.667-131 0A1590.338 1590.338 0 0 1 96 556.5a1225.189 1225.189 0 0 1 0-70l107-107c.798-1.759.631-3.426-.5-5-6.577-5.082-6.577-10.082 0-15a86.993 86.993 0 0 0 2-7z"/><path style="opacity:1" fill="#f8f8f8" d="M435.5 360.5a9904.744 9904.744 0 0 1 73 90.5c-2.831 3.324-6.164 6.157-10 8.5-21.357-26.352-42.69-52.686-64-79-.324-6.854.009-13.521 1-20z"/><path style="opacity:1" fill="#727172" d="M435.5 360.5c-.991 6.479-1.324 13.146-1 20-1.319-6.844-1.319-13.844 0-21 .607.124.94.457 1 1z"/><path style="opacity:1" fill="#f3f3f3" d="M203.5 362.5c3.416-.634 5.416.7 6 4-.857 5.171-3.357 6.171-7.5 3-.833-2.671-.333-5.004 1.5-7z"/><path style="opacity:1" fill="#fdfdfd" d="M-.5 378.5h1c1.025 39.815 9.858 77.815 26.5 114C66.523 573.355 129.356 626.855 215.5 653c87.058 21.823 168.391 8.823 244-39 79.754-56.307 123.088-133.474 130-231.5h1v282H-.5v-286z"/><path style="opacity:1" fill="#f0f0f0" d="M204.5 386.5c3.033 3.028 5.366 6.695 7 11-4 1.333-8 1.333-12 0a81.031 81.031 0 0 0 5-11z"/><path style="opacity:1" fill="#fafafa" d="M216.5 396.5a10872.829 10872.829 0 0 0 87.5 88c.617.949.451 1.782-.5 2.5L271 498.5a2486.649 2486.649 0 0 1-54.5-102z"/><path style="opacity:1" fill="#e5e5e5" d="M190.5 399.5c.876-.131 1.543.202 2 1-.851 2.382-2.184 4.382-4 6-1-.333-1.667-1-2-2 1.357-1.686 2.69-3.352 4-5z"/><path style="opacity:1" fill="#f8f8f8" d="M215.5 405.5c-6.813.991-13.813 1.325-21 1 1.54-5.469 5.206-7.469 11-6l8 1c1.13 1.122 1.797 2.456 2 4z"/><path style="opacity:1" fill="#676766" d="M215.5 405.5c.543.06.876.393 1 1-7.49 1.319-14.823 1.319-22 0 7.187.325 14.187-.009 21-1z"/><path style="opacity:1" fill="#ebebeb" d="M183.5 406.5c1.811.072 3.144.905 4 2.5a27.038 27.038 0 0 1-4 7.5c-2.382-.851-4.382-2.184-6-4 1.715-2.382 3.715-4.382 6-6z"/><path style="opacity:1" fill="#efefef" d="M220.5 415.5c-4.822.666-9.822.999-15 1-5.381-.006-10.381-.672-15-2a24.257 24.257 0 0 1 3-5.5c8-.667 16-.667 24 0a19.209 19.209 0 0 1 3 6.5zM173.5 415.5a46.86 46.86 0 0 1 9 2c-2.061 10.103-7.061 11.769-15 5 2.023-2.353 4.023-4.686 6-7z"/><path style="opacity:1" fill="#b6b6b6" d="M190.5 414.5c4.619 1.328 9.619 1.994 15 2 5.178-.001 10.178-.334 15-1 .543.06.876.393 1 1a182.078 182.078 0 0 1-33 .5c.566-.995 1.233-1.828 2-2.5z"/><path style="opacity:1" fill="#fbfbfb" d="M187.5 419.5c12.005-.167 24.005 0 36 .5 1.702 2.235 2.702 4.735 3 7.5a463.087 463.087 0 0 1-43-1 36.602 36.602 0 0 0 4-7z"/><path style="opacity:1" fill="#f4f4f4" d="M163.5 425.5a139.84 139.84 0 0 1 13 3 65.913 65.913 0 0 1-4.5 10 3.943 3.943 0 0 1-2 1l-10.5-3.5c-1.41-.368-2.41-1.201-3-2.5 2.356-2.686 4.689-5.353 7-8z"/><path style="opacity:1" fill="#f7f7f7" d="M181.5 429.5c15.67-.167 31.337 0 47 .5a128.436 128.436 0 0 1 5 9.5c-19 1.333-38 1.333-57 0a35.158 35.158 0 0 0 5-10z"/><path style="opacity:1" fill="#f5f5f5" d="M407.5 429.5a68.974 68.974 0 0 0 6.5 5c.667 2 .667 4 0 6a6522.607 6522.607 0 0 0-31.5 108h-10a4052.866 4052.866 0 0 1 35-119zM428.5 429.5c1.807 2.969 3.307 6.302 4.5 10a13402.61 13402.61 0 0 1 31.5 109h-10a10556.51 10556.51 0 0 1-32-112 208.632 208.632 0 0 1 6-7z"/><path style="opacity:1" fill="#f3f3f3" d="M152.5 436.5a156.986 156.986 0 0 1 16.5 5c-.613 4.007-2.28 7.674-5 11a294.281 294.281 0 0 1-18-7c-.667-.667-.667-1.333 0-2a63.707 63.707 0 0 0 6.5-7z"/><path style="opacity:1" fill="#fdfdfd" d="M240.5 452.5c-23.506.331-46.839-.002-70-1l4-8a620.871 620.871 0 0 1 61-.5 129.747 129.747 0 0 1 5 9.5z"/><path style="opacity:1" fill="#f7f7f7" d="M417.5 441.5c5.023 11.361 8.857 23.361 11.5 36 .5 23.664.667 47.331.5 71h-22c-.167-24.002 0-48.002.5-72a453.74 453.74 0 0 0 9.5-35z"/><path style="opacity:1" fill="#f1f1f1" d="M142.5 446.5a66365.18 66365.18 0 0 0 21 8c-1.314 3.96-3.648 6.96-7 9a764.523 764.523 0 0 0-21-6.5c-.951-.718-1.117-1.551-.5-2.5a84.01 84.01 0 0 0 7.5-8z"/><path style="opacity:1" fill="#838184" d="M170.5 451.5c23.161.998 46.494 1.331 70 1-23.503 1.329-47.17 1.329-71 0 .124-.607.457-.94 1-1z"/><path style="opacity:1" fill="#fcfcfc" d="M167.5 455.5c25.009-.333 50.009 0 75 1l4 7a1148.563 1148.563 0 0 1-83 .5 33 33 0 0 0 4-8.5z"/><path style="opacity:1" fill="#f6f6f6" d="M130.5 458.5a177.33 177.33 0 0 1 25 7c.533 4.268-1.134 7.602-5 10a220.522 220.522 0 0 0-25-8.5c-.951-.718-1.117-1.551-.5-2.5a46.081 46.081 0 0 0 5.5-6z"/><path style="opacity:1" fill="#fbfbfb" d="M251.5 474.5c-31 1.333-62 1.333-93 0a32.128 32.128 0 0 1 3-7c29-1.333 58-1.333 87 0a32.128 32.128 0 0 1 3 7z"/><path style="opacity:1" fill="#f5f5f5" d="M120.5 468.5a158.501 158.501 0 0 1 30 10 31 31 0 0 1-5.5 9 885.036 885.036 0 0 1-31.5-11.5 73.503 73.503 0 0 0 7-7.5z"/><path style="opacity:1" fill="#a9a7a9" d="M158.5 474.5c31 1.333 62 1.333 93 0 .543.06.876.393 1 1a1128.907 1128.907 0 0 1-95 0c.124-.607.457-.94 1-1z"/><path style="opacity:1" fill="#f4f4f4" d="M110.5 478.5a291.294 291.294 0 0 1 34 11.5 80.507 80.507 0 0 0-4 7.5l-2.5 1a354.004 354.004 0 0 1-34.5-12.5 73.503 73.503 0 0 0 7-7.5z"/><path style="opacity:1" fill="#fcfcfc" d="M155.5 478.5c33.002-.167 66.002 0 99 .5a80.507 80.507 0 0 1 4 7.5 1431.983 1431.983 0 0 1-107 0l4-8z"/><path style="opacity:1" fill="#f8f8f8" d="M149.5 489.5c37.006-.333 74.006 0 111 1l4 8a2400.398 2400.398 0 0 1-120 .5 129.747 129.747 0 0 0 5-9.5z"/><path style="opacity:1" fill="#fafafa" d="M100.5 492.5a824.852 824.852 0 0 1 37 12 465.741 465.741 0 0 1 0 61 788.31 788.31 0 0 1-36.5-13c-.5-19.997-.667-39.997-.5-60z"/><path style="opacity:1" fill="#fcfcfc" d="M307.5 491.5c1.332 8.641 1.998 17.641 2 27l-1 27-36 18a580.852 580.852 0 0 1-.5-59 2381.012 2381.012 0 0 1 35.5-13z"/><path style="opacity:1" fill="#fefefe" d="M143.5 505.5h123v60h-123v-60z"/><path style="opacity:1" fill="#024393" d="M433.5 495.5c1.086.12 1.753.787 2 2 4.679 17.03 9.345 34.03 14 51h-16v-53z"/><path style="opacity:1" fill="#014494" d="M402.5 494.5a729.55 729.55 0 0 1 1 54h-16a1619.56 1619.56 0 0 1 15-54z"/><path style="opacity:1" fill="#fefffe" d="M356.5 553.5h124v9h-124v-9z"/><path style="opacity:1" fill="#6c6c6c" d="M356.5 553.5a3905.727 3905.727 0 0 1 125-1v11c-41.837.332-83.503-.001-125-1h124v-9h-124z"/><path style="opacity:1" fill="#707070" d="M143.5 505.5v60h123a3843.432 3843.432 0 0 1-124 1 931.31 931.31 0 0 1 1-61z"/><path style="opacity:1" fill="#010d28" d="M367.5 548.5c-4.805.987-9.805 1.321-15 1v17h133a4488.948 4488.948 0 0 1-134 1v-19h16z"/></svg>