<svg xmlns="http://www.w3.org/2000/svg" width="475.401" height="603.275" viewBox="0 0 125.783 159.617"><path style="opacity:1;fill:#000;fill-opacity:1;fill-rule:evenodd;stroke:none;stroke-width:2.9104166;stroke-linecap:round;stroke-linejoin:round;stroke-miterlimit:4;stroke-dasharray:none;stroke-opacity:1;paint-order:fill markers stroke" d="M-10.906-169.261v85.913c0 41.282 27.4 70.793 61.437 70.793 34.035 0 61.436-29.511 61.436-70.793v-85.913z" transform="translate(12.36 170.716)"/><path style="fill:#fff;stroke:#000;stroke-width:5.00031525;stroke-linecap:round;stroke-linejoin:round;stroke-miterlimit:4;stroke-dasharray:none;stroke-opacity:1" d="M5.5 25.994V330.21c0 156.027 103.56 267.566 232.2 267.566a8601.581 8601.581 0 0 1-5.968-158.742c-1-35.317-1.788-70.7-5.873-105.795-6.63-56.959-22.16-113.315-49.92-163.492-27.758-50.177-68.148-94.003-118.32-121.771A267.068 267.068 0 0 0 5.5 25.995z" transform="scale(.26458)"/><path style="fill:#fff;stroke:#000;stroke-width:5.00031525;stroke-linecap:round;stroke-linejoin:round;stroke-miterlimit:4;stroke-dasharray:none;stroke-opacity:1" d="M237.7 597.775c128.639 0 232.2-111.539 232.2-267.566V25.994a267.069 267.069 0 0 0-52.119 21.98c-50.172 27.769-90.561 71.595-118.32 121.772-27.759 50.177-43.29 106.533-49.92 163.492-4.085 35.095-4.872 70.478-5.873 105.795a8601.498 8601.498 0 0 1-5.969 158.742z" transform="scale(.26458)"/><path style="opacity:1;fill:#ed1c24;fill-opacity:1;fill-rule:evenodd;stroke:#000;stroke-width:5.00031471;stroke-linecap:round;stroke-linejoin:round;stroke-miterlimit:4;stroke-dasharray:none;stroke-dashoffset:0;stroke-opacity:1;paint-order:fill markers stroke" d="M88.68 68.084v229.115H5.5v33.01c0 2.453.027 4.895.078 7.326.012.561.036 1.116.05 1.676.05 1.896.103 3.791.183 5.674v.011H88.68v193.352l.025.023c.825.773 1.654 1.538 2.488 2.297.244.222.49.442.735.662 1.529 1.38 3.075 2.738 4.636 4.073l.606.52c.87.737 1.742 1.469 2.621 2.193l.287.232a227.146 227.146 0 0 0 6.094 4.83c.788.603 1.576 1.204 2.371 1.795.985.733 1.975 1.456 2.97 2.172.807.58 1.62 1.15 2.434 1.719a222.617 222.617 0 0 0 4.96 3.365c.677.447 1.356.895 2.038 1.334.706.454 1.415.905 2.125 1.351.742.466 1.488.923 2.235 1.38a218.754 218.754 0 0 0 5.295 3.138c.74.424 1.481.846 2.226 1.262.865.482 1.735.955 2.606 1.426.315.17.629.344.945.513V344.896h90.717a600.994 600.994 0 0 0-1.235-11.658 529.833 529.833 0 0 0-5.443-36.039h-84.039V112.78C122.093 96.211 106.14 81.133 88.68 68.084z" transform="scale(.26458)"/><path style="opacity:1;fill:#000;fill-opacity:1;fill-rule:evenodd;stroke:#000;stroke-width:5.00031471;stroke-linecap:round;stroke-linejoin:round;stroke-miterlimit:4;stroke-dasharray:none;stroke-dashoffset:0;stroke-opacity:1;paint-order:fill markers stroke" d="M386.723 68.082c-17.462 13.049-33.413 28.126-47.698 44.693V297.2h-84.04a529.823 529.823 0 0 0-5.446 36.04c-.452 3.882-.856 7.769-1.232 11.657h90.716v227.637c.284-.15.564-.308.846-.46.922-.498 1.841-.998 2.756-1.509a217.508 217.508 0 0 0 4.514-2.593c.911-.538 1.818-1.082 2.722-1.633a219.862 219.862 0 0 0 4.58-2.865 221.223 221.223 0 0 0 5.336-3.551c.617-.422 1.232-.847 1.844-1.276a222.8 222.8 0 0 0 2.266-1.601l.191-.14c.93-.671 1.858-1.347 2.78-2.032l.01-.008c.779-.58 1.552-1.17 2.325-1.761a226.28 226.28 0 0 0 5.887-4.657c.164-.134.329-.266.492-.4l.057-.047c.846-.697 1.688-1.403 2.525-2.113.296-.251.59-.505.885-.758a230.713 230.713 0 0 0 4.395-3.863c.257-.233.516-.464.773-.698.834-.759 1.664-1.524 2.488-2.297l.026-.023V344.896h82.867c.001-.036.004-.071.006-.107.061-1.464.097-2.938.14-4.41.028-.949.068-1.892.088-2.844l.002-.045c.016-.773.013-1.554.024-2.33.023-1.647.05-3.293.05-4.951v-33.01h-83.175V68.082z" transform="scale(.26458)"/><path style="opacity:1;fill:none;fill-opacity:1;fill-rule:evenodd;stroke:#000;stroke-width:2.9104166;stroke-linecap:round;stroke-linejoin:round;stroke-miterlimit:4;stroke-dasharray:none;stroke-opacity:1;paint-order:fill markers stroke" d="M-10.906-169.261v85.913c0 41.282 27.4 70.793 61.437 70.793 34.035 0 61.436-29.511 61.436-70.793v-85.913z" transform="translate(12.36 170.716)"/><path style="fill:#fd0;fill-opacity:1;stroke:none;stroke-width:.99999994px;stroke-linecap:butt;stroke-linejoin:miter;stroke-opacity:1" d="M237.7 31.541a245.581 245.581 0 0 0-2.415 26.717v.02c-8.765.12-15.298.869-15.306 1.753.003.882 6.488 1.63 15.218 1.754-.149 6.78-.022 13.58.367 20.324-2.095 2.822-4.782 5.184-7.845 6.832-6.414 3.451-14.46 3.63-20.914.258-2.772-1.448-5.216-3.525-7.16-6.013a255.635 255.635 0 0 0-3.823-15.86c8.435-2.253 14.542-4.562 14.328-5.418-.23-.853-6.746.015-15.27 2.04a245.594 245.594 0 0 0-8.875-25.338 245.6 245.6 0 0 0 4.186 26.497c.002.008.001.012.002.02-8.47 2.258-14.62 4.58-14.414 5.44.223.852 6.694-.008 15.186-2.018a255.706 255.706 0 0 0 4.332 16.388c-1.464 3.676-3.632 7.06-6.383 9.854-2.628 2.67-5.798 4.827-9.328 5.963-3.53 1.136-7.428 1.207-10.899-.108-4.556-1.726-8.156-5.891-9.28-10.736 2.348-.137 4.609-1.434 5.95-3.416 1.233-1.821 1.674-4.183 1.188-6.344a32.153 32.153 0 0 1-5.473 1.952c-.979.252-1.975.458-2.984.498-1.009.039-2.033-.094-2.963-.498-.968-.421-1.804-1.124-2.482-1.948-.679-.823-1.209-1.766-1.666-2.736-.916-1.941-1.567-4.027-2.754-5.807-1.342-2.01-3.35-3.546-5.614-4.29a10.566 10.566 0 0 0-3.511-.522c-1.188.023-2.37.246-3.487.664a68.508 68.508 0 0 1 4.996 6.344c3.662 5.258 6.58 11.012 9.756 16.591 5.996 10.53 12.944 20.484 18.563 31.23.706 1.35 1.394 2.72 2.295 3.942.311.423.662.817 1.03 1.192 16.01-9.717 40.05-15.363 65.448-15.371 25.4.011 49.436 5.66 65.44 15.379a11.1 11.1 0 0 0 1.037-1.2c.9-1.222 1.589-2.591 2.295-3.941 5.618-10.747 12.564-20.7 18.56-31.23 3.177-5.58 6.096-11.334 9.758-16.592a68.523 68.523 0 0 1 4.998-6.344 10.635 10.635 0 0 0-7-.143c-2.263.745-4.27 2.278-5.611 4.29-1.187 1.779-1.841 3.867-2.756 5.808-.458.97-.986 1.913-1.664 2.736-.679.824-1.515 1.527-2.483 1.948-.93.404-1.957.537-2.966.498-1.01-.04-2.004-.246-2.983-.498a32.173 32.173 0 0 1-5.474-1.952c-.487 2.16-.042 4.523 1.191 6.344 1.342 1.982 3.6 3.279 5.95 3.416-1.125 4.845-4.726 9.01-9.282 10.736-3.47 1.315-7.369 1.244-10.898.108-3.53-1.136-6.7-3.296-9.329-5.965-2.751-2.795-4.918-6.177-6.382-9.853a255.967 255.967 0 0 0 4.332-16.385c8.494 2.011 14.966 2.87 15.187 2.017.205-.86-5.947-3.182-14.416-5.44.002-.007.007-.011.008-.019a245.602 245.602 0 0 0 4.185-26.5h-.001a245.602 245.602 0 0 0-8.87 25.32l-.004.02c-8.525-2.023-15.042-2.893-15.271-2.039-.21.856 5.896 3.165 14.33 5.418a255.614 255.614 0 0 0-3.82 15.854c-1.946 2.49-4.393 4.568-7.166 6.017-6.454 3.372-14.498 3.193-20.912-.258-3.064-1.648-5.75-4.01-7.846-6.832.39-6.743.516-13.544.367-20.324 8.73-.125 15.216-.872 15.219-1.754-.019-.884-6.549-1.631-15.307-1.752v-.02a245.58 245.58 0 0 0-2.416-26.718zm0 87.535c-22.02.003-43.164 4.248-58.919 11.828a10.718 10.718 0 0 0-.574 2.682c-.235 2.941.744 5.839 1.906 8.539a58.917 58.917 0 0 0 5.604 10.123c14.825-4.27 33.126-6.597 51.982-6.61 18.854.004 37.162 2.321 52.002 6.583a58.84 58.84 0 0 0 5.588-10.096c1.162-2.7 2.138-5.6 1.902-8.541-.07-.885-.26-1.756-.545-2.594-15.733-7.615-36.893-11.891-58.947-11.914zm-5.587 9.735.73 8.42-14.396 1.248-.73-8.42 14.396-1.248zm11.176 0 14.397 1.248-.73 8.42-14.397-1.249.73-8.42zm-40.162 3.865 2.312 8.129-13.898 3.955-2.312-8.13 13.898-3.954zm69.148 0 13.899 3.955-2.313 8.129-13.898-3.955 2.312-8.13zM237.7 149.689a40.494 9.43 0 0 0-40.494 9.432 40.494 9.43 0 0 0 40.494 9.43 40.494 9.43 0 0 0 40.494-9.43 40.494 9.43 0 0 0-40.494-9.432z" transform="scale(.26458)"/></svg>