<svg xmlns="http://www.w3.org/2000/svg" width="672.321" height="787.849" viewBox="0 0 177.885 208.452"><g transform="translate(27.854 -20.129)"><path style="fill:red;fill-opacity:1;fill-rule:evenodd;stroke:#000;stroke-width:2.11666656;stroke-linecap:round;stroke-linejoin:round;stroke-miterlimit:4;stroke-dasharray:none;stroke-opacity:1" d="m148.973 21.187-.402 117.635c-1.956 49.483-40.608 88.672-87.482 88.7-46.832-.06-85.499-39.265-87.483-88.7l-.402-117.635h87.882z"/><path style="opacity:1;fill:#000;fill-opacity:1;fill-rule:evenodd;stroke:#000;stroke-width:7.99999952;stroke-linecap:round;stroke-linejoin:round;stroke-miterlimit:4;stroke-dasharray:none;stroke-opacity:1;paint-order:stroke fill markers" d="m4 4 1.52 444.605C13.018 635.447 159.158 783.62 336.16 783.85V4H4z" transform="matrix(.26458 0 0 .26458 -27.854 20.129)"/><path style="fill:none;fill-rule:evenodd;stroke:#000;stroke-width:2.11666656;stroke-linecap:round;stroke-linejoin:round;stroke-miterlimit:4;stroke-dasharray:none;stroke-opacity:1" d="m148.973 21.187-.402 117.635c-1.956 49.483-40.608 88.672-87.482 88.7-46.832-.06-85.499-39.265-87.483-88.7l-.402-117.635h87.882z"/><path style="fill:#fff;stroke:#000;stroke-width:7.99999952;stroke-linecap:round;stroke-linejoin:round;stroke-miterlimit:4;stroke-dasharray:none;stroke-opacity:1" d="M336.16 377.803 71.734 643.877c51.94 72.867 130.083 123.581 219.162 136.646l45.264 3.327 45.717-3.36c88.976-13.105 166.973-63.742 218.81-136.513L336.16 377.803z" transform="matrix(.26458 0 0 .26458 -27.854 20.129)"/><path style="opacity:1;fill:red;fill-opacity:1;fill-rule:evenodd;stroke:#000;stroke-width:5;stroke-linecap:round;stroke-linejoin:round;stroke-miterlimit:4;stroke-dasharray:none;stroke-opacity:1;paint-order:stroke fill markers" d="M300.693 497.197v64.274l-97.832 90.437 18.973 7.963v102.274c35.69 13.978 74.21 21.653 114.326 21.705 40.123-.024 78.643-7.664 114.328-21.604V659.871l18.973-7.963-97.832-90.437v-64.274h-35.277c5.664 2.163 10.703 5.82 14.408 10.475a32.154 32.154 0 0 1 6.129 12.56V558.5h-41.455v-38.268a32.153 32.153 0 0 1 6.128-12.56c3.705-4.654 8.746-8.312 14.41-10.475h-35.279zm-38.595 157.846a35.075 35.075 0 0 1 15.023 11.293c3.032 3.96 5.2 8.58 6.309 13.443v40.951h-42.66v-40.95a34.995 34.995 0 0 1 6.306-13.444 35.07 35.07 0 0 1 15.022-11.293zm148.127 0a35.075 35.075 0 0 1 15.023 11.293 34.995 34.995 0 0 1 6.307 13.443v40.951h-42.662v-40.95a35 35 0 0 1 6.308-13.444 35.075 35.075 0 0 1 15.024-11.293z" transform="matrix(.26458 0 0 .26458 -27.854 20.129)"/><path style="opacity:1;fill:gold;fill-opacity:1;fill-rule:evenodd;stroke:#000007;stroke-width:5;stroke-linecap:round;stroke-linejoin:round;stroke-miterlimit:4;stroke-dasharray:none;stroke-opacity:1;paint-order:stroke fill markers" d="M336.162 627.143c-11.273 6.837-20.776 16.569-27.344 28.002a78.656 78.656 0 0 0-9.181 25.162V781.68c12 1.416 24.187 2.154 36.523 2.17a315.342 315.342 0 0 0 36.526-2.141V680.307a78.656 78.656 0 0 0-9.182-25.162c-6.568-11.433-16.069-21.165-27.342-28.002z" transform="matrix(.26458 0 0 .26458 -27.854 20.129)"/><path style="fill:#000;stroke:#000;stroke-width:.26458332px;stroke-linecap:butt;stroke-linejoin:miter;stroke-opacity:1" d="m61.089 139.138-12.61 12.54h25.22z"/><path style="fill:none;stroke:#000;stroke-width:2.11666656;stroke-linecap:butt;stroke-linejoin:miter;stroke-miterlimit:4;stroke-dasharray:none;stroke-opacity:1" d="M61.089 127.112v15.891M55.88 132.91h10.416"/><path style="fill:none;fill-rule:evenodd;stroke:#000;stroke-width:2.11666656;stroke-linecap:round;stroke-linejoin:round;stroke-miterlimit:4;stroke-dasharray:none;stroke-opacity:1" d="m148.973 21.187-.402 117.635c-1.956 49.483-40.608 88.672-87.482 88.7-46.832-.06-85.499-39.265-87.483-88.7l-.402-117.635h87.882z"/><path style="opacity:1;fill:gold;fill-opacity:1;fill-rule:evenodd;stroke:none;stroke-width:.99999994;stroke-linecap:round;stroke-linejoin:round;stroke-miterlimit:4;stroke-dasharray:none;stroke-opacity:1;paint-order:stroke fill markers" d="M164.26 15.764a33.373 33.373 0 0 0-17.059 4.45 112.28 112.28 0 0 0 9.643 10.755c1.326 1.3 2.693 2.578 3.765 4.095 1.072 1.518 1.843 3.32 1.797 5.176-.042 1.753-.813 3.435-1.918 4.797-1.104 1.362-2.529 2.431-4.015 3.361-7.02 4.393-15.414 5.84-23.364 8.159-13.496 3.935-26.13 10.581-37.455 18.912a141.253 141.253 0 0 0-26.328 25.217c.96-4.754-.627-9.945-4.08-13.35-1.993-1.966-4.54-3.335-7.244-4.057-2.705-.721-5.562-.805-8.33-.392-6.708 1-12.678 4.825-17.8 9.27a74.091 74.091 0 0 0-9.272 9.642c6.689.048 13.287 3.277 17.43 8.53 3.441 4.363 5.17 10.029 4.82 15.575-.37 5.845-2.91 11.295-5.192 16.688-7.01 16.561-11.984 34.31-11.496 52.287.373 13.733 3.969 27.342 10.2 39.586a97.255 97.255 0 0 0 14.648 21.232 16.499 16.499 0 0 0-11.22-.965 16.494 16.494 0 0 0-9.177 6.528c-1.564 2.282-2.53 4.947-2.974 7.678-.445 2.73-.38 5.528.007 8.267.775 5.491 2.83 10.751 5.563 15.576a58.848 58.848 0 0 0 19.283 20.395 16.458 16.458 0 0 1-3.312-7.858c-.389-2.85-.01-5.8 1.088-8.459 1.362-3.3 3.822-6.117 6.859-7.994 3.037-1.876 6.63-2.815 10.2-2.76 6.36.1 12.238 3.215 17.8 6.305 17.641 9.8 35.305 20.4 48.58 35.6a96.332 96.332 0 0 1 19.428 34.86v197.087l39.308-39.555V362.87l-2.37-17.43c-3.797-15.775-11.814-30.514-22.993-42.275-18.774-19.75-45.31-30.396-65.266-48.951-14.107-13.118-24.719-30.371-28.185-49.32-2.173-11.88-1.527-24.188 1.113-35.973 5.374-23.986 18.275-48.321 37.232-64.228 16.44-13.795 39.006-21.6 60.46-22.126 16.505-.405 33.419 5.77 47.292 14.72 15.172 9.789 25.05 21.771 35.985 40.484 8.642 14.789 13.356 31.826 13.72 48.95.273 12.803-1.885 25.736-7.044 37.456-4.096 9.304-10.145 17.865-18.172 24.103-9.061 7.043-20.778 10.938-32.17 9.55-4.177-.51-8.288-1.717-11.977-3.743-3.688-2.026-6.944-4.885-9.254-8.402-2.373-3.615-3.715-7.915-3.716-12.239-.001-4.324 1.352-8.654 3.902-12.146 2.064-2.827 4.874-5.103 6.582-8.158 1.354-2.423 1.938-5.233 1.904-8.008-.03-2.4-.525-4.77-1.273-7.055 2.525 2.537 5.073 5.045 8.008 7.08 3.875 2.688 8.47 4.51 13.185 4.48 3.448-.02 6.843-1.028 9.928-2.568 3.085-1.539 5.883-3.599 8.525-5.814a85.448 85.448 0 0 0 10.108-10.035 87.536 87.536 0 0 0 7.738-10.588c-2.65.324-5.452.634-8.393.926a380.52 380.52 0 0 1-10.162.875c-5.562.403-11.93.72-18.55.732-.442 0-.885 0-1.329-.002-4.18-.02-8.269-.165-11.927-.389-4.614-.282-8.532-.683-12.81-1.023-6.501-.517-20.491-1.12-20.491-1.12s-.245-.116 0 0c.001.022 1.425 12.303 2.047 18.464.379 3.753.936 7.498 1.025 11.27.068 2.862-.236 5.721-.373 8.582-.263 5.49-1.508 11.009-.862 16.467.738 6.231 2.088 12.686 5.347 18.047 2.132 3.507 5.549 6.128 8.87 8.538a51.62 51.62 0 0 0 12.458 6.625c-7.934 1.804-13.585-.591-18.901-4.259-5.43-3.746-8.84-10.244-10.922-16.504-2.509-7.548-1.558-15.872-1.365-23.825.111-4.581 1.002-9.111 1.451-13.672.37-3.754.834-7.502 1.026-11.27.312-6.146.199-18.462.199-18.462s.821-.134 0 0c.655-.318 0 0 0 0s-13.99.602-20.49 1.119c-4.28.34-8.197.741-12.81 1.023a213.982 213.982 0 0 1-13.257.391c-6.62-.011-12.988-.33-18.55-.732a380.56 380.56 0 0 1-10.163-.875c-2.94-.292-5.742-.602-8.392-.926a87.531 87.531 0 0 0 7.738 10.588 85.445 85.445 0 0 0 10.108 10.035c2.642 2.215 5.44 4.275 8.525 5.814 3.085 1.54 6.48 2.547 9.928 2.569 4.715.029 9.31-1.793 13.185-4.48 3.744-2.597 6.862-5.953 10.102-9.17-3.887 6.51-5.019 14.376-4.805 21.974.626 22.234 12.476 43.744 30.594 56.646 10.96 7.805 24.05 12.565 37.455 13.721 9.67.834 19.808-.284 28.184-5.191 6.224-3.647 11.238-9.32 14.091-15.946 1.115 6.255 4.622 12.053 9.643 15.946 4.201 3.257 9.529 5.188 14.832 4.82 6.24-.434 12.153-4.182 15.205-9.64a33.469 33.469 0 0 1-13.72-11.126c-1.753-2.45-3.19-5.193-3.71-8.16-.661-3.77.198-7.674 1.711-11.19 1.513-3.515 3.66-6.713 5.707-9.947 8.785-13.868 16.078-29.01 18.541-45.242a81.93 81.93 0 0 0-1.113-30.408 81.612 81.612 0 0 0-7.045-19.283c5.664.411 11.458-1.342 15.945-4.822 3.264-2.531 5.83-5.94 7.42-9.75 1.591-3.811 2.21-8.015 1.852-12.13-.681-7.813-5.02-15.23-11.496-19.654-.74 3.971-3.044 7.628-6.305 10.012-3.072 2.246-6.959 3.348-10.754 3.06-4.697-.355-9.042-2.748-12.629-5.802-3.586-3.054-6.537-6.77-9.623-10.33-8.17-9.424-17.505-17.933-28.181-24.381-10.648-6.43-22.485-10.727-34.58-13.629a166.617 166.617 0 0 0-19.192-3.43 22.041 22.041 0 0 0 3.338-14.091c-.472-4.47-2.35-8.757-5.191-12.239-5.235-6.416-13.6-9.9-21.881-10.013zM90.38 180.633c2.651-.324 5.453-.634 8.393-.926a380.6 380.6 0 0 1 10.163-.875c5.933-.43 12.783-.763 19.878-.73 4.181.019 8.27.164 11.928.388 4.614.283 8.532.683 12.81 1.024 6.501.517 20.491 1.119 20.491 1.119s-15.256-7.156-21.438-12.819c-4.257-3.9-7.995-8.416-12.74-11.707-3.875-2.687-8.47-4.509-13.185-4.48-3.448.021-6.843 1.027-9.928 2.566-3.085 1.54-5.883 3.602-8.525 5.817a85.443 85.443 0 0 0-10.108 10.035 87.533 87.533 0 0 0-7.738 10.588zm83.663 0s-.602-13.99-1.12-20.49c-.34-4.28-.74-8.197-1.023-12.811a214.02 214.02 0 0 1-.39-13.256c.011-6.62.33-12.988.732-18.55.26-3.598.558-6.965.875-10.163.292-2.94.602-5.742.926-8.392a87.53 87.53 0 0 0-10.588 7.738 85.448 85.448 0 0 0-10.035 10.107c-2.215 2.643-4.275 5.44-5.815 8.526-1.539 3.085-2.547 6.48-2.568 9.928-.03 4.715 1.793 9.31 4.48 13.185 3.292 4.745 7.807 8.482 11.708 12.74 5.662 6.181 12.818 21.438 12.818 21.438zm0 0s7.155-15.257 12.818-21.438c3.901-4.258 8.416-7.995 11.707-12.74 2.688-3.875 4.51-8.47 4.48-13.185-.022-3.449-1.026-6.843-2.566-9.928-1.539-3.086-3.6-5.883-5.816-8.526a85.447 85.447 0 0 0-10.035-10.107 87.53 87.53 0 0 0-10.588-7.738c.324 2.65.634 5.452.926 8.392.317 3.198.614 6.565.875 10.162.43 5.934.763 12.784.73 19.88a213.77 213.77 0 0 1-.388 11.927c-.283 4.614-.684 8.532-1.024 12.81-.517 6.5-1.119 20.49-1.119 20.49zm0 0s13.99-.602 20.49-1.12c4.28-.34 8.197-.74 12.81-1.023 3.66-.224 7.748-.37 11.928-.388 7.096-.033 13.946.3 19.88.73 3.597.26 6.964.557 10.161.875 2.941.292 5.743.602 8.393.926a87.537 87.537 0 0 0-7.738-10.588 85.447 85.447 0 0 0-10.108-10.035c-2.642-2.215-5.44-4.277-8.525-5.817-3.085-1.539-6.48-2.545-9.928-2.566-4.715-.03-9.31 1.793-13.185 4.48-4.745 3.291-8.483 7.807-12.74 11.707-6.182 5.663-21.438 12.819-21.438 12.819z" transform="matrix(.26458 0 0 .26458 -27.854 20.129)"/><ellipse style="opacity:1;fill:gold;fill-opacity:1;fill-rule:evenodd;stroke:#000;stroke-width:2.11666667;stroke-linecap:round;stroke-linejoin:round;stroke-miterlimit:4;stroke-dasharray:none;stroke-opacity:1;paint-order:stroke fill markers" cx="18.392" cy="138.059" rx="12.755" ry="11.831"/><rect style="opacity:1;fill:gold;fill-opacity:1;fill-rule:evenodd;stroke:#000;stroke-width:2.11666667;stroke-linecap:round;stroke-linejoin:round;stroke-miterlimit:4;stroke-dasharray:none;stroke-opacity:1;paint-order:stroke fill markers" width="30.111" height="4.844" x="3.337" y="135.637" ry="1.409"/><path style="fill:none;stroke:#000;stroke-width:2.11666667;stroke-linecap:butt;stroke-linejoin:miter;stroke-opacity:1;stroke-miterlimit:4;stroke-dasharray:none" d="m8.993 172.509 23.298-23.443"/><path style="fill:#000;stroke:red;stroke-width:.99999994px;stroke-linecap:butt;stroke-linejoin:miter;stroke-opacity:1" d="M397.58 24.982a15.594 15.594 0 0 0-3.598.313 15.675 15.675 0 0 0-8.841 5.346 3.657 3.657 0 0 1 2.34-.86c.848 0 1.692.311 2.34.86.824.698 1.3 1.74 1.493 2.802.195 1.063.132 2.155.034 3.23a50.423 50.423 0 0 1-1.936 9.954 42.24 42.24 0 0 0-12.553-3.746c-1.76-.237-3.574-.359-5.295.084-.86.221-1.689.585-2.402 1.115-.713.53-1.308 1.23-1.666 2.043-.265.601-.395 1.25-.566 1.885-.172.634-.392 1.271-.801 1.785-.584.733-1.496 1.137-2.408 1.352-.913.214-1.856.266-2.776.447-3.157.62-5.955 2.843-7.275 5.777-1.32 2.934-1.127 6.504.504 9.278a38.994 38.994 0 0 1 4.61-1.297c1.279-.277 2.582-.488 3.89-.45 1.308.039 2.628.338 3.742 1.026 1.594.984 2.621 2.651 3.96 3.96 2.491 2.435 5.967 3.547 9.362 4.321 1.194.272 2.396.513 3.602.72a5.684 5.684 0 0 1-1.455 2.507 5.684 5.684 0 0 1-2.506 1.455c-1.263.345-2.614.24-3.883-.08-1.269-.32-2.473-.85-3.678-1.362-3.673-1.558-7.534-2.992-11.523-2.88-1.087.03-2.168.177-3.24.36-3.145.541-6.348 1.48-8.737 3.596-2.493 2.21-3.837 5.53-4.08 8.854-.243 3.323.534 6.654 1.746 9.758a35.559 35.559 0 0 0 4.95 8.758 5.079 5.079 0 0 0 2.521-2.881c.304-.894.35-1.857.645-2.754.147-.448.358-.882.671-1.235.314-.352.737-.618 1.204-.69.466-.074.946.049 1.367.263.42.214.791.514 1.154.816 2.056 1.71 4.044 3.579 6.48 4.68a12.155 12.155 0 0 0 9.003.361 7.921 7.921 0 0 1-3.24 2.88c-1.547.742-3.288.96-4.997 1.099-1.71.139-3.442.213-5.086.7-1.678.498-3.22 1.422-4.502 2.614-1.281 1.192-2.306 2.65-3.06 4.229a15.785 15.785 0 0 0-1.44 5.04 8.165 8.165 0 0 1 4.33-1.04 8.168 8.168 0 0 1 4.229 1.4c2.13 1.45 3.441 3.813 4.504 6.16.609 1.345 1.166 2.72 1.924 3.987.758 1.266 1.738 2.436 3.015 3.175 1.441.834 3.167 1.067 4.828.957 1.662-.11 3.283-.54 4.895-.957 2.578-.665 5.19-1.308 7.56-2.52 2.22-1.133 4.184-2.752 5.762-4.68.554-.678 1.064-1.396 1.694-2.005.629-.608 1.401-1.11 2.267-1.236a3.215 3.215 0 0 1 1.82.283 3.682 3.682 0 0 1 1.41 1.192c.726 1.012.937 2.338.731 3.566-.176 1.047-.638 2.038-1.273 2.889-.636.85-1.443 1.565-2.329 2.152-2.645 1.755-5.906 2.349-8.64 3.96a13.238 13.238 0 0 0-4.701 4.733 13.243 13.243 0 0 0-1.782 6.43 13.182 13.182 0 0 1 4.682-1.8c.685-.122 1.387-.19 2.076-.098.69.09 1.37.35 1.885.816.537.486.87 1.186.93 1.908.059.722-.153 1.46-.57 2.053-.408.578-.998 1.013-1.643 1.303-.646.29-1.346.44-2.049.523-1.406.164-2.84.06-4.229.334-2.42.477-4.572 2.16-5.619 4.395-1.047 2.233-.964 4.963.217 7.128a20.834 20.834 0 0 1 5.402-2.16c1.277-.312 2.619-.504 3.9-.215.642.145 1.26.411 1.78.813.52.402.94.943 1.16 1.562.329.924.194 1.973-.236 2.854-.43.88-1.135 1.605-1.924 2.187-1.278.944-2.777 1.536-4.27 2.082-1.491.547-3.007 1.061-4.37 1.877-3.026 1.812-5.1 5.13-5.403 8.643a23.596 23.596 0 0 1 9.363.36c2.805.683 5.467 1.88 8.282 2.52 3.343.763 6.957.698 10.08-.72 1.822-.827 3.413-2.076 5.058-3.215 1.646-1.138 3.415-2.195 5.385-2.547 1.479-.264 3.041-.107 4.408.516 1.368.623 15.204-2.643 15.204-2.643l18.195 8.61s12.258-5.208 17.65-9.067c5.392-3.858 11.583-8.593 12.594-15.058.609-3.896-1.702-8.137-4.457-10.957-6.29-6.44-17.067-6.103-24.772-10.758-4.518-2.73-8.982-5.853-12.341-9.926-2.845-3.449-3.963-8.026-6.264-11.86-1.875-3.122-5.1-5.552-6.129-9.046-.973-3.302.289-6.883.229-10.324-.043-2.442.055-4.919-.418-7.315-.47-2.376-1.12-4.796-2.377-6.867-1.63-2.685-4.512-4.386-6.48-6.842-1.663-2.073-2.726-4.594-3.243-7.2-.332-1.671-.446-3.398-.186-5.08.26-1.684.908-3.324 1.987-4.642.919-1.122 2.116-1.977 3.285-2.835 1.17-.859 2.343-1.753 3.195-2.926.773-1.064 1.252-2.329 1.442-3.63.19-1.3.095-2.636-.213-3.913-.617-2.555-2.065-4.84-3.748-6.86-1.36-1.631-2.882-3.117-4.32-4.68-3.357-3.646-6.392-7.822-10.803-10.081a15.666 15.666 0 0 0-6.643-1.698zm213.037 2.823c-3.298-.066-6.61.433-9.783 1.353-11.2 3.25-20.48 11.725-26.055 21.969-7.128 13.1-8.466 29.024-4.597 43.428 2.545 9.476 7.191 18.253 10.216 27.588 4.996 15.415 4.494 32.008 6.643 48.025 2.487 18.535 2.79 37.47 7.234 55.635 2.164 8.84 6.541 16.994 9.38 25.642 3.182 9.7 13.885 20.69 8.568 29.405-1.716 2.811-6.44 2.34-9.702 1.88-3.463-.487-6.638-2.553-9.35-4.761-2.536-2.066-4.87-4.597-6.13-7.664-2.798 5.435-3.283 12.014-1.31 17.8 1.506 4.42 4.373 8.32 7.95 11.32 3.95 3.313 8.758 5.557 13.796 6.643a34.721 34.721 0 0 0 15.377-.181 40.202 40.202 0 0 1 1.44 8.279c.176 2.588.1 5.21-.468 7.74-.041.184-.1.364-.146.547-5.071-3.045-10.794-4.899-16.522-6.437-6.261-1.682-12.634-3.056-18.648-5.479-12.494-5.034-22.916-14.468-30.543-25.57-3.245-4.724-6.083-9.935-6.748-15.627-.668-5.713.915-11.48 3.265-16.73s5.463-10.121 8.1-15.233c3.941-7.64 6.81-15.805 8.879-24.148 1.929-7.778 3.17-15.905 1.775-23.795-1.09-6.17-3.796-12.032-7.7-16.932-3.906-4.9-8.993-8.835-14.673-11.48-10.001-4.659-21.852-5.19-32.23-1.446-10.378 3.744-19.16 11.72-23.883 21.69l-4.83 8.043a21.218 21.218 0 0 0-3.82-.663c-3.488-.29-6.992.162-10.452.692a227.887 227.887 0 0 0-15.488 2.926 43.267 43.267 0 0 0-7.398 7.054c-2.28 2.76-4.21 5.79-6.334 8.67-2.125 2.88-4.487 5.647-7.434 7.678-3.75 2.584-8.252 3.845-12.734 4.646-6.774 1.212-13.913 1.537-19.961 4.819-3.562 1.933-6.524 4.783-9.465 7.572-1.746 1.656-3.576 3.349-5.852 4.131-2.19.753-4.623.58-6.826-.137-2.202-.717-4.202-1.95-6.08-3.306-1.758-1.27-3.429-2.655-5.162-3.957-1.303-.98-2.668-1.927-4.22-2.424-.777-.249-1.597-.38-2.41-.336-.815.044-1.624.27-2.32.695-.684.42-1.236 1.018-1.814 1.576-.577.559-1.208 1.097-1.97 1.35-.55.182-1.14.205-1.717.17-.577-.035-1.148-.126-1.725-.17-1.538-.117-3.112.118-4.515.758-1.403.64-2.627 1.693-3.4 3.027-1.039 1.79-1.215 3.962-1.034 6.024a18.572 18.572 0 0 0 2.064 7.054 17.805 17.805 0 0 0 4.131 5.162c.62-.854 1.141-1.778 1.55-2.752.196-.469.367-.95.6-1.402.234-.452.537-.88.948-1.18a2.16 2.16 0 0 1 .822-.37c.297-.063.608-.057.899.027.456.131.84.442 1.16.793.32.35.589.744.904 1.1.795.894 1.865 1.519 3.002 1.892 1.137.373 2.34.503 3.537.515a18.312 18.312 0 0 0 6.711-1.203 13.487 13.487 0 0 1-6.365 4.301c-2.594.812-5.414.833-7.916 1.895-2.03.86-3.79 2.442-4.647 4.472-.22.522-.384 1.073-.689 1.55-.288.45-.694.816-1.143 1.106-.448.29-.94.508-1.44.7-.997.383-2.047.678-2.923 1.29-1.127.789-1.866 2.061-2.148 3.407-.282 1.346-.132 2.759.275 4.072.815 2.627 2.59 4.824 4.086 7.131.47.724.914 1.464 1.45 2.14 1.776 2.247 4.547 3.677 7.407 3.823a5.48 5.48 0 0 1-1.27-2.996 5.489 5.489 0 0 1 .669-3.188c.248-.444.56-.856.947-1.187.387-.331.85-.58 1.348-.688a3.154 3.154 0 0 1 1.52.069c.492.14.954.377 1.376.668.68.468 1.26 1.066 1.877 1.615.617.549 1.293 1.061 2.08 1.31.808.256 1.687.219 2.506.003.819-.217 1.584-.603 2.313-1.034a19.437 19.437 0 0 0 6.539-6.367 26.233 26.233 0 0 1 0 4.647c-.25 2.814-.955 5.64-.516 8.431.33 2.098 1.291 4.046 2.408 5.852 1.292 2.087 2.834 4.062 4.819 5.506 1.03.75 2.177 1.353 3.097 2.236a6.835 6.835 0 0 1 1.825 3.016c.33 1.141.354 2.37.068 3.523a11.635 11.635 0 0 0 7.057-2.58c1.41-1.147 2.57-2.691 2.925-4.475.237-1.19.107-2.418.026-3.628-.082-1.211-.108-2.462.318-3.598.375-.999 1.076-1.841 1.834-2.592.758-.75 1.586-1.431 2.297-2.226.588-.659 1.094-1.4 1.418-2.221.324-.822.459-1.73.303-2.6-.206-1.145-.889-2.14-1.553-3.096-.664-.955-1.343-1.95-1.545-3.097-.129-.73-.054-1.485.123-2.205.178-.72.455-1.412.736-2.098.591-1.442 1.24-2.93 2.414-3.953.588-.512 1.303-.892 2.073-1.012s1.593.034 2.224.49c.37.268.666.63.889 1.028.223.398.374.833.486 1.275.225.885.296 1.803.52 2.688.557 2.196 2.016 4.031 3.096 6.023a18.668 18.668 0 0 1 2.238 9.293 24.715 24.715 0 0 0 5.71-2.078c1.348-.688 2.645-1.51 3.702-2.592s1.866-2.444 2.117-3.935c.24-1.428-.035-2.883-.232-4.317-.198-1.434-.31-2.944.232-4.287.296-.732.772-1.374 1.254-2 .482-.625.98-1.248 1.328-1.957.572-1.162.708-2.512.514-3.793-.194-1.28-.707-2.497-1.375-3.607-1.406-2.336-3.498-4.239-4.647-6.711-.486-1.048-.793-2.23-.554-3.362.119-.565.376-1.107.771-1.529.395-.422.93-.718 1.504-.789.45-.056.911.027 1.332.195.42.168.805.42 1.156.705.704.572 1.285 1.28 1.987 1.854a6.932 6.932 0 0 0 5.468 1.447 6.926 6.926 0 0 0 4.684-3.168 16.556 16.556 0 0 1-2.236 5.852 16.564 16.564 0 0 1-4.819 4.99 9.66 9.66 0 0 0 3.27 6.022 9.383 9.383 0 0 0 3.98 2.011c1.463.334 3.01.3 4.451-.117 2.546-.735 4.707-2.7 5.68-5.164a4.921 4.921 0 0 1 2.408 2.41 4.9 4.9 0 0 1 .399 2.662 4.908 4.908 0 0 1-1.078 2.47 6.67 6.67 0 0 0 3.373-1.882c.025 1.084.062 2.166.119 3.248.546 10.328 2.62 20.82 8.035 29.631 4.339 7.06 10.654 12.75 17.586 17.291 6.932 4.541 14.505 8.003 22.092 11.338 6.155 2.706 12.34 5.35 18.459 8.137-.17.905-.364 1.809-.725 2.654-.402.94-1.016 1.816-1.875 2.371-.993.642-2.237.807-3.412.674-1.175-.133-2.299-.542-3.4-.97-4.614-1.799-9.043-4.035-13.621-5.923-4.68-1.929-9.502-3.488-14.215-5.33-5.516-2.155-10.886-4.7-15.992-7.699-4.283-2.515-8.488-5.395-13.327-6.516a18.94 18.94 0 0 0-4.826-.478c-3.094.09-6.16.934-8.795 2.55-1.5.92-2.847 2.07-4.146 3.258-2.178 1.992-4.299 4.148-6.979 5.383-2.172 1.001-4.58 1.335-6.94 1.725-3.22.531-6.504 1.188-9.72.63-4.06-.703-7.716-3.445-9.53-7.146a18.668 18.668 0 0 0 1.483 10.662c1.043 2.258 2.55 4.307 4.442 5.922a16.347 16.347 0 0 0 9.476 3.85 13.04 13.04 0 0 1-5.627 5.035c-2.385 1.105-5.085 1.46-7.699 1.183a16.82 16.82 0 0 1-5.33-1.48 60.306 60.306 0 0 0 2.37 6.516c.992 2.308 2.139 4.57 3.677 6.558 1.538 1.988 3.488 3.702 5.797 4.696 3.225 1.387 6.86 1.285 10.365 1.48 1.884.105 3.763.302 5.627.592.202 2.396.6 4.775 1.185 7.107.964 3.836 2.442 7.546 4.442 10.957 2.182 3.721 5.077 7.154 8.885 9.18.803.428 1.646.794 2.375 1.34.364.273.699.59.96.963.262.372.451.8.514 1.252.104.738-.132 1.484-.455 2.156-.323.672-.738 1.3-1.027 1.988-.624 1.483-.637 3.152-1.117 4.688-.24.767-.607 1.512-1.172 2.084a3.27 3.27 0 0 1-.98.69c-.368.164-.77.251-1.173.237a2.766 2.766 0 0 1-1.209-.341c-.371-.201-.7-.475-.986-.786-.573-.62-.97-1.378-1.357-2.128-1.323-2.563-2.625-5.168-4.444-7.405-1.781-2.19-4.03-3.984-6.513-5.33-1.036-.561-2.14-1.054-3.315-1.152a4.354 4.354 0 0 0-1.744.191 3.286 3.286 0 0 0-1.457.961c-.545.64-.784 1.475-1.104 2.252-.16.389-.345.77-.597 1.106-.252.335-.578.626-.965.789-.385.161-.817.19-1.23.132-.414-.057-.813-.198-1.196-.367-.765-.336-1.492-.79-2.312-.95-.686-.136-1.402-.054-2.065.165-.663.22-1.275.574-1.84.984-1.129.822-2.077 1.87-3.2 2.7-.86.634-1.813 1.135-2.667 1.777a9.984 9.984 0 0 0-3.578 5.225 9.983 9.983 0 0 0 .32 6.324h4.442c1.038 0 2.076-.03 3.113-.08s2.084-.102 3.106.08c1.948.346 3.65 1.547 5.035 2.96.81.829 1.546 1.758 1.978 2.833.432 1.075.535 2.315.094 3.387-.322.782-.905 1.426-1.512 2.015-.606.59-1.25 1.15-1.744 1.836-.66.918-1.017 2.022-1.205 3.137-.188 1.114-.218 2.248-.277 3.377-.183 3.46-.66 6.963 0 10.365.989 5.094 4.673 9.584 9.476 11.549.769-1.86.979-3.947.594-5.922-.107-.547-.258-1.087-.307-1.643-.048-.555.015-1.14.307-1.615.278-.452.749-.77 1.26-.912.511-.142 1.06-.119 1.574.01 1.03.257 1.906.909 2.791 1.494.837.553 1.72 1.064 2.686 1.332.966.269 2.033.28 2.941-.146a3.367 3.367 0 0 0 1.777-2.074c.417 1.639.518 3.358.297 5.035-.17 1.295-.532 2.56-.707 3.855-.175 1.295-.151 2.664.41 3.844.575 1.209 1.648 2.092 2.666 2.96 2.08 1.773 4.088 3.667 5.625 5.925a18.908 18.908 0 0 1 3.258 10.66c3.56.093 7.13-1.47 9.477-4.147 1.871-2.134 2.933-4.835 4.146-7.402.627-1.326 1.303-2.63 1.822-4.002.52-1.371.879-2.825.842-4.291-.052-2.083-.894-4.057-1.256-6.11-.18-1.025-.237-2.087-.015-3.105.222-1.018.744-1.992 1.568-2.629.615-.475 1.368-.743 2.13-.898.76-.156 1.539-.206 2.312-.287 1.087-.115 2.204-.29 3.257 0 1.026.282 1.899.993 2.524 1.853s1.022 1.866 1.326 2.885a18.773 18.773 0 0 1 0 10.66 14.183 14.183 0 0 0 6.961-3.152 14.185 14.185 0 0 0 4.293-6.322c1.137-3.409.933-7.126.297-10.663a45.894 45.894 0 0 0-3.852-11.845 14 14 0 0 0 4.444-5.627c.77-1.785 1.159-3.708 1.48-5.625.525-3.134.882-6.354.297-9.477-.492-2.625-1.635-5.087-2.963-7.404-2.301-4.016-5.175-7.67-7.7-11.549-3.312-5.092-6.079-10.807-6.218-16.88-.043-1.88.168-3.751.297-5.626.082-1.185.133-2.39.496-3.521.181-.566.442-1.11.803-1.582.36-.472.824-.87 1.365-1.116a3.468 3.468 0 0 1 1.637-.292 4.252 4.252 0 0 1 1.61.437c1.004.492 1.811 1.327 2.439 2.254 1.254 1.854 1.86 4.099 3.199 5.893.97 1.297 2.274 2.295 3.498 3.357 1.223 1.062 2.411 2.248 3.017 3.75.674 1.668.56 3.531.592 5.33.03 1.68.199 3.367 0 5.035-.419 3.522-2.565 6.797-5.627 8.588 1.529 1.952 4.04 3.093 6.516 2.961 1.962-.105 3.802-.944 5.72-1.371.96-.214 1.954-.325 2.926-.184.973.141 1.925.55 2.606 1.258.656.683 1.028 1.61 1.137 2.55.109.942-.031 1.898-.29 2.81-.516 1.822-1.502 3.483-2.03 5.302-.946 3.252-.371 6.781-1.186 10.069-.91 3.664-3.626 6.832-7.108 8.29a11.255 11.255 0 0 0 5.069 4.567 11.25 11.25 0 0 0 6.777.764c1.92-.385 3.712-1.271 5.332-2.37 4.721-3.199 8.098-8.318 9.18-13.917a20.096 20.096 0 0 1 4.738 7.404c.856 2.36 1.263 4.919.889 7.402-.558 3.705-2.93 7.093-6.22 8.885a26.762 26.762 0 0 0 15.4-3.258c1.683-.94 3.272-2.07 4.617-3.451 1.344-1.382 2.442-3.021 3.082-4.84.807-2.294.862-4.801.494-7.205-.369-2.403-1.146-4.724-1.975-7.01-1.419-3.913-3-7.766-4.738-11.549a8.217 8.217 0 0 1 5.627 0 8.235 8.235 0 0 1 4.62 4.329c.881 1.98.925 4.32.118 6.332 3.209.03 6.39-1.561 8.291-4.147 1.431-1.947 2.134-4.394 2.074-6.81-.034-1.387-.306-2.794 0-4.147.326-1.44 1.295-2.678 2.489-3.547 1.193-.869 2.6-1.4 4.025-1.783 2.132-.574 4.334-.85 6.486-1.342a72.14 72.14 0 0 1 .446 5.936c.369 10.84-1.66 22.023-7.534 31.14-6.068 9.418-15.645 15.88-24.609 22.6-6.127 4.593-12.274 9.662-15.57 16.574-2.367 4.964-3.094 10.574-3.014 16.073.019 1.281.08 2.565-.021 3.843-.103 1.278-.375 2.563-.983 3.692a6.74 6.74 0 0 1-2.305 2.478 6.737 6.737 0 0 1-3.22 1.037 12.64 12.64 0 0 0 5.525 4.52 12.68 12.68 0 0 0 8.715.373 12.685 12.685 0 0 0 6.855-5.397c.931 2.396.931 5.14 0 7.536a10.51 10.51 0 0 1-5.023 5.523 23.22 23.22 0 0 0 10.547 0c4.11-.963 8.022-3.147 10.547-6.53 1.01-1.352 1.782-2.863 2.676-4.294.893-1.432 1.94-2.814 3.351-3.74 1.853-1.218 4.285-1.53 6.367-.768 1.236.452 2.325 1.253 3.25 2.19.925.936 1.698 2.008 2.438 3.097 3.036 4.469 5.57 9.257 8.035 14.065 1.99 3.882 3.953 7.823 5.023 12.052.559 2.206.867 4.53.391 6.754-.238 1.113-.675 2.19-1.332 3.12-.658.928-1.541 1.704-2.574 2.18-1.552.717-3.321.72-5.018.927-.848.103-1.697.262-2.488.584-.792.322-1.528.817-2.037 1.504-.479.645-.736 1.422-1.043 2.164-.308.741-.697 1.487-1.35 1.955-.386.276-.848.44-1.32.494-.472.053-.952 0-1.408-.133-.912-.265-1.708-.83-2.412-1.467-1.287-1.162-2.32-2.573-3.465-3.875-1.145-1.301-2.455-2.53-4.07-3.158-1.696-.66-3.597-.6-5.374-.21-1.776.389-3.465 1.094-5.173 1.718-2.199.803-4.445 1.477-6.606 2.375-2.161.898-4.256 2.039-5.951 3.652-2.602 2.477-4.114 5.974-4.52 9.543a18.602 18.602 0 0 0 1.455 9.557 18.61 18.61 0 0 0 6.079 7.52 4.204 4.204 0 0 1-.885-3.737 4.206 4.206 0 0 1 2.57-2.853c1.066-.394 2.27-.328 3.338.06 1.495.543 2.705 1.666 3.77 2.848s2.04 2.459 3.277 3.459a9.985 9.985 0 0 0 5.088 2.138 9.985 9.985 0 0 0 5.443-.912 14.657 14.657 0 0 0-3.516 6.53c-1.098 4.553.095 9.474 2.614 13.423 3.488 5.47 9.534 9.231 15.982 9.944a6.734 6.734 0 0 1 0-4.617c.519-1.406 1.501-2.603 2.643-3.573 1.141-.97 2.444-1.73 3.75-2.464 1.347-.759 2.714-1.502 3.906-2.487a12.107 12.107 0 0 0 4.262-7.812 16.895 16.895 0 0 0 3.195 8.523c1.164 1.586 2.613 2.977 3.535 4.715.461.869.785 1.826.826 2.809.042.982-.212 1.993-.808 2.775a3.668 3.668 0 0 1-2.842 1.422 8.291 8.291 0 0 0 5.906 3.592c1.598.176 3.222-.126 4.73-.68 1.51-.554 2.915-1.354 4.28-2.203 1.89-1.175 3.727-2.457 5.303-4.028 1.575-1.57 2.887-3.445 3.576-5.56.655-2.012.728-4.18.46-6.28-.266-2.098-.864-4.14-1.526-6.15-1.084-3.289-2.385-6.585-4.616-9.234-.892-1.06-1.921-2-2.802-3.068-.882-1.07-1.627-2.308-1.815-3.68-.146-1.066.074-2.204.727-3.059a3.213 3.213 0 0 1 1.248-.994 2.806 2.806 0 0 1 1.576-.209c.633.105 1.203.435 1.764.748.56.313 1.147.621 1.787.672.484.039.973-.073 1.422-.26.448-.186.861-.445 1.27-.709.407-.264.812-.535 1.247-.752.435-.217.904-.38 1.389-.41.633-.038 1.269.156 1.812.485.544.328.998.788 1.383 1.293a7.356 7.356 0 0 1 1.447 5.183 7.356 7.356 0 0 1-2.511 4.76c2.27.193 4.59-.239 6.64-1.233a12.816 12.816 0 0 0 5.078-4.449c2.239-3.392 2.73-7.664 2.487-11.72-.232-3.845-1.107-7.743-3.237-10.952-2.304-3.471-5.89-5.877-9.548-7.87-1.406-.767-2.848-1.494-4.094-2.499-1.247-1.005-2.303-2.332-2.654-3.894-.267-1.183-.109-2.446.376-3.557.486-1.111 1.29-2.073 2.256-2.805 1.933-1.464 4.44-1.988 6.866-1.972 3.003.02 6 .818 8.615 2.297a18.635 18.635 0 0 1-1.29-9.086c.213-1.937.729-3.826 1.007-5.754.277-1.928.305-3.953-.428-5.758-.723-1.78-2.129-3.204-3.674-4.346s-3.251-2.047-4.85-3.113c-3.104-2.071-5.765-4.726-8.517-7.246-2.753-2.52-5.666-4.952-9.082-6.455-1.939-.853-4.003-1.39-5.965-2.188-1.962-.797-3.876-1.904-5.12-3.619-1.144-1.578-1.632-3.583-1.523-5.53.11-1.946.793-3.834 1.797-5.505 1.356-2.255 3.325-4.156 5.682-5.326 1.278-.635 2.675-1.056 4.101-1.1 1.427-.044 2.882.305 4.067 1.1 1.068.717 1.885 1.77 2.435 2.933.55 1.163.846 2.434 1.004 3.711.317 2.554.1 5.155.467 7.701.43 2.978 1.665 5.815 3.418 8.26 1.753 2.445 4.016 4.503 6.527 6.16 4.792 3.162 10.628 4.874 16.336 4.262a21.888 21.888 0 0 0 10.3-3.906 16.837 16.837 0 0 0-7.458-7.813c-1.938-1.007-4.124-1.668-5.683-3.197a6.702 6.702 0 0 1-1.88-3.506 6.702 6.702 0 0 1 .46-3.95 5.122 5.122 0 0 0 3.55 1.452 5.127 5.127 0 0 0 3.553-1.453c1.126-1.107 1.67-2.676 1.98-4.225.31-1.548.423-3.137.86-4.654.603-2.095 1.8-3.96 2.947-5.814 1.148-1.854 2.281-3.772 2.737-5.905.545-2.555.076-5.202 0-7.814-.077-2.607.238-5.207.353-7.813.195-4.42-.199-8.887-1.42-13.14-1.1-3.83-2.85-7.438-4.617-11.01-3.488-7.05-7.127-14.22-8.168-22.018-.778-5.83-.062-11.744.668-17.58.73-5.835 1.473-11.743.752-17.58a34.869 34.869 0 0 0-2.611-9.523c2.527-1.225 4.902-2.697 6.67-4.846 2.643-3.214 3.57-7.621 3.064-11.752-.651-5.323-3.456-10.117-4.947-15.267-.746-2.576-1.163-5.29-.79-7.946.374-2.655 1.6-5.254 3.694-6.93 1.225-.98 2.685-1.609 4.12-2.245 1.433-.637 2.882-1.308 4.054-2.352 1.87-1.666 2.87-4.228 2.736-6.729-.134-2.5-1.367-4.9-3.248-6.554-1.928-1.696-4.415-2.588-6.848-3.41-2.432-.822-4.93-1.641-6.945-3.233-2.087-1.648-3.505-4.025-4.406-6.527-.901-2.502-1.324-5.148-1.725-7.777-.357-2.35-.703-4.719-.586-7.092.117-2.373.726-4.778 2.118-6.703 1.207-1.67 2.926-2.889 4.609-4.079 1.683-1.19 3.395-2.414 4.588-4.095.887-1.25 1.451-2.714 1.748-4.219.296-1.505.332-3.052.22-4.582-.222-3.06-1.022-6.046-1.456-9.082-.583-4.075-.499-8.27.51-12.262 1.613-6.387 5.502-12.013 7.152-18.39a27.683 27.683 0 0 0 0-13.795 4.718 4.718 0 0 1-3.291-.217 4.722 4.722 0 0 1-2.328-2.338c-.357-.794-.486-1.68-.44-2.549.047-.869.264-1.724.574-2.537.62-1.626 1.601-3.085 2.42-4.621 2.442-4.579 3.428-10.065 2.002-15.055-.742-2.595-2.092-4.966-3.28-7.39-1.186-2.425-2.235-4.999-2.298-7.698-.046-1.982.441-3.934.887-5.867.445-1.932.854-3.913.644-5.885-.187-1.76-.856-3.43-1.539-5.064-.682-1.634-1.389-3.28-1.656-5.031-.376-2.462.14-4.967.773-7.375.634-2.408 1.392-4.814 1.508-7.301.212-4.555-1.74-8.989-1.638-13.547.083-3.744 1.543-7.306 3.064-10.728a232.616 232.616 0 0 1 5.62-11.75 21.464 21.464 0 0 0-6.132 1.533c-4.084 1.693-7.539 4.6-10.728 7.662a106.358 106.358 0 0 0-7.664 8.176 4.895 4.895 0 0 1-2.553-3.576c-.223-1.51.284-3.043 1.027-4.375.744-1.333 1.72-2.52 2.55-3.801 2.657-4.109 3.722-9.213 2.966-14.047-.756-4.835-3.32-9.358-7.055-12.52-3.361-2.845-7.603-4.573-11.965-5.183a27.69 27.69 0 0 0-3.287-.258z" transform="matrix(.26458 0 0 .26458 -27.854 20.129)"/><path style="fill:#03f;fill-opacity:1;stroke:none;stroke-width:.99999994px;stroke-linecap:butt;stroke-linejoin:miter;stroke-opacity:1" d="M396.285 28.932a17.924 17.924 0 0 0-2.367.136 97.127 97.127 0 0 1 3.242 5.836c.57 1.116 1.12 2.245 1.8 3.297.681 1.052 1.502 2.032 2.524 2.756 1.04.736 2.301 1.193 3.575 1.158 1.273-.035 2.55-.593 3.343-1.59.496-.622.793-1.393.889-2.183a5.623 5.623 0 0 0-.24-2.356c-.417-1.33-1.254-2.507-2.29-3.441-1.035-.934-2.265-1.635-3.548-2.18a18.161 18.161 0 0 0-6.928-1.433zM367.35 53.17a5.075 5.075 0 0 0-.676.023c-.896.09-1.757.39-2.588.735-1.466.61-2.88 1.372-4.107 2.379a12.409 12.409 0 0 0-3.46 4.539c1.153-.083 2.306-.153 3.46-.215.926-.05 1.858-.094 2.78.008.923.101 1.843.354 2.624.855.863.554 1.514 1.381 2.328 2.004.407.311.86.572 1.357.7.497.127 1.04.113 1.502-.108.378-.18.688-.492.899-.854.21-.362.328-.773.377-1.19.097-.831-.071-1.668-.194-2.497-.159-1.077-.243-2.171-.558-3.213a5.65 5.65 0 0 0-.672-1.48 3.786 3.786 0 0 0-1.149-1.143c-.573-.356-1.245-.52-1.923-.543zm-11.924 26.203a5.037 5.037 0 0 0-1.95.356c-.825.324-1.564.85-2.177 1.49-1.226 1.28-1.93 2.98-2.346 4.703a17.83 17.83 0 0 0 1.297 11.89 5.638 5.638 0 0 1 .295-4.548 5.637 5.637 0 0 1 3.596-2.801c.753-.184 1.535-.208 2.306-.283.772-.075 1.556-.207 2.235-.582.96-.531 1.62-1.52 1.884-2.586.264-1.066.158-2.199-.156-3.25-.307-1.029-.819-2.007-1.556-2.787-.738-.78-1.708-1.354-2.766-1.537a4.512 4.512 0 0 0-.662-.065zm9.54 32.832a9.384 9.384 0 0 0-2.177.307 9.693 9.693 0 0 0-5.19 3.459 7.735 7.735 0 0 1 5.405 3.027c.822 1.1 1.334 2.397 2.062 3.56.365.582.787 1.133 1.307 1.58.52.448 1.145.79 1.82.913.735.134 1.506.003 2.18-.317.675-.32 1.254-.821 1.711-1.412.998-1.291 1.402-3.005 1.174-4.62-.228-1.617-1.065-3.125-2.254-4.243a8.37 8.37 0 0 0-3.852-2.035 8.92 8.92 0 0 0-2.185-.219zm-8.991 122.1a4.619 4.619 0 0 0-1.864.328 5.07 5.07 0 0 0-2.02 1.494c-.97 1.183-1.395 2.736-1.505 4.264a12.395 12.395 0 0 0 1.756 7.273 3.62 3.62 0 0 1 .172-2.113 3.621 3.621 0 0 1 1.334-1.649c.595-.4 1.293-.611 1.984-.8.691-.19 1.396-.367 2.027-.706a4.34 4.34 0 0 0 1.82-1.875 4.335 4.335 0 0 0 .4-2.582 4.336 4.336 0 0 0-1.169-2.337 4.329 4.329 0 0 0-2.935-1.297zm.695 32.209a4.564 4.564 0 0 0-3.324 1.213 4.937 4.937 0 0 0-1.248 1.91 6.102 6.102 0 0 0-.352 2.261c.041 1.535.594 3.017 1.348 4.354a15.053 15.053 0 0 0 3.01 3.762 4.937 4.937 0 0 1-.573-3.008 4.935 4.935 0 0 1 1.324-2.76c.582-.606 1.309-1.05 1.971-1.566.662-.517 1.287-1.143 1.541-1.944.133-.417.157-.868.082-1.3a3.127 3.127 0 0 0-.492-1.21c-.49-.726-1.261-1.24-2.098-1.503a4.681 4.681 0 0 0-1.19-.21zm65.295 3.28c-.774.018-1.542.233-2.162.69a3.363 3.363 0 0 0-1.073 1.348 3.65 3.65 0 0 0-.293 1.701c.077 1.159.704 2.252 1.616 2.97.857.677 1.939 1.037 2.76 1.757a4.063 4.063 0 0 1 1.351 2.658 4.062 4.062 0 0 1-.851 2.857 178.462 178.462 0 0 0 3.511-4.513c.423-.563.846-1.13 1.174-1.752.328-.623.561-1.307.582-2.01.028-.946-.335-1.878-.896-2.64-.562-.763-1.314-1.367-2.114-1.874-.867-.55-1.817-.998-2.834-1.144a4.682 4.682 0 0 0-.771-.047zm-31.21 18.927a5.99 5.99 0 0 0-1.671.304 4.201 4.201 0 0 0-1.467.856 3.23 3.23 0 0 0-.918 1.418c-.257.84-.113 1.77.281 2.555.395.784 1.023 1.434 1.725 1.96.965.724 2.08 1.238 3.01 2.006a7.057 7.057 0 0 1 2.508 4.764 18.484 18.484 0 0 0 3.01-5.016c.44-1.1.777-2.26.798-3.447.021-1.186-.296-2.405-1.049-3.322-.535-.653-1.268-1.127-2.052-1.44-.785-.312-1.624-.473-2.463-.568a10.632 10.632 0 0 0-1.711-.07zm28.403 113.422a3.676 3.676 0 0 0-.5.007c-.662.054-1.303.25-1.943.424-2.331.636-4.8 1.03-6.81 2.37a8.418 8.418 0 0 0-3.553 5.331 8.944 8.944 0 0 1 5.33 0c1.224.386 2.35 1.031 3.552 1.48.889.333 1.833.558 2.78.505.946-.054 1.9-.409 2.552-1.098.54-.57.84-1.328.99-2.098.152-.77.164-1.56.194-2.343.03-.752.076-1.511-.066-2.25-.071-.37-.19-.733-.373-1.06a2.476 2.476 0 0 0-.745-.837c-.41-.282-.907-.408-1.408-.431zm4.278 30.021a3.255 3.255 0 0 0-.5.027c-1.16.14-2.205.854-2.9 1.793-.696.94-1.07 2.085-1.247 3.24-.383 2.506.124 5.102 1.184 7.405a16.29 16.29 0 0 0 5.035 6.219 15.712 15.712 0 0 1 .888-9.477c.542-1.268 1.26-2.488 1.481-3.85.215-1.322-.086-2.745-.914-3.798a4.14 4.14 0 0 0-1.565-1.229 3.818 3.818 0 0 0-1.462-.328v-.002zm60.328 4.65a4.524 4.524 0 0 0-1.567.284 4.4 4.4 0 0 0-1.746 1.199 4.2 4.2 0 0 0-.955 1.887c-.258 1.205.043 2.471.549 3.595s1.211 2.145 1.82 3.217a21.059 21.059 0 0 1 2.666 8.588 28.683 28.683 0 0 0 3.258-5.627c.589-1.35 1.074-2.753 1.318-4.205.245-1.452.241-2.959-.134-4.383-.409-1.546-1.3-3.015-2.664-3.85a4.865 4.865 0 0 0-2.545-.705zm-31.399 20.887v.002c-.796.06-1.575.332-2.185.842-.701.585-1.14 1.454-1.274 2.357-.133.904.029 1.836.385 2.676.72 1.697 2.165 2.96 3.258 4.443a12.269 12.269 0 0 1 2.369 7.403 11.552 11.552 0 0 0 4.441-5.33c.878-2.152 1.074-4.62.297-6.81-.645-1.82-1.941-3.383-3.554-4.442-.886-.582-1.885-1.024-2.94-1.13a4.674 4.674 0 0 0-.797-.01zm176.158 86.694a3.853 3.853 0 0 0-2.033.726c-.787.57-1.354 1.423-1.636 2.354-.387 1.272-.251 2.66.171 3.921.423 1.261 1.118 2.411 1.858 3.516.53.792 1.088 1.57 1.508 2.426a8.622 8.622 0 0 1 .857 4.336 26.549 26.549 0 0 0 3.043-6.086c.455-1.307.81-2.659.914-4.04.104-1.38-.05-2.793-.576-4.073-.301-.733-.726-1.422-1.299-1.97-.573-.547-1.3-.948-2.082-1.073a3.447 3.447 0 0 0-.725-.037zm-86.46 1.642c-.24.011-.48.038-.715.084-1.1.214-2.103.815-2.897 1.606-.794.79-1.387 1.764-1.836 2.79a12.691 12.691 0 0 0-.676 8.114 6.545 6.545 0 0 1 3.72-2.705c1.012-.276 2.071-.302 3.114-.416 1.043-.115 2.11-.333 2.97-.936.983-.69 1.598-1.851 1.696-3.049.1-1.197-.297-2.414-1.02-3.375a5.37 5.37 0 0 0-2.247-1.744 5.05 5.05 0 0 0-2.11-.369zm25.265 34.342a7.853 7.853 0 0 0-.697.037c-.927.094-1.841.371-2.631.865a5.14 5.14 0 0 0-1.697 1.733 4.83 4.83 0 0 0-.67 2.326c-.03 1.3.494 2.575 1.3 3.596.807 1.02 1.88 1.804 3.022 2.427a15.223 15.223 0 0 0 5.482 1.752 6.122 6.122 0 0 1-1.027-3.38c0-1.196.363-2.388 1.028-3.381.255-.382.552-.733.808-1.114.257-.38.475-.8.543-1.254a2.323 2.323 0 0 0-.191-1.287 3.002 3.002 0 0 0-.8-1.039c-.67-.57-1.53-.868-2.39-1.055a9.448 9.448 0 0 0-2.08-.226zm40.832 1.842a3.553 3.553 0 0 0-1.52.254 3.738 3.738 0 0 0-2.072 2.187c-.324.914-.287 1.92-.142 2.879.145.96.392 1.903.48 2.87.253 2.772-.917 5.636-3.04 7.437 2.503.158 5.055-.864 6.759-2.705 1.383-1.495 2.185-3.44 2.705-5.409.336-1.27.567-2.598.363-3.896a5.017 5.017 0 0 0-.658-1.844 3.817 3.817 0 0 0-1.394-1.36 3.445 3.445 0 0 0-1.48-.413z" transform="matrix(.26458 0 0 .26458 -27.854 20.129)"/><path style="fill:gold;fill-opacity:1;stroke:none;stroke-width:1.00157475;stroke-linecap:round;stroke-linejoin:round;stroke-miterlimit:4;stroke-dasharray:none;stroke-opacity:1" d="M603.684 36.047c-.965.029-1.925.15-2.864.383-3.953.98-7.144 3.82-10.091 6.632-6.594 6.291-13.046 13.247-15.86 21.915-1.803 5.552-1.998 11.532-1.267 17.324.73 5.792 2.36 11.432 4.15 16.988 2.718 8.432 5.821 16.745 9.516 24.797 1.818 3.964 3.792 7.892 4.902 12.11 1.992 7.567 1.091 15.548.576 23.357-.773 11.716-.644 23.5.576 35.177 2.126 20.349 7.657 40.522 17.88 58.245 2.247 3.897 4.72 7.676 6.609 11.76 1.888 4.083 3.185 8.546 2.904 13.036-.168 2.68-.933 5.388-2.594 7.499-1.902 2.417-4.861 3.87-7.902 4.335-3.041.466-6.165.01-9.112-.876a31.957 31.957 0 0 1-11.244-6.055c1.883 7.016 7.143 13.044 13.84 15.86 6.027 2.533 12.784 2.495 19.318 2.306 2.725-.08 5.45-.177 8.172-.295a25.72 25.72 0 0 1 2.498 13.27c-.327 4.026-1.613 7.94-3.46 11.533a38.634 38.634 0 0 1-3.452 5.496 25.747 25.747 0 0 0-2.654-2.403c-6.553-5.11-15.056-6.756-23.072-8.947-16.66-4.553-32.803-12.306-44.89-24.642-5.533-5.646-10.197-12.283-12.714-19.776-1.305-3.885-2.022-7.99-1.883-12.086.224-6.598 2.654-12.964 5.963-18.678 2.088-3.604 4.528-6.992 6.75-10.515 4.811-7.625 8.648-16.025 9.889-24.955 1.19-8.56-.13-17.578-4.436-25.07-4.305-7.494-11.723-13.31-20.207-14.956-5.021-.974-10.259-.502-15.175.91-4.917 1.413-9.532 3.743-13.862 6.467-7.792 4.905-14.682 11.182-20.394 18.399a19.66 19.66 0 0 0-3.906-1.475c-5.676-1.49-11.76-.681-17.305 1.237a44.985 44.985 0 0 0-11.123 5.685 50.214 50.214 0 0 1-9.64 15.078c-3.71 3.994-8.175 7.43-13.349 9.147-5.696 1.89-11.858 1.596-17.796 2.47-3.854.568-7.72 1.675-10.877 3.955-3.743 2.703-6.264 6.88-10.135 9.395-1.566 1.017-3.337 1.74-5.19 1.977-2.8.358-5.661-.412-8.158-1.73-3.115-1.647-5.742-4.12-8.898-5.686a17.83 17.83 0 0 0-9.887-1.73 6.886 6.886 0 0 1 1.234 4.448c-.109 1.464-.71 2.897-1.728 3.955-.857.891-2 1.506-3.215 1.73 1.326 2.302 3.788 3.912 6.428 4.204 2.507.277 4.984-.565 7.416-1.236a56.948 56.948 0 0 1 4.334-1.016c.102 1.749.307 3.491.61 5.217.184 1.055.407 2.112.407 3.183 0 1.072-.243 2.179-.902 3.024-.522.67-1.278 1.136-2.086 1.394-.808.259-1.668.319-2.516.274-1.694-.09-3.345-.59-5.039-.705-2.333-.158-4.717.448-6.673 1.73a10.65 10.65 0 0 0-3.71 4.201 7.953 7.953 0 0 1 3.71 2.473c1.687 2.016 2.264 4.906 1.482 7.416a6.25 6.25 0 0 0 5.191 1.729c1.946-.273 3.666-1.473 4.944-2.965 1.688-1.97 2.74-4.478 4.697-6.18a8.409 8.409 0 0 1 6.426-1.979 16.37 16.37 0 0 1 .494 8.159c-.504 2.575-1.63 5.04-1.73 7.662-.114 2.975 1.198 5.974 3.46 7.91a16.31 16.31 0 0 1 5.44-1.236c2.624-.135 5.278.38 7.662 1.484a4.92 4.92 0 0 0 2.912-1.998 4.92 4.92 0 0 0 .795-3.441c-.224-1.544-1.162-2.871-1.977-4.202-.593-.97-1.137-1.984-1.42-3.086-.281-1.1-.284-2.305.184-3.341.375-.831 1.023-1.505 1.674-2.143.651-.638 1.33-1.27 1.787-2.059.326-.56.529-1.181.766-1.785.237-.603.518-1.205.965-1.675.447-.472 1.043-.787 1.671-.952.629-.165 1.29-.185 1.936-.123 1.294.125 2.534.571 3.809.826.704.142 1.422.225 2.113.422.69.197 1.368.522 1.842 1.063.414.474.65 1.1.65 1.73 0 .63-.236 1.255-.65 1.729a7.661 7.661 0 0 1 5.437-1.729 7.677 7.677 0 0 1 5.438 2.965c1.626-1.757 2.298-4.348 1.73-6.674-.422-1.729-1.456-3.234-2.473-4.695-.864-1.242-1.733-2.488-2.421-3.836-.69-1.348-1.196-2.811-1.286-4.322-.096-1.631.319-3.312 1.29-4.627.97-1.315 2.515-2.227 4.148-2.295 1.075-.045 2.136.262 3.144.639 1.009.376 1.992.828 3.036 1.091 2.623.664 5.427.09 7.91-.988a20.48 20.48 0 0 0 8.158-6.426c-.553 3.053-1.13 6.1-1.73 9.145-.481 2.437-.985 4.891-1.979 7.168a17.824 17.824 0 0 1-6.426 7.664 8.136 8.136 0 0 0 5.99 1.824 8.14 8.14 0 0 0 5.483-3.03c1.284-1.634 1.883-3.694 2.369-5.716.82-3.414 1.4-6.885 1.73-10.38 1.46 1.69 2.49 3.748 2.967 5.93.67 3.068.224 6.368-1.236 9.147a27.314 27.314 0 0 0 5.191-5.933c1.434-2.219 2.535-4.63 3.784-6.957.369-.69.762-1.369 1.171-2.037a75.285 75.285 0 0 0-2.814 20.455c.023 13.033 3.573 26.165 10.871 36.963 9.393 13.896 24.613 23.302 40.879 27.396 10.594 2.666 21.811 3.282 31.744 7.828 12.11 5.543 21.081 16.481 26.908 28.457 5.992 12.316 9.073 26.173 7.881 39.817-1.156 13.234-6.594 26.397-16.523 35.224-4.656 4.14-10.134 7.222-15.272 10.746-5.137 3.524-10.087 7.663-12.996 13.172-2.144 4.062-3.058 8.638-4.347 13.047a77.129 77.129 0 0 1-6.524 15.654 21.124 21.124 0 0 0 6.332-1.357 21.21 21.21 0 0 0 8.889-6.47 17.807 17.807 0 0 1 1.719 7.911 17.755 17.755 0 0 1-.85 5.135 9.974 9.974 0 0 0 4.646-1.81 9.986 9.986 0 0 0 3.182-3.844c.526-1.125.835-2.335 1.184-3.528.348-1.192.748-2.388 1.425-3.43 1.105-1.695 2.91-2.873 4.86-3.417 1.95-.544 4.033-.488 6.012-.06 3.715.801 7.07 2.874 9.85 5.468 2.778 2.594 5.023 5.702 7.108 8.88 3.337 5.088 6.305 10.406 9.247 15.731 1.757 3.182 3.55 6.512 3.72 10.143.12 2.539-.57 5.04-1.318 7.469-.748 2.429-1.568 4.87-1.725 7.406-.087 1.417.033 2.843-.105 4.256-.07.706-.203 1.409-.455 2.072-.252.664-.625 1.288-1.131 1.785a4.682 4.682 0 0 1-1.973 1.131 6.218 6.218 0 0 1-2.275.203c-2.288-.198-4.348-1.433-6.57-2.01-.857-.222-1.748-.346-2.63-.263-.88.083-1.753.383-2.44.94-.834.673-1.339 1.663-1.784 2.638-.445.974-.869 1.986-1.598 2.771a4.835 4.835 0 0 1-2.27 1.354 5.503 5.503 0 0 1-2.648.039c-1.739-.395-3.238-1.589-4.21-3.084-.816-1.253-1.283-2.695-1.917-4.049-.316-.677-.68-1.338-1.138-1.928-.46-.59-1.018-1.109-1.678-1.46-.762-.407-1.634-.578-2.498-.598-.864-.02-1.724.104-2.574.26-2.074.38-4.114.947-6.086 1.691a12.803 12.803 0 0 1 3.914 5.23c.442 1.098.729 2.264.78 3.446.05 1.182-.142 2.38-.624 3.46a6.817 6.817 0 0 1-2.353 2.827 8.158 8.158 0 0 0 5.18 3.924c2.261.536 4.763.022 6.591-1.414.73-.574 1.344-1.276 1.979-1.953.634-.678 1.301-1.342 2.101-1.813a5.583 5.583 0 0 1 4.553-.47 6.613 6.613 0 0 0-2.041 5.18c.052.792.249 1.565.412 2.343.164.777.295 1.573.215 2.363-.147 1.45-.996 2.75-2.04 3.768-1.034 1.01-2.286 1.814-3.14 2.982a5.903 5.903 0 0 0-.941 4.865 52.176 52.176 0 0 1 4.082-.627c1.779-.202 3.607-.309 5.336.157 2.455.66 4.557 2.52 5.513 4.877a3.435 3.435 0 0 0 2.805-1.268c.433-.542.687-1.201.916-1.855.23-.655.443-1.323.81-1.91.522-.834 1.323-1.457 2.16-1.971.839-.514 1.731-.937 2.55-1.483a10.36 10.36 0 0 0 4.232-5.935c.63-2.404.347-5.036-.78-7.25 2.546 2.373 3.916 5.95 3.61 9.418-.084.95-.285 1.89-.365 2.841-.08.952-.031 1.94.365 2.81.403.883 1.129 1.572 1.828 2.247.7.675 1.41 1.387 1.762 2.293.306.786.317 1.65.334 2.494.017.844.048 1.714.39 2.485a3.296 3.296 0 0 0 1.108 1.347c.481.34 1.054.545 1.64.59a12.03 12.03 0 0 1 2.669-5.963c.64-.765 1.381-1.452 2.228-1.98.847-.528 1.803-.893 2.795-1.002a5.867 5.867 0 0 1 3.242.58 5.86 5.86 0 0 1 2.408 2.244 29.413 29.413 0 0 0-1.882-8.633c-.546-1.423-1.205-2.806-2.041-4.08-1.491-2.269-3.512-4.135-5.18-6.277-.944-1.213-1.795-2.565-2.041-4.082-.231-1.425.105-2.925.885-4.139.78-1.214 1.99-2.137 3.353-2.61 2.013-.697 4.34-.385 6.121.786.692.455 1.307 1.03 2.041 1.412.666.346 1.412.522 2.16.576.75.055 1.502-.009 2.245-.119a17.785 17.785 0 0 0 3.6-.928 45.083 45.083 0 0 1-.313-2.511c-.13-1.34-.2-2.697.002-4.028.201-1.33.688-2.644 1.566-3.664a5.667 5.667 0 0 1 2.668-1.726 4.03 4.03 0 0 0-.576-2.46 4.023 4.023 0 0 0-1.934-1.62c-.737-.292-1.543-.358-2.336-.374-.792-.016-1.588.015-2.373-.097-1.832-.263-3.476-1.288-4.865-2.512-2.205-1.943-3.935-4.504-4.553-7.377-.655-3.05-.044-6.214.627-9.26.536-2.43 1.148-4.936 2.67-6.906a8.958 8.958 0 0 1 3.489-2.713 9.254 9.254 0 0 1 4.359-.74 9.436 9.436 0 0 1 5.219 2.068 9.434 9.434 0 0 1 3.1 4.68 10.191 10.191 0 0 0 2.804-5.504 10.195 10.195 0 0 0-.922-6.11c-.751-1.516-1.878-2.828-3.164-3.929-1.286-1.101-2.73-2.002-4.213-2.82-2.983-1.647-6.17-3.001-8.789-5.18-2.657-2.21-4.672-5.224-7.691-6.906-1.992-1.11-4.273-1.553-6.5-2.037-2.228-.485-4.5-1.053-6.37-2.358-1.425-.995-2.553-2.39-3.33-3.945-.776-1.556-1.21-3.27-1.378-5-.482-4.936 1.182-9.895 3.767-14.127 1.48-2.423 3.274-4.669 5.434-6.512s4.691-3.276 7.435-4.004c2.179-.577 4.501-.703 6.688-.158 2.186.545 4.227 1.79 5.554 3.611 1.027 1.409 1.602 3.107 1.872 4.829.269 1.721.245 3.475.17 5.216-.113 2.576-.34 5.152-.247 7.729.094 2.576.524 5.18 1.659 7.496 1.557 3.18 4.372 5.629 7.535 7.22 4.707 2.37 10.292 2.939 15.38 1.57-3.957-.754-7.563-3.197-9.73-6.593-2.226-3.487-2.9-7.88-2.04-11.927a17.357 17.357 0 0 1 2.823-6.436 3.445 3.445 0 0 0 .235 1.756c.23.552.606 1.043 1.08 1.406.474.364 1.046.6 1.638.678a3.448 3.448 0 0 0 1.756-.23 4.045 4.045 0 0 0 1.428-1.03c.398-.437.714-.943.973-1.475.517-1.064.804-2.222 1.199-3.337 1.31-3.703 3.79-6.9 5.127-10.592 1.892-5.222 1.352-11.027.017-16.418-1.026-4.149-2.506-8.182-4.35-12.037-2.847-5.958-6.569-11.517-8.788-17.737-2.261-6.336-2.88-13.153-2.803-19.88.077-6.728.83-13.427 1.232-20.143.358-5.956.42-12.058-1.412-17.736a27.066 27.066 0 0 0-2.572-5.631c4.015-1.618 7.71-4.266 9.824-8.026 1.797-3.194 2.344-6.978 2.096-10.634-.248-3.657-1.247-7.218-2.383-10.702-.694-2.13-1.448-4.264-1.722-6.488-.275-2.224-.034-4.587 1.144-6.494.741-1.201 1.817-2.166 2.977-2.97 1.16-.805 2.413-1.464 3.632-2.175 1.22-.71 2.417-1.483 3.418-2.478 1.002-.995 1.803-2.232 2.084-3.615.255-1.25.071-2.575-.457-3.735-.527-1.16-1.39-2.156-2.425-2.898-1.265-.906-2.769-1.433-4.295-1.729-1.527-.296-3.087-.371-4.64-.445-1.554-.074-3.114-.147-4.642-.44-1.527-.292-3.033-.811-4.302-1.71-1.411-1-2.478-2.436-3.201-4.006-.724-1.57-1.118-3.276-1.344-4.99-.453-3.429-.256-6.934-.934-10.325-.47-2.352-1.35-4.59-2.252-6.818 3.172-1.155 6.112-3.044 8.727-5.21 1.956-1.622 3.81-3.439 5.02-5.673 1.644-3.037 1.966-6.762.87-10.037a13.316 13.316 0 0 1-5.017 5.236c-3.12 1.825-6.994 2.294-10.473 1.31a17.318 17.318 0 0 1-1.58-.544 21.87 21.87 0 0 1 1.168-3.506c1.073-2.506 2.545-4.822 4.115-7.05 3.124-4.432 6.661-8.559 9.803-12.977 3.324-4.675 6.203-9.68 8.363-14.992a63.473 63.473 0 0 0 4.325-17.301 26.195 26.195 0 0 0-12.975 10.379c-3.99 6.217-5.158 13.817-8.363 20.472a36.44 36.44 0 0 1-6.92 9.805 21.002 21.002 0 0 1-2.883-12.111c.187-2.689.899-5.333 2.017-7.785 1.742-3.817 4.428-7.118 7.213-10.254 2.786-3.136 5.716-6.17 8.07-9.64 3.953-5.828 6.129-12.644 8.362-19.321a666.781 666.781 0 0 1 4.902-14.13 29.259 29.259 0 0 0-11.535 8.94c-3.216 4.16-5.236 9.092-7.496 13.84-2.738 5.752-5.872 11.31-9.226 16.725a234.103 234.103 0 0 1-10.957 16.146 91.122 91.122 0 0 1 7.496-26.814c3.471-7.645 8-14.796 13.263-21.338 3.84-4.772 8.108-9.284 10.957-14.705a33.428 33.428 0 0 0 3.75-13.264 17.724 17.724 0 0 0-8.94 1.153c-4.173 1.7-7.602 5.006-9.804 8.939-1.903 3.4-2.92 7.208-4.103 10.92-1.183 3.712-2.597 7.45-5.123 10.416-2.682 3.149-6.565 5.248-10.668 5.767a68.708 68.708 0 0 1 8.074-21.914c3.363-5.817 7.559-11.105 11.244-16.724 1.52-2.319 2.956-4.697 4.613-6.92 2.98-3.998 6.648-7.455 9.516-11.533 2.11-3 3.768-6.316 4.902-9.803-3.904-1.208-8.393-.31-11.533 2.307-1.899 1.582-3.273 3.688-4.613 5.765-2.244 3.477-4.485 6.977-7.21 10.092a41.63 41.63 0 0 1-7.784 6.922c-1.21-6.65.629-13.793 4.9-19.031 3.272-4.013 7.84-6.91 10.67-11.246a17.9 17.9 0 0 0 2.883-10.092 10.346 10.346 0 0 1-4.614-1.442 10.295 10.295 0 0 1-4.324-5.19c-.621-1.67-.792-3.492-.605-5.265.187-1.772.722-3.497 1.469-5.115.781-1.696 1.792-3.278 2.58-4.97.787-1.694 1.354-3.553 1.17-5.41-.129-1.288-.618-2.526-1.332-3.604-.715-1.079-1.65-2.001-2.688-2.774-2.075-1.545-4.526-2.487-6.937-3.426-2.404-.935-4.814-1.89-7.329-2.462-1.571-.359-3.194-.565-4.802-.516zm-189.9 5.437a14.025 14.025 0 0 1-4.966 3.584c-1.99.852-4.217 1.233-6.343.828a9.076 9.076 0 0 1-4.69-2.482 16.894 16.894 0 0 0-.828 6.068c.131 2.773.947 5.5.828 8.274-.156 3.653-2.032 7.196-4.965 9.379a11.18 11.18 0 0 0-1.103-8.551c-1.813-3.098-5.012-5.122-8.274-6.62-2.35-1.078-4.861-1.959-7.447-1.93a11.067 11.067 0 0 0-4.69 1.103 10.45 10.45 0 0 1 4.137 5.24 9.334 9.334 0 0 1 .553 3.31 8.54 8.54 0 0 1-2.482 5.793c.153.918.58 1.788 1.213 2.47a4.82 4.82 0 0 0 2.373 1.392c.873.213 1.794.175 2.675-.002.882-.177 1.73-.49 2.565-.826a45.79 45.79 0 0 0 4.687-2.207 5.16 5.16 0 0 0-.777 2.447 5.158 5.158 0 0 0 .502 2.517c.463.96 1.211 1.749 1.912 2.551.701.803 1.383 1.665 1.674 2.69.305 1.074.143 2.253-.334 3.263-.478 1.01-1.254 1.86-2.149 2.53-1.524 1.141-3.408 1.781-5.31 1.863-2.731.117-5.385-.878-7.852-2.057-2.466-1.178-4.859-2.564-7.486-3.32a16.697 16.697 0 0 0-5.555-.623 9.762 9.762 0 0 1 3.035 5.516 9.516 9.516 0 0 1-.277 4.414 9.366 9.366 0 0 1-4.137 5.24 56.57 56.57 0 0 0 4.69.826c3.489.465 7.036.608 10.445 1.48 2.455.629 4.833 1.646 6.844 3.188.894.686 1.727 1.494 2.227 2.504a4.2 4.2 0 0 1 .443 1.619 3.27 3.27 0 0 1-.324 1.64c-.264.526-.683.964-1.166 1.3-.484.335-1.03.57-1.588.753-1.118.367-2.3.526-3.399.948a7.564 7.564 0 0 0-3.552 2.841 7.809 7.809 0 0 1 3.308 3.586c.93 2.056.917 4.456.278 6.62a12.376 12.376 0 0 1-4.415 6.343 8.96 8.96 0 0 0 4.415 1.104c2.761-.037 5.45-1.422 7.17-3.584.823-1.037 1.429-2.227 2.115-3.36.686-1.132 1.481-2.238 2.574-2.986.943-.645 2.065-.99 3.2-1.13 1.133-.14 2.282-.081 3.419.029 1.384.133 2.77.342 4.094.765 1.324.423 2.592 1.066 3.629 1.992 1.52 1.358 2.47 3.266 2.974 5.24.504 1.976.592 4.03.612 6.069.01 1.164 0 2.336-.221 3.478-.221 1.143-.666 2.266-1.434 3.141-.64.73-1.483 1.262-2.384 1.621-.902.359-1.861.55-2.825.662-1.927.226-3.892.15-5.785.578a11.178 11.178 0 0 0-6.107 3.758 16.518 16.518 0 0 1 5.552.948c1.41.5 2.743 1.188 4.102 1.81 2.268 1.038 4.678 1.906 7.172 1.932a11.183 11.183 0 0 0 7.998-3.31 8.501 8.501 0 0 1-2.014 4.345 8.504 8.504 0 0 1-4.054 2.55c-1.353.381-2.774.417-4.176.512-1.402.095-2.83.26-4.098.868-1.429.685-2.542 1.879-3.861 2.757a10.044 10.044 0 0 1-6.068 1.655 9.848 9.848 0 0 0 1.93 2.482c1.704 1.586 4.015 2.54 6.343 2.482 1.525-.037 3.016-.49 4.414-1.101a20.25 20.25 0 0 0 6.895-4.965c.188 3.018-.94 6.093-3.034 8.274-2.214 2.305-5.3 3.52-8.275 4.689-2.608 1.024-5.214 2.064-7.723 3.31a51.635 51.635 0 0 0-10.029 6.534 19.673 19.673 0 0 1 8.65.912c1.229.42 2.415.96 3.645 1.377 1.23.416 2.526.708 3.82.603 1.57-.126 3.045-.831 4.34-1.728s2.44-1.989 3.64-3.01c2.497-2.124 5.259-3.96 8.276-5.24.83-.353 1.686-.664 2.578-.801.892-.137 1.827-.092 2.662.25.85.348 1.55.98 2.186 1.645.635.663 1.23 1.373 1.953 1.939a6.535 6.535 0 0 0 3.502 1.36 6.539 6.539 0 0 0 3.668-.807c1.145-.64 2.07-1.613 2.88-2.645.811-1.032 1.524-2.137 2.36-3.148 3.025-3.66 7.667-5.927 12.412-6.067a19.018 19.018 0 0 0-4.687 6.62c-.623 1.47-1.06 3.015-1.645 4.501-.585 1.487-1.342 2.942-2.494 4.05-1.551 1.49-5.516 3.308-5.516 3.308l2.483 4.69s7.885-2.891 10.48-6.069c.727-.89 1.334-1.87 2.012-2.797.678-.927 1.441-1.815 2.402-2.443.954-.624 2.06-.966 3.153-1.285 1.093-.32 2.205-.628 3.191-1.198 1.418-.818 2.5-2.14 3.236-3.601.738-1.462 1.15-3.065 1.452-4.674.349-1.87.554-3.778.39-5.672-.164-1.894-.712-3.78-1.77-5.36-1.533-2.29-4.006-3.775-6.523-4.9-2.517-1.124-5.17-1.972-7.543-3.375-4.21-2.489-7.25-6.551-9.732-10.765-2.482-4.214-4.529-8.697-7.367-12.68-1.72-2.415-3.718-4.624-5.41-7.059-1.693-2.434-3.096-5.163-3.416-8.111-.292-2.677.322-5.358.873-7.994.55-2.636 1.041-5.363.505-8.002-.403-1.985-1.373-3.818-2.535-5.477-1.162-1.659-2.52-3.166-3.808-4.728-2.534-3.071-4.836-6.421-6.069-10.207-.586-1.801-.924-3.693-.87-5.586.052-1.893.504-3.788 1.421-5.445 1.4-2.531 3.795-4.392 5.24-6.897a10.985 10.985 0 0 0 1.436-6.193 10.984 10.984 0 0 0-2.262-5.942zm182.661 15.022a15.534 15.534 0 0 0 1.15 8.816c1.136 2.528 2.923 4.696 4.6 6.9 2.541 3.34 4.888 6.865 6.516 10.733.828 1.968 1.471 4.043 1.578 6.176.107 2.133-.356 4.338-1.578 6.09-.912 1.307-2.195 2.303-3.498 3.22-1.303.918-2.657 1.787-3.785 2.913-2.561 2.554-3.749 6.412-3.067 9.964a12.116 12.116 0 0 1-4.123-7.422 12.117 12.117 0 0 1 1.824-8.292c1.597-2.447 4.066-4.285 5.366-6.9 1.111-2.24 1.245-4.936.384-7.282-.917-2.503-2.84-4.485-4.728-6.367-1.888-1.882-3.843-3.818-4.855-6.284a9.925 9.925 0 0 1-.204-6.925 9.932 9.932 0 0 1 4.42-5.34zM457.185 324.09a13.54 13.54 0 0 0-1.38.01c-2.254.132-4.44.85-6.489 1.799-2.049.948-3.982 2.125-5.949 3.234-3.996 2.252-8.215 4.251-12.734 5.035a25.427 25.427 0 0 1-14.51-1.777c.937 2.47 2.748 4.6 5.035 5.922 1.802 1.041 3.868 1.583 5.944 1.728 2.076.145 4.164-.096 6.197-.543a30.977 30.977 0 0 0 7.996-2.96 240.976 240.976 0 0 1-5.035 5.626c-2.522 2.731-5.14 5.431-8.291 7.403a23.031 23.031 0 0 1-8.885 3.257 16.113 16.113 0 0 0 6.219 6.516c4.26 2.46 9.68 2.796 14.215.887a23.141 23.141 0 0 0 2.072 15.103c2.192 4.26 5.653 7.717 9.181 10.957 1.698 1.56 3.426 3.087 5.034 4.739 1.349 1.385 2.64 2.906 3.257 4.738a7.958 7.958 0 0 1 .29 3.84 8.831 8.831 0 0 1-1.473 3.564c-.784 1.124-1.802 2.06-2.78 3.02-.976.96-1.935 1.975-2.552 3.199-.46.914-.716 1.913-1.026 2.889-.309.975-.686 1.954-1.343 2.738-.866 1.033-2.178 1.648-3.52 1.77-1.342.121-2.704-.23-3.883-.883-1.916-1.062-3.317-2.858-4.441-4.739-1.58-2.644-2.77-5.612-5.035-7.699-1.017-.937-2.231-1.665-3.553-2.072a8.621 8.621 0 0 0-5.035 0c.648 1.687.854 3.542.592 5.33a10.672 10.672 0 0 1-2.961 5.924 4.44 4.44 0 0 0 2.369 2.664c.865.391 1.836.492 2.785.476.95-.015 1.893-.14 2.842-.18 1.072-.043 2.158.026 3.19.323 1.03.297 2.008.832 2.734 1.623a5.176 5.176 0 0 1 1.213 2.346c.197.868.18 1.782-.028 2.648a5.561 5.561 0 0 1-1.14 2.297 4.556 4.556 0 0 1-2.12 1.424c-1.153.353-2.392.189-3.591.064-.6-.062-1.203-.114-1.805-.084-.602.03-1.208.146-1.754.403a3.584 3.584 0 0 0-1.394 1.17 3.58 3.58 0 0 0-.635 1.705c2.108.311 4.033 1.672 5.033 3.554a6.877 6.877 0 0 1 .754 3.987 6.887 6.887 0 0 1-1.643 3.713c1.422.582 2.92.98 4.444 1.183 1.08.144 2.184.19 3.258 0a7.632 7.632 0 0 0 4.648-2.8 7.633 7.633 0 0 0 1.57-5.196 11.343 11.343 0 0 1 2.37 4.738c.429 1.86.379 3.804.113 5.694-.266 1.89-.744 3.741-1.17 5.601-.38 1.656-.72 3.322-1.018 4.994a15.814 15.814 0 0 1 6.219-1.482 15.906 15.906 0 0 1 10.068 3.258 4.385 4.385 0 0 0 1.483-3.258c0-.963-.324-1.898-.739-2.768-.414-.869-.923-1.692-1.335-2.562a12.843 12.843 0 0 1-1.15-6.873c.259-2.338 1.18-4.6 2.63-6.453a7.35 7.35 0 0 0 4.146 3.554c1.99.667 4.168.446 6.22.89a9.772 9.772 0 0 1 3.849 1.775 9.35 9.35 0 0 1 1.185-5.034 9.36 9.36 0 0 1 4.145-3.85c.47-1.04.486-2.277.043-3.33a4.223 4.223 0 0 0-2.412-2.296c-.99-.362-2.072-.336-3.125-.358-1.054-.021-2.154-.109-3.053-.658a3.226 3.226 0 0 1-1.078-1.078 3.084 3.084 0 0 1-.443-1.46c-.037-.905.35-1.799.96-2.466.612-.667 1.433-1.119 2.297-1.385 1.378-.423 2.85-.392 4.29-.341 1.44.05 2.904.114 4.298-.25 1.818-.475 3.417-1.684 4.442-3.258 1.399-2.15 1.71-4.892 1.185-7.402-.545-2.608-1.922-4.975-3.558-7.077-1.637-2.1-3.543-3.976-5.327-5.955-5.707-6.331-10.272-14.038-11.251-22.506-.315-2.723-.255-5.506.355-8.18.61-2.673 1.778-5.236 3.531-7.345 1.059-1.273 2.336-2.382 3.813-3.13 2.386-1.211 5.214-1.423 7.82-.817 2.606.606 4.993 1.992 6.986 3.777 3.736 3.345 6.056 7.949 8.291 12.438 1.044 2.097 2.092 4.202 2.842 6.421.75 2.22 1.199 4.57 1.008 6.905-.35 4.297-3.005 8.338-6.81 10.365 2.376.284 4.81.082 7.107-.592 1.655-.485 3.233-1.21 4.894-1.674 1.662-.463 3.47-.654 5.09-.064 1.281.466 2.364 1.402 3.12 2.537.754 1.135 1.193 2.462 1.39 3.81.395 2.698-.147 5.431-.576 8.124-.852 5.347-1.308 10.913-3.85 15.695a19.725 19.725 0 0 1-4.146 5.332c3.42.207 6.906-.992 9.476-3.258 2.1-1.85 3.562-4.339 4.543-6.959.982-2.62 1.509-5.385 1.973-8.144a197.56 197.56 0 0 0 2.072-16.584 38.194 38.194 0 0 0 2.666 13.623c1.464 3.702 3.506 7.17 4.739 10.957 1.867 5.737 1.76 12.096-.297 17.767 3.274-.22 6.381-2.176 7.996-5.033 1.3-2.3 1.635-5.045 1.414-7.678-.221-2.632-.966-5.188-1.711-7.722a1724.072 1724.072 0 0 0-6.514-21.617 23.345 23.345 0 0 1 10.069 2.96c4.73 2.67 8.47 7.052 10.365 12.143-.088-2.73.42-5.478 1.48-7.996 2.175-5.165 6.528-9.128 11.252-12.143 1.157-.737 3.555-2.072 3.555-2.072S564 376.614 560.863 372.4c-3.704-4.977-5.341-11.52-9.83-15.803-2.7-2.576-6.925-3.048-9.771-5.46-2.181-1.85-5.354-6.704-5.354-6.704s-4.845 3.239-8.734 4.543c-5.42 1.817-11.381 1.518-16.902.039-5.522-1.479-10.672-4.081-15.672-6.85-9.357-5.18-18.379-11.014-28.133-15.4-2.953-1.328-6.073-2.537-9.281-2.674zm81.002 17.392c.133 2.511 1.469 4.932 3.522 6.383 1.397.988 3.054 1.52 4.623 2.201 5.237 2.274 9.745 6.51 11.664 11.887.664 1.86 1.026 3.847 2.016 5.557.495.854 1.152 1.632 1.984 2.164.832.532 1.85.805 2.824.642 1.032-.172 1.951-.824 2.553-1.68.602-.855.902-1.899.969-2.943.148-2.317-.82-4.59-2.196-6.46-1.374-1.872-3.141-3.41-4.847-4.985-3.647-3.366-7.131-7.01-11.445-9.463a25.502 25.502 0 0 0-11.667-3.303z" transform="matrix(.26458 0 0 .26458 -27.854 20.129)"/><path transform="translate(195.739)" style="fill:#000;stroke:none;stroke-width:.26499999;stroke-linecap:round;stroke-linejoin:round;stroke-miterlimit:4;stroke-dasharray:none;stroke-opacity:1" d="M-77.691 71.083a30.52 30.52 0 0 0 2.15.153c1.004.036 2.022.021 2.995-.23a6.324 6.324 0 0 0 2.764-1.536 9.15 9.15 0 0 1-2.84-1.766c.322.136.68.187 1.028.147.348-.04.685-.171.968-.378.35-.254.609-.613.837-.98.227-.368.431-.753.698-1.093a3.61 3.61 0 0 1 1.23-.998 21.069 21.069 0 0 1-2.074-.998 23.546 23.546 0 0 1-3.686-2.535c-.625-.52-1.243-1.078-1.997-1.382-.607-.244-1.269-.31-1.92-.384-.375-.043-.75-.09-1.128-.082-.377.007-.76.07-1.098.236-.332.162-.61.417-.922.614-.339.215-.715.36-1.075.538-.422.208-.82.459-1.229.69-.878.5-1.805.911-2.764 1.23-1.922.637-3.984.895-5.99.614-.93-.13-1.84-.374-2.764-.538-1.134-.2-2.288-.281-3.41-.538-1.122-.257-2.237-.711-3.04-1.535-.52-.532-.884-1.19-1.294-1.81-.409-.62-.889-1.226-1.548-1.569a3.08 3.08 0 0 0-1.326-.327 4.774 4.774 0 0 0-1.362.174 5.447 5.447 0 0 0-1.79.82 4.04 4.04 0 0 0-1.281 1.483c-.2.408-.32.85-.463 1.28-.143.431-.315.862-.601 1.214-.304.374-.719.638-1.116.912-.396.274-.793.575-1.035.992-.188.326-.27.704-.29 1.08-.022.375.015.752.05 1.126.095 1.048.172 2.098.23 3.149a48.971 48.971 0 0 0 2.994-1.229 8.624 8.624 0 0 0 .23 4.223c.385.165.814.226 1.23.174.435-.054.844-.227 1.254-.384.47-.18.949-.34 1.433-.48a26.353 26.353 0 0 0-1.305 4.99 4.681 4.681 0 0 0 3.302.231 4.653 4.653 0 0 0 1.843-1.075c-.121.37-.173.763-.154 1.152a3.245 3.245 0 0 0 1.152 2.304 46.76 46.76 0 0 1 2.841-.922c.577-.167 1.163-.325 1.69-.614a3.819 3.819 0 0 0 1.92-2.841c.16.632.29 1.273.383 1.92.113.77.177 1.552.384 2.303a6.304 6.304 0 0 0 1.766 2.918c.367-.401.751-.785 1.152-1.152.673-.614 1.408-1.197 1.843-1.996.33-.605.466-1.313.384-1.997.485.41 1.03.748 1.613.998.75.323 1.573.51 2.227.999a2.931 2.931 0 0 1 1.152 2.457 4.466 4.466 0 0 0 1.689-2.38 4.448 4.448 0 0 0 .077-2.15 6.34 6.34 0 0 0 1.766.614c1.32.249 2.685.072 3.993-.23 1.273-.295 2.532-.713 3.64-1.405a8.24 8.24 0 0 0 1.582-1.283 3.314 3.314 0 0 0-1.536-1.075c-.933-.312-1.954-.192-2.918-.384a4.608 4.608 0 0 1-2.534-1.46z"/><path style="fill:gold;stroke:none;stroke-width:.26458332px;stroke-linecap:butt;stroke-linejoin:miter;stroke-opacity:1;fill-opacity:1" d="M90.288 57.931a3.098 3.098 0 0 0-2.188.942c-.382.394-.65.88-.907 1.366-.256.485-.506.979-.86 1.398-.667.792-1.655 1.266-2.303 2.074a3.389 3.389 0 0 0-.713 1.663 3.39 3.39 0 0 0 .252 1.792c.668-.301 1.333-.609 1.996-.921.788-.372 1.575-.752 2.304-1.229 1.042-.682 1.97-1.577 2.534-2.687.306-.602.5-1.256.614-1.92a8.636 8.636 0 0 0 .077-2.381 3.095 3.095 0 0 0-.806-.097zm27.586 1.993a3.572 3.572 0 0 0-2.053.639 4.388 4.388 0 0 1 1.766 1.919c.225.478.362.995.614 1.459.285.523.71.963 1.191 1.313.482.35 1.021.615 1.574.837.757.304 1.568.534 2.38.461.634-.056 1.25-.3 1.75-.693.502-.392.885-.932 1.092-1.534a6.75 6.75 0 0 1-1.767-.384c-1-.364-1.907-.964-2.687-1.69-.72-.67-1.356-1.461-2.227-1.92a3.576 3.576 0 0 0-1.633-.407zM94.76 61.828a3.87 3.87 0 0 0-1.823.5c-.635.362-1.153.898-1.608 1.47-.455.57-.854 1.184-1.31 1.756-.957 1.2-2.168 2.228-2.84 3.609a5.487 5.487 0 0 0-.539 1.997 14.288 14.288 0 0 0 2.918-.999c1.121-.524 2.2-1.22 2.919-2.227.607-.85.922-1.868 1.305-2.841.44-1.12.98-2.201 1.613-3.225a3.783 3.783 0 0 0-.635-.04zm19.172.317c-.406.013-.81.1-1.183.26a7.502 7.502 0 0 0 1.23 1.92c.43.49.928.925 1.304 1.46.345.487.578 1.043.818 1.59.24.546.494 1.095.872 1.557.742.91 1.906 1.4 3.071 1.536a6.514 6.514 0 0 0 4.147-.921 6.142 6.142 0 0 1-4.07-1.613c-.917-.846-1.547-1.949-2.227-2.995-.352-.541-.722-1.074-1.172-1.538-.45-.463-.983-.857-1.592-1.072a3.278 3.278 0 0 0-1.198-.184zm-4.568 1.462c-.565-.001-1.133.064-1.683.18a9.92 9.92 0 0 0-1.92.615 5.088 5.088 0 0 1 2.611 3.532c.224 1.215-.006 2.46-.153 3.686-.069.569-.12 1.144-.058 1.714.062.569.242 1.137.595 1.588.476.608 1.207.945 1.843 1.382a6.386 6.386 0 0 1 2.073 2.38c.087-.817.164-1.637.23-2.457.06-.722.108-1.473-.153-2.15-.19-.492-.53-.91-.868-1.314-.34-.404-.688-.813-.898-1.297a2.69 2.69 0 0 1-.02-2.075 2.692 2.692 0 0 1 1.48-1.457c.01.813.167 1.623.46 2.38.264.684.637 1.322.921 1.997.24.572.417 1.17.682 1.73.265.56.634 1.094 1.161 1.419.506.311 1.122.406 1.716.369.593-.037 1.17-.2 1.74-.37a52.858 52.858 0 0 0 4.607-1.612 27.202 27.202 0 0 1-3.84-.384c-.55-.095-1.1-.208-1.627-.396-.527-.189-1.03-.456-1.444-.833-.578-.528-.952-1.245-1.22-1.98-.27-.736-.446-1.502-.7-2.243-.26-.76-.605-1.497-1.073-2.15-.469-.654-1.064-1.224-1.768-1.613-.82-.453-1.752-.64-2.694-.641zm-9.778.01a5.053 5.053 0 0 0-.506.017c-1.161.099-2.275.609-3.148 1.382-1.27 1.126-1.99 2.726-2.918 4.147-.777 1.19-1.719 2.275-2.38 3.532A9.25 9.25 0 0 0 89.788 75a4.212 4.212 0 0 0 2.38 0 4.776 4.776 0 0 0 1.845-1.068 6.54 6.54 0 0 0 1.304-1.697c.646-1.18 1.008-2.542 1.92-3.532.475-.517 1.075-.901 1.655-1.297.58-.396 1.16-.82 1.57-1.39a3.339 3.339 0 0 0 .614-2.15 5.081 5.081 0 0 0-1.491-.249zm3.334 2.09a42.073 42.073 0 0 0-3.148 2.227c-.824.642-1.651 1.35-2.074 2.304-.221.502-.32 1.048-.427 1.586-.108.537-.23 1.081-.494 1.562-.346.63-.915 1.12-1.229 1.767-.31.64-.34 1.411-.077 2.073.72-.297 1.415-.657 2.073-1.075.96-.609 1.865-1.369 2.381-2.38.498-.977.595-2.103.922-3.149.147-.472.342-.928.537-1.382.507-1.18 1.019-2.358 1.536-3.533zm1.69.845c.238.47.32 1.017.23 1.536-.102.58-.407 1.102-.739 1.587-.332.486-.699.953-.95 1.485-.296.623-.422 1.317-.446 2.006-.024.69.05 1.379.138 2.063.19 1.47.446 2.931.768 4.378.455-.813.941-1.608 1.46-2.381.537-.803 1.118-1.605 1.381-2.534.194-.681.207-1.4.164-2.107-.043-.707-.14-1.41-.164-2.117-.016-.499.004-.999-.04-1.495-.044-.497-.158-.998-.42-1.423a2.263 2.263 0 0 0-1.383-.998z"/><path style="fill:#000;fill-opacity:1;fill-rule:evenodd;stroke:none;stroke-width:.28398174;stroke-linecap:round;stroke-linejoin:round;stroke-miterlimit:4;stroke-dasharray:none;stroke-opacity:1" d="M114.228 27.687c.105-.001.21.004.315.014.84.083 1.603.546 2.185 1.156.424.445.766.973.976 1.556.21.582.287 1.219.197 1.837-.132.912-.623 1.753-1.273 2.407-1.106 1.113-2.699 1.71-4.237 1.586l-3.21-3.855a6.629 6.629 0 0 1 2.949-4.028c.638-.388 1.365-.666 2.098-.673zm-20.079-.281c.732.028 1.441.325 2.054.731 1.395.923 2.387 2.439 2.69 4.107l-3.453 3.762a5.273 5.273 0 0 1-4.132-1.703c-.608-.672-1.044-1.525-1.119-2.44-.05-.621.067-1.255.314-1.831a4.697 4.697 0 0 1 1.075-1.527c.62-.593 1.412-1.034 2.256-1.094.105-.007.21-.01.315-.005z"/><path style="fill:gold;fill-opacity:1;fill-rule:evenodd;stroke:none;stroke-width:.30694294;stroke-linecap:round;stroke-linejoin:round;stroke-miterlimit:4;stroke-dasharray:none;stroke-opacity:1" d="M93.768 28.807c-.402.016-.809.12-1.124.347-.376.27-.588.684-.732 1.098-.204.585-.296 1.217-.134 1.812.177.648.663 1.222 1.309 1.547l3.25-2.629a3.082 3.082 0 0 0-.401-1.018 2.443 2.443 0 0 0-.914-.892 2.477 2.477 0 0 0-1.254-.265zm20.416.287a2.44 2.44 0 0 0-.942.234 2.564 2.564 0 0 0-.97.865c-.214.31-.371.65-.465 1.006l3.08 2.717c.668-.304 1.188-.862 1.406-1.509.196-.586.148-1.22-.018-1.814-.117-.416-.303-.837-.662-1.118-.302-.236-.702-.351-1.1-.378a2.77 2.77 0 0 0-.329-.003z"/><path style="fill:#000;fill-opacity:1;fill-rule:evenodd;stroke:none;stroke-width:.29651982;stroke-linecap:round;stroke-linejoin:round;stroke-miterlimit:4;stroke-dasharray:none;stroke-opacity:1" d="M100.76 28.075c-.27.003-.542.043-.805.1a5.954 5.954 0 0 0-2.278 1.007c-.766.565-1.366 1.327-2.212 1.784-.433.234-.914.378-1.38.55-.465.171-.93.379-1.28.71-.44.416-.661.988-.78 1.555-.118.567-.146 1.146-.269 1.712-.076.354-.293.668-.382 1.02-.252 1-.11 2.082-.415 3.068-.287.932-.373 1.96-1.306 2.617a8.184 8.184 0 0 1-3.788 1.42c.601.38 1.303.629 2.03.716 1.338.16 2.753-.242 3.777-1.074.202 1.577-.424 3.24-1.648 4.38-1.157 1.079-2.824 1.672-4.448 1.584.677.442 1.479.722 2.309.806a5.455 5.455 0 0 0 3.009-.565c.343.87.352 1.846.054 2.74-.498.12-1.005.21-1.492.37-.486.162-.96.403-1.306.78-.383.417-.588.975-.648 1.537-.059.562.02 1.13.147 1.681a9.448 9.448 0 0 0 2.288 4.291c.099-.397.297-.77.572-1.072a2.5 2.5 0 0 1 1.145-.716 5.843 5.843 0 0 0 0 1.502c.163 1.26.75 2.46 1.644 3.361a2.601 2.601 0 0 1 .644-1.86 2.607 2.607 0 0 1 2.074-.857 3.271 3.271 0 0 1-.572 2.86c-.55.698-.57 1.388-1.457 1.453 1.06.45 1.377.458 2.53.478 1.03.019 2.083-.137 3.074.143.774.218 1.482.72 1.86 1.43.373.702.4 1.532.643 2.288a4.176 4.176 0 0 0 2.432 2.575 1.675 1.675 0 0 1-.323-1.099c.026-.389.194-.767.466-1.046.214-.22.483-.377.742-.542.26-.165.517-.347.688-.602.143-.215.218-.467.289-.715.07-.247.143-.5.283-.716.124-.191.31-.334.477-.489.167-.155.398-.25.524-.44.266-.4.427-1.375.427-1.375s.804.32 1.218.445c.986.296 1.977.79 3.003.715.897-.066 1.787-.439 2.503-1.001a4.67 4.67 0 0 1-.5-1.001c-.196-.548-.291-1.136-.572-1.645a2.537 2.537 0 0 0-1.573-1.216c.382-.07.783-.033 1.146.105.363.138.687.376.927.682.331.422.499.96.858 1.358a1.82 1.82 0 0 0 1.645.572 5.612 5.612 0 0 0 1.001-1.286c.232-.41.41-.846.572-1.287.277-.758.506-1.558.43-2.36a3.214 3.214 0 0 0-.673-1.675 3.208 3.208 0 0 0-.904-.78 3.485 3.485 0 0 1-.569-.263c.198.068.388.157.57.262.92.34 1.978.308 2.863-.119.66-.319 1.208-.829 1.716-1.359a19.876 19.876 0 0 0 1.573-1.86 16.027 16.027 0 0 1-2.932-.642c-.797-.256-1.573-.573-2.36-.858-.703-.255-1.415-.487-2.112-.756.005-.57.127-1.14.374-1.668.88.492 1.933.72 2.968.642a5.41 5.41 0 0 0 2.364-.746c-1.63.046-3.253-.589-4.334-1.695-1.144-1.171-1.653-2.85-1.34-4.42.964.858 2.35 1.295 3.697 1.17a5.09 5.09 0 0 0 2.078-.664c-1.352-.185-2.21-1.072-3.255-1.873-.887-.68-.427-1.001-.56-1.527-.252-.993 0-2.119-.445-3.042-.158-.328-.58-.476-.747-.797a3.196 3.196 0 0 1-.311-1.029c-.083-.568-.072-1.148-.15-1.717-.079-.57-.26-1.146-.67-1.572-.327-.34-.777-.561-1.23-.745-.454-.183-.923-.339-1.34-.583-.814-.478-1.36-1.254-2.086-1.84a5.667 5.667 0 0 0-2.206-1.063 4.01 4.01 0 0 0-.796-.12 2.273 2.273 0 0 0-.792.1c-.531.173-.938.566-1.34.932-.491.447-1.006.873-1.54 1.275-.507-.415-.99-.854-1.45-1.313-.376-.376-.756-.78-1.274-.966a2.23 2.23 0 0 0-.784-.12z"/><path style="fill:gold;fill-opacity:1;stroke:none;stroke-width:.26458332px;stroke-linecap:butt;stroke-linejoin:miter;stroke-opacity:1" d="M-91.452 31.574a3.536 3.536 0 0 0-2.405-1.47c-.76-.101-1.534.05-2.255.31-.721.258-1.4.621-2.087.96-.945.465-1.948.914-2.605 1.737-.373.466-.61 1.027-.781 1.6-.17.571-.28 1.16-.422 1.74-.076.31-.162.618-.2.935-.098.82.133 1.657 0 2.472a2.825 2.825 0 0 1-1.019 1.736 2.825 2.825 0 0 1-1.92.602 8.986 8.986 0 0 0 3.54-1.27 9.687 9.687 0 0 1-.646 2.883 7.882 7.882 0 0 1-1.23 2.14 6.653 6.653 0 0 1-2.162 1.72 5.872 5.872 0 0 0 1.833-.33 6.914 6.914 0 0 0 1.47-.734 8.433 8.433 0 0 0 2.338-2.271 6.84 6.84 0 0 0-2.032 3.907c-.079.53-.096 1.07-.228 1.588-.066.26-.161.513-.302.74a1.71 1.71 0 0 1-.556.57c-.377.229-.834.273-1.27.35a2.967 2.967 0 0 0-.639.172 1.34 1.34 0 0 0-.532.384 1.34 1.34 0 0 0-.25.546c-.043.197-.055.4-.058.602a7.626 7.626 0 0 0 .857 3.633c.067-.274.207-.53.4-.735.176-.184.391-.325.602-.467a21.152 21.152 0 0 0 4.685-4.336 23.016 23.016 0 0 0-1.753 2.854c-.523 1.01-.977 2.084-1.061 3.219-.053.698.039 1.408.267 2.07.246-.59.782-1.05 1.403-1.202.193-.048.393-.067.588-.107.195-.04.391-.103.547-.227.115-.091.205-.211.277-.339.073-.127.13-.262.191-.396a8.126 8.126 0 0 1 2.669-3.237 5.053 5.053 0 0 0-1.2 4.573c.132.536.353 1.054.402 1.603a2.618 2.618 0 0 1-.485 1.75c-.364.5-.912.863-1.515 1.002a6.059 6.059 0 0 0 1.512-.109c.654-.13 1.309-.371 1.97-.282.46.062.887.283 1.244.579.356.295.646.663.903 1.049.316.476.585.981.846 1.49.205.398.406.799.602 1.202a1.494 1.494 0 0 1 .502-1.12c.245-.216.558-.346.79-.577.216-.216.346-.507.423-.804.077-.297.108-.603.155-.906.114-.727.328-1.435.45-2.16a8.608 8.608 0 0 0-.625-4.885 37.404 37.404 0 0 1 1.845 3.304c.355.717.691 1.455 1.203 2.07.498.601 1.173 1.076 1.937 1.233a2.864 2.864 0 0 0 2.338-.564 1.464 1.464 0 0 1-1.002-.935c-.105-.313-.099-.65-.12-.98a5.65 5.65 0 0 0-1.059-2.924 5.65 5.65 0 0 0-2.452-1.912c1.118.383 2.198.875 3.22 1.468 1.012.588 1.98 1.287 2.702 2.208.425.542.758 1.155.983 1.806a3.05 3.05 0 0 0 1.47-1.871c.15-.565.132-1.167 0-1.737a4.317 4.317 0 0 0-.602-1.403 5.256 5.256 0 0 0-1.136-1.202c-.58-.46-1.23-.825-1.81-1.284a7.076 7.076 0 0 1-2.477-3.916 6.893 6.893 0 0 0 4.503 3.934c.647.174 1.319.25 1.989.264a6.293 6.293 0 0 0 1.536-.134 4.474 4.474 0 0 0 1.871-.935 3.988 3.988 0 0 1-1.336 0c-.831-.142-1.593-.542-2.338-.935-.57-.302-1.151-.61-1.604-1.07a3.748 3.748 0 0 1-.734-1.1 2.818 2.818 0 0 1-.21-.637c-.04-.22-.044-.45.01-.667.1-.408.41-.758.804-.905a1.322 1.322 0 0 1 1.202.153 4.22 4.22 0 0 1-1.673-2.12c-.263-.745-.31-1.55-.267-2.339.034-.63.123-1.256.267-1.87.423.05.835.187 1.203.4.444.257.82.62 1.269.869.544.3 1.187.42 1.804.334a4.074 4.074 0 0 1-1.737-1.07c-.474-.493-.816-1.1-1.07-1.736-.293-.74-.472-1.52-.734-2.271-.14-.4-.303-.792-.4-1.203-.106-.441-.134-.896-.18-1.347-.047-.452-.113-.907-.288-1.325a3.226 3.226 0 0 0-.856-1.155 5.337 5.337 0 0 0-1.215-.782c-.88-.426-1.84-.69-2.673-1.203-.294-.181-.57-.392-.861-.578-.292-.187-.604-.35-.942-.424a2.332 2.332 0 0 0-1.076.039c-.351.09-.682.246-.995.429a6.164 6.164 0 0 0-1.537 1.269z" transform="matrix(1.07044 0 0 1.07044 202.062 -1.967)"/><path style="stroke:#000;stroke-width:.29666895;stroke-opacity:1" d="M101.96 41.492c.206-.051.212.343.279.531.073.207.113.426.127.646.017.289-.01.582-.06.868-.084.472-.285.92-.398 1.387-.085.35-.18.7-.212 1.055-.018.204-.01.41.011.614.024.23-.006.49.128.681.23.33.718.41 1.051.648.207.148.425.292.586.484a.957.957 0 0 1 .199.354c.047.174.184.461.009.542-.263.121-.456-.331-.664-.518-.169-.152-.282-.359-.47-.489-.344-.236-.776-.333-1.164-.5-.233-.1-.545-.107-.698-.3-.177-.22-.106-.547-.13-.825-.032-.36-.12-.732-.02-1.083.17-.593.757-1.02 1.01-1.589.222-.5.364-1.034.432-1.568.024-.192-.007-.385-.01-.578-.002-.12-.131-.33-.006-.36zM105.832 41.35c-.208-.035-.2.359-.26.551a2.429 2.429 0 0 0-.102.654c-.007.29.031.58.092.863.101.465.318.899.448 1.356.098.343.205.686.25 1.038.027.203.024.41.01.614-.014.231.025.489-.102.69-.217.345-.7.46-1.025.723-.201.163-.414.323-.567.526a1 1 0 0 0-.186.368c-.04.177-.167.473.01.541.266.103.442-.363.643-.565.163-.164.268-.378.452-.522.334-.26.762-.388 1.143-.583.229-.116.54-.147.686-.35.168-.234.086-.554.1-.834.018-.36.093-.74-.019-1.082-.19-.58-.793-.965-1.067-1.514a5.443 5.443 0 0 1-.49-1.535c-.031-.19-.007-.385-.01-.578-.002-.12.12-.34-.006-.36z"/><path style="fill:none;stroke:#000;stroke-width:1.48334503;stroke-linecap:round;stroke-linejoin:round;stroke-miterlimit:4;stroke-dasharray:none;stroke-opacity:1" d="M94.68 37.791s.64.361.992.45c.327.081.672.093 1.009.065.307-.026.601-.15.905-.212.374-.075.75-.137 1.127-.194.179-.027.358-.06.539-.07.18-.011.54.006.54.006M112.965 37.128s-.626.408-.974.52a3.15 3.15 0 0 1-1.004.14c-.309-.004-.607-.107-.912-.146a22.688 22.688 0 0 0-1.133-.112c-.18-.014-.36-.034-.54-.032-.181.003-.54.046-.54.046"/><path style="fill:none;stroke:#000;stroke-width:1.48334944;stroke-linecap:round;stroke-opacity:1" d="m103.786 35.495.035 1.99"/><path style="stroke:#000;stroke-width:.29666895;stroke-opacity:1" d="M93.885 39.683c.028.239.508.063.764.075.316.013.636.028.952-.01a4.28 4.28 0 0 0 .92-.211c.218-.077.399-.24.62-.304.22-.063.46-.018.68-.075.161-.043.45-.04.458-.196.008-.137-.244-.154-.384-.19a1.9 1.9 0 0 0-.626-.028c-.286.024-.562.113-.84.183-.237.06-.468.14-.704.204-.314.086-.636.145-.948.239-.302.09-.925.02-.892.313zM113.83 38.961c-.02.24-.505.1-.76.13-.316.037-.635.075-.951.06a4.198 4.198 0 0 1-.928-.145c-.22-.061-.406-.21-.63-.258-.221-.048-.46.015-.681-.027-.163-.03-.452-.006-.466-.162-.012-.136.239-.172.377-.217.199-.066.415-.077.625-.074.286.004.565.072.845.122.239.043.472.107.71.154.317.062.64.098.956.17.305.068.925-.048.902.247z"/><path d="M104.314 39.15s.057-.593.12-.885c.063-.293.126-.59.256-.865.157-.33.383-.631.622-.916.147-.174.268-.42.495-.477.097-.025.225.006.287.079.067.079.056.209.02.306-.047.122-.188.193-.281.29-.205.212-.45.395-.614.635-.217.318-.33.687-.47 1.04-.089.22-.08.484-.233.672-.05.06-.202.122-.202.122zM103.394 39.184s-.08-.588-.153-.875c-.073-.288-.147-.58-.287-.845-.17-.318-.406-.603-.656-.87-.153-.163-.282-.4-.511-.441-.098-.018-.225.022-.284.1-.064.084-.048.212-.008.306.051.12.194.18.291.27.212.198.464.362.637.59.228.302.355.662.508 1.004.096.214.096.478.257.654.05.057.206.108.206.108z" style="stroke:#000;stroke-width:.29666996;stroke-linejoin:round;stroke-opacity:1"/><path style="stroke:#000;stroke-width:.29666895;stroke-opacity:1" d="M105.149 39.07s.174-.543.298-.802c.059-.122.132-.24.211-.352.164-.231.35-.449.546-.658.1-.107.204-.213.32-.305.072-.056.137-.145.229-.149a.263.263 0 0 1 .22.12c.034.055.023.13.003.191-.039.117-.144.207-.226.302-.185.215-.421.39-.6.61-.218.265-.346.589-.57.85-.055.064-.108.138-.187.173-.075.032-.245.021-.245.021zM102.558 39.164s-.193-.53-.327-.78a2.347 2.347 0 0 0-.224-.336 6.03 6.03 0 0 0-.569-.618 2.783 2.783 0 0 0-.331-.282c-.073-.05-.143-.134-.234-.132a.275.275 0 0 0-.215.136c-.032.057-.02.131.003.191.042.114.15.196.236.285.193.202.436.359.623.565.226.25.366.564.6.808.057.06.113.13.193.16.076.026.246.003.246.003z"/><path d="M107.3 40.04s-.262.073-.392.116c-.1.034-.23.035-.297.113-.046.055-.04.137-.037.206a.823.823 0 0 0 .102.354c.088.159.237.281.367.412.168.169.339.339.534.479.212.153.447.28.687.392.18.084.365.168.562.209.213.045.436.054.654.04.165-.01.331-.042.488-.094.213-.071.411-.18.602-.294.347-.207.683-.436.978-.704.128-.116.252-.241.34-.387.057-.096.148-.206.116-.31-.01-.032-.052-.045-.083-.061-.135-.068-.288-.102-.438-.138a3.011 3.011 0 0 0-.313-.052c-.1-.013-.3-.027-.3-.027s.009.199-.022.294a1.11 1.11 0 0 1-.198.34c-.174.222-.39.417-.614.596-.104.083-.215.16-.336.217-.145.068-.301.12-.46.144-.104.016-.21.012-.313-.001a1.826 1.826 0 0 1-.498-.132 1.477 1.477 0 0 1-.339-.221c-.222-.184-.454-.376-.597-.621-.088-.152-.109-.331-.144-.501-.026-.121-.048-.369-.048-.369z" style="stroke:#000;stroke-width:.29666996;stroke-linejoin:round;stroke-opacity:1"/><path style="stroke:#000;stroke-width:.8900097;stroke-linejoin:round;stroke-opacity:1" d="M108.71 40.056a.767.767 0 0 0-.201.07.402.402 0 0 0-.114.076.374.374 0 0 0-.066.111c-.038.088-.087.18-.081.274.006.1.043.208.12.275.07.06.176.078.271.08.101.004.216-.006.297-.064.078-.055.109-.154.14-.24a.693.693 0 0 0 .052-.318c-.01-.08-.036-.169-.1-.222-.048-.039-.12-.04-.184-.047a.461.461 0 0 0-.134.004"/><path d="M100.448 40.29s.266.054.396.088c.102.026.231.017.301.091.049.051.046.133.045.203a.854.854 0 0 1-.089.36c-.082.166-.225.3-.35.44a4.63 4.63 0 0 1-.516.516 4.484 4.484 0 0 1-.672.441 2.713 2.713 0 0 1-.553.25c-.21.06-.433.086-.651.087a1.934 1.934 0 0 1-.49-.059 2.998 2.998 0 0 1-.614-.25 5.83 5.83 0 0 1-1.002-.631 1.698 1.698 0 0 1-.354-.363c-.06-.091-.155-.195-.127-.301.008-.033.05-.05.08-.067.132-.078.284-.123.432-.169.102-.032.207-.054.311-.075.099-.02.299-.049.299-.049s-.002.2.03.293c.043.12.125.226.21.324.183.21.405.39.637.552.107.075.22.144.343.192.147.057.305.098.465.11.103.008.21-.003.312-.024.17-.035.34-.087.492-.167a1.55 1.55 0 0 0 .33-.246c.215-.2.44-.408.573-.663.082-.158.097-.339.126-.51a4.62 4.62 0 0 0 .034-.372z" style="stroke:#000;stroke-width:.29666996;stroke-linejoin:round;stroke-opacity:1"/><path style="stroke:#000;stroke-width:.8900097;stroke-linejoin:round;stroke-opacity:1" d="M99.04 40.406c.07.008.139.029.203.055a.38.38 0 0 1 .117.069c.031.03.05.068.069.105.041.085.094.174.091.268a.411.411 0 0 1-.11.284c-.067.065-.172.09-.267.1-.101.01-.216.008-.3-.044-.078-.05-.114-.145-.148-.23a.676.676 0 0 1-.063-.313c.008-.08.03-.172.092-.229.046-.042.118-.05.181-.06a.465.465 0 0 1 .135-.005"/><path style="fill:none;stroke:#000;stroke-width:.89008963;stroke-linecap:round;stroke-linejoin:round;stroke-opacity:1" d="M106.372 55.672s1.06-.63 1.365-1.14c.235-.393.36-.897.277-1.343-.14-.747-1.238-1.895-1.238-1.895M101.916 55.647s-1.08-.555-1.403-1.042c-.25-.376-.392-.87-.325-1.321.113-.756 1.17-1.981 1.17-1.981M108.683 46.74s.635.9.747 1.429c.105.493.094 1.045-.093 1.518-.16.402-.472.753-.825 1a3.419 3.419 0 0 1-1.735.606c-.54.03-1.11-.094-1.572-.369-.45-.267-.845-.687-1.044-1.175-.22-.539-.09-1.754-.09-1.754"/><path style="fill:none;stroke:#000;stroke-width:.89008963;stroke-linecap:round;stroke-linejoin:round;stroke-opacity:1" d="M99.293 46.892s-.603.944-.696 1.48c-.087.5-.057 1.05.147 1.51.172.389.498.717.859.939a3.319 3.319 0 0 0 1.754.483 2.898 2.898 0 0 0 1.557-.48c.44-.299.82-.746 1.001-1.247.2-.554.03-1.759.03-1.759"/><path style="fill:#000;stroke:none;stroke-width:.29393944px;stroke-linecap:butt;stroke-linejoin:miter;stroke-opacity:1" d="m104.209 51.217-2.4.102c-.051.935-.078 1.872-.083 2.81-.002.447 0 .897.066 1.337.066.44.199.873.43 1.217.282.417.692.678 1.118.817.282.092.575.135.867.127h.004c.292.008.585-.035.867-.127.426-.139.837-.4 1.118-.817.232-.344.364-.777.43-1.217.066-.44.069-.89.067-1.338a58.089 58.089 0 0 0-.083-2.81z"/><path transform="matrix(1 0 0 1.23422 195.514 -9.96)" style="fill:#03f;fill-opacity:1;stroke:none;stroke-width:.26458332px;stroke-linecap:butt;stroke-linejoin:miter;stroke-opacity:1" d="M-91.347 50.106h-1.655c-.064.47-.133.939-.207 1.407-.042.261-.085.524-.096.788-.012.265.01.534.096.785.153.447.514.815.952.993.454.184.966.168 1.449.083.212-.038.423-.089.62-.18.195-.09.375-.222.497-.4a1.28 1.28 0 0 0 .187-.458c.035-.162.049-.328.061-.494.04-.51.073-1.021.042-1.531a6.142 6.142 0 0 0-.124-.91l-1.822-.083z"/></g></svg>