<svg xmlns="http://www.w3.org/2000/svg" width="591" height="665" style="shape-rendering:geometricPrecision;text-rendering:geometricPrecision;image-rendering:optimizeQuality;fill-rule:evenodd;clip-rule:evenodd"><path style="opacity:1" fill="#fefefe" d="M-.5-.5h591v665H-.5V-.5z"/><path style="opacity:1" fill="#6f6f6f" d="M588.5 382.5V1.5H1.5v384C.5 257.334.167 129.001.5.5h589c.333 127.501 0 254.834-1 382z"/><path style="opacity:1" fill="#040303" d="M588.5 382.5c-7.24 104.032-54.573 183.865-142 239.5-83.689 47.668-170.689 54.668-261 21C94.252 603.41 35.418 535.576 9 439.5a328.74 328.74 0 0 1-7.5-54V1.5h587v381z"/><path style="opacity:1" fill="#fde200" d="M9.5 9.5c33.002-.167 66.002 0 99 .5a223079.34 223079.34 0 0 1 463 432c-14.006 50.358-39.339 94.025-76 131-.667.667-1.333.667-2 0a29.964 29.964 0 0 0-7-6L10 122.5c-.5-37.665-.667-75.332-.5-113z"/><path style="opacity:1" fill="#004796" d="M118.5 10.5c153.832-1 307.832-1.333 462-1 .167 125.667 0 251.334-.5 377a205.943 205.943 0 0 1-7.5 47 30247892.177 30247892.177 0 0 0-454-423z"/><path style="opacity:1" fill="#090703" d="M481.5 21.5a275.694 275.694 0 0 1 28 25.5c2.515-.216 4.849-.883 7-2L529 57.5c-.783 1.845-1.116 3.845-1 6a77.78 77.78 0 0 1 10 11 2926.851 2926.851 0 0 0 25.5 44.5 781.267 781.267 0 0 1-50-20 54.847 54.847 0 0 1-12-9.5l-39 44a7590.182 7590.182 0 0 0 76.5 69c.257 2.517-.41 4.85-2 7-5.09 7.092-11.424 12.759-19 17a2486.833 2486.833 0 0 0-74.5-71 4576.888 4576.888 0 0 0-62.5 70c-2.284 2.484-4.784 2.651-7.5.5-8.167-4.48-13.667-10.98-16.5-19.5l66.5-70.5a804.218 804.218 0 0 0-42-40.5 408.881 408.881 0 0 0-21 27 738.21 738.21 0 0 1-26-19.5c-1.829-1.113-2.663-2.613-2.5-4.5 19.805-28.31 42.972-53.643 69.5-76a479.223 479.223 0 0 1 25 27 268.28 268.28 0 0 0-28 27 2430.386 2430.386 0 0 0 43 39.5c.667.667 1.333.667 2 0a2399.394 2399.394 0 0 0 40-42.5 312.751 312.751 0 0 0-26-25.5 886.555 886.555 0 0 0 24-26.5z"/><path style="opacity:1" fill="#fbe100" d="M481.5 27.5a3340.372 3340.372 0 0 1 51.5 47 621.47 621.47 0 0 0 20.5 35.5 520.095 520.095 0 0 1-41-16 1590.267 1590.267 0 0 0-49-46 513.006 513.006 0 0 0 18-20.5zM399.5 28.5a4.932 4.932 0 0 1 3 .5 495.171 495.171 0 0 0 18 19.5c-23.183 20.179-43.516 42.846-61 68a287.236 287.236 0 0 1-22-18 521.753 521.753 0 0 1 29.5-37 1512.501 1512.501 0 0 0 32.5-33z"/><path style="opacity:1" fill="#010100" d="M39.5 32.5a12593.514 12593.514 0 0 1 176 152.5c34.492 1.669 58.326 18.502 71.5 50.5a133.74 133.74 0 0 1 3 11 3456.94 3456.94 0 0 1 97 101c14.721 16.734 31.221 31.234 49.5 43.5a123.505 123.505 0 0 0 31 12c16.333-.027 32.666-.027 49 0l42 42-66 17a3.647 3.647 0 0 0-1 1.5 87.45 87.45 0 0 0 6 11c-3.265 7.96-6.431 15.96-9.5 24a900.603 900.603 0 0 0-22.5-17.5 368.71 368.71 0 0 0-27 1 214.896 214.896 0 0 1-17.5-16.5l-12-30a944.85 944.85 0 0 1-29.5-22l-1 3a288.893 288.893 0 0 1 4.5 24 785.949 785.949 0 0 1-75.5-59.5 4123.588 4123.588 0 0 0-79-74 1607.34 1607.34 0 0 1 36.5 15.5c-.287-5.206-1.62-10.206-4-15l-40-40c-1.546-5.423-3.88-10.423-7-15a58493.676 58493.676 0 0 0-174.5-220z"/><path style="opacity:1" fill="#a99901" d="M514.5 51.5c.397-1.025 1.063-1.192 2-.5l7 7c-.667.667-1.333.667-2 0a63.697 63.697 0 0 0-7-6.5z"/><path style="opacity:1" fill="#fae100" d="M486.5 76.5c3.902 2.393 7.402 5.393 10.5 9 .667.667.667 1.333 0 2a1126.325 1126.325 0 0 1-37.5 42.5c-.667.667-1.333.667-2 0a70.588 70.588 0 0 0-10.5-9.5c-.667-.667-.667-1.333 0-2a2322.674 2322.674 0 0 0 39.5-42z"/><path style="opacity:1" fill="#fae000" d="M393.5 80.5a4.932 4.932 0 0 1 3 .5A11901.565 11901.565 0 0 0 534 203.5c-.126 2.598-1.126 4.931-3 7l-8.5 8.5c-1.544 1.187-3.211 1.52-5 1A11921.205 11921.205 0 0 0 385 92.5c-.667-.667-.667-1.333 0-2a100.192 100.192 0 0 0 8.5-10z"/><path style="opacity:1" fill="#003aa7" d="m11.5 133.5-2 246c-.167-82.667 0-165.334.5-248 .717.544 1.217 1.211 1.5 2z"/><path style="opacity:1" fill="#004695" d="M11.5 133.5c159.343 148.335 318.676 296.669 478 445-62.774 57.176-136.774 82.342-222 75.5C169.995 642.195 96.161 594.362 46 510.5c-22.921-40.688-35.088-84.354-36.5-131l2-246z"/><path style="opacity:1" fill="#fbe200" d="M426.5 139.5c4.572 3.063 8.739 6.73 12.5 11 .667 1 .667 2 0 3a9404.118 9404.118 0 0 1-61.5 68.5c-7.076-2.392-12.409-7.059-16-14a6328.75 6328.75 0 0 1 65-68.5z"/><path style="opacity:1" fill="#4c3f0b" d="M159.5 378.5c-.838.342-1.172 1.008-1 2a100.24 100.24 0 0 1-6.5-20 85.725 85.725 0 0 1 7.5 18z"/><path style="opacity:1" fill="#463905" d="m193.5 372.5-2 11v-16c.802-1.452 1.302-3.118 1.5-5 .498 3.317.665 6.65.5 10z"/><path style="opacity:1" fill="#3d320c" d="M225.5 383.5c.172-.992-.162-1.658-1-2a200.043 200.043 0 0 1 8-21c-1.278 7.845-3.611 15.511-7 23z"/><path style="opacity:1" fill="#9b8800" d="m159.5 378.5 4 11c.172.992-.162 1.658-1 2a87.673 87.673 0 0 0-4-10v-1c-.172-.992.162-1.658 1-2z"/><path style="opacity:1" fill="#352911" d="M228.5 393.5c.172-.992-.162-1.658-1-2 2-7.665 4.833-14.998 8.5-22a162.567 162.567 0 0 1-7.5 24z"/><path style="opacity:1" fill="#3d320d" d="M157.5 389.5a114.257 114.257 0 0 1 5 14c-.904.709-1.237 1.709-1 3h-1a1048.382 1048.382 0 0 0-11-35c.237-2.563.737-2.563 1.5 0a585.159 585.159 0 0 1 6.5 18z"/><path style="opacity:1" fill="#0b0615" d="M191.5 380.5v3c-.296 1.903-.963 3.57-2 5 .065-2.928.732-5.595 2-8z"/><path style="opacity:1" fill="#f3db00" d="M193.5 372.5c-.495 9.019 1.671 17.352 6.5 25 3.006 8.643.84 15.643-6.5 21-7.443-4.239-9.943-10.572-7.5-19a42.307 42.307 0 0 0 3.5-11c1.037-1.43 1.704-3.097 2-5l2-11z"/><path style="opacity:1" fill="#3f370e" d="M163.5 389.5c1.431 1.28 2.098 2.947 2 5-1.467-2.758-2.133-2.425-2 1-.934-1.068-1.268-2.401-1-4 .838-.342 1.172-1.008 1-2z"/><path style="opacity:1" fill="#14296d" d="M158.5 381.5a87.673 87.673 0 0 1 4 10c-.268 1.599.066 2.932 1 4 .904.709 1.237 1.709 1 3a346.974 346.974 0 0 1 6 20l-.5 1a81.316 81.316 0 0 0-2.5-3c-2.234-4.022-3.901-8.356-5-13a114.257 114.257 0 0 0-5-14c1.086-.12 1.753-.787 2-2a19.048 19.048 0 0 1-1-6z"/><path style="opacity:1" fill="#53480c" d="M226.5 391.5h1c.838.342 1.172 1.008 1 2a371.704 371.704 0 0 0-5 15c.369-2.493-.297-3.16-2-2 2.651-4.62 4.318-9.62 5-15z"/><path style="opacity:1" fill="#181408" d="M165.5 394.5c1.431 1.28 2.098 2.947 2 5-1.431-1.28-2.098-2.947-2-5z"/><path style="opacity:1" fill="#a19000" d="M224.5 381.5c.838.342 1.172 1.008 1 2v1a176.645 176.645 0 0 0-7 20l-2 2c0-.667-.333-1-1-1a5.727 5.727 0 0 0 1-3 196.38 196.38 0 0 0 8-21z"/><path style="opacity:1" fill="#3a2e0e" d="m233.5 399.5-6 15c.172-.992-.162-1.658-1-2a199.629 199.629 0 0 1 9.5-25l.5 1.5a42.83 42.83 0 0 0-3 10.5z"/><path style="opacity:1" fill="#a99600" d="M162.5 403.5c1.099 4.644 2.766 8.978 5 13 .188 2.706 1.188 5.039 3 7-.667 0-1 .333-1 1a10.165 10.165 0 0 1-3-3c-1.089-5.267-2.756-10.267-5-15-.237-1.291.096-2.291 1-3z"/><path style="opacity:1" fill="#3b2f0a" d="M158.5 409.5c-.838.342-1.172 1.008-1 2-1.997-4.989-3.997-9.989-6-15a41.213 41.213 0 0 1-1.5-9 175.456 175.456 0 0 1 8.5 22z"/><path style="opacity:1" fill="#132868" d="M225.5 384.5a51.569 51.569 0 0 0 1 7c-.682 5.38-2.349 10.38-5 15-.898 5.034-2.565 9.701-5 14-1.086-.12-1.753-.787-2-2a166.41 166.41 0 0 0 4-14 176.645 176.645 0 0 1 7-20z"/><path style="opacity:1" fill="#f3db00" d="M165.5 394.5c-.098 2.053.569 3.72 2 5 .049 2.599 1.049 4.766 3 6.5a110.363 110.363 0 0 1 18.5 12.5c1.411 2.15 2.245 4.484 2.5 7 .202 2.45-.131 4.783-1 7-.397 1.025-1.063 1.192-2 .5a386.473 386.473 0 0 0-15.5-10.5c-.975-8.765-3.808-16.765-8.5-24 .237-1.291-.096-2.291-1-3-.133-3.425.533-3.758 2-1z"/><path style="opacity:1" fill="#120e08" d="M216.5 402.5a5.727 5.727 0 0 1-1 3c-7.78 3.646-14.613 8.646-20.5 15a42.47 42.47 0 0 0-1.5 5h-2c-.255-2.516-1.089-4.85-2.5-7a110.363 110.363 0 0 0-18.5-12.5c-1.951-1.734-2.951-3.901-3-6.5 4.152 5.427 9.486 9.427 16 12-.45-8.293 1.55-15.96 6-23a42.307 42.307 0 0 1-3.5 11c-2.443 8.428.057 14.761 7.5 19 7.34-5.357 9.506-12.357 6.5-21-4.829-7.648-6.995-15.981-6.5-25a50.464 50.464 0 0 0-.5-10c-.198 1.882-.698 3.548-1.5 5a31.116 31.116 0 0 1 1-11 4.457 4.457 0 0 1 1.5 2l1 23a69.014 69.014 0 0 0 6 15 501.602 501.602 0 0 1 2.5 14 126.84 126.84 0 0 0 13-8z"/><path style="opacity:1" fill="#9c8c00" d="M223.5 408.5c-2.187 4.395-3.854 9.062-5 14l-2 2c0-.667-.333-1-1-1a5.727 5.727 0 0 0 1-3c2.435-4.299 4.102-8.966 5-14 1.703-1.16 2.369-.493 2 2z"/><path style="opacity:1" fill="#1a255e" d="M160.5 406.5h1c2.244 4.733 3.911 9.733 5 15a169.81 169.81 0 0 1 4 14c.061 2.221-.605 2.554-2 1a323.805 323.805 0 0 1-10-27c1.548-.321 2.215-1.321 2-3z"/><path style="opacity:1" fill="#1b1c40" d="M223.5 408.5c-.241 2.398.426 4.398 2 6 .098 2.053-.569 3.72-2 5a8.43 8.43 0 0 0-.5-4 39.189 39.189 0 0 0-4.5 7c1.146-4.938 2.813-9.605 5-14z"/><path style="opacity:1" fill="#8e7d00" d="M158.5 409.5a323.805 323.805 0 0 0 10 27v1c-.667 0-1 .333-1 1h-1a449.489 449.489 0 0 0-9-27c-.172-.992.162-1.658 1-2z"/><path style="opacity:1" fill="#3c310d" d="M226.5 435.5c.172-.992-.162-1.658-1-2a506.17 506.17 0 0 1 8-24 51.22 51.22 0 0 1 2.5-4 174.377 174.377 0 0 1-9.5 30z"/><path style="opacity:1" fill="#918101" d="M226.5 412.5c.838.342 1.172 1.008 1 2a100.508 100.508 0 0 0-6 18c-1.767 2.292-2.767 4.958-3 8h-1c0-.667-.333-1-1-1 1.23-1.797 1.896-3.797 2-6 2.187-4.395 3.854-9.062 5-14 1.431-1.28 2.098-2.947 2-5-.172-.992.162-1.658 1-2z"/><path style="opacity:1" fill="#3f330b" d="M153.5 411.5c3.018 8.723 6.018 17.389 9 26-.722-.418-1.222-1.084-1.5-2a2.428 2.428 0 0 0-.5 2 268.55 268.55 0 0 0-8-21 43.171 43.171 0 0 0-3-10c.346-1.196.846-1.196 1.5 0a38.715 38.715 0 0 0 2.5 5z"/><path style="opacity:1" fill="#34280d" d="M109.5 418.5a53.768 53.768 0 0 0 2 10c-.904.709-1.237 1.709-1 3a736.11 736.11 0 0 0-5-17.5c.832-.688 1.498-.521 2 .5.494 1.526 1.161 2.859 2 4z"/><path style="opacity:1" fill="#0c2c76" d="M109.5 418.5c.722.418 1.222 1.084 1.5 2l1-2c.103 2.819.603 4.819 1.5 6a861.216 861.216 0 0 1 7 25l2 13c.107 1.879-.393 2.212-1.5 1a167.518 167.518 0 0 1-5.5-19 112.672 112.672 0 0 1-4-16 53.768 53.768 0 0 1-2-10z"/><path style="opacity:1" fill="#102c74" d="M223.5 419.5c-1.146 4.938-2.813 9.605-5 14-1.058 1.1-1.892 2.434-2.5 4-.654 1.196-1.154 1.196-1.5 0a133.693 133.693 0 0 1 4-15 39.189 39.189 0 0 1 4.5-7 8.43 8.43 0 0 1 .5 4z"/><path style="opacity:1" fill="#110a09" d="M308.5 434.5c0-.667-.333-1-1-1a514.367 514.367 0 0 1 3-4l1 1a173.55 173.55 0 0 1-3 4z"/><path style="opacity:1" fill="#382c0f" d="M276.5 433.5c.065-.438-.101-.772-.5-1-.278.916-.778 1.582-1.5 2a105.835 105.835 0 0 0 3-14 73.972 73.972 0 0 1 3-7l1 1a390.983 390.983 0 0 1-5 19z"/><path style="opacity:1" fill="#20150b" d="M80.5 434.5c-.667 0-1 .333-1 1a35.491 35.491 0 0 1-4-5.5c2.663.152 4.33 1.652 5 4.5z"/><path style="opacity:1" fill="#12286d" d="M151.5 396.5c2.003 5.011 4.003 10.011 6 15a449.489 449.489 0 0 1 9 27 120.412 120.412 0 0 1 4 14.5l-.5 2.5c-.278-.916-.778-1.582-1.5-2-2.568-5.025-4.568-10.359-6-16-2.982-8.611-5.982-17.277-9-26 1.15 1.35 1.817 1.184 2-.5a71.324 71.324 0 0 1-4-14.5z"/><path style="opacity:1" fill="#37290b" d="M273.5 418.5c.624.417.957 1.084 1 2a242.418 242.418 0 0 1-4 15h-1c.867-5.801 2.2-11.467 4-17z"/><path style="opacity:1" fill="#473907" d="M121.5 448.5c-.667 0-1 .333-1 1a861.216 861.216 0 0 0-7-25 8.43 8.43 0 0 1 .5-4 430.722 430.722 0 0 1 7.5 28z"/><path style="opacity:1" fill="#7d6a01" d="M111.5 428.5a112.672 112.672 0 0 0 4 16l1 8-2 2c.302-2.559-.032-4.893-1-7a100.883 100.883 0 0 0-3-16c-.237-1.291.096-2.291 1-3z"/><path style="opacity:1" fill="#3a2e0c" d="M226.5 453.5c.172-.992-.162-1.658-1-2a262.13 262.13 0 0 1 10.5-29 151.625 151.625 0 0 1-9.5 31z"/><path style="opacity:1" fill="#574704" d="M269.5 435.5h1a161.173 161.173 0 0 1-5 21v-5c1.207-5.366 2.54-10.7 4-16z"/><path style="opacity:1" fill="#514306" d="M307.5 433.5c.667 0 1 .333 1 1-.763 1.868-1.763 3.535-3 5 0-.667-.333-1-1-1a18.924 18.924 0 0 0 3-5z"/><path style="opacity:1" fill="#102c76" d="M152.5 416.5a268.55 268.55 0 0 1 8 21 100.508 100.508 0 0 1 6 18 120.412 120.412 0 0 1 4 14.5l-.5 2.5c-.278-.916-.778-1.582-1.5-2-2.435-4.299-4.102-8.966-5-14a689.052 689.052 0 0 1-10-28c1.15 1.35 1.817 1.184 2-.5a44.575 44.575 0 0 1-3-11.5z"/><path style="opacity:1" fill="#171305" d="M221.5 432.5c-.233 3.042-1.233 5.708-3 8 .233-3.042 1.233-5.708 3-8z"/><path style="opacity:1" fill="#635709" d="M225.5 433.5c.838.342 1.172 1.008 1 2a118.779 118.779 0 0 1-5 15c.237-1.291-.096-2.291-1-3 1.693-4.752 3.36-9.419 5-14z"/><path style="opacity:1" fill="#170e1c" d="M276.5 436.5c.09 2.652-.576 4.985-2 7-.09-2.652.576-4.985 2-7z"/><path style="opacity:1" fill="#968500" d="M162.5 437.5c1.432 5.641 3.432 10.975 6 16v2h-2a100.508 100.508 0 0 0-6-18 2.428 2.428 0 0 1 .5-2c.278.916.778 1.582 1.5 2z"/><path style="opacity:1" fill="#f8e000" d="M216.5 439.5c.667 0 1 .333 1 1a90.892 90.892 0 0 0-5.5 18c-5.356 3.751-10.856 6.917-16.5 9.5-2.944-5.173-2.444-10.006 1.5-14.5a740.937 740.937 0 0 1 19.5-14z"/><path style="opacity:1" fill="#928102" d="m80.5 434.5 8 12c-.667 0-1 .333-1 1h-1c-2.306-3.983-4.64-7.983-7-12 0-.667.333-1 1-1z"/><path style="opacity:1" fill="#f9e100" d="M168.5 437.5c.011 1.517.677 2.684 2 3.5a110.363 110.363 0 0 1 18.5 12.5c2.374 4.394 3.041 9.06 2 14-.718.951-1.551 1.117-2.5.5a110.834 110.834 0 0 0-14.5-9.5c-1.254-7.035-3.421-13.702-6.5-20 0-.667.333-1 1-1z"/><path style="opacity:1" fill="#0c2e7b" d="M233.5 399.5a44.575 44.575 0 0 1-3 11.5l.5 1.5c.377-1.442 1.21-2.442 2.5-3a506.17 506.17 0 0 0-8 24c-1.64 4.581-3.307 9.248-5 14 0 .667-.333 1-1 1-1.435 2.098-2.602 4.431-3.5 7l-.5-2.5a341.279 341.279 0 0 1 3-12.5c1.767-2.292 2.767-4.958 3-8a100.508 100.508 0 0 1 6-18l6-15z"/><path style="opacity:1" fill="#41360d" d="M153.5 428.5a689.052 689.052 0 0 0 10 28c-1.425-1.531-2.091-1.198-2 1a307.024 307.024 0 0 1-11.5-35c1.459 1.932 2.625 3.932 3.5 6z"/><path style="opacity:1" fill="#241d10" d="M88.5 446.5a35.242 35.242 0 0 1 8 6c-3.52-.853-6.187-2.853-8-6z"/><path style="opacity:1" fill="#3c2f0d" d="M126.5 445.5a241.69 241.69 0 0 1 3 15c-.904.709-1.237 1.709-1 3a184.477 184.477 0 0 1-6.5-32c1.519 4.774 3.019 9.441 4.5 14z"/><path style="opacity:1" fill="#241f09" d="M86.5 447.5h1c.8 1.542 1.134 3.208 1 5-1.037-1.43-1.704-3.097-2-5z"/><path style="opacity:1" fill="#0a2a76" d="M273.5 418.5c.06-.543.393-.876 1-1a14.72 14.72 0 0 1 1.5 5c.278-.916.778-1.582 1.5-2a105.835 105.835 0 0 1-3 14c-.732 5.594-2.065 10.927-4 16a116.809 116.809 0 0 1-4.5 14 8.43 8.43 0 0 1-.5-4v-4c2.11-6.78 3.777-13.78 5-21a242.418 242.418 0 0 0 4-15c-.043-.916-.376-1.583-1-2z"/><path style="opacity:1" fill="#f1da00" d="M304.5 438.5c.667 0 1 .333 1 1-3.679 4.359-6.013 9.359-7 15-1.058 5.196-2.891 10.196-5.5 15-11.858 7.484-15.525 4.484-11-9a235.172 235.172 0 0 1 14.5-12 44.367 44.367 0 0 0 8-10z"/><path style="opacity:1" fill="#f9e100" d="M88.5 446.5c1.813 3.147 4.48 5.147 8 6 3.637 2.806 6.804 6.139 9.5 10 .789 3.591.622 7.091-.5 10.5-5.378 1.064-9.544-.769-12.5-5.5a150.71 150.71 0 0 1-3.5-11c.268-1.599-.066-2.932-1-4 .134-1.792-.2-3.458-1-5 0-.667.333-1 1-1z"/><path style="opacity:1" fill="#907c00" d="M121.5 448.5v1c.221 2.567.888 4.901 2 7-.134 1.792.199 3.458 1 5-.667 0-1 .333-1 1h-1l-2-13c0-.667.333-1 1-1z"/><path style="opacity:1" fill="#9a8700" d="M276.5 433.5v3c-1.424 2.015-2.09 4.348-2 7-.801 1.542-1.134 3.208-1 5-.961 1.765-1.295 3.765-1 6l-2 3v-7c1.935-5.073 3.268-10.406 4-16 .722-.418 1.222-1.084 1.5-2 .399.228.565.562.5 1z"/><path style="opacity:1" fill="#180e1e" d="M121.5 449.5c1.663 1.938 2.329 4.272 2 7-1.112-2.099-1.779-4.433-2-7z"/><path style="opacity:1" fill="#42350d" d="M262.5 449.5c-1.477 3.733-2.311 7.733-2.5 12-.383.556-.883.889-1.5 1 0-.667-.333-1-1-1a20382.9 20382.9 0 0 0 3-14c1.646-5.226 3.313-10.56 5-16-.325 5.953-1.325 11.953-3 18z"/><path style="opacity:1" fill="#3a2e0e" d="M56.5 456.5c-.667 0-1 .333-1 1l-2-1a32.634 32.634 0 0 0-4.5-4c-.667-.667-.667-1.333 0-2a68.884 68.884 0 0 1 7.5 6z"/><path style="opacity:1" fill="#40340a" d="m160.5 466.5-2-2a456.561 456.561 0 0 1-9-23l1-1a214.781 214.781 0 0 1 10 26z"/><path style="opacity:1" fill="#f4dd00" d="M272.5 454.5c4.929 6.862 7.262 14.529 7 23a1526.925 1526.925 0 0 1-5 6c-2.962-4.751-5.629-9.918-8-15.5a65.934 65.934 0 0 1 4-10.5l2-3z"/><path style="opacity:1" fill="#f2db00" d="M116.5 452.5a42.696 42.696 0 0 0 4 14.5 90.95 90.95 0 0 1-5.5 14.5c-.417 1.256-1.25 1.923-2.5 2a21.614 21.614 0 0 0-4-5c-.856-3.969-.689-7.969.5-12a96.798 96.798 0 0 0 5.5-12l2-2z"/><path style="opacity:1" fill="#6e5f04" d="m335.5 455.5-26 18 2-3a599.003 599.003 0 0 0 25-18.5c.667-.667 1.333-.667 2 0a14.698 14.698 0 0 0-3 3.5z"/><path style="opacity:1" fill="#938200" d="M163.5 456.5c.898 5.034 2.565 9.701 5 14-.067 1.459.266 2.792 1 4-.667 0-1 .333-1 1h-1c-1.231-6.032-3.231-11.699-6-17v-1c-.091-2.198.575-2.531 2-1z"/><path style="opacity:1" fill="#12276d" d="M129.5 443.5c1.223 7.22 2.89 14.22 5 21a180.285 180.285 0 0 1 4 21 4.934 4.934 0 0 1-.5 3 66.836 66.836 0 0 1-4.5-13c-1.778-4.772-3.111-9.772-4-15a241.69 241.69 0 0 0-3-15c.722.418 1.222 1.084 1.5 2 .21-1.558.71-2.891 1.5-4z"/><path style="opacity:1" fill="#3b2e0d" d="M256.5 444.5c1.113 1.446 1.28 3.113.5 5a228.461 228.461 0 0 1-6.5 25c.065-.438-.101-.772-.5-1-.232 1.237-.732 2.237-1.5 3l4-18a107.135 107.135 0 0 0 4-14z"/><path style="opacity:1" fill="#17205e" d="M262.5 449.5c.239 1.967-.094 3.801-1 5.5l1 .5a173.55 173.55 0 0 1 3-4v3l-3 8a2614.039 2614.039 0 0 0-3.5 12c-.601 1.859-1.434 2.192-2.5 1l2-13c.617-.111 1.117-.444 1.5-1 .189-4.267 1.023-8.267 2.5-12z"/><path style="opacity:1" fill="#31250e" d="M129.5 443.5c.617.111 1.117.444 1.5 1a531.642 531.642 0 0 1 4.5 18c-.838.342-1.172 1.008-1 2a161.173 161.173 0 0 1-5-21z"/><path style="opacity:1" fill="#f2db00" d="M220.5 447.5c.904.709 1.237 1.709 1 3-1.52 2.39-2.52 5.057-3 8-1.392 1.773-2.559 3.773-3.5 6a49.674 49.674 0 0 1-3.5 12.5 87.384 87.384 0 0 0-15 9.5c-3.808-7.727-2.141-14.227 5-19.5a55.685 55.685 0 0 0 15.5-10.5 22.394 22.394 0 0 0 2.5-8c.667 0 1-.333 1-1z"/><path style="opacity:1" fill="#978500" d="M265.5 454.5v6c-.961 1.765-1.295 3.765-1 6l-2-2v-2l3-8z"/><path style="opacity:1" fill="#907d00" d="M257.5 461.5c.667 0 1 .333 1 1l-2 13h-2a105.87 105.87 0 0 0 3-14z"/><path style="opacity:1" fill="#0f2570" d="m53.5 456.5 2 1a197.042 197.042 0 0 0 20 14c.762 1.762 2.096 2.762 4 3l1 2a59.42 59.42 0 0 0 8 7.5 2.429 2.429 0 0 1-2 .5c-1.562-.233-2.895-.9-4-2a252.403 252.403 0 0 0-30-23c-1.315-1.395-.981-2.395 1-3z"/><path style="opacity:1" fill="#807005" d="M55.5 457.5c0-.667.333-1 1-1a208.916 208.916 0 0 1 19 15 197.042 197.042 0 0 1-20-14z"/><path style="opacity:1" fill="#3f320c" d="M248.5 456.5c.597.235.93.735 1 1.5a1053.416 1053.416 0 0 0-9 38.5 8.43 8.43 0 0 0-.5-4c-.21 1.558-.71 2.891-1.5 4a1502.49 1502.49 0 0 0 9-37 5.727 5.727 0 0 1 1-3z"/><path style="opacity:1" fill="#0d0912" d="M220.5 464.5c-.207 2.741-1.207 5.074-3 7 .207-2.741 1.207-5.074 3-7z"/><path style="opacity:1" fill="#0c2873" d="M335.5 455.5c-.453.958-1.119 1.792-2 2.5.228.399.562.565 1 .5a432.598 432.598 0 0 1-28 22 9.82 9.82 0 0 0-4 3 2.428 2.428 0 0 1-2-.5 62.957 62.957 0 0 1 7-6.5l2-3 26-18z"/><path style="opacity:1" fill="#8f7c00" d="M129.5 460.5c.889 5.228 2.222 10.228 4 15v2l-2 1c.284-1.915-.049-3.581-1-5a27.13 27.13 0 0 0-2-10c-.237-1.291.096-2.291 1-3z"/><path style="opacity:1" fill="#40350d" d="M224.5 477.5c.091-2.198-.575-2.531-2-1a417.546 417.546 0 0 1 14-36 298.901 298.901 0 0 1-12 37z"/><path style="opacity:1" fill="#463b09" d="M52.5 459.5a252.403 252.403 0 0 1 30 23h-1a4.934 4.934 0 0 1-3-.5 484.672 484.672 0 0 0-21-16.5 32.845 32.845 0 0 0-6-5.5c.228-.399.562-.565 1-.5z"/><path style="opacity:1" fill="#f4dd00" d="M124.5 461.5c-.067 1.459.266 2.792 1 4a156.432 156.432 0 0 1 2.5 18 103.59 103.59 0 0 1-6.5 12 14.972 14.972 0 0 1-3.5-3c-1.534-4.211-1.867-8.544-1-13a46.49 46.49 0 0 0 6.5-17c0-.667.333-1 1-1z"/><path style="opacity:1" fill="#f4dc00" d="m262.5 464.5 2 2a160.862 160.862 0 0 0 6.5 15c.497 2.646.664 5.313.5 8-1.14 2.596-2.973 4.596-5.5 6a119.916 119.916 0 0 1-7-13 449.767 449.767 0 0 1 3.5-18z"/><path style="opacity:1" fill="#44390b" d="M334.5 458.5c1.528.017 2.028.684 1.5 2a53.326 53.326 0 0 0-9.5 8 163.686 163.686 0 0 1-18 12h-2a432.598 432.598 0 0 0 28-22z"/><path style="opacity:1" fill="#201b09" d="M113.5 447.5c.968 2.107 1.302 4.441 1 7a96.798 96.798 0 0 1-5.5 12c-1.189 4.031-1.356 8.031-.5 12h-2c-1.1-1.058-2.434-1.892-4-2.5a327.41 327.41 0 0 1-23-1.5l-2-3c5.788 2.185 11.788 2.518 18 1-4.559-4.339-6.559-9.672-6-16a150.71 150.71 0 0 0 3.5 11c2.956 4.731 7.122 6.564 12.5 5.5 1.122-3.409 1.289-6.909.5-10.5-2.696-3.861-5.863-7.194-9.5-10 5.243 2.24 9.243 5.907 12 11 3.676-4.695 5.343-10.028 5-16z"/><path style="opacity:1" fill="#b2a300" d="M75.5 471.5h2l2 3c-1.904-.238-3.238-1.238-4-3z"/><path style="opacity:1" fill="#120e08" d="M273.5 448.5c.155 5.621 1.988 10.621 5.5 15 3.835-7.335 9.668-12.335 17.5-15a235.172 235.172 0 0 0-14.5 12c-4.525 13.484-.858 16.484 11 9 2.609-4.804 4.442-9.804 5.5-15 .371 6.843-1.629 12.843-6 18 6.644 1.587 12.977.92 19-2l-2 3c-7.798.605-15.464 1.271-23 2-2.698.345-4.698 1.678-6 4-.838-.342-1.172-1.008-1-2 .262-8.471-2.071-16.138-7-23-.295-2.235.039-4.235 1-6z"/><path style="opacity:1" fill="#152265" d="M256.5 444.5c.06-.543.393-.876 1-1a20.2 20.2 0 0 1 1.5 6c.278-.916.778-1.582 1.5-2a20382.9 20382.9 0 0 1-3 14 105.87 105.87 0 0 1-3 14v2c-.617.111-1.117.444-1.5 1a36.224 36.224 0 0 1-4 11 4.934 4.934 0 0 1-.5-3 76.246 76.246 0 0 1 2-12 228.461 228.461 0 0 0 6.5-25c.78-1.887.613-3.554-.5-5z"/><path style="opacity:1" fill="#756402" d="m309.5 473.5-2 3h-1c-6.479-.991-13.146-1.324-20-1 7.536-.729 15.202-1.395 23-2z"/><path style="opacity:1" fill="#150b23" d="M160.5 472.5c1.572 2.715 2.572 5.715 3 9-1.972-2.584-2.972-5.584-3-9z"/><path style="opacity:1" fill="#ab9a00" d="M225.5 451.5c.838.342 1.172 1.008 1 2a234.563 234.563 0 0 0-8 23l-2 2c.172-.992-.162-1.658-1-2 1.1-1.105 1.767-2.438 2-4v-1c1.793-1.926 2.793-4.259 3-7a152.896 152.896 0 0 0 5-13z"/><path style="opacity:1" fill="#fae200" d="M79.5 474.5a327.41 327.41 0 0 0 23 1.5c1.566.608 2.9 1.442 4 2.5 1.961 2.298 2.961 4.965 3 8a183.368 183.368 0 0 0-18-1.5c-2.991-3.839-6.658-6.672-11-8.5l-1-2z"/><path style="opacity:1" fill="#756202" d="M135.5 462.5v1l5 20c-.838.342-1.172 1.008-1 2h-1a180.285 180.285 0 0 0-4-21c-.172-.992.162-1.658 1-2z"/><path style="opacity:1" fill="#fbe300" d="M286.5 475.5c6.854-.324 13.521.009 20 1-4.543 1.872-8.21 4.872-11 9-5.526-.321-10.86.012-16 1-1.548-.321-2.215-1.321-2-3 1.474-.936 2.474-2.27 3-4 1.302-2.322 3.302-3.655 6-4z"/><path style="opacity:1" fill="#092776" d="M326.5 468.5c-.453.958-1.119 1.792-2 2.5a2.428 2.428 0 0 0 2 .5 384.797 384.797 0 0 1-21 16 87.088 87.088 0 0 0-12 9 2.428 2.428 0 0 1-2-.5 62.957 62.957 0 0 1 7-6.5l10-9a163.686 163.686 0 0 0 18-12z"/><path style="opacity:1" fill="#142566" d="M161.5 458.5c2.769 5.301 4.769 10.968 6 17a361.481 361.481 0 0 0 4 14.5l-1 .5c-.825-1.86-1.825-3.526-3-5a243.118 243.118 0 0 1-7-19c1.086-.12 1.753-.787 2-2a19.048 19.048 0 0 1-1-6z"/><path style="opacity:1" fill="#f5de00" d="M169.5 474.5a250.054 250.054 0 0 1 20.5 15c3.213 5.134 3.213 10.134 0 15a131.744 131.744 0 0 0-16-11c-.913-6.331-2.747-12.331-5.5-18 0-.667.333-1 1-1z"/><path style="opacity:1" fill="#887501" d="M250.5 474.5a76.246 76.246 0 0 0-2 12h-2v-2a35.15 35.15 0 0 0 2-8c.768-.763 1.268-1.763 1.5-3 .399.228.565.562.5 1z"/><path style="opacity:1" fill="#0b2775" d="M57.5 465.5a484.672 484.672 0 0 1 21 16.5 4.934 4.934 0 0 0 3 .5l8 7c1.67 2.502 3.836 4.502 6.5 6 .692.937.525 1.603-.5 2a1122.956 1122.956 0 0 1-34-25.5c-.937-.692-1.603-.525-2 .5-.543-.06-.876-.393-1-1a6.802 6.802 0 0 1 3-1.5c-1.692-1.307-3.025-2.807-4-4.5z"/><path style="opacity:1" fill="#443809" d="M326.5 471.5c1.025.397 1.192 1.063.5 2-2.328 1.164-4.162 2.83-5.5 5a101.382 101.382 0 0 0-14 10c-.342-.838-1.008-1.172-2-1a384.797 384.797 0 0 0 21-16z"/><path style="opacity:1" fill="#493b09" d="M147.5 490.5c-.667 0-1 .333-1 1-.617-.111-1.117-.444-1.5-1-1.409-9.958-3.576-19.625-6.5-29v-2c-.065-.438.101-.772.5-1a565.302 565.302 0 0 1 8.5 32z"/><path style="opacity:1" fill="#635601" d="M279.5 477.5c-.172.992.162 1.658 1 2-.526 1.73-1.526 3.064-3 4a23.72 23.72 0 0 1-4 5l-1-.5c1.819-1.415 2.485-2.915 2-4.5 1.696-2.025 3.363-4.025 5-6z"/><path style="opacity:1" fill="#a49200" d="M224.5 477.5v1c-2.435 4.299-4.102 8.966-5 14l-2 2c0-.667-.333-1-1-1a54.32 54.32 0 0 0 4-11c1.238-1.714 1.905-3.714 2-6 1.425-1.531 2.091-1.198 2 1z"/><path style="opacity:1" fill="#f7e000" d="M254.5 475.5h1c1.015 6.043 3.182 11.71 6.5 17 .867 4.456.534 8.789-1 13-1.264 2.107-3.097 3.107-5.5 3a12.93 12.93 0 0 0-.5-5 32.046 32.046 0 0 1-4.5-11 47.884 47.884 0 0 0 4-15v-2z"/><path style="opacity:1" fill="#17140c" d="M163.5 481.5c2.101 3.297 3.435 6.963 4 11-.617-.111-1.117-.444-1.5-1a163.198 163.198 0 0 1-2.5-10z"/><path style="opacity:1" fill="#15100e" d="M306.5 476.5h1a62.957 62.957 0 0 0-7 6.5 2.428 2.428 0 0 0 2 .5c-.843 1.673-2.176 2.84-4 3.5a72.367 72.367 0 0 1-12 .5h-2l11-2c2.79-4.128 6.457-7.128 11-9z"/><path style="opacity:1" fill="#100c04" d="M270.5 450.5v7a65.934 65.934 0 0 0-4 10.5c2.371 5.582 5.038 10.749 8 15.5.485 1.585-.181 3.085-2 4.5l1 .5a23.72 23.72 0 0 0 4-5c-.215 1.679.452 2.679 2 3 .667 0 1 .333 1 1-3.378.523-6.378 1.856-9 4v-2a32.462 32.462 0 0 0-.5-8 160.862 160.862 0 0 1-6.5-15c-.295-2.235.039-4.235 1-6a8.43 8.43 0 0 0 .5 4c1.83-4.684 3.33-9.351 4.5-14z"/><path style="opacity:1" fill="#473b07" d="M279.5 486.5c5.14-.988 10.474-1.321 16-1l-11 2h-4c0-.667-.333-1-1-1z"/><path style="opacity:1" fill="#453b0e" d="M59.5 472.5c.397-1.025 1.063-1.192 2-.5a1122.956 1122.956 0 0 0 34 25.5 2.429 2.429 0 0 0-2 .5 14.694 14.694 0 0 1 3 3.5 5754.731 5754.731 0 0 1-29-22 982.08 982.08 0 0 0-8-7z"/><path style="opacity:1" fill="#ac9900" d="M81.5 482.5h1c1.105 1.1 2.438 1.767 4 2 .558 1.29 1.558 2.123 3 2.5a84.9 84.9 0 0 0 13 .5l-12 2h-1l-8-7z"/><path style="opacity:1" fill="#f8e000" d="M102.5 487.5c8.456-.778 13.79 2.888 16 11a162.597 162.597 0 0 1-18-.5c-2.912-3.419-6.246-6.252-10-8.5l12-2z"/><path style="opacity:1" fill="#15102e" d="M224.5 478.5c-.509 5.203-2.176 9.87-5 14 .898-5.034 2.565-9.701 5-14z"/><path style="opacity:1" fill="#f6df00" d="M280.5 487.5h6l10 2a107.125 107.125 0 0 0-9 8.5c-5.991.499-11.991.666-18 .5a29.417 29.417 0 0 1 2-7c2.622-2.144 5.622-3.477 9-4z"/><path style="opacity:1" fill="#9f8f03" d="M306.5 480.5h2l-10 9h-2l-10-2a72.367 72.367 0 0 0 12-.5c1.824-.66 3.157-1.827 4-3.5a9.82 9.82 0 0 1 4-3z"/><path style="opacity:1" fill="#082873" d="M138.5 461.5c2.924 9.375 5.091 19.042 6.5 29 .383.556.883.889 1.5 1 .204 3.018.537 6.018 1 9 .107 1.879-.393 2.212-1.5 1a204.094 204.094 0 0 1-5.5-18l-5-20c2.166 2.54 3.166 1.873 3-2z"/><path style="opacity:1" fill="#372a0e" d="M147.5 469.5a561.214 561.214 0 0 1 8 32c-.768-.763-1.268-1.763-1.5-3a4.934 4.934 0 0 0-.5 3 639.297 639.297 0 0 1-7-29.5c.028-1.07.361-1.903 1-2.5z"/><path style="opacity:1" fill="#052c7d" d="M248.5 456.5c.06-.543.393-.876 1-1a10.258 10.258 0 0 1 1.5 4c.383-.556.883-.889 1.5-1l-4 18a35.15 35.15 0 0 1-2 8 334.14 334.14 0 0 0-4.5 16l-1 1a4.934 4.934 0 0 1-.5-3v-2a1053.416 1053.416 0 0 1 9-38.5c-.07-.765-.403-1.265-1-1.5z"/><path style="opacity:1" fill="#1c1807" d="M164.5 398.5c4.692 7.235 7.525 15.235 8.5 24a386.473 386.473 0 0 1 15.5 10.5c.937.692 1.603.525 2-.5a168.522 168.522 0 0 1 2 6 246.697 246.697 0 0 1 2-7c.311.978.978 1.645 2 2a133.076 133.076 0 0 1 15.5-11 77.355 77.355 0 0 1 4.5-16l2-2a166.41 166.41 0 0 1-4 14c.247 1.213.914 1.88 2 2a5.727 5.727 0 0 1-1 3 122.819 122.819 0 0 0-19.5 13c-3.169 5.098-3.169 10.098 0 15a208.092 208.092 0 0 1 16-11 137.295 137.295 0 0 1 4.5-16l2-2a133.693 133.693 0 0 0-4 15c.346 1.196.846 1.196 1.5 0 .608-1.566 1.442-2.9 2.5-4-.104 2.203-.77 4.203-2 6a740.937 740.937 0 0 0-19.5 14c-3.944 4.494-4.444 9.327-1.5 14.5 5.644-2.583 11.144-5.749 16.5-9.5a90.892 90.892 0 0 1 5.5-18h1a341.279 341.279 0 0 0-3 12.5l.5 2.5c.898-2.569 2.065-4.902 3.5-7a22.394 22.394 0 0 1-2.5 8 55.685 55.685 0 0 1-15.5 10.5c-7.141 5.273-8.808 11.773-5 19.5a87.384 87.384 0 0 1 15-9.5 49.674 49.674 0 0 0 3.5-12.5c.941-2.227 2.108-4.227 3.5-6a341.279 341.279 0 0 0-3 12.5c-.176 2.359.491 2.859 2 1.5-.233 1.562-.9 2.895-2 4a491.334 491.334 0 0 0-17.5 11c-3.287 4.482-4.287 9.482-3 15 .423 1.456 1.256 1.956 2.5 1.5a411.182 411.182 0 0 1 15.5-11.5 75.293 75.293 0 0 1 3.5-14l2-2a57.294 57.294 0 0 0-2.5 14 46.368 46.368 0 0 1 4.5-8 54.32 54.32 0 0 1-4 11 189.274 189.274 0 0 1-16 9.5c-2.402 2.671-4.402 5.505-6 8.5-.282-1.278-.949-2.278-2-3h-1c-5.892-5.626-12.558-10.293-20-14-2.483-2.437-3.817-5.437-4-9 1.175 1.474 2.175 3.14 3 5l1-.5a361.481 361.481 0 0 1-4-14.5h1c2.753 5.669 4.587 11.669 5.5 18a131.744 131.744 0 0 1 16 11c3.213-4.866 3.213-9.866 0-15a250.054 250.054 0 0 0-20.5-15c-.734-1.208-1.067-2.541-1-4 .722.418 1.222 1.084 1.5 2l.5-2.5a120.412 120.412 0 0 0-4-14.5h1a75.791 75.791 0 0 1 6.5 20 208.092 208.092 0 0 0 16 11c3.306-7.907 1.472-14.407-5.5-19.5-6.283-2.63-11.617-6.463-16-11.5v-2c.722.418 1.222 1.084 1.5 2l.5-2.5a120.412 120.412 0 0 0-4-14.5h1c3.079 6.298 5.246 12.965 6.5 20 5.09 2.794 9.923 5.96 14.5 9.5.949.617 1.782.451 2.5-.5 1.041-4.94.374-9.606-2-14a110.363 110.363 0 0 0-18.5-12.5c-1.323-.816-1.989-1.983-2-3.5v-1c1.395 1.554 2.061 1.221 2-1a169.81 169.81 0 0 0-4-14 10.165 10.165 0 0 0 3 3 235.915 235.915 0 0 0 4.5 16 47.34 47.34 0 0 0 12.5 7.5c3.905 4.331 5.572 3.165 5-3.5.246-3.838-.92-7.172-3.5-10a491.334 491.334 0 0 0-17.5-11c-1.812-1.961-2.812-4.294-3-7a81.316 81.316 0 0 1 2.5 3l.5-1a346.974 346.974 0 0 0-6-20z"/><path style="opacity:1" fill="#b2a300" d="M192.5 487.5c1.086.12 1.753.787 2 2-.925 2.349-1.925 2.183-3-.5.556-.383.889-.883 1-1.5z"/><path style="opacity:1" fill="#f8e000" d="M215.5 476.5c.838.342 1.172 1.008 1 2a75.293 75.293 0 0 0-3.5 14 411.182 411.182 0 0 0-15.5 11.5c-1.244.456-2.077-.044-2.5-1.5-1.287-5.518-.287-10.518 3-15a491.334 491.334 0 0 1 17.5-11z"/><path style="opacity:1" fill="#d8ce00" d="M192.5 469.5c1.098 1.101 1.265 2.434.5 4-1.768-1.182-1.935-2.515-.5-4z"/><path style="opacity:1" fill="#f8e000" d="M167.5 455.5h1c4.383 5.037 9.717 8.87 16 11.5 6.972 5.093 8.806 11.593 5.5 19.5a208.092 208.092 0 0 1-16-11 75.791 75.791 0 0 0-6.5-20z"/><path style="opacity:1" fill="#615502" d="M191.5 425.5h2c-.175 2.121.159 4.121 1 6a246.697 246.697 0 0 0-2 7 168.522 168.522 0 0 0-2-6c.869-2.217 1.202-4.55 1-7z"/><path style="opacity:1" fill="#f7e000" d="M215.5 423.5c.667 0 1 .333 1 1a137.295 137.295 0 0 0-4.5 16 208.092 208.092 0 0 0-16 11c-3.169-4.902-3.169-9.902 0-15a122.819 122.819 0 0 1 19.5-13z"/><path style="opacity:1" fill="#f7df00" d="M170.5 423.5a491.334 491.334 0 0 1 17.5 11c2.58 2.828 3.746 6.162 3.5 10 .572 6.665-1.095 7.831-5 3.5a47.34 47.34 0 0 1-12.5-7.5 235.915 235.915 0 0 1-4.5-16c0-.667.333-1 1-1z"/><path style="opacity:1" fill="#f7e000" d="M215.5 405.5c.667 0 1 .333 1 1a77.355 77.355 0 0 0-4.5 16 133.076 133.076 0 0 0-15.5 11c-1.022-.355-1.689-1.022-2-2-.841-1.879-1.175-3.879-1-6a42.47 42.47 0 0 1 1.5-5c5.887-6.354 12.72-11.354 20.5-15z"/><path style="opacity:1" fill="#092976" d="M321.5 478.5a14.698 14.698 0 0 1-3 3.5c2.862 2.558 2.529 4.391-1 5.5.453-.958 1.119-1.792 2-2.5-.667-.667-1.333-.667-2 0a1119.33 1119.33 0 0 0-30 22.5c-1.527-.073-2.527.594-3 2a2.428 2.428 0 0 1-2-.5 83.084 83.084 0 0 1 8-7.5c2.698-.345 4.698-1.678 6-4a118.91 118.91 0 0 1 11-9 101.382 101.382 0 0 1 14-10z"/><path style="opacity:1" fill="#112a74" d="M147.5 469.5c-.639.597-.972 1.43-1 2.5a639.297 639.297 0 0 0 7 29.5 27.13 27.13 0 0 1 2 10 4.934 4.934 0 0 1-.5 3 76.999 76.999 0 0 1-4.5-11 61.399 61.399 0 0 1-3-13 565.302 565.302 0 0 0-8.5-32c-.399.228-.565.562-.5 1-.904-.709-1.237-1.709-1-3h3c.85 4.732 2.016 9.399 3.5 14 .924-1.995 2.09-2.328 3.5-1z"/><path style="opacity:1" fill="#a99800" d="m158.5 464.5 2 2a243.118 243.118 0 0 0 7 19c.183 3.563 1.517 6.563 4 9-.838.342-1.172 1.008-1 2l-3-4c-.565-4.037-1.899-7.703-4-11-.428-3.285-1.428-6.285-3-9l-2-8z"/><path style="opacity:1" fill="#45370b" d="M233.5 503.5c.133-3.425-.533-3.758-2-1a680.92 680.92 0 0 0 6-25 49.83 49.83 0 0 0 2.5-7l.5 3a483.727 483.727 0 0 0-7 30z"/><path style="opacity:1" fill="#70620a" d="M305.5 487.5c.992-.172 1.658.162 2 1a118.91 118.91 0 0 0-11 9l-5 2 2-3a87.088 87.088 0 0 1 12-9z"/><path style="opacity:1" fill="#493d0a" d="M67.5 485.5c.75-1.073 1.75-1.24 3-.5a820.072 820.072 0 0 1 26 20.5c-.667 0-1 .333-1 1a115.968 115.968 0 0 1-15-11 49.064 49.064 0 0 0-13-10z"/><path style="opacity:1" fill="#10266b" d="M247.5 459.5a1502.49 1502.49 0 0 1-9 37c.268 1.599-.066 2.932-1 4-1.287 3.813-2.287 7.813-3 12a31.147 31.147 0 0 0-2 2c-.607-.124-.94-.457-1-1a44.327 44.327 0 0 1 2-10 483.727 483.727 0 0 1 7-30l-.5-3a49.83 49.83 0 0 1-2.5 7c.204-3.018.537-6.018 1-9h4a4.934 4.934 0 0 0 .5 3c1.21-4.223 2.71-8.223 4.5-12z"/><path style="opacity:1" fill="#9c8a00" d="M240.5 496.5v2c-.961 1.765-1.295 3.765-1 6l-2-2v-2c.934-1.068 1.268-2.401 1-4 .79-1.109 1.29-2.442 1.5-4a8.43 8.43 0 0 1 .5 4z"/><path style="opacity:1" fill="#f2db00" d="M95.5 497.5c.847 1.466 2.18 2.3 4 2.5l20 1c4.224 2.292 6.557 5.792 7 10.5a145.053 145.053 0 0 1-17-.5c-3.389-4.57-7.723-7.736-13-9.5a14.694 14.694 0 0 0-3-3.5 2.429 2.429 0 0 1 2-.5z"/><path style="opacity:1" fill="#160f16" d="M296.5 497.5c-1.302 2.322-3.302 3.655-6 4l1-2 5-2z"/><path style="opacity:1" fill="#574b08" d="M317.5 487.5c-2.249.58-3.915 1.913-5 4a172.156 172.156 0 0 0-22 16.5 10.134 10.134 0 0 1-4 1.5l1-2a1119.33 1119.33 0 0 1 30-22.5c.667-.667 1.333-.667 2 0-.881.708-1.547 1.542-2 2.5z"/><path style="opacity:1" fill="#f2dc00" d="m291.5 499.5-1 2c-4.681 2.167-8.681 5.333-12 9.5-5.991.499-11.991.666-18 .5.849-4.856 3.515-8.356 8-10.5 7.7-.268 15.367-.768 23-1.5z"/><path style="opacity:1" fill="#0b2573" d="M67.5 479.5a5754.731 5754.731 0 0 0 29 22 89.843 89.843 0 0 0 8.5 7c.692.937.525 1.603-.5 2-2.649-1.64-5.316-3.307-8-5a820.072 820.072 0 0 0-26-20.5c-1.25-.74-2.25-.573-3 .5-1.15-1.767-.483-2.933 2-3.5-1.256-.417-1.923-1.25-2-2.5z"/><path style="opacity:1" fill="#867400" d="M233.5 503.5a44.327 44.327 0 0 0-2 10h-2a79.88 79.88 0 0 0 2-11c1.467-2.758 2.133-2.425 2 1z"/><path style="opacity:1" fill="#4f4209" d="M311.5 498.5a243.308 243.308 0 0 0-29 22l-6 3 2-3a438.776 438.776 0 0 0 31-23.5c1.316-.528 1.983-.028 2 1.5z"/><path style="opacity:1" fill="#4b3f09" d="M80.5 498.5a341.748 341.748 0 0 1 24 20 180.978 180.978 0 0 1-19-13 89.868 89.868 0 0 0-8.5-7c-.667-.667-.667-1.333 0-2a18.476 18.476 0 0 0 3.5 2z"/><path style="opacity:1" fill="#0f2771" d="M80.5 495.5a115.968 115.968 0 0 0 15 11 58.509 58.509 0 0 1 10 8 62.957 62.957 0 0 1 7 6.5 2.428 2.428 0 0 1-2 .5l-6-3a341.748 341.748 0 0 0-24-20v-3z"/><path style="opacity:1" fill="#ba0" d="M147.5 490.5a61.399 61.399 0 0 0 3 13v4c-1.562.233-2.895.9-4 2 .66-2.316 1.327-4.649 2-7-.043-.916-.376-1.583-1-2a104.618 104.618 0 0 1-1-9c0-.667.333-1 1-1z"/><path style="opacity:1" fill="#120e03" d="M237.5 500.5v2c.18 3.786-.82 7.119-3 10 .713-4.187 1.713-8.187 3-12z"/><path style="opacity:1" fill="#151108" d="m167.5 492.5 3 4a819.353 819.353 0 0 0 4.5 17c3.87 7.454 9.537 9.787 17 7 .607-4.037.44-8.037-.5-12h1c1.051.722 1.718 1.722 2 3-1.139 11.647 3.195 14.147 13 7.5a18.778 18.778 0 0 0 4.5-5.5 144.166 144.166 0 0 1 5.5-19l2-2a162.85 162.85 0 0 1-7.5 24c-4.003 4.918-9.169 7.585-15.5 8v12a133.155 133.155 0 0 0 1 23c.607-.124.94-.457 1-1a179.353 179.353 0 0 1 12.5-33c2.925-1.518 5.258-.851 7 2a472.877 472.877 0 0 0 2 25 56.268 56.268 0 0 0 2.5 7l8-11c-7.94-6.106-9.606-13.439-5-22-1.784 6.402-.95 12.402 2.5 18 4.692 2.875 7.859 1.542 9.5-4 .667 0 1 .333 1 1-5.164 6.982-3.331 10.649 5.5 11 7.383-1.368 13.216-5.201 17.5-11.5a10.134 10.134 0 0 1 4-1.5c-4.903 5.397-10.57 9.897-17 13.5a43.145 43.145 0 0 1-5 1.5 1716.4 1716.4 0 0 0-10-3c.219-1.175-.114-2.175-1-3-5.03 4.726-7.863 10.393-8.5 17 .708-.881 1.542-1.547 2.5-2a319.364 319.364 0 0 1-2 5l1 2a188.71 188.71 0 0 1 15-10 121.925 121.925 0 0 1-14 12c-.886.825-1.219 1.825-1 3-2.283.108-4.283.941-6 2.5a74.475 74.475 0 0 0-10 13c.667.667 1.333.667 2 0a288.863 288.863 0 0 1 17-12.5 337.94 337.94 0 0 1-20 16.5 59.118 59.118 0 0 0-11.5 15.5c-2.139 1.269-4.305 1.269-6.5 0a184.035 184.035 0 0 0-9-13.5 337.94 337.94 0 0 1-20-16.5 160.038 160.038 0 0 1 16.5 12 2.428 2.428 0 0 0 .5-2c-3.187-3.031-5.853-6.531-8-10.5a29.964 29.964 0 0 1-7-6c-.949-.617-1.782-.451-2.5.5l-1-3a79.954 79.954 0 0 1-11.5-10 69.472 69.472 0 0 1 12 8c1.075-2.311 1.075-4.644 0-7 2.521.972 3.354-.028 2.5-3a183.542 183.542 0 0 0-7.5-10.5c-.983-.591-1.65-.257-2 1a14.093 14.093 0 0 1 1 3.5c-.958-.453-1.792-1.119-2.5-2-6.896 4.128-13.396 3.462-19.5-2a75.906 75.906 0 0 0-12-11 5.727 5.727 0 0 1 3 1 297.094 297.094 0 0 0 16 12.5c3.872.891 7.538.391 11-1.5.952-1.545 1.285-3.212 1-5 0-.667.333-1 1-1 1.159 1.877 2.826 2.377 5 1.5 4.704-4.883 6.204-10.717 4.5-17.5-2.354-4.033-3.52-8.366-3.5-13v-3a432.604 432.604 0 0 1 6 22c-.212 5.757-2.545 10.424-7 14a78.697 78.697 0 0 0 6.5 10 155.862 155.862 0 0 0 6-33c2.423-2.494 4.756-2.494 7 0a728.963 728.963 0 0 1 12.5 35 324.95 324.95 0 0 0 1-36c-9.17-.667-15.337-5.334-18.5-14a182.65 182.65 0 0 0-4.5-18z"/><path style="opacity:1" fill="#f0de00" d="M192.5 508.5c-.219-1.175.114-2.175 1-3 1.298 1.552.965 2.552-1 3z"/><path style="opacity:1" fill="#f6de00" d="M171.5 494.5c7.442 3.707 14.108 8.374 20 14a31.337 31.337 0 0 1 .5 12c-7.463 2.787-13.13.454-17-7a819.353 819.353 0 0 1-4.5-17c-.172-.992.162-1.658 1-2z"/><path style="opacity:1" fill="#f7df00" d="M216.5 493.5c.667 0 1 .333 1 1a144.166 144.166 0 0 0-5.5 19 18.778 18.778 0 0 1-4.5 5.5c-9.805 6.647-14.139 4.147-13-7.5 1.598-2.995 3.598-5.829 6-8.5a189.274 189.274 0 0 0 16-9.5z"/><path style="opacity:1" fill="#f3db00" d="m237.5 502.5 2 2a132.483 132.483 0 0 0 6.5 14c1.007 4.611.34 8.945-2 13-1.241 1.921-2.741 2.254-4.5 1a96.275 96.275 0 0 0-5.5-12 18.163 18.163 0 0 1 .5-8c2.18-2.881 3.18-6.214 3-10z"/><path style="opacity:1" fill="#1c1508" d="m287.5 507.5-1 2h-2c.473-1.406 1.473-2.073 3-2z"/><path style="opacity:1" fill="#8d7c00" d="M155.5 501.5c.555 3.897 1.555 7.563 3 11v3l-2 2c.295-2.235-.039-4.235-1-6a27.13 27.13 0 0 0-2-10 4.934 4.934 0 0 1 .5-3c.232 1.237.732 2.237 1.5 3z"/><path style="opacity:1" fill="#0d2570" d="M312.5 491.5a14.698 14.698 0 0 1-3 3.5 4.934 4.934 0 0 0 3 .5c.237 1.291-.096 2.291-1 3-.017-1.528-.684-2.028-2-1.5a438.776 438.776 0 0 1-31 23.5c-1.644.866-3.311 1.366-5 1.5a126.4 126.4 0 0 0 10-8.5l3-4a10.134 10.134 0 0 0 4-1.5 172.156 172.156 0 0 1 22-16.5z"/><path style="opacity:1" fill="#9d8900" d="M95.5 506.5c0-.667.333-1 1-1 2.684 1.693 5.351 3.36 8 5 .111.617.444 1.117 1 1.5 7.179.171 14.179.671 21 1.5-6.854-.324-13.521.009-20 1h-1a58.509 58.509 0 0 0-10-8z"/><path style="opacity:1" fill="#a28d00" d="M284.5 509.5h2l-3 4a5.727 5.727 0 0 0-3 1c-6.145-.99-12.478-1.323-19-1a216.796 216.796 0 0 1 21-1.5c.881-.708 1.547-1.542 2-2.5z"/><path style="opacity:1" fill="#f8e100" d="M106.5 514.5c6.479-.991 13.146-1.324 20-1 5.475 1.611 7.975 5.278 7.5 11a162.87 162.87 0 0 0-17.5-1.5c-2.912-3.419-6.246-6.252-10-8.5z"/><path style="opacity:1" fill="#473c0a" d="M84.5 510.5c.06-.543.393-.876 1-1a335.282 335.282 0 0 1 28 22l1 2a13526.358 13526.358 0 0 1-30-23z"/><path style="opacity:1" fill="#7d6f06" d="m104.5 518.5 6 3 2 3 1 2a91.143 91.143 0 0 1-9-8z"/><path style="opacity:1" fill="#1b1606" d="M262.5 462.5v2a449.767 449.767 0 0 0-3.5 18 119.916 119.916 0 0 0 7 13c2.527-1.404 4.36-3.404 5.5-6v2a29.417 29.417 0 0 0-2 7c6.009.166 12.009-.001 18-.5a107.125 107.125 0 0 1 9-8.5h2a62.957 62.957 0 0 0-7 6.5 2.428 2.428 0 0 0 2 .5l-2 3c-7.633.732-15.3 1.232-23 1.5-4.485 2.144-7.151 5.644-8 10.5 6.009.166 12.009-.001 18-.5 3.319-4.167 7.319-7.333 12-9.5a83.084 83.084 0 0 0-8 7.5 2.428 2.428 0 0 0 2 .5c-.453.958-1.119 1.792-2 2.5-7.179.171-14.179.671-21 1.5-5.923 1.57-8.59 5.237-8 11a166.115 166.115 0 0 1 17-1.5c2.912-3.419 6.246-6.252 10-8.5a5.727 5.727 0 0 1 3-1 126.4 126.4 0 0 1-10 8.5c1.689-.134 3.356-.634 5-1.5l-2 3c-1.256-.039-2.256.461-3 1.5l-21 1c-4.976 1.802-7.643 5.302-8 10.5 5.676.166 11.343-.001 17-.5a51.057 51.057 0 0 0 9-8 10.134 10.134 0 0 1 4-1.5 62.957 62.957 0 0 0-7 6.5 2.428 2.428 0 0 0 2 .5c-1.62 2.484-3.953 3.984-7 4.5a659.845 659.845 0 0 0-17 0 42.796 42.796 0 0 0-7 3.5c0-.667-.333-1-1-1a50.464 50.464 0 0 0-.5-10c-3.262-5.29-5.428-10.957-6.5-17h1c.06.543.393.876 1 1a31.147 31.147 0 0 1 2-2 18.163 18.163 0 0 0-.5 8 96.275 96.275 0 0 1 5.5 12c1.759 1.254 3.259.921 4.5-1 2.34-4.055 3.007-8.389 2-13a132.483 132.483 0 0 1-6.5-14c-.295-2.235.039-4.235 1-6a4.934 4.934 0 0 0 .5 3l1-1a334.14 334.14 0 0 1 4.5-16v2c-.295 6.687-1.962 13.02-5 19 2.34 5.337 4.673 10.67 7 16 5.648-3.862 7.481-9.195 5.5-16-3.911-5.804-6.078-12.137-6.5-19h1a4.934 4.934 0 0 0 .5 3 36.224 36.224 0 0 0 4-11c.383-.556.883-.889 1.5-1a47.884 47.884 0 0 1-4 15 32.046 32.046 0 0 0 4.5 11 12.93 12.93 0 0 1 .5 5c2.403.107 4.236-.893 5.5-3 1.534-4.211 1.867-8.544 1-13-3.318-5.29-5.485-10.957-6.5-17h1c1.066 1.192 1.899.859 2.5-1 1.192-4.123 2.359-8.123 3.5-12z"/><path style="opacity:1" fill="#fae200" d="M261.5 513.5c6.522-.323 12.855.01 19 1-3.754 2.248-7.088 5.081-10 8.5-5.718.211-11.385.711-17 1.5-.59-5.763 2.077-9.43 8-11z"/><path style="opacity:1" fill="#d3c000" d="M256.5 510.5c2.473.447 2.64 1.447.5 3a4.934 4.934 0 0 1-.5-3z"/><path style="opacity:1" fill="#d3c100" d="M265.5 498.5c1.273.577 1.273 1.243 0 2-.963-.47-.963-1.137 0-2z"/><path style="opacity:1" fill="#f3db00" d="M246.5 486.5h1c.422 6.863 2.589 13.196 6.5 19 1.981 6.805.148 12.138-5.5 16-2.327-5.33-4.66-10.663-7-16 3.038-5.98 4.705-12.313 5-19z"/><path style="opacity:1" fill="#f7df00" d="M158.5 515.5c-.02 4.634 1.146 8.967 3.5 13 1.704 6.783.204 12.617-4.5 17.5-2.174.877-3.841.377-5-1.5-2.754-4.241-3.587-8.908-2.5-14a59.262 59.262 0 0 0 6.5-13l2-2z"/><path style="opacity:1" fill="#030108" d="M228.5 516.5c.18 3.786-.82 7.119-3 10 .63-3.548 1.63-6.881 3-10z"/><path style="opacity:1" fill="#f4dd00" d="M229.5 513.5h1c1.072 6.043 3.238 11.71 6.5 17 .498 3.317.665 6.65.5 10-1.641 5.542-4.808 6.875-9.5 4-3.45-5.598-4.284-11.598-2.5-18 2.18-2.881 3.18-6.214 3-10a5.727 5.727 0 0 0 1-3z"/><path style="opacity:1" fill="#4c410a" d="M271.5 533.5h-2a135.603 135.603 0 0 1 10-7 6.547 6.547 0 0 0 3-3 341.138 341.138 0 0 0 18-13.5c.832-.688 1.498-.521 2 .5a280.854 280.854 0 0 1-31 23z"/><path style="opacity:1" fill="#c1b100" d="M248.5 523.5c1.837.139 2.17.806 1 2-.798-.457-1.131-1.124-1-2z"/><path style="opacity:1" fill="#121437" d="M282.5 520.5c-.453.958-1.119 1.792-2 2.5a2.428 2.428 0 0 0 2 .5 6.547 6.547 0 0 1-3 3c.131-.876-.202-1.543-1-2-1.122 1.13-2.456 1.797-4 2l2-3 6-3z"/><path style="opacity:1" fill="#f1da00" d="m276.5 523.5-2 3a10.134 10.134 0 0 0-4 1.5 51.057 51.057 0 0 1-9 8c-5.657.499-11.324.666-17 .5.357-5.198 3.024-8.698 8-10.5l21-1c.744-1.039 1.744-1.539 3-1.5z"/><path style="opacity:1" fill="#0f236a" d="M85.5 505.5a180.978 180.978 0 0 0 19 13 91.143 91.143 0 0 0 9 8c.667 0 1 .333 1 1 2.26 2.15 4.593 4.317 7 6.5a2.428 2.428 0 0 1-2 .5l-6-3a335.282 335.282 0 0 0-28-22c-.607.124-.94.457-1 1-.543-.06-.876-.393-1-1 1.13-1.122 1.797-2.456 2-4z"/><path style="opacity:1" fill="#f4dd00" d="M112.5 524.5a327.398 327.398 0 0 0 23 1.5c4.485 2.144 7.151 5.644 8 10.5a162.597 162.597 0 0 1-18-.5c-2.991-3.839-6.658-6.672-11-8.5 0-.667-.333-1-1-1l-1-2z"/><path style="opacity:1" fill="#1c1706" d="M115.5 444.5a167.518 167.518 0 0 0 5.5 19c1.107 1.212 1.607.879 1.5-1h1a46.49 46.49 0 0 1-6.5 17c-.867 4.456-.534 8.789 1 13a14.972 14.972 0 0 0 3.5 3 103.59 103.59 0 0 0 6.5-12 156.432 156.432 0 0 0-2.5-18 91.036 91.036 0 0 0 4.5 12 8.43 8.43 0 0 0 .5-4c.951 1.419 1.284 3.085 1 5a74.41 74.41 0 0 1-6.5 15c-1.007 4.611-.34 8.945 2 13 1.11 1.537 2.61 2.203 4.5 2a80.267 80.267 0 0 1 6-16 47.763 47.763 0 0 1-4-15v-2a66.836 66.836 0 0 0 4.5 13 4.934 4.934 0 0 0 .5-3h1c.019 1.56.352 3.06 1 4.5a177.106 177.106 0 0 0-8 20.5c.176 4.687 2.176 8.354 6 11a194.531 194.531 0 0 0 7-16.5 59.661 59.661 0 0 1-5-21.5 204.094 204.094 0 0 0 5.5 18c1.107 1.212 1.607.879 1.5-1 .624.417.957 1.084 1 2-.673 2.351-1.34 4.684-2 7-5.076 6.317-6.243 13.317-3.5 21 1.264 2.107 3.097 3.107 5.5 3a284.502 284.502 0 0 1 5-15.5 136.3 136.3 0 0 0-3-10.5v-4a76.999 76.999 0 0 0 4.5 11 4.934 4.934 0 0 0 .5-3c.961 1.765 1.295 3.765 1 6a59.262 59.262 0 0 1-6.5 13c-1.087 5.092-.254 9.759 2.5 14-.667 0-1 .333-1 1-2.297-3.787-5.631-6.287-10-7.5-6.004-.3-12.004-.134-18 .5-1.639-.973-2.973-2.306-4-4a2.428 2.428 0 0 0 2-.5 401.014 401.014 0 0 1-7-6.5c4.342 1.828 8.009 4.661 11 8.5 5.991.499 11.991.666 18 .5-.849-4.856-3.515-8.356-8-10.5a327.398 327.398 0 0 1-23-1.5l-2-3a2.428 2.428 0 0 0 2-.5 62.957 62.957 0 0 0-7-6.5h1c3.754 2.248 7.088 5.081 10 8.5 5.916.19 11.749.69 17.5 1.5.475-5.722-2.025-9.389-7.5-11a216.796 216.796 0 0 0-21-1.5c-.556-.383-.889-.883-1-1.5 1.025-.397 1.192-1.063.5-2a89.843 89.843 0 0 1-8.5-7c5.277 1.764 9.611 4.93 13 9.5 5.657.499 11.324.666 17 .5-.443-4.708-2.776-8.208-7-10.5l-20-1c-1.82-.2-3.153-1.034-4-2.5 1.025-.397 1.192-1.063.5-2-2.664-1.498-4.83-3.498-6.5-6h1c3.754 2.248 7.088 5.081 10 8.5 5.991.499 11.991.666 18 .5-2.21-8.112-7.544-11.778-16-11a84.9 84.9 0 0 1-13-.5c-1.442-.377-2.442-1.21-3-2.5a2.429 2.429 0 0 0 2-.5 59.42 59.42 0 0 1-8-7.5c4.342 1.828 8.009 4.661 11 8.5 6.08.209 12.081.709 18 1.5.722-.418 1.222-1.084 1.5-2 3.716 5.243 4.216 4.91 1.5-1 1.25-.077 2.083-.744 2.5-2a90.95 90.95 0 0 0 5.5-14.5 42.696 42.696 0 0 1-4-14.5l-1-8z"/><path style="opacity:1" fill="#c2ad00" d="M137.5 523.5c1.725.343 2.225 1.343 1.5 3-1.039-.744-1.539-1.744-1.5-3z"/><path style="opacity:1" fill="#9e9100" d="M128.5 510.5c1.495-.085 2.495.581 3 2-1.896 1.139-2.896.473-3-2z"/><path style="opacity:1" fill="#f7df00" d="M150.5 507.5a136.3 136.3 0 0 1 3 10.5 284.502 284.502 0 0 0-5 15.5c-2.403.107-4.236-.893-5.5-3-2.743-7.683-1.576-14.683 3.5-21 1.105-1.1 2.438-1.767 4-2z"/><path style="opacity:1" fill="#f2db00" d="M140.5 483.5a59.661 59.661 0 0 0 5 21.5 194.531 194.531 0 0 1-7 16.5c-3.824-2.646-5.824-6.313-6-11a177.106 177.106 0 0 1 8-20.5 11.187 11.187 0 0 1-1-4.5c-.172-.992.162-1.658 1-2z"/><path style="opacity:1" fill="#f5dd00" d="M133.5 477.5a47.763 47.763 0 0 0 4 15 80.267 80.267 0 0 0-6 16c-1.89.203-3.39-.463-4.5-2-2.34-4.055-3.007-8.389-2-13a74.41 74.41 0 0 0 6.5-15l2-1z"/><path style="opacity:1" fill="#615303" d="M106.5 478.5h2a21.614 21.614 0 0 1 4 5c2.716 5.91 2.216 6.243-1.5 1-.278.916-.778 1.582-1.5 2-.039-3.035-1.039-5.702-3-8z"/><path style="opacity:1" fill="#102677" d="M279.5 526.5a135.603 135.603 0 0 0-10 7 2.428 2.428 0 0 1-2-.5 62.957 62.957 0 0 1 7-6.5c1.544-.203 2.878-.87 4-2 .798.457 1.131 1.124 1 2z"/><path style="opacity:1" fill="#f0d900" d="M212.5 526.5c1.517.011 2.684.677 3.5 2 .206 15.195 3.039 29.862 8.5 44-.502 1.021-1.168 1.188-2 .5a25.55 25.55 0 0 1-5.5-6.5 149.797 149.797 0 0 1-6-27l-1 11a549.517 549.517 0 0 0-12 29 64.218 64.218 0 0 1 0-16 444.659 444.659 0 0 1 14.5-37z"/><path style="opacity:1" fill="#a09000" d="m113.5 531.5 6 3c1.027 1.694 2.361 3.027 4 4v1a5.727 5.727 0 0 0-3-1 16.635 16.635 0 0 0-6-5l-1-2z"/><path style="opacity:1" fill="#c3b200" d="M239.5 536.5c1.837.139 2.17.806 1 2-.798-.457-1.131-1.124-1-2z"/><path style="opacity:1" fill="#f3db00" d="M151.5 545.5c.285 1.788-.048 3.455-1 5-3.462 1.891-7.128 2.391-11 1.5-5.495-4-10.829-8.166-16-12.5v-1c5.996-.634 11.996-.8 18-.5 4.369 1.213 7.703 3.713 10 7.5z"/><path style="opacity:1" fill="#eed700" d="M269.5 533.5h2a25.619 25.619 0 0 1-6 6 10.134 10.134 0 0 0-4 1.5c-4.284 6.299-10.117 10.132-17.5 11.5-8.831-.351-10.664-4.018-5.5-11a42.796 42.796 0 0 1 7-3.5 659.845 659.845 0 0 1 17 0c3.047-.516 5.38-2.016 7-4.5z"/><path style="opacity:1" fill="#f1db00" d="M189.5 569.5c.319 4.863-.014 9.53-1 14a680.005 680.005 0 0 0-11.5-34l-1-10a93.127 93.127 0 0 1-8 28 21.53 21.53 0 0 1-6 5 273.745 273.745 0 0 0 7-25 177.217 177.217 0 0 0 2-20c3.915-1.789 6.248-.456 7 4a859.032 859.032 0 0 1 11.5 38z"/><path style="opacity:1" fill="#001641" d="m196.5 536.5 2 22c-.06.543-.393.876-1 1a133.155 133.155 0 0 1-1-23z"/><path style="opacity:1" fill="#e3cf00" d="M191.5 523.5h4c.245 28.679-.088 57.346-1 86h-3v-86z"/><path style="opacity:1" fill="#191411" d="M154.5 553.5c1.406.473 2.073 1.473 2 3-1.406-.473-2.073-1.473-2-3z"/><path style="opacity:1" fill="#e9d700" d="M160.5 562.5c.073-1.527-.594-2.527-2-3 .073-1.527-.594-2.527-2-3 .073-1.527-.594-2.527-2-3a14.093 14.093 0 0 0-1-3.5c.35-1.257 1.017-1.591 2-1a183.542 183.542 0 0 1 7.5 10.5c.854 2.972.021 3.972-2.5 3z"/><path style="opacity:1" fill="#013f90" d="M175.5 552.5c4.698 10.252 8.531 20.919 11.5 32 .997 3.301 1.33 6.634 1 10a337.282 337.282 0 0 1-17-26 62.158 62.158 0 0 1 4.5-16z"/><path style="opacity:1" fill="#014191" d="M210.5 552.5c.617.111 1.117.444 1.5 1a50.788 50.788 0 0 0 4.5 15 621.926 621.926 0 0 1-18.5 28 25.238 25.238 0 0 1 0-10 686.973 686.973 0 0 1 12.5-34z"/><path style="opacity:1" fill="#e6d300" d="M233.5 551.5a2117.87 2117.87 0 0 0-7 12c-.958.453-1.792 1.119-2.5 2 .637-6.607 3.47-12.274 8.5-17 .886.825 1.219 1.825 1 3z"/><path style="opacity:1" fill="#181208" d="M148.5 561.5a16.076 16.076 0 0 1-5-2c-1.717 1.168-2.384 2.835-2 5-3.133-4.103-2.133-6.27 3-6.5 1.593.949 2.926 2.115 4 3.5z"/><path style="opacity:1" fill="#1d1809" d="M158.5 559.5c1.406.473 2.073 1.473 2 3-1.406-.473-2.073-1.473-2-3z"/><path style="opacity:1" fill="#eed900" d="M234.5 592.5v1a11.445 11.445 0 0 1-3 5c-2.398-5.938-2.398-11.938 0-18 2.949-3.894 4.782-8.227 5.5-13a12.804 12.804 0 0 0-3 6c-2.191 1.333-4.024 3-5.5 5a288.863 288.863 0 0 0-17 12.5c-.667.667-1.333.667-2 0a74.475 74.475 0 0 1 10-13c1.717-1.559 3.717-2.392 6-2.5-.219-1.175.114-2.175 1-3a121.925 121.925 0 0 0 14-12 20.69 20.69 0 0 1 5-1 12.93 12.93 0 0 1-.5 5c-5.577 8.566-9.077 17.899-10.5 28z"/><path style="opacity:1" fill="#3e3a01" d="M189.5 569.5c1.314 4.848 1.314 9.848 0 15-.607-.124-.94-.457-1-1 .986-4.47 1.319-9.137 1-14z"/><path style="opacity:1" fill="#1e190e" d="M141.5 564.5c7.454 10.014 11.788 21.348 13 34a592.495 592.495 0 0 1-5.5-18 173.663 173.663 0 0 1-7.5-16z"/><path style="opacity:1" fill="#f0db00" d="M148.5 561.5a79.954 79.954 0 0 0 11.5 10l1 3c.718-.951 1.551-1.117 2.5-.5a29.964 29.964 0 0 0 7 6c2.147 3.969 4.813 7.469 8 10.5a2.428 2.428 0 0 1-.5 2 160.038 160.038 0 0 0-16.5-12c-.762-1.762-2.096-2.762-4-3-2.803-2.917-5.137-6.25-7-10l-1 1a86.778 86.778 0 0 0 6 11v2c2.128 5.561 2.461 11.228 1 17h-2c-1.212-12.652-5.546-23.986-13-34-.384-2.165.283-3.832 2-5a16.076 16.076 0 0 0 5 2z"/><path style="opacity:1" fill="#241e06" d="M157.5 577.5c-1.333 0-2 .667-2 2a86.778 86.778 0 0 1-6-11l1-1c1.863 3.75 4.197 7.083 7 10z"/><path style="opacity:1" fill="#151107" d="M231.5 580.5a4.934 4.934 0 0 0-.5-3c-.671.752-1.504 1.086-2.5 1 1.476-2 3.309-3.667 5.5-5a12.804 12.804 0 0 1 3-6c-.718 4.773-2.551 9.106-5.5 13z"/><path style="opacity:1" fill="#ead700" d="M217.5 570.5c.978.311 1.645.978 2 2a428.998 428.998 0 0 1-21.5 33c-.706-2.471-.373-4.805 1-7a827.458 827.458 0 0 1 18.5-28z"/><path style="opacity:1" fill="#1a160d" d="M234.5 592.5c1.423-10.101 4.923-19.434 10.5-28a12.93 12.93 0 0 0 .5-5 20.69 20.69 0 0 0-5 1c3.139-4.184 5.472-3.85 7 1a180.517 180.517 0 0 0-13 31z"/><path style="opacity:1" fill="#1f1712" d="M155.5 581.5c2.36 2.411 3.36 5.411 3 9 .118 2.986-.548 5.652-2 8 1.461-5.772 1.128-11.439-1-17z"/><path style="opacity:1" fill="#e9d600" d="M178.5 590.5a85.56 85.56 0 0 0-11.5-18c.25-3.443 1.584-3.776 4-1a337.282 337.282 0 0 0 17 26c1.373 2.195 1.706 4.529 1 7a232.4 232.4 0 0 0-10.5-14z"/><path style="opacity:1" fill="#110c22" d="M234.5 593.5c.47 2.846-.363 5.179-2.5 7a2.428 2.428 0 0 1-.5-2 11.445 11.445 0 0 0 3-5z"/></svg>