<svg xmlns="http://www.w3.org/2000/svg" height="466" width="399"><defs><clipPath><path d="m 3650 5865 h 582 v 683.67 h -582 v -683.67 z"/></clipPath></defs><path d="m 6 6 h 385 v 250 c 0 130 -80.48 203.96 -192.5 204 -112.02 0.041 -191.5 -75 -191.5 -205 z" fill="#0f47af"/><path d="m 199.5 229.12 c -42.498 0 -77.22 34.688 -77.22 77.24 0 42.547 34.721 77.2 77.22 77.2 42.498 0 77.22 -34.654 77.22 -77.2 0 -42.547 -34.721 -77.24 -77.22 -77.24 z m 0 20.657 c 31.437 0 56.672 25.23 56.672 56.58 0 31.351 -25.23 56.58 -56.672 56.58 -31.437 0 -56.638 -25.23 -56.638 -56.58 0 -31.351 25.2 -56.58 56.638 -56.58 z" color="#000" stroke-width="3" fill="#fcdd09" stroke="#000"/><path d="m 198.2 7.89 c -65.05 62.67 -126.48 130.75 -192.07 192.41 c 0.011 40.31 1.689 79.85 7.605 113.16 l 184.68 -185.35 l 184.65 183.98 c 9.165 -37.792 6.767 -75.935 6.75 -114.12 z" fill="#da121a"/><g fill="#fff"><g transform="matrix(0.70839 0.70582 -0.70582 0.70839 0 0)"><path d="m 188.47 -134.31 h 42.5 v 42.5 h -42.5 z"/><path d="m 145.97 -91.81 h 42.5 v 42.5 h -42.5 z"/><path d="m 273.47 -134.31 h 42.5 v 42.5 h -42.5 z"/><path d="m 230.97 -91.81 h 42.5 v 42.5 h -42.5 z"/><path d="m 358.47 -134.31 h 42.5 v 42.5 h -42.5 z"/><path d="m 315.97 -91.81 h 42.5 v 42.5 h -42.5 z"/></g><path d="m 388.08 257.08 l -9.13 -9.1 l 9.952 -9.988 c -0.181 0.014 -0.822 19.08 -0.822 19.08 z"/><path transform="matrix(0.70839 0.70582 -0.70582 0.70839 0 0)" d="m 400.97 -91.81 h 42.5 v 42.5 h -42.5 z"/><path d="m 13.645 313.54 l 4.786 -4.803 l -7.201 -7.175 c 0.469 4.157 1.551 9.853 2.415 11.978 z"/><path transform="matrix(0.70582 -0.70839 -0.70839 -0.70582 0 0)" d="m -163.2 -230.97 h 42.5 v 42.5 h -42.5 z"/><path d="m 5.523 261.48 l 12.798 -12.845 l -12.572 -12.527 c 0 0 -0.856 25.462 -0.226 25.372 z"/><g transform="matrix(0.70582 -0.70839 -0.70839 -0.70582 0 0)"><path d="m -78.2 -230.97 h 42.5 v 42.5 h -42.5 z"/><path d="m -120.7 -188.47 h 42.5 v 42.5 h -42.5 z"/><path d="m 6.8 -230.97 h 42.5 v 42.5 h -42.5 z"/><path d="m -35.7 -188.47 h 42.5 v 42.5 h -42.5 z"/></g><path d="m 384.11 313.19 l -5.143 -5.02 l 7.818 -8.01 c -0.695 5.834 -1.461 9.844 -2.675 13.03 z"/></g><g fill="none" stroke="#000"><g stroke-linejoin="round" stroke-linecap="round" stroke-width="3"><path d="m 389.93 198.2 l -191.62 -190.07 c -65.05 62.67 -126.48 130.75 -192.07 192.41"/><path d="m 13.848 313.7 l 184.68 -185.35 l 184.65 183.98"/><path d="m 227.84 37.679 l -29.28 29.19 l -29.1 -28.453 m 216.98 259.68 l -8.444 8.728 m 12.82 -69.915 l -40.831 40.449 m 28.553 -88.2 l -59.02 58.47 m 28.737 -88.76 l -59.02 58.47 m 29.476 -88.76 l -59.02 58.47 m 28.83 -88.57 l -59.02 58.47 m -218.62 141.84 l 8.444 8.728 m -12.82 -69.915 l 40.831 40.449 m -28.553 -88.2 l 59.02 58.47 m -28.737 -88.76 l 59.02 58.47 m -29.476 -88.76 l 59.02 58.47 m -28.83 -88.57 l 59.02 58.47 m 90.68 -89.13 l -59.947 59.58 m -59.963 -59.34 l 59.947 59.58 m 191.66 128.82 l -191.62 -190.07 c -65.05 62.67 -126.48 130.75 -192.07 192.41"/></g><path d="m 6 6 h 385 v 250 c 0 130 -80.48 203.96 -192.5 204 c -112.02 0.041 -191.5 -75 -191.5 -205 z" stroke-width="6"/></g></svg>