<?xml version="1.0" encoding="UTF-8" standalone="no"?>
<!-- Created with Inkscape (http://www.inkscape.org/) -->

<svg
   xmlns:dc="http://purl.org/dc/elements/1.1/"
   xmlns:cc="http://creativecommons.org/ns#"
   xmlns:rdf="http://www.w3.org/1999/02/22-rdf-syntax-ns#"
   xmlns:svg="http://www.w3.org/2000/svg"
   xmlns="http://www.w3.org/2000/svg"
   xmlns:sodipodi="http://sodipodi.sourceforge.net/DTD/sodipodi-0.dtd"
   xmlns:inkscape="http://www.inkscape.org/namespaces/inkscape"
   width="149.73839mm"
   height="177.70107mm"
   viewBox="0 0 149.73838 177.70107"
   version="1.1"
   id="svg865"
   inkscape:version="0.92.5 (2060ec1f9f, 2020-04-08)"
   sodipodi:docname="DEU Hasselbach COA.svg">
  <defs
     id="defs859">
    <inkscape:path-effect
       effect="spiro"
       id="path-effect2177"
       is_visible="true" />
    <inkscape:path-effect
       effect="spiro"
       id="path-effect2145"
       is_visible="true" />
    <inkscape:path-effect
       effect="spiro"
       id="path-effect2011"
       is_visible="true" />
    <inkscape:path-effect
       effect="spiro"
       id="path-effect2007"
       is_visible="true" />
    <inkscape:path-effect
       effect="spiro"
       id="path-effect2003"
       is_visible="true" />
    <inkscape:path-effect
       effect="spiro"
       id="path-effect1998"
       is_visible="true" />
    <inkscape:path-effect
       effect="spiro"
       id="path-effect1957"
       is_visible="true" />
    <inkscape:path-effect
       effect="spiro"
       id="path-effect1889"
       is_visible="true" />
    <inkscape:path-effect
       effect="spiro"
       id="path-effect1884"
       is_visible="true" />
    <inkscape:path-effect
       effect="spiro"
       id="path-effect1880"
       is_visible="true" />
    <inkscape:path-effect
       effect="spiro"
       id="path-effect1797"
       is_visible="true" />
    <inkscape:path-effect
       effect="spiro"
       id="path-effect1757"
       is_visible="true" />
    <inkscape:path-effect
       effect="spiro"
       id="path-effect1753"
       is_visible="true" />
    <inkscape:path-effect
       effect="spiro"
       id="path-effect1774"
       is_visible="true" />
    <inkscape:path-effect
       effect="spiro"
       id="path-effect1741"
       is_visible="true" />
    <inkscape:path-effect
       effect="spiro"
       id="path-effect1700"
       is_visible="true" />
    <inkscape:path-effect
       effect="spiro"
       id="path-effect1667"
       is_visible="true" />
    <inkscape:path-effect
       effect="spiro"
       id="path-effect1627"
       is_visible="true" />
    <inkscape:path-effect
       effect="spiro"
       id="path-effect1573"
       is_visible="true" />
    <inkscape:path-effect
       effect="spiro"
       id="path-effect1569"
       is_visible="true" />
    <inkscape:path-effect
       effect="spiro"
       id="path-effect1356"
       is_visible="true" />
    <inkscape:path-effect
       effect="spiro"
       id="path-effect3644"
       is_visible="true" />
    <inkscape:path-effect
       effect="spiro"
       id="path-effect3636"
       is_visible="true" />
    <inkscape:path-effect
       effect="spiro"
       id="path-effect3544"
       is_visible="true" />
    <inkscape:path-effect
       effect="spiro"
       id="path-effect3466"
       is_visible="true" />
    <inkscape:path-effect
       effect="spiro"
       id="path-effect3544-2"
       is_visible="true" />
    <inkscape:path-effect
       effect="spiro"
       id="path-effect3644-8"
       is_visible="true" />
    <inkscape:path-effect
       effect="spiro"
       id="path-effect3644-3"
       is_visible="true" />
    <inkscape:path-effect
       effect="spiro"
       id="path-effect3636-0"
       is_visible="true" />
    <inkscape:path-effect
       effect="spiro"
       id="path-effect1727-0-1"
       is_visible="true" />
    <inkscape:path-effect
       effect="spiro"
       id="path-effect1731-8-3"
       is_visible="true" />
    <inkscape:path-effect
       effect="spiro"
       id="path-effect1727-3"
       is_visible="true" />
    <inkscape:path-effect
       effect="spiro"
       id="path-effect1731-7"
       is_visible="true" />
    <inkscape:path-effect
       effect="spiro"
       id="path-effect841-8"
       is_visible="true" />
    <inkscape:path-effect
       effect="skeletal"
       id="path-effect6414"
       is_visible="true"
       lpeversion="1"
       pattern="m 26507.414,27761.564 c 0,-13.157 10.678,-23.835 23.835,-23.835 13.157,0 23.835,10.678 23.835,23.835 0,13.157 -10.678,23.835 -23.835,23.835 -13.157,0 -23.835,-10.678 -23.835,-23.835 z"
       copytype="single_stretched"
       prop_scale="0.08"
       scale_y_rel="false"
       spacing="0"
       normal_offset="0"
       tang_offset="0"
       prop_units="false"
       vertical_pattern="false"
       hide_knot="false"
       fuse_tolerance="0" />
    <inkscape:path-effect
       effect="spiro"
       id="path-effect1627-7"
       is_visible="true" />
    <inkscape:path-effect
       effect="spiro"
       id="path-effect1667-2"
       is_visible="true" />
    <inkscape:path-effect
       effect="spiro"
       id="path-effect1700-7"
       is_visible="true" />
    <inkscape:path-effect
       effect="spiro"
       id="path-effect1741-3"
       is_visible="true" />
    <inkscape:path-effect
       effect="spiro"
       id="path-effect1797-4"
       is_visible="true" />
    <inkscape:path-effect
       effect="spiro"
       id="path-effect1889-4"
       is_visible="true" />
    <inkscape:path-effect
       effect="spiro"
       id="path-effect1889-7"
       is_visible="true" />
    <inkscape:path-effect
       effect="spiro"
       id="path-effect1889-5"
       is_visible="true" />
    <inkscape:path-effect
       effect="spiro"
       id="path-effect1889-5-2"
       is_visible="true" />
    <inkscape:path-effect
       effect="spiro"
       id="path-effect1889-5-6"
       is_visible="true" />
    <inkscape:path-effect
       effect="spiro"
       id="path-effect2007-1"
       is_visible="true" />
    <inkscape:path-effect
       effect="spiro"
       id="path-effect2011-6"
       is_visible="true" />
    <inkscape:path-effect
       effect="spiro"
       id="path-effect2011-6-6"
       is_visible="true" />
    <inkscape:path-effect
       effect="spiro"
       id="path-effect2011-6-8"
       is_visible="true" />
    <inkscape:path-effect
       effect="spiro"
       id="path-effect2011-6-0"
       is_visible="true" />
    <inkscape:path-effect
       effect="spiro"
       id="path-effect2011-6-0-8"
       is_visible="true" />
    <inkscape:path-effect
       effect="spiro"
       id="path-effect2011-6-0-2"
       is_visible="true" />
    <inkscape:path-effect
       effect="spiro"
       id="path-effect2011-6-0-6"
       is_visible="true" />
    <inkscape:path-effect
       effect="spiro"
       id="path-effect2145-0"
       is_visible="true" />
    <inkscape:path-effect
       effect="spiro"
       id="path-effect2177-4"
       is_visible="true" />
    <inkscape:path-effect
       effect="spiro"
       id="path-effect2011-6-0-6-5"
       is_visible="true" />
    <inkscape:path-effect
       effect="spiro"
       id="path-effect2011-6-0-6-5-9"
       is_visible="true" />
    <inkscape:path-effect
       effect="spiro"
       id="path-effect2011-6-0-6-5-8"
       is_visible="true" />
    <inkscape:path-effect
       effect="spiro"
       id="path-effect2011-6-0-6-5-97"
       is_visible="true" />
    <inkscape:path-effect
       effect="spiro"
       id="path-effect2011-6-0-6-5-97-2"
       is_visible="true" />
    <inkscape:path-effect
       effect="spiro"
       id="path-effect2011-6-0-6-5-97-2-8"
       is_visible="true" />
  </defs>
  <sodipodi:namedview
     id="base"
     pagecolor="#ffffff"
     bordercolor="#666666"
     borderopacity="1.0"
     inkscape:pageopacity="0.0"
     inkscape:pageshadow="2"
     inkscape:zoom="1.1807165"
     inkscape:cx="282.97019"
     inkscape:cy="335.81305"
     inkscape:document-units="mm"
     inkscape:current-layer="layer1"
     showgrid="false"
     inkscape:window-width="1920"
     inkscape:window-height="1046"
     inkscape:window-x="-11"
     inkscape:window-y="-11"
     inkscape:window-maximized="1"
     fit-margin-top="0"
     fit-margin-left="0"
     fit-margin-right="0"
     fit-margin-bottom="0"
     inkscape:snap-global="false"
     inkscape:snap-midpoints="true"
     inkscape:snap-smooth-nodes="true"
     showguides="false"
     inkscape:object-paths="true" />
  <metadata
     id="metadata862">
    <rdf:RDF>
      <cc:Work
         rdf:about="">
        <dc:format>image/svg+xml</dc:format>
        <dc:type
           rdf:resource="http://purl.org/dc/dcmitype/StillImage" />
        <dc:title />
      </cc:Work>
    </rdf:RDF>
  </metadata>
  <g
     inkscape:label="Ebene 1"
     inkscape:groupmode="layer"
     id="layer1"
     transform="translate(11.72681,169.54347)">
    <path
       style="opacity:1;fill:#ffdd00;fill-opacity:1;fill-rule:evenodd;stroke:none;stroke-width:2.11666656;stroke-linecap:round;stroke-linejoin:miter;stroke-miterlimit:4;stroke-dasharray:none;stroke-opacity:1;paint-order:fill markers stroke"
       d="m -10.668477,-168.48514 v 100.495625 c 0,46.255504 32.919222,75.0887771 73.810602,75.0887771 40.891355,0 73.811125,-28.8332731 73.811125,-75.0887771 V -168.48514 Z"
       id="rect953-2-0"
       inkscape:connector-curvature="0"
       sodipodi:nodetypes="cssscc" />
    <path
       style="opacity:1;fill:#ffffff;fill-opacity:1;fill-rule:evenodd;stroke:none;stroke-width:7.99999952;stroke-linecap:round;stroke-linejoin:miter;stroke-miterlimit:4;stroke-dasharray:none;stroke-opacity:1;paint-order:fill markers stroke"
       d="M 4 4 L 4 383.82617 C 4 558.65012 128.41865 667.62695 282.96875 667.62695 C 283.35925 667.62695 283.7466 667.61467 284.13672 667.61328 L 284.13672 4 L 4 4 z "
       transform="matrix(0.26458333,0,0,0.26458333,-11.72681,-169.54347)"
       id="rect953-2-0-8" />
    <path
       style="opacity:1;fill:#ed1c24;fill-opacity:1;fill-rule:evenodd;stroke:#000000;stroke-width:3;stroke-linecap:round;stroke-linejoin:round;stroke-miterlimit:4;stroke-dasharray:none;stroke-dashoffset:0;stroke-opacity:1;paint-order:fill markers stroke"
       d="M 6.7460938,4 V 6.0175781 H 111.01562 V 4 Z M 111.01562,6.0175781 V 110.28711 H 215.28516 V 6.0175781 Z M 215.28516,110.28711 v 104.26953 h 56.55664 c 2.04364,-6.8166 3.45442,-13.75973 3.55078,-20.86914 0.19157,-14.13396 -4.82295,-27.76816 -9.97852,-40.92969 -5.15557,-13.16156 -10.59413,-26.54542 -11.31836,-40.66211 -0.031,-0.60346 -0.0409,-1.20589 -0.0547,-1.80859 z m 0,104.26953 H 111.01562 v 104.26953 h 104.26954 z m 0,104.26953 V 423.0957 h 40.75586 c 2.03999,-8.67114 5.40551,-17.1277 8.73828,-25.42578 5.27167,-13.12563 10.61328,-26.65802 10.61328,-40.80273 0,-13.15723 -4.62548,-25.7782 -9.51367,-38.04102 z m 0,104.26953 H 111.01562 v 104.26953 h 104.26954 z m 0,104.26953 v 104.26954 h 43.17578 c -2.92938,-9.78949 -4.88626,-19.84021 -4.36524,-29.9961 0.72423,-14.1167 6.16279,-27.50058 11.31836,-40.66211 4.26046,-10.8764 8.41558,-22.07452 9.625,-33.61133 z m 0,104.26954 h -75.57813 c 23.20065,12.99186 48.60211,22.6376 75.57813,28.65429 z M 111.01562,527.36523 H 37.710938 c 18.294845,34.45834 43.324597,63.28322 73.304682,85.66407 z m 0,-104.26953 V 318.82617 H 6.7460938 V 423.0957 Z m 0,-208.53906 V 110.28711 H 6.7460938 v 104.26953 z"
       transform="matrix(0.26458333,0,0,0.26458333,-11.72681,-169.54347)"
       id="rect1452"
       inkscape:connector-curvature="0"
       sodipodi:nodetypes="cccccccccccccsscccccccccccssccccccccccsscccccccccccccccccccc" />
    <flowRoot
       xml:space="preserve"
       id="flowRoot2783"
       style="font-style:normal;font-weight:normal;font-size:26.66666603px;line-height:1.25;font-family:sans-serif;letter-spacing:0px;word-spacing:0px;fill:#000000;fill-opacity:1;stroke:none"><flowRegion
         id="flowRegion2785"><rect
           id="rect2787"
           width="4.054738"
           height="56.766335"
           x="1812.4679"
           y="-35.758636" /></flowRegion><flowPara
         id="flowPara2789" /></flowRoot>    <path
       style="fill:#0066b3;stroke:#000000;stroke-width:5;stroke-linecap:round;stroke-linejoin:round;stroke-miterlimit:4;stroke-dasharray:none;stroke-opacity:1;fill-opacity:1"
       d="M 276.72656 4 C 277.49419 12.843298 277.08013 21.783139 275.39258 30.505859 C 272.70738 44.385311 267.05857 57.478484 262.24219 70.769531 C 257.4258 84.060578 253.3714 97.977457 254.0957 112.0957 C 254.81993 126.2124 260.25849 139.59628 265.41406 152.75781 C 270.56963 165.91934 275.58415 179.55353 275.39258 193.6875 C 275.20091 207.82863 269.81877 221.31478 264.57031 234.44727 C 259.32186 247.57975 254.04827 261.13499 254.0957 275.27734 C 254.14314 289.42197 259.50763 302.94077 264.7793 316.06641 C 270.05097 329.19204 275.39258 342.72248 275.39258 356.86719 C 275.39258 371.0119 270.05097 384.54429 264.7793 397.66992 C 259.50763 410.79556 254.14314 424.31435 254.0957 438.45898 C 254.04827 452.60134 259.32186 466.15463 264.57031 479.28711 C 269.81877 492.41959 275.20091 505.90769 275.39258 520.04883 C 275.58415 534.18279 270.56963 547.81504 265.41406 560.97656 C 260.25849 574.13809 254.81993 587.52197 254.0957 601.63867 C 253.3714 615.75692 257.4258 629.67379 262.24219 642.96484 C 265.19243 651.10619 268.44969 659.17515 271.15234 667.39453 C 275.07217 667.53697 279.00775 667.62695 282.96875 667.62695 C 290.65118 667.62695 298.25539 667.34575 305.77734 666.8125 C 303.11324 658.79452 299.94488 650.91353 297.06445 642.96484 C 292.24807 629.67379 288.19562 615.75692 288.91992 601.63867 C 289.64415 587.52197 295.08271 574.13809 300.23828 560.97656 C 305.39386 547.81504 310.40641 534.18279 310.21484 520.04883 C 310.02318 505.90769 304.64104 492.41959 299.39258 479.28711 C 294.14412 466.15463 288.87249 452.60134 288.91992 438.45898 C 288.96736 424.31435 294.32989 410.79556 299.60156 397.66992 C 304.87324 384.54429 310.21484 371.0119 310.21484 356.86719 C 310.21484 342.72248 304.87324 329.19204 299.60156 316.06641 C 294.32989 302.94077 288.96736 289.42198 288.91992 275.27734 C 288.87249 261.13499 294.14412 247.57975 299.39258 234.44727 C 304.64104 221.31478 310.02318 207.82863 310.21484 193.6875 C 310.40641 179.55353 305.39386 165.91934 300.23828 152.75781 C 295.08271 139.59628 289.64415 126.2124 288.91992 112.0957 C 288.19562 97.977457 292.24807 84.060578 297.06445 70.769531 C 301.88084 57.478485 307.52964 44.385311 310.21484 30.505859 C 311.9024 21.783128 312.31646 12.84331 311.54883 4 L 276.72656 4 z "
       transform="matrix(0.26458333,0,0,0.26458333,-11.72681,-169.54347)"
       id="path1354" />
    <path
       style="opacity:1;fill:none;fill-opacity:1;fill-rule:evenodd;stroke:#000000;stroke-width:2.11666656;stroke-linecap:round;stroke-linejoin:miter;stroke-miterlimit:4;stroke-dasharray:none;stroke-opacity:1;paint-order:fill markers stroke"
       d="m -10.668477,-168.48514 v 100.495623 c 0,46.255504 32.919221,75.0887764 73.810601,75.0887764 40.891356,0 73.811126,-28.8332724 73.811126,-75.0887764 V -168.48514 Z"
       id="rect953-2"
       inkscape:connector-curvature="0"
       sodipodi:nodetypes="cssscc" />
    <path
       inkscape:connector-curvature="0"
       style="fill:#000000;stroke:#000000;stroke-width:0.10583333;stroke-linecap:round;stroke-linejoin:miter;stroke-miterlimit:4;stroke-dasharray:none;stroke-opacity:1"
       d="m 88.742622,-131.50692 c -1.357083,1.39333 -2.712394,2.78821 -4.065854,4.18505 -1.35232,1.39566 -2.735183,2.84155 -3.456635,4.64603 -0.571628,1.42975 -0.696103,3.01436 -1.329477,4.41783 -0.137815,0.30539 -0.299982,0.60156 -0.508359,0.86391 -0.208378,0.26235 -0.464829,0.49061 -0.764575,0.64029 -0.354751,0.17713 -0.766197,0.23896 -1.157307,0.17369 -0.108984,0.39412 -0.148258,0.80727 -0.115629,1.21487 0.04808,0.60068 0.2508,1.19586 0.173699,1.79352 -0.05729,0.44403 -0.266014,0.85435 -0.503775,1.23372 -0.237759,0.37936 -0.508283,0.73932 -0.711093,1.13845 -0.315715,0.62136 -0.457401,1.32978 -0.404953,2.02478 -0.04495,-0.11208 -0.127712,-0.20835 -0.231258,-0.27048 -0.103543,-0.0621 -0.227354,-0.0895 -0.347395,-0.0764 -0.131353,0.0143 -0.257132,0.0772 -0.347395,0.1737 0.482396,0.60018 0.869047,1.27719 1.140497,1.99779 0.402956,1.06969 0.548564,2.216 0.826719,3.32472 0.312025,1.24373 0.796487,2.45076 1.497568,3.5244 0.701084,1.073627 1.623538,2.012106 2.726191,2.666589 2.042479,1.212325 4.512784,1.373117 6.826679,1.90915 0.624765,0.144731 1.242974,0.318425 1.851588,0.520583 -0.424168,0.905286 -0.702477,1.878695 -0.821117,2.871363 -0.12348,1.033151 -0.07406,2.086708 0.146192,3.103638 -1.184336,-0.02556 -2.357777,-0.42 -3.317067,-1.115028 -0.5313,-0.38494 -0.994058,-0.855489 -1.446634,-1.330496 -0.594683,-0.624155 -1.189891,-1.280079 -1.50419,-2.082846 -0.243269,-0.621336 -0.304405,-1.312882 -0.1737,-1.967214 -0.516157,0.346367 -0.941513,0.826461 -1.223526,1.380411 -0.282009,0.553952 -0.419895,1.180515 -0.396295,1.80167 0.01268,0.333717 0.07139,0.665709 0.173699,0.983608 -1.074473,0.31197 -2.121583,0.718951 -3.124523,1.214867 -1.912334,0.945572 -3.684108,2.236439 -4.9756,3.934431 -1.382166,1.817207 -2.173745,4.081184 -2.198474,6.364166 -0.01854,1.712383 0.403955,3.45885 1.388564,4.859971 0.695063,0.989094 1.64447,1.776224 2.661496,2.429732 0.610408,0.392227 1.248902,0.740819 1.909149,1.041677 -0.847232,0.06864 -1.68425,0.263931 -2.474048,0.578145 -0.828613,0.329653 -1.607705,0.791702 -2.270296,1.388561 -0.616812,0.555627 -1.129589,1.226374 -1.504193,1.967217 0.996666,-0.449153 2.021526,-0.835537 3.066456,-1.156795 0.469476,-0.144341 0.966375,-0.27664 1.446631,-0.173699 0.282169,0.06048 0.546026,0.202677 0.75184,0.404957 -0.785729,0.512097 -1.539919,1.072853 -2.256542,1.677889 -1.04904,0.885691 -2.028036,1.880106 -2.719057,3.066452 -0.703932,1.208509 -1.09213,2.586329 -1.851589,3.760736 -0.660755,1.021772 -1.579298,1.852495 -2.276917,2.84946 -0.580261,0.829241 -1.004011,1.777802 -1.157815,2.778145 -0.120449,0.783389 -0.07352,1.59226 0.137022,2.356382 l 1.402825,-0.556751 c 0.364887,-0.02627 0.735358,0.02339 1.076825,0.154851 0.352919,0.135857 0.669119,0.349614 0.993797,0.543504 0.324677,0.193891 0.669274,0.372383 1.043714,0.425331 0.303294,0.04289 0.612257,0.0011 0.917389,0.02801 0.152566,0.01344 0.30538,0.04477 0.444176,0.109519 0.138798,0.06475 0.263618,0.164753 0.341794,0.296458 0.03628,0.06112 0.06235,0.129235 0.06673,0.200183 0.0037,0.06049 -0.0087,0.121951 -0.03565,0.176244 -0.02694,0.05429 -0.06825,0.101366 -0.118685,0.134986 -0.02797,0.01865 -0.05904,0.03239 -0.09118,0.04228 0.204048,0.0139 0.408375,0.02115 0.612781,0.01426 0.412246,-0.01388 0.824902,-0.07026 1.23575,-0.03362 0.424653,0.03787 0.840198,0.176389 1.202641,0.400881 0.0016,0.07905 -0.01009,0.158324 -0.03361,0.233806 -0.05468,0.175298 -0.177137,0.328474 -0.336191,0.420237 -0.01315,0.0076 -0.02767,0.01212 -0.04126,0.01886 0.676042,-0.05786 1.36287,0.0066 2.014589,0.195601 0.314049,0.09108 0.619591,0.210161 0.934706,0.297478 0.315119,0.08731 0.644227,0.142773 0.968839,0.103402 0.446061,-0.0541 0.848869,-0.281556 1.264273,-0.452837 0.207702,-0.08564 0.422636,-0.15815 0.645382,-0.187452 0.222748,-0.02931 0.454668,-0.01372 0.662193,0.07233 0.251952,0.104497 0.45074,0.303084 0.668303,0.467606 0.101087,0.07644 0.207906,0.146692 0.296967,0.236862 0.08906,0.09017 0.16056,0.204761 0.170639,0.331096 0.0069,0.0863 -0.01615,0.174501 -0.06418,0.246537 -0.04802,0.07204 -0.120928,0.127506 -0.203243,0.154342 0.711266,-0.07083 1.424224,-0.126587 2.137859,-0.167077 0.579001,-0.03284 1.158757,-0.05584 1.73698,-0.100346 0.937839,-0.07218 1.90211,-0.211885 2.705302,-0.701414 0.318025,-0.193828 0.602248,-0.437375 0.899561,-0.661679 0.297314,-0.224308 0.614435,-0.432472 0.970875,-0.540451 0.33524,-0.101556 0.690441,-0.110243 1.03913,-0.143645 0.348691,-0.03339 0.706607,-0.09703 0.998381,-0.290856 0.182232,-0.121055 0.329864,-0.287643 0.459968,-0.463532 0.130103,-0.175887 0.244601,-0.362671 0.374902,-0.538411 0.198858,-0.268209 0.439093,-0.513701 0.735032,-0.668304 0.306631,-0.160189 0.657817,-0.215587 0.971891,-0.360641 0.15704,-0.07253 0.305509,-0.168865 0.417689,-0.300532 0.112181,-0.131666 0.185754,-0.30134 0.180321,-0.474231 -0.0056,-0.180055 -0.09343,-0.345747 -0.152302,-0.515999 -0.02943,-0.08513 -0.05211,-0.173289 -0.05348,-0.263349 -0.0013,-0.09006 0.01984,-0.182644 0.07182,-0.256216 0.03645,-0.05161 0.08674,-0.09243 0.141607,-0.123779 0.05486,-0.03135 0.114575,-0.05346 0.174716,-0.07284 0.120282,-0.03875 0.246645,-0.06772 0.35198,-0.13753 0.09513,-0.06305 0.167414,-0.156226 0.21954,-0.257746 0.05212,-0.101522 0.08533,-0.211251 0.115121,-0.321416 0.02979,-0.110168 0.05613,-0.22153 0.09576,-0.32855 0.03963,-0.107019 0.09318,-0.210613 0.170643,-0.294421 0.08962,-0.09695 0.206711,-0.162952 0.320905,-0.229219 0.114197,-0.06627 0.229943,-0.136388 0.313778,-0.23839 0.06566,-0.07989 0.10891,-0.176646 0.133457,-0.277102 0.02454,-0.100455 0.03083,-0.204814 0.02751,-0.308173 -0.0067,-0.206714 -0.05098,-0.410767 -0.06061,-0.617364 -0.0109,-0.233873 0.02768,-0.479687 0.167075,-0.667795 0.125122,-0.168843 0.316892,-0.273669 0.505303,-0.366752 0.18841,-0.09308 0.384178,-0.183097 0.529752,-0.33466 0.110627,-0.11518 0.186734,-0.261667 0.227181,-0.416164 0.04045,-0.154492 0.04625,-0.316709 0.027,-0.475247 -0.03848,-0.317077 -0.174143,-0.613835 -0.320908,-0.897525 -0.219879,-0.425006 -0.470183,-0.838486 -0.618895,-1.293308 -0.153145,-0.468395 -0.193392,-0.969574 -0.149246,-1.460386 0.04,-0.44468 0.148565,-0.883267 0.320396,-1.295348 0.15347,0.02521 0.307566,0.04472 0.462516,0.05807 0.346285,0.02983 0.695396,0.02983 1.041684,0 0.682748,0.443845 1.339998,0.92676 1.967218,1.446122 1.72591,1.429124 3.21372,3.122048 4.6282,4.859974 2.7741,3.408407 5.3458,7.070491 8.85197,9.719944 1.27245,0.961525 2.67367,1.794994 3.69298,3.021626 0.66556,0.800915 1.14753,1.753284 1.39876,2.763884 0.37233,-0.83796 0.71943,-1.686702 1.04116,-2.545361 0.30373,-0.810582 0.5887,-1.655325 0.54606,-2.519891 -0.0344,-0.698317 -0.28968,-1.38388 -0.71975,-1.935125 -0.78938,-0.463294 -1.55588,-0.965052 -2.29627,-1.503173 -2.92604,-2.12664 -5.40824,-4.792236 -7.97381,-7.342169 -1.12803,-1.121167 -2.27576,-2.22281 -3.44186,-3.304332 0.5774,-0.04382 1.15693,-0.06333 1.73596,-0.05807 1.77633,0.01615 3.54637,0.263176 5.32249,0.231257 1.78054,-0.032 3.56625,-0.349739 5.20736,-1.041169 0.47723,-0.201059 0.94139,-0.43314 1.38857,-0.694281 0.11497,0.316821 0.25031,0.626077 0.40495,0.925539 0.24341,0.471326 0.5348,0.918227 0.86799,1.331006 -0.28585,-0.439712 -0.33087,-1.02645 -0.11564,-1.504704 0.11988,-0.26636 0.3192,-0.501073 0.57815,-0.636212 0.18554,-0.09683 0.39691,-0.140405 0.60616,-0.136515 0.20925,0.0038 0.41675,0.05433 0.60922,0.136515 0.29402,0.125544 0.55556,0.326291 0.75183,0.578652 0.26126,0.335905 0.39991,0.749234 0.52059,1.157307 0.19651,0.66448 0.35779,1.339888 0.46303,2.024775 0.14394,0.936749 0.18275,1.889323 0.11562,2.834687 0.58918,-0.760541 1.07719,-1.599505 1.44663,-2.4878 0.34603,-0.831956 0.58858,-1.708606 0.69429,-2.603429 0.0977,-0.826503 0.0779,-1.666731 -0.0581,-2.4878 0.88657,0.23237 1.71173,0.695539 2.37217,1.331003 0.44978,0.432768 0.82355,0.944211 1.09924,1.504192 0.56603,-0.320321 1.01739,-0.838481 1.25714,-1.443065 0.23975,-0.604585 0.26654,-1.291526 0.0738,-1.912715 -0.26148,-0.843024 -0.89177,-1.517997 -1.27293,-2.314101 -0.23374,-0.488202 -0.37206,-1.021992 -0.40496,-1.562263 0.59693,-0.125422 1.23172,-0.06386 1.79352,0.173699 0.53744,0.227252 1.00588,0.614359 1.3305,1.099236 0.15071,-0.663848 0.2283,-1.344548 0.23125,-2.025284 0.003,-0.746043 -0.085,-1.4999 -0.34689,-2.198475 -0.20795,-0.554734 -0.52404,-1.068562 -0.92554,-1.504192 0.44107,-0.05774 0.88945,-0.05774 1.3305,0 0.27409,0.03589 0.54518,0.09413 0.80992,0.173699 0.27232,-0.654435 0.31379,-1.402274 0.11562,-2.082846 -0.26284,-0.902712 -0.91108,-1.635937 -1.56175,-2.314612 -0.43416,-0.452845 -0.87816,-0.896338 -1.331,-1.330497 0.40243,0.05569 0.81243,0.05569 1.21486,0 0.50392,-0.06974 0.99584,-0.227246 1.44663,-0.463023 0.0318,-0.404845 -0.0559,-0.818234 -0.24959,-1.175132 -0.19375,-0.356902 -0.49278,-0.655827 -0.84965,-0.849644 -0.32956,-0.178994 -0.70198,-0.267314 -1.07478,-0.308173 -0.37281,-0.04086 -0.74866,-0.0358 -1.12369,-0.03871 -0.52112,-0.004 -1.04226,-0.02355 -1.56226,-0.05807 0.75369,-0.45124 1.27049,-1.277001 1.3468,-2.152119 0.0291,-0.333518 -0.003,-0.674605 -0.1192,-0.988704 -0.11584,-0.314098 -0.3177,-0.600093 -0.59087,-0.79361 -0.33226,-0.23536 -0.76491,-0.323777 -1.16292,-0.23788 -0.20128,-0.701047 -0.4311,-1.393845 -0.68867,-2.076224 -0.22899,-0.606652 -0.48014,-1.204991 -0.75235,-1.793517 -0.29539,0.496367 -0.66755,0.946721 -1.09924,1.330493 -0.46759,0.415694 -1.00489,0.753185 -1.58264,0.993289 0.35007,-1.318847 0.2328,-2.757057 -0.32651,-4.001672 -0.36992,-0.823182 -0.92812,-1.560726 -1.61982,-2.140404 -0.26987,0.896155 -0.61906,1.768374 -1.04168,2.603429 -0.39925,0.788882 -0.86424,1.544116 -1.38857,2.256033 -7e-5,-0.78063 -0.24602,-1.559375 -0.69427,-2.198475 -0.45574,-0.649765 -1.10411,-1.145455 -1.56226,-1.793517 -0.27043,-0.382512 -0.46867,-0.809818 -0.69683,-1.218942 -0.22817,-0.409124 -0.49395,-0.809123 -0.86493,-1.095162 -0.34185,-0.263581 -0.76586,-0.419569 -1.19704,-0.440102 -0.43118,-0.02052 -0.86785,0.09457 -1.23319,0.324473 0.42811,0.503336 0.74654,1.099518 0.92604,1.735451 0.15894,0.563088 0.20916,1.151287 0.23125,1.735959 0.0365,0.965327 -0.002,1.933425 -0.11562,2.892756 -0.3219,-0.04344 -0.63669,-0.14175 -0.92605,-0.289327 -0.44292,-0.225892 -0.82568,-0.568438 -1.09924,-0.983608 -0.0606,-0.362678 -0.0798,-0.732197 -0.0576,-1.099238 0.0582,-0.959951 0.39782,-1.881351 0.52058,-2.835195 0.0527,-0.409656 0.0652,-0.827109 -0.002,-1.234733 -0.0666,-0.407623 -0.2149,-0.805589 -0.46149,-1.13693 -0.17167,-0.230647 -0.38682,-0.424832 -0.57662,-0.640796 -0.1898,-0.215967 -0.35871,-0.464337 -0.407,-0.747768 -0.0334,-0.196148 -0.007,-0.398378 0.0433,-0.590879 0.0504,-0.192497 0.12461,-0.37798 0.18847,-0.566427 0.10505,-0.309923 0.18333,-0.631636 0.1956,-0.958646 0.0123,-0.32702 -0.044,-0.66054 -0.1956,-0.9505 -0.1589,-0.30375 -0.41328,-0.54538 -0.66983,-0.77273 -0.25656,-0.22736 -0.52317,-0.44993 -0.71874,-0.73147 -0.15352,-0.22103 -0.25825,-0.47142 -0.37337,-0.71467 -0.11511,-0.24324 -0.24458,-0.48529 -0.43653,-0.67391 -0.31324,-0.30779 -0.78681,-0.44324 -1.21538,-0.34739 -0.0319,-0.63709 -0.33095,-1.25661 -0.80991,-1.6779 -0.2811,-0.24727 -0.62107,-0.4271 -0.98361,-0.52059 0.15248,-0.59106 0.0212,-1.24902 -0.34689,-1.73597 -0.15652,-0.20707 -0.35087,-0.38173 -0.52058,-0.57814 -0.47581,-0.55069 -0.74067,-1.24705 -1.04167,-1.90966 -0.47284,-1.04085 -1.05544,-2.03133 -1.73546,-2.95031 0.3508,0.73462 0.44181,1.58967 0.25419,2.38185 -0.18762,0.79216 -0.65283,1.51585 -1.29586,2.0151 -0.57764,0.44847 -1.29443,0.71501 -2.02478,0.75235 0.0653,-0.67807 0.006,-1.36821 -0.1737,-2.0253 -0.25245,-0.9233 -0.73977,-1.77341 -1.35749,-2.5046 -0.984601,-1.16547 -2.276614,-2.02112 -3.524896,-2.89835 -1.642557,-1.15434 -3.27272,-2.40699 -4.374535,-4.08522 -0.514379,-0.78347 -0.90652,-1.65022 -1.504193,-2.37217 -0.661768,-0.79936 -1.545509,-1.38503 -2.256542,-2.14092 -0.215985,-0.2296 -0.417039,-0.47647 -0.563881,-0.7554 -0.146845,-0.27894 -0.237872,-0.59225 -0.224637,-0.9072 0.01471,-0.34982 0.156088,-0.68308 0.333133,-0.98514 0.177047,-0.30206 0.390943,-0.58096 0.571014,-0.88122 0.566643,-0.9449 0.776429,-2.09821 0.578653,-3.18208 z m -14.229466,81.698613 c -0.164378,0.01406 -0.328077,0.03331 -0.49053,0.06215 0.16432,0.03707 0.339641,0.01255 0.49053,-0.06215 z m -2.640105,-1.054412 c -0.08522,-0.0058 -0.170807,-0.0099 -0.255707,-0.01935 0.05441,0.0267 0.116272,0.03909 0.176754,0.03515 0.02693,-0.0019 0.05316,-0.0079 0.07895,-0.01578 z"
       id="path1567-7" />
    <path
       style="fill:#a76535;fill-opacity:1;stroke:none;stroke-width:0.99999994px;stroke-linecap:butt;stroke-linejoin:miter;stroke-opacity:1"
       d="m 351.91145,296.24511 c -4.46373,0.8527 -5.73054,2.71227 -9.85872,4.61231 -6.93273,3.19089 -13.24307,7.85013 -17.98242,13.83203 -3.97328,5.015 -6.81493,10.94808 -8.04687,17.22657 -0.99717,5.08196 -0.92432,10.44238 0.7539,15.34179 1.68584,4.92164 4.97681,9.25627 9.17969,12.32227 1.14113,0.83245 2.35454,1.57797 3.66406,2.10742 1.30952,0.52945 2.72136,0.83937 4.13282,0.78516 1.49782,-0.0575 3.00092,-0.5454 4.14843,-1.50977 0.92317,-0.77583 1.59387,-1.8478 1.88672,-3.01758 -2.14384,-0.38818 -4.19069,-1.30265 -5.91015,-2.64062 -2.51027,-1.95333 -4.24605,-4.71184 -6.41211,-7.04102 -2.13645,-2.29733 -4.71168,-4.18608 -7.54492,-5.5332 3.27614,-0.79568 6.47961,-1.89175 9.55664,-3.26953 2.98381,-1.33604 5.84725,-2.93625 8.54882,-4.77735 -0.14242,-1.15298 -0.52999,-2.27523 -1.13086,-3.26953 -0.92404,-1.52909 -2.30976,-2.71304 -3.64648,-3.89844 -2.66215,-2.36074 -5.22175,-4.83792 -7.66992,-7.41992 3.56646,-1.31372 7.39385,-1.9151 11.1914,-1.75976 2.33972,0.0957 4.66783,0.47777 6.91602,1.13281 0.83645,-0.46663 1.51181,-1.21378 1.89453,-2.0918 0.38273,-0.87801 0.46968,-1.8821 0.24219,-2.8125 -0.28234,-1.15473 -1.01442,-2.14274 -1.7793,-3.05273 -0.76488,-0.90999 -1.59043,-1.79272 -2.11914,-2.85742 -0.50342,-1.01378 -0.71591,-2.17039 -0.60547,-3.29688 0.11044,-1.12649 0.54366,-2.21853 1.23438,-3.11523 2.80424,1.27185 5.70767,2.323 8.67578,3.14258 1.61758,0.44665 3.25456,0.82354 4.9043,1.13085 -1.03663,-1.61182 -2.09958,-3.40486 -2.84213,-5.25162 -0.64732,-1.60989 -1.88119,-3.61337 -1.38119,-5.01889 z m 144.0866,20.85841 c -1.89504,-0.0541 -3.77083,0.18368 -5.53321,0.8789 -2.20805,0.87104 -4.1328,2.44566 -5.42382,4.4375 -0.60245,1.8568 -0.93594,3.80052 -0.98633,5.75196 -0.11644,4.50904 1.26552,8.97464 0.98633,13.47656 -0.12542,2.02233 -0.58436,4.00902 -0.80274,6.02344 -0.21838,2.01439 -0.18102,4.12158 0.63867,5.9746 0.88769,2.00674 2.62023,3.55702 3.45117,5.5879 0.74218,1.81385 0.69923,3.84475 1.1504,5.75195 0.58123,2.45704 1.97357,4.65593 3.61523,6.57422 1.89039,2.20893 4.1195,4.09544 6.24414,6.08007 2.41817,2.25885 4.80468,4.71842 7.88867,5.91797 2.46963,0.9606 5.24585,1.02432 7.81641,0.38086 2.57055,-0.64346 4.94195,-1.97028 6.97656,-3.66797 4.90794,-4.0952 7.78254,-10.20333 9.20313,-16.43554 1.68665,-7.39949 1.46904,-15.3589 -1.48047,-22.35156 -1.41125,-3.34578 -3.4189,-6.42057 -5.75196,-9.20313 -5.77388,-6.88631 -13.65457,-12.02827 -22.34961,-14.29883 -1.83306,-0.47868 -3.74754,-0.82477 -5.64257,-0.8789 z m -74.51172,71.44336 c 0.37312,1.14703 0.91368,2.23828 1.59961,3.23046 1.88925,2.73277 4.76499,4.58307 7.4082,6.59571 6.86973,5.23087 12.49589,11.90053 17.85352,18.67187 6.50416,8.22043 12.71738,16.69354 19.81836,24.4043 3.9365,4.27454 8.1603,8.32325 12.93945,11.6289 4.5417,3.14143 9.63887,5.66372 13.26562,9.82813 0.95691,1.09877 1.77914,2.30894 2.48438,3.58398 0.0931,-0.41067 0.15707,-0.82755 0.17969,-1.24804 0.0698,-1.29868 -0.19947,-2.58849 -0.45704,-3.86328 -0.25756,-1.2748 -0.50521,-2.57153 -0.39257,-3.86719 0.0969,-1.11413 0.47984,-2.22909 1.23633,-3.05274 0.64916,-0.7068 1.55997,-1.17038 2.51367,-1.27734 -1.24991,0.70893 -2.21164,1.91207 -2.62891,3.28711 -0.40069,1.32043 -0.30715,2.74406 -0.0391,4.09766 0.22004,1.11103 0.55387,2.20046 0.69531,3.32421 0.1129,0.89702 0.10129,1.80668 0,2.70508 -0.0593,0.52581 -0.15941,1.04517 -0.2793,1.56055 0.0953,0.2163 0.20321,0.42701 0.29102,0.64648 0.97485,-1.52817 1.74793,-3.18531 2.29297,-4.91406 0.73186,-2.3213 1.04986,-4.78413 0.81836,-7.20703 -0.12252,-1.28222 -0.39749,-2.55022 -0.81836,-3.76758 -3.71607,-1.83212 -7.28117,-3.97 -10.64649,-6.38672 -4.97284,-3.57111 -9.49051,-7.73269 -13.92187,-11.95703 -5.70092,-5.43459 -11.28223,-10.99299 -16.70508,-16.70508 -4.86071,-5.11996 -9.68202,-10.43523 -15.72461,-14.08593 -3.0802,-1.86094 -6.44264,-3.26626 -9.33594,-5.40625 -2.98746,-2.20964 -5.38336,-5.13629 -8.35351,-7.36914 -1.27461,-0.95821 -2.64846,-1.78331 -4.09375,-2.45703 z"
       transform="matrix(0.26458333,0,0,0.26458333,-11.72681,-169.54347)"
       id="path1625-4"
       inkscape:connector-curvature="0"
       sodipodi:nodetypes="ccccscscccsccscccccccsscscccacccccccsccsccsccssccccscscsccccccccccccscccsssccc" />
    <path
       style="fill:#00a94f;fill-opacity:1;stroke:none;stroke-width:0.99999994px;stroke-linecap:butt;stroke-linejoin:miter;stroke-opacity:1"
       d="M 376.0332 151.57422 C 373.17654 154.48579 370.33137 157.40751 367.49805 160.3418 C 362.90036 165.10332 358.25276 170.01112 355.45508 176.00977 C 353.2476 180.74293 352.29456 185.94259 350.89648 190.97461 C 350.36907 192.8729 349.77142 194.76304 348.89062 196.52539 C 348.00984 198.28774 346.83076 199.92716 345.2832 201.14648 C 343.65041 202.43296 341.62794 203.21857 339.55469 203.36914 C 339.81716 204.52571 340.01186 205.69582 340.13867 206.875 C 340.50809 210.31001 340.24972 213.95152 338.50195 216.93164 C 337.84138 218.05799 336.98791 219.05617 336.25195 220.13477 C 335.51599 221.21336 334.88621 222.41308 334.76172 223.71289 C 334.68875 224.47483 334.79231 225.24234 334.73828 226.00586 C 334.71127 226.38762 334.64427 226.77052 334.5 227.125 C 334.35573 227.47948 334.13095 227.80564 333.82617 228.03711 C 333.46348 228.31255 332.99137 228.44185 332.53906 228.38867 C 333.27031 229.57797 333.89747 230.83228 334.41016 232.13086 C 336.13122 236.49012 336.53172 241.23753 337.56641 245.80859 C 338.69942 250.81402 340.63319 255.68556 343.64648 259.83984 C 347.65048 265.35997 353.51637 269.46647 360.01562 271.53125 C 365.31615 273.2152 370.93735 273.56636 376.38477 274.6875 C 379.40812 275.30974 382.38129 276.17076 385.26953 277.25977 C 385.123 277.07437 385.02544 276.85251 384.98828 276.61914 C 384.95112 276.38577 384.97495 276.14166 385.05664 275.91992 C 385.13833 275.69818 385.27734 275.49918 385.45703 275.3457 C 385.63672 275.19222 385.8561 275.08508 386.08789 275.03906 C 386.45447 274.96628 386.83237 275.04382 387.19922 275.11523 C 387.56607 275.18665 387.94928 275.25196 388.31055 275.15625 C 388.54692 275.09363 388.76092 274.96396 388.93945 274.79688 C 389.11798 274.62978 389.2605 274.42608 389.37305 274.20898 C 389.59813 273.7748 389.70567 273.29133 389.83008 272.81836 C 390.702 269.50354 392.56758 266.48901 394.97461 264.04883 C 398.02619 260.95521 402.01777 258.73491 406.31445 258.08594 C 407.31161 257.93533 408.32467 257.86675 409.30469 257.62891 C 410.28471 257.39107 411.25211 256.96354 411.92773 256.21484 C 412.52684 255.55094 412.85073 254.69032 413.14453 253.8457 C 413.43834 253.00109 413.72387 252.13333 414.26562 251.42188 C 414.7492 250.78683 415.41511 250.30839 416.12695 249.94727 C 416.83879 249.58615 417.59992 249.3356 418.35742 249.08398 C 419.01985 248.86395 419.68421 248.6421 420.31055 248.33398 C 420.93688 248.02587 421.52856 247.62602 421.98242 247.0957 C 422.17556 246.87002 422.33394 246.62015 422.47852 246.36133 C 422.73625 246.63538 422.95642 246.94616 423.11523 247.28711 C 423.39379 247.88545 423.49983 248.56184 423.41797 249.2168 C 423.33595 249.87179 423.0657 250.50234 422.64844 251.01367 C 422.23101 251.52497 421.6683 251.91564 421.04297 252.12695 C 420.46506 252.32235 419.84809 252.36449 419.24219 252.43555 C 418.63629 252.50622 418.01877 252.61131 417.49023 252.91602 C 416.77469 253.32832 416.30048 254.06029 415.95117 254.80859 C 415.60187 255.5569 415.34887 256.35132 414.92578 257.06055 C 414.45648 257.84722 413.78868 258.50645 413.03516 259.02734 C 412.28162 259.54824 411.4412 259.93487 410.57617 260.23633 C 408.84613 260.8392 407.02061 261.10748 405.25586 261.59961 C 402.9249 262.24961 400.69109 263.30082 398.78906 264.79688 C 396.88705 266.29295 395.3227 268.24322 394.40039 270.48047 C 393.68984 272.20405 393.34332 274.11558 392.23047 275.61133 C 391.25335 276.92464 389.71348 277.80345 388.08594 277.97852 C 386.96068 280.21812 385.97267 282.5254 385.12695 284.88477 C 384.03032 287.94407 383.16971 291.11463 382.95508 294.35742 C 382.7342 297.69463 383.2071 301.07637 384.33594 304.22461 C 387.3723 304.77816 390.35302 305.64008 393.2168 306.79102 C 400.0129 309.52233 406.0371 313.8254 412.16211 317.8418 C 416.72392 320.8331 421.4541 323.75081 424.98828 327.90625 C 427.68259 331.07414 429.5979 334.90088 430.51562 338.95703 C 433.61132 336.0491 437.06641 333.5251 440.77734 331.45898 C 444.44708 329.41578 448.36593 327.82129 452.41992 326.72266 C 451.04429 325.34907 449.90377 323.73976 449.06445 321.98633 C 448.28013 320.34783 447.76911 318.58261 447.53516 316.78125 C 447.08003 317.10856 446.61535 317.42925 446.13867 317.74023 C 443.73523 319.30844 441.0789 320.64634 438.25 321.71484 C 438.96104 320.58193 439.21371 319.28271 438.9668 318.03906 C 438.7336 316.86438 438.05516 315.74324 437.03711 314.84961 C 439.02764 314.67386 440.97887 314.23122 442.77539 313.54883 C 446.50098 312.1337 449.46705 309.72756 451.73828 307.05078 C 454.00947 304.37401 455.64584 301.41447 457.2832 298.47656 C 459.71423 294.11461 462.17591 289.76207 464.66602 285.41992 C 464.17974 290.22801 462.93813 294.99132 460.97852 299.57227 C 458.28262 305.87436 454.0941 311.93776 447.89258 316.51367 C 450.76695 316.91649 453.66325 317.16572 456.56445 317.25 C 461.20745 317.38493 465.89904 317.10181 470.37695 315.86719 C 472.20504 315.36315 473.98974 314.70293 475.70508 313.89453 C 474.08359 312.70005 472.50542 311.44866 470.9707 310.14453 C 468.91298 308.39586 466.93504 306.55154 465.04883 304.61914 C 465.24121 303.7647 465.65626 302.96128 466.24023 302.30859 C 466.82421 301.65591 467.57639 301.15683 468.4043 300.87109 C 469.02542 300.65679 469.68483 300.56081 470.30078 300.33203 C 470.60881 300.21751 470.90472 300.06937 471.16211 299.86523 C 471.4195 299.66114 471.63712 299.39857 471.75977 299.09375 C 471.87013 298.81973 471.90272 298.51903 471.87891 298.22461 C 471.85623 297.93018 471.77625 297.64227 471.67383 297.36523 C 471.46898 296.81116 471.16705 296.29542 470.9707 295.73828 C 470.4898 294.37368 470.68872 292.85562 471.13281 291.47852 C 471.57668 290.10137 472.25283 288.81139 472.74609 287.45117 C 473.63727 284.99365 473.90715 282.25312 473.14062 279.75391 C 472.49933 277.66307 471.18454 275.85824 469.98242 274.03125 C 469.47071 273.25357 468.97433 272.46129 468.60352 271.60742 C 468.23274 270.75351 467.99034 269.83114 468.00977 268.90039 C 468.03244 267.74488 468.45489 266.63953 468.85352 265.55469 C 469.2521 264.46981 469.63839 263.34606 469.58789 262.19141 C 469.5501 261.35617 469.28553 260.54377 468.91797 259.79297 C 468.55022 259.0422 468.08197 258.34592 467.61523 257.65234 C 466.00546 255.26017 464.39755 252.86606 462.68164 250.54883 C 462.06773 249.71975 461.41247 248.8763 460.50977 248.37695 C 459.69755 247.92768 458.717 247.795 457.81445 248.01172 C 456.91186 248.22829 456.098 248.7916 455.57812 249.56055 C 456.09981 248.04541 456.16918 246.37753 455.77539 244.82422 C 455.54144 243.90111 455.14214 243.01167 454.54297 242.27148 C 453.94376 241.5313 453.13711 240.94749 452.22266 240.68164 C 451.66986 240.52101 451.08901 240.47635 450.5293 240.3418 C 450.24961 240.27452 449.97427 240.18489 449.7207 240.04883 C 449.4671 239.91277 449.23506 239.72793 449.06445 239.49609 C 448.89324 239.26327 448.78773 238.98742 448.73633 238.70312 C 448.68493 238.41892 448.68467 238.12705 448.7168 237.83984 C 448.77954 237.26543 448.959 236.71075 449.06445 236.14258 C 449.36606 234.51455 449.02664 232.76284 448.07812 231.40625 C 447.50298 230.58447 446.7305 229.92488 445.95312 229.29102 C 445.17573 228.65719 444.37775 228.03286 443.73633 227.26172 C 442.5186 225.79772 441.93457 223.82464 442.1582 221.93359 C 441.30932 223.75854 440.24656 225.48427 439 227.06445 C 438.40684 227.81639 437.77042 228.53715 437.24805 229.33984 C 436.72568 230.14258 436.31731 231.0436 436.23828 231.99805 C 436.15664 232.98379 436.42915 233.98848 436.23828 234.95898 C 436.11658 235.57671 435.80828 236.1498 435.38867 236.61914 C 434.96907 237.08848 434.44 237.45527 433.86914 237.7207 C 432.48916 238.36232 430.88646 238.41694 429.52734 239.10156 C 428.91544 239.40959 428.36446 239.84473 427.94531 240.38672 C 427.52616 240.9287 427.24259 241.5796 427.16016 242.25977 C 427.05584 243.12123 427.27078 243.99424 427.20312 244.85938 C 427.16913 245.29192 427.06176 245.72674 426.82422 246.08984 C 426.70554 246.27126 426.55474 246.43226 426.37695 246.55664 C 426.19932 246.68099 425.99405 246.76784 425.7793 246.79883 C 425.39163 246.85439 424.99802 246.72741 424.64648 246.55469 C 424.29499 246.38234 423.96765 246.16337 423.60742 246.00977 C 423.33432 245.89333 423.0447 245.81745 422.75 245.7832 C 422.85114 245.5484 422.95763 245.31575 423.03906 245.07422 C 423.28354 244.34906 423.46531 243.60238 423.73633 242.88672 C 424.05491 242.04547 424.49224 241.25518 424.86719 240.4375 C 425.24213 239.61982 425.55891 238.7576 425.60742 237.85938 C 425.66976 236.70508 425.28662 235.57314 424.82422 234.51367 C 424.36181 233.45421 423.81164 232.42622 423.50195 231.3125 C 423.11925 229.93621 423.12115 228.48411 423.17578 227.05664 C 423.23041 225.62917 423.33384 224.19403 423.15039 222.77734 C 422.82657 220.27669 421.61076 217.95337 420.02344 215.99414 C 418.43612 214.03491 416.48547 212.40592 414.5 210.85156 C 410.57169 207.77622 406.45734 204.94591 402.45703 201.96484 C 397.20854 198.05362 392.05321 193.76543 388.66016 188.16797 C 386.77143 185.05217 385.44669 181.55776 383.04883 178.81445 C 381.57353 177.12663 379.74732 175.79031 377.96875 174.42578 C 376.19018 173.06125 374.4196 171.63144 373.10938 169.8125 C 372.24268 168.60931 371.59142 167.2462 371.25195 165.80273 C 370.91248 164.35927 370.89055 162.83556 371.24023 161.39453 C 371.85087 158.87818 373.52462 156.77822 374.74805 154.49609 C 375.25149 153.55699 375.68097 152.57985 376.0332 151.57422 z M 367.66016 167.99414 C 365.84708 175.52273 365.54679 183.41382 366.78125 191.05859 C 369.17976 205.91214 377.1413 219.20232 382.11523 233.40234 C 385.26272 242.38809 387.22901 251.97371 386.13477 261.43164 C 385.71261 265.08047 384.83711 268.67664 383.53516 272.11133 C 383.43328 270.6923 383.04745 269.29442 382.4082 268.02344 C 381.8243 266.86244 381.02989 265.8084 380.07422 264.92773 C 380.19085 262.12915 380.21971 259.32782 380.16211 256.52734 C 379.9651 246.95773 378.73903 237.3747 375.99414 228.20508 C 372.38616 216.15224 366.16683 204.78993 364.59961 192.30664 C 363.57148 184.11727 364.63391 175.67297 367.66016 167.99414 z M 381.58203 182.04688 C 381.78822 185.12609 381.71872 188.23164 381.37891 191.27344 C 380.86846 195.84239 379.70088 200.36259 377.49805 203.84766 C 376.76076 205.01413 375.91564 206.05277 374.98633 206.93359 C 375.15146 206.16499 375.14002 205.32424 374.95312 204.55469 C 374.77659 203.82785 374.44338 203.16607 374.00781 202.67383 C 374.70731 202.41882 375.37106 201.99929 375.96094 201.4375 C 377.18419 200.27242 378.05798 198.53452 378.66016 196.67578 C 379.26233 194.81701 379.61438 192.82406 379.96875 190.8457 C 380.49486 187.90852 381.03318 184.97582 381.58203 182.04688 z M 354.80664 187.32031 C 355.87981 190.41034 356.94057 193.50724 357.98828 196.61133 C 358.69395 198.70209 359.39812 200.80996 360.37695 202.71484 C 361.35575 204.61973 362.6346 206.33084 364.24023 207.33789 C 365.01449 207.82352 365.85503 208.13857 366.71289 208.26367 C 366.27415 208.89962 365.98139 209.69729 365.88086 210.5332 C 365.77445 211.41822 365.88485 212.34219 366.19141 213.14844 C 364.97223 212.38803 363.82684 211.43629 362.79102 210.32031 C 359.69626 206.98605 357.66309 202.28922 356.39453 197.39258 C 355.54999 194.13262 355.01622 190.74192 354.80664 187.32031 z M 391.46094 196.28125 C 391.67991 200.15602 391.607 204.06291 391.24609 207.89062 C 390.70399 213.64008 389.46441 219.32735 387.125 223.71289 C 386.342 225.18071 385.44396 226.48927 384.45703 227.59766 C 384.63251 226.63044 384.61842 225.57187 384.41992 224.60352 C 384.23244 223.68887 383.88054 222.85771 383.41797 222.23828 C 384.16083 221.91736 384.86573 221.3886 385.49219 220.68164 C 386.79128 219.21556 387.71987 217.02845 388.35938 214.68945 C 388.99889 212.35049 389.37172 209.84294 389.74805 207.35352 C 390.30678 203.6574 390.87806 199.96697 391.46094 196.28125 z M 349.19727 205.48633 C 351.09626 209.04143 352.97224 212.60451 354.82617 216.17578 C 356.07487 218.58119 357.32264 221.00375 359.05469 223.19531 C 360.78674 225.38691 363.04944 227.35701 365.89062 228.51562 C 367.2607 229.07435 368.74763 229.43608 370.26562 229.58008 C 369.48926 230.31172 368.97279 231.22963 368.79492 232.19141 C 368.60661 233.20961 368.79992 234.2736 369.3418 235.20117 C 367.18446 234.32636 365.15908 233.23125 363.32617 231.94727 C 357.84996 228.11116 354.2545 222.70588 352.00977 217.07227 C 350.51533 213.32165 349.56811 209.42293 349.19727 205.48633 z M 406.08203 210.98633 C 405.75687 215.45853 404.92749 219.88759 403.61719 224.14844 C 401.64904 230.54854 398.49483 236.68885 393.69336 241.04688 C 392.0863 242.50551 390.3095 243.75031 388.41797 244.74414 C 388.89353 243.69037 389.06353 242.48098 388.89844 241.32422 C 388.74249 240.23163 388.29008 239.19057 387.60938 238.35938 C 388.94034 238.19595 390.24405 237.78512 391.44531 237.15039 C 393.93642 235.83413 395.91887 233.59519 397.4375 231.10547 C 398.95614 228.61574 400.05165 225.86154 401.14648 223.12891 C 402.77198 219.07173 404.41703 215.02513 406.08203 210.98633 z M 345.02539 227.0918 C 347.80526 231.70728 350.55171 236.33424 353.26562 240.9707 C 355.09353 244.09354 356.9196 247.23872 359.45508 250.08398 C 361.99056 252.92921 365.30379 255.48801 369.46289 256.99219 C 371.4685 257.71755 373.64504 258.18634 375.86719 258.37305 C 374.7307 259.32296 373.97326 260.51507 373.71289 261.76367 C 373.43723 263.0856 373.72188 264.46569 374.51562 265.66992 C 371.35756 264.53417 368.39211 263.11224 365.70898 261.44531 C 357.69255 256.46503 352.42662 249.44868 349.14062 242.13477 C 346.95297 237.26549 345.56827 232.20255 345.02539 227.0918 z M 441.08594 230.3418 C 444.18636 238.00683 445.49857 246.38897 444.88867 254.63477 C 444.019 266.39284 439.35998 277.49989 436.75195 288.99805 C 434.49391 298.95318 433.77713 309.23469 434.33008 319.42773 C 434.44913 321.62012 434.62601 323.80921 434.86133 325.99219 C 434.08857 327.16955 433.46492 328.44588 433.01172 329.7793 C 432.60266 330.98274 432.33281 332.23323 432.20703 333.49805 C 429.36426 327.31474 427.8271 320.53325 427.72656 313.72852 C 427.59541 304.8402 429.87713 296.09458 432.63086 287.64258 C 436.46644 275.86992 441.28861 264.25156 442.5625 251.93555 C 443.30847 244.72391 442.80627 237.3848 441.08594 230.3418 z M 423.92773 252.08789 C 424.72332 255.46463 425.51038 258.85006 426.28711 262.24219 C 426.81023 264.52691 427.33296 266.82855 428.05859 268.91016 C 428.78426 270.99177 429.73151 272.86436 430.92188 273.96484 C 431.49585 274.49553 432.11988 274.83798 432.75586 274.97461 C 432.43044 275.66959 432.2132 276.5416 432.13867 277.45508 C 432.05968 278.42222 432.14161 279.43345 432.36914 280.31445 C 431.4653 279.48352 430.61558 278.44223 429.84766 277.22266 C 427.55333 273.57904 426.04593 268.44477 425.10547 263.09375 C 424.47935 259.53132 424.08311 255.82702 423.92773 252.08789 z M 456.66211 254.64453 C 457.06142 258.19672 456.93984 261.82504 456.29883 265.42383 C 455.33611 270.82946 453.12068 276.28614 448.93164 280.70898 C 447.52955 282.18932 445.92082 283.53939 444.15234 284.71875 C 444.46529 283.79628 444.43957 282.81849 444.08203 281.95312 C 443.74414 281.13578 443.11207 280.42124 442.28125 279.91992 C 443.61327 279.50735 444.87748 278.908 446 278.15625 C 448.32785 276.59727 449.98567 274.42834 451.12891 272.16406 C 452.2721 269.89975 452.93851 267.52278 453.60938 265.16016 C 454.60534 261.65241 455.62278 258.14645 456.66211 254.64453 z M 409.00586 262.80078 C 410.71987 266.68561 412.41455 270.57987 414.08789 274.48242 C 415.21495 277.11089 416.34097 279.75944 417.9043 282.1543 C 419.46763 284.54912 421.50981 286.70069 424.07422 287.9668 C 425.31084 288.5773 426.65332 288.97367 428.02344 289.13086 C 427.32271 289.93038 426.85587 290.93149 426.69531 291.98242 C 426.52523 293.09511 426.6991 294.25984 427.18945 295.27344 C 425.24228 294.31748 423.41411 293.1198 421.75977 291.7168 C 416.817 287.52489 413.571 281.61902 411.54492 275.46289 C 410.19606 271.36445 409.34059 267.10249 409.00586 262.80078 z M 460.99609 274.31836 C 460.57948 278.50162 459.51668 282.64523 457.83789 286.63086 C 455.31619 292.61748 451.27491 298.36105 445.12305 302.4375 C 443.064 303.80191 440.78874 304.96687 438.36523 305.89648 C 438.97438 304.91082 439.19201 303.77931 438.98047 302.69727 C 438.78053 301.67528 438.20025 300.70135 437.32812 299.92383 C 439.03341 299.77114 440.70309 299.38474 442.24219 298.79102 C 445.43392 297.5598 447.97614 295.46758 449.92188 293.13867 C 451.86759 290.80976 453.26914 288.23383 454.67188 285.67773 C 456.75453 281.88267 458.86278 278.09623 460.99609 274.31836 z M 396.35352 279.14258 C 398.62656 283.53549 400.87269 287.93866 403.0918 292.35156 C 404.58645 295.32382 406.07912 298.31736 408.15234 301.02539 C 410.22555 303.73346 412.93317 306.16796 416.33398 307.59961 C 417.97393 308.29002 419.75525 308.73635 421.57227 308.91406 C 420.64299 309.81816 420.02345 310.95225 419.81055 312.14062 C 419.58514 313.39879 419.81773 314.7132 420.4668 315.85938 C 417.88452 314.77839 415.45955 313.42442 413.26562 311.83789 C 406.71076 307.09776 402.40564 300.42024 399.71875 293.45898 C 397.92995 288.82449 396.79742 284.00687 396.35352 279.14258 z M 482.89648 281.25781 C 484.26978 283.28254 485.21775 285.59418 485.66211 288 C 486.31249 291.52139 485.88511 295.14798 486.17969 298.7168 C 486.28098 299.94548 486.46842 301.17522 486.40039 302.40625 C 486.33236 303.63724 485.97978 304.89964 485.14258 305.80469 C 484.52769 306.46939 483.67568 306.90338 482.78125 307.04492 C 481.88686 307.18665 480.95462 307.04187 480.12891 306.66992 C 479.14702 306.22787 478.33642 305.48754 477.54102 304.76172 C 476.74558 304.0359 475.92914 303.30055 474.94336 302.86719 C 473.99326 302.44951 472.91174 302.33738 471.89648 302.55273 C 470.88123 302.76817 469.937 303.30874 469.23828 304.07617 C 471.22514 305.7688 473.12998 307.55826 474.94336 309.43555 C 476.70281 311.25701 478.3767 313.16176 479.95703 315.14062 C 478.2454 316.34611 476.38282 317.33657 474.42578 318.08008 C 471.17176 319.31629 467.6932 319.86153 464.22461 320.1543 C 460.08542 320.50353 455.91845 320.50353 451.7793 320.1543 C 452.97382 323.17342 455.03609 325.84226 457.65625 327.75977 C 460.17357 329.60206 463.19571 330.74596 466.30078 331.04492 C 467.85511 331.19459 469.42777 331.13528 470.9668 330.87109 C 471.42779 334.30612 471.60236 337.78028 471.48633 341.24414 C 471.44135 342.59154 471.35296 343.94114 471.42969 345.28711 C 471.50641 346.63304 471.75362 347.98808 472.34961 349.19727 C 472.98994 350.49621 474.02882 351.59517 475.28906 352.30859 C 473.99412 353.25503 472.60183 354.06717 471.14062 354.72852 C 469.86052 355.30795 468.52745 355.77125 467.16406 356.11133 C 467.7974 357.92694 469.02867 359.52762 470.62109 360.60547 C 472.40118 361.81038 474.54944 362.33927 476.67188 362.67969 C 478.9568 363.0463 481.27384 363.2208 483.58789 363.19922 C 480.24123 364.90333 477.34959 367.49297 475.28906 370.63281 C 473.61515 373.18358 472.48716 376.09104 472.00391 379.10352 C 473.58885 377.98594 475.26815 377.00111 477.01758 376.16406 C 479.49978 374.97643 482.24302 374.07271 484.9707 374.43555 C 487.08493 374.71674 489.08542 375.78049 490.50195 377.375 C 488.71212 379.15168 487.1919 381.19915 486.00781 383.42578 C 484.74466 385.8011 483.86488 388.37904 483.41406 391.03125 C 486.24228 391.8443 489.34792 391.65902 492.05859 390.51367 C 494.08695 389.65663 495.8899 388.27338 497.24414 386.53711 C 498.20558 387.03548 499.18674 387.49676 500.18359 387.91992 C 501.04476 388.2854 501.94395 388.63928 502.60352 389.30273 C 503.2144 389.91717 503.56952 390.76539 503.64062 391.62891 C 503.71168 392.49245 503.50759 393.36909 503.12109 394.14453 C 502.86673 394.65465 502.52928 395.13796 502.42969 395.69922 C 502.34125 396.19687 502.45998 396.72702 502.74609 397.14258 C 503.03372 397.55814 503.48947 397.85478 503.98633 397.94727 C 505.90383 396.50572 508.3323 395.75879 510.72852 395.87305 C 512.44234 395.95468 514.14287 396.4728 515.56836 397.42773 C 516.79973 398.25265 517.80765 399.38604 518.59375 400.64258 C 519.37989 401.89912 519.95249 403.27969 520.41016 404.68945 C 521.29698 407.42114 521.76492 410.28826 521.79297 413.16016 C 522.59442 411.92399 523.23407 410.58341 523.69336 409.18359 C 524.98055 405.26022 524.80909 401.01748 524.38477 396.91016 C 524.19957 395.11836 523.96911 393.33094 523.69336 391.55078 C 525.758 391.75261 527.79693 392.2182 529.74414 392.93359 C 532.64368 393.99885 535.33158 395.61519 537.69727 397.60156 C 539.00952 398.7034 540.22429 399.91818 541.32617 401.23047 C 542.12713 400.25641 542.61921 399.03119 542.71094 397.77344 C 542.80316 396.50907 542.50081 395.24236 542.02734 394.06641 C 541.55388 392.89041 540.91042 391.79056 540.28906 390.68555 C 538.63446 387.74277 537.09324 384.6726 536.48633 381.35156 C 536.17414 379.64386 536.11678 377.88877 536.31445 376.16406 C 538.52196 375.39335 540.91212 375.1543 543.22852 375.47266 C 545.04416 375.72211 546.81181 376.31139 548.41406 377.20117 C 548.65368 375.59956 548.65368 373.96294 548.41406 372.36133 C 548.03581 369.83313 547.05937 367.40513 545.64844 365.27344 C 544.24465 363.15256 542.40991 361.31785 540.28906 359.91406 C 542.50753 359.44105 544.7652 359.15271 547.03125 359.05078 C 549.04872 358.96007 551.07306 359.01667 553.08203 359.22266 C 552.77438 356.93555 552.06937 354.70333 551.00781 352.6543 C 549.17236 349.11148 546.33257 346.20037 543.40234 343.49219 C 540.84942 341.13274 538.19455 338.88252 535.44922 336.75 C 538.23492 337.34448 541.07314 337.6919 543.91992 337.78711 C 546.45924 337.87215 549.00621 337.757 551.52734 337.44141 C 550.78656 335.95756 549.55216 334.7251 548.06836 333.98438 C 546.34255 333.12279 544.35533 332.9363 542.42773 333.00781 C 540.50018 333.07925 538.58772 333.39213 536.66016 333.46484 C 533.69856 333.57672 530.71676 333.11373 527.92773 332.11133 C 528.46972 332.92189 528.99345 333.7432 529.47852 334.58789 C 533.30226 341.247 535.3568 348.91485 535.35938 356.59375 C 535.36234 365.44555 532.49824 374.48315 526.45508 380.95117 C 524.60606 382.93021 522.46644 384.66198 520.03711 385.85938 C 517.60778 387.05674 514.87855 387.70435 512.17773 387.50195 C 509.1066 387.27178 506.20294 385.96537 503.60938 384.30469 C 501.01579 382.64396 498.67556 380.6227 496.21875 378.76562 C 494.50046 377.46689 492.71913 376.24298 491.14258 374.77539 C 489.56599 373.30784 488.18474 371.56417 487.48438 369.52734 C 486.89069 367.80097 486.80961 365.94732 486.47656 364.15234 C 486.16173 362.4567 485.61614 360.79881 484.79688 359.28125 C 483.99769 357.80107 482.94269 356.45902 482.27734 354.91406 C 481.28616 352.61237 481.22788 350.02911 481.26953 347.52344 C 481.33832 343.37869 481.63835 339.23696 481.60547 335.0918 C 481.57901 331.89039 481.35524 328.69117 480.93359 325.51758 C 480.84326 322.40695 482.24429 319.28659 484.62891 317.28711 C 486.53847 315.68595 488.98664 314.81846 491.45898 314.50586 C 493.93136 314.19329 496.44251 314.40626 498.9082 314.76758 C 505.57291 315.74443 512.15531 317.85973 517.7207 321.6543 C 521.75694 324.40625 525.17525 328.00673 527.89844 332.06836 C 530.43696 331.50464 532.79883 330.16834 534.58594 328.2793 C 536.63833 326.10989 537.9285 323.13177 537.69727 320.1543 C 537.64851 319.5286 537.53021 318.89491 537.22656 318.3457 C 537.07463 318.07093 536.87734 317.82001 536.63477 317.62109 C 536.39212 317.42229 536.10261 317.27641 535.79492 317.21484 C 535.39244 317.13434 534.9754 317.19968 534.57617 317.29492 C 534.17694 317.39054 533.78311 317.51633 533.375 317.56055 C 532.90895 317.61081 532.43148 317.54924 531.99219 317.38672 C 531.58392 315.21391 531.00556 313.07486 530.26367 310.99219 C 529.63102 309.21604 528.87894 307.48087 528.01562 305.80469 C 526.3403 307.61251 524.41431 309.18841 522.31055 310.47266 C 519.80593 312.00159 517.04907 313.11665 514.18555 313.75781 C 515.17601 311.20969 515.81845 308.52527 516.08789 305.80469 C 516.38572 302.79622 516.22435 299.72396 515.39648 296.81641 C 514.80083 294.7247 513.86291 292.72975 512.63086 290.9375 C 510.90755 296.06341 508.39063 300.92278 505.19727 305.28711 C 503.38638 307.76202 501.3591 310.0778 499.14648 312.20117 C 498.64282 310.87505 498.34909 309.46964 498.28125 308.05273 C 498.16522 305.6307 498.70044 303.1793 498.28125 300.79102 C 497.87053 298.45119 496.56535 296.35188 494.99609 294.56836 C 493.37437 292.72516 491.43369 291.13365 490.15625 289.03711 C 489.52787 288.00575 489.0773 286.87689 488.55273 285.78906 C 488.02814 284.70124 487.41275 283.63175 486.52539 282.8125 C 485.53909 281.9019 484.23606 281.34402 482.89648 281.25781 z M 354.30859 286.24023 C 354.10289 287.59558 354.05134 288.97465 354.15234 290.3418 C 354.30008 293.06788 354.94989 295.74407 355.74609 298.35547 C 356.85883 302.00502 358.28021 305.59777 360.43555 308.74609 C 360.46003 308.78186 360.48705 308.81592 360.51172 308.85156 C 360.97089 309.55326 361.47787 310.2227 362.03906 310.8457 C 358.957 310.32055 355.90198 309.63554 352.89062 308.79492 C 350.007 307.98995 347.16297 307.04326 344.37305 305.95703 C 345.63224 307.78017 346.6918 309.74084 347.52734 311.79297 C 348.34237 313.7947 348.94989 315.96395 348.63086 318.10156 C 348.46391 319.2202 348.03755 320.30935 347.33203 321.19336 C 346.62651 322.07737 345.63548 322.74548 344.53125 322.99023 C 343.27502 323.26868 341.95854 322.99584 340.74219 322.57617 C 339.52583 322.15651 338.35955 321.59076 337.11719 321.25586 C 335.21156 320.74216 333.15635 320.79819 331.28125 321.41406 C 332.48131 322.41651 333.64001 323.46898 334.75195 324.56836 C 336.39597 326.1938 337.94051 327.92281 339.32617 329.77344 C 340.02981 330.71318 340.7002 331.70037 341.06445 332.81641 C 341.24658 333.37443 341.3483 333.96206 341.33203 334.54883 C 341.31576 335.13559 341.17892 335.72249 340.90234 336.24023 C 340.40171 337.17739 339.49613 337.81931 338.60156 338.39258 C 335.11912 340.62422 331.31196 342.34962 327.33789 343.49609 C 328.50642 344.8984 329.71557 346.26483 330.96484 347.5957 C 333.43351 350.2256 336.10849 352.74881 339.32617 354.37891 C 340.72433 355.08722 342.21164 355.61938 343.74219 355.95703 C 343.45499 356.91252 343.13845 357.85821 342.79492 358.79492 C 342.43557 359.77478 342.04413 360.74733 341.51758 361.64844 C 340.99102 362.54954 340.32292 363.38128 339.48242 364 C 338.22891 364.92275 336.60668 365.32977 335.06641 365.10547 C 336.8255 366.05482 338.61475 366.94749 340.42969 367.78516 C 342.39832 368.69376 344.39819 369.53734 346.42383 370.31055 C 341.41249 370.52408 336.42462 371.31907 331.5957 372.67578 C 328.35775 373.5855 325.19137 374.74748 322.13281 376.14648 C 324.21837 375.50077 326.42 375.23185 328.59961 375.35742 C 330.63212 375.47452 332.63109 375.92843 334.6582 376.11719 C 336.79985 376.31661 338.95685 376.21734 341.10742 376.25586 C 344.53504 376.31726 347.95196 376.7306 351.3125 377.4082 C 364.2528 380.01743 376.32919 386.54125 389.48242 387.66016 C 397.12648 388.31041 404.97128 387.0503 411.88086 383.7168 C 415.06878 382.1788 418.04773 380.21006 420.71289 377.88086 C 418.8492 373.64221 418.08279 368.92732 418.50586 364.31641 C 418.96493 359.31316 420.79381 354.51168 423.23633 350.12109 C 424.62017 347.63354 426.20479 345.25758 427.96875 343.02344 C 428.03446 340.70743 427.60128 338.37765 426.70703 336.24023 C 425.46901 333.28116 423.38094 330.73966 421.00391 328.58594 C 418.62687 326.43221 415.95419 324.63627 413.30078 322.83398 C 405.48639 317.5262 397.62387 312.03828 388.69531 308.95312 C 384.02461 307.33927 379.13205 306.4098 374.49805 304.69336 C 369.21039 302.73481 364.25828 299.7152 360.46094 295.54688 C 360.17678 295.23496 359.9065 294.91179 359.63672 294.58789 C 359.21494 294.07934 358.80164 293.56399 358.4082 293.0332 C 358.40906 293.02934 358.4093 293.02535 358.41016 293.02148 C 358.4069 293.02156 358.40364 293.02148 358.40039 293.02148 L 358.39844 293.02148 C 357.99838 292.48129 357.61491 291.92985 357.24414 291.36914 C 356.88633 290.82803 356.54162 290.27765 356.20898 289.7207 C 356.20555 289.71495 356.20265 289.70888 356.19922 289.70312 C 356.00869 289.38395 355.82956 289.05802 355.64648 288.73438 C 355.49273 288.46251 355.33441 288.19253 355.18555 287.91797 C 354.88486 287.36302 354.59252 286.80419 354.31055 286.24023 L 354.30859 286.24023 z M 455.06055 329.38477 C 446.99604 330.74349 439.4115 334.80656 433.8125 340.76758 C 430.403 344.39752 427.74219 348.66879 425.46484 353.09766 C 424.10461 355.74297 422.86784 358.4699 422.08594 361.33984 C 421.30403 364.20979 420.98708 367.24048 421.48047 370.17383 C 422.08359 373.75958 423.87168 377.05998 426.09961 379.93359 C 428.32754 382.80721 430.99709 385.30131 433.62305 387.81641 C 438.67473 392.65482 443.86244 397.77525 450.50781 399.95898 C 453.20031 400.84377 456.03419 401.20681 458.85547 401.47656 C 464.08696 401.97676 469.34771 402.17037 474.60156 402.04492 C 481.45215 401.88134 488.41361 401.14345 494.71094 398.44141 C 496.52648 397.6624 498.34709 396.66106 499.45508 395.02539 C 499.87566 394.40451 500.18412 393.68882 500.21289 392.93945 C 500.23913 392.25577 500.02379 391.56493 499.61328 391.01758 C 499.20277 390.47023 498.60118 390.07053 497.9375 389.9043 C 496.57626 391.31237 494.96048 392.47401 493.19336 393.31836 C 489.3844 395.13833 484.86665 395.41539 480.86328 394.07617 C 480.65088 391.72675 480.84351 389.34115 481.43164 387.05664 C 482.22134 383.98916 483.72698 381.11024 485.79492 378.71094 C 483.61016 377.88356 481.1003 377.953 478.96484 378.90039 C 477.48644 379.55628 476.21339 380.59534 474.79102 381.36523 C 473.1035 382.27864 471.20621 382.80378 469.28906 382.88477 C 469.03061 380.86811 469.09464 378.80908 469.47852 376.8125 C 470.31413 372.4664 472.70557 368.43595 476.11914 365.61914 C 474.12239 365.51294 472.1532 364.92257 470.42773 363.91211 C 468.35744 362.69971 466.65386 360.8904 465.49609 358.78906 C 464.56308 357.09566 463.97677 355.21316 463.78711 353.28906 C 465.24291 353.52733 466.75952 353.39417 468.15234 352.9082 C 469.03762 352.59932 469.87201 352.14914 470.61719 351.58008 C 469.71335 350.1955 469.0674 348.64406 468.7207 347.02734 C 468.24159 344.79315 468.33669 342.48225 468.3418 340.19727 C 468.34618 338.23546 468.28314 336.27385 468.15234 334.31641 C 467.00393 334.34274 465.85095 334.21528 464.73633 333.9375 C 462.58717 333.40191 460.61918 332.32571 458.66602 331.28125 C 457.46866 330.64096 456.26623 330.00923 455.06055 329.38477 z M 333.98047 378.74414 C 334.32444 379.07561 334.6628 379.41384 334.99414 379.75781 C 335.371 380.14903 335.73976 380.54817 336.09961 380.95508 C 330.87023 384.12969 326.00662 387.90822 321.63867 392.19141 C 318.8035 394.97155 316.15359 397.9977 314.27148 401.49414 C 312.34916 405.06527 311.26678 409.0524 309.20508 412.54492 C 306.58152 416.98922 302.51486 420.39752 299.53516 424.61133 C 297.63999 427.29141 296.18686 430.32015 295.57422 433.54492 C 295.26343 435.18088 295.17113 436.85726 295.29883 438.51758 C 296.04223 438.00673 296.89642 437.65996 297.78516 437.50586 C 299.1336 437.27206 300.52589 437.48357 301.83789 437.87305 C 303.93587 438.49569 305.8712 439.55754 307.82422 440.54492 C 309.13376 441.20698 310.50331 441.85031 311.96875 441.92578 C 312.8964 441.97359 313.82114 441.78929 314.75 441.7832 C 315.21443 441.7802 315.68253 441.8221 316.12695 441.95703 C 316.57133 442.09192 316.99239 442.32375 317.31055 442.66211 C 317.73447 443.11296 317.94685 443.7162 318.19922 444.28125 C 318.32542 444.56377 318.46537 444.84232 318.64844 445.0918 C 318.83148 445.34128 319.06026 445.56066 319.33594 445.70117 C 319.57473 445.82287 319.84358 445.88229 320.11133 445.89453 C 320.37907 445.90663 320.64768 445.87447 320.91016 445.82031 C 321.43512 445.71184 321.94077 445.51848 322.46875 445.42578 C 323.45571 445.25253 324.47205 445.43751 325.42969 445.73242 C 326.38733 446.02745 327.30838 446.43146 328.26953 446.71484 C 328.75196 446.85707 329.25096 446.97041 329.68945 447.2168 C 329.90867 447.33997 330.1111 447.49807 330.26953 447.69336 C 330.42797 447.88865 330.54022 448.12361 330.57227 448.37305 C 330.61985 448.74329 330.47936 449.13349 330.20508 449.38672 C 331.10842 449.58133 331.99966 449.82698 332.875 450.12305 C 334.54571 450.68813 336.18455 451.4407 337.94141 451.5957 C 339.7549 451.75569 341.56074 451.26514 343.2832 450.67578 C 345.06446 450.06633 346.83922 449.33908 348.7168 449.20117 C 349.74488 449.12566 350.79192 449.23178 351.76758 449.56445 C 352.74324 449.89724 353.6447 450.46202 354.33398 451.22852 C 354.84074 451.79204 355.22504 452.45313 355.66211 453.07227 C 356.09918 453.69142 356.60925 454.28437 357.28125 454.63477 C 357.92666 454.97129 358.67953 455.05862 359.40625 455.01758 C 360.13297 454.97657 360.84503 454.81521 361.56055 454.68164 C 364.47889 454.13684 367.46326 454.0493 370.4043 453.64453 C 373.34534 453.23976 376.31899 452.4827 378.74219 450.76758 C 379.69901 450.09035 380.55044 449.27686 381.4707 448.55078 C 382.39101 447.8247 383.40368 447.17437 384.54297 446.89844 C 385.5702 446.64963 386.64436 446.71677 387.70117 446.73242 C 388.75799 446.7483 389.84986 446.70294 390.80664 446.25391 C 391.41476 445.96848 391.94174 445.531 392.39062 445.03125 C 392.83955 444.5315 393.21512 443.96863 393.57031 443.39844 C 394.17597 442.42618 394.73447 441.41522 395.48828 440.55273 C 396.24209 439.69025 397.22805 438.97439 398.35938 438.79492 C 399.05738 438.68418 399.77169 438.78242 400.47461 438.70898 C 400.82607 438.67232 401.17734 438.59004 401.49023 438.42578 C 401.8031 438.26152 402.07673 438.0095 402.22656 437.68945 C 402.34532 437.43585 402.38389 437.14827 402.36133 436.86914 C 402.33865 436.59002 402.25762 436.31729 402.15039 436.05859 C 401.93594 435.54119 401.61552 435.0749 401.39844 434.55859 C 401.13138 433.92338 401.02859 433.20522 401.19727 432.53711 C 401.28155 432.20304 401.43239 431.88362 401.64844 431.61523 C 401.86448 431.34685 402.14626 431.12925 402.46484 430.99805 C 402.98394 430.78424 403.56339 430.80797 404.12305 430.76367 C 404.40288 430.74137 404.68331 430.70098 404.94727 430.60547 C 405.21123 430.50996 405.45985 430.35629 405.63477 430.13672 C 405.80175 429.92714 405.89593 429.66705 405.9375 429.40234 C 405.97911 429.13766 405.97083 428.86683 405.95117 428.59961 C 405.91186 428.06517 405.82971 427.51262 406.00391 427.00586 C 406.11911 426.67084 406.34142 426.37898 406.60352 426.14062 C 406.86563 425.90229 407.16678 425.71394 407.47266 425.53516 C 407.77853 425.35642 408.09097 425.18607 408.38086 424.98242 C 408.67075 424.77878 408.93992 424.53807 409.13477 424.24219 C 409.36721 423.88922 409.48411 423.46945 409.52539 423.04883 C 409.5667 422.62821 409.53439 422.20526 409.48828 421.78516 C 409.39568 420.945 409.24932 420.07551 409.50391 419.26953 C 409.67043 418.74258 410.00017 418.27973 410.39062 417.88867 C 410.78112 417.49761 411.23143 417.17208 411.68164 416.85156 C 412.13185 416.53106 412.58664 416.21173 412.98633 415.83008 C 413.38602 415.44842 413.73241 414.9989 413.92383 414.48047 C 414.08601 414.04126 414.13167 413.56218 414.0918 413.0957 C 414.05189 412.62922 413.92829 412.17313 413.75977 411.73633 C 413.45978 410.95879 413.02182 410.24392 412.63477 409.50586 C 410.57966 405.58712 409.99468 400.92592 410.97656 396.61133 C 411.4186 394.66892 412.16802 392.79735 413.1875 391.08594 C 409.82959 390.63515 406.44444 390.38945 403.05664 390.34961 C 397.71158 390.28687 392.34612 390.73688 387.03125 390.16602 C 379.16584 389.32133 371.73311 386.28371 364.18945 383.90234 C 356.75682 381.55605 349.11124 379.82489 341.34961 379.11328 C 338.9001 378.88878 336.44017 378.76531 333.98047 378.74414 z M 338.76562 383.48828 C 344.54507 385.11949 350.12059 387.47585 355.33008 390.48828 C 359.17492 392.71159 362.89083 395.36086 365.5 399.01562 C 366.87885 400.94708 367.92399 403.13432 368.57227 405.44531 C 367.58414 405.09571 366.53087 404.93481 365.48047 404.97461 C 364.56314 405.00863 363.64835 405.1957 362.7832 405.52539 C 362.8292 403.74678 362.49848 401.96643 361.82227 400.3418 C 360.63614 397.49211 358.43551 395.2103 355.97266 393.43555 C 353.5098 391.66083 350.76872 390.33777 348.08984 388.92578 C 344.90843 387.24892 341.79608 385.43391 338.76562 383.48828 z M 375.66602 391.34766 C 376.14044 391.42173 376.61604 391.48577 377.0957 391.52734 C 377.76104 391.58517 378.42989 391.59847 379.09766 391.58789 C 380.27995 392.77046 381.36549 394.07727 382.2793 395.56641 C 383.41153 397.41145 384.27039 399.49937 384.80273 401.70703 C 383.99132 401.37292 383.12426 401.21975 382.26172 401.25781 C 381.50845 401.29183 380.75925 401.47025 380.04883 401.78516 C 380.08662 400.08607 379.81502 398.38402 379.25977 396.83203 C 378.48602 394.66939 377.18186 392.85474 375.66602 391.34766 z M 326.28711 392.74609 C 331.14778 393.9106 335.83743 395.59164 340.21875 397.74219 C 343.45236 399.32936 346.57711 401.22096 348.77148 403.83008 C 349.93112 405.20889 350.81025 406.76818 351.35547 408.41797 C 350.52443 408.16826 349.63731 408.05556 348.75391 408.08398 C 347.98241 408.10893 347.21394 408.24117 346.48633 408.47656 C 346.52503 407.20685 346.24841 405.93521 345.67969 404.77539 C 344.68213 402.74106 342.82914 401.11264 340.75781 399.8457 C 338.68649 398.57877 336.38191 397.63495 334.12891 396.62695 C 331.45326 395.42986 328.83581 394.13507 326.28711 392.74609 z M 409.64844 394.0918 C 406.0957 398.0436 401.87408 401.39256 397.21875 403.95508 C 389.08609 408.43173 379.81325 410.43277 370.58594 411.45117 C 358.19518 412.81872 345.52861 412.53418 333.49609 415.79297 C 324.80303 418.14732 316.61357 422.34257 309.625 428.02344 C 315.12316 421.88847 322.17982 417.16251 329.94531 414.41211 C 338.15715 411.50362 346.955 410.8156 355.5918 409.67578 C 363.9256 408.57595 372.22064 407.02877 380.25195 404.54688 C 387.72415 402.23774 394.9474 399.12397 401.75586 395.27539 C 402.47158 395.40465 403.1985 395.47077 403.92578 395.47266 C 405.9065 395.47644 407.88827 395.00013 409.64844 394.0918 z M 396.4082 410.14258 C 396.61509 412.85982 396.3433 415.61136 395.61133 418.23633 C 394.22625 423.20351 391.24991 427.57623 387.9668 431.55273 C 383.51841 436.94062 378.41756 441.79018 372.81055 445.95898 C 375.32236 442.62045 377.9714 439.38582 380.75195 436.26758 C 383.09325 433.64188 385.53856 431.08382 387.50391 428.16602 C 389.46926 425.24822 390.95226 421.90482 391.11523 418.39062 C 391.20814 416.38722 390.86545 414.36466 390.11719 412.50391 C 391.18194 412.48652 392.24469 412.2985 393.25 411.94727 C 394.40115 411.54511 395.47745 410.93029 396.4082 410.14258 z M 380.14648 412.21094 C 379.77518 414.91063 378.92969 417.54375 377.66016 419.95508 C 375.25784 424.518 371.42539 428.16544 367.37695 431.35938 C 361.89154 435.68691 355.88014 439.34884 349.51953 442.24023 C 352.67943 439.50709 355.954 436.90446 359.33008 434.44336 C 362.17288 432.37101 365.10174 430.38839 367.63867 427.95117 C 370.17561 425.51395 372.33138 422.55882 373.23242 419.1582 C 373.74611 417.2195 373.83863 415.17017 373.5 413.19336 C 374.54442 413.40116 375.62094 413.43971 376.67773 413.30859 C 377.88783 413.15847 379.07039 412.78443 380.14648 412.21094 z M 362.12109 414.18164 C 361.5941 416.51307 360.66097 418.74959 359.37891 420.75977 C 356.95285 424.5636 353.3591 427.45525 349.61328 429.93555 C 344.53796 433.29618 339.05895 436.03453 333.33594 438.07227 C 336.27791 435.92637 339.3097 433.90512 342.41797 432.01367 C 345.03526 430.421 347.71912 428.91176 350.09961 426.97656 C 352.4801 425.04136 354.57067 422.62408 355.60938 419.7207 C 356.20149 418.06548 356.43722 416.28152 356.29492 414.52734 C 357.18263 414.78945 358.11288 414.90626 359.03711 414.87305 C 360.09542 414.83506 361.14644 414.6001 362.12109 414.18164 z "
       transform="matrix(0.26458333,0,0,0.26458333,-11.72681,-169.54347)"
       id="path1698-8" />
  </g>
</svg>
