<svg width="719.293" height="834.096" viewBox="0 0 190.313 220.688" xmlns="http://www.w3.org/2000/svg"><path d="M95.157 104.531v11.252c-8.68 11.51-6.52 23.805-.054 34.657 6.782 11.382 10.178 25.815.054 41.596-6.196 9.658-7.584 17.006-3.545 27.238 51.727 0 97.31-42.087 97.303-93.65l-.008-21.093z" fill="#0066b3"/><path d="M1.407 104.531v21.094c0 52.106 43.924 92.362 90.384 93.678-4.535-9.11-1.6-19.85 3.366-27.328 9.997-15.06 7.313-29.666 0-41.532-7.008-11.368-6.998-21.952 0-34.585 2.185-3.945 3.763-7.504 4.94-11.255z" fill="#fd0"/><path d="M99.916 104.531c7.9-22.822-14.395-48.943-4.76-65.508 9.618-16.533 7.19-27.017 0-37.617H1.407v103.125z" fill="#0066b3"/><path d="m188.907 104.531-.008-103.125H95.157c8.372 12.5 7.761 24.857 0 37.5-7.907 12.224-8.51 24.703 0 37.5 6.12 9.375 8.425 16.601 4.687 28.125z" fill="#fd0"/><g stroke="#000" stroke-width=".938"><path d="M145.986 119.347c-9.81 0-17.752 7.943-17.752 17.752v76.159a94.046 94.046 0 0 0 35.52-23.846v-52.313c0-9.809-7.958-17.752-17.768-17.752z" fill="#fd0" stroke-linecap="round" stroke-linejoin="round"/><path d="M44.311 119.347c-9.81 0-17.752 7.943-17.752 17.752v52.222c9.762 10.514 21.89 18.768 35.52 23.928V137.1c0-9.809-7.958-17.752-17.768-17.752z" fill="#0066b3" stroke-linecap="round" stroke-linejoin="round"/><path d="M93.334 119.438c-8.956.909-15.933 8.465-15.933 17.66v81.104a93.44 93.44 0 0 0 14.386 1.1c-4.535-9.11-2.07-20.188 3.374-27.327 12.331-16.172 7.63-29.62 0-41.531-6.512-10.165-6.94-19.918-1.828-31.006z" fill="#0072bc"/><path d="M95.153 119.347c-.823 0-1.13-.006-1.922.102-5.02 9.614-3.9 21.309 1.872 30.995 6.782 11.382 12.187 24.519.058 41.589-6.646 9.353-7.587 17.013-3.547 27.244a96.24 96.24 0 0 0 21.299-2.398v-79.78c0-9.809-7.95-17.752-17.76-17.752z" fill="#fd0"/></g><path d="M83.787 73.957 45.748 95.975 8.554 73.958V31.14l37.194-20.986 38.039 20.986z" fill="#fff" stroke="#000" stroke-linecap="round" stroke-linejoin="round" stroke-width=".938"/><g stroke="#fff" stroke-linecap="round" stroke-linejoin="round" stroke-width=".938"><path d="m21.555 73.985 47.106-46.808c3.358 1.26 5.519 3.452 6.446 6.603l-46.4 47.142c-3.731-.178-6.607-3.461-7.152-6.937z"/><path d="m64.629 79.892-46.28-46.048c.477-3.528 2.316-5.967 6.604-6.446L72.095 72.74c-.167 4.166-2.908 6.995-7.466 7.152z"/><path d="M21.314 52.604c-2.868-2.277-5.605-5.017-8.176-8.335l22.1-22.054c2.866 2.568 5.681 5.238 8.4 8.103zM47.51 30.336c2.48-2.733 6.319-6.502 9.394-9.234L77.92 42.007l-.642 8.014c-.041.518-.318.701-.859.747l-7.818.618z"/></g><path d="M130.837 97.026c5.518-3.225 9.648-5.54 12.48-9.729 5.526-8.174 4.832-18.223-8.512-22.698-9.328 15.176-36.278 13.036-38.33-5.93-.233-2.147-.502-3.409-1.472-5.16 1.467-1.892 1.751-2.41 2.894-4.115 3.13-4.67 7.25-7.358 15.43-7.297 9.093.068 19.21 5.951 21.95 20.343 3.825 2.053 7.587 3.264 11.6 7.375-2.5-7.57-3.34-9.158-6.466-15.08-3.693-1.967-12.333-10.874-14.715-16.084-8.77-19.181 9.3-27.758 21.09-26.862 1.292.098 2.77.124 4.215.103.397 1.324 1.24 1.919 2.925 3.546 3.55 3.428 8.72 5.974 6.873 17.276-1.015 6.21-10.651 16.535-18.01 21.73 2.316 5.918 10.707 19.373 6.666 31.734 6.643-6.15 8.626-12.215 8.234-17.795-8.86-2.987-8.41-17.275-2.792-18.633 5.618-1.357 13.269 9.064 5.37 18.633 0 0 .103 4.613.353 6.9 2.754-2.49 6.286-8.663 8.383-14.203-7.59-8.522 2.767-21.442 7.948-19.692 6.699 2.262 4.512 19.333-5.442 20.622-3.322 7.194-6.524 12.605-10.383 17.83l6.501-1.586c-.92-10.728 15.426-11.156 16.549-6.132 1.525 6.825-12.722 14.674-16.093 7.997-12.427 3.929-24.026 14.36-32.663 20.988-1.392 1.068-6.562-2.925-4.583-4.081z" fill="#00ab4e" stroke="#000" stroke-miterlimit="10"/><g fill="none" stroke="#000"><path d="M178.565 42.307c-2.087 1.72-5.058 1.912-6.838.823" stroke-linejoin="bevel"/><g stroke-linecap="round"><path d="M130.751 97.116c1.573-1.333 7.134 2.724 4.497 4.106" stroke-width=".938"/><path d="M97.226 53.962c18.423 9.341 23.352 3.002 37.307 9.452"/><path d="M104.386 49.666c.399 2.805.912 5.61 3.371 8.414-3.323.848-5.99 2.243-8.169 4.046"/><path d="M104.386 67.21c3.001-3.729 5.76-6.656 10.24-7.785-4.377-4.155-4.942-9.579-4.655-14.413M113.838 72.795c.178-7.748 4.449-10.584 9.338-12.678-5.185-3.658-6.626-9.661-4.97-14.318M123.29 69c.772-3.612 2.289-6.802 7.252-7.152-3.202-2.456-4.05-5.26-3.385-8.1M150.214 14.078c-11.634 14.678-12.903 24.108-8.593 40.1"/><path d="M141.98 17.085c.895 2.545 1.093 5.439.844 8.556 2.717-2.079 5.498-4.014 8.966-4.402"/><path d="M130.594 21.525c6.27 3 9.4 6.898 9.227 12.767 4.107-4.954 10.46-5.255 15.978-7.11"/><path d="M130.737 31.98c4.586 1.927 6.956 6.071 8.898 10.643 3.72-5.256 8.003-7.181 14.016-7.207M134.175 43.222c3.286 1.305 5.64 4.8 6.827 8.395.997-3.005 3.049-5.718 5.346-7.608"/></g><path d="M155.211 49.744c2.083 2.44 3.819 3.85 6.847 4.06M151.999 52.403c3.018 3.816 6.976 4.779 11.457 5.156M163.456 61.784c-4.351-.06-8.717-1.243-12.567-3.294M151.82 62.428c3.443 1.905 7.898 4.517 10.674 2.323"/><path d="M151.104 55.518c3.2-.372 5.405-2.584 7.375-5.227M151.032 59.994c3.582-.933 7.827-3.238 10.24-7.304M152.071 63.108c4.52-1.368 8.429-3.19 11.135-6.659M154.326 66.438c3.862-.903 6.372-2.185 9.246-5.461M157.605 68.336c.9.357 2.171.36 2.709-.026"/><g stroke-linejoin="bevel"><path d="M173.552 41.77c.94 3.568 3.421 5.617 7.232 6.409M170.294 44.455c1.63 3.902 4.646 7.156 9.631 9.524M178.135 57.666c-1.925-.601-9.025-4.056-9.917-10.31M166.392 53.084c1.916 3.807 4.923 6.264 8.843 7.59M168.952 61.032c.48.614 1.635 1.08 2.551.984"/><path d="M180.726 51.141c-4.61.879-9.839 1.974-13.858-.223M166.319 55.113c4.652 1.305 8.843.816 13.196.041M167.323 58.633c2.901 1.684 6.456 1.674 9.488.68M168.182 47.32c3.952.317 7.867.837 12.28-1.433"/></g><g><path d="M182.081 78.104c-3.093.848-6.017 1.91-7.844 4.357"/><path d="M174.356 82.471c-3.188-3.207-2.725-10-.98-12.668M178.435 80.965c-3.671-2.847-2.563-9.156-.856-11.922M181.429 69.625c-2.06 2.888-2.436 5.715.644 8.413M167.627 78.074a4.425 4.425 0 0 0 .59 2.291"/><path d="M167.645 77.895c1.814-4.814 9.578-6.576 15.041-7.626M184.045 74.592c-4.998-.232-10.76 2.814-14.59 7.105"/></g><g><path d="m188.907 125.531-.008-124.125H1.407l.043 123.915c.046 52.106 42.144 93.96 93.707 93.96 51.562 0 93.75-41.818 93.75-93.75z" stroke-linecap="square" stroke-width="2.812"/><path d="M1.407 104.531h187.5M95.157 1.406c10.278 15.859 6.886 28.433 0 37.332-7.625 9.854-9.906 23.99 0 37.379 8.936 12.079 8.042 26.647 0 39.67-7.138 11.556-6.994 22.95 0 34.513 9.161 15.148 9.519 28.886 0 41.962-5.32 7.306-8.71 19.214-3.342 27.417" stroke-width="1.875"/></g></g></svg>