<svg width="719.31" height="896.44" xmlns="http://www.w3.org/2000/svg"><path d="M713.97 5.306H5.34v531.5c0 196.94 158.83 354.33 354.33 354.33 195.5 0 354.38-159.45 354.36-354.33z" fill="#ed1c24"/><path d="M5.34 5.318v531.5c0 53.41 11.697 103.88 32.625 149.12l321.72-255.44V5.308H5.345z" fill="#0072bc"/><path d="M714.01 5.315v531.5c0 53.41-11.697 103.88-32.625 149.12l-321.72-255.44V5.305h354.34z" fill="#fff200" stroke="#f0f"/><g fill="#ed1c24" stroke="#000" stroke-linecap="round" stroke-width="3.543"><path d="M84.69 368.26c3.436.302 5.268 1.279 6.895 4.413 2.953-.638 9.332-4.223 8.629-8.038-4.16-3.576-12.32-3.062-15.523 3.625zM66.98 405.06c.984-3.4 2.836-4.857 7.056-5.538.923-2.876.142-7.085-3.514-8.383-5.058 2.501-7.73 7.803-3.542 13.92zM93.24 436.11c.47-3.126 1.887-5.833 4.5-8.007-2.84-1.7-5.784-3.225-9.329-3.749-.397 4.62-.029 9.435 4.829 11.756zM118.82 431.75c2.234-4.047 7.961-8.44 11.699-10.716-3.61-1.198-7.464-1.173-11.55.01-1.53 3.594-1.655 7.857-.149 10.707z"/></g><path d="M116.11 383.96c11.087-9.912 4.853-25.572-9.796-21.153-16.867 5.087-21.695 17.554-11.242 20.753-3.51 2.207-7.645 2.197-11.653-.551-8.677-5.952-15.256 2.559-12.348 12.2 2.854 9.46 9.582 11.786 15.868 4.228 6.706-8.06 17.26 4.932 4.914 9.984-9.673 3.959-10.391 15.244 2.188 18.537 9.729 2.546 18.346-.11 15.37-9.585-.69-2.2 1.17-4.969 3.928-6.367-1.09 2.447.442 10.137 9.07 12.494 5.43-3.802 17.22-3.685 10.63-13.096 4.58 1.349 11.349-1.296 15.46-4.145.811 11.974-.648 20.08-3.95 28.542 7.944-3.659 17.405-12.771 19.863-27.755 5.955 7.838 6.571 17.982 4.693 28.4 11.102-3.712 15.035-18.155 16.298-29.392 3.61 8.935 11.233 10.125 22.757 12.228l11.1-115.19c-41.26-19.276-101.94 8.24-72.002 43.196 16.285 19.014 8.121 31.409-31.15 36.672z" fill="#fff200" stroke="#000" stroke-linecap="round" stroke-width="3.543"/><g fill="#ed1c24" stroke="#000" stroke-linecap="round" stroke-width="3.543"><path d="M118.84 276.69c2.904-2.147 5.977-3.114 9.218-2.904-.413 4.35-2.393 7.432-5.162 10.773-2.762-2.876-3.277-4.993-4.056-7.869zM99.4 299.79c2.36-3.636 2.78-7.66 3.536-11.617-3.994-1.18-7.987-1.137-11.98.04.04 5.4 2.351 9.539 8.444 11.577zM63.79 297.27c.952-3.237 2.547-5.429 5.177-7.324-2.396-2.045-4.446-4.577-8.445-4.38-1.258 3.99-.09 8.647 3.268 11.704zM57.73 261.66c4.41-2.97 6.031-.362 8.207 1.136 1.536-3.774.864-7.55-.616-11.324-6.38.965-7.545 5.223-7.591 10.188zM135.596 465.15c2.261-1.07 5.12-1.136 6.65.27 2.555-1.609 7.502-8.856 5.537-12.2-6.025-2.295-12.802 3.569-12.187 11.93zM138.156 510.02c1.726-3.71 3.503-6.874 7.236-8.956-.83-2.75-3.361-4.92-7.24-5.605-3.898 4.08-5.042 9.887.005 14.561zM179.184 515.13c.802-3.319 1.173-7.186 1.222-9.867-3.25-.626-7.788-.16-11.298.561 1.207 4.477 4.717 8.787 10.076 9.306zM201.325 490.05c-3.497 1.736-6.989 3.478-9.556 6.61.567 3.78 2.309 6.732 6.907 7.668 5.347-4.564 5.136-9.122 2.649-14.278z"/></g><path d="M263.43 313.35c23.536 20.674 43.231-12.192 33.082-35.355-9.355-21.353-14.866-35.266-2.194-47.11-10.054-6.149-12.044-22.378 3.55-16.38 7.258-10.342-18.004-19.018-23.36 1.816-1.84-4.678 1.13-13.571 8.629-17.091 8.726-4.095 12.554-6.26 12.627-15.302-5.963 4.729-11.89 5.795-15.9 8.72-5.525 4.033-8.749 8.566-12.08 15.5-2.6-15.886 10.76-21.658 21.45-27.093 15.953-8.111 14.56-21.526 4.17-21.987-.134 7.418-5.678 10.454-13.555 12.434-10.55 2.653-14.856 14.061-16.574 23.443-3.562-8.903-.697-17.752 4.965-25.522 3.684-5.054 8.988-9.434 12.982-13.823 9.94-10.923 19.854-22.518 18.517-33.27 5.355 7.532 17.48-3.371 3.769-18.407-7.504-8.228-10.296-17.555 1.242-24.258-9.407-14.09-26.324-.148-20.987 13.485-7.75-4.443-11.116-10.88-13.688-17.677-15.492 4.653-15.363 23.443-1.301 30.406-14.281 2.095-14.962 14.147-11.826 25.146 6.809-7.18 13.205-8.449 16.643-5.033 4.528 4.497 4.359 10.427-5.912 19.258-23.162 19.915-40.172 43.955 4.081 119.63 4.287 7.331 8.098 21.428 6.016 28.88-1.547 5.538-9.43 9.499-14.773-1.204-15.893-31.837-28.477-68.547-46.132-94.848L194.79 171.3l-58.13 10.134-13.747 33.502c-8.709 14.42-18.905 26.782-33.765 32.686-9.881-14.54-17.898-7.352-20.612.712-.99 2.883-5.439 3.683-5.304 8.002.145 4.644 5.155 12.665 12.566 11.195-5.493 6.36-16.983-6.614-17.288 8.083 2.418 5.828-.68 15.082 11.829 14.641 2.998 5.298 8.548 3.842 14.396.089-.737-5.653-2.363-12.266 2.224-14.054-1.924 3.779-1.26 16.207 9.812 11.475 12.054 1.964 11.982-6.82 8.926-12.697-2.055-3.95.525-10.461 5.964-9.83-1.561 1.67-1.768 4.606-1.54 6.943.444 4.539 4.6 5.152 9.783 3.743 5.753 1.883 8.673-2.197 8.98-8.982.206-4.557-11.224-15.77-3.004-16.016-2.22 2.44.095 6.086 2.42 8.158 2.133 1.9 4.655 1.401 7.17 5.155 2.841-3.936 3.743-6.729 3.834-11.006 2.11 3.41 4.072 5.537 7.346 7.781 2.463-3.393 3.135-7.326 3.935-12.38 4.055 10.157 12.647 15.03 22.757 16.778-3.3-7.315-6.839-12.118-4.684-19.062 1.656-5.337-1.636-8.977-1.237-13.965 8.498 13.111 27.034 33.356 44.188 44.376-1.605 18.671.221 34.232 3.308 51.965-35.598 30.761-29.957 47.427-20.762 66.453 12.959 26.813-3.063 45.07-28.382 66.627 4.548-17.43-7.42-28.612-17.184-9.225-4.626 9.182-18.082 24.406.277 18.546-2.02 13.258-18.188 19.915-8.046 27.528 5.474 4.109 17.478 2.694 18.261-1.82 1.174-6.768 1.403-12.628 5.101-10.725 4.288 2.207.84 4.336-2.683 7.546-3.394 3.093-4.833 11.847 11.235 12.073 11.62.164 13.905-6.37 9.45-9.807-3.097-2.39-4.478-6.324-4.453-9.908 16.184 20.128 18.218 5.84 25.691 4.102 3.232-2.584 7.222-6.747 7.754-10.644 5.786.989 8.524-5.098 7.632-12.12 6.517 4.323 10.653 9.1 12.001 15.424 6.644-11.409 3.71-17.845.508-27.824 5.158 4.914 7.754 5.87 13.91 4.188-5.106-4.871-7.57-10.414-7.548-16.707 9.408 6.005 16.02 1.62 22.234-3.301-7.6-3.108-13.998-7.343-14.265-13.975 11.58 9.558 23.96-1.037 27.282-13.26 3.081-11.341-2.908-23.327-14.084-22.672 10.765 26.32-19.447 35.208-12.67 6.486-6.394.01-10.935-5.37-10.856-10.267.091-5.688 5.263-11.428 15.533-18.386 20.613-13.967 20.277-32.65 12.578-53.708z" fill="#fff200" stroke="#000" stroke-linecap="round" stroke-width="3.543"/><g fill="#ed1c24" stroke="#000" stroke-linecap="round" stroke-width="3.543"><path d="M62.67 136.44c5.157-.102 9.871.697 13.501 4.061-3.774-3.243-6.084-6.575-6.549-11-3.197 2.454-5.886 4.01-6.952 6.939zM47.84 123.41c2.564-2.841 5.346-2.408 8.144-1.742l-7.085-12.876c-2.645 3.368-5.797 6.404-1.059 14.618zM57.49 75.91l-5.606 8.793c-.768-3.222-2.657-4.326-5.567-3.5.435-4.473 3.988-9.321 11.173-5.293zM81.48 73.1c3.85 1.53 5.156 5.037 4.167 8.839l7.339-3.243c-3.836-6.662-7.67-8.362-11.506-5.596zM142.369 104.18c18.977-3.236 26.787 3.551 25.303 17.278l12.707-4.138-3.088-36.724L165.12 69.83l-5.743 11.042c4.195 4.45 4.983 9.1 3.458 13.887-7.17-4.38-14.389-3.746-22.776-1.961-9.619 2.046-21.835-2.111-29.659-7.112 1.083 10.986 11.217 22.032 31.97 18.493z"/></g><path d="M210.229 153.94c4.322 20.819 13.746 23.668 26.001 17.722-9.065-9.042-15.01-17.278-12.709-30.108 5.987 10.212 21.711 6.489 26.98-3.942-12.59-3.474-15.888-12.81-15.669-23.683 7.702-2.671 14.908-6.05 16.058-18.08-12.013 2.7-21.89.593-26.318-13.772 20.468-11.576 12.507-27.781-5.054-10.463 16.181-15.078 2.71-21.506-5.99-12.305 9.345-17.232-8.885-16.763-21.292-18.588 6-11.36-9.479-10.175-6.351-1.01-18.074-2.365-24.081 3.433-26.06 11.957-23.188-2.706-22.9 6.796-22.967 15.658-.125 16.432 6.684 15.118 10.077 19.76 4.588-2.402 12.029 2.178 18.903-16.291 4.285 16.25 10.215 6.71 10.388 32.43.19 28.32-17.506 12.018-26.528 5.608-4.8 3.916-6.925 1.678-4.476 15.85 14.8-3.919 21.854 5.375 16.685 9.528.525-1.634-8.814-6.295-13.107 7.174-2.127-10.222-6.764-10.42-8.555-10.494-5.315-.218-7.755 6.421-14.725 9.6.19-1.766 4.176-7.903.406-11.31-2.34-2.117-6.254-2.58-7.951-3.584-11.735-6.948-19.45-23.02-29.341-26.702 4.946.586 12.696-.828 10.51-11.767-2.137-10.694-16.733-12.187-19.685-.878-11.377-18.834-31.573-11.249-26.883 2.806-2.582 8.206 13.948 4.063 11.52 13.208-5.977-6.332-22.44-2.756-12.851 12.864 3.961 16.096 16.283 3.346 20.654 4.855-3.161 2.281-6.665 6.887-1.266 12.514 1.46 10.007 11.9 11.174 15.2.417 6.937 6.102 2.072 13.846-6.673 21.374 5.579 5.295 12.372 2.262 15.605-1.204.53 6.554-5.673 12.798-13.112 12.93 7.729 11.887 16.488 12.841 26.596-.5-5.895 25.03-17.426 39.22-29.144 46.312 15.813 4.44 37.863-3.155 36.966-27.007 1.295 13.366 4.794 25.787 9.413 37.727 4.246-14.475 12.588-27.834 22.03-40.892-9.268 16.26-4.905 36.308 13.625 39.89-8.576-7.52-5.998-21.876 4.628-26.76 5.565 15.381 14.913 21.901 25.807 19.34-13.476-10.187-3.912-27.328 2.13-45.002-3.28 19.75 14.583 41.79 28.373 24.692-15.536-8.748-14.483-24.382-11.847-39.873z" fill="#fff200" stroke="#000" stroke-linecap="round" stroke-width="3.543"/><g stroke="#000" stroke-linejoin="round" stroke-width=".354"><path d="M146.147 180.82c4.606-6.575 8.201-13.588 2.478-27.606 7.8 12.518 5.918 21.468.215 29.327M114.48 185.03c-.398-5.95 2.537-12.884 6.216-19.417 4.635-8.231 10.896-15.604 18.154-17.074-8.456 6.28-21.537 24.775-21.183 36.264M106.94 164.6c3.942-7.491 9.08-13.756 15.316-17.79-5.194 6.138-11.335 14.235-12.538 19.407M200.715 91.49c6.791 3.949 10.8 9.686 15.383 15.055 2.514-8.83 2.95-16.887-4.293-22.08 3.978 8.612 3.75 13.135 1.75 15.937-3.92-5.202-8.09-8.858-12.84-8.912zM165.195 197.75c-2.438-6.75-2.164-19.745 4.59-27.444-3.218 7.99-5.057 20.326-.133 29.614M191.897 169.7c3.58-12.373.559-28.566-3.092-37.355 8.831 13.299 8.002 26.484 6.347 37.951M208.602 154.31c.962-8.613-2.041-20.804-8.614-30.125 8.661 7.658 10.12 17.976 12.014 30.697M223.974 142.9c-9.892-10.096-21.855-21.269-23.326-33.206 4.71 9.27 20.133 22.863 22.52 28.427"/><path d="M235.022 117.51c-10.935-3.523-17.482-9.813-19.334-20.794 5.316 9.213 13.877 16.703 21.574 14.624M218.766 70.17a46.269 46.269 0 0 1-13.078 9.003c6.279.587 11.764-2.34 15.152-6.703M212.346 58.12c-3.044 5.33-14.655 7.587-15.608 16.185 4.888-5 12.156-6.689 18.071-14.086M204.856 118.01c5.394 2.969 10.946 5.749 14.632 10.768-2.025-11.337-3.24-22.968-18.524-29.504 3.363 7.54 11.779 10.651 13.085 21.775-2.349-2.802-5.98-2.396-9.192-3.039zM192.078 141.93c3.763 3.713 7.47 8.33 9.645 13.113 2.936-10.013.07-19.788-8.543-29.33 2.898 7.783 8.564 16.062 6.632 22.747-1.618-3.339-5.204-4.9-7.734-6.53zM181.487 180.34c4.256-14.234 3.791-35.215-1.535-38.775.345 19.707 3.085 24.399 1.535 38.775zM88.22 100.45c-3.516-1.35-4.667-3.433-2.123-7.548-.062 2.616.62 4.259 2.968 4.437M79.31 88.97c1.35 3.516 3.933 3.917 5.08 1.123-2.65.051-3.362-4.643-2.187-6.405M103.53 154.97c8.322 1.145 14.199-14.632 9.06-19.473-1.03 9.707-3.54 14.254-9.06 19.473zM99.06 145.76c6.547.586 10.376-5.316 7.792-9.337-1.164 4.211-3.67 6.757-7.792 9.337zM96.9 137.69c4.26 1.446 6.307-2.944 4.171-6.479-.934 2.625-2.557 4.675-4.171 6.479zM162.869 167.11c3.907-.941 3.301-8.026-.867-8.468 1.496 2.625 1.95 5.47.867 8.468zM173.361 166.58c-3.705-1.203-3.76-15.612.126-17.174-.737 5.436-.468 12.103-.126 17.174z"/><g><path d="M184.672 152.3c3.357 2.12 4.839 5.422 6.357 8.83 2.655-10.2 3.483-16.1-5.13-25.64 2.898 7.782 4.432 12.372 3.22 19.057-.9-1.214-1.98-1.96-4.447-2.247zM197.337 88.02c2.274-3.218-5.713-5.032-6.96-8.749-1.71 4.992 5.699 5.98 6.96 8.749zM196.485 95.92c3.179-4.933-5.359-4.805-7.843-9.187-2.123 5.974 6.507 6.289 7.843 9.187zM195.174 103.35c3.528-5.648-6.89-5.727-8.236-9.136-2.167 6.946 7.518 5.619 8.236 9.136zM190.967 113.62c3.29-5.266-2.95-6.863-5.137-11.227-2.435 6.567 4.144 8.141 5.137 11.227zM186.868 121.24c4.615-5.133-2.75-5.763-3.7-10.789-3.407 6.788 3.768 7.615 3.7 10.789zM183.598 130.16c3.9-5.26-1.716-4.535-1.098-11.335-4.955 4.358 1.166 8.16 1.098 11.335z"/></g></g><path d="M170.215 62.62c6.393.895 10.359-.404 15.447-4.617-3.765-3.51-9.234-7.653-16.817-7.519-2.946.052-7.015-.056-10.063 1.518 1.594 5.185 4.87 9.7 11.432 10.618z" fill="none" stroke="#000" stroke-linecap="round" stroke-width="3.543"/><g stroke="#000"><path transform="matrix(1.0449 0 0 1.1235 -20.64 -49.382)" d="M183.67 94.984a3.933 3.58 0 1 1-7.867 0 3.933 3.58 0 1 1 7.867 0z" opacity=".98" stroke-linejoin="round" stroke-width=".327"/><g stroke-width=".354"><path d="M137.155 70.22c3.41 3.343 5.32 2.095 7.534 2.233 2.134.133 5.396 6.66 13.242-8.62 3.53 3.316-.374 11.991-4.907 14.637-3.276 1.912-7.764 2.947-12.468 3.675z"/><path d="M156.587 62.95c2.274-3.218-4.963-8.22-17.898-6.686-.248.725-2.292 12.28-1.388 12.783 9.222 5.129 3.483-8.84 4.445-8.743 6.318.64 5.115 4.171 6.588 4.183 3.239.026 1.419-2.403 8.253-1.537zM177.192 130.13c-2.162-1.135-3.966-2.598-4.38-4.866-5.18 4.76 1.795 9.023 4.38 4.866z" stroke-linejoin="round"/></g></g><g fill="none" stroke="#000" stroke-linecap="round" stroke-width="3.543"><path d="M288.993 106.84c1.28 4.006 6.075 2.258 1.875-1.938M136.493 238.4c4.195-2.922 8.823.672 14.375-2.5M179.736 248.2c-2.944-2.98-.86-28.217 13.025-21.71M215.103 328.64c11.743-9.866 15.49-16.454 20.14-33.992"/><path d="M211.678 276.76c6.384 4.492 13.923 23.913 17.658 34.877M238.725 358.78c4.962-2.585 7.953-4.59 9.002-9.516"/></g><path d="M214.432 325.93c-10.927 2.211-21.961.668-32.777 6.731 3.934 2.046 19.196-.227 24.099 4.609l10.435-8.603-5.806-24.934c-2.945 14.046-27.696 2.698-33.001 11.354 19.208-.188 23.926.658 37.05 10.843z" stroke="#000" stroke-linejoin="round" stroke-width=".354"/><g fill="none" stroke="#000" stroke-linecap="round" stroke-width="3.543"><path d="M245.089 336.51c6.247-1.703 9.398-6.116 11.913-11.085M216.981 379.29c4.372.088 7.658-1.452 10.145-4.19M201.602 370.45c.896-2.029 1.768-4.071 2.646-6.11M207.332 357.35a124.375 124.375 0 0 1 2.561-5.256M212.967 346.66a60.794 60.794 0 0 1 3.587-5.183M221.318 336.14a46.96 46.96 0 0 1 3.333-2.938M230.682 421.63c2.515-1.414 4.033-3.22 4.488-6.135M216.451 442.93c3.842-1.414 6.067-3.485 7.847-6.135M194.442 462.11c1.156-1.905 3.284-3.864 5.902-5.252"/></g><path d="M231.664 461.13c-.719-3.125-8.379-9.882-6.254-16.257 1.938 3.906 5.336 7.614 9.711 11.364" stroke="#000" stroke-linejoin="round" stroke-width=".354"/><g fill="none" stroke="#000"><g stroke-linecap="round"><path d="m127.868 394.34 6.125 6.688M149.681 398.21c1.879 1.879 3.77 3.748 6.625 4.813" stroke-width="1.772"/><g stroke-width="3.543"><path d="M197.182 248.48c2.191-.49 4.431-.834 6.167-2.688M188.255 234.78c2.663.958 5.423 1.676 8.554 1.466M208.806 64.54c-1.724 7.897 1.93 11.106 4.753 11.189M206.556 43.164c-1.724 7.897 1.368 17.481 4.19 17.564M201.868 57.65c-4.213-6.783 1.28-4.475 1.75-14.875M246.608 298.7c.774-1.233.284-2.693-.815-3.572M256.931 204.46c-.118 2.867 2.507 5.254 4.625 1.688"/></g></g><path d="m714 536.8-.03-531.5H5.34L5.5 536c.177 196.94 159.29 355.13 354.17 355.13C554.55 891.13 714 733.08 714 536.8z" stroke-linecap="square" stroke-width="10.63"/><path d="M359.67 5.306v425.2l321.93 255.34M359.67 430.5 37.74 685.84" stroke-width="7.087"/></g><g stroke="#000" stroke-linecap="round" stroke-linejoin="round"><path d="M361.56 500.41c-14.736 0-26.688 11.92-26.688 26.656s11.952 26.688 26.688 26.688 26.688-11.952 26.688-26.688-11.952-26.656-26.688-26.656zm0 13c7.553 0 13.688 6.103 13.688 13.656s-6.135 13.688-13.688 13.688-13.688-6.135-13.688-13.688 6.135-13.656 13.688-13.656zM349.31 586.94c-28.002 48.214-72.154 115.88-72.406 137.5-.568 48.588 41.453 80.344 87.313 80.344 45.859 0 78.043-36.758 78.75-80.344.178-10.952-1.018-20.705-7.156-31.156-12.301-20.945-33.978-52.555-67.625-106.03l-18.875-.312zm20.156 17.844s40.147 60.29 56.812 91.156c-38.846-13.863-106.64-12.175-132.06 2.781l54.781-93.688 20.469-.25z" fill="#fff" opacity=".98" stroke-width="3.543"/><path transform="matrix(1.0081 0 0 1.0345 -14.64 -63.488)" d="M441.14 739.97a67.89 14.647 0 1 1-135.78 0 67.89 14.647 0 1 1 135.78 0z" fill="none" opacity=".98" stroke-width="3.47"/></g><g fill="#fff" stroke="#000" stroke-linejoin="round" stroke-width="3.543"><path d="m353.93 718.98-1.395-175.82c-.05-6.33 6.466-17.156 14.845-15.15 8.32 4.1-3.328 9.066-3.228 14.645l3.156 176.35" opacity=".98"/><path d="M346.6 557.42c8.562 3.816 16.571 4.343 26.516-.631 4.876-2.439 8.502 10.22 0 13.637-7.307 2.937-14.782 5.487-26.643 1.389-8.398-2.902-4.867-16.62.126-14.395z" opacity=".98" stroke-linecap="round"/><path d="M346.22 571.91c8.562 3.816 16.571 4.343 26.516-.631 4.876-2.439 8.502 10.22 0 13.637-7.307 2.937-14.782 5.487-26.643 1.389-8.398-2.902-4.867-16.62.126-14.395z" opacity=".98" stroke-linecap="round"/></g><g fill="none" stroke="#000" stroke-linecap="round" stroke-width="3.543"><path d="M406.96 722.96c9.285-.715 17.261-3.26 24.875-6.314M412.39 735.97c7.192-.554 13.761-1.939 18.94-5.177M415.17 746.95c5.61-.432 10.547-1.425 14.142-3.535M406.33 762.23c5.088.052 9.725-1.025 14.142-2.652M397.74 775.62c4.714.751 9.428.024 14.142-.884M378.93 787.11a64.49 64.49 0 0 0 16.289-.505M358.98 793.04l2.652.126M307.584 775.62c1.453.92 3.01 1.431 4.798 1.01M298.619 762.61l2.778.379M290.868 749.12l3.054.668M286.935 735.94c1.953.975 3.791 2.042 6.894 2.097M284.603 719.68c2.753 1.795 5.75 3.186 9.215 3.793M331.97 696.82c3.65-.88 7.302-.972 10.952-.85"/></g><path d="M529.45 518.07c8.635-35.065 9.51-50.177 10.527-78.402.295-8.18-9.573-23.276-21.178-33.708-11.475-10.314-24.666-16.088-28.619-2.614 3.878-13.637 27.435-9.115 24.152 15.29-1.234 9.177-19.796 20.603-32.861 14.962-21.433-9.254-30.108-45.363-42.965-61.434 12.395-3.854 24.242-8.884 33.931-19.693 22.574-25.185 49.965-10.541 50.2 7.023.379 28.372-28.641 15.603-20.56 1.956-3.842 5.6-3.784 11.73 7.426 16.8 4.835 2.187 25.383 22.584 36.52 36.1-2.534-51.148-6.492-90.31-51.815-113.88-7.613-3.205-17.666-4.386-17.838 3.957 5.988-5.62 24.641-4.454 17.054 16.086-6.753 18.282-41.8 16.884-53.57-10.748-5.045-11.841-11.162-22.313-19.535-29.88 11.82-4.57 21.662-9.757 29.104-16.883 16.752-16.042 54.332-18.055 54 5.743-.287 20.46-22.597 12.495-21.525.724-1.13 11.614 5.97 13.317 14.33 17.617 12.902 8.576 24.09 16.98 34.977 28.916-5.495-47.4-16.295-75.64-44.573-100.38-7.38-6.457-18-7.615-20.029-1.022 4.674-2.888 20.283-5.79 16.771 14.286-2.39 13.666-37.876 25.14-49.747-27.266-2.313-10.212-6.983-19.55-13.286-27.919 10.777-2.394 21.406-5.057 30.99-10.877 19.24-11.686 53.968-10.838 53.447 19.632-.212 12.412-21.408 22.52-27.363-1.81-3.384 10.266 5.702 16.5 15.414 25.37 6.703 6.12 12.97 12.7 19.31 16.425-1.136-39.901 18.183-40.911-7.576-94.323-5.709-10.534-11.537-15.718-14.942-8.569 6.65-4.537 12.851 2.258 12.974 9.961.124 7.751-5.88 16.299-16.623 15.913-25.624-.922-33.814-27.567-21.404-51.787 4.655-9.084 7.815-20.238 8.426-29.663 8.537 2.024 16.483 2.619 24.357 2.942 20.845.854 43.915 7.651 44.66 30.9.471 14.71-13.284 27.417-24.57 22.853-7.295-2.95-9.433-21.011 2.703-18.827-1.306-2.59-11.876.42-8.558 12.758 6.197 11.824 10.934 24.046 13.431 36.878 10.164-22.371 25.69-42.87 45.836-61.998 5.052-4.796 9.548-7.423 11.037-11.506 1.571-4.306 1.778-12.14-4.643-11.985 8.1 5.36 5.782 22.604-9.713 19.746-13.172-2.43-15.107-21.966-3.84-32.842 12.66-12.222 29.89-13.247 47.203-7.17 7.214 2.532 13.967 4.239 23.217 2.97-1.766 9.056-1.164 14.532-.838 23.4.763 20.795-11.855 44.85-30.055 45.987-14.005.874-24.257-12.328-21.255-21.656 8.784-19.038 20.539-7.831 19.447-.63 6.584-7.496-6.232-19.389-23.262-1.238-24.52 25.079-41.544 52.756-45.556 76.872 9.597-7.35 21.739-11.359 32.956-11.617 22.356-.514 22.125-13.186 15.969-14.885 10.142 13.191-19.74 19.183-20.278 1.42-.546-18.019 36.739-40.362 58.824 8.247 3.63 7.992 8.637 15.291 17.584 20.622-8.837 2.842-16.653 7.774-23.864 16.901-16.852 21.33-51.93 17.554-51.534-5.185.418-24.053 30.255-20.56 19.467-1.535 5.303-1.45 10.483-19.454-16.295-14.726-28.881 5.1-36.99 21.475-37.217 48.49-.105 12.458 1.61 26.261 5.018 40.656 12.926-12.704 26.464-13.75 40.027-12.5 18.624 1.716 14.232-15.727 6.888-14.195 20.751 11.726-16.439 24.98-17.19.119-.657-21.702 38.513-25.244 53.946.024 4.638 7.594 9.687 15.326 16.838 20.491-5.764 6.16-11.277 11.86-16.054 18.004-4.17 5.363-7.789 11.9-14.446 15.193-17.066 8.44-41.467 4.44-41.346-15.519.106-17.407 25.402-12.849 18.633.65 6.1-1.97-2.603-19.48-21.105-11.669-15.092 6.372-20.332 22.826-14.049 49.506 2.868 12.176 5.517 30.404 8.566 40.684 7.825-8.181 17.783-15.037 27.653-16.462 15.605-2.252 19.23-2.782 18.886-11.726 5.872 7.07-21.588 15.655-22.317-2.958-.954-24.392 36.78-30.068 56.243-1.752 4.75 6.91 11.751 12.616 20.423 18.125-6.026 3.655-12.352 8.481-15.548 15.934-16.545 38.578-60.067 30.887-60.54 7.703-.235-11.541 3.521-15.217 8.05-16.434 12.902-3.469 22.342 11.87 10.002 19.9 6.533.7 7.379-20.803-6.214-20.34-11.013.375-32.953 15.65-29.219 34.884 3.927 20.224 3.552 42.214.948 59.695 9.372-5.122 22.233-9.152 33.728-9.178 13.074-.03 25.765-10.427 18.631-17.297 1.541 10.606-3.917 14.164-13.617 16.184-10.204-2.041-10.425-7.604-10.579-14.47-.57-25.455 35.996-38.857 54.735-.642 4.53 9.238 10.812 17.479 19.843 24.306-9.456 6.028-14.24 13.774-18.634 21.624-17.833 31.858-66.092 24.875-54.332-10.894 4.325-13.153 26.98-1.159 21.823 6.464 5.566-1.621-1.906-15.735-20.294-10.976-12.745 3.3-29.609 9.086-31.23 22.13-2.432 19.547-6.765 38.806-12.258 57.342-4.405 14.865-23.755 8.86-20.665-3.688z" fill="#22b24c" stroke="#000" stroke-width="3.543"/><g fill="none" stroke="#000" stroke-linecap="round" stroke-width="3.543"><path d="M529.25 519.35c3.725-16.415 25.254-9.596 20.392 3.851M619.68 431.98c4.359-1.145 8.942-1.166 13.637-.631M605.08 337.25c5.05-.158 10.102.583 15.152 1.768M589.22 255.17c4.974.428 9.758 1.804 14.395 3.914M590.12 163.44c4.381-.2 10.561.255 14.942 1.881M595.66 76.3c3.46-3.765 6.51-6.119 11.179-8.707M492.8 93.97c2.339 2.855 5.051 5.561 5.108 9.329M454.77 189.87c4.516 2.18 8.325 4.712 11.894 7.365M461.02 284.87c4.087.143 8.402.972 12.965 2.543M478.52 378.97c5.85.901 11.847.928 17.251 4.508"/></g></svg>