<svg xmlns="http://www.w3.org/2000/svg" width="511.157" height="596.651" viewBox="0 0 135.244 157.864"><path style="fill:gold;fill-opacity:1;fill-rule:evenodd;stroke:none;stroke-width:1.32291663;stroke-linecap:round;stroke-linejoin:round;stroke-miterlimit:4;stroke-dasharray:none;stroke-opacity:1" d="m188.74 89.02-.306 89.247c-1.49 37.54-30.94 67.273-66.654 67.294-35.682-.046-65.142-29.79-66.654-67.294L54.82 89.02h66.959z" transform="translate(-54.158 -88.358)"/><path style="opacity:1;fill:#090;fill-opacity:1;fill-rule:evenodd;stroke:#000;stroke-width:5;stroke-linecap:round;stroke-linejoin:round;stroke-miterlimit:4;stroke-dasharray:none;stroke-opacity:1;paint-order:markers fill stroke" d="M255.572 2.5v591.65h.006c134.983-.08 246.289-112.452 251.922-254.34L508.658 2.5H255.572z" transform="scale(.26458)"/><path style="fill:#03f;stroke:#000;stroke-width:.99999994px;stroke-linecap:butt;stroke-linejoin:miter;stroke-opacity:1;fill-opacity:1" d="M276.402 2.5a53.207 53.207 0 0 0 2.356 3.574c4.415 6.098 9.86 11.376 14.539 17.274 9.77 12.313 15.994 27.055 20.967 41.966 4.972 14.912 8.818 30.206 14.476 44.872 9.817 25.442 25.16 48.838 45.192 67.341 25.337 23.404 57.126 38.306 86.838 55.825 10.099 5.954 20.102 12.291 31.17 16.16 5.087 1.778 10.47 2.985 15.859 3.353l.86-250.365H276.401z" transform="scale(.26458)"/><path style="fill:#fff;stroke:#000;stroke-width:.79374999;stroke-linecap:round;stroke-linejoin:round;stroke-miterlimit:4;stroke-dasharray:none;stroke-opacity:1" d="M121.779 89.02a34.523 34.523 0 0 1 6.99 10.955c2.22 5.59 2.933 11.64 3.9 17.578.966 5.936 2.258 11.974 5.452 17.07 3.996 6.377 10.56 10.651 17.099 14.375 6.54 3.724 13.394 7.201 18.613 12.622 5.298 5.503 8.574 12.72 10.288 20.164 1 4.34 1.494 8.769 1.704 13.221a73.467 73.467 0 0 0 2.61-16.738l.113-32.966c-2.714-2.617-5.624-5.014-8.789-7.06-5.185-3.354-10.942-5.705-16.428-8.54-5.486-2.836-10.842-6.282-14.514-11.247-4.737-6.404-6.185-14.63-9.893-21.68-1.22-2.32-2.71-4.538-4.686-6.26a13.434 13.434 0 0 0-2.083-1.494z" transform="translate(-54.158 -88.358)"/><path style="fill:none;fill-rule:evenodd;stroke:#000;stroke-width:1.32291663;stroke-linecap:round;stroke-linejoin:round;stroke-miterlimit:4;stroke-dasharray:none;stroke-opacity:1" d="m188.74 89.02-.306 89.247c-1.49 37.54-30.94 67.273-66.654 67.294-35.682-.046-65.142-29.79-66.654-67.294L54.82 89.02h66.959z" transform="translate(-54.158 -88.358)"/><path style="fill:#fff;stroke:#000;stroke-width:.79374999;stroke-linecap:round;stroke-linejoin:round;stroke-miterlimit:4;stroke-dasharray:none;stroke-opacity:1" d="M4.293 162.725a119.266 119.266 0 0 1-1.884 15.13 120.604 120.604 0 0 1-11.04 32.207c-3.323 6.515-7.266 12.808-9.243 19.848-.435 1.548-.771 3.194-.371 4.751.162.63.45 1.24.917 1.691.233.226.509.41.812.526.304.115.635.161.957.119.587-.078 1.107-.443 1.483-.901.376-.458.625-1.005.853-1.552.775-1.864 1.344-3.807 1.985-5.722 1.79-5.35 4.138-10.492 6.39-15.664 5.59-12.838 10.644-26.023 13.112-39.806.747-4.17 1.254-8.384 1.518-12.612z" transform="translate(90.387 -88.358)"/><path style="fill:#fff;stroke:#000;stroke-width:.79374999;stroke-linecap:round;stroke-linejoin:round;stroke-miterlimit:4;stroke-dasharray:none;stroke-opacity:1" d="M4.293 162.725a7.862 7.862 0 0 1-.258-3.974 7.84 7.84 0 0 1 .976-2.535c2.092-.072 4.199.295 6.143 1.072 2.877 1.15 5.34 3.16 7.454 5.426 2.113 2.265 3.914 4.8 5.808 7.251a115.144 115.144 0 0 0 3.9 4.779 29.067 29.067 0 0 1-12.676-.39 16.804 16.804 0 0 0-2.146-6.534c-.624-1.08-1.374-2.096-2.285-2.948-.912-.853-1.989-1.54-3.175-1.928a7.414 7.414 0 0 0-3.74-.22z" transform="translate(90.387 -88.358)"/><path style="fill:#000;stroke:#000;stroke-width:.26458332px;stroke-linecap:butt;stroke-linejoin:miter;stroke-opacity:1" d="m91.624 104.003-.767 9.16-.922.642-.46 4.66c-.154 1.554-.506 5.516-1.997 7.714-.356.526-1.536 1.125-1.536 1.125l1.075.643c.099 3.074 0 8.712 0 12.535l-10.442 11.41h-4.529v12.245h-1.112v2.327h-1.111v3.232h1.111v12.494l-3.265 4.573v3.857h1.228v8.678h-2.303v7.07h50.06v-7.07h-2.303v-8.678h1.228v-3.857l-3.265-4.573v-12.494h1.111v-3.232h-1.111v-2.327h-1.112v-12.245h-4.529l-10.442-11.41c0-3.823-.099-9.461 0-12.535l1.075-.643s-1.18-.6-1.536-1.125c-1.49-2.198-1.843-6.16-1.996-7.713l-.461-4.66-.922-.643z" transform="translate(-54.158 -88.358)"/><path style="opacity:1;fill:#fff;fill-opacity:1;fill-rule:evenodd;stroke:none;stroke-width:.79374999;stroke-linecap:round;stroke-linejoin:round;stroke-miterlimit:4;stroke-dasharray:none;stroke-opacity:1;paint-order:markers fill stroke" d="M90.814 131.692v1.388h-1.388v1.62h1.388v1.387h1.62v-1.388h1.388v-1.62h-1.388v-1.387zm-.547 17.45v2.327H87.94v2.715h2.327v2.326h2.715v-2.326h2.326v-2.715h-2.326v-2.327zm-8.693 11.536a3.038 3.36 0 0 0-3.038 3.36v11.243h6.075v-11.243a3.038 3.36 0 0 0-3.037-3.36zm20.1 0a3.038 3.36 0 0 0-3.037 3.36v11.243h6.075v-11.243a3.038 3.36 0 0 0-3.037-3.36zm-10.05 21.303a4.654 4.52 0 0 0-4.654 4.52v15.124h9.308V186.5a4.654 4.52 0 0 0-4.654-4.52z" transform="translate(-54.158 -88.358)"/><path d="M91.624 104.003v-6.05" style="fill:none;stroke:#000;stroke-width:.5291667;stroke-linecap:butt;stroke-linejoin:miter;stroke-miterlimit:4;stroke-dasharray:none;stroke-opacity:1" transform="translate(-54.158 -87.83)"/><path d="M90.061 99.507h3.126" style="fill:none;stroke:#000;stroke-width:.52916676;stroke-linecap:butt;stroke-linejoin:miter;stroke-miterlimit:4;stroke-dasharray:none;stroke-opacity:1" transform="translate(-54.158 -87.83)"/></svg>