<svg xmlns="http://www.w3.org/2000/svg" width="420.071" height="480.003"><path d="M45.033 1019.771h1850M1900 1250c0 254.781-103.534 485.442-270.926 652.408S1230.432 2172.645 975 2172.645c-255.432 0-486.682-103.27-654.074-270.237C153.534 1735.443 39.393 1504.56 50 1250L60 50h1840z" style="fill:#000;stroke:#000;stroke-width:8;stroke-linecap:butt;stroke-linejoin:miter;stroke-opacity:1" transform="matrix(.2206 0 0 .2206 -4.933 -5.147)"/><path d="m1300 1130-180 180 100 100 20.5-19.5c6.49-6.173 15.085-10.25 24.75-10.25s18.416 3.916 24.75 10.25 10.25 15.085 10.25 24.75-3.916 18.416-10.25 24.75l-12.5 12.5-7.469 7.469c-2.357-2.349-3.177-3.134-.03.03l-80 80 110 110c114.622-35.883 267.792-89.858 332.53-190.499-111.115-108.587-220.747-217.716-332.531-329.5zm107.5 197.5 17.5 17.5 17.5-17.5 25 25-17.5 17.5 17.5 17.5-25 25-17.5-17.5-17.5 17.5-25-25 17.5-17.5-17.5-17.5z" style="fill:#eee;fill-opacity:1;stroke:#000;stroke-width:2;stroke-opacity:1" transform="matrix(.2206 0 0 .2206 -4.933 -5.147)"/><path d="m640 1170-80 80-10 10-260 260s13.474 13.195 20 20c10.995 11.465 14.042-13.857 37.063 2.938 12.844 8.543 36.456 8.45 47.656 1.78C408.902 1535.843 420 1516.387 440 1530c11.69 7.958 11.402 8.598 20 0l180-180 390 390 170 170 10 10c8.598 8.598 7.572 6.749 20 0 21.167-11.494 31.098 5.842 45.281 14.719 14.92 6.637 34.87 7.294 47.656-1.781 23.02-16.795 26.068 8.527 37.063-2.938 6.526-6.804 20-20 20-20l-90-90-180-180z" style="fill:#eee;fill-opacity:1;stroke:#000;stroke-width:1;stroke-opacity:1" transform="matrix(.2206 0 0 .2206 -4.933 -5.147)"/><path d="m1120 1350-530 550 70 70 530-550z" style="fill:#fdca01;fill-opacity:1;stroke:#fff;stroke-width:1;stroke-opacity:1" transform="matrix(.2206 0 0 .2206 -4.933 -5.147)"/><path style="fill:#000;stroke:none" d="M54.659 404.659H1900v310.682H54.659z" transform="matrix(.2206 0 0 .2206 -4.933 -5.147)"/><path transform="rotate(90 .107 -5.04) scale(.22059)" style="fill:#000;stroke:none" d="M49.318-1130H1020v310.682H49.318z"/><path d="M58.286 717.023c-.264 99.394 1.498 200.07-4.651 298.623 255.947-.64 512.952 1.277 768.239-.957-.639-99.409 1.277-199.876-.958-298.623-254.076.638-509.215-1.276-762.63.957zM1130.756 717.023c.64 99.409-1.277 199.876.958 298.623 254.078-.638 509.214 1.277 762.63-.957-.638-99.409 1.278-199.876-.957-298.623-254.076.638-509.216-1.276-762.63.957zM1130.756 56.031c.639 116.919-1.277 234.895.958 351.152 254.078-.638 509.214 1.277 762.63-.957-.638-116.919 1.278-234.895-.957-351.152-254.076.637-509.216-1.276-762.63.957zM62.663 56.031c.639 116.919-1.277 234.895.958 351.152 251.888-1.368 504.836-.19 756.064-3.146.059-116.188 2.777-233.437 1.368-348.963-252.662.639-506.389-1.276-758.39.957z" style="fill:#eee;fill-opacity:1;stroke:none" transform="matrix(.2206 0 0 .2206 -4.933 -5.147)"/><path d="m74.844 1050-1.656 196.5c-10.34 248.16 100.94 473.263 264.125 636.031C500.495 2045.3 725.928 2145.97 974.938 2145.97s474.44-100.67 637.625-263.438c163.183-162.768 264.124-387.655 264.124-636.031V1050" style="fill:none;stroke:#eee;stroke-width:8;stroke-linecap:butt;stroke-linejoin:miter;stroke-opacity:1" transform="matrix(.2206 0 0 .2206 -4.933 -5.147)"/><path d="m1407.5 1327.5 17.5 17.5 17.5-17.5 25 25-17.5 17.5 17.5 17.5-25 25-17.5-17.5-17.5 17.5-25-25 17.5-17.5-17.5-17.5z" style="fill:#eee;stroke:#000;stroke-width:6;stroke-linecap:butt;stroke-linejoin:miter;stroke-opacity:1" transform="matrix(.2206 0 0 .2206 -4.933 -5.147)"/></svg>