<svg xmlns="http://www.w3.org/2000/svg" width="522.469" height="599.651" viewBox="0 0 138.237 158.658"><g transform="translate(262.898 -207.842)"><path style="fill:#fff;fill-rule:evenodd;stroke:none;stroke-width:2.11666656;stroke-linecap:round;stroke-linejoin:round;stroke-miterlimit:4;stroke-dasharray:none;stroke-opacity:1" d="m-125.72 208.9-.311 90.306c-1.515 37.54-31.448 66.214-67.75 66.235-36.267-.046-66.211-28.73-67.748-66.235l-.311-90.306h68.058z"/><path style="fill:#090;stroke:#000;stroke-width:5;stroke-linecap:round;stroke-linejoin:round;stroke-miterlimit:4;stroke-dasharray:none;stroke-opacity:1;fill-opacity:1" d="M261.236 4 50.563 483.787C96.977 551.874 174.29 595.54 261.233 595.65c87.011-.05 164.329-43.668 210.723-111.755L261.237 4z" transform="matrix(.26458 0 0 .26458 -262.898 207.842)"/><path style="fill:#fff;stroke:#000;stroke-width:1.05833333;stroke-linecap:round;stroke-linejoin:round;stroke-miterlimit:4;stroke-dasharray:none;stroke-opacity:1" d="M-353.106 300.446a8.384 8.384 0 0 1-.396-2.762c.024-.97.217-1.929.493-2.859.266-.896.609-1.769.887-2.662.312-.998.543-2.02.69-3.056a8.852 8.852 0 0 1 2.07-2.366c.58-.461 1.213-.847 1.819-1.272.605-.425 1.19-.895 1.633-1.488.32-.43.557-.913.863-1.352.306-.439.7-.845 1.207-1.015a1.656 1.656 0 0 1 1.577.296 4.394 4.394 0 0 1 1.676-.69c.39-.072.787-.09 1.183-.099.329-.007.658-.007.986 0a2.287 2.287 0 0 1 .01-1.162c.102-.378.305-.729.582-1.006.271-.273.607-.472.95-.649.341-.176.694-.332 1.022-.535a4.267 4.267 0 0 0 1.873-2.563 12.273 12.273 0 0 1 3.648.099c.565.1 1.122.241 1.676.394.794.22 1.585.468 2.322.838.736.371 1.42.871 1.917 1.528.542.716.84 1.584 1.282 2.366a7.346 7.346 0 0 0 2.267 2.465c1.143.702 2.294 1.392 3.45 2.07.49.287.981.573 1.43.919.448.346.855.757 1.134 1.25.29.514.433 1.104.465 1.693.032.59-.044 1.181-.17 1.758-.216 1-.583 1.967-1.084 2.86a2.49 2.49 0 0 1 1.48 1.28c.247.517.307 1.115.196 1.677a2.962 2.962 0 0 1-.986 1.676 5.94 5.94 0 0 1 1.282 2.267c.269.892.323 1.832.394 2.76.067.87.151 1.737.185 2.607.075 1.953-.106 3.924-.655 5.8-.548 1.874-1.472 3.652-2.783 5.1-2.377 2.626-5.816 3.988-9.169 5.127-3.186 1.082-6.435 2.046-9.777 2.43-3.343.384-6.804.168-9.94-1.05-4.718-1.83-8.484-6.022-9.662-10.943-.95-3.962-.22-8.298 1.973-11.731z" transform="translate(142.333)"/><path transform="translate(142.333)" style="fill:#fff;stroke:#000;stroke-width:1.05833333;stroke-linecap:round;stroke-linejoin:round;stroke-miterlimit:4;stroke-dasharray:none;stroke-opacity:1" d="M-353.106 300.446a8.17 8.17 0 0 0-3.208-.156 8.242 8.242 0 0 0-5.314 3.189 168.914 168.914 0 0 0-2.819 3.554c-.79 1.025-1.57 2.06-2.282 3.141-.222.338-.44.682-.6 1.054-.16.371-.264.773-.25 1.178.014.406.145.801.319 1.169.283.6.682 1.144 1.169 1.594a12.377 12.377 0 0 0-2.55 3.613c-.61 1.314-.985 2.726-1.276 4.145-.107.518-.203 1.042-.196 1.57.006.53.121 1.068.408 1.512.288.445.729.768 1.17 1.063.636.426 1.296.819 1.912 1.275 1.13.836 2.093 1.872 3.082 2.87a64.533 64.533 0 0 0 6.377 5.632 8.832 8.832 0 0 1 5.314-.744c1.217.212 2.374.677 3.507 1.17.742.322 1.48.657 2.231.956.594.235 1.197.448 1.807.637a52.857 52.857 0 0 1 8.502-7.333 91.511 91.511 0 0 1 .744-15.41 6.898 6.898 0 0 1-1.913-1.806c-.55-.768-.944-1.652-1.594-2.338-.564-.596-1.297-1.012-2.062-1.306-.766-.295-1.57-.475-2.37-.658a319.008 319.008 0 0 1-5.076-1.2 37.62 37.62 0 0 1-5.032-8.371z"/><path style="fill:none;fill-rule:evenodd;stroke:#000;stroke-width:2.11666656;stroke-linecap:round;stroke-linejoin:round;stroke-miterlimit:4;stroke-dasharray:none;stroke-opacity:1" d="m-125.72 208.9-.311 90.306c-1.515 37.54-31.448 66.214-67.75 66.235-36.267-.046-66.211-28.73-67.748-66.235l-.311-90.306h68.058z"/><path style="fill:red;stroke:#000;stroke-width:.79374999;stroke-linecap:round;stroke-linejoin:round;stroke-miterlimit:4;stroke-dasharray:none;stroke-opacity:1;fill-opacity:1" d="m-245.75 240.979.97 66.67 2.633 1.802 2.633-1.802.97-66.67h-3.603z"/><path style="fill:red;stroke:#000;stroke-width:.79374999;stroke-linecap:round;stroke-linejoin:miter;stroke-miterlimit:4;stroke-dasharray:none;stroke-opacity:1;fill-opacity:1" d="M-242.147 309.451V240.98"/><path style="fill:red;stroke:#000;stroke-width:.79374999;stroke-linecap:round;stroke-linejoin:round;stroke-miterlimit:4;stroke-dasharray:none;stroke-opacity:1;fill-opacity:1" d="m-243.94 217.069-.931 23.921h5.448l-.93-23.921-1.794.664z"/><path style="fill:red;stroke:#000;stroke-width:.79374999;stroke-linecap:round;stroke-linejoin:round;stroke-miterlimit:4;stroke-dasharray:none;stroke-opacity:1;fill-opacity:1" d="M-248.235 239.192a42.691 42.691 0 0 0-1.431.004c-2.33.045-4.672.281-6.91.931-.863.25-1.707.561-2.526.93l2.26 3.655a24.79 24.79 0 0 1 3.122-.997c1.699-.42 3.439-.66 5.183-.797 1.393-.11 2.79-.154 4.187-.133l.399-3.322a43.538 43.538 0 0 0-4.284-.27zm12.176 0c-1.431.02-2.862.11-4.284.27l.4 3.322a44.91 44.91 0 0 1 4.186.133c1.744.137 3.484.377 5.183.798a24.79 24.79 0 0 1 3.122.996l2.26-3.654a19.123 19.123 0 0 0-2.525-.93c-2.239-.65-4.58-.886-6.91-.93-.478-.01-.955-.011-1.432-.005z"/><rect style="opacity:1;fill:red;fill-opacity:1;fill-rule:evenodd;stroke:#000;stroke-width:.79374999;stroke-linecap:round;stroke-linejoin:round;stroke-miterlimit:4;stroke-dasharray:none;stroke-opacity:1;paint-order:markers fill stroke" width="10.632" height="4.784" x="-247.463" y="238.731" ry="1.196" rx="1.196"/><ellipse style="opacity:1;fill:red;fill-opacity:1;fill-rule:evenodd;stroke:#000;stroke-width:.79374999;stroke-linecap:round;stroke-linejoin:round;stroke-miterlimit:4;stroke-dasharray:none;stroke-opacity:1;paint-order:markers fill stroke" cx="-242.147" cy="216.604" rx="4.419" ry="3.92"/><rect style="opacity:1;fill:red;fill-opacity:1;fill-rule:evenodd;stroke:#000;stroke-width:.79374999;stroke-linecap:round;stroke-linejoin:round;stroke-miterlimit:4;stroke-dasharray:none;stroke-opacity:1;paint-order:markers fill stroke" width="10.898" height="1.329" x="-247.596" y="217.002" ry=".664" rx=".664"/><path transform="translate(142.333)" style="fill:none;stroke:#000;stroke-width:1.05833333;stroke-linecap:round;stroke-linejoin:round;stroke-miterlimit:4;stroke-dasharray:none;stroke-opacity:1" d="M-361.628 303.479a7.504 7.504 0 0 1 2.46 3.242c.386.986.559 2.054.502 3.111a4.209 4.209 0 0 1 2.861.402c.807.434 1.453 1.122 2.26 1.556.865.466 1.9.61 2.86.402M-358.666 309.832a15.307 15.307 0 0 1-3.111 3.614 6.353 6.353 0 0 0-.402 2.209c-.002 1.158.313 2.317.15 3.463-.055.395-.167.78-.3 1.155a9.87 9.87 0 0 1-1.406 2.61M-366.623 328.347a24.208 24.208 0 0 0 2.888-5.464c.681.092 1.373.11 2.058.05a9.859 9.859 0 0 0 4.316-1.456c1.185-.734 2.242-1.717 3.564-2.158.852-.285 1.763-.326 2.66-.351 2.56-.074 5.12-.043 7.68 0 1.673.028 3.346.061 5.019.1"/><path transform="translate(142.333)" style="fill:none;stroke:#000;stroke-width:1.05833333;stroke-linecap:round;stroke-linejoin:round;stroke-miterlimit:4;stroke-dasharray:none;stroke-opacity:1" d="M-348.276 309.13a3.186 3.186 0 0 0-1.706 1.255c-.364.538-.553 1.174-.703 1.807a18.891 18.891 0 0 0-.452 2.91c-.098 1.286-.068 2.578 0 3.866.065 1.204.163 2.418 0 3.613-.14 1.032-.47 2.026-.803 3.012-.822 2.436-1.672 4.872-2.81 7.177a31.353 31.353 0 0 1-2.414 4.08M-344.305 338.868c.297-1.458.346-2.967.145-4.441-.238-1.748-.826-3.457-.803-5.22.012-.957.204-1.926 0-2.861a3.475 3.475 0 0 0-1.154-1.908"/><path style="fill:#000;stroke:#000;stroke-width:.26458332px;stroke-linecap:butt;stroke-linejoin:miter;stroke-opacity:1" d="M-221.402 322.883a24.194 24.194 0 0 1-2.888 5.464 17.36 17.36 0 0 1 1.836 1.61 5.077 5.077 0 0 1 .249-2.406c.294-.82.8-1.563 1.004-2.41a3.584 3.584 0 0 0-.201-2.258zm11.795 2.71c-.57 1.867-1.25 3.7-2.033 5.488a36.97 36.97 0 0 1-1.585 3.217 29.324 29.324 0 0 1-1.606 2.551 8.868 8.868 0 0 1 3.967-.87c.451.007.902.05 1.346.126.08-.825.134-1.653.162-2.481a54.93 54.93 0 0 0 0-3.313 88.191 88.191 0 0 0-.25-4.718z"/><path transform="translate(142.333)" style="fill:#fff;stroke:#000;stroke-width:1.05833333;stroke-linecap:round;stroke-linejoin:round;stroke-miterlimit:4;stroke-dasharray:none;stroke-opacity:1" d="M-323.422 311.634c-2.024 0-4.067.211-5.986.855a13.759 13.759 0 0 0-5.651 3.636 91.48 91.48 0 0 0-.744 15.41c.374.787.843 1.529 1.395 2.203.983 1.202 2.212 2.174 3.355 3.224.857.787 1.67 1.622 2.434 2.5 1.457.146 2.907.366 4.342.657 1.173.239 2.336.525 3.487.856 1.266.364 2.518.78 3.75 1.25a17.362 17.362 0 0 0 4.078-2.434c.497-.399.974-.826 1.382-1.316a6.54 6.54 0 0 0 1.052-1.776 9.201 9.201 0 0 0 2.5-1.382c1.685-1.31 2.854-3.154 4.21-4.802.57-.693 1.185-1.365 1.58-2.171.447-.914.584-1.946.657-2.96.074-1.022.088-2.054-.08-3.064a8.583 8.583 0 0 0-.775-2.397 5.54 5.54 0 0 0-.855-3.158c-.236-.371-.516-.713-.77-1.072-.255-.36-.487-.742-.612-1.164-.089-.302-.12-.618-.163-.93-.043-.312-.1-.626-.231-.912a1.834 1.834 0 0 0-.725-.803 1.834 1.834 0 0 0-1.052-.25 15.06 15.06 0 0 0-1.578-2.5 14.738 14.738 0 0 0-1.777-1.908c-.412-.37-.847-.718-1.33-.99-.482-.273-1.013-.47-1.564-.523-.54-.051-1.087.037-1.605.2-.517.163-1.008.401-1.487.656-1.287.682-2.532 1.499-3.947 1.842-.612.148-1.246.204-1.849.385a3.23 3.23 0 0 0-.858.387 2.02 2.02 0 0 0-.648.675c-.154.271-.231.586-.22.897.012.312.112.62.285.88 0 0 0 0 0 0z"/><path transform="translate(142.333)" style="fill:none;stroke:#000;stroke-width:1.05833333;stroke-linecap:round;stroke-linejoin:round;stroke-miterlimit:4;stroke-dasharray:none;stroke-opacity:1" d="M-335.374 318.78a12.194 12.194 0 0 0 2.662 3.653c.994.934 2.136 1.693 3.253 2.475.692.485 1.376.98 2.052 1.486M-323.422 311.634a6.878 6.878 0 0 0 2.876 1.957c.795.282 1.643.417 2.405.778.539.256 1.02.617 1.485.99.51.408 1.005.833 1.486 1.274.796.876 1.598 1.749 2.404 2.617.786.845 1.578 1.69 2.264 2.617.51.69.96 1.425 1.344 2.193a63.658 63.658 0 0 0-.142 5.092c.015 1.204.064 2.412-.07 3.608a11.881 11.881 0 0 1-1.158 3.939"/><path transform="translate(142.333)" style="fill:none;stroke:#000;stroke-width:1.05833333;stroke-linecap:round;stroke-linejoin:round;stroke-miterlimit:4;stroke-dasharray:none;stroke-opacity:1" d="M-328.619 339.462a24.17 24.17 0 0 1 2.98-3.448c1.256-1.203 2.638-2.266 3.961-3.396a51.139 51.139 0 0 0 3.607-3.395c.66.992 1.42 1.918 2.264 2.759.805.801 1.684 1.524 2.546 2.263.93.797 1.841 1.615 2.733 2.454"/><path transform="translate(142.333)" style="fill:none;stroke:#000;stroke-width:1.05833333;stroke-linecap:round;stroke-linejoin:round;stroke-miterlimit:4;stroke-dasharray:none;stroke-opacity:1" d="M-325.639 336.014a5.32 5.32 0 0 0 1.132-3.89c-.118-1.042-.542-2.021-.778-3.042-.14-.602-.213-1.226-.142-1.84a3.976 3.976 0 0 1 .566-1.626 28.52 28.52 0 0 1 1.98-.637c.882-.248 1.798-.464 2.547-.99.964-.677 1.526-1.775 2.051-2.83.51-1.022 1.022-2.05 1.698-2.97.415-.567.89-1.089 1.415-1.556"/><path transform="translate(142.333)" style="fill:none;stroke:#000;stroke-width:1.05833333;stroke-linecap:round;stroke-linejoin:round;stroke-miterlimit:4;stroke-dasharray:none;stroke-opacity:1" d="M-320.334 323.989a5.75 5.75 0 0 1 1.84 2.334 5.75 5.75 0 0 1 .423 2.9M-315.17 316.633a21.243 21.243 0 0 1 2.829-2.405 18.001 18.001 0 0 1 2.334-1.415 15.626 15.626 0 0 1 3.163-1.179M-309.158 324.06a6.896 6.896 0 0 0 3.466-1.557c.445-.377.84-.81 1.273-1.202a9.351 9.351 0 0 1 1.983-1.378"/><g style="stroke:#000;stroke-opacity:1;stroke-width:1.05833333;stroke-miterlimit:4;stroke-dasharray:none;stroke-linejoin:round;stroke-linecap:round"><path d="M-351.431 289.107a87.997 87.997 0 0 0 2.176 2.832 70.132 70.132 0 0 0 4.794 5.425 58.287 58.287 0 0 0 4.037 3.722 33.274 33.274 0 0 0-.315 2.523 34.448 34.448 0 0 0-.126 2.965c0 1.37.08 2.74.237 4.1M-342.263 281.91a4.488 4.488 0 0 0 1.65 2.27c.51.366 1.092.62 1.65.908.558.288 1.108.623 1.504 1.111.353.434.563.966.733 1.5.169.533.303 1.079.529 1.591.475 1.078 1.338 1.955 2.334 2.586.662.42 1.388.74 2.144.946" style="fill:none;stroke:#000;stroke-width:1.05833333;stroke-linecap:round;stroke-linejoin:round;stroke-miterlimit:4;stroke-dasharray:none;stroke-opacity:1" transform="translate(142.333)"/><path d="M-338.418 281.122a15.406 15.406 0 0 1 .96 5.077M-320.869 282.896a6.716 6.716 0 0 1 .63 4.817 5.018 5.018 0 0 0-2.207.757c-.807.513-1.45 1.246-2.208 1.83-.486.374-1.03.698-1.387 1.198a2.22 2.22 0 0 0-.316 1.892 6.064 6.064 0 0 0-1.892 1.388 6.624 6.624 0 0 0-1.325 2.208 7.293 7.293 0 0 0-.441 2.523 3.082 3.082 0 0 0-2.334.063c-.64.286-1.161.783-1.767 1.135a4.483 4.483 0 0 1-3.784.316M-330.015 299.509a6.636 6.636 0 0 0 1.955 3.532c.391.368.833.693 1.136 1.136.362.53.493 1.18.757 1.766.256.57.637 1.074 1.009 1.577.57.77 1.127 1.55 1.67 2.338M-338.566 311.98a7.366 7.366 0 0 0 2.747.713c.528.03 1.063.006 1.577.126a2.88 2.88 0 0 1 1.715 1.182" style="fill:none;stroke:#000;stroke-width:1.05833333;stroke-linecap:round;stroke-linejoin:round;stroke-miterlimit:4;stroke-dasharray:none;stroke-opacity:1" transform="translate(142.333)"/><path d="M-326.357 293.39a35.285 35.285 0 0 1 2.271 2.776c.88 1.194 1.69 2.457 2.208 3.848.36.97.574 1.994.63 3.027M-321.98 308.796c.784-1.215 1.554-2.44 2.31-3.673.772-1.26 1.533-2.538 2.081-3.91.179-.447.335-.905.568-1.326a4.092 4.092 0 0 1 2.068-1.808M-315.644 293.445a32.72 32.72 0 0 0-1.503-2.2 30.148 30.148 0 0 0-1.64-2.018 27.953 27.953 0 0 0-1.451-1.514" style="fill:none;stroke:#000;stroke-width:1.05833333;stroke-linecap:round;stroke-linejoin:round;stroke-miterlimit:4;stroke-dasharray:none;stroke-opacity:1" transform="translate(142.333)"/></g><path style="fill:red;stroke:#000;stroke-width:.4797784;stroke-linecap:round;stroke-linejoin:round;stroke-miterlimit:4;stroke-dasharray:none;stroke-opacity:1;fill-opacity:1" d="M-351.78 259.555a5.757 5.757 0 0 1-.394 1.947c-.298.76-.753 1.445-1.214 2.117-.168.246-.338.49-.508.734-.248.07-.505.108-.762.113-.501.01-1.013-.104-1.496.028a1.52 1.52 0 0 0-.819.565c-.11.15-.192.324-.226.508-.033.185-.017.376-.028.564a1.945 1.945 0 0 1-.056.367c.246-.299.586-.52.96-.62.338-.093.694-.09 1.044-.114.402-.028.813-.1 1.157-.31.274-.168.489-.414.734-.621.25-.212.535-.385.762-.621.233-.243.397-.542.541-.846.145-.304.273-.616.447-.904.276-.456.662-.839.931-1.298.248-.424.39-.901.48-1.383.09-.484.13-.982.057-1.468a1.352 1.352 0 0 0-.09-.345.628.628 0 0 0-.22-.276.555.555 0 0 0-.37-.082.722.722 0 0 0-.35.148c-.203.157-.325.397-.41.64-.13.37-.187.765-.17 1.157z" transform="matrix(1.1029 0 0 1.10298 231.474 -30.053)"/><path style="fill:red;stroke:#000;stroke-width:.4797784;stroke-linecap:round;stroke-linejoin:round;stroke-opacity:1;stroke-miterlimit:4;stroke-dasharray:none;fill-opacity:1" d="M-349.888 258.37a6.66 6.66 0 0 0-.283 2.314c.021.377.074.758 0 1.129-.061.31-.209.597-.381.863-.173.265-.372.512-.55.774a5.86 5.86 0 0 0-.339.564 2.955 2.955 0 0 1-.592.254c-.609.185-1.268.172-1.863.395-.4.15-.753.402-1.101.65-.305.217-.615.439-.847.734-.133.169-.239.36-.31.564a1.95 1.95 0 0 1 .423-.282.829.829 0 0 1 .267-.088.387.387 0 0 1 .27.06c.065.046.109.116.169.169a.476.476 0 0 0 .238.108.682.682 0 0 0 .264-.012c.172-.039.328-.128.486-.209.333-.17.684-.306 1.016-.48.62-.326 1.172-.788 1.834-1.016a2.74 2.74 0 0 1 1.61-.056c.333.092.648.25.93.451.29.205.547.453.763.734.12-.286.11-.625-.028-.903-.123-.248-.335-.44-.565-.593a2.799 2.799 0 0 0-2.06-.423c.103-.212.216-.42.338-.621.462-.758 1.056-1.43 1.496-2.202.318-.556.55-1.156.79-1.75.113-.277.228-.557.276-.852.048-.296.021-.614-.134-.87a.808.808 0 0 0-.455-.36.65.65 0 0 0-.295-.017.577.577 0 0 0-.266.124.91.91 0 0 0-.236.358c-.055.133-.1.272-.177.395a.683.683 0 0 1-.138.165.456.456 0 0 1-.191.097.343.343 0 0 1-.212-.017.275.275 0 0 1-.147-.152s0 0 0 0z" transform="matrix(1.1029 0 0 1.10298 231.474 -30.053)"/><path style="fill:red;stroke:#000;stroke-width:.4797784;stroke-linecap:round;stroke-linejoin:round;stroke-miterlimit:4;stroke-dasharray:none;stroke-opacity:1;fill-opacity:1" d="M-355.533 254.474c.229.873.68 1.686 1.298 2.343.276.293.584.554.868.84.284.285.548.6.713.966.135.302.2.63.225.96.028.358.008.72-.056 1.073.137-.148.26-.31.367-.48.056-.09.108-.183.144-.282a.786.786 0 0 0 .054-.311.637.637 0 0 0-.226-.452 3.214 3.214 0 0 1 .762 1.468c.087-.21.153-.427.197-.65.108-.538.086-1.099-.028-1.636a5.813 5.813 0 0 0-.62-1.609c-.37-.665-.858-1.28-1.497-1.694a3.479 3.479 0 0 0-2.201-.536z" transform="matrix(1.1029 0 0 1.10298 231.474 -30.053)"/><path style="fill:red;stroke:#000;stroke-width:.4797784;stroke-linecap:round;stroke-linejoin:round;stroke-miterlimit:4;stroke-dasharray:none;stroke-opacity:1;fill-opacity:1" d="M-335.166 257.158a12.196 12.196 0 0 0 1.828-.203c-.467-.3-.94-.587-1.422-.863-.953-.547-1.932-1.045-2.895-1.575-1.798-.988-3.547-2.088-5.078-3.453-1.897-1.69-3.423-3.752-5.231-5.536-1.505-1.484-3.208-2.775-5.079-3.758-.74-.389-1.527-.745-2.082-1.37-.559-.631-.82-1.467-1.016-2.286-.304-1.271-.489-2.574-.914-3.81-.404-1.175-1.018-2.266-1.625-3.351-.254-.453-.509-.909-.832-1.315-.324-.406-.723-.765-1.2-.97-.385-.167-.809-.229-1.229-.242-.42-.013-.84.022-1.259.038-.435.018-.871.017-1.303.07-.431.054-.863.164-1.236.388-.218.13-.412.297-.61.457-.237.192-.484.378-.761.507-.08.037-.16.07-.234.116a.422.422 0 0 0-.173.19.302.302 0 0 0 .102.355c-.284.218-.59.405-.914.558-.274.13-.562.236-.813.407-.292.2-.525.485-.66.812a6.25 6.25 0 0 1 1.27 0c.648.066 1.282.233 1.93.305.257.028.517.042.77.093.254.052.506.145.702.313.211.18.345.437.424.703.08.266.107.545.135.82.083.814.173 1.652-.05 2.438-.277.968-.99 1.737-1.524 2.59a7.726 7.726 0 0 0-.864 1.93 8.213 8.213 0 0 0-.152 3.91c.31 1.539 1.077 3.012 2.285 4.013.344.285.72.53 1.067.812.976.797 1.69 1.863 2.539 2.794.897.982 2.002 1.841 3.301 2.133.658.147 1.339.144 2.011.189.673.044 1.361.143 1.95.47.428.239.784.588 1.096.964.312.376.586.783.885 1.17.173.224.358.446.457.71.085.226.102.477.05.712a.572.572 0 0 0 .362-.296.57.57 0 0 0-.165-.7c.383.341.67.788.823 1.277.17.545.17 1.142 0 1.688.204-.17.373-.382.494-.618a2.015 2.015 0 0 0 .124-1.523 9.156 9.156 0 0 1 .04 2.223 3.134 3.134 0 0 0 .454-2.47 6.09 6.09 0 0 1 1.605 2.511 4.111 4.111 0 0 0-.247-1.729 3.684 3.684 0 0 1 2.635 1.606 1.884 1.884 0 0 0-.37-1.07c-.204-.273-.478-.485-.7-.742a2.553 2.553 0 0 1-.577-1.194 5.79 5.79 0 0 0 3.129 1.976 16.213 16.213 0 0 1-2.388-2.264 3.68 3.68 0 0 0 1.77.865c.596.11 1.208.07 1.812.123.539.049 1.069.172 1.605.247a9.24 9.24 0 0 0 1.688.083 37.561 37.561 0 0 0 2.1 2.264c1 .994 2.057 1.931 3.17 2.799.493.385 1 .758 1.553 1.051.553.294 1.156.507 1.78.555.179.013.358.013.536 0a.491.491 0 0 1 0-.453.675.675 0 0 1 .343-.288c.14-.059.291-.088.439-.124.325-.08.64-.196.947-.33.283-.122.56-.26.812-.44.25-.18.475-.403.629-.67.102-.179.172-.375.205-.577-.24-.241-.486-.475-.74-.7-.285-.252-.577-.493-.865-.74-.932-.802-1.816-1.669-2.84-2.347-.672-.445-1.396-.804-2.1-1.194a26.36 26.36 0 0 1-1.71-1.034z" transform="matrix(1.1029 0 0 1.10298 231.474 -30.053)"/><path style="fill:none;stroke:#000;stroke-width:.4797784;stroke-linecap:butt;stroke-linejoin:miter;stroke-opacity:1;stroke-miterlimit:4;stroke-dasharray:none" d="M-367.415 230.547a1.354 1.354 0 0 1 .604.55 8.7 8.7 0 0 0 .726.064c.195.009.39.011.581.052.19.04.378.123.509.268.133.148.194.345.256.534.033.1.067.201.087.305a.722.722 0 0 1-.002.315.54.54 0 0 1-.476.4" transform="matrix(1.1029 0 0 1.10298 231.474 -30.053)"/><path style="fill:none;stroke:#000;stroke-width:.4797784;stroke-linecap:butt;stroke-linejoin:miter;stroke-opacity:1;stroke-miterlimit:4;stroke-dasharray:none" d="M-364.74 230.883a15.938 15.938 0 0 0 3.312 0" transform="matrix(1.1029 0 0 1.10298 231.498 -30.006)"/><ellipse style="opacity:1;fill:none;fill-opacity:1;fill-rule:evenodd;stroke:#000;stroke-width:.52916667;stroke-linecap:round;stroke-linejoin:round;stroke-miterlimit:4;stroke-dasharray:none;stroke-opacity:1;paint-order:markers fill stroke" cx="-169.101" cy="224.523" rx="1.06" ry="1.001"/><ellipse style="opacity:1;fill:none;fill-opacity:1;fill-rule:evenodd;stroke:#000;stroke-width:.52916667;stroke-linecap:round;stroke-linejoin:round;stroke-miterlimit:4;stroke-dasharray:none;stroke-opacity:1;paint-order:markers fill stroke" cx="-169.101" cy="224.535" rx=".236" ry=".259"/><path style="fill:red;stroke:#000;stroke-width:.52916667;stroke-linecap:round;stroke-linejoin:round;stroke-miterlimit:4;stroke-dasharray:none;stroke-opacity:1;fill-opacity:1" d="M-290.872 258.788c.285.1.58.17.88.213.44.062.887.06 1.333.06h.485a27.81 27.81 0 0 1 1.606 1.788c.66.804 1.278 1.645 2 2.395a11.633 11.633 0 0 0 1.788 1.515c-.452.35-.878.736-1.273 1.152-.586.617-1.101 1.3-1.697 1.909-.225.23-.463.451-.727.636a3.553 3.553 0 0 1-1.213.546c-.022-.728-.053-1.455-.09-2.182-.076-1.455-.196-2.957-.88-4.243-.44-.83-1.095-1.527-1.575-2.334a6.413 6.413 0 0 1-.637-1.455z" transform="translate(145.08 -2.432)"/><path style="fill:red;stroke:#000;stroke-width:.52916667;stroke-linecap:round;stroke-linejoin:round;stroke-opacity:1;stroke-miterlimit:4;stroke-dasharray:none;fill-opacity:1" d="M-281.628 256.515a164.578 164.578 0 0 0 3.121 1.698c.098-.288.23-.563.394-.819.194-.302.431-.577.698-.818a4.437 4.437 0 0 1 1.848-1 25.698 25.698 0 0 0-1.94-.303c-.494-.058-.99-.102-1.484-.152a58.216 58.216 0 0 1-3.274-.424c.376.179.75.36 1.122.546.198.098.397.198.606.272.281.1.58.152.879.152a41.419 41.419 0 0 0-1.97.848z" transform="translate(145.08 -2.432)"/><path style="fill:red;stroke:#000;stroke-width:.5888137;stroke-linecap:round;stroke-linejoin:round;stroke-miterlimit:4;stroke-dasharray:none;stroke-opacity:1;fill-opacity:1" d="M-291.688 241.877h.227a5.599 5.599 0 0 1 1.53 1.53c.254.38.46.789.68 1.19.231.424.477.84.737 1.247l2.267-.397c1.279-.224 2.56-.449 3.853-.567.68-.061 1.362-.094 2.04-.17.862-.096 1.73-.268 2.494-.68a4.36 4.36 0 0 0 1.87-1.983 4.661 4.661 0 0 1-2.097.623 8.292 8.292 0 0 1-.68 0 53.82 53.82 0 0 1-3.627-.226 11.117 11.117 0 0 0 2.664-.907c.722-.354 1.403-.784 2.097-1.19a35.369 35.369 0 0 1 3.287-1.7c-1.78.315-3.58.523-5.384.623-2.326.128-4.745.094-6.858 1.077-.92.428-1.756 1.04-2.72 1.36a4.864 4.864 0 0 1-2.38.17z" transform="matrix(.89976 0 0 .89764 109.89 22.222)"/><path style="fill:red;stroke:#000;stroke-width:.52916667;stroke-linecap:round;stroke-linejoin:round;stroke-opacity:1;stroke-miterlimit:4;stroke-dasharray:none;fill-opacity:1" d="M-287.721 246.75c1.66.337 3.35.527 5.044.567a25.08 25.08 0 0 0 5.214-.396c.784-.147 1.56-.336 2.323-.567a13.384 13.384 0 0 1-1.813 2.04c-.832.763-1.774 1.426-2.834 1.814a6.437 6.437 0 0 1-3.627.226c-.52-.482-1.049-.954-1.587-1.416-.467-.403-.942-.797-1.417-1.19-.433-.36-.868-.72-1.303-1.077z" transform="translate(139.129 -2.942)"/><path style="fill:none;stroke:#000;stroke-width:.52916667;stroke-linecap:round;stroke-linejoin:round;stroke-miterlimit:4;stroke-dasharray:none;stroke-opacity:1" d="M-304.61 237.966a6.467 6.467 0 0 0-2.04 2.777c-.44 1.165-.535 2.45-.32 3.677.215 1.227.732 2.393 1.454 3.407a8.712 8.712 0 0 0 2.097 2.097c1.264.884 2.753 1.389 4.25 1.757 1.543.38 3.119.627 4.704.737a13.315 13.315 0 0 0-2.267-1.474c-1.739-.893-3.67-1.4-5.327-2.436-1.046-.654-1.977-1.525-2.574-2.604-.598-1.08-.843-2.377-.543-3.574.223-.888.732-1.698.85-2.607a3.139 3.139 0 0 0-.283-1.757z" transform="translate(139.129 -2.942)"/><path style="fill:none;stroke:#000;stroke-width:.52916667;stroke-linecap:round;stroke-linejoin:round;stroke-miterlimit:4;stroke-dasharray:none;stroke-opacity:1" d="M-301.209 244.2a39.186 39.186 0 0 0 4.024 4.194c1.306 1.173 2.694 2.26 4.193 3.174.984.599 2.036 1.13 3.174 1.303.544.084 1.1.084 1.644 0a27.836 27.836 0 0 0-3.06-2.323c-1.975-1.295-4.126-2.347-5.895-3.91-.85-.753-1.627-1.633-2.663-2.098a3.947 3.947 0 0 0-1.417-.34z" transform="translate(139.129 -2.942)"/><path transform="matrix(.92609 0 0 .92536 119.36 13.298)" style="fill:none;stroke:#000;stroke-width:.57162425;stroke-linecap:round;stroke-linejoin:round;stroke-miterlimit:4;stroke-dasharray:none;stroke-opacity:1" d="M-301.209 244.2a39.186 39.186 0 0 0 4.024 4.194c1.306 1.173 2.694 2.26 4.193 3.174.984.599 2.036 1.13 3.174 1.303.544.084 1.1.084 1.644 0a27.836 27.836 0 0 0-3.06-2.323c-1.975-1.295-4.126-2.347-5.895-3.91-.85-.753-1.627-1.633-2.663-2.098a3.947 3.947 0 0 0-1.417-.34z"/></g></svg>