<?xml version="1.0" encoding="UTF-8" standalone="no"?>
<!-- Created with Inkscape (http://www.inkscape.org/) -->

<svg
   xmlns:dc="http://purl.org/dc/elements/1.1/"
   xmlns:cc="http://creativecommons.org/ns#"
   xmlns:rdf="http://www.w3.org/1999/02/22-rdf-syntax-ns#"
   xmlns:svg="http://www.w3.org/2000/svg"
   xmlns="http://www.w3.org/2000/svg"
   xmlns:sodipodi="http://sodipodi.sourceforge.net/DTD/sodipodi-0.dtd"
   xmlns:inkscape="http://www.inkscape.org/namespaces/inkscape"
   width="192.21169mm"
   height="209.3436mm"
   viewBox="0 0 192.21169 209.3436"
   version="1.1"
   id="svg2525"
   inkscape:version="0.92.4 (5da689c313, 2019-01-14)"
   sodipodi:docname="DEU Breit COA.svg">
  <defs
     id="defs2519">
    <inkscape:path-effect
       effect="spiro"
       id="path-effect12651-6"
       is_visible="true" />
    <inkscape:path-effect
       effect="spiro"
       id="path-effect12651-8-0"
       is_visible="true" />
    <inkscape:path-effect
       effect="spiro"
       id="path-effect12651-3-7"
       is_visible="true" />
    <inkscape:path-effect
       effect="spiro"
       id="path-effect12651-0-7"
       is_visible="true" />
    <inkscape:path-effect
       effect="spiro"
       id="path-effect12651-1-3"
       is_visible="true" />
  </defs>
  <sodipodi:namedview
     id="base"
     pagecolor="#ffffff"
     bordercolor="#666666"
     borderopacity="1.0"
     inkscape:pageopacity="0.0"
     inkscape:pageshadow="2"
     inkscape:zoom="0.69260138"
     inkscape:cx="363.23469"
     inkscape:cy="395.60994"
     inkscape:document-units="mm"
     inkscape:current-layer="layer1"
     showgrid="false"
     inkscape:window-width="1366"
     inkscape:window-height="745"
     inkscape:window-x="-8"
     inkscape:window-y="-8"
     inkscape:window-maximized="1"
     fit-margin-top="0"
     fit-margin-left="0"
     fit-margin-right="0"
     fit-margin-bottom="0"
     inkscape:snap-nodes="false"
     inkscape:snap-midpoints="true"
     inkscape:snap-smooth-nodes="true" />
  <metadata
     id="metadata2522">
    <rdf:RDF>
      <cc:Work
         rdf:about="">
        <dc:format>image/svg+xml</dc:format>
        <dc:type
           rdf:resource="http://purl.org/dc/dcmitype/StillImage" />
        <dc:title></dc:title>
      </cc:Work>
    </rdf:RDF>
  </metadata>
  <g
     inkscape:label="Ebene 1"
     inkscape:groupmode="layer"
     id="layer1"
     transform="translate(0.34856441,-5.8593635)">
    <path
       style="fill:#ffffff;fill-rule:evenodd;stroke:none;stroke-width:3.10444427;stroke-opacity:1"
       inkscape:connector-curvature="0"
       d="m 190.29819,7.4115856 -0.959,117.5806744 c -2.09267,49.45939 -43.43961,88.63079 -93.581928,88.65848 C 45.66008,213.59004 4.2976692,174.40458 2.1753592,124.99226 L 1.2163692,7.4115856 H 95.755011 Z"
       id="path10563-0-6-7-6-6"
       sodipodi:nodetypes="ccccccc" />
    <path
       style="fill:#000000;fill-rule:evenodd;stroke:none;stroke-width:3.10444427;stroke-opacity:1"
       inkscape:connector-curvature="0"
       d="m 188.17825,9.7238917 -0.9375,114.9440983 c -2.04574,48.35033 -42.46554,86.64337 -91.4835,86.67044 C 46.783435,211.27913 6.3485174,172.97231 4.273794,124.66799 L 3.3363062,9.7238917 H 95.755059 Z"
       id="path10563-0-6-7-6-6-3"
       sodipodi:nodetypes="ccccccc" />
    <path
       style="fill:#ffffff;stroke:#000000;stroke-width:11;stroke-linecap:butt;stroke-linejoin:round;stroke-miterlimit:4;stroke-dasharray:none;stroke-opacity:1"
       d="M 5.9140625 5.8671875 L 9.5390625 450.26562 C 11.679645 500.10338 24.387841 547.18464 45.460938 589.44141 C 78.047028 579.83886 130.87859 562.8208 159.54102 545.75781 C 198.10564 522.7999 234.17183 492.91406 260.24414 456.38281 C 298.26936 403.10368 319.69118 338.57 335.77148 275.11914 C 357.93418 187.66775 363.22656 5.8671875 363.22656 5.8671875 L 5.9140625 5.8671875 z M 363.22656 5.8671875 C 363.22656 5.8671875 368.51698 187.66775 390.67969 275.11914 C 406.75995 338.56999 428.18181 403.10368 466.20703 456.38281 C 492.27935 492.91406 528.34552 522.7999 566.91016 545.75781 C 595.60848 562.84217 648.53755 579.88072 681.11328 589.47656 C 702.14924 547.21789 714.82002 500.12683 716.92969 450.26562 L 720.55469 5.8671875 L 363.22656 5.8671875 z "
       transform="matrix(0.26458333,0,0,0.26458333,-0.34856441,5.8593635)"
       id="path3370" />
    <path
       style="fill:#ff0000;fill-opacity:1;stroke:#000000;stroke-width:4.99999952;stroke-linecap:round;stroke-linejoin:round;stroke-miterlimit:4;stroke-dasharray:none;stroke-opacity:1"
       d="M 154.20898 5.8671875 L 154.20898 225.11914 L 7.703125 225.11914 L 7.9785156 258.86719 L 8.3261719 301.66797 L 154.20898 301.66797 L 154.20898 548.78125 C 156.06261 547.77466 157.84706 546.76624 159.54102 545.75781 C 185.10626 530.53857 209.57019 512.27098 230.75586 491.04492 L 230.75586 301.66797 L 328.69336 301.66797 C 331.1716 292.81895 333.53108 283.95949 335.77148 275.11914 C 339.44274 260.63278 342.64141 243.52817 345.43945 225.11914 L 230.75586 225.11914 L 230.75586 5.8671875 L 154.20898 5.8671875 z "
       transform="matrix(0.26458333,0,0,0.26458333,-0.34856441,5.8593635)"
       id="rect3404-7" />
    <path
       inkscape:connector-curvature="0"
       style="fill:none;stroke:#000000;stroke-width:2.9104166;stroke-linecap:butt;stroke-linejoin:round;stroke-miterlimit:4;stroke-dasharray:none;stroke-opacity:1"
       d="m 1.2162014,7.4117251 0.95911,117.5804149 c 0.56636,13.18624 3.92874,25.64316 9.5043296,36.82359 8.62174,-2.54067 22.60009,-7.04337 30.18369,-11.55795 10.20355,-6.07428 19.74607,-13.98157 26.64437,-23.64713 10.06083,-14.09677 15.72869,-31.171307 19.98327,-47.959347 5.86388,-23.13818 7.26416,-71.2395779 7.26416,-71.2395779 z m 94.5389296,0 c 0,0 1.39975,48.1013979 7.263629,71.2395779 4.25457,16.788038 9.92244,33.862577 19.98328,47.959347 6.8983,9.66556 16.44081,17.57285 26.64437,23.64713 7.5931,4.52024 21.59725,9.02835 30.21624,11.56725 5.56577,-11.18094 8.91824,-23.64045 9.47643,-36.83289 L 190.29819,7.4117251 Z"
       id="path3370-0" />
    <path
       style="fill:none;fill-rule:evenodd;stroke:#000000;stroke-width:3.10444427;stroke-opacity:1"
       inkscape:connector-curvature="0"
       d="m 190.29819,7.4115856 -0.959,117.5806744 c -2.09267,49.45939 -43.43961,88.63079 -93.581929,88.65848 C 45.660079,213.59004 4.2976693,174.40458 2.1753593,124.99226 L 1.2163693,7.4115856 H 95.755009 Z"
       id="path10563-0-6-7-6"
       sodipodi:nodetypes="ccccccc" />
    <path
       style="fill:#ffd700;stroke:none;stroke-width:0.99999994px;stroke-linecap:butt;stroke-linejoin:miter;stroke-opacity:1;fill-opacity:1"
       d="M 282.70117 514.11328 C 276.87893 514.04525 270.97582 516.24653 265.67969 518.69336 C 261.87061 520.45318 259.59001 524.91922 255.60938 526.24609 C 252.02684 527.44027 247.93856 527.17918 244.2793 526.24609 C 241.73205 525.59654 239.64685 523.75712 237.35547 522.46875 C 235.77136 521.57807 234.45512 519.79381 232.63867 519.73633 C 227.16497 519.56323 221.82124 523.20337 217.92969 527.05664 C 213.29202 531.64869 210.76849 538.20649 209.0332 544.49805 C 208.19459 547.53845 208.4043 553.93945 208.4043 553.93945 C 208.4043 553.93945 215.01804 551.26665 218.47461 551.42188 C 223.57837 551.65091 228.52183 553.91107 232.95117 556.45703 C 236.30505 558.38485 241.76172 564.00977 241.76172 564.00977 C 241.76172 564.00977 252.43108 558.61635 258.12695 558.97461 C 263.87039 559.33593 273.86133 566.07812 273.86133 566.07812 C 273.86133 566.07812 271.7937 559.09759 270.01562 555.95703 C 267.02749 550.67919 263.02862 545.97048 258.75586 541.66602 C 255.91672 538.80582 249.31445 534.11328 249.31445 534.11328 C 249.31445 534.11328 258.06783 534.10568 261.58789 536.31641 C 269.15802 541.06943 273.76395 549.8295 277.32227 558.0293 C 281.70375 568.12596 282.67526 579.47736 283.61719 590.44336 C 284.05716 595.5656 283.91382 600.75888 283.30078 605.86328 C 282.37809 613.54498 281.66458 621.57022 278.26758 628.52148 C 275.51952 634.14478 271.28669 639.20442 266.30859 642.99805 C 261.8272 646.41315 256.32995 648.45954 250.88867 649.92188 C 247.9352 650.71554 244.82 650.86002 241.76172 650.86523 C 238.59909 650.86901 235.42264 650.53639 232.32031 649.92188 C 228.0231 649.07061 223.49332 648.39089 219.73242 646.14453 C 216.5484 644.24279 211.86523 638.27734 211.86523 638.27734 C 211.86523 638.27734 211.49371 643.96758 211.86523 646.77539 C 212.6059 652.37559 212.87297 658.62633 216.27148 663.13867 C 220.91455 669.3035 228.38504 674.81691 236.09766 675.09766 C 243.505 675.36714 249.80228 669.20682 255.92383 665.02734 C 265.5572 658.45013 282.04297 641.74023 282.04297 641.74023 C 282.04297 641.74023 282.9459 649.96184 282.35742 654.01172 C 281.0886 662.74398 278.05082 671.25994 274.17578 679.1875 C 270.55995 686.58479 260.32812 699.64258 260.32812 699.64258 C 260.32812 699.64258 265.66948 701.00255 268.19727 700.27344 C 278.13512 697.40689 286.09438 689.35393 293.05664 681.70508 C 299.83825 674.25472 308.79297 655.90039 308.79297 655.90039 C 308.79297 655.90039 311.78111 676.54466 310.36523 686.74023 C 308.61305 699.35732 298.0918 722.93164 298.0918 722.93164 C 298.0918 722.93164 310.96392 716.31334 316.66016 711.91602 C 326.46569 704.34642 343.09375 685.79688 343.09375 685.79688 C 343.09375 685.79688 343.16733 707.38662 346.24023 717.58008 C 349.73451 729.17144 363.23438 749.67969 363.23438 749.67969 C 363.23438 749.67969 376.73425 729.17144 380.22852 717.58008 C 383.30131 707.38662 383.375 685.79688 383.375 685.79688 C 383.375 685.79688 400.00306 704.34642 409.80859 711.91602 C 415.50483 716.31334 428.37695 722.93164 428.37695 722.93164 C 428.37695 722.93164 417.8557 699.35732 416.10352 686.74023 C 414.68763 676.54466 417.67578 655.90039 417.67578 655.90039 C 417.67578 655.90039 426.6305 674.25472 433.41211 681.70508 C 440.37438 689.35393 448.33363 697.40689 458.27148 700.27344 C 460.79927 701.00255 466.14062 699.64258 466.14062 699.64258 C 466.14062 699.64258 455.9088 686.58479 452.29297 679.1875 C 448.41793 671.25994 445.38015 662.74398 444.11133 654.01172 C 443.52286 649.96184 444.42578 641.74023 444.42578 641.74023 C 444.42578 641.74023 460.91155 658.45013 470.54492 665.02734 C 476.66647 669.20682 482.96375 675.36714 490.37109 675.09766 C 498.08371 674.81691 505.55419 669.3035 510.19727 663.13867 C 513.59578 658.62633 513.86284 652.37559 514.60352 646.77539 C 514.97504 643.96758 514.60352 638.27734 514.60352 638.27734 C 514.60352 638.27734 509.92035 644.24275 506.73633 646.14453 C 502.97543 648.39089 498.44565 649.07057 494.14844 649.92188 C 491.04613 650.53639 487.86963 650.86901 484.70703 650.86523 C 481.64875 650.86002 478.53355 650.71554 475.58008 649.92188 C 470.13877 648.45954 464.64154 646.41311 460.16016 642.99805 C 455.18206 639.20438 450.94923 634.14478 448.20117 628.52148 C 444.80417 621.57022 444.09066 613.54498 443.16797 605.86328 C 442.55493 600.75888 442.41159 595.5656 442.85156 590.44336 C 443.7935 579.47736 444.76499 568.12596 449.14648 558.0293 C 452.7048 549.8295 457.31073 541.06946 464.88086 536.31641 C 468.40092 534.10572 477.1543 534.11328 477.1543 534.11328 C 477.1543 534.11328 470.552 538.80582 467.71289 541.66602 C 463.4401 545.97048 459.44126 550.67922 456.45312 555.95703 C 454.67505 559.09759 452.60742 566.07812 452.60742 566.07812 C 452.60742 566.07812 462.59835 559.33593 468.3418 558.97461 C 474.03766 558.61635 484.70703 564.00977 484.70703 564.00977 C 484.70703 564.00977 490.1637 558.38482 493.51758 556.45703 C 497.94692 553.91107 502.89038 551.65091 507.99414 551.42188 C 511.45071 551.26665 518.06445 553.93945 518.06445 553.93945 C 518.06445 553.93945 518.27415 547.53845 517.43555 544.49805 C 515.70025 538.20649 513.17673 531.64869 508.53906 527.05664 C 504.64751 523.20337 499.30378 519.56323 493.83008 519.73633 C 492.01364 519.79381 490.69739 521.57807 489.11328 522.46875 C 486.8219 523.75712 484.7367 525.59654 482.18945 526.24609 C 478.53019 527.17918 474.44191 527.44027 470.85938 526.24609 C 466.87874 524.91925 464.59811 520.45318 460.78906 518.69336 C 455.49292 516.24653 449.58979 514.04525 443.76758 514.11328 C 442.93582 514.12311 442.10565 514.17901 441.2793 514.28711 C 431.41639 515.57873 423.0327 522.48789 414.84375 528.13477 C 406.76852 533.70318 402.06835 544.38594 392.81641 547.64453 C 388.65617 549.10982 379.59766 547.01562 379.59766 547.01562 C 379.59766 547.01562 385.02222 557.36271 389.03906 561.49219 C 391.35202 563.86996 397.2207 567.15625 397.2207 567.15625 C 397.2207 567.15625 386.36575 574.00921 382.74609 579.11523 C 380.28933 582.58083 378.33984 591.07422 378.33984 591.07422 C 378.33984 591.07422 386.33753 596.13657 389.03906 599.88477 C 390.74767 602.25532 392.18555 608.06641 392.18555 608.06641 C 392.18555 608.06641 385.3141 620.35813 380.22852 625.06055 C 375.39406 629.53075 363.23438 635.13086 363.23438 635.13086 C 363.23438 635.13086 351.0747 629.53075 346.24023 625.06055 C 341.15465 620.3581 334.2832 608.06641 334.2832 608.06641 C 334.2832 608.06641 335.72108 602.25532 337.42969 599.88477 C 340.13122 596.13657 348.12891 591.07422 348.12891 591.07422 C 348.12891 591.07422 346.17943 582.58083 343.72266 579.11523 C 340.10304 574.00921 329.24805 567.15625 329.24805 567.15625 C 329.24805 567.15625 335.11673 563.87 337.42969 561.49219 C 341.44653 557.36275 346.87109 547.01562 346.87109 547.01562 C 346.87109 547.01562 337.81258 549.10982 333.65234 547.64453 C 324.40039 544.38594 319.70023 533.70318 311.625 528.13477 C 303.43605 522.48792 295.05235 515.57873 285.18945 514.28711 C 284.36307 514.17901 283.53292 514.12311 282.70117 514.11328 z M 242.32031 517.57227 L 242.32031 517.57422 C 240.37689 517.61806 237.55664 518.14844 237.55664 518.14844 C 237.55664 518.14844 240.95256 520.59067 242.47461 521.88281 C 244.01205 523.188 245.72716 524.48366 247.68945 524.94922 C 249.61538 525.40613 251.69395 525.03466 253.61523 524.55859 C 255.37442 524.1227 258.58008 522.3418 258.58008 522.3418 C 258.58008 522.3418 254.84531 520.67348 252.9043 520.04102 C 249.6975 518.99605 246.45194 517.8302 243.08789 517.58789 C 242.85681 517.57277 242.59793 517.56849 242.32031 517.57227 z M 484.14844 517.57227 C 483.87079 517.56849 483.61179 517.57277 483.38086 517.58789 C 480.01682 517.8302 476.77127 518.99605 473.56445 520.04102 C 471.62344 520.67348 467.88867 522.3418 467.88867 522.3418 C 467.88867 522.3418 471.09433 524.1227 472.85352 524.55859 C 474.7748 525.03463 476.85336 525.40613 478.7793 524.94922 C 480.74159 524.48369 482.4567 523.18803 483.99414 521.88281 C 485.51619 520.59067 488.91211 518.14844 488.91211 518.14844 C 488.91211 518.14844 486.09183 517.61806 484.14844 517.57422 L 484.14844 517.57227 z M 277.98047 520.00586 C 279.96093 519.96731 281.9494 520.06076 283.89062 520.19531 C 287.14411 520.42133 290.51265 520.98047 293.40039 522.49609 C 299.10737 525.49137 304.50258 529.85398 307.81836 535.38086 C 310.03842 539.08128 310.6168 543.65007 310.88477 547.95703 C 311.05106 550.6281 309.96484 555.93359 309.96484 555.93359 C 309.96484 555.93359 300.2922 558.1409 295.39453 557.92773 C 290.31409 557.70663 284.6466 557.51838 280.51562 554.55273 C 277.0111 552.03682 275.74435 547.34432 273.76758 543.50977 C 271.6789 539.45815 271.32077 534.43192 268.39844 530.93359 C 266.78934 529.00736 262.10938 526.79102 262.10938 526.79102 C 262.10938 526.79102 265.90781 522.74901 268.39844 521.73047 C 271.40028 520.50284 274.6797 520.06996 277.98047 520.00586 z M 448.48828 520.00586 C 451.78906 520.06996 455.06846 520.50284 458.07031 521.73047 C 460.56095 522.74901 464.35938 526.79102 464.35938 526.79102 C 464.35938 526.79102 459.67941 529.00736 458.07031 530.93359 C 455.14798 534.43192 454.78985 539.45815 452.70117 543.50977 C 450.7244 547.34432 449.45765 552.03685 445.95312 554.55273 C 441.82214 557.51842 436.15466 557.70663 431.07422 557.92773 C 426.17656 558.1409 416.50391 555.93359 416.50391 555.93359 C 416.50391 555.93359 415.41769 550.6281 415.58398 547.95703 C 415.85195 543.65007 416.43033 539.08128 418.65039 535.38086 C 421.96617 529.85398 427.36139 525.49137 433.06836 522.49609 C 435.95611 520.98047 439.32467 520.42133 442.57812 520.19531 C 444.51937 520.06076 446.50785 519.96731 448.48828 520.00586 z M 276.14453 526.15234 C 276.14453 526.15234 274.87126 530.83118 275.06055 533.20117 C 275.43548 537.89655 276.57933 542.87683 279.39844 546.65039 C 281.46894 549.42188 284.63477 551.57737 287.9668 552.50781 C 291.76795 553.56926 296.05229 553.12505 299.78906 551.85547 C 302.1532 551.05224 305.1005 549.96727 305.9707 547.62695 C 306.41385 546.43515 305.78733 544.93336 304.99414 543.93945 C 304.45957 543.26961 303.56515 542.86787 302.7168 542.74609 C 301.43955 542.56279 300.15086 543.11271 298.92188 543.50586 C 297.07243 544.09766 295.53589 545.66344 293.60742 545.89062 C 291.48787 546.14045 289.19618 545.70768 287.31641 544.69727 C 284.02875 542.92988 281.20072 539.99846 279.50781 536.67188 C 278.34329 534.3836 279.18493 531.45339 278.20508 529.08008 C 277.74965 527.9768 276.14453 526.15234 276.14453 526.15234 z M 289.26758 526.15234 C 289.26758 526.15234 288.27751 528.19185 288.18359 529.29688 C 287.99424 531.52355 288.08699 534.0146 289.26758 535.91211 C 290.08895 537.23245 291.59508 538.11616 293.06445 538.625 C 294.53498 539.13425 296.18843 539.06517 297.72852 538.8418 C 298.59973 538.71518 299.64681 538.64034 300.22266 537.97461 C 300.84878 537.25064 300.94257 536.09498 300.76562 535.1543 C 300.55246 534.02074 299.67207 533.10078 298.92188 532.22461 C 297.95525 531.09566 296.73632 530.20336 295.55859 529.29688 C 294.48588 528.47124 293.42097 527.59818 292.19727 527.01953 C 291.27692 526.58413 289.26758 526.15234 289.26758 526.15234 z M 437.20117 526.15234 C 437.20117 526.15234 435.19184 526.58428 434.27148 527.01953 C 433.04779 527.59821 431.9829 528.47124 430.91016 529.29688 C 429.73246 530.20336 428.51349 531.09566 427.54688 532.22461 C 426.79664 533.10078 425.91629 534.02074 425.70312 535.1543 C 425.52617 536.09495 425.61998 537.25064 426.24609 537.97461 C 426.82194 538.64037 427.86902 538.71518 428.74023 538.8418 C 430.28032 539.06517 431.93376 539.13425 433.4043 538.625 C 434.87366 538.11616 436.3798 537.23245 437.20117 535.91211 C 438.38193 534.0146 438.47451 531.52355 438.28516 529.29688 C 438.19123 528.19185 437.20117 526.15234 437.20117 526.15234 z M 450.32422 526.15234 C 450.32422 526.15234 448.7191 527.9768 448.26367 529.08008 C 447.28368 531.45339 448.12549 534.3836 446.96094 536.67188 C 445.26805 539.9985 442.44 542.92988 439.15234 544.69727 C 437.27256 545.70768 434.98089 546.14045 432.86133 545.89062 C 430.93286 545.6634 429.39631 544.09766 427.54688 543.50586 C 426.31785 543.11271 425.02921 542.56279 423.75195 542.74609 C 422.9036 542.86787 422.00915 543.26957 421.47461 543.93945 C 420.68132 544.93332 420.0549 546.43515 420.49805 547.62695 C 421.36825 549.96727 424.31556 551.05224 426.67969 551.85547 C 430.41647 553.12505 434.70081 553.56926 438.50195 552.50781 C 441.83398 551.57737 444.99981 549.42188 447.07031 546.65039 C 449.88942 542.8768 451.03327 537.89655 451.4082 533.20117 C 451.59748 530.83118 450.32422 526.15234 450.32422 526.15234 z M 287.26367 572.49805 C 287.26367 572.49805 292.86383 582.26534 294.01367 587.68359 C 295.14931 593.03503 295.02999 598.72035 294.01367 604.0957 C 292.97302 609.59979 287.87891 619.74023 287.87891 619.74023 C 287.87891 619.74023 288.92322 609.73281 289.10547 604.70898 C 289.31296 598.98633 289.29658 593.2453 288.95117 587.5293 C 288.64692 582.49659 287.26367 572.49805 287.26367 572.49805 z M 439.20508 572.49805 C 439.20508 572.49805 437.82183 582.49659 437.51758 587.5293 C 437.17213 593.2453 437.15579 598.98633 437.36328 604.70898 C 437.54553 609.73281 438.58984 619.74023 438.58984 619.74023 C 438.58984 619.74023 433.49573 609.59979 432.45508 604.0957 C 431.43876 598.72035 431.31944 593.03499 432.45508 587.68359 C 433.60492 582.2653 439.20508 572.49805 439.20508 572.49805 z M 258.20703 594.26758 C 256.63998 594.29403 255.07084 594.42562 253.51953 594.58398 C 250.24767 594.91809 246.95366 595.47458 243.85547 596.57812 C 241.35656 597.46824 236.80078 600.25977 236.80078 600.25977 C 236.80078 600.25977 245.20966 601.53075 249.22461 602.86719 C 256.23462 605.20059 263.09689 608.23679 269.31641 612.22461 C 271.57589 613.67334 275.45312 617.43945 275.45312 617.43945 C 275.45312 617.43945 278.3302 612.19003 278.98047 609.30859 C 279.63365 606.41423 279.28711 600.41406 279.28711 600.41406 C 279.28711 600.41406 268.59604 595.56972 262.875 594.58398 C 261.33827 594.31942 259.77409 594.24112 258.20703 594.26758 z M 468.26172 594.26758 C 466.69465 594.24074 465.13047 594.31942 463.59375 594.58398 C 457.87272 595.56972 447.18164 600.41406 447.18164 600.41406 C 447.18164 600.41406 446.8351 606.41423 447.48828 609.30859 C 448.13855 612.19003 451.01562 617.43945 451.01562 617.43945 C 451.01562 617.43945 454.89287 613.67334 457.15234 612.22461 C 463.37186 608.23679 470.2341 605.20055 477.24414 602.86719 C 481.25909 601.53075 489.66797 600.25977 489.66797 600.25977 C 489.66797 600.25977 485.11219 597.46824 482.61328 596.57812 C 479.51509 595.47462 476.22108 594.91809 472.94922 594.58398 C 471.39791 594.42562 469.82875 594.29403 468.26172 594.26758 z "
       transform="matrix(0.26458333,0,0,0.26458333,-0.34856441,5.8593635)"
       id="path3520" />
    <path
       style="fill:#ff0000;fill-opacity:1;stroke:none;stroke-width:0.99999994px;stroke-linecap:butt;stroke-linejoin:miter;stroke-opacity:1"
       d="M 201.79688 570.93359 C 201.79688 570.93359 197.42595 578.74604 198.64844 582.57617 C 200.05329 586.9777 204.94344 589.99837 209.34961 591.38867 C 218.38011 594.23813 228.34306 590.81108 237.67188 589.18555 C 245.4938 587.82257 252.8931 584.60982 260.64453 582.89062 C 264.9041 581.94589 273.54688 580.6875 273.54688 580.6875 C 273.54688 580.6875 264.80841 576.09047 260.01562 575.65234 C 252.16698 574.93488 244.53684 578.68788 236.72656 579.74414 C 230.14795 580.63384 223.31463 583.34377 216.90039 581.63281 C 210.93853 580.04254 201.79688 570.93359 201.79688 570.93359 z M 524.67383 570.93359 C 524.67383 570.93359 515.53022 580.04254 509.56836 581.63281 C 503.15412 583.34377 496.3208 580.63384 489.74219 579.74414 C 481.93191 578.68788 474.30372 574.93488 466.45508 575.65234 C 461.6623 576.09047 452.92188 580.6875 452.92188 580.6875 C 452.92188 580.6875 461.56661 581.94589 465.82617 582.89062 C 473.5776 584.60982 480.97691 587.82257 488.79883 589.18555 C 498.12765 590.81108 508.09059 594.23813 517.12109 591.38867 C 521.52727 589.99837 526.41546 586.9777 527.82031 582.57617 C 529.0428 578.74604 524.67383 570.93359 524.67383 570.93359 z "
       transform="matrix(0.26458333,0,0,0.26458333,-0.34856441,5.8593635)"
       id="path3540" />
    <path
       style="opacity:1;fill:#009900;fill-opacity:1;fill-rule:nonzero;stroke:#000000;stroke-width:0.79374999;stroke-linecap:round;stroke-linejoin:round;stroke-miterlimit:4;stroke-dasharray:none;stroke-dashoffset:0;stroke-opacity:1"
       d="m 148.48044,27.318002 c -0.1346,0.03024 -0.26436,0.08303 -0.38395,0.157096 -0.32197,0.199337 -0.5533,0.538313 -0.72502,0.896069 -0.0979,0.204021 -0.18334,0.422846 -0.33797,0.579293 -0.14445,0.146504 -0.337,0.225096 -0.53071,0.26355 -0.33365,0.06614 -0.67647,0.02366 -1.01493,0 -0.19304,-0.01347 -0.3873,-0.0207 -0.57981,0 -0.22745,0.02449 -0.46119,0.0938 -0.62838,0.26355 -0.0859,0.08726 -0.15035,0.197317 -0.19637,0.315226 -0.0461,0.11783 -0.0738,0.24363 -0.093,0.370003 -0.0622,0.409028 -0.0303,0.844221 0.14469,1.212329 0.11155,0.234672 0.27599,0.43358 0.4377,0.630453 0.1617,0.196874 0.32439,0.397782 0.43202,0.634586 0.12517,0.275342 0.16938,0.598596 0.0966,0.895554 -0.046,0.187669 -0.14132,0.366501 -0.28938,0.474387 -0.0902,0.06573 -0.19704,0.102844 -0.3049,0.117306 -0.10762,0.01438 -0.21691,0.0068 -0.32401,-0.01188 -0.29132,-0.05053 -0.57553,-0.18171 -0.86971,-0.158128 -0.15719,0.01265 -0.31038,0.0699 -0.44339,0.162263 -0.133,0.09227 -0.24595,0.219152 -0.32969,0.364834 -0.12811,0.222756 -0.18759,0.487487 -0.19534,0.750343 -0.008,0.262856 0.0346,0.524759 0.0987,0.778248 0.17691,0.698254 0.53275,1.35591 1.06298,1.792137 0.2993,0.246255 0.64534,0.416602 0.95601,0.64544 0.15537,0.114459 0.30226,0.244078 0.42375,0.399457 0.12186,0.15538 0.21778,0.337884 0.26252,0.536403 0.0224,0.09934 0.0323,0.203145 0.0186,0.304374 -0.0137,0.10123 -0.0519,0.200004 -0.11524,0.275434 -0.0705,0.08389 -0.16875,0.135142 -0.26975,0.163814 -0.10099,0.02867 -0.20561,0.03607 -0.30954,0.04651 -0.51463,0.05168 -1.04659,0.174625 -1.44953,0.527619 -0.24726,0.21659 -0.43414,0.514032 -0.53175,0.843359 -0.10552,0.356854 -0.10536,0.749456 0,1.106392 0.11049,0.374108 0.33275,0.703009 0.6072,0.957564 0.27445,0.254638 0.59997,0.437915 0.93896,0.571024 0.55651,0.218483 1.15506,0.306793 1.69085,0.580327 0.0688,0.03509 0.13642,0.07359 0.19638,0.124539 0.06,0.05094 0.11229,0.115221 0.14159,0.19172 0.0331,0.08652 0.0355,0.18483 0.0155,0.275952 -0.02,0.09113 -0.0612,0.175117 -0.11214,0.250632 -0.0988,0.146421 -0.23271,0.260459 -0.36948,0.364318 -0.13685,0.103857 -0.27859,0.20056 -0.40308,0.321427 -0.16095,0.156284 -0.29028,0.352237 -0.36794,0.571542 -0.0777,0.219302 -0.10305,0.461706 -0.0672,0.693497 0.0384,0.248147 0.1454,0.479657 0.28473,0.680063 0.13933,0.200491 0.3106,0.37152 0.48834,0.531749 0.31414,0.283311 0.66399,0.539835 1.06247,0.632521 0.20636,0.04799 0.42248,0.0502 0.62839,0 0.2395,-0.05832 0.46255,-0.190905 0.64182,-0.373621 v 9.263518 c -0.006,0.01388 -0.0116,0.03055 -0.0176,0.04392 -0.59579,1.337631 -1.25445,2.764433 -2.38538,3.692282 l -1.23611,-2.724383 c 0.22028,0.08423 0.4579,0.11071 0.68213,0.06925 0.19307,-0.03573 0.37487,-0.119068 0.53124,-0.236678 0.30207,-0.227182 0.5013,-0.572135 0.65991,-0.926041 0.0897,-0.200303 0.16931,-0.407583 0.21135,-0.626835 0.0421,-0.219279 0.0457,-0.451948 -0.0155,-0.672828 -0.0571,-0.206412 -0.17035,-0.398134 -0.31884,-0.551386 -0.14847,-0.153263 -0.33149,-0.267976 -0.52659,-0.337447 -0.1509,-0.05372 -0.30818,-0.08088 -0.46302,-0.115755 -0.15492,-0.03491 -0.31027,-0.07907 -0.44907,-0.163815 -0.0716,-0.04368 -0.13886,-0.09801 -0.19016,-0.166399 -0.0513,-0.06832 -0.0863,-0.151254 -0.091,-0.235643 -0.004,-0.0747 0.0155,-0.147926 0.047,-0.212907 0.0315,-0.06497 0.0749,-0.122124 0.11989,-0.17725 0.34984,-0.429096 0.82221,-0.727707 1.21026,-1.119312 0.23637,-0.238368 0.44226,-0.513749 0.57826,-0.828889 0.13591,-0.315198 0.19984,-0.672412 0.15193,-1.025261 -0.0457,-0.336682 -0.19407,-0.663575 -0.41806,-0.920874 -0.20676,-0.237522 -0.47625,-0.414435 -0.76688,-0.50178 -0.47399,-0.142068 -0.97059,-0.04424 -1.42524,0.106456 -0.0918,0.03042 -0.18283,0.06334 -0.27905,0.07751 -0.0962,0.01418 -0.19856,0.0085 -0.2899,-0.03462 -0.0821,-0.03888 -0.15176,-0.106354 -0.20154,-0.18552 -0.0498,-0.07909 -0.0803,-0.169508 -0.0992,-0.260448 -0.0372,-0.182089 -0.0242,-0.369528 0.0202,-0.544672 0.0444,-0.175164 0.11903,-0.338822 0.20722,-0.492474 0.17632,-0.30734 0.40427,-0.579501 0.56431,-0.897104 0.2836,-0.562573 0.33647,-1.243296 0.22221,-1.890839 -0.0414,-0.235114 -0.10458,-0.469392 -0.21032,-0.685232 -0.10579,-0.21582 -0.25614,-0.413218 -0.44856,-0.550351 -0.12583,-0.08968 -0.26865,-0.152533 -0.41599,-0.179319 -0.14731,-0.02672 -0.29944,-0.01712 -0.43718,0.03152 -0.25763,0.09111 -0.44817,0.307184 -0.67541,0.458888 -0.0835,0.05576 -0.17331,0.103759 -0.26975,0.132292 -0.0964,0.02855 -0.19991,0.03715 -0.30128,0.01654 -0.16594,-0.03405 -0.3145,-0.146499 -0.42426,-0.285255 -0.17367,-0.219704 -0.2587,-0.506148 -0.25683,-0.782381 0.002,-0.237564 0.0638,-0.466185 0.12609,-0.690914 0.0624,-0.224684 0.12607,-0.451585 0.13177,-0.688845 0.009,-0.372174 -0.12832,-0.746551 -0.33538,-1.063504 -0.064,-0.0979 -0.13468,-0.191598 -0.21807,-0.272333 -0.0834,-0.08071 -0.17964,-0.148351 -0.28526,-0.188618 -0.20547,-0.07832 -0.42953,-0.04864 -0.63097,0.01654 -0.17058,0.05523 -0.33228,0.134721 -0.4904,0.218591 -0.27726,0.14709 -0.55017,0.311314 -0.85732,0.381889 -0.17863,0.04106 -0.3716,0.0483 -0.54932,-0.01912 -0.18996,-0.07232 -0.34518,-0.221863 -0.50488,-0.354499 -0.28031,-0.23314 -0.60332,-0.428167 -0.95084,-0.472839 -0.0648,-0.0083 -0.13005,-0.01153 -0.19482,-0.0093 -0.0648,0.0021 -0.12878,0.0098 -0.19172,0.02274 l -0.002,5.16e-4 c -0.10226,0.07579 -0.19204,0.1689 -0.2651,0.275437 -0.19701,0.287046 -0.26481,0.656206 -0.27492,1.018542 -0.006,0.206621 0.005,0.420878 -0.0672,0.609264 -0.0668,0.176287 -0.19953,0.314198 -0.34882,0.419098 -0.25714,0.180625 -0.56322,0.274177 -0.85834,0.381889 -0.16831,0.06145 -0.33546,0.128386 -0.49041,0.218074 -0.18308,0.105987 -0.35423,0.251593 -0.4315,0.455785 -0.0397,0.104963 -0.0526,0.22098 -0.047,0.336415 0.006,0.115385 0.0295,0.230227 0.061,0.342614 0.10183,0.363789 0.29339,0.714007 0.58033,0.954463 0.18292,0.153292 0.3972,0.257167 0.60823,0.360186 0.21106,0.102962 0.42416,0.208862 0.60461,0.365352 0.20982,0.182002 0.36952,0.434507 0.42013,0.709001 0.032,0.173467 0.0188,0.358334 -0.0656,0.503844 -0.0515,0.08857 -0.12769,0.159242 -0.21342,0.211873 -0.0856,0.05246 -0.18095,0.08733 -0.27853,0.112138 -0.26541,0.06761 -0.55546,0.0655 -0.7953,0.195855 -0.12813,0.06968 -0.2361,0.175387 -0.31368,0.302305 -0.0776,0.126847 -0.12476,0.274614 -0.14056,0.427366 -0.0242,0.233582 0.0251,0.475983 0.11782,0.697632 0.0927,0.221636 0.22781,0.424024 0.37776,0.610815 0.41325,0.51445 0.96205,0.927467 1.57509,1.09089 0.34606,0.09225 0.70252,0.103767 1.05162,0.17725 0.17459,0.03676 0.34814,0.08955 0.50953,0.173116 0.16169,0.08343 0.31199,0.198909 0.42478,0.347266 0.0564,0.07425 0.10362,0.157081 0.13022,0.246496 0.0267,0.08939 0.0317,0.185717 0.007,0.272333 -0.028,0.09635 -0.0918,0.176369 -0.1664,0.238229 -0.0746,0.06186 -0.15997,0.107743 -0.24391,0.155548 -0.41563,0.236712 -0.81888,0.539033 -1.02629,0.984435 -0.1273,0.273299 -0.17308,0.590971 -0.13126,0.901753 0.0455,0.336669 0.19419,0.663001 0.41806,0.920359 0.23469,0.269719 0.54671,0.459917 0.87488,0.568441 0.32821,0.108572 0.67235,0.138787 1.00924,0.121954 0.55306,-0.02766 1.09268,-0.179427 1.649,-0.153479 0.0715,0.0034 0.14298,0.0096 0.21291,0.02946 0.07,0.01979 0.13906,0.05388 0.19275,0.106455 0.0606,0.05956 0.0993,0.139899 0.11679,0.223242 0.0175,0.08335 0.0146,0.169143 0,0.251148 -0.0283,0.159017 -0.0988,0.304432 -0.17519,0.442349 -0.0765,0.137898 -0.16008,0.271613 -0.21962,0.419095 -0.0771,0.190629 -0.11172,0.402201 -0.0946,0.613918 0.0172,0.211717 0.0868,0.423169 0.20464,0.602546 0.12616,0.192042 0.30416,0.344051 0.49764,0.458369 0.1935,0.114427 0.40313,0.192472 0.61392,0.2589 0.37259,0.117515 0.76494,0.198957 1.13688,0.12609 0.19261,-0.03775 0.37608,-0.116879 0.53124,-0.236161 0.18049,-0.138677 0.31893,-0.332894 0.40152,-0.552421 l 1.26349,2.784326 c -0.20471,0.05694 -0.41495,0.09318 -0.62218,0.107487 -0.46441,0.03206 -1.0978,-0.07999 -1.69809,-0.226859 l -9.86245,-7.394381 c 0.25664,-0.04515 0.49682,-0.155515 0.68575,-0.322461 0.16263,-0.143764 0.28765,-0.326327 0.36897,-0.527101 0.15709,-0.387839 0.1491,-0.828955 0.0982,-1.255736 -0.0288,-0.241543 -0.0712,-0.484317 -0.15606,-0.716751 -0.0848,-0.232497 -0.21381,-0.455694 -0.39739,-0.63097 -0.17151,-0.163828 -0.38761,-0.281297 -0.61547,-0.342614 -0.22784,-0.06134 -0.46653,-0.06709 -0.69091,-0.02222 -0.17356,0.03472 -0.3378,0.09859 -0.50436,0.15348 -0.16667,0.05489 -0.33911,0.101404 -0.51883,0.09974 -0.0927,-7.94e-4 -0.18741,-0.01476 -0.27492,-0.05064 -0.0875,-0.03581 -0.16777,-0.09446 -0.22015,-0.172082 -0.0463,-0.06873 -0.0694,-0.14972 -0.0765,-0.229444 -0.007,-0.07971 0.001,-0.15866 0.0124,-0.236678 0.0876,-0.607039 0.366,-1.159751 0.51109,-1.752865 0.0884,-0.361119 0.12678,-0.740169 0.0765,-1.117245 -0.0504,-0.377063 -0.1927,-0.752554 -0.43874,-1.060916 -0.23472,-0.294235 -0.56126,-0.520866 -0.91984,-0.638204 -0.33099,-0.108333 -0.68725,-0.123539 -1.01234,-0.04134 -0.52996,0.134414 -0.94467,0.510228 -1.28984,0.912088 -0.0697,0.08116 -0.13753,0.164353 -0.22066,0.232545 -0.0831,0.06818 -0.1834,0.120959 -0.29456,0.131775 -0.0999,0.0097 -0.20391,-0.01553 -0.2961,-0.06253 -0.0921,-0.04692 -0.17273,-0.114956 -0.24236,-0.190685 -0.13878,-0.152035 -0.23335,-0.337915 -0.29094,-0.529685 -0.0575,-0.191823 -0.0789,-0.390237 -0.0827,-0.586526 -0.008,-0.392565 0.0532,-0.780489 0.0243,-1.173572 -0.0511,-0.696318 -0.38859,-1.37405 -0.86506,-1.924947 -0.17292,-0.200073 -0.36566,-0.387117 -0.5886,-0.532268 -0.22294,-0.145111 -0.47761,-0.247176 -0.73794,-0.2682 -0.17024,-0.01373 -0.34123,0.0073 -0.49609,0.06563 -0.15479,0.05835 -0.29349,0.153924 -0.39636,0.278538 -0.19236,0.233161 -0.25021,0.547634 -0.3793,0.821139 -0.0475,0.100518 -0.10518,0.196557 -0.18035,0.278535 -0.0752,0.08199 -0.16816,0.149553 -0.27596,0.187584 -0.17661,0.06199 -0.38139,0.03907 -0.5643,-0.03049 -0.2895,-0.110204 -0.53304,-0.333594 -0.68833,-0.597378 -0.13358,-0.226844 -0.20462,-0.479484 -0.27337,-0.728639 -0.0686,-0.249174 -0.13715,-0.501809 -0.26665,-0.730705 -0.20314,-0.359053 -0.54599,-0.63691 -0.92243,-0.820621 -0.1163,-0.05675 -0.23679,-0.106029 -0.36173,-0.135393 -0.0625,-0.01466 -0.12633,-0.02413 -0.18965,-0.02739 -0.0633,-0.0032 -0.12609,-2.1e-5 -0.18759,0.01085 -0.23923,0.04235 -0.43476,0.197601 -0.58859,0.374136 -0.13026,0.149535 -0.23837,0.317104 -0.34055,0.486794 -0.17911,0.297556 -0.34487,0.608812 -0.59583,0.850593 -0.14593,0.140626 -0.32396,0.25762 -0.53072,0.294555 -0.22114,0.03923 -0.4533,-0.01529 -0.68006,-0.05064 -0.3982,-0.06233 -0.81522,-0.06365 -1.16995,0.09147 -0.13234,0.05788 -0.25457,0.136345 -0.35915,0.232545 l -5.2e-4,0.0015 c -0.0538,0.130215 -0.0869,0.269526 -0.0956,0.41238 -0.0235,0.385027 0.12292,0.774636 0.31936,1.124995 0.11204,0.199787 0.24347,0.397611 0.28267,0.617535 0.0369,0.205661 -0.0107,0.412715 -0.0925,0.597379 -0.14098,0.318013 -0.37791,0.580853 -0.59635,0.851111 -0.12456,0.154136 -0.24418,0.312862 -0.34003,0.486276 -0.11323,0.204911 -0.19325,0.440883 -0.15038,0.679026 0.022,0.122412 0.0758,0.240147 0.14676,0.34675 0.0709,0.106574 0.15897,0.201948 0.2527,0.290938 0.30335,0.288092 0.6838,0.512728 1.09244,0.57826 0.26051,0.04176 0.52279,0.01845 0.78135,-0.0036 0.25856,-0.02209 0.52084,-0.04265 0.78083,0.0036 0.30232,0.05377 0.59695,0.20283 0.80099,0.435116 0.12893,0.146788 0.22157,0.330345 0.22427,0.516763 0.002,0.113527 -0.0303,0.224171 -0.0816,0.322977 -0.0513,0.09856 -0.12162,0.186007 -0.19999,0.265101 -0.21307,0.215215 -0.48916,0.377839 -0.64233,0.638205 -0.0818,0.139141 -0.12421,0.300775 -0.12558,0.465603 -10e-4,0.164782 0.0377,0.332531 0.10956,0.486793 0.10986,0.235924 0.29462,0.438251 0.50849,0.596345 0.2139,0.158067 0.45708,0.273994 0.70539,0.366387 0.68413,0.254293 1.43916,0.335282 2.11305,0.14211 0.3804,-0.10904 0.72499,-0.301329 1.0976,-0.429948 0.18636,-0.06432 0.38038,-0.11276 0.58085,-0.125058 0.20068,-0.01259 0.40872,0.01193 0.59996,0.08888 0.0957,0.03854 0.18801,0.09028 0.26407,0.160198 0.0761,0.06985 0.13575,0.158631 0.16123,0.25528 0.0283,0.107559 0.0127,0.219652 -0.0227,0.320911 -0.0355,0.101245 -0.0903,0.193603 -0.14263,0.286805 -0.25928,0.461479 -0.46958,0.978244 -0.41289,1.519804 0.0348,0.332319 0.17227,0.66044 0.3886,0.932241 0.23457,0.294312 0.56084,0.520737 0.91933,0.638204 0.37576,0.123074 0.77916,0.126288 1.15186,0.04289 0.37278,-0.08335 0.71661,-0.250788 1.0263,-0.45837 0.50838,-0.340804 0.9334,-0.791977 1.47536,-1.083654 0.0696,-0.0375 0.14105,-0.07211 0.21859,-0.09302 0.0776,-0.02095 0.16211,-0.02727 0.24288,-0.0078 0.0913,0.02217 0.17424,0.07643 0.23823,0.145727 0.064,0.06931 0.10927,0.152482 0.14211,0.238744 0.0636,0.167333 0.0798,0.345239 0.0858,0.519867 0.006,0.17468 0.003,0.349869 0.03,0.523999 0.0353,0.225134 0.12279,0.446596 0.25942,0.638204 0.13664,0.191606 0.32274,0.352203 0.5364,0.455785 0.22875,0.110905 0.48442,0.154776 0.73277,0.153479 0.24844,-0.0013 0.49111,-0.04614 0.72864,-0.102835 0.41991,-0.100111 0.83824,-0.245782 1.14928,-0.526585 0.16107,-0.14542 0.28977,-0.325429 0.36897,-0.527097 0.0922,-0.234532 0.11322,-0.497695 0.0667,-0.753444 l 3.9951,2.995684 c -0.18654,-0.01482 -0.33547,-0.03092 -0.40359,-0.05374 -0.40287,-0.134945 -0.8441,-0.126079 -1.25884,-0.03307 -0.0965,0.02164 -0.19139,0.04977 -0.28525,0.08113 -0.0812,-0.100229 -0.16637,-0.197011 -0.25683,-0.288353 -0.28909,-0.291841 -0.62655,-0.567092 -1.02061,-0.705901 -0.25165,-0.08843 -0.5355,-0.08232 -0.8046,-0.06201 -0.27042,0.02074 -0.53628,0.09704 -0.79324,0.185002 -0.378,0.129382 -0.74893,0.290399 -1.08882,0.499711 -0.0452,0.02783 -0.0897,0.05625 -0.13384,0.08578 0.13542,0.07436 0.26577,0.157401 0.39016,0.248047 -0.53282,0.348861 -1.06862,0.693243 -1.61179,1.026295 -0.30415,0.186412 -0.61172,0.371128 -0.88005,0.603581 -0.26856,0.232365 -0.49891,0.517115 -0.60875,0.847492 -0.0882,0.265313 -0.0956,0.552704 -0.0351,0.822174 0.0482,0.215146 0.13882,0.423397 0.14056,0.644403 0.001,0.184799 -0.0593,0.364982 -0.10801,0.544672 -0.0339,0.124912 -0.0623,0.25165 -0.0847,0.378788 0.12856,0.03027 0.25913,0.05475 0.39015,0.0739 0.1885,0.02763 0.3821,0.04431 0.55552,0.118856 0.20749,0.08908 0.36786,0.253423 0.55139,0.381889 0.23,0.16102 0.50278,0.268388 0.78755,0.294556 0.35461,0.03259 0.71394,-0.06147 1.03921,-0.209804 0.32527,-0.148358 0.62174,-0.349859 0.91778,-0.548289 0.5289,-0.354433 1.06494,-0.697909 1.60455,-1.036629 0.036,0.147182 0.0623,0.296775 0.0786,0.447519 0.0453,-0.0279 0.0902,-0.05639 0.13436,-0.08578 0.33174,-0.221396 0.62966,-0.489596 0.90123,-0.776698 0.18457,-0.195167 0.36217,-0.403304 0.48886,-0.63717 0.12609,-0.232703 0.24419,-0.484769 0.26045,-0.745175 0.0255,-0.407659 -0.10018,-0.818277 -0.26045,-1.192691 h 5.2e-4 c -0.0244,-0.0571 -0.0543,-0.112408 -0.0816,-0.168466 0.0184,-0.0043 0.0363,-0.0096 0.0548,-0.01344 0.25322,-0.05241 0.51542,-0.06221 0.77204,-0.02997 0.18821,0.02365 1.00683,-0.01137 1.58337,0.0041 l 5.37383,4.029212 c 0.45936,0.610696 0.92119,1.255726 1.21595,1.75028 0.83158,1.395269 1.65276,2.843567 2.06085,4.415753 0.27683,1.066477 0.33312,2.199502 0.23513,3.296954 -0.0622,0.696354 -0.14866,1.399958 -0.26716,2.098064 -0.0553,-0.06737 -0.11727,-0.129688 -0.18552,-0.182936 -0.14949,-0.116631 -0.32427,-0.195482 -0.50436,-0.232542 -0.13931,-0.02866 -0.28074,-0.03288 -0.42117,-0.04444 -0.14051,-0.01159 -0.28297,-0.03088 -0.41548,-0.08837 -0.0683,-0.02962 -0.13401,-0.06961 -0.18758,-0.123507 -0.0536,-0.05384 -0.0945,-0.1226 -0.10904,-0.196371 -0.0128,-0.0653 -0.005,-0.13212 0.015,-0.19327 0.0197,-0.06114 0.0505,-0.116914 0.0832,-0.171048 0.25437,-0.421317 0.63291,-0.742831 0.92552,-1.135849 0.17825,-0.239249 0.32463,-0.507026 0.40514,-0.801502 0.0804,-0.2945 0.0926,-0.616968 0.007,-0.921906 -0.0819,-0.290957 -0.25234,-0.560689 -0.48111,-0.759645 -0.21115,-0.183663 -0.47061,-0.306282 -0.7369,-0.347266 -0.43425,-0.0665 -0.85824,0.08124 -1.2392,0.270269 -0.077,0.03817 -0.15334,0.07844 -0.23616,0.102836 -0.0828,0.02442 -0.17326,0.03191 -0.2589,0.0052 -0.077,-0.02408 -0.14643,-0.07491 -0.19999,-0.138493 -0.0535,-0.06352 -0.092,-0.139264 -0.11989,-0.217041 -0.0552,-0.15581 -0.0669,-0.322873 -0.0496,-0.482658 0.0173,-0.159805 0.063,-0.313124 0.12144,-0.459404 0.11692,-0.292576 0.28363,-0.560284 0.38499,-0.859896 0.17961,-0.530706 0.14137,-1.137099 -0.0393,-1.693436 -0.0655,-0.202004 -0.15007,-0.400677 -0.26975,-0.577742 -0.11972,-0.177043 -0.27637,-0.332417 -0.4625,-0.429432 -0.12172,-0.06344 -0.25474,-0.101089 -0.38757,-0.106452 -0.1328,-0.0053 -0.26528,0.02225 -0.38034,0.08217 -0.21519,0.112152 -0.35596,0.326057 -0.53692,0.487826 -0.0665,0.05947 -0.13941,0.112786 -0.22066,0.14986 -0.0812,0.03708 -0.17137,0.0573 -0.26303,0.05168 -0.15009,-0.0094 -0.29458,-0.0903 -0.40824,-0.198954 -0.17988,-0.172061 -0.29041,-0.413737 -0.32298,-0.657323 -0.028,-0.209489 -0.002,-0.418062 0.0253,-0.623734 0.027,-0.205666 0.0554,-0.414009 0.031,-0.623736 -0.0382,-0.328991 -0.20507,-0.64143 -0.42634,-0.895036 -0.0684,-0.07835 -0.14251,-0.152619 -0.22582,-0.213423 -0.0833,-0.06078 -0.17606,-0.107818 -0.27389,-0.130225 -0.19031,-0.04358 -0.38394,0.01016 -0.55294,0.0925 -0.14311,0.06977 -0.27497,0.159758 -0.40359,0.253214 -0.22549,0.163896 -0.44568,0.342164 -0.70693,0.442351 -0.15194,0.05828 -0.32015,0.08854 -0.48473,0.05116 -0.17594,-0.0402 -0.33101,-0.153043 -0.48782,-0.250113 -0.27528,-0.170704 -0.58299,-0.302339 -0.894,-0.298691 -0.11604,0.0013 -0.23102,0.02159 -0.33849,0.05994 l -10e-4,5.16e-4 c -0.0806,0.07948 -0.14839,0.172434 -0.19947,0.275437 -0.13761,0.277259 -0.15123,0.610745 -0.11524,0.931209 0.0206,0.182734 0.0563,0.37034 0.0165,0.545187 -0.0369,0.163573 -0.13704,0.30149 -0.25528,0.412377 -0.20366,0.19095 -0.46086,0.311457 -0.70694,0.442867 -0.14032,0.07497 -0.27849,0.154509 -0.40359,0.252699 -0.1478,0.11603 -0.28034,0.2653 -0.32298,0.454752 -0.0219,0.09738 -0.0192,0.201306 0,0.302308 0.0191,0.100973 0.0545,0.199437 0.0961,0.294555 0.13458,0.307888 0.34638,0.592617 0.62839,0.768945 0.17978,0.112411 0.38051,0.177205 0.57877,0.241845 0.19829,0.06459 0.39922,0.13148 0.57723,0.247013 0.20697,0.134374 0.37833,0.337015 0.45682,0.572577 0.0496,0.14886 0.0608,0.313523 0.005,0.452167 -0.0343,0.0844 -0.0924,0.156448 -0.16123,0.213424 -0.0687,0.05681 -0.14777,0.09888 -0.23048,0.132807 -0.22491,0.0924 -0.48021,0.126265 -0.67489,0.270786 -0.104,0.07724 -0.18575,0.183993 -0.23823,0.305408 -0.0525,0.121354 -0.0758,0.257249 -0.0708,0.393774 0.008,0.208775 0.0813,0.416166 0.19017,0.599964 0.10896,0.183782 0.25227,0.34544 0.40721,0.491442 0.42698,0.402082 0.96068,0.698254 1.51981,0.766361 0.31562,0.03844 0.63074,0.0043 0.94671,0.02584 0.15802,0.01077 0.317,0.03577 0.46922,0.0894 0.15248,0.05348 0.29848,0.136472 0.416,0.253214 0.0588,0.05843 0.11075,0.126056 0.1452,0.201539 0.0345,0.07546 0.0511,0.159334 0.0398,0.238746 -0.0127,0.08832 -0.0589,0.166735 -0.11679,0.230476 -0.0579,0.06373 -0.12748,0.114411 -0.19534,0.166915 -0.33602,0.259975 -0.65316,0.576199 -0.78031,0.994254 -0.078,0.256527 -0.0784,0.542184 -0.003,0.810803 0.0817,0.290964 0.25244,0.560104 0.4811,0.759126 0.23971,0.208577 0.53731,0.337746 0.83923,0.392742 0.30195,0.05505 0.60874,0.03894 0.90279,-0.01757 0.48272,-0.09281 0.93816,-0.293528 1.4304,-0.339513 0.0633,-0.0058 0.12675,-0.009 0.19069,0 0.064,0.0088 0.12871,0.03009 0.18241,0.06976 0.0606,0.04497 0.10502,0.11118 0.13075,0.182417 0.0257,0.07127 0.0337,0.147129 0.031,0.221176 -0.005,0.143602 -0.0491,0.279868 -0.0992,0.410829 -0.0502,0.130958 -0.107,0.25958 -0.14108,0.396875 -0.0441,0.177477 -0.0486,0.36854 -0.007,0.552936 0.0413,0.184391 0.12894,0.361437 0.25477,0.504878 0.13468,0.153575 0.30979,0.265848 0.49402,0.342617 0.18426,0.07686 0.37802,0.119491 0.57155,0.151927 0.34207,0.05742 0.69752,0.08077 1.01544,-0.02945 0.16463,-0.05709 0.31557,-0.149603 0.43718,-0.273886 0.14148,-0.144507 0.23933,-0.332787 0.28474,-0.5364 l 0.76584,1.208712 c -0.3537,0.637434 -0.79369,1.302919 -1.46089,1.53789 -0.44834,0.15789 -1.0617,0.138912 -1.68672,0.04237 l -8.92297,-5.686991 c 0.25798,-0.04277 0.50019,-0.151106 0.69143,-0.316775 0.16463,-0.142666 0.2921,-0.324355 0.37569,-0.525034 0.16148,-0.387657 0.15797,-0.830564 0.1111,-1.259356 -0.0265,-0.242667 -0.0665,-0.486791 -0.14934,-0.720883 -0.0828,-0.234157 -0.21026,-0.45946 -0.39274,-0.637172 -0.17049,-0.166101 -0.38587,-0.286063 -0.61392,-0.349848 -0.22803,-0.06381 -0.46788,-0.07175 -0.6935,-0.02894 -0.1745,0.03311 -0.33977,0.0954 -0.50746,0.148829 -0.1678,0.05343 -0.34159,0.09854 -0.52193,0.09509 -0.093,-0.0019 -0.18746,-0.01688 -0.27492,-0.05374 -0.0874,-0.03679 -0.16783,-0.09624 -0.21963,-0.174665 -0.0458,-0.06943 -0.0681,-0.150405 -0.0744,-0.230479 -0.006,-0.08007 0.003,-0.159527 0.015,-0.237712 0.0939,-0.608314 0.37822,-1.160655 0.52968,-1.754412 0.0924,-0.361519 0.13513,-0.740926 0.0884,-1.119831 -0.0469,-0.378893 -0.1861,-0.757819 -0.42995,-1.069702 -0.23264,-0.297595 -0.55807,-0.528272 -0.91674,-0.649571 -0.33108,-0.111987 -0.6884,-0.130442 -1.01544,-0.05116 -0.53315,0.129645 -0.95293,0.502401 -1.30328,0.902268 -0.0708,0.08075 -0.13967,0.163902 -0.22376,0.231511 -0.0841,0.0676 -0.18497,0.119438 -0.29662,0.129191 -0.10038,0.0087 -0.2051,-0.01757 -0.29714,-0.06563 -0.092,-0.048 -0.17168,-0.117104 -0.24081,-0.193786 -0.13777,-0.153945 -0.23091,-0.34132 -0.28681,-0.534336 -0.0559,-0.193072 -0.0757,-0.392092 -0.0775,-0.589111 -0.004,-0.394028 0.0613,-0.783463 0.0362,-1.178221 -0.0444,-0.699281 -0.37635,-1.382382 -0.84904,-1.939933 -0.17155,-0.202489 -0.36322,-0.391637 -0.5855,-0.539504 -0.22231,-0.147828 -0.4769,-0.252796 -0.73794,-0.276469 -0.17069,-0.01548 -0.3427,0.004 -0.49868,0.06098 -0.1559,0.05703 -0.29551,0.1514 -0.39997,0.275436 -0.19534,0.232082 -0.25687,0.54691 -0.38912,0.820106 -0.0487,0.100398 -0.10721,0.196492 -0.18346,0.278018 -0.0762,0.08153 -0.17051,0.1479 -0.27905,0.185002 -0.17784,0.06044 -0.38299,0.03596 -0.56586,-0.03566 -0.28942,-0.113453 -0.53201,-0.340428 -0.68522,-0.606681 -0.13181,-0.228965 -0.20013,-0.483092 -0.26666,-0.733806 -0.0664,-0.25073 -0.13275,-0.504889 -0.26044,-0.735873 -0.20031,-0.362328 -0.54184,-0.644943 -0.91778,-0.833022 -0.11615,-0.05809 -0.23665,-0.108309 -0.36173,-0.139012 -0.0625,-0.01533 -0.12615,-0.02556 -0.18966,-0.02945 -0.0635,-0.0039 -0.1268,-0.0016 -0.18862,0.0088 -0.2405,0.04013 -0.43816,0.194363 -0.59427,0.370004 -0.13219,0.148775 -0.24254,0.315963 -0.34675,0.48524 -0.18268,0.296839 -0.35194,0.607338 -0.60617,0.847495 -0.14783,0.139679 -0.32752,0.2554 -0.53536,0.29042 -0.22232,0.03718 -0.45493,-0.01966 -0.68213,-0.05736 -0.39899,-0.06649 -0.8171,-0.07259 -1.17461,0.07958 -0.13338,0.05677 -0.25687,0.134971 -0.36277,0.230475 l -5.2e-4,5.16e-4 -5.1e-4,5.19e-4 c -0.0552,0.130101 -0.0891,0.269674 -0.0992,0.412893 -0.0274,0.386154 0.11536,0.778692 0.30903,1.132231 0.11044,0.2016 0.24034,0.401617 0.2775,0.622702 0.035,0.206754 -0.0148,0.413909 -0.0987,0.598414 -0.14462,0.317741 -0.38482,0.579472 -0.60669,0.848526 -0.12653,0.153464 -0.24833,0.311129 -0.34623,0.484209 -0.11565,0.204499 -0.19828,0.44065 -0.15761,0.680061 0.0209,0.123061 0.074,0.241652 0.14418,0.349332 0.0701,0.107651 0.15693,0.204843 0.25011,0.295072 0.30156,0.29211 0.68147,0.520342 1.09089,0.590145 0.26101,0.04451 0.52425,0.02426 0.78393,0.0047 0.25969,-0.01963 0.52297,-0.03814 0.78341,0.01085 0.30285,0.05697 0.59699,0.209812 0.79944,0.444934 0.12795,0.148582 0.21928,0.333793 0.22014,0.520899 5.3e-4,0.11394 -0.0328,0.224845 -0.0853,0.323493 -0.0524,0.0984 -0.12366,0.184954 -0.20308,0.263551 -0.21595,0.213868 -0.49433,0.374817 -0.65061,0.634587 -0.0835,0.138809 -0.12775,0.300726 -0.13074,0.466119 -0.003,0.165354 0.0343,0.333862 0.1049,0.489376 0.10791,0.237845 0.29182,0.442815 0.50488,0.603581 0.21308,0.160742 0.45506,0.279482 0.70332,0.374655 0.68401,0.261954 1.4411,0.350491 2.11925,0.163298 0.38281,-0.105661 0.73069,-0.295253 1.10588,-0.420647 0.18763,-0.0627 0.38317,-0.10953 0.58445,-0.119888 0.20151,-0.01058 0.40986,0.01648 0.601,0.0956 0.0956,0.03962 0.18741,0.09238 0.26303,0.163295 0.0757,0.07084 0.13508,0.160621 0.15968,0.257866 0.0273,0.108217 0.0102,0.220165 -0.0263,0.321429 -0.0366,0.10125 -0.0923,0.193275 -0.14573,0.286287 -0.26475,0.460542 -0.48097,0.977323 -0.42943,1.521354 0.0316,0.333835 0.16645,0.664575 0.38086,0.939477 0.23248,0.29767 0.55764,0.52763 0.91622,0.649055 0.37586,0.127225 0.78065,0.134787 1.15548,0.05478 0.37491,-0.07993 0.72174,-0.244333 1.03457,-0.449583 0.51353,-0.336981 0.94412,-0.785455 1.49086,-1.072804 0.0702,-0.03695 0.14264,-0.07124 0.22066,-0.09147 0.078,-0.02027 0.16253,-0.02608 0.2434,-0.0057 0.0914,0.02315 0.17418,0.07864 0.23771,0.148828 0.0635,0.0702 0.10845,0.154438 0.14056,0.241329 0.0622,0.168551 0.0763,0.347147 0.0806,0.522449 0.004,0.175356 -5.3e-4,0.351055 0.0253,0.526066 0.0332,0.22628 0.11852,0.44922 0.25373,0.642855 0.13522,0.193636 0.32041,0.356958 0.53382,0.463021 0.22846,0.113557 0.48457,0.15956 0.73381,0.160714 0.24931,0.0013 0.49332,-0.04104 0.73225,-0.0956 0.0459,-0.01047 0.0912,-0.02398 0.13695,-0.03566 -0.14502,0.06594 -0.28675,0.138915 -0.4222,0.221692 -0.0377,0.02299 -0.0744,0.04641 -0.11111,0.0708 0.11275,0.06144 0.22098,0.130263 0.32453,0.205156 -0.4436,0.288223 -0.8898,0.572844 -1.34203,0.848008 -0.25323,0.154014 -0.50937,0.306628 -0.73278,0.498678 -0.22359,0.191979 -0.41549,0.42726 -0.50694,0.700215 -0.0735,0.219199 -0.0793,0.456396 -0.0289,0.679029 0.0402,0.177755 0.11586,0.350189 0.11731,0.532784 0.001,0.152677 -0.0494,0.301646 -0.0899,0.450101 -0.0282,0.103203 -0.0521,0.207611 -0.0708,0.312642 0.10704,0.02501 0.21545,0.04516 0.32453,0.06098 0.15694,0.02283 0.31812,0.0366 0.4625,0.09819 0.17275,0.0736 0.30661,0.209089 0.45941,0.315224 0.19149,0.133035 0.41868,0.221779 0.65577,0.243398 0.29524,0.02692 0.59426,-0.05055 0.86506,-0.173117 0.0103,-0.0047 0.0202,-0.01018 0.0305,-0.01499 -0.22223,0.258758 -0.37631,0.570183 -0.43253,0.894001 -0.0969,0.55798 0.085,1.109493 0.32143,1.606621 0.0478,0.100399 0.098,0.199917 0.12764,0.307475 0.0297,0.107577 0.0379,0.224727 0.001,0.334346 -0.0332,0.0985 -0.10117,0.186603 -0.185,0.253733 -0.0838,0.0672 -0.1833,0.114544 -0.28525,0.147794 -0.20374,0.0664 -0.42114,0.07734 -0.62839,0.05013 -0.20703,-0.02688 -0.405,-0.09118 -0.59376,-0.171048 -0.3774,-0.159705 -0.72159,-0.383032 -1.10846,-0.522965 -0.68533,-0.247933 -1.47396,-0.21718 -2.20141,-0.0015 -0.26404,0.07839 -0.5241,0.181247 -0.75707,0.330211 -0.23294,0.148994 -0.43892,0.346347 -0.56947,0.583427 -0.0854,0.155017 -0.1376,0.326038 -0.14779,0.497128 -0.0102,0.171135 0.0226,0.34181 0.0977,0.491959 0.14055,0.280963 0.41479,0.469638 0.62064,0.707966 0.0757,0.08759 0.1429,0.182989 0.18913,0.288872 0.0463,0.106143 0.0717,0.223375 0.062,0.341064 -0.0159,0.193257 -0.12516,0.376624 -0.26924,0.519867 -0.22797,0.226671 -0.54411,0.361309 -0.86144,0.39584 -0.27291,0.0297 -0.54368,-0.01056 -0.81029,-0.05168 -0.26662,-0.04112 -0.53664,-0.08339 -0.80977,-0.0584 -0.42844,0.03923 -0.83868,0.244862 -1.17357,0.522449 -0.10348,0.08575 -0.20166,0.179139 -0.28267,0.284739 -0.0811,0.105625 -0.14474,0.223859 -0.17622,0.349332 -0.0612,0.244102 0.004,0.494594 0.10749,0.715201 0.0872,0.186698 0.2005,0.359918 0.31884,0.528651 0.20753,0.295825 0.43478,0.585081 0.55863,0.925007 0.0718,0.197382 0.1065,0.415507 0.0537,0.626319 -0.0561,0.225451 -0.20667,0.421724 -0.33693,0.621151 -0.2284,0.349732 -0.4071,0.74344 -0.4098,1.144633 -10e-4,0.149021 0.023,0.296063 0.0698,0.435115 l 5.1e-4,0.001 c 0.10171,0.107188 0.22287,0.197786 0.35605,0.267165 0.357,0.185918 0.78926,0.213374 1.20665,0.176734 0.23768,-0.02069 0.4824,-0.06042 0.709,-0.0041 0.21184,0.05288 0.38874,0.186412 0.5302,0.342615 0.24326,0.268567 0.39276,0.603625 0.55759,0.925007 0.094,0.183282 0.19479,0.364307 0.31936,0.52865 0.14712,0.194022 0.33878,0.369158 0.58394,0.429948 0.12603,0.03115 0.26057,0.03091 0.39223,0.0093 0.13164,-0.0217 0.26036,-0.06403 0.38499,-0.114723 0.40335,-0.164127 0.77845,-0.42875 1.0144,-0.787032 0.15043,-0.228402 0.23944,-0.485241 0.32815,-0.738974 0.0888,-0.253701 0.17984,-0.510918 0.33435,-0.736904 0.17962,-0.262792 0.44853,-0.478089 0.75654,-0.572058 0.1946,-0.05929 0.40823,-0.06799 0.58704,0.0088 0.10912,0.04706 0.20119,0.123055 0.27337,0.213423 0.0722,0.09036 0.12528,0.194641 0.16743,0.302308 0.11465,0.292902 0.15229,0.623006 0.33538,0.878499 0.0979,0.136554 0.23476,0.245337 0.39119,0.316777 0.15651,0.07145 0.33251,0.105654 0.51005,0.103352 0.27148,-0.0035 0.54299,-0.09146 0.78445,-0.226343 0.24143,-0.134919 0.45459,-0.315643 0.64802,-0.51108 0.53295,-0.538107 0.93047,-1.217353 1.03249,-1.936316 0.0576,-0.405863 0.0217,-0.81326 0.0574,-1.220078 0.0178,-0.203423 0.0545,-0.40703 0.12764,-0.602031 0.0732,-0.194942 0.18384,-0.381177 0.33848,-0.529166 0.0776,-0.07368 0.16623,-0.139187 0.2651,-0.181385 0.0989,-0.04223 0.20865,-0.06103 0.31161,-0.04393 0.11452,0.01905 0.21468,0.08101 0.2961,0.157615 0.0814,0.07661 0.14578,0.167701 0.21239,0.256831 0.32972,0.441312 0.73311,0.860349 1.27331,1.037146 0.33138,0.108191 0.70225,0.118038 1.05317,0.02894 0.38016,-0.09651 0.73475,-0.309099 0.9989,-0.597897 0.27688,-0.302657 0.45085,-0.682493 0.52968,-1.070219 0.0787,-0.387744 0.0654,-0.783312 -0.001,-1.16427 -0.10873,-0.625684 -0.35809,-1.219102 -0.40618,-1.855184 -0.006,-0.08176 -0.009,-0.164277 0.004,-0.246496 0.013,-0.08223 0.0422,-0.164494 0.0951,-0.232545 0.0598,-0.07686 0.14758,-0.132303 0.24081,-0.163296 0.0933,-0.03104 0.19218,-0.03867 0.28835,-0.03307 0.18653,0.01091 0.36223,0.07134 0.53124,0.140042 0.16889,0.06868 0.33507,0.146571 0.51263,0.19482 0.22956,0.06237 0.47768,0.07342 0.7183,0.02584 0.24062,-0.04758 0.47256,-0.154717 0.66197,-0.312642 0.20274,-0.168957 0.35253,-0.391033 0.45682,-0.626319 0.10433,-0.235225 0.16551,-0.484153 0.21239,-0.732771 0.0828,-0.439283 0.12167,-0.896996 -0.0139,-1.310516 -0.0702,-0.214066 -0.18714,-0.41194 -0.34571,-0.572574 -0.1842,-0.186545 -0.42533,-0.318003 -0.68833,-0.382924 l 1.24695,-0.746207 c 0.27583,0.276551 0.56811,0.537782 0.86041,0.795817 0.50325,0.444262 1.59009,1.236617 1.59009,1.236617 0,0 0.12147,2.474365 0.0589,3.709334 -0.16997,3.355015 -0.0786,6.834283 -1.17771,10.008693 -0.60241,1.73978 -1.46688,3.53625 -2.8851,4.7103 -0.59804,0.49508 -1.40424,0.76242 -2.17816,0.82424 -0.77884,0.0622 -1.54816,-0.69586 -2.2965,-0.47129 -0.55825,0.16752 -0.81871,0.8298 -1.2361,1.23662 -0.38769,0.37786 -0.64563,1.01831 -1.1777,1.11828 -0.45847,0.0861 -0.88301,-0.3109 -1.29501,-0.52969 -0.43747,-0.23231 -0.74792,-0.74351 -1.23662,-0.82423 -0.60119,-0.0993 -1.29181,0.0885 -1.7663,0.47077 -0.60148,0.4846 -1.01031,1.29004 -1.05989,2.06086 -0.0482,0.74962 0.76585,2.11976 0.76585,2.11976 0,0 0.97464,-1.14924 1.64848,-1.41335 0.47542,-0.18634 1.02642,-0.13955 1.53065,-0.0589 0.72355,0.1157 1.3316,0.84174 2.06034,0.76533 0.69311,-0.0727 1.18738,-0.7303 1.7663,-1.11828 0.47947,-0.32134 0.84638,-0.89279 1.41335,-1.00097 0.81355,-0.15522 1.58589,0.61136 2.41381,0.58859 0.67646,-0.0186 1.31863,-0.32769 1.94303,-0.58859 0.72115,-0.30132 2.06034,-1.1188 2.06034,-1.1188 0,0 -0.65099,1.6536 -1.2361,2.2965 -0.61915,0.68032 -1.40536,1.30251 -2.2965,1.53066 -0.87786,0.22475 -1.81772,-0.4054 -2.70784,-0.23564 -0.64661,0.12331 -1.40095,0.33558 -1.7663,0.88315 -0.46953,0.70368 -0.17674,2.53162 -0.17674,2.53162 0,0 1.25357,-0.76564 1.94304,-1.00097 0.71765,-0.24496 1.47876,-0.40902 2.23707,-0.41186 1.35513,-0.005 2.66054,0.88864 4.00337,0.70642 0.90466,-0.12276 1.78473,-0.57818 2.47324,-1.17771 0.72658,-0.63269 1.58956,-2.4138 1.58956,-2.4138 0,0 -0.38624,2.02242 -0.17673,3.00291 0.2619,1.22565 1.60685,3.20467 1.79317,3.47524 v 0.10077 c 0,0 0.0306,-0.0451 0.0341,-0.0501 0.003,0.005 0.0336,0.0501 0.0336,0.0501 v -0.10025 c 0.1858,-0.26981 1.53122,-2.24982 1.79317,-3.47576 0.20951,-0.98049 -0.17673,-3.00291 -0.17673,-3.00291 0,0 0.86298,1.78111 1.58956,2.4138 0.68851,0.59953 1.56859,1.05495 2.47324,1.17771 1.34283,0.18222 2.64824,-0.71142 4.00337,-0.70642 0.75831,0.003 1.51942,0.16689 2.23707,0.41186 0.68947,0.23532 1.94304,1.00097 1.94304,1.00097 0,0 0.29279,-1.82794 -0.17674,-2.53162 -0.36535,-0.54757 -1.11969,-0.75984 -1.7663,-0.88315 -0.89012,-0.16976 -1.82998,0.46039 -2.70784,0.23564 -0.89114,-0.22815 -1.67735,-0.85034 -2.2965,-1.53066 -0.58511,-0.6429 -1.2361,-2.2965 -1.2361,-2.2965 0,0 1.33919,0.81748 2.06034,1.1188 0.6244,0.2609 1.26657,0.56999 1.94303,0.58859 0.82792,0.0228 1.60026,-0.74381 2.41381,-0.58859 0.56697,0.10818 0.93388,0.67964 1.41335,1.00097 0.57892,0.38798 1.07319,1.04558 1.7663,1.11828 0.72874,0.0764 1.33679,-0.64963 2.06034,-0.76533 0.50422,-0.0807 1.05523,-0.12744 1.53065,0.0589 0.67384,0.26411 1.64848,1.41335 1.64848,1.41335 0,0 0.81406,-1.37014 0.76585,-2.11976 -0.0496,-0.77082 -0.45841,-1.57626 -1.05989,-2.06086 -0.47449,-0.38227 -1.16511,-0.57007 -1.7663,-0.47077 -0.4887,0.0807 -0.79915,0.59192 -1.23661,0.82423 -0.412,0.21879 -0.83655,0.61579 -1.29501,0.52969 -0.53208,-0.1 -0.79002,-0.74042 -1.17771,-1.11828 -0.41739,-0.40682 -0.67785,-1.0691 -1.2361,-1.23662 -0.74835,-0.22457 -1.51766,0.53349 -2.2965,0.47129 -0.77392,-0.0618 -1.58012,-0.32916 -2.17816,-0.82424 -1.41822,-1.17405 -2.28269,-2.97052 -2.8851,-4.7103 -1.09915,-3.1744 -1.00774,-6.653678 -1.17771,-10.008693 -0.0626,-1.234969 0.0589,-3.709334 0.0589,-3.709334 0,0 1.08683,-0.792355 1.59008,-1.236617 0.2923,-0.258035 0.58459,-0.519266 0.86041,-0.795817 l 1.24696,0.746207 c -0.263,0.06492 -0.50414,0.196379 -0.68834,0.382924 -0.15857,0.160634 -0.2755,0.358508 -0.34571,0.572574 -0.13561,0.41352 -0.0968,0.871231 -0.0139,1.310516 0.0469,0.248618 0.10806,0.497546 0.21239,0.732771 0.10429,0.235286 0.25408,0.457362 0.45682,0.626319 0.1894,0.157925 0.42134,0.265052 0.66197,0.312642 0.24063,0.04757 0.48873,0.03653 0.7183,-0.02584 0.17756,-0.04825 0.34374,-0.12614 0.51263,-0.19482 0.16901,-0.0687 0.34471,-0.129114 0.53124,-0.140042 0.0962,-0.0056 0.19507,0.002 0.28835,0.03307 0.0932,0.03099 0.18103,0.08644 0.24081,0.163296 0.0529,0.06805 0.0821,0.150315 0.0951,0.232545 0.0129,0.08222 0.01,0.164737 0.004,0.246496 -0.0481,0.636082 -0.29745,1.2295 -0.40618,1.855184 -0.0665,0.380958 -0.0798,0.776526 -0.001,1.16427 0.0788,0.387726 0.2528,0.767562 0.52968,1.070219 0.26415,0.288798 0.61874,0.501385 0.9989,0.597897 0.35092,0.0891 0.72179,0.07925 1.05317,-0.02894 0.5402,-0.176797 0.94359,-0.595834 1.27331,-1.037146 0.0666,-0.08913 0.13097,-0.180221 0.21239,-0.256831 0.0814,-0.0766 0.18158,-0.138565 0.2961,-0.157615 0.10296,-0.0171 0.21268,0.0017 0.31161,0.04393 0.0989,0.0422 0.18754,0.107703 0.2651,0.181385 0.15464,0.147989 0.26525,0.334224 0.33848,0.529166 0.0732,0.194998 0.1099,0.398608 0.12764,0.602031 0.0356,0.406818 -2.7e-4,0.814215 0.0574,1.220078 0.10202,0.718963 0.49954,1.398209 1.03249,1.936316 0.19343,0.195437 0.40659,0.376161 0.64802,0.51108 0.24146,0.134884 0.51297,0.222842 0.78445,0.226343 0.17754,0.0023 0.35354,-0.0319 0.51005,-0.103352 0.15643,-0.07144 0.29327,-0.180223 0.39119,-0.316777 0.1831,-0.255493 0.22073,-0.585597 0.33538,-0.878499 0.0422,-0.107667 0.0952,-0.211947 0.16743,-0.302308 0.0722,-0.09037 0.16425,-0.166362 0.27337,-0.213423 0.17881,-0.07678 0.39244,-0.06807 0.58704,-0.0088 0.30801,0.09397 0.57692,0.309263 0.75654,0.572058 0.15451,0.225986 0.24551,0.483203 0.33435,0.736904 0.0887,0.253733 0.17772,0.510572 0.32815,0.738974 0.23595,0.358282 0.61106,0.622905 1.0144,0.787032 0.12463,0.05069 0.25335,0.09302 0.38499,0.114723 0.13166,0.02161 0.26621,0.02185 0.39223,-0.0093 0.24517,-0.06079 0.43682,-0.235926 0.58394,-0.429948 0.12457,-0.164343 0.22533,-0.345368 0.31936,-0.52865 0.16483,-0.321382 0.31433,-0.65644 0.55759,-0.925007 0.14146,-0.156203 0.31836,-0.289725 0.5302,-0.342615 0.2266,-0.05632 0.47132,-0.01656 0.709,0.0041 0.41739,0.03664 0.84965,0.0092 1.20665,-0.176734 0.13318,-0.06938 0.25434,-0.159977 0.35605,-0.267165 l 5.1e-4,-0.001 c 0.0467,-0.139052 0.0709,-0.286094 0.0698,-0.435115 -0.003,-0.401193 -0.1814,-0.794901 -0.4098,-1.144633 -0.13026,-0.199427 -0.2808,-0.3957 -0.33693,-0.621151 -0.0528,-0.210812 -0.0181,-0.428935 0.0537,-0.626319 0.12384,-0.339926 0.35109,-0.629182 0.55862,-0.925007 0.11834,-0.168733 0.23163,-0.341953 0.31884,-0.528651 0.10299,-0.220607 0.16872,-0.471099 0.10749,-0.715201 -0.0315,-0.125473 -0.0951,-0.243707 -0.17622,-0.349332 -0.081,-0.1056 -0.17919,-0.198987 -0.28267,-0.284739 -0.33489,-0.277587 -0.74513,-0.483216 -1.17357,-0.522449 -0.27313,-0.02499 -0.54315,0.01727 -0.80977,0.0584 -0.26661,0.04112 -0.53738,0.08138 -0.81029,0.05168 -0.31733,-0.03453 -0.63347,-0.169169 -0.86144,-0.39584 -0.14407,-0.143243 -0.2533,-0.32661 -0.26923,-0.519867 -0.01,-0.117689 0.0157,-0.234921 0.062,-0.341064 0.0462,-0.105883 0.11342,-0.201281 0.18913,-0.288872 0.20586,-0.238328 0.48009,-0.427003 0.62064,-0.707966 0.0751,-0.150149 0.10785,-0.320824 0.0977,-0.491959 -0.0102,-0.17109 -0.0624,-0.342111 -0.14779,-0.497128 -0.13055,-0.23708 -0.33653,-0.434433 -0.56948,-0.583427 -0.23296,-0.148964 -0.49302,-0.251823 -0.75706,-0.330211 -0.72745,-0.21558 -1.51608,-0.246383 -2.20141,0.0015 -0.38687,0.139933 -0.73106,0.36326 -1.10846,0.522965 -0.18876,0.07987 -0.38673,0.144169 -0.59376,0.171048 -0.20725,0.02721 -0.42464,0.01627 -0.62839,-0.05013 -0.10195,-0.03325 -0.20145,-0.0806 -0.28525,-0.147794 -0.0838,-0.06713 -0.15178,-0.155234 -0.185,-0.253733 -0.0368,-0.109619 -0.0287,-0.226769 0.001,-0.334346 0.0297,-0.107558 0.0799,-0.207076 0.12764,-0.307475 0.23645,-0.497128 0.41834,-1.048639 0.32143,-1.606621 -0.0562,-0.323816 -0.2103,-0.635243 -0.43253,-0.894001 0.0103,0.0048 0.0201,0.01029 0.0305,0.01499 0.2708,0.122566 0.56983,0.200036 0.86506,0.173117 0.23709,-0.02162 0.46428,-0.11036 0.65577,-0.243398 0.1528,-0.106135 0.28666,-0.241625 0.45941,-0.315224 0.14438,-0.06159 0.30556,-0.07536 0.4625,-0.09819 0.10908,-0.01582 0.21749,-0.03598 0.32453,-0.06098 -0.0187,-0.105034 -0.0426,-0.209436 -0.0708,-0.312642 -0.0405,-0.148455 -0.0912,-0.297424 -0.0899,-0.450101 0.001,-0.182595 0.0771,-0.355029 0.1173,-0.532784 0.0504,-0.222633 0.0445,-0.45983 -0.0289,-0.679029 -0.0914,-0.272955 -0.28335,-0.508236 -0.50694,-0.700215 -0.22341,-0.19205 -0.47956,-0.344664 -0.73277,-0.498678 -0.45224,-0.275164 -0.89844,-0.559785 -1.34204,-0.848008 0.10355,-0.07489 0.21178,-0.143717 0.32453,-0.205156 -0.0368,-0.02439 -0.0734,-0.04781 -0.11111,-0.0708 -0.13545,-0.08278 -0.27718,-0.155752 -0.42219,-0.221692 0.0458,0.01168 0.091,0.02517 0.13694,0.03566 0.23893,0.05456 0.48294,0.0969 0.73225,0.0956 0.24924,-0.0012 0.50535,-0.04716 0.73381,-0.160714 0.21341,-0.106063 0.39859,-0.269385 0.53382,-0.463021 0.13521,-0.193635 0.22048,-0.416575 0.25373,-0.642855 0.0258,-0.175011 0.0211,-0.35071 0.0253,-0.526066 0.004,-0.175302 0.0184,-0.353898 0.0806,-0.522449 0.0321,-0.08689 0.077,-0.171129 0.14056,-0.241329 0.0635,-0.07019 0.14631,-0.125677 0.23771,-0.148828 0.0809,-0.02039 0.16535,-0.01459 0.2434,0.0057 0.078,0.02023 0.15045,0.05452 0.22066,0.09147 0.54675,0.287349 0.97733,0.73582 1.49086,1.072804 0.31283,0.205248 0.65966,0.369647 1.03457,0.449583 0.37483,0.08001 0.77962,0.07245 1.15548,-0.05478 0.35858,-0.121425 0.68375,-0.351385 0.91623,-0.649055 0.2144,-0.274902 0.34925,-0.605642 0.38085,-0.939477 0.0515,-0.544031 -0.16468,-1.060815 -0.42943,-1.521354 -0.0535,-0.09301 -0.10913,-0.185039 -0.14573,-0.286287 -0.0366,-0.101264 -0.0537,-0.213209 -0.0264,-0.321429 0.0246,-0.09725 0.084,-0.187026 0.15968,-0.257866 0.0756,-0.07092 0.16739,-0.123677 0.26303,-0.163295 0.19114,-0.07912 0.39949,-0.106183 0.601,-0.0956 0.20128,0.01036 0.39682,0.05719 0.58446,0.119888 0.37518,0.125394 0.72306,0.314986 1.10587,0.420647 0.67816,0.187193 1.43524,0.09866 2.11925,-0.163298 0.24826,-0.09517 0.49024,-0.213913 0.70332,-0.374655 0.21306,-0.160766 0.39697,-0.365736 0.50488,-0.603581 0.0706,-0.155514 0.1075,-0.324022 0.1049,-0.489376 -0.003,-0.165393 -0.0473,-0.327308 -0.13074,-0.466119 -0.15628,-0.259773 -0.43465,-0.420719 -0.65061,-0.634587 -0.0794,-0.0786 -0.15068,-0.16515 -0.20309,-0.263551 -0.0525,-0.09865 -0.0858,-0.209553 -0.0853,-0.323493 8.6e-4,-0.187106 0.0922,-0.372317 0.22014,-0.520899 0.20245,-0.235122 0.49658,-0.387964 0.79943,-0.444934 0.26044,-0.04899 0.52374,-0.03048 0.78342,-0.01085 0.25968,0.01956 0.52292,0.03986 0.78393,-0.0047 0.40942,-0.0698 0.78933,-0.298032 1.09089,-0.590145 0.0932,-0.09023 0.18002,-0.187421 0.25011,-0.295072 0.0701,-0.10768 0.1233,-0.226271 0.14418,-0.349332 0.0407,-0.239411 -0.042,-0.475562 -0.15761,-0.680061 -0.0979,-0.173082 -0.2197,-0.330745 -0.34623,-0.484209 -0.22187,-0.269054 -0.46207,-0.530785 -0.60669,-0.848526 -0.0839,-0.184507 -0.1337,-0.39166 -0.0987,-0.598414 0.0372,-0.221085 0.16706,-0.421102 0.27751,-0.622702 0.19366,-0.353539 0.33641,-0.746077 0.30902,-1.132231 -0.0101,-0.143219 -0.044,-0.282792 -0.0992,-0.412893 l -5.2e-4,-5.19e-4 -5.1e-4,-5.16e-4 c -0.1059,-0.0955 -0.22939,-0.173706 -0.36277,-0.230475 -0.3575,-0.15217 -0.77562,-0.146072 -1.17461,-0.07958 -0.2272,0.0377 -0.45981,0.09452 -0.68212,0.05736 -0.20785,-0.03502 -0.38753,-0.150744 -0.53537,-0.29042 -0.25422,-0.240157 -0.42348,-0.550656 -0.60617,-0.847495 -0.10421,-0.169277 -0.21455,-0.336465 -0.34675,-0.48524 -0.15611,-0.175641 -0.35377,-0.329875 -0.59427,-0.370004 -0.0618,-0.0104 -0.12511,-0.01268 -0.18862,-0.0088 -0.0635,0.0039 -0.12711,0.01411 -0.18966,0.02945 -0.12508,0.0307 -0.24558,0.08092 -0.36173,0.139012 -0.37593,0.188079 -0.71747,0.470694 -0.91777,0.833022 -0.12769,0.230984 -0.19403,0.485143 -0.26045,0.735873 -0.0665,0.250714 -0.13485,0.504841 -0.26665,0.733806 -0.15322,0.266253 -0.39578,0.493263 -0.68523,0.606681 -0.18286,0.07162 -0.38802,0.0961 -0.56586,0.03566 -0.10854,-0.0371 -0.20282,-0.103473 -0.27905,-0.185002 -0.0762,-0.08153 -0.13482,-0.17762 -0.18345,-0.278018 -0.13226,-0.273199 -0.19379,-0.588024 -0.38913,-0.820106 -0.10446,-0.124039 -0.24406,-0.218405 -0.39997,-0.275436 -0.15598,-0.05698 -0.32799,-0.07646 -0.49868,-0.06098 -0.26104,0.02367 -0.51563,0.128641 -0.73794,0.276469 -0.22228,0.147867 -0.41395,0.337015 -0.5855,0.539504 -0.47268,0.557548 -0.80464,1.240652 -0.84904,1.939933 -0.0251,0.394758 0.04,0.784193 0.0362,1.178221 -0.002,0.197019 -0.0217,0.396041 -0.0775,0.589111 -0.0559,0.193018 -0.14904,0.380391 -0.2868,0.534336 -0.0691,0.07668 -0.14882,0.145786 -0.24082,0.193786 -0.092,0.04806 -0.19676,0.07433 -0.29714,0.06563 -0.11165,-0.0097 -0.21253,-0.06159 -0.29662,-0.129191 -0.0841,-0.06761 -0.15298,-0.15076 -0.22376,-0.231511 -0.35035,-0.399867 -0.77013,-0.772625 -1.30328,-0.902268 -0.32703,-0.07928 -0.68436,-0.06083 -1.01544,0.05116 -0.35867,0.121299 -0.6841,0.351976 -0.91674,0.649571 -0.24385,0.311883 -0.38308,0.690809 -0.42995,1.069702 -0.0468,0.378908 -0.004,0.758309 0.0884,1.119831 0.15145,0.593757 0.43582,1.146098 0.52968,1.754412 0.0122,0.07819 0.0213,0.157644 0.015,0.237712 -0.006,0.08007 -0.0286,0.161047 -0.0744,0.230479 -0.0518,0.07842 -0.13221,0.137874 -0.21963,0.174665 -0.0875,0.03686 -0.18195,0.05185 -0.27492,0.05374 -0.18034,0.0035 -0.35413,-0.04166 -0.52193,-0.09509 -0.16769,-0.05343 -0.33296,-0.115719 -0.50746,-0.148829 -0.22562,-0.04281 -0.46547,-0.03487 -0.6935,0.02894 -0.22805,0.06378 -0.44343,0.183747 -0.61392,0.349848 -0.18248,0.177712 -0.30997,0.403013 -0.39274,0.637172 -0.0828,0.23409 -0.1228,0.478216 -0.14934,0.720883 -0.0469,0.428795 -0.0504,0.871699 0.1111,1.259356 0.0836,0.200679 0.21106,0.382368 0.37569,0.525034 0.19124,0.165669 0.43345,0.274005 0.69143,0.316775 l -8.92297,5.686991 c -0.62502,0.09654 -1.23838,0.115517 -1.68672,-0.04237 -0.6672,-0.234971 -1.1072,-0.900459 -1.46089,-1.53789 l 0.76584,-1.208712 c 0.0454,0.203613 0.14326,0.391893 0.28474,0.5364 0.12161,0.124283 0.27255,0.216794 0.43719,0.273886 0.31791,0.11022 0.67337,0.08687 1.01544,0.02945 0.19352,-0.03244 0.38728,-0.07507 0.57154,-0.151927 0.18423,-0.07677 0.35934,-0.189042 0.49402,-0.342617 0.12583,-0.143441 0.21343,-0.320487 0.25477,-0.504878 0.0414,-0.184396 0.0369,-0.375459 -0.007,-0.552936 -0.0341,-0.137295 -0.0909,-0.265917 -0.14107,-0.396875 -0.0501,-0.130961 -0.094,-0.267227 -0.0992,-0.410829 -0.003,-0.07405 0.005,-0.149905 0.031,-0.221176 0.0257,-0.07124 0.0701,-0.137446 0.13075,-0.182417 0.0537,-0.03967 0.11844,-0.06096 0.18242,-0.06976 0.0639,-0.009 0.12743,-0.0058 0.19068,0 0.49224,0.04599 0.94768,0.246706 1.4304,0.339513 0.29405,0.05651 0.60084,0.07262 0.90279,0.01757 0.30192,-0.055 0.59952,-0.184165 0.83923,-0.392742 0.22866,-0.199022 0.39937,-0.468162 0.4811,-0.759126 0.0753,-0.268619 0.075,-0.554276 -0.003,-0.810803 -0.12715,-0.418055 -0.44428,-0.734279 -0.78031,-0.994254 -0.0679,-0.0525 -0.13746,-0.103185 -0.19534,-0.166915 -0.0579,-0.06374 -0.10412,-0.14215 -0.11679,-0.230476 -0.0113,-0.07941 0.005,-0.163287 0.0398,-0.238746 0.0345,-0.07548 0.0864,-0.143108 0.14522,-0.201539 0.11751,-0.116742 0.26351,-0.199734 0.41599,-0.253214 0.15222,-0.05363 0.31119,-0.07863 0.46922,-0.0894 0.31597,-0.02155 0.63109,0.0126 0.94672,-0.02584 0.55912,-0.0681 1.09282,-0.364279 1.5198,-0.766361 0.15494,-0.146002 0.29825,-0.30766 0.40721,-0.491442 0.10891,-0.183798 0.18257,-0.391189 0.19017,-0.599964 0.005,-0.136525 -0.0183,-0.27242 -0.0708,-0.393774 -0.0525,-0.121415 -0.13423,-0.228169 -0.23823,-0.305408 -0.19468,-0.144521 -0.44998,-0.178385 -0.67489,-0.270786 -0.0827,-0.03393 -0.16176,-0.076 -0.23048,-0.132807 -0.0688,-0.05698 -0.12693,-0.129024 -0.16123,-0.213424 -0.0561,-0.138644 -0.045,-0.303307 0.005,-0.452167 0.0785,-0.235562 0.24985,-0.438203 0.45682,-0.572577 0.17801,-0.115533 0.37894,-0.182422 0.57723,-0.247013 0.19826,-0.06464 0.39899,-0.129434 0.57877,-0.241845 0.28201,-0.176328 0.49381,-0.46106 0.62839,-0.768945 0.0416,-0.09512 0.077,-0.193582 0.0961,-0.294555 0.0192,-0.101002 0.0219,-0.204928 0,-0.302308 -0.0426,-0.189452 -0.17518,-0.338722 -0.32298,-0.454752 -0.1251,-0.09819 -0.26327,-0.177729 -0.40359,-0.252699 -0.24608,-0.13141 -0.50328,-0.251917 -0.70694,-0.442867 -0.11824,-0.110887 -0.21838,-0.248804 -0.25528,-0.412377 -0.0398,-0.174847 -0.004,-0.362453 0.0165,-0.545187 0.036,-0.320464 0.0224,-0.65395 -0.11524,-0.931209 -0.0511,-0.103003 -0.11887,-0.195956 -0.19947,-0.275437 l -0.001,-5.16e-4 c -0.10746,-0.03835 -0.22244,-0.05864 -0.33848,-0.05994 -0.31101,-0.0036 -0.61872,0.127985 -0.894,0.298691 -0.15681,0.09707 -0.31189,0.209912 -0.48782,0.250113 -0.16457,0.03738 -0.33279,0.0071 -0.48473,-0.05116 -0.26125,-0.100187 -0.48144,-0.278455 -0.70693,-0.442351 -0.12862,-0.09346 -0.26048,-0.183444 -0.40359,-0.253214 -0.169,-0.08234 -0.36262,-0.136081 -0.55294,-0.0925 -0.0978,0.02241 -0.19057,0.06945 -0.27389,0.130225 -0.0833,0.0608 -0.15744,0.135072 -0.22582,0.213423 -0.22127,0.253606 -0.38818,0.566045 -0.42633,0.895036 -0.0244,0.209727 0.004,0.418068 0.031,0.623736 0.0269,0.205674 0.0533,0.414245 0.0253,0.623734 -0.0326,0.243586 -0.1431,0.485262 -0.32298,0.657323 -0.11366,0.108654 -0.25815,0.189558 -0.40824,0.198954 -0.0917,0.0056 -0.18181,-0.01459 -0.26303,-0.05168 -0.0813,-0.03707 -0.15413,-0.09039 -0.22066,-0.14986 -0.18096,-0.161769 -0.32173,-0.375674 -0.53692,-0.487826 -0.11506,-0.05992 -0.24754,-0.08747 -0.38034,-0.08217 -0.13283,0.0054 -0.26585,0.04301 -0.38757,0.106452 -0.18613,0.09701 -0.34278,0.252389 -0.4625,0.429432 -0.11968,0.177065 -0.20423,0.375738 -0.26976,0.577742 -0.18063,0.556337 -0.21888,1.16273 -0.0393,1.693436 0.10136,0.299612 0.26807,0.567323 0.38499,0.859896 0.0585,0.14628 0.10414,0.299599 0.12144,0.459404 0.0173,0.159785 0.006,0.326848 -0.0496,0.482658 -0.0279,0.07778 -0.0663,0.153522 -0.11989,0.217041 -0.0536,0.06358 -0.123,0.114414 -0.19999,0.138493 -0.0856,0.02671 -0.17607,0.01925 -0.25889,-0.0052 -0.0828,-0.02439 -0.1592,-0.06467 -0.23617,-0.102836 -0.38097,-0.189029 -0.80495,-0.336767 -1.2392,-0.270269 -0.26629,0.04098 -0.52575,0.163603 -0.7369,0.347266 -0.22877,0.198956 -0.39925,0.468688 -0.48111,0.759645 -0.0859,0.304938 -0.0737,0.627406 0.007,0.921906 0.0805,0.294476 0.22689,0.562253 0.40514,0.801502 0.29261,0.393018 0.67115,0.714532 0.92553,1.135849 0.0327,0.05413 0.0635,0.109908 0.0832,0.171048 0.0197,0.06115 0.0278,0.127971 0.015,0.19327 -0.0145,0.07377 -0.0555,0.142531 -0.10904,0.196371 -0.0536,0.0539 -0.11926,0.09389 -0.18758,0.123507 -0.13251,0.05749 -0.27497,0.07678 -0.41548,0.08837 -0.14043,0.01156 -0.28185,0.01578 -0.42116,0.04444 -0.1801,0.03706 -0.35488,0.115911 -0.50437,0.232542 -0.0683,0.05325 -0.13025,0.115576 -0.18551,0.182936 -0.11851,-0.698106 -0.205,-1.40171 -0.26717,-2.098064 -0.098,-1.097452 -0.0417,-2.230477 0.23513,-3.296954 0.40809,-1.572186 1.22927,-3.020484 2.06085,-4.415753 0.29476,-0.494554 0.75659,-1.139584 1.21595,-1.75028 l 5.37383,-4.029212 c 0.57654,-0.01548 1.39516,0.01951 1.58337,-0.0041 0.25662,-0.03224 0.51882,-0.02244 0.77204,0.02997 0.0185,0.0037 0.0364,0.0091 0.0548,0.01344 -0.0274,0.05606 -0.0572,0.111366 -0.0817,0.168466 h 5.2e-4 c -0.16028,0.374414 -0.2859,0.785032 -0.26045,1.192691 0.0163,0.260406 0.13436,0.512472 0.26045,0.745175 0.12669,0.233866 0.30429,0.442003 0.48886,0.63717 0.27157,0.287102 0.56949,0.555302 0.90123,0.776698 0.0442,0.02939 0.0891,0.05788 0.13436,0.08578 0.0163,-0.150744 0.0425,-0.300337 0.0785,-0.447519 0.5396,0.33872 1.07565,0.682196 1.60456,1.036629 0.29603,0.19843 0.5925,0.399931 0.91777,0.548289 0.32527,0.148341 0.6846,0.242395 1.03921,0.209804 0.28477,-0.02617 0.55755,-0.133536 0.78755,-0.294556 0.18353,-0.128466 0.3439,-0.292809 0.55139,-0.381889 0.17342,-0.07455 0.36702,-0.09123 0.55552,-0.118856 0.13102,-0.01915 0.2616,-0.04363 0.39015,-0.0739 -0.0224,-0.127138 -0.0509,-0.253876 -0.0847,-0.378788 -0.0487,-0.17969 -0.10961,-0.359873 -0.10801,-0.544672 0.002,-0.221006 0.0923,-0.429257 0.14056,-0.644403 0.0605,-0.26947 0.0531,-0.556858 -0.0351,-0.822174 -0.10984,-0.330375 -0.34018,-0.615127 -0.60874,-0.847492 -0.26834,-0.232453 -0.57591,-0.417169 -0.88006,-0.603581 -0.54317,-0.333052 -1.07897,-0.677431 -1.61178,-1.026295 0.12438,-0.09065 0.25473,-0.173686 0.39015,-0.248047 -0.0441,-0.02953 -0.0886,-0.05795 -0.13384,-0.08578 -0.33989,-0.209309 -0.71082,-0.370329 -1.08882,-0.499711 -0.25696,-0.08796 -0.52282,-0.164261 -0.79323,-0.185002 -0.26911,-0.02031 -0.55296,-0.02642 -0.80461,0.06201 -0.39406,0.138809 -0.73151,0.41406 -1.02061,0.705901 -0.0905,0.09134 -0.17564,0.188124 -0.25683,0.288353 -0.0939,-0.03136 -0.18877,-0.05949 -0.28525,-0.08113 -0.41474,-0.09301 -0.85597,-0.101873 -1.25884,0.03307 -0.0681,0.02282 -0.21704,0.03892 -0.40359,0.05374 l 3.9951,-2.995684 c -0.0465,0.255749 -0.0255,0.518912 0.0667,0.753444 0.0792,0.201668 0.2079,0.381677 0.36896,0.527097 0.31105,0.280803 0.72938,0.426474 1.14929,0.526585 0.23753,0.0567 0.48021,0.101536 0.72864,0.102835 0.24836,0.0013 0.50402,-0.04257 0.73277,-0.153479 0.21367,-0.103582 0.39976,-0.264179 0.5364,-0.455785 0.13663,-0.191611 0.22407,-0.41307 0.25942,-0.638204 0.0274,-0.174133 0.0241,-0.349319 0.03,-0.523999 0.006,-0.174628 0.0221,-0.352534 0.0858,-0.519867 0.0328,-0.08626 0.0781,-0.169434 0.14211,-0.238744 0.064,-0.06931 0.14693,-0.123558 0.23823,-0.145727 0.0808,-0.01947 0.16531,-0.01321 0.24288,0.0078 0.0775,0.02091 0.149,0.05552 0.21859,0.09302 0.54196,0.291677 0.96698,0.74285 1.47536,1.083654 0.30969,0.207582 0.65352,0.375021 1.0263,0.45837 0.3727,0.0834 0.7761,0.08018 1.15186,-0.04289 0.35849,-0.117467 0.68476,-0.343892 0.91933,-0.638204 0.21634,-0.271799 0.35384,-0.599922 0.3886,-0.932241 0.0567,-0.54156 -0.1536,-1.058325 -0.41289,-1.519804 -0.0524,-0.0932 -0.10715,-0.18556 -0.14263,-0.286805 -0.0355,-0.101259 -0.051,-0.213352 -0.0227,-0.320911 0.0255,-0.09665 0.0851,-0.18543 0.16122,-0.25528 0.0761,-0.06992 0.16839,-0.121658 0.26407,-0.160198 0.19124,-0.07695 0.39929,-0.101483 0.59997,-0.08888 0.20046,0.0123 0.39448,0.06074 0.58084,0.125058 0.37261,0.128619 0.7172,0.320908 1.09761,0.429948 0.67388,0.193172 1.42891,0.112183 2.11304,-0.14211 0.24831,-0.09239 0.49149,-0.20832 0.70539,-0.366387 0.21387,-0.158094 0.39863,-0.360424 0.50849,-0.596345 0.0719,-0.154265 0.11086,-0.322011 0.10956,-0.486793 -0.001,-0.164828 -0.0438,-0.326462 -0.12558,-0.465603 -0.15317,-0.260366 -0.42925,-0.422993 -0.64233,-0.638205 -0.0784,-0.07909 -0.14873,-0.166542 -0.19999,-0.265101 -0.0513,-0.09881 -0.0832,-0.20945 -0.0816,-0.322977 0.003,-0.186418 0.0953,-0.369975 0.22428,-0.516763 0.20403,-0.232289 0.49866,-0.381339 0.80098,-0.435116 0.25999,-0.04625 0.52227,-0.02571 0.78083,-0.0036 0.25857,0.02204 0.52083,0.04539 0.78135,0.0036 0.40864,-0.06553 0.78909,-0.290168 1.09244,-0.57826 0.0937,-0.08899 0.18182,-0.184364 0.2527,-0.290938 0.071,-0.106603 0.12472,-0.224335 0.14676,-0.34675 0.0429,-0.238143 -0.0371,-0.474115 -0.15038,-0.679026 -0.0959,-0.173414 -0.21547,-0.332137 -0.34003,-0.486276 -0.21844,-0.270261 -0.45537,-0.533101 -0.59635,-0.851111 -0.0818,-0.184664 -0.12941,-0.391718 -0.0925,-0.597379 0.0392,-0.219924 0.17063,-0.417748 0.28267,-0.617535 0.19644,-0.350359 0.34283,-0.739968 0.31936,-1.124995 -0.009,-0.142854 -0.0418,-0.282162 -0.0956,-0.41238 l -5.2e-4,-0.0015 c -0.10458,-0.0962 -0.22681,-0.174665 -0.35915,-0.232545 -0.35473,-0.15512 -0.77175,-0.153797 -1.16995,-0.09147 -0.22676,0.03535 -0.45892,0.08987 -0.68006,0.05064 -0.20676,-0.03693 -0.38479,-0.153929 -0.53072,-0.294555 -0.25096,-0.241781 -0.41672,-0.553037 -0.59583,-0.850593 -0.10217,-0.16969 -0.21029,-0.337259 -0.34055,-0.486794 -0.15383,-0.176535 -0.34935,-0.331787 -0.58859,-0.374136 -0.0615,-0.01087 -0.12427,-0.01415 -0.18759,-0.01085 -0.0633,0.0033 -0.12717,0.01273 -0.18965,0.02739 -0.12494,0.02936 -0.24543,0.07864 -0.36174,0.135393 -0.37643,0.183711 -0.71928,0.461568 -0.92242,0.820621 -0.1295,0.228896 -0.19802,0.481531 -0.26665,0.730705 -0.0687,0.249155 -0.13979,0.501795 -0.27337,0.728639 -0.15529,0.263784 -0.39883,0.487174 -0.68833,0.597378 -0.18291,0.06956 -0.38769,0.09248 -0.56431,0.03049 -0.10779,-0.03803 -0.2008,-0.105595 -0.27595,-0.187584 -0.0752,-0.08198 -0.13288,-0.178017 -0.18035,-0.278535 -0.12909,-0.273505 -0.18694,-0.587978 -0.3793,-0.821139 -0.10287,-0.124614 -0.24157,-0.220187 -0.39636,-0.278538 -0.15486,-0.05833 -0.32585,-0.07936 -0.4961,-0.06563 -0.26032,0.02102 -0.51498,0.123089 -0.73793,0.2682 -0.22294,0.145151 -0.41568,0.332195 -0.5886,0.532268 -0.47647,0.550897 -0.814,1.228606 -0.86506,1.924947 -0.0289,0.393083 0.032,0.781007 0.0243,1.173572 -0.004,0.196289 -0.0251,0.394703 -0.0827,0.586526 -0.0576,0.19177 -0.15216,0.37765 -0.29094,0.529685 -0.0696,0.07573 -0.15022,0.143764 -0.24236,0.190685 -0.0922,0.047 -0.19617,0.07223 -0.2961,0.06253 -0.11116,-0.01082 -0.21143,-0.06359 -0.29456,-0.131775 -0.0831,-0.06819 -0.15093,-0.151384 -0.22066,-0.232545 -0.34517,-0.40186 -0.75988,-0.777674 -1.28984,-0.912088 -0.32509,-0.0822 -0.68135,-0.06699 -1.01234,0.04134 -0.35858,0.117338 -0.68512,0.343969 -0.91984,0.638204 -0.24604,0.308362 -0.38832,0.683853 -0.43873,1.060916 -0.0503,0.377079 -0.012,0.756126 0.0765,1.117245 0.14508,0.593114 0.42351,1.145826 0.51108,1.752865 0.0113,0.07802 0.0195,0.156969 0.0124,0.236678 -0.007,0.07972 -0.0301,0.160713 -0.0765,0.229444 -0.0524,0.07762 -0.13268,0.136271 -0.22015,0.172082 -0.0875,0.03588 -0.18224,0.04985 -0.27491,0.05064 -0.17973,0.0017 -0.35217,-0.04485 -0.51884,-0.09974 -0.16656,-0.05489 -0.3308,-0.118759 -0.50436,-0.15348 -0.22439,-0.04487 -0.46307,-0.03912 -0.69091,0.02222 -0.22786,0.06132 -0.44396,0.178786 -0.61547,0.342614 -0.18358,0.175276 -0.31261,0.398473 -0.39739,0.63097 -0.0848,0.232434 -0.12723,0.475208 -0.15606,0.716751 -0.0509,0.426781 -0.0589,0.8679 0.0982,1.255736 0.0813,0.200777 0.20634,0.383337 0.36897,0.527101 0.18893,0.166946 0.42911,0.277312 0.68575,0.322461 l -9.86245,7.394381 c -0.60029,0.146868 -1.23368,0.258919 -1.69808,0.226859 -0.20724,-0.01431 -0.41749,-0.05055 -0.62219,-0.107487 l 1.26349,-2.784326 c 0.0826,0.219527 0.22103,0.413744 0.40152,0.552421 0.15516,0.119282 0.33863,0.198411 0.53124,0.236161 0.37194,0.07287 0.76429,-0.0086 1.13688,-0.12609 0.21079,-0.06643 0.42042,-0.144473 0.61392,-0.2589 0.19348,-0.114318 0.37148,-0.266327 0.49764,-0.458369 0.11787,-0.179377 0.18744,-0.390829 0.20464,-0.602546 0.0172,-0.211717 -0.0175,-0.423289 -0.0946,-0.613918 -0.0595,-0.147482 -0.14307,-0.281197 -0.21962,-0.419095 -0.0764,-0.137917 -0.14692,-0.283329 -0.17519,-0.442349 -0.0146,-0.08201 -0.0175,-0.167799 0,-0.251148 0.0175,-0.08334 0.0562,-0.163684 0.11679,-0.223242 0.0537,-0.05258 0.12277,-0.08666 0.19275,-0.106455 0.0699,-0.01986 0.14145,-0.02606 0.21291,-0.02946 0.55632,-0.02595 1.09594,0.12582 1.649,0.153479 0.33689,0.01683 0.68103,-0.01338 1.00924,-0.121954 0.32817,-0.108524 0.64019,-0.298722 0.87488,-0.568441 0.22386,-0.257358 0.37253,-0.58369 0.41806,-0.920359 0.0418,-0.310782 -0.004,-0.628454 -0.13126,-0.901753 -0.20741,-0.445402 -0.61067,-0.747723 -1.02629,-0.984435 -0.0839,-0.04781 -0.16934,-0.09369 -0.24391,-0.155548 -0.0746,-0.06186 -0.13841,-0.141878 -0.1664,-0.238229 -0.025,-0.08661 -0.0199,-0.182943 0.007,-0.272333 0.0266,-0.08942 0.0738,-0.172246 0.13022,-0.246496 0.11279,-0.148357 0.26309,-0.263837 0.42478,-0.347266 0.1614,-0.08357 0.33494,-0.136355 0.50953,-0.173116 0.3491,-0.07348 0.70556,-0.085 1.05162,-0.17725 0.61304,-0.163423 1.16184,-0.57644 1.57509,-1.09089 0.14995,-0.186791 0.28503,-0.389179 0.37776,-0.610815 0.0927,-0.221649 0.14203,-0.46405 0.11782,-0.697632 -0.0158,-0.152752 -0.0629,-0.300516 -0.14056,-0.427366 -0.0776,-0.126918 -0.18555,-0.232627 -0.31368,-0.302305 -0.23984,-0.130354 -0.52989,-0.128243 -0.7953,-0.195855 -0.0976,-0.02481 -0.19296,-0.05968 -0.27853,-0.112138 -0.0857,-0.05263 -0.16192,-0.123301 -0.21342,-0.211873 -0.0845,-0.14551 -0.0976,-0.330377 -0.0656,-0.503844 0.0506,-0.274494 0.21031,-0.526999 0.42012,-0.709001 0.18046,-0.15649 0.39356,-0.26239 0.60462,-0.365352 0.21103,-0.103019 0.42531,-0.206894 0.60823,-0.360186 0.28694,-0.240456 0.4785,-0.590674 0.58033,-0.954463 0.0315,-0.112387 0.0555,-0.227229 0.061,-0.342614 0.006,-0.115435 -0.007,-0.231452 -0.047,-0.336415 -0.0773,-0.204192 -0.24842,-0.349798 -0.4315,-0.455785 -0.15495,-0.08969 -0.3221,-0.156625 -0.49041,-0.218074 -0.29511,-0.107712 -0.6012,-0.201264 -0.85834,-0.381889 -0.14929,-0.1049 -0.282,-0.242809 -0.34882,-0.419098 -0.0718,-0.188386 -0.0615,-0.402643 -0.0672,-0.609264 -0.0101,-0.362336 -0.0779,-0.731496 -0.27492,-1.018542 -0.0731,-0.106537 -0.16284,-0.199647 -0.2651,-0.275437 l -0.002,-5.16e-4 c -0.0629,-0.01293 -0.12695,-0.02064 -0.19172,-0.02274 -0.0648,-0.0022 -0.12999,10e-4 -0.19482,0.0093 -0.34751,0.04467 -0.67053,0.239699 -0.95084,0.472839 -0.1597,0.132636 -0.31492,0.282181 -0.50488,0.354499 -0.17772,0.06743 -0.37069,0.06018 -0.54932,0.01912 -0.30715,-0.07057 -0.58006,-0.234799 -0.85731,-0.381889 -0.15813,-0.08387 -0.31983,-0.163362 -0.49041,-0.218591 -0.20144,-0.06518 -0.4255,-0.09486 -0.63097,-0.01654 -0.10562,0.04027 -0.20184,0.107907 -0.28526,0.188618 -0.0834,0.08073 -0.15409,0.174427 -0.21807,0.272333 -0.20706,0.316953 -0.34438,0.691328 -0.33538,1.063504 0.006,0.23726 0.0694,0.464161 0.13177,0.688845 0.0623,0.224732 0.1245,0.45335 0.12609,0.690914 0.002,0.276233 -0.0832,0.562677 -0.25683,0.782381 -0.10976,0.138756 -0.25832,0.251204 -0.42426,0.285255 -0.10137,0.02062 -0.20485,0.01201 -0.30128,-0.01654 -0.0964,-0.02854 -0.18621,-0.07653 -0.26975,-0.132292 -0.22724,-0.151704 -0.41777,-0.367778 -0.67541,-0.458888 -0.13774,-0.04864 -0.28987,-0.05824 -0.43718,-0.03152 -0.14734,0.02679 -0.29016,0.08964 -0.41599,0.179319 -0.19242,0.137136 -0.34277,0.334533 -0.44855,0.550351 -0.10575,0.21584 -0.16892,0.450118 -0.21033,0.685232 -0.11426,0.647543 -0.0614,1.328266 0.22221,1.890839 0.16005,0.317603 0.38799,0.589764 0.56431,0.897104 0.0882,0.153652 0.16286,0.317312 0.20722,0.492474 0.0443,0.175147 0.0573,0.362583 0.0202,0.544672 -0.0189,0.09094 -0.0495,0.181358 -0.0992,0.260448 -0.0498,0.07917 -0.11944,0.14664 -0.20154,0.18552 -0.0914,0.04312 -0.19369,0.0488 -0.28991,0.03462 -0.0962,-0.01417 -0.18721,-0.04709 -0.27905,-0.07751 -0.45465,-0.150697 -0.95125,-0.248524 -1.42524,-0.106456 -0.29063,0.08735 -0.56012,0.264258 -0.76688,0.50178 -0.22399,0.257297 -0.37237,0.584192 -0.41806,0.920874 -0.0479,0.352851 0.016,0.710063 0.15193,1.025261 0.136,0.31514 0.34189,0.590521 0.57826,0.828889 0.38806,0.391605 0.86042,0.690216 1.21026,1.119312 0.045,0.05513 0.0884,0.112279 0.11989,0.17725 0.0315,0.06498 0.0511,0.138205 0.047,0.212907 -0.005,0.08439 -0.0396,0.167323 -0.0909,0.235643 -0.0513,0.06839 -0.1186,0.122719 -0.19017,0.166399 -0.1388,0.08474 -0.29415,0.128903 -0.44907,0.163815 -0.15484,0.03487 -0.31212,0.06203 -0.46302,0.115755 -0.1951,0.06947 -0.37812,0.184184 -0.52658,0.337447 -0.14849,0.153252 -0.26172,0.344974 -0.31885,0.551386 -0.0612,0.22088 -0.0576,0.453549 -0.0155,0.672828 0.042,0.219252 0.12161,0.426532 0.21135,0.626835 0.15861,0.353906 0.35784,0.698859 0.65991,0.926041 0.15637,0.11761 0.33818,0.200949 0.53124,0.236678 0.22423,0.04146 0.46185,0.01498 0.68213,-0.06925 l -1.23611,2.724383 c -1.13093,-0.927849 -1.78959,-2.354651 -2.38538,-3.692282 -0.006,-0.01337 -0.0116,-0.03005 -0.0176,-0.04392 V 49.02986 c 0.17913,0.182245 0.40165,0.314245 0.64079,0.372589 0.20591,0.0502 0.42202,0.04799 0.62838,0 0.39865,-0.09269 0.74841,-0.34929 1.06247,-0.632521 0.17774,-0.160311 0.34857,-0.332293 0.48783,-0.532784 0.13933,-0.200488 0.24684,-0.431485 0.28525,-0.679545 0.0359,-0.231796 0.01,-0.473157 -0.0677,-0.692465 -0.0777,-0.219305 -0.20647,-0.416295 -0.36742,-0.572574 -0.1245,-0.12087 -0.26682,-0.217651 -0.4036,-0.321426 -0.13684,-0.10386 -0.27075,-0.217297 -0.36948,-0.363802 -0.0509,-0.07551 -0.0922,-0.159944 -0.11214,-0.251148 -0.02,-0.09112 -0.0176,-0.189513 0.0155,-0.275953 0.0293,-0.07649 0.0816,-0.140777 0.14159,-0.191719 0.06,-0.05094 0.12805,-0.08886 0.19689,-0.124024 0.5358,-0.273296 1.1342,-0.361516 1.69085,-0.580326 0.339,-0.133112 0.66445,-0.316987 0.93897,-0.571543 0.27445,-0.254637 0.49627,-0.582938 0.60668,-0.957045 0.10537,-0.356939 0.10552,-0.749972 0,-1.106911 -0.0974,-0.329491 -0.28376,-0.626684 -0.53072,-0.843359 -0.40294,-0.352989 -0.9349,-0.475414 -1.44952,-0.527101 -0.10394,-0.01044 -0.20855,-0.01835 -0.30955,-0.04702 -0.10099,-0.02867 -0.19917,-0.07992 -0.26975,-0.163814 -0.0634,-0.07543 -0.10161,-0.173607 -0.11524,-0.274918 -0.0137,-0.10123 -0.003,-0.205552 0.0186,-0.304893 0.0447,-0.198599 0.14124,-0.380502 0.26303,-0.535884 0.12186,-0.155379 0.26837,-0.285083 0.42375,-0.399457 0.31067,-0.228839 0.6567,-0.399704 0.95601,-0.645957 0.53021,-0.436226 0.88578,-1.093364 1.06247,-1.791621 0.0642,-0.253486 0.1069,-0.515911 0.0992,-0.778764 -0.008,-0.262855 -0.0678,-0.527068 -0.19586,-0.749826 -0.0838,-0.145682 -0.19617,-0.271963 -0.32917,-0.364318 -0.13301,-0.09227 -0.28665,-0.15013 -0.44391,-0.162782 -0.29417,-0.02358 -0.57839,0.107598 -0.86971,0.158131 -0.10709,0.01856 -0.21638,0.02629 -0.32401,0.01188 -0.10762,-0.01438 -0.21384,-0.05156 -0.30437,-0.117306 -0.14808,-0.107887 -0.24389,-0.2868 -0.28991,-0.474387 -0.0728,-0.296953 -0.0285,-0.621245 0.0966,-0.896589 0.10762,-0.236804 0.27039,-0.437114 0.43201,-0.634069 0.1617,-0.196871 0.32616,-0.39578 0.4377,-0.630452 0.17496,-0.368107 0.20691,-0.803298 0.14469,-1.212329 -0.0192,-0.126371 -0.047,-0.251658 -0.093,-0.369487 -0.046,-0.117827 -0.11043,-0.227961 -0.19637,-0.315226 -0.1672,-0.169757 -0.40109,-0.239582 -0.62839,-0.264066 -0.19251,-0.0207 -0.38677,-0.01347 -0.57981,0 -0.33847,0.02366 -0.68017,0.06614 -1.01389,0 -0.19409,-0.03845 -0.38751,-0.117045 -0.53227,-0.26355 -0.15461,-0.156857 -0.24005,-0.375602 -0.33796,-0.579293 -0.17172,-0.357841 -0.40253,-0.696216 -0.72451,-0.895553 -0.12012,-0.07436 -0.25112,-0.128492 -0.38654,-0.158646 z m -17.70847,49.306549 c 0.0146,-0.0051 0.035,4.5e-5 0.0625,0.01757 l 3.33417,2.124935 c -0.28349,0.08285 -0.54805,0.157088 -0.64131,0.12609 -0.33542,-0.11149 -0.70321,-0.10423 -1.04851,-0.02739 -0.0803,0.01788 -0.15905,0.04127 -0.2372,0.06718 -0.0676,-0.08281 -0.13861,-0.162758 -0.21394,-0.238228 -0.24068,-0.241115 -0.52148,-0.468225 -0.84956,-0.582909 -0.20951,-0.07306 -0.44568,-0.06794 -0.66972,-0.05116 -0.16394,0.01248 -0.32508,0.05252 -0.4837,0.09973 0.12878,-0.06714 0.25219,-0.142123 0.36019,-0.237712 0.16307,-0.144341 0.2942,-0.323432 0.37569,-0.525031 0.083,-0.205142 -0.0912,-0.737238 0.0114,-0.773081 z m 35.39525,0 c 0.0104,-0.0028 0.019,-0.0025 0.0264,0 0.10256,0.03584 -0.0716,0.567939 0.0114,0.773081 0.0815,0.201599 0.21262,0.38069 0.37569,0.525031 0.108,0.09559 0.23141,0.170572 0.36019,0.237712 -0.15862,-0.04721 -0.31976,-0.08724 -0.4837,-0.09973 -0.22404,-0.01678 -0.46021,-0.0219 -0.66972,0.05116 -0.32809,0.114684 -0.60888,0.341797 -0.84956,0.582909 -0.0753,0.07547 -0.14634,0.155419 -0.21394,0.238228 -0.0782,-0.02591 -0.15687,-0.04929 -0.2372,-0.06718 -0.3453,-0.07684 -0.71309,-0.0841 -1.04851,0.02739 -0.0933,0.031 -0.35781,-0.04324 -0.64131,-0.12609 l 3.33417,-2.124935 c 0.0138,-0.0088 0.0258,-0.01473 0.0362,-0.01757 z m -31.51177,2.453082 4.40903,2.810163 c 0.132,0.154324 0.25561,0.303874 0.34933,0.432017 0.29157,0.3986 0.48186,0.864259 0.72813,1.292426 l -1.1002,0.658358 c 0.0663,-0.26211 0.0631,-0.536652 -0.016,-0.786514 -0.068,-0.21485 -0.1889,-0.41085 -0.34572,-0.573093 -0.30284,-0.313288 -0.7265,-0.493903 -1.15497,-0.627351 -0.24237,-0.07556 -0.49121,-0.13939 -0.74879,-0.158131 -0.2575,-0.01884 -0.52544,0.0085 -0.7705,0.107487 -0.22889,0.09244 -0.43339,0.246425 -0.58859,0.435632 -0.1552,0.189208 -0.26118,0.412757 -0.31368,0.64389 -0.0406,0.178763 -0.0498,0.360719 -0.0682,0.541567 -0.0185,0.180787 -0.0473,0.364146 -0.12506,0.533302 -0.0401,0.0872 -0.0936,0.170291 -0.16484,0.237713 -0.0713,0.06741 -0.1611,0.118284 -0.25735,0.134874 -0.0851,0.01455 -0.17218,0.0019 -0.25115,-0.02532 -0.079,-0.02716 -0.1506,-0.06832 -0.22014,-0.112138 -0.54158,-0.340831 -0.95089,-0.838902 -1.45418,-1.22835 -0.30659,-0.237209 -0.65121,-0.435028 -1.03198,-0.547769 -0.37448,-0.110945 -0.78568,-0.135869 -1.17822,-0.04031 0.33624,-0.21917 0.67452,-0.435144 1.01544,-0.647507 0.03,0.121603 0.0521,0.244944 0.0656,0.369486 0.0377,-0.02305 0.0748,-0.04652 0.11162,-0.07079 0.27621,-0.182914 0.52424,-0.404622 0.75035,-0.641824 0.15366,-0.161239 0.30173,-0.332845 0.40721,-0.526065 0.10498,-0.192257 0.20298,-0.400323 0.21652,-0.615466 0.0212,-0.336804 -0.0831,-0.67613 -0.21652,-0.98547 -0.0203,-0.04718 -0.0449,-0.09269 -0.0677,-0.139009 0.0153,-0.0036 0.0301,-0.0082 0.0455,-0.01137 0.21082,-0.0433 0.42919,-0.05144 0.64285,-0.0248 0.1665,0.02076 0.88172,-0.302263 1.33222,-0.435631 z m 27.65464,0 c 0.45051,0.133368 1.16572,0.456401 1.33222,0.435631 0.21366,-0.02662 0.43203,-0.01849 0.64286,0.0248 0.0154,0.0032 0.0301,0.0078 0.0455,0.01137 -0.0228,0.04632 -0.0473,0.09183 -0.0677,0.139009 -0.13344,0.30934 -0.23771,0.648666 -0.21652,0.98547 0.0135,0.215143 0.11154,0.423212 0.21652,0.615466 0.10548,0.19322 0.25355,0.364826 0.40722,0.526065 0.2261,0.237205 0.47413,0.458907 0.75034,0.641824 0.0368,0.02427 0.0739,0.04775 0.11162,0.07079 0.0136,-0.124542 0.0356,-0.247883 0.0656,-0.369486 0.34092,0.212363 0.6792,0.428337 1.01544,0.647507 -0.39254,-0.09556 -0.80374,-0.07064 -1.17822,0.04031 -0.38077,0.112741 -0.72539,0.31056 -1.03198,0.547769 -0.50329,0.389448 -0.9126,0.887519 -1.45418,1.22835 -0.0695,0.04382 -0.14119,0.08498 -0.22014,0.112138 -0.079,0.02722 -0.166,0.03987 -0.25115,0.02532 -0.0962,-0.01659 -0.18611,-0.06747 -0.25735,-0.134874 -0.0712,-0.06742 -0.12471,-0.150514 -0.16484,-0.237713 -0.0778,-0.169156 -0.10657,-0.352515 -0.12506,-0.533302 -0.0184,-0.180848 -0.0276,-0.362804 -0.0682,-0.541567 -0.0525,-0.231133 -0.15848,-0.454679 -0.31368,-0.64389 -0.1552,-0.189204 -0.35969,-0.343192 -0.58859,-0.435632 -0.24506,-0.09899 -0.513,-0.126328 -0.7705,-0.107487 -0.25758,0.01874 -0.50642,0.08256 -0.74879,0.158131 -0.42847,0.133448 -0.85213,0.314063 -1.15497,0.627351 -0.15682,0.162243 -0.27776,0.358241 -0.34571,0.573093 -0.0791,0.249862 -0.0823,0.524404 -0.016,0.786514 l -1.10019,-0.658358 c 0.24626,-0.428167 0.43655,-0.893826 0.72812,-1.292426 0.0937,-0.128146 0.21733,-0.277693 0.34933,-0.432017 z"
       id="rect16083-5"
       inkscape:connector-curvature="0" />
  </g>
</svg>
