<svg xmlns="http://www.w3.org/2000/svg" width="634.082" height="791.22" viewBox="0 0 167.767 209.344"><g transform="translate(-5.492 -5.47)"><path style="fill:#000;fill-rule:evenodd;stroke:none;stroke-width:3.10444427;stroke-opacity:1" d="m171.696 7.023-.835 117.58c-1.822 49.46-37.824 88.632-81.485 88.66-43.622-.061-79.638-39.247-81.486-88.66L7.055 7.024h82.319z"/><path style="fill:#fff;fill-opacity:1;stroke:#000;stroke-width:7.99999952;stroke-linecap:round;stroke-linejoin:round;stroke-miterlimit:4;stroke-dasharray:none;stroke-opacity:1" d="M6.514 5.867v85.25l2.55 359.149c2.179 58.241 16.92 112.722 41.172 160.132a243.262 195.146 0 0 0 23.535 1.082 243.262 195.146 0 0 0 243.262-195.144V5.867H6.513z" transform="matrix(.26458 0 0 .26458 5.492 5.47)"/><path style="fill:red;fill-opacity:1;stroke:#000;stroke-width:7.99999952;stroke-linecap:round;stroke-linejoin:round;stroke-miterlimit:4;stroke-dasharray:none;stroke-opacity:1" d="M317.033 5.867v410.469A243.262 195.146 0 0 0 560.295 611.48a243.262 195.146 0 0 0 23.684-1.097c24.2-47.398 38.893-101.868 41.039-160.117l2.535-356.95V5.867h-310.52z" transform="matrix(.26458 0 0 .26458 5.492 5.47)"/><path style="fill:none;fill-rule:evenodd;stroke:#000;stroke-width:3.10444427;stroke-opacity:1" d="m171.696 7.023-.835 117.58c-1.822 49.46-37.824 88.632-81.485 88.66-43.622-.061-79.638-39.247-81.486-88.66L7.055 7.024h82.319z"/><g transform="rotate(-21.166 233.327 1089.829)"><path style="fill:red;fill-opacity:1;stroke:#000;stroke-width:5;stroke-linecap:round;stroke-linejoin:round;stroke-miterlimit:4;stroke-dasharray:none;stroke-opacity:1" d="M1605.656 399.383a.756.756 0 0 0-.535.222l-54.537 54.538a.756.756 0 0 0 0 1.07l54.537 54.537a.756.756 0 0 0 1.07 0l54.537-54.537a.756.756 0 0 0 0-1.07l-54.537-54.538a.756.756 0 0 0-.535-.222zm0 31.793c.193 0 .387.072.535.22l22.746 22.747a.756.756 0 0 1 0 1.07l-22.746 22.744a.756.756 0 0 1-1.07 0l-22.746-22.744a.756.756 0 0 1 0-1.07l22.746-22.747a.754.754 0 0 1 .535-.22z" transform="matrix(.26458 0 0 .26458 5.492 5.47)"/><rect style="fill:red;fill-opacity:1;stroke:#000;stroke-width:1.32291651;stroke-linecap:round;stroke-linejoin:round;stroke-miterlimit:4;stroke-dasharray:none;stroke-opacity:1" width="5.013" height="90.981" x="427.815" y="19.568" ry="1.88" rx="1.88"/><rect style="fill:red;fill-opacity:1;stroke:#000;stroke-width:1.32291663;stroke-linecap:round;stroke-linejoin:round;stroke-miterlimit:4;stroke-dasharray:none;stroke-opacity:1" width="11.343" height="5.937" x="424.651" y="107.415" rx="1.88" ry="1.88"/><path style="fill:red;fill-opacity:1;stroke:#000;stroke-width:5;stroke-linecap:round;stroke-linejoin:round;stroke-miterlimit:4;stroke-dasharray:none;stroke-opacity:1" d="M1524.879 68.803v67.486h33.723v-17.248h14.736v49.232h-14.736v-17.248h-33.723v67.487h12.543V183.93h14.736v34.582h16.746V183.93h14.737v34.582h12.543V68.802h-12.543v34.583h-14.737V68.803h-16.746v34.582h-14.736V68.803zM1556.303 442.05a12.618 12.618 0 0 0-12.62 12.618 12.618 12.618 0 0 0 12.62 12.62 12.618 12.618 0 0 0 8.033-2.901v-19.442a12.618 12.618 0 0 0-8.033-2.894zm98.705 0a12.618 12.618 0 0 0-8.033 2.895v19.442a12.618 12.618 0 0 0 8.033 2.9 12.618 12.618 0 0 0 12.619-12.619 12.618 12.618 0 0 0-12.62-12.617zm-59.07 53.938a12.618 12.618 0 0 0-2.9 8.033c-.002 6.97 5.649 12.62 12.618 12.62 6.97 0 12.618-5.65 12.617-12.62 0-2.932-1.025-5.773-2.894-8.033z" transform="matrix(.26458 0 0 .26458 5.492 5.47)"/></g><g transform="scale(-1 1) rotate(-21.166 185.032 1348.31)"><path style="fill:red;fill-opacity:1;stroke:#000;stroke-width:5;stroke-linecap:round;stroke-linejoin:round;stroke-miterlimit:4;stroke-dasharray:none;stroke-opacity:1" d="M1605.656 399.383a.756.756 0 0 0-.535.222l-54.537 54.538a.756.756 0 0 0 0 1.07l54.537 54.537a.756.756 0 0 0 1.07 0l54.537-54.537a.756.756 0 0 0 0-1.07l-54.537-54.538a.756.756 0 0 0-.535-.222zm0 31.793c.193 0 .387.072.535.22l22.746 22.747a.756.756 0 0 1 0 1.07l-22.746 22.744a.756.756 0 0 1-1.07 0l-22.746-22.744a.756.756 0 0 1 0-1.07l22.746-22.747a.754.754 0 0 1 .535-.22z" transform="matrix(.26458 0 0 .26458 5.492 5.47)"/><rect style="fill:red;fill-opacity:1;stroke:#000;stroke-width:1.32291651;stroke-linecap:round;stroke-linejoin:round;stroke-miterlimit:4;stroke-dasharray:none;stroke-opacity:1" width="5.013" height="90.981" x="427.815" y="19.568" ry="1.88" rx="1.88"/><rect style="fill:red;fill-opacity:1;stroke:#000;stroke-width:1.32291663;stroke-linecap:round;stroke-linejoin:round;stroke-miterlimit:4;stroke-dasharray:none;stroke-opacity:1" width="11.343" height="5.937" x="424.651" y="107.415" rx="1.88" ry="1.88"/><path style="fill:red;fill-opacity:1;stroke:#000;stroke-width:5;stroke-linecap:round;stroke-linejoin:round;stroke-miterlimit:4;stroke-dasharray:none;stroke-opacity:1" d="M1524.879 68.803v67.486h33.723v-17.248h14.736v49.232h-14.736v-17.248h-33.723v67.487h12.543V183.93h14.736v34.582h16.746V183.93h14.737v34.582h12.543V68.802h-12.543v34.583h-14.737V68.803h-16.746v34.582h-14.736V68.803zM1556.303 442.05a12.618 12.618 0 0 0-12.62 12.618 12.618 12.618 0 0 0 12.62 12.62 12.618 12.618 0 0 0 8.033-2.901v-19.442a12.618 12.618 0 0 0-8.033-2.894zm98.705 0a12.618 12.618 0 0 0-8.033 2.895v19.442a12.618 12.618 0 0 0 8.033 2.9 12.618 12.618 0 0 0 12.619-12.619 12.618 12.618 0 0 0-12.62-12.617zm-59.07 53.938a12.618 12.618 0 0 0-2.9 8.033c-.002 6.97 5.649 12.62 12.618 12.62 6.97 0 12.618-5.65 12.617-12.62 0-2.932-1.025-5.773-2.894-8.033z" transform="matrix(.26458 0 0 .26458 5.492 5.47)"/></g><ellipse style="fill:gold;fill-opacity:1;stroke:#000;stroke-width:.26462668;stroke-linecap:round;stroke-linejoin:round;stroke-miterlimit:4;stroke-dasharray:none;stroke-opacity:1" cx="127.318" cy="125.511" rx=".882" ry="1.994" transform="matrix(.91152 .41125 -.43445 .9007 0 0)"/><path style="fill:gold;fill-opacity:1;stroke:#000;stroke-width:.26458338;stroke-linecap:round;stroke-linejoin:round;stroke-miterlimit:4;stroke-dasharray:none;stroke-opacity:1" d="M63.714 164.906a.673 1.533 25.738 0 0-.32.095.913 2.063 26.164 0 1-.367 1.156.913 2.063 26.164 0 1-.754 1.087.673 1.533 25.738 0 0 .235.455.673 1.533 25.738 0 0 1.273-1.104.673 1.533 25.738 0 0 .047-1.662.673 1.533 25.738 0 0-.114-.027z"/><path style="fill:gold;fill-opacity:1;stroke:#000;stroke-width:.26458341;stroke-linecap:round;stroke-linejoin:round;stroke-miterlimit:4;stroke-dasharray:none;stroke-opacity:1" d="M65.466 165.689a.673 1.533 25.738 0 0-.32.095.913 2.063 26.164 0 1-.367 1.156.913 2.063 26.164 0 1-.754 1.088.673 1.533 25.738 0 0 .235.455.673 1.533 25.738 0 0 1.272-1.104.673 1.533 25.738 0 0 .047-1.663.673 1.533 25.738 0 0-.113-.027z"/><path style="fill:gold;fill-opacity:1;stroke:#000;stroke-width:.26458338;stroke-linecap:round;stroke-linejoin:round;stroke-miterlimit:4;stroke-dasharray:none;stroke-opacity:1" d="M66.831 167.09a.54 1.24 25.361 0 0-.257.076.734 1.67 25.78 0 1-.294.938.734 1.67 25.78 0 1-.604.883.54 1.24 25.361 0 0 .188.369s1.477.896 2.076 1.506c1.865 1.902 2.967 4.426 4.564 6.558 1.284 1.714 2.4 3.618 4.032 5.006 1.135.965 3.887 2.208 3.887 2.208l4.31.273s-3.715-3.022-5.583-4.52c-1.206-.965-2.596-1.733-3.633-2.88-1.12-1.235-1.81-2.8-2.703-4.208-.67-1.06-1.175-2.24-1.994-3.19-.596-.69-1.356-1.222-2.082-1.773-.56-.425-1.682-1.138-1.766-1.192a.54 1.24 25.361 0 0-.05-.032.54 1.24 25.361 0 0-.09-.023z"/><path style="fill:gold;stroke:#000;stroke-width:.26458332px;stroke-linecap:butt;stroke-linejoin:miter;stroke-opacity:1;fill-opacity:1" d="M103.646 166.253s2.197 4.286 3.634 6.204c1.205 1.608 2.632 3.053 4.136 4.386.816.723 2.632 1.942 2.632 1.942s-5.117 2.225-7.708 3.259c-3.916 1.562-7.69 3.711-11.842 4.448-1.683.3-3.464.355-5.127-.04-.797-.189-2.204-1.087-2.204-1.087s2.043-.429 3.007-.815c2.56-1.025 5.26-2.06 7.269-3.948 1.778-1.67 2.858-3.99 3.885-6.203.867-1.87 1.369-3.893 1.88-5.89.19-.742.438-2.256.438-2.256z"/><ellipse style="fill:gold;fill-opacity:1;stroke:#000;stroke-width:.79375;stroke-linecap:round;stroke-linejoin:round;stroke-miterlimit:4;stroke-dasharray:none;stroke-opacity:1" cx="-11.679" cy="202.546" rx="4.32" ry="10.837" transform="rotate(-36.499)"/><path style="fill:none;stroke:#000;stroke-width:.79374999;stroke-linecap:round;stroke-linejoin:miter;stroke-miterlimit:4;stroke-dasharray:none;stroke-opacity:1" d="M107.241 163.143s-.416.073-.572.202c-.208.174-.356.44-.403.707-.09.515.105 1.05.269 1.547.603 1.824 1.528 3.547 2.59 5.147 1.148 1.73 2.408 3.456 4.037 4.743a5.27 5.27 0 0 0 1.716.875c.432.133 1.345.168 1.345.168M104.643 179.584s1.66-.609 2.506-.867c1.017-.31 3.084-.82 3.084-.82M101.317 176.886s1.067-1.785 1.446-2.748c.403-1.022.868-3.18.868-3.18M103.1 176.066s.648-1.094.868-1.687c.167-.449.337-1.397.337-1.397"/><path style="fill:none;stroke:#000;stroke-width:.5291667;stroke-linecap:round;stroke-linejoin:miter;stroke-miterlimit:4;stroke-dasharray:none;stroke-opacity:1" d="M109.173 163.777s-.289.266-.386.433c-.076.132-.12.284-.144.434-.039.238 0 .723 0 .723M109.896 164.5s-.12.217-.145.337a1.81 1.81 0 0 0 0 .386"/><path style="fill:gold;fill-opacity:1;stroke:#000;stroke-width:.79374999;stroke-linecap:round;stroke-linejoin:round;stroke-miterlimit:4;stroke-dasharray:none;stroke-opacity:1" d="M86.694 166.583a10.114 10.114 0 0 0-10.114 10.115 10.114 10.114 0 0 0 10.114 10.115 10.114 10.114 0 0 0 10.115-10.115 10.114 10.114 0 0 0-10.115-10.115zm0 4.121a5.994 5.994 0 0 1 5.994 5.994 5.994 5.994 0 0 1-5.994 5.994 5.994 5.994 0 0 1-5.993-5.994 5.994 5.994 0 0 1 5.993-5.994z"/><path style="fill:none;stroke:#000;stroke-width:.79374999;stroke-linecap:round;stroke-linejoin:miter;stroke-miterlimit:4;stroke-dasharray:none;stroke-opacity:1" d="M91.39 169.608s1.848 1.714 2.457 2.795c.736 1.306 1.297 2.792 1.35 4.29.04 1.172-.35 2.347-.82 3.422-.278.637-1.156 1.735-1.156 1.735M83.196 168.74s1.146-.452 1.748-.562a7.827 7.827 0 0 1 1.995-.104c.545.04 1.607.33 1.607.33M77.75 175.729s.089 1.03.178 1.539c.11.632.234 1.267.441 1.875.24.704.923 2.032.923 2.032"/><path style="fill:gold;fill-opacity:1;stroke:none;stroke-width:.26458332px;stroke-linecap:butt;stroke-linejoin:miter;stroke-opacity:1" d="M81.735 184.876s2.02 1.146 3.127 1.464c1.589.456 3.27.57 4.923.598 1.216.021 2.441-.087 3.636-.316 1.386-.265 4.054-1.216 4.054-1.216l-.3-1.102-1.46-2.298-3.482 1.707s-3.301 1.452-5.066 1.652c-1.807.204-5.432-.489-5.432-.489z"/><path style="fill:none;stroke:#000;stroke-width:.79374999;stroke-linecap:round;stroke-linejoin:round;stroke-miterlimit:4;stroke-dasharray:none;stroke-opacity:1" d="M80.7 176.698s.383 2.365 1.018 3.341c.944 1.45 2.31 2.778 3.927 3.394 1.788.681 3.862.46 5.739.088 1.504-.3 4.222-1.824 4.222-1.824"/><path style="fill:none;stroke:#000;stroke-width:.79374999;stroke-linecap:round;stroke-linejoin:miter;stroke-miterlimit:4;stroke-dasharray:none;stroke-opacity:1" d="M83.534 184.597s2.202.939 3.373 1.108c2.084.301 4.248.213 6.314-.193 3.332-.655 6.38-2.328 9.542-3.566 1.972-.773 3.907-1.638 5.88-2.41.942-.368 2.843-1.06 2.843-1.06"/><path style="fill:#090;fill-opacity:1;stroke:#000;stroke-width:.79374999;stroke-linecap:butt;stroke-linejoin:round;stroke-miterlimit:4;stroke-dasharray:none;stroke-opacity:1" d="M145.583 19.258a2.81 2.81 0 0 0-1.187.605c-.418.36-.723.84-.925 1.354a4.412 4.412 0 0 0-.292 1.237 2.174 2.174 0 0 1-1.162-1.356 5.66 5.66 0 0 0-.129 1.683c.04.531.164 1.078.5 1.49.148.183.332.331.508.485.176.155.35.32.468.522.098.168.156.36.161.555.005.195-.044.393-.145.56a.894.894 0 0 1-.392.354.86.86 0 0 1-.453.067.949.949 0 0 1-.428-.166 1.298 1.298 0 0 1-.38-.443 3.176 3.176 0 0 1-.223-.544c-.119-.36-.22-.725-.302-1.094-.06-.266-.108-.534-.16-.802a79.705 79.705 0 0 0-.19-.97 2.313 2.313 0 0 0-.745 1.93 3.488 3.488 0 0 0-2.69-1.293 4.991 4.991 0 0 0 1.6 3.387 7.208 7.208 0 0 0-2.2.043c.341.487.72.947 1.134 1.374.395.409.845.8 1.396.937.45.112.923.045 1.379-.037.456-.081.92-.176 1.379-.116.165.021.33.063.48.136.15.073.286.178.386.312.08.108.136.233.156.366.02.132.005.27-.048.393a.93.93 0 0 1-.315.37c-.132.096-.279.17-.422.25-.924.513-1.699 1.253-2.448 1.999a305.48 305.48 0 0 1-2.362 2.287c-3.284-1.804-6.864-3.073-10.51-3.306a32.943 32.943 0 0 0-2.608-.062c-6.143.096-12.605 1.893-17.242 5.734-.534.442-1.05.91-1.546 1.403a213.63 213.63 0 0 1-.682-2.264c-.293-1.016-.61-2.04-1.168-2.937-.086-.14-.18-.275-.248-.424a.928.928 0 0 1-.096-.476.723.723 0 0 1 .15-.367.83.83 0 0 1 .314-.244c.152-.069.322-.094.49-.085.166.01.33.053.485.115.43.17.79.478 1.149.771.358.293.74.582 1.186.703.548.148 1.132.025 1.676-.14a11.21 11.21 0 0 0 1.658-.65 7.228 7.228 0 0 0-1.902-1.109 4.99 4.99 0 0 0 3.045-2.18 3.488 3.488 0 0 0-1.402-.421 3.496 3.496 0 0 0-1.577.242 2.314 2.314 0 0 0 .287-2.048c-.214.25-.427.502-.638.755-.174.21-.348.42-.529.624-.251.282-.517.553-.795.81a3.177 3.177 0 0 1-.46.366 1.296 1.296 0 0 1-.547.202.95.95 0 0 1-.454-.063.859.859 0 0 1-.364-.278.895.895 0 0 1-.17-.5 1.035 1.035 0 0 1 .144-.56c.1-.168.244-.308.412-.407.202-.12.433-.179.662-.228.23-.049.462-.09.68-.176.494-.198.868-.615 1.16-1.06a5.67 5.67 0 0 0 .707-1.534 2.188 2.188 0 0 1-1.676.62c.174-.388.291-.8.347-1.223.073-.547.04-1.115-.15-1.633a2.813 2.813 0 0 0-.743-1.106 4.344 4.344 0 0 0-2.162 2.567 1.071 1.071 0 0 0-.417-.717 1.062 1.062 0 0 0-.6-.209c.198.53.23 1.12.09 1.667a1.512 1.512 0 0 1-.259.57.792.792 0 0 1-.527.31.73.73 0 0 1-.49-.14 1.047 1.047 0 0 1-.325-.403 1.397 1.397 0 0 1-.134-.642c.007-.241.075-.476.152-.705.077-.229.164-.454.215-.69.13-.6.002-1.252-.343-1.76a24.642 24.642 0 0 1-1.364 1.64 4.164 4.164 0 0 0-.73-1.154 4.266 4.266 0 0 0-1.76-1.172 4.363 4.363 0 0 0-1.676-.239c.264.407.411.889.42 1.375.01.615-.199 1.225-.13 1.837.048.439.243.86.546 1.18a4.207 4.207 0 0 1-1.505.16c.17.254.34.509.505.766.163.252.324.506.514.738.19.232.413.442.675.586.177.097.369.163.554.242.185.079.368.173.51.317a.878.878 0 0 1 .226.39.753.753 0 0 1-.018.448.688.688 0 0 1-.437.416.75.75 0 0 1-.375.01 1.04 1.04 0 0 1-.345-.15c-.213-.139-.38-.338-.537-.539-.158-.2-.311-.407-.507-.57a1.605 1.605 0 0 0-1.167-.358 5.915 5.915 0 0 1 .643 1.965 1.487 1.487 0 0 0-.87.05c-.235.087-.444.232-.646.382s-.4.307-.624.42c-.236.12-.496.19-.76.205.017.377.098.75.24 1.1.181.444.469.857.874 1.111.402.253.908.333 1.369.218a10.85 10.85 0 0 0-1.013 1.95c.45-.265.917-.5 1.398-.705.43-.182.885-.348 1.213-.681.188-.19.322-.426.468-.65.146-.224.31-.445.535-.588.15-.094.324-.152.5-.157a.882.882 0 0 1 .504.135c.219.141.363.385.402.643.028.187.004.38-.055.559a1.93 1.93 0 0 1-.26.502c-.325.464-.794.818-1.31 1.05a3.81 3.81 0 0 1-1.936.312 2.518 2.518 0 0 0 1.614 1.32 3.952 3.952 0 0 0 .435 3.225 4.423 4.423 0 0 1 2.086-1.56 1.94 1.94 0 0 0 1.635.967 12.25 12.25 0 0 1-.453-1.8 11.811 11.811 0 0 1-.174-2.049c0-.362.024-.74.206-1.054a.954.954 0 0 1 .238-.278.703.703 0 0 1 .336-.143.792.792 0 0 1 .49.115c.149.086.274.206.39.331.516.559.876 1.25 1.106 1.975.14.44.554 1.965.907 3.271-4.28 4.736-6.98 11.264-7.505 17.528-.496 5.912 2.407 11.794 5.228 17.014 2.573 4.761 6.356 8.862 10.368 12.494.392.355.798.691 1.216 1.015-.83-.098-2.338-.155-2.338-.155s-2.142-2.465-3.341-3.567c-.762-.7-2.435-1.925-2.435-1.925s.675 1.323.85 2.038c.107.441.113 1.359.113 1.359s-1.233-1.133-1.982-1.472c-.897-.407-2.888-.623-2.888-.623s.838 1.085 1.132 1.699c.163.339.34 1.075.34 1.075s-1.566-.968-2.435-1.245c-.872-.279-2.718-.397-2.718-.397s.838 1.558 1.473 2.152c.704.66 2.49 1.472 2.49 1.472s-1.73-.122-2.547.113c-.625.18-1.699.963-1.699.963s2.23-.018 3.341.057c.967.065 2.888.34 2.888.34s-2.173.374-3.114.905c-.582.329-1.117.794-1.473 1.36-.547.868-.906 2.944-.906 2.944s1.03-.843 1.642-1.076c.482-.183 1.53-.226 1.53-.226s-2.04 1.43-2.606 2.491c-.414.778-.452 2.605-.452 2.605s.617-1.008 1.076-1.359c.342-.262 1.189-.51 1.189-.51s-.101 2.77.283 4.077c.43 1.467 2.208 4.02 2.208 4.02s-.52-2.635-.453-3.963c.108-2.122.48-4.294 1.359-6.229.826-1.818 1.897-3.72 3.568-4.813 1.41-.922 3.241-1.142 4.926-1.132.887.005 1.933.178 2.965.416 4.039 2.606 8.683 4.452 12.04 7.87 3.575 3.642 6.372 8.135 8.329 12.85 1.563 3.766 2.295 7.893 2.57 11.962.007.097.01.194.016.291-2.148-1.109-3.704-2.969-5.986-3.589-2.083-.565-4.318-.606-6.467-.335-.332.042-.665.097-1 .098-.335 0-.678-.058-.968-.228a1.476 1.476 0 0 1-.555-.592 1.699 1.699 0 0 1-.185-.793c.003-.343.102-.682.263-.985a3.21 3.21 0 0 1 .629-.807c.687-.656 1.568-1.062 2.42-1.48.853-.418 1.718-.88 2.325-1.61.745-.895 1.016-2.087 1.176-3.241.167-1.207.24-2.428.213-3.646a14.835 14.835 0 0 0-3.693 2.596 10.235 10.235 0 0 0-.12-4.502 10.232 10.232 0 0 0-1.328-3.035 7.166 7.166 0 0 0-1.983 2.253 7.175 7.175 0 0 0-.901 3.143 4.734 4.734 0 0 0-1.504-1.56 4.731 4.731 0 0 0-2.061-.725c.282.613.568 1.225.858 1.834.24.504.482 1.007.706 1.518.31.71.586 1.437.824 2.175.124.383.238.772.29 1.17.05.4.036.811-.094 1.192-.102.3-.276.576-.507.793-.231.216-.52.372-.83.439-.358.076-.74.031-1.078-.11a2.114 2.114 0 0 1-.915-.748 2.389 2.389 0 0 1-.404-1.114c-.05-.479.038-.96.143-1.43.105-.468.229-.937.254-1.417.057-1.088-.398-2.144-.976-3.07a11.591 11.591 0 0 0-2.248-2.625 4.47 4.47 0 0 1-.282 3.652 9.02 9.02 0 0 0-1.978-1.692c-.957-.603-2.04-1.027-3.167-1.116a5.762 5.762 0 0 0-2.695.438 8.901 8.901 0 0 0 .785 3.301 8.914 8.914 0 0 0 2.135 2.921 2.195 2.195 0 0 0-1.69.164 2.179 2.179 0 0 0-.904.94 5.735 5.735 0 0 1 3.18 1.257c.334.27.641.585.836.968.195.384.267.843.127 1.249a1.5 1.5 0 0 1-.683.793c-.31.176-.67.255-1.027.26a2.85 2.85 0 0 1-1.31-.3c-.441-.22-.821-.545-1.18-.884-.36-.34-.704-.696-1.1-.992a4.708 4.708 0 0 0-3.568-.863 50.44 50.44 0 0 1 1.88 3.94 8.53 8.53 0 0 0-2.773.376 8.756 8.756 0 0 0-3.688 2.276 8.962 8.962 0 0 0-1.883 2.919 5.349 5.349 0 0 1 2.918.393c1.152.508 2.11 1.417 3.306 1.813.859.285 1.81.281 2.665-.009a8.639 8.639 0 0 1-.992 2.94c.617-.1 1.236-.197 1.856-.286.608-.088 1.22-.17 1.815-.327.594-.156 1.175-.39 1.669-.756.332-.246.619-.547.924-.825.306-.278.638-.538 1.027-.68a1.8 1.8 0 0 1 .918-.088c.307.054.6.199.82.419.303.301.458.747.399 1.17-.036.256-.146.499-.301.705a2.137 2.137 0 0 1-.575.517c-.443.277-.956.417-1.464.539-.508.122-1.025.23-1.495.457a3.296 3.296 0 0 0-1.667 1.868 12.108 12.108 0 0 1 4.207.481 3.053 3.053 0 0 0-.655 1.663c-.039.513.052 1.027.158 1.53.106.505.227 1.009.247 1.523a3.928 3.928 0 0 1-.27 1.59c.714.292 1.48.46 2.252.493.98.044 1.995-.14 2.817-.676a3.67 3.67 0 0 0 1.577-2.365 22.194 22.194 0 0 0 2.761 3.553 24.257 24.257 0 0 1-.112-3.206c.03-.957.111-1.947-.228-2.843-.194-.512-.515-.963-.807-1.426-.293-.464-.563-.958-.636-1.5a2.058 2.058 0 0 1 .136-1.066c.14-.335.38-.628.685-.824.449-.287 1.027-.347 1.54-.2.371.108.709.319.993.582.284.263.516.579.71.913.585 1.003.842 2.178.83 3.338a7.822 7.822 0 0 1-1.08 3.874 5.182 5.182 0 0 0 2.208-.565 5.17 5.17 0 0 0 1.631-1.314 8.075 8.075 0 0 0 6.375 1.948 9.043 9.043 0 0 1-1.114-5.22 3.983 3.983 0 0 0 1.798-.628c.6-.39 1.09-.948 1.403-1.593a25.049 25.049 0 0 1-3.738-.694 24.16 24.16 0 0 1-3.96-1.427c-.673-.312-1.358-.678-1.785-1.285a1.95 1.95 0 0 1-.313-.682 1.442 1.442 0 0 1 .022-.747c.106-.335.348-.615.635-.817.287-.202.618-.333.952-.442 1.48-.484 3.111-.7 4.622-.372 2.525.547 5.04 3.021 7.043 4.13-.06 2.46-.37 4.92-.854 7.325-.999 4.973-2.11 10.134-4.785 14.444-2.06 3.319-8.33 8.241-8.33 8.241l14.178-5.494s2.135-7.084 2.747-10.722c1.127-6.693 2.032-13.514 1.684-20.292a35.094 35.094 0 0 0-.098-1.356c.23-1.755.557-3.519 1.034-4.795.757-2.025 1.778-4.158 3.509-5.452 1.01-.756 2.373-1.13 3.634-1.065.47.024.968.166 1.368.429-.87.207-1.71.587-2.401 1.127a4.37 4.37 0 0 0-1.473 2.141c-.257.861-.327 1.884.062 2.694.437.909 1.332 1.733 2.319 1.942.892.19 1.895-.214 2.631-.751.852-.622 1.398-1.64 1.755-2.632.291-.811.438-1.707.372-2.572.598.365 1.135.86 1.57 1.382.966 1.158 1.548 2.696 1.692 4.198.137 1.419-.31 2.865-.814 4.198-.583 1.541-2.507 4.26-2.507 4.26s3.221-3.153 4.198-5.137c.607-1.232 1.013-2.64.94-4.01-.074-1.39-.609-2.782-1.379-3.942-.644-.971-1.556-1.813-2.593-2.346a6.775 6.775 0 0 0-1.642-.59c-.2-.406-.454-.78-.777-1.08-1.039-.968-2.532-1.554-3.95-1.591-1.583-.041-3.162.683-4.491 1.542-1.366.883-2.444 2.2-3.339 3.558-.437.662-.85 1.352-1.22 2.065-2.357-5.99-5.554-11.874-10.097-16.41-4.81-4.802-12.324-6.087-17.457-10.544a34.93 34.93 0 0 1-3.109-3.062c.656-1.2 1.683-3.076 1.964-3.54.395-.65.907-1.238 1.539-1.66.143-.095.293-.182.457-.23a.793.793 0 0 1 .504.003.703.703 0 0 1 .293.218.95.95 0 0 1 .166.326c.103.347.037.72-.047 1.073a11.82 11.82 0 0 1-.65 1.95 12.245 12.245 0 0 1-.865 1.643 1.94 1.94 0 0 0 1.817-.555 4.407 4.407 0 0 1 1.661 2.006 3.949 3.949 0 0 0 1.18-3.033 2.519 2.519 0 0 0 1.88-.903 3.81 3.81 0 0 1-1.809-.758c-.447-.347-.82-.8-1.026-1.328-.07-.176-.12-.36-.135-.55a1.226 1.226 0 0 1 .078-.556.932.932 0 0 1 .541-.53.884.884 0 0 1 .522-.013c.17.047.326.143.45.27.185.192.292.446.381.698.09.252.165.512.302.74.24.402.644.67 1.02.949.419.31.817.649 1.192 1.013a10.835 10.835 0 0 0-.525-2.134c.42.22.93.262 1.381.11.454-.152.83-.486 1.11-.875.22-.306.387-.65.492-1.013a1.913 1.913 0 0 1-.69-.377c-.191-.163-.348-.362-.508-.555-.161-.193-.33-.384-.538-.524a1.487 1.487 0 0 0-.834-.252 5.912 5.912 0 0 1 1.086-1.759 1.604 1.604 0 0 0-1.218.074c-.229.112-.426.277-.627.435-.2.158-.409.313-.649.399a1.04 1.04 0 0 1-.37.064.75.75 0 0 1-.362-.098.687.687 0 0 1-.327-.507.754.754 0 0 1 .088-.441.877.877 0 0 1 .311-.326c.171-.106.371-.155.57-.188.199-.033.4-.052.595-.105.29-.078.555-.23.794-.411.24-.18.456-.39.673-.597.222-.21.446-.419.67-.625a4.208 4.208 0 0 1-1.424-.509c.37-.24.658-.604.809-1.019.21-.578.151-1.22.305-1.816.122-.47.378-.905.73-1.238a4.36 4.36 0 0 0-1.685-.161 4.267 4.267 0 0 0-1.985.725c-.376.26-.71.582-.981.95a24.657 24.657 0 0 1-.94-1.913 2.302 2.302 0 0 0-.748 1.629c-.006.241.025.481.047.721.02.24.031.485-.018.721a1.396 1.396 0 0 1-.282.593c-.11.135-.248.25-.41.315a.73.73 0 0 1-.509.022.793.793 0 0 1-.44-.426 1.517 1.517 0 0 1-.118-.614 2.807 2.807 0 0 1 .48-1.6 1.061 1.061 0 0 0-.632.062c-.261.111-.473.333-.574.599a4.358 4.358 0 0 0-1.499-3.003 2.813 2.813 0 0 0-.982.901c-.306.459-.472 1.003-.53 1.552-.045.423-.027.852.05 1.27a2.174 2.174 0 0 1-1.482-.996c.025.564.135 1.124.325 1.656.18.501.446.995.88 1.303.191.135.408.23.619.332.211.101.422.213.59.377.14.135.248.306.304.492.057.187.063.39.01.577a.895.895 0 0 1-.283.446.86.86 0 0 1-.419.186.95.95 0 0 1-.457-.046 1.296 1.296 0 0 1-.484-.324 3.18 3.18 0 0 1-.36-.465c-.21-.315-.406-.64-.583-.974-.128-.24-.247-.486-.368-.73-.146-.296-.293-.59-.443-.884a2.314 2.314 0 0 0-.202 2.058 3.488 3.488 0 0 0-2.937-.527 4.99 4.99 0 0 0 2.447 2.836 7.207 7.207 0 0 0-2.11.63c.46.379.948.72 1.46 1.022.49.288 1.028.545 1.596.53.463-.012.9-.204 1.318-.404.418-.2.84-.416 1.298-.48.165-.024.335-.028.499.002.164.03.324.095.456.198a.829.829 0 0 1 .248.31c.055.122.077.26.059.392a.929.929 0 0 1-.205.44c-.102.129-.224.24-.34.354-.753.742-1.302 1.662-1.826 2.58-.278.488-.962 1.648-1.662 2.83a33.05 33.05 0 0 1-3.483-5.075c-2.934-5.295-6.16-11.147-5.849-17.192.314-6.071 3.127-12.476 7.62-16.57 4.676-4.26 11.577-6.312 17.901-6.292 5.335.018 10.698 2.34 15.064 5.406 1.631 1.145 3.81 4.608 3.81 4.608l2.482.886s-3.008-5.196-5.317-7a39.668 39.668 0 0 0-4.08-2.802c.93-.956 1.979-2.032 2.304-2.338.554-.522 1.204-.951 1.926-1.188.163-.054.331-.097.503-.1a.792.792 0 0 1 .484.138.703.703 0 0 1 .224.287.948.948 0 0 1 .074.36c.007.362-.158.704-.333 1.021-.331.601-.717 1.172-1.148 1.706-.389.482-.814.935-1.271 1.352a1.94 1.94 0 0 0 1.899-.05 4.41 4.41 0 0 1 1.065 2.377 3.966 3.966 0 0 0 1.948-2.607 2.52 2.52 0 0 0 2.052-.368 3.81 3.81 0 0 1-1.54-1.214c-.34-.454-.577-.99-.635-1.554-.02-.188-.02-.38.017-.565.036-.186.108-.366.223-.516a.93.93 0 0 1 .663-.366.883.883 0 0 1 .507.127c.151.09.276.225.36.38.128.235.164.507.182.774.019.267.022.537.093.795.125.45.442.818.73 1.186.32.412.614.844.878 1.295a10.794 10.794 0 0 0 .064-2.197c.346.325.828.501 1.302.476.478-.026.93-.247 1.303-.547.294-.236.547-.523.745-.844a1.914 1.914 0 0 1-.564-.549c-.14-.208-.239-.441-.342-.67-.103-.23-.215-.458-.378-.649a1.486 1.486 0 0 0-.737-.466 5.906 5.906 0 0 1 1.517-1.404 1.603 1.603 0 0 0-1.193-.254c-.25.046-.485.153-.72.251-.236.099-.478.192-.732.21-.126.01-.254 0-.375-.037a.75.75 0 0 1-.322-.19.687.687 0 0 1-.18-.577.754.754 0 0 1 .203-.4.88.88 0 0 1 .387-.232c.193-.056.4-.05.6-.028.2.02.399.056.6.057.3.002.596-.074.875-.184.28-.11.544-.254.809-.395.27-.144.54-.285.812-.423a4.199 4.199 0 0 1-1.236-.871c.42-.133.795-.406 1.051-.766.357-.501.472-1.136.78-1.669.243-.42.606-.77 1.035-.997a4.36 4.36 0 0 0-1.582-.606 4.266 4.266 0 0 0-2.106.169c-.432.15-.839.37-1.2.652a24.635 24.635 0 0 1-.395-2.094 2.301 2.301 0 0 0-1.156 1.37c-.07.23-.103.47-.147.708-.044.237-.1.475-.21.69a1.395 1.395 0 0 1-.43.496c-.141.1-.305.174-.478.193a.73.73 0 0 1-.497-.115.792.792 0 0 1-.31-.528 1.518 1.518 0 0 1 .05-.623c.144-.547.46-1.047.89-1.413a1.06 1.06 0 0 0-.626-.11 1.072 1.072 0 0 0-.713.424 4.344 4.344 0 0 0-.642-3.293zm8.563 88.486a4.13 4.13 0 0 1 .408 1.803c-.016.869-.397 1.826-1.066 2.38-.413.344-1.076.596-1.566.377-.563-.252-.905-1.013-.878-1.63.038-.873.746-1.662 1.442-2.192.472-.36 1.062-.648 1.66-.738z"/><path style="fill:none;stroke:#000;stroke-width:.79374999;stroke-linecap:round;stroke-linejoin:round;stroke-miterlimit:4;stroke-dasharray:none;stroke-opacity:1" d="M155.768 106.304s.323.612.413.943c.092.338.123 1.043.123 1.043M154.146 107.744s-.24-.521-.414-.746c-.195-.251-.693-.656-.693-.656"/><path style="fill:#090;stroke:#000;stroke-width:.79374999;stroke-linecap:round;stroke-linejoin:round;stroke-miterlimit:4;stroke-dasharray:none;stroke-opacity:1;fill-opacity:1" d="M124.983 155.09s6.071-4.216 9.453-5.638c1.149-.483 2.41-1.275 3.613-.954.503.134.975.594 1.112 1.097.148.542-.065 1.203-.43 1.629-1.486 1.729-4.081 2.095-6.271 2.726-2.422.698-7.477 1.14-7.477 1.14z"/><path style="fill:#000;fill-rule:evenodd;stroke:none;stroke-width:.2645818" d="M101.688 119.908c.77-.504 1.605-.908 2.478-1.2 2.89-.964 6.029-.663 9.064-.379.944.09 1.889.176 2.833.26a21.17 21.17 0 0 1-.656-2.354c-.42-1.923-.57-3.905-1.136-5.79a13.638 13.638 0 0 0-1.871-3.871 8.97 8.97 0 0 1 2.657 3.546c.82 1.983.9 4.187 1.466 6.257.2.729.46 1.442.777 2.128a16.93 16.93 0 0 0 2.89.112 4.697 4.697 0 0 1 .21-2.935c.318-.766.834-1.433 1.38-2.057.545-.625 1.128-1.22 1.611-1.894a8.19 8.19 0 0 0 1.412-3.37 7.009 7.009 0 0 1-.723 3.873c-.399.782-.941 1.48-1.43 2.209-.49.729-.937 1.51-1.107 2.372a4.048 4.048 0 0 0 .13 2.049c.437-.02.875-.026 1.312-.02.279.004.562.013.828.097.293.094.55.273.823.418.076.042.156.08.223.137.034.028.064.06.087.098.023.037.04.079.044.122a.297.297 0 0 1-.077.226.422.422 0 0 1-.209.122.836.836 0 0 1-.361 0c-.12-.021-.237-.055-.357-.073-.398-.059-.798.059-1.197.116a3.988 3.988 0 0 1-.743.036 3.685 3.685 0 0 0-.11 1.788c.222 1.18 1.006 2.18 1.88 3.005.873.825 1.86 1.53 2.668 2.42a8.422 8.422 0 0 1 1.75 2.994 14.068 14.068 0 0 0-2.589-2.842c-.838-.699-1.755-1.298-2.596-1.993-.842-.694-1.62-1.504-2.073-2.496a4.841 4.841 0 0 1-.353-2.88 4.278 4.278 0 0 0-1.756-.15 3.28 3.28 0 0 0-1.42 1.487c-.437.929-.41 1.999-.414 3.026-.005 1.716-.119 3.446-.568 5.102a12.856 12.856 0 0 1-1.913 4.06 15.203 15.203 0 0 0 1.308-4.428c.203-1.496.182-3.015.091-4.522-.07-1.17-.175-2.388.265-3.474.183-.453.459-.87.805-1.215a194.41 194.41 0 0 1-2.936-.214c-3.311-.266-6.641-.619-9.946-.282-.823.084-1.642.21-2.45.378"/><path style="fill:gold;fill-rule:evenodd;stroke-width:.2645818" d="m144.568 90.634-6.495-8.942-2.3-6.233-3.924-5.554-1.488-6.64-.677-6.232 1.624-7.587 3.789-2.844 6.9-1.355 8.66.677 4.466 3.388a53.036 53.036 0 0 1 8.66 10.974 1235.723 1235.723 0 0 0-7.173 10.84l-2.57 7.18a2025.256 2025.256 0 0 1-7.037 12.87l-2.436-.541"/><ellipse style="fill:gold;stroke:#000;stroke-width:1.322909;stroke-linecap:round;stroke-linejoin:round" cx="129.88" cy="-53.413" transform="scale(1 -1)" rx="3.766" ry="3.771"/><ellipse style="fill:gold;stroke:#000;stroke-width:1.322909;stroke-linecap:round;stroke-linejoin:round" cx="160.148" cy="-65.199" transform="scale(1 -1)" rx="3.766" ry="3.771"/><ellipse style="fill:gold;stroke:#000;stroke-width:1.322909;stroke-linecap:round;stroke-linejoin:round" cx="132.992" cy="-48.157" transform="scale(1 -1)" rx="3.766" ry="3.771"/><ellipse style="fill:gold;stroke:#000;stroke-width:1.322909;stroke-linecap:round;stroke-linejoin:round" cx="138.304" cy="-47.073" transform="scale(1 -1)" rx="3.766" ry="3.771"/><ellipse style="fill:gold;stroke:#000;stroke-width:1.322909;stroke-linecap:round;stroke-linejoin:round" cx="158.279" cy="-52.689" transform="scale(1 -1)" rx="3.766" ry="3.771"/><ellipse style="fill:gold;stroke:#000;stroke-width:1.322909;stroke-linecap:round;stroke-linejoin:round" cx="163.1" cy="-59.09" transform="scale(1 -1)" rx="3.766" ry="3.771"/><ellipse style="fill:gold;stroke:#000;stroke-width:1.322909;stroke-linecap:round;stroke-linejoin:round" cx="152.964" cy="-46.187" transform="scale(1 -1)" rx="4.061" ry="4.066"/><ellipse style="fill:gold;stroke:#000;stroke-width:1.322909;stroke-linecap:round;stroke-linejoin:round" cx="145.044" cy="-45.35" transform="scale(1 -1)" rx="4.012" ry="4.017"/><ellipse style="fill:gold;stroke:#000;stroke-width:1.322909;stroke-linecap:round;stroke-linejoin:round" cx="131.712" cy="-68.253" transform="scale(1 -1)" rx="3.766" ry="3.771"/><ellipse style="fill:gold;stroke:#000;stroke-width:1.322909;stroke-linecap:round;stroke-linejoin:round" cx="154.835" cy="-76.135" transform="scale(1 -1)" rx="3.766" ry="3.771"/><ellipse style="fill:gold;stroke:#000;stroke-width:1.322909;stroke-linecap:round;stroke-linejoin:round" cx="149.916" cy="-85.888" transform="scale(1 -1)" rx="3.766" ry="3.771"/><ellipse style="fill:gold;stroke:#000;stroke-width:1.322909;stroke-linecap:round;stroke-linejoin:round" cx="142.536" cy="-86.183" transform="scale(1 -1)" rx="3.766" ry="3.771"/><ellipse style="fill:gold;stroke:#000;stroke-width:1.322909;stroke-linecap:round;stroke-linejoin:round" cx="146.226" cy="-90.271" transform="scale(1 -1)" rx="4.11" ry="4.115"/><ellipse style="fill:gold;stroke:#000;stroke-width:1.322909;stroke-linecap:round;stroke-linejoin:round" cx="143.422" cy="-79.976" transform="scale(1 -1)" rx="3.766" ry="3.771"/><ellipse style="fill:gold;stroke:#000;stroke-width:1.322909;stroke-linecap:round;stroke-linejoin:round" cx="156.901" cy="-70.223" transform="scale(1 -1)" rx="4.16" ry="4.165"/><ellipse style="fill:gold;stroke:#000;stroke-width:1.322909;stroke-linecap:round;stroke-linejoin:round" cx="135.206" cy="-75.21" transform="scale(1 -1)" rx="3.913" ry="3.918"/><ellipse style="fill:gold;stroke:#000;stroke-width:1.322909;stroke-linecap:round;stroke-linejoin:round" cx="139.387" cy="-82.943" transform="scale(1 -1)" rx="3.963" ry="3.968"/><ellipse style="fill:gold;stroke:#000;stroke-width:1.322909;stroke-linecap:round;stroke-linejoin:round" cx="152.128" cy="-80.431" transform="scale(1 -1)" rx="4.012" ry="4.017"/><ellipse style="fill:gold;stroke:#000;stroke-width:1.322909;stroke-linecap:round;stroke-linejoin:round" cx="149.324" cy="-72.993" transform="scale(1 -1)" rx="3.766" ry="3.771"/><ellipse style="fill:gold;stroke:#000;stroke-width:1.322909;stroke-linecap:round;stroke-linejoin:round" cx="143.815" cy="-73.288" transform="scale(1 -1)" rx="4.061" ry="4.066"/><ellipse style="fill:gold;stroke:#000;stroke-width:1.322909;stroke-linecap:round;stroke-linejoin:round" cx="139.387" cy="-67.278" transform="scale(1 -1)" rx="3.766" ry="3.771"/><ellipse style="fill:gold;stroke:#000;stroke-width:1.322909;stroke-linecap:round;stroke-linejoin:round" cx="143.619" cy="-55.555" transform="scale(1 -1)" rx="3.766" ry="3.771"/><ellipse style="fill:gold;stroke:#000;stroke-width:1.322909;stroke-linecap:round;stroke-linejoin:round" cx="149.029" cy="-58.806" transform="scale(1 -1)" rx="3.766" ry="3.771"/><ellipse style="fill:gold;stroke:#000;stroke-width:1.322909;stroke-linecap:round;stroke-linejoin:round" cx="148.538" cy="-65.407" transform="scale(1 -1)" rx="3.766" ry="3.771"/><ellipse style="fill:gold;stroke:#000;stroke-width:1.322909;stroke-linecap:round;stroke-linejoin:round" cx="154.737" cy="-60.186" transform="scale(1 -1)" rx="4.356" ry="4.362"/><ellipse style="fill:gold;stroke:#000;stroke-width:1.322909;stroke-linecap:round;stroke-linejoin:round" cx="130.581" cy="-60.826" transform="scale(1 -1)" rx="4.209" ry="4.214"/><ellipse style="fill:gold;stroke:#000;stroke-width:1.322909;stroke-linecap:round;stroke-linejoin:round" cx="147.848" cy="-52.403" transform="scale(1 -1)" rx="3.963" ry="3.968"/><ellipse style="fill:gold;stroke:#000;stroke-width:1.322909;stroke-linecap:round;stroke-linejoin:round" cx="136.73" cy="-56.047" transform="scale(1 -1)" rx="4.16" ry="4.165"/><ellipse style="fill:gold;stroke:#000;stroke-width:1.322909;stroke-linecap:round;stroke-linejoin:round" cx="143.568" cy="-61.22" transform="scale(1 -1)" rx="4.209" ry="4.214"/><path style="fill:#000;fill-rule:evenodd;stroke:none;stroke-width:.2645818" d="M98.065 23.018c.38.239.73.527 1.036.855 1.016 1.084 1.522 2.539 2.013 3.943.153.437.307.874.463 1.31.287-.274.591-.532.909-.772.766-.578 1.614-1.05 2.334-1.686a6.664 6.664 0 0 0 1.334-1.62 4.387 4.387 0 0 1-1.03 1.903c-.712.768-1.672 1.254-2.474 1.928a6.673 6.673 0 0 0-.785.779 8.283 8.283 0 0 0 .54 1.305 2.29 2.29 0 0 1 1.343-.506c.404-.015.804.077 1.192.192.388.114.77.251 1.167.328a3.987 3.987 0 0 0 1.78-.062c-.559.331-1.214.497-1.862.47-.428-.017-.848-.115-1.27-.183-.423-.069-.86-.107-1.277-.007-.328.08-.635.245-.881.476.097.19.19.383.276.579.055.124.108.251.125.387.019.149-.008.3-.018.45-.003.043-.004.086-.015.127a.216.216 0 0 1-.025.059.143.143 0 0 1-.046.044.144.144 0 0 1-.115.012.206.206 0 0 1-.097-.068.408.408 0 0 1-.073-.16c-.015-.057-.024-.116-.04-.173-.056-.189-.19-.342-.296-.508a1.945 1.945 0 0 1-.167-.322 1.796 1.796 0 0 0-.814.317c-.478.34-.761.89-.95 1.447-.187.556-.298 1.138-.528 1.678-.223.523-.555 1-.97 1.388a6.882 6.882 0 0 0 .732-1.729c.139-.514.217-1.044.354-1.559.136-.515.337-1.026.684-1.43.313-.363.74-.627 1.204-.744a2.093 2.093 0 0 0-.29-.81 1.596 1.596 0 0 0-.949-.326c-.5-.004-.97.226-1.425.434-.761.348-1.55.651-2.376.79a6.258 6.258 0 0 1-2.188-.02 7.404 7.404 0 0 0 2.228-.323c.704-.216 1.373-.535 2.022-.884.504-.27 1.022-.565 1.593-.591.238-.012.479.026.702.109a94.624 94.624 0 0 1-.503-1.347c-.556-1.523-1.078-3.073-1.9-4.47a11.716 11.716 0 0 0-.667-1.01M152.525 24.287a5.243 5.243 0 0 0-1.32.243c-1.415.454-2.565 1.48-3.677 2.468-.346.308-.693.614-1.04.92-.119-.38-.259-.753-.42-1.116-.389-.879-.9-1.703-1.22-2.608a6.664 6.664 0 0 1-.378-2.065 4.387 4.387 0 0 0-.025 2.164c.248 1.017.852 1.908 1.225 2.887.131.344.234.7.307 1.062a8.279 8.279 0 0 1-1.106.879 2.29 2.29 0 0 0-.928-1.095c-.345-.21-.74-.324-1.135-.412-.394-.089-.795-.155-1.18-.28a3.987 3.987 0 0 1-1.526-.92c.328.56.82 1.024 1.4 1.316.382.193.797.312 1.2.457.402.146.803.325 1.118.615.248.228.436.522.539.844a11 11 0 0 0-.523.371 1.395 1.395 0 0 0-.297.278c-.089.121-.139.266-.204.402-.018.039-.038.077-.048.118a.195.195 0 0 0-.006.064.134.134 0 0 0 .018.061c.02.035.056.058.095.066.039.009.08.003.117-.012a.408.408 0 0 0 .142-.104c.041-.043.078-.09.12-.132.14-.138.331-.207.504-.3.107-.057.209-.124.303-.2.238.173.431.407.558.672.253.53.232 1.149.126 1.726-.106.577-.292 1.14-.354 1.724-.06.565 0 1.143.173 1.684a6.883 6.883 0 0 1 .2-1.866c.13-.518.318-1.018.45-1.535.13-.516.204-1.06.096-1.582a2.362 2.362 0 0 0-.69-1.236 2.091 2.091 0 0 1 .648-.566c.337-.05.688.013.987.176.44.24.737.668 1.034 1.072.497.674 1.04 1.323 1.693 1.845a6.258 6.258 0 0 0 1.922 1.046 7.403 7.403 0 0 1-1.79-1.365c-.51-.531-.94-1.135-1.338-1.755-.309-.481-.619-.99-1.104-1.292a1.786 1.786 0 0 0-.667-.246c.367-.308.732-.618 1.094-.932 1.227-1.06 2.436-2.161 3.833-2.983.348-.204.707-.391 1.074-.558M122.026 65.34c-.425.143-.832.34-1.208.587-1.242.816-2.075 2.11-2.883 3.36-.252.39-.504.778-.757 1.165-.216-.334-.45-.656-.703-.964-.609-.742-1.322-1.4-1.872-2.187a6.664 6.664 0 0 1-.916-1.889c.006.73.198 1.456.554 2.092.51.914 1.33 1.612 1.951 2.455.22.297.413.613.58.942a8.28 8.28 0 0 1-.83 1.142 2.29 2.29 0 0 0-1.187-.807c-.39-.11-.8-.114-1.204-.094-.404.02-.808.063-1.212.045a3.987 3.987 0 0 1-1.716-.479 3.414 3.414 0 0 0 1.7.895c.42.084.852.087 1.278.12.427.033.861.098 1.242.293.3.155.56.388.745.67-.14.162-.274.328-.404.497-.083.108-.165.22-.213.347-.053.141-.062.294-.088.442-.007.042-.017.085-.016.127.001.022.004.043.012.063.007.02.018.04.033.054.028.028.07.041.11.039a.205.205 0 0 0 .11-.043.408.408 0 0 0 .109-.139c.027-.052.05-.107.08-.159.097-.17.263-.288.405-.424.088-.083.168-.175.239-.273.275.103.524.276.717.498.385.443.53 1.045.582 1.63.052.585.024 1.177.12 1.755.093.562.305 1.102.617 1.577a6.881 6.881 0 0 1-.306-1.852c-.014-.533.034-1.066.023-1.599-.012-.532-.087-1.076-.33-1.55a2.362 2.362 0 0 0-.995-1.007 2.09 2.09 0 0 1 .473-.718c.311-.138.667-.171.998-.094.488.113.89.447 1.283.756.659.518 1.355.998 2.124 1.326.675.289 1.4.457 2.132.495a7.403 7.403 0 0 1-2.09-.838c-.634-.375-1.208-.843-1.758-1.333-.426-.381-.86-.79-1.409-.95a1.786 1.786 0 0 0-.708-.059c.271-.395.54-.791.805-1.19.899-1.35 1.77-2.734 2.897-3.9.28-.29.577-.565.886-.824"/></g></svg>