<svg xmlns="http://www.w3.org/2000/svg" width="681.907" height="741.769" viewBox="0 0 180.421 196.26"><g transform="translate(177.901 -110.424)"><path style="fill:#03f;fill-opacity:1;stroke:#000;stroke-width:2.9104166;stroke-linecap:round;stroke-linejoin:round;stroke-miterlimit:4;stroke-dasharray:none;stroke-opacity:1" d="M1.065 111.879.659 222.111c-1.976 46.368-41.01 83.091-88.35 83.117-47.296-.057-86.345-36.793-88.35-83.117l-.405-110.232h88.753z"/><path style="fill:#fff;stroke:#000;stroke-width:1.32291663;stroke-linecap:round;stroke-linejoin:round;stroke-miterlimit:4;stroke-dasharray:none;stroke-opacity:1" d="m-111.424 167.276-2.522 7.276-7.566-1.455 23.953 36.124 2.72-1.571 2.73-1.571zm47.467 0L-83.27 206.08l2.728 1.57 2.72 1.572 23.954-36.124-7.566 1.455zm-81.293 46.939 5.044 5.812-5.044 5.821 43.268-2.679V216.886zm115.119 0-43.26 2.67v6.284l43.26 2.68-5.036-5.822zm-67.436 16.619-23.945 36.132 7.557-1.455 2.53 7.276 19.307-38.803-2.72-1.57zm19.753 0-2.729 1.58-2.72 1.57 19.306 38.803 2.53-7.276 7.558 1.455z"/><path style="fill:#fff;stroke:#000;stroke-width:1.32291663;stroke-linecap:round;stroke-linejoin:round;stroke-miterlimit:4;stroke-dasharray:none;stroke-dashoffset:3.1181097;stroke-opacity:1" d="M-87.695 157.453c-34.56 0-62.574 28.013-62.574 62.574 0 34.561 28.013 62.583 62.574 62.583 34.561 0 62.583-28.022 62.583-62.583 0-34.56-28.022-62.574-62.583-62.574zm0 14.081c26.786 0 48.502 21.707 48.502 48.493 0 26.787-21.716 48.502-48.502 48.502s-48.501-21.715-48.501-48.502c0-26.786 21.715-48.493 48.501-48.493zm0 28.228c-11.193 0-20.265 9.08-20.265 20.274 0 11.193 9.072 20.265 20.265 20.265 11.193 0 20.274-9.072 20.274-20.265 0-11.193-9.08-20.274-20.274-20.274zm0 12.981a7.294 7.294 0 0 1 7.293 7.293c0 4.026-3.266 7.284-7.293 7.284a7.28 7.28 0 0 1-7.284-7.284c0-4.026 3.258-7.293 7.284-7.293z"/><circle cy="220.032" cx="-87.69" style="fill:none;stroke:#000;stroke-width:.79374999;stroke-linecap:round;stroke-linejoin:round;stroke-miterlimit:4;stroke-dasharray:none;stroke-dashoffset:3.1181097;stroke-opacity:1" r="58.41"/><circle cy="220.032" cx="-87.69" style="fill:none;stroke:#000;stroke-width:.79374993;stroke-linecap:round;stroke-linejoin:round;stroke-miterlimit:4;stroke-dasharray:none;stroke-dashoffset:3.1181097;stroke-opacity:1" r="16.413"/><g transform="matrix(.9375 0 0 .9375 -85.637 76.948)"><rect ry="2.469" y="95.105" x="-4.659" height="140.869" width="4.937" style="fill:gold;fill-opacity:1;stroke:#000;stroke-width:.84666663;stroke-linecap:round;stroke-linejoin:round;stroke-miterlimit:4;stroke-dasharray:none;stroke-dashoffset:3.1181097;stroke-opacity:1" rx="2.469"/><rect rx="2.318" ry="1.906" y="229.323" x="-6.573" height="3.93" width="8.766" style="fill:gold;fill-opacity:1;stroke:#000;stroke-width:.84666669;stroke-linecap:round;stroke-linejoin:round;stroke-miterlimit:4;stroke-dasharray:none;stroke-dashoffset:3.1181097;stroke-opacity:1"/><rect rx="2.817" ry="2.208" y="92.135" x="-8.722" height="4.854" width="13.063" style="fill:gold;fill-opacity:1;stroke:#000;stroke-width:.84666663;stroke-linecap:round;stroke-linejoin:round;stroke-miterlimit:4;stroke-dasharray:none;stroke-dashoffset:3.1181097;stroke-opacity:1"/><rect rx="3.422" ry="2.964" y="85.357" x="-11.619" height="6.778" width="18.859" style="fill:gold;fill-opacity:1;stroke:#000;stroke-width:.84666657;stroke-linecap:round;stroke-linejoin:round;stroke-miterlimit:4;stroke-dasharray:none;stroke-dashoffset:3.1181097;stroke-opacity:1"/></g><rect style="fill:gold;fill-opacity:1;stroke:#000;stroke-width:.79374987;stroke-linecap:round;stroke-linejoin:round;stroke-miterlimit:4;stroke-dasharray:none;stroke-dashoffset:3.1181097;stroke-opacity:1" width="17.68" height="5.985" x="-96.531" y="126.923" ry="2.647" rx="2.641"/><rect style="fill:gold;fill-opacity:1;stroke:#000;stroke-width:.79374999;stroke-linecap:round;stroke-linejoin:round;stroke-miterlimit:4;stroke-dasharray:none;stroke-dashoffset:3.1181097;stroke-opacity:1" width="15.308" height="9.467" x="-95.344" y="117.456" rx="4.25" ry="4.128"/><path style="fill:gold;fill-opacity:1;stroke:#000;stroke-width:.79374999;stroke-linecap:round;stroke-linejoin:round;stroke-miterlimit:4;stroke-dasharray:none;stroke-dashoffset:3.1181097;stroke-opacity:1" d="M-93.813 132.908c-1.504 0-2.72 1.61-2.72 3.605v16.86c0 1.994 1.216 3.604 2.72 3.604h12.245c1.504 0 2.72-1.61 2.72-3.605v-16.859c0-1.995-1.216-3.605-2.72-3.605zm.595 1.447h1.009c.424 0 .769.454.769 1.017v19.133c0 .563-.345 1.017-.77 1.017h-1.008c-.424 0-.769-.454-.769-1.017v-19.133c0-.563.345-1.017.77-1.017zm5.027 0h1.009c.425 0 .769.454.769 1.017v19.133c0 .563-.344 1.017-.769 1.017h-1.009c-.424 0-.769-.454-.769-1.017v-19.133c0-.563.345-1.017.77-1.017zm5.027 0h1.01c.424 0 .768.454.768 1.017v19.133c0 .563-.344 1.017-.769 1.017h-1.009c-.424 0-.769-.454-.769-1.017v-19.133c0-.563.345-1.017.77-1.017z"/></g></svg>