<svg xmlns="http://www.w3.org/2000/svg" width="700.211" height="791.22" viewBox="0 0 185.264 209.344"><g transform="translate(-3.84 -56.897)"><path style="fill:#03f;fill-opacity:1;fill-rule:evenodd;stroke:none;stroke-width:3.10444427;stroke-opacity:1" d="m187.54 58.449-.924 117.58c-2.016 49.46-41.844 88.631-90.144 88.66-48.257-.062-88.1-39.247-90.144-88.66L5.404 58.45H96.47z"/><path style="fill:#fff;stroke:#000;stroke-width:2.11666667;stroke-linecap:butt;stroke-linejoin:round;stroke-miterlimit:4;stroke-dasharray:none;stroke-opacity:1" d="M72.411 151.032c-2.676 0-2.867 4.134-3.726 6.423-7.03 18.738-8.583 38.844-11.178 58.49-.948 7.178-.928 14.434-1.596 21.637h33c-.667-7.203-.648-14.46-1.596-21.637-2.595-19.646-4.146-39.752-11.178-58.49-.859-2.289-1.05-6.423-3.726-6.423zm48.121 0c-2.676 0-2.867 4.134-3.726 6.423-7.03 18.738-8.582 38.844-11.177 58.49-.948 7.178-.929 14.434-1.597 21.637h33c-.667-7.203-.648-14.46-1.596-21.637-2.595-19.646-4.146-39.752-11.178-58.49-.859-2.289-1.05-6.423-3.726-6.423z"/><path style="fill:#fff;stroke:#000;stroke-width:2.11666667;stroke-linecap:butt;stroke-linejoin:round;stroke-miterlimit:4;stroke-dasharray:none;stroke-opacity:1" d="M96.472 122.246c-3.1 0-3.322 5.302-4.317 8.238-8.146 24.031-9.944 49.818-12.95 75.013-1.099 9.206-1.076 18.512-1.85 27.751h38.234c-.774-9.239-.752-18.545-1.85-27.75-3.007-25.196-4.804-50.983-12.95-75.014-.996-2.936-1.217-8.238-4.317-8.238z"/><path style="fill:#fff;stroke:#000;stroke-width:11;stroke-linecap:round;stroke-linejoin:round;stroke-miterlimit:4;stroke-dasharray:none;stroke-opacity:1" d="m5.912 5.867 3.492 444.399c2.202 53.223 16.02 103.298 38.858 147.714a1312.122 1312.122 0 0 0 53.861-60.64c65.906-79.024 122.563-166.005 165.492-259.522 39.642-86.356 67.476-178.123 82.483-271.95H5.912zm344.186 0c15.007 93.828 42.838 185.595 82.48 271.951 42.929 93.517 99.586 180.498 165.492 259.522a1311.882 1311.882 0 0 0 53.953 60.74c22.82-44.433 36.612-94.54 38.784-147.814l3.492-444.399H350.098z" transform="matrix(.26458 0 0 .26458 3.84 56.897)"/><path style="fill:none;fill-rule:evenodd;stroke:#000;stroke-width:3.10444427;stroke-opacity:1" d="m187.54 58.449-.924 117.58c-2.016 49.46-41.844 88.631-90.144 88.66-48.257-.062-88.1-39.247-90.144-88.66L5.404 58.45H96.47z"/><path style="fill:red;fill-opacity:1;stroke:#000;stroke-width:7.99999952;stroke-linecap:round;stroke-linejoin:round;stroke-miterlimit:4;stroke-dasharray:none;stroke-opacity:1" d="M115.332 5.867v159.117H7.164l.842 107.194h107.326v249.054c39.675-49.16 75.75-101.282 107.193-156.039v-93.015h47.65a1049.004 1049.004 0 0 0 41.514-107.194h-89.164V5.867H115.332z" transform="matrix(.26458 0 0 .26458 3.84 56.897)"/><path style="fill:red;stroke:#000;stroke-width:2.11666667;stroke-linecap:butt;stroke-linejoin:round;stroke-miterlimit:4;stroke-dasharray:none;stroke-opacity:1;fill-opacity:1" d="M139.073 86.676c-.112 0-.224.004-.335.01-1.463.075-2.891.576-4.127 1.363-1.236.786-2.284 1.852-3.12 3.055-1.741 2.507-2.557 5.607-2.474 8.66.06 2.196.603 4.444 1.944 6.185a7.854 7.854 0 0 0 5.656 3.004 7.939 7.939 0 0 1-2.121-6.362c.119-.972.431-1.939 1.035-2.71a3.715 3.715 0 0 1 1.1-.957c.428-.239.91-.383 1.4-.398a3.246 3.246 0 0 1 1.658.427c.505.28.941.675 1.307 1.122.731.895 1.176 1.983 1.63 3.046 2.237 5.247 4.963 10.42 5.655 16.082.536 4.39-.247 9.014-2.651 12.725-.578.891-1.257 1.737-2.125 2.35-.869.612-1.947.974-3 .83-.782-.106-1.516-.488-2.091-1.028-.576-.54-.997-1.234-1.267-1.976a6.061 6.061 0 0 1-.177-3.534 7.299 7.299 0 0 0-3.04 2.393 7.299 7.299 0 0 0-1.378 3.616c-.203 2.149.586 4.33 1.944 6.008.67.828 1.48 1.55 2.415 2.06.936.51 2 .8 3.064.768.947-.029 1.878-.312 2.71-.763.834-.452 1.57-1.07 2.206-1.772 1.272-1.405 2.133-3.125 2.952-4.835 1.802-3.765 3.486-7.628 4.326-11.717 1.506-7.333.22-14.924-1.237-22.267-.698-3.515-1.468-7.108-3.383-10.136-.957-1.515-2.2-2.867-3.714-3.825-1.42-.898-3.085-1.437-4.762-1.424zm29.782 0c-1.677-.013-3.343.526-4.762 1.424-1.514.958-2.757 2.31-3.714 3.825-1.915 3.028-2.685 6.621-3.383 10.136-1.457 7.343-2.743 14.934-1.237 22.267.84 4.089 2.524 7.952 4.326 11.717.818 1.71 1.68 3.43 2.952 4.835.636.702 1.372 1.32 2.205 1.772.833.451 1.764.734 2.711.763 1.065.032 2.128-.259 3.063-.768.936-.51 1.746-1.232 2.416-2.06 1.357-1.678 2.147-3.86 1.944-6.008a7.299 7.299 0 0 0-1.378-3.616 7.297 7.297 0 0 0-3.04-2.393 6.061 6.061 0 0 1-.177 3.534c-.27.742-.69 1.436-1.266 1.976-.576.54-1.31.922-2.092 1.029-1.053.143-2.132-.22-3-.832-.869-.612-1.547-1.458-2.125-2.35-2.405-3.71-3.188-8.335-2.651-12.724.692-5.662 3.417-10.835 5.655-16.082.454-1.063.899-2.15 1.63-3.046a4.591 4.591 0 0 1 1.307-1.122 3.248 3.248 0 0 1 1.658-.427c.49.015.972.16 1.4.398.427.24.799.572 1.1.957.604.771.916 1.738 1.035 2.71a7.938 7.938 0 0 1-2.12 6.362 7.853 7.853 0 0 0 5.654-3.004c1.341-1.741 1.884-3.989 1.944-6.186.084-3.052-.732-6.152-2.474-8.66-.836-1.202-1.883-2.268-3.119-3.054-1.235-.787-2.664-1.288-4.126-1.363a7.51 7.51 0 0 0-.336-.01z"/><path style="fill:red;stroke:#000;stroke-width:2.11666667;stroke-linecap:butt;stroke-linejoin:round;stroke-miterlimit:4;stroke-dasharray:none;stroke-opacity:1;fill-opacity:1" d="M153.964 65.165a34.019 34.019 0 0 0-5.278 7.741c-3.079 6.213-4.19 13.329-3.518 20.23.495 5.075 1.918 10.004 3.12 14.96 1.204 4.954 2.197 10.04 1.806 15.123-.421 5.475-2.43 10.722-2.99 16.184-.388 3.775-.07 7.634 1.054 11.259a26.165 26.165 0 0 0 5.806 10.027 26.165 26.165 0 0 0 5.805-10.027c1.124-3.625 1.443-7.484 1.056-11.259-.56-5.462-2.57-10.71-2.991-16.184-.391-5.084.602-10.17 1.805-15.124 1.203-4.955 2.626-9.884 3.12-14.959.673-6.901-.439-14.017-3.517-20.23a34.019 34.019 0 0 0-5.278-7.74z"/><ellipse style="fill:red;fill-opacity:1;stroke:#000;stroke-width:2.11666667;stroke-linecap:round;stroke-linejoin:round;stroke-miterlimit:4;stroke-dasharray:none;stroke-opacity:1" cx="153.964" cy="123.622" rx="10.957" ry="3.358"/><g style="stroke:#000;stroke-opacity:1;fill:gold;fill-opacity:1"><path d="M-158.709 224.46v2.384c0 9.74 6.944 17.582 15.57 17.582h79.69c8.625 0 15.569-7.841 15.569-17.582v-2.384zM-139.479 251.903v-.893c0-3.647 4.534-6.584 10.166-6.584h52.036c5.632 0 10.167 2.937 10.167 6.584v.893z" style="fill:gold;fill-opacity:1;stroke:#000;stroke-width:1.32299995;stroke-linecap:round;stroke-linejoin:round;stroke-miterlimit:4;stroke-dasharray:none;stroke-opacity:1" transform="translate(199.766)"/></g><g style="stroke:#000;stroke-opacity:1;stroke-width:2.11666667;stroke-miterlimit:4;stroke-dasharray:none"><path d="M-103.866 134.115a27.402 27.402 0 0 0-2.459 4.631c-2.231 5.396-2.68 11.34-2.992 17.172a466.1 466.1 0 0 0-.414 9.57" style="fill:none;stroke:#000;stroke-width:2.11666667;stroke-linecap:round;stroke-linejoin:round;stroke-miterlimit:4;stroke-dasharray:none;stroke-opacity:1" transform="translate(200.338)"/><path d="M-103.866 134.115a27.402 27.402 0 0 0-2.459 4.631c-2.231 5.396-2.68 11.34-2.992 17.172a466.1 466.1 0 0 0-.414 9.57" style="fill:none;stroke:#000;stroke-width:2.11666667;stroke-linecap:round;stroke-linejoin:round;stroke-miterlimit:4;stroke-dasharray:none;stroke-opacity:1" transform="matrix(-1 0 0 1 -7.394 0)"/></g><g style="stroke-width:1.69051461;stroke:#000;stroke-opacity:1;stroke-miterlimit:4;stroke-dasharray:none"><path d="M-103.866 134.115a27.402 27.402 0 0 0-2.459 4.631c-2.231 5.396-2.68 11.34-2.992 17.172a466.1 466.1 0 0 0-.414 9.57" style="fill:none;stroke:#000;stroke-width:1.69051461;stroke-linecap:round;stroke-linejoin:round;stroke-miterlimit:4;stroke-dasharray:none;stroke-opacity:1" transform="matrix(1.26044 0 0 1.24379 227.389 1.46)"/><path d="M-103.866 134.115a27.618 27.618 0 0 0-2.459 4.631c-2.236 5.395-2.703 11.339-2.992 17.172a337.675 337.675 0 0 0-.414 16.378" style="fill:none;stroke:#000;stroke-width:1.69051461;stroke-linecap:round;stroke-linejoin:round;stroke-miterlimit:4;stroke-dasharray:none;stroke-opacity:1" transform="matrix(-1.26044 0 0 1.24379 -34.445 1.46)"/></g><g style="stroke-width:2.11666667;stroke-miterlimit:4;stroke-dasharray:none"><path transform="matrix(.6448 0 0 .66887 187.998 77.717)" d="M-103.866 134.115a27.402 27.402 0 0 0-2.459 4.631c-2.231 5.396-2.68 11.34-2.992 17.172a466.1 466.1 0 0 0-.414 9.57" style="fill:none;stroke:#000;stroke-width:3.22307829;stroke-linecap:round;stroke-linejoin:round;stroke-miterlimit:4;stroke-dasharray:none;stroke-opacity:1"/><path d="M-103.866 134.115a27.402 27.402 0 0 0-2.459 4.631c-2.231 5.396-2.68 11.34-2.992 17.172a466.1 466.1 0 0 0-.414 9.57" style="fill:none;stroke:#000;stroke-width:3.22307829;stroke-linecap:round;stroke-linejoin:round;stroke-miterlimit:4;stroke-dasharray:none;stroke-opacity:1" transform="matrix(-.6448 0 0 .66887 54.053 77.717)"/><path d="M-103.866 134.115a27.402 27.402 0 0 0-2.459 4.631c-2.231 5.396-2.68 11.34-2.992 17.172a466.1 466.1 0 0 0-.414 9.57" style="fill:none;stroke:#000;stroke-width:2.57417055;stroke-linecap:round;stroke-linejoin:round;stroke-miterlimit:4;stroke-dasharray:none;stroke-opacity:1" transform="matrix(.81272 0 0 .83193 205.44 78.694)"/><path d="M-103.866 134.115a27.618 27.618 0 0 0-2.459 4.631c-2.236 5.395-2.703 11.339-2.992 17.172a337.675 337.675 0 0 0-.414 16.378" style="fill:none;stroke:#000;stroke-width:2.57417055;stroke-linecap:round;stroke-linejoin:round;stroke-miterlimit:4;stroke-dasharray:none;stroke-opacity:1" transform="matrix(-.81272 0 0 .83193 36.611 78.694)"/><g style="stroke-width:2.11666667;stroke-miterlimit:4;stroke-dasharray:none"><path transform="matrix(.6448 0 0 .66887 138.89 77.717)" d="M-103.866 134.115a27.402 27.402 0 0 0-2.459 4.631c-2.231 5.396-2.68 11.34-2.992 17.172a466.1 466.1 0 0 0-.414 9.57" style="fill:none;stroke:#000;stroke-width:3.22307831;stroke-linecap:round;stroke-linejoin:round;stroke-miterlimit:4;stroke-dasharray:none;stroke-opacity:1"/><path d="M-103.866 134.115a27.402 27.402 0 0 0-2.459 4.631c-2.231 5.396-2.68 11.34-2.992 17.172a466.1 466.1 0 0 0-.414 9.57" style="fill:none;stroke:#000;stroke-width:3.22307831;stroke-linecap:round;stroke-linejoin:round;stroke-miterlimit:4;stroke-dasharray:none;stroke-opacity:1" transform="matrix(-.6448 0 0 .66887 4.946 77.717)"/><g style="stroke:#000;stroke-width:2.57417055;stroke-opacity:1;stroke-miterlimit:4;stroke-dasharray:none"><path d="M-103.866 134.115a27.402 27.402 0 0 0-2.459 4.631c-2.231 5.396-2.68 11.34-2.992 17.172a466.1 466.1 0 0 0-.414 9.57" style="fill:none;stroke:#000;stroke-width:2.57417055;stroke-linecap:round;stroke-linejoin:round;stroke-miterlimit:4;stroke-dasharray:none;stroke-opacity:1" transform="matrix(.81272 0 0 .83193 156.332 78.694)"/><path d="M-103.866 134.115a27.618 27.618 0 0 0-2.459 4.631c-2.236 5.395-2.703 11.339-2.992 17.172a337.675 337.675 0 0 0-.414 16.378" style="fill:none;stroke:#000;stroke-width:2.57417055;stroke-linecap:round;stroke-linejoin:round;stroke-miterlimit:4;stroke-dasharray:none;stroke-opacity:1" transform="matrix(-.81272 0 0 .83193 -12.496 78.694)"/></g></g></g></g></svg>