<?xml version="1.0" encoding="UTF-8" standalone="no"?>
<!-- Created with Inkscape (http://www.inkscape.org/) -->

<svg
   xmlns:dc="http://purl.org/dc/elements/1.1/"
   xmlns:cc="http://creativecommons.org/ns#"
   xmlns:rdf="http://www.w3.org/1999/02/22-rdf-syntax-ns#"
   xmlns:svg="http://www.w3.org/2000/svg"
   xmlns="http://www.w3.org/2000/svg"
   xmlns:sodipodi="http://sodipodi.sourceforge.net/DTD/sodipodi-0.dtd"
   xmlns:inkscape="http://www.inkscape.org/namespaces/inkscape"
   width="192.21178mm"
   height="209.34361mm"
   viewBox="0 0 192.21178 209.34361"
   version="1.1"
   id="svg5281"
   inkscape:version="0.92.4 (5da689c313, 2019-01-14)"
   sodipodi:docname="DEU Schladt COA.svg">
  <defs
     id="defs5275">
    <inkscape:path-effect
       effect="spiro"
       id="path-effect6471"
       is_visible="true" />
    <inkscape:path-effect
       effect="spiro"
       id="path-effect6355"
       is_visible="true" />
    <inkscape:path-effect
       effect="spiro"
       id="path-effect6332"
       is_visible="true" />
    <inkscape:path-effect
       effect="spiro"
       id="path-effect6113"
       is_visible="true" />
    <inkscape:path-effect
       effect="spiro"
       id="path-effect6113-6"
       is_visible="true" />
    <inkscape:path-effect
       effect="spiro"
       id="path-effect6332-7"
       is_visible="true" />
    <inkscape:path-effect
       effect="spiro"
       id="path-effect6355-0"
       is_visible="true" />
    <inkscape:path-effect
       effect="spiro"
       id="path-effect6471-4"
       is_visible="true" />
  </defs>
  <sodipodi:namedview
     id="base"
     pagecolor="#ffffff"
     bordercolor="#666666"
     borderopacity="1.0"
     inkscape:pageopacity="0.0"
     inkscape:pageshadow="2"
     inkscape:zoom="0.69260134"
     inkscape:cx="363.23485"
     inkscape:cy="395.60998"
     inkscape:document-units="mm"
     inkscape:current-layer="layer1"
     showgrid="false"
     inkscape:window-width="1366"
     inkscape:window-height="745"
     inkscape:window-x="-8"
     inkscape:window-y="-8"
     inkscape:window-maximized="1"
     fit-margin-top="0"
     fit-margin-left="0"
     fit-margin-right="0"
     fit-margin-bottom="0"
     inkscape:snap-midpoints="true"
     inkscape:snap-smooth-nodes="true"
     inkscape:snap-nodes="true" />
  <metadata
     id="metadata5278">
    <rdf:RDF>
      <cc:Work
         rdf:about="">
        <dc:format>image/svg+xml</dc:format>
        <dc:type
           rdf:resource="http://purl.org/dc/dcmitype/StillImage" />
        <dc:title></dc:title>
      </cc:Work>
    </rdf:RDF>
  </metadata>
  <g
     inkscape:label="Ebene 1"
     inkscape:groupmode="layer"
     id="layer1"
     transform="translate(-0.92828757,-21.273901)">
    <path
       style="fill:#0033ff;fill-opacity:1;fill-rule:evenodd;stroke:none;stroke-width:3.10444427;stroke-opacity:1"
       inkscape:connector-curvature="0"
       d="m 191.57513,22.826126 -0.959,117.580684 c -2.09267,49.45939 -43.43961,88.6308 -93.582009,88.65848 -50.09718,-0.0606 -91.4595903,-39.24616 -93.5819003,-88.65848 l -0.959,-117.580684 H 97.031861 Z"
       id="path10563-0-6-7-1-3"
       sodipodi:nodetypes="ccccccc" />
    <path
       style="fill:#ffd700;stroke:none;stroke-width:11;stroke-linecap:round;stroke-linejoin:round;stroke-miterlimit:4;stroke-dasharray:none;stroke-opacity:1;fill-opacity:1"
       d="M 5.9140625 5.8671875 L 9.5390625 450.26562 C 12.314045 514.87368 32.84856 574.84969 66.349609 625.68359 C 86.559186 609.30601 105.79387 591.7261 123.89062 573.03906 C 195.67013 498.91823 249.02936 408.34898 288.02734 312.82227 C 327.98766 214.9383 353.41765 111.13771 363.22656 5.8671875 L 5.9140625 5.8671875 z "
       transform="matrix(0.26458333,0,0,0.26458333,0.92828757,21.273901)"
       id="path6111" />
    <path
       style="fill:#ffffff;stroke:#000000;stroke-width:11;stroke-linecap:round;stroke-linejoin:round;stroke-miterlimit:4;stroke-dasharray:none;stroke-opacity:1"
       d="M 363.22656 5.8671875 C 373.03547 111.13771 398.46546 214.9383 438.42578 312.82227 C 477.42377 408.34898 530.78104 498.91823 602.56055 573.03906 C 620.69238 591.76233 639.96619 609.37466 660.21875 625.7793 C 693.69653 574.93511 714.19367 514.93021 716.92969 450.26562 L 720.55469 5.8671875 L 363.22656 5.8671875 z "
       transform="matrix(0.26458333,0,0,0.26458333,0.92828757,21.273901)"
       id="path6111-8" />
    <path
       style="fill:none;fill-rule:evenodd;stroke:#000000;stroke-width:3.10444427;stroke-opacity:1"
       inkscape:connector-curvature="0"
       d="m 191.57513,22.826123 -0.959,117.580687 c -2.09267,49.45939 -43.43961,88.6308 -93.582008,88.65848 C 46.936943,229.00469 5.5745296,189.81913 3.4522208,140.40681 L 2.4932214,22.826123 H 97.031862 Z"
       id="path10563-0-6-7-1"
       sodipodi:nodetypes="ccccccc" />
    <path
       style="fill:#ff0000;stroke:#000000;stroke-width:5;stroke-linecap:round;stroke-linejoin:round;stroke-miterlimit:4;stroke-dasharray:none;stroke-opacity:1;fill-opacity:1"
       d="M 68.589844 123.15625 L 7.7949219 236.26562 L 8.4726562 319.5293 L 8.5898438 333.92969 L 17.025391 349.62305 L 68.589844 253.69531 L 120.15039 349.62109 L 171.71289 253.69336 L 223.27344 349.62109 L 223.27734 349.62305 L 274.83984 253.69531 L 295.91797 292.91016 C 306.0322 266.64479 315.10717 239.98143 323.13086 213.00391 L 274.83789 123.15625 L 223.27539 219.08594 L 171.71289 123.15625 L 120.15234 219.08398 L 68.589844 123.15625 z "
       transform="matrix(0.26458333,0,0,0.26458333,0.92828757,21.273901)"
       id="path6156-8" />
    <path
       inkscape:connector-curvature="0"
       style="fill:none;fill-opacity:1;stroke:#000000;stroke-width:2.9104166;stroke-linecap:round;stroke-linejoin:round;stroke-miterlimit:4;stroke-dasharray:none;stroke-opacity:1"
       d="m 2.4930496,22.826258 0.959115,117.580422 c 0.734214,17.09421 6.167304,32.96287 15.0311234,46.41267 5.347117,-4.33324 10.436293,-8.98459 15.224392,-13.92887 C 52.699342,153.27935 66.817305,129.31623 77.13552,104.04146 87.708355,78.14299 94.436706,50.679083 97.031981,22.826258 Z"
       id="path6111-4" />
    <path
       inkscape:connector-curvature="0"
       style="fill:#000000;stroke:#ffffff;stroke-width:0.79375;stroke-linecap:butt;stroke-linejoin:round;stroke-opacity:1;stroke-miterlimit:4;stroke-dasharray:none"
       d="m 150.22893,39.473312 c -3.07457,2.147552 -5.52576,5.176243 -6.9851,8.630997 -1.45934,3.454755 -1.92165,7.324294 -1.31775,11.025683 0.68808,4.217341 2.69302,8.082036 4.38836,12.004436 1.69535,3.922401 3.12413,8.161089 2.55902,12.396658 -0.35932,2.693112 -1.50359,5.207037 -2.53163,7.72201 -1.02803,2.514976 -1.96537,5.15229 -1.8743,7.867738 0.0633,1.887826 0.63688,3.756276 1.64331,5.354706 1.00642,1.59844 2.44307,2.92311 4.11809,3.79615 1.67502,-0.87304 3.11219,-2.19771 4.11861,-3.79615 1.00643,-1.59843 1.57949,-3.46688 1.6428,-5.354706 0.0911,-2.715448 -0.84576,-5.352762 -1.87379,-7.867738 -1.02803,-2.514973 -2.17231,-5.028898 -2.53163,-7.72201 -0.56511,-4.235569 0.86367,-8.474257 2.55902,-12.396658 1.69534,-3.9224 3.70028,-7.787095 4.38836,-12.004436 0.6039,-3.701389 0.14159,-7.570928 -1.31775,-11.025683 -1.45933,-3.454754 -3.91104,-6.483445 -6.98562,-8.630997 z"
       id="path6330-1" />
    <path
       style="fill:#000000;stroke:#ffffff;stroke-width:0.79375;stroke-linecap:butt;stroke-linejoin:round;stroke-opacity:1;stroke-miterlimit:4;stroke-dasharray:none"
       d="m 131.74789,64.382386 c -2.19698,0.04786 -4.37994,0.746197 -6.12779,2.072741 -1.16523,0.884362 -2.13086,2.034196 -2.78123,3.3445 -0.65036,1.310301 -0.98221,2.780024 -0.93586,4.242117 0.0649,2.046142 0.88595,4.059817 2.27067,5.567619 1.38471,1.507803 3.32147,2.497294 5.35471,2.73575 -0.60529,-1.842178 -0.34989,-3.947687 0.67799,-5.591906 0.61908,-0.99029 1.50513,-1.813242 2.54248,-2.349727 1.03736,-0.536485 2.22355,-0.784437 3.38843,-0.700733 1.91094,0.137316 3.69251,1.161894 4.98109,2.579687 1.28857,1.417794 2.11816,3.203469 2.64428,5.045686 0.73708,2.580897 0.90577,5.340808 0.339,7.964372 -0.26955,1.24773 -0.71277,2.477833 -1.46968,3.505729 -0.75691,1.027898 -1.85293,1.841905 -3.10575,2.086694 -1.03408,0.202052 -2.13198,0.0042 -3.05925,-0.496093 -0.92727,-0.500312 -1.68481,-1.293043 -2.19418,-2.215367 -0.78963,-1.429822 -0.97678,-3.180279 -0.50798,-4.744932 -1.44316,0.658527 -2.66298,1.796219 -3.42046,3.189986 -0.75748,1.393767 -1.04842,3.035708 -0.81597,4.604888 0.2686,1.813234 1.24108,3.513513 2.66909,4.662765 1.428,1.149248 3.29727,1.735688 5.12578,1.607128 1.38841,-0.0976 2.73703,-0.5952 3.89847,-1.36219 1.16144,-0.766979 2.13848,-1.797743 2.90577,-2.958983 1.53457,-2.322486 2.21589,-5.112129 2.5156,-7.879625 0.34195,-3.157429 0.22022,-6.363071 -0.33899,-9.489343 -0.61397,-3.432405 -1.7818,-6.819352 -3.84628,-9.629386 -2.06448,-2.810033 -5.09166,-5.004305 -8.52351,-5.621361 -0.71987,-0.129437 -1.45411,-0.18597 -2.18643,-0.170016 z m 36.9626,0 c -0.73233,-0.01595 -1.46656,0.04058 -2.18643,0.170016 -3.43185,0.617056 -6.45903,2.811328 -8.52351,5.621361 -2.06448,2.810034 -3.23231,6.196981 -3.84628,9.629386 -0.55921,3.126272 -0.68094,6.331914 -0.33899,9.489343 0.29971,2.767496 0.98103,5.557139 2.51561,7.879625 0.76729,1.16124 1.74432,2.192004 2.90576,2.958983 1.16144,0.76699 2.51006,1.26458 3.89847,1.36219 1.82851,0.12856 3.69779,-0.45788 5.12579,-1.607128 1.428,-1.149252 2.40048,-2.849531 2.66908,-4.662765 0.23245,-1.56918 -0.0585,-3.211121 -0.81597,-4.604888 -0.75748,-1.393767 -1.9773,-2.531459 -3.42046,-3.189986 0.4688,1.564653 0.28166,3.31511 -0.50798,4.744932 -0.50937,0.922324 -1.26691,1.715055 -2.19418,2.215367 -0.92727,0.500313 -2.02517,0.698145 -3.05924,0.496093 -1.25283,-0.244789 -2.34885,-1.058796 -3.10576,-2.086694 -0.75691,-1.027896 -1.19961,-2.257999 -1.46916,-3.505729 -0.56677,-2.623564 -0.3986,-5.383475 0.33848,-7.964372 0.52612,-1.842217 1.35571,-3.627892 2.64428,-5.045686 1.28858,-1.417793 3.07067,-2.442371 4.98161,-2.579687 1.16487,-0.0837 2.35055,0.164248 3.38791,0.700733 1.03736,0.536485 1.92392,1.359437 2.543,2.349727 1.02787,1.644219 1.28276,3.749728 0.67747,5.591906 2.03324,-0.238456 3.97,-1.227947 5.35472,-2.73575 1.38471,-1.507802 2.20579,-3.521477 2.27066,-5.567619 0.0464,-1.462093 -0.2855,-2.931816 -0.93586,-4.242117 -0.65036,-1.310304 -1.616,-2.460138 -2.78123,-3.3445 -1.74785,-1.326544 -3.9308,-2.02488 -6.12779,-2.072741 z"
       id="path6353-0"
       inkscape:connector-curvature="0" />
    <rect
       style="fill:#000000;fill-opacity:1;stroke:#ffffff;stroke-width:0.79374999;stroke-linecap:round;stroke-linejoin:round;stroke-miterlimit:4;stroke-dasharray:none;stroke-opacity:1"
       id="rect6378-4"
       width="18.639967"
       height="6.6087155"
       x="140.90921"
       y="82.514503"
       ry="2.7112679"
       rx="2.7112679" />
    <g
       id="g6558"
       transform="translate(-1.9529196,2.1166667)">
      <path
         inkscape:connector-curvature="0"
         id="rect6449"
         d="m 123.87964,131.44576 -61.81742,81.84565 -6.88433,-5.19917 57.89001,-76.64648 z"
         style="fill:#ffd700;fill-opacity:1;stroke:#000000;stroke-width:1.32291663;stroke-linecap:round;stroke-linejoin:round;stroke-miterlimit:4;stroke-dasharray:none;stroke-opacity:1" />
      <path
         inkscape:connector-curvature="0"
         id="rect6449-7"
         d="m 74.09454,131.44575 61.81743,81.84566 6.88433,-5.19917 -57.89002,-76.64649 z"
         style="fill:#ffd700;fill-opacity:1;stroke:#000000;stroke-width:1.32291663;stroke-linecap:round;stroke-linejoin:round;stroke-miterlimit:4;stroke-dasharray:none;stroke-opacity:1" />
    </g>
    <path
       style="fill:#ffffff;stroke:#000000;stroke-width:1.32291663;stroke-linecap:butt;stroke-linejoin:round;stroke-miterlimit:4;stroke-dasharray:none;stroke-opacity:1"
       d="m 77.032814,119.11084 c -1.347589,0.58274 -2.541315,1.55499 -3.381706,2.73678 -0.84038,1.1818 -1.349915,2.64803 -1.474846,4.09277 -0.0836,0.96713 0.04231,2.01371 0.502296,2.86856 0.399349,0.74224 1.054931,1.42491 1.838132,1.73633 1.558718,0.61979 3.47354,0.61979 5.03225,0 0.783209,-0.31142 1.438781,-0.99409 1.838129,-1.73633 0.459942,-0.85485 0.585926,-1.90143 0.502296,-2.86856 -0.124939,-1.44474 -0.634466,-2.91097 -1.474846,-4.09277 -0.84039,-1.18179 -2.034116,-2.15404 -3.381705,-2.73678 z m 40.002726,0 c -1.34759,0.58274 -2.54132,1.55499 -3.3817,2.73678 -0.84038,1.1818 -1.34991,2.64803 -1.47485,4.09277 -0.0836,0.96713 0.0424,2.01371 0.5023,2.86856 0.39935,0.74224 1.05492,1.42491 1.83813,1.73633 1.55871,0.61979 3.47353,0.61979 5.03225,0 0.7832,-0.31142 1.43878,-0.99409 1.83813,-1.73633 0.45999,-0.85485 0.58589,-1.90143 0.50229,-2.86856 -0.12493,-1.44474 -0.63446,-2.91097 -1.47484,-4.09277 -0.84039,-1.18179 -2.03412,-2.15404 -3.38171,-2.73678 z"
       id="path6469"
       inkscape:connector-curvature="0"
       sodipodi:nodetypes="cccccccccccccccccccc" />
  </g>
</svg>
