<svg height="495.676" width="451.434" xmlns="http://www.w3.org/2000/svg"><path style="opacity:1;fill:#e7e7e7;fill-opacity:1;stroke:none;stroke-width:3" d="M-20536.738-21971.353v277.587c0 70.879-76.133 204.589-218.967 204.589s-218.967-133.71-218.967-204.589v-277.587z" transform="translate(20981.422 21978.103)"/><path style="opacity:1;fill:#da121a;fill-opacity:1;stroke:#000;stroke-width:2.5;stroke-miterlimit:4;stroke-dasharray:none" d="M81.082 72.668v202.28c18.36 5.889 33.94 23.445 33.94 40.894v133.887a249.802 249.802 0 0 0 20.76 27.939h2.105V315.842c0-21.333 23.211-43.135 46.431-43.135s46.434 21.802 46.434 43.135v161.826h22.863V315.842c0-21.333 23.214-43.135 46.434-43.135s46.433 21.802 46.433 43.135v161.826h22.864V315.842c0-21.333 23.213-43.135 46.433-43.135s46.434 21.802 46.434 43.135v161.826h2.103a249.802 249.802 0 0 0 20.76-27.94V315.843c0-17.449 15.58-35.005 33.94-40.895V72.668z" transform="translate(-74.332 -65.917)"/><path style="opacity:1;fill:#078930;fill-opacity:1;stroke:#000;stroke-width:3;stroke-miterlimit:4;stroke-dasharray:none" d="M299.996 396c-20.274 0-50.29 11.83-61.496 55-33.828-31.661-79.987-29.768-107.725 20.676 36.832 45.741 93.713 83.168 169.274 83.168 75.522 0 132.381-37.389 169.215-83.098-.014-.02-.024-.039-.037-.059-27.737-50.456-73.904-52.351-107.735-20.687-11.206-43.17-41.223-55-61.496-55z" transform="translate(-74.332 -65.917)"/><path style="opacity:1;fill:#e7e7e7;fill-opacity:1;stroke:#000;stroke-width:3;stroke-miterlimit:4;stroke-dasharray:none" d="M-20974.672-21824.346h437.934v22.864h-437.934z" transform="translate(20981.422 21978.103)"/><path style="opacity:1;fill:none;fill-opacity:1;stroke:#000;stroke-width:1.5" d="M-20787.053-21824.346h19.446v11.659h-19.446zm-19.445 0h19.445v11.659h-19.445zm-19.445 0h19.445v11.659h-19.445zm-19.446 0h19.446v11.659h-19.446zm-10.49 0h10.49v11.658h-10.49zm-15.201 0h15.201v11.658h-15.201zm-11.315 0h11.315v11.658h-11.315zm-16.027 0h16.027v11.658h-16.027zm-22.98 0h22.98v11.658h-22.98zm-16.854 0h16.854v11.658h-16.854zm-16.971 0h16.971v11.658h-16.971zm-19.445 0h19.446v11.659h-19.446zm69.217 11.659h18.655v11.204h-18.655zm-23.012 0h23.012v11.204h-23.012zm-18.738 0h18.738v11.204h-18.738zm-15.988 0h15.988v11.204h-15.988zm-11.479 0h11.479v11.204h-11.479zm237.705 0h23.594v11.205h-23.594zm23.594 0h23.418v11.205h-23.418zm23.418 0h15.5v11.205h-15.5zm15.5 0h15.332v11.205h-15.332zm15.332 0h18.822v11.205h-18.822zm18.822 0h19.322v11.205h-19.322zm19.322 0h18.905v11.205h-18.905zm18.905 0h15.155v11.205h-15.155zm15.154 0h23.155v11.205h-23.155zm23.154 0h16.489v11.205h-16.489zm16.489 0h10.539v11.205h-10.539zm-273.6 0h18.738v11.204h-18.738zm-17.674 0h17.673v11.204h-17.673zm-27 0h27v11.205h-27zm63.412 0h22.916v11.204h-22.916zm-84.662 0h21.25v11.204h-21.25zm107.578 0h23.519v11.204h-23.519zm208.485-11.659h15.112v11.659h-15.112zm-19.03 0h19.029v11.659h-19.029zm34.141 0h18.889v11.659h-18.889zm-53.67 0h19.529v11.659h-19.529zm-19.029 0h19.028v11.659h-19.028zm-15.361 0h15.361v11.659h-15.361zm-20.112 0h20.112v11.659h-20.112zm-22.695 0h22.695v11.659h-22.695zm-18.611 0h18.61v11.659h-18.61zm-20.362 0h20.362v11.659h-20.362zm-22.695 0h22.695v11.659h-22.695zm-7.543 11.659h18.738v11.204h-18.738zm-11.902-11.659h19.445v11.659h-19.445z" transform="translate(20981.422 21978.103)"/><path style="opacity:1;fill:#e7e7e7;fill-opacity:1;stroke:#000;stroke-width:2.5;stroke-linecap:round;stroke-miterlimit:6;stroke-dasharray:none" d="M-20838.467-21933.594c-2.61 8.555-5.451 17.853-7.189 26.074-3.014 14.257-8.896 27.59-29.667 35-17.133 6.113-30.686 17.729-42.166 32.833 16.838-7.345 31.035-13.672 41.833-15.833 38.04-7.613 49.532-16.466 63.167-26.833 3.286 14.737-3.761 26.48-16.167 38.666 9.687-3.921 25.873-1.821 52.578-33.532.91-1.081 1.985-.877 2.397.475 4.377 14.363 6.966 27.984 17.976 37.224 11.011-9.24 13.599-22.861 17.977-37.224.412-1.352 1.486-1.556 2.396-.475 26.705 31.711 42.891 29.611 52.578 33.532-12.406-12.186-19.453-23.929-16.167-38.666 13.635 10.367 25.127 19.22 63.167 26.833 10.798 2.161 24.995 8.488 41.833 15.833-11.48-15.104-25.033-26.72-42.166-32.833-20.771-7.41-26.653-20.743-29.667-35-1.738-8.221-4.567-17.518-7.177-26.073" transform="translate(20981.422 21978.103)"/><g transform="translate(20981.422 21978.103)"><ellipse style="opacity:1;fill:#e7e7e7;fill-opacity:1;stroke:#000;stroke-width:2.5;stroke-miterlimit:4;stroke-dasharray:none" cx="-20755.705" cy="-21932.354" rx="82.951" ry="18.394"/><ellipse style="opacity:1;fill:none;fill-opacity:1;stroke:#000;stroke-width:2.25;stroke-miterlimit:4;stroke-dasharray:none" ry="16.155" rx="73.258" cy="-21932.354" cx="-20755.705"/><ellipse style="opacity:1;fill:none;fill-opacity:1;stroke:#000;stroke-width:2;stroke-miterlimit:4;stroke-dasharray:none" ry="14.269" rx="65.096" cy="-21932.354" cx="-20755.705"/><ellipse style="opacity:1;fill:none;fill-opacity:1;stroke:#000;stroke-width:1.75;stroke-miterlimit:4;stroke-dasharray:none" ry="11.794" rx="54.383" cy="-21932.354" cx="-20755.705"/><ellipse style="opacity:1;fill:none;fill-opacity:1;stroke:#000;stroke-width:1.5;stroke-miterlimit:4;stroke-dasharray:none" ry="7.198" rx="34.487" cy="-21932.354" cx="-20755.705"/><ellipse style="opacity:1;fill:none;fill-opacity:1;stroke:#000;stroke-width:1.25;stroke-miterlimit:4;stroke-dasharray:none" ry="3.898" rx="20.203" cy="-21932.354" cx="-20755.705"/></g><path style="opacity:1;fill:none;stroke:#000;stroke-width:3.5;stroke-miterlimit:4;stroke-dasharray:none" d="M-20536.738-21971.353v277.587c0 70.879-76.133 204.589-218.967 204.589s-218.967-133.71-218.967-204.589v-277.587z" transform="translate(20981.422 21978.103)"/></svg>