<?xml version="1.0" encoding="UTF-8" standalone="no"?>
<!-- Created with Inkscape (http://www.inkscape.org/) -->

<svg
   xmlns:dc="http://purl.org/dc/elements/1.1/"
   xmlns:cc="http://creativecommons.org/ns#"
   xmlns:rdf="http://www.w3.org/1999/02/22-rdf-syntax-ns#"
   xmlns:svg="http://www.w3.org/2000/svg"
   xmlns="http://www.w3.org/2000/svg"
   xmlns:xlink="http://www.w3.org/1999/xlink"
   xmlns:sodipodi="http://sodipodi.sourceforge.net/DTD/sodipodi-0.dtd"
   xmlns:inkscape="http://www.inkscape.org/namespaces/inkscape"
   width="178.39049mm"
   height="219.98222mm"
   viewBox="0 0 178.39049 219.98222"
   version="1.1"
   id="svg1037"
   inkscape:version="0.92.4 (5da689c313, 2019-01-14)"
   sodipodi:docname="DEU Schönberg COA.svg">
  <defs
     id="defs1031">
    <inkscape:path-effect
       effect="spiro"
       id="path-effect1753"
       is_visible="true" />
    <inkscape:path-effect
       effect="spiro"
       id="path-effect1712"
       is_visible="true" />
    <inkscape:path-effect
       effect="spiro"
       id="path-effect1712-5"
       is_visible="true" />
  </defs>
  <sodipodi:namedview
     id="base"
     pagecolor="#ffffff"
     bordercolor="#666666"
     borderopacity="1.0"
     inkscape:pageopacity="0.0"
     inkscape:pageshadow="2"
     inkscape:zoom="0.65910628"
     inkscape:cx="337.11589"
     inkscape:cy="415.71443"
     inkscape:document-units="mm"
     inkscape:current-layer="layer1"
     showgrid="false"
     inkscape:window-width="1366"
     inkscape:window-height="745"
     inkscape:window-x="-8"
     inkscape:window-y="-8"
     inkscape:window-maximized="1"
     inkscape:snap-midpoints="true"
     inkscape:snap-smooth-nodes="true"
     inkscape:snap-nodes="false"
     fit-margin-top="0"
     fit-margin-left="0"
     fit-margin-right="0"
     fit-margin-bottom="0" />
  <metadata
     id="metadata1034">
    <rdf:RDF>
      <cc:Work
         rdf:about="">
        <dc:format>image/svg+xml</dc:format>
        <dc:type
           rdf:resource="http://purl.org/dc/dcmitype/StillImage" />
        <dc:title></dc:title>
      </cc:Work>
    </rdf:RDF>
  </metadata>
  <g
     inkscape:label="Ebene 1"
     inkscape:groupmode="layer"
     id="layer1"
     transform="translate(193.57208,0.35447061)">
    <path
       style="fill:#ff0000;fill-opacity:1;stroke:none;stroke-width:10.99999905;stroke-linecap:butt;stroke-linejoin:round;stroke-miterlimit:4;stroke-dasharray:none;stroke-opacity:1"
       d="m -394.49609,4.1601562 c -19.40503,13.2482178 -41.08165,22.9260088 -63.71485,28.4453128 -19.40514,4.732113 -39.43963,6.412839 -59.37304,5.988281 -22.43008,-0.477734 -44.78918,-3.607301 -66.61329,-8.982422 -19.32832,-4.760428 -38.24923,-11.281564 -56.47461,-19.46289 -9.25338,15.822898 -21.6544,29.668083 -36.20312,40.421874 -14.69511,10.861996 -31.56977,18.558386 -49.23633,22.457032 14.21232,21.396419 25.91149,44.577226 34.75586,68.869136 17.13812,47.07148 23.40279,97.94914 21.7207,148.21485 -1.38055,41.25493 -8.08251,82.47266 -21.7207,121.26953 -7.90475,22.48681 -18.11704,44.10586 -30.41015,64.37695 5.04645,30.25664 13.31779,59.93614 24.61718,88.33008 18.36817,46.1569 46.03478,90.18275 86.88672,116.77734 40.74069,26.52218 90.74856,33.45839 133.22461,56.89063 35.17067,19.40216 64.38874,50.14054 82.54102,86.83398 18.15227,-36.69344 47.3723,-67.43182 82.54297,-86.83398 42.47605,-23.43224 92.48391,-30.36845 133.2246,-56.89063 40.85194,-26.59459 68.51855,-70.62044 86.886723,-116.77734 11.29939,-28.39394 19.570733,-58.07344 24.617188,-88.33008 -12.293117,-20.27109 -22.50541,-41.89014 -30.410157,-64.37695 -13.638194,-38.79687 -20.340154,-80.0146 -21.720704,-121.26953 -1.68208,-50.26571 4.58259,-101.14337 21.720704,-148.21485 8.844372,-24.29191 20.543545,-47.472717 34.75586,-68.869136 -17.666563,-3.898646 -34.541219,-11.595036 -49.236324,-22.457032 -14.54873,-10.753791 -26.94974,-24.598976 -36.20313,-40.421874 -18.22537,8.181326 -37.14628,14.702462 -56.47461,19.46289 -21.8241,5.375121 -44.1832,8.504688 -66.61328,8.982422 -19.93342,0.424558 -39.9679,-1.256168 -59.37305,-5.988281 -22.6332,-5.519304 -44.31177,-15.197095 -63.71679,-28.4453128 z"
       transform="scale(0.26458333)"
       id="path1710"
       inkscape:connector-curvature="0" />
    <path
       style="fill:#ffd700;fill-opacity:1;stroke:#000000;stroke-width:8;stroke-linecap:round;stroke-linejoin:round;stroke-miterlimit:4;stroke-dasharray:none;stroke-opacity:1"
       d="m -394.49414,409.88281 a 319.63842,234.98908 0 0 0 -301.3418,157.44531 c 18.3654,44.96936 45.67976,87.56585 85.57422,113.53711 40.7407,26.5222 90.74854,33.45839 133.22461,56.89063 35.17066,19.40217 64.38874,50.14055 82.54102,86.83398 18.15226,-36.69343 47.37227,-67.43181 82.54297,-86.83398 42.47603,-23.43224 92.48393,-30.36843 133.2246,-56.89063 39.89858,-25.97391 67.21464,-68.57635 85.580082,-113.55078 A 319.63842,234.98908 0 0 0 -394.49414,409.88281 Z"
       transform="scale(0.26458333)"
       id="path1733"
       inkscape:connector-curvature="0" />
    <path
       style="fill:#000000;stroke:#000000;stroke-width:0.26458332px;stroke-linecap:butt;stroke-linejoin:miter;stroke-opacity:1"
       d="m -102.56344,117.15428 c -1.7019,2.18236 -3.55787,4.24455 -5.54952,6.16614 -1.74989,1.68834 -3.60447,3.26816 -5.54953,4.72738 1.17506,1.39073 2.08655,3.00338 2.67199,4.72737 0.73687,2.16992 0.95333,4.4949 0.82215,6.78276 -0.30952,5.39799 -2.49404,10.49128 -4.72737,15.41534 -1.70484,3.75884 -3.46604,7.52006 -4.52183,11.51013 -0.51641,1.95162 -0.86074,3.94873 -1.02769,5.9606 1.6985,3.10401 3.55138,6.12352 5.54952,9.04366 1.24611,1.82111 2.54869,3.60358 3.90522,5.34399 l 20.759337,0.61662 c 1.196186,-3.4543 2.639861,-6.82288 4.316296,-10.07136 1.580027,-3.06167 3.366755,-6.01664 5.343988,-8.83814 -1.785682,-4.68716 -2.96333,-9.60557 -3.494145,-14.59319 -0.363056,-3.41133 -0.424991,-6.85261 -0.887729,-10.25185 -0.462739,-3.39925 -1.354499,-6.80825 -3.223031,-9.68533 -2.013283,-3.09996 -4.793923,-5.61574 -7.193828,-8.42706 z"
       id="path1751"
       inkscape:connector-curvature="0"
       inkscape:path-effect="#path-effect1753"
       inkscape:original-d="m -102.56344,117.15428 c 0,0 -3.56775,4.23765 -5.54952,6.16614 -1.74154,1.69472 -5.54953,4.72738 -5.54953,4.72738 0,0 2.10683,3.00778 2.67199,4.72737 0.71109,2.16361 1.02337,4.5142 0.82215,6.78276 -0.47487,5.35362 -2.95555,10.34115 -4.72737,15.41534 -1.35893,3.89173 -3.41226,7.54011 -4.52183,11.51013 -0.5427,1.94177 -1.02769,5.9606 -1.02769,5.9606 0,0 3.57959,6.10617 5.54952,9.04366 1.22883,1.83239 3.90522,5.34399 3.90522,5.34399 l 20.759337,0.61662 c 0,0 2.647969,-6.82221 4.316296,-10.07136 1.572535,-3.06259 5.343988,-8.83814 5.343988,-8.83814 0,0 -2.406615,-9.71096 -3.494145,-14.59319 -1.475333,-6.62319 -1.128932,-13.84194 -4.11076,-19.93718 -1.622999,-3.31762 -4.795885,-5.61804 -7.193828,-8.42706 z"
       sodipodi:nodetypes="cacaaaacaccacaaac" />
    <path
       style="fill:#ffd700;fill-opacity:1;stroke:#000000;stroke-width:2.11666656;stroke-linecap:butt;stroke-linejoin:round;stroke-miterlimit:4;stroke-dasharray:none;stroke-opacity:1"
       d="m -140.57333,72.453975 c -1.10651,0.02777 -2.13597,0.687396 -3.05253,1.307931 -1.07793,0.729792 -1.9442,1.748054 -2.76107,2.761588 -0.50597,0.627783 -1.30793,2.034501 -1.30793,2.034501 0,0 -1.05683,-2.169623 -2.03502,-2.761589 -1.0903,-0.659812 -2.56742,-0.977855 -3.77858,-0.581361 -1.43247,0.46895 -2.25188,2.024174 -3.19774,3.197739 -1.01194,1.255564 -1.74696,2.711034 -2.61586,4.069519 -0.6807,1.064241 -1.34547,2.138688 -2.03502,3.197219 -0.38136,0.585439 -1.1622,1.744081 -1.1622,1.744081 0,0 -2.59946,-1.283449 -3.9243,-1.017508 -1.49148,0.299384 -2.78249,1.500584 -3.63338,2.761588 -0.92687,1.373635 -1.01378,3.165306 -1.30793,4.796089 -0.28496,1.579808 -0.13832,3.218656 -0.43614,4.796089 -0.29014,1.536679 -1.10759,2.954719 -1.30793,4.505669 -0.24212,1.87443 0.12098,3.77802 0.14521,5.66787 0.0168,1.30793 0.0997,2.62008 0,3.92431 -0.0486,0.63535 -0.0756,1.28959 -0.29094,1.88929 -0.80033,2.22855 -2.41282,4.07492 -3.63337,6.10402 -1.49037,2.47766 -3.72535,4.62825 -4.50515,7.41247 -0.18292,0.65311 -0.19277,1.38423 0,2.0345 0.32844,1.10796 1.88929,2.9068 1.88929,2.9068 0,0 3.07256,-4.05959 4.35994,-6.24923 1.12009,-1.90512 1.99046,-3.94773 2.9068,-5.95881 0.72006,-1.58032 1.18326,-3.28269 2.03502,-4.79609 0.73197,-1.30058 2.61585,-3.63389 2.61585,-3.63389 0,0 4.33559,0.13348 6.39496,-0.43563 1.38875,-0.38378 3.85145,-1.96216 3.85145,-1.96216 0,0 3.3517,1.91175 5.15937,1.74409 1.82496,-0.16928 3.43125,-1.46548 4.79609,-2.68873 0.93102,-0.83445 2.18023,-3.05201 2.18023,-3.05201 0,0 3.4807,2.00382 5.30459,1.67122 1.69711,-0.30947 2.90803,-1.92171 4.06952,-3.19723 0.8731,-0.95881 2.10736,-3.27008 2.10736,-3.27008 0,0 2.75619,0.44485 3.92431,-0.14573 1.07696,-0.54449 1.64472,-1.791432 2.25257,-2.833933 0.61856,-1.06082 1.3808,-3.415294 1.3808,-3.415294 0,0 1.87732,-0.203449 2.61586,-0.726573 1.03638,-0.734089 1.68545,-1.955188 2.18023,-3.124874 0.29797,-0.704416 0.43615,-2.252575 0.43615,-2.252575 0,0 3.10293,-0.692402 3.92379,-1.889808 0.687,-1.002138 0.29094,-3.633369 0.29094,-3.633369 0,0 1.67087,-1.229543 2.47065,-1.889289 0.90002,-0.742437 2.3478,-1.189924 2.61586,-2.325439 0.11988,-0.50782 -0.21035,-1.086258 -0.58136,-1.453142 -1.14508,-1.132353 -2.90155,-1.596144 -4.50515,-1.744081 -1.57061,-0.144893 -4.65088,0.871781 -4.65088,0.871781 0,0 -1.42443,-0.749472 -2.18023,-1.017508 -0.75304,-0.267057 -2.32544,-0.581361 -2.32544,-0.581361 0,0 -0.82743,-1.24174 -1.45314,-1.59835 -0.73054,-0.416354 -1.6395,-0.636355 -2.47065,-0.509014 -0.98606,0.151072 -1.82568,0.845447 -2.61638,1.453658 -0.71967,0.553577 -1.88929,1.962155 -1.88929,1.962155 0,0 -1.36213,-1.958144 -2.32544,-2.616379 -1.15169,-0.786945 -2.52936,-1.488139 -3.92379,-1.45314 z m 72.392997,0 c -1.394431,-0.035 -2.772619,0.666195 -3.924308,1.45314 -0.963311,0.658235 -2.325442,2.616379 -2.325442,2.616379 0,0 -1.169619,-1.408578 -1.889289,-1.962155 -0.790702,-0.608211 -1.629801,-1.302586 -2.615861,-1.453658 -0.831151,-0.127341 -1.74063,0.09266 -2.471166,0.509014 -0.625713,0.35661 -1.453142,1.59835 -1.453142,1.59835 0,0 -1.572397,0.314304 -2.325438,0.581361 -0.755801,0.268036 -2.180231,1.017508 -2.180231,1.017508 0,0 -3.079752,-1.016674 -4.650361,-0.871781 -1.603603,0.147937 -3.36059,0.611728 -4.505669,1.744081 -0.371009,0.366884 -0.701239,0.945322 -0.581358,1.453142 0.268059,1.135517 1.715841,1.583002 2.615861,2.325439 0.79978,0.659746 2.471166,1.889289 2.471166,1.889289 0,0 -0.396579,2.631231 0.290422,3.633369 0.82086,1.197406 3.924308,1.889808 3.924308,1.889808 0,0 0.137663,1.548156 0.435631,2.252575 0.494782,1.169686 1.14385,2.390785 2.180231,3.124874 0.738539,0.523127 2.615861,0.726573 2.615861,0.726573 0,0 0.762241,2.354474 1.380791,3.415294 0.607865,1.042504 1.176134,2.289443 2.253094,2.833933 1.16812,0.59058 3.923792,0.14573 3.923792,0.14573 0,0 1.234263,2.31127 2.107364,3.27008 1.161489,1.27552 2.37241,2.88776 4.069519,3.19723 1.823889,0.3326 5.305102,-1.67122 5.305102,-1.67122 0,0 1.248693,2.21756 2.179712,3.05201 1.36484,1.22325 2.97113,2.51945 4.796091,2.68873 1.807671,0.16766 5.159891,-1.74409 5.159891,-1.74409 0,0 2.462178,1.57838 3.850929,1.96216 2.059368,0.56911 6.394957,0.43563 6.394957,0.43563 0,0 1.884397,2.33331 2.616378,3.63389 0.85176,1.5134 1.314442,3.21577 2.0345,4.79609 0.916331,2.01108 1.78671,4.05369 2.9068,5.95881 1.28738,2.18964 4.359941,6.24923 4.359941,6.24923 0,0 1.561368,-1.79884 1.889808,-2.9068 0.192769,-0.65027 0.182919,-1.38139 0,-2.0345 -0.779801,-2.78422 -3.015297,-4.93481 -4.505669,-7.41247 -1.220549,-2.0291 -2.833039,-3.87547 -3.633369,-6.10402 -0.215371,-0.5997 -0.24234,-1.25394 -0.290939,-1.88929 -0.0997,-1.30423 -0.0168,-2.61638 0,-3.92431 0.02423,-1.88985 0.387848,-3.79344 0.145727,-5.66787 -0.200339,-1.55095 -1.018317,-2.96899 -1.308446,-4.505669 -0.297831,-1.577433 -0.150672,-3.216281 -0.435634,-4.796089 -0.29415,-1.630783 -0.381566,-3.422454 -1.308447,-4.796089 -0.850878,-1.261004 -2.141889,-2.462204 -3.633369,-2.761588 -1.324851,-0.265941 -3.923792,1.017508 -3.923792,1.017508 0,0 -0.781359,-1.158642 -1.162719,-1.744081 -0.689541,-1.058531 -1.354318,-2.132978 -2.035019,-3.197219 -0.8689,-1.358485 -1.60392,-2.813955 -2.615861,-4.069519 -0.945851,-1.173565 -1.76475,-2.728789 -3.19722,-3.197739 -1.211159,-0.396494 -2.688796,-0.07845 -3.779097,0.581361 -0.978191,0.591966 -2.034503,2.761589 -2.034503,2.761589 0,0 -0.80196,-1.406718 -1.30793,-2.034501 -0.81687,-1.013534 -1.68366,-2.031796 -2.761589,-2.761588 -0.916561,-0.620535 -1.9455,-1.280163 -3.052008,-1.307931 z"
       id="path1755"
       inkscape:connector-curvature="0" />
    <ellipse
       cx="102.8679"
       cy="54.929325"
       rx="2.7351246"
       ry="4.2555394"
       id="ellipse4-7"
       style="fill:#ffd700;stroke:#000000;stroke-width:1.32291663;stroke-linecap:round;stroke-linejoin:round;stroke-miterlimit:4;stroke-dasharray:none"
       transform="scale(-1,1)" />
    <path
       style="fill:#ffd700;stroke:#000000;stroke-width:1.32291663;stroke-linecap:round;stroke-linejoin:round;stroke-miterlimit:4;stroke-dasharray:none"
       inkscape:connector-curvature="0"
       id="path14-3"
       d="m -102.22874,40.681602 v 62.429118 c -1.20799,0.81798 -2.45498,1.58135 -3.73813,2.2868 V 40.680446 h 3.73813 z" />
    <rect
       ry="1.3557169"
       width="11.032171"
       height="2.7753017"
       x="98.581718"
       y="88.94706"
       rx="1.3557168"
       id="0-3"
       style="fill:#ffd700;stroke:#000000;stroke-width:1.32291663;stroke-linecap:round;stroke-linejoin:round;stroke-miterlimit:4;stroke-dasharray:none"
       transform="scale(-1,1)" />
    <rect
       ry="1.3557169"
       width="8.0114918"
       height="2.7753017"
       x="100.09206"
       y="91.723221"
       rx="1.3557168"
       id="1-6"
       style="fill:#ffd700;stroke:#000000;stroke-width:1.32291663;stroke-linecap:round;stroke-linejoin:round;stroke-miterlimit:4;stroke-dasharray:none"
       transform="scale(-1,1)" />
    <rect
       ry="1.3557169"
       width="8.0114918"
       height="2.7753017"
       x="100.09206"
       y="86.172333"
       rx="1.3557168"
       id="2-5"
       style="fill:#ffd700;stroke:#000000;stroke-width:1.32291663;stroke-linecap:round;stroke-linejoin:round;stroke-miterlimit:4;stroke-dasharray:none"
       transform="scale(-1,1)" />
    <use
       style="fill:#ffd700;stroke:#000000;stroke-width:1.32291663;stroke-miterlimit:4;stroke-dasharray:none"
       xlink:href="#0-3"
       id="use21-2"
       x="0"
       y="0"
       width="100%"
       height="100%"
       transform="translate(6.05348e-7,-26.802867)" />
    <use
       style="fill:#ffd700;stroke:#000000;stroke-width:1.32291663;stroke-miterlimit:4;stroke-dasharray:none"
       xlink:href="#1-6"
       id="use23-4"
       x="0"
       y="0"
       width="100%"
       height="100%"
       transform="translate(6.05348e-7,-26.802867)" />
    <use
       style="fill:#ffd700;stroke:#000000;stroke-width:1.32291663;stroke-miterlimit:4;stroke-dasharray:none"
       xlink:href="#2-5"
       id="use25-3"
       x="0"
       y="0"
       width="100%"
       height="100%"
       transform="translate(6.05348e-7,-26.802867)" />
    <path
       style="fill:#ffd700;fill-rule:evenodd;stroke:#000000;stroke-width:1.32291663;stroke-linejoin:round;stroke-miterlimit:4;stroke-dasharray:none"
       inkscape:connector-curvature="0"
       id="path33-4"
       d="m -102.40241,9.5674288 c 0.13523,0.6972202 0.0671,1.4340162 -0.19345,2.0935372 -0.23118,0.585277 -0.6124,1.108589 -1.09596,1.504504 0.84328,-0.400248 1.77682,-0.603188 2.7075,-0.588744 1.213544,0.01878 2.419111,0.411225 3.416419,1.112056 0.203419,-0.331349 0.496235,-0.605788 0.838018,-0.785185 0.511324,-0.268228 1.130406,-0.316327 1.676179,-0.130864 0.396161,0.134475 0.746913,0.383781 1.05012,0.675409 0.303064,0.291772 0.562143,0.62601 0.81937,0.959959 0.498085,0.646955 1.004995,1.308642 1.676178,1.766377 0.330538,0.225618 0.701789,0.399381 1.095958,0.45788 0.398012,0.05908 0.812679,-0.0029 1.176954,-0.176074 0.364133,-0.173186 0.676308,-0.457013 0.886133,-0.805118 0.03359,0.43477 -0.05139,0.877194 -0.243277,1.266753 -0.191889,0.389559 -0.490256,0.723653 -0.85268,0.957504 -0.329684,0.212185 -0.708764,0.339293 -1.095673,0.392448 -0.684422,0.09389 -1.39831,-0.04608 -1.998602,-0.392448 1.053109,0.911715 1.933263,2.02796 2.579393,3.27088 0.59232,1.140367 0.987059,2.386176 1.160442,3.663185 0.198009,-0.154262 0.43602,-0.25494 0.683425,-0.288883 0.247405,-0.03423 0.503636,-0.0017 0.735098,0.09316 0.377229,0.154553 0.677447,0.469725 0.865777,0.835595 0.18833,0.365871 0.271178,0.78013 0.294381,1.192222 0.07545,1.337385 -0.454241,2.652237 -0.386767,3.9902 0.02577,0.510457 0.146621,1.032326 0.451252,1.439361 0.238722,0.318928 0.585061,0.553068 0.966987,0.653887 -0.466767,0.322538 -1.051544,0.465102 -1.611693,0.392738 -0.504064,-0.06514 -0.983216,-0.301451 -1.353755,-0.654177 -0.41424,-0.39447 -0.691966,-0.93396 -0.773817,-1.504504 0.01694,1.019758 -0.136372,2.04096 -0.451252,3.009008 -0.647695,1.991128 -1.949918,3.693084 -3.352214,5.23312 -1.402581,1.540326 -2.926444,2.961343 -4.383971,4.44837 -0.546627,0.55769 -1.084,1.124767 -1.611694,1.7008 0.06733,0.260862 0.131959,0.522734 0.193454,0.785186 0.06064,0.258262 0.118721,0.518833 0.224345,0.76164 0.105624,0.242806 0.263491,0.46987 0.484561,0.611854 0.173526,0.111365 0.37723,0.165386 0.580222,0.196296 0.474027,0.07237 0.964852,0.02701 1.418239,-0.130864 -0.320859,0.717442 -0.904781,1.310086 -1.611694,1.635369 -0.59047,0.271839 -1.247561,0.357782 -1.895541,0.380026 -0.252814,0.0087 -0.507337,0.0081 -0.756735,-0.03467 -0.2494,-0.04275 -0.49495,-0.129276 -0.6998,-0.279927 -0.30149,-0.221573 -0.49239,-0.561302 -0.68755,-0.882973 -0.0975,-0.160908 -0.19872,-0.32037 -0.32029,-0.463513 -0.12157,-0.143142 -0.26434,-0.269962 -0.43132,-0.354316 -0.21538,-0.109053 -0.46307,-0.142564 -0.70293,-0.121908 -0.23986,0.02065 -0.47289,0.09345 -0.6951,0.18734 -0.65751,0.277906 -1.23047,0.744453 -1.67617,1.308642 -0.56129,0.709641 -0.92599,1.57788 -1.04229,2.480063 -0.11645,0.902182 0.0161,1.836142 0.37836,2.668559 -1.26663,-0.771607 -2.25298,-2.005861 -2.73526,-3.422834 -0.33197,-0.97527 -0.42848,-2.023627 -0.36485,-3.053496 0.0774,-1.246385 0.38848,-2.477174 0.91161,-3.608008 -0.3385,-0.535443 -0.77324,-1.008056 -1.27645,-1.38765 -0.94236,-0.710942 -2.08629,-1.076234 -3.19093,-1.480238 -0.98778,-0.361249 -1.96145,-0.762508 -2.91762,-1.202621 0.30178,0.232406 0.54079,0.548011 0.68428,0.903917 0.14377,0.355903 0.19132,0.750806 0.13651,1.131265 -0.0729,0.506557 -0.32997,0.983792 -0.71061,1.319764 -0.38065,0.335826 -0.88201,0.527789 -1.3865,0.530678 0.2494,-0.322249 0.40285,-0.720041 0.43517,-1.128522 0.0322,-0.40848 -0.0571,-0.825918 -0.25267,-1.184277 -0.19986,-0.365871 -0.50279,-0.663276 -0.82692,-0.92197 -0.32399,-0.258695 -0.67275,-0.484168 -0.99645,-0.743297 -0.3768,-0.30174 -0.72684,-0.660677 -0.91162,-1.11018 -0.2037,-0.495579 -0.18633,-1.070312 0,-1.572825 0.16271,-0.438812 0.45083,-0.828806 0.82051,-1.110178 -0.0646,-0.415703 -0.1879,-0.822017 -0.36484,-1.202621 -0.20584,-0.443003 -0.48414,-0.851195 -0.82051,-1.202621 -0.52627,0.22374 -0.9993,0.5756 -1.36756,1.016869 -0.43617,0.523168 -0.72385,1.172288 -0.82051,1.850442 -0.22634,-1.7021 -0.0695,-3.455478 0.45566,-5.088679 0.37268,-1.158422 0.92912,-2.256179 1.64116,-3.237804 -0.11573,-0.203952 -0.20783,-0.421913 -0.2736,-0.647675 -0.11929,-0.409927 -0.14619,-0.845129 -0.0872,-1.268054 0.28014,-0.343338 0.44384,-0.783741 0.4521,-1.229777 -0.23886,0.368904 -0.39132,0.792842 -0.4521,1.229777 -0.0377,0.04622 -0.0775,0.091 -0.1193,0.133464 -0.3526,0.357782 -0.84485,0.570111 -1.3435,0.579211 -0.42022,0.0079 -0.84072,-0.125665 -1.18521,-0.369915 -0.32357,-0.229229 -0.57994,-0.554512 -0.72926,-0.925005 0.21936,0.13072 0.48655,0.176221 0.73595,0.12552 0.2494,-0.05055 0.47872,-0.196872 0.63175,-0.403137 0.1079,-0.145886 0.17751,-0.317482 0.21794,-0.494857 0.0404,-0.177229 0.0527,-0.360237 0.0531,-0.542234 9.9e-4,-0.363992 -0.044,-0.72943 0.003,-1.090967 0.0628,-0.487346 0.29552,-0.947682 0.63801,-1.295208 0.32186,-0.326583 0.73937,-0.554512 1.18521,-0.647388 0.10307,-0.836606 0.31816,-1.659057 0.63731,-2.437453 0.42107,-1.027123 1.05069,-2.004416 1.97397,-2.604282 0.63489,-0.412381 1.37924,-0.626732 2.12743,-0.719608 0.59873,-0.07439 1.20657,-0.07439 1.80529,0 0.62179,-0.428269 1.29397,-0.780563 1.99861,-1.046624 0.90805,-0.343049 1.86906,-0.542523 2.83676,-0.588744 -0.0708,-0.47608 -0.0708,-0.962993 0,-1.439072 0.0359,-0.241073 0.0898,-0.480413 0.18178,-0.705598 0.092,-0.225184 0.22292,-0.436214 0.39844,-0.602899 0.24128,-0.228796 0.55773,-0.364138 0.88215,-0.426825 0.32441,-0.06269 0.65809,-0.05691 0.98734,-0.03105 0.68841,0.05402 1.38408,0.192685 2.06295,0.06543 0.73581,-0.137942 1.40713,-0.600011 1.80529,-1.2429203 z m -0.53382,7.4943542 c -0.2521,-0.0025 -0.50449,0.01026 -0.75517,0.03842 -0.41751,0.0468 -0.83047,0.135919 -1.23062,0.265772 0.18093,0.227929 0.35275,0.463225 0.51488,0.705309 0.16584,0.247573 0.32186,0.50179 0.47261,0.759185 0.24299,0.414403 0.4736,0.837183 0.66649,1.278019 0.13879,0.317338 0.25793,0.643777 0.34719,0.978881 0.077,0.288883 0.13196,0.584555 0.15715,0.882972 0.0427,0.506846 -0.001,1.021202 -0.12455,1.513748 -0.0901,0.360671 -0.22264,0.710509 -0.39474,1.038969 -0.15773,0.300872 -0.34833,0.583546 -0.5677,0.841807 0.2094,-0.04608 0.41552,-0.107032 0.61667,-0.181998 0.41096,-0.153252 0.80015,-0.365581 1.1546,-0.626299 0.37011,-0.272128 0.70293,-0.597266 0.98151,-0.965159 0.21281,-0.280939 0.39388,-0.586577 0.53994,-0.908393 0.16797,-0.37006 0.28954,-0.761352 0.3684,-1.161311 0.0975,-0.49399 0.12954,-1.000691 0.10235,-1.503637 -0.0233,-0.433036 -0.0907,-0.863906 -0.19929,-1.283364 -0.11303,-0.436213 -0.27061,-0.859861 -0.46962,-1.262708 -0.30221,-0.114398 -0.61296,-0.205541 -0.92855,-0.272851 -0.41125,-0.08753 -0.83119,-0.133897 -1.2514,-0.137942 z m 5.725345,2.933176 c 0.324559,0.773918 0.561146,1.585536 0.703639,2.414053 0.12356,0.718453 0.176799,1.44875 0.163988,2.17818 -0.008,0.460625 -0.04271,0.922982 -0.147333,1.371329 -0.08584,0.36775 -0.218651,0.723653 -0.391464,1.058757 -0.148045,0.287007 -0.325556,0.558267 -0.528548,0.808296 0.298651,-0.224752 0.660934,-0.361393 1.031757,-0.389271 0.375094,-0.02817 0.740223,0.120177 1.058946,0.304339 0.167689,0.09692 0.307904,0.245117 0.420077,0.404581 0.151603,0.215363 0.172529,0.507712 0.325555,0.722208 0.215946,0.302605 0.486697,0.576467 0.810687,0.760919 0.127119,-0.540356 0.185341,-1.097612 0.172387,-1.652846 -0.0131,-0.565056 -0.09922,-1.126211 -0.223206,-1.677112 -0.156159,-0.693752 -0.372532,-1.373351 -0.642571,-2.029405 -0.262067,-0.637276 -0.575096,-1.253175 -0.93083,-1.841631 -0.309755,-0.512045 -0.652108,-1.003291 -1.019231,-1.474604 -0.256231,-0.328894 -0.524561,-0.648399 -0.803996,-0.957215 z m -16.504125,4.156887 c -0.36656,-0.0022 -0.7304,0.124074 -1.05155,0.308093 -0.34434,0.197309 -0.65922,0.473335 -0.8252,0.837617 -0.15673,0.343916 -0.1667,0.753841 -0.0268,1.104979 0.21423,-0.02455 0.42989,-0.03394 0.64556,-0.02817 0.46292,0.01228 0.92584,0.09547 1.35731,0.266061 0.20512,0.08103 0.40285,0.181565 0.58833,0.302172 0.40727,0.264761 0.75332,0.626154 1.00215,1.046913 0.32641,-0.374971 0.50862,-0.875316 0.50107,-1.375807 -0.006,-0.36327 -0.10804,-0.721486 -0.27388,-1.043591 -0.1237,-0.24035 -0.28228,-0.461489 -0.46292,-0.661253 -0.17182,-0.189941 -0.36513,-0.361827 -0.58307,-0.494567 -0.21794,-0.132599 -0.46164,-0.225619 -0.7146,-0.253351 -0.0524,-0.0058 -0.10477,-0.0087 -0.15715,-0.0091 z m 17.09915,5.364562 c -0.04157,-5.78e-4 -0.08328,0 -0.124841,2.88e-4 -0.249256,1.45e-4 -0.498227,0.02947 -0.737661,0.09851 -0.306908,0.0884 -0.596307,0.245695 -0.827484,0.468857 -0.231178,0.223163 -0.402283,0.513057 -0.469899,0.829386 -0.06449,0.301881 -0.03217,0.627886 0.109609,0.901314 0.157298,0.303618 0.441003,0.528801 0.757021,0.650565 0.316018,0.121764 0.662784,0.145888 0.999301,0.113098 0.444846,-0.04319 0.879015,-0.184452 1.271191,-0.401981 0.220786,-0.122487 0.428475,-0.268949 0.619795,-0.43477 0.233027,-0.20294 0.441144,-0.434769 0.618086,-0.689997 -0.05594,-0.315605 -0.21011,-0.613154 -0.418226,-0.848593 -0.203704,-0.230385 -0.486128,-0.387683 -0.769263,-0.502657 -0.284559,-0.1157 -0.598442,-0.14271 -0.903357,-0.176365 -0.04128,-0.0045 -0.08271,-0.0065 -0.124272,-0.0071 z" />
    <path
       style="fill:none;fill-rule:evenodd;stroke:#000000;stroke-width:1.32290864;stroke-linecap:round"
       inkscape:connector-curvature="0"
       id="path35-0"
       d="m -91.639283,29.608706 c -0.428475,1.206232 -0.902218,2.395564 -1.421798,3.564242 -1.180513,2.65527 -2.64402,5.265186 -4.851308,7.128195 -1.594042,1.345907 -3.506811,2.243467 -5.185261,3.479599 -1.34578,0.990869 -2.53612,2.19869 -3.51264,3.564243" />
    <path
       style="fill:none;fill-rule:evenodd;stroke:#000000;stroke-width:1.32290864;stroke-linecap:round"
       inkscape:connector-curvature="0"
       id="path37-0"
       d="m -111.20964,19.679787 c 1.22037,1.007048 2.24843,2.253001 3.01071,3.648596 0.66919,1.225299 1.13781,2.588106 1.17084,3.988469 0.0215,0.909981 -0.14008,1.812596 -0.25752,2.714923 -0.11729,0.902473 -0.18989,1.828054 0.007,2.716225 0.17068,0.771463 0.54378,1.493094 1.05553,2.089349 0.51175,0.596255 1.15987,1.068001 1.87163,1.389963 1.22122,0.552488 2.6137,0.658364 3.93073,0.424368 1.556882,-0.276606 3.029499,-1.023802 4.181685,-2.121557" />
    <path
       d="m -96.240055,34.529833 c -0.974247,1.307197 -2.566581,2.114626 -4.181695,2.121559 -0.92556,0.0039 -1.86337,-0.251473 -2.61455,-0.801074 -0.75061,-0.5496 -1.2971,-1.405561 -1.39988,-2.338943 -0.0623,-0.565634 0.036,-1.142678 0.2373,-1.67379 0.20129,-0.531256 0.50321,-1.018313 0.84998,-1.466082 0.96471,-1.244365 2.27533,-2.188291 3.17812,-3.4796 0.598155,-0.855672 1.002146,-1.850297 1.170832,-2.885366"
       id="path39-1"
       inkscape:connector-curvature="0"
       style="fill:none;fill-rule:evenodd;stroke:#000000;stroke-width:1.32290864;stroke-linecap:round;stroke-linejoin:round" />
    <path
       d="m -100.42089,36.651681 c -0.89895,0.556389 -1.9465,0.862894 -2.99933,0.877771 -1.05297,0.01488 -2.10835,-0.262017 -3.0221,-0.79284 -1.4349,-0.833861 -2.45356,-2.226279 -3.48019,-3.542431 -1.02649,-1.316008 -2.16914,-2.642271 -3.7125,-3.246615 -0.9798,-0.383637 -2.0796,-0.444013 -3.09442,-0.169719"
       id="path41-6"
       inkscape:connector-curvature="0"
       style="fill:none;fill-rule:evenodd;stroke:#000000;stroke-width:1.32290864;stroke-linecap:round;stroke-linejoin:round" />
    <path
       style="fill:none;fill-rule:evenodd;stroke:#000000;stroke-width:1.32291663;stroke-linecap:round;stroke-linejoin:round;stroke-miterlimit:4;stroke-dasharray:none"
       inkscape:connector-curvature="0"
       id="path47-4"
       d="m -113.55558,15.586312 c 1.06393,0.264617 2.08572,0.702853 3.01356,1.292752 1.1445,0.726542 2.14522,1.684478 2.92716,2.800435 0.39815,-0.619511 0.68314,-1.312975 0.83631,-2.036627 0.17708,-0.835884 0.17708,-1.7099 0,-2.545928 1.08699,1.126355 2.04358,2.38242 2.84359,3.73396 0.57225,0.967759 1.07446,2.015105 1.17084,3.139872 0.10434,1.217643 -0.29737,2.471397 -1.08728,3.394525 1.28543,-0.280507 2.43847,-1.134591 3.09442,-2.29128 0.51958,-0.917059 0.72684,-1.998783 0.66905,-3.05494 -0.0483,-0.883116 -0.27759,-1.755543 -0.66905,-2.545928 1.481299,0.219407 2.836904,1.183988 3.545098,2.522239 0.537089,1.015425 0.703355,2.185402 0.803854,3.333713 0.07687,0.877917 0.11929,1.773744 -0.0837,2.630716 -0.161568,0.682342 -0.478868,1.326265 -0.920012,1.866908 0.291961,-0.235729 0.658941,-0.374248 1.031757,-0.389414 0.372816,-0.01517 0.749476,0.09317 1.059089,0.304483 0.379364,0.258983 0.652962,0.672375 0.74549,1.126644 0.09267,0.454269 0.0031,0.943926 -0.243705,1.334354 -0.476162,-0.385517 -1.065779,-0.624856 -1.672619,-0.678878 -0.330965,-0.02946 -0.668194,-0.0046 -0.986632,0.09158 -0.318438,0.0962 -0.617517,0.265051 -0.853392,0.502369 -0.216231,0.217673 -0.378083,0.494279 -0.443991,0.796019 -0.06605,0.301737 -0.03288,0.628031 0.109467,0.901314 0.157867,0.30304 0.441856,0.527501 0.757875,0.648977 0.315876,0.121619 0.662072,0.14632 0.997877,0.114686 1.002149,-0.09389 1.930702,-0.691585 2.509072,-1.52747 0.465629,-0.672954 0.7146,-1.485294 0.787341,-2.304276 0.07317,-0.818841 -0.02306,-1.646059 -0.201995,-2.447999 -0.435735,-1.953573 -1.363007,-3.780037 -2.592632,-5.345785 -0.640008,-0.815517 -1.363718,-1.566036 -2.174405,-2.206346 -0.662925,-0.5236 -1.387348,-0.97498 -2.174407,-1.272963 -0.69026,-0.261295 -1.42493,-0.40227 -2.16159,-0.41137 -0.67831,-0.0084 -1.35774,0.0949 -2.0043,0.304483" />
    <path
       style="fill:none;fill-rule:evenodd;stroke:#000000;stroke-width:1.32291663;stroke-linecap:round;stroke-linejoin:round;stroke-miterlimit:4;stroke-dasharray:none"
       inkscape:connector-curvature="0"
       id="path49-6"
       d="m -119.8247,28.193178 c 0.73353,-0.536312 1.53425,-0.97787 2.37697,-1.310086 0.79004,-0.311704 1.62877,-0.529088 2.47619,-0.508435 0.68314,0.01661 1.37041,0.193843 1.9455,0.568234 0.40713,0.26505 0.7529,0.626299 1.00215,1.046913 0.32541,-0.375548 0.50762,-0.875317 0.50108,-1.375951 -0.008,-0.634677 -0.31204,-1.239019 -0.73695,-1.704845 -0.34492,-0.378148 -0.79275,-0.687109 -1.29696,-0.747773 -0.41951,-0.05041 -0.84756,0.07641 -1.20856,0.299137 -0.33566,0.206985 -0.62136,0.49688 -0.82535,0.837473 -0.20427,-0.363271 -0.35388,-0.75803 -0.44214,-1.167088 -0.0978,-0.45239 -0.11943,-0.928905 0,-1.375952 0.12072,-0.451957 0.3899,-0.865927 0.76642,-1.136611 0.38036,-0.273428 0.86478,-0.393603 1.32656,-0.329038 -0.32598,-0.339871 -0.68157,-0.650565 -1.06122,-0.927171 -0.54164,-0.394614 -1.16101,-0.727986 -1.82764,-0.747774 -0.53453,-0.01574 -1.05638,0.172463 -1.53283,0.418736 -0.64655,0.334238 -1.23646,0.780563 -1.73668,1.314419" />
    <path
       style="fill:none;fill-rule:evenodd;stroke:#000000;stroke-width:1.32291663;stroke-linecap:round;stroke-linejoin:round;stroke-miterlimit:4;stroke-dasharray:none"
       inkscape:connector-curvature="0"
       id="path51-7"
       d="m -119.7336,33.651627 c 0.41439,-0.540932 1.04343,-0.907238 1.71248,-0.997514 0.4457,-0.06009 0.90023,-0.002 1.33724,0.105443 0.43702,0.107321 0.86122,0.263172 1.2897,0.40227 0.55616,0.180553 1.13226,0.338426 1.61426,0.672955 0.241,0.167262 0.45552,0.378869 0.60399,0.633953 0.14847,0.255084 0.22833,0.555524 0.19972,0.850328 -0.0349,0.357781 -0.22221,0.680177 -0.42222,0.976858 -0.2,0.296683 -0.42022,0.587156 -0.53652,0.926739 -0.1059,0.309248 -0.11914,0.649553 -0.044,0.968048 0.0752,0.318348 0.23787,0.614165 0.46093,0.850904 0.23815,0.252773 0.54292,0.439825 0.75033,0.719175 0.14463,0.194563 0.23602,0.429425 0.26164,0.671798 0.0255,0.242374 -0.0148,0.491535 -0.11559,0.71282" />
    <path
       style="fill:none;fill-rule:evenodd;stroke:#000000;stroke-width:1.32291663;stroke-linecap:round;stroke-linejoin:round;stroke-miterlimit:4;stroke-dasharray:none"
       inkscape:connector-curvature="0"
       id="path53-9"
       d="m -113.75202,40.711935 c 0.72783,-0.536746 1.56457,-0.920671 2.44273,-1.120723 0.66848,-0.152386 1.36116,-0.198606 2.04273,-0.126964 0.57225,0.06009 1.13511,0.20294 1.6675,0.423069" />
    <path
       style="fill:none;fill-rule:evenodd;stroke:#000000;stroke-width:1.32291663;stroke-linecap:round;stroke-linejoin:round;stroke-miterlimit:4;stroke-dasharray:none"
       inkscape:connector-curvature="0"
       id="path55-6"
       d="m -108.1548,44.012426 c 0.23047,-0.324271 0.51915,-0.605644 0.84784,-0.826206 0.53965,-0.362115 1.18721,-0.556389 1.83433,-0.549889 -0.61253,-0.112663 -1.18293,-0.44777 -1.58408,-0.930638 -0.20754,-0.249884 -0.3711,-0.538767 -0.46804,-0.850472 -0.097,-0.311705 -0.12641,-0.646088 -0.0739,-0.968481 0.0866,-0.532268 0.38492,-0.999391 0.62535,-1.480526 0.21637,-0.433182 0.38947,-0.888606 0.51588,-1.357031 0.12783,0.699965 0.4094,1.370609 0.81823,1.94924 0.38876,0.550179 0.89809,1.021203 1.5008,1.311531 0.46563,0.224462 0.98692,0.339004 1.50081,0.296106 0.47943,-0.04001 0.94691,-0.217964 1.33396,-0.507568" />
    <path
       inkscape:connector-curvature="0"
       style="fill:none;fill-opacity:1;stroke:#000000;stroke-width:2.91041636;stroke-linecap:butt;stroke-linejoin:round;stroke-miterlimit:4;stroke-dasharray:none;stroke-opacity:1"
       d="m -104.37709,1.1007069 c -5.13425,3.505258 -10.86952,6.06584 -16.85789,7.526156 -5.13427,1.252038 -10.43507,1.6967301 -15.70911,1.5843991 -5.93463,-0.1264 -11.85047,-0.9544321 -17.62477,-2.3765991 -5.11395,-1.25953 -10.12011,-2.984914 -14.94224,-5.149556 -2.44829,4.186475 -5.72939,7.8496801 -9.57874,10.6949541 -3.88808,2.873903 -8.35284,4.91024 -13.02712,5.941757 3.76035,5.661135 6.85575,11.794391 9.19583,18.221626 4.53446,12.454329 6.19198,25.91571 5.74693,39.215179 -0.36527,10.915367 -2.1385,21.820891 -5.74693,32.085897 -2.09147,5.94963 -4.79347,11.66967 -8.04602,17.03307 1.3352,8.0054 3.52366,15.8581 6.51329,23.37066 4.85991,12.21235 12.18004,23.86086 22.98878,30.89734 10.77931,7.01733 24.01056,8.85253 35.24901,15.05231 9.30557,5.13349 17.03619,13.26636 21.83898,22.97483 4.802788,-9.70847 12.533919,-17.84134 21.839499,-22.97483 11.23845,-6.19978 24.4697,-8.03498 35.249,-15.05231 10.80875,-7.03648 18.12887,-18.68499 22.98878,-30.89734 2.98963,-7.51256 5.17809,-15.36526 6.513303,-23.37066 -3.252553,-5.3634 -5.954563,-11.08344 -8.046023,-17.03307 -3.60844,-10.265006 -5.38167,-21.17053 -5.74694,-32.085897 -0.44505,-13.299469 1.21248,-26.76085 5.74694,-39.215179 2.34007,-6.427235 5.43548,-12.560491 9.195823,-18.221626 -4.674283,-1.031517 -9.139033,-3.067854 -13.027113,-5.941757 -3.84935,-2.845274 -7.13045,-6.5084791 -9.57874,-10.6949541 -4.82213,2.164642 -9.82829,3.890026 -14.94224,5.149556 -5.7743,1.422167 -11.69014,2.2501991 -17.62477,2.3765991 -5.27405,0.112331 -10.57484,-0.3323611 -15.70912,-1.5843991 -5.98837,-1.460316 -11.724154,-4.020898 -16.858399,-7.526156 z"
       id="path1710-3" />
  </g>
</svg>
