<?xml version="1.0" encoding="UTF-8" standalone="no"?>
<!-- Created with Inkscape (http://www.inkscape.org/) -->

<svg
   xmlns:dc="http://purl.org/dc/elements/1.1/"
   xmlns:cc="http://creativecommons.org/ns#"
   xmlns:rdf="http://www.w3.org/1999/02/22-rdf-syntax-ns#"
   xmlns:svg="http://www.w3.org/2000/svg"
   xmlns="http://www.w3.org/2000/svg"
   xmlns:sodipodi="http://sodipodi.sourceforge.net/DTD/sodipodi-0.dtd"
   xmlns:inkscape="http://www.inkscape.org/namespaces/inkscape"
   width="141.01913mm"
   height="159.45134mm"
   viewBox="0 0 141.01913 159.45134"
   version="1.1"
   id="svg865"
   inkscape:version="0.92.5 (2060ec1f9f, 2020-04-08)"
   sodipodi:docname="DEU Herl COA.svg">
  <defs
     id="defs859">
    <inkscape:path-effect
       effect="spiro"
       id="path-effect2092"
       is_visible="true" />
    <inkscape:path-effect
       effect="spiro"
       id="path-effect3644"
       is_visible="true" />
    <inkscape:path-effect
       effect="spiro"
       id="path-effect3636"
       is_visible="true" />
    <inkscape:path-effect
       effect="spiro"
       id="path-effect3544"
       is_visible="true" />
    <inkscape:path-effect
       effect="spiro"
       id="path-effect3466"
       is_visible="true" />
    <inkscape:path-effect
       effect="spiro"
       id="path-effect3544-2"
       is_visible="true" />
    <inkscape:path-effect
       effect="spiro"
       id="path-effect3644-8"
       is_visible="true" />
    <inkscape:path-effect
       effect="spiro"
       id="path-effect3644-3"
       is_visible="true" />
    <inkscape:path-effect
       effect="spiro"
       id="path-effect3636-0"
       is_visible="true" />
    <inkscape:path-effect
       effect="spiro"
       id="path-effect1727-0-1"
       is_visible="true" />
    <inkscape:path-effect
       effect="spiro"
       id="path-effect1731-8-3"
       is_visible="true" />
    <inkscape:path-effect
       effect="spiro"
       id="path-effect1727-3"
       is_visible="true" />
    <inkscape:path-effect
       effect="spiro"
       id="path-effect1731-7"
       is_visible="true" />
    <inkscape:path-effect
       effect="spiro"
       id="path-effect841-8"
       is_visible="true" />
    <inkscape:path-effect
       effect="spiro"
       id="path-effect2092-3"
       is_visible="true" />
  </defs>
  <sodipodi:namedview
     id="base"
     pagecolor="#ffffff"
     bordercolor="#666666"
     borderopacity="1.0"
     inkscape:pageopacity="0.0"
     inkscape:pageshadow="2"
     inkscape:zoom="1.3158534"
     inkscape:cx="266.49285"
     inkscape:cy="301.32537"
     inkscape:document-units="mm"
     inkscape:current-layer="layer1"
     showgrid="false"
     inkscape:window-width="1920"
     inkscape:window-height="1046"
     inkscape:window-x="-11"
     inkscape:window-y="-11"
     inkscape:window-maximized="1"
     fit-margin-top="0"
     fit-margin-left="0"
     fit-margin-right="0"
     fit-margin-bottom="0"
     inkscape:snap-global="false"
     inkscape:snap-midpoints="true"
     inkscape:snap-smooth-nodes="true" />
  <metadata
     id="metadata862">
    <rdf:RDF>
      <cc:Work
         rdf:about="">
        <dc:format>image/svg+xml</dc:format>
        <dc:type
           rdf:resource="http://purl.org/dc/dcmitype/StillImage" />
        <dc:title></dc:title>
      </cc:Work>
    </rdf:RDF>
  </metadata>
  <g
     inkscape:label="Ebene 1"
     inkscape:groupmode="layer"
     id="layer1"
     transform="translate(20.531606,175.16873)">
    <path
       style="fill:#ffffff;fill-rule:evenodd;stroke:none;stroke-width:2.9104166;stroke-linecap:round;stroke-linejoin:round;stroke-miterlimit:4;stroke-dasharray:none;stroke-opacity:1"
       inkscape:connector-curvature="0"
       d="m 119.03232,-173.71352 -0.31572,94.538467 c -1.53714,37.540972 -31.907668,61.981429 -68.738639,62.00245 -36.797848,-0.0461 -67.179749,-24.497199 -68.738649,-62.00245 l -0.31571,-94.538467 h 69.0527 z"
       id="path10563-0-6-2-6-2-2"
       sodipodi:nodetypes="ccccccc" />
    <path
       style="opacity:1;fill:#000000;fill-opacity:1;fill-rule:evenodd;stroke:none;stroke-width:11;stroke-linecap:round;stroke-linejoin:round;stroke-miterlimit:4;stroke-dasharray:none;stroke-opacity:1;paint-order:normal"
       d="M 6.4902344 302.25977 L 6.6933594 362.81055 C 12.585265 504.56268 127.41371 596.97615 266.49219 597.15039 C 405.69586 597.07094 520.48331 504.69769 526.29297 362.81055 L 526.49609 302.25977 L 6.4902344 302.25977 z "
       transform="matrix(0.26458333,0,0,0.26458333,-20.531606,-175.16873)"
       id="rect2067" />
    <path
       style="fill:none;fill-rule:evenodd;stroke:#000000;stroke-width:2.9104166;stroke-linecap:round;stroke-linejoin:round;stroke-miterlimit:4;stroke-dasharray:none;stroke-opacity:1"
       inkscape:connector-curvature="0"
       d="m 119.03232,-173.71352 -0.31572,94.538467 c -1.53714,37.540972 -31.90767,61.981429 -68.738639,62.00245 -36.797849,-0.0461 -67.179749,-24.497199 -68.738649,-62.00245 l -0.31571,-94.538467 H 49.9763 Z"
       id="path10563-0-6-2-6-2"
       sodipodi:nodetypes="ccccccc" />
    <path
       style="opacity:1;fill:#ff0000;fill-opacity:1;fill-rule:evenodd;stroke:#000000;stroke-width:2.11666656;stroke-linecap:round;stroke-linejoin:round;stroke-miterlimit:4;stroke-dasharray:none;stroke-opacity:1;paint-order:normal"
       d="m 49.978735,-170.01762 c -0.754869,0.92556 -1.530596,1.83442 -2.325954,2.72541 -0.834753,0.93512 -1.698919,1.86019 -2.325958,2.94556 -0.42518,0.73596 -0.738767,1.5543 -0.775147,2.40347 -0.0362,0.84529 0.201729,1.67645 0.465087,2.48047 0.361651,1.10412 0.776113,2.19124 1.240753,3.25613 0.61077,1.39979 1.30887,2.76212 1.860352,4.18631 0.109238,0.28207 0.212587,0.56632 0.310057,0.85266 -0.840399,-1.74045 -2.246913,-3.2021 -3.953764,-4.10879 -1.697059,-0.90149 -3.71901,-1.24792 -5.58157,-0.77515 -1.207209,0.30641 -2.32554,0.94999 -3.20394,1.83296 -0.878409,0.88297 -1.51537,2.00225 -1.835029,3.20601 -0.33088,1.24605 -0.3214,2.5796 0.01912,3.82302 0.340611,1.24342 1.011124,2.39375 1.919264,3.30884 1.361559,1.37197 3.261828,2.19476 5.193998,2.24844 -0.829281,-0.96437 -1.183214,-2.31961 -0.930693,-3.56619 0.1861,-0.91872 0.697794,-1.77734 1.449525,-2.33732 0.751729,-0.55999 1.742548,-0.80446 2.659269,-0.60875 0.766918,0.16375 1.453435,0.62098 1.971455,1.20975 0.518009,0.58878 0.876708,1.30406 1.129647,2.04638 0.12659,0.3715 0.224329,0.79941 0.29869,1.25264 h -0.06614 v 0.50849 H 44.16411 v 4.03128 h 3.333647 v 2.98638 H 45.888028 18.795627 v -3.33313 h -4.031279 v 3.33313 h -0.775147 v 0.13488 c -1.533539,0.20045 -3.500454,0.0776 -4.8064238,-0.36742 -0.7423203,-0.25293 -1.4576081,-0.61164 -2.046388,-1.12965 -0.5887694,-0.51801 -1.0459958,-1.20452 -1.2097438,-1.97145 -0.1957097,-0.91672 0.048797,-1.90753 0.608748,-2.65927 0.55998,-0.75173 1.4186032,-1.26343 2.3373239,-1.44953 1.2465817,-0.2525 2.6018227,0.10142 3.5661917,0.9307 -0.0537,-1.93216 -0.876472,-3.83244 -2.248442,-5.194 -0.915091,-0.90814 -2.0654225,-1.57865 -3.3088425,-1.91926 -0.62171,-0.1703 -1.2658963,-0.25795 -1.9104768,-0.26149 -0.6445806,-0.004 -1.2895157,0.0769 -1.9125459,0.24237 -1.2037589,0.31965 -2.32303373,0.95663 -3.20600386,1.83503 -0.88297014,0.87839 -1.52655324,1.99674 -1.83296454,3.20393 -0.4727707,1.86258 -0.1263438,3.88452 0.7751472,5.58158 0.90668998,1.70686 2.3683435,3.11336 4.1087939,3.95376 -0.2863401,-0.0975 -0.5705925,-0.20084 -0.8526622,-0.31006 -1.42419117,-0.55149 -2.7865175,-1.24957 -4.1863088,-1.86035 -1.0648897,-0.46463 -2.1520097,-0.87909 -3.2561318,-1.24075 -0.8040185,-0.26335 -1.6351779,-0.50129 -2.4804688,-0.46509 -0.8491696,0.0364 -1.6675099,0.34997 -2.4034699,0.77515 -1.085371,0.62705 -2.010436,1.4912 -2.945556,2.32595 -0.890992,0.79537 -1.799857,1.57057 -2.725414,2.32544 0.925557,0.75487 1.834422,1.53059 2.725414,2.32596 0.93512,0.83474 1.860185,1.69892 2.945556,2.32595 0.73596,0.42518 1.5543003,0.73877 2.4034699,0.77515 0.8452909,0.0362 1.6764503,-0.20173 2.4804688,-0.46509 1.1041221,-0.36165 2.1912421,-0.77611 3.2561318,-1.24075 1.3997913,-0.61077 2.76211763,-1.30887 4.1863088,-1.86035 0.2820697,-0.10923 0.5663221,-0.21259 0.8526622,-0.31006 -1.7404504,0.8404 -3.20210392,2.24692 -4.1087939,3.95377 -0.901491,1.69706 -1.2479179,3.719 -0.7751472,5.58157 0.3064113,1.2072 0.9499944,2.32554 1.83296454,3.20394 0.88297013,0.8784 2.00224496,1.51538 3.20600386,1.83503 1.2460499,0.33088 2.5796028,0.32145 3.8230227,-0.0191 1.24342,-0.34061 2.3937515,-1.01113 3.3088425,-1.91927 1.37197,-1.36156 2.194761,-3.26182 2.248442,-5.19399 -0.964369,0.82928 -2.31961,1.18321 -3.5661917,0.93069 -0.9187207,-0.1861 -1.7773439,-0.6978 -2.3373239,-1.44953 -0.5599906,-0.75173 -0.8044577,-1.74255 -0.608748,-2.65927 0.163748,-0.76691 0.6209744,-1.45343 1.2097438,-1.97145 0.5887799,-0.51801 1.3040677,-0.87671 2.046388,-1.12965 1.3059698,-0.44501 3.2728848,-0.56781 4.8064238,-0.36742 v 0.13488 h 0.775147 v 3.33364 h 4.031279 v -3.33364 h 27.092401 1.609723 v 2.98638 h -3.333647 v 4.03128 h 3.333647 v 0.50849 h 0.06614 c -0.0744,0.45324 -0.1721,0.88115 -0.29869,1.25264 -0.252939,0.74232 -0.611638,1.45761 -1.129647,2.04639 -0.51802,0.58876 -1.204537,1.04598 -1.971455,1.20974 -0.916721,0.19571 -1.90754,-0.0488 -2.659269,-0.60875 -0.751731,-0.55998 -1.263425,-1.4186 -1.449525,-2.33732 -0.252521,-1.24658 0.101412,-2.60182 0.930693,-3.56619 -1.93217,0.0537 -3.832439,0.87647 -5.193998,2.24844 -0.90814,0.91509 -1.578653,2.06542 -1.919264,3.30884 -0.340519,1.24342 -0.35002,2.57697 -0.01912,3.82302 0.319659,1.20376 0.95662,2.32304 1.835029,3.20601 0.8784,0.88297 1.996731,1.52655 3.20394,1.83296 1.86256,0.47277 3.884511,0.12635 5.58157,-0.77514 1.706851,-0.90669 3.113365,-2.36835 3.953764,-4.1088 -0.0975,0.28634 -0.200819,0.5706 -0.310057,0.85267 -0.551482,1.42418 -1.249582,2.78652 -1.860352,4.1863 -0.46464,1.0649 -0.879102,2.15201 -1.240753,3.25613 -0.263358,0.80402 -0.501287,1.63518 -0.465087,2.48047 0.0364,0.84917 0.349967,1.66751 0.775147,2.40347 0.627039,1.08538 1.491197,2.01044 2.325958,2.94556 0.795348,0.89099 1.571095,1.799855 2.325954,2.725415 0.75487,-0.92556 1.530083,-1.834425 2.325439,-2.725415 0.83475,-0.93512 1.698898,-1.86018 2.325957,-2.94556 0.42517,-0.73596 0.738746,-1.5543 0.775148,-2.40347 0.0362,-0.84529 -0.201729,-1.67645 -0.46509,-2.48047 -0.361659,-1.10412 -0.776121,-2.19123 -1.240751,-3.25613 -0.61078,-1.39978 -1.308851,-2.76212 -1.860351,-4.1863 -0.10922,-0.28207 -0.212558,-0.56633 -0.310057,-0.85267 0.840396,1.74045 2.246899,3.20211 3.953761,4.1088 1.697066,0.90149 3.719002,1.24791 5.581573,0.77514 1.207191,-0.30641 2.325561,-0.94999 3.203938,-1.83296 0.878414,-0.88297 1.515379,-2.00225 1.83503,-3.20601 0.165473,-0.62302 0.246362,-1.26796 0.242364,-1.91254 -0.0035,-0.64458 -0.09118,-1.28877 -0.261485,-1.91048 -0.340609,-1.24342 -1.011121,-2.39375 -1.919261,-3.30884 -1.36157,-1.37197 -3.261839,-2.19474 -5.193998,-2.24844 0.82927,0.96437 1.183193,2.31961 0.930693,3.56619 -0.1861,0.91872 -0.697786,1.77734 -1.449525,2.33732 -0.75174,0.55996 -1.742538,0.80446 -2.659269,0.60875 -0.766929,-0.16376 -1.453446,-0.62098 -1.971456,-1.20974 -0.518009,-0.58878 -0.876718,-1.30407 -1.129646,-2.04639 -0.12659,-0.37149 -0.22425,-0.7994 -0.298691,-1.25264 h 0.06615 v -0.50849 h 3.333131 v -4.03128 h -3.333131 v -2.98638 h 1.608688 27.092401 v 3.33364 h 4.031279 v -3.33364 h 0.775148 v -0.13488 c 1.533532,-0.20039 3.50045,-0.0776 4.806423,0.36742 0.742312,0.25294 1.457608,0.61164 2.046388,1.12965 0.588769,0.51802 1.045996,1.20454 1.209744,1.97145 0.19572,0.91672 -0.04876,1.90755 -0.608748,2.65927 -0.55998,0.75175 -1.418603,1.26343 -2.337324,1.44953 -1.246582,0.25252 -2.60182,-0.10141 -3.566192,-0.93069 0.05368,1.93217 0.876472,3.83244 2.248443,5.19399 0.91509,0.90814 2.065422,1.57866 3.308842,1.91927 1.24342,0.34057 2.576972,0.35002 3.823022,0.0191 1.203759,-0.31965 2.323045,-0.95663 3.206004,-1.83503 0.88297,-0.8784 1.52656,-1.99674 1.83297,-3.20394 0.47277,-1.86257 0.12634,-3.88451 -0.77515,-5.58157 -0.90669,-1.70685 -2.368343,-3.11337 -4.108794,-3.95377 0.28634,0.0975 0.57059,0.20083 0.85266,0.31006 1.424194,0.55148 2.786514,1.24958 4.186314,1.86035 1.06488,0.46464 2.15201,0.8791 3.25613,1.24075 0.80402,0.26335 1.63517,0.50129 2.48047,0.46509 0.84917,-0.0364 1.66751,-0.34997 2.40347,-0.77515 1.08537,-0.62703 2.01044,-1.49121 2.94555,-2.32595 0.891,-0.79537 1.79986,-1.57109 2.72542,-2.32596 -0.92556,-0.75486 -1.83442,-1.53008 -2.72542,-2.32544 -0.93511,-0.83475 -1.86018,-1.6989 -2.94555,-2.32595 -0.73596,-0.42518 -1.5543,-0.73875 -2.40347,-0.77515 -0.8453,-0.0362 -1.67645,0.20173 -2.48047,0.46509 -1.10412,0.36166 -2.19125,0.77612 -3.25613,1.24075 -1.3998,0.61078 -2.76212,1.30886 -4.186314,1.86035 -0.28207,0.10922 -0.56632,0.21256 -0.85266,0.31006 1.740451,-0.8404 3.202104,-2.24689 4.108794,-3.95376 0.90149,-1.69706 1.24792,-3.719 0.77515,-5.58158 -0.30641,-1.20719 -0.95,-2.32554 -1.83297,-3.20393 -0.882959,-0.8784 -2.002245,-1.51538 -3.206004,-1.83503 -0.62303,-0.16547 -1.267965,-0.24637 -1.912546,-0.24237 -0.644577,0.004 -1.288766,0.0912 -1.910476,0.26149 -1.24342,0.34061 -2.393752,1.01112 -3.308842,1.91926 -1.371971,1.36156 -2.194743,3.26184 -2.248443,5.194 0.964372,-0.82928 2.31961,-1.1832 3.566192,-0.9307 0.918721,0.1861 1.777344,0.6978 2.337324,1.44953 0.559964,0.75174 0.804468,1.74255 0.608748,2.65927 -0.163748,0.76694 -0.620975,1.45345 -1.209744,1.97145 -0.58878,0.51802 -1.304076,0.87672 -2.046388,1.12965 -1.305973,0.44502 -3.272891,0.56788 -4.806423,0.36742 v -0.13488 H 85.19157 v -3.33313 h -4.031279 v 3.33313 H 54.067892 52.459204 v -2.98638 h 3.333131 v -4.03128 h -3.333131 v -0.50849 h -0.06615 c 0.07444,-0.45323 0.172101,-0.88114 0.298691,-1.25264 0.252928,-0.74232 0.611637,-1.4576 1.129646,-2.04638 0.51801,-0.58877 1.204527,-1.046 1.971456,-1.20975 0.916731,-0.19571 1.907529,0.0488 2.659269,0.60875 0.751739,0.55998 1.263425,1.4186 1.449525,2.33732 0.2525,1.24658 -0.101423,2.60182 -0.930693,3.56619 1.932159,-0.0537 3.832428,-0.87647 5.193998,-2.24844 0.90814,-0.91509 1.578652,-2.06542 1.919261,-3.30884 0.170304,-0.62171 0.257945,-1.2659 0.261485,-1.91048 0.004,-0.64458 -0.07689,-1.28951 -0.242364,-1.91254 -0.319651,-1.20376 -0.956616,-2.32304 -1.83503,-3.20601 -0.878377,-0.88297 -1.996747,-1.52655 -3.203938,-1.83296 -1.862571,-0.47277 -3.884512,-0.12634 -5.581573,0.77515 -1.706862,0.90669 -3.113365,2.36834 -3.953761,4.10879 0.0975,-0.28634 0.200837,-0.57059 0.310057,-0.85266 0.5515,-1.42419 1.249571,-2.78652 1.860351,-4.18631 0.46463,-1.06489 0.879092,-2.15201 1.240751,-3.25613 0.263361,-0.80402 0.50129,-1.63518 0.46509,-2.48047 -0.0364,-0.84917 -0.349978,-1.66751 -0.775148,-2.40347 -0.627059,-1.08537 -1.491207,-2.01044 -2.325957,-2.94556 -0.795356,-0.89099 -1.570569,-1.79985 -2.325439,-2.72541 z"
       id="rect2085"
       inkscape:connector-curvature="0" />
    <path
       style="opacity:1;fill:#ffd700;fill-opacity:1;fill-rule:evenodd;stroke:none;stroke-width:0.99999982;stroke-linecap:round;stroke-linejoin:round;stroke-miterlimit:4;stroke-dasharray:none;stroke-opacity:1;paint-order:normal"
       d="M 60.699219 323.84766 A 41.89624 41.89624 0 0 0 18.802734 365.74414 A 41.89624 41.89624 0 0 0 60.699219 407.64062 A 41.89624 41.89624 0 0 0 102.5957 365.74414 A 41.89624 41.89624 0 0 0 60.699219 323.84766 z M 163.5957 323.84766 A 41.89624 41.89624 0 0 0 121.69922 365.74414 A 41.89624 41.89624 0 0 0 163.5957 407.64062 A 41.89624 41.89624 0 0 0 205.49219 365.74414 A 41.89624 41.89624 0 0 0 163.5957 323.84766 z M 266.49219 323.84766 A 41.89624 41.89624 0 0 0 224.5957 365.74414 A 41.89624 41.89624 0 0 0 266.49219 407.64062 A 41.89624 41.89624 0 0 0 308.38867 365.74414 A 41.89624 41.89624 0 0 0 266.49219 323.84766 z M 369.38867 323.84766 A 41.89624 41.89624 0 0 0 327.49219 365.74414 A 41.89624 41.89624 0 0 0 369.38867 407.64062 A 41.89624 41.89624 0 0 0 411.28516 365.74414 A 41.89624 41.89624 0 0 0 369.38867 323.84766 z M 472.28516 323.84766 A 41.89624 41.89624 0 0 0 430.38867 365.74414 A 41.89624 41.89624 0 0 0 472.28516 407.64062 A 41.89624 41.89624 0 0 0 514.18164 365.74414 A 41.89624 41.89624 0 0 0 472.28516 323.84766 z M 74.003906 334.35156 A 33.353263 33.353263 0 0 1 96.193359 365.74414 A 33.353263 33.353263 0 0 1 74.003906 397.13086 L 74.003906 390.86133 A 27.521038 27.521038 0 0 0 90.361328 365.74414 A 27.521038 27.521038 0 0 0 74.003906 340.61133 L 74.003906 334.35156 z M 176.90039 334.35156 A 33.353263 33.353263 0 0 1 199.08984 365.74414 A 33.353263 33.353263 0 0 1 176.90039 397.13086 L 176.90039 390.86133 A 27.521038 27.521038 0 0 0 193.25781 365.74414 A 27.521038 27.521038 0 0 0 176.90039 340.61133 L 176.90039 334.35156 z M 279.79688 334.35156 A 33.353263 33.353263 0 0 1 301.98633 365.74414 A 33.353263 33.353263 0 0 1 279.79688 397.13086 L 279.79688 390.86133 A 27.521038 27.521038 0 0 0 296.1543 365.74414 A 27.521038 27.521038 0 0 0 279.79688 340.61133 L 279.79688 334.35156 z M 382.69336 334.35156 A 33.353263 33.353263 0 0 1 404.88281 365.74414 A 33.353263 33.353263 0 0 1 382.69336 397.13086 L 382.69336 390.86133 A 27.521038 27.521038 0 0 0 399.05078 365.74414 A 27.521038 27.521038 0 0 0 382.69336 340.61133 L 382.69336 334.35156 z M 485.58984 334.35156 A 33.353263 33.353263 0 0 1 507.7793 365.74414 A 33.353263 33.353263 0 0 1 485.58984 397.13086 L 485.58984 390.86133 A 27.521038 27.521038 0 0 0 501.94727 365.74414 A 27.521038 27.521038 0 0 0 485.58984 340.61133 L 485.58984 334.35156 z "
       transform="matrix(0.26458333,0,0,0.26458333,-20.531606,-175.16873)"
       id="path2420" />
    <path
       style="opacity:1;fill:#000000;fill-opacity:1;fill-rule:evenodd;stroke:#000000;stroke-width:2.20000005;stroke-linecap:round;stroke-linejoin:round;stroke-miterlimit:4;stroke-dasharray:none;stroke-opacity:1;paint-order:normal"
       d="M 69.316406 347.45508 L 69.316406 351.10156 A 15.702831 16.032328 0 0 1 78.650391 365.74219 A 15.702831 16.032328 0 0 1 69.316406 380.375 L 69.316406 384.02734 A 19.030555 19.42988 0 0 0 81.978516 365.74219 A 19.030555 19.42988 0 0 0 69.316406 347.45508 z M 172.21289 347.45508 L 172.21289 351.10156 A 15.702831 16.032328 0 0 1 181.54688 365.74219 A 15.702831 16.032328 0 0 1 172.21289 380.375 L 172.21289 384.02734 A 19.030555 19.42988 0 0 0 184.87305 365.74219 A 19.030555 19.42988 0 0 0 172.21289 347.45508 z M 275.10938 347.45508 L 275.10938 351.10156 A 15.702831 16.032328 0 0 1 284.44336 365.74219 A 15.702831 16.032328 0 0 1 275.10938 380.375 L 275.10938 384.02734 A 19.030555 19.42988 0 0 0 287.76953 365.74219 A 19.030555 19.42988 0 0 0 275.10938 347.45508 z M 378.00586 347.45508 L 378.00586 351.10156 A 15.702831 16.032328 0 0 1 387.33984 365.74219 A 15.702831 16.032328 0 0 1 378.00586 380.375 L 378.00586 384.02734 A 19.030555 19.42988 0 0 0 390.66602 365.74219 A 19.030555 19.42988 0 0 0 378.00586 347.45508 z M 480.9043 347.45508 L 480.9043 351.10156 A 15.702831 16.032328 0 0 1 490.23633 365.74219 A 15.702831 16.032328 0 0 1 480.9043 380.375 L 480.9043 384.02734 A 19.030555 19.42988 0 0 0 493.5625 365.74219 A 19.030555 19.42988 0 0 0 480.9043 347.45508 z "
       transform="matrix(0.26458333,0,0,0.26458333,-20.531606,-175.16873)"
       id="path2400" />
    <g
       id="g2446"
       transform="translate(74.286536,-65.802896)">
      <path
         sodipodi:nodetypes="cccccccccccccccccccccccccccccccccccccccccccccccc"
         id="path2420-7"
         d="m -65.145538,3.8174825 c -6.122154,-3.53e-5 -11.085148,4.9629607 -11.085111,11.0851145 -3.5e-5,6.122152 4.962959,11.085145 11.085111,11.08511 6.122152,3.5e-5 11.085146,-4.962958 11.085111,-11.08511 3.7e-5,-6.1221538 -4.962957,-11.0851498 -11.085111,-11.0851145 z m 27.224696,0 c -6.122154,-3.53e-5 -11.085148,4.9629607 -11.085111,11.0851145 -3.5e-5,6.122152 4.962959,11.085145 11.085111,11.08511 6.122153,3.6e-5 11.085148,-4.962957 11.085113,-11.08511 3.7e-5,-6.1221545 -4.962958,-11.085151 -11.085113,-11.0851145 z m 27.224697,0 c -6.122155,-3.65e-5 -11.08515,4.96296 -11.085113,11.0851145 -3.5e-5,6.122153 4.96296,11.085146 11.085113,11.08511 6.1221513,3.4e-5 11.08514393,-4.962959 11.08510914,-11.08511 C 0.38900142,8.780444 -4.573992,3.8174482 -10.696145,3.8174825 Z m 27.224693,0 C 10.406394,3.8174472 5.4433998,8.7804433 5.4434371,14.902597 c -3.48e-5,6.122152 4.9629589,11.085145 11.0851109,11.08511 6.122153,3.6e-5 11.085148,-4.962957 11.085113,-11.08511 C 27.613698,8.7804425 22.650703,3.817446 16.528548,3.8174825 Z m -78.153887,2.77916 c 3.516215,1.2489654 5.866835,4.5745115 5.870959,8.3059545 -0.0048,3.730872 -2.355281,7.055626 -5.870959,8.3044 v -1.65881 c 2.628223,-1.166378 4.323935,-3.770181 4.327901,-6.64559 -0.0023,-2.876909 -1.698309,-5.4827375 -4.327901,-6.6497245 z m 27.224696,0 c 3.516215,1.2489654 5.866835,4.5745115 5.870959,8.3059545 -0.0048,3.730872 -2.355281,7.055626 -5.870959,8.3044 v -1.65881 c 2.628223,-1.166378 4.323935,-3.770181 4.327901,-6.64559 -0.0023,-2.876909 -1.698309,-5.4827375 -4.327901,-6.6497245 z m 27.2246965,0 c 3.5162147,1.2489656 5.8668349,4.5745115 5.8709586,8.3059545 -0.00478,3.730872 -2.3552806,7.055626 -5.8709586,8.3044 v -1.65881 c 2.6282231,-1.166378 4.3239345,-3.770181 4.327901,-6.64559 -0.00233,-2.876909 -1.6983095,-5.4827375 -4.327901,-6.6497245 z m 27.2246935,0 c 3.516214,1.2489658 5.866834,4.5745125 5.870958,8.3059545 -0.0048,3.730872 -2.35528,7.055626 -5.870958,8.3044 v -1.65881 c 2.628223,-1.166378 4.323935,-3.770181 4.327901,-6.64559 -0.0023,-2.876909 -1.698309,-5.4827375 -4.327901,-6.6497245 z"
         style="opacity:1;fill:#ffd700;fill-opacity:1;fill-rule:evenodd;stroke:none;stroke-width:0.26458329;stroke-linecap:round;stroke-linejoin:round;stroke-miterlimit:4;stroke-dasharray:none;stroke-opacity:1;paint-order:normal"
         inkscape:connector-curvature="0" />
      <path
         sodipodi:nodetypes="cccccccccccccccccccccccccccc"
         id="path2400-8"
         d="m -62.865574,10.063616 v 0.9648 c 1.500428,0.67974 2.468198,2.197714 2.469617,3.873661 -0.0022,1.675199 -0.969858,3.192164 -2.469617,3.8716 v 0.96635 c 2.006182,-0.727377 3.347501,-2.664356 3.350184,-4.83795 -0.0025,-2.173782 -1.34383,-4.111021 -3.350184,-4.838461 z m 27.224696,0 v 0.9648 c 1.500428,0.679739 2.4682,2.197714 2.469619,3.873661 -0.0022,1.675199 -0.969859,3.192165 -2.469619,3.8716 v 0.96635 c 2.005978,-0.727554 3.347062,-2.664492 3.349668,-4.83795 -0.0024,-2.173646 -1.343517,-4.110844 -3.349668,-4.838461 z m 27.2246975,0 v 0.9648 c 1.5004269,0.67974 2.4681967,2.197715 2.469615,3.873661 -0.00222,1.675198 -0.9698563,3.192163 -2.469615,3.8716 v 0.96635 c 2.0059765,-0.727556 3.3470589,-2.664493 3.349664,-4.83795 -0.00239,-2.173645 -1.3435147,-4.110842 -3.349664,-4.838461 z m 27.2246925,0 v 0.9648 c 1.500427,0.67974 2.468198,2.197715 2.469616,3.873661 -0.0022,1.675199 -0.969857,3.192164 -2.469616,3.8716 v 0.96635 c 2.005978,-0.727554 3.347062,-2.664492 3.349668,-4.83795 -0.0024,-2.173646 -1.343517,-4.110844 -3.349668,-4.838461 z"
         style="opacity:1;fill:#000000;fill-opacity:1;fill-rule:evenodd;stroke:#000000;stroke-width:0.58208334;stroke-linecap:round;stroke-linejoin:round;stroke-miterlimit:4;stroke-dasharray:none;stroke-opacity:1;paint-order:normal"
         inkscape:connector-curvature="0" />
    </g>
  </g>
</svg>
