<svg xmlns="http://www.w3.org/2000/svg" width="693.208" height="791.22" viewBox="0 0 183.411 209.344"><g transform="translate(-3.313 -1.984)"><path style="fill:#fff;fill-rule:evenodd;stroke:none;stroke-width:3.10444427;stroke-opacity:1" d="m185.16 3.536-.914 117.58c-1.995 49.46-41.418 88.632-89.227 88.66-47.766-.061-87.204-39.247-89.227-88.66L4.878 3.537h90.139z"/><path style="fill:red;fill-opacity:1;stroke:#000;stroke-width:7.99999952;stroke-linecap:round;stroke-linejoin:round;stroke-miterlimit:4;stroke-dasharray:none;stroke-opacity:1" d="M275.52 5.867v315.498H8.367l1.002 128.9c.182 4.446.444 8.87.785 13.27H275.52V777.45a326.315 326.315 0 0 0 71.084 7.905 326.569 326.569 0 0 0 71.085-7.848v-313.97h265.373c.338-4.401.598-8.825.778-13.27l1.002-128.9H417.689V5.866H275.52z" transform="matrix(.26458 0 0 .26458 3.313 1.984)"/><path style="fill:none;fill-rule:evenodd;stroke:#000;stroke-width:3.10444427;stroke-opacity:1" d="m185.16 3.536-.914 117.58c-1.995 49.46-41.418 88.632-89.227 88.66-47.766-.061-87.204-39.247-89.227-88.66L4.878 3.537h90.139z"/><path style="fill:#000;fill-rule:evenodd;stroke:#000;stroke-width:3.10444427;stroke-opacity:1" d="m140.286 54.548-.459 59.172c-1.002 24.89-20.8 44.603-44.808 44.617-23.987-.03-43.792-19.75-44.808-44.617l-.46-59.172h45.267z"/><path style="fill:gold;stroke:none;stroke-width:.26458332px;stroke-linecap:butt;stroke-linejoin:miter;stroke-opacity:1;fill-opacity:1" d="M120.317 60.072a7.49 7.49 0 0 0-.922.042s.423.742.737 1.02c.323.286.722.496 1.134.624.544.169 1.7.17 1.7.17s-.763-.947-1.247-1.304c-.306-.225-.65-.422-1.02-.51a2.042 2.042 0 0 0-.382-.042zm-2.399.205c-.119.003-.232.01-.322.025-.349.057-.693.174-1.007.336-.925.478-1.529 1.523-2.518 1.847-.266.087-.565-.054-.84 0-2.28.441-4.216 2.02-6.464 2.603-.656.17-1.37.042-2.015.251-.607.197-1.06.765-1.679.924-.46.118-.952-.033-1.427 0-1.24.084-2.464.325-3.694.504-.728.105-1.568-.07-2.183.335-.22.145-.32.427-.42.672-.15.371.024.883-.25 1.175-.498.53-1.398.4-2.1.587-3.153.846-6.358 1.503-9.486 2.435-2.578.769-5.13 1.636-7.64 2.603-1.45.559-4.281 1.847-4.281 1.847s-.469.983-.588 1.51c-.086.384-.084 1.176-.084 1.176s1.303-.41 1.931-.672c1.525-.636 2.921-1.556 4.45-2.182a13.37 13.37 0 0 1 1.762-.588c1.075-.274 2.2-.316 3.275-.588 2.342-.593 4.561-1.6 6.883-2.266 1.69-.486 3.376-1.048 5.121-1.26.833-.1 2.519 0 2.519 0s-1.24.526-1.68 1.008c-.564.62-.99 1.434-1.09 2.266-.197 1.619 1.089 3.158 1.007 4.786-.032.645-.438 1.218-.588 1.847-.323 1.35-.671 4.113-.671 4.113l3.19.168s.422-2.623.42-3.946c-.003-.76-.111-1.52-.252-2.267-.14-.74-.46-1.44-.588-2.182-.181-1.051-.387-2.132-.252-3.19.098-.764.255-1.597.755-2.183.31-.361.857-.418 1.26-.671.44-.278.962-.497 1.26-.924.116-.167.02-.446.167-.587.415-.402 1.128-.25 1.68-.42 1.624-.5 3.22-1.1 4.784-1.763.772-.327 1.442-.942 2.267-1.092.304-.055.923.085.923.085s.153.843.084 1.258c-.06.36-.42 1.008-.42 1.008s.617-.064.84-.252c.287-.241.301-.691.503-1.007.097-.151.161-.381.336-.42.245-.054.451.218.672.336.2.106.588.335.588.335s-.412-1.171-.168-1.679c.289-.601 1.087-.781 1.679-1.09a24.1 24.1 0 0 1 4.113-1.68c1.176-.36 3.61-.755 3.61-.755s-.63-.313-.923-.504c-.502-.326-1.08-.604-1.427-1.091-.155-.216-.252-.756-.252-.756s-.412-.033-.77-.025z"/><path style="fill:gold;stroke:#000;stroke-width:.26458332px;stroke-linecap:butt;stroke-linejoin:miter;stroke-opacity:1;fill-opacity:1" d="M80.557 86.88 74.9 91.755l.39 6.241s7.608 15.215 7.803 15.995c.195.78 5.657 18.726 5.657 18.726s2.535 6.047 3.51 7.608c.976 1.56 2.927 3.706 2.927 3.706l4.486-3.902 4.876-7.217 1.366-4.096 4.291-2.536 2.34-2.536-.194-4.486-.975-7.997s2.34-1.756 2.925-2.926c.586-1.17 2.341-2.341 2.341-3.121 0-.78-.975-4.097-.975-5.267s1.17-4.096 1.17-4.096l-4.096-7.022s-5.072-2.146-7.607-2.146c-2.536 0-24.578.195-24.578.195z"/><circle style="fill:gold;fill-opacity:1;stroke:#030000;stroke-width:.79374999;stroke-linecap:round;stroke-linejoin:round;stroke-miterlimit:4;stroke-dasharray:none;stroke-opacity:1" cx="76.577" cy="98.75" r="4.728"/><path style="fill:gold;stroke:#030000;stroke-width:.79374999;stroke-linecap:round;stroke-linejoin:miter;stroke-miterlimit:4;stroke-dasharray:none;stroke-opacity:1;fill-opacity:1" d="M77.216 101.787s.927-.61 1.214-1.067c.29-.463.44-1.033.44-1.58a3.16 3.16 0 0 0-.44-1.618c-.243-.4-1.03-.956-1.03-.956"/><path style="fill:#fff;stroke:none;stroke-width:.26458332px;stroke-linecap:butt;stroke-linejoin:miter;stroke-opacity:1;fill-opacity:1" d="M75.783 95.537s-.691.352-.956.625c-.31.32-.52.73-.699 1.14-.182.42-.356.865-.367 1.323-.013.502.11 1.019.33 1.47.153.314.364.63.662.81a.86.86 0 0 0 .552.11c.233-.034.5-.132.625-.331.188-.302.163-.734.036-1.066-.12-.317-.573-.422-.698-.736-.11-.273-.036-.59 0-.882.05-.401.21-.781.294-1.177.09-.425.22-1.286.22-1.286z"/><circle style="fill:gold;fill-opacity:1;stroke:#030000;stroke-width:.79374999;stroke-linecap:round;stroke-linejoin:round;stroke-miterlimit:4;stroke-dasharray:none;stroke-opacity:1" cx="77.16" cy="90.293" r="4.728"/><path style="fill:gold;stroke:#030000;stroke-width:.79374999;stroke-linecap:round;stroke-linejoin:miter;stroke-miterlimit:4;stroke-dasharray:none;stroke-opacity:1;fill-opacity:1" d="M77.8 93.33s.926-.61 1.212-1.066c.291-.463.44-1.034.441-1.58a3.16 3.16 0 0 0-.44-1.618c-.243-.4-1.03-.956-1.03-.956"/><path style="fill:#fff;stroke:none;stroke-width:.26458332px;stroke-linecap:butt;stroke-linejoin:miter;stroke-opacity:1;fill-opacity:1" d="M76.365 87.08s-.69.352-.956.625c-.31.32-.52.731-.698 1.14-.183.42-.356.866-.368 1.324-.012.502.111 1.018.331 1.47.153.313.363.63.662.809a.86.86 0 0 0 .551.11c.234-.034.5-.13.625-.33.189-.302.163-.734.037-1.067-.12-.316-.573-.421-.698-.735-.11-.273-.036-.59 0-.882.049-.402.21-.781.294-1.177.09-.426.22-1.287.22-1.287z"/><circle style="fill:gold;fill-opacity:1;stroke:#030000;stroke-width:.79374999;stroke-linecap:round;stroke-linejoin:round;stroke-miterlimit:4;stroke-dasharray:none;stroke-opacity:1" cx="76.53" cy="107.365" r="3.63"/><path style="fill:gold;stroke:#030000;stroke-width:.79374999;stroke-linecap:round;stroke-linejoin:miter;stroke-miterlimit:4;stroke-dasharray:none;stroke-opacity:1;fill-opacity:1" d="M77.021 109.697s.712-.469.932-.819c.223-.355.337-.793.339-1.213a2.426 2.426 0 0 0-.34-1.242c-.185-.308-.79-.734-.79-.734"/><path style="fill:#fff;stroke:none;stroke-width:.26458332px;stroke-linecap:butt;stroke-linejoin:miter;stroke-opacity:1;fill-opacity:1" d="M75.92 104.898s-.53.27-.734.48c-.238.245-.4.561-.536.875-.14.323-.274.665-.282 1.016-.01.386.085.783.254 1.13.117.24.279.483.508.62a.66.66 0 0 0 .423.085c.18-.026.384-.1.48-.254.145-.231.125-.563.028-.818-.092-.243-.44-.324-.536-.565-.084-.21-.027-.453 0-.677.038-.309.162-.6.226-.904.069-.327.17-.988.17-.988z"/><circle style="fill:gold;fill-opacity:1;stroke:#030000;stroke-width:.79374999;stroke-linecap:round;stroke-linejoin:round;stroke-miterlimit:4;stroke-dasharray:none;stroke-opacity:1" cx="80.596" cy="120.075" r="3.63"/><path style="fill:gold;stroke:#030000;stroke-width:.79374999;stroke-linecap:round;stroke-linejoin:miter;stroke-miterlimit:4;stroke-dasharray:none;stroke-opacity:1;fill-opacity:1" d="M81.087 122.406s.712-.468.931-.818c.224-.356.338-.794.34-1.214a2.426 2.426 0 0 0-.34-1.242c-.186-.308-.79-.734-.79-.734"/><path style="fill:#fff;stroke:none;stroke-width:.26458332px;stroke-linecap:butt;stroke-linejoin:miter;stroke-opacity:1;fill-opacity:1" d="M79.986 117.608s-.53.27-.734.48c-.238.245-.4.56-.536.875-.14.322-.274.664-.283 1.016-.01.385.085.782.254 1.129.118.24.28.483.509.621a.66.66 0 0 0 .423.085c.18-.026.384-.1.48-.254.145-.232.125-.564.028-.819-.092-.243-.44-.324-.536-.565-.084-.21-.028-.453 0-.677.038-.308.162-.6.226-.903.068-.327.169-.988.169-.988z"/><circle style="fill:gold;fill-opacity:1;stroke:#030000;stroke-width:.79374999;stroke-linecap:round;stroke-linejoin:round;stroke-miterlimit:4;stroke-dasharray:none;stroke-opacity:1" cx="79.546" cy="113.297" r="3.63"/><path style="fill:gold;stroke:#030000;stroke-width:.79374999;stroke-linecap:round;stroke-linejoin:miter;stroke-miterlimit:4;stroke-dasharray:none;stroke-opacity:1;fill-opacity:1" d="M80.037 115.63s.712-.47.931-.82c.224-.355.338-.793.34-1.213a2.426 2.426 0 0 0-.34-1.242c-.186-.308-.79-.734-.79-.734"/><path style="fill:#fff;stroke:none;stroke-width:.26458332px;stroke-linecap:butt;stroke-linejoin:miter;stroke-opacity:1;fill-opacity:1" d="M78.936 110.83s-.53.27-.734.48c-.238.246-.4.562-.536.875-.14.323-.274.665-.283 1.017-.01.385.085.782.254 1.129.118.24.28.483.509.62a.66.66 0 0 0 .423.086c.18-.027.384-.101.48-.255.145-.231.125-.563.028-.818-.092-.243-.44-.324-.536-.565-.084-.21-.028-.453 0-.677.038-.308.162-.6.226-.904.068-.327.169-.988.169-.988z"/><circle style="fill:gold;fill-opacity:1;stroke:#030000;stroke-width:.79374999;stroke-linecap:round;stroke-linejoin:round;stroke-miterlimit:4;stroke-dasharray:none;stroke-opacity:1" cx="74.201" cy="94.111" r="4.203"/><path style="fill:gold;stroke:#030000;stroke-width:.79374999;stroke-linecap:round;stroke-linejoin:miter;stroke-miterlimit:4;stroke-dasharray:none;stroke-opacity:1;fill-opacity:1" d="M74.769 96.811s.824-.542 1.079-.948a2.7 2.7 0 0 0 .392-1.405 2.809 2.809 0 0 0-.392-1.438c-.216-.356-.916-.85-.916-.85"/><path style="fill:#fff;stroke:none;stroke-width:.26458332px;stroke-linecap:butt;stroke-linejoin:miter;stroke-opacity:1;fill-opacity:1" d="M73.494 91.255s-.614.313-.85.556c-.275.284-.462.65-.62 1.013-.163.373-.317.77-.327 1.177-.011.446.098.905.294 1.307.136.278.323.56.588.719a.764.764 0 0 0 .49.098c.208-.03.445-.117.556-.294.168-.268.145-.653.033-.948-.107-.281-.51-.375-.621-.654-.097-.243-.032-.525 0-.784.044-.357.187-.694.261-1.046.08-.378.196-1.144.196-1.144z"/><circle style="fill:gold;fill-opacity:1;stroke:#030000;stroke-width:.79374999;stroke-linecap:round;stroke-linejoin:round;stroke-miterlimit:4;stroke-dasharray:none;stroke-opacity:1" cx="118.013" cy="88.002" r="3.63"/><path style="fill:gold;stroke:#030000;stroke-width:.79374999;stroke-linecap:round;stroke-linejoin:miter;stroke-miterlimit:4;stroke-dasharray:none;stroke-opacity:1;fill-opacity:1" d="M118.504 90.334s.712-.468.932-.818c.223-.356.337-.794.339-1.214a2.428 2.428 0 0 0-.339-1.242c-.186-.308-.79-.734-.79-.734"/><path style="fill:#fff;stroke:none;stroke-width:.26458332px;stroke-linecap:butt;stroke-linejoin:miter;stroke-opacity:1;fill-opacity:1" d="M117.403 85.535s-.53.27-.733.48c-.239.246-.4.562-.537.875-.14.323-.273.665-.282 1.017-.01.385.085.782.254 1.129.117.24.279.483.508.62a.66.66 0 0 0 .424.086c.179-.027.383-.101.48-.255.144-.231.124-.563.028-.818-.092-.243-.44-.324-.537-.565-.083-.21-.027-.453 0-.677.038-.308.162-.6.226-.904.069-.327.17-.988.17-.988z"/><circle style="fill:gold;fill-opacity:1;stroke:#030000;stroke-width:.79374999;stroke-linecap:round;stroke-linejoin:round;stroke-miterlimit:4;stroke-dasharray:none;stroke-opacity:1" cx="119.827" cy="96.975" r="3.63"/><path style="fill:gold;stroke:#030000;stroke-width:.79374999;stroke-linecap:round;stroke-linejoin:miter;stroke-miterlimit:4;stroke-dasharray:none;stroke-opacity:1;fill-opacity:1" d="M120.318 99.307s.712-.469.932-.819c.223-.355.337-.794.338-1.214a2.428 2.428 0 0 0-.338-1.242c-.187-.307-.79-.734-.79-.734"/><path style="fill:gold;stroke:#030000;stroke-width:.26458332px;stroke-linecap:butt;stroke-linejoin:miter;stroke-opacity:1;fill-opacity:1" d="M119.217 94.508s-.53.27-.734.48c-.238.245-.4.561-.536.875-.14.322-.274.665-.282 1.016-.01.386.085.783.254 1.13.117.24.278.483.508.62a.66.66 0 0 0 .423.085c.18-.026.384-.1.48-.254.145-.231.125-.563.028-.819-.092-.242-.44-.323-.536-.564-.084-.21-.028-.454 0-.678.038-.308.162-.6.226-.903.069-.327.17-.988.17-.988z"/><circle style="fill:gold;fill-opacity:1;stroke:#030000;stroke-width:.79374999;stroke-linecap:round;stroke-linejoin:round;stroke-miterlimit:4;stroke-dasharray:none;stroke-opacity:1" cx="117.727" cy="105.279" r="3.821"/><path style="fill:gold;stroke:#030000;stroke-width:.79374999;stroke-linecap:round;stroke-linejoin:miter;stroke-miterlimit:4;stroke-dasharray:none;stroke-opacity:1;fill-opacity:1" d="M118.244 107.734s.749-.493.98-.862c.236-.374.356-.835.357-1.277a2.556 2.556 0 0 0-.357-1.308c-.196-.324-.832-.772-.832-.772"/><path style="fill:#fff;stroke:none;stroke-width:.26458332px;stroke-linecap:butt;stroke-linejoin:miter;stroke-opacity:1;fill-opacity:1" d="M117.085 102.683s-.558.284-.772.505c-.251.258-.421.59-.565.92-.148.34-.288.7-.297 1.07-.01.407.09.824.267 1.19.124.252.294.508.535.653.13.078.296.11.446.089.188-.028.404-.106.505-.268.152-.243.132-.592.03-.861-.097-.256-.464-.34-.565-.594-.088-.221-.029-.478 0-.714.04-.324.17-.63.238-.95.072-.345.178-1.04.178-1.04z"/><circle style="fill:gold;fill-opacity:1;stroke:#030000;stroke-width:.79374999;stroke-linecap:round;stroke-linejoin:round;stroke-miterlimit:4;stroke-dasharray:none;stroke-opacity:1" cx="116.486" cy="112.247" r="3.63"/><path style="fill:gold;stroke:#030000;stroke-width:.79374999;stroke-linecap:round;stroke-linejoin:miter;stroke-miterlimit:4;stroke-dasharray:none;stroke-opacity:1;fill-opacity:1" d="M116.977 114.58s.712-.47.932-.82c.223-.355.337-.793.338-1.213a2.428 2.428 0 0 0-.338-1.242c-.186-.308-.79-.734-.79-.734"/><path style="fill:#fff;stroke:none;stroke-width:.26458332px;stroke-linecap:butt;stroke-linejoin:miter;stroke-opacity:1;fill-opacity:1" d="M115.876 109.78s-.53.27-.734.48c-.238.246-.4.562-.536.875-.14.323-.274.665-.282 1.017-.01.385.085.782.254 1.129.117.24.279.483.508.62a.66.66 0 0 0 .423.086c.18-.027.384-.101.48-.255.145-.231.125-.563.028-.818-.092-.243-.44-.324-.536-.565-.084-.21-.028-.453 0-.677.038-.308.162-.6.226-.904.069-.327.17-.988.17-.988z"/><circle style="fill:gold;fill-opacity:1;stroke:#030000;stroke-width:.79374999;stroke-linecap:round;stroke-linejoin:round;stroke-miterlimit:4;stroke-dasharray:none;stroke-opacity:1" cx="113.241" cy="124.847" r="3.63"/><path style="fill:gold;stroke:#030000;stroke-width:.79374999;stroke-linecap:round;stroke-linejoin:miter;stroke-miterlimit:4;stroke-dasharray:none;stroke-opacity:1;fill-opacity:1" d="M113.732 127.18s.711-.47.931-.82c.224-.355.338-.793.34-1.213a2.428 2.428 0 0 0-.34-1.242c-.186-.308-.79-.734-.79-.734"/><path style="fill:#fff;stroke:none;stroke-width:.26458332px;stroke-linecap:butt;stroke-linejoin:miter;stroke-opacity:1;fill-opacity:1" d="M112.63 122.38s-.53.27-.733.48c-.238.246-.4.561-.536.875-.14.323-.274.665-.283 1.016-.01.386.085.783.254 1.13.118.24.28.483.508.62a.66.66 0 0 0 .424.085c.179-.026.384-.1.48-.254.145-.231.125-.563.028-.818-.092-.243-.44-.324-.536-.565-.084-.21-.028-.453 0-.677.038-.308.162-.6.225-.904.07-.327.17-.988.17-.988z"/><circle style="fill:gold;fill-opacity:1;stroke:#030000;stroke-width:.79374999;stroke-linecap:round;stroke-linejoin:round;stroke-miterlimit:4;stroke-dasharray:none;stroke-opacity:1" cx="95.764" cy="143.78" r="4.728"/><path style="fill:gold;stroke:#030000;stroke-width:.79374999;stroke-linecap:round;stroke-linejoin:miter;stroke-miterlimit:4;stroke-dasharray:none;stroke-opacity:1;fill-opacity:1" d="M96.403 146.817s.927-.61 1.214-1.066c.29-.463.44-1.034.44-1.58a3.16 3.16 0 0 0-.44-1.618c-.243-.4-1.03-.956-1.03-.956"/><path style="fill:#fff;stroke:none;stroke-width:.26458332px;stroke-linecap:butt;stroke-linejoin:miter;stroke-opacity:1;fill-opacity:1" d="M94.97 140.567s-.691.352-.956.625c-.31.32-.521.732-.699 1.14-.182.42-.356.866-.367 1.324-.013.502.11 1.019.33 1.47.153.313.364.63.662.81a.86.86 0 0 0 .552.11c.233-.035.5-.132.625-.332.188-.301.163-.733.036-1.066-.12-.316-.573-.421-.698-.735-.11-.273-.036-.59 0-.882.05-.402.21-.781.294-1.177.09-.426.22-1.287.22-1.287z"/><circle style="fill:gold;fill-opacity:1;stroke:#030000;stroke-width:.79374999;stroke-linecap:round;stroke-linejoin:round;stroke-miterlimit:4;stroke-dasharray:none;stroke-opacity:1" cx="91.668" cy="136.683" r="4.728"/><path style="fill:gold;stroke:#030000;stroke-width:.79374999;stroke-linecap:round;stroke-linejoin:miter;stroke-miterlimit:4;stroke-dasharray:none;stroke-opacity:1;fill-opacity:1" d="M92.308 139.72s.927-.61 1.213-1.066c.291-.463.44-1.034.441-1.58a3.16 3.16 0 0 0-.44-1.618c-.243-.4-1.03-.956-1.03-.956"/><path style="fill:#fff;stroke:none;stroke-width:.26458332px;stroke-linecap:butt;stroke-linejoin:miter;stroke-opacity:1;fill-opacity:1" d="M90.874 133.47s-.69.352-.956.625c-.31.32-.52.732-.698 1.14-.183.42-.357.866-.368 1.324-.012.502.11 1.019.33 1.47.154.313.364.63.663.809a.86.86 0 0 0 .551.11c.233-.034.5-.13.625-.33.189-.302.163-.734.037-1.067-.12-.316-.573-.421-.699-.735-.109-.273-.036-.59 0-.882.05-.402.211-.781.295-1.177.09-.426.22-1.287.22-1.287z"/><circle style="fill:gold;fill-opacity:1;stroke:#030000;stroke-width:.79374999;stroke-linecap:round;stroke-linejoin:round;stroke-miterlimit:4;stroke-dasharray:none;stroke-opacity:1" cx="101.786" cy="136.97" r="4.728"/><path style="fill:gold;stroke:#030000;stroke-width:.79374999;stroke-linecap:round;stroke-linejoin:miter;stroke-miterlimit:4;stroke-dasharray:none;stroke-opacity:1;fill-opacity:1" d="M102.426 140.007s.927-.61 1.213-1.066c.291-.464.44-1.034.441-1.581a3.156 3.156 0 0 0-.44-1.618c-.243-.4-1.03-.956-1.03-.956"/><path style="fill:#fff;stroke:none;stroke-width:.26458332px;stroke-linecap:butt;stroke-linejoin:miter;stroke-opacity:1;fill-opacity:1" d="M100.992 133.757s-.69.352-.956.625c-.31.32-.52.73-.698 1.14-.183.42-.357.865-.368 1.323-.012.502.11 1.019.33 1.47.154.314.364.63.663.81a.86.86 0 0 0 .551.11c.233-.034.5-.131.625-.331.189-.302.163-.734.037-1.066-.12-.316-.573-.422-.699-.736-.109-.273-.035-.59 0-.882.05-.401.211-.78.295-1.176.09-.426.22-1.287.22-1.287z"/><circle style="fill:gold;fill-opacity:1;stroke:#030000;stroke-width:.79374999;stroke-linecap:round;stroke-linejoin:round;stroke-miterlimit:4;stroke-dasharray:none;stroke-opacity:1" cx="88.232" cy="130.956" r="4.728"/><path style="fill:gold;stroke:#030000;stroke-width:.79374999;stroke-linecap:round;stroke-linejoin:miter;stroke-miterlimit:4;stroke-dasharray:none;stroke-opacity:1;fill-opacity:1" d="M88.872 133.993s.926-.61 1.213-1.066c.29-.463.44-1.034.441-1.58a3.16 3.16 0 0 0-.441-1.618c-.243-.401-1.03-.956-1.03-.956"/><path style="fill:#fff;stroke:none;stroke-width:.26458332px;stroke-linecap:butt;stroke-linejoin:miter;stroke-opacity:1;fill-opacity:1" d="M87.438 127.743s-.69.352-.956.625c-.31.32-.52.731-.699 1.14-.182.42-.356.866-.367 1.323-.013.503.11 1.02.33 1.471.153.313.364.63.662.809a.86.86 0 0 0 .552.11c.233-.034.5-.13.625-.33.188-.302.163-.734.037-1.067-.12-.316-.574-.421-.699-.735-.109-.273-.036-.59 0-.883.05-.4.211-.78.294-1.176.09-.426.22-1.287.22-1.287z"/><circle style="fill:gold;fill-opacity:1;stroke:#030000;stroke-width:.79374999;stroke-linecap:round;stroke-linejoin:round;stroke-miterlimit:4;stroke-dasharray:none;stroke-opacity:1" cx="105.7" cy="130.765" r="4.728"/><path style="fill:gold;stroke:#030000;stroke-width:.79374999;stroke-linecap:round;stroke-linejoin:miter;stroke-miterlimit:4;stroke-dasharray:none;stroke-opacity:1;fill-opacity:1" d="M106.34 133.802s.926-.61 1.213-1.066c.29-.463.44-1.034.44-1.58a3.156 3.156 0 0 0-.44-1.618c-.243-.4-1.03-.956-1.03-.956"/><path style="fill:#fff;stroke:none;stroke-width:.26458332px;stroke-linecap:butt;stroke-linejoin:miter;stroke-opacity:1;fill-opacity:1" d="M104.906 127.552s-.691.352-.956.625c-.31.32-.521.731-.699 1.14-.182.42-.356.866-.367 1.324-.013.502.11 1.018.33 1.47.153.313.364.63.662.809a.86.86 0 0 0 .552.11c.233-.034.5-.13.625-.33.188-.302.163-.734.037-1.067-.12-.316-.574-.421-.699-.735-.11-.273-.036-.59 0-.882.05-.402.21-.781.294-1.177.09-.426.22-1.287.22-1.287z"/><circle style="fill:gold;fill-opacity:1;stroke:#030000;stroke-width:.79374999;stroke-linecap:round;stroke-linejoin:round;stroke-miterlimit:4;stroke-dasharray:none;stroke-opacity:1" cx="96.155" cy="131.433" r="4.728"/><path style="fill:gold;stroke:#030000;stroke-width:.79374999;stroke-linecap:round;stroke-linejoin:miter;stroke-miterlimit:4;stroke-dasharray:none;stroke-opacity:1;fill-opacity:1" d="M96.794 134.47s.927-.61 1.213-1.066c.291-.463.44-1.033.442-1.58a3.16 3.16 0 0 0-.442-1.618c-.242-.4-1.029-.956-1.029-.956"/><path style="fill:#fff;stroke:none;stroke-width:.26458332px;stroke-linecap:butt;stroke-linejoin:miter;stroke-opacity:1;fill-opacity:1" d="M95.36 128.22s-.69.352-.956.626c-.31.32-.52.73-.698 1.14-.183.42-.356.865-.368 1.323-.012.502.111 1.019.331 1.47.153.313.363.63.662.81a.86.86 0 0 0 .551.11c.234-.035.5-.132.625-.331.19-.302.163-.734.037-1.067-.12-.316-.573-.421-.698-.735-.11-.273-.036-.59 0-.882.05-.401.21-.781.294-1.177.09-.426.22-1.286.22-1.286z"/><circle style="fill:gold;fill-opacity:1;stroke:#030000;stroke-width:.79374999;stroke-linecap:round;stroke-linejoin:round;stroke-miterlimit:4;stroke-dasharray:none;stroke-opacity:1" cx="86.371" cy="124.895" r="4.967"/><path style="fill:gold;stroke:#030000;stroke-width:.79374999;stroke-linecap:round;stroke-linejoin:miter;stroke-miterlimit:4;stroke-dasharray:none;stroke-opacity:1;fill-opacity:1" d="M87.043 128.085s.973-.64 1.274-1.12a3.19 3.19 0 0 0 .463-1.66 3.319 3.319 0 0 0-.463-1.7c-.255-.42-1.081-1.004-1.081-1.004"/><path style="fill:#fff;stroke:none;stroke-width:.26458332px;stroke-linecap:butt;stroke-linejoin:miter;stroke-opacity:1;fill-opacity:1" d="M85.536 121.52s-.725.37-1.004.656c-.326.336-.547.768-.734 1.198-.191.44-.374.91-.386 1.39-.013.528.117 1.07.348 1.545.16.329.381.66.695.85a.903.903 0 0 0 .58.115c.244-.036.524-.137.656-.347.198-.317.171-.771.038-1.12-.126-.332-.602-.443-.733-.773-.115-.287-.038-.62 0-.927.052-.421.221-.82.309-1.235.094-.448.231-1.352.231-1.352z"/><circle style="fill:gold;fill-opacity:1;stroke:#030000;stroke-width:.79374999;stroke-linecap:round;stroke-linejoin:round;stroke-miterlimit:4;stroke-dasharray:none;stroke-opacity:1" cx="106.368" cy="125.42" r="4.728"/><path style="fill:gold;stroke:#030000;stroke-width:.79374999;stroke-linecap:round;stroke-linejoin:miter;stroke-miterlimit:4;stroke-dasharray:none;stroke-opacity:1;fill-opacity:1" d="M107.008 128.457s.926-.61 1.213-1.066c.29-.463.44-1.034.441-1.581a3.156 3.156 0 0 0-.441-1.618c-.243-.4-1.03-.956-1.03-.956"/><path style="fill:#fff;stroke:none;stroke-width:.26458332px;stroke-linecap:butt;stroke-linejoin:miter;stroke-opacity:1;fill-opacity:1" d="M105.574 122.207s-.69.352-.956.625c-.31.32-.52.731-.699 1.14-.182.42-.356.865-.367 1.323-.013.502.11 1.02.33 1.47.153.314.364.63.662.81a.86.86 0 0 0 .552.11c.233-.034.5-.131.625-.331.189-.301.163-.734.037-1.066-.12-.316-.573-.421-.699-.735-.109-.274-.036-.59 0-.883.05-.401.211-.78.294-1.176.09-.426.22-1.287.22-1.287z"/><circle style="fill:gold;fill-opacity:1;stroke:#030000;stroke-width:.79374999;stroke-linecap:round;stroke-linejoin:round;stroke-miterlimit:4;stroke-dasharray:none;stroke-opacity:1" cx="96.575" cy="125.215" r="5.158"/><path style="fill:gold;stroke:#030000;stroke-width:.79374999;stroke-linecap:round;stroke-linejoin:miter;stroke-miterlimit:4;stroke-dasharray:none;stroke-opacity:1;fill-opacity:1" d="M97.273 128.528s1.01-.666 1.323-1.163c.318-.506.48-1.128.482-1.725a3.447 3.447 0 0 0-.482-1.764c-.264-.437-1.123-1.043-1.123-1.043"/><path style="fill:#fff;stroke:none;stroke-width:.26458332px;stroke-linecap:butt;stroke-linejoin:miter;stroke-opacity:1;fill-opacity:1" d="M95.709 121.71s-.754.384-1.043.682c-.339.348-.568.797-.762 1.243-.2.458-.388.944-.4 1.444-.015.548.12 1.111.36 1.604.167.342.396.686.722.882.175.106.4.15.601.12.255-.037.546-.142.682-.36.206-.33.178-.8.04-1.163-.13-.345-.625-.46-.762-.802-.119-.298-.039-.645 0-.963.054-.438.23-.852.321-1.283.098-.465.24-1.404.24-1.404z"/><circle style="fill:gold;fill-opacity:1;stroke:#030000;stroke-width:.79374999;stroke-linecap:round;stroke-linejoin:round;stroke-miterlimit:4;stroke-dasharray:none;stroke-opacity:1" cx="85.941" cy="118.834" r="4.728"/><path style="fill:gold;stroke:#030000;stroke-width:.79374999;stroke-linecap:round;stroke-linejoin:miter;stroke-miterlimit:4;stroke-dasharray:none;stroke-opacity:1;fill-opacity:1" d="M86.58 121.87s.928-.61 1.214-1.066c.291-.463.44-1.033.441-1.58a3.16 3.16 0 0 0-.441-1.618c-.243-.4-1.03-.956-1.03-.956"/><path style="fill:#fff;stroke:none;stroke-width:.26458332px;stroke-linecap:butt;stroke-linejoin:miter;stroke-opacity:1;fill-opacity:1" d="M85.147 115.62s-.69.353-.956.626c-.31.32-.52.73-.698 1.14-.183.42-.357.865-.368 1.323-.013.502.11 1.019.33 1.47.153.314.364.63.663.81a.86.86 0 0 0 .551.11c.233-.034.5-.131.625-.331.189-.302.163-.734.037-1.066-.12-.316-.573-.422-.699-.736-.109-.273-.036-.59 0-.882.05-.401.211-.78.294-1.176.09-.426.22-1.287.22-1.287z"/><circle style="fill:gold;fill-opacity:1;stroke:#030000;stroke-width:.79374999;stroke-linecap:round;stroke-linejoin:round;stroke-miterlimit:4;stroke-dasharray:none;stroke-opacity:1" cx="112.382" cy="117.211" r="4.728"/><path style="fill:gold;stroke:#030000;stroke-width:.79374999;stroke-linecap:round;stroke-linejoin:miter;stroke-miterlimit:4;stroke-dasharray:none;stroke-opacity:1;fill-opacity:1" d="M113.021 120.248s.927-.61 1.213-1.066c.291-.463.44-1.034.442-1.581a3.156 3.156 0 0 0-.442-1.618c-.242-.4-1.029-.956-1.029-.956"/><path style="fill:#fff;stroke:none;stroke-width:.26458332px;stroke-linecap:butt;stroke-linejoin:miter;stroke-opacity:1;fill-opacity:1" d="M111.587 113.998s-.69.352-.956.625c-.31.32-.52.731-.698 1.14-.183.42-.356.866-.368 1.323-.012.503.111 1.02.331 1.47.153.314.363.63.662.81a.86.86 0 0 0 .551.11c.234-.034.5-.131.625-.331.19-.301.163-.734.037-1.066-.12-.316-.573-.421-.698-.735-.11-.274-.036-.59 0-.883.05-.4.21-.78.294-1.176.09-.426.22-1.287.22-1.287z"/><circle style="fill:gold;fill-opacity:1;stroke:#030000;stroke-width:.79374999;stroke-linecap:round;stroke-linejoin:round;stroke-miterlimit:4;stroke-dasharray:none;stroke-opacity:1" cx="95.296" cy="118.452" r="4.728"/><path style="fill:gold;stroke:#030000;stroke-width:.79374999;stroke-linecap:round;stroke-linejoin:miter;stroke-miterlimit:4;stroke-dasharray:none;stroke-opacity:1;fill-opacity:1" d="M95.935 121.489s.927-.61 1.213-1.066c.291-.464.44-1.034.441-1.581a3.16 3.16 0 0 0-.44-1.618c-.243-.4-1.03-.956-1.03-.956"/><path style="fill:#fff;stroke:none;stroke-width:.26458332px;stroke-linecap:butt;stroke-linejoin:miter;stroke-opacity:1;fill-opacity:1" d="M94.501 115.239s-.69.352-.956.625c-.31.32-.52.731-.698 1.14-.183.42-.356.865-.368 1.323-.012.502.111 1.02.331 1.47.153.314.363.63.662.81a.86.86 0 0 0 .551.11c.234-.034.5-.131.625-.331.189-.302.163-.734.037-1.066-.12-.316-.573-.422-.698-.736-.11-.273-.036-.59 0-.882.049-.401.21-.78.294-1.176.09-.426.22-1.287.22-1.287z"/><circle style="fill:gold;fill-opacity:1;stroke:#030000;stroke-width:.79374999;stroke-linecap:round;stroke-linejoin:round;stroke-miterlimit:4;stroke-dasharray:none;stroke-opacity:1" cx="103.505" cy="117.688" r="4.728"/><path style="fill:gold;stroke:#030000;stroke-width:.79374999;stroke-linecap:round;stroke-linejoin:miter;stroke-miterlimit:4;stroke-dasharray:none;stroke-opacity:1;fill-opacity:1" d="M104.144 120.725s.927-.61 1.213-1.066c.291-.463.44-1.034.441-1.58a3.156 3.156 0 0 0-.44-1.618c-.243-.401-1.03-.956-1.03-.956"/><path style="fill:#fff;stroke:none;stroke-width:.26458332px;stroke-linecap:butt;stroke-linejoin:miter;stroke-opacity:1;fill-opacity:1" d="M102.71 114.475s-.69.352-.956.625c-.31.32-.52.731-.698 1.14-.183.42-.356.866-.368 1.324-.012.502.11 1.018.331 1.47.153.313.363.63.662.809a.86.86 0 0 0 .551.11c.234-.034.5-.13.625-.33.189-.302.163-.734.037-1.067-.12-.316-.573-.421-.698-.735-.11-.273-.036-.59 0-.882.049-.402.21-.781.294-1.177.09-.426.22-1.287.22-1.287z"/><circle style="fill:gold;fill-opacity:1;stroke:#030000;stroke-width:.79374999;stroke-linecap:round;stroke-linejoin:round;stroke-miterlimit:4;stroke-dasharray:none;stroke-opacity:1" cx="83.642" cy="111.899" r="4.728"/><path style="fill:gold;stroke:#030000;stroke-width:.79374999;stroke-linecap:round;stroke-linejoin:miter;stroke-miterlimit:4;stroke-dasharray:none;stroke-opacity:1;fill-opacity:1" d="M84.28 114.936s.928-.61 1.214-1.066c.291-.463.44-1.034.441-1.58a3.16 3.16 0 0 0-.44-1.618c-.243-.401-1.03-.956-1.03-.956"/><path style="fill:#fff;stroke:none;stroke-width:.26458332px;stroke-linecap:butt;stroke-linejoin:miter;stroke-opacity:1;fill-opacity:1" d="M82.847 108.686s-.69.352-.956.625c-.31.32-.52.731-.698 1.14-.183.42-.357.866-.368 1.323-.012.503.11 1.02.331 1.471.153.313.363.63.662.809a.86.86 0 0 0 .551.11c.233-.034.5-.131.625-.33.189-.302.163-.734.037-1.067-.12-.316-.573-.421-.699-.735-.109-.273-.036-.59 0-.883.05-.4.211-.78.295-1.176.09-.426.22-1.287.22-1.287z"/><circle style="fill:gold;fill-opacity:1;stroke:#030000;stroke-width:.79374999;stroke-linecap:round;stroke-linejoin:round;stroke-miterlimit:4;stroke-dasharray:none;stroke-opacity:1" cx="112.382" cy="108.716" r="4.728"/><path style="fill:gold;stroke:#030000;stroke-width:.79374999;stroke-linecap:round;stroke-linejoin:miter;stroke-miterlimit:4;stroke-dasharray:none;stroke-opacity:1;fill-opacity:1" d="M113.021 111.753s.927-.61 1.213-1.066c.291-.464.44-1.034.442-1.581a3.156 3.156 0 0 0-.442-1.618c-.242-.4-1.029-.956-1.029-.956"/><path style="fill:#fff;stroke:none;stroke-width:.26458332px;stroke-linecap:butt;stroke-linejoin:miter;stroke-opacity:1;fill-opacity:1" d="M111.587 105.503s-.69.352-.956.625c-.31.32-.52.73-.698 1.14-.183.42-.356.865-.368 1.323-.012.502.111 1.019.331 1.47.153.314.363.63.662.81a.86.86 0 0 0 .551.11c.234-.034.5-.131.625-.331.19-.302.163-.734.037-1.066-.12-.316-.573-.422-.698-.736-.11-.273-.036-.59 0-.882.05-.401.21-.78.294-1.176.09-.426.22-1.287.22-1.287z"/><circle style="fill:gold;fill-opacity:1;stroke:#030000;stroke-width:.79374999;stroke-linecap:round;stroke-linejoin:round;stroke-miterlimit:4;stroke-dasharray:none;stroke-opacity:1" cx="92.623" cy="110.338" r="4.728"/><path style="fill:gold;stroke:#030000;stroke-width:.79374999;stroke-linecap:round;stroke-linejoin:miter;stroke-miterlimit:4;stroke-dasharray:none;stroke-opacity:1;fill-opacity:1" d="M93.262 113.375s.927-.61 1.214-1.066c.29-.463.44-1.034.44-1.58a3.16 3.16 0 0 0-.44-1.618c-.243-.4-1.03-.956-1.03-.956"/><path style="fill:#fff;stroke:none;stroke-width:.26458332px;stroke-linecap:butt;stroke-linejoin:miter;stroke-opacity:1;fill-opacity:1" d="M91.829 107.125s-.691.352-.956.625c-.31.32-.521.732-.699 1.14-.182.42-.356.866-.367 1.324-.013.502.11 1.019.33 1.47.153.313.364.63.662.809a.86.86 0 0 0 .552.11c.233-.034.5-.13.625-.33.188-.302.163-.734.036-1.067-.12-.316-.573-.421-.698-.735-.11-.273-.036-.59 0-.882.05-.402.21-.781.294-1.177.09-.426.22-1.287.22-1.287z"/><circle style="fill:gold;fill-opacity:1;stroke:#030000;stroke-width:.79374999;stroke-linecap:round;stroke-linejoin:round;stroke-miterlimit:4;stroke-dasharray:none;stroke-opacity:1" cx="102.55" cy="109.288" r="4.728"/><path style="fill:gold;stroke:#030000;stroke-width:.79374999;stroke-linecap:round;stroke-linejoin:miter;stroke-miterlimit:4;stroke-dasharray:none;stroke-opacity:1;fill-opacity:1" d="M103.19 112.325s.926-.61 1.213-1.066c.29-.463.44-1.034.44-1.58a3.156 3.156 0 0 0-.44-1.618c-.243-.4-1.03-.956-1.03-.956"/><path style="fill:#fff;stroke:none;stroke-width:.26458332px;stroke-linecap:butt;stroke-linejoin:miter;stroke-opacity:1;fill-opacity:1" d="M101.756 106.075s-.69.352-.956.625c-.31.32-.52.732-.699 1.14-.182.42-.356.866-.367 1.324-.013.502.11 1.019.33 1.47.153.313.364.63.662.809a.86.86 0 0 0 .552.11c.233-.034.5-.13.625-.33.188-.302.163-.734.037-1.067-.12-.316-.574-.421-.699-.735-.109-.273-.036-.59 0-.882.05-.402.21-.781.294-1.177.09-.426.22-1.287.22-1.287z"/><circle style="fill:gold;fill-opacity:1;stroke:#030000;stroke-width:.79374999;stroke-linecap:round;stroke-linejoin:round;stroke-miterlimit:4;stroke-dasharray:none;stroke-opacity:1" cx="80.787" cy="104.707" r="4.728"/><path style="fill:gold;stroke:#030000;stroke-width:.79374999;stroke-linecap:round;stroke-linejoin:miter;stroke-miterlimit:4;stroke-dasharray:none;stroke-opacity:1;fill-opacity:1" d="M81.426 107.744s.927-.61 1.213-1.067c.292-.463.44-1.033.442-1.58a3.16 3.16 0 0 0-.442-1.618c-.242-.4-1.029-.956-1.029-.956"/><path style="fill:#fff;stroke:none;stroke-width:.26458332px;stroke-linecap:butt;stroke-linejoin:miter;stroke-opacity:1;fill-opacity:1" d="M79.992 101.494s-.69.352-.955.625c-.31.32-.521.73-.699 1.14-.183.42-.356.865-.368 1.323-.012.502.111 1.019.331 1.47.153.314.364.63.662.81a.86.86 0 0 0 .552.11c.233-.034.5-.131.625-.331.188-.302.162-.734.036-1.066-.12-.317-.573-.422-.698-.736-.11-.273-.036-.59 0-.882.05-.401.21-.78.294-1.177.09-.425.22-1.286.22-1.286z"/><circle style="fill:gold;fill-opacity:1;stroke:#030000;stroke-width:.79374999;stroke-linecap:round;stroke-linejoin:round;stroke-miterlimit:4;stroke-dasharray:none;stroke-opacity:1" cx="114.664" cy="98.822" r="4.728"/><path style="fill:gold;stroke:#030000;stroke-width:.79374999;stroke-linecap:round;stroke-linejoin:miter;stroke-miterlimit:4;stroke-dasharray:none;stroke-opacity:1;fill-opacity:1" d="M115.303 101.86s.927-.611 1.213-1.067c.291-.463.44-1.034.442-1.58a3.156 3.156 0 0 0-.442-1.619c-.242-.4-1.03-.955-1.03-.955"/><path style="fill:#fff;stroke:none;stroke-width:.26458332px;stroke-linecap:butt;stroke-linejoin:miter;stroke-opacity:1;fill-opacity:1" d="M113.87 95.61s-.691.351-.957.624c-.31.32-.52.731-.698 1.14-.183.42-.356.866-.368 1.323-.012.503.111 1.02.331 1.471.153.313.363.63.662.809a.86.86 0 0 0 .551.11c.234-.034.5-.131.625-.33.189-.302.163-.735.037-1.067-.12-.316-.573-.421-.698-.735-.11-.273-.036-.59 0-.883.05-.4.21-.78.294-1.176.09-.426.22-1.287.22-1.287z"/><circle style="fill:gold;fill-opacity:1;stroke:#030000;stroke-width:.79374999;stroke-linecap:round;stroke-linejoin:round;stroke-miterlimit:4;stroke-dasharray:none;stroke-opacity:1" cx="105.7" cy="101.079" r="4.728"/><path style="fill:gold;stroke:#030000;stroke-width:.79374999;stroke-linecap:round;stroke-linejoin:miter;stroke-miterlimit:4;stroke-dasharray:none;stroke-opacity:1;fill-opacity:1" d="M106.34 104.116s.926-.61 1.213-1.066c.29-.463.44-1.033.44-1.58a3.156 3.156 0 0 0-.44-1.618c-.243-.4-1.03-.956-1.03-.956"/><path style="fill:#fff;stroke:none;stroke-width:.26458332px;stroke-linecap:butt;stroke-linejoin:miter;stroke-opacity:1;fill-opacity:1" d="M104.906 97.867s-.691.351-.956.625c-.31.32-.521.73-.699 1.14-.182.42-.356.865-.367 1.323-.013.502.11 1.019.33 1.47.153.313.364.63.662.81a.86.86 0 0 0 .552.11c.233-.035.5-.132.625-.331.188-.302.163-.734.037-1.067-.12-.316-.574-.421-.699-.735-.11-.273-.036-.59 0-.882.05-.401.21-.781.294-1.177.09-.426.22-1.286.22-1.286z"/><circle style="fill:gold;fill-opacity:1;stroke:#030000;stroke-width:.79374999;stroke-linecap:round;stroke-linejoin:round;stroke-miterlimit:4;stroke-dasharray:none;stroke-opacity:1" cx="86.228" cy="102.225" r="4.728"/><path style="fill:gold;stroke:#030000;stroke-width:.79374999;stroke-linecap:round;stroke-linejoin:miter;stroke-miterlimit:4;stroke-dasharray:none;stroke-opacity:1;fill-opacity:1" d="M86.867 105.262s.927-.61 1.213-1.066c.291-.464.44-1.034.441-1.581a3.16 3.16 0 0 0-.44-1.618c-.243-.4-1.03-.956-1.03-.956"/><path style="fill:#fff;stroke:none;stroke-width:.26458332px;stroke-linecap:butt;stroke-linejoin:miter;stroke-opacity:1;fill-opacity:1" d="M85.433 99.012s-.69.352-.956.625c-.31.32-.52.731-.698 1.14-.183.42-.356.865-.368 1.323-.012.502.111 1.02.331 1.47.153.314.363.63.662.81a.86.86 0 0 0 .551.11c.234-.034.5-.131.625-.331.189-.301.163-.734.037-1.066-.12-.316-.573-.422-.698-.735-.11-.274-.036-.59 0-.883.049-.401.21-.78.294-1.176.09-.426.22-1.287.22-1.287z"/><circle style="fill:gold;fill-opacity:1;stroke:#030000;stroke-width:.79374999;stroke-linecap:round;stroke-linejoin:round;stroke-miterlimit:4;stroke-dasharray:none;stroke-opacity:1" cx="97.014" cy="101.27" r="4.728"/><path style="fill:gold;stroke:#030000;stroke-width:.79374999;stroke-linecap:round;stroke-linejoin:miter;stroke-miterlimit:4;stroke-dasharray:none;stroke-opacity:1;fill-opacity:1" d="M97.653 104.307s.927-.61 1.213-1.066c.292-.463.44-1.034.442-1.58a3.16 3.16 0 0 0-.442-1.618c-.242-.4-1.029-.956-1.029-.956"/><path style="fill:#fff;stroke:none;stroke-width:.26458332px;stroke-linecap:butt;stroke-linejoin:miter;stroke-opacity:1;fill-opacity:1" d="M96.22 98.057s-.691.352-.956.625c-.31.32-.521.732-.699 1.14-.183.42-.356.866-.368 1.324-.012.502.111 1.019.331 1.47.153.313.364.63.662.809a.86.86 0 0 0 .552.11c.233-.034.5-.13.625-.33.188-.302.162-.734.036-1.067-.12-.316-.573-.421-.698-.735-.11-.273-.036-.59 0-.882.05-.402.21-.781.294-1.177.09-.426.22-1.287.22-1.287z"/><circle style="fill:gold;fill-opacity:1;stroke:#030000;stroke-width:.79374999;stroke-linecap:round;stroke-linejoin:round;stroke-miterlimit:4;stroke-dasharray:none;stroke-opacity:1" cx="116.343" cy="93.3" r="4.299"/><path style="fill:gold;stroke:#030000;stroke-width:.79374999;stroke-linecap:round;stroke-linejoin:miter;stroke-miterlimit:4;stroke-dasharray:none;stroke-opacity:1;fill-opacity:1" d="M116.924 96.061s.843-.555 1.103-.97c.265-.42.4-.939.401-1.436a2.877 2.877 0 0 0-.4-1.471c-.221-.364-.937-.87-.937-.87"/><path style="fill:#fff;stroke:none;stroke-width:.26458332px;stroke-linecap:butt;stroke-linejoin:miter;stroke-opacity:1;fill-opacity:1" d="M115.62 90.379s-.627.32-.868.568c-.282.29-.474.665-.635 1.036-.166.382-.324.788-.335 1.204-.01.456.101.926.301 1.337.14.284.33.572.602.735a.782.782 0 0 0 .501.1c.212-.03.455-.119.569-.3.171-.275.148-.668.033-.97-.11-.287-.521-.383-.635-.668-.1-.249-.033-.537 0-.803.045-.364.192-.71.267-1.07.082-.386.2-1.169.2-1.169z"/><circle style="fill:gold;fill-opacity:1;stroke:#030000;stroke-width:.79374999;stroke-linecap:round;stroke-linejoin:round;stroke-miterlimit:4;stroke-dasharray:none;stroke-opacity:1" cx="108.086" cy="82.753" r="2.915"/><path style="fill:gold;stroke:#030000;stroke-width:.79374999;stroke-linecap:round;stroke-linejoin:miter;stroke-miterlimit:4;stroke-dasharray:none;stroke-opacity:1;fill-opacity:1" d="M108.48 84.625s.572-.377.748-.658c.18-.285.271-.637.272-.974a1.947 1.947 0 0 0-.272-.997c-.15-.247-.634-.59-.634-.59"/><path style="fill:#fff;stroke:none;stroke-width:.26458332px;stroke-linecap:butt;stroke-linejoin:miter;stroke-opacity:1;fill-opacity:1" d="M107.597 80.772s-.426.217-.59.385c-.19.197-.32.45-.43.703-.113.259-.22.533-.227.816-.008.31.068.628.204.906.094.193.224.388.408.499a.53.53 0 0 0 .34.068c.144-.021.308-.081.385-.204.117-.186.1-.453.023-.657-.074-.195-.353-.26-.43-.454-.068-.168-.023-.364 0-.544.03-.247.13-.481.18-.725.056-.262.137-.793.137-.793z"/><circle style="fill:gold;fill-opacity:1;stroke:#030000;stroke-width:.79374999;stroke-linecap:round;stroke-linejoin:round;stroke-miterlimit:4;stroke-dasharray:none;stroke-opacity:1" cx="82.314" cy="86.475" r="4.728"/><path style="fill:gold;stroke:#030000;stroke-width:.79374999;stroke-linecap:round;stroke-linejoin:miter;stroke-miterlimit:4;stroke-dasharray:none;stroke-opacity:1;fill-opacity:1" d="M82.954 89.512s.926-.61 1.213-1.066c.29-.463.44-1.034.44-1.58a3.16 3.16 0 0 0-.44-1.618c-.243-.401-1.03-.956-1.03-.956"/><path style="fill:#fff;stroke:none;stroke-width:.26458332px;stroke-linecap:butt;stroke-linejoin:miter;stroke-opacity:1;fill-opacity:1" d="M81.52 83.262s-.69.352-.956.625c-.31.32-.52.731-.699 1.14-.182.42-.356.866-.367 1.323-.013.503.11 1.02.33 1.471.153.313.364.63.662.809a.86.86 0 0 0 .552.11c.233-.034.5-.13.625-.33.188-.302.163-.734.037-1.067-.12-.316-.574-.421-.699-.735-.11-.273-.036-.59 0-.883.05-.4.21-.78.294-1.176.09-.426.22-1.287.22-1.287z"/><circle style="fill:gold;fill-opacity:1;stroke:#030000;stroke-width:.79374999;stroke-linecap:round;stroke-linejoin:round;stroke-miterlimit:4;stroke-dasharray:none;stroke-opacity:1" cx="112.382" cy="86.666" r="4.728"/><path style="fill:gold;stroke:#030000;stroke-width:.79374999;stroke-linecap:round;stroke-linejoin:miter;stroke-miterlimit:4;stroke-dasharray:none;stroke-opacity:1;fill-opacity:1" d="M113.021 89.703s.927-.61 1.213-1.066c.291-.463.44-1.034.442-1.58a3.156 3.156 0 0 0-.442-1.619c-.242-.4-1.029-.955-1.029-.955"/><path style="fill:#fff;stroke:none;stroke-width:.26458332px;stroke-linecap:butt;stroke-linejoin:miter;stroke-opacity:1;fill-opacity:1" d="M111.587 83.453s-.69.352-.956.625c-.31.32-.52.731-.698 1.14-.183.42-.356.866-.368 1.323-.012.503.111 1.02.331 1.47.153.314.363.63.662.81a.86.86 0 0 0 .551.11c.234-.034.5-.131.625-.33.19-.302.163-.735.037-1.067-.12-.316-.573-.421-.698-.735-.11-.273-.036-.59 0-.883.05-.4.21-.78.294-1.176.09-.426.22-1.287.22-1.287z"/><circle style="fill:gold;fill-opacity:1;stroke:#030000;stroke-width:.79374999;stroke-linecap:round;stroke-linejoin:round;stroke-miterlimit:4;stroke-dasharray:none;stroke-opacity:1" cx="104.259" cy="86.031" r="4.728"/><path style="fill:gold;stroke:#030000;stroke-width:.79374999;stroke-linecap:round;stroke-linejoin:miter;stroke-miterlimit:4;stroke-dasharray:none;stroke-opacity:1;fill-opacity:1" d="M104.899 89.068s.927-.61 1.213-1.066c.291-.463.44-1.033.441-1.58a3.156 3.156 0 0 0-.441-1.618c-.243-.4-1.03-.956-1.03-.956"/><path style="fill:#fff;stroke:none;stroke-width:.26458332px;stroke-linecap:butt;stroke-linejoin:miter;stroke-opacity:1;fill-opacity:1" d="M103.465 82.819s-.69.351-.956.625c-.31.32-.52.73-.698 1.14-.183.42-.357.865-.368 1.323-.013.502.11 1.019.33 1.47.153.313.364.63.663.81a.86.86 0 0 0 .551.11c.233-.035.5-.132.625-.331.189-.302.163-.734.037-1.067-.12-.316-.573-.421-.699-.735-.109-.273-.036-.59 0-.882.05-.401.211-.781.294-1.177.09-.426.221-1.286.221-1.286z"/><circle style="fill:gold;fill-opacity:1;stroke:#030000;stroke-width:.79374999;stroke-linecap:round;stroke-linejoin:round;stroke-miterlimit:4;stroke-dasharray:none;stroke-opacity:1" cx="87.564" cy="87.907" r="4.728"/><path style="fill:gold;stroke:#030000;stroke-width:.79374999;stroke-linecap:round;stroke-linejoin:miter;stroke-miterlimit:4;stroke-dasharray:none;stroke-opacity:1;fill-opacity:1" d="M88.203 90.944s.927-.61 1.214-1.066c.29-.463.44-1.034.44-1.581a3.16 3.16 0 0 0-.44-1.618c-.243-.4-1.03-.956-1.03-.956"/><path style="fill:#fff;stroke:none;stroke-width:.26458332px;stroke-linecap:butt;stroke-linejoin:miter;stroke-opacity:1;fill-opacity:1" d="M86.77 84.694s-.691.352-.956.625c-.31.32-.521.731-.699 1.14-.182.42-.356.866-.367 1.323-.013.503.11 1.02.33 1.47.153.314.364.63.662.81a.86.86 0 0 0 .552.11c.233-.034.5-.131.625-.331.188-.301.163-.734.036-1.066-.12-.316-.573-.421-.698-.735-.11-.274-.036-.59 0-.883.05-.4.21-.78.294-1.176.09-.426.22-1.287.22-1.287z"/><circle style="fill:gold;fill-opacity:1;stroke:#030000;stroke-width:.79374999;stroke-linecap:round;stroke-linejoin:round;stroke-miterlimit:4;stroke-dasharray:none;stroke-opacity:1" cx="91.764" cy="92.584" r="4.728"/><path style="fill:gold;stroke:#030000;stroke-width:.79374999;stroke-linecap:round;stroke-linejoin:miter;stroke-miterlimit:4;stroke-dasharray:none;stroke-opacity:1;fill-opacity:1" d="M92.403 95.621s.927-.61 1.214-1.066c.29-.463.44-1.034.44-1.58a3.16 3.16 0 0 0-.44-1.618c-.243-.401-1.03-.956-1.03-.956"/><path style="fill:#fff;stroke:none;stroke-width:.26458332px;stroke-linecap:butt;stroke-linejoin:miter;stroke-opacity:1;fill-opacity:1" d="M90.97 89.371s-.691.352-.956.625c-.31.32-.521.731-.699 1.14-.183.42-.356.866-.367 1.323-.013.503.11 1.02.33 1.471.153.313.364.63.662.809a.86.86 0 0 0 .552.11c.233-.034.5-.131.625-.33.188-.302.163-.734.036-1.067-.12-.316-.573-.421-.698-.735-.11-.273-.036-.59 0-.883.05-.4.21-.78.294-1.176.09-.426.22-1.287.22-1.287z"/><circle style="fill:gold;fill-opacity:1;stroke:#030000;stroke-width:.79374999;stroke-linecap:round;stroke-linejoin:round;stroke-miterlimit:4;stroke-dasharray:none;stroke-opacity:1" cx="96.155" cy="86.189" r="4.728"/><path style="fill:gold;stroke:#030000;stroke-width:.79374999;stroke-linecap:round;stroke-linejoin:miter;stroke-miterlimit:4;stroke-dasharray:none;stroke-opacity:1;fill-opacity:1" d="M96.794 89.226s.927-.61 1.213-1.066c.291-.464.44-1.034.442-1.581a3.16 3.16 0 0 0-.442-1.618c-.242-.4-1.029-.956-1.029-.956"/><path style="fill:#fff;stroke:none;stroke-width:.26458332px;stroke-linecap:butt;stroke-linejoin:miter;stroke-opacity:1;fill-opacity:1" d="M95.36 82.976s-.69.352-.956.625c-.31.32-.52.731-.698 1.14-.183.42-.356.865-.368 1.323-.012.502.111 1.019.331 1.47.153.314.363.63.662.81a.86.86 0 0 0 .551.11c.234-.034.5-.131.625-.331.19-.302.163-.734.037-1.066-.12-.316-.573-.422-.698-.736-.11-.273-.036-.59 0-.882.05-.401.21-.78.294-1.176.09-.426.22-1.287.22-1.287z"/><circle style="fill:gold;fill-opacity:1;stroke:#030000;stroke-width:.79374999;stroke-linecap:round;stroke-linejoin:round;stroke-miterlimit:4;stroke-dasharray:none;stroke-opacity:1" cx="83.65" cy="95.925" r="4.728"/><path style="fill:gold;stroke:#030000;stroke-width:.79374999;stroke-linecap:round;stroke-linejoin:miter;stroke-miterlimit:4;stroke-dasharray:none;stroke-opacity:1;fill-opacity:1" d="M84.29 98.962s.927-.61 1.213-1.066c.291-.463.44-1.034.441-1.581a3.16 3.16 0 0 0-.44-1.618c-.243-.4-1.03-.956-1.03-.956"/><path style="fill:#fff;stroke:none;stroke-width:.26458332px;stroke-linecap:butt;stroke-linejoin:miter;stroke-opacity:1;fill-opacity:1" d="M82.856 92.712s-.69.352-.956.625c-.31.32-.52.731-.698 1.14-.183.42-.357.866-.368 1.323-.012.503.11 1.02.33 1.47.154.314.364.63.663.81a.86.86 0 0 0 .551.11c.233-.034.5-.131.625-.33.189-.302.163-.735.037-1.067-.12-.316-.573-.421-.699-.735-.109-.274-.036-.59 0-.883.05-.4.211-.78.294-1.176.09-.426.221-1.287.221-1.287z"/><circle style="fill:gold;fill-opacity:1;stroke:#030000;stroke-width:.79374999;stroke-linecap:round;stroke-linejoin:round;stroke-miterlimit:4;stroke-dasharray:none;stroke-opacity:1" cx="108.277" cy="92.966" r="4.728"/><path style="fill:gold;stroke:#030000;stroke-width:.79374999;stroke-linecap:round;stroke-linejoin:miter;stroke-miterlimit:4;stroke-dasharray:none;stroke-opacity:1;fill-opacity:1" d="M108.917 96.003s.926-.61 1.213-1.066c.291-.463.44-1.034.441-1.581a3.156 3.156 0 0 0-.441-1.618c-.243-.4-1.03-.956-1.03-.956"/><path style="fill:#fff;stroke:none;stroke-width:.26458332px;stroke-linecap:butt;stroke-linejoin:miter;stroke-opacity:1;fill-opacity:1" d="M107.483 89.753s-.69.352-.956.625c-.31.32-.52.731-.699 1.14-.182.42-.356.866-.367 1.323-.013.503.11 1.02.33 1.47.153.314.364.63.662.81a.86.86 0 0 0 .552.11c.233-.034.5-.131.625-.331.189-.301.163-.734.037-1.066-.12-.316-.573-.421-.699-.735-.109-.274-.036-.59 0-.883.05-.4.211-.78.294-1.176.09-.426.22-1.287.22-1.287z"/><circle style="fill:gold;fill-opacity:1;stroke:#030000;stroke-width:.79374999;stroke-linecap:round;stroke-linejoin:round;stroke-miterlimit:4;stroke-dasharray:none;stroke-opacity:1" cx="100.259" cy="93.921" r="4.728"/><path style="fill:gold;stroke:#030000;stroke-width:.79374999;stroke-linecap:round;stroke-linejoin:miter;stroke-miterlimit:4;stroke-dasharray:none;stroke-opacity:1;fill-opacity:1" d="M100.899 96.957s.926-.61 1.213-1.066c.29-.463.44-1.033.441-1.58a3.156 3.156 0 0 0-.441-1.618c-.243-.4-1.03-.956-1.03-.956"/><path style="fill:#fff;stroke:none;stroke-width:.26458332px;stroke-linecap:butt;stroke-linejoin:miter;stroke-opacity:1;fill-opacity:1" d="M99.465 90.708s-.69.351-.956.625c-.31.32-.52.73-.699 1.14-.182.42-.356.865-.367 1.323-.013.502.11 1.019.33 1.47.153.313.364.63.662.81a.86.86 0 0 0 .552.11c.233-.035.5-.132.625-.331.189-.302.163-.734.037-1.067-.12-.316-.574-.42-.699-.735-.109-.273-.036-.59 0-.882.05-.401.211-.781.294-1.177.09-.426.22-1.286.22-1.286z"/><circle style="fill:gold;fill-opacity:1;stroke:#030000;stroke-width:.79374999;stroke-linecap:round;stroke-linejoin:round;stroke-miterlimit:4;stroke-dasharray:none;stroke-opacity:1" cx="92.741" cy="102.395" r="4.728"/><path style="fill:gold;fill-opacity:1;stroke:#030000;stroke-width:.79374999;stroke-linecap:round;stroke-linejoin:miter;stroke-miterlimit:4;stroke-dasharray:none;stroke-opacity:1" d="M93.38 105.432s.927-.61 1.214-1.066c.291-.463.44-1.034.441-1.58a3.16 3.16 0 0 0-.441-1.618c-.243-.4-1.03-.956-1.03-.956"/><path style="fill:#fff;fill-opacity:1;stroke:none;stroke-width:.26458332px;stroke-linecap:butt;stroke-linejoin:miter;stroke-opacity:1" d="M91.947 99.182s-.69.352-.956.625c-.31.32-.52.732-.699 1.14-.182.42-.356.866-.367 1.324-.013.502.11 1.019.33 1.47.153.313.364.63.662.81a.86.86 0 0 0 .552.11c.233-.035.5-.132.625-.332.189-.301.163-.733.037-1.066-.12-.316-.573-.421-.699-.735-.109-.273-.036-.59 0-.882.05-.402.211-.781.294-1.177.09-.426.22-1.287.22-1.287z"/></g></svg>