<svg version="1.1" id="Layer_1" xmlns="http://www.w3.org/2000/svg" x="0" y="0" viewBox="0 0 410 490" style="enable-background:new 0 0 410 490" xml:space="preserve"><style>.st1{fill:#fff;stroke:#000;stroke-linecap:round;stroke-linejoin:round;stroke-miterlimit:10}.st2,.st3{stroke:#000;stroke-width:2}.st2{fill:#da121a;stroke-linecap:round;stroke-linejoin:round;stroke-miterlimit:10}.st3{fill:none}.st3,.st4,.st7{stroke-miterlimit:10}.st4{fill:none;stroke:#fff;stroke-width:4;stroke-linecap:round;stroke-linejoin:round}.st7{fill:#fff;stroke:#000;stroke-width:2}</style><path style="fill:#fcdd09;stroke:#000;stroke-width:4;stroke-linecap:round;stroke-linejoin:round" d="M5 5h400v241.9H5z"/><path d="M221.5 265.9s1.5-62.5 6.5-62.8c4.3-.3-8.7 62.8 26.3 62.8 17.1 0-10.1-67.3-5-67.8 4.7-.5 6.4 11.4 6.4 11.4 12.1 11.5 24.4 64.5 41.5 47.4 13.5-13.5-24.4-70.1-20.5-71.5 4.6-1.7 50.2 85.9 68.6 67.2 16.3-16.7-42.8-78.3-38.1-81.7 3-2.1 17.8 20.6 33.9 36.3 15.9 15.5 40.2 20.9 47.2 11.5 2.3-3.2-6.5-5.3-18.5-20.2-15.2-18.8-38-45.9-34.3-47.9 4.2-2.3 27.5 33.9 56.5 17.6 2.9-1.6-8.8-9.5-14.8-15.8-11-11.5-22.4-24.8-20.7-26.8 2.4-2.6 26.6 17.3 38.5-1.8 2-3.3-5.7-5.5-12.4-10.6-9.5-7.3-19.9-18.1-19.4-20.4 1.1-5.1 30.6 8.1 34.1-14.4.5-2.9-9.6-4.1-18.5-8-8.6-3.7-16.5-10.3-15.8-12.3.7-2.2 41.5-.6 28-34.6-3.8 6.5-24.2 6.6-35.9 7.5 0 0 .5-2.1-2.1-5.8 0 0-7.6 2-25.8 3.5-19.4 1.6-14.9 20.4 1.5 27.8 3.1 29.5-10.9 38.8-19.5 40-3.9.6-37.8-3-37.8 20.8 0 19.4-5 16.8-14 17.5 0-7.5-6.9-13-17.4-15.8s-6.3-14.6 1.3-11.4 18.9 3.1 14.1-13.9c-12.5 17-25.5 0-13.3-7.5 2.1-1.3.3-9.6 2.5-13.8 19-35.3 36.6-33.3 30.8-45.8-8.8-18.5-33-3-41-1.5s-27.5-2-27.5-2 9.8 8.8 16.3 18.5c-9.5 3-18.3 45-18.3 45s-8.8-42-18.3-45c6.5-9.8 16.3-18.5 16.3-18.5s-19.5 3.5-27.5 2-32.3-17-41 1.5c-5.9 12.5 11.8 10.5 30.8 45.8 2.2 4.1.4 12.5 2.5 13.8 12.3 7.5-.8 24.5-13.3 7.5-4.8 17 6.6 17.1 14.1 13.9s11.8 8.6 1.3 11.4-17.4 8.3-17.4 15.8c-9-.8-14 1.9-14-17.5 0-23.8-33.9-20.2-37.8-20.8C92 95.2 78 86 81.1 56.5c16.4-7.4 20.9-26.1 1.5-27.8-18-1.3-25.6-3.3-25.6-3.3-2.6 3.6-2.1 5.8-2.1 5.8-11.7-.9-32.1-1-35.9-7.5-13.5 34 27.3 32.4 28 34.6.7 2-7.3 8.6-15.8 12.3-9 3.9-19 5.1-18.5 8 3.5 22.5 33 9.3 34.1 14.4.5 2.3-9.9 13.1-19.4 20.4-6.7 5.1-14.4 7.4-12.4 10.6 11.9 19 36.1-.9 38.5 1.8 1.7 1.9-9.7 15.2-20.7 26.8-6 6.3-17.8 14.2-14.8 15.8 29 16.3 52.3-19.8 56.5-17.6 3.7 2-19.1 29.1-34.3 47.9-12 14.8-20.8 17-18.5 20.2 6.9 9.4 31.2 4 47.2-11.5 16.1-15.7 30.9-38.5 33.9-36.3 4.8 3.3-54.4 65-38.1 81.7 18.4 18.8 64-68.8 68.6-67.2 3.9 1.4-34 58-20.5 71.5 17.1 17.1 29.4-35.8 41.5-47.4 0 0 1.7-11.8 6.4-11.4 5.1.5-22.1 67.8-5 67.8 35 0 22-63 26.3-62.8 5 .3 6.5 62.8 6.5 62.8"/><path class="st1" d="M138.3 26.4c-.8 1.2-1.7 16 10 16s18.5-3.2 18.5-5.5-2.7-6-8-6c-2.2 11.8-16.6 10.4-12.7-4.5-2.9-.5-7.8 0-7.8 0zM271.8 26c.8 1.2 1.7 16-10 16s-18.5-3.2-18.5-5.5 2.7-6 8-6c2.2 11.8 16.6 10.4 12.7-4.5 3-.5 7.8 0 7.8 0z"/><path class="st2" d="M311.8 60.5s6.5 18.3-11 18.7c-17.5.3-7.8-10-40-5.3s-11-10 7.2-10 19.5 6.3 28.8 6.3 15-9.7 15-9.7z"/><path class="st2" d="M292.8 66.2s1.7-15.7-9.2-15.7c-4.5 0-11.5 8.5-11.5 8.5s-3.8-5-8.3-5-15.5 20-15.5 20 3.8-3.5 14.8-3.5c20.7 0 17.8 19.8 17.8 19.8s-8.8-9.7-23.8-9.7c-10.3 0-11.2 5.3-14.8 5.3-2 0-2.1-8-.1-15.5 1.6-5.9 5.2-11.3 5.2-12.7 0-10.5 24.3-18.7 26.2-24.7s2-6.7 2-6.7 29.5-7.8 29.5 16.3c0 11.1-12.3 23.6-12.3 23.6zM98.3 60.9s-6.5 18.3 11 18.7c17.5.3 7.8-10 40-5.3s11-10-7.2-10-19.5 6.3-28.8 6.3-15-9.7-15-9.7z"/><path class="st2" d="M117.3 66.6s-1.7-15.7 9.2-15.7c4.5 0 11.5 8.5 11.5 8.5s3.8-5 8.3-5 15.5 20 15.5 20-3.8-3.5-14.8-3.5c-20.7 0-17.8 19.8-17.8 19.8S138 81 153 81c10.3 0 11.2 5.3 14.8 5.3 2 0 2.1-8 .1-15.5-1.6-5.9-5.2-11.3-5.2-12.7 0-10.5-24.3-18.7-26.2-24.7s-2-6.7-2-6.7S105 19.1 105 43.2c0 10.9 12.3 23.4 12.3 23.4z"/><g><path class="st3" d="M124.3 26.2c0 9.3 4.3 14 20 14M286.3 26.2c0 9.3-4.3 14-20 14"/></g><g><path class="st4" d="M53 31.6c0 16.3 10.3 23.5 10.3 23.5s-4.1 1.8-9.4 6.3c-4.7 4-5.8 10.4-5.8 10.4s2.4 2.3 8 5.3c2.9 1.6 10.8 2.4 10.8 2.4s-8.7 8.3-10.4 11.8c-2.8 5.7-2.6 13.2-2.6 13.2s4.3 1.9 9.8 2.1c2.8.1 9.3-.4 9.3-.4s-6.8 10.2-8.1 14.5c-2.3 7.1-1.4 16-1.4 16s8.1-.1 17.1-3c4.7-1.5 16.4-8.3 16.4-8.3s-4.7 6.1-5.3 14.4c-.5 8.3 1 17.9 1 17.9s9.7-4 12.9-5.6c3.8-1.9 14.9-8.6 14.9-8.6s-1.8 11.3-2.3 15.1c-1.6 13.1.4 20.8.4 20.8s6.3-1.9 13.8-8.3c3.3-2.8 11.6-13.1 11.6-13.1s-2.6 10.3-1.8 19.5c.6 6.8 6 17 6 17L160 185M357.1 31.3c0 16.3-10.3 23.5-10.3 23.5s4.1 1.8 9.4 6.3c4.7 4 5.8 10.4 5.8 10.4s-2.4 2.3-8 5.3c-2.9 1.6-10.8 2.4-10.8 2.4s8.7 8.3 10.4 11.8c2.8 5.7 2.6 13.2 2.6 13.2s-4.3 1.9-9.8 2.1c-2.8.1-9.3-.4-9.3-.4s6.8 10.2 8.1 14.5c2.3 7.1 1.4 16 1.4 16s-8.1-.1-17.1-3c-4.7-1.5-16.4-8.3-16.4-8.3s4.7 6.1 5.3 14.4c.5 8.3-1 17.9-1 17.9s-9.7-4-12.9-5.6c-3.8-1.9-14.9-8.6-14.9-8.6s1.8 11.3 2.3 15.1c1.6 13.1-.4 20.8-.4 20.8s-6.3-1.9-13.8-8.3c-3.3-2.8-11.6-13.1-11.6-13.1s2.6 10.3 1.8 19.5c-.6 6.8-6 17-6 17l-11.8-9.5"/></g><g><path d="M5 226.9V285c0 110.5 89.5 200 200 200s200-89.5 200-200v-58.1H5z" style="fill:#0f47af;stroke:#000;stroke-width:4;stroke-linecap:round;stroke-linejoin:round"/><path d="m306 345.7-.8-.2c15.6-1.4 11.3-29.6-9.5-29.6-6.4 0-12.2.1-17.4.2-10-4.9-21.8-13.8-21.8-27.3 0-7.6 11.2-10.3 11.2-16.9 0-4.8-4.6-8.6-19.3-8.6-7.4 0-11.6-1.1-17.9 4.2-4.8-15-10.7-27.7-25.3-27.7-14.6 0-20.5 12.7-25.3 27.7-6.3-5.3-10.5-4.2-17.9-4.2-14.7 0-19.3 3.7-19.3 8.6 0 6.6 11.2 9.4 11.2 16.9 0 13.4-11.8 22.3-21.8 27.3-5.2 0-11-.2-17.4-.2-20.9 0-25.2 28-9.5 29.6l-.8.2c-26.9 14.1-10.5 32.2 1.6 32.2 2.8 0 6.4-1 10.5-2.9l-3.6 2.9c-16.9 9.7-15.3 32.6 2.1 32.2 5.3-.1 11.1-2.9 17.1-7.4L131 404c-18.5 13.3-15.3 38.2 2.1 38.2 8.2 0 16.6-7.4 24.5-18.5l-1.1 2.4s-12.4 33.8 10.5 33.8c9.9 0 17-8.1 22.2-20.4l.2.2s-6.4 29.3 16 29.3 16-29.3 16-29.3l.2-.4c5.2 12.3 12.3 20.5 22.3 20.5 22.9 0 10.5-33.8 10.5-33.8l-1.1-2.4c7.8 11.1 16.3 18.5 24.5 18.5 17.3 0 20.5-25 2.1-38.2l-1.1-1.3c6 4.5 11.8 7.2 17.1 7.4 17.3.4 18.9-22.6 2.1-32.2l-3.6-2.9c4.1 1.9 7.7 2.9 10.5 2.9 11.4.1 28-18 1.1-32.1z" style="fill:#fff;stroke:#000;stroke-width:4;stroke-miterlimit:10"/><path class="st7" d="m189.1 436.4-.2 3.4s-6.4 29.3 16 29.3 16-29.3 16-29.3l-1.6-5.8"/><path class="st7" d="M202.2 308.1c0 28.6-.4 151.9-35.8 151.9-22.9 0-10.5-33.8-10.5-33.8M207.8 308.1c0 28.6.4 151.9 35.8 151.9 22.9 0 10.5-33.8 10.5-33.8"/><path class="st7" d="M192.9 324.8c0 26.2-31.4 117.4-60.3 117.4-17.3 0-20.5-25-2.1-38.2M217.1 324.8c0 26.2 31.4 117.4 60.3 117.4 17.3 0 20.5-25 2.1-38.2"/><path class="st7" d="M180 324.8c0 21.4-39.8 84.7-65.5 85.3-17.3.4-18.9-22.6-2.1-32.2M230 324.8c0 21.4 39.8 84.7 65.5 85.3 17.3.4 18.9-22.6 2.1-32.2"/><g><path class="st7" d="M165.2 327.6c-19.7 31.7-47.4 50.3-59.5 50.3s-28.6-18.1-1.6-32.2M244.8 327.6c19.7 31.7 47.4 50.3 59.5 50.3s28.6-18.1 1.6-32.2"/></g><path class="st7" d="M285.8 319.4c-10.3-3.6-29.6-13.3-29.6-30.5 0-7.6 11.2-10.3 11.2-16.9 0-4.8-4.6-8.6-19.3-8.6-8.1 0-12.4-1.4-19.9 6.2-7.7 7.7-38.7 7.7-46.4 0-7.6-7.6-11.8-6.2-19.9-6.2-14.7 0-19.3 3.7-19.3 8.6 0 6.6 11.2 9.4 11.2 16.9 0 17.3-19.3 26.9-29.6 30.5"/><path class="st7" d="M251.6 321.8c20.4 15.9 29.4 20.3 49.6 23.5 20.1 3.3 16.9-29.3-5.7-29.3-22.6 0-37.3 2.2-47.4-8.1-19.3-19.3-14.5-67.9-43.1-67.9s-23.8 48.6-43.1 67.9c-10.1 10.1-25 8.1-47.4 8.1s-25.7 32.6-5.7 29.3c20.1-3.3 29.1-7.6 49.6-23.5"/></g><path d="M5 5v280c0 110.5 89.5 200 200 200s200-89.5 200-200V5H5z" style="fill:none;stroke:#000;stroke-width:8"/></svg>