<?xml version="1.0" encoding="UTF-8" standalone="no"?>
<!-- Created with Inkscape (http://www.inkscape.org/) -->

<svg
   xmlns:dc="http://purl.org/dc/elements/1.1/"
   xmlns:cc="http://creativecommons.org/ns#"
   xmlns:rdf="http://www.w3.org/1999/02/22-rdf-syntax-ns#"
   xmlns:svg="http://www.w3.org/2000/svg"
   xmlns="http://www.w3.org/2000/svg"
   xmlns:sodipodi="http://sodipodi.sourceforge.net/DTD/sodipodi-0.dtd"
   xmlns:inkscape="http://www.inkscape.org/namespaces/inkscape"
   width="192.21181mm"
   height="209.3436mm"
   viewBox="0 0 192.21181 209.3436"
   version="1.1"
   id="svg1519"
   inkscape:version="0.92.4 (5da689c313, 2019-01-14)"
   sodipodi:docname="DEU Musweiler COA.svg">
  <defs
     id="defs1513">
    <inkscape:path-effect
       effect="spiro"
       id="path-effect1049"
       is_visible="true" />
    <inkscape:path-effect
       effect="spiro"
       id="path-effect896"
       is_visible="true" />
    <inkscape:path-effect
       effect="spiro"
       id="path-effect874"
       is_visible="true" />
    <inkscape:path-effect
       effect="spiro"
       id="path-effect874-3"
       is_visible="true" />
    <inkscape:path-effect
       effect="spiro"
       id="path-effect896-4"
       is_visible="true" />
    <inkscape:path-effect
       effect="spiro"
       id="path-effect896-6"
       is_visible="true" />
    <inkscape:path-effect
       effect="spiro"
       id="path-effect896-4-4"
       is_visible="true" />
    <inkscape:path-effect
       effect="spiro"
       id="path-effect874-3-2"
       is_visible="true" />
    <inkscape:path-effect
       effect="spiro"
       id="path-effect874-2"
       is_visible="true" />
    <inkscape:path-effect
       effect="spiro"
       id="path-effect1049-9"
       is_visible="true" />
  </defs>
  <sodipodi:namedview
     id="base"
     pagecolor="#ffffff"
     bordercolor="#666666"
     borderopacity="1.0"
     inkscape:pageopacity="0.0"
     inkscape:pageshadow="2"
     inkscape:zoom="0.69260139"
     inkscape:cx="363.2349"
     inkscape:cy="395.60995"
     inkscape:document-units="mm"
     inkscape:current-layer="layer1"
     showgrid="false"
     inkscape:window-width="1366"
     inkscape:window-height="745"
     inkscape:window-x="-8"
     inkscape:window-y="-8"
     inkscape:window-maximized="1"
     fit-margin-top="0"
     fit-margin-left="0"
     fit-margin-right="0"
     fit-margin-bottom="0"
     inkscape:snap-midpoints="true"
     inkscape:snap-smooth-nodes="true"
     inkscape:snap-nodes="false"
     inkscape:object-paths="true" />
  <metadata
     id="metadata1516">
    <rdf:RDF>
      <cc:Work
         rdf:about="">
        <dc:format>image/svg+xml</dc:format>
        <dc:type
           rdf:resource="http://purl.org/dc/dcmitype/StillImage" />
        <dc:title />
      </cc:Work>
    </rdf:RDF>
  </metadata>
  <g
     inkscape:label="Ebene 1"
     inkscape:groupmode="layer"
     id="layer1"
     transform="translate(-4.163344,-49.082384)">
    <path
       style="fill:#ffffff;fill-rule:evenodd;stroke:none;stroke-width:3.10444427;stroke-opacity:1"
       inkscape:connector-curvature="0"
       d="m 194.81021,50.634606 -0.959,117.580674 c -2.09267,49.45939 -43.43961,88.63079 -93.58204,88.65848 C 50.171987,256.81306 8.8095764,217.6276 6.6872664,168.21528 L 5.7282764,50.634606 H 100.26691 Z"
       id="path10563-0-6-7-1-4"
       sodipodi:nodetypes="ccccccc" />
    <g
       id="g2222"
       transform="translate(111.66437,15.70336)"
       style="fill:#ff0000;fill-opacity:1">
      <rect
         y="143.31419"
         x="-37.473763"
         height="71.264229"
         width="52.157158"
         id="rect2157-0"
         style="fill:#ff0000;fill-opacity:1;stroke:#000000;stroke-width:2.11666656;stroke-linecap:round;stroke-linejoin:round;stroke-miterlimit:4;stroke-dasharray:none;stroke-opacity:1" />
      <rect
         y="83.669113"
         x="-33.407005"
         height="51.253445"
         width="44.023739"
         id="rect2180-9"
         style="fill:#ff0000;fill-opacity:1;stroke:#000000;stroke-width:2.1170001;stroke-linecap:round;stroke-linejoin:round;stroke-miterlimit:4;stroke-dasharray:none;stroke-opacity:1" />
      <path
         id="rect2159-2"
         d="M -36.89254,57.848848 V 83.668977 H 14.102279 V 57.848848 H 3.1628948 v 10.846883 h -9.979236 V 57.848848 H -15.97392 v 10.846883 h -9.979236 V 57.848848 Z m -4.518588,63.647272 v 21.81831 H 18.620867 V 121.49612 H 5.7430988 v 9.16585 h -11.748119 v -9.16585 H -16.785241 v 9.16585 H -28.53336 v -9.16585 z"
         style="fill:#ff0000;fill-opacity:1;stroke:#000000;stroke-width:2.1170001;stroke-linecap:round;stroke-linejoin:round;stroke-miterlimit:4;stroke-dasharray:none;stroke-opacity:1"
         inkscape:connector-curvature="0" />
    </g>
    <path
       style="fill:#000000;fill-opacity:1;stroke:#000000;stroke-width:2.11699986;stroke-linecap:round;stroke-linejoin:round;stroke-miterlimit:4;stroke-dasharray:none;stroke-opacity:1"
       d="m 91.140593,110.03577 a 2.5560865,2.6930199 0 0 0 -2.556433,2.69337 v 10.77196 h 5.112351 v -10.77196 a 2.5560865,2.6930199 0 0 0 -2.555918,-2.69337 z m 9.128637,0 a 2.5560865,2.6930199 0 0 0 -2.556429,2.69337 v 10.77196 h 5.112349 v -10.77196 a 2.5560865,2.6930199 0 0 0 -2.55592,-2.69337 z m 9.12916,0 a 2.5560865,2.6930199 0 0 0 -2.55643,2.69337 v 10.77196 h 5.11235 v -10.77196 a 2.5560865,2.6930199 0 0 0 -2.55592,-2.69337 z"
       id="rect2224"
       inkscape:connector-curvature="0" />
    <path
       style="fill:#000000;fill-opacity:1;stroke:#000000;stroke-width:2.11699986;stroke-linecap:round;stroke-linejoin:round;stroke-miterlimit:4;stroke-dasharray:none;stroke-opacity:1"
       d="m 88.447429,162.21191 a 2.2822296,2.1087815 0 0 0 -2.28255,2.10892 v 8.43514 h 4.565097 v -8.43514 a 2.2822296,2.1087815 0 0 0 -2.282547,-2.10892 z m 23.644031,0 a 2.2822296,2.1087815 0 0 0 -2.28254,2.10892 v 8.43514 h 4.56457 v -8.43514 a 2.2822296,2.1087815 0 0 0 -2.28203,-2.10892 z"
       id="rect2224-7"
       inkscape:connector-curvature="0" />
    <path
       style="fill:#000000;fill-opacity:1;stroke:#000000;stroke-width:2.11699986;stroke-linecap:round;stroke-linejoin:round;stroke-miterlimit:4;stroke-dasharray:none;stroke-opacity:1"
       d="m 100.26899,181.24124 a 9.6766138,7.8051934 0 0 0 -9.676418,7.80521 v 23.91792 h 19.353338 v -23.91792 a 9.6766138,7.8051934 0 0 0 -9.67692,-7.80521 z"
       id="rect2288"
       inkscape:connector-curvature="0" />
    <path
       style="fill:#ff0000;fill-opacity:1;stroke:#000000;stroke-width:2.11699986;stroke-linecap:round;stroke-linejoin:round;stroke-miterlimit:4;stroke-dasharray:none;stroke-opacity:1"
       d="m 100.26899,181.24124 a 9.6766138,7.8051934 0 0 0 -2.19057,0.21084 v 31.51229 h 4.38165 v -31.51074 a 9.6766138,7.8051934 0 0 0 -2.19108,-0.21239 z"
       id="rect2293"
       inkscape:connector-curvature="0" />
    <path
       inkscape:connector-curvature="0"
       style="fill:none;fill-opacity:1;stroke:#000000;stroke-width:2.1170001;stroke-linecap:round;stroke-linejoin:round;stroke-miterlimit:4;stroke-dasharray:none;stroke-opacity:1"
       d="m 100.26884,176.33517 a 14.711557,11.648683 0 0 0 -14.711237,11.64868 v 35.69577 h 29.423277 v -35.69577 a 14.711557,11.648683 0 0 0 -14.71204,-11.64868 z"
       id="rect2288-5" />
    <path
       style="fill:#009900;fill-opacity:1;stroke:#000000;stroke-width:7.99999952;stroke-linecap:round;stroke-linejoin:round;stroke-miterlimit:4;stroke-dasharray:none;stroke-opacity:1"
       d="M 363.23438 613.60742 A 355.22328 124.9137 0 0 0 90.757812 658.41406 C 155.87945 735.92608 254.06586 785.22124 363.23438 785.35352 C 472.47499 785.29319 570.66397 736.06973 635.76562 658.58398 A 355.22328 124.9137 0 0 0 363.23438 613.60742 z "
       transform="matrix(0.26458333,0,0,0.26458333,4.163344,49.082384)"
       id="path2139" />
    <path
       style="fill:none;fill-rule:evenodd;stroke:#000000;stroke-width:3.10444427;stroke-opacity:1"
       inkscape:connector-curvature="0"
       d="m 194.81021,50.634606 -0.959,117.580674 c -2.09267,49.45939 -43.43961,88.63079 -93.58204,88.65848 C 50.171986,256.81306 8.809576,217.6276 6.6872671,168.21528 L 5.7282777,50.634606 H 100.26691 Z"
       id="path10563-0-6-7-1"
       sodipodi:nodetypes="ccccccc" />
    <path
       inkscape:connector-curvature="0"
       style="fill:#0033ff;stroke:#000000;stroke-width:1.32291663;stroke-linecap:round;stroke-linejoin:round;stroke-miterlimit:4;stroke-dasharray:none;stroke-opacity:1;fill-opacity:1"
       d="m 40.893083,93.3758 c 0,0 -4.010284,0.156485 -5.921084,0.703834 -1.394491,0.399449 -3.146305,1.060648 -3.937746,1.852083 -0.295158,3.478827 0,19.353343 0,19.353343 0,0 -3.450033,0.005 -5.149555,0.26096 -2.4384,0.36766 -5.64633,-0.11735 -7.170621,1.82108 -2.525149,3.21121 -1.135544,8.29506 -0.130226,12.25455 2.484631,9.78577 8.6007,18.44314 14.731918,26.46454 2.143889,2.80483 7.577314,7.39954 7.577314,7.39954 0,0 5.433944,-4.59471 7.577834,-7.39954 6.131218,-8.0214 12.247287,-16.67877 14.731918,-26.46454 1.005319,-3.95949 2.394407,-9.04334 -0.130744,-12.25455 -1.524289,-1.93843 -4.731703,-1.45342 -7.170105,-1.82108 -1.69952,-0.25573 -5.149557,-0.26096 -5.149557,-0.26096 0,0 0.295162,-15.874516 0,-19.353343 -0.791437,-0.791435 -2.543251,-1.452634 -3.937743,-1.852083 -1.9108,-0.547349 -5.921603,-0.703834 -5.921603,-0.703834 z"
       id="path2337-4" />
    <path
       transform="translate(221.31589,-3e-6)"
       style="fill:none;stroke:#000000;stroke-width:1.32291663;stroke-linecap:round;stroke-linejoin:round;stroke-miterlimit:4;stroke-dasharray:none;stroke-opacity:1"
       d="m -190.28163,95.93172 c 0.70193,1.401225 1.50881,2.749867 2.41163,4.030901 0.56613,0.803299 1.17036,1.580699 1.6948,2.411819 0.86212,1.36626 1.51036,2.90596 1.60273,4.51885 0.0462,0.80644 -0.0489,1.62417 -0.31333,2.38742 -0.26447,0.76324 -0.70087,1.47072 -1.2894,2.024 -0.5324,0.50051 -1.17507,0.86569 -1.75998,1.30369 -0.95664,0.71637 -1.76148,1.63447 -2.34645,2.67666"
       id="path872-0"
       inkscape:connector-curvature="0"
       inkscape:path-effect="#path-effect874-2"
       inkscape:original-d="m -190.28163,95.93172 c 0.80414,1.343369 1.55901,2.71766 2.41163,4.030901 0.53506,0.824119 1.39855,1.474959 1.6948,2.411819 0.8975,2.83823 1.33916,6.27175 0,8.93027 -0.32844,0.65203 -1.22296,0.8091 -1.75998,1.30369 -0.87276,0.80381 -1.56404,1.78418 -2.34645,2.67666"
       sodipodi:nodetypes="caaaac" />
    <path
       transform="matrix(-1,0,0,1,-139.52919,-3e-6)"
       style="fill:none;stroke:#000000;stroke-width:1.32291663;stroke-linecap:round;stroke-linejoin:round;stroke-miterlimit:4;stroke-dasharray:none;stroke-opacity:1"
       d="m -190.28163,95.93172 c 0.70193,1.401225 1.50881,2.749867 2.41163,4.030901 0.56613,0.803299 1.17036,1.580699 1.6948,2.411819 0.86212,1.36626 1.51036,2.90596 1.60273,4.51885 0.0462,0.80644 -0.0489,1.62417 -0.31333,2.38742 -0.26447,0.76324 -0.70087,1.47072 -1.2894,2.024 -0.5324,0.50051 -1.17507,0.86569 -1.75998,1.30369 -0.95664,0.71637 -1.76148,1.63447 -2.34645,2.67666"
       id="path872-2-2"
       inkscape:connector-curvature="0"
       inkscape:path-effect="#path-effect874-3-2"
       inkscape:original-d="m -190.28163,95.93172 c 0.80414,1.343369 1.55901,2.71766 2.41163,4.030901 0.53506,0.824119 1.39855,1.474959 1.6948,2.411819 0.8975,2.83823 1.33916,6.27175 0,8.93027 -0.32844,0.65203 -1.22296,0.8091 -1.75998,1.30369 -0.87276,0.80381 -1.56404,1.78418 -2.34645,2.67666"
       sodipodi:nodetypes="caaaac" />
    <path
       style="fill:none;stroke:#000000;stroke-width:1.32291663;stroke-linecap:round;stroke-linejoin:miter;stroke-miterlimit:4;stroke-dasharray:none;stroke-opacity:1"
       d="m -202.60181,117.3671 c 1.72048,0.2808 3.31408,1.27125 4.32753,2.68963 1.19261,1.66912 1.5447,3.77814 1.84369,5.80764 0.69181,4.69593 1.27657,9.42291 2.48899,14.01207 2.34305,8.8687 7.05607,17.09954 13.5188,23.60929"
       id="path894-7"
       inkscape:connector-curvature="0"
       inkscape:path-effect="#path-effect896-6"
       inkscape:original-d="m -202.60181,117.3671 c 1.41205,0.86555 3.28479,1.34899 4.32753,2.68963 1.24698,1.60323 1.35774,3.83554 1.84369,5.80764 1.13497,4.60603 0.87164,9.55249 2.48899,14.01207 3.09184,8.52526 9.0128,15.73926 13.5188,23.60929"
       sodipodi:nodetypes="caaac"
       transform="translate(221.31599,-3e-6)" />
    <path
       transform="matrix(-1,0,0,1,-139.52961,-3e-6)"
       style="fill:none;stroke:#000000;stroke-width:1.32291663;stroke-linecap:round;stroke-linejoin:miter;stroke-miterlimit:4;stroke-dasharray:none;stroke-opacity:1"
       d="m -202.60181,117.3671 c 1.72048,0.2808 3.31408,1.27125 4.32753,2.68963 1.19261,1.66912 1.5447,3.77814 1.84369,5.80764 0.69181,4.69593 1.27657,9.42291 2.48899,14.01207 2.34305,8.8687 7.05607,17.09954 13.5188,23.60929"
       id="path894-2-2"
       inkscape:connector-curvature="0"
       inkscape:path-effect="#path-effect896-4-4"
       inkscape:original-d="m -202.60181,117.3671 c 1.41205,0.86555 3.28479,1.34899 4.32753,2.68963 1.24698,1.60323 1.35774,3.83554 1.84369,5.80764 1.13497,4.60603 0.87164,9.55249 2.48899,14.01207 3.09184,8.52526 9.0128,15.73926 13.5188,23.60929"
       sodipodi:nodetypes="caaac" />
    <g
       id="g1079"
       transform="translate(221.31589)">
      <g
         style="fill:#0033ff;fill-opacity:1;stroke:#000000;stroke-opacity:1"
         transform="translate(0.07818505)"
         id="g1071">
        <path
           style="fill:#0033ff;fill-opacity:1;stroke:#000000;stroke-width:1.32291663;stroke-linecap:round;stroke-linejoin:round;stroke-miterlimit:4;stroke-dasharray:none;stroke-opacity:1"
           d="m -54.870163,88.474048 v 16.888932 c 0,0.97659 -0.0053,1.95662 -0.139954,2.92389 -0.134634,0.96726 -0.398849,1.9234 -0.856838,2.78594 -0.845247,1.59187 -2.295453,2.77954 -3.829162,3.72623 -1.533708,0.94669 -3.184233,1.69599 -4.698175,2.67398 -1.164191,0.75205 -2.247582,1.64206 -3.137301,2.70476 -0.889719,1.0627 -1.582585,2.30305 -1.926917,3.64557 -0.436421,1.70156 -0.30301,3.49045 -0.173051,5.24228 0.983369,13.25566 1.597964,26.54661 1.44434,39.83781 -0.009,0.77564 -0.01702,1.57254 0.255931,2.29862 0.136477,0.36304 0.344307,0.70327 0.630136,0.96543 0.285828,0.26215 0.652565,0.44276 1.039033,0.47542 0.407715,0.0344 0.820947,-0.0976 1.15608,-0.33232 0.335132,-0.23474 0.594938,-0.56736 0.777064,-0.93376 0.36425,-0.7328 0.420874,-1.57508 0.465824,-2.39218 0.604292,-10.98495 0.27628,-21.99708 0.368227,-32.99825 0.01885,-2.25522 0.05726,-4.52778 0.531963,-6.73255 0.474704,-2.20477 1.418824,-4.36179 3.023878,-5.94614 1.020308,-1.00715 2.266434,-1.74763 3.454724,-2.54972 2.324567,-1.56906 4.525346,-3.47987 5.764991,-5.99559 0.772729,-1.56817 1.139177,-3.3094 1.305003,-5.04974 0.165825,-1.74033 0.137981,-3.49236 0.162078,-5.24041 0.03421,-2.48127 0.172626,-4.976286 -0.167253,-7.434409 -0.339879,-2.458123 -1.204202,-4.920556 -2.914025,-6.718997 -0.724361,-0.761904 -1.588576,-1.390424 -2.536596,-1.844796 z"
           id="path1047"
           inkscape:connector-curvature="0"
           inkscape:path-effect="#path-effect1049"
           inkscape:original-d="m -54.870163,88.474048 v 16.888932 c 0,0 0.01289,4.06259 -0.996792,5.70983 -1.857289,3.03008 -5.97768,3.92429 -8.527337,6.40021 -1.942344,1.88617 -4.127961,3.8099 -5.064218,6.35033 -0.604603,1.64051 -0.175885,3.49391 -0.173051,5.24228 0.02153,13.28798 -1.918173,26.98229 1.44434,39.83781 0.354767,1.35634 0.525062,3.6659 1.9251,3.73947 1.456221,0.0765 1.973902,-2.26336 2.398968,-3.65826 3.20647,-10.52239 -1.191766,-22.10933 0.368227,-32.99825 0.622474,-4.34493 1.062215,-9.06653 3.555841,-12.67869 0.813113,-1.17784 2.379085,-1.60554 3.454724,-2.54972 2.083666,-1.829 4.549796,-3.50356 5.764991,-5.99559 1.518589,-3.11421 1.593072,-6.82771 1.467081,-10.29015 -0.175576,-4.825116 -0.442601,-10.109898 -3.081278,-14.153406 -0.571366,-0.875561 -1.690801,-1.23013 -2.536596,-1.844796 z"
           sodipodi:nodetypes="ccaaaaaaaaaaaaac" />
        <path
           transform="matrix(-1,0,0,1,-119.42877,0)"
           style="fill:#0033ff;fill-opacity:1;stroke:#000000;stroke-width:1.32291663;stroke-linecap:round;stroke-linejoin:round;stroke-miterlimit:4;stroke-dasharray:none;stroke-opacity:1"
           d="m -54.870163,88.474048 v 16.888932 c 0,0.97659 -0.0053,1.95662 -0.139954,2.92389 -0.134634,0.96726 -0.398849,1.9234 -0.856838,2.78594 -0.845247,1.59187 -2.295453,2.77954 -3.829162,3.72623 -1.533708,0.94669 -3.184233,1.69599 -4.698175,2.67398 -1.164191,0.75205 -2.247582,1.64206 -3.137301,2.70476 -0.889719,1.0627 -1.582585,2.30305 -1.926917,3.64557 -0.436421,1.70156 -0.30301,3.49045 -0.173051,5.24228 0.983369,13.25566 1.597964,26.54661 1.44434,39.83781 -0.009,0.77564 -0.01702,1.57254 0.255931,2.29862 0.136477,0.36304 0.344307,0.70327 0.630136,0.96543 0.285828,0.26215 0.652565,0.44276 1.039033,0.47542 0.407715,0.0344 0.820947,-0.0976 1.15608,-0.33232 0.335132,-0.23474 0.594938,-0.56736 0.777064,-0.93376 0.36425,-0.7328 0.420874,-1.57508 0.465824,-2.39218 0.604292,-10.98495 0.27628,-21.99708 0.368227,-32.99825 0.01885,-2.25522 0.05726,-4.52778 0.531963,-6.73255 0.474704,-2.20477 1.418824,-4.36179 3.023878,-5.94614 1.020308,-1.00715 2.266434,-1.74763 3.454724,-2.54972 2.324567,-1.56906 4.525346,-3.47987 5.764991,-5.99559 0.772729,-1.56817 1.139177,-3.3094 1.305003,-5.04974 0.165825,-1.74033 0.137981,-3.49236 0.162078,-5.24041 0.03421,-2.48127 0.172626,-4.976286 -0.167253,-7.434409 -0.339879,-2.458123 -1.204202,-4.920556 -2.914025,-6.718997 -0.724361,-0.761904 -1.588576,-1.390424 -2.536596,-1.844796 z"
           id="path1047-2"
           inkscape:connector-curvature="0"
           inkscape:path-effect="#path-effect1049-9"
           inkscape:original-d="m -54.870163,88.474048 v 16.888932 c 0,0 0.01289,4.06259 -0.996792,5.70983 -1.857289,3.03008 -5.97768,3.92429 -8.527337,6.40021 -1.942344,1.88617 -4.127961,3.8099 -5.064218,6.35033 -0.604603,1.64051 -0.175885,3.49391 -0.173051,5.24228 0.02153,13.28798 -1.918173,26.98229 1.44434,39.83781 0.354767,1.35634 0.525062,3.6659 1.9251,3.73947 1.456221,0.0765 1.973902,-2.26336 2.398968,-3.65826 3.20647,-10.52239 -1.191766,-22.10933 0.368227,-32.99825 0.622474,-4.34493 1.062215,-9.06653 3.555841,-12.67869 0.813113,-1.17784 2.379085,-1.60554 3.454724,-2.54972 2.083666,-1.829 4.549796,-3.50356 5.764991,-5.99559 1.518589,-3.11421 1.593072,-6.82771 1.467081,-10.29015 -0.175576,-4.825116 -0.442601,-10.109898 -3.081278,-14.153406 -0.571366,-0.875561 -1.690801,-1.23013 -2.536596,-1.844796 z"
           sodipodi:nodetypes="ccaaaaaaaaaaaaac" />
      </g>
      <circle
         r="2.8385417"
         cy="118.72186"
         cx="-59.6362"
         id="path1073"
         style="fill:#0033ff;fill-opacity:1;stroke:#000000;stroke-width:1.32291663;stroke-linecap:round;stroke-linejoin:round;stroke-miterlimit:4;stroke-dasharray:none;stroke-opacity:1" />
    </g>
  </g>
</svg>
