<svg xmlns="http://www.w3.org/2000/svg" width="208" height="250" style="shape-rendering:geometricPrecision;text-rendering:geometricPrecision;image-rendering:optimizeQuality;fill-rule:evenodd;clip-rule:evenodd"><path style="opacity:1" fill="#fbfcf8" d="M-.5-.5h48v5h-16v3h-24c-.268 1.599.066 2.932 1 4a5675.09 5675.09 0 0 0 1 148c1.764 12.181 5.764 23.514 12 34a82.685 82.685 0 0 0 14 20c-2.18 1.304-3.513 2.804-4 4.5l2 2c-1.41.368-2.41 1.201-3 2.5a23.842 23.842 0 0 1 1 9h11c.667-10.667 1.333-10.667 2 0h3v8h-3v10h-45V-.5z"/><path style="opacity:1" fill="#fafaf5" d="M47.5-.5h160v168c-1.869-2.135-2.536-4.802-2-8h-3a203.549 203.549 0 0 1-2 20l1 24-1 4a52.141 52.141 0 0 1-1.5-10 231.32 231.32 0 0 1-3.5 26 16.873 16.873 0 0 1-1-8h-3a173.991 173.991 0 0 1-1-16 54.628 54.628 0 0 0-2 4.5c-2.698.815-5.032.315-7-1.5 8.967-14.734 14.467-30.734 16.5-48 .5-48.999.667-97.999.5-147h-167v-3h16v-5z"/><path style="opacity:1" fill="#a7a2a5" d="M31.5 7.5h84v1h-10a2352.84 2352.84 0 0 0-97 1v2c-.934-1.068-1.268-2.401-1-4h24z"/><path style="opacity:1" fill="#3f3234" d="M105.5 8.5h10c24.669-.167 49.336 0 74 .5l-1 1c.948.483 1.948.65 3 .5 1.263 1.302 1.929 3.302 2 6l-.5 4-1-1a6.977 6.977 0 0 1-2.5 3.5c2.103 4.497 1.269 4.664-2.5.5-1.585.876-2.585 2.21-3 4a3.646 3.646 0 0 0-1.5-1 9.86 9.86 0 0 0-1 6h-4c-.672-.767-1.505-1.434-2.5-2-1.011.837-2.178 1.17-3.5 1-.322-2.222.345-4.056 2-5.5-.808-1.706-2.141-2.54-4-2.5.262 1.478-.071 2.811-1 4-1.611-.82-2.278-2.154-2-4-3.45-.744-5.116.59-5 4-.934 1.068-1.268 2.401-1 4-1.291-.237-2.291.096-3 1a9.107 9.107 0 0 1-5-1c-1.04-1.875-2.54-3.208-4.5-4-3.076 1.662-3.243 3.662-.5 6v2c-.334 2.688.332 5.021 2 7-2.582-.475-4.582.192-6 2 1.22 1.782 1.886 3.782 2 6 .215 1.679-.452 2.679-2 3-4.102-1.109-5.769-3.775-5-8h-6a36.17 36.17 0 0 0-7 4c.111-.617.444-1.117 1-1.5a8.435 8.435 0 0 0-4-.5c.139-3.088 1.139-5.755 3-8-2.556 2.074-5.556 3.407-9 4-.111-.617-.444-1.117-1-1.5a18.437 18.437 0 0 0-6-.5v3a24.93 24.93 0 0 0-8-1v-4h3c-.388-3.925.279-7.591 2-11-.069-4.256-.403-8.256-1-12a20.211 20.211 0 0 1 6-1.5 12.935 12.935 0 0 0-5-.5v-3c1.788.285 3.455-.048 5-1a168.704 168.704 0 0 1-6-2z"/><path style="opacity:1" fill="#45362f" d="M8.5 9.5a2352.84 2352.84 0 0 1 97-1c1.869.665 3.869 1.331 6 2-1.545.952-3.212 1.285-5 1v3c1.699-.16 3.366.007 5 .5a20.211 20.211 0 0 0-6 1.5c.597 3.744.931 7.744 1 12-1.721 3.409-2.388 7.075-2 11h-3v4a24.93 24.93 0 0 1 8 1c.891.61 1.891.943 3 1 .342.838 1.008 1.172 2 1a44.093 44.093 0 0 1-3 2c1.493.641 2.493 1.641 3 3-3.666-.032-7 1.468-10 4.5a52.56 52.56 0 0 0 7 1.5 2.429 2.429 0 0 0 .5 2c2.123-3.47 3.29-3.47 3.5 0h3a49.847 49.847 0 0 1-5 11c1.829.782 3.329.116 4.5-2 .667.667.667 1.333 0 2a32.455 32.455 0 0 1-4.5 5l1.5 1a19.933 19.933 0 0 0 4.5-3c1.152 1.897.819 3.564-1 5a5.577 5.577 0 0 0-3 1c-1.273.757-1.273 1.423 0 2 0 2 1 3 3 3 1.4.6 2.4 1.6 3 3-1.794 1.603-2.794 3.77-3 6.5 1.12 2.765.12 4.599-3 5.5h-3c-.263 3.234 1.237 4.568 4.5 4a14.471 14.471 0 0 0 7.5-3c.997-.03 1.664.47 2 1.5-3.63 3.393-5.63 7.559-6 12.5h-1c.239-1.967-.094-3.801-1-5.5-2.341.557-4.674.39-7-.5 2.68-1.911 2.513-3.578-.5-5a102.505 102.505 0 0 0-2.5 8l-2-40a561.68 561.68 0 0 1-5 42l1 6a16.873 16.873 0 0 0 1-8h3a106.297 106.297 0 0 1-4 20 40.445 40.445 0 0 1 2 10h3v3h-4v-3h-3c.661-43.68-.005-87.013-2-130a1005.043 1005.043 0 0 0-85-1.5c-1.4.41-2.734.91-4 1.5.172-.992-.162-1.658-1-2z"/><path style="opacity:1" fill="#49272c" d="M177.5 32.5c-1.478-.262-2.811.071-4 1a54.662 54.662 0 0 0 4.5 2c.91 2.445.076 3.778-2.5 4 .304-.65.637-1.316 1-2-1.114-1.276-2.114-1.276-3 0h-6c.237-1.291-.096-2.291-1-3-.978-.311-1.645-.978-2-2a9.107 9.107 0 0 0 1-5h-4c-.116-3.41 1.55-4.744 5-4-.278 1.846.389 3.18 2 4 .929-1.189 1.262-2.522 1-4 1.859-.04 3.192.794 4 2.5-1.655 1.444-2.322 3.278-2 5.5 1.322.17 2.489-.163 3.5-1 .995.566 1.828 1.233 2.5 2z"/><path style="opacity:1" fill="#780811" d="M161.5 27.5v5h-4c.709-.904 1.709-1.237 3-1-.268-1.599.066-2.932 1-4z"/><path style="opacity:1" fill="#ed2541" d="M161.5 27.5h4a9.107 9.107 0 0 1-1 5c.355 1.022 1.022 1.689 2 2v3h-3c-1.419-.951-3.085-1.285-5-1-.934-1.068-1.268-2.401-1-4h4v-5z"/><path style="opacity:1" fill="#531117" d="M157.5 32.5c-.268 1.599.066 2.932 1 4-.086.996.248 1.83 1 2.5-7.317 3.18-9.317 1.347-6-5.5h-4c-.667-5.333-1.333-5.333-2 0-2.743-2.338-2.576-4.338.5-6 1.96.792 3.46 2.125 4.5 4a9.107 9.107 0 0 0 5 1z"/><path style="opacity:1" fill="#701926" d="M147.5 35.5c1.271 1.609 2.271 3.442 3 5.5 1.882.198 3.548.698 5 1.5h-6c-1.668-1.979-2.334-4.312-2-7z"/><path style="opacity:1" fill="#5f1315" d="M166.5 34.5c.904.709 1.237 1.709 1 3h6c-1.419.951-3.085 1.285-5 1a6.845 6.845 0 0 0 1 4c-4.16 1.865-6.827.532-8-4 .457-.797 1.124-1.13 2-1h3v-3z"/><path style="opacity:1" fill="#9c2228" d="M39.5 39.5c1.14 2.504 1.806 5.17 2 8 .13.876-.203 1.543-1 2a31.182 31.182 0 0 1-4.5-4 6.807 6.807 0 0 1-1.5 3c-1.708-2.191-3.708-2.524-6-1-.929-1.189-1.262-2.522-1-4v-4c3.052-1.277 4.385-3.61 4-7a6.845 6.845 0 0 1 4 1c.803 2.522 2.136 4.522 4 6z"/><path style="opacity:1" fill="#671b1b" d="M116.5 43.5c-.838.342-1.172 1.008-1 2 0 .667-.333 1-1 1-.992.172-1.658-.162-2-1a5.728 5.728 0 0 1-3-1v-3a18.437 18.437 0 0 1 6 .5c.556.383.889.883 1 1.5z"/><path style="opacity:1" fill="#c62336" d="M158.5 36.5c1.915-.285 3.581.049 5 1-.876-.13-1.543.203-2 1 1.173 4.532 3.84 5.865 8 4a6.845 6.845 0 0 1-1-4c1.915.285 3.581-.049 5-1 .886-1.276 1.886-1.276 3 0-.363.684-.696 1.35-1 2-1.447 1.122-2.447 2.622-3 4.5a19.168 19.168 0 0 1-5 2.5c-3.865-1.955-7.865-3.288-12-4-1.452-.802-3.118-1.302-5-1.5-.729-2.058-1.729-3.891-3-5.5v-2c.667-5.333 1.333-5.333 2 0h4c-3.317 6.847-1.317 8.68 6 5.5-.752-.67-1.086-1.504-1-2.5z"/><path style="opacity:1" fill="#584a13" d="M149.5 42.5h6c4.135.712 8.135 2.045 12 4 .61.891.943 1.891 1 3h-1c-1.628-1.353-2.962-1.02-4 1-1.29.558-2.123 1.558-2.5 3l-.5-2c1.876-1.548 2.876-3.548 3-6a13.118 13.118 0 0 0-7 1c2.654 2.072 2.32 3.739-1 5-1.981-.605-2.315-1.605-1-3-2.515-.7-3.182-2.033-2-4-2.973-1.009-5.973-1.009-9 0 1.418-1.808 3.418-2.475 6-2z"/><path style="opacity:1" fill="#cb3e46" d="M112.5 45.5c-1.414-2.098-.748-3.098 2-3 .215 1.679-.452 2.679-2 3z"/><path style="opacity:1" fill="#594525" d="M98.5 11.5h-87v140h-1a5010.35 5010.35 0 0 0-1-140c1.266-.59 2.6-1.09 4-1.5 28.513-.696 56.846-.196 85 1.5z"/><path style="opacity:1" fill="#7d161c" d="M27.5 43.5c-.262 1.478.071 2.811 1 4 2.292-1.524 4.292-1.191 6 1a6.807 6.807 0 0 0 1.5-3 31.182 31.182 0 0 0 4.5 4c.797-.457 1.13-1.124 1-2 .901.79 1.568 1.79 2 3-1.443.835-2.443 2.168-3 4a26.972 26.972 0 0 0-3.5-6c-.736 2.096-1.903 3.763-3.5 5v7c3.787.686 6.954-.314 9.5-3a12.649 12.649 0 0 1 2.5 4c-9.041-.625-17.708-.625-26 0a8.434 8.434 0 0 1 .5-4 618.372 618.372 0 0 1 7.5-14z"/><path style="opacity:1" fill="#d4313b" d="M33.5 53.5c-3.185-.222-4.185-1.722-3-4.5.95-.617 1.782-.45 2.5.5a8.434 8.434 0 0 1 .5 4z"/><path style="opacity:1" fill="#e7d447" d="M163.5 50.5c-1.868 3.116-1.035 5.116 2.5 6 1.749-1.723 2.916-3.723 3.5-6v5c1.855-.228 2.688.439 2.5 2-1.356.88-2.856 1.214-4.5 1a11.987 11.987 0 0 0 1 6c.825.886 1.825 1.219 3 1v3c-2.403.107-4.236-.893-5.5-3-.399.228-.565.562-.5 1-2.185-.204-4.185-.87-6-2 2.709-2.474 2.375-4.64-1-6.5 2.544-1.099 2.544-2.265 0-3.5-1.381.5-2.047 1.5-2 3 1.115 2.233 1.115 4.4 0 6.5a34.183 34.183 0 0 0-9 3.5c-1.45-1.35-2.117-3.016-2-5 9.156 2.349 12.156-.818 9-9.5a8.189 8.189 0 0 1-4-2.5c-1.699 1.315-3.365 1.315-5 0-.114-2.218-.78-4.218-2-6 3.027-1.009 6.027-1.009 9 0-1.182 1.967-.515 3.3 2 4-1.315 1.395-.981 2.395 1 3 3.32-1.261 3.654-2.928 1-5a13.118 13.118 0 0 1 7-1c-.124 2.452-1.124 4.452-3 6l.5 2c.377-1.442 1.21-2.442 2.5-3z"/><path style="opacity:1" fill="#5c1e1b" d="M132.5 45.5h6c-.769 4.225.898 6.891 5 8a83.214 83.214 0 0 1 10 3 67.363 67.363 0 0 1-13-1.5c-2.541-1.848-3.541-4.348-3-7.5-1.951-.273-3.451.393-4.5 2-.322 2.189.178 4.189 1.5 6h-1a14.193 14.193 0 0 1-3-4c1.517-2.014 2.184-4.014 2-6z"/><path style="opacity:1" fill="#e8d861" d="M167.5 49.5a31.28 31.28 0 0 1-2 5c-1.231-1.15-1.231-2.317 0-3.5a2.427 2.427 0 0 0-2-.5c1.038-2.02 2.372-2.353 4-1z"/><path style="opacity:1" fill="#453828" d="M125.5 49.5a36.17 36.17 0 0 1 7-4c.184 1.986-.483 3.986-2 6a14.193 14.193 0 0 0 3 4c-2.501-1.326-5.168-1.826-8-1.5 2.06 1.493 2.393 3.326 1 5.5-.557-1.832-1.557-3.165-3-4h-1c-3.199-2.833-4.866-6.5-5-11-.683.363-1.35.696-2 1-.172-.992.162-1.658 1-2 3.444-.593 6.444-1.926 9-4-1.861 2.245-2.861 4.912-3 8a8.435 8.435 0 0 1 4 .5c-.556.383-.889.883-1 1.5z"/><path style="opacity:1" fill="#e8e14d" d="M125.5 49.5c-2.303 4.279-3.97 3.946-5-1l.5-1c1.47.767 2.97 1.433 4.5 2z"/><path style="opacity:1" fill="#612911" d="M39.5 39.5c4.428 6.519 8.094 13.519 11 21a5.728 5.728 0 0 0-3 1c.657-3.34-.676-5.34-4-6 1.315-1.699 1.315-3.365 0-5-.432-1.21-1.099-2.21-2-3-.194-2.83-.86-5.496-2-8z"/><path style="opacity:1" fill="#8d7918" d="M167.5 49.5h2v1c-.584 2.277-1.751 4.277-3.5 6-3.535-.884-4.368-2.884-2.5-6a2.427 2.427 0 0 1 2 .5c-1.231 1.183-1.231 2.35 0 3.5a31.28 31.28 0 0 0 2-5z"/><path style="opacity:1" fill="#fce63e" d="M14.5 11.5h83v45a380.842 380.842 0 0 0-1 39c-2.09-.05-3.423.95-4 3 .59 1.299 1.59 2.132 3 2.5-1.61 1.495-3.276 1.661-5 .5l-2-6a10.253 10.253 0 0 0-1.5 4 6.975 6.975 0 0 0-2.5-3.5c.457-.414.79-.914 1-1.5-1.189-.929-2.522-1.262-4-1-2.471-.267-4.138.733-5 3a13.141 13.141 0 0 1 2 6h-31a352.702 352.702 0 0 1 1-37c2.692-1.09 3.358-2.757 2-5-2.906-7.481-6.572-14.481-11-21a29.413 29.413 0 0 0-2-7l2-11c-4.42.033-8.754-.133-13-.5a20.473 20.473 0 0 1-3.5 2.5 32.437 32.437 0 0 0-.5 8 4.932 4.932 0 0 1 3 .5c-2.649 1.82-4.316 4.32-5 7.5a11.989 11.989 0 0 1-6 1v-5h3a375.909 375.909 0 0 0-4-22c.363-.684.696-1.35 1-2z"/><path style="opacity:1" fill="#543f1e" d="M37.5 32.5a29.413 29.413 0 0 1 2 7c-1.864-1.478-3.197-3.478-4-6a6.845 6.845 0 0 0-4-1c.385 3.39-.948 5.723-4 7a48.986 48.986 0 0 1 3-9c-1.083-2.375-1.083-4.708 0-7 1.87-1.267 3.704-1.267 5.5 0 .711 2.4.544 4.732-.5 7 .355 1.022 1.022 1.689 2 2z"/><path style="opacity:1" fill="#d72636" d="M153.5 56.5c.838.342 1.172 1.008 1 2a65.566 65.566 0 0 1-20-3c-1.322-1.811-1.822-3.811-1.5-6 1.049-1.607 2.549-2.273 4.5-2-.541 3.152.459 5.652 3 7.5a67.363 67.363 0 0 0 13 1.5z"/><path style="opacity:1" fill="#662c18" d="M114.5 51.5c4.175 2.725 3.842 3.392-1 2a16.332 16.332 0 0 0-2 4 52.56 52.56 0 0 1-7-1.5c3-3.032 6.334-4.532 10-4.5z"/><path style="opacity:1" fill="#dd3440" d="M27.5 53.5c2.469 1.107 3.469 3.107 3 6h-3v-6z"/><path style="opacity:1" fill="#a9212a" d="M43.5 50.5c1.315 1.635 1.315 3.301 0 5 3.324.66 4.657 2.66 4 6h-2a12.649 12.649 0 0 0-2.5-4c-2.546 2.686-5.713 3.686-9.5 3v-7c1.597-1.237 2.764-2.904 3.5-5a26.972 26.972 0 0 1 3.5 6c.557-1.832 1.557-3.165 3-4z"/><path style="opacity:1" fill="#423232" d="M133.5 55.5h1a65.566 65.566 0 0 0 20 3 345.429 345.429 0 0 1-8 2c-.363.684-.696 1.35-1 2-1.254 1.857-1.254 3.857 0 6-3.42 1.253-4.754-.08-4-4a18.437 18.437 0 0 0-6 .5 20.509 20.509 0 0 1-2.5 4.5 33.048 33.048 0 0 0-8.5-4c.247-3.439-.086-6.772-1-10 1.443.835 2.443 2.168 3 4 1.393-2.174 1.06-4.007-1-5.5 2.832-.326 5.499.174 8 1.5z"/><path style="opacity:1" fill="#655122" d="M145.5 50.5c1.635 1.315 3.301 1.315 5 0a8.189 8.189 0 0 0 4 2.5c3.156 8.682.156 11.849-9 9.5.304-.65.637-1.316 1-2a345.429 345.429 0 0 0 8-2c.172-.992-.162-1.658-1-2a83.214 83.214 0 0 0-10-3c1.548-.321 2.215-1.321 2-3z"/><path style="opacity:1" fill="#45393a" d="M115.5 8.5v-1h83c.167 49.001 0 98.001-.5 147-2.033 17.266-7.533 33.266-16.5 48l-12 13c-.375-2.897.125-5.563 1.5-8l1 2a22.202 22.202 0 0 1 5.5-8 3.647 3.647 0 0 0-1-1.5 14.72 14.72 0 0 0 5-1.5l-3-2 4-2c-1.313-2.018-.647-3.185 2-3.5a4.934 4.934 0 0 0-3-.5c.477-4.885 2.477-9.051 6-12.5-2.452-1.806-2.119-3.306 1-4.5-2.548-1.719-2.215-3.052 1-4l-4-2c3.681-2.589 5.348-5.922 5-10l-7-2a21.127 21.127 0 0 1 9-1c.17-1.322-.163-2.489-1-3.5 2.489-2.529 2.156-4.862-1-7a20.64 20.64 0 0 1 6-2c-.928-.388-1.595-1.055-2-2 .648-1.44.981-2.94 1-4.5-3.307.437-6.307-.23-9-2a420.01 420.01 0 0 1-3-12.5c-.336-1.03-1.003-1.53-2-1.5.382-4.867-.285-9.534-2-14v-2a77.348 77.348 0 0 0-6-16c.733-.587 1.733-.587 3 0h1c1.012 2.376 2.845 3.376 5.5 3 3.042.13 5.209-1.203 6.5-4a7.298 7.298 0 0 1-2-3.5c1.002-2.168 2.002-4.335 3-6.5a46.328 46.328 0 0 1-9-1c.239-1.967-.094-3.8-1-5.5-1.963-.844-3.296-.344-4 1.5-.624 2.254-1.957 3.92-4 5l-5-2v-1c.734-1.208 1.067-2.541 1-4 1.643-.02 2.976.647 4 2 1.444-2.108 2.11-4.441 2-7-5.708.008-6.041-.492-1-1.5a3.647 3.647 0 0 1-1-1.5c3.215-.948 3.548-2.281 1-4 2.913-2.401 2.579-3.734-1-4v-5c-1.291-.237-2.291.096-3 1h-1a5.727 5.727 0 0 0-1-3 19.168 19.168 0 0 0 5-2.5c.553-1.878 1.553-3.378 3-4.5 2.576-.222 3.41-1.555 2.5-4a54.662 54.662 0 0 1-4.5-2c1.189-.929 2.522-1.262 4-1h4a9.86 9.86 0 0 1 1-6c.586.21 1.086.543 1.5 1 .415-1.79 1.415-3.124 3-4 3.769 4.164 4.603 3.997 2.5-.5a6.977 6.977 0 0 0 2.5-3.5l1 1 .5-4c-.071-2.698-.737-4.698-2-6a4.932 4.932 0 0 1-3-.5l1-1c-24.664-.5-49.331-.667-74-.5z"/><path style="opacity:1" fill="#4b3e23" d="M167.5 73.5a67.862 67.862 0 0 1-2-7c-.065-.438.101-.772.5-1 1.264 2.107 3.097 3.107 5.5 3v-3c-1.175.219-2.175-.114-3-1a11.987 11.987 0 0 1-1-6c1.644.214 3.144-.12 4.5-1 .188-1.561-.645-2.228-2.5-2v-6c.709-.904 1.709-1.237 3-1v5c3.579.266 3.913 1.599 1 4 2.548 1.719 2.215 3.052-1 4a3.647 3.647 0 0 0 1 1.5c-5.041 1.008-4.708 1.508 1 1.5.11 2.559-.556 4.892-2 7-1.024-1.353-2.357-2.02-4-2 .067 1.459-.266 2.792-1 4z"/><path style="opacity:1" fill="#4b3632" d="M45.5 61.5h2a5.728 5.728 0 0 1 3-1c1.358 2.243.692 3.91-2 5-.992-.172-1.658.162-2 1h-3c-2.928-1.32-6.261-1.986-10-2-3.517.002-6.85.335-10 1-4.017.661-5.35-.672-4-4 8.292-.625 16.959-.625 26 0z"/><path style="opacity:1" fill="#6b0c0f" d="M43.5 66.5h-20v-1c3.15-.665 6.483-.998 10-1 3.739.014 7.072.68 10 2z"/><path style="opacity:1" fill="#544119" d="M159.5 64.5c-3.057 1.197-5.724 3.03-8 5.5a25.249 25.249 0 0 1-10 0c-2.165-6.073-3.831-5.906-5 .5-1.571 1.915-3.571 2.915-6 3v-5c-1.291-.237-2.291.096-3 1l-2-1c-2.537-3.895-3.537-8.228-3-13h1c.914 3.228 1.247 6.561 1 10a33.048 33.048 0 0 1 8.5 4 20.509 20.509 0 0 0 2.5-4.5 18.437 18.437 0 0 1 6-.5c-.754 3.92.58 5.253 4 4-1.254-2.143-1.254-4.143 0-6-.117 1.984.55 3.65 2 5a34.183 34.183 0 0 1 9-3.5c1.115-2.1 1.115-4.267 0-6.5-.047-1.5.619-2.5 2-3 2.544 1.235 2.544 2.401 0 3.5 3.375 1.86 3.709 4.026 1 6.5z"/><path style="opacity:1" fill="#edda48" d="M122.5 55.5c-.537 4.772.463 9.105 3 13-.277 2.948.056 5.78 1 8.5-2.581 2.159-5.247 2.659-8 1.5 1.819-1.436 2.152-3.103 1-5a19.933 19.933 0 0 1-4.5 3l-1.5-1a32.455 32.455 0 0 0 4.5-5c.667-.667.667-1.333 0-2-1.171 2.116-2.671 2.782-4.5 2a49.847 49.847 0 0 0 5-11h-3c-.21-3.47-1.377-3.47-3.5 0a2.429 2.429 0 0 1-.5-2 16.332 16.332 0 0 1 2-4c4.842 1.392 5.175.725 1-2-.507-1.359-1.507-2.359-3-3a44.093 44.093 0 0 0 3-2c.667 0 1-.333 1-1 .65-.304 1.317-.637 2-1 .134 4.5 1.801 8.167 5 11z"/><path style="opacity:1" fill="#58491d" d="M181.5 75.5c-1.676-.683-2.343-2.017-2-4h-3c.704-1.844 2.037-2.344 4-1.5.906 1.7 1.239 3.533 1 5.5z"/><path style="opacity:1" fill="#6b5518" d="m125.5 68.5 2 1v7a9.864 9.864 0 0 1 6 1 4.451 4.451 0 0 1-2 1.5 820.113 820.113 0 0 1-16 2.5c-1.273-.577-1.273-1.243 0-2a5.577 5.577 0 0 1 3-1c2.753 1.159 5.419.659 8-1.5-.944-2.72-1.277-5.552-1-8.5z"/><path style="opacity:1" fill="#dfce4b" d="M176.5 71.5h3c-.343 1.983.324 3.317 2 4 .283.79.783 1.456 1.5 2 .215 3.303.382 6.47.5 9.5a4.932 4.932 0 0 1-3 .5c-1.004-9.32-2.004-9.32-3 0h-1c-1.285-2.453-1.285-4.953 0-7.5-1.148-1.726-2.315-1.56-3.5.5a30.485 30.485 0 0 0 0 11 106.02 106.02 0 0 1 6.5 12v2c-1.235.221-2.235.888-3 2-1.517-1.411-2.851-1.244-4 .5a8.43 8.43 0 0 0 4 .5v3c-1.699-2.651-3.366-2.651-5 0-1.846.278-3.18-.389-4-2a18.633 18.633 0 0 0 6-4c.997.03 1.664-.47 2-1.5a47.892 47.892 0 0 1-6-18c.004-3.502 1.004-6.669 3-9.5 2.043-1.08 3.376-2.746 4-5z"/><path style="opacity:1" fill="#611414" d="M43.5 66.5h3v1c-1.086.12-1.753.787-2 2 .286 11.687 1.286 23.02 3 34-.997 2.828-.997 5.495 0 8v4c-.321 1.548-1.321 2.215-3 2 .295-2.235-.039-4.235-1-6v-45z"/><path style="opacity:1" fill="#d9c362" d="M48.5 65.5a352.702 352.702 0 0 0-1 37c-.995-11.488-1.328-23.155-1-35v-1c.342-.838 1.008-1.172 2-1z"/><path style="opacity:1" fill="#674b20" d="M27.5 39.5v4a618.372 618.372 0 0 0-7.5 14 8.434 8.434 0 0 0-.5 4c-1.35 3.328-.017 4.661 4 4v1c-.617.11-1.117.444-1.5 1a6519.05 6519.05 0 0 1-1.5 111h-1c.332-37.504-.002-74.837-1-112-1.312-.645-2.312-1.645-3-3a201.451 201.451 0 0 1 12-24z"/><path style="opacity:1" fill="#664c19" d="M121.5 87.5c-.6-1.4-1.6-2.4-3-3 2.79.278 5.29-.39 7.5-2l1.5 1a1140.401 1140.401 0 0 0-6 4z"/><path style="opacity:1" fill="#524017" d="M176.5 87.5c-1.267-.587-2.267-.587-3 0a77.348 77.348 0 0 1 6 16 106.02 106.02 0 0 0-6.5-12 30.485 30.485 0 0 1 0-11c1.185-2.06 2.352-2.226 3.5-.5-1.285 2.547-1.285 5.047 0 7.5z"/><path style="opacity:1" fill="#5b4813" d="m167.5 74.5 5 2c-1.996 2.831-2.996 5.998-3 9.5a47.892 47.892 0 0 0 6 18c-.336 1.03-1.003 1.53-2 1.5a42.361 42.361 0 0 0-4.5-8c-.499-5.99-.666-11.99-.5-18h-4v10h-6c-.163 2.357.003 4.69.5 7 1.892 1.117 2.725 2.784 2.5 5-1.915.284-3.581-.049-5-1 4.201.058 4.701-.942 1.5-3-.18-4.424-.347-8.757-.5-13a37.107 37.107 0 0 0-4.5 2 33.73 33.73 0 0 0 1.5 13c-1.324-1.35-2.324-1.183-3 .5 1.16 1.997 1.16 3.831 0 5.5a24.3 24.3 0 0 1-2-5.5c1.296-2.734 1.796-5.567 1.5-8.5a40.832 40.832 0 0 1-6.5 4c-1.141-1.921-1.308-3.921-.5-6 .414-.457.914-.79 1.5-1 .498 1.103.831 2.103 1 3l3-1.5a56.48 56.48 0 0 0 3.5-8.5l1-1c-.263 1.45-.096 2.784.5 4 2.703-1.062 4.203-3.062 4.5-6 .498 3.317.665 6.65.5 10a8.435 8.435 0 0 0 4-.5 18.098 18.098 0 0 1-2-5.5 98.282 98.282 0 0 0 1.5-9c.606 2.593 2.106 4.26 4.5 5l2-1a184.223 184.223 0 0 1-2-3z"/><path style="opacity:1" fill="#47392b" d="M181.5 75.5c3.013.632 6.013.966 9 1-.998 2.165-1.998 4.332-3 6.5a7.298 7.298 0 0 0 2 3.5c-1.291 2.797-3.458 4.13-6.5 4-2.655.376-4.488-.624-5.5-3 .996-9.32 1.996-9.32 3 0a4.932 4.932 0 0 0 3-.5c-.118-3.03-.285-6.197-.5-9.5-.717-.544-1.217-1.21-1.5-2z"/><path style="opacity:1" fill="#ead544" d="m156.5 100.5-2-1a33.73 33.73 0 0 1-1.5-13 37.107 37.107 0 0 1 4.5-2c.153 4.243.32 8.576.5 13 3.201 2.058 2.701 3.058-1.5 3z"/><path style="opacity:1" fill="#edd942" d="M159.5 64.5c1.815 1.13 3.815 1.796 6 2a67.862 67.862 0 0 0 2 7v1c.641.982 1.307 1.982 2 3l-2 1c-2.394-.74-3.894-2.407-4.5-5a98.282 98.282 0 0 1-1.5 9 18.098 18.098 0 0 0 2 5.5 8.435 8.435 0 0 1-4 .5 50.464 50.464 0 0 0-.5-10c-.297 2.938-1.797 4.938-4.5 6-.596-1.216-.763-2.55-.5-4l-1 1a56.48 56.48 0 0 1-3.5 8.5l-3 1.5c-.169-.897-.502-1.897-1-3a3.646 3.646 0 0 0-1.5 1c-.808 2.079-.641 4.079.5 6a40.832 40.832 0 0 0 6.5-4c.296 2.933-.204 5.766-1.5 8.5a24.3 24.3 0 0 0 2 5.5h-2c-.996.086-1.829-.248-2.5-1-1.4-2.341-1.9-4.674-1.5-7a54.107 54.107 0 0 0-2.5 10c-3.876.21-6.21 2.21-7 6a3.647 3.647 0 0 0-1.5-1 12.403 12.403 0 0 0-2.5 4c-1.011-.837-2.178-1.17-3.5-1 .256 2.412-.744 4.079-3 5 1.353 1.024 2.02 2.357 2 4-1.599-.268-2.932.066-4 1-1.333 0-2-.667-2-2 2.483-3.438 1.816-3.771-2-1a14.72 14.72 0 0 0-1.5 5c-.671.752-1.504 1.086-2.5 1-.342-.838-1.008-1.172-2-1-.709-.904-1.709-1.237-3-1v-10h4c.472 2.248-.195 4.415-2 6.5l1.5.5a38.666 38.666 0 0 1 6.5-9 216.4 216.4 0 0 1 5-9.5c6.928 3.038 12.761 1.538 17.5-4.5.42-5.123-.247-5.123-2 0-1.113 1.829-2.613 2.663-4.5 2.5a26.925 26.925 0 0 1 3-8.5c-2.876-.257-5.543.743-8 3l-3 6c-1.297-2.688-.964-5.188 1-7.5-1.999.815-3.665 2.315-5 4.5a14.471 14.471 0 0 1-7.5 3c-3.263.568-4.763-.766-4.5-4h3c.751 1.073 1.751 1.24 3 .5 2.327-2.142 3.993-4.642 5-7.5-1.818 1.578-2.818 1.078-3-1.5a10.984 10.984 0 0 1 1-3.5c1.971-1.323 3.971-2.656 6-4l-1.5-1c-2.21 1.61-4.71 2.278-7.5 2-2 0-3-1-3-3a820.113 820.113 0 0 0 16-2.5 4.451 4.451 0 0 0 2-1.5 9.864 9.864 0 0 0-6-1v-7c.709-.904 1.709-1.237 3-1v5c2.429-.085 4.429-1.085 6-3 1.169-6.406 2.835-6.573 5-.5 3.333.667 6.667.667 10 0 2.276-2.47 4.943-4.303 8-5.5z"/><path style="opacity:1" fill="#60490a" d="M123.5 92.5a2.429 2.429 0 0 1 .5-2 33.223 33.223 0 0 0 8.5-7.5c.832-.688 1.498-.521 2 .5-2.999 1.646-3.999 3.98-3 7 4.689-2.653 5.023-2.153 1 1.5a54.655 54.655 0 0 0-9 .5z"/><path style="opacity:1" fill="#695309" d="M139.5 79.5c3.47.21 3.47 1.377 0 3.5 2.847.944 5.347.444 7.5-1.5.483.948.649 1.948.5 3a79.919 79.919 0 0 0-10.5 2c-.667-1.333-.667-2.667 0-4a10.526 10.526 0 0 0 2.5-3z"/><path style="opacity:1" fill="#64500f" d="M157.5 72.5c2.152.577 2.485 1.743 1 3.5-2.947 1.665-5.947 2.165-9 1.5a12.409 12.409 0 0 1 2.5-4c1.401 1.692 3.234 2.359 5.5 2v-3z"/><path style="opacity:1" fill="#6a5113" d="M139.5 73.5c2.613.596 2.613 1.429 0 2.5 2.077.192 4.077.692 6 1.5-3.333 1.333-6.667 1.333-10 0 1.049-1.716 2.382-3.049 4-4z"/><path style="opacity:1" fill="#52421a" d="M121.5 87.5a10.984 10.984 0 0 0-1 3.5c.182 2.578 1.182 3.078 3 1.5-1.007 2.858-2.673 5.358-5 7.5-1.249.74-2.249.573-3-.5 3.12-.901 4.12-2.735 3-5.5.206-2.73 1.206-4.897 3-6.5z"/><path style="opacity:1" fill="#53430d" d="M98.5 11.5c1.995 42.987 2.661 86.32 2 130v4c.325 31.073-.008 62.073-1 93h-1v-227z"/><path style="opacity:1" fill="#543112" d="M46.5 67.5c-.328 11.845.005 23.512 1 35h31a13.141 13.141 0 0 0-2-6c.862-2.267 2.529-3.267 5-3 2.473 2.367 2.473 4.867 0 7.5a12.988 12.988 0 0 1 1 5.5 397.602 397.602 0 0 1-5-3c-9.845.564-19.845.564-30 0-1.714-10.98-2.714-22.313-3-34 .247-1.213.914-1.88 2-2z"/><path style="opacity:1" fill="#5e4a0d" d="M149.5 105.5a5.727 5.727 0 0 0 1 3c-2.179-.34-4.012-1.34-5.5-3-.422 3.55-2.422 5.55-6 6a12.93 12.93 0 0 0-.5 5h-4v3c-1.366-1.851-3.033-2.184-5-1a41.653 41.653 0 0 1-2 6c.02-1.643-.647-2.976-2-4 2.256-.921 3.256-2.588 3-5 1.322-.17 2.489.163 3.5 1a12.403 12.403 0 0 1 2.5-4 3.647 3.647 0 0 1 1.5 1c.79-3.79 3.124-5.79 7-6a54.107 54.107 0 0 1 2.5-10c-.4 2.326.1 4.659 1.5 7 .671.752 1.504 1.086 2.5 1z"/><path style="opacity:1" fill="#a71c27" d="M47.5 103.5c10.155.564 20.155.564 30 0a397.602 397.602 0 0 0 5 3v5c4.164.959 6.498 3.626 7 8-3-1.333-6-1.333-9 0v-4a4.934 4.934 0 0 1-3-.5 78.518 78.518 0 0 0-4-5.5c-1.784-1.106-3.618-1.106-5.5 0-1.584-.488-2.75-1.488-3.5-3l-1 1.5c2.948 2.368 3.614 5.201 2 8.5-.278 1.846.389 3.18 2 4a25.866 25.866 0 0 0 3-5c1.118 3.228 3.118 4.228 6 3 1.4.6 2.4 1.6 3 3h-18l1-4c.722.418 1.222 1.084 1.5 2l.5-1.5a227.768 227.768 0 0 0-6-9.5c.826-.951.992-1.951.5-3-1.011.837-2.178 1.17-3.5 1-2.33-1.502-3.663-.836-4 2-2.337-.962-3.67.038-4 3-.997-2.505-.997-5.172 0-8z"/><path style="opacity:1" fill="#5d4710" d="M120.5 114.5c.37-4.941 2.37-9.107 6-12.5-.336-1.03-1.003-1.53-2-1.5 1.335-2.185 3.001-3.685 5-4.5-1.964 2.312-2.297 4.812-1 7.5l3-6c2.457-2.257 5.124-3.257 8-3a26.925 26.925 0 0 0-3 8.5c1.887.163 3.387-.671 4.5-2.5 1.753-5.123 2.42-5.123 2 0-4.739 6.038-10.572 7.538-17.5 4.5a216.4 216.4 0 0 0-5 9.5z"/><path style="opacity:1" fill="#e2d349" d="M133.5 97.5c2.916 3.044 2.249 5.377-2 7-.867-2.643-.2-4.977 2-7z"/><path style="opacity:1" fill="#ef2c4a" d="M55.5 106.5v4c-1.983.343-3.317-.324-4-2 .337-2.836 1.67-3.502 4-2z"/><path style="opacity:1" fill="#7f0f13" d="M62.5 117.5c-.311-.978-.978-1.645-2-2-3.019 1.874-3.352 3.874-1 6h-5c2.148-2.769 3.648-5.769 4.5-9-1.183-1.231-2.35-1.231-3.5 0-1.333 5.333-2.667 5.333-4 0-1.308-1.126-2.642-1.126-4 0v-1c.33-2.962 1.663-3.962 4-3 .683 1.676 2.017 2.343 4 2v-4c1.322.17 2.489-.163 3.5-1 .492 1.049.326 2.049-.5 3a227.768 227.768 0 0 1 6 9.5l-.5 1.5c-.278-.916-.778-1.582-1.5-2z"/><path style="opacity:1" fill="#f63444" d="M23.5 66.5h8c-.683 1.677-2.017 2.343-4 2 .221 2.567.888 4.9 2 7-.086.996.248 1.83 1 2.5 6.118 2.041 9.452-.125 10-6.5a10.253 10.253 0 0 1 1.5 4 625.219 625.219 0 0 1 0 50c-.893 1.211-1.726 1.211-2.5 0a41.599 41.599 0 0 1 1-9.5c-1.19-.698-2.19-1.531-3-2.5-2.135-1.869-4.802-2.536-8-2v19c3.74.259 7.406-.074 11-1a47.615 47.615 0 0 1 0 18 20.625 20.625 0 0 0 2 6l-.5 2c-4.454-3.898-8.787-3.898-13 0a648.437 648.437 0 0 0-.5 36h-5v-125z"/><path style="opacity:1" fill="#73151b" d="M32.5 87.5h5v16a24.935 24.935 0 0 1-7-.5c.69-5.165 1.357-10.331 2-15.5z"/><path style="opacity:1" fill="#544442" d="M8.5 9.5c.838.342 1.172 1.008 1 2a5010.35 5010.35 0 0 1 1 140c.306 2.885-.027 5.552-1 8a5675.09 5675.09 0 0 1-1-148v-2z"/><path style="opacity:1" fill="#67220a" d="M82.5 106.5a108.123 108.123 0 0 1 12 16h-2c0-.667-.333-1-1-1 0-1.333-.667-2-2-2-.502-4.374-2.836-7.041-7-8v-5z"/><path style="opacity:1" fill="#820b16" d="M89.5 119.5c1.333 0 2 .667 2 2h-12c-.6-1.4-1.6-2.4-3-3a38.334 38.334 0 0 0-3.5-7c-1.011-.837-2.178-1.17-3.5-1 .158 3.022-1.175 5.022-4 6 1.614-3.299.948-6.132-2-8.5l1-1.5c.75 1.512 1.916 2.512 3.5 3 1.882-1.106 3.716-1.106 5.5 0a78.518 78.518 0 0 1 4 5.5 4.934 4.934 0 0 0 3 .5v4c3-1.333 6-1.333 9 0z"/><path style="opacity:1" fill="#413232" d="M173.5 105.5a18.633 18.633 0 0 1-6 4c.82 1.611 2.154 2.278 4 2 .996.086 1.829-.248 2.5-1a59.176 59.176 0 0 0 1.5 7.5 15.894 15.894 0 0 0-1 6.5c-3.266-.067-4.766 1.599-4.5 5-.71-1.473-1.876-2.14-3.5-2v8h3a41.73 41.73 0 0 1-1 9c-4.157.686-5.491-.814-4-4.5a11.068 11.068 0 0 0-2-3.5 55.582 55.582 0 0 0 1.5-9 39.027 39.027 0 0 1 4.5-4.5c-4.324-1.305-6.658.195-7 4.5h-5c-4.781-5.346-6.781-11.68-6-19a5.727 5.727 0 0 1-1-3h2c1.16-1.669 1.16-3.503 0-5.5.676-1.683 1.676-1.85 3-.5l2 1c1.419.951 3.085 1.284 5 1 .225-2.216-.608-3.883-2.5-5a24.935 24.935 0 0 1-.5-7h6v-10h4c-.166 6.01.001 12.01.5 18a42.361 42.361 0 0 1 4.5 8z"/><path style="opacity:1" fill="#c62436" d="M54.5 121.5h-3c-.738-2.44-2.071-4.44-4-6v-3c1.358-1.126 2.692-1.126 4 0 1.333 5.333 2.667 5.333 4 0 1.15-1.231 2.317-1.231 3.5 0-.852 3.231-2.352 6.231-4.5 9z"/><path style="opacity:1" fill="#ca2131" d="M76.5 118.5c-2.882 1.228-4.882.228-6-3a25.866 25.866 0 0 1-3 5c-1.611-.82-2.278-2.154-2-4 2.825-.978 4.158-2.978 4-6 1.322-.17 2.489.163 3.5 1a38.334 38.334 0 0 1 3.5 7z"/><path style="opacity:1" fill="#52411f" d="M176.5 111.5c1.664 4.696.997 9.029-2 13a15.894 15.894 0 0 1 1-6.5 59.176 59.176 0 0 1-1.5-7.5c-.671.752-1.504 1.086-2.5 1 1.634-2.651 3.301-2.651 5 0z"/><path style="opacity:1" fill="#f3e14c" d="M14.5 11.5c-.304.65-.637 1.316-1 2a375.909 375.909 0 0 1 4 22h-3v5a11.989 11.989 0 0 0 6-1c.684-3.18 2.351-5.68 5-7.5a4.932 4.932 0 0 0-3-.5 32.437 32.437 0 0 1 .5-8 20.473 20.473 0 0 0 3.5-2.5c4.246.367 8.58.533 13 .5l-2 11c-.978-.311-1.645-.978-2-2 1.044-2.268 1.211-4.6.5-7-1.796-1.267-3.63-1.267-5.5 0-1.083 2.292-1.083 4.625 0 7a48.986 48.986 0 0 0-3 9 201.451 201.451 0 0 0-12 24c.688 1.355 1.688 2.355 3 3 .167 35.335 0 70.668-.5 106a39.459 39.459 0 0 1-2.5-5 68.893 68.893 0 0 1-4-16v-140h3z"/><path style="opacity:1" fill="#e92b47" d="m62.5 117.5-1 4h-2c-2.352-2.126-2.019-4.126 1-6 1.022.355 1.689 1.022 2 2z"/><path style="opacity:1" fill="#5b490b" d="M119.5 114.5h1a38.666 38.666 0 0 0-6.5 9l-1.5-.5c1.805-2.085 2.472-4.252 2-6.5 2.014.108 3.68-.558 5-2z"/><path style="opacity:1" fill="#492d33" d="M65.5 121.5h26c.667 0 1 .333 1 1-.11.617-.444 1.117-1 1.5a18.452 18.452 0 0 1-6 .5c-13.086-.048-26.42-.048-40 0 6.438-1.65 13.105-2.65 20-3z"/><path style="opacity:1" fill="#872324" d="M110.5 120.5v3c-1.208.734-2.541 1.067-4 1v-5c1.459-.067 2.792.266 4 1z"/><path style="opacity:1" fill="#4b3621" d="M134.5 119.5c1 .333 1.667 1 2 2a21.931 21.931 0 0 0-9 4h-4c1.068-.934 2.401-1.268 4-1a41.653 41.653 0 0 0 2-6c1.967-1.184 3.634-.851 5 1z"/><path style="opacity:1" fill="#451417" d="M85.5 124.5v1c-8.85-.326-17.516.007-26 1h-12l-2-2c13.58-.048 26.914-.048 40 0z"/><path style="opacity:1" fill="#5f4812" d="M121.5 123.5c-1.617 1.089-2.45 2.756-2.5 5-.671.752-1.504 1.086-2.5 1-.667 0-1-.333-1-1 .996.086 1.829-.248 2.5-1a14.72 14.72 0 0 1 1.5-5c3.816-2.771 4.483-2.438 2 1z"/><path style="opacity:1" fill="#4d3812" d="M181.5 119.5c.48 3.185-.186 6.019-2 8.5 1.926.422 2.926 1.589 3 3.5a24.425 24.425 0 0 0-5-3 196.43 196.43 0 0 0 4-9z"/><path style="opacity:1" fill="#f42e40" d="M47.5 126.5h41v65h-41v-65z"/><path style="opacity:1" fill="#590304" d="M59.5 126.5c8.484-.993 17.15-1.326 26-1 1.599-.268 2.932.066 4 1 .33 21.84-.003 43.506-1 65v-65h-29z"/><path style="opacity:1" fill="#453529" d="M136.5 121.5c3.073 2.069 5.406 4.736 7 8l-3 2c-5.162 3.141-10.829 4.975-17 5.5l-3.5 3.5c-2.494-2.586-4.994-2.586-7.5 0 .094-2.568 1.428-4.068 4-4.5.55-1.845 1.55-3.345 3-4.5 1.009 2.837 3.009 4.17 6 4v-3c3 .333 4.333-1 4-4a18.453 18.453 0 0 0 6-.5l-3-1c.808-1.706 2.141-2.539 4-2.5v-3z"/><path style="opacity:1" fill="#df3042" d="M31.5 66.5h12v125h-4a324.876 324.876 0 0 0-1-36c-1.679-1.604-3.679-2.271-6-2a81.216 81.216 0 0 0-2.5 3 612.94 612.94 0 0 0-.5 35h-1c-.166-12.005 0-24.005.5-36 4.213-3.898 8.546-3.898 13 0l.5-2a20.625 20.625 0 0 1-2-6 47.615 47.615 0 0 0 0-18 34.302 34.302 0 0 1-11 1v-19c3.198-.536 5.865.131 8 2 .81.969 1.81 1.802 3 2.5a41.599 41.599 0 0 0-1 9.5c.774 1.211 1.607 1.211 2.5 0a625.219 625.219 0 0 0 0-50 10.253 10.253 0 0 0-1.5-4c-.548 6.375-3.882 8.541-10 6.5-.752-.67-1.086-1.504-1-2.5-1.112-2.1-1.779-4.433-2-7 1.983.343 3.317-.323 4-2z"/><path style="opacity:1" fill="#6c161b" d="M37.5 113.5a61.253 61.253 0 0 0 1 15c-2.667 1.333-5.333 1.333-8 0 2.297-4.477 2.63-9.143 1-14 1.633-2.239 3.633-2.572 6-1z"/><path style="opacity:1" fill="#690c10" d="M29.5 75.5c-.343-1.983.323-3.317 2-4 .291-1.15 1.124-1.816 2.5-2l2.5.5c2.182 7.534-.152 9.367-7 5.5z"/><path style="opacity:1" fill="#d83543" d="M31.5 71.5h4v3h-4v-3z"/><path style="opacity:1" fill="#493822" d="M174.5 124.5c-2.506 4.965-3.672 10.299-3.5 16-.2 1.82-1.034 3.153-2.5 4a41.73 41.73 0 0 0 1-9h-3v-8c1.624-.14 2.79.527 3.5 2-.266-3.401 1.234-5.067 4.5-5z"/><path style="opacity:1" fill="#432f32" d="M119.5 114.5c-1.32 1.442-2.986 2.108-5 2h-4v4c-1.208-.734-2.541-1.067-4-1v5c1.459.067 2.792-.266 4-1v3c1.291-.237 2.291.096 3 1-1.78 1.49-2.446 3.49-2 6 2.844.157 4.511-1.176 5-4 .996.086 1.829-.248 2.5-1 .05-2.244.883-3.911 2.5-5 0 1.333.667 2 2 2-.418.722-1.084 1.222-2 1.5 3.256 3.633 5.256 3.133 6-1.5a21.931 21.931 0 0 1 9-4v3c-1.859-.039-3.192.794-4 2.5l3 1a18.453 18.453 0 0 1-6 .5c.333 3-1 4.333-4 4v3c-2.991.17-4.991-1.163-6-4-1.45 1.155-2.45 2.655-3 4.5-2.572.432-3.906 1.932-4 4.5-1.915-.284-3.581.049-5 1h-3a40.445 40.445 0 0 0-2-10 106.297 106.297 0 0 0 4-20h-3a16.873 16.873 0 0 1-1 8l-1-6a561.68 561.68 0 0 0 5-42l2 40a102.505 102.505 0 0 1 2.5-8c3.013 1.422 3.18 3.089.5 5 2.326.89 4.659 1.057 7 .5.906 1.699 1.239 3.533 1 5.5z"/><path style="opacity:1" fill="#8d2121" d="M113.5 127.5c.992-.172 1.658.162 2 1 0 .667.333 1 1 1-.489 2.824-2.156 4.157-5 4-.446-2.51.22-4.51 2-6z"/><path style="opacity:1" fill="#7b1e2a" d="M123.5 125.5h4c-.744 4.633-2.744 5.133-6 1.5.916-.278 1.582-.778 2-1.5z"/><path style="opacity:1" fill="#433624" d="M168.5 144.5c-1.28 1.431-2.947 2.098-5 2-1.871-.359-3.371-1.359-4.5-3-.066-5.507-.9-10.841-2.5-16h5c.342-4.305 2.676-5.805 7-4.5a39.027 39.027 0 0 0-4.5 4.5 55.582 55.582 0 0 1-1.5 9 11.068 11.068 0 0 1 2 3.5c-1.491 3.686-.157 5.186 4 4.5z"/><path style="opacity:1" fill="#ecd749" d="M179.5 105.5c1.715 4.466 2.382 9.133 2 14a196.43 196.43 0 0 1-4 9c1.819.82 3.486 1.82 5 3a16.873 16.873 0 0 1-1 8c-1.783-1.523-2.449-3.523-2-6-1.322-.17-2.489.163-3.5 1-.416 5.079-1.916 9.745-4.5 14a400.493 400.493 0 0 0-5 3c-1.533-2.29-1.2-2.956 1-2 1.083-.865 1.249-1.865.5-3-1.616 1.301-3.116 1.301-4.5 0 2.053.098 3.72-.569 5-2 1.466-.847 2.3-2.18 2.5-4-.172-5.701.994-11.035 3.5-16 2.997-3.971 3.664-8.304 2-13v-3a8.43 8.43 0 0 1-4-.5c1.149-1.744 2.483-1.911 4-.5.765-1.112 1.765-1.779 3-2z"/><path style="opacity:1" fill="#600305" d="M77.5 135.5c-3.743-.041-3.91.626-.5 2 .827 12.84.66 25.507-.5 38a342.838 342.838 0 0 0-1-37c-1.4-.6-2.4-1.6-3-3 1.784-1.22 3.45-1.22 5 0z"/><path style="opacity:1" fill="#f3da3e" d="M140.5 131.5c1.478-.262 2.811.071 4 1a21.028 21.028 0 0 1 2 7c-2.563.588-4.896 1.588-7 3-3.797.372-7.13 1.706-10 4-3.646.962-4.813 3.295-3.5 7a14.748 14.748 0 0 0 4.5 3 28.718 28.718 0 0 1-5 1 7.47 7.47 0 0 0 3 2h2c.787 1.604 2.12 2.271 4 2a34.301 34.301 0 0 0 1 11c-1.368 1.094-2.535.76-3.5-1-.758 2.269-.591 4.436.5 6.5-1.496.507-2.663.007-3.5-1.5l-1.5 6c-.247 1.213-.914 1.88-2 2v-1c.262-1.478-.071-2.811-1-4a11.494 11.494 0 0 1-3.5 5c.019 1.607.185 3.274.5 5h-3c-.709-.904-1.709-1.237-3-1a4.934 4.934 0 0 1 .5-3c4.762-3.411 4.262-4.411-1.5-3 .412 2.473-.588 3.806-3 4v-7c3.472.537 6.305-.463 8.5-3 .242-5.667.075-11.333-.5-17 .215-1.679-.452-2.679-2-3h-1c-2.62-4.168-2.62-8.335 0-12.5a17.903 17.903 0 0 1-8-.5c1.684-.65 3.017-1.65 4-3 2.506-2.586 5.006-2.586 7.5 0l3.5-3.5c6.171-.525 11.838-2.359 17-5.5z"/><path style="opacity:1" fill="#594612" d="M143.5 129.5c1.29.558 2.123 1.558 2.5 3l1-3a36.128 36.128 0 0 1 1.5 13 64.735 64.735 0 0 1-6 9 5.576 5.576 0 0 0-1-3c3.544-1.752 4.877-4.419 4-8-1.673 1.586-3.673 2.253-6 2 2.104-1.412 4.437-2.412 7-3a21.028 21.028 0 0 0-2-7c-1.189-.929-2.522-1.262-4-1l3-2z"/><path style="opacity:1" fill="#f4e160" d="M18.5 66.5a3136.583 3136.583 0 0 1 1 112c-.31 1.238-.81 1.238-1.5 0-1.904-3.423-2.737-7.09-2.5-11a39.459 39.459 0 0 0 2.5 5c.5-35.332.667-70.665.5-106z"/><path style="opacity:1" fill="#422f34" d="M100.5 141.5h3v3h4c1.135 1.713 2.802 2.38 5 2 .239 1.967-.094 3.801-1 5.5 1.607 1.049 2.273 2.549 2 4.5h4c.111.617.444 1.117 1 1.5a26.67 26.67 0 0 0-6.5 1.5 84.902 84.902 0 0 0-.5 13c-3.338-1.83-5.004-.83-5 3a5.576 5.576 0 0 0 1 3c-1.667 1.333-3.333 1.333-5 0 1.187-1.71.854-3.21-1-4.5a84.8 84.8 0 0 0 1.5-10.5c1.666.84 1.833.34.5-1.5a62.065 62.065 0 0 0 1.5-10.5 29.898 29.898 0 0 0 6.5-2.5 2335.81 2335.81 0 0 0-11-3.5v-4z"/><path style="opacity:1" fill="#453627" d="M182.5 131.5c1.676.683 2.343 2.017 2 4h3c.262 1.478-.071 2.811-1 4a9.425 9.425 0 0 0-3 3c-1.391-1.145-2.724-1.145-4 0a11.38 11.38 0 0 0 2.5 2c.688.832.521 1.498-.5 2-1.35-1.45-3.016-2.117-5-2a10.098 10.098 0 0 1-1.5 6c-.816-1.323-1.983-1.989-3.5-2 2.584-4.255 4.084-8.921 4.5-14 1.011-.837 2.178-1.17 3.5-1-.449 2.477.217 4.477 2 6a16.873 16.873 0 0 0 1-8z"/><path style="opacity:1" fill="#800c16" d="M43.5 111.5c.961 1.765 1.295 3.765 1 6 1.679.215 2.679-.452 3-2 1.929 1.56 3.262 3.56 4 6h-7v70h-1v-80z"/><path style="opacity:1" fill="#4f3d15" d="M112.5 140.5c-.983 1.35-2.316 2.35-4 3 2.635.772 5.301.938 8 .5-2.62 4.165-2.62 8.332 0 12.5h-3c.273-1.951-.393-3.451-2-4.5.906-1.699 1.239-3.533 1-5.5-2.198.38-3.865-.287-5-2v-3c1.419-.951 3.085-1.284 5-1z"/><path style="opacity:1" fill="#9a0313" d="m57.5 134.5 2 2c-.996-.086-1.83.248-2.5 1a722.365 722.365 0 0 0-.5 38h-2c-.333-13.35 0-26.683 1-40 .684-.363 1.35-.696 2-1z"/><path style="opacity:1" fill="#5e2227" d="M62.5 135.5c.768.763 1.268 1.763 1.5 3a274.373 274.373 0 0 0 2.5 39c-4.794.597-9.127-.07-13-2h6a398.434 398.434 0 0 0 3-40z"/><path style="opacity:1" fill="#574312" d="M129.5 146.5a20.987 20.987 0 0 0-3 4.5 33.508 33.508 0 0 0 6 5.5c-1.124 1.359-2.458 2.359-4 3a7.47 7.47 0 0 1-3-2 28.718 28.718 0 0 0 5-1 14.748 14.748 0 0 1-4.5-3c-1.313-3.705-.146-6.038 3.5-7z"/><path style="opacity:1" fill="#44342e" d="M142.5 151.5c-1.961 2.298-2.961 4.965-3 8h-1a31.147 31.147 0 0 0-2 2c-1.823-1.247-3.823-1.914-6-2h-2c1.542-.641 2.876-1.641 4-3a33.508 33.508 0 0 1-6-5.5 20.987 20.987 0 0 1 3-4.5c2.87-2.294 6.203-3.628 10-4 2.327.253 4.327-.414 6-2 .877 3.581-.456 6.248-4 8a5.576 5.576 0 0 1 1 3z"/><path style="opacity:1" fill="#f9de3b" d="M150.5 108.5c-.781 7.32 1.219 13.654 6 19 1.6 5.159 2.434 10.493 2.5 16 1.129 1.641 2.629 2.641 4.5 3 1.384 1.301 2.884 1.301 4.5 0 .749 1.135.583 2.135-.5 3-2.2-.956-2.533-.29-1 2-2.559.302-4.893-.032-7-1-.709-.904-1.709-1.237-3-1 .421 5.133-.579 9.966-3 14.5.243.902.577 1.735 1 2.5-.148 3.337-1.482 6.17-4 8.5 3.437 2.601 3.771 5.601 1 9 .88 1.356 1.214 2.856 1 4.5h-4v3h-3v-15c-.709-.904-1.709-1.237-3-1-.14-1.624.527-2.79 2-3.5-1.005-1.507-2.338-2.673-4-3.5 1.283-2.551 1.616-5.051 1-7.5a127.988 127.988 0 0 1 3-8.5c.825-.886 1.825-1.219 3-1 .204-3.018.537-6.018 1-9 .29-4.436-.21-8.77-1.5-13l-1 3c-.377-1.442-1.21-2.442-2.5-3-1.594-3.264-3.927-5.931-7-8-.333-1-1-1.667-2-2v-3h4a12.93 12.93 0 0 1 .5-5c3.578-.45 5.578-2.45 6-6 1.488 1.66 3.321 2.66 5.5 3z"/><path style="opacity:1" fill="#57440a" d="M159.5 150.5c-1.635 4.008-2.969 8.342-4 13 1.437 2.077 2.104 4.41 2 7a9.82 9.82 0 0 0-3-4 11.123 11.123 0 0 1-1-2.5c2.421-4.534 3.421-9.367 3-14.5 1.291-.237 2.291.096 3 1z"/><path style="opacity:1" fill="#544738" d="M10.5 151.5h1a68.893 68.893 0 0 0 4 16c-.237 3.91.596 7.577 2.5 11 .69 1.238 1.19 1.238 1.5 0h1c.664 4.973.997 9.973 1 15-6.236-10.486-10.236-21.819-12-34 .973-2.448 1.306-5.115 1-8z"/><path style="opacity:1" fill="#a11e2a" d="M79.5 135.5a3780.97 3780.97 0 0 1 4 40.5c-.07.765-.403 1.265-1 1.5-.321-1.548-1.321-2.215-3-2v-40z"/><path style="opacity:1" fill="#3f3233" d="M181.5 119.5c.997-.03 1.664.47 2 1.5a420.01 420.01 0 0 0 3 12.5c2.693 1.77 5.693 2.437 9 2a11.187 11.187 0 0 1-1 4.5c.405.945 1.072 1.612 2 2a20.64 20.64 0 0 0-6 2c3.156 2.138 3.489 4.471 1 7 .837 1.011 1.17 2.178 1 3.5a21.127 21.127 0 0 0-9 1l7 2c.348 4.078-1.319 7.411-5 10l4 2c-3.215.948-3.548 2.281-1 4-3.119 1.194-3.452 2.694-1 4.5-3.523 3.449-5.523 7.615-6 12.5a4.934 4.934 0 0 1 3 .5c-2.647.315-3.313 1.482-2 3.5l-4 2 3 2a14.72 14.72 0 0 1-5 1.5c.457.414.791.914 1 1.5a22.202 22.202 0 0 0-5.5 8l-1-2c-1.375 2.437-1.875 5.103-1.5 8a54.912 54.912 0 0 0-7 7 122.337 122.337 0 0 1-25 13c-5.269-.286-10.603.048-16 1v3a98.432 98.432 0 0 1-14-.5c-.544-.717-1.211-1.217-2-1.5-.983-1.35-2.316-2.35-4-3l4-2c-2.667-3.333-2.667-6.667 0-10-.704-6.821-.371-13.654 1-20.5-2.351-6.31-3.185-12.81-2.5-19.5.383.556.883.889 1.5 1-.214 1.644.12 3.144 1 4.5 1.498.585 2.498.085 3-1.5h2a22.836 22.836 0 0 1 4 3v5c3.41.116 4.744-1.55 4-5h2c.802-1.452 1.302-3.118 1.5-5 .671-.752 1.504-1.086 2.5-1v1c3.434 1.418 5.101.085 5-4 3.266.067 4.766-1.599 4.5-5 .9 1.27 2.066 2.27 3.5 3-1.27.788-2.27 1.788-3 3 1.418 1.808 3.418 2.475 6 2v10a2.428 2.428 0 0 1-.5 2c-4.454 1.964-7.954 4.964-10.5 9l-2-1c-1.645-.979-2.979-2.312-4-4a31.147 31.147 0 0 1-2 2v-4c-3.651-.338-5.317 1.328-5 5h4v1c-.901.79-1.568 1.79-2 3v2h-5c-.268 1.599.066 2.932 1 4 .411 2.272 1.578 2.605 3.5 1a11.803 11.803 0 0 1 3.5 2c-2.991 3.002-2.658 5.335 1 7a4.933 4.933 0 0 0 2.5-1c.495-1.973.662-3.973.5-6h3a6.846 6.846 0 0 0-1-4 60.667 60.667 0 0 0 5.5-3 4.457 4.457 0 0 0 1.5 2l3-4 2 5a71.254 71.254 0 0 1 2-4h6v-6c1.574-.437 2.741-1.437 3.5-3 .383.556.883.889 1.5 1h3c.262-2.752.262-5.752 0-9 2.357.163 4.69-.003 7-.5a3.647 3.647 0 0 0 1-1.5c-1.018-1.352-2.351-2.352-4-3 2.667-1.333 2.667-2.667 0-4a59.815 59.815 0 0 1 9 0c-2.033-1.952-2.366-4.118-1-6.5a29.927 29.927 0 0 0-9-2c-.566-.995-1.233-1.828-2-2.5.104-2.59-.563-4.923-2-7 1.031-4.658 2.365-8.992 4-13 2.107.968 4.441 1.302 7 1a400.493 400.493 0 0 1 5-3c1.517.011 2.684.677 3.5 2a10.098 10.098 0 0 0 1.5-6c1.984-.117 3.65.55 5 2 1.021-.502 1.188-1.168.5-2a11.38 11.38 0 0 1-2.5-2c1.276-1.145 2.609-1.145 4 0a9.425 9.425 0 0 1 3-3c.929-1.189 1.262-2.522 1-4h-3c.343-1.983-.324-3.317-2-4-.074-1.911-1.074-3.078-3-3.5 1.814-2.481 2.48-5.315 2-8.5z"/><path style="opacity:1" fill="#fdfefa" d="M207.5 167.5v82h-70v-10a243.804 243.804 0 0 1 22 0 40.914 40.914 0 0 1 .5-9c1.68 1.103 3.18.77 4.5-1l-4-1 2-2c-1.307-1.365-1.307-2.698 0-4a54.912 54.912 0 0 1 7-7l12-13c1.968 1.815 4.302 2.315 7 1.5a54.628 54.628 0 0 1 2-4.5c.079 5.209.412 10.543 1 16h3a16.873 16.873 0 0 0 1 8 231.32 231.32 0 0 0 3.5-26 52.141 52.141 0 0 0 1.5 10l1-4-1-24a203.549 203.549 0 0 0 2-20h3c-.536 3.198.131 5.865 2 8z"/><path style="opacity:1" fill="#533b15" d="M92.5 122.5h2a10.51 10.51 0 0 1-2.5 3c-.5 22.331-.667 44.664-.5 67h-1c.33-22.173-.003-44.173-1-66-1.068-.934-2.401-1.268-4-1v-1a18.452 18.452 0 0 0 6-.5c.556-.383.89-.883 1-1.5z"/><path style="opacity:1" fill="#44342d" d="M117.5 156.5c1.548.321 2.215 1.321 2 3a107.274 107.274 0 0 0-2 9.5c1.664 2.264 1.997 4.597 1 7a4.934 4.934 0 0 1-3 .5 12.066 12.066 0 0 0-4-3v-1a84.902 84.902 0 0 1 .5-13 26.67 26.67 0 0 1 6.5-1.5c-.556-.383-.889-.883-1-1.5z"/><path style="opacity:1" fill="#67050d" d="M62.5 135.5a398.434 398.434 0 0 1-3 40v-39l-2-2c2.156-1.618 3.823-1.284 5 1z"/><path style="opacity:1" fill="#622e29" d="M23.5 66.5v125h8c.342.838 1.008 1.172 2 1-3.798.983-7.798 1.317-12 1a113.761 113.761 0 0 0-1-15 6519.05 6519.05 0 0 0 1.5-111c.383-.556.883-.89 1.5-1z"/><path style="opacity:1" fill="#6e0c16" d="M51.5 121.5h14c-6.895.35-13.562 1.35-20 3l2 2v65c-.817-2.469-1.317-5.135-1.5-8-.183 2.865-.683 5.531-1.5 8v-70h7z"/><path style="opacity:1" fill="#e83042" d="M59.5 136.5v39h-3c-.167-12.671 0-25.338.5-38 .67-.752 1.504-1.086 2.5-1z"/><path style="opacity:1" fill="#53222b" d="M77.5 135.5h2v40c1.679-.215 2.679.452 3 2a49.87 49.87 0 0 1-14-1c.457-.798 1.124-1.131 2-1h6c1.16-12.493 1.327-25.16.5-38-3.41-1.374-3.243-2.041.5-2z"/><path style="opacity:1" fill="#5c2d2b" d="M89.5 126.5c.997 21.827 1.33 43.827 1 66h-3v-1h1c.997-21.494 1.33-43.16 1-65z"/><path style="opacity:1" fill="#f8e664" d="M97.5 11.5h1v227c-3.213.31-6.213-.023-9-1h8c-.35-60.194-.35-120.527 0-181v-45z"/><path style="opacity:1" fill="#eed745" d="M148.5 142.5a104.618 104.618 0 0 0-1 9c-1.175-.219-2.175.114-3 1a127.988 127.988 0 0 0-3 8.5c.616 2.449.283 4.949-1 7.5 1.662.827 2.995 1.993 4 3.5-1.473.71-2.14 1.876-2 3.5 1.291-.237 2.291.096 3 1-1.77 1.954-3.103 4.287-4 7-2.582.475-4.582-.192-6-2h4v-3c.42-6.145.42-12.478 0-19 .039-3.035 1.039-5.702 3-8a64.735 64.735 0 0 0 6-9z"/><path style="opacity:1" fill="#6c1e25" d="M32.5 153.5c2.321-.271 4.321.396 6 2a324.876 324.876 0 0 1 1 36h5c.817-2.469 1.317-5.135 1.5-8 .183 2.865.683 5.531 1.5 8h40v1h-53a209.117 209.117 0 0 0 .5-35c-.383-.556-.883-.889-1.5-1a5.728 5.728 0 0 1-1-3z"/><path style="opacity:1" fill="#c12935" d="M73.5 138.5c.667 48 1.333 48 2 0a342.838 342.838 0 0 1 1 37h-4a342.838 342.838 0 0 1 1-37z"/><path style="opacity:1" fill="#ee3243" d="M73.5 138.5h2c-.667 48-1.333 48-2 0z"/><path style="opacity:1" fill="#96010f" d="M72.5 135.5c.6 1.4 1.6 2.4 3 3h-2a342.838 342.838 0 0 0-1 37h-2c-.166-12.005 0-24.005.5-36 .21-1.558.71-2.891 1.5-4z"/><path style="opacity:1" fill="#7a2014" d="M111.5 172.5v1c.172.992-.162 1.658-1 2h-4c-.004-3.83 1.662-4.83 5-3z"/><path style="opacity:1" fill="#5c4716" d="M119.5 159.5c.575 5.667.742 11.333.5 17-2.195 2.537-5.028 3.537-8.5 3l4-3a4.934 4.934 0 0 0 3-.5c.997-2.403.664-4.736-1-7 .55-3.324 1.217-6.491 2-9.5z"/><path style="opacity:1" fill="#897627" d="M138.5 159.5h1c.42 6.522.42 12.855 0 19a168.785 168.785 0 0 1-1-19z"/><path style="opacity:1" fill="#d8c54d" d="M111.5 173.5a12.066 12.066 0 0 1 4 3l-4 3c-2.342-.711-2.675-2.044-1-4 .838-.342 1.172-1.008 1-2z"/><path style="opacity:1" fill="#4a3a1c" d="M130.5 159.5c2.177.086 4.177.753 6 2a31.147 31.147 0 0 1 2-2c-.024 6.357.31 12.69 1 19v3h-4c.73-1.212 1.73-2.212 3-3-1.434-.73-2.6-1.73-3.5-3 .266 3.401-1.234 5.067-4.5 5 .101 4.085-1.566 5.418-5 4 1.086-.12 1.753-.787 2-2l1.5-6c.837 1.507 2.004 2.007 3.5 1.5-1.091-2.064-1.258-4.231-.5-6.5.965 1.76 2.132 2.094 3.5 1a34.301 34.301 0 0 1-1-11c-1.88.271-3.213-.396-4-2z"/><path style="opacity:1" fill="#7a0c14" d="M32.5 153.5a5.728 5.728 0 0 0 1 3c-1.978 11.285-2.645 22.952-2 35h-2a612.94 612.94 0 0 1 .5-35 81.216 81.216 0 0 1 2.5-3z"/><path style="opacity:1" fill="#9e101f" d="M53.5 175.5c3.873 1.93 8.206 2.597 13 2-4.47.986-9.137 1.319-14 1-.237-1.291.096-2.291 1-3z"/><path style="opacity:1" fill="#46371b" d="M157.5 170.5c.767.672 1.434 1.505 2 2.5 3.123.206 6.123.873 9 2-1.366 2.382-1.033 4.548 1 6.5a59.815 59.815 0 0 0-9 0c2.667 1.333 2.667 2.667 0 4 1.649.648 2.982 1.648 4 3a3.647 3.647 0 0 1-1 1.5c-2.31.497-4.643.663-7 .5.262 3.248.262 6.248 0 9-1.265-3.954-1.265-7.954 0-12 1.693 1.779 3.693 2.279 6 1.5-3.065-.787-4.398-2.787-4-6 .108-1.681.775-2.848 2-3.5 2.821.184 4.488-1.149 5-4a59.637 59.637 0 0 0-6-.5c-1.537-1.11-2.203-2.61-2-4.5z"/><path style="opacity:1" fill="#c4ad37" d="M145.5 176.5v6c-.617.111-1.117.444-1.5 1a838.95 838.95 0 0 0-2.5 10v-10c.897-2.713 2.23-5.046 4-7z"/><path style="opacity:1" fill="#d1bd46" d="M160.5 179.5c-1.225.652-1.892 1.819-2 3.5-.398 3.213.935 5.213 4 6-2.307.779-4.307.279-6-1.5-1.265 4.046-1.265 8.046 0 12h-3l-1.5-6c-.278.916-.778 1.582-1.5 2a9.108 9.108 0 0 0-1-5l1-1c1.024 1.353 2.357 2.02 4 2a58.74 58.74 0 0 1 3.5-14c.995.566 1.828 1.233 2.5 2z"/><path style="opacity:1" fill="#f23645" d="M33.5 156.5c.617.111 1.117.444 1.5 1 .81 11.743.644 23.409-.5 35h-1c-.992.172-1.658-.162-2-1-.645-12.048.022-23.715 2-35z"/><path style="opacity:1" fill="#561419" d="M110.5 180.5c-.605 1.526-1.771 2.526-3.5 3a4.934 4.934 0 0 0-.5 3h3c-.502 1.585-1.502 2.085-3 1.5-.88-1.356-1.214-2.856-1-4.5.901-2.227 2.567-3.227 5-3z"/><path style="opacity:1" fill="#553e09" d="M125.5 183.5c-.996-.086-1.829.248-2.5 1-.198 1.882-.698 3.548-1.5 5a29.812 29.812 0 0 1-.5-5 11.494 11.494 0 0 0 3.5-5c.929 1.189 1.262 2.522 1 4z"/><path style="opacity:1" fill="#902e1f" d="M110.5 180.5h1v6h-5a4.934 4.934 0 0 1 .5-3c1.729-.474 2.895-1.474 3.5-3z"/><path style="opacity:1" fill="#593d14" d="M118.5 189.5h-3a22.836 22.836 0 0 0-4-3c2.412-.194 3.412-1.527 3-4 5.762-1.411 6.262-.411 1.5 3a4.934 4.934 0 0 0-.5 3c1.291-.237 2.291.096 3 1z"/><path style="opacity:1" fill="#f1da40" d="M154.5 166.5a9.82 9.82 0 0 1 3 4c-.203 1.89.463 3.39 2 4.5 2.157.078 4.157.245 6 .5-.512 2.851-2.179 4.184-5 4-.672-.767-1.505-1.434-2.5-2a58.74 58.74 0 0 0-3.5 14c-1.643.02-2.976-.647-4-2l-1 1a9.108 9.108 0 0 1 1 5c-.204 2.185-.87 4.185-2 6a112.33 112.33 0 0 0-2 5c-1.299-.59-2.132-1.59-2.5-3-1.188 1.063-1.688 2.397-1.5 4a71.254 71.254 0 0 0-2 4l-2-5-3 4a4.457 4.457 0 0 1-1.5-2 60.667 60.667 0 0 1-5.5 3 6.846 6.846 0 0 1 1 4h-4a31.147 31.147 0 0 0-2-2 10.91 10.91 0 0 1 5-4.5c-3.543-.572-6.376.595-8.5 3.5-.399-.228-.565-.562-.5-1v-5c3.925.07 7.591-.597 11-2 2.546-4.036 6.046-7.036 10.5-9a2.428 2.428 0 0 0 .5-2 838.95 838.95 0 0 1 2.5-10c.383-.556.883-.889 1.5-1v9h3v-3h4c.214-1.644-.12-3.144-1-4.5 2.771-3.399 2.437-6.399-1-9 2.518-2.33 3.852-5.163 4-8.5z"/><path style="opacity:1" fill="#7a1f23" d="M115.5 189.5h4c.744 3.45-.59 5.116-4 5v-5z"/><path style="opacity:1" fill="#3b2d17" d="M47.5 192.5h44a7.468 7.468 0 0 1 3 2c-22.323 1-44.657 1.333-67 1a2033.526 2033.526 0 0 1 64-1.5 959.584 959.584 0 0 1-44-1.5z"/><path style="opacity:1" fill="#59420f" d="M153.5 199.5c-.617-.111-1.117-.444-1.5-1-.759 1.563-1.926 2.563-3.5 3 1.13-1.815 1.796-3.815 2-6 .722-.418 1.222-1.084 1.5-2l1.5 6z"/><path style="opacity:1" fill="#40332d" d="M100.5 145.5a2335.81 2335.81 0 0 1 11 3.5 29.898 29.898 0 0 1-6.5 2.5 62.065 62.065 0 0 1-1.5 10.5c1.333 1.84 1.166 2.34-.5 1.5a84.8 84.8 0 0 1-1.5 10.5c1.854 1.29 2.187 2.79 1 4.5 1.667 1.333 3.333 1.333 5 0a5.576 5.576 0 0 1-1-3h4c-1.675 1.956-1.342 3.289 1 4v1h-1c-2.433-.227-4.099.773-5 3-.617-.111-1.117-.444-1.5-1-.685 6.69.149 13.19 2.5 19.5-1.371 6.846-1.704 13.679-1 20.5-2.667 3.333-2.667 6.667 0 10l-4 2c1.684.65 3.017 1.65 4 3 .131.876-.202 1.543-1 2a9.108 9.108 0 0 0-5-1 2187.084 2187.084 0 0 0 1-93z"/><path style="opacity:1" fill="#f9e141" d="M97.5 56.5c-.35 60.473-.35 120.806 0 181h-8c-26.219-4.863-47.052-18.196-62.5-40-.692-.937-.525-1.603.5-2 22.343.333 44.677 0 67-1a7.468 7.468 0 0 0-3-2c-.167-22.336 0-44.669.5-67a10.51 10.51 0 0 0 2.5-3 108.123 108.123 0 0 0-12-16 12.988 12.988 0 0 0-1-5.5c2.473-2.633 2.473-5.133 0-7.5 1.478-.262 2.811.071 4 1a3.646 3.646 0 0 1-1 1.5 6.975 6.975 0 0 1 2.5 3.5 10.253 10.253 0 0 1 1.5-4l2 6c1.724 1.161 3.39.995 5-.5-1.41-.368-2.41-1.201-3-2.5.577-2.05 1.91-3.05 4-3a380.842 380.842 0 0 1 1-39z"/><path style="opacity:1" fill="#751f20" d="M122.5 201.5c0 .667-.333 1-1 1h-4c-.317-3.672 1.349-5.338 5-5v4z"/><path style="opacity:1" fill="#e7d44f" d="M128.5 203.5h-7v-1c.667 0 1-.333 1-1a31.147 31.147 0 0 0 2-2c1.021 1.688 2.355 3.021 4 4z"/><path style="opacity:1" fill="#50443c" d="M33.5 192.5h14a959.584 959.584 0 0 0 44 1.5c-21.504.168-42.837.668-64 1.5-1.025.397-1.192 1.063-.5 2 15.448 21.804 36.281 35.137 62.5 40 2.787.977 5.787 1.31 9 1h1a9.108 9.108 0 0 1 5 1c.798-.457 1.131-1.124 1-2 .789.283 1.456.783 2 1.5 4.655.499 9.321.666 14 .5v-3c5.397-.952 10.731-1.286 16-1-38.338 12.916-72.338 5.583-102-22a82.685 82.685 0 0 1-14-20c4.202.317 8.202-.017 12-1z"/><path style="opacity:1" fill="#7d601d" d="M121.5 203.5h7l2 1c-3.409 1.403-7.075 2.07-11 2 .432-1.21 1.099-2.21 2-3z"/><path style="opacity:1" fill="#574314" d="M148.5 201.5v6h-6c-.188-1.603.312-2.937 1.5-4 .368 1.41 1.201 2.41 2.5 3a112.33 112.33 0 0 1 2-5z"/><path style="opacity:1" fill="#982222" d="M119.5 208.5v3c-1.208.734-2.541 1.067-4 1-.934-1.068-1.268-2.401-1-4h5z"/><path style="opacity:1" fill="#60531f" d="M125.5 215.5h-3a11.803 11.803 0 0 0-3.5-2c-1.922 1.605-3.089 1.272-3.5-1 1.459.067 2.792-.266 4-1-.065.438.101.772.5 1 2.124-2.905 4.957-4.072 8.5-3.5a10.91 10.91 0 0 0-5 4.5 31.147 31.147 0 0 1 2 2z"/><path style="opacity:1" fill="#531314" d="M122.5 215.5h4a18.453 18.453 0 0 1-.5 6 4.933 4.933 0 0 1-2.5 1c-3.658-1.665-3.991-3.998-1-7z"/><path style="opacity:1" fill="#c2324a" d="M123.5 216.5c2.563 1.498 2.563 3.165 0 5-1.166-1.667-1.166-3.334 0-5z"/><path style="opacity:1" fill="#fafaf5" d="M35.5 213.5c29.662 27.583 63.662 34.916 102 22a122.337 122.337 0 0 0 25-13c-1.307 1.302-1.307 2.635 0 4l-2 2 4 1c-1.32 1.77-2.82 2.103-4.5 1a40.914 40.914 0 0 0-.5 9 243.804 243.804 0 0 0-22 0v10h-93v-10h3v-8h-3c-.667-10.667-1.333-10.667-2 0h-11a23.842 23.842 0 0 0-1-9c.59-1.299 1.59-2.132 3-2.5l-2-2c.487-1.696 1.82-3.196 4-4.5z"/></svg>