<svg xmlns="http://www.w3.org/2000/svg" height="579" width="482" xmlns:xlink="http://www.w3.org/1999/xlink"><path fill="#fff" d="M5 5h472v263.1H5z"/><path stroke-width="6" stroke="#000" fill="none" d="M477 269.76H5"/><path d="M241 574.01C53.07 555.16.01 434.31 5 269.53h472c15.72 172.68-54.77 280.44-236 304.48z"/><path d="M477 0H0v338.01c0 132.88 108.11 241 241 241s241-108.12 241-241V0h-5zm-5 10v328.01c0 127.37-103.63 231-231 231s-231-103.63-231-231V10h462z"/><g id="b" transform="translate(-8)"><path d="M401.73 424.23c.51-6.65 10.67-5 10.81-.58 1.22 6.64-2.53 3.1-2.02 10.64.11 14.45 21.53 1.18 28-3.01 6.91-5.33 26.46-19.21 12.89-27.5 0 0-6.6 1.92-10.18-.01-3.94-2.13-3.78-12.54 3.61-11.8 7.63 1.37 4.64 4.53 9.93 5.51 13.43.98 8.44-20.6 6.35-28.18-3.34-9.07-10.53-28.32-22.77-18.01-4.83 4.19-1.89 4.02-5.98 7.73-4.6 4.16-12.06-1.56-8.87-6.87 3.19-5.3 4.58-1.17 9.42-6.11 5.53-13.72-18.33-13.99-26.38-14.16-8.21.49-32.18-.45-25.75 13.65 2.1 2.11 3.45.87 6.61 5.08 4.14 5.99-3.4 12.5-8.28 8.5s-1.85-5.61-4.81-8.57c-11.65-10.48-18.48 5.71-22.71 17.5-2.46 12.65-8.4 27.97 8.1 27.51 3.92-.68 2.44-3.06 8.44-4.12 5.3-1.24 8.91 8.69 3.99 11.02-6.11 2.78-6.45-.74-13.23 1.58-10.87 7.19 8.33 22.97 14.14 27.4 7.57 5.97 28.39 16.99 29.81 4.21.39-8.42-1.89-5.61-1.12-11.41z" stroke="#000" fill="#fff"/><path stroke-linejoin="round" fill="#fcd300" fill-rule="evenodd" stroke="#000" stroke-linecap="round" stroke-width="1.5" d="M405.48 382.69c1.34-1.4 1.54-41.23 1.06-41.23-.47 0 1.43 41.79 2.49 42.44 1.11.68 43.23-10.46 43.07-10.94s-41.39 12.28-42.42 13.39c-1.08 1.17 24.16 39.15 24.64 38.83s-25.84-38.47-27.6-38.35c-1.48 0-27.25 34.14-26.93 34.62.48.32 24.92-35.13 24.33-36.55-.47-1.41-41.68-13.02-40.88-13.34 38.36 11.68 41.05 12.39 42.24 11.13z"/><circle stroke-width="1.164" cx="47" cy="44" transform="matrix(1.2964 0 0 1.2808 346.18 329.52)" stroke="#000" r="11" class="fil1 str0" fill="#fcdd09"/><path style="color:#000" d="M402.88 374.19c5.91 0 10.71 4.8 10.71 10.71s-4.8 10.7-10.71 10.7c-3.17 0-6.17-1.4-8.2-3.82" transform="translate(4.236 .974)" stroke="#000" stroke-linecap="round" stroke-width="1.5" fill="none"/><path style="color:#000" d="M406.1 374.69c5.64 1.78 8.77 7.79 6.99 13.43a10.707 10.707 0 0 1-6.99 6.99m38.81-54.54c.05 5.91-4.7 10.75-10.61 10.8-3.5.03-6.78-1.64-8.81-4.49m64.54 19.56c-5.61 1.88-11.67-1.15-13.55-6.76-1.11-3.31-.53-6.95 1.55-9.76m-52.71 71.42c3.44-4.81 10.12-5.93 14.94-2.49 2.84 2.03 4.52 5.31 4.49 8.81m34.62-10.33c-3.52-4.75-2.52-11.45 2.24-14.97 2.8-2.08 6.45-2.65 9.76-1.55" transform="matrix(.49844 .68605 -.68622 .49857 445.9 -113.49)" stroke="#000" stroke-linecap="round" stroke-width="1.769" fill="none"/><circle id="a" stroke-width="59.393" transform="matrix(.02626 0 0 .02429 404.81 383.9)" stroke="#000" class="fil1 str0" cy="44" cx="47" r="11" fill="#fcdd09"/><use xlink:href="#a" transform="translate(3.415 -.288)"/><use xlink:href="#a" transform="translate(-3.808 -7.071)"/><use xlink:href="#a" transform="translate(4.51 -6.3)"/><use xlink:href="#a" transform="translate(.288 -3.58)"/><use xlink:href="#a" transform="translate(.74 -6.83)"/><circle stroke-width="59.393" cx="47" cy="44" transform="matrix(.02626 0 0 .02429 406.62 388.01)" stroke="#000" r="11" class="fil1 str0" fill="#fcdd09"/><circle stroke-width="59.393" transform="matrix(.02626 0 0 .02429 411.15 388.01)" stroke="#000" class="fil1 str0" cy="44" cx="47" r="11" fill="#fcdd09"/><circle stroke-width="59.393" cx="47" cy="44" transform="matrix(.02626 0 0 .02429 403.91 391.14)" stroke="#000" r="11" class="fil1 str0" fill="#fcdd09"/><use xlink:href="#a" transform="translate(7.036 -.782)"/><use xlink:href="#a" transform="translate(-3.415 -2.263)"/><use xlink:href="#a" transform="translate(-7.118 -3.826)"/><use xlink:href="#a" transform="translate(3.662 -3.25)"/><use xlink:href="#a" transform="translate(-3.436 1.425)"/><use xlink:href="#a" transform="translate(7.501 -3.982)"/></g><path d="m218.09 373.48 22.706-95.659 21.136 95.659 80.864-50.491-62.28 86.605 62.28 87.819-80.864-50.27-21.136 94.235-22.706-94.235-78.043 50.27 59.63-87.82-61.04-86.604 79.453 50.49z" fill-rule="evenodd" fill="#fcdd09"/><path d="M268.998 408.539v2.122h13.751v-2.122h-13.751zM197.665 408.539v2.122h13.74v-2.122h-13.74zM255.529 381.956l1.828 1.08 7.016-11.814-1.828-1.08-7.016 11.814zM215.857 448.91l1.816 1.079 7.017-11.813-1.828-1.092-7.005 11.825zM218.151 371.026l-1.828 1.08 6.968 11.837 1.828-1.08-6.968-11.837zM256.976 436.655l-1.828 1.08 6.98 11.837 1.828-1.067-6.98-11.85z"/><use xlink:href="#b" transform="translate(-314.29)"/><path d="M90.293 214.58s2.42-2.65 4.409-5.63c3.275-4.92 2.433-10.32-8.913-57.23-6.891-28.5-14.434-54.759-16.762-58.362-6.75-9.805-16.776-16.248-24.373-24.554h60.886c-6.655 7.211-10.541 15.288-11.008 25.345-.037 3.509 4.756 26.811 10.648 51.791 5.9 24.98 11.31 48.07 12.04 51.32.77 3.46 2.23 5 3.52 3.72 3.13-3.1 41.28-84.93 52.69-113.02 1.61-3.956.89-7.008-2.75-11.717l-4.72-7.439h47.17s-6.18 7.675-10.4 11.968c-7.42 7.55-27.22 45.348-27.27 52.068-.02 1.82 1.99 6.99 4.46 11.49 2.48 4.5 10.29 19.03 17.37 32.29 7.07 13.26 13.65 24.12 14.6 24.12 1.65.02 10.43-26.82 24.1-73.67 8.01-27.44 7.87-33.91-1.02-46.396-4.02-5.641-8.82-11.87-8.82-11.87H391.24c13.72 0 24.73 3.597 29.12 8.378 11.67 12.702 3.14 42.328-19.04 55.448 57.44 8.85 34.68 81.95-3.1 81.95H296.9c-1.02 0 3.8-3.51 7.21-6.15 5.96-4.61 6.2-5.85 6.42-32.92l.43-28.94-61.45.31-6.72 21.4c-9.59 30.57-10.34 40.45-5.13 46.3H184.6l3.7-4.95c3.84-5.12 3.06-7.04-8.32-28.86-6.65-12.77-12.94-24.07-13.98-25.12-1.03-1.05-7.41 10.35-14.17 25.33-11.16 24.71-10.92 26.54-8.25 30.26l2.44 3.34zm305.38-20.97c15.73-10.12 16.5-34.55 1.42-44.88-7.41-5.09-11.16-5.68-37.54-5.89l-29.31-.24.64 57.36 30.4-1.16c20.18-.83 29.9-2.3 34.39-5.19zm-84.77-63.47.33-41.856-21.79-.176-21.78-.175-12.46 42.707zm76.59-10.84c9.76-9.74 11.59-18.69 5.16-25.223-4.57-4.65-7.98-5.202-33.41-5.407l-28.31-.228-.32 40.038 24.95-1.11c23.36-1.04 25.41-1.56 31.93-8.07zm-246.49-11.82c-6-11.89-14.22-24.118-18.67-27.781-4.37-3.599-9.71-10.895-9.71-10.895h45.21c0 .475-2.8 6.131-4.29 10.297-2.22 6.203-1.52 9.49 2.18 18.871l4.63 11.728-8.63 19.02z"/></svg>