<svg xmlns="http://www.w3.org/2000/svg" width="651.11" height="791.22" viewBox="0 0 172.273 209.344"><path style="fill:#fff;fill-opacity:1;fill-rule:evenodd;stroke:none;stroke-width:3.10444427;stroke-opacity:1" d="m177.647 11.841-.858 117.58c-1.872 49.46-38.86 88.631-83.715 88.66-44.815-.062-81.816-39.247-83.715-88.66l-.858-117.58h84.571z" transform="translate(-6.938 -10.289)"/><path transform="translate(184.36 -10.289)" style="fill:#090;stroke:#000;stroke-width:1.32291663;stroke-linecap:round;stroke-linejoin:round;stroke-miterlimit:4;stroke-dasharray:none;stroke-opacity:1;fill-opacity:1" d="M-117.698 37.89a45.726 45.726 0 0 1-2.713-4.14c-.677-1.167-1.306-2.37-2.141-3.427-.627-.794-1.363-1.497-2.142-2.142-1.278-1.057-2.68-1.97-3.855-3.14-.397-.397-.773-.826-1.253-1.116a2.074 2.074 0 0 0-.782-.29 1.417 1.417 0 0 0-.82.12c-.259.13-.466.35-.606.603-.14.253-.215.538-.25.825-.072.581.019 1.176.216 1.727a5.94 5.94 0 0 0 .847 1.53c.699.94 1.587 1.72 2.363 2.597 1.099 1.242 1.972 2.678 3.14 3.854 1.095 1.102 2.447 1.976 3.284 3.284.46.717.74 1.533 1.142 2.284.498.93 1.181 1.76 2 2.427z"/><path style="fill:#090;stroke:#000;stroke-width:1.32291663;stroke-linecap:round;stroke-linejoin:round;stroke-miterlimit:4;stroke-dasharray:none;stroke-opacity:1;fill-opacity:1" d="M-106.458 92.647a42.267 42.267 0 0 0-.755-6.945c-.787-4.067-2.18-8.026-4.228-11.627-.447-.786-.928-1.559-1.516-2.246-.59-.687-1.291-1.29-2.108-1.68-1.344-.642-2.905-.668-4.378-.453-.786.115-1.566.296-2.295.608-.73.312-1.41.76-1.933 1.355-.657.749-1.044 1.698-1.658 2.481-.308.392-.677.745-1.121.97-.445.224-.97.311-1.45.173a1.773 1.773 0 0 1-.796-.497 2.044 2.044 0 0 1-.46-.822c-.177-.608-.08-1.276.187-1.851s.695-1.063 1.177-1.475c.482-.411 1.02-.752 1.554-1.093 1.772-1.128 3.568-2.286 5.587-2.868 1.475-.426 3.086-.523 4.53 0a5.62 5.62 0 0 1 2.717 2.113 15.626 15.626 0 0 0-2.296-6.06c-.77-1.195-1.712-2.293-2.855-3.14-1.345-.997-2.938-1.625-4.573-1.981-1.636-.357-3.318-.449-4.992-.446-1.03.002-2.109.053-2.999.571-.42.245-.776.582-1.154.887-.379.305-.797.586-1.273.684-.327.067-.664.047-.998.03-.333-.02-.667-.03-1-.03h-1.428a5.521 5.521 0 0 1-.146-4.291 5.461 5.461 0 0 1 1.86-2.42c1.332-.971 3.086-1.285 4.71-.999 1.354.238 2.605.858 3.855 1.428a58.481 58.481 0 0 0 6.71 2.57c-.3-1.231-.732-2.43-1.285-3.57-.688-1.418-1.589-2.772-2.855-3.712-1.171-.869-2.588-1.336-3.997-1.713-2.79-.745-5.718-1.187-8.566-.714-2.418.402-4.699 1.456-6.71 2.856-.716.498-1.402 1.04-2.146 1.495-.744.455-1.558.824-2.423.932a4.315 4.315 0 0 1-3.141-.857 3.832 3.832 0 0 1-1.062-1.257 3.22 3.22 0 0 1-.366-1.598c.033-.797.39-1.557.894-2.175.504-.618 1.148-1.106 1.819-1.537 1.202-.773 2.507-1.38 3.855-1.856.97-.343 1.972-.62 2.998-.714 1.428-.13 2.86.1 4.283.286 1.242.162 2.49.293 3.712.57 1.34.305 2.64.787 3.854 1.428a23.111 23.111 0 0 0-5.996-5.71c-2.315-1.519-4.95-2.626-7.71-2.856-3.39-.283-6.85.805-9.565 2.856-1.801 1.36-3.272 3.11-4.997 4.568-1.833 1.55-4.032 2.79-6.424 2.998a8.39 8.39 0 0 1-5.425-1.427 38.575 38.575 0 0 1 5.282-6.14c2.155-2.027 4.567-3.819 7.281-4.996a19.34 19.34 0 0 1 8.566-1.57c-2.525-1.922-5.874-2.719-8.994-2.142-2.802.518-5.296 2.054-7.71 3.569-.909.571-1.826 1.148-2.836 1.514-1.01.367-2.132.511-3.16.2-1.057-.322-1.928-1.1-2.57-2a7.754 7.754 0 0 1-1.427-4.283c1.65.549 3.402.792 5.14.714 3.352-.15 6.537-1.469 9.85-1.998 3.225-.516 6.553-.271 9.709.57 2.956.79 5.773 2.1 8.28 3.855a15.227 15.227 0 0 0-4.997-5.14c-2.038-1.28-4.357-2.058-6.71-2.57a33.369 33.369 0 0 0-8.851-.713 3.87 3.87 0 0 1 .713-2.284 4.369 4.369 0 0 1 1.449-1.266 5.946 5.946 0 0 1 1.826-.629c1.272-.23 2.58-.115 3.864.039 2.791.333 5.647.881 7.995 2.427 2.743 1.806 4.475 4.75 6.567 7.281 1.694 2.05 3.657 3.86 5.568 5.71a161.937 161.937 0 0 1 7.71 7.996c.68-3.494.224-7.2-1.285-10.422-1.045-2.231-2.578-4.225-4.426-5.854a19.301 19.301 0 0 0-7.71-4.14 8.935 8.935 0 0 1 5.568-2.427 8.322 8.322 0 0 1 3.517.535 7.397 7.397 0 0 1 2.908 2.035c.777.9 1.312 1.987 1.698 3.111.385 1.125.627 2.293.872 3.456.605 2.876 1.236 5.77 1.285 8.709a22.155 22.155 0 0 1-.429 4.711 87.712 87.712 0 0 1 6.425 6.996c.477-.11.902-.43 1.142-.857.257-.457.297-1.012.2-1.527-.1-.515-.327-.996-.583-1.453-.256-.458-.543-.898-.773-1.37-.23-.47-.404-.98-.415-1.503-.013-.68.248-1.337.572-1.934.324-.598.716-1.16.999-1.778.63-1.378.684-2.95.58-4.461-.105-1.512-.356-3.02-.295-4.534.075-1.83.628-3.663 1.714-5.14 1.102-1.499 2.75-2.596 4.568-2.997 1.038-.23 2.146-.232 3.141.142.405.153.793.37 1.089.686.295.316.492.738.482 1.17-.008.31-.121.612-.294.869a2.611 2.611 0 0 1-.655.652c-.504.36-1.09.59-1.621.906-.86.513-1.569 1.253-2.142 2.074s-1.017 1.724-1.427 2.638a36.26 36.26 0 0 0-2 5.568c-.692 2.618-1.04 5.314-1.427 7.995-.143.994-.292 2.005-.143 2.998.116.767.412 1.506.857 2.141a910.002 910.002 0 0 0 3.426-5.996c2.182-3.852 4.344-7.733 6.996-11.279a49.55 49.55 0 0 1 4.997-5.71 10.04 10.04 0 0 1 .856 5.853c-.376 2.393-1.61 4.567-3.014 6.54-1.405 1.975-3.005 3.813-4.267 5.88-1.464 2.4-2.444 5.059-3.712 7.568-.807 1.598-1.754 3.208-1.856 4.996-.083 1.47.433 2.94 1.285 4.14.59.832 1.337 1.55 1.856 2.428.599 1.011.864 2.185 1.017 3.35.153 1.166.203 2.346.411 3.503.63 3.497 2.658 6.559 3.997 9.85 1.061 2.608 1.693 5.372 2.713 7.996a28.762 28.762 0 0 0 2.713 5.282z" transform="translate(184.36 -10.289)"/><path transform="translate(184.36 -10.289)" style="fill:#090;fill-opacity:1;stroke:#000;stroke-width:1.32291663;stroke-linecap:round;stroke-linejoin:round;stroke-miterlimit:4;stroke-dasharray:none;stroke-opacity:1" d="M-105.592 94.278a275.739 275.739 0 0 1-3.953-2.507c-.993-.641-1.99-1.293-3.086-1.735-1.248-.504-2.616-.723-3.953-.579a8.014 8.014 0 0 0-3.761 1.446c-1.337.951-2.37 2.271-3.664 3.279-1.028.8-2.202 1.388-3.279 2.121-.356.243-.703.502-1.083.707-.38.204-.8.353-1.23.354a2.005 2.005 0 0 1-1.449-.639 2.208 2.208 0 0 1-.577-1.482c-.003-.606.234-1.193.566-1.7.331-.506.755-.945 1.17-1.386 1.327-1.413 2.61-2.907 4.243-3.954 1.019-.653 2.17-1.121 3.375-1.253.895-.098 1.799-.01 2.7 0 .87.01 1.743-.055 2.603-.193a74.951 74.951 0 0 0-2.604-2.218c-1.969-1.601-4.061-3.125-6.46-3.953a12.99 12.99 0 0 0-7.425-.29c-1.684.434-3.286 1.21-4.628 2.315-.984.809-1.818 1.781-2.7 2.7-.419.435-.85.86-1.229 1.33-.379.469-.707.988-.893 1.562-.138.43-.194.88-.325 1.312-.066.215-.15.426-.27.617-.12.19-.275.361-.465.482-.241.153-.532.22-.817.202a1.592 1.592 0 0 1-.795-.286c-.468-.325-.752-.872-.843-1.435-.09-.563-.005-1.141.15-1.69.155-.548.378-1.075.569-1.612.316-.888.545-1.805.848-2.698.303-.893.686-1.771 1.273-2.51.958-1.203 2.39-1.945 3.857-2.41a16.661 16.661 0 0 1 3.375-.675 20.296 20.296 0 0 1 4.05 0 379.786 379.786 0 0 1-6.075-2.314c-2.207-.863-4.476-1.76-6.846-1.736-1.993.02-3.932.699-5.69 1.64-.56.3-1.112.631-1.57 1.072-.46.44-.823 1.001-.936 1.627-.083.461-.029.934.02 1.4.048.465.089.942-.02 1.397a2.256 2.256 0 0 1-1.35 1.543c-.648.255-1.394.195-2.036-.075-.641-.27-1.185-.739-1.628-1.275a5.37 5.37 0 0 1-.952-1.667 4.19 4.19 0 0 1-.205-1.901c.15-1.125.812-2.139 1.668-2.884.857-.745 1.898-1.246 2.96-1.648 1.467-.556 2.995-.937 4.532-1.254 1.46-.3 2.946-.544 4.436-.482.55.023 1.098.088 1.639.193a14.543 14.543 0 0 0-5.882-2.41c-2.68-.454-5.434-.146-8.1.385-2.257.45-4.55 1.09-6.364 2.507-1.12.875-2.041 2.077-2.314 3.472-.113.576-.11 1.186.096 1.735a2.47 2.47 0 0 0 1.06 1.254 3.217 3.217 0 0 1-2.313.289c-.773-.198-1.458-.692-1.927-1.337-.47-.645-.726-1.435-.773-2.23-.068-1.142.29-2.285.895-3.255.606-.969 1.451-1.773 2.383-2.435 1.676-1.19 3.652-1.944 5.69-2.218a13.413 13.413 0 0 1 3.567 0 8.875 8.875 0 0 0-3.086-2.507c-1.05-.515-2.21-.818-3.38-.835-1.171-.017-2.35.259-3.37.835-1.44.815-2.509 2.21-3.085 3.76-.232.627-.39 1.278-.605 1.91-.215.632-.496 1.255-.938 1.755-.21.238-.456.446-.734.6a2.119 2.119 0 0 1-.905.268 2.098 2.098 0 0 1-1.24-.347 2.648 2.648 0 0 1-.87-.961c-.417-.767-.484-1.68-.397-2.55.225-2.242 1.46-4.356 3.278-5.688 1.218-.893 2.666-1.44 4.147-1.736 1.772-.355 3.592-.364 5.4-.386 1.112-.013 2.234-.032 3.327.176 1.093.207 2.17.66 2.94 1.464.349.363.626.788.918 1.199.292.41.606.814 1.01 1.115.406.3.883.486 1.35.675.748.302 1.488.623 2.219.964-.258-2.807-1.773-5.475-4.05-7.136-1.46-1.064-3.183-1.712-4.918-2.217-2.223-.648-4.502-1.083-6.75-1.64-.506-.125-1.015-.258-1.48-.494-.464-.235-.887-.584-1.123-1.048a1.89 1.89 0 0 1-.193-1.061 11.766 11.766 0 0 1 7.424-1.929c1.784.145 3.546.714 5.015 1.736 1.982 1.378 3.334 3.494 4.339 5.69.498 1.089.925 2.212 1.465 3.282.54 1.07 1.204 2.096 2.103 2.888 1.41 1.243 3.269 1.81 5.014 2.508 2.1.838 4.11 1.908 5.978 3.182a46.115 46.115 0 0 0-1.446-5.593c-.323-.987-.684-1.975-1.264-2.837-.58-.862-1.403-1.597-2.4-1.888-.864-.252-1.785-.158-2.684-.12-.45.019-.901.024-1.347-.037a3.336 3.336 0 0 1-1.273-.422c-.47-.283-.84-.708-1.157-1.157-.608-.858-1.053-1.82-1.446-2.796a32.315 32.315 0 0 1-.772-2.121c1.42.368 2.834.754 4.243 1.157 1.985.568 3.962 1.17 5.882 1.928 1.838.725 3.684 1.64 4.918 3.182 1.16 1.45 1.67 3.351 1.639 5.207-.012.712-.098 1.42-.126 2.131-.028.711.004 1.435.222 2.112.285.882.872 1.64 1.551 2.27.68.63 1.455 1.147 2.21 1.684 1.688 1.199 3.294 2.512 5.014 3.664a32.706 32.706 0 0 0 7.04 3.568c-.296-1.67-.586-3.342-.869-5.015-.294-1.738-.585-3.49-1.19-5.146-.607-1.656-1.557-3.23-2.956-4.303-1.235-.948-2.75-1.458-4.05-2.315a6.45 6.45 0 0 1-1.35-1.157 5.069 5.069 0 0 1-1.06-2.025 11.685 11.685 0 0 0 4.05 1.254c.885.104 1.78.107 2.665.204.886.098 1.78.297 2.541.76 1.01.613 1.708 1.643 2.144 2.74.436 1.097.634 2.27.846 3.431.519 2.855 1.13 5.698 1.446 8.582.102.93.172 1.862.193 2.797.009.385.009.771 0 1.157a21.512 21.512 0 0 1 3.471 2.314c2.327 1.902 4.243 4.28 6.654 6.075a17.703 17.703 0 0 0 4.725 2.507l-2.122 2.121z"/><path transform="translate(184.36 -10.289)" style="fill:#090;stroke:#000;stroke-width:1.32291663;stroke-linecap:round;stroke-linejoin:round;stroke-miterlimit:4;stroke-dasharray:none;stroke-opacity:1;fill-opacity:1" d="M-100.69 91.788a40.905 40.905 0 0 1-.118-7.254c.352-4.855 1.57-9.642 1.546-14.51-.01-1.99-.24-4.018-1.07-5.826-1.139-2.48-3.305-4.338-5.59-5.828-1.094-.713-2.251-1.38-3.092-2.378-.91-1.08-1.373-2.456-1.784-3.806-.284-.932-.554-1.88-.595-2.854-.014-.354.002-.715.109-1.053.106-.339.308-.656.605-.85.217-.141.475-.212.733-.227.259-.014.518.026.768.091.5.131.97.365 1.472.493.607.155 1.242.15 1.868.183.626.034 1.268.111 1.819.412.514.28.913.738 1.21 1.243.296.505.497 1.059.692 1.61.959 2.709 1.817 5.458 2.974 8.088.465 1.058.98 2.101 1.308 3.21.374 1.268.496 2.61.357 3.925a64.299 64.299 0 0 1 1.546-6.898 14.187 14.187 0 0 1-.833-1.427c-1.106-2.179-1.63-4.604-2.022-7.016-.232-1.436-.423-2.885-.832-4.282-.153-.522-.338-1.038-.603-1.513-.266-.474-.617-.908-1.062-1.222-.465-.328-1.013-.513-1.546-.713a23.475 23.475 0 0 1-3.092-1.427 11.453 11.453 0 0 0 3.687-6.184 8.625 8.625 0 0 1 3.924 2.973c.936 1.28 1.499 2.799 1.861 4.343.363 1.544.534 3.125.755 4.695.327 2.318.764 4.62 1.309 6.898.48-1.474.838-2.987 1.07-4.52.452-2.985.423-6.019.476-9.038.028-1.61.078-3.231-.181-4.82-.26-1.59-.854-3.167-1.96-4.337-.554-.587-1.219-1.055-1.833-1.578-.614-.523-1.194-1.123-1.497-1.87-.35-.864-.296-1.853 0-2.736.35-1.044 1.014-1.953 1.427-2.973a6.66 6.66 0 0 0 .476-2.855c.887.45 1.8.848 2.735 1.19.667.244 1.346.46 1.988.765.642.304 1.252.705 1.699 1.256.52.643.793 1.459.906 2.279.114.82.078 1.652.045 2.478-.197 4.914-.316 9.83-.357 14.747a5.517 5.517 0 0 1 1.546-2.14c.313-.265.655-.494.972-.753.318-.259.617-.552.812-.912.165-.304.252-.646.28-.99a4.16 4.16 0 0 0-.06-1.033c-.116-.681-.344-1.34-.458-2.02-.213-1.282-.013-2.606.393-3.84s1.012-2.391 1.63-3.534c1.381-2.561 2.897-5.16 5.232-6.898.8-.595 1.683-1.077 2.616-1.427.485.244.901.621 1.193 1.08.291.457.456.994.472 1.536.021.716-.213 1.42-.554 2.049-.342.629-.79 1.193-1.23 1.757-1.43 1.831-2.833 3.742-3.567 5.946-.653 1.957-.76 4.094-1.665 5.946-.956 1.955-2.696 3.386-4.282 4.876-1.15 1.081-2.25 2.233-3.092 3.568-.439.696-.809 1.45-.951 2.26-.155.88-.028 1.809.357 2.616a6.661 6.661 0 0 0 1.546-1.19c.896-.927 1.5-2.09 2.14-3.21 1.268-2.218 2.772-4.379 4.876-5.828.96-.66 2.022-1.157 3.045-1.718 1.022-.561 2.024-1.202 2.783-2.087.51-.597.9-1.292 1.189-2.022.606-1.53.78-3.198 1.308-4.757.74-2.186 2.16-4.09 3.806-5.708.946-.93 1.975-1.78 3.092-2.498a16.763 16.763 0 0 1 6.778-2.497 9.413 9.413 0 0 0-5.59 3.568c-1.17 1.575-1.81 3.473-2.378 5.351-.284.942-.556 1.892-.97 2.784-.415.892-.983 1.733-1.765 2.33-.405.31-.868.556-1.19.951a1.91 1.91 0 0 0-.356 1.665 28.609 28.609 0 0 0 4.757-2.26c4.127-2.449 7.61-5.92 11.893-8.086 5.292-2.677 11.484-3.166 17.363-2.379 2.156.29 4.324.754 6.24 1.783 1.917 1.028 3.574 2.683 4.225 4.758.291.928.375 1.907.595 2.854.222.958.583 1.882 1.07 2.736a7.193 7.193 0 0 0-2.379-2.26c-1.432-.837-3.104-1.15-4.638-1.784-2.28-.942-4.23-2.582-6.54-3.448-3.232-1.212-6.822-.796-10.228-.238-.913.15-1.825.308-2.735.475 1.313.473 2.668.832 4.043 1.07 1.77.308 3.569.417 5.346.68 1.777.262 3.559.69 5.12 1.58a9.568 9.568 0 0 1 4.4 5.59 28.13 28.13 0 0 0-5.828-4.044c-4.934-2.569-10.664-3.625-16.173-2.854-2.22.31-4.41.915-6.422 1.903a17.976 17.976 0 0 0-3.925 2.616 22.024 22.024 0 0 1 9.752-2.022c2.701.067 5.4.642 7.85 1.784a17.88 17.88 0 0 1 3.329 2.022 53.81 53.81 0 0 1-4.876 1.903c-1.804.604-3.709 1.118-5.59.832-1.353-.205-2.608-.814-3.924-1.189-1.939-.552-4.056-.583-5.946.119-.656.244-1.277.571-1.917.853-.64.282-1.31.522-2.008.574-.681.051-1.362-.077-2.029-.228-.666-.151-1.332-.325-2.014-.366-.876-.054-1.758.116-2.575.437-.816.32-1.57.79-2.255 1.336-1.373 1.094-2.471 2.485-3.614 3.816a62.776 62.776 0 0 1-4.162 4.4 43.408 43.408 0 0 0 5.47-2.854c2.033-1.252 3.964-2.673 6.066-3.806 2.006-1.081 4.17-1.896 6.421-2.26 2.315-.372 4.76-.248 6.898.714 1.813.817 3.388 2.285 4.044 4.163.344.987.427 2.064.237 3.092a13.769 13.769 0 0 0-5.946-2.973c-2.77-.616-5.669-.356-8.444.238-2.017.431-4.01 1.043-5.827 2.021-2.446 1.318-4.541 3.284-7.135 4.282a10.67 10.67 0 0 1-5.352.594 595.722 595.722 0 0 0-6.065 16.769 13.253 13.253 0 0 0 3.33-1.665c2.957-2.045 4.953-5.19 7.611-7.612 1.458-1.328 3.137-2.445 5.007-3.075 1.87-.63 3.94-.75 5.815-.136a6.51 6.51 0 0 1 2.03 1.067 4.856 4.856 0 0 1 1.419 1.788c.434.965.491 2.101.119 3.092-.164.435-.407.84-.714 1.189a10.706 10.706 0 0 0-6.303-2.497c-1.96-.103-3.934.347-5.708 1.189-2.233 1.06-4.134 2.712-5.843 4.496-1.71 1.785-3.258 3.72-4.98 5.493-.92.95-1.898 1.862-2.616 2.974-.961 1.49-1.403 3.264-1.56 5.03-.158 1.767-.046 3.544.014 5.316.072 2.1.072 4.203 0 6.303zM-101.448 116.34a17.664 17.664 0 0 0-6.178-5.96c.268-.624.558-1.239.867-1.843.392-.768.823-1.536.975-2.385.132-.731.048-1.49-.164-2.202-.21-.713-.546-1.383-.92-2.025-.533-.916-1.155-1.793-1.95-2.493-1.498-1.318-3.484-1.913-5.203-2.926-1.133-.668-2.163-1.531-2.927-2.601a7.775 7.775 0 0 1-1.3-3.035 6.804 6.804 0 0 0-1.3 3.468c-.082.991.06 2.002.43 2.925s.967 1.756 1.737 2.386c.911.746 2.026 1.189 3.116 1.636 1.09.448 2.196.926 3.062 1.724.76.7 1.298 1.621 1.626 2.601a7.574 7.574 0 0 1 .325 3.36 10.368 10.368 0 0 0-2.927-1.626c-1.726-.619-3.632-.787-5.202-1.734-1.151-.693-2.038-1.763-2.71-2.926-.96-1.661-1.515-3.53-1.842-5.42-.252-1.453-.393-2.987-1.193-4.226-.48-.747-1.173-1.335-1.915-1.823-.741-.488-1.539-.884-2.312-1.32-1.622-.917-3.146-2.023-4.444-3.36-.449-.464-.872-.958-1.192-1.518a5.073 5.073 0 0 1-.65-2.818 5.71 5.71 0 0 0-2.168 2.276 4.884 4.884 0 0 0-.555 1.876c-.05.654.056 1.325.338 1.918.484 1.016 1.444 1.733 2.463 2.212 1.018.478 2.118.755 3.174 1.147 1.368.51 2.675 1.221 3.757 2.202 1.082.98 1.933 2.24 2.312 3.651.428 1.592.248 3.31.759 4.878a5.798 5.798 0 0 0 2.168 2.926 15.083 15.083 0 0 1-5.528-1.626c-1.812-.94-3.428-2.247-5.311-3.034-1.668-.698-3.51-.972-5.094-1.843-1.405-.772-2.537-1.985-3.36-3.36-1.19-1.99-1.748-4.286-2.71-6.395-1.123-2.461-2.796-4.652-4.769-6.503-.732-.687-1.51-1.332-2.377-1.84-.867-.507-1.826-.875-2.825-.978a5.6 5.6 0 0 0-3.252.65c-.229.126-.45.27-.64.447-.19.179-.351.393-.444.637-.117.31-.12.657-.036.977.085.32.255.613.47.866.583.686 1.451 1.046 2.276 1.409 1.19.523 2.37 1.109 3.36 1.95 1.502 1.278 2.477 3.065 3.251 4.878.554 1.296 1.031 2.642 1.843 3.794a7.767 7.767 0 0 0 4.986 3.143 14.73 14.73 0 0 1-7.479-2.06c-2.685-1.597-4.804-4.03-6.395-6.72-.812-1.373-1.497-2.82-2.338-4.176-.841-1.356-1.859-2.638-3.19-3.519-1.063-.704-2.296-1.13-3.555-1.334-1.259-.205-2.545-.194-3.815-.075-1.55.146-3.126.47-4.443 1.3-1.503.948-2.536 2.463-3.577 3.903-.339.468-.688.943-.864 1.494-.089.275-.131.567-.102.854.03.288.133.57.315.795.165.203.391.353.637.442.246.09.512.118.773.1.726-.052 1.382-.46 1.924-.947.542-.487 1-1.06 1.544-1.546a5.976 5.976 0 0 1 2.169-1.251 5.11 5.11 0 0 1 2.491-.158c.838.162 1.618.547 2.327 1.02.71.473 1.356 1.033 2.009 1.581 1.334 1.12 2.709 2.2 3.902 3.468.634.675 1.215 1.4 1.734 2.168a24.887 24.887 0 0 0-4.552-.217c-3.31.147-6.599.967-9.538 2.493-2.072 1.076-4.008 2.547-5.203 4.553-.53.89-.905 1.875-1.052 2.9-.147 1.025-.062 2.088.294 3.06.386 1.059 1.103 2.006 2.059 2.602.29.181.603.33.935.414.331.084.683.1 1.016.02.388-.094.745-.325.975-.65.268-.38.353-.861.35-1.325-.005-.464-.09-.923-.133-1.385-.181-1.991.495-4.052 1.843-5.528 1.357-1.487 3.28-2.325 5.202-2.926 2.545-.796 5.182-1.248 7.804-1.735.397-.073.794-.148 1.192-.216.469-.081.938-.153 1.41-.217.23.403.524.77.866 1.084.873.8 2.068 1.239 3.252 1.192a16.849 16.849 0 0 0-4.77 1.517c-2.438 1.2-4.566 2.99-6.285 5.094-.992 1.214-1.872 2.58-2.168 4.12-.373 1.935.215 3.925.975 5.744.541 1.294 1.189 2.572 2.168 3.576.246.253.514.488.825.654.31.165.668.258 1.018.213.407-.052.778-.291 1.036-.612.257-.32.408-.717.481-1.122.2-1.108-.156-2.235-.217-3.36-.068-1.255.236-2.507.7-3.675.464-1.168 1.086-2.265 1.685-3.37.535-.987 1.056-1.987 1.723-2.89.667-.904 1.493-1.715 2.504-2.204 1.165-.564 2.499-.668 3.793-.65 2.681.036 5.34.548 7.912 1.3a43.07 43.07 0 0 1 6.287 2.385 26.188 26.188 0 0 0-5.42 1.084c-1.284.402-2.546.907-3.685 1.625-1.461.923-2.688 2.174-4.118 3.144-.634.43-1.306.802-1.925 1.253-.618.451-1.19.993-1.544 1.673-.338.653-.457 1.4-.467 2.135-.01.736.082 1.468.142 2.2.062.745.09 1.496.243 2.228.152.731.439 1.454.95 2 .55.588 1.365.936 2.167.867.653-.057 1.264-.38 1.75-.819.487-.44.86-.992 1.177-1.566 1.213-2.194 1.673-4.716 2.6-7.045.633-1.587 1.53-3.137 2.927-4.119 1.081-.759 2.388-1.127 3.687-1.365 1.3-.238 2.622-.36 3.9-.694 1.019-.265 2.003-.663 3.035-.867 1.46-.289 2.977-.18 4.43.137 1.455.317 2.855.839 4.241 1.38 1.162.455 2.319.924 3.468 1.41-1.92.065-3.829.432-5.636 1.083-2.793 1.006-5.365 2.725-7.153 5.094-1.352 1.792-2.227 3.905-2.818 6.07-.142.521-.27 1.048-.463 1.553-.193.504-.457.99-.838 1.373a2.852 2.852 0 0 1-2.27.814 2.852 2.852 0 0 1-2.065-1.247 6.642 6.642 0 0 0 2.511 2.512 6.642 6.642 0 0 0 3.45.848c1.13-.036 2.244-.365 3.239-.902.995-.537 1.873-1.278 2.614-2.133 1.87-2.159 2.815-4.952 4.335-7.37.704-1.12 1.54-2.167 2.556-3.015 1.015-.847 2.218-1.49 3.514-1.754 1.98-.402 4.102.125 5.744 1.3 1.423 1.018 2.474 2.464 3.469 3.902.815 1.179 1.61 2.372 2.384 3.577z"/><path transform="translate(184.36 -10.289)" style="fill:#090;stroke:#000;stroke-width:1.32291663;stroke-linecap:round;stroke-linejoin:round;stroke-miterlimit:4;stroke-dasharray:none;stroke-opacity:1;fill-opacity:1" d="M-98.03 90.79c1.17-1.86 2.3-3.745 3.39-5.652 1.225-2.142 2.405-4.322 3.25-6.64 1.135-3.113 1.65-6.435 1.695-9.748.032-2.334-.151-4.751.706-6.922.177-.448.399-.882.7-1.257.302-.375.688-.69 1.137-.863a2.395 2.395 0 0 1 1.978.142c.489.266.879.698 1.135 1.192.257.494.384 1.05.415 1.605.061 1.113-.253 2.207-.561 3.278-1.01 3.507-1.992 7.027-3.25 10.454-.69 1.882-1.464 3.737-2.401 5.51a33.045 33.045 0 0 1-2.26 3.673c2.47-2.53 4.829-5.17 7.063-7.912 1.12-1.373 2.214-2.778 3.512-3.985 1.297-1.207 2.823-2.22 4.54-2.655 1.033-.26 2.121-.31 3.109-.706 1.13-.452 2.046-1.33 2.753-2.32.707-.991 1.227-2.1 1.768-3.19 1.445-2.91 3.07-5.728 4.803-8.476.72-1.143 1.464-2.278 2.354-3.294.89-1.016 1.938-1.915 3.156-2.498 1.908-.914 4.12-1 6.216-.707 1.655.232 3.314.708 4.662 1.695.578.423 1.1.95 1.398 1.6.15.325.24.68.249 1.037.008.358-.067.72-.234 1.037-.2.379-.525.684-.899.894-.374.21-.795.326-1.22.377-.853.103-1.717-.05-2.543-.282-.534-.151-1.059-.335-1.6-.461-.54-.126-1.102-.193-1.65-.105-.63.103-1.215.408-1.724.795-.509.387-.95.855-1.384 1.325-1.97 2.13-3.86 4.333-5.792 6.498a224.578 224.578 0 0 1-2.825 3.108 36.957 36.957 0 0 1 6.78-2.543c2.497-.665 5.07-1.07 7.488-1.978.791-.296 1.567-.648 2.26-1.13.632-.438 1.186-.979 1.696-1.554 1.887-2.126 3.171-4.703 4.521-7.205.612-1.135 1.246-2.266 2.039-3.284.792-1.018 1.755-1.924 2.906-2.508 1.763-.895 3.815-.969 5.792-.989.855-.009 1.721-.01 2.551.198.83.207 1.633.646 2.111 1.356.261.388.415.839.512 1.296.096.457.139.924.194 1.388.035.287.075.575.068.864-.007.289-.063.582-.209.832-.169.29-.451.504-.765.623a2.197 2.197 0 0 1-.992.111c-.667-.066-1.286-.361-1.916-.593-1.44-.53-3.02-.74-4.52-.424-2.045.43-3.761 1.774-5.37 3.108-1.08.896-2.16 1.819-2.966 2.967a8.328 8.328 0 0 0-1.413 3.532c.433-.167.858-.355 1.272-.565 1.224-.622 2.346-1.426 3.531-2.12 3.451-2.018 7.446-3.075 11.444-3.108 1.453-.011 2.914.11 4.32.48 1.404.37 2.754.996 3.874 1.922.866.717 1.59 1.616 2.052 2.641.461 1.026.654 2.18.49 3.293-.13.89-.497 1.761-1.13 2.401a2.67 2.67 0 0 1-.64.489 1.806 1.806 0 0 1-.772.218c-.345.013-.687-.09-.993-.25a4.728 4.728 0 0 1-.844-.598c-1.07-.903-2.008-1.951-3.03-2.91-1.021-.957-2.152-1.839-3.468-2.317-1.921-.698-4.034-.474-6.075-.565-1.653-.074-3.33-.357-4.945 0a6.383 6.383 0 0 0-2.26.989 50.27 50.27 0 0 0 5.086 1.695c2.057.566 4.173 1.009 6.074 1.978.971.495 1.881 1.128 2.612 1.936.732.808 1.28 1.797 1.485 2.867.244 1.274-.032 2.665-.847 3.673a3.997 3.997 0 0 1-1.837 1.272 48.434 48.434 0 0 0-5.227-5.227c-1.553-1.332-3.21-2.577-5.086-3.39-2.21-.96-4.654-1.286-7.064-1.272a26.582 26.582 0 0 0-12.29 3.108 11.827 11.827 0 0 1 4.238.282c1.173.297 2.315.784 3.249 1.554.623.514 1.142 1.143 1.763 1.66.31.258.646.489 1.015.651.37.162.775.255 1.178.232.457-.025.893-.196 1.305-.396.411-.2.809-.432 1.238-.593a4.097 4.097 0 0 1 2.401-.141 4.872 4.872 0 0 1-1.554 3.25c-.686.628-1.55 1.048-2.453 1.268-.904.22-1.85.246-2.774.144-1.325-.146-2.615-.55-3.814-1.13-2.227-1.077-4.128-2.744-6.358-3.815a13.525 13.525 0 0 0-3.532-1.13c-1.598-.277-3.275-.26-4.803.283a7.33 7.33 0 0 0-2.967 1.978c1.418.256 2.83.54 4.238.847 1.823.4 3.644.844 5.369 1.554 1.27.524 2.49 1.19 3.814 1.554a8.856 8.856 0 0 0 4.662 0 4.53 4.53 0 0 1-1.412 3.815c-.757.693-1.748 1.11-2.767 1.236-1.019.125-2.063-.033-3.026-.389-2.336-.861-4.095-2.793-6.216-4.097a13.292 13.292 0 0 0-5.227-1.836c-2.102-.274-4.294-.045-6.216.848-2.108.979-3.778 2.684-5.369 4.38a202.45 202.45 0 0 0-4.238 4.661 24.884 24.884 0 0 1 6.64-4.238c2.311-1.001 4.857-1.653 7.346-1.272 1.352.208 2.665.724 3.751 1.554.455.348.872.752 1.19 1.228.317.476.532 1.027.57 1.598.035.55-.1 1.113-.4 1.575-.3.462-.766.819-1.296.968a2.611 2.611 0 0 1-1.184.034 4.347 4.347 0 0 1-1.124-.397c-.714-.355-1.357-.838-2.072-1.191-1.152-.57-2.462-.784-3.746-.721-1.284.062-2.545.392-3.741.862-2.065.811-3.94 2.03-5.793 3.25a655.58 655.58 0 0 0-6.357 4.238z"/><path style="fill:#090;stroke:#000;stroke-width:1.32291663;stroke-linecap:round;stroke-linejoin:round;stroke-miterlimit:4;stroke-dasharray:none;stroke-opacity:1;fill-opacity:1" d="M152.048 69.542c-.92.046-1.825.4-2.52 1.007-.721.63-1.197 1.488-1.777 2.251-.833 1.097-1.898 2.019-2.607 3.2-.73 1.217-1.038 2.635-1.304 4.03-.282 1.479-.534 2.975-1.066 4.384a11.59 11.59 0 0 1-1.74 3.069c-1.043.28-2.064.64-3.047 1.086-1.846.837-3.58 1.993-4.855 3.57-.64.792-1.158 1.683-1.855 2.426-1.338 1.428-3.214 2.196-4.998 2.999-3.074 1.383-6.04 2.984-8.975 4.645a17.47 17.47 0 0 0 .464-3.1c.03-.497.037-.998.125-1.488.089-.49.263-.977.586-1.356.396-.463.974-.724 1.54-.948 1.655-.654 3.443-1.154 4.741-2.37.733-.687 1.264-1.566 1.66-2.489.526-1.229.826-2.544 1.303-3.792a14.14 14.14 0 0 1 2.37-4.03 10.51 10.51 0 0 0-1.896.474c-2.62.922-4.753 2.827-6.873 4.622-1.224 1.036-2.47 2.053-3.57 3.22-1.099 1.167-2.054 2.499-2.593 4.01-.714 2.003-.657 4.193-1.066 6.28a14.206 14.206 0 0 1-1.166 3.473 259.549 259.549 0 0 1-4.781 2.7 150.818 150.818 0 0 1-3.766 1.99c-.005-.59.031-1.18.113-1.763.133-.946.384-1.882.83-2.726.724-1.37 1.94-2.462 2.489-3.91.456-1.206.404-2.542.71-3.793.378-1.54 1.282-2.895 2.253-4.148 1.118-1.444 2.347-2.8 3.436-4.266a28.11 28.11 0 0 0 1.067-1.54 7.457 7.457 0 0 0-4.74.829c-1.392.769-2.504 1.97-3.394 3.288-.89 1.318-1.577 2.76-2.295 4.178-1.203 2.377-2.515 4.744-3.081 7.347-.38 1.75-.411 3.553-.593 5.333-.102 1-.253 1.993-.45 2.978-1.7.812-3.414 1.594-5.143 2.342l.856 4.426a306.032 306.032 0 0 1 8.237-5.295c1.562.229 3.096.643 4.559 1.238 2.287.93 4.4 2.3 6.162 4.029.503.493.979 1.017 1.362 1.608.382.59.67 1.25.771 1.947.13.898-.052 1.807-.13 2.711-.039.452-.051.91.014 1.358.066.45.213.892.472 1.264.23.331.558.608.948.711.385.103.802.03 1.164-.137.362-.167.676-.422.97-.693.56-.517 1.06-1.106 1.421-1.777.481-.894.701-1.915.714-2.93.013-1.015-.176-2.026-.476-2.995-.592-1.912-1.647-3.716-3.2-4.978-1.13-.918-2.488-1.525-3.887-1.928-1.4-.404-2.846-.61-4.29-.797a163.96 163.96 0 0 0-3.628-.428 195.578 195.578 0 0 1 4.527-2.632c1.236.127 2.482.161 3.722.097 1.701-.089 3.393-.357 5.096-.356 2.626.002 5.284.673 7.466 2.133 1.667 1.115 3.052 2.716 3.674 4.622a7.1 7.1 0 0 1 .356 2.252c-.002.264-.02.53.003.792.022.264.086.53.234.749.183.272.484.45.8.536.317.085.65.085.977.056.72-.064 1.44-.275 2.015-.711.404-.307.723-.716.955-1.167.232-.45.378-.941.467-1.44a6.976 6.976 0 0 0-.118-2.963c-.303-1.172-.903-2.254-1.66-3.2-1.57-1.962-3.831-3.347-6.28-3.91-1.856-.428-3.784-.396-5.689-.356-2.308.048-4.617.103-6.926.116a130.284 130.284 0 0 1 7.325-3.516c3.771-1.66 7.63-3.122 11.555-4.377.203.061.407.124.608.192.86.294 1.692.701 2.37 1.304.528.47.952 1.047 1.304 1.659 1.293 2.247 1.628 4.903 2.489 7.348.236.672.513 1.33.71 2.014.115.396.202.8.338 1.189.135.389.323.767.61 1.063.256.262.583.45.931.565.349.113.718.154 1.085.146.96-.022 1.919-.395 2.607-1.067.594-.58.97-1.356 1.19-2.157.219-.802.29-1.635.35-2.464.135-1.875.203-3.817-.474-5.57-.464-1.202-1.263-2.257-2.22-3.12a12.587 12.587 0 0 0-3.231-2.095c-2.131-.963-4.418-1.806-6.755-1.896-1.218-.046-3.586.717-3.586.717a2.723 2.723 0 0 1-.03-.733 3.23 3.23 0 0 1 .428-1.285c.336-.584.82-1.076 1.365-1.471.546-.396 1.153-.699 1.776-.956 1.724-.712 3.572-1.078 5.425-1.285 3.604-.402 7.338-.195 10.708 1.142 2.328.925 4.416 2.358 6.425 3.855 1.77 1.319 3.546 2.756 4.569 4.712.144.276.273.562.448.82.176.257.405.489.694.607.227.093.482.111.725.077.244-.034.479-.117.703-.22.718-.327 1.351-.868 1.713-1.57.377-.732.438-1.598.295-2.409-.144-.81-.48-1.575-.866-2.302-1.073-2.02-2.59-3.85-4.57-4.997-2.475-1.436-5.434-1.693-8.28-2-2-.215-4.008-.468-6.015-.607a11.145 11.145 0 0 1 2.057-1.694c1.526-.973 3.261-1.558 4.977-2.133 2.199-.738 4.437-1.483 6.755-1.54 1.49-.038 3.031.233 4.266 1.066.439.296.83.656 1.243.985.414.33.86.634 1.365.793.385.12.799.153 1.194.076a2.064 2.064 0 0 0 1.058-.55c.4-.399.605-.963.653-1.525.049-.562-.047-1.127-.18-1.676-.216-.898-.535-1.778-1.019-2.566-.484-.787-1.14-1.48-1.943-1.937-.74-.42-1.59-.628-2.439-.681-.85-.054-1.703.044-2.539.207-3.332.651-6.364 2.318-9.362 3.911-3.257 1.732-6.617 3.457-9.125 6.163a15.67 15.67 0 0 0-.869 1.021c-.547.022-1.095.059-1.641.117-.196.02-.39.047-.585.073.078-.17.16-.337.25-.5.493-.889 1.163-1.669 1.897-2.37 1.153-1.103 2.484-2.04 3.437-3.319.568-.763.994-1.658 1.066-2.607.06-.781-.121-1.558-.211-2.337a5.28 5.28 0 0 1-.024-1.173c.042-.39.151-.776.354-1.112.299-.495.778-.848 1.233-1.204.455-.357.913-.751 1.137-1.285a1.86 1.86 0 0 0 0-1.422 4.01 4.01 0 0 0-.917-.058z" transform="translate(-6.938 -10.289)"/><path style="fill:#090;fill-opacity:1;stroke:#000;stroke-width:7.99999952;stroke-linecap:round;stroke-linejoin:round;stroke-miterlimit:4;stroke-dasharray:none;stroke-opacity:1;paint-order:markers fill stroke" d="M325.555 596.877a380.712 200.047 0 0 0-251.807 50.338c58.033 83.928 149.527 138 251.807 138.139 102.42-.064 193.972-54.138 251.978-138.147a380.712 200.047 0 0 0-251.978-50.33z" transform="scale(.26458)"/><path style="fill:none;fill-rule:evenodd;stroke:#000;stroke-width:3.10444427;stroke-opacity:1" d="m177.647 11.841-.858 117.58c-1.872 49.46-38.86 88.631-83.715 88.66-44.815-.062-81.816-39.247-83.715-88.66l-.858-117.58h84.571z" transform="translate(-6.938 -10.289)"/><path transform="translate(184.36 -10.289)" style="fill:#841;stroke:#000;stroke-width:1.32291663;stroke-linecap:butt;stroke-linejoin:round;stroke-miterlimit:4;stroke-dasharray:none;stroke-opacity:1;fill-opacity:1" d="m-93.413 155.561-11.65-4.66a396.194 396.194 0 0 1 .333-23.298 3.214 3.214 0 0 1-2.496.332 3.221 3.221 0 0 1-1.704-1.183 3.264 3.264 0 0 1-.626-1.978c.014-.74.298-1.485.832-1.997.45-.433 1.044-.68 1.63-.894.585-.214 1.189-.411 1.699-.77.797-.563 1.292-1.476 1.537-2.42.246-.945.269-1.93.293-2.906.04-1.553.089-3.109 0-4.66-.254-4.462-1.633-8.78-3.162-12.98-.678-1.865-1.39-3.724-1.83-5.659-.201-.883-.344-1.802-.18-2.692a3.32 3.32 0 0 1 .497-1.255 2.49 2.49 0 0 1 1.014-.879c.615-.28 1.325-.263 1.993-.16.669.105 1.326.29 2.001.326a4.554 4.554 0 0 0 1.498-.166c.673-.192 1.292-.54 1.96-.752.333-.106.68-.178 1.03-.176.35.003.704.082 1.004.262.195.117.362.273.546.407.183.133.392.247.619.26.165.008.33-.038.477-.112.148-.075.28-.177.404-.286.249-.218.48-.47.783-.601.229-.1.486-.123.732-.09.247.034.484.122.704.238.441.232.815.57 1.227.85.472.322.995.568 1.445.92.225.175.432.377.592.615.159.237.269.51.293.795.023.279-.037.56-.15.817a2.711 2.711 0 0 1-.46.696c-.37.42-.827.753-1.22 1.15a5.38 5.38 0 0 0-1.499 2.995c.412.31.755.711.999 1.165.554 1.03.57 2.272.368 3.424-.204 1.152-.61 2.258-.867 3.4-.526 2.34-.41 4.77-.666 7.155a22.957 22.957 0 0 1-.999 4.66c.876.285 1.716.677 2.497 1.165.525.329 1.034.712 1.378 1.227.172.258.3.548.355.852.056.305.038.626-.07.917a1.938 1.938 0 0 1-.488.714c-.21.202-.453.366-.703.514-.501.297-1.044.54-1.47.935-.647.599-.953 1.475-1.166 2.33-1.075 4.332-.323 8.876.167 13.313.663 6.02.83 12.093.499 18.14z"/><path style="fill:#000;stroke:none;stroke-width:.26499999;stroke-linecap:round;stroke-linejoin:round;stroke-miterlimit:4;stroke-dasharray:none;stroke-opacity:1" d="M94.858 93.94a33.77 33.77 0 0 0-.051 2.887c.044 1.753.224 3.503.206 5.256-.029 2.847-.578 5.66-1.134 8.452l-.618 3.092a27.203 27.203 0 0 0 1.236-3.195 28.142 28.142 0 0 0 1.186-5.927 30.37 30.37 0 0 0 .052-4.793 34.646 34.646 0 0 0-.361-3.143 38.177 38.177 0 0 0-.516-2.628zm-2.105 1.1a26.356 26.356 0 0 0-.038 2.188c.032 1.33.165 2.656.152 3.986-.021 2.159-.426 4.292-.835 6.409-.151.782-.303 1.564-.456 2.345.353-.787.658-1.597.912-2.423.448-1.46.738-2.97.873-4.494a23.7 23.7 0 0 0 .038-3.634 27.014 27.014 0 0 0-.266-2.384 29.71 29.71 0 0 0-.38-1.993zm-1.374 1.048c-.027.496-.036.993-.025 1.49.021.905.107 1.808.098 2.713-.014 1.47-.273 2.921-.536 4.363l-.292 1.595c.226-.535.422-1.086.585-1.649.288-.993.473-2.021.56-3.059.069-.822.075-1.65.024-2.474a19.463 19.463 0 0 0-.17-1.622 21.325 21.325 0 0 0-.244-1.357zm3.208 23.222a10.434 10.434 0 0 1-1.53 2.462 10.456 10.456 0 0 1-3.658 2.794 5.283 5.283 0 0 0 3.792-1.663 5.275 5.275 0 0 0 1.396-3.593zm-.098 4.991a8.562 8.562 0 0 1-4.257 4.313 4.336 4.336 0 0 0 3.111-1.365 4.328 4.328 0 0 0 1.146-2.948zm.26 5.448a10.434 10.434 0 0 1-1.531 2.462 10.455 10.455 0 0 1-3.659 2.793 5.282 5.282 0 0 0 3.792-1.663 5.275 5.275 0 0 0 1.397-3.592zm.332 4.13a8.56 8.56 0 0 1-1.255 2.02 8.58 8.58 0 0 1-3.003 2.293 4.335 4.335 0 0 0 3.112-1.365 4.33 4.33 0 0 0 1.146-2.948zm.209 3.802a6.554 6.554 0 0 1-3.26 3.302 3.321 3.321 0 0 0 2.382-1.045c.563-.605.884-1.43.878-2.257zm.1 3.232a4.952 4.952 0 0 1-2.462 2.495 2.505 2.505 0 0 0 1.8-.79c.425-.457.667-1.08.662-1.705z" transform="translate(-6.938 -10.289)"/><path d="M-61.854 180.53a30.53 30.53 0 0 1 12.31 4.924" style="fill:none;stroke:#000;stroke-width:.79374999;stroke-linecap:round;stroke-linejoin:miter;stroke-miterlimit:4;stroke-dasharray:none;stroke-opacity:1" transform="translate(184.36 -10.289)"/><path d="M-61.854 180.53a30.53 30.53 0 0 1 12.31 4.924" style="fill:none;stroke:#000;stroke-width:.79374999;stroke-linecap:round;stroke-linejoin:miter;stroke-miterlimit:4;stroke-dasharray:none;stroke-opacity:1" transform="rotate(5.525 150.244 2142.634)"/><path d="M-61.854 180.53a30.53 30.53 0 0 1 12.31 4.924" style="fill:none;stroke:#000;stroke-width:.79374999;stroke-linecap:round;stroke-linejoin:miter;stroke-miterlimit:4;stroke-dasharray:none;stroke-opacity:1" transform="rotate(5.525 168.995 2188.355)"/><path d="M-61.854 180.53a30.53 30.53 0 0 1 12.31 4.924" style="fill:none;stroke:#000;stroke-width:.79374999;stroke-linecap:round;stroke-linejoin:miter;stroke-miterlimit:4;stroke-dasharray:none;stroke-opacity:1" transform="rotate(-1.575 -242.618 -6361.617)"/><path d="M-61.854 180.53a30.53 30.53 0 0 1 12.31 4.924" style="fill:none;stroke:#000;stroke-width:.79374999;stroke-linecap:round;stroke-linejoin:miter;stroke-miterlimit:4;stroke-dasharray:none;stroke-opacity:1" transform="rotate(-6.615 -26.09 -1309.566)"/><path d="M-61.854 180.53a30.53 30.53 0 0 1 12.31 4.924" style="fill:none;stroke:#000;stroke-width:.79374999;stroke-linecap:round;stroke-linejoin:miter;stroke-miterlimit:4;stroke-dasharray:none;stroke-opacity:1" transform="scale(-1 1) rotate(-5.879 -200.464 13.52)"/><path d="M-61.854 180.53a30.53 30.53 0 0 1 12.31 4.924" style="fill:none;stroke:#000;stroke-width:.79374999;stroke-linecap:round;stroke-linejoin:miter;stroke-miterlimit:4;stroke-dasharray:none;stroke-opacity:1" transform="scale(-1 1) rotate(-5.879 -167.905 26.377)"/><path d="M-61.854 180.53a30.53 30.53 0 0 1 12.31 4.924" style="fill:none;stroke:#000;stroke-width:1.03341913;stroke-linecap:round;stroke-linejoin:miter;stroke-miterlimit:4;stroke-dasharray:none;stroke-opacity:1" transform="matrix(-.78012 -.07706 -.08033 .7483 15.188 32.942)"/><path transform="translate(184.36 -10.289)" style="fill:#090;stroke:#000;stroke-width:1.32291663;stroke-linecap:round;stroke-linejoin:round;stroke-miterlimit:4;stroke-dasharray:none;stroke-opacity:1;fill-opacity:1" d="M-74.27 158.147c1.75.047 3.504-.099 5.22-.435.819-.16 1.63-.363 2.457-.462.828-.098 1.682-.088 2.474.172 1.162.38 2.088 1.26 2.9 2.175 1.412 1.59 2.635 3.386 4.35 4.64.641.468 1.344.856 1.922 1.398.29.272.546.582.725.935.18.354.28.752.254 1.148a2.047 2.047 0 0 1-.36 1.014c-.206.299-.485.545-.8.726-.43.247-.922.37-1.415.423-.493.051-.99.033-1.485.012-2.52-.109-5.035-.302-7.54-.58z"/><path transform="translate(184.36 -10.289)" style="fill:#090;fill-opacity:1;stroke:#000;stroke-width:1.32291663;stroke-linecap:round;stroke-linejoin:round;stroke-miterlimit:4;stroke-dasharray:none;stroke-opacity:1" d="M-123.513 161.176a6 6 0 0 0-3.635 1.579c-.848.789-1.448 1.81-1.914 2.87-.57 1.297-.956 2.675-1.626 3.922-.311.58-.681 1.126-.957 1.723-.093.201-.176.408-.285.601-.11.193-.249.375-.433.499a1.387 1.387 0 0 1-.578.206c-.204.03-.411.03-.618.033-.884.012-1.773.073-2.63.287a6.85 6.85 0 0 0-2.87 1.483c-.687.606-1.231 1.354-1.819 2.057-.126.151-.257.304-.33.488a.701.701 0 0 0-.052.289.5.5 0 0 0 .095.275.518.518 0 0 0 .283.182c.11.029.227.028.34.01.205-.033.4-.12.58-.225.18-.106.347-.231.52-.35a6.891 6.891 0 0 1 3.349-1.196 5.953 5.953 0 0 0-1.627 1.58 7.203 7.203 0 0 0-.814 1.578c-.078.209-.15.424-.152.647a.88.88 0 0 0 .056.328c.04.104.105.199.192.269.1.08.224.124.35.136a.933.933 0 0 0 .376-.048c.242-.08.451-.232.661-.375.492-.335 1.016-.632 1.435-1.053.328-.328.586-.727.957-1.004.213-.16.459-.274.718-.335a5.14 5.14 0 0 0 0 1.004c.042.43.147.872.43 1.196.149.17.34.3.546.393.206.092.427.147.65.181.59.09 1.2.034 1.77-.143.501-.156.973-.403 1.483-.526.64-.155 1.315-.11 1.961-.24.125-.025.25-.057.366-.109a.823.823 0 0 0 .304-.225.814.814 0 0 0 .165-.521 1.546 1.546 0 0 0-.12-.541c-.136-.346-.341-.674-.38-1.043-.031-.3.051-.602.184-.872s.314-.513.493-.755c.402-.544.798-1.093 1.148-1.673.335-.556.625-1.138.954-1.697.295-.501.62-.984.953-1.461.803-1.154 1.656-2.291 2.2-3.588.234-.558.41-1.145.474-1.747a4.086 4.086 0 0 0-.187-1.793 3.488 3.488 0 0 0-1.145-1.584 3.488 3.488 0 0 0-1.82-.712z"/><path transform="translate(184.36 -10.289)" style="fill:none;stroke:#000;stroke-width:1.32291663;stroke-linecap:round;stroke-linejoin:miter;stroke-miterlimit:4;stroke-dasharray:none;stroke-opacity:1" d="M-136.094 175.91a8.47 8.47 0 0 0 3.345-1.803"/><path transform="translate(184.36 -10.289)" style="fill:none;stroke:#000;stroke-width:1.32291663;stroke-linecap:round;stroke-linejoin:round;stroke-miterlimit:4;stroke-dasharray:none;stroke-opacity:1" d="M-133.941 177.632a9.803 9.803 0 0 0 3.013-1.722"/><path transform="translate(184.36 -10.289)" style="fill:none;stroke:#000;stroke-width:1.32291663;stroke-linecap:round;stroke-linejoin:miter;stroke-miterlimit:4;stroke-dasharray:none;stroke-opacity:1" d="M-124.135 168.352c.054.312-.003.642-.158.918a1.403 1.403 0 0 1-.703.612c-.223.088-.465.117-.7.17-.234.052-.472.136-.64.309-.114.118-.187.27-.253.421-.066.151-.127.306-.225.44a.984.984 0 0 1-.568.375.984.984 0 0 1-.675-.088"/><path transform="translate(184.36 -10.289)" style="fill:#090;fill-opacity:1;stroke:#000;stroke-width:1.32291663;stroke-linecap:round;stroke-linejoin:round;stroke-miterlimit:4;stroke-dasharray:none;stroke-opacity:1" d="M-64.328 180.075c.296.354.718.6 1.171.685.454.085.936.008 1.34-.214.409-.224.726-.582 1.01-.952.282-.37.542-.762.874-1.088.28-.274.604-.496.913-.735.309-.24.608-.503.814-.835.269-.434.36-.957.353-1.467-.007-.51-.107-1.014-.196-1.516-.151-.852-.275-1.721-.628-2.511-.32-.717-.818-1.342-1.373-1.898-.555-.555-1.17-1.046-1.767-1.556a38.779 38.779 0 0 1-7.691-8.947c-1.303-2.083-2.428-4.305-4.081-6.122-.553-.607-1.168-1.17-1.884-1.57-1.048-.586-2.26-.8-3.454-.942-3.641-.435-7.324-.295-10.988-.47-3.772-.182-7.675-.75-10.83-2.826-1.825-1.2-3.311-2.849-4.633-4.586-1.322-1.738-2.5-3.582-3.844-5.303-.762-.976-1.58-1.917-2.54-2.7-.957-.785-2.063-1.41-3.268-1.696-.514-.12-1.04-.18-1.554-.298-.513-.12-1.025-.305-1.429-.643-.285-.24-.506-.547-.719-.853-.212-.306-.423-.618-.694-.874-.424-.402-.982-.648-1.56-.74-.576-.093-1.171-.037-1.736.112-.374.099-.74.239-1.068.445a2.46 2.46 0 0 0-.816.81c-.208.351-.309.755-.383 1.157-.073.401-.124.808-.245 1.198-.079.257-.19.506-.345.725-.155.22-.357.409-.596.531-.245.125-.519.176-.788.229-.269.052-.543.109-.782.242-.211.118-.387.29-.556.462-.17.173-.339.35-.543.48-.368.235-.82.299-1.256.314-1.047.036-2.09-.174-3.14-.157a5.404 5.404 0 0 0-1.5.218 3.565 3.565 0 0 0-1.325.724c-.639.567-1.01 1.379-1.255 2.197-.156.518-.269 1.054-.265 1.595.004.541.13 1.09.422 1.545.201.314.475.574.736.84.262.267.52.548.676.886.146.314.199.663.227 1.008.027.344.032.692.087 1.033.175 1.072.856 2.02 1.727 2.669.846.63 1.853 1 2.825 1.412.912.387 1.811.82 2.613 1.4.801.582 1.506 1.32 1.94 2.21.633 1.3.646 2.8.785 4.239.155 1.61.486 3.212 1.098 4.71.613 1.497 1.497 2.865 2.355 4.238a161.1 161.1 0 0 1 1.727 2.825 11.7 11.7 0 0 0-2.826 3.296c-.48.837-.857 1.735-1.099 2.669-.238.92-.344 1.875-.314 2.825a6.23 6.23 0 0 0-2.197-.627c-.963-.09-1.955.051-2.826.47-.485.234-.928.55-1.412.785-1.18.572-2.542.637-3.768 1.1-1.381.52-2.54 1.526-3.924 2.04-.428.159-.878.27-1.273.501-.197.115-.379.26-.518.441-.14.181-.234.4-.25.628-.013.183.027.37.11.533.083.164.209.305.361.408.224.151.496.217.765.229.27.012.539-.028.805-.072a23.5 23.5 0 0 0 1.57-.314 91.978 91.978 0 0 1-1.884 2.512c-.255.328-.519.667-.628 1.068-.054.201-.068.415-.019.617a.89.89 0 0 0 .333.513.975.975 0 0 0 .623.162c.218-.012.43-.08.633-.162.838-.343 1.538-.95 2.197-1.57.54-.507 1.063-1.03 1.57-1.57.026.575.026 1.152 0 1.727-.012.274-.03.55.005.821.035.272.127.544.31.749.122.138.284.241.458.303.175.063.363.085.548.073.37-.022.722-.176 1.034-.376.987-.635 1.595-1.71 2.464-2.5.751-.683 1.708-1.146 2.716-1.268a4.57 4.57 0 0 1 1.099 0c1.021.125 1.971.592 2.982.785 1.54.295 3.158-.068 4.547-.797 1.389-.729 2.568-1.803 3.616-2.97 1.517-1.69 2.79-3.6 3.767-5.651a10.577 10.577 0 0 0 4.395 3.61c2.631 1.155 5.614 1.185 8.477.942a48.67 48.67 0 0 0 5.494-.785 1.77 1.77 0 0 0-.785.628 1.768 1.768 0 0 0-.157 1.727 6.974 6.974 0 0 0-1.099 0c-1.236.097-2.434.527-3.495 1.17-1.06.64-1.987 1.49-2.784 2.44-.319.38-.623.787-.784 1.256a2.39 2.39 0 0 0-.084 1.241c.082.411.276.8.554 1.114a36.121 36.121 0 0 1-3.139 2.354c-.445.297-.905.593-1.237 1.012-.167.21-.298.45-.364.71-.065.259-.062.539.031.79.1.27.302.499.55.648.246.15.536.223.824.228.577.011 1.13-.24 1.609-.562 1.075-.727 1.85-1.813 2.825-2.669a8.32 8.32 0 0 1 3.14-1.727 6.417 6.417 0 0 0-1.57 1.884c-.248.452-.44.932-.628 1.413-.08.206-.16.416-.18.636a.955.955 0 0 0 .025.33c.028.107.08.208.155.29a.697.697 0 0 0 .442.209c.166.016.335-.02.488-.085.307-.13.549-.373.797-.595.444-.399.93-.749 1.413-1.1 1-.724 1.993-1.457 2.982-2.197a5.173 5.173 0 0 0-1.57 2.198c-.129.348-.22.718-.19 1.088.016.185.063.368.146.534.084.165.206.313.358.419.225.155.507.214.78.2.273-.013.538-.095.79-.2.903-.378 1.646-1.051 2.355-1.727.777-.742 1.539-1.505 2.197-2.355.183-.236.358-.479.559-.7.2-.222.43-.422.697-.556.382-.19.823-.232 1.248-.203.426.03.844.127 1.264.203 1.085.197 2.197.253 3.296.157 1.46-.127 2.891-.52 4.238-1.098 3.688-1.584 6.637-4.476 10.046-6.593.383-.238.773-.467 1.13-.74.358-.274.686-.597.911-.987.272-.47.384-1.031.314-1.57z"/><path transform="translate(184.36 -10.289)" style="fill:none;stroke:#000;stroke-width:1.32291663;stroke-linecap:round;stroke-linejoin:round;stroke-miterlimit:4;stroke-dasharray:none;stroke-opacity:1" d="M-108.888 152.358a8.79 8.79 0 0 0 1.497 6.241c1.351 1.918 3.436 3.219 5.636 4.035 2.199.815 4.533 1.189 6.846 1.582 2.86.485 5.72 1.009 8.612 1.248.586.048 1.175.085 1.752.203.576.118 1.145.32 1.618.67.416.31.756.743.873 1.249a1.79 1.79 0 0 1-.25 1.372c-.256.388-.655.661-1.074.861-.42.2-.867.337-1.297.512-1.662.679-3.029 1.923-4.243 3.246-.847.92-1.644 1.899-2.247 2.995a10.413 10.413 0 0 0-1.261 4.288"/><path transform="translate(184.36 -10.289)" style="fill:none;stroke:#000;stroke-width:1.32291663;stroke-linecap:round;stroke-linejoin:miter;stroke-miterlimit:4;stroke-dasharray:none;stroke-opacity:1" d="M-64.328 180.075a5.941 5.941 0 0 0 .622-4.002c-.24-1.204-.862-2.318-1.705-3.21-.843-.893-1.902-1.569-3.038-2.032-2.467-1.006-5.249-1.01-7.863-.5-2.969.58-5.815 1.81-8.238 3.62a19.407 19.407 0 0 0-3.495 3.37"/><path transform="translate(184.36 -10.289)" style="fill:none;stroke:#000;stroke-width:1.32291663;stroke-linecap:round;stroke-linejoin:miter;stroke-miterlimit:4;stroke-dasharray:none;stroke-opacity:1" d="M-66.327 177.57a9.552 9.552 0 0 0-3.37 1.623c-1.152.87-2.09 1.986-3.12 2.996-2.088 2.043-4.602 3.668-7.365 4.618-2.083.716-4.288 1.046-6.49 1.123-1.035.036-2.082.016-3.087-.23-1.006-.247-1.975-.736-2.654-1.517a4.012 4.012 0 0 1-.955-2.968"/><path transform="translate(184.36 -10.289)" style="fill:none;stroke:#000;stroke-width:1.32291663;stroke-linecap:round;stroke-linejoin:miter;stroke-miterlimit:4;stroke-dasharray:none;stroke-opacity:1" d="M-83.302 183.437a7.07 7.07 0 0 0 3.245 0c1.492-.354 2.822-1.18 4.12-1.997 1.25-.788 2.497-1.578 3.743-2.372M-69.073 167.46a15 15 0 0 1 3.37 1.498c.74.446 1.467.984 1.872 1.748.367.693.43 1.542.167 2.281M-73.442 160.346a12.738 12.738 0 0 1 2.372 1.873c.27.272.53.557.749.873.43.625.692 1.365.748 2.122M-136.427 143.085a23.698 23.698 0 0 0 3.949 1.91c1.666.622 3.41 1.06 4.992 1.872.588.301 1.155.657 1.623 1.123a4.433 4.433 0 0 1 1.248 2.496"/><path transform="translate(184.36 -10.289)" style="fill:none;stroke:#000;stroke-width:1.32291663;stroke-linecap:round;stroke-linejoin:round;stroke-miterlimit:4;stroke-dasharray:none;stroke-opacity:1" d="M-124.606 178.506c-.062.999.252 2.017.865 2.809.325.42.726.772 1.123 1.123.376.332.75.665 1.123.999M-134.338 186.197a80.496 80.496 0 0 1 2.609-2.261c.522-.433 1.08-.875 1.747-.999.247-.045.502-.045.75 0M-137.163 184.627c.58-.471 1.186-.91 1.814-1.315.596-.384 1.214-.737 1.872-.999a7.52 7.52 0 0 1 1.249-.374M-120.367 169.715c.773.849 1.521 1.72 2.242 2.613.897 1.11 1.765 2.277 2.247 3.62.314.877.455 1.837.25 2.746a2.59 2.59 0 0 1-.256.697 1.6 1.6 0 0 1-.493.551c-.242.162-.528.241-.81.316-.281.075-.568.15-.813.308-.278.18-.488.462-.578.78-.091.318-.063.668.079.967M-110.792 177.093a13.59 13.59 0 0 0 2.028-4.515c.318-1.304.44-2.665.25-3.994a8.712 8.712 0 0 0-.874-2.746M-120.367 169.715a21.145 21.145 0 0 1 .245-5.5c.159-.894.395-1.817.999-2.496.39-.439.923-.75 1.498-.873M-113.382 172.578a6.517 6.517 0 0 0 1.124-4.244 6.476 6.476 0 0 0-.75-2.496"/><path transform="translate(184.36 -10.289)" style="fill:none;stroke:#000;stroke-width:1.32291663;stroke-linecap:round;stroke-linejoin:miter;stroke-miterlimit:4;stroke-dasharray:none;stroke-opacity:1" d="M-96.821 191.22a7.14 7.14 0 0 0 1.537-.794c.196-.133.386-.277.562-.437.263-.238.494-.512.686-.81M-92.897 192.005a4.797 4.797 0 0 0 2.668-1.641M-101.06 190.435a13.775 13.775 0 0 1 2.531-1.694c.454-.236.921-.446 1.373-.686.454-.242.892-.513 1.31-.811"/><path transform="translate(184.36 -10.289)" style="fill:none;stroke:#000;stroke-width:1.32291663;stroke-linecap:round;stroke-linejoin:round;stroke-miterlimit:4;stroke-dasharray:none;stroke-opacity:1" d="M-108.043 179.794a55.534 55.534 0 0 0 1.805-1.726c.728-.729 1.44-1.484 1.998-2.35.479-.747.838-1.57 1.057-2.43M-104.888 181.238a14.028 14.028 0 0 0 2.528-2.7c.613-.859 1.127-1.784 1.645-2.703.606-1.075 1.22-2.146 1.842-3.212M-101.803 181.73a16.689 16.689 0 0 0 4.81-6.835M-97.92 181.645a15.316 15.316 0 0 0 2.376-3.616c.298-.633.552-1.287.745-1.959.194-.678.325-1.374.392-2.076"/><path style="fill:#000;stroke:#090;stroke-width:.26458332px;stroke-linecap:butt;stroke-linejoin:miter;stroke-opacity:1" d="M70.374 134.096c-.457.01-.913.072-1.355.193a5.226 5.226 0 0 0-3.32 2.826 6.885 6.885 0 0 1 4.168-1.413c2.046.003 4.003.932 5.599 2.212 1.595 1.279 2.88 2.896 4.15 4.5 2.472 3.119 4.992 6.287 8.267 8.548 3.572 2.466 7.892 3.721 12.222 4.027 1.816.128 3.64.096 5.455.236 1.815.14 3.643.46 5.283 1.248a9.938 9.938 0 0 1 4.31 4.026c.1-.957-.048-1.94-.424-2.825a5.758 5.758 0 0 0-2.12-2.544c-1.344-.885-2.991-1.161-4.591-1.342-4.772-.539-9.706-.43-14.2-2.12-3.887-1.46-7.187-4.188-9.962-7.276-1.49-1.659-2.851-3.432-4.362-5.072-1.512-1.64-3.195-3.159-5.176-4.184-.813-.42-1.676-.756-2.576-.924a6.666 6.666 0 0 0-1.368-.116zm.354 2.702a3.862 3.862 0 0 0-2.203.6c.38-.117.796-.111 1.172.014.377.126.713.371.948.692.217.297.346.66.352 1.027.005.368-.117.739-.352 1.022-.256.307-.625.497-.998.64-.374.142-.763.244-1.122.42-.264.128-.51.296-.71.51a1.7 1.7 0 0 0-.42.76c-.072.306-.045.63.06.926.104.295.283.562.503.785.44.446 1.03.712 1.627.904.593.191 1.211.32 1.834.307.622-.013 1.251-.172 1.769-.519a3.165 3.165 0 0 0 1.027-1.18c.243-.467.384-.982.456-1.504.131-.952.028-1.944-.353-2.827a4.477 4.477 0 0 0-1.124-1.569 4.022 4.022 0 0 0-1.702-.903 3.73 3.73 0 0 0-.764-.105z" transform="translate(-6.938 -10.289)"/><path style="fill:#000;stroke:#000;stroke-width:.26458332px;stroke-linecap:butt;stroke-linejoin:miter;stroke-opacity:1" d="M-136.107 138.7c.162.248.425.43.715.493.37.081.756-.024 1.135 0 .15.01.3.04.452.036a.723.723 0 0 0 .223-.038.458.458 0 0 0 .188-.122.52.52 0 0 0 .12-.333c.003-.12-.022-.24-.046-.357-.06-.29-.12-.581-.246-.848s-.324-.51-.593-.632a.824.824 0 0 0-.567-.05.952.952 0 0 0-.42.278 2.616 2.616 0 0 0-.295.413c-.234.38-.456.766-.666 1.16z" transform="translate(182.556 -9.29)"/><path transform="translate(184.36 -10.289)" style="fill:none;stroke:#000;stroke-width:1.32291663;stroke-linecap:round;stroke-linejoin:miter;stroke-miterlimit:4;stroke-dasharray:none;stroke-opacity:1" d="M-158.026 93.742a6.346 6.346 0 0 1 3.143 1.897M-109.252 108.97a19.74 19.74 0 0 0 1.626 1.41"/></svg>