<svg xmlns="http://www.w3.org/2000/svg" width="212" height="251" style="shape-rendering:geometricPrecision;text-rendering:geometricPrecision;image-rendering:optimizeQuality;fill-rule:evenodd;clip-rule:evenodd"><path style="opacity:1" fill="#464036" d="M198.5 9.5a4141.104 4141.104 0 0 1-182 0c61.767-.408 122.433-.408 182 0z"/><path style="opacity:1" fill="#7d6e0c" d="M198.5 13.5h-7c-58.169-.332-116.17.001-174 1h-1c29.993-1.333 60.326-2 91-2 30.502 0 60.835.333 91 1z"/><path style="opacity:1" fill="#f8de1b" d="M17.5 14.5a7569.554 7569.554 0 0 1 174-1c1.765.961 3.765 1.295 6 1v144a44.866 44.866 0 0 0-1 10c-2.657 7.319-5.324 14.652-8 22a1587.275 1587.275 0 0 0-6 8 38.929 38.929 0 0 0-5-5.5 46.447 46.447 0 0 1-9.5-6.5 172.69 172.69 0 0 1-14-27c-6.935-5.89-14.769-10.39-23.5-13.5a57.217 57.217 0 0 1-9.5-8.5 251.363 251.363 0 0 1-11-25l-5.5-5.5A141.446 141.446 0 0 1 79 91.5a160.646 160.646 0 0 0-12-26l-31-20c-5.31-6.953-9.31-14.62-12-23-1.468-3.287-3.634-5.954-6.5-8z"/><path style="opacity:1" fill="#7bae30" d="M179.5 199.5c.202 2.489-.298 4.823-1.5 7-33.907 35.347-73.074 42.514-117.5 21.5-25.736-16.005-41.069-38.838-46-68.5a4670.861 4670.861 0 0 1-1-134 32.437 32.437 0 0 1 .5-8c.423-1.456 1.256-1.956 2.5-1.5a126.48 126.48 0 0 1 6.5 8.5c3.014 12.541 9.847 22.374 20.5 29.5A94.203 94.203 0 0 1 63 64.5a205.969 205.969 0 0 1 15 29c6.877 6.302 14.71 11.136 23.5 14.5a25.55 25.55 0 0 1 6.5 5.5 136.372 136.372 0 0 0 12 27l5.5 5.5 24 12a333.982 333.982 0 0 1 14 26.5c4.702 5.811 10.036 10.811 16 15z"/><path style="opacity:1" fill="#383a0d" d="M157.5 20.5a8.435 8.435 0 0 1 4 .5c-1.785 1.163-3.785 1.83-6 2-1.57 1.397-2.904 2.897-4 4.5.554-3.555 2.554-5.888 6-7z"/><path style="opacity:1" fill="#7baa30" d="M157.5 20.5c2.188-1.123 4.521-1.123 7 0a2.429 2.429 0 0 0 .5 2c1.652.9 3.152 1.9 4.5 3-.731.442-1.731.608-3 .5a71.29 71.29 0 0 0 0 12.5c3.069.485 5.736 1.819 8 4 .396 2.544-.271 4.711-2 6.5-17.163 1.51-17.163 2.677 0 3.5-3.798.983-7.798 1.317-12 1 .815 3.659 2.981 6.326 6.5 8 .384 1.697.218 3.363-.5 5-1.188-1.184-2.355-1.184-3.5 0a4.934 4.934 0 0 1-.5-3c-6.02-2.081-12.02-2.414-18-1-.596-1.435-.596-3.102 0-5-1.726 2.442-3.226 5.109-4.5 8-.454-5.177-2.12-9.844-5-14 1.327 4.34 2.494 8.84 3.5 13.5a142.397 142.397 0 0 1-3 15.5 73.617 73.617 0 0 1-2.5 12c-.708-.88-1.542-1.547-2.5-2-.716-2.512-1.716-2.512-3 0l2 2c-1.684.65-3.017 1.65-4 3-5.203 3.509-7.87 2.009-8-4.5.831-4.934 3.831-7.267 9-7 1.238-.69 1.238-1.19 0-1.5l1-2c2.152-.577 2.485-1.743 1-3.5l-7-1c5.779-.318 6.113-1.152 1-2.5-1.841-2.012-2.841-4.345-3-7 .611-2.275 1.945-3.941 4-5 2.479 1.123 4.812 1.123 7 0 0-.667.333-1 1-1 1.021-.4 1.354-1.733 1-4-7.962 1.13-10.462-1.87-7.5-9 2.157-4.583 4.99-5.083 8.5-1.5 6.227 1.353 8.061-.814 5.5-6.5-6.07-4.736-5.904-9.903.5-15.5a12.935 12.935 0 0 1 5-.5 18.664 18.664 0 0 1 3 5c1.911 1.236 2.911 1.236 3 0 0-.667.333-1 1-1 1.096-1.603 2.43-3.103 4-4.5 2.215-.17 4.215-.837 6-2a8.435 8.435 0 0 0-4-.5z"/><path style="opacity:1" fill="#342e04" d="M164.5 20.5c4.583 1.45 7.583 4.45 9 9-.016 2.016-1.016 3.016-3 3 1.586-2.716 1.253-5.05-1-7a29.067 29.067 0 0 0-4.5-3 2.429 2.429 0 0 1-.5-2z"/><path style="opacity:1" fill="#2c2f08" d="M144.5 23.5c2.615.95 4.615 2.616 6 5-.089 1.236-1.089 1.236-3 0a18.664 18.664 0 0 0-3-5z"/><path style="opacity:1" fill="#3f3709" d="M81.5 31.5c-6.222-2.64-12.556-3.974-19-4a89.314 89.314 0 0 1 1.5 12c.653 2.64 1.82 4.973 3.5 7-.838.342-1.172 1.008-1 2a53.014 53.014 0 0 1-3.5-7 123.8 123.8 0 0 0-2-17c2.048-.923 3.881-.423 5.5 1.5a73.68 73.68 0 0 1 11 2c1.824.66 3.157 1.827 4 3.5z"/><path style="opacity:1" fill="#7aa930" d="M81.5 31.5a185.516 185.516 0 0 0 10.5 13c.816 1.323 1.983 1.99 3.5 2a16.328 16.328 0 0 0 2 5l-4 3c.011-3.813-1.655-6.48-5-8-.206-2.05-1.04-2.383-2.5-1-.617-.95-.45-1.782.5-2.5l-3-1c.516-2.033-.15-2.033-2 0 .588 2.514 1.922 4.514 4 6-2.161 1.764-2.328 3.597-.5 5.5 1.263 2.107 3.097 3.107 5.5 3-.067 1.459.266 2.792 1 4l-1 2c-1.653.16-2.986.826-4 2h-6c.803-.923.97-1.923.5-3-1.076-2.579-2.909-4.246-5.5-5a44.366 44.366 0 0 1-8-10c-1.68-2.027-2.847-4.36-3.5-7a89.314 89.314 0 0 0-1.5-12c6.444.026 12.778 1.36 19 4z"/><path style="opacity:1" fill="#5f761e" d="M169.5 25.5c2.253 1.95 2.586 4.284 1 7 0 1.333-.667 2-2 2-1.676.683-2.343 2.017-2 4a71.29 71.29 0 0 1 0-12.5c1.269.108 2.269-.058 3-.5z"/><path style="opacity:1" fill="#383307" d="M81.5 31.5c5.633 3.97 10.3 8.97 14 15-1.517-.01-2.684-.677-3.5-2a185.516 185.516 0 0 1-10.5-13z"/><path style="opacity:1" fill="#44460b" d="M144.5 23.5a12.935 12.935 0 0 0-5 .5c-6.404 5.597-6.57 10.764-.5 15.5 2.561 5.686.727 7.853-5.5 6.5-3.51-3.583-6.343-3.083-8.5 1.5-2.962 7.13-.462 10.13 7.5 9 .354 2.267.021 3.6-1 4-.077-1.25-.744-2.083-2-2.5a26.689 26.689 0 0 1-6.5-1.5c-1.422-7.143.911-12.477 7-16 2.029 3.096 4.862 4.762 8.5 5-.606-4.151-2.773-7.485-6.5-10-.667-2-.667-4 0-6a81.39 81.39 0 0 1 6.5-6.5c2.212-.79 4.212-.622 6 .5z"/><path style="opacity:1" fill="#5b7b1e" d="M153.5 44.5c.649 1.106.983 2.106 1 3 2.43-2.071 5.097-2.404 8-1a154.271 154.271 0 0 1-13 5c.951-2.602 2.284-4.935 4-7z"/><path style="opacity:1" fill="#3c5112" d="M88.5 46.5c3.345 1.52 5.011 4.187 5 8-3.961 1.713-4.628 1.046-2-2-1.368-1.094-2.535-.76-3.5 1-2.011-2.6-1.845-4.934.5-7z"/><path style="opacity:1" fill="#354d0b" d="M153.5 44.5c-1.716 2.065-3.049 4.398-4 7a21.53 21.53 0 0 0-5 6c1.483-7.49 1.317-14.823-.5-22l2 2a130.837 130.837 0 0 1 2 12 178.194 178.194 0 0 0 10-15c-1.123 3.357-2.623 6.69-4.5 10z"/><path style="opacity:1" fill="#567316" d="M174.5 42.5c1.129 2.128 1.296 4.462.5 7-.377 1.442-1.21 2.442-2.5 3-17.163-.823-17.163-1.99 0-3.5 1.729-1.789 2.396-3.956 2-6.5z"/><path style="opacity:1" fill="#6a8a2e" d="M88.5 46.5c-2.345 2.066-2.511 4.4-.5 7 .965-1.76 2.132-2.094 3.5-1-2.628 3.046-1.961 3.713 2 2l4-3c.897 1.098 1.73 1.098 2.5 0 2.683 1.393 2.85 2.726.5 4a7.253 7.253 0 0 1-2.5-2l-1.5 3-5 4c-.734-1.208-1.067-2.541-1-4-2.403.107-4.237-.893-5.5-3-1.828-1.903-1.661-3.736.5-5.5-2.078-1.486-3.412-3.486-4-6 1.85-2.033 2.516-2.033 2 0l3 1c-.95.718-1.117 1.55-.5 2.5 1.46-1.383 2.294-1.05 2.5 1z"/><path style="opacity:1" fill="#232106" d="M95.5 46.5c8.577 3.819 11.91 10.486 10 20a94.987 94.987 0 0 1-2-8c-1.408-1.936-2.741-2.102-4-.5.884 1.098 1.884 1.598 3 1.5-.825.886-1.825 1.219-3 1 1.287 2.93.787 5.263-1.5 7-.278-.916-.778-1.582-1.5-2-.709-.904-1.709-1.237-3-1h-7c1.014-1.174 2.347-1.84 4-2 2.107.968 4.44 1.302 7 1-.067-1.9.266-3.734 1-5.5-.336-1.03-1.003-1.53-2-1.5l1.5-3a7.253 7.253 0 0 0 2.5 2c2.35-1.274 2.183-2.607-.5-4-.77 1.098-1.603 1.098-2.5 0a16.328 16.328 0 0 1-2-5z"/><path style="opacity:1" fill="#2e2d09" d="M168.5 34.5c-.734 1.208-1.067 2.541-1 4 5.747-.634 9.08 1.866 10 7.5-.625 3.584-2.292 6.584-5 9a47.029 47.029 0 0 0-10 .5 19.736 19.736 0 0 0 5.5 5c.738 3.902.072 7.568-2 11-1.299 1.48-2.966 2.146-5 2a135.004 135.004 0 0 1-10.5-3c-.067 1.459.266 2.792 1 4-2.817-.3-3.484-1.634-2-4l2.5-1c4.092 1.802 8.259 2.135 12.5 1 1.13-1.122 1.797-2.456 2-4 .718-1.637.884-3.303.5-5-3.519-1.674-5.685-4.341-6.5-8 4.202.317 8.202-.017 12-1 1.29-.558 2.123-1.558 2.5-3 .796-2.538.629-4.872-.5-7-2.264-2.181-4.931-3.515-8-4-.343-1.983.324-3.317 2-4z"/><path style="opacity:1" fill="#4d631b" d="M75.5 56.5c2.591.754 4.424 2.421 5.5 5 .47 1.077.303 2.077-.5 3-2.45-2.13-4.117-4.796-5-8z"/><path style="opacity:1" fill="#272306" d="M67.5 46.5a44.366 44.366 0 0 0 8 10c.883 3.204 2.55 5.87 5 8h6v3c-1.333 1-1.333 2 0 3v1a4.932 4.932 0 0 0-3 .5c1.442.377 2.442 1.21 3 2.5-5.18-1.347-8.014-4.68-8.5-10a72.499 72.499 0 0 1-11.5-16c-.172-.992.162-1.658 1-2z"/><path style="opacity:1" fill="#3b4c1c" d="M96.5 56.5c.997-.03 1.664.47 2 1.5a12.988 12.988 0 0 0-1 5.5c-2.56.302-4.893-.032-7-1l1-2 5-4z"/><path style="opacity:1" fill="#494618" d="M123.5 61.5c2.188-1.123 4.521-1.123 7 0-2.188 1.123-4.521 1.123-7 0z"/><path style="opacity:1" fill="#252509" d="M123.5 61.5c-2.055 1.059-3.389 2.725-4 5h-1c-.667-4 1-5.667 5-5z"/><path style="opacity:1" fill="#5d7328" d="M105.5 66.5c0 .667-.333 1-1 1-.899.972-2.066 1.638-3.5 2a91.8 91.8 0 0 1-6.5-1.5c.566-.995 1.233-1.828 2-2.5.722.418 1.222 1.084 1.5 2 2.287-1.737 2.787-4.07 1.5-7 1.175.219 2.175-.114 3-1-1.116.098-2.116-.402-3-1.5 1.259-1.602 2.592-1.436 4 .5a94.987 94.987 0 0 0 2 8z"/><path style="opacity:1" fill="#7e9b39" d="M80.5 66.5h3v3h-3v-3z"/><path style="opacity:1" fill="#35460a" d="M86.5 64.5h4v3h3v-3c1.291-.237 2.291.096 3 1-.767.672-1.434 1.505-2 2.5a91.8 91.8 0 0 0 6.5 1.5c1.434-.362 2.601-1.028 3.5-2 .748 2.084.748 4.084 0 6a512.469 512.469 0 0 1 3 4 2.429 2.429 0 0 1-.5 2 22.755 22.755 0 0 0-4-5c-.708.88-1.542 1.547-2.5 2v-1c.956-1.16 1.956-2.326 3-3.5-.602-1.563-1.435-1.396-2.5.5-2.815-1.776-5.981-2.776-9.5-3a20.52 20.52 0 0 0-4.5 3c-.399-.228-.565-.562-.5-1v-1c2.484-.76 2.484-1.76 0-3v-3z"/><path style="opacity:1" fill="#8cb63b" d="M90.5 64.5h3v3h-3v-3z"/><path style="opacity:1" fill="#262206" d="M16.5 14.5h1c2.866 2.046 5.032 4.713 6.5 8 2.69 8.38 6.69 16.047 12 23l31 20a160.646 160.646 0 0 1 12 26 141.446 141.446 0 0 0 25.5 15.5l5.5 5.5a251.363 251.363 0 0 0 11 25 57.217 57.217 0 0 0 9.5 8.5c8.731 3.11 16.565 7.61 23.5 13.5a172.69 172.69 0 0 0 14 27 46.447 46.447 0 0 0 9.5 6.5 38.929 38.929 0 0 1 5 5.5c2.009-2.696 4.009-5.363 6-8a57.403 57.403 0 0 0-2 9c-2.98-.259-4.813 1.074-5.5 4-.21-1.558-.71-2.891-1.5-4-5.964-4.189-11.298-9.189-16-15a333.982 333.982 0 0 0-14-26.5l-24-12-5.5-5.5a136.372 136.372 0 0 1-12-27 25.55 25.55 0 0 0-6.5-5.5c-8.79-3.364-16.623-8.198-23.5-14.5a205.969 205.969 0 0 0-15-29A94.203 94.203 0 0 0 43.5 54C32.847 46.874 26.014 37.041 23 24.5a126.48 126.48 0 0 0-6.5-8.5c-1.244-.456-2.077.044-2.5 1.5a32.437 32.437 0 0 0-.5 8c-1.138-2.803-1.305-5.803-.5-9 .71-1.473 1.876-2.14 3.5-2z"/><path style="opacity:1" fill="#85ab3d" d="M86.5 67.5c2.484 1.24 2.484 2.24 0 3-1.333-1-1.333-2 0-3z"/><path style="opacity:1" fill="#3a540c" d="M144.5 57.5c-.596 1.898-.596 3.565 0 5-1.16.765-2.16 1.765-3 3 2.302 1.499 1.969 2.832-1 4-.999 2.66-1.999 5.328-3 8 2.557.282 5.223.449 8 .5-4.323.115-7.323 1.948-9 5.5.237-1.291-.096-2.291-1-3a142.397 142.397 0 0 0 3-15.5 165.911 165.911 0 0 0-3.5-13.5c2.88 4.156 4.546 8.823 5 14 1.274-2.891 2.774-5.558 4.5-8z"/><path style="opacity:1" fill="#5b7422" d="M100.5 75.5a4.932 4.932 0 0 1-3-.5c1.388-.89 1.222-1.39-.5-1.5-.873.236-1.707.569-2.5 1l-1-2a7.291 7.291 0 0 1-3 2c-1.48-.932-2.813-.932-4 0-.558-1.29-1.558-2.123-3-2.5a4.932 4.932 0 0 1 3-.5c-.065.438.101.772.5 1a20.52 20.52 0 0 1 4.5-3c3.519.224 6.685 1.224 9.5 3 1.065-1.896 1.898-2.063 2.5-.5a123.446 123.446 0 0 0-3 3.5z"/><path style="opacity:1" fill="#221a0b" d="M100.5 75.5v1h-3a255.6 255.6 0 0 1-11-2c1.187-.932 2.52-.932 4 0a7.291 7.291 0 0 0 3-2l1 2a11.477 11.477 0 0 1 2.5-1c1.722.11 1.888.61.5 1.5.948.483 1.948.65 3 .5z"/><path style="opacity:1" fill="#779c29" d="M107.5 77.5c2.235-.295 4.235.039 6 1-4.338.122-4.672.455-1 1-.31 3.213.023 6.213 1 9v2a18.489 18.489 0 0 0-3.5 2c-1.946-2.639-2.946-5.639-3-9-.69-1.238-1.19-1.238-1.5 0-2.073-3.076-4.739-5.41-8-7h3c.958-.453 1.792-1.12 2.5-2a22.755 22.755 0 0 1 4 5 2.429 2.429 0 0 0 .5-2z"/><path style="opacity:1" fill="#4c5a17" d="M118.5 66.5h1c.159 2.655 1.159 4.988 3 7 5.113 1.348 4.779 2.182-1 2.5l7 1c1.485 1.757 1.152 2.923-1 3.5-3.196-1.371-6.362-3.038-9.5-5-.805-3.197-.638-6.197.5-9z"/><path style="opacity:1" fill="#353109" d="M151.5 74.5c7.165 1.01 9.665 5.01 7.5 12-1.72 4.303-4.22 4.97-7.5 2 6.001.043 8.168-2.957 6.5-9-2.071-1.938-4.238-3.604-6.5-5z"/><path style="opacity:1" fill="#373704" d="M113.5 78.5c.512 3.132.512 6.465 0 10-.977-2.787-1.31-5.787-1-9-3.672-.545-3.338-.878 1-1z"/><path style="opacity:1" fill="#3d3a0d" d="M151.5 88.5a58.652 58.652 0 0 0-6.5-3l-1.5 1c1.049 1.716 2.382 3.049 4 4-3.265.2-5.265-1.3-6-4.5.559-2.188 1.893-2.854 4-2 2.606.792 4.606 2.292 6 4.5z"/><path style="opacity:1" fill="#5c5653" d="M199.5 9.5c.709-.904 1.709-1.237 3-1 .332 48.503-.001 96.836-1 145v-141c.215-1.679-.452-2.679-2-3z"/><path style="opacity:1" fill="#78a22f" d="M190.5 91.5c1.333 1 1.333 2 0 3-1.811 1.885-2.978 4.219-3.5 7-.816 1.323-1.983 1.989-3.5 2-.447-3.024-1.28-3.357-2.5-1a4.457 4.457 0 0 0-1.5-2 21.659 21.659 0 0 0-6.5 4c-4.985-2.057-5.652-.724-2 4 1.816-.829 3.649-1.663 5.5-2.5-1.211-.893-1.211-1.726 0-2.5a9.108 9.108 0 0 0 5 1c-3.414 3.04-7.414 5.04-12 6-.31-1.644-1.31-2.644-3-3v-2c-.247-3.439.086-6.772 1-10 4.649-1.661 9.315-3.328 14-5a50.929 50.929 0 0 0 6.5 2c1.07-.028 1.903-.361 2.5-1z"/><path style="opacity:1" fill="#382f0b" d="M190.5 91.5c-.597.639-1.43.972-2.5 1a50.929 50.929 0 0 1-6.5-2c-4.685 1.672-9.351 3.339-14 5-1.599.268-2.932-.066-4-1a137.114 137.114 0 0 0 18-5c3.012.672 6.012 1.339 9 2z"/><path style="opacity:1" fill="#c3b448" d="M116.5 87.5c-.389 3.914.278 7.58 2 11-.667 0-1 .333-1 1-1.174-1.014-1.84-2.347-2-4l-1-4 2-4z"/><path style="opacity:1" fill="#3c3b0b" d="M113.5 90.5c.667 0 1 .333 1 1l1 4-2 1c-.794-2.652-1.46-2.485-2 .5 3.151 6.181 1.984 7.014-3.5 2.5-.667.667-.667 1.333 0 2a32.364 32.364 0 0 1 5.5 4 311.572 311.572 0 0 0 10 13.5 143.35 143.35 0 0 1 14 8.5h-2a365.01 365.01 0 0 1-15.5-9c-3.26-6.255-7.594-11.588-13-16a12.93 12.93 0 0 1-.5-5h3c-1.872-4.44-3.205-9.106-4-14 .31-1.238.81-1.238 1.5 0 .054 3.361 1.054 6.361 3 9a18.489 18.489 0 0 1 3.5-2z"/><path style="opacity:1" fill="#1f2f08" d="M135.5 80.5c.904.709 1.237 1.709 1 3a31.337 31.337 0 0 0-.5 12c1.049-1.017 2.216-1.184 3.5-.5a11.529 11.529 0 0 0-4.5 3.5 62.779 62.779 0 0 0-4.5-8c.958.453 1.792 1.12 2.5 2a73.617 73.617 0 0 0 2.5-12z"/><path style="opacity:1" fill="#403d08" d="M126.5 82.5c1.238.31 1.238.81 0 1.5-5.169-.267-8.169 2.066-9 7 .13 6.509 2.797 8.009 8 4.5 2.481-.177 4.314.823 5.5 3a134.59 134.59 0 0 0 1.5 13c-.958-.453-1.792-1.119-2.5-2a89.468 89.468 0 0 0-1.5-12l-1.5-1c-2.553 2.387-5.386 3.053-8.5 2-1.722-3.42-2.389-7.086-2-11 2.492-3.175 5.826-4.841 10-5z"/><path style="opacity:1" fill="#2f2909" d="M149.5 91.5c3.835 2.954 3.835 6.121 0 9.5-2.366.562-4.699.396-7-.5-1.573.252-2.906.918-4 2v-1c.691-1.522 1.858-2.522 3.5-3a19.524 19.524 0 0 0 7.5 1c1.13-2.697 1.13-5.363 0-8z"/><path style="opacity:1" fill="#4b5c1b" d="M163.5 94.5c1.068.934 2.401 1.268 4 1-.914 3.228-1.247 6.561-1 10-.617-.111-1.117-.444-1.5-1a39.447 39.447 0 0 1-4.5 6c-2.12-.903-2.454-2.237-1-4-2.412-2.673-2.079-5.173 1-7.5-.556-.383-.889-.883-1-1.5.936-1.474 2.27-2.474 4-3z"/><path style="opacity:1" fill="#355010" d="M183.5 103.5c-.342.838-1.008 1.172-2 1a9.108 9.108 0 0 1-5-1c-1.211.774-1.211 1.607 0 2.5-1.851.837-3.684 1.671-5.5 2.5-3.652-4.724-2.985-6.057 2-4a21.659 21.659 0 0 1 6.5-4 4.457 4.457 0 0 1 1.5 2c1.22-2.357 2.053-2.024 2.5 1z"/><path style="opacity:1" fill="#292809" d="M190.5 94.5a36.418 36.418 0 0 1-2.5 8 84.01 84.01 0 0 1-12.5 8c-2.111 1.242-4.111 1.242-6 0 4.586-.96 8.586-2.96 12-6 .992.172 1.658-.162 2-1 1.517-.011 2.684-.677 3.5-2 .522-2.781 1.689-5.115 3.5-7z"/><path style="opacity:1" fill="#505d1e" d="M166.5 107.5c1.69.356 2.69 1.356 3 3 1.889 1.242 3.889 1.242 6 0 .073 1.527-.594 2.527-2 3-1.517.011-2.684.677-3.5 2-1.043-3.726-1.543-3.393-1.5 1h-3c.171-3.297-.495-3.631-2-1a4.457 4.457 0 0 1-2-1.5 75.95 75.95 0 0 1 3.5-7.5c.383.556.883.889 1.5 1z"/><path style="opacity:1" fill="#3d2a10" d="M201.5 12.5v144c-.617-.111-1.117-.444-1.5-1a130.883 130.883 0 0 1-2 12c-.383.556-.883.889-1.5 1a44.866 44.866 0 0 1 1-10 5256.844 5256.844 0 0 0 1-145 5.728 5.728 0 0 1 3-1z"/><path style="opacity:1" fill="#231f07" d="M159.5 97.5c.111.617.444 1.117 1 1.5-3.079 2.327-3.412 4.827-1 7.5-1.454 1.763-1.12 3.097 1 4a39.447 39.447 0 0 0 4.5-6c.383.556.883.889 1.5 1v2c-.617-.111-1.117-.444-1.5-1a75.95 75.95 0 0 0-3.5 7.5 4.457 4.457 0 0 0 2 1.5c1.505-2.631 2.171-2.297 2 1h3c-.043-4.393.457-4.726 1.5-1 .816-1.323 1.983-1.989 3.5-2-3.68 5.832-8.18 6.498-13.5 2-.765.07-1.265.403-1.5 1-1.105-1.1-2.438-1.767-4-2a185.63 185.63 0 0 0 2.5-14c.377-1.442 1.21-2.442 2.5-3z"/><path style="opacity:1" fill="#859040" d="M155.5 109.5c2.332.662 2.999 1.995 2 4-1.205-1.077-1.872-2.41-2-4z"/><path style="opacity:1" fill="#444c10" d="M138.5 101.5v1a24.362 24.362 0 0 0 1.5 10c2.393 2.119 3.726 4.785 4 8a29.964 29.964 0 0 0 7 6c-.123-4.508 1.044-8.508 3.5-12a82.376 82.376 0 0 0-.5 21c-3.259-1.847-5.592-4.513-7-8l-1 1c-.574-1.992-1.741-3.492-3.5-4.5l2-1a20.532 20.532 0 0 0-4.5-2.5 54.835 54.835 0 0 0-4-9c-1.368-3.238-1.701-6.572-1-10 1.512 10.506 2.679 10.506 3.5 0z"/><path style="opacity:1" fill="#779f30" d="M166.5 66.5c-.203 1.544-.87 2.878-2 4-4.241 1.135-8.408.802-12.5-1l-2.5 1c-1.484 2.366-.817 3.7 2 4 2.262 1.396 4.429 3.063 6.5 5 1.668 6.043-.499 9.043-6.5 9-1.394-2.208-3.394-3.708-6-4.5-2.107-.854-3.441-.188-4 2 .735 3.2 2.735 4.7 6 4.5.992-.172 1.658.162 2 1 1.13 2.637 1.13 5.303 0 8a19.524 19.524 0 0 1-7.5-1c-1.642.478-2.809 1.478-3.5 3-.821 10.506-1.988 10.506-3.5 0-.701 3.428-.368 6.762 1 10a54.835 54.835 0 0 1 4 9 20.532 20.532 0 0 1 4.5 2.5l-2 1c1.759 1.008 2.926 2.508 3.5 4.5l1-1c1.408 3.487 3.741 6.153 7 8a82.376 82.376 0 0 1 .5-21c1.562.233 2.895.9 4 2 .284 1.915-.049 3.581-1 5 .262-1.478-.071-2.811-1-4l-1 5c1.022 3.518 1.022 6.685 0 9.5 1.907 1.069 3.241 2.569 4 4.5-1.941 1.138-2.108 2.804-.5 5l1-1a52.108 52.108 0 0 0 5.5 8 7.248 7.248 0 0 1-2 2.5c1.778 2.025 3.111 1.859 4-.5 1.22-3.219 3.553-4.885 7-5 1.011 1.902 1.178 3.902.5 6a2185.682 2185.682 0 0 0-4.5 11c.172.992-.162 1.658-1 2 .065-.438-.101-.772-.5-1-.533 2.439-1.7 3.105-3.5 2a50.464 50.464 0 0 0-.5-10c-.77 1.098-1.603 1.098-2.5 0-1.763-3.746-4.763-6.079-9-7-.929-1.189-1.262-2.522-1-4 1.89-.203 3.39.463 4.5 2-.032-2.098-.699-4.098-2-6a171.034 171.034 0 0 1-17.5-13 143.35 143.35 0 0 0-14-8.5 311.572 311.572 0 0 1-10-13.5 32.364 32.364 0 0 0-5.5-4c-.667-.667-.667-1.333 0-2 5.484 4.514 6.651 3.681 3.5-2.5.54-2.985 1.206-3.152 2-.5 1.181 4.164 2.848 7.497 5 10-.543.06-.876.393-1 1 1.992 4.321 4.992 7.654 9 10 3.772 1.511 7.605 3.844 11.5 7l1.5-1a89.813 89.813 0 0 0-7-12 134.59 134.59 0 0 1-1.5-13c-1.186-2.177-3.019-3.177-5.5-3 .983-1.35 2.316-2.35 4-3l-2-2c1.284-2.512 2.284-2.512 3 0a62.779 62.779 0 0 1 4.5 8 11.529 11.529 0 0 1 4.5-3.5c-1.284-.684-2.451-.517-3.5.5a31.337 31.337 0 0 1 .5-12c1.677-3.552 4.677-5.385 9-5.5a87.653 87.653 0 0 1-8-.5c1.001-2.672 2.001-5.34 3-8 2.969-1.168 3.302-2.501 1-4 .84-1.235 1.84-2.235 3-3 5.98-1.414 11.98-1.081 18 1a4.934 4.934 0 0 0 .5 3c1.145-1.184 2.312-1.184 3.5 0z"/><path style="opacity:1" fill="#3d5613" d="M118.5 106.5a64.783 64.783 0 0 0 8 11c-4.008-2.346-7.008-5.679-9-10 .124-.607.457-.94 1-1z"/><path style="opacity:1" fill="#262106" d="M115.5 95.5c.16 1.653.826 2.986 2 4 2.685 5.497 6.018 10.664 10 15.5 2.291 2.34 4.958 3.673 8 4a72.357 72.357 0 0 1-3-7.5 89.813 89.813 0 0 1 7 12l-1.5 1c-3.895-3.156-7.728-5.489-11.5-7a64.783 64.783 0 0 1-8-11c-2.152-2.503-3.819-5.836-5-10l2-1z"/><path style="opacity:1" fill="#efd71d" d="M132.5 111.5a72.357 72.357 0 0 0 3 7.5c-3.042-.327-5.709-1.66-8-4-3.982-4.836-7.315-10.003-10-15.5 0-.667.333-1 1-1 3.114 1.053 5.947.387 8.5-2l1.5 1a89.468 89.468 0 0 1 1.5 12c.708.881 1.542 1.547 2.5 2z"/><path style="opacity:1" fill="#e2c93d" d="M191.5 13.5h7c.332 48.503-.001 96.836-1 145v-144c-2.235.295-4.235-.039-6-1z"/><path style="opacity:1" fill="#302d07" d="M157.5 121.5c.314 9.145 3.981 16.645 11 22.5 2.208.191 4.208.691 6 1.5-3.447.115-5.78 1.781-7 5 .295-1.935-.205-3.935-1.5-6a53.622 53.622 0 0 0-6.5-8c-.759-1.931-2.093-3.431-4-4.5 1.022-2.815 1.022-5.982 0-9.5l1-5c.929 1.189 1.262 2.522 1 4z"/><path style="opacity:1" fill="#637a2b" d="M79.5 136.5c4.47-.986 9.137-1.319 14-1v20c-.99-6.145-1.323-12.478-1-19h-13z"/><path style="opacity:1" fill="#272106" d="M135.5 127.5h2a171.034 171.034 0 0 0 17.5 13c1.301 1.902 1.968 3.902 2 6-1.11-1.537-2.61-2.203-4.5-2-.262 1.478.071 2.811 1 4 4.237.921 7.237 3.254 9 7a67.194 67.194 0 0 0-11.5-7c-.456-3.072-.456-6.072 0-9-5.924-3.099-11.091-7.099-15.5-12z"/><path style="opacity:1" fill="#536d1c" d="M159.5 136.5a53.622 53.622 0 0 1 6.5 8c1.295 2.065 1.795 4.065 1.5 6-.889 2.359-2.222 2.525-4 .5a7.248 7.248 0 0 0 2-2.5 52.108 52.108 0 0 1-5.5-8l-1 1c-1.608-2.196-1.441-3.862.5-5z"/><path style="opacity:1" fill="#261f19" d="M16.5 9.5a4141.104 4141.104 0 0 0 182 0h1c1.548.321 2.215 1.321 2 3a5.728 5.728 0 0 0-3 1c-30.165-.667-60.498-1-91-1-30.674 0-61.007.667-91 2-1.624-.14-2.79.527-3.5 2-.805 3.197-.638 6.197.5 9-.307 44.686.026 89.353 1 134-.722-.418-1.222-1.084-1.5-2l-1 2c-.232-1.237-.732-2.237-1.5-3-.87-49.231-.87-98.565 0-148l6 1z"/><path style="opacity:1" fill="#253c06" d="M172.5 149.5c.543.06.876.393 1 1a59.319 59.319 0 0 0-4.5 8c.049-3.432 1.216-6.432 3.5-9z"/><path style="opacity:1" fill="#3b3505" d="M174.5 145.5c.996-.086 1.829.248 2.5 1 .323 6.352-1.843 11.685-6.5 16 1.463-3.605 2.963-7.271 4.5-11 .678-2.098.511-4.098-.5-6z"/><path style="opacity:1" fill="#392e09" d="M162.5 155.5c.897 1.098 1.73 1.098 2.5 0 .498 3.317.665 6.65.5 10-1.601-3.05-2.601-6.384-3-10z"/><path style="opacity:1" fill="#282e19" d="M79.5 136.5h13c-.323 6.522.01 12.855 1 19 .11 6.513 2.444 12.013 7 16.5a174.597 174.597 0 0 0 30 19A338.037 338.037 0 0 0 98 205.5a1268.51 1268.51 0 0 0-54.5-4.5c-8.957-4.181-9.29-9.181-1-15L78 158.5c.235-7.381.735-14.714 1.5-22z"/><path style="opacity:1" fill="#fdfefd" d="M121.5 192.5a123.427 123.427 0 0 1-25.5 11 5147.041 5147.041 0 0 0-50.5-4.5c-6.746-.2-8.413-3.034-5-8.5a1860.94 1860.94 0 0 0 40.5-32c.5-6.992.666-13.992.5-21 3.277-.284 6.443.049 9.5 1-3.449 17.01 1.718 30.51 15.5 40.5l20 12c-1.525 1.009-3.192 1.509-5 1.5z"/><path style="opacity:1" fill="#3d3e04" d="M169.5 164.5c.082 1.752-.751 2.752-2.5 3-1.03-.336-1.53-1.003-1.5-2 1.8 1.105 2.967.439 3.5-2 .399.228.565.562.5 1z"/><path style="opacity:1" fill="#403a35" d="M80.5 161.5c1.025.397 1.192 1.063.5 2a1481.962 1481.962 0 0 0-28.5 23c-1.578 1.14-3.245 1.64-5 1.5a426.455 426.455 0 0 0 33-26.5z"/><path style="opacity:1" fill="#3e3129" d="M201.5 156.5c-1.645 15.605-6.645 29.938-15 43a57.403 57.403 0 0 1 2-9c2.676-7.348 5.343-14.681 8-22 .617-.111 1.117-.444 1.5-1a130.883 130.883 0 0 0 2-12c.383.556.883.889 1.5 1z"/><path style="opacity:1" fill="#3a3833" d="M82.5 172.5c.543.06.876.393 1 1a103.456 103.456 0 0 1-16 13.5c-1 .667-2 .667-3 0a397.743 397.743 0 0 0 18-14.5z"/><path style="opacity:1" fill="#3b3834" d="M81.5 166.5c1.291 1.042 1.291 2.208 0 3.5a323.718 323.718 0 0 0-19 15c-1.712 1.751-3.712 2.418-6 2a248.634 248.634 0 0 0 25-20.5z"/><path style="opacity:1" fill="#4c4741" d="M121.5 192.5a61.61 61.61 0 0 0-15.5 6l-.5-1a81.422 81.422 0 0 1 14.5-7c.717.544 1.217 1.211 1.5 2z"/><path style="opacity:1" fill="#312d2a" d="M111.5 189.5a8.43 8.43 0 0 1 4 .5l-15 7.5-1-1c4.063-2.36 8.063-4.693 12-7z"/><path style="opacity:1" fill="#302b23" d="M10.5 156.5c.768.763 1.268 1.763 1.5 3l1-2c.278.916.778 1.582 1.5 2 4.931 29.662 20.264 52.495 46 68.5 44.426 21.014 83.593 13.847 117.5-21.5 1.202-2.177 1.702-4.511 1.5-7 .79 1.109 1.29 2.442 1.5 4 .687-2.926 2.52-4.259 5.5-4-18.989 28.17-45.656 42.837-80 44-42.81-2.324-72.977-22.991-90.5-62a96.811 96.811 0 0 1-5.5-25z"/></svg>