<svg height="549.1084" width="499.99997" xmlns="http://www.w3.org/2000/svg"><g transform="translate(-607.66185 -349.25729)"><text font-size="15" stroke-width="1.25" x="962.20471" y="604.36389"><tspan fill="#231f20" font-family="Arial" font-size="17.5" stroke-width="1.25" x="962.20471 962.20471 973.8772 979.70471 989.43469 993.3197 1002.0697 1006.9347 1019.5697 1029.2997 1039.0297 1042.9147 1052.6447 1058.4722 1071.1072 1080.8372 1090.5671 1099.3171 1105.1447 1114.8746 1123.6246" y="604.36389 604.36389"></tspan> <tspan fill="#231f20" font-family="Arial" font-size="17.5" stroke-width="1.25" x="962.20471 962.20471 973.8772 987.49219 992.35718 1004.0297 1007.9147 1013.7422 1022.4922 1032.2222 1041.9521 1051.6823 1057.5096" y="623.91437 623.91437"></tspan></text><text font-size="15" stroke-width="1.25" x="900.44843" y="523.98053"><tspan fill="#231f20" font-family="Arial" font-size="12.5" stroke-width="1.25" x="900.44843 900.44843 908.08594 910.86096 917.81091 928.22345 930.99841 933.77344 940.72345 947.67346 954.62341" y="523.98053 523.98053"></tspan> <tspan fill="#231f20" font-family="Arial" font-size="12.5" stroke-width="1.25" x="895.59058 895.59058 903.22809 906.00305 912.95306 919.90308 926.85309 933.80304 937.27808 941.44055 949.77808 953.25305 962.27808" y="537.9444 537.9444"></tspan> <tspan fill="#231f20" font-family="Arial" font-size="12.5" stroke-width="1.25" x="872.75354 872.75354 879.70355 886.65356 890.12854 897.07855 900.55359 907.50354 914.45355 920.4837 927.43372 930.90869 937.8587 944.80872 951.75867 958.70868 965.65869 976.07117 978.84619 985.7962" y="551.90851 551.90851"></tspan></text><g stroke-miterlimit="10"><path d="m616.49819 358.09363v308.66612c7.64889 75.19691 153.81096 213.36103 240.74516 222.74914 86.83216-8.59254 233.91025-146.68223 241.58215-222.12089v-308.66375c-161.37469 0-320.95031-.63063-482.32731-.63062z" fill="#0f47af" fill-rule="evenodd" stroke="#000" stroke-width="7.672673"/><path d="m750.07374 439.07975 25.08329-18.39562c4.98597-3.65563 2.71586-10.59113-5.01743-10.59113h-82.49753c-11.24548 0-9.64972 9.32138-2.78797 13.93613l28.98676 19.50887z" fill="#fff" fill-rule="evenodd" stroke="#000" stroke-width="1.657132"/><path d="m656.42585 489.80563c-12.93482 11.7105 3.64263 24.32387 11.70426 18.952-.64751 9.45787 5.29745 16.9395 20.62515 12.26125 3.28588 11.774 11.69352 14.42312 24.25473 8.92087 2.63377 12.25888 23.2781 13.90688 26.27014 0 12.56121 5.50225 20.96885 2.85088 24.25473-8.92237 15.3277 4.6775 21.27113-2.80113 20.62285-12.259 8.06164 5.37112 24.63985-7.24375 11.70655-18.95263-21.83653-19.7705-51.86284-42.57912-56.59257-79.70812-2.0576-16.14238-24.25856-17.94763-26.54632 0-4.7328 37.129-34.46297 59.94212-56.29952 79.71262z" fill="#fff" fill-rule="evenodd" stroke="#000" stroke-width="1.657132"/><path d="m668.32575 508.562c17.7267-20.418 31.82076-45.27962 42.11339-71.648" fill="none" stroke="#231f20" stroke-width="1.657132"/><path d="m668.32575 508.562c17.7267-20.418 31.82076-45.27962 42.11339-71.648" fill="none" stroke="#000" stroke-width="1.657132"/><path d="m784.29274 509.11663c-17.72594-20.418-31.82077-45.27963-42.11339-71.64788" fill="none" stroke="#000" stroke-width="1.657132"/><path d="m688.75526 521.01888c16.1954-26.10288 20.6359-53.985 27.69482-81.60838" fill="none" stroke="#231f20" stroke-width="1.657132"/><path d="m688.75526 521.01888c16.1954-26.10288 20.6359-53.985 27.69482-81.60838" fill="none" stroke="#000" stroke-width="1.657132"/><path d="m763.86552 521.5735c-16.19539-26.10287-20.63819-53.98487-27.69481-81.60837" fill="none" stroke="#000" stroke-width="1.657132"/><path d="m712.94708 529.82463c7.0198-28.22575 7.22003-57.369 8.50508-88.31288" fill="none" stroke="#231f20" stroke-width="1.657132"/><path d="m712.94708 529.82463c7.0198-28.22575 7.22003-57.369 8.50508-88.31288" fill="none" stroke="#000" stroke-width="1.657132"/><path d="m739.67217 530.3785c-7.01826-28.22487-7.2185-57.36812-8.50354-88.31275" fill="none" stroke="#000" stroke-width="1.657132"/><path d="m1021.1996 438.641 25.0849-18.39412c4.9867-3.658 2.7143-10.59263-5.0167-10.59263h-82.49982c-11.24318 0-9.64743 9.32063-2.78644 13.93525l28.98522 19.51188z" fill="#fff" fill-rule="evenodd" stroke="#000" stroke-width="1.657132"/><path d="m927.55176 489.36838c-12.93483 11.70812 3.64492 24.32375 11.70656 18.95262-.64828 9.458 5.29516 16.9365 20.62286 12.259 3.28817 11.77325 11.69351 14.42475 24.25472 8.92238 2.6353 12.25662 23.2804 13.90537 26.2724 0 12.559 5.5015 20.9666 2.85325 24.2548-8.92088 15.3254 4.67763 21.2711-2.80325 20.6228-12.26125 8.0617 5.37188 24.6391-7.24375 11.7066-18.95262-21.8366-19.76826-51.8629-42.57838-56.5949-79.70725-2.0576-16.141-24.25856-17.94613-26.5448 0-4.73202 37.12887-34.4645 59.94362-56.30103 79.71412z" fill="#fff" fill-rule="evenodd" stroke="#000" stroke-width="1.657132"/><path d="m939.45395 508.12538c17.72594-20.421 31.82077-45.28025 42.1134-71.64863" fill="none" stroke="#000" stroke-width="1.657132"/><path d="m939.45395 508.12538c17.72594-20.421 31.82077-45.28025 42.1134-71.64863" fill="none" stroke="#000" stroke-width="1.657132"/><path d="m1055.4209 508.67938c-17.7267-20.42038-31.8207-45.27963-42.1133-71.648" fill="none" stroke="#000" stroke-width="1.657132"/><path d="m959.88118 520.58c16.19538-26.10362 20.63818-53.98337 27.6948-81.606" fill="none" stroke="#000" stroke-width="1.657132"/><path d="m959.88118 520.58c16.19538-26.10362 20.63818-53.98337 27.6948-81.606" fill="none" stroke="#000" stroke-width="1.657132"/><path d="m1034.9914 521.13625c-16.1954-26.10525-20.6359-53.985-27.6948-81.60837" fill="none" stroke="#000" stroke-width="1.657132"/><path d="m984.07453 529.385c7.01826-28.22337 7.2185-57.36887 8.50353-88.31275" fill="none" stroke="#000" stroke-width="1.657132"/><path d="m984.07453 529.385c7.01826-28.22337 7.2185-57.36887 8.50353-88.31275" fill="none" stroke="#000" stroke-width="1.657132"/><path d="m1010.7996 529.93975c-7.0198-28.22337-7.22-57.36675-8.5051-88.31287" fill="none" stroke="#000" stroke-width="1.657132"/><path d="m999.5173 685.61875 25.0856-18.39412c4.9867-3.65725 2.7143-10.59263-5.0174-10.59263h-82.49986c-11.24549 0-9.64666 9.32063-2.78797 13.93763l28.98676 19.50962z" fill="#fff" fill-rule="evenodd" stroke="#000" stroke-width="1.657132"/><path d="m905.87019 736.3462c-12.9356 11.70886 3.64492 24.32378 11.70656 18.95268-.64827 9.45792 5.29515 16.9365 20.62285 12.25893 3.28588 11.77332 11.69275 14.42471 24.25397 8.92243 2.63376 12.25664 23.27808 13.90532 26.27089-.006 12.56124 5.50152 20.96884 2.85319 24.25474-8.92089 15.3269 4.67756 21.2704-2.80331 20.6252-12.26124 8.0593 5.37187 24.6367-7.24381 11.7042-18.95267-21.8342-19.7682-51.86285-42.57831-56.59257-79.70731-2.0576-16.14088-24.25934-17.94613-26.54709 0-4.73204 37.129-34.46298 59.94371-56.29875 79.71421z" fill="#fff" fill-rule="evenodd" stroke="#000" stroke-width="1.657132"/><path d="m917.77238 755.10324c17.72363-20.42108 31.8177-45.28036 42.1111-71.64874" fill="none" stroke="#000" stroke-width="1.657132"/><path d="m917.77238 755.10324c17.72363-20.42108 31.8177-45.28036 42.1111-71.64874" fill="none" stroke="#000" stroke-width="1.657132"/><path d="m1033.7363 755.65715c-17.7236-20.42031-31.82-45.27952-42.11108-71.6479" fill="none" stroke="#000" stroke-width="1.657132"/><path d="m938.1996 767.55781c16.19463-26.10366 20.63743-53.98331 27.69481-81.60606" fill="none" stroke="#000" stroke-width="1.657132"/><path d="m938.1996 767.55781c16.19463-26.10366 20.63743-53.98331 27.69481-81.60606" fill="none" stroke="#000" stroke-width="1.657132"/><path d="m1013.3099 768.11403c-16.19544-26.10519-20.63823-53.9849-27.69562-81.60841" fill="none" stroke="#000" stroke-width="1.657132"/><path d="m962.39065 776.36286c7.01979-28.22341 7.22003-57.36897 8.50508-88.31286" fill="none" stroke="#000" stroke-width="1.657132"/><path d="m962.39065 776.36286c7.01979-28.22341 7.22003-57.36897 8.50508-88.31286" fill="none" stroke="#000" stroke-width="1.657132"/><path d="m989.11574 776.91754c-7.0175-28.2234-7.21774-57.36668-8.50277-88.31279" fill="none" stroke="#000" stroke-width="1.657132"/><path d="m763.17428 679.49275 25.08483-18.39412c4.98674-3.658 2.71432-10.59263-5.01666-10.59263h-82.49983c-11.24548 0-9.64742 9.32063-2.78797 13.93525l28.98676 19.512z" fill="#fff" fill-rule="evenodd" stroke="#000" stroke-width="1.657132"/><path d="m669.5264 730.22019c-12.93483 11.70809 3.64492 24.32377 11.70656 18.95267-.64827 9.45715 5.29515 16.9365 20.62285 12.25817 3.28588 11.77407 11.69352 14.42548 24.25473 8.9232 2.6353 12.25663 23.2781 13.90532 26.27014-.008 12.56121 5.5023 20.96885 2.85395 24.25473-8.92012 15.32769 4.67755 21.27112-2.80332 20.62514-12.26125 8.06164 5.37188 24.63756-7.24381 11.70426-18.95267-21.83423-19.76819-51.86284-42.57831-56.59257-79.70731-2.05761-16.14088-24.25933-17.94613-26.54709 0-4.72974 37.129-34.46221 59.94362-56.29875 79.71422z" fill="#fff" fill-rule="evenodd" stroke="#000" stroke-width="1.657132"/><path d="m681.42859 748.97646c17.72441-20.42031 31.81847-45.27958 42.11109-71.64796" fill="none" stroke="#000" stroke-width="1.657132"/><path d="m681.42859 748.97646c17.72441-20.42031 31.81847-45.27958 42.11109-71.64796" fill="none" stroke="#000" stroke-width="1.657132"/><path d="m797.39328 749.53114c-17.7244-20.42031-31.82076-45.27964-42.11109-71.64789" fill="none" stroke="#000" stroke-width="1.657132"/><path d="m701.85581 761.43103c16.19539-26.10289 20.63819-53.98265 27.69481-81.60603" fill="none" stroke="#000" stroke-width="1.657132"/><path d="m701.85581 761.43103c16.19539-26.10289 20.63819-53.98265 27.69481-81.60603" fill="none" stroke="#000" stroke-width="1.657132"/><path d="m776.96607 761.98571c-16.1954-26.1029-20.6382-53.98258-27.69482-81.60608" fill="none" stroke="#000" stroke-width="1.657132"/><path d="m726.04763 770.23684c7.01979-28.2234 7.22003-57.36896 8.50507-88.31284" fill="none" stroke="#000" stroke-width="1.657132"/><path d="m726.04763 770.23684c7.01979-28.2234 7.22003-57.36896 8.50507-88.31284" fill="none" stroke="#000" stroke-width="1.657132"/><path d="m752.77425 770.79153c-7.0198-28.22342-7.22003-57.36665-8.50508-88.3129" fill="none" stroke="#000" stroke-width="1.657132"/><path d="m821.47385 557.389h-141.73077c-18.75474 0-40.04735-17.00862-49.27435-27.17775 0 43.0425-.13963 85.693-.13963 128.73688 9.23006-10.169 30.52037-27.17763 49.27742-27.17763h140.70121v141.73074c0 18.75474-17.00785 40.04735-27.17697 49.27435 43.0417 0 85.69213.13962 128.73612.13962-10.16834-9.23006-27.17697-30.52037-27.17697-49.27741v-140.70117h141.72999c18.7548 0 40.0474 17.00775 49.2752 27.17687 0-43.04162.1388-85.69212.1388-128.73612-9.2293 10.16837-30.5219 27.177-49.2766 27.177h-140.70202v-141.73c0-18.75475 17.00862-40.04738 27.17772-49.27513-43.04245 0-85.69287-.13887-128.73687-.13887 10.16911 9.22937 27.17772 30.51962 27.17772 49.27662z" fill="#fcdd09" fill-rule="evenodd" stroke="#000" stroke-width="1.657132"/><path d="m640.46599 560.22075c8.46825 12.23438 18.14559 23.86038 28.82565 34.98613-10.88643 9.86462-18.46091 22.50025-26.88619 34.43" fill="none" stroke="#000" stroke-width="1.657132"/><path d="m668.90421 595.16163h189.31117" fill="none" stroke="#000" stroke-width="1.657132"/><path d="m823.27905 812.91795c12.23209-8.46825 23.8604-18.14789 34.98467-28.82641 9.86606 10.8849 22.50169 18.46167 34.42997 26.88389" fill="none" stroke="#000" stroke-width="1.657132"/><path d="m858.21998 784.47666v-189.31116" fill="none" stroke="#000" stroke-width="1.657132"/><path d="m1075.974 630.10488c-8.4683-12.23513-18.1456-23.8635-28.8257-34.987 10.8865-9.8645 18.4609-22.49938 26.8855-34.42988" fill="none" stroke="#000" stroke-width="1.657132"/><path d="m1047.535 595.16163h-189.31041" fill="none" stroke="#000" stroke-width="1.657132"/><path d="m893.16091 377.40763c-12.23286 8.46825-23.86116 18.14787-34.98466 28.82575-9.86454-10.88425-22.5017-18.46101-34.42997-26.88625" fill="none" stroke="#000" stroke-width="1.657132"/><path d="m858.21998 405.84813v189.31125" fill="none" stroke="#000" stroke-width="1.657132"/><path d="m821.41248 557.28238 73.31657 75.52762" fill="none" stroke="#000" stroke-width="1.657132"/><path d="m895.8338 558.66563-75.52761 73.03737" fill="none" stroke="#000" stroke-width="1.657132"/></g></g></svg>