<svg height="580.031" width="500" xmlns="http://www.w3.org/2000/svg"><path d="M250.002 574.844C76.734 557.465 13.985 456.502 5.805 314.25 4.782 296.45 4.613 24.746 5.188 5.736h489.627c2.029 22.287 2.673 296.789 1.885 316.953-5.552 141.905-82.09 230.32-246.698 252.155z" fill="#fff"/><path d="M494.813 0H0v330.031c0 137.843 112.147 250 250 250s250-112.157 250-250V0zm-5.186 10.373v319.658c0 132.127-107.5 239.627-239.627 239.627S10.373 462.158 10.373 330.03V10.373z"/><path d="M291.67 68.579c-22.65.064-40.78 8.886-51.856 25.3-7.178 10.637-10.514 18.979-11.717 29.26-.936 7.414-1.174 17.586-1.223 26.943v198.64c-25.648-.05-51.3.068-76.933 0-21.213-.758-27.935-3.9-38.048-14.291v66.986c10.113-10.392 16.835-13.534 38.048-14.292 25.251-.07 52.439-.258 76.933-.258.034 25.25-.131 52.472-.194 74.808-.758 21.213-3.9 27.935-14.292 38.048h66.986c-10.391-10.113-13.533-16.835-14.292-38.048l-.032-12.232c.017-.04.016-.088.032-.129v-62.447c24.479 0 52.113.194 74.84.258 21.213.758 27.936 3.9 38.048 14.292V334.43c-10.112 10.391-16.835 13.533-38.047 14.292-27.494.017-48.435 0-74.84 0l-.065-198.64c.505-20.916 1.617-23.314 4.056-28.134 4.606-9.104 15.003-15.805 24.528-15.805 7.853 0 18.26 3.72 29.196 11.202 2.658 1.818 11.446 9.986 19.539 18.154l14.71 14.84 5.827-5.118c3.201-2.829 9.041-7.983 12.972-11.428l7.146-6.244-3.477-4.475c-5.036-9.498-29.283-32.115-35.215-36.631-17.057-12.987-32.842-17.92-52.63-17.865z" fill-rule="evenodd"/></svg>