<svg height="575.236" width="500" xmlns="http://www.w3.org/2000/svg"><path d="m8.996 11.436 451.546 439.325-16.498 27.496-32.384 32.384-30.551 24.441-58.047 21.997-65.38 10.387-54.38-4.888-66.602-25.052-48.882-31.162-32.995-35.44L29.16 425.71l-17.72-67.212-2.444-62.325z" fill="#0f47af"/><path d="m233.483 230.859-1.079 104.772-66.969 87.486 87.492 114.494 81.007-118.81-69.127-85.334v-72.363z" fill="#fff200" fill-rule="evenodd"/><path d="m-6033.71 1828.22 169.95-1.75 141.91-108.63 185.72 141.92-192.72 131.41-138.42-112.14h-117.38z" fill="#fcdd09" stroke="#000" stroke-miterlimit="22.926" stroke-width="10.289" transform="matrix(0 .61649 .61649 0 -893.594 3950.578)"/><path d="m249.684 357.233-48.603 62.647 49.682 70.206 49.69-69.127z" fill="#0f47af" fill-rule="evenodd"/><path d="m-5828.72 1854.5 101.62-78.84 113.88 80.6-112.13 80.59z" fill="none" stroke="#000" stroke-miterlimit="22.926" stroke-width="10.289" transform="matrix(0 .61649 .61649 0 -893.594 3950.578)"/><path d="m8.255 9.342 482.816 1.085v332.676l-6.48 43.21-20.523 49.682-5.671 12.552z" fill="#fcdd09" fill-rule="evenodd"/><path d="m8.255 9.342 482.816 1.085v332.676l-6.48 43.21-20.523 49.682-5.671 12.552z" fill="none" stroke="#000" stroke-miterlimit="22.926" stroke-width="1.5412500000000002"/><path d="m447.522 120.242-105.956.506-16.208 3.643-3.415 11.146.284 155.423 7.28 6.59h131.775l1.473-149.054-13.384-.132-3.957-7.207-2.559-9.715 4.667-11.202" fill="#0f47af" fill-rule="evenodd"/><path d="M124.143 205.7c19.099 0 34.677 15.579 34.677 34.683 0 19.1-15.578 34.678-34.677 34.678-19.105 0-34.684-15.579-34.684-34.678 0-19.104 15.579-34.683 34.684-34.683" fill="#fcdd09" fill-rule="evenodd"/><path d="M124.143 205.7c19.099 0 34.677 15.579 34.677 34.683 0 19.1-15.578 34.678-34.677 34.678-19.105 0-34.684-15.579-34.684-34.678 0-19.104 15.579-34.683 34.684-34.683z" fill="none" stroke="#000" stroke-miterlimit="22.926" stroke-width="6.34375"/><path d="M80.539 272.496c19.098 0 34.677 15.579 34.677 34.678 0 19.105-15.579 34.677-34.677 34.677-19.105 0-34.678-15.572-34.678-34.677 0-19.099 15.573-34.678 34.678-34.678" fill="#fcdd09" fill-rule="evenodd"/><path d="M80.539 272.496c19.098 0 34.677 15.579 34.677 34.678 0 19.105-15.579 34.677-34.677 34.677-19.105 0-34.678-15.572-34.678-34.677 0-19.099 15.573-34.678 34.678-34.678z" fill="none" stroke="#000" stroke-miterlimit="22.926" stroke-width="6.34375"/><path d="M167.74 272.496c19.1 0 34.678 15.579 34.678 34.678 0 19.105-15.578 34.677-34.677 34.677-19.105 0-34.684-15.572-34.684-34.677 0-19.099 15.579-34.678 34.684-34.678" fill="#fcdd09" fill-rule="evenodd"/><path d="M167.74 272.496c19.1 0 34.678 15.579 34.678 34.678 0 19.105-15.578 34.677-34.677 34.677-19.105 0-34.684-15.572-34.684-34.677 0-19.099 15.579-34.678 34.684-34.678z" fill="none" stroke="#000" stroke-miterlimit="22.926" stroke-width="6.34375"/><path d="M233.082 229.675V85.799c-1.99-67.937 94.897-81.92 111.141-16.263 11.11 38.537-29.924 47.957-33.34 10.277 3.983-21.41-38.53-36.823-46.514 2.57v178.122z" fill="#00adef" fill-rule="evenodd"/><g stroke="#000" stroke-miterlimit="22.926"><path d="M233.082 229.675V85.799c-1.99-67.937 94.897-81.92 111.141-16.263 11.11 38.537-29.924 47.957-33.34 10.277 3.983-21.41-38.53-36.823-46.514 2.57v178.122z" fill="#0f47af" stroke-width="6.34375"/><path d="m9.95 11.302 449.268 439.54" fill="none" stroke-width="7.46"/><path d="M8.736 8.732h482.532v309.144c.53 342.7-485.275 320.118-482.174 0L8.736 8.732z" fill="none" stroke-width="7.46375"/><path d="M379.27 268.206h51.297v-85.634H379.27z" fill="none" stroke-width="6.34375"/><path d="M321.992 137.19v138.722c-1.997 19.702 7.12 22.273 24.79 23.136h116.27V148.372H345.073c-32.773-.303-30.208-30.01 0-27.452H453.65M346.781 148.317v150.72M355.332 156.886l17.99 17.983M453.65 155.166l-18.446 18.445M372.434 275.912l-15.03 15.03M435.698 275.061l15.831 15.831M339.088 130.334h105.16M346.781 138.897H445.1" fill="none" stroke-width="6.34375"/><path d="M451.387 119.903c-9.37 9.093-11.738 18.47-1.424 27.57" fill="none" stroke-width="6.34375"/></g></svg>