<svg xmlns="http://www.w3.org/2000/svg" width="492.945" height="599.651" viewBox="0 0 130.425 158.658"><path style="fill:#fff;fill-rule:evenodd;stroke:none;stroke-width:2.11666656;stroke-linecap:round;stroke-linejoin:round;stroke-miterlimit:4;stroke-dasharray:none;stroke-opacity:1" d="m114.602-169.867-.293 94.538c-1.428 37.541-29.644 61.982-63.861 62.003-34.187-.046-62.413-24.497-63.86-62.003l-.294-94.538h64.152z" transform="translate(14.765 170.925)"/><path style="opacity:.98999999;fill:#000;fill-opacity:1;fill-rule:evenodd;stroke:none;stroke-width:.26499999;stroke-linecap:round;stroke-linejoin:round;stroke-miterlimit:4;stroke-dasharray:none;stroke-opacity:1;paint-order:fill markers stroke" d="M35.267-148.935a11.6 11.6 0 0 0-2.136 2.068c-1.787 2.24-2.675 5.044-3.602 7.755-.66 1.932-1.36 3.858-1.795 5.853-.434 1.996-.597 4.08-.175 6.078.107.506.252 1.006.476 1.472.225.466.532.897.93 1.226.59.487 1.345.726 2.093.882.749.157 1.515.242 2.243.475.518.166 1.017.409 1.428.764.412.355.732.829.85 1.36.123.558.015 1.15-.21 1.676-.226.526-.565.995-.919 1.445-.67.851-1.407 1.65-2.059 2.516-.719.955-1.34 2.008-1.627 3.169a6.143 6.143 0 0 0-.084 2.494L1.064-58.4a2.385 2.385 0 0 0 .875 3.265 2.385 2.385 0 0 0 3.265-.875l30.187-52.29c.033-.059.063-.119.09-.178.2.025.398.038.6.025.275-.018.548-.082.797-.202.248-.12.47-.298.63-.523.238-.332.331-.747.366-1.155.035-.407.018-.817.065-1.223.096-.833.454-1.608.77-2.385.636-1.561 1.125-3.197 2.003-4.637.162-.265.341-.527.59-.713.124-.093.265-.166.416-.202a.857.857 0 0 1 .46.01c.186.06.345.191.451.354.106.164.162.357.177.551.028.389-.104.77-.253 1.13-.293.707-.66 1.385-.886 2.116-.22.714-.3 1.471-.212 2.213.087.74.345 1.464.766 2.08.358.527.835.974 1.389 1.287a3.837 3.837 0 0 0 1.823.5c1.02.015 2.044-.424 2.71-1.196.389-.448.659-1.016.674-1.609a1.922 1.922 0 0 0-.176-.863 1.643 1.643 0 0 0-.57-.669c-.415-.275-.933-.33-1.409-.476a1.453 1.453 0 0 1-.451-.21.667.667 0 0 1-.27-.408.707.707 0 0 1 .034-.334c.034-.107.086-.208.135-.31 1.159-2.361 1.542-5.04 1.532-7.67-.014-3.824-.827-7.616-2.07-11.232-1.32-3.836-3.152-7.54-5.793-10.62a24.277 24.277 0 0 0-4.512-4.086z" transform="translate(14.765 170.925)"/><path style="opacity:.98999999;fill:#090;fill-opacity:1;fill-rule:evenodd;stroke:none;stroke-width:1.00157475;stroke-linecap:round;stroke-linejoin:round;stroke-miterlimit:4;stroke-dasharray:none;stroke-opacity:1;paint-order:fill markers stroke" d="M189.314 89.352a71.315 71.315 0 0 0-7.568 10.904c-4.145 7.352-6.949 15.367-10.086 23.203-2.897 7.237-6.117 14.431-7.5 22.103-.691 3.837-.911 7.778-.379 11.64.533 3.86 1.834 7.644 4.02 10.872a22.185 22.185 0 0 0 6.535 6.319c3.8 2.39 8.218 3.566 12.56 4.705 1.61.422 3.234.85 4.727 1.586 1.493.735 2.866 1.81 3.676 3.265.697 1.253.938 2.717.933 4.15-.004 1.435-.242 2.857-.45 4.276-.575 3.904-.95 3.938-1.807 5.756-1.463 3.098-3.5 5.912-5.614 8.61-1.756 2.242-4.257 3.871-5.832 6.245-1.413 2.132-2.591 4.506-3.129 7.006-.296 1.38-.79 3.056-.013 4.235 1.453 2.201 4.871 2.023 7.285 3.087.723.32 1.385.816 2.156.989.782.175 1.634.245 2.404.023.563-.161 1.06-.537 1.48-.945.47-.456.927-.992 1.104-1.621.518-1.836-.582-3.834-.275-5.717.322-1.974 1.346-3.773 2.182-5.59 1.345-2.924 3.103-5.639 4.547-8.516 2.12-4.225 2.861-9.331 6.037-12.833 1.281-1.414 3.11-2.284 4.916-2.93 1.805-.647 3.796-.859 5.654-.387 1.3.33 2.525 1.001 3.437 1.984 1.245 1.342 1.842 3.19 1.96 5.016.116 1.827-.209 3.652-.61 5.438-1.39 6.19-3.711 12.4-2.898 18.693.19 1.467.552 2.922 1.197 4.254.645 1.332 1.58 2.54 2.787 3.394 1.397.989 3.134 1.473 4.844 1.4 1.71-.071 3.385-.69 4.758-1.712.763-.568 1.437-1.263 1.931-2.076.494-.813.803-1.748.824-2.7.02-.877-.216-1.777-.76-2.466a2.913 2.913 0 0 0-1.011-.823 2.516 2.516 0 0 0-1.275-.251c-.576.042-1.114.294-1.63.554-.515.26-1.036.536-1.605.635-.69.12-1.413-.035-2.027-.371-.615-.336-1.124-.844-1.52-1.422-.55-.806-.884-1.744-1.076-2.701-.192-.957-.245-1.937-.266-2.912-.216-10.401 3.115-20.525 4.32-30.858 1.765-15.115-1.08-30.523-6.503-44.742-4.725-12.389-11.398-24.02-19.566-34.465a139.485 139.485 0 0 0-12.874-14.304zm2.3 10.238a10.317 10.317 0 0 1 6.904 3.836c2.045 2.604 2.695 6.004 3.99 9.053a22.388 22.388 0 0 0 7.058 9.052 11.675 11.675 0 0 1-6.29-3.988c-1.623-2.014-2.522-4.501-3.368-6.945-.846-2.444-1.689-4.943-3.23-7.02a12.375 12.375 0 0 0-5.065-3.988zm19.345 29.02a7.781 7.781 0 0 1 4.43 3.992c1.07 2.27.984 4.897 1.43 7.37a17.073 17.073 0 0 0 3.681 7.883 8.822 8.822 0 0 1-3.955-4.003c-.857-1.763-1.106-3.756-1.322-5.707-.217-1.952-.424-3.942-1.211-5.737a9.372 9.372 0 0 0-3.053-3.799zm-10.512 20.824a34.054 34.054 0 0 1 7.186 13.656c1.376 5.284 1.456 10.842.834 16.267a64.325 64.325 0 0 1-2.09 10.454 30.735 30.735 0 0 0-2.635-14.078 70.964 70.964 0 0 0-5.558 14.908c.284-5.321.718-10.634 1.302-15.93.557-5.045 1.25-10.084 1.397-15.158a70.484 70.484 0 0 0-.436-10.12zm19.461 8.13a7.782 7.782 0 0 1 3.682 4.692c.666 2.42.134 4.992.15 7.506a17.073 17.073 0 0 0 2.28 8.396 8.823 8.823 0 0 1-3.213-4.62c-.544-1.884-.447-3.889-.327-5.849.12-1.959.256-3.956-.212-5.859a9.377 9.377 0 0 0-2.36-4.266zm-37.402 70.13c-2.439-.091-5.5 2.095-7.533 5.617L65.09 423.654c-2.502 4.335-2.47 9.003.068 10.469 2.54 1.466 6.598-.843 9.1-5.178L184.14 238.604c2.502-4.335 2.472-9.005-.067-10.471a3.35 3.35 0 0 0-1.568-.44z" transform="scale(.26458)"/><path style="opacity:.98999999;fill:#000;fill-opacity:1;fill-rule:evenodd;stroke:none;stroke-width:.26458332;stroke-linecap:round;stroke-linejoin:round;stroke-miterlimit:4;stroke-dasharray:none;stroke-opacity:1;paint-order:fill markers stroke" d="M50.448-70.862c-10.198.012-18.556 8.097-18.904 18.29a18.936 18.936 0 0 0-12.582-4.816C8.504-57.388.026-48.91.026-38.45c0 .485.024.964.06 1.44 11.733 14.96 29.988 23.657 50.362 23.685 20.379-.013 38.628-8.689 50.358-23.634.038-.493.064-.989.064-1.491 0-10.459-8.478-18.937-18.937-18.937a18.937 18.937 0 0 0-12.572 4.8c-.356-10.19-8.717-18.267-18.913-18.274zm-30.78 18.293a5.509 5.509 0 1 1 0 11.018 5.509 5.509 0 0 1 0-11.018zm61.56 0a5.509 5.509 0 1 1 0 11.018 5.509 5.509 0 0 1 0-11.018zm-30.78 5.624a5.509 5.509 0 1 1 0 11.017 5.509 5.509 0 0 1 0-11.017zm-19.733 9.841a5.509 5.509 0 1 1 0 11.018 5.509 5.509 0 0 1 0-11.018zm39.466 0a5.509 5.509 0 1 1 0 11.018 5.509 5.509 0 0 1 0-11.018z" transform="translate(14.765 170.925)"/><path style="fill:none;fill-rule:evenodd;stroke:#000;stroke-width:2.11666656;stroke-linecap:round;stroke-linejoin:round;stroke-miterlimit:4;stroke-dasharray:none;stroke-opacity:1" d="m114.602-169.867-.293 94.538c-1.428 37.541-29.644 61.982-63.861 62.003-34.187-.046-62.413-24.497-63.86-62.003l-.294-94.538h64.152z" transform="translate(14.765 170.925)"/><path style="opacity:.98999999;fill:#000;fill-opacity:1;fill-rule:evenodd;stroke:none;stroke-width:.26500002;stroke-linecap:round;stroke-linejoin:round;stroke-miterlimit:4;stroke-dasharray:none;stroke-opacity:1;paint-order:fill markers stroke" d="M-.531-153.979a45.017 45.017 0 0 0-7.389 4.437l6.916 14.257.848-.411 32.42 66.83-3.174 1.54 1.735 3.577L41.033-68.7l-1.736-3.577-3.018 1.463-17.05-35.146 3.544-1.72 1.616 3.333 3.508-1.702-1.617-3.332-1.667-3.437-3.508 1.701-3.543 1.72-13.703-28.246.558-.27-5.3-10.925 1.558-.812 3.837 7.367a45.295 45.295 0 0 1 4.593-2.598c5.073-2.49 10.603-4.017 16.224-4.601 6.819-.709 13.806-.022 20.279 2.238a43.144 43.144 0 0 1 7.175 3.268 26.04 26.04 0 0 0-5.956-7.604c-3.938-3.447-8.876-5.645-13.995-6.733-5.12-1.087-10.423-1.1-15.624-.517-6.12.684-12.185 2.203-17.74 4.852z" transform="translate(14.765 170.925)"/><path style="opacity:.98999999;fill:#009a00;fill-opacity:1;fill-rule:evenodd;stroke:none;stroke-width:.26500002;stroke-linecap:round;stroke-linejoin:round;stroke-miterlimit:4;stroke-dasharray:none;stroke-opacity:1;paint-order:fill markers stroke" d="M-.096-137.99 33.52-68.694l-3.282 1.592 1.123 2.316 8.559-4.152-1.124-2.316-3.244 1.574-17.673-36.43 5.476-2.655 1.565 3.227 1.824-.885-1.565-3.227-.936-1.93-1.824.886-5.475 2.656-15.009-30.937z" transform="translate(14.765 170.925)"/><path style="opacity:.98999999;fill:#009a00;fill-opacity:1;fill-rule:evenodd;stroke:none;stroke-width:1.00157475;stroke-linecap:round;stroke-linejoin:round;stroke-miterlimit:4;stroke-dasharray:none;stroke-opacity:1;paint-order:fill markers stroke" d="M141.371 49.66c-6.02 0-12.036.28-18 .807-23.313 2.059-46.414 7.74-67.494 17.906a168.224 168.224 0 0 0-23.77 13.973l19.567 40.33 11.777-5.713-16.84-34.711 17.963-10.498a76.318 76.318 0 0 1 11.274 31.443 193.295 193.295 0 0 1 39.537-18.092c32.377-10.599 67.778-12.398 100.748-3.818a166.92 166.92 0 0 1 27.334 9.72 115.324 115.324 0 0 0-27.541-22.831C193.622 54.925 167.458 49.66 141.37 49.66zm-97.22 40.408a2.646 2.646 64.597 0 1 2.316 1.512 2.646 2.646 64.597 0 1-1.254 3.522 2.646 2.646 64.597 0 1-3.526-1.252 2.646 2.646 64.597 0 1 1.256-3.528 2.646 2.646 64.597 0 1 1.207-.254zm4.41 9.286a2.646 2.646 64.597 0 1 2.316 1.511 2.646 2.646 64.597 0 1-1.254 3.524 2.646 2.646 64.597 0 1-3.525-1.254 2.646 2.646 64.597 0 1 1.256-3.526 2.646 2.646 64.597 0 1 1.207-.255zm4.406 9.285a2.646 2.646 64.597 0 1 2.318 1.51 2.646 2.646 64.597 0 1-1.254 3.525 2.646 2.646 64.597 0 1-3.525-1.256 2.646 2.646 64.597 0 1 1.256-3.523 2.646 2.646 64.597 0 1 1.205-.256z" transform="scale(.26458)"/><path transform="translate(149.157 170.925)" style="fill:#000;stroke:#000;stroke-width:.26458332px;stroke-linecap:butt;stroke-linejoin:miter;stroke-opacity:1" d="M-58.795-57.489a2.203 2.203 0 0 1-1.07-.771c-.266-.359-.419-.8-.43-1.247-.014-.511.154-1.017.422-1.454.268-.436.632-.806 1.026-1.133.234-.194.481-.374.698-.588.216-.213.405-.465.492-.757a1.299 1.299 0 0 0-.052-.88 10.348 10.348 0 0 0-2.121.208c-.782.158-1.544.408-2.277.724a5.15 5.15 0 0 0-.832.434 2.33 2.33 0 0 0-.668.652c-.153.236-.25.51-.272.79-.022.28.034.567.168.814.177.325.474.565.777.777.393.274.808.517 1.241.724-.44.29-.973.437-1.5.414a3.107 3.107 0 0 1-1.284-.365 5.588 5.588 0 0 1-1.096-.773 3.759 3.759 0 0 1-.672-.728c-.184-.275-.31-.597-.311-.928-.003-.367.145-.719.32-1.042.174-.323.379-.632.508-.976.16-.427.196-.9.103-1.345a1.667 1.667 0 0 1-1.604 0c-.296-.164-.536-.415-.744-.682-.208-.267-.39-.554-.601-.819a4.623 4.623 0 0 0-2.018-1.448 2.379 2.379 0 0 1 1.707-.57c.772.055 1.459.48 2.173.777 1.195.494 2.5.634 3.778.827.644.098 1.288.21 1.94.225.651.015 1.317-.073 1.903-.358.305-.15.583-.348.865-.54.404-.273.818-.532 1.242-.775a2.702 2.702 0 0 0-1.967.155c-.246.121-.472.28-.705.426-.233.146-.477.281-.743.35-.46.119-.955.027-1.39-.165-.434-.192-.819-.479-1.197-.766-.47-.357-.938-.72-1.46-.991-.523-.272-1.109-.45-1.696-.406-.43.031-.844.178-1.274.2a1.483 1.483 0 0 1-.633-.093.905.905 0 0 1-.473-.418 1.428 1.428 0 0 1-.108-.36c-.025-.124-.049-.249-.1-.364a.838.838 0 0 0-.733-.498.838.838 0 0 0-.767.446 1.232 1.232 0 0 1 .672-1.146c.209-.105.449-.149.681-.124.233.025.458.118.64.266.162.13.287.3.423.459.136.158.289.311.482.39.137.056.29.072.438.056.148-.016.292-.062.427-.126.269-.128.5-.321.739-.5.278-.206.573-.395.895-.524a2.059 2.059 0 0 1 1.019-.148c.361.047.697.213 1 .417.301.204.575.447.863.67.27.21.556.403.868.546.312.142.651.233.994.23a2.18 2.18 0 0 0 1.209-.403c.354-.246.64-.58.86-.951.341-.574.522-1.227.666-1.878.144-.65.256-1.312.473-1.942.184-.532.44-1.036.64-1.561.2-.526.346-1.087.291-1.647-.056-.58-.32-1.116-.566-1.644-.245-.528-.48-1.085-.468-1.667.009-.489.192-.96.426-1.388.234-.429.521-.827.764-1.251 1.03-1.803 1.195-3.968 1.135-6.043-.06-2.075-.32-4.161-.049-6.22.164-1.24.518-2.45.674-3.693.156-1.242.095-2.563-.519-3.654-.171-.304-.382-.584-.569-.88a6.436 6.436 0 0 1-.465-.879 1.875 1.875 0 0 0-.88.88c-.104.218-.164.454-.247.681-.083.227-.193.452-.374.612a1.258 1.258 0 0 1-.64.276c-.233.038-.47.033-.705.035-.258.002-.517.011-.773-.017a1.625 1.625 0 0 1-.728-.242 1.194 1.194 0 0 1-.517-.88 2.217 2.217 0 0 1-1.035 1.397c-.272.158-.58.256-.893.277a1.845 1.845 0 0 1-.918-.173 1.752 1.752 0 0 1-.686-.592 1.752 1.752 0 0 1-.297-.857 4.344 4.344 0 0 1-1.914 1.294c-.357.12-.733.192-1.11.178a2.018 2.018 0 0 1-1.063-.334 1.725 1.725 0 0 1-.725-1.19 3.059 3.059 0 0 1-2.276.414 2.76 2.76 0 0 1-1.074-.482 2.343 2.343 0 0 1-.737-.915c-.26-.587-.24-1.29.052-1.862a4.81 4.81 0 0 1-2.018-.673 3.553 3.553 0 0 1-1.025-.904 2.345 2.345 0 0 1-.476-1.27 2.024 2.024 0 0 1 .828-1.706 6.113 6.113 0 0 1-1.086-1.346c-.4-.671-.673-1.444-.621-2.225.043-.643.31-1.265.724-1.759a3.329 3.329 0 0 1 1.76-1.086 2.773 2.773 0 0 1-.88-2.122c.028-.702.346-1.396.886-1.846.41-.34.937-.536 1.469-.543a1.803 1.803 0 0 1-.228-1.404c.121-.472.445-.889.874-1.122.313-.17.68-.244 1.034-.207a5.225 5.225 0 0 1-2.173-.776c-.67-.426-1.25-1.024-1.552-1.76-.127-.31-.204-.65-.155-.982.06-.407.315-.78.673-.983-.483-.468-.933-.97-1.346-1.5-.377-.486-.73-1.009-.88-1.605-.17-.684-.059-1.416.208-2.07a4.625 4.625 0 0 1 1.604-2.017 4.05 4.05 0 0 1-.362-2.121c.098-.964.57-1.902 1.345-2.484a3.155 3.155 0 0 1 1.655-.62c.16-.77.46-1.51.88-2.174.457-.722 1.078-1.368 1.863-1.707.832-.36 1.82-.34 2.638.051a2.38 2.38 0 0 1 1.139-1.862c.643-.383 1.446-.435 2.173-.259a3.83 3.83 0 0 1 1.345.62 1.313 1.313 0 0 1-.18-1.137c.12-.38.426-.695.8-.828.215-.076.45-.094.673-.052a1.524 1.524 0 0 1-.62-1.035c-.054-.416.071-.842.297-1.196.225-.354.545-.64.893-.873.47-.317 1-.546 1.552-.673-.056-.6.053-1.214.31-1.76.228-.481.578-.914 1.035-1.19.43-.259.95-.37 1.449-.31-.068-.688.119-1.4.517-1.966.548-.777 1.482-1.254 2.432-1.293a3.36 3.36 0 0 1 1.552.31 2.71 2.71 0 0 1 1.14-1.083 2.71 2.71 0 0 1 1.55-.262 2.733 2.733 0 0 1 1.967 1.293 4.137 4.137 0 0 1 1.862-.206 3.894 3.894 0 0 1 2.225 1.034c.476.457.827 1.056.932 1.708.057.36.04.733-.052 1.086.33-.02.664.047.962.191.297.145.556.366.745.637.284.407.4.906.466 1.397.068.514.085 1.035.052 1.552.487.103.96.278 1.397.518.341.187.663.416.929.7.266.286.474.63.571 1.007.13.502.054 1.053-.207 1.5a5.188 5.188 0 0 1 2.648-.331c.826.114 1.646.447 2.216 1.056.616.66.89 1.623.712 2.509a3.427 3.427 0 0 1 2.496 1.785c.334.648.45 1.394.413 2.122a5.376 5.376 0 0 1-.051.517 5.612 5.612 0 0 1 1.397 1.863c.262.565.43 1.191.362 1.81a2.514 2.514 0 0 1-.724 1.501c.458.203.855.54 1.128.96.274.42.423.92.424 1.42 0 .518-.153 1.026-.362 1.5a6.54 6.54 0 0 1-.88 1.45c.135.422.239.855.31 1.293.074.448.111.921-.051 1.345-.12.313-.344.58-.61.783a3.2 3.2 0 0 1-.89.459c-.369.13-.751.216-1.139.259-.093.246-.112.52-.052.776.064.274.214.522.393.74.18.218.388.409.59.605.346.336.68.699.882 1.136.102.219.169.455.182.696.014.24-.027.486-.132.703-.108.223-.278.408-.422.61-.072.1-.137.207-.184.322a.844.844 0 0 0-.067.362c.01.188.1.366.223.51.122.143.277.256.435.359.158.103.322.198.471.313.15.115.286.253.371.422.117.23.13.5.092.754-.037.254-.123.5-.195.746a7.697 7.697 0 0 0-.31 2.225 4.33 4.33 0 0 1 1.034 1.707c.101.314.166.643.16.973-.007.33-.089.662-.263.942-.255.408-.71.685-1.19.724a4.743 4.743 0 0 1-.518 3.26c-.268.472-.625.903-1.086 1.19a2.536 2.536 0 0 1-1.524.373c.24.359.337.81.265 1.236-.072.426-.311.82-.655 1.081-.27.205-.603.326-.942.345a1.725 1.725 0 0 1-.973-.241c-.051.5-.273.981-.62 1.345-.31.324-.717.553-1.151.666-.435.112-.896.11-1.333.007a3.022 3.022 0 0 1-1.76-1.19 2.83 2.83 0 0 1-.879 1.345 2.71 2.71 0 0 1-1.071.557c-.393.1-.811.107-1.206.012-.546-.131-1.032-.45-1.448-.828a5.619 5.619 0 0 1-1.397-1.966c-.367.38-.872.623-1.397.673-.315.03-.64-.01-.928-.14a1.372 1.372 0 0 1-.676-.636 1.212 1.212 0 0 1-.104-.725 3.03 3.03 0 0 0-.62.983c-.147.38-.216.783-.274 1.185-.54 3.783-.155 7.646-.606 11.44-.263 2.206-.808 4.414-.57 6.623.155 1.423.633 2.811.622 4.242-.011 1.427-.509 2.817-.518 4.243-.008 1.283.38 2.546.362 3.829a6.091 6.091 0 0 1-.414 2.121c.56.018 1.118.105 1.656.259a6.71 6.71 0 0 1 2.794 1.604c.564.543 1.04 1.194 1.708 1.604.269.165.566.288.877.34.312.052.638.03.933-.081a2.12 2.12 0 0 0 .694-.456 6.19 6.19 0 0 0 .553-.625c.175-.216.35-.434.55-.627.2-.193.429-.362.687-.466.307-.123.648-.149.977-.11.329.038.648.138.955.262.615.246 1.198.586 1.845.728a3.192 3.192 0 0 0 2.277-.362c-.03.408-.176.806-.414 1.138-.32.445-.81.765-1.346.88.164.309.354.604.57.88.135.173.283.341.465.465.284.192.646.266.982.198a1.31 1.31 0 0 0 .83-.56 3.121 3.121 0 0 1-.622 1.759c-.323.43-.762.774-1.261.977a2.824 2.824 0 0 1-1.585.161c-.513-.098-.987-.342-1.436-.61-.449-.27-.883-.566-1.357-.787-.533-.247-1.127-.395-1.708-.31-.38.055-.74.207-1.084.378-.344.17-.68.36-1.037.501-.46.181-.955.276-1.449.26a3.31 3.31 0 0 1-1.81-.622c.451.9 1.21 1.64 2.12 2.07.871.41 1.864.542 2.691 1.035.633.377 1.13.943 1.577 1.529.447.586.858 1.203 1.372 1.73a6.666 6.666 0 0 0 2.277 1.5 7.563 7.563 0 0 0 2.121.518 4.907 4.907 0 0 1-2.018 1.19c-1.295.388-2.767.198-3.88-.569-.646-.445-1.153-1.057-1.66-1.654-.507-.598-1.034-1.198-1.703-1.606-.628-.382-1.349-.576-2.018-.88-.815-.368-1.56-.907-2.122-1.603a5.045 5.045 0 0 1-.983-2.018 1.092 1.092 0 0 0-.362 1.035c.06.306.249.573.465.798.215.226.461.421.673.65.56.605.846 1.404 1.139 2.174.196.515.407 1.039.776 1.448a2.38 2.38 0 0 0 1.81.776 9.088 9.088 0 0 1-2.224-.155c-.997-.194-1.98-.57-2.742-1.242-.533-.47-.937-1.064-1.397-1.604-.56-.655-1.217-1.248-1.604-2.017a3.467 3.467 0 0 1-.362-1.76 9.919 9.919 0 0 0-.518.673c-.338.48-.641 1.017-.672 1.604-.025.459.119.908.258 1.345.214.67.42 1.343.621 2.018-.405-.28-.802-.574-1.19-.88-.595-.469-1.171-.969-1.656-1.552-.194-.233-.376-.486-.465-.776a1.898 1.898 0 0 1-.041-.835c.041-.279.121-.55.196-.82.14-.513.262-1.03.362-1.553-.486.564-1.004 1.1-1.552 1.604-.683.63-1.418 1.217-1.966 1.966a5.22 5.22 0 0 0-.776 1.553z"/><path style="fill:#009800;fill-opacity:1;stroke:none;stroke-width:.99999994px;stroke-linecap:butt;stroke-linejoin:miter;stroke-opacity:1" d="M376.264 39.072a5.936 5.936 0 0 0-1.57.203c-1.022.27-1.966.78-2.835 1.381a14.46 14.46 0 0 0-3.828 3.914 10.577 10.577 0 0 0-.299 1.532c-.136 1.149-.08 2.336.305 3.427.384 1.092 1.116 2.08 2.121 2.655.853.486 1.859.656 2.84.63.981-.025 1.947-.233 2.902-.459 1.198-.282 2.401-.597 3.493-1.166 1.09-.568 2.072-1.418 2.59-2.535.436-.942.517-2.024.349-3.049-.168-1.024-.574-1.995-1.072-2.906-.394-.72-.85-1.412-1.418-2.004-.569-.592-1.254-1.083-2.028-1.357a4.77 4.77 0 0 0-1.55-.266zm-15.737 4.496v.002a7.8 7.8 0 0 0-.902.116c-1.207.218-2.378.655-3.408 1.322-1.03.667-1.915 1.567-2.524 2.633-.771 1.351-1.081 2.952-.916 4.5.166 1.547.8 3.036 1.764 4.257.693.878 1.546 1.617 2.256 2.48.355.433.674.898.906 1.407.232.509.376 1.062.37 1.621a3.2 3.2 0 0 1-.823 2.092 3.2 3.2 0 0 1-2.004 1.018 7.325 7.325 0 0 0-.299-4.674 7.325 7.325 0 0 0-3.09-3.52 6.428 6.428 0 0 0-2.343-.814 5.22 5.22 0 0 0-2.46.25c-1.09.398-2.01 1.197-2.663 2.156-.654.96-1.056 2.074-1.291 3.211-.204.982-.287 1.994-.168 2.99.119.996.446 1.976 1.015 2.801.378.548.854 1.018 1.283 1.527.43.51.82 1.074.977 1.721.166.684.05 1.434-.316 2.035a2.725 2.725 0 0 1-1.662 1.215 6.045 6.045 0 0 0-3.249-3.531 5.701 5.701 0 0 0-2.93-.453 5.187 5.187 0 0 0-2.72 1.158c-.812.682-1.39 1.625-1.691 2.642-.301 1.018-.33 2.105-.145 3.149a8.015 8.015 0 0 0 3.672 5.369 5.679 5.679 0 0 0-3.162-.475 5.674 5.674 0 0 0-2.91 1.323c-1.223 1.058-1.947 2.628-2.12 4.236-.257 2.404.723 4.907 2.544 6.498a12.578 12.578 0 0 1 3.671-3.814c2.624-1.762 5.9-2.478 9.04-2.12 1.39.16 2.764.524 4.013 1.153 1.25.629 2.373 1.528 3.192 2.662 1.39 1.924 1.818 4.508 1.128 6.78.63.43 1.407.644 2.168.593a3.452 3.452 0 0 0 1.46-.447 9.217 9.217 0 0 1-.844-3.38c-.1-2 .461-3.993 1.361-5.782.51-1.013 1.147-1.995 2.063-2.662a3.941 3.941 0 0 1 1.537-.694 3.035 3.035 0 0 1 1.673.123c.734.282 1.33.899 1.588 1.64a2.756 2.756 0 0 1-.226 2.272c-.35.594-.914 1.036-1.518 1.367-.603.332-1.254.568-1.885.846-.942.415-1.86.938-2.552 1.7a4.923 4.923 0 0 0-1.21 2.511 4.915 4.915 0 0 0 .104 2.01c.184-.111.36-.235.52-.379.438-.395.767-.896 1.082-1.395.315-.499.626-1.008 1.037-1.431.745-.768 1.786-1.207 2.848-1.34 1.049-.132 2.119.019 3.136.31a6.356 6.356 0 0 1 2.01-3.347c.55-.475 1.182-.853 1.701-1.361a4.617 4.617 0 0 0 1.305-2.477 4.618 4.618 0 0 0-.379-2.773 4.622 4.622 0 0 0-1.922-2.038 4.61 4.61 0 0 0-1.924-.55 7.593 7.593 0 0 1 4.11 1.373c1.318.934 2.327 2.286 3.744 3.062a5.471 5.471 0 0 0 3.056.656 5.274 5.274 0 0 0 2.897-1.166 5.808 5.808 0 0 0 1.566-2.07 7.678 7.678 0 0 0 .645-2.523c.182-2.04-.328-4.098-1.19-5.955-.518-1.119-1.171-2.187-2.04-3.061a7.904 7.904 0 0 0-3.813-2.117 7.904 7.904 0 0 0-4.354.246 6.855 6.855 0 0 1 3.123-2.555 6.857 6.857 0 0 1 4.022-.338c1.88.415 3.518 1.624 4.734 3.116 1.217 1.491 2.049 3.258 2.75 5.05.648 1.656 1.2 3.373 1.309 5.147.109 1.774-.26 3.625-1.309 5.06-.79 1.08-1.91 1.866-3.06 2.551-1.863 1.11-3.962 2.03-6.125 1.871a6.583 6.583 0 0 1-3.063-1.02 16.05 16.05 0 0 0-1.87 4.762 15.991 15.991 0 0 0-.34 3.987c1.225 1.366 2.2 2.966 3.122 4.562a142.727 142.727 0 0 1 3.391 6.217 13.827 13.827 0 0 1 6.074-7.062c1.597-.9 3.362-1.476 4.944-2.403.542-.318 1.064-.679 1.511-1.12.448-.443.82-.97 1.032-1.563.216-.61.255-1.272.195-1.916-.06-.644-.217-1.275-.387-1.899-.34-1.248-.738-2.538-.515-3.812a4.065 4.065 0 0 1 1.058-2.098 4.068 4.068 0 0 1 2.049-1.152 4.38 4.38 0 0 0-.182 2.578c.2.851.665 1.637 1.313 2.224.573.52 1.272.876 1.965 1.22.693.342 1.398.685 1.99 1.183a4.44 4.44 0 0 1 1.426 2.195c.235.855.189 1.79-.157 2.608-.3.712-.813 1.316-1.373 1.85-.56.533-1.173 1.006-1.734 1.538-.552.523-1.055 1.107-1.42 1.774-.365.666-.587 1.422-.557 2.181.045 1.103.619 2.135 1.391 2.922.772.788 1.733 1.36 2.705 1.881 1.282.687 2.603 1.3 3.955 1.836a5.741 5.741 0 0 1-3.115 1.453 5.738 5.738 0 0 1-3.383-.605c-.745-.391-1.39-.94-2.082-1.42-.69-.48-1.459-.902-2.297-.98-.742-.07-1.493.14-2.14.509-.648.37-1.197.893-1.672 1.467-1.717 2.074-2.485 4.789-2.764 7.467-.279 2.678-.115 5.38-.203 8.072-.034 1.034-.103 2.079.098 3.094.1.507.27 1.004.533 1.449.263.445.623.836 1.064 1.105.58.354 1.267.482 1.942.557.674.075 1.36.104 2.013.29a4.398 4.398 0 0 1 2.825 2.544 10.205 10.205 0 0 0-4.52.283c-1.398.413-2.728 1.15-3.672 2.26-.878 1.033-1.39 2.363-1.474 3.717-.085 1.353.249 2.724.908 3.91.617 1.11 1.5 2.047 2.3 3.035.227.28.443.57.65.867a6.14 6.14 0 0 0 .884-2.365c.098-.671.086-1.354.164-2.027.078-.674.257-1.36.687-1.885.351-.428.84-.718 1.326-.98.488-.264.99-.514 1.395-.891.05-.048.092-.104.139-.155.046-1.146.166-2.289.373-3.418.332.56.467 1.232.375 1.875a2.9 2.9 0 0 1-.748 1.543c-.037.902-.03 1.805.033 2.706.065.924.181 1.848.158 2.775-.023.927-.196 1.87-.67 2.668a4.413 4.413 0 0 1-.85 1.021 5.136 5.136 0 0 1-2.248 1.164c.043.142.1.279.13.424.223 1.097.049 2.242-.305 3.303s-.884 2.055-1.39 3.053a85.885 85.885 0 0 0-1.696 3.531 6.536 6.536 0 0 1 4.455.129 6.532 6.532 0 0 1 3.314 2.978c.636 1.2.876 2.564 1.334 3.842.23.64.518 1.262.922 1.807.404.545.93 1.011 1.557 1.273.54.226 1.15.292 1.719.15.567-.14 1.086-.496 1.388-.997.199-.33.303-.71.346-1.092.043-.382.03-.768.01-1.153-.04-.768-.1-1.57.21-2.275a2.341 2.341 0 0 1 1.169-1.18 2.338 2.338 0 0 1 1.656-.091 6.508 6.508 0 0 0 .283 4.802c.491 1.038 1.254 1.93 2.12 2.684 1.061.927 2.308 1.673 3.683 1.986 1.374.314 2.883.164 4.084-.574.934-.574 1.632-1.461 2.238-2.375.606-.914 1.144-1.878 1.857-2.71.925-1.08 2.153-1.919 3.532-2.26 1.4-.348 2.905-.17 4.244.368 1.339.539 2.52 1.423 3.525 2.458.886.91 1.641 1.938 2.453 2.916.812.977 1.696 1.917 2.774 2.591a7.585 7.585 0 0 0 4.277 1.131 7.917 7.917 0 0 0 4.197-1.412c.811-.564 1.539-1.315 1.838-2.256.15-.47.187-.982.073-1.463a2.181 2.181 0 0 0-.78-1.226c-.445-.339-1.015-.47-1.572-.514-.557-.043-1.12-.008-1.678-.05a5.94 5.94 0 0 1-4.379-2.544 5.501 5.501 0 0 0 3.659-.207 5.5 5.5 0 0 0 2.699-2.476c.661-1.253.782-2.765.38-4.121a6.907 6.907 0 0 0 1.74 2.265 6.911 6.911 0 0 0 3.53 1.574c1.372.185 2.81-.063 4.006-.761 1.196-.699 2.13-1.857 2.49-3.194.336-1.242.177-2.567-.14-3.814a15.528 15.528 0 0 0-2.543-5.367 8.212 8.212 0 0 0 4.238-3.815c.697-1.34 1.009-2.867.988-4.379-.038-2.713-1.118-5.317-2.543-7.627a26.39 26.39 0 0 0-3.248-4.238 8.398 8.398 0 0 0 4.49-2.523 8.394 8.394 0 0 0 2.149-4.68 8.609 8.609 0 0 0-.66-4.396 9.087 9.087 0 0 0-2.73-3.514 8.627 8.627 0 0 0-3.35-1.625 7.49 7.49 0 0 0-3.713.07 7.079 7.079 0 0 0-4.377 3.674 3.99 3.99 0 0 1-1.488-2.61 3.988 3.988 0 0 1 .78-2.9c.634-.826 1.56-1.363 2.401-1.976.698-.51 1.354-1.087 1.883-1.77.53-.683.93-1.478 1.084-2.328a4.813 4.813 0 0 0-.248-2.543 5.585 5.585 0 0 0-1.447-2.117c-1.108-1.02-2.588-1.6-4.09-1.713-1.502-.113-3.021.226-4.385.865a10.43 10.43 0 0 0-3.955 3.248 5.55 5.55 0 0 1-1.084-3.51 5.552 5.552 0 0 1 1.367-3.41c.688-.782 1.58-1.35 2.418-1.968.839-.619 1.658-1.328 2.102-2.27.353-.75.444-1.61.314-2.428-.13-.818-.475-1.596-.943-2.279-.937-1.367-2.335-2.34-3.75-3.203-1.565-.954-3.273-1.832-5.106-1.856-.916-.01-1.845.202-2.62.69-.777.488-1.387 1.262-1.596 2.154-.167.709-.08 1.461.148 2.153.228.691.59 1.33.98 1.945.714 1.122 1.531 2.184 2.143 3.365.612 1.181 1.016 2.521.824 3.838-.14.97-.593 1.863-1.027 2.742-.434.88-.862 1.789-.95 2.766-.101 1.138.269 2.264.72 3.314.45 1.05.99 2.073 1.257 3.184.407 1.69.151 3.5-.529 5.1-.68 1.599-1.765 3-3.002 4.222-1.627 1.606-3.55 2.933-5.69 3.74-2.138.808-4.497 1.082-6.74.639-1.574-.311-3.095-.984-4.289-2.057-1.193-1.073-2.04-2.562-2.209-4.158a5.837 5.837 0 0 1 .848-3.672 10.856 10.856 0 0 0 3.248 4.096c.76.585 1.607 1.072 2.527 1.346.92.274 1.919.328 2.842.066 1.012-.287 1.888-.935 2.627-1.683.74-.75 1.36-1.604 2.033-2.413.711-.855 1.485-1.667 2.063-2.617.577-.95.95-2.078.763-3.174-.136-.796-.566-1.528-1.152-2.084-.586-.555-1.322-.94-2.098-1.166-1.12-.325-2.305-.322-3.472-.345-1.167-.023-2.36-.077-3.447-.5a5.36 5.36 0 0 1-2.42-1.89 5.358 5.358 0 0 1-.971-2.913 9.244 9.244 0 0 0 6.215 3.107 8.634 8.634 0 0 0 3.81-.568 7.713 7.713 0 0 0 3.112-2.258 7.532 7.532 0 0 0 1.54-3.287c.24-1.199.19-2.452-.128-3.633-.656-2.434-2.486-4.516-4.803-5.51a8.615 8.615 0 0 0-6.18-.208 8.619 8.619 0 0 0-4.697 4.023 3.39 3.39 0 0 1-.838-2.709 3.389 3.389 0 0 1 1.545-2.377c.932-.579 2.077-.664 3.172-.727 1.095-.062 2.237-.13 3.184-.685.69-.405 1.226-1.05 1.57-1.774.344-.723.504-1.522.549-2.322a8.344 8.344 0 0 0-1.487-5.226 8.008 8.008 0 0 0-4.445-3.108c-1.897-.502-4.016-.238-5.65.848a6.385 6.385 0 0 0-2.684 3.955 3.623 3.623 0 0 1-2.527-2.191 3.62 3.62 0 0 1 .408-3.319c.394-.562.943-.998 1.498-1.402.555-.404 1.13-.79 1.61-1.281 1.027-1.056 1.528-2.515 1.835-3.955.333-1.56.472-3.195.067-4.737a5.97 5.97 0 0 0-1.03-2.14 4.673 4.673 0 0 0-1.86-1.457 4.242 4.242 0 0 0-3.075-.069 4.238 4.238 0 0 0-2.293 2.047 6.894 6.894 0 0 1 4.8 2.117 4.24 4.24 0 0 0-1.65 3.897c.1.795.433 1.561.946 2.177a12.769 12.769 0 0 1-4.096-3.955c-.566-.87-1.028-1.815-1.272-2.824-.228-.947-.268-1.956-.707-2.826a3.378 3.378 0 0 0-1.345-1.41l-.002-.002c.275-.008.55-.038.816-.106a3.84 3.84 0 0 0 2.227-1.59c.673-1.021.813-2.312.705-3.53-.153-1.73-.79-3.437-1.938-4.739-1.147-1.302-2.823-2.165-4.558-2.182-1.004-.01-2 .257-2.905.692-.904.435-1.719 1.035-2.463 1.709-2.027 1.836-3.549 4.226-5.793 5.79-1.777 1.24-3.917 1.887-6.072 2.12-1.502.162-3.048.13-4.49-.322-1.442-.452-2.78-1.353-3.563-2.645-.777-1.283-.957-2.824-1.298-4.285-.171-.73-.388-1.455-.74-2.117-.353-.662-.85-1.261-1.493-1.649-.519-.313-1.117-.479-1.72-.533a6.07 6.07 0 0 0-.909-.008zm31.563 4.057c.81.233 1.497.866 1.793 1.656.296.79.196 1.72-.262 2.428-.298.46-.728.821-1.18 1.133-.451.312-.93.582-1.37.908a6.767 6.767 0 0 0-2.553 3.912 3.784 3.784 0 0 1-1.207-2.973 3.785 3.785 0 0 1 1.548-2.81c.405-.29.861-.496 1.307-.717.446-.221.89-.465 1.244-.814.35-.345.603-.789.723-1.266s.104-.988-.043-1.457zm-32.55 1.803c.54.3 1.006.854 1.308 1.554.302.7.438 1.542.379 2.358-.087 1.186-.596 2.295-1.327 2.892-.802-.944-1.262-2.441-1.205-3.914.042-1.06.344-2.096.844-2.89zm35.272 27.119c.763.3 1.424.856 1.85 1.557.426.7.617 1.541.533 2.357a3.85 3.85 0 0 1-1.87 2.89 4.83 4.83 0 0 1-1.702-3.912 4.796 4.796 0 0 1 1.19-2.892zm-42.687 3.56c.343.012.685.071 1.01.182 1.021.348 1.853 1.195 2.21 2.213.266.754.277 1.593.034 2.353a3.729 3.729 0 0 1-1.393 1.899 5.84 5.84 0 0 0-1.021-3.063 5.865 5.865 0 0 0-3.572-2.38 3.49 3.49 0 0 1 1.714-1.084c.331-.09.675-.13 1.018-.12zm-30.057 8.2c-1.174-.02-2.354.204-3.482.548-1.75.535-3.469 1.409-4.58 2.864-.611.8-1.015 1.747-1.248 2.726-.233.98-.3 1.994-.28 3a17.846 17.846 0 0 0 1.528 6.871 5.699 5.699 0 0 1-4.2-2.671c-.62-1.027-.896-2.22-1.288-3.354-.197-.567-.426-1.127-.74-1.639-.315-.511-.718-.974-1.217-1.306-.603-.4-1.328-.596-2.051-.612-.723-.015-1.444.144-2.117.407-1.348.524-2.497 1.443-3.659 2.304-1.63 1.209-3.34 2.342-4.699 3.85-.679.754-1.264 1.6-1.66 2.533-.396.934-.599 1.96-.512 2.97.094 1.09.524 2.137 1.17 3.018.647.882 1.505 1.598 2.457 2.135 1.567.884 3.407 1.31 4.772 2.483a5.492 5.492 0 0 1 1.654 2.521c.302.973.325 2.03.064 3.014a11.441 11.441 0 0 1-3.054-1.528c-1.249-.879-2.306-1.998-3.467-2.99-1.16-.992-2.478-1.88-3.979-2.162-1.205-.227-2.471-.042-3.595.45-1.124.49-2.107 1.28-2.893 2.222-1.58 1.895-2.358 4.404-2.29 6.871.027 1.027.197 2.057.568 3.016.37.958.948 1.844 1.722 2.52a5.424 5.424 0 0 0 3.182 1.325 5.114 5.114 0 0 0 3.306-.943c.64-.464 1.16-1.073 1.684-1.664.525-.591 1.074-1.18 1.754-1.582a4.16 4.16 0 0 1 2.576-.549 4.173 4.173 0 0 1 2.387 1.123 59.584 59.584 0 0 1-3.246 2.672c-1.457 1.116-3.003 2.182-4.772 2.672-2.475.685-5.274.108-7.254-1.527-.56-.464-1.066-1.011-1.716-1.336a3.22 3.22 0 0 0-1.655-.32 3.755 3.755 0 0 0-1.613.507c-.983.57-1.693 1.543-2.092 2.608-.399 1.064-.506 2.217-.478 3.353.027 1.136.184 2.266.3 3.397.147 1.423.23 2.856.502 4.261.272 1.405.744 2.797 1.598 3.946.759 1.02 1.803 1.818 2.967 2.332 1.163.513 2.443.745 3.715.722 2.757-.049 5.47-1.333 7.254-3.435a8.513 8.513 0 0 1-3.246 4.771c-.934.673-1.993 1.147-3.014 1.678-1.021.531-2.029 1.14-2.776 2.016-.769.902-1.221 2.058-1.324 3.24-.102 1.181.137 2.385.633 3.463.993 2.154 2.965 3.745 5.145 4.681 1.677.721 3.55 1.095 5.345.764a7.19 7.19 0 0 0 3.754-1.973 7.178 7.178 0 0 0 1.643-2.586 9.755 9.755 0 0 0-.244 2.46 9.82 9.82 0 0 0 2.1 5.726 13.156 13.156 0 0 1 3.437-7.063c2.225-2.35 5.359-3.824 8.59-4.007 1.988-.113 4.042.27 5.724 1.336a7.808 7.808 0 0 1 2.674 2.863 8.303 8.303 0 0 1 4.17-3.076 8.294 8.294 0 0 1 5.182.023 8.29 8.29 0 0 1 3.718 2.553 8.294 8.294 0 0 1 1.819 4.129 7.667 7.667 0 0 1 5.916-.764c1.784.507 3.323 1.65 4.67 2.926 1.346 1.275 2.543 2.702 3.92 3.945 2.421 2.187 5.358 3.772 7.634 6.11a16.036 16.036 0 0 1 4.391 9.162 17.472 17.472 0 0 0 .955-9.162c-.76-4.581-3.302-8.64-5.727-12.6-1.4-2.289-2.788-4.601-4.523-6.649-1.735-2.047-3.854-3.835-6.357-4.802-2.26-.873-4.741-1.043-7.157-.852-2.415.191-4.79.73-7.16 1.233-2.43.515-4.943.994-7.379.51-1.814-.362-3.534-1.277-4.758-2.665-1.223-1.387-1.924-3.253-1.796-5.1.097-1.415.66-2.76 1.336-4.007.828-1.528 1.843-2.966 2.482-4.582.858-2.17.994-4.62.38-6.871a7.103 7.103 0 0 1 2.266 3.377 7.11 7.11 0 0 1 .026 4.068c-.363 1.232-1.053 2.338-1.719 3.436-.494.814-.982 1.639-1.299 2.537-.316.898-.452 1.881-.226 2.806a3.827 3.827 0 0 0 1.888 2.432 3.908 3.908 0 0 0 3.075.24 4.201 4.201 0 0 0 1.625-1.04 4.958 4.958 0 0 0 1.046-1.632 5.47 5.47 0 0 0 .293-2.935 8.46 8.46 0 0 0 1.235 2.363c.949 1.267 2.286 2.268 3.816 2.672a5.944 5.944 0 0 0 3.711-.219 5.548 5.548 0 0 0 2.78-2.453c.848-1.554.867-3.405 1.144-5.154.203-1.285.57-2.577 1.338-3.627a5.488 5.488 0 0 1 3.24-2.106 5.493 5.493 0 0 1 3.822.58 6.45 6.45 0 0 0-3.437 2.48 5.23 5.23 0 0 0-.826 1.827 3.833 3.833 0 0 0 .064 1.992c.175.547.49 1.047.899 1.45.409.402.91.707 1.45.902 1.08.39 2.296.328 3.376-.063 1.293-.467 2.395-1.382 3.236-2.47.841-1.089 1.437-2.348 1.918-3.637.393-1.053.717-2.145.777-3.268.061-1.122-.158-2.284-.777-3.222-.583-.884-1.48-1.515-2.426-1.992-.945-.478-1.952-.819-2.918-1.252-1.19-.535-2.347-1.239-3.117-2.291a4.968 4.968 0 0 1-.892-3.627 10.775 10.775 0 0 0 2.482 1.908c2.182 1.22 4.773 1.646 7.254 1.338 1.245-.155 2.48-.495 3.568-1.121 1.088-.627 2.023-1.554 2.54-2.698.546-1.21.597-2.624.199-3.89-.399-1.267-1.233-2.381-2.3-3.172-.623-.462-1.335-.822-2.099-.955-.762-.133-1.552-.038-2.29.191-.95.292-1.82.793-2.71 1.233-.89.44-1.834.826-2.826.867a4.243 4.243 0 0 1-2.201-.518 4.241 4.241 0 0 1-1.617-1.582 5.14 5.14 0 0 0 3.627 0 4.65 4.65 0 0 0 2.08-1.55c.52-.705.815-1.582.783-2.458-.029-.766-.302-1.512-.717-2.156-.415-.644-.97-1.191-1.574-1.662-.753-.587-1.6-1.063-2.52-1.322-.919-.26-1.911-.293-2.824-.016-1.291.394-2.363 1.418-2.863 2.672a4.808 4.808 0 0 0-.065 3.355 4.803 4.803 0 0 0 2.164 2.563 4.586 4.586 0 0 1-3.054-.764c-.746-.509-1.32-1.224-1.909-1.908-.707-.82-1.453-1.612-2.1-2.482a13.66 13.66 0 0 1-.763-1.145 6.502 6.502 0 0 0-1.908 2.863c-.523 1.584-.415 3.296-.383 4.963a51.312 51.312 0 0 1-.19 5.535 9.24 9.24 0 0 1-3.58-2.845 9.233 9.233 0 0 1-1.765-4.217c-.277-1.9.065-3.894 1.014-5.563.949-1.668 2.51-2.993 4.332-3.6 1.839-.611 3.844-.493 5.726-.954 2.636-.646 4.968-2.5 6.108-4.963.56-1.21.836-2.563.699-3.889-.137-1.326-.704-2.62-1.654-3.555-.811-.797-1.871-1.312-2.975-1.585-1.104-.274-2.253-.317-3.389-.26-1.694.085-3.407.402-4.898 1.21a8.107 8.107 0 0 0-3.983 5.249 8.108 8.108 0 0 0 1.311 6.457 7.012 7.012 0 0 1-3.752-2.735c-.796-1.162-1.223-2.55-1.402-3.947-.155-1.203-.133-2.42-.254-3.627-.122-1.206-.4-2.433-1.082-3.435-.884-1.3-2.387-2.098-3.938-2.354a7.949 7.949 0 0 0-1.17-.103zm-1.879 7.076a6.11 6.11 0 0 1 2.106.23c.68.206 1.32.553 1.836 1.041.585.555.999 1.281 1.224 2.055.226.774.269 1.594.174 2.395a7.217 7.217 0 0 1-1.779 3.94 7.08 7.08 0 0 0 0-3.43 6.983 6.983 0 0 0-1.908-3.307 6.904 6.904 0 0 0-4.957-1.907 7.275 7.275 0 0 1 3.304-1.017zm44.729 2.562a72.736 72.736 0 0 1 1.436 5.951c.363 1.843.654 3.7 1.025 5.541.68 3.38 1.63 6.721 3.078 9.85.951 2.056 2.117 4.02 2.873 6.156 1.361 3.845 1.325 8.045.852 12.096-.474 4.05-1.367 8.05-1.672 12.117-.302 4.026-.024 8.073-.205 12.106-.044.98-.12 1.976-.446 2.902a4.54 4.54 0 0 1-.691 1.293 3.327 3.327 0 0 1-1.121.936c-.759.379-1.665.408-2.479.168-.813-.241-1.536-.739-2.127-1.348-1.18-1.219-1.828-2.838-2.576-4.361-1.91-3.893-4.753-7.476-8.619-9.44a14.992 14.992 0 0 0-9.027-1.435 24.95 24.95 0 0 1 9.44 5.128c2.344 2.04 4.282 4.498 6.154 6.979 2.337 3.099 4.631 6.335 5.746 10.053 1.166 3.893.963 8.045.82 12.107-.423 12.035-.219 24.089-.82 36.115a269.98 269.98 0 0 1-.82 11.49 799.968 799.968 0 0 0 5.745-10.26c.768-1.395 1.537-2.803 2.018-4.321.481-1.519.662-3.172.238-4.707-.465-1.685-1.609-3.096-2.256-4.72-.86-2.156-.777-4.667.205-6.77.601-1.287 1.506-2.4 2.323-3.561.816-1.162 1.565-2.423 1.781-3.826.15-.974.032-1.974-.205-2.93-.238-.956-.593-1.878-.932-2.803-.338-.925-.663-1.86-.83-2.832-.167-.97-.171-1.986.12-2.928.237-.77.664-1.468 1.13-2.127.466-.658.976-1.285 1.404-1.968.43-.683.778-1.432.885-2.23.108-.8-.049-1.657-.547-2.292-.285-.363-.665-.638-1.037-.912-.372-.274-.747-.56-1.015-.935-.307-.43-.454-.96-.473-1.487-.02-.527.085-1.053.25-1.554.33-1.003.896-1.914 1.25-2.909.302-.85.445-1.748.646-2.629.202-.88.472-1.765.995-2.502.63-.888 1.58-1.495 2.537-2.015.957-.52 1.959-.984 2.799-1.678 1.6-1.323 2.478-3.475 2.257-5.54a12.038 12.038 0 0 1-5.746-.206 12.014 12.014 0 0 1-4.308-2.256 3.928 3.928 0 0 0 1.95-.68 3.924 3.924 0 0 0 1.333-1.578c.294-.636.41-1.346.392-2.047-.018-.7-.168-1.392-.392-2.056-.579-1.712-1.632-3.23-2.258-4.926-.305-.825-.507-1.693-.53-2.572-.022-.88.14-1.769.53-2.557.372-.75.935-1.383 1.434-2.055.498-.671.947-1.42 1.029-2.253.02-.205.017-.413 0-.618-.077-.911-.443-1.769-.684-2.652a5.432 5.432 0 0 1-.214-1.352c-.006-.457.074-.922.28-1.33.265-.52.716-.92 1.173-1.285.456-.364.934-.715 1.29-1.177.313-.407.52-.887.65-1.383.129-.497.184-1.01.218-1.522.067-1.023.048-2.07.363-3.047.317-.981.955-1.83 1.668-2.576.713-.745 1.51-1.405 2.233-2.142a15.005 15.005 0 0 0 3.898-7.182c-2.094.543-4 1.788-5.336 3.488-1.127 1.434-1.852 3.164-3.078 4.514-1.439 1.585-3.467 2.535-4.924 4.103a8.218 8.218 0 0 0-2.053 4.106 193.685 193.685 0 0 0-3.078-9.03c-.901-2.445-1.856-4.879-3.078-7.181a34.092 34.092 0 0 0-2.871-4.516zm-4.568.336a5.316 5.316 0 0 1-1.832 2.108c-.784.522-1.71.83-2.65.88-.698.038-1.395-.062-2.093-.101-.697-.039-1.418-.012-2.058.268a2.795 2.795 0 0 0-1.66 2.324 3.457 3.457 0 0 1 2.822-1.506c1.11 0 2.204.583 2.822 1.506.381.569.583 1.242.684 1.92.101.677.108 1.366.13 2.05.023.685.063 1.373.23 2.038.165.664.465 1.309.948 1.794.613.616 1.465.929 2.307 1.141.842.212 1.71.345 2.508.686a5.21 5.21 0 0 1 2.146 1.73 11.664 11.664 0 0 1-.984-3.224c-.149-1.001-.17-2.032-.498-2.989-.486-1.413-1.59-2.517-2.324-3.818a8.11 8.11 0 0 1-.498-6.807zm4.304 16.838c.203.432.422.854.676 1.258a5.084 5.084 0 0 0-.676-1.258zm-62.006-14.523a6.259 6.259 0 0 1 1.217 2.87 6.27 6.27 0 0 1-.328 3.104c-.366.98-1.006 1.883-1.906 2.414a3.72 3.72 0 0 1-2.975.338 3.719 3.719 0 0 1-2.236-1.99 3.946 3.946 0 0 0 1.986.467 3.956 3.956 0 0 0 1.953-.594c.917-.572 1.57-1.514 1.909-2.54.428-1.3.38-2.701.38-4.07zm97.268.107c-.01.363 0 .727.016 1.09.049.22.117.437.222.637.278.523.744.944 1.293 1.166.4.161.834.219 1.264.248.43.03.862.03 1.289.092.626.088 1.236.3 1.764.648.527.347.97.833 1.24 1.404.27.572.36 1.23.226 1.848a2.522 2.522 0 0 1-1.02 1.543c-.56.382-1.278.502-1.946.389-.669-.114-1.287-.45-1.795-.899-.944-.836-1.496-2.029-1.871-3.232a15.19 15.19 0 0 1-.666-3.844 2.548 2.548 0 0 1-.016-1.09zm-90.951 6.479c.328-.003.658.092.93.277.321.22.553.553.709.91.155.357.237.742.306 1.125.062.345.115.694.254 1.016.25.58.784 1.03 1.399 1.177a2.075 2.075 0 0 0 1.779-.414c.23.467.289 1.015.162 1.52a2.24 2.24 0 0 1-.861 1.264 2.234 2.234 0 0 1-1.473.404 2.24 2.24 0 0 1-1.387-.645c-.435-.438-.667-1.038-.822-1.636-.155-.598-.245-1.214-.45-1.797a4.775 4.775 0 0 0-1.906-2.414 1.626 1.626 0 0 1 1.034-.75c.107-.023.216-.037.326-.037zm11.734 2.312c.686.29 1.26.837 1.584 1.508.324.67.395 1.46.196 2.178-.143.513-.42.988-.797 1.365a3.124 3.124 0 0 1-1.366.797 5.473 5.473 0 0 1-.634-3.307 5.45 5.45 0 0 1 1.017-2.54zm78.537 7.2a21.379 21.379 0 0 0-1.465 4.568c-.052.6-.059 1.202-.01 1.802a10.828 10.828 0 0 0 2.495 6.047c1.046 1.24 2.385 2.244 3.896 2.832 1.512.589 3.196.754 4.78.4 2.283-.509 4.291-2.13 5.273-4.253.68 2.252.152 4.832-1.36 6.635-1.445 1.725-3.704 2.69-5.954 2.722a8.848 8.848 0 0 1-6.123-2.383 9.478 9.478 0 0 1-1.584-1.99c-2.16.012-4.328-.643-6.073-1.92-2.28-1.668-3.804-4.332-4.082-7.144a10.143 10.143 0 0 1 1.362-6.125c-.88 3.124-.16 6.656 1.87 9.187 1.065 1.327 2.446 2.37 3.913 3.233.708.416 1.445.781 2.195 1.117-.047-.118-.103-.231-.146-.35-.542-1.498-.79-3.092-.858-4.683a21.395 21.395 0 0 1 .406-5.127c.142-1.607.64-3.182 1.465-4.569zm35.93 4.359c.535.62.861 1.42.912 2.238a3.823 3.823 0 0 1-.629 2.334 3.849 3.849 0 0 1-3.002 1.686 4.83 4.83 0 0 1 .319-4.254 4.793 4.793 0 0 1 2.4-2.004zm-65.395 5.068a8.836 8.836 0 0 0-3.55 1.774c-.942.779-1.71 1.744-2.516 2.664-1.035 1.181-2.175 2.351-2.662 3.845-.354 1.085-.332 2.256-.229 3.393.103 1.136.284 2.272.229 3.412a8.765 8.765 0 0 1-1.035 3.7 9.185 9.185 0 0 1-3.403 3.548 28.808 28.808 0 0 1 4.29 2.367c1.46.977 2.83 2.087 4.142 3.256a56.255 56.255 0 0 1 4.586 4.586 493.775 493.775 0 0 1 .148-32.545zm-25.615 1.42c.279-.026.564.019.82.13.332.146.615.404.78.725.165.323.21.707.111 1.055a1.48 1.48 0 0 1-.742.897c-.355.183-.778.22-1.164.119a1.65 1.65 0 0 1-.734-.412 1.48 1.48 0 0 1-.41-.73 1.446 1.446 0 0 1 .064-.827 1.5 1.5 0 0 1 .502-.658c.224-.167.495-.27.773-.299zm-24.215 1.58a9.58 9.58 0 0 0-.634 3.686c.052 2.009.736 3.964.761 5.974.014 1.05-.163 2.123-.666 3.045-.251.461-.583.88-.988 1.215-.405.334-.884.58-1.396.697a3.124 3.124 0 0 1-1.668-.082 3.115 3.115 0 0 1-1.383-.933 5.774 5.774 0 0 0 2.797-2.924c.378-.892.523-1.865.609-2.83.086-.965.118-1.936.281-2.89a10.557 10.557 0 0 1 2.287-4.958zm12.329.795a6.4 6.4 0 0 1 1.648.17c1.039.246 2.02.76 2.777 1.514.757.753 1.28 1.75 1.418 2.808a4.119 4.119 0 0 1-.129 1.715 3.494 3.494 0 0 1-.873 1.477c-.41.406-.936.699-1.502.816a2.68 2.68 0 0 1-1.691-.195c-.443-.212-.816-.551-1.115-.94-.3-.389-.528-.826-.73-1.273-.406-.894-.72-1.85-1.333-2.617a4.135 4.135 0 0 0-2.924-1.526 6.472 6.472 0 0 1 2.817-1.695 6.453 6.453 0 0 1 1.637-.254zm-19.707.17a9.59 9.59 0 0 0-.635 3.687c.053 2.01.736 3.963.761 5.973.014 1.05-.16 2.123-.664 3.045-.251.461-.585.88-.99 1.215a3.397 3.397 0 0 1-1.396.7 3.117 3.117 0 0 1-1.666-.083 3.124 3.124 0 0 1-1.385-.935 5.774 5.774 0 0 0 2.797-2.924c.378-.892.523-1.864.61-2.828.085-.965.117-1.938.28-2.893a10.557 10.557 0 0 1 2.288-4.957zm130.769.144a6.503 6.503 0 0 1 1.494.243c2.127.607 3.86 2.27 4.84 4.254.98 1.982 1.26 4.256 1.115 6.462-.183 2.788-1.053 5.573-2.765 7.78-1.712 2.207-4.314 3.783-7.102 3.959-2.095.132-4.219-.531-5.912-1.772-1.694-1.24-2.956-3.04-3.615-5.033a10.922 10.922 0 0 1 0-6.805 8.622 8.622 0 0 0 1.576 4.05 8.618 8.618 0 0 0 3.357 2.755 8.283 8.283 0 0 0 3.596.764 7.696 7.696 0 0 0 3.549-.934 7.309 7.309 0 0 0 2.785-2.705 7.064 7.064 0 0 0 .959-3.76c-.039-1.207-.4-2.396-1-3.445a8.856 8.856 0 0 0-2.402-2.68 9.783 9.783 0 0 0-4.764-1.87c1.23-.893 2.773-1.333 4.289-1.263zm-24.363 8.579a6.202 6.202 0 0 0 1.87 4.761 6.195 6.195 0 0 0 4.425 1.701 6.645 6.645 0 0 1-5.785-.17c-.594-.315-1.142-.725-1.569-1.244-.427-.519-.73-1.15-.812-1.818a3.12 3.12 0 0 1 .392-1.93 3.12 3.12 0 0 1 1.479-1.3zm-133.846.9a7.457 7.457 0 0 1 4.305 1.309 5.407 5.407 0 0 1-3.813 2.543 5.38 5.38 0 0 1-2.845-.37 5.359 5.359 0 0 1-2.24-1.79 7.433 7.433 0 0 1 3.94-1.655c.217-.023.435-.033.653-.037zm116.154 5.732a5.883 5.883 0 0 0-1.941 2.221 5.872 5.872 0 0 0-.611 2.883c.048 1.042.387 2.078 1.011 2.914.625.836 1.54 1.46 2.56 1.68 1.042.223 2.148.019 3.108-.438.961-.458 1.788-1.159 2.508-1.943a13.004 13.004 0 0 0 2.72-4.594 11.84 11.84 0 0 1-.679 8.166c-.945 2.006-2.533 3.774-4.594 4.592-1.314.522-2.78.64-4.171.385-1.392-.255-2.707-.875-3.823-1.744-1.332-1.04-2.389-2.445-2.953-4.038-.564-1.592-.624-3.37-.11-4.98a7.393 7.393 0 0 1 2.657-3.686 7.4 7.4 0 0 1 4.318-1.418zm-94.035 4.223a2.977 2.977 0 0 1 1.635.633c.543.427.924 1.023 1.398 1.525a5.442 5.442 0 0 0 3.305 1.653 7.91 7.91 0 0 1-5.975 1.654c-.62-.087-1.239-.252-1.785-.56-.546-.31-1.017-.773-1.265-1.348a2.492 2.492 0 0 1-.076-1.74 2.636 2.636 0 0 1 1.068-1.381 2.798 2.798 0 0 1 1.695-.436zm110.877 2.924a9.86 9.86 0 0 0 5.953 4.933c1.654.482 3.4.516 5.121.58 1.722.065 3.475.17 5.086.78a8.604 8.604 0 0 1 4.934 4.933 16.109 16.109 0 0 0-9.186-3.402c-2.163-.094-4.38.247-6.464-.34a7.543 7.543 0 0 1-4.02-2.799 7.54 7.54 0 0 1-1.424-4.685zm-76.32 5.969c.653 0 1.308.127 1.908.384 1.321.566 2.322 1.685 3.559 2.416a6.916 6.916 0 0 0 5.084.762 4.647 4.647 0 0 1-2.694 1.914 4.647 4.647 0 0 1-3.281-.388c-.68-.359-1.257-.882-1.797-1.428-.54-.547-1.051-1.124-1.635-1.623a8.297 8.297 0 0 0-3.05-1.653 4.855 4.855 0 0 1 1.906-.384zm68.494 2.367a12.35 12.35 0 0 1 1.191 6.465 12.32 12.32 0 0 1-1.53 4.933 5.146 5.146 0 0 0-.68-3.062c-.273-.464-.615-.88-.932-1.315-.317-.434-.612-.892-.77-1.406a3.418 3.418 0 0 1-.1-1.475c.07-.491.23-.968.44-1.418a6.567 6.567 0 0 1 2.381-2.722zm-80.38 2.31v.002a1.91 1.91 0 0 0-.57.024c-.358.073-.689.26-.956.51a2.77 2.77 0 0 0-.623.896c-.352.784-.394 1.667-.389 2.525.005.86.05 1.73-.139 2.567-.293 1.3-1.159 2.442-2.28 3.162-.39.25-.814.453-1.265.559-.45.105-.93.106-1.37-.036-.635-.203-1.15-.695-1.485-1.271-.335-.576-.508-1.232-.623-1.889-.138-.785-.2-1.581-.352-2.363-.152-.782-.402-1.563-.877-2.203-.591-.798-1.5-1.325-2.459-1.58-1.004-.268-2.065-.256-3.095-.116-1.03.141-2.039.408-3.051.643-1.526.355-3.12.664-4.39 1.58-1.4 1.009-2.247 2.678-2.46 4.39a7.717 7.717 0 0 0 1.055 4.917 27.243 27.243 0 0 1-2.107-1.229c-.862-.555-1.699-1.163-2.635-1.58-2.06-.917-4.563-.805-6.498.35-1.729 1.031-2.936 2.813-3.512 4.742-.46 1.54-.536 3.227 0 4.742.666 1.88 2.298 3.388 4.225 3.904 1.926.517 4.093.023 5.609-1.271-.92 1.82-2.73 3.164-4.74 3.514a6.458 6.458 0 0 1-4.215-.703c-.647-.361-1.223-.834-1.838-1.247-.615-.412-1.29-.771-2.025-.86a3.343 3.343 0 0 0-1.793.3 4.308 4.308 0 0 0-1.446 1.119c-.798.932-1.228 2.126-1.504 3.322-.175.763-.295 1.543-.265 2.325.03.781.216 1.568.617 2.24.503.843 1.322 1.468 2.225 1.853.902.386 1.887.546 2.867.606a14.81 14.81 0 0 0 4.215-.352 7.237 7.237 0 0 1-1.899 3.37 7.24 7.24 0 0 1-3.369 1.9c-1.944.478-4.009.131-5.97.527a7.613 7.613 0 0 0-3.544 1.746 6.867 6.867 0 0 0-2.076 3.346c-.435 1.648-.197 3.44.531 4.98.73 1.541 1.928 2.836 3.333 3.801 1.251.86 2.7 1.476 4.214 1.58 1.146.08 2.31-.14 3.35-.629a6.813 6.813 0 0 0 2.621-2.181 24.834 24.834 0 0 1-3.865 4.566c-.99.918-2.057 1.756-2.992 2.73-.936.975-1.748 2.112-2.1 3.417-.34 1.26-.226 2.624.234 3.845.46 1.222 1.257 2.302 2.225 3.178.924.836 2.028 1.502 3.244 1.773 1.217.272 2.55.124 3.604-.543.863-.546 1.487-1.392 2.07-2.232.583-.84 1.16-1.71 1.969-2.334a4.688 4.688 0 0 1 2.693-.969 4.7 4.7 0 0 1 2.752.793 19.094 19.094 0 0 0-5.27 3.688c-.987.977-1.875 2.077-2.458 3.338-.84 1.814-1 3.945-.372 5.843.629 1.898 2.057 3.531 3.885 4.34 1.914.847 4.14.771 6.147.176 1.293-.384 2.545-.99 3.511-1.932a6.272 6.272 0 0 0 1.819-3.593 6.281 6.281 0 0 0-.766-3.957 12.462 12.462 0 0 1 1.406 6.673c-.083 1.165-.332 2.317-.318 3.485.007.583.081 1.17.27 1.722.188.553.495 1.07.925 1.465.4.366.897.619 1.42.758.523.14 1.072.17 1.612.123 1.079-.093 2.107-.485 3.115-.88 1.617-.636 3.258-1.314 4.566-2.458 1.961-1.715 2.985-4.444 2.635-7.025a12.819 12.819 0 0 1 2.984 5.443c.27 1.029.413 2.098.819 3.08.203.492.472.96.834 1.35.362.39.821.697 1.334.84.422.117.871.12 1.3.031.43-.088.837-.265 1.21-.496.744-.462 1.336-1.13 1.878-1.818a24.548 24.548 0 0 0 4.215-8.079 8.933 8.933 0 0 0 2.283 5.444c.684.753 1.51 1.393 2.456 1.767.946.375 2.017.47 2.988.164 1.172-.368 2.09-1.266 2.986-2.107a59.78 59.78 0 0 1 5.97-4.916 51.72 51.72 0 0 0-5.618-6.498c-5.76-5.636-12.737-9.835-19.494-14.225-3.118-2.025-6.202-4.101-9.307-6.146a555.804 555.804 0 0 0-6.498-4.215 7.398 7.398 0 0 1 5.445.352c1.112.532 2.069 1.337 2.98 2.168.913.83 1.798 1.7 2.815 2.398a10.646 10.646 0 0 0 7.375 1.756 56.77 56.77 0 0 0-4.215-4.04c-1.443-1.247-2.974-2.436-4.74-3.16-1.958-.802-4.16-1.012-5.97-2.107a6.98 6.98 0 0 1-2.548-2.699 6.97 6.97 0 0 1-.79-3.623 4.28 4.28 0 0 0 1.974 1.965 4.28 4.28 0 0 0 2.768.318 3.791 3.791 0 0 0 1.466-.67c.431-.328.784-.762.993-1.262.235-.564.28-1.196.199-1.802-.082-.606-.289-1.19-.543-1.746-.508-1.113-1.213-2.137-1.588-3.301-.255-.791-.35-1.646-.176-2.46.12-.563.374-1.104.77-1.524.395-.42.938-.713 1.513-.758.48-.038.96.093 1.393.304.432.211.82.499 1.2.795.378.297.75.604 1.16.856.409.251.862.448 1.34.504.484.056.98-.038 1.429-.23a4.136 4.136 0 0 0 1.205-.823c.726-.695 1.24-1.575 1.797-2.41.558-.836 1.193-1.66 2.066-2.156a3.764 3.764 0 0 1 2.512-.426 3.768 3.768 0 0 1 2.201 1.285 6.383 6.383 0 0 0 .08 3.725c.337 1.016.923 1.928 1.516 2.82.592.891 1.203 1.784 1.594 2.781.393 1.005.551 2.083.783 3.137.231 1.054.55 2.118 1.209 2.972.7.909 1.724 1.504 2.744 2.028 1.02.524 2.077 1.01 2.933 1.773.97.864 1.62 2.03 2.15 3.217.53 1.186.962 2.421 1.595 3.557.5.9 1.14 1.745 1.988 2.33.424.292.898.516 1.398.636.501.12 1.03.133 1.532.018a3.452 3.452 0 0 0 1.556-.85c.438-.407.78-.91 1.033-1.453.506-1.084.656-2.299.747-3.492.12-1.594.149-3.204-.069-4.789-.217-1.584-.687-3.147-1.512-4.518-1.49-2.476-4.156-4.21-7.025-4.566a9.169 9.169 0 0 0 4.39-1.58c2.065-1.426 3.482-3.7 4.04-6.146.334-1.464.374-3.007.01-4.463-.365-1.456-1.149-2.82-2.293-3.791-.802-.68-1.798-1.167-2.848-1.22a3.505 3.505 0 0 0-1.541.263 2.975 2.975 0 0 0-1.23.957c-.414.56-.6 1.262-.647 1.957-.047.694.037 1.39.12 2.082.145 1.227.281 2.484 0 3.687a5.454 5.454 0 0 1-1.444 2.596 5.455 5.455 0 0 1-2.596 1.443 3.484 3.484 0 0 0 2.219-1.545 3.48 3.48 0 0 0 .416-2.67c-.192-.754-.632-1.416-1.041-2.078-.41-.661-.805-1.363-.89-2.136-.068-.61.063-1.231.302-1.797.238-.566.58-1.082.943-1.577.728-.99 1.571-1.943 1.914-3.123.29-.994.19-2.074-.133-3.058s-.86-1.885-1.447-2.738c-.647-.942-1.37-1.848-2.28-2.541-.908-.694-2.02-1.165-3.163-1.147-1.011.015-1.988.412-2.83.973-.842.56-1.565 1.282-2.264 2.013-.981 1.028-1.936 2.098-2.633 3.336a9.948 9.948 0 0 0-.879 7.551 4.772 4.772 0 0 1-2.582-2.23 4.774 4.774 0 0 1-.402-3.389c.315-1.228 1.102-2.27 1.846-3.297.744-1.026 1.482-2.12 1.666-3.375.135-.924-.044-1.873-.364-2.75s-.776-1.696-1.216-2.52c-.36-.672-.722-1.361-1.268-1.894a2.848 2.848 0 0 0-.947-.629 2.185 2.185 0 0 0-.555-.135zm54.317 2.162a4.164 4.164 0 0 0-2.06.448 186.608 186.608 0 0 0-1.445 7.36c-1.13 6.437-1.923 12.945-2.098 19.48a103.74 103.74 0 0 0 1.2 18.728c.975-4.067 3.7-7.68 7.341-9.738 1.21-.684 2.514-1.204 3.684-1.957.584-.377 1.134-.814 1.593-1.336.46-.523.825-1.134 1.016-1.803.335-1.176.11-2.444-.299-3.596-.282-.793-.651-1.555-.953-2.341-.302-.787-.54-1.611-.547-2.453-.007-.952.287-1.897.797-2.7a6.016 6.016 0 0 1 2.05-1.945 6.71 6.71 0 0 1 3.641-.904 6.709 6.709 0 0 1 3.553 1.203 5.528 5.528 0 0 0-3.533.299 5.528 5.528 0 0 0-2.611 2.398 3.832 3.832 0 0 0-.444 1.244 2.4 2.4 0 0 0 .145 1.303c.174.406.483.75.857.986.374.237.81.37 1.25.408.882.077 1.761-.218 2.537-.644a7.777 7.777 0 0 0 2.848-2.697c.053 1.898.101 3.795.148 5.693.036 1.417.07 2.841.288 4.242.217 1.401.625 2.789 1.36 4a8.169 8.169 0 0 0 3.136 2.957c.2.106.412.189.62.278a7.442 7.442 0 0 0-2.706.662c-2.017.937-3.517 2.728-4.645 4.644-.735 1.25-1.35 2.603-1.498 4.045-.174 1.7.324 3.426 1.2 4.893.875 1.467 2.11 2.691 3.462 3.736 3.542 2.739 7.95 4.31 12.42 4.557 1.827.1 3.66-.023 5.463-.336-.053-.03-.108-.06-.16-.092-1.904-1.201-3.453-2.883-4.916-4.594-1.837-2.147-3.63-4.48-4.225-7.242a9.476 9.476 0 0 1 .965-6.52 16.01 16.01 0 0 0 3.5 9.659c2.047 2.545 4.833 4.398 7.727 5.914a47.9 47.9 0 0 0 2.634 1.271c.132-.054.268-.101.399-.158 1.217-.525 2.415-1.15 3.375-2.064.96-.915 1.67-2.154 1.72-3.479.04-1.047-.334-2.088-.949-2.937-.614-.85-1.457-1.517-2.377-2.02-1.838-1.006-3.947-1.368-5.964-1.935a29.34 29.34 0 0 1-6.743-2.848c1.48-.57 3.06-.874 4.645-.899 3.955-.06 7.856 1.683 10.639 4.495 1.187 1.2 2.193 2.6 2.812 4.171.62 1.571.84 3.319.484 4.97-.27 1.251-.862 2.424-1.652 3.433-.79 1.008-1.773 1.857-2.844 2.56-2.367 1.556-5.156 2.399-7.972 2.7-2.817.3-5.668.076-8.465-.374-2.52-.404-5.022-.996-7.375-1.982-2.354-.986-4.56-2.378-6.305-4.24-1.681-1.795-2.89-3.971-4.045-6.143a224.901 224.901 0 0 1-3.297-6.443 173.021 173.021 0 0 0-2.847 6.592c-.996 2.445-1.943 4.927-3.297 7.193-1.243 2.08-2.814 3.954-3.99 6.072-.589 1.06-1.077 2.181-1.35 3.362-.274 1.18-.328 2.423-.055 3.603.425 1.834 1.593 3.393 2.399 5.094.487 1.028.842 2.112 1.297 3.154.454 1.043 1.02 2.062 1.85 2.84 1.223 1.149 2.975 1.683 4.644 1.498 1.242-.137 2.419-.646 3.478-1.309 1.06-.662 2.014-1.477 2.965-2.287a826.393 826.393 0 0 1 3.897-3.296 5.114 5.114 0 0 1-.15 4.644c-.6 1.065-1.576 1.892-2.098 2.996-.437.922-.523 1.992-.313 2.99.21.998.704 1.926 1.361 2.705 1.387 1.647 3.542 2.637 5.694 2.547 1.597-.067 3.15-.707 4.394-1.71 1.245-1.004 2.188-2.357 2.8-3.835.585-1.416.873-2.943 1.497-4.343 1.145-2.568 3.45-4.591 6.145-5.395a10.994 10.994 0 0 0-1.5 8.09c.327 1.575 1.027 3.098 2.148 4.252 1.121 1.153 2.686 1.91 4.295 1.892 1.31-.015 2.594-.538 3.592-1.386.997-.849 1.714-2.008 2.103-3.258.68-2.181.376-4.562-.3-6.744-.788-2.542-2.086-4.943-3.897-6.893a15.834 15.834 0 0 0-8.09-4.644c3.648-.301 7.385.606 10.488 2.547 1.027.642 2 1.408 2.698 2.398.732 1.039 1.128 2.272 1.49 3.49.362 1.219.707 2.46 1.357 3.551.565.948 1.38 1.78 2.409 2.182.514.2 1.074.288 1.623.23a2.89 2.89 0 0 0 1.511-.613 3 3 0 0 0 .928-1.363 4.02 4.02 0 0 0 .18-1.65c-.099-1.11-.578-2.15-1.108-3.13-.325-.601-.674-1.194-1.111-1.72-.437-.527-.966-.989-1.586-1.278a3.654 3.654 0 0 0-1.838-.328 3.653 3.653 0 0 0-1.758.629 5.525 5.525 0 0 1 2.694-3.24 5.528 5.528 0 0 1 4.199-.358c1.427.46 2.617 1.49 4.045 1.95a5.91 5.91 0 0 0 2.701.195c.9-.14 1.766-.473 2.545-.945 1.272-.772 2.324-1.944 2.816-3.348.246-.702.351-1.456.286-2.197a4.675 4.675 0 0 0-.706-2.096c-.747-1.169-1.994-1.917-3.244-2.518-1.25-.6-2.567-1.11-3.648-1.978a6.74 6.74 0 0 1-1.947-2.547 9.63 9.63 0 0 0 5.992.748c1.512-.302 2.97-.992 4.047-2.098 1.412-1.45 2.069-3.519 2.097-5.543.015-1.183-.178-2.406-.808-3.408a3.803 3.803 0 0 0-1.244-1.242 3.04 3.04 0 0 0-1.694-.445c-.777.038-1.499.403-2.162.81-.663.408-1.303.87-2.033 1.139a4.286 4.286 0 0 1-2.617.101 4.277 4.277 0 0 1-2.178-1.45c.559.419 1.32.554 1.988.35a2.27 2.27 0 0 0 1.457-1.4c.23-.656.142-1.373.116-2.068a4.345 4.345 0 0 1 .056-1.039c.067-.34.202-.674.428-.937.246-.288.591-.481.955-.586.364-.106.747-.127 1.125-.114.757.027 1.514.192 2.266.1 1.089-.134 2.065-.818 2.697-1.715.632-.896.945-1.988 1.049-3.08.156-1.645-.152-3.345-.96-4.787-.807-1.442-2.124-2.61-3.685-3.154-1.39-.485-2.9-.47-4.345-.75a10.76 10.76 0 0 1-4.946-2.397c.74.342 1.572.483 2.383.404a4.653 4.653 0 0 0 2.262-.853c1.1-.795 1.792-2.02 2.549-3.147.44-.656.915-1.292 1.308-1.978.393-.686.706-1.433.79-2.219a4.227 4.227 0 0 0-.317-2.082 4.589 4.589 0 0 0-1.254-1.697c-1.081-.92-2.564-1.317-3.975-1.164-1.386.15-2.662.787-3.931 1.363-1.27.577-2.618 1.11-4.01 1.033-1.127-.062-2.187-.522-3.22-.974-1.034-.453-2.097-.911-3.223-.973-.905-.05-1.808.162-2.657.48-.848.32-1.652.744-2.467 1.141-.814.397-1.648.77-2.53.975-.884.205-1.823.234-2.684-.05-1.003-.329-1.821-1.048-2.668-1.679-.424-.315-.863-.614-1.344-.832-.48-.218-1.006-.355-1.533-.336-.87.034-1.692.5-2.25 1.166-.558.667-.866 1.519-.977 2.381-.22 1.725.314 3.444.68 5.145a26.85 26.85 0 0 1 .6 5.693 7.54 7.54 0 0 1-3.448-4.195c-.47-1.443-.488-3.015-.15-4.494a9.752 9.752 0 0 1 1.648-3.598 4.901 4.901 0 0 1-4.345.451c-1.04-.4-1.906-1.146-2.733-1.892-.827-.747-1.655-1.522-2.66-2.004-1.396-.67-3-.716-4.549-.711-1.548.003-3.137.04-4.592-.489-1.168-.424-2.191-1.201-2.992-2.152-.8-.95-1.384-2.072-1.803-3.242-.434-1.217-.714-2.53-1.515-3.543a4.179 4.179 0 0 0-2.365-1.477 4.1 4.1 0 0 0-.706-.09zm-74.972 2.094c1.48-.004 2.967.498 4.119 1.432 1.445 1.171 2.329 2.95 2.621 4.787.115.725.142 1.477-.059 2.184-.1.353-.256.692-.476.986-.22.294-.504.541-.832.705-.611.304-1.354.297-1.988.045-.635-.252-1.167-.732-1.547-1.299-.585-.87-.825-1.923-.989-2.959-.163-1.036-.263-2.091-.607-3.082a6.52 6.52 0 0 0-1.709-2.621c.48-.117.973-.176 1.467-.178zm112.4 1.992a4.157 4.157 0 0 0-3.12 1.94c-.701 1.145-.79 2.618-.331 3.879.462 1.267 1.45 2.315 2.648 2.931.481.248 1.002.432 1.541.465.54.033 1.1-.095 1.534-.418.39-.29.654-.713.906-1.129.252-.415.508-.84.89-1.14.269-.21.59-.35.922-.424a3.26 3.26 0 0 1 1.018-.049 4.177 4.177 0 0 1 2.65 1.324 3.973 3.973 0 0 0-.535-2.03 3.968 3.968 0 0 0-1.5-1.47c-1.01-.56-2.204-.65-3.357-.71-.765-.04-1.566-.083-2.225-.473a2.352 2.352 0 0 1-.986-1.168 2.351 2.351 0 0 1-.055-1.528zm-80.154 4.041v.002a2.18 2.18 0 0 1 .785.092c.507.158.951.524 1.178 1.004.252.535.226 1.164.455 1.71.202.482.606.877 1.094 1.067.487.191 1.053.175 1.529-.043a4.5 4.5 0 0 1-2.227 1.68 4.495 4.495 0 0 1-2.789.03c-.715-.227-1.382-.648-1.824-1.254a2.855 2.855 0 0 1-.476-2.307c.187-.788.755-1.482 1.501-1.797.245-.103.509-.167.774-.184zm46.93 3.872a5.464 5.464 0 0 1-.243 4.103c-.56 1.164-1.513 2.082-2.31 3.1-.399.508-.763 1.05-1.012 1.646-.249.596-.38 1.254-.299 1.895.066.524.27 1.024.537 1.48.268.456.598.873.934 1.281.672.817 1.393 1.649 1.668 2.67a3.486 3.486 0 0 1-.246 2.442 3.49 3.49 0 0 1-1.807 1.662 6.563 6.563 0 0 0-1.086-4.586c-.816-1.183-2.02-2.092-2.656-3.381a4.951 4.951 0 0 1-.478-2.498 6.056 6.056 0 0 1 .72-2.451c.891-1.666 2.42-2.875 3.742-4.225a21.212 21.212 0 0 0 2.536-3.138zm45.146 9.539c2.697-.067 5.358 1.22 7.123 3.26 1.484 1.714 2.357 3.926 2.555 6.185.197 2.259-.267 4.557-1.227 6.611-1.034 2.214-2.712 4.207-4.949 5.19a7.779 7.779 0 0 1-4.223.578 7.502 7.502 0 0 1-3.865-1.785 7.392 7.392 0 0 1-2.414-4.586 3.698 3.698 0 0 0 1.104 1.95 3.7 3.7 0 0 0 2.033.946c.867.11 1.754-.098 2.545-.469.79-.37 1.496-.9 2.164-1.462 1.136-.959 2.19-2.041 2.93-3.33.739-1.29 1.147-2.805.933-4.276a5.427 5.427 0 0 0-1.361-2.867 5.395 5.395 0 0 0-2.744-1.6 5.316 5.316 0 0 0-2.582.053c-.84.23-1.62.671-2.247 1.275a5.22 5.22 0 0 0-1.47 2.653 5.22 5.22 0 0 0 .263 3.021 7.759 7.759 0 0 1-1.449-4.707c.04-1.476.526-2.953 1.45-4.105a6.614 6.614 0 0 1 2.431-1.865 7.748 7.748 0 0 1 3-.67zm-72.685 3.832c.024.739.024 1.48 0 2.22-.023.652-.064 1.306-.211 1.942-.148.635-.408 1.254-.825 1.756a3.287 3.287 0 0 1-1.773 1.091c-.072.016-.146.018-.219.03.14.05.278.101.412.166.7.337 1.306.87 1.729 1.521.326.504.542 1.07.79 1.615.25.546.542 1.088.985 1.493a2.664 2.664 0 0 0 2.514.593 10.672 10.672 0 0 1-.887-3.256c-.11-1.03-.07-2.07 0-3.105.078-1.14.188-2.31-.148-3.402a4.358 4.358 0 0 0-2.367-2.664zm-27.153 3.627a10.972 10.972 0 0 0-3.951 1.718c-1.495 1.042-2.726 2.468-3.494 4.12-.768 1.651-1.066 3.527-.8 5.33.348 2.366 1.639 4.516 3.284 6.251 1.646 1.736 3.64 3.1 5.649 4.399 6.576 4.25 13.574 7.997 19.24 13.4a43.209 43.209 0 0 1 5.84 6.871 8.123 8.123 0 0 0 1.719-6.357c-.34-2.114-1.532-4.03-3.092-5.496-2.856-2.684-6.789-3.89-9.965-6.186a16.57 16.57 0 0 1-3.78-3.779c-.644-.902-1.192-1.868-1.826-2.777-.633-.91-1.367-1.771-2.296-2.375-1.038-.675-2.26-.991-3.436-1.375a28.44 28.44 0 0 1-3.436-1.375c.42.17.885.23 1.334.17.45-.06.882-.24 1.243-.514.504-.383.86-.946 1.029-1.557.168-.61.155-1.264.002-1.879-.21-.838-.667-1.59-1.158-2.3-.492-.71-1.024-1.398-1.418-2.166a6.928 6.928 0 0 1-.688-4.123zm63.131.539a7.969 7.969 0 0 1-1.514 4.162c-1.522 2.078-3.93 3.273-6.054 4.73-5.163 3.54-8.928 8.97-10.785 14.947-.793 2.55-1.254 5.198-2.143 7.715-.889 2.518-2.276 4.97-4.479 6.477-.829.567-1.751.984-2.607 1.51-.856.525-1.668 1.188-2.123 2.084-.466.918-.511 1.997-.385 3.02.126 1.021.413 2.017.574 3.034a12.792 12.792 0 0 1-1.892 8.893 9.986 9.986 0 0 0-1.703-7.19c-1.192-1.683-2.875-2.946-4.541-4.162a277.86 277.86 0 0 0-5.866-4.162 46.508 46.508 0 0 0 4.541 8.514c1.128 1.67 2.372 3.28 3.217 5.11 1.272 2.753 1.57 5.86 1.514 8.892-.115 6.167-1.617 12.22-2.272 18.353-.95 8.912-.11 17.906-.189 26.868-.056 6.373-.587 12.793-2.367 18.914-1.315 4.52-3.323 9.008-3.028 13.707.157 2.49.96 4.886 1.64 7.287.679 2.4 1.243 4.902.91 7.375-.237 1.756-.918 3.42-1.67 5.025-.753 1.605-1.585 3.18-2.155 4.858-.662 1.948-.96 4.004-1.117 6.056-.05.65-.084 1.302-.03 1.951.056.65.205 1.297.508 1.873.566 1.075 1.62 1.821 2.233 2.87.456.78.647 1.697.64 2.601-.006.904-.205 1.798-.482 2.658-.839 2.606-2.391 4.91-3.666 7.332-.963 1.83-1.77 3.736-2.709 5.579-.684 1.342-1.44 2.657-2.39 3.826-.491.603-1.038 1.16-1.622 1.673a6.544 6.544 0 0 1 3.057-1.037c.645-.047 1.302.005 1.916.207.614.203 1.185.564 1.59 1.069.451.563.678 1.284.728 2.004.05.72-.066 1.442-.25 2.14-.665 2.535-2.169 4.768-3.818 6.805-1.65 2.037-3.476 3.938-4.95 6.105a23.358 23.358 0 0 0-3.345 7.49 47.964 47.964 0 0 0 5.24-4.085c3.727-3.346 6.905-7.25 10.03-11.164 1.055-1.322 2.11-2.652 2.95-4.12.842-1.467 1.468-3.086 1.59-4.773.162-2.222-.552-4.423-1.513-6.433-.286-.6-.598-1.192-.78-1.83-.18-.639-.225-1.338.022-1.954.17-.422.469-.786.828-1.064.36-.279.777-.474 1.211-.61.868-.27 1.788-.305 2.692-.408 1.494-.17 2.969-.54 4.351-1.134a14.15 14.15 0 0 0 5.299-3.975 13.576 13.576 0 0 1-3.596 1.326c-1.257.27-2.615.348-3.783-.19-.82-.376-1.492-1.038-1.959-1.81-.467-.772-.738-1.65-.88-2.54-.373-2.326.111-4.693.568-7.003.398-2.014.775-4.033 1.134-6.055-.39 1.93.19 4.03 1.514 5.487a6.325 6.325 0 0 0 1.703 1.326 4.686 4.686 0 0 0 1.236-2.865 4.69 4.69 0 0 0-.857-3.002c-.423-.59-.976-1.072-1.48-1.594-.505-.522-.975-1.11-1.168-1.81a2.42 2.42 0 0 1 .072-1.544c.197-.485.58-.9 1.062-1.107.498-.213 1.062-.2 1.6-.137s1.077.172 1.617.137c.8-.051 1.561-.423 2.145-.97.583-.549.995-1.264 1.246-2.024.501-1.52.37-3.17.203-4.762-.339-3.215-.811-6.42-.945-9.65a64.558 64.558 0 0 1 0-4.73c.039-1.23.115-2.46.187-3.688a20.444 20.444 0 0 1-1.04-1.63c-.364-.638-.695-1.3-.897-2.007-.203-.706-.274-1.462-.116-2.18.179-.806.635-1.527 1.157-2.168.435-.535.94-1.006 1.472-1.447.017-.301.037-.603.051-.904-.516-.432-1.007-.892-1.432-1.414-.52-.641-.976-1.36-1.154-2.166-.158-.718-.087-1.473.115-2.18.203-.707.532-1.37.895-2.01.463-.815.99-1.593 1.562-2.338-.137-2.615-.304-5.229-.232-7.845.12-4.36.901-8.696.756-13.055-.108-3.231-.724-6.425-.945-9.65a46.866 46.866 0 0 1 0-6.055 57.46 57.46 0 0 1 .755-6.434 4.069 4.069 0 0 1-1.687 1.27 4.06 4.06 0 0 1-2.096.244 4.068 4.068 0 0 1-1.976-.877 4.069 4.069 0 0 1-1.24-1.771 6.995 6.995 0 0 0 2.269-.946c.265-.17.52-.36.758-.568 1.466-1.284 2.21-3.192 3.406-4.73a9.72 9.72 0 0 1 1.703-1.704 3.635 3.635 0 0 0-1.514-.755 3.786 3.786 0 0 0-2.65.376 3.927 3.927 0 0 0-1.89 2.461 4.11 4.11 0 0 1-.881-2.955 4.105 4.105 0 0 1 1.447-2.72c.525-.436 1.152-.734 1.703-1.137 1.057-.773 1.79-1.901 2.459-3.027a53.051 53.051 0 0 0 3.406-6.811 21.764 21.764 0 0 0 2.272 9.082c1.505-2.812 1.785-6.253.756-9.271a11.512 11.512 0 0 0-1.704-3.217c-.52-.69-1.122-1.322-1.566-2.065a4.246 4.246 0 0 1-.504-1.191c-.1-.421-.114-.865-.01-1.285.166-.666.62-1.228 1.145-1.67.525-.442 1.125-.784 1.693-1.168.484-.327.95-.688 1.324-1.135.648-.771.99-1.753 1.223-2.732.232-.98.369-1.985.67-2.946.526-1.678 1.534-3.156 2.557-4.588 1.022-1.43 2.082-2.862 2.74-4.494.728-1.806.928-3.773 1.299-5.685.37-1.913.963-3.868 2.297-5.287 1.166-1.242 2.777-1.947 4.326-2.655 1.549-.707 3.137-1.493 4.187-2.834a5.68 5.68 0 0 0 1.121-4.357 5.681 5.681 0 0 0-2.445-3.777zm-52.012 202.38a6.4 6.4 0 0 0-1.088.875 14.01 14.01 0 0 0 1.088-.875zm11.621-199.76a4.067 4.067 0 0 0-.468.02 3.28 3.28 0 0 0 1.853.235 4.343 4.343 0 0 0-1.385-.254zm-53.457 4.946a3.28 3.28 0 0 1 2.373 1.3c.627.847.802 1.948.801 3 0 1.054-.159 2.105-.117 3.157a8.344 8.344 0 0 0 1.176 3.943 8.353 8.353 0 0 0 2.928 2.895c-.952.54-2.111.706-3.176.455a4.44 4.44 0 0 1-2.639-1.822c-.815-1.211-.975-2.74-1.002-4.2-.027-1.46.052-2.95-.365-4.35a6.368 6.368 0 0 0-2.508-3.419 3.277 3.277 0 0 1 2.53-.959zm138.702 12.31c.266.012.531.054.787.131.694.21 1.297.646 1.847 1.12.55.473 1.064.992 1.653 1.416a6.495 6.495 0 0 0 3.984 1.207 3.51 3.51 0 0 1-1.742 1.775 3.51 3.51 0 0 1-2.483.156c-.935-.293-1.704-.966-2.365-1.691-.66-.725-1.246-1.522-1.98-2.172a6.923 6.923 0 0 0-1.932-1.207 3.323 3.323 0 0 1 2.23-.734zm-129.72 2.555a4.752 4.752 0 0 1 1.255 4.104c-.255 1.395-1.127 2.598-2.096 3.633-.97 1.035-2.063 1.96-2.918 3.091a9.658 9.658 0 0 0-1.94 5.584 6.234 6.234 0 0 1-1.124-3.459 6.23 6.23 0 0 1 1.011-3.492c.584-.89 1.384-1.615 2.186-2.314.802-.7 1.622-1.394 2.26-2.246a7.11 7.11 0 0 0 1.367-4.9zm85.36 11.942a14.573 14.573 0 0 0-3.742 5.674c-.14.387-.265.783-.322 1.19-.058.409-.046.831.08 1.224.168.523.538.97.994 1.275.456.306.995.476 1.541.535a4.27 4.27 0 0 0 1.932-.242 2.935 2.935 0 0 1-.649 1.416 2.927 2.927 0 0 1-1.283.879c-.695.238-1.448.205-2.182.187-.734-.019-1.496-.01-2.164.295a2.962 2.962 0 0 0-1.027.801 4.232 4.232 0 0 0-.662 1.13 5.645 5.645 0 0 0-.4 1.911c-.025.654.06 1.304.158 1.951v.002a4.652 4.652 0 0 1-1.79-2.222 4.645 4.645 0 0 1-.142-2.848c.244-.9.754-1.702 1.287-2.467.533-.764 1.102-1.514 1.49-2.361.738-1.612.779-3.483 1.569-5.07a5.921 5.921 0 0 1 2.19-2.393 5.915 5.915 0 0 1 3.122-.867zm-77.064 2.207c.378-.046.799.095 1.12.377.365.318.585.783.727 1.242.143.459.222.928.381 1.383.21.599.559 1.164 1.004 1.625.445.46.987.816 1.559 1.025a1.568 1.568 0 0 1-1.203.453c-.459-.022-.933-.235-1.3-.582-.488-.462-.76-1.116-.968-1.75-.208-.633-.378-1.29-.734-1.865a3.328 3.328 0 0 0-1.463-1.287c.17-.341.498-.575.877-.621zm79.718.69h.002c.126 2.224 1.377 4.357 3.258 5.552 1.02.647 2.196 1.024 3.389 1.209 1.193.185 2.407.184 3.613.119a34.125 34.125 0 0 0 5.914-.844 5.163 5.163 0 0 1-3.138 2.776c-1.254.388-2.625.284-3.862.724a4.626 4.626 0 0 0-2.037 1.446 4.519 4.519 0 0 0-.295.423 2.738 2.738 0 0 1-.685 1.873 4.623 4.623 0 0 1 .685-1.873c0-.037.006-.073.004-.109a2.744 2.744 0 0 0-.932-1.88c-.46-.4-1.042-.63-1.626-.805-.585-.175-1.186-.302-1.754-.524a5.498 5.498 0 0 1-2.897-2.654 5.458 5.458 0 0 1-.549-2.766c.064-.948.38-1.88.91-2.668zm-70.277.392c.362-.015.732.064 1.074.176.457.149.887.357 1.35.49.61.175 1.27.218 1.904.12a4.205 4.205 0 0 0 1.739-.677c.077.43-.042.882-.327 1.242-.284.36-.732.624-1.226.723-.66.131-1.349-.023-1.987-.22-.637-.197-1.27-.438-1.945-.481a3.334 3.334 0 0 0-1.898.447c-.18-.336-.18-.739.002-1.074.181-.336.541-.598.957-.697.117-.027.236-.044.357-.05zm-18.09 1.308c.241-.011.484.027.705.12.444.184.797.578.942 1.046.164.53.063 1.115-.115 1.647-.179.532-.433 1.037-.59 1.576a4.561 4.561 0 0 0-.09 2.188c.148.717.476 1.391.943 1.94a2.23 2.23 0 0 1-1.63-.288c-.48-.301-.84-.795-.985-1.354-.195-.745-.015-1.544.219-2.287.233-.742.522-1.482.554-2.258a3.388 3.388 0 0 0-.648-2.138 1.67 1.67 0 0 1 .695-.192zm53.866 42.778a25.411 25.411 0 0 1 1.445 8.088 25.428 25.428 0 0 1-1.3 8.378 24.635 24.635 0 0 1-.145-16.467zm1.232 27.181c.515-.01 1.03.08 1.512.262a14.107 14.107 0 0 0-2.889 2.744 13.736 13.736 0 0 0-2.166 3.9 13.287 13.287 0 0 0-.725 3.458l.002.01c.228 1.83.47 3.66.723 5.488a13.428 13.428 0 0 1-.725-5.498c-.262-2.112-.502-4.28.002-6.346.298-1.218.886-2.412 1.88-3.178a4.063 4.063 0 0 1 2.386-.84zm-7.588 26.696a10.571 10.571 0 0 0 1.59 6.644c.642 1.009 1.451 1.899 2.121 2.889.67.99 1.208 2.127 1.201 3.322a3.942 3.942 0 0 1-.678 2.178 3.95 3.95 0 0 1-1.777 1.433c.336-1.97.186-4.023-.433-5.923-.672-2.061-1.884-3.942-2.313-6.067a8.647 8.647 0 0 1 .29-4.476zm.578 22.677a7.558 7.558 0 0 1 .578 4.043c-.181 1.354-.727 2.632-1.345 3.85s-1.315 2.398-1.832 3.662a14.226 14.226 0 0 0-.868 7.654 12.014 12.014 0 0 1-.722-8.666c.731-2.438 2.221-4.574 3.177-6.933.47-1.161.811-2.373 1.012-3.61zm-7.517 21.795a4.116 4.116 0 0 0-3.034 1.164c-.839.833-1.277 1.995-2.072 2.87-.839.922-2.025 1.472-2.869 2.39a4.722 4.722 0 0 0-1.115 4.145 5.048 5.048 0 0 1 3.03-3.348c.77-.293 1.602-.39 2.39-.639 1.366-.43 2.585-1.335 3.345-2.548a5.796 5.796 0 0 0 .797-3.985 3.83 3.83 0 0 0-.472-.049zm-30.524.858c-.437.03-.868.13-1.27.306-.95.42-1.662 1.225-2.458 1.893a10.067 10.067 0 0 1-4.164 2.082 16.053 16.053 0 0 1 3.027.19c1.863.295 3.68.923 5.299 1.89 1.67.998 3.107 2.335 4.619 3.56 1.512 1.226 3.152 2.367 5.031 2.874 2.154.58 4.548.248 6.432-.946a7.909 7.909 0 0 0 3.406-4.73 12.068 12.068 0 0 1-5.297 1.135c-2.318-.038-4.655-.782-6.433-2.27-1.68-1.405-2.805-3.397-4.541-4.73-.696-.534-1.487-.957-2.342-1.15a4.507 4.507 0 0 0-1.309-.104zm49.957 8.525a18.084 18.084 0 0 1-4.806 3.145c-.838.373-1.706.682-2.59.923a34.97 34.97 0 0 1-.739 12.944c-.72 2.895-1.809 5.682-2.773 8.506-1.08 3.159-2.017 6.505-1.48 9.8a11.435 11.435 0 0 0 3.882 6.842 47.431 47.431 0 0 1-.183-7.58c.102-1.834.322-3.703 1.11-5.363.616-1.3 1.557-2.422 2.218-3.7.856-1.654 1.215-3.516 1.478-5.36.29-2.023.474-4.06.555-6.102.626 1.29 1.243 2.583 1.85 3.883 1.207 2.585 2.377 5.202 3.142 7.95.839 3.015 1.187 6.18 2.405 9.061 1.618 3.83 4.662 6.886 7.95 9.43a50.428 50.428 0 0 0 6.473 4.254 105.633 105.633 0 0 1-7.582-11.834c-1.888-3.43-3.584-6.964-5.177-10.541a199.927 199.927 0 0 1-4.623-11.28c-.9-2.4-1.756-4.847-2.034-7.396-.278-2.553.04-5.17.924-7.582zm7.028 1.48a4.89 4.89 0 0 1 .185 3.883 4.891 4.891 0 0 1-2.773 2.774c1.84.022 3.67.61 5.177 1.664 1.862 1.3 3.172 3.233 4.807 4.808 2.144 2.067 4.824 3.498 7.582 4.622 3.11 1.266 6.46 2.183 9.8 1.85 2.482-.249 4.855-1.18 7.026-2.405.878-.496 1.731-1.042 2.643-1.473.911-.43 1.896-.746 2.904-.746 1.188 0 2.344.443 3.352 1.072 1.007.63 1.886 1.442 2.752 2.256 1.262 1.188 2.515 2.396 3.937 3.387 1.422.99 3.032 1.763 4.752 1.977a8.009 8.009 0 0 0 4.783-.91 8.003 8.003 0 0 0 3.354-3.528 7.555 7.555 0 0 1-3.697-.185c-1.68-.518-3.127-1.605-4.44-2.774-.908-.808-1.788-1.687-2.342-2.77a4.783 4.783 0 0 1-.523-1.734 3.576 3.576 0 0 1 .277-1.783 3.177 3.177 0 0 1 1.278-1.426 3.172 3.172 0 0 1 1.865-.424 12.358 12.358 0 0 0-6.018-2.332 12.363 12.363 0 0 0-6.37 1.04c-2.028.922-3.758 2.371-5.548 3.697-1.63 1.208-3.34 2.33-5.195 3.15-1.856.82-3.872 1.334-5.9 1.287-2.159-.05-4.264-.731-6.194-1.7-1.93-.967-3.702-2.218-5.455-3.478-2.002-1.439-3.992-2.897-5.918-4.437a87.837 87.837 0 0 1-6.101-5.361zm-67.797 6.942a8.244 8.244 0 0 0 2.142 3.45 8.253 8.253 0 0 0 3.535 2.001c.78.212 1.592.307 2.356.572.382.133.752.309 1.076.551.324.243.6.554.772.92.153.33.219.698.21 1.06-.008.364-.089.723-.216 1.063-.255.68-.69 1.277-1.131 1.854-1.258 1.643-2.647 3.258-3.293 5.224a7.861 7.861 0 0 0 .174 5.34 7.865 7.865 0 0 0 3.574 3.973c-1.74-2.465-2.259-5.752-1.363-8.633.735-2.367 2.342-4.38 4.203-6.018 2.52-2.217 5.634-3.859 8.972-4.203 1.446-.149 2.905-.055 4.356-.13 1.451-.076 2.937-.338 4.162-1.12a5.51 5.51 0 0 0 2.385-3.406 19.549 19.549 0 0 1-6.133 1.816c-3.272.406-6.584-.022-9.88 0-2.16.015-4.328.223-6.476 0a16.325 16.325 0 0 1-9.425-4.314zm71.31 6.371a12.955 12.955 0 0 0 0 3.883c.464 3.05 1.993 5.823 3.514 8.508 1.833 3.236 3.79 6.564 6.842 8.69 2.196 1.528 4.806 2.323 7.357 3.132 2.551.809 5.147 1.685 7.25 3.34 1.937 1.524 3.335 3.614 4.678 5.681 1.343 2.068 2.694 4.182 4.568 5.784 1.84 1.572 4.116 2.58 6.47 3.142 3.522.843 7.272.714 10.727-.369a20.88 20.88 0 0 1-10.171-3.514c-3.77-2.55-6.583-6.249-9.43-9.8-2.16-2.696-4.411-5.374-7.211-7.397-4.79-3.462-10.857-4.772-15.719-8.135-4.4-3.043-7.622-7.744-8.875-12.945z" transform="scale(.26458)"/></svg>