<svg xmlns="http://www.w3.org/2000/svg" width="666" height="768" style="shape-rendering:geometricPrecision;text-rendering:geometricPrecision;image-rendering:optimizeQuality;fill-rule:evenodd;clip-rule:evenodd"><path style="opacity:1" fill="#fefefe" d="M-.5-.5h666v768H-.5V-.5z"/><path style="opacity:1" fill="#373333" d="M29.5 27.5h610c.333 140.834 0 281.501-1 422v-421c-164.841.008-329.841.008-495 0h-113c-.667 0-1-.333-1-1z"/><path style="opacity:1" fill="#1f1918" d="M143.5 28.5c165.159.008 330.159.008 495 0v421c.295 2.235-.039 4.235-1 6 .129-141.228-.538-282.561-2-424-33.361.288-67.694.622-103 1 1.134 6.575 1.968 6.575 2.5 0 .336 3.5.169 7-.5 10.5.063 2.28.897 4.114 2.5 5.5.172 23.906.672 47.74 1.5 71.5-.752.671-1.086 1.504-1 2.5h-6v-86a2500.635 2500.635 0 0 0-100-1c.039-1.859-.794-3.192-2.5-4h-92l-1 79a108.394 108.394 0 0 0-2 9 3428.454 3428.454 0 0 0-1.5-83 2162.788 2162.788 0 0 0-93-1c-.762-1.475-1.095-2.809-1-4-32.121.564-62.955.898-92.5 1a11.357 11.357 0 0 0-3.5-1.5l-15-1c5.516-.173 10.849-.673 16-1.5z"/><path style="opacity:1" fill="#262122" d="M29.5 27.5c0 .667.333 1 1 1 .01 1.517.677 2.684 2 3.5 32.985-.583 65.985-.583 99 0 2.667.667 2.667 1.333 0 2 .916.278 1.582.778 2 1.5h-99v87c-.814-2.131-1.314-4.464-1.5-7a19.732 19.732 0 0 0-1.5 6.5 2083.128 2083.128 0 0 1 1 91.5h94v3c-28.139.69-58.139 1.356-90 2-1.333 15.152-2 30.652-2 46.5l.5 46.5a1180.25 1180.25 0 0 1 28.5 20c-3.558 2.443-6.89 1.943-10-1.5a43.39 43.39 0 0 0-8-2 29.97 29.97 0 0 0-7-6c-2.2-.825-4.034-.325-5.5 1.5a2924.598 2924.598 0 0 0 1 146c.392 6.293 1.559 12.293 3.5 18a24.93 24.93 0 0 1 1 8 309.04 309.04 0 0 1 3.5 21c1 1.667 2.333 3 4 4 1.147 8.492 3.647 16.658 7.5 24.5.63 1.31 1.63 2.144 3 2.5.39 5.004.89 10.004 1.5 15l1-3c1.51 2.737 1.343 5.071-.5 7a10.255 10.255 0 0 0 1.5 4l1-2c1.011.837 2.178 1.17 3.5 1 .023 2.427.523 4.76 1.5 7 1-1.333 2-1.333 3 0a86.742 86.742 0 0 1 6 11 625.038 625.038 0 0 1-.5 10c-28.96-44.383-45.127-93.383-48.5-147-.5-141-.667-282-.5-423h4z"/><path style="opacity:1" fill="#1f1916" d="M30.5 28.5h113c-5.151.827-10.484 1.327-16 1.5l15 1c1.266.31 2.433.81 3.5 1.5 29.545-.102 60.379-.436 92.5-1-.095 1.191.238 2.525 1 4-2.235-.295-4.235.039-6 1a1850.087 1850.087 0 0 0-1 86h-98c.331-28.838-.002-57.505-1-86v-1c-.418-.722-1.084-1.222-2-1.5 2.667-.667 2.667-1.333 0-2a2802.105 2802.105 0 0 0-99 0c-1.323-.816-1.99-1.983-2-3.5z"/><path style="opacity:1" fill="#1f1a17" d="M431.5 35.5v87h-99v-86a3428.454 3428.454 0 0 1 1.5 83 108.394 108.394 0 0 1 2-9l1-79h92c1.706.808 2.539 2.141 2.5 4z"/><path style="opacity:1" fill="#fefefe" d="M133.5 36.5v86h-98v-86h98z"/><path style="opacity:1" fill="#fdfcfc" d="M239.5 35.5c31.171-.331 62.171.002 93 1v86h-99v-86c1.765-.961 3.765-1.295 6-1z"/><path style="opacity:1" fill="#fefefe" d="M531.5 36.5v86h-99v-86h99z"/><path style="opacity:1" fill="#bebbbb" d="M133.5 35.5v1h-98v86h-1v-87h99z"/><path style="opacity:1" fill="#848182" d="M431.5 35.5c33.504-.332 66.838.002 100 1h-99v174c-33.504.332-66.838-.002-100-1h99v-174z"/><path style="opacity:1" fill="#1f1a17" d="M637.5 455.5c.319 4.863-.014 9.53-1 14l-1-6h-3a7563.493 7563.493 0 0 0 0-244l-2-1c1.001-1.289.834-2.622-.5-4a48143.908 48143.908 0 0 1-438.5 1v4c3.993-.5 5.66 1 5 4.5 2.836 2.584 6.169 3.751 10 3.5.904.709 1.237 1.709 1 3a6.846 6.846 0 0 1 4 1 119.984 119.984 0 0 0 19 12.5 13.271 13.271 0 0 1 5 5.5 38.852 38.852 0 0 0 7 1.5 28.415 28.415 0 0 1 4.5 7.5c2.941.441 4.774 2.107 5.5 5 1.032-1.54 2.365-2.04 4-1.5 5.578 4.956 11.911 8.623 19 11a309.42 309.42 0 0 0 24 17 8.43 8.43 0 0 0 4 .5c1.634 5.465 5.301 8.631 11 9.5a129.038 129.038 0 0 1 15 12c4.924 1.261 9.09 3.761 12.5 7.5 2.437 1.3 4.937 2.3 7.5 3 1.73.526 3.064 1.526 4 3 1.571 4.003 4.571 6.17 9 6.5a6119.5 6119.5 0 0 1 13 11 8.43 8.43 0 0 0 4 .5 175.298 175.298 0 0 1 11 11 29.045 29.045 0 0 0 8 2c-.726 2.07-1.392 3.737-2 5-1.823-1.247-3.823-1.914-6-2a4964.039 4964.039 0 0 0-13-7.5l-194-133c-48.999-.5-97.999-.667-147-.5 31.861-.644 61.861-1.31 90-2v-3h-94c.335-30.664.002-61.164-1-91.5a19.732 19.732 0 0 1 1.5-6.5c.186 2.536.686 4.869 1.5 7 32.83.998 65.829 1.332 99 1v87h100v-3a9.108 9.108 0 0 1 5 1 4.457 4.457 0 0 0 1.5-2l1-79 77 1a9.175 9.175 0 0 1 4.5-2 3280.367 3280.367 0 0 1 1.5 80c2.381.935 4.881 1.268 7.5 1h1v2c33.162.998 66.496 1.332 100 1v-87h98c-.331 28.838.002 57.505 1 86h99v-87h-93c-.086-.996.248-1.829 1-2.5a2587.532 2587.532 0 0 1-1.5-71.5c-1.603-1.386-2.437-3.22-2.5-5.5.669-3.5.836-7 .5-10.5-.532 6.575-1.366 6.575-2.5 0 35.306-.378 69.639-.712 103-1a37690.327 37690.327 0 0 1 2 424z"/><path style="opacity:1" fill="#fdfdfd" d="M531.5 122.5h99v87h-99v-87z"/><path style="opacity:1" fill="#fefefe" d="M431.5 123.5v86h-98v-86h98z"/><path style="opacity:1" fill="#c2c0bf" d="M332.5 122.5h99v1h-98v86h-1v-87z"/><path style="opacity:1" fill="#888585" d="M133.5 36.5a1850.087 1850.087 0 0 1 1 86h98c-.331-28.838.002-57.505 1-86v86h99v1h-99v87h-100v-87c-33.171.332-66.17-.002-99-1h99v-86z"/><path style="opacity:1" fill="#fefefe" d="M134.5 123.5h98v86h-98v-86z"/><path style="opacity:1" fill="#5f5c5d" d="M432.5 123.5v-1h99v87a1850.088 1850.088 0 0 1-1-86h-98z"/><path style="opacity:1" fill="#211a1b" d="M332.5 123.5v84h-1c.333-26.675 0-53.342-1-80a19.372 19.372 0 0 0-8-1 9.175 9.175 0 0 0-4.5 2l-77-1-1 79a4.457 4.457 0 0 1-1.5 2 9.108 9.108 0 0 0-5-1v-84h99z"/><path style="opacity:1" fill="#1d1a14" d="M322.5 126.5a19.372 19.372 0 0 1 8 1c1 26.658 1.333 53.325 1 80-2.619.268-5.119-.065-7.5-1a3280.367 3280.367 0 0 0-1.5-80z"/><path style="opacity:1" fill="#151a29" d="M630.5 218.5c-143.667-.167-287.334 0-431 .5a34.53 34.53 0 0 0 5 4.5c.992-.172 1.658.162 2 1v3c-3.831.251-7.164-.916-10-3.5.66-3.5-1.007-5-5-4.5v-4c146.237.332 292.403-.001 438.5-1 1.334 1.378 1.501 2.711.5 4z"/><path style="opacity:1" fill="#0e3c75" d="M623.5 220.5h-416c-.237 1.291.096 2.291 1 3 2.447.115 4.447 1.115 6 3 3.306 1.973 5.973 4.639 8 8-4.275-3.08-8.942-5.58-14-7.5-.566-.995-1.233-1.828-2-2.5-.342-.838-1.008-1.172-2-1-1.206-1.38-.873-2.547 1-3.5 139.501-.833 278.834-.666 418 .5z"/><path style="opacity:1" fill="#0e1d34" d="m630.5 218.5 2 1c.167 78.001 0 156.001-.5 234a308.345 308.345 0 0 0-4.5 42h-3a267.24 267.24 0 0 0 4-32c.817-2.469 1.317-5.135 1.5-8 .5-78.999.667-157.999.5-237z"/><path style="opacity:1" fill="#01448d" d="M623.5 220.5c2.266-.359 4.099.308 5.5 2 .731 80.337.565 160.67-.5 241a1048.145 1048.145 0 0 0-5 13.5 27.395 27.395 0 0 1 1 3.5c-1.494 4.815-2.494 9.815-3 15-.719 2.017-1.886 3.683-3.5 5-5.44-3.717-11.273-6.884-17.5-9.5-3.189-1.855-5.689-4.355-7.5-7.5a131.337 131.337 0 0 1-16.5-7.5c-3.007-2.166-5.007-4.999-6-8.5-5.02-.387-9.02-2.554-12-6.5a68.719 68.719 0 0 0-14-7c-3.547-7.066-9.214-10.566-17-10.5-2.311-1.414-4.311-3.247-6-5.5l-6-1.5c-.975-1.693-2.308-3.193-4-4.5-3.005-.533-5.672-1.7-8-3.5a45.408 45.408 0 0 1-8-8c-4.36-6.506-10.36-11.006-18-13.5-5.65-5.809-11.983-10.642-19-14.5a87.147 87.147 0 0 0-8-2 120.5 120.5 0 0 1-12-14 79.172 79.172 0 0 0-10-2c.214-1.644-.12-3.144-1-4.5a4.934 4.934 0 0 1 3-.5v-8c-6.379.016-12.712.182-19 .5a47.633 47.633 0 0 0-7-4.5c-1.45-1.35-2.117-3.016-2-5a12.93 12.93 0 0 1-5-.5 79.421 79.421 0 0 0-6.5-8.5l-1 1a218.282 218.282 0 0 0-12.5-4 76.26 76.26 0 0 0-2.5-10c-2.466 1.277-4.966 1.277-7.5 0a97.284 97.284 0 0 0-15-9 22.136 22.136 0 0 0-3-6c-3.783-1.058-7.117-2.891-10-5.5a97.51 97.51 0 0 1-9-1.5c-2.851-3.737-6.518-6.404-11-8 .262-1.478-.071-2.811-1-4-1.861-1.028-3.195-2.528-4-4.5a26.724 26.724 0 0 1-7-1.5 411.04 411.04 0 0 1-17-13c-4.115-.537-6.781-2.704-8-6.5a43.817 43.817 0 0 0-11-2.5c.322-2.222-.345-4.056-2-5.5a140.75 140.75 0 0 1-24-16 101.209 101.209 0 0 1-17-10 12.93 12.93 0 0 0-5-.5c.172-.992-.162-1.658-1-2-2.027-3.361-4.694-6.027-8-8h6v-3a82.484 82.484 0 0 0 6.5 2l9-2c33.151.976 66.317 1.309 99.5 1v15h96v-15h112v15h79a79.547 79.547 0 0 1 1-17.5l-207.5-.5c-69.503 0-138.67.667-207.5 2-.904-.709-1.237-1.709-1-3h416z"/><path style="opacity:1" fill="#01448f" d="M214.5 226.5c-1.553-1.885-3.553-2.885-6-3 68.83-1.333 137.997-2 207.5-2l207.5.5a79.547 79.547 0 0 0-1 17.5h-79v-15h-112v15h-96v-15c-33.183.309-66.349-.024-99.5-1l-9 2a82.484 82.484 0 0 1-6.5-2v3h-6z"/><path style="opacity:1" fill="#1d3f6f" d="M630.5 218.5c.167 79.001 0 158.001-.5 237-.183 2.865-.683 5.531-1.5 8 1.065-80.33 1.231-160.663.5-241-1.401-1.692-3.234-2.359-5.5-2a29129.822 29129.822 0 0 0-418-.5c-1.873.953-2.206 2.12-1 3.5a34.53 34.53 0 0 1-5-4.5c143.666-.5 287.333-.667 431-.5z"/><path style="opacity:1" fill="#133e6f" d="M223.5 236.5a12.93 12.93 0 0 1 5 .5 101.209 101.209 0 0 0 17 10 140.75 140.75 0 0 0 24 16c1.655 1.444 2.322 3.278 2 5.5a4649.993 4649.993 0 0 1-15-10c-.886-.825-1.219-1.825-1-3a10.098 10.098 0 0 1-6-1.5c-8.397-6.482-17.064-12.316-26-17.5z"/><path style="opacity:1" fill="#151d2a" d="M206.5 224.5c.767.672 1.434 1.505 2 2.5 5.058 1.92 9.725 4.42 14 7.5.838.342 1.172 1.008 1 2 8.936 5.184 17.603 11.018 26 17.5a10.098 10.098 0 0 0 6 1.5c-.219 1.175.114 2.175 1 3a4649.993 4649.993 0 0 0 15 10 386.967 386.967 0 0 0 22 15.5 28.51 28.51 0 0 0 9 4.5c.798.457 1.131 1.124 1 2a8.43 8.43 0 0 1-4-.5 309.42 309.42 0 0 1-24-17c-7.089-2.377-13.422-6.044-19-11-1.635-.54-2.968-.04-4 1.5-.726-2.893-2.559-4.559-5.5-5a28.415 28.415 0 0 0-4.5-7.5 38.852 38.852 0 0 1-7-1.5 13.271 13.271 0 0 0-5-5.5 119.984 119.984 0 0 1-19-12.5 6.846 6.846 0 0 0-4-1c.237-1.291-.096-2.291-1-3v-3z"/><path style="opacity:1" fill="#114074" d="M271.5 268.5c3.763.357 7.43 1.19 11 2.5 1.219 3.796 3.885 5.963 8 6.5a411.04 411.04 0 0 0 17 13c2.266.814 4.6 1.314 7 1.5.805 1.972 2.139 3.472 4 4.5.929 1.189 1.262 2.522 1 4a23.423 23.423 0 0 1-6-2.5c-2.946-3.126-6.28-5.626-10-7.5.131-.876-.202-1.543-1-2a28.51 28.51 0 0 1-9-4.5 386.967 386.967 0 0 1-22-15.5z"/><path style="opacity:1" fill="#102036" d="M303.5 290.5c3.72 1.874 7.054 4.374 10 7.5a23.423 23.423 0 0 0 6 2.5c4.482 1.596 8.149 4.263 11 8a307.485 307.485 0 0 1 19 14c-2.563-.7-5.063-1.7-7.5-3-3.41-3.739-7.576-6.239-12.5-7.5a129.038 129.038 0 0 0-15-12c-5.699-.869-9.366-4.035-11-9.5z"/><path style="opacity:1" fill="#104078" d="M330.5 308.5a97.51 97.51 0 0 0 9 1.5c2.883 2.609 6.217 4.442 10 5.5a22.136 22.136 0 0 1 3 6 97.284 97.284 0 0 1 15 9c2.534 1.277 5.034 1.277 7.5 0a76.26 76.26 0 0 1 2.5 10 81.597 81.597 0 0 1-17-12 32.128 32.128 0 0 0-7-3c-.936-1.474-2.27-2.474-4-3a307.485 307.485 0 0 0-19-14z"/><path style="opacity:1" fill="#111d35" d="M353.5 325.5a32.128 32.128 0 0 1 7 3 81.597 81.597 0 0 0 17 12l2 3a8.43 8.43 0 0 1-4-.5 6119.5 6119.5 0 0 0-13-11c-4.429-.33-7.429-2.497-9-6.5z"/><path style="opacity:1" fill="#121e2f" d="M63.5 331.5c-.608 2.562-.442 5.229.5 8 2.058.729 3.891 1.729 5.5 3a8.43 8.43 0 0 1-4-.5 22.147 22.147 0 0 0-7-4c-2.809-5.796-7.475-8.796-14-9l-5-5c-1.612-.72-3.112-.554-4.5.5a3906.305 3906.305 0 0 0 0 125c.175 4.851.675 9.518 1.5 14v5c.61 6.315.943 12.649 1 19-1.941-5.707-3.108-11.707-3.5-18a2924.598 2924.598 0 0 1-1-146c1.466-1.825 3.3-2.325 5.5-1.5a29.97 29.97 0 0 1 7 6 43.39 43.39 0 0 1 8 2c3.11 3.443 6.442 3.943 10 1.5z"/><path style="opacity:1" fill="#014491" d="M40.5 327.5c1.839 1.008 3.172 2.508 4 4.5 3.306.986 6.306 2.486 9 4.5-1.823.727-3.657 1.061-5.5 1 .402 31.318.569 62.651.5 94h-4c.167-26.669 0-53.335-.5-80-.667 1.333-1.333 1.333-2 0-.712 31.505-.546 63.005.5 94.5l-.5 14.5a4.451 4.451 0 0 1-1.5 2 10.255 10.255 0 0 1-1.5-4 3459.76 3459.76 0 0 1-1.5-131h3z"/><path style="opacity:1" fill="#01448d" d="M40.5 327.5h-3a3459.76 3459.76 0 0 0 1.5 131 10.255 10.255 0 0 0 1.5 4 4.451 4.451 0 0 0 1.5-2l.5-14.5a1693.417 1693.417 0 0 1-.5-94.5c.667 1.333 1.333 1.333 2 0 .5 26.665.667 53.331.5 80h4c.069-31.349-.098-62.682-.5-94 1.843.061 3.677-.273 5.5-1 1.579 1.73 3.245 3.564 5 5.5 5.733 1.723 10.733 4.723 15 9 1.634.494 3.3.66 5 .5h1a37.785 37.785 0 0 0 4 6.5c-.792 1.96-2.125 3.46-4 4.5a48.003 48.003 0 0 0 7.5 4 8.435 8.435 0 0 0 .5-4c3.795-.541 5.795 1.125 6 5 7.147.572 12.813 3.739 17 9.5a93.044 93.044 0 0 1 10 4.5v3h6c.767.672 1.434 1.505 2 2.5a114.531 114.531 0 0 1 11 5.5 69.714 69.714 0 0 1 8 6.5 102.697 102.697 0 0 0 12 6.5 51.621 51.621 0 0 1 7 7v3a4.934 4.934 0 0 1 3 .5l3 5 5 1c4.713 2.026 8.713 5.026 12 9a20.64 20.64 0 0 1 6 2 186.49 186.49 0 0 0 26 17.5h2c-.214 1.644.12 3.144 1 4.5a48.77 48.77 0 0 1 12 8 26.221 26.221 0 0 0 9 3.5 40.624 40.624 0 0 1 13 8c2.647 2.171 4.314 5.005 5 8.5 6.181-.506 10.848 1.827 14 7a80.368 80.368 0 0 0 10 5.5c1.647 1.826 3.647 3.16 6 4 1.986 3.475 4.986 5.642 9 6.5 3.833 4.5 8 8.667 12.5 12.5l.5 1a14.72 14.72 0 0 1-5 1.5c3.944 3.806 8.611 6.306 14 7.5.116-3.41-1.55-4.744-5-4v-4c5.178 1.922 10.178 4.422 15 7.5.837 1.011 1.17 2.178 1 3.5 3.467-.054 6.134 1.446 8 4.5a52.56 52.56 0 0 0 7 1.5 226.624 226.624 0 0 1 17 11 32.043 32.043 0 0 0 12 8 382.471 382.471 0 0 0 21 16c2.06 2.962 4.727 6.128 8 9.5l6 1a25.913 25.913 0 0 0 9 8c.073 3.645 1.74 6.145 5 7.5 1.268-.928 2.601-1.095 4-.5a146.742 146.742 0 0 0 12 7l8 7c-1.801.317-2.134.984-1 2a142.268 142.268 0 0 1 16 4.5c2.861 6.481 7.861 10.314 15 11.5 3.08 2.29 6.247 4.457 9.5 6.5a41.238 41.238 0 0 0 4.5 6c-1.834 3.203-1.334 5.87 1.5 8 .418-4.064 2.585-5.564 6.5-4.5 4.722 4.228 10.056 7.395 16 9.5.592 3.574-.908 5.574-4.5 6a12.93 12.93 0 0 0-.5 5 29.38 29.38 0 0 0-12 2c-1.145 1.276-1.145 2.609 0 4-2.33 3.022-5.33 4.689-9 5 .219 1.175-.114 2.175-1 3a322.85 322.85 0 0 1-53 25.5l1 1a44.809 44.809 0 0 1-16 5 32.864 32.864 0 0 0-5 4.5c-6.681 2.318-13.681 3.984-21 5a84.902 84.902 0 0 0-13 .5 262.056 262.056 0 0 1-31 5.5 1797.99 1797.99 0 0 1-48-.5 1721.31 1721.31 0 0 1-66-11.5c-5.518-3.149-11.518-4.816-18-5v-3c-1.068-.934-2.401-1.268-4-1 .067-3.266-1.599-4.766-5-4.5-1.674-1.506-2.674-3.339-3-5.5a36.433 36.433 0 0 1-12 .5l-2-3a59.743 59.743 0 0 1-14.5-7.5c-.538-1.973.296-2.973 2.5-3a13.139 13.139 0 0 0 6 2v-5c-3.869-.351-7.369-1.684-10.5-4l-1.5.5a10.94 10.94 0 0 1 3 4.5c-6.509 2.533-11.509.866-15-5a124.773 124.773 0 0 1-24-17.5c-1.952-.366-3.618-1.199-5-2.5-4.524-3.361-8.191-7.527-11-12.5a11.333 11.333 0 0 1-3.5-1.5c-.305-2.057-.305-4.057 0-6a35.327 35.327 0 0 1-9.5-5.5 324.6 324.6 0 0 1-12.5-14.5c-.436-3.553-2.436-5.553-6-6l-1-9-1 2c-5.365-2.846-8.531-7.179-9.5-13h3c.256-2.412-.744-4.079-3-5-2.66-.999-5.328-1.999-8-3a56.268 56.268 0 0 1-2.5-7 289.603 289.603 0 0 0-10.5-16 23.455 23.455 0 0 0-2-10.5c2.06-5.057 2.394-10.224 1-15.5l-2 10c-5.266-4.755-8.266-10.755-9-18a171.832 171.832 0 0 0-3-4 810.144 810.144 0 0 1-4-8 283.905 283.905 0 0 0-4.5-23l-1-20c-.708-.881-1.542-1.547-2.5-2v-5a2665.431 2665.431 0 0 1 0-137c1.599-.268 2.932.066 4 1z"/><path style="opacity:1" fill="#153a67" d="M69.5 342.5c2.006 4.006 5.006 7.006 9 9a12.93 12.93 0 0 1-5-.5c-4.267-4.277-9.267-7.277-15-9-1.755-1.936-3.421-3.77-5-5.5-2.694-2.014-5.694-3.514-9-4.5-.828-1.992-2.161-3.492-4-4.5-1.068-.934-2.401-1.268-4-1a2665.431 2665.431 0 0 0 0 137c-.825-4.482-1.325-9.149-1.5-14a3906.305 3906.305 0 0 1 0-125c1.388-1.054 2.888-1.22 4.5-.5l5 5c6.525.204 11.191 3.204 14 9a22.147 22.147 0 0 1 7 4 8.43 8.43 0 0 0 4 .5z"/><path style="opacity:1" fill="#102038" d="M86.5 355.5c3.34-.657 5.34.676 6 4 6.835 2.779 12.835 6.779 18 12 5.743 1.602 10.077 4.935 13 10a500.466 500.466 0 0 1-24-16.5c-5.396-1.832-9.729-4.999-13-9.5z"/><path style="opacity:1" fill="#0d417b" d="M79.5 351.5c1.863 2.205 4.197 3.539 7 4 3.271 4.501 7.604 7.668 13 9.5a500.466 500.466 0 0 0 24 16.5 10.165 10.165 0 0 0 3 3h-6v-3a93.044 93.044 0 0 0-10-4.5c-4.187-5.761-9.853-8.928-17-9.5-.205-3.875-2.205-5.541-6-5a8.435 8.435 0 0 1-.5 4 48.003 48.003 0 0 1-7.5-4c1.875-1.04 3.208-2.54 4-4.5a37.785 37.785 0 0 1-4-6.5z"/><path style="opacity:1" fill="#0e2644" d="M123.5 381.5a122.812 122.812 0 0 1 13 7c1.434 1.088 2.434 2.422 3 4a114.531 114.531 0 0 0-11-5.5c-.566-.995-1.233-1.828-2-2.5a10.165 10.165 0 0 1-3-3z"/><path style="opacity:1" fill="#121e35" d="M139.5 392.5c9.012 2.172 16.678 6.672 23 13.5 3.98 2.936 8.313 5.436 13 7.5.505 2.688 1.838 4.855 4 6.5a539.64 539.64 0 0 1 17 8.5c2.452 4.286 6.119 6.786 11 7.5a26.416 26.416 0 0 0 4 4.5 80.457 80.457 0 0 0-10-4.5 34.798 34.798 0 0 0-7.5-6.5 116.386 116.386 0 0 0-15.5-8.5c-2.951-4.364-6.951-7.198-12-8.5a51.621 51.621 0 0 0-7-7 102.697 102.697 0 0 1-12-6.5 69.714 69.714 0 0 0-8-6.5z"/><path style="opacity:1" fill="#123c6e" d="M166.5 412.5c5.049 1.302 9.049 4.136 12 8.5a116.386 116.386 0 0 1 15.5 8.5c2.8 1.799 5.3 3.966 7.5 6.5a80.457 80.457 0 0 1 10 4.5 44.424 44.424 0 0 0 7 6l3 4a186.49 186.49 0 0 1-26-17.5 20.64 20.64 0 0 0-6-2c-3.287-3.974-7.287-6.974-12-9l-5-1-3-5a4.934 4.934 0 0 0-3-.5v-3z"/><path style="opacity:1" fill="#101f33" d="M218.5 446.5c4.63-.046 8.297 1.788 11 5.5l4 1c6.948 7.849 15.281 13.516 25 17a39.064 39.064 0 0 1 2 4.5h-2a40.624 40.624 0 0 0-13-8 14.698 14.698 0 0 0-3-3.5 122.754 122.754 0 0 1-19-12.5h-2l-3-4z"/><path style="opacity:1" fill="#104274" d="M223.5 450.5a122.754 122.754 0 0 0 19 12.5 14.698 14.698 0 0 1 3 3.5 26.221 26.221 0 0 1-9-3.5 48.77 48.77 0 0 0-12-8c-.88-1.356-1.214-2.856-1-4.5z"/><path style="opacity:1" fill="#fdfcfc" d="M36.5 218.5c49.001-.167 98.001 0 147 .5l194 133c4.388 2.523 8.722 5.023 13 7.5 1.796 2.4 4.13 4.067 7 5 49.058 34.39 98.392 68.39 148 102-2.868-.517-5.534-.85-8-1a4.457 4.457 0 0 0-2 1.5 1629.627 1629.627 0 0 1-120 .5 9.86 9.86 0 0 0-6 1 369.935 369.935 0 0 1 15 26 198.118 198.118 0 0 0 8 17c1.922 6.749 4.589 13.083 8 19a881.827 881.827 0 0 0 10 29c1.095 6.596 2.762 12.93 5 19 .433 2.666.933 5.332 1.5 8 1.524-3.11 2.358-6.444 2.5-10 5.074-16.141 7.24-32.807 6.5-50a838.656 838.656 0 0 1 27.5 18 60.02 60.02 0 0 0 15 10 56.507 56.507 0 0 0 15 10c0 .667.333 1 1 1 2.417 2.72 5.417 4.72 9 6a71.627 71.627 0 0 0 8-12c.667 0 1-.333 1-1a121.52 121.52 0 0 0 7-10.5 51.462 51.462 0 0 0-11-8.5h-1a230.542 230.542 0 0 0-17-12h-1l-8-7c.17-1.322-.163-2.489-1-3.5a66.06 66.06 0 0 1-8-5 8.43 8.43 0 0 0-4-.5 16.332 16.332 0 0 0-2-4c-2.442-1.062-4.442-2.562-6-4.5 1.507-2.434 3.507-4.434 6-6 2.396-.866 3.063-.366 2 1.5.502 1.021 1.168 1.188 2 .5-.295-1.714.038-3.547 1-5.5h1a8.43 8.43 0 0 0 4-.5c6.253-4.425 13.253-6.925 21-7.5.034-3.809 2.034-5.643 6-5.5a25.53 25.53 0 0 0 5-6.5c1.705-1.035 3.372-1.035 5 0 3.417-1.026 4.417-3.026 3-6a4463.111 4463.111 0 0 1 68 45.5 274.262 274.262 0 0 1 4 4c-16.107 52.747-44.44 97.581-85 134.5a6931624.607 6931624.607 0 0 1-470-320 1180.25 1180.25 0 0 0-28.5-20l-.5-46.5c0-15.848.667-31.348 2-46.5z"/><path style="opacity:1" fill="#fee9e4" d="M134.5 304.5a46.42 46.42 0 0 0 10 6 14.698 14.698 0 0 0 3 3.5 105.047 105.047 0 0 0 12 6.5 82.514 82.514 0 0 0 20 14 55.945 55.945 0 0 0 14 10.5l2 .5a14.2 14.2 0 0 0 4-3c.288 6.573-2.378 8.406-8 5.5.958-1.147.625-2.147-1-3a76.112 76.112 0 0 1-11-6 25.513 25.513 0 0 1-4-4.5 289.482 289.482 0 0 1-13-6.5c-.837-1.011-1.17-2.178-1-3.5a8.43 8.43 0 0 0-4 .5c1.388.889 1.222 1.389-.5 1.5l-1.5-1a32.444 32.444 0 0 1-1.5-6c-4.388-1.811-8.055-4.477-11-8-2.758-.75-5.425-2.417-8-5a2.428 2.428 0 0 1-.5-2z"/><path style="opacity:1" fill="#b4423d" d="M209.5 319.5c1.312.645 2.312 1.645 3 3a147.518 147.518 0 0 0-9 13c.522-3.942 2.188-7.276 5-10a9.86 9.86 0 0 0 1-6z"/><path style="opacity:1" fill="#be3d34" d="M144.5 310.5a46.42 46.42 0 0 1-10-6h-1c-.906-1.465-2.239-2.465-4-3-.258 19.793-3.258 39.127-9 58a2.428 2.428 0 0 1-.5 2c-.21-1.558-.71-2.891-1.5-4-.684-6.698-2.351-13.032-5-19 .067-1.459-.266-2.792-1-4a51.569 51.569 0 0 0-1-7c5.537 5.761 8.37 12.761 8.5 21l2-2a166.322 166.322 0 0 0 4.5-47c2.42-.208 4.753.126 7 1a129.675 129.675 0 0 0 11 10z"/><path style="opacity:1" fill="#f9ccc6" d="M105.5 313.5a182.87 182.87 0 0 0 6 14 51.569 51.569 0 0 1 1 7 74.483 74.483 0 0 0-5.5-10 93.497 93.497 0 0 1-1.5-11z"/><path style="opacity:1" fill="#b83c35" d="M104.5 308.5c1.723 1.753 3.223 3.753 4.5 6a182.47 182.47 0 0 0 2.5 13 182.87 182.87 0 0 1-6-14 20.69 20.69 0 0 1-1-5z"/><path style="opacity:1" fill="#fde4dd" d="M133.5 304.5a8.43 8.43 0 0 0-4 .5c.69 5.135 1.357 10.302 2 15.5a323.567 323.567 0 0 0-6.5 32c-.516 3.047-2.016 5.38-4.5 7 5.742-18.873 8.742-38.207 9-58 1.761.535 3.094 1.535 4 3z"/><path style="opacity:1" fill="#ba4543" d="M199.5 313.5c3.525 1.259 6.525 3.259 9 6-3.938-.788-6.938-2.788-9-6z"/><path style="opacity:1" fill="#fde0e1" d="M175.5 295.5a108.78 108.78 0 0 0 12 4.5 12.14 12.14 0 0 0 3.5 4.5c1.566-.561 2.899.106 4 2 .41 1.401.91 2.734 1.5 4a124.07 124.07 0 0 1-21-15z"/><path style="opacity:1" fill="#b63832" d="M79.5 255.5c2.24 1.068 4.074 2.734 5.5 5a1228.194 1228.194 0 0 1 19 43 12.93 12.93 0 0 1 .5 5 389.434 389.434 0 0 1-9-21c-1.492-4.318-3.492-8.318-6-12a139.97 139.97 0 0 0-10-20z"/><path style="opacity:1" fill="#bb3a34" d="M174.5 262.5a250.68 250.68 0 0 1-27 12.5l-1 1c1.289 1.802 2.956 2.969 5 3.5a115.112 115.112 0 0 0 24 16 124.07 124.07 0 0 0 21 15 10.165 10.165 0 0 1 3 3 287.166 287.166 0 0 1-20-10.5 694.392 694.392 0 0 0-36-26l4-5a184.426 184.426 0 0 0 27-9.5z"/><path style="opacity:1" fill="#f6c3ba" d="M89.5 275.5c2.508 3.682 4.508 7.682 6 12-3.702-3.083-5.702-7.083-6-12z"/><path style="opacity:1" fill="#fde0dd" d="M174.5 262.5h2c-3.576 3.73-7.076 6.73-10.5 9-1.726-1.076-3.559-1.243-5.5-.5a32.445 32.445 0 0 1-9 4l-2 2c1.256.417 1.923 1.25 2 2.5-2.044-.531-3.711-1.698-5-3.5l1-1a250.68 250.68 0 0 0 27-12.5z"/><path style="opacity:1" fill="#c72f26" d="M194.5 249.5c-1.973 1.306-3.639 2.973-5 5v1c-4.82 1.574-9.153 3.907-13 7h-1v-4h4c.02-1.643-.647-2.976-2-4a52.141 52.141 0 0 1 10-1.5c1.809-2.238 4.142-3.405 7-3.5z"/><path style="opacity:1" fill="#d9251c" d="M75.5 242.5h4c4.896 1.946 10.23 2.613 16 2 2.131.814 4.464 1.314 7 1.5 29.508.771 59.008.605 88.5-.5l7.5 1a514.367 514.367 0 0 1-4 3c-2.858.095-5.191 1.262-7 3.5a52.141 52.141 0 0 0-10 1.5c1.353 1.024 2.02 2.357 2 4h-4v4h-1a184.426 184.426 0 0 1-27 9.5l-4 5a694.392 694.392 0 0 1 36 26 287.166 287.166 0 0 0 20 10.5c2.062 3.212 5.062 5.212 9 6h1a9.86 9.86 0 0 1-1 6c-2.812 2.724-4.478 6.058-5 10h-1c-2.668.957-4.168 2.957-4.5 6a3.943 3.943 0 0 1-2 1 79.348 79.348 0 0 1-16.5-8c-.212-1.884-1.212-3.217-3-4a8849.219 8849.219 0 0 0-17-10c-.011-1.517-.677-2.684-2-3.5a126.98 126.98 0 0 0-13-6.5 129.675 129.675 0 0 1-11-10 15.418 15.418 0 0 0-7-1 166.322 166.322 0 0 1-4.5 47l-2 2c-.13-8.239-2.963-15.239-8.5-21a182.47 182.47 0 0 1-2.5-13c-1.277-2.247-2.777-4.247-4.5-6a12.93 12.93 0 0 0-.5-5 1228.194 1228.194 0 0 0-19-43c-1.426-2.266-3.26-3.932-5.5-5v-1c-.828-3.304-2.328-6.304-4.5-9-.74-1.249-.573-2.249.5-3z"/><path style="opacity:1" fill="#b8463e" d="M159.5 320.5c5.658 3.32 11.325 6.653 17 10 1.788.783 2.788 2.116 3 4a82.514 82.514 0 0 1-20-14z"/><path style="opacity:1" fill="#be423c" d="M144.5 310.5a126.98 126.98 0 0 1 13 6.5c1.323.816 1.989 1.983 2 3.5a105.047 105.047 0 0 1-12-6.5 14.698 14.698 0 0 1-3-3.5z"/><path style="opacity:1" fill="#b74741" d="M75.5 242.5c-1.073.751-1.24 1.751-.5 3 2.172 2.696 3.672 5.696 4.5 9a40.954 40.954 0 0 1-5-7 44.327 44.327 0 0 0-3-5.5c1.566-.765 2.9-.598 4 .5z"/><path style="opacity:1" fill="#b74540" d="M189.5 254.5c1.361-2.027 3.027-3.694 5-5a514.367 514.367 0 0 0 4-3l-7.5-1a1392.01 1392.01 0 0 1-88.5.5c-2.536-.186-4.869-.686-7-1.5 15.33.41 30.663.744 46 1l64-1.5a82.763 82.763 0 0 1-16 10.5z"/><path style="opacity:1" fill="#fde4df" d="M189.5 255.5v-1a82.763 82.763 0 0 0 16-10.5l-64 1.5c-15.337-.256-30.67-.59-46-1-5.083-1.578-10.416-2.245-16-2h-4c-1.1-1.098-2.434-1.265-4-.5a44.327 44.327 0 0 1 3 5.5c-2.598-1.272-5.098-1.939-7.5-2-.808-2.079-.641-4.079.5-6 5.14.722 10.14.722 15 0 5.96 1.664 11.96 1.997 18 1 20.44 3.65 40.94 3.983 61.5 1a6657.03 6657.03 0 0 1 46.5 2c-1.05 1.602-.383 2.435 2 2.5a148.306 148.306 0 0 1-21 9.5z"/><path style="opacity:1" fill="#c04e48" d="M79.5 242.5c5.584-.245 10.917.422 16 2-5.77.613-11.104-.054-16-2z"/><path style="opacity:1" fill="#103e70" d="M258.5 474.5h2a66.872 66.872 0 0 0 11 8c4.806 4.769 10.139 9.102 16 13a80.368 80.368 0 0 1-10-5.5c-3.152-5.173-7.819-7.506-14-7-.686-3.495-2.353-6.329-5-8.5z"/><path style="opacity:1" fill="#112138" d="M271.5 482.5c4.213-.127 7.546 1.54 10 5a51.28 51.28 0 0 0 6 2 77.626 77.626 0 0 0 14 11.5c1.323.816 1.989 1.983 2 3.5l-10-5c-2.353-.84-4.353-2.174-6-4-5.861-3.898-11.194-8.231-16-13z"/><path style="opacity:1" fill="#151b2a" d="M38.5 495.5a182.281 182.281 0 0 1 6 18 810.144 810.144 0 0 0 4 8 7067.632 7067.632 0 0 1 8 26c-1.37-.356-2.37-1.19-3-2.5-3.853-7.842-6.353-16.008-7.5-24.5-1.667-1-3-2.333-4-4a309.04 309.04 0 0 0-3.5-21z"/><path style="opacity:1" fill="#0d2643" d="M36.5 468.5c.958.453 1.792 1.119 2.5 2l1 20a283.905 283.905 0 0 1 4.5 23 182.281 182.281 0 0 0-6-18 24.93 24.93 0 0 0-1-8 218.138 218.138 0 0 0-1-19z"/><path style="opacity:1" fill="#0e417d" d="m293.5 499.5 10 5c3.981 3.31 7.981 6.644 12 10a204.69 204.69 0 0 1 35 23 52.56 52.56 0 0 1-7-1.5c-1.866-3.054-4.533-4.554-8-4.5.17-1.322-.163-2.489-1-3.5-4.822-3.078-9.822-5.578-15-7.5v4c3.45-.744 5.116.59 5 4-5.389-1.194-10.056-3.694-14-7.5a14.72 14.72 0 0 0 5-1.5l-.5-1c-4.5-3.833-8.667-8-12.5-12.5-4.014-.858-7.014-3.025-9-6.5z"/><path style="opacity:1" fill="#171c27" d="M303.5 504.5a121.384 121.384 0 0 1 22 8.5 54.807 54.807 0 0 0 5 9 155.134 155.134 0 0 0 13 3.5c.364 4.868 3.031 7.534 8 8v3c3.766.215 7.1 1.549 10 4 2.317-1.21 4.317-.71 6 1.5a7.293 7.293 0 0 1-3 2c1.641 1.129 2.641 2.629 3 4.5a226.624 226.624 0 0 0-17-11 204.69 204.69 0 0 0-35-23c-4.019-3.356-8.019-6.69-12-10z"/><path style="opacity:1" fill="#0d417d" d="M48.5 521.5c.98 1.265 1.98 2.599 3 4 .734 7.245 3.734 13.245 9 18l2-10c1.394 5.276 1.06 10.443-1 15.5a23.455 23.455 0 0 1 2 10.5l-7-12a7067.632 7067.632 0 0 0-8-26z"/><path style="opacity:1" fill="#0e233d" d="M379.5 556.5c1.478-.262 2.811.071 4 1a393.348 393.348 0 0 0 19 12.5 38.47 38.47 0 0 1 5 5.5 19.49 19.49 0 0 0-7-3 382.471 382.471 0 0 1-21-16z"/><path style="opacity:1" fill="#211c1b" d="M632.5 219.5a7563.493 7563.493 0 0 1 0 244h3l1 6c-14.356 97.769-63.022 172.935-146 225.5-84.21 48.134-172.21 56.467-264 25-62.926-24.454-113.259-64.62-151-120.5 1.325-1.453 2.158-1.119 2.5 1 .098-2.119.93-3.786 2.5-5a190.912 190.912 0 0 0 18.5 25c.483.948.65 1.948.5 3 1.322-.17 2.489.163 3.5 1a17.335 17.335 0 0 0 3.5 7c2.926 1.422 5.426 3.422 7.5 6a214.487 214.487 0 0 0 10.5 12.5c3.004 2.496 6.338 4.329 10 5.5h1c.408 4.909 3.075 7.743 8 8.5a378.311 378.311 0 0 1 26 21l6 1.5c3.082 1.575 5.749 3.742 8 6.5a39.201 39.201 0 0 0 10 4l3 3a154.719 154.719 0 0 1 16 7 156.49 156.49 0 0 0 11 2.5v1c-.03.997.47 1.664 1.5 2a65.81 65.81 0 0 0 8.5 1.5 6.547 6.547 0 0 1 3 3 68.333 68.333 0 0 1 13 2.5c2.235-.295 4.235.039 6 1v3a487.488 487.488 0 0 0 37 6.5 7.293 7.293 0 0 0 3 2c19 .667 38 .667 57 0a724.034 724.034 0 0 0 53-8 91.188 91.188 0 0 1 20-6c.752-.671 1.086-1.504 1-2.5a480.253 480.253 0 0 1 21-5v-3c3.317-.164 6.317-1.164 9-3 4.322-1.493 8.656-2.993 13-4.5a150.203 150.203 0 0 1 11-8c5.27.371 8.936-1.796 11-6.5a97.585 97.585 0 0 0 18-10.5 14.506 14.506 0 0 1 4-5 179.555 179.555 0 0 1 13-8.5c1.114-1.223 1.281-2.556.5-4-2.531-3.388-5.698-5.721-9.5-7 .203-1.89-.463-3.39-2-4.5-5.25-1.252-9.417-4.085-12.5-8.5a19.522 19.522 0 0 0-7.5-1c-1.413-2.919-3.413-5.419-6-7.5-7.45-4.238-14.45-9.238-21-15-9.738-4.561-18.405-10.561-26-18-3.638-.485-6.638-1.985-9-4.5a174.27 174.27 0 0 1-20-15 9.86 9.86 0 0 0-6-1 38.47 38.47 0 0 0-5-5.5 393.348 393.348 0 0 1-19-12.5c-1.189-.929-2.522-1.262-4-1a32.043 32.043 0 0 1-12-8c-.359-1.871-1.359-3.371-3-4.5a7.293 7.293 0 0 0 3-2c-1.683-2.21-3.683-2.71-6-1.5-2.9-2.451-6.234-3.785-10-4v-3c-4.969-.466-7.636-3.132-8-8a155.134 155.134 0 0 1-13-3.5 54.807 54.807 0 0 1-5-9 121.384 121.384 0 0 0-22-8.5c-.011-1.517-.677-2.684-2-3.5a77.626 77.626 0 0 1-14-11.5 51.28 51.28 0 0 1-6-2c-2.454-3.46-5.787-5.127-10-5a66.872 66.872 0 0 1-11-8 39.064 39.064 0 0 0-2-4.5c-9.719-3.484-18.052-9.151-25-17l-4-1c-2.703-3.712-6.37-5.546-11-5.5a44.424 44.424 0 0 1-7-6 26.416 26.416 0 0 1-4-4.5c-4.881-.714-8.548-3.214-11-7.5a539.64 539.64 0 0 0-17-8.5c-2.162-1.645-3.495-3.812-4-6.5-4.687-2.064-9.02-4.564-13-7.5-6.322-6.828-13.988-11.328-23-13.5-.566-1.578-1.566-2.912-3-4a122.812 122.812 0 0 0-13-7c-2.923-5.065-7.257-8.398-13-10-5.165-5.221-11.165-9.221-18-12-.66-3.324-2.66-4.657-6-4-2.803-.461-5.137-1.795-7-4h-1c-3.994-1.994-6.994-4.994-9-9-1.609-1.271-3.442-2.271-5.5-3-.942-2.771-1.108-5.438-.5-8a6931624.607 6931624.607 0 0 0 470 320c40.56-36.919 68.893-81.753 85-134.5a274.262 274.262 0 0 0-4-4 4463.111 4463.111 0 0 0-68-45.5c0-.667-.333-1-1-1a11284.578 11284.578 0 0 1-148-102c1.107-1.492 2.607-2.492 4.5-3 5.872 1.443 10.706 4.443 14.5 9a9.108 9.108 0 0 0 5 1 379.602 379.602 0 0 1 29 19 73.668 73.668 0 0 0 8 6c.328 2.672 1.828 4.339 4.5 5 .483.948.649 1.948.5 3 3.245.38 6.245 1.547 9 3.5.837 1.011 1.17 2.178 1 3.5 3.982-.922 6.316.578 7 4.5 4.165 1.169 7.499 3.502 10 7a195.317 195.317 0 0 1 13 5.5c2.328 1.8 4.995 2.967 8 3.5 1.692 1.307 3.025 2.807 4 4.5.791 2.181 2.291 3.847 4.5 5 3.85 1.862 7.683 3.696 11.5 5.5a3.647 3.647 0 0 0-1 1.5c4.364 5.35 10.031 8.35 17 9a136.772 136.772 0 0 1 9 10.5c4.145.073 7.479 1.739 10 5l4 1a42.738 42.738 0 0 0 12 9.5c2.234 1.881 3.567 4.215 4 7a4.934 4.934 0 0 0-3 .5l10 1a25.099 25.099 0 0 0 8 5c-.951.718-1.117 1.551-.5 2.5 3.011 2.441 6.511 3.607 10.5 3.5.971 1.481 2.304 2.315 4 2.5 2.381.92 4.714.92 7 0a624.355 624.355 0 0 1 2-10h3a308.345 308.345 0 0 1 4.5-42c.5-77.999.667-155.999.5-234z"/><path style="opacity:1" fill="#b24e45" d="M541.5 559.5a71.627 71.627 0 0 1-8 12c-3.583-1.28-6.583-3.28-9-6a56.021 56.021 0 0 1 8.5 4 42.098 42.098 0 0 0 6-9c.671-.752 1.504-1.086 2.5-1z"/><path style="opacity:1" fill="#b9413a" d="M538.5 539.5a51.462 51.462 0 0 1 11 8.5 121.52 121.52 0 0 1-7 10.5c.278-3.684 1.612-6.85 4-9.5-1.299-3.778-3.965-5.278-8-4.5v-5z"/><path style="opacity:1" fill="#c5332d" d="M440.5 530.5a239.42 239.42 0 0 1 7 12.5 17.65 17.65 0 0 0 6-.5v5h-4c-.909 2.003-.576 6.003 1 12a881.827 881.827 0 0 1-10-29z"/><path style="opacity:1" fill="#b6433b" d="M520.5 527.5a230.542 230.542 0 0 1 17 12 4.934 4.934 0 0 1-3-.5 57.668 57.668 0 0 0-12-8c-1.323-.816-1.989-1.983-2-3.5z"/><path style="opacity:1" fill="#c13833" d="M493.5 544.5a838.656 838.656 0 0 0-27.5-18c.74 17.193-1.426 33.859-6.5 50a44.093 44.093 0 0 0-2 3 43.836 43.836 0 0 0-2-1c-2.238-6.07-3.905-12.404-5-19 3.268 3.215 4.768 7.215 4.5 12 2.19 2.749 3.857 2.415 5-1a1017.582 1017.582 0 0 0 5-47c4.69.519 8.19 2.852 10.5 7a54.095 54.095 0 0 0 9 4 81.055 81.055 0 0 1 9 10z"/><path style="opacity:1" fill="#b83c3c" d="M432.5 511.5c1.758 1.641 3.258 3.641 4.5 6a188.08 188.08 0 0 1 3.5 13c-3.411-5.917-6.078-12.251-8-19z"/><path style="opacity:1" fill="#b63b32" d="M483.5 502.5a2679.064 2679.064 0 0 0 15 9c3.773 3.727 8.106 6.727 13 9l8 7a4.934 4.934 0 0 1-3-.5 8502.611 8502.611 0 0 0-31-21c-1.323-.816-1.989-1.983-2-3.5z"/><path style="opacity:1" fill="#fdd9da" d="M498.5 511.5a8.43 8.43 0 0 1 4 .5 66.06 66.06 0 0 0 8 5c.837 1.011 1.17 2.178 1 3.5-4.894-2.273-9.227-5.273-13-9z"/><path style="opacity:1" fill="#fdded7" d="M501.5 493.5c-.962 1.953-1.295 3.786-1 5.5-.832.688-1.498.521-2-.5 1.063-1.866.396-2.366-2-1.5-2.493 1.566-4.493 3.566-6 6 1.558 1.938 3.558 3.438 6 4.5a16.332 16.332 0 0 1 2 4 2679.064 2679.064 0 0 1-15-9v-2c4.287-1.148 8.287-2.815 12-5l6-2z"/><path style="opacity:1" fill="#141c29" d="M547.5 457.5a3576.85 3576.85 0 0 1 62 41.5c2.256 2.083 4.256 4.25 6 6.5-1.696-.185-3.029-1.019-4-2.5-3.989.107-7.489-1.059-10.5-3.5-.617-.949-.451-1.782.5-2.5a25.099 25.099 0 0 1-8-5l-10-1a4.934 4.934 0 0 1 3-.5c-.433-2.785-1.766-5.119-4-7a42.738 42.738 0 0 1-12-9.5l-4-1c-2.521-3.261-5.855-4.927-10-5a136.772 136.772 0 0 0-9-10.5z"/><path style="opacity:1" fill="#b54b42" d="M495.5 495.5c-3.713 2.185-7.713 3.852-12 5 1.895-1.943 4.228-3.443 7-4.5a12.93 12.93 0 0 1 5-.5z"/><path style="opacity:1" fill="#123e6f" d="M527.5 443.5c7.786-.066 13.453 3.434 17 10.5a68.719 68.719 0 0 1 14 7c2.98 3.946 6.98 6.113 12 6.5.993 3.501 2.993 6.334 6 8.5a131.337 131.337 0 0 0 16.5 7.5c1.811 3.145 4.311 5.645 7.5 7.5 6.227 2.616 12.06 5.783 17.5 9.5 1.614-1.317 2.781-2.983 3.5-5 .506-5.185 1.506-10.185 3-15a27.395 27.395 0 0 0-1-3.5c1.701-4.688 3.368-9.188 5-13.5a267.24 267.24 0 0 1-4 32 624.355 624.355 0 0 0-2 10c-2.286.92-4.619.92-7 0-1.744-2.25-3.744-4.417-6-6.5a3576.85 3576.85 0 0 0-62-41.5 201.448 201.448 0 0 0-20-14z"/><path style="opacity:1" fill="#b93d38" d="M510.5 488.5a34.406 34.406 0 0 0-8 5h-1l-6 2c.444-1.613 1.444-2.78 3-3.5a82.093 82.093 0 0 1 12-3.5z"/><path style="opacity:1" fill="#fde4e3" d="M536.5 473.5h2a25.53 25.53 0 0 1-5 6.5c-3.966-.143-5.966 1.691-6 5.5-7.747.575-14.747 3.075-21 7.5a8.43 8.43 0 0 1-4 .5 34.406 34.406 0 0 1 8-5c.667 0 1-.333 1-1a25.93 25.93 0 0 0 9-3.5 192.147 192.147 0 0 0 16-10.5z"/><path style="opacity:1" fill="#b73d35" d="M536.5 473.5a192.147 192.147 0 0 1-16 10.5 25.93 25.93 0 0 1-9 3.5c7.804-5.438 16.137-10.105 25-14z"/><path style="opacity:1" fill="#d8251c" d="M511.5 471.5a256.49 256.49 0 0 0 25-1v3c-8.863 3.895-17.196 8.562-25 14 0 .667-.333 1-1 1a82.093 82.093 0 0 0-12 3.5c-1.556.72-2.556 1.887-3 3.5a12.93 12.93 0 0 0-5 .5c-2.772 1.057-5.105 2.557-7 4.5v2c.011 1.517.677 2.684 2 3.5a8502.611 8502.611 0 0 1 31 21 4.934 4.934 0 0 0 3 .5h1c.011 1.517.677 2.684 2 3.5a57.668 57.668 0 0 1 12 8 4.934 4.934 0 0 0 3 .5h1v5c4.035-.778 6.701.722 8 4.5-2.388 2.65-3.722 5.816-4 9.5 0 .667-.333 1-1 1-.996-.086-1.829.248-2.5 1a42.098 42.098 0 0 1-6 9 56.021 56.021 0 0 0-8.5-4c-.667 0-1-.333-1-1-4.066-2.557-7.733-5.723-11-9.5a8.43 8.43 0 0 0-4-.5c-3.344-5.656-8.344-8.989-15-10a81.055 81.055 0 0 0-9-10 54.095 54.095 0 0 1-9-4c-2.31-4.148-5.81-6.481-10.5-7a1017.582 1017.582 0 0 1-5 47c-1.143 3.415-2.81 3.749-5 1 .268-4.785-1.232-8.785-4.5-12-1.576-5.997-1.909-9.997-1-12h4v-5a17.65 17.65 0 0 1-6 .5 239.42 239.42 0 0 0-7-12.5 188.08 188.08 0 0 0-3.5-13c-1.242-2.359-2.742-4.359-4.5-6a198.118 198.118 0 0 1-8-17 8.43 8.43 0 0 0-.5-4 154.34 154.34 0 0 1-10.5-21c32.766 2.98 65.433 3.647 98 2z"/><path style="opacity:1" fill="#bd4e47" d="M508.5 554.5a8.43 8.43 0 0 1 4 .5c3.267 3.777 6.934 6.943 11 9.5a56.507 56.507 0 0 1-15-10z"/><path style="opacity:1" fill="#bf3f38" d="M493.5 544.5c6.656 1.011 11.656 4.344 15 10a60.02 60.02 0 0 1-15-10z"/><path style="opacity:1" fill="#b73631" d="M415.5 467.5a352.57 352.57 0 0 0 40 3 784.68 784.68 0 0 0 56 1c-32.567 1.647-65.234.98-98-2a154.34 154.34 0 0 0 10.5 21 8.43 8.43 0 0 1 .5 4 369.935 369.935 0 0 0-15-26 9.86 9.86 0 0 1 6-1z"/><path style="opacity:1" fill="#aa605e" d="M530.5 469.5c4.481-1.148 9.148-1.315 14-.5-1.41 1.372-3.077 2.205-5 2.5-2.488-1.888-5.488-2.555-9-2z"/><path style="opacity:1" fill="#bd544c" d="M530.5 469.5c3.512-.555 6.512.112 9 2l-1 2h-2v-3a256.49 256.49 0 0 1-25 1 784.68 784.68 0 0 1-56-1c25.012.219 50.012-.115 75-1z"/><path style="opacity:1" fill="#fde7e3" d="M545.5 466.5c.667 0 1 .333 1 1 1.417 2.974.417 4.974-3 6-1.628-1.035-3.295-1.035-5 0l1-2c1.923-.295 3.59-1.128 5-2.5-4.852-.815-9.519-.648-14 .5a1698.537 1698.537 0 0 1-75 1 352.57 352.57 0 0 1-40-3 1629.627 1629.627 0 0 0 120-.5 4.457 4.457 0 0 1 2-1.5c2.466.15 5.132.483 8 1z"/><path style="opacity:1" fill="#b34140" d="M294.5 447.5a104.618 104.618 0 0 1-1 9 189.172 189.172 0 0 0-4 17c-2.18-2.881-3.18-6.214-3-10a44.093 44.093 0 0 1 2 3l1-1.5a238.986 238.986 0 0 0 3-15.5l2-2z"/><path style="opacity:1" fill="#f9c5c2" d="M293.5 456.5c.057 6.1-1.276 11.766-4 17 1.096-5.833 2.43-11.5 4-17z"/><path style="opacity:1" fill="#b93c30" d="M378.5 438.5a76.966 76.966 0 0 1-12 17 71.58 71.58 0 0 1 4-11 34.37 34.37 0 0 1 8-6z"/><path style="opacity:1" fill="#131f2e" d="m515.5 436.5 6 1.5c1.689 2.253 3.689 4.086 6 5.5a201.448 201.448 0 0 1 20 14c-6.969-.65-12.636-3.65-17-9a3.647 3.647 0 0 1 1-1.5c-3.817-1.804-7.65-3.638-11.5-5.5-2.209-1.153-3.709-2.819-4.5-5z"/><path style="opacity:1" fill="#b9403a" d="M348.5 447.5c5.059.749 9.059 3.249 12 7.5 1.973.495 3.973.662 6 .5.085 1.495-.581 2.495-2 3a102.75 102.75 0 0 1-16-11z"/><path style="opacity:1" fill="#b93f37" d="M315.5 389.5a4799.346 4799.346 0 0 1 66 45.5c-.663 1.518-1.663 2.685-3 3.5v-5a9.108 9.108 0 0 1-5-1l-7-6.5a452.878 452.878 0 0 0-32-21c-4.379-.676-7.379-3.009-9-7a73.336 73.336 0 0 0-10-5.5v-3z"/><path style="opacity:1" fill="#be3731" d="M273.5 421.5c2.28 2.294 4.114 4.961 5.5 8a613.237 613.237 0 0 1 7.5 34 141.205 141.205 0 0 0-5-14 668.21 668.21 0 0 0-8-28z"/><path style="opacity:1" fill="#fde2de" d="M256.5 384.5a1324.92 1324.92 0 0 1 17 37 668.21 668.21 0 0 1 8 28c-1.154-3.939-3.154-7.439-6-10.5 1.054-1.388 1.22-2.888.5-4.5-5.241-7.151-8.241-15.151-9-24a15.39 15.39 0 0 1-3-6 12.14 12.14 0 0 1-4.5-3.5 3.943 3.943 0 0 0 1-2c-2.182-4.559-3.516-9.393-4-14.5z"/><path style="opacity:1" fill="#151c2c" d="M458.5 396.5a910.6 910.6 0 0 1 32 22.5c1.747.352 3.414.852 5 1.5a45.408 45.408 0 0 0 8 8 195.317 195.317 0 0 0-13-5.5c-2.501-3.498-5.835-5.831-10-7-.684-3.922-3.018-5.422-7-4.5.17-1.322-.163-2.489-1-3.5-2.755-1.953-5.755-3.12-9-3.5a4.934 4.934 0 0 0-.5-3c-2.672-.661-4.172-2.328-4.5-5z"/><path style="opacity:1" fill="#103e75" d="M450.5 390.5a87.147 87.147 0 0 1 8 2c7.017 3.858 13.35 8.691 19 14.5 7.64 2.494 13.64 6.994 18 13.5a27.603 27.603 0 0 0-5-1.5 910.6 910.6 0 0 0-32-22.5 73.668 73.668 0 0 1-8-6z"/><path style="opacity:1" fill="#be3a38" d="M256.5 384.5v-1a55.057 55.057 0 0 0 6.5 7 92.136 92.136 0 0 0 8 20 206.993 206.993 0 0 0 2.5 11 1324.92 1324.92 0 0 0-17-37z"/><path style="opacity:1" fill="#bf3934" d="M351.5 370.5c-9.854 6.592-20.521 11.592-32 15a255.994 255.994 0 0 0 18-10.5 124.224 124.224 0 0 0 14-4.5z"/><path style="opacity:1" fill="#ba403c" d="M249.5 369.5c2.778 3.221 4.778 6.888 6 11-2.778-3.221-4.778-6.888-6-11z"/><path style="opacity:1" fill="#b5423b" d="M367.5 361.5c-4.816 3.793-10.15 6.793-16 9-.086-.996.248-1.829 1-2.5 4.387-.729 8.053-2.729 11-6a8.43 8.43 0 0 1 4-.5z"/><path style="opacity:1" fill="#d8251c" d="M263.5 357.5h8c1.792.809 3.792 1.309 6 1.5 30.032.937 60.032.437 90-1.5v4a8.43 8.43 0 0 0-4 .5c-2.947 3.271-6.613 5.271-11 6-.752.671-1.086 1.504-1 2.5a124.224 124.224 0 0 1-14 4.5 255.994 255.994 0 0 1-18 10.5c-1.1 1.058-2.434 1.892-4 2.5-1.238.69-1.238 1.19 0 1.5v3a73.336 73.336 0 0 1 10 5.5c1.621 3.991 4.621 6.324 9 7a452.878 452.878 0 0 1 32 21l7 6.5a9.108 9.108 0 0 0 5 1v5a34.37 34.37 0 0 0-8 6 71.58 71.58 0 0 0-4 11 18.453 18.453 0 0 1-6-.5c-2.941-4.251-6.941-6.751-12-7.5-.011-1.517-.677-2.684-2-3.5a14.587 14.587 0 0 1-6-4 12.93 12.93 0 0 0-5-.5v-1a176.782 176.782 0 0 0-29-21.5 4.934 4.934 0 0 0-3-.5c-.751-5.055-3.751-7.055-9-6a254.611 254.611 0 0 1-2 39 238.986 238.986 0 0 1-3 15.5l-1 1.5a44.093 44.093 0 0 0-2-3 613.237 613.237 0 0 0-7.5-34c-1.386-3.039-3.22-5.706-5.5-8a206.993 206.993 0 0 1-2.5-11 92.136 92.136 0 0 1-8-20 55.057 55.057 0 0 1-6.5-7c-.904-.709-1.237-1.709-1-3-1.222-4.112-3.222-7.779-6-11a54.922 54.922 0 0 0-4-12h18z"/><path style="opacity:1" fill="#be4a46" d="M335.5 439.5a12.93 12.93 0 0 1 5 .5 14.587 14.587 0 0 0 6 4c1.323.816 1.989 1.983 2 3.5a128.376 128.376 0 0 1-13-8z"/><path style="opacity:1" fill="#b4403d" d="M296.5 413.5v23c-.146 3.887-.813 7.554-2 11a914.96 914.96 0 0 1 2-34z"/><path style="opacity:1" fill="#de8782" d="M296.5 413.5c.992-.172 1.658.162 2 1l-2 22v-23z"/><path style="opacity:1" fill="#bb433d" d="M303.5 416.5a4.934 4.934 0 0 1 3 .5 176.782 176.782 0 0 1 29 21.5 4964.039 4964.039 0 0 0-13-7.5 155.017 155.017 0 0 1-19-14.5z"/><path style="opacity:1" fill="#c52f28" d="m303.5 416.5-5-2c-.342-.838-1.008-1.172-2-1a914.96 914.96 0 0 0-2 34l-2 2a254.611 254.611 0 0 0 2-39c5.249-1.055 8.249.945 9 6z"/><path style="opacity:1" fill="#0c417f" d="M377.5 340.5a218.282 218.282 0 0 1 12.5 4l1-1a79.421 79.421 0 0 1 6.5 8.5 12.93 12.93 0 0 0 5 .5c-.117 1.984.55 3.65 2 5a47.633 47.633 0 0 1 7 4.5 395.784 395.784 0 0 1 19-.5v8a4.934 4.934 0 0 0-3 .5c.88 1.356 1.214 2.856 1 4.5a79.172 79.172 0 0 1 10 2 120.5 120.5 0 0 0 12 14 379.602 379.602 0 0 0-29-19 248.125 248.125 0 0 0-31-20.5c-2.75-3.928-6.416-6.428-11-7.5l-2-3z"/><path style="opacity:1" fill="#b93931" d="M263.5 356.5v1h-18a54.922 54.922 0 0 1 4 12 85.185 85.185 0 0 0-9-13c.47-1.193 1.47-1.86 3-2a182.929 182.929 0 0 0 20 2z"/><path style="opacity:1" fill="#b63e3c" d="M368.5 361.5h-1v-4a940.039 940.039 0 0 1-90 1.5c-2.208-.191-4.208-.691-6-1.5 21.492 1.216 42.826 1.216 64 0a276.207 276.207 0 0 1 37 0c-1.367 1.34-2.7 2.673-4 4z"/><path style="opacity:1" fill="#ee9a97" d="M263.5 357.5v-1h8a1068.25 1068.25 0 0 0 57 1h7c-21.174 1.216-42.508 1.216-64 0h-8z"/><path style="opacity:1" fill="#f9d5d1" d="M368.5 361.5c1.3-1.327 2.633-2.66 4-4a276.207 276.207 0 0 0-37 0h-7c8.777-1.552 17.777-2.219 27-2l20 1a8.905 8.905 0 0 0-3 4c-1.189.929-2.522 1.262-4 1z"/><path style="opacity:1" fill="#fcd3c9" d="M113.5 338.5c2.649 5.968 4.316 12.302 5 19-3.337-5.67-5.004-12.004-5-19z"/><path style="opacity:1" fill="#f9c9c4" d="M271.5 356.5h-8c-6.699-.3-13.365-.966-20-2-1.53.14-2.53.807-3 2-1.098-1.101-1.265-2.434-.5-4a1611.914 1611.914 0 0 0 31.5 4z"/><path style="opacity:1" fill="#161d28" d="M379.5 343.5c4.584 1.072 8.25 3.572 11 7.5a248.125 248.125 0 0 1 31 20.5 9.108 9.108 0 0 1-5-1c-3.794-4.557-8.628-7.557-14.5-9-1.893.508-3.393 1.508-4.5 3-2.87-.933-5.204-2.6-7-5 2.177.086 4.177.753 6 2 .608-1.263 1.274-2.93 2-5a29.045 29.045 0 0 1-8-2 175.298 175.298 0 0 0-11-11z"/><path style="opacity:1" fill="#c44e48" d="M179.5 334.5a79.348 79.348 0 0 0 16.5 8 3.943 3.943 0 0 0 2-1c.332-3.043 1.832-5.043 4.5-6a32.894 32.894 0 0 1-3 7 14.2 14.2 0 0 1-4 3l-2-.5a55.945 55.945 0 0 1-14-10.5z"/><path style="opacity:1" fill="#ab4742" d="M459.5 576.5c-.142 3.556-.976 6.89-2.5 10a168.167 168.167 0 0 1-1.5-8c.65.304 1.317.637 2 1a44.093 44.093 0 0 1 2-3z"/><path style="opacity:1" fill="#0f1e2f" d="M407.5 575.5a9.86 9.86 0 0 1 6 1 174.27 174.27 0 0 0 20 15c-2.925.04-5.591-.793-8-2.5a258.461 258.461 0 0 1-18-13.5z"/><path style="opacity:1" fill="#111f35" d="M433.5 591.5c2.362 2.515 5.362 4.015 9 4.5 7.595 7.439 16.262 13.439 26 18 6.55 5.762 13.55 10.762 21 15 2.587 2.081 4.587 4.581 6 7.5-3.613-2.949-7.613-5.449-12-7.5a13.92 13.92 0 0 1-3-4 125.266 125.266 0 0 0-13-6.5 87.815 87.815 0 0 0-12-10 129.974 129.974 0 0 1-20-12.5 39.064 39.064 0 0 1-2-4.5z"/><path style="opacity:1" fill="#0c417d" d="M400.5 572.5a19.49 19.49 0 0 1 7 3 258.461 258.461 0 0 0 18 13.5c2.409 1.707 5.075 2.54 8 2.5a39.064 39.064 0 0 0 2 4.5 129.974 129.974 0 0 0 20 12.5 87.815 87.815 0 0 1 12 10 142.268 142.268 0 0 0-16-4.5c-1.134-1.016-.801-1.683 1-2l-8-7a146.742 146.742 0 0 1-12-7c-1.399-.595-2.732-.428-4 .5-3.26-1.355-4.927-3.855-5-7.5a25.913 25.913 0 0 1-9-8l-6-1c-3.273-3.372-5.94-6.538-8-9.5z"/><path style="opacity:1" fill="#103f78" d="M63.5 559.5a289.603 289.603 0 0 1 10.5 16 56.268 56.268 0 0 0 2.5 7c2.672 1.001 5.34 2.001 8 3 2.256.921 3.256 2.588 3 5h-3c.969 5.821 4.135 10.154 9.5 13l1-2 1 9c3.564.447 5.564 2.447 6 6a324.6 324.6 0 0 0 12.5 14.5 35.327 35.327 0 0 0 9.5 5.5c-.305 1.943-.305 3.943 0 6a11.333 11.333 0 0 0 3.5 1.5c2.809 4.973 6.476 9.139 11 12.5a5.727 5.727 0 0 1-3-1h-1a1261.725 1261.725 0 0 1-41-45 295.935 295.935 0 0 0-18.5-27 371.786 371.786 0 0 1-11.5-24z"/><path style="opacity:1" fill="#121d31" d="M495.5 636.5a19.522 19.522 0 0 1 7.5 1c3.083 4.415 7.25 7.248 12.5 8.5 1.537 1.11 2.203 2.61 2 4.5a494.873 494.873 0 0 1-22-14z"/><path style="opacity:1" fill="#151d2b" d="m56.5 547.5 7 12a371.786 371.786 0 0 0 11.5 24 295.935 295.935 0 0 1 18.5 27 1261.725 1261.725 0 0 0 41 45c-3.662-1.171-6.996-3.004-10-5.5a214.487 214.487 0 0 1-10.5-12.5c-2.074-2.578-4.574-4.578-7.5-6a17.335 17.335 0 0 1-3.5-7c-1.011-.837-2.178-1.17-3.5-1a4.932 4.932 0 0 0-.5-3 190.912 190.912 0 0 1-18.5-25c-1.57 1.214-2.402 2.881-2.5 5-.342-2.119-1.175-2.453-2.5-1l-1-2c.185-3.171.352-6.505.5-10a86.742 86.742 0 0 0-6-11c-1-1.333-2-1.333-3 0a17.758 17.758 0 0 1-1.5-7c-1.322.17-2.489-.163-3.5-1l-1 2a10.255 10.255 0 0 1-1.5-4c1.843-1.929 2.01-4.263.5-7l-1 3a342.65 342.65 0 0 1-1.5-15z"/><path style="opacity:1" fill="#111d2f" d="M135.5 655.5c.891.61 1.891.943 3 1a116.904 116.904 0 0 0 9 9.5 624.253 624.253 0 0 1 28 20.5l-6-1.5a378.311 378.311 0 0 0-26-21c-4.925-.757-7.592-3.591-8-8.5z"/><path style="opacity:1" fill="#102037" d="M517.5 650.5c3.802 1.279 6.969 3.612 9.5 7 .781 1.444.614 2.777-.5 4a179.555 179.555 0 0 0-13 8.5 14.506 14.506 0 0 0-4 5 97.585 97.585 0 0 1-18 10.5c3.012-4.172 7.012-7.005 12-8.5a40.433 40.433 0 0 1 13-10 71.1 71.1 0 0 0 5-5.5c1.147-2.265 1.314-4.598.5-7a32.6 32.6 0 0 1-4.5-4z"/><path style="opacity:1" fill="#0f4078" d="M138.5 656.5c1.382 1.301 3.048 2.134 5 2.5a124.773 124.773 0 0 0 24 17.5c3.491 5.866 8.491 7.533 15 5a10.94 10.94 0 0 0-3-4.5l1.5-.5c3.131 2.316 6.631 3.649 10.5 4v5a13.139 13.139 0 0 1-6-2c-2.204.027-3.038 1.027-2.5 3a59.743 59.743 0 0 0 14.5 7.5l2 3c4.024.497 8.024.331 12-.5.326 2.161 1.326 3.994 3 5.5 3.401-.266 5.067 1.234 5 4.5 1.599-.268 2.932.066 4 1a27.419 27.419 0 0 1-12-2.5 711.517 711.517 0 0 1-23-13 155.306 155.306 0 0 1-13-5.5 624.253 624.253 0 0 0-28-20.5 116.904 116.904 0 0 1-9-9.5z"/><path style="opacity:1" fill="#103e74" d="M467.5 618.5a125.266 125.266 0 0 1 13 6.5 13.92 13.92 0 0 0 3 4c4.387 2.051 8.387 4.551 12 7.5a494.873 494.873 0 0 0 22 14 32.6 32.6 0 0 0 4.5 4c.814 2.402.647 4.735-.5 7a71.1 71.1 0 0 1-5 5.5 40.433 40.433 0 0 0-13 10c-4.988 1.495-8.988 4.328-12 8.5a177.67 177.67 0 0 0-35 19c-2.683 1.836-5.683 2.836-9 3a284.78 284.78 0 0 0-21 8l-6 1a32.864 32.864 0 0 1 5-4.5 44.809 44.809 0 0 0 16-5l-1-1a322.85 322.85 0 0 0 53-25.5c.886-.825 1.219-1.825 1-3 3.67-.311 6.67-1.978 9-5-1.145-1.391-1.145-2.724 0-4a29.38 29.38 0 0 1 12-2 12.93 12.93 0 0 1 .5-5c3.592-.426 5.092-2.426 4.5-6-5.944-2.105-11.278-5.272-16-9.5-3.915-1.064-6.082.436-6.5 4.5-2.834-2.13-3.334-4.797-1.5-8a41.238 41.238 0 0 1-4.5-6 146.526 146.526 0 0 1-9.5-6.5c-7.139-1.186-12.139-5.019-15-11.5z"/><path style="opacity:1" fill="#111f34" d="M491.5 685.5c-2.064 4.704-5.73 6.871-11 6.5a150.203 150.203 0 0 0-11 8c-4.344 1.507-8.678 3.007-13 4.5a177.67 177.67 0 0 1 35-19z"/><path style="opacity:1" fill="#101f35" d="M175.5 686.5a155.306 155.306 0 0 0 13 5.5 711.517 711.517 0 0 0 23 13 27.419 27.419 0 0 0 12 2.5v2a156.49 156.49 0 0 1-11-2.5 154.719 154.719 0 0 0-16-7l-3-3a39.201 39.201 0 0 1-10-4c-2.251-2.758-4.918-4.925-8-6.5z"/><path style="opacity:1" fill="#12203c" d="M223.5 710.5c6.482.184 12.482 1.851 18 5 2.904.785 5.57 2.119 8 4a68.333 68.333 0 0 0-13-2.5 6.547 6.547 0 0 0-3-3 65.81 65.81 0 0 1-8.5-1.5c-1.03-.336-1.53-1.003-1.5-2z"/><path style="opacity:1" fill="#09223a" d="M447.5 707.5v3a480.253 480.253 0 0 0-21 5 284.78 284.78 0 0 1 21-8z"/><path style="opacity:1" fill="#123e70" d="M241.5 715.5a1721.31 1721.31 0 0 0 66 11.5c16.085.381 32.085.548 48 .5a262.056 262.056 0 0 0 31-5.5 84.902 84.902 0 0 1 13-.5c-6.663 2.115-13.663 3.948-21 5.5-41.514 6.358-82.514 4.191-123-6.5-1.765-.961-3.765-1.295-6-1-2.43-1.881-5.096-3.215-8-4z"/><path style="opacity:1" fill="#111d2f" d="M426.5 715.5c.086.996-.248 1.829-1 2.5a91.188 91.188 0 0 0-20 6 724.034 724.034 0 0 1-53 8c-19 .667-38 .667-57 0a7.293 7.293 0 0 1-3-2 487.488 487.488 0 0 1-37-6.5v-3c40.486 10.691 81.486 12.858 123 6.5 7.337-1.552 14.337-3.385 21-5.5 7.319-1.016 14.319-2.682 21-5l6-1z"/></svg>