<svg xmlns="http://www.w3.org/2000/svg" width="636.85" height="655.294"><path style="fill:#131516;fill-rule:evenodd;fill-opacity:1;stroke:none" d="m281.898 614.147-1.766-.192-1.804-.154-1.805-.192-1.766-.192-1.805-.192-1.766-.153-1.804-.192-1.767-.154-1.804-.192-1.766-.154-1.767-.192-1.804-.153-1.766-.154-1.767-.192-1.766-.153-5.529-.999-5.49-1.036-5.376-1.114-5.336-1.152-5.26-1.228L223 604.7l-2.61-.653-2.573-.69-2.573-.692-2.534-.73-2.572-.729-2.535-.768-2.534-.806-2.495-.768-2.534-.845-2.496-.844-2.534-.845-2.496-.883-2.496-.883-2.495-.922-2.496-.96-2.496-.96-2.534-.998-2.495-.998-2.496-1.037-2.496-1.075-4.108-2.035-3.225-1.574-2.688-1.344-2.419-1.229-2.457-1.305-2.803-1.46-3.417-1.842-4.377-2.343-3.686-2.303-3.648-2.304-3.609-2.342-3.532-2.342-3.494-2.42-3.418-2.38-3.417-2.457-3.34-2.458-3.34-2.534-3.264-2.496-3.264-2.572-3.225-2.611-3.187-2.611-3.148-2.65-3.11-2.687-3.11-2.726-3.916-4.032-3.072-3.148-2.496-2.611-2.15-2.266-2.112-2.265-2.265-2.534-2.764-3.072-3.456-3.878-2.342-3.033-2.304-3.033-2.227-3.034-2.227-3.033-2.15-3.033-2.112-3.034-2.073-3.033-1.997-3.033-1.996-3.034-1.92-3.071-1.92-3.034-1.843-3.071-1.766-3.11-1.766-3.11-1.728-3.11-1.65-3.149-1.153-2.534-1.113-2.534-1.152-2.534-1.113-2.496-1.114-2.534-1.113-2.534-1.114-2.535-1.113-2.534-.883-2.687-.883-2.688-.884-2.688-.844-2.65-.807-2.687-.806-2.65-.806-2.649-.768-2.649-.768-2.61-.691-2.65-.73-2.611-.652-2.611-.691-2.573-.615-2.572-.614-2.573-.576-2.572-.5-3.494-.46-3.072-.384-2.688-.345-2.38-.308-2.035-.268-1.805-.192-1.613-.192-1.42-.154-1.306-.153-1.19-.116-1.19-.115-1.152-.153-1.19-.116-1.306-.115-1.42-.153-1.575-2.112-53.524-1.843-46.92-1.613-40.892L7.295 193.9l-1.229-30.449-.998-26.07-.883-22.155-.73-18.853-.614-16.088-.499-13.822-.46-12.172-.385-10.981-.384-10.367-.345-10.329-.384-10.789L0 0h597.047l-.921 23.537-.922 23.537-.921 23.575-.96 23.537-.922 23.537-.921 23.536-.922 23.537-.921 23.537-.922 23.537-.921 23.575-.922 23.537-.96 23.537-.92 23.537-.922 23.537-.922 23.537-.921 23.575-.384 2.687-.384 2.688-.384 2.688-.384 2.726-.384 2.688-.346 2.726-.384 2.726-.384 2.726-.921 4.032-.96 3.993-.998 3.993-1.075 3.993-1.152 3.994-1.152 3.954-1.229 3.955-1.305 3.955-1.306 3.916-1.42 3.955-1.42 3.917-1.498 3.916-1.574 3.878-1.613 3.916-1.651 3.878-1.728 3.878-1.305 2.343-1.306 2.38-1.305 2.342-1.306 2.38-1.305 2.382-1.305 2.38-1.306 2.38-1.305 2.381-1.498 2.304-1.536 2.304-1.535 2.265-1.536 2.227-1.574 2.227-1.575 2.189-1.574 2.15-1.612 2.188-1.613 2.112-1.651 2.112-1.651 2.112-1.69 2.073-1.689 2.074-1.69 2.035-1.727 2.035-1.728 2.035-1.766 1.996-1.766 1.997-1.805 1.958-1.804 1.997-1.843 1.92-1.843 1.958-1.843 1.92-1.882 1.92-1.92 1.919-1.92 1.881-1.919 1.92-1.958 1.882-3.955 3.724-4.07 3.724-2.61 1.92-2.573 1.958-2.611 1.959-2.572 1.996-2.573 1.958-2.572 1.959-2.573 1.996-2.572 1.958-4.147 2.611-4.147 2.573-4.185 2.496-4.185 2.457-4.223 2.38-4.186 2.343-4.261 2.265-4.224 2.227-4.262 2.189-4.3 2.112-4.3 2.073-4.339 1.997-4.377 1.958-4.377 1.881-4.416 1.843-4.453 1.766-3.84 1.23-3.84 1.19-3.8 1.113-3.84 1.113-3.801 1.075-3.801 1.037-3.802.998-3.8.96-3.802.922-3.801.883-3.801.845-3.801.806-3.801.768-3.763.73-3.801.69-3.801.692-3.648.384-3.648.345-3.647.307-3.648.27-3.647.268-3.648.23-3.609.192-3.647.154-3.61.153-3.609.116-3.609.115-3.61.077-3.608.076-3.571.039-3.61.038-3.57.039z"/><path style="fill:#fcdb00;fill-rule:evenodd;fill-opacity:1;stroke:none" d="m285.316 600.631-2.842-.23-2.534-.192-2.188-.154-1.997-.153-1.766-.154-1.613-.115-1.497-.115-1.459-.154-1.459-.153-1.46-.116-1.535-.192-1.69-.153-1.804-.192-2.073-.23-2.304-.27-3.225-.575-3.187-.615-3.148-.614-3.11-.614-3.11-.653-3.072-.691-3.033-.691-2.995-.691-2.995-.73-2.956-.768-2.957-.768-2.918-.806-2.918-.845-2.88-.845-2.88-.844-2.879-.922-2.841-.921-2.88-.96-2.841-.96-2.803-1.037-2.841-1.037-2.803-1.036-2.841-1.114-2.803-1.113-2.803-1.152-2.841-1.19-2.803-1.229-2.841-1.229-2.803-1.305-2.841-1.306-2.88-1.344-2.841-1.382-1.69-.921-1.69-.922-1.689-.921-1.689-.96-1.65-.922-1.69-.921-1.69-.922-1.69-.921-2.764-1.766-2.687-1.728-2.65-1.767-2.61-1.766-2.611-1.766-2.534-1.805-2.496-1.766-2.457-1.843-2.458-1.804-2.38-1.843-2.38-1.882-2.343-1.843-2.303-1.92-2.304-1.881-2.266-1.958-2.226-1.92-2.227-1.997-2.189-1.996-2.15-1.997-2.15-2.035-2.15-2.073-2.112-2.112-2.112-2.112-2.112-2.15-2.073-2.189-2.073-2.188-2.074-2.227-2.035-2.266-2.073-2.303-2.035-2.343-2.035-2.38-2.035-2.38-1.228-1.69-1.23-1.69-1.228-1.689-1.228-1.69-1.19-1.689-1.23-1.69-1.228-1.689-1.229-1.65-2.15-3.495-2.111-3.455-2.035-3.456-1.959-3.417-1.88-3.418-1.844-3.455-1.766-3.417-1.728-3.418-1.69-3.417-1.612-3.456-1.612-3.455-1.536-3.494-1.536-3.494-1.498-3.571-1.459-3.571-1.42-3.61-.653-2.38-.614-2.342-.615-2.304-.614-2.265-.614-2.266-.615-2.227-.575-2.188-.576-2.227-.576-2.189-.538-2.188-.537-2.15-.538-2.189-.5-2.15-.498-2.189-.461-2.188-.46-2.189-.308-2.342-.307-2.342-.269-2.342-.307-2.304-.269-2.342-.268-2.304-.27-2.342-.268-2.304-.883-22.5-.922-22.5-.883-22.462-.921-22.5-.922-22.5-.883-22.5-.921-22.462-.883-22.5-.883-22.5-.922-22.5-.883-22.463-.922-22.5-.883-22.5-.883-22.462-.883-22.5-.883-22.5H583.11l-.883 22.308-.883 22.308-.884 22.27-.883 22.308-.883 22.309-.883 22.308-.883 22.308-.883 22.27-.883 22.308-.845 22.308-.883 22.308-.883 22.308-.883 22.27-.845 22.308-.883 22.308-.845 22.309-.268 2.764-.307 2.765-.308 2.726-.345 2.688-.384 2.726-.384 2.649-.422 2.688-.461 2.649-.46 2.611-.5 2.65-.538 2.61-.537 2.573-.614 2.61-.615 2.573-.653 2.573-.652 2.572-.73 2.573-.73 2.572-.767 2.535-.768 2.572-.845 2.534-.844 2.573-.884 2.534-.921 2.534-.96 2.573-.998 2.572-.998 2.534-1.037 2.573-1.114 2.572-1.113 2.573-1.152 2.61-1.152 2.573-1.65 3.072-1.69 3.033-1.651 2.995-1.69 2.957-1.727 2.918-1.728 2.918-1.766 2.841-1.805 2.88-1.843 2.841-1.843 2.842-1.92 2.803-1.92 2.841-1.996 2.803-2.035 2.841-2.073 2.842-2.112 2.84-2.419 2.842-2.419 2.765-2.457 2.726-2.496 2.688-2.496 2.649-2.495 2.61-2.573 2.535-2.534 2.534-2.61 2.457-2.573 2.458-2.65 2.38-2.649 2.38-2.687 2.305-2.688 2.265-2.726 2.265-2.765 2.189-2.802 2.189-2.803 2.15-2.842 2.112-2.84 2.073-2.919 2.035-2.918 1.997-2.956 1.996-2.995 1.92-2.995 1.92-3.072 1.92-3.071 1.843-3.11 1.843-3.187 1.804-3.149 1.766-3.225 1.767-3.263 1.728-3.571 1.612-3.61 1.574-3.57 1.498-3.57 1.497-3.61 1.46-3.57 1.42-3.61 1.382-3.57 1.344-3.61 1.306-3.609 1.267-3.61 1.228-3.608 1.152-3.61 1.152-3.609 1.075-3.647 1.037-3.648.998-3.378.73-3.418.69-3.378.692-3.38.614-3.34.615-3.378.537-3.34.538-3.341.537-3.34.461-3.303.46-3.34.423-3.34.423-3.302.384-3.34.383-3.303.346-3.34.346-1.766.038-1.767.038h-1.766l-1.766.039-1.766.038-1.728.039-1.766.038-1.766.038-1.728.039-1.766.038-1.766.039-1.728.038-1.766.038-1.728.039-1.766.038-1.728.039z"/><path style="fill:#131516;fill-rule:evenodd;fill-opacity:1;stroke:none" d="m348.668 547.26-8.063-2.726-8.025-2.687-8.063-2.726-8.024-2.727-8.063-2.687-8.025-2.726-8.063-2.727-8.025-2.687-8.024-2.726-8.025-2.688-8.063-2.726-8.025-2.688-8.024-2.726-8.025-2.688-8.024-2.688-1.805-7.948-1.766-7.948-1.805-7.91-1.766-7.947-1.766-7.948-1.805-7.948-1.766-7.91-1.766-7.948-1.766-7.91-1.805-7.948-1.766-7.948-1.766-7.91-1.766-7.909-1.767-7.948-1.766-7.91-1.766-7.909-7.833-2.61-7.794-2.612-7.794-2.61-7.833-2.612-7.794-2.61-7.794-2.573-7.794-2.611-7.795-2.611-7.794-2.573-7.794-2.61-7.794-2.573-7.795-2.611-7.794-2.573-7.794-2.61-7.794-2.573-7.795-2.611-1.69-8.102-1.727-8.101-1.69-8.102-1.689-8.101-1.69-8.102-1.688-8.102-1.728-8.101-1.69-8.14-1.69-8.102-1.688-8.063-1.651-8.101-1.69-8.102-1.69-8.102-1.689-8.101-1.689-8.102-1.69-8.063 7.641 2.496 7.603 2.457 7.64 2.496 7.602 2.496 7.641 2.495 7.64 2.458 7.603 2.495 7.64 2.496 7.603 2.496 7.64 2.496 7.641 2.495 7.641 2.496 7.64 2.496 7.641 2.496 7.641 2.495 7.64 2.496-.306-1.612-.845-4.07-1.344-6.259-1.728-7.986-2.073-9.407-2.304-10.483-2.457-11.173-2.534-11.557-2.573-11.557-2.457-11.174-2.304-10.482-2.035-9.407-1.766-8.025-1.305-6.22-.883-4.07-.27-1.613 7.641 2.535 7.641 2.495 7.64 2.535 7.641 2.534 7.641 2.534 7.64 2.534 7.641 2.534 7.68 2.534 7.64 2.534 7.64 2.535 7.642 2.534 7.64 2.534 7.64 2.534 7.642 2.534 7.64 2.534 7.64 2.573v-.384l-.114-.998-.307-1.575-.384-2.111-1.114-5.606-1.536-7.257-1.843-8.6-2.073-9.6-2.265-10.329-2.342-10.712-2.38-10.79-2.343-10.558-2.227-10.022-2.035-9.176-1.766-8.025-1.46-6.528-1.036-4.722-.576-2.65v-.921l.039-.422.038-.423 8.025 2.688 8.063 2.726 8.024 2.726 8.025 2.726 8.025 2.726 8.024 2.727 8.063 2.726 8.025 2.726L311.616 67l8.063 2.726 8.025 2.727 8.063 2.726 8.025 2.764 8.063 2.726 8.024 2.726 8.063 2.765 1.613 7.487 1.651 7.487 1.651 7.526 1.651 7.487 1.651 7.526 1.651 7.487 1.613 7.526 1.65 7.487 1.652 7.526 1.65 7.525 1.652 7.488 1.65 7.525 1.652 7.526 1.689 7.526 1.651 7.525 1.651 7.488 7.717 2.572 7.756 2.573 7.718 2.572 7.717 2.573 7.756 2.572 7.718 2.573 7.717 2.572 7.717 2.573 7.756 2.572 7.718 2.573 7.717 2.573 7.756 2.572 7.717 2.611 7.718 2.573 7.717 2.572 7.756 2.611 1.766 8.217 1.805 8.217 1.805 8.216 1.804 8.179 1.805 8.217 1.766 8.216 1.805 8.217 1.804 8.217 1.843 8.217 1.805 8.216 1.804 8.217 1.805 8.217 1.804 8.178 1.805 8.217 1.805 8.217 1.804 8.217-7.679-2.496-7.679-2.496-7.679-2.534-7.68-2.496-7.717-2.495-7.679-2.496-7.679-2.496-7.679-2.534-7.679-2.496-7.679-2.496-7.717-2.495-7.68-2.496-7.678-2.496-7.68-2.496-7.679-2.457-7.717-2.496 1.69 7.756 1.689 7.756 1.69 7.756 1.689 7.756 1.727 7.756 1.69 7.756 1.69 7.756 1.688 7.757 1.728 7.794 1.69 7.756 1.69 7.756 1.727 7.756 1.69 7.794 1.689 7.756 1.727 7.795 1.69 7.756-7.564-2.496-7.526-2.534-7.563-2.496-7.564-2.495-7.526-2.496-7.564-2.534-7.564-2.496-7.525-2.496-7.564-2.496-7.525-2.534-7.526-2.496-7.564-2.495-7.525-2.534-7.564-2.496-7.526-2.496-7.525-2.496-.038.27.038.421.115.768.23 1.267.423 1.997.614 2.918.845 3.955 1.113 5.26 1.46 6.72 1.842 8.332 2.227 10.175 2.65 12.21 3.186 14.398 3.686 16.74 4.262 19.352 4.838 22.117h-1.113z"/><path style="fill:#131516;fill-rule:evenodd;fill-opacity:1;stroke:none" d="m340.183 537.124-7.065-2.38-7.065-2.381-7.103-2.42-7.065-2.38-7.065-2.38-7.064-2.38-7.103-2.381-7.065-2.42-7.065-2.38-7.103-2.38-7.065-2.381-7.065-2.38-7.064-2.381-7.103-2.38-7.065-2.381-1.69-7.45-1.689-7.448-1.65-7.449-1.69-7.449-1.69-7.449-1.65-7.41-1.69-7.449-1.651-7.449-1.69-7.449-1.65-7.41-1.651-7.449-1.69-7.449-1.65-7.41-1.69-7.45-1.651-7.448-1.651-7.41 7.141 2.342 7.18 2.38 7.142 2.342 7.18 2.381 7.141 2.38 7.18 2.381 7.142 2.342 7.18 2.38 7.18 2.381 7.141 2.381 7.18 2.38 7.18 2.381 7.18 2.38 7.141 2.381 7.18 2.38 7.18 2.381 1.651 7.45 1.651 7.448 1.651 7.449 1.651 7.449 1.613 7.449 1.65 7.449 1.652 7.487 1.65 7.449 1.652 7.448 1.65 7.45 1.652 7.448 1.65 7.45 1.652 7.448 1.65 7.487 1.652 7.449 1.69 7.449h-1.153zM422.041 446.317l-16.51-5.49-14.36-4.8-12.324-4.109-10.482-3.494-8.793-2.918-7.295-2.457-5.913-1.958-4.722-1.613-3.686-1.229-2.842-.998-2.111-.73-1.613-.575-1.267-.5-1.037-.383-1.036-.423-4.339-19.812-3.84-17.317-3.302-15.051-2.88-12.901-2.38-10.943-2.035-9.177-1.65-7.526-1.306-6.066-1.037-4.8-.806-3.686-.538-2.726-.422-1.958-.23-1.344-.154-.883-.077-.614-.038-.538 7.065 2.342 7.026 2.304 7.065 2.304 7.064 2.342 7.065 2.304 7.065 2.303 7.026 2.343 7.065 2.303 7.065 2.343 7.064 2.303 7.065 2.343 7.065 2.303 7.065 2.342 7.064 2.343 7.065 2.342 7.103 2.304 1.575 7.256 1.612 7.257 1.613 7.257 1.574 7.257L424 372.75l1.612 7.257 1.574 7.257 1.613 7.257 1.613 7.256 1.574 7.257 1.612 7.257 1.613 7.257 1.613 7.257 1.574 7.295 1.612 7.257 1.613 7.257h-.691z"/><path style="fill:#fcdb00;fill-rule:evenodd;fill-opacity:1;stroke:none" d="m312.077 409.84-7.141-2.38-7.103-2.342-7.104-2.38-7.141-2.343-7.103-2.38-7.103-2.343-7.104-2.342-7.141-2.38-7.103-2.342-7.103-2.381-7.103-2.342-7.104-2.38-7.103-2.343-7.103-2.342-7.103-2.38-1.613-7.22-1.574-7.218-1.612-7.218-1.613-7.219-1.574-7.218-1.613-7.218-1.574-7.18-1.613-7.22-1.612-7.218-1.574-7.18-1.613-7.218-1.574-7.219-1.575-7.18-1.612-7.218-1.574-7.18-1.575-7.219 7.18 2.342 7.18 2.343 7.18 2.342 7.18 2.342 7.18 2.342 7.18 2.342 7.18 2.38 7.218 2.343 7.18 2.342 7.18 2.38 7.18 2.343 7.218 2.342 7.18 2.38 7.18 2.343 7.219 2.38 7.18 2.343 1.612 7.218 1.574 7.18 1.574 7.219 1.575 7.218 1.574 7.219 1.574 7.18 1.613 7.218 1.574 7.219 1.574 7.218 1.574 7.219 1.613 7.218 1.574 7.257 1.613 7.218 1.574 7.219 1.613 7.218 1.574 7.219H319.18z"/><path style="fill:#005198;fill-rule:evenodd;fill-opacity:1;stroke:none" d="m190.287 369.294-7.295-2.419-7.295-2.457-7.295-2.419-7.295-2.419-7.257-2.457-7.295-2.42-7.295-2.418-7.295-2.42-7.257-2.457-7.295-2.418-7.295-2.42-7.295-2.418-7.257-2.42-7.295-2.418-7.295-2.42-1.498-7.141-1.497-7.103-1.498-7.104-1.497-7.141-1.497-7.104-1.46-7.103-1.497-7.141-1.497-7.104-1.498-7.141-1.497-7.104-1.46-7.103-1.496-7.142-1.498-7.103-1.459-7.103-1.497-7.142-1.46-7.103 7.142 2.303 7.142 2.343 7.141 2.303 7.142 2.343 7.141 2.303 7.142 2.343 7.141 2.342 7.142 2.303 7.141 2.343 7.142 2.342 7.141 2.342 7.142 2.342 7.18 2.304 7.141 2.342 7.142 2.342 7.18 2.342.345.346.423.422 4.492 20.158 3.916 17.586 3.418 15.281 2.918 13.094 2.457 11.096 2.073 9.253 1.651 7.565 1.344 6.066 1.037 4.723.806 3.57.538 2.573.345 1.728.23 1.075.077.576v.269l-.038.077z"/><path style="fill:#131516;fill-rule:evenodd;fill-opacity:1;stroke:none" d="m529.894 366.453-7.18-2.342-7.18-2.342-7.18-2.38-7.18-2.343-7.18-2.38-7.18-2.343-7.18-2.38-7.18-2.343-7.18-2.342-7.141-2.38-7.18-2.342-7.18-2.381-7.141-2.342-7.18-2.38-7.18-2.343-.307-.806-.27-.807-.268-.767-.269-.768-1.536-7.065-1.574-7.065-1.574-7.065-1.536-7.065-1.574-7.065-1.536-7.065-1.574-7.065-1.536-7.065-1.574-7.064-1.536-7.065-1.536-7.065-1.574-7.027-1.536-7.065-1.535-7.064-1.536-7.065-1.536-7.027 7.18 2.342 7.218 2.38 7.218 2.343 7.219 2.38 7.18 2.343 7.218 2.38 7.218 2.38 7.219 2.381 7.218 2.381 7.218 2.38 7.219 2.343 7.218 2.38 7.218 2.38 7.257 2.381 7.218 2.381 7.219 2.38 1.574 7.18 1.574 7.142 1.574 7.18 1.613 7.142 1.574 7.18 1.613 7.142 1.574 7.18 1.612 7.142 1.575 7.18 1.612 7.18 1.574 7.141 1.613 7.18 1.613 7.18 1.574 7.18 1.613 7.18 1.612 7.18-.077.27-.076.307-.077.307v.346z"/><path style="fill:#fcdb00;fill-rule:evenodd;fill-opacity:1;stroke:none" d="m406.491 326.099-7.026-2.343-7.026-2.303-7.027-2.304-7.065-2.342-7.026-2.304-7.026-2.304-7.027-2.304-7.026-2.342-7.026-2.304-7.027-2.303-7.026-2.304-7.026-2.304-6.988-2.304-7.027-2.303-7.026-2.304-1.612-7.295-1.613-7.296-1.613-7.295-1.65-7.295-1.613-7.295-1.613-7.296-1.613-7.295-1.65-7.295-1.613-7.296-1.613-7.295-1.612-7.295-1.651-7.295-1.613-7.257-1.613-7.296-1.612-7.295-1.613-7.295 7.065 2.342 7.065 2.304 7.064 2.304 7.104 2.342 7.064 2.304 7.065 2.342 7.103 2.304 7.065 2.303 7.103 2.342 7.065 2.304 7.103 2.342 7.065 2.343 7.103 2.303 7.065 2.342 7.103 2.343 7.103 2.342 1.612 7.218 1.575 7.257 1.612 7.257 1.613 7.219 1.574 7.256 1.613 7.257 1.612 7.219 1.575 7.257 1.612 7.257 1.613 7.256 1.612 7.257 1.575 7.257 1.612 7.257 1.613 7.257 1.574 7.257 1.613 7.257-.154.076-.154.116-.153.115-.115.153z"/><path style="fill:#005198;fill-rule:evenodd;fill-opacity:1;stroke:none" d="m285.124 286.32-7.103-2.342-7.142-2.342-7.103-2.342-7.103-2.342-7.103-2.343-7.104-2.342-7.103-2.304-7.103-2.342-7.103-2.342-7.103-2.304-7.103-2.342-7.103-2.304-7.065-2.342-7.103-2.304-7.103-2.342-.346-.499-.345-.384-4.454-20.081-3.955-17.585-3.379-15.244-2.956-13.093-2.458-11.096-2.073-9.292-1.69-7.641-1.343-6.143-1.075-4.838-.807-3.725-.575-2.726-.423-1.958-.23-1.306-.154-.883-.077-.614-.038-.46 7.18 2.38 7.218 2.38 7.18 2.38 7.219 2.381 7.18 2.381 7.218 2.38 7.218 2.381 7.218 2.38 7.18 2.381 7.219 2.342 7.218 2.381 7.218 2.38 7.219 2.381 7.218 2.38 7.218 2.381 7.219 2.38 1.574 7.296 1.574 7.295 1.574 7.296 1.613 7.295 1.574 7.295 1.613 7.295 1.574 7.296 1.612 7.295 1.575 7.295 1.612 7.334 1.574 7.295 1.613 7.295 1.613 7.296 1.574 7.333 1.612 7.296 1.613 7.295h-.806zM378.885 201.733l-7.026-2.342-6.988-2.342-7.027-2.342-6.988-2.304-7.026-2.342-7.026-2.342-6.988-2.342-7.027-2.342-7.026-2.304-6.988-2.342-7.026-2.304-7.027-2.342-6.987-2.343-7.027-2.303-6.988-2.304-.153-.384-.154-.5-.23-.767-.307-1.229-.423-1.804-.614-2.611-.768-3.494-1.037-4.608-1.305-5.875-1.613-7.256-1.958-8.832-2.304-10.597-2.764-12.479-3.187-14.59-3.686-16.78-4.223-19.159-.077-.768-.077-.73-.038-.729-.039-.691 7.065 2.38 7.065 2.42 7.065 2.38 7.064 2.419 7.065 2.38 7.065 2.42 7.064 2.418 7.065 2.381 7.065 2.419 7.065 2.419 7.064 2.38 7.104 2.42 7.064 2.418 7.065 2.42 7.065 2.418 7.103 2.42 1.536 7.026 1.536 7.026 1.535 7.065 1.536 7.027 1.536 7.026 1.536 7.027 1.536 7.065 1.535 7.026 1.575 7.027 1.535 7.064 1.536 7.027 1.536 7.026 1.574 7.065 1.536 7.027 1.574 7.065 1.536 7.065h-.653z"/></svg>