<svg xmlns="http://www.w3.org/2000/svg" width="701.33" height="741.77" viewBox="0 0 701.334 741.769"><path d="m5.681 5.5 13.398 416.62c7.415 175.25 153.92 314.05 331.59 314.14 177.51-.215 324.07-139.06 331.59-314.14L695.657 5.5h-344.98z" fill="gold" fill-rule="evenodd"/><g stroke="#000" stroke-width="11"><g fill="#090" stroke-linejoin="round"><path d="M350.67 5.5v730.77c177.51-.215 324.07-139.06 331.59-314.14L695.658 5.51h-344.98z"/><path d="M350.67 34.549a17.508 17.508 0 0 0-5.131 1.924c-4.275 2.426-7.343 6.552-9.623 10.906-1.3 2.483-2.437 5.146-4.49 7.05-1.918 1.783-4.478 2.739-7.05 3.207-4.43.805-8.977.288-13.471 0-2.563-.164-5.141-.252-7.697 0-3.02.298-6.12 1.143-8.34 3.209-1.141 1.062-2 2.405-2.611 3.84-.611 1.434-.983 2.96-1.238 4.498-.826 4.978-.397 10.274 1.926 14.754 1.481 2.856 3.662 5.278 5.809 7.674 2.147 2.396 4.307 4.839 5.736 7.721 1.662 3.351 2.249 7.292 1.283 10.906-.61 2.284-1.882 4.458-3.848 5.771-1.197.8-2.608 1.252-4.04 1.428-1.429.175-2.881.082-4.303-.145-3.868-.615-7.641-2.211-11.547-1.924-2.087.154-4.125.855-5.891 1.979-1.766 1.123-3.259 2.663-4.371 4.436-1.701 2.711-2.495 5.93-2.598 9.129-.102 3.199.462 6.39 1.314 9.475 2.349 8.498 7.07 16.5 14.11 21.809 3.974 2.997 8.564 5.07 12.689 7.855 2.063 1.393 4.02 2.972 5.633 4.863 1.618 1.891 2.894 4.109 3.488 6.525.297 1.209.422 2.473.24 3.705-.181 1.232-.682 2.434-1.523 3.352-.937 1.021-2.245 1.641-3.586 1.99-1.341.349-2.731.447-4.111.574-6.833.629-13.894 2.12-19.244 6.416a21.877 21.877 0 0 0-7.06 10.264 22.122 22.122 0 0 0 0 13.469c1.467 4.553 4.416 8.552 8.06 11.65 3.644 3.099 7.966 5.333 12.467 6.953 7.389 2.659 15.337 3.731 22.451 7.06.914.427 1.817.894 2.613 1.514.797.62 1.488 1.403 1.877 2.334.439 1.053.47 2.25.205 3.359s-.812 2.136-1.488 3.055c-1.312 1.782-3.088 3.166-4.904 4.43-1.817 1.264-3.706 2.439-5.359 3.91-2.137 1.902-3.848 4.294-4.879 6.963-1.031 2.669-1.371 5.611-.895 8.432.51 3.02 1.935 5.834 3.785 8.273 1.85 2.44 4.119 4.53 6.479 6.48 4.171 3.448 8.819 6.569 14.11 7.697 2.74.584 5.606.611 8.34 0 4.481-1 8.545-3.762 11.127-7.559l.568 3.869-5.496 76.93-35.24-13.883c4.285-1.651 7.898-4.981 9.893-9.117 1.217-2.523 1.842-5.32 1.896-8.121.105-5.411-1.879-10.646-4.287-15.492-1.363-2.742-2.881-5.427-4.836-7.783-1.955-2.356-4.373-4.383-7.197-5.566-2.638-1.106-5.581-1.444-8.414-1.047-2.833.397-5.551 1.52-7.889 3.168-1.809 1.275-3.384 2.846-5.03 4.328-1.644 1.482-3.396 2.898-5.43 3.77-1.048.449-2.172.748-3.313.754-1.141.006-2.3-.296-3.225-.963-.818-.591-1.423-1.443-1.846-2.359-.422-.917-.671-1.901-.879-2.889-1.621-7.684-.858-15.668-1.768-23.469-.554-4.751-1.747-9.467-3.936-13.721-2.188-4.254-5.411-8.03-9.512-10.498a22.118 22.118 0 0 0-13.12-3.064 21.855 21.855 0 0 0-11.6 4.537c-5.4 4.233-8.459 10.771-10.625 17.281-.438 1.315-.849 2.646-1.494 3.873-.645 1.227-1.546 2.359-2.754 3.039-1.085.611-2.368.824-3.609.721-1.241-.104-2.443-.512-3.553-1.076-2.218-1.128-4.089-2.876-5.563-4.881-1.474-2.01-2.566-4.265-3.453-6.59-1.774-4.65-2.749-9.593-4.764-14.14-3.569-8.06-10.289-14.481-18.03-18.701-2.81-1.532-5.787-2.808-8.926-3.436-3.138-.628-6.453-.586-9.48.453-1.979.68-3.819 1.784-5.314 3.248-1.496 1.464-2.641 3.289-3.266 5.287-1.168 3.738-.473 7.775-.754 11.682-.103 1.436-.342 2.871-.838 4.223-.496 1.352-1.257 2.623-2.309 3.607-1.726 1.616-4.131 2.359-6.494 2.434-3.739.118-7.443-1.35-10.328-3.73-2.481-2.047-4.37-4.707-6.215-7.342-1.845-2.635-3.708-5.309-6.152-7.4-3.834-3.281-8.892-4.904-13.928-5.232-1.556-.101-3.126-.085-4.662.184s-3.04.8-4.334 1.67c-2.517 1.692-4.045 4.52-5.02 7.391-.827 2.432-1.327 4.962-1.75 7.496-.742 4.441-1.273 8.986-3.064 13.12-1.042 2.403-2.554 4.678-4.727 6.141-2.326 1.565-5.176 2.066-7.891 2.768-4.759 1.23-9.476 3.279-12.811 6.891a17.506 17.506 0 0 0-3.039 4.561 17.503 17.503 0 0 0 .705 5.436c1.39 4.715 4.712 8.639 8.434 11.85 2.123 1.831 4.456 3.543 5.848 5.977 1.3 2.274 1.648 4.986 1.518 7.602-.223 4.497-1.76 8.807-3.063 13.12-.743 2.459-1.414 4.949-1.75 7.496-.396 3.01-.278 6.216 1.229 8.848.775 1.353 1.887 2.495 3.145 3.416 1.258.921 2.66 1.632 4.1 2.23 4.66 1.936 9.914 2.724 14.805 1.48 3.118-.792 5.971-2.365 8.793-3.91 2.822-1.545 5.693-3.096 8.824-3.832 3.641-.856 7.612-.532 10.912 1.23 2.085 1.114 3.913 2.848 4.744 5.061.507 1.348.627 2.824.473 4.256-.154 1.432-.576 2.823-1.119 4.156-1.479 3.627-3.892 6.938-4.5 10.807-.325 2.068-.106 4.212.586 6.188.692 1.975 1.853 3.779 3.326 5.266 2.253 2.273 5.207 3.776 8.299 4.604 3.092.827 6.327 1.01 9.525.877 8.809-.355 17.677-3.136 24.447-8.783 3.822-3.188 6.885-7.185 10.535-10.568 1.825-1.692 3.808-3.236 6.02-4.381 2.21-1.145 4.658-1.881 7.146-1.91 1.245-.014 2.504.149 3.662.605 1.159.457 2.216 1.219 2.918 2.248.781 1.145 1.088 2.558 1.123 3.943.035 1.386-.187 2.762-.377 4.135-.942 6.797-1.096 14.01 1.871 20.2 1.821 3.797 4.782 7.03 8.391 9.205a22.133 22.133 0 0 0 13.12 3.063c4.767-.393 9.332-2.355 13.178-5.199s7-6.542 9.605-10.557c4.27-6.591 7.12-14.09 11.977-20.258.624-.793 1.286-1.568 2.07-2.203.785-.635 1.704-1.128 2.699-1.295 1.125-.189 2.298.052 3.318.563 1.02.51 1.894 1.277 2.635 2.145 1.438 1.682 2.382 3.727 3.199 5.783.817 2.056 1.531 4.163 2.588 6.107 1.366 2.513 3.308 4.723 5.672 6.334 2.364 1.611 5.153 2.612 8.01 2.789 3.056.19 6.119-.556 8.916-1.803 2.797-1.247 5.349-2.981 7.785-4.836 4.306-3.278 8.403-7.093 10.705-11.99 1.192-2.535 1.87-5.322 1.896-8.123.043-4.592-1.72-9.175-4.83-12.553l37.754 3.162-3.559 49.814a107.622 87.541 0 0 0-93.58 86.7 107.622 87.541 0 0 0 7.95 32.872 107.622 87.541 0 0 0-47.542-9.058 107.622 87.541 0 0 0-107.361 81.521c61.04 72.02 152.67 117.71 254.57 117.77 101.8-.123 193.41-45.854 254.46-117.85A107.622 87.541 0 0 0 497.865 537a107.622 87.541 0 0 0-47.578 9.136 107.622 87.541 0 0 0 7.986-32.95 107.622 87.541 0 0 0-93.58-86.688l-9.06-126.85.568-3.87c2.582 3.798 6.646 6.558 11.127 7.56 2.734.61 5.6.584 8.34 0 5.293-1.128 9.94-4.25 14.11-7.697 2.36-1.951 4.63-4.04 6.48-6.48 1.85-2.44 3.273-5.254 3.783-8.273.477-2.821.136-5.763-.895-8.432-1.031-2.67-2.742-5.061-4.88-6.963-1.652-1.471-3.542-2.647-5.358-3.91-1.817-1.264-3.593-2.647-4.904-4.43-.676-.92-1.223-1.945-1.488-3.055-.265-1.11-.233-2.307.207-3.36.389-.93 1.078-1.713 1.875-2.333.797-.62 1.7-1.086 2.615-1.514 7.114-3.326 15.06-4.397 22.45-7.06 4.502-1.62 8.82-3.855 12.466-6.953 3.644-3.1 6.594-7.095 8.06-11.648a22.128 22.128 0 0 0 0-13.471 21.86 21.86 0 0 0-7.05-10.264c-5.35-4.296-12.411-5.787-19.244-6.416-1.38-.127-2.772-.225-4.113-.574-1.341-.35-2.647-.97-3.584-1.99-.842-.918-1.344-2.12-1.525-3.352-.181-1.232-.055-2.496.242-3.705.594-2.417 1.869-4.634 3.486-6.525 1.618-1.891 3.572-3.471 5.635-4.863 4.125-2.785 8.714-4.858 12.688-7.855 7.04-5.31 11.764-13.311 14.11-21.81.853-3.084 1.415-6.275 1.313-9.474-.102-3.2-.895-6.418-2.596-9.13-1.112-1.772-2.605-3.311-4.371-4.435-1.766-1.123-3.805-1.825-5.893-1.98-3.906-.286-7.68 1.31-11.547 1.925-1.422.226-2.874.32-4.303.145-1.43-.175-2.838-.628-4.04-1.428-1.966-1.313-3.24-3.488-3.85-5.771-.966-3.614-.38-7.555 1.283-10.906 1.429-2.882 3.592-5.324 5.738-7.721 2.147-2.396 4.328-4.818 5.809-7.674 2.323-4.48 2.75-9.776 1.924-14.754-.255-1.538-.627-3.064-1.238-4.498-.611-1.434-1.47-2.778-2.611-3.84-2.22-2.066-5.32-2.911-8.338-3.21-2.556-.251-5.134-.163-7.697 0-4.494.289-9.04.806-13.471 0-2.577-.467-5.138-1.423-7.06-3.206-2.053-1.91-3.19-4.571-4.49-7.05-2.28-4.355-5.346-8.48-9.621-10.906a17.527 17.527 0 0 0-5.133-1.924z"/></g><path d="m5.681 5.5 13.398 416.62c7.415 175.25 153.92 314.05 331.59 314.14 177.51-.215 324.07-139.06 331.59-314.14L695.657 5.5h-344.98z" fill="none"/><path d="M350.67 34.549v701.72c1.472-.002 2.941-.016 4.408-.037.58-.008 1.157-.022 1.736-.033.936-.018 1.872-.037 2.807-.063.332-.009.663-.021.994-.031a4.18 4.18 0 0 1 .354 0l.359-.012c.037 0 .074-.003.111-.004l.033-.002c.896-.03 1.791-.061 2.686-.098l.35-.016.49-.021.906-.039.105-.006c.839-.039 1.678-.082 2.516-.127l.859-.047c.008 0 .017 0 .025-.002.342-.019.684-.036 1.025-.057l.107-.008c.878-.053 1.755-.11 2.631-.17.018 0 .036 0 .055-.002l.018-.002c.505-.034 1.01-.067 1.514-.104.005 0 0-.002.016-.002.46-.033.918-.072 1.377-.107.785-.06 1.565-.135 2.348-.203.957-.08 1.914-.16 2.869-.248.679-.063 1.363-.111 2.041-.178l.154-.014.047-.006c1.614-.16 3.218-.349 4.824-.535l.195-.021c.727-.083 1.458-.154 2.184-.242l.029-.004c.438-.053.875-.104 1.313-.158.769-.096 1.533-.211 2.301-.313l.922-.125c1.185-.16 2.373-.31 3.555-.482l.059-.008h.066c.485-.071.97-.146 1.455-.219.004 0 .008 0 .012-.002h.004a331.9 331.9 0 0 0 6.729-1.082c.378-.065.755-.133 1.133-.199l.111-.02a331.43 331.43 0 0 0 6.492-1.205c.254-.05.51-.096.764-.146.005 0 .009 0 .014-.002 0-.002.019-.004.029-.006 2.263-.45 4.515-.931 6.762-1.426.471-.104.942-.205 1.412-.311 2.158-.485 4.309-.993 6.451-1.52.562-.138 1.123-.279 1.684-.42.004 0 .008 0 .012-.002.002 0 .004 0 .006-.002a341.532 341.532 0 0 0 6.33-1.654c.482-.131.962-.269 1.443-.402 1.54-.427 3.074-.872 4.605-1.32.209-.061.419-.12.629-.18l.305-.088.059-.018c.573-.17 1.147-.337 1.719-.51l.205-.064c.178-.054.355-.112.533-.166 1.627-.496 3.249-1 4.865-1.521l.084-.027c.651-.209 1.303-.418 1.953-.631l.061-.02.033-.012a332.219 332.219 0 0 0 5.752-1.951l.08-.027.066-.023c.615-.216 1.228-.436 1.842-.654 1-.357 1.997-.73 2.996-1.096.699-.257 1.399-.508 2.098-.766.18-.068.363-.131.543-.199.002 0 .004 0 .006-.002.005-.002 0-.004.016-.006.003 0 .005-.003.008-.004.684-.258 1.365-.525 2.047-.787a331.234 331.234 0 0 0 4.592-1.805c.721-.29 1.443-.578 2.162-.873 1.684-.69 3.361-1.397 5.03-2.113.763-.327 1.525-.654 2.285-.986l.014-.006.018-.008c1.72-.753 3.432-1.521 5.137-2.303l.039-.018c.012-.005.024 0 .035-.016.777-.357 1.55-.72 2.324-1.082.003 0 .005-.003.008-.004h.002a326.304 326.304 0 0 0 4.584-2.188c.893-.435 1.782-.876 2.67-1.318l.025-.012.027-.014a326.875 326.875 0 0 0 3.691-1.867l.068-.035a325.262 325.262 0 0 0 2.9-1.506l.037-.02.07-.037c1.343-.708 2.68-1.425 4.01-2.15.862-.469 1.723-.94 2.58-1.416.006-.003.012-.007.018 0l.016-.008a312.6 312.6 0 0 0 4.529-2.564l.023-.014h.002c.851-.491 1.698-.99 2.545-1.488l.021-.012.02-.012a334.552 334.552 0 0 0 7.115-4.312c.275-.171.548-.346.822-.518l.602-.379c.418-.263.839-.524 1.256-.789.016 0 .031-.019.047-.029l.059-.039c1.22-.777 2.435-1.56 3.645-2.352l.063-.041.08-.053a335.62 335.62 0 0 0 2.922-1.936c.003-.002.007-.004 0-.006l.049-.033c.922-.619 1.842-1.24 2.758-1.867.014 0 .029-.019.043-.029l.051-.035a321.978 321.978 0 0 0 3.801-2.645l.035-.025c1.01-.713 2.01-1.436 3.01-2.16.61-.441 1.216-.887 1.822-1.332a331.532 331.532 0 0 0 11.675-8.97l.006-.006.012-.008c.451-.363.904-.725 1.354-1.09a325.114 325.114 0 0 0 3.148-2.588c.002 0 .004-.003.006-.004.003-.003.007-.005 0-.008a.552.552 0 0 0 .025-.021c.189-.158.376-.318.564-.477l.021-.018.061-.053c1.899-1.591 3.78-3.2 5.643-4.832l.006-.004.006-.006c.442-.387.88-.778 1.32-1.168a331.096 331.096 0 0 0 5.127-4.635l.947-.877a335.62 335.62 0 0 0 5.633-5.365l.016-.014.014-.014c.118-.115.238-.229.355-.344l.066-.066a327.567 327.567 0 0 0 8.93-9.079c.296-.313.59-.627.885-.941a330.603 330.603 0 0 0 4.875-5.305l.887-.988a332.337 332.337 0 0 0 5.057-5.805l.141-.162.033-.039.23-.268a107.622 87.541 0 0 0 0-.002 107.622 87.541 0 0 0-107.246-81.435 107.622 87.541 0 0 0-47.578 9.136 107.622 87.541 0 0 0 7.986-32.951 107.622 87.541 0 0 0-93.58-86.687l-3.559-49.826 37.752-3.162c-3.11 3.378-4.874 7.96-4.83 12.553.026 2.8.705 5.588 1.896 8.123 2.302 4.897 6.399 8.712 10.705 11.99 2.436 1.855 4.989 3.589 7.785 4.836 2.797 1.247 5.862 1.993 8.918 1.803 2.855-.177 5.642-1.178 8.01-2.79 2.364-1.61 4.306-3.82 5.672-6.333 1.057-1.944 1.771-4.051 2.588-6.107.817-2.056 1.762-4.101 3.199-5.783.741-.867 1.615-1.634 2.635-2.145 1.02-.51 2.193-.751 3.318-.563.995.167 1.915.66 2.699 1.295.785.635 1.446 1.41 2.07 2.203 4.857 6.172 7.706 13.667 11.977 20.258 2.601 4.01 5.759 7.712 9.605 10.557 3.846 2.844 8.41 4.806 13.178 5.199 4.548.375 9.206-.71 13.12-3.063a21.857 21.857 0 0 0 8.391-9.205c2.967-6.187 2.813-13.403 1.871-20.2-.19-1.373-.412-2.75-.377-4.135.035-1.386.342-2.8 1.123-3.943.702-1.03 1.759-1.791 2.918-2.248 1.159-.457 2.417-.62 3.662-.605 2.488.029 4.939.765 7.148 1.91 2.21 1.145 4.191 2.689 6.02 4.38 3.65 3.385 6.713 7.382 10.535 10.569 6.77 5.647 15.638 8.428 24.447 8.783 3.198.129 6.434-.05 9.525-.877 3.092-.827 6.05-2.331 8.299-4.604 1.474-1.486 2.634-3.29 3.326-5.266.692-1.975.911-4.12.586-6.188-.608-3.87-3.02-7.18-4.5-10.807-.544-1.333-.965-2.725-1.119-4.156-.154-1.432-.034-2.908.473-4.256.832-2.213 2.659-3.947 4.744-5.061 3.3-1.762 7.271-2.087 10.912-1.23 3.132.736 6 2.287 8.824 3.832 2.822 1.545 5.675 3.118 8.793 3.91 4.891 1.243 10.147.456 14.807-1.48 1.44-.598 2.84-1.31 4.098-2.23 1.258-.921 2.37-2.063 3.145-3.416 1.507-2.632 1.625-5.841 1.229-8.848-.336-2.547-1.01-5.04-1.75-7.496-1.302-4.311-2.839-8.62-3.063-13.12-.13-2.616.217-5.328 1.518-7.602 1.392-2.433 3.725-4.146 5.848-5.977 3.722-3.211 7.04-7.135 8.434-11.85.519-1.76.757-3.602.705-5.436a17.531 17.531 0 0 0-3.039-4.561c-3.335-3.611-8.05-5.661-12.811-6.891-2.714-.701-5.565-1.202-7.891-2.768-2.173-1.462-3.684-3.738-4.727-6.141-1.792-4.131-2.323-8.676-3.064-13.12-.423-2.534-.923-5.064-1.75-7.496-.976-2.871-2.505-5.7-5.02-7.391-1.294-.87-2.798-1.401-4.334-1.67-1.536-.27-3.106-.285-4.662-.184-5.04.328-10.09 1.952-13.928 5.232-2.444 2.092-4.307 4.765-6.152 7.4-1.845 2.635-3.733 5.294-6.215 7.342-2.885 2.38-6.589 3.849-10.328 3.73-2.363-.075-4.768-.818-6.494-2.434-1.051-.984-1.813-2.256-2.309-3.607-.496-1.352-.735-2.786-.838-4.223-.281-3.906.414-7.943-.754-11.682-.624-1.998-1.77-3.823-3.266-5.287s-3.333-2.568-5.313-3.248c-3.03-1.04-6.342-1.081-9.48-.453-3.138.628-6.118 1.904-8.928 3.436-7.741 4.22-14.46 10.64-18.03 18.7-2.01 4.552-2.99 9.495-4.764 14.14-.887 2.326-1.979 4.586-3.453 6.59-1.474 2.01-3.344 3.754-5.563 4.882-1.11.565-2.312.973-3.553 1.076-1.241.104-2.524-.11-3.609-.721-1.208-.68-2.109-1.812-2.754-3.04-.645-1.226-1.057-2.557-1.494-3.872-2.166-6.511-5.225-13.05-10.625-17.281a21.849 21.849 0 0 0-11.6-4.537 22.142 22.142 0 0 0-13.12 3.064c-4.1 2.464-7.323 6.244-9.512 10.498s-3.382 8.969-3.936 13.72c-.909 7.8-.145 15.786-1.766 23.47-.208.988-.459 1.972-.881 2.889-.422.917-1.027 1.769-1.846 2.359-.925.667-2.084.969-3.225.963-1.141-.006-2.264-.305-3.313-.754-2.034-.872-3.786-2.288-5.43-3.77-1.644-1.482-3.219-3.053-5.03-4.328-2.338-1.648-5.056-2.771-7.889-3.168-2.833-.397-5.776-.06-8.414 1.047-2.824 1.183-5.242 3.21-7.197 5.566s-3.473 5.04-4.836 7.783c-2.409 4.846-4.392 10.08-4.287 15.492.054 2.8.68 5.598 1.896 8.12 1.995 4.137 5.608 7.467 9.893 9.118l-35.24 13.88-5.494-76.927.568-3.87c2.582 3.798 6.646 6.558 11.127 7.56 2.734.61 5.6.584 8.34 0 5.293-1.128 9.94-4.25 14.11-7.697 2.36-1.951 4.631-4.04 6.48-6.48 1.85-2.44 3.273-5.254 3.783-8.273.477-2.821.136-5.763-.895-8.432-1.031-2.67-2.742-5.061-4.879-6.963-1.653-1.471-3.543-2.647-5.359-3.91-1.817-1.264-3.593-2.647-4.904-4.43-.676-.92-1.223-1.945-1.488-3.055-.265-1.11-.233-2.307.207-3.36.389-.93 1.078-1.713 1.875-2.333.797-.62 1.701-1.086 2.615-1.514 7.114-3.326 15.06-4.397 22.451-7.06 4.501-1.62 8.82-3.855 12.465-6.953 3.644-3.1 6.594-7.095 8.06-11.648a22.128 22.128 0 0 0 0-13.471 21.86 21.86 0 0 0-7.05-10.264c-5.35-4.296-12.411-5.787-19.244-6.416-1.38-.127-2.772-.225-4.113-.574-1.341-.35-2.647-.97-3.584-1.99-.842-.918-1.344-2.12-1.525-3.352-.181-1.232-.055-2.496.242-3.705.594-2.417 1.869-4.634 3.486-6.525 1.618-1.891 3.572-3.471 5.635-4.863 4.125-2.785 8.714-4.858 12.688-7.855 7.04-5.31 11.764-13.311 14.11-21.81.853-3.084 1.415-6.275 1.313-9.474-.102-3.2-.895-6.418-2.596-9.13-1.112-1.772-2.605-3.311-4.371-4.435-1.766-1.123-3.805-1.825-5.893-1.98-3.906-.286-7.679 1.31-11.547 1.925-1.422.226-2.874.32-4.303.145-1.429-.175-2.838-.628-4.04-1.428-1.966-1.313-3.239-3.488-3.85-5.771-.966-3.614-.379-7.555 1.283-10.906 1.429-2.882 3.592-5.324 5.738-7.721 2.147-2.396 4.328-4.818 5.809-7.674 2.323-4.48 2.75-9.776 1.924-14.754-.255-1.538-.627-3.064-1.238-4.498-.611-1.434-1.47-2.778-2.611-3.84-2.22-2.066-5.32-2.911-8.338-3.21-2.556-.251-5.134-.163-7.697 0-4.494.289-9.04.806-13.471 0-2.577-.467-5.138-1.423-7.06-3.206-2.053-1.91-3.19-4.571-4.49-7.05-2.28-4.355-5.346-8.48-9.621-10.906a17.527 17.527 0 0 0-5.133-1.924h-.002z" fill="gold" stroke-linejoin="round"/></g><path d="M350.67 54.24a1217.5 1217.5 0 0 0-2.586 38.16c-.376 7.234-.67 14.476-.922 21.719a154.199 154.199 0 0 0-10.361-8.07 156.783 156.783 0 0 0-16.986-10.537 412.387 412.387 0 0 0 27.014 29.449 1462.45 1462.45 0 0 0-.479 46.08 176.686 176.686 0 0 0-13.186-10.389 176.895 176.895 0 0 0-19.215-11.916 468.408 468.408 0 0 0 18.486 20.914 468.621 468.621 0 0 0 14.03 14.309c.079 6.12.178 12.24.322 18.357a1802.46 1802.46 0 0 0 1.447 41.29 177.086 177.086 0 0 0-14.74-11.758 176.922 176.922 0 0 0-19.217-11.916 228.767 228.767 0 0 0 18.486 20.914 229.174 229.174 0 0 0 16.06 14.594 1802.38 1802.38 0 0 0 1.842 30.02c.698-9.997 1.31-20 1.842-30.02a228.28 228.28 0 0 0 16.06-14.594 228.767 228.767 0 0 0 18.486-20.914 177.405 177.405 0 0 0-19.217 11.916 176.062 176.062 0 0 0-14.74 11.758 1804.461 1804.461 0 0 0 1.447-41.29c.144-6.118.243-12.237.322-18.357a465.157 465.157 0 0 0 14.03-14.309 467.074 467.074 0 0 0 18.486-20.914 177.282 177.282 0 0 0-19.215 11.916 176.891 176.891 0 0 0-13.186 10.389c.077-15.365-.071-30.731-.479-46.08a413.015 413.015 0 0 0 27.014-29.449 156.396 156.396 0 0 0-16.986 10.537 157.113 157.113 0 0 0-10.361 8.07c-.251-7.243-.546-14.484-.922-21.719a1215.908 1215.908 0 0 0-2.586-38.16M115.69 292.49a155.124 155.124 0 0 0 11.904 30.864 1256.372 1256.372 0 0 0-21.359-4.04 1215.227 1215.227 0 0 0-37.744-6.16 1215.058 1215.058 0 0 0 36.568 11.195c6.959 2.01 13.943 3.946 20.939 5.838a155.6 155.6 0 0 0-10.219 8.254c-5 4.407-9.725 9.135-14.12 14.14a412.99 412.99 0 0 0 21.725-11.709 417.283 417.283 0 0 0 13.1-7.898 1458.277 1458.277 0 0 0 44.768 10.945 177.77 177.77 0 0 0-13.12 10.479 176.854 176.854 0 0 0-15.975 16 467.425 467.425 0 0 0 24.57-13.244 462.544 462.544 0 0 0 17.12-10.41c5.978 1.315 11.959 2.61 17.949 3.861 13.486 2.817 27 5.477 40.543 7.982a177.673 177.673 0 0 0-14.803 11.68 177.373 177.373 0 0 0-15.975 16 229.01 229.01 0 0 0 24.57-13.246 228.056 228.056 0 0 0 17.865-12.322c9.873 1.76 19.757 3.44 29.65 5.03a1787.602 1787.602 0 0 0-28.813-8.621 228.764 228.764 0 0 0-10.559-18.961 229.264 229.264 0 0 0-16.16-22.758 177.057 177.057 0 0 0 7.232 21.424 177.128 177.128 0 0 0 8.098 17.03 1805.097 1805.097 0 0 0-39.883-10.801 1696.98 1696.98 0 0 0-17.803-4.488 469.514 469.514 0 0 0-10.742-16.918 468.732 468.732 0 0 0-16.16-22.758 176.998 176.998 0 0 0 7.232 21.42 176.697 176.697 0 0 0 7.119 15.203 1451.244 1451.244 0 0 0-44.986-10.01 413.244 413.244 0 0 0-22.533-33.005m469.94 0a412.273 412.273 0 0 0-22.533 33.005 1474.518 1474.518 0 0 0-44.986 10.01 177.403 177.403 0 0 0 7.119-15.203 176.532 176.532 0 0 0 7.232-21.42c-5.612 7.423-11 15.01-16.16 22.758a468.179 468.179 0 0 0-10.744 16.918 1748.18 1748.18 0 0 0-17.803 4.488 1801.077 1801.077 0 0 0-39.883 10.801 176.8 176.8 0 0 0 8.098-17.03 176.942 176.942 0 0 0 7.232-21.424 228.492 228.492 0 0 0-16.16 22.758 228.603 228.603 0 0 0-10.559 18.961 1803.98 1803.98 0 0 0-28.813 8.621 1824.913 1824.913 0 0 0 29.65-5.03 228.725 228.725 0 0 0 17.865 12.322c7.91 4.91 16.12 9.336 24.57 13.246a176.082 176.082 0 0 0-15.975-16 176.44 176.44 0 0 0-14.803-11.68 1807.003 1807.003 0 0 0 40.543-7.982c5.99-1.251 11.971-2.547 17.949-3.861a465.403 465.403 0 0 0 17.12 10.41 464.992 464.992 0 0 0 24.57 13.244 177.373 177.373 0 0 0-15.975-16 177.396 177.396 0 0 0-13.11-10.479c14.98-3.419 29.907-7.06 44.766-10.945a415.563 415.563 0 0 0 34.825 19.607c-4.4-5.01-9.122-9.737-14.12-14.14a155.074 155.074 0 0 0-10.219-8.254c6.996-1.892 13.98-3.826 20.939-5.838a1217.07 1217.07 0 0 0 36.568-11.195 1214.253 1214.253 0 0 0-37.744 6.16 1274.46 1274.46 0 0 0-21.359 4.04 155.328 155.328 0 0 0 11.904-30.864" fill-rule="evenodd"/></svg>