<svg xmlns="http://www.w3.org/2000/svg" width="712.58" height="800" version="1.0"><defs><linearGradient id="a"><stop style="stop-color:#fff;stop-opacity:1" offset="0"/><stop style="stop-color:#fff;stop-opacity:0" offset="1"/></linearGradient></defs><path style="fill:#ffeb3e;fill-opacity:1;fill-rule:nonzero;stroke:#000;stroke-width:10.0923624;stroke-linecap:butt;stroke-linejoin:miter;stroke-miterlimit:3.86400008;stroke-opacity:1;stroke-dasharray:none" d="M376.024 813.53c-95.668 0-181.234-31.398-256.29-110.135-64.32-67.467-97.113-125.186-97.113-218.39V23.622h702.492v461.381c0 93.205-32.803 150.914-97.113 218.39-73.998 77.63-156.317 110.136-251.976 110.136z" transform="translate(-17.575 -18.577)"/><path transform="matrix(1.32625 0 0 1.50832 -167.449 -865.179)" d="M623.668 765.277c0 29.68-27.859 53.74-62.225 53.74s-62.226-24.06-62.226-53.74c0-29.68 27.86-53.74 62.226-53.74s62.225 24.06 62.225 53.74z" style="fill:#e43f04;fill-opacity:1;fill-rule:nonzero;stroke:#000;stroke-width:4.32800007;stroke-linecap:round;stroke-linejoin:round;stroke-miterlimit:4;stroke-opacity:1;stroke-dasharray:none"/><path transform="matrix(1.26155 0 0 1.26155 -123.095 -242.764)" d="M608.143 416.673c-2.312-1.91-11.547 26.046-33.344 40.375-21.92 14.411-52.222-1.366-53.281 1.25-1.016 2.51 24.154 30.8 58.719 8.813 34.542-21.974 30.354-48.416 27.906-50.438z" style="fill:#000;fill-opacity:.81896554;fill-rule:evenodd;stroke:none"/><path transform="matrix(.8244 0 0 .67502 327.353 -29.624)" d="M288.853 363.994c0 7.42-6.015 13.435-13.435 13.435-7.42 0-13.435-6.015-13.435-13.435 0-7.42 6.015-13.435 13.435-13.435 7.42 0 13.435 6.015 13.435 13.435z" style="fill:none;stroke:#000;stroke-width:10.01989269;stroke-linecap:round;stroke-linejoin:round;stroke-miterlimit:4;stroke-opacity:1;stroke-dasharray:none"/><path style="fill:#e43f04;fill-opacity:1;fill-rule:evenodd;stroke:#000;stroke-width:4.41540813;stroke-linecap:round;stroke-linejoin:round;stroke-miterlimit:4;stroke-opacity:1;stroke-dasharray:none" d="m373.867 291.327-194.12 176.144 20.25 16.807 10.973-5.769.473 219.112h-4.1v35.546h332.26l.138-35.546h-3.53l.749-219.112 9.935 5.77 20.62-16.808-193.648-176.144z" transform="translate(-17.575 -30.577)"/><path style="fill:#fff;fill-opacity:1;fill-rule:nonzero;stroke:#000;stroke-width:4.41540813;stroke-linecap:round;stroke-linejoin:round;stroke-miterlimit:4;stroke-opacity:1;stroke-dasharray:none" d="M451.246 551.631h63.077v78.216h-63.077zM348.636 405.165h52.985v66.862h-52.985zM233.02 551.631h63.077v78.216H233.02z" transform="translate(-17.575 -30.577)"/><path style="fill:none;stroke:#000;stroke-width:4.42466974;stroke-linecap:round;stroke-linejoin:round;stroke-miterlimit:4;stroke-opacity:1;stroke-dasharray:none" d="M324.671 551.063h98.391v181.542h-98.391z" transform="translate(-17.575 -30.577)"/><path style="fill:none;stroke:#000;stroke-width:4.44817924;stroke-linecap:round;stroke-linejoin:round;stroke-miterlimit:4;stroke-opacity:1;stroke-dasharray:none" d="M344.868 574.598h57.998v158.406h-57.998z" transform="translate(-17.575 -30.577)"/><path style="fill:none;stroke:#000;stroke-width:4.41540813;stroke-linecap:butt;stroke-linejoin:miter;stroke-miterlimit:4;stroke-opacity:1;stroke-dasharray:none" d="M323.405 697.62H211.128M423.583 697.62h113.288" transform="translate(-17.575 -30.577)"/><path style="fill:#000;fill-opacity:1;fill-rule:nonzero;stroke:none" d="M242.927 594.081h16.246v25.732h-16.246zM269.944 594.081h16.246v25.732h-16.246zM269.944 560.782h16.246v21.444h-16.246zM242.928 560.782h16.246v21.444h-16.246z" transform="translate(-17.575 -30.577)"/><path style="fill:none;stroke:#000;stroke-width:4.41540813;stroke-linecap:butt;stroke-linejoin:miter;stroke-miterlimit:4;stroke-opacity:1;stroke-dasharray:none" d="m211.204 478.51 162.663-146.514 163.708 146.513" transform="translate(-17.575 -30.577)"/><path style="fill:#000;fill-opacity:1;fill-rule:nonzero;stroke:none" d="M461.044 594.081h16.246v25.732h-16.246zM488.061 594.08h16.246v25.732h-16.246zM488.061 560.781h16.246v21.444h-16.246zM461.044 560.781h16.246v21.444h-16.246zM358.098 442.466h12.321v19.469h-12.321zM380.175 442.466h12.321v19.469h-12.321zM358.098 414.712h12.321v19.469h-12.321zM380.175 414.712h12.321v19.469h-12.321z" transform="translate(-17.575 -30.577)"/><path transform="matrix(1.32625 0 0 1.50832 -608.854 -863.11)" d="M623.668 765.277c0 29.68-27.859 53.74-62.225 53.74s-62.226-24.06-62.226-53.74c0-29.68 27.86-53.74 62.226-53.74s62.225 24.06 62.225 53.74z" style="fill:#e43f04;fill-opacity:1;fill-rule:nonzero;stroke:#000;stroke-width:4.32800007;stroke-linecap:round;stroke-linejoin:round;stroke-miterlimit:4;stroke-opacity:1;stroke-dasharray:none"/><path transform="matrix(1.26155 0 0 1.26155 -123.095 -242.764)" d="M258.25 418.313c-2.312-1.91-11.547 26.045-33.344 40.375-21.92 14.41-52.221-1.367-53.281 1.25-1.016 2.51 24.154 30.8 58.719 8.812 34.542-21.974 30.354-48.416 27.906-50.438z" style="fill:#000;fill-opacity:.81896554;fill-rule:evenodd;stroke:none"/><path transform="matrix(.8244 0 0 .67502 -67.711 -27.633)" d="M288.853 363.994c0 7.42-6.015 13.435-13.435 13.435-7.42 0-13.435-6.015-13.435-13.435 0-7.42 6.015-13.435 13.435-13.435 7.42 0 13.435 6.015 13.435 13.435z" style="fill:none;stroke:#000;stroke-width:10.01989269;stroke-linecap:round;stroke-linejoin:round;stroke-miterlimit:4;stroke-opacity:1;stroke-dasharray:none"/><path transform="matrix(1.26155 0 0 1.26155 -123.095 -242.764)" d="M419.625 218.938c-17.307-6.054-46.856 2.142-52.469 6.156-3.84 2.747-5.926 14.558-4.75 17.844 2.505 7 11.49-.857 13.438 4.437 1.984 5.395-23.608 29.178-79.938 43.125-52.138 12.909-76.903 72.225-76.903 72.225l9.899 2.985c7.588-17.265 28.727-45.556 49.403-54.339 31.214-13.258 62.275-20.145 79.601-28.621 14.88-7.279 19.888-12.559 22.75-12.75 2.473-.165 15.729 14.663 40.344 21.969 1.492.443 42.967 6.445 78.594 30.906 10.913 7.493 32.418 41.9 33.449 41.381 1.03-.518 9.174-3.684 9.77-4.246 1.038-.979-18.408-31.05-30.691-43.91-7.646-8.004-51.52-29.274-69.372-32.475-29.3-5.253-50.131-23.946-50-25.125.977-8.773 12.426-5.777 20.612-13.72 3.576-3.47-9.74.658-14.443-2.305-5.763-3.632 18.922-1.483 20.638-4.675 3.351-6.235 4.082-17.053.068-18.863z" style="fill:#e43f04;fill-opacity:1;fill-rule:evenodd;stroke:#000;stroke-width:3;stroke-linecap:round;stroke-linejoin:round;stroke-miterlimit:4;stroke-opacity:1;stroke-dasharray:none"/><path transform="matrix(1.45551 -.11012 .20083 .79805 -240.83 -100.204)" d="M411.25 229.862c0 4.418-9.458 8-21.125 8s-21.125-3.582-21.125-8 9.458-8 21.125-8 21.125 3.582 21.125 8z" style="fill:none;stroke:#000;stroke-width:5.57443285;stroke-linecap:round;stroke-linejoin:round;stroke-miterlimit:4;stroke-opacity:1;stroke-dasharray:none"/></svg>