<svg width="203mm" height="892.611" viewBox="0 0 203 236.17" xmlns="http://www.w3.org/2000/svg"><path d="M1.5 69v65.739a99.9 99.9 0 0 0 29.29 70.662 100.034 100.034 0 0 0 70.71 29.269 100.034 100.034 0 0 0 70.71-29.269 99.89 99.89 0 0 0 29.29-70.662V69z"/><path d="m201.497 69-.001-67.5h-200V69z" fill="#fcdb00"/><g fill="none" stroke-linejoin="round"><path d="M37.628 121.16c27.557 7.888 47.727 33.268 47.727 63.36 0 19.181-8.195 36.448-21.275 48.49" stroke="#fcdb00" stroke-width="21" style="paint-order:normal" transform="translate(-4.333 -30.748)"/><path d="M19.459 112.02c40.041 0 72.5 32.459 72.5 72.5 0 23.843-11.509 44.997-29.275 58.211" stroke="#000" stroke-width="2" style="paint-order:normal" transform="translate(-4.333 -30.748)"/><path d="M174.04 121.16c-27.557 7.888-47.727 33.268-47.727 63.36 0 19.181 8.195 36.448 21.275 48.49" stroke="#fcdb00" stroke-width="21" style="paint-order:normal" transform="translate(-4.333 -30.748)"/><path d="M192.21 112.02c-40.041 0-72.5 32.459-72.5 72.5 0 23.843 11.509 44.997 29.275 58.211" stroke="#000" stroke-width="2" style="paint-order:normal" transform="translate(-4.333 -30.748)"/></g><g stroke="#000"><path d="M185.867 53.194c-4.78.75-11.067-1.313-14.888-1.498-4.433-.214-4.281-1.36-7.952-3.379-9.742-5.36-27.97 1.443-36.69-.926-3.73-1.014-11.107-1.004-18.676.333-10.39 1.835-22.106 2.279-24.913-.998-1.863-2.175-4.047-3.617-8.942-.781-8.498 4.923-24.594-4.756-41.338 5.48.407 3.522.686 5.748-2.32 7.208-3.005 1.46-5.694-.427-8.472-4.176-3.61 1.715-7.462 2.296-8.834-1.62-1.371-3.917 1.572-6.014 5.34-6.737-1.508-3.577.193-8.373 3.798-9.59 3.604-1.217 5.392.526 7.633 4.918 5.913.93 10.743-2.032 10.57-4.67-.738-11.286 12.107-23.167 22.51-22.384 2.214.167 4.63.173 5.909.026 4.606-.526 2.5 1.398-4.549 4.415-7.43 3.18-13.699 11.032-13.589 14.703.094 3.123 4.418 5.25 11.35 5.094 3.955-.09 9.786-2.398 11.387-5.32 9.016-16.458 8.712-17.77 24.9-20.797 9.77-1.826 6.152 1.155 1.39 2.921-8.762 3.25-15.097 9.557-14.988 16.04.085 5.03 6.268 7.726 13.432 7.811 6.236.075 9.806-5.504 10.536-7.812 3.757-11.868 7.95-13.537 13.514-13.945 4.575-.335 10.492-2.547 14.917-4.208 5.02-1.884 8.85-3.59 1.787 2.363-4.66 3.927-9.733 5.88-13.991 8.338-6.582 3.797-10.208 11.37-1.862 13.26 5.937 1.343 12.177 1.068 15.715.797 5.194-.397 6.982-2.964 8.881-5.625 5.487-7.686 8.373-15.958 16.416-15.165 4.478.442 10.171-2.222 13.967-4.362 8.48-4.78 2.307 1.78 1.368 2.716-6.175 6.148-30.296 18.288-16.135 25.136 13.69 6.62 16.329 8.955 22.819 12.435z" stroke-linejoin="round" stroke-width="2"/><path d="M1.5 1.5v133.24a99.9 99.9 0 0 0 29.29 70.662 100.034 100.034 0 0 0 70.71 29.269 100.034 100.034 0 0 0 70.71-29.269 99.89 99.89 0 0 0 29.29-70.662L201.497 1.5z" fill="none" stroke-linecap="square" stroke-miterlimit="8" stroke-width="3"/><path d="M1.5 69h200" fill="none" stroke-width="2"/></g></svg>