<svg width="490.034" height="609.993" xmlns="http://www.w3.org/2000/svg"><g style="stroke-width:1.0002;stroke-miterlimit:4;stroke-dasharray:none" fill="red"><path d="M-66.11 62.361v467.84c17.869 147.42 143.41 258.21 289.42 258.4V62.361z" style="fill:#da251d;fill-opacity:1;stroke:none;stroke-width:1.0002;stroke-linecap:butt;stroke-linejoin:miter;stroke-miterlimit:4;stroke-dasharray:none" transform="matrix(.81385 0 0 .81385 63.28 -41.275)"/><path d="M512.73 62.361v467.84c-17.869 147.42-143.41 258.21-289.42 258.4V62.361z" style="fill:#fcdb00;fill-opacity:1;stroke:none;stroke-width:1.0002;stroke-linecap:butt;stroke-linejoin:miter;stroke-miterlimit:4;stroke-dasharray:none" transform="matrix(.81385 0 0 .81385 63.28 -41.275)"/></g><g transform="matrix(.81385 0 0 .81385 63.28 -41.275)"><path d="M115.322 109.885a12.5 12.5 0 0 0-12.5 12.5 12.5 12.5 0 0 0 .557 3.644c-13.363 2.278-26.06 8.533-35.896 17.875-3.885 3.69-7.138 7.937-9.95 12.482a12.5 12.5 0 0 0-7.33-2.39 12.5 12.5 0 0 0-12.5 12.5 12.5 12.5 0 0 0 10.147 12.271c-.194 1.135-.328 2.05-.328 2.05v26.821a12.5 12.5 0 0 0-2.101-.191 12.5 12.5 0 0 0-12.5 12.5 12.5 12.5 0 0 0 12.5 12.5 12.5 12.5 0 0 0 2.101-.18v272.48c0 7.4 5.958 13.357 13.357 13.357 7.4 0 13.355-5.957 13.355-13.357v-324.67c.957-8.282 4.826-16.197 10.771-22.04 7.473-7.345 17.897-11.214 28.34-12.07 5.946-.488 12-.055 17.723 1.633 5.722 1.688 11.11 4.66 15.34 8.863 7.307 7.258 10.758 17.98 9.891 28.24-.539 6.374-2.66 12.621-6.217 17.94-3.8 5.683-9.3 10.308-15.744 12.595-3.788 1.345-7.874 1.873-11.87 1.45-3.998-.425-7.9-1.808-11.222-4.073-2.52-1.719-4.706-3.948-6.28-6.56-1.576-2.613-2.53-5.613-2.642-8.66-.107-2.926.577-5.898 2.1-8.397 1.683-2.76 4.391-4.867 7.467-5.859a8.299 8.299 0 0 0-3.879 7.014 8.299 8.299 0 0 0 8.3 8.299 8.299 8.299 0 0 0 8.298-8.3 8.299 8.299 0 0 0-3.236-6.568c.485.205.96.43 1.418.691v-.99a8.299 8.299 0 0 0 5.73 2.301 8.299 8.299 0 0 0 8.299-8.299 8.299 8.299 0 0 0-8.299-8.298 8.299 8.299 0 0 0-5.73 2.31v-.668c-.256-.074-.514-.135-.771-.2a8.299 8.299 0 0 0 2.59-6.01 8.299 8.299 0 0 0-8.3-8.3 8.299 8.299 0 0 0-8.298 8.3 8.299 8.299 0 0 0 2.185 5.597c-3.13.561-6.167 1.644-8.922 3.236-4.47 2.583-8.189 6.441-10.645 10.982-2.455 4.542-3.644 9.751-3.445 14.91.19 4.917 1.628 9.767 4.04 14.06 2.411 4.29 5.782 8.02 9.73 10.957.593.441 1.201.859 1.818 1.264a50.529 50.529 0 0 0-5.859 6.986c-1.657 2.39-3.122 4.957-3.883 7.764-1.234 4.552-.543 9.366-.242 14.07.201 3.143.232 6.305.68 9.422a10.361 10.361 0 0 0-10.19 10.352 10.361 10.361 0 0 0 10.36 10.36 10.361 10.361 0 0 0 7.495-3.224 10.361 10.361 0 0 0 9.61 6.5 10.361 10.361 0 0 0 10.362-10.36 10.361 10.361 0 0 0-3.154-7.427 10.361 10.361 0 0 0 7.035-9.8 10.361 10.361 0 0 0-10.361-10.36 10.361 10.361 0 0 0-3.588.654c-.31-1.846-.456-3.719-.293-5.58.213-2.435.936-4.807 1.94-7.04a28.79 28.79 0 0 1 4.075-6.51c.555.124 1.11.25 1.67.352 2.769.51 5.578.754 8.393.79a12.5 12.5 0 0 0-.358 2.91 12.5 12.5 0 0 0 12.5 12.5 12.5 12.5 0 0 0 12.5-12.5 12.5 12.5 0 0 0-2.27-7.157c4.596-1.91 8.887-4.49 12.575-7.824 2.709-2.448 5.03-5.264 6.979-8.326a12.5 12.5 0 0 0 7.765 2.72 12.5 12.5 0 0 0 12.5-12.5 12.5 12.5 0 0 0-12.5-12.5 12.5 12.5 0 0 0-.357.013c.071-.763.128-1.527.166-2.291.571-11.325-2.308-22.772-8-32.568a12.5 12.5 0 0 0 7.565-11.47 12.5 12.5 0 0 0-12.5-12.5 12.5 12.5 0 0 0-10.915 6.417c-7.46-5.448-16.18-9.191-25.28-10.996a12.5 12.5 0 0 0 .642-3.926 12.5 12.5 0 0 0-12.5-12.5z" style="fill:#fcdb00;fill-opacity:1;stroke:#000;stroke-width:8;stroke-linecap:round;stroke-linejoin:round"/><rect width="26.715" height="372.52" x="47.51" y="331.84" rx="16.412" style="fill:#fcdb00;fill-opacity:1;stroke:#000;stroke-width:8;stroke-linecap:round;stroke-linejoin:round" ry="16.412"/><path style="fill:#fcdb00;fill-opacity:1;stroke:#000;stroke-width:8;stroke-linecap:round;stroke-linejoin:round" d="M46.492 303.56h28.746c4.583 0 8.272 2.908 8.272 6.52 0 3.612-3.69 6.52-8.272 6.52H46.492c-4.583 0-8.272-2.908-8.272-6.52 0-3.612 3.69-6.52 8.272-6.52zm-6.02 13.04h40.796c4.583 0 8.272 2.742 8.272 6.147 0 3.405-3.69 6.147-8.272 6.147H40.472c-4.583 0-8.272-2.742-8.272-6.147 0-3.405 3.69-6.147 8.272-6.147zm6.02 12.3h28.746c4.583 0 8.272 2.908 8.272 6.52 0 3.612-3.69 6.52-8.272 6.52H46.492c-4.583 0-8.272-2.908-8.272-6.52 0-3.612 3.69-6.52 8.272-6.52z"/></g><g fill-rule="evenodd"><path d="M425.46 125.24a21.556 21.556 0 0 0-3.291.172c-3.898.489-7.688 1.89-10.918 4.125a23.455 23.455 0 0 0-4.125 3.639 43.532 43.532 0 0 0-5.096-3.881c-.91-.593-1.849-1.155-2.867-1.535-1.018-.38-2.126-.572-3.199-.406a5.034 5.034 0 0 0-3.396 2.184l-42.46-.486a3.892 3.892 0 0 1-2.184.971c-.967.1-1.954-.167-2.912 0-.808.141-1.549.592-2.092 1.207-.543.615-.893 1.387-1.063 2.189-.386 1.83.15 3.714.242 5.582.103 2.079-.355 4.168-1.213 6.06-.516 1.141-1.174 2.216-1.654 3.373s-.78 2.437-.529 3.664c.205 1 .767 1.908 1.455 2.668 1.652 1.825 4 2.88 6.373 3.533s4.829.955 7.215 1.563c2.375.605 4.685 1.518 6.748 2.842 2.063 1.323 3.874 3.068 5.141 5.166a14.036 14.036 0 0 1 1.941 5.822c-2.832-.013-5.665.067-8.492.242-7.155.443-14.527 1.466-21.352-.727-3.091-.993-5.981-2.644-8.326-4.889-2.345-2.245-4.131-5.092-5.02-8.215a17.162 17.162 0 0 1-.486-7.04 7.248 7.248 0 0 0-5.822 2.426c-1.546 1.769-2.127 4.202-2.184 6.551-.116 4.829 1.904 9.726 5.58 12.859 3.536 3.01 8.252 4.247 12.859 4.854 7.876 1.036 15.869.501 23.777-.244 1.233-.116 2.47-.237 3.707-.176 1.237.061 2.484.314 3.572.904.964.523 1.778 1.298 2.426 2.184a9.37 9.37 0 0 1 1.699 4.125 5.193 5.193 0 0 1-2.719 1.529 5.206 5.206 0 0 1-3.105-.316c-.955-.414-1.759-1.104-2.514-1.82-.754-.716-1.48-1.472-2.338-2.061-1.546-1.06-3.444-1.511-5.316-1.602-1.872-.09-3.741.158-5.602.387-1.402.173-2.811.335-4.18.682-1.369.346-2.708.886-3.828 1.746-1.147.88-2.03 2.073-2.654 3.377-.624 1.304-.997 2.717-1.227 4.145-.258 1.605-.337 3.259 0 4.848.347 1.588 1.147 3.112 2.416 4.129 1.299 1.041 2.973 1.48 4.611 1.777 1.638.298 3.317.488 4.852 1.135 1.925.811 3.503 2.3 4.73 3.99 1.228 1.69 2.136 3.586 3.03 5.473 1.174 2.468 2.362 5.03 2.426 7.764.033 1.416-.25 2.85-.906 4.105-.656 1.256-1.694 2.324-2.975 2.93-1.646.778-3.59.753-5.338.244-2.755-.802-5.05-2.695-7.184-4.609-2.138-1.914-4.267-3.934-6.891-5.096-1.743-.771-3.632-1.131-5.479-1.604-1.846-.473-3.707-1.089-5.195-2.279-1.765-1.412-2.855-3.523-3.479-5.695-.624-2.173-.829-4.44-1.133-6.68-2.049-15.09-8.823-29.402-18.682-41-6.614-7.783-14.751-14.48-24.26-18.2-5.921-2.314-12.346-3.439-18.682-2.912-1.22.102-2.436.265-3.641.486a16.207 16.207 0 0 0-.727 6.309c.057.69.159 1.375.195 2.066.036.691.006 1.396-.195 2.059-.296.973-.955 1.811-1.76 2.432s-1.753 1.036-2.727 1.328c-1.948.584-4.02.697-5.947 1.334-3.38 1.116-6.164 3.9-7.279 7.279a16.046 16.046 0 0 1 9.705 1.457c1.251.623 2.461 1.454 3.154 2.668.702 1.227.798 2.743.451 4.113-.347 1.371-1.106 2.609-2.02 3.691-1.818 2.165-4.247 3.774-5.957 6.03-2.221 2.924-3.045 6.864-2.184 10.434a75.212 75.212 0 0 1 11.646 0c6.092.473 12.11 1.688 18.2 2.184.582.047 1.17.088 1.729.256.559.168 1.095.476 1.426.957.355.516.438 1.177.381 1.801-.057.624-.242 1.227-.381 1.838-.66 2.907-.248 6.01.971 8.734.668 1.492 1.6 2.906 2.912 3.883 1.308.974 2.908 1.455 4.367 2.184a14.02 14.02 0 0 1 2.91 1.941 307.05 307.05 0 0 1 1.941 13.586c.975 8.109 1.687 16.473 5.338 23.779 2.076 4.154 5.04 7.809 8.25 11.16a83.649 83.649 0 0 0 5.338 5.096 221.758 221.758 0 0 1-10.434 16.984c-4.142 6.109-8.631 12.08-11.404 18.924a42.72 42.72 0 0 0-2.668 22.08l7.764-2.912c-.174 4.7-.498 9.393-.971 14.07-.598 5.916-1.445 11.852-3.396 17.469-1.201 3.457-2.811 6.762-4.609 9.949-6.39 11.322-15.11 21.12-23.777 30.813-5.366 5.998-10.885 12.234-13.346 19.896-1.229 3.826-1.64 7.871-1.697 11.889-.081 5.7.541 11.402 1.697 16.984a89.72 89.72 0 0 0 2.426 9.219c4.93-2.52 9.951-4.866 15.04-7.04 6.129-2.609 12.399-4.97 18.924-6.309a63.292 63.292 0 0 1 15.771-1.213 20.084 20.084 0 0 1 .971-12.617c1.659-3.922 4.515-7.194 7.279-10.434 6.625-7.765 13.08-15.853 21.35-21.836 3.514-2.543 7.398-4.704 11.646-5.58 5.538-1.142 11.286-.031 16.742 1.455 7.552 2.057 15 4.885 21.352 9.463 6.45 4.651 11.597 11.03 15.04 18.2 4.155 8.643 5.838 18.315 6.06 27.902.234 9.907-1.076 19.952-4.852 29.12-3.45 8.373-8.96 15.914-16.01 21.594-5.647 4.547-12.173 7.854-18.2 11.889-8.781 5.881-16.433 13.268-24.02 20.625-7.601 7.371-15.285 14.877-20.625 24.02-4.331 7.415-7.03 15.922-6.793 24.506.17 6.254 1.897 12.44 4.854 17.953 1.592 2.969 3.632 5.839 6.551 7.521 2.679 1.545 5.894 1.956 8.977 1.699 6.641-.554 12.654-3.972 18.439-7.279 8.531-4.877 17.288-9.756 26.932-11.646a46.485 46.485 0 0 1 16.5-.242 34.516 34.516 0 0 0-2.67 10.918c-.411 5.407.457 10.84.242 16.258a40.903 40.903 0 0 1-.484 4.852 219.495 219.495 0 0 1-19.17 19.17c-2.977 2.63-6.03 5.185-8.75 8.08-2.719 2.895-5.114 6.166-6.535 9.875-2.487 6.49-1.812 13.699-1.213 20.623a642.434 642.434 0 0 1 2.184 39.06 158.879 158.879 0 0 0 17.955-13.1c7.22-6.088 14.04-12.919 22.564-16.984a41.21 41.21 0 0 1 14.557-3.881 53.314 53.314 0 0 1-.484-20.381c1.622-9.498 5.795-18.382 10.676-26.689 4.638-7.894 10.222-15.641 18.2-20.14a31.303 31.303 0 0 1 12.373-3.883 68.193 68.193 0 0 1 2.912-23.777c1.656-5.376 3.974-10.527 6.551-15.527 2.36-4.579 4.965-9.1 6.309-14.07.922-3.411 1.212-7.114 0-10.434a12.305 12.305 0 0 0-4.854-6.07 866.713 866.713 0 0 0-11.402 0c-8.572.058-17.14.246-25.717.195a467.676 467.676 0 0 1-10.92-.195c-.838-2.585-.374-5.557 1.213-7.764 1.106-1.538 2.686-2.677 4.348-3.588 1.661-.911 3.424-1.621 5.113-2.479 6.01-3.051 10.954-7.914 16.984-10.918 1.242-.619 2.527-1.158 3.701-1.896 1.174-.739 2.25-1.705 2.85-2.955.674-1.404.691-3.034.52-4.582-.171-1.548-.516-3.081-.52-4.639a10.62 10.62 0 0 1 .729-3.883 36.219 36.219 0 0 0 7.04-2.91c5.02-2.732 9.32-6.614 13.344-10.676 7.37-7.439 14.07-15.72 18.439-25.23 4.741-10.314 6.591-21.705 7.764-32.996 1.185-11.413 1.708-23.11-1.213-34.21-3.03-11.508-9.584-21.735-14.07-32.756-.97-2.383-1.851-4.817-3.154-7.04-.356-.607-.744-1.197-1.035-1.838-.291-.641-.483-1.344-.42-2.045.057-.629.318-1.228.674-1.75.356-.522.804-.975 1.268-1.404 1.479-1.368 3.188-2.584 4.125-4.367.577-1.097.819-2.347.85-3.586.03-1.239-.145-2.474-.365-3.693-.736-4.075-1.978-8.05-2.668-12.13-.313-1.85-.507-3.774 0-5.58.411-1.463 1.263-2.771 2.27-3.908 1.01-1.138 2.172-2.123 3.311-3.129a111.687 111.687 0 0 0 7.04-6.793 12.523 12.523 0 0 0-7.277-.971c-1.266.213-2.5.624-3.641 1.213.467-3.642 2-7.139 4.367-9.947 1.228-1.458 2.686-2.742 4.367-3.641a12.416 12.416 0 0 1 6.07-1.455c-2.119-2.528-5.438-4-8.734-3.883-2.079.077-4.116.757-5.893 1.84-1.777 1.082-3.299 2.558-4.541 4.227-3.135 4.21-4.45 9.554-4.609 14.801-.049 1.615.004 3.242-.275 4.834-.279 1.592-.93 3.181-2.15 4.24-.529.459-1.164.81-1.852.945-.688.136-1.43.045-2.031-.314a2.878 2.878 0 0 1-.93-.92 4.007 4.007 0 0 1-.506-1.213c-.21-.854-.19-1.746-.166-2.625.094-3.505.224-7.02.777-10.482 1.116-6.984 3.93-13.64 4.707-20.67.291-2.634.292-5.295.654-7.92.363-2.625 1.122-5.269 2.742-7.365 2.058-2.663 5.242-4.144 8.01-6.06 4.948-3.437 8.777-8.649 9.947-14.559.504-2.549.518-5.166.486-7.764-.076-6.146-.411-12.39-2.426-18.2-1.044-3.01-2.523-5.85-3.619-8.84s-1.808-6.225-1.234-9.357c.661-3.606 2.941-6.689 5.338-9.463a82.922 82.922 0 0 1 8.492-8.492 17.71 17.71 0 0 0-9.705 1.699 17.666 17.666 0 0 0-5.822 4.609 16.013 16.013 0 0 1-.729-10.918c.801-2.727 2.322-5.192 4.074-7.43 1.752-2.237 3.745-4.274 5.631-6.4a87.218 87.218 0 0 0 8.25-10.918c-8.388.899-16.35 5.281-21.596 11.889-3.516 4.429-5.804 9.744-7.189 15.227-1.386 5.483-1.899 11.15-2.127 16.801-.305 7.58-.089 15.283 2.039 22.564a44.123 44.123 0 0 0 1.939 5.338 222.507 222.507 0 0 0-5.338 6.793c-1.565 2.074-3.103 4.191-4.225 6.535-1.122 2.344-1.815 4.948-1.598 7.537.241 2.864 1.56 5.509 2.426 8.25.374 1.183.666 2.4.729 3.639.098 1.941-.371 3.874-1.08 5.684-.709 1.809-1.655 3.514-2.559 5.234-5.548 10.562-9.6 22.07-10.434 33.969-.72 10.285.973 20.611 3.639 30.57 2.602 9.722 6.129 19.18 10.191 28.389 3.64 8.251 7.715 16.318 10.918 24.748 3.594 9.461 6.085 19.485 5.822 29.602-.209 8.05-2.213 16.12-6.309 23.05-3.251 5.502-7.737 10.186-12.615 14.314a92.914 92.914 0 0 1-8.734 6.551 125.051 125.051 0 0 0-3.641-22.08c-4.12-15.93-11.339-30.882-16.256-46.584-1.873-5.982-3.423-12.179-3.154-18.441.204-4.753 1.482-9.479 3.883-13.586 2.425-4.149 6.116-7.704 10.676-9.221a16.013 16.013 0 0 1 8.248-.484 54.917 54.917 0 0 1-9.219-20.14c-1.612-7.02-1.821-14.303-1.455-21.5.831-16.338 4.593-32.434 9.947-47.893 5.242-15.14 12.12-30.34 11.402-46.34a50.639 50.639 0 0 0-2.426-13.344 51.09 51.09 0 0 0-5.338-11.404 131.9 131.9 0 0 1 2.184-7.04c.943-2.763 1.992-5.571 1.941-8.49-.06-3.465-1.663-6.706-3.396-9.707-3.357-5.809-7.381-11.333-9.463-17.711-1.25-3.829-1.798-7.958-3.883-11.404-1.969-3.254-5.276-5.672-8.977-6.551a16.05 16.05 0 0 0-3.26-.414m-130.98 318.62a26.546 26.546 0 0 0-5.941.594c-4.288.939-8.276 3.02-11.756 5.697-3.48 2.677-6.472 5.94-9.174 9.4-8.655 11.09-14.444 24.466-16.13 38.43-.731 6.07-.684 12.317 1.029 18.19.568 1.945 1.322 3.853 2.438 5.545 1.115 1.692 2.608 3.165 4.424 4.064 1.874.928 4.01 1.21 6.102 1.191 2.091-.018 4.169-.323 6.252-.506 4.56-.401 9.149-.224 13.725-.344 2.062-.054 4.121-.167 6.176-.342a28.824 28.824 0 0 1-3.584 9.828c-2.782 4.72-6.852 8.548-11.141 11.957-4.289 3.409-8.854 6.472-12.992 10.06-7.921 6.872-14.1 15.518-19.635 24.424-2.509 4.04-4.912 8.161-6.701 12.563-1.789 4.402-2.956 9.108-2.906 13.859.049 4.718 1.295 9.361 3.088 13.725a56.09 56.09 0 0 0 7.549 13.04 27.45 27.45 0 0 0 6.863-6.52 27.478 27.478 0 0 0 4.461-9.264 16.343 16.343 0 0 0 4.803 8.922 97.912 97.912 0 0 1 15.1-15.785 98.122 98.122 0 0 1 20.932-13.381c.013-5.149.128-10.297.344-15.441.29-6.935.775-13.932 2.744-20.588 3.278-11.08 10.465-20.569 18.19-29.17a219.506 219.506 0 0 1 19.559-19.215 29.02 29.02 0 0 1-3.773-4.461c-.458-.668-.892-1.359-1.211-2.104-.319-.745-.521-1.548-.506-2.357a4.961 4.961 0 0 1 .584-2.201 6.035 6.035 0 0 1 1.441-1.773c1.168-.992 2.647-1.564 4.15-1.859 3.398-.668 6.902-.006 10.295.688 3.209.656 6.411 1.342 9.607 2.059a78.542 78.542 0 0 0 16.471-16.13c4.782-6.311 8.612-13.376 10.98-20.932a61.566 61.566 0 0 0 2.744-21.273 46.792 46.792 0 0 1-14.754 16.813c-4.99 3.473-10.759 5.978-16.814 6.52-5.375.481-10.806-.595-15.857-2.492-5.05-1.898-9.761-4.6-14.338-7.459-7.401-4.624-14.657-9.756-22.988-12.352-3.182-.991-6.518-1.591-9.844-1.623" style="fill:#000" transform="matrix(.81385 0 0 .81385 63.28 -41.275)"/><path d="M492.58 77.4c-1.803.051-3.624.379-5.369.83a40.2 40.2 0 0 0-10.637 4.461 36.534 36.534 0 0 1-6.176-2.402c-.983-.489-1.946-1.023-2.967-1.43-1.021-.406-2.112-.684-3.209-.629-.983.05-1.937.365-2.838.764-.9.398-1.759.881-2.652 1.295-3.146 1.46-6.666 2.031-10.131 1.889-3.465-.143-6.88-.982-10.115-2.23-1.22-.471-2.418-1-3.674-1.365-1.255-.365-2.585-.564-3.875-.352-.682.112-1.352.344-1.914.746-.562.402-1.01.985-1.174 1.656-.185.76-.003 1.553.043 2.334.023.39.012.788-.096 1.164-.107.376-.317.732-.633.963-.26.19-.58.286-.9.32-.32.034-.643.007-.963-.029-.32-.036-.641-.082-.963-.09a2.443 2.443 0 0 0-.949.143c-.51.199-.906.634-1.127 1.135-.221.501-.279 1.063-.244 1.609.08 1.246.628 2.428 1.371 3.432 1.56 2.107 3.927 3.475 6.354 4.469 2.426.994 4.976 1.674 7.373 2.736 6.05 2.684 11.02 8.01 12.695 14.412 1.342 5.121.596 10.523 0 15.783-.187 1.652-.365 3.335-1.012 4.867-.323.766-.766 1.486-1.346 2.082-.58.596-1.303 1.063-2.104 1.287-1.038.291-2.155.164-3.188-.145-1.033-.308-2-.791-2.988-1.229-3.129-1.389-6.539-2.337-9.951-2.059-1.316.107-2.626.399-3.822.959-1.196.559-2.278 1.395-3.041 2.473-1.042 1.472-1.444 3.392-1.029 5.146.318 1.346 1.09 2.56 2.07 3.535.98.976 2.163 1.725 3.4 2.344 2.474 1.237 5.189 1.974 7.568 3.385 3.714 2.201 6.41 6.05 7.207 10.295a62.964 62.964 0 0 0 15.439.342c4.282-.433 8.595-1.334 12.354-3.43 3.164-1.764 5.822-4.313 8.205-7.04 2.383-2.728 4.524-5.66 6.893-8.4 3.802-4.399 8.265-8.416 10.637-13.725a20.242 20.242 0 0 0 1.715-6.863c.235-3.471-.444-6.942-1.371-10.295-.272-.986-.569-1.978-.602-3a4.648 4.648 0 0 1 .186-1.516c.15-.489.402-.949.758-1.316.429-.443 1-.738 1.611-.852a3.444 3.444 0 0 1 1.82.166c.789.292 1.464.85 1.973 1.521.508.671.857 1.451 1.115 2.252.704 2.188.731 4.555.346 6.82-.385 2.266-1.168 4.445-2.061 6.563a65.219 65.219 0 0 1-3.775 7.549 300.646 300.646 0 0 1 3.775 6.861c2.208 4.142 4.346 8.414 5.146 13.04 1.065 6.15-.308 12.439-1.836 18.49-4.362 17.277-10.05 34.24-17.379 50.48-2 4.439-4.135 8.835-5.699 13.447-1.564 4.613-2.555 9.491-2.193 14.348.441 5.929 2.94 11.66 6.863 16.13a29.019 29.019 0 0 0 11.322 7.891c.049-7.673.393-15.342 1.029-22.988 1.398-16.792 4.238-33.56 9.951-49.41 2.302-6.388 5.066-12.609 7.131-19.08 2.065-6.469 3.429-13.274 2.82-20.04a35.885 35.885 0 0 0-3.775-13.04c-2.329-4.567-5.617-8.634-7.549-13.383-.421-1.035-.775-2.103-.934-3.209-.159-1.106-.115-2.254.248-3.311a4.714 4.714 0 0 1 1.023-1.73c.466-.489 1.065-.86 1.723-1.014.73-.171 1.495-.071 2.232.064.738.136 1.477.306 2.227.277a4.664 4.664 0 0 0 2.107-.617 5.905 5.905 0 0 0 1.668-1.441c.903-1.121 1.431-2.518 1.625-3.945.194-1.427.064-2.884-.252-4.289-1.088-4.838-4.3-8.935-7.893-12.354a54.342 54.342 0 0 0-10.637-7.891 8.24 8.24 0 0 0 3.424-3.271 8.227 8.227 0 0 0 1.037-4.621c-.128-1.757-.837-3.457-1.941-4.83-1.104-1.373-2.595-2.422-4.236-3.063-1.679-.656-3.464-.881-5.268-.83m-4.596 5.078c.218 0 .436.016.65.049.859.13 1.667.503 2.389.986a8.351 8.351 0 0 1 3.09 3.814c.849 2.127.771 4.566 0 6.723-.783 2.192-2.246 4.101-3.998 5.633a17.844 17.844 0 0 1-7.994 3.998 22.918 22.918 0 0 0 1.453-5.814c.393-3.434.005-6.92.363-10.357.09-.867.231-1.739.563-2.545.332-.806.871-1.548 1.619-1.996.559-.335 1.212-.489 1.865-.49m-25.848.854a4.655 4.655 0 0 0 .545 3.996c.563.84 1.398 1.478 2.322 1.889.924.41 1.935.602 2.945.656.771.041 1.547.003 2.311.117.763.114 1.534.4 2.051.973.412.457.632 1.072.648 1.688.017.615-.162 1.229-.467 1.764-.343.602-.839 1.106-1.381 1.539-.541.433-1.132.803-1.709 1.188a35.08 35.08 0 0 0-4.178 3.27 114.703 114.703 0 0 0-8.176-4.178c-2.789-1.287-5.631-2.464-8.539-3.453a71.6 71.6 0 0 0-9.629-2.543 70.151 70.151 0 0 0 23.256-6.904m-124.99 11.586c-.34.006-.68.032-1.018.084a5.852 5.852 0 0 0-1.936.637 4.443 4.443 0 0 0-1.521 1.346c-.468.676-.714 1.477-.926 2.271-.212.795-.4 1.605-.773 2.338a5.104 5.104 0 0 1-2.688 2.424 5.11 5.11 0 0 1-3.621.002 31.127 31.127 0 0 0 3.883 3.398c1.252.924 2.585 1.764 3.639 2.91 1.21 1.316 2.01 3.067 1.941 4.854-.06 1.479-.704 2.881-1.541 4.102-.837 1.22-1.87 2.291-2.826 3.42a34.612 34.612 0 0 0-4.852 7.521c1.537-.065 3.074-.145 4.609-.242 3.889-.246 7.841-.594 11.646.242 3.211.705 6.22 2.25 8.734 4.367 3.25 2.735 5.646 6.373 7.406 10.238 1.76 3.866 2.915 7.976 3.996 12.08 3.982 15.13 7.139 30.755 14.801 44.4a74.563 74.563 0 0 0 6.309 9.463c7.51-2.941 15.03-5.852 22.564-8.734 16.637-6.365 33.543-12.701 48.04-23.05a101.808 101.808 0 0 0 11.646-9.705 193.185 193.185 0 0 0-29.844-.729 41.58 41.58 0 0 1-3.154 7.279c-.775 1.404-1.636 2.771-2.707 3.965s-2.361 2.217-3.844 2.83c-2.358.975-5.04.854-7.521.242-5.72-1.413-10.501-5.226-15.04-8.979-6.16-5.09-12.362-10.39-16.498-17.227-3.248-5.368-5.081-11.453-6.795-17.488-1.714-6.03-3.366-12.15-6.309-17.691-4.145-7.806-10.692-14.13-17.953-19.17-4.517-3.135-9.431-5.857-14.801-7.04-1-.22-2.027-.385-3.047-.367m158.98 41.3c-.986 3.067-1.9 6.155-2.744 9.264-2.204 8.114-3.924 16.364-6.52 24.361-3.408 10.501-8.332 20.53-14.756 29.51-3.705 5.179-7.893 9.996-11.656 15.13-3.763 5.137-7.134 10.67-8.932 16.779-1.957 6.649-1.972 13.775-.686 20.586.578 3.059 1.463 6.167 3.432 8.578 1.423 1.742 3.366 3.037 5.49 3.775 1.734.602 3.621.841 5.42.479s3.499-1.362 4.529-2.881c.73-1.076 1.103-2.367 1.223-3.662.12-1.295 0-2.6-.191-3.887-.53-3.573-1.592-7.05-2.061-10.637-1.153-8.824 1.366-17.779 5.227-25.797 3.86-8.02 9.04-15.317 13.646-22.928 7.514-12.403 13.686-26.345 13.04-40.832a46.341 46.341 0 0 0-4.461-17.842m-8.578 10.637c-2.355 7.871-5.795 15.462-10.295 22.303-12.707 19.32-32.805 32.879-46.32 51.643-4.461 6.193-9.02 12.622-11.324 19.898-.838 2.648-1.19 5.545-.797 8.295.32 2.234 1.149 4.489 2.512 6.289 1.262 1.667 3.01 3.102 4.975 3.82 1.99.728 4.258.638 6.35.297 2.098-.342 4.176-1.097 5.945-2.305 1.769-1.208 3.231-2.903 4.01-4.9.585-1.507.768-3.141.795-4.758.027-1.617-.099-3.233-.109-4.85-.039-6.19 1.624-12.31 4.215-17.932 2.591-5.622 6.092-10.78 9.854-15.695 7.656-10 16.507-19.2 22.646-30.2 3.563-6.385 6.168-13.35 7.205-20.588a50.69 50.69 0 0 0 .344-11.322m-41.52 45.637a263.108 263.108 0 0 0-37.06 15.783c-10.234 5.32-20.306 11.471-27.795 20.244-3.315 3.884-6.088 8.262-7.891 13.04a37.547 37.547 0 0 0-2.402 14.07 74.478 74.478 0 0 1 22.305-22.647 412.62 412.62 0 0 0-10.98 16.14c-2.686 4.154-5.352 8.499-6.176 13.377-.459 2.718-.325 5.503-.678 8.236-.798 6.183-4.03 11.782-5.508 17.838a32.356 32.356 0 0 0-.678 11.67 132.205 132.205 0 0 1-19.9 27.11c-5.202 5.462-10.872 10.475-15.891 16.11-5.02 5.631-9.434 11.999-11.561 19.236a35.063 35.063 0 0 0-1.371 11.666 29.27 29.27 0 0 0 9.607.688 13.619 13.619 0 0 0 1.715-9.609 108.831 108.831 0 0 1 12.01-.342 4.399 4.399 0 0 1 2.059 3.432c.037.632-.065 1.262-.125 1.893-.06.63-.075 1.28.125 1.881.246.737.816 1.348 1.508 1.701.692.354 1.497.459 2.268.357.802-.106 1.564-.427 2.248-.859.684-.432 1.295-.973 1.869-1.543 4.825-4.792 7.094-11.497 10.293-17.498 8.113-15.219 22.322-26.04 34.31-38.432 2.828-2.924 5.553-5.957 8.598-8.654 3.045-2.697 6.446-5.071 10.275-6.443 3.051-1.094 6.292-1.526 9.494-2.023 3.203-.497 6.435-1.079 9.377-2.438 4.604-2.126 8.154-5.99 11.324-9.949a123.72 123.72 0 0 0 9.951-14.412l-7.549-7.549-4.117-4.117c-2.703 3.285-6.854 5.443-10.98 5.832-5.01.472-10.267-1.614-14.412-4.461-3.961-2.72-7.394-6.767-8.922-11.322-1.35-4.03-.726-8.607.258-12.738.995-4.181 3.228-8.03 5.576-11.625 8.06-12.365 17.511-24.04 28.822-33.625m24.869 76.2a12.346 12.346 0 0 0-4.967 1c-1.823.795-3.43 2.044-4.746 3.535-1.316 1.491-2.346 3.222-3.146 5.04-2.333 5.309-2.739 11.366-5.49 16.471-2.826 5.243-7.905 8.981-13.381 11.322-6.163 2.635-12.958 3.711-18.873 6.863a29.93 29.93 0 0 0-8.578 6.861 22.576 22.576 0 0 0 12.09 6.922c2.979.616 6.04.618 9.07.893 3.03.274 6.122.854 8.693 2.48 1.514.958 2.788 2.241 4.068 3.494 1.28 1.254 2.597 2.504 4.166 3.369 1.167.644 2.505 1.067 3.828.902a4.021 4.021 0 0 0 1.85-.705 3.232 3.232 0 0 0 1.186-1.57c.259-.772.182-1.63-.098-2.395-.28-.764-.751-1.444-1.275-2.066-2.146-2.546-5.18-4.17-8.236-5.49a63.332 63.332 0 0 0-10.293-3.432 23.733 23.733 0 0 1 13.04 1.717c4.394 1.928 8.129 5.183 11.05 8.99 2.922 3.807 5.065 8.159 6.791 12.637 5 12.974 6.558 26.982 7.893 40.822.705 7.312 1.355 14.739 0 21.959-1.795 9.562-7.01 18.16-13.11 25.746-11.777 14.653-26.922 26.14-41.45 38.08-5.523 4.537-11 9.18-15.713 14.555-4.712 5.374-8.661 11.539-10.709 18.387-1.523 5.094-1.966 10.499-1.373 15.783.26 2.318.727 4.643 1.75 6.738 1.023 2.096 2.648 3.958 4.77 4.928 1.445.66 3.067.885 4.652.779 1.585-.106 3.138-.532 4.613-1.121 5.494-2.194 9.845-6.545 15.1-9.266 6.485-3.358 13.982-4.064 21.273-4.461a322.39 322.39 0 0 1 26.764-.342 237.313 237.313 0 0 0-7.205 48.381 90.123 90.123 0 0 0-18.529 16.13c-4.656 5.331-8.709 11.266-11.322 17.844-2.585 6.507-3.718 13.652-2.746 20.586a35.263 35.263 0 0 0 2.059 7.893c2.914 1.262 6.351 1.262 9.266 0 3.067-1.328 5.467-3.925 8.578-5.146a10.916 10.916 0 0 1 7.891 0 125.956 125.956 0 0 1 8.236-36.37c2.737-7.02 6.181-13.911 11.352-19.396 3.82-4.052 8.462-7.217 12.83-10.67 4.368-3.453 8.582-7.336 11.1-12.301 3.052-6.01 3.346-13.03 5.547-19.396 2.308-6.682 6.664-12.515 8.922-19.215a33.094 33.094 0 0 0 1.715-9.609 306.018 306.018 0 0 0-27.11-1.371c-8.37-.052-16.752.239-25.07 1.209-4.02.469-8.02 1.096-11.99 1.879a5.908 5.908 0 0 1-1.717-2.402c-.667-1.737-.473-3.691 0-5.49.805-3.067 2.377-5.887 4.229-8.461 1.852-2.574 3.991-4.925 6.07-7.322 6.108-7.05 11.716-14.549 18.19-21.273.91-.946 1.842-1.882 2.914-2.639 1.073-.757 2.301-1.333 3.605-1.48 1.506-.171 3.01.234 4.461.688 1.197.376 2.397.791 3.646.902.625.056 1.26.035 1.871-.105a4.182 4.182 0 0 0 1.688-.797c.85-.687 1.341-1.719 1.715-2.746 1.092-3 1.407-6.23 2.402-9.264.826-2.516 2.126-4.887 3.889-6.863 3.527-3.954 8.597-6.077 13.268-8.578 6-3.213 11.609-7.26 16.13-12.352a46.483 46.483 0 0 0 10.295-19.559 76.768 76.768 0 0 1-15.1 14.41 77.07 77.07 0 0 1-29.854 13.04 157.425 157.425 0 0 0-1.715-32.25c-3.632-23.1-12.344-45.05-18.529-67.6-1.443-5.262-2.758-10.771-1.715-16.13 1.136-5.837 4.919-10.754 8.578-15.441 2.407-3.084 4.808-6.171 7.205-9.264a38.157 38.157 0 0 0-14.25-1.268 13.753 13.753 0 0 0-7.02-6.625 13.16 13.16 0 0 0-4.984-1m-104.34 129a8.978 8.978 0 0 0-2.109.152c-1.651.326-3.166 1.169-4.477 2.225-1.311 1.055-2.436 2.321-3.531 3.598-6.137 7.153-11.644 14.989-15.04 23.779-3.267 8.449-4.504 17.696-3.396 26.688a53.22 53.22 0 0 0 .484 3.154 454.441 454.441 0 0 0 39.546.244c.37 1.974.452 4 .238 6-.649 6.072-3.95 11.547-7.76 16.32-5.534 6.933-12.253 12.81-18.439 19.17-4.322 4.442-8.393 9.13-12.13 14.07-3.615 4.78-6.94 9.82-11.162 14.07-1.024 1.031-2.099 2.02-3.057 3.109-.957 1.094-1.802 2.313-2.281 3.686-.837 2.396-.499 5.03 0 7.521.26 1.296.59 2.641 1.457 3.639.835.961 2.124 1.492 3.396 1.457.935-.025 1.844-.337 2.682-.754.838-.417 1.616-.941 2.414-1.43 3.486-2.137 7.341-3.6 10.918-5.582 4.705-2.607 8.952-6.169 11.889-10.676 1.344-2.063 2.401-4.299 3.396-6.551 1.865-4.218 3.533-8.52 5.096-12.859 2.325-6.457 4.446-13.06 8.01-18.924 3.937-6.489 9.474-11.821 14.801-17.227a412.977 412.977 0 0 0 9.705-10.191 30.36 30.36 0 0 1-2.426-11.646c-.021-2.755.334-5.497.484-8.248.111-2.02.111-4.047 0-6.07a40.511 40.511 0 0 1 12.836-2.977 38.37 38.37 0 0 1 9.486.551c3.641.679 7.214 1.915 10.918 1.939a16.86 16.86 0 0 0 4.125-.484 62.658 62.658 0 0 0 11.405-16.984 32.122 32.122 0 0 1-7.279 2.184c-6.115 1.067-12.429.334-18.439-1.213-10.41-2.679-20.03-7.727-29.602-12.617-5.254-2.684-10.534-5.336-16.01-7.521-1.316-.525-2.647-1.024-4.03-1.326-.692-.151-1.4-.252-2.107-.281m-1.223 7.496c.196-.011.392-.009.588.006.785.059 1.571.351 2.131.904.289.286.513.64.621 1.031.108.391.094.82-.066 1.193a2.038 2.038 0 0 1-.637.787 4.197 4.197 0 0 1-.887.504c-.624.276-1.294.49-1.813.934-.638.546-.969 1.38-1.088 2.211-.119.831-.051 1.676-.025 2.516.034 1.126 0 2.262-.254 3.361-.244 1.1-.697 2.167-1.414 3.035-.471.57-1.058 1.053-1.73 1.359-.673.306-1.435.433-2.164.311-.818-.137-1.568-.582-2.137-1.186-.568-.603-.959-1.359-1.199-2.152-.345-1.141-.383-2.362-.207-3.541.176-1.179.559-2.321 1.041-3.412.736-1.667 1.71-3.241 2.969-4.559s2.809-2.375 4.539-2.949a6.686 6.686 0 0 1 1.732-.354m137.46 106.27c.257.002.512.04.756.119.629.205 1.152.674 1.504 1.234.352.561.542 1.211.641 1.865.292 1.934-.441 3.853-.949 5.717-.873 3.204-2.22 6.268-3.578 9.299-1.278 2.853-2.416 5.838-4.291 8.34-2.628 3.508-5.571 7.04-9.533 9.06 2.542-4.483 4.851-9.1 6.912-13.822 1.998-4.58 3.782-9.33 4.291-14.301.122-1.194.169-2.4.441-3.568.272-1.169.795-2.321 1.703-3.105a3.46 3.46 0 0 1 1.34-.734c.248-.068.507-.101.764-.1" transform="matrix(.81385 0 0 .81385 5 5)" fill="red" style="fill:#da251d;fill-opacity:1"/></g><path style="fill:none;stroke:#000;stroke-width:10.9997;stroke-linecap:butt;stroke-linejoin:miter;stroke-miterlimit:4;stroke-dasharray:none" d="M223.31 788.601V62.361m-289.42-.001V530.2C-48.241 677.62 77.3 788.571 223.31 788.6c146.04.029 271.54-110.94 289.42-258.4V62.36z" transform="matrix(.81385 0 0 .81385 63.28 -41.275)"/></svg>