<svg xmlns="http://www.w3.org/2000/svg" width="748.09" height="791.22" viewBox="0 0 701.334 741.769"><path style="fill:#fff;fill-rule:evenodd;stroke:none;stroke-width:11;stroke-opacity:1" d="m21.698 82.978 13.398 416.624c7.415 175.25 153.92 314.046 331.589 314.144 177.51-.214 324.07-139.06 331.59-314.144l13.397-416.624H366.693z" transform="translate(-16.018 -77.478)"/><path style="opacity:1;fill:#03f;fill-opacity:1;fill-rule:nonzero;stroke:#000;stroke-width:11;stroke-linecap:round;stroke-linejoin:round;stroke-miterlimit:4;stroke-dasharray:none;stroke-dashoffset:0;stroke-opacity:1" d="M350.666 5.5v730.77c177.51-.215 324.07-139.062 331.59-314.145L695.654 5.5H350.666z"/><path style="fill:gold;fill-rule:evenodd;stroke:#000;stroke-width:8;stroke-linecap:butt;stroke-linejoin:round;stroke-opacity:1;stroke-miterlimit:4;stroke-dasharray:none;fill-opacity:1" d="M525.04 215.497c-2.94.27-5.712 1.943-7.266 4.391-.625.984-1.059 2.078-1.73 3.033-.334.478-.731.92-1.209 1.264-.478.343-1.042.585-1.633.639-.76.068-1.527-.18-2.16-.596-.632-.416-1.137-.993-1.558-1.613-.841-1.242-1.366-2.68-2.322-3.84a6.772 6.772 0 0 0-2.778-1.996 6.94 6.94 0 0 0-3.428-.393c.341 1.92.112 3.933-.653 5.733a10.368 10.368 0 0 1-2.286 3.341 30.113 30.113 0 0 1-3.1-2.865 29.756 29.756 0 0 1-3.757-4.935 15.401 15.401 0 0 0-6.042 4.935 14.876 14.876 0 0 0-2.612 6.21 8.698 8.698 0 0 1-3.323-3.464 8.42 8.42 0 0 1-.922-4.656 8.485 8.485 0 0 1 1.797-4.457c-1.68.146-3.32.698-4.736 1.592-1.752 1.107-3.12 2.697-4.409 4.299a103.781 103.781 0 0 0-4.407 5.888c-2.09-2.827-5.014-5.061-8.328-6.367-3.034-1.196-6.379-1.613-9.633-1.273-3.572.372-7.024 1.632-10.614 1.752-1.911.063-3.875-.217-5.551-1.116-.893-.479-1.683-1.12-2.51-1.7-.827-.582-1.72-1.113-2.717-1.325a5.02 5.02 0 0 0-2.436.105c-.787.23-1.517.64-2.135 1.168a6.289 6.289 0 0 0-1.809 2.602 6.354 6.354 0 0 0-.312 3.13c.167 1.107.619 2.15 1.113 3.159.495 1.009 1.038 2 1.403 3.06.673 1.959.71 4.088.35 6.124-.36 2.035-1.104 3.987-1.973 5.87-1.738 3.768-4.002 7.373-4.844 11.42-.718 3.454-.35 7.06.595 10.462.944 3.401 2.448 6.628 4.023 9.8a219.582 219.582 0 0 0 6.004 11.258 19.346 19.346 0 0 0-2.771 3.15c-1.867 2.66-3.021 5.745-3.746 8.89-.725 3.143-1.036 6.362-1.334 9.571-1.085 11.679-2.113 23.683-7.388 34.221a46.987 46.987 0 0 1-9.238 12.608 21.239 21.239 0 0 0 8.314-2.702 20.764 20.764 0 0 0 4.157-3.152 76.915 76.915 0 0 1 0 9.455c-.466 7.56-2.066 15.083-5.08 22.063a58.288 58.288 0 0 1-9.7 15.31 47.9 47.9 0 0 0 14.317-4.053 47.085 47.085 0 0 0 10.621-6.753 314.489 314.489 0 0 1-5.08 25.664 315.617 315.617 0 0 1-9.698 32.42 31.268 31.268 0 0 0 9.237-4.053 30.57 30.57 0 0 0 7.389-6.754 65.893 65.893 0 0 1 0 8.555c-.418 6.418-1.776 12.756-3.695 18.91-4.068 13.052-10.686 25.344-19.395 36.021a145.34 145.34 0 0 0 32.327-9.004c22.799-9.31 43.466-25.042 54.957-46.379a82.742 82.742 0 0 0 9.236-28.816c2.276.46 4.65.46 6.927 0 3.53-.713 6.74-2.495 9.7-4.502 2.786-1.889 5.415-4 7.85-6.305a62.288 62.288 0 0 0 7.852 6.305c2.96 2.007 6.167 3.789 9.697 4.502 2.277.46 4.65.46 6.928 0a82.745 82.745 0 0 0 9.237 28.816c11.491 21.337 32.157 37.069 54.956 46.38a145.358 145.358 0 0 0 32.329 9.003c-8.71-10.677-15.33-22.97-19.398-36.021-1.918-6.154-3.276-12.492-3.694-18.91a65.865 65.865 0 0 1 0-8.555 30.578 30.578 0 0 0 7.39 6.754 31.258 31.258 0 0 0 9.235 4.053 315.618 315.618 0 0 1-9.698-32.42 314.509 314.509 0 0 1-5.08-25.664 47.098 47.098 0 0 0 10.623 6.753 47.888 47.888 0 0 0 14.316 4.053 58.281 58.281 0 0 1-9.698-15.31c-3.015-6.98-4.615-14.503-5.08-22.063a76.923 76.923 0 0 1 0-9.455 20.763 20.763 0 0 0 4.156 3.152 21.23 21.23 0 0 0 8.312 2.702 46.978 46.978 0 0 1-9.235-12.608c-5.276-10.538-6.305-22.542-7.39-34.22-.299-3.21-.608-6.429-1.333-9.573-.724-3.144-1.88-6.23-3.748-8.889a19.35 19.35 0 0 0-2.77-3.15c2.11-3.695 4.113-7.45 6.004-11.258 1.575-3.172 3.08-6.399 4.024-9.8.944-3.402 1.311-7.008.593-10.461-.841-4.048-3.104-7.653-4.842-11.42-.868-1.884-1.615-3.836-1.975-5.871-.36-2.036-.32-4.165.353-6.123.364-1.06.906-2.052 1.4-3.061.494-1.009.948-2.052 1.116-3.158a6.354 6.354 0 0 0-.313-3.131 6.293 6.293 0 0 0-1.81-2.602 5.812 5.812 0 0 0-2.134-1.168 5.028 5.028 0 0 0-2.438-.105c-.996.212-1.89.743-2.717 1.324-.827.58-1.615 1.222-2.508 1.701-1.675.899-3.64 1.179-5.55 1.116-3.591-.12-7.042-1.38-10.614-1.752-3.255-.34-6.6.077-9.634 1.273-3.314 1.306-6.237 3.54-8.328 6.367a103.814 103.814 0 0 0-4.409-5.888c-1.29-1.602-2.655-3.192-4.407-4.3a10.642 10.642 0 0 0-4.736-1.591 8.485 8.485 0 0 1 1.797 4.457 8.419 8.419 0 0 1-.921 4.656 8.703 8.703 0 0 1-3.326 3.463 14.875 14.875 0 0 0-2.612-6.209 15.394 15.394 0 0 0-6.04-4.935 29.756 29.756 0 0 1-3.756 4.935 30.135 30.135 0 0 1-3.103 2.865 10.368 10.368 0 0 1-2.286-3.341 10.187 10.187 0 0 1-.653-5.733 6.931 6.931 0 0 0-3.425.393 6.771 6.771 0 0 0-2.78 1.996c-.955 1.16-1.48 2.598-2.32 3.84-.422.62-.93 1.197-1.562 1.613-.632.416-1.4.664-2.16.596-.59-.054-1.154-.296-1.632-.64-.477-.343-.872-.785-1.208-1.263-.67-.955-1.106-2.049-1.73-3.033-1.555-2.448-4.324-4.121-7.264-4.39z" transform="translate(-16.018 -77.478)"/><path style="opacity:1;fill:red;fill-opacity:1;fill-rule:nonzero;stroke:#000;stroke-width:11.00000095;stroke-linecap:round;stroke-linejoin:round;stroke-miterlimit:4;stroke-dasharray:none;stroke-dashoffset:0;stroke-opacity:1" d="m5.68 5.5 4.67 145.213h340.316V5.5H5.68zm9.375 291.502 4.023 125.123a326.56 326.56 0 0 0 1.588 21.166h330V297.002H15.055zM74.199 589.58c56.805 84.297 151.957 141.047 260.22 146.29h16.247V589.58H74.199zm362.094 135.494-.455.12.455-.12zm-15.89 3.8a333.735 333.735 0 0 1 0 0zm-6.563 1.337c-.735.141-1.473.273-2.21.41.737-.137 1.475-.268 2.21-.41zm-9.317 1.65c-1.08.177-2.16.356-3.244.522 1.084-.166 2.164-.345 3.244-.522zm-6.855 1.051a334.823 334.823 0 0 1 0 0zm-6.94.922a335.446 335.446 0 0 1 0 0zm-8.984.953a336.216 336.216 0 0 1 0 0zm-8.828.719-.457.031.457-.031z"/><path d="m21.698 82.978 13.398 416.624c7.415 175.25 153.92 314.046 331.589 314.144 177.51-.214 324.07-139.06 331.59-314.144l13.397-416.624H366.693z" style="fill:none;fill-rule:evenodd;stroke:#000;stroke-width:11;stroke-opacity:1" transform="translate(-16.018 -77.478)"/><path style="opacity:1;fill:gold;fill-opacity:1;fill-rule:nonzero;stroke:#000;stroke-width:11;stroke-linecap:round;stroke-linejoin:round;stroke-miterlimit:4;stroke-dasharray:none;stroke-dashoffset:0;stroke-opacity:1" d="M476.861 422.306h0L366.684 532.485v96.357L525.04 470.485l13.144 13.144L671 616.446a322.268 322.268 0 0 0 22.525-73.832L586.362 435.45l-13.145-13.145-4.767-4.767-43.411-43.411-43.387 43.386-4.792 4.792z" transform="translate(-16.018 -77.478)"/><path style="fill:none;fill-rule:evenodd;stroke:none;stroke-width:1px;stroke-linecap:butt;stroke-linejoin:miter;stroke-opacity:1" d="m469.774 408 9.017 8.695 18.678 3.543 18.679-5.153 8.05-8.051 11.272 7.085 14.492 5.153c5.12.896 10.431.675 15.458-.645a36.329 36.329 0 0 0 10.305-4.508l8.051-16.746-.322-9.34a393.335 393.335 0 0 0-15.136-16.746c-9.212-9.622-19.43-19.084-32.204-22.865-11-3.255-22.781-1.957-34.136-.322-7.687 1.107-15.57 2.432-22.22 6.441-5.853 3.527-10.458 9.07-12.883 15.458-1.974 5.203-2.514 10.865-2.254 16.424A59.648 59.648 0 0 0 469.774 408z" transform="translate(-16.018 -77.478)"/><path style="fill:#000;fill-rule:evenodd;stroke:none;stroke-width:1px;stroke-linecap:butt;stroke-linejoin:round;stroke-opacity:1" d="M423.979 155.682c-2.029-.042-4.073.297-6.084.632l-3.377.563c.005 1.399.155 2.798.449 4.166.578 2.69 1.706 5.26 2.025 7.992.32 2.739-.19 5.501-.803 8.19-.613 2.688-1.335 5.375-1.447 8.13-.069 1.707.1 3.434.606 5.065.505 1.631 1.356 3.168 2.547 4.393a9.61 9.61 0 0 0 4.05 2.476 459.91 459.91 0 0 1-2.25-4.504c-.813-1.648-1.629-3.347-1.8-5.178a7.757 7.757 0 0 1 1.236-4.953c.106 1.202.413 2.387.902 3.49.702 1.582 1.775 2.984 3.04 4.165.602.562 1.255 1.082 1.995 1.445.74.363 1.574.563 2.393.469.85-.098 1.648-.513 2.266-1.104.617-.591 1.061-1.35 1.337-2.16a6.56 6.56 0 0 0 .225-3.377 4.525 4.525 0 0 0 3.602 1.238c1.262-.14 2.455-.853 3.152-1.914.479-.729.721-1.597.785-2.467.064-.87-.044-1.745-.223-2.6-.543-2.595-1.764-5.064-3.601-6.978-2.083-2.169-4.843-3.542-7.205-5.402a21.596 21.596 0 0 1-3.602-3.604c1.961.576 3.88 1.291 5.74 2.14.81.369 1.612.764 2.366 1.237 2.694 1.692 4.706 4.32 7.427 5.967a12.597 12.597 0 0 0 4.729 1.69 10.919 10.919 0 0 1-2.59-4.842c-.269-1.12-.356-2.273-.547-3.408-.19-1.136-.495-2.28-1.14-3.233-.526-.776-1.258-1.393-2.043-1.904-.786-.511-1.63-.923-2.46-1.36-3.138-1.65-6.184-3.695-9.68-4.279a13.957 13.957 0 0 0-2.02-.181zm170.085 0c-.676.013-1.35.07-2.021.181-3.497.585-6.541 2.63-9.68 4.28-.83.436-1.675.848-2.46 1.359-.786.511-1.518 1.128-2.044 1.904-.645.954-.95 2.097-1.14 3.233-.19 1.135-.278 2.288-.547 3.408a10.919 10.919 0 0 1-2.59 4.842 12.597 12.597 0 0 0 4.729-1.69c2.72-1.647 4.735-4.275 7.43-5.967.753-.473 1.553-.868 2.363-1.238a43.033 43.033 0 0 1 5.74-2.139 21.596 21.596 0 0 1-3.602 3.604c-2.362 1.86-5.122 3.233-7.205 5.402-1.837 1.914-3.058 4.383-3.601 6.979-.18.854-.287 1.73-.223 2.6.064.87.306 1.737.785 2.466.697 1.061 1.89 1.775 3.152 1.914a4.525 4.525 0 0 0 3.602-1.238 6.56 6.56 0 0 0 .225 3.377c.276.81.72 1.569 1.337 2.16.618.591 1.417 1.006 2.266 1.104.819.094 1.652-.106 2.393-.47.74-.362 1.393-.882 1.996-1.444 1.264-1.181 2.34-2.583 3.04-4.164.49-1.104.795-2.289.901-3.49a7.758 7.758 0 0 1 1.238 4.952c-.171 1.83-.99 3.53-1.802 5.178a459.91 459.91 0 0 1-2.25 4.504 9.617 9.617 0 0 0 4.052-2.476c1.191-1.225 2.04-2.762 2.545-4.393.506-1.631.675-3.358.606-5.065-.112-2.755-.834-5.442-1.447-8.13-.614-2.689-1.123-5.451-.803-8.19.319-2.733 1.447-5.302 2.025-7.992a20.17 20.17 0 0 0 .451-4.166 5352.19 5352.19 0 0 1-3.377-.563c-2.01-.335-4.056-.674-6.084-.632zM493.14 200.658a5.04 5.04 0 0 0-1.418.133c-.925.216-1.785.64-2.627 1.078-2.32 1.205-4.598 2.534-7.084 3.344-3.213 1.046-6.654 1.181-10.03 1.033-6.681-.293-13.477-1.651-19.978-.078-3.73.903-7.302 2.84-9.63 5.889-1.95 2.551-2.936 5.785-2.946 8.996 0 1.832.309 3.687 1.115 5.332a9.504 9.504 0 0 0 3.422 3.82 4.916 4.916 0 0 0-.477-1.91c-.21-.437-.483-.843-.662-1.293a2.379 2.379 0 0 1-.172-.703c-.017-.242.017-.49.118-.711.141-.314.417-.562.742-.678a1.377 1.377 0 0 1 1.008.041c.415.184.716.556.986.922s.536.752.924.99a1.646 1.646 0 0 0 1.832-.08 7.056 7.056 0 0 1-2.742-2.219 7.061 7.061 0 0 1-1.319-3.273c-.276-2.134.464-4.325 1.752-6.049a10.485 10.485 0 0 1 5.65-3.822c-.83.998-1.679 1.98-2.546 2.945-.266.296-.535.593-.737.936-.201.342-.333.739-.297 1.135.022.242.107.476.235.683.128.207.298.385.492.531.389.292.863.45 1.342.536 1.056.19 2.148.045 3.183-.239 1.964-.539 3.756-1.566 5.653-2.308 4.34-1.698 9.11-1.86 13.77-1.83 3.98.025 8.039.167 11.859-.955 3.314-.975 6.292-2.862 8.994-5.014.69-.55 1.372-1.126 1.892-1.838.52-.712.87-1.581.815-2.461a3.004 3.004 0 0 0-.53-1.512 3.142 3.142 0 0 0-1.222-1.035 3.623 3.623 0 0 0-1.367-.336zm31.765 0c-.474.027-.939.131-1.367.336a3.142 3.142 0 0 0-1.223 1.035 3.004 3.004 0 0 0-.529 1.512c-.056.88.295 1.749.815 2.46.52.713 1.203 1.29 1.892 1.839 2.702 2.152 5.68 4.04 8.994 5.014 3.82 1.122 7.878.98 11.86.955 4.66-.03 9.43.132 13.77 1.83 1.896.742 3.688 1.769 5.652 2.308 1.034.284 2.127.428 3.183.239.479-.086.953-.244 1.342-.536.194-.146.364-.324.492-.53.128-.208.213-.442.235-.684.036-.396-.096-.793-.297-1.135-.202-.343-.47-.64-.737-.936a101.097 101.097 0 0 1-2.547-2.945 10.484 10.484 0 0 1 5.65 3.822c1.29 1.724 2.029 3.915 1.753 6.049a7.061 7.061 0 0 1-1.319 3.273 7.056 7.056 0 0 1-2.742 2.22 1.646 1.646 0 0 0 1.832.08c.387-.239.654-.625.924-.99.27-.367.57-.739.986-.923.316-.14.684-.156 1.008-.04.325.115.6.363.742.677.1.22.135.47.118.71a2.378 2.378 0 0 1-.172.704c-.179.45-.453.856-.662 1.293a4.916 4.916 0 0 0-.477 1.91 9.504 9.504 0 0 0 3.422-3.82c.806-1.645 1.115-3.5 1.115-5.332-.01-3.211-.996-6.445-2.945-8.996-2.33-3.05-5.901-4.986-9.631-5.889-6.5-1.573-13.297-.215-19.979.078-3.375.148-6.816.013-10.029-1.033-2.486-.81-4.763-2.14-7.084-3.344-.842-.437-1.702-.862-2.627-1.078a5.04 5.04 0 0 0-1.418-.133zm-39.242 18.62a6.44 6.44 0 0 0-.627.023c-2.134.184-4.075 1.406-6.209 1.592-1.213.105-2.43-.132-3.61-.434-1.18-.302-2.348-.67-3.554-.84-3.109-.436-6.272.494-9.074 1.91-.678.343-1.343.715-2.059.97-.716.253-1.495.383-2.238.224-.724-.156-1.36-.57-1.982-.973-.622-.402-1.27-.808-1.998-.938-.658-.116-1.333.001-1.99.12-.658.117-1.333.237-1.99.12a2.875 2.875 0 0 1-1.67-.956 3.218 3.218 0 0 0-.638 2.861 3.218 3.218 0 0 0 1.989 2.154c.655.234 1.365.247 2.056.325.346.039.692.094 1.022.203.33.109.645.273.902.507.409.373.645.907.73 1.454.087.546.032 1.107-.072 1.65-.208 1.086-.615 2.164-.498 3.264.105.979.623 1.876 1.291 2.6.668.723 1.482 1.294 2.29 1.857a528.273 528.273 0 0 0 4.855 3.343 203.476 203.476 0 0 1-2.785-6.367c-.671-1.608-1.332-3.273-1.354-5.015a6.987 6.987 0 0 1 .238-1.91c.49 1.782 1.216 3.499 2.15 5.093 1.046 1.781 2.372 3.427 4.06 4.617 2.372 1.675 5.399 2.364 8.279 1.99 2.16-.28 4.24-1.142 5.969-2.468a12.79 12.79 0 0 0 4.218-5.81c.398-1.114.657-2.307 1.354-3.262.78-1.07 2.007-1.703 3.183-2.309 1.414-.728 2.82-1.47 4.22-2.228a9.498 9.498 0 0 0-2.31-2.07c-1.238-.788-2.686-1.283-4.148-1.298zm46.717 0c-1.462.014-2.91.509-4.149 1.296a9.497 9.497 0 0 0-2.308 2.07c1.398.758 2.805 1.501 4.219 2.23 1.176.605 2.403 1.238 3.183 2.308.697.955.956 2.148 1.354 3.261a12.79 12.79 0 0 0 4.218 5.81 12.51 12.51 0 0 0 5.971 2.47c2.88.373 5.905-.316 8.278-1.99 1.687-1.191 3.013-2.837 4.058-4.618a21.138 21.138 0 0 0 2.15-5.094c.167.622.249 1.267.239 1.91-.022 1.743-.683 3.408-1.354 5.016-.892 2.138-1.82 4.261-2.785 6.367a528.273 528.273 0 0 0 4.856-3.343c.807-.563 1.62-1.134 2.289-1.858.668-.723 1.186-1.62 1.29-2.6.118-1.1-.289-2.177-.497-3.263-.104-.543-.157-1.104-.07-1.65.085-.547.321-1.08.73-1.454.257-.234.572-.398.902-.507.33-.11.676-.164 1.022-.203.69-.078 1.401-.09 2.056-.325a3.218 3.218 0 0 0 1.989-2.154 3.218 3.218 0 0 0-.637-2.861 2.875 2.875 0 0 1-1.67.957c-.658.116-1.333-.004-1.99-.121-.658-.118-1.333-.236-1.99-.12-.73.13-1.377.536-1.999.938-.621.402-1.258.817-1.982.973-.743.159-1.522.029-2.238-.225s-1.381-.626-2.059-.969c-2.802-1.416-5.965-2.346-9.074-1.91-1.206.17-2.375.538-3.555.84-1.18.302-2.396.539-3.61.434-2.134-.186-4.074-1.408-6.208-1.592a6.44 6.44 0 0 0-.627-.024h-.002zm-65.805 5.398c.39-.04.792.032 1.14.213.37.19.67.494.9.84.228.345.39.733.523 1.126.264.787.425 1.621.855 2.33.489.806 1.29 1.383 2.143 1.782.854.398 1.77.636 2.672.91 1.034.314 2.054.678 3.054 1.088a5.516 5.516 0 0 1-3.261 1.863c-1.747.297-3.528-.27-5.125-1.035-1.22-.584-2.395-1.3-3.332-2.273-.938-.975-1.625-2.23-1.74-3.577-.046-.529 0-1.07.173-1.572.175-.501.484-.961.912-1.275.316-.232.696-.381 1.086-.42zm84.895 0c.39.039.77.188 1.086.42.428.314.737.774.912 1.275.174.501.219 1.043.174 1.572-.116 1.347-.803 2.602-1.74 3.577-.938.974-2.113 1.689-3.333 2.273-1.597.765-3.378 1.332-5.125 1.035a5.516 5.516 0 0 1-3.261-1.863c1-.41 2.02-.774 3.054-1.088.902-.274 1.818-.512 2.672-.91.854-.399 1.654-.976 2.143-1.781.43-.71.59-1.544.855-2.33.133-.394.295-.782.524-1.127.23-.346.53-.65.898-.84.349-.18.75-.252 1.14-.213zm-62.405 6.4a4.38 4.38 0 0 0-1.68.326c-1.221.508-2.13 1.574-2.79 2.721-.55.957-.96 1.991-1.533 2.936-.573.944-1.346 1.82-2.373 2.226-.619.244-1.291.304-1.934.473-.322.084-.64.196-.924.367a1.94 1.94 0 0 0-.7.693 1.73 1.73 0 0 0-.214.871c.004.303.083.602.215.874.23.472.619.858 1.076 1.115.458.257.98.39 1.504.42.69.04 1.392-.097 2.014-.399a3.913 3.913 0 0 0 1.545-1.345c.412-.622.63-1.348.9-2.043.269-.696.61-1.396 1.191-1.864.357-.287.789-.472 1.23-.593.443-.122.898-.183 1.352-.245.83-.112 1.664-.23 2.461-.484.798-.254 1.564-.655 2.143-1.26a3.03 3.03 0 0 0 .545-.765c.137-.283.219-.594.222-.909.005-.482-.178-.954-.462-1.343-.284-.39-.664-.701-1.073-.957a5.273 5.273 0 0 0-2.14-.78 4.708 4.708 0 0 0-.575-.035zm3.866 6.838a3.21 3.21 0 0 0-1.848.672c-.564.443-.975 1.1-1.047 1.814-.04.396.024.793.082 1.186.059.393.114.794.059 1.187-.06.429-.248.83-.48 1.194-.234.364-.512.695-.776 1.037-.212.275-.417.56-.565.875-.147.315-.234.664-.203 1.01.034.373.212.733.494.98.283.248.668.377 1.041.344.45-.04.85-.3 1.184-.602.335-.302.625-.651.979-.931.364-.29.787-.499 1.162-.776.187-.138.362-.295.504-.48.14-.185.247-.4.287-.63.054-.312-.018-.633-.127-.93-.11-.299-.256-.582-.362-.882-.242-.687-.255-1.436-.209-2.164.062-.967.226-1.926.489-2.859a3.105 3.105 0 0 0-.664-.045zm-47.885 45.674c-.35-.008-.7.005-1.049.021-.549.027-1.1.064-1.639.176-.538.112-1.064.302-1.517.613-.537.37-.954.9-1.24 1.485-.287.585-.448 1.224-.538 1.869-.243 1.765.047 3.553.198 5.328.094 1.111.133 2.232.004 3.34-.13 1.108-.434 2.206-.99 3.172-.633 1.096-1.563 1.982-2.368 2.959a15.36 15.36 0 0 0-3.156 6.512c-.5 2.33-.44 4.76 0 7.103a22.349 22.349 0 0 0 2.762 7.299 52.49 52.49 0 0 0 .986-6.904c.095-1.255.144-2.518.346-3.76.201-1.243.562-2.476 1.232-3.541.488-.777 1.127-1.445 1.742-2.125.616-.68 1.22-1.389 1.614-2.217.573-1.206.68-2.611 1.38-3.748.37-.6.888-1.095 1.442-1.53.554-.434 1.148-.816 1.715-1.234 1.332-.981 2.541-2.212 3.158-3.748.448-1.114.563-2.34.504-3.539-.059-1.2-.286-2.383-.504-3.564-.098-.531-.196-1.064-.371-1.575-.175-.51-.433-1.002-.815-1.384-.493-.495-1.168-.78-1.855-.909a6.434 6.434 0 0 0-1.041-.1z"/><path style="fill:#000;fill-rule:evenodd;stroke:#000;stroke-width:1px;stroke-linecap:butt;stroke-linejoin:miter;stroke-opacity:1" d="M507.908 147.195a13.394 13.394 0 0 0 .297 4.342c.249 1.054.633 2.092 1.281 2.96.796 1.063 1.972 1.826 3.256 2.169a6.423 6.423 0 0 0 4.145-.295 15.986 15.986 0 0 1-4.045-2.467c-1.346-1.125-2.502-2.473-3.453-3.947a19.324 19.324 0 0 1-1.48-2.762zm-18.824 3.272a7.176 7.176 0 0 0-.098 3.55c.302 1.326.972 2.532 1.578 3.749.494.99.96 2.054.887 3.158a3.413 3.413 0 0 1-.986 2.17 2.61 2.61 0 0 0 1.38-.69c.388-.373.653-.86.817-1.373.164-.512.232-1.051.27-1.588.116-1.67-.07-3.376-.692-4.931a9.253 9.253 0 0 0-3.156-4.045zm40.87.308a9.464 9.464 0 0 1-2.368 1.678c-.37.184-.755.346-1.086.592a2.61 2.61 0 0 0-1.004 1.656 2.676 2.676 0 0 0 .412 1.895c.305.457.744.811 1.211 1.1.468.288.968.517 1.453.775a13.8 13.8 0 0 1 2.467 1.677c.034-.887.034-1.776 0-2.664-.05-1.289-.17-2.577-.394-3.847a23.795 23.795 0 0 0-.692-2.862zm-55.829.83a6.422 6.422 0 0 0 0 3.649c.35 1.172 1.028 2.219 1.48 3.355a9.308 9.308 0 0 1 .592 4.537 5.146 5.146 0 0 0 1.084-4.537c-.293-1.174-.99-2.197-1.578-3.255a18.85 18.85 0 0 1-1.578-3.749zm69.342.622c-.43.701-.927 1.362-1.48 1.972-.406.447-.84.867-1.21 1.344-.369.477-.672 1.021-.763 1.617-.082.535.013 1.085.191 1.596.178.51.438.988.697 1.463.382.699.77 1.403.987 2.17.32 1.13.25 2.367-.198 3.453a7.99 7.99 0 0 0 2.27-3.256c.513-1.377.634-2.873.592-4.342a20.52 20.52 0 0 0-1.086-6.017zm-86.82.22a32.198 32.198 0 0 1 .097 10.852 10.35 10.35 0 0 0 1.086-1.084 8.392 8.392 0 0 0 1.38-2.172c.515-1.208.68-2.592.298-3.848-.206-.679-.564-1.303-.987-1.873a9.054 9.054 0 0 0-1.875-1.875zm103.341.676c.007 1.02.007 2.04 0 3.059-.009 1.223-.03 2.456-.297 3.65a9.022 9.022 0 0 1-1.38 3.156 5.1 5.1 0 0 0 3.156-3.55c.316-1.337.07-2.752-.395-4.045a12.434 12.434 0 0 0-1.084-2.27zm-138.445 57.488a17.848 17.848 0 0 0-7.395 8.233c-1.188 2.705-1.679 5.656-2.214 8.562-.536 2.907-1.143 5.85-2.53 8.46a15.47 15.47 0 0 1-3.906 4.743 13.234 13.234 0 0 0 6.559-5.441c1.372-2.252 2.032-4.862 2.507-7.455.476-2.594.786-5.227 1.538-7.754a23.042 23.042 0 0 1 5.441-9.348zm174.955 0a23.042 23.042 0 0 1 5.441 9.348c.752 2.527 1.062 5.16 1.538 7.754.475 2.593 1.135 5.203 2.507 7.455a13.234 13.234 0 0 0 6.559 5.441 15.47 15.47 0 0 1-3.906-4.744c-1.387-2.61-1.994-5.552-2.53-8.459-.535-2.906-1.026-5.857-2.214-8.562a17.848 17.848 0 0 0-7.395-8.233zm-173.039 8.022a13.128 13.128 0 0 0-5.387 6.047c-.868 1.988-1.226 4.154-1.615 6.289-.39 2.134-.83 4.298-1.842 6.217a11.392 11.392 0 0 1-2.847 3.484 9.729 9.729 0 0 0 4.779-3.998c1.004-1.655 1.487-3.572 1.832-5.477.345-1.905.568-3.838 1.115-5.695a16.968 16.968 0 0 1 3.965-6.867zm171.123 0a16.968 16.968 0 0 1 3.965 6.867c.547 1.857.77 3.79 1.115 5.695.346 1.905.828 3.822 1.832 5.477a9.729 9.729 0 0 0 4.78 3.998 11.392 11.392 0 0 1-2.848-3.484c-1.013-1.92-1.453-4.083-1.842-6.217-.39-2.135-.747-4.301-1.615-6.29a13.128 13.128 0 0 0-5.387-6.046zm-66.326 10.51v.002c-.026.188-.004.383.062.562.126.34.401.602.686.826.285.225.592.429.824.707.175.21.306.46.524.625.048.037.1.07.158.088a.31.31 0 0 0 .18.006.286.286 0 0 0 .171-.15.39.39 0 0 0 .03-.23.595.595 0 0 0-.086-.218 1.324 1.324 0 0 0-.145-.185 6.698 6.698 0 0 0-.678-.625 83.842 83.842 0 0 0-1.726-1.408zm-1.084 4.203a3.41 3.41 0 0 0 .182 1.636c.37.997 1.18 1.762 2.021 2.413.84.65 1.75 1.238 2.438 2.048.517.61.906 1.34 1.544 1.819.144.108.3.203.471.258.171.054.36.067.531.015a.834.834 0 0 0 .496-.44c.1-.204.121-.443.084-.667a1.732 1.732 0 0 0-.25-.631 3.82 3.82 0 0 0-.421-.537c-.607-.669-1.305-1.247-2.002-1.82a301.275 301.275 0 0 0-5.094-4.094zm.1 7.004a3.418 3.418 0 0 0 .181 1.638c.37.997 1.181 1.76 2.022 2.41.84.651 1.747 1.239 2.435 2.05.517.608.908 1.34 1.547 1.82.144.107.3.2.47.255.172.055.358.07.53.018a.837.837 0 0 0 .496-.441c.1-.206.123-.444.086-.668a1.736 1.736 0 0 0-.252-.631 3.79 3.79 0 0 0-.42-.535c-.606-.669-1.304-1.248-2.002-1.82a301.349 301.349 0 0 0-5.094-4.096zm-116.612 4.584a27.634 27.634 0 0 1-2.789 9.209c-1.486 2.928-3.484 5.565-5.582 8.091a110.043 110.043 0 0 1-4.045 4.604 26.527 26.527 0 0 0 5.3-3.627c2.872-2.526 5.207-5.721 6.419-9.348a18.58 18.58 0 0 0 .697-8.93zm196.72 0a18.58 18.58 0 0 0 .698 8.93c1.212 3.626 3.547 6.821 6.418 9.347a26.527 26.527 0 0 0 5.3 3.627 110.036 110.036 0 0 1-4.044-4.604c-2.098-2.526-4.096-5.163-5.582-8.091a27.634 27.634 0 0 1-2.79-9.21zm-76.923 3.06a3.7 3.7 0 0 0 .197 1.776c.402 1.08 1.282 1.91 2.194 2.615.911.705 1.894 1.34 2.64 2.219.561.66.985 1.452 1.678 1.972.156.117.324.22.51.28a.98.98 0 0 0 .576.017.906.906 0 0 0 .537-.478c.107-.223.132-.48.092-.723a1.878 1.878 0 0 0-.272-.684c-.13-.21-.29-.399-.457-.582-.658-.724-1.413-1.351-2.17-1.972-1.825-1.5-3.668-2.98-5.525-4.44zm-110.727.986a22.344 22.344 0 0 0-10.744 9.627c-2.268 4.07-3.2 8.749-5.162 12.975a28.92 28.92 0 0 1-3.627 5.86 18.732 18.732 0 0 0 5.301-5.72c2.34-3.93 3.164-8.58 5.162-12.697a24.45 24.45 0 0 1 9.07-10.045zm178.58 0a24.45 24.45 0 0 1 9.07 10.045c2 4.116 2.822 8.766 5.163 12.698a18.732 18.732 0 0 0 5.3 5.718 28.92 28.92 0 0 1-3.626-5.859c-1.963-4.226-2.894-8.904-5.162-12.975a22.344 22.344 0 0 0-10.744-9.627zm-67.255 5.165a3.418 3.418 0 0 0 .181 1.638c.37.997 1.181 1.761 2.022 2.412.84.651 1.747 1.237 2.435 2.047.517.609.909 1.34 1.547 1.82.144.108.3.202.47.256.172.055.36.07.532.018a.837.837 0 0 0 .496-.441 1.12 1.12 0 0 0 .084-.666 1.732 1.732 0 0 0-.25-.631 3.82 3.82 0 0 0-.422-.537c-.606-.669-1.304-1.248-2.002-1.82a301.349 301.349 0 0 0-5.093-4.096zm1.218 5.757c-.062.465-.01.945.153 1.385.312.842.997 1.487 1.707 2.037.71.55 1.474 1.046 2.054 1.73.437.515.768 1.134 1.307 1.54.121.09.252.17.397.217a.759.759 0 0 0 .447.013.705.705 0 0 0 .42-.37.953.953 0 0 0 .072-.565 1.467 1.467 0 0 0-.213-.534 3.217 3.217 0 0 0-.355-.453c-.513-.564-1.101-1.054-1.69-1.539a249.092 249.092 0 0 0-4.299-3.46zm-116.59 4.006a18.078 18.078 0 0 0-6.835 6c-3.032 4.48-3.883 10.032-4.885 15.348-.542 2.873-1.151 5.741-2.092 8.51a37.27 37.27 0 0 1-5.441 10.326 14.433 14.433 0 0 0 6.556-5.303c1.357-2.016 2.18-4.345 2.791-6.697 1.77-6.807 1.91-14.074 4.744-20.51a26.295 26.295 0 0 1 5.163-7.674zm186.674 0a26.295 26.295 0 0 1 5.163 7.674c2.835 6.436 2.974 13.703 4.744 20.51.611 2.352 1.434 4.68 2.79 6.697a14.433 14.433 0 0 0 6.557 5.303 37.27 37.27 0 0 1-5.441-10.326c-.94-2.769-1.55-5.637-2.092-8.51-1.002-5.316-1.853-10.867-4.885-15.348a18.078 18.078 0 0 0-6.836-6zm-179.14 24.836a17.546 17.546 0 0 0-5.301 6.418c-1.318 2.729-1.904 5.757-2.168 8.776-.264 3.018-.22 6.054-.344 9.082-.181 4.447-.738 8.922-2.232 13.115a30.597 30.597 0 0 1-10.186 13.953c5.414-1.956 9.93-6.265 12.139-11.58 1.89-4.55 2.106-9.593 2.373-14.512.314-5.78.743-11.605 2.371-17.16a40.933 40.933 0 0 1 3.348-8.092zm171.607 0a40.933 40.933 0 0 1 3.348 8.092c1.628 5.555 2.057 11.38 2.371 17.16.267 4.92.483 9.962 2.373 14.512 2.208 5.315 6.725 9.624 12.139 11.58a30.597 30.597 0 0 1-10.186-13.953c-1.494-4.193-2.05-8.668-2.232-13.115-.124-3.028-.08-6.064-.344-9.082-.264-3.02-.85-6.047-2.168-8.776a17.546 17.546 0 0 0-5.3-6.418zm-168.398 47.018a28.745 28.745 0 0 0-6.557 9.627c-1.614 3.89-2.351 8.09-2.79 12.279-.408 3.877-.572 7.803-1.534 11.58a28.217 28.217 0 0 1-4.326 9.348 20.197 20.197 0 0 0 7.115-9.768c1.573-4.692 1.36-9.777 2.232-14.648.546-3.047 1.515-6 2.512-8.93a441.354 441.354 0 0 1 3.348-9.488zm165.19 0a441.354 441.354 0 0 1 3.347 9.488c.997 2.93 1.966 5.883 2.512 8.93.872 4.871.659 9.956 2.232 14.648 1.3 3.88 3.821 7.34 7.115 9.768a28.217 28.217 0 0 1-4.326-9.348c-.962-3.777-1.126-7.703-1.533-11.58-.44-4.189-1.177-8.389-2.791-12.28a28.745 28.745 0 0 0-6.557-9.626zm-161.282 6.697a24.043 24.043 0 0 1-2.791 9.906c-1.951 3.649-4.84 6.779-6.418 10.604a17.429 17.429 0 0 0-.838 10.603 43.496 43.496 0 0 1 3.35-10.045c1.887-3.968 4.385-7.672 5.72-11.859a23.048 23.048 0 0 0 .977-9.209zm157.373 0a23.048 23.048 0 0 0 .977 9.209c1.335 4.187 3.833 7.89 5.72 11.86a43.496 43.496 0 0 1 3.35 10.044 17.429 17.429 0 0 0-.838-10.603c-1.578-3.825-4.467-6.955-6.418-10.604a24.043 24.043 0 0 1-2.791-9.906z"/><path style="fill:gold;fill-rule:evenodd;stroke:none;stroke-width:1px;stroke-linecap:butt;stroke-linejoin:miter;stroke-opacity:1;fill-opacity:1" d="m479.507 406.264 10.046 4.465 7.534.279 15.626-5.581 10.325-10.325 5.86 6.14 17.021 4.743h11.999l12.278-3.907a124 124 0 0 0-2.79-18.137c-1.714-7.427-4.154-14.779-8.252-21.206-4.098-6.426-9.98-11.903-17.141-14.512-4.586-1.67-9.555-2.125-14.423-1.779-4.867.347-9.65 1.476-14.319 2.895-7.874 2.394-15.771 5.82-21.207 12-5.893 6.698-8.174 15.776-9.766 24.555a237.632 237.632 0 0 0-2.79 20.37z" transform="translate(-16.018 -77.478)"/><path style="fill:#000;fill-rule:evenodd;stroke:#000;stroke-width:1px;stroke-linecap:butt;stroke-linejoin:miter;stroke-opacity:1" d="M523.212 365.92a3.988 3.988 0 0 0-.591-1.578c-.49-.76-1.239-1.34-2.075-1.682-.837-.343-1.76-.456-2.661-.39-.859.064-1.702.286-2.563.314-.43.014-.866-.02-1.278-.146a2.436 2.436 0 0 1-1.092-.66c-.38-.415-.57-.963-.789-1.48a2.766 2.766 0 0 0-.265-.511 1.102 1.102 0 0 0-.426-.378.988.988 0 0 0-.446-.085c-.153.005-.304.039-.449.09-.288.103-.548.27-.817.415-.27.145-.56.27-.867.277a.979.979 0 0 1-.445-.092.737.737 0 0 1-.33-.309.882.882 0 0 1-.09-.44c.004-.152.034-.302.062-.451.028-.15.054-.3.05-.452a.808.808 0 0 0-.12-.432.671.671 0 0 0-.312-.247.826.826 0 0 0-.396-.05c-.268.031-.51.177-.707.361-.196.184-.352.406-.512.622-.16.216-.327.431-.54.596-.26.201-.583.32-.91.34a1.775 1.775 0 0 1-.95-.215 1.903 1.903 0 0 1-.706-.673 2.053 2.053 0 0 1-.295-.932c-.022-.313.027-.627.056-.94.03-.312.039-.635-.056-.934a1.667 1.667 0 0 0-.366-.613 2.78 2.78 0 0 0-.554-.454c-.403-.26-.849-.448-1.25-.709a4.12 4.12 0 0 1-1.726-2.395 4.12 4.12 0 0 1 .344-2.932 10.051 10.051 0 0 0-3.058 5.82c-.441 2.97.51 6.052 2.269 8.485 1.716 2.372 4.175 4.174 6.906 5.228a16.842 16.842 0 0 0 7.202 1.086c.82-.057 1.638-.174 2.46-.168.823.006 1.665.145 2.374.562.679.4 1.196 1.034 1.565 1.73.368.696.598 1.456.803 2.217a41.187 41.187 0 0 1 1.38 9.667c.088 3.544-.287 7.19-1.873 10.36-1.763 3.521-4.894 6.191-8.288 8.188a35.659 35.659 0 0 1-11.74 4.341c-3.16.569-6.528.69-9.47-.592-2.12-.923-3.878-2.515-5.427-4.23-1.55-1.715-2.93-3.581-4.538-5.24-2.089-2.157-4.534-3.936-6.697-6.017-2.163-2.082-4.092-4.57-4.747-7.5a10.134 10.134 0 0 1 .394-5.722 5.352 5.352 0 0 0-2.269.987c-1.079.81-1.815 2.01-2.292 3.273-.477 1.263-.715 2.602-.963 3.929-.424 2.268-.888 4.54-1.677 6.708a23.346 23.346 0 0 1-2.763 5.328 10.646 10.646 0 0 0 3.75-3.65c1.393-2.278 1.873-4.98 2.762-7.498.26-.738.556-1.462.887-2.17a14.65 14.65 0 0 1 1.283 2.663c.65 1.793.944 3.722.79 5.623-.17 2.068-.866 4.074-1.886 5.88-1.019 1.807-2.356 3.421-3.837 4.874-1.165 1.143-2.423 2.192-3.539 3.384-1.115 1.192-2.097 2.554-2.578 4.114a7.518 7.518 0 0 0 .364 5.327 81.083 81.083 0 0 0 2.3-2.664c.374-.452.749-.914 1.22-1.265.235-.175.494-.321.773-.414.278-.094.577-.133.868-.096.327.04.638.176.905.37.267.192.49.441.674.715.472.703.674 1.548.888 2.368.37 1.426.835 2.9 1.874 3.946.286.288.614.538.984.704.37.166.785.243 1.187.184.327-.049.637-.186.906-.378.27-.192.498-.437.69-.706.385-.538.622-1.164.87-1.777a42.342 42.342 0 0 1 1.578-3.453c.456.604.885 1.23 1.283 1.874a28.331 28.331 0 0 1 1.973 3.848 33.232 33.232 0 0 1 1.933 6.165c1.544-4.757 5.361-8.72 10.058-10.44 3.158-1.158 6.576-1.326 9.9-1.837a49.068 49.068 0 0 0 13.316-4.067 50.517 50.517 0 0 0 12.638-8.444 45.518 45.518 0 0 0 18.179 7.425 45.45 45.45 0 0 0 15.359-.01l25.505 17.175a43.353 43.353 0 0 1-6.049-16.036c-.34-2.091-.525-4.225-.281-6.33.072-.619.181-1.238.398-1.822.217-.584.546-1.136 1.008-1.554.532-.48 1.209-.76 1.851-1.077.643-.318 1.288-.705 1.666-1.314.28-.451.387-.984.51-1.501.121-.517.272-1.048.615-1.453.345-.406.853-.644 1.37-.772.518-.127 1.054-.155 1.584-.212.4-.044.802-.105 1.176-.253.374-.149.722-.39.934-.732.191-.307.263-.677.247-1.038a3.254 3.254 0 0 0-.25-1.049c-.267-.67-.668-1.291-.84-1.992-.154-.625-.117-1.283-.007-1.917.11-.633.293-1.252.428-1.881.189-.873.29-1.765.527-2.626.239-.86.633-1.707 1.302-2.298.43-.378.953-.635 1.407-.984a4.46 4.46 0 0 0 1.266-1.547c.54-1.085.632-2.337.588-3.547-.044-1.21-.215-2.417-.166-3.627.066-1.63.53-3.215.984-4.783.38-1.311.755-2.624 1.126-3.938a7.45 7.45 0 0 0-5.205 1.265c-1.027.719-1.856 1.691-2.537 2.744-.68 1.052-1.218 2.189-1.745 3.326-.92 1.985-1.822 4.01-2.188 6.168-.3 1.766-.232 3.57-.211 5.36.021 1.79-.008 3.607-.493 5.33-.695 2.474-2.297 4.617-4.207 6.337-1.909 1.719-4.126 3.054-6.343 4.354-3.776 2.215-7.628 4.374-11.795 5.72-4.03 1.3-8.334 1.814-12.54 1.313-4.525-.538-8.92-2.269-12.519-5.063-3.086-2.397-5.59-5.6-6.892-9.284-1.109-3.137-1.326-6.52-1.266-9.847.026-1.42.102-2.85.461-4.223.36-1.373 1.021-2.698 2.07-3.654 1.05-.956 2.42-1.489 3.799-1.829 1.664-.41 3.378-.567 5.072-.826s3.397-.628 4.915-1.424c2.728-1.43 4.6-4.103 5.908-6.893.917-1.957 1.615-4.038 1.828-6.189a14.45 14.45 0 0 0-.844-6.47 9.456 9.456 0 0 0-4.22 5.204c-.26.799-.414 1.636-.765 2.399a3.636 3.636 0 0 1-.697 1.043 2.346 2.346 0 0 1-1.07.637c-.576.148-1.183.03-1.773-.048a4.532 4.532 0 0 0-.89-.05c-.297.02-.595.09-.853.239-.246.141-.448.35-.61.582a4.364 4.364 0 0 0-.403.749c-.229.519-.428 1.068-.816 1.482a2.54 2.54 0 0 1-1.105.664c-.414.13-.852.174-1.286.18-.641.01-1.288-.063-1.922.031-.318.048-.631.138-.911.294-.28.155-.527.38-.684.66-.153.276-.215.595-.228.91-.013.316.02.63.045.946.025.314.04.633-.007.945-.047.312-.162.62-.372.856a1.39 1.39 0 0 1-.57.377c-.217.078-.45.105-.68.091-.46-.027-.896-.217-1.282-.468a4.322 4.322 0 0 1-1.688-2.11 2.585 2.585 0 0 1-.074 2.196 2.585 2.585 0 0 1-1.755 1.32 2.561 2.561 0 0 1-1.382-.105z" transform="translate(-16.018 -77.478)"/><path style="fill:#000;fill-rule:evenodd;stroke:#000;stroke-width:1px;stroke-linecap:butt;stroke-linejoin:round;stroke-opacity:1" d="M576.11 377.4a1.052 1.052 0 0 0-.437.002.905.905 0 0 0-.39.193.801.801 0 0 0-.245.361 1.26 1.26 0 0 0-.03.493c.014.164.039.329.03.494-.015.321-.16.631-.377.869a1.957 1.957 0 0 1-.806.512c-.305.106-.626.152-.938.236-.311.084-.623.214-.838.455a1.127 1.127 0 0 0-.275.637c-.023.234.027.473.135.681.107.21.274.387.47.516.197.129.424.21.657.238.421.053.851-.062 1.23-.254.38-.191.715-.458 1.04-.732.664-.562 1.314-1.183 1.677-1.975.198-.433.304-.917.236-1.388a1.79 1.79 0 0 0-.234-.67 1.51 1.51 0 0 0-.496-.506 1.256 1.256 0 0 0-.408-.162zm-39.525 2.972a1.97 1.97 0 0 0-.81.248 3.508 3.508 0 0 0-1.207 1.083 4.508 4.508 0 0 0-.668 1.482c-.265 1.033-.212 2.13-.494 3.158-.12.434-.298.856-.329 1.305-.015.224.01.454.094.662a.984.984 0 0 0 .432.5c.15.08.322.112.492.107.17-.005.336-.046.494-.107.412-.16.76-.448 1.131-.69.185-.12.378-.231.586-.306.208-.075.432-.114.652-.09.368.04.711.266.887.592.136.251.171.543.19.828.018.285.022.577.107.85.048.154.122.302.224.427a.976.976 0 0 0 .385.29c.15.06.32.078.477.04a.668.668 0 0 0 .394-.265.813.813 0 0 0 .12-.309c.02-.11.027-.219.033-.33.005-.111.01-.223.029-.332a.842.842 0 0 1 .113-.31.78.78 0 0 1 .496-.323c.198-.042.405-.024.602.022.394.09.768.284 1.172.3.235.01.468-.042.687-.127.22-.084.427-.201.627-.324.401-.245.794-.522 1.25-.635.37-.09.755-.067 1.135-.044.38.022.767.042 1.135-.055a1.846 1.846 0 0 0 1.183-.986 2.132 2.132 0 0 0-1.283-1.184c-.52-.17-1.08-.132-1.627-.094-.546.039-1.109.074-1.627-.103-.38-.13-.717-.37-1.006-.65-.288-.282-.533-.604-.771-.928-.298-.406-.593-.82-.79-1.284-.094-.224-.165-.456-.253-.683a2.21 2.21 0 0 0-.352-.635 1.065 1.065 0 0 0-.607-.377.756.756 0 0 0-.36.02.648.648 0 0 0-.302.197.727.727 0 0 0-.143.293 1.408 1.408 0 0 0-.037.328c-.002.22.023.443-.017.66-.04.21-.143.41-.297.559a.949.949 0 0 1-.573.261.87.87 0 0 1-.601-.175.804.804 0 0 1-.305-.545c-.014-.137.01-.275.05-.407.042-.13.1-.257.157-.382.057-.125.113-.251.15-.383a.969.969 0 0 0 .038-.406.822.822 0 0 0-.272-.489 1.036 1.036 0 0 0-.51-.236 1.272 1.272 0 0 0-.28-.018zm-19.047 1.18c-.426-.005-.86.152-1.158.457-.149.153-.262.34-.322.545-.06.204-.068.424-.016.63.072.283.248.525.403.77.077.123.15.25.205.385.054.135.088.28.084.426a.91.91 0 0 1-.346.674 1.074 1.074 0 0 1-.732.22 1.307 1.307 0 0 1-.717-.283 1.667 1.667 0 0 1-.475-.611c-.206-.444-.238-.947-.357-1.422a2.208 2.208 0 0 0-.278-.676 1.195 1.195 0 0 0-.548-.468 1.059 1.059 0 0 0-.668-.026 1.257 1.257 0 0 0-.569.354c-.31.33-.443.797-.441 1.25 0 .4.098.795.146 1.193.048.398.042.822-.146 1.176-.11.207-.277.378-.442.545-.164.167-.332.334-.447.539a1.674 1.674 0 0 0-.19.85c.007.293.067.583.135.869.069.285.147.57.188.86.041.292.044.59-.033.874-.085.31-.264.588-.465.84-.2.252-.426.482-.621.738-.267.35-.478.746-.578 1.174-.1.428-.085.888.086 1.293.09.213.22.409.289.629.034.11.053.227.04.342a.537.537 0 0 1-.132.312.49.49 0 0 1-.25.14.566.566 0 0 1-.287-.011.753.753 0 0 1-.428-.371 1.31 1.31 0 0 1-.139-.559c-.01-.193.007-.386.018-.58.034-.59.013-1.183 0-1.775-.01-.462-.016-.93-.12-1.381-.103-.45-.313-.89-.67-1.186-.316-.262-.727-.391-1.136-.433-.41-.042-.821-.003-1.23.039-.52.054-1.046.113-1.545.27-.5.156-.979.416-1.317.816-.28.332-.453.75-.513 1.18-.06.43-.011.872.119 1.287.243.773.753 1.43 1.086 2.17.142.315.251.649.27.994.018.345-.062.702-.27.978a1.28 1.28 0 0 1-.895.49 1.413 1.413 0 0 1-.98-.292c-.22-.17-.39-.401-.514-.65a3.553 3.553 0 0 1-.265-.79c-.124-.543-.18-1.109-.405-1.62a2.834 2.834 0 0 0-1.58-1.478c-.537-.204-1.12-.247-1.676-.394a3.961 3.961 0 0 1-1.775-.988c-.152-.15-.29-.314-.447-.46a1.362 1.362 0 0 0-.541-.33 1.009 1.009 0 0 0-.662.05 1.195 1.195 0 0 0-.512.427 1.473 1.473 0 0 0-.236.627c-.032.223-.019.453.029.674.081.377.26.73.502 1.031.241.301.544.552.879.744.382.22.805.368 1.185.592.262.154.508.35.668.607.08.13.137.272.16.422a.903.903 0 0 1-.039.45c-.085.231-.27.412-.459.572-.188.16-.388.31-.527.514a1.309 1.309 0 0 0-.182.982c.066.335.245.642.477.893.454.491 1.088.766 1.678 1.083.79.426 1.533.95 2.367 1.284.546.219 1.149.353 1.724.232.288-.06.563-.186.786-.379a1.37 1.37 0 0 0 .449-.74c.07-.332.003-.678.035-1.016.016-.168.058-.338.15-.48a.68.68 0 0 1 .174-.184c.07-.049.15-.084.235-.097a.606.606 0 0 1 .279.027c.09.03.173.076.252.129.157.105.294.238.455.338.3.187.665.248 1.02.24.354-.008.701-.081 1.05-.143.452-.08.924-.147 1.307-.4.191-.126.356-.298.45-.508a.86.86 0 0 0 .02-.67.942.942 0 0 0-.324-.386 2.045 2.045 0 0 0-.45-.237c-.317-.126-.658-.224-.903-.46a1.052 1.052 0 0 1-.21-1.216 1.048 1.048 0 0 1 1.098-.563c.182.03.353.109.506.212.153.103.289.232.414.367.251.27.468.575.756.805.491.392 1.143.531 1.772.54.628.01 1.252-.098 1.879-.146.52-.04 1.049-.04 1.552-.176.252-.067.497-.169.71-.32.212-.15.393-.352.501-.59.104-.228.136-.482.13-.732-.008-.25-.053-.5-.106-.744-.106-.49-.237-.995-.123-1.483.102-.438.391-.81.71-1.129.32-.317.678-.598.967-.943.172-.205.32-.436.4-.691a1.2 1.2 0 0 0-.005-.79c-.116-.297-.367-.517-.606-.73a3.36 3.36 0 0 1-.34-.336 1.227 1.227 0 0 1-.238-.414 1.01 1.01 0 0 1-.027-.484 1.26 1.26 0 0 1 .182-.453c.177-.276.445-.484.732-.641.6-.329 1.287-.454 1.922-.709a3.08 3.08 0 0 0 .883-.516c.257-.224.464-.515.55-.845a1.709 1.709 0 0 0-.021-.877 2.91 2.91 0 0 0-.373-.801 3.304 3.304 0 0 0-.865-.932 2.147 2.147 0 0 0-1.192-.406zm59.686 1.494a3.004 3.004 0 0 0-.455.01c-.603.057-1.18.272-1.73.524-1.042.476-2.028 1.09-2.862 1.875-.61.575-1.132 1.236-1.676 1.875-.315.37-.651.744-1.088.959-.218.107-.46.171-.703.166a1.109 1.109 0 0 1-.676-.239 1.295 1.295 0 0 1-.378-.564c-.08-.216-.12-.444-.16-.67a3.789 3.789 0 0 0-.163-.67 1.28 1.28 0 0 0-.384-.56 1.075 1.075 0 0 0-.823-.207 1.359 1.359 0 0 0-.756.404c-.19.195-.326.437-.43.69-.103.252-.174.515-.251.777a4.462 4.462 0 0 1-.287.765 1.759 1.759 0 0 1-.512.63 1.651 1.651 0 0 1-.723.282c-.258.04-.521.03-.781.002-.52-.056-1.03-.193-1.553-.187-.435.005-.885.119-1.215.404a1.224 1.224 0 0 0-.363.533.997.997 0 0 0-.002.641c.095.27.313.48.549.64.236.162.498.286.734.446.235.159.447.355.606.59.159.234.264.508.283.79a1.55 1.55 0 0 1-.15.766 1.885 1.885 0 0 1-.483.62c-.4.34-.918.52-1.44.587a3.271 3.271 0 0 1-1.474-.125c-.47-.16-.9-.456-1.19-.86-.053-.076-.095-.157-.138-.24a1.939 1.939 0 0 1-1.162.85 1.723 1.723 0 0 1-1.461-.314c-.36-.29-.579-.721-.734-1.156-.156-.435-.26-.89-.45-1.31a3.195 3.195 0 0 0-.943-1.216 2.7 2.7 0 0 0-1.426-.56c-.52-.041-1.038.082-1.539.226-.5.145-1 .313-1.52.366-.737.074-1.474-.088-2.212-.149a4.442 4.442 0 0 0-1.11.026 2.325 2.325 0 0 0-1.017.418c-.251.19-.45.44-.645.687-.194.248-.39.499-.638.693a2.395 2.395 0 0 1-1.036.45c-.373.07-.756.071-1.134.045-.449-.032-.898-.105-1.315-.274-.416-.169-.8-.44-1.053-.812-.244-.36-.359-.803-.642-1.133a.984.984 0 0 0-.543-.34.668.668 0 0 0-.322.014.555.555 0 0 0-.381.404.958.958 0 0 0-.03.252c.001.17.033.338.044.508.015.247-.016.493-.036.74-.02.247-.026.5.036.74.066.258.212.492.396.686.184.193.404.347.637.478.464.263.977.433 1.433.71.524.315.954.759 1.395 1.183.44.424.907.84 1.467 1.086.462.202.967.28 1.468.34s1.008.104 1.49.252c.635.193 1.203.554 1.776.888.462.27.949.53 1.48.592.604.07 1.205-.12 1.78-.318s1.164-.408 1.771-.373c.6.034 1.176.306 1.778.296.424-.007.834-.155 1.218-.335.385-.181.754-.396 1.149-.553a4.282 4.282 0 0 1 1.775-.295c.661.03 1.311.213 1.973.197.858-.02 1.67-.37 2.467-.691.55-.222 1.106-.433 1.677-.592.84-.234 1.705-.354 2.565-.494.524-.086 1.054-.18 1.537-.403.483-.221.922-.585 1.127-1.076.097-.232.141-.492.295-.691a.903.903 0 0 1 .451-.3c.175-.055.362-.063.545-.044.365.038.71.18 1.064.275.178.048.358.085.541.088.184.004.371-.026.537-.103a.829.829 0 0 0 .393-.371.63.63 0 0 0 .022-.531.735.735 0 0 0-.166-.227c-.068-.065-.145-.119-.221-.174-.153-.11-.313-.223-.403-.389a.66.66 0 0 1-.07-.39.829.829 0 0 1 .147-.373c.154-.22.396-.365.65-.455.254-.09.522-.132.785-.188.264-.055.53-.128.758-.271.193-.122.353-.292.484-.479.132-.187.235-.39.33-.597.192-.415.36-.853.665-1.194.234-.262.54-.452.863-.59a5.577 5.577 0 0 1 1.012-.297c.496-.106 1-.19 1.474-.373.474-.182.925-.476 1.19-.91.23-.377.304-.845.21-1.277a1.881 1.881 0 0 0-.705-1.09c-.362-.273-.811-.409-1.267-.435zm-20.674 10.655c.013-.02.03-.037.041-.057.232-.394.327-.86.324-1.316a4.084 4.084 0 0 0-.088-.776c-.252.253-.429.584-.488.938-.069.412.017.84.211 1.21zm.277-2.149a1.58 1.58 0 0 1 .356-.277c.175-.096.365-.158.553-.227.187-.068.373-.144.53-.265.23-.176.388-.438.464-.717.076-.28.075-.576.031-.862-.117-.756-.544-1.448-1.12-1.953-.575-.504-1.293-.831-2.038-1.007a4.048 4.048 0 0 0-1.156-.12 2.46 2.46 0 0 0-1.112.317c-.301.177-.56.439-.699.76-.139.32-.148.702.008 1.015.13.263.367.463.63.592.264.129.555.191.845.236.29.045.584.073.87.133.288.06.57.154.811.322.24.169.43.405.57.663.141.257.237.536.319.818.055.189.1.38.139.572zm-76.892-5.111a4.19 4.19 0 0 0-.889 1.578 5 5 0 0 0-.197 1.185c-.037.711.055 1.445.394 2.07.425.785 1.214 1.339 2.073 1.58.593.168 1.232.203 1.775.493.597.319 1.01.924 1.184 1.578.115.436.131.89.16 1.34.028.45.07.905.234 1.324.147.378.39.716.692.987.302.272.675.48 1.08.523.202.021.41 0 .601-.07.067-.025.128-.065.19-.102-.05.108-.099.216-.125.332a1.76 1.76 0 0 0 .523 1.686c.31.286.712.452 1.121.556.41.105.832.153 1.246.233.688.131 1.36.352 1.973.69.504.276.967.63 1.486.878.26.125.534.222.819.266.284.043.58.032.853-.059.268-.089.512-.256.678-.484a1.12 1.12 0 0 0 .209-.799 1.188 1.188 0 0 0-.223-.533 1.793 1.793 0 0 0-.42-.403c-.318-.225-.684-.37-1.033-.545-.338-.169-.662-.366-1-.535-.338-.169-.696-.31-1.072-.351-.256-.029-.52-.011-.768-.08a.82.82 0 0 1-.338-.178.536.536 0 0 1-.177-.334.522.522 0 0 1 .05-.272c.04-.084.1-.159.168-.222.137-.127.308-.21.473-.295.434-.225.867-.495 1.127-.908.13-.207.21-.448.21-.692a.983.983 0 0 0-.253-.67c-.16-.169-.38-.266-.603-.33-.224-.063-.455-.098-.678-.164a3.633 3.633 0 0 1-.987-.492c-.307-.207-.607-.443-.962-.549a1.124 1.124 0 0 0-.55-.033.772.772 0 0 0-.462.285.772.772 0 0 0-.131.555c.025.193.113.376.23.531.181.238.43.415.618.649.093.116.172.25.209.394a.632.632 0 0 1-.037.438.623.623 0 0 1-.206.226 1.005 1.005 0 0 1-.277.129c-.197.06-.405.081-.603.137-.23.064-.437.191-.622.343a.918.918 0 0 0 .03-.343 1.128 1.128 0 0 0-.385-.692c-.2-.18-.446-.299-.7-.392-.209-.078-.426-.139-.632-.225a1.48 1.48 0 0 1-.553-.369c-.176-.2-.266-.47-.261-.736.005-.267.1-.53.261-.743.218-.289.543-.484.889-.591.31-.096.638-.126.953-.205.158-.04.313-.094.455-.172.143-.079.272-.183.367-.315a.958.958 0 0 0 .121-.86 1.034 1.034 0 0 0-.613-.62c-.233-.086-.49-.086-.738-.065-.248.022-.494.064-.742.065-.423 0-.84-.123-1.22-.313-.377-.19-.72-.442-1.048-.709-.657-.533-1.284-1.139-2.074-1.443-.257-.099-.525-.164-.783-.26-.259-.095-.512-.226-.696-.431a1.428 1.428 0 0 1-.295-.561 2.816 2.816 0 0 1-.095-.629c-.023-.425-.004-.852-.004-1.277zM453.893 306.25a2.793 2.793 0 0 0-.578.038c.5.399.958.85 1.363 1.344.627.765 1.123 1.626 1.717 2.416.593.79 1.31 1.528 2.22 1.912a3.719 3.719 0 0 0 3.409-.297 4.805 4.805 0 0 1-2.393-.332 4.805 4.805 0 0 1-1.924-1.46c-.39-.497-.678-1.064-1-1.608-.322-.543-.688-1.074-1.195-1.451a2.904 2.904 0 0 0-1.62-.563zm-1.979 5.615a3.143 3.143 0 0 0-.642.04c.556.446 1.065.952 1.515 1.505.697.855 1.248 1.818 1.907 2.703.659.884 1.454 1.71 2.47 2.14a4.127 4.127 0 0 0 3.79-.334 5.334 5.334 0 0 1-2.66-.375 5.342 5.342 0 0 1-2.14-1.629c-.434-.555-.752-1.19-1.109-1.798-.357-.608-.767-1.204-1.332-1.625a3.223 3.223 0 0 0-1.799-.627zm.15 6.85a3.607 3.607 0 0 0-.753.048 11.767 11.767 0 0 1 1.775 1.775c.815 1.011 1.458 2.15 2.229 3.196.77 1.045 1.706 2.02 2.902 2.527a4.822 4.822 0 0 0 4.44-.394 6.254 6.254 0 0 1-3.122-.448 6.257 6.257 0 0 1-2.502-1.92c-.509-.656-.88-1.406-1.298-2.125-.418-.718-.898-1.422-1.563-1.92a3.778 3.778 0 0 0-2.107-.74zm-3.304 5.511a11.329 11.329 0 0 0-.418 5.58c.47 2.64 1.863 5.042 2.371 7.674.739 3.828-.451 7.74-1.674 11.441-.846 2.561-1.717 5.124-2.93 7.533-.665 1.324-1.44 2.614-1.814 4.047a7.843 7.843 0 0 0 .977 6.139 17.58 17.58 0 0 1 1.117-6.697c.632-1.678 1.519-3.251 2.512-4.744.973-1.464 2.056-2.868 2.789-4.465.856-1.868 1.199-3.938 1.252-5.992.052-2.055-.176-4.104-.414-6.145-.347-2.957-.72-5.927-1.536-8.791-.55-1.93-1.299-3.803-2.232-5.58zm5.117 3.318a19.924 19.924 0 0 0 1.973 4.34 18.735 18.735 0 0 0 3.847 4.54 17.644 17.644 0 0 0 4.932 2.958c-1.09-.91-2.112-1.899-3.057-2.959-1.603-1.798-2.976-3.791-4.539-5.625a35.248 35.248 0 0 0-3.156-3.254zm1.479 9.174c.372 2.412.438 4.872.197 7.3-.177 1.776-.517 3.538-1.084 5.23-.857 2.556-2.215 4.913-3.256 7.4-1.13 2.698-1.889 5.565-2.072 8.484-.039.614-.053 1.233.039 1.842s.294 1.209.652 1.709a3.124 3.124 0 0 0 2.565 1.283 8.027 8.027 0 0 1-2.17-4.834c-.13-1.573.21-3.158.77-4.635.558-1.476 1.328-2.86 2.09-4.244 1.071-1.948 2.135-3.917 2.86-6.02.615-1.779.982-3.643 1.086-5.523.406.585.8 1.177 1.184 1.776.552.86 1.082 1.734 1.678 2.564.501.7 1.052 1.371 1.722 1.91.67.54 1.47.944 2.323 1.051a3.756 3.756 0 0 0 2.367-.494 16.33 16.33 0 0 0-1.875-2.27c-1.59-1.604-3.512-2.879-4.932-4.636-1.187-1.47-1.974-3.215-2.763-4.932-.455-.99-.915-1.977-1.381-2.96z" transform="translate(-16.018 -77.478)"/><path style="fill:#000;fill-rule:evenodd;stroke:#000;stroke-width:1px;stroke-linecap:butt;stroke-linejoin:miter;stroke-opacity:1" d="M601.647 284.365c.4.938.576 1.97.506 2.988-.066.97-.347 1.909-.584 2.851-.236.943-.432 1.918-.318 2.883.149 1.267.812 2.407 1.207 3.62a8.833 8.833 0 0 1 .295 4.275 7.713 7.713 0 0 0 .195-4.63c-.354-1.303-1.054-2.526-1.152-3.874-.069-.948.168-1.888.404-2.809.237-.92.477-1.862.414-2.81a4.507 4.507 0 0 0-.967-2.494zm-4.216 3.218c.256.675.366 1.405.322 2.125-.043.688-.223 1.36-.375 2.032-.152.672-.275 1.363-.201 2.048.096.893.519 1.713.771 2.575.288.982.352 2.03.188 3.04a6.041 6.041 0 0 0 .125-3.292c-.227-.926-.674-1.805-.737-2.756-.044-.673.108-1.341.26-1.998.152-.657.306-1.325.264-1.998a3.51 3.51 0 0 0-.617-1.776zm-3.64 15.889a18.02 18.02 0 0 1 3.75 8.484c.454 2.913.183 5.881.058 8.827-.126 2.945-.093 5.969.93 8.734 1.37 3.709 4.355 6.551 6.51 9.865a24.644 24.644 0 0 1 3.946 12.432A21.402 21.402 0 0 0 606.421 338c-1.04-1.811-2.341-3.458-3.547-5.164-1.206-1.705-2.333-3.499-2.965-5.49-.872-2.748-.753-5.7-.617-8.58s.272-5.83-.567-8.588a12.636 12.636 0 0 0-4.933-6.707zm-2.964 5.037a18.02 18.02 0 0 1 3.75 8.485c.453 2.912.18 5.88.055 8.826-.126 2.945-.09 5.97.931 8.734 1.371 3.709 4.356 6.551 6.512 9.865a24.644 24.644 0 0 1 3.945 12.432 21.402 21.402 0 0 0-2.564-13.813c-1.04-1.811-2.34-3.456-3.547-5.162-1.206-1.705-2.333-3.5-2.965-5.492-.872-2.748-.755-5.7-.619-8.58s.274-5.827-.564-8.586a12.64 12.64 0 0 0-4.934-6.709zm-6.56 9.992a18.022 18.022 0 0 1 4.804 7.936c.823 2.83.933 5.809 1.186 8.746.253 2.937.673 5.932 2.04 8.543 1.835 3.503 5.16 5.94 7.723 8.951a24.639 24.639 0 0 1 5.506 11.822 21.4 21.4 0 0 0-4.314-13.369c-1.264-1.663-2.763-3.129-4.178-4.666-1.414-1.537-2.763-3.175-3.644-5.068-1.218-2.614-1.477-5.556-1.711-8.43-.234-2.874-.477-5.815-1.662-8.443a12.635 12.635 0 0 0-5.75-6.022zm.912 13.754a11.812 11.812 0 0 1 2.814 5.252c.444 1.848.433 3.768.514 5.666.08 1.899.265 3.838 1.062 5.563 1.062 2.297 3.09 3.976 4.623 5.99a16.097 16.097 0 0 1 3.155 7.775 14.006 14.006 0 0 0-2.364-8.736c-1.502-2.214-3.657-4.02-4.666-6.498-.7-1.721-.784-3.621-.853-5.479-.07-1.857-.142-3.757-.824-5.486a8.248 8.248 0 0 0-3.461-4.047zM590.096 377.777a13.356 13.356 0 0 0-1.566.025 22.115 22.115 0 0 1 6.556 5.022c1.372 1.536 2.531 3.273 3.35 5.164.99 2.288 1.472 4.769 1.674 7.254a34.158 34.158 0 0 1-.559 9.488 23.946 23.946 0 0 0 2.791-6.139c.702-2.393 1.024-4.907.836-7.394-.202-2.67-1.011-5.318-2.512-7.535a13.504 13.504 0 0 0-5.998-4.883 13.513 13.513 0 0 0-4.572-1.002zm-3.027 11.552a2.888 2.888 0 0 0-.559.082 16.861 16.861 0 0 1 2.627 3.631c1.045 1.947 1.696 4.079 2.252 6.217.615 2.366 1.121 4.758 1.66 7.143.354 1.566.742 3.171 1.666 4.484a6.323 6.323 0 0 0 1.774 1.691 175.4 175.4 0 0 1-1.393-5.125c-.676-2.645-1.29-5.306-2.004-7.94-.648-2.395-1.378-4.773-2.361-7.05-.23-.532-.475-1.06-.8-1.54-.323-.481-.732-.914-1.233-1.204a2.99 2.99 0 0 0-1.63-.389zm-2.2 2.696a3.407 3.407 0 0 0-.666.008 19.59 19.59 0 0 1 2.512 4.605c.92 2.41 1.354 4.974 1.674 7.533.353 2.83.574 5.674.838 8.512.173 1.866.381 3.782 1.256 5.44a7.37 7.37 0 0 0 1.812 2.232c-.31-2.042-.588-4.088-.836-6.139-.382-3.16-.692-6.33-1.117-9.486-.386-2.868-.87-5.731-1.674-8.512-.188-.651-.396-1.3-.7-1.906-.306-.605-.714-1.17-1.253-1.582a3.535 3.535 0 0 0-1.846-.705zm-3.654 4.185a15.154 15.154 0 0 1 1.807 3.473c.666 1.823.977 3.756 1.207 5.684.254 2.134.415 4.278.601 6.42.123 1.404.267 2.847.905 4.105.323.637.77 1.212 1.306 1.684-.224-1.541-.426-3.085-.603-4.631-.274-2.385-.492-4.776-.803-7.157-.282-2.16-.643-4.316-1.207-6.421-.13-.49-.272-.977-.49-1.434-.218-.457-.518-.885-.916-1.197a2.556 2.556 0 0 0-1.807-.526zM469.876 410.074a20.263 20.263 0 0 0-6.709 7.695c-1.377 2.773-2.113 5.856-3.749 8.485-.955 1.535-2.206 2.894-2.96 4.538a8.614 8.614 0 0 0-.591 5.327c1.049-1.909 2.101-3.816 3.157-5.722 1.34-2.42 2.686-4.838 3.946-7.3.938-1.833 1.828-3.69 2.762-5.525a127.14 127.14 0 0 1 4.144-7.498z" transform="translate(-16.018 -77.478)"/></svg>