<svg height="476.933" width="381.709" xmlns="http://www.w3.org/2000/svg"><g style="display:inline"><path style="display:inline;opacity:1;fill:#005198;stroke:#000;stroke-width:6;stroke-linecap:butt;stroke-linejoin:miter;stroke-miterlimit:4;stroke-dasharray:none" d="M517.13 66.232v325.034c0 62.76-73.248 145.9-187.854 145.9-114.606 0-187.855-83.14-187.855-145.9V66.232z" transform="translate(-138.421 -63.232)"/><path style="opacity:1;fill:#fff;stroke:#000;stroke-width:4;stroke-linecap:butt;stroke-linejoin:round;stroke-miterlimit:4;stroke-dasharray:none" d="M329.276 500.867c84.011 0 106.896-25.136 98.857-45.962-9.513-24.645-17.11-37.43-17.11-42.662 0-8.31 62.974 2.781 62.974-20.977 0-108.445-93.44-251.509-144.72-295.1-51.283 43.591-144.722 186.655-144.722 295.1 0 23.758 62.974 12.667 62.974 20.977 0 5.231-7.596 18.017-17.11 42.662-8.04 20.826 14.846 45.962 98.857 45.962" transform="translate(-138.421 -63.232)"/><path style="display:inline;opacity:1;fill:#000;stroke:#000;stroke-width:3;stroke-linecap:butt;stroke-linejoin:round;stroke-miterlimit:4;stroke-dasharray:none" d="M329.276 109.366c2.166 229.154 4.941 349.178 0 366.517z" transform="translate(-138.421 -63.232)"/><g style="fill:#000;stroke:#000"><path style="opacity:1" d="M198.699 382.985c-.294-.024-.355 1.554-.084 1.57.266.016 25.674.465 26.439.478-.76-.06-26.012-2.02-26.355-2.048zm.423-6.626c-.293-.032-.394 1.544-.124 1.567.262.022 24.927 1.089 26.37 1.15-1.438-.151-25.91-2.681-26.246-2.717zm.542-6.618c-.292-.039-.433 1.534-.163 1.564.257.028 24.148 1.67 26.25 1.81-2.092-.274-25.756-3.33-26.087-3.374zm.661-6.607c-.292-.046-.449 1.611-.179 1.642.253.027 23.4 1.619 26.135 1.799-2.72-.367-25.632-3.39-25.956-3.441zm.809-6.51c-.291-.047-.471 1.522-.203 1.559.249.033 22.598 2.138 25.931 2.44-3.307-.525-25.409-3.949-25.728-3.999zm.94-6.572c-.29-.054-.51 1.51-.242 1.553.243.04 21.768 2.613 25.671 3.062-3.865-.717-25.117-4.558-25.429-4.615zm1.051-6.554c-.288-.061-.546 1.496-.28 1.547.238.044 20.976 3.048 25.374 3.66-4.352-.923-24.788-5.144-25.094-5.207zm1.162-6.535c-.287-.068-.575 1.569-.308 1.619.233.044 20.225 2.94 25.118 3.615-4.835-1.046-24.512-5.164-24.81-5.234zm1.293-6.433c-.287-.068-.584 1.483-.319 1.54.228.048 19.372 3.304 24.72 4.171-5.273-1.267-24.11-5.642-24.401-5.711zm1.426-6.481c-.285-.075-.62 1.468-.356 1.531.222.053 18.513 3.625 24.266 4.694-5.668-1.516-23.626-6.15-23.91-6.225zm1.528-6.457c-.283-.082-.654 1.453-.392 1.522.217.057 17.743 3.92 23.812 5.192-5.965-1.758-23.142-6.635-23.42-6.714zm1.629-6.432c-.281-.088-.681 1.522-.419 1.592.212.056 16.985 3.752 23.404 5.086-6.286-1.883-22.715-6.593-22.985-6.678zm1.753-6.322c-.281-.089-.689 1.437-.429 1.512.205.06 16.124 3.965 22.818 5.516-6.543-2.12-22.126-6.946-22.389-7.028zm1.874-6.364c-.279-.095-.722 1.421-.464 1.503.2.063 15.336 4.155 22.23 5.91-6.729-2.366-21.511-7.327-21.766-7.413zm1.965-6.334c-.276-.101-.754 1.403-.498 1.491.193.066 14.571 4.31 21.62 6.268-6.858-2.603-20.875-7.669-21.122-7.759zm2.044-6.235c-.277-.101-.755 1.404-.498 1.492.188.064 13.82 4.089 21.056 6.082-7.02-2.68-20.317-7.486-20.558-7.574zm2.195-6.257c-.274-.108-.786 1.386-.531 1.479.182.067 13.039 4.182 20.35 6.36-7.08-2.906-19.586-7.748-19.819-7.839zm2.278-6.227c-.272-.113-.817 1.369-.564 1.468.176.068 12.307 4.251 19.65 6.601-7.08-3.11-18.861-7.975-19.086-8.069zm2.358-6.195c-.269-.119-.853 1.427-.601 1.526.172.067 11.632 4.02 19.035 6.36-7.101-3.167-18.217-7.79-18.434-7.886zm2.456-6.084c-.27-.12-.847 1.35-.597 1.454.165.069 10.881 4.029 18.235 6.518-7.044-3.322-17.428-7.88-17.638-7.972zm2.565-6.111c-.267-.125-.875 1.331-.628 1.441.159.07 10.196 4.026 17.473 6.643-6.933-3.477-16.643-7.99-16.845-8.084zm2.636-6.08c-.264-.13-.926 1.381-.678 1.491.153.068 9.535 3.97 16.71 6.666-6.788-3.621-15.838-8.061-16.032-8.157zm2.712-5.974c-.264-.131-.903 1.313-.658 1.428.147.069 8.895 3.732 15.965 6.389-6.677-3.583-15.12-7.724-15.307-7.817zm2.827-5.991c-.261-.137-.93 1.293-.687 1.414.141.07 8.268 3.67 15.165 6.398-6.47-3.677-14.299-7.719-14.478-7.812zm2.89-5.96c-.258-.142-.985 1.336-.743 1.456.136.067 7.67 3.568 14.38 6.316-6.234-3.757-13.466-7.679-13.637-7.772zm2.953-5.859c-.258-.142-.956 1.275-.715 1.4.13.067 7.097 3.325 13.612 5.987-6.037-3.667-12.732-7.297-12.897-7.387zm3.066-5.871c-.256-.146-.982 1.256-.744 1.386.124.067 6.534 3.22 12.804 5.89-5.757-3.694-11.903-7.186-12.06-7.276zm3.119-5.84c-.253-.151-1.032 1.297-.794 1.426.119.065 5.998 3.083 12.014 5.711-5.451-3.71-11.07-7.048-11.22-7.137zm3.18-5.739c-.253-.151-1.005 1.237-.77 1.371.112.064 5.501 2.846 11.26 5.346-5.195-3.571-10.348-6.632-10.49-6.717zm3.279-5.75c-.25-.156-1.028 1.217-.795 1.356.106.063 5.005 2.711 10.468 5.159-4.864-3.534-9.538-6.43-9.673-6.515zm3.326-5.722c-.247-.161-1.066 1.261-.834 1.4.102.06 4.562 2.471 9.765 4.733-4.554-3.403-8.804-6.05-8.931-6.133zm3.392-5.616c-.247-.161-1.05 1.198-.82 1.341.096.06 4.113 2.327 8.984 4.513-4.222-3.308-8.043-5.775-8.164-5.854zm3.472-5.633c-.244-.166-1.072 1.179-.844 1.326.09.058 3.688 2.177 8.237 4.256-3.866-3.213-7.28-5.505-7.393-5.582zm3.493-5.555c-.244-.165-1.072 1.179-.845 1.327.085.055 3.313 1.955 7.564 3.831-3.553-3.031-6.612-5.085-6.719-5.158zm3.609-5.544c-.241-.17-1.093 1.16-.868 1.311.08.053 2.936 1.804 6.86 3.549-3.194-2.908-5.892-4.79-5.992-4.86zm3.644-5.52c-.238-.174-1.113 1.14-.89 1.296.074.051 2.581 1.648 6.183 3.249-2.836-2.767-5.2-4.477-5.293-4.545zm3.683-5.43c-.238-.174-1.112 1.141-.89 1.296.07.048 2.273 1.452 5.574 2.835-2.523-2.567-4.597-4.067-4.684-4.131zm3.769-5.434c-.236-.178-1.132 1.122-.912 1.281.064.046 1.966 1.303 4.955 2.527-2.178-2.41-3.963-3.748-4.043-3.808zm3.774-5.367c-.235-.178-1.132 1.122-.912 1.281.06.043 1.7 1.127 4.398 2.135-1.876-2.21-3.412-3.36-3.486-3.416zm3.885-5.35c-.232-.182-1.15 1.103-.933 1.265.054.04 1.439.99 3.845 1.83-1.553-2.042-2.845-3.043-2.912-3.095zm3.91-5.331c-.229-.185-1.198 1.13-.981 1.292.05.037 1.204.852 3.347 1.501-1.235-1.887-2.305-2.744-2.366-2.793zm3.946-5.242c-.23-.185-1.167 1.085-.953 1.251.044.034.997.71 2.87 1.178-.98-1.679-1.862-2.385-1.917-2.429zm4.015-5.249c-.226-.189-1.183 1.066-.972 1.236.04.031.803.591 2.432.897-.707-1.51-1.411-2.093-1.46-2.133zm4.027-5.181c-.226-.188-1.184 1.067-.972 1.236.035.028.639.47 2.045.596-.477-1.339-1.03-1.796-1.073-1.832zm4.115-5.17c-.224-.193-1.2 1.048-.991 1.221.03.025.488.371 1.69.35-.247-1.185-.662-1.54-.699-1.571zm4.104-5.119c-.223-.192-1.2 1.049-.99 1.221.026.021.361.276 1.382.103-.058-1.04-.36-1.297-.392-1.324z" transform="translate(-138.421 -63.232)"/><path style="display:inline;opacity:1" d="M330.194 471.13c-.901-.018-.856 2.756-.028 2.762.213.001 5.673-.089 13.904-1.37-7.951-1.29-13.598-1.387-13.876-1.392zm0-7.74c-.901-.017-.856 2.757-.028 2.763.223.001 6.187-.097 14.895-1.373-8.544-1.28-14.579-1.384-14.867-1.39zm0-7.739c-.901-.018-.856 2.756-.028 2.762.223.001 6.188-.097 14.765-1.375-8.536-1.28-14.452-1.382-14.737-1.387zm0-7.74c-.901-.017-.856 2.757-.028 2.763.216.001 5.804-.09 13.823-1.377-8.076-1.286-13.522-1.38-13.795-1.386zm0-7.739c-.901-.018-.856 2.756-.028 2.762.202.001 5.124-.08 12.259-1.378-7.247-1.297-11.977-1.38-12.231-1.384zm0-7.739c-.901-.018-.856 2.756-.028 2.762.186.001 4.358-.067 10.68-1.376-6.3-1.31-10.415-1.382-10.652-1.386zm0-7.74c-.901-.017-.856 2.756-.028 2.762.194.001 4.743-.073 12.06-1.367-6.842-1.305-11.772-1.39-12.032-1.395zm0-7.739c-.901-.018-.856 2.756-.028 2.762.231.001 6.651-.105 16.654-1.36-9.111-1.272-16.31-1.396-16.626-1.402zm0-7.74c-.901-.017-.856 2.756-.028 2.762.3.002 10.944-.176 25.916-1.346-13.29-1.198-25.476-1.408-25.888-1.416zm0-7.739c-.901-.018-.856 2.756-.028 2.762.49.003 28.8-.478 55.685-1.302-19.806-.841-54.952-1.447-55.657-1.46zm0-7.74c-.901-.017-.856 2.756-.028 2.763.643.004 49.086-.824 70.939-1.364-20.995-.537-70.076-1.383-70.911-1.399zm0-7.739c-.901-.018-.856 2.756-.028 2.762.694.004 57.036-.96 75.338-1.367-17.881-.404-74.414-1.378-75.31-1.395zm0-7.74c-.901-.017-.856 2.757-.028 2.763.728.004 62.594-1.055 77.647-1.367-14.779-.31-76.68-1.378-77.619-1.396zm0-7.739c-.901-.018-.856 2.756-.028 2.762.752.005 66.753-1.126 78.951-1.368-12.046-.24-77.955-1.376-78.923-1.394zm0-7.74c-.901-.017-.856 2.757-.028 2.763.77.005 69.981-1.182 79.73-1.368-9.647-.186-78.71-1.375-79.702-1.395zm0-7.739c-.901-.018-.856 2.756-.028 2.762.784.005 72.555-1.226 80.202-1.368-7.58-.142-79.164-1.375-80.174-1.394zm0-7.739c-.901-.018-.856 2.756-.028 2.762.795.005 74.616-1.261 80.487-1.368-5.827-.107-79.435-1.375-80.459-1.394zm0-7.74c-.901-.017-.856 2.756-.028 2.762.804.005 76.256-1.288 80.655-1.367-4.368-.079-79.592-1.376-80.627-1.395zm0-7.739c-.901-.018-.856 2.756-.028 2.762.81.005 77.462-1.31 80.746-1.368-3.26-.058-79.675-1.374-80.718-1.394zm0-7.74c-.901-.017-.856 2.756-.028 2.762.815.005 78.38-1.325 80.797-1.367-2.403-.042-79.72-1.375-80.769-1.395zm0-7.739c-.901-.018-.856 2.756-.028 2.762.819.005 79.063-1.337 80.824-1.368-1.753-.03-79.742-1.374-80.796-1.394zm0-7.74c-.901-.017-.856 2.756-.028 2.763.821.005 79.546-1.346 80.839-1.368-1.279-.022-79.754-1.375-80.811-1.395zm0-7.739c-.901-.018-.856 2.756-.028 2.762.828.005 80.855-1.368 80.855-1.368h-.001s-79.76-1.374-80.826-1.394zm0-7.74c-.901-.017-.856 2.756-.028 2.763.828.005 80.855-1.368 80.855-1.368h-.001s-79.76-1.374-80.826-1.395zm0-7.739c-.901-.018-.856 2.756-.028 2.762.828.005 80.855-1.368 80.855-1.368h-.001s-79.76-1.374-80.826-1.394zm0-7.74c-.901-.017-.856 2.757-.028 2.763.828.005 80.855-1.368 80.855-1.368h-.001s-79.76-1.374-80.826-1.395zm0-7.739c-.901-.018-.856 2.756-.028 2.762.828.005 80.855-1.368 80.855-1.368h-.001s-79.76-1.374-80.826-1.394zm0-7.74c-.901-.017-.856 2.757-.028 2.763.828.005 80.855-1.368 80.855-1.368h-.001s-79.76-1.374-80.826-1.395zm0-7.739c-.901-.018-.856 2.756-.028 2.762.828.005 80.855-1.368 80.855-1.368h-.001s-79.76-1.374-80.826-1.394zm0-7.739c-.901-.018-.856 2.756-.028 2.762.814.005 78.156-1.322 80.786-1.368-2.638-.047-79.71-1.374-80.758-1.394zm0-7.74c-.901-.017-.856 2.756-.028 2.762.791.005 73.923-1.248 80.393-1.367-6.531-.12-79.347-1.376-80.365-1.395zm0-7.739c-.901-.018-.856 2.756-.028 2.762.762.005 68.56-1.157 79.382-1.368-10.958-.214-78.375-1.376-79.354-1.394zm0-7.74c-.901-.017-.856 2.756-.028 2.762.725.004 62.166-1.047 77.392-1.368-15.475-.325-76.433-1.377-77.364-1.394zm73.801-6.466-73.801-1.273c-.901-.018-.856 2.756-.028 2.762.68.004 54.804-.922 74.109-1.252m-74.081-9.25c-.901-.017-.856 2.756-.028 2.763.624.004 46.277-.776 68.415-1.374-22.845-.602-67.59-1.374-68.387-1.389zm0-7.739c-.901-.018-.856 2.756-.028 2.762.558.003 37.104-.62 60.396-1.377-24.183-.76-59.66-1.372-60.368-1.385zm0-7.74c-.901-.017-.856 2.756-.028 2.763.494.003 29.152-.484 51.57-1.38-23.393-.896-50.919-1.37-51.542-1.383zm0-7.739c-.901-.018-.856 2.756-.028 2.762.431.003 22.331-.368 42.492-1.383-21.106-1.01-41.923-1.369-42.464-1.379zm0-7.74c-.901-.017-.856 2.757-.028 2.763.374.002 16.896-.276 34.212-1.383-18.086-1.1-33.716-1.37-34.184-1.38zm0-7.739c-.901-.018-.856 2.756-.028 2.762.326.002 12.913-.21 27.496-1.382-15.136-1.167-27.06-1.372-27.468-1.38zm0-7.74c-.901-.017-.856 2.757-.028 2.763.288.002 10.171-.163 22.548-1.38-12.706-1.212-22.158-1.376-22.52-1.383zm0-7.739c-.901-.017-.856 2.756-.028 2.762.265.002 8.642-.138 19.727-1.376-11.202-1.239-19.363-1.38-19.699-1.386zm0-7.739c-.901-.018-.856 2.756-.028 2.762.238.001 7.04-.111 16.152-1.382-9.479-1.265-15.828-1.374-16.124-1.38zm0-7.74c-.901-.017-.856 2.756-.028 2.762.201.001 5.077-.079 11.789-1.384-7.148-1.298-11.517-1.373-11.761-1.378zm0-7.739c-.901-.018-.856 2.756-.028 2.762.153 0 3.019-.045 6.855-1.389-4.394-1.33-6.653-1.37-6.827-1.373zm0-7.74c-.901-.017-.856 2.756-.028 2.763.086 0 1.032-.014 2.021-1.39-1.446-1.363-1.917-1.372-1.993-1.373zm-.613-5.816c.086.467.283.837.442.838" transform="translate(-138.421 -63.232)"/></g></g></svg>