<svg xmlns="http://www.w3.org/2000/svg" version="1.0" width="229.734" height="300.468"><path d="M281.132-32.8v180.162c0 66.593-49.361 117.587-112.851 116.282-62.34-1.282-112.884-49.689-112.884-116.282V-32.8h225.735z" style="fill:#fff;fill-opacity:1;stroke:#231f20;stroke-width:4;stroke-linecap:butt;stroke-linejoin:miter;stroke-miterlimit:4;stroke-dasharray:none;stroke-opacity:1" transform="translate(-53.397 34.8)"/><path d="M222.948 156.816c27.218 2.46 38.104 41.434 3.106 51.559-4.586 27.494-40.743 34.474-49.612 7.067-11.331 13.161-45.58 23.5-50.4-16.385-36.302 1.989-36.905-27.332-27.953-40.998-35.138-31.055-8.559-54.842 6.833-63.361-6.297-35.13 16.272-30.099 32.302-34.166 4.041-30.184 23.843-23.096 34.786-19.877 10.862-21.527 20.562-15.177 30.438-13.045-2.817-9.38 1.511-17.55 8.039-22.442.973-.997 1.642-1.127.121-1.585-2.505-.826-4.679-2.294-4.985-9.214-5.546.69-8.929-2.472-10.064-3.985-3.984-5.31-1.811-10.807 6.89-8.052 20.953 14.745 30.7 26.446 26.122 46.953-4.002 17.924-7.622 27.982-41.638 50.724-7.761 4.504-36.86 21.063-44.32 46.63-3.078 10.547-1.693 32.219 28.155 33.904 3.688-22.469 40.656-42.939 52.18-3.727z" style="fill:#231f20;fill-opacity:1;fill-rule:evenodd;stroke:#231f20;stroke-width:1px;stroke-linecap:butt;stroke-linejoin:miter;stroke-opacity:1" transform="translate(-53.397 34.8)"/></svg>