<svg xmlns="http://www.w3.org/2000/svg" width="701.33" height="741.77" viewBox="0 0 701.334 741.769"><g transform="translate(-19.589 -72.906)"><g fill-rule="evenodd"><path d="m25.27 78.41 13.398 416.62c7.415 175.25 153.92 314.05 331.59 314.14 177.51-.215 324.07-139.06 331.59-314.14l13.398-416.62h-344.98z" fill="#03f"/><path d="M418.63 297.57a19.753 19.753 0 0 1 2.275-6.597c.772-1.379 1.767-2.715 3.185-3.412a4.733 4.733 0 0 1 2.049-.49 4.372 4.372 0 0 1 2.046.49c.923.482 1.65 1.313 2.047 2.275.471 1.141.484 2.433.227 3.64-.347 1.635-1.161 3.132-2.047 4.55a42.497 42.497 0 0 1-2.73 3.867l-7.05-4.322z" fill="gold" stroke="#000" stroke-width="5"/></g><g stroke="#000"><path d="M373.834 175.819a45.914 45.914 0 0 0-45.914 45.914v194.32h12.225v-194.32h-.053a33.742 33.742 0 0 1 33.742-33.743 33.742 33.742 0 0 1 33.742 33.743h-.055v43.756h12.227v-43.756a45.914 45.914 0 0 0-45.914-45.914z" stroke-linejoin="round" stroke-linecap="round" stroke-width="5"/><g fill="gold"><g fill-rule="evenodd"><path d="M356.83 180.31a36.41 36.41 0 0 1-2.98 2.123c-3.588 2.293-7.553 3.938-11.186 6.16-3.632 2.222-7.03 5.18-8.604 9.139a13.096 13.096 0 0 0-.861 3.563 36.465 36.465 0 0 1 2.982-2.125c3.588-2.293 7.553-3.938 11.186-6.16 3.632-2.222 7.03-5.179 8.604-9.137.452-1.139.741-2.343.859-3.563zm33.36 0c.118 1.22.41 2.423.861 3.563 1.57 3.958 4.971 6.915 8.604 9.137 3.632 2.222 7.597 3.868 11.186 6.16a36.261 36.261 0 0 1 2.98 2.125 13.139 13.139 0 0 0-.859-3.563c-1.57-3.958-4.973-6.917-8.605-9.139-3.632-2.222-7.597-3.868-11.186-6.16a36.238 36.238 0 0 1-2.98-2.123zM419.78 218.244c-.439-4.235-2.913-8-5.808-11.126-2.895-3.123-6.266-5.782-9.1-8.96a36.366 36.366 0 0 1-2.295-2.852 13.106 13.106 0 0 0-.137 3.662c.439 4.235 2.913 8 5.808 11.126 2.895 3.123 6.266 5.782 9.1 8.96a36.366 36.366 0 0 1 2.295 2.852c.217-1.206.263-2.443.137-3.662zM419.17 280.834c1.016-4.594-.272-9.407-2.227-13.687-1.955-4.28-4.572-8.237-6.442-12.555a40.019 40.019 0 0 1-1.418-3.788 14.456 14.456 0 0 0-1.418 3.788c-1.016 4.594.272 9.407 2.227 13.687 1.955 4.28 4.572 8.237 6.442 12.555a40.019 40.019 0 0 1 1.418 3.788 14.456 14.456 0 0 0 1.418-3.788zM419.17 261.804c1.016-4.594-.272-9.407-2.227-13.687-1.955-4.28-4.572-8.237-6.442-12.555a40.019 40.019 0 0 1-1.418-3.788 14.456 14.456 0 0 0-1.418 3.788c-1.016 4.594.272 9.407 2.227 13.687 1.955 4.28 4.572 8.237 6.442 12.555a40.019 40.019 0 0 1 1.418 3.788 14.456 14.456 0 0 0 1.418-3.788zM419.17 242.764c1.016-4.594-.272-9.407-2.227-13.687-1.955-4.28-4.572-8.237-6.442-12.555a40.019 40.019 0 0 1-1.418-3.788 14.456 14.456 0 0 0-1.418 3.788c-1.016 4.594.272 9.407 2.227 13.687 1.955 4.28 4.572 8.237 6.442 12.555a40.019 40.019 0 0 1 1.418 3.788 14.456 14.456 0 0 0 1.418-3.788zM327.68 218.24c.439-4.235 2.913-8 5.808-11.126 2.895-3.123 6.266-5.782 9.1-8.96a36.366 36.366 0 0 0 2.295-2.852c.217 1.206.263 2.443.137 3.662-.439 4.235-2.913 8-5.808 11.126-2.895 3.123-6.266 5.782-9.1 8.96a36.366 36.366 0 0 0-2.295 2.852 13.106 13.106 0 0 1-.137-3.662zM328.28 337.93c-1.016-4.594.272-9.407 2.227-13.687 1.955-4.28 4.572-8.237 6.442-12.555a40.019 40.019 0 0 0 1.418-3.788 14.456 14.456 0 0 1 1.418 3.788c1.016 4.594-.272 9.407-2.227 13.687-1.955 4.28-4.572 8.237-6.442 12.555a40.019 40.019 0 0 0-1.418 3.788 14.456 14.456 0 0 1-1.418-3.788zM328.28 318.89c-1.016-4.594.272-9.407 2.227-13.687 1.955-4.28 4.572-8.237 6.442-12.555a40.019 40.019 0 0 0 1.418-3.788 14.456 14.456 0 0 1 1.418 3.788c1.016 4.594-.272 9.407-2.227 13.687-1.955 4.28-4.572 8.237-6.442 12.555a40.019 40.019 0 0 0-1.418 3.788 14.456 14.456 0 0 1-1.418-3.788zM328.28 299.86c-1.016-4.594.272-9.407 2.227-13.687 1.955-4.28 4.572-8.237 6.442-12.555a40.019 40.019 0 0 0 1.418-3.788 14.456 14.456 0 0 1 1.418 3.788c1.016 4.594-.272 9.407-2.227 13.687-1.955 4.28-4.572 8.237-6.442 12.555a40.019 40.019 0 0 0-1.418 3.788 14.456 14.456 0 0 1-1.418-3.788zM328.28 375.99c-1.016-4.594.272-9.407 2.227-13.687 1.955-4.28 4.572-8.237 6.442-12.555a40.019 40.019 0 0 0 1.418-3.788 14.456 14.456 0 0 1 1.418 3.788c1.016 4.594-.272 9.407-2.227 13.687-1.955 4.28-4.572 8.237-6.442 12.555a40.019 40.019 0 0 0-1.418 3.788 14.456 14.456 0 0 1-1.418-3.788zM328.28 356.96c-1.016-4.594.272-9.407 2.227-13.687 1.955-4.28 4.572-8.237 6.442-12.555a40.019 40.019 0 0 0 1.418-3.788 14.456 14.456 0 0 1 1.418 3.788c1.016 4.594-.272 9.407-2.227 13.687-1.955 4.28-4.572 8.237-6.442 12.555a40.019 40.019 0 0 0-1.418 3.788 14.456 14.456 0 0 1-1.418-3.788zM338.37 384.02a40.173 40.173 0 0 1-1.418 3.787c-1.87 4.317-4.489 8.275-6.443 12.555-1.955 4.28-3.242 9.09-2.227 13.688.151.681.352 1.352.6 2h1.436c.25-.675.515-1.344.801-2 1.87-4.317 4.489-8.275 6.443-12.555 1.955-4.28 3.242-9.09 2.227-13.688a14.45 14.45 0 0 0-1.418-3.787zM328.28 395.02c-1.016-4.594.272-9.407 2.227-13.687 1.955-4.28 4.572-8.237 6.442-12.555a40.019 40.019 0 0 0 1.418-3.788 14.456 14.456 0 0 1 1.418 3.788c1.016 4.594-.272 9.407-2.227 13.687-1.955 4.28-4.572 8.237-6.442 12.555a40.019 40.019 0 0 0-1.418 3.788 14.456 14.456 0 0 1-1.418-3.788zM338.37 403.05a40.21 40.21 0 0 1-1.418 3.789c-1.375 3.175-3.153 6.156-4.775 9.213h7.05c.877-3.02 1.231-6.164.557-9.213a14.463 14.463 0 0 0-1.418-3.789zM328.28 280.83c-1.016-4.594.272-9.407 2.227-13.687 1.955-4.28 4.572-8.237 6.442-12.555a40.019 40.019 0 0 0 1.418-3.788 14.456 14.456 0 0 1 1.418 3.788c1.016 4.594-.272 9.407-2.227 13.687-1.955 4.28-4.572 8.237-6.442 12.555a40.019 40.019 0 0 0-1.418 3.788 14.456 14.456 0 0 1-1.418-3.788zM328.28 261.8c-1.016-4.594.272-9.407 2.227-13.687 1.955-4.28 4.572-8.237 6.442-12.555a40.019 40.019 0 0 0 1.418-3.788 14.456 14.456 0 0 1 1.418 3.788c1.016 4.594-.272 9.407-2.227 13.687-1.955 4.28-4.572 8.237-6.442 12.555a40.019 40.019 0 0 0-1.418 3.788 14.456 14.456 0 0 1-1.418-3.788zM328.28 242.77c-1.016-4.594.272-9.407 2.227-13.687 1.955-4.28 4.572-8.237 6.442-12.555a40.019 40.019 0 0 0 1.418-3.788 14.456 14.456 0 0 1 1.418 3.788c1.016 4.594-.272 9.407-2.227 13.687-1.955 4.28-4.572 8.237-6.442 12.555a40.019 40.019 0 0 0-1.418 3.788 14.456 14.456 0 0 1-1.418-3.788z"/></g><g stroke-linejoin="round" stroke-linecap="round" stroke-width="5"><path d="M411.416 290.088a42.42 42.42 0 0 0-42.42 42.42v8.979h8.645v-8.979a33.775 33.775 0 0 1 33.776-33.775 33.775 33.775 0 0 1 33.775 33.775v8.979h8.645v-8.979a42.42 42.42 0 0 0-42.42-42.42z"/><path d="m380.37 337 8.161 57.27h45.768L442.46 337h-62.09z"/><path d="M425.68 301.89c-.583 3.505-2.969 6.66-6.184 8.173-1.903.896-4.054 1.232-6.148 1.039a13.382 13.382 0 0 1-5.909-2.036c-3.864-2.453-6.312-6.744-7.28-11.216-.847-3.916-.664-7.982-.228-11.964.418-3.813 1.067-7.612 2.202-11.277 1.044-3.373 2.601-6.755 5.384-8.928 2.026-1.582 4.638-2.413 7.202-2.228 2.675.192 5.294 1.536 6.825 3.739.799 1.15 1.29 2.493 1.567 3.865.276 1.372.345 2.778.353 4.178.013 2.349-.145 4.72-.788 6.979-.215.756-.486 1.502-.9 2.17-.414.668-.978 1.257-1.68 1.611a3.666 3.666 0 0 1-1.789.378 4.158 4.158 0 0 1-1.767-.487c-.994-.527-1.765-1.433-2.208-2.468-.736-1.722-.574-3.706-.067-5.508.173-.615.384-1.219.533-1.84.149-.621.234-1.266.15-1.899-.061-.457-.213-.908-.49-1.276s-.686-.647-1.141-.718a1.767 1.767 0 0 0-1.127.225 2.463 2.463 0 0 0-.832.808c-.426.654-.584 1.441-.733 2.207-.818 4.215-1.595 8.443-2.047 12.712-.292 2.753-.438 5.605.455 8.225.282.827.667 1.624 1.195 2.32.528.696 1.202 1.29 1.99 1.668.9.432 1.938.57 2.92.388a4.782 4.782 0 0 0 2.587-1.408 33.792 33.792 0 0 1 7.956 2.566z" fill-rule="evenodd"/></g></g><g stroke-width="11"><path d="M68.333 617.396c52.52 113.32 168.42 191.7 301.92 191.78 133.35-.161 249.22-78.56 301.82-191.78H68.333z" fill="#090" stroke-linejoin="round" stroke-linecap="round"/><path d="m25.27 78.41 13.398 416.62c7.415 175.25 153.92 314.05 331.59 314.14 177.51-.215 324.07-139.06 331.59-314.14l13.398-416.62h-344.98z" fill="none"/></g><g stroke-linejoin="round"><g stroke-linecap="round"><g fill="gold"><path stroke-width="8" d="M232.65 409.18h281.73v208.56H232.65z"/><g stroke-width="5"><path d="M256.21 407.68h46.921v30.08H256.21zM396.97 407.68h46.921v30.08H396.97z"/><path d="M350.05 407.68h46.921v30.08H350.05z"/><path d="M303.13 407.68h46.921v30.08H303.13zM443.89 407.68h46.921v30.08H443.89zM232.65 407.68v30.08h23.561v-30.08H232.65zm258.17 0v30.08h23.561v-30.08H490.82zM279.67 437.76h46.921v30.08H279.67zM420.43 437.76h46.921v30.08H420.43z"/><path d="M373.51 437.76h46.921v30.08H373.51z"/><path d="M326.59 437.76h46.922v30.08H326.59zM467.35 437.76h46.921v30.08H467.35zM232.75 437.76h46.921v30.08H232.75z"/><path d="M256.21 467.833h46.921v30.08H256.21zM396.97 467.833h46.921v30.08H396.97z"/><path d="M350.05 467.833h46.921v30.08H350.05z"/><path d="M303.13 467.833h46.921v30.08H303.13zM443.89 467.833h46.922v30.08H443.89zM232.65 467.833v30.08h23.561v-30.08H232.65zm258.17 0v30.08h23.561v-30.08H490.82zM279.67 497.913h46.921v30.08H279.67zM420.43 497.913h46.921v30.08H420.43z"/><path d="M373.51 497.913h46.921v30.08H373.51z"/><path d="M326.59 497.913h46.921v30.08H326.59zM467.36 497.913h46.921v30.08H467.36zM232.75 497.913h46.922v30.08H232.75z"/><path d="M256.21 527.99h46.921v30.08H256.21zM396.97 527.99h46.921v30.08H396.97z"/><path d="M350.05 527.99h46.921v30.08H350.05z"/><path d="M303.13 527.99h46.922v30.08H303.13zM443.89 527.99h46.921v30.08H443.89zM232.65 527.99v30.08h23.561v-30.08H232.65zm258.17 0v30.08h23.561v-30.08H490.82zM279.67 558.07h46.921v30.08H279.67zM420.43 558.07h46.921v30.08H420.43z"/><path d="M373.51 558.07h46.921v30.08H373.51z"/><path d="M326.59 558.07h46.921v30.08H326.59zM467.35 558.07h46.922v30.08H467.35zM232.75 558.07h46.921v30.08H232.75z"/><path d="M256.21 588.15h46.921v30.08H256.21zM396.97 588.15h46.921v30.08H396.97z"/><path d="M350.05 588.15h46.921v30.08H350.05z"/><path d="M303.13 588.15h46.922v30.08H303.13zM443.89 588.15h46.921v30.08H443.89zM232.65 588.15v30.08h23.561v-30.08H232.65zm258.17 0v30.08h23.561v-30.08H490.82z"/></g><g stroke-width="8"><path d="M232.65 146.161h27.15v261.52h-27.15zM487.22 146.161h27.15v261.52h-27.15z"/><path d="M514.38 146.161v27.15H232.65v-27.15z"/></g></g><path stroke-width="8" d="M232.65 409.18h281.73v208.56H232.65z" fill="none"/><circle cx="373.51" cy="221.01" r="31.751" fill="gold" stroke-width="5"/></g><g fill="gold" stroke-width="5"><path d="m354.63 174.5 1.365 40.723c.041 1.225.177 2.448.455 3.639.42 1.798.953 3.602 1.82 5.232 1.247 2.343 2.698 4.721 4.777 6.371 1.622 1.288 3.661 2.076 5.688 2.502 3.117.655 6.438.655 9.555 0 2.027-.426 4.065-1.214 5.688-2.502 2.079-1.65 3.53-4.03 4.777-6.371.868-1.63 1.4-3.434 1.82-5.232.278-1.19.414-2.414.455-3.639l1.365-40.723h-18.883z" fill-rule="evenodd"/><circle cx="373.51" cy="218.41" r="5.232" stroke-linecap="round"/></g></g></g><circle cx="373.51" cy="194.9" r="2.534"/></g></svg>