<svg xmlns="http://www.w3.org/2000/svg" width="701.33" height="741.77" viewBox="0 0 701.334 741.769"><path d="m5.68 5.504 13.398 416.62c7.415 175.25 153.92 314.05 331.59 314.14 177.51-.215 324.07-139.06 331.59-314.14l13.398-416.62h-344.98z" fill="#03f" fill-rule="evenodd"/><g stroke="#000"><g stroke-width="11"><path d="M59.29 565.26c56.49 102.01 166.19 170.94 291.38 171.01 125.03-.151 234.7-69.08 291.25-171.01H59.3z" fill="#090" stroke-linecap="round"/><path d="m5.68 5.504 13.398 416.62c7.415 175.25 153.92 314.05 331.59 314.14 177.51-.215 324.07-139.06 331.59-314.14l13.398-416.62h-344.98z" fill="none"/></g><g stroke-linecap="round"><g fill="#fff" stroke-linejoin="round" stroke-width="8"><path d="m177.875 318.604-91.21 75.15 10.92 12.453 37.26 49.53 43.04 5.461h107.91v-142.6h-107.91z"/><path d="m327.545 278.784-37.934 30.832-90.54 73.59-12.203 9.918 12.203 13.1H97.581v134.64h-7.707v24.408h524.79v-24.408l-5.139-1.926v-260.15h-281.98z"/></g><g fill="none" fill-rule="evenodd" stroke-width="5"><path d="m186.875 393.114-100.21.643M138.485 406.214l-10.92-12.453 50.31-75.15M97.585 540.854h517.08M138.485 406.214v134.64M125.925 540.854v24.408"/></g></g><g fill="none" fill-rule="evenodd"><g stroke-width="8"><path d="M191.475 540.854v24.408M599.765 540.854v24.408M199.075 406.214v134.64M592.835 540.854v-232.4h-71.1v-29.668"/></g><g stroke-width="5"><path d="M199.075 406.214h393.76M192.975 392.154h399.86"/></g></g><g stroke-linejoin="round" transform="translate(-18.875 -50.906)"><path d="M135.79 486.95a6.622 17.751 0 0 0-6.621 17.751v59.59h13.244v-59.59a6.622 17.751 0 0 0-6.623-17.752zm51.676 0a12.98 17.751 0 0 0-12.98 17.751v59.59h25.96v-59.59a12.98 17.751 0 0 0-12.98-17.752zm72.394 0a12.98 17.751 0 0 0-12.98 17.751v59.59h25.96v-59.59a12.98 17.751 0 0 0-12.98-17.752zm73.122 0A12.98 17.751 0 0 0 320 504.7v59.59h25.961v-59.59a12.98 17.751 0 0 0-12.98-17.752zm79.74 0a12.98 8.875 0 0 0-12.98 8.874v29.795h25.96v-29.795a12.98 8.875 0 0 0-12.98-8.875zm86.228 0a12.98 17.751 0 0 0-12.98 17.751v59.59h25.96v-59.59a12.98 17.751 0 0 0-12.98-17.752zm-99.21 60.917v59.59h25.96v-59.59h-25.96z"/><g fill="#fff" stroke-width="8"><path d="M535.2 201.74h85.39v112.64H535.2z"/><g fill-rule="evenodd"><path d="m577.9 270.78-50.51 42.24v16.666h101.02V313.02l-50.51-42.24zM577.9 119.99l-.002.002v.002l-36.426 56.771-14.988 6.813 8.721 18.17h85.388l8.721-18.17-14.988-6.813-36.426-56.771v-.004z"/></g></g><circle cx="577.9" cy="110.08" r="8.686"/></g><g stroke-width="5"><g stroke-linecap="round"><g fill="none" fill-rule="evenodd"><path d="M559.025 50.484v-23.09M547.825 39.114h22.401M507.605 134.664h102.83M528.125 117.244h61.803"/></g><path fill="#fff" stroke-linejoin="round" d="M535.965 150.834h46.12v102.05h-46.12z"/></g><g fill="none" fill-rule="evenodd" stroke-linejoin="round"><path d="m537.675 150.834-2.775-16.17 10.276-17.424 13.847-48.16"/><path d="m580.365 150.834 2.775-16.17-10.276-17.424-13.847-48.16"/></g></g><path d="M559.022 196.231a8.729 11.461 0 0 0-8.729 11.46v22.62h17.457v-22.62a8.729 11.461 0 0 0-8.728-11.46z" stroke-linejoin="round"/><path d="M508.515 262.114h101.01" fill="none" stroke-width="5"/></g></svg>