<svg xmlns="http://www.w3.org/2000/svg" width="701.33" height="741.77" viewBox="0 0 701.334 741.769"><path d="m5.68 5.498 13.398 416.62c7.415 175.25 153.92 314.05 331.59 314.14 177.51-.215 324.07-139.06 331.59-314.14l13.398-416.62h-344.98z" fill="#fff" fill-rule="evenodd"/><g stroke="#000"><g fill="#03f" transform="translate(-13.875 -55.48)"><circle cx="532.36" cy="536.68" r="19.99" stroke-linejoin="round" stroke-linecap="round" stroke-width="5"/><g fill-rule="evenodd"><path d="m546.16 530.31-14.329 29.19-8.491 29.19 1.061 12.206 19.636 2.123a29.96 29.96 0 0 0 14.859-7.96c6.197-6.117 9.389-14.58 12.206-22.82a553.783 553.783 0 0 0 14.859-51.48l-24.943-26.535-14.859 36.09z"/><path d="M485.13 431.6c-4.128 6.588-6.02 14.548-5.307 22.289.652 7.05 3.315 13.734 6.094 20.24 2.78 6.506 5.607 12.993 8.234 19.562l9.552 23.881 11.675 6.899a830.926 830.926 0 0 0 58.907-3.715l8.491-7.43 13.267-18.574 17.513-45.11 8.491-32.372-13.798-13.267H585.96l-16.982 3.715a420.09 420.09 0 0 1-31.31 11.145 419.678 419.678 0 0 1-52.54 12.737z"/></g><path d="M19.555 60.98 32.953 477.6c7.415 175.25 153.92 314.05 331.59 314.14V60.97H19.553z" stroke-linejoin="round" stroke-linecap="round" stroke-width="11"/></g><path d="M478.635 233.36c-2.684-3.75-6.286-6.899-8.2-11.09-1.449-3.175-1.82-6.717-2.235-10.183-.414-3.465-.919-7.01-2.589-10.08-1.551-2.846-4.04-5.109-6.844-6.735-2.804-1.626-5.92-2.647-9.07-3.395-5.204-1.234-10.628-1.75-15.918-.965-6.082.903-11.781 3.482-17.234 6.323-5.453 2.841-10.778 5.982-16.532 8.148-3.388 1.276-7.07 2.211-10.612 1.447-3.243-.7-6.138-2.871-7.718-5.788-3.3 4.132-4.581 9.804-3.377 14.953.889 3.803 3.069 7.265 5.997 9.851 2.928 2.586 6.579 4.307 10.403 5.103 6.797 1.415 13.813-.041 20.742-.482 1.596-.102 3.208-.148 4.788.102 1.58.251 3.138.815 4.377 1.827 1.057.863 1.847 2.024 2.384 3.279.537 1.254.829 2.602.992 3.957.12.993.171 2 .043 2.992s-.442 1.971-1.01 2.796c-.519.757-1.239 1.366-2.046 1.803-.807.437-1.698.706-2.605.846-1.814.278-3.664.043-5.478-.237-4.963-.766-9.95-1.87-14.953-1.447-4.7.397-9.404 2.266-12.541 5.788-2.644 2.969-4.01 6.882-4.684 10.8-.677 3.918-.73 7.913-1.104 11.871-.651 6.884-2.402 13.92-6.753 19.295a23.464 23.464 0 0 1-10.13 7.235 15.78 15.78 0 0 0 7.23 2.879c2.6.335 5.283.006 7.724-.949 4.664-1.825 8.176-5.746 12.541-8.2 1.947-1.095 4.098-1.9 6.328-2.01 2.231-.112 4.549.522 6.213 2.01a7.56 7.56 0 0 1 2.126 3.306 8.52 8.52 0 0 1 .286 3.93c-.414 2.606-1.96 4.921-3.859 6.753-2.512 2.423-5.629 4.106-8.699 5.766-3.07 1.66-6.18 3.361-8.666 5.81-4.444 4.378-6.428 10.697-7.235 16.883-.36 2.758-.526 5.575-1.447 8.2a14.947 14.947 0 0 1-4.824 6.753 24.11 24.11 0 0 0 9.165 0 24.198 24.198 0 0 0 13.02-7.235c-4.386 6.769-6.142 15.196-4.824 23.15 1.588 9.584 7.353 17.987 13.989 25.08a102.136 102.136 0 0 0 11.577 10.612 17.927 17.927 0 0 1-.845-9.06 17.912 17.912 0 0 1 3.739-8.301c2.318-2.858 5.459-4.929 8.68-6.706 3.222-1.778 6.585-3.316 9.649-5.353 4.819-3.203 8.86-7.687 11.09-13.02a25.684 25.684 0 0 0 1.929-11.577 52.235 52.235 0 0 1 2.412 14.953c.091 6.41-.985 12.964.707 19.15.846 3.092 2.421 6.05 4.849 8.14 1.214 1.046 2.632 1.865 4.163 2.336 1.532.471 3.178.59 4.751.284 1.748-.34 3.381-1.202 4.704-2.394 1.323-1.193 2.339-2.71 3.01-4.359 1.216-2.97 1.318-6.298.868-9.476-.45-3.178-1.426-6.253-2.315-9.337-2.063-7.158-3.67-14.438-5.306-21.706-1.466-6.516-2.965-13.1-2.894-19.777.015-1.416.106-2.857.603-4.184a5.925 5.925 0 0 1 1.064-1.826 4.417 4.417 0 0 1 1.71-1.226c1.209-.469 2.615-.296 3.759.316 1.144.611 2.039 1.627 2.655 2.768 1.234 2.282 1.387 4.966 1.786 7.529.715 4.588 2.288 8.993 3.377 13.506.86 3.566 1.419 7.206 2.47 10.72 1.051 3.514 2.643 6.958 5.248 9.54 2.975 2.947 7.05 4.55 11.156 5.377 4.105.827 8.314.951 12.48 1.376 2.911.297 5.866.741 8.744.21 1.439-.266 2.846-.781 4.04-1.624 1.196-.843 2.173-2.027 2.65-3.41.356-1.032.428-2.151.294-3.234-.135-1.084-.472-2.135-.914-3.134-.883-1.998-2.174-3.784-3.239-5.691-2.539-4.546-3.767-9.758-3.952-14.961-.185-5.203.644-10.407 2.023-15.428 1.054-3.841 2.435-7.621 2.894-11.577.584-5.03-.356-10.138-1.929-14.953-1.346-4.12-3.175-8.119-5.788-11.577a29.716 29.716 0 0 0-5.788-5.788 31.204 31.204 0 0 0 10.612 4.341c5.555 1.143 11.345.744 16.883-.482a57.788 57.788 0 0 0 12.541-4.341 54.44 54.44 0 0 1-6.753-4.824c-4.156-3.475-7.831-7.636-10.13-12.541-2.246-4.793-3.113-10.135-5.306-14.953-2.157-4.74-5.645-8.928-10.13-11.577-2.485-1.467-5.315-2.463-8.2-2.412-3.086.055-6.04 1.297-8.683 2.894-1.642.993-3.195 2.127-4.839 3.116-1.644.989-3.404 1.838-5.29 2.19-3.426.639-7.116-.499-9.647-2.894-1.756-1.661-2.934-3.823-4.341-5.788z" fill="#090" fill-rule="evenodd" stroke-linejoin="round" stroke-width="8"/></g><g fill-rule="evenodd"><path d="M430.07 218.26c-.7-.005-1.399.011-2.098.045a38.222 38.222 0 0 1 15.998 5.332c4.04 2.448 7.598 5.641 10.666 9.23a53.586 53.586 0 0 1 7.795 12.1l2.051-3.691a37.078 37.078 0 0 0-4.102-7.385c-4.02-5.61-9.633-10.06-16-12.717a37.933 37.933 0 0 0-14.311-2.916m32.361 26.709-2.279 3.488a92.184 92.184 0 0 1 19.1 15.791c5.511 5.975 10.243 12.713 13.605 20.11a65.673 65.673 0 0 1 5.857 28.436 53.36 53.36 0 0 0-1.566-28.635c-3.327-9.766-9.474-18.409-16.838-25.635a88.726 88.726 0 0 0-17.879-13.559m-31.23 16.439a41.716 41.716 0 0 0-17.92 4.383 41.938 41.938 0 0 0-14.252 11.68 42.306 42.306 0 0 1 16.02-9.559c4.966-1.616 10.213-2.296 15.436-2.275a59.244 59.244 0 0 1 15.768 2.205l-1.613-4.385a41.006 41.006 0 0 0-9.148-1.893 40.364 40.364 0 0 0-4.287-.156m-2.605 29.984-2.033 2.443a58.47 58.47 0 0 1 10.83 10.98c3.736 4.956 6.679 10.524 8.543 16.443a51.518 51.518 0 0 1 1.939 22.07 42.038 42.038 0 0 0 1.332-21.844c-1.597-7.72-5.394-14.91-10.51-20.908a54.081 54.081 0 0 0-10.1-9.184"/><g stroke="#000"><path d="M475.975 36.23a13.268 13.268 0 0 0-5.727 1.182 13.261 13.261 0 0 0-5.791 5.143 13.158 13.158 0 0 0-1.428 3.33c3.591-4.829 8.998-8.278 14.898-9.471a13.052 13.052 0 0 0-1.953-.184zm-12.945 9.654c-.094.126-.192.249-.283.377-3.11 4.361-4.747 9.93-3.693 15.182.798 3.977 3.122 7.609 6.328 10.09 3.206 2.485 7.26 3.825 11.316 3.857 3.337.027 6.617-.796 9.852-1.619 3.234-.824 6.506-1.66 9.844-1.664 1.551-.002 3.112.179 4.588.656 1.476.477 2.865 1.26 3.957 2.361a8.382 8.382 0 0 1 2.143 3.746 8.377 8.377 0 0 1-.018 4.316c-5.34.129-10.678.403-16 .82-5.063.397-10.253.964-14.771 3.283-2.387 1.225-4.538 2.929-6.197 5.04-1.659 2.108-2.816 4.623-3.24 7.271-.453 2.824-.064 5.766 1.035 8.406 1.099 2.64 2.898 4.977 5.119 6.777 2.688 2.179 5.973 3.569 9.375 4.201 3.402.632 6.917.522 10.32-.1 5.424-.991 10.647-3.319 14.773-6.975 3.401-3.01 5.999-6.86 7.916-10.98a43.281 43.281 0 0 0 2.342-6.254 9.348 9.348 0 0 1 5.961.035 9.348 9.348 0 0 1 4.707 3.658c.744 1.128 1.233 2.405 1.643 3.693a36.052 36.052 0 0 1 1.641 9.03 45.088 45.088 0 0 0-12.721.41c-5.609.987-11.09 3.083-15.592 6.564-3.8 2.936-6.84 6.805-9.03 11.08-1.296 2.532-2.308 5.236-2.691 8.05-.384 2.819-.117 5.762 1.049 8.357 1.224 2.725 3.398 4.969 5.947 6.527 2.549 1.559 5.462 2.46 8.416 2.91 7.34 1.118 15.04-.575 21.336-4.514a32.785 32.785 0 0 0 11.9-13.13 37.801 37.801 0 0 1 2.871 7.797c.895 3.616 1.253 7.355 1.232 11.08a55.838 55.838 0 0 1-1.643 13.13l18.05.41a59.64 59.64 0 0 0 2.873-16.412c.226-6.874-.778-13.876-3.693-20.11-2.832-6.05-7.05-11.252-12.73-14.773 1.632-3.859 1.029-7.475.473-11.154-.799-5.286-2.417-10.66-5.387-15.11-2.152-3.221-5.194-5.924-8.617-7.797a20.955 20.955 0 0 0-14.07-2.137 24.736 24.736 0 0 0-3.16-15.1c-2.333-4.02-5.911-7.393-10.26-9.03-5.095-1.915-10.844-1.328-16 .41-2.374.8-4.663 1.832-7.03 2.666-2.362.834-4.831 1.472-7.336 1.438-4.116-.056-8.185-2.051-10.668-5.334a13.256 13.256 0 0 1-2.65-7.277 13.217 13.217 0 0 1 .471-4.178zm29.24 50.32a9.332 9.332 0 0 1 2.525.289c.741.196 1.462.503 2.057.986s1.057 1.155 1.199 1.908c.141.746-.04 1.526-.387 2.201-.347.675-.854 1.255-1.395 1.787a18.474 18.474 0 0 1-2.682 2.162 22.773 22.773 0 0 1-4.561 2.361 9.418 9.418 0 0 1-5.086.412c-.934-.185-1.851-.519-2.619-1.082-.768-.563-1.379-1.369-1.602-2.295a3.844 3.844 0 0 1 .014-1.775c.206-.871.681-1.664 1.281-2.328.601-.664 1.325-1.207 2.082-1.686a19.465 19.465 0 0 1 2.764-1.436 20.098 20.098 0 0 1 3.867-1.217 13.835 13.835 0 0 1 2.541-.289zm28.416 30.607a7.757 7.757 0 0 1 1.537.121c.883.166 1.736.528 2.43 1.1.694.572 1.22 1.36 1.418 2.236.181.801.085 1.647-.17 2.428-.255.781-.663 1.502-1.113 2.189-1.131 1.727-2.536 3.264-4.074 4.641-.89.796-1.828 1.543-2.852 2.158-1.604.964-3.437 1.6-5.309 1.609-1.87.009-3.78-.651-5.082-1.994-1.264-1.304-1.874-3.199-1.668-5 .198-1.732 1.105-3.334 2.33-4.574 1.225-1.24 2.753-2.143 4.34-2.865a23.356 23.356 0 0 1 6.67-1.924 13.515 13.515 0 0 1 1.543-.121z" fill="#090" stroke-linejoin="round" stroke-linecap="round" stroke-width="5"/><g fill="none"><path d="m5.68 5.498 13.398 416.62c7.415 175.25 153.92 314.05 331.59 314.14 177.51-.215 324.07-139.06 331.59-314.14l13.398-416.62h-344.98z" stroke-width="11"/><g stroke-linecap="round" stroke-width="5"><path d="M517.735 94.68a62.41 62.41 0 0 0 1.929-12.395M507.065 83.19a51.953 51.953 0 0 1-1.29 4.617c-2.285 6.927-6.207 13.539-12.18 17.727-1.407.987-2.925 1.835-4.561 2.362-1.636.527-3.396.724-5.086.412-.938-.173-1.858-.507-2.625-1.073-.768-.566-1.374-1.376-1.595-2.304a3.857 3.857 0 0 1 .014-1.775 4.948 4.948 0 0 1 .728-1.625c.668-.99 1.626-1.749 2.635-2.388 2.02-1.281 4.296-2.137 6.632-2.653 1.67-.369 3.449-.561 5.065 0a5.767 5.767 0 0 1 3.256 2.894M540.295 137.35a60.554 60.554 0 0 0 6.965-18.875M531.685 111.09a22.017 22.017 0 0 1-.091 11.603c-1.274 4.504-3.949 8.473-6.799 12.186-1.982 2.583-4.128 5.136-6.927 6.799-1.608.955-3.437 1.598-5.308 1.61-1.871.012-3.781-.651-5.083-1.995-1.264-1.305-1.874-3.198-1.668-5 .198-1.732 1.106-3.333 2.331-4.574 1.224-1.241 2.751-2.147 4.34-2.866a24.396 24.396 0 0 1 6.67-1.924c1.022-.143 2.071-.22 3.079 0 1.729.377 3.229 1.677 3.848 3.335"/></g></g></g><path d="M446.835 441.1c-1.398-.006-2.784.388-4.02 1.043-1.235.655-2.325 1.565-3.266 2.6-3.01 3.314-4.444 7.803-4.967 12.252-.771 6.563.383 13.556 4.305 18.875a20.808 20.808 0 0 0 9.934 7.285 9.126 9.126 0 0 1-2.453 4.5 9.126 9.126 0 0 1-4.5 2.453 9.193 9.193 0 0 1-6.955-1.324 48.266 48.266 0 0 0-3.973-8.609c-2.475-4.217-5.593-8.04-8.941-11.59-2.19-2.321-4.456-4.697-7.229-6.277-2.746-1.565-5.837-2.903-8.996-2.994-2.597-.075-5.329.645-7.525 2.033-2.193 1.386-4.04 3.53-5.059 5.914-1.075 2.508-1.172 5.435-.836 8.143.339 2.729 1.486 5.334 2.824 7.752 2.296 4.148 5.519 7.854 9.602 10.266 4.561 2.694 9.945 3.652 15.232 3.973 2.866.174 5.743.174 8.609 0-.215 3.409-1 6.781-2.318 9.934-1.176 2.816-2.79 5.479-4.967 7.617a18.357 18.357 0 0 1-4.635 3.311 32.34 32.34 0 0 0-4.969-5.629c-2.745-2.463-5.908-4.448-9.271-5.961-4.558-2.051-9.607-3.249-14.568-2.648-4.572.554-9.01 2.721-11.922 6.291-2.107 2.586-3.375 5.96-2.98 9.271.301 2.526 1.551 4.889 3.293 6.742 1.742 1.853 3.958 3.218 6.311 4.186 5.393 2.218 11.433 2.379 17.219 1.656a59.84 59.84 0 0 0 12.584-2.98 19.219 19.219 0 0 1-.332 4.635c-1.167 5.985-5.152 11.12-9.934 14.902-3.037 2.404-6.409 4.342-9.625 6.502-3.216 2.159-6.328 4.591-8.588 7.736-3.127 4.351-4.42 9.891-3.973 15.23.345 4.124 1.765 8.277 4.635 11.26 2.645 2.749 6.451 4.342 10.266 4.305a14.233 14.233 0 0 0 8.941-3.313 19.747 19.747 0 0 1-8.279 0c-2.446-.526-4.839-1.557-6.623-3.311-2.332-2.293-3.419-5.673-3.311-8.941.142-4.258 2.169-8.284 4.918-11.539 2.749-3.255 6.197-5.836 9.652-8.328 3.244-2.34 6.533-4.637 9.498-7.322 2.965-2.685 5.618-5.791 7.322-9.41a22.547 22.547 0 0 0 1.699-13.908 33.815 33.815 0 0 0 6.977-6.115c3.94-4.553 6.608-10.11 8.279-15.893a54.822 54.822 0 0 0 1.986-10.928 41.57 41.57 0 0 0 4.967 0c3.398-.204 6.916-.892 9.604-2.98a10.813 10.813 0 0 0 3.973-6.623 12.012 12.012 0 0 0 5.961 1.656c3.635.033 7.07-1.58 10.264-3.313a111.011 111.011 0 0 0 13.908-8.939l-1.324-9.934a35.579 35.579 0 0 0-12.584 8.939c-.983 1.09-1.9 2.244-2.955 3.264-1.056 1.02-2.27 1.913-3.666 2.365a6.898 6.898 0 0 1-5.631-.662c.23-5.737.23-11.482 0-17.219-.196-4.891-.609-9.955-2.979-14.238-.886-1.602-2.048-3.072-3.518-4.164-1.47-1.092-3.261-1.79-5.092-1.797m-1.635 8.975c1.745.07 2.92 2.511 3.949 4.04 1.188 1.761 1.911 3.841 2.287 5.947.376 2.106.411 4.26.297 6.396a45.922 45.922 0 0 1-1.436 9.188 13.027 13.027 0 0 1-4.881-4.02c-1.889-2.562-2.774-5.741-3.158-8.9-.35-2.879-.829-5.447-.143-8.04.456-1.721.964-4.342 2.727-4.594.121-.017.241-.022.357-.018m-42.619 19.11c.295-.006.59.032.885.043 1.938.073 3.904-.172 5.816.153 1.176.2 2.305.64 3.409 1.093 2.514 1.03 5.212 1.905 7.275 3.672 2.077 1.778 3.628 4.165 4.781 6.664a25.15 25.15 0 0 1 2.297 9.76 32.164 32.164 0 0 0-4.881-.574c-2.391-.097-4.784.072-7.176 0-2.185-.066-4.378-.338-6.459-1.01-2.081-.67-4.054-1.752-5.6-3.299-2.362-2.363-3.431-5.722-4.307-8.898a10.108 10.108 0 0 1-.324-3.711 4.719 4.719 0 0 1 .543-1.781c.299-.54.711-1.043 1.217-1.398.48-.338 1.069-.506 1.641-.639.288-.067.587-.071.883-.076m-12.715 41.912c3.731-.104 7.474.823 10.766 2.582 1.972 1.054 3.78 2.397 5.455 3.877a39.694 39.694 0 0 1 4.307 4.449 29.765 29.765 0 0 1-9.475 3.588c-3.64.702-7.415.715-11.05 0-2.7-.53-5.386-1.496-7.463-3.301-1.01-.877-1.883-1.991-2.154-3.301a4.794 4.794 0 0 1 .105-2.273 6.153 6.153 0 0 1 1.043-2.033c.962-1.261 2.33-2.179 3.811-2.746 1.481-.567 3.073-.798 4.658-.842"/><g stroke="#000" stroke-width="5"><path d="M439.17 132.3c-3.135.026-6.253.499-9.221 1.51-6.877 2.342-12.557 7.411-16.887 13.244-6.278 8.458-9.985 18.499-14.902 27.814a117.694 117.694 0 0 1-10.596 16.557c6.86-3.921 13.94-7.46 21.19-10.596 5.654-2.444 11.466-4.657 17.549-5.629 6.977-1.115 14.262-.538 20.861 1.986 10.05 3.844 17.85 11.801 26.49 18.213a98.356 98.356 0 0 0 9.604 6.291 1292.68 1292.68 0 0 1 22.186-10.596 80.21 80.21 0 0 0-3.311-4.305 80.549 80.549 0 0 0-6.754-7.205 30.862 30.862 0 0 1-4.174-3.723 80.414 80.414 0 0 1 4.174 3.723 31.094 31.094 0 0 0 8.74 4.555c4.778 1.581 9.868 1.976 14.9 1.988 3.982 0 7.964-.211 11.92-.662-1.202 7.971-5.255 15.481-11.258 20.861-5.288 4.74-11.883 7.757-18.535 10.242-6.652 2.486-13.494 4.521-19.875 7.639-17.267 8.436-29.841 24.13-40.07 40.4-8.967 14.265-16.644 29.474-21.19 45.697a129.935 129.935 0 0 0-4.637 41.723 123.193 123.193 0 0 1 8.279-38.41c6.45-16.496 16.377-31.39 26.822-45.695 9.371-12.834 19.597-25.646 33.443-33.445 10.279-5.79 21.986-8.485 32.781-13.244a92.611 92.611 0 0 0 13.908-7.617 191.2 191.2 0 0 1 3.643 18.875c1.01 7.13 1.608 14.385.662 21.523-.27 2.037-.671 4.053-1.141 6.06a35.598 35.598 0 0 0 3.738 6.959c2.153 3.109 4.795 5.863 7.691 8.295.81.68 1.647 1.329 2.496 1.959.522-8.08 2.07-16.09 4.102-23.932 1.83-7.07 4.04-14.03 6.623-20.861a232.225 232.225 0 0 1 6.953 20.861c2.343 8.325 4.25 16.859 8.117 24.596 1.503 3.01 3.306 5.887 5.578 8.365 2.272 2.478 5.03 4.551 8.16 5.781 3.203 1.259 6.748 1.606 10.146 1.063 3.398-.543 6.645-1.968 9.391-4.04 5.04-3.812 8.271-9.713 9.602-15.895a33.555 33.555 0 0 0-.029-14.238 22.466 22.466 0 0 0 7.977-5.629c1.508-1.663 2.768-3.561 3.643-5.629 1.683-3.98 1.852-8.68 0-12.584-1.388-2.925-3.77-5.23-5.959-7.615-2.378-2.592-4.604-5.397-5.945-8.648-.624-1.513-1.052-3.186-.693-4.783.179-.798.56-1.56 1.141-2.137.581-.576 1.368-.957 2.186-.988a3.487 3.487 0 0 1 1.555.326c.486.221.926.535 1.322.893.793.715 1.41 1.6 2.09 2.424 1.894 2.296 4.285 4.12 6.623 5.961 1.241.977 2.478 1.967 3.84 2.766 1.362.798 2.864 1.404 4.438 1.539 1.322.114 2.665-.109 3.904-.584 1.239-.474 2.378-1.198 3.381-2.066 2.845-2.464 4.576-6.17 4.637-9.934a13.992 13.992 0 0 1-7.947 4.967c-2.213.48-4.617.387-6.623-.662-1.955-1.023-3.356-2.836-4.635-4.635-2.462-3.463-4.797-7.168-8.279-9.604-2.323-1.624-5.113-2.609-7.947-2.648a12.839 12.839 0 0 0-6.258 1.527 12.376 12.376 0 0 0-4.67 4.432c-1.896 3.128-2.272 7.06-1.324 10.598.782 2.917 2.396 5.541 4.182 7.977 1.786 2.435 3.766 4.729 5.422 7.254 2.02 3.076 3.561 6.588 3.643 10.266a13.951 13.951 0 0 1-1.563 6.713 52.556 52.556 0 0 0-2.08-4.727c-2.485-4.967-5.882-9.645-10.596-12.582-3.081-1.92-6.646-3.03-10.266-3.311-3.67-.284-7.504.32-10.596 2.316-3.451 2.227-5.737 6.165-5.961 10.266a30.049 30.049 0 0 0-3.643-11.59c-1.652-2.963-3.807-5.637-6.291-7.947-2.327-2.164-4.933-4.01-7.4-6.01-2.468-2-4.832-4.206-6.508-6.906-2.146-3.459-3.051-7.781-1.961-11.703.677-2.436 2.09-4.637 3.9-6.402 1.81-1.765 4.01-3.106 6.34-4.08 6.513-2.721 13.863-2.577 20.861-1.656 10.441 1.374 20.589 4.361 30.795 6.955a420.522 420.522 0 0 0 15.563 3.643 92.723 92.723 0 0 1 2.98-3.643c5.351-6.21 11.499-11.678 17.219-17.551a170.992 170.992 0 0 0 17.549-21.19 170.95 170.95 0 0 1-32.781 6.623c-10.115 1.028-20.297 1.152-30.463 1.324-15.345.261-30.711.634-46.03-.332-16.372-1.033-32.619-3.593-48.676-6.953-13.219-2.766-26.402-6.102-38.742-11.59-6.34-2.82-12.488-6.217-19.21-7.947-3.036-.782-6.187-1.203-9.322-1.178zm151.7 106.59c.273.012.546.044.814.092 1.072.193 2.083.637 3.055 1.129 1.944.985 3.794 2.187 5.348 3.715 1.888 1.857 3.303 4.177 4.158 6.684a18.249 18.249 0 0 1 .893 7.576 20.58 20.58 0 0 1-7.131.299c-1.857-.248-3.691-.759-5.348-1.635-1.628-.861-3.074-2.077-4.16-3.564-1.476-2.02-2.254-4.494-2.525-6.982-.14-1.285-.148-2.606.223-3.844.37-1.238 1.157-2.392 2.303-2.99.724-.378 1.551-.515 2.371-.479zm-13.809 17.711a19.11 19.11 0 0 0 6.387 6.535c1.89 1.17 3.973 2 6.092 2.674 3.396 1.08 6.989 1.776 10.523 1.32a16.59 16.59 0 0 0 4.33-1.17 11.777 11.777 0 0 1-.594 6.98c-.64 1.562-1.62 2.978-2.818 4.166a13.496 13.496 0 0 1-4.164 2.816c-1.392.598-2.895.955-4.41.959-1.515.004-3.039-.354-4.354-1.107-1.178-.675-2.165-1.651-2.979-2.738-.814-1.087-1.464-2.288-2.072-3.502a69.141 69.141 0 0 1-3.107-7.229 75.964 75.964 0 0 1-2.834-9.705zm-29.541 25.432a57.172 57.172 0 0 1-8.104 2.453c-1.93.426-3.883.755-5.85.951-2 .2-4.03.258-6.04.154a40.776 40.776 0 0 0-.232 3.852c-.053 5.715 1.202 11.358 2.65 16.887 1.745 6.659 3.782 13.238 5.629 19.869 1.52 5.456 2.934 11.01 5.625 15.99 1.346 2.492 3.01 4.827 5.063 6.779 2.051 1.953 4.497 3.517 7.193 4.383 3.729 1.197 7.808 1.018 11.59 0 2.329-.627 4.609-1.586 6.457-3.135 1.848-1.549 3.235-3.738 3.477-6.137.153-1.522-.156-3.072-.764-4.477-.607-1.404-1.504-2.668-2.535-3.799-2.062-2.261-4.633-3.986-6.967-5.965a41.45 41.45 0 0 1-9.271-11.258c-3.219-5.712-5.074-12.1-6.291-18.543-1.031-5.457-1.623-11-1.656-16.557-.003-.483.018-.966.023-1.449z" fill="#090" stroke-linejoin="round"/><g fill="none"><g stroke-linecap="round"><path d="M387.565 191.43a65.673 65.673 0 0 1 23.323-15.401c7.877-3.04 16.3-4.54 24.08-7.829 5.44-2.3 10.537-5.484 14.771-9.601 2.685-2.611 5.068-5.693 6.06-9.306.591-2.16.658-4.467.148-6.647a13.029 13.029 0 0 0-3.814-6.552 13.04 13.04 0 0 0-6.83-3.292M491.205 175.87a159.038 159.038 0 0 1-8.089-8.701M617.085 265.37a73.838 73.838 0 0 0-5.129-22.504"/></g><path d="M574.985 240.44a86.9 86.9 0 0 0 2.079 16.17c1.321 5.85 3.256 11.573 5.942 16.935.608 1.214 1.258 2.414 2.072 3.502.814 1.087 1.8 2.063 2.979 2.738 1.314.752 2.84 1.107 4.354 1.103 1.514-.005 3.02-.361 4.411-.954 3.105-1.322 5.68-3.869 6.982-6.982 1.453-3.475 1.307-7.375 1.337-11.141.031-3.792.254-7.674-.891-11.29-.8-2.527-2.26-4.836-4.159-6.685-1.561-1.52-3.405-2.727-5.348-3.714-.971-.493-1.981-.937-3.054-1.13-1.072-.192-2.22-.117-3.185.387-1.146.598-1.933 1.751-2.304 2.989-.37 1.238-.362 2.56-.222 3.844.272 2.488 1.05 4.96 2.525 6.982 1.086 1.488 2.531 2.704 4.159 3.565 1.656.876 3.491 1.385 5.348 1.634a20.59 20.59 0 0 0 7.13-.297" stroke-linejoin="round"/><path d="M577.065 256.6a18.93 18.93 0 0 0 6.388 6.536c1.892 1.165 3.977 1.987 6.091 2.674 2.409.783 4.896 1.401 7.428 1.486a18.066 18.066 0 0 0 7.428-1.337" stroke-linecap="round"/></g></g></g><g stroke="#000" stroke-linejoin="round"><g stroke-width="5"><g fill="#03f" stroke-linecap="round" transform="translate(-13.875 -55.48)"><circle cx="482.02" cy="450.43" r="19.99"/><circle cx="522.3" cy="423.73" r="19.99"/><circle cx="624.71" cy="417.85" r="19.99"/><circle cx="510.14" cy="477.12" r="19.99"/><circle cx="488.95" cy="426.79" r="19.99"/><circle cx="556.83" cy="407.59" r="19.99"/><circle cx="598.55" cy="401.96" r="19.99"/><circle cx="525.71" cy="457.59" r="19.99"/><circle cx="572.63" cy="447.57" r="19.99"/><circle cx="617.76" cy="446" r="19.99"/><circle cx="598.55" cy="481.76" r="19.99"/><circle cx="553.85" cy="492.69" r="19.99"/><circle cx="546.9" cy="526.13" r="19.99"/><circle cx="487.63" cy="483.75" r="19.99"/><circle cx="509.81" cy="522.16" r="19.99"/><circle cx="584.65" cy="517.52" r="19.99"/><circle cx="530.67" cy="601.63" r="19.99"/><circle cx="526.37" cy="561.89" r="19.99"/><circle cx="573.29" cy="560.16" r="19.99"/><circle cx="556.5" cy="599.97" r="19.99"/><circle cx="539.94" cy="643.02" r="19.99"/></g><g fill="#fff" fill-rule="evenodd"><path d="M177.405 379.31a1316.772 1316.772 0 0 0-3.278 58.07c-.083 2.413-.16 4.833-.534 7.218s-1.055 4.748-2.276 6.831c-1.417 2.418-3.559 4.411-6.088 5.619-2.892 1.382-6.164 1.718-9.366 1.873a96.88 96.88 0 0 1-9.366 0l-1.405 10.771a386.833 386.833 0 0 0 26.69.468c.566 1.808.727 3.742.468 5.619-.358 2.598-1.528 5.072-3.278 7.02-2.634 2.938-6.434 4.6-10.28 5.482-3.846.882-7.812 1.066-11.729 1.543a78.54 78.54 0 0 0-11.707 2.341l.468 12.176a138.865 138.865 0 0 0 33.717-3.278 604.283 604.283 0 0 1-.937 16.858c-.663 9.546-1.553 19.08-2.81 28.566-.604 4.556-1.293 9.106-2.341 13.58-1.717 7.328-4.609 14.745-10.302 19.668-3.938 3.406-8.913 5.352-13.874 6.934-4.96 1.582-10.05 2.878-14.692 5.241a35.144 35.144 0 0 0-10.302 7.961c-.371 2.411.47 4.978 2.195 6.703 1.725 1.725 4.292 2.565 6.703 2.195 1.771-.272 3.388-1.141 4.948-2.02 1.561-.881 3.137-1.801 4.886-2.192 1.463-.327 2.98-.27 4.479-.275 1.499-.006 3.035-.085 4.418-.661 1.749-.728 3.087-2.178 4.255-3.67 1.168-1.492 2.243-3.087 3.706-4.291 1.887-1.552 4.311-2.346 6.74-2.611 2.429-.265 4.884-.035 7.309.27 2.06.259 4.123.571 6.199.542 2.076-.029 4.191-.421 5.977-1.479 1.517-.899 2.734-2.241 3.696-3.718.963-1.477 1.688-3.094 2.392-4.711a251.033 251.033 0 0 0 4.215-10.302 27.793 27.793 0 0 1-2.341 16.39c-3.371 7.04-9.508 12.278-14.517 18.263-1.177 1.406-2.304 2.873-3.112 4.519-.808 1.646-1.287 3.491-1.103 5.316a6.47 6.47 0 0 0 .693 2.38c.389.735.95 1.384 1.649 1.835.941.607 2.081.829 3.198.893 1.118.064 2.24-.017 3.358.043.863.046 1.72.177 2.583.23.863.053 1.743.028 2.568-.23.921-.288 1.739-.859 2.399-1.563.66-.704 1.17-1.538 1.584-2.41.828-1.744 1.288-3.643 2.104-5.392 1.059-2.269 2.69-4.223 4.448-6.01 1.758-1.783 3.659-3.421 5.386-5.233a40.5 40.5 0 0 0 5.619-7.493 43.539 43.539 0 0 0 5.151-13.58 32.215 32.215 0 0 0 0 11.707 32.197 32.197 0 0 0 2.81 8.429c6.871-.097 13.745.059 20.605.468 4.2.251 8.565.648 12.176 2.81 1.129.676 2.158 1.511 3.292 2.18 1.134.669 2.419 1.175 3.733 1.098 1.156-.068 2.25-.588 3.173-1.288.923-.7 1.694-1.578 2.446-2.458a132.148 132.148 0 0 0 7.961-10.302 41.87 41.87 0 0 1-13.58-2.341c-7.395-2.586-13.991-7.261-19.2-13.11-10.568-11.871-15.14-27.88-17.795-43.551a235.236 235.236 0 0 1-3.278-35.59 156.429 156.429 0 0 0 40.273 4.215c.195-1.581.508-3.148.937-4.683.328-1.175.724-2.341.839-3.555a5.974 5.974 0 0 0-.086-1.82 4.05 4.05 0 0 0-.753-1.65c-.49-.622-1.188-1.063-1.939-1.31-.752-.247-1.557-.308-2.346-.251-1.579.114-3.083.682-4.612 1.093-3.811 1.025-7.849 1.076-11.741.423-3.892-.652-7.647-1.994-11.205-3.701-3.859-1.852-7.648-4.281-9.834-7.961a13.584 13.584 0 0 1-1.873-6.088 147.621 147.621 0 0 0 10.771-2.81c2.322-.7 4.635-1.46 7.02-1.873a24.985 24.985 0 0 1 12.175.937 8.78 8.78 0 0 0 4.215-4.215c.661-1.42.928-3.02.764-4.578a8.744 8.744 0 0 0-1.701-4.319 64.715 64.715 0 0 0-13.58-.937c-2.999.11-6 .429-8.995.196-2.992-.233-6.04-1.073-8.332-3.01-1.553-1.307-2.692-3.057-3.491-4.923-.799-1.866-1.276-3.854-1.66-5.848-2.399-12.446-1.33-25.26-1.405-37.931a208.867 208.867 0 0 0-1.873-26.692l-22.478.937z"/><path d="M191.455 308.6a183.323 183.323 0 0 0-14.84 21.883c-5.726 9.914-10.519 20.357-16.535 30.1-15.231 24.662-37.905 44.08-62.752 59a264.076 264.076 0 0 1-36.525 18.264c.565 4.66.565 9.389 0 14.05a58.464 58.464 0 0 1-4.684 16.857 8.523 8.523 0 0 0 4.355 3.324 8.524 8.524 0 0 0 5.479-.045 8.492 8.492 0 0 0 3.045-1.873l1.873-7.26a5.313 5.313 0 0 0 2.576 3.512c1 .558 2.187.777 3.32.609a5.276 5.276 0 0 0 3-1.545 13.383 13.383 0 0 0 .469 6.789 20.9 20.9 0 0 0 10.303.938 25.644 25.644 0 0 0 1.873-3.512 25.654 25.654 0 0 0 1.982-7.443 3.948 3.948 0 0 1 .125-1.455c-.026.486-.071.971-.125 1.455.048.487.185.966.408 1.402a3.976 3.976 0 0 0 2.15 1.904c.862.316 1.801.322 2.717.391.591.044 1.184.117 1.775.08.592-.037 1.193-.193 1.66-.559.383-.299.654-.722.842-1.17.187-.448.296-.924.406-1.396.409-1.762.84-3.519 1.273-5.275a4.127 4.127 0 0 1 .365-1.514c-.126.504-.241 1.01-.365 1.514-.011.219-.011.44.014.658a4.13 4.13 0 0 0 .82 2.041c.536.7 1.29 1.215 2.107 1.547.817.332 1.697.49 2.576.561.608.049 1.221.057 1.822-.041.602-.098 1.193-.306 1.689-.66.746-.533 1.234-1.365 1.531-2.232.297-.867.421-1.782.576-2.686a38.941 38.941 0 0 1 1.639-6.322 8.926 8.926 0 0 0 4.449 3.279c.727.239 1.49.383 2.256.363.765-.019 1.533-.207 2.191-.598.772-.458 1.366-1.173 1.803-1.957.437-.784.728-1.64 1.01-2.492a112.99 112.99 0 0 0 2.576-9.131 16.368 16.368 0 0 0 4.447 2.408c1.573.558 3.266.875 4.918.635 1.259-.183 2.462-.687 3.512-1.404 1.373-.938 2.482-2.23 3.348-3.65.866-1.42 1.497-2.971 2.037-4.545a44.033 44.033 0 0 0 2.107-9.365 5.41 5.41 0 0 0 3.373 2.111c1.124.203 2.277.041 3.418-.004 1.059-.042 2.122.016 3.178-.076s2.127-.348 2.996-.955c1.109-.775 1.782-2.052 2.107-3.365.325-1.313.341-2.681.383-4.03.094-3.053.327-6.1.701-9.131a5.331 5.331 0 0 0 3.98 1.639c1.11-.035 2.194-.426 3.123-1.035.929-.609 1.708-1.431 2.344-2.342a11.328 11.328 0 0 0 2.025-6.457 13.328 13.328 0 0 0 3.045 1.873 13.416 13.416 0 0 0 7.727.936 13.41 13.41 0 0 0 7.727-.936 13.35 13.35 0 0 0 3.045-1.873 11.333 11.333 0 0 0 2.025 6.457c.636.911 1.415 1.732 2.344 2.342.929.609 2.01 1 3.123 1.035a5.324 5.324 0 0 0 3.98-1.639 99.56 99.56 0 0 1 .701 9.131c.042 1.352.057 2.72.383 4.03.325 1.313.998 2.59 2.107 3.365.869.607 1.94.863 2.996.955 1.056.092 2.119.034 3.178.076 1.141.045 2.294.207 3.418.004a5.41 5.41 0 0 0 3.373-2.111 44.136 44.136 0 0 0 2.107 9.365c.54 1.573 1.171 3.124 2.037 4.545.866 1.42 1.974 2.712 3.348 3.65 1.05.718 2.253 1.221 3.512 1.404 1.652.24 3.345-.077 4.918-.635a16.354 16.354 0 0 0 4.447-2.408 113.697 113.697 0 0 0 2.576 9.131c.28.853.571 1.708 1.01 2.492.437.784 1.031 1.499 1.803 1.957.659.391 1.426.578 2.191.598.765.019 1.528-.124 2.256-.363a8.927 8.927 0 0 0 4.449-3.279 38.941 38.941 0 0 1 1.639 6.322c.155.904.279 1.818.576 2.686.297.867.785 1.7 1.531 2.232.496.354 1.088.562 1.689.66.602.098 1.217.09 1.824.041.879-.071 1.757-.228 2.574-.561.817-.332 1.572-.846 2.107-1.547a4.13 4.13 0 0 0 .82-2.041 4.13 4.13 0 0 0 .014-.658c-.124-.504-.239-1.01-.365-1.514.219.475.339.992.365 1.514a400.58 400.58 0 0 1 1.273 5.275c.11.473.219.949.406 1.396.187.448.459.871.842 1.17.467.365 1.068.522 1.66.559.592.037 1.184-.036 1.775-.08.916-.069 1.854-.075 2.717-.391a3.98 3.98 0 0 0 2.15-1.904c.223-.436.36-.915.408-1.402a25.332 25.332 0 0 1-.125-1.455c.133.472.173.968.125 1.455.284 2.562.95 5.082 1.982 7.443a25.644 25.644 0 0 0 1.873 3.512 20.904 20.904 0 0 0 10.303-.938 13.383 13.383 0 0 0 .469-6.789 5.282 5.282 0 0 0 3 1.545 5.29 5.29 0 0 0 3.322-.609 5.308 5.308 0 0 0 2.574-3.512l1.873 7.26a8.492 8.492 0 0 0 3.045 1.873 8.524 8.524 0 0 0 5.479.045 8.52 8.52 0 0 0 4.355-3.324 58.572 58.572 0 0 1-4.684-16.857 58.443 58.443 0 0 1 0-14.05 264.188 264.188 0 0 1-36.525-18.264c-24.847-14.929-47.521-34.34-62.752-59-6.02-9.741-10.807-20.18-16.533-30.1a183.419 183.419 0 0 0-14.842-21.883z"/></g></g><g fill-rule="evenodd"><path d="M181.425 380.65a78.336 78.336 0 0 1-.973 8.336c-.474 2.766-1.097 5.507-1.494 8.285a51.783 51.783 0 0 0-.504 5.926l2.598-1.02c.237-.979.419-1.971.545-2.971.327-2.601.272-5.235.201-7.855a682.02 682.02 0 0 0-.373-10.701zm20.05 0a682.02 682.02 0 0 0-.373 10.701c-.071 2.621-.126 5.254.201 7.855.126 1 .308 1.991.545 2.971l2.598 1.02a51.802 51.802 0 0 0-.504-5.926c-.397-2.778-1.02-5.519-1.494-8.285a78.336 78.336 0 0 1-.973-8.336zm-29.654 6.256a78.173 78.173 0 0 1-1.596 8.238c-.68 2.723-1.507 5.41-2.111 8.15a51.702 51.702 0 0 0-.945 5.869l2.666-.818c.31-.959.565-1.936.766-2.924.521-2.57.663-5.199.789-7.818.171-3.565.316-7.13.432-10.697zm39.25 0c.115 3.567.26 7.132.432 10.697.126 2.619.268 5.249.789 7.818.2.988.456 1.965.766 2.924l2.666.818a51.702 51.702 0 0 0-.945-5.869c-.605-2.741-1.431-5.428-2.111-8.15a78.429 78.429 0 0 1-1.596-8.238zm-53.46 12.627a302.64 302.64 0 0 1-3.145 12.371c-1.015 3.667-2.099 7.315-3.082 10.99a206.912 206.912 0 0 0-2.086 8.51l3.563.473a39.269 39.269 0 0 0 1.434-4.373c1.016-3.85 1.44-7.829 1.836-11.791a962.318 962.318 0 0 0 1.48-16.18zm67.67 0c.449 5.397.941 10.791 1.48 16.18.396 3.962.82 7.941 1.836 11.791a39.269 39.269 0 0 0 1.434 4.373l3.563-.473a206.912 206.912 0 0 0-2.086-8.51c-.984-3.676-2.067-7.323-3.082-10.99a304.283 304.283 0 0 1-3.145-12.371zm-81.17 8.867c-1.634 3.929-3.29 7.847-4.971 11.756-1.273 2.961-2.561 5.916-3.848 8.871-1.398 3.21-2.797 6.42-4.197 9.629l3.688 2.182c.627-1.757 1.239-3.52 1.838-5.287a261.457 261.457 0 0 0 3.59-11.379 210.975 210.975 0 0 0 3.9-15.771zm94.67 0a211.344 211.344 0 0 0 3.9 15.771 261.457 261.457 0 0 0 3.59 11.379c.599 1.767 1.21 3.53 1.838 5.287l3.688-2.182c-1.401-3.209-2.799-6.419-4.197-9.629-1.287-2.955-2.575-5.91-3.848-8.871-1.68-3.909-3.337-7.827-4.971-11.756zm-114.56 14.828a967.639 967.639 0 0 1-3.23 10.953c-.832 2.76-1.676 5.515-2.521 8.271-.918 2.994-1.838 5.989-2.758 8.982l3.467 1.576c.381-1.625.749-3.254 1.104-4.885a234.945 234.945 0 0 0 2.049-10.48c.814-4.78 1.444-9.59 1.891-14.418zm134.46 0a189.996 189.996 0 0 0 1.891 14.418c.597 3.509 1.293 7 2.049 10.48.354 1.631.723 3.26 1.104 4.885l3.467-1.576c-.92-2.994-1.84-5.988-2.758-8.982-.845-2.756-1.69-5.511-2.521-8.271a967.639 967.639 0 0 1-3.23-10.953zm-143.86 8.863a108.339 108.339 0 0 1-4.08 9.252c-1.682 3.377-3.541 6.67-5.04 10.131a53.677 53.677 0 0 0-2.02 5.447l4.01 1.389c.152-1.616.425-3.22.816-4.795.761-3.061 1.962-5.993 2.998-8.973a86.81 86.81 0 0 0 3.318-12.451zm153.25 0a86.907 86.907 0 0 0 3.318 12.451c1.036 2.979 2.237 5.911 2.998 8.973.391 1.575.664 3.179.816 4.795l4.01-1.389a54.07 54.07 0 0 0-2.02-5.447c-1.502-3.461-3.361-6.754-5.04-10.131a108.617 108.617 0 0 1-4.08-9.252zm-168.2 5.359a54.574 54.574 0 0 1-2.662 9.17c-1.63 4.2-3.793 8.246-4.598 12.678-.149.819-.25 1.648-.303 2.479l4.117.531c-.019-1.34.047-2.681.199-4.01.337-2.96 1.091-5.854 1.688-8.773a83.474 83.474 0 0 0 1.559-12.07zm183.15 0a83.21 83.21 0 0 0 1.559 12.07c.596 2.919 1.35 5.813 1.688 8.773a31.43 31.43 0 0 1 .199 4.01l4.117-.531a21.535 21.535 0 0 0-.303-2.479c-.805-4.432-2.968-8.478-4.598-12.678a54.465 54.465 0 0 1-2.662-9.17zm-196.52 2.139c-.929 3.422-1.877 6.838-2.842 10.25-1.142 4.04-2.326 8.11-4.4 11.756a26.733 26.733 0 0 1-2.34 3.455l4.68.891c.128-.839.276-.674.445-1.506.717-3.527 1.797-7.97 2.617-11.475a72.466 72.466 0 0 0 1.84-13.371zm209.89 0a72.466 72.466 0 0 0 1.84 13.371c.82 3.504 1.9 7.948 2.617 11.475.169.832.317.667.445 1.506l4.68-.891a26.835 26.835 0 0 1-2.34-3.455c-2.074-3.646-3.259-7.719-4.4-11.756-.965-3.412-1.913-6.828-2.842-10.25zm-222.7 2.953a166.73 166.73 0 0 1-1.447 6.852 175.495 175.495 0 0 1-2.174 8.357c-.512 1.791-.939 3.907-1.504 5.682l3.844.391a34.29 34.29 0 0 0 .725-4.457c.235-2.461.202-4.938.223-7.41.026-3.141.137-6.279.334-9.414zm235.52 0c.197 3.135.308 6.273.334 9.414.02 2.472-.012 4.949.223 7.41a34.29 34.29 0 0 0 .725 4.457l3.844-.391c-.565-1.775-.992-3.891-1.504-5.682a177.019 177.019 0 0 1-2.174-8.357 165.083 165.083 0 0 1-1.447-6.852z"/><path d="M191.455 237.31a183.503 183.503 0 0 0-14.583 21.883c-5.627 9.914-10.337 20.357-16.249 30.1-14.968 24.662-37.25 44.08-61.67 59a257.787 257.787 0 0 1-35.893 18.264 59.289 59.289 0 0 1-4.603 30.907 8.393 8.393 0 0 0 4.28 3.324 8.238 8.238 0 0 0 5.384-.045 8.316 8.316 0 0 0 2.992-1.873l1.841-7.26c.298 1.466 1.247 2.782 2.532 3.512a5.117 5.117 0 0 0 3.263.609 5.155 5.155 0 0 0 2.948-1.545 13.564 13.564 0 0 0 .461 6.789 20.269 20.269 0 0 0 5.752 1.172c1.46.08 2.929.002 4.372-.234a25.784 25.784 0 0 0 1.841-3.512 26.023 26.023 0 0 0 1.948-7.443 3.99 3.99 0 0 1 .123-1.455c-.025.486-.07.971-.123 1.455.048.487.182.966.401 1.402a3.93 3.93 0 0 0 2.113 1.904c.847.316 1.77.322 2.67.391.581.044 1.163.117 1.745.08.581-.037 1.172-.193 1.631-.559.376-.299.643-.722.827-1.17.184-.448.291-.924.399-1.396.402-1.762.826-3.519 1.251-5.275a4.18 4.18 0 0 1 .359-1.514c-.124.504-.237 1.01-.359 1.514-.011.219-.001.44.013.658.081.738.363 1.451.806 2.041.527.7 1.268 1.215 2.071 1.547.803.332 1.668.49 2.532.561.597.049 1.199.057 1.791-.041.591-.098 1.173-.306 1.66-.66.733-.533 1.213-1.365 1.505-2.232.292-.867.414-1.782.566-2.686a39.587 39.587 0 0 1 1.61-6.322 8.78 8.78 0 0 0 4.372 3.279c.715.239 1.465.383 2.217.363.752-.019 1.506-.207 2.153-.598.758-.458 1.342-1.173 1.772-1.957.429-.784.716-1.64.99-2.492.968-3.01 1.814-6.05 2.532-9.131a15.995 15.995 0 0 0 4.37 2.408c1.546.558 3.21.875 4.833.635 1.237-.183 2.419-.687 3.451-1.404 1.35-.938 2.439-2.23 3.29-3.65s1.471-2.971 2-4.545a44.77 44.77 0 0 0 2.071-9.365c.787 1.098 2 1.87 3.315 2.111 1.105.203 2.237.041 3.359-.004 1.041-.042 2.085.016 3.123-.076 1.038-.092 2.09-.348 2.944-.955 1.09-.775 1.751-2.052 2.071-3.365.32-1.313.335-2.681.376-4.03.092-3.053.322-6.1.689-9.131a5.194 5.194 0 0 0 3.912 1.639c1.091-.035 2.156-.426 3.069-1.035.913-.609 1.678-1.431 2.303-2.342a11.469 11.469 0 0 0 1.99-6.457 13.082 13.082 0 0 0 2.992 1.873 12.98 12.98 0 0 0 7.593.936c2.547.461 5.227.131 7.593-.936a13.06 13.06 0 0 0 2.992-1.873 11.474 11.474 0 0 0 1.99 6.457c.625.911 1.391 1.732 2.303 2.342.913.609 1.978 1 3.069 1.035a5.192 5.192 0 0 0 3.912-1.639c.368 3.03.597 6.078.689 9.131.041 1.352.056 2.72.376 4.03.32 1.313.981 2.59 2.071 3.365.854.607 1.907.863 2.944.955 1.038.092 2.082.034 3.123.076 1.122.045 2.254.207 3.359.004a5.307 5.307 0 0 0 3.315-2.111 44.812 44.812 0 0 0 2.071 9.365c.53 1.573 1.151 3.124 2 4.545.851 1.42 1.94 2.712 3.29 3.65 1.032.718 2.214 1.221 3.451 1.404 1.623.24 3.287-.077 4.833-.635a15.995 15.995 0 0 0 4.37-2.408 114.67 114.67 0 0 0 2.532 9.131c.275.853.561 1.708.99 2.492.429.784 1.013 1.499 1.772 1.957.647.391 1.401.578 2.153.598.752.019 1.502-.124 2.217-.363a8.785 8.785 0 0 0 4.372-3.279 39.481 39.481 0 0 1 1.61 6.322c.152.904.275 1.818.566 2.686.292.867.772 1.7 1.505 2.232.488.354 1.069.562 1.66.66.591.098 1.195.09 1.793.041.864-.07 1.727-.228 2.53-.561.803-.332 1.544-.846 2.071-1.547.443-.59.726-1.303.806-2.041.024-.218.024-.439.014-.658-.122-.504-.235-1.01-.359-1.514.215.475.333.992.359 1.514.426 1.757.849 3.513 1.251 5.275.108.473.215.949.399 1.396.184.448.451.871.827 1.17.459.365 1.05.522 1.631.559.581.037 1.164-.036 1.745-.08.9-.069 1.822-.075 2.67-.391a3.934 3.934 0 0 0 2.113-1.904c.219-.436.354-.915.401-1.402a25.326 25.326 0 0 1-.123-1.455c.131.472.17.968.123 1.455a26.006 26.006 0 0 0 1.948 7.443 25.784 25.784 0 0 0 1.841 3.512 20.19 20.19 0 0 0 10.124-.938 13.596 13.596 0 0 0 .461-6.789 5.155 5.155 0 0 0 2.948 1.545 5.123 5.123 0 0 0 3.265-.609c1.285-.73 2.232-2.045 2.53-3.512l1.841 7.26a8.325 8.325 0 0 0 2.992 1.873 8.238 8.238 0 0 0 5.384.045 8.393 8.393 0 0 0 4.28-3.324 59.333 59.333 0 0 1-4.603-30.907 257.84 257.84 0 0 1-35.893-18.264c-24.417-14.929-46.698-34.34-61.67-59-5.912-9.741-10.62-20.18-16.247-30.1a183.6 183.6 0 0 0-14.585-21.883z" fill="#fff" stroke-width="5"/><path d="M181.595 309.35a79.616 79.616 0 0 1-.956 8.336c-.466 2.766-1.078 5.507-1.468 8.285a52.69 52.69 0 0 0-.495 5.926l2.553-1.02c.233-.979.412-1.971.535-2.971.321-2.601.267-5.235.198-7.855a694.378 694.378 0 0 0-.367-10.701zm19.708 0c-.15 3.566-.272 7.133-.367 10.701-.07 2.621-.123 5.254.198 7.855.123 1 .303 1.991.536 2.971l2.553 1.02a52.71 52.71 0 0 0-.495-5.926c-.391-2.778-1-5.519-1.468-8.285a79.616 79.616 0 0 1-.956-8.336zm-29.14 6.256a79.635 79.635 0 0 1-1.568 8.238c-.668 2.723-1.481 5.41-2.075 8.15a52.568 52.568 0 0 0-.929 5.869l2.62-.818c.304-.959.556-1.936.752-2.924.512-2.57.652-5.199.775-7.818.168-3.565.311-7.13.424-10.697zm38.575 0c.113 3.567.256 7.132.424 10.697.124 2.619.263 5.249.775 7.818.197.988.448 1.965.752 2.924l2.62.818a52.568 52.568 0 0 0-.929-5.869c-.594-2.741-1.406-5.428-2.075-8.15a79.37 79.37 0 0 1-1.568-8.238zm-52.54 12.627a308.677 308.677 0 0 1-3.09 12.371c-.998 3.667-2.062 7.315-3.03 10.99a211.503 211.503 0 0 0-2.05 8.51l3.501.473a39.768 39.768 0 0 0 1.409-4.373c.998-3.85 1.415-7.829 1.804-11.791a983.487 983.487 0 0 0 1.455-16.18zm66.5 0c.441 5.397.925 10.791 1.455 16.18.389 3.962.806 7.941 1.804 11.791a39.768 39.768 0 0 0 1.409 4.373l3.501-.473a209.814 209.814 0 0 0-2.05-8.51c-.967-3.676-2.031-7.323-3.03-10.99a306.982 306.982 0 0 1-3.09-12.371zm-79.76 8.867a1077.157 1077.157 0 0 1-4.885 11.756 2035.05 2035.05 0 0 1-3.781 8.871c-1.374 3.21-2.748 6.42-4.125 9.629l3.624 2.182a339.19 339.19 0 0 0 1.806-5.287 264.832 264.832 0 0 0 3.528-11.379 214.05 214.05 0 0 0 3.833-15.771zm93.03 0a213.927 213.927 0 0 0 3.833 15.771 264.832 264.832 0 0 0 3.528 11.379 339.19 339.19 0 0 0 1.806 5.287l3.624-2.182c-1.376-3.209-2.751-6.419-4.125-9.629-1.265-2.955-2.53-5.91-3.781-8.871a1097.362 1097.362 0 0 1-4.885-11.756zm-112.58 14.828a965.066 965.066 0 0 1-3.175 10.953c-.817 2.76-1.647 5.515-2.478 8.271-.902 2.994-1.806 5.989-2.71 8.982l3.407 1.576a312.8 312.8 0 0 0 1.084-4.885 234.615 234.615 0 0 0 2.01-10.48 194.03 194.03 0 0 0 1.858-14.418zm132.13 0a193.502 193.502 0 0 0 1.858 14.418c.587 3.509 1.271 7 2.01 10.48a312.8 312.8 0 0 0 1.084 4.885l3.407-1.576c-.904-2.994-1.808-5.988-2.71-8.982-.83-2.756-1.66-5.511-2.478-8.271a986.151 986.151 0 0 1-3.175-10.953zm-141.37 8.863a109.333 109.333 0 0 1-4.01 9.252c-1.653 3.377-3.48 6.67-4.956 10.131a54.69 54.69 0 0 0-1.987 5.447l3.942 1.389c.15-1.616.418-3.22.802-4.795.748-3.061 1.928-5.993 2.946-8.973a88.215 88.215 0 0 0 3.261-12.451zm150.6 0a88.044 88.044 0 0 0 3.261 12.451c1.018 2.979 2.199 5.911 2.946 8.973.385 1.575.653 3.179.802 4.795l3.942-1.389a54.35 54.35 0 0 0-1.987-5.447c-1.476-3.461-3.303-6.754-4.956-10.131a109.614 109.614 0 0 1-4.01-9.252zm-165.29 5.359a55.38 55.38 0 0 1-2.616 9.17c-1.601 4.2-3.727 8.246-4.518 12.678a21.718 21.718 0 0 0-.297 2.479l4.046.531a32.14 32.14 0 0 1 .196-4.01c.332-2.96 1.072-5.854 1.658-8.773a84.843 84.843 0 0 0 1.532-12.07zm179.98 0c.22 4.055.733 8.093 1.532 12.07.586 2.919 1.327 5.813 1.658 8.773.149 1.331.214 2.672.196 4.01l4.046-.531a21.973 21.973 0 0 0-.297-2.479c-.791-4.432-2.917-8.478-4.518-12.678a55.174 55.174 0 0 1-2.616-9.17zm-193.12 2.139c-.913 3.422-1.844 6.838-2.793 10.25-1.122 4.04-2.286 8.11-4.324 11.756a26.852 26.852 0 0 1-2.299 3.455l4.599.891c.126-.839.271-.674.438-1.506.704-3.527 1.766-7.97 2.572-11.475a73.631 73.631 0 0 0 1.808-13.371zm206.26 0a73.72 73.72 0 0 0 1.808 13.371c.806 3.504 1.868 7.948 2.572 11.475.166.832.312.667.438 1.506l4.599-.891a26.749 26.749 0 0 1-2.299-3.455c-2.039-3.646-3.202-7.719-4.324-11.756-.948-3.412-1.88-6.828-2.793-10.25zm-218.85 2.953a169.878 169.878 0 0 1-1.422 6.852 178.78 178.78 0 0 1-2.136 8.357c-.503 1.791-.923 3.907-1.478 5.682l3.777.391c.333-1.468.571-2.958.712-4.457.231-2.461.199-4.938.219-7.41.025-3.141.135-6.279.328-9.414zm231.44 0c.193 3.135.303 6.273.328 9.414.02 2.472-.012 4.949.219 7.41.141 1.499.379 2.989.712 4.457l3.777-.391c-.555-1.775-.975-3.891-1.478-5.682a179.1 179.1 0 0 1-2.136-8.357 168.165 168.165 0 0 1-1.422-6.852z"/><path d="M191.455 182.15a183.39 183.39 0 0 0-14.326 21.883c-5.528 9.914-10.155 20.357-15.963 30.1-14.704 24.662-36.593 44.08-60.58 59a251.826 251.826 0 0 1-35.26 18.264c.545 4.66.545 9.389 0 14.05a60.114 60.114 0 0 1-4.522 16.857c.997 1.547 2.501 2.736 4.205 3.324a7.958 7.958 0 0 0 5.289-.045 8.165 8.165 0 0 0 2.94-1.873l1.808-7.26c.293 1.466 1.225 2.782 2.487 3.512a4.95 4.95 0 0 0 3.205.609 5.036 5.036 0 0 0 2.896-1.545 13.77 13.77 0 0 0 .453 6.789 19.61 19.61 0 0 0 5.651 1.172c1.434.08 2.877.002 4.295-.234a25.815 25.815 0 0 0 1.808-3.512 26.398 26.398 0 0 0 1.914-7.443 4.056 4.056 0 0 1 .121-1.455c-.025.486-.069.971-.121 1.455.047.487.179.966.394 1.402a3.886 3.886 0 0 0 2.076 1.904c.833.316 1.739.322 2.623.391.571.044 1.143.117 1.714.08.571-.037 1.152-.193 1.603-.559.369-.299.632-.722.813-1.17.181-.448.286-.924.392-1.396a411.54 411.54 0 0 1 1.229-5.275 4.236 4.236 0 0 1 .353-1.514c-.122.504-.233 1.01-.353 1.514-.011.219-.001.44.013.658.079.738.356 1.451.792 2.041.517.7 1.246 1.215 2.034 1.547.789.332 1.638.49 2.487.561.587.049 1.178.057 1.759-.041s1.152-.306 1.631-.66c.72-.533 1.192-1.365 1.478-2.232.287-.867.407-1.782.556-2.686a40.046 40.046 0 0 1 1.582-6.322 8.64 8.64 0 0 0 4.295 3.279c.702.239 1.439.383 2.178.363.739-.019 1.48-.207 2.116-.598.745-.458 1.319-1.173 1.74-1.957.422-.784.703-1.64.973-2.492.951-3.01 1.782-6.05 2.487-9.131a15.644 15.644 0 0 0 4.293 2.408c1.519.558 3.153.875 4.748.635 1.215-.183 2.376-.687 3.39-1.404 1.326-.938 2.396-2.23 3.232-3.65.836-1.42 1.446-2.971 1.967-4.545 1-3.03 1.688-6.179 2.034-9.365a5.202 5.202 0 0 0 3.256 2.111c1.085.203 2.198.041 3.3-.004 1.023-.042 2.048.016 3.068-.076 1.019-.092 2.054-.348 2.892-.955 1.071-.775 1.72-2.052 2.035-3.365.314-1.313.329-2.681.37-4.03.091-3.053.316-6.1.677-9.131.982 1.073 2.416 1.685 3.843 1.639 1.072-.035 2.118-.426 3.01-1.035.897-.609 1.649-1.431 2.263-2.342a11.608 11.608 0 0 0 1.955-6.457 12.804 12.804 0 0 0 2.94 1.873 12.542 12.542 0 0 0 7.459.936c2.503.461 5.135.131 7.459-.936a12.826 12.826 0 0 0 2.94-1.873 11.621 11.621 0 0 0 1.955 6.457c.614.911 1.366 1.732 2.263 2.342.897.609 1.943 1 3.01 1.035 1.426.046 2.861-.565 3.843-1.639.361 3.03.586 6.078.677 9.131.04 1.352.055 2.72.37 4.03.314 1.313.964 2.59 2.034 3.365.839.607 1.873.863 2.892.955 1.019.092 2.045.034 3.068.076 1.102.045 2.214.207 3.3.004a5.202 5.202 0 0 0 3.256-2.111 45.384 45.384 0 0 0 2.035 9.365c.521 1.573 1.131 3.124 1.967 4.545.836 1.42 1.906 2.712 3.232 3.65 1.014.718 2.175 1.221 3.39 1.404 1.595.24 3.229-.077 4.748-.635a15.63 15.63 0 0 0 4.293-2.408 116.538 116.538 0 0 0 2.487 9.131c.27.853.551 1.708.973 2.492.422.784.995 1.499 1.74 1.957.636.391 1.377.578 2.116.598.739.019 1.476-.124 2.178-.363a8.647 8.647 0 0 0 4.295-3.279 40.046 40.046 0 0 1 1.582 6.322c.15.904.27 1.818.556 2.686.287.867.758 1.7 1.478 2.232.479.354 1.05.562 1.631.66.581.098 1.174.09 1.761.041.849-.07 1.696-.228 2.485-.561.789-.332 1.517-.846 2.034-1.547.436-.59.713-1.303.792-2.041a4.13 4.13 0 0 0 .013-.658c-.12-.504-.231-1.01-.353-1.514.211.475.327.992.353 1.514.418 1.757.834 3.513 1.229 5.275.106.473.211.949.392 1.396.181.448.443.871.813 1.17.451.365 1.031.522 1.603.559.571.037 1.143-.036 1.714-.08.884-.069 1.79-.075 2.623-.391a3.893 3.893 0 0 0 2.076-1.904 4.06 4.06 0 0 0 .394-1.402 26.251 26.251 0 0 1-.121-1.455c.128.472.167.968.121 1.455a26.38 26.38 0 0 0 1.914 7.443 26.044 26.044 0 0 0 1.808 3.512 19.49 19.49 0 0 0 9.946-.938 13.817 13.817 0 0 0 .453-6.789 5.036 5.036 0 0 0 2.896 1.545 4.956 4.956 0 0 0 3.207-.609c1.262-.73 2.192-2.045 2.485-3.512l1.808 7.26a8.148 8.148 0 0 0 2.94 1.873 7.958 7.958 0 0 0 5.289.045c1.703-.588 3.208-1.777 4.205-3.324a60.193 60.193 0 0 1-4.522-16.857 60.572 60.572 0 0 1 0-14.05 251.602 251.602 0 0 1-35.26-18.264c-23.987-14.929-45.876-34.34-60.58-59-5.808-9.741-10.433-20.18-15.961-30.1a183.609 183.609 0 0 0-14.328-21.883z" fill="#fff" stroke-width="5"/><path d="M181.765 254.19a81.22 81.22 0 0 1-.939 8.336c-.458 2.766-1.059 5.507-1.442 8.285a53.39 53.39 0 0 0-.486 5.926l2.508-1.02c.229-.979.405-1.971.526-2.971.315-2.601.263-5.235.194-7.855a707.19 707.19 0 0 0-.36-10.701zm19.361 0a707.19 707.19 0 0 0-.36 10.701c-.069 2.621-.121 5.254.194 7.855.121 1 .297 1.991.526 2.971l2.508 1.02a53.651 53.651 0 0 0-.486-5.926c-.384-2.778-.985-5.519-1.442-8.285a81.22 81.22 0 0 1-.939-8.336zm-28.628 6.256a80.886 80.886 0 0 1-1.54 8.238c-.657 2.723-1.455 5.41-2.038 8.15a53.708 53.708 0 0 0-.913 5.869l2.574-.818c.299-.959.546-1.936.739-2.924.503-2.57.64-5.199.762-7.818.165-3.565.305-7.13.417-10.697zm37.896 0c.111 3.567.251 7.132.417 10.697.121 2.619.259 5.249.762 7.818.193.988.44 1.965.739 2.924l2.574.818a53.229 53.229 0 0 0-.913-5.869c-.584-2.741-1.382-5.428-2.038-8.15a80.613 80.613 0 0 1-1.54-8.238zm-51.611 12.627c-.928 4.145-1.94 8.27-3.036 12.371-.98 3.667-2.026 7.315-2.975 10.99-.729 2.821-1.4 5.659-2.01 8.51l3.439.473a39.427 39.427 0 0 0 1.384-4.373c.981-3.85 1.39-7.829 1.772-11.791.52-5.389.996-10.782 1.429-16.18zm65.33 0c.433 5.397.909 10.791 1.429 16.18.383 3.962.792 7.941 1.772 11.791a40.289 40.289 0 0 0 1.384 4.373l3.439-.473a219.93 219.93 0 0 0-2.01-8.51c-.95-3.676-1.995-7.323-2.975-10.99a311.508 311.508 0 0 1-3.036-12.371zm-78.36 8.867a1071.752 1071.752 0 0 1-4.799 11.756 2024.29 2024.29 0 0 1-3.715 8.871c-1.35 3.21-2.7 6.42-4.052 9.629l3.56 2.182c.606-1.757 1.196-3.52 1.774-5.287a268.352 268.352 0 0 0 3.466-11.379 217.24 217.24 0 0 0 3.765-15.771zm91.39 0a217.64 217.64 0 0 0 3.765 15.771 268.352 268.352 0 0 0 3.466 11.379 360.22 360.22 0 0 0 1.774 5.287l3.56-2.182c-1.352-3.209-2.702-6.419-4.052-9.629-1.243-2.955-2.486-5.91-3.715-8.871a1112.842 1112.842 0 0 1-4.799-11.756zm-110.6 14.828a983.573 983.573 0 0 1-3.119 10.953 1821.85 1821.85 0 0 1-2.434 8.271c-.886 2.994-1.774 5.989-2.662 8.982l3.347 1.576c.368-1.625.723-3.254 1.065-4.885a243.21 243.21 0 0 0 1.978-10.48 197.15 197.15 0 0 0 1.825-14.418zm129.8 0a197.15 197.15 0 0 0 1.825 14.418 243.5 243.5 0 0 0 1.978 10.48c.342 1.631.698 3.26 1.065 4.885l3.347-1.576c-.888-2.994-1.776-5.988-2.662-8.982a1821.85 1821.85 0 0 1-2.434-8.271c-1.06-3.644-2.1-7.296-3.119-10.953zm-138.88 8.863a110.373 110.373 0 0 1-3.939 9.252c-1.624 3.377-3.419 6.67-4.868 10.131a55.228 55.228 0 0 0-1.952 5.447l3.873 1.389c.147-1.616.41-3.22.788-4.795.735-3.061 1.894-5.993 2.894-8.973a89.541 89.541 0 0 0 3.204-12.451zm147.95 0a89.365 89.365 0 0 0 3.204 12.451c1 2.979 2.16 5.911 2.894 8.973.378 1.575.641 3.179.788 4.795l3.873-1.389a55.136 55.136 0 0 0-1.952-5.447c-1.45-3.461-3.245-6.754-4.868-10.131a110.657 110.657 0 0 1-3.939-9.252zm-162.38 5.359a56.122 56.122 0 0 1-2.57 9.17c-1.573 4.2-3.661 8.246-4.439 12.678a22.168 22.168 0 0 0-.292 2.479l3.975.531c-.018-1.34.046-2.681.192-4.01.326-2.96 1.053-5.854 1.629-8.773a86.262 86.262 0 0 0 1.505-12.07zm176.81 0c.216 4.055.72 8.093 1.505 12.07.576 2.919 1.303 5.813 1.629 8.773a32.76 32.76 0 0 1 .192 4.01l3.975-.531a22.433 22.433 0 0 0-.292-2.479c-.777-4.432-2.865-8.478-4.439-12.678a56.01 56.01 0 0 1-2.57-9.17zm-189.72 2.139c-.897 3.422-1.812 6.838-2.743 10.25-1.102 4.04-2.245 8.11-4.248 11.756a26.888 26.888 0 0 1-2.259 3.455l4.518.891c.124-.839.267-.674.43-1.506.692-3.527 1.735-7.97 2.527-11.475a74.93 74.93 0 0 0 1.776-13.371zm202.62 0a74.93 74.93 0 0 0 1.776 13.371c.792 3.504 1.835 7.948 2.527 11.475.163.832.306.667.43 1.506l4.518-.891a26.888 26.888 0 0 1-2.259-3.455c-2-3.646-3.146-7.719-4.248-11.756-.932-3.412-1.847-6.828-2.743-10.25zm-214.99 2.953a173.168 173.168 0 0 1-3.496 15.209c-.494 1.791-.906 3.907-1.452 5.682l3.711.391c.327-1.468.561-2.958.7-4.457.227-2.461.195-4.938.215-7.41.025-3.141.132-6.279.322-9.414zm227.37 0c.19 3.135.297 6.273.322 9.414.02 2.472-.012 4.949.215 7.41.138 1.499.372 2.989.7 4.457l3.711-.391c-.546-1.775-.958-3.891-1.452-5.682a181.267 181.267 0 0 1-2.099-8.357 171.384 171.384 0 0 1-1.397-6.852z"/><path d="M191.45 115.63a167.68 167.68 0 0 0-12.4 19.836c-4.785 8.987-8.789 18.455-13.816 27.29-12.728 22.357-31.673 39.955-52.44 53.49a214.51 214.51 0 0 1-30.521 16.557 57.453 57.453 0 0 1 0 12.736 56.527 56.527 0 0 1-3.914 15.281c.863 1.402 2.164 2.48 3.639 3.01a6.597 6.597 0 0 0 4.578-.041 7.026 7.026 0 0 0 2.545-1.697l1.564-6.582c.253 1.329 1.062 2.522 2.154 3.184a4.12 4.12 0 0 0 2.773.553 4.308 4.308 0 0 0 2.508-1.4 13.063 13.063 0 0 0 .391 6.154c1.573.605 3.225.965 4.891 1.063a16.1 16.1 0 0 0 3.719-.213 23.79 23.79 0 0 0 1.564-3.184 24.841 24.841 0 0 0 1.658-6.748 3.844 3.844 0 0 1 .104-1.318c-.022.441-.059.88-.104 1.318.04.442.154.876.34 1.271.373.791 1.028 1.421 1.797 1.727.721.286 1.506.291 2.271.354.494.04.988.108 1.482.074.494-.033.996-.177 1.387-.508.32-.271.549-.654.705-1.061.157-.406.246-.837.338-1.266.342-1.598.703-3.189 1.064-4.781.022-.473.122-.943.305-1.373-.105.456-.201.916-.305 1.373-.009.199-.009.398.012.596.069.669.308 1.315.686 1.85.448.635 1.079 1.101 1.762 1.402.683.301 1.418.446 2.152.51.508.044 1.019.052 1.521-.037a3.194 3.194 0 0 0 1.412-.6c.623-.483 1.031-1.237 1.279-2.023s.353-1.616.482-2.436a37.838 37.838 0 0 1 1.369-5.73c.907 1.384 2.23 2.442 3.717 2.973.608.217 1.247.348 1.887.33a3.558 3.558 0 0 0 1.83-.543c.645-.415 1.141-1.063 1.506-1.773.365-.711.61-1.487.844-2.26a109.139 109.139 0 0 0 2.152-8.277 13.388 13.388 0 0 0 3.715 2.184c1.314.506 2.731.794 4.111.576 1.052-.166 2.056-.623 2.934-1.273 1.148-.851 2.074-2.023 2.797-3.311.723-1.288 1.252-2.693 1.703-4.119a42.919 42.919 0 0 0 1.76-8.49c.669.995 1.703 1.696 2.82 1.914.939.184 1.902.037 2.855-.004.885-.038 1.772.015 2.654-.068.882-.084 1.778-.317 2.504-.867.335-.254.608-.582.852-.936-.633 3.404-1.362 6.787-2.279 10.125a93.173 93.173 0 0 1-4.305 12.252 16.768 16.768 0 0 0 5.961 2.814c2.069.513 4.307.613 6.291-.166 1.672-.657 3.066-1.902 4.131-3.35 1.064-1.447 1.823-3.094 2.492-4.762a54.845 54.845 0 0 0 2.25-6.977c.483-5.956.991-11.911 1.559-17.859.463 5.985-.085 12.04-1.559 17.859-.26 3.208-.524 6.415-.76 9.625-.295 4.03-.572 8.06-.828 12.09 0 0 4.962.496 7.451.496s7.449-.496 7.449-.496c-.257-4.03-.531-8.06-.826-12.09-.235-3.206-.498-6.411-.758-9.615-1.476-5.822-2.024-11.881-1.561-17.869.568 5.952 1.078 11.91 1.561 17.869.6 2.367 1.337 4.7 2.246 6.967.669 1.667 1.428 3.314 2.492 4.762 1.064 1.447 2.459 2.693 4.131 3.35 1.984.779 4.222.679 6.291.166a16.785 16.785 0 0 0 5.961-2.814 93.064 93.064 0 0 1-4.305-12.252c-.917-3.336-1.645-6.719-2.277-10.121.243.352.515.678.85.932.726.55 1.621.784 2.504.867.882.084 1.769.03 2.654.068.954.041 1.916.187 2.855.004 1.118-.219 2.151-.919 2.82-1.914.3 2.888.89 5.741 1.76 8.49.451 1.426.98 2.831 1.703 4.119.723 1.288 1.649 2.46 2.797 3.311.878.65 1.882 1.108 2.934 1.273 1.38.218 2.795-.07 4.109-.576a13.388 13.388 0 0 0 3.717-2.184c.61 2.79 1.329 5.552 2.152 8.277.234.773.479 1.549.844 2.26.365.711.861 1.359 1.506 1.773.55.354 1.19.525 1.83.543.64.018 1.279-.113 1.887-.33 1.487-.53 2.81-1.589 3.717-2.973a37.838 37.838 0 0 1 1.369 5.73c.129.819.234 1.649.482 2.436.248.786.656 1.54 1.279 2.023.415.321.909.51 1.412.6.503.089 1.016.081 1.523.037.735-.064 1.468-.209 2.15-.51.683-.301 1.314-.767 1.762-1.402.377-.535.617-1.18.686-1.85.02-.198.021-.397.012-.596-.104-.457-.199-.917-.305-1.373.183.43.282.9.305 1.373a374.25 374.25 0 0 1 1.064 4.781c.092.429.181.86.338 1.266.157.406.385.789.705 1.061.39.331.892.475 1.387.508.494.033.988-.034 1.482-.074.765-.062 1.551-.067 2.271-.354.769-.306 1.424-.936 1.797-1.727.186-.395.299-.83.34-1.271a25.242 25.242 0 0 1-.104-1.318c.111.428.144.876.104 1.318a24.841 24.841 0 0 0 1.658 6.748 24.155 24.155 0 0 0 1.564 3.184 16.131 16.131 0 0 0 8.61-.85 13.062 13.062 0 0 0 .391-6.154 4.308 4.308 0 0 0 2.508 1.4 4.12 4.12 0 0 0 2.775-.553c1.092-.662 1.899-1.854 2.152-3.184l1.564 6.582a7.026 7.026 0 0 0 2.545 1.697 6.597 6.597 0 0 0 4.578.041c1.474-.533 2.776-1.611 3.639-3.01a56.545 56.545 0 0 1-3.914-15.281 57.453 57.453 0 0 1 0-12.736 214.51 214.51 0 0 1-30.521-16.557c-20.762-13.533-39.708-31.13-52.44-53.49-5.03-8.83-9.03-18.298-13.816-27.29a167.695 167.695 0 0 0-12.402-19.836zm-18.586 90.63c.124.142.257.273.396.396-.174 1.137-.342 2.275-.518 3.412-.116.751-1.338 9.502-1.455 10.254.103-2.025 1.347-12.05 1.576-14.06zm37.17 0c.228 2.01 1.472 12.02 1.575 14.04-.117-.745-1.337-9.49-1.452-10.234-.176-1.138-.345-2.276-.52-3.414.139-.123.273-.253.396-.395z" fill="#fff" stroke-width="5"/><path d="M183.075 180.94a76.8 76.8 0 0 1-.813 7.557c-.396 2.508-.916 4.992-1.249 7.511a50.776 50.776 0 0 0-.421 5.372l2.171-.924c.198-.888.35-1.787.455-2.693.273-2.358.227-4.745.168-7.121a668.03 668.03 0 0 0-.312-9.701zm16.758 0a682.542 682.542 0 0 0-.312 9.701c-.059 2.376-.105 4.763.168 7.121.105.906.257 1.805.455 2.693l2.171.924a50.776 50.776 0 0 0-.421-5.372c-.332-2.519-.852-5-1.249-7.511a76.637 76.637 0 0 1-.813-7.557zm-24.78 5.671a76.517 76.517 0 0 1-1.333 7.468c-.568 2.468-1.259 4.904-1.764 7.389a50.549 50.549 0 0 0-.79 5.321l2.228-.742a26.17 26.17 0 0 0 .64-2.651c.435-2.329.554-4.713.659-7.088.143-3.232.264-6.464.361-9.697zm32.801 0c.096 3.234.218 6.466.361 9.697.105 2.374.224 4.758.659 7.088.167.895.381 1.781.64 2.651l2.228.742a50.627 50.627 0 0 0-.79-5.321c-.505-2.484-1.196-4.92-1.764-7.389a76.133 76.133 0 0 1-1.333-7.468zm-44.673 11.447a292.393 292.393 0 0 1-2.628 11.215c-.848 3.324-1.754 6.631-2.575 9.963a201.895 201.895 0 0 0-1.743 7.714l2.977.428c.47-1.295.871-2.619 1.198-3.964.849-3.49 1.203-7.097 1.534-10.689.45-4.885.862-9.775 1.237-14.667zm56.54 0a957.71 957.71 0 0 0 1.237 14.667c.331 3.592.685 7.199 1.534 10.689.327 1.346.728 2.67 1.198 3.964l2.977-.428a201.465 201.465 0 0 0-1.743-7.714c-.822-3.332-1.727-6.639-2.575-9.963a294.286 294.286 0 0 1-2.628-11.215zm-67.825 8.04a1003.836 1003.836 0 0 1-4.154 10.657c-1.064 2.684-2.14 5.363-3.215 8.04-1.168 2.91-2.337 5.82-3.507 8.729l3.081 1.978a329.829 329.829 0 0 0 1.536-4.793 253.172 253.172 0 0 0 3-10.315 204.416 204.416 0 0 0 3.259-14.297zm79.11 0c.917 4.809 2 9.579 3.259 14.297a249.56 249.56 0 0 0 3 10.315c.5 1.602 1.01 3.2 1.536 4.793l3.081-1.978c-1.17-2.909-2.339-5.819-3.507-8.729a1895.595 1895.595 0 0 1-3.215-8.04 1048.824 1048.824 0 0 1-4.154-10.657zm-95.73 13.442a955.798 955.798 0 0 1-2.699 9.929c-.695 2.502-1.401 5-2.107 7.498-.767 2.714-1.535 5.429-2.304 8.143l2.897 1.429c.318-1.473.626-2.949.922-4.428.632-3.153 1.213-6.32 1.712-9.501a186.46 186.46 0 0 0 1.58-13.07zm112.35 0c.373 4.377.9 8.737 1.58 13.07a230.365 230.365 0 0 0 1.712 9.501c.296 1.479.604 2.955.922 4.428l2.897-1.429c-.769-2.714-1.537-5.428-2.304-8.143-.706-2.499-1.412-4.996-2.107-7.498a914.494 914.494 0 0 1-2.699-9.929zm-120.21 8.03a102.543 102.543 0 0 1-3.409 8.387c-1.405 3.062-2.959 6.05-4.214 9.184a51.834 51.834 0 0 0-1.689 4.938l3.352 1.259a31.78 31.78 0 0 1 .682-4.347c.636-2.775 1.64-5.433 2.505-8.134a84.197 84.197 0 0 0 2.773-11.287zm128.06 0a84.16 84.16 0 0 0 2.773 11.287c.866 2.701 1.869 5.359 2.505 8.134a31.78 31.78 0 0 1 .682 4.347l3.352-1.259a51.738 51.738 0 0 0-1.689-4.938c-1.255-3.138-2.809-6.122-4.214-9.184a102.543 102.543 0 0 1-3.409-8.387zm-140.55 4.858a52.803 52.803 0 0 1-2.224 8.313c-1.362 3.807-3.169 7.475-3.842 11.493a21.156 21.156 0 0 0-.253 2.247l3.44.482c-.016-1.214.04-2.43.166-3.637.282-2.684.912-5.307 1.41-7.953a81.608 81.608 0 0 0 1.302-10.944zm153.04 0a81.608 81.608 0 0 0 1.302 10.944c.498 2.646 1.128 5.27 1.41 7.953.127 1.207.182 2.422.166 3.637l3.44-.482a21.156 21.156 0 0 0-.253-2.247c-.673-4.02-2.48-7.686-3.842-11.493a52.694 52.694 0 0 1-2.224-8.313zm-164.21 1.939a950.335 950.335 0 0 1-2.375 9.292c-.954 3.659-1.944 7.352-3.677 10.657a24.461 24.461 0 0 1-1.955 3.132l3.91.807c.107-.761.231-.611.372-1.365.599-3.197 1.501-7.225 2.187-10.402a70.96 70.96 0 0 0 1.537-12.12zm175.38 0c.163 4.08.679 8.145 1.537 12.12.686 3.177 1.588 7.205 2.187 10.402.141.754.265.604.372 1.365l3.91-.807a24.35 24.35 0 0 1-1.955-3.132c-1.733-3.305-2.723-6.998-3.677-10.657-.806-3.093-1.598-6.19-2.375-9.292zm-186.09 2.677c-.363 2.08-.766 4.15-1.209 6.211a171.011 171.011 0 0 1-1.816 7.576c-.428 1.623-.784 3.542-1.257 5.151l3.212.354c.283-1.33.486-2.681.606-4.04.196-2.231.169-4.477.186-6.718.022-2.847.115-5.693.279-8.534zm196.8 0c.164 2.842.257 5.687.279 8.534.017 2.241 0 4.487.186 6.718.12 1.359.322 2.71.606 4.04l3.212-.354c-.472-1.609-.829-3.527-1.257-5.151a171.29 171.29 0 0 1-1.816-7.576 160.914 160.914 0 0 1-1.209-6.211z"/><path d="M191.45 72.71a127.168 127.168 0 0 0-10.525 15.195c-4.061 6.885-7.46 14.14-11.727 20.9-10.802 17.13-26.882 30.608-44.504 40.975a189.108 189.108 0 0 1-25.904 12.684c.4 3.236.4 6.52 0 9.756a39.916 39.916 0 0 1-3.322 11.705 6.035 6.035 0 0 0 3.09 2.309 6.168 6.168 0 0 0 3.885-.031 6.045 6.045 0 0 0 2.16-1.301l1.328-5.04a3.693 3.693 0 0 0 1.826 2.439 3.818 3.818 0 0 0 2.355.422 3.773 3.773 0 0 0 2.127-1.072 9.116 9.116 0 0 0 .332 4.715c1.335.463 2.738.739 4.152.814 1.054.056 2.113 0 3.154-.164.507-.778.953-1.592 1.33-2.438a17.533 17.533 0 0 0 1.404-5.17 2.672 2.672 0 0 1 .09-1.01c-.018.337-.052.674-.09 1.01.034.339.133.672.291.975a2.799 2.799 0 0 0 1.523 1.322c.612.219 1.278.224 1.928.271.419.031.84.08 1.26.055.42-.025.845-.133 1.176-.387.271-.208.465-.501.598-.813.133-.311.211-.642.289-.971.29-1.224.595-2.444.902-3.664.019-.363.105-.721.26-1.051-.09.35-.172.701-.26 1.051-.008.152-.008.307.001.459.058.513.262 1.01.582 1.416.38.486.915.844 1.494 1.074.579.231 1.205.34 1.828.389.431.034.864.041 1.291-.027a2.882 2.882 0 0 0 1.199-.459c.529-.37.875-.948 1.086-1.551.21-.602.298-1.236.408-1.863.261-1.492.65-2.963 1.162-4.391a6.323 6.323 0 0 0 3.156 2.277 4.839 4.839 0 0 0 1.6.252 3.274 3.274 0 0 0 1.555-.416c.547-.318.968-.813 1.277-1.357.31-.544.517-1.14.715-1.732a77.324 77.324 0 0 0 1.828-6.34c.955.713 2.02 1.279 3.152 1.672 1.116.388 2.317.608 3.488.441a6.029 6.029 0 0 0 2.49-.975c.974-.652 1.761-1.549 2.375-2.535.614-.986 1.063-2.064 1.445-3.156a30.042 30.042 0 0 0 1.494-6.504 3.854 3.854 0 0 0 2.393 1.467c.797.141 1.614.028 2.424-.004.751-.029 1.505.011 2.254-.053.749-.064 1.509-.242 2.125-.664.786-.538 1.263-1.424 1.494-2.336.231-.912.242-1.862.271-2.801.067-2.12.231-4.237.496-6.342a3.825 3.825 0 0 0 2.824 1.139c.787-.024 1.556-.296 2.215-.719.127-.082.248-.173.367-.266a106.792 106.792 0 0 0-1.053 5.102c-1.074 6.02-1.673 12.278-4.471 17.717a23.907 23.907 0 0 1-2.98 4.471 18.265 18.265 0 0 0 6.291 2.979c3.139.801 6.494.745 9.604-.164a120.67 120.67 0 0 0 2.98-16.889 121.014 121.014 0 0 0 2.98 16.889c3.11.909 6.462.965 9.602.164a18.238 18.238 0 0 0 6.291-2.979 23.902 23.902 0 0 1-2.979-4.471c-2.798-5.439-3.396-11.695-4.471-17.717-.305-1.71-.666-3.409-1.055-5.102.12.092.239.184.367.266.659.423 1.427.695 2.215.719a3.82 3.82 0 0 0 2.824-1.139c.265 2.105.429 4.222.496 6.342.03.939.041 1.889.271 2.801.231.912.71 1.798 1.496 2.336.616.422 1.376.6 2.125.664.749.064 1.501.024 2.252.053.809.031 1.629.144 2.426.004a3.844 3.844 0 0 0 2.391-1.467 30.105 30.105 0 0 0 1.496 6.504c.383 1.093.829 2.17 1.443 3.156.614.986 1.401 1.883 2.375 2.535a6.048 6.048 0 0 0 2.49.975c1.171.167 2.373-.054 3.488-.441 1.132-.393 2.2-.959 3.154-1.672a77.311 77.311 0 0 0 1.826 6.34c.198.592.405 1.188.715 1.732.31.544.732 1.04 1.279 1.357.467.271 1.01.402 1.553.416a4.877 4.877 0 0 0 1.602-.252 6.318 6.318 0 0 0 3.154-2.277 26.599 26.599 0 0 1 1.162 4.391c.11.627.198 1.261.408 1.863.21.602.557 1.181 1.086 1.551.352.246.773.391 1.199.459.427.068.862.061 1.293.027.623-.049 1.247-.158 1.826-.389s1.114-.588 1.494-1.074c.32-.41.524-.903.582-1.416.017-.152.017-.307.001-.459-.088-.35-.168-.701-.258-1.051.155.33.239.688.258 1.051.307 1.22.614 2.44.904 3.664.078.328.154.66.287.971.133.311.326.605.598.813.331.254.758.361 1.178.387.42.026.839-.024 1.258-.055.65-.048 1.316-.052 1.928-.271a2.8 2.8 0 0 0 1.525-1.322c.158-.303.255-.636.289-.975a17.056 17.056 0 0 1-.09-1.01c.094.327.124.671.09 1.01a17.536 17.536 0 0 0 2.734 7.608c1.042.164 2.101.22 3.154.164a15.138 15.138 0 0 0 4.152-.814 9.116 9.116 0 0 0 .332-4.715 3.766 3.766 0 0 0 2.129 1.072 3.81 3.81 0 0 0 2.355-.422 3.696 3.696 0 0 0 1.826-2.439l1.328 5.04a6.037 6.037 0 0 0 2.158 1.301 6.167 6.167 0 0 0 3.887.031 6.027 6.027 0 0 0 3.088-2.309 39.808 39.808 0 0 1-3.32-21.461 188.937 188.937 0 0 1-25.904-12.684c-17.622-10.367-33.702-23.848-44.504-40.975-4.266-6.764-7.666-14.02-11.727-20.9a127.24 127.24 0 0 0-10.525-15.195z" fill="#fff" stroke-width="5"/><path d="M184.335 122.73a53.391 53.391 0 0 1-.69 5.789c-.336 1.921-.778 3.824-1.06 5.753-.199 1.363-1.119 6.738-1.157 8.115l1.842-.708c.168-.68 1.097-5.369 1.186-6.06.232-1.807.193-3.635.143-5.455a460.23 460.23 0 0 0-.265-7.431zm14.223 0a472.44 472.44 0 0 0-.265 7.431c-.05 1.82-.089 3.649.143 5.455.089.694 1.018 5.383 1.186 6.06l1.842.708c-.038-1.377-.958-6.752-1.157-8.115-.282-1.929-.723-3.833-1.06-5.753a53.391 53.391 0 0 1-.69-5.789zm-21.03 4.344a53.367 53.367 0 0 1-1.132 5.721c-.482 1.891-1.069 3.757-1.497 5.66a35.153 35.153 0 0 0-.67 4.076l1.891-.568c.22-.666.401-1.345.543-2.03.369-1.784.47-3.611.56-5.429.121-2.476.224-4.951.306-7.429zm27.839 0c.082 2.477.185 4.953.306 7.429.089 1.819.19 3.645.56 5.429.142.686.323 1.365.543 2.03l1.891.568a35.153 35.153 0 0 0-.67-4.076c-.429-1.903-1.015-3.769-1.497-5.66a53.367 53.367 0 0 1-1.132-5.721zm-37.915 8.769a207.046 207.046 0 0 1-2.23 8.591c-.72 2.547-1.488 5.079-2.186 7.632a141.667 141.667 0 0 0-1.479 5.909l2.527.328c.399-.992.739-2.01 1.017-3.037.72-2.674 1.021-5.437 1.302-8.188.382-3.742.732-7.488 1.05-11.236zm47.991 0c.318 3.748.668 7.493 1.05 11.236.281 2.751.582 5.515 1.302 8.188a26.921 26.921 0 0 0 1.017 3.037l2.527-.328c-.451-1.98-.944-3.95-1.479-5.909-.698-2.552-1.466-5.085-2.186-7.632a207.046 207.046 0 0 1-2.23-8.591zm-57.56 6.158a763.33 763.33 0 0 1-3.525 8.164c-.903 2.056-1.816 4.109-2.729 6.16-.992 2.229-1.983 4.458-2.977 6.687l2.615 1.515c.445-1.22.879-2.444 1.303-3.672a178.5 178.5 0 0 0 2.546-7.902 144.036 144.036 0 0 0 2.766-10.952zm67.14 0a144.036 144.036 0 0 0 2.766 10.952 178.5 178.5 0 0 0 2.546 7.902c.425 1.227.858 2.451 1.303 3.672l2.615-1.515c-.993-2.228-1.985-4.457-2.977-6.687-.913-2.052-1.826-4.104-2.729-6.16a716.976 716.976 0 0 1-3.525-8.164zm-81.25 10.297a651.628 651.628 0 0 1-2.291 7.606c-.59 1.917-1.189 3.83-1.788 5.744-.651 2.079-1.303 4.159-1.956 6.238l2.459 1.095c.27-1.129.531-2.259.783-3.392a160.878 160.878 0 0 0 1.453-7.278 129.91 129.91 0 0 0 1.341-10.01zm95.36 0c.317 3.353.764 6.693 1.341 10.01.424 2.437.917 4.863 1.453 7.278.251 1.133.512 2.264.783 3.392l2.459-1.095c-.653-2.079-1.305-4.158-1.956-6.238-.599-1.914-1.198-3.827-1.788-5.744a657.502 657.502 0 0 1-2.291-7.606zm-102.02 6.155a74.552 74.552 0 0 1-2.894 6.425c-1.193 2.345-2.512 4.632-3.577 7.04a36.967 36.967 0 0 0-1.434 3.783l2.845.964c.108-1.122.301-2.236.579-3.33.54-2.126 1.392-4.162 2.126-6.231 1-2.82 1.789-5.713 2.353-8.647zm108.69 0a59.36 59.36 0 0 0 2.353 8.647c.735 2.069 1.587 4.105 2.126 6.231.278 1.094.471 2.208.579 3.33l2.845-.964a36.967 36.967 0 0 0-1.434-3.783c-1.065-2.404-2.384-4.69-3.577-7.04a74.552 74.552 0 0 1-2.894-6.425zm-119.29 3.722a37.3 37.3 0 0 1-1.888 6.368c-1.156 2.916-2.69 5.726-3.261 8.804a14.658 14.658 0 0 0-.215 1.721l2.92.369c-.013-.93.034-1.862.141-2.786.239-2.056.774-4.065 1.197-6.093a56.658 56.658 0 0 0 1.105-8.383zm129.89 0c.159 2.816.529 5.62 1.105 8.383.423 2.027.957 4.04 1.197 6.093.108.924.155 1.856.141 2.786l2.92-.369a14.658 14.658 0 0 0-.215-1.721c-.571-3.078-2.105-5.887-3.261-8.804a37.3 37.3 0 0 1-1.888-6.368zm-139.37 1.485a593.049 593.049 0 0 1-2.02 7.118c-.81 2.803-1.65 5.632-3.121 8.164a18.587 18.587 0 0 1-1.659 2.399l3.319.618c.091-.583.196-.468.316-1.046.508-2.449 1.274-5.535 1.856-7.968a49.424 49.424 0 0 0 1.305-9.285zm148.85 0a49.33 49.33 0 0 0 1.305 9.285c.582 2.434 1.348 5.519 1.856 7.968.12.578.225.463.316 1.046l3.319-.618a18.557 18.557 0 0 1-1.659-2.399c-1.471-2.532-2.311-5.361-3.121-8.164a825.244 825.244 0 0 1-2.02-7.118zm-157.94 2.051c-.308 1.593-.65 3.179-1.026 4.758a120.032 120.032 0 0 1-1.542 5.804c-.363 1.244-.666 2.713-1.067 3.946l2.726.271c.24-1.019.412-2.054.514-3.095.166-1.709.143-3.429.158-5.146.018-2.181.097-4.361.237-6.537zm167.03 0c.14 2.177.218 4.356.237 6.537.014 1.716-.009 3.437.158 5.146a23.18 23.18 0 0 0 .514 3.095l2.726-.271c-.401-1.232-.704-2.702-1.067-3.946a120.032 120.032 0 0 1-1.542-5.804 113.766 113.766 0 0 1-1.026-4.758z"/><path d="M186.375 38.65c-1.098.322-2.183.953-2.891 1.852-1.182 1.501-1.634 3.522-1.875 5.418-.245 1.932.257 3.885.471 5.822.997 9.02-.671 18.539-5.854 25.988-4.558 6.551-11.598 11.156-19.2 13.582-2.031.648-4.112 1.152-6.084 1.963-1.972.811-3.861 1.962-5.154 3.656-1.332 1.744-1.937 3.931-2.342 6.088a41.498 41.498 0 0 0-.701 8.428c1.539.317 3.11.475 4.682.469 1.932-.008 3.906-.276 5.619-1.17a8.278 8.278 0 0 0 1.525-1.049 46.734 46.734 0 0 0 2.924-5.977 8.346 8.346 0 0 1-1.279 4.111 8.285 8.285 0 0 1-1.645 1.865 46.611 46.611 0 0 1-2.461 3.857 46.527 46.527 0 0 1-2.576 3.279 20.77 20.77 0 0 0 8.195 2.342c1.594.113 3.261.025 4.684-.703.332-.17.638-.384.93-.617a10.763 10.763 0 0 1 2.113-4.535 5.649 5.649 0 0 1-.775 3.02 5.626 5.626 0 0 1-1.338 1.518 10.57 10.57 0 0 0-.229 2.02c-.008.786.07 1.573.234 2.342a11.867 11.867 0 0 0 3.045 1.873c.742.314 1.521.552 2.324.621.803.069 1.631-.037 2.357-.387.172-.083.337-.179.494-.287-.352.865-.676 1.74-.961 2.629a36.924 36.924 0 0 0-1.172 4.682 74.816 74.816 0 0 0 12.645 3.746 26.408 26.408 0 0 1 2.809-11 26.436 26.436 0 0 1 4.918-6.791 26.429 26.429 0 0 1 4.916 6.791 26.472 26.472 0 0 1 2.811 11 74.69 74.69 0 0 0 12.645-3.746 36.84 36.84 0 0 0-1.172-4.682 36.73 36.73 0 0 0-.963-2.629 3.768 3.768 0 0 1-1.148-1.254 3.784 3.784 0 0 1-.465-2.205 36.691 36.691 0 0 1 1.613 3.459c.157.108.322.204.494.287.726.349 1.555.456 2.357.387.803-.069 1.584-.307 2.326-.621a11.867 11.867 0 0 0 3.045-1.873 10.461 10.461 0 0 0 .005-4.362 5.628 5.628 0 0 1-1.338-1.518 5.64 5.64 0 0 1-.775-3.02 10.757 10.757 0 0 1 2.113 4.535c.291.233.598.447.93.617 1.423.729 3.089.816 4.684.703a20.836 20.836 0 0 0 8.195-2.342 46.759 46.759 0 0 1-2.576-3.279 47.01 47.01 0 0 1-2.461-3.855 8.32 8.32 0 0 1-1.645-1.867 8.336 8.336 0 0 1-1.279-4.111 46.691 46.691 0 0 0 2.924 5.979c.471.4.976.761 1.523 1.047 1.713.894 3.687 1.162 5.619 1.17a22.749 22.749 0 0 0 4.684-.469 41.5 41.5 0 0 0-.703-8.428c-.404-2.157-1.01-4.344-2.34-6.088-1.294-1.694-3.185-2.846-5.156-3.656-1.972-.811-4.053-1.315-6.084-1.963-7.603-2.426-14.641-7.03-19.2-13.582-5.183-7.449-6.85-16.969-5.854-25.988.214-1.937.716-3.891.471-5.822-.241-1.896-.693-3.917-1.875-5.418-.708-.899-1.792-1.53-2.891-1.852a12.45 12.45 0 0 0-6.863 0zm-13.193 81.93a3.782 3.782 0 0 1-.463 2.205c-.28.498-.678.928-1.148 1.252a37.148 37.148 0 0 1 1.611-3.457z" fill="#fff" stroke-width="5"/><path d="M182.345 97.7a112.694 112.694 0 0 1-10.944 22.076l3.27 3.105a51.089 51.089 0 0 0 1.637-2.822 51.208 51.208 0 0 0 6.04-22.359zm14.926 0a51.126 51.126 0 0 0 6.04 22.359 50.46 50.46 0 0 0 1.637 2.822l3.27-3.105A112.93 112.93 0 0 1 197.274 97.7zM171.215 96.57a42.74 42.74 0 0 1-8.113 16.603l3.678 3.209a43.196 43.196 0 0 0 4.435-19.813zm37.19 0a43.194 43.194 0 0 0 4.435 19.813l3.678-3.209a42.8 42.8 0 0 1-4.717-7.357 42.828 42.828 0 0 1-3.396-9.246z"/></g></g></svg>