<svg xmlns="http://www.w3.org/2000/svg" width="748.09" height="791.22" viewBox="0 0 701.334 741.769"><path style="fill:#fff;fill-rule:evenodd;stroke:none;stroke-width:11;stroke-opacity:1" d="M28.126 19.835 41.524 436.46c7.415 175.25 153.92 314.047 331.59 314.145 177.51-.215 324.069-139.062 331.589-314.145l13.398-416.624h-344.98z" transform="translate(-22.447 -14.335)"/><path style="fill:#090;fill-rule:evenodd;stroke:#000;stroke-width:11;stroke-linecap:butt;stroke-linejoin:round;stroke-miterlimit:4;stroke-dasharray:none;stroke-opacity:1;fill-opacity:1" d="m5.68 5.5 13.398 416.625c7.415 175.25 153.919 314.046 331.588 314.145 106.21-.13 201.326-49.902 262.223-127.358L5.679 5.5z"/><path style="fill:none;fill-rule:evenodd;stroke:#000;stroke-width:11;stroke-opacity:1" d="M28.126 19.835 41.524 436.46c7.415 175.25 153.92 314.047 331.59 314.145 177.51-.215 324.069-139.062 331.589-314.145l13.398-416.624h-344.98z" transform="translate(-22.447 -14.335)"/><g style="stroke:#000;stroke-opacity:1;stroke-width:5;stroke-miterlimit:4;stroke-dasharray:none;stroke-linecap:round;stroke-linejoin:round"><g style="stroke:#000;stroke-width:17.5346905;stroke-linejoin:round;stroke-miterlimit:4;stroke-dasharray:none;stroke-opacity:1;stroke-linecap:round"><path style="fill:#090;fill-opacity:1;fill-rule:evenodd;stroke:#000;stroke-width:17.5346905;stroke-linecap:round;stroke-linejoin:round;stroke-miterlimit:4;stroke-dasharray:none;stroke-opacity:1" d="M367.685 554.606s4.567-30.687 5.696-37.61c.829-5.077 2.345-10.029 4.295-14.79a84.357 84.357 0 0 1 15.27-24.336l-34.832-.477-34.832.477a84.35 84.35 0 0 1 15.267 24.336c1.95 4.76 3.467 9.713 4.295 14.79 1.13 6.923-3.788 37.61-3.788 37.61zM358.113 230.96a77.252 77.252 0 0 1-11.831 13.636c-16.03 14.588-37.602 21.757-52.586 37.496-8.799 9.242-14.847 21.022-18.74 33.366-3.894 12.344-5.721 25.288-6.895 38.218a396.277 396.277 0 0 0-.657 63.403h181.418a396.277 396.277 0 0 0-.657-63.403c-1.174-12.93-3-25.874-6.894-38.218-3.894-12.344-9.944-24.124-18.743-33.366-14.984-15.739-36.553-22.908-52.583-37.496a77.253 77.253 0 0 1-11.832-13.637z" transform="matrix(-.1966 -.20652 -.20696 .19618 723.944 77.94)"/><path style="fill:#090;fill-opacity:1;fill-rule:evenodd;stroke:#000;stroke-width:17.5346905;stroke-linecap:round;stroke-linejoin:round;stroke-miterlimit:4;stroke-dasharray:none;stroke-opacity:1" d="M258.441 384.356a74.958 74.958 0 0 0-2.127 27.27c2.102 19.726 12.228 38.211 26.67 51.812 17.046 16.052 39.639 25.388 62.72 29.316 5.432.965 8.257 1.102 12.41 1.102 4.151 0 7.353-.247 12.407-1.102 23.082-3.928 45.676-13.264 62.721-29.316 14.442-13.6 24.568-32.086 26.67-51.812a74.958 74.958 0 0 0-2.127-27.27H352.113z" transform="matrix(-.1966 -.20652 -.20696 .19618 723.944 77.94)"/><path d="m301.046 476.916 98.293-92.33M328.411 489.051l109.941-103.304M366.584 493.14l93.522-87.833M282.127 463.184l84.695-79.515M264.472 439.565l60.607-56.818M259.22 416.661l36.034-33.663M415.18 476.916l-98.293-92.33M387.815 489.051 277.874 385.747M349.642 493.14l-93.522-87.833M434.099 463.184l-84.695-79.515M451.754 439.565l-60.607-56.818M457.007 416.661l-36.035-33.663" style="fill:none;fill-rule:evenodd;stroke:#000;stroke-width:17.5346905;stroke-linecap:round;stroke-linejoin:round;stroke-miterlimit:4;stroke-dasharray:none;stroke-opacity:1" transform="matrix(-.1966 -.20652 -.20696 .19618 723.944 77.94)"/></g><g style="stroke:#000;stroke-width:17.53469077;stroke-linejoin:round;stroke-miterlimit:4;stroke-dasharray:none;stroke-opacity:1;stroke-linecap:round"><path style="fill:#090;fill-opacity:1;fill-rule:evenodd;stroke:#000;stroke-width:17.53469077;stroke-linecap:round;stroke-linejoin:round;stroke-miterlimit:4;stroke-dasharray:none;stroke-opacity:1" d="M367.685 554.606s4.567-30.687 5.696-37.61c.829-5.077 2.345-10.029 4.295-14.79a84.357 84.357 0 0 1 15.27-24.336l-34.832-.477-34.832.477a84.35 84.35 0 0 1 15.267 24.336c1.95 4.76 3.467 9.713 4.295 14.79 1.13 6.923-3.788 37.61-3.788 37.61zM358.113 230.96a77.252 77.252 0 0 1-11.831 13.636c-16.03 14.588-37.602 21.757-52.586 37.496-8.799 9.242-14.847 21.022-18.74 33.366-3.894 12.344-5.721 25.288-6.895 38.218a396.277 396.277 0 0 0-.657 63.403h181.418a396.277 396.277 0 0 0-.657-63.403c-1.174-12.93-3-25.874-6.894-38.218-3.894-12.344-9.944-24.124-18.743-33.366-14.984-15.739-36.553-22.908-52.583-37.496a77.253 77.253 0 0 1-11.832-13.637z" transform="matrix(-.22876 .1702 -.1707 -.22843 741.987 338.05)"/><path style="fill:#090;fill-opacity:1;fill-rule:evenodd;stroke:#000;stroke-width:17.53469077;stroke-linecap:round;stroke-linejoin:round;stroke-miterlimit:4;stroke-dasharray:none;stroke-opacity:1" d="M258.441 384.356a74.958 74.958 0 0 0-2.127 27.27c2.102 19.726 12.228 38.211 26.67 51.812 17.046 16.052 39.639 25.388 62.72 29.316 5.432.965 8.257 1.102 12.41 1.102 4.151 0 7.353-.247 12.407-1.102 23.082-3.928 45.676-13.264 62.721-29.316 14.442-13.6 24.568-32.086 26.67-51.812a74.958 74.958 0 0 0-2.127-27.27H352.113z" transform="matrix(-.22876 .1702 -.1707 -.22843 741.987 338.05)"/><path d="m301.046 476.916 98.293-92.33M328.411 489.051l109.941-103.304M366.584 493.14l93.522-87.833M282.127 463.184l84.695-79.515M264.472 439.565l60.607-56.818M259.22 416.661l36.034-33.663M415.18 476.916l-98.293-92.33M387.815 489.051 277.874 385.747M349.642 493.14l-93.522-87.833M434.099 463.184l-84.695-79.515M451.754 439.565l-60.607-56.818M457.007 416.661l-36.035-33.663" style="fill:none;fill-rule:evenodd;stroke:#000;stroke-width:17.53469077;stroke-linecap:round;stroke-linejoin:round;stroke-miterlimit:4;stroke-dasharray:none;stroke-opacity:1" transform="matrix(-.22876 .1702 -.1707 -.22843 741.987 338.05)"/></g><path transform="translate(855.685)" d="M-435.332 34.186c-1.872.025-3.754.539-5.223 1.685-1.266.988-2.173 2.41-2.597 3.96-.425 1.548-.376 3.214.074 4.755.36 1.234.967 2.386 1.3 3.627.167.62.265 1.265.221 1.906-.043.641-.234 1.28-.603 1.805-.386.55-.956.957-1.576 1.215-.621.257-1.292.372-1.963.412-1.342.08-2.69-.135-4.03-.022-2.473.21-4.821 1.601-6.193 3.67-1.846-2.305-4.85-3.63-7.797-3.44-2.039.133-3.968.933-5.963 1.376-.839.186-1.704.31-2.556.203-.853-.108-1.7-.47-2.26-1.121-.464-.539-.706-1.246-.75-1.955-.044-.71.104-1.42.35-2.086.49-1.334 1.359-2.49 2.005-3.756.863-1.69 1.324-3.614 1.102-5.498-.222-1.884-1.168-3.713-2.707-4.822-1.241-.895-2.805-1.285-4.334-1.233-1.529.052-3.023.528-4.38 1.233-1.664.863-3.154 2.09-4.206 3.64-1.052 1.55-1.645 3.435-1.527 5.305.098 1.559.672 3.047.9 4.592.114.772.14 1.566-.023 2.33-.164.763-.526 1.498-1.106 2.021-.749.677-1.804.95-2.812.899-1.009-.052-1.979-.403-2.887-.844-.908-.44-1.77-.975-2.672-1.428-.902-.453-1.862-.827-2.867-.92a5.483 5.483 0 0 0-3.035.61 5.7 5.7 0 0 0-2.24 2.142c-.958 1.627-1.06 3.664-.55 5.48.51 1.818 1.583 3.435 2.842 4.84 1.697 1.895 3.754 3.466 5.276 5.504.565.758 1.056 1.582 1.334 2.485.278.903.334 1.892.043 2.79-.27.831-.825 1.552-1.506 2.099-.68.546-1.484.926-2.314 1.195-1.661.538-3.43.646-5.125 1.064-1.662.41-3.313 1.167-4.358 2.522-.585.758-.953 1.675-1.107 2.62-.154.946-.098 1.92.113 2.854.421 1.87 1.441 3.55 2.6 5.077.647.853 1.349 1.676 1.837 2.628.245.477.434.984.524 1.512a3.6 3.6 0 0 1-.068 1.592 3.282 3.282 0 0 1-.86 1.43c-.401.394-.9.686-1.433.863-.658.217-1.359.259-2.051.252-.692-.007-1.385-.058-2.076-.022-1.164.062-2.299.375-3.452.545-1.152.17-2.378.186-3.43-.316-.695-.332-1.278-.878-1.7-1.524-.422-.645-.688-1.387-.823-2.146-.218-1.233-.098-2.513.248-3.717.347-1.204.915-2.336 1.588-3.392 1.484-2.33 3.496-4.341 4.586-6.88.483-1.124.774-2.338.793-3.562.02-1.223-.237-2.456-.793-3.547-.569-1.117-1.446-2.07-2.486-2.77-1.04-.7-2.24-1.15-3.477-1.359-1.143-.192-2.328-.177-3.449.118-1.121.294-2.175.874-2.97 1.716-.777.823-1.283 1.856-1.895 2.807-.306.475-.644.935-1.049 1.33-.405.395-.88.725-1.414.91a3.408 3.408 0 0 1-2.117.014 4.078 4.078 0 0 1-1.783-1.16c-.521-.574-.887-1.278-1.123-2.016-.237-.738-.346-1.51-.393-2.283-.094-1.547.058-3.104-.09-4.646-.335-3.499-2.316-6.817-5.273-8.715-2.419-1.552-5.485-2.135-8.256-1.375-1.925.528-3.646 1.666-5.074 3.06-1.429 1.395-2.585 3.043-3.641 4.737-.883 1.415-1.71 2.888-2.168 4.492-.457 1.604-.52 3.363.104 4.91.483 1.196 1.342 2.196 2.21 3.15.87.954 1.773 1.902 2.375 3.043.726 1.375.969 3.024.534 4.516a5.11 5.11 0 0 1-1.125 2.02 4.614 4.614 0 0 1-1.93 1.261c-1.143.38-2.391.274-3.572.037-1.181-.236-2.34-.598-3.537-.724-1.864-.197-3.803.21-5.375 1.23s-2.751 2.663-3.112 4.502c-.268 1.37-.089 2.796.297 4.137.386 1.34.972 2.614 1.537 3.89 1.428 3.224 2.745 6.572 2.983 10.09.217 3.22-.49 6.471-1.834 9.405-1.727 3.77-4.451 6.989-7.293 10.01-2.842 3.02-5.85 5.91-8.303 9.253-1.322 1.801-2.522 3.772-4.357 5.045-1.719 1.192-3.839 1.656-5.918 1.879-2.08.223-4.186.235-6.237.645-2.365.472-4.707 1.54-6.193 3.439-1.163 1.486-1.725 3.41-1.649 5.295.077 1.886.773 3.725 1.88 5.254a11.13 11.13 0 0 0 4.447 3.6 11.83 11.83 0 0 0 5.642.988c1.2-.084 2.38-.346 3.576-.455 1.197-.11 2.446-.056 3.534.455.958.45 1.742 1.244 2.218 2.19.477.944.65 2.031.534 3.083-.172 1.558-.945 2.979-1.76 4.317-.816 1.338-1.7 2.665-2.139 4.17-.595 2.043-.297 4.304.688 6.19 1.313 2.516 3.853 4.354 6.652 4.817a15.725 15.725 0 0 0-3.67 9.403c-.072 1.696.141 3.425.809 4.986.667 1.56 1.812 2.944 3.318 3.728 1.286.67 2.775.88 4.223.805 1.447-.074 2.866-.42 4.263-.805.792-.218 1.586-.45 2.403-.54.816-.091 1.668-.032 2.414.312a3.685 3.685 0 0 1 1.361 1.105c.36.468.615 1.013.77 1.582.308 1.14.216 2.358-.067 3.504-.304 1.234-.82 2.404-1.232 3.606-.413 1.202-.727 2.47-.604 3.734.179 1.827 1.281 3.488 2.752 4.586a8.265 8.265 0 0 0 5.086 1.625 8.261 8.261 0 0 0 5.006-1.853 10.936 10.936 0 0 0 .459 7.797c.958 2.1 2.598 3.87 4.586 5.044 1.11.656 2.342 1.134 3.625 1.26 1.283.127 2.62-.115 3.713-.8.719-.452 1.313-1.078 1.834-1.749.52-.67.975-1.388 1.472-2.076.498-.687 1.044-1.35 1.713-1.873.67-.522 1.474-.898 2.32-.953a3.71 3.71 0 0 1 2.14.543c.639.386 1.166.948 1.544 1.592.827 1.406.931 3.105 1.047 4.732.058.814.125 1.63.299 2.426.174.797.458 1.579.924 2.248.823 1.184 2.188 1.947 3.617 2.145 1.429.197 2.908-.146 4.168-.848 1.441-.803 2.594-2.049 3.512-3.42.917-1.371 1.618-2.873 2.326-4.363.578-1.217 1.185-2.459 2.154-3.395.485-.468 1.058-.852 1.695-1.07.638-.218 1.342-.264 1.989-.076.549.159 1.043.48 1.447.884.404.404.723.889.977 1.4.507 1.025.762 2.152 1.142 3.23.967 2.738 2.72 5.126 3.893 7.783.504 1.142.904 2.35.972 3.597.069 1.247-.218 2.544-.972 3.54-.525.69-1.258 1.213-2.067 1.527a5.952 5.952 0 0 1-2.556.365c-1.732-.12-3.36-.9-4.784-1.893-1.013-.707-1.946-1.528-2.996-2.18-1.05-.65-2.256-1.134-3.49-1.064-1.18.067-2.3.648-3.133 1.486-.833.84-1.394 1.922-1.732 3.055-.46 1.543-.518 3.224-.033 4.76.484 1.536 1.533 2.91 2.953 3.672 1.52.814 3.31.885 5.01 1.17.85.142 1.698.347 2.474.722.776.376 1.481.935 1.922 1.676.405.68.57 1.49.52 2.28-.05.789-.31 1.558-.702 2.246-.783 1.374-2.06 2.395-3.386 3.257-1.245.81-2.562 1.511-3.742 2.41-1.181.9-2.24 2.032-2.745 3.428-.425 1.176-.43 2.478-.156 3.698.273 1.22.813 2.365 1.453 3.439 2.152 3.61 5.627 6.553 9.73 7.459 2.09.461 4.329.378 6.305-.441 1.977-.82 3.664-2.415 4.399-4.424.626-1.711.547-3.585.682-5.403.067-.908.19-1.818.48-2.681.29-.864.756-1.684 1.432-2.295.726-.658 1.677-1.052 2.652-1.15.975-.099 1.97.093 2.861.501 1.163.533 2.135 1.418 2.955 2.399.82.98 1.505 2.065 2.235 3.115.797 1.147 1.659 2.265 2.728 3.162 1.07.898 2.368 1.568 3.758 1.703 1.65.16 3.322-.458 4.611-1.5 1.29-1.042 2.221-2.48 2.85-4.013 1.714-4.183 1.173-9.189-1.299-12.973-.76-1.164-1.695-2.231-2.238-3.512-.272-.64-.442-1.332-.416-2.027.026-.695.256-1.394.709-1.922.324-.378.752-.66 1.22-.828a3.55 3.55 0 0 1 1.471-.186c.992.077 1.926.526 2.725 1.12 1.597 1.186 2.71 2.935 4.314 4.11a7.854 7.854 0 0 0 3.604 1.448 7.808 7.808 0 0 0 3.855-.475c1.84-.724 3.371-2.174 4.24-3.949.87-1.775 1.078-3.855.626-5.78-.366-1.55-1.133-2.972-1.752-4.44-.62-1.469-1.1-3.068-.844-4.641.166-1.02.642-1.977 1.28-2.791.637-.814 1.434-1.492 2.288-2.074 2.467-1.681 5.45-2.584 8.434-2.594 4.795-.015 9.28 2.178 13.62 4.215 4.91 2.304 9.887 4.469 14.92 6.488a353.73 353.73 0 0 1 2.919 26.27c1.26 17.169 1.264 34.46-.649 51.568-.308 2.76-.67 5.53-1.433 8.201-.764 2.671-1.949 5.257-3.756 7.367-1.798 2.1-4.179 3.675-6.77 4.639-2.59.964-5.388 1.328-8.15 1.2-7.55-.353-14.402-4.246-21.08-7.784a289.278 289.278 0 0 0-21.73-10.379 28.731 28.731 0 0 0 4.54 15.893c4.25 6.597 10.964 11.116 17.19 15.892a172.458 172.458 0 0 1 21.08 19.135 40.074 40.074 0 0 0 10.379-5.514 40.074 40.074 0 0 0 8.433-8.431 250.514 250.514 0 0 1 14.27 48.648 250.012 250.012 0 0 1 12-.973 307.394 307.394 0 0 0-4.863-19.459c-1.701-5.969-3.597-11.964-3.893-18.164a36.01 36.01 0 0 1 4.865-19.783c7.917 6.222 13.968 14.785 17.19 24.324.993 2.941 1.725 5.986 1.945 9.082.57 8.01-2.275 15.81-3.892 23.676-.761 3.698-1.255 7.474-1.059 11.244.196 3.77 1.107 7.548 3.006 10.81 2.417 4.153 6.436 7.343 11.027 8.757.511-7.46.88-14.93 1.112-22.404.268-8.696.337-17.397.226-26.096-.08-1.13-.11-2.262-.04-3.393.02 1.13.026 2.262.04 3.393.345 4.885 2.034 9.675 4.906 13.644 1.583 2.187 3.491 4.115 5.432 5.99 1.968 1.902 3.984 3.766 5.734 5.87 1.751 2.103 3.24 4.475 3.994 7.105 1.273 4.438.358 9.2-.972 13.621-.702 2.334-1.518 4.637-2.04 7.018-.52 2.38-.739 4.868-.23 7.252.417 1.95 1.304 3.768 2.27 5.513a61.236 61.236 0 0 0 4.865 7.461 49.47 49.47 0 0 1 5.22-18.316 49.339 49.339 0 0 1 3.716-6.129c2.218.64 4.284 1.8 5.984 3.363 2.242 2.062 3.8 4.75 5.19 7.46.75 1.462 1.465 2.954 1.923 4.533.459 1.578.652 3.258.346 4.873-.252 1.33-.836 2.58-1.566 3.72-.73 1.14-1.606 2.18-2.49 3.205a184.039 184.039 0 0 1-10.214 10.913 19.883 19.883 0 0 0 3.567 7.134 19.89 19.89 0 0 0 6.162 5.19 42.649 42.649 0 0 0 8.758-10.377 69.794 69.794 0 0 0 10.379 27.89h6.81l4.865 10.38a177.973 177.973 0 0 0 5.514-4.216c1.26-1.002 2.51-2.029 3.567-3.244a14.293 14.293 0 0 0 2.271-3.568 919.151 919.151 0 0 1-24.65-40.541 155.95 155.95 0 0 0 4.216-9.08c.973-2.283 1.905-4.656 1.948-7.137.048-2.832-1.066-5.544-2.272-8.107-3.483-7.405-7.89-14.33-12-21.407-7.173-12.352-13.561-25.352-23.1-35.984-4.357-4.857-9.384-9.238-12.615-14.908-1.816-3.187-3.01-6.711-3.668-10.32-1.776-9.761.371-19.74 1.606-29.584 3.042-24.252.51-48.89-3.899-72.93-.437-2.387-.896-4.785-.925-7.211-.03-2.426.394-4.91 1.613-7.008 1.353-2.329 3.617-4.04 6.103-5.076 2.487-1.035 5.195-1.437 7.885-1.574 3.135-.16 6.322.036 9.315.982 2.992.946 5.792 2.687 7.658 5.211a12.631 12.631 0 0 1 2.35 5.87 13.139 13.139 0 0 1-.747 6.284c-1.082 2.867-3.102 5.257-4.814 7.797-2.705 4.015-4.724 8.693-4.588 13.532.022.777.1 1.556.309 2.304.209.749.555 1.469 1.068 2.053.806.917 1.988 1.45 3.195 1.633 1.207.183 2.444.042 3.637-.219 2.386-.523 4.717-1.53 7.156-1.414.798.038 1.598.2 2.323.537.724.338 1.371.857 1.806 1.527.519.8.713 1.782.668 2.735-.045.953-.317 1.882-.668 2.77-.962 2.435-2.514 4.588-4.129 6.65-1 1.277-2.04 2.544-2.758 4-.717 1.455-1.093 3.145-.681 4.715.372 1.421 1.38 2.638 2.644 3.386 1.265.749 2.77 1.047 4.237.971 2.739-.142 5.339-1.575 7.109-3.67.667-.79 1.226-1.668 1.938-2.418.355-.375.749-.718 1.193-.982.444-.264.94-.449 1.455-.498a3.317 3.317 0 0 1 1.723.318 4.26 4.26 0 0 1 1.39 1.08c.772.896 1.2 2.038 1.475 3.188.282 1.176.418 2.4.265 3.6-.152 1.199-.61 2.377-1.414 3.28-.722.813-1.686 1.367-2.656 1.858-.97.49-1.973.935-2.847 1.582a7.274 7.274 0 0 0-2.592 3.6 6.934 6.934 0 0 0 .07 4.427 6.76 6.76 0 0 0 2.041 2.9 6.764 6.764 0 0 0 3.232 1.458c1.724.272 3.499-.136 5.098-.834 1.6-.698 3.058-1.676 4.535-2.606.872-.549 1.77-1.09 2.77-1.342a4.228 4.228 0 0 1 1.533-.117c.512.062 1.014.24 1.432.541.49.354.849.87 1.068 1.434.22.563.304 1.173.307 1.777.006 1.266-.338 2.506-.737 3.707-.399 1.201-.857 2.388-1.097 3.631-.208 1.076-.249 2.192-.037 3.268.21 1.075.68 2.11 1.412 2.925 1.012 1.13 2.482 1.787 3.984 1.998 1.502.212 3.038.003 4.502-.392 3.203-.866 6.224-2.719 8.027-5.504 1.038-1.604 1.641-3.455 2.016-5.328.374-1.873.53-3.783.736-5.682.232-2.133.535-4.286 1.356-6.27.82-1.982 2.216-3.804 4.148-4.738 1.812-.875 3.913-.902 5.916-.71 2.003.19 4 .584 6.01.482 3.85-.195 7.36-2.17 10.648-4.18 3.29-2.01 6.643-4.157 10.45-4.765 1.916-.307 3.924-.216 5.734-.916 1.71-.661 3.1-1.987 4.117-3.51 1.018-1.524 1.695-3.248 2.303-4.977.934-2.655 1.735-5.502 1.148-8.256-.491-2.306-1.903-4.288-3.162-6.283-.629-.997-1.23-2.02-1.67-3.113-.44-1.094-.716-2.267-.673-3.445a6.273 6.273 0 0 1 .964-3.137 5.68 5.68 0 0 1 2.477-2.139c1.305-.572 2.772-.604 4.193-.703.711-.05 1.423-.118 2.116-.283.692-.166 1.369-.431 1.947-.848a4.685 4.685 0 0 0 1.377-1.601 5.773 5.773 0 0 0 .619-2.024c.17-1.41-.126-2.843-.621-4.174-.687-1.843-1.767-3.544-3.184-4.908-1.416-1.364-3.17-2.386-5.072-2.889-1.528-.404-3.12-.474-4.688-.667-1.568-.194-3.164-.53-4.486-1.397-1.247-.818-2.193-2.109-2.52-3.564-.326-1.456-.004-3.06.917-4.233.515-.657 1.195-1.167 1.914-1.592.718-.425 1.48-.772 2.222-1.156.742-.384 1.47-.808 2.088-1.369.619-.56 1.127-1.27 1.342-2.076.224-.839.119-1.75-.229-2.545-.347-.796-.926-1.478-1.61-2.012-1.37-1.067-3.108-1.528-4.811-1.863-4.446-.875-9.004-1.065-13.532-.918-4.145.134-8.278.548-12.382 1.146-1.087.159-2.199.33-3.276.116a3.72 3.72 0 0 1-1.502-.643c-.44-.328-.793-.782-.957-1.307-.178-.57-.125-1.194.033-1.771s.416-1.121.655-1.67c.88-2.026 1.501-4.214 1.377-6.42-.057-1.012-.27-2.01-.332-3.021-.062-1.012.04-2.072.56-2.942a3.734 3.734 0 0 1 1.305-1.275 4.69 4.69 0 0 1 1.732-.592c1.216-.172 2.458.08 3.615.49a13.554 13.554 0 0 1 5.274 3.442c1.87 1.972 3.15 4.496 5.275 6.191 2.255 1.799 5.192 2.451 8.028 2.98 1.181.221 2.384.43 3.578.292a5.037 5.037 0 0 0 1.722-.5 3.631 3.631 0 0 0 1.35-1.166c.526-.773.686-1.76.56-2.686-.125-.926-.52-1.8-1.019-2.59-.37-.585-.799-1.132-1.154-1.726-.356-.595-.64-1.252-.68-1.944a3.056 3.056 0 0 1 .98-2.387 3.26 3.26 0 0 1 2.46-.822c.573.05 1.126.249 1.63.526.505.277.963.63 1.4 1.004.876.748 1.687 1.594 2.702 2.138 1.192.64 2.61.816 3.943.58 1.333-.235 2.58-.867 3.625-1.726 1.333-1.095 2.347-2.553 3.018-4.143.67-1.59 1.008-3.309 1.111-5.031.225-3.765-.695-7.616-2.752-10.777-1.296-1.994-3.073-3.73-5.256-4.674a8.776 8.776 0 0 0-3.464-.739c-1.19 0-2.382.27-3.434.825-1.368.72-2.45 1.878-3.701 2.785-.626.453-1.304.847-2.043 1.072-.74.225-1.546.273-2.283.041a3.342 3.342 0 0 1-1.868-1.52 3.678 3.678 0 0 1-.425-2.378c.1-.647.365-1.261.71-1.817.346-.556.772-1.056 1.213-1.539.884-.966 1.858-1.89 2.434-3.066.497-1.014.666-2.176.53-3.297-.137-1.12-.575-2.196-1.22-3.123-.91-1.31-2.22-2.313-3.667-2.983-2.21-1.022-4.815-1.274-7.11-.459-1.954.695-3.586 2.109-4.888 3.723-1.303 1.614-2.313 3.438-3.37 5.223-.49.827-1.001 1.66-1.72 2.297-.36.318-.769.584-1.219.752-.45.167-.943.235-1.418.162-.655-.102-1.253-.471-1.686-.973-.432-.502-.704-1.13-.835-1.78-.19-.94-.095-1.912.002-2.866.096-.955.19-1.928-.002-2.868-.213-1.037-.78-1.991-1.56-2.709a5.946 5.946 0 0 0-2.798-1.418c-1.882-.396-3.897.089-5.504 1.147-1.204.793-2.194 1.89-2.947 3.121-.753 1.23-1.275 2.593-1.64 3.988-.319 1.214-.52 2.459-.893 3.657-.374 1.197-.94 2.369-1.86 3.222-.58.538-1.29.935-2.054 1.137-.765.202-1.58.21-2.346.012a4.461 4.461 0 0 1-2.035-1.164 4.27 4.27 0 0 1-1.133-2.047c-.146-.641-.137-1.306-.154-1.963-.017-.657-.061-1.327-.303-1.938-.324-.817-.97-1.456-1.605-2.062-.833-.795-1.685-1.583-2.348-2.524-.663-.94-1.134-2.06-1.094-3.21.041-1.187.632-2.317 1.486-3.141.855-.824 1.957-1.36 3.102-1.676 1.591-.438 3.265-.467 4.914-.398 1.65.068 3.298.232 4.947.17 2.15-.082 4.307-.559 6.198-1.586 1.89-1.028 3.5-2.631 4.351-4.608.921-2.14.913-4.548.918-6.879.002-.687.007-1.385.193-2.047.094-.33.232-.651.428-.933a2.22 2.22 0 0 1 .754-.69c.365-.197.791-.272 1.205-.246.414.027.817.153 1.19.336.744.367 1.354.952 1.963 1.516 1.783 1.652 3.71 3.216 5.962 4.129 1.88.761 3.94 1.042 5.963.916 1.675-.105 3.34-.487 4.854-1.21 1.514-.722 2.873-1.792 3.861-3.148 1.702-2.336 2.197-5.484 1.377-8.256-.381-1.29-1.026-2.496-1.312-3.81-.143-.657-.194-1.341-.07-2.002.123-.661.429-1.3.923-1.756.619-.57 1.49-.816 2.332-.787.841.029 1.657.312 2.408.691 1.504.758 2.82 1.91 4.434 2.39 1.189.356 2.47.318 3.678.034 1.207-.284 2.348-.806 3.431-1.41 2.784-1.553 5.314-3.756 6.65-6.65.949-2.052 1.245-4.473.454-6.59-.396-1.06-1.06-2.023-1.938-2.735-.878-.71-1.973-1.163-3.101-1.226-1.329-.074-2.633.376-3.961.455-.664.04-1.343-.017-1.96-.27-.615-.252-1.162-.718-1.419-1.332a2.343 2.343 0 0 1-.139-1.27 3.05 3.05 0 0 1 .48-1.193c.478-.719 1.2-1.24 1.952-1.664 1.034-.583 2.148-1.008 3.225-1.507 1.076-.5 2.135-1.087 2.968-1.932 1.394-1.413 2.035-3.446 2.069-5.43.034-1.984-.489-3.938-1.153-5.808-.757-2.133-1.734-4.242-3.312-5.864-.79-.81-1.723-1.488-2.768-1.923-1.044-.436-2.201-.622-3.322-.47-1.674.229-3.18 1.196-4.336 2.429-1.155 1.232-1.998 2.721-2.773 4.222-.56 1.082-1.094 2.184-1.776 3.194-.682 1.01-1.525 1.932-2.582 2.539-1.159.665-2.568.915-3.867.6-1.299-.316-2.462-1.217-3.014-2.434-.38-.84-.466-1.789-.377-2.705.09-.917.346-1.81.627-2.686.282-.877.59-1.747.787-2.646.198-.9.283-1.838.112-2.743-.185-.98-.662-1.88-1.19-2.726-.528-.846-1.114-1.656-1.562-2.547-.232-.461-.427-.945-.524-1.451-.096-.507-.092-1.04.065-1.532a2.84 2.84 0 0 1 .652-1.082 3.64 3.64 0 0 1 1.025-.746c.762-.378 1.62-.518 2.47-.566.848-.048 1.699-.01 2.548-.053.85-.042 1.708-.17 2.477-.533 1.039-.49 1.855-1.389 2.373-2.414.518-1.026.754-2.175.838-3.32.092-1.27-.003-2.563-.403-3.772-.399-1.208-1.112-2.329-2.119-3.107a6.157 6.157 0 0 0-2.55-1.139c-.922-.185-1.877-.18-2.805-.035-1.857.289-3.584 1.125-5.196 2.09-3.034 1.817-5.82 4.146-9.172 5.275-1.09.368-2.255.603-3.394.434a4.258 4.258 0 0 1-1.617-.576 3.327 3.327 0 0 1-1.182-1.233c-.347-.645-.444-1.39-.576-2.111-.132-.72-.318-1.465-.799-2.018a2.516 2.516 0 0 0-1.207-.752 3.047 3.047 0 0 0-1.426-.045c-.942.189-1.77.771-2.414 1.485-1.449 1.607-2.02 3.795-2.98 5.734-.395.797-.864 1.564-1.469 2.215-.605.651-1.354 1.184-2.201 1.453a4.209 4.209 0 0 1-2.735-.064 4.06 4.06 0 0 1-2.082-1.77c-.393-.69-.567-1.48-.785-2.244-.218-.764-.498-1.54-1.049-2.113-.399-.415-.926-.701-1.486-.834a3.625 3.625 0 0 0-1.71.023c-1.118.28-2.073 1.037-2.766 1.957-.618.82-1.047 1.764-1.61 2.621-.281.429-.6.838-.978 1.184-.379.346-.821.63-1.31.783-.828.259-1.751.128-2.52-.271-.77-.4-1.392-1.05-1.838-1.793-.634-1.055-.927-2.276-1.135-3.489-.209-1.212-.343-2.443-.7-3.62-.608-2.012-1.837-3.778-3.165-5.407-1.329-1.629-2.779-3.165-3.944-4.914-.473-.712-.9-1.457-1.435-2.123-.536-.666-1.202-1.258-2.006-1.547-.877-.315-1.844-.244-2.76-.07-.915.173-1.816.446-2.744.529-.65.058-1.314.02-1.93-.195-.615-.216-1.178-.621-1.51-1.182a2.64 2.64 0 0 1-.351-1.281 3.53 3.53 0 0 1 .236-1.317c.315-.839.887-1.554 1.49-2.216.798-.876 1.67-1.692 2.354-2.659.684-.966 1.178-2.124 1.088-3.304-.064-.842-.429-1.65-.977-2.293-.547-.643-1.271-1.124-2.058-1.43-1.574-.613-3.34-.528-4.992-.176-1.301.278-2.565.713-3.873.95-1.31.236-2.702.261-3.924-.262-1.308-.56-2.279-1.678-3.211-2.752-1.993-2.297-4.065-4.593-6.65-6.194-1.572-.972-3.356-1.678-5.204-1.705a6.694 6.694 0 0 0-2.705.506c-.85.361-1.62.927-2.183 1.658-.54.7-.885 1.54-1.059 2.407-.174.866-.18 1.761-.088 2.64.163 1.547.628 3.043.992 4.555.365 1.512.631 3.081.385 4.617a6.255 6.255 0 0 1-.894 2.393 5.047 5.047 0 0 1-1.858 1.736c-1.093.579-2.39.69-3.613.504-1.223-.187-2.382-.655-3.496-1.191-.76-.366-1.512-.769-2.143-1.327-.63-.557-1.138-1.288-1.299-2.115-.102-.527-.06-1.072 0-1.605.13-1.142.35-2.279.336-3.428-.014-1.15-.286-2.341-1.023-3.223-.59-.706-1.438-1.162-2.32-1.424-.883-.261-1.807-.342-2.725-.41-.957-.07-1.923-.127-2.85-.377-.926-.249-1.825-.71-2.425-1.459-.658-.818-.897-1.887-1.065-2.923-.168-1.037-.29-2.104-.77-3.038-.477-.928-1.28-1.66-2.175-2.199-.895-.539-1.884-.901-2.871-1.242-1.601-.553-3.243-1.061-4.936-1.111-.846-.025-1.701.065-2.51.318-.808.253-1.57.67-2.185 1.252-1.016.959-1.589 2.335-1.701 3.727-.113 1.392.21 2.796.783 4.07.56 1.246 1.358 2.385 1.8 3.678.222.646.352 1.33.303 2.011-.048.682-.282 1.36-.726 1.88-.539.628-1.339.98-2.143 1.177-.804.197-1.634.26-2.445.428-1.313.272-2.553.813-3.848 1.162-.647.174-1.31.301-1.98.318-.67.017-1.35-.078-1.969-.334-.832-.343-1.532-.965-2.057-1.697-.524-.732-.882-1.571-1.154-2.43-.703-2.221-.864-4.653-2.064-6.65a7.089 7.089 0 0 0-3.592-2.988 6.763 6.763 0 0 0-4.664.005c-1.49.56-2.734 1.655-3.69 2.926-.956 1.272-1.646 2.722-2.273 4.184a62.693 62.693 0 0 0-1.834 4.816c-2.122.76-4.481.841-6.65.229-.707-.2-1.4-.474-2.008-.885-.609-.411-1.133-.966-1.434-1.637a3.857 3.857 0 0 1-.312-1.656 5.89 5.89 0 0 1 .298-1.668c.346-1.079.918-2.068 1.391-3.098.396-.861.726-1.76.879-2.695.153-.936.12-1.913-.191-2.809-.378-1.08-1.147-1.994-2.051-2.695-.905-.701-1.944-1.207-2.994-1.662-1.954-.847-4.008-1.54-6.133-1.668a10.883 10.883 0 0 0-.799-.017zm76.588 137.837c.453-.004.907.003 1.36.024a6.961 6.961 0 0 0 2.782 3.93c.813.553 1.73.925 2.622 1.341.89.416 1.776.893 2.453 1.606 1.022 1.077 1.466 2.606 1.472 4.092.01 1.963-.678 3.857-1.404 5.681-.726 1.824-1.507 3.662-1.705 5.615-.285 2.81.66 5.582 1.562 8.258.903 2.677 1.79 5.482 1.385 8.278-.424 2.93-2.289 5.553-4.748 7.203-3.294 2.21-7.395 2.722-11.297 3.437-1.436.264-2.876.563-4.336.582-1.46.02-2.963-.261-4.177-1.072-1.19-.795-2.018-2.046-2.55-3.375-.53-1.33-.792-2.748-1.052-4.156-1.093-5.923-2.237-11.848-2.783-17.846-.227-2.486-.35-4.993-.082-7.475.267-2.481.937-4.948 2.21-7.095 1.998-3.366 5.37-5.751 9.005-7.203a25.704 25.704 0 0 1 9.283-1.825zm-83.477 15.422c.398 0 .794.05 1.178.155 1.344.363 2.437 1.33 3.39 2.343.955 1.014 1.84 2.118 2.995 2.895 1.71 1.151 3.839 1.472 5.894 1.639 1.208.097 2.424.151 3.627.008 1.203-.144 2.397-.494 3.412-1.155a6.215 6.215 0 0 0 2.186-2.478 6.222 6.222 0 0 0 .598-3.252 46.013 46.013 0 0 1 6.875 10.804 46.29 46.29 0 0 1 4.093 20.956c-.054 1.337-.167 2.68-.504 3.976-.336 1.296-.906 2.549-1.789 3.555-1.178 1.343-2.854 2.173-4.584 2.619-2.345.604-4.82.552-7.21.166-2.391-.386-4.715-1.096-7.032-1.803-5.602-1.708-11.23-3.411-16.535-5.892-2.565-1.2-5.044-2.577-7.531-3.93-.555-.302-1.113-.604-1.61-.994-.496-.39-.932-.877-1.173-1.461a3.046 3.046 0 0 1-.153-1.75c.117-.583.39-1.129.762-1.592.744-.926 1.855-1.499 3.002-1.81 2.293-.624 4.783-.301 7.031-1.07 2.2-.754 3.942-2.49 5.238-4.42.391-.583.753-1.193.961-1.862.209-.67.256-1.408.022-2.068-.253-.714-.812-1.283-1.438-1.71-.626-.426-1.324-.728-2-1.072-.917-.466-1.803-1.015-2.556-1.716-.754-.702-1.375-1.565-1.701-2.541a5.067 5.067 0 0 1-.112-2.811 5.01 5.01 0 0 1 1.422-2.428 4.835 4.835 0 0 1 2.063-1.148 4.632 4.632 0 0 1 1.18-.153z" style="fill:#090;fill-opacity:1;fill-rule:evenodd;stroke:#000;stroke-width:5;stroke-linecap:round;stroke-linejoin:round;stroke-miterlimit:4;stroke-dasharray:none;stroke-opacity:1"/><path d="M-477.762 284.541a148.72 148.72 0 0 1 8.582-9.51c5.498-5.588 11.489-10.776 18.324-14.613a58.028 58.028 0 0 1 15.773-6.03M-295.794 264.825c4.11 6.661 7.98 13.471 11.597 20.412 4.19 8.038 8.042 16.25 11.598 24.587a384.937 384.937 0 0 1 6.495 16.237M-258.914 253.923a753.283 753.283 0 0 0 16.47 12.758c4.739 3.568 9.563 7.118 13.452 11.597a40.093 40.093 0 0 1 6.031 9.279M-474.167 212.867a56.305 56.305 0 0 0-13.453-4.87c-8.72-1.949-17.782-1.792-26.675-.928a171.262 171.262 0 0 0-22.5 3.71M-498.986 237.686a123.889 123.889 0 0 1 25.283 1.16 123.88 123.88 0 0 1 23.195 5.8M-447.492 225.393a56.643 56.643 0 0 1 .232-7.655c.326-3.322.947-6.645.696-9.974a19.21 19.21 0 0 0-2.784-8.582M-432.321 231.392a4.061 4.061 0 0 1-2.946 1.68 4.061 4.061 0 0 1-3.179-1.184c-.719-.732-1.133-1.722-1.316-2.731-.183-1.01-.15-2.045-.076-3.068.366-5.011 1.715-9.909 3.48-14.613 1.853-4.942 4.194-9.742 7.422-13.918 2.783-3.599 6.181-6.678 9.742-9.51 1.89-1.502 3.854-2.964 5.335-4.87a13.388 13.388 0 0 0 2.784-7.655M-485.069 190.368a73.081 73.081 0 0 0-17.164-6.495c-9.762-2.344-19.885-2.65-29.922-2.783a939.776 939.776 0 0 0-25.051 0M-492.027 179.002c-3.871-8.812-7.737-17.626-11.598-26.443-4.062-9.274-8.12-18.558-11.598-28.066a246.691 246.691 0 0 1-6.03-18.788M-469.296 197.558c.844-4.441 1.85-8.852 3.016-13.22 2.498-9.369 5.731-18.544 9.742-27.372a165.9 165.9 0 0 1 8.35-16.004M-459.786 124.957c.546-4.852.856-9.731.928-14.613.117-7.888-.385-15.771-.464-23.66-.041-4.176.036-8.353.232-12.525M-423.369 129.828c.592-5.937 1.6-11.833 3.015-17.629 1.535-6.286 3.548-12.454 4.871-18.788a88.757 88.757 0 0 0 1.856-16.237M-380.226 159.75c-1.43-2.24-1.781-5.137-.927-7.655.668-1.97 2.002-3.641 3.43-5.155 1.427-1.513 2.979-2.92 4.224-4.587 2.99-4 3.97-9.16 4.175-14.149.169-4.095-.125-8.197 0-12.293a60.023 60.023 0 0 1 1.392-11.134M-382.081 83.901a27.891 27.891 0 0 0-4.175 8.582c-.68 2.362-1.045 4.802-1.624 7.19a41.544 41.544 0 0 1-2.783 7.887c-.973 2.067-2.111 4.05-3.248 6.031-1.106 1.927-2.286 3.934-4.175 5.103-1.77 1.095-3.955 1.31-6.03 1.16a19.323 19.323 0 0 1-6.96-1.856M-352.855 95.73c.127-2.492.437-4.975.928-7.422.668-3.332 1.67-6.602 2.087-9.974a29.256 29.256 0 0 0 0-7.19M-302.057 152.095a35.89 35.89 0 0 1 0-11.133c.88-5.598 3.075-10.91 4.175-16.47 1.177-5.944 1.082-12.091.232-18.091a73.052 73.052 0 0 0-1.624-8.119M-360.973 187.352c3.418-4.877 7.057-9.6 10.901-14.149 5.32-6.293 11.046-12.27 15.773-19.02a80.686 80.686 0 0 0 8.119-14.613M-326.644 102.457a31.678 31.678 0 0 0-5.103 9.278 31.721 31.721 0 0 0-1.624 13.222M-319.918 234.671c2.79-3.384 5.652-6.71 8.583-9.974 3.085-3.436 6.261-6.822 8.814-10.67 3.95-5.953 6.277-12.805 8.814-19.484a286.923 286.923 0 0 1 3.712-9.278M-313.19 198.486a24.731 24.731 0 0 0-.233-11.597c-.938-3.56-2.658-6.853-4.175-10.206a96.6 96.6 0 0 1-3.711-9.51M-257.29 182.018a164.574 164.574 0 0 1 13.221-11.598c6.698-5.27 13.793-10.01 20.644-15.077 4.03-2.98 7.975-6.075 11.83-9.278M-265.176 235.83a47.865 47.865 0 0 1 13.453-7.886c6.066-2.326 12.547-3.392 19.02-3.943 4.706-.4 9.43-.537 14.15-.696 4.334-.146 8.789-.337 12.757-2.087a17.285 17.285 0 0 0 4.639-3.016M-271.903 147.456a44.86 44.86 0 0 1 6.263-8.582c3.708-3.986 8.105-7.26 12.525-10.438a513.933 513.933 0 0 1 14.381-9.974M-291.02 256.31a9.496 9.496 0 0 0-.144 4.819 9.495 9.495 0 0 0 2.253 4.262c1.156 1.255 2.637 2.178 4.202 2.855 1.566.678 3.221 1.121 4.88 1.524 4.028.977 8.108 1.726 12.162 2.594 1.247.267 2.503.55 3.659 1.088 1.156.538 2.22 1.359 2.827 2.48.511.942.673 2.065.463 3.116a4.895 4.895 0 0 1-1.598 2.722c-.913.786-2.071 1.212-3.155 1.738-.542.264-1.073.557-1.544.933-.47.376-.881.838-1.139 1.383-.41.866-.402 1.895-.1 2.804.303.91.88 1.709 1.56 2.385 1.901 1.895 4.613 2.865 7.297 2.92.899.017 1.797-.06 2.697-.063.899-.002 1.811.074 2.655.387a5.015 5.015 0 0 1 2.221 1.645 5.14 5.14 0 0 1 1.022 2.57c.138 1.315-.23 2.63-.686 3.87-.456 1.24-1.007 2.456-1.26 3.753-.42 2.148.029 4.435 1.135 6.324.86 1.468 2.09 2.691 3.424 3.746 1.336 1.055 2.784 1.955 4.198 2.903 2.057 1.38 4.122 2.954 5.19 5.19 1.079 2.261.975 4.988 0 7.297-.277.651-.62 1.28-1.075 1.821-.455.542-1.026.997-1.683 1.26-.921.368-1.956.34-2.934.168-.977-.172-1.927-.479-2.904-.655-.616-.111-1.248-.17-1.869-.086-.62.083-1.232.317-1.698.735-.519.464-.829 1.133-.94 1.82-.111.688-.035 1.395.129 2.072.393 1.628 1.273 3.089 2.108 4.54.845 1.469 1.658 2.962 2.27 4.541 1.919 4.948 1.717 10.679-.543 15.48" style="fill:none;fill-rule:evenodd;stroke:#000;stroke-width:5;stroke-linecap:round;stroke-linejoin:round;stroke-miterlimit:4;stroke-dasharray:none;stroke-opacity:1" transform="translate(833.239 -14.335)"/><path d="M-196.81 327.634a56.5 56.5 0 0 1-9.777 2.365c-.931.139-1.872.254-2.812.202-.94-.053-1.886-.283-2.679-.79-1.134-.726-1.865-1.964-2.243-3.257-.38-1.292-.443-2.653-.502-3.999-.127-2.879-.27-5.86-1.569-8.432-.45-.893-1.05-1.733-1.866-2.313a3.916 3.916 0 0 0-1.354-.626 3.143 3.143 0 0 0-1.486-.002c-.867.218-1.583.828-2.176 1.497-.593.668-1.1 1.415-1.746 2.033a6.017 6.017 0 0 1-2.265 1.374 5.404 5.404 0 0 1-2.637.195 5.321 5.321 0 0 1-2.813-1.496 5.689 5.689 0 0 1-1.501-2.818c-.338-1.617.02-3.299.524-4.872.505-1.573 1.16-3.108 1.437-4.737.376-2.21.009-4.569-1.177-6.47-.603-.97-1.417-1.817-2.403-2.391-.986-.574-2.148-.866-3.283-.747-1.201.125-2.31.692-3.34 1.324-1.029.632-2.019 1.344-3.131 1.813a8.02 8.02 0 0 1-3.922.589c-1.307-.136-2.615-.626-3.53-1.57-.9-.927-1.355-2.236-1.372-3.529-.023-1.646.613-3.228 1.34-4.706.728-1.477 1.564-2.92 1.993-4.51.452-1.675.431-3.457.081-5.156-.35-1.698-1.02-3.319-1.846-4.845-2.607-4.822-6.772-8.72-11.569-11.373-2.872-1.588-5.987-2.752-9.216-3.334a27.403 27.403 0 0 0-8.432-.196M-229.823 256.608c-3.368 1.427-7.306 1.447-10.688.053-2.964-1.222-5.398-3.419-7.844-5.49-1.377-1.167-2.813-2.328-4.51-2.942a8.141 8.141 0 0 0-5.49 0" style="fill:none;fill-rule:evenodd;stroke:#000;stroke-width:5;stroke-linecap:round;stroke-linejoin:round;stroke-miterlimit:4;stroke-dasharray:none;stroke-opacity:1" transform="translate(833.239 -14.335)"/><path d="M-248.189 316.165a7.558 7.558 0 0 0 4.736 3.322c1.935.42 4.033.03 5.687-1.058a7.719 7.719 0 0 0 1.569-1.372 8.052 8.052 0 0 0 1.961-5.49M-265.64 171.812c2.866-.705 5.388-2.704 6.726-5.335.84-1.653 1.222-3.51 1.309-5.363.086-1.851-.112-3.705-.38-5.54-.233-1.586-.518-3.169-.602-4.77-.084-1.602.04-3.237.601-4.74.522-1.395 1.413-2.639 2.507-3.65 1.093-1.011 2.386-1.795 3.756-2.38 1.159-.496 2.393-.856 3.654-.876 1.26-.02 2.552.322 3.537 1.108.645.515 1.134 1.195 1.65 1.839.517.644 1.088 1.276 1.829 1.64.768.378 1.667.436 2.508.274.84-.161 1.629-.53 2.363-.97.768-.46 1.49-1.005 2.1-1.662.608-.657 1.1-1.43 1.38-2.281.436-1.331.334-2.774.17-4.165s-.385-2.8-.17-4.185c.227-1.473.968-2.873 2.108-3.833 1.14-.96 2.676-1.456 4.154-1.27 1.166.146 2.247.693 3.22 1.353.971.66 1.857 1.44 2.81 2.126a18.195 18.195 0 0 0 8.736 3.316M-324.093 113.823a7.377 7.377 0 0 1 4.024-1.344 7.377 7.377 0 0 1 4.095 1.112 7.784 7.784 0 0 1 2.744 3 8.763 8.763 0 0 1 .967 3.959c.017 1.958-.595 3.9-1.624 5.567-.624 1.01-1.394 1.92-2.09 2.882-.697.962-1.329 1.997-1.621 3.148-.327 1.289-.208 2.666.2 3.931.407 1.265 1.092 2.427 1.888 3.492 1.715 2.298 3.966 4.207 5.335 6.727 1.451 2.671 1.784 5.788 2.087 8.814l.696 6.958M-258.218 175.523a18.473 18.473 0 0 1 .928 6.495c-.052 1.389-.267 2.793-.853 4.053-.586 1.26-1.574 2.372-2.858 2.905-.704.293-1.472.404-2.234.413-.762.01-1.522-.082-2.277-.182-1.511-.202-3.076-.438-4.535.002a5.059 5.059 0 0 0-2.8 2.123 4.921 4.921 0 0 0-.68 3.443c.161.907.582 1.754 1.127 2.497.544.743 1.21 1.389 1.904 1.996 1.386 1.213 2.92 2.315 3.928 3.858.798 1.22 1.223 2.69 1.155 4.147-.068 1.457-.637 2.893-1.619 3.971-1.226 1.348-3.033 2.081-4.849 2.236-1.815.155-3.642-.228-5.357-.844-1.442-.518-2.825-1.2-4.29-1.65-1.465-.45-3.06-.657-4.524-.206a5.362 5.362 0 0 0-3.145 2.635 5.41 5.41 0 0 0-.335 4.092c.375 1.162 1.136 2.164 1.986 3.041.85.878 1.798 1.654 2.654 2.526 1.022 1.042 1.92 2.241 2.408 3.617.489 1.377.535 2.949-.089 4.27-.407.86-1.081 1.583-1.876 2.107-.795.525-1.708.857-2.643 1.038-1.87.36-3.799.123-5.687-.13-3.468-.466-7.02-.981-10.438-.232-2.98.653-5.715 2.262-7.886 4.407a18.686 18.686 0 0 0-4.175 6.263" style="fill:none;fill-rule:evenodd;stroke:#000;stroke-width:5;stroke-linecap:round;stroke-linejoin:round;stroke-miterlimit:4;stroke-dasharray:none;stroke-opacity:1" transform="translate(833.239 -14.335)"/><path d="M-287.092 234.105a39.794 39.794 0 0 0 14.261-11.96c.953-1.29 1.83-2.645 2.502-4.102.833-1.806 1.338-3.743 2.003-5.618.664-1.875 1.519-3.734 2.913-5.153a8.583 8.583 0 0 1 3.843-2.254 8.588 8.588 0 0 1 4.456-.01M-334.938 186.382a19.557 19.557 0 0 0 5.046-4.828c.613-.844 1.16-1.745 1.516-2.725.356-.98.515-2.046.34-3.074-.24-1.41-1.074-2.641-1.933-3.785-.86-1.144-1.78-2.283-2.242-3.638-.432-1.266-.43-2.655-.14-3.961.29-1.307.857-2.538 1.532-3.693 1.009-1.729 2.342-3.37 4.175-4.175 1.288-.566 2.727-.676 4.134-.67 1.406.007 2.818.122 4.216-.026 2.022-.214 4.008-1.003 5.505-2.38 1.936-1.78 2.94-4.521 2.614-7.13M-327.08 193.259a4.233 4.233 0 0 1 1.925-1.63 4.233 4.233 0 0 1 2.511-.233c.876.188 1.672.654 2.365 1.22.693.568 1.294 1.237 1.9 1.896 1.49 1.62 3.11 3.248 5.188 3.974 1.06.37 2.214.487 3.32.293 1.106-.194 2.161-.703 2.973-1.479 1.122-1.072 1.735-2.612 1.845-4.16.11-1.549-.253-3.104-.86-4.533-1.049-2.461-2.792-4.555-4.101-6.888-1.618-2.882-2.572-6.264-1.969-9.513.285-1.533.901-2.98 1.477-4.429.806-2.029 1.581-4.153 3.114-5.708 1.167-1.183 2.77-1.97 4.43-2 1.112-.021 2.219.292 3.195.824.977.532 1.828 1.279 2.546 2.128.845 1 1.512 2.14 2.357 3.14.422.501.891.966 1.429 1.34.537.374 1.146.656 1.79.768 1.115.195 2.288-.133 3.211-.787s1.606-1.611 2.038-2.657c.676-1.635.755-3.449.762-5.218.007-1.77-.048-3.564.386-5.279.59-2.332 2.097-4.41 4.1-5.74 1.235-.82 2.645-1.364 4.1-1.64 1.724-.328 3.573-.269 5.145.508 1.168.578 2.134 1.534 2.79 2.66.654 1.127 1.005 2.42 1.087 3.72.149 2.383-.59 4.745-1.64 6.889-.992 2.023-2.273 3.92-2.953 6.068-.236.746-.397 1.52-.418 2.302-.02.782.104 1.574.418 2.29.176.401.412.778.716 1.094.303.315.675.569 1.089.71.432.15.901.175 1.355.116a5.247 5.247 0 0 0 1.316-.372c.846-.349 1.634-.834 2.503-1.121a5.95 5.95 0 0 1 4.477.322 5.95 5.95 0 0 1 2.945 3.389" style="fill:none;fill-rule:evenodd;stroke:#000;stroke-width:5;stroke-linecap:round;stroke-linejoin:round;stroke-miterlimit:4;stroke-dasharray:none;stroke-opacity:1" transform="translate(833.239 -14.335)"/><path d="M-292.465 156.952a17.444 17.444 0 0 1-2.296-7.708c-.157-2.815.388-5.676 1.64-8.201 1.39-2.804 3.586-5.112 5.74-7.381 2.51-2.642 5.012-5.301 7.218-8.2 1.09-1.435 2.133-2.985 2.46-4.757.107-.58.134-1.18.012-1.755-.12-.577-.397-1.129-.832-1.526-.428-.39-.988-.612-1.56-.701-.57-.09-1.155-.052-1.727.03-1.145.161-2.292.498-3.438.343-1.19-.16-2.283-.865-2.983-1.842-.7-.976-1.017-2.206-.953-3.406.059-1.115.433-2.2.994-3.166.56-.965 1.303-1.816 2.122-2.575 2.384-2.21 5.375-3.643 8.365-4.92 1.702-.727 3.475-1.452 4.756-2.788a6.569 6.569 0 0 0 1.726-3.45 6.568 6.568 0 0 0-.526-3.823M-258.49 101.118c-2.391 3.224-3.427 7.42-2.812 11.386.196 1.261.55 2.493.761 3.752.211 1.26.275 2.574-.104 3.793-.268.858-.76 1.656-1.45 2.23-.692.576-1.588.918-2.487.886-1.104-.04-2.107-.613-3.085-1.129-.488-.257-.986-.505-1.513-.671-.527-.166-1.088-.248-1.634-.168-.786.115-1.501.565-2.017 1.168s-.843 1.352-1.027 2.124c-.37 1.543-.192 3.158-.237 4.745-.098 3.453-1.292 6.85-3.28 9.677-.767 1.089-1.672 2.145-1.968 3.444a4.08 4.08 0 0 0 .325 2.708 4.08 4.08 0 0 0 1.97 1.884" style="fill:none;fill-rule:evenodd;stroke:#000;stroke-width:5;stroke-linecap:round;stroke-linejoin:round;stroke-miterlimit:4;stroke-dasharray:none;stroke-opacity:1" transform="translate(833.239 -14.335)"/><g style="stroke:#000;stroke-width:17.5346905;stroke-linejoin:round;stroke-miterlimit:4;stroke-dasharray:none;stroke-opacity:1;stroke-linecap:round"><path style="fill:#090;fill-opacity:1;fill-rule:evenodd;stroke:#000;stroke-width:17.5346905;stroke-linecap:round;stroke-linejoin:round;stroke-miterlimit:4;stroke-dasharray:none;stroke-opacity:1" d="M367.685 554.606s4.567-30.687 5.696-37.61c.829-5.077 2.345-10.029 4.295-14.79a84.357 84.357 0 0 1 15.27-24.336l-34.832-.477-34.832.477a84.35 84.35 0 0 1 15.267 24.336c1.95 4.76 3.467 9.713 4.295 14.79 1.13 6.923-3.788 37.61-3.788 37.61zM358.113 230.96a77.252 77.252 0 0 1-11.831 13.636c-16.03 14.588-37.602 21.757-52.586 37.496-8.799 9.242-14.847 21.022-18.74 33.366-3.894 12.344-5.721 25.288-6.895 38.218a396.277 396.277 0 0 0-.657 63.403h181.418a396.277 396.277 0 0 0-.657-63.403c-1.174-12.93-3-25.874-6.894-38.218-3.894-12.344-9.944-24.124-18.743-33.366-14.984-15.739-36.553-22.908-52.583-37.496a77.253 77.253 0 0 1-11.832-13.637z" transform="matrix(.1966 -.20652 .20696 .19618 112.63 113.834)"/><path style="fill:#090;fill-opacity:1;fill-rule:evenodd;stroke:#000;stroke-width:17.5346905;stroke-linecap:round;stroke-linejoin:round;stroke-miterlimit:4;stroke-dasharray:none;stroke-opacity:1" d="M258.441 384.356a74.958 74.958 0 0 0-2.127 27.27c2.102 19.726 12.228 38.211 26.67 51.812 17.046 16.052 39.639 25.388 62.72 29.316 5.432.965 8.257 1.102 12.41 1.102 4.151 0 7.353-.247 12.407-1.102 23.082-3.928 45.676-13.264 62.721-29.316 14.442-13.6 24.568-32.086 26.67-51.812a74.958 74.958 0 0 0-2.127-27.27H352.113z" transform="matrix(.1966 -.20652 .20696 .19618 112.63 113.834)"/><path d="m301.046 476.916 98.293-92.33M328.411 489.051l109.941-103.304M366.584 493.14l93.522-87.833M282.127 463.184l84.695-79.515M264.472 439.565l60.607-56.818M259.22 416.661l36.034-33.663M415.18 476.916l-98.293-92.33M387.815 489.051 277.874 385.747M349.642 493.14l-93.522-87.833M434.099 463.184l-84.695-79.515M451.754 439.565l-60.607-56.818M457.007 416.661l-36.035-33.663" style="fill:none;fill-rule:evenodd;stroke:#000;stroke-width:17.5346905;stroke-linecap:round;stroke-linejoin:round;stroke-miterlimit:4;stroke-dasharray:none;stroke-opacity:1" transform="matrix(.1966 -.20652 .20696 .19618 112.63 113.834)"/></g><path d="M-538.051 243.308a4.947 4.947 0 0 1 .558-3.059 4.947 4.947 0 0 1 2.284-2.109c1.36-.612 2.916-.574 4.403-.454 1.487.12 3.003.307 4.454-.038a6.41 6.41 0 0 0 3.373-2.083 6.765 6.765 0 0 0 1.548-3.657c.128-1.238-.081-2.49-.421-3.688-.34-1.198-.81-2.353-1.22-3.529-.38-1.092-.71-2.212-.8-3.365-.088-1.153.076-2.348.637-3.36.672-1.213 1.907-2.093 3.268-2.36 1.361-.269 2.825.07 3.948.884 1.301.943 2.09 2.42 2.8 3.862.709 1.442 1.413 2.943 2.613 4.011a5.444 5.444 0 0 0 2.747 1.323c1.018.16 2.09-.006 2.993-.503.876-.482 1.568-1.255 2.065-2.123.498-.867.811-1.827 1.052-2.797.27-1.088.452-2.197.768-3.272.316-1.075.777-2.13 1.528-2.961 1.05-1.161 2.574-1.786 4.1-2.132 1.215-.276 2.476-.398 3.708-.217 1.232.18 2.435.679 3.345 1.529 1.021.954 1.613 2.284 1.995 3.628.381 1.344.579 2.735.957 4.08.28.992.66 1.962 1.221 2.825.562.864 1.311 1.618 2.224 2.096 1.095.574 2.393.723 3.608.492 1.215-.23 2.347-.828 3.28-1.64.823-.716 1.492-1.59 2.218-2.403.727-.814 1.539-1.589 2.539-2.025a5.086 5.086 0 0 1 2.444-.387c.83.069 1.64.324 2.379.71 1.477.773 2.64 2.048 3.542 3.449 1.188 1.847 1.96 3.924 2.874 5.921.914 1.997 2.012 3.974 3.686 5.396 1.726 1.465 3.924 2.227 6.069 2.952 3.112 1.052 6.228 2.09 9.349 3.117M-492.915 250.472c2.395-1.042 5.262-.93 7.567.298 1.828.972 3.245 2.556 4.92 3.772 1.786 1.295 3.883 2.169 6.07 2.46 1.653.22 3.356.107 4.95-.386 1.593-.492 3.074-1.368 4.234-2.566.649-.67 1.192-1.432 1.775-2.16.583-.728 1.217-1.431 1.998-1.94 1.03-.672 2.273-.97 3.503-1.01 1.23-.042 2.454.162 3.656.427 2.403.53 4.846 1.313 7.274.91a7.714 7.714 0 0 0 5.085-3.28M-576.077 163.542a25.339 25.339 0 0 0 6.917 5.22c1.167.598 2.392 1.11 3.683 1.34 1.291.229 2.658.163 3.862-.356 1.354-.585 2.427-1.714 3.136-3.008.708-1.295 1.077-2.75 1.292-4.21.168-1.133.248-2.285.554-3.39.306-1.105.869-2.184 1.802-2.85a3.62 3.62 0 0 1 2.45-.648c.858.089 1.68.5 2.265 1.135M-564.883 207.53a91.186 91.186 0 0 0 6.548-.389c1.184-.113 2.377-.252 3.503-.633 1.127-.382 2.195-1.028 2.894-1.991.477-.657.765-1.438.92-2.236.153-.797.178-1.614.166-2.427-.025-1.624-.196-3.28.226-4.85.32-1.189.97-2.272 1.783-3.196.813-.924 1.787-1.695 2.81-2.38 1.089-.73 2.256-1.375 3.527-1.702 1.27-.327 2.658-.316 3.853.225.713.324 1.337.826 1.863 1.407.525.58.957 1.24 1.346 1.92.777 1.36 1.398 2.823 2.368 4.054 1.288 1.637 3.19 2.795 5.248 3.116 1.351.211 2.777.058 3.996-.56 1.22-.62 2.21-1.727 2.565-3.048.314-1.172.125-2.41.078-3.623-.024-.606-.011-1.219.118-1.812.13-.592.38-1.168.788-1.618.422-.465.995-.775 1.593-.968.598-.193 1.226-.276 1.851-.344 1.22-.132 2.46-.21 3.67-.002 1.209.21 2.396.731 3.219 1.642.704.78 1.1 1.793 1.351 2.813.252 1.02.375 2.069.617 3.092.428 1.808 1.268 3.574 2.679 4.783.705.605 1.546 1.06 2.45 1.272.905.212 1.874.175 2.744-.15.686-.258 1.3-.687 1.834-1.188.535-.501.996-1.075 1.44-1.66.885-1.167 1.735-2.414 2.958-3.221 1.38-.91 3.115-1.164 4.757-.985a10.381 10.381 0 0 1 5.412 2.297c1.455 1.194 2.566 2.75 3.58 4.336 1.013 1.586 1.953 3.228 3.145 4.685a16.997 16.997 0 0 0 4.92 4.1M-481.74 183.523c-3.799.346-7.7-.527-10.988-2.46-2.889-1.698-5.269-4.164-7.217-6.889-2.451-3.429-4.25-7.27-6.233-10.989-.538-1.01-1.095-2.019-1.804-2.918-.709-.9-1.582-1.693-2.624-2.167-1.618-.735-3.478-.644-5.249-.492-1.041.09-2.087.197-3.1.458-1.012.26-1.997.682-2.804 1.347-1.277 1.05-2.008 2.604-2.7 4.105-.694 1.5-1.43 3.053-2.713 4.095-1.395 1.133-3.298 1.512-5.084 1.313a9.096 9.096 0 0 1-5.413-2.625" style="fill:none;fill-rule:evenodd;stroke:#000;stroke-width:5;stroke-linecap:round;stroke-linejoin:round;stroke-miterlimit:4;stroke-dasharray:none;stroke-opacity:1" transform="translate(833.239 -14.335)"/><path d="M-540.95 120.213a9.776 9.776 0 0 1 4.43.984c.777.38 1.509.868 2.098 1.501.589.634 1.03 1.42 1.182 2.271.2 1.116-.103 2.27-.586 3.295-.483 1.026-1.141 1.958-1.71 2.938-.961 1.654-1.667 3.442-2.297 5.248-.398 1.14-.77 2.3-.917 3.499-.148 1.198-.063 2.449.425 3.554.58 1.315 1.741 2.369 3.116 2.788.869.265 1.793.283 2.7.224.905-.06 1.806-.193 2.713-.224 1.08-.036 2.172.077 3.197.417 1.026.34 1.984.913 2.707 1.715.632.701 1.072 1.561 1.352 2.462.28.901.404 1.845.453 2.787a17.961 17.961 0 0 1-2.373 9.846M-467.47 214.194a130.37 130.37 0 0 1-6.725-10.333c-2.09-3.57-4.047-7.363-4.428-11.481-.353-3.819.676-7.706 0-11.481-.711-3.972-3.21-7.343-5.249-10.825-1.298-2.219-2.45-4.6-2.704-7.158-.126-1.28-.02-2.59.393-3.807.414-1.217 1.144-2.337 2.147-3.14.877-.703 1.942-1.152 3.043-1.375 1.1-.223 2.238-.228 3.354-.102 1.399.158 2.772.517 4.176.614.702.048 1.413.03 2.102-.112.69-.142 1.358-.41 1.923-.83a4.526 4.526 0 0 0 1.376-1.723 5.802 5.802 0 0 0 .514-2.153c.076-1.483-.34-2.952-.906-4.325-1.241-3.013-3.215-5.72-4.1-8.857-.441-1.56-.599-3.213-.35-4.816.249-1.603.915-3.154 1.99-4.369 1.604-1.813 4.001-2.76 6.396-3.116 1.572-.233 3.192-.235 4.732.152 1.471.37 2.831 1.083 4.265 1.579.717.248 1.456.443 2.212.507.756.065 1.53-.005 2.24-.27.892-.333 1.658-.97 2.191-1.76.533-.787.838-1.72.926-2.668.12-1.291-.15-2.581-.336-3.865-.185-1.283-.28-2.628.172-3.844.52-1.4 1.722-2.466 3.068-3.115 1.345-.649 2.836-.927 4.313-1.15 1.414-.212 2.85-.38 4.273-.238 1.423.141 2.847.613 3.928 1.55.944.82 1.58 1.96 1.907 3.167.328 1.207.36 2.48.225 3.723-.333 3.056-1.646 5.909-2.953 8.692-.473 1.01-.95 2.023-1.258 3.094-.308 1.07-.442 2.211-.218 3.303.26 1.268 1.029 2.44 2.133 3.116.7.43 1.512.653 2.328.746.817.092 1.642.058 2.462.002 1.639-.113 3.335-.306 4.886.236 1.075.376 2.018 1.095 2.716 1.995.698.9 1.155 1.974 1.385 3.09.356 1.732.157 3.586-.624 5.172-.782 1.587-2.153 2.888-3.805 3.52-1.753.672-3.704.58-5.563.318-1.86-.263-3.712-.686-5.59-.645-2.129.046-4.299.74-5.837 2.213-.768.737-1.366 1.66-1.68 2.676-.315 1.018-.34 2.13-.027 3.147.256.838.735 1.6 1.335 2.237.601.637 1.322 1.154 2.092 1.572 1.54.836 3.256 1.277 4.937 1.768.61.178 1.22.365 1.791.644.57.279 1.104.656 1.49 1.16.389.508.615 1.133.679 1.77a4.433 4.433 0 0 1-.243 1.889c-.42 1.209-1.281 2.218-2.24 3.066-2.303 2.034-5.297 3.28-8.365 3.444-1.812.097-3.62-.17-5.427-.329-1.807-.158-3.663-.2-5.398.33-1.907.582-3.601 1.878-4.593 3.607-.54.944-.875 2.022-.852 3.11.022 1.087.42 2.181 1.18 2.96.59.602 1.37.995 2.182 1.222.812.227 1.66.296 2.503.321 1.685.05 3.435-.058 4.992.588a5.21 5.21 0 0 1 2.179 1.684c.554.745.893 1.653.938 2.58.067 1.386-.527 2.762-1.477 3.773-1.298 1.383-3.161 2.086-5.004 2.538-1.5.368-3.036.602-4.509 1.07-4.188 1.332-7.59 4.478-10.169 8.037a34.701 34.701 0 0 0-3.444 5.905z" style="fill:none;fill-rule:evenodd;stroke:#000;stroke-width:5;stroke-linecap:round;stroke-linejoin:round;stroke-miterlimit:4;stroke-dasharray:none;stroke-opacity:1" transform="translate(833.239 -14.335)"/><path d="M-481.798 173.486a26.009 26.009 0 0 1-9.454-8.497c-2.516-3.754-4.037-8.294-3.609-12.793.268-2.804 1.272-5.494 2.557-8.001 1.285-2.507 2.851-4.856 4.332-7.253a159.188 159.188 0 0 0 4.264-7.38c.583-1.066 1.16-2.144 1.533-3.3.373-1.155.535-2.404.272-3.59-.365-1.642-1.507-3.01-2.789-4.1a15.749 15.749 0 0 0-5.428-3.005M-484.155 109.94a47.04 47.04 0 0 0 4.876 7.812c1.302 1.692 2.718 3.293 4.1 4.92a157.014 157.014 0 0 1 4.265 5.25M-448.116 114.636a13.954 13.954 0 0 1 5.218-5.199c1.544-.873 3.267-1.459 4.636-2.585.685-.563 1.273-1.265 1.6-2.09.328-.823.376-1.776.027-2.591-.374-.873-1.156-1.51-1.992-1.959-.836-.45-1.745-.745-2.6-1.157-.874-.422-1.697-.97-2.35-1.689-.652-.718-1.127-1.614-1.259-2.576-.177-1.296.289-2.63 1.103-3.654.814-1.024 1.951-1.756 3.162-2.25 1.354-.554 2.803-.826 4.206-1.24 1.403-.414 2.805-.997 3.83-2.04.821-.836 1.354-1.928 1.625-3.068.272-1.14.291-2.327.18-3.493a15.925 15.925 0 0 0-2.745-7.51M-423.022 137.762a19.17 19.17 0 0 0 8.365-3.116c2.02-1.36 3.813-3.166 4.757-5.412.584-1.391.826-2.93.656-4.429-.266-2.339-1.501-4.476-1.831-6.807-.18-1.27-.082-2.587.36-3.792.44-1.204 1.233-2.289 2.29-3.014 1.052-.72 2.318-1.065 3.579-1.25 1.26-.184 2.54-.221 3.803-.39a17.412 17.412 0 0 0 5.412-1.64c1.41-.7 2.752-1.633 3.609-2.953.696-1.073 1.037-2.386.88-3.656-.158-1.27-.829-2.481-1.865-3.233-.805-.584-1.787-.876-2.77-1.03-.983-.153-1.981-.177-2.97-.282-1.686-.177-3.391-.609-4.768-1.598-.689-.494-1.285-1.125-1.697-1.866-.412-.741-.634-1.594-.588-2.44a4.5 4.5 0 0 1 .7-2.135 5.56 5.56 0 0 1 1.577-1.611c1.25-.854 2.774-1.23 4.284-1.339 2.087-.15 4.249.174 6.232-.492 1.454-.487 2.713-1.495 3.584-2.757.872-1.262 1.364-2.768 1.5-4.295.183-2.041-.27-4.14-1.311-5.905a9.652 9.652 0 0 0-3.648-3.538M-319.19 68.751a5.572 5.572 0 0 1 3.6 1.6c.87.87 1.433 2.02 1.704 3.22.271 1.2.263 2.45.1 3.67-.115.85-.306 1.698-.669 2.476-.363.778-.907 1.486-1.628 1.952-.77.498-1.702.697-2.618.721-.917.025-1.828-.114-2.736-.245-.907-.13-1.823-.253-2.738-.194-.915.06-1.839.312-2.569.866-.48.364-.864.85-1.136 1.388a5.213 5.213 0 0 0-.504 1.728 6.32 6.32 0 0 0 .637 3.575 6.602 6.602 0 0 0 2.48 2.658c1.23.74 2.655 1.065 4.025 1.494 1.37.43 2.761 1.014 3.683 2.114.645.77 1.012 1.75 1.144 2.745.133.996.04 2.011-.16 2.996-.426 2.1-1.333 4.082-2.46 5.904-1.433 2.317-3.22 4.393-5.058 6.404-1.432 1.568-2.925 3.142-3.8 5.078-1.081 2.394-1.115 5.106-1.475 7.708-.308 2.22-.9 4.48-2.297 6.233-1.023 1.285-2.48 2.251-4.097 2.545a5.703 5.703 0 0 1-2.444-.08 5.122 5.122 0 0 1-2.151-1.153c-.739-.671-1.256-1.559-1.608-2.493-.352-.934-.548-1.918-.725-2.9-.176-.983-.334-1.971-.615-2.93-.28-.957-.688-1.89-1.317-2.666-.798-.984-1.925-1.672-3.131-2.057-1.207-.385-2.493-.478-3.757-.403-2.323.137-4.621.849-6.561 2.132-1.448.958-2.7 2.245-3.478 3.797-.777 1.553-1.055 3.378-.623 5.06.401 1.56 1.37 2.907 2.39 4.155 1.018 1.247 2.118 2.452 2.859 3.882.758 1.463 1.108 3.106 1.29 4.744.182 1.639.205 3.29.35 4.933.077.867.188 1.74.094 2.607a4.29 4.29 0 0 1-.321 1.261 2.96 2.96 0 0 1-.757 1.052c-.515.447-1.2.672-1.882.696-.682.024-1.36-.142-1.99-.405-1.258-.526-2.322-1.422-3.509-2.095-1.056-.6-2.229-1.025-3.442-1.1-1.212-.076-2.467.217-3.446.936-.908.666-1.538 1.664-1.89 2.733-.352 1.07-.44 2.21-.407 3.336.09 2.966.999 5.836 1.805 8.692.804 2.852 1.514 5.744 1.804 8.693.402 4.093-.013 8.218-.492 12.301-.302 2.573-.63 5.143-.984 7.71" style="fill:none;fill-rule:evenodd;stroke:#000;stroke-width:5;stroke-linecap:round;stroke-linejoin:round;stroke-miterlimit:4;stroke-dasharray:none;stroke-opacity:1" transform="translate(833.239 -14.335)"/><path d="M-347.753 121.108a6.857 6.857 0 0 1-.085-4.92c.5-1.354 1.417-2.511 2.399-3.568.982-1.056 2.047-2.041 2.93-3.182 1.696-2.195 2.667-4.904 4.5-6.987 1.423-1.617 3.327-2.81 4.5-4.618.466-.72.807-1.535.9-2.39.093-.853-.074-1.748-.546-2.465-.394-.6-.982-1.053-1.625-1.37-.643-.315-1.343-.502-2.046-.643-1.03-.208-2.08-.325-3.092-.605-1.013-.28-2.008-.745-2.71-1.527-.713-.794-1.072-1.879-1.047-2.946.025-1.067.42-2.111 1.047-2.974 1-1.376 2.542-2.273 4.145-2.842 1.072-.382 2.198-.638 3.197-1.185a6.155 6.155 0 0 0 2.363-2.313c.557-.967.843-2.089.815-3.205M-351.51 120.705c-2.616.02-5.204-1.326-6.69-3.479-.455-.658-.814-1.394-.962-2.181-.148-.787-.074-1.628.292-2.34.277-.54.71-.99 1.205-1.341.494-.352 1.05-.611 1.616-.829 1.132-.436 2.336-.72 3.375-1.347.981-.593 1.767-1.466 2.42-2.409.653-.942 1.186-1.961 1.767-2.95.688-1.171 1.452-2.32 1.861-3.615.205-.648.318-1.33.275-2.008-.042-.678-.245-1.353-.63-1.913a3.125 3.125 0 0 0-1.506-1.172c-.707-.252-1.488-.226-2.223-.07-.734.154-1.436.432-2.145.68-1.244.434-2.526.777-3.838.897-1.404.129-2.856-.008-4.144-.581-1.289-.573-2.4-1.613-2.89-2.936-.384-1.039-.37-2.187-.201-3.282.17-1.095.488-2.162.704-3.249.237-1.195.346-2.444.039-3.623a4.519 4.519 0 0 0-.786-1.637 3.493 3.493 0 0 0-1.43-1.103c-.762-.308-1.624-.302-2.423-.113-.8.19-1.546.554-2.266.95-2.11 1.16-4.125 2.699-5.192 4.857-.583 1.178-.856 2.497-.882 3.811-.026 1.315.19 2.627.547 3.892.301 1.065.703 2.109.85 3.205a5.22 5.22 0 0 1-.022 1.653 3.451 3.451 0 0 1-.66 1.506c-.58.733-1.493 1.153-2.42 1.276-.926.124-1.87-.026-2.772-.272-1.202-.327-2.352-.822-3.553-1.155-1.2-.332-2.489-.497-3.686-.153a4.728 4.728 0 0 0-2.035 1.215 5.154 5.154 0 0 0-1.23 2.032c-.493 1.52-.274 3.231.482 4.64.746 1.391 1.958 2.468 3.187 3.46 1.228.992 2.514 1.946 3.486 3.191.84 1.077 1.43 2.374 1.538 3.736.11 1.361-.29 2.784-1.203 3.8-.745.83-1.776 1.348-2.828 1.715-1.053.366-2.148.599-3.2.964-.659.229-1.305.512-1.87.92-.565.408-1.049.947-1.313 1.592-.329.807-.293 1.73-.034 2.562.26.832.728 1.583 1.25 2.282.52.698 1.098 1.353 1.61 2.058.513.704.964 1.468 1.194 2.309.406 1.492.076 3.1-.543 4.518-.62 1.417-1.515 2.693-2.304 4.023-1.83 3.082-3.096 6.465-4.187 9.88-.866 2.711-1.634 5.598-1.005 8.373.239 1.051.685 2.07 1.4 2.876.714.806 1.714 1.385 2.787 1.478.902.078 1.795-.18 2.676-.39.881-.211 1.816-.375 2.683-.112.52.157.988.463 1.37.85.38.388.675.854.897 1.35.444.99.596 2.083.747 3.159.217 1.545.441 3.107.3 4.662-.143 1.554-.688 3.125-1.807 4.213-.773.752-1.778 1.234-2.822 1.503-1.043.27-2.129.336-3.207.34-2.475.007-5.027-.3-7.368.502-1.147.393-2.229 1.071-2.916 2.07a3.957 3.957 0 0 0-.667 1.676c-.084.6-.012 1.226.234 1.78.24.545.64 1.008 1.098 1.388.458.38.976.682 1.5.964 1.049.564 2.171 1.083 2.928 2.002.798.97 1.084 2.264 1.172 3.517a13.865 13.865 0 0 1-.615 5.163" style="fill:none;fill-rule:evenodd;stroke:#000;stroke-width:5;stroke-linecap:round;stroke-linejoin:round;stroke-miterlimit:4;stroke-dasharray:none;stroke-opacity:1" transform="translate(833.239 -14.335)"/><path d="M-367.09 151.424a12.788 12.788 0 0 1 3.217-7.727 12.778 12.778 0 0 1 6.95-3.966M-395.88 154.571a7.869 7.869 0 0 0-2.132-4.425 7.869 7.869 0 0 0-4.354-2.275 7.523 7.523 0 0 0-4.043.448 6.945 6.945 0 0 0-3.145 2.566c-.793 1.202-1.175 2.63-1.387 4.055-.212 1.424-.266 2.868-.468 4.293-.224 1.576-.633 3.134-1.312 4.573-.68 1.44-1.635 2.76-2.862 3.775-1.924 1.59-4.46 2.362-6.957 2.319-1.258-.022-2.505-.24-3.762-.293-1.257-.053-2.563.071-3.664.681a4.584 4.584 0 0 0-2.24 3.066" style="fill:none;fill-rule:evenodd;stroke:#000;stroke-width:5;stroke-linecap:round;stroke-linejoin:round;stroke-miterlimit:4;stroke-dasharray:none;stroke-opacity:1" transform="translate(833.239 -14.335)"/></g></svg>