<svg xmlns="http://www.w3.org/2000/svg" width="701.33" height="741.77" viewBox="0 0 701.334 741.769"><path d="m5.678 5.502 13.398 416.62c7.415 175.25 153.92 314.05 331.59 314.14 177.51-.215 324.07-139.06 331.59-314.14l13.398-416.62h-344.98z" fill="gold" fill-rule="evenodd"/><g stroke="#000" stroke-width="11"><g stroke-linecap="round"><path d="M350.67 5.5v730.77c177.51-.215 324.07-139.06 331.59-314.14L695.658 5.51h-344.98z" fill="#03f"/><path d="m5.68 5.5 5.467 169.96 336.38 560.79c1.046.001 2.092.021 3.141.021v-315.94L101.838 5.501H5.678zm480.96 701.79c-.125.056-.248.113-.373.168.125-.055.249-.112.373-.168zm-14.02 5.877c-.388.152-.775.306-1.164.457.389-.151.776-.305 1.164-.457zm-14.467 5.299c-.588.2-1.174.403-1.764.6.589-.197 1.176-.399 1.764-.6zm-5.869 1.943c-.713.228-1.429.449-2.145.672.715-.223 1.431-.444 2.145-.672zm-8.674 2.639a342.998 342.998 0 0 1 0 0zm-6.273 1.758a315.234 315.234 0 0 1 0 0zm-8.588 2.182a339.99 339.99 0 0 1 0 0zm-6.732 1.551a323.954 323.954 0 0 1 0 0zm-8.139 1.67a337.837 337.837 0 0 1 0 0zm-7.406 1.344a330.831 330.831 0 0 1 0 0zm-8 1.258a330.015 330.015 0 0 1 0 0zm-7.996 1.057a336.748 336.748 0 0 1 0 0zm-7.484.816a329.897 329.897 0 0 1 0 0zm-9.465.787-1.273.086 1.273-.086zm-11.32.59c-.408.014-.818.026-1.227.039l1.227-.039zm-5.098.139c-.486.001-.971.022-1.457.029.486-.008.971-.019 1.457-.029z" fill="red"/></g><path d="m5.678 5.502 13.398 416.62c7.415 175.25 153.92 314.05 331.59 314.14 177.51-.215 324.07-139.06 331.59-314.14l13.398-416.62h-344.98z" fill="none"/></g><g fill-rule="evenodd"><path d="M605.91 17.12a115.092 115.092 0 0 0-26.26 9.942c-11.433 6.01-21.756 13.901-32.05 21.713a5578.175 5578.175 0 0 1-77.885 58.07 11.973 11.973 0 0 0-3.442-7.129c-2.488-2.466-5.994-3.724-9.487-3.997-4.372-.341-8.801.769-12.656 2.859-3.839 2.081-7.145 5.126-9.568 8.759a27.623 27.623 0 0 0-4.179 10.325 10.064 10.064 0 0 0-4.671-.737c-1.61.132-3.163.649-4.671 1.229-1.455.559-2.892 1.183-4.213 2.01-1.321.827-2.526 1.867-3.408 3.152a8.775 8.775 0 0 0-1.47 3.814 8.26 8.26 0 0 0 .486 4.053c.546 1.396 1.474 2.608 2.463 3.734.989 1.126 2.055 2.189 2.945 3.395.46.622.871 1.281 1.229 1.967a4.318 4.318 0 0 1-2.458 1.721c-1.276.328-2.617.053-3.933 0a7.016 7.016 0 0 0-1.663.104c-.546.109-1.079.311-1.532.634-.605.431-1.04 1.052-1.48 1.65-.44.598-.914 1.2-1.561 1.564-.536.302-1.155.419-1.767.488-.611.069-1.23.094-1.829.232-.656.151-1.304.455-1.721.983-.367.465-.523 1.056-.689 1.625-.166.569-.364 1.156-.786 1.571-.302.297-.696.481-1.086.647-.39.166-.79.324-1.127.582-.467.359-.778.892-.958 1.454-.179.561-.236 1.154-.271 1.742a25.029 25.029 0 0 0 0 2.95 9.013 9.013 0 0 0-6.146-.492c-1.471.411-2.827 1.205-3.939 2.252a10.892 10.892 0 0 0-2.562 3.757c-.911 2.202-1.128 4.651-.874 7.02.419 3.924 2.198 7.785 5.271 10.26a12.765 12.765 0 0 0 7.02 2.769 185.838 185.838 0 0 1-9.587 24.337c-2.332 4.881-4.881 9.667-6.901 14.685-.823 2.045-1.561 4.141-1.908 6.318-.347 2.177-.288 4.453.451 6.53.195.548.44 1.085.794 1.546.355.461.828.844 1.382 1.022.644.206 1.355.121 1.99-.113.635-.234 1.208-.607 1.769-.985a67.221 67.221 0 0 0 3.407-2.453 55.356 55.356 0 0 0-4.179 8.112c-3.844 9.288-5.065 19.454-5.408 29.5a180.812 180.812 0 0 0 .246 17.454 57.392 57.392 0 0 0 12.045-15.242 157.915 157.915 0 0 1-3.196 15.979c-2.5 9.831-5.954 19.456-7.375 29.5a74.392 74.392 0 0 0-.2 19.293 26.847 26.847 0 0 0 6.392-4.27 26.881 26.881 0 0 0 5.363-6.664 850.26 850.26 0 0 0-3.196 25.07c-.915 8.15-1.708 16.44-.246 24.51.197 1.089.442 2.188.974 3.157.266.485.604.933 1.02 1.298.416.365.911.645 1.447.781a3.14 3.14 0 0 0 2.224-.27 3.138 3.138 0 0 0 1.463-1.696 201.587 201.587 0 0 1-5.162 22.371c-2.641 9.05-5.953 18.11-5.9 27.533.035 6.141 1.505 12.169 2.704 18.19a207.754 207.754 0 0 1 2.458 15.242 286.342 286.342 0 0 0 8.46-17.17c5.549-12.276 10.228-24.928 14.649-37.654 5.757-16.575 11.09-33.3 15.979-50.15a51.886 51.886 0 0 0 0 12.05 51.879 51.879 0 0 0 4.671 16.225 137.55 137.55 0 0 0 4.425-12.292c2.748-8.944 4.588-18.18 7.939-26.914a82.714 82.714 0 0 1 4.17-9.16 70.552 70.552 0 0 0 4.608 25.749 519.947 519.947 0 0 1 21.141-50.396 12.397 12.397 0 0 0 0 5.408 12.414 12.414 0 0 0 3.196 5.9 24.753 24.753 0 0 0-4.179 8.604c-.327 1.243-.557 2.521-.533 3.806.025 1.285.314 2.582.97 3.687.854 1.44 2.263 2.464 3.25 3.815 1.256 1.719 1.771 3.881 2.95 5.654a8.91 8.91 0 0 0 4.425 3.442 168.685 168.685 0 0 1-2.859 5.882c-5.357 10.504-11.818 20.487-16.07 31.484-4.521 11.692-6.419 24.21-8.112 36.629a1071.076 1071.076 0 0 0-3.442 27.779c-1.491 13.596-2.699 27.376-7.129 40.32-1.52 4.441-3.418 8.773-4.425 13.357-1.27 5.78-1.084 11.764-1.02 17.681.073 6.781-.022 13.566.283 20.341.616 13.687 2.815 27.796-1.475 40.808-.715 2.168-1.603 4.275-2.458 6.392-.802 1.984-1.578 3.982-2.176 6.04-.314 1.077-.579 2.174-.668 3.292-.089 1.118.002 2.263.386 3.317.477 1.311 1.391 2.436 2.484 3.304 1.092.868 2.359 1.494 3.662 1.995a23.054 23.054 0 0 0 6.637 1.475 32.205 32.205 0 0 0-5.9 5.162c-3.323 3.716-5.743 8.165-7.621 12.783-.35.861-.684 1.734-.888 2.641-.204.907-.274 1.855-.096 2.768.309 1.58 1.358 2.954 2.672 3.885 1.314.931 2.878 1.455 4.457 1.769 3.798.756 7.729.361 11.554-.246 11.809-1.872 23.24-5.72 34.17-10.571 10.166-4.513 20.04-9.973 28.27-17.454a71.483 71.483 0 0 0 9.342-10.325 7.47 7.47 0 0 0-.246 4.671 6.587 6.587 0 0 0 1.157 2.331 5.38 5.38 0 0 0 2.039 1.602c1.296.569 2.765.551 4.179.492a95.613 95.613 0 0 0 3.933-.246 27.017 27.017 0 0 0-3.442 6.392c-1.488 3.964-2.01 8.406-.746 12.446 1.209 3.857 4.119 7.203 7.876 8.695 2.327.925 4.903 1.137 7.386.813 2.483-.324 4.878-1.169 7.118-2.288 5.65-2.822 10.262-7.301 14.996-11.482 3.583-3.164 7.331-6.24 10.08-10.151a26.33 26.33 0 0 0 3.687-7.621 7.648 7.648 0 0 1 4.671-2.95c1.058-.203 2.145-.178 3.222-.207 1.077-.029 2.175-.118 3.17-.531 1.361-.565 2.421-1.696 3.196-2.95 2.01-3.25 2.273-7.247 2.458-11.06.865-17.768 1.215-35.558 1.475-53.35.418-28.606.605-57.25-1.229-85.8a607.35 607.35 0 0 0-2.212-25.812 21.699 21.699 0 0 1 4.671 8.85c.523 2.033.747 4.13 1.111 6.197.365 2.068.884 4.142 1.939 5.958a11.266 11.266 0 0 0 6.292 5.03 49.69 49.69 0 0 0 2.95-7.101 49.707 49.707 0 0 0 2.458-15.733 46.69 46.69 0 0 0 3.687 18.683 46.576 46.576 0 0 0 5.654 9.805 254.37 254.37 0 0 0 3.933-17.918c1.786-9.811 2.997-19.788 2.458-29.746a85.604 85.604 0 0 0-.983-9.1 21.207 21.207 0 0 0 2.95 6.637 21.178 21.178 0 0 0 3.687 4.179 246.691 246.691 0 0 0 2.321-14.196c1.29-9.643 2.01-19.478.383-29.07-1.013-5.988-2.936-11.934-2.476-17.99a23.123 23.123 0 0 1 1.493-6.593 6.729 6.729 0 0 0 3-1.148c1.489-1.032 2.509-2.637 3.118-4.343s.839-3.522 1.01-5.325c.755-8.127.324-16.319-.419-24.446a319.349 319.349 0 0 0-1.547-13.658 97.51 97.51 0 0 1 3.196 4.917c.514.846 1.025 1.712 1.746 2.392.36.34.772.63 1.228.821a2.94 2.94 0 0 0 1.451.229c.589-.065 1.145-.339 1.59-.73.445-.391.781-.897 1.016-1.44.471-1.087.541-2.3.59-3.484.331-8.02-.014-16.06 0-24.09.011-6 .218-12.06-.983-17.946-.758-3.712-2.065-7.287-3.442-10.817a271.927 271.927 0 0 0-6.146-14.504 97.57 97.57 0 0 1 13.029 23.11 42.377 42.377 0 0 0 3.687-11.06c1.626-8.763.449-17.797-1.229-26.55-1.303-6.796-2.906-13.537-4.917-20.16a169.583 169.583 0 0 0-3.687-10.817 16.01 16.01 0 0 0 6.637-.737c.909-.303 1.8-.693 2.559-1.278.759-.584 1.382-1.378 1.638-2.301.269-.967.121-2.01-.211-2.956-.332-.947-.839-1.821-1.31-2.707-3.317-6.239-4.896-13.224-6.855-20.01-4.555-15.779-11.488-31.13-22.325-43.476-4.833-5.504-10.518-10.432-17.254-13.312-2.725-1.165-5.621-1.987-8.58-2.16-2.959-.173-5.988.322-8.628 1.668-4.139 2.109-7.04 6.169-8.576 10.553-2.329 6.65-1.79 13.942-.765 20.913 1.022 6.953 2.485 14.156.492 20.896-.706 2.387-1.87 4.691-3.687 6.392-.841.787-1.805 1.43-2.699 2.156-.895.726-1.739 1.558-2.235 2.598-.518 1.085-.623 2.33-.504 3.527s.449 2.361.768 3.52c.332 1.206.653 2.421.792 3.664.14 1.243.092 2.524-.301 3.711-.48 1.452-1.449 2.691-2.498 3.803-1.049 1.112-2.2 2.133-3.156 3.326-.613.766-1.154 1.609-1.926 2.214-.386.302-.83.541-1.309.644-.479.103-.997.066-1.435-.154a2.115 2.115 0 0 1-.842-.791 2.826 2.826 0 0 1-.377-1.099c-.104-.773.061-1.557.273-2.308.548-1.939 1.411-3.771 2.176-5.635 1.25-3.046 2.242-6.19 3.196-9.342.425-1.405.845-2.822 1.01-4.281.165-1.459.065-2.976-.518-4.323-.817-1.887-2.479-3.254-3.687-4.917-1.358-1.868-2.139-4.125-2.383-6.421-.244-2.296.036-4.631.662-6.854.785-2.784 2.119-5.467 2.212-8.358a10.087 10.087 0 0 0-1.809-6.06 10.166 10.166 0 0 0-5.074-3.775c-1.027-.342-2.103-.518-3.138-.835-1.035-.317-2.06-.8-2.762-1.624-.787-.923-1.082-2.164-1.721-3.196-.488-.788-1.173-1.443-1.94-1.963-.767-.52-1.616-.911-2.485-1.233-1.945-.72-4.01-1.108-5.9-1.967-2.187-.994-4.105-2.605-6.428-3.214-1.546-.405-3.173-.338-4.767-.229-1.595.109-3.206.255-4.783 0-2-.323-3.879-1.282-5.9-1.475-2.031-.194-4.076.409-5.876 1.37-1.8.961-3.389 2.268-4.949 3.583-1.999 1.685-3.98 3.402-6.137 4.88-1.596 1.094-3.34 2.107-4.388 3.733-.818 1.27-1.129 2.798-1.285 4.301-.155 1.502-.172 3.02-.473 4.504-.433 2.129-1.442 4.103-2.655 5.906-1.213 1.803-2.632 3.455-3.982 5.156-1.04 1.309-2.044 2.656-2.846 4.123s-1.4 3.065-1.579 4.727c-.286 2.659.503 5.302 1.27 7.863.767 2.561 1.529 5.218 1.188 7.87-.209 1.63-.829 3.179-1.54 4.66-.711 1.481-1.521 2.917-2.147 4.436-1.694 4.108-1.967 8.837-.492 13.03a16.851 16.851 0 0 0 5.162 7.375 73.144 73.144 0 0 0-6.146 2.212c-.884.364-1.777.749-2.727.85-.475.05-.962.027-1.421-.105a2.646 2.646 0 0 1-1.215-.727c-.36-.391-.574-.9-.668-1.422-.094-.522-.073-1.06-.007-1.586.132-1.053.446-2.095.383-3.155-.087-1.476-.922-2.851-2.077-3.774-1.155-.924-2.604-1.427-4.068-1.634-1.644-.232-3.313-.109-4.973-.114-1.66-.005-3.365-.149-4.86-.87-1.346-.649-2.459-1.75-3.177-3.06s-1.047-2.822-1-4.315c.084-2.772 1.418-5.365 3.066-7.596 1.648-2.23 3.629-4.198 5.292-6.417 4.95-6.605 6.799-15.1 6.883-23.354a62.849 62.849 0 0 0-1.15-12.617 1370.52 1370.52 0 0 1 48.19-38.544c15.586-11.902 31.426-23.468 47.25-35.05 10.905-7.984 22.05-16.238 29.364-27.606a55.491 55.491 0 0 0 4.917-9.587"/><path d="M485.38 357.56c-.649 2.522-1.6 4.955-2.538 7.384-1.351 3.498-2.683 7.01-4.289 10.397-2.643 5.575-6.01 10.782-8.633 16.369-5.988 12.781-7.827 27.05-9.461 41.07-1.95 16.729-3.718 33.494-6.692 50.07-.709 3.951-1.487 7.894-2.538 11.768-1.619 5.966-3.883 11.751-5.307 17.767-2.548 10.759-2.349 21.982-1.384 32.997 1.056 12.07 3.01 24.17 1.846 36.23-.412 4.248-1.219 8.484-2.769 12.46-1.209 3.1-2.888 6.135-3 9.461-.049 1.474.223 2.965.848 4.301.625 1.336 1.607 2.512 2.844 3.314 1.386.898 3.062 1.307 4.713 1.267 1.651-.04 3.276-.516 4.747-1.267 1-.511 1.932-1.146 2.902-1.713.97-.567 1.995-1.071 3.097-1.287 1.484-.29 3.02-.042 4.502.241 1.486.283 2.993.602 4.497.452 1.26-.126 2.479-.584 3.54-1.275 1.062-.69 1.968-1.608 2.69-2.648 1.516-2.183 2.202-4.854 2.395-7.504.194-2.65-.077-5.31-.319-7.956-1.04-11.372-1.561-22.911.461-34.15 1.013-5.63 2.659-11.153 3.23-16.844.3-2.99.3-6.01 0-8.999a41.658 41.658 0 0 1 2.307 15.46c-.363 8.849-3.544 17.449-3.461 26.305.047 5.02 1.142 9.957 1.734 14.938.592 4.982.651 10.194-1.272 14.828-.928 2.236-2.308 4.316-2.769 6.692a9.116 9.116 0 0 0 0 3.461 27.049 27.049 0 0 0 11.08 3.23c4.854.331 9.728-.662 14.306-2.307a51.378 51.378 0 0 0 7.615-3.461 843.626 843.626 0 0 1-.231-17.998c-.036-16.46.409-32.924 0-49.38a476.005 476.005 0 0 0-2.307-36.458 147.002 147.002 0 0 1 6.461 31.15c1.719 17.852.157 35.833-.231 53.764a411.072 411.072 0 0 0 0 17.767c.817-3.243 3.318-6.01 6.461-7.153.966-.351 1.981-.556 3-.692.854-.115 1.722-.184 2.538-.461.832-.283 1.585-.777 2.214-1.39.629-.614 1.137-1.345 1.54-2.126.806-1.562 1.193-3.301 1.553-5.02 1.358-6.486 2.452-13.04 4.384-19.383a76.354 76.354 0 0 1 3.692-9.691 44.288 44.288 0 0 1 0 20.536c-.913 3.814-2.332 7.491-3.923 11.08-1.844 4.155-3.927 8.209-5.538 12.46-.34.897-.661 1.812-.765 2.765-.104.953.026 1.959.534 2.773.395.633 1.01 1.121 1.695 1.408a4.531 4.531 0 0 0 2.196.3c1.485-.152 2.84-.946 3.955-1.939.964-.858 1.779-1.869 2.674-2.799.894-.931 1.896-1.799 3.095-2.277.975-.389 2.042-.501 3.092-.486 1.05.016 2.093.156 3.139.255a36.53 36.53 0 0 0 7.153 0 33.16 33.16 0 0 0 4.153-.692 253.504 253.504 0 0 1 .23-32.535 140.587 140.587 0 0 1 2.307 17.08c.305 4.162.426 8.351 1.154 12.46.29 1.636.675 3.255 1.154 4.846 3.5.607 7.07.84 10.614.692 2.631-.109 5.275-.432 7.768-1.28 2.493-.847 4.84-2.246 6.539-4.258 1.747-2.07 2.735-4.695 3.219-7.36s.492-5.391.473-8.1c-.139-19.777-1.655-39.525-1.846-59.3-.221-22.923 1.338-45.841.923-68.762-.396-21.862-2.587-43.667-2.769-65.53-.072-8.57.158-17.228-1.615-25.613-1.556-7.359-4.612-14.301-6.922-21.459a109.158 109.158 0 0 1-2.538-9.23 46.13 46.13 0 0 1-4.615 3c-.845.48-1.709.935-2.489 1.515-.78.58-1.482 1.297-1.895 2.177a4.603 4.603 0 0 0-.326 2.823c.164.833.543 1.613 1.03 2.309.487.696 1.079 1.311 1.699 1.891 1.241 1.159 2.617 2.204 3.596 3.592.859 1.219 1.372 2.653 1.691 4.109.319 1.457.453 2.946.616 4.428.22 1.996.485 4.072-.183 5.966-.285.809-.745 1.567-1.392 2.13-.647.563-1.49.919-2.348.904-.767-.014-1.514-.323-2.111-.805-.597-.482-1.047-1.13-1.356-1.832-.617-1.404-.67-2.983-.687-4.517-.017-1.536-.009-3.087-.333-4.589-.324-1.502-1.016-2.976-2.205-3.949-.557-.456-1.204-.787-1.821-1.157-.618-.37-1.223-.794-1.64-1.381-.325-.458-.522-1-.592-1.56a4.34 4.34 0 0 1 .131-1.67 4.972 4.972 0 0 1 1.154-2.077 4.626 4.626 0 0 0-3.692.231c-1.052.547-1.862 1.497-2.377 2.566-.515 1.068-.754 2.252-.853 3.434-.287 3.42.557 6.822 1.384 10.153 1.165 4.689 2.313 9.382 3.461 14.08.262 1.071.525 2.148.59 3.249.065 1.1-.078 2.236-.59 3.212-.426.811-1.107 1.493-1.937 1.882-.83.389-1.805.474-2.678.195-1.059-.338-1.903-1.178-2.445-2.148-.542-.97-.813-2.066-1.016-3.159-.594-3.2-.652-6.476-1.154-9.691-.421-2.7-1.155-5.353-1.384-8.08a22.068 22.068 0 0 1 .461-6.692 48.784 48.784 0 0 0-9.922 5.076c-2.281 1.517-4.47 3.265-5.999 5.538-1.019 1.514-1.715 3.217-2.538 4.846-2.2 4.355-5.492 8.339-9.922 10.384-1.187.548-2.449.952-3.748 1.102-1.299.15-2.638.039-3.866-.409-1.312-.479-2.464-1.329-3.461-2.307-1.941-1.904-3.351-4.325-4.153-6.922-.624-2.02-.887-4.132-1.154-6.23-.45-3.536-.974-7.219-3-10.153-.337-.488-.716-.954-1.176-1.329-.46-.375-1.01-.658-1.593-.748-.604-.092-1.224.023-1.798.231-.574.208-1.11.508-1.648.798-.537.29-1.084.574-1.669.748-.586.174-1.219.233-1.807.069-.45-.125-.853-.373-1.257-.609-.403-.235-.822-.464-1.282-.545-.548-.096-1.11.026-1.639.196-.529.17-1.045.39-1.591.496a3.994 3.994 0 0 1-2.368-.269 3.996 3.996 0 0 1-1.786-1.577c-.131.697-.285 1.39-.462 2.077" fill="#fff"/><path d="M498.44 192.03a10.14 10.14 0 0 1-4.172-4.52c-.899-1.936-1.161-4.143-.869-6.258.42-3.039 1.922-5.803 2.955-8.691 1.134-3.168 1.711-6.547 1.564-9.908-.131-3-.833-5.95-1.564-8.865-.274-1.09-.553-2.185-.646-3.304-.093-1.12.009-2.277.472-3.301.614-1.361 1.804-2.372 3.03-3.226 1.225-.854 2.536-1.613 3.577-2.684 1.706-1.756 2.526-4.195 2.955-6.606.306-1.722.441-3.473.809-5.183.368-1.71.994-3.41 2.146-4.725.888-1.014 2.05-1.754 3.257-2.354 1.207-.6 2.474-1.074 3.696-1.644 2.2-1.026 4.271-2.382 5.91-4.172.737-.805 1.382-1.69 2.088-2.522.707-.832 1.488-1.621 2.431-2.171.922-.538 1.995-.834 3.06-.766 1.065.068 2.115.514 2.85 1.288.327.344.588.745.877 1.122.289.377.617.738 1.035.964.349.189.747.275 1.143.297a6.3 6.3 0 0 0 1.187-.072c.787-.105 1.597-.255 2.364-.051.586.156 1.103.51 1.548.923.445.413.827.887 1.234 1.337.776.858 1.65 1.636 2.644 2.227.994.591 2.112.992 3.266 1.076.864.063 1.731-.052 2.597-.035a5.4 5.4 0 0 1 1.286.162c.418.112.821.296 1.158.568.346.281.614.649.822 1.043.208.394.358.816.498 1.239.28.846.536 1.733 1.114 2.411.385.451.894.785 1.435 1.027.541.242 1.117.398 1.694.538 1.686.409 3.465.716 4.867 1.738 1.165.85 1.969 2.144 2.351 3.535.382 1.391.361 2.872.083 4.287-.297 1.509-.877 2.944-1.396 4.391-.519 1.447-.985 2.938-1.037 4.475-.057 1.679.385 3.342 1.028 4.894s1.485 3.01 2.275 4.493c1.559 2.925 2.95 6.073 2.955 9.387.004 2.335-.682 4.612-1.433 6.823-.75 2.211-1.576 4.42-1.87 6.736-.136 1.073-.156 2.16-.31 3.231-.153 1.071-.451 2.148-1.081 3.03-.625.873-1.552 1.506-2.563 1.867-1.01.361-2.102.461-3.174.393a10.45 10.45 0 0 1-2.086-.348 5.716 5.716 0 0 1 1.738-3.129c.392-.359.833-.663 1.205-1.043.186-.19.354-.399.481-.633a1.8 1.8 0 0 0 .225-.758 1.886 1.886 0 0 0-.162-.829 3.699 3.699 0 0 0-.434-.731c-.336-.458-.731-.881-.969-1.396a2.679 2.679 0 0 1-.096-1.985 2.675 2.675 0 0 1 1.312-1.492 2.85 2.85 0 0 0-1.794.633 2.855 2.855 0 0 0-.987 1.627c-.135.657-.032 1.337.075 1.999.107.662.218 1.339.099 1.999-.127.707-.512 1.347-.99 1.883s-1.05.979-1.617 1.42c-.364.283-.729.568-1.043.906-.313.338-.575.735-.696 1.18-.078.287-.095.585-.128.88-.033.295-.083.594-.22.858a1.523 1.523 0 0 1-.647.639 1.71 1.71 0 0 1-.895.179 1.953 1.953 0 0 1-.87-.283 2.277 2.277 0 0 1-.668-.629c-.357-.502-.517-1.126-.528-1.742-.001-.616.121-1.226.306-1.814.669-2.132 2.01-3.976 3.129-5.91 2.712-4.684 4.164-9.988 5.215-15.297.986-4.982 1.641-10.134.695-15.12-.825-4.351-2.868-8.446-5.736-11.82-2.648-3.115-5.965-5.609-9.496-7.671-2.451-1.431-5.01-2.663-7.54-3.954-.897-.458-1.811-.931-2.808-1.075a3.567 3.567 0 0 0-1.497.082c-.484.14-.935.41-1.257.797-.463.559-.623 1.306-.703 2.027-.08.721-.099 1.46-.34 2.145a3.52 3.52 0 0 1-1 1.474 3.534 3.534 0 0 1-1.603.785c-.833.168-1.695.032-2.526-.144-.831-.175-1.665-.39-2.515-.378-1.195.017-2.352.49-3.334 1.171-.982.681-1.807 1.564-2.576 2.48-2.371 2.822-4.281 5.998-6.084 9.213-1.745 3.111-3.434 6.378-3.759 9.93-.302 3.297.614 6.63 2.195 9.539.885 1.628 1.999 3.206 2.26 5.04.241 1.691-.279 3.393-.873 4.995-.594 1.602-1.279 3.208-1.387 4.913-.148 2.344.817 4.629 2.086 6.606a21.76 21.76 0 0 0 3.303 3.998 12.735 12.735 0 0 1-6.606 2.086 12.723 12.723 0 0 1-4.52-.695 41.939 41.939 0 0 1-.869-12.168 35.212 35.212 0 0 0-2.608 15.123" fill="#841"/><path d="M534.86 130.11a2.207 2.207 0 0 0-.949.152c-.324.133-.605.353-.863.59-.258.236-.5.493-.77.717-.592.491-1.301.81-1.979 1.174-.677.364-1.348.795-1.773 1.436-.301.453-.461.983-.672 1.484a3.99 3.99 0 0 1-.381.723 1.985 1.985 0 0 1-.578.566c-.25.154-.54.237-.832.266a3.308 3.308 0 0 1-.877-.045c-.578-.1-1.138-.3-1.719-.383-1.203-.171-2.431.174-3.512.73-1.08.557-2.039 1.317-3.01 2.043-2.24 1.669-4.682 3.269-6.04 5.711-.77 1.387-1.136 2.967-1.301 4.545-.165 1.578-.137 3.17-.168 4.756-.041 2.095-.172 4.273.652 6.199.393.919.988 1.736 1.469 2.611.583 1.062 1 2.222 1.143 3.426.115.988.038 2.01-.326 2.938-.509 1.296-1.54 2.323-2.121 3.588-.747 1.627-.682 3.567 0 5.223.759 1.842 2.204 3.315 3.752 4.568 2.048 1.659 4.337 3.03 6.199 4.895.759.76 1.442 1.596 2.215 2.342.773.746 1.658 1.411 2.682 1.736.939.298 1.946.296 2.928.219.982-.078 1.96-.229 2.945-.219 1.638.016 3.287.476 4.895.164 1.429-.278 2.677-1.142 3.754-2.121 2.035-1.851 3.611-4.177 4.73-6.689.853-1.915 1.459-3.959 2.611-5.711.431-.656.936-1.264 1.305-1.957a5.814 5.814 0 0 0 .652-3.264 4.146 4.146 0 0 1-1.305 1.631 4.166 4.166 0 0 1-2.611.816 2.576 2.576 0 0 1-.162-1.633c.147-.637.536-1.196 1.012-1.645.475-.449 1.035-.797 1.598-1.129.715-.422 1.444-.824 2.121-1.305.506-.359.993-.77 1.307-1.305.423-.72.494-1.588.518-2.422.024-.834.012-1.688.297-2.473.249-.683.708-1.268 1.174-1.826.466-.558.953-1.112 1.275-1.764.393-.795.52-1.7.5-2.586-.02-.886-.181-1.764-.338-2.637-.174-.97-.33-1.942-.465-2.918-.343-.207-.665-.453-.996-.682-1.077-.745-2.359-1.133-3.639-1.408-1.853-.399-3.797-.581-5.635-.117-1.498.378-2.855 1.166-4.227 1.879-.981.51-2.01 1.01-2.699 1.877-.434.548-.704 1.216-.826 1.904-.123.688-.103 1.397.004 2.088.237 1.531.888 2.963 1.293 4.459.305 1.125.469 2.293.414 3.457-.055 1.164-.335 2.324-.885 3.352a5.434 5.434 0 0 1-1.107 1.459 3.842 3.842 0 0 1-1.592.889c-.798.209-1.647.113-2.447-.09s-1.57-.509-2.365-.73a11.377 11.377 0 0 0-4.227-.354c.473-.4.984-.755 1.525-1.057.5-.279 1.03-.514 1.586-.65a3.863 3.863 0 0 1 1.701-.053c.378.079.737.225 1.102.352.365.127.743.236 1.129.234.668-.003 1.305-.344 1.762-.832.456-.488.746-1.11.938-1.75.474-1.588.374-3.292.119-4.93-.269-1.729-.702-3.432-.939-5.166-.09-.653-.152-1.315-.068-1.969.084-.654.323-1.304.771-1.787.315-.34.718-.583 1.115-.822s.8-.481 1.115-.82c.349-.376.573-.849.799-1.309.226-.46.47-.925.846-1.273.539-.499 1.296-.701 2.029-.732.734-.031 1.463.088 2.195.145 1.717.133 3.446-.082 5.166 0 .792.038 1.584.138 2.348.352 1.18.33 2.272.912 3.416 1.352-.113-1.731-.193-3.471-.725-5.115-.643-1.989-1.927-3.729-3.469-5.141-1.542-1.412-3.337-2.516-5.178-3.508-2.228-1.201-4.541-2.252-6.689-3.59-.548-.342-1.091-.704-1.697-.928a3.188 3.188 0 0 0-.943-.203m-113.07 13.824a1.527 1.527 0 0 0-.463.033c-1.142.273-2.107 1.307-2.611 2.367-.877 1.844-.519 4.084-.326 6.117.225 2.37.423 4.934 1.713 6.936.713 1.107 1.786 2.394 3.102 2.447.784.031 1.617-.598 1.957-1.305.557-1.156-.185-2.559-.326-3.834-.221-1.991-.795-3.953-.816-5.957-.015-1.423.83-2.86.49-4.242a3.657 3.657 0 0 0-1.387-2.039c-.379-.27-.861-.49-1.332-.523m106.36.32c.689-.025 1.375.007 2.043.172.408.101.807.253 1.158.484.351.231.654.545.836.924.2.417.247.895.203 1.355-.044.46-.176.907-.32 1.346-.143.435-.299.866-.469 1.291a6.001 6.001 0 0 0-2.699-1.996 5.692 5.692 0 0 0-1.996-.352c-1.793.014-3.49.91-5.283.938-.958.014-1.939-.236-2.699-.82-.392-.301-.726-.697-.881-1.166a1.725 1.725 0 0 1-.082-.73c.027-.246.113-.485.258-.686.148-.205.355-.365.582-.475.227-.11.476-.17.727-.197.502-.054 1.01.025 1.51.084 1.674.196 3.369.156 5.05 0 .685-.064 1.378-.147 2.066-.172m-113.38 2.664a1.57 1.57 0 0 0-.449.068c-1.067.327-2.165.941-2.773 1.877-1.01 1.552-1.095 3.617-.98 5.465.153 2.472 1.069 4.895 2.203 7.098.782 1.518 1.591 3.28 3.1 4.08.89.472 2.058.465 3.02.162.758-.239 1.708-.693 1.877-1.469.189-.867-.839-1.566-1.225-2.365-1.27-2.631-3.143-5.107-3.59-7.994-.218-1.407.298-2.832.49-4.242.071-.518.445-1.068.244-1.551-.232-.557-.894-.875-1.469-1.061a1.425 1.425 0 0 0-.447-.068m-7.332 2.791c-.24.009-.485.061-.705.133a1.79 1.79 0 0 0-.896.652c-.896 1.274-1.163 2.935-1.307 4.486a15.686 15.686 0 0 0 .572 5.793c.539 1.845 1.64 3.48 2.609 5.139.544.931.835 2.201 1.795 2.693.702.36 1.639.221 2.367-.082.586-.244 1.148-.716 1.387-1.305.225-.555.074-1.217-.082-1.795-.52-1.926-2.086-3.43-2.773-5.303a20.686 20.686 0 0 1-1.143-5.059c-.116-1.164.426-2.39.082-3.508-.206-.671-.601-1.392-1.225-1.713a1.38 1.38 0 0 0-.682-.133m115.36.945c.394.004.788.044 1.176.109 1.018.17 2.02.507 3.053.471.49-.017.975-.119 1.465-.119.245 0 .493.026.727.1.234.073.454.195.625.371.284.292.408.701.508 1.096.1.395.191.806.432 1.135.172.235.411.413.609.627.099.107.188.225.25.357a.8.8 0 0 1 .08.424.903.903 0 0 1-.217.463c-.11.133-.243.244-.371.359-.167.149-.329.308-.527.412a.912.912 0 0 1-.316.104.622.622 0 0 1-.33-.047.688.688 0 0 1-.287-.256 1.62 1.62 0 0 1-.168-.354c-.045-.122-.085-.245-.141-.363a.954.954 0 0 0-.225-.318.816.816 0 0 0-.322-.168 1.218 1.218 0 0 0-.361-.041c-.244.005-.483.062-.725.092-.397.049-.8.027-1.199.049-.4.022-.809.091-1.148.303-.237.148-.428.359-.646.533a1.53 1.53 0 0 1-.355.219.856.856 0 0 1-.408.07.847.847 0 0 1-.514-.26 1.443 1.443 0 0 1-.305-.498c-.142-.365-.189-.764-.355-1.119a2.02 2.02 0 0 0-.629-.756 2.625 2.625 0 0 0-.896-.418 3.105 3.105 0 0 0-2.699.586 3.683 3.683 0 0 1 1.291-2.23 4.122 4.122 0 0 1 1.76-.822 5.42 5.42 0 0 1 1.172-.109m21.545 1.811h.002c.416-.019.841.025 1.229.178.442.175.818.486 1.15.826.332.34.627.714.961 1.053.177.18.369.352.498.568a.972.972 0 0 1 .133.352.672.672 0 0 1-.043.371.713.713 0 0 1-.418.369 1.26 1.26 0 0 1-.566.049c-.38-.043-.747-.194-1.129-.184-.293.008-.573.11-.84.23-.267.121-.526.261-.803.355-.565.192-1.192.177-1.762 0-.353-.109-.684-.277-1.029-.408-.346-.131-.716-.226-1.082-.178a1.462 1.462 0 0 0-1.057.705 1.875 1.875 0 0 1-.473-1.761c.122-.476.432-.891.814-1.199.382-.308.835-.518 1.299-.68.61-.212 1.245-.344 1.879-.469.409-.081.82-.159 1.236-.178m-116.66 1.354c-.452-.025-.962.171-1.211.51-.822 1.12-.021 2.797.246 4.16.243 1.241 1.071 2.335 1.223 3.59.111.921.468 2.178-.244 2.773-.691.578-1.8-.112-2.691-.244-.797-.118-1.587-.687-2.367-.488-.449.114-.793.518-1.061.896-.487.689-.247 1.827-.896 2.365-.723.599-1.835.455-2.773.49-.819.031-1.659-.471-2.447-.244-1.323.38-2.15 1.719-3.264 2.527-.745.54-1.406 1.281-2.285 1.551-.26.08-.563-.104-.814 0-.675.28-.973 1.103-1.551 1.551-.549.426-1.389.497-1.795 1.061-.455.632-.592 1.511-.49 2.283.164 1.242 1.163 2.221 1.715 3.346.676 1.376 1.648 2.659 1.957 4.16.641 3.118-.03 6.375-.326 9.545-.534 5.725-1.49 11.411-2.611 17.05-.868 4.367-2.221 8.624-3.182 12.971-.82 3.708-1.661 7.419-2.201 11.178-.512 3.568-1.314 7.179-.98 10.768.434 4.671 1.975 9.236 3.834 13.543 1.407 3.258 3.491 6.188 5.467 9.137 1.568 2.34 2.996 4.853 5.059 6.771.591.55 1.243 1.174 2.039 1.305 1.217.199 2.415-.522 3.59-.896 1.78-.568 3.448-1.447 5.221-2.039 2.785-.93 6.194-.53 8.484-2.367 1.395-1.119 2.134-2.986 2.529-4.73.926-4.089-.014-8.41-.572-12.564-.494-3.675-1.662-7.226-2.447-10.85-.877-4.045-1.888-8.07-2.527-12.156-.722-4.62-.822-9.318-1.469-13.949-.569-4.074-1.674-8.07-2.121-12.156-.724-6.63-2.324-13.473-.898-19.988.216-.986.818-1.857 1.387-2.691.835-1.226 2.077-2.137 2.938-3.346 1.723-2.421 3.732-4.856 4.406-7.75.315-1.353.113-2.818-.246-4.16-.377-1.41-1.314-2.606-1.957-3.916a507.257 507.257 0 0 1-3.182-6.607c-.359-.759-.303-1.923-1.061-2.285a1.143 1.143 0 0 0-.422-.102m-25.877 2.775c-.848.025-1.783.522-2.174 1.242-.614 1.133.248 2.055.246 3.344-.003 1.892-1.01 4.302-.49 6.121.483 1.691 1.827 3.191 3.346 4.078.954.557 2.22.936 3.262.57.582-.204 1.043-.798 1.225-1.387.323-1.047-.08-2.216-.408-3.262-.56-1.787-2.063-3.185-2.611-4.977-.36-1.177-.002-2.509-.406-3.672-.169-.485-.487-.912-.816-1.305-.235-.28-.454-.683-.816-.734a2.085 2.085 0 0 0-.355-.02m129.09 17.06h.002c.588.015 1.178.045 1.762.117.922.113 1.867.347 2.582.939.306.253.561.565.881.799.16.117.336.214.527.266.192.052.4.057.588-.008.16-.055.298-.157.428-.266.13-.109.252-.228.393-.322a1.376 1.376 0 0 1 1.057-.209c.18.041.351.121.494.238.143.117.258.271.328.441.074.18.098.378.082.572a1.786 1.786 0 0 1-.15.563c-.156.357-.402.666-.637.977-.161.213-.319.431-.508.621s-.412.352-.666.436c-.394.129-.831.054-1.207-.119-.377-.173-.704-.437-1.023-.701-.915-.758-1.833-1.55-2.934-1.996-1.482-.6-3.18-.511-4.695 0-.634.214-1.253.504-1.762.939-.229.196-.44.424-.719.539a.792.792 0 0 1-.445.057.532.532 0 0 1-.363-.244.492.492 0 0 1-.064-.234.61.61 0 0 1 .047-.242.873.873 0 0 1 .313-.371c.268-.191.598-.272.879-.443.273-.167.49-.413.686-.666.196-.253.378-.517.605-.742.445-.439 1.042-.699 1.654-.826.612-.127 1.242-.129 1.867-.113m-.057 5.672c.295.002.59.031.881.08.636.108 1.252.314 1.879.469.174.043.349.083.514.152.165.069.32.172.424.318a.78.78 0 0 1 .139.451c0 .16-.046.32-.123.461-.154.281-.426.482-.719.613-.416.187-.878.248-1.334.26-.456.012-.911-.025-1.367-.025-.541 0-1.092.048-1.613-.096a1.71 1.71 0 0 1-.711-.377 1.162 1.162 0 0 1-.375-.701 1.095 1.095 0 0 1 .096-.58c.082-.181.206-.339.355-.469.299-.26.685-.4 1.074-.477.29-.057.586-.082.881-.08m-15.268 7.908a70.516 70.516 0 0 0-.984 7.621c-.149 2.02-.206 4.084.369 6.02.418 1.411 1.158 2.705 1.967 3.934 2.672 4.06 6.151 7.544 9.955 10.57 1.232.98 2.5 1.915 3.688 2.949a28.596 28.596 0 0 1 2.828 2.828 111.584 111.584 0 0 1 3.564-3.811c2.01-2.048 4.096-4.02 6.146-6.02 1.544-1.51 3.116-3.117 3.811-5.162.519-1.529.502-3.181.49-4.795-.018-2.376-.032-4.829-.982-7.01-.462-1.058-1.132-2.02-1.598-3.072-.173-.392-.319-.8-.563-1.152a1.867 1.867 0 0 0-.443-.461 1.235 1.235 0 0 0-.592-.23c-.312-.03-.626.078-.891.246-.265.168-.488.393-.709.615-1.131 1.141-2.269 2.317-3.688 3.072-.989.526-2.086.829-3.195.982-2.442.338-4.918-.034-7.375-.246-.72-.062-1.444-.111-2.154-.244s-1.413-.354-2.025-.738c-.742-.465-1.319-1.147-1.84-1.852-.521-.704-1-1.445-1.602-2.082-.742-.785-1.671-1.403-2.703-1.721a5.636 5.636 0 0 0-1.475-.246m-90.65 76.984c.57.099 1.087.729 1.143 1.305.072.752-.57 1.466-1.143 1.959-.887.765-2.091 1.262-3.262 1.305-1.255.045-3.174.042-3.59-1.143-.325-.925.711-2.109 1.631-2.447.743-.273 1.498.743 2.285.652 1.113-.128 1.832-1.823 2.936-1.631" fill="#fb9"/></g><g stroke="#000"><g stroke-linecap="round"><g stroke-linejoin="round" transform="translate(-31.02 -41.19)"><g fill="red"><path stroke-width="3" d="M521.15 412.46h9.06v25.453h-9.06z"/><path d="M525.68 437.59c-1.099 0-2.197.106-3.264.32-3.179.638-6.644 1.498-8.973 3.754-2.02 1.955-3.168 4.697-3.857 7.506h-37.455a10.687 12.971 0 0 0-8.938-5.875 10.687 12.971 0 0 0-10.685 12.973 10.687 12.971 0 0 0 10.686 12.97 10.687 12.971 0 0 0 8.94-5.873h37.677c.714 2.357 1.724 4.635 2.865 6.822 1.839 3.523 4.02 6.853 5.988 10.31a93.351 93.351 0 0 1 7.02 15.5 92.621 92.621 0 0 1 7.02-15.5c1.963-3.456 4.146-6.786 5.984-10.31 1.14-2.187 2.152-4.465 2.865-6.822h37.682a10.687 12.971 0 0 0 8.934 5.873 10.687 12.971 0 0 0 10.687-12.97 10.687 12.971 0 0 0-10.687-12.973 10.687 12.971 0 0 0-8.94 5.875h-37.45c-.69-2.809-1.837-5.551-3.855-7.506-2.329-2.256-5.794-3.116-8.973-3.754a16.632 16.632 0 0 0-3.264-.32z" stroke-width="5"/></g><circle cx="525.67" cy="450.23" r="3.345" stroke-width="3"/><g fill="red" stroke-width="5"><path d="M525.674 373.252a21.397 21.397 0 0 0-21.396 21.398 21.397 21.397 0 0 0 21.396 21.397 21.397 21.397 0 0 0 21.397-21.397 21.397 21.397 0 0 0-21.397-21.398zm0 11.26a10.14 10.14 0 0 1 10.14 10.138 10.14 10.14 0 0 1-10.14 10.139 10.14 10.14 0 0 1-10.138-10.139 10.14 10.14 0 0 1 10.138-10.139zM435.852 599.764a28.09 28.39 0 0 0-.701 6.2 28.09 28.39 0 0 0 28.09 28.39 28.09 28.39 0 0 0 28.09-28.39 28.09 28.39 0 0 0-.713-6.2H435.85zm124.88 0a28.09 28.39 0 0 0-.712 6.2 28.09 28.39 0 0 0 28.09 28.39 28.09 28.39 0 0 0 28.09-28.39 28.09 28.39 0 0 0-.701-6.2H560.73z"/></g></g><g fill="none" fill-rule="evenodd" stroke-width="3"><path d="M432.17 428.05v130.53M432.17 428.05l-27.34 130.53M459.6 558.58l-27.426-130.53M557.14 428.05v130.53M557.14 428.05l27.34 130.53M529.71 558.58l27.426-130.53"/></g></g><path d="M522.3 316.6s2.585 2.933 3.23 4.73c.431 1.199.813 2.622.346 3.807-.359.912-1.291 1.576-2.192 1.961-1.348.577-4.384.346-4.384.346s2.636 1.771 4.153 2.077c1.134.228 2.405-.702 3.461-.231 1.026.458 2.054 1.531 2.077 2.654.024 1.184-1.042 2.308-2.077 2.884-1.954 1.087-4.46.323-6.692.461-2.768.172-5.794-.711-8.307.461-2.293 1.07-3.798 3.426-5.192 5.538-1.318 1.998-1.685 4.504-2.884 6.576-1.01 1.738-1.885 3.764-3.577 4.846-1.125.719-2.688 1.315-3.923.808-.77-.316-1.207-1.264-1.384-2.077-.366-1.674.808-5.076.808-5.076s-2.01 1.915-2.654 3.115c-.456.846-.295 1.956-.808 2.769-.523.829-1.222 1.817-2.192 1.961-1.174.175-2.455-.601-3.23-1.5-.708-.82-.991-2.034-.923-3.115.066-1.048.646-2.039 1.269-2.884.695-.944 2.654-2.307 2.654-2.307s-3.345.42-4.5 1.5c-.668.625-.754 1.67-1.038 2.538-.296.904-.692 2.769-.692 2.769s-1.775-1.104-2.307-1.961c-.418-.674-.72-1.528-.577-2.307.28-1.521 1.661-2.621 2.654-3.807 1.013-1.209 3.346-3.346 3.346-3.346s-3.376 1.322-4.961 2.192c-.972.534-1.726 2.224-2.769 1.846-2.037-.737-1.955-4.067-1.846-6.23.128-2.532 1.348-5.02 2.884-7.04 1.678-2.203 4.071-3.896 6.576-5.076 2.355-1.11 5.01-1.67 7.615-1.731 2.187-.051 4.277 1.018 6.461 1.154 2.191.136 4.505.38 6.576-.346 2.991-1.048 4.906-4.098 7.73-5.538 2.275-1.161 7.268-2.423 7.268-2.423z" fill="none" stroke-linejoin="round" stroke-width="5"/></g><g fill-rule="evenodd"><path d="M522.3 316.61s2.585 2.933 3.23 4.73c.431 1.199.813 2.622.346 3.807-.359.912-1.291 1.576-2.192 1.961-1.348.577-4.384.346-4.384.346s2.636 1.771 4.153 2.077c1.134.228 2.405-.702 3.461-.231 1.026.458 2.054 1.531 2.077 2.654.024 1.184-1.042 2.308-2.077 2.884-1.954 1.087-4.46.323-6.692.461-2.768.172-5.794-.711-8.307.461-2.293 1.07-3.798 3.426-5.192 5.538-1.318 1.998-1.685 4.504-2.884 6.576-1.01 1.738-1.885 3.764-3.577 4.846-1.125.719-2.688 1.315-3.923.808-.77-.316-1.207-1.264-1.384-2.077-.366-1.674.808-5.076.808-5.076s-2.01 1.915-2.654 3.115c-.456.846-.295 1.956-.808 2.769-.523.829-1.222 1.817-2.192 1.961-1.174.175-2.455-.601-3.23-1.5-.708-.82-.991-2.034-.923-3.115.066-1.048.646-2.039 1.269-2.884.695-.944 2.654-2.307 2.654-2.307s-3.345.42-4.5 1.5c-.668.625-.754 1.67-1.038 2.538-.296.904-.692 2.769-.692 2.769s-1.775-1.104-2.307-1.961c-.418-.674-.72-1.528-.577-2.307.28-1.521 1.661-2.621 2.654-3.807 1.013-1.209 3.346-3.346 3.346-3.346s-3.376 1.322-4.961 2.192c-.972.534-1.726 2.224-2.769 1.846-2.037-.737-1.955-4.067-1.846-6.23.128-2.532 1.348-5.02 2.884-7.04 1.678-2.203 4.071-3.896 6.576-5.076 2.355-1.11 5.01-1.67 7.615-1.731 2.187-.051 4.277 1.018 6.461 1.154 2.191.136 4.505.38 6.576-.346 2.991-1.048 4.906-4.098 7.73-5.538 2.275-1.161 7.268-2.423 7.268-2.423" fill="#fb9"/><path d="m596.73 24.01-14.691 5a18098.71 18098.71 0 0 0-117.29 85.63c-9.515 7.01-19.02 14.02-28.525 21.04a8.463 8.463 0 0 0 .763 3.221 17.64 17.64 0 0 0 4.26 5.702 8.45 8.45 0 0 0 2.872 1.645 17987.733 17987.733 0 0 0 143.65-109.575l8.961-12.67m-168.13 96.23c-2.905.569-5.72 2.264-7.641 4.604-1.411 1.717-2.349 3.79-2.481 5.827-.132 2.034.53 3.946 1.52 5.595.99 1.649 2.302 3.071 3.58 4.508a149.858 149.858 0 0 1 6.449 7.767c1.967 2.73 3.84 5.527 5.619 8.387 1.016 1.632 2.01 3.294 3.307 4.711 1.301 1.417 2.945 2.593 4.933 3.043 1.991.451 4.245.141 6.292-.724 2.788-1.179 5.213-3.398 6.582-6.02-2.676-.247-5.232-.969-7.509-2.119-4.01-2.025-7.05-5.297-9.992-8.543a686.872 686.872 0 0 1-3.03-3.368 767.79 767.79 0 0 1-2.37-3.861c-2.278-3.74-4.554-7.583-5.358-12.01-.456-2.51-.424-5.165.098-7.802m-32.104 42.051a7.9 8.04 53.239 0 0-6.694 1.402 7.9 8.04 53.239 0 0-1.712 11.14 7.9 8.04 53.239 0 0 11.169 1.518 7.9 8.04 53.239 0 0 1.79-1.859 9.31 9.471 53.239 0 1-3.558-2.854 9.31 9.471 53.239 0 1-.995-9.347" fill="red"/><g fill="#fff"><path d="M551.69 607.84c-2.144.036-4.3.231-6.363.816-1.1.312-2.175.737-3.141 1.35-.966.613-1.822 1.419-2.406 2.402-.673 1.132-.964 2.449-1.143 3.754-.278 2.037-.316 4.153-1.141 6.04-.517 1.182-1.326 2.223-1.795 3.426-.537 1.378-.597 2.927-.23 4.359.366 1.433 1.148 2.747 2.188 3.799 1.27 1.286 2.944 2.189 4.732 2.447 1.44.208 2.916 0 4.309-.42 1.393-.42 2.711-1.049 4.01-1.701 2.981-1.494 5.893-3.12 8.811-4.732.6-.332 1.204-.664 1.75-1.08.546-.416 1.036-.92 1.352-1.529.381-.736.487-1.599.375-2.42-.112-.821-.434-1.605-.865-2.313-1.35-2.214-3.721-3.649-6.201-4.404-2.367-.721-4.9-.89-7.342-.49 2.512-2.145 6.137-2.907 9.301-1.957 2.082.625 3.892 1.908 5.711 3.1.593.389 1.192.77 1.795 1.143a11.347 11.347 0 0 0 4.73-1.633c1.32-.819 2.478-1.924 3.264-3.264a8.394 8.394 0 0 0 1.143-3.916 10.805 10.805 0 0 1-5.385 1.307c-1.858-.043-3.679-.57-5.385-1.307-1.095-.473-2.151-1.032-3.262-1.467-2.783-1.089-5.825-1.356-8.813-1.307m-78.38 3.072a3.426 3.426 0 0 0-1.104.098c-.722.172-1.393.508-2.096.746-1.408.478-2.937.556-4.406.326-.874-.137-1.728-.379-2.604-.508-.875-.129-1.792-.137-2.617.182-.77.298-1.41.864-1.926 1.508s-.921 1.37-1.338 2.082c-1.142 1.951-2.466 3.897-4.404 5.059-1.103.661-2.352 1.033-3.586 1.396s-2.483.729-3.594 1.377c-1.571.916-2.772 2.338-3.916 3.752-1.097 1.356-2.177 2.74-2.986 4.285-.809 1.545-1.339 3.274-1.256 5.02.029.6.13 1.199.34 1.762a4.02 4.02 0 0 0 .967 1.502c.744.711 1.775 1.057 2.799 1.152 1.024.096 2.055-.039 3.074-.174 2.555-.339 5.108-.686 7.668-.979 3.506-.401 7.114-.726 10.279-2.285a14.255 14.255 0 0 0 5.221-4.404 8.487 8.487 0 0 0-.162-4.08c-.447-1.531-1.35-2.94-2.611-3.916a6.995 6.995 0 0 0-4.242-1.449 6.99 6.99 0 0 0-4.242 1.449 7.718 7.718 0 0 1 3.596-2.824 7.706 7.706 0 0 1 4.563-.275c1.48.367 2.866 1.207 3.754 2.447.615.859.974 1.871 1.434 2.822.23.476.488.94.813 1.357.324.417.717.786 1.18 1.041.61.335 1.32.46 2.02.453.696-.007 1.383-.14 2.063-.289 5.314-1.167 10.376-3.428 14.848-6.527a43.862 43.862 0 0 0 6.691-5.709c-2.339.043-4.679.097-7.02.162-3.282.092-6.619.199-9.789-.652-.973-.261-1.928-.616-2.785-1.145-.857-.529-1.616-1.24-2.109-2.119-.224-.399-.391-.828-.605-1.232-.214-.405-.485-.793-.863-1.051a2.2 2.2 0 0 0-1.043-.355M550.51 190.13a4.186 4.186 0 0 0 1 2.807c.879 1.016 2.195 1.541 3.5 1.863 1.305.322 2.654.481 3.916.943 2.464.903 4.414 2.929 5.588 5.275 1.421 2.84 1.778 6.202.951 9.268-.632 2.345-1.924 4.481-3.543 6.291-1.619 1.81-3.56 3.309-5.602 4.625-3.574 2.304-7.525 4.104-10.625 7.02-2.484 2.333-4.338 5.308-7.02 7.416-2.01 1.582-4.465 2.626-7.02 2.807-3.214.228-6.505-.968-8.822-3.207a33.533 33.533 0 0 0 11.231-1.203 671.48 671.48 0 0 1-4.611-4.01c-3.034-2.659-6.17-5.414-10.02-6.615-2.472-.771-5.098-.854-7.682-1.025-2.584-.172-5.223-.456-7.555-1.582-2.307-1.114-4.174-2.999-5.617-5.115-1.444-2.116-2.495-4.471-3.502-6.826a233.92 233.92 0 0 1-2.908-7.102 13.823 13.823 0 0 0-9.422 2.605c-2.988 2.202-4.992 5.601-5.814 9.221-.36 1.583-.502 3.269 0 4.813.406 1.249 1.222 2.342 2.227 3.188 1 .845 2.194 1.451 3.434 1.885 2.479.868 5.134 1.061 7.711 1.568 5.401 1.063 10.422 3.494 15.359 5.928 4.68 2.307 9.352 4.64 13.891 7.213a149.697 149.697 0 0 1 14.11 9.08 356.204 356.204 0 0 1 14.232-9.822c6.451-4.225 13.04-8.246 19.244-12.83 1.93-1.427 3.828-2.914 5.488-4.648 1.66-1.734 3.082-3.73 3.934-5.975.867-2.286 1.12-4.792.803-7.217-.609-4.657-3.356-8.952-7.217-11.627-3.522-2.44-7.796-3.537-12.03-4.211a72.387 72.387 0 0 0-7.619-.801m-37.686.4a40.341 40.341 0 0 0-9.824 3.809 41.875 41.875 0 0 0-6.01 4.01c-.562.448-1.134.937-1.402 1.604a2.582 2.582 0 0 0-.164 1.162c.03.394.132.779.275 1.146.287.736.729 1.4 1.092 2.102.854 1.65 1.271 3.483 1.738 5.281.467 1.798 1.01 3.617 2.07 5.143.873 1.255 2.072 2.266 3.408 3.01 1.838 1.021 3.914 1.538 5.988 1.881 2.075.343 4.174.523 6.238.926 4.053.792 7.915 2.438 11.428 4.609a41.52 41.52 0 0 1 9.621 8.219 52.983 52.983 0 0 1 8.221-8.02c2.965-2.321 6.167-4.318 9.42-6.215 1.286-.75 2.586-1.486 3.777-2.379 1.191-.893 2.28-1.954 3.039-3.234 1.203-2.028 1.5-4.458 1.604-6.814.047-1.073.06-2.155-.1-3.217-.16-1.062-.499-2.11-1.104-2.998-.814-1.195-2.07-2.036-3.412-2.574-1.342-.539-2.778-.8-4.205-1.035a134.363 134.363 0 0 0-5.613-.801 15.822 15.822 0 0 1 1 7.617c-.576 4.991-3.506 9.437-7.02 13.03-2.023 2.071-4.261 3.926-6.615 5.611-.543.389-1.095.772-1.693 1.068-.598.297-1.247.506-1.914.535-.835.036-1.665-.213-2.406-.6-1.056-.55-1.951-1.366-2.746-2.252-.795-.886-1.501-1.847-2.266-2.76-2.49-2.974-5.564-5.395-8.42-8.02-1.904-1.75-3.756-3.653-4.811-6.01-.974-2.18-1.204-4.636-1-7.02.2-2.354.814-4.672 1.805-6.816m-76.28 41.541c-.621-.036-1.261-.026-1.838.205h-.002a2.702 2.702 0 0 0-1.023.736 3.2 3.2 0 0 0-.619 1.105c-.265.807-.226 1.692-.004 2.512.445 1.64 1.569 2.99 2.465 4.434 1.992 3.208 2.9 6.99 3.207 10.754.307 3.764.045 7.547-.141 11.318-.44 8.971-.48 18.18-3.68 26.568a37.133 37.133 0 0 1-9.809 14.307 9.782 9.782 0 0 0 6.539.613c2.146-.553 4.057-1.838 5.578-3.449 1.521-1.611 2.673-3.54 3.619-5.543 3.492-7.393 4.255-15.748 4.699-23.912.5-9.189.661-18.411 0-27.59-.142-1.975-.326-3.968-.943-5.85-.617-1.882-1.708-3.666-3.348-4.777-1.372-.93-3.046-1.336-4.701-1.432m35.807 1.188c-.254 0-.507.013-.758.037-1 .097-1.985.365-2.963.615a85.409 85.409 0 0 1-4.496 1.021 10.2 10.2 0 0 0 4.906 3.475c1.587.517 3.356.623 4.904 0 .659-.265 1.279-.671 1.689-1.25.205-.29.355-.62.422-.969a2.05 2.05 0 0 0-.068-1.051 2.172 2.172 0 0 0-.566-.859 3.202 3.202 0 0 0-.863-.572c-.686-.32-1.446-.445-2.207-.447m-35.602 42.549a13.605 13.605 0 0 1-5.518 1.84 13.597 13.597 0 0 1-6.744-1.023 13.394 13.394 0 0 1-5.52 3.885c-1.244.464-2.557.74-3.883.816.381 2.605.859 5.196 1.432 7.766.564 2.531 1.229 5.07 2.451 7.357a16.62 16.62 0 0 0 4.496 5.314 50.08 50.08 0 0 0 7.154-9.4 50.192 50.192 0 0 0 6.131-16.555m128.44 18.08c-.617.022-1.242.172-1.752.52a2.454 2.454 0 0 0-1.016 1.498c-.128.605 0 1.264.363 1.766.352.487.899.807 1.477.973.577.166 1.187.188 1.787.17a15.501 15.501 0 0 0 3.916-.652c.589-.174 1.188-.391 1.631-.816.24-.23.428-.52.5-.844.072-.324.02-.682-.174-.951a1.375 1.375 0 0 0-.59-.443c-.229-.098-.472-.153-.715-.209-1.195-.278-2.385-.583-3.59-.816-.606-.117-1.221-.216-1.838-.193m-38.619 9.463c-1.205 0-2.409.15-3.576.449-1.724.442-3.404 1.235-4.615 2.539a6.985 6.985 0 0 0-1.846 4.613 6.32 6.32 0 0 1 5.307.232c1 .528 1.849 1.324 2.553 2.213s1.277 1.874 1.832 2.863c2.266 4.03 4.307 8.229 5.537 12.689 2.37 8.594 1.618 17.731.23 26.537-.513 3.256-1.113 6.511-2.164 9.635-1.051 3.124-2.571 6.128-4.758 8.594a19.201 19.201 0 0 1-7.846 5.307 4.392 4.392 0 0 0 2.309 2.309c1.303.55 2.805.43 4.152 0 1.745-.556 3.309-1.607 4.609-2.896 1.3-1.29 2.348-2.816 3.236-4.418 3.05-5.5 4.236-11.801 6-17.838 1.937-6.628 4.64-13.2 4.633-20.11a25.882 25.882 0 0 0-.941-6.891c-1.625-5.846-5.251-10.898-7.846-16.383a49.252 49.252 0 0 1-3.23-9 14.422 14.422 0 0 0-3.576-.449m-5.881 36.25c-2.066.073-4.095.597-6.04 1.305a32.633 32.633 0 0 0-6.04 2.938 65.216 65.216 0 0 0 1.143 17.295c1.131 5.596 3 11.04 5.547 16.15a26.092 26.092 0 0 0 6.201-5.059c4.09-4.548 6.472-10.45 7.506-16.479.775-4.522.83-9.166.162-13.705a14.307 14.307 0 0 0-8.484-2.447m47.969 9.789a1.755 1.755 0 0 0-1.178.391c-.328.268-.551.66-.615 1.078-.075.485.06.981.287 1.416.227.435.541.816.854 1.193 1.867 2.258 3.767 4.647 4.406 7.506.267 1.194.301 2.425.416 3.643.115 1.218.318 2.455.889 3.537.14.266.304.523.52.732.216.209.488.368.785.41.238.034.485 0 .705-.107.22-.097.414-.248.576-.426.324-.355.517-.809.678-1.262.89-2.505.978-5.302.162-7.832-.756-2.345-2.241-4.392-3.914-6.201a32.118 32.118 0 0 0-4.57-4.078m-10.605 17.621a125.51 125.51 0 0 0-1.141 9.627c-.171 2.151-.268 4.412.652 6.363.256.543.597 1.059 1.078 1.418.24.179.513.317.805.387.292.07.602.072.891 0 .473-.135.864-.489 1.125-.906.261-.418.403-.898.506-1.379.388-1.812.247-3.706-.168-5.512-.415-1.806-1.095-3.538-1.789-5.256a296.015 296.015 0 0 0-1.959-4.732"/><path d="M474.52 220.5a20.915 20.915 0 0 0-7.02 4.895 20.85 20.85 0 0 0-4.405 7.179 8.278 8.278 0 0 0 4.079.163c2.192-.468 4.143-1.816 6.363-2.121.725-.099 1.47-.083 2.179.097.709.181 1.38.531 1.901 1.045a4.057 4.057 0 0 1 1.039 1.817c.185.681.208 1.401.103 2.099-.27 1.799-1.405 3.424-2.937 4.405-1.761 1.128-3.964 1.418-6.04 1.142-2.956-.393-5.651-1.844-8.484-2.774-2.632-.864-5.394-1.28-8.158-1.468a51.394 51.394 0 0 0-7.02 0 35.095 35.095 0 0 1 2.447 9.953c.446 4.717-.067 9.464-.326 14.195-.475 8.665-.101 17.431-1.795 25.943a54.304 54.304 0 0 1-2.121 7.669 3.92 3.92 0 0 0 3.263 1.142c1.181-.152 2.232-.844 3.081-1.678.849-.834 1.536-1.817 2.303-2.727 1.168-1.385 2.531-2.608 3.59-4.079 1.395-1.938 2.217-4.267 2.462-6.643.244-2.376-.079-4.796-.83-7.06-.527-1.591-1.26-3.107-1.806-4.691-.546-1.585-.903-3.28-.642-4.935a6.919 6.919 0 0 1 3.426-4.895 13.835 13.835 0 0 0-.326 5.221c.399 3.094 1.829 5.953 2.611 8.974a21.926 21.926 0 0 1 0 10.932 39.576 39.576 0 0 0 8.158-8.158c1.711-2.304 3.193-4.854 3.753-7.669.597-3 .11-6.105-.326-9.137-.367-2.549-.692-5.188 0-7.669a10.083 10.083 0 0 1 2.774-4.569 10.468 10.468 0 0 1 3.753-2.284 46.829 46.829 0 0 0-3.263 10.769 43.144 43.144 0 0 0-.653 8.648c.244 8.716 3.317 17.11 4.242 25.78.505 4.738.358 9.577-.816 14.195-.796 3.13-2.069 6.246-1.795 9.463.178 2.094 1.013 4.089 2.121 5.874a20.173 20.173 0 0 0 4.079 4.732 6.373 6.373 0 0 1 3.753-3.753c1.19-.433 2.487-.497 3.749-.396 1.262.101 2.506.361 3.757.559 2.48.392 5 .538 7.505.326 2.631-.223 5.334-.896 7.342-2.611 1.618-1.382 2.659-3.344 3.263-5.384.494-1.667.719-3.403 1.167-5.083.448-1.68 1.155-3.353 2.422-4.543 1.118-1.05 2.594-1.648 4.091-1.986 1.496-.338 3.034-.438 4.557-.625.981-.121 1.958-.278 2.945-.326.987-.048 1.991.015 2.929.326a5.802 5.802 0 0 1 3.426 3.1 247.594 247.594 0 0 1 7.342-5.384c2.663-1.879 5.456-3.746 8.648-4.405a12.642 12.642 0 0 1 9.137 1.632 41.82 41.82 0 0 0 2.121-3.753c.709-1.42 1.338-2.885 1.795-4.405 1.177-3.921 1.172-8.106.724-12.175-.448-4.069-1.325-8.08-1.866-12.136-.26-1.952-.44-3.955 0-5.874a9.375 9.375 0 0 1 3.1-5.058c-.474 1.978-.747 4-.816 6.04-.201 5.985 1.366 11.867 2.284 17.785.598 3.855.909 7.884-.326 11.584a14.502 14.502 0 0 1-2.937 5.058c1.601.385 3.294.385 4.895 0 .879-.212 1.733-.537 2.628-.668a4.403 4.403 0 0 1 1.351-.007 2.82 2.82 0 0 1 1.242.512c.461.349.782.859.979 1.402.197.543.278 1.122.326 1.698.066.795.071 1.604-.115 2.379-.185.776-.574 1.52-1.191 2.026-.629.516-1.452.751-2.264.796-.812.045-1.623-.086-2.424-.229-2.308-.415-4.594-.943-6.897-1.382-2.452-.468-4.927-.835-7.342-1.468-.884-.232-1.761-.5-2.661-.658-.9-.159-1.834-.205-2.723.006-1.133.269-2.13.938-3.03 1.679-.898.741-1.728 1.569-2.682 2.237-2.417 1.692-5.5 2.271-7.832 4.079a5.308 5.308 0 0 0-.901.858c-.26.324-.467.696-.567 1.1-.124.498-.082 1.027.053 1.522.135.495.359.961.6 1.415 1.17 2.2 2.756 4.158 3.916 6.363 1.862 3.541 2.547 7.559 3.59 11.421.8 2.963 1.83 5.907 1.958 8.974.213 5.084-2.05 9.889-3.753 14.685a69.712 69.712 0 0 0-2.937 11.1 65.917 65.917 0 0 1 6.2-4.079c3.205-1.859 6.572-3.45 9.627-5.547 1.153-.792 2.293-1.695 2.937-2.937.509-.984.669-2.109.736-3.215.067-1.106.051-2.221.243-3.312.369-2.104 1.484-3.994 2.165-6.02a15.15 15.15 0 0 0 .282-8.667 21.937 21.937 0 0 1 2.121 8.484 21.95 21.95 0 0 1-1.142 7.995c1.86-.66 3.664-1.48 5.384-2.447 6.174-3.473 11.11-8.734 15.99-13.869 3.527-3.71 7.08-7.399 10.442-11.258 2.56-2.938 5.088-6.136 5.874-9.953.474-2.301.279-4.683 0-7.02-.334-2.79-.774-5.695.146-8.35.886-2.555 2.908-4.517 4.749-6.498a66.732 66.732 0 0 0 3.753-4.405 52.244 52.244 0 0 0-.816-14.521c-1.149-5.785-3.272-11.344-4.405-17.13-.903-4.612-1.17-9.336-.979-14.03.141-3.47.53-6.951.174-10.405-.178-1.727-.545-3.443-1.204-5.05-.659-1.606-1.617-3.103-2.886-4.288-1.663-1.554-3.785-2.517-5.915-3.317-2.13-.8-4.323-1.47-6.322-2.557a17.027 17.027 0 0 1-5.221-4.405 14.256 14.256 0 0 1 0 7.342c-.744 2.779-2.326 5.281-4.254 7.416-1.928 2.135-4.2 3.93-6.515 5.637-9.363 6.904-19.609 12.552-28.88 19.579a119.497 119.497 0 0 0-4.895 3.916 486.385 486.385 0 0 1-.815 33.126 78.998 78.998 0 0 1-2.774-20.395 78.96 78.96 0 0 1 .979-12.727 240.667 240.667 0 0 1-10.606-6.69c-7.585-5.065-15.07-10.653-23.822-13.216-5.685-1.664-11.79-2.01-17.13-4.569a22.477 22.477 0 0 1-6.526-4.732"/><path d="M453.79 98.91c-.934 0-1.869.075-2.791.215-3.101.472-6.103 1.685-8.592 3.594-2.489 1.909-4.452 4.52-5.484 7.482-1.175 3.371-1.144 7.097-2.539 10.383-.456 1.073-1.054 2.079-1.561 3.129-.506 1.05-.924 2.167-.977 3.332a5.615 5.615 0 0 0 1.385 3.924l30.23-20.07a7.17 7.17 0 0 0 1.145-4.074 7.152 7.152 0 0 0-1.375-4c-1.168-1.592-2.963-2.637-4.846-3.23-1.483-.467-3.035-.678-4.592-.678m16.13 33.904-22.844 17.307a32.905 32.905 0 0 1 3.693 2.307c1.379.994 2.735 2.123 4.383 2.539 1.14.288 2.37.204 3.461-.232a11.75 11.75 0 0 1-.691 4.615c-.711 1.951-1.942 3.696-3.473 5.098-1.531 1.402-3.356 2.467-5.295 3.209-2.689 1.03-5.637 1.469-8.08 3-2.029 1.274-3.554 3.218-4.799 5.266-1.245 2.047-2.254 4.231-3.51 6.271-1.249 2.03-2.759 3.952-3.461 6.23-.753 2.445-.504 5.072-.23 7.615.149 1.385.304 2.768.463 4.152a32.427 32.427 0 0 1 2.768-9.691 32.512 32.512 0 0 1 9-11.537 118.631 118.631 0 0 1-5.539 13.385c-1.607 3.296-3.384 6.567-4.152 10.152a19.074 19.074 0 0 0-.23 6.691 44.82 44.82 0 0 0 9.459-6 44.998 44.998 0 0 0 11.08-13.613 32.726 32.726 0 0 1-2.537 6c-1.937 3.545-4.526 6.721-6.23 10.383-2.198 4.723-2.819 10.02-3 15.229a99.909 99.909 0 0 0 0 6.924 74.272 74.272 0 0 0 6.691-4.154c2.806-1.955 5.58-4.239 6.922-7.385 1.218-2.854 1.126-6.129 2.309-8.998 1.131-2.743 3.447-4.973 6.23-6a217.352 217.352 0 0 1-3.461 9.461c-1.521 3.876-3.159 7.725-4.154 11.768-.336 1.366-.598 2.758-.645 4.164-.046 1.407.129 2.833.645 4.143a8.374 8.374 0 0 0 2.889 3.711 99.719 99.719 0 0 1 15.34-17.325 21 21 0 0 1 2.076-8.307 20.957 20.957 0 0 1 3.463-5.076 35.774 35.774 0 0 1-3.23-5.307c-.877-1.769-1.634-3.653-3-5.078-1.452-1.516-3.456-2.366-5.445-3.037-1.989-.671-4.047-1.214-5.861-2.27-2.336-1.359-4.193-3.608-4.846-6.23-.711-2.86.032-5.919 1.385-8.537 2.782-5.384 7.947-9.215 10.844-14.537 2.944-5.409 3.272-11.861 2.77-17.998a74.503 74.503 0 0 0-1.154-8.307m-30.426 74.77a37.06 37.06 0 0 1-8.859 4.805 19.36 19.36 0 0 1 1.051 5.557c.08 2.01-.151 4.048.301 6.01.312 1.355.949 2.665.9 4.055-.011.306-.055.612-.055.918 0 .306.047.622.205.885.12.199.3.359.504.471.204.112.43.177.66.207.461.061.928-.014 1.389-.078.421-.058.844-.109 1.256-.215.412-.106.814-.27 1.146-.535.518-.414.827-1.053.926-1.709.099-.656 0-1.328-.191-1.963-.385-1.269-1.132-2.407-1.484-3.686-.293-1.066-.301-2.191-.248-3.295.053-1.104.164-2.209.098-3.313-.042-.702-.154-1.417 0-2.104.186-.825.739-1.519 1.352-2.102.257-.244.527-.475.75-.75.352-.435.572-.974.625-1.531a2.892 2.892 0 0 0-.324-1.623m12.162 16.217a10.896 10.896 0 0 0-4.805 2.402c-1.208 1.047-2.168 2.347-3.154 3.605-.296.378-.598.756-.828 1.178-.23.422-.388.895-.373 1.375.012.392.139.775.344 1.109.204.334.485.62.801.852.632.463 1.398.708 2.16.891 1.284.308 2.665.457 3.904 0 1.097-.405 2.01-1.299 2.402-2.402.287-.814.287-1.704.176-2.561-.111-.856-.331-1.694-.477-2.545a14.93 14.93 0 0 1-.15-3.904M400.28 183.43c-1.127 0-2.247.414-3.16 1.082-1.044.764-1.831 1.84-2.387 3.01-1.111 2.336-1.314 4.981-1.803 7.521-1.323 6.88-4.794 13.12-7.506 19.58-1.246 2.969-2.339 6.01-3.1 9.137a45.142 45.142 0 0 0-1.143 7.18 9.456 9.456 0 0 0 3.264-.652c2.268-.892 4.111-2.635 5.58-4.58 1.469-1.945 2.611-4.111 3.883-6.189 2.589-4.231 5.746-8.155 7.67-12.727 1.987-4.721 2.561-9.903 2.936-15.01.141-1.924.246-3.927-.488-5.711-.315-.765-.793-1.481-1.469-1.957-.526-.371-1.155-.582-1.795-.652a4.326 4.326 0 0 0-.482-.027m-1.803 35.11a55.465 55.465 0 0 0-6.852 9.953c-2.877 5.347-4.855 11.131-6.527 16.969-2.591 9.05-4.483 18.335-4.895 27.736a89.721 89.721 0 0 0 0 7.832 40.214 40.214 0 0 0 5.875-6.363c2.786-3.764 4.889-7.984 6.852-12.236 1.409-3.053 2.762-6.168 3.426-9.465.883-4.385.514-8.91.328-13.379-.153-3.676-.167-7.435.979-10.932.64-1.952 1.64-3.825 1.795-5.873a7.374 7.374 0 0 0-.98-4.242m-.586 44.799a170.27 170.27 0 0 0-5.984 16.08c-3.63 11.485-6.03 23.328-7.869 35.23a382.542 382.542 0 0 0-2.223 16.932 50.79 50.79 0 0 0 6.328-6.498c5.796-7.129 9.536-15.662 13.512-23.945a378.869 378.869 0 0 1 7.184-14.195 34.442 34.442 0 0 1-4.275 16.762c-2.764 5-6.788 9.332-8.723 14.707-1.531 4.252-1.645 8.86-2.225 13.342-1.506 11.651-6.252 23.01-5.301 34.719.227 2.796.78 5.577.684 8.381-.014.409-.043.822.039 1.223.041.2.11.396.217.57.106.175.251.327.428.43.204.119.445.168.682.16.236-.008.469-.071.688-.16.633-.259 1.154-.742 1.561-1.293.406-.551.707-1.169 1-1.785 2.916-6.04 5.678-12.159 8.381-18.301 4.956-11.262 9.716-22.617 13.854-34.21a340.603 340.603 0 0 0 3.592-10.605 76.05 76.05 0 0 1-3.078 17.275c-3.75 12.469-10.64 23.777-14.881 36.09-1.6 4.645-2.815 9.412-3.934 14.195-2.358 10.09-4.29 20.276-7.01 30.27-1.962 7.207-4.351 14.424-4.447 21.893-.048 3.725.48 7.432 1.027 11.12A956.644 956.644 0 0 0 389 453.874a974.812 974.812 0 0 0 4.959-11.459c5.241-12.325 10.237-24.781 14.03-37.627 4.283-14.525 7-29.482 11.459-43.955 2.409-7.823 5.318-15.481 7.867-23.26a264.666 264.666 0 0 0 8.04-30.615 56.372 56.372 0 0 1-8.039.342 131.333 131.333 0 0 1-4.617 20.867 24.618 24.618 0 0 1-.686-11.459 24.523 24.523 0 0 1 3.592-9.06 4.413 4.413 0 0 1-2.484.082 4.43 4.43 0 0 1-2.133-1.279c-.955-1.039-1.348-2.457-1.881-3.764a16.897 16.897 0 0 0-2.395-4.104 56.198 56.198 0 0 0-4.789 8.551 56.23 56.23 0 0 0-4.105 13.34 33.878 33.878 0 0 1 1.369-15.563c.782-2.347 1.819-4.603 2.639-6.938.82-2.334 1.426-4.789 1.295-7.26-.15-2.831-1.258-5.522-2.566-8.04a49.503 49.503 0 0 0-5.643-8.553 5.292 5.292 0 0 0-1.883 1.883 5.342 5.342 0 0 0-.342 4.617 6.177 6.177 0 0 1-2.248-3.242 6.181 6.181 0 0 1 .195-3.941 6.154 6.154 0 0 1 1.711-2.395 11.146 11.146 0 0 0-1.711-4.789 11.114 11.114 0 0 0-2.736-2.906m76.947 9.207a102.402 102.402 0 0 1-12.89 15.174 124.84 124.84 0 0 1-2.611 13.705c-1.14 4.576-2.538 9.09-4.078 13.543a221.377 221.377 0 0 1-4.568 12.07 139.718 139.718 0 0 1 2.121 23.984 582.438 582.438 0 0 1 5.873-12.563c4.556-9.45 9.375-18.793 13.217-28.555 2.373-6.03 4.385-12.294 4.732-18.764a37.64 37.64 0 0 0-.328-7.342 7.946 7.946 0 0 0-2.936 1.469c-1.559 1.24-2.588 3.01-3.59 4.732a595.894 595.894 0 0 1-3.752 6.363 36.877 36.877 0 0 1 2.773-10.117c.838-1.923 1.87-3.814 3.426-5.221a9.307 9.307 0 0 1 2.938-1.795 46.867 46.867 0 0 0-.326-6.689m-16.734 18.916a319.296 319.296 0 0 0-9.949 8.084 301.989 301.989 0 0 0-1.711 11.193 32.87 32.87 0 0 1-1.398-12.282 23.85 23.85 0 0 0-5.597 2.332 332.429 332.429 0 0 1-2.799 11.971c-1.421 5.613-2.987 11.188-4.445 16.791a446.851 446.851 0 0 0-4.727 20.05 36.94 36.94 0 0 1 2.332 12.13c.077 3.577-.366 7.167 0 10.727.3 2.92 1.147 5.782 2.486 8.395a3527.586 3527.586 0 0 1 4.682-18.92c1.715-6.855 3.451-13.706 5.426-20.49 2.463-8.463 5.296-16.825 8.705-24.953 2.35-5.604 4.99-11.151 6.219-17.1.538-2.606.799-5.267.777-7.928M606.5 103.27c-.377-.001-.754-.006-1.131.012-3.13.15-6.23 1.341-8.537 3.461-1.665 1.53-2.89 3.502-3.699 5.613-.809 2.111-1.212 4.362-1.377 6.617-.52 7.105 1.293 14.15 2.076 21.23.357 3.226.499 6.497.035 9.709-.464 3.212-1.559 6.376-3.496 8.98-1.834 2.465-4.394 4.408-5.77 7.154-1.205 2.407-1.365 5.308-.461 7.844.314.88.747 1.713 1.09 2.582.343.869.596 1.795.525 2.727-.057.75-.326 1.474-.721 2.113-.395.639-.913 1.197-1.488 1.682-1.15.969-2.509 1.65-3.791 2.436a26.47 26.47 0 0 0-7.846 7.383 11.18 11.18 0 0 1 4.615 3.691c.804 1.11 1.394 2.357 2.023 3.574.629 1.217 1.313 2.427 2.266 3.412 1.61 1.665 3.838 2.546 5.928 3.545 3.811 1.822 7.388 4.195 10.32 7.236 2.658 2.758 4.77 6.06 6 9.691.579 1.708.97 3.499 1.846 5.076a9.25 9.25 0 0 0 3 3.23 12.062 12.062 0 0 0 2.537-4.846c.635-2.461.472-5.073-.09-7.553-.562-2.479-1.509-4.852-2.447-7.215a1629.552 1629.552 0 0 1-9.23-23.766 38.22 38.22 0 0 1 7.846 9.691c2.179 3.84 3.709 8.08 6.461 11.537a20.103 20.103 0 0 0 6.922 5.537c.395-4.31.162-8.678-.691-12.922-1.599-7.947-5.309-15.282-8.77-22.613a417.596 417.596 0 0 1-6.23-13.844 36.334 36.334 0 0 1 9.691 11.998c.965 1.924 1.758 3.931 2.729 5.852.971 1.921 2.139 3.778 3.732 5.225a11.88 11.88 0 0 0 5.307 2.77 31.48 31.48 0 0 0-1.615-12.23c-1.781-5.215-4.891-9.853-7.383-14.768a67.142 67.142 0 0 1-6.23-18.689 84.937 84.937 0 0 1 9 13.844c1.724 3.32 3.321 6.876 6.229 9.23a11.904 11.904 0 0 0 8.77 2.537 170.396 170.396 0 0 0-4.615-17.07c-2.51-7.68-5.6-15.247-10.152-21.922a57.277 57.277 0 0 0-7.846-9.229 46.134 46.134 0 0 1 11.768 8.307c6.585 6.408 11.245 15.06 11.768 24.23.163 2.856-.067 5.724.133 8.578.2 2.854.88 5.777 2.637 8.04 1.651 2.122 4.083 3.458 6.23 5.076 1.452 1.095 2.792 2.335 4.275 3.387 1.484 1.052 3.151 1.924 4.955 2.15a7.202 7.202 0 0 0 5.537-1.615 46.391 46.391 0 0 1-5.076-6.229c-7.775-11.438-10.04-25.624-14.998-38.535-3.861-10.05-9.536-19.564-17.537-26.768-2.246-2.02-4.683-3.863-7.4-5.186-2.378-1.157-4.984-1.906-7.621-1.979m19.1 70.07a52.198 52.198 0 0 1 2.676 6.15c.472-.227.957-.426 1.453-.594.673-.228 1.373-.402 2.084-.398.711.003 1.437.196 1.992.639.342.273.611.632.813 1.021.201.389.338.808.447 1.232.219.848.33 1.729.658 2.541.409 1.012 1.132 1.862 1.859 2.676.728.814 1.482 1.626 1.977 2.6.536 1.054.741 2.246.852 3.424.111 1.178.136 2.366.348 3.529a11.29 11.29 0 0 0 4.316 6.953 11.551 11.551 0 0 1-6.713-5.04c-1.598-2.596-2.107-5.733-3.598-8.393-.975-1.74-2.346-3.228-3.836-4.555a19.085 19.085 0 0 0-1.225-1.01c.167.646.325 1.294.467 1.945.31 1.424.561 2.875.523 4.332-.038 1.457-.381 2.934-1.178 4.154-.746 1.143-1.918 2.041-3.262 2.283a4.29 4.29 0 0 1-3.105-.645 4.298 4.298 0 0 1-1.791-2.619 20.691 20.691 0 0 0-.652 4.568c-.059 1.987.192 3.996.869 5.863a7.031 7.031 0 0 1 3.119.309c.727.25 1.42.623 1.98 1.15.56.527.982 1.212 1.137 1.965.179.871-.003 1.77-.139 2.648-.068.439-.126.884-.119 1.328.007.445.079.892.258 1.299.243.552.668.999 1.084 1.436.416.436.839.887 1.074 1.441.27.637.27 1.359.168 2.043-.102.684-.299 1.35-.408 2.033a8.127 8.127 0 0 0 1.439 5.994c.835 1.146 1.955 2.047 3.074 2.918 1.119.871 2.262 1.738 3.16 2.836a9.034 9.034 0 0 1 2.02 5.473 9.039 9.039 0 0 1-1.781 5.557 13.105 13.105 0 0 0-2.396-9.35c-1.027-1.401-2.322-2.578-3.551-3.805-1.229-1.227-2.418-2.538-3.162-4.107-.664-1.401-.947-2.953-1.125-4.494-.178-1.541-.261-3.094-.555-4.617-.166-.862-.401-1.716-.783-2.506-.37-.765-.885-1.468-1.551-1.996.121 1.286-.003 2.598-.223 3.877a27.412 27.412 0 0 1-2.283 7.18 142.081 142.081 0 0 1 8.484 19.906c5.082 15 7.656 30.86 14.03 45.36a93.275 93.275 0 0 0 6.199 11.746 292.245 292.245 0 0 1 0-19.904c.252-7.425.777-14.972-.979-22.19-1.701-6.996-5.463-13.326-7.506-20.23-1.387-4.687-1.96-9.57-2.936-14.359a87.369 87.369 0 0 0-9.137-24.801 145.752 145.752 0 0 1 9.789 15.338c4.336 7.833 7.938 16.05 11.748 24.15a505.97 505.97 0 0 0 4.895 10.115 70.22 70.22 0 0 0 .326-19.252c-1.047-8.625-3.684-16.967-5.547-25.453-.812-3.698-1.479-7.434-2.561-11.06-1.081-3.628-2.6-7.178-4.945-10.15a21.877 21.877 0 0 0-3.59-3.588 22.718 22.718 0 0 0-7.506-3.916 23.022 23.022 0 0 0-7.18-.98m-15.01 39.16c.399 1.749.833 3.49 1.305 5.221.905 3.325 1.951 6.671 1.957 10.117.004 2.07-.371 4.129-.326 6.199.024 1.117.176 2.253.652 3.264.528 1.121 1.422 2.023 2.332 2.865.91.842 1.864 1.659 2.564 2.682.898 1.31 1.328 2.895 1.488 4.475.16 1.58.066 3.173-.008 4.76-.14 3.01-.198 6.03-.176 9.04a51.422 51.422 0 0 0-4.895-15.99c-1.431-2.882-3.166-5.669-5.549-7.832a17.364 17.364 0 0 0-5.221-3.264 492.984 492.984 0 0 1-.15 15.656 12.285 12.285 0 0 1 4.393 4.902c1.241 2.521 1.574 5.375 1.959 8.158 2.352 16.998 9.153 31.462 14.358 46.991 3.828 11.419 7.484 23.697 12.4 33.937a9.172 9.172 0 0 0 1.957-1.305c1.901-1.654 3.055-4.04 3.59-6.506.535-2.462.495-5.01.326-7.525-.555-8.248-2.475-16.334-3.916-24.475-2.758-15.583-3.793-31.55-8.484-46.664-3.787-12.202-9.912-23.691-12.398-36.22a63.936 63.936 0 0 1-.654-3.916 20.381 20.381 0 0 1-7.504-4.569m.653 66.57a22.904 22.904 0 0 1-5.221 11.09 22.877 22.877 0 0 1-3.916 3.59 29.55 29.55 0 0 1-.327 14.031 429.284 429.284 0 0 0 7.18 22.844c5.604 16.235 12.174 32.12 17.947 48.29a521.495 521.495 0 0 1 8.158 24.801 104.569 104.569 0 0 0 1.957-14.357c1.097-16.555-1.757-33.12-5.547-49.28-3.744-15.959-8.418-31.713-14.359-46.99a297.243 297.243 0 0 0-5.873-14.03m-11.1 32.957a134.506 134.506 0 0 1-6.526 9.139 1562.74 1562.74 0 0 1 10.768 37.2c5.478 19.843 10.568 39.812 14.359 60.04a480.174 480.174 0 0 1 4.568 29.369 127.885 127.885 0 0 0 4.242-19.58c.793-5.84 1.18-11.729 1.305-17.621a198.64 198.64 0 0 0-.326-16.316 182.09 182.09 0 0 1-6.525-14.03c-4.835-11.668-8.442-23.8-12.07-35.896a6851.9 6851.9 0 0 0-9.791-32.31m-9.789 14.359a14.371 14.371 0 0 1-2.938 3.59 14.395 14.395 0 0 1-5.221 2.936 174.786 174.786 0 0 0 3.59 10.117c1.563 4.01 3.275 7.969 4.568 12.07 3.537 11.226 3.835 23.17 4.568 34.916.438 7.01 1.045 14.04 2.611 20.885 1.024 4.476 2.455 8.859 3.264 13.379.775 4.332.974 8.763 1.957 13.05a36.632 36.632 0 0 0 4.568 11.1c.54-3.717 1.194-7.418 1.959-11.1 1.104-5.309 2.442-10.59 2.936-15.99.397-4.343.241-8.728-.326-13.05-1.311-10-4.782-19.572-7.178-29.369-3.124-12.774-4.432-25.995-8.484-38.506a91.44 91.44 0 0 0-5.875-14.03"/></g></g></svg>