<svg xmlns="http://www.w3.org/2000/svg" width="636.85" height="655.294"><path style="fill:#131516;fill-rule:evenodd;fill-opacity:1;stroke:none" d="m281.898 614.147-1.766-.192-1.804-.154-1.805-.192-1.766-.192-1.805-.192-1.766-.153-1.804-.192-1.767-.154-1.804-.192-1.766-.154-1.767-.192-1.804-.153-1.766-.154-1.767-.192-1.766-.153-5.529-.999-5.49-1.036-5.376-1.114-5.336-1.152-5.26-1.228L223 604.7l-2.61-.653-2.573-.69-2.573-.692-2.534-.73-2.572-.729-2.535-.768-2.534-.806-2.495-.768-2.534-.845-2.496-.844-2.534-.845-2.496-.883-2.496-.883-2.495-.922-2.496-.96-2.496-.96-2.534-.998-2.495-.998-2.496-1.037-2.496-1.075-4.108-2.035-3.225-1.574-2.688-1.344-2.419-1.229-2.457-1.305-2.803-1.46-3.417-1.842-4.377-2.343-3.686-2.303-3.648-2.304-3.609-2.342-3.532-2.342-3.494-2.42-3.418-2.38-3.417-2.457-3.34-2.458-3.34-2.534-3.264-2.496-3.264-2.572-3.225-2.611-3.187-2.611-3.148-2.65-3.11-2.687-3.11-2.726-3.916-4.032-3.072-3.148-2.496-2.611-2.15-2.266-2.112-2.265-2.265-2.534-2.764-3.072-3.456-3.878-2.342-3.033-2.304-3.033-2.227-3.034-2.227-3.033-2.15-3.033-2.112-3.034-2.073-3.033-1.997-3.033-1.996-3.034-1.92-3.071-1.92-3.034-1.843-3.071-1.766-3.11-1.766-3.11-1.728-3.11-1.65-3.149-1.153-2.534-1.113-2.534-1.152-2.534-1.113-2.496-1.114-2.534-1.113-2.534-1.114-2.535-1.113-2.534-.883-2.687-.883-2.688-.884-2.688-.844-2.65-.807-2.687-.806-2.65-.806-2.649-.768-2.649-.768-2.61-.691-2.65-.73-2.611-.652-2.611-.691-2.573-.615-2.572-.614-2.573-.576-2.572-.5-3.494-.46-3.072-.384-2.688-.345-2.38-.308-2.035-.268-1.805-.192-1.613-.192-1.42-.154-1.306-.153-1.19-.116-1.19-.115-1.152-.153-1.19-.116-1.306-.115-1.42-.115-1.575-2.15-53.524-1.843-46.92-1.613-40.892L7.295 193.9l-1.229-30.449-.998-26.07-.883-22.155-.73-18.853-.614-16.088-.499-13.822-.46-12.172-.385-10.981-.384-10.367-.345-10.329-.384-10.789L0 0h597.047l-.921 23.537-.922 23.537-.921 23.537-.96 23.575-.922 23.537-.921 23.536-.922 23.537-.921 23.537-.922 23.537-.921 23.575-.922 23.537-.96 23.537-.92 23.537-.922 23.537-.922 23.537-.921 23.575-.384 2.687-.384 2.688-.384 2.688-.384 2.726-.384 2.688-.346 2.726-.384 2.726-.384 2.726-.921 4.032-.96 3.993-.998 3.993-1.075 3.993-1.152 3.994-1.152 3.954-1.229 3.955-1.305 3.955-1.306 3.916-1.42 3.955-1.42 3.917-1.498 3.916-1.574 3.878-1.613 3.916-1.651 3.878-1.728 3.878-1.305 2.343-1.306 2.38-1.305 2.342-1.306 2.38-1.305 2.382-1.305 2.38-1.306 2.38-1.305 2.381-1.498 2.304-1.536 2.304-1.535 2.265-1.536 2.227-1.574 2.227-1.575 2.189-1.574 2.15-1.612 2.188-1.613 2.112-1.651 2.112-1.651 2.112-1.69 2.073-1.689 2.074-1.69 2.035-1.727 2.035-1.728 2.035-1.766 1.996-1.766 1.997-1.805 1.958-1.804 1.997-1.843 1.92-1.843 1.958-1.843 1.92-1.882 1.92-1.92 1.919-1.92 1.881-1.919 1.92-1.958 1.882-3.955 3.724-4.07 3.724-2.61 1.92-2.573 1.958-2.611 1.959-2.572 1.996-2.573 1.958-2.572 1.959-2.573 1.996-2.572 1.958-4.147 2.611-4.147 2.573-4.185 2.496-4.185 2.457-4.223 2.38-4.186 2.343-4.261 2.265-4.224 2.227-4.262 2.189-4.3 2.112-4.3 2.073-4.339 1.997-4.377 1.958-4.377 1.881-4.416 1.843-4.453 1.766-3.84 1.23-3.84 1.19-3.8 1.113-3.84 1.113-3.801 1.075-3.801 1.037-3.802.998-3.8.96-3.802.922-3.801.883-3.801.845-3.801.806-3.801.768-3.763.73-3.801.69-3.801.692-3.648.384-3.648.345-3.647.307-3.648.27-3.647.268-3.648.23-3.609.192-3.647.154-3.61.153-3.609.116-3.609.115-3.61.077-3.608.076-3.571.039-3.61.038-3.57.039z"/><path style="fill:#da251d;fill-rule:evenodd;fill-opacity:1;stroke:none" d="m285.316 600.631-2.842-.23-2.534-.192-2.188-.154-1.997-.153-1.766-.154-1.613-.115-1.497-.115-1.459-.154-1.459-.153-1.46-.116-1.535-.192-1.69-.153-1.804-.192-2.073-.23-2.304-.27-3.225-.575-3.187-.615-3.148-.614-3.11-.614-3.11-.653-3.072-.653-3.033-.73-2.995-.69-2.995-.73-2.956-.768-2.957-.768-2.918-.806-2.918-.845-2.88-.845-2.88-.844-2.879-.922-2.841-.921-2.88-.96-2.803-.96-2.84-1.037-2.842-1.037-2.803-1.036-2.841-1.114-2.803-1.113-2.803-1.152-2.841-1.19-2.803-1.229-2.841-1.229-2.803-1.305-2.841-1.306-2.88-1.344-2.841-1.382-1.69-.921-1.69-.922-1.689-.96-1.689-.921-1.65-.922-1.69-.921-1.69-.922-1.69-.921-2.764-1.728-2.687-1.766-2.65-1.767-2.61-1.766-2.611-1.766-2.534-1.805-2.496-1.766-2.457-1.843-2.458-1.804-2.38-1.843-2.38-1.882-2.343-1.843-2.303-1.92-2.304-1.881-2.266-1.958-2.226-1.959-2.189-1.958-2.227-1.996-2.15-1.997-2.15-2.073-2.15-2.035-2.112-2.112-2.112-2.112-2.112-2.15-2.073-2.189-2.073-2.188-2.074-2.227-2.035-2.266-2.073-2.303-2.035-2.343-2.035-2.38-2.035-2.38-2.265-3.188-2.227-3.186-2.189-3.187-2.15-3.187-2.073-3.225-2.073-3.226-1.997-3.225-1.958-3.264-1.92-3.263-1.843-3.264-1.843-3.34-1.728-3.303-1.727-3.34-1.651-3.34-1.613-3.38-1.536-3.417-1.497-3.417-1.42-3.417-1.345-3.456-1.344-3.494-1.228-3.494-1.19-3.532-1.152-3.571-1.037-3.571-.998-3.61-.922-3.608-.883-3.648-.768-3.686-.73-3.725-.652-3.724-.614-3.763-.5-3.801H567.407l-.653 3.456-.652 3.417-.73 3.379-.73 3.417-.806 3.379-.806 3.379-.883 3.34-.883 3.34-.96 3.341-.998 3.34-.999 3.38-1.075 3.34-1.113 3.34-1.152 3.34-1.19 3.341-1.19 3.38-1.383 2.994-1.42 3.033-1.421 2.995-1.497 2.995-1.498 2.957-1.574 2.995-1.574 2.956-1.613 2.957-1.65 2.956-1.69 2.918-1.728 2.918-1.728 2.88-1.804 2.88-1.805 2.841-1.843 2.841-1.843 2.842-2.534 3.34-2.61 3.302-2.612 3.264-2.61 3.187-2.688 3.148-2.688 3.072-2.726 3.033-2.765 2.995-2.802 2.918-2.842 2.88-2.84 2.841-2.919 2.803-2.918 2.726-2.956 2.688-2.995 2.65-3.072 2.572-3.072 2.572-3.11 2.496-3.148 2.458-3.187 2.419-3.225 2.38-3.302 2.342-3.302 2.304-3.34 2.265-3.418 2.227-3.455 2.189-3.494 2.15-3.494 2.112-3.61 2.073-3.608 2.035-3.648 1.997-3.724 1.997-3.571 1.612-3.61 1.574-3.57 1.498-3.57 1.497-3.61 1.46-3.57 1.42-3.61 1.382-3.57 1.344-3.61 1.306-3.609 1.267-3.61 1.228-3.608 1.152-3.61 1.152-3.609 1.075-3.647 1.037-3.648.998-3.378.73-3.418.69-3.378.692-3.38.614-3.34.615-3.378.537-3.34.538-3.341.537-3.34.461-3.303.46-3.34.423-3.34.423-3.302.384-3.34.383-3.303.346-3.34.346-1.766.038-1.767.038h-1.766l-1.766.039-1.766.038-1.728.039-1.766.038-1.766.038-1.728.039-1.766.038-1.766.039-1.728.038-1.766.038-1.728.039-1.766.038-1.728.039z"/><path style="fill:#fff;fill-rule:evenodd;fill-opacity:1;stroke:none" d="m28.643 378.471-.115-1.267-.115-1.613-.154-2.227-.154-3.148-.23-4.224-.269-5.644-.307-7.257-.384-9.177-.46-11.326-.577-13.746-.69-16.395-.769-19.314-.921-22.5-1.075-25.956-1.19-29.603h34.632l34.633-.038h34.67l34.633-.039h34.671l34.633-.038h34.67l34.633-.039h34.671l34.671-.038h103.975l34.67-.038H575.7l-.422 10.366-.422 10.33-.423 10.328-.422 10.328-.422 10.367-.384 10.329-.423 10.328-.422 10.367-.422 10.329-.423 10.328-.422 10.329-.384 10.367-.422 10.328-.384 10.33-.423 10.366-.384 10.329-.153 1.151-.115 1.152-.115 1.152-.116 1.152-.115 1.19-.115 1.152-.077 1.19-.115 1.19H28.758z"/><path style="fill:#131516;fill-rule:evenodd;fill-opacity:1;stroke:none" d="m125.054 360.809-3.648-8.37-3.61-8.371-3.647-8.332-3.647-8.37-3.648-8.37-3.647-8.333-3.648-8.37-3.647-8.332-3.648-8.37-3.648-8.332-3.609-8.37-3.647-8.333-3.648-8.37-3.647-8.332-3.648-8.332-1.267-1.766-1.19-1.574-.576-.692-.538-.652-.537-.615-.538-.576-.537-.499-.538-.46-.499-.461-.538-.384-.499-.384-.537-.346-.538-.307-.537-.269-.538-.268-.537-.23-.576-.193-.576-.23-1.229-.307-1.305-.307-2.918-.538-3.456-.5v-8.331h63.698v8.332l-1.997.115-1.92.192-.92.077-.922.153-.922.116-.883.192-.883.192-.845.23-.844.269-.845.307-.845.345-.806.384-.845.423-.806.46-.307.461-.307.5-.23.537-.193.537-.153.576-.077.615-.077.652-.038.615v.69l.038.692.038.691.116.73.115.73.115.729.192.73.154.767.422 1.498.46 1.497.5 1.498.499 1.42 1.037 2.726.844 2.343 2.189 4.953 2.15 4.953 2.188 4.953 2.15 4.953 2.19 4.953 2.15 4.953 2.188 4.992 2.188 4.953 2.15 4.953 2.189 4.991 2.189 4.953 2.15 4.954 2.188 4.991 2.189 4.953 2.188 4.992 2.189 4.953 2.342-5.76 2.38-5.797 2.42-5.798 2.38-5.798 2.419-5.798 2.419-5.798 2.38-5.798 2.38-5.836 2.343-5.798 2.342-5.797 2.304-5.798 2.227-5.798 2.188-5.798 2.15-5.76 2.074-5.759 1.996-5.76-.038-.959-.039-.883-.115-.806-.153-.768-.154-.73-.192-.653-.269-.614-.269-.576-.307-.5-.345-.498-.346-.423-.422-.384-.422-.384-.423-.307-.499-.307-.5-.269-.498-.23-.538-.23-.576-.192-.576-.192-1.228-.308-1.306-.268-2.726-.461-2.88-.5v-8.331H208.795v8.332l-1.997.46-1.804.461-1.651.461-1.498.5-.69.268-.654.269-.652.269-.576.307-.615.307-.537.307-.538.346-.499.345-.537.384-.461.423-.46.422-.462.422-.46.5-.461.499-.422.537-.423.576-.883 1.267-.883 1.382-.883 1.575-.96 1.727-3.417 8.102-3.417 8.102-3.38 8.063-3.416 8.101-3.379 8.14-3.379 8.102-3.379 8.102-3.34 8.14-3.379 8.14-3.34 8.14-3.379 8.178-3.34 8.178-3.38 8.179-3.34 8.178-3.378 8.217-3.34 8.217-.922.115-.883.077-.883.115-.884.115-.883.115-.883.115-.883.116-.883.153zM401.193 368.066V360.502l3.724.038 3.456-.038.844-.039.807-.038.806-.077.768-.115.73-.115.729-.154.73-.154.69-.23.653-.23.653-.27.614-.345.576-.345.576-.423.538-.46.537-.5.46-.575.462-.615.46-.653.384-.729.384-.806.346-.883.307-.922.269-.998.269-1.075V235.522l-.346-1.19-.346-1.114-.345-1.036-.384-.922-.422-.883-.384-.768-.461-.73-.422-.614-.461-.576-.5-.537-.498-.461-.538-.422-.538-.346-.575-.307-.576-.269-.615-.192-.652-.192-.653-.153-.691-.116-.691-.115-1.498-.115-1.612-.038-3.533-.039-4.031-.115v-8.639l3.878.038h3.878l3.877.039 3.878.038 3.878.038h3.878l3.878.039 3.917.038 3.877.039 3.878.038 3.917.038 3.878.039 3.916.038 3.878.077 3.916.038 3.878.039 5.068.345 4.953.384 2.42.192 2.38.27 2.342.268 2.342.307 2.265.384 2.227.384 2.15.46 2.15.538 2.074.576 2.035.691 1.958.73 1.92.806 1.843.922 1.804.998 1.728 1.113 1.651 1.23 1.613 1.305 1.535 1.42 1.46 1.575 1.343 1.689 1.306 1.805 1.228 1.996 1.152 2.074 1.075 2.265.96 2.419.883 2.572.807 2.727.73 2.918V261.67l-.423 1.804-.461 1.728-.5 1.69-.537 1.612-.576 1.536-.614 1.498-.691 1.42-.691 1.383-.768 1.343-.806 1.268-.845 1.228-.883 1.19-.922 1.114-.96 1.113-.998 1.037-1.075.998-1.075.999-1.152.921-1.19.883-1.19.883-1.267.845-1.306.807-1.344.767-1.42.768-1.42.73-1.46.691-1.497.691-1.574.691-1.575.653-1.65.614-1.69.653-1.69.614.96 1.69.999 1.728 1.036 1.69 1.075 1.727 2.189 3.417 2.265 3.417 2.342 3.418 2.42 3.417 2.495 3.417 2.572 3.38 2.573 3.416 2.65 3.38 2.687 3.34 2.688 3.34 2.764 3.302 2.726 3.302 2.765 3.264 2.764 3.264 1.766 1.267 1.69 1.228 1.727 1.114 1.728 1.075.883.538.922.499.921.537.999.5 1.036.499 1.075.499 1.114.499 1.19.499 1.459.269 1.497.307 1.498.307 1.497.307 1.536.307 1.498.308 1.497.307 1.536.345v8.217l-2.726-.038h-2.765l-2.726-.039-2.726-.038h-2.726l-2.726-.038h-2.726l-2.726-.039h-2.688l-2.726-.038h-2.726l-2.726-.039h-2.726l-2.688-.038-2.726-.038h-2.726l-2.995-4.186-2.995-4.146-2.994-4.186-2.995-4.146-2.957-4.147-2.995-4.185-2.994-4.147-2.995-4.147-2.995-4.147-2.995-4.147-2.995-4.146-2.995-4.185-2.956-4.147-2.995-4.147-2.995-4.147-2.995-4.147-.422-.73-.345-.69-.346-.691-.346-.692H447.69v6.989l.039 6.105v9.983l.038 3.993v3.417l.039 2.918v2.496l.038 2.15v1.881l.038 1.69.039 1.536.038 1.459.039 1.497.076 1.575.039 1.727.422 1.69.346 1.574.192.73.23.73.23.69.308.691.345.653.422.614.23.308.231.307.307.307.27.269.345.268.345.308.384.268.423.27.422.23.46.268.538.27.538.23 1.497.23 1.229.153 1.152.154 1.267.077 1.497.077 1.881.076 2.496.039 3.225.077v8.677h-68.151zM299.637 365.877l-.921-2.956-.883-2.919-.922-2.956-.883-2.957-.922-2.956-.883-2.918-.921-2.957-.922-2.956-.883-2.918-.921-2.957-.883-2.918-.922-2.956-.921-2.919-.883-2.918-.922-2.956-1.152.614-1.843.998-2.495 1.344-2.957 1.613-3.379 1.805-3.647 1.996-3.84 2.035-3.954 2.074-3.878 2.073-3.763 1.958-3.494 1.805-3.148 1.612-2.727 1.344-2.111.999-.845.345-.653.269-.46.115-.23.039 1.497-2.688 1.497-2.65 1.497-2.687 1.498-2.688 1.497-2.65 1.498-2.687 1.497-2.65 1.498-2.687 1.459-2.65 1.497-2.687 1.497-2.65 1.498-2.687 1.497-2.65 1.498-2.649 1.497-2.65 1.497-2.687-.268-.307-.192-.23-2.995-.884-2.995-.844-3.033-.883-2.995-.845-3.033-.883-2.995-.845-3.033-.845-2.995-.883-2.995-.845-3.033-.844-2.995-.883-3.033-.845-2.995-.845-3.033-.845-2.995-.844-2.995-.845 3.57-1.075 3.188-.998 2.84-.845 2.573-.768 2.38-.73 2.266-.652 2.189-.653 2.227-.653 2.342-.69 2.457-.692 2.726-.806 2.995-.845 3.379-.96 3.8-1.075 4.34-1.229 4.876-1.382.115-.23.153-.192.154-.192.154-.154-2.227-3.878-1.997-3.417-1.728-3.072-1.574-2.688-1.382-2.457-1.267-2.227-1.19-2.112-1.152-1.996-1.114-1.997-1.152-2.073-1.19-2.15-1.267-2.343-1.382-2.534-1.574-2.88-1.728-3.225-1.997-3.647 7.526 3.954 6.565 3.456 5.721 3.033 4.877 2.573 4.185 2.188 3.494 1.805 2.88 1.536 2.38 1.19 1.843.96 1.459.768 1.152.538.844.422.615.269.499.192.384.153.384.115 2.111-7.103 1.882-6.182 1.612-5.413 1.383-4.646 1.19-3.994 1.037-3.378.844-2.88.73-2.38.614-1.997.538-1.69.46-1.42.384-1.19.346-1.114.384-1.037.345-1.037.423-1.151.883 2.88.883 2.879.883 2.88.883 2.918.883 2.88.883 2.88.883 2.879.883 2.88.884 2.918.921 2.88.883 2.88.883 2.917.922 2.88.883 2.918.921 2.88.883 2.918.346.23.346.346 7.064-3.801 6.22-3.302 5.414-2.88 4.646-2.458 3.993-2.111 3.34-1.767 2.765-1.459 2.304-1.228 1.88-.96 1.498-.768 1.229-.614.998-.5.807-.384.69-.307.692-.307.691-.307-1.497 2.688-1.536 2.687-1.498 2.65-1.497 2.687-1.536 2.688-1.497 2.688-1.498 2.688-1.497 2.687-1.498 2.688-1.497 2.688-1.497 2.726-1.498 2.688-1.497 2.687-1.498 2.688-1.497 2.688-1.498 2.688 3.072.883 3.033.921 3.072.883 3.033.884 3.072.883 3.033.883 3.072.883 3.071.883 3.034.883 3.071.883 3.072.883 3.071.883 3.072.884 3.033.883 3.072.883 3.11.883-3.11.883-3.072.883-3.033.883-3.072.922-3.071.883-3.072.883-3.071.921-3.034.884-3.071.921-3.072.883-3.033.922-3.072.883-3.033.921-3.072.883-3.033.922-3.072.883 1.498 2.688 1.497 2.65 1.498 2.648 1.497 2.65 1.498 2.687 1.497 2.65 1.497 2.688 1.498 2.649 1.497 2.688 1.498 2.649 1.497 2.688 1.536 2.649 1.497 2.688 1.498 2.687 1.536 2.65 1.497 2.688-.307.153-.23.192-2.765-1.497-2.765-1.46-2.764-1.458-2.764-1.46-2.765-1.497-2.726-1.459-2.764-1.46-2.765-1.458-2.764-1.46-2.726-1.458-2.765-1.42-2.726-1.46-2.764-1.459-2.726-1.459-2.765-1.46-2.726-1.458-2.534 8.217-2.189 7.218-1.881 6.22-1.651 5.376-1.382 4.53-1.19 3.763-.96 3.11-.768 2.496-.615 1.958-.46 1.46-.346 1.075-.269.729-.153.46-.154.27-.077.115-.076.077z"/><path style="fill:#da251d;fill-rule:evenodd;fill-opacity:1;stroke:none" d="m127.588 357.66-3.38-7.794-3.378-7.756-3.34-7.795-3.38-7.794-3.378-7.756-3.34-7.794-3.38-7.757-3.378-7.794-3.34-7.756-3.379-7.794-3.34-7.756-3.38-7.795-3.34-7.756-3.34-7.756-3.34-7.794-1.267-2.534-1.152-2.304-1.075-2.112-1.037-1.881-.538-.845-.537-.845-.5-.768-.537-.73-.537-.69-.538-.653-.576-.614-.576-.576-.614-.538-.614-.5-.653-.498-.691-.461-.73-.422-.73-.384-.806-.384-.806-.384-.883-.307-.921-.346-.999-.307-1.036-.269-1.075-.307-1.152-.269-1.19-.269-1.268-.23v-.806l3.494.038h3.494l3.494.038 3.533.039h3.494l3.494.038h3.532l3.494.039h3.532l3.494.038h3.533l3.494.038h3.532l3.494.039 3.532.038h3.494v.461l-1.804.269-1.651.307-1.574.345-1.421.384-1.305.384-1.19.423-1.076.46-.96.5-.883.537-.768.576-.652.576-.576.614-.5.692-.383.69-.308.769-.268.768-.154.806-.115.883-.039.883.039.96.077.998.153 1.037.192 1.075.23 1.152.308 1.19.307 1.229.345 1.267.423 1.344.845 2.803.921 3.033 2.457 5.606 2.458 5.644 2.419 5.606 2.457 5.644 2.457 5.606 2.457 5.606 2.458 5.644 2.457 5.606 2.457 5.644 2.458 5.606 2.457 5.644 2.457 5.606 2.496 5.606 2.457 5.644 2.458 5.606 2.457 5.644 6.335-15.435 5.529-13.554 4.838-11.75 4.146-10.097 3.494-8.64 2.995-7.295 2.458-6.028 2.035-5.03 1.65-4.031 1.306-3.302 1.037-2.611.844-2.15.653-1.728.576-1.536.538-1.46.537-1.497.384-1.804.346-1.651.268-1.536.192-1.42.039-.692.038-.653.038-.614v-.614l-.038-.576-.038-.576-.115-.538-.116-.537-.115-.5-.192-.537-.23-.5-.23-.46-.308-.5-.307-.46-.384-.46-.384-.461-.46-.461-.5-.46-.537-.462-.576-.499-.653-.46-.653-.461-.73-.5-.805-.46-.922-.269-.921-.269-.883-.23-.884-.23-.921-.27-.883-.23-.883-.23-.883-.192v-.461h2.572l2.611-.038 2.573-.039h2.61l2.573-.038h2.61l2.573-.038h2.611l2.611-.039h2.573l2.61-.038h2.611l2.611-.039 2.573-.038h2.61l2.611-.038-.153.268-.154.308-.153.345-.077.307-1.075.346-.96.307-.96.307-.883.346-.883.345-.806.346-.768.345-.73.384-.691.384-.653.384-.614.423-.614.422-.576.46-.538.462-.537.499-.5.46-.499.538-.499.538-.46.576-.5.575-.883 1.23-.921 1.305-1.882 2.995-2.111 3.455-3.264 7.871-3.225 7.872-3.225 7.87-3.264 7.872-3.225 7.871-3.225 7.91-3.226 7.871-3.225 7.871-3.225 7.871-3.225 7.872-3.225 7.87-3.226 7.872-3.225 7.871-3.225 7.91-3.225 7.871-3.225 7.871-.576.23-.615.27-.576.268-.576.23zM411.751 364.687v-.346l1.037-.269.998-.268.96-.27.883-.306.845-.307.768-.308.73-.345.652-.384.653-.346.576-.422.537-.384.538-.46.46-.423.423-.5.422-.498.346-.538.345-.538.308-.575.307-.615.269-.614.23-.653.23-.691.23-.73.193-.73.384-1.612.345-1.728.346-1.881.345-2.035V239.669l-.153-1.306-.154-1.228-.192-1.152-.153-1.114-.192-1.075-.23-.96-.231-.96-.23-.844-.27-.845-.306-.768-.308-.73-.345-.69-.346-.653-.384-.576-.422-.576-.46-.5-.462-.499-.537-.46-.538-.423-.614-.422-.614-.384-.653-.345-.73-.346-.767-.307-.768-.307-.845-.27-.921-.306-.922-.27-2.073-.498-2.266-.5 4.646-.191 4.646-.154 4.646-.154 4.684-.115 4.684-.115 4.723-.038 4.723-.039h4.722l4.723.077 4.722.115 4.761.192 4.723.23 4.723.308 4.722.384 2.342.192 2.381.23 2.342.269 2.342.269 2.266.46 2.188.5 1.075.268 1.075.307 1.037.346 1.037.307 1.036.384.998.384.999.422.998.423.96.46.96.461.921.538.922.537.921.538.922.614.883.615.845.69.883.692.844.691.807.768.844.806.807.845.768.845.767.921.768.96.768.998.73.999.69 1.075.73 1.113.308.807.307.844.307.807.269.883.499 1.728.499 1.804.422 1.92.384 1.958.346 2.074.345 2.111-.153 2.15-.269 2.036-.307 1.996-.423 1.882-.46 1.804-.538 1.766-.576 1.652-.69 1.612-.73 1.536-.807 1.459-.844 1.382-.96 1.344-.999 1.267-1.036 1.229-1.114 1.152-1.19 1.113-1.229 1.037-1.305.998-1.344.96-1.382.922-1.46.844-1.535.845-1.536.768-1.65.768-1.652.691-1.727.691-1.767.653-1.804.614-1.843.615-1.92.537-1.92.576-1.996.5 3.186 4.607 2.842 4.07 2.534 3.61 2.265 3.224 2.074 2.918 1.92 2.727 1.804 2.572 1.804 2.534 1.843 2.534 1.882 2.65 2.035 2.803 2.227 3.071 2.495 3.38 2.803 3.839 3.11 4.3 3.571 4.877 1.805 1.88 1.766 1.729.844.806.845.806.806.73.845.691.806.691.807.653.844.614.807.615.844.576.807.537.883.538.845.499.883.499.883.46.921.461.96.423.96.46.998.385 1.037.422 1.075.384 2.227.806 2.38.768 2.573.73 2.764.806-2.38-.038h-2.38l-2.42-.039h-4.76l-2.42-.038h-23.804l-3.072-4.339-3.072-4.3-3.071-4.3-3.072-4.34-3.072-4.3-3.071-4.3-3.072-4.3-3.072-4.301-3.071-4.3-3.072-4.3-3.071-4.301-3.072-4.3-3.072-4.3-3.033-4.301-3.072-4.3-3.033-4.263-2.38-.076-2.342-.077-2.38-.077-2.343-.038-2.342-.077-2.342-.039-2.304-.038-2.342-.038.038 3.417v3.417l.039 3.38.038 3.416.038 3.418v3.417l.039 3.417.038 3.417.039 3.418.038 3.417.038 3.417.039 3.417.038 3.418.077 3.455.038 3.418.039 3.417.422 1.843.423 1.612.23.73.23.691.23.653.231.614.269.576.23.538.307.499.27.46.306.461.346.423.345.384.346.345.422.346.423.345.46.308.461.307.538.268.537.27.576.268.614.269 1.383.499 1.535.5 1.728.537 1.958.537v.653H411.751zM299.83 350.71l-.73-2.418-.692-2.381-.69-2.38-.73-2.381-.691-2.419-.691-2.38-.73-2.381-.691-2.38-.691-2.381-.691-2.38-.691-2.381-.73-2.381-.691-2.38-.691-2.381-.691-2.38-2.342 1.036-2.304 1.114-2.304 1.113-2.304 1.113-2.303 1.19-2.266 1.191-2.265 1.19-2.265 1.229-2.266 1.229-2.226 1.228-2.227 1.229-2.227 1.229-2.189 1.19-2.188 1.229-2.189 1.19-2.188 1.152 1.19-2.15 1.228-2.189 1.19-2.15 1.23-2.189 1.19-2.15 1.228-2.188 1.19-2.15 1.23-2.19 1.228-2.15 1.19-2.188 1.229-2.15 1.228-2.189 1.229-2.15 1.229-2.189 1.19-2.15 1.229-2.188-.308-.154-.345-.153-.423-.154-.537-.192-.73-.269-.96-.307-1.266-.384-1.613-.46-2.035-.577-2.534-.73-3.033-.882-3.61-.999-4.261-1.228-4.953-1.382-5.721-1.613-6.527-1.843 2.418-.691 2.42-.691 2.457-.692 2.419-.69 2.418-.692 2.458-.69 2.419-.692 2.457-.691 2.419-.691 2.457-.691 2.419-.692 2.457-.69 2.42-.692 2.457-.653 2.457-.69 2.419-.692-1.229-2.15-1.19-2.189-1.229-2.15-1.228-2.188-1.19-2.15-1.23-2.15-1.19-2.19-1.228-2.15-1.19-2.188-1.19-2.15-1.23-2.15-1.19-2.15-1.19-2.15-1.19-2.19-1.229-2.15-1.19-2.15.768.423 1.344.73 1.881.997 2.304 1.23 2.687 1.458 2.88 1.536 3.11 1.651 3.149 1.651 3.148 1.651 3.072 1.574 2.88 1.498 2.61 1.267 2.265 1.075 1.805.806.691.269.576.192.422.077h.23l.692-2.342.691-2.304.73-2.342.69-2.342.692-2.343.73-2.342.69-2.342.73-2.342.691-2.342.73-2.304.69-2.342.73-2.342.73-2.343.69-2.342.73-2.342.73-2.342.69 2.38.73 2.381.73 2.38.73 2.381.729 2.38.73 2.381.729 2.38.73 2.381.729 2.381.73 2.38.729 2.381.73 2.38.729 2.381.73 2.38.767 2.381.73 2.38 2.188-1.19 2.227-1.19 2.227-1.228 2.189-1.19 2.227-1.19 2.188-1.191 2.227-1.19 2.189-1.152 2.227-1.19 2.227-1.19 2.188-1.191 2.227-1.19 2.189-1.152 2.227-1.19 2.226-1.19 2.189-1.153-.883 2.15-.96 2.15-1.037 2.15-1.075 2.19-1.152 2.188-1.19 2.189-1.228 2.15-1.23 2.188-1.305 2.189-1.267 2.188-1.305 2.15-1.305 2.15-1.306 2.151-1.267 2.15-1.229 2.112-1.228 2.112 2.419.73 2.419.69 2.418.692 2.42.69 2.418.692 2.42.69 2.418.692 2.419.73 2.457.69 2.42.692 2.418.73 2.419.69 2.419.692 2.419.73 2.419.69 2.419.73-2.458.691-2.419.653-2.457.69-2.419.692-2.419.691-2.457.653-2.419.691-2.419.691-2.419.691-2.419.691-2.457.691-2.419.692-2.419.69-2.419.692-2.419.73-2.418.69.076.27.116.306.153.346.192.5.346.614.46.883.615 1.113.806 1.46.998 1.804 1.267 2.227 1.536 2.688 1.843 3.225 2.15 3.763 2.534 4.415 2.918 5.068 3.302 5.798h-.345l-.154.039-.153.076-2.227-1.19-2.227-1.152-2.189-1.152-2.188-1.151-2.227-1.152-2.189-1.152-2.188-1.152-2.189-1.152-2.227-1.152-2.188-1.152-2.189-1.152-2.188-1.152-2.189-1.151-2.188-1.152-2.189-1.152-2.188-1.114-.73 2.38-.73 2.381-.729 2.381-.73 2.38-.729 2.381-.73 2.38-.729 2.381-.73 2.38-.729 2.381-.691 2.38-.73 2.42-.73 2.38-.69 2.381-.73 2.38-.73 2.42-.69 2.38z"/><path style="fill:#131516;fill-rule:evenodd;fill-opacity:1;stroke:none" d="m443.85 292.617-.346-.153V226.537l3.34-.384 3.264-.384 3.187-.384 3.11-.307 1.536-.115 1.536-.077 1.497-.076 1.498-.039 1.459.039 1.459.038 1.459.077 1.42.153 1.421.192 1.42.23 1.421.308 1.382.384 1.383.422 1.382.5 1.382.575 1.344.653 1.344.73 1.344.806 1.343.921 1.306.999 1.344 1.075 1.305 1.19 1.306 1.305 1.305 1.383.998 2.188.922 2.15.883 2.112.768 2.112.384 1.037.345 1.036.346 1.037.307 1.037.269 1.037.23 1.075.23 1.036.193 1.075.153 1.037.115 1.075.077 1.075.039 1.114.038 1.113-.038 1.114-.077 1.113-.115 1.152-.154 1.152-.23 1.19-.23 1.19-.308 1.23-.384 1.266-.384 1.229-.46 1.306-.538 1.305-.845 1.267-.845 1.19-.806 1.114-.845 1.075-.844 1.037-.845.96-.845.921-.844.845-.883.844-.845.768-.883.73-.883.691-.922.653-.921.614-.922.576-.96.538-.96.499-.998.499-.998.46-1.037.461-1.075.423-1.075.384-1.113.384-1.152.345-2.38.691-2.496.653-2.65.653-2.803.614-2.073.039-2.073.076-2.035.039-2.074.077-2.034.076-2.035.077-2.035.077-2.035.115z"/><path style="fill:#fff;fill-rule:evenodd;fill-opacity:1;stroke:none" d="M447.229 284.938v-55.022l2.035-.23 1.958-.23 1.958-.23 1.92-.154 1.92-.154 1.88-.115 1.92-.039h1.882l1.881.077 1.92.154.96.077.998.153.96.154.998.153.999.192.998.23.998.27 1.037.268 1.037.307 1.036.346 1.075.384 1.075.384 1.383 1.113 1.305 1.114 1.229 1.19 1.152 1.19 1.113 1.229 1.037 1.267.96 1.306.883 1.343.844 1.344.73 1.383.691 1.42.576 1.42.538 1.46.422 1.459.345 1.497.308 1.498.192 1.497.115 1.536v1.536l-.039 1.536-.153 1.574-.23 1.574-.308 1.536-.422 1.574-.5 1.575-.614 1.574-.69 1.574-.807 1.536-.883 1.574-.96 1.536-1.075 1.574-1.19 1.536-1.037.883-1.075.807-1.075.806-1.075.73-1.075.69-1.114.615-1.113.614-1.114.538-1.151.537-1.114.461-1.152.423-1.152.383-1.19.384-1.152.308-1.19.307-1.152.269-1.19.268-1.19.192-1.229.23-1.19.154-2.42.307-2.418.23-2.457.154-2.458.154-2.457.115-2.457.077z"/><path style="fill:#da251d;fill-rule:evenodd;fill-opacity:1;stroke:none" d="m20.733 186.145-.46-11.52-.5-11.518-.46-11.519-.46-11.519-.5-11.519-.46-11.519-.462-11.518-.46-11.48-.5-11.52-.46-11.518-.46-11.52-.462-11.48-.46-11.519-.461-11.48-.46-11.519H583.11l-1.037 25.725-.883 22.539-.768 19.697-.691 17.048-.576 14.706-.5 12.67-.421 10.828-.384 9.33-.308 8.025-.268 7.065-.23 6.336-.193 5.874-.192 5.683-.192 5.76-.192 6.143-.23 6.757H21.233z"/></svg>