<svg xmlns="http://www.w3.org/2000/svg" version="1.0" width="193.847" height="208.012"><path d="M-270.51 184.537c1.549 29.01 3.464 63.125 4.528 75.504 1.886 21.954 11.79 42.687 27.886 58.378 16.655 16.237 38.264 25.177 60.849 25.177 22.583 0 44.196-8.94 60.848-25.177 16.097-15.691 26-36.424 27.884-58.378 1.04-12.092 2.893-46.922 4.423-75.476" style="fill:#d8201f;fill-opacity:1;fill-rule:nonzero;stroke:none" transform="translate(274.188 -136.12)"/><path d="m-273.636 137.036 3.174 48.251H-84.44l2.54-48.251h-191.736z" style="fill:#f9d100;fill-opacity:1;fill-rule:evenodd;stroke:none;stroke-width:1px;stroke-linecap:butt;stroke-linejoin:miter;stroke-opacity:1" transform="translate(274.188 -136.12)"/><path d="m-260.54 283.458 83.407-98.627 82.374 100.817c-5.331 14.943-14.505 24.764-23.33 35.049l-60.314-75.552-59.846 73.012c-10.819-10.437-16.816-22.48-22.292-34.699z" style="fill:#fff;fill-rule:evenodd;stroke:#1b1a1c;stroke-width:1px;stroke-linecap:butt;stroke-linejoin:miter;stroke-opacity:1" transform="translate(274.188 -136.12)"/><path d="M-253.873 129.374s4.951 98.849 6.937 121.958c1.887 21.953 11.79 42.686 27.887 58.377 16.655 16.238 38.263 25.178 60.848 25.178 22.584 0 44.197-8.94 60.849-25.178 16.096-15.691 25.999-36.424 27.884-58.377 1.987-23.11 6.942-121.958 6.942-121.958h-191.347z" style="fill:none;stroke:#1b1a1c;stroke-width:2.5;stroke-linecap:butt;stroke-linejoin:miter;stroke-miterlimit:4;stroke-dasharray:none;stroke-opacity:1" transform="translate(255.123 -128.124)"/><path d="m-65.417 176.954-186.423-.19" style="fill:none;fill-rule:evenodd;stroke:#1b1a1c;stroke-width:2;stroke-linecap:butt;stroke-linejoin:miter;stroke-miterlimit:4;stroke-dasharray:none;stroke-opacity:1" transform="translate(255.123 -128.124)"/><path d="M123.202 16.632c7.711.61 26.465 2.022 37.92 5.583.394.123 1.782.418 3.211.45 5.9.131 17.21-.105 17.495-.209 1.877-.684.066-5.335 6.223-4.386.038.005.842 3.602.878 7.154.047 4.533-.83 7.92-.87 7.954-5.09 4.388-5.531-2.857-5.662-2.86-.406-.007-3.718.002-19.872.107-.913.006-7.027 1.699-7.086 1.712-4.68 1.014-9.577 1.572-32.782 3.967-10.635-.003-22.634-3.173-35.221-2.73-8.672.305-16.715 1.277-22 2.968-2.286 1.436-3.934 2.872-6.38 3.989-3.085 1.01-8.083.425-12.603.957-.532 1.223-2.127 1.17-4.786-.16-1.329 1.17-2.791.612-4.546-1.196-1.86-.426-3.084-.605-3.609-1.376-.525-.771-.033-1.815-.06-3.33-.457-.356-3.142.127-4.527-1.715-.599-.796-.246-2.14 1.097-4.666-1.697.343-3.05-.173-6.088-.276-.775-.026-3.223.536-4.557.55-1.808.018-2.97-.34-4.597-.457-4.695 1.18-6.47-.565-6.568-1.762-.066-.805.83-3.599 4.183-3.638-2.252-.429-1.949-1.794-1.89-2.723.15-2.416 12.266-3.476 23.425-4.297-2.738-2.486-4.36-4.878-3.27-6.3 1.132-.264 2.273-.071 3.411.036 1.53.123 3.842-.533 5.815.056 7.728 2.308 8.251-.092 10.888 1.152 3.302 1.556 9.203.802 12.589 9.204 1.943 1.995 21.404-.827 24.663-.96 11.85.342 23.374-3.144 35.176-2.798z" style="fill:#1b1a1c;fill-opacity:1;stroke:none;stroke-width:.52020317;stroke-opacity:1"/><path d="M48.211 32.971c-1.916.83-4.07.808-3.587-2.232h.717c-.638 2.126.32 2.87 2.87 2.232z" style="fill:#fff;fill-opacity:1;stroke:none;stroke-width:.52020317;stroke-opacity:1"/><path d="M41.116 26.195c-1.86 2.817 2.445 4.73 4.066 1.754-1.143 3.415-6.458 1.024-4.066-1.754z" style="fill:#1b1a1c;fill-opacity:1;stroke:#fff;stroke-width:.25358617;stroke-opacity:1"/><path d="m41.116 39.11 2.152-1.913c3.344-.9 6.589-2.627 6.862-5.27.17-1.646-1.939-2.965-4.495-2.599-.325.047.992-1.673.663-1.858-1.434-4.775-6.448-1.293-8.642-1.445-2.277.839-4.83 2.058-7.463 3.359l.399.558c8.765-4.593 15.051-6.441 15.148-2.153-1.86 4.624-8.026 3.428-11.082 6.697 2.551-1.807 6.617-2.18 9.806-4.225 6.911-2.34 7.63 4.384-1.594 6.617l-1.754 2.232zM10.66 23.444l.44.28c8.004-.087 19.762-1.015 22.681-.559l-.638 2.153c.798-2.073 1.993-3.402 3.428-3.987-.212-.133.213-.903-.717-.398l-1.435 1.275c.291-.956.956-2.099 1.674-3.268-.85-.054-1.222 1.62-2.392 3.428-8.043.097-12.059.477-23.04 1.076z" style="fill:#fff;fill-opacity:1;stroke:none;stroke-width:.52020317;stroke-opacity:1"/><path d="M30.946 10.185c1.856 1.258 3.371 1.6 4.851.474-.184-.374-.333-.408-.518-.29-.714 1.136-2.489.715-4.333-.184z" style="fill:#fff;fill-opacity:1;stroke:none;stroke-width:.25358617;stroke-opacity:1"/><path d="M34.1 16.428c1.834 1.528 4.265 1.94 7.056 1.236 1.767.93 2.976.983 4.105 1.116l1.236.718c1.106 2.408 2.654 3.743 4.505 4.345 2.292 2.173 4.352 3.581 5.9 3.308l-.696-.593c-.94.5-3.79-2.315-5.683-3.513-1.181-.336-2.392-1.683-3.707-3.986-.085-.457.017-.982.146-1.653-.332.18-.478.638-.597 1.137-.555-.025-.71-.97-.944-1.955-.226.571-.292 1.09-.2 1.554-2.384-.036-4.165-.72-5.062-2.352l.279 1.515c-2.339.498-4.425.113-6.338-.877z" style="fill:#fff;fill-opacity:1;stroke:none;stroke-width:.52020317;stroke-opacity:1"/><path style="opacity:.98989898;fill:#1b1a1c;fill-opacity:1;fill-rule:nonzero;stroke:none;stroke-width:2;stroke-linecap:round;stroke-linejoin:round;stroke-miterlimit:4;stroke-dasharray:none;stroke-opacity:1" d="M66.702 14.233h7.836v26.411h-7.836zM78.747 14.088h7.836v26.411h-7.836zM150.434 17.281h6.385v20.026h-6.385zM171.475 18.441h7.546v16.833h-7.546z"/><path d="m66.46 22.681-.012 11.441M78.419 21.379l-.076 11.379M149.692 20.905l.237 11.13" style="fill:none;fill-rule:evenodd;stroke:#fff;stroke-width:.60000002;stroke-linecap:butt;stroke-linejoin:miter;stroke-miterlimit:4;stroke-dasharray:none;stroke-opacity:1"/><path d="m170.98 23.324.03 6.079" style="fill:none;fill-rule:evenodd;stroke:#fff;stroke-width:.51433432;stroke-linecap:butt;stroke-linejoin:miter;stroke-miterlimit:4;stroke-dasharray:none;stroke-opacity:1"/><path d="M181.915 23.129c-.374 2.144-.181 4.288.018 6.432" style="fill:none;fill-rule:evenodd;stroke:#fff;stroke-width:.52494013;stroke-linecap:butt;stroke-linejoin:miter;stroke-miterlimit:4;stroke-dasharray:none;stroke-opacity:1"/><path d="m31.143 97.222-6.73-10.779-12.7-.44 5.968-11.218-5.968-11.218 12.7-.44 6.73-10.778 6.73 10.778 12.7.44-5.968 11.218 5.968 11.218-12.7.44-6.73 10.779z" transform="matrix(1.01473 0 0 1.01473 3.109 1.416)" style="opacity:.98989898;fill:#f9d100;fill-opacity:1;fill-rule:nonzero;stroke:#1b1a1c;stroke-width:.98548537;stroke-linecap:round;stroke-linejoin:round;stroke-miterlimit:4;stroke-dasharray:none;stroke-opacity:1"/><path d="m31.143 97.222-6.73-10.779-12.7-.44 5.968-11.218-5.968-11.218 12.7-.44 6.73-10.778 6.73 10.778 12.7.44-5.968 11.218 5.968 11.218-12.7.44-6.73 10.779z" transform="matrix(1.01473 0 0 1.01473 129.065 1.416)" style="opacity:.98989898;fill:#f9d100;fill-opacity:1;fill-rule:nonzero;stroke:#1b1a1c;stroke-width:.98548537;stroke-linecap:round;stroke-linejoin:round;stroke-miterlimit:4;stroke-dasharray:none;stroke-opacity:1"/><path d="m31.143 97.222-6.73-10.779-12.7-.44 5.968-11.218-5.968-11.218 12.7-.44 6.73-10.778 6.73 10.778 12.7.44-5.968 11.218 5.968 11.218-12.7.44-6.73 10.779z" transform="matrix(1.01473 0 0 1.01473 66.109 88.482)" style="opacity:.98989898;fill:#f9d100;fill-opacity:1;fill-rule:nonzero;stroke:#1b1a1c;stroke-width:.98548537;stroke-linecap:round;stroke-linejoin:round;stroke-miterlimit:4;stroke-dasharray:none;stroke-opacity:1"/></svg>