<svg height="481.667" width="454.272" xmlns:xlink="http://www.w3.org/1999/xlink" xmlns="http://www.w3.org/2000/svg"><path style="opacity:1;fill:#005198;fill-opacity:1;stroke:none;stroke-width:10;stroke-linecap:butt;stroke-miterlimit:4;stroke-dasharray:none" d="m79.334 59.333 5.659 209.598C91.59 513.333 255.892 521 296.333 521c40.442 0 204.742-7.667 211.34-252.07l5.66-209.597z" transform="translate(-69.197 -49.333)"/><path style="opacity:1;fill:#fcdb00;fill-opacity:1;stroke:none;stroke-width:4.5;stroke-linecap:butt;stroke-miterlimit:4;stroke-dasharray:none" d="m408.612 153.944-3.483 124.637c-2.739 98.017-82.15 111.722-108.796 111.722-26.645 0-106.057-13.705-108.796-111.722l-3.483-124.637z" transform="translate(-69.197 -49.333)"/><path style="opacity:1;fill:#da251d;fill-opacity:1;stroke:#000;stroke-width:4;stroke-linecap:butt;stroke-miterlimit:4;stroke-dasharray:none" d="m184.055 153.943 1.185 42.432c9.628 5.977 19.13 14.994 25.78 24.266-6.452 2.334-12.107 4.58-16.807 9.861 24.684 1.74 37.552 9.148 48.41 18.553-8.048 1.76-12.172 2.125-22.332 10.482 27.898 5.21 41.278 12.215 54.713 21.836-9.61 1.646-16.519 3.39-23.754 7.727 24.127 3.42 46.702 14.288 66.99 28.433-12.827 1.667-23.226 4.595-28.373 10.258 42.131 7.631 64.572 23.952 77.256 37.945 10.768-8.619 20.077-20.607 27.202-35.606-14.809-11.721-29.826-29.452-40.253-70.982-5.306 5.514-7.537 16.085-8.343 28.995-15.468-19.3-27.818-41.099-32.84-64.944-3.844 7.509-5.122 14.519-6.123 24.217-10.497-12.763-18.38-25.645-25.44-53.133-7.66 10.695-7.749 14.835-8.969 22.983-10.108-10.206-18.359-22.552-21.742-47.065-4.955 5.043-6.818 10.835-8.717 17.428-12.599-7.819-25.152-20.466-31-32.397l-.699-1.289z" transform="translate(-69.197 -49.333)"/><path style="opacity:1;fill:none;fill-opacity:1;stroke:#000;stroke-width:5;stroke-linecap:butt;stroke-miterlimit:4;stroke-dasharray:none" d="m408.612 153.944-3.483 124.637c-2.739 98.017-82.15 111.722-108.796 111.722-26.645 0-106.057-13.705-108.796-111.722l-3.483-124.637z" transform="translate(-69.197 -49.333)"/><g><g transform="translate(-69.197 -49.333)"><g id="a"><path style="opacity:1;fill:#fff;stroke:#000;stroke-width:6;stroke-linecap:butt;stroke-miterlimit:4;stroke-dasharray:none" d="M103.334 162v220.475c5.981 17.633 13.223 32.922 21.285 46.357h32.047V162z"/><path style="opacity:1;fill:#da251d;fill-opacity:1;stroke:#000;stroke-width:5.918;stroke-miterlimit:4;stroke-dasharray:none" d="m130 91.445 31.292 70.626H98.708z"/><circle style="opacity:1;fill:#fff;stroke:#000;stroke-width:4;stroke-linecap:butt;stroke-miterlimit:4;stroke-dasharray:none" cx="130" cy="87.667" r="8.667"/><path style="opacity:1;fill:#000;stroke:none;stroke-width:3.53723;stroke-linecap:butt;stroke-miterlimit:4;stroke-dasharray:none" d="M122.75 188h14.5v31.667h-14.5z"/></g><use xlink:href="#a" width="100%" height="100%" transform="matrix(-1 0 0 1 592.666 0)"/></g><path style="opacity:1;fill:#fff;stroke:#000;stroke-width:6;stroke-linecap:butt;stroke-miterlimit:4;stroke-dasharray:none" d="M85.543 280.346C96.945 513.406 256.542 521 296.334 521s199.383-7.594 210.79-240.646c-3.288 49.429-18.885 87.295-40.458 116.101v-26.289c-9.272 9.957-19.658 18.687-30.666 26.303v32.363c-9.655 8.13-19.77 15.122-30 21.113v-35.963c-12.99 6.38-26.214 11.513-39 15.553v38.738c-15.973 5.871-31.113 9.621-44 11.817v-40.303c-10.251 1.521-19.337 2.213-26.666 2.213-7.33 0-16.417-.692-26.668-2.213v40.303c-12.887-2.196-28.027-5.946-44-11.817v-38.738c-12.786-4.04-26.01-9.174-39-15.553v35.963c-10.23-5.99-20.345-12.984-30-21.113v-32.363c-11.008-7.616-21.394-16.346-30.666-26.303v26.29c-21.574-28.808-37.17-66.677-40.457-116.11z" transform="translate(-69.197 -49.333)"/></g><path style="opacity:1;fill:none;stroke:#000;stroke-width:10;stroke-linecap:butt;stroke-miterlimit:4;stroke-dasharray:none" d="m79.334 59.333 5.659 209.598C91.59 513.333 255.892 521 296.333 521c40.442 0 204.742-7.667 211.34-252.07l5.66-209.597z" transform="translate(-69.197 -49.333)"/></svg>