<svg xmlns="http://www.w3.org/2000/svg" version="1.0" width="531.496" height="550.984" viewBox="0 0 595.28 841.89" xml:space="preserve"><path d="m-95.843 12.984 18.683 471.334c7.443 188.2 168.909 341.918 375.943 341.918 207.186 0 368.804-153.719 376.095-341.918l18.531-471.334H-95.843z" style="fill:#e2001a"/><path d="m-71.388 535.051 97.062 109.973h-55.138c-22.48-30.987-34.48-83.695-41.924-109.973z" style="fill:#ffe600;stroke:#000;stroke-width:4.33126687;stroke-miterlimit:4;stroke-dasharray:none"/><path transform="matrix(2.10967 0 0 2.10967 -379.264 -514.77)" style="fill:#ffe600;stroke:#000;stroke-width:2.05305606;stroke-miterlimit:4;stroke-dasharray:none" d="M142.696 460.184h60.408L141.328 390.2h-1.656l3.024 69.984zM203.104 460.184l79.128 89.568h90.216l-79.056-89.568h-90.288zM293.392 460.184 231.616 390.2h90.216l61.776 69.984h-90.216z"/><path d="M430.021 456.065H620.5l51.645 58.632c-6.076 45.265-20.354 88.86-44.354 130.327h-30.835L430.021 456.065z" style="fill:#ffe600;stroke:#000;stroke-width:4.33126687;stroke-miterlimit:4;stroke-dasharray:none"/><path transform="matrix(2.10967 0 0 2.10967 -379.264 -514.77)" style="fill:#ffe600;stroke:#000;stroke-width:2.05305606;stroke-miterlimit:4;stroke-dasharray:none" d="M473.896 460.184 412.048 390.2h90.936l-2.736 69.984h-26.352zM139.888 390.2h91.728l-61.848-69.984H137.08l2.808 69.984zM198.208 250.16l61.848 70.056h-90.288l-34.2-38.736-1.224-31.32h63.864zM321.832 390.2l-61.776-69.984h90.216l61.776 69.984h-90.216zM288.496 250.16l61.776 70.056h90.288l-61.848-70.056h-90.216zM469 250.16l37.728 42.768 1.728-42.768H469zM440.56 320.216h65.16l-2.808 69.984h-.576l-61.776-69.984z"/><path d="M644.65 611.91c-32.353-12-38.885-40.252-93.264-40.252-68.96 0-61.062 45.569-126.377 45.569s-57.265-45.569-126.378-45.569c-68.809 0-60.758 45.569-126.073 45.569-65.316 0-57.417-45.569-126.378-45.569-54.227 0-60.91 28.1-93.112 40.1C10.18 737.226 141.267 826.237 298.783 826.237c157.516 0 288.755-89.011 345.868-214.325z" style="fill:#0090d4;stroke:#000;stroke-width:6.4969003;stroke-miterlimit:4;stroke-dasharray:none"/><path d="m-95.843 12.984 18.683 471.334c7.443 188.2 168.909 341.918 375.943 341.918 207.186 0 368.804-153.719 376.095-341.918l18.531-471.334H-95.843z" style="fill:none;stroke:#000;stroke-width:8.12112539;stroke-miterlimit:4;stroke-dasharray:none"/></svg>