<svg xmlns="http://www.w3.org/2000/svg" width="737.527" height="798.763"><defs><linearGradient id="b"><stop style="stop-color:#000;stop-opacity:1" offset="0"/><stop style="stop-color:#000;stop-opacity:0" offset="1"/></linearGradient><linearGradient id="a"><stop style="stop-color:#000;stop-opacity:1" offset="0"/><stop style="stop-color:#000;stop-opacity:0" offset="1"/></linearGradient></defs><path style="fill:#fff;fill-opacity:1;fill-rule:evenodd;stroke:none;stroke-width:15;stroke-linecap:round;stroke-linejoin:round;stroke-miterlimit:4;stroke-dasharray:none;stroke-opacity:1" d="M383.771 98.81v783.764c-174.572-.166-318.014-121.387-323.473-273.387L22.51 98.81z" transform="translate(-15.005 -91.31)"/><path style="fill:#0f47af;fill-opacity:1;fill-rule:evenodd;stroke:none;stroke-width:15;stroke-linecap:round;stroke-linejoin:round;stroke-miterlimit:4;stroke-dasharray:none;stroke-opacity:1" d="M368.766 7.5v783.764c174.571-.165 318.014-121.387 323.472-273.387L730.028 7.5H368.765z"/><path style="opacity:1;fill:#fff;fill-opacity:1;fill-rule:evenodd;stroke:#000;stroke-width:11;stroke-linecap:round;stroke-linejoin:round;stroke-miterlimit:4;stroke-dasharray:none;stroke-opacity:1;paint-order:normal" d="M368.766 535.84v255.424c93.047-.088 177.244-34.573 236.423-89.774a82.075 82.075 0 0 0 6.788-32.428 82.075 82.075 0 0 0-82.075-82.076 82.075 82.075 0 0 0-61.004 27.315 103.265 103.265 0 0 0-100.132-78.461z"/><path style="fill:#fcdd09;fill-opacity:1;stroke:none;stroke-width:5;stroke-linecap:round;stroke-linejoin:round;stroke-miterlimit:4;stroke-dasharray:none;stroke-opacity:1" d="M453.633 234.56a705.28 705.28 0 0 1-6.974 15.246c-1.324-1.264-2.95-2.141-4.659-2.486-2.07 2.21-3.736 4.872-4.884 7.797-1.49 3.794-2.09 7.962-2.403 12.115a94.514 94.514 0 0 0-.261 7.474c-1.298 2.631-2.589 5.265-3.817 7.926-1.531-.626-3.177-.866-4.748-.668-1.256 2.755-1.988 5.81-2.142 8.947-.12 2.436.107 4.897.527 7.346a147.06 147.06 0 0 0-1.975 6.184 9.325 9.325 0 0 0-3.777-.399c-1.306 2.732-2.093 5.774-2.305 8.908-.275 4.068.41 8.224 1.365 12.278l.006.025c-.131.797-.25 1.598-.373 2.397a12.381 12.381 0 0 0-2.109-1.342c-1.961-.963-4.167-1.264-6.184-.844-1.032 2.847-1.518 5.95-1.421 9.09.124 4.074 1.214 8.143 2.562 12.084a94.825 94.825 0 0 0 4.397 10.66c-.065 1.48-.127 2.96-.176 4.442a11.727 11.727 0 0 0-1.62-.514c-2.128-.49-4.346-.282-6.214.586-.357 3.007-.122 6.14.687 9.176 1.05 3.938 3.038 7.651 5.248 11.181a94.143 94.143 0 0 0 1.582 2.432c-.002 2.121-.011 4.248-.008 6.363.001.828.008 1.66.01 2.488-.333-.11-.67-.206-1.013-.285-2.13-.49-4.347-.28-6.215.588-.357 3.007-.122 6.14.687 9.176 1.05 3.939 3.038 7.652 5.248 11.182a94.058 94.058 0 0 0 1.832 2.798c.299 5.143.77 10.262 1.497 15.336-1.144.003-2.271.114-3.358.403-2.111.56-3.973 1.781-5.219 3.422 1.09 2.825 3.513 5.052 4.893 7.79 2.249 4.463 2.753 9.761 5.46 13.962 1.71 2.655 3.884 5.193 6.61 6.79 4.415 2.588 9.775 3.189 14.834 3.967 4.373.673 8.84.382 13.26.584 9.208.422 18.408 1.032 27.621 1.313 10.148.31 20.303.649 30.455.412 11.17 21.84 20.964 44.347 31.05 66.701 11.615 25.74 19.494 53.355 33.927 77.627 3.598 6.051 8.006 11.676 12.965 16.674 2.83 2.853 5.738 5.96 9.46 7.476 3.392 1.382 7.261 1.615 10.926 1.15-.415-2.713-.784-5.471-1.724-8.05-2.427-6.655-6.75-12.458-9.97-18.768-15.082-29.578-29.363-59.559-43.763-89.475-9.819-20.4-24.75-42.839-29.07-61.386a71.53 71.53 0 0 1-1.725-20.699c.916-14.497 7.552-27.901 12.65-41.4 1.183-3.13 3.177-5.938 4.145-9.14.962-3.18 1.363-6.523 1.606-9.837.197-2.693.315-5.436-.127-8.1-.444-2.674-1.402-5.26-2.506-7.736-1.257-2.82-3.557-5.122-4.647-8.01-1.453-3.852-.912-8.32-2.402-12.115-1.148-2.924-2.817-5.587-4.887-7.797-1.369.277-2.683.9-3.834 1.783-.377-2.888-.979-5.729-2.021-8.384-1.148-2.924-2.817-5.587-4.887-7.797-2.019.408-3.928 1.554-5.351 3.21l-.045.057c-.342-3.679-.946-7.338-2.266-10.7-1.148-2.925-2.817-5.586-4.887-7.796-2.019.408-3.927 1.552-5.351 3.21-.205.238-.396.489-.58.743a94.047 94.047 0 0 0-.192-3.56c-.312-4.153-.914-8.321-2.404-12.115-1.148-2.925-2.815-5.587-4.885-7.797-1.963.397-3.82 1.496-5.23 3.08-.384-2.502-.958-4.954-1.865-7.266-1.148-2.924-2.817-5.587-4.887-7.797-1.679.34-3.277 1.194-4.588 2.422-.032-.56-.063-1.122-.106-1.682-.312-4.153-.912-8.32-2.402-12.115-1.148-2.924-2.817-5.587-4.887-7.797-2.019.409-3.93 1.554-5.353 3.211-.144.168-.273.346-.406.522a103.853 103.853 0 0 1-6.407-26.877z" transform="translate(-15.005 -91.31)"/><path transform="translate(743.878 -91.31)" style="fill:#000;fill-opacity:1;stroke:#fcdd09;stroke-width:1px;stroke-linecap:butt;stroke-linejoin:miter;stroke-opacity:1" d="M-250.516 471.508a398.331 398.331 0 0 1-23.574-44.574c-7.983-17.728-14.668-36.052-19.73-54.825a337.428 337.428 0 0 1-9.507-50 521.423 521.423 0 0 0 8.388 33.55c8.043 28.165 18.473 55.67 31.554 81.88a437.288 437.288 0 0 0 17.662 31.972z"/><path style="opacity:1;fill:#0f47af;fill-opacity:1;fill-rule:evenodd;stroke:#000;stroke-width:11;stroke-linecap:round;stroke-linejoin:round;stroke-miterlimit:4;stroke-dasharray:none;stroke-opacity:1;paint-order:normal" d="M368.764 535.84a103.265 103.265 0 0 0-100.114 78.47 82.075 82.075 0 0 0-61.027-27.324 82.075 82.075 0 0 0-82.074 82.077 82.075 82.075 0 0 0 6.826 32.593c59.166 55.14 143.336 89.554 236.387 89.608h.004V535.84a103.265 103.265 0 0 0-.002 0z"/><path style="fill:none;stroke:#000;stroke-width:11;stroke-linecap:butt;stroke-linejoin:round;stroke-opacity:1;stroke-miterlimit:4;stroke-dasharray:none" d="M383.771 98.81v783.764V345.59" transform="translate(-15.005 -91.31)"/><path d="m22.505 98.81 37.786 510.376c5.389 152.102 148.791 273.287 323.477 273.387 174.573-.163 318.017-121.386 323.476-273.387L745.032 98.81H383.771z" style="fill:none;fill-rule:evenodd;stroke:#000;stroke-width:15;stroke-linecap:round;stroke-linejoin:round;stroke-miterlimit:4;stroke-dasharray:none;stroke-opacity:1" transform="translate(-15.005 -91.31)"/><path style="fill:#fcdd09;stroke:#000;stroke-width:5;stroke-linecap:round;stroke-linejoin:round;stroke-miterlimit:4;stroke-dasharray:none;stroke-opacity:1;fill-opacity:1" d="M681.37 125.292s-4.547 7.97-7.711 11.225c-2.916 2.998-6.849 4.81-10.14 7.39-6.623 5.197-12.087 10.143-19.31 16.28a9.83 9.83 0 0 0-1.756-.861c-2.616 2.058-4.871 4.675-6.605 7.664-.129.222-.244.452-.367.677-.794.687-1.591 1.37-2.385 2.057a10.115 10.115 0 0 0-2.951-1.709c-2.617 2.059-4.874 4.676-6.608 7.664a32.46 32.46 0 0 0-1.88 3.852c-.476.401-.948.808-1.424 1.209l-.01-.018c-1.273-2.038-3.158-3.6-5.285-4.379-2.617 2.059-4.872 4.674-6.606 7.662-1.685 2.904-2.863 6.12-3.781 9.426-.584.455-1.169.91-1.754 1.363-.41-2.686-1.024-5.355-2.414-7.582-1.273-2.038-3.158-3.6-5.285-4.379-2.617 2.059-4.872 4.676-6.606 7.664-2.25 3.878-3.595 8.309-4.625 12.772-.221.96-.427 1.927-.62 2.894-.41-2.847-1.014-5.703-2.487-8.062-1.273-2.038-3.158-3.602-5.285-4.381-2.617 2.059-4.872 4.676-6.606 7.664-2.25 3.878-3.595 8.31-4.625 12.774a103.903 103.903 0 0 0-1.568 8.384c-.41-2.995-1.002-6.028-2.553-8.511-1.272-2.038-3.158-3.6-5.285-4.38-2.617 2.06-4.872 4.675-6.605 7.663-2.25 3.877-3.596 8.31-4.625 12.773a103.93 103.93 0 0 0-1.55 8.237c-.215.15-.431.3-.648.449-.413-2.373-1.043-4.693-2.275-6.666-1.273-2.038-3.158-3.6-5.285-4.38-2.617 2.06-4.874 4.675-6.608 7.663-2.25 3.877-2.361 8.851-4.625 12.773-.946 1.64-1.935 3.559-3.656 4.348-1.51.693-3.911-1.326-4.986-.059-3.776 4.454.858 11.841 3.066 17.247 1.204 2.947 3.56 5.28 5.39 7.884 7.07 10.06 14.496 19.865 21.598 29.905 10.072 14.236 20.685 28.445 26.582 44.857 5.964 16.596 6.747 35.014 2.215 52.057 7.536-16.395 19.029-30.954 33.227-42.088 17.732-13.907 40.252-19.645 61.47-26.582 2.278-.745 4.71-.921 7.01-1.596 2.506-.735 5.226-1.17 7.368-2.665 2.351-1.64 4.117-4.09 5.538-6.58 2.132-3.732 2.967-8.072 4.278-12.165 1.029-3.212 2.518-6.402 2.814-9.719-1.814-1.357-4.15-2.083-6.552-2.037-.745.014-1.487.104-2.223.244.935-.9 1.86-1.812 2.76-2.746 3.177-3.299 6.156-6.844 8.177-10.846 1.558-3.083 2.518-6.402 2.815-9.718-1.814-1.357-4.15-2.083-6.553-2.038-1.931.037-3.839.553-5.697 1.27.58-.575 1.155-1.155 1.72-1.742 3.178-3.299 6.157-6.845 8.178-10.846 1.558-3.083 2.52-6.402 2.817-9.719-1.814-1.357-4.153-2.085-6.555-2.039-3.046.059-6.026 1.31-8.86 2.662-.005-.503-.014-1.006-.02-1.51a103.868 103.868 0 0 0 5.517-5.314c3.177-3.298 6.157-6.844 8.178-10.845 1.557-3.084 2.52-6.403 2.816-9.72-1.814-1.356-4.153-2.084-6.555-2.038-2.967.056-5.87 1.249-8.636 2.56.436-.437.872-.872 1.3-1.316 3.178-3.299 6.159-6.846 8.18-10.848 1.557-3.083 2.518-6.402 2.814-9.719-1.813-1.357-4.152-2.083-6.554-2.037-3.107.06-6.147 1.355-9.03 2.739l-.01-.168c.947-.91 1.882-1.833 2.791-2.778 3.178-3.298 6.157-6.844 8.178-10.845 1.558-3.084 2.518-6.403 2.815-9.72-1.814-1.356-4.153-2.082-6.555-2.036-2.958.056-5.85 1.24-8.61 2.547-.072-1.342-.136-2.684-.203-4.026 2.205-2.52 4.197-5.202 5.674-8.127 1.558-3.083 2.518-6.402 2.815-9.718-1.814-1.358-4.153-2.084-6.555-2.038-.875.017-1.743.14-2.605.327-.018-1.246-.028-2.491-.036-3.737 1.264-2.781 2.054-5.727 2.317-8.672a9.926 9.926 0 0 0-2.17-1.224c.305-10.2.955-21.897.955-21.897z" transform="translate(-15.005 -91.31)"/><path style="fill:#000;stroke:#fcdd09;stroke-width:1px;stroke-linecap:butt;stroke-linejoin:miter;stroke-opacity:1" d="M635.162 212.63a106.074 106.074 0 0 1 3.051 4.043c1.58 2.201 3.073 4.463 4.54 6.74.788 1.225 1.569 2.455 2.341 3.69l.852-1.065c-.48-.657-.954-1.32-1.42-1.986-1.796-2.567-3.498-5.21-5.533-7.592a34.744 34.744 0 0 0-3.83-3.83zm-16.605 14.858a162.03 162.03 0 0 1 4.66 6.175c2.412 3.362 4.696 6.816 6.936 10.295a511.857 511.857 0 0 1 3.574 5.633l1.3-1.625a187.504 187.504 0 0 1-2.165-3.033c-2.743-3.921-5.344-7.957-8.453-11.594a53.093 53.093 0 0 0-5.852-5.851zm-17.01 10.023c2.19 2.763 4.314 5.58 6.37 8.443 3.297 4.596 6.416 9.315 9.478 14.07a700.175 700.175 0 0 1 4.889 7.702l1.777-2.22a256.687 256.687 0 0 1-2.963-4.15c-3.748-5.359-7.303-10.876-11.553-15.847a72.566 72.566 0 0 0-7.998-7.998zm-18.472 10.912a291.882 291.882 0 0 1 8.394 11.127c4.347 6.057 8.46 12.28 12.496 18.549 2.17 3.37 4.316 6.754 6.442 10.152l2.343-2.93c-1.32-1.809-2.62-3.631-3.904-5.466-4.941-7.065-9.626-14.338-15.228-20.89a95.638 95.638 0 0 0-10.543-10.542zm-21.094 4.867a411.997 411.997 0 0 1 11.847 15.705c6.134 8.549 11.94 17.328 17.635 26.174a1302.5 1302.5 0 0 1 9.092 14.328l3.307-4.132a477.244 477.244 0 0 1-5.512-7.715c-6.973-9.97-13.584-20.233-21.49-29.48a134.999 134.999 0 0 0-14.88-14.88zm-22.95 3.203A541.386 541.386 0 0 1 554.6 277.13c8.06 11.233 15.688 22.77 23.172 34.395 4.023 6.25 8.006 12.525 11.947 18.826l4.344-5.432a627.054 627.054 0 0 1-7.24-10.136c-9.163-13.102-17.852-26.587-28.24-38.739a177.382 177.382 0 0 0-19.551-19.55zm105.23 19.145a49.049 49.049 0 0 0-7.429 1.813c-4.2 1.38-8.19 3.319-12.238 5.1-1.051.462-2.106.915-3.166 1.357l.246 1.906a473.226 473.226 0 0 1 5.528-2.733c3.438-1.672 6.898-3.303 10.416-4.8a149.732 149.732 0 0 1 6.642-2.643zm3.966 18.318a75.273 75.273 0 0 0-11.399 2.782c-6.445 2.117-12.567 5.092-18.777 7.824-1.613.71-3.234 1.404-4.861 2.082l.379 2.926a726.181 726.181 0 0 1 8.482-4.194c5.276-2.566 10.584-5.07 15.983-7.367a229.722 229.722 0 0 1 10.193-4.053zm-1.326 21.006a86.073 86.073 0 0 0-13.033 3.182c-7.37 2.42-14.37 5.824-21.471 8.947a304.29 304.29 0 0 1-5.557 2.379l.434 3.346a830.266 830.266 0 0 1 9.697-4.795c6.032-2.935 12.103-5.797 18.275-8.424a262.647 262.647 0 0 1 11.655-4.635z" transform="translate(-15.005 -91.31)"/><path style="fill:none;fill-opacity:1;stroke:#000;stroke-width:5;stroke-linecap:round;stroke-linejoin:round;stroke-miterlimit:4;stroke-dasharray:none;stroke-opacity:1" d="M453.633 234.558a705.281 705.281 0 0 1-6.974 15.247c-1.324-1.264-2.95-2.141-4.658-2.487-2.07 2.21-3.737 4.873-4.885 7.797-1.49 3.795-2.09 7.962-2.403 12.115a94.514 94.514 0 0 0-.261 7.475c-1.297 2.63-2.589 5.265-3.817 7.926-1.531-.626-3.177-.866-4.748-.668-1.256 2.755-1.987 5.81-2.142 8.947-.12 2.436.107 4.897.527 7.346a147.06 147.06 0 0 0-1.975 6.183 9.325 9.325 0 0 0-3.777-.398c-1.306 2.731-2.093 5.774-2.305 8.908-.275 4.067.41 8.224 1.366 12.277l.006.026c-.132.797-.25 1.597-.373 2.396a12.381 12.381 0 0 0-2.11-1.342c-1.961-.962-4.167-1.263-6.183-.843-1.033 2.846-1.518 5.95-1.422 9.09.125 4.074 1.214 8.143 2.562 12.084a94.825 94.825 0 0 0 4.397 10.66c-.065 1.48-.127 2.96-.176 4.441a11.727 11.727 0 0 0-1.62-.514c-2.128-.49-4.346-.282-6.214.586-.357 3.007-.122 6.14.687 9.176 1.05 3.939 3.038 7.652 5.249 11.182a94.143 94.143 0 0 0 1.582 2.431c-.002 2.122-.012 4.248-.008 6.364 0 .828.008 1.659.01 2.488-.334-.11-.672-.206-1.014-.285-2.13-.49-4.347-.28-6.215.588-.357 3.006-.122 6.14.688 9.176 1.05 3.938 3.037 7.651 5.248 11.181a94.058 94.058 0 0 0 1.832 2.799c.298 5.142.77 10.262 1.496 15.336-1.144.003-2.27.113-3.358.402-2.111.561-3.972 1.782-5.218 3.422 1.089 2.825 3.512 5.053 4.892 7.791 2.249 4.462 2.754 9.76 5.46 13.961 1.71 2.655 3.884 5.193 6.61 6.79 4.416 2.588 9.775 3.19 14.834 3.968 4.373.673 8.84.382 13.26.584 9.208.421 18.408 1.031 27.621 1.312 10.148.31 20.303.65 30.455.413 11.17 21.84 20.965 44.346 31.051 66.7 11.614 25.74 19.493 53.356 33.926 77.628 3.598 6.051 8.006 11.676 12.965 16.673 2.83 2.854 5.738 5.96 9.46 7.477 3.392 1.382 7.261 1.614 10.926 1.15-.415-2.714-.784-5.472-1.724-8.05-2.427-6.656-6.75-12.458-9.969-18.769-15.083-29.577-29.364-59.558-43.764-89.475-9.819-20.4-24.75-42.838-29.07-61.385a71.53 71.53 0 0 1-1.724-20.7c.915-14.496 7.55-27.9 12.65-41.4 1.182-3.129 3.176-5.937 4.144-9.139.963-3.18 1.363-6.524 1.606-9.837.197-2.693.315-5.437-.127-8.1-.444-2.674-1.402-5.26-2.506-7.736-1.257-2.82-3.557-5.122-4.646-8.01-1.454-3.852-.913-8.32-2.403-12.115-1.148-2.925-2.817-5.587-4.886-7.797-1.37.277-2.683.899-3.834 1.783-.378-2.888-.98-5.73-2.022-8.385-1.148-2.924-2.817-5.587-4.887-7.797-2.019.409-3.927 1.554-5.351 3.211l-.045.057c-.342-3.68-.946-7.339-2.266-10.701-1.148-2.924-2.817-5.585-4.886-7.795-2.02.408-3.928 1.552-5.352 3.209-.205.238-.396.49-.58.744a94.047 94.047 0 0 0-.191-3.56c-.313-4.154-.915-8.321-2.405-12.116-1.148-2.924-2.815-5.587-4.885-7.797-1.963.397-3.82 1.496-5.23 3.08-.383-2.502-.957-4.953-1.865-7.265-1.148-2.924-2.817-5.587-4.887-7.797-1.678.34-3.277 1.193-4.588 2.422-.032-.561-.063-1.122-.105-1.682-.313-4.153-.913-8.32-2.403-12.115-1.148-2.924-2.817-5.587-4.886-7.797-2.02.408-3.93 1.554-5.354 3.21-.144.168-.273.347-.406.522a103.853 103.853 0 0 1-6.406-26.877z" transform="translate(-15.005 -91.31)"/><path transform="translate(742.179 -91.31)" style="fill:#fcdd09;fill-opacity:1;stroke:#000;stroke-width:5;stroke-linecap:round;stroke-linejoin:round;stroke-miterlimit:4;stroke-dasharray:none;stroke-opacity:1" d="M-151.673 636.722a406.195 406.195 0 0 1-15.335-49.337c-11.644-48.067-14.41-98.221-8.667-147.344 4.402-37.65 13.737-74.586 25.335-110.674a899.793 899.793 0 0 1 48.67-120.676 593.356 593.356 0 0 0-70.671 137.343c-15.864 44.211-26.466 90.46-29.336 137.344-1.843 30.112-.501 60.32-.892 90.486-.186 14.364-.74 28.958 2.892 42.856.941 3.6 2.168 7.15 3.991 10.393 1.823 3.244 4.265 6.185 7.344 8.275 4.809 3.267 10.86 4.258 16.667 4 4.215-.186 8.376-.981 12.543-1.638 2.48-.391 4.966-.734 7.459-1.028z"/><path transform="translate(742.179 -91.31)" style="fill:none;stroke:#000;stroke-width:5;stroke-linecap:round;stroke-linejoin:round;stroke-miterlimit:4;stroke-dasharray:none;stroke-opacity:1" d="M-151.673 636.722a103.862 103.862 0 0 0-17.418-18.904c-3.945-3.337-8.328-6.463-13.402-7.438a17.82 17.82 0 0 0-9.475.777 17.82 17.82 0 0 0-7.709 5.563"/><g transform="translate(744.93 -91.31)"><path style="fill:#da121a;fill-opacity:1;stroke:#000;stroke-width:4.84086418;stroke-linecap:round;stroke-linejoin:round;stroke-miterlimit:4;stroke-dasharray:none;stroke-opacity:1" d="M-589.086 73.83c-8.44-.158-16.788 1.47-24.21 5.068a47.8 47.8 0 0 0-7.224 4.323 47.803 47.803 0 0 0-6.34 5.535c-8.312 8.652-13.264 20.45-14.607 32.79-.723 6.653-.438 13.484.844 20.18l3.41 1.397-3.578-.873c-4.973 4.664-9.22 10.023-12.545 15.83-6.167 10.774-9.094 23.23-7.453 35.115a47.806 47.806 0 0 0 1.879 8.205c.87 2.67 1.978 5.26 3.305 7.74 5.66 10.58 15.35 18.937 26.671 24.028 6.103 2.744 12.689 4.582 19.454 5.432l2.363-2.79-1.922 3.11c2.899 6.171 6.684 11.866 11.18 16.822 8.34 9.195 19.28 15.829 31.091 17.942 2.77.495 5.578.748 8.385.75a47.805 47.805 0 0 0 8.383-.75c11.811-2.113 22.753-8.747 31.094-17.942 4.496-4.956 8.278-10.65 11.177-16.822l-1.921-3.11 2.363 2.79c6.765-.85 13.352-2.688 19.455-5.432 11.322-5.09 21.012-13.448 26.672-24.027a47.795 47.795 0 0 0 3.303-7.74 47.806 47.806 0 0 0 1.878-8.206c1.641-11.886-1.286-24.34-7.453-35.115-3.324-5.807-7.57-11.166-12.543-15.83l-3.582.875 3.412-1.398c1.283-6.697 1.57-13.528.846-20.18-1.342-12.341-6.294-24.139-14.607-32.791a47.821 47.821 0 0 0-6.342-5.535 47.801 47.801 0 0 0-7.223-4.323c-10.797-5.233-23.547-6.299-35.699-3.763-6.55 1.366-12.959 3.75-18.932 7.039l-.28 3.754-.282-3.754c-5.973-3.288-12.381-5.673-18.932-7.04a62.01 62.01 0 0 0-11.49-1.304z" transform="translate(15.005 91.31)"/><path d="M-543.378 162.99v49.269M-451.078 230.046l-46.856 15.227M-486.328 338.554l-28.962-39.857M-600.428 338.554l28.961-39.857M-635.678 230.046l46.856 15.227" style="fill:none;stroke:#000;stroke-width:5;stroke-linecap:round;stroke-linejoin:miter;stroke-miterlimit:4;stroke-dasharray:none;stroke-opacity:1"/><path style="fill:none;stroke:#000;stroke-width:5;stroke-linecap:round;stroke-linejoin:round;stroke-miterlimit:4;stroke-dasharray:none;stroke-opacity:1" d="M-582.854 347.052a60.887 60.887 0 0 0 10.117 8.97c3.694 2.603 7.684 4.796 11.902 6.415a49.943 49.943 0 0 0 17.458 3.306" transform="matrix(.90324 0 0 1.01182 -52.58 -23.853)"/><path transform="matrix(-.90324 0 0 1.01182 -1034.176 -23.853)" style="fill:none;stroke:#000;stroke-width:5;stroke-linecap:round;stroke-linejoin:round;stroke-miterlimit:4;stroke-dasharray:none;stroke-opacity:1" d="M-582.854 347.052a60.887 60.887 0 0 0 10.117 8.97c3.694 2.603 7.684 4.796 11.902 6.415a49.943 49.943 0 0 0 17.458 3.306"/><path transform="matrix(.27907 .85904 -.96232 .31262 -121.735 639.114)" d="M-582.854 347.052a60.887 60.887 0 0 0 10.117 8.97c3.694 2.603 7.684 4.796 11.902 6.415a49.943 49.943 0 0 0 17.458 3.306" style="fill:none;stroke:#000;stroke-width:5;stroke-linecap:round;stroke-linejoin:round;stroke-miterlimit:4;stroke-dasharray:none;stroke-opacity:1"/><path d="M-582.854 347.052a60.887 60.887 0 0 0 10.117 8.97c3.694 2.603 7.684 4.796 11.902 6.415a49.943 49.943 0 0 0 17.458 3.306" style="fill:none;stroke:#000;stroke-width:5;stroke-linecap:round;stroke-linejoin:round;stroke-miterlimit:4;stroke-dasharray:none;stroke-opacity:1" transform="matrix(-.27907 -.85904 -.96232 .31262 -425.011 -294.456)"/><path transform="matrix(-.73077 .53086 -.59468 -.81862 -773.607 778.185)" d="M-582.854 347.052a60.887 60.887 0 0 0 10.117 8.97c3.694 2.603 7.684 4.796 11.902 6.415a49.943 49.943 0 0 0 17.458 3.306" style="fill:none;stroke:#000;stroke-width:5;stroke-linecap:round;stroke-linejoin:round;stroke-miterlimit:4;stroke-dasharray:none;stroke-opacity:1"/><path d="M-582.854 347.052a60.887 60.887 0 0 0 10.117 8.97c3.694 2.603 7.684 4.796 11.902 6.415a49.943 49.943 0 0 0 17.458 3.306" style="fill:none;stroke:#000;stroke-width:5;stroke-linecap:round;stroke-linejoin:round;stroke-miterlimit:4;stroke-dasharray:none;stroke-opacity:1" transform="matrix(.73077 -.53086 -.59468 -.81862 20.559 201.272)"/><path transform="matrix(.73077 .53086 .59468 -.81862 -313.149 778.185)" d="M-582.854 347.052a60.887 60.887 0 0 0 10.117 8.97c3.694 2.603 7.684 4.796 11.902 6.415a49.943 49.943 0 0 0 17.458 3.306" style="fill:none;stroke:#000;stroke-width:5;stroke-linecap:round;stroke-linejoin:round;stroke-miterlimit:4;stroke-dasharray:none;stroke-opacity:1"/><path d="M-582.854 347.052a60.887 60.887 0 0 0 10.117 8.97c3.694 2.603 7.684 4.796 11.902 6.415a49.943 49.943 0 0 0 17.458 3.306" style="fill:none;stroke:#000;stroke-width:5;stroke-linecap:round;stroke-linejoin:round;stroke-miterlimit:4;stroke-dasharray:none;stroke-opacity:1" transform="matrix(-.73077 -.53086 .59468 -.81862 -1107.315 201.272)"/><path transform="matrix(-.27907 .85904 .96232 .31262 -965.021 639.114)" d="M-582.854 347.052a60.887 60.887 0 0 0 10.117 8.97c3.694 2.603 7.684 4.796 11.902 6.415a49.943 49.943 0 0 0 17.458 3.306" style="fill:none;stroke:#000;stroke-width:5;stroke-linecap:round;stroke-linejoin:round;stroke-miterlimit:4;stroke-dasharray:none;stroke-opacity:1"/><path d="M-582.854 347.052a60.887 60.887 0 0 0 10.117 8.97c3.694 2.603 7.684 4.796 11.902 6.415a49.943 49.943 0 0 0 17.458 3.306" style="fill:none;stroke:#000;stroke-width:5;stroke-linecap:round;stroke-linejoin:round;stroke-miterlimit:4;stroke-dasharray:none;stroke-opacity:1" transform="matrix(.27907 -.85904 .96232 .31262 -661.745 -294.456)"/><circle r="24.875" cy="260.041" cx="-543.378" style="opacity:1;fill:none;fill-opacity:1;fill-rule:evenodd;stroke:#000;stroke-width:5.24919224;stroke-linecap:round;stroke-linejoin:round;stroke-miterlimit:4;stroke-dasharray:none;stroke-opacity:1;paint-order:normal"/><path style="fill:#da121a;fill-opacity:1;stroke:#000;stroke-width:5;stroke-linecap:round;stroke-linejoin:round;stroke-miterlimit:4;stroke-dasharray:none;stroke-opacity:1" d="m-558.383 41.447-12.49 35.473c4.2 1.346 8.3 3.102 12.209 5.254l.281 3.754.281-3.754a68.978 68.978 0 0 1 12.21-5.254zm-83.465 87.032-37.588.914 29.877 22.843a68.968 68.968 0 0 1 8.768-9.986l3.578.873-3.41-1.396a68.89 68.89 0 0 1-1.225-13.248zm166.93 0a68.937 68.937 0 0 1-1.227 13.248l-3.412 1.398 3.582-.875a68.925 68.925 0 0 1 8.768 9.986l29.877-22.843zm-147.543 107.193-10.744 36.03 30.955-21.354a68.925 68.925 0 0 1-6.79-11.428l1.923-3.11-2.363 2.79a68.948 68.948 0 0 1-12.98-2.928zm128.154 0a68.958 68.958 0 0 1-12.98 2.928l-2.363-2.79 1.921 3.11a68.954 68.954 0 0 1-6.789 11.43l30.957 21.351z" transform="translate(15.005 91.31)"/></g><g transform="translate(744.93 156.413)"><path style="fill:#da121a;fill-opacity:1;stroke:#000;stroke-width:4.84086418;stroke-linecap:round;stroke-linejoin:round;stroke-miterlimit:4;stroke-dasharray:none;stroke-opacity:1" d="M-589.086 73.83c-8.44-.158-16.788 1.47-24.21 5.068a47.8 47.8 0 0 0-7.224 4.323 47.803 47.803 0 0 0-6.34 5.535c-8.312 8.652-13.264 20.45-14.607 32.79-.723 6.653-.438 13.484.844 20.18l3.41 1.397-3.578-.873c-4.973 4.664-9.22 10.023-12.545 15.83-6.167 10.774-9.094 23.23-7.453 35.115a47.806 47.806 0 0 0 1.879 8.205c.87 2.67 1.978 5.26 3.305 7.74 5.66 10.58 15.35 18.937 26.671 24.028 6.103 2.744 12.689 4.582 19.454 5.432l2.363-2.79-1.922 3.11c2.899 6.171 6.684 11.866 11.18 16.822 8.34 9.195 19.28 15.829 31.091 17.942 2.77.495 5.578.748 8.385.75a47.805 47.805 0 0 0 8.383-.75c11.811-2.113 22.753-8.747 31.094-17.942 4.496-4.956 8.278-10.65 11.177-16.822l-1.921-3.11 2.363 2.79c6.765-.85 13.352-2.688 19.455-5.432 11.322-5.09 21.012-13.448 26.672-24.027a47.795 47.795 0 0 0 3.303-7.74 47.806 47.806 0 0 0 1.878-8.206c1.641-11.886-1.286-24.34-7.453-35.115-3.324-5.807-7.57-11.166-12.543-15.83l-3.582.875 3.412-1.398c1.283-6.697 1.57-13.528.846-20.18-1.342-12.341-6.294-24.139-14.607-32.791a47.821 47.821 0 0 0-6.342-5.535 47.801 47.801 0 0 0-7.223-4.323c-10.797-5.233-23.547-6.299-35.699-3.763-6.55 1.366-12.959 3.75-18.932 7.039l-.28 3.754-.282-3.754c-5.973-3.288-12.381-5.673-18.932-7.04a62.01 62.01 0 0 0-11.49-1.304z" transform="translate(15.005 91.31)"/><path d="M-543.378 162.99v49.269M-451.078 230.046l-46.856 15.227M-486.328 338.554l-28.962-39.857M-600.428 338.554l28.961-39.857M-635.678 230.046l46.856 15.227" style="fill:none;stroke:#000;stroke-width:5;stroke-linecap:round;stroke-linejoin:miter;stroke-miterlimit:4;stroke-dasharray:none;stroke-opacity:1"/><path style="fill:none;stroke:#000;stroke-width:5;stroke-linecap:round;stroke-linejoin:round;stroke-miterlimit:4;stroke-dasharray:none;stroke-opacity:1" d="M-582.854 347.052a60.887 60.887 0 0 0 10.117 8.97c3.694 2.603 7.684 4.796 11.902 6.415a49.943 49.943 0 0 0 17.458 3.306" transform="matrix(.90324 0 0 1.01182 -52.58 -23.853)"/><path transform="matrix(-.90324 0 0 1.01182 -1034.176 -23.853)" style="fill:none;stroke:#000;stroke-width:5;stroke-linecap:round;stroke-linejoin:round;stroke-miterlimit:4;stroke-dasharray:none;stroke-opacity:1" d="M-582.854 347.052a60.887 60.887 0 0 0 10.117 8.97c3.694 2.603 7.684 4.796 11.902 6.415a49.943 49.943 0 0 0 17.458 3.306"/><path transform="matrix(.27907 .85904 -.96232 .31262 -121.735 639.114)" d="M-582.854 347.052a60.887 60.887 0 0 0 10.117 8.97c3.694 2.603 7.684 4.796 11.902 6.415a49.943 49.943 0 0 0 17.458 3.306" style="fill:none;stroke:#000;stroke-width:5;stroke-linecap:round;stroke-linejoin:round;stroke-miterlimit:4;stroke-dasharray:none;stroke-opacity:1"/><path d="M-582.854 347.052a60.887 60.887 0 0 0 10.117 8.97c3.694 2.603 7.684 4.796 11.902 6.415a49.943 49.943 0 0 0 17.458 3.306" style="fill:none;stroke:#000;stroke-width:5;stroke-linecap:round;stroke-linejoin:round;stroke-miterlimit:4;stroke-dasharray:none;stroke-opacity:1" transform="matrix(-.27907 -.85904 -.96232 .31262 -425.011 -294.456)"/><path transform="matrix(-.73077 .53086 -.59468 -.81862 -773.607 778.185)" d="M-582.854 347.052a60.887 60.887 0 0 0 10.117 8.97c3.694 2.603 7.684 4.796 11.902 6.415a49.943 49.943 0 0 0 17.458 3.306" style="fill:none;stroke:#000;stroke-width:5;stroke-linecap:round;stroke-linejoin:round;stroke-miterlimit:4;stroke-dasharray:none;stroke-opacity:1"/><path d="M-582.854 347.052a60.887 60.887 0 0 0 10.117 8.97c3.694 2.603 7.684 4.796 11.902 6.415a49.943 49.943 0 0 0 17.458 3.306" style="fill:none;stroke:#000;stroke-width:5;stroke-linecap:round;stroke-linejoin:round;stroke-miterlimit:4;stroke-dasharray:none;stroke-opacity:1" transform="matrix(.73077 -.53086 -.59468 -.81862 20.559 201.272)"/><path transform="matrix(.73077 .53086 .59468 -.81862 -313.149 778.185)" d="M-582.854 347.052a60.887 60.887 0 0 0 10.117 8.97c3.694 2.603 7.684 4.796 11.902 6.415a49.943 49.943 0 0 0 17.458 3.306" style="fill:none;stroke:#000;stroke-width:5;stroke-linecap:round;stroke-linejoin:round;stroke-miterlimit:4;stroke-dasharray:none;stroke-opacity:1"/><path d="M-582.854 347.052a60.887 60.887 0 0 0 10.117 8.97c3.694 2.603 7.684 4.796 11.902 6.415a49.943 49.943 0 0 0 17.458 3.306" style="fill:none;stroke:#000;stroke-width:5;stroke-linecap:round;stroke-linejoin:round;stroke-miterlimit:4;stroke-dasharray:none;stroke-opacity:1" transform="matrix(-.73077 -.53086 .59468 -.81862 -1107.315 201.272)"/><path transform="matrix(-.27907 .85904 .96232 .31262 -965.021 639.114)" d="M-582.854 347.052a60.887 60.887 0 0 0 10.117 8.97c3.694 2.603 7.684 4.796 11.902 6.415a49.943 49.943 0 0 0 17.458 3.306" style="fill:none;stroke:#000;stroke-width:5;stroke-linecap:round;stroke-linejoin:round;stroke-miterlimit:4;stroke-dasharray:none;stroke-opacity:1"/><path d="M-582.854 347.052a60.887 60.887 0 0 0 10.117 8.97c3.694 2.603 7.684 4.796 11.902 6.415a49.943 49.943 0 0 0 17.458 3.306" style="fill:none;stroke:#000;stroke-width:5;stroke-linecap:round;stroke-linejoin:round;stroke-miterlimit:4;stroke-dasharray:none;stroke-opacity:1" transform="matrix(.27907 -.85904 .96232 .31262 -661.745 -294.456)"/><circle r="24.875" cy="260.041" cx="-543.378" style="opacity:1;fill:none;fill-opacity:1;fill-rule:evenodd;stroke:#000;stroke-width:5.24919224;stroke-linecap:round;stroke-linejoin:round;stroke-miterlimit:4;stroke-dasharray:none;stroke-opacity:1;paint-order:normal"/><path style="fill:#da121a;fill-opacity:1;stroke:#000;stroke-width:5;stroke-linecap:round;stroke-linejoin:round;stroke-miterlimit:4;stroke-dasharray:none;stroke-opacity:1" d="m-558.383 41.447-12.49 35.473c4.2 1.346 8.3 3.102 12.209 5.254l.281 3.754.281-3.754a68.978 68.978 0 0 1 12.21-5.254zm-83.465 87.032-37.588.914 29.877 22.843a68.968 68.968 0 0 1 8.768-9.986l3.578.873-3.41-1.396a68.89 68.89 0 0 1-1.225-13.248zm166.93 0a68.937 68.937 0 0 1-1.227 13.248l-3.412 1.398 3.582-.875a68.925 68.925 0 0 1 8.768 9.986l29.877-22.843zm-147.543 107.193-10.744 36.03 30.955-21.354a68.925 68.925 0 0 1-6.79-11.428l1.923-3.11-2.363 2.79a68.948 68.948 0 0 1-12.98-2.928zm128.154 0a68.958 68.958 0 0 1-12.98 2.928l-2.363-2.79 1.921 3.11a68.954 68.954 0 0 1-6.789 11.43l30.957 21.351z" transform="translate(15.005 91.31)"/></g></svg>