<svg xmlns="http://www.w3.org/2000/svg" xmlns:xlink="http://www.w3.org/1999/xlink" viewBox="0 0 977.12 1067.6"><defs><path id="a" d="M222.09 852.18s13.68-7.987 20.934-11.12c5.602-2.421 11.355-4.671 17.336-5.888 5.785-1.177 17.663-1.308 17.663-1.308" stroke="#000" fill="none" stroke-linecap="round"/><path id="b" d="M333.28 852.18s-13.68-7.987-20.934-11.12c-5.602-2.421-11.355-4.671-17.336-5.888-5.785-1.177-17.663-1.308-17.663-1.308" stroke="#000" fill="none" stroke-linecap="round"/></defs><path d="M798.39 10.03c-26.17.053-51.02.198-70.798.478-79.11 1.122-156.7-.214-235.05 0-2.653.007-5.305.036-7.958.043-78.35.214-155.94 1.122-235.05 0-79.11-1.122-239.53 0-239.53 0s4.995 48.18 6.784 72.32c3.067 41.38 4.256 82.87 6.784 124.29 3.405 55.766 7.902 111.49 11.307 167.25 2.529 41.41 3.91 82.9 6.784 124.29 4.346 62.59 5.02 125.75 15.786 187.56 6.02 34.562 14.418 68.979 27.14 101.67 15.355 39.473 33.473 78.71 58.839 112.63 18.288 24.456 41.648 45.04 65.884 63.62 27.747 21.272 57.962 39.816 89.93 53.968 33.818 14.97 69.917 25.08 106.24 32.09 27.334 5.278 55.35 7.255 83.19 7.349 27.662.094 55.55-1.52 82.71-6.741 36.46-7.01 72.54-17.626 106.46-32.746 31.934-14.235 62.23-32.696 89.98-53.968 24.24-18.58 47.595-39.17 65.884-63.62 25.365-33.919 43.484-73.16 58.839-112.63 12.718-32.695 21.12-67.16 27.14-101.72 10.762-61.814 11.44-124.97 15.786-187.56 2.874-41.39 4.256-82.87 6.784-124.29 3.405-55.766 7.902-111.44 11.307-167.21 2.529-41.41 3.717-82.909 6.784-124.29 1.79-24.14 6.784-72.32 6.784-72.32s-90.24-.636-168.73-.478" fill="#da121a"/><g stroke="#000"><path d="M212.235 815.818c-19.625.682-41.11 11.81-63.28 23.625-11.02 5.871-22.21 11.826-33.688 16.469 8.354 15.554 17.624 30.573 28.16 44.656.173.232.357.456.531.688 22.287-11.884 45.34-24.16 70.25-24.16 25.633 0 49.27 13 72.16 25.19 22.888 12.195 45.1 23.656 65.22 23.656 20.13 0 42.31-11.464 65.19-23.656 22.888-12.195 46.18-25.19 71.813-25.19 25.633 0 49.27 13 72.16 25.19 22.888 12.195 45.06 23.656 65.19 23.656 20.13 0 42.34-11.464 65.22-23.656 22.888-12.195 46.575-25.19 72.22-25.19 24.785 0 47.724 12.149 69.906 23.969.142-.189.296-.373.438-.563 10.532-14.08 19.802-29.07 28.16-44.625-11.368-4.677-22.423-10.642-33.31-16.438-22.888-12.195-45.06-23.625-65.19-23.625-20.13 0-42.34 11.434-65.22 23.625-22.888 12.195-46.51 25.22-72.16 25.22-25.633 0-49.33-13.03-72.22-25.22-22.888-12.195-45.06-23.625-65.19-23.625-20.13 0-42.34 11.434-65.22 23.625-22.888 12.195-46.15 25.22-71.78 25.22-25.633 0-49.27-13.03-72.16-25.22-22.888-12.195-45.1-23.625-65.22-23.625h-.063c-.629 0-1.273-.022-1.906 0z" fill="#fff" stroke-width="5"/><path d="M798.39 10.025c-26.17.053-51.02.198-70.798.478-79.11 1.122-156.7-.214-235.05 0-2.653.007-5.305.036-7.958.043-78.35.214-155.94 1.122-235.05 0-79.11-1.122-239.53 0-239.53 0s4.995 48.18 6.784 72.32c3.067 41.38 4.256 82.87 6.784 124.29 3.405 55.766 7.902 111.49 11.307 167.25 2.529 41.41 3.91 82.9 6.784 124.29 4.346 62.59 5.02 125.75 15.786 187.56 6.02 34.562 14.418 68.979 27.14 101.67 15.355 39.473 33.473 78.71 58.839 112.63 18.288 24.456 41.648 45.04 65.884 63.62 27.747 21.272 57.962 39.816 89.93 53.968 33.818 14.97 69.917 25.08 106.24 32.09 27.334 5.278 55.35 7.255 83.19 7.349 27.662.094 55.55-1.52 82.71-6.741 36.46-7.01 72.54-17.626 106.46-32.746 31.934-14.235 62.23-32.696 89.98-53.968 24.24-18.58 47.595-39.17 65.884-63.62 25.365-33.919 43.484-73.16 58.839-112.63 12.718-32.695 21.12-67.16 27.14-101.72 10.762-61.814 11.44-124.97 15.786-187.56 2.874-41.39 4.256-82.87 6.784-124.29 3.405-55.766 7.902-111.44 11.307-167.21 2.529-41.41 3.717-82.909 6.784-124.29 1.79-24.14 6.784-72.32 6.784-72.32s-90.24-.636-168.73-.478z" fill="none" stroke-width="20"/><path d="M385.39 350.168c-11.245 0-20.344 9.13-20.344 20.375s9.1 20.375 20.344 20.375c11.245 0 20.375-9.13 20.375-20.375s-9.13-20.375-20.375-20.375zm204.19 0c-11.245 0-20.375 9.13-20.375 20.375s9.13 20.375 20.375 20.375 20.375-9.13 20.375-20.375-9.13-20.375-20.375-20.375z" fill="#fff" stroke-linejoin="round" stroke-linecap="round" stroke-width="5"/></g><g fill="#0f0406" font-family="Sans" text-anchor="middle" word-spacing="0" letter-spacing="0"><text x="584.08" y="986.95" transform="rotate(7.82)" font-size="7.545"><tspan x="584.08" y="986.95">Christian Duscha</tspan></text><text x="316.72" y="1161.56" transform="rotate(-14.29)" font-size="6.28"><tspan x="316.72" y="1161.56">Gleiwitz-Essen-Landshut</tspan></text></g><g transform="matrix(1 0 0 1 210.876 -2.239)" stroke-width="5"><use height="1067.6" width="977.12" xlink:href="#a"/><use xlink:href="#b"/></g><g transform="matrix(.7475 0 0 .7475 280.994 220.596)" stroke-width="6.689"><use height="1067.6" width="977.12" xlink:href="#a"/><use height="1067.6" width="977.12" xlink:href="#b"/></g><g stroke-width="9.29" transform="translate(339.11 406.65) scale(.53821)"><use height="1067.6" width="977.12" xlink:href="#a"/><use height="1067.6" width="977.12" xlink:href="#b"/></g><g transform="matrix(1 0 0 1 -64.096 -2.239)" stroke-width="5"><use height="1067.6" width="977.12" xlink:href="#a"/><use height="1067.6" width="977.12" xlink:href="#b"/></g><g transform="matrix(.7475 0 0 .7475 6.022 220.596)" stroke-width="6.689"><use height="1067.6" width="977.12" xlink:href="#a"/><use height="1067.6" width="977.12" xlink:href="#b"/></g><g stroke-width="9.29" transform="translate(64.138 406.65) scale(.53821)"><use height="1067.6" width="977.12" xlink:href="#a"/><use height="1067.6" width="977.12" xlink:href="#b"/></g><g transform="matrix(1 0 0 1 485.836 -2.239)" stroke-width="5"><use height="1067.6" width="977.12" xlink:href="#a"/><use height="1067.6" width="977.12" xlink:href="#b"/></g><g transform="matrix(.7475 0 0 .7475 555.954 220.596)" stroke-width="6.689"><use height="1067.6" width="977.12" xlink:href="#a"/><use height="1067.6" width="977.12" xlink:href="#b"/></g><g stroke-width="9.29" transform="translate(614.07 406.65) scale(.53821)"><use height="1067.6" width="977.12" xlink:href="#a"/><use height="1067.6" width="977.12" xlink:href="#b"/></g><g fill="#fcdd09" stroke="#000" stroke-width="5.577"><g transform="matrix(.49274 -.74908 .74862 .49305 211.94 21.194)" stroke="#000"><path d="M-1091.37 270.41c-5.171.437-10.309 11.853-14.906 16.688-3.02 3.172-5.619 6.737-8.188 10.281-3.256 4.492-6.419 9.08-9.156 13.906-4.093 7.216-6.649 15.231-10.813 22.406-2.537 4.372-4.976 8.94-8.563 12.5-1.828 1.815-4.03 5.334-6.406 4.344-4.332-1.804-1.419-9.314-2.656-13.844-1.697-6.214-5.115-11.935-6.531-18.219-1.766-7.836 5.297-21.605-2.375-23.969-3.334-1.028-4.941 5.03-6.719 8.03-1.702 2.877-2.299 6.276-3.625 9.344-1.707 3.949-4.615 7.491-5.563 11.688-.914 4.048-.321 8.3 0 12.438.342 4.406 1.23 8.753 2.063 13.09.647 3.373 4.85 7.785 2.281 10.06-2.517 2.232-6.43-1.997-9.469-3.438a37.473 37.473 0 0 1-6.156-3.656c-2.177-1.604-4.166-3.449-6.03-5.406-2.94-3.085-6.02-6.2-8.06-9.938-3.152-5.755-2.382-13.365-6.219-18.688-2.902-4.03-7.568-6.498-11.906-8.906-2.48-1.377-5.684-4.786-7.938-3.063-.535.409-.96.813-1.281 1.313-3.102 4.829 3.03 13.607 3.563 20.09.474 5.788-.355 11.728 1 17.375 1.019 4.25 2.701 8.451 5.25 12 2.984 4.154 7.304 7.207 11.344 10.344 4.225 3.281 9.01 5.768 13.406 8.813 5.3 3.668 11.622 6.377 15.656 11.406 3.628 4.523 5.459 10.33 6.938 15.938 1.83 6.944 1.898 14.235 2.281 21.406.336 6.282.087 12.585.031 18.875-.048 5.39-.902 10.829-.313 16.188 5.574 50.7 13.865 102.78 36.09 148.69 21.255 43.895 51.06 86.05 90.12 115.25 3.483 2.604 8.137 3.146 12.156 4.813 2.136.886 4.288 1.692 6.344 2.75 4.144 2.131 8.311 4.309 12 7.156 2.876 2.219 5.218 5.081 7.781 7.656 1.933 1.942 4.858 3.304 5.719 5.906 1.193 3.605-3.408 8.02-1.469 11.281-5.869 8.923-3.417 20.908 5.5 26.781 8.917 5.873 20.912 3.392 26.781-5.531 3.513.373 4.174-6.712 7.656-7.313 3.453-.595 6.172 5.04 9.594 4.281 8.917 5.873 20.881 3.423 26.75-5.5s3.417-20.908-5.5-26.781c.004-3.504-6.932-3.718-7.75-7.125-.825-3.438 4.913-6.622 3.688-9.938 5.869-8.923 3.417-20.908-5.5-26.781-8.917-5.873-17.912-3.891-23.782 5.03-4.252-1.035-9.625 7.484-13.999 7.625-7.05.227-12.391-6.724-18.438-10.344-3.657-2.189-8.294-3.414-10.781-6.875-4.29-5.969-5.678-14.06-5.311-21.404.247-4.95 3.346-6.517 4.999-14 2.218-10.05 8.098-18.955 13-28 10.486-19.349 33.17-34.03 34.969-55.969 1.063-12.954-1.988-36.653-14.969-36-11.477.578-5.18 22.568-10 33-4.653 10.07-11.194 19.24-18 28-8.102 10.428-21.596 16.92-27 28.969-4.49 19.784-13.719 38.844-13.719 38.844s-36.947-53.751-22.281-90.81c6.369-15.677 22.478-26.694 27-43 4.543-16.381 1.061-34.13-1-51-.912-7.463 2.517-22.14-5-21.969-9.476.222-2.444 18.841-5 27.969-2.987 10.668-6.491 21.389-12 31-8.257 14.405-23.09 24.403-31 39-3.432 6.332-6.471 13.01-8.781 19.906-.831-2.703-1.651-5.397-2.5-8.094 0-.031-.021-.063-.031-.094a13.454 13.454 0 0 0-.5-1.563 214.188 214.188 0 0 0-1.594-4.781c-3.587-10.361-7.688-20.55-10.906-31.03-.5-1.63-.98-3.272-1.469-4.906.171-2.5.445-4.985.813-7.438 1.515-10.11 5.62-19.748 9.969-29 3.818-8.121 9.177-15.433 14-23 6.458-10.133 15.174-18.965 20-29.969 5.097-11.622 8.68-24.314 9-37 .179-7.122-.668-14.703-4-21-1.764-3.332-4.388-9.08-8-8-9.456 2.829-2.01 19.971-6 29-6.649 15.06-19.947 26.23-28.969 40-5.888 8.989-14.177 17.49-20.969 26.438a463.726 463.726 0 0 1-4.187-30.438c-.882-8.533-.261-17.17-1.25-25.688-.809-6.963-3.953-13.68-3.813-20.688.153-7.619 2.594-15.07 5.063-22.281 1.33-3.885 3.312-7.551 5.219-11.188 3.502-6.679 7.398-13.09 11.375-19.5 4.39-7.07 10.11-13.392 13.75-20.875 1.705-3.5 3.261-7.196 3.719-11.06.506-4.273-1.861-8.605-1.125-12.844.686-3.949 3.185-7.381 5.03-10.938 3.201-6.166 15.807-13.626 10.438-18.03-.955-.784-1.917-1.081-2.875-1z" transform="matrix(.61346 .93202 -.93144 .61308 711.36 1033.22)" stroke-width="5" id="c"/><path id="d" d="M-614.12 610.72s8.831-.229 11.526 2.648c2.673 2.854 1.874 11.579 1.874 11.579" stroke-width="5.577"/><path id="e" d="M-544.19 610.72s-8.831-.229-11.526 2.648c-2.673 2.854-1.874 11.579-1.874 11.579" stroke-width="5.577"/><path id="f" d="M-342.47 160.59s3.275 8.393 6.635 11.09c4.27 3.423 15.583 5.164 15.583 5.164" stroke-width="5.577"/></g><g transform="matrix(-.49274 -.74908 -.74862 .49305 765.18 12.493)"><use xlink:href="#c"/><use height="1067.6" width="977.12" xlink:href="#d"/><use height="1067.6" width="977.12" xlink:href="#e"/><use height="1067.6" width="977.12" xlink:href="#f"/></g></g><g stroke="#000" stroke-width="5"><g fill="#fff" stroke-linejoin="round"><path d="M508.94 471.778c0-11.245-9.13-20.375-20.375-20.375s-20.375 9.13-20.375 20.375 9.13 20.375 20.375 20.375 20.375-9.13 20.375-20.375z" stroke-linecap="round"/><path d="M273.73 46.446c-3.688 0-7.362 1.424-10.188 4.25l-3.469 3.469a14.398 14.398 0 0 0 0 20.406l204.59 204.59-73.16 73.16v36.469l79.19 79.16h35.719l79.16-79.16v-36.469l-73.16-73.16 204.59-204.59a14.398 14.398 0 0 0 0-20.406l-3.469-3.469a14.398 14.398 0 0 0-20.406 0l-204.59 204.59-204.59-204.59a14.433 14.433 0 0 0-10.219-4.25zm214.81 259.62a7.31 7.31 0 0 1 4.906 1.875l57.44 57.44a7.299 7.299 0 0 1 0 10.344l-57.16 57.16a7.299 7.299 0 0 1-10.344 0l-57.19-57.16a7.299 7.299 0 0 1 0-10.344l57.19-57.19a7.232 7.232 0 0 1 5.156-2.125z"/><g stroke-linecap="round"><path d="M191.761 154.068a14.413 14.413 0 0 0 0 20.418l32.991 32.991 31.02-31.02-10.496-10.496c-5.652-5.652-5.674-14.744-.022-20.396l3.602-3.602a14.413 14.413 0 0 1 20.418 0l20.705 20.705 3.602 3.602 20.705 20.705c5.652 5.652 5.63 14.744-.022 20.396l-3.602 3.602a14.36 14.36 0 0 1-20.374 0l-10.496-10.496-31.02 31.02 32.394 32.394a14.413 14.413 0 0 0 20.418 0l62.999-62.999a14.413 14.413 0 0 0 0-20.418l-89.4-89.4a14.413 14.413 0 0 0-20.418 0l-62.999 62.999zM785.36 154.068a14.413 14.413 0 0 1 0 20.418l-32.991 32.991-31.02-31.02 10.496-10.496c5.652-5.652 5.674-14.744.022-20.396l-3.602-3.602a14.413 14.413 0 0 0-20.418 0l-20.705 20.705-3.602 3.602-20.705 20.705c-5.652 5.652-5.63 14.744.022 20.396l3.602 3.602a14.359 14.359 0 0 0 20.373 0l10.496-10.496 31.02 31.02-32.394 32.394a14.413 14.413 0 0 1-20.418 0l-62.999-62.999a14.413 14.413 0 0 1 0-20.418l89.4-89.4a14.413 14.413 0 0 1 20.418 0l62.999 62.999z"/></g></g><g fill="none" stroke-linecap="round"><path d="m264.97 247.698 23.623-23.623M208.257 190.978l23.623-23.623M712.15 247.698l-23.623-23.623M768.86 190.978l-23.623-23.623"/></g></g></svg>