<svg xmlns="http://www.w3.org/2000/svg" version="1.0" width="620.827" height="719.698"><path d="M609.99 3.164v408.639c0 158.529-132.592 297.058-300.098 297.058V4.442l300.099-1.278z" style="fill:#fd0;fill-opacity:1;stroke:none;stroke-width:12;stroke-linecap:butt;stroke-linejoin:miter;stroke-miterlimit:4;stroke-dasharray:none;stroke-opacity:1"/><path d="M6.906 4.442v408.64C6.906 571.61 143.5 710.14 311.005 710.14V5.72L6.906 4.442z" style="fill:#ed1c24;fill-opacity:1;stroke:none;stroke-width:12;stroke-linecap:butt;stroke-linejoin:miter;stroke-miterlimit:4;stroke-dasharray:none;stroke-opacity:1"/><path d="M544.733 421.07c-.76-52.554-46.67-73.467-25.764-137.274 11.789-24.57 46.435-37.766 51.94-61.895-6.062 1.094-11.022.644-11.956-5.442.256-8.808 22.155-.949 22.2-30.302-4.887 3.398-9.365 16.373-12.332 9.213-1.362-10.326 15.1-1.657 16.447-40.28-4.214 4.405-5.629 13.146-12.588 8.644-1.578-4.607 18.747-11.794 7.334-40.849-3.871 7.15-7.432 19.588-12.273 10.25 4.088-14.06 4.633-24.135.455-28.897-2.526 15.131-9.253 18.186-20.049 9.542 3.938-9.695 2.127-15.284 12.52-29.59-6.68-5.115-20.632.92-27.752 3.752 2.23-6.867-6.865-13.496-13.558-9.468-6.813 9.93-13.625 13.994-20.437 18.985-14.09 3.348-34.103 2.937-50.241 1.163-15.58-1.078-15.895 16.45-9.765 24.676l3.39 12.107c-23.659-1.16-23.144-18.434-19.274-37.946l-17.146 10.63c-7.588-3.387-15.175-4.767-22.762 0l11.67 11.366c-2.27 13.865-3.482 27.339 13.368 34.16-.76-6.45-3.81-12.9 1.138-19.349 10.317 17.096 21.684 18.457 33.005 20.486-9.127 22.662-5.015 32.558 14.796 27.315 17.18-5.294 28.906 13.196 64.872-1.138-1.064 21.16-18.562 29.993-38.393 37.077-13.911 4.97-29.746 18.38-40.31 15.977-17.869-10.088-35.738-28.434-53.606-44.238 2.464-38.783-2.14-44.4-6.953-43.64-3.357-12.49-13.403-14.278-27.076-10.263 5.282 6.264 14.567 10.303 11.305 21.313l-18.78-9.625c-14.908-5.173-18.945 5.056-21.629 17.202 4.313-2.177 9.458-8.095 11.864-1.687-1.148 10.89 19.167.263 15.375 15.107-13.005-1.477-24.345-1.497-21.062 11.278-7.949 5.505-6.419 14.457-3.125 24.05 2.79-6.389 5.589-12.737 9.39-13.07 10.948-.52 22.857-6.705 23.114 4.162-9.496 1.35-21.262.58-15.878 15.817-3.22 2.134-11.564 4.268-18.663 6.402 7.135 3.551 16.673 6.871 25.861 4.264 20.98 3.092 10.004-21.116 28.578-2.326l17.751 23.715c15.046 20.927 1.7 18.624-4.555 22.123 8.946 7.785 17.372 13.234 24.263 11.769 3.463 10.743 10.565 23.002 2.375 28.89h-28.452c-1.234-9.699 3.948-22.148-3.951-28.99-3.231-7.315-10.478-11.618-26.078-9.656 5.624 4.116 11.713 8.165 10.322 13.283-1.347 2.303-8.357 1.773-15.797 1.03-14.423-4.932-15.974 3.009-21.914 6.56l16.392 1.967c-2.344 9.562 8.757 11.013 11.688 16.989l-12.82-.023c-7.54-2.65-12.333-1.636-13.673 3.981-15.717 8.708-13.223 17.007-11.564 25.51 4.092-4.056 3.339-10.56 14.16-12.694 2.848 2.232 6.907 2.23 14.922-.703l19.71 5.209c-5.172 2.59-11 5.051-11.2 8.637-4.965 3.36-11.107 2.006-17.058 1.418 4.805 11.463 12.024 14.475 20.082 14.552 11.377 4.238 21.22-5.32 31.671-9.414 23.756-1.311 35.416 3.27 19.008 21.526 12.357-1.115 24.714.905 37.07-9.905.329 15.106 9.571 24.27 15.497 35.644-24.255 3.533-39.682 27.248-51.43 2.713-1.67 9.493-.776 20.728 6.737 31.537 4.837 6.96 4.272 19.566 9.197 28.783-10.53-5.673-20.621-9.593-32.101-19.067-7.697-8.426-2.962-17.29-3.176-22.432 4.095-7.087 5.573-12.965-3.651-13.904-2.406-5.274-6.992-9.676-14.563-12.883-.448 4.755.169 9.722-1.164 12.485-9.082.715-4.63 10.452-1.783 19.121-10.03-1.745-12.891-16.035-20.362-17.393-17.654-1.833-19.506 9.84-23.353 14.24l9.316 2.303c1.272 14.839 11.928.526 22.51 21.105-10.521.072-22.356-1.051-21.922 8.979-6.53 7.576-5.02 15.152-2.375 22.728 2.148-4.897 3.78-10.518 10.917-8.43 8.06 9.252 15.12-15.04 21.948 2.527-4.325 2.938-8.578 5.932-3.816 15.938l-14.74 3.837c10.483 6.582 20.965 8.985 31.448 7.298 9.421-1.805 5.052-13.34 7.107-17.17 7.843-2.93 8.297 3.003 11.468 5.678 1.35 10.423-5.785 24.483 15.633 26.305-2.38-5.133.072-7.366 2.758-9.459.788 15.02 6.479 21.87 13.417 26.64l2.637-6.262c14.747.173 28.013-1.362 29.516-16.47-8.78 5.222-12.537 1.583-10.699-3.497 1.765-4.873 8.927-11.011 10.312-14.778 2.689-4.527.087-19.636 0-29.715h12.52c-3.665 19.28.763 37.071-5.015 45.524 8.826-.133 15.222-6.342 22.086-11.38 4.672 26.264-14.554 45.701-30.73 66.01-5.587 3.442-19.677 3.697-33.286 4.131-7.029-3.384-14.057-7.912-21.086-4.363-10.77 4.566-17.664 9.431-15.052 15.027 4.204-3.376 8.088-4.826 11.262-2.02 3.107 9.855 10.984 6.992 16.85 9.494-1.841 12.324-27.61-.479-25.706 17.319-7.004 7.113-6.84 13.51-3.544 19.593 3.305-5.358 6.61-7.774 9.916-6.93 14.574 2.47 15.194-11.088 27.442-8.085-4.217 6.172-11.727 12.644-5.255 17.845 4.853 12.225 9.706 13.085 14.56 14.242-.663-4.802-.29-9.604 3.157-14.407 8.296 1.147.669-16.09 14.603-19.701 1.175 3.865 1.819 9.058 4.947 8.04 3.969 4.539-.247 7.713-2.007 11.297 9.526-1.665 15.439-5.738 18.767-11.535 12.325-9.086 4.015-20.002 12.885-27.185 37.122-8.189 37.967-18.271 38.284-27.002 19.229-4.967 20.72-15.58 17.385-27.727 13.86-14.972 7.865-27.297 7.29-40.345.786 14.24-16.374 28.494-14.02 1.749.509-10.8 13.547-24.405 5.69-40.972 29.482-4.066 39.18-22.969 27.315-58.044-7.144-17.283-22.418-32.94-15.546-53.027 14.83-18.12 26.619-5.98 19.662 10.58 21.012-16.808 24.169-32.723 3.851-47.463 8.852-25.66-.05-42.772-19.06-55.017 3.064 12.206 1.172 25.12-2.976 38.357-8.25-7.6-14.95-19.105-23.2-15.884 13.238 27.978-3.995 45.489-2.564 75.792-.105 12.467 20.146 35.132 22.22 58.793 1.352 15.431-4.059 20.376-16.53 17.46z" style="fill:#231f20;fill-opacity:1;fill-rule:evenodd;stroke:#231f20;stroke-width:2.04273009;stroke-linecap:butt;stroke-linejoin:miter;stroke-miterlimit:4;stroke-dasharray:none;stroke-opacity:1"/><path d="M454.36 103.24c-23.364-4.178-13.847 16.64-10.842 17.86 24.591 16.59 59.072 8.93 60.775 33.574-4.742 22.85-27.097 11.799-48.794 7.627-5.414-.459-15.015-3.156-15.333 7.44-.453 15.553 12.931 9.366 21.882 8.563 26.63.839 59.518 16.346 69.555-21.707 6.153 66.198-81.13 66.717-99.24 98.47-8.307 16.089-13.833 31.899-3.846 46.158 4.488 5.152 8.975-11.692 13.463-21.925-.703 15.428-1.805 37.235-24.348 38.85l-19.8.318c-5.333.685-6.367-2.857-7.71-6.78-.023-5.486.312-10.368.223-14.053-.153-6.364-2.73-5.61-8.37-6.026-5.447-2.359-6.394 4.625-2.067 4.944 2.625 2.137.077 4.218 1.682 17.365-4.332-7.088-12.106-9.28-17.358-17.756-2.675-.876-5.66-.044-6.63 2.405-.683 1.726-.988 4.007 3.252 8.152 4.86 6.84 9.721 9.627 14.582 13.354l-28.562.272c-9.18-1.893-5.58 5.586-5.526 10.464 2.116 1.137 6.028 3.763 10.365-2.548 8.456 1.645 11.37 5.748 33.339 9.12-3.662 2.034-3.112 5.93-5.576 6.945-2.72 1.122-6.089.854-9.81-.17-2.778.404-.817 5.28-.472 9.665.283 3.605.334 6.63 4.567 6.678 12.645 1.7 9.456-12.478 35.65-11.885 21.752.507 22.322 12.704 14.875 20.309 24.521 2.222 59.982-17.682 49.235-64.236l5.77 4.23c.247 43.035-11.715 46.52-20.002 52.95-.178 23.262 26.918 46.05 32.695 68.984 2.175 15.308-.69 19.906-2.777 26.158-7.606 16.771-4.557 30.165-7.039 45.41 19.15-5.853 18.531-19.248 24.817-18.871-.593 27.798-10.718 54.817-38.555 80.391-11.26 3.556-22.522 3.838-33.783 3.68-5.505-.078-15.522-9.63-19.639-.738.516 3.522-2.045 9.35 1.802 10.374 7.063 1.43 16.315-.11 16.722 4.74 1.313 9.738-22.48 9.852-26.618 11.977-1.307 2.847 1.064 5.963 2.005 9.22 1.03 3.563.794 7.16 3.026 7.421 3.936 1.047 12.5-7.358 18.212-9.937 4.133-2.398 8.465-5.352 9.9-.195-2.902 8.937-5.803 10.008-8.704 14.496-3.053 7.783 2.026 5.452 6.934 5.209 4.638-.23 11.43 2.988 10.962-3.255-1.554-9.452 2.705-17.265 16.194-23.374 9.569-.532-4.774 14.554 5.495 13.596 5.954-1.34 14.228 1.377 16.888-7.26 2.794-10.018-6.955-9.115.696-14.413 16.828-14.891 34.76-5.97 43.983-26.797-7.172 1.681-13.5 2.631-12.442-2.821 21.62-1.365 33.355-8.198 28.825-24.029-3.807 5.222-7.354 5.697-10.61 7.064-2.73-.714-2.046-2.798-.136-4.96 13.423-7.702 16.448-17.851 20.77-27.695-7.107 5.66-22.543 3.62-21.54-9.616 5.44-17.057 18.953-32.228 7.693-49.235 18.098-2.343 36.022-4.928 36.157-32.31-1.053-26.65-17.8-44.694-21.65-57.346-7.233-38.682 24.455-35.187 33.574-23.815 6.201-24.529-7.752-24.628-19.223-27.737 19.183-17.796 14.667-34.815-.01-51.5-.424 6.396-1.081 10.726-1.565 17.15-.75 9.958-7.605 12.907-8.05 34.777-1.193-20.737-8.582-28.127-16.925-33.464 5.108 18.836-2.127 38.583-5.87 59.687-4.328 23.849 22.691 45.873 23.564 77.247 1.347 16.741-21.8 18.631-23.079 14.617-2.666-44.778-25.643-56.824-31.816-99.86-1.764-18.38-.845-33.634 11.814-54.769 15.508-15.34 40.195-34.273 44.344-45.17-3.498 1.494-14.949.2-11.79-9.602 3.406-6.341 17.968-5.855 22.066-17.541-6.62 3.683-11.661 2.854-14.385-4.596.065-7.732 15.039-5.915 17.463-23.484-6.14-.703-11.863-1.777-13.071-6.863.18-7.401 17.226-9.796 12.543-27.831-6.231 8.872-12.23 4.163-14.309 1.962-2.592-5.235 4.67-14.762 1.056-19.086-5.815 6.417-12.982 2.922-20.453-2.802 3.087-11.312 2.863-15.103 5.705-21.192 5.37-6.748 4.795-9.171-5.909-5.942-14.577 5.84-17.454 8.545-25.962 14.384-2.508 2.255-8.861 1.947-14.555 2.077-16.168.035-31.1.892-50.37-1.141z" style="fill:#00ab4e;fill-opacity:1;fill-rule:evenodd;stroke:#231f20;stroke-width:.68091005;stroke-linecap:butt;stroke-linejoin:miter;stroke-miterlimit:4;stroke-dasharray:none;stroke-opacity:1"/><path d="M509.874 140.38c-1.028-1.421-.344-3.509 2.724-.545 9.058 13.358 8.553 21.935-1.998 31.233-3.932 1.356-5.182-.158-1.452-3.087 8.442-8.308 7.533-16.571.726-27.6zM484.2 113.085c-1.19.85-2.526 1.699 0 2.548 4.187.637 5.383 1.274 7.644 1.911.674 4.958 1.53 8.938 5.966 10.135 4.252.568 7.368-5.334 13.623-6.95 2-.402 2.193-3.367.797-4.459-5.363-3.595-18.512-2.235-28.03-3.185z" style="fill:#231f20;fill-opacity:1;fill-rule:evenodd;stroke:#231f20;stroke-width:2.115376px;stroke-linecap:butt;stroke-linejoin:miter;stroke-opacity:1"/><path d="M496.463 119.853c0 1.188-1.141 2.15-2.549 2.15-1.407 0-2.548-.962-2.548-2.15 0-1.187 1.141-2.15 2.548-2.15 1.408 0 2.549.963 2.549 2.15z" style="fill:#fff;fill-opacity:1;fill-rule:nonzero;stroke:none;stroke-width:.1;stroke-linecap:round;stroke-linejoin:round;stroke-miterlimit:4;stroke-dasharray:none;stroke-opacity:1"/><path d="M464.094 313.44c-1.698 12.349 3.814 19.756 1.495 27.691-1.519 5.2-5.397 9.315-13.895 11.305-2.037-.467-4.66-1.635-1.977-3.055 18.562-6.763 8.066-23.447 12.58-36.301l1.797.36z" style="fill:#231f20;fill-opacity:1;fill-rule:evenodd;stroke:#231f20;stroke-width:.8461504;stroke-linecap:butt;stroke-linejoin:miter;stroke-miterlimit:4;stroke-dasharray:none;stroke-opacity:1"/><path d="M530 103.889c-2.941 1.408-2.707 2.953-.817 4.225 3.47 1.204 4.55 2.168 6.339 3.204.795.514 1.59 1.202 2.385-.75.977-4.024 2.613-8.13 5.044-12.336.006-.21-.407-.02-.886-.069-1.256-.13-8.95 3.722-12.064 5.726z" style="fill:#231f20;fill-opacity:1;fill-rule:evenodd;stroke:#231f20;stroke-width:2.115376px;stroke-linecap:butt;stroke-linejoin:miter;stroke-opacity:1"/><path d="M498.594 151.065c6.174 4.88 2.332 10.975-2.462 10.606-18.485-3.931-33.39-9.49-56.816-11.174-9.912-2.759-20.7-5.633-30.112-18.37-5.133 2.553-5.27 7.246-7.197 11.173-6.326-7.827-5.716-14.708-.947-21.022l-14.393-13.067c7.57-2.403 14.045 1.221 20.643 4.166 1.165-4.962 5.834-6.857 10.984-8.333-1.295 18.807 4.009 32.587 24.62 32.764 18.5 4.06 36.284 3.826 55.68 13.257z" style="fill:#ed1c24;fill-opacity:1;fill-rule:evenodd;stroke:#231f20;stroke-width:2.115376px;stroke-linecap:round;stroke-linejoin:round;stroke-opacity:1"/><path d="M442.456 123.36c.62 5.742 1.922 9.1 3.106 12.869.822 1.767 2.652 1.78 4.304-.926.664-2.248 2.271-4.856 4.682-7.395-3.193-1.02-7.212-2.094-12.092-4.549zM443.509 162.365c2.896-4.998 3.34-7.094 5.951-10.06 1.469-1.281 3.146.114 3.56 2.37.437 2.239.957 3.653 1.95 6.891-3.333-.362-6.67-.686-11.461.799zM454.604 127.736c.62 5.743-.63 6.77.554 10.54.823 1.767 2.208 2.556 3.861-.15 1.995-2.47 2.937-4.412 5.348-6.95-2.528-1.022-4.883-.985-9.763-3.44zM465.199 130.93c-.711 3.413-.962 5.66.222 9.43.822 1.767 2.097 2.002 3.75-.704 1.995-2.47 3.269-3.302 5.68-5.841-2.33-1.054-3.374-.663-9.652-2.885z" style="fill:#fff;fill-rule:evenodd;stroke:#231f20;stroke-width:1.2692256;stroke-linecap:butt;stroke-linejoin:round;stroke-miterlimit:4;stroke-dasharray:none;stroke-opacity:1"/><path d="M474.506 133.29c-.045 2.858-.74 5.549.444 9.319.822 1.767 2.54 2.224 4.193-.482 1.995-2.47 2.604-3.414 5.015-5.953-2.117-1.138-3.25-.864-9.652-2.884zM484.902 136.176c-.045 2.859-.74 5.55.444 9.32.822 1.767 2.54 2.223 4.193-.482 1.995-2.47 2.271-2.749 4.682-5.287-2.117-1.139-2.918-1.53-9.319-3.55zM454.809 161.695c2.896-4.998 2.341-4.543 4.398-7.175 1.469-1.282 3.146.114 3.559 2.37.437 2.238.958 3.653 1.95 6.89-3.332-.361-6.337-2.128-9.907-2.085zM465.126 164.09c2.897-4.997 2.342-4.542 4.399-7.174 1.468-1.282 3.145.114 3.559 2.37.437 2.238.958 3.653 1.95 6.89-3.333-.361-6.337-2.128-9.908-2.085z" style="fill:#fff;fill-rule:evenodd;stroke:#231f20;stroke-width:1.2692256;stroke-linecap:butt;stroke-linejoin:round;stroke-miterlimit:4;stroke-dasharray:none;stroke-opacity:1"/><path d="M474.667 166.31c2.897-4.998 2.342-4.543 4.399-7.175 1.468-1.282 3.146.114 3.559 2.37.437 2.238.958 3.653 1.95 6.89-3.333-.361-6.337-2.128-9.908-2.085z" style="fill:#fff;fill-rule:evenodd;stroke:#231f20;stroke-width:1.2692256;stroke-linecap:butt;stroke-linejoin:round;stroke-miterlimit:4;stroke-dasharray:none;stroke-opacity:1"/><path d="M186.404 349.457C191.2 384 172.057 378.442 162.8 394.361c-1.93-16.277-1.462-32.954-12.09-47.782-32.861-42.484-87.516-58.549-84.05-122.622 21.324-91.45 121.798-65.719 130.106-24.18 47.126-35.603 75.448-.39 75.627 32.828 2.279 34.35-48.343 58.345-71.021 94.4-24.923-30.9-80.751-56.104-82.511-87.01-2.205-39.296 11.295-48.399 43.364-55.185-33.359-27.948-80.756 12.392-80.597 41.45 1.556 48.48 66.306 76.586 104.776 123.197z" style="fill:#231f20;fill-opacity:1;fill-rule:evenodd;stroke:#231f20;stroke-width:2.115376px;stroke-linecap:butt;stroke-linejoin:miter;stroke-opacity:1"/><path d="M182.374 359.244c-6.274 1.158-9.01 8.508-10.938 17.27-2.433-8.827-1.719-17.654 4.605-26.481 2.567-2.303 2.451-4.606-.576-6.908-30.565-29.783-67.256-49.355-90.383-91.535-7.985-21.253-12.216-43.084 21.876-70.81 48.782-21.794 73.498.272 85.202 46.055-17.096-4.526-30.647 5.838-44.903 13.24 10.925-10.382 14.341-17.143 39.147-20.148-5.404-11.827-9.108-26.543-20.15-28.785-34.266-.41-44.254 16.836-44.904 40.874.04 15.973 6.71 23.66 12.666 32.239 24.66 24.585 49.207 30.512 62.75 52.388 1.094 1.073 4.559 1.227 8.004-2.401 26.484-25.479 58.406-51.78 62.806-72.439 1.962-18.294-.73-48.765-35.693-52.388-16.26 2.447-21.325 6.571-27.467 10.388-3.698 2.572-3.594 2.926-2.818 6.366 1.231 3.837 1.299 8.255 1.5 12.606 21.013-1.139 33.24 5.41 42.026 14.968 1.122 2.401-4.255.677-8.092-1.628-10.238-6.152-18.44-9.228-33.358-7.583l.45 9.858c8.321 1.852 16.643 5.127 24.964 13.52-.1 3.761-3.137.916-5.493-.398-5.973-2.441-12.122-7.3-18.643-5.358l-.126 10.587c3.815 1.93 7.87 3.382 10.544 7.595.257 3.665-1.58 1.196-3.568.932-2.346-1.627-3.648-3.973-7.706-3.318l-3.876 17.819c-1.192-22.246.344-41.185-3.706-66.78-2.829-16.946-11.026-31.33-34.236-40.41-14.977-5.858-34.614-7.9-58.423 3.495-33.734 21.744-40.801 56.594-30.37 83.546 16.825 46.079 81.185 67.991 89.89 115.714 1.073 9.96 3.303 11.812 5.758 12.09 7.694-5.156 20.896-14.511 13.24-24.18z" style="fill:#fff;fill-rule:evenodd;stroke:#231f20;stroke-width:1.4807632;stroke-linecap:round;stroke-linejoin:round;stroke-miterlimit:4;stroke-dasharray:none;stroke-opacity:1"/><path d="M162.256 249.666c-.543 1.854-.43 3.053 2.49 1.442 6.641-6.582 15.692-9.455 26.878-9.046 2.02-1.005 1.78-2.01-.394-3.015-14.719-2.402-22.16 3.74-28.974 10.62zM179.562 260.548c-.488.987-2.011 3.016 1.835 2.098 2.997-2.713 6.143-5.053 9.833-6.031 1.747-1.093 1.913-4.676-.13-4.458-5.115 1.891-8.87 4.753-11.538 8.391z" style="fill:#231f20;fill-opacity:1;fill-rule:evenodd;stroke:#231f20;stroke-width:1.057688;stroke-linecap:butt;stroke-linejoin:round;stroke-miterlimit:4;stroke-dasharray:none;stroke-opacity:1"/><path d="M483.755 452.605c1.064 2.203 2.639 4.575-1.769 4.954-6.303 1.064-16.841.434-14.507 4.954 2.83 37.88-8.713 29.189-11.027 39.627-1.801 7.945.12 12.788 9.612 11.324-9.803 12.36-29.162 15.408-27.599-10.969-2.222 4.99-1.582 15.705-2.123 24.06-13.97-12.004-5.095-19.54-13.091-31.49-5.256-.682-4.004 7.745-4.954 13.091-12.547 3.416-7.69-21.332-11.676-26.537-7.312-3.967-7.548-6.61-10.969-6.015-6.163 3.552-3.183 19.403-12.737 18.753-1.658-4.172.113-6.174-1.766-8.13-1.999-2.082-4.123-.787-6.372-2.485-6.06-7.94 8.179-9.206 7.43-14.507-3.655-4.778-7.31-6.772-10.966-7.112-4.365-.407-8.73 4.375-13.094 3.928-2.375-6.47-5.606-7.132-7.43-11.676.57-4.292 21.017-1.958 31.844-2.831-7.285-6.303-12.012-11.967-22.645-19.107-5.35-1.711-12.853-2.192-12.03-7.43 3.07-3.961 4.318-12.176 9.907-10.261 7.208 7.43 18.245 14.86 21.23 22.291 1.699.711 3.46 1.738 4.245-2.123.86-.519.677-2.604-.35-5.953l-.357-6.077c-3.93-2.769-2.88-5.972-2.123-10.615 7.73-.348 17.557-1.593 19.106.708-.067 2.41.563 4.402-4.031 9.529.317 7.29-.792 18.15 1.2 21.254 15.143 10.28 27.042 18.26 40.337 22.998 2.718.826 4.843-1.533 4.246-4.245-8.447-8.217-10.587-26.596-13.552-31.34-4.138-5.163-7.759-11.19-7.324-21.027 11.684 11.054 14.515 4.568 22.645 3.185l18.4-5.662c5.687-3.264 10.822 7.291 15.567 27.599-.035 8.056 1.141 14.9 6.723 17.337z" style="fill:#00ab4e;fill-opacity:1;fill-rule:evenodd;stroke:#231f20;stroke-width:.8461504;stroke-linecap:butt;stroke-linejoin:miter;stroke-miterlimit:4;stroke-dasharray:none;stroke-opacity:1"/><path d="M474.912 406.098c-1.806-2.069-5.157-2.99-4.986 1.702 3.57 9.969 11.005 23.527 10.459 29.673-.533 5.438.298 9.513 3.648 11.067 2.583-1.83 6.156-1.224 4.743-12.89-2.31-8.365-7.014-18.27-13.864-29.552z" style="fill:#00ab4e;fill-opacity:1;fill-rule:evenodd;stroke:#231f20;stroke-width:1.48076308;stroke-linecap:butt;stroke-linejoin:miter;stroke-miterlimit:4;stroke-dasharray:none;stroke-opacity:1"/><path d="M438.045 236.593c3.164 1.763 1.446 3.526.441 5.29-7.454 9.458-14.214 19.888-18.072 34.381-.7 4.7-2.732 7.267-7.053 6.171l-8.816-5.29c5.802-3.17 10.639-7.047 5.73-18.072l-34.381-41.875c-11.034-3.319-10.029 6.606-14.612 10.384-9.298 1.966-5.451-4.037-8.09-6.643-3.65-3.606-6.148-6.074-5.068-8.149 1.059-4.288 13.831-5.962 23.8-6.451 5.498.071 5.619-.372 1.231-3.541-3.623-2.194-7.574-3.193-11.337-7.5-10.171-3.084-15.973 4.513-22.07 1.623-5.957-10.2-4.571-16.32 9.038-15.65 6.927.423 11-.226 12.12-1.981-2.077-4.34-3.35-9.216-9.585-10.785-8.287-3.448-9.115-6.322-8.046-9.05 4.448-3.512 8.659-11.295 13.785-2.6 5.963 5.92 12.784 14.243 15.307 10.533.613-4.375 1.066-8.72-1.878-12.384 1.016-3.523 3.853-3.843 6.583-4.223 3.877-.54 7.813.184 8.389 3.345 1.905 13.376-2.143 33.154 4.097 41.473l48.487 40.994z" style="fill:#00ab4e;fill-opacity:1;fill-rule:evenodd;stroke:#231f20;stroke-width:.6346128;stroke-linecap:butt;stroke-linejoin:miter;stroke-miterlimit:4;stroke-dasharray:none;stroke-opacity:1"/><path d="M506.76 95.51c-1.996 2.276-1.735 3.706.386 4.439 6.982.207 10.02-1.496 13.703-2.703 2.96-3.022 5.513-5.77 6.948-12.352.114-6.568-3.729-2.518-5.79-.965-5.082 5.277-10.165 8.28-15.247 11.58z" style="fill:#00ab4e;fill-opacity:1;fill-rule:evenodd;stroke:#231f20;stroke-width:1.05768788;stroke-linecap:butt;stroke-linejoin:miter;stroke-miterlimit:4;stroke-dasharray:none;stroke-opacity:1"/><path d="M328.593 161.228c4.685-2.678 7.92-3.589 12.061-2.454 6.29-1.425 8.13-7.088 6.747-8.995-12.235-7.18-16.444 5.407-18.808 11.449zM359.463 137.104c4.472 3.922 8.83 7.89 10.63 12.88 5.453 1.24 8.911-.24 8.382-7.156-3.925-5.727-8.635-10.213-19.012-5.724zM331.864 192.302c-3.868 4.377-3.044 10.057-2.045 15.129 1.7-2.585 2.258-3.742 5.929-8.791 1.327-4.833-1.063-8.5-3.884-6.338zM333.295 226.239c5.974-1.159 11.251-2.317 14.515-3.476 5.332-.251 5.268 4.517 4.497 6.747-6.004.22-10.986 2.487-19.012-3.271zM339.428 296.157c3.03-4.705 11.642-5.699 20.648-3.885-.755 4.033-2.21 7.166-6.746 6.338-2.364-2.884-8.886-2.223-13.902-2.453zM368.05 277.553c8.372-1.226 14.522 1.5 17.99 8.995-2.44 2.657-5.337 3.792-9.404 1.022-.94-4.108-5.056-6.946-8.587-10.017zM326.548 338.884c-.399-6.204 1.854-12.055 9.609-17.173 2.733.695 4.795 5.487 2.249 10.018-3.953.46-7.905 3.643-11.858 7.155zM350.263 350.128c.95 7.307 10.453 7.565 15.333 9.813 3.587-2.044 2.042-9.608-.409-11.04-4.543 2.135-9.892 1.048-14.924 1.227zM383.178 397.762c3.588 2.602 7.499 4.8 8.995 10.018-3.012 1.186-5.48 4.007-10.018.613l1.023-10.63zM337.588 421.886c2.3-5.048 6.02-10.73 13.697-8.79 2.278 2.93-3.57 9.948-5.315 8.79-1.472-1.322-4.754-.834-8.382 0zM341.268 472.382c-2.52-7.994 1.967-11.318 3.884-16.355 8.202-1.8 9.28 9.707 7.36 10.835-3.868.562-7.89 2.389-11.244 5.52zM360.485 492.622c5.49-.78 12.291-3.11 15.128-4.907 6.047-.118 4.27 6.285 4.09 8.586-4.832 1.2-11.676 0-19.218-3.68zM433.714 623.708c1.999 6.966 4.932 9.574 8.182 10.7.225-3.421-.014-6.472 2.203-11.487-3.462-.573-6.923-2.913-10.385.787zM402.559 601.994c-4.92 4.563-6.25 9.126-4.878 13.69 3.364-3.682 6.497-5.288 9.441-5.194 2.692.802 2.295-12.001-4.563-8.496zM400.513 573.986c-1.016-5.379 4.285-8.762 11.172-11.644 3.478 1.987 2.813 9.686 0 9.755-5.14-2.368-7.448.072-11.172 1.889z" style="fill:#ed1c24;fill-opacity:1;fill-rule:evenodd;stroke:#231f20;stroke-width:2.11537576px;stroke-linecap:butt;stroke-linejoin:miter;stroke-opacity:1"/><path d="M5.3 429.876c30.484-5.966 42.386 5.838 60.464 7.752 21.816-.872 29.347-11.378 51.208-9.878 21.942 2.869 25.807 8.53 43.755 8.607 17.417.207 23.654-10.782 44.178-10.092 25.364 3.73 30.478 12.577 47.082 11.187 19.523-1.16 37.838-13.835 58.757-5.715v32.573c-21.411-6.645-26.378 2.046-60.232 5.606-22.686-2.161-32.397-12.16-46.98-9.456-24.553 1.487-22.574 5.665-41.858 7.134-13.365.368-29.947-8.276-45.616-7.175-23.485-.32-28.76 5.439-49.256 7.224-19.72-.572-28.732-8.012-55.918-2.402L5.3 429.876zM16.065 491.538c21.749-1.118 32.668 7.692 48.07 9.323 21.817-.872 29.347-11.378 51.209-9.878 21.942 2.869 25.806 8.53 43.755 8.607 17.417.207 23.654-10.782 44.178-10.092 25.364 3.73 30.478 12.577 47.082 11.187 19.523-1.16 39.837-13.835 60.756-5.715v32.573c-21.41-6.645-28.377 2.046-62.232 5.606-22.686-2.161-32.396-12.16-46.979-9.456-24.553 1.487-22.574 5.665-41.858 7.134-13.366.368-29.947-8.276-45.617-7.175-23.485-.32-28.76 5.439-49.256 7.224-13.832-.401-22.395-4.18-35.656-4.467C17.39 508 14.238 493.762 16.065 491.538z" style="fill:#fff;fill-rule:evenodd;stroke:#231f20;stroke-width:6.34612799;stroke-linecap:butt;stroke-linejoin:miter;stroke-miterlimit:4;stroke-dasharray:none;stroke-opacity:1"/><path d="M613.827 7v408.64c0 158.528-135.864 297.057-303.37 297.057C142.843 712.697 7 574.168 7 415.64V7h606.827z" style="fill:none;fill-opacity:1;stroke:#231f20;stroke-width:14;stroke-linecap:butt;stroke-linejoin:miter;stroke-miterlimit:4;stroke-dasharray:none;stroke-opacity:1"/><path d="M310.787 8.268v702.404" style="fill:none;fill-rule:evenodd;stroke:#231f20;stroke-width:9;stroke-linecap:butt;stroke-linejoin:miter;stroke-miterlimit:4;stroke-dasharray:none;stroke-opacity:1"/></svg>