<svg xmlns="http://www.w3.org/2000/svg" width="974.122" height="1064.598" viewBox="0 0 974.126 1064.601"><path style="fill:#fff" d="M796.886 8.54c-26.17.052-51.02.197-70.798.477-79.11 1.122-156.7-.214-235.05 0-2.653.007-5.305.036-7.958.043-78.35.214-155.94 1.122-235.05 0-79.11-1.122-239.53 0-239.53 0s4.995 48.18 6.784 72.32c3.067 41.38 4.256 82.87 6.784 124.29 3.405 55.766 7.902 111.49 11.307 167.25 2.529 41.41 3.91 82.9 6.784 124.29 4.346 62.59 5.02 125.75 15.786 187.56 6.02 34.562 14.418 68.98 27.14 101.67 15.355 39.473 33.473 78.71 58.839 112.63 18.288 24.456 41.648 45.04 65.884 63.62 27.747 21.272 57.962 39.816 89.93 53.968 33.818 14.97 69.917 25.08 106.24 32.09 27.334 5.278 55.35 7.255 83.19 7.35 27.662.093 55.55-1.52 82.71-6.742 36.46-7.01 72.54-17.626 106.46-32.746 31.934-14.235 62.23-32.696 89.98-53.968 24.24-18.58 47.595-39.17 65.884-63.62 25.365-33.919 43.484-73.16 58.839-112.63 12.718-32.695 21.12-67.16 27.14-101.72 10.762-61.814 11.44-124.97 15.786-187.56 2.874-41.39 4.256-82.87 6.784-124.29 3.405-55.766 7.902-111.44 11.307-167.21 2.529-41.41 3.717-82.909 6.784-124.29 1.79-24.14 6.784-72.32 6.784-72.32s-90.24-.636-168.73-.478"/><path transform="translate(1008.435)" style="fill:#000;stroke:#000;stroke-width:1.00000405px;stroke-linecap:butt;stroke-linejoin:miter;stroke-opacity:1" d="M-645.624 804.124c6.197 2.039 13.268 1.235 18.85-2.142 3.269-1.978 6.018-4.788 7.994-8.058 1.975-3.27 3.18-6.993 3.573-10.793.899-8.669-2.606-17.636-8.997-23.563-3.354-3.11-7.408-5.401-10.71-8.568-4.692-4.5-7.663-10.569-12.424-14.994-5.326-4.951-12.421-7.436-19.279-9.854-5.686-2.005-11.448-4.1-16.3-7.68-5.597-4.132-9.749-10.077-15.675-13.721-6.074-3.735-13.383-4.684-20.292-6.446-10.617-2.707-20.585-7.458-30.429-12.268a1800.02 1800.02 0 0 1-23.551-11.724 58.634 58.634 0 0 1-11.661 4.378 57.57 57.57 0 0 1-14.901 1.835c-4.02-.038-8.102-.524-11.782-2.143-1.642-.722-3.22-1.693-4.332-3.1a6.586 6.586 0 0 1-1.217-2.38c-.23-.866-.252-1.793-.02-2.66.183-.68.516-1.31.857-1.927a67.535 67.535 0 0 1 2.11-3.564c-.58-.65-1.215-1.25-1.896-1.792-2.63-2.094-5.857-3.27-8.783-4.926-2.81-1.592-5.437-3.738-6.854-6.64-.665-1.362-1.042-2.841-1.5-4.285-.349-1.101-.749-2.19-1.285-3.213-1.28-2.444-3.293-4.43-5.466-6.13-2.173-1.7-4.53-3.15-6.744-4.795-6.273-4.66-11.456-11.092-13.495-18.636-1.387-5.133-1.282-10.538-1.071-15.851.343-8.605.959-17.308 3.642-25.491 2.005-6.118 5.17-11.877 9.425-16.708 4.536-5.15 10.234-9.176 16.28-12.424 1.394-.75 2.817-1.463 4.32-1.958 1.505-.494 3.1-.766 4.676-.613 1.888.183 3.674.968 5.284 1.97 1.61 1.003 3.07 2.225 4.57 3.385a72.752 72.752 0 0 0 4.498 3.213 7.691 7.691 0 0 1 2.357-.856 7.724 7.724 0 0 1 4.284.428 111.94 111.94 0 0 1 3.856-12.424c5.963-15.888 15.658-30.451 28.49-41.557 7.342-6.355 15.84-11.63 25.276-13.923a45.573 45.573 0 0 1 11.139-1.285c-1.798 4.025-3.8 7.96-5.998 11.781-3.429 5.963-7.344 11.678-10.068 17.994a53.257 53.257 0 0 0-4.07 15.637c3.128-4.183 6.49-8.19 10.068-11.996 13.507-14.37 30.12-25.83 48.411-33.202a134.07 134.07 0 0 1 28.276-7.926 50.39 50.39 0 0 1-4.927 12.21c-3.17 5.604-7.386 10.552-10.71 16.066a58.91 58.91 0 0 0-5.142 10.924 56.235 56.235 0 0 1 13.067-4.927c12.336-2.965 25.229-1.679 37.915-1.499 9.275.131 18.626-.35 27.633-2.57 12.817-3.161 24.55-9.751 35.344-17.351 9.121-6.422 17.682-13.6 26.562-20.35 6.296-4.786 12.872-9.42 20.35-11.996a41.761 41.761 0 0 1 10.282-2.142 74.694 74.694 0 0 1-5.998 7.069c-2.178 2.266-4.52 4.42-6.212 7.069a18.128 18.128 0 0 0-2.356 5.57 50.717 50.717 0 0 0 7.711-3c5.642-2.743 10.91-6.708 13.924-12.21.615-1.123 1.136-2.318 1.322-3.585.185-1.267.01-2.619-.68-3.698-.727-1.136-1.964-1.876-3.264-2.238-1.3-.361-2.67-.38-4.019-.332-5.95.212-11.81 1.676-17.35 3.856a69.146 69.146 0 0 0-14.353 7.711 74.54 74.54 0 0 1 2.785-7.497c2.093-4.824 4.711-9.468 5.998-14.566 1.04-4.124 1.171-8.495.214-12.639-1.252-5.422-4.32-10.304-8.14-14.352a43.438 43.438 0 0 0-8.996-7.283 42.874 42.874 0 0 1 7.586-1.363c8.612-.757 17.353 1.136 25.187 4.79 10.85 5.06 19.912 13.344 27.633 22.492 1.093 1.295 2.17 2.616 3.453 3.723 1.283 1.106 2.802 1.998 4.473 2.275.99.165 2.002.11 2.999 0 1.898-.21 3.778-.622 5.57-1.285 3.686-1.365 6.906-3.753 10.496-5.355 5.133-2.29 11-2.9 16.494-1.714-2.511.85-4.77 2.43-6.427 4.499-.723.902-1.339 1.907-1.682 3.012-.343 1.105-.4 2.317-.031 3.414a4.716 4.716 0 0 0 3.213 2.999c1.29.339 2.671.106 3.92-.362 1.248-.468 2.397-1.161 3.577-1.78 1.334-.7 2.72-1.31 3.985-2.129 1.266-.817 2.426-1.871 3.084-3.227.573-1.18.734-2.526.663-3.837-.071-1.31-.365-2.596-.663-3.874-1.336-5.726-2.832-11.54-5.998-16.494-.695-1.087-1.466-2.126-2.112-3.243-.647-1.117-1.17-2.33-1.315-3.612a5.63 5.63 0 0 1 .13-2.044 4.446 4.446 0 0 1 .94-1.812c.833-.948 2.087-1.456 3.343-1.571 1.256-.115 2.52.133 3.727.5 5.472 1.67 9.843 5.69 14.352 9.211 6.252 4.883 13.17 9.05 18.422 14.995 5.07 5.738 8.31 12.82 12.424 19.279 4.077 6.402 9.158 12.326 15.637 16.28 6.677 4.074 14.47 5.857 21.635 8.996 4.407 1.931 8.71 4.418 13.495 4.927 2.953.314 5.939-.15 8.815-.887 2.876-.736 5.676-1.742 8.536-2.54a61.073 61.073 0 0 1 12.853-2.142 9.28 9.28 0 0 1 .214 4.927c-.602 2.603-2.311 4.867-2.785 7.497-.284 1.58-.1 3.23.446 4.74.546 1.509 1.446 2.88 2.553 4.042 2.123 2.23 4.979 3.68 7.962 4.441 2.984.763 6.1.871 9.175.7a51.821 51.821 0 0 0 15.851-3.427 7.907 7.907 0 0 1 1.285 6.426c-.434 1.802-1.488 3.379-2.46 4.956-.972 1.578-1.902 3.264-2.038 5.112-.09 1.224.182 2.465.72 3.568.538 1.103 1.337 2.071 2.279 2.858 1.812 1.515 4.132 2.35 6.48 2.598 2.35.246 4.73-.07 7.015-.67 3.828-1.004 7.447-2.795 11.353-3.427a19.726 19.726 0 0 1 8.997.642 23.66 23.66 0 0 1-6.64 7.284c-1.519 1.086-3.167 1.992-4.611 3.175-1.444 1.183-2.706 2.711-3.101 4.536a5.742 5.742 0 0 0 .643 4.07 6.177 6.177 0 0 0 1.928 2.01c.781.517 1.666.869 2.581 1.069 1.83.4 3.75.192 5.558-.294 1.454-.39 2.868-.96 4.362-1.145.746-.092 1.511-.085 2.243.09s1.43.524 1.964 1.055c.49.49.83 1.126.977 1.804.146.677.1 1.394-.12 2.051-.36 1.073-1.162 1.955-2.093 2.598-.93.644-1.99 1.072-3.048 1.472-2.155.815-4.374 1.546-6.287 2.83-.957.641-1.83 1.42-2.505 2.354-.675.933-1.147 2.026-1.276 3.17a6.04 6.04 0 0 0 .642 3.428c.663 1.282 1.767 2.302 3.016 3.024 1.25.723 2.644 1.163 4.053 1.474 2.015.445 4.076.635 6.111.97 2.036.333 4.076.823 5.885 1.815.453.248.891.529 1.27.88.378.351.695.777.872 1.262.224.616.21 1.306.011 1.93-.2.625-.579 1.184-1.049 1.64-.94.913-2.206 1.404-3.46 1.785-3.036.923-6.28 1.362-8.997 3-.965.58-1.87 1.339-2.356 2.356-.466.974-.504 2.12-.233 3.164.272 1.045.835 1.997 1.518 2.833 1.772 2.172 4.35 3.603 7.069 4.285 3.65.915 7.557.558 11.138 1.713.65.21 1.29.47 1.858.851.568.381 1.063.888 1.356 1.505.269.569.359 1.213.304 1.84-.054.626-.247 1.235-.519 1.802-.599 1.25-1.574 2.3-2.702 3.105-1.13.805-2.41 1.378-3.724 1.822-3.928 1.325-8.206 1.531-11.996 3.213-1.22.542-2.384 1.239-3.344 2.168-.959.929-1.707 2.101-2.01 3.401-.25 1.065-.195 2.191.09 3.247.286 1.056.799 2.043 1.444 2.926 1.29 1.767 3.077 3.101 4.892 4.324 3.302 2.225 6.885 4.264 9.21 7.497a13.714 13.714 0 0 1 2.357 5.57 88.12 88.12 0 0 1-4.65.72c-2.23.285-4.525.48-6.703-.078-1.073-.275-2.092-.727-3.159-1.022-1.067-.294-2.226-.424-3.268-.049a4.1 4.1 0 0 0-1.625 1.114 5.733 5.733 0 0 0-1.039 1.686c-.805 1.962-.696 4.214-.039 6.23.658 2.015 1.829 3.825 3.116 5.509 3.15 4.12 7.124 7.732 9.18 12.494a18.002 18.002 0 0 1 1.332 4.884 8.865 8.865 0 0 1-5.998.643c-2.406-.6-4.43-2.172-6.426-3.642-.943-.694-1.909-1.38-2.992-1.826-1.083-.446-2.308-.638-3.434-.316-.68.195-1.302.57-1.818 1.054a5.962 5.962 0 0 0-1.243 1.705c-.63 1.266-.869 2.689-1.01 4.096-.496 4.971.144 10.037 1.714 14.78a38.905 38.905 0 0 0 10.497 16.28 12.91 12.91 0 0 1-7.022-.12c-3.065-.93-5.718-2.983-8.83-3.736-1.526-.37-3.15-.408-4.656.04-1.505.447-2.88 1.405-3.698 2.745-.95 1.558-1.088 3.513-.702 5.297.385 1.784 1.25 3.427 2.202 4.985 2.492 4.081 5.682 7.847 7.068 12.424.67 2.211.89 4.558.643 6.855a1546.94 1546.94 0 0 1-10.282-3c-3.863-1.14-7.762-2.304-11.781-2.57a26.86 26.86 0 0 0-6.855.429 177.194 177.194 0 0 1-31.703 50.339c-21.072 23.493-48.374 41.1-77.972 52.052-20.438 7.563-42.346 12.051-64.048 10.068-7.423-.678-14.87-2.107-22.278-1.285-1.812.2-3.612.537-5.355 1.07-3.091.948-5.957 2.5-8.783 4.07a451.697 451.697 0 0 0-8.996 5.142 18.713 18.713 0 0 1-4.927-4.499 18.688 18.688 0 0 1-2.356-4.07 85.55 85.55 0 0 0-11.354 3.856c-4.13 1.735-8.12 3.792-12.274 5.468-4.154 1.677-8.524 2.978-13.002 3.1a25.519 25.519 0 0 1-6.426-.642 12.394 12.394 0 0 1 4.712-4.927c.904-.526 1.882-.942 2.695-1.6.406-.33.77-.72 1.023-1.178.254-.457.395-.985.352-1.506a2.57 2.57 0 0 0-.626-1.447 3.377 3.377 0 0 0-1.302-.91c-.921-.371-1.955-.387-2.934-.216-.979.17-1.916.518-2.85.86-3.634 1.328-7.32 2.58-11.138 3.212a35.572 35.572 0 0 1-7.712.429 101.498 101.498 0 0 0 4.284-4.07c.944-.95 1.893-1.957 2.357-3.213a4.993 4.993 0 0 0-.429-4.284c-2.995.259-5.965.798-8.86 1.608-6.018 1.684-11.883 4.561-18.13 4.39a19.008 19.008 0 0 1-5.784-1.072 7.053 7.053 0 0 0 1.714-2.784 7.12 7.12 0 0 0-.642-5.784c-3.501-.075-7-.28-10.485-.611-5.589-.533-11.246-1.426-16.292-3.887a28.146 28.146 0 0 1-8.14-5.998z"/><path style="fill:#fcdd09;stroke:none;stroke-width:1.00000405px;stroke-linecap:butt;stroke-linejoin:miter;stroke-opacity:1;fill-opacity:1" d="M332.418 482.306a127.738 127.738 0 0 0-21.597 7.13c-24.531 10.608-45.841 29.525-57.047 53.788-6.333 13.712-9.38 28.912-8.965 44.01.339 12.365 3.034 24.799 8.965 35.654.742 1.36 1.541 2.702 2.564 3.866 1.023 1.164 2.287 2.15 3.752 2.654 1.146.395 2.381.484 3.588.375 1.207-.109 2.39-.411 3.543-.783 3.245-1.046 6.279-2.639 9.371-4.075 4.025-1.868 8.179-3.486 12.022-5.705 1.98-1.144 3.935-2.51 5.093-4.482 1.068-1.817 1.36-4.032 1.018-6.111-.452-2.747-1.928-5.197-3.055-7.743-3.577-8.085-3.637-17.273-2.853-26.08 1.09-12.27 3.714-24.446 8.353-35.857 5.803-14.274 14.627-27.085 23.43-39.731a5815.6 5815.6 0 0 1 11.818-16.91zm-67.607 4.924a66.475 66.475 0 0 0-8.543 3.648c-11.474 5.879-21.02 14.995-29.084 25.053-6.177 7.703-11.745 16.47-12.67 26.3a30.748 30.748 0 0 0 0 5.76c1.078.551 2.995.558 4.51.575 2.009.023 4.053-.105 5.994-.623 2.32-.62 4.37-1.993 6.582-2.928 2.417-1.022 4.998-1.686 7.308-2.932 2.293-1.236 4.701-2.473 6.418-4.459 1.511-1.747 2.508-3.903 3.07-6.144.638-2.54.733-5.176 1.057-7.774.613-4.912 2.056-9.71 4.127-14.207 2.66-5.775 6.332-11.038 9.024-16.799a55.125 55.125 0 0 0 2.207-5.47z"/><path style="fill:#fff;stroke:none;stroke-width:1px;stroke-linecap:butt;stroke-linejoin:miter;stroke-opacity:1" d="M566.607 441.03a70.546 70.546 0 0 0-5.04 4.632c-5.78 5.853-10.486 12.663-15.805 18.938-5.565 6.564-11.821 12.569-16.756 19.619-1.718 2.454-3.278 5.041-4.367 7.832-1.09 2.79-1.702 5.8-1.493 8.789a16.674 16.674 0 0 0 4.497 10.217 112.613 112.613 0 0 1 12.806-21.252c4.582-5.993 9.758-11.513 14.352-17.496 4.594-5.983 8.65-12.542 10.58-19.834a38.1 38.1 0 0 0 1.226-11.446zm48.502 15.26a6.975 6.975 0 0 0-2.861 2.997c-.522 1.058-.766 2.235-.871 3.41-.105 1.176-.078 2.357-.084 3.537-.03 5.593-.837 11.16-2.043 16.621-2.51 11.364-6.813 22.445-13.623 31.881-4.568 6.33-10.272 11.96-13.488 19.073a31.5 31.5 0 0 0-2.043 6.13v.682c1.745.593 3.611.827 5.449.682 3.803-.301 7.315-2.189 10.353-4.496 9.338-7.092 14.942-18.142 18.122-29.428 3.01-10.687 4.117-21.883 3.54-32.97a110.86 110.86 0 0 0-2.45-18.12zm-60.355 45.095c-1.515-.071-3.03.358-4.36 1.09-2.316 1.274-4.09 3.478-4.904 5.994-.47 1.451-.63 2.982-.818 4.496-.226 1.812-.496 3.66-.135 5.45.335 1.66 1.218 3.197 2.451 4.358.883.832 1.957 1.481 3.135 1.772 1.386.342 2.862.178 4.219-.266 1.357-.443 2.61-1.154 3.818-1.914 2.74-1.723 5.327-3.747 7.358-6.267 1.052-1.307 1.956-2.757 2.45-4.36.172-.554.294-1.127.311-1.707.018-.58-.073-1.17-.31-1.699-.227-.505-.58-.946-.987-1.322-.406-.377-.863-.693-1.328-.994-1.98-1.283-4.11-2.314-6.267-3.27-1.48-.656-3.016-1.286-4.633-1.361zm-88.828 20.844c-4.505.079-9.007 1.463-12.67 4.087a20.882 20.882 0 0 0-5.994 6.676 46.4 46.4 0 0 1 17.302 1.906c4.826 1.488 9.473 3.822 13.079 7.358 2.24 2.198 4.03 4.805 5.859 7.357.513.717 1.031 1.434 1.648 2.063.617.629 1.34 1.17 2.166 1.478.57.213 1.189.31 1.791.23.603-.079 1.189-.342 1.616-.775.38-.385.62-.888.775-1.406.155-.518.229-1.056.315-1.59.37-2.312.974-4.608.953-6.949-.031-3.31-1.34-6.53-3.325-9.18-1.984-2.649-4.615-4.759-7.439-6.486-4.833-2.956-10.412-4.87-16.076-4.77zm-28.21 24.046c-.231.02-.461.081-.673.178a2.586 2.586 0 0 0-1.041.906c-.525.77-.676 1.732-.73 2.662-.147 2.502.306 5.027 1.226 7.358 2.24 5.676 7.13 9.973 12.535 12.807 6.223 3.263 13.272 4.841 20.299 4.904 6.993.062 13.915-1.34 20.709-2.998.977-.239 1.97-.49 2.826-1.018a3.952 3.952 0 0 0 1.117-1.002c.299-.405.503-.886.553-1.386.065-.647-.13-1.3-.445-1.868-.316-.568-.747-1.06-1.19-1.537-2.057-2.21-4.438-4.133-7.086-5.586-1.215-.666-2.487-1.234-3.814-1.634-1.366-.413-2.815-.647-4.223-.41-1.757.295-3.308 1.293-4.767 2.316-2.68 1.877-5.284 3.94-8.313 5.178-3.356 1.37-7.214 1.637-10.625.408-3.692-1.33-6.575-4.24-9.129-7.221-2.062-2.407-4.065-5.055-4.632-8.174-.135-.74-.187-1.502-.438-2.21a3.063 3.063 0 0 0-.547-.981 2.013 2.013 0 0 0-.922-.623 1.81 1.81 0 0 0-.69-.069zm-254.927 1.221c-1.83.01-3.657.337-5.387.938-5.031 1.746-9.022 5.656-12.246 9.896a57.467 57.467 0 0 0-8.89 16.943c-2.232 6.855-3.133 14.097-3.188 21.305-.065 8.596 1.194 17.558 6.04 24.658 2.709 3.97 6.423 7.175 10.446 9.805 4.024 2.63 8.372 4.72 12.704 6.803 4.574 2.199 9.181 4.411 14.09 5.703 3.549.934 7.273 1.376 10.904.84 5.565-.822 10.52-3.844 15.767-5.871 4.988-1.927 10.285-2.963 15.602-3.524a91.766 91.766 0 0 1 10.4-.504 12.883 12.883 0 0 0-4.697-4.193c-3.007-1.568-6.506-1.883-9.897-1.846-7.162.08-14.237 1.597-21.136 3.524-2.55.712-5.095 1.484-7.717 1.845a25.209 25.209 0 0 1-6.877 0 2.542 2.542 0 0 1-.168-2.181c.192-.486.531-.901.92-1.25.389-.35.827-.637 1.26-.93 3.622-2.452 6.997-5.347 9.562-8.89 2.732-3.774 4.5-8.274 4.865-12.919.356-4.515-.63-9.137-2.853-13.084-2.11-3.747-5.251-6.808-8.555-9.562-1.205-1.005-2.44-1.978-3.525-3.111-1.085-1.133-2.024-2.444-2.514-3.934-.584-1.778-.5-3.71-.203-5.557.298-1.847.802-3.658 1.043-5.513.387-2.984.077-6.067-.978-8.885-1.056-2.818-2.862-5.363-5.229-7.22a15.45 15.45 0 0 0-7.717-3.186 15.286 15.286 0 0 0-1.826-.1zm-15.193 30.147a4.458 4.458 0 0 1 1.687.326c.715.282 1.36.716 1.947 1.21 1.417 1.191 2.54 2.78 2.971 4.579.559 2.336-.076 4.784-.867 7.053a46.057 46.057 0 0 1-2.598 6.064c-.437.843-.904 1.673-1.263 2.553-.36.88-.611 1.817-.592 2.767.017.854.252 1.693.596 2.475.343.782.794 1.51 1.26 2.226.818 1.259 1.692 2.488 2.35 3.836.21.428.399.872.472 1.342.073.47.02.973-.225 1.381-.261.434-.722.725-1.213.852-.49.126-1.009.102-1.508.013-1.344-.238-2.581-.936-3.59-1.855-1.799-1.641-2.882-3.946-3.462-6.31-.84-3.423-.707-6.995-.745-10.518-.042-3.88-.299-7.774.125-11.631.148-1.34.385-2.698 1.022-3.885a5.243 5.243 0 0 1 1.256-1.568 3.927 3.927 0 0 1 1.804-.858c.19-.033.381-.05.573-.052zm21.547.498c.447-.004.893.05 1.324.17.862.24 1.658.755 2.172 1.488.408.582.628 1.279.742 1.98.368 2.274-.333 4.564-.867 6.805-.31 1.298-.566 2.64-.371 3.959.165 1.12.65 2.17 1.214 3.152.566.982 1.218 1.916 1.756 2.912 1.84 3.404 2.289 7.392 2.227 11.26-.03 1.86-.183 3.768-.99 5.444-.567 1.175-1.46 2.207-2.598 2.845-1.081.606-2.399.84-3.59.496a3.662 3.662 0 0 1-1.467-.81 3.073 3.073 0 0 1-.882-1.418c-.231-.826-.067-1.738.37-2.475.42-.705 1.06-1.245 1.608-1.855.549-.61 1.019-1.313 1.238-2.104.187-.672.187-1.385.076-2.074-.11-.689-.326-1.356-.57-2.01-.55-1.472-1.239-2.895-2.103-4.207-1.632-2.476-3.852-4.51-5.569-6.928-.941-1.326-1.732-2.776-2.172-4.341-.44-1.566-.518-3.255-.056-4.815.455-1.539 1.406-2.886 2.474-4.084 1.284-1.439 2.833-2.748 4.703-3.217a5.68 5.68 0 0 1 1.33-.173zm162.146 25.054c-.59-.006-1.184.004-1.775.034-6.245.307-12.223 2.692-18.45 3.263-3.387.311-6.801.08-10.197.287-3.395.207-6.874.898-9.67 2.836-.572.397-1.117.85-1.506 1.428-.388.577-.607 1.294-.48 1.978.079.427.288.822.566 1.155.279.332.625.605.994.832 1.544.948 3.484 1.111 5.25.709 2.258-.514 4.226-1.866 6.387-2.696a15.38 15.38 0 0 1 5.11-.994c2.802-.07 5.573.572 8.373.71 3.627.177 7.238-.497 10.785-1.278 3.28-.722 6.575-1.542 9.933-1.56 4.762-.027 9.365 1.554 13.909 2.98 3.844 1.207 7.84 2.378 10.927 4.967.552.462 1.072.971 1.483 1.562.41.591.71 1.271.789 1.987a3.606 3.606 0 0 1-1.278 3.12c-.613.504-1.383.792-2.166.924-.782.133-1.582.118-2.375.07-2.691-.158-5.354-.68-7.947-1.42-6.077-1.731-11.81-4.66-18.023-5.818-3.873-.721-7.84-.736-11.78-.708-5.254.036-10.59.154-15.61 1.703-4.233 1.304-8.218 3.615-12.632 3.972-2.201.179-4.407-.14-6.603-.38-2.196-.24-4.441-.399-6.594.097-3.123.72-5.765 2.737-8.658 4.115-1.784.85-3.671 1.46-5.48 2.252-1.81.793-3.576 1.799-4.88 3.283-.328.374-.627.78-.822 1.239-.194.458-.277.971-.17 1.457.075.336.24.65.461.914.222.263.5.476.805.637.609.32 1.31.429 1.998.437 2.188.027 4.287-.906 6.101-2.129 1.314-.885 2.515-1.927 3.788-2.869 1.272-.942 2.64-1.796 4.16-2.24 2.283-.668 4.718-.366 7.095-.283 5.27.183 10.526-.742 15.612-2.13 7.318-1.995 14.555-4.981 22.138-4.826 5.613.116 11.03 1.955 16.32 3.833 5.713 2.026 11.452 4.133 17.456 4.966 3.856.535 7.906.513 11.496-.992 2.05-.859 3.936-2.228 5.11-4.115.838-1.35 1.29-2.962 1.134-4.543-.111-1.13-.526-2.216-1.111-3.19-.585-.973-1.337-1.838-2.153-2.628-2.29-2.22-5.07-3.873-7.947-5.25-5.582-2.675-11.579-4.373-17.598-5.819-4.032-.968-8.14-1.834-12.275-1.879z"/><path style="fill:#000;stroke:none;stroke-width:1.00000405px;stroke-linecap:butt;stroke-linejoin:miter;stroke-opacity:1" d="M783.91 837.717a87.765 87.765 0 0 0-4.302.061c-19.933.777-38.874 8.354-57.561 15.336-18.687 6.982-38.202 13.557-58.104 12.203-12.819-.872-25.162-5.006-37.326-9.144-12.164-4.139-24.472-8.347-37.28-9.381-19.898-1.607-39.528 4.534-58.455 10.883-18.927 6.348-38.252 13.062-58.211 12.65-16.746-.346-32.933-5.701-48.82-11.006-15.888-5.305-32.073-10.667-48.82-11.025-18.753-.402-36.991 5.485-54.94 10.933-17.95 5.448-36.562 10.57-55.216 8.594-17.02-1.803-32.79-9.38-48.549-16.057-15.759-6.676-32.559-12.651-49.592-10.982-12.366 1.212-23.972 6.388-35.049 12.018a391.43 391.43 0 0 0-14.537 7.794c7.463 13.354 15.643 26.265 24.776 38.477 18.288 24.456 41.649 45.04 65.885 63.62 27.747 21.272 57.962 39.815 89.93 53.967 33.818 14.97 69.915 25.08 106.238 32.09 27.334 5.278 55.35 7.255 83.19 7.35 27.662.093 55.551-1.52 82.711-6.741 36.46-7.01 72.54-17.626 106.46-32.746 31.934-14.235 62.23-32.697 89.98-53.97 24.24-18.58 47.595-39.169 65.884-63.619 8.308-11.11 15.825-22.798 22.736-34.87-3.33-2.401-6.744-4.687-10.236-6.847-18.333-11.334-39.312-19.366-60.792-19.588z"/><path style="fill:#0f47af;fill-opacity:1;stroke:none;stroke-width:1px;stroke-linecap:butt;stroke-linejoin:miter;stroke-opacity:1" d="M775.25 853.063c-19.593.195-38.269 7.726-56.473 14.972-18.204 7.247-37.088 14.433-56.673 13.887-12.575-.35-24.822-3.89-36.842-7.598-12.02-3.707-24.098-7.635-36.623-8.8-20.269-1.887-40.44 3.546-59.975 9.269-19.535 5.723-39.381 11.85-59.732 11.393-17.284-.388-34.063-5.514-50.62-10.493-16.556-4.978-33.432-9.895-50.72-9.841-17.962.056-35.413 5.468-52.664 10.468-17.252 5-35.037 9.682-52.94 8.227-16.776-1.364-32.59-8.027-48.26-14.172-15.67-6.145-31.995-11.933-48.818-11.41-7.76.241-15.496 1.851-22.629 4.92-6.172 2.655-11.817 6.453-16.695 11.068 5.107 8.273 10.523 16.34 16.338 24.115 18.288 24.456 41.649 45.04 65.885 63.62 27.746 21.271 57.961 39.815 89.93 53.966 33.817 14.97 69.915 25.08 106.238 32.09 27.333 5.278 55.35 7.256 83.189 7.35 27.662.094 55.551-1.52 82.71-6.74 36.46-7.01 72.54-17.626 106.46-32.747 31.934-14.234 62.23-32.696 89.98-53.968 24.24-18.58 47.594-39.17 65.883-63.62 5.946-7.95 11.479-16.202 16.686-24.671a937.732 937.732 0 0 0-19.85-8.168c-17.262-6.864-35.21-13.302-53.785-13.117zm11.215 11.097c3.62.11 7.2.82 10.707 1.727 8.743 2.258 17.148 5.733 25.098 10.015 2.734 1.474 5.475 3.066 8.52 3.686 1.702.347 3.503.39 5.065 1.15.745.363 1.426.896 1.842 1.612.467.802.568 1.792.354 2.695-.214.903-.728 1.721-1.39 2.371-.818.8-1.856 1.355-2.948 1.693-1.093.34-2.241.47-3.385.495-3.384.073-6.734-.762-9.9-1.958-5.174-1.953-9.925-4.858-14.852-7.369-6.41-3.266-13.304-5.915-20.492-6.216-5.24-.22-10.451.813-15.543 2.072-6.092 1.505-12.272 3.428-17.154 7.369-.933.753-1.82 1.58-2.871 2.156a5.415 5.415 0 0 1-1.684.61c-.591.1-1.21.075-1.777-.118-.688-.233-1.283-.712-1.698-1.308a4.284 4.284 0 0 1-.72-2.031c-.104-1.086.165-2.19.68-3.153.514-.962 1.265-1.785 2.12-2.46 1.712-1.353 3.803-2.114 5.834-2.907 5.582-2.18 11-4.772 16.637-6.805 5.637-2.032 11.567-3.507 17.557-3.326zm-571.18 19.889c1.043-.02 2.088.001 3.13.064 9.565.578 18.56 4.483 27.507 7.916 8.937 3.43 18.156 6.461 27.705 7.123 6.125.425 12.346-.146 18.207-1.978 6.301-1.97 12.143-5.368 18.603-6.729 2.236-.47 4.544-.69 6.81-.396 2.264.293 4.49 1.12 6.251 2.574.983.811 1.826 1.832 2.248 3.035.211.602.315 1.243.277 1.88a4.004 4.004 0 0 1-.544 1.814c-.461.77-1.195 1.349-1.999 1.748-.803.399-1.679.63-2.554.824-5.451 1.21-11.113 1.072-16.623 1.978-5.771.95-11.285 3.028-16.813 4.938-5.528 1.91-11.188 3.679-17.03 3.969-9.914.492-19.516-3.292-28.497-7.52-3.997-1.882-7.957-3.87-12.129-5.322s-8.601-2.363-13.004-2.002c-2.64.216-5.227.886-7.719 1.781-3.577 1.286-6.995 3.045-10.685 3.96-1.16.286-2.352.49-3.545.44-1.194-.048-2.394-.361-3.381-1.035a5.402 5.402 0 0 1-1.785-2.074 5.88 5.88 0 0 1-.59-2.676c.026-1.676.746-3.289 1.781-4.607s2.372-2.369 3.76-3.309c6.043-4.092 13.317-6.256 20.62-6.396zm472.158 4.668c.274-.008.547 0 .82.025 1.094.103 2.19.529 2.92 1.348.49.549.794 1.25.922 1.974.129.725.088 1.474-.058 2.196-.396 1.958-1.545 3.706-2.985 5.092-1.44 1.385-3.163 2.439-4.921 3.388-8.163 4.41-17.342 6.803-26.594 7.475-7.663.557-15.427-.052-22.856-2.012-6.347-1.675-12.553-4.345-19.117-4.457-6.92-.118-13.524 2.616-20.27 4.168-1.706.393-3.472.713-5.2.43-.865-.142-1.709-.437-2.44-.918-.731-.482-1.345-1.155-1.701-1.955a4.544 4.544 0 0 1-.361-2.15c.05-.733.26-1.451.576-2.114.633-1.325 1.677-2.412 2.802-3.355 3.46-2.9 7.797-4.622 12.235-5.444 4.438-.821 8.995-.78 13.496-.449 12.571.925 24.923 4.082 37.518 4.6 5.704.234 11.493-.087 16.962-1.725 5.378-1.61 10.35-4.46 15.813-5.75.801-.19 1.62-.345 2.44-.367zm95.446.687c3.218-.025 6.435.16 9.562.89 6.88 1.609 12.985 5.779 19.918 7.138 1.382.27 2.785.428 4.152.761 1.368.334 2.72.858 3.792 1.772.58.495 1.072 1.102 1.388 1.797.316.694.451 1.478.338 2.232-.17 1.136-.874 2.115-1.611 2.994-1.035 1.234-2.193 2.385-3.569 3.223-1.047.638-2.23 1.09-3.455 1.152-1.255.065-2.495-.278-3.683-.691-4.658-1.618-8.842-4.333-13.24-6.563-3.94-1.997-8.1-3.622-12.448-4.41-4.347-.788-8.897-.715-13.111.612-3.666 1.153-7.039 3.231-10.82 3.914-1.318.237-2.702.296-3.975-.12a4.8 4.8 0 0 1-1.732-.982 3.787 3.787 0 0 1-1.086-1.662c-.255-.817-.19-1.711.084-2.522.273-.81.747-1.541 1.296-2.197 2.007-2.392 4.97-3.77 7.944-4.72 5.486-1.756 11.284-2.303 17.039-2.534 1.07-.043 2.144-.075 3.217-.084zm-364.168 3.123c7.22.168 14.393 1.584 21.34 3.6 8.248 2.394 16.276 5.642 24.724 7.187 3.81.697 7.807 1.031 11.498-.142 3.171-1.008 5.918-3.067 9.057-4.17 1.426-.501 2.94-.8 4.45-.707 1.508.094 3.015.6 4.175 1.57a6.112 6.112 0 0 1 2.156 4.744c-.029 1.354-.52 2.672-1.258 3.807-.738 1.135-1.715 2.097-2.767 2.95-5.089 4.12-11.852 5.652-18.399 5.75-9.48.14-18.765-2.446-27.886-5.032-7.913-2.243-15.855-4.51-24.006-5.607-4.912-.662-9.932-.891-14.807 0-4.955.905-9.62 2.936-14.375 4.6-1.329.464-2.679.904-4.078 1.062-1.4.157-2.865.015-4.115-.631a5.578 5.578 0 0 1-2.178-2.028 5.747 5.747 0 0 1-.84-2.859c-.027-1.173.308-2.342.883-3.365.574-1.023 1.381-1.904 2.3-2.633 1.84-1.458 4.083-2.297 6.303-3.059 7.987-2.739 16.285-4.795 24.725-5.03a60.362 60.362 0 0 1 3.098-.007zm346.718 20.274c2.705-.023 5.433.166 8.131.289 4.622.21 9.284.22 13.817 1.15 5.437 1.115 10.524 3.518 15.886 4.951.789.211 1.594.405 2.305.805.356.2.687.451.951.762.265.31.462.682.543 1.082.07.345.054.704-.027 1.047a3.587 3.587 0 0 1-.402.972c-.355.609-.841 1.128-1.297 1.664-1.237 1.454-2.315 3.103-3.914 4.145-1.13.736-2.465 1.123-3.809 1.236-1.344.114-2.7-.037-4.02-.314-3.354-.706-6.478-2.208-9.671-3.455-6.148-2.402-12.765-3.894-19.342-3.338-4.189.354-8.266 1.526-12.434 2.072-.872.114-1.761.2-2.627.045a3.905 3.905 0 0 1-1.238-.434 2.878 2.878 0 0 1-.969-.878 2.83 2.83 0 0 1-.453-1.256c-.052-.447-.007-.901.106-1.336.225-.87.715-1.648 1.267-2.358 2.274-2.923 5.642-4.88 9.211-5.87 2.603-.723 5.282-.958 7.986-.981zm-475.716 2.744c4.726.063 9.505 1.107 14.183 2.014 2.92.565 5.865 1.08 8.662 2.087 2.798 1.007 5.476 2.546 7.37 4.838.871 1.055 1.573 2.282 1.824 3.627.125.673.136 1.37.002 2.041a4.396 4.396 0 0 1-.838 1.852c-.599.762-1.469 1.29-2.4 1.555-.933.265-1.925.278-2.881.127-1.914-.304-3.66-1.239-5.407-2.077-7.003-3.358-14.858-5.357-22.56-4.353-7.36.959-14.078 4.555-21.174 6.728-5.754 1.763-11.8 2.59-17.813 2.375-5.84-.209-11.668-1.412-17.02-3.761-2.916-1.281-5.75-2.917-8.903-3.364-3.75-.531-7.507.676-11.282.989-.934.077-1.88.099-2.802-.063-.923-.162-1.827-.514-2.54-1.123-.738-.63-1.244-1.518-1.468-2.463-.225-.945-.176-1.944.082-2.88.573-2.083 2.142-3.78 3.959-4.948 3.294-2.117 7.365-2.673 11.28-2.574 4.31.109 8.595.949 12.665 2.375 5.624 1.97 10.852 5.053 16.625 6.531 3.87.992 7.966 1.233 11.873.397 3.93-.842 7.544-2.733 11.096-4.614 3.552-1.88 7.15-3.794 11.068-4.69 2.112-.481 4.25-.655 6.399-.626zm327.33 1.094c1.91.006 3.824.282 5.709.619 7.05 1.26 13.93 3.364 20.986 4.6 4.845.848 9.753 1.285 14.662 1.581 3.704.224 7.478.363 11.069-.574 1.793-.468 3.512-1.198 5.31-1.648 1.798-.45 3.744-.607 5.47.066.684.266 1.324.663 1.82 1.203.495.54.839 1.23.911 1.96.074.739-.134 1.487-.488 2.14-.355.653-.851 1.219-1.38 1.74-2.778 2.733-6.488 4.3-10.206 5.463-6.352 1.986-13.13 2.972-19.693 1.87-7.263-1.221-14.057-4.946-21.418-5.177-5.192-.162-10.35 1.438-15.526 1.006-1.674-.14-3.356-.501-4.826-1.314-1.47-.813-2.716-2.115-3.223-3.717-.373-1.18-.33-2.473.047-3.65.378-1.178 1.081-2.24 1.965-3.106 1.825-1.786 4.365-2.706 6.904-2.97a17.84 17.84 0 0 1 1.907-.092zm-187.059 8.127c3.935.042 7.858.503 11.647 1.548 6.79 1.874 12.957 5.558 19.693 7.62 3.532 1.08 7.299 1.706 10.926 1.005 2.553-.493 4.93-1.62 7.295-2.7 2.365-1.082 4.789-2.139 7.367-2.475 1.552-.203 3.177-.129 4.613.496.718.312 1.38.76 1.908 1.338a4.557 4.557 0 0 1 1.096 2.047c.243 1.064.05 2.205-.44 3.181-.488.976-1.259 1.793-2.144 2.432-1.77 1.277-3.943 1.835-6.04 2.437-6.028 1.732-11.99 4.065-18.257 4.313-5.138.203-10.247-1.02-15.056-2.838-4.81-1.818-9.37-4.227-13.979-6.506-3.308-1.635-6.804-3.241-10.494-3.162-2.492.054-4.902.878-7.193 1.86-2.292.98-4.52 2.127-6.895 2.882-1.58.502-3.269.829-4.89.486-.811-.17-1.593-.513-2.235-1.037-.642-.524-1.14-1.235-1.355-2.035a4.01 4.01 0 0 1-.032-1.877 5.18 5.18 0 0 1 .74-1.73c.69-1.058 1.69-1.875 2.74-2.574 4.336-2.887 9.62-3.991 14.807-4.457a63.61 63.61 0 0 1 4.49-.247 55.877 55.877 0 0 1 1.688-.007zm-118.332 16.572c6.088.157 12.139 1.478 17.377 4.52 1.88 1.091 3.693 2.453 4.75 4.353.388.698.668 1.466.732 2.262.065.795-.099 1.622-.535 2.29-.361.556-.898.985-1.5 1.262-.601.278-1.265.408-1.927.43-1.325.044-2.622-.334-3.895-.703-6.77-1.961-13.758-3.798-20.78-3.166-7.966.717-15.26 4.534-22.757 7.322-8.92 3.317-18.388 5.227-27.904 5.344-2.82.035-5.666-.09-8.395-.803-2.728-.712-5.352-2.05-7.24-4.144-.536-.595-1.015-1.255-1.297-2.004-.282-.75-.355-1.595-.088-2.35.16-.45.435-.856.777-1.19.343-.332.751-.594 1.186-.79.87-.394 1.835-.527 2.787-.594 4.553-.32 9.09.761 13.654.793 7.871.055 15.387-2.984 22.76-5.74 8.646-3.232 17.519-6.16 26.717-6.926a52.919 52.919 0 0 1 2.969-.164c.869-.024 1.74-.025 2.61-.002zm314.262 2.945c10.556.025 21.073 1.22 31.623 1.58 8.62.295 17.25.031 25.875.145 1.631.021 3.303.064 4.82.666.759.3 1.47.743 2.026 1.34.556.597.952 1.353 1.06 2.162.119.887-.114 1.8-.549 2.584-.434.783-1.062 1.444-1.752 2.015-2.683 2.222-6.28 3.078-9.763 3.116-3.484.037-6.924-.67-10.36-1.246-9.592-1.612-19.323-2.223-29.037-2.73-8.392-.44-16.99-.78-25.012 1.724-1.72.537-3.421 1.206-5.214 1.382-.897.089-1.813.05-2.682-.189s-1.69-.685-2.31-1.338c-.952-1.001-1.371-2.45-1.223-3.824.148-1.374.833-2.663 1.799-3.65 1.093-1.118 2.525-1.86 4.017-2.327 1.492-.466 3.053-.672 4.608-.836 4.009-.422 8.042-.583 12.074-.574zm-197.674 7.15c.919-.004 1.838.013 2.754.038 7.232.197 14.62 1.014 21.13 4.168 2.271 1.1 4.408 2.47 6.723 3.472 2.316 1.002 4.891 1.628 7.364 1.127 2.13-.431 4-1.652 5.902-2.707.95-.527 1.927-1.021 2.961-1.357 1.034-.336 2.132-.511 3.213-.393.953.105 1.886.443 2.656 1.014.77.57 1.373 1.377 1.656 2.293.215.693.243 1.439.123 2.154a6.1 6.1 0 0 1-.75 2.031c-.726 1.257-1.816 2.263-2.966 3.147-2.587 1.987-5.585 3.46-8.77 4.168-6.027 1.339-12.339-.11-18.111-2.3-3.694-1.403-7.27-3.108-10.989-4.446-3.718-1.338-7.63-2.31-11.58-2.166-4.129.15-8.117 1.51-12.218 2.011-.958.118-1.936.187-2.883 0-.947-.186-1.87-.654-2.436-1.437-.507-.702-.687-1.608-.597-2.469.089-.86.43-1.68.884-2.418.829-1.346 2.03-2.44 3.381-3.261 1.351-.821 2.852-1.377 4.383-1.77 2.663-.683 5.414-.883 8.17-.898zm229.314 12.665c2.045-.016 4.089.228 6.02.884 1.046.356 2.073.844 2.857 1.622.392.388.719.847.93 1.357.211.51.303 1.073.238 1.621-.102.864-.593 1.648-1.232 2.238-.64.59-1.42 1.006-2.217 1.356-1.912.839-3.963 1.34-6.037 1.58-3.2.369-6.465.12-9.63.719-1.56.295-3.076.792-4.63 1.113-1.554.32-3.185.46-4.715.037-1.048-.29-2.039-.857-2.728-1.7-.69-.841-1.053-1.972-.865-3.044.133-.761.53-1.46 1.05-2.031.52-.572 1.159-1.026 1.825-1.418 2.741-1.617 5.939-2.234 9.056-2.875 2.664-.548 5.328-1.134 8.037-1.362.678-.057 1.36-.092 2.041-.097zm-340.123 6.181c.669-.004 1.336.01 2.004.051 2.672.163 5.375.78 7.616 2.244.99.647 1.892 1.47 2.453 2.512.28.52.472 1.093.535 1.682a3.731 3.731 0 0 1-.217 1.744c-.296.76-.866 1.398-1.55 1.842-.685.443-1.48.7-2.288.818-1.615.235-3.253-.07-4.871-.285-3.341-.446-6.723-.505-10.092-.397-3.44.11-6.872.394-10.29.791-4.066.473-8.122 1.109-12.073 2.178-2.743.742-5.472 1.7-8.313 1.781-1.608.047-3.268-.21-4.648-1.039a5.408 5.408 0 0 1-1.742-1.64 4.364 4.364 0 0 1-.733-2.268 4.467 4.467 0 0 1 .487-2.09 5.948 5.948 0 0 1 1.312-1.71c1.064-.978 2.399-1.606 3.742-2.138 10.243-4.048 21.66-3.084 32.653-3.76 2.003-.122 4.01-.302 6.015-.316zm162.217 8.85a7.052 7.052 0 0 1 1.653.113c1.089.21 2.135.727 2.878 1.551.807.893 1.215 2.11 1.227 3.312.012 1.204-.354 2.394-.94 3.446-1.016 1.826-2.67 3.236-4.5 4.248-1.828 1.011-3.837 1.653-5.849 2.22-8.04 2.27-16.652 3.451-24.723 1.293-2.827-.755-5.532-1.906-8.324-2.783s-5.738-1.482-8.639-1.097c-1.655.219-3.247.755-4.851 1.218-1.604.464-3.256.86-4.924.793-1.407-.056-2.819-.46-3.965-1.279s-2.003-2.073-2.215-3.465c-.196-1.288.167-2.626.871-3.722.705-1.096 1.732-1.96 2.866-2.602 1.876-1.061 4.037-1.53 6.187-1.684 2.15-.152 4.31-.003 6.463.102 3.223.157 6.47.216 9.63.863 4.654.953 8.987 3.159 13.657 4.026 3.593.666 7.39.502 10.78-.864 1.914-.771 3.659-1.904 5.433-2.959 1.774-1.055 3.623-2.049 5.637-2.502a9.432 9.432 0 0 1 1.648-.228z"/><path d="M796.886 8.54c-26.17.052-51.02.197-70.798.477-79.11 1.122-156.7-.214-235.05 0-2.653.007-5.305.036-7.958.043-78.35.214-155.94 1.122-235.05 0-79.11-1.122-239.53 0-239.53 0s4.995 48.18 6.784 72.32c3.067 41.38 4.256 82.87 6.784 124.29 3.405 55.766 7.902 111.49 11.307 167.25 2.529 41.41 3.91 82.9 6.784 124.29 4.346 62.59 5.02 125.75 15.786 187.56 6.02 34.562 14.418 68.98 27.14 101.67 15.355 39.473 33.473 78.71 58.839 112.63 18.288 24.456 41.648 45.04 65.884 63.62 27.747 21.272 57.962 39.816 89.93 53.968 33.818 14.97 69.917 25.08 106.24 32.09 27.334 5.278 55.35 7.255 83.19 7.35 27.662.093 55.55-1.52 82.71-6.742 36.46-7.01 72.54-17.626 106.46-32.746 31.934-14.235 62.23-32.696 89.98-53.968 24.24-18.58 47.595-39.17 65.884-63.62 25.365-33.919 43.484-73.16 58.839-112.63 12.718-32.695 21.12-67.16 27.14-101.72 10.762-61.814 11.44-124.97 15.786-187.56 2.874-41.39 4.256-82.87 6.784-124.29 3.405-55.766 7.902-111.44 11.307-167.21 2.529-41.41 3.717-82.909 6.784-124.29 1.789-24.14 6.784-72.32 6.784-72.32s-90.24-.636-168.73-.478z" style="fill:none;stroke:#000;stroke-width:17.00006866;stroke-linecap:round;stroke-linejoin:round;stroke-miterlimit:4;stroke-dasharray:none"/><path d="M172.525 57.5c-.397.01-.794.029-1.19.06-3.167.251-6.29 1.207-8.996 2.871-4.318 2.655-7.38 6.96-9.68 11.477-2.299 4.517-3.95 9.336-6.175 13.89-1.696 3.47-3.748 6.812-6.483 9.54-2.734 2.727-6.2 4.82-10.008 5.47-4.027.688-8.15-.256-12.048-1.478-5.19-1.627-10.216-3.753-15.434-5.285-2.536-.745-5.132-1.352-7.774-1.438-2.64-.086-5.343.373-7.658 1.648-2.843 1.567-4.934 4.28-6.232 7.256-1.3 2.976-1.868 6.219-2.225 9.446-.36 3.251-.513 6.543-.121 9.79.392 3.249 1.346 6.462 3.082 9.235 1.817 2.904 4.414 5.224 6.998 7.473 2.585 2.249 5.225 4.503 7.166 7.326 1.118 1.625 1.99 3.432 2.436 5.354.445 1.921.452 3.96-.112 5.85-.81 2.719-2.764 5.001-5.103 6.609-2.339 1.607-5.05 2.595-7.791 3.328-5.645 1.51-11.688 2.07-16.701 5.072-5.425 3.249-9.054 9.327-9.303 15.645-.244 6.159 2.582 12.174 6.765 16.7 5.263 5.695 12.571 9.316 17.336 15.433 3.336 4.28 5.227 9.604 5.708 15.01.25 2.811.1 5.776-1.268 8.246-1.36 2.454-3.776 4.15-6.29 5.4-2.512 1.25-5.196 2.141-7.663 3.478-2.498 1.354-4.76 3.17-6.512 5.405-1.753 2.235-2.986 4.894-3.424 7.701-.534 3.429.134 6.988 1.592 10.137 1.458 3.149 3.675 5.906 6.229 8.256 6.367 5.86 14.61 9.146 22.41 12.896 2.563 1.233 5.121 2.543 7.295 4.377 2.173 1.835 3.956 4.256 4.543 7.04.58 2.753-.082 5.724-1.692 8.032-2.069 2.967-5.437 4.696-8.244 6.977-5.407 4.394-8.82 11.213-8.879 18.18-.06 7.192 3.366 14.155 8.455 19.238 5.535 5.528 12.84 8.953 20.284 11.36 7.443 2.406 15.153 3.897 22.632 6.187 8.734 2.674 17.228 6.494 24.311 12.26 1.352 1.1 2.655 2.277 3.746 3.637 1.091 1.36 1.968 2.916 2.385 4.61.432 1.754.36 3.593.16 5.39-.199 1.796-.52 3.584-.582 5.39-.187 5.54 2.08 10.84 4.44 15.856 3.133 6.66 6.685 13.421 12.472 17.969 6.35 4.989 14.62 6.713 22.62 7.822a208.27 208.27 0 0 0 17.757 1.691 6.936 6.936 0 0 0 .424-3.804c-.2-1.163-.697-2.258-1.312-3.264-.616-1.006-1.35-1.933-2.07-2.867-6.052-7.852-11.179-16.38-17.124-24.313-1.488-1.986-3.033-3.94-4.267-6.094-1.235-2.152-2.16-4.535-2.287-7.013-.137-2.645.645-5.28 1.904-7.61 2.855-5.286 7.964-8.943 13.105-12.05 13.22-7.991 27.933-13.723 39.745-23.678 3.702-3.12 7.094-6.646 9.76-10.688 2.665-4.041 4.589-8.616 5.25-13.412.657-4.771.03-9.74-1.973-14.12-2.004-4.379-5.403-8.138-9.654-10.402-1.978-1.052-4.128-1.787-5.989-3.035-.93-.623-1.785-1.38-2.428-2.297-.642-.917-1.065-2.005-1.097-3.125-.028-.969.237-1.936.695-2.79.459-.855 1.105-1.6 1.844-2.23 1.477-1.256 3.289-2.04 5.072-2.802 6.597-2.819 13.293-5.624 19.026-9.936 7.22-5.43 12.76-13.452 13.953-22.408.743-5.584-.22-11.355-2.537-16.49-1.498-3.319-3.587-6.424-6.414-8.717-2.828-2.293-6.438-3.725-10.075-3.545-2.187.109-4.302.78-6.416 1.352-2.114.571-4.31 1.052-6.48.763-1.777-.235-3.502-1.012-4.748-2.3-1.246-1.289-1.973-3.103-1.805-4.887.137-1.45.84-2.804 1.777-3.918.938-1.114 2.103-2.011 3.295-2.848 7.635-5.358 16.645-8.561 24.102-14.164 4.038-3.034 7.582-6.763 10.197-11.084 2.616-4.321 4.287-9.244 4.6-14.285.177-2.851-.085-5.763-1.094-8.436-1.008-2.673-2.803-5.097-5.248-6.574-2.737-1.653-6.053-2.019-9.25-2.07-3.197-.052-6.43.167-9.564-.467-1.143-.232-2.277-.581-3.268-1.195-.991-.615-1.835-1.512-2.229-2.61-.313-.875-.33-1.842-.115-2.746.215-.904.652-1.748 1.21-2.492 1.113-1.488 2.672-2.569 4.19-3.64 3.496-2.467 6.94-5.037 9.96-8.067 3.02-3.03 5.615-6.55 7.164-10.537 1.65-4.251 2.059-8.922 1.592-13.457-.468-4.536-1.787-8.952-3.495-13.18-1.715-4.248-3.854-8.376-6.845-11.846-2.992-3.47-6.896-6.264-11.336-7.393-3.919-.996-8.076-.663-12.006.286-3.93.948-7.685 2.493-11.46 3.943-5.3 2.036-10.813 3.919-16.49 3.805-4.178-.084-8.351-1.29-11.837-3.594-3.615-2.39-6.388-5.856-8.756-9.485-2.369-3.628-4.397-7.476-6.89-11.021-4.314-6.138-10.201-11.41-17.333-13.74-2.643-.863-5.43-1.31-8.207-1.24zm-.932 56.341a484.513 484.513 0 0 1 1.992 16.68c.741 7.272 1.319 14.568 2.49 21.784.343 2.11.778 4.309 2.116 5.976.371.463.809.877 1.314 1.188a3.69 3.69 0 0 0 1.674.554c.74.05 1.48-.162 2.143-.496.663-.333 1.258-.784 1.84-1.246 3.706-2.942 7.004-6.362 10.58-9.46 6.352-5.507 13.742-10.057 21.943-11.903 2.885-.65 5.846-.96 8.803-.92a155.548 155.548 0 0 0-6.846 4.73c-5.87 4.292-11.43 8.99-17.178 13.444-7.533 5.838-15.566 11.446-20.787 19.42-2.435 3.72-4.19 7.874-5.228 12.197-1.957 8.144-1.366 16.65-1.121 25.022.08 2.737.122 5.476.125 8.214a6.745 6.745 0 0 0 2.24.747c2.186.32 4.407-.456 6.295-1.604 1.888-1.148 3.524-2.658 5.281-3.998 7.727-5.892 17.467-8.325 26.889-10.705a1597.96 1597.96 0 0 0 13.068-3.36 67.107 67.107 0 0 1-11.078 7.965c-7.706 4.428-16.31 7.34-23.4 12.698-5.613 4.241-10.096 9.931-13.07 16.306-3.363 7.205-4.802 15.204-4.981 23.153a74.669 74.669 0 0 0 .914 13.533c.583 3.622 1.522 7.36 3.941 10.117.584.665 1.248 1.264 2.002 1.727.754.462 1.6.787 2.479.889 1.743.2 3.488-.482 4.945-1.46 1.457-.977 2.693-2.245 4.018-3.396 5.021-4.363 11.329-7.047 17.8-8.588 6.791-1.617 13.808-2.04 20.663-3.361a80.034 80.034 0 0 0 7.22-1.742 22.389 22.389 0 0 1-4.855 3.857c-4.671 2.752-10.144 3.71-15.31 5.354-10.205 3.246-19.47 9.36-26.514 17.425-4.417 5.057-8.036 11.045-9.086 17.676-.995 6.282.362 12.686.248 19.045-.036 1.957-.209 3.932.132 5.86.171.963.472 1.912.961 2.76.49.847 1.175 1.59 2.02 2.085.767.45 1.648.683 2.535.737.887.053 1.78-.07 2.639-.295 1.718-.452 3.297-1.308 4.908-2.059 7.581-3.532 15.992-4.747 24.148-6.597 3.348-.76 6.669-1.631 9.958-2.614a29.177 29.177 0 0 1-3.237 2.862c-3.832 2.913-8.335 4.84-12.945 6.224-2.824.848-5.705 1.505-8.49 2.473s-5.503 2.274-7.692 4.25c-2.973 2.685-4.776 6.426-6.1 10.207-1.804 5.156-2.856 10.594-2.863 16.057-.003 2.8.268 5.605.871 8.34.99 4.482 2.88 8.855 2.74 13.443-.053 1.781-.424 3.567-1.206 5.168-.783 1.6-1.99 3.012-3.524 3.92-1.447.857-3.156 1.247-4.836 1.162-1.68-.085-3.327-.639-4.75-1.535-2.267-1.429-3.959-3.75-4.605-6.35-.636-2.555-.28-5.24.125-7.842.912-5.85 2.065-11.667 2.738-17.55.304-2.654.51-5.338.215-7.993-.295-2.654-1.118-5.296-2.705-7.443-1.358-1.837-3.23-3.25-5.262-4.293-2.032-1.043-4.226-1.734-6.438-2.305-10.96-2.828-22.598-2.856-33.236-6.72a48.469 48.469 0 0 1-9.957-4.981c3.6.565 7.21 1.063 10.828 1.494 6.834.814 13.695 1.388 20.54 2.117 4.923.525 9.867 1.13 14.812.871a42.531 42.531 0 0 0 5.353-.623c-.182-4.562-.142-9.133.123-13.691.442-7.594 1.476-15.42-.87-22.656-1.805-5.566-5.594-10.437-10.456-13.692-3.917-2.623-8.452-4.2-13.05-5.236-4.6-1.037-9.296-1.557-13.962-2.233-7.498-1.086-15.054-2.618-21.783-6.1a40.71 40.71 0 0 1-7.469-4.978c4.34.843 8.698 1.59 13.07 2.24 12.225 1.819 24.564 2.881 36.721 5.104 4.725.864 9.417 1.901 14.065 3.111a161.887 161.887 0 0 1-2.613-27.137c-.068-5.8.176-11.622-.485-17.386-.66-5.764-2.292-11.555-5.74-16.221-2.924-3.957-7.03-6.929-11.451-9.088-8.021-3.917-17.004-5.267-25.766-6.97-3.514-.684-7.036-1.437-10.363-2.757s-6.476-3.24-8.807-5.957a17.051 17.051 0 0 1-3.734-7.593 47.78 47.78 0 0 0 9.21 5.478c5.255 2.371 10.894 3.77 16.555 4.854 7.232 1.384 14.698 2.315 21.288 5.601 2.576 1.285 4.971 2.91 7.54 4.21 2.57 1.299 5.393 2.28 8.268 2.138a11.097 11.097 0 0 0 3.485-.746c.337-2.893.545-5.801.623-8.713.13-4.895-.108-9.798.125-14.69.363-7.631 1.846-15.469-.375-22.779-1.045-3.437-2.885-6.611-5.227-9.336-4.722-5.495-11.28-9.04-17.8-12.197-6.83-3.308-13.923-6.41-19.556-11.495a35.069 35.069 0 0 1-7.83-10.289 39.599 39.599 0 0 0 6.598 4.356c4.799 2.52 10.053 4.025 15.06 6.1 7.351 3.044 14.18 7.332 20.167 12.572a75.553 75.553 0 0 1 7.095 7.096c.422-2.191.794-4.391 1.12-6.598 1.013-6.869 1.56-13.802 2.613-20.664a141.51 141.51 0 0 1 2.365-11.95zm16.115 300.607a8.226 8.226 0 0 1 2.092.203c1.829.41 3.492 1.364 5.014 2.457a28.567 28.567 0 0 1 8.408 9.54c1.292 2.38 2.239 4.936 3.014 7.53a63.348 63.348 0 0 1 1.506 6.15 58.069 58.069 0 0 1-13.053-4.016c-2.834-1.254-5.596-2.755-7.912-4.815-2.316-2.06-4.175-4.72-4.89-7.736-.356-1.494-.422-3.076-.03-4.56.392-1.486 1.265-2.866 2.539-3.724.777-.523 1.685-.842 2.613-.968.232-.032.466-.052.7-.06z" style="fill:#000;stroke:none;stroke-width:1.00000405px;stroke-linecap:butt;stroke-linejoin:miter;stroke-opacity:1"/><path d="M-834.747 383.834c.17-3.115.377-6.227.623-9.336.332-4.207.724-8.533-.498-12.573-.621-2.053-1.674-4.007-3.237-5.477-1.722-1.62-3.98-2.577-6.284-3.113s-4.677-.68-7.035-.87c-12.745-1.03-25.634-3.586-36.72-9.958a58.342 58.342 0 0 1-9.959-7.22 13.454 13.454 0 0 1 5.726-2.24c2.367-.337 4.782-.035 7.116.479 2.334.514 4.618 1.238 6.95 1.761 9.585 2.15 19.555.832 29.377.872 3.283.013 6.566.179 9.834.498-.197-3.98-.239-7.967-.125-11.95.16-5.595.61-11.32-.996-16.68-1.349-4.503-4.147-8.548-7.842-11.452-5.208-4.094-11.88-5.808-18.422-6.847-7.066-1.122-14.264-1.585-21.162-3.485-7.428-2.046-14.517-5.86-19.543-11.7a31.244 31.244 0 0 1-4.232-6.35c2.406-.053 4.814-.053 7.22 0 10.312.233 20.585 1.461 30.746 3.237 6.293 1.1 12.547 2.41 18.796 3.735 3.694.783 7.387 1.571 11.078 2.365a133.968 133.968 0 0 1-1.867-18.92c-.137-5.014.007-10.042-.472-15.034-.48-4.992-1.616-10.006-4.133-14.344-2.401-4.137-6.014-7.533-10.208-9.833-4.645-2.549-9.895-3.748-15.096-4.759-5.202-1.01-10.477-1.872-15.4-3.83-6.789-2.7-12.698-7.454-17.054-13.32-2.606-3.509-4.69-7.453-5.726-11.7a26.486 26.486 0 0 1-.747-6.847 118.087 118.087 0 0 0 6.97 5.602c4.972 3.694 10.3 7.027 16.183 8.962 7.242 2.383 15.029 2.558 22.406 4.482 5.24 1.366 10.207 3.597 15.186 5.725 2.48 1.06 4.97 2.098 7.469 3.112a411.315 411.315 0 0 0 1.867-19.418c.5-6.91.76-14.17-2.24-20.414-2.082-4.331-5.577-7.811-9.212-10.954-6.444-5.573-13.516-10.364-20.539-15.187-3.98-2.733-7.968-5.496-11.452-8.838-4.35-4.173-7.842-9.193-10.58-14.563a66.63 66.63 0 0 1-3.112-7.096 2562.66 2562.66 0 0 1 13.319 7.344c6.898 3.83 13.784 7.696 20.912 11.079 4.78 2.269 9.664 4.318 14.44 6.597a165.13 165.13 0 0 1 8.713 4.481 602.12 602.12 0 0 1 2.738-18.796c1.546-9.549 3.325-19.077 5.975-28.38a156.171 156.171 0 0 1 7.22-20.041 128.846 128.846 0 0 0-.124 27.26c1.256 12.33 4.295 24.645 2.987 36.97-.212 1.996-.537 4.01-.27 5.999.132.994.417 1.976.913 2.849.496.872 1.212 1.631 2.096 2.106 1.053.566 2.307.704 3.485.498 1.194-.21 2.308-.754 3.322-1.418 1.015-.664 1.944-1.448 2.902-2.192 7.069-5.494 15.568-8.746 23.775-12.323 6.584-2.87 13.098-6.007 20.041-7.842 3.46-.915 7.01-1.5 10.58-1.743a160.69 160.69 0 0 1-6.472 6.348c-8.667 8.034-18.189 15.083-27.26 22.655-9.397 7.844-18.38 16.324-25.519 26.265-3.492 4.863-6.593 10.243-7.344 16.182-.391 3.094-.13 6.228.125 9.336.157 1.935.339 3.955 1.369 5.601.627 1.003 1.59 1.834 2.738 2.117.924.227 1.906.09 2.804-.223.898-.313 1.726-.794 2.549-1.271 4.674-2.712 9.377-5.397 14.315-7.593 6.644-2.955 13.666-5.003 20.788-6.473 5.672-1.171 11.446-1.988 16.928-3.859a45.983 45.983 0 0 0 7.096-3.112 62.207 62.207 0 0 1-9.834 10.207c-12.15 10.022-27.798 15.195-39.584 25.643-8.187 7.257-14.248 17.037-16.431 27.758-1.355 6.656-1.161 13.836 1.867 19.917.47.942 1.007 1.857 1.7 2.65.692.793 1.547 1.46 2.532 1.83.98.369 2.062.43 3.096.265 1.034-.165 2.025-.549 2.95-1.042 1.847-.986 3.428-2.397 5.157-3.579 4.369-2.986 9.598-4.456 14.813-5.352 5.936-1.02 11.968-1.357 17.925-2.241 4.485-.665 8.92-1.64 13.32-2.739a238.25 238.25 0 0 0 5.227-1.369 35.206 35.206 0 0 1-7.842 9.834c-8.058 7.032-18.774 9.988-28.38 14.688-7.883 3.857-15.318 9.16-20.042 16.556-2.657 4.16-4.393 8.915-4.979 13.817-.472 3.95-.197 7.994.872 11.825.38 1.363.864 2.708 1.583 3.926.72 1.219 1.687 2.312 2.898 3.045 1.72 1.041 3.826 1.292 5.829 1.1 2.002-.19 3.94-.79 5.872-1.349 4.342-1.256 8.739-2.317 13.07-3.61 3.785-1.13 7.518-2.436 11.327-3.485 2.729-.752 5.512-1.373 8.34-1.494a23.926 23.926 0 0 1 4.606.249 29.927 29.927 0 0 1-3.61 4.855c-4.974 5.439-11.775 8.851-18.672 11.452-3.78 1.425-7.646 2.647-11.297 4.377-3.652 1.73-7.125 4.017-9.615 7.199-3.452 4.414-4.729 10.205-4.73 15.809 0 4.745.846 9.49 2.49 13.941a76.098 76.098 0 0 0 6.597-3.983c4.963-3.351 9.531-7.288 14.688-10.332 7.165-4.229 15.28-6.624 22.53-10.705 6.474-3.643 12.277-8.72 15.934-15.186 1.025-1.813 1.88-3.734 2.365-5.76.484-2.025.588-4.16.124-6.19-.547-2.4-1.869-4.575-3.524-6.397-1.656-1.821-3.64-3.313-5.687-4.682-2.336-1.562-4.769-2.98-7.038-4.636-2.27-1.656-4.393-3.577-5.908-5.944-1.078-1.686-1.836-3.606-1.991-5.602-.15-1.938.273-3.897 1.07-5.67.797-1.774 1.957-3.368 3.286-4.786 5.175-5.518 12.587-8.2 19.294-11.7 6.622-3.456 12.986-8.124 16.307-14.813 1.583-3.188 2.413-6.785 2.116-10.332-.17-2.032-.71-4.042-1.67-5.84-.96-1.8-2.345-3.382-4.056-4.492-1.957-1.269-4.285-1.89-6.612-2.049-2.327-.159-4.663.126-6.956.556-2.215.414-4.408.964-6.647 1.215-2.24.25-4.558.188-6.672-.593-2.651-.98-4.832-3.075-6.1-5.602-1-1.994-1.455-4.245-1.402-6.475.053-2.23.607-4.438 1.527-6.47 1.838-4.06 5.08-7.348 8.682-9.972 3.603-2.625 7.593-4.657 11.483-6.833 8.157-4.562 16.191-10.058 21.037-18.049 1.623-2.676 2.878-5.71 2.739-8.838a10.43 10.43 0 0 0-1.613-5.123 10.081 10.081 0 0 0-3.989-3.59c-2.937-1.457-6.38-1.362-9.648-1.095-3.268.266-6.629.663-9.77-.275-2.469-.736-4.699-2.319-6.1-4.48-1.125-1.737-1.698-3.802-1.777-5.87-.08-2.067.323-4.137 1.03-6.08 1.874-5.144 5.782-9.283 9.959-12.822 2.569-2.176 5.28-4.19 7.73-6.5 2.45-2.31 4.658-4.959 5.962-8.064 1.143-2.72 1.553-5.716 1.413-8.664-.14-2.947-.82-5.85-1.786-8.638-1.641-4.737-4.203-9.283-8.091-12.448-2.094-1.704-4.567-2.983-7.22-3.485-3.355-.635-6.837-.011-10.074 1.076-3.237 1.088-6.3 2.63-9.469 3.903-5.154 2.072-10.63 3.436-16.182 3.61-5.582.175-11.313-.912-16.058-3.859-3.431-2.131-6.233-5.153-8.608-8.42-2.375-3.268-4.356-6.8-6.453-10.252-2.975-4.897-6.338-9.794-11.203-12.82-3.144-1.957-6.903-3.044-10.581-2.615-4.065.474-7.767 2.763-10.554 5.76-2.788 2.996-4.745 6.668-6.375 10.422-1.672 3.851-3.035 7.837-4.882 11.607-1.848 3.77-4.237 7.37-7.566 9.928-4.805 3.691-11.118 4.862-17.178 4.854-5.795-.007-11.681-1.025-16.804-3.734-1.773-.937-3.438-2.067-5.222-2.984-1.783-.916-3.727-1.623-5.732-1.622-1.96.001-3.886.691-5.515 1.782-1.628 1.091-2.972 2.57-4.07 4.193-2.329 3.445-3.59 7.732-2.863 11.826.546 3.073 2.16 5.868 4.101 8.312 1.943 2.444 4.224 4.593 6.355 6.874 3.764 4.029 7.14 8.622 8.59 13.942 1.523 5.59.712 11.85-2.49 16.68-1.764 2.659-4.194 4.847-6.929 6.492-2.734 1.644-5.769 2.758-8.88 3.466-2.841.646-5.755.961-8.566 1.727-2.811.766-5.586 2.044-7.492 4.248-1.17 1.352-1.967 3.015-2.339 4.764-.372 1.749-.321 3.58.099 5.318.695 2.88 2.377 5.448 4.41 7.603 2.033 2.156 4.42 3.941 6.793 5.716 5.71 4.274 11.594 8.762 14.937 15.062 2.3 4.333 3.243 9.287 3.36 14.19.08 3.257-.199 6.55-1.178 9.657-.98 3.107-2.692 6.029-5.17 8.144-2.48 2.118-5.583 3.333-8.573 4.64-2.989 1.306-6.018 2.812-8.106 5.318-1.776 2.132-2.752 4.956-2.49 7.718.19 2 1.01 3.912 2.193 5.535 1.184 1.622 2.723 2.964 4.402 4.066 3.36 2.203 7.237 3.445 10.956 4.963 7.584 3.093 14.818 7.558 19.792 14.066 2.585 3.381 4.554 7.445 4.481 11.7-.044 2.614-.861 5.178-2.11 7.474-1.249 2.296-2.92 4.34-4.736 6.219-2.48 2.568-5.254 4.86-7.523 7.617-2.27 2.756-4.048 6.115-4.053 9.685-.005 3.428 1.644 6.706 3.956 9.237 2.312 2.532 5.25 4.402 8.243 6.074 10.154 5.675 21.26 9.384 32.115 13.568 8.497 3.276 16.9 6.872 24.77 11.452a111.313 111.313 0 0 1 5.602 3.486z" style="fill:#078930;fill-opacity:1;stroke:none;stroke-width:1.00000405px;stroke-linecap:butt;stroke-linejoin:miter;stroke-opacity:1" transform="translate(1005.843)"/><path style="fill:#000;stroke:none;stroke-width:1.00000405px;stroke-linecap:butt;stroke-linejoin:miter;stroke-opacity:1" d="M801.601 57.5c.397.01.794.029 1.19.06 3.167.251 6.29 1.207 8.996 2.871 4.317 2.655 7.38 6.96 9.68 11.477 2.299 4.517 3.95 9.336 6.175 13.89 1.696 3.47 3.748 6.812 6.483 9.54 2.734 2.727 6.2 4.82 10.007 5.47 4.028.688 8.15-.256 12.05-1.478 5.188-1.627 10.215-3.753 15.433-5.285 2.536-.745 5.132-1.352 7.773-1.438 2.642-.086 5.344.373 7.659 1.648 2.843 1.567 4.933 4.28 6.232 7.256 1.299 2.976 1.868 6.219 2.225 9.446.359 3.251.512 6.543.12 9.79-.39 3.249-1.346 6.462-3.081 9.235-1.818 2.904-4.414 5.224-6.998 7.473-2.585 2.249-5.225 4.503-7.166 7.326-1.118 1.625-1.99 3.432-2.436 5.354-.445 1.921-.452 3.96.111 5.85.811 2.719 2.765 5.001 5.104 6.609 2.339 1.607 5.05 2.595 7.791 3.328 5.645 1.51 11.688 2.07 16.701 5.072 5.425 3.249 9.053 9.327 9.303 15.645.243 6.159-2.582 12.174-6.766 16.7-5.262 5.695-12.57 9.316-17.336 15.433-3.335 4.28-5.226 9.604-5.707 15.01-.25 2.811-.1 5.776 1.268 8.246 1.36 2.454 3.776 4.15 6.289 5.4s5.197 2.141 7.664 3.478c2.498 1.354 4.759 3.17 6.512 5.405 1.753 2.235 2.986 4.894 3.424 7.701.534 3.429-.135 6.988-1.592 10.137-1.458 3.149-3.675 5.906-6.229 8.256-6.368 5.86-14.61 9.146-22.41 12.896-2.563 1.233-5.121 2.543-7.295 4.377-2.173 1.835-3.956 4.256-4.543 7.04-.58 2.753.082 5.724 1.692 8.032 2.069 2.967 5.437 4.696 8.244 6.977 5.406 4.394 8.82 11.213 8.879 18.18.06 7.192-3.366 14.155-8.455 19.238-5.535 5.528-12.84 8.953-20.284 11.36-7.443 2.406-15.153 3.897-22.633 6.187-8.733 2.674-17.227 6.494-24.31 12.26-1.352 1.1-2.656 2.277-3.746 3.637-1.091 1.36-1.968 2.916-2.385 4.61-.432 1.754-.36 3.593-.16 5.39.199 1.796.52 3.584.582 5.39.187 5.54-2.08 10.84-4.44 15.856-3.134 6.66-6.685 13.421-12.472 17.969-6.35 4.989-14.62 6.713-22.62 7.822a208.27 208.27 0 0 1-17.758 1.691 6.936 6.936 0 0 1-.423-3.804c.2-1.163.697-2.258 1.312-3.264.615-1.006 1.35-1.933 2.07-2.867 6.052-7.852 11.179-16.38 17.124-24.313 1.488-1.986 3.032-3.94 4.267-6.094 1.235-2.152 2.159-4.535 2.287-7.013.137-2.645-.646-5.28-1.904-7.61-2.856-5.286-7.964-8.943-13.106-12.05-13.22-7.991-27.932-13.723-39.744-23.678-3.702-3.12-7.095-6.646-9.76-10.688-2.665-4.041-4.59-8.616-5.25-13.412-.657-4.771-.03-9.74 1.973-14.12 2.004-4.379 5.403-8.138 9.654-10.402 1.977-1.052 4.128-1.787 5.989-3.035.93-.623 1.785-1.38 2.427-2.297.643-.917 1.065-2.005 1.098-3.125.028-.969-.237-1.936-.695-2.79-.459-.855-1.106-1.6-1.844-2.23-1.477-1.256-3.29-2.04-5.072-2.802-6.597-2.819-13.293-5.624-19.026-9.936-7.22-5.43-12.76-13.452-13.953-22.408-.744-5.584.22-11.355 2.537-16.49 1.497-3.319 3.587-6.424 6.414-8.717 2.828-2.293 6.438-3.725 10.074-3.545 2.188.109 4.302.78 6.416 1.352 2.115.571 4.31 1.052 6.481.763 1.777-.235 3.502-1.012 4.748-2.3 1.246-1.289 1.973-3.103 1.805-4.887-.137-1.45-.84-2.804-1.778-3.918-.937-1.114-2.103-2.011-3.295-2.848-7.634-5.358-16.644-8.561-24.101-14.164-4.039-3.034-7.582-6.763-10.198-11.084-2.615-4.321-4.286-9.244-4.6-14.285-.176-2.851.086-5.763 1.095-8.436 1.008-2.673 2.802-5.097 5.248-6.574 2.737-1.653 6.052-2.019 9.25-2.07 3.197-.052 6.43.167 9.564-.467 1.143-.232 2.277-.581 3.268-1.195.99-.615 1.835-1.512 2.228-2.61.314-.875.33-1.842.116-2.746-.215-.904-.653-1.748-1.21-2.492-1.113-1.488-2.672-2.569-4.19-3.64-3.496-2.467-6.94-5.037-9.96-8.067-3.02-3.03-5.616-6.55-7.164-10.537-1.65-4.251-2.06-8.922-1.592-13.457.468-4.536 1.787-8.952 3.494-13.18 1.716-4.248 3.855-8.376 6.846-11.846 2.992-3.47 6.896-6.264 11.336-7.393 3.919-.996 8.076-.663 12.006.286 3.93.948 7.685 2.493 11.459 3.943 5.3 2.036 10.814 3.919 16.49 3.805 4.179-.084 8.352-1.29 11.838-3.594 3.615-2.39 6.388-5.856 8.756-9.485 2.368-3.628 4.397-7.476 6.889-11.021 4.315-6.138 10.202-11.41 17.334-13.74 2.642-.863 5.43-1.31 8.207-1.24zm.932 56.341a484.513 484.513 0 0 0-1.993 16.68c-.74 7.272-1.318 14.568-2.49 21.784-.342 2.11-.777 4.309-2.115 5.976a5.195 5.195 0 0 1-1.315 1.188 3.69 3.69 0 0 1-1.673.554c-.74.05-1.48-.162-2.143-.496-.663-.333-1.258-.784-1.84-1.246-3.706-2.942-7.004-6.362-10.58-9.46-6.352-5.507-13.742-10.057-21.943-11.903a37.832 37.832 0 0 0-8.803-.92 155.548 155.548 0 0 1 6.846 4.73c5.87 4.292 11.43 8.99 17.177 13.444 7.534 5.838 15.567 11.446 20.788 19.42 2.435 3.72 4.19 7.874 5.228 12.197 1.957 8.144 1.366 16.65 1.121 25.022-.08 2.737-.122 5.476-.125 8.214a6.745 6.745 0 0 1-2.24.747c-2.186.32-4.407-.456-6.295-1.604-1.888-1.148-3.524-2.658-5.281-3.998-7.727-5.892-17.468-8.325-26.889-10.705a1597.96 1597.96 0 0 1-13.068-3.36 67.107 67.107 0 0 0 11.078 7.965c7.706 4.428 16.31 7.34 23.4 12.698 5.613 4.241 10.095 9.931 13.07 16.306 3.363 7.205 4.802 15.204 4.981 23.153a74.669 74.669 0 0 1-.914 13.533c-.583 3.622-1.522 7.36-3.941 10.117-.584.665-1.248 1.264-2.002 1.727-.754.462-1.6.787-2.479.889-1.743.2-3.488-.482-4.945-1.46-1.458-.977-2.693-2.245-4.018-3.396-5.022-4.363-11.33-7.047-17.8-8.588-6.791-1.617-13.808-2.04-20.663-3.361a80.034 80.034 0 0 1-7.22-1.742 22.389 22.389 0 0 0 4.855 3.857c4.671 2.752 10.144 3.71 15.31 5.354 10.204 3.246 19.47 9.36 26.514 17.425 4.416 5.057 8.036 11.045 9.086 17.676.995 6.282-.362 12.686-.248 19.045.036 1.957.209 3.932-.133 5.86-.17.963-.47 1.912-.96 2.76-.49.847-1.176 1.59-2.02 2.085-.767.45-1.648.683-2.535.737-.887.053-1.78-.07-2.639-.295-1.719-.452-3.297-1.308-4.908-2.059-7.581-3.532-15.992-4.747-24.149-6.597-3.347-.76-6.668-1.631-9.957-2.614a29.177 29.177 0 0 0 3.237 2.862c3.832 2.913 8.334 4.84 12.945 6.224 2.824.848 5.705 1.505 8.49 2.473s5.503 2.274 7.692 4.25c2.973 2.685 4.776 6.426 6.1 10.207 1.804 5.156 2.856 10.594 2.863 16.057.003 2.8-.268 5.605-.872 8.34-.989 4.482-2.879 8.855-2.74 13.443.054 1.781.425 3.567 1.207 5.168.783 1.6 1.99 3.012 3.524 3.92 1.447.857 3.156 1.247 4.836 1.162 1.68-.085 3.327-.639 4.75-1.535 2.266-1.429 3.959-3.75 4.605-6.35.636-2.555.28-5.24-.125-7.842-.912-5.85-2.065-11.667-2.738-17.55-.304-2.654-.51-5.338-.215-7.993.295-2.654 1.117-5.296 2.705-7.443 1.358-1.837 3.23-3.25 5.262-4.293 2.032-1.043 4.226-1.734 6.437-2.305 10.96-2.828 22.598-2.856 33.237-6.72a48.469 48.469 0 0 0 9.957-4.981c-3.6.565-7.21 1.063-10.828 1.494-6.835.814-13.695 1.388-20.54 2.117-4.923.525-9.867 1.13-14.812.871a42.531 42.531 0 0 1-5.353-.623c.181-4.562.141-9.133-.124-13.691-.44-7.594-1.475-15.42.872-22.656 1.804-5.566 5.593-10.437 10.455-13.692 3.917-2.623 8.452-4.2 13.05-5.236 4.6-1.037 9.296-1.557 13.962-2.233 7.498-1.086 15.053-2.618 21.783-6.1a40.71 40.71 0 0 0 7.469-4.978c-4.34.843-8.698 1.59-13.07 2.24-12.226 1.819-24.564 2.881-36.722 5.104a195.145 195.145 0 0 0-14.064 3.111 161.887 161.887 0 0 0 2.613-27.137c.068-5.8-.176-11.622.485-17.386.66-5.764 2.292-11.555 5.74-16.221 2.924-3.957 7.03-6.929 11.451-9.088 8.021-3.917 17.004-5.267 25.766-6.97 3.513-.684 7.036-1.437 10.363-2.757s6.476-3.24 8.807-5.957a17.051 17.051 0 0 0 3.734-7.593 47.78 47.78 0 0 1-9.21 5.478c-5.255 2.371-10.894 3.77-16.556 4.854-7.231 1.384-14.697 2.315-21.287 5.601-2.576 1.285-4.972 2.91-7.54 4.21-2.57 1.299-5.393 2.28-8.268 2.138a11.097 11.097 0 0 1-3.485-.746 97.666 97.666 0 0 1-.623-8.713c-.13-4.895.108-9.798-.125-14.69-.363-7.631-1.846-15.469.375-22.779 1.044-3.437 2.885-6.611 5.227-9.336 4.722-5.495 11.28-9.04 17.8-12.197 6.83-3.308 13.923-6.41 19.555-11.495a35.069 35.069 0 0 0 7.83-10.289 39.599 39.599 0 0 1-6.597 4.356c-4.799 2.52-10.053 4.025-15.06 6.1-7.352 3.044-14.18 7.332-20.167 12.572a75.553 75.553 0 0 0-7.096 7.096c-.42-2.191-.793-4.391-1.119-6.598-1.013-6.869-1.56-13.802-2.613-20.664a141.51 141.51 0 0 0-2.365-11.95zm-16.116 300.607a8.226 8.226 0 0 0-2.091.203c-1.829.41-3.492 1.364-5.014 2.457a28.567 28.567 0 0 0-8.408 9.54c-1.292 2.38-2.24 4.936-3.014 7.53a63.348 63.348 0 0 0-1.506 6.15c4.489-.82 8.88-2.17 13.053-4.016 2.834-1.254 5.596-2.755 7.912-4.815 2.316-2.06 4.174-4.72 4.89-7.736.356-1.494.422-3.076.03-4.56-.392-1.486-1.266-2.866-2.54-3.724-.776-.523-1.684-.842-2.612-.968a7.092 7.092 0 0 0-.7-.06z"/><path style="fill:#078930;fill-opacity:1;stroke:none;stroke-width:1.00000405px;stroke-linecap:butt;stroke-linejoin:miter;stroke-opacity:1" d="M-834.747 383.834c.17-3.115.377-6.227.623-9.336.332-4.207.724-8.533-.498-12.573-.621-2.053-1.674-4.007-3.237-5.477-1.722-1.62-3.98-2.577-6.284-3.113s-4.677-.68-7.035-.87c-12.745-1.03-25.634-3.586-36.72-9.958a58.342 58.342 0 0 1-9.959-7.22 13.454 13.454 0 0 1 5.726-2.24c2.367-.337 4.782-.035 7.116.479 2.334.514 4.618 1.238 6.95 1.761 9.585 2.15 19.555.832 29.377.872 3.283.013 6.566.179 9.834.498-.197-3.98-.239-7.967-.125-11.95.16-5.595.61-11.32-.996-16.68-1.349-4.503-4.147-8.548-7.842-11.452-5.208-4.094-11.88-5.808-18.422-6.847-7.066-1.122-14.264-1.585-21.162-3.485-7.428-2.046-14.517-5.86-19.543-11.7a31.244 31.244 0 0 1-4.232-6.35c2.406-.053 4.814-.053 7.22 0 10.312.233 20.585 1.461 30.746 3.237 6.293 1.1 12.547 2.41 18.796 3.735 3.694.783 7.387 1.571 11.078 2.365a133.968 133.968 0 0 1-1.867-18.92c-.137-5.014.007-10.042-.472-15.034-.48-4.992-1.616-10.006-4.133-14.344-2.401-4.137-6.014-7.533-10.208-9.833-4.645-2.549-9.895-3.748-15.096-4.759-5.202-1.01-10.477-1.872-15.4-3.83-6.789-2.7-12.698-7.454-17.054-13.32-2.606-3.509-4.69-7.453-5.726-11.7a26.486 26.486 0 0 1-.747-6.847 118.087 118.087 0 0 0 6.97 5.602c4.972 3.694 10.3 7.027 16.183 8.962 7.242 2.383 15.029 2.558 22.406 4.482 5.24 1.366 10.207 3.597 15.186 5.725 2.48 1.06 4.97 2.098 7.469 3.112a411.315 411.315 0 0 0 1.867-19.418c.5-6.91.76-14.17-2.24-20.414-2.082-4.331-5.577-7.811-9.212-10.954-6.444-5.573-13.516-10.364-20.539-15.187-3.98-2.733-7.968-5.496-11.452-8.838-4.35-4.173-7.842-9.193-10.58-14.563a66.63 66.63 0 0 1-3.112-7.096 2562.66 2562.66 0 0 1 13.319 7.344c6.898 3.83 13.784 7.696 20.912 11.079 4.78 2.269 9.664 4.318 14.44 6.597a165.13 165.13 0 0 1 8.713 4.481 602.12 602.12 0 0 1 2.738-18.796c1.546-9.549 3.325-19.077 5.975-28.38a156.171 156.171 0 0 1 7.22-20.041 128.846 128.846 0 0 0-.124 27.26c1.256 12.33 4.295 24.645 2.987 36.97-.212 1.996-.537 4.01-.27 5.999.132.994.417 1.976.913 2.849.496.872 1.212 1.631 2.096 2.106 1.053.566 2.307.704 3.485.498 1.194-.21 2.308-.754 3.322-1.418 1.015-.664 1.944-1.448 2.902-2.192 7.069-5.494 15.568-8.746 23.775-12.323 6.584-2.87 13.098-6.007 20.041-7.842 3.46-.915 7.01-1.5 10.58-1.743a160.69 160.69 0 0 1-6.472 6.348c-8.667 8.034-18.189 15.083-27.26 22.655-9.397 7.844-18.38 16.324-25.519 26.265-3.492 4.863-6.593 10.243-7.344 16.182-.391 3.094-.13 6.228.125 9.336.157 1.935.339 3.955 1.369 5.601.627 1.003 1.59 1.834 2.738 2.117.924.227 1.906.09 2.804-.223.898-.313 1.726-.794 2.549-1.271 4.674-2.712 9.377-5.397 14.315-7.593 6.644-2.955 13.666-5.003 20.788-6.473 5.672-1.171 11.446-1.988 16.928-3.859a45.983 45.983 0 0 0 7.096-3.112 62.207 62.207 0 0 1-9.834 10.207c-12.15 10.022-27.798 15.195-39.584 25.643-8.187 7.257-14.248 17.037-16.431 27.758-1.355 6.656-1.161 13.836 1.867 19.917.47.942 1.007 1.857 1.7 2.65.692.793 1.547 1.46 2.532 1.83.98.369 2.062.43 3.096.265 1.034-.165 2.025-.549 2.95-1.042 1.847-.986 3.428-2.397 5.157-3.579 4.369-2.986 9.598-4.456 14.813-5.352 5.936-1.02 11.968-1.357 17.925-2.241 4.485-.665 8.92-1.64 13.32-2.739a238.25 238.25 0 0 0 5.227-1.369 35.206 35.206 0 0 1-7.842 9.834c-8.058 7.032-18.774 9.988-28.38 14.688-7.883 3.857-15.318 9.16-20.042 16.556-2.657 4.16-4.393 8.915-4.979 13.817-.472 3.95-.197 7.994.872 11.825.38 1.363.864 2.708 1.583 3.926.72 1.219 1.687 2.312 2.898 3.045 1.72 1.041 3.826 1.292 5.829 1.1 2.002-.19 3.94-.79 5.872-1.349 4.342-1.256 8.739-2.317 13.07-3.61 3.785-1.13 7.518-2.436 11.327-3.485 2.729-.752 5.512-1.373 8.34-1.494a23.926 23.926 0 0 1 4.606.249 29.927 29.927 0 0 1-3.61 4.855c-4.974 5.439-11.775 8.851-18.672 11.452-3.78 1.425-7.646 2.647-11.297 4.377-3.652 1.73-7.125 4.017-9.615 7.199-3.452 4.414-4.729 10.205-4.73 15.809 0 4.745.846 9.49 2.49 13.941a76.098 76.098 0 0 0 6.597-3.983c4.963-3.351 9.531-7.288 14.688-10.332 7.165-4.229 15.28-6.624 22.53-10.705 6.474-3.643 12.277-8.72 15.934-15.186 1.025-1.813 1.88-3.734 2.365-5.76.484-2.025.588-4.16.124-6.19-.547-2.4-1.869-4.575-3.524-6.397-1.656-1.821-3.64-3.313-5.687-4.682-2.336-1.562-4.769-2.98-7.038-4.636-2.27-1.656-4.393-3.577-5.908-5.944-1.078-1.686-1.836-3.606-1.991-5.602-.15-1.938.273-3.897 1.07-5.67.797-1.774 1.957-3.368 3.286-4.786 5.175-5.518 12.587-8.2 19.294-11.7 6.622-3.456 12.986-8.124 16.307-14.813 1.583-3.188 2.413-6.785 2.116-10.332-.17-2.032-.71-4.042-1.67-5.84-.96-1.8-2.345-3.382-4.056-4.492-1.957-1.269-4.285-1.89-6.612-2.049-2.327-.159-4.663.126-6.956.556-2.215.414-4.408.964-6.647 1.215-2.24.25-4.558.188-6.672-.593-2.651-.98-4.832-3.075-6.1-5.602-1-1.994-1.455-4.245-1.402-6.475.053-2.23.607-4.438 1.527-6.47 1.838-4.06 5.08-7.348 8.682-9.972 3.603-2.625 7.593-4.657 11.483-6.833 8.157-4.562 16.191-10.058 21.037-18.049 1.623-2.676 2.878-5.71 2.739-8.838a10.43 10.43 0 0 0-1.613-5.123 10.081 10.081 0 0 0-3.989-3.59c-2.937-1.457-6.38-1.362-9.648-1.095-3.268.266-6.629.663-9.77-.275-2.469-.736-4.699-2.319-6.1-4.48-1.125-1.737-1.698-3.802-1.777-5.87-.08-2.067.323-4.137 1.03-6.08 1.874-5.144 5.782-9.283 9.959-12.822 2.569-2.176 5.28-4.19 7.73-6.5 2.45-2.31 4.658-4.959 5.962-8.064 1.143-2.72 1.553-5.716 1.413-8.664-.14-2.947-.82-5.85-1.786-8.638-1.641-4.737-4.203-9.283-8.091-12.448-2.094-1.704-4.567-2.983-7.22-3.485-3.355-.635-6.837-.011-10.074 1.076-3.237 1.088-6.3 2.63-9.469 3.903-5.154 2.072-10.63 3.436-16.182 3.61-5.582.175-11.313-.912-16.058-3.859-3.431-2.131-6.233-5.153-8.608-8.42-2.375-3.268-4.356-6.8-6.453-10.252-2.975-4.897-6.338-9.794-11.203-12.82-3.144-1.957-6.903-3.044-10.581-2.615-4.065.474-7.767 2.763-10.554 5.76-2.788 2.996-4.745 6.668-6.375 10.422-1.672 3.851-3.035 7.837-4.882 11.607-1.848 3.77-4.237 7.37-7.566 9.928-4.805 3.691-11.118 4.862-17.178 4.854-5.795-.007-11.681-1.025-16.804-3.734-1.773-.937-3.438-2.067-5.222-2.984-1.783-.916-3.727-1.623-5.732-1.622-1.96.001-3.886.691-5.515 1.782-1.628 1.091-2.972 2.57-4.07 4.193-2.329 3.445-3.59 7.732-2.863 11.826.546 3.073 2.16 5.868 4.101 8.312 1.943 2.444 4.224 4.593 6.355 6.874 3.764 4.029 7.14 8.622 8.59 13.942 1.523 5.59.712 11.85-2.49 16.68-1.764 2.659-4.194 4.847-6.929 6.492-2.734 1.644-5.769 2.758-8.88 3.466-2.841.646-5.755.961-8.566 1.727-2.811.766-5.586 2.044-7.492 4.248-1.17 1.352-1.967 3.015-2.339 4.764-.372 1.749-.321 3.58.099 5.318.695 2.88 2.377 5.448 4.41 7.603 2.033 2.156 4.42 3.941 6.793 5.716 5.71 4.274 11.594 8.762 14.937 15.062 2.3 4.333 3.243 9.287 3.36 14.19.08 3.257-.199 6.55-1.178 9.657-.98 3.107-2.692 6.029-5.17 8.144-2.48 2.118-5.583 3.333-8.573 4.64-2.989 1.306-6.018 2.812-8.106 5.318-1.776 2.132-2.752 4.956-2.49 7.718.19 2 1.01 3.912 2.193 5.535 1.184 1.622 2.723 2.964 4.402 4.066 3.36 2.203 7.237 3.445 10.956 4.963 7.584 3.093 14.818 7.558 19.792 14.066 2.585 3.381 4.554 7.445 4.481 11.7-.044 2.614-.861 5.178-2.11 7.474-1.249 2.296-2.92 4.34-4.736 6.219-2.48 2.568-5.254 4.86-7.523 7.617-2.27 2.756-4.048 6.115-4.053 9.685-.005 3.428 1.644 6.706 3.956 9.237 2.312 2.532 5.25 4.402 8.243 6.074 10.154 5.675 21.26 9.384 32.115 13.568 8.497 3.276 16.9 6.872 24.77 11.452a111.313 111.313 0 0 1 5.602 3.486z" transform="matrix(-1 0 0 1 -31.717 0)"/><path style="fill:#000;stroke:none;stroke-width:1.00000405px;stroke-linecap:butt;stroke-linejoin:miter;stroke-opacity:1" d="M487.81 47.962c-.297-.005-.593 0-.889.016-2.575.136-5.068 1.065-7.262 2.42-3.035 1.875-5.544 4.576-7.262 7.703a21.85 21.85 0 0 0-2.64 9.021c-2.661.034-5.319.328-7.922.88-6.624 1.402-12.812 4.444-18.484 8.142-11.956 7.793-21.896 18.65-28.606 31.246-10.574 19.851-12.865 43.09-12.324 65.575.299 12.45 1.402 24.881 3.3 37.19a44.388 44.388 0 0 0-12.54 11.88c-4.214 5.952-6.958 13.196-6.383 20.465.255 3.237 1.153 6.39 2.2 9.463 4.626 13.573 12.345 26.132 22.665 36.088 12.608 12.163 28.823 20.21 45.772 24.645 4.636 1.213 9.34 2.169 14.082 2.861a32.724 32.724 0 0 1 1.98 15.623c-.44 3.703-1.513 7.305-2.861 10.781-.62 1.6-1.302 3.182-1.793 4.827-.492 1.644-.791 3.367-.627 5.076.152 1.588.708 3.13 1.556 4.482.849 1.352 1.986 2.514 3.286 3.44 2.235 1.593 4.915 2.473 7.627 2.902 2.71.43 5.472.428 8.216.399 3.96-.042 8.038-.167 11.663-1.76 1.457-.641 2.823-1.52 3.922-2.672 1.098-1.153 1.92-2.59 2.238-4.15.402-1.976-.014-4.032-.66-5.942-1.096-3.24-2.84-6.229-3.961-9.461-1.244-3.589-1.694-7.428-1.54-11.223.133-3.247.752-6.597 2.641-9.242 1-1.4 2.32-2.549 3.74-3.521 3.544-2.426 7.703-3.792 11.878-4.8 4.174-1.007 8.43-1.688 12.548-2.902 8.897-2.62 16.953-7.692 23.797-13.95 6.845-6.26 12.533-13.691 17.573-21.477 7.247-11.197 13.383-23.857 12.982-37.188-.229-7.6-2.697-15.216-7.482-21.125a30.927 30.927 0 0 0-9.682-7.922c.058-9.903-.016-19.805-.22-29.705-.442-21.346-1.596-43.174-9.682-62.934-5.681-13.883-14.854-26.5-27.067-35.21a69.576 69.576 0 0 0-26.186-11.44 23.358 23.358 0 0 0-1.32-5.282 23.084 23.084 0 0 0-4.62-7.482c-1.613-1.743-3.51-3.236-5.65-4.264-1.871-.9-3.93-1.437-6.003-1.473zm.185 9.602c.347.008.693.035 1.035.084 1.776.25 3.479 1.036 4.793 2.256 1.25 1.16 2.123 2.67 2.819 4.228.596 1.335 1.084 2.77.988 4.229-.088 1.346-.68 2.634-1.55 3.664-.929 1.097-2.17 1.914-3.524 2.396-1.705.607-3.548.687-5.358.705-1.09.011-2.188.003-3.26-.205-1.07-.207-2.122-.625-2.94-1.345-.74-.65-1.257-1.514-1.692-2.397-.673-1.363-1.187-2.85-1.127-4.37.04-1.027.344-2.032.803-2.952.458-.92 1.067-1.76 1.734-2.543 1.164-1.367 2.552-2.6 4.228-3.242a8.012 8.012 0 0 1 3.051-.508z"/><path style="fill:#078930;stroke:none;stroke-width:1.00000405px;stroke-linecap:butt;stroke-linejoin:miter;stroke-opacity:1;fill-opacity:1" d="M483.001 317.711c-.839.925-1.323 2.17-1.596 3.389-.45 2.01-.207 4.129 0 6.178.166 1.64.79 3.21.99 4.847.2 1.63.492 3.304.208 4.92-.424 2.407-1.99 4.47-2.791 6.778-.636 1.828-1.74 3.652-1.596 5.582.119 1.601.911 3.2 1.994 4.385.84.918 2.041 1.527 3.244 1.845 2.406.637 5.06.637 7.465 0 1.203-.318 2.405-.927 3.244-1.845 1.083-1.186 1.873-2.784 1.992-4.385.144-1.93-.958-3.754-1.593-5.582-.802-2.308-2.367-4.372-2.791-6.778-.285-1.616.006-3.29.205-4.92.2-1.637.824-3.206.99-4.847.207-2.049.449-4.168 0-6.178-1.178-4.921-6.282-6.236-9.965-3.389z"/><path style="fill:#078930;fill-opacity:1;stroke:none;stroke-width:.99999988px;stroke-linecap:butt;stroke-linejoin:miter;stroke-opacity:1" d="M468.646 75.158c-10.385 1.914-20.82 6.246-28.365 13.508-13.881 13.361-21.849 32.586-26.826 51.2-4.656 17.411-3.009 36.023-2.158 54.027.115 2.434.3 4.905.98 7.246.674 2.316 1.496 4.711 3.03 6.574 1.933 2.348 4.627 4.089 7.4 5.34 11.238 5.07 23.822 6.796 36.074 8.166a245.017 245.017 0 0 0 54.266 0c12.253-1.37 24.836-3.096 36.074-8.166 2.773-1.251 5.467-2.992 7.4-5.34 1.534-1.863 2.356-4.258 3.03-6.574.68-2.34.865-4.812.98-7.246.851-18.004 2.496-36.616-2.16-54.028-4.977-18.613-12.943-37.838-26.824-51.199-7.545-7.262-17.98-11.594-28.365-13.508-4.82 10.055-18.066 12.973-27.135 8.168-3.266-1.781-5.918-4.709-7.4-8.168zm41.481 7.36c.323.018.65.192.904.578.196.297.343.713.418 1.172.076.458.081.957.022 1.423a4.645 4.645 0 0 1-.332 1.239 3.63 3.63 0 0 1-.555.908c-.415.492-.886.765-1.355 1.017-1.758.948-3.544 1.697-5.323 2.487-1.093.485-2.208.99-3.324.77a1.65 1.65 0 0 1-.83-.4c-.258-.236-.487-.614-.61-1.112-.14-.575-.125-1.27.01-1.85.135-.58.38-1.05.662-1.377a2.087 2.087 0 0 1 1.166-.687c.408-.09.82-.083 1.229-.118a7.063 7.063 0 0 0 2.217-.588c.982-.428 1.94-1.058 2.87-1.794.62-.49 1.232-1.03 1.876-1.387.31-.172.632-.3.955-.281zm9.97 5.248c.407.018.82.192 1.14.578.246.297.43.713.525 1.172a4 4 0 0 1-.39 2.662 3.604 3.604 0 0 1-.698.908c-.522.492-1.119.765-1.71 1.018-2.212.947-4.457 1.696-6.696 2.486-1.376.485-2.781.99-4.186.77-.358-.057-.718-.162-1.043-.4a2.16 2.16 0 0 1-.77-1.114c-.177-.575-.156-1.268.014-1.848.17-.58.478-1.05.834-1.377.443-.405.956-.598 1.469-.687.512-.09 1.03-.082 1.545-.118a10.77 10.77 0 0 0 2.79-.587c1.237-.429 2.442-1.059 3.614-1.795.78-.49 1.55-1.03 2.361-1.387.392-.172.795-.3 1.202-.281zm7.628 7.964c.406.019.819.193 1.138.579.247.297.43.713.526 1.171a4.003 4.003 0 0 1-.39 2.663 3.604 3.604 0 0 1-.698.908c-.522.492-1.119.765-1.71 1.017-2.212.947-4.458 1.697-6.696 2.487-1.376.485-2.781.99-4.186.77-.358-.057-.718-.162-1.043-.4a2.155 2.155 0 0 1-.77-1.112c-.177-.575-.156-1.27.014-1.85.17-.58.478-1.05.834-1.377.443-.405.956-.598 1.469-.688.512-.09 1.03-.082 1.545-.117a10.77 10.77 0 0 0 2.79-.588c1.237-.428 2.44-1.058 3.612-1.795.78-.49 1.553-1.028 2.363-1.384.391-.172.795-.302 1.202-.284zm7.945 8.711c.47.017.947.18 1.316.536.286.274.498.657.608 1.08.11.423.118.883.031 1.314-.085.42-.256.811-.482 1.145a3.553 3.553 0 0 1-.807.84c-.603.454-1.292.704-1.975.937-2.558.874-5.155 1.568-7.744 2.297-1.59.448-3.214.912-4.838.709-.414-.052-.829-.149-1.205-.367a2.064 2.064 0 0 1-.89-1.03c-.206-.53-.18-1.171.015-1.707.196-.535.553-.968.965-1.27.512-.373 1.105-.551 1.697-.634.593-.083 1.188-.077 1.784-.11 1.086-.058 2.17-.249 3.23-.542 1.43-.396 2.818-.977 4.174-1.657.902-.452 1.795-.95 2.732-1.279.452-.158.919-.278 1.389-.262zm5.19 9.705c.47.017.946.18 1.316.536.285.274.497.657.607 1.08.11.423.12.883.033 1.314-.084.42-.258.811-.484 1.145a3.553 3.553 0 0 1-.807.84c-.603.454-1.292.704-1.974.937-2.558.874-5.156 1.568-7.744 2.297-1.59.448-3.214.912-4.838.709-.414-.052-.83-.149-1.205-.367a2.064 2.064 0 0 1-.89-1.03c-.206-.53-.181-1.171.015-1.707.196-.535.552-.968.965-1.27.511-.373 1.104-.55 1.697-.634.592-.083 1.191-.077 1.787-.11a15.21 15.21 0 0 0 3.226-.542c1.43-.396 2.82-.977 4.176-1.656.903-.453 1.793-.95 2.73-1.28.453-.158.92-.278 1.39-.262zm3.972 10.647c.737.021 1.485.226 2.064.676.448.347.781.834.954 1.369.172.535.186 1.117.05 1.662a3.644 3.644 0 0 1-.76 1.447 5.1 5.1 0 0 1-1.263 1.06c-.946.576-2.027.893-3.098 1.188-4.01 1.106-8.082 1.98-12.14 2.903-2.494.566-5.04 1.155-7.586.898-.65-.065-1.302-.188-1.89-.465-.59-.276-1.116-.719-1.395-1.3-.322-.672-.285-1.481.023-2.159.308-.677.866-1.226 1.512-1.607.802-.473 1.733-.698 2.662-.803.929-.105 1.866-.098 2.8-.139a29.1 29.1 0 0 0 5.06-.685c2.24-.5 4.422-1.236 6.548-2.096 1.415-.572 2.811-1.203 4.281-1.619.71-.2 1.44-.351 2.178-.33zm1.875 11.293c.781.022 1.574.24 2.188.719.474.369.827.884 1.01 1.453.182.568.194 1.186.05 1.765a3.877 3.877 0 0 1-.803 1.54c-.375.448-.838.82-1.34 1.125-1.002.61-2.145.948-3.279 1.261-4.249 1.175-8.562 2.105-12.861 3.084-2.642.602-5.34 1.228-8.037.955-.688-.07-1.378-.2-2.002-.494-.624-.294-1.181-.765-1.477-1.383-.34-.713-.302-1.573.024-2.293.326-.72.917-1.302 1.601-1.707.85-.502 1.837-.742 2.82-.853.985-.112 1.978-.101 2.967-.145a30.76 30.76 0 0 0 5.36-.73c2.374-.531 4.686-1.313 6.937-2.227 1.499-.608 2.978-1.277 4.535-1.719.751-.213 1.526-.374 2.307-.351zm.035 11.527c.781.023 1.574.24 2.188.717.474.37.827.885 1.01 1.453.182.569.196 1.189.052 1.768-.14.565-.429 1.089-.804 1.537a5.404 5.404 0 0 1-1.338 1.127c-1.003.61-2.148.948-3.282 1.262-4.248 1.174-8.562 2.104-12.861 3.084-2.642.601-5.34 1.225-8.037.953-.688-.07-1.378-.2-2.002-.494-.624-.294-1.181-.763-1.477-1.381-.34-.713-.3-1.574.026-2.293.326-.72.917-1.305 1.601-1.71.85-.502 1.835-.74 2.819-.85.984-.112 1.977-.104 2.967-.147a30.78 30.78 0 0 0 5.36-.729c2.375-.531 4.685-1.315 6.936-2.228 1.499-.608 2.978-1.277 4.536-1.72.75-.212 1.525-.371 2.306-.349zm1.137 12.399c.78.022 1.574.239 2.187.717.474.369.827.886 1.01 1.455.183.568.197 1.186.053 1.765-.14.565-.43 1.09-.805 1.537a5.405 5.405 0 0 1-1.338 1.127c-1.002.611-2.147.948-3.28 1.262-4.25 1.175-8.563 2.105-12.862 3.084-2.642.602-5.338 1.226-8.035.953-.688-.07-1.38-.198-2.004-.492-.625-.294-1.181-.765-1.477-1.383-.34-.713-.3-1.573.026-2.293.325-.72.917-1.304 1.601-1.709.85-.502 1.836-.74 2.82-.851.984-.112 1.978-.103 2.967-.147a30.756 30.756 0 0 0 5.36-.728c2.373-.532 4.684-1.313 6.935-2.227 1.499-.608 2.978-1.277 4.535-1.719.751-.213 1.526-.374 2.307-.351zm1.353 10.802c.869-.01 1.76.197 2.463.702.544.39.959.95 1.188 1.576.229.626.272 1.314.138 1.967a4.33 4.33 0 0 1-.822 1.752 6.021 6.021 0 0 1-1.435 1.318c-1.086.727-2.343 1.157-3.588 1.559-4.666 1.505-9.414 2.74-14.145 4.03-2.907.794-5.876 1.615-8.885 1.434-.767-.046-1.539-.16-2.246-.459-.707-.299-1.348-.798-1.705-1.474-.411-.78-.405-1.74-.076-2.559.33-.818.957-1.495 1.7-1.978.92-.6 2.005-.913 3.093-1.082 1.088-.17 2.192-.205 3.29-.3 2-.17 3.983-.537 5.921-1.058 2.613-.702 5.144-1.682 7.604-2.804 1.637-.748 3.25-1.56 4.959-2.125.824-.273 1.678-.488 2.546-.499zm-3.947 14.135c.229-.012.457-.012.686 0 .915.05 1.839.331 2.545.914.544.45.941 1.071 1.138 1.748a3.86 3.86 0 0 1 .008 2.088 4.585 4.585 0 0 1-.99 1.791 6.362 6.362 0 0 1-1.606 1.291c-1.194.691-2.548 1.055-3.888 1.39-5.021 1.26-10.11 2.228-15.184 3.255-3.118.63-6.302 1.288-9.459.885-.805-.103-1.612-.279-2.336-.645-.723-.366-1.362-.939-1.69-1.678-.377-.852-.304-1.868.1-2.709.405-.84 1.116-1.511 1.932-1.968 1.013-.568 2.176-.82 3.334-.922 1.158-.102 2.324-.06 3.486-.082 2.12-.04 4.232-.287 6.31-.7 2.803-.555 5.538-1.408 8.208-2.42 1.777-.672 3.534-1.417 5.375-1.892.666-.172 1.346-.31 2.031-.346zm2.322 12.252c1.042.01 2.103.282 2.934.91a4.072 4.072 0 0 1 1.383 1.932 4.42 4.42 0 0 1 .117 2.379 5.246 5.246 0 0 1-1.031 2.094 7.232 7.232 0 0 1-1.754 1.554c-1.32.85-2.836 1.335-4.338 1.787-5.63 1.697-11.354 3.064-17.057 4.498-3.504.882-7.08 1.796-10.681 1.5-.919-.075-1.842-.233-2.682-.613-.84-.38-1.596-.999-2.006-1.824-.473-.952-.44-2.111-.025-3.09.415-.978 1.186-1.782 2.088-2.346 1.12-.7 2.426-1.046 3.734-1.222 1.308-.177 2.634-.19 3.951-.276a40.555 40.555 0 0 0 7.121-1.125c3.15-.779 6.208-1.896 9.184-3.187 1.98-.86 3.935-1.799 5.998-2.436.995-.307 2.023-.544 3.064-.535zm-136.246 20.71c-4.332.643-8.387 3.095-11.045 6.679-1.886 2.542-3.067 5.597-3.64 8.742-.574 3.145-.557 6.384-.201 9.563.877 7.853 3.809 15.378 7.921 22.052 4.113 6.674 8.854 13.172 15.13 17.77 15.904 11.652 35.174 19.074 54.5 22.982 10.615 2.147 21.943 2.464 32.49 0 16.837-3.933 32.866-12.35 46.502-22.982 6.134-4.784 11.016-11.096 15.128-17.77 4.113-6.674 7.045-14.2 7.922-22.052.356-3.18.373-6.418-.2-9.563-.575-3.145-1.755-6.2-3.641-8.742-2.658-3.584-6.713-6.036-11.045-6.68-3.329 1.885-6.705 3.738-10.325 4.947-12.31 4.114-25.26 6.384-38.175 7.668a267.552 267.552 0 0 1-52.82 0c-12.917-1.284-25.868-3.553-38.178-7.668-3.62-1.21-6.994-3.062-10.323-4.947zm147.184 14.148c.895-.03 1.798.14 2.64.449 2.117.777 3.852 2.412 5.02 4.34.47.776.861 1.613 1.024 2.506.162.892.08 1.847-.346 2.648-.307.576-.78 1.053-1.326 1.41s-1.162.599-1.793.762c-1.524.393-3.16.347-4.614.949-.773.32-1.475.823-1.99 1.482-.515.66-.835 1.478-.857 2.315-.018.641.138 1.279.388 1.87.251.59.594 1.136.967 1.657a16.952 16.952 0 0 0 4.342 4.205c.56.375 1.148.721 1.625 1.198.238.238.448.51.596.812.148.303.232.638.22.975a2.02 2.02 0 0 1-.365 1.068c-.216.314-.512.57-.84.766-.655.39-1.426.531-2.185.607-1.279.128-2.569.087-3.852.154-1.283.068-2.583.252-3.746.797-.795.373-1.517.917-2.033 1.627-.62.852-.917 1.903-1.018 2.951-.1 1.049-.016 2.105.067 3.155.209 2.652.379 5.426-.678 7.867-.353.816-.852 1.588-1.56 2.125a3.325 3.325 0 0 1-1.19.582 2.682 2.682 0 0 1-1.318.006c-.712-.185-1.31-.687-1.74-1.283-.431-.597-.714-1.286-.975-1.973-.432-1.139-.819-2.297-1.356-3.39-.44-.9-.988-1.757-1.713-2.448-.724-.69-1.638-1.208-2.628-1.352-.855-.123-1.738.036-2.528.387-.79.351-1.487.887-2.084 1.512-1.679 1.76-2.54 4.216-2.578 6.648a11.27 11.27 0 0 0 1.22 5.29c.387.754.861 1.461 1.259 2.21.397.75.72 1.557.777 2.403.053.799-.146 1.62-.604 2.277-.458.657-1.18 1.137-1.972 1.25-.511.073-1.035-.004-1.531-.144-.497-.141-.973-.346-1.454-.536-.626-.248-1.266-.474-1.93-.593-.663-.12-1.356-.13-2.005.05-1.068.297-1.937 1.08-2.633 1.942-.696.862-1.261 1.827-1.978 2.672-.814.958-1.823 1.757-2.97 2.271-1.146.514-2.43.737-3.677.576-1.242-.16-2.406-.685-3.52-1.257-1.113-.573-2.208-1.2-3.398-1.59-.981-.321-2.023-.475-3.053-.399-1.03.076-2.045.387-2.916.942-.993.633-1.762 1.552-2.552 2.425-.791.873-1.651 1.734-2.739 2.186-1.041.433-2.225.453-3.322.193s-2.115-.787-3.053-1.414c-.891-.595-1.718-1.282-2.591-1.904-.874-.622-1.808-1.183-2.836-1.486-1.548-.457-3.236-.295-4.747.271-2.468.925-4.458 2.855-6.92 3.797a9.463 9.463 0 0 1-5.855.29 9.274 9.274 0 0 1-4.86-3.274c-.578-.757-1.037-1.601-1.632-2.344a5.419 5.419 0 0 0-1.014-.998 3.328 3.328 0 0 0-1.289-.592c-.903-.184-1.834.091-2.687.44-.854.348-1.69.777-2.602.917a4.144 4.144 0 0 1-1.836-.127 3.847 3.847 0 0 1-1.58-.937 3.592 3.592 0 0 1-.932-1.58 3.37 3.37 0 0 1 .006-1.832c.275-.942.954-1.705 1.631-2.414.678-.71 1.39-1.426 1.76-2.334.393-.965.358-2.065.064-3.065-.293-.999-.83-1.91-1.42-2.77-.48-.7-1.006-1.378-1.656-1.925-.65-.547-1.434-.96-2.277-1.059-.886-.104-1.793.145-2.559.602-.766.457-1.4 1.114-1.918 1.84-.491.689-.885 1.441-1.336 2.158-.45.717-.967 1.41-1.648 1.912a4.107 4.107 0 0 1-1.98.783 3.73 3.73 0 0 1-2.09-.377c-.907-.463-1.577-1.304-2.01-2.226-.433-.922-.648-1.928-.838-2.928-.306-1.612-.55-3.242-.543-4.883.003-.808.067-1.622-.064-2.42a3.773 3.773 0 0 0-.372-1.15 2.52 2.52 0 0 0-.785-.906 2.326 2.326 0 0 0-1.224-.397 2.714 2.714 0 0 0-1.264.27c-.785.374-1.375 1.09-1.717 1.89-.324.76-.442 1.588-.662 2.383-.11.398-.247.79-.445 1.153a2.9 2.9 0 0 1-.793.941c-.436.324-.978.488-1.52.516-.542.028-1.084-.074-1.6-.245a5.997 5.997 0 0 1-2.4-1.488 5.548 5.548 0 0 1-1.398-2.445c-.233-.882-.234-1.805-.244-2.717-.01-.912-.033-1.839-.3-2.71-.294-.967-.878-1.823-1.562-2.567-.683-.744-1.468-1.387-2.234-2.045-1.194-1.026-2.355-2.101-3.342-3.328-.986-1.227-1.798-2.617-2.22-4.133-.64-2.296-.372-4.78-1.086-7.055-.555-1.766-1.683-3.336-2.034-5.154-.17-.887-.147-1.817.121-2.68.27-.862.789-1.654 1.506-2.203a4.51 4.51 0 0 1 2.153-.863 5.934 5.934 0 0 1 2.324.183c.956.262 1.843.723 2.742 1.141.899.418 1.834.8 2.82.895 1.162.11 2.335-.191 3.381-.707 1.047-.517 1.98-1.24 2.86-2.006.79-.687 1.55-1.417 2.443-1.963.892-.547 1.947-.902 2.982-.75.548.08 1.07.3 1.528.611.458.31.854.71 1.185 1.152.809 1.08 1.242 2.46 1.084 3.8-.108.92-.48 1.784-.84 2.638-.36.853-.716 1.727-.787 2.65a4.4 4.4 0 0 0 .96 3.084 4.245 4.245 0 0 0 2.84 1.53c.801.077 1.616-.084 2.355-.407.738-.322 1.4-.801 1.984-1.357.747-.712 1.37-1.553 2.162-2.215a4.55 4.55 0 0 1 1.318-.795c.484-.18 1.015-.25 1.522-.152.446.086.864.3 1.215.59.35.29.636.653.863 1.047.455.787.675 1.685.89 2.568.656 2.68 1.355 5.43 2.97 7.668.337.467.713.909 1.165 1.266.453.356.986.625 1.555.712.526.08 1.07.004 1.569-.181a4.532 4.532 0 0 0 1.357-.824c.807-.693 1.404-1.591 2.021-2.457.992-1.393 2.087-2.757 3.524-3.682.718-.463 1.518-.81 2.36-.961.84-.152 1.724-.104 2.527.19 1.099.402 1.994 1.245 2.654 2.212.66.968 1.106 2.06 1.53 3.153.393 1.016.777 2.049 1.388 2.95.611.903 1.485 1.678 2.545 1.934.992.24 2.055 0 2.953-.486.898-.486 1.649-1.202 2.336-1.957.716-.787 1.377-1.626 2.154-2.353.777-.727 1.693-1.347 2.73-1.58 1.09-.245 2.261-.041 3.243.492.982.532 1.776 1.38 2.318 2.357.524.944.818 1.995 1.23 2.992.414.998.984 1.983 1.891 2.569.716.462 1.595.638 2.446.582.85-.057 1.675-.335 2.437-.717 1.916-.96 3.463-2.588 4.477-4.477.566-1.055.974-2.191 1.586-3.22a6.494 6.494 0 0 1 1.1-1.414c.434-.412.949-.746 1.519-.928.947-.303 2.005-.167 2.904.258.9.424 1.651 1.12 2.252 1.914.602.794 1.06 1.687 1.646 2.494.586.806 1.337 1.545 2.288 1.846.62.196 1.298.191 1.927.025a4.53 4.53 0 0 0 1.713-.904c1.004-.83 1.671-1.996 2.192-3.19.748-1.718 1.24-3.537 1.9-5.29.38-1.009.824-2.01 1.506-2.845.682-.833 1.631-1.491 2.699-1.632.87-.115 1.767.121 2.516.578.749.456 1.355 1.121 1.824 1.863.342.542.615 1.127.982 1.652.367.526.849 1.002 1.46 1.198.327.105.68.123 1.02.072.341-.051.67-.17.971-.336.605-.33 1.097-.834 1.536-1.365 1.152-1.396 1.985-3.021 2.85-4.612.45-.83.917-1.662 1.55-2.363.633-.7 1.453-1.27 2.383-1.435.926-.166 1.893.082 2.713.542.788.443 1.453 1.07 2.174 1.616.72.546 1.536 1.027 2.437 1.097.744.058 1.5-.177 2.113-.601.615-.425 1.092-1.032 1.414-1.705.53-1.108.643-2.36.801-3.578.158-1.218.386-2.475 1.098-3.475.694-.975 1.807-1.616 2.982-1.844.294-.057.59-.087.889-.097zM419.565 245.8a4.923 4.923 0 0 0-2.19.658 5.702 5.702 0 0 0-1.707 1.53c-.922 1.231-1.355 2.785-1.393 4.323-.034 1.383.249 2.793.963 3.977.715 1.184 1.888 2.12 3.242 2.399.716.147 1.464.11 2.168-.084a5.373 5.373 0 0 0 1.932-1.002c1.137-.917 1.897-2.252 2.275-3.663.49-1.821.35-3.85-.61-5.474a5.61 5.61 0 0 0-1.974-1.988 4.908 4.908 0 0 0-2.707-.676zm124.63 4.828a5.292 5.292 0 0 0-1.322.191c-1.37.381-2.568 1.32-3.299 2.54-.731 1.219-.997 2.703-.771 4.107a6.12 6.12 0 0 0 1.533 3.178 5.624 5.624 0 0 0 3.08 1.705c1.632.297 3.382-.212 4.63-1.303 1.25-1.092 1.986-2.736 2.016-4.395.033-1.79-.762-3.587-2.142-4.728a5.742 5.742 0 0 0-3.725-1.295zm-107.267 4.94c-1.935-.033-3.834.929-5.051 2.433-1.217 1.504-1.76 3.506-1.596 5.434.136 1.594.749 3.16 1.807 4.36 1.058 1.202 2.567 2.017 4.162 2.151 1.748.147 3.526-.537 4.803-1.74 1.276-1.203 2.056-2.894 2.252-4.637.214-1.908-.27-3.907-1.436-5.433-1.165-1.527-3.021-2.537-4.941-2.569zm89.039 2.699a4.034 4.034 0 0 0-1.436.341 5.345 5.345 0 0 0-1.613 1.125c-.934.93-1.565 2.117-2.156 3.295-.394.784-.779 1.577-1.028 2.418-.249.842-.358 1.738-.193 2.6a4.128 4.128 0 0 0 1.531 2.488 3.91 3.91 0 0 0 2.809.768c.732-.09 1.43-.395 2.039-.81.61-.417 1.139-.94 1.625-1.495.745-.85 1.4-1.788 1.865-2.818.466-1.03.739-2.157.711-3.287-.026-1.073-.334-2.153-.973-3.016-.638-.863-1.62-1.49-2.689-1.596a3.472 3.472 0 0 0-.492-.013zm-22.85 3.388a6.145 6.145 0 0 0-2.064.471c-1.162.487-2.167 1.325-2.897 2.352-.73 1.026-1.186 2.237-1.365 3.484-.179 1.247-.083 2.528.232 3.748.374 1.446 1.068 2.826 2.123 3.883 1.056 1.056 2.488 1.767 3.981 1.814.9.029 1.802-.181 2.611-.576a6.547 6.547 0 0 0 2.108-1.66c1.163-1.374 1.77-3.16 1.927-4.953.157-1.773-.117-3.61-.97-5.172-.854-1.561-2.32-2.818-4.05-3.238a5.594 5.594 0 0 0-.929-.145 5.935 5.935 0 0 0-.707-.008zm-43.652.12c-.661.013-1.32.161-1.928.423-.81.35-1.53.897-2.113 1.559-1.167 1.324-1.767 3.076-1.945 4.832-.166 1.627.021 3.321.769 4.775a6.016 6.016 0 0 0 1.518 1.906 5.029 5.029 0 0 0 2.19 1.051 5.02 5.02 0 0 0 2.683-.226 5.98 5.98 0 0 0 2.252-1.498c1.255-1.316 1.918-3.115 2.117-4.922.187-1.703-.028-3.487-.858-4.987a5.98 5.98 0 0 0-1.668-1.927 5.034 5.034 0 0 0-2.357-.953 4.685 4.685 0 0 0-.66-.034zm21.101 1.658a5.247 5.247 0 0 0-2.064.595 6.094 6.094 0 0 0-2.13 1.909c-1.102 1.577-1.474 3.583-1.325 5.501.116 1.5.548 2.999 1.426 4.22.878 1.22 2.233 2.135 3.728 2.292a4.95 4.95 0 0 0 2.535-.428 5.883 5.883 0 0 0 2.05-1.566c1.12-1.322 1.67-3.06 1.792-4.789.122-1.73-.179-3.525-1.088-5.002a6.07 6.07 0 0 0-1.78-1.87 5.132 5.132 0 0 0-2.423-.86 4.79 4.79 0 0 0-.72-.002zm34.362 15.058c-.78-.029-1.56.185-2.237.574a5.098 5.098 0 0 0-1.677 1.602c-.864 1.3-1.16 2.913-1.104 4.473.05 1.398.381 2.814 1.162 3.974.39.58.89 1.091 1.48 1.467.59.376 1.272.615 1.97.662a4.224 4.224 0 0 0 2.316-.539 5.113 5.113 0 0 0 1.744-1.633c.894-1.336 1.183-3.006 1.094-4.611-.078-1.394-.44-2.801-1.248-3.94a5.08 5.08 0 0 0-1.516-1.423 4.2 4.2 0 0 0-1.984-.606zm-46.121 1.22a4.999 4.999 0 0 0-2.327.567 5.998 5.998 0 0 0-1.86 1.518c-1.029 1.242-1.577 2.828-1.782 4.428-.254 1.977.011 4.07 1.05 5.771a6.344 6.344 0 0 0 2.079 2.111c.85.52 1.843.814 2.84.8a5.337 5.337 0 0 0 2.752-.844 6.351 6.351 0 0 0 2.007-2.077c1.009-1.661 1.286-3.693 1.075-5.625-.176-1.603-.689-3.203-1.69-4.468a6.014 6.014 0 0 0-1.83-1.559 5.002 5.002 0 0 0-2.314-.621zm23.06.138a4.83 4.83 0 0 0-2.437.74 5.938 5.938 0 0 0-1.819 1.803c-.941 1.439-1.293 3.198-1.304 4.918-.012 1.698.307 3.437 1.195 4.884a6.085 6.085 0 0 0 1.728 1.846c.701.48 1.52.793 2.366.865.974.084 1.968-.154 2.822-.63.854-.477 1.571-1.185 2.102-2.006 1.06-1.644 1.355-3.69 1.181-5.637-.146-1.637-.624-3.282-1.623-4.586a5.865 5.865 0 0 0-1.848-1.602 4.82 4.82 0 0 0-2.363-.595z"/></svg>