<svg xmlns="http://www.w3.org/2000/svg" xmlns:xlink="http://www.w3.org/1999/xlink" viewBox="0 0 977.12 1067.6"><defs><path id="o" d="M-743.01 762.33c0 6.935-5.348 12.557-11.945 12.557s-11.945-5.622-11.945-12.557c0-6.935 5.348-12.557 11.945-12.557s11.945 5.622 11.945 12.557z" stroke-linejoin="round" stroke="#000" stroke-width="4.499" stroke-linecap="round"/><path id="p" d="M2477.22 73.38c0 11.09-9.598 20.08-21.438 20.08-11.84 0-21.438-8.989-21.438-20.08 0-11.09 9.598-20.08 21.438-20.08 11.84 0 21.438 8.989 21.438 20.08z" fill="#da121a" stroke-linejoin="round" stroke-width="5.504" stroke="#000" stroke-linecap="round"/></defs><path style="fill:#da121a" d="M798.39 10.026c-26.17.053-51.02.198-70.798.478-79.11 1.122-156.7-.214-235.05 0-2.653.007-5.305.036-7.958.043-78.35.214-155.94 1.122-235.05 0-79.11-1.122-239.53 0-239.53 0s4.995 48.18 6.784 72.32c3.067 41.38 4.256 82.87 6.784 124.29 3.405 55.766 7.902 111.49 11.307 167.25 2.529 41.41 3.91 82.9 6.784 124.29 4.346 62.59 5.02 125.75 15.786 187.56 6.02 34.562 14.418 68.979 27.14 101.67 15.355 39.473 33.473 78.71 58.839 112.63 18.288 24.456 41.648 45.04 65.884 63.62 27.747 21.272 57.962 39.816 89.93 53.968 33.818 14.97 69.917 25.08 106.24 32.09 27.334 5.278 55.35 7.255 83.19 7.349 27.662.094 55.55-1.52 82.71-6.741 36.46-7.01 72.54-17.626 106.46-32.746 31.934-14.235 62.23-32.696 89.98-53.968 24.24-18.58 47.595-39.17 65.884-63.62 25.365-33.919 43.484-73.16 58.839-112.63 12.718-32.695 21.12-67.16 27.14-101.72 10.762-61.814 11.44-124.97 15.786-187.56 2.874-41.39 4.256-82.87 6.784-124.29 3.405-55.766 7.902-111.44 11.307-167.21 2.529-41.41 3.717-82.909 6.784-124.29 1.79-24.14 6.784-72.32 6.784-72.32s-90.24-.636-168.73-.478"/><path d="M259.97 601.255s-5.307 2.72-6.844 5.125c-2.461 3.853-2.875 13.406-2.875 13.406l.594 73.37v14.563l-.563 48.719v46.625h24.813v-62.531l-.188-9.688-.094-11.719v-100.75l-14.844-17.12z" id="a" style="fill:#fff;stroke:#000;stroke-width:5"/><path d="M327.8 588.425c6.156 2.301 4.461 12.428 7.669 18.16 1.977 3.536 4.384 6.851 7.06 9.889a53.23 53.23 0 0 0 7.871 7.266c3.207 2.416 6.706 4.452 10.293 6.256 3.828 1.926 7.87 3.409 11.907 4.844a89.239 89.239 0 0 0 7.266 2.22c2.732.716 6.639-.486 8.275 1.816.981 1.381.27 3.595-.605 5.05-1.225 2.029-3.583 3.355-5.853 4.04-3.222.968-6.728-.297-10.09-.202-1.754.05-3.747-.505-5.247.404-1.629.986-1.487 3.724-3.03 4.844-1.571 1.142-3.741 1.764-5.651 1.413-2.661-.489-4.922-2.567-6.66-4.642-1.855-2.215-2.651-5.153-3.633-7.871-.355-.982.215-3.24-.807-3.03-1.332.277.851 2.698.605 4.04-.223 1.215-.765 2.58-1.816 3.229-1.204.743-2.871.565-4.238.202-1.696-.45-3.117-1.674-4.44-2.826-1.8-1.566-3.544-3.331-4.642-5.449-1.374-2.651-1.847-5.716-2.22-8.678-.101-.801.802-2.329 0-2.422-1.167-.135-.53 2.289-.807 3.431-.327 1.348-.223 2.894-1.01 4.04-.465.677-1.252 1.118-2.02 1.413-1.012.39-2.195.732-3.229.404-1.997-.635-3.168-2.749-4.642-4.238-1.207-1.219-2.597-2.336-3.431-3.835-.58-1.042-.69-2.282-1.01-3.431-.428-1.541.388-4.628-1.211-4.642-1.746-.015-1.118 3.324-1.413 5.05-.171.997.001 2.038-.202 3.03-.446 2.103-.437 4.854-2.22 6.05-1.619 1.09-4.101.658-5.853-.202-3.688-1.81-5.451-6.165-7.871-9.486-4.649-6.38-10.407-12.431-12.715-19.98-1.476-4.827-2.149-10.401-.404-15.14 1.252-3.397 3.735-7.271 7.266-8.07 4.471-1.015 8.494 3.457 12.715 5.247 5.27 2.236 10.02 6.99 15.742 6.862 3.82-.085 6.714-6.384 10.293-5.05z" id="b" style="fill:#fff;stroke:#000;stroke-width:5;stroke-linejoin:round"/><path d="M201.38 588.425c-6.156 2.301-4.461 12.428-7.669 18.16-1.977 3.536-4.384 6.851-7.06 9.889a53.23 53.23 0 0 1-7.871 7.266c-3.207 2.416-6.706 4.452-10.293 6.256-3.828 1.926-7.87 3.409-11.908 4.844a89.337 89.337 0 0 1-7.265 2.22c-2.732.716-6.639-.486-8.275 1.816-.981 1.381-.27 3.595.605 5.05 1.225 2.029 3.583 3.355 5.853 4.04 3.222.968 6.728-.297 10.09-.202 1.754.05 3.747-.505 5.247.404 1.629.986 1.487 3.724 3.03 4.844 1.571 1.142 3.741 1.764 5.651 1.413 2.661-.489 4.922-2.567 6.66-4.642 1.855-2.215 2.651-5.153 3.633-7.871.355-.982-.215-3.24.807-3.03 1.332.277-.851 2.698-.605 4.04.223 1.215.765 2.58 1.816 3.229 1.204.743 2.871.565 4.238.202 1.696-.45 3.117-1.674 4.44-2.826 1.8-1.566 3.544-3.331 4.642-5.449 1.373-2.651 1.847-5.716 2.22-8.678.101-.801-.802-2.329 0-2.422 1.167-.135.53 2.289.807 3.431.327 1.348.223 2.894 1.01 4.04.465.677 1.252 1.118 2.02 1.413 1.012.39 2.195.732 3.229.404 1.997-.635 3.168-2.749 4.642-4.238 1.207-1.219 2.597-2.336 3.431-3.835.58-1.042.69-2.282 1.01-3.431.427-1.541-.388-4.628 1.211-4.642 1.746-.015 1.118 3.324 1.413 5.05.171.997-.001 2.038.202 3.03.446 2.103.437 4.854 2.22 6.05 1.619 1.09 4.101.658 5.853-.202 3.688-1.81 5.451-6.165 7.871-9.486 4.649-6.38 10.407-12.431 12.715-19.98 1.476-4.827 2.149-10.401.404-15.14-1.252-3.397-3.735-7.271-7.266-8.07-4.471-1.015-8.494 3.457-12.715 5.247-5.27 2.236-10.02 6.99-15.742 6.862-3.82-.085-6.714-6.384-10.293-5.05z" id="c" style="fill:#fff;stroke:#000;stroke-width:5;stroke-linejoin:round"/><path d="M271.29 571.875c4.295.558 7.02 5.309 9.482 8.875 3.425 4.968 4.295 11.301 6.851 16.767 2.257 4.825 4.829 9.52 7.487 14.14 3.167 5.5 6.569 10.85 10.09 16.13 2.837 4.256 5.306 8.854 8.875 12.517 2.112 2.169 4.642 3.907 7.256 5.435 1.586.927 4.882.397 5.059 2.226.182 1.876-2.836 2.741-4.654 3.238-2.603.711-5.488.192-8.07-.607-2.304-.714-4.197-2.368-6.244-3.642-3.088-1.924-6.741-3.277-9.106-6.04-1.252-1.464-1.84-3.418-2.399-5.261-.376-1.238.685-3.74-.607-3.816-2.232-.131-.071 5.05-1.821 6.447-1.107.881-2.923.692-4.25.202-1.473-.544-2.236-2.196-3.411-3.238-1.18-1.045-2.596-1.828-3.642-3.01-1.066-1.2-2.01-2.569-2.631-4.047-.591-1.398-.801-2.949-1.012-4.452-.169-1.201 1.01-3.547-.202-3.614-1.226-.067-.487 2.392-.607 3.614-.211 2.143.487 4.435-.202 6.476-.556 1.645-1.381 3.612-3.01 4.221-1.36.509-3.03-.197-4.25-.983-1.29-.83-2.103-2.293-2.833-3.642-1.083-2-1.349-4.334-2.197-6.447-.062-.154-.136-.31-.202-.463-.067.154-.14.307-.202.463-.848 2.113-1.142 4.445-2.226 6.447-.73 1.349-1.543 2.812-2.833 3.642-1.221.786-2.89 1.492-4.249.983-1.626-.609-2.451-2.576-3.01-4.221-.689-2.041 0-4.332-.202-6.476-.12-1.222.619-3.681-.607-3.614-1.211.066-.034 2.413-.202 3.614-.211 1.503-.421 3.054-1.012 4.452-.625 1.478-1.565 2.847-2.631 4.047-1.047 1.179-2.463 1.961-3.642 3.01-1.176 1.041-1.938 2.694-3.411 3.238-1.327.49-3.143.678-4.249-.202-1.75-1.392.411-6.578-1.821-6.447-1.292.076-.231 2.578-.607 3.816-.559 1.843-1.147 3.797-2.399 5.261-2.365 2.765-6.02 4.118-9.106 6.04-2.047 1.275-3.941 2.929-6.244 3.642-2.578.799-5.462 1.318-8.07.607-1.818-.496-4.836-1.362-4.654-3.238.177-1.829 3.473-1.299 5.059-2.226 2.614-1.528 5.144-3.266 7.256-5.435 3.569-3.664 6.04-8.262 8.875-12.517 3.52-5.281 6.922-10.631 10.09-16.13 2.658-4.616 5.23-9.311 7.487-14.14 2.557-5.466 3.427-11.799 6.851-16.767 2.458-3.566 5.187-8.317 9.482-8.875 1.97-.256 4.11 1.214 5.261 2.833 1.225 1.721.843 4.139 1.012 6.244.169-2.106-.242-4.523.983-6.244 1.152-1.619 3.291-3.089 5.261-2.833zm-6.273 10.87c-.116 2.122-.52 4.273.029 6.302.549-2.03.087-4.18-.029-6.302z" id="d" style="fill:#fff;stroke:#000;stroke-width:5;stroke-linejoin:round"/><path d="m258.56 704.005-.285 33.11" id="e" style="fill:#fff;stroke:#000;stroke-width:5;stroke-linecap:round"/><path d="m257.99 695.445.856-56.23" id="f" style="fill:#fff;stroke:#000;stroke-width:5;stroke-linecap:round"/><path d="M318.32 548.265c1.01 3.934 3 7.656 5.449 10.898 1.978 2.623 4.892 4.388 7.266 6.66 2.818 2.698 5.156 5.932 8.275 8.275 3.684 2.766 7.939 4.704 12.11 6.66a96.376 96.376 0 0 0 11.302 4.44c2.841.918 5.721 1.805 8.678 2.22 2.333.328 5.151-1.173 7.06.202 1.106.795 1.475 2.474 1.413 3.835-.072 1.563-1.224 2.89-2.02 4.238-.587.997-1.01 2.264-2.02 2.826-1.886 1.046-4.305.522-6.458.404-1.568-.086-3.196-.195-4.642-.807-1.685-.713-3.01-4.371-4.44-3.229-1.201.959 1.674 2.708 1.816 4.238.115 1.235-.294 2.504-.807 3.633-.657 1.445-1.336 3.285-2.825 3.835-1.944.717-4.308-.298-6.05-1.413-1.656-1.057-2.356-3.149-3.633-4.642-.897-1.049-2.01-1.914-2.825-3.03-1.051-1.433-.95-5.24-2.624-4.642-1.479.529.607 3.084.807 4.642.206 1.607.961 3.322.404 4.844-.458 1.251-1.518 2.569-2.825 2.825-1.361.267-2.636-.917-3.835-1.615-.954-.555-1.722-1.382-2.624-2.02-2.944-2.075-5.811-4.346-9.08-5.853-8.738-4.02-19.434-3.269-27.65-8.275-4.469-2.723-8.08-6.889-10.898-11.302-2.714-4.256-4.525-9.165-5.449-14.13-1.059-5.688-1.78-11.852 0-17.357.919-2.843 3.253-5.04 5.247-7.266 2.481-2.766 4.797-6.16 8.275-7.467 4.157-1.562 9.169-1.375 13.32.202 2.988 1.135 5.56 3.554 7.266 6.256 1.228 1.946 1.467 4.386 1.816 6.66.266 1.73-.233 3.552.202 5.247z" id="g" style="fill:#fff;stroke:#000;stroke-width:5;stroke-linejoin:round"/><path d="M208.07 548.265c-1.01 3.934-3 7.656-5.449 10.898-1.978 2.623-4.893 4.388-7.266 6.66-2.818 2.698-5.156 5.932-8.275 8.275-3.684 2.766-7.939 4.704-12.11 6.66a96.376 96.376 0 0 1-11.302 4.44c-2.841.918-5.721 1.805-8.678 2.22-2.333.328-5.151-1.173-7.06.202-1.106.795-1.475 2.474-1.413 3.835.072 1.563 1.224 2.89 2.02 4.238.587.997 1.01 2.264 2.02 2.826 1.886 1.046 4.304.522 6.458.404 1.568-.086 3.196-.195 4.642-.807 1.685-.713 3.01-4.371 4.44-3.229 1.201.959-1.673 2.708-1.816 4.238-.115 1.235.294 2.504.807 3.633.657 1.445 1.336 3.285 2.825 3.835 1.945.717 4.308-.298 6.05-1.413 1.656-1.057 2.356-3.149 3.633-4.642.897-1.049 2.01-1.914 2.825-3.03 1.051-1.433.95-5.24 2.624-4.642 1.479.529-.607 3.084-.807 4.642-.206 1.607-.961 3.322-.404 4.844.458 1.251 1.518 2.569 2.825 2.825 1.361.267 2.636-.917 3.835-1.615.954-.555 1.722-1.382 2.624-2.02 2.944-2.075 5.811-4.346 9.08-5.853 8.738-4.02 19.434-3.269 27.65-8.275 4.469-2.723 8.08-6.889 10.898-11.302 2.714-4.256 4.525-9.165 5.449-14.13 1.059-5.688 1.78-11.852 0-17.357-.919-2.843-3.253-5.04-5.247-7.266-2.481-2.766-4.797-6.16-8.275-7.467-4.157-1.562-9.169-1.375-13.32.202-2.988 1.135-5.56 3.554-7.265 6.256-1.228 1.946-1.467 4.386-1.816 6.66-.266 1.73.233 3.552-.202 5.247z" id="h" style="fill:#fff;stroke:#000;stroke-width:5;stroke-linejoin:round"/><path d="M267.74 533.735c2.31-.082 4.864.866 6.591 2.226 4.79 3.772 4.03 11.534 6.851 16.94 2.225 4.269 4.715 8.47 7.863 12.11 2.93 3.39 6.644 6.01 10.09 8.875 4.604 3.83 9.143 7.795 14.14 11.1 3.138 2.078 6.568 3.689 9.887 5.464 1.804.965 4.341 1.093 5.464 2.804 1.073 1.635 1.309 4.135.405 5.868-1.633 3.13-5.576 4.978-9.08 5.435-3.61.471-7.443-1.065-10.523-3.01-1.37-.864-2.343-2.273-3.209-3.642-1.289-2.038-.47-7.158-2.833-6.678-1.187.241.194 2.447 0 3.642-.273 1.68-.393 3.676-1.619 4.857-1.212 1.166-3.179 1.751-4.828 1.417-2.296-.465-3.945-2.668-5.464-4.452-1.309-1.538-2.454-3.327-3.035-5.261-.64-2.13 1.804-6.385-.405-6.649-1.817-.217-.896 3.568-1.59 5.261-.719 1.754-.889 4.281-2.631 5.03-1.35.581-2.983-.469-4.249-1.214-1.722-1.013-2.923-2.702-4.221-4.221-1.189-1.391-2.526-2.766-3.238-4.452-.753-1.784-.944-3.746-1.099-5.695 0 .883-.039 1.729-.116 2.255-.272 1.875-.369 4.04-1.619 5.464-.874.996-2.29 1.555-3.613 1.619-.39.019-.812-.077-1.185-.231-.373.154-.767.25-1.156.231-1.324-.064-2.768-.623-3.642-1.619-1.25-1.424-1.347-3.589-1.619-5.464-.076-.526-.111-1.372-.116-2.255-.155 1.949-.346 3.911-1.099 5.695-.711 1.686-2.049 3.061-3.238 4.452-1.298 1.519-2.499 3.207-4.221 4.221-1.266.745-2.9 1.795-4.25 1.214-1.741-.75-1.912-3.276-2.631-5.03-.694-1.693.227-5.479-1.59-5.261-2.208.264.235 4.519-.405 6.649-.581 1.934-1.726 3.724-3.035 5.261-1.519 1.784-3.167 3.987-5.464 4.452-1.648.334-3.616-.25-4.828-1.417-1.226-1.18-1.346-3.177-1.619-4.857-.194-1.195 1.187-3.401 0-3.642-2.363-.481-1.544 4.64-2.833 6.678-.866 1.369-1.838 2.778-3.209 3.642-3.08 1.942-6.883 3.478-10.494 3.01-3.501-.457-7.474-2.305-9.106-5.435-.904-1.734-.668-4.233.405-5.868 1.122-1.711 3.659-1.839 5.464-2.804 3.319-1.775 6.748-3.386 9.887-5.464 4.994-3.306 9.532-7.271 14.14-11.1 3.445-2.865 7.159-5.485 10.09-8.875 3.148-3.642 5.638-7.844 7.863-12.11 2.818-5.406 2.062-13.169 6.851-16.94 2.512-1.978 6.723-3.03 9.482-1.417.144.084.263.177.376.289.113-.112.232-.205.376-.289.862-.505 1.841-.772 2.891-.809z" id="i" style="fill:#fff;stroke:#000;stroke-width:5;stroke-linejoin:round"/><path d="M281.76 488.815c1.668.036 3.32.16 4.886.318 3.754.379 7.503 1.921 10.494 4.221 2.933 2.256 4.619 5.81 6.649 8.904 3.653 5.567 5.737 12.137 9.887 17.345 2.107 2.644 4.846 4.706 7.458 6.851 2.641 2.169 5.303 4.422 8.297 6.071 4.18 2.302 8.711 3.915 13.298 5.232a47.46 47.46 0 0 0 8.701 1.619c3.216.297 6.461-.201 9.684 0 2.165.135 4.744-.535 6.447.809 1.353 1.068 1.885 3.133 1.821 4.857-.071 1.925-1.196 3.752-2.428 5.232a8.34 8.34 0 0 1-3.44 2.428c-2.598.966-5.506 1.039-8.268.809-1.805-.15-3.556-.729-5.232-1.417-2.146-.88-4.573-5.211-6.071-3.44-.896 1.059 2.279 1.896 2.631 3.238.605 2.311.612 5.514-1.214 7.05-1.44 1.214-3.906.742-5.637 0-1.793-.769-2.792-2.727-4.047-4.221-1.238-1.473-2.309-3.098-3.44-4.654-1.021-1.404-1.332-4.678-3.01-4.221-1.498.409.116 3.162-.405 4.625-.682 1.916-1.786 3.875-3.44 5.059-1.646 1.178-3.839 1.926-5.84 1.619-1.346-.207-2.594-1.158-3.44-2.226-1.242-1.568-1.591-3.713-2.024-5.666-.628-2.837 2.084-8.411-.81-8.673-1.739-.157-.379 3.654-1.417 5.059-.665.901-1.689 1.72-2.804 1.821-1.232.112-2.499-.615-3.44-1.417-2.644-2.252-3.842-5.833-5.464-8.904-.998-1.891-.607-6.608-2.602-5.84-2.64 1.017 2.052 5.29 2.602 8.07a22.59 22.59 0 0 1 .405 5.261c-.052 1.293.205 2.808-.607 3.816-.815 1.012-2.328 1.608-3.614 1.417-1.185-.176-2.092-1.285-2.833-2.226-1.099-1.395-.504-5.262-2.226-4.828-2.026.511.337 4.156.405 6.244.061 1.883.395 3.824 0 5.666-.31 1.443-.819 2.936-1.821 4.02-.573.618-1.386 1.279-2.226 1.214-1.436-.11-2.372-1.605-3.411-2.602-.758-.727-1.328-1.64-2.024-2.428-.913-1.035-2.028-1.914-2.833-3.035-.579-.807-1.106-1.687-1.417-2.631-.595-1.807 1.089-5.502-.809-5.637-1.678-.119-.73 3.28-1.388 4.828-.424.999-.725 2.219-1.619 2.833-.729.501-1.759.557-2.631.405-.83-.145-1.6-.65-2.226-1.214-.97-.875-1.644-2.04-2.226-3.209-.759-1.523-1.258-3.187-1.59-4.857-.184-.926.134-1.951-.202-2.833-.393-1.03-1.212-1.821-1.995-2.631-.783.809-1.573 1.601-1.966 2.631-.337.882-.018 1.907-.202 2.833-.332 1.669-.86 3.333-1.619 4.857-.582 1.169-1.256 2.334-2.226 3.209-.626.565-1.396 1.069-2.226 1.214-.872.153-1.901.096-2.631-.405-.894-.614-1.166-1.835-1.59-2.833-.657-1.548.261-4.947-1.417-4.828-1.898.135-.215 3.83-.81 5.637-.311.944-.837 1.824-1.417 2.631-.805 1.121-1.92 2-2.833 3.035-.695.788-1.265 1.701-2.024 2.428-1.039.997-1.976 2.491-3.411 2.602-.841.065-1.653-.596-2.226-1.214-1-1.082-1.512-2.576-1.821-4.02-.395-1.842-.061-3.783 0-5.666.067-2.089 2.431-5.733.405-6.244-1.722-.434-1.127 3.433-2.226 4.828-.741.941-1.619 2.05-2.804 2.226-1.285.191-2.827-.405-3.642-1.417-.812-1.01-.555-2.523-.607-3.816a22.59 22.59 0 0 1 .405-5.261c.55-2.776 5.271-7.05 2.631-8.07-1.995-.769-1.632 3.949-2.631 5.84-1.622 3.071-2.82 6.652-5.464 8.904-.941.802-2.179 1.528-3.411 1.417-1.115-.101-2.168-.921-2.833-1.821-1.038-1.405.323-5.216-1.417-5.059-2.893.261-.181 5.836-.81 8.673-.432 1.953-.782 4.098-2.024 5.666-.846 1.068-2.065 2.02-3.411 2.226-2 .308-4.223-.441-5.868-1.619-1.654-1.184-2.729-3.143-3.411-5.059-.521-1.463 1.093-4.216-.405-4.625-1.675-.458-2.01 2.816-3.035 4.221-1.131 1.557-2.202 3.181-3.44 4.654-1.255 1.494-2.225 3.452-4.02 4.221-1.731.742-4.226 1.214-5.666 0-1.826-1.54-1.82-4.743-1.214-7.05.352-1.342 3.526-2.179 2.631-3.238-1.498-1.771-3.925 2.56-6.071 3.44-1.676.687-3.427 1.267-5.232 1.417-2.762.229-5.67.156-8.268-.809a8.34 8.34 0 0 1-3.44-2.428c-1.233-1.481-2.357-3.307-2.428-5.232-.063-1.723.468-3.788 1.821-4.857 1.703-1.344 4.281-.675 6.447-.809 3.223-.201 6.498.297 9.713 0 2.93-.27 5.844-.807 8.673-1.619 4.587-1.317 9.147-2.93 13.327-5.232 2.994-1.649 5.626-3.902 8.268-6.071 2.613-2.145 5.352-4.207 7.458-6.851 4.149-5.208 6.234-11.778 9.887-17.345 2.03-3.094 3.745-6.648 6.678-8.904 2.991-2.3 6.74-3.842 10.494-4.221 6.262-.632 13.866-.753 18.559 3.44 2.458 2.196 3.882 5.088 4.799 8.297.917-3.208 2.341-6.101 4.799-8.297 3.52-3.145 8.7-3.865 13.703-3.758z" id="j" style="fill:#fff;stroke:#000;stroke-width:5;stroke-linejoin:round"/><path d="M275.83 459.305c1.844.027 3.633.362 5.261 1.099 5.93 2.683 7.657 10.558 11.997 15.408 3.32 3.71 6.876 7.244 10.696 10.436 1.884 1.574 4 2.866 6.01 4.278 1.846 1.298 3.563 2.777 5.551 3.845 2.708 1.455 5.582 2.666 8.557 3.44 2.878.748 5.88.909 8.846 1.127 2.562.188 5.298-.718 7.719.145.798.284 1.624.799 1.995 1.561.374.77.197 1.74 0 2.573-.342 1.449-.807 3.091-1.995 3.989-3.051 2.307-7.45 2.222-11.274 2.139-1.661-.036-3.332-.466-4.857-1.127-1.101-.478-2.138-2.823-3.01-1.995-.803.766 1.321 1.832 1.735 2.862.4.996.905 2.07.694 3.122-.242 1.204-1.093 2.364-2.139 3.01-1.353.83-3.197 1.168-4.712.694-1.124-.352-1.753-1.526-2.544-2.399-.888-.98-1.651-2.081-2.428-3.151-1.389-1.91-1.737-6.449-4.02-5.84-1.198.32-.213 2.461-.26 3.7-.033.856.392 1.812 0 2.573-.749 1.455-2.382 2.809-4.02 2.862-1.623.053-2.947-1.465-4.134-2.573-1.071-1-1.505-2.582-2.573-3.585-1.434-1.346-3.448-1.88-4.972-3.122-1.226-.999-2.332-2.186-3.295-3.44-.949-1.236-.984-4.573-2.428-3.989-1.402.566.745 2.935 1.012 4.423.254 1.417.754 2.853.549 4.278-.133.927-.757 1.712-1.127 2.573-.245.568-.552 1.111-.723 1.706-.32 1.112-.483 2.287-.578 3.44-.106 1.28.252 2.585 0 3.845-.364 1.819-.508 4.263-2.139 5.146-1.83.99-4.45.073-6.129-1.156-1.304-.956-1.645-2.792-2.284-4.278-.891-2.073.088-6.779-2.139-6.418-1.08.175.068 2.175 0 3.267-.072 1.148-.074 2.347-.434 3.44-.425 1.295-.771 2.956-1.995 3.556-.864.423-1.988-.002-2.862-.405a7.848 7.848 0 0 1-3.267-2.862c-.487-.766-.784-1.628-1.012-2.515-.227.889-.552 1.747-1.041 2.515a7.843 7.843 0 0 1-3.267 2.862c-.873.403-1.998.828-2.862.405-1.224-.6-1.569-2.261-1.995-3.556-.359-1.093-.362-2.292-.434-3.44-.068-1.092 1.08-3.091 0-3.267-2.227-.361-1.248 4.345-2.139 6.418-.639 1.486-.979 3.322-2.284 4.278-1.678 1.23-4.299 2.147-6.129 1.156-1.632-.883-1.775-3.327-2.139-5.146-.252-1.259.106-2.565 0-3.845-.095-1.153-.258-2.328-.578-3.44-.171-.594-.478-1.138-.723-1.706-.37-.861-.994-1.645-1.127-2.573-.205-1.425.324-2.861.578-4.278.267-1.488 2.385-3.857.983-4.423-1.445-.584-1.479 2.754-2.428 3.989-.963 1.254-2.041 2.441-3.267 3.44-1.524 1.243-3.568 1.776-5 3.122-1.068 1-1.502 2.585-2.573 3.585-1.187 1.108-2.511 2.625-4.134 2.573-1.636-.053-3.24-1.407-3.989-2.862-.392-.761.033-1.717 0-2.573-.048-1.24.909-3.38-.289-3.7-2.282-.61-2.601 3.929-3.989 5.84-.778 1.07-1.541 2.171-2.428 3.151-.791.873-1.449 2.048-2.573 2.399-1.515.474-3.359.137-4.712-.694-1.046-.642-1.897-1.803-2.139-3.01-.211-1.052.323-2.126.723-3.122.414-1.03 2.509-2.096 1.706-2.862-.869-.829-1.905 1.517-3.01 1.995-1.524.662-3.196 1.091-4.857 1.127-3.824.083-8.223.168-11.274-2.139-1.188-.898-1.652-2.54-1.995-3.989-.197-.833-.374-1.803 0-2.573.37-.762 1.197-1.277 1.995-1.561 2.42-.862 5.156.044 7.719-.145 2.966-.218 5.968-.379 8.846-1.127 2.975-.774 5.849-1.985 8.557-3.44 1.988-1.068 3.734-2.547 5.579-3.845 2.01-1.412 4.1-2.704 5.984-4.278 3.821-3.192 7.376-6.726 10.696-10.436 4.34-4.85 6.067-12.725 11.997-15.408 4.342-1.965 9.915-1.043 14.281.867a21.287 21.287 0 0 1 3.729 2.11 21.223 21.223 0 0 1 3.729-2.11c2.729-1.194 5.917-2.01 8.991-1.966z" id="k" style="fill:#fff;stroke:#000;stroke-width:5;stroke-linejoin:round"/><path d="M265.11 421.715c2.712.028 4.582 3.03 6.447 5 2.468 2.606 3.893 6.04 6.129 8.846 2.685 3.372 5.392 6.807 8.701 9.569 2.067 1.725 4.553 2.876 6.851 4.278 1.985 1.211 3.822 2.702 5.984 3.556 1.449.572 3.02.844 4.568 1.012 2.696.291 5.443-.097 8.152 0 1.334.048 2.659.177 3.989.289 1.476.124 3.118-.267 4.423.434.864.464 1.522 1.36 1.85 2.284.461 1.3.528 2.859 0 4.134-.515 1.243-1.709 2.168-2.862 2.862-1.109.667-2.43.88-3.7 1.127-1.078.21-2.21.122-3.295.289-1.301.2-3.747-.445-3.845.867-.098 1.322 2.665.627 3.729 1.417.871.646 1.501 1.607 1.995 2.573.541 1.059.991 2.222.983 3.411-.011 1.791-.252 3.924-1.561 5.146-.928.866-2.453 1.102-3.7.867-1.245-.234-2.23-1.27-3.151-2.139-1.134-1.071-2.096-2.37-2.862-3.729-.451-.8-.559-1.758-.983-2.573-.712-1.37-1.095-4.292-2.573-3.845-1.502.455-.039 3.143 0 4.712.024.952.232 1.913.145 2.862-.094 1.023-.291 2.046-.723 2.978-.473 1.018-.993 2.211-1.995 2.717-.807.408-1.842.224-2.717 0-1.629-.417-3.402-1.092-4.423-2.428-.743-.972-.546-2.376-.867-3.556-.3-1.104-.726-2.181-.983-3.296-.476-2.065-1.123-4.157-1.012-6.273.067-1.279 2.247-3.36 1.012-3.7-1.525-.42-.911 3.035-1.301 4.568-.264 1.04-.225 2.157-.694 3.122-.561 1.156-1.225 2.555-2.428 3.01-1.04.39-2.34-.013-3.296-.578-.786-.465-1.218-1.367-1.706-2.139-.931-1.475-1.648-3.087-2.284-4.712-.598-1.528.199-4.996-1.417-4.712-1.736.305.063 3.542.289 5.29.212 1.638.985 3.205.983 4.857 0 1.166-.022 2.458-.694 3.411-.578.82-1.593 1.375-2.573 1.59-.795.174-1.653-.039-2.428-.289-.932-.301-1.878-.755-2.573-1.445-.892-.885-.709-3.792-1.85-3.267-1.01.466.788 2.062 1.127 3.122.271.846.613 1.691.723 2.573.246 1.983.546 4.138-.145 6.01-.339.92-.965 1.862-1.85 2.284-1.092.52-2.578.698-3.671.173-1.094.525-2.58.346-3.671-.173-.886-.421-1.54-1.364-1.879-2.284-.691-1.875-.391-4.03-.145-6.01.11-.882.452-1.727.723-2.573.34-1.061 2.168-2.656 1.156-3.122-1.142-.526-.987 2.381-1.879 3.267-.695.69-1.612 1.145-2.544 1.445-.775.25-1.633.463-2.428.289-.98-.215-1.995-.77-2.573-1.59-.672-.953-.722-2.245-.723-3.411 0-1.651.8-3.219 1.012-4.857.226-1.748 2.025-4.985.289-5.29-1.615-.284-.848 3.184-1.445 4.712-.636 1.625-1.352 3.237-2.284 4.712-.488.773-.919 1.674-1.706 2.139-.956.565-2.256.968-3.295.578-1.203-.452-1.838-1.85-2.399-3.01-.469-.965-.458-2.082-.723-3.122-.389-1.533.224-4.987-1.301-4.568-1.235.34.944 2.421 1.012 3.7.111 2.116-.536 4.208-1.012 6.273-.257 1.114-.683 2.192-.983 3.296-.321 1.18-.125 2.584-.867 3.556-1.021 1.336-2.794 2.01-4.423 2.428-.876.224-1.911.408-2.717 0-1-.506-1.522-1.699-1.995-2.717-.432-.932-.6-1.955-.694-2.978-.087-.949.121-1.91.145-2.862.039-1.569 1.503-4.257 0-4.712-1.477-.447-1.861 2.475-2.573 3.845-.424.815-.561 1.773-1.012 2.573-.766 1.359-1.727 2.658-2.862 3.729-.921.87-1.877 1.905-3.122 2.139-1.247.234-2.801-.002-3.729-.867-1.31-1.221-1.55-3.355-1.561-5.146 0-1.189.471-2.352 1.012-3.411.494-.966 1.124-1.926 1.995-2.573 1.064-.79 3.799-.095 3.7-1.417-.098-1.312-2.544-.667-3.845-.867-1.085-.167-2.218-.079-3.296-.289-1.27-.248-2.592-.46-3.7-1.127-1.153-.694-2.347-1.619-2.862-2.862-.528-1.275-.462-2.834 0-4.134.328-.924.986-1.82 1.85-2.284 1.305-.7 2.947-.309 4.423-.434 1.331-.112 2.684-.241 4.02-.289 2.71-.097 5.428.291 8.123 0 1.549-.167 3.118-.439 4.568-1.012 2.162-.854 3.999-2.345 5.984-3.556 2.299-1.402 4.784-2.553 6.851-4.278 3.309-2.762 6.02-6.197 8.701-9.569 2.236-2.808 3.69-6.24 6.158-8.846 1.864-1.969 3.706-4.973 6.418-5 .718-.007 1.43.163 2.11.434.68-.27 1.363-.441 2.081-.434z" id="l" style="fill:#fff;stroke:#000;stroke-width:5;stroke-linejoin:round"/><path d="M264.44 407.095c1.397.011 2.738 1.38 4.105 1.937.908.37 1.915.564 2.717 1.127 1.378.967 2.082 2.697 3.411 3.729 1.58 1.227 3.53 1.911 5.29 2.862 1.76.951 3.476 1.989 5.29 2.833 1.53.712 3.073 1.344 4.683 1.85.98.308 1.995.547 3.01.723.849.148 1.712.261 2.573.289 2.142.071 4.292-.02 6.418-.289.916-.116 1.8-.684 2.717-.578.782.09 1.672.378 2.139 1.012.626.85.718 2.134.434 3.151-.346 1.238-1.407 2.197-2.428 2.978-1.032.789-2.337 1.226-3.585 1.59-1.201.35-2.453.454-3.7.549-.759.058-1.533.122-2.284 0-.446-.072-.906-.698-1.272-.434-.656.473.073 1.623 0 2.428-.143 1.589-.305 3.219-.867 4.712-.293.779-.584 1.671-1.272 2.139-.957.651-2.291.713-3.44.578-.974-.114-1.826-.718-2.717-1.127-.966-.444-1.997-.788-2.833-1.445-.637-.501-1.051-1.245-1.59-1.85-.694-.779-1.568-1.411-2.139-2.284-.793-1.213-1.414-2.57-1.706-3.989v2.573c0 1.189.158 2.377 0 3.556-.072.538-.17 1.087-.434 1.561-.441.794-1.041 1.609-1.85 2.024-.683.35-1.537.436-2.284.26-1.168-.276-2.187-1.117-3.01-1.995-.785-.841-1.033-2.044-1.706-2.978-.709-.984-1.677-1.765-2.428-2.717-.931-1.181-1.919-2.375-2.573-3.729a8.518 8.518 0 0 1-.173-.376c-.054.124-.086.254-.145.376-.654 1.355-1.641 2.548-2.573 3.729-.751.952-1.719 1.734-2.428 2.717-.673.933-.92 2.136-1.706 2.978-.819.878-1.838 1.719-3.01 1.995-.746.176-1.601.089-2.284-.26-.809-.414-1.409-1.229-1.85-2.024-.264-.474-.362-1.023-.434-1.561-.158-1.179 0-2.366 0-3.556v-2.573c-.291 1.42-.913 2.776-1.706 3.989-.571.873-1.445 1.505-2.139 2.284-.539.605-.953 1.35-1.59 1.85-.836.657-1.867 1-2.833 1.445-.891.41-1.743 1.013-2.717 1.127-1.15.135-2.483.073-3.44-.578-.688-.468-.979-1.36-1.272-2.139-.562-1.493-.724-3.123-.867-4.712-.073-.805.656-1.955 0-2.428-.366-.264-.826.361-1.272.434-.751.122-1.525.058-2.284 0-1.248-.095-2.499-.199-3.7-.549-1.247-.364-2.552-.801-3.585-1.59-1.021-.78-2.082-1.74-2.428-2.978-.284-1.017-.193-2.301.434-3.151.467-.634 1.357-.922 2.139-1.012.918-.106 1.801.462 2.717.578 2.126.269 4.276.36 6.418.289a18.707 18.707 0 0 0 2.573-.289 23.665 23.665 0 0 0 3.01-.723 38.858 38.858 0 0 0 4.712-1.85c1.814-.844 3.501-1.882 5.261-2.833 1.76-.951 3.71-1.635 5.29-2.862 1.329-1.033 2.034-2.762 3.411-3.729.803-.563 1.809-.757 2.717-1.127 1.563-.637 3.095-2.332 4.712-1.85.342.102.616.303.867.549.254-.253.548-.446.896-.549.202-.06.408-.088.607-.087z" id="m" style="fill:#fff;stroke:#000;stroke-width:5;stroke-linejoin:round"/><path d="M262.91 383.995c.584-.019 1.248.196 1.792.347 1.604.444 3.276 1.244 4.278 2.573 1.216 1.612 1.165 3.859 1.561 5.84.282 1.412-.258 3.107.578 4.278.494.693 1.449.99 2.284 1.156.655.13 1.345.011 1.995-.145.954-.228 1.836-.727 2.717-1.156.44-.214.849-.448 1.272-.694 1.107-.644 2.02-2.089 3.296-1.995.741.055 1.209.864 1.706 1.417a9.078 9.078 0 0 1 1.417 2.139c.41.855.959 1.774.867 2.717-.173 1.78-1.226 3.536-2.573 4.712-.805.703-1.963.895-3.01 1.127-1.257.28-2.562.399-3.845.289-1.172-.101-2.686-1.794-3.411-.867-.564.72.692 1.72 1.272 2.428.428.523 1.257.697 1.561 1.301.45.893.183 1.978.145 2.978-.03.766-.1 1.54-.289 2.284-.353 1.387-.605 2.953-1.561 4.02-.753.839-1.911 1.831-3.01 1.561-.73-.18-.771-1.289-1.272-1.85-.674-.754-1.605-1.245-2.284-1.995-.55-.607-.824-1.43-1.417-1.995-.573-.546-1.378-.804-1.995-1.301a11.67 11.67 0 0 1-1.59-1.561c-.316-.375-.658-.748-.983-1.127-.321.375-.641.757-.954 1.127a11.67 11.67 0 0 1-1.59 1.561c-.617.497-1.421.755-1.995 1.301-.593.564-.867 1.388-1.417 1.995-.679.75-1.61 1.24-2.284 1.995-.501.561-.542 1.67-1.272 1.85-1.095.27-2.253-.722-3.01-1.561-.956-1.065-1.208-2.632-1.561-4.02-.189-.743-.26-1.517-.289-2.284-.038-.999-.305-2.084.145-2.978.304-.604 1.133-.778 1.561-1.301.58-.708 1.836-1.708 1.272-2.428-.726-.926-2.239.767-3.411.867-1.283.11-2.588-.009-3.845-.289-1.043-.232-2.201-.424-3.01-1.127-1.347-1.176-2.4-2.932-2.573-4.712-.091-.943.458-1.863.867-2.717a9.047 9.047 0 0 1 1.417-2.139c.497-.553.965-1.362 1.706-1.417 1.277-.095 2.188 1.351 3.296 1.995.423.246.832.48 1.272.694.882.429 1.764.928 2.717 1.156.649.155 1.34.275 1.995.145.835-.166 1.789-.464 2.284-1.156.836-1.172.296-2.867.578-4.278.396-1.98.345-4.227 1.561-5.84 1-1.329 2.675-2.129 4.278-2.573.693-.192 1.589-.466 2.255-.26.15-.05.323-.081.492-.087z" id="n" style="fill:#fff;stroke:#000;stroke-width:5;stroke-linejoin:round"/><use xlink:href="#a" width="100%" height="100%" transform="translate(447.94)"/><use xlink:href="#b" width="100%" height="100%" transform="translate(447.94)"/><use xlink:href="#c" width="100%" height="100%" transform="translate(447.94)"/><use xlink:href="#d" width="100%" height="100%" transform="translate(447.94)"/><use xlink:href="#e" width="100%" height="100%" transform="translate(447.94)"/><use xlink:href="#f" width="100%" height="100%" transform="translate(447.94)"/><use xlink:href="#g" width="100%" height="100%" transform="translate(447.94)"/><use xlink:href="#h" width="100%" height="100%" transform="translate(447.94)"/><use xlink:href="#i" width="100%" height="100%" transform="translate(447.94)"/><use xlink:href="#j" width="100%" height="100%" transform="translate(447.94)"/><use xlink:href="#k" width="100%" height="100%" transform="translate(447.94)"/><use xlink:href="#l" width="100%" height="100%" transform="translate(447.94)"/><use xlink:href="#m" width="100%" height="100%" transform="translate(447.94)"/><use xlink:href="#n" width="100%" height="100%" transform="translate(447.94)"/><path style="fill:#fff;stroke:#000;stroke-width:5;stroke-linecap:round" d="m488.53 696.165-44.75 73.09v286.34c14.927 1.358 29.918 1.949 44.875 2 14.872.051 29.833-.393 44.688-1.625V769.25l-44.813-73.09z"/><use height="100%" width="100%" xlink:href="#o" transform="matrix(1.13938 0 0 1.0838 1351.22 -43.515)"/><use height="100%" width="100%" xlink:href="#o" transform="matrix(1.13938 0 0 1.0838 1351.22 50.12)"/><use height="100%" width="100%" xlink:href="#o" transform="matrix(1.13938 0 0 1.0838 1351.22 115.635)"/><path style="fill:#fff;stroke:#000;stroke-width:5;stroke-linecap:round" d="m578.13 696.165-44.781 73.09v286.72c12.775-1.059 25.471-2.711 38.03-5.125 17.335-3.331 34.591-7.471 51.563-12.531v-269.06l-44.813-73.09z"/><use height="100%" width="100%" xlink:href="#o" transform="matrix(1.13938 0 0 1.0838 1440.8 -43.515)"/><use height="100%" width="100%" xlink:href="#o" transform="matrix(1.13938 0 0 1.0838 1440.8 50.12)"/><use height="100%" width="100%" xlink:href="#o" transform="matrix(1.13938 0 0 1.0838 1440.8 115.635)"/><path style="fill:#fff;stroke:#000;stroke-width:5;stroke-linecap:round" d="m398.97 696.165-44.781 73.09v268.75c16.897 4.904 34.06 8.926 51.28 12.25 12.648 2.442 25.457 4.175 38.31 5.344v-286.34l-44.813-73.09z"/><use height="100%" width="100%" xlink:href="#o" transform="matrix(1.13938 0 0 1.0838 1261.63 -43.515)"/><use height="100%" width="100%" xlink:href="#o" transform="matrix(1.13938 0 0 1.0838 1261.63 50.12)"/><use height="100%" width="100%" xlink:href="#o" transform="matrix(1.13938 0 0 1.0838 1261.63 115.635)"/><path style="fill:#fff;stroke:#000;stroke-width:5;stroke-linecap:round" d="m667.72 696.165-44.781 73.09v269.06c18.724-5.583 37.11-12.287 54.906-20.22a421.52 421.52 0 0 0 34.688-17.438v-231.41l-44.813-73.09z"/><use height="100%" width="100%" xlink:href="#o" transform="matrix(1.13938 0 0 1.0838 1530.38 -43.515)"/><use height="100%" width="100%" xlink:href="#o" transform="matrix(1.13938 0 0 1.0838 1530.38 50.12)"/><use height="100%" width="100%" xlink:href="#o" transform="matrix(1.13938 0 0 1.0838 1530.38 115.635)"/><path style="fill:#fff;stroke:#000;stroke-width:5;stroke-linecap:round" d="m757.28 696.165-44.75 73.09v231.41c19.291-10.822 37.788-23.12 55.28-36.531 11.791-9.04 23.388-18.546 34.28-28.75v-166.12l-44.813-73.09z"/><use height="100%" width="100%" xlink:href="#o" transform="matrix(1.13938 0 0 1.0838 1619.97 -43.515)"/><use height="100%" width="100%" xlink:href="#o" transform="matrix(1.13938 0 0 1.0838 1619.97 50.12)"/><use height="100%" width="100%" xlink:href="#o" transform="matrix(1.13938 0 0 1.0838 1619.97 115.635)"/><path style="fill:#fff;stroke:#000;stroke-width:5;stroke-linecap:round" d="m309.38 696.165-44.781 73.09v231.53a409.53 409.53 0 0 0 34.656 17.375c17.789 7.874 36.19 14.402 54.938 19.844v-268.75l-44.813-73.09z"/><use height="100%" width="100%" xlink:href="#o" transform="matrix(1.13938 0 0 1.0838 1172.05 -43.515)"/><use height="100%" width="100%" xlink:href="#o" transform="matrix(1.13938 0 0 1.0838 1172.05 50.12)"/><use height="100%" width="100%" xlink:href="#o" transform="matrix(1.13938 0 0 1.0838 1172.05 115.635)"/><path style="fill:#fff;stroke:#000;stroke-width:5;stroke-linecap:round" d="m219.784 696.165-44.75 73.09v166.16c10.895 10.206 22.489 19.741 34.28 28.781 17.511 13.425 35.984 25.76 55.28 36.594V769.26l-44.813-73.09z"/><use height="100%" width="100%" xlink:href="#o" transform="matrix(1.13938 0 0 1.0838 1082.47 -43.515)"/><use height="100%" width="100%" xlink:href="#o" transform="matrix(1.13938 0 0 1.0838 1082.47 50.12)"/><use height="100%" width="100%" xlink:href="#o" transform="matrix(1.13938 0 0 1.0838 1082.47 115.635)"/><path style="fill:#fff;stroke:#000;stroke-width:5;stroke-linecap:round" d="m130.221 696.165-44.781 73.09v20.844c15.175 38.743 33.07 77.17 57.969 110.47 9.389 12.556 20.13 24.08 31.625 34.844v-166.16l-44.813-73.09z"/><use height="100%" width="100%" xlink:href="#o" transform="matrix(1.13938 0 0 1.0838 992.88 -43.515)"/><path d="M132.69 862.725a13.541 13.541 0 0 0-9.875 4.25l14.719 22.06c5.128-1.951 8.781-6.906 8.781-12.719 0-7.516-6.109-13.594-13.625-13.594z" style="stroke:#000;stroke-width:5;stroke-linecap:round;stroke-linejoin:round"/><path d="m846.88 696.165-44.781 73.09v166.12c11.496-10.769 22.2-22.318 31.594-34.875 24.904-33.3 42.824-71.72 58-110.47v-20.781l-44.813-73.09z" style="fill:#fff;stroke:#000;stroke-width:5;stroke-linecap:round"/><use height="100%" width="100%" xlink:href="#o" transform="matrix(1.13938 0 0 1.0838 1709.55 -43.515)"/><path style="stroke:#000;stroke-width:5;stroke-linecap:round;stroke-linejoin:round" d="M849.38 862.725c-7.516 0-13.625 6.078-13.625 13.594 0 4.803 2.493 9.02 6.25 11.438l13.12-22.969.375-.594a13.441 13.441 0 0 0-6.125-1.469z"/><path style="fill:#fff" d="M828.19 10.006c-9.98-.002-20 .012-29.813.031-26.17.053-51 .188-70.781.469-79.11 1.122-156.71-.214-235.06 0-2.653.007-5.285.024-7.938.031-78.35.214-155.96 1.122-235.06 0-79.11-1.122-239.53 0-239.53 0s4.992 48.2 6.781 72.34c3.067 41.38 4.253 82.87 6.781 124.28 3.298 54.03 7.638 108.01 11 162.03h908c3.363-54.05 7.7-108.04 11-162.09 2.529-41.41 3.714-82.903 6.781-124.28 1.79-24.14 6.781-72.31 6.781-72.31s-69.08-.484-138.94-.5"/><path d="M798.39 10.026c-26.17.053-51.02.198-70.798.478-79.11 1.122-156.7-.214-235.05 0-2.653.007-5.305.036-7.958.043-78.35.214-155.94 1.122-235.05 0-79.11-1.122-239.53 0-239.53 0s4.995 48.18 6.784 72.32c3.067 41.38 4.256 82.87 6.784 124.29 3.405 55.766 7.902 111.49 11.307 167.25 2.529 41.41 3.91 82.9 6.784 124.29 4.346 62.59 5.02 125.75 15.786 187.56 6.02 34.562 14.418 68.979 27.14 101.67 15.355 39.473 33.473 78.71 58.839 112.63 18.288 24.456 41.648 45.04 65.884 63.62 27.747 21.272 57.962 39.816 89.93 53.968 33.818 14.97 69.917 25.08 106.24 32.09 27.334 5.278 55.35 7.255 83.19 7.349 27.662.094 55.55-1.52 82.71-6.741 36.46-7.01 72.54-17.626 106.46-32.746 31.934-14.235 62.23-32.696 89.98-53.968 24.24-18.58 47.595-39.17 65.884-63.62 25.365-33.919 43.484-73.16 58.839-112.63 12.718-32.695 21.12-67.16 27.14-101.72 10.762-61.814 11.44-124.97 15.786-187.56 2.874-41.39 4.256-82.87 6.784-124.29 3.405-55.766 7.902-111.44 11.307-167.21 2.529-41.41 3.717-82.909 6.784-124.29 1.79-24.14 6.784-72.32 6.784-72.32s-90.24-.636-168.73-.478z" style="fill:none;stroke:#000;stroke-width:20"/><path d="M947.37 369.205H38.3" style="fill:none;stroke:#000;stroke-width:5"/><rect style="fill:#da121a;stroke:#000;stroke-width:5.00002003;stroke-linecap:round;stroke-linejoin:round" id="q" transform="scale(-1 1) rotate(-21.601)" ry="13.452" y="-27.654" x="-708.005" height="26.905" width="565.928" rx="14.276"/><path style="fill:#da121a;stroke:#000;stroke-width:5.00000334" id="r" d="m269.009 106.213-.417 28.772-19.3-1.655.451 14.793-13.752-.103.573 16.189 16.542 1.062-.784 22.14-28-1.108.557 11.195-14.22-.64-.718-8.266-22.572-.955-.096-27.478 22.221-.68-.872-12.868-13.818-.434-.214-12.059 6.803-.799.711-18.177 5.374.289-.15-33.643z"/><path style="fill:#da121a;stroke:#000;stroke-width:5.00000334" id="s" d="M145.658 57.372 126.265 78.63l15.2 12.006-10.46 10.48 10.095 9.338-11.503 11.411-12.786-10.55-14.585 16.675 21.168 18.36-8.07 7.782 10.8 9.265 6.183-5.535 17.103 14.756 18.885-19.968-15.733-15.708 9.443-8.782 10.365 9.143 8.411-8.643-4.41-5.239 11.925-13.737-4.116-3.468 23.141-24.421z"/><path style="fill:#da121a;stroke:#000;stroke-width:5.00000334;stroke-linejoin:round" id="t" d="m782.013 239.572 80.982 86.873-118.498 7.892-80.982-86.873zm-75.028 17.786c-3.868.05-6.968 1.49-8.01 4.123-1.667 4.21 2.553 9.83 9.48 12.574l15.106 5.978c-.857-2.751-.85-5.799.295-8.687 1.144-2.888 3.204-5.118 5.71-6.538l-15.077-5.978c-2.6-1.029-5.189-1.502-7.51-1.473zm63.692 6.39c-3.932-.211-8.528 3.798-10.925 9.865l-1.09 2.71-2.738-1.09c-6.929-2.744-13.851-1.531-15.52 2.68-1.666 4.21 2.584 9.801 9.509 12.545l2.738 1.09-1.089 2.709c-2.744 6.929-1.56 13.851 2.65 15.52 4.211 1.666 9.801-2.584 12.545-9.509l1.09-2.71 2.738 1.09c6.929 2.744 13.851 1.56 15.519-2.65 1.667-4.21-2.583-9.831-9.508-12.575l-2.738-1.09 1.089-2.709c2.744-6.929 1.56-13.822-2.65-15.49-.527-.208-1.058-.352-1.62-.382zm32.275 30.125c.857 2.752.849 5.8-.295 8.688-1.144 2.888-3.205 5.118-5.71 6.538l15.077 5.949c6.929 2.744 13.851 1.56 15.519-2.651 1.667-4.21-2.553-9.801-9.48-12.545l-15.105-5.979z"/><rect style="fill:#da121a;stroke:#000;stroke-width:5.00002003;stroke-linecap:round;stroke-linejoin:round" id="u" transform="scale(-1 1) rotate(-21.601)" rx="14.276" y="-44.663" x="-725.504" height="60.922" width="29.504"/><use height="100%" width="100%" xlink:href="#p" transform="matrix(-.8174 -.32365 -.3456 .87281 2815.938 967.277)"/><use height="100%" width="100%" xlink:href="#p" transform="matrix(-.8174 -.32365 -.3456 .87281 2775.984 1068.19)"/><use height="100%" width="100%" xlink:href="#p" transform="matrix(-.8174 -.32365 -.3456 .87281 2888.752 1054.47)"/><use height="100%" width="100%" xlink:href="#q" transform="matrix(-1 0 0 1 977.125 0)"/><use height="100%" width="100%" xlink:href="#r" transform="matrix(-1 0 0 1 977.125 0)"/><use height="100%" width="100%" xlink:href="#s" transform="matrix(-1 0 0 1 977.125 0)"/><use height="100%" width="100%" xlink:href="#t" transform="matrix(-1 0 0 1 977.125 0)"/><use height="100%" width="100%" xlink:href="#u" transform="matrix(-1 0 0 1 977.125 0)"/><use height="100%" width="100%" xlink:href="#p" transform="matrix(.8174 -.32365 .3456 .87281 -1838.814 967.277)"/><use height="100%" width="100%" xlink:href="#p" transform="matrix(.8174 -.32365 .3456 .87281 -1798.859 1068.19)"/><use height="100%" width="100%" xlink:href="#p" transform="matrix(.8174 -.32365 .3456 .87281 -1911.628 1054.47)"/></svg>