<svg xmlns="http://www.w3.org/2000/svg" xmlns:xlink="http://www.w3.org/1999/xlink" viewBox="0 0 977.12 1067.6"><defs><path id="a" d="M280.54 641.71c0 3.077-2.788 5.572-6.227 5.572-3.439 0-6.227-2.494-6.227-5.572 0-3.077 2.788-5.572 6.227-5.572 3.439 0 6.227 2.494 6.227 5.572z" stroke-width="4.908" stroke-linejoin="round" stroke="#000" fill-opacity=".996" fill="#fff" stroke-linecap="round"/><path id="b" d="M280.544 641.706a6.227 5.572 0 1 1-12.454 0 6.227 5.572 0 1 1 12.454 0z" stroke-width="4.908" stroke-linejoin="round" stroke="#000" fill-opacity=".996" fill="#fff" stroke-linecap="round"/></defs><path style="fill:#da121a;stroke:#000;stroke-width:20" d="M798.39 10.025c-26.17.053-51.02.198-70.798.478-79.11 1.122-156.7-.214-235.05 0-2.653.007-5.305.036-7.958.043-78.35.214-155.94 1.122-235.05 0-79.11-1.122-239.53 0-239.53 0s4.995 48.18 6.784 72.32c3.067 41.38 4.256 82.87 6.784 124.29 3.405 55.766 7.902 111.49 11.307 167.25 2.529 41.41 3.91 82.9 6.784 124.29 4.346 62.59 5.02 125.75 15.786 187.56 6.02 34.562 14.418 68.979 27.14 101.67 15.355 39.473 33.473 78.71 58.839 112.63 18.288 24.456 41.648 45.04 65.884 63.62 27.747 21.272 57.962 39.816 89.93 53.968 33.818 14.97 69.917 25.08 106.24 32.09 27.334 5.278 55.35 7.255 83.19 7.349 27.662.094 55.55-1.52 82.71-6.741 36.46-7.01 72.54-17.626 106.46-32.746 31.934-14.235 62.23-32.696 89.98-53.968 24.24-18.58 47.595-39.17 65.884-63.62 25.365-33.919 43.484-73.16 58.839-112.63 12.718-32.695 21.12-67.16 27.14-101.72 10.762-61.814 11.44-124.97 15.786-187.56 2.874-41.39 4.256-82.87 6.784-124.29 3.405-55.766 7.902-111.44 11.307-167.21 2.529-41.41 3.717-82.909 6.784-124.29 1.79-24.14 6.784-72.32 6.784-72.32s-90.24-.636-168.73-.478z"/><path style="fill:#fff;stroke:#000;stroke-width:5;stroke-linejoin:round" d="M480.62 610.821c-8.759-3.105-12.751-13.824-20.629-18.753-4.04-2.53-8.892-3.454-13.284-5.313-1.997-.846-4.959-.722-5.939-2.657-1.228-2.425-.146-5.993 1.719-7.97 2-2.124 5.523-2.201 8.439-2.344 4.542-.223 9.199.703 13.44 2.344 4.259 1.648 8 4.489 11.565 7.345 3.162 2.534 6.281 5.269 8.595 8.595 1.997 2.87 3.629 6.117 4.376 9.533.623 2.85 2 6.631 0 8.752-1.899 2.01-5.676 1.393-8.283.469z"/><path style="fill:#fff;stroke:#000;stroke-width:5;stroke-linejoin:round" d="M481.1 612.891c7.594-6.689 7.27-19.12 13.231-27.3 3.059-4.194 7.587-7.095 11.271-10.754 1.675-1.664 4.721-2.742 4.924-5.092.255-2.945-2.291-6.106-4.981-7.344-2.89-1.33-6.481.021-9.488 1.061-4.684 1.619-9.02 4.444-12.637 7.821-3.636 3.392-6.265 7.778-8.706 12.11-2.166 3.84-4.208 7.867-5.195 12.162-.852 3.707-1.181 7.646-.546 11.395.53 3.129.672 7.505 3.561 8.831 2.738 1.257 6.307-.899 8.567-2.889z"/><path style="fill:#fff;stroke:#000;stroke-width:5;stroke-linejoin:round" d="M484.77 614.041c9.836-2.357 15.394-13.522 24.487-17.96 4.666-2.278 10.02-2.721 14.987-4.231 2.258-.687 5.449-.212 6.732-2.197 1.609-2.488.85-6.483-.939-8.842-1.922-2.534-5.722-3.02-8.86-3.515-4.889-.766-10.03-.298-14.813.993-4.798 1.297-9.176 3.946-13.361 6.633-3.714 2.384-7.405 4.99-10.293 8.331-2.492 2.882-4.634 6.216-5.836 9.834-1 3.02-2.934 6.961-1.01 9.491 1.823 2.399 5.981 2.165 8.908 1.463zM486.14 39.069c-5.797.146-11.658-.095-17.375.875-6.23 1.057-12.678 2.25-18.19 5.344-5.755 3.231-11.296 7.632-14.656 13.313-3.872 6.545-5.686 14.592-5.313 22.19.377 7.661 4.161 14.829 7.531 21.719 5.966 12.197 15.386 22.405 22.19 34.16 10.07 17.402 27.5 53.688 27.5 53.688s17.427-36.29 27.5-53.688c6.802-11.751 16.222-21.96 22.19-34.16 3.37-6.89 7.185-14.06 7.563-21.719.374-7.595-1.47-15.641-5.344-22.19-3.357-5.673-8.879-10.08-14.625-13.313-5.508-3.096-11.956-4.298-18.19-5.344-6.14-1.031-12.432-.729-18.656-.875-.292-.007-.583 0-.875 0h-1.25z"/><path d="M506.39 202.341c12.704-8.241 24.781-17.762 38.599-23.958 9.991-4.48 20.632-7.979 31.5-9.317 13.573-1.671 27.596-1.023 40.988 1.745 15.286 3.159 28.398 13.849 43.741 16.718 12.03 2.25 24.975 3.631 36.714.171 9.868-2.908 19.566-8.715 25.852-16.859 6.572-8.515 10.302-19.857 10.204-30.613-.117-12.862-4.707-26.436-12.866-36.38-8.796-10.721-22.355-17.7-35.755-21.266-16.782-4.465-35.2-3.196-52.09.857-28.812 6.916-55.35 22.397-79.86 39.04-13.643 9.263-26.309 20.403-36.591 33.29-11.539 14.466-27.3 48.34-27.3 48.34l3.106 7.542s9.108-6.303 13.754-9.317z" style="fill:#fff;stroke:#000;stroke-width:5"/><path style="fill:none;stroke:#000;stroke-width:5;stroke-linecap:round" d="M511.41 184.491s19.35-15.781 30.415-21.349c19.359-9.741 40.685-15.204 61.706-20.471 8.348-2.092 25.443-4.387 25.443-4.387"/><path style="fill:none;stroke:#000;stroke-width:5;stroke-linejoin:round" d="M628.98 138.281c8.04-3.706 12.527-12.807 20.18-17.254 8.958-5.206 18.932-9.536 29.24-10.528 6.972-.671 14.647-.194 20.764 3.217 6.16 3.435 11.518 9.393 13.745 16.08 1.913 5.746.911 12.444-1.17 18.13-2.083 5.694-6.104 10.812-10.821 14.622-4.412 3.564-9.877 6.273-15.5 7.02-8.42 1.117-17.218-1.058-25.15-4.094-6.92-2.649-12.172-8.517-18.717-11.99-9.373-4.975-29.24-12.575-29.24-12.575s11.561-.277 16.67-2.632z"/><path d="M656.41 139.811c3.92-1.745 6.11-6.03 9.842-8.124 4.369-2.451 9.234-4.49 14.264-4.957 3.4-.316 7.144-.091 10.127 1.515 3 1.617 5.618 4.423 6.704 7.573.933 2.706.444 5.859-.571 8.537-1.016 2.681-2.977 5.091-5.278 6.885-2.152 1.678-4.818 2.953-7.56 3.305-4.107.526-8.398-.498-12.267-1.928-3.375-1.247-5.937-4.01-9.129-5.645-4.572-2.342-14.264-5.921-14.264-5.921s5.639-.13 8.131-1.239z" style="stroke:#000;stroke-width:5;stroke-linejoin:round"/><path style="fill:#fff;stroke:#000;stroke-width:5" d="M469.3 202.341c-12.704-8.241-24.781-17.762-38.599-23.958-9.991-4.48-20.632-7.979-31.5-9.317-13.573-1.671-27.596-1.023-40.988 1.745-15.286 3.159-28.398 13.849-43.741 16.718-12.03 2.25-24.975 3.631-36.714.171-9.868-2.908-19.566-8.715-25.852-16.859-6.572-8.515-10.302-19.857-10.204-30.613.117-12.862 4.707-26.436 12.866-36.38 8.796-10.721 22.354-17.7 35.756-21.266 16.782-4.465 35.2-3.196 52.09.857 28.812 6.916 55.35 22.397 79.86 39.04 13.643 9.263 26.309 20.403 36.591 33.29 11.539 14.466 27.3 48.34 27.3 48.34l-3.106 7.542s-9.108-6.303-13.754-9.317z"/><path d="M486.93 59.92c-3.081.126-6.195-.082-9.233.754-3.311.911-6.737 1.94-9.665 4.607-3.058 2.786-6 6.58-7.789 11.478-2.058 5.643-3.02 12.581-2.823 19.13.2 6.605 2.211 12.785 4 18.725 3.17 10.515 8.176 19.317 11.791 29.448 5.353 15 14.614 46.29 14.614 46.29s9.261-31.28 14.614-46.29c3.615-10.131 8.62-18.933 11.791-29.448 1.791-5.94 3.818-12.12 4.02-18.725.199-6.548-.781-13.485-2.84-19.13-1.784-4.891-4.718-8.693-7.772-11.478-2.927-2.67-6.354-3.705-9.665-4.607-3.263-.889-6.607-.629-9.914-.754-.155-.006-.31 0-.465 0-.221 0-.443-.009-.664 0z" style="fill:none;stroke:#000;stroke-width:5;stroke-linejoin:round"/><path d="M469.77 190.971c-13.567 5.411-22.439 18.825-31.792 30.16-15.11 18.304-26.867 39.465-38.626 60.31-13.368 23.701-24.691 48.629-36.16 73.41-4.598 9.934-10.652 19.405-13.07 30.16-2.588 11.489-1.248 35.406-1.248 35.406H626.834s1.34-23.918-1.248-35.406c-2.422-10.751-8.475-20.222-13.07-30.16-11.469-24.778-22.792-49.705-36.16-73.41-11.759-20.848-23.517-42.01-38.626-60.31-9.354-11.332-18.225-24.745-31.792-30.16-11.196-4.465-24.964-4.465-36.16 0z" style="fill:#fff;stroke:#000;stroke-width:5;stroke-linejoin:round"/><path style="fill:none;stroke:#000;stroke-width:5;stroke-linecap:round" d="M377.07 362.071h60.3M387.64 345.281h46.12M395.92 328.521h33.34M403.62 311.811h29.664M414.31 296.401h26.01M421.05 279.691h19.385M427.97 264.281h13.209M434.66 249.211h13.209"/><path style="fill:#fff;stroke:#000;stroke-width:5;stroke-linejoin:round" d="M483.62 374.971c-7.844.053-24.737.292-34.34 1.25-30.16 3.01-60.29 7.593-89.78 15.06-23.11 5.852-48.06 9.06-67.91 23.22-4.893 3.491-9.476 8.436-11.524 14.406-1.747 5.093-.984 10.982 0 16.313 3.327 18.01 11.218 34.891 19.579 50.844 7.01 13.365 13.277 28.949 25.312 37 9.624 6.438 22.12 5.157 33.396 6.281 31.884 3.182 64.08 1.042 96.12 1.25 22.254.145 44.509.145 66.764 0 32.04-.208 64.23 1.934 96.12-1.25 11.262-1.125 23.743.157 33.367-6.281 12.04-8.05 18.336-23.635 25.341-37 8.361-15.952 16.252-32.833 19.579-50.844.985-5.331 1.747-11.219 0-16.313-2.048-5.971-6.631-10.916-11.524-14.406-19.852-14.162-44.8-17.366-67.91-23.22-29.496-7.469-59.63-12.05-89.78-15.06-12.806-1.277-38.585-1.25-38.585-1.25s-1.599-.018-4.214 0z"/><path style="stroke:#000;stroke-width:4.99985075;stroke-linecap:round;stroke-linejoin:round" d="M642.33 510.873c0 10.127-69.16 18.337-154.48 18.337S333.37 521 333.37 510.873c0-10.127 69.16-18.337 154.48-18.337s154.48 8.21 154.48 18.337z"/><path style="fill:none;stroke:#000;stroke-width:5;stroke-linecap:round" d="M313.61 492.741h36.626M312.14 481.431h32.25M310.12 470.121h25.832M307.11 459.911h24.405M303.17 449.931h18.519M305.22 438.171h11.58"/><path style="stroke:#000;stroke-width:5;stroke-linejoin:round" d="M487.41 70.681c-1.442.08-2.899-.052-4.321.481-1.549.581-3.153 1.238-4.523 2.94-1.431 1.778-2.809 4.199-3.645 7.324-.963 3.601-1.414 8.03-1.321 12.206.094 4.215 1.035 8.158 1.873 11.948 1.484 6.71 3.827 12.326 5.518 18.791 2.505 9.573 6.84 29.536 6.84 29.536s4.334-19.962 6.84-29.536c1.692-6.465 4.03-12.08 5.518-18.791.838-3.791 1.787-7.734 1.881-11.948.093-4.178-.365-8.605-1.329-12.206-.835-3.121-2.208-5.547-3.637-7.324-1.37-1.703-2.974-2.364-4.523-2.94-1.527-.567-3.092-.401-4.64-.481-.072-.004-.145 0-.218 0-.104 0-.207-.005-.311 0z"/><path d="M464.28 184.491s-19.35-15.781-30.415-21.349c-19.359-9.741-40.685-15.204-61.706-20.471-8.348-2.092-25.443-4.387-25.443-4.387" style="fill:none;stroke:#000;stroke-width:5;stroke-linecap:round"/><path d="M346.71 138.281c-8.04-3.706-12.527-12.807-20.18-17.254-8.958-5.206-18.932-9.536-29.24-10.528-6.972-.671-14.647-.194-20.764 3.217-6.16 3.435-11.518 9.393-13.745 16.08-1.913 5.746-.911 12.444 1.17 18.13 2.083 5.694 6.104 10.812 10.821 14.622 4.412 3.564 9.877 6.273 15.5 7.02 8.42 1.117 17.218-1.058 25.15-4.094 6.92-2.649 12.172-8.517 18.717-11.99 9.373-4.975 29.24-12.575 29.24-12.575s-11.561-.277-16.67-2.632z" style="fill:none;stroke:#000;stroke-width:5;stroke-linejoin:round"/><path style="stroke:#000;stroke-width:5;stroke-linejoin:round" d="M319.28 139.811c-3.92-1.745-6.11-6.03-9.842-8.124-4.369-2.451-9.234-4.49-14.264-4.957-3.4-.316-7.144-.091-10.127 1.515-3 1.617-5.618 4.423-6.704 7.573-.933 2.706-.444 5.859.571 8.537 1.016 2.681 2.977 5.091 5.278 6.885 2.152 1.678 4.818 2.953 7.56 3.305 4.107.526 8.398-.498 12.267-1.928 3.375-1.247 5.937-4.01 9.129-5.645 4.572-2.342 14.264-5.921 14.264-5.921s-5.639-.13-8.131-1.239z"/><path style="fill:#fff;stroke:#000;stroke-width:5" d="M472.26 972.281s-27.958-34.32-43.92-49.567c-10.11-9.657-20.293-19.771-32.627-26.352-5.603-2.99-11.866-6.163-18.2-5.647-7.458.608-12.885 7.976-20.08 10.04-8.482 2.433-17.712.72-26.352 2.51-7.966 1.65-23.22 7.529-23.22 7.529v-12.549s6.336.027 9.412-.627c8.284-1.764 15.898-5.847 23.842-8.784 3.318-1.226 9.678-.163 9.95-3.69.501-6.5-11.38-6.364-17.08-9.532-14.813-8.234-29.753-16.241-44.48-24.624-7.06-4.02-15.388-6.479-21.05-12.312-5.776-5.952-10.313-13.706-11.915-21.844-.695-3.529-1.729-8.625 1.192-10.723 5.061-3.636 12.841.911 18.269 3.972 11.909 6.715 17.03 21.899 28.2 29.787 9.344 6.599 20.13 11.817 31.375 13.9 7.69 1.424 15.706-2.402 23.432-1.191 5.174.811 10.08 3.089 14.695 5.56 20.666 11.06 38.25 27.1 57.19 40.907 15.06 10.983 31.1 20.804 44.879 33.36 6.443 5.873 17.475 19.461 17.475 19.461z"/><path style="fill:#fff;stroke:#000;stroke-width:5;stroke-linejoin:round" d="M353.06 860.911c-8.156-2.502-10.879-13.201-17.08-19.06-5.543-5.242-12.91-8.503-17.872-14.298-9.527-11.125-18.865-23.786-21.844-38.13-1.707-8.216.952-16.831 2.78-25.02 1.341-6.01 5.957-17.475 5.957-17.475s2.066 8.837 4.766 12.312c8.677 11.169 23.892 15.33 34.553 24.624 9.601 8.369 21.937 15.804 26.21 27.801 2.495 7 .171 15.02-1.589 22.24-2.218 9.103-3.982 19.747-11.12 25.815-1.248 1.061-3.2 1.672-4.766 1.191zM331.08 903.261s-19.629 16.771-31.642 20.403c-8.745 2.644-18.558 2.678-27.404.397-11.369-2.931-20.685-11.157-30.581-17.475-8.483-5.416-17.05-10.849-24.624-17.475-2.045-1.788-4.982-3.303-5.56-5.957-.178-.818.289-1.715.794-2.383 2.415-3.192 6.337-4.986 9.929-6.752 7.251-3.564 15.02-6.534 23.04-7.546 8.03-1.013 16.294-.012 24.23 1.589 11.122 2.245 22.426 5.308 32.17 11.12 7.564 4.512 11.898 13.359 19.461 17.872 3.128 1.867 10.326 3.574 10.326 3.574z"/><path style="fill:none;stroke:#000;stroke-width:5;stroke-linecap:round" d="M330.82 903.011s-13.04.933-19.461 0c-8.746-1.271-16.887-5.235-25.418-7.546-6.973-1.889-21.05-5.163-21.05-5.163"/><path style="fill:#fff;stroke:#000;stroke-width:5;stroke-linejoin:round" d="M272.44 832.321c-6.645 1.797-14.1 2.115-20.652 0-13.356-4.313-24.84-14.13-34.16-24.624-10.344-11.657-17.407-26.23-22.638-40.907-5.238-14.701-7.783-30.474-8.34-46.07-.176-4.924-1.866-11.182 1.589-14.695.748-.761 2.117-.518 3.177-.397 8.406.959 16.619 4.311 23.829 8.737 13.411 8.233 23.23 21.243 34.553 32.17 10.239 9.88 23.979 17.379 30.18 30.18 3.953 8.157 2.881 17.947 3.177 27.01.251 7.685 2.809 16.469-1.192 23.04-1.914 3.141-5.981 4.6-9.532 5.56z"/><path style="fill:none;stroke:#000;stroke-width:5;stroke-linecap:round" d="M279.19 826.361s-22.566-16.386-31.375-27.01c-9.278-11.185-21.844-37.73-21.844-37.73"/><path style="fill:#fff;stroke:#000;stroke-width:5" d="M715.17 810.101c-4.578-.112-9.991 3.048-14.06 5.344-11.909 6.715-17.02 21.894-28.19 29.781-9.344 6.599-20.13 11.823-31.375 13.906-7.69 1.424-15.711-2.43-23.438-1.219-5.174.811-10.07 3.092-14.688 5.563-20.666 11.06-38.25 27.1-57.19 40.906-11.841 8.635-24.305 16.563-35.781 25.656-.38-10.08-.953-19.854-1.813-27.406-1.954-17.16-10.03-50.813-10.03-50.813s-9.195-2.369-13.813-1.875c-2.434.261-6.906 2.5-6.906 2.5s-4.301 32.25-6.875 48.31c-4.538 28.316-6.886 57.2-15.06 84.69-3.046 10.239-12.563 29.5-12.563 29.5s14.335-4.312 21.344-6.906c11.693-4.328 24.14-7.493 34.5-14.437 4.667-3.13 11.938-11.906 11.938-11.906s.016-4.716 0-11.656c9.142-10.96 26.315-31.16 37.625-41.969 10.11-9.657 20.291-19.762 32.625-26.344 5.603-2.99 11.858-6.172 18.19-5.656 7.458.608 12.901 7.968 20.09 10.03 8.482 2.433 17.703.71 26.344 2.5 7.966 1.65 23.22 7.531 23.22 7.531V903.6s-6.362.03-9.438-.625c-8.284-1.764-15.868-5.845-23.813-8.781-3.318-1.226-9.697-.161-9.969-3.688-.501-6.5 11.396-6.364 17.09-9.531 14.813-8.234 29.74-16.242 44.47-24.625 7.06-4.02 15.401-6.479 21.06-12.313 5.776-5.952 10.305-13.706 11.906-21.844.694-3.529 1.733-8.651-1.188-10.75-1.265-.909-2.693-1.307-4.219-1.344z"/><path d="M646.04 908.611s19.629 16.771 31.642 20.403c8.745 2.644 18.558 2.678 27.404.397 11.369-2.931 20.685-11.157 30.581-17.475 8.484-5.416 17.05-10.849 24.624-17.475 2.045-1.788 4.982-3.303 5.56-5.957.178-.818-.289-1.715-.794-2.383-2.415-3.192-6.337-4.986-9.929-6.752-7.251-3.564-15.02-6.534-23.04-7.546-8.03-1.013-16.294-.012-24.23 1.589-11.122 2.245-22.426 5.308-32.17 11.12-7.564 4.512-11.898 13.359-19.461 17.872-3.128 1.867-10.326 3.574-10.326 3.574z" style="fill:#fff;stroke:#000;stroke-width:5;stroke-linejoin:round"/><path style="fill:none;stroke:#000;stroke-width:5;stroke-linecap:round" d="M646.31 908.361s13.04.933 19.461 0c8.746-1.271 16.887-5.235 25.418-7.546 6.973-1.889 21.05-5.163 21.05-5.163"/><path style="fill:#fff;stroke:#000;stroke-width:5;stroke-linejoin:round" d="M624.07 866.271c8.156-2.502 10.879-13.201 17.08-19.06 5.543-5.242 12.91-8.503 17.872-14.298 9.527-11.125 18.865-23.786 21.844-38.13 1.707-8.216-.952-16.831-2.78-25.02-1.341-6.01-5.957-17.475-5.957-17.475s-2.066 8.837-4.766 12.312c-8.677 11.169-23.892 15.33-34.553 24.624-9.601 8.369-21.937 15.804-26.21 27.801-2.495 7-.171 15.02 1.589 22.24 2.218 9.103 3.982 19.747 11.12 25.815 1.248 1.061 3.2 1.672 4.766 1.191z"/><path style="fill:none;stroke:#000;stroke-width:5;stroke-linecap:round" d="M622.48 867.851c0-1.986-.866-17.189 1.191-25.418 2.097-8.388 7.05-15.807 11.12-23.432 4.868-9.112 15.886-26.61 15.886-26.61"/><path style="fill:#fff;stroke:#000;stroke-width:5;stroke-linejoin:round" d="M704.69 837.671c6.645 1.797 14.1 2.115 20.652 0 13.356-4.313 24.84-14.13 34.16-24.624 10.344-11.657 17.407-26.23 22.638-40.907 5.238-14.701 7.783-30.474 8.34-46.07.176-4.924 1.866-11.182-1.589-14.695-.748-.761-2.117-.518-3.177-.397-8.406.959-16.619 4.311-23.83 8.737-13.411 8.233-23.23 21.243-34.553 32.17-10.239 9.88-23.979 17.379-30.18 30.18-3.953 8.157-2.881 17.947-3.177 27.01-.252 7.685-2.809 16.469 1.192 23.04 1.914 3.141 5.981 4.6 9.532 5.56z"/><path d="M697.94 831.711s22.566-16.386 31.375-27.01c9.278-11.185 21.844-37.73 21.844-37.73" style="fill:none;stroke:#000;stroke-width:5;stroke-linecap:round"/><g style="fill:#fff;fill-opacity:.99599998;stroke:#000;stroke-width:5;stroke-linecap:round;stroke-linejoin:round" transform="translate(190.67 7.131)"><rect rx="7.167" y="823.35" x="289.74" height="41.724" width="19.764"/><path d="M276.72 818.09c-3.971 0-7.188 3.186-7.188 7.156v27.406c0 3.971 3.217 7.156 7.188 7.156h5.406c3.971 0 7.188-3.186 7.188-7.156v-27.406c0-3.971-3.217-7.156-7.188-7.156zm40.41 0a7.133 7.133 0 0 0-7.156 7.156v27.406a7.133 7.133 0 0 0 7.156 7.156h5.438a7.133 7.133 0 0 0 7.156-7.156v-27.406a7.133 7.133 0 0 0-7.156-7.156z"/></g><path style="fill:#fff;stroke:#000;stroke-width:5;stroke-linecap:round;stroke-linejoin:round" d="M436.48 610.881c-44.23 19.481-97.87 47.887-97.87 106.97 0 59.08 53.645 87.49 97.87 106.97 28.494 12.55 64.912 12.55 93.41 0 44.23-19.481 97.87-47.887 97.87-106.97 0-59.08-53.645-87.49-97.87-106.97-28.494-12.55-64.912-12.55-93.41 0z"/><path d="M593.254 717.855c0 63.067-49.16 114.193-109.798 114.193-60.642 0-109.799-51.126-109.799-114.193 0-63.066 49.16-114.193 109.799-114.193 60.641 0 109.798 51.127 109.798 114.193z" style="fill:none;stroke:#000;stroke-width:4.99955797;stroke-linecap:round;stroke-linejoin:round"/><path d="M547.142 717.855c0 63.067-28.513 114.193-63.683 114.193-35.173 0-63.684-51.126-63.684-114.193 0-63.066 28.513-114.193 63.684-114.193 35.172 0 63.683 51.127 63.683 114.193z" style="fill:none;stroke:#000;stroke-width:4.99951839;stroke-linecap:round;stroke-linejoin:round"/><path style="fill:none;stroke:#000;stroke-width:5;stroke-linecap:round" d="M354.65 862.501c0-1.986.866-17.189-1.191-25.418-2.097-8.388-7.05-15.807-11.12-23.432-4.868-9.112-15.886-26.61-15.886-26.61"/><use height="100%" width="100%" xlink:href="#a" transform="matrix(.96354 0 0 1.0769 206.999 -22.325)"/><use height="100%" width="100%" xlink:href="#a" transform="matrix(.96354 0 0 1.0769 219.92 -16.207)"/><use height="100%" width="100%" xlink:href="#a" transform="matrix(.96354 0 0 1.0769 218.435 -29.249)"/><use height="100%" width="100%" xlink:href="#a" transform="matrix(.96354 0 0 1.0769 230.234 -21.381)"/><use height="100%" width="100%" xlink:href="#a" transform="matrix(.96354 0 0 1.0769 210.569 -8.929)"/><use height="100%" width="100%" xlink:href="#a" transform="matrix(.96354 0 0 1.0769 223.68 -2.044)"/><use height="100%" width="100%" xlink:href="#a" transform="matrix(.96354 0 0 1.0769 231.87 -34.818)"/><use height="100%" width="100%" xlink:href="#a" transform="matrix(.96354 0 0 1.0769 233.183 -9.909)"/><use height="100%" width="100%" xlink:href="#b" transform="matrix(.96354 0 0 1.0769 223.209 9.858)"/><use height="100%" width="100%" xlink:href="#b" transform="matrix(.96354 0 0 1.0769 236.13 15.976)"/><use height="100%" width="100%" xlink:href="#b" transform="matrix(.96354 0 0 1.0769 234.646 2.936)"/><use height="100%" width="100%" xlink:href="#b" transform="matrix(.96354 0 0 1.0769 246.444 10.802)"/><use height="100%" width="100%" xlink:href="#b" transform="matrix(.96354 0 0 1.0769 226.78 23.251)"/><use height="100%" width="100%" xlink:href="#b" transform="matrix(.96354 0 0 1.0769 239.89 30.141)"/><path style="fill:#fff;fill-opacity:.99599998;stroke:#000;stroke-width:5;stroke-linecap:round;stroke-linejoin:round" d="M517.09 625.22a6 6 0 1 0 0 12 6 6 0 0 0 0-12zm-9.5 7.875a6 6 0 1 0 0 12c.186 0 .38-.015.563-.031a5.995 5.995 0 0 0-3.594 5.5 6 6 0 1 0 12 0c0-.382-.057-.763-.125-1.125a6.005 6.005 0 0 0 4.438 1.969 6 6 0 0 0 6-6 6.025 6.025 0 0 0-.719-2.875 6.004 6.004 0 0 0 5.782 1.344c-1.734-3.652-3.557-7.142-5.531-10.375a5.983 5.983 0 0 0-2.188 4.625c0 1.036.257 1.994.719 2.844a5.977 5.977 0 0 0-4.063-1.563 6 6 0 0 0-6 6c0 .393.053.753.125 1.125a5.957 5.957 0 0 0-4.438-1.969c-.186 0-.38.015-.563.031a5.995 5.995 0 0 0 3.594-5.5 6 6 0 0 0-6-6zm25.16 12.5a5.987 5.987 0 0 0-4.969 5.906 6 6 0 0 0 6 6 5.942 5.942 0 0 0 3.344-1.031c-1.348-3.784-2.795-7.413-4.375-10.875zm-10.406 6.844a6 6 0 1 0 0 12 6 6 0 0 0 0-12zm-13.438 5.563a6 6 0 1 0 0 12 6 6 0 0 0 0-12zm3.5 24.406a6 6 0 1 0 0 12 6 6 0 0 0 0-12z"/><use height="100%" width="100%" xlink:href="#b" transform="matrix(.96354 0 0 1.0769 249.394 22.271)"/><use height="100%" width="100%" xlink:href="#b" transform="matrix(-.96354 0 0 1.0769 738.71 2.709)"/><use height="100%" width="100%" xlink:href="#b" transform="matrix(-.96354 0 0 1.0769 725.79 8.827)"/><use height="100%" width="100%" xlink:href="#b" transform="matrix(-.96354 0 0 1.0769 727.27 -4.213)"/><use height="100%" width="100%" xlink:href="#b" transform="matrix(-.96354 0 0 1.0769 715.47 3.653)"/><use height="100%" width="100%" xlink:href="#b" transform="matrix(-.96354 0 0 1.0769 735.14 16.107)"/><use height="100%" width="100%" xlink:href="#b" transform="matrix(-.96354 0 0 1.0769 722.03 22.99)"/><use height="100%" width="100%" xlink:href="#b" transform="matrix(-.96354 0 0 1.0769 713.83 -9.784)"/><use height="100%" width="100%" xlink:href="#b" transform="matrix(-.96354 0 0 1.0769 712.52 15.124)"/><use transform="matrix(-.96354 0 0 1.0769 760.15 40.598)" xlink:href="#b" width="100%" height="100%"/><use transform="matrix(-.96354 0 0 1.0769 747.24 46.715)" xlink:href="#b" width="100%" height="100%"/><use transform="matrix(-.96354 0 0 1.0769 748.72 33.676)" xlink:href="#b" width="100%" height="100%"/><use transform="matrix(-.96354 0 0 1.0769 736.92 41.541)" xlink:href="#b" width="100%" height="100%"/><use transform="matrix(-.96354 0 0 1.0769 756.58 53.996)" xlink:href="#b" width="100%" height="100%"/><use transform="matrix(-.96354 0 0 1.0769 743.47 60.878)" xlink:href="#b" width="100%" height="100%"/><use transform="matrix(-.96354 0 0 1.0769 735.28 28.104)" xlink:href="#b" width="100%" height="100%"/><use transform="matrix(-.96354 0 0 1.0769 733.97 53.012)" xlink:href="#b" width="100%" height="100%"/><use height="100%" width="100%" xlink:href="#b" transform="matrix(-.96354 0 0 1.0769 745.83 16.666)"/><use transform="matrix(-.96354 0 0 -1.0769 723 1418.574)" xlink:href="#a" width="100%" height="100%"/><use transform="matrix(-.96354 0 0 -1.0769 710.09 1412.457)" xlink:href="#a" width="100%" height="100%"/><use transform="matrix(-.96354 0 0 -1.0769 711.57 1425.496)" xlink:href="#a" width="100%" height="100%"/><use transform="matrix(-.96354 0 0 -1.0769 699.77 1417.631)" xlink:href="#a" width="100%" height="100%"/><use transform="matrix(-.96354 0 0 -1.0769 719.43 1405.176)" xlink:href="#a" width="100%" height="100%"/><use transform="matrix(-.96354 0 0 -1.0769 706.32 1398.294)" xlink:href="#a" width="100%" height="100%"/><use transform="matrix(-.96354 0 0 -1.0769 698.13 1431.068)" xlink:href="#a" width="100%" height="100%"/><use transform="matrix(-.96354 0 0 -1.0769 696.82 1406.16)" xlink:href="#a" width="100%" height="100%"/><use transform="matrix(-.96354 0 0 -1.0769 797.837 1439.244)" xlink:href="#a" width="100%" height="100%"/><use transform="matrix(-.96354 0 0 -1.0769 784.927 1433.127)" xlink:href="#a" width="100%" height="100%"/><use transform="matrix(-.96354 0 0 -1.0769 786.407 1446.166)" xlink:href="#a" width="100%" height="100%"/><use transform="matrix(-.96354 0 0 -1.0769 774.607 1438.301)" xlink:href="#a" width="100%" height="100%"/><use transform="matrix(-.96354 0 0 -1.0769 794.267 1425.846)" xlink:href="#a" width="100%" height="100%"/><use transform="matrix(-.96354 0 0 -1.0769 781.157 1418.964)" xlink:href="#a" width="100%" height="100%"/><use transform="matrix(-.96354 0 0 -1.0769 772.967 1451.738)" xlink:href="#a" width="100%" height="100%"/><use transform="matrix(-.96354 0 0 -1.0769 771.657 1426.83)" xlink:href="#a" width="100%" height="100%"/><use transform="matrix(-.96354 0 0 -1.0769 727.285 1458.784)" xlink:href="#a" width="100%" height="100%"/><use transform="matrix(-.96354 0 0 -1.0769 714.375 1452.667)" xlink:href="#a" width="100%" height="100%"/><use transform="matrix(-.96354 0 0 -1.0769 715.855 1465.706)" xlink:href="#a" width="100%" height="100%"/><use transform="matrix(-.96354 0 0 -1.0769 704.055 1457.841)" xlink:href="#a" width="100%" height="100%"/><use transform="matrix(-.96354 0 0 -1.0769 723.715 1445.386)" xlink:href="#a" width="100%" height="100%"/><use transform="matrix(-.96354 0 0 -1.0769 710.605 1438.504)" xlink:href="#a" width="100%" height="100%"/><use transform="matrix(-.96354 0 0 -1.0769 702.415 1471.278)" xlink:href="#a" width="100%" height="100%"/><use transform="matrix(-.96354 0 0 -1.0769 701.105 1446.37)" xlink:href="#a" width="100%" height="100%"/><use transform="matrix(-.96354 0 0 -1.0769 765.17 1477.374)" xlink:href="#a" width="100%" height="100%"/><use transform="matrix(-.96354 0 0 -1.0769 752.26 1471.257)" xlink:href="#a" width="100%" height="100%"/><use transform="matrix(-.96354 0 0 -1.0769 753.74 1484.296)" xlink:href="#a" width="100%" height="100%"/><use transform="matrix(-.96354 0 0 -1.0769 741.94 1476.431)" xlink:href="#a" width="100%" height="100%"/><use transform="matrix(-.96354 0 0 -1.0769 761.6 1463.976)" xlink:href="#a" width="100%" height="100%"/><use transform="matrix(-.96354 0 0 -1.0769 748.49 1457.094)" xlink:href="#a" width="100%" height="100%"/><use transform="matrix(-.96354 0 0 -1.0769 740.3 1489.868)" xlink:href="#a" width="100%" height="100%"/><use transform="matrix(-.96354 0 0 -1.0769 738.99 1464.96)" xlink:href="#a" width="100%" height="100%"/><use height="100%" width="100%" xlink:href="#b" transform="matrix(.96354 0 0 1.0769 195.599 49.391)"/><use height="100%" width="100%" xlink:href="#b" transform="matrix(.96354 0 0 1.0769 206.429 67.959)"/><use height="100%" width="100%" xlink:href="#b" transform="matrix(.96354 0 0 1.0769 228.088 66.411)"/><use height="100%" width="100%" xlink:href="#b" transform="matrix(.96354 0 0 1.0769 237.15 56.909)"/><use height="100%" width="100%" xlink:href="#b" transform="matrix(.96354 0 0 1.0769 162.45 34.361)"/><use height="100%" width="100%" xlink:href="#b" transform="matrix(.96354 0 0 1.0769 164.879 56.471)"/><path style="fill:#fff;fill-opacity:.99599998;stroke:#000;stroke-width:5;stroke-linecap:round;stroke-linejoin:round" d="M421.47 728.94c-.484 0-.955.079-1.406.188.218 3.988.559 7.924 1 11.781.133.009.271.031.406.031a6 6 0 1 0 0-12zm3.094 26.06c-.449 0-.891.063-1.313.156.772 4.01 1.682 7.898 2.688 11.688a5.996 5.996 0 0 0 4.625-5.844 6 6 0 0 0-6-6zm3.531 13.09a5.99 5.99 0 0 0-1.75.281 155.255 155.255 0 0 0 3.625 11.406 5.99 5.99 0 0 0 4.125-5.688 6 6 0 0 0-6-6zM532.56 679.81a6 6 0 1 0 0 12 6 6 0 0 0 0-12zm-106 3.594a5.993 5.993 0 0 0-4.125 1.625 193.588 193.588 0 0 0-2.031 16.719c1.683-1.063 2.813-2.925 2.813-5.063a6.025 6.025 0 0 0-.719-2.875 6.004 6.004 0 0 0 4.063 1.594 6 6 0 1 0 0-12zm118.16 3.406a5.977 5.977 0 0 0-5.03 5.906c0 1.036.257 1.994.719 2.844a5.977 5.977 0 0 0-4.063-1.563 6 6 0 0 0-6 6c0 .393.053.753.125 1.125a5.957 5.957 0 0 0-4.438-1.969c-.186 0-.38.015-.563.031a5.995 5.995 0 0 0 3.594-5.5 6 6 0 1 0-6 6c.186 0 .38-.015.563-.031a5.995 5.995 0 0 0-3.594 5.5 6 6 0 1 0 12 0c0-.382-.057-.763-.125-1.125a6.005 6.005 0 0 0 4.438 1.969 6 6 0 0 0 6-6 6.025 6.025 0 0 0-.719-2.875 6.004 6.004 0 0 0 4.063 1.594c.176 0 .359-.016.531-.031-.381-4.04-.89-7.995-1.5-11.875zm-114.59 9.969a6 6 0 1 0 0 12 6 6 0 0 0 0-12zm116.31 4a5.999 5.999 0 0 0-3.188 5.313 6.002 6.002 0 0 0 3.813 5.594 202.493 202.493 0 0 0-.625-10.906zm-126.19 3.156a205.506 205.506 0 0 0-.438 11.688 6.002 6.002 0 0 0 4.875-5.906 5.987 5.987 0 0 0-4.438-5.781zm117.56 3.094a6 6 0 1 0 0 12 6 6 0 0 0 0-12zm-13.438 5.563a6 6 0 1 0 0 12 6 6 0 0 0 0-12z"/><path style="fill:#fff;fill-opacity:.99599998;stroke:#000;stroke-width:5;stroke-linecap:round;stroke-linejoin:round" d="M529.56 650.78a6.018 6.018 0 0 0-5.688 5.03 6.005 6.005 0 0 0 4.938 6.906 6.005 6.005 0 0 0 6.906-4.938c.541-3.269-1.699-6.365-4.969-6.906a5.791 5.791 0 0 0-1.188-.094zm-14.09 4.688a6.018 6.018 0 0 0-5.688 5.03 5.975 5.975 0 0 0 4.938 6.875 6.034 6.034 0 0 0 4.281-.906 6.042 6.042 0 0 0-1.188 2.719 6.005 6.005 0 0 0 4.938 6.906 6.046 6.046 0 0 0 4.719-1.219c-.127.346-.25.717-.313 1.094a6.005 6.005 0 0 0 4.938 6.906c3.269.541 6.365-1.699 6.906-4.969a5.978 5.978 0 0 0-2.656-6c.177.046.379.095.563.125 1.697.281 3.325-.191 4.594-1.156a161.464 161.464 0 0 0-3.094-10.719c-3.099-.278-5.953 1.85-6.469 4.969a6.024 6.024 0 0 0 2.656 6.03c-.177-.046-.347-.095-.531-.125a6.002 6.002 0 0 0-4.719 1.219c.132-.355.248-.706.313-1.094a6.005 6.005 0 0 0-4.938-6.906 5.94 5.94 0 0 0-4.25.875 5.882 5.882 0 0 0 1.156-2.688 6.005 6.005 0 0 0-4.938-6.906 6.044 6.044 0 0 0-1.219-.063zm-5.688 12.625c-2.789.106-5.214 2.139-5.688 5a6.005 6.005 0 0 0 4.938 6.906 6.005 6.005 0 0 0 6.906-4.938 6.005 6.005 0 0 0-4.938-6.906 6.044 6.044 0 0 0-1.219-.063zm10.156 8.688a6.018 6.018 0 0 0-5.688 5.03 6.005 6.005 0 0 0 4.938 6.906 6.005 6.005 0 0 0 6.906-4.938 6.005 6.005 0 0 0-4.938-6.906 6.092 6.092 0 0 0-1.219-.094zm12.344 7.688a6.018 6.018 0 0 0-5.688 5.03 5.975 5.975 0 0 0 4.938 6.875 6.005 6.005 0 0 0 6.906-4.938 5.975 5.975 0 0 0-4.938-6.875 6.092 6.092 0 0 0-1.219-.094zM470.83 609.041a6 6 0 1 1 0 12 6 6 0 0 1 0-12z"/><path style="fill:#fff;fill-opacity:.99599998;stroke:#000;stroke-width:5;stroke-linecap:round;stroke-linejoin:round" d="M457.71 615.951a6 6 0 0 1 5.281 8.844 5.977 5.977 0 0 1 4.063-1.563 6 6 0 0 1 6 6c0 .393-.053.753-.125 1.125a5.957 5.957 0 0 1 4.438-1.969c.186 0 .38.015.563.031a5.995 5.995 0 0 1-3.594-5.5 6 6 0 1 1 6 6c-.186 0-.38-.015-.563-.031a5.995 5.995 0 0 1 3.594 5.5 6 6 0 1 1-12 0c0-.382.057-.763.125-1.125a6.005 6.005 0 0 1-4.438 1.969 6 6 0 0 1-6-6c0-1.036.257-2.025.719-2.875a6.004 6.004 0 0 1-4.063 1.594 6 6 0 1 1 0-12z"/><path style="fill:#fff;fill-opacity:.99599998;stroke:#000;stroke-width:5;stroke-linecap:round;stroke-linejoin:round" d="M454.15 629.321a6 6 0 1 1 0 12 6 6 0 0 1 0-12zM465.58 636.261a6 6 0 1 1 0 12 6 6 0 0 1 0-12zM479.02 641.821a6 6 0 1 1 0 12 6 6 0 0 1 0-12zM438.81 636.47a117.78 117.78 0 0 0-5.03 9.938 6 6 0 0 0 10.5-3.969c0-3.138-2.4-5.704-5.469-5.969zm12.906 5.531a6 6 0 1 0 0 12 6 6 0 0 0 0-12zm11.438 6.906a6 6 0 1 0 0 12 6 6 0 0 0 0-12zm-23.25.969a6 6 0 0 0-6 6 5.998 5.998 0 0 0 3.594 5.5c-.181-.016-.346-.031-.531-.031a6 6 0 1 0 6 6c0-2.461-1.506-4.574-3.625-5.5.182.017.376.031.563.031 1.756 0 3.34-.766 4.438-1.969a5.794 5.794 0 0 0-.125 1.125 6 6 0 0 0 6 6 5.992 5.992 0 0 0 4.156-1.656c-.496.873-.813 1.861-.813 2.938a6 6 0 1 0 6-6 5.94 5.94 0 0 0-4.063 1.594c.462-.85.719-1.839.719-2.875a6 6 0 0 0-6-6c-1.764 0-3.34.757-4.438 1.969.072-.372.125-.732.125-1.125a6 6 0 0 0-6-6zm6.563 19.313a6 6 0 1 0 0 12 6 6 0 0 0 0-12zm59.53 90.31a6 6 0 1 0 0 12 6 6 0 0 0 0-12zm-64.69 3.313a6 6 0 1 0 0 12 6 6 0 0 0 0-12zm78.12 2.25a6 6 0 1 0 0 12 6 6 0 0 0 0-12zm-64.69 3.313a6 6 0 1 0 0 12 6 6 0 0 0 0-12zm76.12 3.594a6 6 0 1 0 0 12 6 6 0 0 0 0-12zm-23.25.969a6 6 0 0 0-6 6 5.998 5.998 0 0 0 3.594 5.5c-.181-.016-.346-.031-.531-.031a6 6 0 1 0 6 6c0-2.461-1.506-4.574-3.625-5.5.182.017.376.031.563.031 1.756 0 3.34-.766 4.438-1.969a5.794 5.794 0 0 0-.125 1.125 6 6 0 0 0 6 6 5.992 5.992 0 0 0 4.156-1.656c-.496.873-.813 1.861-.813 2.938a6 6 0 0 0 6 6c.725 0 1.419-.139 2.063-.375a118.913 118.913 0 0 0 3.656-7.406c-.76-2.442-3.03-4.219-5.719-4.219a5.94 5.94 0 0 0-4.063 1.594c.462-.85.719-1.839.719-2.875a6 6 0 0 0-6-6c-1.764 0-3.34.757-4.438 1.969.072-.372.125-.732.125-1.125a6 6 0 0 0-6-6zm-41.44 2.344a6 6 0 1 0 0 12 6 6 0 0 0 0-12zm-23.25.969a6 6 0 0 0-6 6 5.998 5.998 0 0 0 3.594 5.5c-.181-.016-.346-.031-.531-.031a5.996 5.996 0 0 0-5.406 3.375 115.092 115.092 0 0 0 4.438 8.531c.313.05.641.094.969.094a6 6 0 0 0 6-6c0-2.461-1.506-4.574-3.625-5.5.182.017.376.031.563.031 1.756 0 3.34-.766 4.438-1.969a5.794 5.794 0 0 0-.125 1.125 6 6 0 0 0 6 6 5.992 5.992 0 0 0 4.156-1.656c-.496.873-.813 1.861-.813 2.938a6 6 0 1 0 6-6 5.94 5.94 0 0 0-4.063 1.594c.462-.85.719-1.839.719-2.875a6 6 0 0 0-6-6c-1.764 0-3.34.757-4.438 1.969.072-.372.125-.732.125-1.125a6 6 0 0 0-6-6zm71.25 16a6 6 0 0 0-6 6c0 .828.165 1.626.469 2.344a6.002 6.002 0 0 0-4.625-2.156 6 6 0 1 0 6 6c0-.828-.165-1.626-.469-2.344a6.002 6.002 0 0 0 4.625 2.156 6 6 0 1 0 0-12zm-23.594.625a6 6 0 1 0 0 12 6 6 0 0 0 0-12zm-41.09 2.688a6 6 0 1 0 0 12 6 6 0 0 0 0-12zm65.969 9.781a6 6 0 0 0-6 6c0 3.075 2.3 5.619 5.281 5.969a75.769 75.769 0 0 0 6.5-7.563 5.996 5.996 0 0 0-5.781-4.406zm-23.25.969a6 6 0 0 0-6 6 5.998 5.998 0 0 0 3.594 5.5c-.181-.016-.346-.031-.531-.031a6 6 0 1 0 6 6c0-2.461-1.506-4.574-3.625-5.5.182.017.376.031.563.031 1.756 0 3.34-.766 4.438-1.969a5.794 5.794 0 0 0-.125 1.125 6 6 0 0 0 6 6 5.992 5.992 0 0 0 4.156-1.656c-.496.873-.813 1.861-.813 2.938 2.505-1.69 4.938-3.655 7.281-5.875a6.144 6.144 0 0 0-1.281-.125 5.94 5.94 0 0 0-4.063 1.594c.462-.85.719-1.839.719-2.875a6 6 0 0 0-6-6c-1.764 0-3.34.757-4.438 1.969.072-.372.125-.732.125-1.125a6 6 0 0 0-6-6zm6.563 19.313a5.985 5.985 0 0 0-5.938 5.188c3.285-.87 6.492-2.204 9.594-3.938a5.959 5.959 0 0 0-3.656-1.25z"/><path style="fill:#fff;fill-opacity:.99599998;stroke:#000;stroke-width:5;stroke-linecap:round;stroke-linejoin:round" d="M463.91 799.44a6 6 0 1 0 0 12 6 6 0 0 0 0-12zm13.09 6.875a6 6 0 0 0-6 6c0 1.076.316 2.064.813 2.938a5.994 5.994 0 0 0-4.156-1.656 6 6 0 0 0-6 6c0 .393.053.753.125 1.125a6.005 6.005 0 0 0-4.438-1.969c-.186 0-.38.015-.563.031 2.119-.926 3.625-3.039 3.625-5.5a6 6 0 0 0-12-.062 69.6 69.6 0 0 0 5.75 6.06c.082.003.167 0 .25 0 .185 0 .35-.015.531-.031-.172.075-.337.191-.5.281 2.804 2.579 5.724 4.773 8.75 6.594a6.1 6.1 0 0 0 .156-1.375c0-.393-.053-.753-.125-1.125a5.957 5.957 0 0 0 4.438 1.969 6 6 0 0 0 6-6 6.025 6.025 0 0 0-.719-2.875 5.937 5.937 0 0 0 4.063 1.594 6 6 0 1 0 0-12zm3.594 13.406a6 6 0 1 0 0 12 6 6 0 0 0 0-12zm-11.438 6.906a6.033 6.033 0 0 0-3.313 1c2.944 1.516 5.961 2.661 9.06 3.406-.703-2.532-2.994-4.406-5.75-4.406zM512.83 732.971a6 6 0 1 0 0 12 6 6 0 0 0 0-12zm13.438 5.563a6 6 0 1 0 0 12 6 6 0 0 0 0-12zm11.438 6.906a6 6 0 1 0 0 12 6 6 0 0 0 0-12zm-23.25.969a6 6 0 0 0-6 6 5.998 5.998 0 0 0 3.594 5.5c-.181-.016-.346-.031-.531-.031a6 6 0 1 0 6 6c0-2.461-1.506-4.574-3.625-5.5.182.017.376.031.563.031 1.756 0 3.34-.766 4.438-1.969a5.794 5.794 0 0 0-.125 1.125 6 6 0 0 0 6 6 5.992 5.992 0 0 0 4.156-1.656c-.496.873-.813 1.861-.813 2.938a6 6 0 1 0 6-6 5.94 5.94 0 0 0-4.063 1.594c.462-.85.719-1.839.719-2.875a6 6 0 0 0-6-6c-1.764 0-3.34.757-4.438 1.969.072-.372.125-.732.125-1.125a6 6 0 0 0-6-6zm6.563 19.313a6 6 0 1 0 0 12 6 6 0 0 0 0-12z"/><path style="fill:#fff;fill-opacity:.99599998;stroke:#000;stroke-width:5;stroke-linecap:round;stroke-linejoin:round" d="M514.1 708.961a6 6 0 1 0 0 12 6 6 0 0 0 0-12zm13.438 5.563a6 6 0 1 0 0 12 6 6 0 0 0 0-12zm11.438 6.906a6 6 0 1 0 0 12 6 6 0 0 0 0-12zm-23.25.969a6 6 0 0 0-6 6 5.998 5.998 0 0 0 3.594 5.5c-.181-.016-.346-.031-.531-.031a6 6 0 1 0 6 6c0-2.461-1.506-4.574-3.625-5.5.182.017.376.031.563.031 1.756 0 3.34-.766 4.438-1.969a5.794 5.794 0 0 0-.125 1.125 6 6 0 0 0 6 6 5.992 5.992 0 0 0 4.156-1.656c-.496.873-.813 1.861-.813 2.938a6 6 0 1 0 6-6 5.94 5.94 0 0 0-4.063 1.594c.462-.85.719-1.839.719-2.875a6 6 0 0 0-6-6c-1.764 0-3.34.757-4.438 1.969.072-.372.125-.732.125-1.125a6 6 0 0 0-6-6zm6.563 19.313a6 6 0 1 0 0 12 6 6 0 0 0 0-12zM483.77 605.591a6 6 0 1 0 0 12 6 6 0 0 0 0-12zm13.438 5.563a6 6 0 1 0 0 12 6 6 0 0 0 0-12zm11.438 6.906a6 6 0 1 0 0 12 6 6 0 0 0 0-12zm-23.25.969a6 6 0 0 0-6 6 5.998 5.998 0 0 0 3.594 5.5c-.181-.016-.346-.031-.531-.031a6 6 0 1 0 6 6c0-2.461-1.506-4.574-3.625-5.5.182.017.376.031.563.031 1.756 0 3.34-.766 4.438-1.969a5.794 5.794 0 0 0-.125 1.125 6 6 0 0 0 6 6 5.992 5.992 0 0 0 4.156-1.656c-.496.873-.813 1.861-.813 2.938a6 6 0 1 0 6-6 5.94 5.94 0 0 0-4.063 1.594c.462-.85.719-1.839.719-2.875a6 6 0 0 0-6-6c-1.764 0-3.34.757-4.438 1.969.072-.372.125-.732.125-1.125a6 6 0 0 0-6-6zm6.563 19.313a6 6 0 1 0 0 12 6 6 0 0 0 0-12z"/><use height="100%" width="100%" xlink:href="#b" transform="matrix(.96354 0 0 1.0769 175.63 3.131)"/><use height="100%" width="100%" xlink:href="#b" transform="matrix(.96354 0 0 1.0769 169.056 -14.059)"/><use height="100%" width="100%" xlink:href="#b" transform="matrix(.96354 0 0 1.0769 176.64 -6.726)"/></svg>