<svg xmlns="http://www.w3.org/2000/svg" height="941.49" viewBox="0 0 889.16 941.492" xmlns:xlink="http://www.w3.org/1999/xlink"><g fill-rule="evenodd"><path d="m6.065 5.5 57.11 582.59c8.559 194.08 177.07 347.79 381.41 347.9 204.16-.238 372.73-154 381.41-347.9l57.1-582.59h-438.51z" fill="red"/><g stroke="#000"><path d="M245.471 60.299A100.82 100.82 0 0 0 202.1 91.383l5.42 17.711 6.508-4.699-.363 12.289 5.783-3.254v20.242l9.04-5.783-.723 15.902 5.422-2.529-2.893 23.13h7.951a19.869 19.869 0 0 0-3.613 7.229 19.92 19.92 0 0 0 0 10.119 11.413 11.413 0 0 0-8.676.725c-2.751 1.431-4.788 3.925-6.506 6.506-3.165 4.756-5.556 10.194-5.783 15.902-.217 5.448 1.618 10.954 5.061 15.182-3.242-.25-6.569 1.135-8.674 3.613-1.993 2.347-2.851 5.53-2.711 8.605.14 3.076 1.214 6.05 2.711 8.744 2.362 4.248 5.759 7.842 9.455 10.998 3.072 2.623 6.426 5 10.217 6.398a22.93 22.93 0 0 0 13.58.676 210.705 210.705 0 0 0-4.336 7.951c-2.255 4.355-4.407 8.984-4.387 13.889a16.818 16.818 0 0 0 2.145 8.102 17.359 17.359 0 0 0 5.76 6.096c3.84 2.461 8.559 3.342 13.11 2.998 4.092-.31 8.099-1.597 11.629-3.689a8.673 8.673 0 0 1 2.105-1.371c-.677.494-1.384.944-2.105 1.371a8.637 8.637 0 0 0-1.412 1.553 8.713 8.713 0 0 0-1.541 4.307c-.189 2.467.676 4.877 1.445 7.229.763 2.333 1.446 4.698 2.424 6.949.977 2.251 2.27 4.406 4.082 6.06 1.445 1.321 3.196 2.294 5.061 2.891 2.327.744 4.794.903 7.232 1.063 2.438.16 4.907.333 7.225 1.107a14.6 14.6 0 0 1 7.951 6.506 15.871 15.871 0 0 0-10.119-3.615c-1.34.008-2.689.191-3.947.652s-2.424 1.21-3.281 2.24c-.911 1.095-1.447 2.475-1.633 3.887-.186 1.412-.035 2.855.318 4.234.707 2.759 2.193 5.242 3.482 7.781 2.743 5.402 4.719 11.315 8.674 15.904 3.972 4.609 9.834 7.539 15.904 7.951-4.347.939-8.305 3.577-10.844 7.229-1.629 2.344-2.685 5.104-2.891 7.951-.235 3.249.64 6.522 2.168 9.398a21.786 21.786 0 0 0 3.703 5.03 27.527 27.527 0 0 1 3.525 2.92 21.714 21.714 0 0 1-3.525-2.92c-2.859-2.01-6.088-3.494-9.486-4.309a27.767 27.767 0 0 0-7.951-.723 80.718 80.718 0 0 0-2.893 9.396c-.974 4.02-1.638 8.155-1.445 12.289.097 2.074.416 4.16 1.209 6.078.793 1.918 2.09 3.667 3.852 4.766 1.527.952 3.317 1.375 5.068 1.789 1.752.414 3.54.851 5.05 1.826a8.134 8.134 0 0 1 3.619 5.803 8.14 8.14 0 0 1-2.174 6.486 14.013 14.013 0 0 0-6.506-3.516 13.984 13.984 0 0 0-5.783-.1 10.584 10.584 0 0 0-.906 6.506 10.896 10.896 0 0 0 2.813 5.506 11.618 11.618 0 0 0 5.322 3.17c3.294.905 6.877.375 10.121 1.445a10.733 10.733 0 0 1 4.854 3.303 10.74 10.74 0 0 1 2.375 5.371 21.79 21.79 0 0 0-11.154-.906 21.692 21.692 0 0 0-5.5 1.785 27.19 27.19 0 0 0 2.707 10.275c1.514 3.094 3.707 5.968 6.719 7.641 3.01 1.674 6.61 2.02 10.05 1.734 3.437-.281 6.796-1.143 10.193-1.734 14.305-2.488 28.942-.153 43.37 1.447a427.572 427.572 0 0 0 79.84 1.346 427.503 427.503 0 0 0 79.84-1.346c14.431-1.601 29.07-3.935 43.37-1.447 3.398.591 6.756 1.453 10.193 1.734 3.437.281 7.03-.06 10.05-1.734 3.01-1.672 5.205-4.546 6.719-7.641a27.18 27.18 0 0 0 2.707-10.275 21.692 21.692 0 0 0-5.5-1.785 21.79 21.79 0 0 0-11.154.906 10.74 10.74 0 0 1 2.375-5.371 10.738 10.738 0 0 1 4.854-3.303c3.244-1.071 6.827-.54 10.121-1.445a11.579 11.579 0 0 0 5.322-3.17 10.892 10.892 0 0 0 2.813-5.506 10.584 10.584 0 0 0-.906-6.506 13.95 13.95 0 0 0-5.783.1 14.004 14.004 0 0 0-6.506 3.516 8.144 8.144 0 0 1-2.174-6.486 8.138 8.138 0 0 1 3.619-5.803c1.513-.975 3.301-1.412 5.05-1.826 1.752-.414 3.541-.837 5.068-1.789 1.762-1.098 3.058-2.847 3.852-4.766.793-1.918 1.112-4 1.209-6.078.193-4.134-.472-8.267-1.445-12.289a80.467 80.467 0 0 0-2.893-9.396c-2.667-.144-5.354.1-7.951.723-3.399.814-6.627 2.3-9.486 4.309a21.714 21.714 0 0 1-3.525 2.92 27.596 27.596 0 0 1 3.525-2.92 21.85 21.85 0 0 0 3.703-5.03c1.528-2.877 2.403-6.149 2.168-9.398-.206-2.847-1.261-5.607-2.891-7.951-2.539-3.652-6.496-6.29-10.844-7.229 6.071-.412 11.932-3.342 15.904-7.951 3.955-4.589 5.931-10.503 8.674-15.904 1.29-2.54 2.776-5.02 3.482-7.781.353-1.38.504-2.822.318-4.234s-.722-2.792-1.633-3.887c-.857-1.03-2.023-1.779-3.281-2.24-1.258-.461-2.607-.645-3.947-.652a15.871 15.871 0 0 0-10.119 3.615 14.6 14.6 0 0 1 7.951-6.506c2.318-.774 4.786-.948 7.225-1.107 2.438-.16 4.905-.318 7.232-1.063 1.865-.596 3.615-1.57 5.061-2.891 1.812-1.656 3.105-3.811 4.082-6.06.977-2.251 1.66-4.617 2.424-6.949.77-2.352 1.635-4.761 1.445-7.229a8.717 8.717 0 0 0-1.541-4.307 8.637 8.637 0 0 0-1.412-1.553 26.258 26.258 0 0 1-2.105-1.371 8.673 8.673 0 0 1 2.105 1.371c3.53 2.092 7.537 3.38 11.629 3.689 4.548.344 9.267-.537 13.11-2.998a17.368 17.368 0 0 0 5.76-6.096 16.818 16.818 0 0 0 2.145-8.102c.02-4.905-2.131-9.533-4.387-13.889a210.705 210.705 0 0 0-4.336-7.951 22.93 22.93 0 0 0 13.58-.676c3.791-1.396 7.144-3.775 10.217-6.398 3.696-3.156 7.093-6.75 9.455-10.998 1.496-2.691 2.571-5.668 2.711-8.744.14-3.076-.718-6.259-2.711-8.605-2.105-2.478-5.432-3.864-8.674-3.613 3.442-4.228 5.278-9.734 5.061-15.182-.228-5.708-2.619-11.147-5.783-15.902-1.718-2.581-3.755-5.075-6.506-6.506a11.412 11.412 0 0 0-8.676-.725 19.92 19.92 0 0 0 0-10.119 19.9 19.9 0 0 0-3.613-7.229h7.951l-2.893-23.13 5.422 2.529-.723-15.902 9.04 5.783V113.43l5.783 3.254-.363-12.289 6.508 4.699 5.42-17.711a101.126 101.126 0 0 0-18.07-17.35 101.03 101.03 0 0 0-25.301-13.734 2741.095 2741.095 0 0 0-37.59 10.119c-28.459 7.881-56.844 16.536-86.02 20.965-24.929 3.783-50.28 4.7-75.5 4.7-25.21 0-50.569-.917-75.5-4.7-29.18-4.428-57.56-13.08-86.02-20.965a2741.095 2741.095 0 0 0-37.59-10.119z" fill="#fff" stroke-linejoin="round" stroke-width="5"/><g fill="none"><path d="m6.065 5.5 57.11 582.59c8.559 194.08 177.07 347.79 381.41 347.9 204.16-.238 372.73-154 381.41-347.9l57.1-582.59h-438.51z" stroke-width="11"/><path d="m219.441 113.429 33.453-16.11c9.114 3.33 18.266 6.554 27.455 9.67 16.369 5.551 32.885 10.768 49.782 14.411 14.11 3.043 28.444 4.976 42.795 6.55a871.946 871.946 0 0 0 48.04 3.93" stroke-linecap="round" stroke-width="5"/></g><path d="M389.751 748.339a87.415 87.415 0 0 0-14.655 14.601c-5.882 7.447-10.552 15.889-13.398 24.943-2.322 7.385-3.422 15.225-2.512 22.913.853 7.205 3.445 14.158 3.859 21.401.645 11.297-4.272 22.581-12.283 30.571-6.574 6.557-15.193 11.04-24.341 12.63-6.44 1.118-13.149.812-19.402-1.095-6.252-1.908-12.03-5.435-16.427-10.273-7.223-7.948-10.283-18.698-14.831-28.427a94.965 94.965 0 0 0-3.323-6.447 23.477 23.477 0 0 1-5.956 4.598c-11.427 6.154-25.679 1.88-31.833-9.547s-1.88-25.679 9.547-31.833a23.504 23.504 0 0 1 7.121-2.433 95.154 95.154 0 0 0-3.559-6.333c-5.62-9.152-12.912-17.622-15.574-28.03-1.62-6.333-1.385-13.1.463-19.369 1.848-6.27 5.285-12.04 9.763-16.802 6.361-6.764 14.849-11.491 23.942-13.371 11.08-2.291 23.21-.187 32.29 6.569 5.82 4.332 10.198 10.32 15.744 14.998 5.918 4.991 13.07 8.387 20.514 10.512 9.125 2.606 18.744 3.353 28.2 2.54a87.645 87.645 0 0 0 20.256-4.201l2.829 6.143zm4.623 36.948c3.928 7.294 1.2 16.391-6.094 20.319-7.294 3.928-16.391 1.2-20.319-6.094-3.928-7.294-1.2-16.391 6.094-20.319 7.294-3.928 16.391-1.2 20.319 6.094zm-39.33-73.03c3.928 7.294 1.2 16.391-6.094 20.319-7.294 3.928-16.391 1.2-20.319-6.094-3.928-7.294-1.2-16.391 6.094-20.319 7.294-3.928 16.391-1.2 20.319 6.094zm-20.861 58.34a75.987 75.987 0 0 0-14.544-18.998c-9.456-8.971-21.646-15.551-34.658-16.312-7.082-.414-14.468 1-20.228 5.144-5.475 3.938-9.156 10.232-10.05 16.915-.437 3.246-.24 6.6.775 9.714 1.015 3.114 2.87 5.979 5.426 8.03 3 2.406 6.865 3.636 9.629 6.312 5.416 8.551 8.573-7.677 15.05-11.316 11.427-6.154 25.679-1.88 31.833 9.547s1.88 25.679-9.547 31.833c-10.116 5.698-19.63-3.273-17.73 6.334.714 3.78-.385 7.683-.029 11.513.303 3.261 1.675 6.387 3.717 8.948 2.041 2.562 4.733 4.571 7.684 5.993 6.075 2.927 13.356 3.318 19.657.914 6.629-2.529 11.875-7.917 15.427-14.06 6.526-11.283 7.741-25.08 5.455-37.912a76.037 76.037 0 0 0-7.858-22.599z" fill="#fff" stroke-linecap="round" stroke-width="5" stroke-miterlimit="4.04"/></g></g><g stroke="#000"><g stroke-linecap="round" stroke-width="5"><g stroke-miterlimit="4.04"><g fill="#fff"><g transform="scale(-1 1) rotate(-61.695 -21.693 -20.656)"><rect rx="14.05" width="28.11" height="410.4" x="-880.57" y="-389.55" ry="14.06"/><circle cx="-866.52" cy="-408.15" r="18.592"/><rect width="50.24" height="23.13" x="-891.64" y=".792" ry="11.565" rx="14.06"/></g><path d="M792.321 632.249a14.023 14.023 0 0 1-5.711 19.04l-9.742 5.246-2.441-4.533c-3.693-6.856-11.207-9.93-16.849-6.891-5.642 3.038-7.209 11-3.517 17.859l2.441 4.533-14.479 7.798-15.791-29.321 4.808-2.589c6.856-3.693 9.931-11.205 6.892-16.847-3.038-5.641-11-7.211-17.86-3.518l-4.808 2.589-2.129-3.953c-3.693-6.856-11.207-9.93-16.849-6.891-5.642 3.038-7.211 11-3.518 17.86l2.129 3.953-4.808 2.589c-6.856 3.693-9.93 11.207-6.892 16.849 3.038 5.642 11 7.209 17.859 3.517l4.808-2.589 15.791 29.321-14.481 7.799-2.441-4.533c-3.693-6.856-11.205-9.931-16.847-6.892-5.642 3.038-7.211 11-3.518 17.86l2.441 4.533-9.742 5.246a14.023 14.023 0 0 1-19.04-5.711l-8.268-15.353 8.627-4.646c6.856-3.693 9.93-11.207 6.892-16.849-3.038-5.642-11-7.211-17.86-3.518l-8.627 4.646-8.741-16.23 24.539-13.216c6.856-3.693 9.93-11.207 6.892-16.849-2.344-4.352-7.619-6.268-13.06-5.228l76.34-41.11c-3.86 3.967-5.164 9.426-2.82 13.777 3.038 5.641 11 7.211 17.86 3.518l24.539-13.216 8.741 16.23-8.627 4.646c-6.856 3.693-9.93 11.207-6.892 16.849 3.038 5.641 11 7.211 17.86 3.518l8.627-4.646 8.268 15.353z"/><path d="M499.411 748.339a87.415 87.415 0 0 1 14.655 14.601c5.882 7.447 10.552 15.889 13.398 24.943 2.322 7.385 3.422 15.225 2.512 22.913-.853 7.205-3.445 14.158-3.859 21.401-.645 11.297 4.272 22.581 12.283 30.571 6.574 6.557 15.193 11.04 24.341 12.63 6.44 1.118 13.149.812 19.402-1.095 6.252-1.908 12.03-5.435 16.427-10.273 7.223-7.948 10.283-18.698 14.831-28.427a94.965 94.965 0 0 1 3.323-6.447 23.477 23.477 0 0 0 5.956 4.598c11.427 6.154 25.679 1.88 31.833-9.547s1.88-25.679-9.547-31.833a23.504 23.504 0 0 0-7.121-2.433 95.154 95.154 0 0 1 3.559-6.333c5.62-9.152 12.912-17.622 15.574-28.03 1.62-6.333 1.385-13.1-.463-19.369-1.848-6.27-5.285-12.04-9.763-16.802-6.361-6.764-14.849-11.491-23.942-13.371-11.08-2.291-23.21-.187-32.29 6.569-5.82 4.332-10.198 10.32-15.744 14.998-5.918 4.991-13.07 8.387-20.514 10.512-9.125 2.606-18.744 3.353-28.2 2.54a87.645 87.645 0 0 1-20.256-4.201l-2.829 6.143zm-4.623 36.948c-3.928 7.294-1.2 16.391 6.094 20.319 7.294 3.928 16.391 1.2 20.319-6.094 3.928-7.294 1.2-16.391-6.094-20.319-7.294-3.928-16.391-1.2-20.319 6.094zm39.33-73.03c-3.928 7.294-1.2 16.391 6.094 20.319 7.294 3.928 16.391 1.2 20.319-6.094 3.928-7.294 1.2-16.391-6.094-20.319-7.294-3.928-16.391-1.2-20.319 6.094zm20.861 58.34a75.987 75.987 0 0 1 14.544-18.998c9.456-8.971 21.646-15.551 34.658-16.312 7.082-.414 14.468 1 20.228 5.144 5.475 3.938 9.156 10.232 10.05 16.915.437 3.246.24 6.6-.775 9.714-1.015 3.114-2.87 5.979-5.426 8.03-3 2.406-6.865 3.636-9.629 6.312-5.416 8.551-8.573-7.677-15.05-11.316-11.427-6.154-25.679-1.88-31.833 9.547s-1.88 25.679 9.547 31.833c10.116 5.698 19.63-3.273 17.73 6.334-.714 3.78.385 7.683.029 11.513-.303 3.261-1.675 6.387-3.717 8.948-2.041 2.562-4.733 4.571-7.684 5.993-6.075 2.927-13.356 3.318-19.657.914-6.629-2.529-11.875-7.917-15.427-14.06-6.526-11.283-7.741-25.08-5.455-37.912a76.037 76.037 0 0 1 7.858-22.599z" fill-rule="evenodd"/><g transform="rotate(-61.695 -28.473 -9.305)"><rect rx="14.05" width="28.11" height="410.4" x="-452.53" y="405.23" ry="14.06"/><circle cx="-438.48" cy="386.64" r="18.592"/><rect width="50.24" height="23.13" x="-463.6" y="795.58" ry="11.565" rx="14.06"/></g><path d="M96.841 632.249a14.023 14.023 0 0 0 5.711 19.04l9.742 5.246 2.441-4.533c3.693-6.856 11.207-9.93 16.849-6.891 5.642 3.038 7.209 11 3.517 17.859l-2.441 4.533 14.479 7.798 15.791-29.321-4.808-2.589c-6.856-3.693-9.931-11.205-6.892-16.847 3.038-5.641 11-7.211 17.86-3.518l4.808 2.589 2.129-3.953c3.693-6.856 11.207-9.93 16.849-6.891 5.642 3.038 7.211 11 3.518 17.86l-2.129 3.953 4.808 2.589c6.856 3.693 9.93 11.207 6.892 16.849-3.038 5.642-11 7.209-17.859 3.517l-4.808-2.589-15.791 29.321 14.481 7.799 2.441-4.533c3.693-6.856 11.205-9.931 16.847-6.892 5.642 3.038 7.211 11 3.518 17.86l-2.441 4.533 9.742 5.246a14.023 14.023 0 0 0 19.04-5.711l8.268-15.353-8.627-4.646c-6.856-3.693-9.93-11.207-6.892-16.849 3.038-5.642 11-7.211 17.86-3.518l8.627 4.646 8.741-16.23-24.539-13.216c-6.856-3.693-9.93-11.207-6.892-16.849 2.344-4.352 7.619-6.268 13.06-5.228l-76.34-41.11c3.86 3.967 5.164 9.426 2.82 13.777-3.038 5.641-11 7.211-17.86 3.518l-24.539-13.216-8.741 16.23 8.627 4.646c6.856 3.693 9.93 11.207 6.892 16.849-3.038 5.641-11 7.211-17.86 3.518l-8.627-4.646-8.268 15.353z"/><path d="m444.581 484.519-124.21 27.604v74.49l124.21 66.3 124.21-66.3v-74.49z" fill-rule="evenodd"/><path d="M444.58 514.17c-9.203 0-16.613 6.856-16.613 15.373v114.51l16.613 8.867 16.613-8.867v-114.51c0-8.517-7.41-15.373-16.613-15.373zm-53.39 5.568c-8.354 0-15.08 6.858-15.08 15.375v81.26l29.836 15.924c.209-1.023.322-2.082.322-3.17v-94.01c0-8.517-6.726-15.375-15.08-15.375zm106.78 0c-8.354 0-15.08 6.858-15.08 15.375v94.01c0 1.088.112 2.147.32 3.17l29.838-15.924v-81.26c0-8.517-6.726-15.375-15.08-15.375zm-146.78 18.33c-5.947 0-10.732 4.675-10.732 10.482v48.791l21.469 11.457v-60.25c0-5.807-4.79-10.482-10.736-10.482zm186.78 0c-5.947 0-10.734 4.675-10.734 10.482v60.25l21.469-11.459v-48.789c0-5.807-4.788-10.482-10.734-10.482z"/><path d="M444.58 460.105a135.117 72.846 0 0 0-135.117 72.846 135.117 72.846 0 0 0 10.549 28.043 135.117 107.255 0 0 1 124.568-65.742 135.117 107.255 0 0 1 124.547 65.926 135.117 72.846 0 0 0 10.57-28.227 135.117 72.846 0 0 0-135.117-72.846z"/><path d="M444.58 447.422a149.217 84.763 0 0 0-149.217 84.763 149.217 84.763 0 0 0 25.006 46.883V556.14a130.25 68.146 0 0 1-6.039-20.263 130.25 68.146 0 0 1 130.25-68.145 130.25 68.146 0 0 1 130.25 68.145 130.25 68.146 0 0 1-6.039 20.457v22.723a149.217 84.763 0 0 0 25.006-46.871 149.217 84.763 0 0 0-149.217-84.764z"/></g><g fill="none" fill-rule="evenodd"><path d="M444.581 480.219a349.91 349.91 0 0 0-19.16.84c-7.119.508-14.229 1.235-21.267 2.422a157.79 157.79 0 0 0-23.419 5.795c-8.308 2.754-16.388 6.235-23.973 10.603-5.777 3.327-11.256 7.164-16.415 11.387-4.522 3.702-8.799 7.702-12.845 11.92a161.373 161.373 0 0 0-12.489 14.686M444.581 480.219a349.91 349.91 0 0 1 19.16.84c7.119.508 14.229 1.235 21.267 2.422a157.79 157.79 0 0 1 23.419 5.795c8.308 2.754 16.388 6.235 23.973 10.603 5.777 3.327 11.256 7.164 16.415 11.387 4.522 3.702 8.799 7.702 12.845 11.92a161.373 161.373 0 0 1 12.489 14.686"/></g></g><g fill="none" fill-rule="evenodd"><path d="M304.741 403.669a56.909 56.909 0 0 1 24.826 14.402c1.435 1.425 2.799 2.935 3.9 4.632 1.1 1.697 1.933 3.591 2.234 5.591.307 2.036.057 4.112-.271 6.145-.329 2.032-.738 4.065-.751 6.123a15.744 15.744 0 0 0 2.15 8.05 15.18 15.18 0 0 0 6.03 5.746c1.737.904 3.665 1.461 5.623 1.533 2.583.096 5.23-.69 7.2-2.363a8.803 8.803 0 0 0 2.326-3.063 7.939 7.939 0 0 0 .697-3.775c-.115-1.714-.817-3.348-1.767-4.779s-2.144-2.682-3.345-3.91c-1.604-1.641-3.239-3.265-4.6-5.112-3.526-4.781-5.03-11-4.089-16.868M584.411 403.669a56.909 56.909 0 0 0-24.826 14.402c-1.435 1.425-2.799 2.935-3.9 4.632-1.1 1.697-1.933 3.591-2.234 5.591-.307 2.036-.057 4.112.271 6.145.329 2.032.738 4.065.751 6.123a15.744 15.744 0 0 1-2.15 8.05 15.18 15.18 0 0 1-6.03 5.746c-1.737.904-3.665 1.461-5.623 1.533-2.583.096-5.23-.69-7.2-2.363a8.803 8.803 0 0 1-2.326-3.063 7.939 7.939 0 0 1-.697-3.775c.115-1.714.817-3.348 1.767-4.779s2.144-2.682 3.345-3.91c1.604-1.641 3.239-3.265 4.6-5.112 3.526-4.781 5.03-11 4.089-16.868"/></g></g><path d="M385.551 376.159a83.974 83.974 0 0 0-9.203 22.49c-2.56 10.332-3.126 21.17-1.533 31.691a78.85 78.85 0 0 0 2.557 11.246 80.296 80.296 0 0 1 19.934-1.023 167.3 167.3 0 0 0-3.064-34.758 167.357 167.357 0 0 0-8.689-29.646zm118.07 0a167.19 167.19 0 0 0-11.757 64.404 80.393 80.393 0 0 1 19.938 1.023 78.85 78.85 0 0 0 2.557-11.246c1.593-10.525 1.027-21.359-1.533-31.691a83.974 83.974 0 0 0-9.203-22.49zm-192.94 53.17a103.198 103.198 0 0 0 8.674 39.397 29.43 29.43 0 0 1 14.459.361c.488-2 .611-4.097.361-6.145-.407-3.344-1.793-6.509-3.586-9.361-1.792-2.852-3.99-5.423-6.174-7.988-4.6-5.403-9.178-10.826-13.734-16.266zm267.8 0a2731.032 2731.032 0 0 1-13.734 16.266c-2.183 2.565-4.381 5.136-6.174 7.988-1.792 2.852-3.179 6.02-3.586 9.361a17.27 17.27 0 0 0 .361 6.145 29.416 29.416 0 0 1 14.458-.361 103.155 103.155 0 0 0 4.699-13.01c2.46-8.574 3.8-17.469 3.977-26.387z" fill-rule="evenodd"/></g><g transform="translate(916.751 -29.961)"><path d="M-583.28 452.66a4.465 4.465 0 0 0 3.313 2.222 4.464 4.464 0 0 0 3.744-1.377c.503-.543.862-1.206 1.143-1.892.281-.685.491-1.397.731-2.098.24-.701.514-1.396.912-2.02.398-.624.93-1.179 1.591-1.513.78-.394 1.697-.457 2.557-.303.86.154 1.67.512 2.439.928 1.537.831 2.998 1.923 4.723 2.199 1.292.207 2.646-.081 3.776-.739 1.131-.658 2.038-1.674 2.626-2.843.588-1.169.861-2.485.856-3.793-.005-1.308-.284-2.608-.753-3.83-1.064-2.775-3.065-5.092-5.243-7.114-2.178-2.02-4.569-3.81-6.684-5.898-2.218-2.19-4.128-4.718-5.437-7.547-1.308-2.829-2-5.969-1.792-9.08.106-1.576.449-3.159 1.216-4.54.766-1.381 1.986-2.548 3.483-3.051 1.626-.546 3.449-.267 4.999.471 1.549.737 2.857 1.899 4.04 3.144a30.736 30.736 0 0 1 6.506 10.482 21.527 21.527 0 0 0 3.253-11.205c.027-4.281-1.243-8.509-3.253-12.289-1.143-2.149-2.522-4.169-3.605-6.348-1.083-2.18-1.873-4.581-1.717-7.01.159-2.468 1.273-4.764 2.436-6.947s2.414-4.375 2.886-6.803c.505-2.598.081-5.288-.571-7.853-.652-2.565-1.532-5.078-1.959-7.689-.559-3.419-.326-6.912-.485-10.372-.159-3.461-.766-7.04-2.768-9.868-1.265-1.786-3.066-3.2-5.128-3.934-2.062-.734-4.376-.774-6.438-.042-2.378.844-4.315 2.647-5.783 4.699a19.604 19.604 0 0 0-3.609 10.323c-.191 3.69.697 7.43 2.525 10.64a26.019 26.019 0 0 1-1.807-15.903c.851-4.152 2.703-8.02 4.337-11.928 1.078-2.579 2.071-5.211 2.618-7.952.547-2.741.635-5.612-.088-8.312-.627-2.341-1.84-4.486-3.224-6.476-1.384-1.99-2.946-3.849-4.366-5.813a50.052 50.052 0 0 1-4.699-7.952 222.973 222.973 0 0 1-4.337 9.397 172.893 172.893 0 0 1-4.337 8.313 140.124 140.124 0 0 1-4.337 7.229 43.911 43.911 0 0 0-2.892-14.458c-3.075-8.01-8.803-15.267-16.626-18.795-4.524-2.04-9.519-2.765-14.458-3.253-4.208-.415-8.475-.672-12.65 0a28.73 28.73 0 0 0-7.229 2.169" fill="none" fill-rule="evenodd" stroke="#000" stroke-linecap="round" stroke-width="5" id="a"/><path d="M-639.94 308.81a79.185 79.185 0 0 1 18.339 16.263c6.831 8.282 11.906 17.871 16.263 27.682a236.941 236.941 0 0 1 12.803 36.679" fill="none" fill-rule="evenodd" stroke="#000" stroke-linecap="round" stroke-width="5" id="b"/><path d="M-635.1 297.39a81.053 81.053 0 0 1 21.454 18.685c7.338 9.124 12.604 19.725 17.301 30.45a371.468 371.468 0 0 1 12.803 33.565" fill="none" fill-rule="evenodd" stroke="#000" stroke-linecap="round" stroke-width="5" id="c"/><path d="M-698.03 250.02A41.22 41.22 0 0 1-687 260.719c4.073 5.793 6.573 12.514 9.343 19.03a224.458 224.458 0 0 0 4.206 9.304 31.488 31.488 0 0 0 14.13-6.19 31.424 31.424 0 0 0 6.469-6.822" fill="none" fill-rule="evenodd" stroke="#000" stroke-linecap="round" stroke-width="5" id="d"/><path d="M-645.62 273.87a22.212 22.212 0 0 1 9.06 10.06 22.204 22.204 0 0 1 1.464 13.461c-.841 4.066-2.807 7.801-4.844 11.419a235.57 235.57 0 0 1-9.593 15.584" fill="none" fill-rule="evenodd" stroke="#000" stroke-linecap="round" stroke-width="5" id="e"/><g transform="matrix(-1 0 0 1 -944.35 0)"><use xlink:href="#a"/><use xlink:href="#b"/><use xlink:href="#c"/><use xlink:href="#d"/><use xlink:href="#e"/></g></g><g fill="none" stroke="#000" fill-rule="evenodd" stroke-linecap="round" stroke-width="5"><path d="M393.591 201.259a8.167 8.167 0 0 1 4.06-2.279 8.18 8.18 0 0 1 4.645.325c1.556.587 2.908 1.649 3.976 2.924s1.866 2.759 2.496 4.298c1.261 3.079 1.876 6.39 3.12 9.476 2.183 5.415 6.398 10.04 11.724 12.435 2.07.93 4.305 1.527 6.573 1.599 1.87.06 3.752-.24 5.507-.888 4.291-1.585 7.712-5.348 8.882-9.77M495.561 201.259a8.167 8.167 0 0 0-4.06-2.279 8.18 8.18 0 0 0-4.645.325c-1.556.587-2.908 1.649-3.976 2.924s-1.866 2.759-2.496 4.298c-1.261 3.079-1.876 6.39-3.12 9.476-2.183 5.415-6.398 10.04-11.724 12.435-2.07.93-4.305 1.527-6.573 1.599-1.87.06-3.752-.24-5.507-.888-4.291-1.585-7.712-5.348-8.882-9.77"/><path d="M444.581 443.119a11.308 11.308 0 0 1-7.668-1.022c-2.669-1.408-4.683-3.867-5.962-6.6-1.28-2.733-1.877-5.737-2.216-8.735-.675-5.965-.367-12.05 1.022-17.89 1.38-5.803 3.826-11.42 4.089-17.379.094-2.133-.115-4.342-1.108-6.232-.497-.945-1.188-1.796-2.052-2.422-.865-.626-1.907-1.02-2.974-1.058-1.357-.048-2.7.486-3.755 1.342-1.055.855-1.836 2.01-2.379 3.259-1.083 2.481-1.246 5.249-1.429 7.95-.183 2.701-.424 5.477-1.638 7.896a10.693 10.693 0 0 1-5.656 5.128c-2.43.935-5.208.929-7.634-.016a34.11 34.11 0 0 0 7.667-10.223c3.677-7.524 4.454-16.207 3.578-24.536a66.236 66.236 0 0 0-5.112-19.424 76.794 76.794 0 0 1-4.6 11.757c-1.027 2.099-2.179 4.189-3.875 5.796-.848.804-1.828 1.477-2.913 1.912-1.085.434-2.277.623-3.435.471a5.704 5.704 0 0 1-2.726-1.111 5.055 5.055 0 0 1-1.716-2.38c-.338-1.014-.324-2.12-.115-3.169.209-1.048.605-2.049 1.022-3.034.417-.984.858-1.962 1.163-2.986.305-1.024.473-2.106.328-3.165-.141-1.036-.577-2.01-1.135-2.897-.559-.883-1.24-1.682-1.919-2.476-.68-.794-1.363-1.591-1.925-2.472s-1-1.856-1.154-2.89c-.145-1-.014-2.024.242-3 .256-.977.636-1.917.998-2.861.362-.944.707-1.899.892-2.893.185-.994.202-2.034-.087-3-.308-1.029-.949-1.934-1.712-2.691-.763-.757-1.647-1.377-2.533-1.986-.886-.608-1.781-1.21-2.573-1.936s-1.484-1.587-1.872-2.588c-.468-1.207-.466-2.572-.094-3.811.372-1.24 1.101-2.357 2.01-3.274 1.826-1.835 4.309-2.848 6.77-3.649 2.191-.713 4.452-1.299 6.756-1.342 2.304-.043 4.673.494 6.534 1.853a8.414 8.414 0 0 1 3 4.111 8.43 8.43 0 0 1 .064 5.09 11.954 11.954 0 0 0 3.815-6.394 11.957 11.957 0 0 0-.748-7.408 12.29 12.29 0 0 0-3.723-4.699 13.143 13.143 0 0 0-5.478-2.457c-1.558-.304-3.162-.332-4.712-.674-.775-.171-1.538-.421-2.23-.81-.692-.388-1.314-.919-1.747-1.584-.525-.805-.754-1.774-.802-2.734-.048-.96.074-1.919.204-2.871s.268-1.908.249-2.869c-.018-.961-.201-1.936-.674-2.772-.373-.66-.917-1.213-1.529-1.661-.612-.447-1.293-.793-1.989-1.093-1.392-.601-2.868-1.036-4.15-1.847-1.818-1.151-3.15-3.061-3.551-5.176-.401-2.114.149-4.4 1.506-6.07 1.296-1.595 3.271-2.583 5.314-2.811 2.043-.228 4.137.276 5.931 1.278 2.653 1.482 4.611 3.963 7.156 5.623a13.858 13.858 0 0 0 9.712 2.045c.801-3.392-.189-7.154-2.556-9.712-2.227-2.408-5.424-3.658-8.576-4.564-3.152-.906-6.419-1.563-9.315-3.103-2.321-1.234-4.357-3.036-5.748-5.266-1.392-2.23-2.119-4.892-1.919-7.513.163-2.137.949-4.235 2.299-5.9s3.268-2.878 5.369-3.301c2.024-.407 4.138-.085 6.099.56 1.961.645 3.801 1.604 5.658 2.507a110.884 110.884 0 0 0 8.178 3.578c1.603-4.471 1.223-9.615-1.022-13.801-2.294-4.278-6.282-7.367-9.201-11.245a26.354 26.354 0 0 1-5.112-12.779c-.828-7.258 1.553-14.757 6.134-20.446 4.656-5.783 11.558-9.72 18.913-10.734 5.602-.773 11.506.16 16.357 3.067 4.566 2.736 8.07 7.189 9.667 12.268M444.581 443.119c2.569.575 5.339.206 7.668-1.022 2.669-1.408 4.683-3.867 5.962-6.6 1.28-2.733 1.877-5.737 2.216-8.735.675-5.965.367-12.05-1.022-17.89-1.38-5.803-3.826-11.42-4.089-17.379-.094-2.133.115-4.342 1.108-6.232.497-.945 1.188-1.796 2.052-2.422.865-.626 1.907-1.02 2.974-1.058 1.357-.048 2.7.486 3.755 1.342 1.055.855 1.836 2.01 2.379 3.259 1.083 2.481 1.246 5.249 1.429 7.95.183 2.701.424 5.477 1.638 7.896a10.693 10.693 0 0 0 5.656 5.128c2.43.935 5.208.929 7.634-.016a34.11 34.11 0 0 1-7.667-10.223c-3.677-7.524-4.454-16.207-3.578-24.536a66.236 66.236 0 0 1 5.112-19.424 76.794 76.794 0 0 0 4.6 11.757c1.027 2.099 2.179 4.189 3.875 5.796.848.804 1.828 1.477 2.913 1.912 1.085.434 2.277.623 3.435.471a5.704 5.704 0 0 0 2.726-1.111 5.055 5.055 0 0 0 1.716-2.38c.338-1.014.324-2.12.115-3.169-.209-1.048-.605-2.049-1.022-3.034-.417-.984-.858-1.962-1.163-2.986-.305-1.024-.473-2.106-.328-3.165.141-1.036.577-2.01 1.135-2.897.559-.883 1.24-1.682 1.919-2.476.68-.794 1.363-1.591 1.925-2.472s1-1.856 1.154-2.89c.145-1 .014-2.024-.242-3-.256-.977-.636-1.917-.998-2.861-.362-.944-.707-1.899-.892-2.893-.185-.994-.202-2.034.087-3 .308-1.029.949-1.934 1.712-2.691.763-.757 1.647-1.377 2.533-1.986.886-.608 1.781-1.21 2.573-1.936s1.484-1.587 1.872-2.588c.468-1.207.466-2.572.094-3.811-.372-1.24-1.101-2.357-2.01-3.274-1.826-1.835-4.309-2.848-6.77-3.649-2.191-.713-4.452-1.299-6.756-1.342-2.304-.043-4.673.494-6.534 1.853a8.414 8.414 0 0 0-3 4.111 8.43 8.43 0 0 0-.064 5.09 11.954 11.954 0 0 1-3.815-6.394 11.957 11.957 0 0 1 .748-7.408 12.29 12.29 0 0 1 3.723-4.699 13.143 13.143 0 0 1 5.478-2.457c1.558-.304 3.162-.332 4.712-.674.775-.171 1.538-.421 2.23-.81.692-.388 1.314-.919 1.747-1.584.525-.805.754-1.774.802-2.734.048-.96-.074-1.919-.204-2.871s-.268-1.908-.249-2.869c.018-.961.201-1.936.674-2.772.373-.66.917-1.213 1.529-1.661.612-.447 1.293-.793 1.989-1.093 1.392-.601 2.868-1.036 4.15-1.847 1.818-1.151 3.15-3.061 3.551-5.176.401-2.114-.149-4.4-1.506-6.07-1.296-1.595-3.272-2.583-5.314-2.811-2.043-.228-4.137.276-5.931 1.278-2.653 1.482-4.611 3.963-7.156 5.623a13.858 13.858 0 0 1-9.712 2.045c-.801-3.392.189-7.154 2.556-9.712 2.227-2.408 5.424-3.658 8.576-4.564 3.152-.906 6.419-1.563 9.315-3.103 2.321-1.234 4.357-3.036 5.748-5.266 1.392-2.23 2.119-4.892 1.919-7.513-.163-2.137-.949-4.235-2.299-5.9s-3.268-2.878-5.369-3.301c-2.024-.407-4.138-.085-6.099.56-1.961.645-3.801 1.604-5.658 2.507a110.884 110.884 0 0 1-8.178 3.578c-1.603-4.471-1.223-9.615 1.022-13.801 2.294-4.278 6.282-7.367 9.201-11.245a26.354 26.354 0 0 0 5.112-12.779c.828-7.258-1.553-14.757-6.134-20.446-4.656-5.783-11.558-9.72-18.913-10.734-5.602-.773-11.506.16-16.357 3.067-4.566 2.736-8.07 7.189-9.667 12.268"/><g><path d="M430.191 231.436a309.235 309.235 0 0 1 6.359 28.04c2.937 16.475 4.529 33.16 5.878 49.838.757 9.365 1.439 18.737 2.045 28.11M458.971 231.436a309.235 309.235 0 0 0-6.359 28.04c-2.937 16.475-4.529 33.16-5.878 49.838a1751.453 1751.453 0 0 0-2.045 28.11"/></g></g><g transform="translate(916.751 -29.961)"><path d="M-518.18 251.75a362.787 362.787 0 0 0-39.25-45.826c-10.386-10.257-21.57-20-34.698-26.385-10.877-5.286-22.968-8.135-35.06-7.952-16.616.252-33.514 6.652-44.46 19.16-5.205 5.948-8.992 13.199-10.481 20.962-1.805 9.413-.195 19.251 3.253 28.19 3.03 7.864 7.537 15.252 13.735 20.964 5.522 5.089 12.305 8.754 19.518 10.843 10.345 2.997 21.606 2.734 31.807-.723 8.401-2.847 16.188-7.949 21.325-15.181 4.872-6.857 7.174-15.47 6.506-23.855-.691-8.678-4.573-17.09-10.843-23.13-7.283-7.01-17.847-10.633-27.831-9.04-4.972.795-9.753 2.84-13.695 5.973-3.942 3.132-7.03 7.355-8.714 12.1-2.213 6.229-1.886 13.447 1.446 19.16 2.952 5.059 8.276 8.748 14.1 9.397 2.222.248 4.519.061 6.596-.764 2.078-.825 3.924-2.32 4.97-4.296.832-1.571 1.134-3.374 1.201-5.15.067-1.777-.09-3.554-.117-5.331-.038-2.465.191-5 1.271-7.216.54-1.108 1.292-2.122 2.249-2.899.957-.777 2.123-1.312 3.347-1.451 1.59-.181 3.224.316 4.525 1.248 1.302.931 2.281 2.274 2.9 3.75 1.238 2.952 1.049 6.302.527 9.46-1.166 7.05-4.063 14.05-9.398 18.795-3.168 2.821-7.091 4.745-11.216 5.733-4.125.988-8.446 1.056-12.639.412-8.834-1.357-17.26-6.068-22.409-13.373-4.193-5.948-6.076-13.326-6.145-20.602-.076-8.07 2.081-16.277 6.867-22.771 3.818-5.18 9.197-9.122 15.13-11.612 5.934-2.49 12.409-3.564 18.844-3.569 14.695-.011 29.03 5.503 41.2 13.735 15.09 10.208 27.03 24.362 38.31 38.674a869.036 869.036 0 0 1 23.713 31.535" fill="none" fill-rule="evenodd" stroke="#000" stroke-linecap="round" stroke-width="5" id="f"/><path d="M-592.49 255.8a97.71 97.71 0 0 1 15.903 16.626 97.706 97.706 0 0 1 11.566 19.879" fill="none" fill-rule="evenodd" stroke="#000" stroke-linecap="round" stroke-width="5" id="g"/><path d="M-586.46 241.35a84.875 84.875 0 0 1 19.996 17.336c4.378 5.201 8.123 10.928 11.205 16.988a93.803 93.803 0 0 1 7.59 20.602" fill="none" fill-rule="evenodd" stroke="#000" stroke-linecap="round" stroke-width="5" id="h"/><path d="M-613.82 270.98a58.422 58.422 0 0 1 14.458 11.205 58.642 58.642 0 0 1 9.04 12.65" fill="none" fill-rule="evenodd" stroke="#000" stroke-linecap="round" stroke-width="5" id="i"/><g transform="matrix(-1 0 0 1 -944.35 0)"><use xlink:href="#f"/><use xlink:href="#g"/><use xlink:href="#h"/><use xlink:href="#i"/></g></g><g stroke="#000"><g stroke-linecap="round" stroke-width="5"><g fill-rule="evenodd"><g fill="none"><path d="m233.181 141.259 27.384-11.995c14.91 4.389 29.908 8.48 44.982 12.268 14.363 3.609 28.811 6.947 43.45 9.201a299.314 299.314 0 0 0 69.01 2.556M655.981 141.259l-27.384-11.995a1163.292 1163.292 0 0 1-44.982 12.268c-14.363 3.609-28.811 6.947-43.45 9.201a299.314 299.314 0 0 1-69.01 2.556"/><path d="m228.481 127.889 29.02-14.468a670.58 670.58 0 0 0 59.29 17.89c19.662 4.954 39.602 9.02 59.805 10.734a260.405 260.405 0 0 0 43.959 0M660.681 127.889l-29.02-14.468a670.58 670.58 0 0 1-59.29 17.89c-19.662 4.954-39.602 9.02-59.805 10.734a260.405 260.405 0 0 1-43.959 0M214.021 104.389l34.27-23.18a768.713 768.713 0 0 0 37.826 13.29c24.412 7.87 49.27 14.531 74.63 18.402a348.735 348.735 0 0 0 69.52 3.578M675.141 104.389l-34.27-23.18a768.713 768.713 0 0 1-37.826 13.29c-24.412 7.87-49.27 14.531-74.63 18.402a348.735 348.735 0 0 1-69.52 3.578"/><path d="m245.471 60.299 2.827 20.919 9.201 32.2 3.067 15.846M669.721 113.429l-33.453-16.11a1245.529 1245.529 0 0 1-27.455 9.67c-16.369 5.551-32.885 10.768-49.782 14.411-14.11 3.043-28.444 4.976-42.795 6.55a871.946 871.946 0 0 1-48.04 3.93"/><path d="m643.691 60.299-2.827 20.919-9.201 32.2-3.067 15.846"/></g><path d="M433.881 28.529c-5.292 1.104-11.01 2.693-14.863 6.486-3.519 3.466-5.755 8.451-6.135 13.488a23.627 23.627 0 0 0 3.578 14.313 30.332 30.332 0 0 0-8.689 0c-5.626.815-11.129 3.347-14.824 7.668-3.382 3.955-5.05 9.14-5.621 14.313-.177 1.613-.256 3.252.016 4.852.272 1.6.914 3.169 2.027 4.35.461.489 1 .909 1.615 1.189.611.28 1.294.417 1.963.344.991-.109 1.884-.666 2.613-1.346.729-.68 1.327-1.486 1.988-2.232a17.033 17.033 0 0 1 6.645-4.602c-2.777 1.439-4.882 4.118-5.623 7.156a10.722 10.722 0 0 0 0 5.111c.575 2.312 2.02 4.448 4.09 5.623 1.685.955 3.699 1.241 5.623 1.023 1.2-.136 2.377-.462 3.479-.957.365-.209.737-.405 1.121-.578-.363.213-.738.406-1.121.578-2.749 1.571-4.937 4.118-6.04 7.09-1.256 3.399-1.104 7.16-.512 10.734a46.301 46.301 0 0 0 4.09 12.779 15.58 15.58 0 0 0-7.156-4.6c-2.471-.746-5.109-.862-7.666-.512-4.718.646-9.262 2.953-12.27 6.645-2.886 3.543-4.243 8.212-4.088 12.779.126 3.711 1.206 7.361 2.932 10.648 1.725 3.288 4.084 6.222 6.779 8.775 3.361 3.185 7.322 5.829 11.758 7.156 3.795 1.136 7.803 1.278 11.756 1.533 3.949.255 7.903.631 11.756 1.533 4.56 1.068 8.976 2.889 12.779 5.623a30.273 30.273 0 0 1 8.689 9.713 30.295 30.295 0 0 1 8.689-9.713c3.803-2.734 8.219-4.555 12.779-5.623 3.852-.902 7.809-1.279 11.758-1.533 3.953-.255 7.961-.397 11.756-1.533 4.436-1.327 8.395-3.972 11.756-7.156 2.695-2.554 5.056-5.488 6.781-8.775 1.725-3.288 2.806-6.938 2.932-10.648.155-4.567-1.204-9.236-4.09-12.779-3.01-3.692-7.55-5.998-12.268-6.645-2.557-.35-5.197-.234-7.668.512-2.75.83-5.26 2.442-7.156 4.6a46.29 46.29 0 0 0 4.09-12.779c.592-3.575.745-7.336-.512-10.734-1.098-2.97-3.281-5.517-6.03-7.088a11.666 11.666 0 0 1-1.129-.58c.386.174.762.37 1.129.58 1.099.493 2.275.82 3.473.955 1.925.217 3.938-.068 5.623-1.023 2.072-1.175 3.512-3.311 4.088-5.623.416-1.67.408-3.44 0-5.111-.741-3.039-2.844-5.717-5.621-7.156a17.048 17.048 0 0 1 6.645 4.602c.661.746 1.257 1.553 1.986 2.232.729.68 1.622 1.237 2.613 1.346.669.073 1.353-.063 1.965-.344.611-.28 1.152-.7 1.613-1.189 1.113-1.181 1.755-2.75 2.027-4.35.272-1.6.195-3.239.018-4.852-.569-5.172-2.241-10.358-5.623-14.313-3.695-4.321-9.196-6.853-14.822-7.668a30.346 30.346 0 0 0-8.691 0 23.63 23.63 0 0 0 3.578-14.313c-.379-5.04-2.614-10.02-6.133-13.488-3.851-3.793-9.572-5.382-14.863-6.486a52.879 52.879 0 0 0-21.389 0z" fill="#fff"/><g fill="none"><path d="M416.461 62.819a25.526 25.526 0 0 0 8.975 5.684c2.625.971 5.393 1.502 8.166 1.884 3.373.466 6.775.719 10.18.757M472.691 62.819a25.526 25.526 0 0 1-8.975 5.684c-2.625.971-5.393 1.502-8.166 1.884a81.01 81.01 0 0 1-10.179.757M409.311 135.909c5.668-.338 11.44 1.85 15.459 5.862 1.857 1.854 3.351 4.082 4.289 6.533.937 2.451 1.311 5.126 1 7.732-.451 3.816-2.361 7.39-5.062 10.123-1.937 1.96-4.257 3.505-6.672 4.831a49.187 49.187 0 0 1-18.728 5.812M479.851 135.909c-5.668-.338-11.44 1.85-15.459 5.862-1.857 1.854-3.351 4.082-4.289 6.533-.937 2.451-1.311 5.126-1 7.732.451 3.816 2.361 7.39 5.062 10.123 1.937 1.96 4.257 3.505 6.672 4.831a49.187 49.187 0 0 0 18.728 5.812"/></g></g><g fill="none"><path d="M437.131 121.529a4.937 4.937 0 0 0-4.947 4.947v35.66a4.937 4.937 0 0 0 4.947 4.947 4.937 4.937 0 0 0 4.947-4.947v-35.66a4.937 4.937 0 0 0-4.947-4.947zm14.895 0a4.937 4.937 0 0 0-4.947 4.947v35.66a4.937 4.937 0 0 0 4.947 4.947 4.937 4.937 0 0 0 4.947-4.947v-35.66a4.937 4.937 0 0 0-4.947-4.947z"/><g fill-rule="evenodd"><path d="M412.331 105.029a6.075 6.075 0 0 1 2.94-1.01 6.072 6.072 0 0 1 3.053.586c.846.409 1.583 1.01 2.324 1.585.741.578 1.507 1.148 2.384 1.485.909.349 1.896.433 2.868.499s1.957.122 2.884.421c.923.298 1.759.831 2.481 1.478s1.335 1.408 1.89 2.203a21.568 21.568 0 0 1 3.451 8.05M476.831 105.029a6.075 6.075 0 0 0-2.94-1.01 6.072 6.072 0 0 0-3.053.586c-.846.409-1.583 1.01-2.324 1.585-.741.578-1.507 1.148-2.384 1.485-.909.349-1.896.433-2.868.499s-1.957.122-2.884.421c-.923.298-1.759.831-2.481 1.478s-1.335 1.408-1.89 2.203a21.568 21.568 0 0 0-3.451 8.05M431.931 110.349a5.997 5.997 0 0 0 4.325-1.147c.873-.659 1.545-1.543 2.172-2.44.627-.896 1.224-1.822 1.989-2.604a8.2 8.2 0 0 1 4.16-2.278"/><path d="M457.221 110.349a5.997 5.997 0 0 1-4.325-1.147c-.873-.659-1.545-1.543-2.172-2.44-.627-.896-1.224-1.822-1.989-2.604a8.2 8.2 0 0 0-4.16-2.278"/></g></g></g><path d="M439.981 77.319a46.192 46.192 0 0 1-2.439 14.967c-.913 2.694-2.075 5.3-3.416 7.809a59.816 59.816 0 0 1-5.518 8.5l-.502.123 6.832 2.113 2.766-2.113a39.995 39.995 0 0 0 1.465-4.068c1.372-4.577 1.91-9.374 1.951-14.15a69.915 69.915 0 0 0-1.139-13.178zm9.201 0a69.9 69.9 0 0 0-1.139 13.178c.041 4.778.581 9.575 1.953 14.15.414 1.381.902 2.74 1.463 4.068l2.766 2.113 6.834-2.113-.504-.123a59.804 59.804 0 0 1-5.516-8.5c-1.341-2.509-2.503-5.115-3.416-7.809a46.167 46.167 0 0 1-2.441-14.967zm-39.42 66.06a7.533 7.533 0 0 1 1.572 3.779 7.534 7.534 0 0 1-.652 4.04c-.73 1.566-2.049 2.881-3.68 3.451a5.061 5.061 0 0 1-2.133.277 4.09 4.09 0 0 1-2.01-.738c-.872-.633-1.424-1.61-1.857-2.596-.433-.986-.779-2.02-1.363-2.926-.54-.837-1.282-1.55-2.166-2.01-.884-.46-1.908-.662-2.895-.521-1.315.187-2.509.978-3.303 2.043-.794 1.065-1.206 2.384-1.299 3.709-.17 2.44.715 4.866 2.07 6.902 1.624 2.44 3.954 4.425 6.672 5.521 2.035.821 4.247 1.139 6.441 1.15 3.233.016 6.562-.666 9.203-2.531 2.94-2.076 4.817-5.602 4.832-9.201.001-2.399-.791-4.807-2.301-6.672a10.117 10.117 0 0 0-7.133-3.682zm69.64 0a10.109 10.109 0 0 0-7.131 3.682c-1.509 1.865-2.311 4.273-2.301 6.672.015 3.599 1.89 7.125 4.83 9.201 2.641 1.865 5.97 2.548 9.203 2.531 2.194-.011 4.406-.329 6.441-1.15 2.718-1.097 5.05-3.082 6.672-5.521 1.355-2.036 2.242-4.462 2.072-6.902-.092-1.325-.507-2.644-1.301-3.709-.794-1.065-1.986-1.856-3.301-2.043-.986-.14-2.01.061-2.895.521-.884.46-1.628 1.173-2.168 2.01-.584.905-.93 1.94-1.363 2.926-.433.986-.986 1.963-1.857 2.596a4.08 4.08 0 0 1-2.01.738 5.052 5.052 0 0 1-2.131-.277c-1.631-.57-2.951-1.886-3.682-3.451a7.533 7.533 0 0 1-.65-4.04 7.536 7.536 0 0 1 1.57-3.779z" fill-rule="evenodd"/></g></svg>