<svg xmlns="http://www.w3.org/2000/svg" viewBox="0 0 977.12 1067.6" xmlns:xlink="http://www.w3.org/1999/xlink"><defs><path id="b" d="M-911.63 555.02s18.738.229 28.01 1.449c9.953 1.31 19.701 3.901 29.454 6.277 8.27 2.01 16.602 5.487 24.626 6.76" stroke-linejoin="round" stroke="#000" fill="none" stroke-linecap="round" stroke-width="5"/><path id="c" d="M-878.86 539.88s15.29.176 22.852 1.111c8.121 1 16.08 2.991 24.03 4.812 6.748 1.545 13.547 4.207 20.09 5.183" stroke-linejoin="round" stroke="#000" fill="none" stroke-linecap="round" stroke-width="5"/><path id="a" d="M-893.43 547.85s16.275.191 24.324 1.207c8.644 1.091 17.11 3.251 25.583 5.231 7.183 1.679 14.42 4.573 21.389 5.633" stroke-linejoin="round" stroke="#000" fill="none" stroke-linecap="round" stroke-width="5"/><use id="d" xlink:href="#a"/></defs><path d="M798.38 10.026c-26.17.053-51.02.198-70.798.478-79.11 1.122-156.7-.214-235.05 0-2.653.007-5.305.036-7.958.043-78.35.214-155.94 1.122-235.05 0-79.11-1.122-239.53 0-239.53 0s4.995 48.18 6.784 72.32c3.067 41.38 4.256 82.87 6.784 124.29 3.405 55.766 7.902 111.49 11.307 167.25 2.529 41.41 3.91 82.9 6.784 124.29 4.346 62.59 5.02 125.75 15.786 187.56 6.02 34.562 14.418 68.979 27.14 101.67 15.355 39.473 33.473 78.71 58.839 112.63 18.288 24.456 41.648 45.04 65.884 63.62 27.747 21.272 57.962 39.816 89.93 53.968 33.818 14.97 69.917 25.08 106.24 32.09 27.334 5.278 55.35 7.255 83.19 7.349 27.662.094 55.55-1.52 82.71-6.741 36.46-7.01 72.54-17.626 106.46-32.746 31.934-14.235 62.23-32.696 89.98-53.968 24.24-18.58 47.595-39.17 65.884-63.62 25.365-33.919 43.484-73.16 58.839-112.63 12.718-32.695 21.12-67.16 27.14-101.72 10.762-61.814 11.44-124.97 15.786-187.56 2.874-41.39 4.256-82.87 6.784-124.29 3.405-55.766 7.902-111.44 11.307-167.21 2.529-41.41 3.717-82.909 6.784-124.29 1.79-24.14 6.784-72.32 6.784-72.32s-90.24-.636-168.73-.478" fill="#da121a"/><path d="M45.666 567.849c2.218 39.687 4.975 79.31 11.781 118.41 6.02 34.562 14.407 68.992 27.12 101.69 15.355 39.473 33.478 78.71 58.844 112.62 18.288 24.456 41.64 45.05 65.875 63.62 27.747 21.272 57.967 39.817 89.94 53.969 33.818 14.97 69.927 25.08 106.25 32.09 27.334 5.278 55.35 7.249 83.19 7.344 27.662.094 55.55-1.529 82.72-6.75 36.46-7.01 72.52-17.63 106.44-32.75 31.934-14.235 62.25-32.697 90-53.969 24.24-18.58 47.587-39.14 65.875-63.59 25.365-33.919 43.489-73.18 58.844-112.66 12.718-32.695 21.11-67.16 27.12-101.72 6.801-39.06 9.564-78.66 11.781-118.31H45.666" fill="#0f47af"/><g stroke="#000" stroke-linecap="round" stroke-width="5"><g fill="#fcdd09" stroke-linejoin="round" transform="translate(116.51 15.349)"><rect width="36" height="278.43" x="912.43" y="-72.34" transform="matrix(.59218 .8058 -.80661 .59108 0 0)" ry="23.502" rx="18"/><rect width="36" height="278.43" x="472.61" y="527.25" transform="matrix(-.59218 .8058 .80661 .59108 0 0)" ry="23.502" rx="18"/></g><path d="M124.54 504.629c-.815 0-1.628.003-2.438.031-.561.02-1.098.03-1.656.063-.181 0-.351.05-.531.063-.139.008-.298 0-.438 0-.729.052-1.463.146-2.188.219-.796.08-1.616.179-2.406.281-.188.024-.375.037-.563.063-.602.082-1.182.156-1.781.25-.066 0-.122.021-.188.031-.42.067-.863.178-1.281.25-.911.158-1.813.287-2.719.469-1.319.265-2.629.566-3.938.875h-.062c-1.304.308-2.579.657-3.875 1a238.54 238.54 0 0 0-7.125 2c-.221.066-.435.121-.656.188-1.867.56-3.761 1.146-5.625 1.719-.722.222-1.434.466-2.156.688-.803.246-1.602.476-2.406.719-.787.238-1.587.454-2.375.688-1 .296-1.996.59-3 .875-1.274.361-2.564.728-3.844 1.063-.196.051-.398.106-.594.156-1.054.272-2.097.533-3.156.781l-.406.094c-.157.036-.311.058-.469.094a119.06 119.06 0 0 1-3.344.719c-.575.113-1.173.21-1.75.313-.517.092-1.013.197-1.531.281-.163.026-.337.037-.5.063-.075.011-.112.02-.188.031-3.843.591-7.778.938-11.75.938-2.24 0-4.461-.11-6.656-.313 1.821 30.795 3.154 61.67 5.563 92.41 16.02-.074 30.786-5.797 45.875-10.156.14-.04.298-.054.438-.094 1.533-.44 3.084-.847 4.625-1.25.665-.174 1.302-.397 1.969-.563.106-.027.207-.005.313-.031 1.075-.264 2.169-.545 3.25-.781.478-.104.958-.214 1.438-.313.279-.058.564-.069.844-.125.501-.099.966-.221 1.469-.313.75-.137 1.527-.256 2.281-.375.033-.005.061-.025.094-.031h.031c.78-.122 1.559-.211 2.344-.313.76-.098 1.517-.204 2.281-.281.032-.003.061.003.094 0 .757-.076 1.52-.165 2.281-.219.041-.003.084.003.125 0 .073-.006.176.004.25 0 .73-.047 1.422-.099 2.156-.125a70.558 70.558 0 0 1 2.438-.031c.749 0 1.506.007 2.25.031.065.003.123-.003.188 0 .421.015.862.04 1.281.063.613.036 1.234.073 1.844.125 7.926.682 15.596 2.761 23.19 5.125l.313-.375c4.04 1.172 8.07 2.433 12.09 3.656.628.191 1.246.374 1.875.563.748.224 1.5.468 2.25.688.231.068.456.12.688.188.358.104.735.21 1.094.313 1.233.351 2.449.704 3.688 1.031.587.155 1.193.289 1.781.438.659.167 1.307.343 1.969.5 1.093.26 2.182.488 3.281.719 1.156.242 2.305.453 3.469.656.421.074.858.151 1.281.219l.594.094c1.402.217 2.802.415 4.219.563a76.39 76.39 0 0 0 4.469.344c1.037.046 2.078.063 3.125.063 26.07 0 48.902-15 74.969-15 .815 0 1.629.003 2.438.031 24.25.852 45.779 14.05 70.03 14.906.808.029 1.623.063 2.438.063.812 0 1.632-.036 2.438-.063.527-.019 1.038-.033 1.563-.063.67-.037 1.333-.07 2-.125a78.046 78.046 0 0 0 3.625-.375v-.031c7.977-1.035 15.715-3.171 23.406-5.5v.031c4.976-1.504 9.941-3.063 14.938-4.469.81-.228 1.626-.439 2.438-.656.293-.077.582-.173.875-.25.749-.196 1.498-.409 2.25-.594 0-.002.021.003.031 0 .198-.049.396-.108.594-.156 1.559-.377 3.115-.716 4.688-1.031.083-.013.167-.015.25-.031.135-.027.271-.067.406-.094.67-.13 1.359-.258 2.031-.375.44-.064.878-.15 1.313-.219.441-.07.871-.124 1.313-.188.373-.049.743-.107 1.125-.156.516-.067 1.045-.13 1.563-.188.28-.031.563-.066.844-.094.883-.089 1.767-.16 2.656-.219a72.837 72.837 0 0 1 1.875-.094 68.164 68.164 0 0 1 4.969-.032c.065.003.122-.003.188 0 .425.015.858.04 1.281.063.063.004.125-.003.188 0 .546.029 1.078.078 1.625.125.991.085 1.986.186 2.969.313 6.882.886 13.576 2.744 20.22 4.813l.344-.375c.041.012.084.019.125.031 1.842.536 3.695 1.095 5.531 1.656.917.28 1.833.562 2.75.844 1.53.47 3.062.944 4.594 1.406 2.658.803 5.324 1.562 8 2.281.499.134 1 .276 1.5.406.032.008.062.023.094.031 1.411.365 2.83.71 4.25 1.031 1.439.326 2.893.636 4.344.906.042.008.083.023.125.031.928.171 1.848.324 2.781.469.719.111 1.433.219 2.156.313l.75.094c.073.009.146.022.219.031.903.106 1.809.174 2.719.25.979.081 1.981.145 2.969.188.993.043 1.966.063 2.969.063v.031c.572 0 1.15-.048 1.719-.063.436-.011.878-.012 1.313-.031a72.984 72.984 0 0 0 2.969-.188c2.972-.249 5.904-.675 8.813-1.219.888-.166 1.773-.343 2.656-.531.082-.017.168-.014.25-.031.209-.045.417-.11.625-.156.752-.167 1.501-.351 2.25-.531a179.163 179.163 0 0 0 7.719-2.031c.283-.082.561-.168.844-.25 5.832-1.693 11.632-3.576 17.469-5.25.019-.006.043.006.063 0 .653-.187 1.312-.353 1.969-.531.867-.235 1.728-.492 2.594-.719.18-.047.354-.105.531-.156.581-.15 1.167-.294 1.75-.438.795-.195 1.604-.378 2.406-.563a114.77 114.77 0 0 1 3.125-.656c.501-.099.966-.221 1.469-.313.03-.006.032.005.063 0a92.866 92.866 0 0 1 4.656-.719c.02-.003.042.003.063 0 .772-.1 1.536-.203 2.313-.281.021-.002.042.002.063 0 .737-.076 1.478-.167 2.219-.219.062-.004.125.004.188 0 .063 0 .132.003.188 0 .474-.031.962-.072 1.438-.094.238 0 .474-.022.719-.031.818-.03 1.613-.03 2.438-.031h.063c.727 0 1.466.009 2.188.031.268.008.545.02.813.031h.031c.21.009.415.02.625.031.592.034 1.191.077 1.781.125.021.002.042-.002.063 0 7.926.682 15.596 2.761 23.19 5.125l.313-.375c4.04 1.172 8.07 2.464 12.09 3.688.628.191 1.247.343 1.875.531.748.224 1.5.468 2.25.688.231.068.456.12.688.188.358.104.735.21 1.094.313 1.233.351 2.449.704 3.688 1.031.587.155 1.193.289 1.781.438.659.167 1.307.343 1.969.5 1.093.26 2.182.488 3.281.719 1.156.242 2.305.453 3.469.656.422.074.858.151 1.281.219l.594.094c1.402.217 2.802.415 4.219.563a76.39 76.39 0 0 0 4.469.344c1.037.046 2.078.094 3.125.094 26.07 0 48.902-15.03 74.969-15.03.815 0 1.629.003 2.438.031 24.25.852 45.779 14.05 70.03 14.906.808.029 1.623.094 2.438.094.812 0 1.632-.067 2.438-.094.527-.019 1.038-.033 1.563-.063.67-.037 1.333-.07 2-.125a78.046 78.046 0 0 0 3.625-.375v-.031c12.538-1.627 24.461-5.995 36.594-9.5.14-.04.298-.054.438-.094 1.533-.44 3.084-.847 4.625-1.25.665-.174 1.302-.397 1.969-.563.106-.027.206-.005.313-.031 1.075-.264 2.138-.545 3.219-.781.478-.104.99-.214 1.469-.313.279-.058.564-.07.844-.125.501-.099.966-.221 1.469-.313.75-.137 1.527-.256 2.281-.375.033-.005.06-.025.094-.031h.031c.78-.122 1.528-.211 2.313-.313.76-.098 1.548-.204 2.313-.281.032-.003.061.003.094 0 .757-.076 1.52-.165 2.281-.219.041-.003.084.003.125 0 .073-.006.176.004.25 0 .73-.047 1.422-.099 2.156-.125a70.558 70.558 0 0 1 2.438-.031c.749 0 1.506.007 2.25.031.066.003.122-.003.188 0 .421.015.862.04 1.281.063a68.09 68.09 0 0 1 1.813.125c7.926.682 15.596 2.761 23.19 5.125l.344-.375c9.09 2.639 18.09 5.755 27.313 7.813 2.329-30.365 3.628-60.87 5.438-91.28-3.54-.663-7.06-1.53-10.531-2.469-1.371-.37-2.76-.728-4.125-1.125-1.365-.397-2.701-.806-4.063-1.219-2.919-.884-5.862-1.806-8.781-2.688-.665-.201-1.303-.396-1.969-.594-.502-.149-.998-.323-1.5-.469-.918-.268-1.861-.493-2.781-.75-.76-.212-1.519-.422-2.281-.625-1.06-.282-2.122-.584-3.188-.844h-.125c-1.343-.326-2.679-.655-4.03-.938-.694-.145-1.365-.275-2.063-.406-.139-.026-.298-.068-.438-.094-.558-.103-1.127-.188-1.688-.281-.546-.091-1.077-.138-1.625-.219-.155-.023-.313-.072-.469-.094-.358-.051-.735-.078-1.094-.125-.649-.084-1.285-.181-1.938-.25-.404-.042-.813-.057-1.219-.094-.04-.003-.085.003-.125 0-.669-.059-1.327-.146-2-.188-.098-.006-.215-.025-.313-.031-.533-.031-1.058-.044-1.594-.063a70.59 70.59 0 0 0-2.438-.031c-.815 0-1.628.003-2.438.031-.561.02-1.098.03-1.656.063-.181 0-.351.05-.531.063-.139.008-.298 0-.438 0-.729.052-1.463.146-2.188.219-.796.08-1.616.179-2.406.281-.188.024-.375.037-.563.063-.602.082-1.182.156-1.781.25-.066 0-.122.021-.188.031-.42.067-.863.178-1.281.25-.911.158-1.813.287-2.719.469-1.318.265-2.629.566-3.938.875h-.062c-1.304.308-2.579.657-3.875 1a238.54 238.54 0 0 0-7.125 2c-.221.066-.435.121-.656.188-1.867.56-3.761 1.177-5.625 1.75-.722.222-1.434.435-2.156.656-.803.246-1.634.476-2.438.719-.787.238-1.555.454-2.344.688-1 .296-1.996.59-3 .875-1.274.361-2.596.728-3.875 1.063-.196.051-.367.106-.563.156-1.054.272-2.097.533-3.156.781l-.406.094c-.157.036-.311.058-.469.094a119.06 119.06 0 0 1-3.344.719c-.575.113-1.173.21-1.75.313-.517.092-1.013.197-1.531.281-.163.026-.337.037-.5.063l-.219.031a79.693 79.693 0 0 1-8.75.875c-.985.042-1.976.063-2.969.063-.815 0-1.629-.034-2.438-.063-24.25-.852-45.81-14.05-70.06-14.906a70.558 70.558 0 0 0-2.438-.031c-2.444 0-4.858.105-7.25.344-23.12 2.312-44.06 14.656-67.69 14.656-1.164 0-2.349-.037-3.5-.094-.04-.003-.054.003-.094 0a78.576 78.576 0 0 1-6.313-.594c-.494-.066-1.01-.145-1.5-.219a91.07 91.07 0 0 1-2.281-.375 111.46 111.46 0 0 1-1.531-.281c-.254-.049-.497-.074-.75-.125-.98-.196-1.962-.435-2.938-.656-.927-.21-1.859-.427-2.781-.656-.111-.028-.233-.035-.344-.063-.711-.178-1.416-.375-2.125-.563a162.54 162.54 0 0 1-.938-.25c-.399-.108-.788-.234-1.188-.344-.404-.112-.815-.198-1.219-.313-.566-.159-1.155-.305-1.719-.469-1.365-.397-2.701-.806-4.063-1.219-2.919-.884-5.862-1.806-8.781-2.688-.665-.201-1.303-.396-1.969-.594-.502-.149-.998-.323-1.5-.469-.918-.268-1.861-.493-2.781-.75-.76-.212-1.519-.422-2.281-.625-1.06-.282-2.122-.584-3.188-.844h-.125c-1.342-.326-2.679-.655-4.03-.938-.694-.145-1.365-.275-2.063-.406-.139-.026-.298-.068-.438-.094-.558-.103-1.127-.188-1.688-.281-.536-.089-1.057-.14-1.594-.219 0-.002-.021.002-.031 0-.155-.023-.313-.072-.469-.094-.318-.045-.647-.084-.969-.125-.42-.056-.829-.106-1.25-.156-.146-.019-.291-.045-.438-.063-.228-.026-.459-.039-.688-.063-.928-.097-1.877-.156-2.813-.219-.093-.006-.188-.025-.281-.031-.083-.009-.171-.026-.25-.031-.534-.031-1.058-.044-1.594-.063-.083-.003-.167.002-.25 0a67.224 67.224 0 0 0-2.156-.031c-.804 0-1.577.003-2.375.031h-.063c-.561.02-1.098.03-1.656.063-.127.007-.251.012-.375.031-.052.003-.104.028-.156.031-.06.003-.124.002-.188 0a2.316 2.316 0 0 0-.25 0c-.719.051-1.442.147-2.156.219-.105 0-.208.02-.313.031-.902.094-1.792.19-2.688.313-.592.081-1.162.158-1.75.25 0 .002-.021-.002-.031 0-.066 0-.122.021-.188.031-.102.016-.208.043-.313.063-.86.14-1.707.306-2.563.469-.374.067-.751.112-1.125.188-.942.189-1.877.41-2.813.625-.374.086-.751.162-1.125.25h-.062c-.884.209-1.752.463-2.625.688-.417.107-.834.203-1.25.313-1.403.371-2.793.755-4.188 1.156-.979.281-1.96.553-2.938.844-.221.066-.435.121-.656.188-.426.128-.853.274-1.281.406-2.168.656-4.333 1.337-6.5 2-.803.246-1.602.476-2.406.719-.787.238-1.587.454-2.375.688-1 .296-1.996.59-3 .875-1.264.358-2.543.73-3.813 1.063 0 .003-.021-.003-.031 0-.123.032-.25.055-.375.094-.074.019-.145.043-.219.063-1.054.272-2.097.533-3.156.781l-.406.094c-.157.036-.311.058-.469.094-.83.188-1.666.364-2.5.531-.282.058-.561.132-.844.188-.432.085-.873.174-1.313.25-.146.027-.292.037-.438.063-.517.092-1.013.197-1.531.281-.123.02-.249.045-.375.063-.041.006-.085-.006-.125 0-.075.011-.113.02-.188.031-.877.135-1.739.267-2.625.375-.083 0-.167.021-.25.031-.982.117-1.978.2-2.969.281-.97.079-1.929.146-2.906.188-.977.041-1.986.062-2.969.063h-.031c-.815 0-1.598-.003-2.406-.031-.59-.02-1.194-.059-1.781-.094a72.37 72.37 0 0 1-1.75-.125c-.115-.009-.229-.021-.344-.031-.322-.028-.648-.062-.969-.094a80.596 80.596 0 0 1-1.969-.219c-.135-.017-.271-.014-.406-.031-.284-.037-.56-.085-.844-.125-.593-.083-1.191-.156-1.781-.25-.114-.018-.23-.044-.344-.063l-.563-.094c-.862-.147-1.705-.33-2.563-.5-.322-.063-.647-.121-.969-.188-.721-.149-1.438-.306-2.156-.469-.062-.014-.126-.017-.188-.031-.977-.223-1.965-.475-2.938-.719a173.633 173.633 0 0 1-3.094-.813c-1.12-.303-2.259-.585-3.375-.906-.251-.072-.501-.146-.75-.219-.681-.198-1.358-.39-2.031-.594-.553-.165-1.104-.333-1.656-.5-.126-.038-.248-.087-.375-.125-2.919-.884-5.862-1.806-8.781-2.688-.665-.201-1.303-.396-1.969-.594-.502-.149-.998-.323-1.5-.469-.918-.268-1.861-.493-2.781-.75-.459-.128-.916-.25-1.375-.375-.302-.083-.603-.17-.906-.25-.22-.059-.436-.13-.656-.188-.217-.058-.439-.098-.656-.156-.625-.167-1.248-.347-1.875-.5h-.125c-.312-.076-.626-.143-.938-.219-.345-.081-.685-.172-1.031-.25-.187-.044-.375-.082-.563-.125-.5-.116-.997-.239-1.5-.344-.694-.145-1.365-.275-2.063-.406-.139-.026-.298-.068-.438-.094-.558-.103-1.127-.188-1.688-.281-.094-.016-.188-.017-.281-.031a91.087 91.087 0 0 0-1.813-.281 88.063 88.063 0 0 0-3.032-.376c-.144-.015-.293-.017-.438-.031-.261-.022-.521-.039-.781-.063-.68-.061-1.347-.145-2.031-.188-.031-.002-.063.002-.094 0-.098-.006-.215-.025-.313-.031-.533-.031-1.058-.044-1.594-.063a70.59 70.59 0 0 0-2.438-.031c-.821 0-1.623.002-2.438.031h-.125c-.516.018-1.015.032-1.531.063a2.569 2.569 0 0 0-.281.031c-.083.005-.167.025-.25.031-.099.006-.207 0-.313 0-.042.003-.083-.003-.125 0-.365.026-.728.088-1.094.125-.366.032-.729.057-1.094.094-.041.004-.084-.004-.125 0-.813.083-1.63.174-2.438.281-.136.018-.27.044-.406.063-.602.082-1.182.156-1.781.25-.066 0-.122.021-.188.031-.327.052-.667.123-1 .188-.655.112-1.316.218-1.969.344-.344.062-.687.118-1.031.188-.283.057-.562.128-.844.188-.795.167-1.583.348-2.375.531-.239.055-.48.1-.719.156h-.062c-1.304.308-2.579.657-3.875 1-.022.006-.04.025-.063.031a234.446 234.446 0 0 0-7.06 1.969c-.221.066-.435.121-.656.188-.562.168-1.123.356-1.688.531-1.309.398-2.629.786-3.938 1.188-.252.078-.499.173-.75.25-.467.143-.936.293-1.406.438-.803.246-1.634.476-2.438.719-.787.238-1.555.454-2.344.688-1 .296-1.996.59-3 .875-1.274.361-2.596.728-3.875 1.063-.196.051-.367.106-.563.156-1.054.272-2.097.533-3.156.781l-.406.094c-.157.036-.311.058-.469.094a119.06 119.06 0 0 1-3.344.719c-.575.113-1.173.21-1.75.313-.517.092-1.013.197-1.531.281-.163.026-.337.037-.5.063l-.219.031a79.693 79.693 0 0 1-8.75.875c-.985.042-1.976.063-2.969.063-.815 0-1.629-.034-2.438-.063-24.25-.852-45.81-14.05-70.06-14.906a70.558 70.558 0 0 0-2.438-.031c-2.444 0-4.858.105-7.25.344-23.12 2.312-44.06 14.656-67.69 14.656-1.164 0-2.349-.037-3.5-.094-.04-.003-.054.003-.094 0a78.576 78.576 0 0 1-6.313-.594c-.494-.066-1.01-.145-1.5-.219a91.07 91.07 0 0 1-2.281-.375 111.46 111.46 0 0 1-1.531-.281c-.254-.049-.497-.074-.75-.125-.98-.196-1.963-.435-2.938-.656-.927-.21-1.859-.427-2.781-.656-.111-.028-.233-.035-.344-.063-.711-.178-1.416-.375-2.125-.563a162.54 162.54 0 0 1-.938-.25c-.399-.108-.788-.234-1.188-.344-.404-.112-.815-.198-1.219-.313-.566-.159-1.155-.305-1.719-.469-1.365-.397-2.701-.806-4.063-1.219-2.919-.884-5.862-1.806-8.781-2.688-.665-.201-1.303-.396-1.969-.594-.502-.149-.998-.323-1.5-.469-.918-.268-1.861-.493-2.781-.75-.761-.212-1.519-.422-2.281-.625-1.06-.282-2.122-.584-3.188-.844h-.125c-1.343-.326-2.679-.655-4.03-.938-.694-.145-1.365-.275-2.063-.406-.14-.026-.298-.068-.438-.094-.558-.103-1.127-.188-1.688-.281-.546-.091-1.077-.138-1.625-.219-.155-.023-.313-.072-.469-.094-.358-.051-.735-.079-1.094-.125-.649-.084-1.285-.181-1.938-.25-.404-.042-.813-.057-1.219-.094-.04-.003-.084.003-.125 0-.669-.059-1.327-.146-2-.188-.098-.006-.214-.025-.313-.031-.534-.031-1.058-.044-1.594-.063a70.59 70.59 0 0 0-2.438-.031z" fill="#fff"/></g><g fill="#ee0406" font-family="Sans" text-anchor="middle" word-spacing="0" letter-spacing="0"><text x="466.01" y="983.63" transform="rotate(7.82 -54.029 859.754)" font-size="7.545"><tspan x="466.01" y="983.63">Christian Duscha</tspan></text><text x="194.42" y="1116.44" transform="rotate(-14.29 119.482 -457.067)" font-size="12.473"><tspan x="194.42" y="1116.44">Gleiwitz-Essen-Landshut</tspan></text></g><path d="M798.38 10.026c-26.17.053-51.02.198-70.798.478-79.11 1.122-156.7-.214-235.05 0-2.653.007-5.305.036-7.958.043-78.35.214-155.94 1.122-235.05 0-79.11-1.122-239.53 0-239.53 0s4.995 48.18 6.784 72.32c3.067 41.38 4.256 82.87 6.784 124.29 3.405 55.766 7.902 111.49 11.307 167.25 2.529 41.41 3.91 82.9 6.784 124.29 4.346 62.59 5.02 125.75 15.786 187.56 6.02 34.562 14.418 68.979 27.14 101.67 15.355 39.473 33.473 78.71 58.839 112.63 18.288 24.456 41.648 45.04 65.884 63.62 27.747 21.272 57.962 39.816 89.93 53.968 33.818 14.97 69.917 25.08 106.24 32.09 27.334 5.278 55.35 7.255 83.19 7.349 27.662.094 55.55-1.52 82.71-6.741 36.46-7.01 72.54-17.626 106.46-32.746 31.934-14.235 62.23-32.696 89.98-53.968 24.24-18.58 47.595-39.17 65.884-63.62 25.365-33.919 43.484-73.16 58.839-112.63 12.718-32.695 21.12-67.16 27.14-101.72 10.762-61.814 11.44-124.97 15.786-187.56 2.874-41.39 4.256-82.87 6.784-124.29 3.405-55.766 7.902-111.44 11.307-167.21 2.529-41.41 3.717-82.909 6.784-124.29 1.79-24.14 6.784-72.32 6.784-72.32s-90.24-.636-168.73-.478z" fill="none" stroke="#000" stroke-width="20"/><g font-family="Sans" text-anchor="middle" word-spacing="0" letter-spacing="0"><text transform="rotate(-14.29 119.482 -457.067)" y="1118.6" x="198.63" fill="#130406" font-size="6.354"><tspan y="1118.6" x="198.63">Gleiwitz-Essen-Landshut</tspan></text><text transform="rotate(7.82 -54.029 859.754)" y="989.51" x="462.01" fill="#080406" font-size="6.774"><tspan y="989.51" x="462.01">Christian Duscha</tspan></text></g><g transform="translate(1172.13 30.022)"><use xlink:href="#b"/><use xlink:href="#a"/><use xlink:href="#c"/></g><g transform="translate(1325.04 30.022)"><use xlink:href="#b"/><use xlink:href="#a"/><use xlink:href="#c"/></g><g transform="translate(1471.83 30.022)"><use xlink:href="#b"/><use xlink:href="#d"/><use xlink:href="#c"/></g><g transform="translate(1614.75 30.022)"><use xlink:href="#b"/><use xlink:href="#d"/><use xlink:href="#c"/></g><g transform="translate(1020.84 30.022)"><use xlink:href="#b"/><use xlink:href="#d"/><use xlink:href="#c"/></g><g stroke="#000" stroke-linejoin="round" stroke-linecap="round" stroke-width="5"><g fill="none"><path d="M858 585.039s18.738.229 28.01 1.449c9.953 1.31 20 2.899 29.454 6.277 5.287 1.89 6.945 6.453 14.969 7.726M876.2 577.869s16.275.191 24.324 1.207c8.644 1.091 17.11 3.251 25.583 5.231M890.77 569.899s15.29.176 22.852 1.111c8.121 1 16.08 2.991 24.03 4.812"/></g><g fill="#fcdd09"><path d="M461.23 43.439v64a323.686 323.686 0 0 0-72.44 14.5l-24.688-59-50.41 21.09 24.688 59.03a325.559 325.559 0 0 0-59.5 39.969l-45.28-45.28-38.625 38.625 45.28 45.28c-15.882 18.79-29.667 39.38-41 61.47l-59.19-24.281-20.719 50.53 59.16 24.25a323.762 323.762 0 0 0-13.813 70.37h-64v30h775.71v-30h-63.969a323.62 323.62 0 0 0-13.813-70.37l59.12-24.25-20.719-50.53-59.16 24.281c-11.336-22.09-25.14-42.674-41.03-61.47l45.28-45.28-38.625-38.625-45.28 45.28c-18.232-15.411-38.16-28.861-59.5-40l24.688-59-50.41-21.09-24.688 59a323.63 323.63 0 0 0-72.44-14.5v-64h-54.656zm0 125.75v164.84a100.13 100.13 0 0 0-22.12 9.188l-116.56-116.53c38.669-31.412 86.41-52.11 138.69-57.5zm54.656 0c52.28 5.384 100.04 26.06 138.72 57.47l-116.56 116.53c-6.919-3.895-14.349-6.968-22.16-9.156v-164.84zm177.34 96.09c31.424 38.677 52.11 86.43 57.5 138.72h-164.91a100.531 100.531 0 0 0-9.156-22.16l116.56-116.56zm-409.31.031 116.53 116.53A100.276 100.276 0 0 0 391.29 404H226.45c5.384-52.28 26.07-100.02 57.47-138.69zM634.883 758.227l27.807 37.892-292.92 214.956-27.807-37.891zM638.395 640.618l137.542 187.427-57.354 42.089-137.542-187.428z"/><g transform="scale(-1 1) rotate(53.727 -73.406 -107.333)"><path d="M465.37 621.49h47v363.33h-47z"/><rect width="232.48" height="71.14" x="372.63" y="549.07" rx="35.571" ry="35.57"/></g></g></g></svg>