<svg xmlns="http://www.w3.org/2000/svg" version="1.0" width="497.339" height="533.489"><defs><path d="M-225 6c9 71 15 194 18 294 7 110 99 193 207 193s200-83 207-193c3-100 9-223 18-294h-450z" id="a"/></defs><path d="M484.108 6.438H10.865l.258 5.028C13.206 52.6 23.83 260.424 28.305 312.493c4.718 54.886 29.487 106.726 69.743 145.965 41.602 40.562 95.567 62.9 151.952 62.9 56.392 0 110.356-22.338 151.952-62.9 40.257-39.239 65.022-91.075 69.734-145.968 4.338-50.44 14.263-243.158 17.2-301.024l.256-5.028h-5.034z" style="fill:none;stroke:#fff;stroke-width:3.19013;stroke-linecap:butt;stroke-linejoin:miter;stroke-miterlimit:4;stroke-dasharray:none;stroke-opacity:1"/><path d="M3.91.5s12.636 252.272 17.705 311.248c4.814 56.028 30.09 108.94 71.169 148.986 42.505 41.44 97.653 64.255 155.292 64.255 57.636 0 112.794-22.816 155.293-64.255 41.079-40.046 66.351-92.958 71.162-148.986C479.603 252.772 492.249.5 492.249.5H3.91z" style="fill:#fff;stroke:none;stroke-width:9;stroke-linecap:butt;stroke-linejoin:miter;stroke-miterlimit:4;stroke-dasharray:none;stroke-opacity:1"/><path d="M4.56 4.238s4.679 109.184 9.997 202.22h467.071c5.36-93.441 11.27-202.22 11.27-202.22H4.559" style="fill:#231f20;fill-opacity:1;fill-rule:nonzero;stroke:none"/><path d="M482.833 9.023H9.59l.258 5.028c2.083 41.133 12.707 248.957 17.182 301.027 4.719 54.886 29.487 106.726 69.743 145.964 41.602 40.563 95.567 62.9 151.952 62.9 56.392 0 110.356-22.337 151.953-62.9 40.256-39.238 65.02-91.075 69.733-145.967 4.338-50.44 14.263-243.159 17.2-301.024l.256-5.028h-5.034z" style="fill:none;stroke:#fff;stroke-width:3.19013;stroke-linecap:butt;stroke-linejoin:miter;stroke-miterlimit:4;stroke-dasharray:none;stroke-opacity:1"/><path d="M4.546 1.085s12.636 252.272 17.705 311.248c4.814 56.028 30.09 108.94 71.169 148.985 42.505 41.44 97.653 64.256 155.292 64.256 57.636 0 112.794-22.816 155.293-64.256 41.079-40.045 66.351-92.957 71.162-148.985 5.072-58.976 17.718-311.248 17.718-311.248H4.546z" style="fill:none;stroke:none;stroke-width:9;stroke-linecap:butt;stroke-linejoin:miter;stroke-miterlimit:4;stroke-dasharray:none;stroke-opacity:1"/><g style="fill:#0067a9;fill-opacity:1;stroke:none"><g style="fill:#0067a9;fill-opacity:1"><path d="m405.836 325.728 40.007-85.537 31.495 10.556-6.44 75.208-65.062-.227zM343.823 461.606l29.339-64.87c22.698 1.2 50.776-1.79 73.42.583-11.273 22.114-26.942 43.13-44.104 63.77-16.622-1.204-42.112 2.925-58.655.517zM288.583 396.276l33.14-71.16 82.313 1.617-31.184 69.884-84.269-.34zM228.838 524.578l28.137-61.702c25.607 1.07 57.649-2.144 83.212.122l-23.25 50.45c-29.367 9.972-58.733 16.446-88.099 11.13zM204.36 396.634l83.516.64-31.223 66.037-82.445-2.221 30.152-64.456zM115.352 395.383l31.242-70.316c28.544 1.005 70.36 1.25 88.31 2.751l-30.839 68.696c-17.319-2.881-76.171 4.887-88.713-1.13zM236.873 324.149l38.744-82.616c17.23 2.157 71.306 5.935 78.895 8.085l-33.075 75.754-84.564-1.223z" style="opacity:1;fill:#0067a9;fill-opacity:1;fill-rule:nonzero;stroke:none;stroke-width:4.52301741;stroke-linecap:round;stroke-linejoin:round;stroke-miterlimit:4;stroke-dasharray:none;stroke-opacity:1" transform="translate(2.69 1.152)"/><path d="m64.448 325.728 38.604-86.092 78.639 11.11-34.843 75.867-82.4-.885zM24.148 327.13l36.086-1.055c-6.964 12.641-15.258 38.347-23.2 50.458-4.626-12.492-12.282-36.048-12.886-49.402zM44.923 397.745l68.799-1.111c-7.747 15.864-18.225 48.012-26.31 63.713l-42.489-62.602zM93.383 463.987c21.126.43 57.665-1.76 78.78-.727.426.425-19.376 46.837-19.443 44.06l-59.337-43.333z" style="opacity:1;fill:#0067a9;fill-opacity:1;fill-rule:nonzero;stroke:none;stroke-width:4.52301741;stroke-linecap:round;stroke-linejoin:round;stroke-miterlimit:4;stroke-dasharray:none;stroke-opacity:1" transform="translate(2.69 1.152)"/></g></g><path d="M276.853 247.652 157.868 504.937M359.73 251.815 231.997 526.893M444.917 248.868 322.358 513.88M214.36 191.732 87.801 460.745M129.418 191.732 39.24 382.079M26.094 327.886H472.22M46.884 398.394h406.548M91.923 464.04h311.756" style="fill:none;fill-rule:evenodd;stroke:#231f20;stroke-width:5.29524803;stroke-linecap:butt;stroke-linejoin:miter;stroke-miterlimit:4;stroke-dasharray:none;stroke-opacity:1"/><path d="M479.573 256.058c-28.065-2.28-32.58-11.359-68.53-11.358-41.07-.004-41.068 11.872-82.136 11.87-41.197-.001-41.194-11.874-82.39-11.874-41.08.003-41.08 11.874-82.158 11.88-41.22-.004-32.773-.41-70.087-12.894-11.902-3.983-36.524-2.478-73.045 6.953.867.033-5.519-68.417-5.108-68.444 30.492-1.835 32.556-10.836 69.702-10.835 41.257 0 41.26 11.873 82.517 11.877 41.174-.004 41.174-11.879 82.348-11.878 41.179.003 41.176 11.872 82.353 11.878 41.275-.006 41.283-11.878 82.566-11.882 36.173.003 40.512 9.2 69.055 11.405.996-.236-4.69 74.093-5.087 73.302z" style="fill:#fff;fill-opacity:1;stroke:#231f20;stroke-width:4;stroke-linecap:butt;stroke-linejoin:miter;stroke-miterlimit:6;stroke-dasharray:none;stroke-opacity:1"/><path d="M197.18 239.614c4.411-1.468 8.901-2.8 13.462-3.832 26.623-6 57.42-4.972 82.389 2.765m-70.909-17.916c13.602-3.282 33.468-3.261 45.503-.496m95.648 19.48c4.409-1.469 8.902-2.803 13.463-3.835 26.625-5.998 57.42-4.973 82.388 2.769m-70.906-19.351c13.6-3.285 33.468-3.266 45.503-.497M28.272 236.502c4.412-1.467 8.902-2.8 13.463-3.832 26.623-6 57.42-4.972 82.389 2.766m-70.91-16.482c13.603-3.283 33.47-3.262 45.504-.497" style="fill:none;stroke:#231f20;stroke-width:3.19800782;stroke-linecap:round;stroke-linejoin:miter;stroke-miterlimit:6;stroke-dasharray:none;stroke-opacity:1"/><path d="M375.37 227.603c19.822-4.785 48.769-4.755 66.296-.726M211.778 228.776c19.823-4.785 48.77-4.756 66.297-.727M43.123 226.405c19.822-4.785 48.769-4.756 66.296-.727" style="fill:none;stroke:#231f20;stroke-width:3.19799399;stroke-linecap:round;stroke-linejoin:miter;stroke-miterlimit:6;stroke-dasharray:none;stroke-opacity:1"/><path d="M247.979 173.385c-.492 0-13.96-46.763-14.385-47.01-.426-.245-47.658 11.473-47.903 11.048-.246-.426 33.518-35.47 33.518-35.962 0-.492-33.764-35.537-33.518-35.962.245-.426 47.477 11.292 47.903 11.046.426-.245 13.893-47.008 14.385-47.008.491 0 13.959 46.763 14.384 47.008.426.246 47.658-11.472 47.904-11.046.245.425-33.519 35.47-33.519 35.962 0 .491 33.764 35.536 33.519 35.962-.246.425-47.478-11.293-47.904-11.047-.425.246-13.893 47.009-14.384 47.009z" style="opacity:1;fill:#fd0;fill-opacity:1;fill-rule:nonzero;stroke:#fd0;stroke-width:4;stroke-linecap:butt;stroke-linejoin:miter;stroke-miterlimit:6;stroke-dasharray:none;stroke-opacity:1"/><path d="M307.3 102.266H174.29M282.37 44.385l-68.022 114.303M213.938 43.564l68.021 114.303" style="fill:none;fill-rule:evenodd;stroke:#231f20;stroke-width:3;stroke-linecap:butt;stroke-linejoin:miter;stroke-miterlimit:4;stroke-dasharray:none;stroke-opacity:1"/><path d="M246.225 138.153c-.252 0-7.135-23.9-7.352-24.025-.218-.126-24.356 5.863-24.482 5.645-.126-.217 17.13-18.127 17.13-18.379 0-.251-17.256-18.161-17.13-18.379.126-.217 24.264 5.771 24.482 5.646.217-.126 7.1-24.025 7.352-24.025.25 0 7.134 23.9 7.351 24.025.218.125 24.357-5.863 24.482-5.646.126.218-17.13 18.128-17.13 18.38 0 .25 17.256 18.16 17.13 18.378-.125.218-24.264-5.77-24.482-5.645-.217.125-7.1 24.025-7.351 24.025z" style="opacity:1;fill:#fd0;fill-opacity:1;fill-rule:nonzero;stroke:#231f20;stroke-width:3;stroke-linecap:butt;stroke-linejoin:miter;stroke-miterlimit:6;stroke-dasharray:none;stroke-opacity:1"/><path d="M4.5 4.5s12.636 252.272 17.705 311.248c4.814 56.029 30.09 108.94 71.169 148.986 42.505 41.44 97.653 64.255 155.292 64.255 57.636 0 112.794-22.816 155.293-64.255 41.079-40.046 66.351-92.957 71.162-148.986C480.193 256.772 492.839 4.5 492.839 4.5H4.5z" style="fill:none;stroke:#231f20;stroke-width:9;stroke-linecap:butt;stroke-linejoin:miter;stroke-miterlimit:4;stroke-dasharray:none;stroke-opacity:1"/></svg>