<svg xmlns="http://www.w3.org/2000/svg" width="558.43" height="615.119" xml:space="preserve"><path fill="#0071BC" d="m7.453 7.108 17.886 372.67C38.963 509.907 148.09 608.021 279.215 608.021c77.755 0 147.782-35.068 194.777-91.204L7.453 7.108z"/><path fill="#FFF" stroke="#000" stroke-width="3" stroke-miterlimit="10" d="M473.992 516.816c32.314-38.601 53.738-87.162 59.295-141.134L550.976 7.099 7.453 7.108l466.539 509.708z"/><path fill="red" stroke="#000" stroke-width="3" stroke-miterlimit="10" d="m468.825 302.227-189.61 259.61-189.61-259.61 189.61-259.61z"/><path d="M279.215 615.118c-65.281 0-127.846-24.113-176.17-67.896C55.061 503.75 24.952 444.51 18.264 380.416l-.015-.199L.003.01 558.427 0l-18.063 376.312c-6.76 65.862-36.925 126.372-84.938 170.391-48.133 44.118-110.712 68.415-176.211 68.415zM25.339 379.778C38.963 509.907 148.09 608.021 279.215 608.021c131.222 0 240.434-99.877 254.072-232.338L550.976 7.099 7.453 7.108l17.886 372.67z"/></svg>