<svg xmlns="http://www.w3.org/2000/svg" xmlns:xlink="http://www.w3.org/1999/xlink" viewBox="0 0 707.78 772.55"><defs><path id="a" d="M1340.47 608.61c0 .933-.722 1.69-1.613 1.69s-1.613-.757-1.613-1.69c0-.933.722-1.69 1.613-1.69s1.613.757 1.613 1.69z" stroke-linejoin="round" stroke-width="5.871" stroke="#fff" fill="#fff" stroke-linecap="round"/></defs><path d="m10.816 8.97 685.21 2.679-13.396 255.87-10.05 170.8-18.08 111.19-30.14 72.34-46.22 57.6-77.03 52.24-83.73 27.462-81.72 4.02-79.04-16.745L195 721.643l-59.61-40.19-45.547-51.575-30.14-79.04-21.434-101.14-6.698-115.21-12.06-212.33z" style="fill:#fff;stroke:#000"/><path d="M179.62 264.75c-19.11 21.517-33.15 45.785-42.21 71.35-3.207-.009-7.934.086-10.874.666-6.312 1.246-12.588 3.342-18.16 6.556-7.659 4.417-14.527 10.362-20.282 17.07-2.423 2.826-4.311 6.127-5.781 9.547-1.343 3.126-2.305 6.461-2.689 9.841-.288 2.536-.579 5.271.312 7.662.732 1.967 1.806 4.782 3.901 4.919 4.351.285 5.939-6.49 9.459-9.06 2.478-1.812 5.137-3.51 8.08-4.385 2.447-.728 5.108-.909 7.645-.621 2.792.317 5.465 1.423 8.04 2.544 2.651 1.154 5.104 2.716 7.539 4.276.449.288 1 .667 1.564 1.065a217.593 217.593 0 0 0 4.428 71.08c-2.676 1.573-5.977 3.631-7.917 5.327-4.844 4.235-9.224 9.168-12.444 14.739-4.424 7.655-7.375 16.26-9 24.951-.686 3.659-.707 7.472-.269 11.169.4 3.378 1.266 6.739 2.624 9.858 1.019 2.34 2.086 4.856 4.053 6.482 1.618 1.337 3.997 3.216 5.88 2.287 3.911-1.929 1.861-8.582 3.622-12.571 1.241-2.808 2.725-5.606 4.835-7.835 1.755-1.854 3.948-3.333 6.289-4.352 2.576-1.121 5.429-1.509 8.221-1.825 2.873-.326 5.782-.214 8.671-.08.77.036 1.8.117 2.823.221 8.261 16.466 18.77 32.04 31.434 46.31-1.598 2.772-3.699 6.629-4.62 9.328-2.077 6.089-3.42 12.566-3.423 19-.004 8.842 1.736 17.782 4.671 26.12 1.236 3.512 3.137 6.813 5.364 9.796 2.035 2.726 4.457 5.216 7.193 7.239 2.052 1.517 4.231 3.143 6.747 3.567 2.07.349 5.089.803 6.255-.942 2.423-3.625-2.666-8.372-3.135-12.707-.33-3.052-.49-6.211.223-9.197.593-2.483 1.775-4.856 3.293-6.909 1.67-2.259 3.977-4.03 6.236-5.699 2.325-1.719 4.891-3.067 7.459-4.395.583-.301 1.323-.687 2.111-1.046 16.585 11.58 34.34 20.584 52.785 26.966-.006 3.208.084 7.832.659 10.741 1.246 6.312 3.342 12.588 6.556 18.16 4.417 7.659 10.362 14.527 17.07 20.282 2.826 2.423 6.129 4.355 9.55 5.825 3.126 1.343 6.482 2.282 9.862 2.665 2.536.288 5.25.602 7.641-.288 1.967-.733 4.779-1.85 4.917-3.945.285-4.351-6.488-5.895-9.06-9.415-1.812-2.478-3.512-5.181-4.387-8.123-.728-2.447-.93-5.085-.642-7.622.317-2.791 1.446-5.444 2.568-8.02 1.154-2.651 2.693-5.125 4.253-7.56.331-.516.784-1.162 1.25-1.817 21.63 2.059 43.46.881 64.737-3.525 1.6 2.78 3.98 6.692 5.913 8.902 4.235 4.844 9.168 9.224 14.739 12.444 7.655 4.424 16.263 7.42 24.953 9.05 3.659.686 7.469.663 11.166.225 3.378-.4 6.742-1.221 9.861-2.58 2.34-1.019 4.854-2.13 6.48-4.097 1.337-1.618 3.216-3.997 2.287-5.88-1.928-3.911-8.582-1.861-12.571-3.622-2.808-1.24-5.627-2.701-7.856-4.812-1.854-1.755-3.313-3.971-4.331-6.312-1.121-2.576-1.509-5.429-1.825-8.221-.326-2.873-.213-5.782-.08-8.671.037-.788.155-1.823.262-2.869 24.921-11.848 47.964-28.68 67.6-50.42l-29.08-26.04c-65.47 72.37-177.17 78.32-249.95 13.14-72.78-65.18-79.18-176.88-14.441-249.9l-29.05-26.02z" style="stroke:#000;stroke-width:5;stroke-linecap:round;stroke-linejoin:round"/><path style="fill:none;stroke:#fff;stroke-width:5;stroke-linecap:round;stroke-linejoin:round" d="M187.47 271.77c-75.24 84.75-67.895 214.47 16.615 290.15 84.51 75.68 214.25 68.72 290.21-15.38l-306.83-274.77z"/><path style="stroke:#000;stroke-width:5;stroke-linecap:round;stroke-linejoin:round" d="m293.18 366.44-24.83-5.204-11.06 52.595 22.08 4.625a63.014 63.014 0 0 0 4.14 14.489l-16.532 18.461 40.04 35.857 16.532-18.461a63.035 63.035 0 0 0 14.856 2.523l7.02 21.434 51.06-16.779-7.902-24.11-24.421-21.869c-11.603 12.243-30.897 13.11-43.543 1.781-12.647-11.325-13.91-30.596-3.02-43.475l-24.421-21.869z"/><rect style="stroke:#fff;stroke-width:5;stroke-linecap:round;stroke-linejoin:round" width="31.19" height="108.93" x="511.299" y="155.786" rx="10.08" transform="rotate(41.844)"/><rect style="stroke:#fff;stroke-width:5.0000124;stroke-linecap:round;stroke-linejoin:round" width="31.19" height="108.93" x="310.288" y="-340.356" rx="10.08" transform="rotate(101.845)"/><rect style="stroke:#fff;stroke-width:4.99998379;stroke-linecap:round;stroke-linejoin:round" width="31.19" height="108.93" x="-216.612" y="572.249" rx="10.08" transform="scale(-1 1) rotate(18.156)"/><path d="M300.98 373.42c-19.1 22.06-17.07 55.44 4.753 74.982 21.825 19.544 55.22 17.895 75.05-3.518l-79.8-71.46z" style="fill:none;stroke:#fff;stroke-width:5;stroke-linecap:round;stroke-linejoin:round"/><path d="m147.99 475.58 24.852-9.1" style="fill:#fff;stroke:#fff;stroke-width:5;stroke-linecap:round"/><use height="100%" width="100%" xlink:href="#a" transform="matrix(.60879 .54517 -.59205 .66113 -287.91 -649.05)"/><use height="100%" width="100%" xlink:href="#a" transform="matrix(.60879 .54517 -.59205 .66113 -298.33 -674.46)"/><path style="fill:#fff;stroke:#fff;stroke-width:5;stroke-linecap:round" d="m294.76 607.97 6.309-25.701"/><use height="100%" width="100%" xlink:href="#a" transform="matrix(-.60879 -.54517 -.59205 .66113 1460.49 917.6)"/><use height="100%" width="100%" xlink:href="#a" transform="matrix(-.60879 -.54517 -.59205 .66113 1486.89 925.16)"/><path style="opacity:1;fill:#da121a;fill-opacity:1;fill-rule:evenodd;stroke:#000;stroke-width:7.99999905;stroke-linecap:round;stroke-linejoin:round;stroke-miterlimit:4;stroke-dasharray:none;stroke-opacity:1;paint-order:fill markers stroke" d="M8.248 11.686a1228.635 1228.635 0 0 1 4.871 51.964c1.753 24.206 2.801 48.464 4.016 72.711l585.2 511.979c17.676-23.432 30.261-50.401 40.1-78.076a464.36 464.36 0 0 0 18.352-67.123L99.047 11.686H8.248z"/><path style="fill:#fcdd09;stroke:#000;stroke-width:5;stroke-linecap:round;stroke-linejoin:round;stroke-miterlimit:4;stroke-dasharray:none;stroke-opacity:1;fill-opacity:.96078432" d="M107.32 117.094a143.844 143.844 0 0 0 15.844 37.925c14.504 24.235 35.75 43.59 56.925 62.28 66.092 58.338 134.584 113.915 204.22 167.973a6140.563 6140.563 0 0 0 72.637 55.528l8.834-10.097 8.835-10.099a6141.85 6141.85 0 0 0-64.687-64.615c-62.833-61.835-127.017-122.334-193.62-180.088-21.338-18.504-43.345-36.99-69.292-48.145a143.85 143.85 0 0 0-39.696-10.662z"/><path style="fill:#000;stroke:#000;stroke-width:1px;stroke-linecap:butt;stroke-linejoin:miter;stroke-opacity:1" d="M146.837 151.664s184.475 160.215 273.865 243.45c9.98 9.418 21.892 19.525 25.38 32.063 1.524 5.84 1.328 12.269-.512 18.099l15.985-18.272 15.984-18.27c-5.533 2.599-11.88 3.647-17.87 2.913-14.238-2.762-25.114-12.602-35.15-20.894-94.376-77.539-277.682-239.09-277.682-239.09z"/><path style="fill:#fcd609;stroke:#000;stroke-width:5;stroke-linecap:round;stroke-linejoin:round;stroke-miterlimit:4;stroke-dasharray:none;stroke-opacity:1;fill-opacity:1" d="M448.822 446.39a318.922 318.922 0 0 1 31.944 21.27c12.221 9.245 23.766 19.364 34.816 29.981a503.476 503.476 0 0 1 22.388 22.927l13.236-15.13 13.236-15.128a503.402 503.402 0 0 1-25.698-19.143c-11.991-9.541-23.555-19.639-34.343-30.523a318.923 318.923 0 0 1-25.326-28.834L463.95 429.1z"/><circle style="opacity:1;fill:#fcdd09;fill-opacity:.96078432;fill-rule:evenodd;stroke:#000;stroke-width:5;stroke-linecap:round;stroke-linejoin:round;stroke-miterlimit:4;stroke-dasharray:none;stroke-opacity:1;paint-order:fill markers stroke" cx="-17.461" cy="753.72" r="20.5" transform="rotate(-48.818)"/><circle style="opacity:1;fill:#000;fill-opacity:1;fill-rule:evenodd;stroke:none;stroke-width:5;stroke-linecap:round;stroke-linejoin:round;stroke-miterlimit:4;stroke-dasharray:none;stroke-opacity:1;paint-order:fill markers stroke" cx="-17.461" cy="753.72" r="9.193" transform="rotate(-48.818)"/><path style="fill:#fcdd09;stroke:#000;stroke-width:5;stroke-linecap:round;stroke-linejoin:round;stroke-miterlimit:4;stroke-dasharray:none;stroke-opacity:1;fill-opacity:.96078432" d="M404.717 453.191s6.662 4.714 10.658 5.51c9.816 1.955 21.232 2.66 30.734-2.202 19.507-9.98 36.662-29.588 43.961-50.248 3.556-10.065 1.342-21.286-1.9-30.756-1.32-3.854-6.877-9.831-6.877-9.831s-4.391 19.69-9.432 28.471c-10.08 17.563-24.11 33.6-40.178 45.925-8.034 6.162-26.966 13.131-26.966 13.131z"/><path style="opacity:1;fill:#000;fill-opacity:1;fill-rule:evenodd;stroke:none;stroke-width:.99999994;stroke-linecap:round;stroke-linejoin:round;stroke-miterlimit:4;stroke-dasharray:none;stroke-opacity:1;paint-order:fill markers stroke" d="M474.263 450.414a1.826 1.826 0 0 0 .172 2.582c.763.668 1.915.591 2.582-.172l7.395-8.452a1.826 1.826 0 0 0-.172-2.583 1.826 1.826 0 0 0-2.583.173zm5.64 4.934a1.826 1.826 0 0 0 .172 2.583c.763.667 1.915.59 2.582-.172l7.395-8.453a1.826 1.826 0 0 0-.172-2.582 1.826 1.826 0 0 0-2.582.172zm7.245 3.098a1.826 1.826 0 0 0 .172 2.582c.763.668 1.915.59 2.583-.172l5.788-6.617a1.826 1.826 0 0 0-.172-2.582 1.826 1.826 0 0 0-2.583.172zm5.639 4.933a1.826 1.826 0 0 0 .172 2.582c.763.668 1.915.591 2.582-.172l5.789-6.616a1.826 1.826 0 0 0-.173-2.583 1.826 1.826 0 0 0-2.582.173zm5.64 4.935a1.826 1.826 0 0 0 .172 2.582c.763.667 1.915.59 2.583-.172l5.788-6.617a1.826 1.826 0 0 0-.172-2.582 1.826 1.826 0 0 0-2.583.172zm5.639 4.933a1.826 1.826 0 0 0 .172 2.582c.763.668 1.915.59 2.582-.172l5.789-6.616a1.826 1.826 0 0 0-.172-2.583 1.826 1.826 0 0 0-2.583.172zm5.638 4.933a1.826 1.826 0 0 0 .173 2.582c.763.668 1.915.591 2.582-.172l5.789-6.616a1.826 1.826 0 0 0-.173-2.583 1.826 1.826 0 0 0-2.582.173zm6.644 3.785a1.826 1.826 0 0 0 .172 2.583c.763.667 1.915.59 2.582-.173l4.784-5.468a1.826 1.826 0 0 0-.172-2.582 1.826 1.826 0 0 0-2.582.172zm5.64 4.935a1.826 1.826 0 0 0 .172 2.582c.763.668 1.915.59 2.583-.172l4.784-5.468a1.826 1.826 0 0 0-.173-2.583 1.826 1.826 0 0 0-2.582.173zm5.639 4.933a1.826 1.826 0 0 0 .172 2.582c.763.668 1.915.591 2.582-.172l4.784-5.468a1.826 1.826 0 0 0-.172-2.583 1.826 1.826 0 0 0-2.582.173z"/><path style="fill:none;stroke:#000;stroke-width:20" d="M350.76 10.01v.037H10.002a1228.636 1228.636 0 0 1 4.871 51.965c2.153 29.73 3.224 59.54 4.873 89.31 2.22 40.09 5.49 80.11 8.12 120.17 1.953 29.75 3.553 59.524 4.87 89.31 1.993 45.08 3.358 90.37 11.368 134.78 4.477 24.84 11.032 49.301 19.488 73.08 10.24 28.802 23.43 56.862 42.27 80.932 13.564 17.329 29.878 32.37 47.359 45.732 20.005 15.292 41.651 28.489 64.64 38.764 24.321 10.872 50.08 18.438 76.32 23.049a357.938 357.938 0 0 0 58.05 5.36v.01c.466.007.933-.002 1.4.003.816.005 1.633.027 2.45.027v-.021a327.34 327.34 0 0 0 57.32-4.922c26.351-4.636 52.139-12.525 76.519-23.543 22.944-10.37 44.622-23.495 64.64-38.764 17.497-13.345 33.8-28.4 47.36-45.732 18.83-24.08 32.03-52.13 42.27-80.932 8.457-23.778 15.01-48.24 19.488-73.08 8.01-44.41 9.374-89.7 11.367-134.78 1.317-29.786 2.917-59.56 4.871-89.31 2.63-40.06 5.9-80.08 8.12-120.17 1.648-29.77 2.717-59.58 4.87-89.31a1228.645 1228.645 0 0 1 4.873-51.965H350.76z"/><path style="fill:#000;stroke:none;stroke-width:.5;stroke-linecap:butt;stroke-linejoin:miter;stroke-miterlimit:4;stroke-dasharray:none;stroke-opacity:1" d="M553.877 82.401a49.201 49.201 0 0 0-4.929-3.865c-3.752-2.566-7.86-4.572-11.671-7.05-3.658-2.377-7.045-5.19-10.916-7.204-4.963-2.582-10.566-3.756-16.151-4.089-5.585-.333-11.186.146-16.752.714-4.946.505-9.949 1.079-14.867.356a28.549 28.549 0 0 1-7.69-2.27c.456-.502.83-1.08 1.1-1.702.33-.766.504-1.6.508-2.434a8.377 8.377 0 0 1-4.121.468c-1.782-.249-3.425-1.064-5.123-1.66a21.56 21.56 0 0 0-4.43-1.043 56.376 56.376 0 0 0-3.036 7.609c-.642 2.024-1.197 4.141-2.488 5.828-.194.253-.407.498-.675.67a1.358 1.358 0 0 1-.437.186c-.156.036-.32.04-.475.003a1.036 1.036 0 0 1-.545-.345 1.317 1.317 0 0 1-.274-.588c-.089-.438.018-.889.137-1.319.978-3.51 2.801-6.715 4.199-10.08.824-1.985 1.506-4.046 1.764-6.18.258-2.134.076-4.35-.771-6.326-.873-2.037-2.43-3.745-4.287-4.954-1.857-1.21-4.004-1.934-6.193-2.277-4.21-.659-8.605.091-12.44 1.95a22.873 22.873 0 0 0-8.118 6.602 182.914 182.914 0 0 0-25.168-.887 42.693 42.693 0 0 1-5.523 4.373c-2.35 1.563-4.863 2.894-7.523 3.837-6.751 2.393-14.096 2.186-21.232 2.808-6.818.594-13.65 1.97-20.454 1.23-1.713-.186-3.478-.503-5.132-.02-.47.138-.927.342-1.305.654-.377.311-.672.739-.767 1.219-.084.42-.013.86.143 1.257.156.398.396.757.654 1.097.563.74 1.23 1.4 1.975 1.956a153.49 153.49 0 0 0-.11 3.611c-.062 3.289-.008 6.641 1.024 9.765.562 1.702 1.415 3.317 2.581 4.678 1.166 1.362 2.65 2.463 4.327 3.095a9.655 9.655 0 0 0 2.768.597 233.442 233.442 0 0 1 3.604-3.6 6.314 6.314 0 0 0 2.695 4.86c.674.462 1.441.789 2.242.956a5.998 5.998 0 0 1 .584-2.982c.272-.561.636-1.084 1.112-1.487.485-.41 1.071-.686 1.573-1.077.407-.317.756-.71 1.022-1.153a25.9 25.9 0 0 0 1.667 2.3c.976 1.203 2.07 2.326 3.359 3.184a10.972 10.972 0 0 0 3.919 1.62 10.644 10.644 0 0 1-.467-4.122 8.548 8.548 0 0 1 5.839.85c1.301.713 2.406 1.768 3.22 3.009.813 1.24 1.336 2.663 1.576 4.128.383 2.342.028 4.8-1.002 6.939a5.036 5.036 0 0 1-3.302-.456c-1.422-.736-2.42-2.134-2.95-3.645a8.786 8.786 0 0 1-.198-5.12 5.697 5.697 0 0 0-2.954 1.707c-.526.575-.928 1.251-1.304 1.934-.368.666-.72 1.354-1.233 1.917a3.39 3.39 0 0 1-.885.71c-.335.181-.71.293-1.09.297a2.235 2.235 0 0 1-1.17-.33 2.699 2.699 0 0 1-.868-.858c-.464-.724-.596-1.63-.477-2.482a4.714 4.714 0 0 1 1.366-2.704 10.556 10.556 0 0 0-3.034.401 10.17 10.17 0 0 0-4.016 2.208c-.39.352-.754.736-1.18 1.045-.425.308-.929.54-1.454.533a1.95 1.95 0 0 1-.867-.229 2.54 2.54 0 0 1-.704-.56c-.402-.45-.66-1.01-.865-1.577a11.097 11.097 0 0 1-.657-3.673 6.329 6.329 0 0 0-2.632 3.435c-.38 1.224-.378 2.53-.399 3.812-.021 1.282-.077 2.595-.564 3.781-.343.834-.885 1.568-1.388 2.317-.503.748-.98 1.54-1.166 2.422-.182.861-.076 1.753.007 2.63.084.876.142 1.78-.128 2.618-.296.915-.962 1.676-1.264 2.589a3.542 3.542 0 0 0 .028 2.29 6.862 6.862 0 0 0 3.758-.993c.56-.342 1.066-.763 1.607-1.133.541-.371 1.13-.697 1.775-.816.747-.137 1.515.014 2.256.184.741.17 1.49.363 2.25.31.677-.047 1.325-.29 1.995-.4.335-.054.68-.075 1.016-.023.335.052.663.183.92.405.29.253.471.606.62.96.15.355.275.725.482 1.05.103.16.226.308.38.42a.89.89 0 0 0 .53.179.873.873 0 0 0 .388-.105c.12-.063.228-.147.325-.241.195-.187.352-.411.541-.604.181-.184.395-.345.51-.576a.836.836 0 0 0 .078-.514.84.84 0 0 0-.245-.46 46.2 46.2 0 0 1 5.353 1.862 5.488 5.488 0 0 0 2.478 4.875c.401-.017.793-.2 1.061-.5.252-.282.39-.648.486-1.013.077-.29.13-.585.164-.883 1.963.904 3.945 1.767 5.943 2.59 3.367 1.387 6.797 2.66 10.36 3.415 2.811.596 5.692.865 8.565.797a24.154 24.154 0 0 0 3.937 5.549c1.354 1.43 2.877 2.687 4.312 4.036 1.434 1.35 2.797 2.812 3.739 4.541a11.675 11.675 0 0 1 1.415 5.376c.043 2.766-.915 5.468-2.255 7.888a25.784 25.784 0 0 1-3.014 4.33 8.5 8.5 0 0 0 5.747-.673c.427.686.732 1.449.898 2.24.307 1.457.133 2.996-.391 4.39-.327.87-.784 1.686-1.193 2.52-.41.836-.776 1.706-.9 2.628a5.296 5.296 0 0 0 .877 3.66 13.012 13.012 0 0 1 5.995-5.602 3.636 3.636 0 0 1 1.565 2.418c.132.81-.019 1.645-.291 2.42-.801 2.277-2.593 4.062-3.665 6.225a10.776 10.776 0 0 0-1.007 3.229 7.087 7.087 0 0 0 3.777 1.083 7.074 7.074 0 0 0 2.164-.35c-2.548 4.276-3.008 9.734-1.21 14.376 1.073 2.77 2.962 5.286 5.539 6.765 1.005.578 2.104.991 3.24 1.223 3.48-3.57 6.865-7.232 10.149-10.983 2.942-3.36 5.842-6.853 7.64-10.942.242-.55.463-1.11.663-1.678a6.12 6.12 0 0 0-3.316-.673 59.692 59.692 0 0 1-.158-6.07c.112-4.448.763-9.005 2.948-12.88.89-1.576 2.014-3.007 3.233-4.344a38.264 38.264 0 0 1 2.057-2.089 3.379 3.379 0 0 1-1.794-.334 3.386 3.386 0 0 1-1.356-1.223 3.78 3.78 0 0 1-.557-1.878 4.942 4.942 0 0 1 .345-1.938c.475-1.233 1.354-2.267 2.302-3.188 1.57-1.526 3.36-2.804 5.101-4.13 2.148-1.634 4.238-3.354 6.126-5.281 1.74-1.778 3.342-3.759 5.483-5.026 2.08-1.231 4.517-1.697 6.717-2.696 2.635-1.197 4.877-3.139 6.777-5.322 1.385-1.591 2.605-3.32 3.962-4.934 1.52-1.81 3.209-3.474 4.703-5.306a32.706 32.706 0 0 0 4.382-7.033 34.604 34.604 0 0 1-4.988 13.293c-3.352 5.277-8.07 9.538-12.95 13.446-5.607 4.492-11.503 8.609-17.236 12.94a286.5 286.5 0 0 0-5.947 4.615 8.46 8.46 0 0 1 4.28 2.145 16.086 16.086 0 0 0-5.472 5.242c-2.268 3.556-3.041 7.838-3.645 12.012a217.409 217.409 0 0 0-.963 7.592 2.714 2.714 0 0 1 1.24-1.166 2.72 2.72 0 0 1 1.958-.118 19.377 19.377 0 0 1-.417 3.956c-.738 3.5-2.431 6.727-4.325 9.761-3.707 5.941-8.454 11.506-14.76 14.552-1.465.707-3 1.27-4.574 1.68a53.028 53.028 0 0 1-5.03 8.927c-2.22 3.177-4.92 6.207-8.488 7.718a12.93 12.93 0 0 1-2.035.67 21.805 21.805 0 0 1-4.798-7.136c-.442-1.067-.799-2.17-1.303-3.21-.504-1.038-1.173-2.027-2.11-2.7-.763-.548-1.666-.863-2.568-1.123-.902-.26-1.824-.475-2.683-.854-1.811-.8-3.241-2.278-4.996-3.194-2.033-1.062-4.426-1.314-6.695-.983-2.269.33-4.427 1.214-6.436 2.32-2.059 1.132-4.003 2.518-5.55 4.287-1.545 1.769-2.682 3.942-2.988 6.271-.242 1.843.035 3.712.01 5.57-.028 1.975-.397 3.94-.3 5.913.075 1.493.413 2.959.595 4.442.106.866.158 1.738.157 2.611a22.359 22.359 0 0 0 7.596 4.674c3.086 1.127 6.411 1.561 9.692 1.383 2.005-.109 4.038-.44 6.004-.033 1.943.4 3.665 1.492 5.29 2.63 2.927 2.049 5.75 4.374 7.653 7.399 1.102 1.753 1.864 3.696 2.84 5.522.976 1.827 2.221 3.591 3.996 4.66 2.078 1.25 4.648 1.402 7.055 1.103 3.528-.438 7.002-1.827 9.567-4.29 1.995-1.913 3.363-4.376 4.645-6.826 1.282-2.45 2.53-4.955 4.35-7.035a16.09 16.09 0 0 1 5.434-4.04c-.17.992.012 2.04.503 2.918.39.698.973 1.286 1.666 1.684a4.465 4.465 0 0 0 2.292.588 12.63 12.63 0 0 1 1.414-5.543c.647-1.246 1.496-2.373 2.3-3.524.454-.652.91-1.33 1.566-1.78a2.493 2.493 0 0 1 1.1-.434 1.76 1.76 0 0 1 1.145.237c.274.173.488.431.64.717.153.285.248.6.319.916.141.632.194 1.293.455 1.886a2.86 2.86 0 0 0 1.146 1.295c.503.3 1.1.44 1.684.391a28.665 28.665 0 0 1 6.628-11.429c3.95-4.162 9.035-7.022 13.842-10.155 4.806-3.134 9.552-6.764 12.242-11.832 1.97-3.712 2.703-7.95 4.31-11.834 2.963-7.16 8.845-12.854 15.594-16.662a46.43 46.43 0 0 1 8.725-3.8 145.613 145.613 0 0 1-6.188 6.05c-3.373 3.108-6.922 6.086-9.677 9.754-2.413 3.211-4.178 6.939-4.912 10.888-.524 2.816-.54 5.77-1.68 8.398-1.14 2.63-3.32 4.69-5.726 6.249-2.406 1.558-5.063 2.68-7.635 3.946a73.272 73.272 0 0 0-14.607 9.506 71.28 71.28 0 0 0 5.334 5.138 71.24 71.24 0 0 0 5.842 4.563 5.742 5.742 0 0 0 1.38-2.486c.222-.855.243-1.761.06-2.625.543.31 1.074.643 1.59.996 1.867 1.283 3.532 2.839 5.074 4.499a48.286 48.286 0 0 1 3.295 3.952 6.991 6.991 0 0 0 3.552-4.472 41.993 41.993 0 0 1 3.293 2.094c1.097.771 2.168 1.607 3 2.659a8.387 8.387 0 0 1 1.63 3.504 7.685 7.685 0 0 0 1.276-2.37c.152-.463.262-.942.44-1.397.178-.455.436-.894.825-1.19a2.13 2.13 0 0 1 1.284-.409c.457 0 .908.13 1.318.333.819.407 1.457 1.094 2.084 1.76.638.677 1.286 1.348 1.872 2.071.476.587.91 1.208 1.422 1.764.512.557 1.112 1.053 1.82 1.316.409.152.85.223 1.284.185a2.4 2.4 0 0 0 1.212-.445c.421-.31.721-.765.908-1.254.174-.456.256-.948.241-1.435.975.318 1.916.738 2.804 1.25.496.287.996.624 1.27 1.126.211.388.27.839.289 1.28.02.44.005.885.086 1.318.095.505.32.982.632 1.39.312.408.71.748 1.15 1.014.52.315 1.112.529 1.72.539.608.01 1.232-.2 1.66-.633.313-.318.505-.732.745-1.109.12-.188.253-.371.417-.523.163-.152.36-.274.576-.33.215-.054.444-.042.657.02.213.06.41.17.587.303.354.267.623.627.906.968.396.476.826.924 1.283 1.34a47.08 47.08 0 0 0-10.462 5.765c-5.502 4.018-10.057 9.17-14.536 14.304-4.736 5.427-9.55 10.973-15.712 14.704-1.701 1.03-3.507 1.917-5.437 2.397-1.93.479-3.995.533-5.888-.078-1.466-.473-2.788-1.33-3.938-2.355-1.15-1.026-2.137-2.22-3.071-3.446a59.558 59.558 0 0 1-2.989-4.299 25.992 25.992 0 0 1-5.3-.99c-2.105-.625-4.121-1.514-6.149-2.36-1.84-.767-3.77-1.513-5.76-1.4-1.835.104-3.563.938-5.048 2.02-1.485 1.08-2.77 2.409-4.111 3.663-.782.73-1.594 1.45-2.168 2.351a4.477 4.477 0 0 0-.624 1.47 3.131 3.131 0 0 0 .06 1.586c.26.815.929 1.487 1.743 1.75a2.454 2.454 0 0 0-1.24 1.166c-.16.323-.244.674-.34 1.02-.097.346-.209.696-.412.992-.263.382-.661.653-.92 1.038-.263.39-.363.873-.362 1.344.002.47.098.935.199 1.395.125.573.258 1.144.322 1.727.125 1.122-.002 2.282.312 3.367a3.934 3.934 0 0 0 1.321 1.995c.614.482 1.369.752 2.13.915.763.164 1.544.23 2.314.347 1.573.24 3.112.699 4.558 1.362-.867.28-1.645.83-2.199 1.554a4.564 4.564 0 0 0-.891 3.328c2.166.304 4.311.76 6.414 1.361 2.543.728 5.023 1.667 7.57 2.382 3.123.878 6.331 1.412 9.513 2.05.812.162 1.624.331 2.434.508.813 1.18 1.611 2.369 2.396 3.568 1.863 2.843 3.716 5.814 6.476 7.8 3.4 2.444 7.786 3.09 11.972 2.99 2.495-.058 5.067-.38 7.22-1.64 1.852-1.084 3.259-2.782 4.504-4.53 1.245-1.748 2.378-3.593 3.865-5.14 2.65-2.76 6.233-4.386 9.682-6.041 1.6-.768 3.19-1.558 4.77-2.364a5.543 5.543 0 0 0-.02 3.277 5.56 5.56 0 0 0 2.142 2.93 2.16 2.16 0 0 1-.528-1.086 2.163 2.163 0 0 1 .143-1.2 2.157 2.157 0 0 1 1.917-1.302c.302-.007.604.05.882.167a22.25 22.25 0 0 1 5.43-7.752 22.192 22.192 0 0 1 3.658-2.732 38.942 38.942 0 0 1 3.923 5.331c.744-.33 1.453-.74 2.112-1.218 2.96-2.15 4.737-5.538 7.259-8.19a19.141 19.141 0 0 1 4.169-3.307 13.143 13.143 0 0 0-.746-1.485c-.672-1.152-1.519-2.197-2.168-3.363a11.593 11.593 0 0 1-1.323-3.85 7.86 7.86 0 0 1-4.941-.468c.144-2.008.699-3.984 1.618-5.775.304-.592.646-1.164.921-1.77.275-.605.482-1.254.494-1.92a3.264 3.264 0 0 0-.37-1.572 3.026 3.026 0 0 0-1.106-1.176c-.519-.312-1.123-.455-1.724-.526-.6-.07-1.207-.075-1.81-.134a9.94 9.94 0 0 1-3.445-.995 32.385 32.385 0 0 1 2.68-6.277c1.73-3.1 3.964-5.903 5.568-9.07a26.001 26.001 0 0 0 1.8-4.585 3.873 3.873 0 0 0-2.51.041c-.603.22-1.15.594-1.572 1.078-.027-4.528.137-9.055.493-13.568.334-4.242.85-8.528 2.414-12.484a24.895 24.895 0 0 1 7.054-9.815c1.41-1.192 2.95-2.222 4.397-3.368 1.448-1.146 2.82-2.43 3.784-4.004.477-.777.848-1.616 1.163-2.472.475-1.292.824-2.628 1.34-3.904.515-1.277 1.215-2.514 2.26-3.41a5.976 5.976 0 0 1 5.054-1.288 8.926 8.926 0 0 0-3.195 3.142c-.86 1.438-1.296 3.084-1.697 4.711-.4 1.627-.78 3.28-1.554 4.766-1.074 2.064-2.832 3.678-4.6 5.19-3.074 2.626-6.404 5.221-8.092 8.895-1.703 3.706-1.498 8.025-2.89 11.858-.817 2.248-2.172 4.291-2.77 6.607a10.695 10.695 0 0 0-.159 4.596 2.64 2.64 0 0 1 1.458-1.18 2.62 2.62 0 0 1 1.304-.078c.733 2.842.57 5.906-.461 8.653-1.432 3.812-4.424 6.89-5.797 10.723a13.92 13.92 0 0 0-.813 4.636 2.794 2.794 0 0 1 2.097-1.438c.82-.098 1.655.185 2.33.66.674.476 1.203 1.132 1.643 1.83 1.796 2.856 2.172 6.34 2.763 9.662.573 3.212 1.396 6.409 2.856 9.327.462.926.988 1.82 1.4 2.769.413.949.714 1.966.694 3-.021 1.11-.407 2.175-.79 3.215a742.748 742.748 0 0 1-1.783 4.803c1.527.139 3.061.193 4.594.161 1.337-.028 2.728-.112 3.956.416.685.295 1.284.769 1.771 1.333.487.564.866 1.217 1.167 1.898.604 1.363.903 2.839 1.335 4.266.913 3.016 2.424 5.827 3.263 8.864 1.464 5.297.764 11.107-1.655 16.041-2.057 4.197-5.411 7.845-9.676 9.756-1.727.774-3.662 1.262-5.516.878-1.413-.292-2.68-1.069-3.819-1.955-1.138-.885-2.18-1.893-3.343-2.747-1.45-1.065-3.072-1.878-4.74-2.552a40.402 40.402 0 0 0-5.124-1.658 50.974 50.974 0 0 0-3.982-.852 7.755 7.755 0 0 0-4.65-2.887c-1.528-.295-3.126-.115-4.603.377-1.477.492-2.838 1.289-4.084 2.221-2.99 2.24-5.342 5.271-7.016 8.61a29.059 29.059 0 0 0-2.754 8.684 3.783 3.783 0 0 1 1.82-.407c.627.019 1.25.2 1.79.517.586.344 1.074.85 1.398 1.445a17.6 17.6 0 0 0-1.636 1.846c-.516.671-.99 1.395-1.203 2.214a3.24 3.24 0 0 0-.085 1.259c.058.419.216.828.475 1.162.305.392.741.67 1.21.828.47.159.973.203 1.468.176.99-.053 1.944-.38 2.917-.578a11.374 11.374 0 0 1 5.697.313 8.755 8.755 0 0 1-1.432 1.615c-.277.244-.571.472-.818.747-.248.274-.45.604-.498.97a1.5 1.5 0 0 0 .154.86c.132.264.33.493.561.677.462.37 1.037.56 1.604.726 1.28.371 2.589.636 3.88.967 1.72.44 3.428.999 5.2 1.107.912.055 1.837-.012 2.713-.273.617-.184 1.202-.461 1.816-.656 1.358-.43 2.817-.442 4.232-.278 1.415.164 2.803.498 4.204.754 3.706.677 7.519.804 11.14 1.84 4.073 1.167 7.726 3.43 11.464 5.426 1.998 1.067 4.049 2.067 6.234 2.66 2.185.594 4.528.764 6.712.164 1.642-.452 3.15-1.328 4.45-2.43 1.3-1.1 2.4-2.423 3.362-3.828 2.708-3.954 4.339-8.524 6.434-12.834a64.618 64.618 0 0 1 2.553-4.741 7.071 7.071 0 0 0 2.496-.26 7.107 7.107 0 0 0 3.568-2.397 4.402 4.402 0 0 1-2.013-2.608c-.323-1.172-.143-2.422.11-3.611.092-.428.191-.855.354-1.261.162-.406.39-.792.705-1.095.455-.438 1.074-.68 1.701-.757.727-.09 1.46.03 2.19.085 1.532.118 3.084-.05 4.556-.493a39.324 39.324 0 0 1-1.093-3.646c-.51-2.058-.854-4.193-.597-6.298a11.274 11.274 0 0 1 1.682-4.686 6.87 6.87 0 0 0 4.51 2.349 6.824 6.824 0 0 0 3.379-.54 6.816 6.816 0 0 0 2.684-2.118c-2.146-.225-4.15-1.529-5.226-3.397a6.93 6.93 0 0 1-.737-4.978 7.71 7.71 0 0 0 5.363.222 7.732 7.732 0 0 0 4.463-3.871 6.49 6.49 0 0 1-4.906-1.671c-.986-.91-1.661-2.104-2.224-3.321-.563-1.217-1.032-2.482-1.69-3.65-.816-1.454-1.906-2.731-2.913-4.06-1.006-1.33-1.948-2.751-2.397-4.357-.704-2.518-.13-5.189.297-7.768.38-2.294.64-4.607.784-6.927a38.438 38.438 0 0 0 4.276.288c.367-2.975.92-5.927 1.652-8.834.461-1.827.992-3.636 1.528-5.442.452-1.52.906-3.04 1.364-4.56a4.338 4.338 0 0 0 1.5 1.33 4.369 4.369 0 0 0 3.188.354 69.96 69.96 0 0 1-.912-2.457c-.33-.945-.644-1.908-.721-2.905-.099-1.271.19-2.543.601-3.75.411-1.207.944-2.369 1.36-3.574 1.085-3.148 1.342-6.51 1.703-9.82.06-.563.125-1.128.287-1.67.161-.542.424-1.065.833-1.456.356-.339.805-.564 1.267-.73 1.24-.448 2.587-.495 3.905-.454 1.138.036 2.276.133 3.414.093 1.139-.039 2.29-.221 3.316-.717a5.882 5.882 0 0 0 3.144-4.012 130.128 130.128 0 0 1-9.829-18.187c-3.088-6.993-5.58-14.295-9.552-20.826-1.878-3.089-4.07-5.976-6.003-9.03-4.243-6.71-7.227-14.224-12.15-20.452-4.534-5.735-10.514-10.125-15.767-15.21-8.715-8.438-15.397-18.767-20.993-29.529-5.483-10.542-10.063-21.69-17.375-31.057-2.144-2.746-4.518-5.323-7.12-7.639zm-105.07-39.746c.75.702 1.333 1.581 1.595 2.57.363 1.368.094 2.847-.498 4.131-.593 1.285-1.492 2.404-2.429 3.464-1.22 1.382-2.536 2.707-3.45 4.308a10.528 10.528 0 0 0-1.38 5.158 3.746 3.746 0 0 1-2.824-1.523c-.43-.593-.677-1.308-.775-2.035a5.662 5.662 0 0 1 .03-1.694c.493.29 1.078.416 1.647.356.674-.071 1.303-.398 1.819-.839.515-.44.926-.988 1.29-1.56.673-1.05 1.21-2.196 1.5-3.41.29-1.214.33-2.498.024-3.708a5.827 5.827 0 0 0-.949-2.05 4.568 4.568 0 0 0-1.734-1.433c-.817-.377-1.742-.474-2.639-.392-.896.083-1.769.339-2.616.643-1.73.623-3.39 1.461-4.855 2.571-.516.392-1.017.825-1.349 1.38a1.89 1.89 0 0 0-.228.535c-.073.313-.03.652.116.938.147.286.397.519.695.641a2.9 2.9 0 0 1-.967 1.23c-.55.4-1.233.597-1.914.636a4.705 4.705 0 0 1-2.709-.684 17.469 17.469 0 0 1 5.018-7.459c3.514-3.064 8.38-4.623 12.976-3.839 1.346.23 2.676.66 3.805 1.426.283.191.55.405.801.64zm7.685 44.303a6.564 6.564 0 0 1-3.863 2.835 6.519 6.519 0 0 1-4.585-.504 6.477 6.477 0 0 1-2.995-3.27 20.337 20.337 0 0 0 4.77 1.406c1.378.227 2.788.312 4.173.139.853-.107 1.693-.31 2.5-.606zm-39.72-28.896c1.734 1.617 3.054 3.675 3.723 5.947.69 2.342.683 4.886-.02 7.225a30.076 30.076 0 0 0-3.112-5.214c-1.635-2.2-3.567-4.169-5.63-5.973a54.171 54.171 0 0 0-6.88-5.116c1.531-.439 3.152-.558 4.73-.35 1.898.25 3.723.972 5.326 2.02.661.432 1.285.923 1.863 1.461zm35.933 38.026c-.614 1.067-1.717 1.8-3.018 2.004-1.25.197-2.673-.095-3.915-.808a7.21 7.21 0 0 1-2.806-2.947 20.902 20.902 0 0 0 4.146 1.566c1.182.305 2.379.495 3.534.47a8.714 8.714 0 0 0 2.06-.285zM403.05 57.382a9.367 9.367 0 0 0 2.278 3.245 9.372 9.372 0 0 0 2.938 1.824c.288.061.57.157.832.292a9.221 9.221 0 0 1-.832-.292 3.486 3.486 0 0 0-2.417.359c-.805.455-1.405 1.239-1.694 2.117-.29.88-.28 1.844-.03 2.735.38 1.362 1.316 2.553 2.53 3.277 1.215.724 2.694.983 4.089.75a6.372 6.372 0 0 0 4.016-2.455 2.381 2.381 0 0 0 1.285 1.875 7.877 7.877 0 0 1-3.583 3.208c-1.84.817-3.98.888-5.902.29-2.518-.782-4.62-2.673-5.895-4.98-.687-1.242-1.153-2.612-1.312-4.023-.159-1.41-.006-2.862.492-4.191a8.421 8.421 0 0 1 3.205-4.031zm46.781 46.451c-.554.992-1.583 1.652-2.816 1.808-1.185.15-2.548-.167-3.75-.877-1.155-.681-2.153-1.719-2.76-2.87a21.274 21.274 0 0 0 3.994 1.6c1.135.323 2.28.539 3.379.55a8.158 8.158 0 0 0 1.953-.21zm38.251 37.549a21.248 21.248 0 0 1-3.41 5.467c-3.048 3.543-7.216 6.023-10.062 9.73-2.637 3.437-3.975 7.773-4.152 12.102a25.513 25.513 0 0 0 1 8.179c-2.473-.206-4.802-1.713-6.002-3.885-.737-1.334-1.057-2.877-1.04-4.401.017-1.524.361-3.032.887-4.463 1.409-3.837 4.086-7.093 7.1-9.855 3.012-2.761 6.387-5.093 9.593-7.628a94.872 94.872 0 0 0 6.086-5.246zm-42.39-31.143c-.409.769-1.212 1.256-2.2 1.334-.948.074-2.056-.23-3.05-.84-.955-.585-1.796-1.445-2.329-2.384a18.983 18.983 0 0 0 3.273 1.422c.926.3 1.858.513 2.743.562.545.031 1.07 0 1.564-.094zm-63.17-50.855c.63.56 1.188 1.202 1.49 1.981.168.43.251.906.146 1.356-.053.224-.154.44-.302.617a1.219 1.219 0 0 1-.562.386c-.238.076-.5.066-.74-.008a1.668 1.668 0 0 1-.639-.379c-.366-.34-.59-.805-.771-1.27-.441-1.131-.68-2.338-1.2-3.434a7.344 7.344 0 0 0-1.306-1.907 22.911 22.911 0 0 1 3.238 2.121c.22.172.437.35.646.537zm-6.767 1.08c.63.56 1.188 1.202 1.49 1.98.168.431.251.907.146 1.356-.052.225-.152.44-.3.617a1.221 1.221 0 0 1-.563.386c-.238.075-.5.068-.739-.006a1.667 1.667 0 0 1-.638-.38c-.367-.34-.592-.805-.774-1.271-.441-1.13-.68-2.338-1.199-3.435a7.343 7.343 0 0 0-1.306-1.907 22.91 22.91 0 0 1 3.238 2.121c.22.172.435.351.645.538zm-7.572.313c.63.56 1.186 1.2 1.489 1.98.167.43.25.906.145 1.355a1.507 1.507 0 0 1-.3.619 1.22 1.22 0 0 1-.564.385 1.25 1.25 0 0 1-.738-.007 1.668 1.668 0 0 1-.64-.379c-.366-.34-.592-.805-.774-1.27-.44-1.131-.68-2.339-1.198-3.436a7.331 7.331 0 0 0-1.305-1.905 22.889 22.889 0 0 1 3.237 2.12c.219.172.438.35.648.538zm19.262 18.322c3.759 3.352 5.936 8.242 6.62 13.231.354 2.589.335 5.23-.059 7.813a20.756 20.756 0 0 1-3.862.694c-3.295.276-6.598-.237-9.891-.528-6.561-.578-13.19-.27-19.72-1.129-1.166-.153-2.337-.346-3.435-.766-1.098-.42-2.128-1.083-2.82-2.033a4.763 4.763 0 0 1-.904-2.923 2.268 2.268 0 0 1 1.125-.002c.466.119.884.387 1.233.72.638.609 1.05 1.428 1.71 2.014.366.325.814.574 1.3.64.242.034.493.022.729-.045.236-.066.455-.188.631-.359.312-.3.464-.727.575-1.145.111-.418.195-.851.407-1.228.221-.394.58-.709 1-.877a2.02 2.02 0 0 1 1.327-.058 3.68 3.68 0 0 0 .189 2.04c.26.656.713 1.234 1.29 1.642.524-.07 1.052-.1 1.581-.094.487.006.973.043 1.46.043.864.001 1.727-.117 2.559-.351.299-.59.751-1.1 1.3-1.468a3.892 3.892 0 0 1 1.947-.647 3.806 3.806 0 0 0 .802 2.334c.445.568 1.046 1 1.698 1.31.65.31 1.352.502 2.059.647 2.65.546 5.397.435 8.074.043 2.01-.294 4-.746 5.941-1.35a49.506 49.506 0 0 0-.659-4.327c-.425-2.153-.996-4.289-1.895-6.291-.899-2.003-2.136-3.874-3.766-5.344-2.66-2.397-6.198-3.59-9.718-4.245a39.972 39.972 0 0 0-4.601-.584 6.473 6.473 0 0 0-1.006 1.98 6.479 6.479 0 0 0-.237 2.66c-.276-.297-.558-.59-.847-.875-.536-.532-1.1-1.052-1.49-1.698a4.01 4.01 0 0 1-.5-2.813c-.948-.061-1.899-.07-2.847-.028-1.592.072-3.21.3-4.638 1.007a7.433 7.433 0 0 0-2.89 2.556 62.778 62.778 0 0 0 .298-3.857 2.68 2.68 0 0 0-1.762-.687c-.611-.005-1.213.204-1.73.53-.518.327-.956.767-1.34 1.243-.34.422-.641.877-1.031 1.252a2.747 2.747 0 0 1-.653.478c-.242.123-.509.2-.78.205-.393.007-.778-.14-1.108-.354-.33-.215-.61-.496-.879-.784a17.066 17.066 0 0 1-1.864-2.402 53.693 53.693 0 0 1 12.151-2.584c6.077-.57 12.256-.09 18.152 1.488 3.903 1.045 7.758 2.617 10.774 5.306zm-36.317-21.228c.11.123.205.263.278.41.147.298.214.631.21.962-.008.662-.302 1.297-.721 1.81-.781.953-1.985 1.508-3.21 1.648a6.013 6.013 0 0 1-4.796-1.63 7.297 7.297 0 0 0 2.737-.694c.638-.303 1.237-.704 1.712-1.228.42-.462.744-1.019 1.24-1.398a2.136 2.136 0 0 1 1.058-.435c.385-.041.784.036 1.113.238.142.086.269.194.38.317zm237.305 217.994c.069.914.18 1.824.336 2.728.424 2.47 1.21 4.956 2.82 6.876a9.48 9.48 0 0 0 2.087 1.85 5.385 5.385 0 0 1-3.03 1.008 5.383 5.383 0 0 1-3.064-.9c-1.35-.901-2.23-2.393-2.643-3.963-.259-.984-.35-2.017-.207-3.023.142-1.007.522-1.987 1.145-2.79a5.294 5.294 0 0 1 2.556-1.786zm-180.477-142.85a15.088 15.088 0 0 1-3.134 3.662c-1.627 1.376-3.54 2.396-5.548 3.107-.982.348-1.994.627-2.919 1.106-.667.345-1.277.79-1.86 1.264-1.466 1.194-2.771 2.588-4.322 3.67-1.397.974-2.973 1.68-4.604 2.17-2.981.894-6.125 1.07-9.175 1.688-2.902.587-5.71 1.571-8.453 2.686-3.672 1.493-7.265 3.233-11.098 4.24-3.453.907-7.149 1.194-10.58.208-2.408-.691-4.667-2.034-6.22-4-1.133-1.433-1.862-3.148-2.368-4.902-.507-1.754-.804-3.56-1.155-5.351-.461-2.349-1.063-4.775-2.603-6.606-.921-1.095-2.124-1.91-3.29-2.737-2.1-1.49-4.157-3.08-6.497-4.154-1.094-.502-2.263-.888-3.465-.926-1.604-.05-3.154.517-4.671 1.038a92.769 92.769 0 0 1-8.653 2.509c2.397-.055 4.795-.073 7.192-.054 2.323.02 4.701.082 6.871.91.412.158.817.345 1.162.618.346.274.63.64.738 1.067.088.344.057.714-.062 1.048a2.41 2.41 0 0 1-.578.885c-.419.416-.977.7-1.565.755-.6.056-1.2-.124-1.742-.39-.541-.266-1.038-.616-1.555-.925-2.29-1.367-4.955-1.923-7.54-2.575-1.165-.294-2.34-.614-3.541-.639a2.45 2.45 0 0 0-.712.066 1.05 1.05 0 0 0-.585.39c-.13.188-.175.423-.175.651 0 .228.04.456.066.682a5.328 5.328 0 0 1-.242 2.287c-.745.049-1.48.255-2.141.602-1.014.531-1.83 1.37-2.581 2.235-.751.864-1.462 1.774-2.34 2.51-.48.4-1.005.747-1.458 1.179-.452.431-.837.971-.93 1.59-.036.247-.023.502.045.741.07.24.195.465.374.64.234.228.544.362.816.545.135.092.264.197.362.327.1.13.168.288.174.452a.77.77 0 0 1-.078.359 1.162 1.162 0 0 1-.214.3c-.171.178-.382.314-.578.464-.403.31-.749.687-1.145 1.006-.621.5-1.365.847-2.148 1a8.71 8.71 0 0 0 1.485 1.317c1.832 1.282 4.07 1.807 6.235 2.368.912.237 1.843.494 2.606 1.047.133.097.262.204.367.33a.974.974 0 0 1 .214.439c.04.22-.015.448-.12.645a2.337 2.337 0 0 1-.411.526c-.515.526-1.11.97-1.726 1.375-.456.301-.926.584-1.346.933-.42.35-.795.775-.997 1.283-.242.613-.216 1.316.02 1.93.235.616.67 1.145 1.194 1.545.686.525 1.518.834 2.368.988.85.153 1.722.158 2.585.12 1.243-.056 2.532-.193 3.697.246.811.305 1.494.867 2.222 1.338 1.843 1.194 4.07 1.828 6.257 1.631.56-.05 1.113-.153 1.673-.2.56-.048 1.134-.038 1.67.133.756.242 1.381.79 1.872 1.415.491.625.867 1.332 1.28 2.01 1.643 2.709 3.917 5.034 5.227 7.918 1.25 2.754 1.576 5.924 3.253 8.44.907 1.362 2.18 2.465 3.624 3.235 1.444.769 3.055 1.209 4.685 1.352 4.15.364 8.28-1.184 11.774-3.454 1.342-.872 2.614-1.852 3.97-2.703 1.356-.851 2.816-1.58 4.389-1.883 2.08-.402 4.251-.044 6.331-.448.862-.167 1.704-.463 2.58-.508.439-.022.886.02 1.298.171.412.151.789.415 1.036.778.224.33.333.725.387 1.12.054.396.056.797.087 1.195.034.44.105.884.292 1.284.186.4.5.755.911.918.404.16.87.122 1.269-.05.399-.172.736-.466 1.013-.801.553-.67.879-1.502 1.418-2.183.665-.84 1.629-1.41 2.654-1.72 1.025-.308 2.111-.367 3.18-.304a14.48 14.48 0 0 1 2.977.49 3.834 3.834 0 0 0-.555 1.907c-.015.79.222 1.584.67 2.236a19.688 19.688 0 0 0 3.63-1.958c1.561-1.067 2.96-2.354 4.477-3.483.739-.55 1.525-1.07 2.417-1.302a3.417 3.417 0 0 1 1.372-.087c.455.07.896.253 1.248.55.367.311.626.739.777 1.196.152.457.199.944.183 1.425a5.717 5.717 0 0 1-.475 2.103 10.025 10.025 0 0 0 4.856-1.63c1.252-.828 2.296-1.925 3.395-2.947 1.099-1.023 2.292-1.998 3.706-2.502a6.53 6.53 0 0 1 3.06-.317.883.883 0 0 0 .371-.483.883.883 0 0 0-.035-.608c-.109-.248-.325-.432-.549-.586-.223-.153-.464-.288-.654-.48-.318-.322-.469-.777-.515-1.227-.047-.45.002-.903.026-1.355.089-1.68-.153-3.369-.635-4.981-.155-.52-.339-1.04-.662-1.475a2.226 2.226 0 0 0-.589-.556 1.645 1.645 0 0 0-.76-.258c-.365-.026-.731.089-1.047.274-.316.186-.586.44-.835.71-.28.301-.54.63-.885.856a1.948 1.948 0 0 1-1.26.306 1.944 1.944 0 0 1-1.167-.562 108.38 108.38 0 0 0 2.161-4.145c.943-1.91 1.843-3.895 2.048-6.015a9.625 9.625 0 0 0-.438-3.922 25.55 25.55 0 0 1-7.458 2.858 36.148 36.148 0 0 1 1.994-5.81c1.644-3.725 3.927-7.202 4.952-11.142.36-1.381.557-2.825.347-4.237a7.528 7.528 0 0 0-1.947-4.017zm28.513 93.635c.68 2.82-.035 5.941-1.875 8.183-.843 1.027-1.913 1.878-3.138 2.392-1.225.514-2.606.682-3.904.4-.967-.21-1.872-.664-2.658-1.266-.785-.601-1.452-1.35-2.013-2.165a11.84 11.84 0 0 1-1.74-3.876 12.16 12.16 0 0 0 6.058 1.41 11.774 11.774 0 0 0 6.02-1.867 11.396 11.396 0 0 0 3.25-3.21zm148.135 136.9a2.644 2.644 0 0 1-.33 1.451c-.246.439-.62.805-1.065 1.04-.667.352-1.467.401-2.204.242-.737-.16-1.42-.514-2.048-.931-1.385-.92-2.575-2.202-3.149-3.762a6.292 6.292 0 0 1-.145-3.859 9.184 9.184 0 0 0 3.884 4.579 9.158 9.158 0 0 0 5.057 1.24zm-72.184-60.44a13.453 13.453 0 0 1-4.409 5.553c-.901.66-1.892 1.206-2.954 1.552-1.062.346-2.198.488-3.306.34-2.106-.28-3.998-1.614-5.18-3.38a8.891 8.891 0 0 1-1.444-3.995 10.132 10.132 0 0 0 5.778 2.995c2.312.345 4.677-.128 6.883-.902a25.688 25.688 0 0 0 4.632-2.163zM394.591 202.985c.156.154.293.324.403.514.11.19.187.399.222.615.035.217.024.442-.04.651-.114.375-.4.688-.755.852-.396.184-.856.186-1.281.089-.425-.098-.824-.289-1.217-.476a6763.381 6763.381 0 0 1-7.201-3.44 16.804 16.804 0 0 1 6.062-.31c1.157.152 2.327.438 3.293 1.092.182.123.357.26.514.414zm-78.076-65.154c.233.227.448.471.642.734.3.405.55.861.624 1.36.037.249.028.505-.04.748a1.43 1.43 0 0 1-.375.645 1.46 1.46 0 0 1-.676.359c-.25.06-.512.061-.767.02-.509-.083-.977-.329-1.421-.59-1.584-.93-3.026-2.121-4.724-2.822a9.15 9.15 0 0 0-3.403-.689 7.36 7.36 0 0 1 3.81-1.762 7.816 7.816 0 0 1 3.856.449 7.232 7.232 0 0 1 2.474 1.548zm222.056 197.461c.32.294.568.679.637 1.107.045.282.011.575-.086.843a2.015 2.015 0 0 1-.457.715c-.398.407-.946.646-1.505.753-.98.187-1.999-.013-2.932-.367-.933-.354-1.802-.856-2.696-1.299a23.255 23.255 0 0 0-3.115-1.27 11.576 11.576 0 0 1 3.197-1.408c1.92-.517 4.017-.517 5.847.256.4.169.79.377 1.11.67zM357.44 179.251a3.687 3.687 0 0 1-.726 2.087c-.513.688-1.266 1.18-2.083 1.444a4.41 4.41 0 0 1-1.705.209 3.708 3.708 0 0 1-1.633-.519c-.958-.586-1.568-1.606-1.989-2.647-.331-.82-.57-1.679-.707-2.553.843.533 1.743.98 2.677 1.329 1.19.444 2.439.731 3.706.798a11 11 0 0 0 2.46-.148zm106.845 94.916c.12.116.232.239.333.372.203.266.36.567.452.888.092.322.115.667.05.995a2.184 2.184 0 0 1-.754 1.237c-.378.315-.849.51-1.334.592-.774.13-1.571-.02-2.312-.277-.741-.259-1.44-.624-2.16-.939a17.419 17.419 0 0 0-4.418-1.272 6.997 6.997 0 0 1 3.895-2.874 7.115 7.115 0 0 1 5 .442c.452.218.887.49 1.248.836zm-75.923-66.832c.22.22.416.46.56.734.145.275.235.581.234.891-.001.31-.098.624-.293.866a1.422 1.422 0 0 1-.816.48 2.12 2.12 0 0 1-.957-.037c-.625-.159-1.174-.524-1.746-.822-1.713-.894-3.682-1.194-5.614-1.224-.77-.012-1.541.018-2.309.086a3.636 3.636 0 0 1 .798-2.845c.502-.6 1.199-1.024 1.949-1.248.75-.224 1.55-.254 2.324-.14 1.936.287 3.63 1.433 5.164 2.649.243.193.486.391.706.61zM534.79 339.702c.467.43.809 1.01.891 1.639.041.314.019.637-.076.94a1.95 1.95 0 0 1-.49.805c-.326.32-.765.505-1.214.584-.45.079-.91.055-1.363-.005-1.497-.199-2.912-.783-4.38-1.132a14.184 14.184 0 0 0-4.032-.366 8.96 8.96 0 0 1 2.125-2.01 9.153 9.153 0 0 1 5.376-1.538c.569.018 1.139.09 1.683.26.543.17 1.06.439 1.48.824zm-222.601-194.93c.512.436.94.972 1.183 1.596.14.36.216.749.185 1.134a1.77 1.77 0 0 1-.436 1.051 1.717 1.717 0 0 1-.77.472c-.292.087-.601.107-.904.073-.604-.067-1.167-.337-1.694-.64-1.597-.92-2.976-2.19-4.61-3.042a10.467 10.467 0 0 0-5.39-1.166 6.185 6.185 0 0 1 2.956-1.794c1.074-.287 2.213-.277 3.31-.098 1.098.179 2.16.522 3.206.897.84.3 1.681.626 2.426 1.117.187.123.367.256.538.4zm72.508 67.39c.54.538.931 1.24 1.039 1.996.062.436.03.89-.135 1.298a1.853 1.853 0 0 1-.86.966c-.387.196-.844.228-1.27.137-.425-.09-.82-.295-1.173-.549-.705-.508-1.252-1.206-1.935-1.744a5.449 5.449 0 0 0-2.611-1.112 5.448 5.448 0 0 0-2.815.36 7.652 7.652 0 0 1 3.195-2.343c1.463-.57 3.125-.666 4.616-.17.724.24 1.409.622 1.949 1.16zm76.11 67.796c.344.284.635.638.823 1.043.244.528.304 1.147.119 1.698a1.965 1.965 0 0 1-.448.74 1.786 1.786 0 0 1-.734.457c-.5.16-1.05.077-1.542-.109-.491-.186-.937-.47-1.393-.731a15.644 15.644 0 0 0-7.93-2.052c.23-.732.7-1.386 1.319-1.838.836-.61 1.903-.835 2.938-.838 1.036-.003 2.058.197 3.08.365.882.145 1.779.27 2.61.599.415.165.812.382 1.157.666zm71.423 66.537c.358.307.656.698.791 1.15.14.467.099.984-.098 1.43-.197.446-.546.82-.968 1.065-.636.37-1.409.438-2.138.342-.729-.095-1.428-.343-2.127-.57-1.282-.418-2.595-.777-3.94-.856a9.698 9.698 0 0 0-2.3.137 5.927 5.927 0 0 1 3.413-3.851c.98-.402 2.063-.529 3.117-.434 1.055.094 2.084.407 3.045.853.428.198.846.427 1.204.734zm-222.302-194.76c.44.32.822.73 1.061 1.22.24.488.33 1.06.194 1.588a2.186 2.186 0 0 1-.628 1.038c-.299.28-.67.48-1.063.596a3.23 3.23 0 0 1-1.712.011 3.979 3.979 0 0 1-1.525-.796c-.615-.51-1.082-1.17-1.574-1.8-.492-.628-1.033-1.245-1.74-1.617-.549-.29-1.167-.413-1.776-.531-1.174-.226-2.35-.44-3.528-.64a6.484 6.484 0 0 1 4.583-1.637c1.635.076 3.165.768 4.716 1.29 1.032.348 2.112.635 2.992 1.277zm71.078 65.653c.176.168.327.363.44.578.25.474.314 1.036.202 1.56a2.743 2.743 0 0 1-.779 1.38c-.402.39-.91.661-1.449.818a5.055 5.055 0 0 1-1.665.177 6.768 6.768 0 0 1-3.686-1.34 6.906 6.906 0 0 1-1.49-1.523 27.234 27.234 0 0 1 3.606-1.779c.903-.365 1.852-.684 2.825-.648.486.017.972.128 1.403.354.216.113.417.255.593.423zm78.46 69.614c.31.296.554.66.666 1.071a2.09 2.09 0 0 1-.284 1.682c-.325.487-.853.83-1.426.949-.55.114-1.124.032-1.662-.131-.537-.163-1.05-.403-1.572-.609-1.65-.647-3.415-.952-5.18-1.117a35.248 35.248 0 0 0-1.71-.117 3.85 3.85 0 0 1 1.948-2.783c1.105-.597 2.426-.607 3.68-.523 1.237.083 2.477.244 3.665.602.544.164 1.082.374 1.545.704.115.083.227.174.33.272zm73.742 67.016c.367.295.674.67.87 1.097.227.496.301 1.065.178 1.596a2.098 2.098 0 0 1-.915 1.303c-.308.19-.666.292-1.027.32a3.588 3.588 0 0 1-1.077-.1c-.705-.163-1.367-.477-2.056-.697a8.015 8.015 0 0 0-5.099.063 8.597 8.597 0 0 1 2.431-3.002c.766-.597 1.642-1.065 2.583-1.302.94-.238 1.95-.238 2.871.063.448.147.874.364 1.241.659zm7.462 7.147c.126.114.24.24.342.379.202.276.346.596.405.933.059.337.032.69-.092 1.01-.153.397-.45.732-.803.971-.353.24-.76.39-1.175.486-.847.197-1.735.175-2.59.023-.857-.152-1.687-.433-2.496-.75a27.223 27.223 0 0 1-2.059-.909 9.331 9.331 0 0 1 3.613-2.526c1.112-.432 2.354-.646 3.505-.333.496.134.972.372 1.35.716zM311.555 160.61c.303.26.557.572.73.931.153.32.239.675.211 1.028a1.438 1.438 0 0 1-.433.942 1.445 1.445 0 0 1-.63.331 2.065 2.065 0 0 1-.713.042c-.476-.048-.929-.223-1.381-.379-1.407-.483-2.87-.788-4.289-1.23a23.295 23.295 0 0 1-2.699-1.03 17.466 17.466 0 0 1 3.58-1.322c.757-.188 1.53-.326 2.31-.34.781-.012 1.57.102 2.29.404.368.154.721.363 1.024.623zm72.378 66.911c.295.22.535.513.669.854.153.388.16.831.027 1.227a1.882 1.882 0 0 1-.757.968 2.24 2.24 0 0 1-1.102.339 3.352 3.352 0 0 1-1.148-.16c-.743-.227-1.41-.641-2.103-.992a13.053 13.053 0 0 0-3.514-1.189c.173-.085.347-.167.523-.246 1.344-.6 2.776-.988 4.23-1.223.722-.116 1.469-.193 2.181-.026.357.084.702.23.994.448zm73.973 66.476c.47.373.878.823 1.18 1.34.206.356.36.747.4 1.157.038.41-.048.838-.288 1.172-.24.334-.622.554-1.025.637-.403.084-.825.04-1.218-.083-.786-.244-1.44-.78-2.115-1.253a13.225 13.225 0 0 0-3.347-1.722 11.584 11.584 0 0 0-2.616-.558 7.56 7.56 0 0 1 3.434-1.828c1.723-.399 3.613-.155 5.106.791.169.107.332.223.489.347zm7.238 7.67c.137.122.259.258.364.408.21.3.35.652.394 1.015.044.362-.007.736-.148 1.072a2.014 2.014 0 0 1-.673.847 2.28 2.28 0 0 1-1.067.4 3.33 3.33 0 0 1-1.144-.076c-.749-.172-1.437-.537-2.135-.86-1.137-.524-2.322-.939-3.492-1.383-.528-.2-1.055-.408-1.578-.62.042-.05.085-.1.13-.147.621-.652 1.53-.959 2.423-1.078.893-.119 1.8-.073 2.699-.136.64-.045 1.276-.147 1.918-.156.642-.009 1.302.083 1.863.396.16.09.31.196.446.318z"/></svg>