<svg xmlns="http://www.w3.org/2000/svg" width="1098.24" height="1079.88"><path d="M113.5 10.02C48.42 120.23 10 256.05 10 402.99c0 368.32 241.37 666.91 539.12 666.91 149.78 0 285.3-75.58 383-197.56L119.84 10.03h-6.344M1053.25 639.937c-1.298 4.223-2.666 8.412-4.03 12.594 1.366-4.185 2.732-8.368 4.03-12.594m-14.781 43.31c-.697 1.859-1.383 3.713-2.094 5.563.709-1.847 1.398-3.706 2.094-5.563M974.561 812.648c-1.319 2.093-2.63 4.177-3.969 6.25 1.337-2.07 2.652-4.16 3.969-6.25m-3.969 6.25c-1.339 2.073-2.704 4.135-4.063 6.188 1.361-2.057 2.721-4.11 4.063-6.188m-33.969 47.75" style="fill:#da121a"/><path style="fill:#078930;stroke:#000" d="m119.84 10.02 812.28 862.31c96.52-120.51 156.12-286.31 156.12-469.34 0-146.94-38.42-282.76-103.5-392.97H119.83z"/><path style="fill:#fff;stroke:#000;stroke-width:5" d="M113.5 10.02C99 34.574 85.848 60.4 74.13 87.33c15.16 7.05 33.757 4.546 46.625-7.719-16.674 16.03-17.253 42.504-1.313 59.16 15.941 16.652 42.38 17.18 59.12 1.219-16.674 16.03-17.284 42.504-1.344 59.16 15.941 16.652 42.41 17.18 59.16 1.219-16.674 16.03-17.284 42.505-1.344 59.16 15.941 16.652 42.41 17.209 59.16 1.25-16.674 16.03-17.316 42.473-1.375 59.12 15.941 16.652 42.44 17.209 59.19 1.25-16.674 16.03-17.316 42.473-1.375 59.12 15.941 16.652 42.41 17.209 59.16 1.25-16.674 16.03-17.284 42.505-1.344 59.16 15.941 16.652 42.41 17.209 59.16 1.25-16.674 16.03-17.284 42.473-1.344 59.12 15.941 16.652 42.41 17.209 59.16 1.25-16.674 16.03-17.316 42.473-1.375 59.12 15.941 16.652 42.44 17.209 59.19 1.25-16.674 16.03-17.316 42.504-1.375 59.16 15.941 16.652 42.41 17.18 59.16 1.219-16.674 16.03-17.284 42.504-1.344 59.16 15.941 16.652 42.41 17.18 59.16 1.219-16.674 16.03-17.284 42.505-1.344 59.16 15.941 16.652 42.38 17.209 59.12 1.25-16.674 16.03-17.253 42.504-1.313 59.16 15.941 16.652 42.38 17.18 59.12 1.219-16.674 16.03-17.284 42.504-1.344 59.16 15.941 16.652 42.41 17.18 59.16 1.219-16.674 16.03-17.284 42.505-1.344 59.16a41.604 41.604 0 0 0 8.219 6.656c34.496-33.07 65.68-71.2 92.78-113.5-10.04-15.08-9.193-35.2 2.313-49.47l-.469-.469c-16.719 12.323-40.34 10.657-55.03-4.688-14.689-15.345-15.35-39.05-2.313-55.22l-.469-.5c-16.719 12.322-40.34 10.689-55.03-4.656-14.689-15.345-15.318-39.05-2.281-55.22l-.5-.5c-16.719 12.322-40.34 10.657-55.03-4.688-14.689-15.345-15.318-39.02-2.281-55.19l-.469-.5c-16.719 12.322-40.37 10.657-55.06-4.688-14.689-15.345-15.318-39.05-2.281-55.22l-.469-.5c-16.719 12.323-40.34 10.689-55.03-4.656-14.689-15.345-15.321-39.02-2.281-55.19l-.469-.5c-16.722 12.319-40.37 10.626-55.06-4.719-14.689-15.345-15.321-39.02-2.281-55.19l-.469-.5c-16.722 12.319-40.37 10.657-55.06-4.688-14.689-15.345-15.321-39.02-2.281-55.19l-.469-.5c-16.722 12.319-40.37 10.657-55.06-4.688-14.689-15.345-15.29-39.02-2.25-55.19l-.5-.5c-16.722 12.319-40.37 10.657-55.06-4.688-14.689-15.345-15.29-39.05-2.25-55.22l-.469-.5c-16.722 12.319-40.37 10.657-55.06-4.688-14.689-15.345-15.321-39.02-2.281-55.19l-.469-.5c-16.719 12.322-40.37 10.689-55.06-4.656-14.689-15.345-15.318-39.05-2.281-55.22l-.469-.5c-16.719 12.323-40.34 10.657-55.03-4.688-14.689-15.345-15.35-39.05-2.313-55.22l-.469-.5c-16.719 12.322-40.34 10.689-55.03-4.656-7.43-7.762-11.243-17.674-11.531-27.656h-100z"/><path style="fill:none;stroke:#000;stroke-width:20;stroke-linecap:round;stroke-linejoin:round" d="M113.5 10C48.42 120.21 10 256.03 10 402.97c0 368.32 241.37 666.91 539.12 666.91s539.12-298.59 539.12-666.91c0-146.94-38.42-282.76-103.5-392.97H113.49z"/><g word-spacing="0" letter-spacing="0" style="line-height:125%;font-family:Sans;text-align:center;letter-spacing:0;word-spacing:0;text-anchor:middle"><text x="332.75" y="1184.99" transform="rotate(-14.29)" font-size="5.138" style="font-size:5.13800001px;fill:#0d0307">
      <tspan x="332.75" y="1184.99">Gleiwitz-Essen-Landshut</tspan>
    </text><text x="721.73" y="900.72" transform="rotate(15.523)" font-size="6.219" style="font-size:6.21899986px;fill:#0a0505">
      <tspan x="721.73" y="900.72">Christian Duscha</tspan>
    </text></g><g style="fill:#fff;stroke:#000;stroke-width:5"><path d="M445.84 765.74c-12.685-15.31-35.38-17.438-50.689-4.753-8.851 7.334-13.285 18.01-13.01 28.676l-28.23 23.387-344.34-415.6-34.17 28.312 26.298 31.74-100.92 83.62 36.745 44.35 39.05-32.359-12.8-15.449 34.19-28.331 12.8 15.449 15.569-12.9 28.331 34.19-15.569 12.9 12.8 15.449-34.19 28.331-12.8-15.449-39.06 32.359 36.745 44.35 100.92-83.62 216.22 260.97-28.23 23.387c-10.426-2.253-21.743.118-30.594 7.452-15.31 12.685-17.438 35.38-4.753 50.689 12.685 15.31 35.38 17.438 50.689 4.753 8.863-7.344 13.302-18.04 13.01-28.719l28.2-23.367 47.99 57.921c-2.269 10.438.104 21.775 7.447 30.638 12.685 15.31 35.38 17.438 50.689 4.753 15.31-12.685 17.438-35.38 4.753-50.689-7.343-8.863-18.04-13.302-28.72-13.01l-47.99-57.921 28.2-23.367c10.438 2.269 21.775-.104 30.638-7.448 15.31-12.685 17.438-35.38 4.753-50.689z" style="stroke-linecap:round;stroke-linejoin:round" transform="translate(193.81 19.64)"/><path d="m551.66 110.75-47.752-27.02s4.636 43.931 10.986 64.951c8.449 27.963 20.325 55.19 35.675 80.04 14.219 23.02 32.584 43.4 51.5 62.743 17.07 17.454 55.55 47.72 55.55 47.72l-41.1-35.14-6.644 35.647 58.16 54.621 38.949-61.64 7.894 47.01s52.5 16.614 74.954 31.88c20.02 13.612 36.891 32.03 51.01 51.701 16.12 22.447 27.25 48.29 37.3 74.03 8.561 21.94 12.775 45.34 19.35 67.952 3.271 11.249 10 33.691 10 33.691s15.223-36.2 27.26-51.41c14.464-18.272 33.22-33.11 52.596-46.06 22.284-14.885 72.09-35.591 72.09-35.591s-50.617-19.09-75.03-30.662c-14.972-7.093-30.15-14.15-43.691-23.692-9.716-6.842-18.635-14.925-26.56-23.78-11.57-12.927-22.449-26.861-30.22-42.37-13.911-27.763-28.371-88.73-28.371-88.73l43.11-4.482s-14.387-42.19-25.924-61.05c-13.216-21.602-48.739-58.28-48.739-58.28l-65.27 25.03 15.328-46.692s-41.452-29.23-63.27-42.11c-21.806-12.877-43.994-25.392-67.4-35.05-22.442-9.258-45.647-17.277-69.51-21.733-13.999-2.614-42.628-2.825-42.628-2.825z"/></g><g style="fill:none;stroke:#000;stroke-width:5;stroke-linecap:round"><path d="M533.04 195.32s12.715.262 19.01-.465c12.03-1.391 24.21-3.231 35.578-7.42 7.02-2.588 19.695-10.774 19.695-10.774"/><path d="M550.57 228.72s30.486.213 44.932-3.957c15-4.332 28.763-12.619 41.681-21.395 6.04-4.105 11.951-8.712 16.487-14.437 8.987-11.343 15.15-24.84 20.372-38.34 3.788-9.8 5.06-20.395 7.776-30.545 1.921-7.177 6.02-21.458 6.02-21.458"/><path d="M625.76 118.33c-7.906 6.924-19.928 6.127-26.849-1.776-6.924-7.907-6.123-19.925 1.783-26.848 7.906-6.924 19.928-6.127 26.849 1.776 6.924 7.907 6.123 19.925-1.783 26.848z" style="stroke-linejoin:round"/><path d="M855.56 296.64s-11.293-28.21-19.378-40.973c-9.125-14.407-32.466-39.539-32.466-39.539"/></g><path d="m663.48 204.64-13.973 26.731s35.47 22.49 52.17 35.18c26.322 20 51.788 41.29 75.45 64.38 23.552 22.983 45.43 47.745 65.897 73.51 15.561 19.585 31.05 39.511 43.11 61.42a273.789 273.789 0 0 1 22.805 54.792c3.648 12.436 4.161 25.592 6.818 38.28.93 4.439 3.191 13.226 3.191 13.226l7.611-4.376s.925-17.922.152-26.833c-.868-10-3.342-19.803-5.357-29.639-1.134-5.534-3.786-16.52-3.786-16.52s11.885 5.827 18.2 7.714c9.132 2.729 18.708 3.691 28.13 5.118 7.367 1.116 22.19 2.691 22.19 2.691l.698-10.528s-15.521-3.167-23.272-4.796c-11.907-2.503-24.476-2.934-35.691-7.653-6.03-2.538-11.809-6.147-16.363-10.846-7.289-7.52-10.75-17.986-16.531-26.719-13.273-20.05-27.04-39.789-41.65-58.888-11.975-15.659-24.17-31.22-37.649-45.607-25.884-27.633-54.994-52.06-82.69-77.876-14.496-13.512-28.94-27.08-43.694-40.31-8.48-7.604-25.762-22.45-25.762-22.45" style="fill:#000"/></svg>