<svg xmlns="http://www.w3.org/2000/svg" viewBox="0 0 707.78 773.1"><g stroke="#000"><path d="m10.813 9.53 685.21 2.679-13.396 255.87-10.05 170.8-18.08 111.19-30.14 72.34-46.22 57.6-77.03 52.24-83.73 27.462-81.72 4.02-79.04-16.745-61.62-24.783-59.61-40.19-45.547-51.575-30.14-79.04-21.434-101.14-6.698-115.21-12.06-212.33z" fill="#078930"/><path d="m10.815 9.53 8.719 113.19 12.03 212.34 6.719 115.19 21.438 101.16 30.12 79.03 45.563 51.563 59.59 40.19 61.62 24.781 79.03 16.75 18.219-.906V10.878L10.803 9.534z" fill="#fff"/><g fill="none"><g stroke-width="20"><path d="M356.08 763.09a358.09 358.09 0 0 1-61.899-5.401c-26.24-4.611-51.999-12.178-76.32-23.05-22.989-10.275-44.635-23.471-64.64-38.763-17.481-13.363-33.795-28.403-47.36-45.732-18.84-24.07-32.03-52.13-42.27-80.932-8.456-23.779-15.01-48.24-19.487-73.08-8.01-44.41-9.374-89.7-11.367-134.78-1.317-29.787-2.918-59.56-4.872-89.31-2.63-40.06-5.899-80.08-8.119-120.17-1.649-29.771-2.719-59.58-4.872-89.31a1228.647 1228.647 0 0 0-4.872-51.965h341.02"/><path d="M352.22 763.06a327.338 327.338 0 0 0 61.17-4.915c26.352-4.636 52.14-12.525 76.52-23.543 22.944-10.369 44.621-23.494 64.64-38.763 17.496-13.345 33.8-28.399 47.36-45.732 18.831-24.08 32.03-52.13 42.27-80.932 8.458-23.778 15.01-48.24 19.487-73.08 8.01-44.41 9.374-89.7 11.367-134.78 1.317-29.787 2.918-59.56 4.872-89.31 2.63-40.06 5.899-80.08 8.119-120.17 1.649-29.771 2.719-59.58 4.872-89.31 1.256-17.353 2.88-34.68 4.872-51.965h-341.02M347.62 10.56h13.789"/></g><path d="M353.88 2.5v759.82" stroke-width="5"/></g><g fill="#078930" stroke-width="5.138"><path d="m171.418 112.464-24.298 20.132s13.953-3.549 20.1-.852c4.36 1.913 6.356 7.134 9.245 10.918 3.295 4.313 9.215 13.41 9.215 13.41l2.706 133.991c-.284 1.47-.6 2.939-1.034 4.38-.795 2.634-.593 7.577-3.346 7.54-13.158-.17-9.458-24.561-15.083-36.461-2.914-6.161-5.61-12.56-9.671-18.033a38.202 38.202 0 0 0-7.968-7.968c-2.416-1.78-4.937-4.143-7.937-4.198h-.152c-3.286-1.853-7.572-2.972-10.461-5.26-3.931-3.11-8.093-6.144-11.009-10.218-2.16-3.018-3.922-6.497-4.53-10.158-.385-2.31-.63-5.005.607-6.995 2.247-3.61 7.575-4 10.918-6.63 3.318-2.61 6.465-5.55 8.94-8.97 2.845-3.932 6.107-8.156 6.57-12.986.478-4.997-1.543-10.177-4.136-14.476-2.98-4.94-8.063-8.293-12.5-11.982-8.696-7.232-18.278-13.306-27.52-19.827-6.263-4.42-18.945-13.077-18.945-13.077s-3.256 13.116-4.987 19.647c-2.065 7.785-3.3 15.862-6.417 23.295-3.46 8.252-11.756 14.45-13.472 23.234-1.062 5.448-.034 11.465 2.341 16.483 2.293 4.842 6.19 9.252 10.888 11.829 5.393 2.958 12.005 3.134 18.154 3.254 4.807.093 9.66-.717 14.294-2.008 2.563-.713 4.914-4.258 7.328-3.132 2.638 1.232 1.28 5.73 2.525 8.363 2.081 4.402 4.957 8.458 8.15 12.134a66.456 66.456 0 0 0 12.042 10.826c.22.155.446.347.67.517-.304.479-.544.997-.639 1.581-1.325 8.096 12.21 11.005 17.604 17.182 4.01 4.588 10.442 8.613 10.918 14.684.169 2.16-.838 4.264-2.22 6.112-1.943-.546-4.053-.924-5.747-1.52a54.29 54.29 0 0 0-12.894-2.828c-3.942-.368-7.966-.345-11.86.364-2.33.425-4.658 3.44-6.721 2.282-1.886-1.06-.656-4.294-1.4-6.326-1.342-3.671-3.104-7.238-5.443-10.37-2.992-4.006-6.227-8.33-10.734-10.49-3.931-1.884-8.7-2.36-12.985-1.582-4.44.807-8.915 2.982-12.013 6.265-4.992 5.292-5.127 13.721-8.94 19.919-3.435 5.579-8.21 10.212-12.378 15.266-3.495 4.236-10.613 12.62-10.613 12.62s11.716 4.25 17.604 6.296c8.686 3.019 17.254 6.498 26.153 8.817 4.538 1.184 9.16 2.955 13.837 2.584 4.068-.323 8.45-1.453 11.525-4.136 2.972-2.593 4.194-6.75 5.444-10.49 1.088-3.257 1.55-6.73 1.703-10.158.155-3.454-2.112-7.145-.791-10.34.728-1.76 2.64-2.9 4.349-3.74 2.706-1.332 5.833-1.823 8.846-1.825 4.073-.003 8.066 1.342 11.982 2.463 1.282.368 2.522 1.03 3.77 1.764-1.026.358-1.968.833-2.645 1.643-1.59 1.9-2.867 4.761-2.098 7.116 1.638 5.023 9.163 5.619 12.59 9.64 6.49 7.615 9.28 17.731 14.232 26.43 4.033 7.082 8.925 13.673 12.59 20.953 2.584 5.132 2.362 13.97 4.35 19.462.19 6.684.588 20.918.699 30.44.24 20.684.308 41.354 0 62.037a426.104 426.104 0 0 0 .091 16.572c-3.677-.118-7.55.022-10.826-.943-5.907-1.738-12.045-3.237-17.243-6.538-3.848-2.445-7.475-5.628-9.853-9.518-1.5-2.457-2.989-5.436-2.494-8.272.9-5.148 6.768-8.024 9.367-12.56 2.58-4.5 4.804-9.316 6.052-14.353 1.433-5.788 3.246-12.104 1.55-17.82-1.753-5.916-6.47-10.893-11.403-14.598-5.669-4.258-12.985-5.714-19.736-7.876-13.238-4.24-26.976-6.736-40.507-9.915-9.172-2.154-27.582-6.203-27.582-6.203s2.313 16.456 3.345 24.693c1.231 9.829 3.539 19.599 3.406 29.495-.147 10.996-6.743 21.865-4.652 32.662 1.296 6.697 5.202 13.105 10.218 17.73 4.84 4.462 11.312 7.678 17.85 8.454 7.506.89 15.138-1.956 22.2-4.653 5.522-2.105 10.673-5.249 15.358-8.846 2.592-1.992 3.668-7.138 6.933-6.963 3.573.19 4.062 5.967 6.69 8.393 4.397 4.058 9.542 7.345 14.87 10.066a81.845 81.845 0 0 0 18.734 6.812c2.503.578 5.315 1.691 8.09 2.554 1.04 28.299 2.76 56.744-3.833 84.02-1.528 6.32-5.287 11.896-8.393 17.604-2.039 3.749-6.69 10.888-6.69 10.888s19.72-3.246 29.35-5.868c6.567-1.79 15.023-1.378 19.28-6.69 4.574-5.71 2.104-14.501 2.524-21.805.866-15.07-4.374-30.864 0-45.311 3.212-10.611 8.685-16.709 12.53-25.302 1.377-3.08 5.132-7.224 3.77-9.396.535-.363 1.06-.735 1.581-1.035a73.108 73.108 0 0 0 14.232-10.674c3.846-3.706 7.364-7.834 10.066-12.438 1.616-2.754.557-7.824 3.558-8.91 2.743-.995 4.993 3.138 7.725 4.166 4.936 1.86 10.156 3.192 15.418 3.558 6.73.468 13.983.913 20.162-1.794 5.383-2.358 10.07-6.793 13.046-11.86 3.084-5.25 4.767-11.737 4.136-17.79-1.016-9.761-9.46-17.317-12.438-26.67-2.681-8.423-3.245-17.38-4.744-26.093-1.255-7.301-3.557-21.925-3.557-21.925s-14.685 8.219-21.957 12.437c-10.734 6.225-21.817 11.921-32.022 18.976-5.205 3.599-11.073 6.753-14.81 11.86-3.251 4.445-5.966 9.913-5.93 15.42.035 5.321 3.204 10.237 5.93 14.81 2.372 3.977 5.509 7.497 8.88 10.673 3.395 3.2 9.178 4.14 11.282 8.302 1.16 2.294.645 5.237 0 7.725-1.02 3.94-3.277 7.587-5.93 10.674-3.582 4.168-8.453 7.05-13.046 10.066-2.71 1.781-6.337 2.648-9.61 3.801-6.57-2.199-17.486-1.338-17.486-1.338l1.673-112.367s-4.01-24.65-2.524-36.888c.885-7.283 6.16-13.662 6.72-20.983.248-3.216-.032-6.398-.547-9.58 0 0 5.618-4.401 8.301-6.751 4.915-4.304 8.863-9.76 14.263-13.442 5.296-3.606 17.394-8.18 17.394-8.18l-1.064-5.868s-3.367-2.31-5.991-4.744c.919-.07 1.847-.079 2.706.03 4.04.514 8.21.853 11.951 2.463 2.77 1.192 5.459 2.878 7.42 5.17 1.24 1.447 2.55 3.235 2.525 5.14-.047 3.457-3.584 5.948-4.806 9.184-1.211 3.211-2.177 6.584-2.463 10.004-.328 3.932-.826 8.244.882 11.795 1.767 3.678 5.36 6.43 8.971 8.333 4.15 2.185 9.078 2.398 13.712 3.102 9.092 1.378 18.318 1.536 27.49 2.19 6.218.442 18.675 1.156 18.675 1.156s-3.235-10.482-4.774-15.753c-1.836-6.29-4.368-12.434-5.322-18.916-1.06-7.197 2.104-15.003-.395-21.835-1.55-4.238-4.783-7.998-8.545-10.491-3.631-2.407-8.208-3.83-12.56-3.65-4.996.208-9.659 2.882-13.988 5.383-3.385 1.956-6.441 4.545-9.123 7.39-1.484 1.573-1.62 5.03-3.771 5.26-2.353.251-3.29-3.466-5.261-4.774-3.298-2.188-6.999-3.8-10.763-5.017-4.182-1.351-8.57-2.167-12.955-2.463-1.402-.095-2.98-.404-4.562-.67-.506-1.259-.723-2.553-.365-3.8.024-.087.058-.163.091-.244.823-.621 1.632-1.31 2.433-2.008 1.855-.835 4.07-1.428 4.41-3.193.023-.12.026-.243.03-.364a66.665 66.665 0 0 0 11.464-10.431c3.193-3.677 6.038-7.702 8.12-12.104 1.245-2.633-.114-7.161 2.524-8.393 2.41-1.126 4.766 2.449 7.329 3.162 4.632 1.29 9.485 2.07 14.293 1.977 6.15-.12 12.758-.296 18.155-3.254 4.697-2.577 8.594-6.957 10.887-11.795 2.377-5.017 3.404-11.064 2.342-16.513-1.712-8.787-10.012-14.95-13.472-23.203-3.116-7.432-4.352-15.535-6.417-23.325-1.731-6.529-4.987-19.648-4.987-19.648s-12.651 8.687-18.916 13.107c-9.243 6.521-18.855 12.566-27.552 19.798-4.437 3.688-9.519 7.041-12.5 11.982-2.593 4.298-4.614 9.478-4.135 14.475.462 4.83 3.724 9.054 6.569 12.986 2.475 3.42 5.622 6.36 8.94 8.971 3.342 2.63 8.671 3.019 10.918 6.63 1.238 1.989.993 4.684.608 6.995-.608 3.66-2.371 7.17-4.53 10.187-2.916 4.075-7.082 7.077-11.01 10.188-1.807 1.43-4.164 2.426-6.477 3.406-1.62.076-3.222.458-4.562 1.186-2.929 1.592-3.921 5.428-5.443 8.394-2.195 4.27-2.749 9.318-5.261 13.41-1.811 2.949-6.904 7.755-6.904 7.755s-4.396 5.878-8.514 11.221c-.221-1.29-.39-2.595-.517-3.892-2.147-21.995-1.755-44.151-2.494-66.231-.645-19.285-8.184-39.696-1.703-57.872 1.863-5.226 7.688-8.078 10.917-12.59 2.26-3.159 5.868-10.037 5.868-10.037l-18.459-5.868s-5.413 6.32-8.393 9.215c-1.85 1.795-3.3 5.202-5.868 5.017-11.856-.851-23.472-26.822-23.472-26.822z" stroke-width="4.99994194"/><path d="M174.785 601.783c-1.002-7.51 13.125-7.568 19.707-11.322 7.394-4.216 14.372-9.29 22.222-12.578 4.693-1.966 9.958-6.099 14.675-4.193 2.845 1.149 4.291 4.914 4.613 7.967.707 6.725-1.634 14.382-6.29 19.287-2.68 2.824-7.091 3.391-10.902 4.193-8.626 1.815-17.652 2.176-26.41 1.258-6.036-.631-16.808 1.403-17.614-4.612z" stroke-linejoin="round" stroke-width="4.99994194"/><g stroke-linecap="round"><path d="m208.085 203.948-2.371 41.508 1.186 46.252M218.167 502.212l-1.779 59.297M209.866 520.595v46.846M265.607 445.294s5.023-14.841 8.302-21.94c4.637-10.04 10.579-19.424 16.01-29.056 2.914-5.168 5.453-10.584 8.894-15.417 2.275-3.196 7.708-8.895 7.708-8.895s-11.294 20.66-16.01 31.432c-6.17 14.093-10.31 28.998-16.01 43.285-1.115 2.797-3.557 8.302-3.557 8.302M278.764 440.564s7.394.898 11.111 1.048c5.517.225 11.055.186 16.563-.209 2.67-.192 7.967-1.048 7.967-1.048M282.325 430.502s7.27.126 10.902 0c4.061-.14 8.164-.104 12.16-.839 4.022-.74 11.736-3.563 11.736-3.563M287.57 415.195s6.842.912 10.273.839c2.816-.06 5.617-.532 8.385-1.048 1.416-.265 4.194-1.048 4.194-1.048" stroke-width="4.99994194"/><path d="M291.132 404.082s6.851-.453 10.273-.629c1.676-.087 3.536.554 5.03-.21 1.507-.769 3.146-3.982 3.146-3.982M299.735 387.733s4.292-.742 6.08-1.887c.792-.507 1.887-2.096 1.887-2.096M266.61 439.3s-4.915-6.974-7.338-10.483c-1.058-1.531-2.184-3.019-3.145-4.613-.694-1.151-1.563-2.26-1.887-3.564-.152-.61 0-1.258 0-1.886 0-.49-.06-.983 0-1.468.07-.572.42-1.677.42-1.677M270.375 426.094s-3.76-5.24-5.03-8.176c-1.38-3.19-2.176-6.632-2.726-10.063-.621-3.87-.629-11.736-.629-11.736M279.182 411.215s-4.69-6.445-6.29-10.063a25.16 25.16 0 0 1-1.886-6.71c-.23-1.66 0-5.03 0-5.03M289.244 398.214s-4.648-4.949-6.08-7.967c-.646-1.364-1.048-4.403-1.048-4.403M294.071 387.519s-.524-7.123-.628-10.692c-.025-.838 0-2.515 0-2.515M143.518 450.539s-10.217-14.274-16.043-20.816c-8.24-9.252-17.662-17.376-26.624-25.934-4.807-4.591-9.292-9.57-14.555-13.634-3.48-2.685-11.16-7.025-11.16-7.025s18.834 18.467 27.394 28.474c11.204 13.097 20.494 27.727 31.257 41.193 2.107 2.634 6.517 7.74 6.517 7.74M127.87 449.75s-7.634 3.37-11.57 4.743c-5.838 2.037-11.794 3.799-17.822 5.168-2.93.664-8.882 1.47-8.882 1.47M120.776 440.126s-7.752 2.501-11.687 3.55c-4.399 1.173-8.787 2.547-13.308 3.06-4.552.518-13.75.004-13.75.004M110.17 425.422s-7.034 3.205-10.744 4.244c-3.04.853-6.194 1.26-9.33 1.607-1.605.177-4.837.241-4.837.241" stroke-width="4.99994194"/><path d="M102.734 414.68s-7.486 1.743-11.217 2.67c-1.826.454-3.61 1.745-5.462 1.414-1.866-.333-4.668-3.246-4.668-3.246M88.196 399.946s-4.843.601-7.132-.043c-1.014-.285-2.706-1.633-2.706-1.633M140.492 444.447s2.996-9.075 4.452-13.624c.635-1.985 1.357-3.947 1.87-5.968.369-1.46.94-2.929.861-4.434-.036-.704-.41-1.35-.614-2.023-.16-.524-.256-1.072-.477-1.573-.262-.59-.996-1.661-.996-1.661M132.152 431.514s2.327-6.84 2.732-10.403c.44-3.868.172-7.814-.356-11.674-.594-4.35-3.149-12.787-3.149-12.787M117.867 418.426s2.929-8.436 3.465-12.836a28.185 28.185 0 0 0-.162-7.804c-.295-1.856-1.638-5.394-1.638-5.394M102.841 407.77s3.372-6.822 3.922-10.52c.25-1.671-.31-5.06-.31-5.06M94.19 397.873s-1.757-7.804-2.807-11.666c-.246-.907-.82-2.696-.82-2.696M272.185 205.145s3.362-13.884 5.765-20.592c3.4-9.492 8.036-18.49 12.19-27.68 2.228-4.928 4.097-10.052 6.831-14.723 1.808-3.087 6.28-8.7 6.28-8.7s-8.585 19.676-11.997 29.834c-4.464 13.295-7.017 27.166-11.038 40.602-.788 2.63-2.56 7.824-2.56 7.824M283.756 199.793s6.788.216 10.175.053c5.028-.242 10.054-.725 15.023-1.53 2.41-.39 7.15-1.596 7.15-1.596M286.17 190.363s6.61-.474 9.899-.882c3.676-.455 7.405-.755 10.974-1.745 3.593-.996 10.373-4.185 10.373-4.185M289.692 176.038s6.284.276 9.397-.069c2.552-.282 5.057-.936 7.53-1.63 1.265-.355 3.723-1.291 3.723-1.291" stroke-width="4.99994194"/><path d="M292.037 165.665s6.18-.965 9.278-1.402c1.515-.215 3.256.217 4.552-.598 1.306-.82 2.534-3.871 2.534-3.871M298.518 150.114s3.838-1.022 5.37-2.205c.677-.524 1.543-2.056 1.543-2.056M272.604 199.627s-5.025-5.935-7.51-8.925c-1.085-1.305-2.228-2.566-3.23-3.932-.723-.989-1.601-1.926-2.001-3.084-.187-.542-.102-1.142-.153-1.713-.04-.444-.133-.887-.119-1.333.018-.525.245-1.557.245-1.557M274.969 187.327s-3.84-4.453-5.231-7.018c-1.51-2.786-2.512-5.849-3.288-8.918-.877-3.464-1.521-10.61-1.521-10.61M281.761 173.1s-4.78-5.474-6.525-8.63a22.924 22.924 0 0 1-2.255-5.94c-.343-1.49-.407-4.569-.407-4.569M289.848 160.488s-4.622-4.117-6.165-6.743c-.697-1.185-1.308-3.912-1.308-3.912M293.36 150.387s-1.051-6.427-1.435-9.659c-.09-.759-.203-2.284-.203-2.284M113.254 199.024s-3.361-13.884-5.765-20.592c-3.4-9.492-8.036-18.49-12.19-27.68-2.228-4.928-4.096-10.052-6.83-14.723-1.809-3.087-6.281-8.7-6.281-8.7s8.586 19.676 11.997 29.834c4.464 13.296 7.018 27.166 11.039 40.603.787 2.629 2.559 7.823 2.559 7.823M101.693 193.662s-6.787.216-10.175.053c-5.028-.242-10.054-.725-15.023-1.53-2.41-.39-7.15-1.595-7.15-1.595M99.27 184.232s-6.611-.474-9.9-.881c-3.675-.456-7.404-.756-10.974-1.745-3.592-.997-10.372-4.186-10.372-4.186M95.747 169.917s-6.283.276-9.396-.069c-2.553-.282-5.058-.936-7.53-1.63-1.265-.355-3.724-1.291-3.724-1.291" stroke-width="4.99994194"/><path d="M93.402 159.534s-6.18-.964-9.278-1.402c-1.515-.214-3.256.217-4.552-.598-1.306-.82-2.534-3.87-2.534-3.87M86.921 143.993s-3.838-1.022-5.369-2.205c-.678-.524-1.544-2.056-1.544-2.056M112.835 193.506s5.026-5.935 7.511-8.925c1.084-1.305 2.228-2.566 3.229-3.932.723-.989 1.602-1.926 2.002-3.084.186-.542.102-1.142.152-1.713.04-.444.134-.887.12-1.333-.018-.525-.246-1.557-.246-1.557M110.47 181.206s3.84-4.453 5.231-7.018c1.51-2.786 2.512-5.849 3.289-8.918.876-3.464 1.52-10.61 1.52-10.61M103.678 166.979s4.78-5.474 6.525-8.63a22.924 22.924 0 0 0 2.256-5.94c.342-1.49.407-4.569.407-4.569M95.592 154.357s4.621-4.117 6.164-6.743c.697-1.185 1.308-3.912 1.308-3.912M92.079 144.256s1.052-6.427 1.435-9.658c.09-.76.203-2.285.203-2.285M281.732 274.393s8.173 8.249 12.67 11.91c6.354 5.177 13.364 9.493 20.116 14.14 3.622 2.494 7.075 5.275 10.939 7.374 2.555 1.388 8.027 3.415 8.027 3.415s-14.243-10.082-20.887-15.716c-8.694-7.377-16.3-15.956-24.745-23.617-1.652-1.5-5.07-4.372-5.07-4.372M292.037 273.264s4.632-3.003 7.058-4.313c3.601-1.944 7.302-3.72 11.098-5.25 1.841-.74 5.646-1.893 5.646-1.893M297.681 278.801s4.8-2.448 7.26-3.547c2.75-1.228 5.47-2.587 8.37-3.397 2.92-.817 8.979-1.446 8.979-1.446M306.148 287.287s4.256-2.832 6.568-3.903c1.896-.875 3.912-1.473 5.926-2.03 1.03-.284 3.133-.665 3.133-.665" stroke-width="4.99994194"/><path d="M312.142 293.524s4.707-1.925 7.046-2.919c1.144-.488 2.175-1.519 3.418-1.498 1.254.023 3.39 1.63 3.39 1.63M323.187 301.62s3.1-.901 4.662-.72c.692.08 1.939.782 1.939.782M284.35 278.052s-1.004 6.242-1.477 9.368c-.206 1.363-.472 2.72-.593 4.095-.088.992-.306 2.013-.098 2.987.098.456.41.838.614 1.257.16.326.28.673.478.973.233.358.825.983.825.983M291.152 285.623s-.801 4.712-.691 7.081c.12 2.573.71 5.125 1.459 7.589.845 2.779 3.4 8.023 3.4 8.023M301.866 292.668s-1.026 5.818-.915 8.748c.065 1.72.39 3.445.927 5.081.388 1.182 1.636 3.35 1.636 3.35M312.794 298.05s-1.486 4.807-1.457 7.282c.013 1.119.735 3.273.735 3.273M319.48 303.606s1.968 4.914 3.06 7.325c.255.566.818 1.676.818 1.676M117.487 283.637s-10.763 4.355-16.338 5.946c-7.881 2.25-16.025 3.451-24.062 5.058-4.312.862-8.583 2.054-12.962 2.459-2.896.267-8.724-.03-8.724-.03s17.065-3.645 25.399-6.203c10.9-3.349 21.274-8.23 32.056-11.94 2.11-.725 6.384-2.016 6.384-2.016M108.466 278.538s-3.072-4.587-4.784-6.747c-2.542-3.208-5.241-6.3-8.126-9.202-1.4-1.409-4.442-3.969-4.442-3.969M101.09 281.4s-3.445-4.144-5.272-6.125c-2.041-2.213-4.006-4.534-6.35-6.424-2.361-1.902-7.68-4.876-7.68-4.876M89.957 285.856s-2.794-4.282-4.497-6.175c-1.395-1.553-3.014-2.898-4.643-4.204-.833-.668-2.617-1.848-2.617-1.848" stroke-width="4.99994194"/><path d="M81.997 289.223s-3.565-3.627-5.321-5.466c-.86-.9-1.4-2.254-2.55-2.725-1.162-.474-3.759.16-3.759.16M68.655 292.308s-2.493-2.052-4-2.503c-.667-.2-2.09-.046-2.09-.046M113.643 285.973s-1.541 6.132-2.34 9.19c-.348 1.334-.639 2.687-1.07 3.997-.31.947-.514 1.97-1.09 2.783-.27.38-.706.608-1.06.913-.274.236-.522.508-.824.71-.355.237-1.144.574-1.144.574M104.398 290.245s-1.124 4.646-2.159 6.78c-1.125 2.317-2.673 4.428-4.334 6.397-1.874 2.22-6.29 6.03-6.29 6.03M91.777 292.493s-1.353 5.751-2.611 8.399a18.625 18.625 0 0 1-2.856 4.304c-.822.932-2.826 2.433-2.826 2.433M79.613 293.125s-.532 5.004-1.535 7.268c-.453 1.022-1.966 2.718-1.966 2.718M71.273 295.587s-3.747 3.74-5.702 5.524c-.459.42-1.413 1.216-1.413 1.216" stroke-width="4.99994194"/></g></g><g stroke-linecap="round"><g fill="#fff" stroke-linejoin="round"><g stroke-width="5"><path d="M504.24 171.301c-63.754 0-115.44 57.957-115.44 129.47 0 13.398 1.82 26.314 5.188 38.469.003.001-.003.022 0 .031 1.196 8.716 2.387 17.28 3.344 23.813 4.601 31.396 12.206 62.43 14.656 94.06 1.132 14.615 2.348 29.499 0 43.969-2.269 13.981-7.35 27.523-13.438 40.31-2.282 4.794-10.833 8.654-8.531 13.438 16.514 34.32 75.56 14.279 113.59 12.219l.625-.031c.195.001.4.021.594.031 38.03 2.06 97.08 22.1 113.59-12.219 2.302-4.784-6.25-8.644-8.531-13.438-6.087-12.789-11.169-26.332-13.438-40.31-2.348-14.469-1.132-29.354 0-43.969 2.45-31.637 10.06-62.67 14.656-94.06.951-6.493 2.12-14.995 3.313-23.656 3.401-12.21 5.25-25.19 5.25-38.656 0-71.51-51.684-129.47-115.44-129.47zM504.24 88.331c-22.644 0-41 18.356-41 41s18.356 41 41 41 41-18.356 41-41-18.356-41-41-41zm0 10.688c16.741 0 30.31 13.572 30.31 30.31 0 16.741-13.572 30.31-30.31 30.31-16.741 0-30.31-13.572-30.31-30.31 0-16.741 13.572-30.31 30.31-30.31z"/></g><path transform="matrix(.98414 0 0 3.45859 729.028 -1545.949)" d="M-112.38 607.42c0 6.242-51.954 11.302-116.04 11.302-64.09 0-116.04-5.06-116.04-11.302s51.954-11.302 116.04-11.302c64.09 0 116.04 5.06 116.04 11.302z" stroke-width="2.71"/><g stroke-width="5"><path d="M504.24 533.761c-54.01 0-99.27 12.849-111.16 30.09 11.886 17.245 57.14 30.09 111.16 30.09 54.01 0 99.24-12.849 111.12-30.09-11.886-17.245-57.11-30.09-111.12-30.09z"/><path d="M504.24 533.761c-6.131 0-12.13.181-18 .5V587.412c-3.98 4.129-6.406 9.648-6.406 15.688 0 12.818 10.945 23.22 24.438 23.22 13.493 0 24.406-10.401 24.406-23.22 0-6.04-2.426-11.559-6.406-15.688V534.261c-5.878-.32-11.889-.5-18.03-.5z"/></g></g><g fill="none" stroke-width="5"><path d="M536.15 190.703h10.15M553.92 204.023h9.516M563.43 216.073h11.419M571.68 224.323h9.516M577.39 236.383h13.322M584.37 249.063h8.882"/></g><g fill="none" stroke-width="5"><path d="M421.73 419.095h13.01M428.46 430.755h8.523M427.56 454.535h12.11M430.25 468.445h14.355M430.25 477.415h20.19M425.77 496.705h25.12M425.32 506.575h27.364M507.63 543.61h8.928M487.2 601.23h9.516M487.76 608.72h9.516M492.03 616.62h8.882M507.07 551.2h8.928M507.07 559.25h8.928"/></g></g></g><g font-family="Sans" text-anchor="middle" word-spacing="0" letter-spacing="0"><text x="448.22" y="796.93" transform="rotate(7.82 635.943 -132.067)" fill="#170406" font-size="5.422"><tspan x="448.22" y="796.93">Christian Duscha</tspan></text><text x="213.37" y="927.77" transform="rotate(-14.29 -356.172 4.214)" fill="#180406" font-size="4.454"><tspan x="213.37" y="927.77">Gleiwitz-Essen-Landshut</tspan></text></g></svg>