<svg xmlns="http://www.w3.org/2000/svg" version="1.0" width="620.018" height="652.93"><defs><linearGradient id="j"><stop style="stop-color:#d8201f;stop-opacity:1" offset="0"/><stop style="stop-color:#d8201f;stop-opacity:0" offset="1"/></linearGradient><linearGradient id="i"><stop style="stop-color:#fff;stop-opacity:1" offset="0"/><stop style="stop-color:#000;stop-opacity:1" offset=".5"/><stop style="stop-color:#fff;stop-opacity:0" offset="1"/></linearGradient><linearGradient id="g"><stop style="stop-color:#150000;stop-opacity:1" offset="0"/><stop style="stop-color:#0a0000;stop-opacity:.49803901" offset="1"/><stop style="stop-color:#000;stop-opacity:0" offset="1"/></linearGradient><linearGradient id="h"><stop style="stop-color:#00f;stop-opacity:1" offset="0"/><stop style="stop-color:#00007f;stop-opacity:1" offset=".5"/><stop style="stop-color:#00003f;stop-opacity:.49803901" offset=".75"/><stop style="stop-color:#000;stop-opacity:0" offset="1"/></linearGradient><linearGradient id="e"><stop style="stop-color:#00a43f;stop-opacity:1" offset="0"/><stop style="stop-color:#000;stop-opacity:.49803901" offset=".973"/><stop style="stop-color:#00a43f;stop-opacity:0" offset="1"/></linearGradient><linearGradient id="d"><stop style="stop-color:#f9d100;stop-opacity:1" offset="0"/><stop style="stop-color:#f9d100;stop-opacity:.69019598" offset=".639"/><stop style="stop-color:#fff;stop-opacity:.58823502" offset=".956"/><stop style="stop-color:#fce87f;stop-opacity:.29411799" offset=".979"/><stop style="stop-color:#f9d100;stop-opacity:0" offset="1"/></linearGradient><linearGradient id="c"><stop style="stop-color:#f9d100;stop-opacity:1" offset="0"/><stop style="stop-color:#f9d100;stop-opacity:1" offset=".5"/><stop style="stop-color:#f9d100;stop-opacity:0" offset="1"/></linearGradient><linearGradient id="b"><stop style="stop-color:#f9d100;stop-opacity:1" offset="0"/><stop style="stop-color:#f9d100;stop-opacity:1" offset=".148"/><stop style="stop-color:#fff;stop-opacity:1" offset=".5"/><stop style="stop-color:#fff;stop-opacity:0" offset="1"/></linearGradient><linearGradient id="a"><stop style="stop-color:#f9d100;stop-opacity:1" offset="0"/><stop style="stop-color:#f9d100;stop-opacity:0" offset="1"/></linearGradient><linearGradient id="f"><stop style="stop-color:#f8f8f8;stop-opacity:1" offset="0"/><stop style="stop-color:#f8f8f8;stop-opacity:0" offset="1"/></linearGradient></defs><path d="M614.062 30.806s-15.735 296.369-22.047 365.653c-5.995 65.822-37.469 127.982-88.623 175.028-52.93 48.683-121.603 75.487-193.379 75.487-71.771 0-140.456-26.804-193.378-75.487C65.48 524.441 34.01 462.281 28.019 396.46c-2.72-29.833-7.188-101.77-11.395-174.02C11.061 126.895 5.956 30.805 5.956 30.805c202.702-30.646 405.404-35.53 608.106 0z" style="fill:#fd0;fill-opacity:1;stroke:#231f20;stroke-width:11.91156101;stroke-linecap:butt;stroke-linejoin:miter;stroke-miterlimit:4;stroke-dasharray:none;stroke-opacity:1"/><path d="M523.1 523.084c-40.134 0-50.582-27.974-96.61-28.094-37.468.637-68.92 28.094-114.355 28.094-55.39 0-79.967-30.588-129.166-29.403-32.014 1.569-62.178 29.403-86.328 29.403-20.856-26.852-37.726-57.689-47.857-95.265 53.171 25.505 98.114-12.51 135.929-10.519 53.746-.679 87.261 26.277 127.422 24.566 43.949.524 73.535-27.476 111.937-24.566 40.698-3.695 92.906 38.712 143.963 10.52 1.747 10.515-24.592 78.068-44.934 95.264z" style="fill:#231f20;fill-opacity:1;fill-rule:evenodd;stroke:#231f20;stroke-width:5.25934505px;stroke-linecap:round;stroke-linejoin:round;stroke-opacity:1"/><g style="stroke:#231f20;stroke-width:1.70000005;stroke-linecap:round;stroke-linejoin:round;stroke-miterlimit:4;stroke-dasharray:none;stroke-opacity:1"><path d="M-577.757 535.486c38.061-27.905 76.123-25.392 114.184 0-50.72-16.88-84.302-10.907-114.184 0z" style="fill:#fff;fill-rule:evenodd;stroke:#231f20;stroke-width:1.70000005;stroke-linecap:round;stroke-linejoin:round;stroke-miterlimit:4;stroke-dasharray:none;stroke-opacity:1" transform="matrix(1.00048 0 0 .76338 714.293 30.767)"/><path d="M-555.068 544.106c22.8-16.716 45.6-15.21 68.4 0-30.383-10.111-50.5-6.533-68.4 0z" style="fill:#fff;fill-rule:evenodd;stroke:#231f20;stroke-width:1.70000005;stroke-linecap:round;stroke-linejoin:round;stroke-miterlimit:4;stroke-dasharray:none;stroke-opacity:1" transform="matrix(1.00048 0 0 .76338 714.293 30.767)"/></g><g style="stroke:#231f20;stroke-width:1.70000005;stroke-linecap:round;stroke-linejoin:round;stroke-miterlimit:4;stroke-dasharray:none;stroke-opacity:1"><path d="M-577.757 535.486c38.061-27.905 76.123-25.392 114.184 0-50.72-16.88-84.302-10.907-114.184 0z" style="fill:#fff;fill-rule:evenodd;stroke:#231f20;stroke-width:1.70000005;stroke-linecap:round;stroke-linejoin:round;stroke-miterlimit:4;stroke-dasharray:none;stroke-opacity:1" transform="matrix(1.00048 0 0 .76338 944.905 31.821)"/><path d="M-555.068 544.106c22.8-16.716 45.6-15.21 68.4 0-30.383-10.111-50.5-6.533-68.4 0z" style="fill:#fff;fill-rule:evenodd;stroke:#231f20;stroke-width:1.70000005;stroke-linecap:round;stroke-linejoin:round;stroke-miterlimit:4;stroke-dasharray:none;stroke-opacity:1" transform="matrix(1.00048 0 0 .76338 944.905 31.821)"/></g><g style="stroke:#231f20;stroke-width:1.70000005;stroke-linecap:round;stroke-linejoin:round;stroke-miterlimit:4;stroke-dasharray:none;stroke-opacity:1"><path d="M-577.757 535.486c38.061-27.905 76.123-25.392 114.184 0-50.72-16.88-84.302-10.907-114.184 0z" style="fill:#fff;fill-rule:evenodd;stroke:#231f20;stroke-width:1.70000005;stroke-linecap:round;stroke-linejoin:round;stroke-miterlimit:4;stroke-dasharray:none;stroke-opacity:1" transform="matrix(1.00048 0 0 -.76338 834.767 903.907)"/><path d="M-555.068 544.106c22.8-16.716 45.6-15.21 68.4 0-30.383-10.111-50.5-6.533-68.4 0z" style="fill:#fff;fill-rule:evenodd;stroke:#231f20;stroke-width:1.70000005;stroke-linecap:round;stroke-linejoin:round;stroke-miterlimit:4;stroke-dasharray:none;stroke-opacity:1" transform="matrix(1.00048 0 0 -.76338 834.767 903.907)"/></g><g style="stroke:#231f20;stroke-width:1.70000005;stroke-linecap:round;stroke-linejoin:round;stroke-miterlimit:4;stroke-dasharray:none;stroke-opacity:1"><path d="M-519.88 515.516c18.769.49 37.538 7.448 56.307 19.97-24.443-8.134-44.905-10.962-62.89-10.487.06.198 1.77-6.578 6.583-9.483zM-528.311 532.584c13.88-1.919 27.762 2.262 41.643 11.522-17.577-5.85-31.718-7.117-43.981-5.882-.625-.484.664-3.446 2.338-5.64z" style="fill:#fff;fill-rule:evenodd;stroke:#231f20;stroke-width:1.70000005;stroke-linecap:round;stroke-linejoin:round;stroke-miterlimit:4;stroke-dasharray:none;stroke-opacity:1" transform="matrix(1.00048 0 0 -.76338 620.9 900.523)"/></g><g style="stroke:#231f20;stroke-width:1.70000005;stroke-linecap:round;stroke-linejoin:round;stroke-miterlimit:4;stroke-dasharray:none;stroke-opacity:1"><path d="M-519.88 515.516c18.769.49 37.538 7.448 56.307 19.97-24.443-8.134-44.905-10.962-62.89-10.487.06.198 1.77-6.578 6.583-9.483zM-528.311 532.584c13.88-1.919 27.762 2.262 41.643 11.522-17.577-5.85-31.718-7.117-43.981-5.882-.625-.484.664-3.446 2.338-5.64z" style="fill:#fff;fill-rule:evenodd;stroke:#231f20;stroke-width:1.70000005;stroke-linecap:round;stroke-linejoin:round;stroke-miterlimit:4;stroke-dasharray:none;stroke-opacity:1" transform="matrix(-1.00048 0 0 -.76338 5.682 901.403)"/></g><path d="M-349.333 220.667c136.494 49.015 44.454 198.002-60.227 254.612-8.937 4.471-8.937 4.277-19.053-2.212-28.854-16.656-58.7-42.62-82.479-71.845-40.449 51.464-42.897 64.834-51.348 49.634-1.395-.456-10.933-26.536-16.595-35.848-.788-1.296-1.946-1.818-3.527-.34-6.622 6.187-25.688 28.95-27.254 30.286-2.462 2.104 13.2 9.244 11.08 10.914-1.965 1.547-61.52 45.52-58.028 37.833.812-1.785 19.224-43.906 23.59-58.074 1.31-4.247 6.612 4.019 12.135 5.578 3.538 2.51 6.123-5.72 38.335-51.126 6.69-8.684 7.789 1.419 21.104 30.034 2.97 6.025 5.078 6.081 35.17-39.473-29.508-43.513-43.26-90.86-20.553-124.31 1.375-2.025-11.376-16.631-25.204-34.697-11.382-14.87-9.6-7.93-30.47 36.325-.944 2.001-2.884 8.852-5.505 7.5-2.906-1.501-10.058-13.322-33.071-42.297-.13-.163-3.164-1.369-5.56.6-4.447 3.653-11.64 11.904-12.273 7.337-2.596-18.73-19.724-61.82-18.39-63.112 3.342-3.239 6.204 2.066 10.983 5.495 10.985 7.881 25.319 20.125 39.764 27.43 4.044 2.044.587 6.728-3.269 8.91-3.24 1.834-5.408 5.152-5.385 5.024.482-2.7 16.387 21.507 24.599 30.178 2.851 3.012 3.996 2.64 6.35-2.795 6.277-14.494 14.355-35.629 18.365-48.847 4.33-14.272 18.65 5.517 9.801-5.579-6.78-8.502 41.543 54.737 44.804 52.217 8.706-6.73 19.73-12.475 33.358-16.99 6.5-1.679 3.676-1.783.04-5.52-14.94-15.793-12.414-37.731-39.533-45.543 19.936-11.072 38.041-2.004 56.193 6.556-9.915-23.828 7.415-45.985-15.922-65.558 39.445-11.683 28.939 38.373 40.272 41.208 5.462-22.042 27.518-36.522 8.429-59.94 51.658 11.177 30.11 54.097 30.11 72.115 12.334-5.862 17.208-25.577 16.717-55.257 10.318 18.727 28.122 35.207 21.54 59.003 15.907-2.868 13.053-31.97 49.638-35.589-7.36 14.115-17.957 26.61-14.985 45.891 17.512-5.516 30.097-22.918 51.51-16.858-24.836 10.471-18.809 40.181-55.256 57.13z" style="fill:#231f20;fill-opacity:1;fill-rule:evenodd;stroke:#231f20;stroke-width:2;stroke-linecap:butt;stroke-linejoin:miter;stroke-miterlimit:4;stroke-dasharray:none;stroke-opacity:1" transform="translate(725.958 -78.98)"/><path d="M-410.935 257.09c78.435-74.24 129.011 17.379 125.789 48.398-9.07 76.791-68.28 133.667-127.663 165.214-6.064 4.459-9.523.726-15.21-2.9-71.224-45.84-165.23-152.421-106.482-218.609 11.51-11.025 67.477-49.74 110.121 7.999 5.883 5.918 5.883 6.523 13.445-.102z" style="fill:#ed1c24;fill-opacity:1;fill-rule:evenodd;stroke:#231f20;stroke-width:2;stroke-linecap:butt;stroke-linejoin:miter;stroke-miterlimit:4;stroke-dasharray:none;stroke-opacity:1" transform="translate(725.958 -78.98)"/><path d="m-322.454 261.806 52.286-60.494c5.245-6.6 5.411-7.163 7.114-1.72l16.806 46.162c5.934 12.84 5.593 12.462 9.827 5.695l30.678-37.426c2.296-5.999-17.485-8.96-7.112-16.173l41.42-27.959c4.086-3.074 5.317-1.573 1.938 8.171l-15.451 44.006c-3.274 19.601-13.502-4.21-14.395-3.134l-36.463 53.325c-8.685 15.427-6.749-1.804-26.677-39.004-4.934-9.677-4.566-10.075-10.994-1.236l-37.02 46.626c-6.352 7.466-12.368-4.982-14.525-9.008-1.017-1.897-.57-4.351 2.568-7.83zM-343.225 401.787l49.612 55.149c6.773 9.272 9.23 6.398 10.933 3.247l15.66-42.344c2.88-9.022 5.593-7.499 9.827-2.26l37.55 36.664c2.297 5.998-17.103 10.104-6.73 17.318l42.947 24.14c7.207 2.076 2.93-5.53 1.939-8.17l-15.451-38.66c-3.656-16.93-15.03 2.682-15.922 1.606l-43.718-57.143c-10.594-18.864-13.24.277-26.677 39.004-3.788 6.622-2.657 5.874-10.994-1.819l-37.02-49.68c-6.352-7.467-13.88-2.987-18.714 5.88-2.8 5.137 2.332 11.334 6.758 17.068zM-404.698 441.324c3.798-2.977 6.86-.434 4.878 1.323-2.327 2.633-6.824 5.81-11.143 8.941-5.795 4.736-12.774 1.023-14.795-.34-18.097-12.205-34.142-21.283-55.446-42.652-2.158-4.603 1.972-3.111 4.787-.616 19.071 18.485 35.86 27.067 53.477 39.738 7.641 4.765 13.19-2.3 18.242-6.394zM-458.604 397.943c-1.963-2.123-4.406-.693-3.284 2.318 10.104 11.318 15.623 14.788 27.238 22.602 3.06 1.974 6.325.64 2.704-2.125-10.818-7.258-17.772-13.443-26.658-22.795z" style="fill:#231f20;fill-opacity:1;fill-rule:evenodd;stroke:#231f20;stroke-width:1px;stroke-linecap:butt;stroke-linejoin:miter;stroke-opacity:1" transform="translate(725.958 -78.98)"/><path d="M-344.856 358.154c2.437-.826 3.253-5.272-.279-4.53-12.872 2.63-22.302 8.764-26.535 21.825-2.097 3.876 1.331 6.292 5.009 2.737 7.062-13.803 16.23-16.74 21.805-20.032z" style="fill:#231f20;fill-opacity:1;fill-rule:evenodd;stroke:#231f20;stroke-width:1.12270224px;stroke-linecap:butt;stroke-linejoin:miter;stroke-opacity:1" transform="translate(725.958 -78.98)"/><path d="M-364.61 389.16c2.31-3.679 4.511-3.332 5.68-.608-2.253 6.987.602 8.867 1.827 12.377.84 2.869-1.566 2.492-4.464 1.623-4.628-4.05-3.733-7.747-3.043-13.392z" style="fill:#231f20;fill-opacity:1;fill-rule:evenodd;stroke:#231f20;stroke-width:1px;stroke-linecap:butt;stroke-linejoin:miter;stroke-opacity:1" transform="translate(725.958 -78.98)"/><path d="M-309.498 339.153c-2.138 6.313-2.359 10.405.422 8.105 9.461-16.663 7.051-16.29 7.935-33.219-.761-3.595-5.786-6.066-6.168-.801-.154 12.812.401 17.306-2.19 25.915zM-343.928 266.222c-1.949-2.597-4.84-1.28-3.932 2.214 8.28 13.74 9.152 18.397 26.229 29.06 3.972 1.91 8.58.755 4.855-2.749-18.13-11.948-18.843-17.598-27.152-28.525z" style="fill:#231f20;fill-opacity:1;fill-rule:evenodd;stroke:#231f20;stroke-width:1.12270224px;stroke-linecap:butt;stroke-linejoin:miter;stroke-opacity:1" transform="translate(725.958 -78.98)"/><path d="M-520.161 292.846c-.176 5.892-1.19 9.35-2.674 6.582-2.49-16.736-.734-15.68 3.485-29.974 1.629-2.741 6.23-3.229 5 1.25-3.59 10.658-5.321 14.208-5.811 22.142z" style="fill:#231f20;fill-opacity:1;fill-rule:evenodd;stroke:#231f20;stroke-width:.959382px;stroke-linecap:butt;stroke-linejoin:miter;stroke-opacity:1" transform="translate(725.958 -78.98)"/><path d="M-533.077 285.11c-.456 4.552-1.428 7.173-2.427 4.95-1.02-13.088.282-12.175 4.323-23.01 1.41-2.035 4.997-2.162 3.803 1.237-3.358 8.056-4.89 10.71-5.7 16.824zM-398.584 289.264c1.239 4.258 2.719 5.958 3.457 3.092-1.19-9.767-2.786-13.615-7.563-19.933-2.984-2.588-6.984.7-3.803 3.688 3.357 3.24 5.626 7.265 7.909 13.153z" style="fill:#231f20;fill-opacity:1;fill-rule:evenodd;stroke:#231f20;stroke-width:1.04400003;stroke-linecap:butt;stroke-linejoin:miter;stroke-miterlimit:4;stroke-dasharray:none;stroke-opacity:1" transform="translate(725.958 -78.98)"/><path d="M-437.434 292.361c-.016 5.208-.96 7.607-2.445 4.611-1.535-11.411-1.068-16.272 1.751-24.953 2.131-3.889 6.835-1.473 4.625 2.93-2.31 4.747-3.368 10.026-3.931 17.412zM-415.266 294.656c1.237 4.685.918 7.42-1.211 5.647-4.2-9.295-4.925-13.947-4.336-23.477 1.088-4.805 6.132-5.538 5.093-.223-1.05 5.685-.786 11.076.454 18.053z" style="fill:#231f20;fill-opacity:1;fill-rule:evenodd;stroke:#231f20;stroke-width:1.12555921;stroke-linecap:butt;stroke-linejoin:miter;stroke-miterlimit:4;stroke-dasharray:none;stroke-opacity:1" transform="translate(725.958 -78.98)"/><path d="M-381.034 270.647c1.827 3.402 3.336 4.627 3.35 2.126-2.882-8.026-4.91-11.036-9.945-15.688-2.874-1.768-5.386 1.527-2.276 3.602 3.3 2.264 5.895 5.332 8.871 9.96zM-451.03 268.308c-1.063 3.079-2.353 4.092-3.018 1.675.988-7.426 2.368-10.104 6.526-14.029 2.605-1.383 6.138 2.082 3.362 3.736-2.93 1.814-4.899 4.485-6.87 8.618z" style="fill:#231f20;fill-opacity:1;fill-rule:evenodd;stroke:#231f20;stroke-width:.86709642;stroke-linecap:butt;stroke-linejoin:miter;stroke-miterlimit:4;stroke-dasharray:none;stroke-opacity:1" transform="translate(725.958 -78.98)"/><path d="M-505.883 187.695c.331 13.228 8.84 22.367 17.785 31.288 14.868-.457 28.182 2.903 40.173 9.506 10.83 5.963 23.546 25.77 29.428 25.405l4.832-.988c17.953-31.706 72.548-17.147 63.565-64.223-10.99 13.462-21.282 18.298-43.475 40.51 9.724-15.925 22.854-24.903 28.602-33.624 6.509-10.28 6.062-20.933 6.968-30.929-9.574 17.882-34.721 33.495-52.037 62.906 5.691-19.782 11.454-24.53 16.766-35.633 4.658-9.737 5.082-19.073-.957-27.931-1.808 9.988-4.574 18.272-8.183 25.058-4.254 7.997-10.995 11.278-16.081 18.087-12.506-18.197-24.222-24.222-23.191-42.047.527-9.114 5.094-16.151 7.603-25.47-15.041 10.15-19.828 19.959-19.364 29.592.687 14.272 14.872 27.501 20.352 42.206 3.774 11.634 2.97 18.69 3.489 27.067-22.397-24.895-47.12-20.457-76.275-50.78z" style="fill:#fd0;fill-opacity:1;fill-rule:evenodd;stroke:#231f20;stroke-width:1px;stroke-linecap:butt;stroke-linejoin:miter;stroke-opacity:1" transform="translate(725.958 -78.98)"/><path d="M-418.497 199.88c16.367-9.232 20.653-30.944 23.605-42.156 2.035 5.98 7.032 12.399 7.32 18.79.466 10.328-5.732 17.053-3.697 22.379 14.481-13.088 24.325-30.237 36.229-37.876-1.914 8.912 1.67 16.014-5.6 30.3 2.17 3.952 7.435-4.488 11.199-6.916 2.68 10.869 4.09 22.067-1.977 32.935 32.514-15.4 27.856-35.946 47.756-52.696-13.393 1.206-28.303 15.004-42.486 19.761-6.244-15.346 1.237-31.962 11.527-46.438-17.746.366-32.392 30.593-47.097 35.9.89-14.219-.48-29.729-17.785-54.344.803 13.39-.733 24.019-4.152 33.15-3.315 8.856-10.378 13.999-14.842 23.499-6.748-18.654 5.406-37.357 2-53.041-2.18-10.043-10.248-18.713-22.857-24.686 9.325 22.482-10.218 35.963-16.139 58.624-16.351-7.262-5.393-38.329-34.252-43.474 18.146 18.456 1.24 44.661 12.845 67.846-14.623-.837-29.383-14.522-45.121-9.222 5.248 2.81 8.243 12.378 11.856 20.09 1.318-7.32 2.635-8.172 3.952-10.538 38.175 38.561 60.092 32.094 75.092 52.696 2.236-30.794-29.51-45.908-24.674-67.912 2.137-9.725 10.064-23.84 24.674-30.894-5.69 12.661-8.74 30.49-5.858 39.293 4.424 13.508 8.619 16.503 18.482 24.93z" style="fill:#ed1c24;fill-opacity:1;fill-rule:evenodd;stroke:#231f20;stroke-width:1px;stroke-linecap:butt;stroke-linejoin:miter;stroke-opacity:1" transform="translate(725.958 -78.98)"/><path d="M-477.888 183.578c6.917 18.656 21.231 21.544 32.935 37.875-3.718-10.16-4.739-16.08-9.551-24.372-6.338-8.894-14.875-11.372-23.384-13.503z" style="fill:#fd0;fill-opacity:1;fill-rule:evenodd;stroke:#231f20;stroke-width:3;stroke-linecap:butt;stroke-linejoin:miter;stroke-miterlimit:4;stroke-dasharray:none;stroke-opacity:1" transform="translate(725.958 -78.98)"/></svg>