<svg xmlns="http://www.w3.org/2000/svg" width="541.96" height="593.52" viewBox="0 0 541.956 593.518"><path d="m5.831 5.5 21.66 370.42c7.314 119 114.14 212.05 243.48 212.1 129.19-.146 235.86-93.07 243.27-211.92L536.114 5.5h-265.14z" style="fill:#89c5e3;fill-rule:evenodd;stroke:#000;stroke-width:11;fill-opacity:1"/><ellipse style="fill:#e6e6e6;stroke:#000;stroke-width:2.99998757;stroke-linecap:round;stroke-miterlimit:4;stroke-dasharray:none;stroke-linejoin:round" cx="420.642" cy="110.67" rx="6.914" ry="2.651"/><path style="fill:none;stroke:#000;stroke-width:2.99998757;stroke-miterlimit:4;stroke-dasharray:none;stroke-linecap:round;stroke-linejoin:round" d="M426.142 158.23s3.02-3.325 4.752-4.742c2.548-2.084 5.469-3.67 8.226-5.471 2.545-1.663 5.2-3.161 7.677-4.924 2.401-1.71 4.742-3.516 6.946-5.471 2.447-2.171 4.894-4.385 6.946-6.93 2.267-2.812 5.849-9.119 5.849-9.119"/><path style="fill:#fbf52c;stroke-width:2.99998757;stroke-miterlimit:4;stroke-dasharray:none;stroke-linecap:round;stroke-linejoin:round" d="M411.382 168.98c-.018-.17-.045-1.52-.062-3-.028-2.534-.023-2.749.077-3.679.222-2.054.555-3.845.927-4.988.833-2.555 2.28-5.02 4.419-7.519l.602-.704h18.236l-.223.143-1.136.721c-2.031 1.285-3.469 2.345-4.741 3.493-1.049.948-4.05 4.04-4.01 4.136.009.022.324.324.701.67l.686.63.573-.612c1.024-1.094 3.19-3.252 3.748-3.736 1.186-1.026 2.846-2.182 5.567-3.877a420.88 420.88 0 0 0 1.906-1.193l.594-.376h1.722l-.911.608c-.816.544-2.63 1.779-4.425 3.01-.943.648-2.438 1.78-3.119 2.362-.752.642-2.87 2.748-3.322 3.302-1.419 1.74-2.02 3.064-2.241 4.963-.134 1.136-.4 4.992-.402 5.815v.136h-15.134l-.032-.309"/><path style="fill:#fbf52c;stroke-width:2.99998757;stroke-miterlimit:4;stroke-dasharray:none;stroke-linecap:round;stroke-linejoin:round" d="M411.382 169.06c-.017-.129-.045-1.49-.062-3.02-.029-2.627-.024-2.846.074-3.748.199-1.814.525-3.642.829-4.642 1.252-4.123 3.92-7.783 9-12.357 3.875-3.487 10.07-8.111 14.923-11.134 2.341-1.458 5.117-3.33 6.678-4.502l.416-.312h8.604c4.733 0 8.604.012 8.604.027 0 .055-.744 1-1.214 1.546-2.329 2.697-6.778 6.731-10.666 9.67-2.464 1.864-3.698 2.699-7 4.749-.463.287-1.577.988-2.475 1.557-.899.569-2.444 1.544-3.434 2.167-3.234 2.033-4.401 2.853-5.847 4.11-.695.604-2.527 2.422-3.586 3.559l-.782.839.687.653c.377.359.701.648.719.642.018-.006.477-.478 1.02-1.048 3.329-3.493 4.328-4.3 8.752-7.08.951-.596 2.319-1.457 3.041-1.914.721-.456 2.114-1.329 3.094-1.94 5.129-3.197 8.459-5.681 12.623-9.418 3.381-3.034 5.585-5.382 7.154-7.616l.196-.279v1.852l-.57.709c-1.277 1.589-2.47 2.9-4.066 4.47-1.831 1.801-3.1 2.877-5.71 4.844-3.178 2.396-4.362 3.198-9.447 6.4-2.03 1.278-3.405 2.195-7.01 4.672-1.019.7-2.539 1.831-3.158 2.351-1.082.908-2.855 2.66-3.653 3.609-.663.789-1.318 1.853-1.624 2.642-.374.961-.499 1.655-.669 3.705a105.333 105.333 0 0 0-.254 3.889l-.031.58h-15.124l-.031-.235"/><path style="fill:#fcdd09;stroke-width:2.99998757;stroke-miterlimit:4;stroke-dasharray:none;stroke-linecap:round;stroke-linejoin:round" d="m427.422 159.32 2.251-2.807 4.164-3.369 4.276-2.919 3.601-2.133 4.726-3.256 2.588-1.572 3.039-2.358 2.363-2.133 3.715-3.369 3.151-3.03 2.363-3.369 2.476-4.04 1.8-3.369-1.576-2.47-3.826 1.796-25.1 19.763-15.641 13.698 2.363 4.603 1.463.898z"/><path style="fill:#fcdd09;stroke:#000009;stroke-width:2.99998757;fill-opacity:1;stroke-miterlimit:4;stroke-dasharray:none;stroke-linecap:round;stroke-linejoin:round" d="M418.212 31.3a9.236 9.236 0 0 0-.623 5.275 9.227 9.227 0 0 0 2.408 4.734c1.134 1.183 2.558 2.037 3.918 2.953 1.284.865 2.547 1.832 3.402 3.115-.27-.052-.541-.103-.934-.164a41.996 41.996 0 0 0-10.318-.33c-6.02.551-9.766 1.311-14.617 3.063-1.089-3.311-1.985-6.708-2.23-10.184-.19-2.695.014-5.418.605-8.05-3.138 1-5.701 3.644-6.607 6.811a10.088 10.088 0 0 0-.273 4.285 6.48 6.48 0 0 0-1.895-1.445c-1.093-.551-2.324-.782-3.547-.82-1.137-.035-2.289.094-3.357.482-1.069.389-2.052 1.046-2.74 1.951-.767 1.01-1.153 2.289-2.035 3.197a3.892 3.892 0 0 1-2.373 1.15 3.898 3.898 0 0 1-2.561-.641 9.23 9.23 0 0 0 2.559 4.656 9.224 9.224 0 0 0 4.709 2.453c1.611.304 4.906.127 4.906.127l3.414 1.189-1.879 1.203c-5.405 3.268-8.888 6.665-12.332 12.05-2.822-1.857-5.546-3.894-7.836-6.375a27.932 27.932 0 0 1-4.559-6.668c-1.825 2.742-2.177 6.406-.906 9.445a10.098 10.098 0 0 0 2.465 3.518 6.507 6.507 0 0 0-2.381.055c-1.197.252-2.304.842-3.283 1.576-.91.682-1.729 1.501-2.32 2.473-.592.971-.95 2.101-.922 3.238.031 1.266.529 2.506.408 3.766a3.897 3.897 0 0 1-1.133 2.383 3.905 3.905 0 0 1-2.4 1.098 9.227 9.227 0 0 0 4.906 2.037 9.238 9.238 0 0 0 5.211-1.025c1.448-.769 2.659-1.908 3.91-2.967 1.115-.943 2.31-1.847 3.674-2.344l-.143.373c-.76 2-1.516 4.907-2.043 7.855-.322 1.802-.449 3.489-.525 7.02-.11 5.158.013 6.328 1.277 12.01-.131.03-.261.067-.393.096-3.455.767-6.981 1.333-10.518 1.225a27.904 27.904 0 0 1-7.951-1.416c.68 3.223 3.049 6.04 6.107 7.262a10.09 10.09 0 0 0 4.236.703 6.512 6.512 0 0 0-1.629 1.738c-.658 1.031-1.012 2.234-1.174 3.447-.15 1.127-.138 2.286.141 3.389.279 1.103.835 2.147 1.666 2.924.925.864 2.158 1.377 2.973 2.346a3.9 3.9 0 0 1 .906 2.479 3.896 3.896 0 0 1-.895 2.482 9.227 9.227 0 0 0 4.889-2.074 9.241 9.241 0 0 0 2.918-4.439c.465-1.572.5-3.232.621-4.867.121-1.635 1.137-5.213 1.137-5.213l1.293 2.029s1.296 2.358 3.893 5.834c4.497 6.02 8.13 9.166 13.824 11.979-.367.465-.722.937-1.098 1.395-2.246 2.734-4.672 5.353-7.523 7.449a27.898 27.898 0 0 1-7.133 3.791c2.523 2.118 6.126 2.872 9.287 1.947a10.09 10.09 0 0 0 3.768-2.059 6.508 6.508 0 0 0-.209 2.373c.118 1.218.58 2.385 1.201 3.439.577.98 1.302 1.882 2.201 2.578.9.696 1.982 1.179 3.115 1.277 1.261.11 2.548-.249 3.787.012a3.897 3.897 0 0 1 2.242 1.391c.555.705.853 1.61.826 2.508a9.234 9.234 0 0 0 2.568-4.65 9.232 9.232 0 0 0-.441-5.293c-.603-1.524-1.601-2.852-2.514-4.213-.702-1.046-1.366-2.149-1.756-3.338.995-1.504 2.273-4.441 2.273-4.441l-.308-1.438s7.916 1.528 11.265.463c2.607-.829 5.058-2.563 6.844-4.77 2.01-2.486 3.102-5.776 3.893-8.963.683-2.756.56-5.677.672-8.527.045-1.146.053-2.691.051-4.219h8.83V107.494c.178.022.357.055.535.08a5.74 5.74 0 0 0-.535 2.404 5.736 5.736 0 1 0 11.472 0 5.73 5.73 0 0 0-.625-2.59c1.944-.63 3.787-1.56 5.311-2.801 1.175-.957 2.508-3.691 2.508-3.691s-1.333-2.734-2.508-3.691c-1.556-1.266-3.446-2.21-5.436-2.84.489-.859.747-1.83.75-2.818a5.736 5.736 0 1 0-10.818 2.654c-.218.031-.437.071-.654.098v-5.504h-7.304c.045-.425.081-.796.125-1.217a5.744 5.744 0 0 0 3.527 1.217 5.736 5.736 0 1 0 0-11.472 5.732 5.732 0 0 0-2.602.631 9.818 9.818 0 0 0-.068-.563c-.481-2.98-1.661-5.976-3.52-8.258-.957-1.175-3.693-2.504-3.693-2.504v-.002s-2.736 1.329-3.693 2.504c-1.859 2.281-3.04 5.278-3.521 8.258a.31.31 0 0 0 0 .096 5.739 5.739 0 0 0-1.324-.162 5.736 5.736 0 0 0-.058 11.47h-4.932v5.506c-.218-.027-.438-.068-.656-.1a5.737 5.737 0 0 0 .656-2.652 5.736 5.736 0 1 0-11.472 0c.002.987.258 1.957.744 2.816-1.988.63-3.878 1.576-5.434 2.842-1.175.957-2.504 3.689-2.504 3.689s1.329 2.734 2.504 3.691c1.523 1.239 3.368 2.171 5.311 2.801a5.736 5.736 0 1 0 10.851 2.592 5.748 5.748 0 0 0-.535-2.406c.178-.025.357-.056.535-.078v4.968h11.436c.143.431.143 1.148.078 2.482-.011.226-.043.405-.063.611-.367 1.429-.964 3.277-1.854 4.297a9.85 9.85 0 0 1-1.205 1.164c-3.24 2.445-8.831 3.383-13.766 2.145-2.895-.726-4.65-1.592-6.545-3.227-4.506-3.887-8.252-9.736-9.84-15.365-.964-3.416-1.213-5.417-1.219-9.775-.007-4.647.348-6.988 1.6-10.531 1.806-5.117 3.847-8.517 6.967-11.609 5.228-5.181 12.261-8.515 21.709-10.291 3.479-.655 9.703-.66 12.967 0 5.994 1.194 10.708 3.01 13.998 5.389 2.159 1.56 5.568 5.236 7.506 8.094 4.461 6.575 6.664 11.478 8.16 18.16 2.196 9.807.76 19.06-4.1 26.383-3.069 4.63-6.901 8.05-14.611 13.05-15.546 10.08-23.317 17.654-25.11 24.477-.721 2.744-1.155 8.813-.768 10.744l.129.625 7.549-.053 7.547-.051.145-2.568c.287-5.134.766-6.38 3.586-9.326 2.59-2.706 5.507-4.815 16.277-11.779 9.828-6.356 15.185-12.02 19.992-20.18 2.981-5.06 4.328-10.125 4.969-16.879 3.431.681 6.845 1.571 10 3.072a27.919 27.919 0 0 1 6.715 4.488c.671-3.225-.368-6.755-2.68-9.102a10.102 10.102 0 0 0-3.6-2.346 6.51 6.51 0 0 0 2.189-.939c1.017-.681 1.826-1.639 2.461-2.686.59-.972 1.042-2.038 1.229-3.16.187-1.122.098-2.303-.352-3.348-.5-1.163-1.426-2.127-1.783-3.342a3.904 3.904 0 0 1 .164-2.633 3.899 3.899 0 0 1 1.816-1.914 9.168 9.168 0 0 0-2.65-.422c-.898 0-1.798.111-2.66.361a9.229 9.229 0 0 0-4.453 2.895c-1.057 1.253-1.755 2.76-2.521 4.209-.767 1.449-3.342 3.953-3.342 3.953l-.373-1.734s-1.045-5.756-1.889-8.551c-1.087-3.599-2-6.128-4.068-10.518l-1.633-3.471c3.01-1.82 6.142-3.473 9.504-4.498a27.926 27.926 0 0 1 7.986-1.213c-1.678-2.834-4.826-4.741-8.115-4.916a10.092 10.092 0 0 0-4.238.693 6.51 6.51 0 0 0 .984-2.17c.293-1.188.244-2.442.008-3.643-.22-1.116-.605-2.207-1.223-3.162-.618-.955-1.479-1.768-2.516-2.236-1.153-.522-2.486-.611-3.568-1.268a3.899 3.899 0 0 1-1.654-2.057 3.897 3.897 0 0 1 .051-2.637c-1.629.756-3.03 2-3.963 3.533a9.235 9.235 0 0 0-1.34 5.141c.064 1.638.564 3.222.975 4.809.365 1.412.66 2.879.516 4.322-2.414-3.095-3.496-4.326-5.115-5.809-4.412-4.04-9.28-6.852-14.203-8.248l.025-.086c1.048-3.38 2.306-6.723 4.154-9.74a27.912 27.912 0 0 1 5.172-6.203c-3.136-1.01-6.756-.349-9.334 1.701a10.094 10.094 0 0 0-2.713 3.33 6.504 6.504 0 0 0-.701-2.275c-.569-1.083-1.437-1.989-2.41-2.73-.904-.689-1.916-1.254-3.01-1.559-1.096-.305-2.279-.34-3.365-.004-1.209.374-2.268 1.191-3.514 1.418a3.905 3.905 0 0 1-2.602-.441 3.904 3.904 0 0 1-1.711-2.01zm-4.93 57.03.049.469h-2.277a5.739 5.739 0 0 0 2.229-.469z"/><path style="fill:none;fill-rule:evenodd;stroke:#000;stroke-width:2.99998757;stroke-linecap:round;stroke-miterlimit:4;stroke-dasharray:none;stroke-linejoin:round" d="M406.022 112.46h10.524M425.342 112.46h7.746"/><path style="fill:#fcdd09;stroke:#000;stroke-width:2.99998757;stroke-linecap:round;fill-opacity:1;stroke-miterlimit:4;stroke-dasharray:none;stroke-linejoin:round" d="M366.717 254.373a53.918 76.79 0 0 0-1.658 18.514 53.918 76.79 0 0 0 53.918 76.791 53.918 76.79 0 0 0 53.918-76.79 53.918 76.79 0 0 0-1.645-18.515H366.72z"/><ellipse style="fill:#fcdd09;stroke:#000;stroke-width:2.99998757;stroke-linecap:round;fill-opacity:1;stroke-miterlimit:4;stroke-dasharray:none;stroke-linejoin:round" ry="15.926" rx="52.27" cy="254.37" cx="418.972"/><path d="M410.062 355.98c-.853 2.596-5.082 24.342-9.746 35.794-4.01 9.855-8.147 20.222-15.516 27.897-7.04 7.337-15.992 13.478-26.04 15.904l2 15.969 31.836-8.268 33.836 8.268v-15.969c-5.171-4.262-5.423-64.32-9.107-69.917-6.326-9.611-4.479 1.526-7.262-9.679z" style="fill:#fcdd09;fill-rule:evenodd;stroke:#000;stroke-width:2.99998757;fill-opacity:1;stroke-miterlimit:4;stroke-dasharray:none;stroke-linecap:round;stroke-linejoin:round"/><path d="M358.752 435.58v15.969c.002 4.847 15.15 8.775 33.836 8.775s33.834-3.929 33.836-8.775V435.58c0 4.253-15.15 7.701-33.836 7.701-18.687 0-33.835-3.448-33.836-7.701z" style="fill:#fcdd09;stroke:#000;stroke-width:2.99998757;stroke-linecap:round;fill-opacity:1;stroke-miterlimit:4;stroke-dasharray:none;stroke-linejoin:round"/><path d="M427.892 355.98c.853 2.596 5.082 24.342 9.746 35.794 4.01 9.855 8.147 20.222 15.516 27.897 7.04 7.337 15.992 13.478 26.04 15.904l-2 15.969-31.836-8.268-33.836 8.268v-15.969c5.171-4.262 3.427-61.754 7.111-67.35 6.326-9.611 6.475-1.039 9.258-12.244z" style="fill:#fcdd09;fill-rule:evenodd;stroke:#000;stroke-width:2.99998757;fill-opacity:1;stroke-miterlimit:4;stroke-dasharray:none;stroke-linecap:round;stroke-linejoin:round"/><path d="M479.202 435.58v15.969a33.836 8.776 0 0 1-33.836 8.775 33.836 8.776 0 0 1-33.836-8.775V435.58a33.836 7.701 0 0 0 33.836 7.701 33.836 7.701 0 0 0 33.836-7.701z" style="fill:#fcdd09;stroke:#000;stroke-width:2.99998757;stroke-linecap:round;fill-opacity:1;stroke-miterlimit:4;stroke-dasharray:none;stroke-linejoin:round"/><path d="M418.972 353.61c-1.276 13.329-3.385 32.579-6.313 45.645-2.928 13.07-6.777 26.18-14.14 37.37a67.26 67.26 0 0 1-13.383 14.9l2 15.969 31.836-8.268 31.836 8.268 2-15.969a67.282 67.282 0 0 1-13.383-14.9c-7.364-11.188-11.212-24.299-14.14-37.37-2.927-13.07-5.04-32.32-6.313-45.645z" style="fill:#fcdd09;fill-rule:evenodd;stroke:#000;stroke-width:2.99998757;fill-opacity:1;stroke-miterlimit:4;stroke-dasharray:none;stroke-linecap:round;stroke-linejoin:round"/><path style="fill:#fcdd09;stroke:#000;stroke-width:2.99998757;stroke-linecap:round;fill-opacity:1;stroke-miterlimit:4;stroke-dasharray:none;stroke-linejoin:round" d="M385.142 451.52v15.969a33.836 8.776 0 0 0 33.836 8.775 33.836 8.776 0 0 0 33.836-8.775V451.52a33.836 7.701 0 0 1-33.836 7.701 33.836 7.701 0 0 1-33.836-7.701zM402.095 346.08a9.808 9.808 0 0 0-9.807 9.81 9.808 9.808 0 0 0 9.807 9.806 9.808 9.808 0 0 0 9.809-9.807 9.808 9.808 0 0 0-9.809-9.809zM435.857 346.08a9.808 9.808 0 0 0-9.809 9.81 9.808 9.808 0 0 0 9.809 9.806 9.808 9.808 0 0 0 9.808-9.807 9.808 9.808 0 0 0-9.808-9.809z"/><circle style="fill:#fcdd09;stroke:#000;stroke-width:2.99998757;stroke-linecap:round;fill-opacity:1;stroke-miterlimit:4;stroke-dasharray:none;stroke-linejoin:round" r="12.09" cy="355.89" cx="402.092"/><circle style="fill:#fcdd09;stroke:#000;stroke-width:2.99998757;stroke-linecap:round;fill-opacity:1;stroke-miterlimit:4;stroke-dasharray:none;stroke-linejoin:round" r="12.09" cy="355.89" cx="435.852"/><circle style="fill:#fcdd09;stroke:#000;stroke-width:2.99998757;stroke-linecap:round;fill-opacity:1;stroke-miterlimit:4;stroke-dasharray:none;stroke-linejoin:round" r="12.09" cy="359.61" cx="418.972"/><path style="fill:#fcdd09;stroke:#000;stroke-width:2.99998757;stroke-linecap:round;fill-opacity:1;stroke-miterlimit:4;stroke-dasharray:none;stroke-linejoin:round" d="M400.582 184.76h36.781v42.14h-36.781z"/><path style="fill:#fcdd09;stroke:#000;stroke-width:2.99998757;stroke-linecap:round;fill-opacity:1;stroke-miterlimit:4;stroke-dasharray:none;stroke-linejoin:round" d="M401.302 178.63c-3.427 0-6.186 2.422-6.186 5.43 0 3.01 2.758 5.428 6.186 5.428h35.35c3.427 0 6.186-2.42 6.186-5.428 0-3.01-2.758-5.43-6.186-5.43zm0 46.27c-3.427 0-6.186 2.42-6.186 5.428 0 3.01 2.758 5.43 6.186 5.43h35.35c3.427 0 6.186-2.422 6.186-5.43 0-3.01-2.758-5.428-6.186-5.428z"/><path style="fill:#fcdd09;fill-rule:evenodd;stroke:#000;stroke-width:2.99998757;fill-opacity:1;stroke-miterlimit:4;stroke-dasharray:none;stroke-linecap:round;stroke-linejoin:round" d="M410.912 189.49v35.408M427.042 189.49v35.408"/><path d="M402.282 235.76h33.387v16.1h-33.387z" style="fill:#fcdd09;stroke:#000;stroke-width:2.99998757;stroke-linecap:round;fill-opacity:1;stroke-miterlimit:4;stroke-dasharray:none;stroke-linejoin:round"/><path style="fill:#fcdd09;fill-rule:evenodd;stroke:#000;stroke-width:2.99998757;fill-opacity:1;stroke-miterlimit:4;stroke-dasharray:none;stroke-linecap:round;stroke-linejoin:round" d="M413.292 235.76v16.1M424.652 235.76v16.1"/><path style="fill:#fcdd09;stroke:#000;stroke-width:2.99998757;stroke-linecap:round;fill-opacity:1;stroke-miterlimit:4;stroke-dasharray:none;stroke-linejoin:round" d="M408.502 251.86v18.12a52.267 15.926 0 0 0 10.479.324 52.267 15.926 0 0 0 10.478-.34v-18.1h-20.957z"/><rect style="fill:#fcdd09;stroke:#000;stroke-width:2.99998757;stroke-linecap:round;fill-opacity:1;stroke-miterlimit:4;stroke-dasharray:none;stroke-linejoin:round" rx="4.166" y="169.29" x="400.822" height="9.343" width="36.31"/><ellipse style="fill:#fcdd09;stroke:#000;stroke-width:2.99998757;stroke-linecap:round;fill-opacity:1;stroke-miterlimit:4;stroke-dasharray:none;stroke-linejoin:round" ry="4.355" rx="4.356" cy="100.9" cx="419.562"/><path style="fill:#fcdd09;fill-rule:evenodd;stroke:#000;stroke-width:2.99998757;stroke-linecap:round;stroke-miterlimit:4;stroke-dasharray:none;stroke-linejoin:round" d="M415.202 100.9h-22.22M446.132 100.9h-22.22M419.562 96.54V74.33"/><path d="M167.182 311.03s2.52 16.58 3.039 21c1.658 14.13 3.429 28.828.168 42.674-1.94 8.24-3.264 20.422-11.422 22.682-4.976 1.378-7.942-7.933-13.09-8.279-2.087-.14-5.703 2.611-5.703 2.611s4.824 2.166 6.734 3.928c4.01 3.696 4.209 11.599 9.348 13.416 4.049 1.432 8.796-1.215 12.373-3.592 2.994-1.989 6.785-8.381 6.785-8.381s-1.404 5.914-2.396 8.781c-4.915 14.197-18.453 26.51-17.561 41.508.191 3.212 4.789 8.383 4.789 8.383s1.386-9.154 3.992-12.773c1.47-2.041 4.544-2.454 6.115-4.418 2.254-2.817 4.262-9.949 4.262-9.949s1.284 12.11 0 17.961c-2.861 13.02-5.614 29.01-16.764 36.32-9.792 6.423-25.597-6.01-35.12.799-5.649 4.04-8.517 12.74-7.186 19.557.379 1.941 3.992 4.391 3.992 4.391s-.263-6.23 1.596-8.383c2.117-2.452 5.948-3.383 9.182-3.191 5.105.303 8.69 7.086 13.791 6.719 8.478-.611 15.264-8.146 21.09-14.34 2.974-3.164 6.646-11.203 6.646-11.203s3.75 5.67 3.578 8.846c-.442 8.143-11.754 13.4-11.576 21.553.22 10.09 6.87 19.12 15.467 26.01 8.596-6.893 15.247-15.928 15.467-26.01.178-8.153-11.132-13.41-11.574-21.553-.172-3.176 3.578-8.846 3.578-8.846s3.673 8.04 6.646 11.203c5.822 6.193 12.606 13.729 21.08 14.34 5.101.368 8.688-6.416 13.793-6.719 3.234-.192 7.06.739 9.18 3.191 1.859 2.153 1.598 8.383 1.598 8.383s3.611-2.449 3.99-4.391c1.331-6.816-1.534-15.517-7.184-19.557-9.526-6.811-25.331 5.624-35.12-.799-11.15-7.314-13.903-23.297-16.764-36.32-1.284-5.848 0-17.961 0-17.961s2.01 7.132 4.26 9.949c1.572 1.964 4.647 2.377 6.117 4.418 2.606 3.62 3.99 12.773 3.99 12.773s4.6-5.171 4.791-8.383c.893-14.997-12.648-27.31-17.563-41.508-.992-2.867-2.395-8.781-2.395-8.781s3.791 6.392 6.785 8.381c3.577 2.377 8.324 5.02 12.373 3.592 5.139-1.817 5.341-9.72 9.348-13.416 1.91-1.762 6.734-3.928 6.734-3.928s-3.619-2.752-5.705-2.611c-5.152.347-8.116 9.658-13.09 8.279-8.158-2.26-9.481-14.442-11.422-22.682-3.261-13.846-1.49-28.546.168-42.674.519-4.42 3.039-21 3.039-21h-12.12z" style="fill:#fff;fill-rule:evenodd;stroke:#000;stroke-width:3;stroke-linejoin:round;stroke-linecap:round"/><path style="fill:#fff;fill-rule:evenodd;stroke:#000;stroke-width:3;stroke-linecap:round" d="M134.472 337.46c-2.8 10.493-5.494 21.02-8.08 31.563-2.815 11.481-5.506 22.999-8.838 34.34-1.898 6.462-4 12.863-6.313 19.19a20.472 20.472 0 0 1-12.625 1.01c-2.464-.595-4.791-1.645-7.189-2.466-2.398-.822-4.947-1.421-7.457-1.069-1.276.179-2.504.599-3.765.861-1.261.261-2.606.356-3.81-.103-.979-.374-1.786-1.082-2.596-1.746-.81-.664-1.683-1.315-2.707-1.537-.804-.174-1.659-.064-2.415.26s-1.415.855-1.935 1.493c-1.04 1.275-1.507 2.928-1.71 4.56-.352 2.826.028 5.766 1.263 8.333.76 1.58 1.854 3.02 3.283 4.04 1.359.967 3.062 1.53 4.71 1.274a4.76 4.76 0 0 0 2.267-.987 4.03 4.03 0 0 0 1.355-2.055c.302-1.122.066-2.308-.064-3.463-.065-.577-.103-1.162-.032-1.739.071-.577.255-1.149.601-1.616a3.06 3.06 0 0 1 1.362-1.01 4.117 4.117 0 0 1 1.687-.242c1.143.062 2.226.511 3.263.996a39.567 39.567 0 0 1 6.818 4.04 36.678 36.678 0 0 1 5.303 4.798 18.815 18.815 0 0 0-6.818-.253c-2.456.361-4.872 1.236-6.818 2.778-2.151 1.705-3.616 4.118-5.555 6.06-.662.663-1.378 1.27-2.02 1.953-.641.683-1.213 1.454-1.516 2.34-.406 1.186-.296 2.517.191 3.672.487 1.155 1.334 2.138 2.334 2.893 2.126 1.606 4.996 2.183 7.575 1.515 1.163-.301 2.274-.85 3.149-1.674.874-.824 1.5-1.932 1.649-3.124.157-1.256-.208-2.51-.362-3.766-.077-.628-.1-1.269.021-1.89.121-.621.394-1.224.846-1.667a3.053 3.053 0 0 1 1.107-.671 4.989 4.989 0 0 1 1.275-.258c.867-.073 1.741.005 2.608-.063a7.865 7.865 0 0 0 4.306-1.716 7.856 7.856 0 0 0 2.571-3.857 75.646 75.646 0 0 0-3.535 9.595c-.329 1.123-.634 2.263-.703 3.431-.069 1.168.113 2.377.703 3.387.47.805 1.182 1.453 1.977 1.939.795.487 1.675.821 2.568 1.091 1.126.341 2.301.586 3.473.484a5.101 5.101 0 0 0 1.7-.436 3.927 3.927 0 0 0 1.393-1.058 4.027 4.027 0 0 0 .778-1.598c.143-.58.174-1.184.131-1.78-.087-1.192-.468-2.339-.831-3.478-.363-1.138-.715-2.3-.739-3.494a5.289 5.289 0 0 1 .247-1.767 3.822 3.822 0 0 1 .92-1.519c.552-.546 1.275-.88 1.988-1.186.714-.306 1.447-.6 2.052-1.086a3.92 3.92 0 0 0 1.166-1.561 3.918 3.918 0 0 0-.433-3.749 3.922 3.922 0 0 0-1.491-1.255 8.531 8.531 0 0 1 5.555 2.778c.825.921 1.435 2.01 2.103 3.05.668 1.04 1.42 2.061 2.442 2.758 1.109.756 2.466 1.078 3.806 1.161 1.34.083 2.682-.058 4.02-.151a55.028 55.028 0 0 1 7.575 0 20.146 20.146 0 0 0-1.01-7.07c-1.257-3.788-3.771-7.269-7.323-9.09-3.669-1.881-8.282-1.783-11.868.253a277.655 277.655 0 0 0 13.13-28.533c3.928-9.987 7.275-20.2 10.1-30.553a320.326 320.326 0 0 0 6.313-28.03l-13.13-3.535z"/><path style="fill:#fff;fill-rule:evenodd;stroke:#000;stroke-width:3;stroke-linecap:round" d="M67.992 424.95a8.367 8.367 0 0 0-5.234 2.152c-1.859 1.699-2.854 4.191-3.156 6.691-.468 3.868.644 7.904 3.03 10.984a5.4 5.4 0 0 1-.301-3.506 5.398 5.398 0 0 1 1.941-2.934c1.026-.782 2.294-1.163 3.535-1.514 1.758-.497 3.527-.962 5.303-1.391a13.636 13.636 0 0 0-1.514-6.816 13.611 13.611 0 0 0-2.777-3.662 8.13 8.13 0 0 0-.826-.006zm64.887 15.666a13.652 13.652 0 0 0-6.793 1.625c.393 1.785.752 3.577 1.076 5.375.229 1.27.44 2.577.188 3.842a5.39 5.39 0 0 1-1.785 3.03 5.402 5.402 0 0 1-3.283 1.266c3.814.794 7.93.026 11.201-2.09 2.115-1.368 3.918-3.353 4.631-5.77a8.35 8.35 0 0 0-.727-6.387 13.613 13.613 0 0 0-4.508-.893zm-56.08 8.381a8.359 8.359 0 0 0-3.131 5.615c-.273 2.504.628 5.03 2.053 7.109 2.204 3.213 5.706 5.505 9.531 6.242a5.386 5.386 0 0 1-2.541-2.432 5.39 5.39 0 0 1-.48-3.486c.254-1.265.952-2.389 1.652-3.473.992-1.535 2.01-3.049 3.063-4.545a13.659 13.659 0 0 0-5.643-4.117 13.599 13.599 0 0 0-4.504-.914zm24.43 3.545c-.697.021-1.392.101-2.076.24a7.567 7.567 0 0 0-1.598 5.6c.279 2.266 1.597 4.309 3.285 5.846a13.771 13.771 0 0 0 9.707 3.533 4.891 4.891 0 0 1-2.748-1.617 4.885 4.885 0 0 1-1.146-2.977c-.038-1.168.345-2.304.738-3.404a128.68 128.68 0 0 1 1.758-4.645 12.379 12.379 0 0 0-5.832-2.463 12.25 12.25 0 0 0-2.088-.113zM224.132 337.42c2.8 10.493 5.494 21.02 8.08 31.563 2.815 11.481 5.506 22.999 8.838 34.34 1.898 6.462 4 12.863 6.313 19.19a20.472 20.472 0 0 0 12.625 1.01c2.464-.595 4.791-1.645 7.189-2.466 2.398-.822 4.947-1.421 7.457-1.069 1.276.179 2.504.599 3.765.861 1.261.261 2.606.356 3.81-.103.979-.374 1.786-1.082 2.596-1.746.81-.664 1.683-1.315 2.707-1.537.804-.174 1.659-.064 2.415.26s1.415.855 1.935 1.493c1.04 1.275 1.507 2.928 1.71 4.56.352 2.826-.028 5.766-1.263 8.333-.76 1.58-1.854 3.02-3.283 4.04-1.359.967-3.062 1.53-4.71 1.274a4.76 4.76 0 0 1-2.267-.987 4.03 4.03 0 0 1-1.355-2.055c-.302-1.122-.066-2.308.064-3.463.065-.577.103-1.162.032-1.739-.071-.577-.255-1.149-.601-1.616a3.06 3.06 0 0 0-1.362-1.01 4.117 4.117 0 0 0-1.687-.242c-1.143.062-2.226.511-3.263.996a39.567 39.567 0 0 0-6.818 4.04 36.678 36.678 0 0 0-5.303 4.798 18.815 18.815 0 0 1 6.818-.253c2.456.361 4.872 1.236 6.818 2.778 2.151 1.705 3.616 4.118 5.555 6.06.662.663 1.378 1.27 2.02 1.953.641.683 1.213 1.454 1.516 2.34.406 1.186.296 2.517-.191 3.672-.487 1.155-1.334 2.138-2.334 2.893-2.126 1.606-4.996 2.183-7.575 1.515-1.163-.301-2.274-.85-3.149-1.674-.874-.824-1.5-1.932-1.649-3.124-.157-1.256.208-2.51.362-3.766.077-.628.1-1.269-.021-1.89-.121-.621-.394-1.224-.846-1.667a3.053 3.053 0 0 0-1.107-.671 4.989 4.989 0 0 0-1.275-.258c-.867-.073-1.741.005-2.608-.063a7.865 7.865 0 0 1-4.306-1.716 7.856 7.856 0 0 1-2.571-3.857 75.646 75.646 0 0 1 3.535 9.595c.329 1.123.634 2.263.703 3.431.069 1.168-.113 2.377-.703 3.387-.47.805-1.182 1.453-1.977 1.939-.796.487-1.675.821-2.568 1.091-1.126.341-2.301.586-3.473.484a5.101 5.101 0 0 1-1.7-.436 3.927 3.927 0 0 1-1.393-1.058 4.027 4.027 0 0 1-.778-1.598 5.723 5.723 0 0 1-.131-1.78c.087-1.192.468-2.339.831-3.478.363-1.138.715-2.3.739-3.494a5.289 5.289 0 0 0-.247-1.767 3.822 3.822 0 0 0-.92-1.519c-.552-.546-1.275-.88-1.988-1.186-.714-.306-1.447-.6-2.052-1.086a3.92 3.92 0 0 1-1.166-1.561 3.93 3.93 0 0 1-.267-1.93 3.925 3.925 0 0 1 .699-1.819 3.922 3.922 0 0 1 1.491-1.255 8.531 8.531 0 0 0-5.555 2.778c-.825.921-1.435 2.01-2.103 3.05-.668 1.04-1.42 2.061-2.442 2.758-1.109.756-2.466 1.078-3.806 1.161-1.34.083-2.682-.058-4.02-.151a55.028 55.028 0 0 0-7.575 0 20.146 20.146 0 0 1 1.01-7.07c1.257-3.788 3.771-7.269 7.323-9.09 3.669-1.881 8.282-1.783 11.868.253a277.655 277.655 0 0 1-13.13-28.533c-3.928-9.987-7.275-20.2-10.1-30.553a320.326 320.326 0 0 1-6.313-28.03l13.13-3.535z"/><path style="fill:#fff;fill-rule:evenodd;stroke:#000;stroke-width:3;stroke-linecap:round" d="M290.612 424.91a8.367 8.367 0 0 1 5.234 2.152c1.859 1.699 2.854 4.191 3.156 6.691.468 3.868-.644 7.904-3.03 10.984a5.4 5.4 0 0 0 .301-3.506 5.398 5.398 0 0 0-1.941-2.934c-1.026-.782-2.294-1.163-3.535-1.514a142.445 142.445 0 0 0-5.303-1.391 13.636 13.636 0 0 1 1.514-6.816 13.611 13.611 0 0 1 2.777-3.662 8.13 8.13 0 0 1 .826-.006zm-64.887 15.666a13.652 13.652 0 0 1 6.793 1.625 142.674 142.674 0 0 0-1.076 5.375c-.229 1.27-.44 2.577-.188 3.842a5.39 5.39 0 0 0 1.785 3.03 5.4 5.4 0 0 0 3.283 1.266c-3.814.794-7.93.026-11.201-2.09-2.115-1.368-3.918-3.353-4.631-5.77a8.35 8.35 0 0 1 .727-6.387 13.613 13.613 0 0 1 4.508-.893zm56.08 8.381a8.359 8.359 0 0 1 3.131 5.615c.273 2.504-.628 5.03-2.053 7.109-2.204 3.213-5.706 5.505-9.531 6.242a5.386 5.386 0 0 0 2.541-2.432 5.39 5.39 0 0 0 .48-3.486c-.254-1.265-.952-2.389-1.652-3.473a138.352 138.352 0 0 0-3.063-4.545 13.659 13.659 0 0 1 5.643-4.117 13.599 13.599 0 0 1 4.504-.914zm-24.43 3.545c.697.021 1.392.101 2.076.24a7.567 7.567 0 0 1 1.598 5.6c-.279 2.266-1.597 4.309-3.285 5.846a13.771 13.771 0 0 1-9.707 3.533 4.891 4.891 0 0 0 2.748-1.617 4.885 4.885 0 0 0 1.146-2.977c.038-1.168-.345-2.304-.738-3.404a130.59 130.59 0 0 0-1.758-4.645 12.379 12.379 0 0 1 5.832-2.463 12.25 12.25 0 0 1 2.088-.113z"/><path style="fill:#fff;fill-rule:evenodd;stroke:#000;stroke-width:3;stroke-linejoin:round;stroke-linecap:round" d="M120.262 34.57a26.57 26.57 0 0 0-13.549 8.828c-4.328 5.332-6.431 12.233-6.775 19.09-.389 7.746 1.341 15.468 3.9 22.789a101.792 101.792 0 0 0 5.133 12.11l7.801-5.748a194.113 194.113 0 0 1-3.078-27.717c-.276-7.128-.134-14.426 2.258-21.15a32.914 32.914 0 0 1 4.311-8.211zm-33.67 7.801c-3.996.885-7.641 3.267-10.06 6.57-1.736 2.372-2.835 5.174-3.418 8.05-.583 2.881-.662 5.845-.482 8.779.443 7.25 2.463 14.363 5.543 20.941a68.155 68.155 0 0 0 22.377 26.689l8.623-12.318a117.68 117.68 0 0 1-7.391-8.01c-4.798-5.706-9.06-11.878-12.523-18.479-2.106-4.01-3.927-8.201-4.957-12.611-1.031-4.41-1.25-9.06-.176-13.461a23.602 23.602 0 0 1 2.463-6.16zm-37.16 30.875a29.767 29.767 0 0 0-8.01 16.23c-.738 4.998-.172 10.16 1.453 14.943 1.625 4.783 4.293 9.19 7.637 12.977 7.384 8.364 17.707 13.472 27.92 17.965a425.673 425.673 0 0 0 22.941 9.305l.209-16.451a105.937 105.937 0 0 1-26.83-15.15c-8.401-6.52-15.911-14.46-20.561-24.02a51.966 51.966 0 0 1-4.762-15.799zm52.15 54.969c.003 0 .005.003.008.004v-.65zm-67.71-.18a17.677 17.677 0 0 0-1.676 10.768c.627 3.846 2.54 7.411 5.084 10.363 2.544 2.952 5.702 5.323 9.04 7.342 10.11 6.122 21.932 9.101 33.738 9.572 3.303.132 6.613.073 9.91-.174a258.694 258.694 0 0 1-20.439 12.139c-8.6 4.576-17.627 8.717-27.28 10.05a49.534 49.534 0 0 1-11.486.24c.122 2.551.96 5.064 2.393 7.178 1.607 2.371 3.936 4.213 6.529 5.43 2.594 1.216 5.447 1.824 8.307 1.988 7.811.448 15.445-2.344 22.492-5.742a127.656 127.656 0 0 0 29.672-19.861l5.504-8.613-12.506-4.721-.656-17.05a179.3 179.3 0 0 1-21.535.24c-5.264-.258-10.545-.754-15.641-2.098-5.096-1.344-10.02-3.57-14.03-6.996a27.823 27.823 0 0 1-7.418-10.05zm70.67 49.787a159.373 159.373 0 0 1-23.688 32.824c-9.14 9.761-19.656 18.452-31.811 24.03-4.074 1.869-8.458 3.479-11.504 6.768-1.01 1.087-1.846 2.349-2.311 3.756-.465 1.406-.538 2.964-.059 4.365.338.988.94 1.877 1.697 2.596.757.719 1.665 1.271 2.633 1.662 1.936.783 4.075.922 6.16.818 5.315-.263 10.463-2.027 15.227-4.398 11.473-5.711 20.866-14.841 29.441-24.365 8.937-9.925 17.304-20.594 22.672-32.824a79.1 79.1 0 0 0 1.738-4.309 251.343 251.343 0 0 1-23.06 54.39c-11.196 19.601-24.988 37.608-39.592 54.82-5.99 7.06-12.32 14.364-14.551 23.35-.453 1.824-.728 3.721-.479 5.584.25 1.863 1.068 3.699 2.508 4.906 1 .841 2.268 1.343 3.564 1.516 1.297.172 2.624.023 3.881-.342 2.513-.729 4.697-2.28 6.768-3.881 9.24-7.143 17.264-15.769 24.365-25.04 12.87-16.805 22.747-35.723 31.13-55.16a431.937 431.937 0 0 0 21.658-63.28l-14.213-4.061c-.282 1.09-.576 2.176-.873 3.262l-11.309-6.984zm33.764 25.553a474.765 474.765 0 0 1-28.785 70.7c-16.09 31.908-35.785 61.96-58.08 89.89-1.302 1.631-2.621 3.268-3.604 5.109-.982 1.841-1.618 3.922-1.447 6 .144 1.755.865 3.443 1.951 4.83s2.526 2.478 4.109 3.25c2.59 1.262 5.549 1.672 8.418 1.412 2.869-.26 5.655-1.168 8.248-2.422 6.774-3.275 12.217-8.849 16.488-15.04 4.271-6.194 7.476-13.05 10.781-19.805 10.22-20.902 21.581-41.26 30.807-62.62 6.592-15.26 12.08-30.99 16.666-46.967a449.11 449.11 0 0 0 7.574-30.3l-13.13-4.04z"/><path style="fill-rule:evenodd;stroke-linecap:round" d="M111.232 44.63c-2.705 4.558-4.168 11.173-4.722 17.04-.471 4.991.501 10.03 1.232 14.988 1.05 7.13 2.895 14.824 4.518 21.14l2.258-.41c-1.76-6.147-3.169-12.394-4.311-18.682-.925-5.095-2.133-10.221-2.053-15.399.097-6.311 1.476-13.567 3.079-18.683m-32.848 9.03a43.463 43.463 0 0 0-.205 16.221c1.462 8.24 5.292 15.909 10.06 22.787a89.497 89.497 0 0 0 16.631 18.07l1.848-1.641a82.211 82.211 0 0 1-15.398-15.604c-4.791-6.37-8.667-13.489-10.881-21.15a55.06 55.06 0 0 1-2.053-18.684M47.92 88.823c1.281 6.854 4.074 13.514 8.225 19.04 5.506 7.336 13.592 12.426 21.21 17.533 8.02 5.373 17.327 10.25 25.537 13.633l-.432-2.813c-7.658-2.948-14.826-6.511-21.643-10.822-8.208-5.192-16.693-10.528-22.941-17.963-4.527-5.387-7.513-12.594-9.957-18.613m-11.211 51.28a45.328 45.328 0 0 0 9.09 8.861c9.42 6.889 21.275 9.895 32.943 10.129a78.37 78.37 0 0 0 25.688-3.799l-2.322-.988a92.044 92.044 0 0 1-25.26 2.48c-8.21-.334-16.451-1.798-23.953-5.148a50.417 50.417 0 0 1-16.189-11.535zm69.14 22.619c-6.65 4.59-13.352 9.105-20.1 13.543-5.928 3.897-11.91 7.744-18.268 10.891a95.272 95.272 0 0 1-26.748 8.607 61.615 61.615 0 0 0 16.07-2.527c10.984-3.262 20.807-9.506 30.369-15.818a1131.75 1131.75 0 0 0 19.828-13.393zm13.717 9.758a1573.832 1573.832 0 0 1-22.277 27.811c-6.612 8.06-13.322 16.08-20.865 23.285a140.046 140.046 0 0 1-33.764 23.795 90.546 90.546 0 0 0 21.438-10.584c13.984-9.389 25.04-22.455 35.689-35.502a1652.53 1652.53 0 0 0 21.957-27.479zm2.246 15.1a557.49 557.49 0 0 1-18.576 48.555c-5.841 13.364-12.222 26.526-19.963 38.887a202.623 202.623 0 0 1-35.533 42.46 125.647 125.647 0 0 0 23.547-20.223c15.847-17.451 26.448-38.973 35.678-60.664a664.231 664.231 0 0 0 18.264-47.99zm17.922 30.852a2585.88 2585.88 0 0 1-21.32 54.48c-6.42 15.874-13.02 31.724-21.318 46.699a229.841 229.841 0 0 1-41.29 53.805 148.75 148.75 0 0 0 28.426-27.07c17.327-21.554 28.26-47.44 38.578-73.09a2723.747 2723.747 0 0 0 20.98-53.805z"/><path d="M238.342 34.57a26.57 26.57 0 0 1 13.549 8.828c4.328 5.332 6.431 12.233 6.775 19.09.389 7.746-1.341 15.468-3.9 22.789a101.792 101.792 0 0 1-5.133 12.11l-7.801-5.748a194.113 194.113 0 0 0 3.078-27.717c.276-7.128.134-14.426-2.258-21.15a32.914 32.914 0 0 0-4.311-8.211zm33.67 7.801c3.996.885 7.641 3.267 10.06 6.57 1.736 2.372 2.835 5.174 3.418 8.05.583 2.881.662 5.845.482 8.779-.443 7.25-2.463 14.363-5.543 20.941a68.155 68.155 0 0 1-22.377 26.689l-8.623-12.318a117.68 117.68 0 0 0 7.391-8.01c4.798-5.706 9.06-11.878 12.523-18.479 2.106-4.01 3.927-8.201 4.957-12.611 1.031-4.41 1.25-9.06.176-13.461a23.602 23.602 0 0 0-2.463-6.16zm37.16 30.875a29.767 29.767 0 0 1 8.01 16.23c.738 4.998.172 10.16-1.453 14.943-1.625 4.783-4.293 9.19-7.637 12.977-7.384 8.364-17.707 13.472-27.92 17.965a425.673 425.673 0 0 1-22.941 9.305l-.209-16.451a105.937 105.937 0 0 0 26.83-15.15c8.401-6.52 15.911-14.46 20.561-24.02a51.966 51.966 0 0 0 4.762-15.799zm-52.15 54.969c-.003 0-.005.003-.008.004v-.65zm67.71-.18a17.677 17.677 0 0 1 1.676 10.768c-.627 3.846-2.54 7.411-5.084 10.363-2.544 2.952-5.702 5.323-9.04 7.342-10.11 6.122-21.932 9.101-33.738 9.572a86.462 86.462 0 0 1-9.91-.174 258.694 258.694 0 0 0 20.439 12.139c8.6 4.576 17.627 8.717 27.28 10.05 3.802.525 7.666.606 11.486.24a14.068 14.068 0 0 1-2.393 7.178c-1.607 2.371-3.936 4.213-6.529 5.43-2.594 1.216-5.447 1.824-8.307 1.988-7.811.448-15.445-2.344-22.492-5.742a127.656 127.656 0 0 1-29.672-19.861l-5.504-8.613 12.506-4.721.656-17.05a179.3 179.3 0 0 0 21.535.24c5.264-.258 10.545-.754 15.641-2.098 5.096-1.344 10.02-3.57 14.03-6.996a27.823 27.823 0 0 0 7.418-10.05zm-70.67 49.787a159.373 159.373 0 0 0 23.688 32.824c9.14 9.761 19.656 18.452 31.811 24.03 4.074 1.869 8.458 3.479 11.504 6.768 1.01 1.087 1.846 2.349 2.311 3.756.465 1.406.538 2.964.059 4.365-.338.988-.94 1.877-1.697 2.596-.757.719-1.665 1.271-2.633 1.662-1.936.783-4.075.922-6.16.818-5.315-.263-10.463-2.027-15.227-4.398-11.473-5.711-20.866-14.841-29.441-24.365-8.937-9.925-17.304-20.594-22.672-32.824a79.1 79.1 0 0 1-1.738-4.309 251.343 251.343 0 0 0 23.06 54.39c11.196 19.601 24.988 37.608 39.592 54.82 5.99 7.06 12.32 14.364 14.551 23.35.453 1.824.728 3.721.479 5.584-.25 1.863-1.068 3.699-2.508 4.906-1 .841-2.268 1.343-3.564 1.516-1.297.172-2.624.023-3.881-.342-2.513-.729-4.697-2.28-6.768-3.881-9.24-7.143-17.264-15.769-24.365-25.04-12.87-16.805-22.747-35.723-31.13-55.16a431.937 431.937 0 0 1-21.658-63.28l14.213-4.061c.282 1.09.576 2.176.873 3.262l11.309-6.984zm-33.764 25.553a474.765 474.765 0 0 0 28.785 70.7c16.09 31.908 35.785 61.96 58.08 89.89 1.302 1.631 2.621 3.268 3.604 5.109.982 1.841 1.618 3.922 1.447 6-.144 1.755-.865 3.443-1.951 4.83s-2.526 2.478-4.109 3.25c-2.59 1.262-5.549 1.672-8.418 1.412-2.869-.26-5.655-1.168-8.248-2.422-6.774-3.275-12.217-8.849-16.488-15.04-4.271-6.194-7.476-13.05-10.781-19.805-10.22-20.902-21.581-41.26-30.807-62.62-6.592-15.26-12.08-30.99-16.666-46.967a449.11 449.11 0 0 1-7.574-30.3l13.13-4.04z" style="fill:#fff;fill-rule:evenodd;stroke:#000;stroke-width:3;stroke-linecap:round;stroke-linejoin:round"/><path style="fill-rule:evenodd;stroke-linecap:round" d="M247.372 44.63c2.705 4.558 4.168 11.173 4.722 17.04.471 4.991-.501 10.03-1.232 14.988-1.05 7.13-2.895 14.824-4.518 21.14l-2.258-.41c1.76-6.147 3.169-12.394 4.311-18.682.925-5.095 2.133-10.221 2.053-15.399-.097-6.311-1.476-13.567-3.079-18.683m32.848 9.03a43.463 43.463 0 0 1 .205 16.221c-1.462 8.24-5.292 15.909-10.06 22.787a89.497 89.497 0 0 1-16.631 18.07l-1.848-1.641a82.211 82.211 0 0 0 15.398-15.604c4.791-6.37 8.667-13.489 10.881-21.15a55.06 55.06 0 0 0 2.053-18.684m30.467 35.17c-1.281 6.854-4.074 13.514-8.225 19.04-5.506 7.336-13.592 12.426-21.21 17.533-8.02 5.373-17.327 10.25-25.537 13.633l.432-2.813c7.658-2.948 14.826-6.511 21.643-10.822 8.208-5.192 16.693-10.528 22.941-17.963 4.527-5.387 7.513-12.594 9.957-18.613m11.211 51.28a45.328 45.328 0 0 1-9.09 8.861c-9.42 6.889-21.275 9.895-32.943 10.129a78.37 78.37 0 0 1-25.688-3.799l2.322-.988a92.044 92.044 0 0 0 25.26 2.48c8.21-.334 16.45-1.798 23.953-5.148a50.417 50.417 0 0 0 16.189-11.535m-69.14 22.619c6.65 4.59 13.352 9.105 20.1 13.543 5.928 3.897 11.91 7.744 18.268 10.891a95.272 95.272 0 0 0 26.748 8.607 61.615 61.615 0 0 1-16.07-2.527c-10.984-3.262-20.807-9.506-30.369-15.818a1131.75 1131.75 0 0 1-19.828-13.393zm-13.717 9.758a1573.832 1573.832 0 0 0 22.277 27.811c6.612 8.06 13.322 16.08 20.865 23.285a140.046 140.046 0 0 0 33.764 23.795 90.546 90.546 0 0 1-21.438-10.584c-13.984-9.389-25.04-22.455-35.689-35.502a1652.53 1652.53 0 0 1-21.957-27.479zm-2.246 15.1a557.49 557.49 0 0 0 18.576 48.555c5.841 13.364 12.222 26.526 19.963 38.887a202.623 202.623 0 0 0 35.533 42.46 125.647 125.647 0 0 1-23.547-20.223c-15.847-17.451-26.448-38.973-35.678-60.664a664.231 664.231 0 0 1-18.264-47.99zm-17.922 30.852a2585.88 2585.88 0 0 0 21.32 54.48c6.42 15.874 13.02 31.724 21.318 46.699a229.841 229.841 0 0 0 41.29 53.805 148.75 148.75 0 0 1-28.426-27.07c-17.327-21.554-28.26-47.44-38.578-73.09a2723.747 2723.747 0 0 1-20.98-53.805z"/><path style="fill:#fff;fill-rule:evenodd;stroke:#000;stroke-width:3;stroke-linecap:round" d="M112.982 77.3a24.283 24.283 0 0 0-8.732 12.867c-.757 2.762-.979 5.656-.719 8.508-.09.096-.176.196-.266.293-3.761-3.214-8.31-5.507-13.154-6.518-2.02 6.107-1.982 9.563-1.613 14.369.3 3.92 3.088 11.383 3.088 11.383l-1.465 2.414s-4.323-1.111-6.49-.855c-2.515.297-7.094 2.719-7.094 2.719s4.074 13.53 9.09 18.369a29.39 29.39 0 0 0 2.615 2.232c.081 1.118.198 2.232.338 3.342-5.589 2.103-10.641 5.623-14.512 10.17 4.692 4.546 10.927 7.473 17.422 8.178.633.069 1.268.105 1.904.129.058.152.115.305.174.457a36.794 36.794 0 0 0-5.146 3.998 37.558 37.558 0 0 0-10.404 17c6.486 2.314 13.743 2.401 20.283.244a30.222 30.222 0 0 0 3.09-1.213 33.838 33.838 0 0 0-4.02 5.658 34.417 34.417 0 0 0-4.418 17.713c6.308.235 12.677-1.687 17.801-5.373a27.964 27.964 0 0 0 2.221-1.781 34.01 34.01 0 0 0-3.238 7.148 34.415 34.415 0 0 0-.693 18.244c6.222-1.062 12.06-4.248 16.322-8.906a27.752 27.752 0 0 0 3.041-4.02c.521.395 1.043.788 1.576 1.164a36.86 36.86 0 0 0-.193 2.439 38.6 38.6 0 0 0 4.617 19.994c6.454-2.97 11.869-8.144 15.13-14.455.159-.308.304-.622.453-.936a23.605 23.605 0 0 0 5.736-.736c6.087-1.578 11.406-5.823 14.414-11.346 3.01-5.522 3.699-12.235 2.01-18.293-2.136-7.676-7.709-13.847-13.13-19.688-5.42-5.841-11.03-11.954-13.297-19.594-1.263-4.265-1.412-8.823-2.949-12.996-.769-2.087-1.901-4.076-3.531-5.588-1.63-1.512-3.794-2.515-6.02-2.484-1.225.017-2.432.342-3.559.824-1.126.482-2.18 1.12-3.207 1.787-2.055 1.335-4.081 2.824-6.447 3.459a9.824 9.824 0 0 1-4.836.06c-.946-.229-1.986-.445-2.684-1.117-2.649-2.55-4.682-6.338-4.623-10.01.036-2.225 1.541-4.247 2.992-5.969 1.451-1.722 3.198-3.168 4.953-4.58 1.755-1.412 3.535-2.807 5.072-4.453 1.537-1.646 2.835-3.568 3.445-5.736.937-3.329.184-6.873.322-10.328.191-4.761 2.158-9.43 5.434-12.891a56.282 56.282 0 0 0-11.648 4.645c-1.145-3.63-3-7.04-5.459-9.943zm132.64 0a28.92 28.92 0 0 0-5.459 9.943 56.216 56.216 0 0 0-11.648-4.645c3.275 3.461 5.243 8.13 5.434 12.891.138 3.455-.614 7 .322 10.328.61 2.168 1.908 4.091 3.445 5.736 1.537 1.646 3.318 3.041 5.072 4.453 1.755 1.412 3.502 2.858 4.953 4.58 1.451 1.722 2.956 3.743 2.992 5.969.059 3.676-1.974 7.464-4.623 10.01-.698.672-1.737.888-2.684 1.117a9.824 9.824 0 0 1-4.836-.06c-2.367-.635-4.392-2.124-6.447-3.459-1.027-.668-2.081-1.305-3.207-1.787s-2.333-.807-3.559-.824c-2.224-.031-4.387.972-6.02 2.484-1.63 1.512-2.763 3.501-3.531 5.588-1.537 4.173-1.687 8.732-2.949 12.996-2.262 7.64-7.877 13.753-13.297 19.594-5.42 5.841-10.993 12.01-13.13 19.688-1.686 6.06-.994 12.77 2.01 18.293 3.01 5.522 8.327 9.768 14.414 11.346 1.879.487 3.804.72 5.736.736.149.313.294.627.453.936 3.262 6.312 8.677 11.485 15.13 14.455a38.599 38.599 0 0 0 4.617-19.994 38.268 38.268 0 0 0-.193-2.439 55.621 55.621 0 0 0 1.576-1.164 28.251 28.251 0 0 0 3.041 4.02c4.26 4.658 10.1 7.844 16.322 8.906a34.415 34.415 0 0 0-.693-18.244 33.987 33.987 0 0 0-3.238-7.148c.709.63 1.45 1.227 2.221 1.781 5.124 3.686 11.493 5.608 17.801 5.373a34.407 34.407 0 0 0-4.418-17.713 33.946 33.946 0 0 0-4.02-5.658c1.01.46 2.038.866 3.09 1.213 6.54 2.156 13.797 2.07 20.283-.244a37.558 37.558 0 0 0-10.404-17 36.853 36.853 0 0 0-5.146-3.998c.059-.152.116-.305.174-.457.636-.024 1.271-.06 1.904-.129 6.495-.705 12.73-3.631 17.422-8.178-3.871-4.547-8.923-8.07-14.512-10.17.14-1.11.257-2.223.338-3.342a29.557 29.557 0 0 0 2.615-2.232c5.01-4.839 9.09-18.369 9.09-18.369s-4.579-2.422-7.094-2.719c-2.167-.256-6.49.855-6.49.855l-1.465-2.414s2.785-7.463 3.086-11.383c.368-4.806.404-8.262-1.611-14.369-4.844 1.01-9.393 3.304-13.154 6.518-.089-.097-.176-.197-.266-.293.261-2.851.038-5.746-.719-8.508a24.289 24.289 0 0 0-8.732-12.867zM177.292 68.72a15.306 15.306 0 0 1 7.822-7.54 15.31 15.31 0 0 1 10.859-.363c3.068 1.062 5.698 3.07 8.448 4.795 1.375.862 2.798 1.663 4.316 2.237 1.518.574 3.14.918 4.762.844a9.6 9.6 0 0 0 5.222-1.848 9.596 9.596 0 0 0 3.312-4.44c.865 2.96.236 6.317-1.642 8.763-1.878 2.446-4.96 3.92-8.04 3.847-3.121-.074-6.02-1.616-8.588-3.389-2.57-1.773-4.976-3.828-7.797-5.166a17.718 17.718 0 0 0-9.663-1.57 17.746 17.746 0 0 0-9.01 3.831z"/><path style="fill:#fff;fill-rule:evenodd;stroke:#000;stroke-width:3;stroke-linecap:round;stroke-linejoin:round" d="M148.582 34.18c-.32 2.925.728 5.97 2.779 8.08 1.952 2.01 4.775 3.137 7.574 3.03-2.921 9.153-3.471 19.04-1.631 28.473-1.459.612-3.044.923-4.625.859a10.927 10.927 0 0 1-6.816-2.777 10.699 10.699 0 0 0 4.04 6.564c1.826 1.378 4.059 2.132 6.313 2.525 1.01.176 2.032.276 3.057.314 1.054 3.312 2.251 6.583 3.291 9.9 1.522 4.858 2.693 9.91 2.434 14.994-.1 1.951-.415 3.87-.863 5.766-.035.019-.066.044-.102.063a10.884 10.884 0 0 1-5.477 1.238 10.927 10.927 0 0 1-6.816-2.777 10.699 10.699 0 0 0 4.04 6.564c1.725 1.302 3.815 2.034 5.941 2.443-.334.873-.667 1.748-1.016 2.611a291.14 291.14 0 0 1-5.26 12.18c-.584-.467-1.187-.905-1.85-1.25-1.127-.588-2.389-.885-3.662-.92a9.396 9.396 0 0 0-2.275.217c-1.986.438-3.813 1.492-5.301 2.879-2.273 2.118-3.722 4.93-4.727 7.896l-.4-.617a21.859 21.859 0 0 0-7.232 9.02c-1.21 2.811-1.813 5.85-2.127 8.895a49.625 49.625 0 0 0-.25 4.04 34.233 34.233 0 0 1 5.854-10.211 34.398 34.398 0 0 1 2.211-2.387c-.419 3.182-.545 6.402-.449 9.621a21.756 21.756 0 0 0-2.137 3.83c-1.21 2.811-1.815 5.85-2.129 8.895a49.621 49.621 0 0 0-.248 4.04 34.265 34.265 0 0 1 5.129-9.301c.177 1.298.377 2.592.617 3.877a92.366 92.366 0 0 0 1.486 6.563c-1.192 2.793-1.79 5.811-2.102 8.832a49.57 49.57 0 0 0-.25 4.04 34.238 34.238 0 0 1 3.898-7.605 143.05 143.05 0 0 0 2.598 7.451c-.176.354-.348.709-.504 1.072-1.21 2.811-1.814 5.85-2.127 8.895a49.625 49.625 0 0 0-.25 4.04 34.288 34.288 0 0 1 4.879-8.975c.204.496.403.994.609 1.488 6.982 16.688 15.733 32.963 18.529 50.836 1.05 6.71 1.224 13.539.629 20.307a10.67 10.67 0 0 1-1.982-.041c-2.394-.285-4.657-1.37-6.508-2.916a14.721 14.721 0 0 1-3.367-4.04 17.664 17.664 0 0 0 3.143 10.549c1.184 1.697 2.696 3.198 4.533 4.15a9.233 9.233 0 0 0 2.996.955 93.825 93.825 0 0 1-1.229 5.676c-.824 3.294-1.827 6.562-3.352 9.596s-3.593 5.838-6.289 7.902c-2.66 2.037-5.823 3.283-8.84 4.74-3.02 1.457-6.02 3.231-7.943 5.973-1.629 2.32-2.358 5.157-2.729 7.967-.371 2.81-.418 5.659-.844 8.461-.795 5.231-2.959 10.287-6.428 14.283-1.525 1.757-3.282 3.295-4.943 4.924-1.662 1.629-3.25 3.377-4.342 5.432a14.044 14.044 0 0 0-1.506 8.379 14.045 14.045 0 0 0 3.648 7.691 24.739 24.739 0 0 1 3.572-13.928c3.271-5.357 8.439-9.241 13.57-12.855a363.534 363.534 0 0 1 11.07-7.498 11.058 11.058 0 0 0-3.961 4.471 11.068 11.068 0 0 0-1.037 5.885c.307 3.044 1.928 5.905 4.285 7.855 2.728 2.258 6.322 3.317 8.928 5.715a11.383 11.383 0 0 1 3.512 6.588 11.38 11.38 0 0 1-1.369 7.338c4.346-4.525 6.727-10.874 6.428-17.14-.177-3.706-1.238-7.305-2.256-10.873-1.018-3.568-2.01-7.2-2.029-10.91-.017-2.617.456-5.245 1.473-7.656 1.017-2.411 2.648-4.562 4.598-6.27 1.339-1.172 2.983-2.04 4.686-2.561 1.701-.52 3.536-.415 5.313-.498a99.836 99.836 0 0 1 9.285 0c1.777.083 3.612-.022 5.313.498 1.702.52 3.346 1.388 4.686 2.561 1.95 1.707 3.581 3.858 4.598 6.27 1.017 2.411 1.489 5.04 1.473 7.656-.024 3.711-1.012 7.342-2.029 10.91-1.018 3.568-2.079 7.167-2.256 10.873-.299 6.266 2.082 12.616 6.428 17.14a11.38 11.38 0 0 1-1.369-7.338 11.383 11.383 0 0 1 3.512-6.588c2.606-2.398 6.2-3.457 8.928-5.715 2.357-1.951 3.978-4.811 4.285-7.855.202-2.01-.16-4.069-1.037-5.885a11.065 11.065 0 0 0-3.961-4.471 368.577 368.577 0 0 1 11.07 7.498c5.132 3.614 10.3 7.498 13.57 12.855a24.739 24.739 0 0 1 3.572 13.928 14.039 14.039 0 0 0 3.648-7.691 14.044 14.044 0 0 0-1.506-8.379c-1.092-2.055-2.68-3.803-4.342-5.432-1.662-1.629-3.418-3.167-4.943-4.924-3.468-3.996-5.632-9.05-6.428-14.283-.426-2.802-.473-5.651-.844-8.461-.371-2.81-1.099-5.647-2.729-7.967-1.926-2.742-4.927-4.516-7.943-5.973-3.02-1.457-6.18-2.704-8.84-4.74-2.696-2.064-4.764-4.869-6.289-7.902-1.525-3.034-2.528-6.302-3.352-9.596a94.596 94.596 0 0 1-1.229-5.676 9.233 9.233 0 0 0 2.996-.955c1.837-.952 3.349-2.454 4.533-4.15a17.648 17.648 0 0 0 3.143-10.549 14.622 14.622 0 0 1-3.367 4.04c-1.85 1.546-4.114 2.631-6.508 2.916a10.67 10.67 0 0 1-1.982.041c-.595-6.767-.421-13.597.629-20.307 2.797-17.873 11.547-34.15 18.529-50.836.207-.495.407-.995.611-1.492a34.25 34.25 0 0 1 4.879 8.979 49.566 49.566 0 0 0-.248-4.04c-.313-3.045-.919-6.083-2.129-8.895-.156-.363-.33-.717-.506-1.07a144.148 144.148 0 0 0 2.6-7.455 34.274 34.274 0 0 1 3.898 7.607 49.621 49.621 0 0 0-.248-4.04c-.311-3.02-.912-6.04-2.105-8.836a91.59 91.59 0 0 0 1.486-6.559c.24-1.285.442-2.579.619-3.877a34.27 34.27 0 0 1 5.131 9.301 49.57 49.57 0 0 0-.25-4.04c-.313-3.045-.917-6.083-2.127-8.895a21.638 21.638 0 0 0-2.139-3.834c.096-3.218-.03-6.436-.449-9.617.77.765 1.517 1.552 2.211 2.387a34.23 34.23 0 0 1 5.854 10.211 49.566 49.566 0 0 0-.248-4.04c-.313-3.045-.919-6.083-2.129-8.895a21.854 21.854 0 0 0-7.232-9.02l-.4.617c-1-2.967-2.456-5.778-4.729-7.896-1.488-1.387-3.314-2.441-5.301-2.879a9.4 9.4 0 0 0-2.275-.217c-1.273.035-2.535.332-3.662.92a9.97 9.97 0 0 0-1.273.816c.706-4.411.118-9.04-1.77-13.09-1.174-2.52-2.803-4.795-4.258-7.164-1.455-2.369-2.76-4.903-3.176-7.652a12.718 12.718 0 0 1 0-3.787c1.48.461 3.125.37 4.545-.252 1.943-.852 3.41-2.711 3.787-4.799a8.65 8.65 0 0 1-5.303 2.273c-.841.052-1.703-.025-2.482-.346-.779-.321-1.469-.903-1.809-1.674-.328-.745-.308-1.61-.084-2.393.224-.783.638-1.499 1.082-2.182.444-.683.921-1.345 1.295-2.068.374-.724.642-1.522.627-2.336-.012-.604-.179-1.198-.432-1.746s-.591-1.052-.953-1.535c-.724-.966-1.561-1.863-2.096-2.945a6.226 6.226 0 0 1-.197-4.996c1.744.355 3.637.591 5.303 0 2.657-.943 7.07-3.25 6.564-5.332-.792 1.159-4.358.614-6.426.057-2-.54-3.409-2.454-5.355-3.176-1.149-.426-2.391-.785-3.621-.639-1.515.181-2.85 1.066-4.04 2.02a29.2 29.2 0 0 0-4.545 4.545 24.11 24.11 0 0 1 1.768-8.08c1.497-3.661 3.97-6.992 7.322-9.09 2.45-1.533 5.269-2.363 8.08-3.03 1.313-.312 2.646-.594 3.996-.59 1.35.004 2.732.314 3.832 1.096.726.516 1.308 1.222 1.725 2.01.416.787.67 1.654.801 2.535.238 1.608 1.185 2.151.617 3.674 3.02-.521 4.658-1.25 6.285-3.844.975-1.554 1.553-3.385 1.457-5.217a7.428 7.428 0 0 0-1.01-3.379 6.984 6.984 0 0 0-2.496-2.482c-1.434-.829-3.119-1.102-4.77-1.234a32.695 32.695 0 0 0-5.527.025 15.364 15.364 0 0 0-.365-2.945c-.257-1.149-.649-2.277-1.262-3.283-.75-1.232-1.821-2.258-3.047-3.02-1.226-.76-2.606-1.258-4.02-1.527-2.743-.521-5.597-.195-8.332-.758-1.647-.339-3.231-.998-4.906-1.148-1.897-.171-3.789.321-5.613.869-2.64.794-5.252 1.72-7.969 2.188-3.917.674-7.971.371-11.813-.646a32.555 32.555 0 0 1-6.566-2.523z"/><path style="fill-rule:evenodd;stroke:#000;stroke-linecap:round" d="M111.792 86.75c-2.784 3.475-4.159 8.04-3.76 12.479a17.535 17.535 0 0 0 2.531 7.6 17.236 17.236 0 0 1-1.459-8.01 17.27 17.27 0 0 1 3.426-9.299 22.103 22.103 0 0 1 5.652 5.701 22.103 22.103 0 0 1 3.42 8.211 20.529 20.529 0 0 0-1.896-7.848 20.597 20.597 0 0 0-7.914-8.836zm135.01 0a20.593 20.593 0 0 0-7.912 8.836 20.488 20.488 0 0 0-1.896 7.848 22.103 22.103 0 0 1 3.42-8.211 22.103 22.103 0 0 1 5.652-5.701 17.244 17.244 0 0 1 3.424 9.299 17.243 17.243 0 0 1-1.457 8.01 17.53 17.53 0 0 0 2.531-7.6c.4-4.435-.977-9-3.762-12.479zM95.452 99.87c-1.833 4.496-1.854 9.703-.055 14.213a19.034 19.034 0 0 0 5.02 7.152 18.815 18.815 0 0 1-4.02-7.914 18.803 18.803 0 0 1 .691-10.783 24.085 24.085 0 0 1 7.689 4.193 24.111 24.111 0 0 1 6.135 7.516 22.34 22.34 0 0 0-4.428-7.609 22.436 22.436 0 0 0-11.03-6.768zm167.68 0a22.44 22.44 0 0 0-11.03 6.768 22.36 22.36 0 0 0-4.428 7.609 24.109 24.109 0 0 1 6.135-7.516 24.087 24.087 0 0 1 7.689-4.193 18.794 18.794 0 0 1 .691 10.783 18.74 18.74 0 0 1-4.02 7.914 19.04 19.04 0 0 0 5.01-7.152c1.799-4.51 1.779-9.717-.055-14.213zm-173.76 25.16c-1.094-.02-2.19.039-3.275.182-.006 4.856 1.935 9.688 5.299 13.189a19.08 19.08 0 0 0 7.338 4.74 18.751 18.751 0 0 1-6.699-5.822 18.8 18.8 0 0 1-3.418-10.25 24.07 24.07 0 0 1 8.701.992 24.127 24.127 0 0 1 8.514 4.652 22.346 22.346 0 0 0-6.967-5.383 22.437 22.437 0 0 0-9.492-2.301zm179.84 0a22.433 22.433 0 0 0-9.492 2.301 22.38 22.38 0 0 0-6.967 5.383c2.483-2.107 5.4-3.7 8.514-4.652a24.073 24.073 0 0 1 8.701-.992 18.8 18.8 0 0 1-3.418 10.25 18.726 18.726 0 0 1-6.699 5.822 19.1 19.1 0 0 0 7.338-4.74c3.364-3.502 5.305-8.334 5.299-13.189a22.141 22.141 0 0 0-3.275-.182zm-165.51 20.828c-2.954.028-5.901.65-8.613 1.82a22.44 22.44 0 0 0-9.883 8.357c3.696 3.15 8.634 4.799 13.48 4.504a19.093 19.093 0 0 0 8.363-2.521 18.758 18.758 0 0 1-8.775 1.334 18.801 18.801 0 0 1-10.02-4.03 24.094 24.094 0 0 1 6.393-5.988 24.1 24.1 0 0 1 9.06-3.473zm151.17 0a24.12 24.12 0 0 1 9.06 3.473 24.094 24.094 0 0 1 6.393 5.988 18.768 18.768 0 0 1-10.02 4.03 18.764 18.764 0 0 1-8.775-1.334 19.075 19.075 0 0 0 8.363 2.521c4.847.295 9.785-1.354 13.48-4.504a22.439 22.439 0 0 0-9.883-8.357 22.351 22.351 0 0 0-8.613-1.82zm-150.04 18.656a22.365 22.365 0 0 0-7.643 4.371 22.446 22.446 0 0 0-6.85 10.98c4.482 1.867 9.689 1.925 14.213.16a19.08 19.08 0 0 0 7.189-4.961 18.755 18.755 0 0 1-7.945 3.957 18.8 18.8 0 0 1-10.777-.771 24.086 24.086 0 0 1 4.252-7.658 24.088 24.088 0 0 1 7.561-6.078zm148.91 0a24.1 24.1 0 0 1 7.561 6.078 24.116 24.116 0 0 1 4.252 7.658 18.8 18.8 0 0 1-10.777.771 18.755 18.755 0 0 1-7.945-3.957 19.08 19.08 0 0 0 7.189 4.961c4.524 1.765 9.73 1.707 14.213-.16a22.427 22.427 0 0 0-6.85-10.98 22.356 22.356 0 0 0-7.643-4.371zm-140.38 15.865a22.364 22.364 0 0 0-6.451 5.992 22.437 22.437 0 0 0-4.18 12.248c4.789.801 9.874-.323 13.879-3.068a19.086 19.086 0 0 0 5.877-6.463 18.76 18.76 0 0 1-6.84 5.656 18.8 18.8 0 0 1-10.674 1.695 24.107 24.107 0 0 1 2.406-8.424 24.118 24.118 0 0 1 5.982-7.637zm131.86 0a24.09 24.09 0 0 1 5.982 7.637 24.083 24.083 0 0 1 2.404 8.424 18.814 18.814 0 0 1-10.674-1.695 18.795 18.795 0 0 1-6.838-5.656 19.08 19.08 0 0 0 5.875 6.463c4.01 2.745 9.09 3.87 13.881 3.068a22.435 22.435 0 0 0-4.18-12.248 22.364 22.364 0 0 0-6.451-5.992zm-121.82 11.705a22.343 22.343 0 0 0-4.779 7.395 22.43 22.43 0 0 0-1.037 12.9c4.839-.402 9.491-2.742 12.697-6.389a19.075 19.075 0 0 0 4.105-7.711 18.773 18.773 0 0 1-5.238 7.166 18.805 18.805 0 0 1-9.926 4.268 24.084 24.084 0 0 1 .256-8.754 24.112 24.112 0 0 1 3.922-8.875zm111.79 0a24.112 24.112 0 0 1 3.922 8.875c.62 2.87.706 5.853.256 8.754a18.803 18.803 0 0 1-9.928-4.268 18.768 18.768 0 0 1-5.236-7.166 19.094 19.094 0 0 0 4.105 7.711c3.206 3.647 7.858 5.987 12.697 6.389a22.429 22.429 0 0 0-1.037-12.9 22.369 22.369 0 0 0-4.779-7.395zm-98.23 16.15a22.368 22.368 0 0 0-3.137 8.227 22.432 22.432 0 0 0 1.67 12.834c4.65-1.4 8.712-4.655 11.09-8.889a19.079 19.079 0 0 0 2.412-8.396 18.755 18.755 0 0 1-3.633 8.098 18.799 18.799 0 0 1-8.822 6.24 24.068 24.068 0 0 1-1.568-8.617 23.952 23.952 0 0 1 1.988-9.496zm84.67 0a24.094 24.094 0 0 1 1.99 9.496 24.112 24.112 0 0 1-1.568 8.617 18.806 18.806 0 0 1-8.822-6.24 18.767 18.767 0 0 1-3.633-8.098 19.084 19.084 0 0 0 2.412 8.396c2.378 4.234 6.44 7.489 11.09 8.889a22.43 22.43 0 0 0 1.668-12.834 22.35 22.35 0 0 0-3.137-8.227zM153.682 157.44a8.086 8.086 0 0 0-1.08 2.91 8.128 8.128 0 0 0 .574 4.541 6.788 6.788 0 0 0 3.816-3.146 6.734 6.734 0 0 0 .83-2.969 6.594 6.594 0 0 1-1.25 2.865 6.589 6.589 0 0 1-3.035 2.207 8.756 8.756 0 0 1-.541-3.049 8.752 8.752 0 0 1 .686-3.359zm51.23 0a8.752 8.752 0 0 1 .686 3.359 8.764 8.764 0 0 1-.541 3.049 6.596 6.596 0 0 1-3.035-2.207 6.599 6.599 0 0 1-1.25-2.865 6.738 6.738 0 0 0 .83 2.969 6.79 6.79 0 0 0 3.816 3.146 8.123 8.123 0 0 0 .574-4.541 8.112 8.112 0 0 0-1.08-2.91zm-36.947 7.498a8.09 8.09 0 0 0-1.08 2.912 8.12 8.12 0 0 0 .574 4.539 6.786 6.786 0 0 0 3.816-3.145 6.742 6.742 0 0 0 .83-2.971 6.594 6.594 0 0 1-1.25 2.865 6.589 6.589 0 0 1-3.035 2.207 8.756 8.756 0 0 1-.541-3.049 8.752 8.752 0 0 1 .686-3.359zm22.664 0a8.752 8.752 0 0 1 .686 3.359 8.764 8.764 0 0 1-.541 3.049 6.596 6.596 0 0 1-3.035-2.207 6.599 6.599 0 0 1-1.25-2.865 6.746 6.746 0 0 0 .83 2.971 6.793 6.793 0 0 0 3.816 3.145 8.119 8.119 0 0 0 .574-4.539 8.108 8.108 0 0 0-1.08-2.912zm-30.52 16.428a8.105 8.105 0 0 0-1.08 2.91 8.128 8.128 0 0 0 .574 4.541 6.788 6.788 0 0 0 3.816-3.146 6.734 6.734 0 0 0 .83-2.969 6.586 6.586 0 0 1-1.25 2.863 6.6 6.6 0 0 1-3.035 2.209 8.756 8.756 0 0 1-.541-3.049 8.752 8.752 0 0 1 .686-3.359zm38.37 0a8.752 8.752 0 0 1 .686 3.359 8.764 8.764 0 0 1-.541 3.049 6.6 6.6 0 0 1-3.035-2.209 6.591 6.591 0 0 1-1.25-2.863 6.738 6.738 0 0 0 .83 2.969 6.79 6.79 0 0 0 3.816 3.146 8.123 8.123 0 0 0 .574-4.541 8.112 8.112 0 0 0-1.08-2.91zm-25.52 7.498a8.086 8.086 0 0 0-1.08 2.91 8.128 8.128 0 0 0 .574 4.541 6.786 6.786 0 0 0 3.816-3.145 6.742 6.742 0 0 0 .83-2.971 6.594 6.594 0 0 1-1.25 2.865 6.589 6.589 0 0 1-3.035 2.207 8.756 8.756 0 0 1-.541-3.049 8.752 8.752 0 0 1 .686-3.359zm12.664 0a8.752 8.752 0 0 1 .686 3.359 8.764 8.764 0 0 1-.541 3.049 6.596 6.596 0 0 1-3.035-2.207 6.599 6.599 0 0 1-1.25-2.865 6.746 6.746 0 0 0 .83 2.971 6.793 6.793 0 0 0 3.816 3.145 8.123 8.123 0 0 0 .574-4.541 8.112 8.112 0 0 0-1.08-2.91zm-20.879 12.855a8.083 8.083 0 0 0-1.078 2.91 8.128 8.128 0 0 0 .574 4.541 6.786 6.786 0 0 0 3.816-3.145 6.742 6.742 0 0 0 .83-2.971 6.594 6.594 0 0 1-1.25 2.865 6.594 6.594 0 0 1-3.037 2.207 8.75 8.75 0 0 1 .145-6.408zm29.09 0a8.75 8.75 0 0 1 .145 6.408 6.601 6.601 0 0 1-3.037-2.207 6.599 6.599 0 0 1-1.25-2.865 6.746 6.746 0 0 0 .83 2.971 6.793 6.793 0 0 0 3.816 3.145 8.123 8.123 0 0 0 .574-4.541 8.108 8.108 0 0 0-1.078-2.91zm-22.52 40.676a8.083 8.083 0 0 0-1.078 2.91 8.128 8.128 0 0 0 .574 4.541 6.788 6.788 0 0 0 3.816-3.146 6.734 6.734 0 0 0 .83-2.969 6.586 6.586 0 0 1-1.25 2.863 6.598 6.598 0 0 1-3.037 2.209 8.75 8.75 0 0 1 .145-6.408zm15.945 0a8.75 8.75 0 0 1 .145 6.408 6.605 6.605 0 0 1-3.037-2.209 6.591 6.591 0 0 1-1.25-2.863 6.738 6.738 0 0 0 .83 2.969 6.79 6.79 0 0 0 3.816 3.146 8.123 8.123 0 0 0 .574-4.541 8.108 8.108 0 0 0-1.078-2.91zm-16.805 24.674a8.086 8.086 0 0 0-1.08 2.91 8.128 8.128 0 0 0 .574 4.541 6.786 6.786 0 0 0 3.816-3.145 6.742 6.742 0 0 0 .83-2.971 6.594 6.594 0 0 1-1.25 2.865 6.589 6.589 0 0 1-3.035 2.207 8.756 8.756 0 0 1-.541-3.049 8.752 8.752 0 0 1 .686-3.359zm17.664 0a8.752 8.752 0 0 1 .686 3.359 8.764 8.764 0 0 1-.541 3.049 6.596 6.596 0 0 1-3.035-2.207 6.599 6.599 0 0 1-1.25-2.865 6.746 6.746 0 0 0 .83 2.971 6.793 6.793 0 0 0 3.816 3.145 8.123 8.123 0 0 0 .574-4.541 8.112 8.112 0 0 0-1.08-2.91zm-21.949 28.926a8.086 8.086 0 0 0-1.08 2.91 8.128 8.128 0 0 0 .574 4.541 6.788 6.788 0 0 0 3.816-3.146 6.734 6.734 0 0 0 .83-2.969 6.586 6.586 0 0 1-1.25 2.863 6.593 6.593 0 0 1-3.035 2.209 8.756 8.756 0 0 1-.541-3.049 8.752 8.752 0 0 1 .686-3.359zm26.23 0a8.752 8.752 0 0 1 .686 3.359 8.764 8.764 0 0 1-.541 3.049 6.6 6.6 0 0 1-3.035-2.209 6.591 6.591 0 0 1-1.25-2.863 6.738 6.738 0 0 0 .83 2.969 6.79 6.79 0 0 0 3.816 3.146 8.123 8.123 0 0 0 .574-4.541 8.112 8.112 0 0 0-1.08-2.91zm-45.875 16.426a8.086 8.086 0 0 0-1.08 2.91 8.128 8.128 0 0 0 .574 4.541 6.786 6.786 0 0 0 3.816-3.145 6.742 6.742 0 0 0 .83-2.971 6.594 6.594 0 0 1-1.25 2.865 6.589 6.589 0 0 1-3.035 2.207 8.756 8.756 0 0 1-.541-3.049 8.752 8.752 0 0 1 .686-3.359zm65.52 0a8.752 8.752 0 0 1 .686 3.359 8.764 8.764 0 0 1-.541 3.049 6.596 6.596 0 0 1-3.035-2.207 6.599 6.599 0 0 1-1.25-2.865 6.746 6.746 0 0 0 .83 2.971 6.793 6.793 0 0 0 3.816 3.145 8.123 8.123 0 0 0 .574-4.541 8.112 8.112 0 0 0-1.08-2.91z"/><path d="M184.962 42.42c-.704.854-2.171.44-3.26.633-.838.149-1.69.22-2.543.243-.236.472-.36.989-.361 1.514.002.756.256 1.491.725 2.093a7.274 7.274 0 0 0 1.983.018c.901-.106 1.781-.333 2.66-.547.513-.125 1.031-.231 1.546-.348a3.4 3.4 0 0 0 .23-1.216c0-.889-.135-2.557-.98-2.39z" style="stroke:#000;stroke-width:2;stroke-linecap:round"/><path d="M189.512 44.86a6.919 6.919 0 0 0-5.08-2.541c-1.601-.055-3.161.451-4.739.733-1.969.352-4 .353-5.97.004a6.032 6.032 0 0 0 3.08 3.685c.978.483 2.074.69 3.163.746 1.089.057 2.181-.031 3.269-.106 2.508-.174 5.02-.286 7.533-.336l-1.257-2.185z" style="fill:none;fill-rule:evenodd;stroke:#000;stroke-width:2;stroke-linecap:round"/></svg>