<svg xmlns="http://www.w3.org/2000/svg" height="927.98" width="874" viewBox="0 0 699.201 742.383"><path d="M567.97 0C486 26.626 409.2 32.297 330.01 32.069c-76.32-.22-148.73-13.987-218.12-27.679C99.821 55.863 62.101 108.09 0 117.64c35.751 29.13 50.252 71.35 60.542 112.16 6.167 24.45 9.897 49.61 9.729 74.89-.184 27.65-4.122 55.06-8.814 82.24-4.794 27.76-9.614 55.54-13.488 83.46-3.243 23.38-6.068 46.91-6.126 70.53-.034 14.05 1.033 28.13 3.819 41.95 3.957 19.62 11.218 38.61 21.659 55.72 16.656 27.31 41.899 49.35 71.539 61.45 22.67 9.26 47.61 12.48 71.99 10.2 24.55-2.29 49.22-6.23 73.94-3.95 27.24 2.51 46.9 8.74 56.24 36.09 11.68-20.12 25.75-32.34 45.24-36.89 13.98-3.28 28.41-1.6 42.35.7 14.71 2.43 29.25 5.67 44.03 7.68 25.28 3.44 51.61 2.36 75.64-6.65 24.22-9.09 45.8-24.95 61.96-45.17 13.02-16.29 22.23-35.68 26.21-56.08 11.35-58.07 5.1-120.67-3.33-174.09-6.91-43.81-18.2-87.2-18.89-131.73-1.18-76.15 22.66-146.17 84.96-182.37C634.07 108.59 580.81 63.557 567.97 0z"/><path fill="#0f47af" d="M117.32 10.652c66.97 27.683 148.7 34.02 213.23 35.522v77.206H159.44c-6.42-41.236-16.37-66.006-47.1-94.299 1.07-6.288 4.49-11.975 4.98-18.429zM558.26 9.68c4.15 12.325 8.28 24.692 14.49 36.16 14.53 29.708 41.41 51.92 71.09 65.55 9.55 4.41 19.49 7.9 29.27 11.77-4.41 4.63-9.79 8.21-14.27 12.79-21.79 20.26-35.62 47.57-44.59 75.62-11.84 38.27-13.97 79.06-9.3 118.71 2.85 25.72 8.75 50.97 12.58 76.54 2.9 18.49 5.89 36.99 7.83 55.61 4.54 38.98 7.65 78.52 2.3 117.58-3.75 27.62-12.99 55.16-30.24 77.35-10.61 14.61-24.19 27.09-39.72 36.32-16.43 10.19-35.8 15.18-55.06 15.56-19.27.82-38.25-3.15-57.05-6.79-14.9-2.59-29.79-6.12-45.01-5.85-12.77-.22-25.6 3.2-36.31 10.21-6.36 4.26-12.35 9.44-18.07 14.49V46.15c75.45 3.184 148.32-18.016 212.06-36.47z"/><g fill="#fff"><path d="M24.985 132.87h39.803c8.926 13.72 17.213 27.89 19.268 44.38 1.741 13.98 2.697 28.09 5.633 41.9l-23.581-.14c-9.19-34.73-20.371-61.57-41.123-86.14zM161.1 132.87h169.45v87.59l-118.69-.77c-7.92-12.44-16.8-24.22-25.27-36.27-7.01-9.97-14.1-20.07-18.71-31.45-2.54-6.28-4.83-12.62-6.78-19.1zM387.16 242.24l-.03 99.12h177.93l-.04-99.12zM78.824 321.6H146c8.47 28.66 4.46 58.35 6.15 87.72H65.482c5.219-29.66 10.205-60.71 13.342-87.72zM236.02 321.6h94.53v87.72h-71.56c-6.08-10.61-12.26-21.07-16.52-32.57-6.52-17.6-7.09-36.58-6.45-55.15zM51.029 514.08h159.14c11.7 15.54 17.95 34.57 21.91 53.37 2.59 12.3 5.78 23.96 9.19 36.03H58.829c-10.014-32.67-11.205-58.48-7.801-89.4zM296.32 514.08h34.23v49.46c-7.5-3.61-13.88-8.6-18.65-15.52-3.02-4.41-6.48-8.62-8.35-13.69-2.42-6.54-4.66-13.76-7.23-20.25zM407.89 348.71l.07 275.48h139.19l.02-275.01z"/></g><path d="M460.21 440.26h38.21v5.65h-38.21z"/><path d="m477.99 60.335-128.29 181.9h27.47l.04 106.64h19.55l.15 285.12H556.9l.25-285.12h17.5l-.08-106.64h23.35zm-90.84 181.9h51.13v99.12h-51.13zm56.35 0h72.99v99.12h-73.01zm78.96 0h42.58v99.12h-42.58zm-114.55 106.64h139.32v74.96l-139.32-.43zm0 80.48 139.32.43v194.4h-42.09v-105.31h-52.68v105.31h-44.55zm49.97 95.68h41.51v99.15h-41.51z"/><g fill="#0f47af"><path d="M20.063 123.38c9.96-2.67 19.404-7.98 27.121-14.88 3.824 4.4 7.33 9.91 10.379 14.88zM67.997 228.78h24.886c10.547 18.79 24.247 35.4 36.267 53.24 6.2 9.21 11.25 19.21 14.56 29.82l-64.408-.28c-.83-28.92-4.046-57.56-11.305-82.78zM216.29 228.78h114.26v84.04l-94.88-.55c.6-17.38-4.18-34.19-7.33-51.1-2.1-11.28-7.12-22.1-12.05-32.39zM63.844 419.67h90.526c7.03 18.75 14.49 37.83 25.77 54.51 7.26 10.74 15.45 20.61 23.27 30.92-50.81-.84-106.46.07-151.52 0 3.509-30.57 6.446-58 11.954-85.43zM265.76 419.67h64.79v85.43c-12.48-.53-24.43.65-36.91 0-1.87-6.76-3.21-13.32-3.86-20.32-1.27-13.46-3.94-27-9.93-39.26-4.21-8.63-8.96-17.75-14.09-25.85zM62.769 613.64h181.76c5.65 12.81 12.36 25.78 20.9 36.92 8.94 11.65 18.83 22.62 29.93 32.24 10.4 9 22.21 16.01 35.19 20.54v8.54c-7.17-3.72-14.3-6.81-21.95-9.4-11.61-3.94-24.06-3.04-36.13-3.17-35.19-.37-70.04 9.2-102.11 2.66-15.92-3.24-31.42-8.74-45.3-16.95-31.49-18.61-47.996-41.28-62.291-71.38z"/></g><g fill="#da121a"><path d="m445.28 234.43 31.3-148.16 38.55 148.16zM368.97 234.43l99.68-144.1-29.43 144.1zM484.13 90.333l95.61 144.1h-58.59zM108.9 39.828c23.7 18.56 35.86 50.048 40.19 78.102 1.1 7.1 1.9 14.26 3.79 21.23 5.7 20.94 18.69 38.64 30.55 56.41 10.25 15.36 22.08 29.95 29.06 47.23 4.09 10.14 6.38 20.85 8.63 31.52 4.16 19.73 4.3 39.97 4.81 60.03.45 17.31 2.21 34.89 8.84 51.13 5.66 13.86 14.73 25.82 22.44 38.51 7.05 11.63 13.64 23.69 17.51 36.83 3.38 11.47 5.34 23.27 7.77 34.96 3.91 18.8 8.82 37.83 19.37 54.25 7.41 11.54 18.37 19.07 28.69 27.57v113.79c-8.12-2.83-15.81-6.28-22.91-11.13-6.42-4.38-12.33-9.53-17.7-15.19-11.53-12.15-22.08-25.37-30.12-40.08-6.78-12.4-10.95-26.03-14.37-39.72-5.21-20.88-8.28-42.65-18.32-62-8.76-16.9-22.57-30.19-33.89-45.25-20.34-27.07-33.09-60.21-33.56-94.27-.27-19.65 1.59-39.47-2.07-58.94-2.51-13.31-7.99-25.85-14.88-37.41-7.49-12.55-16.33-24.25-24.94-36.05-6.95-9.53-13.82-19.38-17.75-30.62-6.424-18.41-4.835-38.36-10.159-57.02-3.464-12.15-8.723-23.84-15.944-34.17-5.99-8.57-12.718-16.61-19.093-24.91C80.391 84.766 98.598 66.533 108.9 39.828z"/></g><path d="M461.39 262.27v50.23h31.46v-50.23zm6.05 5.69h18.61v38.38h-18.61z"/></svg>