<svg xmlns="http://www.w3.org/2000/svg" viewBox="0 0 977.12 1068.16"><path d="M138.97 10.05c-66.31.055-128.97.5-128.97.5s4.992 48.17 6.781 72.31c3.067 41.38 4.253 82.87 6.781 124.28 3.405 55.766 7.908 111.52 11.313 167.28 2.529 41.41 3.908 82.89 6.781 124.28 4.346 62.59 5.02 125.75 15.781 187.56 6.02 34.562 14.438 68.961 27.16 101.66 15.355 39.473 33.478 78.74 58.844 112.66 18.288 24.456 41.64 45.05 65.875 63.62 27.747 21.272 57.967 39.817 89.94 53.969 33.818 14.97 69.896 25.08 106.22 32.09 27.29 5.27 55.3 7.244 83.09 7.344v-514.62h-239.25v428.31c-12.651-8.117-24.876-16.926-36.625-26.312-22.2-17.733-43.564-37.38-60.31-60.719-23.23-32.374-39.844-69.857-53.906-107.53-11.648-31.21-19.364-64.01-24.875-97-7.534-45.1-9.664-90.96-12.03-136.75h187.75V28.732h239.25V10.513c-1.326.009-2.642.028-3.969.031-78.35.214-155.96 1.122-235.06 0-29.665-.421-70.775-.533-110.56-.5" fill="#fff"/><path d="M798.41 10.01c-26.17.053-51.04.219-70.813.5-79.11 1.122-156.71-.214-235.06 0-1.326.004-2.642-.009-3.969 0V1057.6h.125c27.662.094 55.52-1.529 82.69-6.75 36.46-7.01 72.55-17.629 106.47-32.75 31.934-14.235 62.22-32.697 89.97-53.969 24.24-18.58 47.618-39.17 65.906-63.62 25.365-33.919 43.46-73.15 58.813-112.62 12.718-32.695 21.14-67.16 27.16-101.72 10.762-61.814 11.436-124.97 15.781-187.56 2.874-41.39 4.253-82.87 6.781-124.28 3.405-55.766 7.908-111.45 11.313-167.22 2.529-41.41 3.714-82.903 6.781-124.28 1.79-24.14 6.781-72.31 6.781-72.31s-90.22-.658-168.72-.5z" fill="#4d87ca" stroke="#000" stroke-width="5"/><path d="M827.13 699.2c-2.855-1.248-5.45-3.494-7-6.197-11.825-20.628-10.983-46.373-13.818-69.976-1.509-12.568-1.849-25.28-1.672-37.937.189-13.495 1.805-26.943 2.916-40.4 2.592-31.403 8.83-62.617 8.746-94.126-.046-17.018-4.935-33.787-4.997-50.814-.05-13.8 4.195-27.439 3.748-41.234-.61-18.82-3.725-37.663-8.746-55.81-3.554-12.846-11.237-24.28-14.993-37.067-1.473-5.015-3.081-10.185-2.915-15.41.195-6.158 1.744-12.438 4.58-17.908 2.856-5.507 7.15-10.392 12.079-14.16 4.39-3.357 10.304-4.154 14.992-7.08 4.525-2.823 8.255-6.757 12.49-9.995 1.502-1.146 2.696-3.43 4.582-3.332 1.865.097 2.52 2.86 4.164 3.748 2.4 1.296 7.913 2.083 7.913 2.083s.454-4.882-.416-7.08c-1.197-3.025-4.23-4.946-6.248-7.496-1.292-1.633-3.415-2.943-3.748-4.998-.14-.866.158-1.937.833-2.499 4.633-3.857 13.496 1.606 17.908-2.499 1.456-1.353 2.367-4.187 1.25-5.83-1.9-2.794-7.31.382-9.996-1.666-1.58-1.206-2.956-3.48-2.5-5.415.613-2.595 4.925-2.682 6.248-4.997.487-.853-.187-2.141.416-2.915 2.03-2.603 6.356-2.014 9.163-3.748 2.51-1.552 6.663-5.831 6.663-5.831s-6.125-.772-9.162-.417c-3.011.352-6.114 4.004-8.747 2.5-3.361-1.925-2.395-7.408-2.915-11.245-1.21-8.944-3.237-18.499-.416-27.068 1.145-3.481 4.901-5.532 6.663-8.746 2.704-4.933 5.078-10.263 5.819-15.84.825-6.212.425-12.815-1.654-18.728-1.328-3.778-3.133-8.106-6.664-9.996-1.224-.655-2.824-.363-4.164 0-1.862.504-3.455 1.758-4.998 2.916-2.907 2.179-5.36 4.91-7.912 7.496-1.726 1.748-3.575 3.412-4.998 5.414-1.366 1.924-1.308 5.033-3.331 6.248-1.071.643-2.714.7-3.748 0-1.239-.839-.62-3.098-1.666-4.165-2.744-2.799-7.095-3.387-10.828-4.58-6.095-1.95-12.368-3.585-18.742-4.165-3.736-.34-7.54-.173-11.244.416-3.992.635-7.705 2.496-11.661 3.332-4.937 1.042-9.966 2.51-14.993 2.083-3.193-.272-6.424-1.25-9.162-2.916-3.523-2.143-5.631-6.044-8.747-8.746-3.67-3.184-7.071-7.152-11.66-8.746-5.248-1.823-11.131-.954-16.66-.417-1.274.124-2.9-.122-3.748.833-1.766 1.98-1.306 5.303-.833 7.913.665 3.664 4.734 6.28 4.998 9.995.218 3.066-1.963 5.824-2.916 8.746-.992 3.048-3.138 5.965-2.915 9.163.268 3.838 3.81 6.748 4.997 10.412.957 2.953 1.217 6.091 1.665 9.162.364 2.488 1.18 5.006.833 7.497-.557 4.008-3.513 7.341-4.58 11.244-1 3.656-.946 7.525-1.666 11.245-.679 3.504-1.287 7.054-2.5 10.412-3.203 8.876-9.013 16.633-12.49 25.405a71.196 71.196 0 0 0-3.332 10.828c-1.97 8.894-.998 18.387-3.748 27.068-3.11 9.826-8.874 18.64-14.16 27.487-4.405 7.372-9.345 14.434-14.576 21.239-1.56 2.03-2.672 4.76-4.997 5.83-.883.407-1.994.308-2.916 0-3.95-1.316-7.357-4.273-9.995-7.495-8.18-9.996-11.61-23.096-16.66-34.984-2.78-6.55-5.568-13.14-7.496-19.99-.995-3.54-1.923-7.157-2.082-10.829-.352-8.087 2.25-16.064 2.499-24.158.102-3.333.85-6.91-.417-9.995-3.136-7.636-10.449-12.886-16.659-18.33-3.302-2.89-7.458-4.683-10.828-7.496-2.562-2.138-4.669-4.772-7.08-7.08-1.632-1.563-2.934-3.658-4.997-4.58-2.547-1.14-5.63-1.539-8.329-.834-1.64.428-2.726 2.02-4.164 2.916-2.69 1.675-6.014 2.419-8.33 4.58-1.688 1.577-4.31 3.591-3.748 5.832.697 2.773 4.858 3.064 7.497 4.164 4.136 1.724 10.678-.137 12.91 3.748.856 1.489-.144 3.683-1.248 4.998-.88 1.047-2.382 1.66-3.749 1.665-3.482.014-6.282-3.045-9.58-4.164-1.084-.369-2.2-.674-3.332-.833-4.128-.578-8.364-.967-12.491-.417-1.871.25-3.642 1.016-5.415 1.666-1.985.728-4.562.807-5.83 2.499-2.769 3.693-1.503 9.132-1.666 13.744-.099 2.778-1.4 6.224.416 8.33 1.85 2.144 5.732.54 8.33 1.665 2.191.95 6.719 1.948 5.83 4.164-1.095 2.734-5.829-1.654-8.746-1.249-1.354.189-2.6.924-3.748 1.666-2.972 1.924-6.794 3.722-7.913 7.08-1.343 4.03-.331 9.327 2.5 12.49 2.428 2.718 7.502 1.138 10.411 3.332 2.398 1.81 2.803 5.447 4.997 7.497 1.637 1.527 3.739 2.534 5.831 3.331 4.376 1.668 9.344 1.312 13.744 2.916 2.217.808 4.86 1.423 6.247 3.332 2.322 3.193 1.456 7.762 2.083 11.661.623 3.877-.034 8.122 1.665 11.661 1.318 2.745 4.114 4.492 6.247 6.664 4.748 4.833 10.787 8.545 14.577 14.16 4.11 6.09 6.436 13.308 8.329 20.407 2.417 9.068 2.389 18.618 3.748 27.9a1489.846 1489.846 0 0 0 5.414 34.151c1.042 6.121.284 12.917 3.332 18.33 2.366 4.198 6.52 7.421 10.828 9.58 3.677 1.841 8.573.35 12.078 2.5 1.516.929 3.332 4.164 3.332 4.164s-17.295 7.04-25.821 10.828c-6.868 3.05-13.175 7.54-20.408 9.581-2.42.683-5.142 1.716-7.496.833-2.116-.794-3.559-2.982-4.58-4.997-1.925-3.788-1.437-8.382-2.5-12.49-1.603-6.207-1.81-13.333-5.83-18.33-2.614-3.246-7.127-4.336-10.829-6.247-3.257-1.681-6.415-3.8-9.995-4.581-3.526-.77-7.344-.942-10.828 0-3.724 1.007-6.677 3.867-9.996 5.83-2.09 1.237-4.897 1.73-6.247 3.749-1.561 2.333-.445 5.64-1.25 8.329-.569 1.905-1.184 3.923-2.498 5.414-1.732 1.965-4.902 2.228-6.664 4.165-2.297 2.527-4.683 5.752-4.58 9.163.124 4.165 3.312 7.87 6.246 10.828 1.924 1.944 7.514 1.461 7.08 4.164-.516 3.227-6.728.48-9.58 2.083-3.338 1.878-6.276 4.868-7.913 8.329-1.914 4.047-2.784 8.992-1.666 13.327 1.414 5.486 5.189 10.746 9.996 13.744 4.784 2.983 11.03 3.223 16.659 2.915 4.474-.245 9.468-.878 12.91-3.748 1.67-1.392.787-5.393 2.916-5.83 2.316-.477 3.782 2.87 5.415 4.58 3.144 3.295 4.814 7.932 8.329 10.828 3.354 2.764 7.491 4.605 11.66 5.831 6.164 1.812 12.927 3.641 19.162 2.083 3.587-.897 5.762-4.795 9.163-6.247 4.307-1.84 9.076-3.291 13.744-2.916 4.6.37 8.42 3.93 12.91 4.997 6.922 1.647 14.197 1.087 21.24 2.083 3.775.533 11.244 2.083 11.244 2.083s2.446 32.047 4.997 47.895c2.17 13.467 4.915 26.886 8.747 39.982 3.823 13.068 11.581 24.943 14.16 38.314.973 5.045 3.267 11.135.416 15.41-1.073 1.609-3.513 1.73-5.415 2.083-3.958.735-8.115-.712-12.078 0-5.101.917-10.634 2.047-14.576 5.414-5.813 4.967-8.231 12.965-11.245 19.991-6.524 15.215-8 32.285-14.576 47.478-.889 2.054-1.57 4.45-3.332 5.831-1.59 1.247-3.847 2.071-5.83 1.665-2.804-.574-4.722-3.311-6.664-5.414-5.148-5.572-8.758-12.393-12.911-18.742-2.594-3.965-5.91-7.613-7.496-12.078-1.828-5.144-2.73-10.822-2.083-16.243.6-5.017 5.333-9.107 5.414-14.16.062-3.819-2.011-7.426-3.748-10.828-2.311-4.528-6.404-7.981-8.746-12.49-2.447-4.717-2.565-10.509-5.415-14.993-2.632-4.143-6.94-6.941-10.411-10.412-2.5-2.499-4.254-6.092-7.497-7.496-3.95-1.712-8.652-1.075-12.91-.417-2.474.383-5.05 1.036-7.08 2.5-2.569 1.85-6.09 4.341-5.831 7.496.202 2.447 3.457 3.514 5.414 4.997 1.689 1.28 4.346 1.502 5.415 3.332 1.822 3.118 3.209 8.538.416 10.828-2.76 2.264-6.867-2.08-10.412-2.5-4.687-.553-9.539-.956-14.16 0-3.408.71-7.666 1.254-9.58 4.165-2.056 3.135-2.09 8.133 0 11.245 1.839 2.74 6.658 1.6 9.162 3.748 3.072 2.636 6.17 6.365 6.247 10.412.06 3.168-2.504 5.937-4.58 8.329-1.821 2.096-4.302 3.537-6.664 4.997-2.905 1.796-7.32 1.707-9.163 4.581-2.25 3.508-3.454 9.638-.416 12.49 3.152 2.96 9.032-3.16 12.91-1.248 2.35 1.158 2.7 4.492 4.165 6.663 2.113 3.13 3.524 7.063 6.664 9.163 3.443 2.302 8.96.19 12.078 2.915 2.019 1.765 1.687 5.113 2.915 7.497 2.434 4.723 5.109 9.453 8.747 13.327 2.851 3.036 7.173 4.432 9.995 7.496 3.888 4.222 7.395 9.117 9.163 14.577 3.298 10.191-.715 21.728 2.083 32.068 2.432 8.99 7.049 17.434 12.49 24.991 3.1 4.3 7.004 8.066 11.245 11.245 5.32 3.987 11 8.146 17.491 9.58 4.076.9 8.522.448 12.491-.832 7.004-2.256 13.724-6.28 18.742-11.66 3.643-3.907 7.496-14.16 7.496-14.16s2.696 3.683 3.332 5.83c2.766 9.332 1.801 19.42 1.665 29.154-.09 6.548.737 13.486-1.665 19.574-4.861 12.323-14.982 22.1-24.572 31.236-6.413 6.112-14.676 9.953-21.656 15.41-3.024 2.365-5.652 5.223-8.746 7.496-2.11 1.55-4.104 3.611-6.664 4.164-2.053.444-4.38.13-6.247-.832-5.063-2.611-8.035-8.1-11.661-12.491-3.606-4.37-5.852-9.882-9.995-13.744-2.872-2.679-6.281-4.967-9.996-6.247-5.015-1.727-10.772-3.279-15.826-1.665-2.999.957-4.596 4.314-7.08 6.247-2.522 1.963-6.422 2.587-7.913 5.415-1.036 1.965.197 4.45 0 6.663-.488 5.479.685 12.083-2.915 16.243-3.16 3.651-9.854 1.72-13.744 4.58-3.445 2.535-7.695 6.14-7.496 10.412.21 4.422 5.291 7.227 8.746 9.996 2.715 2.175 8.33 1.62 9.163 4.997.838 3.402-3.798 5.892-5.83 8.746-5.06 7.101-12.463 12.78-15.827 20.824-1.135 2.717-2.3 5.995-1.25 8.746 1.23 3.222 4.48 6.344 7.913 6.664 3.653.34 5.948-4.897 9.581-5.415 2.4-.342 4.656 1.674 7.08 1.666 4.714-.016 9.364-1.59 13.744-3.332 4.16-1.654 7.3-5.646 11.66-6.664 4.47-1.043 9.808-1.525 13.744.833 1.818 1.09 1.61 4.18 3.332 5.415 2.547 1.823 6.109 2.777 9.163 2.082 5.877-1.338 8.959-8.198 14.16-11.244 2.847-1.667 5.97-2.912 9.162-3.748 10.828-2.838 22.196-2.926 33.318-4.165 12.754-1.42 25.744-1.177 38.315-3.748 8.13-1.662 16.582-3.295 23.739-7.496 8.554-5.021 16.443-11.971 21.656-20.407 7.09-11.469 6.259-26.38 11.66-38.733 8.004-18.3 19.52-34.892 30.403-51.643 7.808-12.017 15.988-23.832 24.991-34.984 1.296-1.606 3.322-2.697 4.165-4.58 2.736-6.116 2.083-19.992 2.083-19.992s7.016 6.36 11.244 8.33c5.952 2.773 12.622 3.952 19.162 4.58 9.986.957 20.234.691 30.067-1.299 8.537-1.727 17.528-3.88 24.492-9.112 12.296-9.242 19.797-23.745 27.487-37.067 4.538-7.862 8.355-16.254 10.828-24.99 5.044-17.814 6.912-36.487 7.913-54.979 1.082-19.973-1.022-39.998-2.083-59.974-.93-17.512-1.955-35.031-3.748-52.476-2.881-28.006-8.979-55.648-11.245-83.712-1.62-20.072-2.862-40.286-1.665-60.386 1.018-17.09 3.723-34.111 7.496-50.814 4.482-19.832 9.875-39.626 17.908-58.307 4.667-10.851 12.237-20.244 17.437-30.849 2.053-4.188 4.652-8.302 5.414-12.904.634-3.829 1.632-8.6-.808-11.618-2.812-3.481-8.442-4.127-12.898-3.723-4.626.418-9.148 2.963-12.472 6.204-23.758 23.134-35.653 56.586-46.645 87.875-10.352 29.464-15.6 60.865-17.492 92.039-2.655 43.746 6.489 87.425 8.747 131.185 1.568 30.383 4.473 60.807 3.332 91.206-.608 16.193-1.21 32.658-5.415 48.307-2.949 10.972-6.85 22.139-13.695 31.211-3.812 5.051-8.573 10.258-14.626 12.102-1.334.407-2.89.143-4.164-.416" style="stroke-width:.95714003"/><path style="fill:#fff;stroke-width:.95714003" d="M717.834 59.477c-2.805.266-5.318 3.955-5.054 6.757.41 4.369 6.728 5.672 9.72 8.884 2.324 2.496 4.742 5.004 6.341 8.016 1.526 2.871 5.701 7.549 2.962 9.302-.294.188-.587.3-.867.359 1.663 2.124 1.302 6.133 0 8.524-1.598 2.933-7.028 1.84-8.854 4.637-2.24 3.428-2.713 8.607-.867 12.263.828 1.64 4.63 1.125 4.666 2.962.043 2.227-3.681 2.517-5.504 3.799-2.973 2.091-6.994 3.234-8.883 6.34-1.034 1.704-1.577 4.073-.837 5.924 1.266 3.167 5.202 4.458 8.045 6.34 5.627 3.724 12.595 5.356 17.737 9.721 3.137 2.663 7.598 9.721 7.598 9.721s-12.137-3.492-17.737-6.341c-3.343-1.702-5.718-5.236-9.302-6.341-2.828-.872-6.42-1.638-8.883 0-6.363 4.229-6.245 13.936-8.854 21.114-3.425 9.424-6.418 19.027-8.883 28.743-2.296 9.052-2.026 18.82-5.504 27.489-3.914 9.757-10.764 18.083-16.899 26.62-4.443 6.183-9.61 11.786-14.357 17.737-1.564 1.961-3.887 3.538-4.666 5.923-2.54 7.772 2.04 16.444.837 24.527-1.6 10.752-9.194 20.053-10.557 30.839-.904 7.15 1.212 14.376 1.705 21.565.328 4.786-1.216 10.02.837 14.357 1.067 2.253 3.02 4.89 5.504 5.085 4.558.36 8.235-4.294 11.396-7.597 8.652-9.041 11.988-22.072 19.442-32.125 5.525-7.453 11.943-14.269 18.605-20.728 4.234-4.106 8.172-8.906 13.515-11.395 3.758-1.75 8.401-3.632 12.263-2.124 2.153.84 4.218 5.503 4.218 5.503s-12.012 1.78-16.9 5.055c-5.574 3.737-8.643 10.286-12.682 15.643-7.98 10.577-14.347 22.357-22.822 32.543-6.945 8.348-13.23 18.149-22.822 23.24-6.2 3.292-14.06 1.551-20.698 3.83-3.755 1.287-7.03 3.713-10.586 5.473-6.836 3.38-13.86 6.345-20.698 9.72-3.838 1.898-7.567 4.06-11.426 5.923-2 .967-3.891 2.305-6.073 2.723-3.254.62-7.034 1.19-9.93-.42-2.9-1.609-3.295-5.867-5.623-8.225-3.338-3.382-7.543-5.781-11.635-8.196-5.376-3.174-11.073-5.8-16.84-8.196-3.657-1.517-7.291-3.695-11.246-3.89-3.696-.18-7.42 1.029-10.768 2.603-1.954.92-4.74 1.75-5.205 3.858-.457 2.075 1.513 4.126 3.02 5.623 1.965 1.95 5.475 1.86 7.36 3.889 1.709 1.842 1.038 5.364 3.02 6.91 2.762 2.15 6.905 2.366 10.35 1.735 1.966-.361 3.18-2.868 5.174-3.021 4.316-.332 8.544 2.275 12.113 4.726 1.934 1.326 4.401 2.881 4.727 5.205.357 2.55-1.077 5.888-3.44 6.91-2.759 1.191-5.71-1.957-8.643-2.603-3.975-.875-8.04-1.268-12.084-1.735-4.88-.564-9.775-1.396-14.687-1.286-4.355.096-10.082-1.542-12.95 1.735-.948 1.082-.177 2.88 0 4.307.217 1.767.05 3.923 1.315 5.174 2.21 2.184 6.514.378 9.064 2.154 1.277.889 1.47 2.787 2.572 3.889 1.101 1.1 2.382 2.21 3.89 2.602 3.493.908 7.762 1.086 10.797-.867 2.492-1.603 1.801-6.195 4.307-7.777 1.95-1.232 4.756-1.246 6.91-.419 8.642 3.323 11.562 14.987 19.442 19.86 3.986 2.468 8.681 4.384 13.37 4.308 5.963-.098 11.246-3.977 16.84-6.043 4.188-1.545 8.072-4.916 12.529-4.756 4.44.16 7.846 4.291 12.084 5.624 4.74 1.49 9.724 2.87 14.686 2.602 6.14-.338 11.591-5.862 17.707-5.205 1.43.154 2.881.557 4.248 1.167 1.119-.462 2.235-.94 3.051-1.526 2.747-1.972 5.281-4.254 8.286-5.8 4.048-2.087 8.402-3.804 12.891-4.576 4.367-.752 8.849 0 13.28 0 6.232 0 12.603 1.311 18.694 0 4.605-.992 8.875-3.344 12.892-5.8 4.537-2.78 8.778-6.135 12.443-9.991 2.938-3.092 3.282-11.15 7.478-10.38 2.114.39 1.437 4.086 1.675 6.222.4 3.58 1.048 7.507-.42 10.798-2.67 5.992-8.67 10.07-14.117 13.729-4.015 2.696-8.546 4.814-13.28 5.8-7.049 1.474-14.434-.425-21.626 0-8.213.485-16.415 1.385-24.497 2.9-3.828.719-7.577 1.892-11.336 2.932 3.667 5.172 2.162 12.661 4.158 18.724 1.571 4.776 4.862 8.932 6.042 13.82 4.4 18.224-.74 37.84 3.44 56.107 3.051 13.339 11.41 24.943 15.553 37.987 2.907 9.15 4.497 18.69 6.461 28.086.957 4.587 1.663 9.23 2.603 13.82.798 3.899.966 8.006 2.602 11.635.805 1.784 1.537 5.217 3.44 4.756 3.68-.893 1.046-7.494 1.735-11.217.991-5.357 2.032-10.71 3.44-15.973.977-3.65-.293-10.458 3.47-10.797 2.437-.22 2.922 4.07 3.44 6.46 1.434 6.625-.265 13.609-1.287 20.31-.825 5.418-1.731 10.935-3.888 15.974-3.567 8.33-8.929 15.883-14.687 22.881-6.08 7.388-16.534 11.26-20.728 19.86-5.643 11.573.787 26.43-3.857 38.44-1.745 4.51-6.163 7.483-8.643 11.634-1.387 2.321-2.88 4.72-3.47 7.359-1.506 6.738-.754 13.861 0 20.728.29 2.638 1.157 5.157 1.736 7.747 1.575 7.054 4.753 13.95 4.756 21.172.004 11.208-2.347 22.786-7.359 32.81-8.123 16.254-22.167 28.983-35.384 41.454-7.095 6.7-14.376 13.8-23.33 17.678-7.904 3.421-16.873 3.615-25.455 4.336-9.034.76-18.152 0-27.219 0-3.31 0-6.719.814-9.93 0-3.808-.966-6.517-4.758-10.35-5.623-2.671-.603-5.715-.71-8.196.45-2.49 1.164-6.03 3.322-5.623 6.042.468 3.125 6.542 2.034 8.196 4.726 1.358 2.211-.915 5.57.45 7.777 1.22 1.973 3.725 3.623 6.042 3.47 3.79-.251 5.264-6.97 9.063-6.91 2.966.046 4.113 4.6 6.91 5.593 4.339 1.541 12.996-4.53 13.818 0 .659 3.63-7.008 2.391-10.379 3.89-4.294 1.907-8.127 4.776-12.5 6.49-4.031 1.578-8.46 1.971-12.529 3.44-2.969 1.07-6.117 1.996-8.643 3.888-2.125 1.59-3.867 3.733-5.174 6.043-.673 1.188-1.905 2.671-1.287 3.889 1.507 2.961 6.905.923 9.482 3.02 2.049 1.669 1.423 5.959 3.889 6.91 3.397 1.311 7.877-.794 10.379-3.44 2.255-2.384.397-7.054 2.573-9.512 2.266-2.562 6.204-3.014 9.512-3.889 4.349-1.15 9.287-3.593 13.37-1.705 3.116 1.44 2.576 7.033 5.623 8.615 3.452 1.79 8.396 1.686 11.666-.42 3.246-2.09 2.323-7.774 5.174-10.379 2.625-2.396 6.46-3.12 9.93-3.889 11.264-2.491 23.048-1.24 34.544-2.153 11.963-.95 24.212-.444 35.833-3.44 10.174-2.623 21.455-5.142 28.925-12.53 13.326-13.186 14.09-34.83 22.881-51.386 9.7-18.272 21.82-35.15 32.811-52.671 3.437-5.48 6.757-11.034 10.38-16.387 4.677-6.914 12.084-12.367 14.656-20.31 2.04-6.298-1.851-13.505 0-19.86 1.049-3.605 4.918-5.902 6.042-9.482 1.036-3.299-2.209-8.17.45-10.38.782-.65 2.277-.246 3.02.45 3.546 3.315.705 9.97 3.02 14.237 1.165 2.147 3.136 3.828 5.175 5.174.647.427 1.476.491 2.154.867 2.34 1.3 4.012 3.745 6.49 4.756 1.884.769 5.084 2.664 6.042.867.912-1.708-2.69-2.786-3.889-4.307-1.73-2.194-3.189-4.595-4.756-6.91-1.454-2.148-3.554-4.007-4.307-6.49-.458-1.515-.623-3.3 0-4.756.62-1.447 1.849-3.46 3.41-3.26 7.715.994 6.657 14.463 12.264 19.861 5.364 5.162 12.132 9.6 19.443 11.007 7.259 1.398 15.236.057 21.984-2.961 9.305-4.161 24.943-9.812 23.24-19.86-.455-2.684-5.133-1.805-7.597-2.962-1.313-.617-3.838-.673-3.829-2.124.007-1.765 3.013-1.924 4.666-2.542 3.649-1.37 7.79-1.036 11.396-2.513 1.23-.503 2.947-.867 3.38-2.124.537-1.559-.45-3.532-1.675-4.636-2.158-1.944-7.252.515-8.465-2.124-.132-.286.171-.642.419-.838 1.933-1.526 4.985-.652 7.208-1.704 2.725-1.29 4.91-3.518 7.179-5.504 1.949-1.706 3.622-3.693 5.503-5.474 2.61-2.468 7.131-3.697 8.016-7.178.516-2.03-.663-4.421-2.123-5.923-1.898-1.95-7.472-.243-7.598-2.961-.087-1.889 3.3-1.915 5.085-2.543 1.904-.668 4.46.165 5.892-1.256 2.766-2.745 4.548-8.085 2.542-11.427-1.354-2.257-5.13-1.208-7.597-2.123-2.482-.921-6.777-.765-7.179-3.38-.413-2.66 3.526-4.191 5.892-5.474 3.064-1.66 7.64-.145 10.17-2.542 1.39-1.318 1.425-3.604 1.675-5.504.496-3.774 1.83-8.325-.42-11.395-1.237-1.69-4.295-.805-5.922-2.124-1.67-1.355-3.925-3.423-3.38-5.504.368-1.403 2.548-1.359 3.799-2.094 3-1.761 7.19-2.464 8.883-5.504 1.577-2.83 1.529-6.863 0-9.72-1.437-2.687-6.004-2.487-7.598-5.086-1.26-2.056-1.992-5.046-.867-7.178 1.56-2.954 7.069-1.832 8.883-4.637 2.531-3.91 3.665-10.237.838-13.938-2.097-2.745-7.336-.106-10.14-2.124-1.588-1.144-3.051-3.13-2.961-5.086.167-3.632 5.231-5.391 6.34-8.853 1.076-3.354 2.258-7.884 0-10.586-2.018-2.419-8.197 1.276-9.302-1.675-.948-2.535 3.311-4.298 5.086-6.341 2.156-2.484 5.79-4.036 6.757-7.179 1.349-4.359 1.054-10.275-2.124-13.549-1.596-1.646-4.746-.157-6.757-1.257-3.062-1.67-8.06-4.223-7.179-7.598.597-2.284 4.764-.86 6.758-2.123 2.106-1.333 4.804-3.028 5.085-5.504.385-3.385-2.959-6.19-5.085-8.854-1.431-1.791-5.212-2.377-5.055-4.666.152-2.222 4.28-1.914 5.474-3.798 1.836-2.891 3.76-7.397 1.704-10.14-2.127-2.84-7.657.755-10.557-1.287-1.546-1.088-3.252-3.303-2.542-5.054 1.122-2.767 6.647-.57 8.435-2.962 1.69-2.26.45-5.643.45-8.465 0-2.82 1.354-6.265-.45-8.435-1.944-2.338-6.969.263-8.853-2.124-1.485-1.88-.72-4.895 0-7.179.517-1.64 1.856-2.9 2.961-4.217 1.793-2.137 4.977-3.286 5.892-5.922.79-2.278.453-5.142-.837-7.179-1.423-2.245-5.132-2.146-6.758-4.248-1.719-2.22-3.263-5.303-2.542-8.016.64-2.409 4.006-3.092 5.504-5.085 1.324-1.763 3.045-3.719 2.961-5.923-.19-4.925-4.564-8.767-7.598-12.652-1.348-1.728-4.882-2.485-4.666-4.666.35-3.539 6.467-3.315 8.884-5.923 1.758-1.896 3.314-4.22 3.798-6.758.586-3.072.587-6.774-1.256-9.302-2.117-2.9-9.186-1.084-9.721-4.636-.371-2.465 4.108-3 5.474-5.086 1.88-2.87 2.18-6.507 3.38-9.72 1.327-3.553 2.159-7.392 4.247-10.558.768-1.164 2.115-1.853 2.962-2.961 1.379-1.805 3.68-3.67 3.38-5.923-.212-1.58-1.83-3.006-3.38-3.38-4.462-1.075-10.487 8.02-13.102 4.248-2.97-4.285 6.002-8.608 9.721-12.264 2.15-2.113 5.365-3.095 7.179-5.503 2.093-2.78 2.965-6.343 3.799-9.72.61-2.478 2.442-5.614.837-7.599-1.781-2.201-6.678 1.354-8.435-.867-1.323-1.672-.302-4.509.837-6.311 1.795-2.84 5.68-3.579 8.436-5.504 1.732-1.21 3.892-2.053 5.085-3.799 1.484-2.173 1.83-5.011 2.124-7.627.33-2.943-1.446-6.075-.42-8.854 1.14-3.084 4.702-4.643 6.758-7.208 2.666-3.322 4.591-7.175 7.178-10.557 1.579-2.064 4.69-3.35 5.055-5.923.24-1.685-.696-3.664-2.094-4.636-1.623-1.13-4.119-1.228-5.923-.42-2.108.947-2.723 3.711-4.217 5.474-3.739 4.41-8.49 7.973-11.845 12.683-4.716 6.621-7.925 14.227-11.426 21.565-5.409 11.336-10.648 22.803-14.776 34.667-4.75 13.654-9.238 27.556-11.427 41.846-3.394 22.157-2.848 44.765-2.512 67.181.374 24.991 3.157 49.886 5.054 74.81 2.287 30.029 7.593 59.917 7.628 90.029.036 32.658 2.69 66.79-8.046 97.628-4.509 12.952-12.145 25.64-22.822 34.248-3.3 2.66-7.76 3.507-11.844 4.636-3.305.913-6.72 1.89-10.14 1.705-3.653-.197-7.221-1.467-10.558-2.962-3.816-1.71-8.304-3.238-10.557-6.757-12.193-19.045-7.197-44.694-9.302-67.21-1.34-14.325-2.522-28.724-2.124-43.1.899-32.426 6.416-64.57 10.14-96.786 1.548-13.4 4.984-26.68 5.085-40.17.124-16.585-5.308-32.86-5.504-49.443-.17-14.564 3.97-28.953 3.8-43.52-.136-11.482-1.362-23.03-3.8-34.248-2.11-9.709-6.655-18.72-9.302-28.296-1.193-4.316-1.57-8.876-2.961-13.131-1.1-3.359-3.3-6.309-4.218-9.72-.957-3.561 2.052-9.348-1.256-10.978-2.948-1.452-6.938 2.175-8.465 5.085-3.083 5.875 6.88 16.29 1.286 19.86-1.488.95-3.765-1.024-4.666-2.542-3.092-5.208-.32-12.136 0-18.185.353-6.65 4.686-13.715 2.124-19.86-.694-1.666-2.493-3.805-4.248-3.38-4.352 1.052-1.715 9.83-5.474 12.263-1.537.996-4.326 1.403-5.503 0-3.126-3.726 1.486-9.61 2.542-14.357.823-3.703 3.211-7.221 2.961-11.007-.12-1.827-.307-4.824-2.124-5.055-2.99-.387-2.926 5.612-5.503 7.179-2.078 1.263-5.673 3.166-7.179 1.257-2.188-2.775 1.87-7.08 4.217-9.721 2.6-2.926 6.457-4.681 10.17-5.923 2.288-.765 4.78-.6 7.179-.837 7.032-.695 14.276.1 21.114-1.675 6.895-1.791 13.505-4.942 19.443-8.884 6.062-4.026 14.603-7.676 16.061-14.806.62-3.027-1.492-6.379-3.799-8.435-2.428-2.164-6.747-.944-9.302-2.961-1.933-1.529-3.31-3.925-3.799-6.341-.197-.977-.429-2.438.42-2.962 2.273-1.405 5.247 1.323 7.627 2.543 2.783 1.427 4.867 3.946 7.598 5.473 1.598.894 3.224 2.187 5.054 2.124 1.575-.054 3.262-.895 4.248-2.124.726-.906 1.448-2.391.837-3.38-2.048-3.314-7.633-1.617-11.426-2.512-1.696-.4-3.42-.681-5.055-1.286-2.363-.875-5.543-1.173-6.757-3.38-.683-1.24-.732-3.392.42-4.217 3.054-2.19 7.339 1.593 10.977 2.542 3.408.89 6.653 2.463 10.14 2.962 1.254.179 2.88.839 3.828 0 .852-.752 1.066-2.447.42-3.38-1.734-2.5-5.941-1.353-8.884-2.124-1.984-.52-6.005.345-5.923-1.705.175-4.307 9.478.37 12.683-2.512 1.755-1.58 1.767-4.456 2.123-6.79 1.467-9.61 1.515-19.561 0-29.163-.784-4.973-3.754-9.406-4.666-14.357-.996-5.411-3.239-11.534-.837-16.481 1.808-3.728 6.877-4.624 10.14-7.179 3.224-2.525 7.973-4.172 9.302-8.046.933-2.718.548-6.612-1.675-8.435-2.18-1.786-6.003-1.371-8.465 0-3.04 1.693-3.622 5.927-5.503 8.854-1.374 2.136-2.462 4.505-4.217 6.34-1.811 1.895-3.848 3.849-6.341 4.667-1.741.57-3.761.564-5.504 0-2.977-.967-5.064-3.668-7.598-5.504-1.551-1.124-2.904-4.199-4.636-3.38-2.169 1.026 1.203 5.44-.449 7.18-1.756 1.85-5.595 2.447-7.598.866-1.783-1.407.116-4.728-.837-6.79-.967-2.081-2.465-5.696-4.666-5.054-2.335.68.198 5.229-1.257 7.178-.942 1.263-2.663 2.376-4.217 2.124-1.967-.319-3.082-2.631-4.248-4.248-.92-1.277-.685-3.512-2.094-4.217-1.41-.704-3.657-.371-4.666.838-1.445 1.73.557 4.575 0 6.757-.437 1.71-.752 4.539-2.513 4.666-1.405.102-1.975-2.09-2.542-3.38-.924-2.098.315-5.117-1.286-6.757-1.408-1.444-4.075-2.16-5.893-1.286-1.987.955-1.736 4.089-2.96 5.923-1.554 2.325-2.846 7.208-5.504 6.34-3.226-1.052 1.76-7.957-.838-10.14-1.192-1-3.439-.537-4.666.42-2.354 1.836-.466 6.825-2.961 8.465-3.305 2.172-8.848 1.777-11.815-.838-1.617-1.425-.491-4.337-1.287-6.34-.98-2.471-2.604-4.677-4.217-6.79-3.024-3.963-6.601-7.466-10.14-10.978-1.486-1.475-2.581-4.415-4.666-4.217m13.101 33.32a3.601 3.601 0 0 0-.837-.778c-.523-.35-1.143-.422-1.795-.329.833.83 1.703 1.301 2.632 1.107m-2.632-1.107c-2.076-2.065-3.95-6.359-6.221-8.135-2-1.565-3.985-5.165-6.341-4.218-2.41.969-1.169 5.056-1.705 7.598-.593 2.811-2.549 5.728-1.675 8.465 1 3.133 3.913 6.373 7.179 6.758 1.127.134 2.249-.82 2.961-1.705 1.48-1.84.42-5.094 2.094-6.758.912-.908 2.375-1.812 3.71-2.004m31.167 13.221c2.332-.016 4.761.528 6.042 2.244 1.907 2.554-.517 6.385-.42 9.571.082 2.645-.37 5.543.838 7.897.762 1.483 2.973 1.838 3.739 3.32.576 1.114 1.164 2.73.42 3.738-1.76 2.382-6.082 2.958-8.735 1.646-1.943-.957-2.664-3.649-2.9-5.8-.249-2.27 2.797-4.651 1.675-6.641-.925-1.64-3.553-1.963-5.413-1.675-2.165.335-4.368 1.8-5.384 3.738-2.121 4.048-1.75 9.478 0 13.7.9 2.17 3.018 3.677 4.965 4.995 1.747 1.182 3.726 2.379 5.833 2.483 2.756.137 5.561-1.013 7.896-2.483 2.57-1.617 5.038-3.847 6.222-6.64 1.134-2.681 1.778-6.16.42-8.734-.988-1.87-3.38-2.744-5.415-3.32-.666-.19-1.611.524-2.063 0-2.47-2.862-1.552-9.2 1.645-11.217 1.593-1.005 3.8.703 5.414 1.675 2.013 1.211 3.727 2.987 4.995 4.965 2.152 3.357 4.34 7.234 4.158 11.217-.16 3.527-2.448 6.757-4.576 9.571-1.892 2.505-4.506 4.395-7.06 6.222-1.815 1.299-3.674 2.747-5.832 3.32-4.55 1.21-9.702 1.634-14.118 0-2.394-.886-4.215-2.965-5.8-4.965-2.425-3.057-4.898-6.542-5.414-10.41-.431-3.23 1.114-6.432 2.095-9.541 1.4-4.44 2.383-9.333 5.384-12.892 2.327-2.76 5.588-5.224 9.153-5.8a14.865 14.865 0 0 1 2.243-.18m55.424 5.772c2.448-.042 4.928.465 7.12 1.465 3.034 1.385 5.414 4.02 7.478 6.64 1.457 1.85 2.795 3.957 3.32 6.252.773 3.377 2.08 7.978-.42 10.379-.798.768-2.463.702-3.32 0-2.184-1.79.161-6.144-1.645-8.316-.953-1.146-2.944-2.542-4.158-1.675-2.257 1.612 1.199 5.654.42 8.316-.335 1.143-1.262 2.05-2.095 2.9-.966.99-2.212 1.682-3.32 2.513-1.107.83-1.967 2.776-3.32 2.482-1.695-.368-2.155-2.871-2.483-4.576-.659-3.423 3.651-7.873 1.226-10.379-2.223-2.297-7.207-1.348-9.542.838-1.33 1.244-1.136 3.587-.837 5.383.539 3.238 2.781 5.986 4.576 8.734 1.455 2.228 2.598 5.07 4.995 6.222.999.48 2.314.463 3.32 0 1.16-.533 2.126-1.676 2.483-2.9.274-.94-1.1-2.199-.419-2.9 1.746-1.8 5.729-.958 7.478.837 1.163 1.195 1.12 3.452.42 4.966-1.002 2.162-3.568 3.332-5.8 4.157-3 1.107-6.503 1.73-9.572.838-2.846-.828-4.935-3.318-7.06-5.384-2.681-2.608-5.809-5.207-7.058-8.734-1.664-4.7-1.72-10.277 0-14.955 1.254-3.411 4.22-6.045 7.059-8.316 2.564-2.05 5.502-4 8.734-4.576a15.42 15.42 0 0 1 2.422-.21M584.51 143.563a12.893 12.893 0 0 0-3.59.449c-1.551.417-2.502 2.012-3.799 2.96-2.207 1.617-5.148 2.426-6.757 4.637-.866 1.19-1.732 2.855-1.257 4.248.785 2.293 3.805 2.985 5.892 4.217 3.094 1.826 6.684 2.719 9.721 4.637 3.218 2.033 6.784 4.003 8.883 7.178 1.132 1.712 1.577 3.876 1.705 5.923.117 1.85.886 4.904-.867 5.504-3.677 1.256-5.244-5.8-8.435-8.016-6.57-4.57-14.463-6.911-21.566-10.586-6.27-3.246-11.762-8.396-18.605-10.14-3.549-.906-7.375-.67-10.977 0-1.933.358-4.547.41-5.504 2.123-1.118 2.003.157 4.764 1.287 6.758.835 1.477 2.415 2.398 3.799 3.38 1.183.839 2.56 1.368 3.799 2.123 1.734 1.058 3.091 2.986 5.085 3.38 1.41.279 2.974-.147 4.217-.867 1.296-.75 1.464-3.423 2.961-3.38 1.606.046 2.011 2.504 2.962 3.8 1.318 1.795 1.72 4.704 3.799 5.503 2.296.883 4.735-1.392 7.178-1.675 1.96-.228 4.035-.572 5.923 0 2.431.736 4.3 2.707 6.341 4.217 1.61 1.19 3.653 2.055 4.636 3.799.98 1.735 1.187 3.956.868 5.923-.253 1.554-.575 3.936-2.124 4.217-2.649.48-3.649-4.034-5.923-5.474-2.564-1.623-5.52-2.642-8.465-3.38-4.95-1.24-10.104-1.354-15.195-1.704-5.202-.36-10.495-1.247-15.643-.42-3.696.594-10.003.097-10.557 3.8-.209 1.393 2.131 1.888 3.38 2.541 3.156 1.654 7.294 1.234 10.14 3.38 2.588 1.954 2.935 6.036 5.503 8.016 3.317 2.558 7.724 3.335 11.815 4.248 4.282.956 9.016-.346 13.101 1.257 3.463 1.358 7.506 3.305 8.883 6.757 1.957 4.905-2.765 10.367-2.542 15.643.123 2.9.49 6.065 2.124 8.465 2.046 3.006 6.496 3.57 8.883 6.312 6.785 7.795 10.804 17.783 14.357 27.488 3.772 10.303 5.513 21.277 7.179 32.124 2.018 13.137-.038 26.877 3.38 39.722 1.718 6.456 4.082 13.142 8.464 18.185 4.076 4.69 9.94 12.604 15.644 10.14 1.446-.625.872-3.091.837-4.666-.207-9.533-6.997-18.367-6.34-27.872.466-6.757 5.301-12.51 7.178-19.023 2.946-10.221 7.354-20.697 6.341-31.287-.493-5.157-3.498-9.779-5.923-14.357-3.71-7.01-9.2-12.954-13.101-19.86-6.757-11.962-13.563-24.12-17.737-37.21-1.998-6.266-2.814-12.888-3.38-19.442-.666-7.724.341-15.5 0-23.24-.211-4.805 1.13-10.2-1.286-14.357-1.12-1.924-4-2.128-5.474-3.8-2.624-2.978-2.258-8.302-5.503-10.585-1.599-1.126-3.661-1.664-5.713-1.705m197.735 8.883c.185-.018.362 0 .539 0a2.34 2.34 0 0 1 1.286.45c2.383 1.743 2.322 6.207.898 8.794-.845 1.534-3.759.902-4.726 2.363-.866 1.308-1.251 3.471-.27 4.695 1.179 1.47 3.682.828 5.565.898 2.356.086 5.61 1.263 7.059-.598.73-.94-.5-2.342-.599-3.53-.121-1.463-.594-3.053 0-4.397.589-1.331 1.873-2.406 3.23-2.932 2.01-.777 5.275-1.798 6.461 0 .822 1.246-2.046 2.633-1.765 4.098.289 1.496 2.908 1.742 3.23 3.23.178.818-.375 1.686-.866 2.363-1.841 2.538-5.075 3.714-7.359 5.863-2.02 1.9-4.566 3.574-5.564 6.162-.563 1.461-.647 3.27 0 4.696.86 1.896 2.863 3.14 4.696 4.128 2.594 1.396 5.953.895 8.524 2.333 1.754.981 4.91 2.185 4.397 4.128-.64 2.434-4.814 1.874-7.327 1.765-2.166-.093-4.123-1.417-6.192-2.063-2.337-.73-4.594-1.815-7.03-2.064-2.442-.25-5.141-.46-7.358.598-2.438 1.164-3.012 4.976-5.564 5.863-1.962.682-4.204-.265-6.192-.867-2.389-.724-5.607-1.016-6.757-3.23-.55-1.057-.311-2.76.598-3.53 2.242-1.9 5.981.741 8.824 0 2.715-.709 5.495-1.974 7.328-4.098 1.438-1.665 2.526-3.997 2.363-6.192-.133-1.793-1.789-3.125-2.662-4.696-1.68-3.026-3.92-5.8-4.995-9.092-.705-2.16-1.908-4.741-.867-6.758.762-1.48 3.163-1.245 4.397-2.363 1.307-1.186 1.47-3.407 2.932-4.397 1.032-.7 2.476-1.486 3.769-1.616m-49.353 15.763c1.88-.057 4.167.868 6.072.868h12.862s-7.357 2.76-11.217 3.32c-3.288.477-7.61 2.35-9.96 0-.783-.783-.783-2.536 0-3.32.612-.612 1.39-.842 2.244-.868m25.693 5.325c.224-.042.46.006.718.12 1.014.446.202 2.23 0 3.32-.352 1.896-.795 3.931-2.063 5.384-2.078 2.381-5.64 2.89-8.316 4.576-2.017 1.268-3.838 2.851-5.833 4.158-3.376 2.214-6.349 6.464-10.38 6.221-1.575-.095-3.624-1.326-3.738-2.9-.347-4.786 6.278-7.338 9.991-10.38 2.794-2.288 5.656-4.823 9.122-5.832 1.995-.58 4.287.753 6.222 0 1.839-.715 2.709-4.371 4.277-4.666m-74.867 80.16c.887.004 1.843.387 2.483.958.882.787 1.173 2.14 1.256 3.32.18 2.547-.505 5.208-1.675 7.478-3.413 6.624-10.172 10.916-14.955 16.63-2.027 2.422-2.666 7.838-5.8 7.478-1.97-.225-2.434-3.432-2.513-5.413-.11-2.802 1.553-5.439 2.9-7.897 1.76-3.204 4.431-5.814 6.67-8.7 3.564-4.599 5.294-11.847 10.798-13.73.27-.091.542-.12.838-.119m4.814 19.325c.373.006.708.097.987.33 1.734 1.439 1.666 4.423 1.257 6.64-.385 2.078-2.223 3.607-3.32 5.413-2.097 3.45-3.643 7.299-6.252 10.38-3.175 3.747-7.686 6.155-11.216 9.571-1.48 1.432-2.143 4.971-4.158 4.546-1.714-.361-1.365-3.236-1.646-4.965-.288-1.777-.602-3.718 0-5.414.956-2.69 3.753-4.297 5.384-6.64 2.022-2.904 3.279-6.332 5.414-9.154 2.542-3.357 5.274-6.719 8.734-9.122a7.963 7.963 0 0 1 2.9-1.257c.593-.121 1.293-.339 1.914-.33m91.8 49.743c1.14.076 1.315 2.442 2.243 3.35.852.832 2.185 1.112 2.9 2.063 1.501 1.995 1.347 4.882 2.513 7.089 1.203 2.277 3.528 3.857 4.546 6.221 1.224 2.845 1.633 6.027 1.675 9.123.025 1.821.893 4.847-.837 5.413-1.861.61-3.064-2.533-4.158-4.158-2.184-3.241-2.604-7.422-4.576-10.797-1.943-3.323-6.31-5.376-7.06-9.153-.614-3.098-.589-8.531 2.513-9.123.086-.016.164-.035.24-.03m.269 26.982c.24-.016.48.02.717.06 3.583.612 5.86 4.854 7.06 8.286 1.416 4.054.237 8.643-.39 12.891-.626 4.254.06 9.854-3.35 12.472-1.426 1.097-3.591-.177-5.383 0-1.405.139-3.1-.127-4.158.808-1.641 1.449-.879 4.41-2.064 6.25-1.431 2.225-3.425 6.483-5.832 5.385-3.782-1.725.349-8.287.419-12.443.046-2.77-.91-5.7 0-8.316 1.392-4.003 6.37-6.035 7.896-9.99 1.498-3.884-1.355-8.904.838-12.443.886-1.431 2.566-2.85 4.248-2.962m-238.682 11.635a6.982 6.982 0 0 0-2.214.3c-1.956.601-2.261 3.478-3.858 4.756-.754.603-1.834.702-2.602 1.286-1.54 1.174-4.292 2.444-3.889 4.337.59 2.773 5.267 2.12 7.777 3.44 4.631 2.435 8.895 5.512 13.37 8.226 2.153 1.305 4.272 2.668 6.49 3.857 2.95 1.582 6.31 6.24 9.064 4.337 1.425-.985.007-3.495-.42-5.174-1.232-4.874-3.182-9.706-6.072-13.82-2.165-3.082-4.933-5.895-8.196-7.776-2.852-1.646-6.215-3.702-9.451-3.77m251.546 20.789c.103-.003.212.002.329.03 5.12 1.24-.428 10.677.837 15.792.476 1.924 2.318 3.408 2.483 5.384.262 3.147-1.286 6.23-2.483 9.153-1.502 3.673-4.03 6.845-5.833 10.38-1.8 3.532-2.653 7.575-4.965 10.797-2.113 2.944-4.805 5.587-7.897 7.478-2.13 1.303-5.251 4.205-7.058 2.483-2.094-1.995 1.125-5.732 2.482-8.285 1.848-3.476 4.896-6.182 7.478-9.153 1.608-1.85 3.717-3.295 4.996-5.384 1.463-2.392 3.828-5.252 2.9-7.897-.805-2.284-5.11-1.587-6.221-3.738-.83-1.604-.16-3.694.388-5.414.981-3.077 3.334-5.545 4.995-8.315 1.662-2.77 3.351-5.506 4.996-8.285.918-1.553 1.022-4.978 2.573-5.025m-55.964 2.004c1.218-.091 2.352.12 3.11.927 1.52 1.618.494 4.618-.419 6.64-1.772 3.928-6.563 5.688-9.122 9.154-1.583 2.142-1.44 5.713-3.74 7.059-4.78 2.799-13.378 4.068-16.63-.42-1.696-2.34 1.233-5.722 2.513-8.315 1.361-2.757 2.367-6.887 5.384-7.478 1.282-.25 2.016 2.016 3.32 2.094 2.597.154 4.961-1.782 7.06-3.32 1.975-1.448 2.75-4.432 4.995-5.414 1.014-.444 2.311-.836 3.53-.927m17.228 4.248c1.955-.115 3.6 2.28 4.158 4.157.766 2.578-.244 5.602-1.645 7.897-1.488 2.437-3.839 5.938-6.641 5.413-2.195-.41-3.13-3.61-3.35-5.832-.13-1.308.632-2.584 1.257-3.739 1.592-2.95 2.871-7.705 6.221-7.896m-109.468 34.337c1.192.008 2.381.063 3.56.15 2.981.217 7.08-.428 8.733 2.063 1.398 2.106.64 5.808-1.256 7.478-2.704 2.381-7.24-.14-10.798.42-3.55.557-6.996 1.713-10.379 2.931-1.284.462-2.406 1.933-3.739 1.645-1.63-.352-2.363-2.394-3.35-3.738-.956-1.302-2.865-2.59-2.482-4.158.501-2.053 3.589-2.253 5.413-3.32 1.231-.72 2.376-1.647 3.739-2.064 3.389-1.04 6.982-1.428 10.557-1.406m150.214 4.248c.252-.013.521-.017.778 0 1.704.11 3.405.83 4.187 2.124 2.294 3.794-1.4 8.895-3.32 12.891-1.8 3.745-4.447 7.12-7.478 9.96-3.139 2.943-6.507 6.758-10.798 7.06-2.596.18-6.302-.832-7.059-3.321-.704-2.317 2.08-4.456 3.739-6.221 1.841-1.96 4.707-2.708 6.64-4.577 2.848-2.751 4.954-6.187 7.06-9.541 1.58-2.519 1.451-6.664 4.157-7.897.62-.282 1.336-.44 2.095-.478m-214.792 2.422a6.663 6.663 0 0 1 1.675.12c2.743.489 7.239.967 7.478 3.739.28 3.256-5.06 4.208-7.897 5.832-2.746 1.572-5.6 4.176-8.733 3.739-2.828-.394-5.843-2.673-6.641-5.414-.245-.84.142-1.95.837-2.483 1.985-1.515 5.253.713 7.479-.419 1.754-.892 2.01-3.636 3.738-4.576.62-.337 1.34-.5 2.064-.539M792.99 455.88c1.798-.061 3.768.532 4.546 1.944 1.12 2.033-.56 4.873-2.063 6.64-1.404 1.652-4.151 1.534-5.833 2.901-2.6 2.116-3.622 5.781-6.221 7.896-3.363 2.737-7.338 6.371-11.635 5.8-1.653-.218-3.98-1.67-3.739-3.32.331-2.268 4.414-1.49 6.221-2.9 2.25-1.756 3.46-4.559 5.414-6.64 1.677-1.786 3.672-3.244 5.384-4.996 2.195-2.244 3.246-6.15 6.251-7.059a6.518 6.518 0 0 1 1.675-.269m-96.757 24.886c.825.008 1.65.081 2.453.3 2.224.603 6.26 1.48 5.8 3.738-.641 3.168-6.31 1.638-9.542 1.675-5.6.065-15.54 3.011-16.63-2.483-.314-1.584 2.602-2.081 4.158-2.512 2.001-.554 4.144.043 6.221 0 2.495-.052 5.062-.74 7.538-.718m-7.269 13.939c2.33-.122 5.129.538 7.208.927 3.531.662 6.083 4.11 9.572 4.966 2.555.627 5.519-1.127 7.896 0 1.779.843 4.492 2.758 3.739 4.576-1.598 3.857-8.3 1.408-12.472 1.257a36.37 36.37 0 0 1-9.571-1.675c-2.481-.784-5.054-1.663-7.059-3.32-1.451-1.2-4.08-2.854-3.32-4.577.664-1.505 2.196-2.058 4.008-2.153m99.6 4.158a.493.493 0 0 1 .24.09c3.285 2.1.182 7.969-1.227 11.6-.93 2.402-2.208 5.239-4.576 6.251-2.952 1.264-7.988 1.538-9.571-1.256-1.712-3.022 1.902-6.901 4.158-9.542 2.346-2.745 6.08-3.934 9.153-5.833.6-.371 1.223-1.361 1.824-1.316m-84.228 12.353c.304-.014.609-.013.927 0 3.28.13 7.236 1.572 9.6 3.08 1.306.833 2.881 2.824 2.095 4.159-1.617 2.748-6.501 1.276-9.572.419-2.88-.806-8.385-2.11-7.478-4.966.578-1.82 2.3-2.595 4.427-2.692m82.017 8.883c.24-.014.46-.01.688 0 1.095.049 2.025.423 2.603 1.286 1.416 2.116-1.447 4.97-2.9 7.06-2.799 4.021-5.918 9.514-10.798 9.96-3.099.283-7.59-1.899-7.896-4.996-.374-3.802 5.461-5.357 8.315-7.896 1.616-1.438 2.932-3.392 4.966-4.129 1.424-.515 3.347-1.183 5.025-1.286m-83.568 9.99c2.247-.079 5.174.583 7.12.838 1.478.194 3.972.192 4.128 1.675.206 1.986-2.98 3.106-4.966 3.32-3.4.367-10.004-.346-9.572-3.738.194-1.513 1.543-2.032 3.291-2.094m5.533 16.451c2.332.009 5.114 1.116 6.97 2.244 1.115.678 2.704 2.166 2.094 3.32-1.686 3.184-7.838 2.428-10.829.42-1.344-.905-2.627-3.288-1.645-4.577.789-1.036 2.011-1.41 3.41-1.406m-153.2 30.954c-1.314.033-2.656.388-3.738.957-2.473 1.3-3.26 4.55-4.756 6.91-1.071 1.688-3.348 3.201-3.02 5.174.466 2.818 4.4 3.647 6.49 5.593 2.532 2.358 5.734 4.287 7.327 7.359 1.548 2.982 3.093 6.857 1.736 9.93-.758 1.716-2.916 3.388-4.756 3.021-1.723-.344-1.752-3.093-3.021-4.307-2.712-2.595-6.588-3.682-9.481-6.072-2.747-2.27-4.545-5.561-7.359-7.747-2.34-1.819-4.908-3.594-7.777-4.337-3.204-.83-8.662-3.058-9.93 0-1.87 4.513 7.523 6.417 10.38 10.38.751 1.043 2.291 2.279 1.734 3.44-.893 1.856-4.746-.287-6.042 1.315-1.629 2.015-1.552 5.673 0 7.747 1.528 2.042 4.947 1.27 7.328 2.183 3.725 1.431 7.3 3.25 10.797 5.175 2.38 1.31 4.71 2.714 6.91 4.307 2.732 1.977 6.053 3.593 7.777 6.49 1.5 2.523 3.511 6.301 1.704 8.615-1.861 2.385-6.464 1.998-9.063.448-3.427-2.044-2.01-8.364-5.174-10.797-2.439-1.876-6.028-2.242-9.063-1.735-2.289.382-4.43 1.8-6.043 3.47-2.147 2.222-3.35 5.266-4.336 8.195-1.118 3.319-3.511 7.35-1.705 10.35 1.173 1.95 4.246 2.676 6.46 2.153 2.575-.607 3.538-3.965 5.624-5.593 2.645-2.066 5.649-6.69 8.643-5.174 4.127 2.088-.682 9.628 1.286 13.819 1.126 2.394 4.009 3.474 5.594 5.593 1.08 1.445 1.864 3.11 2.602 4.756.875 1.953 1.052 4.209 2.154 6.043 3.411 5.676 9.466 9.359 13.4 14.686 3.867 5.242 7.788 10.686 9.93 16.84 1.385 3.979 1.277 8.312 1.705 12.5.66 6.457.03 13.08 1.316 19.443.874 4.327 2.112 8.7 4.307 12.529 3.298 5.752 7.903 10.8 12.95 15.104 3.983 3.395 8.446 6.514 13.4 8.196 2.604.885 5.499 1.4 8.197.867 2.085-.41 3.933-1.733 5.623-3.02 7.126-5.428 13.85-11.812 18.545-19.443 3.838-6.241 3.26-14.653 7.358-20.728 2.794-4.141 8.837-5.537 11.217-9.93 2.354-4.35 2.777-9.75 2.153-14.657-.373-2.943-2.852-5.316-3.44-8.225-.883-4.373-1.767-9.274 0-13.37 2.744-6.357 10.138-9.415 15.105-14.238 4.089-3.97 8.294-7.858 12.084-12.114 2.93-3.29 6.325-6.36 8.196-10.35a18.604 18.604 0 0 0 1.735-8.195c-.137-6.386-3.024-12.426-4.756-18.574-.53-1.885-.263-4.3-1.704-5.624-4.014-3.684-10.577-2.943-16.003-3.44-4.732-.433-9.9-1.521-14.237.42-3.624 1.621-6.034 5.314-8.196 8.643-7.8 12.016-10.96 26.478-16.425 39.721-3.026 7.338-5.47 14.936-9.063 22.014-1.373 2.708-2.446 5.81-4.756 7.777-2.013 1.717-4.682 2.979-7.328 3.02-4.918.08-9.771-2.379-13.82-5.174-5.202-3.592-8.774-9.181-12.528-14.267-3.917-5.3-8.049-10.634-10.35-16.81-2.188-5.876-3.176-12.307-3.02-18.574.102-4.12 2.265-7.977 2.602-12.084.494-6.031 1.396-12.539-.867-18.156-1.716-4.257-6.483-6.554-9.063-10.35-3.184-4.684-5.524-9.908-7.777-15.104-.85-1.963-.405-4.805-2.153-6.043-1-.704-2.305-.99-3.62-.957M672.4 621.835a29.19 29.19 0 0 1 3.77.21c2.494.297 5.453.971 6.909 3.02 1.086 1.53.431 3.717.419 5.594-.01 1.59.882 3.848-.42 4.756-2.315 1.623-5.384-1.84-8.195-2.154-4.008-.446-8.52-1.408-12.114.42-2.285 1.16-2.213 6.544-4.726 6.042-2.636-.527-2.694-5.107-2.183-7.747.584-3.024 2.99-5.762 5.623-7.359 3.184-1.936 7.09-2.74 10.917-2.781M658.4 646.961c.282-.056.598-.016.927.12 2.526 1.046.48 5.503 0 8.196-.512 2.868-.748 6.37-3.02 8.196-2.492 2-6.885 3.135-9.513 1.316-2.668-1.85-3.857-6.748-2.153-9.512 1.553-2.528 6.062-.692 8.643-2.154 2.17-1.228 3.138-5.772 5.115-6.162m92.364 75.403c.654-.069 1.288.078 1.914.479 2.216 1.417-.552 5.294 0 7.867.638 2.969 2.955 5.38 3.739 8.315.718 2.689 2.324 5.962.837 8.316-3.064 4.852-10.615 7.057-16.212 5.8-2.484-.556-5.073-2.857-5.384-5.384-.197-1.603 2.182-2.57 2.483-4.158.314-1.654.653-4.208-.837-4.995-3.781-1.995-7.803 7.307-11.635 5.414-2.29-1.13-2.36-5.026-1.646-7.478.548-1.88 2.492-3.128 4.158-4.158 4.098-2.533 9.221-2.803 13.7-4.576 2.995-1.186 6.052-5.147 8.883-5.444m-156.196 8.045c1.231-.137 1.604 1.912 2.154 3.021.868 1.754.704 3.929 1.735 5.593 2.197 3.55 5.72 6.145 9.063 8.643 3.46 2.588 9.12 2.714 11.217 6.49 2.026 3.652 3.197 10.414-.42 12.501-4.514 2.61-9.532-4.357-13.819-7.328-4.105-2.846-8.755-5.6-11.246-9.93-1.829-3.18-2.522-7.147-2.154-10.798.298-2.951.521-7.867 3.47-8.196m-49.953 114.015c-2.881-.08-5.825.468-8.345 1.675-2.114 1.012-5.015 2.845-4.756 5.174.445 4.008 6.962 4.18 9.93 6.91 3.987 3.668 6.225 9.055 10.38 12.529 2.915 2.44 6.27 4.59 9.93 5.623 3.88 1.095 8.614 2.477 12.083.42 1.107-.658 2.3-2.285 1.736-3.44-.323-.66-1.558-.065-2.184-.45-4.366-2.684-6.574-7.864-9.48-12.084-1.905-2.764-2.936-6.143-5.175-8.643-2.534-2.83-5.456-5.81-9.093-6.91a19.23 19.23 0 0 0-5.025-.807m142.164 2.602c1.558.039 3.44 1.325 4.427 2.513 2.24 2.696 1.635 6.873 1.645 10.38.01 3.642.256 7.685-1.645 10.797-1.604 2.622-5.001 3.561-7.478 5.384-3.346 2.462-6.05 6.164-9.991 7.478-2.89.966-7.098 2.276-9.123 0-1.575-1.772-.512-5.09.808-7.06 2.382-3.552 7.528-4.056 11.217-6.22 2.95-1.732 6.846-2.562 8.734-5.414 1.005-1.52.76-3.565.837-5.384.169-4.022-4.045-9.62-.837-12.054.41-.311.886-.432 1.406-.42m-156.34 11.875a9.305 9.305 0 0 0-3.23.598c-1.432.538-3.444 1.491-3.47 3.02-.046 2.953 4.484 3.876 6.491 6.043 1.879 2.028 2.98 4.778 5.174 6.46 1.995 1.53 4.497 2.316 6.91 3.022 2.657.777 5.52 2.025 8.196 1.316.891-.237 2.183-.814 2.183-1.736 0-2.764-4.482-3.274-6.49-5.174-2.665-2.522-4.75-5.615-7.328-8.226-1.646-1.666-3.02-3.876-5.205-4.726a8.902 8.902 0 0 0-3.23-.598"/><path style="fill:none;stroke:#000;stroke-width:20" d="M798.39 10.025c-26.17.053-51.02.198-70.798.478-79.11 1.122-156.7-.214-235.05 0-2.653.007-5.305.036-7.958.043-78.35.214-155.94 1.122-235.05 0-79.11-1.122-239.53 0-239.53 0s4.995 48.18 6.784 72.32c3.067 41.38 4.256 82.87 6.784 124.29 3.405 55.766 7.902 111.49 11.307 167.25 2.529 41.41 3.91 82.9 6.784 124.29 4.346 62.59 5.02 125.75 15.786 187.56 6.02 34.562 14.418 68.979 27.14 101.67 15.355 39.473 33.473 78.71 58.839 112.63 18.288 24.456 41.648 45.04 65.884 63.62 27.747 21.272 57.962 39.816 89.93 53.968 33.818 14.97 69.917 25.08 106.24 32.09 27.334 5.278 55.35 7.255 83.19 7.349 27.662.094 55.55-1.52 82.71-6.741 36.46-7.01 72.54-17.626 106.46-32.746 31.934-14.235 62.23-32.696 89.98-53.968 24.24-18.58 47.595-39.17 65.884-63.62 25.365-33.919 43.484-73.16 58.839-112.63 12.718-32.695 21.12-67.16 27.14-101.72 10.762-61.814 11.44-124.97 15.786-187.56 2.874-41.39 4.256-82.87 6.784-124.29 3.405-55.766 7.902-111.44 11.307-167.21 2.529-41.41 3.717-82.909 6.784-124.29 1.79-24.14 6.784-72.32 6.784-72.32s-90.24-.636-168.73-.478z"/><path style="fill:none;stroke:#000;stroke-width:5" d="M488.56 11.814v1053.84"/><path d="M249.31 28.733v514.25h239.25V28.733H249.31zm0 514.25H61.56c2.367 45.786 4.497 91.65 12.03 136.75 5.511 32.987 13.227 65.795 24.875 97 14.06 37.675 30.676 75.16 53.906 107.53 16.749 23.341 38.12 42.986 60.31 60.719 11.749 9.387 23.974 18.2 36.625 26.313v-428.31z" stroke="#000" stroke-linejoin="round" stroke-linecap="round" stroke-width="5"/></svg>