<svg xmlns="http://www.w3.org/2000/svg" width="735.155" height="790.465" viewBox="0 0 194.51 209.144"><path style="fill:#fff;fill-rule:evenodd;stroke:none;stroke-width:2.9104166;stroke-linecap:round;stroke-linejoin:round;stroke-miterlimit:4;stroke-dasharray:none;stroke-opacity:1" d="m200.977 80.902-6.788 117.577c-2.132 49.458-37.916 88.629-89.012 88.656-51.05-.06-86.849-39.245-89.011-88.656L9.378 80.902h95.797z" transform="translate(-7.923 -79.447)"/><path style="fill:#da121a;fill-opacity:1;stroke:#000;stroke-width:2.9104166;stroke-linecap:round;stroke-linejoin:round;stroke-miterlimit:4;stroke-dasharray:none;stroke-opacity:1" d="m9.378 80.902 3.51 60.805h18.425l-2.295-40.585zm49.421 0v20.22h46.376v-20.22zm94.28 0-1.523 20.22h29.78l19.64-20.22zm25.962 60.805-.402 7.124c-.333 5.891-.678 11.781-1 17.673-.547 10.014-1.006 20.033-1.698 30.037-.127 1.836-.263 3.67-.405 5.506l18.097 3.65c.21-2.404.395-4.81.556-7.218.397-5.924.685-11.855 1.027-17.784l1.385-23.996.865-14.992zM34.82 202.047l-18.097 3.65c.325 2.93.777 5.846 1.353 8.737a100.106 100.106 0 0 0 2.461 9.766 95.91 95.91 0 0 0 4.62 12.101 92.174 92.174 0 0 0 5.431 10.072 88.771 88.771 0 0 0 7.343 10.132 87.027 87.027 0 0 0 5.236 5.704l13.974-12.7a70.013 70.013 0 0 1-5.13-5.524 71.567 71.567 0 0 1-5.101-6.937 75.598 75.598 0 0 1-6.758-13.135 80.891 80.891 0 0 1-3.717-12.04 83.847 83.847 0 0 1-1.615-9.826zm118.396 47.461a66.853 66.853 0 0 1-29.793 16.694 70.913 70.913 0 0 1-8.537 1.658 73.38 73.38 0 0 1-9.707.63v18.646a94.717 94.717 0 0 0 10.169-.536 90.716 90.716 0 0 0 15.005-2.88 86.033 86.033 0 0 0 9.788-3.409 84.272 84.272 0 0 0 19.294-11.266 84.63 84.63 0 0 0 7.754-6.836z" transform="translate(-7.923 -79.447)"/><path style="fill:none;fill-rule:evenodd;stroke:#000;stroke-width:2.9104166;stroke-linecap:round;stroke-linejoin:round;stroke-miterlimit:4;stroke-dasharray:none;stroke-opacity:1" d="m200.977 80.902-6.788 117.577c-2.132 49.458-37.916 88.629-89.012 88.656-51.05-.06-86.849-39.245-89.011-88.656L9.378 80.902h95.797z" transform="translate(-7.923 -79.447)"/><path style="fill:#fff;fill-rule:evenodd;stroke:none;stroke-width:2.9104166;stroke-linecap:round;stroke-linejoin:round;stroke-miterlimit:4;stroke-dasharray:none;stroke-opacity:1" d="m181.337 101.121-5.397 95.42c-1.695 40.137-30.142 71.926-70.763 71.948-40.584-.049-69.043-31.849-70.763-71.948l-5.396-95.42h76.158z" transform="translate(-7.923 -79.447)"/><path style="fill:#000;stroke:none;stroke-width:.26499999;stroke-linecap:round;stroke-linejoin:round;stroke-miterlimit:4;stroke-dasharray:none;stroke-opacity:1" d="m79.061 132.312-1.884 14.337a37.842 37.842 0 0 0 6.15 3.267 5.388 5.388 0 0 1-3.382.653 10.208 10.208 0 0 0 5.65 2.844 11.359 11.359 0 0 1-4.536 1.538 11.216 11.216 0 0 0 5.15 1.845c-.588.66-1.312 1.2-2.113 1.575a6.618 6.618 0 0 1-3.152.616 11.524 11.524 0 0 0 3.767 1.537c1.754.373 3.567.33 5.36.265.806-.03 1.638-.07 2.365-.419.71-.34 1.253-.943 1.768-1.537 1.018-1.174 2.003-2.377 3.037-3.537a42.984 42.984 0 0 1 2.882-2.959 34.796 34.796 0 0 1 1.922-1.653 32.33 32.33 0 0 1-5.266-1.844c-4.64-2.092-8.75-5.275-12.183-9.033a44.789 44.789 0 0 1-5.535-7.495zm8.347 12.066a4.899 4.899 0 0 0-.909.956c.027-.24.137-.472.307-.645.161-.163.375-.274.602-.311zm.996 1.09a6.241 6.241 0 0 0-1.158 1.22c.034-.308.175-.602.392-.822.205-.209.477-.35.766-.397zm1.315.902a7.34 7.34 0 0 0-1.36 1.432c.04-.361.204-.707.459-.965a1.65 1.65 0 0 1 .9-.467zm1.583.774a8.846 8.846 0 0 0-1.642 1.727 1.99 1.99 0 0 1 .555-1.165c.291-.295.677-.495 1.087-.562zm1.144 1.126a10.101 10.101 0 0 0-1.875 1.973c.056-.497.283-.974.634-1.33a2.271 2.271 0 0 1 1.24-.643zm1.504.789a11.702 11.702 0 0 0-2.17 2.284 2.633 2.633 0 0 1 .733-1.54c.385-.391.896-.655 1.437-.744zm1.35.771a13.381 13.381 0 0 0-2.482 2.612 3.01 3.01 0 0 1 .839-1.76 3.009 3.009 0 0 1 1.643-.852zm1.54.823a15.73 15.73 0 0 0-2.919 3.072c.087-.774.44-1.516.987-2.071a3.536 3.536 0 0 1 1.932-1.001zm2.576.677a20.685 20.685 0 0 0-3.838 4.039 4.655 4.655 0 0 1 1.297-2.723 4.65 4.65 0 0 1 2.54-1.316z" transform="translate(-7.923 -79.447)"/><path style="fill:#000;stroke:none;stroke-width:.97920179px;stroke-linecap:butt;stroke-linejoin:miter;stroke-opacity:1" d="M85.05 163.299c-.095.45-.184.901-.279 1.351l3.342 59.088a31.02 31.02 0 0 1 8.953 7.037c1.243 1.42 2.355 2.952 3.64 4.334 1.283 1.382 2.77 2.627 4.532 3.303 2.182.837 4.592.737 6.928.711 2.213-.026 4.465.034 6.572.711 2.464.792 4.602 2.398 6.397 4.264 2.784 2.895 4.842 6.468 6.039 10.302 2.503 8.018 1.216 16.65 1.42 25.047.1 4.128.571 8.257 1.6 12.256 1.184 4.605 3.115 9.103 3.197 13.858.051 3.027-.654 6.008-1.329 8.96-.674 2.953-1.323 5.957-1.158 8.981.237 4.31 2.104 8.336 3.908 12.256 1.147 2.49 2.284 4.998 3.02 7.638.759 2.723 1.077 5.545 1.42 8.35.45 3.674.944 7.343 1.422 11.014.41 3.153.808 6.318.79 9.498-.016 3.18-.46 6.393-1.679 9.33-1.302 3.137-3.435 5.854-4.973 8.883-2.281 4.494-3.19 9.555-3.73 14.566-1.237 11.465-.691 23.093 1.242 34.461 1.071 6.297 2.565 12.52 3.553 18.83 1.36 8.686 1.758 17.5 1.777 26.291.014 6.28-.164 12.56-.533 18.828a37.549 37.549 0 0 1-4.264-17.23c-.012-4.39.748-8.742 1.108-13.117.36-4.376.297-8.9-1.285-12.996-1.233-3.19-3.34-5.998-4.44-9.237-1.63-4.8-.9-10.03-.888-15.1.02-8.435-2.003-16.792-1.778-25.224.137-5.126 1.11-10.214 2.666-15.1 2.134-6.696 5.364-13.043 6.928-19.894.97-4.246 1.28-8.614 1.42-12.967.217-6.7-.013-13.641-2.842-19.719-1.218-2.616-2.883-4.994-4.412-7.441-1.529-2.448-2.945-5.022-3.582-7.836-.663-2.93-.451-5.992.066-8.951.518-2.96 1.337-5.86 1.889-8.813 1.191-6.37 1.106-13.078-1.066-19.183-.956-2.686-2.304-5.235-3.02-7.994-.88-3.395-.767-6.962-.508-10.46.26-3.497.66-7.01.33-10.501-.24-2.553-.87-5.063-1.777-7.461-.983-2.603-2.317-5.117-4.262-7.106-1.412-1.444-3.175-2.606-5.152-3.02-1.69-.353-3.44-.148-5.154.044-1.715.191-3.472.367-5.149-.043-1.604-.393-3.042-1.303-4.299-2.375-1.257-1.072-2.358-2.312-3.517-3.489-1.685-1.71-3.502-3.296-5.506-4.617a26.687 26.687 0 0 0-3.908-2.133l-.291-2.175 7.498 132.593a55.461 55.461 0 0 0 5.76 8.444c.39.47.791.939 1.273 1.316.481.377 1.053.663 1.662.717.42.038.843-.034 1.244-.166.4-.13.783-.318 1.156-.512.748-.389 1.504-.82 2.342-.902a3.327 3.327 0 0 1 1.68.29c.525.236.992.592 1.387 1.01.789.838 1.28 1.909 1.675 2.989 2.144 5.856 1.816 12.283 1.58 18.516-.334 8.862-.417 17.806 1.239 26.52a68.831 68.831 0 0 0 1.873 7.505c1.797 5.803 4.34 11.364 5.92 17.23.39 1.449.722 2.924.789 4.422.067 1.499-.142 3.032-.79 4.385a4.828 4.828 0 0 1-.808 1.229c-.337.359-.753.652-1.222.802-.724.233-1.52.117-2.235-.142-.714-.26-1.372-.654-2.056-.985-2.406-1.164-5.098-1.553-7.676-2.257-3.136-.857-6.244-2.27-8.356-4.74a11.006 11.006 0 0 1-1.761-2.884c.849 17.113 2.99 33.817 6.34 49.987 4.619 2.736 9.476 5.08 14.58 6.736 3.265 1.06 6.617 1.835 9.886 2.883 3.27 1.048 6.492 2.39 9.233 4.459 2.337 1.764 4.3 4.062 5.505 6.73 1.161 2.568 1.6 5.41 1.69 8.227.09 2.816-.16 5.632-.315 8.445-.728 13.272.63 26.561 2.143 39.766.866 7.552 1.782 15.098 2.752 22.637a25.322 25.322 0 0 1-3.363-5.66c-2.723-6.335-2.744-13.45-2.907-20.342-.341-14.503-1.498-28.973-2.601-43.438-.162-2.129-.325-4.27-.858-6.338-.532-2.067-1.46-4.077-2.964-5.592-1.485-1.493-3.451-2.425-5.465-3.04-2.014-.616-4.104-.942-6.16-1.395-6.419-1.415-12.558-4.117-17.895-7.953a47.011 47.011 0 0 1-2.342-1.81c25.517 115.039 112.66 202.055 232.11 213.97a153.301 153.301 0 0 0-6.03-10.717c-2.183-3.538-4.559-7.043-7.777-9.676-2.992-2.447-6.58-4.033-9.865-6.07-1.88-1.166-3.705-2.522-4.932-4.363-1.52-2.28-1.986-5.08-2.467-7.778-1.287-7.231-2.944-14.434-5.691-21.246-2.07-5.135-4.827-10.117-8.916-13.85-5.09-4.645-12.083-7.058-18.97-6.827-3.115.104-6.217.727-9.106 1.896-2.979 1.205-5.738 3.005-7.899 5.383-3.67 4.038-5.445 9.728-4.722 15.137 1.86-.372 3.728-.699 5.603-.98 1.793-.27 3.603-.5 5.414-.425 1.812.075 3.638.468 5.21 1.373 1.49.859 2.693 2.142 3.726 3.518 1.032 1.376 1.914 2.858 2.912 4.26 4.453 6.251 11.009 10.627 17.453 14.797a1180.87 1180.87 0 0 0 13.09 8.347 38.439 38.439 0 0 1-9.295-2.467c-5.032-2.038-9.592-5.132-13.66-8.726-3.921-3.464-7.422-7.407-11.578-10.584-2.078-1.589-4.32-2.984-6.748-3.957-2.428-.974-5.05-1.517-7.662-1.393-4.736.226-9.074 2.586-13.659 3.793a28.53 28.53 0 0 1-10.433.76c6.317-1.052 12.065-5.105 15.181-10.7 3.307-5.936 3.604-13.05 3.409-19.843-.212-7.358-1.01-15.017-4.932-21.246a23.746 23.746 0 0 0-8.348-7.969c.035 3.351.035 6.704 0 10.055-.042 4.112-.157 8.331-1.707 12.14-1.1 2.704-2.89 5.093-5.013 7.096-2.123 2.003-4.484 3.827-7.127 5.045-4.917 2.267-10.334 4.102-15.746 3.985-3.793-.082-7.845-1.02-10.901-3.267-2.97-2.182-4.997-5.675-6.193-9.162-1.545-4.504-1.005-9.493-.951-14.255.08-7.195 1.343-14.328 1.92-21.5.354-4.409.848-8.813.944-13.234.097-4.443.303-8.933-.369-13.325a36.837 36.837 0 0 0-2.472-8.726c-1.477-3.497-4.365-6.3-5.691-9.865-1.136-3.053-1.402-6.368-1.29-9.624.114-3.255.594-6.484.91-9.726.825-8.44.531-16.94.57-25.42.066-14.929 1.163-29.84 1.138-44.77-.004-2.258-.035-4.526-.387-6.757s-1.04-4.438-2.27-6.332c-.898-1.384-2.063-2.569-3.177-3.786-1.115-1.216-2.2-2.494-2.893-3.992-.565-1.22-.85-2.548-1.183-3.851-.333-1.304-.725-2.617-1.471-3.737-.878-1.316-2.203-2.289-3.635-2.96-1.432-.672-2.978-1.063-4.523-1.403-5.776-1.27-11.733-1.888-17.262-3.984a34.076 34.076 0 0 1-7.78-4.172 53.77 53.77 0 0 1 7.21.758c3.718.647 7.357 1.684 11.004 2.656 3.846 1.025 7.789 1.988 11.76 1.707 1.478-.105 3.009-.411 4.173-1.328 1.16-.913 1.824-2.341 2.088-3.793.47-2.581-.205-5.215-.76-7.78-2.417-11.177-2.623-22.715-2.275-34.146.2-6.596.584-13.196 1.517-19.728.977-6.831 2.553-13.584 3.086-20.463.187-2.408.243-4.836-.072-7.23-.315-2.395-1.012-4.763-2.256-6.833-2.363-3.93-6.447-6.457-10.433-8.726-1.119-.637-2.247-1.268-3.446-1.737-1.198-.468-2.477-.772-3.763-.73a6.295 6.295 0 0 0-2.297.498 4.98 4.98 0 0 0-1.877 1.4c-.54.663-.88 1.473-1.049 2.31-.168.839-.168 1.704-.072 2.554.192 1.698.76 3.329 1.12 5 .887 4.095.517 8.353.95 12.521.757 7.282 3.929 14.056 6.07 21.057 1.823 5.958 2.912 12.17 2.846 18.4a50.738 50.738 0 0 1-1.328 11.004 99.656 99.656 0 0 0-6.26-29.404 29.768 29.768 0 0 1-3.224-.95c-2.886-1.029-5.65-2.537-7.778-4.742a15.046 15.046 0 0 1-2.845-4.174c1.522.37 2.994.945 4.363 1.707 1.364.76 2.62 1.702 3.982 2.467a17.906 17.906 0 0 0 6.07 2.086 52.514 52.514 0 0 0-3.414-10.433c-1.158-2.586-2.528-5.086-3.414-7.778-1.561-4.746-1.542-9.864-1.128-14.843.413-4.98 1.204-9.944 1.128-14.94-.092-6.157-1.499-12.242-1.517-18.4-.013-4.434.693-8.9 0-13.28-.58-3.67-2.122-7.115-3.795-10.433a124.55 124.55 0 0 0-3.604-6.64 38.213 38.213 0 0 1 6.07 5.312c2.062 2.23 3.874 4.742 4.932 7.588 1.877 5.045 1.235 10.634.537 15.972-.564 4.319-1.127 8.84.381 12.926.842 2.28 2.297 4.3 4.01 6.025 1.713 1.726 3.682 3.173 5.695 4.536a94.417 94.417 0 0 0 15.178 8.345c4.08-9.384 4.493-20.306 1.137-29.972-1.58-4.551-3.944-8.79-5.692-13.28-1.67-4.291-2.83-8.909-5.689-12.52-1.766-2.23-4.102-3.957-6.598-5.323-2.495-1.367-5.161-2.39-7.82-3.403-2.746-1.045-5.505-2.088-8.078-3.506-2.573-1.418-4.973-3.236-6.719-5.6-3.014-4.08-3.812-9.357-4.174-14.417-.536-7.496-.335-15.125-2.275-22.385-1.177-4.406-3.157-8.633-6.07-12.14-2.968-3.574-6.82-6.315-10.84-8.641-4.02-2.326-8.247-4.275-12.305-6.535a91.595 91.595 0 0 1-20.11-15.178zm17.647 20.99a160.955 160.955 0 0 0 8.528 10.494c3.334 3.769 6.916 7.489 8.853 12.133 2.388 5.725 2.006 12.173 1.64 18.365a987.375 987.375 0 0 0-.656 12.463 15.895 15.895 0 0 1-2.95-4.264c-1.42-3.005-1.862-6.385-1.915-9.709-.052-3.323.264-6.642.274-9.966.009-2.868-.214-5.756-.957-8.526-.744-2.77-2.027-5.427-3.961-7.545-1.258-1.377-2.762-2.5-4.186-3.705-1.424-1.204-2.798-2.525-3.685-4.166a9.04 9.04 0 0 1-.985-5.574zm11.807 69.852a44.035 44.035 0 0 0-3.608 5.904c-1.523 3.001-2.705 6.193-3.279 9.51-1.292 7.474.545 15.082 1.31 22.629 1.548 15.239-1.294 30.625-.325 45.912.384 6.07 1.394 12.182 3.933 17.709a34.04 34.04 0 0 0 5.904 8.853 15.734 15.734 0 0 1-7.543-5.574c-2.989-4.106-3.796-9.372-4.263-14.43-1.016-11.004-.846-22.081-1.313-33.123-.537-12.708-1.92-25.363-2.95-38.04-.138-1.68-.267-3.367-.13-5.046.137-1.678.554-3.361 1.442-4.793.982-1.585 2.477-2.773 3.935-3.935 2.31-1.84 4.606-3.7 6.887-5.576zM96.19 366.574l4.29 75.854c.015.362.041.722.058 1.084 2.12 1.115 4.234 2.24 6.34 3.38 2.199 1.191 4.5 2.427 7 2.485a6.975 6.975 0 0 0 2.715-.461 5.768 5.768 0 0 0 2.254-1.57c.51-.59.885-1.294 1.129-2.035.641-1.953.356-4.106-.346-6.038-.702-1.931-1.797-3.692-2.817-5.476-1.557-2.727-2.96-5.564-3.837-8.58-2.45-8.424-.622-17.424-.905-26.192-.185-5.73-1.28-11.461-.677-17.162.098-.928.242-1.861.136-2.789a4.056 4.056 0 0 0-.375-1.342 2.806 2.806 0 0 0-.89-1.064 2.748 2.748 0 0 0-1.157-.447 3.763 3.763 0 0 0-1.246.03c-.821.148-1.586.509-2.338.872-1.228.594-2.482 1.215-3.84 1.355a5.731 5.731 0 0 1-4.289-1.355zm56.002 67.313c.445 0 .89.012 1.334.027 1.938.071 3.964.3 5.567 1.39 1.325.903 2.23 2.322 2.781 3.827.376 1.026.604 2.1.9 3.152.296 1.053.67 2.101 1.303 2.992.806 1.134 1.993 1.952 3.248 2.551.975.466 2.001.814 2.988 1.252.988.438 1.95.979 2.692 1.764.71.75 1.19 1.698 1.457 2.695.266.997.323 2.043.252 3.072-.142 2.06-.784 4.047-1.244 6.059a34.747 34.747 0 0 0-.696 11.246 29.029 29.029 0 0 1-1.855-5.217c-.829-3.3-1.07-6.714-1.508-10.088-.166-1.285-.364-2.577-.828-3.787-.464-1.21-1.22-2.342-2.303-3.053-.711-.466-1.53-.733-2.336-1.007-.805-.275-1.62-.57-2.3-1.08-.656-.493-1.16-1.168-1.528-1.9-.368-.733-.608-1.524-.803-2.321-.388-1.594-.612-3.258-1.38-4.707-.657-1.238-1.687-2.256-2.866-3.014s-2.504-1.264-3.859-1.623c-2.98-.789-6.145-.87-9.16-.232a25.887 25.887 0 0 1 10.144-1.998zm6.784 41.65a112.772 112.772 0 0 1 2.435 6.262c.749 2.11 1.447 4.267 2.666 6.144 1.24 1.91 2.967 3.446 4.664 4.965 1.697 1.52 3.408 3.075 4.612 5.008 1.68 2.7 2.25 5.951 2.384 9.129.135 3.177-.129 6.362.051 9.537.11 1.934.384 3.862.36 5.799-.025 1.937-.372 3.924-1.403 5.564a7.433 7.433 0 0 1-3.205 2.797 7.422 7.422 0 0 1-2.898.643 6.294 6.294 0 0 1 2.857 1.199c.994.761 1.739 1.811 2.281 2.94.543 1.128.893 2.338 1.198 3.552 1.863 7.442 2.112 15.177 2.433 22.842.282 6.724.625 13.472 0 20.174a70.176 70.176 0 0 1-2.666 13.681c-.255-6.04-.68-12.07-1.275-18.086-.703-7.108-1.644-14.2-1.971-21.335-.14-3.036-.17-6.088-.686-9.082-.515-2.995-1.551-5.968-3.488-8.31-1.831-2.213-4.38-3.751-7.074-4.753a23.457 23.457 0 0 0-6.26-1.393 12.89 12.89 0 0 1 4.754-3.128c1.885-.708 3.905-.962 5.852-1.477.973-.257 1.934-.583 2.824-1.053.89-.47 1.71-1.09 2.338-1.877.842-1.058 1.305-2.382 1.498-3.72.193-1.34.13-2.702.01-4.05-.387-4.342-1.355-8.627-1.508-12.984-.055-1.567-.005-3.145-.205-4.7-.2-1.557-.67-3.12-1.65-4.345-.825-1.03-1.959-1.762-3.096-2.433-1.137-.67-2.312-1.307-3.281-2.203-1.139-1.053-1.947-2.432-2.455-3.897-.509-1.465-.727-3.019-.792-4.568-.096-2.298.14-4.61.696-6.842z" transform="scale(.26458)"/><path style="fill:none;fill-rule:evenodd;stroke:#000;stroke-width:2.9104166;stroke-linecap:round;stroke-linejoin:round;stroke-miterlimit:4;stroke-dasharray:none;stroke-opacity:1" d="m181.337 101.121-5.397 95.42c-1.695 40.137-30.142 71.926-70.763 71.948-40.584-.049-69.043-31.849-70.763-71.948l-5.396-95.42h76.158z" transform="translate(-7.923 -79.447)"/><path style="fill:#fcdd09;fill-opacity:1;stroke:#000;stroke-width:.79374999;stroke-linecap:round;stroke-linejoin:round;stroke-miterlimit:4;stroke-dasharray:none;stroke-opacity:1" d="m127.46 105.14 1.616 12.196s8.03.474 12.039.782c4.33.331 9.243.744 12.977 1.146.695.053 4.117-11.517 4.117-11.517l-9.85 5.889-5.107-9.225-7.766 9.329z" transform="translate(-7.923 -79.447)"/><path transform="translate(194.55 -79.447)" style="fill:#000;stroke:none;stroke-width:.26458332px;stroke-linecap:butt;stroke-linejoin:miter;stroke-opacity:1" d="M-169.386 123.916a31.97 31.97 0 0 1 5.555-4.897c4.524-3.137 9.785-5.054 15.11-6.452a90.878 90.878 0 0 1 14.454-2.57 17.8 17.8 0 0 1 .964-3.533 39.738 39.738 0 0 1 3.105-.428c2.966-.29 5.986-.244 8.894.408.438.098.875.21 1.284.395.41.185.79.447 1.064.803.242.314.393.698.43 1.093.038.395-.038.8-.216 1.155.38-.027.769.09 1.071.321.255.196.445.467.576.76.132.294.207.609.26.926.269 1.6-.016 3.233-.194 4.846-.224 2.038-.277 4.102-.706 6.108-.069.322-.149.646-.304.937-.155.29-.394.548-.703.664-.237.089-.496.09-.75.107-.398.027-.794.1-1.177.214a1462.301 1462.301 0 0 1-3.533 35.226c-1.435 12.745-3.037 25.47-4.39 38.224-1.506 14.187-2.703 28.404-3.962 42.614-.075.855-.152 1.712-.334 2.55-.182.839-.474 1.662-.95 2.376-.734 1.097-1.875 1.878-3.106 2.355-.85.33-1.77.526-2.676.428-.793-.085-1.572-.406-2.142-.963-.598-.585-.936-1.394-1.09-2.216-.153-.822-.135-1.665-.11-2.5.169-5.684.634-11.353 1.093-17.02.816-10.058 1.614-20.118 2.529-30.168.192-2.114.39-4.228.576-6.343 1.072-12.187 1.753-24.404 2.463-36.618.5-8.606 1.015-17.211 1.713-25.804.07-.856.14-1.713.214-2.57a1.124 1.124 0 0 1-1.07-.106 1.382 1.382 0 0 1-.418-.476 2.545 2.545 0 0 1-.225-.595c-.235-.903-.178-1.852-.214-2.784a13.729 13.729 0 0 0-.321-2.463c-3.9.2-7.792.521-11.671.964-4.616.527-9.226 1.23-13.705 2.463a59.256 59.256 0 0 0-7.388 2.57z"/><path style="fill:#fcdd09;fill-opacity:1;stroke:none;stroke-width:.99999994px;stroke-linecap:butt;stroke-linejoin:miter;stroke-opacity:1" d="M250.889 103.643c-2.637 0-5.274.019-7.91.048-1.852.021-3.763.06-5.452.819-2.006.9-3.498 2.788-4.088 4.906a8.465 8.465 0 0 0 .272 5.316c16.401 0 32.802.136 49.201.409.345-1.238.486-2.534.41-3.817-.099-1.686-.605-3.411-1.771-4.633-.864-.904-2.033-1.474-3.24-1.8-1.208-.327-2.464-.428-3.711-.518-7.889-.568-15.8-.733-23.711-.73zm25.263 65.86-43.847.645a549.285 549.285 0 0 0-1.29 10.317c-3.112 26.976-4.222 54.138-5.804 81.248-1.054 18.063-2.318 36.112-3.545 54.164-2.36 34.72-4.579 69.453-7.416 104.139-1.134 13.867-2.368 27.728-3.547 41.591-2.779 32.683-5.256 65.394-8.705 98.012-1.43 13.528-3.029 27.045-3.87 40.623-.491 7.951-.721 15.962.323 23.86.323 2.442.784 4.915 1.936 7.093.903 1.708 2.228 3.2 3.857 4.239 1.629 1.038 3.561 1.613 5.492 1.564 2.6-.066 5.03-1.222 7.416-2.258 1.812-.786 3.651-1.517 5.385-2.463 1.734-.946 3.373-2.122 4.61-3.662 1.29-1.606 2.099-3.557 2.605-5.554.506-1.998.722-4.056.935-6.106 3.87-37.223 6.93-74.524 10-111.822 2.329-28.287 4.664-56.58 7.739-84.795 3.179-29.167 7.147-58.242 10.638-87.373 5.26-43.884 9.437-87.89 13.864-131.865 1.06-10.534 2.135-21.066 3.224-31.596z" transform="scale(.26458)"/><path transform="translate(194.55 -79.447)" style="fill:#000;stroke:none;stroke-width:.26458332px;stroke-linecap:butt;stroke-linejoin:miter;stroke-opacity:1" d="M-126.253 130.561a11.827 11.827 0 0 1-2.426-.397 11.712 11.712 0 0 1-3.697-1.75c-.692-.492-1.346-1.07-2.147-1.351a3.432 3.432 0 0 0-1.842-.11c-.61.13-1.182.42-1.656.825-.858.733-1.38 1.854-1.352 2.982.02.77.285 1.522.676 2.186.254.434.562.835.914 1.193a3.592 3.592 0 0 0-2.027 1.272 3.816 3.816 0 0 0-.795 2.346c0 1.099.471 2.19 1.272 2.942a9.465 9.465 0 0 0-1.113 3.021c-.135.736-.182 1.501 0 2.227.132.528.385 1.028.748 1.435.363.406.836.717 1.359.87.656.194 1.366.136 2.027-.04 1.307-.345 2.457-1.126 3.499-1.987 1.482-1.225 2.832-2.68 3.578-4.453.21-.499.37-1.02.477-1.55-.474.143-.94.315-1.392.517-.488.217-.963.468-1.47.636-.782.258-1.647.307-2.426.04-.25-.086-.493-.207-.675-.398a.837.837 0 0 1-.239-.477.788.788 0 0 1 .075-.412c.059-.128.145-.242.243-.344.349-.363.83-.57 1.312-.715.95-.287 1.95-.374 2.942-.398a23.76 23.76 0 0 1 2.584.08 4.216 4.216 0 0 0-.636-1.153c-.6-.772-1.446-1.307-2.264-1.841-.649-.423-1.312-.863-2.07-1.022-.103-.021-.208-.037-.311-.064a.903.903 0 0 1-.291-.125.45.45 0 0 1-.166-.196.313.313 0 0 1-.023-.127.263.263 0 0 1 .036-.124.32.32 0 0 1 .174-.13.932.932 0 0 1 .217-.038c.742-.072 1.49-.122 2.211-.311 1.038-.274 1.982-.83 2.845-1.469a15.535 15.535 0 0 0 1.829-1.59z"/><path style="fill:#da121a;stroke:none;stroke-width:.26458332px;stroke-linecap:butt;stroke-linejoin:miter;stroke-opacity:1;fill-opacity:1" d="M69.067 129.022a1.439 1.439 0 0 0-.492.097 1.41 1.41 0 0 0-.542.4 2.03 2.03 0 0 0-.34.586c-.163.424-.213.88-.276 1.33-.043.305-.115.613-.087.92.027.302.027.667.246.877.28.268.744.24 1.13.269.38.03.765-.022 1.14-.091.303-.056.604-.135.886-.258 1.193-.519 2.249-1.31 3.355-1.997a13.138 13.138 0 0 1-1.439-.638c-.91-.473-1.775-1.056-2.755-1.359a2.87 2.87 0 0 0-.658-.133 1.568 1.568 0 0 0-.168-.003zm-1.33 5.888a2.658 2.658 0 0 0-.845.137 1.71 1.71 0 0 0-.713.462c-.252.282-.384.656-.42 1.032-.037.376.017.756.1 1.125.069.302.16.603.318.87.159.266.39.497.68.607.234.089.494.095.74.046.244-.049.475-.151.693-.274.435-.245.824-.574 1.283-.77.732-.314 1.563-.261 2.357-.2.506.039 1.012.079 1.517.12a13.028 13.028 0 0 0-2.675-2.157c-.923-.56-1.957-1.014-3.036-.998zm4.513 6.829a4.772 4.772 0 0 1-3.116.44c-.447-.09-.878-.246-1.323-.346-.445-.1-.916-.144-1.353-.014a1.85 1.85 0 0 0-.804.496c-.22.231-.382.516-.474.822-.173.577-.096 1.194-.08 1.797.012.4-.003.807.095 1.196.05.194.128.383.245.545.117.163.274.299.459.375.17.07.358.09.541.076.183-.014.362-.06.538-.115 1.127-.358 2.09-1.11 2.915-1.957a13.347 13.347 0 0 0 2.357-3.315z" transform="translate(-7.923 -79.447)"/><path style="fill:#fff;stroke:#000;stroke-width:.26458332px;stroke-linecap:butt;stroke-linejoin:miter;stroke-opacity:1" d="M67.938 128.186a3.212 3.212 0 0 0-2.168 1.043c-.447.495-.733 1.144-.741 1.811a2.49 2.49 0 0 0 .796 1.839 4.83 4.83 0 0 1 .411-1.674c.3-.67.75-1.263 1.125-1.894.216-.362.409-.738.577-1.125zm-3.02 7.52a2.173 2.173 0 0 0-1.29 1.262c-.248.66-.149 1.43.22 2.03.255.415.632.753 1.07.961-.114-.452-.206-.91-.274-1.372-.059-.401-.1-.815 0-1.208.07-.272.204-.524.275-.796a1.761 1.761 0 0 0 0-.878zm.495 5.104a4.002 4.002 0 0 0-1.784 3.32c-.001.837.27 1.669.74 2.36.29.425.654.798 1.071 1.098-.058-.402-.16-.799-.302-1.18-.217-.584-.532-1.14-.63-1.756-.108-.67.052-1.353.246-2.003.187-.624.407-1.238.659-1.839z" transform="translate(-7.923 -79.447)"/><path transform="translate(194.55 -79.447)" style="fill:#000;stroke:none;stroke-width:.26458332px;stroke-linecap:butt;stroke-linejoin:miter;stroke-opacity:1" d="M-30.227 108.476a13.05 13.05 0 0 0-3.96 9.068c-.046 2.517.644 4.985 1.398 7.387.754 2.401 1.583 4.805 1.833 7.31.416 4.186-.887 8.518-3.544 11.779a15.273 15.273 0 0 0 1.042-8.652c-.6-3.47-2.39-6.645-3.023-10.11a15.588 15.588 0 0 1-.208-3.961 15.254 15.254 0 0 0-3.44 10.632c.261 3.913 2.038 7.648 1.98 11.57a12.593 12.593 0 0 1-2.814 7.713 19.611 19.611 0 0 0-.417-4.274c-.73-3.473-2.404-6.771-2.501-10.319a11.835 11.835 0 0 1 .834-4.69 20.618 20.618 0 0 0-3.846 6.649c-1.273 3.638-1.484 7.702-.227 11.345.337.978.775 1.918 1.12 2.893.346.974.599 2 .546 3.033-.064 1.247-.57 2.43-1.187 3.516-.617 1.085-1.35 2.103-1.93 3.208a13.422 13.422 0 0 0-1.356 8.339 22.227 22.227 0 0 1-2.189-10.007 22.204 22.204 0 0 1 1.98-8.755 21.514 21.514 0 0 0-5.21 7.296 21.708 21.708 0 0 0-1.773 9.277c.037 1.178.17 2.36.507 3.49.337 1.13.884 2.208 1.682 3.076a6.447 6.447 0 0 0 1.98 1.46 43.59 43.59 0 0 0 1.147 8.338 16.071 16.071 0 0 1-6.15-5.107 16.114 16.114 0 0 1-3.022-9.381 19.749 19.749 0 0 0-1.043 4.899c-.395 4.79 1.105 9.819 4.482 13.238 2.471 2.5 5.751 4.018 8.547 6.15 3.153 2.402 5.644 5.546 8.235 8.546 1.31 1.517 2.669 3.027 3.575 4.814.454.894.789 1.854.92 2.847.133.994.057 2.022-.286 2.964-.597 1.64-1.998 2.932-3.636 3.535-1.637.603-3.481.545-5.133-.016-2.428-.826-4.367-2.638-6.28-4.346-.838-.747-1.688-1.486-2.438-2.322-.75-.836-1.4-1.778-1.781-2.834-.24-.666-.368-1.366-.542-2.051a12.73 12.73 0 0 0-.823-2.322c-1.005-2.119-2.663-3.843-4.11-5.689-2.77-3.534-4.824-7.618-6.08-11.93-.793-2.723-1.272-5.563-1.112-8.395.088-1.555.369-3.1.834-4.586a6.66 6.66 0 0 0 .834 2.188 6.678 6.678 0 0 0 2.397 2.346 22.732 22.732 0 0 1-.573-3.596c-.168-2.154-.024-4.35.625-6.41.255-.811.587-1.598.99-2.346a7.726 7.726 0 0 0 3.857 4.013 10.28 10.28 0 0 1-.521-3.231c0-1.763.455-3.497 1.042-5.16.37-1.048.796-2.085.99-3.179a7.773 7.773 0 0 0 0-2.71c.131.527.404 1.018.782 1.407.346.356.78.627 1.25.782a9.494 9.494 0 0 1 .261-3.335c.387-1.481 1.125-2.843 1.668-4.274a16.98 16.98 0 0 0 .99-4.065 19.589 19.589 0 0 1 1.98 2.293c.248-.336.411-.733.47-1.147.083-.582-.04-1.175-.205-1.74-.165-.564-.375-1.119-.473-1.7-.14-.826-.047-1.678.145-2.495.191-.816.48-1.606.741-2.403a35.237 35.237 0 0 0 1.616-7.974c.093-1.111.124-2.28-.365-3.283a3.42 3.42 0 0 0-.573-.834 7.644 7.644 0 0 0 1.668-1.46c.361-.424.678-.89.903-1.4.225-.51.357-1.065.347-1.622-.016-.943-.452-1.864-1.146-2.502-.58-.534-1.349-.876-2.137-.886-.878-.01-1.704.377-2.547.622a6.369 6.369 0 0 1-1.794.272c-1.318-.004-2.578-.5-3.859-.815-2.9-.714-5.939-.5-8.914-.761-1.261-.11-2.515-.308-3.78-.363-1.264-.056-2.555.035-3.74.48-.239.09-.473.194-.687.333-.213.14-.406.314-.544.528-.133.205-.213.44-.3.667-.089.228-.188.457-.353.638-.181.2-.432.328-.694.395a2.867 2.867 0 0 1-.804.07c-.907-.027-1.802-.261-2.633-.628-.938-.415-1.818-1.005-2.826-1.196-.937-.178-1.915.009-2.797.37-.883.36-1.686.89-2.476 1.424-.468.316-.942.642-1.294 1.085-.176.221-.319.47-.402.74-.083.27-.105.562-.043.838.09.405.35.747.582 1.09.117.172.23.347.313.537.084.19.14.394.138.602-.002.2-.057.397-.136.581-.08.184-.182.357-.283.53a4.163 4.163 0 0 0-.278.533 1.456 1.456 0 0 0-.119.584c.01.339.179.659.414.903.234.243.531.418.836.565.879.421 1.853.628 2.827.652 1.788.045 3.54-.509 5.327-.598a10.549 10.549 0 0 1 5.87 1.468c.605.359 1.178.783 1.634 1.318.456.536.789 1.19.867 1.889a2.921 2.921 0 0 1-.218 1.467 11.124 11.124 0 0 0-2.5-2.228c-1.365-.888-2.917-1.467-4.512-1.794-2.44-.5-4.96-.417-7.447-.272-1.242.073-2.49.16-3.73.039-1.238-.122-2.48-.464-3.499-1.18a4.714 4.714 0 0 1-1.245-1.27 3.774 3.774 0 0 1-.603-1.665c-.075-.74.1-1.502.489-2.135a3.443 3.443 0 0 1 1.685-1.398 6.686 6.686 0 0 0-1.957-.435c-1.552-.106-3.153.362-4.348 1.359a5.407 5.407 0 0 0-1.445 1.87 4.951 4.951 0 0 0-.457 2.315c.045.894.347 1.768.83 2.522a6.415 6.415 0 0 0 1.887 1.88c1.987 1.307 4.472 1.557 6.85 1.632 1.285.04 2.572.04 3.858 0a9.362 9.362 0 0 0 .055 2.554c.179 1.12.576 2.229 1.304 3.099.755.9 1.87 1.51 3.044 1.576.767.042 1.531-.14 2.25-.411.719-.27 1.401-.627 2.099-.948.9-.415 1.84-.776 2.826-.87.793-.075 1.622.032 2.312.43.345.199.65.469.877.797.226.327.37.713.399 1.11.04.558-.153 1.117-.469 1.579-.315.461-.75.832-1.216 1.14-1.552 1.02-3.47 1.361-5.327 1.304-2.488-.077-4.93-.832-7.12-2.011a19.372 19.372 0 0 1-4.077-2.936 8.865 8.865 0 0 0 .815 3.48 8.925 8.925 0 0 0 4.403 4.348 23.749 23.749 0 0 0-4.784-.218c-1.932.108-3.864.457-5.653 1.196a14.39 14.39 0 0 0-4.511 2.99c-2.38 2.313-3.98 5.38-6.577 7.446-1.618 1.288-3.546 2.122-5.49 2.827-.829.3-1.676.583-2.555.652a5.455 5.455 0 0 1-2.935-.598 11.537 11.537 0 0 0 3.97 1.977c1.48.407 3.037.513 4.564.36 2.353-.235 4.601-1.07 6.794-1.956.4-.161.798-.324 1.196-.49-.999.871-2.014 1.723-3.044 2.555-2.175 1.758-4.457 3.452-7.066 4.458-2.314.891-4.808 1.212-7.284 1.358-2.531.15-5.142.114-7.5-.815-.494-.194-.977-.429-1.394-.757-.417-.327-.768-.754-.944-1.254-.188-.53-.17-1.108-.22-1.669a3.471 3.471 0 0 0-.156-.827 1.733 1.733 0 0 0-.44-.711c-.26-.244-.607-.378-.956-.459-.348-.08-.706-.115-1.055-.193-.261-.059-.521-.142-.79-.138a.932.932 0 0 0-.389.085.63.63 0 0 0-.288.27 1.042 1.042 0 0 0-.084.271c-.02.093-.039.187-.08.273a.58.58 0 0 1-.271.271 1.618 1.618 0 0 1-1.36-.652c-.207-.285-.314-.632-.38-.978a4.947 4.947 0 0 1 0-1.848 2.737 2.737 0 0 0-1.576.217c-.735.341-1.29 1.006-1.607 1.752-.317.745-.414 1.569-.404 2.38.018 1.558.42 3.102 1.087 4.51.335.706.735 1.38 1.196 2.012a6.981 6.981 0 0 1-3.044-3.968 7.171 7.171 0 0 0-1.468 2.446c-.565 1.6-.538 3.39 0 5a7.666 7.666 0 0 0 1.522 2.664c.209.235.44.465.544.761a.924.924 0 0 1 .037.498.754.754 0 0 1-.255.426.861.861 0 0 1-.592.171 1.684 1.684 0 0 1-.603-.171c-.601-.279-1.105-.735-1.522-1.25a6.576 6.576 0 0 1-1.033-1.794 7.263 7.263 0 0 0-.87 2.718 6.451 6.451 0 0 0 .204 2.533 5.282 5.282 0 0 0 1.264 2.196 4.842 4.842 0 0 0 2.065 1.25c.19.643.528 1.243.979 1.74.406.447.926.82 1.522.923.41.072.838.012 1.232-.125a4.866 4.866 0 0 0 1.105-.581c1.283-.863 2.335-2.029 3.587-2.935a10.24 10.24 0 0 1 3.642-1.685c1.19-.28 2.426-.33 3.642-.218 1.338.123 2.687.451 3.805 1.196a5.758 5.758 0 0 1 2.229 2.88c.527-.984.827-2.09.87-3.206a7.407 7.407 0 0 0-.49-2.935 6.44 6.44 0 0 1 3.533 1.63 6.467 6.467 0 0 1 2.066 4.403 6.63 6.63 0 0 0 2.283-4.457 6.589 6.589 0 0 0-.652-3.424 8.413 8.413 0 0 1 2.337 2.174 8.437 8.437 0 0 1 1.576 4.185 7.575 7.575 0 0 0 1.903-2.99c.386-1.129.499-2.351.326-3.532a12.507 12.507 0 0 1 2.772 6.63 8.474 8.474 0 0 0 2.772-2.445 8.524 8.524 0 0 0 1.576-5.653c.573 1.637.85 3.376.816 5.11a14.636 14.636 0 0 1-1.033 5.109c.92-.253 1.79-.68 2.555-1.25a7.751 7.751 0 0 0 2.99-5.001c.008.792.137 1.583.38 2.337.351 1.093.938 2.102 1.25 3.207.233.828.308 1.7.217 2.555a14.103 14.103 0 0 0 2.066-3.044c.114.657.316 1.298.598 1.902 1.016 2.18 2.979 3.732 4.674 5.436 1.705 1.713 3.18 3.636 4.73 5.49.231.277.466.555.644.87.179.314.299.671.28 1.032a1.593 1.593 0 0 1-.544 1.088c-.319.282-.729.439-1.142.543-1.08.272-2.216.214-3.32.068-1.105-.146-2.2-.378-3.311-.448-2.305-.146-4.67.436-6.577 1.739-.735.502-1.41 1.119-1.858 1.889-.447.77-.65 1.707-.425 2.568.182.699.622 1.296.986 1.919.183.311.349.635.454.98.106.345.148.714.082 1.07-.062.332-.22.643-.423.914a4.13 4.13 0 0 1-.719.716c-1.175.947-2.622 1.51-4.096 1.837-1.474.327-2.987.433-4.492.554-1.754.143-3.514.309-5.272.218-.988-.051-1.978-.185-2.917-.497-.939-.311-1.828-.807-2.519-1.514a4.107 4.107 0 0 1-.85-1.24 2.95 2.95 0 0 1-.237-1.478c.086-.773.514-1.46.924-2.12.349-.561.7-1.143.815-1.794a2.403 2.403 0 0 0-.098-1.249 1.982 1.982 0 0 0-.771-.98c-.37-.237-.814-.332-1.25-.38a6.768 6.768 0 0 0-1.468 0 6.424 6.424 0 0 0-1.848-2.228c-1.274-.97-2.916-1.433-4.512-1.305-1.25.1-2.47.558-3.479 1.305.79.144 1.543.483 2.175.978.662.52 1.192 1.216 1.467 2.011.134.385.207.79.218 1.196-.224.21-.442.428-.653.652-.19.202-.374.41-.523.644-.149.233-.26.495-.292.77-.038.337.047.682.201.984.155.303.375.568.614.81.914.918 2.1 1.502 3.207 2.174.267.161.531.33.769.532.237.202.448.44.59.718a1.799 1.799 0 0 1 0 1.63 1.798 1.798 0 0 1-.852.79c-.36.162-.77.205-1.159.134-.648-.117-1.2-.533-1.685-.978-.587-.539-1.123-1.145-1.794-1.576a3.705 3.705 0 0 0-1.739-.598 2.75 2.75 0 0 0-1.025.116 2.12 2.12 0 0 0-.877.536 1.903 1.903 0 0 0-.482.89c-.076.334-.06.688.047 1.013-.397.346-.795.69-1.196 1.032-.734.626-1.486 1.257-2.011 2.066-.613.944-.878 2.082-.924 3.207-.057 1.374.22 2.804 1.032 3.913a4.63 4.63 0 0 0 2.392 1.686 4.05 4.05 0 0 1-.163-1.631c.1-.942.533-1.83 1.142-2.555.289-.344.618-.655.978-.924.319.36.709.658 1.141.87.429.21.903.335 1.38.328.477-.007.957-.15 1.338-.437.325-.244.567-.578.807-.905.24-.327.49-.658.824-.889.469-.325 1.06-.422 1.63-.435 1.216-.027 2.477.318 3.37 1.142.512.471.893 1.104.979 1.794.055.44-.012.892-.176 1.304a3.096 3.096 0 0 1-.748 1.087c-.72.683-1.726 1.02-2.718 1.033-.575.008-1.147-.085-1.721-.127-.575-.042-1.167-.029-1.703.181-.42.166-.79.447-1.094.781-.304.335-.546.721-.754 1.122-.193.37-.36.76-.43 1.171-.07.412-.035.85.158 1.22.182.35.5.623.87.762.207.078.43.115.652.108a7.09 7.09 0 0 0 .924 3.48c.78 1.367 2.015 2.45 3.424 3.152.895.445 1.883.746 2.881.706a4.447 4.447 0 0 0 1.957-.543 11.727 11.727 0 0 1-1.305-1.033c-.545-.499-1.06-1.08-1.25-1.794a2.37 2.37 0 0 1 .49-2.12c.342.359.812.594 1.304.653.311.037.633.005.923-.114.29-.118.547-.324.708-.593.138-.232.203-.504.211-.774.01-.27-.036-.54-.103-.802-.095-.371-.234-.73-.342-1.097-.108-.367-.184-.75-.147-1.132.039-.395.198-.77.394-1.115s.431-.667.639-1.005c.123-.2.237-.407.382-.593a1.36 1.36 0 0 1 .542-.44c.232-.094.497-.094.734-.014s.444.237.597.436c.152.198.25.435.297.68.046.246.042.5.003.747a2.65 2.65 0 0 1-.707 1.413 8.171 8.171 0 0 0 2.99-2.066 8.184 8.184 0 0 0 1.956-3.805c.274.73.421 1.505.435 2.283a6.879 6.879 0 0 1-.706 3.153 7.886 7.886 0 0 0 2.663-2.066c.763-.914 1.307-1.99 1.794-3.076.331-.74.64-1.49.924-2.25a7.74 7.74 0 0 0 .078 3.186c.162.685.418 1.346.574 2.032.158.693.213 1.41.163 2.12.632-.6 1.266-1.199 1.903-1.794 1.214-1.137 2.479-2.324 3.059-3.883a5.347 5.347 0 0 0 .148-3.238 4.982 4.982 0 0 1 1.358 2.229c.274.947.259 1.95.218 2.935-.036.87-.09 1.74-.163 2.61a18.835 18.835 0 0 0 2.283-2.447c.553-.71 1.058-1.465 1.433-2.284.374-.82.617-1.707.632-2.608a5.413 5.413 0 0 0-.489-2.337 10.516 10.516 0 0 1 2.935 3.533 13.574 13.574 0 0 1 3.425-5.544 8.777 8.777 0 0 0-.598 3.207c.005 1.725.541 3.457 1.576 4.837.791 1.056 1.847 1.886 2.957 2.6 1.11.714 2.283 1.323 3.403 2.02 1.667 1.039 3.236 2.295 4.348 3.914.341.497.638 1.027.839 1.595.2.568.301 1.175.248 1.775a3.876 3.876 0 0 1-.572 1.687c-.315.51-.738.949-1.221 1.303-1.393 1.02-3.183 1.281-4.892 1.522-2.566.361-5.207.741-7.719.109-.852-.215-1.685-.55-2.385-1.082-.7-.532-1.26-1.273-1.474-2.125-.143-.566-.131-1.158-.202-1.737a3.57 3.57 0 0 0-.196-.85 1.948 1.948 0 0 0-.472-.73 1.803 1.803 0 0 0-.736-.407 2.47 2.47 0 0 0-.84-.081c-.569.036-1.117.232-1.685.271-.844.058-1.668-.232-2.5-.38a7.708 7.708 0 0 0-4.675.652 7.83 7.83 0 0 0-3.697 3.805 8.897 8.897 0 0 1 2.773-.163 8.335 8.335 0 0 1 3.098.924c.29.154.574.33.793.575.11.122.202.26.264.412.063.152.095.317.084.48-.017.282-.156.54-.217.816-.088.394-.01.816.184 1.17.193.354.499.64.849.841.305.175.65.288 1.001.305.352.017.711-.064 1.01-.25.301-.188.535-.48.652-.816a4.647 4.647 0 0 1 1.794.055c.437.1.864.266 1.22.538.357.272.638.655.737 1.092a1.602 1.602 0 0 1-.598 1.63c-.265.2-.589.311-.918.348a2.9 2.9 0 0 1-.985-.075c-.578-.137-1.12-.402-1.63-.707-.796-.476-1.535-1.06-2.392-1.413-.483-.2-1-.322-1.522-.326a2.413 2.413 0 0 0-.661.077c-.215.059-.42.158-.59.303-.238.205-.397.502-.434.815-.995.08-1.976.34-2.88.761-1.733.807-3.156 2.196-4.186 3.805-.711 1.111-1.257 2.378-1.25 3.697.004.754.192 1.506.543 2.174.51-.729 1.074-1.42 1.685-2.066.533-.563 1.111-1.099 1.794-1.467a4.592 4.592 0 0 1 1.957-.544c.287-.013.578 0 .858.066s.55.186.772.369c.23.188.4.437.57.681.168.245.34.492.572.678.353.283.824.399 1.276.37.452-.03.887-.196 1.279-.425.98-.573 1.694-1.525 2.663-2.12a4.652 4.652 0 0 1 1.957-.652c.674-.068 1.371.008 1.987.29.126.059.248.125.357.21a.937.937 0 0 1 .265.316.93.93 0 0 1 .02.72c-.084.232-.24.432-.418.603-.356.341-.81.58-1.124.96-.223.269-.365.599-.446.939-.081.34-.103.692-.104 1.041-.003.712.08 1.43.333 2.096.27.717.73 1.353 1.283 1.883.553.53 1.196.959 1.87 1.324 1.054.573 2.223 1.002 3.424.979a4.822 4.822 0 0 0 2.5-.761 5.27 5.27 0 0 1-1.196-1.033c-.34-.398-.624-.854-.76-1.359a1.492 1.492 0 0 1-.06-.543.795.795 0 0 1 .222-.49.811.811 0 0 1 .358-.192c.132-.035.27-.045.407-.049.273-.007.556.013.812-.085.145-.056.275-.149.381-.263.106-.114.188-.25.247-.394.119-.289.144-.608.133-.92a3.935 3.935 0 0 0-.925-2.39c-.294-.345-.648-.633-.948-.973a2.718 2.718 0 0 1-.39-.554 1.613 1.613 0 0 1-.183-.648c-.018-.344.1-.686.284-.978.184-.29.433-.537.694-.761 1.094-.942 2.475-1.565 3.914-1.685 1.7-.143 3.414.416 4.837 1.358a9.72 9.72 0 0 1 3.75 4.784c.445-.339.802-.79 1.029-1.3.227-.511.323-1.079.276-1.635-.063-.763-.388-1.485-.815-2.12-.241-.36-.517-.698-.707-1.087a2.811 2.811 0 0 1-.271-.979 4.988 4.988 0 0 0 1.848 1.63c1.26.645 2.723.72 4.13.87.519.056 1.042.126 1.523.327.59.247 1.095.694 1.413 1.25a5.106 5.106 0 0 0-.109-1.848 5.119 5.119 0 0 0-1.196-2.229 4.835 4.835 0 0 0 2.61.979c1.299.083 2.575-.363 3.75-.925.52-.248 1.027-.52 1.522-.815a5.656 5.656 0 0 1-3.153-2.174c1.03.02 2.06-.097 3.058-.35a12.944 12.944 0 0 0 3.248-1.335 14.77 14.77 0 0 0 3.533-2.827c-1.273.57-2.64.928-4.03 1.053-1.434.13-2.891.012-4.287-.346a16.094 16.094 0 0 0 3.48-1.794 15.638 15.638 0 0 0 6.088-8.099 13.782 13.782 0 0 1-4.947 3.044 13.774 13.774 0 0 1-5.273.761c1.32-.831 2.501-1.883 3.479-3.098a14.219 14.219 0 0 0 3.044-7.393 18.309 18.309 0 0 1-3.533 4.131c-.53.46-1.09.89-1.72 1.2-.629.309-1.333.491-2.03.431-.745-.064-1.45-.401-2.024-.877-.576-.476-1.03-1.085-1.401-1.732-.631-1.097-1.043-2.326-1.142-3.587-.144-1.84.389-3.703 1.36-5.273.817-1.323 1.929-2.443 2.771-3.75.387-.601.715-1.24.979-1.903a3.66 3.66 0 0 0 .815 1.848c.577.69 1.394 1.148 1.957 1.848a3.49 3.49 0 0 1 .76 2.283 6.081 6.081 0 0 0 .707-3.913c.28 1.165.74 2.288 1.36 3.315a11.843 11.843 0 0 0 5.544 4.784 18.416 18.416 0 0 1-.38-4.403 9.232 9.232 0 0 0 2.826 3.315 9.23 9.23 0 0 0 3.968 1.631 2.44 2.44 0 0 1-.87-1.902c.632.067 1.267.104 1.902.108 1.966.015 3.998-.3 5.653-1.359.989-.632 1.81-1.513 2.412-2.52a9.315 9.315 0 0 0 1.176-3.296c.212-1.313.17-2.666-.109-3.968-.202-.945-.527-1.859-.783-2.79-.255-.933-.442-1.9-.358-2.863.101-1.172.597-2.272 1.141-3.315.938-1.797 2.045-3.511 2.827-5.382.585-1.4.983-2.887 1.087-4.402.14-2.03-.258-4.093-1.142-5.925a10.889 10.889 0 0 1-.76 4.022c-.796 2.012-2.168 3.733-3.262 5.599-.575.981-1.077 2.011-1.413 3.098a11.12 11.12 0 0 0-.49 3.642 15.671 15.671 0 0 1-.924-5.11c-.039-3.251.938-6.442 2.283-9.403.78-1.715 1.686-3.378 2.283-5.164.624-1.866.899-3.858.707-5.816a12.563 12.563 0 0 0-1.142-4.131 15.365 15.365 0 0 1-1.358 3.86c-.886 1.733-2.09 3.278-3.237 4.851-1.147 1.573-2.254 3.207-2.906 5.041a12.877 12.877 0 0 0-.706 3.75c-.104 2.389.386 4.8 1.413 6.958a26.695 26.695 0 0 1-2.446-4.566c-1.017-2.443-1.672-5.073-1.576-7.718.081-2.254.718-4.495 1.902-6.414 1.546-2.506 3.926-4.361 5.925-6.523 1.132-1.225 2.167-2.593 2.663-4.185.457-1.466.432-3.04.272-4.566a27.084 27.084 0 0 0-.38-2.5 11.336 11.336 0 0 1-1.685 3.315c-1.85 2.51-4.63 4.132-7.012 6.142-1.971 1.664-3.72 3.66-4.73 6.034a12.132 12.132 0 0 0-.869 3.207 13.53 13.53 0 0 1-.815-3.968c-.146-2.788.606-5.627 2.174-7.936 2.194-3.232 5.743-5.217 9.023-7.338 2.338-1.512 4.67-3.226 6.034-5.653a10.345 10.345 0 0 0 1.25-4.023c.089-.885.07-1.782-.055-2.663a12.965 12.965 0 0 1-2.935 3.098c-2.202 1.663-4.894 2.592-7.066 4.294a12.281 12.281 0 0 0-3.153 3.697c.152-1.323.482-2.625.979-3.86 1.196-2.971 3.314-5.473 5.544-7.773 1.77-1.825 3.644-3.574 5.11-5.653 1.557-2.21 2.616-4.754 3.206-7.392.304-1.357.486-2.741.544-4.131.124-2.988-.33-5.982-1.142-8.86-.946-3.356-2.376-6.579-3.043-10.001a23.102 23.102 0 0 1-.427-4.437z"/><path style="fill:#da121a;stroke:none;stroke-width:.26458332px;stroke-linecap:butt;stroke-linejoin:miter;stroke-opacity:1;fill-opacity:1" d="M106.077 123.747a5.873 5.873 0 0 0-3.586 1.594 5.037 5.037 0 0 0-1.068 1.444 3.966 3.966 0 0 0-.406 1.744c.007.827.306 1.64.784 2.314.478.675 1.128 1.218 1.846 1.63 1.671.962 3.652 1.212 5.578 1.315 3.428.184 6.867-.038 10.28-.398 1.671-.176 3.369-.385 5.02-.08a8.219 8.219 0 0 1 2.312.797 13.13 13.13 0 0 0-4.263-1.952c-1.7-.433-3.467-.52-5.22-.518-2.624.003-5.277.199-7.85-.319-.789-.159-1.571-.387-2.273-.781-.7-.395-1.32-.966-1.671-1.69-.334-.685-.414-1.47-.359-2.23a6.769 6.769 0 0 1 .876-2.87zM65.27 164.12a3.673 3.673 0 0 0-1.781 2.226c-.301 1.084-.084 2.245.24 3.323.132.442.284.882.51 1.284.228.403.535.768.928 1.01.356.22.784.33 1.199.275.49-.067.927-.36 1.267-.72.661-.698 1.007-1.65 1.13-2.603.04-.303.058-.613.004-.913-.055-.301-.188-.594-.414-.8a1.777 1.777 0 0 0-.545-.313c-.195-.078-.397-.143-.586-.235-.552-.267-.968-.752-1.301-1.267a7.135 7.135 0 0 1-.651-1.267zm-3.323 6.85a3.616 3.616 0 0 0-.543.633 4.33 4.33 0 0 0-.656 1.696c-.185 1.082-.033 2.2.275 3.254.134.46.3.916.563 1.316.263.4.631.744 1.08.91a1.97 1.97 0 0 0 1.542-.102c.498-.249.881-.686 1.164-1.165.394-.666.614-1.425.72-2.192.032-.231.053-.467.015-.698-.038-.23-.141-.457-.323-.604-.18-.145-.417-.198-.647-.219-.23-.02-.462-.012-.69-.055-.35-.065-.67-.247-.94-.48a4.348 4.348 0 0 1-.695-.809 10.3 10.3 0 0 1-.865-1.485zm-3.288 9.145a3.872 3.872 0 0 0-.377 2.09c.095.933.533 1.81 1.13 2.534.333.403.72.768 1.174 1.027.453.26.977.412 1.498.378.54-.036 1.058-.27 1.473-.617a2.92 2.92 0 0 0 1.028-1.918 2.061 2.061 0 0 0-.123-.989 1.361 1.361 0 0 0-.665-.724c-.3-.138-.643-.141-.97-.106-.328.035-.653.106-.983.106-.647.001-1.268-.269-1.815-.616a6.533 6.533 0 0 1-1.37-1.165zM79.073 203.4a3.405 3.405 0 0 0-1.575.395 6.613 6.613 0 0 1 1.464 1.767c.379.666.642 1.406.706 2.17.049.574-.013 1.164.152 1.716.089.299.245.58.462.803.217.223.496.39.8.46.379.086.783.022 1.142-.127.36-.15.68-.38.977-.63.303-.256.588-.537.81-.866.22-.329.376-.708.402-1.103.035-.552-.184-1.096-.506-1.546-.322-.45-.742-.818-1.16-1.18-.462-.4-.928-.8-1.443-1.13-.514-.33-1.083-.59-1.686-.687a3.328 3.328 0 0 0-.545-.042zm-5.563 14.931c-.443.018-.86.234-1.192.528-.332.294-.588.663-.827 1.037-.813 1.277-1.475 2.728-1.413 4.24a4.783 4.783 0 0 0 1.262 3.028c.197-.5.382-1.005.556-1.514.17-.502.34-1.028.706-1.413.318-.336.755-.532 1.19-.689.435-.157.885-.286 1.283-.522.41-.243.76-.609.909-1.06a1.98 1.98 0 0 0 .03-1.04 3.908 3.908 0 0 0-.384-.98c-.22-.414-.482-.814-.837-1.12-.355-.307-.814-.513-1.283-.495zm9.003 14.56a3.95 3.95 0 0 0-1.078.128c-.402.098-.797.237-1.147.458-.35.221-.652.528-.822.905-.18.4-.203.856-.129 1.288.074.431.242.842.432 1.236.568 1.176 1.364 2.264 2.423 3.028a6.208 6.208 0 0 0 2.22 1.01 3.126 3.126 0 0 0-.252-2.07c-.17-.338-.4-.643-.577-.978a2.283 2.283 0 0 1-.208-.527 1.352 1.352 0 0 1-.022-.564c.058-.31.244-.58.437-.83.193-.248.402-.493.522-.785.148-.363.144-.783.001-1.149a1.753 1.753 0 0 0-.758-.87 2.259 2.259 0 0 0-1.042-.28zm23.158 4.326a6.364 6.364 0 0 0-1.935.241 8.206 8.206 0 0 0-3.91 2.415c1.043.218 2.09.427 3.138.627.515.099 1.037.198 1.513.42.237.112.461.254.652.434s.348.398.442.643c.108.281.132.588.22.876.044.144.105.284.196.404.09.12.213.219.357.265.13.043.275.04.408.002.133-.037.255-.107.363-.193.215-.173.37-.407.532-.63.303-.414.643-.8.923-1.23.28-.429.5-.913.526-1.425a2.297 2.297 0 0 0-.424-1.403 3.13 3.13 0 0 0-1.121-.963 4.423 4.423 0 0 0-1.88-.483zm-3.62 10.687c-.23-.003-.462.03-.684.09-.444.12-.854.339-1.252.57-1.54.893-3.011 2.057-3.766 3.67a5.662 5.662 0 0 0-.531 2.462c.61-.384 1.239-.738 1.883-1.062.443-.224.898-.435 1.382-.546.484-.11 1.004-.117 1.467.062.247.096.471.241.703.369.233.127.48.24.745.26.226.016.455-.037.66-.134.204-.097.387-.238.547-.398a3.09 3.09 0 0 0 .785-1.415 4.372 4.372 0 0 0 .084-1.627c-.054-.444-.166-.887-.385-1.278-.218-.39-.552-.726-.966-.895a1.846 1.846 0 0 0-.672-.128zm12.827 9.348a5.848 5.848 0 0 0-.374.003c-.294.01-.589.04-.872.119-.283.08-.555.212-.77.412-.297.276-.471.668-.523 1.07-.052.403.012.813.136 1.199.358 1.103 1.223 2.012 2.27 2.51a4.86 4.86 0 0 0 3.186.339 2.648 2.648 0 0 1-1.061-2.221c.017-.375.115-.74.178-1.11.063-.369.089-.757-.034-1.111a1.55 1.55 0 0 0-.409-.618c-.181-.17-.399-.3-.63-.392a3.17 3.17 0 0 0-1.097-.2z" transform="translate(-7.923 -79.447)"/><path style="fill:#fff;stroke:none;stroke-width:.26458332px;stroke-linecap:butt;stroke-linejoin:miter;stroke-opacity:1" d="M170.866 113.534a7.626 7.626 0 0 0-1.031 3.386c-.069 1.142.122 2.288.442 3.386a14.674 14.674 0 0 0 1.987 4.196c-.239-.885-.484-1.768-.736-2.65-.455-1.595-.935-3.202-1.03-4.858a10.693 10.693 0 0 1 .368-3.46zm-19.33 6.005c-.37 0-.74.076-1.078.227-.456.205-.844.534-1.199.886-.355.352-.683.73-1.056 1.063a5.762 5.762 0 0 1-2.974 1.384c.47.099.955.134 1.435.103.665-.043 1.33-.215 1.897-.564.496-.305.903-.733 1.356-1.1.226-.183.466-.351.728-.478.262-.127.548-.21.839-.217.412-.009.826.142 1.135.414.31.272.513.663.557 1.073.043.403-.063.813-.255 1.17a3.487 3.487 0 0 1-.77.932 5.475 5.475 0 0 1-2.616 1.282 2.35 2.35 0 0 0 1.949.154c.543-.203.99-.601 1.384-1.026.332-.357.638-.742.87-1.171a3.25 3.25 0 0 0 .412-1.392 2.633 2.633 0 0 0-1.538-2.513 2.619 2.619 0 0 0-1.077-.227zm-22.048.894a3.679 3.679 0 0 0-1.453.277 2.78 2.78 0 0 0-1.161.902c-.263.361-.426.79-.718 1.128-.24.278-.562.483-.915.582a1.9 1.9 0 0 1-1.085-.018c.54.29 1.135.483 1.743.564a5.14 5.14 0 0 0 1.666-.053 1.562 1.562 0 0 0 1.302.987c.317.035.642-.025.929-.164.178-.087.344-.206.46-.366a.772.772 0 0 0 .155-.557.792.792 0 0 0-.12-.31 1.438 1.438 0 0 0-.216-.255c-.16-.155-.342-.29-.484-.461-.19-.23-.3-.523-.308-.82a.89.89 0 0 0-.358.871c.015.087.042.17.065.254a.839.839 0 0 1 .037.26.567.567 0 0 1-.08.256.754.754 0 0 1-.176.205.908.908 0 0 1-.674.194.9.9 0 0 1-.362-.129c.194-.045.386-.1.574-.168a.848.848 0 0 1-.82-.41.928.928 0 0 1-.123-.43c-.007-.15.02-.3.071-.442.133-.362.427-.652.773-.822.346-.17.74-.224 1.124-.203.512.028 1.016.19 1.442.476.425.285.77.692.968 1.164.185.44.243.92.328 1.39.085.468.206.947.493 1.328.235.312.576.542.954.644.377.1.788.072 1.148-.08a2.426 2.426 0 0 1-1.436-1.333c-.16-.38-.22-.793-.273-1.201-.053-.408-.1-.822-.24-1.21-.228-.639-.703-1.18-1.285-1.53-.581-.35-1.265-.517-1.945-.52zm-13.318.266a2.002 2.002 0 0 0-.692.142 1.61 1.61 0 0 0-.525.343c-.15.149-.267.33-.333.53a1.262 1.262 0 0 0-.021.721c.063.235.197.452.38.613a1.197 1.197 0 0 1 .272-.865 1.17 1.17 0 0 1 1.713-.093c.236.233.36.577.322.907-.028.232-.13.45-.27.637-.14.188-.316.346-.5.49a5.392 5.392 0 0 1-1.948.975c.637.29 1.363.381 2.051.256a2.941 2.941 0 0 0 1.474-.708c.405-.375.685-.895.73-1.445.05-.59-.174-1.19-.569-1.63a2.703 2.703 0 0 0-1.532-.831 2.732 2.732 0 0 0-.552-.043zm31.826 4.929a2.294 2.294 0 0 0-1.076.291c.732.255 1.404.68 1.95 1.23.808.819 1.317 1.887 1.691 2.974.455 1.323.731 2.706.82 4.102.226-.92.313-1.874.256-2.82a10.217 10.217 0 0 0-.768-3.281c-.216-.521-.474-1.03-.834-1.464-.36-.433-.83-.79-1.371-.946a2.255 2.255 0 0 0-.668-.086zm-19.328 3.778c.54.667 1.038 1.37 1.487 2.102.788 1.286 1.432 2.676 1.743 4.153a10.036 10.036 0 0 1-.051 4.357 7.348 7.348 0 0 0 1.025-3.537c.053-1.92-.68-3.838-1.948-5.281a8.16 8.16 0 0 0-2.256-1.794zm36.108 1a5.548 5.548 0 0 0-.75 2.464c-.05.83.089 1.664.321 2.464a10.679 10.679 0 0 0 1.447 3.053c-.174-.644-.353-1.287-.536-1.929-.332-1.16-.68-2.33-.75-3.535-.049-.846.042-1.7.268-2.517zm-33.25.048c.32.394.615.81.88 1.244.467.76.847 1.583 1.032 2.456a5.94 5.94 0 0 1-.031 2.579 4.347 4.347 0 0 0 .607-2.093c.03-1.136-.403-2.27-1.153-3.124a4.829 4.829 0 0 0-1.334-1.062zm17.08 1.15c.129.347.236.703.318 1.064.146.634.218 1.29.143 1.937a4.328 4.328 0 0 1-.62 1.774c.406-.348.721-.802.905-1.305a3.358 3.358 0 0 0-.071-2.427 3.52 3.52 0 0 0-.676-1.043zm-4.6 8.711c.13.347.237.703.32 1.064.146.634.218 1.29.142 1.937a4.33 4.33 0 0 1-.62 1.775 3.17 3.17 0 0 0 .906-1.306 3.358 3.358 0 0 0-.071-2.427 3.517 3.517 0 0 0-.676-1.043zm2.197 2.883c.182.98.165 1.999-.052 2.973-.233 1.053-.691 2.04-1.128 3.025-.263.595-.52 1.194-.769 1.795a2.265 2.265 0 0 0-.102-1.384 2.275 2.275 0 0 0-1.23-1.23 28.313 28.313 0 0 1 .666 5.536 19.272 19.272 0 0 0 1.897-2.769c.852-1.51 1.508-3.187 1.487-4.921a6.69 6.69 0 0 0-.77-3.025zm-4.911.047c.006.391-.014.783-.06 1.172-.079.683-.24 1.362-.544 1.979a4.574 4.574 0 0 1-1.245 1.547 3.35 3.35 0 0 0 1.364-.98c.56-.672.836-1.566.788-2.44a3.719 3.719 0 0 0-.303-1.278zm15.253.121a6.109 6.109 0 0 0-.826 2.713c-.055.915.097 1.833.353 2.713a11.755 11.755 0 0 0 1.593 3.362c-.192-.71-.388-1.417-.59-2.123-.365-1.278-.749-2.566-.825-3.893a8.567 8.567 0 0 1 .295-2.772zm-14.069.557c.005.303-.01.606-.045.906-.062.528-.186 1.053-.42 1.53-.229.462-.56.873-.963 1.195.408-.157.774-.42 1.053-.757.432-.52.647-1.21.61-1.886a2.876 2.876 0 0 0-.235-.988zm-8.61 2.134c-.24.548-.515 1.079-.824 1.59-.543.898-1.197 1.738-2.01 2.402a6.978 6.978 0 0 1-2.708 1.359 5.109 5.109 0 0 0 2.513-.496c1.203-.58 2.153-1.645 2.64-2.888a5.673 5.673 0 0 0 .389-1.967zm-3.022.62a20.161 20.161 0 0 1-2.23 1.43c-1.359.75-2.819 1.346-4.35 1.598a10.327 10.327 0 0 1-4.478-.257 7.56 7.56 0 0 0 3.589 1.22c1.97.144 3.977-.52 5.52-1.757a8.395 8.395 0 0 0 1.949-2.235zm4.88.742c-.133.338-.29.668-.466.986-.312.559-.692 1.086-1.172 1.508a4.256 4.256 0 0 1-1.622.887 3.115 3.115 0 0 0 1.52-.356 3.302 3.302 0 0 0 1.547-1.819c.136-.386.201-.797.194-1.206zM108.46 150.6c-.237 0-.475.01-.71.032-1.728.155-3.384.892-4.718 2a9.536 9.536 0 0 0-2.41 3.024 29.551 29.551 0 0 1 2.41-1.897c1.184-.836 2.438-1.59 3.794-2.102a12.11 12.11 0 0 1 3.743-.769 7.907 7.907 0 0 0-2.109-.288zm33.06 2.515a6.434 6.434 0 0 1-.044 2.563c-.202.907-.596 1.757-.972 2.607a72.433 72.433 0 0 0-.663 1.547 1.952 1.952 0 0 0-.089-1.193 1.96 1.96 0 0 0-1.06-1.06 24.383 24.383 0 0 1 .574 4.771 16.61 16.61 0 0 0 1.635-2.386c.734-1.302 1.3-2.748 1.282-4.242a5.764 5.764 0 0 0-.663-2.607zm-4.625 3.516a11.48 11.48 0 0 1-.076 1.511c-.103.881-.31 1.757-.703 2.553a5.9 5.9 0 0 1-1.606 1.996 4.32 4.32 0 0 0 1.759-1.263c.721-.869 1.079-2.021 1.017-3.149a4.794 4.794 0 0 0-.39-1.648zm-2.592 2.295c.005.307-.01.615-.046.92-.063.537-.19 1.07-.428 1.555-.232.47-.568.888-.978 1.215a2.63 2.63 0 0 0 1.07-.769c.44-.529.658-1.23.62-1.917a2.922 2.922 0 0 0-.238-1.004zm-31.37 1.394a29.796 29.796 0 0 1-3.207 2.61c.002.478-.072.957-.217 1.413-.242.757-.675 1.439-.979 2.174-.561 1.356-.669 2.849-.924 4.294-.169.957-.405 1.902-.706 2.826a14.433 14.433 0 0 0 4.674-2.174 14.442 14.442 0 0 0 3.968-4.24 7.954 7.954 0 0 0-.326 2.011 8.498 8.498 0 0 0 .815 3.86 9.059 9.059 0 0 0 1.74 2.5 21.019 21.019 0 0 0 5.163-9.458c.33 1.348.422 2.752.272 4.131-.12 1.108-.395 2.192-.706 3.262-.202.693-.42 1.382-.652 2.065.468.1.965.062 1.412-.108.488-.186.909-.52 1.26-.907.35-.387.635-.827.915-1.268a78.736 78.736 0 0 0 2.174-3.642c.301 1.32.72 2.614 1.25 3.86.64 1.501 1.476 2.977 2.773 3.968a6.026 6.026 0 0 0 2.989 1.196 5.434 5.434 0 0 1-.598-2.555c.026-1.69.83-3.256 1.25-4.892.178-.694.288-1.405.326-2.12.446.774.812 1.595 1.088 2.446.41 1.264.622 2.587.706 3.914.056.886.056 1.776 0 2.663a7.82 7.82 0 0 0 1.848-1.63c.88-1.069 1.458-2.346 2.066-3.588a65.444 65.444 0 0 1 1.956-3.697c-.09.33-.093.685-.008 1.017.086.332.259.64.498.886.34.351.816.569 1.304.598a16.6 16.6 0 0 1-1.196-7.392c-.358.9-.703 1.806-1.032 2.717-.654 1.805-1.26 3.65-2.284 5.273-.584.927-1.3 1.772-2.12 2.5a13.9 13.9 0 0 0-.325-2.12 16.182 16.182 0 0 0-1.36-3.641 19.345 19.345 0 0 0-1.521-2.501 9.318 9.318 0 0 1-.435 3.153c-.369 1.154-.96 2.226-1.359 3.37a10.808 10.808 0 0 0-.598 3.207 9.373 9.373 0 0 1-2.283-2.283c-.923-1.316-1.492-2.849-1.902-4.403a25.111 25.111 0 0 1-.707-3.914 13.003 13.003 0 0 1-2.228 5.436 12.963 12.963 0 0 1-2.012 2.229c.299-1.137.481-2.305.544-3.479.078-1.456-.036-2.95-.598-4.294a6.782 6.782 0 0 0-1.25-1.957 19.49 19.49 0 0 1-4.566 10.001 5.393 5.393 0 0 1-1.738-2.589 5.392 5.392 0 0 1-.001-3.118c.16-.53.402-1.03.606-1.545.203-.514.37-1.054.372-1.608 0-.453-.113-.905-.326-1.304a12.946 12.946 0 0 1-3.86 5.435c-1.086.9-2.322 1.62-3.641 2.12a8.13 8.13 0 0 1-.163-3.207c.21-1.402.784-2.726 1.467-3.968a23.182 23.182 0 0 1 2.392-3.533zm45.16 2.714a7.624 7.624 0 0 0-1.031 3.385c-.07 1.142.122 2.288.441 3.387a14.67 14.67 0 0 0 1.988 4.195c-.24-.885-.484-1.768-.736-2.65-.456-1.595-.935-3.201-1.031-4.858a10.693 10.693 0 0 1 .368-3.46zm-79.339 2.826a2.42 2.42 0 0 0-.243.014 3.152 3.152 0 0 1 1.5 2.313c.069.591-.035 1.194-.241 1.752-.207.558-.512 1.075-.853 1.563-.314.45-.659.878-1.032 1.281a3.844 3.844 0 0 0 2.251-1.063c.851-.831 1.276-2.067 1.158-3.251-.077-.765-.387-1.53-.97-2.033a2.42 2.42 0 0 0-1.57-.576zm28.21 2.361a5.865 5.865 0 0 1-.63 2.635 6.223 6.223 0 0 1-.654 1.04 2.64 2.64 0 0 0 1.002-.68c.364-.399.602-.915.655-1.453a2.437 2.437 0 0 0-.373-1.542zm-1.105.566a5.091 5.091 0 0 1-.892 2.177 5.413 5.413 0 0 1-.702.807c.346-.074.675-.23.952-.451.366-.294.64-.704.756-1.16a2.119 2.119 0 0 0-.114-1.373zm-23.565 1.902c.49.985 1.13 1.533 2.094 2.063 1.394.765 3.197 1.163 4.784 1.251 2.427.134 4.95.223 7.191-.72a8.278 8.278 0 0 0 2.283-1.438c-1.086.24-2.182.44-3.283.595-1.729.244-3.476.383-5.221.343-1.925-.044-3.862-.31-5.66-1a12.565 12.565 0 0 1-2.188-1.094zm.094.406a2.07 2.07 0 0 1-.407.938 2.084 2.084 0 0 1-1.375.782c.226.144.497.215.765.198.268-.016.53-.12.735-.292.23-.192.39-.467.44-.761a1.285 1.285 0 0 0-.158-.865zm-5.847 2.658c.249.5.418 1.041.5 1.595.172 1.163-.069 2.409-.781 3.345a3.693 3.693 0 0 1-1.407 1.126 3.576 3.576 0 0 1-1.314.308c.306.018.608.105.876.254.464.259.812.69 1.063 1.157.303.565.481 1.203.47 1.845-.018.906-.414 1.78-1.001 2.47a4.969 4.969 0 0 1-1.376 1.125 3.026 3.026 0 0 0 2.032-.375 3.282 3.282 0 0 0 1.282-1.44 3.961 3.961 0 0 0 .344-1.905 4.45 4.45 0 0 0-1.344-2.908 3.29 3.29 0 0 0 1.563-1.22c.321-.47.515-1.019.61-1.58a6.817 6.817 0 0 0 .046-1.702 4.21 4.21 0 0 0-.145-.864 1.91 1.91 0 0 0-.418-.762 1.51 1.51 0 0 0-1-.47zm65.692 1.212a9.633 9.633 0 0 0-1.409 4.41c-.146 2.234.49 4.44 1.225 6.554 1.01 2.906 2.221 5.752 3.798 8.393a33.922 33.922 0 0 0 4.104 5.512 83.152 83.152 0 0 1-2.88-5.145c-1.498-2.918-2.827-5.932-3.797-9.066-.701-2.268-1.215-4.61-1.286-6.983-.037-1.23.045-2.462.245-3.675zm-17.335.184a8.726 8.726 0 0 1-.735 2.174c-.522 1.058-1.266 2.013-2.205 2.726-.417.316-.87.584-1.348.796a4.452 4.452 0 0 0 2.94-.857c.834-.62 1.44-1.55 1.624-2.573a3.91 3.91 0 0 0-.276-2.266zm40.229.774a8.754 8.754 0 0 0-.802 3.985c.049 1.312.394 2.6.881 3.82a16.849 16.849 0 0 0 2.739 4.575c-.372-.985-.75-1.968-1.136-2.947-.698-1.773-1.425-3.556-1.719-5.438a12.275 12.275 0 0 1 .037-3.995zm-39.665 3.434c0 .662-.09 1.325-.264 1.964-.267.983-.74 1.916-1.418 2.675-.3.337-.64.64-1.01.898a3.844 3.844 0 0 0 2.35-1.213c.604-.663.964-1.552.95-2.449a3.376 3.376 0 0 0-.608-1.875zm1.803 2.164a6.54 6.54 0 0 1-.229 1.705c-.231.852-.641 1.662-1.23 2.32-.26.293-.556.555-.877.78a3.336 3.336 0 0 0 2.04-1.053 3.127 3.127 0 0 0 .824-2.124 2.932 2.932 0 0 0-.528-1.628zm1.396 2.454c0 .546-.074 1.092-.217 1.618-.22.81-.61 1.578-1.168 2.203a4.837 4.837 0 0 1-.833.74 3.167 3.167 0 0 0 1.936-1 2.969 2.969 0 0 0 .783-2.016 2.778 2.778 0 0 0-.501-1.545zm1.291 2.1a5.324 5.324 0 0 1-.306 1.367 4.677 4.677 0 0 1-1.163 1.795c-.232.219-.49.41-.766.57a2.716 2.716 0 0 0 1.729-.71c.466-.428.774-1.032.82-1.664.033-.47-.078-.95-.314-1.357zm32.78.62c.638.278 1.23.66 1.746 1.128.733.667 1.3 1.493 1.87 2.303.316.448.634.894.956 1.337a8.765 8.765 0 0 0-1.204-2.499c-.39-.56-.852-1.08-1.408-1.476a4.553 4.553 0 0 0-1.96-.792zm-31.541 1.55a4.643 4.643 0 0 1-.267 1.192 4.079 4.079 0 0 1-1.014 1.566c-.203.19-.428.358-.668.497.554-.02 1.099-.243 1.507-.619a2.22 2.22 0 0 0 .715-1.452 2.08 2.08 0 0 0-.273-1.183zm1.261 2.395a3.926 3.926 0 0 1-.395.953 3.445 3.445 0 0 1-1.07 1.156c-.197.13-.409.236-.63.316a2 2 0 0 0 1.345-.296c.392-.252.692-.652.805-1.105a1.757 1.757 0 0 0-.055-1.024zm1.098 2.045a3.032 3.032 0 0 1-.306.736 2.666 2.666 0 0 1-.828.894c-.152.1-.315.182-.486.245.36.05.735-.033 1.04-.23a1.45 1.45 0 0 0 .623-.853c.065-.26.05-.54-.043-.792zm1.252 1.805c-.044.168-.111.33-.199.481a1.74 1.74 0 0 1-.54.584c-.1.065-.206.119-.317.16.234.032.48-.022.678-.15a.946.946 0 0 0 .406-.558.887.887 0 0 0-.028-.517zm.82 1.505c-.04.15-.1.293-.177.427a1.544 1.544 0 0 1-.48.518 1.364 1.364 0 0 1-.281.141.896.896 0 0 0 .602-.133.84.84 0 0 0 .36-.494.786.786 0 0 0-.025-.46zm.758 1.155a1.492 1.492 0 0 1-.15.363 1.31 1.31 0 0 1-.407.439c-.075.049-.155.09-.239.12a.76.76 0 0 0 .51-.112.712.712 0 0 0 .307-.42.668.668 0 0 0-.02-.39zm.992 1.094c-.03.112-.074.22-.132.32-.089.153-.21.288-.358.386a1.026 1.026 0 0 1-.21.106.669.669 0 0 0 .45-.1.628.628 0 0 0 .269-.369.587.587 0 0 0-.019-.343zm-1.755 4.898a28.355 28.355 0 0 1-4.104 10.659 10.283 10.283 0 0 0 2.45-2.573c1.038-1.56 1.635-3.4 1.777-5.268.071-.94.03-1.888-.123-2.818zm16.54.184c.171 1.154.212 2.328.122 3.492-.173 2.222-.824 4.388-1.715 6.431a28.22 28.22 0 0 1-1.9 3.614c.082.006.164.006.246 0 .558-.039 1.072-.346 1.461-.75.39-.402.669-.897.928-1.394.919-1.763 1.643-3.656 1.837-5.635.193-1.96-.15-3.972-.98-5.758zm-19.06 1.597c.016.19.069.377.154.548.133.266.344.49.455.765.108.267.115.573.019.844a.785.785 0 0 0 .378-.627.957.957 0 0 0-.065-.379 1.777 1.777 0 0 0-.18-.341 3.148 3.148 0 0 0-.76-.81zm-6.952.09c.097.322.257.625.468.888.328.409.774.716 1.069 1.15.285.418.411.943.347 1.446.329-.305.49-.779.417-1.221a1.683 1.683 0 0 0-.253-.628 3.133 3.133 0 0 0-.436-.522 5.55 5.55 0 0 0-1.612-1.113zm-2.552.33c.153.3.363.57.616.792.394.346.887.57 1.253.946.354.363.57.858.595 1.364.27-.358.347-.853.198-1.276a1.685 1.685 0 0 0-.36-.574 3.133 3.133 0 0 0-.52-.437 5.548 5.548 0 0 0-1.782-.814zm5.457.02a2.4 2.4 0 0 0 .385.82c.28.383.67.68.918 1.084.24.39.331.869.252 1.32.31-.261.477-.683.429-1.085-.025-.204-.1-.4-.203-.578a2.837 2.837 0 0 0-.372-.49 5.015 5.015 0 0 0-1.41-1.072zm2.473.037c.02.232.083.46.187.668.161.324.418.597.554.932.132.325.14.698.023 1.028a.957.957 0 0 0 .46-.764 1.172 1.172 0 0 0-.08-.461 2.17 2.17 0 0 0-.218-.417 3.83 3.83 0 0 0-.926-.986zm-10.883.254c.213.417.506.793.858 1.102.55.48 1.236.795 1.746 1.317a2.95 2.95 0 0 1 .827 1.9 1.93 1.93 0 0 0 .276-1.777 2.343 2.343 0 0 0-.5-.8 4.367 4.367 0 0 0-.726-.609 7.728 7.728 0 0 0-2.48-1.133zm-1.51 2.15c.192.201.423.366.675.482.394.18.838.242 1.217.452.366.204.654.545.793.94.13-.347.073-.758-.145-1.057a1.39 1.39 0 0 0-.42-.37 2.589 2.589 0 0 0-.516-.223 4.587 4.587 0 0 0-1.604-.224zm-.015 1.883a2.786 2.786 0 0 0-.503.032c.132.11.286.196.45.25.256.084.534.091.782.195.24.1.441.291.555.526a.711.711 0 0 0-.163-.643.863.863 0 0 0-.285-.2 1.615 1.615 0 0 0-.334-.102 2.845 2.845 0 0 0-.502-.058zm-22.731 1.143a4.677 4.677 0 0 1-1.593 1.04c-.619.243-1.28.35-1.93.49-.484.106-.986.23-1.47.123a1.6 1.6 0 0 1-.98-.673c.067.48.31.934.674 1.256.309.273.7.448 1.106.517.406.069.828.031 1.222-.089.573-.175 1.082-.521 1.53-.919a7.258 7.258 0 0 0 1.44-1.745zm23.478.578a1.102 1.102 0 0 0-.241.023c-.23.043-.451.127-.651.247.114.036.235.05.354.042.186-.014.366-.082.553-.081.18 0 .359.07.493.19a.492.492 0 0 0-.274-.368.597.597 0 0 0-.234-.053zm.015 1.47a.71.71 0 0 0-.16.015 1.306 1.306 0 0 0-.43.164.625.625 0 0 0 .234.027c.123-.009.242-.054.366-.053.119 0 .237.046.326.126a.326.326 0 0 0-.181-.244.393.393 0 0 0-.155-.035zm-24.136.465a3.387 3.387 0 0 1-1.38.769.96.96 0 0 0 .769.045.954.954 0 0 0 .61-.814zm.643.856a4.587 4.587 0 0 1-1.869 1.041 1.3 1.3 0 0 0 1.042.061 1.29 1.29 0 0 0 .574-.43 1.29 1.29 0 0 0 .253-.672zm23.277.55a10.959 10.959 0 0 1-2.267 1.9c-2.539 1.598-5.602 2.083-8.576 2.48-1.824.245-3.652.47-5.482.675 1.278.193 2.567.305 3.859.336 2.815.069 5.667-.256 8.3-1.256 1.167-.442 2.315-1.04 3.124-1.99a4.797 4.797 0 0 0 1.042-2.144zm13.629.032a11.507 11.507 0 0 0-2.634 3.185c-.771 1.378-1.258 2.96-1.103 4.533.097.985.444 1.938.944 2.792.5.855 1.152 1.614 1.874 2.292a13.835 13.835 0 0 0 3.491 2.39 37.422 37.422 0 0 1-2.572-3.186c-.96-1.333-1.855-2.784-2.083-4.41-.239-1.706.279-3.425.92-5.024.35-.874.737-1.732 1.163-2.572zm-36.348.89a3.392 3.392 0 0 1-1.38.769.96.96 0 0 0 .769.045.954.954 0 0 0 .61-.815zm-10.966.655a3.349 3.349 0 0 0-1.17.139c.352.121.7.254 1.042.398.573.242 1.142.522 1.592.95.497.47.822 1.097 1.042 1.745.24.709.365 1.457.367 2.206.264-.71.359-1.483.276-2.236-.071-.642-.274-1.277-.643-1.807a3.319 3.319 0 0 0-2.506-1.395zm60.484.935c-.081.207-.092.44-.032.654.06.214.192.407.369.541.14.107.308.176.482.213a1.9 1.9 0 0 0 .528.032 1.59 1.59 0 0 0 .639-.162.888.888 0 0 0 .433-.481.729.729 0 0 0-.092-.643.987.987 0 0 1-.428.46c-.196.104-.422.14-.644.152-.284.016-.582-.007-.826-.153a.925.925 0 0 1-.43-.613zm-61.378 1.27c.291.4.54.83.74 1.283.195.44.345.903.395 1.381a3.453 3.453 0 0 1-.444 2.073 2.41 2.41 0 0 0 1.086-.888c.177-.267.3-.571.345-.889a2.19 2.19 0 0 0-.115-1.028 2.923 2.923 0 0 0-.527-.896 3.531 3.531 0 0 0-1.48-1.037zm60.744.82a.936.936 0 0 0-.035.647c.066.212.21.403.404.535.155.106.338.175.528.212.19.037.386.043.58.03.241-.014.484-.058.698-.16.214-.102.398-.269.476-.476a.664.664 0 0 0-.101-.637 1.025 1.025 0 0 1-.47.455c-.214.104-.461.14-.704.152-.312.015-.638-.007-.906-.152a.922.922 0 0 1-.47-.606zm-42.305 1.668a1.83 1.83 0 0 0-.277.01c.172.134.346.267.52.398.392.292.807.582 1.287.673.48.092.996-.034 1.378-.336a1.838 1.838 0 0 1-1.5-.123c-.213-.119-.4-.28-.613-.398a1.806 1.806 0 0 0-.795-.224zm41.382.24c-.08.206-.092.44-.031.653.06.214.191.407.368.541.141.107.309.176.482.214a1.9 1.9 0 0 0 .529.031 1.59 1.59 0 0 0 .638-.162.888.888 0 0 0 .434-.481.729.729 0 0 0-.092-.643.988.988 0 0 1-.429.46c-.196.104-.421.14-.643.152-.284.016-.583-.007-.827-.153a.925.925 0 0 1-.429-.613zm-.184 2.3a.744.744 0 0 0 .241.856.876.876 0 0 0 .346.153c.124.027.252.032.378.023.159-.01.318-.042.458-.116a.637.637 0 0 0 .31-.345.523.523 0 0 0-.065-.46.708.708 0 0 1-.307.328c-.14.076-.302.101-.461.11-.204.011-.418-.005-.593-.11a.663.663 0 0 1-.307-.439zm-.211 1.86a.619.619 0 0 0-.02.39.619.619 0 0 0 .22.321.725.725 0 0 0 .288.128c.103.022.21.026.315.019a.949.949 0 0 0 .38-.097.53.53 0 0 0 .26-.287.435.435 0 0 0-.056-.383.589.589 0 0 1-.256.274.913.913 0 0 1-.383.091c-.17.01-.347-.005-.492-.091a.55.55 0 0 1-.256-.365zm-43.227.523a2.899 2.899 0 0 0-.704.09c-.835.19-1.655.538-2.27 1.135a3.475 3.475 0 0 0-.987 1.825c.71-.648 1.47-1.243 2.27-1.776.231-.155.467-.304.722-.416a1.91 1.91 0 0 1 .808-.177 1.47 1.47 0 0 1 1.234.74c.087-.216.095-.464.024-.687a1.027 1.027 0 0 0-.419-.546c-.2-.128-.44-.183-.678-.188zm45.585 2.853a41.595 41.595 0 0 1 2.369 5.23c.786 2.114 1.403 4.313 1.53 6.564a15.49 15.49 0 0 1-.396 4.442c.502-.5.893-1.112 1.136-1.777.337-.924.385-1.929.345-2.911a17.58 17.58 0 0 0-1.924-7.255 18.127 18.127 0 0 0-3.06-4.293zm-54.074 1.329a6.861 6.861 0 0 0-1.564.191c.668.121 1.319.292 1.936.508.6.21 1.173.466 1.65.796.713.49 1.195 1.142 1.357 1.831.315-.406.45-.878.385-1.337a1.698 1.698 0 0 0-.414-.881c-.254-.289-.62-.527-1.036-.702a5.313 5.313 0 0 0-1.362-.35 6.97 6.97 0 0 0-.952-.056zm-1.478 1.282a2.589 2.589 0 0 0-.738.107c-.316.093-.606.24-.862.419a2.88 2.88 0 0 0-.996 1.18c.384-.232.799-.43 1.233-.59a5.144 5.144 0 0 1 1.328-.314 3.892 3.892 0 0 1 1.993.354 2.047 2.047 0 0 0-.854-.866 2.331 2.331 0 0 0-1.104-.29zm56.736 3.31c.281 1.019.48 2.06.592 3.11.167 1.55.145 3.142-.296 4.638a8.548 8.548 0 0 1-.987 2.172 6.42 6.42 0 0 0 1.876-2.22 5.697 5.697 0 0 0 .64-2.518c.012-1.11-.34-2.193-.789-3.207-.3-.68-.647-1.34-1.036-1.974zm-26.648 3.307a6.481 6.481 0 0 1-.444 2.566 6.97 6.97 0 0 1-1.727 2.517 7.517 7.517 0 0 1-1.974 1.332c.76.352 1.69.315 2.418-.098a3.168 3.168 0 0 0 1.073-1.041c.275-.422.465-.894.605-1.377a7.407 7.407 0 0 0 .05-3.899zm25.677 7.715c-.033.21-.01.429.065.627.043.114.104.221.184.313.08.09.18.165.294.209a.75.75 0 0 0 .329.045.842.842 0 0 0 .455-.18 1.202 1.202 0 0 1-.707-.216 1.605 1.605 0 0 1-.354-.355 2.445 2.445 0 0 1-.266-.443zm-1.38.442c-.047.306-.015.625.096.914.062.166.15.322.268.455.117.133.263.242.428.306.152.059.318.078.48.065.24-.019.474-.111.663-.262a1.752 1.752 0 0 1-1.03-.315c-.201-.14-.37-.322-.517-.517a3.557 3.557 0 0 1-.387-.646zm-1.767.368c-.048.306-.016.625.095.914.063.165.15.322.268.455.117.133.263.241.428.305.152.059.318.08.48.066.24-.02.475-.112.663-.263a1.752 1.752 0 0 1-1.03-.314c-.2-.14-.37-.322-.517-.517a3.56 3.56 0 0 1-.387-.646zm-4.955.523c-.048.306-.015.624.095.914.063.165.151.322.268.455.117.133.263.242.429.306.151.058.317.079.48.066.24-.02.474-.113.662-.263a1.752 1.752 0 0 1-1.03-.315c-.2-.14-.37-.322-.517-.517a3.56 3.56 0 0 1-.387-.646zm2.827 0c-.049.306-.016.624.094.914.063.165.151.322.268.455.117.133.264.242.429.306.152.058.317.079.48.066.24-.02.474-.113.663-.263a1.752 1.752 0 0 1-1.03-.315c-.2-.14-.37-.322-.517-.517a3.56 3.56 0 0 1-.387-.646zm-4.904.376c-.039.248-.012.507.077.742.052.134.123.262.218.37a.904.904 0 0 0 .348.248.886.886 0 0 0 .39.053.996.996 0 0 0 .538-.214 1.429 1.429 0 0 1-.837-.255 1.902 1.902 0 0 1-.42-.42 2.891 2.891 0 0 1-.314-.524zm-21.975.214c.21.536.38 1.109.506 1.706.123.58.205 1.189.198 1.81-.01.926-.221 1.866-.596 2.643.397-.202.76-.58 1.028-1.072.18-.331.319-.715.39-1.121.076-.442.073-.904.006-1.335a4.482 4.482 0 0 0-.362-1.192c-.29-.629-.699-1.13-1.17-1.44zm20.476.292c-.04.248-.013.507.076.742.051.134.123.262.218.37a.904.904 0 0 0 .348.248.886.886 0 0 0 .39.053.994.994 0 0 0 .538-.214 1.427 1.427 0 0 1-.837-.255 1.902 1.902 0 0 1-.419-.42 2.891 2.891 0 0 1-.314-.524zm-10.05 6.329c-.443.02-.883.171-1.284.371a5.54 5.54 0 0 0-2.22 2.024 6.007 6.007 0 0 1 2.22-1.135c.872-.235 1.818-.264 2.665.05a3.48 3.48 0 0 1 1.332.888 3.884 3.884 0 0 0-.987-1.481c-.36-.336-.797-.607-1.283-.69a2.045 2.045 0 0 0-.443-.027z" transform="translate(-7.923 -79.447)"/></svg>