<svg xmlns="http://www.w3.org/2000/svg" version="1.0" width="800" height="800"><defs><filter id="f"><feGaussianBlur stdDeviation=".421"/></filter><filter height="1.234" y="-.117" width="1.163" x="-.081" id="j"><feGaussianBlur stdDeviation="1.559"/></filter><filter id="i"><feGaussianBlur stdDeviation=".421"/></filter><filter id="k"><feGaussianBlur stdDeviation=".421"/></filter><filter id="h"><feGaussianBlur stdDeviation=".421"/></filter><filter id="g"><feGaussianBlur stdDeviation=".421"/></filter><filter height="1.234" y="-.117" width="1.091" x="-.046" id="l"><feGaussianBlur stdDeviation=".145"/></filter><filter id="c"><feGaussianBlur stdDeviation=".421"/></filter><filter id="d"><feGaussianBlur stdDeviation=".421"/></filter><filter height="1.261" y="-.13" width="1.081" x="-.041" id="e"><feGaussianBlur stdDeviation=".421"/></filter><filter id="b"><feGaussianBlur stdDeviation=".356"/></filter><linearGradient id="a"><stop style="stop-color:#000;stop-opacity:1" offset="0"/><stop style="stop-color:#000;stop-opacity:0" offset="1"/></linearGradient></defs><g transform="translate(27.953 -126.181)" style="opacity:1;display:inline"><path d="M372.047 152.901h334.43l-29.142 462.095C645.96 810.069 524.881 899.469 372.031 899.47c-152.85 0-273.896-89.41-305.272-284.483L37.62 152.893h334.428" style="opacity:1;fill:#fff;fill-rule:evenodd;stroke:#000;stroke-width:9.71399975;stroke-linecap:butt;stroke-linejoin:miter;stroke-miterlimit:4;stroke-dasharray:none;stroke-opacity:1"/><path d="M62.554 529.59c2.903 101.695 26.093 165.012 55.852 230.11l44.68 1.116c25.536.441 35.202-20.375 69.816-20.106 26.572.252 41.356 18.673 68.139 18.43 29.821.847 57.42-18.935 80.426-17.872 25.04 1.072 41 14.646 65.347 16.197 20.835-2.17 47.526-17.151 75.4-16.197 31.125.585 38.696 29.804 98.298 21.224 46.88-59.378 55.017-147.052 62.275-232.622l-620.233-.28z" style="fill:#3686da;fill-opacity:1;fill-rule:evenodd;stroke:#000;stroke-width:1px;stroke-linecap:butt;stroke-linejoin:miter;stroke-opacity:1"/><path d="M248.214 355.398c-7.287 14.643-15.689 29.286-25.357 43.928" style="fill:none;fill-rule:evenodd;stroke:#000;stroke-width:1px;stroke-linecap:butt;stroke-linejoin:miter;stroke-opacity:1"/><path d="M373.571 154.017v375.778M682.857 529.505H62.143" style="fill:none;fill-rule:evenodd;stroke:#000;stroke-width:4;stroke-linecap:butt;stroke-linejoin:miter;stroke-miterlimit:4;stroke-dasharray:none;stroke-opacity:1"/><rect width="157.624" height="178.883" ry="0" x="373.74" y="349.505" style="opacity:1;fill:#000;fill-opacity:1;stroke:none;stroke-width:4;stroke-linecap:butt;stroke-linejoin:bevel;stroke-miterlimit:4;stroke-dasharray:none;stroke-opacity:1"/><path d="m530 154.38 174.218.79-14.177 195.05H530V154.38z" style="fill:#000;fill-opacity:1;stroke:none;stroke-width:4;stroke-linecap:butt;stroke-linejoin:bevel;stroke-miterlimit:4;stroke-opacity:1"/><path d="M201.429 355.576c-15.582 20.624-32.262 39.048-48.75 57.858M184.821 328.255l-63.214 42.679M169.464 302.898c-16.278 11.112-34.498 15.011-54.107 13.75M173.214 281.47c-20.006-3.441-41.39-4.473-57.857-14.108M180.179 259.505c-18.535-11.968-33.524-25.064-41.608-40.357" style="fill:none;fill-rule:evenodd;stroke:#000;stroke-width:1px;stroke-linecap:butt;stroke-linejoin:miter;stroke-opacity:1"/><path d="m259.104 348.033-25.254 45.962c.618 5.18 3.978 8.166 14.648 5.304 14.37-17.27 24.074-36.871 34.597-56.064" style="fill:red;fill-rule:evenodd;stroke:#000;stroke-width:1px;stroke-linecap:butt;stroke-linejoin:miter;stroke-opacity:1"/><path d="M271.071 347.54c-8.57 14.815-14.65 30.564-26.607 44.108" style="fill:none;fill-rule:evenodd;stroke:#000;stroke-width:1px;stroke-linecap:butt;stroke-linejoin:miter;stroke-opacity:1"/><path d="m298.5 333.891-13.637 37.88c-1.535 3.9-.248 5.474 9.596 0l28.285-48.234M183.09 331.618c-33.913 30.025-63.298 61.895-102.025 89.904-12.8 9.257 11.653 16.583 24.243 15.405 43.31-23.538 64.367-64.876 95.712-97.985" style="fill:red;fill-rule:evenodd;stroke:#000;stroke-width:1px;stroke-linecap:butt;stroke-linejoin:miter;stroke-opacity:1"/><path d="M190.179 338.255c-27.558 31.503-57.443 60.163-89.286 86.429" style="fill:none;fill-rule:evenodd;stroke:#000;stroke-width:1px;stroke-linecap:butt;stroke-linejoin:miter;stroke-opacity:1"/><path d="M179.05 307.375c-32.705 14.992-64.942 25.305-96.975 33.587-11.431 8.458-.953 21.376 10.606 21.971 34.502 1.777 65.83-21.937 92.43-46.214" style="fill:red;fill-rule:evenodd;stroke:#000;stroke-width:1px;stroke-linecap:butt;stroke-linejoin:miter;stroke-opacity:1"/><path d="M178.036 316.826c-28.757 16.738-57.732 28.023-86.965 32.858" style="fill:none;fill-rule:evenodd;stroke:#000;stroke-width:1px;stroke-linecap:butt;stroke-linejoin:miter;stroke-opacity:1"/><path d="M169.2 282.12c-34.32-1.836-69.132-3.55-91.67-8.333-5.87 6.828-1.215 14.39 7.323 22.223 11.483 8.805 47.195 8.17 84.095 7.072" style="fill:red;fill-rule:evenodd;stroke:#000;stroke-width:1px;stroke-linecap:butt;stroke-linejoin:miter;stroke-opacity:1"/><path d="M176.02 291.465c-32.165 5.313-62.708 5.175-89.652-7.071" style="fill:none;fill-rule:evenodd;stroke:#000;stroke-width:1px;stroke-linecap:butt;stroke-linejoin:miter;stroke-opacity:1"/><path d="M197.232 246.513c-10.577-16.39-21.63-32.662-24.37-51.013-1.786-11.968-17.72 8.965-18.056 19.193-.643 17.285 16.744 30.755 33.082 44.447" style="fill:red;fill-rule:evenodd;stroke:#000;stroke-width:1px;stroke-linecap:butt;stroke-linejoin:miter;stroke-opacity:1"/><path d="M188.899 246.513c-11.104-11.4-21.686-22.997-22.981-38.133" style="fill:none;fill-rule:evenodd;stroke:#000;stroke-width:1px;stroke-linecap:butt;stroke-linejoin:miter;stroke-opacity:1"/><path d="M217.94 351.316c-21.892 26.919-41.854 55.446-67.427 79.297 3.395 4.205 7.213 8.15 19.193 7.071 35.315-21.937 56.089-54.781 75.509-88.64" style="fill:red;fill-rule:evenodd;stroke:#000;stroke-width:1px;stroke-linecap:butt;stroke-linejoin:miter;stroke-opacity:1"/><path d="M233.75 347.898c-19.837 28.372-40.725 55.343-64.821 78.036" style="fill:none;fill-rule:evenodd;stroke:#000;stroke-width:1px;stroke-linecap:butt;stroke-linejoin:miter;stroke-opacity:1"/><path d="M173.494 260.655c-33.882-16.534-57.69-40.531-83.212-62.882-8.077 1.042-7.526 16.138-8.712 26.264 20.37 28.426 52.192 42.971 83.337 58.336" style="fill:red;fill-rule:evenodd;stroke:#000;stroke-width:1px;stroke-linecap:butt;stroke-linejoin:miter;stroke-opacity:1"/><path d="M177.787 274.545c-33.842-13.896-61.99-33.743-85.358-58.59" style="fill:none;fill-rule:evenodd;stroke:#000;stroke-width:1px;stroke-linecap:butt;stroke-linejoin:miter;stroke-opacity:1"/><path d="M313.929 281.29c-31.02 8.098-72.134 24.99-75 20-4.043-7.036-.68-23.667 6.25-32.32-2.638-9.712-5.066-19.591-3.036-33.036-8.02 2.005-14.836 5.615-20 11.428-6.185-8.404-3.931-19.514-3.929-29.643-13.382 3.58-18.241 13.716-19.285 26.786-7.5-5.963-15-6.43-22.5-7.857-.006 6.755-2.431 14.17 7.5 18.214-9.136-2.538-16.208-2.324-22.5-1.071 1.56 9.973 4.414 17.361 10.714 17.857-11.334-.548-17.103 1.687-22.857 3.928 6.706 6.192 12.537 15.008 22.857 10.358-12.538 4.86-17.317 14.03-21.429 23.571 9.762.247 19.524-.447 29.286-6.786-14.033 6.004-21.79 15.43-25.357 27.143 17.784 4.745 22.81-2.206 29.643-7.5-10.397 9.212-17.5 18.895-14.643 30 8.69.964 17.38-5.44 26.071-13.928-7.107 10.238-6.35 20.476-6.071 30.714 12.251-5.504 20.832-12.477 23.571-21.786-3.113 8.317-2.705 15.839-1.071 23.214 11.634-4.753 17.63-12.639 20.714-22.142-2.015 8.753-.364 15.412 4.286 20.357 7.571-3.857 11.109-11.748 15-19.286-.68 7.55-1.586 15.554 1.428 15.714 16.331-7.19 14.005-12.945 19.286-19.285 1.301 3.505 1.348 7.763 7.143 8.571 6.97-5.324 6.985-14.127 8.571-22.143.057 5.6-.42 12.271 1.429 14.286 13.61-5.622 13.213-12.41 16.071-18.929-.172 5.505-1.043 11.127 4.286 15.715l7.143-17.143c-1.72 11.19-2.683 22.38-2.5 33.571 9.053-8.087 18.707-16.328 18.571-25.357l11.786-25.357" style="fill:red;fill-rule:evenodd;stroke:#000;stroke-width:2;stroke-linecap:butt;stroke-linejoin:miter;stroke-miterlimit:4;stroke-dasharray:none;stroke-opacity:1"/><path d="M208.929 238.612c1.406-5.578 2.28-11.394 5.714-16.071M282.5 337.72c-1.508 3.63-3.286 7.261-2.5 10.892M296.071 329.684c.906 1.428-1.555 11.25-2.142 11.25M190.714 250.755c-11.817-8.518-11.785-10.536-11.785-10.536" style="fill:none;fill-rule:evenodd;stroke:#000;stroke-width:1px;stroke-linecap:butt;stroke-linejoin:miter;stroke-opacity:1"/><path d="M184.196 254.237c-7.034-3.422-6.407-10.18-6.696-16.16" style="fill:none;fill-rule:evenodd;stroke:#fff;stroke-width:1.5;stroke-linecap:butt;stroke-linejoin:miter;stroke-miterlimit:4;stroke-dasharray:none;stroke-opacity:1;filter:url(#b)"/><path d="M180.357 265.22c-2.767 1.695-15.462-8.289-14.821-8.93" style="fill:none;fill-rule:evenodd;stroke:#000;stroke-width:1px;stroke-linecap:butt;stroke-linejoin:miter;stroke-opacity:1"/><path d="M173.214 270.398c-7.495-.79-8.351-9.703-10.714-16.072" style="fill:none;fill-rule:evenodd;stroke:#fff;stroke-width:2;stroke-linecap:butt;stroke-linejoin:miter;stroke-miterlimit:4;stroke-dasharray:none;stroke-opacity:1;filter:url(#c)"/><path d="M173.214 279.862c-6.26.413-11.594-.715-16.428-2.678" style="fill:none;fill-rule:evenodd;stroke:#000;stroke-width:1px;stroke-linecap:butt;stroke-linejoin:miter;stroke-opacity:1"/><path d="M170.893 285.22c-9.964 2.757-13.577-5.964-19.732-9.554" style="fill:none;fill-rule:evenodd;stroke:#fff;stroke-width:2;stroke-linecap:butt;stroke-linejoin:miter;stroke-miterlimit:4;stroke-dasharray:none;stroke-opacity:1;filter:url(#d)"/><path d="M173.393 296.29c-5.238 1.849-10.476 4.764-15.714 9.465" style="fill:none;fill-rule:evenodd;stroke:#000;stroke-width:1px;stroke-linecap:butt;stroke-linejoin:miter;stroke-opacity:1"/><path d="M176.964 302.005c-7.761 3.065-15.347 6.968-24.018 5.714 3.713-11.604 11.308-14.177 18.304-20.714" style="fill:none;fill-rule:evenodd;stroke:#fff;stroke-width:2;stroke-linecap:butt;stroke-linejoin:miter;stroke-miterlimit:4;stroke-dasharray:none;stroke-opacity:1;filter:url(#e)"/><path d="M180.179 316.826c-5.206 4.36-10.57 7.776-16.25 9.286" style="fill:none;fill-rule:evenodd;stroke:#000;stroke-width:1px;stroke-linecap:butt;stroke-linejoin:miter;stroke-opacity:1"/><path d="M178.929 305.755c-13.518 3.21-18.164 13.772-22.679 23.214 8.64 3.893 18.115.287 26.518-7.946" style="fill:none;fill-rule:evenodd;stroke:#fff;stroke-width:2;stroke-linecap:butt;stroke-linejoin:miter;stroke-miterlimit:4;stroke-dasharray:none;stroke-opacity:1;filter:url(#f)"/><path d="M189.107 330.22c-6.052 4.57-10.004 9.84-13.214 15.356" style="fill:none;fill-rule:evenodd;stroke:#000;stroke-width:1px;stroke-linecap:butt;stroke-linejoin:miter;stroke-opacity:1"/><path d="M185.714 324.148c-9.658 6.835-14.98 18.323-14.732 26.428 8.917.042 15.307-6.77 22.59-13.035" style="fill:none;fill-rule:evenodd;stroke:#fff;stroke-width:2;stroke-linecap:butt;stroke-linejoin:miter;stroke-miterlimit:4;stroke-dasharray:none;stroke-opacity:1;filter:url(#g)"/><path d="M205 344.684c-4.778 4.031-8.257 9.361-10.179 16.25" style="fill:none;fill-rule:evenodd;stroke:#000;stroke-width:1px;stroke-linecap:butt;stroke-linejoin:miter;stroke-opacity:1"/><path d="M197.768 340.13c-4.455 6.438-7.201 14.016-6.25 25.625 7.969-4.761 16.01-9.422 20.268-19.286" style="fill:none;fill-rule:evenodd;stroke:#fff;stroke-width:2;stroke-linecap:butt;stroke-linejoin:miter;stroke-miterlimit:4;stroke-dasharray:none;stroke-opacity:1;filter:url(#h)"/><path d="M244.286 347.72c-2.533 1.606-6.381 14.106-5.179 14.106" style="fill:none;fill-rule:evenodd;stroke:#000;stroke-width:1px;stroke-linecap:butt;stroke-linejoin:miter;stroke-opacity:1"/><path d="M234.286 348.97c-.586 6.011-.963 11.845 3.393 17.856 4.775-4.48 8.962-10.235 12.321-16.607" style="fill:none;fill-rule:evenodd;stroke:#fff;stroke-width:2;stroke-linecap:butt;stroke-linejoin:miter;stroke-miterlimit:4;stroke-dasharray:none;stroke-opacity:1;filter:url(#i)"/><path d="M262.679 345.398c1.426.893-4.011 13.571-5.358 13.571" style="fill:none;fill-rule:evenodd;stroke:#000;stroke-width:1px;stroke-linecap:butt;stroke-linejoin:miter;stroke-opacity:1"/><path d="M254.107 349.684c-.586 6.012-1.766 7.47-.178 13.66 7.538-3.572 13.986-10.047 16.964-18.482" style="fill:none;fill-rule:evenodd;stroke:#fff;stroke-width:2;stroke-linecap:butt;stroke-linejoin:miter;stroke-miterlimit:4;stroke-dasharray:none;stroke-opacity:1;filter:url(#i)"/><path d="M319.643 294.862c-21.966 8.686-43.895 17.518-66.786 22.5-34.08 3.906-35.284-14.79-40-31.071 0 0 16.995 4.385 16.786-7.857-.215-12.622-11.429-7.143-11.429-7.143s-.77-19.925-7.143-20.715c-6.373-.789-11.428 17.5-11.428 17.5s-14.946-2.613-15 8.572c-.056 11.563 18.571 10 18.571 10-6.281 8.637 16.524 53.729 43.929 46.428 25.393.425 81.616-23.125 81.428-25M284.643 397.72 217.5 464.504l-13.571-4.286c-16.445-9.675-26.275-6.12-39.286-8.928-4.895 4.405-5.042 8.81-4.286 13.214l11.429-5 30 10.357c-15.477 2.646-33 4.836-40.357 9.286-2.096 0-8.43 20-6.072 18.571 1.956-1.185 9.643-8.214 9.643-8.214 19.08-6.78 19.877-.904 27.857 0-5.05 5.833-6.93 11.667-8.214 17.5l7.5 10.357 23.214-36.428 6.072 6.428c3.156-3.214 3.132-6.428 11.428-9.643L265 480.934l8.571 5.357c-.223-6.667-.94-13.334-6.785-20-10.596 3.88-21.19 1.64-31.786 2.143l76.071-65.715M292.5 219.862c-8.578.404-17.17.73-25.982-.268l-14.018-2.41s9.404 4.393 14.196 5.446c9.212 2.024 32.233 1.786 32.233 1.786l-2.947-4.732" style="fill:#ff0;fill-rule:evenodd;stroke:#000;stroke-width:1px;stroke-linecap:butt;stroke-linejoin:miter;stroke-opacity:1"/><path d="M283.125 198.344c-17.429-5.498-21.56 5.672-25.446 16.518 0 0 14.32-3.502 20.714-2.678 7.527 3.068 16.112 5.078 16.786 15-12.024 2.413-24.048-.957-36.072-3.572-1.214.304 17.86 15.595 21.607 15.714 3.748.12 32.5-4.885 32.5-5l-13.393-35" style="fill:#ff0;fill-rule:evenodd;stroke:#000;stroke-width:1px;stroke-linecap:butt;stroke-linejoin:miter;stroke-opacity:1"/><path d="m372.5 243.434-13.929-21.429 8.215-3.393c-9.29-4.046-15.598-3.823-27.857-21.428l8.928-8.393c-9.879-.672-16.87 2.09-29.286-1.965-4.209-2.431-8.233-4.987-16.607-4.642-8.112 2.663-13.435 9.79-19.285 16.071 8.385 10.344 22.65 15.419 26.964 33.214l2.5 9.643 8.571-5.536c5.75 10.702 12.26 21.785 16.25 31.608-15.497 1.436-27.241 4.481-29.464 11.607 1.433 30.83 44.375 61.605 38.571 68.571-5.814 6.979-10.284 14.965-19.642 19.286l-15 4.643c-13.06 13.779-38.731 20.91-43.572 30.357 40.29-7.204 30.114 11 31.072 31.071 16.078-33.332 37.303-41.668 60-42.857-.79 19.559-3.535 37.58-17.5 46.786-33.302-7.248-12.926 12.993-49.286 14.643l20.357 8.214c14.167-4.37 29.405-4.164 43.571-17.857l-12.142 19.286c-62.156 16.535-53.07 32.425-61.429 42.5 7.92 9.338 15.464 19.329 33.571 11.071-9.015-1.783-12.293-7.98-8.928-19.286 3.749-8.509 50.474-25.383 55.357-37.857-1.314 17.501-1.687 35.861-24.286 33.929 2.382 12.775 19.996 4.456 33.252 32.34" style="fill:red;fill-rule:evenodd;stroke:#000;stroke-width:1px;stroke-linecap:butt;stroke-linejoin:miter;stroke-opacity:1"/><path d="M303.036 386.29c0 .715-3.572 8.036-3.572 8.036l9.286-3.035M318.393 390.398l-2.143 6.071 8.214-3.75M339.464 382.72l-3.571 6.606 10.893-2.857" style="fill:none;fill-rule:evenodd;stroke:#000;stroke-width:1px;stroke-linecap:butt;stroke-linejoin:miter;stroke-opacity:1"/><path d="M306.976 221.626c13.83-6.744 33.105-23.493 47.622-27.262" style="fill:none;fill-rule:evenodd;stroke:#fff;stroke-width:3.465101;stroke-linecap:butt;stroke-linejoin:miter;stroke-miterlimit:4;stroke-dasharray:none;stroke-opacity:1;filter:url(#j)" transform="matrix(.9737 0 0 .9737 -16.465 178.868)"/><path d="m318.75 375.755-1.071 6.964 14.285-5M359.643 370.576l2.143 9.465 4.464-8.929M338.393 368.076c-.357 1.072.893 8.75.893 8.75l9.464-4.642M361.964 343.434c.179.714 1.25 11.428.893 10.714-.357-.714-8.75-8.929-8.75-8.929M363.214 320.755l.536 6.786-6.071-1.429M350.357 313.255c0 .714.714 7.321.714 7.321l-9.642-3.75M335.179 299.862l2.142 7.322-10-2.858M345.893 285.22l1.25 7.678-10.179-4.107M322.321 279.505l2.679 11.25-9.286-6.071M365.536 275.755l.357 5.893-9.107-5.536M358.214 260.22l.715 5.714-10.536-5.179M359.821 241.648c.715.714 2.143 7.143 2.143 7.143l-6.785-5M348.036 241.29c0 .715 1.071 10.18 1.071 10.18l-11.786-7.144M345.893 221.559c0 .357 1.875 7.589 1.875 7.589l-10.268-4.91M332.054 212.094l.892 5.715-8.482-2.679M330.714 227.451l.715 4.554-9.733-3.393" style="fill:none;fill-rule:evenodd;stroke:#000;stroke-width:1px;stroke-linecap:butt;stroke-linejoin:miter;stroke-opacity:1"/><path d="m319.286 202.184-16.965-4.643 6.25 10.357 10.715-5.714z" style="fill:#fff;fill-rule:evenodd;stroke:#000;stroke-width:1px;stroke-linecap:butt;stroke-linejoin:miter;stroke-opacity:1"/><path d="M318.75 201.826c-10.856-2.639-12.394-8.566-15.536-13.928" style="fill:none;fill-rule:evenodd;stroke:#000;stroke-width:1px;stroke-linecap:butt;stroke-linejoin:miter;stroke-opacity:1"/><path d="M310.536 202.809a1.16.982 0 1 1-2.322 0 1.16.982 0 1 1 2.322 0z" transform="matrix(-1.48285 -2.69982 1.7559 -.9644 410.234 1233.118)" style="opacity:1;fill:#000;fill-opacity:1;stroke:none;stroke-width:3.37391472;stroke-linecap:butt;stroke-linejoin:bevel;stroke-miterlimit:4;stroke-dasharray:none;stroke-opacity:1"/><path d="M225 348.79c-2.559.715-9.444 13.572-7.857 13.572" style="fill:none;fill-rule:evenodd;stroke:#000;stroke-width:1px;stroke-linecap:butt;stroke-linejoin:miter;stroke-opacity:1"/><path d="M215.179 347.898c-1.457 6.696-3.26 13.393-1.965 20.09 9.678-3.944 13.143-11.511 17.322-18.662" style="fill:none;fill-rule:evenodd;stroke:#fff;stroke-width:2;stroke-linecap:butt;stroke-linejoin:miter;stroke-miterlimit:4;stroke-dasharray:none;stroke-opacity:1;filter:url(#k)"/><path d="M228.758 762.048c11.64-5.47 24.75-.437 35.672 4.379 10.842 4.655 22.704 7.662 34.549 6.152 1.35 3.217-9.501 6.262-13.85 5.173-13.672.002-25.974-6.476-38.473-11.095-7.865-2.46-16.873-3.433-24.448.48l6.55-5.09zM356.062 768.08c4.59-2.943 10.259-2.561 15.471-2.977 4.514-.003 9.052-.114 13.55.136 3.55.535 5.228 4.113 8.289 5.576 1.983.938 3.242 2.198.536 3.152-2.542 1.976-5.356 4.118-7.984.894-3.2-2.846-6.777-5.794-11.393-4.952-7.064.128-14.298-.342-21.194 1.48-1.505.738-4.773 2.419-1.823.33 1.52-1.209 3.028-2.431 4.548-3.639zM425.5 767.317c4.398-.12 8.794-1.359 13.173-.262 5.832.638 11.524 2.32 16.79 4.849 5.813 1.174 12.221.458 17.28-2.788-1.731.892-6.385 3.78-6.294 3.464 3.141-2.419 6.999-4.167 10.662-5.235-4.69 3.621-9.85 6.865-15.417 8.944-5.352 1.448-11.39 1.554-16.34-1.21-7.861-3.272-16.71-4.515-25.112-2.878-3.057-.216 3.266-2.782 3.896-3.894l.68-.495.682-.495zM524.287 761.507c9.533-2.692 19.682.308 28.456 4.129 5.118 3.909 11.42 4.236 17.517 5.076 7.357 1.264 14.824 2.877 22.323 1.98-4.14 4.243-10.103 6.299-15.897 4.706-7.933-.817-15.722-2.63-23.645-3.52-8.557-4.81-17.903-9.037-27.967-8.472-3.057-.097-8.872 1.214-3.539-1.773.917-.709 1.826-1.428 2.752-2.126zM526.649 806.25c-4.992-.353-10.35.913-15.002-1.485-2.07-1.185-3.688-3.022-5.811-4.141-3.278-2.003-7.274-2.958-11.067-2.088-1.27.185-2.806.919-3.854 1.038 1.514-.805 2.908-1.823 4.464-2.549 1.012.035-1.182 3.798-1.37 4.342-2.107 2.055-4.472 1.612-7.233 2.697-2.411.014 1.329-1.92 2.049-2.622.796-.537 1.782-1.36.327-.393-1.042.533-2.14 1.73-3.288 1.593 1.325-1.845 3.129-3.39 4.942-4.774 5.616-4.055 13.396-5.8 19.902-2.907 4.001 2.151 7.28 6.008 12.022 6.51 2.436.122 4.871-.018 7.31-.148 1.275-.373 3.106.784 1.234 1.566l-4.625 3.36zM484.953 834.967c-6.346.74-14 4.074-19.753.302-2.15-3.21-8.355-4.09-9.9-3.128 2.224-.813 9.148-5.51 3.464-1.636-5.374 5.535-11.934 10.203-19.343 12.531-7.427 1.319 1.1-5.128 4.225-4.727 2.854-.22 7.516-2.38 2.516.287-2.429 1.366-4.237 2.675-.804.367 3.817-4.449 8.709-7.12 13.864-9.39 3.504-4.53 9.703-2.469 12.914 1.254 4.65 3.115 10.724.347 15.873-.055 2.948-.832 4.346-1.099 1.046 1.037l-4.102 3.158zM392.135 806.701c-5.606-.78-11.67.264-16.803-2.667-6.455-2.466-13.15-4.535-20.013-5.435-1.933-.438-6.285.469-6.626.45 1.79-.856 5.319-3.163 5.87-3.354-3.895 2.932-6.49 7.535-11.247 9.296-1.548.9-6.231 1.91-6.144.971 2.868-2.347 5.802-4.772 9.661-5.022-.037.366-5.965 3.606-5.22 3.024 3.453-3.207 6.275-7.407 10.928-9.012 7.792-2.943 16.075.11 23.578 2.492 5.364 1.685 10.55 4.56 16.355 4.113 1.726.233 5.849-.17 6.01.668l-6.349 4.476zM256.38 803.554c-6.347-4.201-14.008-6.048-21.512-4.554-6.727.52-12.97 3.71-19.771 3.377-4.206 1.21-15.163-2.346-10.7-7.171 5.496-5.304 9.302 4.335 15.584 2.406 8.248.401 15.825-3.672 24.037-3.725 5.483-.967 10.704.843 15.56 3.181 7.012 2.409-.87 4.348-3.198 6.486zM179.374 777.215c-9.68-.642-18.692 5.022-28.404 3.65-2.56-.928-9.611-2.795-4.42-5.216 3.543-4.498 7.816.25 11.981.5 9.173.619 17.731-4.213 26.913-3.806-1.371 2.215-4.218 3.083-6.07 4.872zM257.989 834.138c4.105 2.836 13.838.583 15.161 3.224-7.61 4.457 4.19-8.313 7.367-8.748 6.548-3.912 13.448.6 17.807 5.55 3.382 5.738 11.393 4.382 15.318 6.223-6.544 6.516-18.252 4.53-23.117-3.048-2.063-3.954-11.439-5.493-11.555-5.996 7.45-5.718-.365 3.296-2.69 5.407-6.408 6.109-16.087 4.984-23.7 2.264-1.685-2.293 4.45-3.29 5.409-4.876zM352.958 847.414c4.55 2.307 14.51 2.523 16.17 2.348-2.345 1.556-6.345 3.75-2.237.043 3.809-5.456 10.261-10.723 17.288-7.951 2.815 1.922 10.282 1.32 10.183 4.825-4.063 5.216-10.347 2.12-15.291.306-2.435-1.215-9.35-.258-4.073-2.632 5.579-3.59-2.784 5.293-4.747 6.53-4.899 3.842-11.525 4.703-17.393 2.874-3.433.244-8.267-2.482-2.703-4.423l2.803-1.92z" style="opacity:1;fill:#000;fill-opacity:1;stroke:#fff;stroke-width:2;stroke-linecap:butt;stroke-linejoin:bevel;stroke-miterlimit:4;stroke-dasharray:none;stroke-opacity:1"/><path d="M106.677 654.14c21.325-23.746 46.452-40.838 73.724-54.177l27.926-3.35c10.783-19.643 73.761-21.13 115.054-30.16 69.142-33.553 104.922-13.996 121.198 7.819-18.196 2.944-27.728 8.054-34.07 13.963 41.884 1.567 48.8 13.42 67.582 21.782 8.875-3.909 26.503-2.567 42.447-2.234l-11.73 15.638c18.637 3.964 37.425 6.864 57.528.559l60.879-39.096c8.473 24.263-4.428 47.597-30.16 70.373 19.085 29.518 18.446 53.12 7.819 73.724-29.544-34.446-58.917-69.35-111.704-41.33 2.499 6.48 13.313 15.732 24.575 25.133-17.412 6.488-36.449 3.223-55.293 1.117-4.142-7.447-6.545-14.894-20.665-22.34l-73.724.558c-20.908-4.254-32.408-13.212-48.033-20.107 16.756 8.564 35.087 17.128 50.267 25.692-9.78 25.171-31.688 22.625-51.384 25.133l-43.006-37.42-63.112 4.468-36.304 8.377c-12.945-.285-26.342-1.023-40.771-2.792l-7.261-7.82 2.792-13.962c-7.633 2.156-12.473-6.104-20.106-9.495l-4.468-10.053z" style="fill:#ff0;fill-rule:evenodd;stroke:#000;stroke-width:1px;stroke-linecap:butt;stroke-linejoin:miter;stroke-opacity:1"/><path d="M231.226 688.21c19.95 7.237 40.236 14.224 48.591 30.159 5.957-.741 11.915-6.8 17.873-13.404l-20.107-19.548-46.357 2.792z" style="fill:#ff0;fill-rule:evenodd;stroke:#000;stroke-width:1px;stroke-linecap:butt;stroke-linejoin:miter;stroke-opacity:1"/><path d="M203.3 629.565c24.897 14.865 28.535 34.285 11.729 58.086" style="fill:none;fill-rule:evenodd;stroke:#000;stroke-width:1px;stroke-linecap:butt;stroke-linejoin:miter;stroke-opacity:1"/><path d="M219.497 626.772c26.747 17.121 19.205 30.285 7.82 43.006" style="fill:none;fill-rule:evenodd;stroke:#000;stroke-width:1px;stroke-linecap:butt;stroke-linejoin:miter;stroke-opacity:1"/><path d="M240.72 650.788c20.93 18.736 2.777 22.583-5.584 30.16M165.321 663.076c17.818 5.407 30.735 12.544 23.458 26.809M137.395 673.13c20.363-1.316 30.742 12.344 45.799 18.989M245.189 636.826c1.483 1.09 2.966 1.567 4.448-.297l3.93-.262M266.413 635.709c4.68 1.277 6.63 5.285 16.755 1.117M385.935 644.086c-1.505 3.522-3.905 6.149-8.378 6.702M478.649 643.528c5.213 4.195 10.426 5.67 15.638 3.91M536.735 636.826c10.11 1.53 15.761 5.734 18.43 11.728M533.384 666.427c8.635-2.168 17.082-4.412 18.43-9.495M571.363 629.565c13.032-2.546 26.064-7.55 39.096-18.99M566.336 637.384c16.197-4.74 32.394-6.472 48.591-19.548M568.012 642.97c14.212-.782 29.652 2.526 39.654-12.288M566.895 653.581c6.246.75 12.285 1.191 15.605-2.448 9.315 1.336 10.76-.477 12.88-2.02M570.246 664.751c10.24 5.78 20.479 13.9 30.718 15.639M569.129 673.688l32.394 23.457M568.57 681.507l32.953 26.809" style="fill:none;fill-rule:evenodd;stroke:#000;stroke-width:1px;stroke-linecap:butt;stroke-linejoin:miter;stroke-opacity:1"/><path d="M159.177 630.123c2.637 5.971 7.65 9.178 16.197-2.792" style="fill:none;fill-rule:evenodd;stroke:#000;stroke-width:4;stroke-linecap:butt;stroke-linejoin:miter;stroke-miterlimit:4;stroke-dasharray:none;stroke-opacity:1"/><path d="M187.662 631.52a18.152 10.333 0 1 1-36.304 0 18.152 10.333 0 1 1 36.304 0z" style="opacity:1;fill:none;fill-opacity:1;stroke:#000;stroke-width:2;stroke-linecap:butt;stroke-linejoin:bevel;stroke-miterlimit:4;stroke-dasharray:none;stroke-opacity:1"/><path d="M208.327 597.73c7.546 5.212 18.524 10.425 13.404 15.638M226.758 589.91c6.83.782 15.13-.151 13.404 10.612M242.955 604.432c7.158 3.842 17.218 6.959 7.26 15.08M254.125 584.325c7.571 3.934 15.832 7.593 8.936 17.314 3.348 3.688 16.067 1.754 6.144 13.404M279.258 580.415c15.28 2.138 7.528 9.212 2.793 15.639M287.636 598.846c8.488 5.772 12.092 11.543 2.793 17.314M304.392 574.83c8.446 2.68 13.668 10.738-1.117 13.963M306.626 591.586c7.142 4.282 3.524 8.564.558 12.846M326.732 579.298c11.896 3.088 11.737 7.898 2.793 13.963M316.68 602.198c9.812 7.453 8.183 12.827 1.675 17.314M333.435 599.405c12.755 6.144 10.644 12.287 1.117 18.431M350.749 580.974c14.278 10.261 10.652 15.748 2.792 20.106M350.19 608.341c4.514 4.552 16.842 8.583.559 14.522M365.829 598.288c8.721 6.427 6.801 10.49 2.234 13.963M378.674 585.442c7.63 5.399 16.2 10.798 5.027 16.197M389.286 602.756c12.217 4.654 14.393 9.309 2.793 13.963M380.909 613.368c3.793 5.331 14.91 10.052 2.234 16.755M404.366 592.703c16.388 3.176 8.46 9.595 3.351 15.638M408.276 611.692c8.711 5.958 13.498 11.915 4.468 17.873M423.356 603.315c12.287 4.84 14.149 8.936 5.585 12.287M427.824 620.07c3.501 3.351 12.849 6.702 1.117 10.053M443.462 611.134c4.617 3.943 16.23 8.586 7.261 11.17M451.84 627.33c6.702 2.607 7.447 5.958 2.234 10.054M470.271 621.746l1.676 10.611M331.76 573.155h18.43M359.685 574.272l10.612.558M358.568 566.452c7.756-6.258 15.881-12.209 32.394-11.17M381.467 570.362c5.457-3.961 12.3-7.368 25.133-8.378M400.457 577.623c4.783-4.177 6.93-9.233 20.106-10.612M126.225 649.113l-5.585 6.144M260.827 666.985c3.91 1.118 9.495 8.937 9.495 8.937M275.349 659.725l9.495 11.17M296.572 686.534l16.756 8.377M304.392 680.39l9.495 10.053M313.328 677.039l8.378 7.819M329.525 700.497l23.458 8.377M339.578 691.002l16.756 6.702M363.036 683.182c7.633 3.826 15.266 6.136 22.9 1.118M404.366 681.507c.847 2.756 4.63 1.108 8.382-.493l10.608-.624M437.319 682.065c9.065-1.612 10.228-5.482 8.936-10.053M454.633 680.948l8.378-11.17M467.479 679.831l11.729-10.053M483.117 680.948l11.729-12.287M474.74 703.29h15.08M446.255 687.65l13.963-1.675" style="fill:none;fill-rule:evenodd;stroke:#000;stroke-width:1px;stroke-linecap:butt;stroke-linejoin:miter;stroke-opacity:1"/><g><path d="m325.045 214.46 8.482 3.08M327.634 200.755l7.723 2.723" style="fill:none;fill-rule:evenodd;stroke:#fff;stroke-width:1px;stroke-linecap:butt;stroke-linejoin:miter;stroke-opacity:1;filter:url(#l)" transform="translate(-2.679 13.527)"/></g><g><path d="m324.464 214.282 9.107 4.196" style="fill:none;fill-rule:evenodd;stroke:#fff;stroke-width:1px;stroke-linecap:butt;stroke-linejoin:miter;stroke-opacity:1;filter:url(#l)" transform="translate(13.571 9.42)"/></g><g><path d="m323.304 213.925 10.803 6.25" style="fill:none;fill-rule:evenodd;stroke:#fff;stroke-width:1px;stroke-linecap:butt;stroke-linejoin:miter;stroke-opacity:1;filter:url(#l)" transform="translate(14.464 29.955)"/></g><g><path d="m325.134 214.059 5.714 3.884" style="fill:none;fill-rule:evenodd;stroke:#fff;stroke-width:1px;stroke-linecap:butt;stroke-linejoin:miter;stroke-opacity:1;filter:url(#l)" transform="translate(30.536 29.42)"/></g><g><path d="m323.906 214.483 9.643 4.486" style="fill:none;fill-rule:evenodd;stroke:#fff;stroke-width:1px;stroke-linecap:butt;stroke-linejoin:miter;stroke-opacity:1;filter:url(#l)" transform="translate(25 45.848)"/></g><g><path d="m323.95 213.389 8.282 4.978" style="fill:none;fill-rule:evenodd;stroke:#fff;stroke-width:1px;stroke-linecap:butt;stroke-linejoin:miter;stroke-opacity:1;filter:url(#l)" transform="translate(33.393 62.277)"/></g><g><path d="m324.598 214.393 9.264 3.84" style="fill:none;fill-rule:evenodd;stroke:#fff;stroke-width:1px;stroke-linecap:butt;stroke-linejoin:miter;stroke-opacity:1;filter:url(#l)" transform="translate(12.857 73.705)"/></g><g><path d="m325.223 213.835 8.125 5.045" style="fill:none;fill-rule:evenodd;stroke:#fff;stroke-width:1px;stroke-linecap:butt;stroke-linejoin:miter;stroke-opacity:1;filter:url(#l)" transform="translate(-8.929 70.491)"/></g><g><path d="m325.022 214.215 9.22 2.7" style="fill:none;fill-rule:evenodd;stroke:#fff;stroke-width:1px;stroke-linecap:butt;stroke-linejoin:miter;stroke-opacity:1;filter:url(#l)" transform="translate(2.679 89.42)"/></g><g><path d="m325.134 214.282 6.607 1.964" style="fill:none;fill-rule:evenodd;stroke:#fff;stroke-width:1px;stroke-linecap:butt;stroke-linejoin:miter;stroke-opacity:1;filter:url(#l)" transform="translate(24.107 82.991)"/></g><g><path d="m324.42 213.88 8.794 4.107" style="fill:none;fill-rule:evenodd;stroke:#fff;stroke-width:1px;stroke-linecap:butt;stroke-linejoin:miter;stroke-opacity:1;filter:url(#l)" transform="translate(30.357 90.491)"/></g><g><path d="m324.42 214.416 8.973 3.348" style="fill:none;fill-rule:evenodd;stroke:#fff;stroke-width:1px;stroke-linecap:butt;stroke-linejoin:miter;stroke-opacity:1;filter:url(#l)" transform="translate(17.5 101.92)"/></g><g><path d="m326.784 215.199 5.553 1.46" style="fill:none;fill-rule:evenodd;stroke:#fff;stroke-width:1px;stroke-linecap:butt;stroke-linejoin:miter;stroke-opacity:1;filter:url(#l)" transform="matrix(.9737 0 0 .9737 39.785 115.832)"/></g><g><path d="m326.51 212.31 7.936 7.88" style="fill:none;fill-rule:evenodd;stroke:#fff;stroke-width:1px;stroke-linecap:butt;stroke-linejoin:miter;stroke-opacity:1;filter:url(#l)" transform="matrix(.9737 0 0 .9737 36.928 138.154)"/></g><g><path d="m329.535 211.623 1.977 8.337" style="fill:none;fill-rule:evenodd;stroke:#fff;stroke-width:1px;stroke-linecap:butt;stroke-linejoin:miter;stroke-opacity:1;filter:url(#l)" transform="matrix(.9737 0 0 .9737 39.428 164.582)"/></g><g><path d="m326.05 210.247 1.015 7.97" style="fill:none;fill-rule:evenodd;stroke:#fff;stroke-width:1px;stroke-linecap:butt;stroke-linejoin:miter;stroke-opacity:1;filter:url(#l)" transform="matrix(.9737 0 0 .9737 21.392 163.511)"/></g><g><path d="m326.028 218.82 1.037-6.013" style="fill:none;fill-rule:evenodd;stroke:#fff;stroke-width:1px;stroke-linecap:butt;stroke-linejoin:miter;stroke-opacity:1;filter:url(#l)" transform="matrix(.9737 0 0 .9737 1.214 168.868)"/></g><path d="m362.5 300.755 1.25 8.75-9.643-4.464M354.821 292.362l.893 7.857-6.964-2.143" style="fill:none;fill-rule:evenodd;stroke:#000;stroke-width:1px;stroke-linecap:butt;stroke-linejoin:miter;stroke-opacity:1"/></g></svg>