<svg xmlns="http://www.w3.org/2000/svg" width="651.61" height="706.79" viewBox="0 0 651.606 706.791"><path d="m5.8 5.5 23.22 432.9c.136 5.673.492 11.341 1.068 16.986 4.627 45.35 23.53 88.63 50.713 125.22 42.1 56.668 104.71 97.9 173.57 113.46a294.089 294.089 0 0 0 71.43 7.143 294.034 294.034 0 0 0 71.43-7.143c68.859-15.556 131.48-56.791 173.57-113.46 27.18-36.59 46.08-79.876 50.711-125.22.576-5.645.934-11.313 1.07-16.986l23.22-432.9h-640z" style="fill:#da121a;fill-rule:evenodd;stroke:#000;stroke-width:7;fill-opacity:1"/><path d="M325.8 5.5v695.71a294.034 294.034 0 0 0 71.43-7.143c68.859-15.556 131.48-56.791 173.57-113.46 27.18-36.59 46.08-79.876 50.711-125.22.576-5.645.934-11.313 1.07-16.986l23.22-432.9h-320z" style="fill:#fff;fill-rule:evenodd;stroke:#000;stroke-width:7"/><path style="fill:none;fill-rule:evenodd;stroke:#000;stroke-width:11" d="m5.8 5.5 23.22 432.9c.136 5.673.492 11.341 1.068 16.986 4.627 45.35 23.53 88.63 50.713 125.22 42.1 56.668 104.71 97.9 173.57 113.46a294.089 294.089 0 0 0 71.43 7.143 294.034 294.034 0 0 0 71.43-7.143c68.859-15.556 131.48-56.791 173.57-113.46 27.18-36.59 46.08-79.876 50.711-125.22.576-5.645.934-11.313 1.07-16.986l23.22-432.9h-640z"/><path style="fill:#fff;fill-rule:evenodd;stroke:#000;stroke-width:5" d="M296.19 31.81c-1.138.017-2.275.09-3.406.221-7.967.917-15.464 4.634-21.596 9.803-6.132 5.169-10.965 11.742-14.854 18.756-8.487 15.307-12.592 32.712-14.395 50.12-1.802 17.409-1.394 34.959-1.387 52.46.012 30.18-1.193 60.37-3.582 90.46a4327.933 4327.933 0 0 1-18.514-101.77c-3.811-22.47-7.455-45.1-7.342-67.887a207.327 207.327 0 0 1 4.252-40.736 34.65 34.65 0 0 0-13.422 2.029c-7.539 2.733-13.975 8.08-18.746 14.525-4.772 6.446-7.956 13.957-10.119 21.68-4.721 16.853-4.694 34.737-2.426 52.09 2.268 17.354 6.721 34.33 10.771 51.36a1136.52 1136.52 0 0 1 15.92 79.47 4350.065 4350.065 0 0 1-36.31-78.949c-9.313-20.801-18.503-41.797-24.1-63.891a207.292 207.292 0 0 1-6.08-40.502 34.662 34.662 0 0 0-12.488 5.322c-6.615 4.533-11.507 11.321-14.514 18.756-3.01 7.435-4.208 15.504-4.369 23.521-.353 17.498 4.148 34.807 10.688 51.04 6.54 16.234 15.1 31.56 23.283 47.03a1135.458 1135.458 0 0 1 23.402 46.857 3964.142 3964.142 0 0 1-25.879-24.2c-15.785-14.904-31.533-30.02-44.518-47.42a197.424 197.424 0 0 1-20.13-33.42 33.003 33.003 0 0 0-9.04 9.244c-4.166 6.404-5.992 14.161-5.924 21.801.069 7.639 1.958 15.181 4.742 22.295 6.076 15.524 16.352 29.11 28.03 41.01 11.678 11.898 24.803 22.26 37.648 32.887a1084.2 1084.2 0 0 1 38.457 33.389 3611.013 3611.013 0 0 1-35.09-17.447c-16.881-8.518-33.785-17.223-48.949-28.518a172.19 172.19 0 0 1-25.1-22.879 28.653 28.653 0 0 0-5.264 9.941c-1.892 6.37-1.494 13.293.457 19.645s5.398 12.168 9.484 17.408c8.929 11.449 20.883 20.236 33.588 27.26 12.705 7.03 26.24 12.413 39.6 18.09a942.814 942.814 0 0 1 47.13 21.576 3623.063 3623.063 0 0 1-37.828-7.545c-18.521-3.807-37.11-7.79-54.701-14.727a172.022 172.022 0 0 1-30.21-15.52 28.658 28.658 0 0 0-2.482 10.973c-.16 6.643 2.036 13.219 5.58 18.84s8.389 10.335 13.703 14.324c11.612 8.716 25.45 14.07 39.551 17.531 14.1 3.461 28.568 5.12 42.951 7.105a942.358 942.358 0 0 1 39.34 6.283c-16.02.078-32.04.052-48.05-.084-18.907-.16-37.918-.479-56.52-3.889a172.003 172.003 0 0 1-32.641-9.396 28.66 28.66 0 0 0-.316 11.246c1.125 6.549 4.549 12.577 9.111 17.408 4.563 4.831 10.228 8.52 16.213 11.408 13.08 6.31 27.686 8.893 42.19 9.566 14.504.674 29.02-.489 43.516-1.318a941.104 941.104 0 0 1 80.05-1.162l.631-1.119-3.949-33.25c-3.133.059-6.266.094-9.398.145l1.973-25.889a3660.275 3660.275 0 0 1-30.13-5.488l8.822-24.893c-5.1-2.401-10.187-4.831-15.275-7.256l15.854-21.822a4131.208 4131.208 0 0 1-22.975-20.697l19.816-12.12a4292.56 4292.56 0 0 1-6.555-13.688l35.494-10.828c-.528-2.666-1.046-5.333-1.568-8l39.836-2.514c1.492-39.461 3.523-78.9 6.094-118.3 1.484-22.743 3.166-45.6 8.541-67.748a207.15 207.15 0 0 1 13.547-38.65 34.672 34.672 0 0 0-10.121-1.35zm-51.734 415.43a3601.32 3601.32 0 0 1-92.78 9.582c-18.832 1.696-37.782 3.246-56.625 1.678-11.301-.94-22.509-3-33.404-6.146a28.66 28.66 0 0 0 .789 11.223c1.762 6.407 5.761 12.07 10.775 16.43 5.01 4.36 11.01 7.475 17.254 9.762 13.633 4.996 28.426 6.134 42.926 5.381 14.5-.753 28.832-3.338 43.18-5.586a942.784 942.784 0 0 1 42.725-5.686 3609.3 3609.3 0 0 1-48.29 15.16c-18.08 5.536-36.31 10.952-55.07 13.295a172.025 172.025 0 0 1-33.953.859 28.64 28.64 0 0 0 3.082 10.818c3.043 5.907 8.121 10.629 13.926 13.863s12.318 5.05 18.895 6c14.369 2.084 29.08.151 43.11-3.57 14.03-3.721 27.527-9.2 41.1-14.352a924.262 924.262 0 0 1 21.484-7.826l10.896-20.236c.433-10.574.222-21.17-.686-31.719l10.66-18.932zm-21.453 71.969c-10.776 6.527-21.583 13-32.436 19.4-14.54 8.573-29.23 17.07-45.03 23.02a154.024 154.024 0 0 1-29.3 7.842 25.583 25.583 0 0 0 4.945 8.723c3.884 4.486 9.286 7.511 15 9.1 5.718 1.585 11.75 1.791 17.658 1.238 12.905-1.207 25.27-5.957 36.672-12.11 9.437-5.091 18.304-11.144 27.15-17.215-9.918 10.57-20.13 20.901-31.65 29.666a153.922 153.922 0 0 1-25.836 15.893 25.558 25.558 0 0 0 7.23 6.943c5 3.188 11.05 4.546 16.979 4.43 5.933-.116 11.772-1.645 17.275-3.863 12.02-4.846 22.51-12.93 31.682-22.09a169.872 169.872 0 0 0 4.162-4.328 41.973 41.973 0 0 1-7.316-4.885l-13.06-50.873 5.865-10.891z"/><path style="fill-rule:evenodd" d="M291.09 41.15a102.652 102.652 0 0 0-12.559 17.324c-16.568 28.754-18.212 63.41-19.49 96.58a33766.588 33766.588 0 0 1-4.33 107.84l8.229 1.301a1201.425 1201.425 0 0 1 .867-110c1.536-28.591 4.174-57.51 13.857-84.45a168.348 168.348 0 0 1 13.426-28.584m-86.58 8.801a102.563 102.563 0 0 0-8.438 19.664c-9.832 31.696-3.803 65.868 2.25 98.5 6.561 35.37 13.07 70.75 19.514 106.15l8.312-.543a1200.897 1200.897 0 0 1-23.369-107.5c-4.795-28.23-8.587-57.02-5.072-85.43a168.148 168.148 0 0 1 6.803-30.838m-84.42 43.13a102.546 102.546 0 0 0-2.703 21.22c-.734 33.18 14.461 64.37 29.26 94.08 16.04 32.2 32.02 64.43 47.957 96.69l7.842-2.811a1203.561 1203.561 0 0 1-52.04-96.92c-12.375-25.82-23.938-52.45-28.375-80.74a168.114 168.114 0 0 1-1.941-31.52m-53.2 88.78a102.57 102.57 0 0 0 4.742 20.865c10.691 31.417 35.665 55.51 59.752 78.34a31688.75 31688.75 0 0 1 78.21 74.37l6.402-5.328a1203.784 1203.784 0 0 1-82.13-73.19c-20.481-20.01-40.479-41.06-54.35-66.11a168.197 168.197 0 0 1-12.635-28.941zm-12.13 96.48c3.164 6.407 7 12.48 11.428 18.09 20.554 26.05 52.13 40.442 82.45 53.934a33936.145 33936.145 0 0 1 71.67 32l.646-6.469a1199.101 1199.101 0 0 1-71.35-30.28c-25.98-12.03-51.853-25.22-73.28-44.21a168.336 168.336 0 0 1-21.563-23.07m5.688 73.12a102.863 102.863 0 0 0 16.13 14.06c27.16 19.07 61.54 23.799 94.45 28.03 15.849 2.039 31.695 4.093 47.541 6.154l.502-5.02a1201.28 1201.28 0 0 1-48.48-5.961c-28.339-4.082-56.904-9.293-82.88-21.344a168.145 168.145 0 0 1-27.27-15.924m5.523 58.62a102.575 102.575 0 0 0 18.43 10.871c30.19 13.786 64.848 12.157 97.98 10.307 11.07-.618 22.14-1.221 33.22-1.828l.479-4.789c-11.659.816-23.328 1.48-35.01 1.955-28.608 1.164-57.644 1.261-85.38-5.842a168.062 168.062 0 0 1-29.721-10.674m148.83 50.07c-8.591 1.785-17.2 3.48-25.828 5.076-28.15 5.207-56.884 9.417-85.35 6.318a168.143 168.143 0 0 1-30.934-6.352 102.608 102.608 0 0 0 19.785 8.148c31.837 9.368 65.917 2.841 98.46-3.688 8.275-1.66 16.552-3.307 24.828-4.961l-.959-4.543m7.494 35.496a1186.792 1186.792 0 0 1-11.859 4.896c-26.527 10.775-53.816 20.691-82.32 23.393-10.495.995-21.08 1-31.58.014a102.628 102.628 0 0 0 21.02 3.994c33.07 2.759 65.14-10.504 95.69-23.457 3.339-1.415 6.68-2.824 10.02-4.238l-.973-4.602m7.156 33.895c-21.322 14.874-43.554 28.747-68.13 37.07a168.12 168.12 0 0 1-30.729 7.279c7.132.43 14.309.111 21.375-.949 29.11-4.369 54.54-20.823 78.58-38.19l-1.102-5.217m12.672 27.17c-12.25 12.794-25.394 24.645-40.22 34.27a168.128 168.128 0 0 1-27.988 14.625 102.545 102.545 0 0 0 20.482-6.188c20.01-8.411 36.459-22.711 51.35-38.76l-3.625-3.945"/><path d="M235.34 205.84a83.191 83.191 0 0 0-10.629 32.416c-1.063 9.664-.408 19.508 1.861 28.961a88.54 88.54 0 0 0 1.199 4.424 194.974 194.974 0 0 0-3.889-5.578c-6.953-9.579-14.807-18.55-23.842-26.19a118.484 118.484 0 0 0-11.4-8.521 80.867 80.867 0 0 0-.184 33.12c1.888 9.246 5.414 18.15 10.316 26.21a85.38 85.38 0 0 0 2.264 3.504c-9.02-6.845-18.702-12.889-29.09-17.402a114.742 114.742 0 0 0-12.926-4.715 78 78 0 0 0 9.03 30.691c4.317 8.03 10.06 15.286 16.836 21.381a82.465 82.465 0 0 0 2.582 2.219c-.356-.133-.708-.279-1.064-.41-10.737-3.944-21.871-6.913-33.24-8.182a114.43 114.43 0 0 0-13.738-.703 77.978 77.978 0 0 0 17.658 26.676c6.489 6.404 14.11 11.65 22.385 15.48 7.298 3.379 15.08 5.653 22.996 7.07a112.777 112.777 0 0 0 29.426 1.355l-3.77-20.14c-.789-.542-1.595-1.058-2.393-1.588 2.242.634 4.502 1.205 6.779 1.699l2.322-20.355c-.837-1.056-1.701-2.091-2.561-3.129a114.864 114.864 0 0 0 6.684 4l8.352-19.49c-.014-.036-.031-.07-.045-.105a120.01 120.01 0 0 0 6.943 8.1l12.12-13.912 2.131 2.252a96.977 96.977 0 0 0 17.479-21.67c3.813-6.442 6.885-13.355 8.717-20.613 2.081-8.245 2.536-16.889 1.412-25.318a69.145 69.145 0 0 0-10.777-28.816 98.048 98.048 0 0 0-8.105 10.162c-6.086 8.764-10.711 18.487-14.273 28.545a153.439 153.439 0 0 0-2.578 8.05c-.436-1.437-.869-2.876-1.338-4.303-3.804-11.589-8.688-22.866-15.15-33.21a122.14 122.14 0 0 0-8.502-11.957zm-72.2 155.72c-4.287-.006-8.571.195-12.838.635a114.734 114.734 0 0 0-13.576 2.23 78.006 78.006 0 0 0 22.92 22.316c5.143 3.259 10.674 5.892 16.428 7.883-10.281 1.312-20.462 3.519-30.19 7.07a114.633 114.633 0 0 0-12.617 5.484 77.96 77.96 0 0 0 27.684 16.03c8.661 2.848 17.818 4.155 26.932 3.904 8.04-.221 16.02-1.647 23.744-3.9a112.807 112.807 0 0 0 26.955-11.879l-10.936-14.5a112.65 112.65 0 0 0 10.182-2.615l-7.961-18.877a188.712 188.712 0 0 0-45.34-12.213c-7.081-.984-14.233-1.563-21.379-1.572zm31.383 65.52a78.838 78.838 0 0 0-21.574 3.416c-8.415 2.569-16.494 6.56-23.742 11.941a78.348 78.348 0 0 0-10.445 9.326c6.794 4.834 14.274 8.515 22.1 10.871 9.152 2.755 18.748 3.694 28.25 3.082 7.918-.51 15.882-2.124 23.08-5.852 9.393-4.865 17.214-13.343 21.76-23.586l-11.832-4.74a78.557 78.557 0 0 0-27.598-4.459zm27.22 35.34c-15.481-.078-30.87 3.645-44.703 10.816-7.179 3.722-14.04 8.452-19.21 15.01-3.506 4.452-6.173 9.695-7.799 15.328a875.507 875.507 0 0 0 26.371 1.707c9.44.468 19.291.694 27.725-3.68 6.562-3.403 11.67-9.297 16.643-15.05 6.073-7.02 12.174-14.01 18.305-20.977l-17.334-3.162zm21.13 32.707a97.099 97.099 0 0 0-17.311 1.291c-7.423 1.234-14.667 3.349-21.383 6.605a66.408 66.408 0 0 0-20.279 15.223c-6.786 7.508-11.966 16.699-15.11 26.803 4.356.168 8.697.054 12.992-.342 10.707-.987 21.09-3.722 31.03-7.463a155.919 155.919 0 0 0 29.922-15.13l.027-3.529c-.209-6.496 2.519-13.03 7.287-17.447a22.318 22.318 0 0 1 3-2.328l.338-2.971c-3.51-.422-7.02-.657-10.523-.707zm-.152 29.564c-5.35 1.748-10.504 4.01-15.305 6.893a66.437 66.437 0 0 0-18.855 16.957c-6.096 8.08-10.442 17.691-12.676 28.03a99.764 99.764 0 0 0 12.912-1.49c5.472-.998 10.812-2.463 16.02-4.273a66.85 66.85 0 0 0-1.338 5.316c-2.035 9.914-1.833 20.461.592 30.76a99.769 99.769 0 0 0 11.02-6.891c8.723-6.286 16.28-13.913 22.947-22.18.066-.082.128-.166.193-.248a22.138 22.138 0 0 1-3.244-4.781l-12.486-20.19.219-27.898z" style="fill:#fff;fill-rule:evenodd;stroke:#000;stroke-width:5"/><path style="fill-rule:evenodd" d="M236.67 223.64a51.73 51.73 0 0 0-1.859 17.803c.825 11.735 5.598 22.768 9.83 33.744a400.396 400.396 0 0 1 9.832 28.695l6.111-2.125a1027.789 1027.789 0 0 1-13.816-37.2c-2.692-7.699-5.297-15.445-7.174-23.383a132.706 132.706 0 0 1-2.924-17.537m47.566.475a102.802 102.802 0 0 1-2.602 15.262c-1.717 6.887-4.146 13.579-6.658 20.227a800.891 800.891 0 0 1-12.926 32.09l5.971 2.094c2.7-8.38 5.759-16.65 9.168-24.785 3.965-9.463 8.458-18.955 9.1-29.21.327-5.228-.372-10.559-2.053-15.676m-89.08 23.291a50.243 50.243 0 0 0 3.568 17c4.246 10.599 11.93 19.376 19.1 28.26a389.25 389.25 0 0 1 17.596 23.596l5.01-3.781a1003.098 1003.098 0 0 1-23.799-30.27c-4.771-6.315-9.477-12.699-13.566-19.477a128.374 128.374 0 0 1-7.904-15.336m-25.639 37.701a48.513 48.513 0 0 0 8.03 14.74c6.877 8.626 16.432 14.608 25.537 20.836a376.409 376.409 0 0 1 22.852 16.939l3.59-4.893a962.287 962.287 0 0 1-30.451-21.385c-6.173-4.516-12.304-9.113-17.975-14.246a124.436 124.436 0 0 1-11.582-11.992m-16.223 41.33a48.548 48.548 0 0 0 12.01 11.725c9.111 6.22 20 9.127 30.537 12.4a374.468 374.468 0 0 1 26.826 9.463l1.99-5.732a964.701 964.701 0 0 1-35.396-11.477c-7.229-2.499-14.441-5.089-21.371-8.326a125.319 125.319 0 0 1-14.598-8.05m-1.029 44.21a48.458 48.458 0 0 0 14.227 8.908c10.224 4.144 21.485 4.671 32.475 5.633 9.448.827 18.865 2.01 28.22 3.553l.729-6.03a968.237 968.237 0 0 1-37.03-3.699c-7.595-.907-15.193-1.908-22.652-3.6a124.328 124.328 0 0 1-15.975-4.77m73.893 31.957a967.098 967.098 0 0 1-36.807 5.471c-7.586.978-15.197 1.868-22.844 2.053-5.56.134-11.128-.106-16.656-.717a48.527 48.527 0 0 0 15.975 5.156c10.927 1.517 21.974-.726 32.865-2.482a375.26 375.26 0 0 1 28.23-3.461l-.768-6.02m-4.75 27.4a837.668 837.668 0 0 1-32.16 12.213c-6.652 2.371-13.342 4.658-20.18 6.26a104.8 104.8 0 0 1-15.06 2.393 40.439 40.439 0 0 0 15.16 2.096c10.05-.54 19.605-4.796 29.1-8.545a323.565 323.565 0 0 1 24.789-8.646l-1.652-5.77m4.094 32.07a497.327 497.327 0 0 1-28.891 18.676c-6.05 3.622-12.178 7.11-18.418 10.346a265.966 265.966 0 0 1-14.762 7.088 53.694 53.694 0 0 0 15.799-2.721c9.549-3.168 18.1-8.957 26.666-14.449a560.48 560.48 0 0 1 22.428-13.643l-2.822-5.297m17.06 42.31a310.859 310.859 0 0 1-22.311 7.938c-9.793 3.061-19.947 5.736-28.21 11.85-4.21 3.116-7.838 7.083-10.67 11.664a102.771 102.771 0 0 1 13.352-7.838c6.375-3.122 13.06-5.575 19.762-7.934a800.951 800.951 0 0 1 25-8.334 29.773 29.773 0 0 1 3.074-7.346m.553 35.506c-9.134 3.738-18.534 7.282-25.916 13.832-3.918 3.476-7.182 7.749-9.598 12.563a102.83 102.83 0 0 1 12.607-8.988c6.074-3.673 12.513-6.706 18.982-9.648 1.697-.772 3.4-1.533 5.104-2.293l-1.18-5.465m3.873 17.959c-5.313 5.886-10.397 11.974-13.482 19.248-2.045 4.822-3.159 10.08-3.273 15.467a102.824 102.824 0 0 1 7.525-13.531c3.239-4.912 6.899-9.529 10.662-14.06a21.572 21.572 0 0 1-1.133-5.736l-.299-1.385"/><path d="M244.15 600.68c1.266 1.988 3.052 3.577 4.667 5.293 1.615 1.716 3.119 3.672 3.599 5.979.333 1.598.144 3.286-.436 4.812-.58 1.526-1.54 2.894-2.705 4.04-2.331 2.287-5.409 3.648-8.507 4.678-3.374 1.122-6.958 1.957-9.77 4.133a11.82 11.82 0 0 0-3.395 4.154 11.052 11.052 0 0 0-1.114 5.24c.101 2.578 1.152 5.069 2.73 7.111 1.577 2.042 3.661 3.654 5.913 4.913 7.03 3.932 15.917 4.361 23.297 1.127a5.15 5.15 0 0 1-2.991 1.01 5.132 5.132 0 0 1-3.01-.948 5.137 5.137 0 0 1-1.873-2.54 5.132 5.132 0 0 1-.017-3.156c.478-1.492 1.626-2.692 2.93-3.561 1.304-.868 2.774-1.448 4.209-2.076 1.933-.845 3.843-1.794 5.902-2.252 1.03-.229 2.093-.332 3.143-.229 1.05.103 2.087.417 2.98.978a5.978 5.978 0 0 1 2.63 3.758 6 6 0 0 1-1.021 4.756 6 6 0 0 1-4.24 2.384 40.988 40.988 0 0 0 8.642-1.503c5.598-1.607 10.958-4.518 14.655-9.02 1.461-1.779 2.65-3.793 3.394-5.971.744-2.178 1.037-4.522.739-6.805-.317-2.431-1.288-4.737-2.515-6.859s-2.71-4.083-4.143-6.072c-1.433-1.989-2.826-4.02-3.848-6.253-1.022-2.228-1.663-4.673-1.519-7.12.16-2.711 1.264-5.273 2.509-7.687 1.244-2.414 2.653-4.764 3.503-7.344.904-2.743 1.142-5.741.417-8.537-.725-2.796-2.459-5.366-4.926-6.869-2.138-1.303-4.684-1.754-7.179-1.96-2.495-.205-5.02-.191-7.475-.671-3.255-.635-6.321-2.139-8.903-4.221-2.582-2.082-4.685-4.733-6.247-7.659-3.124-5.852-4.046-12.687-3.638-19.308.939-15.247 8.466-29.16 14.544-43.18 3.039-7.01 5.762-14.207 7.137-21.72 1.375-7.513 1.355-15.394-1.014-22.655-3.053-9.361-9.709-17.02-15.412-25.04-2.852-4.01-5.51-8.203-7.366-12.763-1.856-4.56-2.888-9.527-2.398-14.426.767-7.657 5.093-14.408 8.267-21.418 1-2.208 1.927-4.519 3.59-6.283.832-.882 1.846-1.61 2.993-2 1.148-.39 2.433-.425 3.562.016 1.021.4 1.869 1.166 2.507 2.058.638.892 1.08 1.908 1.458 2.937.378 1.029.698 2.08 1.116 3.094.419 1.013.943 1.997 1.682 2.808 1.091 1.196 2.609 1.957 4.193 2.29 1.584.333 3.234.259 4.825-.036 3.745-.694 7.201-2.597 10.08-5.093 2.877-2.495 5.207-5.569 7.206-8.81 1.741-2.822 3.254-5.803 4.238-8.969.984-3.166 1.428-6.528 1.023-9.819-.617-5-3.134-9.557-5.818-13.826-2.684-4.268-5.617-8.463-7.232-13.239-2.451-7.246-1.626-15.316 1.088-22.467 2.714-7.151 7.205-13.493 12.1-19.375a151.258 151.258 0 0 1 11.464-12.323 27.167 27.167 0 0 0-10.03-2.293c-6.907-.231-13.809 2.269-19.2 6.592a31.965 31.965 0 0 0-10.03 14.04c1.365-7.13.343-14.696-2.866-21.21a33.852 33.852 0 0 0-11.177-12.897 44.196 44.196 0 0 0-6.592 11.464c-4.624 11.873-3.763 25.759 2.293 36.97-1.157-9.258-6.25-17.959-13.756-23.5a34.736 34.736 0 0 0-17.195-6.592c-4.187 8.977-4.713 19.599-1.433 28.945 3.03 8.631 9.252 16.1 17.195 20.634a61.152 61.152 0 0 0-20.348-13.756 61.043 61.043 0 0 0-12.897-3.726c-1.127 8.183.292 16.698 4.01 24.07a41.206 41.206 0 0 0 13.183 15.189 37.084 37.084 0 0 0-14.329-9.457 37.153 37.153 0 0 0-16.622-2.01c-1.648 8.461.863 17.632 6.592 24.07 4.02 4.523 9.542 7.691 15.476 8.884-5.319-3.044-11.804-3.985-17.769-2.579a24.61 24.61 0 0 0-11.177 6.02 40.93 40.93 0 0 0 11.177 16.336c3.388 3 7.28 5.436 11.464 7.165a26.107 26.107 0 0 0-14.616-1.433 26.122 26.122 0 0 0-14.04 7.738c1.958 7.443 6.893 14.06 13.47 18.06a30.22 30.22 0 0 0 13.47 4.299c-6.442-1.196-13.307.052-18.915 3.439a27.182 27.182 0 0 0-9.171 9.171c3.629 6.637 9.452 12.05 16.336 15.189a35.473 35.473 0 0 0 16.05 3.152c-5.198-1.576-11.03-.94-15.762 1.72a20.33 20.33 0 0 0-7.512 7.352 20.33 20.33 0 0 0-2.805 10.13 35.743 35.743 0 0 0 17.482 10.89c3.725 1 7.614 1.391 11.464 1.146a23.538 23.538 0 0 0-12.897 6.305c-5.356 5.163-8 12.994-6.878 20.348a24.383 24.383 0 0 0 12.323 6.305c4.803.889 9.873.281 14.329-1.72-4.646 2.265-8.464 6.185-10.604 10.89-2.738 6.02-2.63 13.265.287 19.2a21.962 21.962 0 0 0 10.604 1.433 22.009 22.009 0 0 0 11.464-4.872 31.722 31.722 0 0 0-9.744 14.616 31.707 31.707 0 0 0-.573 16.909 21.005 21.005 0 0 0 7.165 4.01c5.138 1.666 10.92 1.245 15.762-1.146a41.064 41.064 0 0 0-5.159 16.909c-.326 4.159.05 8.562 2.292 12.08z" style="fill:#fff;fill-rule:evenodd;stroke:#000;stroke-width:5"/><path style="fill-rule:evenodd" d="M263.21 269.57a50.995 50.995 0 0 0 .248 19.08l3.246-1.061a32.703 32.703 0 0 0-3.494-18.02m33.08 2.869a40.104 40.104 0 0 0-10.777 9.05 40.285 40.285 0 0 0-8.855 19.635l3.465 2.502a58.625 58.625 0 0 1 7.699-20.404 58.486 58.486 0 0 1 8.469-10.779m-62.32 14.502a51.224 51.224 0 0 0 4.428 10.33 51.141 51.141 0 0 0 4.428 6.572l2.414-2.414a32.674 32.674 0 0 0-11.27-14.488m-15.748 26.887a51.153 51.153 0 0 0 11.684 15.084l1.953-2.801a32.696 32.696 0 0 0-5.078-6.316 32.74 32.74 0 0 0-8.559-5.967m-14.73 24.13a51.211 51.211 0 0 0 6.883 8.885 50.94 50.94 0 0 0 5.938 5.248l1.729-2.945a32.663 32.663 0 0 0-14.549-11.187m84.13 15.521a20.558 20.558 0 0 1-5.197 6.545c-1.548 1.289-3.38 2.377-5.391 2.502a6.27 6.27 0 0 1-3.322-.723 6.275 6.275 0 0 1-2.451-2.357 6.62 6.62 0 0 0 2.1 4.07 6.625 6.625 0 0 0 4.252 1.703c1.466.035 2.921-.429 4.168-1.201 1.247-.772 2.292-1.842 3.146-3.03a14.654 14.654 0 0 0 2.695-7.506m-89.24 14.803a41.748 41.748 0 0 0 7.813 4.727 41.647 41.647 0 0 0 6.03 2.244l.453-2.736a26.61 26.61 0 0 0-5.934-2.854 26.611 26.611 0 0 0-8.365-1.381m50.555.596a31.35 31.35 0 0 0-8.855 8.277c-2.378 3.303-4.114 7.126-4.619 11.164a20.238 20.238 0 0 0 2.311 12.13 37.976 37.976 0 0 1 .385-11.166 38.594 38.594 0 0 1 4.234-11.74 39.22 39.22 0 0 1 6.545-8.662m-44.17 29.41a26.585 26.585 0 0 0-8.396 1.16 41.54 41.54 0 0 0 15.289 2.556l-.379-2.748a26.586 26.586 0 0 0-6.514-.969m42.44 26.988a127.035 127.035 0 0 1 5 12.896c1.517 4.639 2.773 9.389 3.271 14.244a47.013 47.013 0 0 1-3.656 23.482 50.323 50.323 0 0 0 6.93-23.1c.165-3.417-.023-6.865-.77-10.203-1.514-6.764-5.38-12.976-10.779-17.322m-43.43 4.646a26.584 26.584 0 0 0-8.396 1.158 41.557 41.557 0 0 0 15.289 2.556l-.379-2.748a26.583 26.583 0 0 0-6.514-.967m11.02 31.943a22.617 22.617 0 0 0-5.574.564 22.636 22.636 0 0 0-6.684 2.713 35.352 35.352 0 0 0 13.145-1.092l-.887-2.186m3.98 31.412a23.514 23.514 0 0 0-5.326 2.355 23.523 23.523 0 0 0-5.729 4.838 36.754 36.754 0 0 0 12.639-5.318l-1.584-1.875m30.545 4.18a65.138 65.138 0 0 0-6.354 18.09c-1.057 5.508-1.396 11.143-1.154 16.746a81.464 81.464 0 0 0 1.926 14.436 150.176 150.176 0 0 1 .191-20.402 138.042 138.042 0 0 1 2.311-16.746 128.438 128.438 0 0 1 3.08-12.13m-21.666 26.734a19.545 19.545 0 0 0-8.154 7.348 30.575 30.575 0 0 0 9.699-6.012l-1.545-1.336m12.03 30.473a19.547 19.547 0 0 0-6.424 8.901 30.637 30.637 0 0 0 8.216-7.92l-1.791-.98m34.41 20.822a5.14 5.14 0 0 0-1.291.119 18.06 18.06 0 0 1 2.117 9.432c-.157 3.02-1.071 5.95-1.924 8.855a238.288 238.288 0 0 0-3.08 11.549 75.638 75.638 0 0 0 6.736-11.934c1.408-3.126 2.614-6.401 2.887-9.818.096-1.204.074-2.426-.211-3.6-.285-1.173-.844-2.298-1.713-3.137-.937-.904-2.223-1.424-3.521-1.467m-8.855 45.05c-3.143.014-6.28.429-9.23 1.484-3.934 1.408-7.525 4.03-9.576 7.674a14.67 14.67 0 0 0-1.539 10.203 16.971 16.971 0 0 1 5-7.699c2.308-2.02 5.14-3.375 8.08-4.244 2.94-.869 5.997-1.267 9.05-1.531 2.854-.247 5.838-.359 8.471.77a9.586 9.586 0 0 1 4.174 3.473 9.598 9.598 0 0 1 1.6 5.189 10.392 10.392 0 0 0 .547-6.305c-.48-2.09-1.63-4.02-3.24-5.438-1.373-1.208-3.052-2.032-4.803-2.561-1.75-.529-3.577-.772-5.4-.904a40.482 40.482 0 0 0-3.137-.111M403.03 35.91c-8.369.055-16.312 3.762-24.424 5.824-6.287 1.598-13.376 1.498-18.789 5.074-3.125 2.065-5.612 5.332-6.951 8.83-.695 1.817.509 4.091-.375 5.824-1.515 2.972-5.931 3.561-7.703 6.387-2.502 3.989-3.314 9.01-3.383 13.717-.048 3.267 2.114 6.315 2.068 9.582-.058 4.146-2.828 7.936-2.963 12.08a28.47 28.47 0 0 0 2.023 11.404c.841 2.095 3.224 3.442 3.756 5.637.92 3.798-1.997 7.801-1.314 11.648.979 5.515 4.717 10.177 7.516 15.03 3.185 5.522 7.999 10.116 10.521 15.971 1.298 3.01 2.208 6.301 2.254 9.582.031 2.173-.143 4.556-1.314 6.387-.797 1.245-2.129 2.96-3.57 2.631-2.348-.536-3.053-4-3.381-6.387-.201-1.461.07-3.132.939-4.322 1.109-1.518 4.885-2.818 4.885-2.818s-3.324-4.376-5.793-5.09c-3.849-1.112-8.632-.464-11.869 1.896-4.141 3.02-6.402 8.619-6.951 13.715-.624 5.791.808 12.326 4.4 16.91 2.42 3.089 6.524 4.746 10.354 5.604 4.299.963 9.103.901 13.195-.73 4.671-1.862 8.128-6.03 11.506-9.758 3.326-3.668 6.412-7.703 8.455-12.213 1.705-3.764 3.01-12.03 3.01-12.03s2.618 17.49-2.59 23.328c-.897 1.01-2.743.284-3.941.9-2.589 1.331-4.635 3.587-6.535 5.793-1.542 1.79-3.844 3.579-3.863 5.941-.019 2.243 2.234 3.904 3.574 5.703 1.067 1.431 2.145 2.901 3.535 4.02 1.153.929 3.132.882 3.883 2.158.953 1.621.103 3.763 0 5.641-.011.207-.045.413-.068.619-.014.122.007.254-.041.367-.865 2.041-3.02 3.273-4.234 5.127-1.243 1.897-2.715 3.83-3.082 6.068-.664 4.049 2.554 8.15 1.781 12.18-1.863 9.717-11.436 16.412-14.854 25.697-3.32 9.02-3.334 18.938-5.197 28.369-2.314 11.717-5.05 23.348-7.428 35.05-1.756 8.649-5.146 17.17-5.05 25.992.038 3.496.825 7.05 2.227 10.25 1.211 2.768 2.902 5.463 5.199 7.426 1.717 1.467 4.617 1.259 6.09 2.971 1.185 1.377 1.569 3.384 1.633 5.199.189 5.341-3.824 10.253-3.713 15.596.062 2.953 2.675 5.585 2.41 8.527-.265 2.942-2.051 5.652-3.895 7.959-1.118 1.4-2.918 2.105-4.188 3.369-.632.63-1.284 1.283-1.686 2.08-.398.791-.708 1.688-.662 2.572.052 1 .491 1.987 1.047 2.822.561.844 1.355 1.551 2.221 2.078 2.366 1.439 5.101 2.306 7.83 2.775h.002c2.447-.078 4.993.264 7.33-.467 4.527-1.416 9.2-3.664 12.184-7.352 2.563-3.168 2.456-7.78 3.99-11.555 1.085-2.669 2.78-5.083 3.678-7.82.395-1.204.734-3.73.734-3.73s5.49 1.195 8.283 1.355c2.139.123 4.292-.053 6.42-.305 2.973-.352 6.203-.231 8.822-1.682 2.408-1.333 4.03-3.804 5.615-6.05 1.598-2.269 2.283-5.09 3.838-7.389 4.451-6.579 8.947-13.639 15.543-18.06 1.471-.987 3.27-1.689 5.04-1.68 1.81.009 3.697.666 5.133 1.768 1.447 1.11 2.455 2.813 3.061 4.533.679 1.929.613 4.071.508 6.113-.106 2.056-.696 4.06-1.139 6.07-1.165 5.29-2.02 10.708-3.99 15.754-1.582 4.049-3.422 8.135-6.217 11.465-2.782 3.314-6.388 5.965-10.168 8.07-1.625.905-3.444 1.45-5.252 1.891-3.748.914-11.469 1.531-11.469 1.531s-.555 4.491.336 6.451c1.032 2.27 3.257 3.886 5.375 5.203 1.984 1.233 4.348 1.729 6.598 2.357 1.811.506 5.527 1.131 5.527 1.131s-1.084 5.878-2.375 8.533c-2.999 6.171-7.746 11.358-12.184 16.592-3.108 3.666-6.434 7.175-10.07 10.32-2.689 2.327-5.355 4.883-8.627 6.275-2.499 1.063-8.02 1.424-8.02 1.424s2.783 3.525 4.662 4.668c2.573 1.565 8.613 2.73 8.613 2.73s-11.06 7.06-15.545 11.764c-7.44 7.799-13.366 17.08-18.273 26.676-4.81 9.406-6.334 20.21-10.713 29.828-1.962 4.308-3.732 8.906-6.932 12.395-1.682 1.834-6.178 4.191-6.178 4.191l-.001-.008-.002.012s8.846 2.916 13.15 1.879c2.534-.61 6.389-4.51 6.389-4.51s-2.163 7.979-3.01 12.02c-1.124 5.39-.242 11.379-2.73 16.291-2.127 4.199-9.848 10.121-9.848 10.121s9.24 3.926 14.08 3.65c1.742-.099 4.885-1.879 4.885-1.879s.204 13.37-1.162 19.859c-1.028 4.882-2.961 9.58-5.225 14.03-2.448 4.808-8.941 13.492-8.941 13.492s8.374 1.646 12.135.156c6.794-2.692 11.328-9.425 15.781-15.219 3.929-5.112 9.395-16.908 9.395-16.908s1.51 8.141 1.127 12.211c-.659 7.01-2.814 13.931-5.824 20.291-2.215 4.679-8.83 12.777-8.83 12.777s7.501.385 10.898-.939c5.824-2.271 10.608-6.863 14.842-11.461 5.46-5.93 7.438-14.607 13.152-20.291 3.375-3.357 12.02-7.703 12.02-7.703s1.341 7.927.752 11.836c-.868 5.762-6.201 16.346-6.201 16.346s6.675-2.776 9.395-5.072c3.341-2.821 5.436-6.851 8.08-10.334 4.981-6.567 9.259-13.687 14.656-19.916 3.567-4.117 11.648-11.461 11.648-11.461s-1.042 10.84-.189 16.16c.797 4.967 4.887 14.279 4.887 14.279s3.253-7.7 5.072-11.461c3.513-7.263 6.391-14.994 11.271-21.418 5.467-7.197 13.68-11.884 19.729-18.6 4.216-4.682 11.461-15.03 11.461-15.03s1.302 7.11 1.502 10.709c.247 4.441-.375 13.34-.375 13.34s12.561-17.279 18.08-26.41c7.601-12.58 20.625-38.973 20.625-38.973s.775 4.998.752 7.516c-.034 3.72-1.316 11.08-1.316 11.08s4.02-8.572 6.201-12.775c5.787-11.176 15.16-20.861 18.225-33.07 1.343-5.345-.188-16.533-.188-16.533s6.431-2.088 9.205-3.945c3.643-2.44 9.395-9.207 9.395-9.207s-6.539 1.355-9.582.377c-2.039-.655-4.069-2.053-5.072-3.945-1.794-3.382-1.278-7.669-.752-11.461.566-4.081 3.434-7.588 4.133-11.648.574-3.333 0-10.146 0-10.146s6.193-1.444 8.404-3.527c2.32-2.186 4.217-8.584 4.217-8.584s-5.243-.135-7.736-.852c-1.938-.557-5.447-2.631-5.447-2.631s-.541-7.97-.729-11.959c-.231-4.907-.215-9.825-.488-14.73-.157-2.819-.662-8.443-.662-8.443s4.698-.649 6.199-2.256c2.314-2.477 2.979-6.384 2.818-9.77-.243-5.111-5.637-14.279-5.637-14.279s-1.152 3.71-2.441 5.074c-1.802 1.905-6.889 3.801-6.889 3.801s-1.759-5.379-2.318-8.146c-.873-4.324-1.195-8.746-1.602-13.14-.317-3.433-.652-10.322-.652-10.322s14.56-8.1 20.293-13.982c4.24-4.35 6.309-10.404 9.951-15.266 1.97-2.63 5.05-4.497 6.412-7.488 1.403-3.081 1.079-6.686 1.482-10.05.404-3.372.241-6.821.939-10.145 1.303-6.202 5.432-11.726 6.01-18.04.463-5.04-2.348-9.986-2.098-15.04.318-6.431 4.618-12.337 4.541-18.775-.067-5.575-4.198-10.584-4.322-16.16-.168-7.565 5.294-14.614 4.887-22.17-.38-7.06-6.074-13.07-6.764-20.1-.475-4.839 2.165-9.613 1.877-14.467-.333-5.61-1.553-11.353-4.133-16.346-2.569-4.973-8.235-7.853-10.896-12.777-2.544-4.708-1.612-10.908-4.51-15.406-2.909-4.517-7.328-8.279-12.211-10.52-5.354-2.457-11.749-1.247-17.475-2.631-6.487-1.568-12.307-6.113-18.975-6.389-7.413-.306-14.382 3.655-21.607 5.338-5.972 1.391-12.48 1.202-17.969 3.934-6.521 3.246-16.6 14.215-16.6 14.215s.851-12.226-1.129-17.85c-2.285-6.491-9.108-10.583-11.891-16.877-2.183-4.939-1.066-11-3.514-15.814-3.178-6.249-7.667-12.58-13.904-15.781-2.8-1.437-6.484.257-9.395-.939-6.26-2.574-9.556-10.12-15.781-12.775-5.516-2.352-11.941-1.221-17.848-2.256-5.628-.986-11.01-3.795-16.723-3.758m5.215 63.86c.452-.012.903.003 1.35.049 3.879.397 7.917 1.531 11.04 3.861 3.177 2.369 5.261 6.06 6.965 9.635 1.719 3.61 2.441 7.642 3.119 11.582.762 4.43 1.565 8.978 1.049 13.443-.557 4.817-2.274 9.51-4.41 13.863-.571 1.163-1.274 2.302-2.209 3.199-.925.888-2.01 1.736-3.252 2.053-1.206.307-2.549.167-3.725-.238-1.184-.408-2.269-1.186-3.1-2.123-1.662-1.876-2.721-4.28-3.469-6.672-2.149-6.871-2.73-21.426-2.73-21.426s-8.16 8.374-11.344 13.234c-2.728 4.165-6.512 13.443-6.512 13.443l-2.102.209s-2.904-12.821-2.73-19.324c.194-7.275 1.295-14.753 4.201-21.426 1.277-2.931 3.269-5.611 5.635-7.76 2.356-2.14 5.22-3.806 8.229-4.844 1.274-.439 2.637-.723 3.992-.76m135.01 82.1a23.384 23.384 0 0 1 4.871.396c6.666 1.258 12.615 5.292 16.969 10.494 4.354 5.202 7.216 11.518 9.166 18.02 3.818 12.718 4.285 26.17 4.643 39.441.221 8.199.408 16.431-.561 24.576-.969 8.145-3.141 16.253-7.35 23.293a44.217 44.217 0 0 1-10.395 11.879 55.512 55.512 0 0 1-.891-4.752c-.107-.748-.199-1.501-.18-2.256.019-.755.152-1.517.477-2.199.541-1.136 1.568-1.966 2.648-2.611 1.08-.645 2.245-1.143 3.291-1.842a10.267 10.267 0 0 0 3.625-4.266 10.27 10.27 0 0 0 .83-5.535 3.33 3.33 0 0 1-2.078.297c-.988-.181-1.839-.8-2.57-1.488-.731-.688-1.384-1.466-2.182-2.076-.857-.655-1.853-1.097-2.807-1.602-.954-.504-1.896-1.095-2.539-1.961-.494-.666-.787-1.464-.951-2.277-.164-.813-.205-1.646-.236-2.475a116.107 116.107 0 0 1 0-8.91l-3.861-.594a189.177 189.177 0 0 1 4.184-15.227c2.632-8.218 5.872-16.55 5.32-25.16a29.324 29.324 0 0 0-1.998-8.908 57.794 57.794 0 0 1-8.127 10.934 57.812 57.812 0 0 1-9.881 8.342 5.232 5.232 0 0 0-1.377-2.35c-.555-.544-1.223-.954-1.863-1.395-.64-.441-1.27-.928-1.701-1.574-.627-.939-.772-2.125-.713-3.252.06-1.127.305-2.237.389-3.363.117-1.579-.094-3.191-.697-4.654-.604-1.464-1.609-2.773-2.92-3.66-1-.679-2.155-1.1-3.229-1.662-.537-.281-1.057-.598-1.516-.994-.459-.396-.856-.872-1.113-1.42-.398-.848-.444-1.813-.551-2.744-.053-.466-.124-.93-.266-1.377-.141-.447-.356-.877-.67-1.225-.309-.342-.704-.598-1.121-.795-.417-.197-.856-.339-1.293-.486-.437-.148-.873-.3-1.279-.518-.406-.217-.784-.503-1.057-.875-.428-.582-.568-1.338-.518-2.059.05-.721.276-1.418.518-2.1 1.642-4.638 4.215-9.05 8.02-12.176 3.779-3.104 8.642-4.737 13.541-4.85"/><path d="M400.3 41.91c-1.669-.053-3.325.389-4.85 1.07-1.524.682-2.93 1.599-4.305 2.547-2.75 1.895-5.546 3.983-8.842 4.52-3.219.524-6.456-.506-9.666-1.082-1.605-.288-3.248-.464-4.867-.273-1.619.191-3.225.77-4.449 1.848-.917.807-1.589 1.864-2.064 2.988-.476 1.125-.763 2.32-.994 3.52-.462 2.398-.725 4.894-1.871 7.05-1.327 2.499-3.68 4.253-5.803 6.123-1.062.935-2.087 1.926-2.914 3.074s-1.452 2.466-1.637 3.869c-.165 1.253.026 2.532.385 3.744.359 1.212.882 2.367 1.4 3.52.518 1.153 1.034 2.312 1.373 3.529.339 1.218.499 2.503.293 3.75-.179 1.083-.628 2.108-1.188 3.053-.56.944-1.23 1.817-1.891 2.693-.66.877-1.314 1.763-1.836 2.729-.522.966-.909 2.02-1 3.113-.122 1.441.276 2.889.928 4.18.651 1.291 1.547 2.442 2.475 3.551.928 1.109 1.896 2.191 2.717 3.381.821 1.19 1.498 2.505 1.77 3.926.258 1.352.139 2.754-.166 4.096-.305 1.342-.794 2.634-1.283 3.92-.489 1.286-.983 2.575-1.299 3.914-.315 1.339-.448 2.738-.211 4.094.427 2.436 2.01 4.524 3.836 6.195 1.824 1.671 3.917 3.02 5.777 4.652 4.156 3.641 7.03 8.612 8.617 13.906 1.583 5.294 1.916 10.907 1.49 16.416-.348 4.498-1.213 9.02-3.203 13.06a25.269 25.269 0 0 1-6.656 8.383c7.532-1.41 14.363-6.211 18.242-12.82 3.888-6.624 4.756-14.527 5.658-22.15.535-4.525 1.112-9.09.65-13.625-.462-4.533-2.067-9.102-5.322-12.291-1.545-1.514-3.41-2.672-4.963-4.178-.777-.753-1.477-1.597-1.973-2.559-.496-.961-.78-2.046-.707-3.125.062-.912.374-1.792.795-2.604.421-.811.95-1.561 1.473-2.311.523-.749 1.044-1.505 1.449-2.324s.694-1.71.721-2.623c.041-1.394-.519-2.722-.961-4.045-.221-.661-.414-1.336-.49-2.029-.076-.693-.029-1.409.219-2.061.28-.735.803-1.356 1.404-1.863.601-.507 1.283-.91 1.959-1.313.676-.403 1.352-.812 1.943-1.33.591-.519 1.099-1.159 1.35-1.904.229-.68.233-1.416.137-2.127-.096-.711-.291-1.404-.459-2.102-.168-.697-.309-1.408-.295-2.125.014-.717.193-1.449.617-2.027.386-.528.955-.903 1.568-1.131.613-.228 1.269-.316 1.922-.348 1.306-.063 2.641.091 3.904-.248.87-.234 1.667-.693 2.383-1.24s1.357-1.183 2-1.811c.647-.627 1.304-1.251 2.041-1.77.737-.519 1.561-.932 2.447-1.096 1.278-.236 2.592.059 3.842.416s2.501.782 3.801.816c1.682.044 3.3-.568 4.906-1.068.803-.25 1.618-.475 2.453-.576.835-.101 1.694-.076 2.5.166 1.446.434 2.596 1.513 3.652 2.592 1.056 1.078 2.119 2.219 3.498 2.832 1.568.697 3.35.629 5.064.695.857.033 1.718.104 2.547.326.829.223 1.629.605 2.25 1.197.64.61 1.065 1.42 1.32 2.268.255.847.346 1.734.395 2.617.096 1.767.033 3.605.75 5.223.604 1.363 1.719 2.446 2.961 3.271 1.242.826 2.619 1.422 3.969 2.055 1.35.633 2.695 1.316 3.828 2.285 1.133.969 2.047 2.26 2.307 3.729.159.902.066 1.835-.168 2.721-.234.886-.606 1.728-1.01 2.551-.807 1.645-1.762 3.269-2.027 5.082-.193 1.317-.006 2.668.379 3.941.385 1.274.965 2.478 1.572 3.662 1.214 2.368 2.58 4.777 2.734 7.434.083 1.426-.196 2.859-.695 4.197-.5 1.338-1.216 2.585-2.025 3.762-1.618 2.354-3.604 4.442-5.168 6.832a23.594 23.594 0 0 0-3.451 8.629 9.512 9.512 0 0 1 5.05-.477 9.5 9.5 0 0 1 4.566 2.201 9.52 9.52 0 0 1 2.959 4.932c.623-2.145 2.329-3.945 4.438-4.684 2.02-.708 4.365-.428 6.162.738-.23-4.637 1.241-9.339 4.072-13.02 2.052-2.668 4.74-4.759 7.275-6.973 2.536-2.214 4.998-4.655 6.379-7.725 1.387-3.085 1.582-6.588 2.852-9.723.902-2.226 2.317-4.197 3.586-6.236 1.269-2.039 2.425-4.228 2.707-6.613.274-2.314-.305-4.675-1.342-6.762-1.037-2.086-2.515-3.922-4.109-5.621-3.189-3.398-6.949-6.406-9.09-10.543-2.137-4.121-2.436-8.907-3.344-13.459-.454-2.276-1.075-4.54-2.145-6.6-1.069-2.06-2.614-3.919-4.619-5.088-2.652-1.546-5.838-1.771-8.891-2.094-1.526-.161-3.056-.357-4.533-.775-1.477-.418-2.908-1.07-4.08-2.061-1.162-.983-2.035-2.268-2.742-3.615-.707-1.348-1.262-2.768-1.887-4.156s-1.328-2.756-2.295-3.932c-.967-1.176-2.218-2.157-3.676-2.596-1.239-.373-2.574-.338-3.84-.07s-2.474.763-3.65 1.303c-2.352 1.079-4.714 2.377-7.301 2.467-1.953.068-3.878-.574-5.584-1.527-1.706-.953-3.221-2.209-4.713-3.471s-2.981-2.542-4.654-3.551c-1.673-1.01-3.557-1.745-5.51-1.807m10.844 32.439a5.19 5.19 0 0 1 .703 2.225c.22.695.446 1.391.66 2.088.319 1.039.632 2.124.447 3.195-.092.535-.314 1.057-.684 1.455-.369.398-.894.666-1.438.676a1.053 1.053 0 0 1-.563-.125 1.021 1.021 0 0 1-.379-.445 1.909 1.909 0 0 1-.154-1.063 3.1 3.1 0 0 1 .34-1.027c.332-.645.811-1.202 1.16-1.838a5.204 5.204 0 0 0 .637-2.584c-.002-.111-.018-.221-.027-.332-.234-.742-.462-1.485-.703-2.225m-5.191.252c.469.632.779 1.375.922 2.148.287.669.58 1.336.861 2.01.42 1 .842 2.051.764 3.135-.039.542-.209 1.084-.537 1.518-.328.433-.822.751-1.361.814-.193.023-.396 0-.572-.072a1.025 1.025 0 0 1-.424-.404 1.91 1.91 0 0 1-.258-1.041c.009-.363.103-.719.236-1.057.266-.675.688-1.276.973-1.943a5.203 5.203 0 0 0 .379-2.635c-.013-.109-.041-.214-.06-.322-.307-.716-.608-1.435-.922-2.148m-5.744.252a5.19 5.19 0 0 1 1.307 1.934c.409.604.823 1.205 1.227 1.813.601.905 1.213 1.858 1.34 2.938.064.54-.003 1.101-.244 1.588-.241.487-.664.892-1.182 1.057a1.059 1.059 0 0 1-.576.039 1.024 1.024 0 0 1-.49-.318 1.902 1.902 0 0 1-.451-.973 3.135 3.135 0 0 1 .031-1.084c.134-.713.438-1.383.592-2.092a5.192 5.192 0 0 0-.123-2.656c-.034-.106-.083-.207-.123-.311-.436-.644-.865-1.293-1.307-1.934m22.799.906c.194.761.199 1.563.039 2.332.012.729.033 1.46.039 2.189.009 1.087.002 2.218-.48 3.191-.241.487-.605.921-1.072 1.197-.468.277-1.043.386-1.566.24a1.06 1.06 0 0 1-.504-.281 1.02 1.02 0 0 1-.238-.535c-.058-.358.009-.73.154-1.063.146-.332.366-.627.617-.889.502-.524 1.123-.922 1.639-1.432a5.19 5.19 0 0 0 1.346-2.293c.03-.107.044-.217.066-.326-.013-.778-.019-1.555-.039-2.332m-34.676.92a5.195 5.195 0 0 1 1.971 1.25c.616.391 1.235.776 1.848 1.172.913.59 1.853 1.219 2.4 2.158.274.469.438 1.012.412 1.555-.026.543-.255 1.084-.664 1.441-.147.128-.32.234-.512.266a1.019 1.019 0 0 1-.576-.096 1.906 1.906 0 0 1-.803-.715 3.1 3.1 0 0 1-.4-1c-.161-.707-.153-1.443-.295-2.154a5.196 5.196 0 0 0-1.176-2.387c-.073-.084-.156-.158-.234-.236-.657-.417-1.31-.839-1.971-1.25m39.627 2a5.198 5.198 0 0 1-.4 2.303c-.125.717-.244 1.436-.375 2.152-.195 1.069-.415 2.179-1.072 3.045-.329.433-.766.793-1.277.977-.511.184-1.099.181-1.586-.06a1.051 1.051 0 0 1-.439-.371 1.025 1.025 0 0 1-.135-.57c0-.362.148-.715.354-1.014a3.12 3.12 0 0 1 .773-.756c.591-.42 1.274-.694 1.877-1.098a5.2 5.2 0 0 0 1.754-2c.049-.099.085-.203.127-.305.134-.767.274-1.534.4-2.303m-43.44 1.529a5.196 5.196 0 0 1 2.088 1.051c.65.327 1.304.65 1.951.982.967.497 1.966 1.028 2.604 1.908.319.44.537.963.564 1.506.028.543-.146 1.104-.518 1.5a1.056 1.056 0 0 1-.484.314 1.023 1.023 0 0 1-.584-.037 1.899 1.899 0 0 1-.867-.631 3.113 3.113 0 0 1-.5-.961c-.231-.688-.294-1.42-.506-2.113a5.21 5.21 0 0 0-1.406-2.26c-.08-.075-.169-.139-.254-.209-.696-.35-1.389-.707-2.088-1.051m47.924 1.094a5.195 5.195 0 0 1-.625 2.25c-.196.703-.384 1.407-.586 2.107-.3 1.045-.631 2.126-1.371 2.922-.37.398-.84.714-1.367.846s-1.112.07-1.572-.219a1.054 1.054 0 0 1-.402-.412 1.02 1.02 0 0 1-.076-.578c.046-.36.217-.7.451-.977a3.11 3.11 0 0 1 .846-.674c.63-.359 1.337-.564 1.977-.906a5.19 5.19 0 0 0 1.943-1.816c.059-.094.106-.195.158-.293.209-.749.423-1.499.625-2.25M380.29 84.1a5.175 5.175 0 0 1 2.244.639c.702.2 1.406.392 2.105.598 1.043.306 2.124.641 2.916 1.385.396.372.707.845.836 1.373s.066 1.111-.225 1.57a1.066 1.066 0 0 1-.416.4 1.017 1.017 0 0 1-.58.072 1.91 1.91 0 0 1-.973-.455 3.118 3.118 0 0 1-.672-.85c-.356-.632-.556-1.341-.895-1.982a5.188 5.188 0 0 0-1.805-1.953c-.094-.06-.195-.105-.293-.158-.748-.213-1.494-.433-2.244-.639m32.896 3.705a5.923 5.923 0 0 0-1.055.088c-.696.118-1.37.342-2.031.588-1.323.492-2.646 1.086-4.057 1.137-1.171.042-2.318-.295-3.455-.578s-2.33-.514-3.475-.262c-1.224.27-2.26 1.062-3.219 1.869-.959.807-1.914 1.667-3.082 2.121-1.344.523-2.833.456-4.266.619-.716.082-1.433.226-2.09.523-.657.298-1.252.758-1.623 1.377-.368.615-.495 1.35-.475 2.066.02.716.179 1.423.348 2.119.169.696.349 1.394.412 2.107.064.714.006 1.453-.285 2.107-.278.624-.756 1.142-1.293 1.564-.537.422-1.135.757-1.727 1.098-.592.341-1.183.691-1.697 1.141-.514.45-.952 1.01-1.164 1.656-.23.703-.182 1.474.014 2.188.195.713.531 1.38.877 2.033.346.654.706 1.303.953 2 .248.697.379 1.451.256 2.18-.149.879-.66 1.663-1.281 2.303-.621.64-1.354 1.157-2.061 1.701-.706.544-1.399 1.13-1.9 1.867a4.035 4.035 0 0 0-.568 1.203c-.117.43-.148.888-.068 1.326.137.751.593 1.411 1.141 1.943.547.533 1.187.958 1.799 1.416a19.967 19.967 0 0 1 5.25 5.879 40.177 40.177 0 0 1 2.311-20.789c2.158-5.474 5.598-10.519 10.289-14.07 4.085-3.093 9.159-5 14.279-4.828 5.913.2 11.551 3.189 15.539 7.559 3.661 4.01 5.997 9.08 7.561 14.279 1.597 5.314 2.442 10.84 2.73 16.381.337 6.479-.156 13.257-3.359 18.898-1.212 2.135-2.779 4.046-4.41 5.881-.222.25-.447.498-.637.773a2.572 2.572 0 0 0-.414.906c-.075.353-.048.724.065 1.066.112.343.307.656.555.918.496.523 1.19.829 1.9.955 1.036.184 2.098.009 3.15 0a9.944 9.944 0 0 1 2.939.42 16.254 16.254 0 0 1 2.311-6.51c1.226-1.973 2.858-3.654 4.32-5.459 1.462-1.805 2.79-3.811 3.24-6.09.294-1.488.197-3.034-.107-4.52-.304-1.486-.811-2.922-1.344-4.342-1.066-2.84-2.258-5.749-2.119-8.779.1-2.181.886-4.262 1.463-6.367.289-1.053.528-2.124.602-3.213.074-1.089-.022-2.199-.385-3.229-.371-1.051-1.012-1.993-1.766-2.814s-1.621-1.53-2.5-2.215c-1.759-1.37-3.632-2.71-4.764-4.631-.905-1.537-1.261-3.325-1.797-5.03-.268-.851-.585-1.692-1.037-2.461-.452-.769-1.044-1.467-1.787-1.961-.665-.442-1.433-.71-2.215-.871-.782-.161-1.58-.218-2.377-.268-1.593-.098-3.253-.184-4.646-.963-1.318-.737-2.236-2-3.189-3.172-.477-.585-.975-1.159-1.555-1.643-.579-.484-1.245-.877-1.977-1.064a4.45 4.45 0 0 0-1.047-.133m30.67 3.541a5.188 5.188 0 0 1-.945 2.133c-.295.667-.582 1.337-.883 2-.448.99-.929 2.02-1.775 2.697-.423.341-.936.582-1.477.637-.541.055-1.109-.088-1.523-.439a1.07 1.07 0 0 1-.34-.469c-.061-.188-.044-.393 0-.584.098-.349.314-.66.586-.9a3.13 3.13 0 0 1 .934-.547c.675-.265 1.406-.365 2.088-.611a5.191 5.191 0 0 0 2.184-1.516c.072-.085.131-.18.197-.27.314-.711.637-1.419.945-2.133m-72.59 1.23a5.19 5.19 0 0 1 2.268.553c.708.173 1.418.34 2.125.52 1.054.267 2.147.561 2.967 1.275.41.357.738.819.887 1.342.149.523.105 1.109-.168 1.578a1.057 1.057 0 0 1-.398.414 1.023 1.023 0 0 1-.578.094 1.913 1.913 0 0 1-.988-.42 3.092 3.092 0 0 1-.701-.822c-.379-.618-.607-1.319-.969-1.947a5.195 5.195 0 0 0-1.877-1.885c-.096-.056-.199-.099-.299-.148-.756-.185-1.51-.375-2.268-.553m75.859 3.502a5.192 5.192 0 0 1-1.33 1.922c-.414.599-.825 1.202-1.244 1.797-.626.888-1.292 1.803-2.252 2.313-.48.255-1.027.4-1.568.352-.541-.048-1.073-.297-1.414-.721a1.066 1.066 0 0 1-.244-.523 1.029 1.029 0 0 1 .117-.574c.161-.325.434-.587.746-.771a3.092 3.092 0 0 1 1.02-.361c.713-.133 1.448-.094 2.164-.207a5.207 5.207 0 0 0 2.434-1.08c.086-.069.161-.148.242-.223.443-.64.892-1.277 1.33-1.922m-77.75 1.045a5.273 5.273 0 0 1 1.727.346c.721.102 1.442.199 2.162.307 1.075.161 2.192.345 3.078.975.443.315.818.741 1.018 1.246.2.505.214 1.094-.012 1.588a1.057 1.057 0 0 1-.357.451c-.165.11-.367.152-.564.152-.363 0-.718-.124-1.023-.32a3.11 3.11 0 0 1-.781-.75c-.439-.578-.734-1.25-1.156-1.84a5.197 5.197 0 0 0-2.057-1.691c-.1-.046-.204-.078-.307-.117-.771-.109-1.542-.224-2.314-.326.196-.018.392-.025.588-.019m80.72 3.219a5.188 5.188 0 0 1-1.512 1.779v-.002c.504-.592 1.013-1.181 1.512-1.777m-78.74 1.598c.823-.005 1.645.064 2.387.402.494.226.939.574 1.23 1.033.292.459.418 1.031.289 1.559a1.068 1.068 0 0 1-.266.514 1.016 1.016 0 0 1-.525.254c-.356.07-.732.014-1.068-.121a3.1 3.1 0 0 1-.908-.59c-.539-.485-.956-1.092-1.482-1.592a5.19 5.19 0 0 0-2.334-1.271c-.108-.026-.219-.037-.328-.057-.777.038-1.554.068-2.33.113a5.169 5.169 0 0 1 2.33-.113c.729-.036 1.457-.078 2.186-.107.271-.011.546-.022.82-.023m77.22.185c-.471.554-.939 1.112-1.414 1.662-.711.822-1.463 1.666-2.469 2.078-.503.206-1.064.293-1.598.191-.534-.101-1.039-.402-1.336-.857a1.063 1.063 0 0 1-.191-.543 1.01 1.01 0 0 1 .174-.557c.193-.307.492-.544.82-.697a3.105 3.105 0 0 1 1.049-.256c.723-.062 1.452.048 2.176.006a5.193 5.193 0 0 0 2.525-.832c.091-.06.176-.13.264-.195m99.2 2.105c-2.832.052-5.634.79-8.311 1.746-3.059 1.092-6.01 2.474-9.09 3.512-3.434 1.158-6.998 1.878-10.484 2.865-3.487.987-6.948 2.269-9.875 4.406-3.49 2.548-6.03 6.163-8.439 9.748-2.413 3.585-4.817 7.265-8.139 10.03-4.083 3.399-9.265 5.178-13.672 8.145-4.594 3.093-8.259 7.435-11.05 12.217a48.603 48.603 0 0 0-4.652 10.762 3.985 3.985 0 0 1 2.203-.008 3.998 3.998 0 0 1 1.869 1.17c.465.52.783 1.151 1.156 1.74.374.589.83 1.161 1.461 1.459.605.286 1.317.289 1.963.115.646-.173 1.237-.512 1.793-.885.556-.373 1.084-.785 1.656-1.133.572-.347 1.196-.631 1.859-.715.788-.1 1.595.089 2.307.441.712.353 1.336.863 1.9 1.422 1.13 1.117 2.06 2.451 3.355 3.371 1.566 1.112 3.517 1.515 5.42 1.777 1.902.262 3.85.419 5.633 1.133 2.537 1.015 4.588 3.177 5.469 5.764.881 2.587.574 5.554-.816 7.906l-.086 2.057a8.038 8.038 0 0 1-2.432-1.443c-.989-.867-1.745-2.01-2.1-3.273-.421-1.5-.272-3.091-.295-4.648-.012-.779-.068-1.561-.26-2.316-.192-.755-.525-1.485-1.041-2.068a4.295 4.295 0 0 0-1.65-1.137 5.199 5.199 0 0 0-1.979-.342c-1.348.022-2.656.516-3.811 1.213a11.438 11.438 0 0 0-5.05 6.643 4.84 4.84 0 0 1-1.494-2.449 4.842 4.842 0 0 1 .166-2.865c.281-.745.742-1.406 1.166-2.08.424-.674.825-1.387.961-2.172a3.514 3.514 0 0 0-.957-3.03 3.476 3.476 0 0 0-3.03-.953c-.919.167-1.728.705-2.436 1.314-.707.61-1.343 1.302-2.082 1.873-1.525 1.177-3.419 1.772-5.313 2.127-.827.155-1.671.269-2.508.182-.837-.087-1.673-.394-2.275-.98-.467-.455-.773-1.055-.953-1.682-.18-.626-.241-1.281-.275-1.932-.034-.651-.04-1.304-.115-1.951-.075-.647-.22-1.294-.516-1.875a4.056 4.056 0 0 0-1.393-1.543 4.334 4.334 0 0 0-1.969-.68c-1.396-.128-2.822.436-3.814 1.426-1.116 1.113-1.671 2.687-1.859 4.252a11.208 11.208 0 0 0-.057 1.709c.062.313.093.63.057.947-.038-.314-.046-.631-.057-.947a3.112 3.112 0 0 0-.656-1.412 3.145 3.145 0 0 0-2.209-1.094c-.443-.023-.888.05-1.328 0-.658-.074-1.264-.419-1.746-.873s-.851-1.014-1.184-1.586c-.333-.572-.635-1.164-1.01-1.713-.37-.549-.816-1.06-1.379-1.408-.606-.376-1.33-.547-2.043-.529a4.836 4.836 0 0 0-2.053.541c-1.272.645-2.254 1.746-3.078 2.91-1.983 2.802-3.222 6.142-3.455 9.566-.167 2.448.206 5.01 1.533 7.07.664 1.032 1.561 1.921 2.633 2.518 1.072.597 2.318.892 3.539.773 1.538-.15 2.943-.93 4.201-1.826 1.258-.896 2.428-1.927 3.771-2.689a11.257 11.257 0 0 1 7.174-1.33c-3.521.551-6.779 2.623-8.77 5.58-1.866 2.772-2.601 6.259-2.125 9.566.162 1.123.469 2.254 1.129 3.178.33.462.747.865 1.236 1.152a3.18 3.18 0 0 0 1.621.451c.6-.004 1.187-.199 1.707-.498s.978-.699 1.396-1.129c1.016-1.042 1.84-2.283 3.01-3.154a6.375 6.375 0 0 1 4.863-1.156 6.375 6.375 0 0 1 4.172 2.75 12.775 12.775 0 0 0-6.111 1.063c-3.135 1.394-5.674 4.148-6.643 7.439a10.38 10.38 0 0 0-.336 4.414c.215 1.471.778 2.896 1.664 4.09 1.229 1.655 3.058 2.827 5.04 3.391 1.983.564 4.112.536 6.119.063a14.283 14.283 0 0 0 5.846-2.922c.371 1.857.725 3.715 1.063 5.578.209 1.155.414 2.318.805 3.426.39 1.107.978 2.167 1.852 2.951.706.634 1.579 1.069 2.494 1.318.915.25 1.873.32 2.82.277 1.668-.075 3.331-.506 4.783-1.33a9.57 9.57 0 0 0 4.25-5.05 4.36 4.36 0 0 1 .213 2.557 4.356 4.356 0 0 1-1.275 2.225c-.515.48-1.139.827-1.697 1.256a4.267 4.267 0 0 0-.76.729 2.38 2.38 0 0 0-.465.939c-.092.412-.047.849.094 1.248.14.399.371.761.646 1.082.55.642 1.264 1.116 1.916 1.654 1.124.927 2.073 2.045 3.104 3.074 1.031 1.029 2.176 1.991 3.539 2.506 1.935.731 4.1.483 6.111 0a27.787 27.787 0 0 0 6.377-2.391 11.663 11.663 0 0 1-5.314 4.783 11.74 11.74 0 0 1-6.908.797c-2.677-.507-5.111-1.94-7.174-3.721a23.212 23.212 0 0 1-5.58-7.174 9.39 9.39 0 0 1-4.25.266c-2.102-.355-4.05-1.438-5.58-2.922a12.43 12.43 0 0 1-3.721-8.238 21.99 21.99 0 0 1-9.598-.266c-2.613-.664-5.188-1.881-6.875-3.984-1.439-1.795-2.119-4.093-2.393-6.377a21.222 21.222 0 0 1 0-5.05 11.415 11.415 0 0 1-5.844-4.252 11.388 11.388 0 0 1-2.055-5.652 11.39 11.39 0 0 1 1.133-5.908 9.704 9.704 0 0 1-3.861-.395c-2.994-.938-5.457-3.421-6.371-6.422a67.626 67.626 0 0 0-3.992 2.701c-1.273.929-2.52 1.909-3.57 3.084-1.051 1.174-1.903 2.559-2.275 4.09-.53 2.18-.015 4.582 1.33 6.377 1.508 2.01 3.92 3.187 6.377 3.721 2.595.564 5.328.486 7.887-.227a10.05 10.05 0 0 1-5.23 4.211c-2.418.839-5.189.688-7.439-.531-1.395-.756-2.563-1.891-3.477-3.188-.914-1.297-1.581-2.754-2.104-4.252-.836-2.398-1.31-4.995-.803-7.484.343-1.682 1.125-3.258 2.158-4.629 1.033-1.371 2.312-2.543 3.693-3.563a24.378 24.378 0 0 1 3.984-2.393 14.332 14.332 0 0 1 .531-5.578 14.384 14.384 0 0 1 4.389-6.734 25.911 25.911 0 0 1-4.121-3.629c-.796-.867-1.535-1.789-2.381-2.607-.846-.818-1.816-1.541-2.934-1.91a5.862 5.862 0 0 0-1.707-.287c-.966-.023-1.947.168-2.855.508-1.453.544-2.746 1.448-3.941 2.438-1.309 1.083-2.53 2.292-3.453 3.719-1.215 1.878-1.879 4.158-1.594 6.377.172 1.341.684 2.63 1.43 3.758.746 1.128 1.722 2.097 2.82 2.885a12.863 12.863 0 0 0 7.439 2.393 26.117 26.117 0 0 1-6.377.797c-2.998.003-6.121-.57-8.502-2.393-1.07-.819-1.947-1.857-2.93-2.779-.982-.922-2.124-1.751-3.447-2-.934-.177-1.907-.054-2.807.254-.899.308-1.73.794-2.508 1.34-1.453 1.021-2.768 2.296-3.574 3.879a7.093 7.093 0 0 0-.756 2.537c-.083.884.023 1.79.346 2.617.404 1.035 1.126 1.916 1.594 2.924a6.543 6.543 0 0 1 .531 3.719 1.91 1.91 0 0 1 1.525-.568 1.908 1.908 0 0 1 1.398.834c.18.271.286.583.43.875.072.146.154.289.258.414.103.125.229.235.375.307.261.127.574.124.846.022.271-.102.502-.297.676-.529.347-.465.467-1.055.604-1.619.264-1.09.62-2.157 1.063-3.188a9.18 9.18 0 0 0 0 7.174c.607 1.408 1.565 2.643 2.658 3.719 2.027 1.996 4.529 3.47 7.174 4.518 1.271.503 2.622.917 3.984.797a5.277 5.277 0 0 0 2.51-.902 5.264 5.264 0 0 0 1.742-2.02 17.232 17.232 0 0 0 4.783 8.236c1.134 1.083 2.459 2.028 3.984 2.391a6.07 6.07 0 0 0 4.447-.676 6.067 6.067 0 0 0 2.727-3.574 11.568 11.568 0 0 1-2.656 5.313c-.84.949-1.843 1.761-2.977 2.328-1.133.567-2.399.887-3.666.861-1.056-.021-2.116-.287-3.02-.83-.906-.543-1.651-1.372-2.027-2.359-.288-.755-.356-1.574-.404-2.381-.048-.807-.079-1.623-.301-2.4a5.117 5.117 0 0 0-2.217-2.924 6.01 6.01 0 0 1-1.861 1.861c-1.051.664-2.3.986-3.543 1-1.243.016-2.48-.266-3.631-.736-2.477-1.013-4.516-2.859-6.377-4.783-2.921-3.02-5.543-6.317-8.502-9.299-.949-.956-1.939-1.887-3.088-2.59-1.149-.703-2.474-1.171-3.82-1.131-1.456.044-2.849.682-3.984 1.594-1.322 1.061-2.316 2.466-3.455 3.721a20.613 20.613 0 0 1-2.922 2.656 26.143 26.143 0 0 0 1.859 2.658c1.172 1.471 2.512 2.823 4.074 3.871 1.562 1.048 3.353 1.783 5.225 1.973a9.79 9.79 0 0 0 6.377-1.594 13.282 13.282 0 0 0-4.25 4.518c-1.745 3.057-2.198 6.651-2.924 10.1-.513 2.432-1.203 4.891-2.656 6.908-.375.521-.803 1.012-1.305 1.412-.502.4-1.082.71-1.709.85a3.586 3.586 0 0 1-2.566-.4 13.84 13.84 0 0 0 8.768 5.842 77.767 77.767 0 0 1-6.908 15.41c-3.967 6.766-8.956 12.925-12.488 19.928-8.175 16.205-7.818 35.17-10.361 53.14-1.208 8.535-3.104 16.964-4.252 25.508-.374 2.782-.668 5.589-.518 8.393.151 2.803.763 5.618 2.111 8.08 2.317 4.229 6.534 7.02 10.629 9.566 2.264 1.407 4.587 2.811 7.174 3.453 2.676.664 5.482.475 8.227.211 2.744-.264 5.518-.598 8.248-.211 1.694.241 3.336.755 5.01 1.119 1.672.364 3.417.577 5.088.209 1.366-.301 2.631-.982 3.721-1.859 2.399-1.932 3.931-4.749 4.992-7.641 1.062-2.892 1.713-5.92 2.713-8.834 1.124-3.274 2.68-6.378 4.04-9.563 1.569-3.68 2.886-7.498 4.996-10.896a26.858 26.858 0 0 1 5.846-6.643c-.55 4.588-.905 9.201-1.063 13.818-.092 2.702-.118 5.414-.514 8.09-.396 2.674-1.183 5.334-2.676 7.588-1.776 2.68-4.432 4.627-7.01 6.553-2.574 1.926-5.186 3.958-6.811 6.732-.738 1.26-1.249 2.637-1.932 3.928-.683 1.29-1.578 2.529-2.85 3.246-1.24.699-2.734.836-4.145.648-1.411-.188-2.762-.679-4.094-1.18a236.23 236.23 0 0 1-3.453-1.328 24.78 24.78 0 0 1-1.594 12.221 16.384 16.384 0 0 1 6.109 0c2.497.475 4.9 1.535 7.441 1.596 1.802.043 3.65-.456 5.05-1.596 1.104-.901 1.875-2.148 2.459-3.447.584-1.299 1-2.669 1.527-3.992 2.406-6.04 6.99-10.916 11.426-15.676 8.06-8.647 16.228-17.637 26.836-22.85 5.428-2.667 11.322-4.25 16.848-6.707 2.763-1.228 5.443-2.683 7.826-4.545 2.383-1.861 4.467-4.144 5.881-6.816 1.885-3.563 2.51-7.663 2.658-11.691.128-3.48-.078-6.966.063-10.445.14-3.479.643-7 2.107-10.162 1.405-3.03 3.631-5.601 5.32-8.484a26.907 26.907 0 0 0 2.34-5.184 22.36 22.36 0 0 1-7.971-2.391 22.386 22.386 0 0 1-6.908-5.58c6.185-2.919 13.596-3.117 19.928-.531 2.903 1.185 5.548 2.907 8.236 4.521 2.688 1.615 5.477 3.148 8.521 3.896 3.588.882 7.416.623 10.934-.508 3.518-1.131 6.731-3.112 9.494-5.564 5.527-4.906 9.181-11.559 12.234-18.289a153.251 153.251 0 0 0 11.16-35.604 58.567 58.567 0 0 1-7.971 8.768c-6.102 5.473-13.392 9.644-21.256 11.957-7.24 2.129-14.888 2.686-22.05 5.05a45.87 45.87 0 0 0-18.07 11.16 26.185 26.185 0 0 1 7.705-9.566c4.469-3.433 9.929-5.329 15.41-6.643 6.453-1.546 13.172-2.396 19.13-5.314a29.941 29.941 0 0 0 6.111-3.984c-.484-2.164-1.994-4.076-3.986-5.05-1.689-.825-3.648-.988-5.314-1.859a7.013 7.013 0 0 1-3.453-4.252 5.205 5.205 0 0 0 2.467 1.428 5.195 5.195 0 0 0 2.848-.1c1.229-.399 2.29-1.273 2.951-2.383s.922-2.446.768-3.729c-.106-.876-.407-1.74-.955-2.432-.548-.691-1.355-1.195-2.232-1.287-.805-.084-1.609.172-2.342.516-.733.344-1.424.777-2.176 1.078-1.969.789-4.308.586-6.111-.531a4.554 4.554 0 0 0 3.721-1.328c.632-.65 1.054-1.485 1.297-2.357.243-.873.311-1.786.297-2.691-.028-1.772-.401-3.602-1.465-5.02-.532-.709-1.233-1.301-2.047-1.652-.814-.351-1.741-.455-2.6-.236-.601.153-1.157.457-1.65.834-.493.377-.927.824-1.338 1.289-.822.93-1.575 1.949-2.592 2.66a5.748 5.748 0 0 1-3.869.994 5.748 5.748 0 0 1-3.57-1.791 11.962 11.962 0 0 0 7.705-2.658c1.512-1.232 2.734-2.887 3.189-4.783.449-1.87.116-3.906-.871-5.557-.987-1.65-2.609-2.901-4.443-3.477-1.575-.494-3.256-.5-4.906-.477-.349.005-.699-.005-1.049-.002l.107-.09c1.91-4.051 4.02-8.05 6.689-11.633 1.516-2.036 3.094-4.166 5.236-5.527 1.875-1.191 4.196-1.464 6.326-2.094 2.138-.632 4.426-.799 6.471-1.688 2.112-.917 3.776-2.667 5.836-3.695 2.035-1.015 4.112-2.256 6.381-2.412 1.559-.107 3.071.605 4.572 1.041 1.509.438 2.901 1.274 4.443 1.576 2.061.404 4.233-.109 6.295.291 1.955.379 3.979.871 5.637 1.975 2.933 1.953 4.608 5.338 7.07 7.857 2.301 2.352 5.222 4.127 7.189 6.764 3.85 5.159 6.847 11.08 8.684 17.25 6.447 21.661 8.914 44.812 7.588 67.37-.468 7.959-2.113 16.05-5.443 23.291-3.309 7.198-7.794 14.305-14.04 19.17-6.107 4.758-13.708 7.977-21.523 8.727 4.834 2.069 9.681 4.105 14.543 6.107 3.191 1.314 6.449 2.63 9.889 2.908 2.533.205 5.12-.17 7.461-1.16 2.341-.99 4.426-2.599 5.918-4.656 1.42-1.957 2.275-4.254 3.176-6.498.9-2.244 1.89-4.51 3.514-6.301 1.182-1.303 2.652-2.301 4.068-3.344 1.417-1.043 2.818-2.168 3.785-3.637.883-1.341 1.364-2.917 1.568-4.51.205-1.592.142-3.207.008-4.807-.27-3.2-.824-6.455-.121-9.588.674-3 2.444-5.618 4.02-8.26.789-1.321 1.539-2.672 2.092-4.107.552-1.436.904-2.966.867-4.504-.063-2.674-1.275-5.169-2.463-7.564-1.188-2.396-2.405-4.887-2.482-7.561-.047-1.63.34-3.249.938-4.766.598-1.517 1.404-2.94 2.232-4.344 1.658-2.808 3.457-5.683 3.813-8.924.334-3.051-.656-6.082-1.764-8.945-1.108-2.863-2.364-5.736-2.6-8.797-.291-3.774.993-7.471 2.24-11.04 1.247-3.574 2.493-7.291 2.123-11.06-.322-3.271-1.839-6.291-3.367-9.201-1.528-2.911-3.12-5.873-3.615-9.123-.616-4.04.514-8.107 1.518-12.06 1-3.957 1.891-8.141.811-12.08-.968-3.528-3.416-6.453-6.03-9.01-2.613-2.56-5.478-4.905-7.641-7.855-2.408-3.286-3.83-7.167-5.465-10.898-1.634-3.731-3.595-7.469-6.752-10.04-2.793-2.278-6.313-3.467-9.824-4.281-3.511-.815-7.105-1.303-10.535-2.408-2.785-.897-5.425-2.19-8.131-3.305-2.706-1.115-5.527-2.064-8.449-2.223-.405-.022-.81-.029-1.215-.022m-90.82 15.26a5.183 5.183 0 0 1-1.867 1.4c-.583.438-1.163.882-1.75 1.314-.875.645-1.795 1.302-2.867 1.482-.536.09-1.099.051-1.598-.166-.498-.217-.926-.62-1.115-1.129a1.057 1.057 0 0 1-.066-.574c.039-.194.153-.364.293-.504.256-.257.597-.423.951-.5a3.107 3.107 0 0 1 1.084-.019c.718.099 1.404.367 2.119.486a5.184 5.184 0 0 0 2.646-.254c.104-.039.201-.091.303-.137.622-.467 1.249-.928 1.867-1.4m-7.592 5.52c.363-.009.725.067 1.068.184.687.233 1.308.624 1.988.875a5.19 5.19 0 0 0 2.648.25c.108-.018.213-.051.32-.076.7-.342 1.405-.677 2.102-1.025a5.188 5.188 0 0 1-2.102 1.025c-.654.32-1.306.645-1.963.959-.981.469-2.01.941-3.094.916-.543-.012-1.092-.154-1.541-.461-.449-.307-.791-.784-.881-1.32a1.063 1.063 0 0 1 .043-.576c.075-.183.219-.33.383-.441.3-.204.665-.3 1.027-.309m.568 4.367c.362.027.711.139 1.041.289.661.3 1.242.751 1.895 1.068a5.21 5.21 0 0 0 2.611.51c.111-.008.22-.03.33-.045.729-.27 1.461-.534 2.188-.811a5.191 5.191 0 0 1-2.188.811c-.684.254-1.367.514-2.053.762-1.022.369-2.091.738-3.17.605-.539-.066-1.07-.264-1.486-.613-.416-.349-.709-.858-.746-1.4a1.053 1.053 0 0 1 .098-.568c.093-.175.252-.306.426-.4a1.912 1.912 0 0 1 1.055-.207m-45.36 8.119a59.896 59.896 0 0 0-7.77 11.549c-2.346 4.551-4.124 9.484-4.41 14.596-.108 1.932.002 3.898.594 5.74s1.696 3.56 3.291 4.654c1.263.867 2.781 1.312 4.305 1.471a12.85 12.85 0 0 0 4.83-.42 13.846 13.846 0 0 1 .736-4.516c.624-1.834 1.629-3.522 2.834-5.04a21.944 21.944 0 0 1 6.404-5.461c-4.795-2.309-8.592-6.61-10.289-11.654a20.147 20.147 0 0 1-.525-10.92m45.576 11.09c.36-.04.73.045 1.055.207.324.162.608.397.857.66.498.527.864 1.167 1.348 1.707a5.19 5.19 0 0 0 2.225 1.457c.106.035.215.056.322.084.777.025 1.555.056 2.332.074a5.19 5.19 0 0 1-2.332-.074c-.729-.024-1.459-.04-2.188-.07-1.086-.044-2.215-.107-3.164-.637-.474-.265-.891-.648-1.145-1.129-.253-.481-.333-1.062-.162-1.578.061-.185.157-.365.307-.49.152-.127.348-.189.545-.211m-2.23 3.344c.362.028.706.183.994.402.288.22.524.505.719.811.39.611.628 1.306 1 1.928a5.201 5.201 0 0 0 1.912 1.852c.096.054.197.093.297.141.76.171 1.52.349 2.281.514a5.194 5.194 0 0 1-2.281-.514c-.71-.16-1.422-.313-2.131-.479-1.058-.248-2.156-.522-2.988-1.221-.416-.35-.754-.804-.912-1.324-.158-.52-.126-1.108.139-1.582.095-.17.222-.327.393-.422a1.02 1.02 0 0 1 .576-.105m105.18 2.949c-.52.579-1.029 1.166-1.543 1.75-.053.097-.113.19-.16.291a5.198 5.198 0 0 0-.463 2.621c.062.723.276 1.426.318 2.15.021.362 0 .729-.104 1.076a1.915 1.915 0 0 1-.572.91 1.026 1.026 0 0 1-.527.252 1.056 1.056 0 0 1-.564-.111c-.493-.229-.864-.685-1.041-1.199-.177-.514-.169-1.08-.037-1.607.264-1.054.991-1.921 1.703-2.742.478-.551.965-1.094 1.447-1.641a5.18 5.18 0 0 1 1.543-1.75m-107.73.697c.099-.006.199.002.297.019.357.064.686.251.951.498.265.248.467.554.631.877.328.647.499 1.364.809 2.02.383.81.983 1.519 1.719 2.031.091.063.19.114.285.172.738.245 1.475.496 2.215.734a5.204 5.204 0 0 1-2.215-.734c-.692-.23-1.386-.454-2.076-.689-1.028-.351-2.093-.734-2.852-1.512-.379-.389-.671-.875-.777-1.408-.106-.533-.016-1.115.295-1.561.111-.16.255-.304.434-.381a.852.852 0 0 1 .285-.066m85.66.512c.048.776.109 1.552.164 2.328.032.106.055.214.094.318.314.84.851 1.596 1.541 2.168.558.463 1.212.803 1.758 1.281.273.239.519.514.693.832.174.318.273.685.246 1.047-.015.197-.07.396-.191.553a1.055 1.055 0 0 1-.477.324c-.509.19-1.092.133-1.582-.102s-.891-.638-1.174-1.102c-.566-.928-.67-2.053-.756-3.137-.058-.727-.101-1.456-.152-2.184a5.199 5.199 0 0 1-.164-2.328m26.717 1.119c-.575.525-1.142 1.061-1.713 1.592-.062.091-.13.177-.186.271a5.207 5.207 0 0 0-.719 2.563c0 .725.133 1.447.104 2.172a3.129 3.129 0 0 1-.213 1.061 1.921 1.921 0 0 1-.656.85 1.019 1.019 0 0 1-.551.197 1.064 1.064 0 0 1-.553-.166c-.468-.277-.791-.768-.916-1.297-.125-.529-.06-1.092.123-1.604.367-1.023 1.177-1.812 1.967-2.559.529-.5 1.066-.992 1.6-1.488a5.188 5.188 0 0 1 1.713-1.592m-31.395 2.227c.193.755.4 1.507.6 2.26.051.097.095.197.152.291a5.194 5.194 0 0 0 1.924 1.84c.635.35 1.339.563 1.965.93.313.183.605.406.836.686.231.28.398.618.439.979.023.197.008.403-.082.58a1.06 1.06 0 0 1-.408.408c-.464.283-1.049.338-1.574.199-.526-.138-.992-.459-1.357-.861-.73-.805-1.046-1.891-1.334-2.939-.193-.702-.374-1.408-.561-2.111a5.192 5.192 0 0 1-.6-2.26m36.545.328c-.663.407-1.318.827-1.977 1.24-.079.078-.163.151-.236.234a5.176 5.176 0 0 0-1.189 2.379c-.146.71-.139 1.446-.305 2.152a3.066 3.066 0 0 1-.408 1 1.908 1.908 0 0 1-.807.709c-.181.08-.383.125-.578.092a1.066 1.066 0 0 1-.512-.268c-.407-.36-.629-.902-.652-1.445-.023-.543.141-1.085.418-1.553.553-.936 1.498-1.558 2.414-2.143.615-.393 1.237-.775 1.855-1.162a5.19 5.19 0 0 1 1.977-1.24m-40.785 2.676c.267.731.545 1.457.818 2.186.061.093.117.189.184.277a5.199 5.199 0 0 0 2.094 1.641c.667.285 1.39.427 2.049.73.329.152.643.344.9.6.257.255.458.577.535.932.042.193.046.399-.025.584-.07.182-.21.328-.365.445-.434.327-1.01.439-1.547.354-.537-.086-1.034-.358-1.438-.723-.806-.729-1.229-1.777-1.619-2.791-.262-.681-.512-1.366-.768-2.049a5.182 5.182 0 0 1-.818-2.186m-166.93 3.848a12.455 12.455 0 0 0-5.07.896c-2.971 1.206-5.423 3.602-6.779 6.508-1.72 3.687-1.666 8.02-.541 11.932.469 1.631 1.121 3.218 2.035 4.648.914 1.43 2.097 2.702 3.523 3.621a9.2 9.2 0 0 0 3.475 1.365c1.237.203 2.524.122 3.711-.281 1.734-.589 3.181-1.834 4.338-3.254a16.036 16.036 0 0 0 3.119-6.236 8.273 8.273 0 0 1-4.682.139 8.263 8.263 0 0 1-3.996-2.443c-1.545-1.718-2.308-4.063-2.305-6.373a11.296 11.296 0 0 1 2.305-6.777 11.368 11.368 0 0 1 3.932-3.256 12.24 12.24 0 0 0-3.064-.488m186.53 5.5c-.336.006-.673.03-1.01.072-1.857.234-3.588 1.057-5.211 1.99-1.623.933-3.18 1.992-4.887 2.762-1.875.846-3.89 1.325-5.873 1.873s-3.974 1.178-5.709 2.283c-2.868 1.826-4.875 4.949-5.346 8.316a9.615 9.615 0 0 0 5.049 5.346 69.928 69.928 0 0 1 2.971-4.455c2.35-3.25 5.02-6.334 8.314-8.613 4.554-3.146 10.224-4.614 15.74-4.156 6.237.518 12.12 3.421 16.928 7.424 9.327 7.761 14.737 19.371 17.521 31.18 2.518 10.678 3.36 21.716 3.564 32.668.234 12.503 1.222 25.537-2.674 37.42-3.158 9.631-11.501 19.63-16.211 25.727 3.297-.988 12.624-11.812 15.6-16.391 7.991-12.297 6.877-21.721 7.738-36.36 1.019-17.32-1.247-35.01-6.236-51.674-2.238-7.473-5.614-14.839-11.285-20.2-1.937-1.83-4.117-3.401-5.939-5.346-1.583-1.69-2.898-3.659-4.752-5.05-1.593-1.193-3.504-1.891-5.436-2.369-1.932-.478-3.909-.753-5.85-1.195-2.319-.529-4.654-1.303-7.01-1.26m-64.709 12.508a16.72 16.72 0 0 0-6.701 7.947c-.889 2.216-1.29 4.68-.779 7.01.374 1.711 1.255 3.333 2.596 4.461 1.34 1.128 3.153 1.724 4.885 1.461 1.086-.165 2.097-.647 3.072-1.152.976-.506 1.945-1.047 3-1.342a7.016 7.016 0 0 1 4.27.172 7.017 7.017 0 0 1 3.367 2.633 7.379 7.379 0 0 0-4.832.469c-1.165.541-2.193 1.407-2.84 2.518-.647 1.11-.895 2.467-.588 3.715.275 1.12.973 2.103 1.822 2.885.849.781 1.848 1.379 2.854 1.945.985.555 2 1.089 3.104 1.338a5.244 5.244 0 0 0 1.684.117 3.851 3.851 0 0 0 1.602-.52c.903-.548 1.494-1.483 1.98-2.42.486-.937.91-1.926 1.604-2.723a5.058 5.058 0 0 1 2.172-1.459 5.051 5.051 0 0 1 2.609-.172 5.07 5.07 0 0 1 2.346 1.162 5.056 5.056 0 0 1 1.443 2.184 6.222 6.222 0 0 0-4.52-.156 6.199 6.199 0 0 0-2.768 1.986 6.178 6.178 0 0 0-1.283 3.156 5.585 5.585 0 0 0 .182 2.164 4.732 4.732 0 0 0 1.064 1.887c.568.608 1.304 1.044 2.09 1.316.786.272 1.622.384 2.453.4 1.663.032 3.307-.316 4.963-.471a21.567 21.567 0 0 1 8.568.936 7.785 7.785 0 0 0-6.076 2.338c-1.247 1.298-2.01 3.038-2.182 4.83-.207 2.192.503 4.485 2.025 6.076a7.19 7.19 0 0 0 3.635 2.037 7.308 7.308 0 0 0 4.156-.322c2.058-.793 3.714-2.566 4.363-4.674-.077 2.692-1.593 5.3-3.895 6.699a7.71 7.71 0 0 1-3.902 1.135 6.937 6.937 0 0 1-3.889-1.135c-1.144-.761-2.028-1.873-2.65-3.098-.622-1.225-.994-2.563-1.246-3.914a24.138 24.138 0 0 1-.313-6.545 11.672 11.672 0 0 1-5.141.936c-1.456-.068-2.905-.416-4.207-1.07-1.302-.655-2.453-1.622-3.273-2.826a8.037 8.037 0 0 1-1.246-5.92 13.086 13.086 0 0 1-7.635-.469c-1.378-.519-2.676-1.279-3.729-2.309-1.053-1.03-1.853-2.335-2.193-3.768a7.018 7.018 0 0 1 1.092-5.609 9.868 9.868 0 0 1-5.604.576 9.867 9.867 0 0 1-4.994-2.602c-1.354-1.318-2.307-3.02-2.854-4.83-.547-1.809-.698-3.725-.574-5.611.147-2.236.692-4.483 1.871-6.389a10.58 10.58 0 0 1 3.865-3.676 10.588 10.588 0 0 1 5.172-1.311m-18.746 44.873a13.08 13.08 0 0 1-2.863 6.609 13.076 13.076 0 0 1-5.068 3.746 14.622 14.622 0 0 1 8.152 6.83c2.236 4.123 2.326 9.198.881 13.66-1.655 5.108-5.389 9.631-10.354 11.676-3.629 1.495-7.872 1.598-11.457 0-3.742-1.668-6.541-5.05-8.152-8.813a21.992 21.992 0 0 1-1.762-9.03 19.589 19.589 0 0 1-8.152 1.102c-5.764-.451-11.257-3.613-14.541-8.371a24.478 24.478 0 0 0 12.338 4.186c4.508.253 9.02-.76 13.219-2.424 7.491-2.97 13.998-7.938 20.27-12.998a505.341 505.341 0 0 0 7.49-6.17m-20.611 4.193a20.756 20.756 0 0 1 4.75.434 20.395 20.395 0 0 0-9.254 3.084c-2.209 1.398-4.173 3.238-6.609 4.188-2.769 1.079-5.877.891-8.783.27-2.906-.622-5.712-1.657-8.623-2.254a29.406 29.406 0 0 0-10.574-.219 26.705 26.705 0 0 1 8.813-1.984c5.59-.286 11.273 1.183 16.744 0 3.02-.653 5.82-2.089 8.813-2.863a20.823 20.823 0 0 1 4.725-.654m116.45 4.18a62.026 62.026 0 0 1-20.27 18.07 62.019 62.019 0 0 1-27.98 7.711 8.02 8.02 0 0 0 4.406 3.084c1.826.496 3.766.326 5.631.004 1.865-.322 3.715-.791 5.605-.885 3.97-.198 7.996 1.363 10.795 4.186-4.372-1.871-9.509-1.871-13.881 0-2.343 1-4.523 2.528-7.05 2.863-1.808.24-3.642-.159-5.379-.717-1.737-.558-3.425-1.275-5.197-1.705a16.69 16.69 0 0 0-9.914.66 28.566 28.566 0 0 1 11.236-10.795c7.676-4.069 16.714-4.405 25.12-6.609 10.193-2.673 19.612-8.233 26.879-15.863m-80.86 26.437a28.533 28.533 0 0 1-7.49 13.66c-3.231 3.267-7.276 5.733-11.678 7.05a27.004 27.004 0 0 1-16.08-.221 39.12 39.12 0 0 0 14.98-3.086c3.56-1.507 6.888-3.541 9.914-5.947a47.355 47.355 0 0 0 10.355-11.457m-58.643 4.596a488.388 488.388 0 0 0-11.84 25.861c-2.946 6.966-5.733 14-8.102 21.19a194.51 194.51 0 0 0-6.543 25.551 97.682 97.682 0 0 1 2.805-25.551c1.992-8.09 5.02-15.905 8.725-23.367a137.082 137.082 0 0 1 14.955-23.68m135.71.166a48.507 48.507 0 0 1-6.93 9.24c-3.819 3.995-8.321 7.327-13.229 9.869-3.968 2.056-8.35 3.623-12.811 3.361-5.04-.296-9.626-2.865-14.49-4.201a30.138 30.138 0 0 0-6.719-1.049 27.372 27.372 0 0 1-1.26 6.93c-1.97 6.168-6.097 11.543-7.561 17.85-.726 3.13-.766 6.371-.865 9.582a98.88 98.88 0 0 1-.105 2.49 55.545 55.545 0 0 1 4.984 8.205c1.92 3.889 3.388 8.04 3.926 12.34a30.183 30.183 0 0 1-2.43 16.08 46.551 46.551 0 0 0-.375-14.957c-.858-4.542-2.413-8.98-4.861-12.9-.625-1-1.313-1.96-2.047-2.883-.097.387-.206.772-.326 1.154-.808 2.562-2.16 4.898-3.807 7.03a55.337 55.337 0 0 1 2.094 3.834c1.92 3.889 3.388 8.04 3.926 12.34a30.183 30.183 0 0 1-2.43 16.08 46.558 46.558 0 0 0-.375-14.959c-.858-4.542-2.413-8.98-4.861-12.9-.301-.483-.62-.955-.947-1.42a41.03 41.03 0 0 1-1.369 1.336 53.609 53.609 0 0 1-4.295 3.568 55.408 55.408 0 0 1 2.658 4.77c1.92 3.889 3.388 8.04 3.926 12.34a30.183 30.183 0 0 1-2.43 16.08 46.558 46.558 0 0 0-.373-14.959c-.858-4.542-2.413-8.98-4.861-12.9a30.938 30.938 0 0 0-2.182-3.047c-2.295 1.531-4.665 2.964-7.07 4.348a55.44 55.44 0 0 1 4.205 7.113c1.92 3.889 3.388 8.04 3.926 12.34a30.183 30.183 0 0 1-2.43 16.08 46.558 46.558 0 0 0-.375-14.959c-.858-4.542-2.413-8.98-4.861-12.9a31.244 31.244 0 0 0-4.346-5.465 350.106 350.106 0 0 0-5.102 2.914 55.518 55.518 0 0 1 5.03 8.266c1.92 3.889 3.388 8.04 3.926 12.34a30.183 30.183 0 0 1-2.43 16.08 46.551 46.551 0 0 0-.375-14.957c-.858-4.542-2.413-8.982-4.861-12.902a31.295 31.295 0 0 0-5.291-6.375 102.585 102.585 0 0 0-5.357 3.646 25.06 25.06 0 0 1 8.611 11.549c1.331 3.68 1.776 7.637 1.68 11.549-.23 9.325-3.548 18.493-9.03 26.04-4.053 5.581-9.29 10.319-15.33 13.648-3.308 1.823-6.936 3.242-10.711 3.359a16.419 16.419 0 0 1-5.04-.629c1.122 2.907 3.567 5.272 6.51 6.299 3.168 1.105 6.696.672 9.869-.42a25.297 25.297 0 0 0 12.18-9.03 11.48 11.48 0 0 1-3.148 7.561c-1.033 1.078-2.266 1.939-3.439 2.863-1.173.924-2.311 1.941-3.07 3.227-.925 1.568-1.221 3.431-1.277 5.25-.057 1.819.106 3.641.016 5.459-.285 5.752-3.121 11.151-6.945 15.457-3.824 4.306-8.602 7.645-13.424 10.793a278.828 278.828 0 0 1-14.07 8.609 45.116 45.116 0 0 0 11.34-1.051 45.238 45.238 0 0 0 17.85-8.398 100.374 100.374 0 0 1-13.441 13.02c-7.07 5.669-14.883 10.363-21.838 16.17-4.996 4.172-9.539 8.919-13.23 14.279-7.195 10.447-10.931 22.815-14.91 34.859-1.47 4.45-2.999 8.91-5.25 13.02a40.984 40.984 0 0 1-6.299 8.609 13.24 13.24 0 0 0 6.93-2.311c2.991-2.06 4.993-5.252 6.684-8.467 1.691-3.215 3.182-6.583 5.496-9.383 3.043-3.68 7.462-6.194 12.18-6.93a39.827 39.827 0 0 0-9.869 11.551c-3.05 5.394-4.794 11.418-6.301 17.43-1.792 7.153-3.286 14.377-4.619 21.629-.553 3.01-1.128 6.143-2.939 8.609a10.053 10.053 0 0 1-5.67 3.779 10.475 10.475 0 0 0 8.189.84c3.136-.995 5.601-3.405 7.77-5.879a74.101 74.101 0 0 0 6.09-7.98 56.597 56.597 0 0 1-2.1 10.291c-.977 3.223-2.244 6.364-2.941 9.658-1.382 6.532-.468 13.35-1.469 19.951a34.903 34.903 0 0 1-8.189 17.639 17.16 17.16 0 0 0 10.289-5.459c2.817-3.127 4.369-7.172 5.672-11.174 1.303-4 2.438-8.116 4.617-11.717a22.95 22.95 0 0 1 9.154-8.512 22.948 22.948 0 0 1 12.266-2.408 25.597 25.597 0 0 0-8.189 12.6c-1.234 4.351-1.285 8.934-1.68 13.439-.426 4.855-1.267 9.703-2.939 14.281a40.976 40.976 0 0 1-7.561 12.809 28.247 28.247 0 0 0 13.65-9.449c4.308-5.5 6.458-12.472 10.918-17.85 3.608-4.351 8.506-7.397 13.23-10.5a302.935 302.935 0 0 0 15.539-10.92 24.018 24.018 0 0 0-4.83 10.291c-.833 4.135-.558 8.41-1.049 12.6a34.737 34.737 0 0 1-3.359 11.338 56.822 56.822 0 0 0 8.818-10.08c4.55-6.64 7.671-14.216 12.6-20.58 5.097-6.582 11.941-11.625 17.221-18.06 3.097-3.774 5.653-8.02 9.238-11.338a25.817 25.817 0 0 1 11.34-6.09 89.682 89.682 0 0 0-13.859 17.219c-1.966 3.177-3.744 6.505-4.83 10.08-1.979 6.514-1.523 13.736 1.26 19.949a371.27 371.27 0 0 1 7.141-15.33c2.467-4.995 5.072-9.975 8.609-14.279 4.917-5.982 11.421-10.409 17.221-15.539 6.346-5.613 11.899-12.13 16.379-19.32a85.57 85.57 0 0 0 7.141-14.279 110.215 110.215 0 0 1-3.57 34.02 210.421 210.421 0 0 0 19.11-30.03c5.798-11.08 10.618-22.724 13.65-34.859a126.95 126.95 0 0 0 3.359-20.369 38.217 38.217 0 0 1 3.99 11.76 38.358 38.358 0 0 1-1.891 19.529c7.807-5.855 13.144-14.904 14.49-24.57.522-3.751.466-7.561.209-11.34a106.577 106.577 0 0 0-2.311-15.959 14.147 14.147 0 0 0 7.98 3.57c4.118.43 8.398-1.076 11.34-3.99a23.696 23.696 0 0 1-8.82-3.359c-1.828-1.159-3.508-2.584-4.795-4.324-1.287-1.74-2.169-3.809-2.344-5.967-.144-1.779.192-3.569.754-5.264.562-1.694 1.347-3.306 2.125-4.912.778-1.606 1.556-3.221 2.104-4.92.548-1.699.862-3.497.688-5.273-.168-1.714-.784-3.354-1.541-4.9-.757-1.547-1.659-3.02-2.449-4.549a35.29 35.29 0 0 1-3.359-9.869c1.57 3.144 4.432 5.618 7.77 6.719 4.229 1.395 9.14.496 12.6-2.309a14.2 14.2 0 0 1-8.189-2.102c-2.48-1.539-4.455-3.856-5.67-6.51-1.814-3.961-1.924-8.471-1.814-12.826.11-4.356.398-8.788-.707-13-.942-3.594-2.861-6.861-5.04-9.871a60.082 60.082 0 0 0-5.25-6.299c2.6 3.079 6.685 4.841 10.709 4.619 3.179-.175 6.312-1.587 8.4-3.99 2.354-2.709 3.25-6.614 2.311-10.08a9.006 9.006 0 0 1-3.713 3.957 8.997 8.997 0 0 1-5.316 1.082c-2.575-.279-4.942-1.687-6.721-3.57-2.112-2.237-3.457-5.114-4.244-8.09-.788-2.974-1.047-6.06-1.215-9.131-.218-3.985-.289-7.98-.211-11.971-4.26.35-8.548.35-12.809 0-7.382-.607-14.964-2.404-20.697-7.094-4.426-3.62-7.419-8.681-11.457-12.729-2.02-2.024-4.334-3.809-6.99-4.865-2.657-1.056-5.688-1.336-8.387-.395-1.532.535-2.904 1.435-4.338 2.193-1.3.688-2.689 1.271-4.154 1.4-2.044.181-4.148-.581-5.623-2.01a7.342 7.342 0 0 1-1.982-3.383 20.366 20.366 0 0 0 5.879-6.58c1.654-2.957 2.558-6.309 4.41-9.146 1.792-2.746 4.433-4.904 7.422-6.254 2.989-1.35 6.312-1.903 9.588-1.748 5.04.238 9.905 2.122 14.17 4.816 4.265 2.694 7.975 6.178 11.449 9.836 1.046 1.101 2.078 2.225 3.273 3.162 1.195.937 2.576 1.686 4.076 1.924a6.672 6.672 0 0 0 3.844-.543 6.663 6.663 0 0 0 2.877-2.605c-2.126-2.201-3.229-5.354-2.939-8.4.068-.712.207-1.418.232-2.133.026-.715-.073-1.457-.443-2.068-.289-.478-.731-.85-1.219-1.123-.488-.273-1.021-.453-1.559-.605-1.075-.306-2.216-.529-3.102-1.211-.763-.587-1.262-1.469-1.533-2.393-.272-.924-.334-1.895-.357-2.857a36.84 36.84 0 0 1 .42-6.51 15.65 15.65 0 0 0 4.41 7.77c.609.582 1.269 1.12 2.01 1.525.739.406 1.56.677 2.402.715 1.404.063 2.753-.523 3.99-1.189a28.247 28.247 0 0 0 6.299-4.619 16.172 16.172 0 0 1-6.721-2.311c-3.255-2.01-5.713-5.151-7.35-8.609a26.337 26.337 0 0 1-2.52-11.131m-173.54 4.566a9.417 9.417 0 0 0 2.607 6.367c1.395 1.447 3.252 2.418 5.213 2.859 2.662.599 5.533.224 7.951-1.039-1.826 2.428-4.92 3.844-7.951 3.639-2.325-.158-4.579-1.246-6.125-2.99a8.87 8.87 0 0 1-2.061-4.186 8.866 8.866 0 0 1 .365-4.65m97.76 4.49a17.641 17.641 0 0 1-4.66 8.436 17.244 17.244 0 0 1-7.264 4.354 16.931 16.931 0 0 1-10.01-.135 24.478 24.478 0 0 0 9.32-1.906c2.213-.93 4.284-2.187 6.168-3.674a29.413 29.413 0 0 0 6.441-7.07m2.654 10.332a13.119 13.119 0 0 1-3.486 6.27 12.898 12.898 0 0 1-5.434 3.236c-2.43.717-5.075.683-7.484-.1a18.38 18.38 0 0 0 6.971-1.416 19.998 19.998 0 0 0 4.615-2.73 21.911 21.911 0 0 0 4.818-5.26m-106.21 1.32a11.29 11.29 0 0 0 3.115 7.635c1.667 1.733 3.887 2.896 6.232 3.426 3.182.718 6.613.268 9.502-1.246-2.176 2.911-5.876 4.611-9.502 4.363-2.781-.19-5.475-1.497-7.322-3.584a10.635 10.635 0 0 1-2.467-5.02c-.354-1.853-.2-3.8.441-5.574m148.06 12.945a25.06 25.06 0 0 0-4.912.432c-3.622.677-7.17 2.171-9.799 4.752-2.525 2.479-4.04 5.773-5.939 8.76a38.443 38.443 0 0 1-3.564 4.752 2.63 2.63 0 0 0 1.781 1.633c.47.123.967.111 1.443.018a6.561 6.561 0 0 0 1.379-.463c1.77-.784 3.341-1.941 4.943-3.03 1.602-1.086 3.28-2.123 5.152-2.615 2.485-.653 5.173-.287 7.531.73 2.359 1.018 4.411 2.657 6.174 4.525 3.526 3.737 5.949 8.382 9.313 12.266 4.257 4.914 10.03 8.516 16.332 10.1 5.59 1.402 11.558 1.217 17.08-.445a33.234 33.234 0 0 0 12.475-6.979 16.938 16.938 0 0 1-8.762.445c-2.94-.635-5.661-2.048-8.166-3.713-8.415-5.591-14.541-13.939-21.828-20.938-4.494-4.316-9.671-8.241-15.74-9.65a22.858 22.858 0 0 0-4.889-.58m-40.729 2.344c3.01 3.624 4.568 8.429 4.244 13.13-.324 4.702-2.523 9.25-6.01 12.426-2.783 2.537-6.267 4.166-9.781 5.518-3.514 1.352-7.131 2.471-10.488 4.176a33.418 33.418 0 0 0-12.777 11.457c.408-5.433 3.414-10.613 7.93-13.66 4.647-3.136 10.482-3.962 15.424-6.609a23.403 23.403 0 0 0 10.33-11.225 23.404 23.404 0 0 0 1.125-15.213m-112.1 7.195a9.791 9.791 0 0 0 2.707 6.621c1.449 1.505 3.38 2.516 5.418 2.975a12.22 12.22 0 0 0 8.262-1.082c-1.896 2.525-5.112 3.997-8.262 3.783-2.416-.164-4.759-1.295-6.365-3.107a9.22 9.22 0 0 1-2.141-4.354 9.213 9.213 0 0 1 .381-4.836m75.973.516c.868 3.673.944 7.532.221 11.236-.905 4.631-3.02 8.93-4.406 13.439a44.41 44.41 0 0 0-1.764 8.812 13.66 13.66 0 0 1-1.102-9.695c.584-2.23 1.739-4.317 1.982-6.609a8.557 8.557 0 0 0-.93-4.855 8.59 8.59 0 0 0-3.477-3.516 20.875 20.875 0 0 0-1.322 12.777 17.89 17.89 0 0 0-3.965-8.15 17.93 17.93 0 0 0-8.592-5.508c3.03.1 6.077-.199 9.03-.883a35.123 35.123 0 0 0 14.32-7.05m-76.926 19.633a6.55 6.55 0 0 0 1.826 4.424c.978 1.01 2.279 1.681 3.65 1.986a8.303 8.303 0 0 0 5.566-.721c-1.289 1.687-3.448 2.667-5.566 2.527-1.626-.107-3.206-.859-4.289-2.076a6.157 6.157 0 0 1-1.438-2.908 6.14 6.14 0 0 1 .25-3.232m41.701 5.688c.432-.006.863 0 1.295.016a17.994 17.994 0 0 0-3.744 7.05 18.101 18.101 0 0 0 1.102 12.338c-2.496-2.287-3.973-5.648-3.967-9.03.003-1.905.46-3.808 1.322-5.508a13.21 13.21 0 0 0-4.186.881c-1.892.735-3.599 1.904-5.068 3.305a19.068 19.068 0 0 0-4.406 6.389c-.568-3.239.341-6.709 2.424-9.254 1.656-2.023 3.964-3.428 6.389-4.406a24.627 24.627 0 0 1 8.84-1.777m-8.631 17.762a6.548 6.548 0 0 1 1.77.164 6.566 6.566 0 0 1 3.09 1.697 10.429 10.429 0 0 0-4.188 4.188c-.638 1.182-1.04 2.472-1.555 3.713-.515 1.241-1.167 2.465-2.189 3.336a5.378 5.378 0 0 1-4.047 1.234 5.378 5.378 0 0 1-3.664-2.115 4.468 4.468 0 0 0 3.324-.561 4.476 4.476 0 0 0 1.963-2.744c.193-.826.145-1.688.1-2.535-.046-.847-.087-1.709.121-2.531a4.707 4.707 0 0 1 1.305-2.211 5.793 5.793 0 0 1 2.221-1.314 6.518 6.518 0 0 1 1.75-.32m142.64 20.541c1.177.361 2.298.909 3.307 1.613.917.64 1.744 1.415 2.393 2.326 1.59 2.235 1.985 5.155 1.604 7.871-.623 4.442-3.273 8.556-7.06 10.961a24.734 24.734 0 0 0-1.539-11.295 24.774 24.774 0 0 0-7.787-10.512 13.022 13.022 0 0 1 4.268 2.051c2.097 1.533 3.701 3.681 4.807 6.03a19.561 19.561 0 0 1 1.855 8.482 9.545 9.545 0 0 0 2.514-5.957c.086-1.698-.289-3.391-.84-5-.808-2.361-2-4.591-3.521-6.572m-177.65 6.801a12.598 12.598 0 0 1-.42 7.98c-.509 1.281-1.224 2.466-1.863 3.688-.639 1.221-1.209 2.505-1.391 3.871-.214 1.613.123 3.251.605 4.805.482 1.554 1.11 3.063 1.494 4.645.407 1.675.536 3.431.25 5.131-.286 1.7-.998 3.344-2.141 4.635-.847.957-1.904 1.701-2.871 2.537-.967.836-1.874 1.813-2.273 3.03a4.448 4.448 0 0 0 .314 3.465 4.946 4.946 0 0 0 1.604 1.725 6.42 6.42 0 0 0 2.182.908c1.547.342 3.164.186 4.721-.113 4.646-.894 9.08-3.129 12.283-6.613 2.594-2.825 4.303-6.361 5.531-9.994 1.228-3.633 2.01-7.4 2.975-11.11.572-2.197 1.209-4.379 1.994-6.51.583-1.583 1.253-3.157 1.471-4.83.135-1.036.089-2.108-.262-3.092-.35-.984-1.024-1.872-1.943-2.367-.819-.441-1.788-.551-2.711-.434-.923.118-1.806.451-2.645.854-3.238 1.554-5.913 4.17-7.77 7.244-2.468 4.086-3.504 8.892-3.885 13.65a55.26 55.26 0 0 0 0 8.82 27.521 27.521 0 0 1-1.785-11.551c.257-4.178 1.482-8.282 3.465-11.969.556-1.033 1.185-2.085 1.26-3.256a3.193 3.193 0 0 0-.184-1.322 2.616 2.616 0 0 0-.762-1.092c-.6-.5-1.405-.676-2.184-.74-.778-.065-1.568-.037-2.33-.205a4.656 4.656 0 0 1-2.73-1.785m142.59 14.85a16.066 16.066 0 0 1 2.213 5.426c.649 3.146.335 6.444-.605 9.516a24.175 24.175 0 0 1-5.361 9.311 11.828 11.828 0 0 0 7.271-3.369c1.492-1.484 2.558-3.345 3.393-5.277a28.533 28.533 0 0 0 2.236-8.945 14.654 14.654 0 0 1 1.695 4.223c.309 1.348.425 2.746.262 4.119-.401 3.371-2.472 6.373-5.082 8.543-4.275 3.555-10.136 5.124-15.615 4.18a30.55 30.55 0 0 0 7.994-11.627 30.597 30.597 0 0 0 1.6-16.1m-39.12 11.09a16.06 16.06 0 0 1 2.215 5.424c.649 3.146.333 6.446-.607 9.518a24.175 24.175 0 0 1-5.361 9.311 11.828 11.828 0 0 0 7.271-3.369c1.492-1.484 2.558-3.347 3.393-5.279a28.524 28.524 0 0 0 2.238-8.943 14.637 14.637 0 0 1 1.693 4.221c.309 1.348.425 2.748.262 4.121-.401 3.371-2.47 6.371-5.08 8.541-4.275 3.555-10.136 5.124-15.615 4.18a30.538 30.538 0 0 0 7.992-11.625 30.597 30.597 0 0 0 1.6-16.1m65.3 6.484a16.056 16.056 0 0 1 2.213 5.424c.649 3.146.335 6.446-.605 9.518a24.175 24.175 0 0 1-5.361 9.311 11.828 11.828 0 0 0 7.271-3.369c1.492-1.484 2.558-3.347 3.393-5.279a28.524 28.524 0 0 0 2.238-8.943 14.637 14.637 0 0 1 1.693 4.221c.309 1.348.425 2.748.262 4.121-.401 3.371-2.472 6.371-5.082 8.541-4.275 3.555-10.134 5.126-15.613 4.182a30.545 30.545 0 0 0 7.992-11.627 30.597 30.597 0 0 0 1.6-16.1m-57.07 32.406a16.06 16.06 0 0 1 2.215 5.424c.649 3.146.333 6.444-.607 9.516a24.178 24.178 0 0 1-5.359 9.313 11.83 11.83 0 0 0 7.27-3.371c1.492-1.484 2.558-3.345 3.393-5.277a28.524 28.524 0 0 0 2.238-8.943 14.637 14.637 0 0 1 1.693 4.221c.309 1.348.425 2.746.262 4.119-.401 3.371-2.47 6.373-5.08 8.543-4.275 3.555-10.136 5.124-15.615 4.18a30.542 30.542 0 0 0 7.994-11.625 30.597 30.597 0 0 0 1.598-16.1m66.05 3.416a25.308 25.308 0 0 1 2.213 6.891c.676 4.01.375 8.146-.605 12.09a36.01 36.01 0 0 1-5.361 11.83 12.66 12.66 0 0 0 7.271-4.281c1.616-1.935 2.611-4.309 3.393-6.705a47.968 47.968 0 0 0 2.238-11.363 22.297 22.297 0 0 1 1.693 5.363c.312 1.724.421 3.49.262 5.234-.37 4.057-2.222 7.948-5.08 10.852-4 4.063-9.968 6.092-15.615 5.311a45.087 45.087 0 0 0 7.992-14.77 45.153 45.153 0 0 0 1.6-20.451m-44.07 30.424a16.056 16.056 0 0 1 2.213 5.424c.649 3.146.335 6.444-.605 9.516a24.182 24.182 0 0 1-5.361 9.313 11.83 11.83 0 0 0 7.271-3.371c1.492-1.484 2.558-3.345 3.393-5.277a28.52 28.52 0 0 0 2.236-8.943 14.637 14.637 0 0 1 1.693 4.221c.309 1.348.425 2.746.262 4.119-.401 3.371-2.47 6.373-5.08 8.543-4.275 3.555-10.136 5.124-15.615 4.18a30.542 30.542 0 0 0 7.994-11.625 30.597 30.597 0 0 0 1.6-16.1m-69.811 28.791a37.94 37.94 0 0 0-7.387 9.816c-1.301 2.486-2.332 5.154-2.617 7.945a15.801 15.801 0 0 0 2.617 10.377 32.13 32.13 0 0 1 5.143-13.369c2.391-3.549 5.544-6.639 9.348-8.6a21.372 21.372 0 0 1 7.48-2.244 40.708 40.708 0 0 0-15.332 15.14 40.637 40.637 0 0 0-5.33 18.04c-5.583-4.898-8.88-12.299-8.787-19.725.056-4.525 1.424-9.192 4.582-12.434 1.285-1.32 2.831-2.372 4.486-3.18a19.447 19.447 0 0 1 5.797-1.775m85.2 7.143a31.296 31.296 0 0 0-6.06 8.06c-1.067 2.043-1.913 4.236-2.146 6.529-.303 2.975.47 6.05 2.146 8.525a26.423 26.423 0 0 1 4.217-10.984c1.96-2.915 4.545-5.455 7.666-7.07a17.489 17.489 0 0 1 6.133-1.844 33.437 33.437 0 0 0-12.572 12.443 33.394 33.394 0 0 0-4.369 14.826c-4.578-4.03-7.281-10.11-7.207-16.207.045-3.717 1.164-7.552 3.756-10.217 1.054-1.084 2.322-1.947 3.68-2.611a15.949 15.949 0 0 1 4.754-1.459m-66.41 31.67a28.707 28.707 0 0 0-5.578 7.436c-.983 1.884-1.761 3.906-1.977 6.02a11.997 11.997 0 0 0 1.977 7.859c.512-3.61 1.85-7.1 3.883-10.127 1.805-2.687 4.187-5.03 7.06-6.514a16.093 16.093 0 0 1 5.648-1.699 30.822 30.822 0 0 0-11.58 11.471 30.85 30.85 0 0 0-4.03 13.668c-4.217-3.718-6.705-9.32-6.637-14.941.041-3.427 1.071-6.962 3.459-9.42.971-.999 2.14-1.794 3.391-2.406a14.676 14.676 0 0 1 4.377-1.346" style="fill:#da121a;fill-rule:evenodd;fill-opacity:1"/><path style="fill:#fff" d="M448.76 245.04c-3.297 0-5.969 2.516-5.969 5.619 0 3.102 2.673 5.617 5.969 5.617 3.297 0 5.97-2.514 5.971-5.617 0-3.104-2.673-5.62-5.971-5.619m-10.994 5.729a6.83 6.83 0 0 0-3.91 1.529 6.835 6.835 0 0 0-2.26 3.537c-.443 1.708-.196 3.553.488 5.18.684 1.627 1.789 3.063 3.037 4.295 1.386 1.369 2.99 2.63 4.814 3.313 1.811.677 3.858.986 5.762.652 1.625-.284 3.043-1.309 4.436-2.193 1.099-.698 2.264-1.399 3.055-2.432 1.46-1.907 2.198-4.751 2.863-6.611a15.151 15.151 0 0 1-8.592 1.543c-2.323-.272-4.616-1.118-6.389-2.645a9.83 9.83 0 0 1-3.305-6.168"/></svg>