<svg xmlns="http://www.w3.org/2000/svg" width="711.159" height="779.006"><g transform="translate(-17.948 -84.903)"><path style="fill:#da121a;fill-opacity:1;fill-rule:evenodd;stroke:none;stroke-width:10.8402462;stroke-linecap:round;stroke-linejoin:round;stroke-miterlimit:4;stroke-dasharray:none;stroke-opacity:1" d="m723.687 90.323-15.6 437.946c-7.795 184.218-147.798 330.117-334.56 330.22-186.593-.226-326.653-146.177-334.558-330.22l-15.6-437.946h350.15z"/><path style="fill:#fcdd09;fill-opacity:1;fill-rule:evenodd;stroke:#000;stroke-width:8;stroke-linecap:round;stroke-linejoin:round;stroke-miterlimit:4;stroke-dasharray:none;stroke-opacity:1" d="M5.42 5.42 21.02 443.365c7.68 178.815 140.116 321.667 318.774 329.846 3.88-7.171 7.33-14.558 10.055-22.242 5.284-14.91 7.787-31.042 5.295-46.662-2.454-15.372-9.56-29.532-15.874-43.76-6.313-14.228-12.009-29.306-11.351-44.858.658-15.562 7.595-30.07 14.215-44.17 6.62-14.1 13.183-28.871 13.01-44.447-.174-15.584-7.067-30.204-13.77-44.273-6.703-14.07-13.498-28.76-13.455-44.344.043-15.587 6.918-30.24 13.642-44.303 6.725-14.062 13.582-28.727 13.583-44.314 0-15.587-6.857-30.254-13.58-44.317-6.724-14.062-13.601-28.713-13.645-44.3-.044-15.585 6.749-30.276 13.451-44.346 6.703-14.07 13.595-28.688 13.774-44.271.178-15.576-6.376-30.353-12.993-44.454-6.616-14.1-13.555-28.602-14.232-44.164-.677-15.551 4.985-30.641 11.287-44.875 4.904-11.077 10.288-22.105 13.629-33.691H5.42z" transform="translate(17.948 84.903)"/><path style="fill:#da121a;fill-opacity:1;stroke:#001;stroke-width:4.87213945;stroke-linecap:round;stroke-linejoin:round;stroke-miterlimit:4;stroke-dasharray:none;stroke-opacity:1;paint-order:fill markers stroke" d="M195.338 165.555c-.846-.008-1.69-.007-2.535.004-14.772.189-29.589 3.05-43.041 9.154-13.453 6.105-25.502 15.521-34.008 27.6-10.234 14.532-15.06 32.794-13.285 50.48 1.697 16.904 9.57 33.36 22.584 44.281 12.825 10.765 30.44 15.705 46.937 12.842 8.9-1.545 17.675-5.468 23.469-12.398 5.08-6.077 7.539-14.272 6.643-22.141v-14.563h17.66v8.983a3.757 3.757 0 0 0 3.765 3.764h9.034a3.755 3.755 0 0 0 3.763-3.764v-8.983h22.832c-2.036 10.191-6.665 19.85-12.802 28.276-7.468 10.252-17.096 18.779-27.426 26.139-6.28 4.473-12.85 8.552-18.887 13.347-6.038 4.795-11.594 10.397-15.209 17.207a39.245 39.245 0 0 0-4.428 15.055v44.724h27.455V365.71a38.533 38.533 0 0 1 3.541-5.756c2.998-4.03 6.753-7.433 10.63-10.627 17.859-14.717 39.073-25.807 53.58-43.838 12.427-15.447 19.042-35.498 18.072-55.3-1.057-21.553-11.068-42.386-26.684-57.278-18.95-18.072-45.45-27.122-71.66-27.355zm6.764 24.547c14.122 1.246 27.933 6.411 38.525 15.753 11.287 9.956 18.355 24.482 19.5 39.461h-23.803v-8.98a3.757 3.757 0 0 0-3.763-3.766h-9.034a3.758 3.758 0 0 0-3.765 3.766v8.98h-17.66v-17.53h8.982a3.755 3.755 0 0 0 3.764-3.765v-9.035a3.755 3.755 0 0 0-3.764-3.763h-8.982v-21.121zm-15.498.197v20.924h-8.981a3.757 3.757 0 0 0-3.766 3.763v9.035a3.757 3.757 0 0 0 3.766 3.764h8.98v17.531h-17.66v-8.98a3.757 3.757 0 0 0-3.763-3.766h-9.034a3.758 3.758 0 0 0-3.765 3.766v8.98H130.01c.792-14.595 7.683-28.734 18.511-38.576 10.406-9.457 24.072-14.86 38.083-16.441zm-55.05 70.515h20.827v8.983a3.757 3.757 0 0 0 3.765 3.764h9.034a3.755 3.755 0 0 0 3.763-3.764v-8.983H186.604v14.12a17.515 17.515 0 0 1-3.346 9.34c-1.75 2.383-4.104 4.302-6.744 5.632-2.64 1.33-5.56 2.08-8.508 2.297-8.022.59-15.99-2.787-22.14-7.97-7.126-6.005-11.966-14.372-14.311-23.419z" transform="translate(17.948 84.903)"/><path style="fill:#da121a;fill-opacity:1;stroke:#001;stroke-width:5;stroke-linecap:round;stroke-linejoin:round;stroke-miterlimit:4;stroke-dasharray:none;stroke-opacity:1" d="M-702.541 241.051a46.054 46.054 0 0 0 21.009 8.65c5.107.721 10.29.574 15.448.619 7.848.068 15.692.584 23.48 1.545a79.402 79.402 0 0 0-24.716 10.195c-3.113 1.956-6.107 4.143-8.65 6.797a31.356 31.356 0 0 0-5.871 8.651 37.908 37.908 0 0 0-8.96-12.976c-2.169-2.046-4.573-3.829-6.761-5.855-2.188-2.026-4.189-4.35-5.288-7.121-1.328-3.348-1.213-7.24.309-10.505z" transform="translate(845.949 2.945)"/><path transform="rotate(-59.818 -214.098 -398.286)" style="fill:#da121a;fill-opacity:1;stroke:#001;stroke-width:5;stroke-linecap:round;stroke-linejoin:round;stroke-miterlimit:4;stroke-dasharray:none;stroke-opacity:1" d="M-702.541 241.051a46.054 46.054 0 0 0 21.009 8.65c5.107.721 10.29.574 15.448.619 7.848.068 15.692.584 23.48 1.545a79.402 79.402 0 0 0-24.716 10.195c-3.113 1.956-6.107 4.143-8.65 6.797a31.356 31.356 0 0 0-5.871 8.651 37.908 37.908 0 0 0-8.96-12.976c-2.169-2.046-4.573-3.829-6.761-5.855-2.188-2.026-4.189-4.35-5.288-7.121-1.328-3.348-1.213-7.24.309-10.505z"/><path transform="rotate(55.6 -213.428 1155.316)" style="fill:#da121a;fill-opacity:1;stroke:#001;stroke-width:5;stroke-linecap:round;stroke-linejoin:round;stroke-miterlimit:4;stroke-dasharray:none;stroke-opacity:1" d="M-702.541 241.051a46.054 46.054 0 0 0 21.009 8.65c5.107.721 10.29.574 15.448.619 7.848.068 15.692.584 23.48 1.545a79.402 79.402 0 0 0-24.716 10.195c-3.113 1.956-6.107 4.143-8.65 6.797a31.356 31.356 0 0 0-5.871 8.651 37.908 37.908 0 0 0-8.96-12.976c-2.169-2.046-4.573-3.829-6.761-5.855-2.188-2.026-4.189-4.35-5.288-7.121-1.328-3.348-1.213-7.24.309-10.505z"/><path transform="rotate(109.212 -212.992 645.619)" style="fill:#da121a;fill-opacity:1;stroke:#001;stroke-width:5;stroke-linecap:round;stroke-linejoin:round;stroke-miterlimit:4;stroke-dasharray:none;stroke-opacity:1" d="M-702.541 241.051a46.054 46.054 0 0 0 21.009 8.65c5.107.721 10.29.574 15.448.619 7.848.068 15.692.584 23.48 1.545a79.402 79.402 0 0 0-24.716 10.195c-3.113 1.956-6.107 4.143-8.65 6.797a31.356 31.356 0 0 0-5.871 8.651 37.908 37.908 0 0 0-8.96-12.976c-2.169-2.046-4.573-3.829-6.761-5.855-2.188-2.026-4.189-4.35-5.288-7.121-1.328-3.348-1.213-7.24.309-10.505z"/><path transform="rotate(-129.867 -221.575 129.188)" style="fill:#da121a;fill-opacity:1;stroke:#001;stroke-width:5;stroke-linecap:round;stroke-linejoin:round;stroke-miterlimit:4;stroke-dasharray:none;stroke-opacity:1" d="M-702.541 241.051a46.054 46.054 0 0 0 21.009 8.65c5.107.721 10.29.574 15.448.619 7.848.068 15.692.584 23.48 1.545a79.402 79.402 0 0 0-24.716 10.195c-3.113 1.956-6.107 4.143-8.65 6.797a31.356 31.356 0 0 0-5.871 8.651 37.908 37.908 0 0 0-8.96-12.976c-2.169-2.046-4.573-3.829-6.761-5.855-2.188-2.026-4.189-4.35-5.288-7.121-1.328-3.348-1.213-7.24.309-10.505z"/><path transform="rotate(153.757 -218.76 440.554)" style="fill:#da121a;fill-opacity:1;stroke:#001;stroke-width:5;stroke-linecap:round;stroke-linejoin:round;stroke-miterlimit:4;stroke-dasharray:none;stroke-opacity:1" d="M-702.541 241.051a46.054 46.054 0 0 0 21.009 8.65c5.107.721 10.29.574 15.448.619 7.848.068 15.692.584 23.48 1.545a79.402 79.402 0 0 0-24.716 10.195c-3.113 1.956-6.107 4.143-8.65 6.797a31.356 31.356 0 0 0-5.871 8.651 37.908 37.908 0 0 0-8.96-12.976c-2.169-2.046-4.573-3.829-6.761-5.855-2.188-2.026-4.189-4.35-5.288-7.121-1.328-3.348-1.213-7.24.309-10.505z"/><g transform="translate(4)"><path d="m405.975 354.053-7.499-2.968-1.328-1.484v-5.546l11.248-7.42 18.277-12.107 5.937-4.296 10.466-19.214 7.81-12.263 9.452-17.34 7.42-13.044 2.578-4.453 16.48-27.962 26.245-46.006 20.308-35.383 6.327-10.467 5.233 8.202 7.499 11.481 15.465 27.182 15.778 28.9 23.276 39.757 17.887 30.306 17.418 30.619 7.343 11.17 8.904 6.56 25.541 16.169-.625 3.28-.546 2.89-7.342 2.734z" style="fill:#fff;fill-opacity:1;stroke:none"/><path style="fill:none;stroke:#000;stroke-width:3;stroke-linecap:butt;stroke-linejoin:miter;stroke-miterlimit:4;stroke-dasharray:none;stroke-opacity:1" d="M568.257 180.7c1.78 24.194-45.152 34.247-43.372 58.44"/><path style="fill:none;stroke:#000;stroke-width:3;stroke-linecap:butt;stroke-linejoin:miter;stroke-miterlimit:4;stroke-dasharray:none;stroke-opacity:1" d="M511.916 180.7c-1.78 24.194 45.153 34.247 43.372 58.44"/><path d="M556.23 187.171c-5.903 19.738-44.277 30.05-42.663 51.97" style="fill:none;stroke:#000;stroke-width:3;stroke-linecap:butt;stroke-linejoin:miter;stroke-miterlimit:4;stroke-dasharray:none;stroke-opacity:1"/><path style="fill:#fff;fill-opacity:1;fill-rule:nonzero;stroke:#000;stroke-width:3;stroke-linecap:butt;stroke-linejoin:round;stroke-miterlimit:4;stroke-dasharray:none;stroke-dashoffset:0;stroke-opacity:1" d="M496.659 235.707h4.86v58.098h-4.86zM578.654 235.863h4.86v57.786h-4.86z"/><path d="M523.983 187.305c6.036 19.65 44.233 29.966 42.624 51.835" style="fill:none;stroke:#000;stroke-width:3;stroke-linecap:butt;stroke-linejoin:miter;stroke-miterlimit:4;stroke-dasharray:none;stroke-opacity:1"/><path d="m486.415 232.182-3.531 6.188H597.29l-3.469-6.188z" style="fill:#fff;fill-opacity:1;fill-rule:nonzero;stroke:#000;stroke-width:2.99999976;stroke-linecap:butt;stroke-linejoin:round;stroke-miterlimit:4;stroke-dasharray:none;stroke-dashoffset:0;stroke-opacity:1"/><path d="m518.055 292.651-5.218 4.5 22.718 26.531-22.718 26.5 5.218 4.5 22.032-25.719 22.03 25.72 5.22-4.5-22.72-26.5 22.72-26.532-5.22-4.5-22.03 25.719z" style="fill:#fff;fill-opacity:1;fill-rule:nonzero;stroke:#000;stroke-width:3;stroke-linecap:butt;stroke-linejoin:round;stroke-miterlimit:4;stroke-dasharray:none;stroke-dashoffset:0;stroke-opacity:1"/><path style="fill:#fff;fill-opacity:1;fill-rule:nonzero;stroke:#000;stroke-width:3;stroke-linecap:butt;stroke-linejoin:round;stroke-miterlimit:4;stroke-dasharray:none;stroke-dashoffset:0;stroke-opacity:1" d="M512.746 293.433h4.86v60.754h-4.86zM562.567 293.433h4.86v60.754h-4.86z"/><path d="M571.71 351.432h11.32M615.083 292.992H626.4M582.447 292.992c-1.78 24.194 45.152 34.247 43.372 58.44" style="fill:none;stroke:#000;stroke-width:3;stroke-linecap:butt;stroke-linejoin:miter;stroke-miterlimit:4;stroke-dasharray:none;stroke-opacity:1"/><path d="M616.15 292.992c1.781 24.194-45.152 34.247-43.371 58.44" style="fill:none;stroke:#000;stroke-width:3;stroke-linecap:butt;stroke-linejoin:miter;stroke-miterlimit:4;stroke-dasharray:none;stroke-opacity:1"/><path style="fill:#fff;stroke:#000;stroke-width:3;stroke-linecap:butt;stroke-linejoin:miter;stroke-miterlimit:4;stroke-dasharray:none;stroke-opacity:1" d="M627.47 292.992c1.78 24.194-45.153 34.247-43.373 58.44"/><path style="fill:none;stroke:#000;stroke-width:3;stroke-linecap:butt;stroke-linejoin:miter;stroke-miterlimit:4;stroke-dasharray:none;stroke-opacity:1" d="M571.128 292.992c-1.78 24.194 45.153 34.247 43.372 58.44M497.727 292.992c1.78 24.194-45.153 34.247-43.372 58.44"/><path style="fill:none;stroke:#000;stroke-width:3;stroke-linecap:butt;stroke-linejoin:miter;stroke-miterlimit:4;stroke-dasharray:none;stroke-opacity:1" d="M464.023 292.992c-1.78 24.194 45.152 34.247 43.372 58.44"/><path style="fill:none;stroke:#000;stroke-width:3;stroke-linecap:butt;stroke-linejoin:miter;stroke-miterlimit:4;stroke-dasharray:none;stroke-opacity:1" d="M452.704 292.992c-1.78 24.194 45.153 34.247 43.372 58.44M507.395 351.432h-11.319M464.023 292.992h-11.319"/><path d="M509.045 292.992c1.78 24.194-45.152 34.247-43.372 58.44" style="fill:none;stroke:#000;stroke-width:3;stroke-linecap:butt;stroke-linejoin:miter;stroke-miterlimit:4;stroke-dasharray:none;stroke-opacity:1"/><path d="m453.626 290.338-3.812 6.188h180.625l-3.563-6.188z" style="fill:#fff;fill-opacity:1;fill-rule:nonzero;stroke:#000;stroke-width:2.99999976;stroke-linecap:butt;stroke-linejoin:round;stroke-miterlimit:4;stroke-dasharray:none;stroke-dashoffset:0;stroke-opacity:1"/><path d="M416.688 514.406V718.75h219.5l10.875-18.219L658.375 673l5.125 1.875V514.406zM410.438 719.75v11.875h215.656l5.562-8.563 2.157-3.312zM405.75 732.625V744.5h211.625l3.656-4.938 5.344-6.937z" style="fill:#fff;fill-opacity:1;fill-rule:nonzero;stroke:#000;stroke-width:5;stroke-linecap:round;stroke-linejoin:round;stroke-miterlimit:4;stroke-dasharray:none;stroke-dashoffset:0;stroke-opacity:1"/><rect ry="3.8" rx="3.8" y="514.41" x="416.676" height="18.396" width="36.555" style="fill:#fff;fill-opacity:1;fill-rule:nonzero;stroke:#000;stroke-width:5;stroke-linecap:round;stroke-linejoin:round;stroke-miterlimit:4;stroke-dasharray:none;stroke-dashoffset:0;stroke-opacity:1"/><path d="M430.957 532.806a3.813 3.813 0 0 1 3.812 3.812V547.4a3.813 3.813 0 0 1-3.812 3.813h-14.281v-18.406z" style="fill:#fff;fill-opacity:1;fill-rule:nonzero;stroke:#000;stroke-width:5;stroke-linecap:round;stroke-linejoin:round;stroke-miterlimit:4;stroke-dasharray:none;stroke-dashoffset:0;stroke-opacity:1"/><rect ry="3.8" rx="3.8" y="551.212" x="416.676" height="18.396" width="36.555" style="fill:#fff;fill-opacity:1;fill-rule:nonzero;stroke:#000;stroke-width:5;stroke-linecap:round;stroke-linejoin:round;stroke-miterlimit:4;stroke-dasharray:none;stroke-dashoffset:0;stroke-opacity:1"/><path d="M430.957 569.608a3.813 3.813 0 0 1 3.812 3.812v10.782a3.813 3.813 0 0 1-3.812 3.812h-14.281v-18.406z" style="fill:#fff;fill-opacity:1;fill-rule:nonzero;stroke:#000;stroke-width:5;stroke-linecap:round;stroke-linejoin:round;stroke-miterlimit:4;stroke-dasharray:none;stroke-dashoffset:0;stroke-opacity:1"/><rect ry="3.8" rx="3.8" y="588.014" x="416.676" height="18.396" width="36.555" style="fill:#fff;fill-opacity:1;fill-rule:nonzero;stroke:#000;stroke-width:5;stroke-linecap:round;stroke-linejoin:round;stroke-miterlimit:4;stroke-dasharray:none;stroke-dashoffset:0;stroke-opacity:1"/><path d="M430.957 606.41a3.813 3.813 0 0 1 3.812 3.813v10.78a3.813 3.813 0 0 1-3.812 3.813h-14.281V606.41z" style="fill:#fff;fill-opacity:1;fill-rule:nonzero;stroke:#000;stroke-width:5;stroke-linecap:round;stroke-linejoin:round;stroke-miterlimit:4;stroke-dasharray:none;stroke-dashoffset:0;stroke-opacity:1"/><rect ry="3.8" rx="3.8" y="624.816" x="416.676" height="18.396" width="36.555" style="fill:#fff;fill-opacity:1;fill-rule:nonzero;stroke:#000;stroke-width:5;stroke-linecap:round;stroke-linejoin:round;stroke-miterlimit:4;stroke-dasharray:none;stroke-dashoffset:0;stroke-opacity:1"/><path d="M430.957 643.212a3.813 3.813 0 0 1 3.812 3.813v10.781a3.813 3.813 0 0 1-3.812 3.813h-14.282v-18.407z" style="fill:#fff;fill-opacity:1;fill-rule:nonzero;stroke:#000;stroke-width:5;stroke-linecap:round;stroke-linejoin:round;stroke-miterlimit:4;stroke-dasharray:none;stroke-dashoffset:0;stroke-opacity:1"/><rect ry="3.8" rx="3.8" y="661.306" x="416.676" height="18.396" width="36.555" style="fill:#fff;fill-opacity:1;fill-rule:nonzero;stroke:#000;stroke-width:5;stroke-linecap:round;stroke-linejoin:round;stroke-miterlimit:4;stroke-dasharray:none;stroke-dashoffset:0;stroke-opacity:1"/><path d="M430.957 680.015a3.813 3.813 0 0 1 3.812 3.812v10.781a3.813 3.813 0 0 1-3.812 3.813h-14.282v-18.406z" style="fill:#fff;fill-opacity:1;fill-rule:nonzero;stroke:#000;stroke-width:5;stroke-linecap:round;stroke-linejoin:round;stroke-miterlimit:4;stroke-dasharray:none;stroke-dashoffset:0;stroke-opacity:1"/><rect ry="3.8" rx="3.8" y="698.421" x="416.676" height="18.396" width="36.555" style="fill:#fff;fill-opacity:1;fill-rule:nonzero;stroke:#000;stroke-width:5;stroke-linecap:round;stroke-linejoin:round;stroke-miterlimit:4;stroke-dasharray:none;stroke-dashoffset:0;stroke-opacity:1"/><rect transform="scale(-1 1)" style="fill:#fff;fill-opacity:1;fill-rule:nonzero;stroke:#000;stroke-width:5;stroke-linecap:round;stroke-linejoin:round;stroke-miterlimit:4;stroke-dasharray:none;stroke-dashoffset:0;stroke-opacity:1" width="36.555" height="18.396" x="-663.498" y="514.41" rx="3.8" ry="3.8"/><path style="fill:#fff;fill-opacity:1;fill-rule:nonzero;stroke:#000;stroke-width:5;stroke-linecap:round;stroke-linejoin:round;stroke-miterlimit:4;stroke-dasharray:none;stroke-dashoffset:0;stroke-opacity:1" d="M649.217 532.806a3.813 3.813 0 0 0-3.813 3.812V547.4a3.813 3.813 0 0 0 3.813 3.813h14.28v-18.406z"/><rect transform="scale(-1 1)" style="fill:#fff;fill-opacity:1;fill-rule:nonzero;stroke:#000;stroke-width:5;stroke-linecap:round;stroke-linejoin:round;stroke-miterlimit:4;stroke-dasharray:none;stroke-dashoffset:0;stroke-opacity:1" width="36.555" height="18.396" x="-663.498" y="551.212" rx="3.8" ry="3.8"/><path style="fill:#fff;fill-opacity:1;fill-rule:nonzero;stroke:#000;stroke-width:5;stroke-linecap:round;stroke-linejoin:round;stroke-miterlimit:4;stroke-dasharray:none;stroke-dashoffset:0;stroke-opacity:1" d="M649.217 569.608a3.813 3.813 0 0 0-3.813 3.812v10.782a3.813 3.813 0 0 0 3.813 3.812h14.28v-18.406z"/><rect transform="scale(-1 1)" style="fill:#fff;fill-opacity:1;fill-rule:nonzero;stroke:#000;stroke-width:5;stroke-linecap:round;stroke-linejoin:round;stroke-miterlimit:4;stroke-dasharray:none;stroke-dashoffset:0;stroke-opacity:1" width="36.555" height="18.396" x="-663.498" y="588.014" rx="3.8" ry="3.8"/><path style="fill:#fff;fill-opacity:1;fill-rule:nonzero;stroke:#000;stroke-width:5;stroke-linecap:round;stroke-linejoin:round;stroke-miterlimit:4;stroke-dasharray:none;stroke-dashoffset:0;stroke-opacity:1" d="M649.217 606.41a3.813 3.813 0 0 0-3.813 3.813v10.78a3.813 3.813 0 0 0 3.813 3.813h14.28V606.41z"/><rect transform="scale(-1 1)" ry="3.8" rx="3.8" y="624.816" x="-663.498" height="18.396" width="36.555" style="fill:#fff;fill-opacity:1;fill-rule:nonzero;stroke:#000;stroke-width:5;stroke-linecap:round;stroke-linejoin:round;stroke-miterlimit:4;stroke-dasharray:none;stroke-dashoffset:0;stroke-opacity:1"/><path d="M649.217 643.212a3.813 3.813 0 0 0-3.813 3.813v10.781a3.813 3.813 0 0 0 3.813 3.813h14.28v-18.407z" style="fill:#fff;fill-opacity:.06611567;fill-rule:nonzero;stroke:#000;stroke-width:5;stroke-linecap:round;stroke-linejoin:round;stroke-miterlimit:4;stroke-dasharray:none;stroke-dashoffset:0;stroke-opacity:1"/><path d="M649.219 680a3.813 3.813 0 0 0-3.813 3.813v10.78c0 1.512.88 2.822 2.157 3.438L656.625 680z" style="fill:#cb0f03;fill-opacity:.06611567;fill-rule:nonzero;stroke:#000;stroke-width:5;stroke-linecap:round;stroke-linejoin:round;stroke-miterlimit:4;stroke-dasharray:none;stroke-dashoffset:0;stroke-opacity:1"/><rect transform="scale(-1)" ry="3.8" rx="3.8" y="-680.015" x="-663.498" height="18.396" width="36.555" style="fill:#fff;fill-opacity:1;fill-rule:nonzero;stroke:#000;stroke-width:5;stroke-linecap:round;stroke-linejoin:round;stroke-miterlimit:4;stroke-dasharray:none;stroke-dashoffset:0;stroke-opacity:1"/><path d="M630.75 698.406a3.813 3.813 0 0 0-3.813 3.813v10.812c0 2.105 1.708 3.782 3.813 3.782h5.219L644 703.125l2.5-4.719z" style="fill:#fff;fill-opacity:.06611567;fill-rule:nonzero;stroke:#000;stroke-width:5;stroke-linecap:round;stroke-linejoin:round;stroke-miterlimit:4;stroke-dasharray:none;stroke-dashoffset:0;stroke-opacity:1"/><path style="fill:#fff;fill-opacity:1;fill-rule:nonzero;stroke:#000;stroke-width:5;stroke-linecap:round;stroke-linejoin:round;stroke-miterlimit:4;stroke-dasharray:none;stroke-dashoffset:0;stroke-opacity:1" d="M518.878 545.286h42.417v38.883h-42.417z"/><path style="fill:#000;fill-opacity:1;fill-rule:nonzero;stroke:#000;stroke-width:5;stroke-linecap:round;stroke-linejoin:round;stroke-miterlimit:4;stroke-dasharray:none;stroke-dashoffset:0;stroke-opacity:1" d="M467.747 535.565h29.162v49.929h-29.162zM583.264 535.565h29.162v49.929h-29.162z"/><path d="M510.071 537.338v32.25h8.813V544.62h42.406v24.968h8.812v-32.25H518.884z" style="fill:#fff;fill-opacity:1;fill-rule:nonzero;stroke:#000;stroke-width:3;stroke-linecap:round;stroke-linejoin:round;stroke-miterlimit:4;stroke-dasharray:none;stroke-dashoffset:0;stroke-opacity:1"/><path d="M497.375 635.432c-9.273 0-16.781 8.894-16.781 19.875v59.656h33.562v-59.656c0-10.98-7.508-19.875-16.781-19.875zM582.799 635.432c-9.273 0-16.782 8.894-16.782 19.875v59.656h33.563v-59.656c0-10.98-7.508-19.875-16.781-19.875z" style="fill:#000;fill-opacity:1;fill-rule:nonzero;stroke:#000;stroke-width:3;stroke-linecap:round;stroke-linejoin:round;stroke-miterlimit:4;stroke-dasharray:none;stroke-dashoffset:0;stroke-opacity:1"/><path d="M540.087 544.62v25.41" style="fill:none;stroke:#000;stroke-width:5;stroke-linecap:butt;stroke-linejoin:miter;stroke-miterlimit:4;stroke-dasharray:none;stroke-opacity:1"/><path d="M540.087 570.03s-2.54 2.461-4.066 3.313c-1.565.875-3.289 1.7-5.08 1.768-2.437.091-4.87-.828-7.07-1.878-1.859-.887-4.987-3.645-4.987-3.645M540.087 570.03s2.539 2.461 4.065 3.313c1.566.875 3.29 1.7 5.081 1.768 2.437.091 4.87-.828 7.07-1.878 1.858-.887 4.987-3.645 4.987-3.645" style="fill:none;stroke:#000;stroke-width:5;stroke-linecap:round;stroke-linejoin:miter;stroke-miterlimit:4;stroke-dasharray:none;stroke-opacity:1"/><path d="M497.375 619.968c-16.81 0-30.42 11.092-30.42 24.788v74.405h60.84v-74.405c0-13.696-13.61-24.788-30.42-24.788zM582.813 619.969c-16.81 0-30.438 10.988-30.438 24.562v73.75h60.844v-73.75c0-13.574-13.597-24.562-30.407-24.562z" style="fill:none;stroke:#000;stroke-width:2.99999976;stroke-linecap:round;stroke-linejoin:round;stroke-miterlimit:4;stroke-dasharray:none;stroke-dashoffset:0;stroke-opacity:1"/><path d="M481.232 701.148h-14.58M528.132 701.148h-14.581M481.536 681.959h-14.58M528.436 681.959h-14.581M480.913 664.049h-14.581M527.812 664.049h-14.58M482.752 646.83l-14.567-7.76M512.875 646.83l14.567-7.76M489.08 638.49l-5.269-15.642M504.832 638.49l5.27-15.642M599.066 701.148h14.58M552.166 701.148h14.581M598.762 681.959h14.58M551.862 681.959h14.581M599.385 664.049h14.581M552.486 664.049h14.58M597.546 646.83l14.568-7.76M567.423 646.83l-14.567-7.76M591.217 638.49l5.27-15.642M575.466 638.49l-5.27-15.642" style="fill:none;stroke:#000;stroke-width:3;stroke-linecap:butt;stroke-linejoin:miter;stroke-miterlimit:4;stroke-dasharray:none;stroke-opacity:1"/><path style="fill:#fff;fill-opacity:1;stroke:#000;stroke-width:4.80000019;stroke-linecap:butt;stroke-linejoin:round;stroke-miterlimit:4;stroke-dasharray:none;stroke-dashoffset:0;stroke-opacity:1" d="M406.87 357.554h266.434V514.41H406.87z"/><path style="fill:#fff;fill-opacity:1;stroke:#000;stroke-width:3;stroke-linecap:butt;stroke-linejoin:round;stroke-miterlimit:4;stroke-dasharray:none;stroke-dashoffset:0;stroke-opacity:1" d="m458.189 357.401-38.063 54.187 5.875 4.032 40.907-58.219zM582.814 357.901l-37.719 53.687 5.875 4.032 40.438-57.563zM613.283 357.37l40.906 58.25 5.844-4.032-38.094-54.218zM497.47 358.057l-8.656.063 40.406 57.5 5.844-4.032zM406.306 439.095h267.56v9.773h-267.56z"/><path transform="rotate(90)" style="fill:#fff;fill-opacity:1;stroke:#000;stroke-width:2.99999976;stroke-linecap:butt;stroke-linejoin:round;stroke-miterlimit:4;stroke-dasharray:none;stroke-dashoffset:0;stroke-opacity:1" d="M448.79-482.973h66.52v9.773h-66.52zM448.79-606.973h66.52v9.773h-66.52z"/><path transform="rotate(68.402)" style="fill:#fff;fill-opacity:1;stroke:#000;stroke-width:2.99999976;stroke-linecap:butt;stroke-linejoin:round;stroke-miterlimit:4;stroke-dasharray:none;stroke-dashoffset:0;stroke-opacity:1" d="M505.159-245.459h137.215v7.122H505.159z"/><path transform="scale(-1 1) rotate(68.402)" style="fill:#fff;fill-opacity:1;stroke:#000;stroke-width:2.99999976;stroke-linecap:butt;stroke-linejoin:round;stroke-miterlimit:4;stroke-dasharray:none;stroke-dashoffset:0;stroke-opacity:1" d="M107.552 758.873h137.215v7.122H107.552z"/><path transform="matrix(-.36798 .92983 .93108 .36482 0 0)" style="fill:#fff;fill-opacity:1;stroke:#000;stroke-width:3.00000858;stroke-linecap:butt;stroke-linejoin:round;stroke-miterlimit:4;stroke-dasharray:none;stroke-dashoffset:0;stroke-opacity:1" d="M171.114 642.232h121.294v7.122H171.114z"/><path transform="matrix(.36798 .92983 -.93108 .36482 0 0)" style="fill:#fff;fill-opacity:1;stroke:#000;stroke-width:3.00000858;stroke-linecap:butt;stroke-linejoin:round;stroke-miterlimit:4;stroke-dasharray:none;stroke-dashoffset:0;stroke-opacity:1" d="M565.187-362.155h121.294v7.122H565.187z"/><path style="fill:#000;fill-opacity:1;stroke:#000;stroke-width:3;stroke-linecap:butt;stroke-linejoin:round;stroke-miterlimit:4;stroke-dasharray:none;stroke-dashoffset:0;stroke-opacity:1" d="M463.745 374.439h28.744v51.551h-28.744zM587.685 374.439h28.744v51.551h-28.744z"/><path transform="rotate(90)" style="fill:#fff;fill-opacity:1;stroke:#000;stroke-width:3;stroke-linecap:butt;stroke-linejoin:round;stroke-miterlimit:4;stroke-dasharray:none;stroke-dashoffset:0;stroke-opacity:1" d="M359.095-544.973H515.31v9.773H359.095zM359.095-415.743H515.31v9.773H359.095zM359.095-674.204H515.31v9.773H359.095z"/><path style="fill:#fff;fill-opacity:1;stroke:#000;stroke-width:3;stroke-linecap:butt;stroke-linejoin:round;stroke-miterlimit:4;stroke-dasharray:none;stroke-dashoffset:0;stroke-opacity:1" d="M406.306 505.536h267.56v9.773h-267.56z"/><path style="fill:none;stroke:#000;stroke-width:4.80000019;stroke-linecap:butt;stroke-linejoin:round;stroke-miterlimit:4;stroke-dasharray:none;stroke-dashoffset:0;stroke-opacity:1" d="M406.87 357.554h266.434V514.41H406.87z"/><path d="m396.18 350.87 9.438 6.625h268.937l9.438-6.625h-160.5z" style="fill:#fff;fill-opacity:1;stroke:#000;stroke-width:3;stroke-linecap:butt;stroke-linejoin:round;stroke-miterlimit:4;stroke-dasharray:none;stroke-dashoffset:0;stroke-opacity:1"/><path d="m514.001 184.463-3.78 6.188h59.25l-3.47-6.188z" style="fill:#fff;fill-opacity:1;fill-rule:nonzero;stroke:#000;stroke-width:2.99999976;stroke-linecap:butt;stroke-linejoin:round;stroke-miterlimit:4;stroke-dasharray:none;stroke-dashoffset:0;stroke-opacity:1"/><path d="m538.587 128.682-109.47 190.719-38.062 24.594 6.157 3.875 37.312-24.094 104.031-181.781h3.063l104.031 181.781 37.313 24.094 6.156-3.875-38.063-24.594-109.468-190.719z" style="fill:#fff;fill-opacity:1;stroke:#000;stroke-width:3;stroke-linecap:butt;stroke-linejoin:miter;stroke-miterlimit:4;stroke-dasharray:none;stroke-opacity:1"/><path style="fill:#000;fill-opacity:1;fill-rule:nonzero;stroke:#000;stroke-width:3;stroke-linecap:butt;stroke-linejoin:round;stroke-miterlimit:4;stroke-dasharray:none;stroke-dashoffset:0;stroke-opacity:1" d="M550.665 244.83h21.871v34.464h-21.871zM507.636 244.83h21.871v34.464h-21.871z"/><path d="m533.328 215.776 6.884-5.27 7.122-5.602M591.94 328.537l6.884-5.27 7.122-5.603" style="fill:none;stroke:#fff;stroke-width:4;stroke-linecap:round;stroke-linejoin:miter;stroke-miterlimit:4;stroke-dasharray:none;stroke-opacity:1"/><path d="m473.542 328.533 6.884-5.27 7.122-5.602" style="fill:#fff;stroke:#fff;stroke-width:4;stroke-linecap:round;stroke-linejoin:miter;stroke-miterlimit:4;stroke-dasharray:none;stroke-opacity:1"/></g><path style="fill:none;fill-rule:evenodd;stroke:#000;stroke-width:10.8402462;stroke-linecap:round;stroke-linejoin:round;stroke-miterlimit:4;stroke-dasharray:none;stroke-opacity:1" d="m723.687 90.323-15.6 437.946c-7.795 184.218-147.798 330.117-334.56 330.22-186.593-.226-326.653-146.177-334.558-330.22l-15.6-437.946h350.15z"/><circle style="fill:#da121a;fill-opacity:1;stroke:#000;stroke-width:5;stroke-linecap:round;stroke-linejoin:round;stroke-miterlimit:4;stroke-dasharray:none;stroke-opacity:1;paint-order:fill markers stroke" cx="213.209" cy="171.34" r="57.247"/><path style="fill:none;stroke:#000;stroke-width:5;stroke-linecap:round;stroke-linejoin:round;stroke-miterlimit:4;stroke-dasharray:none;stroke-opacity:1" d="M-633.205 214.445c11.7.602 23.575-3.408 32.515-10.979a46.899 46.899 0 0 0 14.177-21.073 46.899 46.899 0 0 0 1.025-25.378" transform="translate(845.949 2.945)"/><path transform="matrix(.61503 0 0 .61503 609.661 72.924)" style="fill:none;stroke:#000;stroke-width:8.12968826;stroke-linecap:round;stroke-linejoin:round;stroke-miterlimit:4;stroke-dasharray:none;stroke-opacity:1" d="M-633.205 214.445c11.7.602 23.575-3.408 32.515-10.979a46.899 46.899 0 0 0 14.177-21.073 46.899 46.899 0 0 0 1.025-25.378"/><circle style="fill:#da121a;fill-opacity:1;stroke:#000;stroke-width:5;stroke-linecap:round;stroke-linejoin:round;stroke-miterlimit:4;stroke-dasharray:none;stroke-opacity:1;paint-order:fill markers stroke" cx="123.282" cy="589.029" r="57.247"/><path style="fill:none;stroke:#000;stroke-width:5;stroke-linecap:round;stroke-linejoin:round;stroke-miterlimit:4;stroke-dasharray:none;stroke-opacity:1" d="M-633.205 214.445c11.7.602 23.575-3.408 32.515-10.979a46.899 46.899 0 0 0 14.177-21.073 46.899 46.899 0 0 0 1.025-25.378" transform="translate(756.022 420.635)"/><path transform="matrix(.61503 0 0 .61503 519.735 490.613)" style="fill:none;stroke:#000;stroke-width:8.12968826;stroke-linecap:round;stroke-linejoin:round;stroke-miterlimit:4;stroke-dasharray:none;stroke-opacity:1" d="M-633.205 214.445c11.7.602 23.575-3.408 32.515-10.979a46.899 46.899 0 0 0 14.177-21.073 46.899 46.899 0 0 0 1.025-25.378"/><g transform="translate(-5)"><circle r="57.247" cy="589.029" cx="301.245" style="fill:#da121a;fill-opacity:1;stroke:#000;stroke-width:5;stroke-linecap:round;stroke-linejoin:round;stroke-miterlimit:4;stroke-dasharray:none;stroke-opacity:1;paint-order:fill markers stroke"/><path transform="translate(933.985 420.635)" d="M-633.205 214.445c11.7.602 23.575-3.408 32.515-10.979a46.899 46.899 0 0 0 14.177-21.073 46.899 46.899 0 0 0 1.025-25.378" style="fill:none;stroke:#000;stroke-width:5;stroke-linecap:round;stroke-linejoin:round;stroke-miterlimit:4;stroke-dasharray:none;stroke-opacity:1"/><path d="M-633.205 214.445c11.7.602 23.575-3.408 32.515-10.979a46.899 46.899 0 0 0 14.177-21.073 46.899 46.899 0 0 0 1.025-25.378" style="fill:none;stroke:#000;stroke-width:8.12968826;stroke-linecap:round;stroke-linejoin:round;stroke-miterlimit:4;stroke-dasharray:none;stroke-opacity:1" transform="matrix(.61503 0 0 .61503 697.698 490.613)"/></g><path style="fill:#da121a;fill-opacity:1;stroke:#000;stroke-width:5.00031519;stroke-linecap:round;stroke-linejoin:round;stroke-miterlimit:4;stroke-dasharray:none;stroke-opacity:1;paint-order:fill markers stroke" d="M174.756 434.28v286.507a323.49 323.49 0 0 0 32.416 18.484V434.28h-32.416z" transform="translate(17.948 84.903)"/><path style="fill:#da121a;stroke:#000;stroke-width:5;stroke-linecap:round;stroke-linejoin:round;stroke-miterlimit:4;stroke-dasharray:none;stroke-opacity:1;fill-opacity:1" d="M202.912 519.182v143.646M214.912 519.182v143.646"/><path style="fill:#da121a;fill-opacity:1;stroke:#000;stroke-width:5;stroke-linecap:round;stroke-linejoin:round;stroke-miterlimit:4;stroke-dasharray:none;stroke-opacity:1;paint-order:fill markers stroke" d="M185.395 645.031h47.034v60.064h-47.034z"/><rect style="fill:#da121a;fill-opacity:1;stroke:#000;stroke-width:5;stroke-linecap:round;stroke-linejoin:round;stroke-miterlimit:4;stroke-dasharray:none;stroke-opacity:1;paint-order:fill markers stroke" width="68.962" height="29.238" x="174.431" y="660.444" ry="4.347"/><path style="fill:#da121a;fill-opacity:1;stroke:#000;stroke-width:5;stroke-linecap:round;stroke-linejoin:round;stroke-miterlimit:4;stroke-dasharray:none;stroke-opacity:1;paint-order:fill markers stroke" d="M181.933 469.666h53.958v56.656h-53.958z"/><rect style="fill:#da121a;fill-opacity:1;stroke:#000;stroke-width:5;stroke-linecap:round;stroke-linejoin:round;stroke-miterlimit:4;stroke-dasharray:none;stroke-opacity:1;paint-order:fill markers stroke" width="68.946" height="29.077" x="174.439" y="483.455" ry="5.845"/><path style="fill:none;stroke:#000;stroke-width:5;stroke-linecap:round;stroke-linejoin:round;stroke-opacity:1;stroke-miterlimit:4;stroke-dasharray:none" d="M193.132 277.373a75.982 75.982 0 0 1 6.229-1.412 77.145 77.145 0 0 1 10.854-1.195 77.995 77.995 0 0 1 4.307-.05 76.38 76.38 0 0 1 9.785.785c2.758.401 5.494.957 8.19 1.663M149.087 321.768a54.112 54.112 0 0 0-.771 4.442 52.381 52.381 0 0 0-.444 6.173 50.69 50.69 0 0 0 .854 9.893 50.644 50.644 0 0 0 2.53 8.93M277.442 325.02c.366 2.153.607 4.328.722 6.51a56.004 56.004 0 0 1-.106 7.495 59.282 59.282 0 0 1-1.37 8.646 63.801 63.801 0 0 1-1.912 6.577"/></g></svg>