<svg xmlns="http://www.w3.org/2000/svg" width="979.28" height="1067.6" viewBox="0 0 979.284 1067.603"><path d="M799.47 10.025c-26.17.053-51.02.198-70.798.478-79.11 1.122-156.7-.214-235.05 0-2.653.007-5.305.036-7.958.043-78.35.214-155.94 1.122-235.05 0-79.11-1.122-239.53 0-239.53 0s4.995 48.18 6.784 72.32c3.067 41.38 4.256 82.87 6.784 124.29 3.405 55.766 7.902 111.49 11.307 167.25 2.528 41.41 3.91 82.9 6.784 124.29 4.346 62.59 5.02 125.75 15.786 187.56 6.02 34.562 14.418 68.979 27.14 101.67 15.355 39.473 33.474 78.71 58.839 112.63 18.289 24.456 41.649 45.04 65.884 63.62 27.747 21.272 57.962 39.816 89.93 53.968 33.818 14.97 69.917 25.08 106.24 32.09 27.334 5.278 55.35 7.255 83.19 7.349 27.662.094 55.55-1.52 82.71-6.741 36.46-7.01 72.54-17.626 106.46-32.746 31.934-14.235 62.23-32.696 89.98-53.968 24.24-18.58 47.595-39.17 65.884-63.62 25.365-33.919 43.484-73.16 58.839-112.63 12.718-32.695 21.12-67.16 27.14-101.72 10.762-61.814 11.44-124.97 15.786-187.56 2.874-41.39 4.256-82.87 6.784-124.29 3.405-55.766 7.902-111.44 11.307-167.21 2.529-41.41 3.717-82.909 6.784-124.29 1.79-24.14 6.784-72.32 6.784-72.32s-90.24-.636-168.73-.478" fill="#fff"/><g stroke="#000"><path d="M190.19 537.892v410.05c6.601 5.601 13.361 11.01 20.2 16.246 27.747 21.272 57.961 39.816 89.93 53.969 12.905 5.713 26.14 10.714 39.6 15.11v-495.37H190.19zm299.45 0v519.7h.107c27.662.094 55.55-1.52 82.71-6.74 22.589-4.341 45.03-10.07 66.902-17.398v-495.57h-149.72zm299.45 0v410c16.807-14.26 32.558-29.817 45.689-47.38 25.365-33.919 43.485-73.16 58.84-112.63 12.718-32.695 21.12-67.15 27.13-101.72 8.514-48.901 10.727-98.64 13.428-148.28h-145.09z" fill="#0f47af" stroke-linecap="round" stroke-width="5"/><path d="M489.49 488.982c-1.169 0-2.37.014-3.529.035-1.029.02-2.059.037-3.082.072-.332 0-.611.022-.945.035-.727.029-1.513.032-2.236.07-.345.018-.698.088-1.043.107h-.447c-1.35.078-2.74.179-4.078.283-.77.061-1.519.147-2.287.215-.361.032-.734.072-1.094.105-1 .093-2.031.18-3.03.285l-.945.105c-.894.098-1.847.177-2.734.285-.463.056-.881.118-1.344.176-.062.007-.189.028-.248.035-1.067.136-2.116.278-3.182.426-.027.003-.049-.004-.049 0-.714.1-1.427.215-2.137.32-.668.099-1.317.18-1.988.283-.719.111-1.372.24-2.09.355-.369.059-.824.116-1.193.178-.706.117-1.336.235-2.037.355-1.164.199-2.37.43-3.529.639-.791.142-1.591.279-2.387.426-.498.093-.996.189-1.492.283-1.812.344-3.66.667-5.469 1.029-.119.025-.127.048-.248.072-.216.043-.53.096-.746.141-.154.032-.293.076-.447.107-.935.19-1.848.375-2.783.568-1.198.249-2.38.492-3.578.744-1.195.252-2.385.525-3.58.781-.134.029-.361.044-.498.072-2.319.495-4.589.992-6.908 1.49-2.24.481-4.468.945-6.713 1.42-2.244.475-4.463.962-6.711 1.418-.033.007-.014-.007-.049 0-.254.049-.545.093-.795.143-1.471.296-3 .601-4.475.887-.18.035-.366.038-.547.072-1.274.244-2.547.51-3.826.744-.14.026-.255.045-.398.072-.175.032-.272.074-.447.105-1.099.199-2.231.38-3.33.568-.736.127-1.497.268-2.236.391-.846.141-1.688.257-2.537.391-1.436.227-2.929.466-4.373.674-1.454.208-2.913.418-4.375.604-2.908.369-5.799.692-8.748.959-1.198.108-2.378.159-3.58.248-.536.04-1.049.109-1.59.143-1.109.073-2.219.12-3.332.176-.345.017-.695.02-1.043.035-1.19.052-2.38.146-3.578.178-.086.002-.211-.002-.299 0-.569.014-1.119-.008-1.691 0-.93.014-1.895.035-2.834.035-3.056 0-6.05-.071-9.05-.213a208.85 208.85 0 0 1-10.838-.816c-1.203-.119-2.376-.258-3.578-.391-.729-.083-1.461-.158-2.188-.248-.315-.038-.632-.068-.945-.107-1.451-.184-2.878-.398-4.324-.604-1.036-.148-2.088-.307-3.133-.461-.414-.061-.835-.112-1.242-.176-.341-.053-.658-.122-.994-.178a660.674 660.674 0 0 1-3.182-.533c0-.002-.085.002-.1 0a456.769 456.769 0 0 1-12.773-2.377c-2.841-.567-5.665-1.172-8.5-1.775-2.833-.602-5.667-1.202-8.5-1.811-.03-.007-.07.007-.102 0-5.591-1.199-11.13-2.423-16.75-3.547-2.173-.435-4.372-.836-6.563-1.242a402.663 402.663 0 0 0-7.506-1.314c-1.031-.171-2.048-.368-3.082-.531-2.728-.43-5.491-.819-8.254-1.172a232.58 232.58 0 0 0-11.482-1.205c-1.047-.084-2.129-.144-3.182-.213-1.177-.076-2.344-.158-3.529-.215-1.094-.052-2.177-.107-3.281-.141-.417-.012-.824-.025-1.242-.035-.183-.004-.364.003-.547 0-1.323-.028-2.64-.035-3.977-.035-1.945 0-3.892.011-5.816.07-1.102.034-2.185.09-3.281.143-1.177.056-2.358.137-3.529.213-.315.02-.631.014-.945.035-.74.051-1.5.119-2.236.178a232.58 232.58 0 0 0-7.705.744c-1.113.126-2.223.251-3.332.391-.151.019-.294.052-.445.072-2.761.353-5.524.741-8.254 1.17-1.032.162-2.05.362-3.082.533-2.512.418-5.01.85-7.506 1.313-2.19.406-4.39.807-6.563 1.242-5.62 1.124-11.167 2.35-16.752 3.549-.03.007-.069-.007-.1 0-2.827.606-5.666 1.208-8.5 1.811-2.833.603-5.659 1.206-8.5 1.773a460.199 460.199 0 0 1-12.773 2.379c0 .002-.085-.002-.1 0-1.078.184-2.113.354-3.182.531-.283.045-.563.098-.846.143-.051.008-.097.027-.148.035-.409.065-.832.115-1.242.178-1.043.156-2.097.313-3.133.461-.757.108-1.532.21-2.287.318-.996.134-1.984.267-2.982.391-.729.087-1.453.168-2.188.25-1.093.125-2.182.242-3.281.354-.1.001-.197.026-.299.035-3.563.353-7.192.647-10.838.818-2.997.142-5.991.213-9.05.213-.939 0-1.904-.022-2.834-.035-.573-.008-1.118.014-1.689 0-.086-.002-.213.002-.301 0-1.198-.032-2.388-.125-3.578-.178-.348-.015-.698-.018-1.043-.035-1.114-.056-2.223-.105-3.332-.178-.542-.034-1.054-.101-1.59-.141-1.203-.089-2.384-.142-3.58-.25-2.949-.267-5.84-.588-8.748-.957-.98-.124-1.957-.266-2.934-.404 1.694 26.03 2.866 52.15 4.469 78.21.327.035.652.071.998.111.45.053.892.128 1.342.178.224.025.52.082.746.107 2.707.291 5.407.515 8.152.709.121.009.279 0 .398 0 1.023.07 2 .192 3.03.248h.646c.743.039 1.489.077 2.236.107.208.008.387.028.596.035.45.017.892.022 1.342.035.364.001.779-.009 1.145 0 .085.002.164 0 .248 0 1.425.033 2.836.035 4.275.035 1.526 0 3.01 0 4.523-.035 1.513-.036 3.03-.072 4.525-.143h.1c1.482-.07 2.903-.182 4.373-.283 1.487-.103 3.051-.223 4.525-.355 1.386-.124 2.746-.278 4.125-.426.085-.009.164-.026.248-.035 1.887-.203 3.748-.43 5.617-.674.231-.031.467-.04.697-.072.099-.014.2-.022.299-.035.697-.093 1.394-.184 2.088-.283 2.873-.411 5.755-.864 8.6-1.35.027-.002.086.002.1 0 15.724-2.689 30.971-6.393 46.527-9.51 2.084-.418 4.159-.841 6.264-1.242 2.149-.405 4.314-.803 6.463-1.17 0-.002.035.002.051 0 1.444-.246 2.872-.446 4.324-.676a259.795 259.795 0 0 1 17.447-2.164c1.478-.132 2.984-.252 4.475-.355 1.49-.102 2.971-.178 4.475-.248 1.501-.07 3.01-.141 4.525-.178 1.47-.034 2.94-.07 4.424-.07a187.381 187.381 0 0 1 9.095.248c1.502.07 2.984.146 4.475.248 1.49.102 2.995.223 4.475.355a259.935 259.935 0 0 1 17.449 2.164c1.451.229 2.88.429 4.324.676 0 .002.033-.002.049 0 2.12.363 4.245.767 6.363 1.17.03.006.068-.006.1 0 2.103.401 4.178.824 6.264 1.242 15.557 3.117 30.805 6.824 46.527 9.51.014.002.073-.002.1 0 2.844.486 5.728.939 8.6 1.35.694.099 1.393.189 2.09.283.312.043.632.064.943.107 1.885.246 3.766.468 5.668.674.084.009.165.027.248.035 1.379.148 2.74.302 4.127.426 1.475.133 3.036.251 4.523.355 1.47.101 2.892.213 4.375.283h.1c1.497.07 3.01.106 4.523.143 1.513.035 2.998.035 4.523.035 1.44 0 2.849-.002 4.275-.035.084 0 .166.002.25 0 .366-.009.778.001 1.143 0 .45-.014.892-.018 1.342-.035.208-.007.388-.027.598-.035a227.99 227.99 0 0 0 2.236-.107h.646c1.029-.056 2.01-.178 3.03-.248.119 0 .278.009.398 0 2.746-.194 5.443-.418 8.15-.709.226-.025.524-.082.748-.107.45-.05.892-.124 1.342-.178.88-.102 1.657-.173 2.535-.283.939-.119 1.951-.262 2.885-.391 1.086-.149 2.147-.3 3.23-.461.45-.068.892-.142 1.342-.213.417-.065.875-.149 1.293-.215.849-.135 1.689-.25 2.535-.391.738-.123 1.5-.263 2.236-.391.191-.033.358-.036.549-.07 1.23-.213 2.404-.451 3.627-.676.175-.032.423-.074.598-.105 1.284-.236 2.495-.465 3.777-.711 1.692-.327 3.433-.65 5.121-.992.015-.017.021-.018.049-.035.049-.001.101-.025.148-.035 4.5-.913 8.99-1.878 13.473-2.84 2.319-.497 4.589-.958 6.908-1.453 1.322-.283 2.704-.571 4.03-.852 2.13-.45 4.223-.917 6.361-1.35.369-.075.824-.138 1.193-.213.119-.025.126-.046.248-.072 1.807-.362 3.652-.72 5.469-1.064.498-.094.993-.192 1.492-.285.787-.146 1.591-.284 2.387-.426 1.16-.21 2.365-.44 3.529-.639.701-.119 1.334-.204 2.037-.318.369-.06.775-.119 1.145-.178.717-.117 1.42-.244 2.139-.355.668-.103 1.317-.22 1.988-.318.711-.106 1.423-.185 2.137-.285.027-.003.1.004.1 0 1.066-.148 2.065-.29 3.133-.426.06 0 .189-.028.248-.035.46-.058.879-.121 1.342-.178.889-.108 1.842-.22 2.734-.318.32-.036.622-.038.945-.072.999-.106 2.026-.225 3.033-.318.361-.033.734-.076 1.094-.107.768-.068 1.516-.116 2.287-.176 1.339-.103 2.726-.207 4.076-.285.178-.001.317-.025.498-.035.345-.019.646-.018.994-.035.722-.036 1.509-.077 2.236-.105.332-.014.611-.06.945-.072 1.021-.036 2.104-.052 3.133-.072 1.16-.022 2.31 0 3.48 0 .765 0 1.478-.009 2.236 0 .76.009 1.528.017 2.287.035.884.022 1.806.039 2.686.072.288 0 .51.06.795.072 1.098.045 2.239.077 3.33.141.046.002.054.032.102.035 1.231.073 2.456.156 3.678.25.035.002.014-.002.051 0 .181.014.366.02.547.035 1.072.085 2.219.182 3.281.283 1 .094 2.037.176 3.03.283 1.476.159 2.96.349 4.424.533h.15c.18.023.414.048.596.072 1.23.158 2.502.358 3.729.531.958.136 1.83.28 2.783.426 1.123.171 2.263.316 3.381.498.881.143 1.858.276 2.734.426 1.432.245 2.749.52 4.176.781 1.432.261 2.901.506 4.324.781.097.019.199.089.299.107 1.072.208 2.106.388 3.182.602 2.219.442 4.4.924 6.611 1.385.175.038.419.034.596.072.119.026.23.043.35.07 3.375.706 6.734 1.441 10.09 2.164.854.184 1.779.35 2.633.533.417.09.777.194 1.193.283 1.543.33 3.129.667 4.674.994 2.825.592 5.569 1.172 8.4 1.738 1.416.283 2.905.579 4.324.852 2.567.495 5.109.936 7.705 1.385.826.143 1.607.29 2.436.426.87.145 1.758.288 2.635.426 1.131.179 2.297.403 3.43.568.566.084 1.069.169 1.639.248.934.132 1.946.233 2.885.355.417.053.777.126 1.193.178.472.058 1.018.119 1.492.176.821.098 1.561.195 2.385.285.059.007.191.029.248.035 7.26.786 14.648 1.207 22.22 1.207 6.81 0 13.475-.384 20.03-1.029h.049c.744-.07 1.495-.132 2.236-.213h.102c1.02-.111 2.02-.265 3.03-.391.445-.056.898-.085 1.342-.143.717-.091 1.423-.187 2.139-.283.733-.102 1.456-.214 2.188-.32 1.414-.202 2.818-.417 4.225-.639 0-.002.084.002.1 0 2.86-.451 5.763-.937 8.6-1.455 2.82-.513 5.648-1.073 8.451-1.633a938.251 938.251 0 0 0 8.451-1.738c2.823-.596 5.68-1.205 8.5-1.811 5.633-1.209 11.232-2.414 16.902-3.547.03-.006.068.006.1 0a519.995 519.995 0 0 1 8.549-1.633c5.703-1.037 11.43-1.963 17.25-2.697 1.455-.184 2.91-.338 4.375-.498 1.449-.158 2.914-.33 4.373-.461.033-.003.068.003.102 0 1.459-.131 2.903-.253 4.373-.355 1.487-.102 2.975-.177 4.475-.248 1.498-.07 3.01-.106 4.525-.143 1.486-.034 2.973-.07 4.475-.07 1.527 0 3.058 0 4.572.035h.049c1.497.036 2.989.107 4.475.176h.051c8.994.425 17.789 1.447 26.395 2.805 1.452.229 2.831.427 4.275.674 4.271.731 8.545 1.565 12.773 2.412 15.557 3.117 30.856 6.824 46.576 9.51.014.002.022-.002.049 0 2.844.486 5.728.939 8.6 1.35a251.31 251.31 0 0 0 13.12 1.527c1.475.133 3.036.249 4.523.354 1.47.101 2.891.215 4.373.285h.051c1.497.07 3.01.104 4.523.141 1.513.035 2.998.037 4.523.037 1.44 0 2.899-.004 4.326-.037.084 0 .164.002.248 0 .366-.009.729-.025 1.094-.035.45-.014.892-.018 1.342-.035.208-.007.438-.027.646-.035.748-.031 1.495-.067 2.236-.105h.596c1.029-.056 2.01-.143 3.033-.215.119 0 .276-.026.396-.035a226.19 226.19 0 0 0 8.203-.709c.226-.025.471-.046.695-.072.45-.05.894-.122 1.344-.176.377-.044.741-.091 1.107-.137 1.605-26.07 2.777-52.2 4.471-78.24-1.013.144-2.024.291-3.041.42-2.908.369-5.75.69-8.699.957-1.198.108-2.378.161-3.58.25-.536.04-1.049.107-1.59.141-1.109.073-2.219.122-3.332.178-.345.017-.695.02-1.043.035-1.19.052-2.38.146-3.578.178-.086.002-.215-.002-.301 0-.569.014-1.117-.008-1.689 0-.931.014-1.946.035-2.885.035-3.056 0-6.05-.073-9.05-.215-7.494-.352-14.748-1.133-21.973-2.164-.013-.002-.074.002-.1 0a324.23 324.23 0 0 1-8.6-1.348c0-.002-.022.002-.049 0-9.991-1.708-19.793-3.849-29.627-5.961-.013-.003-.1.003-.1 0-2.596-.558-5.207-1.082-7.805-1.633-.202-.042-.394-.099-.596-.143l-.498-.107a820.33 820.33 0 0 0-6.91-1.42c-4.949-1-9.901-1.961-14.912-2.803a316.328 316.328 0 0 0-7.357-1.135c-.134-.019-.265-.053-.398-.072 0-.002-.033.002-.049 0 0-.002-.033.002-.049 0a266.518 266.518 0 0 0-4.971-.674c-1.519-.187-3.044-.338-4.574-.498-.167-.017-.329-.054-.498-.072-.363-.038-.729-.07-1.094-.105a226.006 226.006 0 0 0-4.03-.355c-1.587-.126-3.17-.231-4.771-.32-.116-.007-.233-.029-.35-.035-.84-.045-1.692-.07-2.535-.105-.197-.008-.398-.027-.596-.035a188.13 188.13 0 0 0-3.381-.107c-1.323-.028-2.64-.035-3.977-.035-1.527 0-3.06.035-4.574.072-3.03.073-6.02.185-8.996.391-1.489.102-2.995.223-4.475.355-1.459.131-2.926.303-4.375.461a272.315 272.315 0 0 0-13.07 1.738 427.8 427.8 0 0 0-17.201 3.088c-5.652 1.13-11.183 2.341-16.803 3.547-5.653 1.212-11.318 2.451-17 3.584-2.116.424-4.28.845-6.41 1.242-.694.129-1.393.263-2.09.391-.873.158-1.76.272-2.633.426-.581.102-1.158.222-1.74.32-1.406.24-2.812.486-4.225.709-1.44.227-2.929.431-4.375.639-2.878.41-5.736.785-8.65 1.102-.797.084-1.591.169-2.387.248-6.558.647-13.222 1.029-20.03 1.029-7.57 0-14.966-.458-22.22-1.242-.059-.007-.191.007-.248 0-.824-.09-1.569-.223-2.387-.32-.476-.056-1.018-.117-1.492-.176-.417-.052-.777-.123-1.193-.178-.938-.123-1.946-.224-2.883-.355-.569-.079-1.071-.164-1.641-.248-1.134-.166-2.299-.355-3.43-.533-.875-.137-1.761-.245-2.633-.391-.826-.137-1.613-.284-2.436-.426-2.593-.449-5.127-.96-7.705-1.455-1.419-.273-2.91-.534-4.326-.816-2.835-.567-5.579-1.147-8.4-1.738-1.546-.327-3.129-.629-4.672-.959-.417-.09-.777-.193-1.193-.283l-2.635-.568c-3.369-.723-6.718-1.423-10.09-2.129-.119-.026-.228-.044-.348-.07-.175-.038-.419-.105-.596-.143a772.835 772.835 0 0 0-6.611-1.35c-1.074-.215-2.103-.431-3.182-.639-.097-.018-.199-.016-.299-.035a498.46 498.46 0 0 0-4.326-.816c-1.427-.26-2.741-.5-4.174-.744-.88-.15-1.852-.283-2.734-.426a309.139 309.139 0 0 0-3.381-.533c-.953-.145-1.826-.291-2.783-.426a278.863 278.863 0 0 0-3.729-.498c-.181-.024-.416-.048-.598-.07-.084-.001-.064-.025-.148-.035-1.467-.184-2.948-.374-4.424-.533-.994-.106-2.034-.189-3.033-.283-1.066-.101-2.208-.165-3.281-.25-.18-.015-.366-.054-.547-.07-.035-.002-.014.002-.049 0-1.22-.093-2.452-.177-3.68-.25-.051-.002-.052-.032-.1-.035-1.091-.064-2.233-.13-3.332-.176-.286-.012-.51.001-.795 0-.88-.033-1.8-.086-2.686-.107-.756-.018-1.527-.025-2.287-.035h-2.236z" fill="#da121a" stroke-width="5.326"/><path d="M799.47 10.025c-26.17.053-51.02.198-70.798.478-79.11 1.122-156.7-.214-235.05 0-2.653.007-5.305.036-7.958.043-78.35.214-155.94 1.122-235.05 0-79.11-1.122-239.53 0-239.53 0s4.995 48.18 6.784 72.32c3.067 41.38 4.256 82.87 6.784 124.29 3.405 55.766 7.902 111.49 11.307 167.25 2.528 41.41 3.91 82.9 6.784 124.29 4.346 62.59 5.02 125.75 15.786 187.56 6.02 34.562 14.418 68.979 27.14 101.67 15.355 39.473 33.474 78.71 58.839 112.63 18.289 24.456 41.648 45.04 65.884 63.62 27.747 21.272 57.962 39.816 89.93 53.968 33.818 14.97 69.917 25.08 106.24 32.09 27.334 5.278 55.35 7.255 83.19 7.349 27.662.094 55.55-1.52 82.71-6.741 36.46-7.01 72.54-17.626 106.46-32.746 31.934-14.235 62.23-32.696 89.98-53.968 24.24-18.58 47.595-39.17 65.884-63.62 25.365-33.919 43.484-73.16 58.839-112.63 12.718-32.695 21.12-67.16 27.14-101.72 10.762-61.814 11.44-124.97 15.786-187.56 2.874-41.39 4.256-82.87 6.784-124.29 3.405-55.766 7.902-111.44 11.307-167.21 2.529-41.41 3.717-82.909 6.784-124.29 1.79-24.14 6.784-72.32 6.784-72.32s-90.24-.636-168.73-.478z" fill="none" stroke-width="20"/></g><g stroke-linejoin="round"><g stroke-width="4.836"><path d="M-1698.21 337.67h.063v-.063c-.021 0-.042.031-.063.031v.031z" fill="none" stroke="#cb0000" transform="matrix(1.06898 0 0 1 2469.08 14.848)"/><g stroke="#000"><path d="M-1915.03 357.15c-1.735 0-3.456.135-5.137.459-3.922.754-9.692 4.853-10.832 5.137 0 0 2.725-.151 3.993.262 1.704.555 3.136 1.744 4.549 2.847 3.02 2.357 4.938 6.06 8.246 7.985 3.766 2.194 8.229 4.116 12.566 3.698 2.664-.257 5.986-1.265 7.101-3.698 1.383-3.02-.29-7.02-2.258-9.686-2.223-3.02-6.104-4.597-9.686-5.695a30.064 30.064 0 0 0-8.541-1.309zm-11.978 42.38c-.899-.018-1.796.05-2.618.163-3.711.512-6.978 3.173-9.654 5.792-3.262 3.198-5.88 7.232-7.265 11.582-1.212 3.805-.393 10.839-.687 11.978 0 0 1.192-2.455 2.16-3.371 1.302-1.231 3.036-1.937 4.68-2.65 3.512-1.525 7.688-1.45 10.963-3.436 3.726-2.26 7.556-5.246 9.261-9.261 1.047-2.463 1.735-5.875.131-8.02-1.491-1.992-4.275-2.729-6.97-2.781zm35.05 22.16c-2.165.138-4.445 1.047-6.218 2.127-3.203 1.944-5.132 5.66-6.545 9.13-1.723 4.231-2.52 9-2.062 13.548.4 3.974 3.942 10.1 4.124 11.257 0 0 .13-2.734.655-3.959.706-1.647 2.01-2.979 3.24-4.287 2.618-2.794 6.456-4.372 8.672-7.494 2.522-3.554 4.839-7.816 4.811-12.173-.018-2.677-.72-6.099-3.043-7.429-1.08-.618-2.334-.803-3.633-.72zm40.966 4.124a5.636 5.636 0 0 0-1.244.163c-2.599.64-4.22 3.714-4.974 6.283-1.224 4.182-.14 8.915 1.309 13.02 1.273 3.611 4.533 6.215 6.283 9.621.819 1.594 1.705 3.23 1.931 5.01.168 1.323-.459 3.959-.459 3.959.493-1.066 5.593-5.943 7.07-9.654 1.688-4.244 2.229-9.07 1.734-13.613-.405-3.725-1.25-7.821-3.796-10.566-1.973-2.13-4.973-4.258-7.854-4.22z" transform="matrix(1.06898 0 0 1 2469.08 14.848)"/><path d="M-1737.96 250.14c-15.684 5.288-28.452 17.938-39.09 30.63-9.186 10.961-15.317 24.418-20.15 37.877-2.964 8.256-4.179 17.08-5.236 25.79-.389 3.203-2.645 3.504-4.65 6.03-1.559 1.966-.647 4.801-3.01 5.655-14.13 5.115-27.64 11.854-41.1 18.536-6.304 3.127-12.147 7.137-18.536 10.07-2.743 1.261-5.482 3.702-8.461 3.224-2.734-.439-4.872-2.961-6.447-5.236-3.624-5.236-2.804-12.65-6.04-18.13-2.417-4.092-5.347-8.505-9.671-10.482-4.03-1.84-9.262-2.241-13.298-.403-1.737.792-2.984 2.635-3.626 4.433-.768 2.151 1.033 4.814 0 6.851-1.129 2.228-4.087 2.88-6.04 4.433-1.94 1.539-5.353 2.376-5.641 4.836-.425 3.63 3.591 6.587 6.447 8.865 1.599 1.277 4.332.846 5.641 2.418 1.94 2.328 3.234 6.091 2.01 8.865-1.307 2.974-5.217 4.677-8.461 4.836-4.264.208-7.462-4.62-11.687-5.236-5.093-.746-11.282-1.188-15.313 2.01-2.695 2.141-5 6.514-3.626 9.671 1.972 4.528 9.658 2.805 13.697 5.641 1.635 1.147 3.207 2.613 4.03 4.433 1 2.217-.892 5.512.806 7.254 2.083 2.135 6.117 2.367 8.865 1.208 4.778-2.01 4.903-9.694 9.269-12.492 2.196-1.407 5.206-2.503 7.656-1.612 2.247.817 4.545 3.253 4.433 5.641-.174 3.702-4.984 5.493-7.656 8.06-2.06 1.977-5.455 2.964-6.447 5.641-.661 1.781-.305 4.101.806 5.641 2.283 3.162 6.677 4.342 10.482 5.236 2.091.494 4.562-1.029 6.447 0 1.962 1.071 1.573 4.759 3.626 5.641 2.639 1.133 6.234.198 8.461-1.612 2.711-2.202 1.896-6.906 4.03-9.671 2.167-2.807 4.956-6.976 8.461-6.447 2.285.345 3.325 3.441 4.03 5.641 1.025 3.198-1.766 7.217 0 10.07 1.106 1.789 3.54 2.856 5.641 2.821 3.666-.06 6.01-5.121 9.671-5.236 1.923-.062 3.464 1.677 5.236 2.418 3.177 1.327 6.241 3.924 9.671 3.626 2.639-.229 5.34-1.854 6.851-4.03 2.645-3.81-.439-10.05 2.418-13.697 2.445-3.127 5.422-17.203 9.06-18.79 5.625-2.456 14.493-12.953 19.956-15.748 8.368-4.279 5.29-9.878 12.652-15.72 4.687-3.721 12.492-12.895 12.492-12.895s.904 11.356 0 16.922c-1.225 7.547-7.433 14.12-7.254 21.76.149 6.335 6.851 17.731 6.851 17.731s2.518-13.06 6.447-18.13c3.674-4.742 10.312-6.222 14.91-10.07 4.879-4.087 10.428-8.02 13.298-13.697 2.211-4.375 2.01-9.621 2.418-14.507.332-4.02 0-12.09 0-12.09s1.844 11.36 5.236 15.718c3.527 4.526 8.787 8.811 14.507 9.269 4.378.35 8.6-2.572 12.09-5.236 4.784-3.656 11.283-14.1 11.283-14.1s-7.608 3.649-11.687 3.626c-4.375-.024-9.294-1.044-12.492-4.03-2.643-2.468-3.295-6.532-4.03-10.07-.955-4.606-.403-14.1-.403-14.1s4.798 7.453 8.461 9.671c3.427 2.076 7.713 3.342 11.687 2.821 5.304-.694 10.685-3.542 14.1-7.656 3.067-3.692 4.433-13.697 4.433-13.697s-6.636 4.645-10.482 4.836c-3.691.183-7.772-1.109-10.482-3.626-3.744-3.485-5.09-9.08-6.04-14.1-.852-4.488-1.659-9.624.403-13.697 5.31-10.503 28.747 9.02 38.12 1.901 2.525-1.917 6.279-2.787 7.656-5.641 3.152-6.538 1.806-14.988-.806-21.76-2.779-7.205-8.43-13.532-14.91-17.731-6.565-4.254-14.826-5.309-22.566-6.447-9.702-1.426-20.12-3.538-29.415-.403zM-2221.93 363.3c-2.316.086-4.62.451-6.807 1.113-3.823 1.156-9.139 5.816-10.242 6.218 0 0 2.689-.41 3.993-.131 1.752.376 3.325 1.404 4.843 2.356 3.244 2.033 5.543 5.526 9.03 7.101 3.972 1.793 8.59 3.254 12.86 2.389 2.623-.531 5.85-1.915 6.708-4.451 1.064-3.142-1.039-6.939-3.273-9.392-2.523-2.77-6.533-3.926-10.21-4.647a30.319 30.319 0 0 0-6.905-.556zm1.407 48.11a16.384 16.384 0 0 0-3.894.72c-3.577 1.113-6.365 4.271-8.574 7.298-2.692 3.69-4.616 8.11-5.267 12.629-.571 3.953 1.413 10.741 1.309 11.912 0 0 .765-2.602 1.571-3.665 1.083-1.428 2.684-2.397 4.189-3.371 3.215-2.08 7.341-2.708 10.242-5.203 3.305-2.84 6.568-6.4 7.592-10.635.629-2.601.755-6.102-1.178-7.952-1.497-1.434-3.734-1.859-5.989-1.734zm80.01 1.538a5.656 5.656 0 0 0-1.832.328c-2.514.918-3.786 4.172-4.255 6.807-.763 4.29.797 8.866 2.684 12.796 1.658 3.452 5.189 5.673 7.298 8.869.988 1.495 2.069 3.035 2.487 4.778.31 1.296-.032 3.993-.032 3.993.375-1.113 4.924-6.525 5.989-10.373 1.218-4.402 1.213-9.251.229-13.708-.807-3.659-2.08-7.656-4.909-10.112-2.036-1.768-4.961-3.421-7.658-3.371zm-40.742 21.467c-2.162.173-4.43 1.155-6.185 2.258-3.173 1.994-5.056 5.736-6.414 9.229-1.656 4.257-2.361 9.04-1.832 13.581.463 3.967 4.087 10.03 4.287 11.192 0 0 .084-2.726.59-3.959.68-1.659 1.97-3.03 3.173-4.352 2.574-2.835 6.407-4.501 8.574-7.658 2.466-3.593 4.71-7.85 4.614-12.206-.06-2.676-.83-6.103-3.173-7.393-1.089-.601-2.335-.791-3.633-.687z" transform="matrix(1.06898 0 0 1 2469.08 14.848)"/><path d="M-2046.69 273.83c-6.667 11.01-11.561 23.296-19.949 33.05-12.4 14.422-27.905 26.15-43.881 36.472-14.557 9.406-30.8 15.971-46.73 22.795-6.52 2.793-12.853 7.383-19.949 7.404-4.446.016-8.787-2.171-12.538-4.559-3.852-2.454-5.539-7.779-9.689-9.689-2.25-1.035-5.3-1.868-7.403-.57-2.286 1.407-1.398 5.345-3.066 7.448-1.436 1.811-3.989 2.415-5.641 4.03-1.921 1.878-3.987 3.899-4.836 6.447-1.19 3.568-2.245 8.265 0 11.283 1.674 2.25 5.288 2.01 8.06 2.418 3.456.507 7.549-1.903 10.482 0 1.109.72 1.836 2.323 1.612 3.626-.595 3.465-4.045 6.22-7.254 7.656-4.17 1.867-9.161-.114-13.697.403-4.083.465-8.993-.284-12.09 2.418-2.785 2.429-4.55 6.899-3.626 10.482.903 3.5 5.383 4.823 8.06 7.254 1.619 1.47 3.073 3.138 4.836 4.433 2.377 1.746 4.809 3.667 7.656 4.433 2.335.627 5.059 1.015 7.254 0 3.2-1.48 4.02-5.952 6.851-8.06 2.941-2.192 6.881-2.627 10.07-4.433 2.433-1.376 4.401-6.184 6.851-4.836 2.356 1.296.726 5.617-.403 8.06-1.315 2.846-4.673 4.189-6.851 6.447-1.982 2.056-4.199 3.985-5.641 6.447-1.01 1.722-2.135 3.648-2.01 5.641.127 2.094 1.033 4.536 2.821 5.641 2.857 1.766 6.725-.25 10.07 0 2.709.202 6.073-.644 8.06 1.208.906.845-.134 2.82.806 3.626 1.532 1.315 4.22 1.259 6.04.403 3.309-1.549 5.226-5.421 6.448-8.865.854-2.409-.415-5.235.403-7.656 1.144-3.389 3.256-6.627 6.04-8.865 1.128-.906 2.683-2.139 4.03-1.612 2.909 1.138 1.445 6.707 4.03 8.461 1.67 1.134 4.168 1.148 6.04.403 2.385-.947 2.774-4.928 5.236-5.641 4.537-1.314 9.18 4.998 13.697 3.626 2.914-.884 5.728-3.821 6.04-6.851.37-3.529-5.316-5.721-5.236-9.269.028-1.267.999-2.467 2.01-3.224 4.468-3.329 10.805-2.755 16.12-4.433 7.617-2.404 15.21-4.948 22.566-8.06 8.686-3.675 17.52-7.289 25.384-12.492 4.289-2.837 11.687-10.07 11.687-10.07s-9.467 7.77-13.298 12.492c-2.279 2.809-5.375 5.661-5.641 9.269-.483 6.544 5.288 12.02 7.656 18.13 1.749 4.516 4.836 13.697 4.836 13.697s1.17-11.824 3.223-17.328c1.578-4.231 4.682-7.726 6.851-11.687 3.549-6.481 10.07-19.746 10.07-19.746s-2.827 8.21-1.612 12.09c1.251 3.992 4.954 6.989 8.461 9.269 2.849 1.851 9.671 3.223 9.671 3.223s-3.569-9.837-3.223-14.91c.214-3.137 2.039-5.953 3.223-8.865 1.723-4.231 3.288-8.575 5.641-12.492 1.924-3.201 4.555-5.92 6.851-8.865 1.47-1.886 3.549-3.419 4.433-5.641 2.192-5.514 1.612-17.731 1.612-17.731s-.023 10.433-1.612 15.313c-1.826 5.608-6.973 9.726-8.865 15.313-1.347 3.976-2.694 8.44-1.612 12.492 1.087 4.076 5.127 6.699 7.656 10.07 2.304 3.075 6.851 9.269 6.851 9.269s-3.48-11.17-2.01-16.521c.581-2.125 3.321-3.152 4.03-5.236 1.427-4.199-.977-8.974 0-13.298.689-3.047 2.119-5.991 4.03-8.461 2.683-3.469 6.803-5.542 10.07-8.461 8.01-7.15 16.751-13.708 23.372-22.16 5.528-7.06 10.232-14.95 13.298-23.372 4.343-11.934 8.03-24.832 6.851-37.475-1.147-12.32-3.239-27.447-13.298-34.651-14.1-10.1-34.934-5.172-51.983-2.01-8.05 1.49-16.385 4.308-22.566 9.671-10.545 9.149-14.526 23.843-21.758 35.782z" stroke-linecap="round" transform="matrix(1.06898 0 0 1 2469.08 14.848)"/><path d="M-1615.45 360.88c-1.735.02-3.462.203-5.138.556-3.908.823-9.6 5.03-10.734 5.334 0 0 2.717-.194 3.993.197 1.713.525 3.182 1.704 4.614 2.781 3.058 2.304 5.068 5.952 8.409 7.821 3.803 2.127 8.27 3.964 12.598 3.469 2.659-.304 5.963-1.377 7.04-3.828 1.33-3.039-.407-6.986-2.422-9.621-2.275-2.976-6.184-4.497-9.785-5.53-2.745-.787-5.682-1.211-8.574-1.178zm-9.948 53.605c-3.746-.055-7.362 2.094-10.407 4.287-3.707 2.668-6.939 6.28-8.967 10.373-1.773 3.579-1.992 10.635-2.455 11.716 0 0 1.555-2.251 2.65-3.01 1.473-1.021 3.274-1.441 5.01-1.899 3.703-.976 7.819-.299 11.356-1.768 4.03-1.67 8.245-4.02 10.535-7.723 1.407-2.277 2.636-5.558 1.375-7.92-1.563-2.926-5.781-4.01-9.1-4.058zm81.91 13.482a5.65 5.65 0 0 0-1.833.328c-2.522.896-3.829 4.11-4.32 6.742-.8 4.284.733 8.883 2.585 12.828 1.627 3.466 5.151 5.72 7.232 8.933.974 1.505 2.02 3.064 2.422 4.811.3 1.3-.066 3.993-.066 3.993.384-1.11 4.955-6.501 6.05-10.341 1.257-4.392 1.305-9.242.36-13.708-.775-3.665-2-7.663-4.811-10.145-2.02-1.784-4.927-3.464-7.624-3.436zm-39.824 9.1c-2.52-.132-5.326 1.072-7.393 2.455-3.115 2.081-4.858 5.897-6.12 9.425-1.538 4.301-2.159 9.09-1.506 13.613.572 3.952 4.382 9.909 4.614 11.06 0 0 .02-2.746.491-3.993.633-1.677 1.876-3.058 3.043-4.418 2.494-2.905 6.266-4.671 8.345-7.886 2.366-3.66 4.504-7.985 4.287-12.337-.133-2.673-.993-6.07-3.371-7.298a5.851 5.851 0 0 0-2.389-.622z" transform="matrix(1.06898 0 0 1 2469.08 14.848)"/><path d="M-1623.77 195.1c-2.335-3.577-4.274-7.749-7.789-10.178-11.666-8.06-26.863-9.331-40.742-12.239-9.271-1.943-18.737-3.577-28.21-3.436-18.347.273-36.425 4.695-54.42 8.279-16.32 3.251-31.924 10.153-48.46 11.978-12.927 1.425-26.05.198-39.01-.884-15.308-1.278-30.25-7.084-45.608-6.607-10.763.334-21.11 4.266-31.625 6.607-6.477 1.442-14.14.504-19.373 4.581-10.727 8.357-18.08 22.616-18.817 36.19-.324 5.997 10.247 12.06 6.545 16.786-5.431 6.939-19.504-9.115-26.21-3.403-6.947 5.914 1.259 18.481-.851 27.352-1.04 4.377-6.162 7.764-5.695 12.239.691 6.618 7.153 11.386 11.978 15.969 8.627 8.196 18.685 15.228 29.614 19.928 11.983 5.154 25.14 8.779 38.19 8.541 10.835-.197 21.21-4.695 31.447-8.247 33.374-11.582 63.802-30.661 97.13-42.38 18.13-6.376 36.518-16.807 55.668-15.09 13.149 1.18 25.2 9.116 35.772 17.02 14.405 10.76 22.883 27.854 36.03 40.12 5.05 4.71 9.808 10.464 16.33 12.73 5.484 1.905 11.634.068 17.442.131 10.781.116 22.448-3.817 32.33.491 3.676 1.602 4.96 6.471 8.313 8.672 4.242 2.787 11.06 1.364 14.268 5.302 2.327 2.86-.162 7.73 1.669 10.93 1.908 3.334 8.358 3.472 8.967 7.265.652 4.065-4.086 7.206-6.676 10.407-2.431 3.01-6.239 4.878-8.246 8.182-1.834 3.02.341 9.53-3.142 10.112-3.511.586-3.516-6.439-6.314-8.639-2.23-1.753-5.725-1.396-7.854-3.272-2.766-2.438-2.929-6.944-5.498-9.588-3.728-3.837-8.591-6.828-13.708-8.377-3.129-.947-7.591-2.783-9.785-.36-2.301 2.543 2.141 6.828 1.407 10.178-.385 1.758-1.337 3.677-2.912 4.549-.907.503-2.115-.259-3.109.033-2.582.757-6.78 1.597-6.839 4.287-.066 2.995 4.729 3.741 7.393 5.105 2.782 1.424 6.365 1.227 8.836 3.142 3.081 2.387 4.859 6.173 6.545 9.686.558 1.163 1.614 2.495 1.146 3.698-.756 1.94-3.457 2.392-5.399 3.142-2.538.98-5.288 2.089-7.985 1.702-2.566-.369-4.383-2.869-6.839-3.698a16.081 16.081 0 0 0-5.433-.851c-2.903.06-6.129.086-8.541 1.702-2.274 1.524-4.333 4.11-4.549 6.839-.214 2.715 1.879 5.172 3.403 7.429 1.313 1.944 3.634 3.095 4.843 5.105 1.395 2.317 1.127 5.413 2.585 7.69 1.269 1.982 2.994 3.871 5.138 4.843 3.643 1.651 7.945 1.106 11.944 1.146 1.149.012 2.415.265 3.436-.262 2.333-1.204 2.706-7.257 5.04-6.05 2.547 1.313-1.733 5.484-2.193 8.313-.489 3.01-1.381 6.186-.59 9.13.713 2.649 2.141 5.585 4.581 6.839 2.872 1.478 6.581-1.183 9.687-.294 2.307.66 3.861 2.884 5.989 3.993 1.62.844 3.278 1.977 5.105 1.996 1.929.02 4.281-.448 5.433-1.996 2.785-3.744-1.194-9.779.851-13.974 1.443-2.959 4.426-5.124 7.393-6.545 2.525-1.208 6.06-3.111 8.279-1.407 2.416 1.855-.555 6.396.851 9.1.747 1.435 2.128 2.752 3.698 3.142 2.548.632 5.182-.926 7.69-1.702 1.954-.605 3.689-2.7 5.695-2.291 2.902.593 3.468 5.363 6.283 6.283 2.371.775 5.217.069 7.393-1.146 3.71-2.068 6.743-5.726 8.279-9.686.963-2.483 1.238-5.507.262-7.985-1.178-2.993-5.579-3.866-6.807-6.839-1.124-2.723-.979-6.06 0-8.836 1.862-5.278 7.123-8.65 10.535-13.09 2.73-3.551 5.288-7.228 7.952-10.832 1.62-2.196 2.157-6.335 4.876-6.577 2.214-.195 2.863 3.573 4.843 4.581 2.749 1.401 6.01 1.784 9.1 1.702 3.232-.087 6.56-.794 9.425-2.291 5.836-3.048 14.786-13.09 14.786-13.09s-9.741 6.808-15.381 7.101c-3.51.182-6.949-1.624-9.981-3.403-3.304-1.939-6.101-4.737-8.541-7.69-2.687-3.252-6.545-10.832-6.545-10.832s3.66 5.956 6.545 7.69c1.914 1.151 4.766 2.791 6.545 1.44 2.811-2.133-.851-7.351.59-10.566.875-1.957 2.84-3.253 4.549-4.549 2.782-2.115 6.247-3.162 9.13-5.137 2.841-1.943 6.03-3.71 7.985-6.545 1.193-1.733 1.996-5.989 1.996-5.989s-6.119 3.327-9.425 3.142c-2.929-.164-5.806-1.735-7.985-3.698-2.879-2.593-4.609-6.346-5.956-9.981-1.174-3.162-1.444-6.616-1.734-9.981-.13-1.511 0-4.549 0-4.549s2.497 4.585 4.581 5.989c4.166 2.806 9.541 4.574 14.53 3.993 8.06-.94 16.12-5.487 21.369-11.682 4.098-4.839 6.251-17.97 6.251-17.97s-3.412 11.263-7.69 14.824c-3.506 2.918-8.551 4.451-13.09 3.993-7.532-.76-14-6.166-19.959-10.832-5.874-4.597-8.637-12.778-15.09-16.526-5.221-3.035-11.704-3.061-17.671-3.993-6.405-1-13.05-.282-19.373-1.702-9.09-2.04-17.544-6.276-26.21-9.686-6.425-2.528-13.447-4.04-19.11-7.985-4.572-3.186-7.956-7.849-11.388-12.239-3.544-4.534-6.464-9.53-9.425-14.465-8.06-13.441-14.11-28.07-22.679-41.19z" transform="matrix(1.06898 0 0 1 2469.08 14.848)"/></g></g><g stroke="#000" stroke-width="4.618"><path d="M-2692.26 347.93c.554-.976 1.526-7.656 3.588-10.864 2.359-3.669 5.8-6.753 9.602-8.891 3.119-1.754 6.773-3.393 10.322-2.942 3.143.399 7.03 1.864 8.199 4.807.946 2.374-.555 5.354-2.133 7.365-2.569 3.274-6.824 5.069-10.821 6.226-3.512 1.017-7.342-.077-10.959.456-1.693.249-3.467.462-4.973 1.274-1.121.604-2.825 2.57-2.825 2.57zM-2694.41 278.37c1.103-.205 6.838-3.767 10.62-4.257 4.326-.56 8.901.084 12.987 1.613 3.351 1.254 6.959 2.993 8.902 5.997 1.72 2.66 3.102 6.574 1.607 9.367-1.206 2.254-4.452 3.03-7.01 3.115-4.159.145-8.273-1.952-11.734-4.262-3.041-2.03-4.672-5.664-7.411-8.09-1.282-1.134-2.588-2.353-4.179-2.982-1.184-.468-3.786-.504-3.786-.504zM-2634.6 250.52c.806.78 7.03 3.389 9.624 6.186 2.964 3.2 5.091 7.302 6.213 11.517.92 3.458 1.595 7.406.273 10.73-1.171 2.944-3.559 6.338-6.701 6.739-2.535.324-5.05-1.874-6.599-3.903-2.529-3.305-3.205-7.873-3.328-12.03-.108-3.655 1.907-7.09 2.294-10.726.181-1.702.418-3.473 0-5.134-.305-1.236-1.783-3.377-1.783-3.377zM-2660.36 375.02c1.12-.067 7.544 2.01 11.333 1.572 4.334-.499 8.619-2.227 12.215-4.695 2.95-2.025 6.03-4.582 7.194-7.966 1.028-2.997 1.426-7.128-.698-9.478-1.713-1.897-5.05-1.864-7.55-1.335-4.071.861-7.559 3.888-10.361 6.965-2.462 2.703-3.17 6.623-5.243 9.635-.971 1.41-1.944 2.908-3.337 3.901-1.037.739-3.553 1.402-3.553 1.402z" transform="matrix(1.11941 0 0 1.04718 3067.955 -172.642)"/></g><path d="M-2056.77 192.91c-12.718-4.825-27.01 9.384-40.3 6.447-12.66-2.798-22.21-13.542-32.24-21.76-12.268-10.06-22.461-22.405-33.845-33.446-5.457-5.288-13.525-8.73-16.521-15.718-1.324-3.086-1.176-6.929 0-10.07 1.435-3.835 5.917-5.779 8.06-9.269 2.428-3.953 6.512-8.43 5.236-12.895-.502-1.757-3-2.088-4.433-3.223-3.059-2.426-5.057-8.517-8.865-7.656-2.604.589-1.324 5.457-3.223 7.33-1.662 1.641-4.155 3.186-6.448 2.74-2.238-.435-2.802-3.805-4.836-4.836-1.576-.799-3.489-1.047-5.236-.806-1.905.268-4.135.842-5.236 2.418-1.856 2.65-2.026 6.676-.806 9.671 1.01 2.469 4.829 2.866 6.04 5.236 1.354 2.641 2.01 6.154.806 8.865-.819 1.841-3.03 2.742-4.836 3.626-1.376.673-2.985 1.706-4.433 1.208-5.082-1.744-6.622-8.471-9.672-12.895-1.713-2.485-3.01-5.246-4.836-7.656-1.091-1.441-1.976-3.294-3.626-4.03-2.086-.929-5.01-1.357-6.851 0-2.939 2.171-1.756 7.131-3.224 10.482-.75 1.709-1.527 3.491-2.821 4.836-2.428 2.524-6.52 3.04-8.865 5.641-1.01 1.115-2.206 2.54-2.01 4.03.363 2.833 3.173 5.02 5.641 6.447 3.556 2.059 7.999 2.01 12.09 2.418 2.807.278 6.57-2.091 8.461 0 .906 1-1.127 2.89-.403 4.03 1.298 2.044 4.559 1.632 6.851 2.418 1.607.552 4.836 1.612 4.836 1.612s-8.525 1.392-12.09 3.626c-1.852 1.161-2.338 4.21-4.433 4.836-2.122.638-4.238-1.451-6.447-1.612-2.692-.196-5.575-.25-8.06.806-3.244 1.38-6.579 3.65-8.06 6.851-.451.975-.711 2.418 0 3.223 1.434 1.624 4.461-.057 6.447.806 1.925.836 3.721 2.252 4.836 4.03 1.472 2.346 1.677 5.311 2.01 8.06.377 3.066-2.123 7.02 0 9.269 1.664 1.759 4.944 1.131 7.254.403 2.281-.718 4.405-2.385 5.641-4.433 2.684-4.442-.298-11.164 2.821-15.313 1.264-1.681 3.541-2.728 5.641-2.821 4.76-.21 10.468 1.406 13.298 5.236 2.081 2.818 1.313 7.01.806 10.482-.27 1.851-.757 3.854-2.01 5.236-1.615 1.779-5.443 1.041-6.448 3.223-.694 1.509.374 3.399 1.209 4.836 2.148 3.697 7.121 5.169 9.269 8.865 1.669 2.873 1.655 6.437 2.418 9.671.285 1.205-.286 3.041.806 3.626 3.298 1.769 8.07-1.169 10.482-4.03 1.766-2.094-1.099-7.657 1.612-8.06 4.22-.626 3.12 8.177 6.04 11.283 1.406 1.492 4.121 1.505 5.236 3.223 2.734 4.199 2.837 9.963 2.01 14.91-.443 2.666-1.804 5.257-3.626 7.254-2.237 2.449-8.461 5.236-8.461 5.236s7.393 2.293 10.88 1.208c2.546-.793 4.491-3.071 6.04-5.236 2.281-3.183 1.575-8.203 4.433-10.88 1.55-1.452 4.296-3.222 6.04-2.01 2.766 1.91.521 6.716.403 10.07-.172 4.862-.623 9.743-1.612 14.507-.371 1.789-1.612 5.236-1.612 5.236s7.287-.441 10.482-2.01c2.901-1.431 5.338-3.84 7.254-6.447 1.744-2.374.929-6.877 3.626-8.06 1.556-.682 3.595.451 4.836 1.612 2.331 2.181 2.907 5.754 3.626 8.865.911 3.934 1.737 8.16.806 12.09-.61 2.578-2.505 4.684-4.03 6.851-1.812 2.574-7.562 4.496-6.04 7.254 1.502 2.73 6.417.047 9.269-1.208 3.054-1.345 5.732-3.722 7.656-6.447 1.324-1.874.226-5.765 2.418-6.447 3.593-1.119 6.458 3.944 9.269 6.447 4.548 4.052 7.414 9.796 12.09 13.697 5.18 4.327 10.59 10.889 17.328 10.482 9.548-.584 15.958-10.813 22.566-17.731 8.78-9.191 19.28-18.649 22.16-31.03 1.884-8.09-.608-17.02-4.03-24.582-3.578-7.914-8.398-17.07-16.521-20.15z" stroke="#000" stroke-linecap="round" stroke-width="4.836" transform="matrix(1.06898 0 0 1 2469.08 14.848)"/></g><path d="M378.53 37.693c-11.845-.438-23.092-5.423-34.9-6.386-19.665-1.603-40.01 5.374-59.2 1.068-4.146-.93-7.045-5.209-11.285-5.63-3.63-.361-8.264.138-10.532 2.815-3.274 3.866-.903 9.849-.752 14.776.273 8.959-1 18.601 3.009 26.741 2.745 5.576 6.976 5.596 7.296 9.477.075.91-.982 1.587-1.327 2.44-1.149 2.843-1.599 3.172-2.433 8.831-1.132 7.682 2.55 15.528 1.505 23.22-.577 4.25-4.119 7.945-4.233 12.228-.16 5.981 4.465 11.369 4.987 17.332.822 9.398-4.579 18.833-3.01 28.15.683 4.047 1.966 8.563 5.267 11.26 1.374 1.124 4.018.16 5.265 1.408 2.453 2.454-.535 7.741 2.257 9.853 2.926 2.212-8.18 25.904-4.63 27.07 1.514.497 5.819 7.848 6.654 9.131 1.328 2.044-2.15 11.501-2.836 13.804-1.201 3.995-4.976 21.814 3.028 26.743 47.377 29.18 174.297 4.722 162.528-47.19-.89-3.928-8.563 2.1-12.79 1.408-4.97-.814-9.972-2.996-13.54-6.333-2.379-2.226-3.064-5.605-4.513-8.445-1.304-2.558-3.514-4.916-3.761-7.741-.782-8.961 8.626-17.11 7.525-26.04-.424-3.441-4.65-5.734-5.264-9.149-1.309-7.263 5.292-14.591 3.76-21.816-.745-3.512-5.117-5.669-6.017-9.149-.769-2.973.43-6.105.753-9.149.548-5.19 2.41-10.331 2.008-15.533-.391-5.073-3.548-9.686-4.265-14.728-.43-3.02.142-6.102 0-9.149-.11-2.332-1.004-4.665-.654-6.976.202-1.341.92-2.577 1.564-3.79 1.83-3.45 3.239-3.326 6.487-9.831 3.142-6.295 1.868-14.304 1.75-21.487-.07-4.222 1.635-9.506-1.443-12.594-2.502-2.511-7.19-2.187-10.837-1.81-2.82.291-5.104 2.406-7.849 3.076-6.352 1.552-13.006 2.34-19.565 2.097"/><g stroke="#fff" stroke-linejoin="round" stroke-width="2.902"><g stroke-linecap="round"><path d="M-2036.45 52.779s11.283 1.52 16.614 3.398c4.407 1.553 9.582 2.739 12.461 6.42 3.03 3.871 3.05 9.447 3.398 14.35.296 4.161-1.127 8.289-1.133 12.461-.012 7.203-.89 14.879 1.888 21.525 1.274 3.048 3.476 6.05 6.42 7.553 1.462.745 4.909.378 4.909.378M-1947.33 52.779s-11.284 1.52-16.614 3.398c-4.407 1.553-9.582 2.739-12.461 6.42-3.03 3.871-3.05 9.447-3.398 14.35-.296 4.161 1.127 8.289 1.133 12.461.012 7.203.89 14.879-1.888 21.525-1.275 3.048-3.476 6.05-6.42 7.553-1.462.745-4.909.378-4.909.378M-2006.24 168.33s-6.716-3.694-8.686-6.797c-1.521-2.398-2.362-5.508-1.888-8.307.792-4.684 7.553-12.08 7.553-12.08M-1978.29 167.19s6.716-3.694 8.686-6.797c1.521-2.398 2.362-5.508 1.888-8.307-.792-4.684-7.553-12.08-7.553-12.08" transform="matrix(1.06898 0 0 1 2469.08 14.848)"/></g><path d="M-2007.22 138.57v34.21h.108v.171c0 8.344 6.638 15.11 14.85 15.11 8.207 0 14.899-6.772 14.899-15.11v-.171h.055v-34.21h-29.907z" fill="#da121a" transform="matrix(1.06898 0 0 1 2469.08 14.848)"/><g stroke-linecap="round"><path d="M-2021.73 113.2s-3.887 5.747-4.531 9.06c-.602 3.099-.472 6.532.755 9.441 1.04 2.465 3.043 4.584 5.286 6.04 3.204 2.083 7.13 3.327 10.951 3.398 3.389.064 6.955-.83 9.819-2.644 2.791-1.768 5.227-4.471 6.42-7.553 1.319-3.406.378-10.951.378-10.951" transform="matrix(1.06898 0 0 1 2469.08 14.848)"/><path d="M-1962.81 112.07s3.887 5.748 4.531 9.06c.602 3.099.472 6.532-.755 9.441-1.04 2.465-3.043 4.584-5.287 6.04-3.204 2.083-7.13 3.326-10.951 3.398-3.389.064-6.955-.83-9.818-2.644-2.791-1.768-5.227-4.471-6.42-7.553-1.319-3.406-.378-10.951-.378-10.951M-2046.64 82.61s1.529 7.581 3.776 10.573c1.678 2.235 4.158 3.989 6.797 4.909 2.617.912 5.583.891 8.307.378 2.436-.459 4.779-1.58 6.797-3.02 1.956-1.398 3.367-3.441 4.909-5.287 1.614-1.932 4.531-6.04 4.531-6.04M-1937.31 82.61s-1.529 7.581-3.776 10.573c-1.678 2.235-4.158 3.989-6.797 4.909-2.618.912-5.583.891-8.307.378-2.436-.459-4.779-1.58-6.797-3.02-1.956-1.398-3.367-3.441-4.909-5.287-1.614-1.932-4.531-6.04-4.531-6.04M-2018.7 73.17s-5.283-3.635-8.307-4.531c-3.147-.933-6.794-2.033-9.819-.755-1.811.765-3.776 4.531-3.776 4.531M-1965.81 73.17s5.283-3.635 8.307-4.531c3.147-.933 6.794-2.033 9.819-.755 1.811.765 3.776 4.531 3.776 4.531" transform="matrix(1.06898 0 0 1 2469.08 14.848)"/></g></g><g fill-rule="evenodd"><path d="M724.27 199.598c9.297-20.425 18.311-41.537 32.825-59.1 6.833-8.265 15.367-15.525 24.89-20.984 8.907-5.107 18.838-9.851 29.262-10.498 9.174-.57 20.385-.157 26.831 5.974 8.056 7.659 7.878 20.738 7.442 31.476-.442 10.868-5.47 21.252-10.095 31.23-10.867 23.449-23.905 46.46-41.049 66.36-10.538 12.237-21.096 36.07-37.248 31.753-4.603-1.229-.35-9.931-3.908-12.927-1.246-1.049-4.242.62-4.954-.799-2.063-4.107 4.677-7.956 7.25-11.801 9.15-13.67 20.23-26.17 29.087-40.01 8.029-12.546 13.694-26.329 21.721-38.876 2.474-3.866 6.377-6.981 8.124-11.18 1.823-4.385 3.762-9.499 2.183-13.966-1.1-3.11-4.208-5.652-7.42-6.957-3.502-1.423-7.86-1.578-11.447-.353-6.08 2.076-10.153 7.61-14.432 12.154-10.353 10.993-18.679 23.576-26.778 36.11-8.443 13.06-9.38 31.718-22.663 40.585-4.183 2.793-11.352 5.299-15.244 2.159-4.03-3.251-.827-10.02.043-14.933.95-5.354 3.301-10.431 5.574-15.424M737.108 324.918c-3.873-2.368-9.275-3.91-13.632-2.453-24.854 8.311-40.653 34.08-50.659 56.933-1.15 2.628 1.08 6.225-.757 8.49-2.598 3.214-7.964 3.119-12.101 4.245-4.7 1.279-10.496.032-14.37 2.83-4.017 2.9-4.921 8.33-6.808 12.736-2.55 5.955-3.535 12.428-6.05 18.396-3.806 9.03-6.726 18.923-13.615 26.18-2.786 2.935-6.562 5.262-10.59 6.368-3.627.997-7.568 0-11.344 0-8.574 0-18.049-3.586-25.72 0-2.256 1.055-3.327 3.592-4.538 5.66-1.035 1.767-.97 4.053-2.268 5.66-3.589 4.44-14.37 9.906-14.37 9.906s9.785 1.299 14.37 0c3.48-.986 5.846-4.097 9.075-5.66 3.119-1.51 6.376-4.112 9.833-3.538 2.638.439 3.725 3.706 6.05 4.953 4.151 2.225 8.853 3.816 13.615 4.245 5.82.524 12.014.019 17.395-2.123 5.943-2.365 10.191-7.426 15.126-11.321 2.321-1.831 3.951-6.623 6.808-5.66 3.119 1.051 2.265 6.177 1.512 9.198-1.397 5.607-9.257 8.529-10.589 14.15-.942 3.975.197 8.448 2.268 12.03 2.633 4.549 12.102 10.613 12.102 10.613s-4.034-7.318-4.538-11.321c-.475-3.777-.273-7.904 1.513-11.321 2.194-4.195 6.457-7.288 10.59-9.906 1.589-1.01 3.569-2.911 5.294-2.123 4.451 2.033.659 9.847 3.782 13.443 4.265 4.912 11.472 7.493 18.152 8.49 6.796 1.015 14.61.616 20.418-2.83 3.071-1.821 5.072-5.214 6.05-8.49 1.561-5.23-.756-16.273-.756-16.273s-2.2 5.407-4.538 7.08c-5.204 3.714-12.903 7.38-18.908 4.953-5.487-2.217-8.893-9.293-8.32-14.858.62-6.01 7.67-9.757 12.102-14.15 4.655-4.616 12.522-6.876 15.126-12.736 1.938-4.361.787-9.654-.756-14.15-1.283-3.737-4.231-6.807-6.807-9.906-3.176-3.82-9.531-5.876-10.589-10.613-.928-4.162 2.446-8.253 4.538-12.03 4.41-7.959 10.948-14.721 16.64-21.934 9.27-11.746 17.951-23.994 28.515-34.743 1.488-1.514 4.626-2.112 4.877-4.155.21-1.714-1.595-3.318-3.139-4.261"/></g></svg>