<svg xmlns="http://www.w3.org/2000/svg" width="698.777" height="763.541"><path style="fill:#fff;stroke:none;stroke-width:11;stroke-linecap:round;stroke-linejoin:round;stroke-miterlimit:4;stroke-dasharray:none" d="M346.258 5.5v.047H5.5a1228.636 1228.636 0 0 1 4.871 51.965c2.153 29.73 3.224 59.54 4.873 89.31 2.22 40.09 5.49 80.11 8.12 120.17 1.953 29.75 3.553 59.524 4.87 89.31 1.993 45.08 3.358 90.37 11.368 134.78 4.477 24.84 11.032 49.301 19.488 73.08 10.24 28.802 23.43 56.862 42.27 80.932 13.564 17.329 29.878 32.37 47.359 45.732 20.005 15.292 41.651 28.489 64.64 38.764 24.321 10.872 50.08 18.438 76.32 23.049a358.1 358.1 0 0 0 58.05 5.359V758h.17c1.226.013 2.452.04 3.68.041v-.033a327.338 327.338 0 0 0 57.32-4.922c26.351-4.636 52.139-12.525 76.519-23.543 22.944-10.369 44.622-23.495 64.64-38.764 17.497-13.345 33.8-28.4 47.36-45.732 18.83-24.08 32.03-52.13 42.27-80.932 8.457-23.778 15.01-48.24 19.488-73.08 8.01-44.41 9.374-89.7 11.367-134.78 1.317-29.786 2.917-59.56 4.871-89.31 2.63-40.06 5.9-80.08 8.12-120.17 1.648-29.77 2.717-59.58 4.87-89.31A1228.645 1228.645 0 0 1 693.277 5.5h-172.13z"/><path style="stroke:#000" d="M45.928 359.79c2.553 40.92 3.46 82.08 10.449 122.45 4.179 24.14 10.01 48.2 18.84 71.03 10.667 27.57 23.25 54.958 40.864 78.65 12.702 17.08 28.913 31.475 45.736 44.46 19.275 14.857 40.29 27.773 62.49 37.657 23.489 10.455 48.546 17.542 73.77 22.425 14.08 2.726 38.497 4.205 51.31 4.838V359.79H45.917zM555.878 23.73c-18.06.037-35.24.131-48.882.327-51.03.732-145.11.12-157.61.032v335.7h301.42c1.763-27.24 2.707-54.5 4.351-81.75 2.35-38.925 5.462-77.81 7.812-116.74 1.745-28.91 2.564-57.89 4.681-86.78 1.235-16.854 4.681-50.48 4.681-50.48s-62.28-.437-116.47-.327z"/><path style="fill:none;stroke:#000;stroke-width:11;stroke-linecap:round;stroke-linejoin:round;stroke-miterlimit:4;stroke-dasharray:none" d="M346.258 5.5v.047H5.5a1228.636 1228.636 0 0 1 4.871 51.965c2.153 29.73 3.224 59.54 4.873 89.31 2.22 40.09 5.49 80.11 8.12 120.17 1.953 29.75 3.553 59.524 4.87 89.31 1.993 45.08 3.357 90.37 11.367 134.78 4.477 24.84 11.033 49.301 19.489 73.08 10.24 28.802 23.43 56.862 42.27 80.932 13.564 17.329 29.878 32.37 47.359 45.732 20.005 15.292 41.651 28.489 64.64 38.764 24.321 10.872 50.08 18.438 76.32 23.049a358.1 358.1 0 0 0 58.05 5.36V758h.17c1.226.013 2.452.04 3.68.041v-.033a327.338 327.338 0 0 0 57.32-4.922c26.351-4.636 52.139-12.525 76.519-23.543 22.944-10.369 44.622-23.495 64.64-38.764 17.497-13.345 33.8-28.4 47.36-45.732 18.83-24.08 32.03-52.13 42.27-80.932 8.457-23.778 15.01-48.24 19.488-73.08 8.01-44.41 9.374-89.7 11.367-134.78 1.317-29.786 2.917-59.56 4.871-89.31 2.63-40.06 5.9-80.08 8.12-120.17 1.648-29.77 2.717-59.58 4.87-89.31A1228.645 1228.645 0 0 1 693.277 5.5h-172.13z"/><path d="m456.308 387.59 18.523 89.39 8.139 39.36-34.21-9.364-77.69-21.312 9.593 21.312 9.619 21.282-9.619 21.312-9.593 21.282 77.69-21.282 34.21-9.394-8.139 39.36-18.523 89.39 18.523-11.04 18.498-11.07 18.523 11.07 18.498 11.04-18.498-89.39-8.165-39.36 34.21 9.394 77.69 21.282-9.593-21.282-9.619-21.312 9.619-21.282 9.593-21.312-77.69 21.312-34.21 9.364 8.165-39.36 18.498-89.39-18.498 11.04-18.523 11.07-18.498-11.07z" style="fill:#da121a;stroke:#000;stroke-width:5;stroke-linecap:round"/><path style="fill:none;stroke:#000;stroke-width:5;stroke-linecap:round" d="M596.378 528.26h-206.1M493.328 409.69v237.13M503.688 540.18l-10.359-11.918M482.968 540.18l10.359-11.918M482.968 516.34l10.359 11.918M503.688 516.34l-10.359 11.918"/><path style="fill:#000;stroke:#000;stroke-width:5" d="m136.338 27.78 18.723 22.19v99.01h-88.21l-19.772-21.02v115.26l19.772-21.02h88.21v99.04l-18.723 22.19h102.69l-18.723-22.19V222.2h88.24l19.772 21.02V127.96l-19.772 21.02h-88.24V49.97l18.723-22.19z"/><path style="fill:#fff" d="M179.018 116.47v58.37h-46.874v21.575h46.874v58.37h17.35v-58.37h46.874V174.84h-46.874v-58.37h-17.35M168.088 103.67h39.21v12.794h-39.21z"/><path style="fill:#fff" d="M168.088 254.78h39.21v12.794h-39.21zM132.148 166.02v39.21h-12.794v-39.21zM256.038 166.02v39.21h-12.794v-39.21z"/><path style="fill:#fcdd09;fill-opacity:1;stroke:none;stroke-width:1px;stroke-linecap:butt;stroke-linejoin:miter;stroke-opacity:1" d="M187.678 46.195a20.426 20.426 0 0 0-5.007 3.4c-.855.789-1.646 1.657-2.258 2.645-.613.988-1.042 2.101-1.14 3.26a5.843 5.843 0 0 0 .339 2.543 5.306 5.306 0 0 0 1.45 2.111 5.086 5.086 0 0 0 3.218 1.254 39.799 39.799 0 0 0-.18 3.936c.006 1.497.1 2.997.36 4.472a19.71 19.71 0 0 0 1.433 4.658 18.188 18.188 0 0 1-3.76-3.761c-1.207-1.629-2.133-3.444-3.168-5.188-1.034-1.743-2.208-3.449-3.793-4.713-.78-.622-1.657-1.132-2.605-1.447-.947-.315-1.966-.433-2.953-.285-1.56.234-2.984 1.13-3.994 2.344-1.01 1.213-1.624 2.724-1.908 4.277-.49 2.668-.04 5.41.459 8.076.38 2.034.789 4.064 1.33 6.06a46.853 46.853 0 0 0 2.3 6.542 31.485 31.485 0 0 1 1.99-3.5c.724-1.101 1.523-2.163 2.505-3.041.588-.527 1.246-.986 1.976-1.287.73-.302 1.536-.442 2.316-.325 1.05.158 1.98.763 2.782 1.457a11.99 11.99 0 0 1 2.367 2.79l-.041 7.882c-1-.04-2.012.299-2.783.936-.818.675-1.348 1.654-1.608 2.683-.328 1.305-.233 2.729.356 3.938.535 1.099 1.452 1.984 2.5 2.613s2.227 1.014 3.42 1.278c1.344.296 2.72.446 4.097.44a18.706 18.706 0 0 0 4.098-.44c1.193-.264 2.37-.649 3.418-1.278s1.965-1.514 2.5-2.613c.589-1.21.688-2.633.36-3.938-.26-1.029-.794-2.008-1.612-2.683a4.154 4.154 0 0 0-2.783-.936l-.041-7.883a11.99 11.99 0 0 1 2.367-2.789c.802-.694 1.734-1.299 2.783-1.457.781-.117 1.589.023 2.319.325.73.301 1.384.76 1.972 1.287.982.878 1.781 1.94 2.504 3.04a31.485 31.485 0 0 1 1.99 3.5c.928-2.119 1.7-4.307 2.305-6.54.54-1.997.946-4.027 1.326-6.06.498-2.667.95-5.41.461-8.077-.284-1.553-.898-3.064-1.908-4.277-1.01-1.213-2.434-2.11-3.994-2.344-.988-.148-2.008-.03-2.955.285-.948.315-1.825.825-2.606 1.447-1.585 1.264-2.756 2.97-3.79 4.713-1.035 1.744-1.961 3.56-3.169 5.188a18.189 18.189 0 0 1-3.76 3.761 19.716 19.716 0 0 0 1.436-4.658c.26-1.475.35-2.975.356-4.472a39.614 39.614 0 0 0-.178-3.936 5.086 5.086 0 0 0 3.219-1.254 5.302 5.302 0 0 0 1.447-2.111 5.844 5.844 0 0 0 .342-2.543c-.1-1.159-.529-2.272-1.141-3.26s-1.404-1.856-2.258-2.644a20.426 20.426 0 0 0-5.008-3.4zm104.323 115.287c-2.022-.056-4.065.29-6.065.664-2.034.38-4.063.788-6.06 1.328a46.861 46.861 0 0 0-6.541 2.303 31.484 31.484 0 0 1 3.5 1.99c1.1.724 2.162 1.523 3.04 2.504.527.589.988 1.245 1.29 1.975.301.73.44 1.537.322 2.318-.158 1.049-.76 1.98-1.455 2.782a12 12 0 0 1-2.791 2.367l-7.881-.041c.04-1-.299-2.012-.936-2.784-.675-.818-1.654-1.35-2.683-1.609-1.304-.329-2.729-.231-3.938.358-1.099.535-1.986 1.452-2.615 2.5-.629 1.047-1.014 2.224-1.277 3.418a18.727 18.727 0 0 0-.44 4.1 18.704 18.704 0 0 0 .44 4.097c.263 1.193.648 2.37 1.277 3.418.629 1.048 1.516 1.965 2.615 2.5 1.21.589 2.634.686 3.938.357 1.029-.26 2.008-.791 2.683-1.61a4.154 4.154 0 0 0 .936-2.782l7.88-.041a12 12 0 0 1 2.792 2.367c.694.801 1.297 1.734 1.455 2.783.117.78-.02 1.587-.322 2.316-.302.73-.763 1.386-1.29 1.975-.878.982-1.94 1.78-3.04 2.504a31.484 31.484 0 0 1-3.5 1.99 46.864 46.864 0 0 0 6.54 2.303c1.998.54 4.027.948 6.061 1.328 2.666.498 5.409.948 8.076.459 1.553-.285 3.066-.896 4.28-1.906 1.213-1.01 2.108-2.436 2.341-3.996.148-.988.032-2.006-.283-2.953-.315-.948-.824-1.825-1.447-2.606-1.264-1.585-2.97-2.758-4.713-3.793-1.744-1.035-3.56-1.96-5.187-3.168a18.188 18.188 0 0 1-3.762-3.76 19.7 19.7 0 0 0 4.656 1.436c1.475.26 2.975.351 4.473.357 1.314.006 2.629-.053 3.937-.177a5.084 5.084 0 0 0 1.252 3.218 5.302 5.302 0 0 0 2.112 1.448 5.844 5.844 0 0 0 2.542.341c1.159-.098 2.274-.528 3.262-1.14.988-.613 1.856-1.406 2.645-2.26a20.407 20.407 0 0 0 3.398-5.006 20.43 20.43 0 0 0-3.398-5.01c-.789-.854-1.657-1.643-2.645-2.255-.988-.613-2.103-1.042-3.262-1.141a5.843 5.843 0 0 0-2.542.34 5.306 5.306 0 0 0-2.112 1.449 5.079 5.079 0 0 0-1.252 3.217 39.836 39.836 0 0 0-3.937-.178c-1.498.006-2.998.097-4.473.357a19.7 19.7 0 0 0-4.656 1.436 18.188 18.188 0 0 1 3.762-3.76c1.628-1.208 3.443-2.133 5.187-3.168 1.744-1.034 3.45-2.208 4.713-3.793.623-.78 1.132-1.658 1.447-2.605.315-.948.431-1.968.283-2.955-.233-1.56-1.128-2.985-2.341-3.994-1.214-1.01-2.727-1.624-4.28-1.909a13.163 13.163 0 0 0-2.011-.203zm-208.614.002c-.674.019-1.346.081-2.013.203-1.553.285-3.065.899-4.278 1.909-1.213 1.01-2.11 2.433-2.343 3.994-.148.987-.03 2.007.285 2.955.315.947.824 1.824 1.447 2.605 1.264 1.585 2.97 2.757 4.713 3.791 1.743 1.035 3.559 1.96 5.187 3.168a18.188 18.188 0 0 1 3.762 3.76 19.716 19.716 0 0 0-4.658-1.436c-1.475-.26-2.975-.349-4.473-.355a39.618 39.618 0 0 0-3.935.178 5.086 5.086 0 0 0-1.254-3.219 5.302 5.302 0 0 0-2.112-1.447 5.844 5.844 0 0 0-2.543-.342c-1.158.099-2.271.528-3.26 1.14-.987.613-1.855 1.404-2.644 2.258a20.426 20.426 0 0 0-3.4 5.008 20.426 20.426 0 0 0 3.4 5.008c.789.854 1.657 1.645 2.645 2.258.988.612 2.101 1.042 3.26 1.14a5.843 5.843 0 0 0 2.542-.34 5.306 5.306 0 0 0 2.112-1.449 5.086 5.086 0 0 0 1.254-3.218c1.308.124 2.621.185 3.935.18 1.498-.007 2.998-.1 4.473-.36a19.71 19.71 0 0 0 4.658-1.434 18.188 18.188 0 0 1-3.762 3.76c-1.628 1.208-3.444 2.133-5.187 3.168-1.744 1.035-3.45 2.208-4.713 3.793-.623.78-1.132 1.658-1.447 2.605-.316.948-.433 1.966-.285 2.954.233 1.56 1.13 2.984 2.343 3.994 1.213 1.01 2.725 1.623 4.278 1.908 2.667.489 5.41.039 8.076-.459 2.034-.38 4.065-.79 6.062-1.33a46.828 46.828 0 0 0 6.54-2.3 31.458 31.458 0 0 1-3.499-1.991c-1.1-.723-2.163-1.522-3.04-2.504-.527-.589-.988-1.247-1.29-1.977-.301-.73-.441-1.535-.324-2.316.158-1.049.762-1.98 1.457-2.781a11.99 11.99 0 0 1 2.79-2.367l7.882.04c-.04 1 .298 2.012.935 2.784.676.818 1.655 1.348 2.684 1.607 1.304.329 2.728.234 3.938-.355 1.099-.535 1.984-1.452 2.613-2.5s1.014-2.227 1.277-3.42c.297-1.345.447-2.721.442-4.098a18.706 18.706 0 0 0-.442-4.098c-.263-1.193-.648-2.37-1.277-3.417-.629-1.048-1.514-1.965-2.613-2.5-1.21-.59-2.634-.688-3.938-.36-1.029.26-2.008.793-2.684 1.611a4.154 4.154 0 0 0-.935 2.784l-7.883.04a11.99 11.99 0 0 1-2.789-2.367c-.695-.801-1.3-1.734-1.457-2.783-.117-.78.023-1.588.324-2.318.302-.73.763-1.384 1.29-1.973.877-.981 1.94-1.78 3.04-2.504a31.458 31.458 0 0 1 3.498-1.99 46.848 46.848 0 0 0-6.539-2.305c-1.997-.54-4.028-.946-6.062-1.326-2-.373-4.04-.72-6.063-.664zm104.291 107.528a18.706 18.706 0 0 0-4.097.44c-1.194.264-2.372.65-3.42 1.278-1.048.63-1.965 1.515-2.5 2.614-.589 1.209-.684 2.633-.356 3.937.26 1.029.79 2.008 1.608 2.684a4.155 4.155 0 0 0 2.783.937l.04 7.881a11.99 11.99 0 0 1-2.366 2.79c-.802.694-1.733 1.298-2.782 1.456-.78.118-1.586-.023-2.316-.324-.73-.302-1.388-.76-1.976-1.287-.982-.878-1.781-1.94-2.504-3.041a31.485 31.485 0 0 1-1.99-3.5 46.852 46.852 0 0 0-2.301 6.54c-.541 1.998-.95 4.028-1.33 6.061-.499 2.666-.948 5.409-.46 8.076.285 1.553.899 3.065 1.909 4.278 1.01 1.213 2.433 2.11 3.994 2.344.987.147 2.005.03 2.953-.286.947-.315 1.825-.824 2.605-1.447 1.585-1.264 2.759-2.967 3.793-4.71 1.035-1.744 1.96-3.562 3.168-5.19a18.188 18.188 0 0 1 3.76-3.762 19.71 19.71 0 0 0-1.433 4.658c-.26 1.475-.354 2.975-.36 4.473a39.906 39.906 0 0 0 .18 3.935 5.086 5.086 0 0 0-3.219 1.254 5.306 5.306 0 0 0-1.45 2.112 5.843 5.843 0 0 0-.339 2.543c.099 1.158.528 2.271 1.14 3.26.613.987 1.404 1.856 2.258 2.644a20.426 20.426 0 0 0 5.008 3.4 20.426 20.426 0 0 0 5.008-3.4c.854-.788 1.646-1.657 2.258-2.645.612-.988 1.042-2.101 1.14-3.26a5.844 5.844 0 0 0-.341-2.542 5.302 5.302 0 0 0-1.448-2.112 5.086 5.086 0 0 0-3.218-1.254c.124-1.308.183-2.62.177-3.935-.006-1.498-.095-2.998-.355-4.473a19.716 19.716 0 0 0-1.436-4.658 18.188 18.188 0 0 1 3.76 3.762c1.208 1.628 2.134 3.446 3.168 5.19 1.035 1.743 2.206 3.446 3.791 4.71.781.623 1.658 1.132 2.606 1.447.947.316 1.967.433 2.955.286 1.56-.234 2.984-1.131 3.994-2.344 1.01-1.213 1.624-2.725 1.908-4.278.489-2.667.037-5.41-.46-8.076-.38-2.033-.786-4.063-1.327-6.06a46.872 46.872 0 0 0-2.305-6.541 31.484 31.484 0 0 1-1.99 3.5c-.723 1.1-1.522 2.163-2.504 3.04-.588.527-1.243.986-1.972 1.288-.73.301-1.538.442-2.319.324-1.049-.158-1.981-.762-2.783-1.457a11.99 11.99 0 0 1-2.367-2.789l.04-7.88c1 .04 2.012-.301 2.784-.938.818-.676 1.352-1.655 1.611-2.684.329-1.304.23-2.728-.36-3.937-.534-1.1-1.451-1.985-2.5-2.614-1.047-.629-2.224-1.014-3.417-1.277a18.706 18.706 0 0 0-4.098-.441z"/></svg>