<svg height="558" width="500" xmlns="http://www.w3.org/2000/svg"><path d="m495.12 4.377-13.76 317.65c-5 126.94-103.8 230.11-231.36 230.11S23.64 448.967 18.64 322.027L4.882 4.377z" stroke="#000" stroke-width="8.754" fill="#fff"/><path d="M43.139 208.76h.597c.596 0 5.139.02 5.139 2.53v210.96c11.459 26.23 28.152 50.74 49.164 71.49a228.64 228.64 0 0 0 29.421 24.51h245.05a228.058 228.058 0 0 0 29.44-24.51c21.01-20.75 37.69-45.26 49.16-71.49V211.29c0-2.5 4.53-2.53 5.14-2.53h.59l-12.14-14.3v-36.63c0-1.84 1.94-2.33 4.54-2.7 2.18-.29 4.93-.78 4.93-.78L405.8 63.322l-46.09 90.398c1.34.2 2.45.44 3.5.69 2.62.41 4.44 2.01 4.44 3.84v24.83l-14.27-18.01.01.01V94.855l-55.6-.013-47.93-60.391-47.67 60.391-55.6.013v70.225-.01l-14.25 18.01v-24.83c0-1.83 1.82-3.43 4.44-3.84 1.05-.25 2.14-.49 3.48-.69L94.172 63.322 45.818 154.35s2.759.49 4.913.78c2.619.37 4.579.86 4.579 2.7v36.63" fill="#be0027" style="fill:#ed1c24"/><path d="M449.29 155.13h.03c2.17-.29 4.86-.78 4.86-.78s-2.73.48-4.89.78m-112.4-95.125L312.3 23.048l-22.55 36.957h-19.58l27.62 34.837 50.98.013h18.37l-24.79-34.85h-5.46zM45.82 154.35s2.716.48 4.889.78c11.623-4.24 73.943-4.92 86.013-.72h.06c1.05-.25 2.16-.5 3.49-.69L94.187 63.322 45.82 154.35zm360-91.028-46.11 90.398c1.36.19 2.46.44 3.51.69h.06c12.08-4.2 74.39-3.52 86.01.72 2.16-.3 4.89-.78 4.89-.78l-48.36-91.028zm-218.1-40.274-24.6 36.957h-5.46l-24.8 34.85h18.37l50.96-.013 27.51-34.837h-19.46l-22.52-36.957zM50.68 155.128h.025c-2.173-.3-4.889-.78-4.889-.78s2.691.49 4.864.78z" fill="#3a89cc" style="fill:#0066b3"/><path d="m312.27 21.945-.93.524-22.2 36.428h-18.97l-1 .621-.13.474.25.695 27.63 34.824.89.416 69.33.024.99-.609-.09-1.151-24.8-34.826-.89-.468h-4.86l-24.3-36.464-.92-.488zm-22.52 39.156.95-.524s19.97-32.757 21.63-35.49c1.76 2.661 23.65 35.513 23.65 35.513l.91.501h4.89c.61.847 21.02 29.54 23.22 32.633l-66.67-.018c-.62-.761-23.37-29.437-25.89-32.615h17.31zM186.78 22.433l-24.26 36.464h-4.86l-.9.468-24.81 34.826-.21.651.13.5.98.609 69.34-.024.87-.416 27.5-34.837.13-1.156-1-.621h-18.84l-22.2-36.428-.91-.524-.96.488zm-23.67 38.668.92-.501s21.87-32.852 23.64-35.513c1.67 2.733 21.63 35.49 21.63 35.49l.94.524h17.18c-2.5 3.178-25.15 31.854-25.75 32.615l-66.69.018c2.21-3.093 22.63-31.786 23.24-32.633h4.89z"/><path d="m160.57 59.84-.64.653.64.608h52.15l.63-.608-.63-.653m126.7 0 .64.653-.64.608h-52.15l-.62-.608.62-.653m142.58 217.71-.23.51-.54.18-7.64-.59-5.74.25-.53-.18-.22-.52v-48.6c0-2.19 2.99-5.8 7.5-5.8 4.49 0 7.4 4.16 7.4 6.42"/><path d="M414.33 228.6v48.6l.42.99 1 .35 5.74-.26 7.54.58 1.02-.33.45-.98v-48.33c0-2.49-3.05-7.06-8.04-7.06-4.71 0-8.13 3.85-8.13 6.44m1.26 0c0-1.77 2.67-5.18 6.87-5.18 4.21 0 6.78 4.02 6.78 5.8v48.33l-.03.06-7.71-.61-5.81.28-.1-48.68z"/><path d="m429.85 277.55-.23.51-.54.18-7.64-.59-5.74.25-.53-.18-.22-.52v-4.67l.22.5.53.19 5.74-.28 7.64.62.54-.2.23-.51" fill="#f5f5f5"/><path d="m414.88 272.13-.55.4v4.67l.42.99 1 .35 5.74-.26 7.54.58 1.02-.33.45-.98v-4.7l-.51-.41-.75.41-.03.06-7.71-.6-5.81.28-.1-.06-.71-.4zm6.61 1.43 7.54.62.21-.06v3.43l-.03.06-7.71-.61-5.81.28s-.05-2.11-.07-3.47l.13.04 5.74-.29zm-24.38 110.95-.24.53-.53.17-7.64-.61-5.74.27-.54-.2-.22-.48v-48.63c0-2.17 2.99-5.8 7.49-5.8s7.42 4.16 7.42 6.41"/><path d="M381.57 335.56v48.63l.42.94.99.38 5.74-.27 7.55.59 1.03-.33.44-.99v-48.34c0-2.5-3.06-7.04-8.05-7.04-4.72 0-8.12 3.83-8.12 6.43m1.25 0c0-1.77 2.69-5.17 6.87-5.17 4.24 0 6.79 4.02 6.79 5.78v48.34l-.04.06-7.7-.59-5.82.27-.1-48.69z"/><path d="m397.11 384.51-.24.53-.53.17-7.64-.61-5.74.27-.54-.2-.22-.48v-4.72l.22.51.54.2 5.74-.27 7.64.6.53-.17.24-.54" fill="#f5f5f5"/><path d="m382.11 379.09-.54.38v4.72l.42.94.99.38 5.74-.27 7.55.59 1.03-.33.44-.99v-4.7l-.5-.41-.76.41-.04.06-7.7-.58-5.82.27-.1-.07v-.02.02l-.71-.4zm6.61 1.45 7.55.61.21-.06v3.42l-.04.06-7.7-.59-5.82.27s-.03-2.1-.08-3.47l.14.04 5.74-.28zM70.123 277.55l.25.51.536.18 7.628-.59 5.736.25.535-.18.226-.52v-48.6c0-2.19-2.995-5.8-7.496-5.8-4.486 0-7.415 4.16-7.415 6.42"/><path d="M69.496 229.22v48.33l.439.98 1.022.34 7.629-.59 5.662.26.999-.36.408-.98v-48.6c0-2.59-3.403-6.44-8.117-6.44-4.986 0-8.042 4.57-8.042 7.06m1.26 0c0-1.77 2.558-5.78 6.782-5.78 4.19 0 6.862 3.39 6.862 5.16v48.6l-5.827-.2-7.719.61.012.04-.11-.1v-48.33z"/><path d="m70.123 277.55.25.51.536.18 7.628-.59 5.736.25.535-.18.226-.52v-4.67l-.226.5-.535.19-5.736-.28-7.628.62-.536-.2-.25-.51" fill="#f5f5f5"/><path d="m84.4 272.53-.03.05-5.797-.25-7.719.58-.098-.05-.711-.38-.549.38v4.69l.439.98 1.022.34 7.629-.59 5.662.26.999-.36.408-.98v-4.67l-.499-.43-.756.43zm-5.814 1.03 5.662.3.152-.06v3.4l-5.827-.2-7.719.61.012.04-.11-.1v-3.43l.201.06 7.629-.62zm24.304 110.95.24.53.55.17 7.62-.61 5.73.27.52-.2.24-.48v-48.63c0-2.17-2.99-5.8-7.48-5.8-4.52 0-7.42 4.16-7.42 6.41"/><path d="M102.25 336.17v48.34l.43.98 1.03.34 7.64-.59 5.65.27 1-.38.41-.94v-48.63c0-2.6-3.4-6.43-8.1-6.43-5 0-8.06 4.54-8.06 7.04m1.26 0c0-1.76 2.57-5.78 6.8-5.78 4.17 0 6.85 3.4 6.85 5.17v48.63l-5.83-.21-7.72.61.02.01-.12-.09v-48.34z"/><path d="m102.89 384.51.24.53.55.17 7.62-.61 5.73.27.52-.2.24-.48v-4.72l-.24.51-.52.2-5.73-.27-7.62.6-.55-.17-.24-.54" fill="#f5f5f5"/><path d="m117.17 379.47-.03.07-5.81-.25-7.72.6-.1-.07v-.01.01l-.71-.4-.55.39v4.7l.43.98 1.03.34 7.64-.59 5.65.27 1-.38.41-.94v-4.72l-.48-.42-.76.42zm-5.82 1.07 5.65.28.16-.05v3.42l-5.83-.21-7.72.61.02.01-.12-.09v-3.42l.2.06 7.64-.61z"/><path d="m457.7 208.05-11.91-13.99v-36.23c0-.69.57-1.15 3.63-1.59l4.94-.82.81-.59.11-.48-.12-.53-48.36-91.021-1-.591-.97.609-46.08 90.413-.12.45.14.54.81.6 3.38.65c2.12.34 3.58 1.49 3.58 2.78v21.65c-2.92-3.7-11.65-14.69-12.04-15.22V94.842l-1.11-1.096-55.07-.012-47.58-59.977-.86-.414-.87.427-47.34 59.964-55.08.012-1.09 1.096v69.838c-.4.53-9.12 11.52-12.05 15.22v-21.65c0-1.29 1.47-2.44 3.51-2.76l3.47-.67.81-.6.13-.54-.12-.45-46.079-90.413-.974-.609-.986.591-48.367 91.021-.122.53.11.48.809.59 4.95.82c3.033.44 3.616.9 3.616 1.59v36.23l-11.89 13.99-.262.71.097.46.999.62h.597c1.62 0 4.031.4 4.031 1.45v208.49c.706 1.65 1.467 3.32 2.216 4.96V211.29c0-1.93-1.735-3.13-4.591-3.48 2.21-2.59 10.74-12.62 10.74-12.62l.262-.73v-36.63c0-2.99-3.318-3.47-5.498-3.8 0 0-1.949-.31-3.379-.54 1.358-2.59 44.75-84.262 46.631-87.787 1.82 3.573 43.2 84.737 44.47 87.207l-2.09.41c-3.09.49-5.29 2.54-5.29 4.93v24.83l.7 1.08 1.19-.31 14.32-18.1.23-.68V95.951l54.5-.024.87-.416s45.14-57.182 46.82-59.276c1.67 2.094 47.04 59.276 47.04 59.276l.87.416 54.5.024v69.119l.23.68 14.33 18.1 1.19.31.72-1.08v-24.83c0-2.39-2.22-4.44-5.37-4.94l-2.03-.4c1.28-2.47 42.66-83.634 44.47-87.207 1.88 3.525 45.27 85.197 46.66 87.787l-3.4.54c-2.19.33-5.51.81-5.51 3.8v36.63l.25.73 10.77 12.62c-2.87.35-4.59 1.55-4.59 3.48v213.45c.74-1.64 1.51-3.31 2.2-4.96V211.29c0-1.05 2.42-1.45 4.04-1.45h.6l1-.62.09-.46"/><path d="m362.92 153.33-.68 1.43 1.41.67c11.54-4 73.7-3.48 85.27.72l1.41-.65-.66-1.4c-12.17-4.44-74.59-4.98-86.75-.77m-226.1 0 .68 1.43-1.39.67c-11.56-4-73.719-3.48-85.282.72l-1.417-.65.644-1.4c12.184-4.44 74.625-4.98 86.765-.77M249.5 53.606l-114.43 144.4.11.87.87-.11L250 55.006l113.95 143.76.87.11.11-.87-114.43-144.4-.5-.241M367.68 193.83l-.51.74.71.51c17.14-2.82 60.93-2.84 76.84-.05l.72-.53-.51-.73c-15.98-2.79-60.04-2.74-77.25.06M77.418 169.75c0-1.77-2.461-4.34-6.125-4.34-3.666 0-6.071 2.51-6.071 4.34v10.97s4.834-.58 6.971-.58c2.143 0 5.225.26 5.225.26v-10.65"/><path d="M64.583 169.75v10.97l.224.43.488.18 6.898-.56 5.157.27.475-.19.213-.45v-10.65c0-2.02-2.631-4.97-6.758-4.97-4.139 0-6.697 2.89-6.697 4.97m1.272 0c0-1.52 2.118-3.71 5.425-3.71 3.403 0 5.498 2.41 5.498 3.71v9.98l-4.585-.21s-5.199.41-6.338.51v-10.28zm34.775-1.32c0-1.77-2.451-4.33-6.122-4.33-3.677 0-6.07 2.5-6.07 4.33v10.95s4.839-.55 6.97-.55c2.144 0 5.222.25 5.222.25v-10.65"/><path d="M87.817 168.43v10.95l.207.46.486.18 6.898-.56 5.172.26.48-.18.21-.46v-10.65c0-2.02-2.646-4.97-6.762-4.97-4.152 0-6.691 2.9-6.691 4.97m1.259 0c0-1.51 2.119-3.71 5.432-3.71 3.409 0 5.491 2.42 5.491 3.71v10l-4.591-.22s-5.187.41-6.332.51v-10.29zm21.084.67c0-1.76 2.45-4.36 6.12-4.36 3.68 0 6.06 2.52 6.06 4.36v10.94s-4.82-.56-6.97-.56c-2.14 0-5.21.25-5.21.25V169.1"/><path d="M109.52 169.1v10.63l.2.47.48.18 5.17-.25 6.88.53.5-.15.2-.47V169.1c0-2.09-2.53-4.98-6.68-4.98-4.12 0-6.75 2.96-6.75 4.98m1.26 0c0-1.3 2.08-3.73 5.49-3.73 3.32 0 5.43 2.22 5.43 3.73v10.27c-1.13-.1-6.33-.5-6.33-.5l-4.59.2v-9.97zm311.8.65c0-1.77 2.45-4.34 6.13-4.34s6.06 2.51 6.06 4.34v10.97s-4.83-.58-6.97-.58c-2.15 0-5.22.26-5.22.26v-10.65"/><path d="M421.95 169.75v10.65l.21.45.48.19 5.16-.27 6.88.56.5-.18.21-.43v-10.97c0-2.08-2.55-4.97-6.69-4.97-4.12 0-6.75 2.95-6.75 4.97m1.26 0c0-1.3 2.1-3.71 5.49-3.71 3.32 0 5.45 2.19 5.45 3.71v10.28c-1.15-.1-6.35-.51-6.35-.51l-4.59.21v-9.98zm-23.84-1.32c0-1.77 2.44-4.33 6.12-4.33 3.67 0 6.06 2.5 6.06 4.33v10.95s-4.83-.55-6.96-.55c-2.15 0-5.22.25-5.22.25v-10.65"/><path d="M398.73 168.43v10.65l.2.46.49.18 5.16-.26 6.9.56.48-.18.21-.46v-10.95c0-2.07-2.54-4.97-6.7-4.97-4.11 0-6.74 2.96-6.74 4.97m1.26 0c0-1.29 2.08-3.71 5.48-3.71 3.34 0 5.44 2.2 5.44 3.71v10.29c-1.13-.1-6.33-.51-6.33-.51l-4.59.22v-10zm-10.16.67c0-1.76-2.46-4.36-6.12-4.36-3.68 0-6.07 2.52-6.07 4.36v10.94s4.83-.56 6.96-.56c2.16 0 5.23.25 5.23.25V169.1"/><path d="M377.02 169.1v10.94l.22.47.48.15 6.9-.53 5.16.25.47-.18.22-.47V169.1c0-2.02-2.63-4.98-6.76-4.98-4.14 0-6.69 2.89-6.69 4.98m1.26 0c0-1.51 2.11-3.73 5.43-3.73 3.41 0 5.5 2.43 5.5 3.73v9.97l-4.59-.2s-5.2.4-6.34.5V169.1zM55.073 193.77l-.511.73.718.53c15.914-2.79 59.69-2.77 76.82.04l.74-.51-.52-.73c-17.23-2.81-61.253-2.85-77.247-.06m305.547 14.96-.72 1.4 1.39.71c12.27-3.95 77.81-3.94 89.93.03l1.38-.72-.7-1.39c-12.72-4.15-78.41-4.18-91.28-.03m-221.51 0 .71 1.4-1.4.71c-12.25-3.95-77.789-3.94-89.898.03l-1.383-.72.701-1.39c12.706-4.15 78.41-4.18 91.27-.03"/><path d="m145.21 208.05-11.88-13.99-.01-10.92-.62-1.01-1.14.07c-.39.29-.46.35-.46 7.26v5l.27.73s8.54 10.03 10.75 12.62c-2.87.35-4.59 1.55-4.59 3.48V485.5c-.32.32-11.92 12.13-22.05 22.46l1.74 1.37 22.2-22.6.31-.78V211.29c0-1.05 2.41-1.45 4.03-1.45h.6l1-.62.11-.46m209.31-.71 11.89-13.99v-10.92l.62-1.01 1.14.07c.39.29.45.35.45 7.26 0 1.37-.01 3.02-.01 5l-.25.73s-8.54 10.03-10.75 12.62c2.87.35 4.59 1.55 4.59 3.48V485.5c.32.32 11.92 12.13 22.05 22.46l-1.74 1.37-22.2-22.6-.32-.78V211.29c0-1.05-2.4-1.45-4.04-1.45h-.59l-1-.62-.12-.46"/><path d="M93.777 46.75c-5.601 0-10.137 4.536-10.137 10.125 0 5.583 4.536 10.137 10.137 10.137 5.595 0 10.153-4.554 10.153-10.137 0-5.589-4.558-10.125-10.153-10.125m312.433 0c-5.59 0-10.15 4.536-10.15 10.125 0 5.583 4.56 10.137 10.15 10.137s10.14-4.554 10.14-10.137c0-5.589-4.55-10.125-10.14-10.125" fill="#fd1" style="fill:#fd0"/><path d="M394.33 56.875c0 6.545 5.32 11.873 11.88 11.873 6.55 0 11.89-5.328 11.89-11.873 0-6.539-5.34-11.861-11.89-11.861-6.56 0-11.88 5.322-11.88 11.861m2.21 0c0-5.327 4.34-9.656 9.67-9.656 5.34 0 9.67 4.329 9.67 9.656 0 5.322-4.33 9.675-9.67 9.675-5.33 0-9.67-4.353-9.67-9.675zm-314.647 0c0 6.545 5.32 11.873 11.872 11.873 6.555 0 11.895-5.328 11.895-11.873 0-6.539-5.34-11.861-11.895-11.861-6.552 0-11.872 5.322-11.872 11.861m2.203 0c0-5.327 4.342-9.656 9.669-9.656 5.332 0 9.675 4.329 9.675 9.656 0 5.322-4.343 9.675-9.675 9.675-5.327 0-9.669-4.353-9.669-9.675z"/><path d="M151.97 208.22c8.55-26.72 25.04-38.55 42.7-50.03 10.03-5.19 7.67-1.4 8.65-8.81 9.36-41.91 37.21-55.189 47.47-63.214l9.06 6.486c19.99 12.428 35.96 38.008 38.13 54.358 1.74 14.43 8.75 5.99 31.31 27.19 6.08 9.72 19.25 15.56 20.34 35.5v265.4l-98.68-.29h-98.98V208.22z" fill="#fff"/><path d="M171.7 110.86c0-2.06-2.88-5.76-6.27-5.76-3.38 0-6.08 3.92-6.08 5.76v12.32h12.35v-12.32"/><path d="M158.75 110.86v12.32l.62.64h12.33l.64-.64v-12.32c0-2.47-3.16-6.38-6.91-6.38-3.79 0-6.68 4.24-6.68 6.38m1.26 0c0-1.48 2.34-5.14 5.42-5.14 3.03 0 5.65 3.44 5.65 5.14v11.7h-11.07v-11.7zm170.33 0c0-2.06 2.88-5.76 6.28-5.76 3.39 0 6.07 3.92 6.07 5.76v12.32h-12.35v-12.32"/><path d="M329.72 110.86v12.32l.62.64h12.35l.62-.64v-12.32c0-2.14-2.89-6.38-6.69-6.38-3.74 0-6.9 3.91-6.9 6.38m1.26 0c0-1.7 2.61-5.14 5.64-5.14 3.07 0 5.42 3.66 5.42 5.14v11.7h-11.06v-11.7zm-80.51-25.78c-35.8 23.46-48.67 51.12-48.83 69.32-20.65 7.6-51.12 31.16-51.12 65.42v256.63l1.1 1.1h198.91l1.1-1.1V219.82c0-34.25-30.46-57.82-51.12-65.42-.15-18.2-13.02-45.86-48.82-69.32h-1.22zm-97.75 134.74c0-33.28 29.88-56.18 49.96-63.45l1.15-1.65c0-17.5 12.47-44.35 47.25-67.368 34.78 23.018 47.25 49.868 47.25 67.368l1.13 1.65c20.09 7.27 49.97 30.17 49.97 63.45v255.52H152.72V219.82zM138.4 486.49l-.64.62.64.64h222.72l.64-.64-.64-.62"/><path d="m136.34 525.22-10.91-7.87H374.1l-10.91 7.87" fill="#fd1" style="fill:#fd0"/><path d="m125.43 516.71-.64.63.64.64H374.1l.64-.64-.64-.63m-237.76 7.41-1.1 1.1 1.1 1.09h226.85l1.11-1.09-1.11-1.1m-223.76-37.2-.64.62.64.64h222.72l.63-.64-.63-.62m-12.53-27.29c-4.03.36-23.54 17.54-23.54 17.54h23.54"/><path d="M203.77 352.15c-1.76-1.74-11.84-7.19-11.49-7.52 1.44-.89 3.98-3.37 4.97-5.63.52-1.21 1.62-3.93.17-3.93-6.91 0-7.68-1.06-10.01.32-1.65.94-1.62-.95-4-2.31-2.4-1.4-4.47-2.84-5.69-2.84s-2.02.52-3.86-.55c-1.87-1.07-10.93-10.05-14.47-10.89-4.03-.95-3.82 5.23-3.17 8.36.62 3.15 2.29 4.31 4.45 7.65-3.04-1.89-5.36 2.46-5.36 4.89 0 3.49 4.92 6.12 7.23 8.54 2.32 2.44 2.81 4.7 5.69 8.74 1.83 2.6 2.29 3.3 4.88 4.47 2.47 1.13 5.96.64 7.49-1.11-1.66 1.82-2.21 2.58-1.94 6.02.13 1.64 3.22 4.9 6.62 7.13l1.98 1.32.03-.1c1.16-4.92 3.61-8.27 4.82-9.7 4.75-5.63 11.96-5.95 15.74-5.15-2.02-.85-3.24-4.38-4.08-7.71m119.14 14.21c.28-3.44-.29-4.2-1.93-6.02 1.53 1.75 5.01 2.24 7.49 1.11 2.58-1.17 3.04-1.87 4.89-4.47 2.88-4.04 3.35-6.3 5.69-8.74 2.27-2.42 7.23-5.05 7.23-8.54 0-2.43-2.32-6.78-5.36-4.89 2.16-3.34 3.81-4.5 4.45-7.65.63-3.13.84-9.31-3.17-8.36-3.54.84-12.6 9.82-14.48 10.89-1.84 1.07-2.63.55-3.86.55-1.24 0-3.29 1.44-5.68 2.84-2.38 1.36-2.37 3.25-4.01 2.31-2.32-1.38-3.11-.32-10-.32-1.46 0-.35 2.72.16 3.93.99 2.26 3.54 4.74 4.97 5.63.34.33-9.72 5.78-11.48 7.52-.84 3.33-2.07 6.86-4.09 7.71l10.71 21.53 11.86-7.9c3.39-2.23 6.48-5.49 6.61-7.13zm23.58 95.15c-1.12-2.25-3.18-5.74-8.06-6.21-4.06-.4-5.01 2.26-7.95 2.26-3.54 0-6.17-4.07-9.9-10.52-3.49-6.04-6.56-10.27-8.77-13.75-1.88 11.18-3.22 17.66-3.92 21.31l-.38 2.47c3.82 2.34 7.15 5.07 8.93 8.73.79 1.68.16 3.43.79 5.43.73 2.41 1.61 4.67 4.31 4.67h3.36c2.85 0 3.32-2.17 5.34-2.17 2.11 0 3.32 2.17 6.38 2.17h4.68c1.83 0 3.02-3.23.92-5.33 2.8 1.02 3.94-3.65 2.33-5.27 2.52.96 2.65-2.34 1.94-3.79z" fill="#fd1" style="fill:#fd0"/><path d="M174.32 337.34c2.5 1.83 5.94 5.38 7.09 6.53.8.79 2.2.3 2.2-1.35 0-1.67-.76-3.44-3.32-4.92-1.28-.73-2.22-1.15-3.87-1.15-2.83 0-2.1.89-2.1.89m-13.47-3.31 1.73 2.15c4.16 4.17 6.79 3.94 8.65 7.51 1.79 3.48-1.84 5.06-2.65 2.88-.66-1.71-.77-3.53-4.05-6.56-5.26-4.87-6.13-5.31-7.46-4.25 1.81-2.01 3.78-1.73 3.78-1.73m41.06 16.73c1.05 1.81 2.06 7.93-1.66 9.25 2.74-.67 5.27-.7 7.61-.16-1.52-.47-2.7-3.38-2.96-4.07-.44-1.17-1.13-3.64-1.13-3.64m-46.73-22.58c-.54-4.4 1.31-10.44 3.98-10.06l-.07-.04-1.56-.67c-4.03-.95-3.82 5.22-3.17 8.37l.79 2.33m170.26 7.85c-2.49 1.83-5.94 5.38-7.08 6.53-.81.79-2.2.3-2.2-1.35 0-1.67.75-3.44 3.31-4.92 1.28-.73 2.23-1.15 3.87-1.15 2.84 0 2.1.89 2.1.89m13.46-3.31-1.72 2.15c-4.16 4.17-6.8 3.94-8.65 7.51-1.8 3.48 1.82 5.06 2.65 2.88.65-1.71.76-3.53 4.04-6.56 5.27-4.87 6.12-5.31 7.46-4.25-1.8-2.01-3.78-1.73-3.78-1.73m3.82-4.47c.54-4.4-1.33-10.44-3.98-10.06l.07-.04 1.56-.67c4.01-.95 3.82 5.22 3.17 8.37l-.8 2.33m-19.94 134.04v.88l.7.72c2.44 2.48 4.96 5.07 9.16 3.91 3.89-1.02 5.48.16 7.28 1.97h.91v-.87c-1.98-1.99-3.99-3.52-8.51-2.32-3.51.96-5.56-1.14-7.95-3.55l-.69-.74m-16.1-16.91a778.04 778.04 0 0 0 2.38-13.34c2.68 4.06 5.75 8.62 7.32 11.25 2.5 4.13 3.47 6.22 6.24 9.9 2.33 2.71 4.6 4.44 8.65 1.87-2.6 2.57-1.54 5.2-.86 5.46h2.77c3.74-1.79 6.92.78 8.86 3.32l-.04.45-.44-.06c-1.81-2.35-5.12-4.52-8.52-2.91-.9.42-3.44 1.41-6.24-.28-5.38-3.28-7.62-12.93-13.85-19.56-.08-.12-3-3.74-5.21 4.27-.44 1.8-1.59 8.7 2.19 13.91-2.25-2.05-3.51-2.77-5.17-3.84.45-2.83 1.14-6.07 1.92-10.44m-157.46 13.01c4.03.36 23.55 17.54 23.55 17.54h-23.55"/><path d="M157.03 465.3c-1.62 1.62-.46 6.29 2.33 5.27-2.09 2.09-.9 5.33.92 5.33h4.69c3.06 0 4.27-2.18 6.36-2.18 2.04 0 2.53 2.18 5.36 2.18h3.36c2.69 0 3.56-2.27 4.3-4.68.64-2 0-3.74.8-5.42 1.77-3.68 5.1-6.39 8.93-8.74l-.38-2.47c-.69-3.66-2.06-10.14-3.92-21.31-2.21 3.49-5.26 7.71-8.78 13.76-3.73 6.44-6.36 10.51-9.9 10.51-2.93 0-3.88-2.65-7.94-2.25-4.88.47-6.94 3.96-8.06 6.21-.71 1.45-.56 4.74 1.93 3.79" fill="#fd1" style="fill:#fd0"/><path d="M176.96 463.53v.88l-.7.72c-2.43 2.48-4.95 5.07-9.15 3.91-3.89-1.02-5.49.16-7.3 1.97h-.88v-.87c1.97-1.99 3.98-3.52 8.5-2.32 3.5.96 5.55-1.14 7.94-3.55l.7-.74m16.07-16.91c-1.07-5.81-2.14-11.93-2.36-13.34-2.68 4.06-5.75 8.62-7.32 11.25-2.49 4.13-3.48 6.22-6.25 9.9-2.33 2.71-4.6 4.44-8.64 1.87 2.6 2.57 1.54 5.2.85 5.46h-2.75c-3.75-1.79-6.93.78-8.89 3.32l.05.45.45-.06c1.81-2.35 5.13-4.52 8.53-2.91.89.42 3.43 1.41 6.24-.28 5.37-3.28 7.6-12.93 13.84-19.56.07-.12 2.99-3.74 5.21 4.27.42 1.8 1.59 8.7-2.19 13.91 2.26-2.05 3.5-2.77 5.17-3.84-.45-2.83-1.14-6.07-1.94-10.44m119.46-14.4-.86.89-3.55 19.32-.38 1.96-.4 2.55.53 1.06c4.42 2.71 7.05 5.28 8.5 8.27l.35 2.33.39 2.95c.62 2.07 1.68 5.46 5.37 5.46h3.35c1.92 0 3.01-.83 3.82-1.45l1.53-.72 2.01.78c1.06.6 2.38 1.39 4.36 1.39h4.69c1.19 0 2.26-.8 2.78-2.09l.35-1.71-.33-1.69 1.51-1.26.78-2.83-.16-1.07.9-.57.81-2.48-.48-2.29c-.84-1.7-3.1-6.25-8.92-6.82-2.63-.25-4.2.63-5.45 1.35l-2.62.9c-2.96 0-5.58-4.14-8.94-9.97l-6.55-10.37-2.26-3.41-1.13-.48zm-2.63 22.57.38-1.91s2.32-12.67 3.05-16.68l.75 1.12 6.48 10.26c3.87 6.7 6.71 11.07 10.85 11.07 1.6 0 2.72-.63 3.7-1.17 1.13-.65 2.22-1.27 4.14-1.09 4.11.38 5.99 3.21 7.17 5.61l.03 2.3-.57-.04-1.33.43.15 1.4-.01 2.99-1.16.45-1.31.45.15 1.37.62 2.73-.75.72h-4.69c-1.38 0-2.3-.55-3.25-1.08-.92-.53-1.87-1.09-3.12-1.09-1.3 0-2.13.62-2.85 1.16-.71.54-1.32 1.01-2.5 1.01h-3.35c-1.76 0-2.44-1.26-3.26-3.9l-.28-2.36-.58-3.21c-1.57-3.24-4.31-5.99-8.72-8.78l.26-1.76zm32.98-137.06c-2.44.56-6.51 3.99-11.18 8.04-1.57 1.36-3.06 2.66-3.6 2.96l-2.3.46-1-.06c-1.29 0-2.81.92-4.74 2.09l-1.5.88-2.25 1.93-.52.52c-1.87-1.15-3.02-1.04-5.12-.86l-5.57.27-1.5.76-.32 1.22c0 .85.32 1.97.97 3.5.86 1.98 2.68 3.96 4.18 5.21l-3.21 1.96c-3.63 2.19-6.29 3.81-7.24 4.76l-.29.51c-.4 1.53-1.59 6.19-3.45 6.96l-.61.62-.08.39.13.49 10.72 21.53 1.44.52c.35-.16 2.28-1.42 10.8-7.14l1.22-.84c3.3-2.18 6.9-5.72 7.08-7.98l.07-1.57-.26-2.02c1.71.34 3.54.32 5.13-.38 2.77-1.28 3.42-2.19 5.18-4.64l2.99-4.83c.86-1.54 1.54-2.74 2.74-4l2.3-2.02c2.45-2 5.22-4.25 5.22-7.27 0-2.02-1.23-4.89-3.23-5.99l-.91-.25.43-.62c1.29-1.71 2.29-3.07 2.79-5.46.05-.32.37-1.94.37-3.74 0-1.87-.32-3.94-1.54-5.12-.6-.6-1.67-1.19-3.34-.79m-13.67 12.9c.68-.38 1.88-1.4 3.93-3.2 3.04-2.64 8.15-7.07 10.26-7.56l1.29.22c1.05 1.01 1.06 4.27.53 6.85-.38 1.91-1.18 2.95-2.38 4.57l-1.92 2.71.12 1.37 1.39.16 1.58-.12c1.17.65 2.09 2.72 2.09 4.07 0 1.97-2.35 3.88-4.41 5.56l-2.51 2.22c-1.39 1.45-2.15 2.83-3.05 4.44l-2.73 4.41c-1.84 2.61-2.2 3.11-4.44 4.12-2.08.93-5.02.53-6.21-.84l-.02-.01-1.55-.09-.36.81.26.74.04.04-.02-.03c1.46 1.61 1.89 2.09 1.65 5.17-.07.99-2.51 3.95-6.12 6.34l-1.23.81c-2.01 1.37-7.38 5-9.57 6.41-.93-1.89-9.09-18.26-9.79-19.64 1.8-1.47 2.91-4.41 3.69-7.37 1.01-.9 4.22-2.83 6.63-4.29 4.66-2.81 4.9-2.99 5-3.71v-.14l-.54-.96c-1.3-.81-3.67-3.1-4.54-5.13-.63-1.46-.75-2.1-.77-2.42l5.36-.24c2.01-.19 2.56-.23 3.68.43 1.77 1.05 2.75-.08 3.42-.83l1.71-1.5 1.53-.91c1.37-.82 2.94-1.76 3.59-1.76l.73.04c.88.13 1.98.25 3.68-.74zm-171.97-12.11c-1.23 1.16-1.55 3.25-1.55 5.12 0 1.8.3 3.42.38 3.74.49 2.39 1.5 3.75 2.79 5.45l.44.63-.92.25c-1.99 1.1-3.22 3.97-3.22 5.99 0 3.02 2.77 5.27 5.21 7.26l2.3 2.02c1.19 1.27 1.86 2.47 2.73 4.01l2.86 4.6c1.89 2.68 2.54 3.59 5.33 4.87 1.55.7 3.41.72 5.1.38l-.25 2.02.06 1.57c.19 2.25 3.8 5.79 7.1 7.98l.63.44 1.5.96.95.01.61-.86c1.09-4.6 3.35-7.77 4.59-9.25 5.48-6.49 13.76-4.99 14.68-4.78l1.29-.77.05-.31-.69-1.01c-1.86-.79-3.05-5.43-3.45-6.96l-.29-.51c-.95-.95-3.59-2.57-7.23-4.76l-3.22-1.96c1.49-1.25 3.32-3.24 4.18-5.23.66-1.52.99-2.63.99-3.48l-.33-1.22-1.51-.76-5.56-.27c-2.1-.18-3.27-.29-5 .73l-.23.13-.41-.52-2.27-1.93-1.49-.88c-1.95-1.17-3.47-2.09-4.74-2.09l-1 .06-2.31-.46c-.52-.3-2.02-1.6-3.59-2.96-4.67-4.05-8.74-7.48-11.17-8.05-1.68-.39-2.75.2-3.34.8m5.17 17.07.12-1.37-1.91-2.71c-1.21-1.62-2.01-2.67-2.38-4.57-.53-2.58-.52-5.84.53-6.85l1.3-.22c2.09.49 7.2 4.9 10.24 7.56 2.05 1.8 3.25 2.82 3.93 3.2 1.7.99 2.79.87 3.67.74l.74-.05c.66 0 2.22.95 3.59 1.77l1.53.91 1.72 1.5c.67.75 1.64 1.87 3.41.83 1.13-.66 1.68-.62 3.69-.44l5.35.25c-.02.32-.14.96-.77 2.42-.87 2.03-3.23 4.32-4.53 5.13l-.54.96v.14c.1.72.33.9 4.99 3.7 2.42 1.47 5.62 3.4 6.65 4.3.53 2.06 1.24 4.1 2.22 5.67-4.48-.12-9.91 1.26-13.76 5.84-1.24 1.47-3.34 4.51-4.62 8.79l-.75-.51c-3.63-2.4-6.05-5.35-6.13-6.34l-.07-1.38c0-1.89.52-2.47 1.73-3.79l-.03.01.05-.02.26-.74-.37-.81-1.55.08-.02.01c-1.19 1.38-4.14 1.78-6.21.85-2.23-1.01-2.59-1.51-4.3-3.91l-2.86-4.62c-.9-1.61-1.67-2.99-3.06-4.45l-2.51-2.21c-2.06-1.68-4.39-3.59-4.39-5.56 0-1.35.89-3.42 2.07-4.07l1.58.12 1.39-.16z"/><path d="m188.84 432.69-2.23 3.42-6.56 10.36c-3.38 5.84-5.99 9.97-8.95 9.97l-2.61-.9c-1.26-.71-2.82-1.6-5.45-1.34-5.82.57-8.08 5.12-8.92 6.81l-.49 2.3.81 2.48.91.57-.16 1.07.78 2.83 1.53 1.25-.36 1.68.36 1.73c.52 1.28 1.59 2.09 2.78 2.09h4.69c1.97 0 3.29-.79 4.35-1.4l2.01-.77 1.53.71c.82.61 1.9 1.46 3.81 1.46h3.37c3.68 0 4.75-3.4 5.37-5.45l.38-2.97.36-2.32c1.43-2.99 4.06-5.56 8.5-8.29l.53-1.06-.41-2.52-.37-1.98-3.54-19.31-.87-.9-1.15.48zm-17.74 25.96c4.15 0 6.99-4.37 10.86-11.07l6.48-10.27.75-1.11c.73 4.01 3.05 16.67 3.05 16.67l.38 1.93.27 1.73c-4.42 2.81-7.18 5.55-8.74 8.8l-.56 3.2-.29 2.37c-.82 2.63-1.52 3.9-3.26 3.9h-3.37c-1.16 0-1.78-.47-2.48-1.01-.74-.54-1.56-1.17-2.86-1.17-1.24 0-2.19.56-3.1 1.08-.98.55-1.88 1.1-3.26 1.1h-4.69l-.75-.74.62-2.71.14-1.37-1.3-.46-1.16-.46-.01-2.98.14-1.39-1.32-.43-.57.04.03-2.32c1.18-2.39 3.08-5.21 7.15-5.59 1.94-.18 3.02.44 4.16 1.08.98.54 2.1 1.18 3.69 1.18z"/><path d="m303.96 471.77 1.7-.32c1.64-1.22 2.16-5.36 2.83-10.6.73-5.61 1.62-12.56 4.18-19.93 5.86-19.5 7.14-39.71 3.88-61.72-1.21-7.82-4.05-13.32-8.48-16.37-5.05-3.52-10.66-2.71-12.26-2.36l-.72-.41.3-.76c6.06-3.23 6.51-30.11 5.04-43.03l.42-.66.76.26c.55.96.84 1.46 2.03 2.65 1.2 1.18 3.03 2.51 5.28 3.08 3.14.84 6.53.5 8.84-.87 10.6-6.26 14.27-17.33 17.65-36.88.9-5.26 1.34-10.38 1.34-14.97 0-7.13-1.86-12.24-3.9-15.69l-.95-1.51-13.79-.39-5.91 3.92-.62.5-.6-.5c-1.36-6.19-7.65-11.4-12.25-19.36l.03-.69c.07-.09-.01-.8-1.64-2.42-4.21-4.23-11.86-8.32-12.81-7.62l-.39.24c-5.74.97-14.25-.38-17.9-2.27-.2 5.58-1.4 12.58-7.14 15.88-3.77 2.2-5.82 3.26-8.22 3.39-2.38-.13-4.43-1.19-8.2-3.39-5.75-3.3-6.95-10.3-7.14-15.88-3.66 1.89-12.15 3.24-17.9 2.27l-.39-.24c-.93-.7-8.61 3.39-12.84 7.62-1.61 1.62-1.68 2.33-1.62 2.42l.04.69c-4.61 7.96-10.9 22.96-12.25 29.16l-.61.48-.61-.48c-1.18-5.34-3.14-11.36-5.92-13.72l-13.79.39-.94 1.51c-2.04 3.45-3.91 8.56-3.91 15.69 0 4.59.45 9.71 1.35 14.97 3.38 19.55 7.04 30.62 17.65 36.88 2.29 1.37 5.68 1.71 8.84.87 2.24-.57 4.08-1.9 5.28-3.08 1.18-1.19 1.48-1.69 2.04-2.65l.73-.26.44.66c-1.47 12.92-1.03 39.8 5.04 43.03l.28.76-.71.41c-1.59-.35-7.2-1.16-12.27 2.36-4.39 3.05-7.25 8.55-8.46 16.37-3.26 22.01-1.98 42.22 3.87 61.72 2.57 7.37 3.45 14.32 4.17 19.93.69 5.24 1.23 9.38 2.83 10.6l1.72.32.69.41c.78 2.22 1.22 5.2 1.22 8.2 0 3.09-.55 6.07-1.61 8.3 1.92.81 3.66.84 5.45.78l1.36-.03.63.57.08 1.34c0 4.08-1.8 9.79-5.17 13.17l-.37.33c-2.36 2.37-13.05 11.2.09 11.2 13.27 0 24.59-10.64 25.36-19.25 1.62-5.33 10.04-6.35 14.9-3.72l.73.39c4.83 2.63 17.6 9.58 23.78 3.44 2.88-3.93 6.15-5 7.89-4.18 1.77.86 3.24 2.21 3.8 4.07.78 8.61 12.12 19.25 25.38 19.25 13.14 0 2.45-8.83.07-11.2l-.35-.33c-3.36-3.38-5.19-9.09-5.19-13.17l.08-1.34.62-.57 1.37.03c1.81.06 3.96.03 5.89-.78" fill="#3a89cc" style="fill:#0066b3"/><path d="M234.81 222.12c-3.41 1.76-11.68 3.1-17.2 2.17-1.95-1.53-10.73 4.22-14.18 7.68-1.33 1.3-1.97 2.34-1.97 3.13l.11.37c-4.26 7.42-9.86 20.58-11.79 27.53-1.17-4.72-3.02-10.14-5.84-12.55l-.75-.25-13.77.38-.81.37-1.08 1.71c-2.68 4.52-4.04 9.99-4.04 16.23 0 4.72.48 9.97 1.36 15.16 3.43 19.87 7.2 31.16 18.18 37.66 2.53 1.49 6.25 1.87 9.66.98 2.82-.76 4.84-2.44 5.78-3.39l1.19-1.52c-.32 3.5-.56 8.08-.56 13.04 0 11.31 1.22 24.12 5.08 28.34-2.58-.28-7.23-.21-11.54 2.75-4.67 3.24-7.69 9-8.95 17.13-3.28 22.18-1.99 42.53 3.92 62.21 2.53 7.29 3.44 14.18 4.14 19.74.74 5.71 1.26 9.83 3.27 11.32l2.1.58c.67 2.07 1.08 4.75 1.08 7.49 0 3.02-.55 5.81-1.51 7.83l-.12.47.08.38.6.63c2.14.9 4.01.92 5.92.87l.9-.02.03.81c0 3.74-1.67 9.17-4.86 12.37l-.35.36-.83.78c-2.87 2.71-5.85 5.78-5.85 8.38l.22 1.19c.74 1.82 3.12 2.72 7.32 2.72 13.66 0 25.65-11.09 26.47-20.27.54-1.71 2.21-2.77 3.5-3.28 2.97-1.22 7-1.05 9.77.43l.72.4c5.04 2.73 18.35 9.97 25.09 3.25 2.71-3.69 5.49-4.49 6.63-3.95 1.68.77 2.82 1.98 3.24 3.38.78 8.95 12.76 20.04 26.42 20.04 4.19 0 6.58-.9 7.32-2.72l.22-1.19c0-2.6-2.98-5.67-5.85-8.38l-.83-.78-.35-.36c-3.21-3.2-4.86-8.63-4.86-12.37l.05-.81.89.02c2.07.05 4.28-.02 6.35-.87l.67-1.01s-.11-14.24-.13-15.94l1.26-.43c1.99-1.49 2.51-5.6 3.26-11.29.72-5.59 1.6-12.48 4.14-19.74 3.79-12.65 5.67-25.54 5.67-39.06 0-7.53-.58-15.24-1.75-23.18-1.26-8.13-4.27-13.89-8.94-17.13-4.33-2.96-8.98-3.03-11.56-2.75 3.87-4.22 5.09-17.04 5.09-28.35 0-4.95-.23-9.54-.55-13.03l1.17 1.52c.96.95 2.98 2.63 5.79 3.39 3.41.89 7.13.51 9.67-.98 10.99-6.5 14.73-17.79 18.17-37.66.89-5.19 1.37-10.44 1.37-15.16 0-6.24-1.37-11.71-4.06-16.24l-1.05-1.7-.82-.37-13.77-.38-.66.17-5.71 3.8c-1.02-3.61-3.44-6.84-6.26-10.5-1.95-2.53-3.97-5.14-5.75-8.23l.11-.34c0-.79-.66-1.83-1.98-3.13-3.44-3.46-12.25-9.21-14.26-7.72-5.44.97-13.71-.37-17.14-2.13l-1.05.02-.55.91c-.27 7.68-2.41 12.58-6.58 14.98-3.74 2.14-5.6 3.11-7.72 3.21-2-.1-3.86-1.07-7.6-3.21-4.17-2.4-6.32-7.3-6.58-14.98l-.54-.91-1.08-.02zm-31.34 12.4.23.48-.03.13-.2-.61zm-1.88 1.01h.01l.08.3-.09-.3zm57.84 4.4c4.56-2.62 6.98-7.71 7.52-15.29 4.27 1.64 11.74 2.74 17.14 1.81l.59-.28c1.28.05 7.79 3.46 11.67 7.36l1.31 1.63-.11.37.22.89c1.88 3.24 4.08 6.09 6.01 8.6 2.88 3.73 5.38 6.94 6.11 10.43l1.7 1.37 1.31-.73 5.54-3.7 12.85.38.61 1c2.45 4.12 3.76 9.37 3.76 15.12 0 4.6-.47 9.71-1.34 14.76-3.32 19.22-6.88 30.1-17.12 36.15-2.06 1.22-5.12 1.5-7.99.74-2.32-.61-3.99-2.01-4.78-2.8l-1.87-2.41-2.05-.77-1.18 1.84c1.67 14.66.51 39.29-4.45 41.92l-.83 2.13 2 1.11c1.49-.33 6.71-1.08 11.4 2.18 4.15 2.87 6.84 8.12 8.02 15.64 3.22 21.83 1.96 41.88-3.85 61.23-2.59 7.42-3.5 14.44-4.21 20.09-.6 4.6-1.16 8.92-2.4 9.85l-.87.16-.89.22-.41.84s.13 14.56.14 16.07c-1.5.46-3.15.57-4.73.54l-1.4-.05-1.74 1.55-.08 1.47c0 4.07 1.73 10.16 5.51 13.94l.35.35.87.84c1.43 1.35 5.77 5.45 5.09 7.13-.13.28-.86 1.33-5.26 1.33-12.54 0-23.53-9.98-24.26-18.27-.65-2.22-2.21-3.87-4.45-4.92-2.12-1.03-5.93-.04-9.25 4.5-5.47 5.44-17.73-1.24-22.35-3.77l-.75-.38c-3.31-1.79-8.1-2.01-11.66-.56-2.47 1.03-4.14 2.72-4.8 4.92-.8 8.5-11.78 18.48-24.32 18.48-4.38 0-5.14-1.05-5.26-1.33-.67-1.68 3.65-5.78 5.09-7.13l.87-.84.35-.35c3.78-3.78 5.51-9.87 5.51-13.94l-.09-1.47-1.74-1.55-1.38.05c-1.38.03-2.67-.05-4.03-.46.81-2.13 1.33-4.7 1.33-7.54 0-3.11-.46-6.23-1.27-8.54l-1.91-1.16-.89-.11c-1.24-.95-1.81-5.27-2.39-9.87-.74-5.65-1.63-12.67-4.24-20.13-5.8-19.31-7.05-39.36-3.81-61.21 1.15-7.48 3.85-12.75 8.01-15.62 4.68-3.26 9.9-2.51 11.39-2.18l1.99-1.11-.82-2.13c-4.96-2.63-6.12-27.26-4.45-41.93l-1.18-1.83-2.05.78-1.86 2.4c-.79.79-2.47 2.19-4.79 2.8-2.87.76-5.93.48-7.99-.74-10.24-6.05-13.79-16.93-17.12-36.15-.87-5.05-1.32-10.16-1.32-14.76 0-5.75 1.28-11 3.73-15.11l.62-1.01 12.68-.37c2.02 1.95 3.92 6.45 5.32 12.85l1.71 1.36 1.67-1.38c1.35-6.11 7.58-20.93 12.14-28.83l.23-.86-.13-.38 1.32-1.63c3.88-3.9 10.39-7.33 11.69-7.36l.57.28c5.4.93 12.89-.17 17.14-1.81.54 7.58 2.94 12.67 7.52 15.29 3.97 2.3 6.11 3.38 8.7 3.52 2.71-.14 4.87-1.22 8.82-3.52z"/><path d="M178.48 310.73c-1.2-2.08-2.03-3.64-2.53-7.92 0 0 3.6-9.28 6.44-13.4 1.94-2.79 2.95-6.23 3.76-8.39 1.27-3.38 2.1-11.51 2.54-17.88-.31-1.22-.65-2.46-1.05-3.64-.31 6.38-1.19 17.15-2.66 21.08-.75 2.01-2.55 4.59-4.44 7.31-1.91 2.8-3.87 7.71-4.98 10.27-.12-1.91-.4-5.66 1.53-9.9l-2.35 1.88-2.6-1.39c2.21 4.14 2.07 6.47 2.3 9.11-2.39-3.61-4.55-10.1-6.63-16.39l-3.12-8.76c.07 1.59.21 3.22.4 4.87l1.52 4.27c2.57 7.79 5 17.64 8.05 20.9.52 4.42 1.39 6.29 2.73 8.62l.85.21m16-25.97c-2.2-2.22-4.05-7.07-2.81-20.39l-1.62-.35-1.14.3c-1.05 11.09.07 16.62 3.97 24.03 1.12 2.17-1.82 9.08-3.59 12.14l.24.86.85-.22c1.48-2.55 4.55-7.71 4.37-12.24 2.08 2.11 3.52 3.87 2.31 9.78l.49.74.75-.48c1.64-7.94-1.61-11.96-3.82-14.17m19.17 22.4c3.06 13.35 17.82 38.1 19.22 37.61.38-2.03-11.26-15.19-16.24-37.94-6.5-29.68-7.75-33.56-8.14-34.65l-1.29-2.16-.51.72c.57 2.16 1.14 4.73 1.7 7.5.94 13.29-5.83 30.71-10.05 37.12l1.86.53.87-.23.48-.83c.24 15.25 6.42 31.77 9.94 37.82l.86.72-.25-1.13c-3.23-5.61-8.62-27.9-8.09-41.66 1.07-1.92 2.16-3.99 3.15-6.25.83 17.58 7.81 41.04 16.03 51.58l.88.54-.26-1.08c-7.77-9.97-13.35-39.88-14.23-58.08.52-2.07.92-4.25 1.09-6.56 1.16 6.72 2.18 13.02 2.98 16.43m73.25-48.69-.52.61c-.75 14.12-7.63 36.58-21.74 52.09l-.07.81.82.06c12.4-10.65 23.13-36.04 22.13-53.04"/><path d="M290.4 269.06c-3.24 21.08-15.72 54.6-28.48 69.01l-.23 1.16 1.2-.33c13.06-14.79 26.26-44.15 28.76-69.64l-.53-.72m-3.14 89.26.87-.55c2.34-3.07 4.03-5.5 5.34-7.56 2.24-3.56 4.9-4.04 5.88-2.24 1.44-9.79 1.28-23.17.37-31.18l.43-.66.74.26c-3.25-4.84-1.79-46.01-1.79-46.01-3.77 37.59-30.5 78.42-36.35 84.24l-.88 2.13 2.03-1.48c6.1-6.08 25.23-36.57 27.94-45.95.92-2.24 3.54.89 1.69 6.01-5.83 17.26-14.35 35.35-20.7 44.65l-1.34 2.52 1.95-1c6.49-8.6 14.29-19.21 20.31-33.28.52-1.27 2.77-2.4 3.64-.77v.13c1.71 5.56-1.94 13.68-9.49 28.73m-64.05 8.92c-4.36-2.5-5.86-4.48-18.25-6.52l-2.64.76.39 1.51 1.45 1.1c9.6 4.14 16.33 16.53 19.37 21.8 1.76 3.05 2.59 5.73 4.69 12.6 1.84 6.02 3.66 6.96 3.49 6.68-2.48-4.43-4.58-14.78-4.58-14.78-3.26-12.86-5.79-19.23-9.17-22.88 1.4.69 2.68 1.42 3.89 2.09 4.44 2.56 11.89 2.62 14.45 1.29l.01-1.26c-3.2 0-8.95 0-13.1-2.39m-21.45 5.24 2.94 3.19c4.79 4.76 19.78 32.25 23.36 52.47l1.31 4.74-2.33-15.56c-3.97-23.12-16.23-40.35-24.42-45.06m-2.72 17.59v.9c7.69 7.67 9.9 19.77 11.51 26.6 3.42 14.59 9.77 34.19 11.76 37.61l.87.63-.35-1.43c-1.89-3.28-4.86-18.07-8.19-32.31-2.09-8.89-6.46-23.37-14.18-31.08m-13.82 17.83c0 15.6-.3 35.59 13.97 60.27l1.15 1.18-.51-1.62c-14.63-30.59-13.75-57.82-13.64-59.97l-.34-1.56m87.3-39.66c4.35-2.5 5.86-4.48 18.23-6.52l2.64.76-.37 1.51-1.45 1.1c-9.6 4.14-16.34 16.53-19.38 21.8-1.76 3.05-2.59 5.73-4.68 12.6-1.85 6.02-3.67 6.96-3.51 6.68 2.49-4.43 4.59-14.78 4.59-14.78 3.25-12.86 5.8-19.23 9.17-22.88-1.4.69-2.69 1.42-3.87 2.09-4.45 2.56-11.92 2.62-14.46 1.29l-.03-1.26c3.19 0 8.96 0 13.12-2.39m21.41 5.24-2.94 3.19c-4.77 4.76-19.76 32.25-23.34 52.47l-1.3 4.74 2.34-15.56c3.95-23.12 16.2-40.35 24.4-45.06m2.71 17.59v.9c-7.68 7.67-9.89 19.77-11.5 26.6-3.41 14.59-9.77 34.19-11.76 37.61l-.86.63.34-1.43c1.89-3.28 4.85-18.07 8.19-32.31 2.08-8.89 6.47-23.37 14.16-31.08"/><path d="M263.45 475.54c5.87-.69 4.97 3.29 5.68 13.39l.61 1.26.29-.61c0-4.72.26-14.3 3.38-12.83l-.05-.06c7.48 3.6 16.82-.38 20.17-2.94-.98 2.19-1.11 4.89-.15 8.2 1.14 3.93 1.36 9.4-2.77 11.78-5.56 3.19-12.75 3.62-16.34.04l.05.18c.87.75 1.56 1.67 1.89 2.85 2.8 1.61 10.94 1.57 17.08-1.98 1.44-.84 2.32-1.88 2.88-3.07l-.03-.4.07-1.35.56-.54c.28-2.4-.35-5.03-1.03-7.33-1.58-5.39-.21-10.47 2.31-10.54 2.33-.23 4.79.84 4.86 2.55l.76-1.95.29-.42 1.72-.32c1.62-1.22 2.16-5.35 2.83-10.6l.16-1.3c-3.29 12.67-5.44 11-6.23 10.55-.81-.48-3.91-2.99-9.53.26-7.2 4.14-23.36 5.14-22.71-1.89l-.9-.95c-.77 0-1.21.66-1.79 1.84-.65 1.39-2.13 2.86-4.62 3.64-1.4.21-2.55.08-3.82-.22l-.21-1.47c1.15-1.9 4.38-6.16 7-6.7 1.49-.31.98-1.13.14-1.02-5.81.64-5.97 5.7-10.94 8.56-3.5 2-14.15 1.54-16.56.87-2.48-.8-4.02-2.27-4.68-3.66-.57-1.18-1.01-1.84-1.78-1.84l-.91.95c.64 7.03-15.5 6.03-22.7 1.89-5.64-3.25-8.71-.74-9.51-.26-.82.45-2.95 2.12-6.24-10.55l.16 1.3c.68 5.25 1.22 9.38 2.84 10.6l1.7.32.7.42.45 1.56c.63-1.12 2.43-2.39 4.75-2.16 2.52.07 3.9 5.15 2.32 10.54-.66 2.3-1.31 4.93-1.03 7.33l.57.54.06 1.35-.03.4c.55 1.19 1.45 2.23 2.88 3.07 6.15 3.55 14.28 3.59 17.08 1.98.35-1.18 1.02-2.1 1.91-2.85l.03-.18c-3.58 3.58-10.78 3.15-16.36-.04-4.1-2.38-3.9-7.85-2.75-11.78.97-3.31.83-6.01-.16-8.2 3.37 2.56 12.71 6.54 20.19 2.94l-.05.06c3.11-1.47 3.36 8.11 3.36 12.83l.3.61.61-1.26c.71-10.1-.17-14.13 3.63-13.45.31.12 2.63 1.01 2.63 4.15 0 2.59-.7 8.22 0 12.77l1.56.67 2.53 1.37c-1.97-4.02-2.11-11.09-2.11-12.72 0-3.27 2.71-4.9 4.08-4.91l.18-.02c3.9-.17 7.92-1.1 10.54-2.29 4.2 1.04 4.92 1.04 8.2 1.04"/><path d="M312.48 406.07c0 15.6.29 35.59-13.97 60.27l-1.15 1.18.5-1.62c14.64-30.59 13.76-57.82 13.64-59.97l.35-1.56"/><path d="M241.99 455.48c0 3.27-7.63 3.59-6.35-.22 1.04-3.03 1.62-18.68 1.62-20.27.01-1.42 2.22-142.11 2.22-152.38v-.37l-.31-.18c-9.49-5.47-32.3-39.47-36.56-46.84l-.04-.12c0-.31.28-1.01 1.64-2.35 4.21-4.23 11.89-8.32 12.82-7.62 13.17 22.33 28.58 38.11 33.63 43.17 5.07-5.06 20.48-20.84 33.65-43.17.95-.7 8.6 3.39 12.81 7.62 1.34 1.34 1.63 2.04 1.63 2.35l-.02.12c-4.26 7.37-27.07 41.37-36.56 46.84l-.32.18v.37l2.02 152.4c1.02 7.71 2.47 19.56 2.19 20.71 0 3.28-5.97 3.6-5.97-.22.49 4.27-6.72 3.75-6.41-.02 0 3.27-6.64 3.72-6.01-.09 0 3.3-6.66 3.86-5.68.09" fill="#fff"/><path d="M296.64 231.96c-3.45-3.46-12.25-9.2-14.26-7.71l-.29.32c-8.74 14.81-20.05 29.34-32.7 42.11-12.65-12.77-23.95-27.3-32.67-42.11l-.29-.32c-2.04-1.49-10.82 4.25-14.28 7.71-1.31 1.31-1.95 2.33-1.95 3.13l.18.68c4.41 7.64 26.77 41.03 36.72 47.1-.01 10.65-1.85 127.74-2.21 151.25l-.01.84c0 2-.61 17.17-1.57 19.93l-.2 1.18.9 2.04c1.4 1.29 3.87 1.22 5.49.51l.74-.59.3.36c1.14.95 3.07 1.06 4.69.3l.87-.74.41.47c1.24.92 3.32 1.01 4.91.21l.8-.71.96.97c1.57.95 3.74.97 5.17.05l.57-.63 2.84 1.07c1.97 0 4.06-1.27 4.12-3.58l.02-.56c0-3.47-1.65-16.26-2.2-20.43l-2.01-151.97c9.95-6.04 32.31-39.43 36.72-47.07l.18-.68c0-.8-.64-1.82-1.95-3.13m-36.3 49.15-.31.18-.55.95v.36l2.01 152.4c1.3 9.8 2.23 18.23 2.23 20.17l-.01.32c-.01 1.28-1.17 1.68-1.95 1.68-.42 0-1.84-.12-1.84-1.68 0-3.57-.74-18.44-1.35-20.69l-.76-.42-.45.77c.52 1.97.45 16.36.45 20.54l-.66 1.38-2.83-.07-.81-1.46s0-19.27-.39-20.74l-.77-.42-.44.77c.37 1.41-.59 20.31-.59 20.31l-.89 1.2-2.61-.02-.33-1.08s-.11-19.26-.52-20.76l-.77-.42-.43.77c.37 1.44-.48 20.24-.48 20.24l-1.01 1.31h-2.34l-.15-.98c.76-4.09.64-18.59.01-20.92l-.76-.42-.46.77c.54 1.97-.19 16.09-.97 20.31l-1 1.14c-1.16.51-2.6.36-3.11-.1l-.09-.88c1.15-3.39 1.68-19.65 1.68-20.64l.01-.83c.36-23.66 2.21-142.17 2.21-151.54v-.37l-.54-.95-.33-.18c-8.78-5.07-30.84-37.41-35.94-46.1l1.21-1.5c3.71-3.69 9.77-6.98 11.43-7.29 8.98 15.1 20.53 29.91 33.48 42.85l.77.32.79-.32c12.95-12.94 24.5-27.75 33.48-42.85 1.66.31 7.71 3.6 11.42 7.29l1.21 1.5c-5.19 8.82-27.17 41.03-35.95 46.1z"/><path d="m237.48 419.64-.63.62.63.63h26.11l.63-.63-.63-.62m-26.33 14.7-.64.66.64.61h26.61l.64-.61-.64-.66m-26.5-7.36-.62.64.62.63h26.33l.63-.63-.63-.64"/><path d="M267.15 455.97v-.25" stroke="#000" stroke-miterlimit="10" stroke-width=".025" fill="none"/><path d="M256.91 404.37h-4.67v-4.66l-1.58-1.58-1.57 1.58v4.66h-4.68l-1.57 1.58 1.57 1.58h4.68v4.66l1.57 1.57 1.58-1.57v-4.65h4.67l1.57-1.59m-1.57-59.26h-4.67v-4.67l-1.58-1.59-1.57 1.59v4.67h-4.68l-1.57 1.57 1.57 1.57h4.68v4.68l1.57 1.56 1.58-1.56v-4.68h4.67l1.57-1.57m-1.57-62.45h-4.67v-4.68l-1.58-1.57-1.57 1.57v4.68h-4.68l-1.57 1.57 1.57 1.57h4.68v4.68l1.57 1.57 1.58-1.57v-4.68h4.67l1.57-1.57m-31.04-42.11-1.99-.4-2.83 1.89-1.91-2.83-2-.41-.38 2 1.88 2.86-2.83 1.88-.39 1.99 1.99.4 2.84-1.91 1.9 2.85 1.99.41.4-1.99-1.89-2.86 2.83-1.9m46.84-1.98 2-.4 2.83 1.89 1.9-2.83 2-.41.39 2-1.9 2.86 2.84 1.88.4 1.99-1.99.4-2.84-1.91-1.9 2.85-1.99.41-.4-1.99 1.89-2.86-2.83-1.9"/><path d="M235.32 223.09c.42-2.56.65-4.97.65-6.23-1.83-2.83-3.14-5.95-4.05-8.75-2.25.41-6.62 1.17-7.02.75l.05.15c-.57 4.58-6.12 11.97-6.22 16.5 5.62.62 13.13-.64 16.59-2.36" fill="#fff"/><path d="M231.73 207.03c-4.34.81-6.07.92-6.4.86l-.93.2-.54.78c-.24 1.98-1.6 4.73-2.92 7.4-1.61 3.23-3.25 6.57-3.31 9.21l.99 1.12c5.45.61 13.33-.52 17.2-2.44l.59-.89c.4-2.54.66-5.03.67-6.36l-.18-.63c-1.56-2.41-2.89-5.26-3.93-8.51l-1.24-.74zm-6.79 2.98.12.02-.12-.02zm6.29-.66c.99 2.89 2.2 5.51 3.61 7.79-.01 1.15-.22 3.15-.54 5.22-3.07 1.38-9.17 2.44-14.28 2.11.38-2.05 1.63-4.67 2.9-7.24 1.29-2.57 2.38-5 2.86-7.14.97-.02 2.63-.24 5.45-.74z"/><path d="m276.37 209.01.06-.15c-.39.42-4.76-.34-7.02-.75-.9 2.8-2.21 5.92-4.05 8.75.02 1.26.25 3.67.66 6.23v.06c3.46 1.73 10.98 2.98 16.59 2.36-.1-4.53-5.65-11.92-6.24-16.5" fill="#fff"/><path d="M268.36 207.76c-1.03 3.25-2.34 6.1-3.92 8.51l-.17.62c0 1.35.25 3.85.67 6.38l.59.88c3.86 1.92 11.74 3.04 17.19 2.44l.99-1.12c-.06-2.65-1.71-5.98-3.31-9.23-1.32-2.65-2.68-5.42-2.93-7.38l-.52-.77-.94-.21c-.08.01-1.07.13-6.4-.86l-1.25.74zm1.74 1.57c2.83.51 4.48.73 5.46.75.49 2.13 1.57 4.57 2.86 7.16 1.27 2.56 2.52 5.16 2.92 7.21-5.13.35-11.21-.73-14.31-2.1-.31-2.06-.53-4.05-.55-5.23 1.42-2.27 2.64-4.89 3.62-7.79zm6.3.65-.14.04.14-.04z"/><path d="M285.77 191.19c0-3.61-3.67-8.42-12.9-11.42.99 3.59 1.33 10.16-.43 13.14-.99 1.67-1.39 5.25-1.19 6.72.15 1.12-.96 8.59-4.6 15.25 3.48 5.79 10.56.98 10.56-1.96 3.62 1.64 6.33-6.18 3.95-8.56 3.13 0 2.47-4.44 1.28-7.62 2.85-1.66 3.33-1.92 3.33-5.55" fill="#f5f5f5"/><path d="M286.88 191.19c0-3.87-3.6-9.18-13.67-12.47l-1.1.27-.31 1.07c.91 3.37 1.24 9.66-.31 12.29-1.14 1.94-1.56 5.77-1.34 7.43.09.76-.86 7.98-4.46 14.58l.01 1.1c1.65 2.72 4.25 3.79 7.21 2.98 2.35-.64 4.36-2.44 5.08-4.24 1.32.1 2.61-.59 3.62-2.03.96-1.39 1.56-3.31 1.56-5.05l-.36-2.06 1-.89.72-2.79c0-1.52-.41-3.02-.78-4.15 2.41-1.48 3.13-2.32 3.13-6.04m-14.57 25.14c-1.27.33-2.98.2-4.35-1.62 1.68-3.31 2.8-6.64 3.5-9.4l1.51 1.53c1.77 1.74 3.13 3.49 3.13 6.08 0 .94-1.6 2.79-3.79 3.41zm7.48-5.42-2.03 1.02c-.4-2.57-2.25-4.37-3.9-5.99l-2.04-2.18c.38-1.77.54-3.15.54-3.9l-.01-.37-.04-.75.07-1.45c.89 1.02 1.99 1.86 3.17 2.68 1.71 1.16 3.49 3.08 4.95 5.31l.46 1.8c0 1.23-.42 2.74-1.17 3.83zm2.2-8-.83.34-.05.02c-1.48-1.98-3.24-3.25-4.83-4.35-1.55-1.06-2.86-2.03-3.6-3.43l.71-2.02c.67-1.14 1.04-2.68 1.24-4.33l2.81 2.6c1.56 1.22 2.95 3.25 4.17 5.96.46 1.41.71 2.71.71 3.72l-.33 1.49zm.51-7.48c-1.29-2.34-2.87-3.58-4.29-4.67-1.34-1.05-2.53-1.99-3.45-3.69l.03-.57c0-1.79-.21-3.46-.47-5.01 7.54 2.93 10.34 6.97 10.34 9.7 0 2.74-.07 3.01-2.16 4.24z"/><path d="M215.56 191.19c0-3.61 3.7-8.42 12.91-11.42-.98 3.59-1.32 10.16.43 13.14.98 1.67 1.39 5.25 1.19 6.72-.16 1.12.96 8.59 4.59 15.25-3.47 5.79-10.55.98-10.55-1.96-3.62 1.64-6.33-6.18-3.94-8.56-3.13 0-2.48-4.44-1.3-7.62-2.84-1.66-3.33-1.92-3.33-5.55" fill="#f5f5f5"/><path d="M217.61 197.23c-.39 1.13-.79 2.63-.79 4.15l.71 2.78 1 .9-.35 2.06c0 1.74.6 3.65 1.57 5.04 1 1.45 2.29 2.13 3.62 2.02.71 1.82 2.71 3.61 5.07 4.26 2.95.8 5.56-.26 7.19-2.98l.02-1.1c-3.61-6.61-4.55-13.83-4.47-14.58.24-1.67-.18-5.49-1.33-7.43-1.55-2.63-1.22-8.94-.31-12.29l-.31-1.09-1.1-.25c-10.06 3.28-13.65 8.6-13.65 12.47 0 3.72.7 4.56 3.13 6.04m7.63 15.69c0-2.59 1.36-4.34 3.13-6.08l1.52-1.53c.7 2.76 1.81 6.09 3.49 9.39-1.37 1.83-3.08 1.96-4.34 1.61-2.22-.62-3.8-2.45-3.8-3.39zm-4.85-5.84.45-1.8c1.46-2.23 3.25-4.16 4.95-5.31 1.18-.84 2.29-1.66 3.16-2.68l.1 1.45-.05.75-.01.37c0 .74.15 2.13.54 3.9l-2.05 2.18c-1.65 1.62-3.5 3.42-3.89 5.99l-2.03-1.02c-.76-1.09-1.17-2.6-1.17-3.83zm-1.37-5.66c0-1.01.25-2.32.73-3.72 1.22-2.71 2.61-4.74 4.15-5.96l2.82-2.6c.19 1.65.56 3.19 1.24 4.33l.7 2.02c-.73 1.4-2.06 2.37-3.6 3.43-1.58 1.1-3.34 2.37-4.84 4.35l-.03-.02-.84-.34-.33-1.49zm-2.33-10.23c0-2.74 2.8-6.78 10.35-9.71-.26 1.54-.48 3.23-.48 5.01l.01.56c-.9 1.72-2.09 2.66-3.44 3.71-1.41 1.09-2.99 2.31-4.28 4.67-2.1-1.23-2.16-1.5-2.16-4.24z"/><path d="M250.68 242.36c2.38-.13 4.43-1.19 8.2-3.38 5.74-3.31 6.95-10.31 7.14-15.89-.41-2.56-.64-4.97-.66-6.21 4.58-7.07 5.94-16.01 5.76-17.24-.19-1.46.2-5.04 1.2-6.73 1.76-2.98 1.4-9.55.42-13.14-2.89-.52-12.17-1.78-22.06-2.01-9.91.23-19.18 1.49-22.08 2.01-.98 3.59-1.33 10.16.43 13.14 1 1.69 1.4 5.27 1.19 6.73-.17 1.23 1.18 10.17 5.75 17.24 0 1.24-.23 3.65-.65 6.21.19 5.58 1.39 12.58 7.14 15.89 3.79 2.19 5.82 3.25 8.22 3.38" fill="#fff"/><path d="m264.59 216.09-1.86 2.41c-1.94 2.87-4.15 6.13-12.05 6.13-7.91 0-10.11-3.26-12.06-6.13l-1.86-2.41-1.46-.09-.1 1.67 1.6 2.08c2.03 2.99 4.8 7.09 13.88 7.09 9.09 0 11.85-4.1 13.87-7.09l1.59-2.08-.1-1.67m-19.38-5.15c-1.12.28-2.52.64-4.09.02l-.81.36.35.81c1.94.79 3.63.35 4.85.03l1.22-.23 1.86.45.43.16h.42l.41-.16 1.88-.45 1.21.23c1.23.32 2.91.76 4.87-.03l.33-.81-.81-.36c-1.56.62-2.97.26-4.08-.02l-1.63-.26-2.22.53-.17.06-.18-.06-2.22-.53"/><path d="m253.72 214.67-1.45.5-1.61.48-1.61-.48-1.44-.5-.7.56.55.7 1.07.37 2.13.61 2.15-.61 1.06-.38.56-.7m-5.59-26.36-.52.73c.56 3.3-.71 7.45-1.74 10.78-.95 3.04-1.51 4.9-.68 5.74l2.21.27.42-.17.52.33 1.44.66 1.43-.56.58-.31.43.13 2.2-.35.41-1.9-.7-.56-.56.64v.05l.04.44-.1.42-.4.34-.12-.08-1.54-.34-1.16.67-.51.15-.43-.17-1.2-.77-1.58.42-.12.09-.36-.31-.07-.29c0-.79.59-2.71 1.04-4.17.89-2.85 1.96-6.29 1.96-9.42l-.16-1.94m5.71 1.49.1.87.88-.09c1.27-1.57 3.81-2.45 6.49-2.19 2.1.2 3.79 1.06 4.42 2.23l.85.29.26-.86c-.82-1.59-2.86-2.67-5.42-2.92-2.46-.23-5.75.36-7.58 2.67"/><path d="M261.64 191.29v-2.17" stroke="#000" stroke-miterlimit="10" stroke-width="5.25" fill="none"/><path d="m255.82 186.38-.2.84.87.23c2.8-1.68 6.94-3.17 9.4-1.81l2.57 1.77.89-.07-.07-.89-2.8-1.92c-2.9-1.6-7.4-.1-10.66 1.85m10.47 3.74c-.38 1.22-2.06 2.17-4.1 2.27-1.84.13-4.07-.44-4.93-2.32l-.63-.23-.22.61c1.04 2.34 3.69 3.02 5.83 2.9 2.05-.13 4.38-1.1 4.95-2.96l-.32-.58m-28.39-1.61c-2.55.24-4.6 1.32-5.42 2.92l.26.85.85-.28c.62-1.18 2.32-2.03 4.44-2.23 2.67-.26 5.21.61 6.47 2.19l.88.09.1-.87c-1.83-2.32-5.12-2.9-7.58-2.67"/><path d="m237.08 189.14 1.14 2.16 2.95-.03 1.15-2.06m-7.49-4.68-2.78 1.92-.08.89.9.07 2.57-1.77c2.45-1.34 6.62.14 9.41 1.81l.86-.21-.21-.86c-3.24-1.95-7.75-3.45-10.67-1.85"/><path d="m234.47 189.79-.32.6c.58 1.85 2.9 2.82 4.95 2.95 2.15.13 4.82-.56 5.86-2.89l-.24-.62-.64.22c-.84 1.9-3.09 2.47-4.91 2.34-2.05-.11-3.74-1.06-4.11-2.29"/><path d="m228.77 178.42-.87.8c-.49 1.77-.87 4.41-.87 7 0 2.64.39 5.23 1.41 6.97.69 1.18 1.09 3.71 1.09 5.28l-.04.75-.03.36c0 2.23 1.45 10.44 5.75 17.29-.02 1.28-.26 3.51-.61 5.78.27 8.7 2.78 14.22 7.67 17 3.96 2.3 6.12 3.38 8.71 3.52h.12c2.58-.14 4.74-1.22 8.69-3.52 4.89-2.78 7.41-8.3 7.69-16.79-.37-2.46-.61-4.71-.64-5.99 4.31-6.85 5.77-15.06 5.77-17.29l-.03-.36-.04-.75c0-1.57.39-4.1 1.09-5.28 1.02-1.74 1.38-4.33 1.38-6.97 0-2.59-.36-5.23-.84-7l-.88-.8c-2.74-.5-12.09-1.8-22.23-2.05-10.19.25-19.55 1.55-22.29 2.05m22.29.17c9.24.22 17.76 1.32 21.1 1.86.38 1.63.64 3.7.64 5.77 0 2.31-.31 4.55-1.07 5.85-.95 1.6-1.4 4.5-1.4 6.4l.06 1.05v.12c0 1.44-1.31 9.74-5.59 16.36l-.17.6c0 1.36.25 3.86.67 6.4-.29 7.46-2.44 12.36-6.61 14.75-3.7 2.13-5.56 3.1-7.65 3.21-2.1-.11-3.97-1.08-7.67-3.21-4.17-2.39-6.31-7.29-6.58-14.98.39-2.32.65-4.81.65-6.14v-.03l-.19-.6c-4.26-6.62-5.59-14.92-5.59-16.36l.01-.12.06-1.05c0-1.9-.43-4.8-1.39-6.4-.76-1.3-1.09-3.54-1.09-5.85 0-2.07.28-4.14.65-5.77 3.34-.54 11.87-1.64 21.16-1.86z"/><path d="M282.44 157.7c-.17-11.08-13.71-32.02-17.58-36.49-3.06 3.04-4.61 4.62-7.06 8-2.43-3.97-4.02-6.91-6.76-10.16-9.74 9.09-28.5 34.4-33 42.19 4.94 8.01 10.56 18.53 10.56 18.53 2.9-.52 12.17-1.78 22.08-2.01 9.9.23 19.17 1.49 22.06 2.01 1.67-.96 9.7-11.44 9.7-22.07" fill="#3a89cc" style="fill:#0066b3"/><path d="m257.25 128.25-.43 1.48 1.17 2.08c2.72 4.93 8.43 15.14 10.19 19.1 1.85 4.16 6.75 8.35 10.52 7.75 1.34-.22 3.65-1.25 4.12-5.74l-.98-1.22-1.22 1c-.23 2.3-1 3.58-2.26 3.78-2.45.4-6.56-2.87-8.17-6.48-1.79-4.03-7.53-14.32-10.3-19.26l-1.13-2.07"/><path d="m273.46 179.16 1.76-2.1.22-.31c.7-.95 1.44-2.12 2.22-3.41l.25-.45c.75-1.34 1.48-2.81 2.13-4.39l.22-.55.89-2.46c-6.49-1.15-15.82-1.66-24.13-1.6-1.04-3.66-1.81-26.94-1.4-38.27-1.43-2.31-2.74-4.39-4.59-6.59-2.37 2.21-5.26 5.38-8.35 9.01-1.83 10.07-1.64 28.3-1.09 36.6-6.13.59-13.99 2.2-19.33 3.7 3.02 5.28 5.6 10.08 6.2 11.17l.02.05.07.13.03.08c2.91-.52 12.18-1.79 22.08-2.01 9.91.22 19.18 1.49 22.07 2.01l.57-.45" fill="#fd1" style="fill:#fd0"/><path d="M250.59 118.58c-2.22 2.07-5.05 5.13-8.39 9.07l-.13.3c-1.1 5.96-1.49 15.16-1.49 23.44 0 4.84.14 9.3.35 12.73-6.4.65-14.01 2.27-18.85 3.63l-.41.38-.05.23.09.31 6.19 11.15.13.26.68.33c2.7-.5 11.94-1.79 21.98-2.01 10 .22 19.23 1.51 21.94 2.01l.43-.09.67-.54.18-.16 1.8-2.17.24-.31 2.26-3.48.24-.46 2.17-4.44.23-.58.9-2.5-.05-.53-.44-.28c-5.97-1.04-14.8-1.65-23.71-1.61-.8-3.69-1.41-19.13-1.41-30.56 0-2.63.04-5.04.11-7.04v-.03l-.1-.33c-1.27-2.1-2.68-4.35-4.65-6.67l-.44-.22-.47.17zm.38 1.42c1.62 1.99 2.85 3.9 4.02 5.8-.09 2.04-.11 4.46-.11 7.06 0 11.98.66 28.12 1.55 31.22l.59.47c8.68-.08 17.27.47 23.29 1.47l-.64 1.71-.21.54-2.1 4.32-.25.43-2.18 3.37-.23.3-1.69 2.04-.15.14-.29.25c-3-.51-12.06-1.76-21.88-1.98-9.72.22-18.61 1.42-21.76 1.95-.4-.73-4.45-8.04-5.72-10.33 4.95-1.34 12.3-2.89 18.44-3.47l.57-.65-.01-.02c-.21-3.47-.36-8.19-.36-13.26 0-8.15.38-17.14 1.44-23.04 3.02-3.56 5.58-6.32 7.68-8.32z"/><path d="M250.26 118.22c-9.74 9.13-28.7 34.71-33.18 42.47l.03 1.12c4.84 7.88 10.46 18.37 10.51 18.48l1.16.57c2.71-.48 11.91-1.76 21.91-1.99 9.95.23 19.15 1.51 21.86 1.99l.75-.13c2.19-1.27 10.23-12.16 10.23-23.03v-.01c-.16-11.59-14.21-33.02-17.83-37.21l-.79-.37-.81.32c-2.57 2.52-4.19 4.17-6.21 6.83l-.51-.83c-1.74-2.92-3.25-5.43-5.52-8.11l-.77-.39-.83.29zm.64 2.49c1.72 2.2 3.05 4.28 4.58 6.84l1.35 2.24.9.52.94-.45c2.19-3.01 3.72-4.62 6.09-6.98 4.78 6.03 16.43 24.98 16.57 34.83-.02 9.73-7.1 19.44-8.9 20.9-3.21-.55-12.08-1.73-21.74-1.96-9.43.23-18.08 1.35-21.5 1.91-1.27-2.36-5.76-10.61-9.86-17.31 4.74-7.94 21.94-31.12 31.57-40.54z"/><path d="M330.21 182.86c-2.97-3.18-7.32-4.8-12.94-4.8-11.43 0-18.52 9.64-18.52 18.57l3 163.73c1.98.31 4.19 1 6.32 2.47l1.97 1.67c-.64-35.23-3.03-166.16-3.03-166.16 0-5.95 5.45-9.58 9.34-9.58 4.02 0 9.95 2.77 9.95 8.72 0 3.24-1.97 7.66-5.72 9.86-2.11 1.24-5.53 2.01-10.01.07 2.29 4.66 6.17 6.94 10.97 6.06 6.41-1.14 13.06-7.94 13.06-17.28 0-5.73-1.5-10.21-4.39-13.33" fill="#fd1" style="fill:#fd0"/><path d="M331.02 182.12c-3.2-3.42-7.81-5.16-13.75-5.16-5.57 0-10.67 2.25-14.37 6.3-3.34 3.68-5.26 8.56-5.26 13.36l3 163.77.95 1.06c2.18.33 4.15 1.09 5.86 2.28l1.82 1.53 1.22.2.65-.99-3.03-166.16c0-5.24 4.81-8.47 8.24-8.47 3.58 0 8.85 2.44 8.85 7.64 0 2.91-1.78 6.91-5.19 8.91-1.43.82-4.51 1.94-9.01.01l-1.25.24-.18 1.26c2.54 5.16 6.98 7.59 12.17 6.66 6.86-1.25 13.94-8.45 13.94-18.38 0-6.02-1.57-10.75-4.66-14.06m-9.68 30.27c-3.28.6-6.11-.48-8.19-2.99 2.08.43 3.83.31 5.23-.03l.06-.01.09-.03 2.02-.73c5.19-2.39 7.1-7.69 7.1-11.4 0-6.29-4.34-10.26-10.72-10.26-5.77 0-11.02 3.51-11.02 11.4l.02.63c.17 10.19 2.61 143.7 2.97 163.1l-.2-.16c-1.73-1.19-3.72-1.95-5.87-2.4-.02-1.63-2.99-162.92-2.99-162.92 0-4.24 1.72-8.59 4.69-11.84 3.28-3.6 7.81-5.58 12.74-5.58 5.3 0 9.37 1.5 12.13 4.44 2.7 2.89 4.08 7.15 4.08 12.57 0 8.77-6.17 15.14-12.14 16.21z"/><path d="M308.49 460.85c-.67 5.25-1.21 9.38-2.83 10.6l-1.65.32c-.01 4.14-.01 8.31-.01 11.63l.29 16.92c0 2.05 1.39 3.07 4.11 3.07 2.84 0 4.11-.94 4.11-3.05 0 0-.53-29.27-1.02-55.64-1.67 5.96-2.4 11.51-3 16.15" fill="#fd1" style="fill:#fd0"/><path d="M310.44 444.41c-1.73 6.09-2.44 11.74-3.03 16.29v.01c-.6 4.59-1.16 8.9-2.4 9.84l-.83.12-.9.26-.37.84-.01 11.63.3 16.94c0 1.23.5 4.17 5.2 4.17 3.45 0 5.22-1.4 5.22-4.18l-1.01-55.63-.97-1.08-1.2.79zm-4.11 27.9c1.99-1.49 2.51-5.6 3.26-11.3v-.04c.26-2.03.59-4.35.98-6.77.22 13.04.84 46.17.84 46.17 0 .79 0 1.93-3.01 1.93-3 0-3-1.34-3-1.99l-.3-16.94v-10.65l1.23-.41z"/><path d="m304.02 254.89.2.11 2.42 1.4v.01c1.22.67 2.65 1.43 4.1 2.04l.01-.01 2.87.99.65.12.4.05h1.46c1.11 13.17 4.42 23.87 8.12 31.17 2.43-4.55 4.07-9.29 5.19-13.85 1.16-5.57 1.91-12.04 2.2-18.6-1.88-12.52-6.22-15.59-8.18-17.55-1.97-1.96-2.21-2.7-4.16-6.1-1.99-3.4-6.57-8.03-11.77-8.85l.13 5.18c-2.83-.79-3.09-.35-6.02-1.64-4.76-2.08-6.01-2.9-7.64-1.95-.81.49-2.22 3.07-1.58 4.53.38.84 1.21 1.61 2.61 2.42h-.2c-2.35-.22-3.15.61-3.46 1.76-.31 1.17-.38 2.53.72 3.71l1.78 1.11h-.14l-2.23 1.57.18 2.57c.24.29 1.33.84 2.69 1.45l-.02.01-1.64 1.47.36 2.06c.64.64 5.86 3.31 8.14 3.96.75.2 1.21.78 2.81.86" fill="#fff"/><path d="m337.64 267.82-.79.37-1.62 4.54.03-.18-3.12 8.74c-2.09 6.33-4.27 12.78-6.65 16.4.23-2.63-.13-5.18 2.07-9.34v-.02c1.54-3.34 2.86-7.08 3.86-11.14 1.15-5.51 1.91-12.01 2.24-18.82-1.78-12-5.81-15.81-7.98-17.84l-.54-.55c-1.53-1.52-1.89-2.15-3.11-4.31l-.88-1.55c-2.28-3.92-7.16-8.54-12.55-9.38l-.9.24-.39.83c0 .02.08 2.32.11 3.81l-1.09-.25-3.32-1.03-1.6-.69c-3.64-1.62-5.13-2.31-7.05-1.19-1 .58-2.31 2.72-2.31 4.61l.26 1.31.95 1.29-2.04 2.16-.24 1.67c0 1.2.4 2.24 1.2 3.08l.2.13-1.06 1.52-.19 1.46.51 1.95 1.57 1.12-.66.96-.19 1.19.84 1.96c.88.87 6.46 3.6 8.63 4.21l.48.21 2.47.78 2.22 1.28 4.03 2.02c.09 2.07.25 4.59.47 7.24h.04c.46 5.54 1.21 11.48 2.24 14.26.81 2.14 1.84 5.58 3.77 8.38 2.84 4.11 6.43 13.41 6.43 13.41-.5 4.27-1.32 5.82-2.53 7.91l.22.86.88-.24c1.35-2.32 2.21-4.19 2.7-8.63 3.07-3.22 5.51-13.09 8.08-20.87l1.03-2.86.01.03 3.66-10.23-.39-.81zm-13.27 30.17c-1.11-2.56-3.07-7.47-4.97-10.26-1.9-2.73-3.67-5.3-4.43-7.31-1.43-3.84-2.31-14.15-2.65-20.57l1.95.64.77.13.44.07h.6c.91 9.74 3.09 18.98 6.28 26.6l-.02-.01c1.93 4.23 2.17 8.79 2.03 10.71zm.81-9.97c-3.63-7.93-6.15-17.9-7.04-28.52l-1.15-1.01-1.37.01-.86-.15-2.69-.94-3.97-1.96-2.27-1.31-.23-.13-.63-.23-1.66-.45-.89-.37c-2.25-.63-7.13-3.18-7.67-3.66l-.19-.36.12-.64.86-.71.79-.97.01-.1-.63-1.01-2.39-1.85.14-.86 1.23-.77 1.05-.85.05-.3-.51-.94-1.96-1.65.03-1.9c.12-.47.31-1.11 2.28-.93l1.25-.79-.41-1.28c-1.18-.68-1.88-1.3-2.14-1.9l1.15-3.13c.86-.5 1.48-.29 5.04 1.3l1.59.68 3.82 1.2 2.33.54.97-.23.43-.85s-.04-2.11-.09-3.64c4.4 1.31 8.13 5.22 9.66 7.87l.88 1.54c1.22 2.14 1.74 3.05 3.48 4.77l.58.59c2.11 1.98 5.64 5.31 7.3 16.35-.34 6.5-1.08 12.86-2.2 18.23-1.01 4.06-2.43 7.83-4.09 11.31z"/><path d="m306.94 231.24-1.55.39 6.48 2.15.84-.36-.32-.81-4.1-1.99m-15.05 10.19.56 1.23c3.9.88 11.03 2.34 12.35 3.29l.9-.15-.16-.88c-1.69-1.2-8.61-2.88-12.82-4.48m.34-5.64.31 1.29c3.47.61 10.27 2.54 12.37 3.93l.87-.19-.18-.86c-2.23-1.49-9.28-3.79-12.6-5.2m-1.44 13.21c-.1.33-1.27 2.45.37 1.52 1.62-.94 11.34 2.6 11.86 2.99l.87-.08.17-.42-.17-.41-12.17-4.49"/><path d="m168.94 214.8-.04.36c-.43-.8-3.19.62-5.24 2.57l-.08.02c-1.77 0-6.87 3.09-6.57 5.66.19 1.77 1.57 6.26 2.27 6.92l.41.32.08.02c-.37 4.1.32 12.03 3.57 14.96l2.42 1.24-.04-.03c1.24 1.22 1.4 3.49 1.41 4.89 0 15.84 2.65 32.65 7.56 39.04 4.54-8.97 8.54-22.97 8.54-40.5 0-4.94-1.31-4.35-1.31-8.1 1.8-3.12 4.04-6.41 3.81-9.18-.42-5.36-.13-8.01-.13-9.87 0-1.85 2.28-6.69 1.61-7.85-.5-.85-4.36-.41-6.54 2.6h-.01c0-19.75-2.95-23.55-5.47-23.55-.89 0-1.99.95-2.3 3.42l.01.01c-.83-1.53-1.73-2.07-2.58-2.07-1.48 0-3.58 2.7-1.48 10.89-.55 2.03-.29 5.2.16 7.33" fill="#fff"/><path d="m168.26 215.08-.22.45c-.15 1.45-.22 3.52.01 6.47l.69.59.57-.67c-.22-2.86.54-5.34.7-6.8l-.58-.69-.46.08m11.57 4.205c0 1.256-1.452 1.701-1.845 2.726a14.136 14.136 0 0 0-.962 6.402c.204 1.11-1.46 1.309-2.052 2.086-2.628 2.043-4.833 4.886-5.36 8.245-.035.638-.335 1.457.059 1.987.584.987 1.343-.519 1.111-1.162.305-3.369 2.512-6.246 5.15-8.217.714-.578 1.546-1.032 2.22-1.644.36-.763-.02-1.624.092-2.429-.005-1.62.278-3.246.877-4.747.213-1.242 1.475-1.833 2.428-2.45.959-.399-.305-1.77-.95-1.07l-.767.273zm-2.73 10.035.008.067zm-5.53-31.08-.49.34c.84 2.21.69 4.93 1.27 7.25l-.29 2.76c0 1.6.2 3.31.49 4.64l-.12.91c-.15 1.5-.46 4.28-.16 7.74l.67.57.58-.69c-.29-3.32.01-6.02.16-7.49l.11-1.16c-.46-2.2-.69-5.27-.2-7.18v-.31c-.74-2.96-.48-5.68-.26-7.55l-1.07-.39-.69.56zm.79 7.53.02-.15-.02.15z"/><path d="M163.33 218.68c-1.03.96-2.79 1.4-2.61 3.2.01.07.7 6.26 1.99 7.54l.27.29c1.37 1.37 2.68 2.68 4.29 3.33 1.79.72 3.09.72 3.8.01l.57-1.61c0-.78-.25-1.8-.71-3.03-.69-1.68-2.2-2.65-2.96-3.09l.02-1.14.82-1.14.43-.75.07-.31-.31-.56-.84.22-.44.76-.79 1.11-.17.56-.03 1.45.31.65c.53.31 2.13 1.24 2.7 2.72.99 2.46.6 3.14.46 3.26-.26.25-1.02.3-2.46-.29-1.37-.54-2.59-1.75-3.86-3.05l-.29-.28c-.56-.54-1.35-4.16-1.61-6.79-.1-.87 1.51-.8 2.92-2.15l-.68-.9"/><path d="m159.16 230.28.19.86c.15.12 3.9 2.53 5.73 1.69l.91-1.39.01-.35-.64-.62-.62.62v.27l-.21.32c-.72.34-2.94-.56-4.49-1.57"/><path d="m166.16 229.87-.31.28-.66 1.32.32.52.94-.52.23-.37.38-.34 1.17-.05c1.73.93 2.01 1.32 1.98 1.48l.49.73.75-.47c.26-1.31-1.36-2.17-2.44-2.74"/><path d="m161.21 229.82-.84 1.56.33.51.93-.51.36-.56 1.02.07.63.25 1.1.57.68.44.53-.61-1.82-1.56-.61-.26"/><path d="m173.31 196.31-2.07-.81-2.23 1.18c-.82 1.08-1.24 2.72-1.24 4.78 0 1.75.29 3.8.86 6.08l-.3 2.77c0 1.56.22 3.2.5 4.52-1.55.29-3.52 1.67-4.78 2.8-1.7.22-4.35 1.73-5.87 3.44l-1.38 3.02.02.35c.17 1.58 1.55 6.59 2.61 7.6l.12.1-.06 1.66c0 4.52.99 10.83 4.01 13.56l2.41 1.22c.48.51 1.03 1.62 1.04 4.06 0 14.73 2.4 32.72 7.78 39.71l.97.42.89-.6c3.22-6.39 8.66-20.19 8.66-41 0-2.81-.41-4.01-.8-5.05-.25-.76-.46-1.46-.5-2.8l.55-.92c1.61-2.7 3.27-5.51 3.27-8.14l-.02-.46c-.19-2.23-.22-3.99-.22-5.41l.05-2.8.04-1.56c0-.63.41-1.99.78-3.19.55-1.74.94-3.06.94-4.06l-.27-1.16c-.23-.4-.74-.87-1.86-.94-1.31-.06-3.04.49-4.58 1.58-.2-15.01-2.29-22.14-6.53-22.14-.95 0-2.07.64-2.79 2.19m.71 3.41.87-.95c.24-1.84.92-2.44 1.21-2.44 1.03 0 4.39 1.62 4.39 22.44 0 .49.5 2.19 1.95.63 1.84-1.95 3.95-2.58 4.71-2.48l-.85 3.27c-.46 1.48-.88 2.89-.88 3.84l-.05 1.5c-.03.79-.06 1.71-.06 2.86 0 1.47.06 3.28.24 5.6l.01.28c0 2.03-1.49 4.55-2.96 7.01l-.73 1.22-.13.57c0 1.94.32 2.88.64 3.78.33.93.67 1.87.67 4.32 0 18.63-4.4 31.39-7.57 38.19-3.82-6.62-6.34-20.83-6.34-36.73 0-2.63-.58-4.54-1.72-5.68l-.49-.27-1.94-.95c-2.38-2.16-3.29-6.17-3.29-10.36l.01-2.48.15-1.33-.91-.54-.4-.61c-.43-.54-1.35-4.5-1.55-6.22l-.01-.08.84-1.57c1.45-1.61 3.91-2.79 4.66-2.79l.82-.32c1.74-1.63 3.56-2.5 4.02-2.49l-.49-.35 1.2.49.87-1.03.04-.23s-.4-4.05-.4-5.55l.27-2.52.03-.27-.03-.29c-.64-2.49-.84-4.34-.84-5.7 0-2.19.52-3.14.77-3.45l.49-.35 1.6 1.49 1.18.54z"/><path d="m495.12 4.377-13.76 317.65c-5 126.94-103.8 230.11-231.36 230.11S23.64 448.967 18.64 322.027L4.882 4.377z" stroke="#000" stroke-width="8" fill="none"/></svg>