<svg xmlns="http://www.w3.org/2000/svg" width="744.9" height="824.49" viewBox="0 0 744.895 824.492"><g fill-rule="evenodd"><path d="m5.816 5.5 28.1 504.49.463.42a338.527 320.907 0 0 0 338.066 308.586 338.527 320.907 0 0 0 337.868-308.408l.658-.598L739.08 5.5H5.82" fill="#fff"/><g stroke="#000"><path d="M97.516 526.34c-13.268 0-26.992 12.168-31.19 24.783-6.878 20.672 23.438 42.559 16.561 63.23-2.703 8.123-9.357 16.06-17.295 20.68a338.527 320.907 0 0 0 68.348 92.025c4.959 1.694 10.03 2.762 15.279 2.762 26.333 0 48.07-26.598 74.41-26.598 26.333 0 48.08 26.598 74.41 26.598 26.333 0 48.08-26.598 74.41-26.598 26.334 0 48.08 26.598 74.41 26.598 26.333 0 48.08-26.598 74.41-26.598 26.333 0 48.08 26.598 74.41 26.598 5.294 0 10.4-1.085 15.398-2.803a338.527 320.907 0 0 0 67.806-92.234c-7.749-4.657-14.215-12.452-16.869-20.43-6.877-20.672 23.441-42.558 16.563-63.23-4.197-12.615-17.923-24.783-31.19-24.783-13.268 0-26.994 12.168-31.19 24.783-6.878 20.672 23.44 42.559 16.563 63.23-4.197 12.616-17.924 24.785-31.19 24.785-13.268 0-26.994-12.17-31.19-24.785-6.877-20.672 23.441-42.559 16.563-63.23-4.198-12.615-17.925-24.783-31.19-24.783-13.268 0-26.992 12.168-31.19 24.783-6.878 20.672 23.438 42.559 16.561 63.23-4.197 12.616-17.924 24.785-31.19 24.785-13.268 0-26.992-12.17-31.19-24.785-6.877-20.672 23.441-42.559 16.563-63.23-4.198-12.615-17.925-24.783-31.19-24.783-13.268 0-26.994 12.168-31.19 24.783-6.878 20.672 23.44 42.559 16.563 63.23-4.197 12.616-17.924 24.785-31.19 24.785-13.268 0-26.994-12.17-31.19-24.785-6.877-20.672 23.441-42.559 16.563-63.23-4.198-12.615-17.925-24.783-31.19-24.783-13.268 0-26.992 12.168-31.19 24.783-6.878 20.672 23.438 42.559 16.561 63.23-4.197 12.616-17.922 24.785-31.19 24.785s-26.994-12.17-31.19-24.785c-6.877-20.672 23.441-42.559 16.563-63.23-4.198-12.615-17.925-24.783-31.19-24.783-13.268 0-26.994 12.168-31.19 24.783-6.878 20.672 23.44 42.559 16.563 63.23-4.197 12.616-17.924 24.785-31.19 24.785-13.268 0-26.993-12.17-31.19-24.785-6.877-20.672 23.441-42.559 16.563-63.23-4.197-12.615-17.925-24.783-31.19-24.783-13.268 0-26.994 12.168-31.19 24.783-6.878 20.672 23.442 42.558 16.564 63.23-4.197 12.616-17.924 24.785-31.19 24.785-13.268 0-26.994-12.17-31.19-24.785-6.877-20.672 23.441-42.559 16.563-63.23-4.198-12.615-17.925-24.783-31.19-24.783z" fill="red" stroke-width="8"/><path d="m5.816 5.5 28.1 504.49.463.42a338.527 320.907 0 0 0 338.066 308.586 338.527 320.907 0 0 0 337.868-308.408l.658-.598L739.08 5.5H5.82z" fill="none" stroke-width="11"/></g><path d="M107.466 21.93c-7.443-.101-14.766 2.059-21.914 4.227-7.625 2.312-15.415 4.684-23.377 4.387-3.086-.115-6.143-.631-9.174-1.223-1.113-.217-2.239-.446-3.371-.383a5.25 5.25 0 0 0-1.658.348 3.736 3.736 0 0 0-1.393.951c-.395.44-.663.986-.811 1.559a5.208 5.208 0 0 0-.125 1.76c.104 1.178.524 2.3.936 3.408 1.864 5.02 3.633 10.09 4.893 15.289 1.79 7.395 2.537 14.997 3.85 22.492 1.312 7.495 3.242 15.01 7.158 21.537 4.881 8.132 12.684 14.31 21.404 18.04 5.771 2.47 12.13 3.933 18.346 3.057 5.202-.733 10.205-3.163 13.76-7.03 3.555-3.868 5.563-9.118 5.502-14.371a68.907 68.907 0 0 0 12.844 2.445c9.674.905 19.553-.232 29.05 1.834a43.994 43.994 0 0 1 16.816 7.645 90.416 90.416 0 0 0-13.453 17.734c-6.159 10.624-10.1 22.456-12.23 34.551a125.078 125.078 0 0 0-1.834 18.04 44.315 44.315 0 0 0-15.901-7.033 23.602 23.602 0 0 0 3.059-12.842c-.367-7.089-4.02-13.77-9.174-18.65-5.273-4.993-12.154-8.269-19.359-9.176-7.205-.907-14.694.564-21 4.162-5.878 3.353-10.581 8.379-15.455 13.07-4.874 4.695-10.208 9.242-16.67 11.252-4.55 1.415-9.516 1.519-13.789 3.629-.906.448-1.777.987-2.496 1.697-.719.711-1.281 1.604-1.488 2.594-.215 1.024-.042 2.101.336 3.076.378.975.953 1.86 1.559 2.713 3.307 4.653 7.627 8.482 11.313 12.842 5.564 6.581 9.611 14.279 14.293 21.514 4.682 7.235 10.243 14.229 17.791 18.387 5.852 3.223 12.682 4.558 19.344 4.055 6.662-.503 13.146-2.811 18.783-6.396 3.715-2.363 7.093-5.291 9.754-8.799 2.661-3.507 4.589-7.604 5.344-11.941.84-4.829.192-9.908-1.834-14.371a40.314 40.314 0 0 1 12.842 8.254c9.21 8.796 13.667 21.292 19.875 32.412a108.697 108.697 0 0 0 7.949 12.23 355.16 355.16 0 0 0-35.469 82.863 55.43 55.43 0 0 0-15.897-17.734c7.647-4.537 12.921-12.857 13.76-21.709.798-8.425-2.308-16.975-7.645-23.543-7.498-9.228-19.278-14.626-31.16-15.01-12.409-.405-24.711 4.281-37.04 2.842-4.194-.489-8.299-1.683-12.516-1.895-1.314-.066-2.644-.034-3.922.275-1.278.31-2.509.913-3.416 1.865-1 1.053-1.557 2.477-1.748 3.918-.191 1.441-.041 2.907.219 4.338.933 5.144 3.244 9.93 4.586 14.982 2.771 10.427 1.326 21.574 3.67 32.11 2.339 10.508 8.544 20.1 17.12 26.602 6.983 5.294 15.721 8.583 24.461 7.949 5.999-.435 11.943-2.787 16.205-7.03a22.165 22.165 0 0 0 6.115-11.619 67.92 67.92 0 0 1 9.924 13.945c6.488 12.1 9.15 25.879 10.699 39.525 1.549 13.646 2.074 27.435 4.68 40.92a134.657 134.657 0 0 0 8.578 27.801 71.077 71.077 0 0 0-8.873-1.775 71 71 0 0 0-11.83-.59c4.97-5.715 7.939-13.14 8.281-20.703.438-9.694-3.496-19.454-10.352-26.322-6.941-6.953-16.798-10.905-26.619-10.648-6.633.174-13.06 2.159-19.451 3.951-6.389 1.792-12.977 3.419-19.588 2.852-4.268-.366-8.435-1.643-12.717-1.775-.946-.029-1.9 0-2.822.211-.922.212-1.816.619-2.502 1.27-.595.564-1.018 1.297-1.258 2.08-.24.783-.301 1.615-.232 2.432.137 1.633.783 3.178 1.49 4.656 2.21 4.616 5.105 8.892 7.098 13.605 2.69 6.364 3.644 13.303 4.613 20.14.97 6.841 2.01 13.78 4.852 20.08 4.117 9.126 11.848 16.328 20.703 20.998 6.451 3.403 13.726 5.585 20.998 5.03 3.74-.287 7.444-1.306 10.711-3.148 3.267-1.843 6.085-4.522 7.922-7.793a18.885 18.885 0 0 0 2.365-10.352 33.35 33.35 0 0 1 11.535 1.182c10.07 2.868 18.19 10.29 25.04 18.215 6.844 7.925 12.876 16.646 20.803 23.488 7.092 6.122 15.813 10.654 25.14 11.533 8.693.819 17.602-1.629 24.844-6.506 7.338-4.942 12.84-12.12 17.955-19.34 5.115-7.218 10.05-14.692 16.648-20.588a51.46 51.46 0 0 1 24.547-12.12c.244 5.547 2 11.02 5.03 15.674 2.565 3.942 6.05 7.303 10.145 9.609 4.099 2.306 8.815 3.541 13.516 3.404 4.922-.143 9.742-1.776 13.951-4.332s7.827-6.01 10.893-9.863c7.213-9.07 11.4-20.401 12.422-31.943.421-4.754.323-9.54.693-14.299.37-4.759 1.238-9.566 3.447-13.797 2.276-4.361 5.926-8.02 7.393-12.719.3-.961.504-1.956.529-2.963.025-1.01-.133-2.026-.529-2.951-.706-1.648-2.163-2.925-3.844-3.549-2.334-.867-4.915-.522-7.395-.297-16.53 1.504-33.11-2.877-49.688-2.07-5.876.286-11.789 1.246-17.17 3.627-5.379 2.381-10.211 6.276-12.998 11.457-2.457 4.569-3.218 9.903-2.959 15.08.263 5.254 1.555 10.502 4.141 15.08a28.89 28.89 0 0 0 5.324 6.801 78.594 78.594 0 0 0-13.01 4.438 78.494 78.494 0 0 0-8.576 4.436 226.898 226.898 0 0 0 5.322-28.393c2.754-22.529 2.208-45.84 10.06-67.14a89.438 89.438 0 0 1 14.492-25.436 23.628 23.628 0 0 0 7.395 10.352c5.568 4.469 12.977 6.185 20.11 5.916 4.774-.18 9.534-1.2 13.885-3.174 4.351-1.974 8.283-4.915 11.254-8.656 5.697-7.175 7.483-16.635 8.576-25.73a257.625 257.625 0 0 0 1.775-26.03c.123-6.709.026-13.592 2.338-19.891.422-1.149.925-2.279 1.15-3.482a5.925 5.925 0 0 0 .078-1.826 4.022 4.022 0 0 0-.609-1.715c-.488-.737-1.249-1.263-2.068-1.594-.82-.331-1.701-.483-2.578-.592-6.989-.869-14.04.755-21.08.707-11.02-.075-21.85-4.237-32.828-3.254-9.17.822-17.798 5.275-24.549 11.535-3.235 2.999-6.101 6.441-8.143 10.352-2.042 3.91-3.238 8.308-3.096 12.717.233 7.243 4.1 14.06 9.465 18.93a35.286 35.286 0 0 0 12.717 7.393 33.028 33.028 0 0 0-11.83 7.689 33.074 33.074 0 0 0-7.986 13.311 296.878 296.878 0 0 0-17.449-46.14 296.398 296.398 0 0 0-21.59-37.857 64.898 64.898 0 0 0 7.689-10.05c6.01-9.69 9.537-21.07 17.449-29.28a36.09 36.09 0 0 1 17.746-10.05c-1.536 5.735-1.113 11.975 1.184 17.449 2.27 5.411 6.318 10.01 11.246 13.201 4.928 3.186 10.704 4.978 16.555 5.432 11.67.905 23.577-3.642 31.941-11.83 8.153-7.981 12.769-18.789 18.928-28.393 3.727-5.813 8.05-11.219 12.422-16.563.87-1.063 1.754-2.141 2.326-3.391a6.39 6.39 0 0 0 .563-1.973 4.544 4.544 0 0 0-.227-2.031c-.374-1.025-1.162-1.86-2.068-2.467-.907-.607-1.933-1.01-2.959-1.377-5.641-2.037-11.597-3.331-16.857-6.211-5.04-2.761-9.213-6.853-13.227-10.971-4.01-4.117-7.992-8.355-12.801-11.508-6.01-3.942-13.22-6.04-20.408-5.914-8.737.153-17.407 3.657-23.66 9.76-3.053 2.979-5.538 6.561-7.117 10.523-1.58 3.963-2.241 8.307-1.756 12.545a24.318 24.318 0 0 0 6.508 13.9 64.71 64.71 0 0 0-17.449 2.957 68.534 68.534 0 0 0-2.662-23.07c-3.169-10.793-8.953-20.639-15.381-29.871a222.229 222.229 0 0 0-11.238-14.787 54.576 54.576 0 0 1 12.422-6.211c9.765-3.409 20.252-3.969 30.463-5.621 6.095-.986 12.13-2.37 18.04-4.141a17.682 17.682 0 0 0 1.775 11.535c1.382 2.577 3.406 4.787 5.764 6.516s5.04 2.984 7.842 3.836c8.731 2.659 18.395 1.299 26.617-2.662 8.283-3.991 15.391-10.738 18.928-19.225 2.516-6.04 3.168-12.674 3.469-19.21.3-6.533.283-13.12 1.561-19.537 1.081-5.423 3.07-10.623 5.322-15.674.508-1.139 1.034-2.287 1.246-3.516a5.672 5.672 0 0 0 .033-1.861 4.028 4.028 0 0 0-.688-1.723 4.043 4.043 0 0 0-1.387-1.184 5.743 5.743 0 0 0-1.742-.572c-1.21-.205-2.449-.1-3.674-.018-4.04.272-8.091.299-12.12 0-10.964-.812-21.618-4.01-32.533-5.324-6.594-.794-13.342-.889-19.816.592-6.483 1.483-12.635 4.58-17.449 9.168-5.482 5.224-9.163 12.539-9.168 20.11-.003 4.455 1.257 8.898 3.549 12.719a25.544 25.544 0 0 0 10.646 9.76 162.91 162.91 0 0 1-11.83 2.365c-12.905 2.088-26.09 2.631-38.744 5.916a91.864 91.864 0 0 0-22.316 9.06 61.465 61.465 0 0 0-22.32-8.256c-13.145-2.105-26.815.09-39.75-3.057a49.327 49.327 0 0 1-9.479-3.363c7.641-3.01 13.577-10.01 15.289-18.04.952-4.464.653-9.164-.676-13.531-1.328-4.367-3.669-8.401-6.662-11.848-6.202-7.141-15.324-11.708-24.768-12.23a35.363 35.363 0 0 0-1.49-.051m94.22 102.73a99.016 99.016 0 0 1 9.775 15.914c4.213 8.576 7.205 17.954 7.05 27.508-.139 8.374-2.697 16.569-6.365 24.1a84.55 84.55 0 0 1-10.457 16.367 84.58 84.58 0 0 1-10.457-16.367c-3.668-7.529-6.226-15.724-6.365-24.1-.158-9.554 2.834-18.931 7.05-27.508a99.546 99.546 0 0 1 9.775-15.914m1.391 155.06c5.432 10.594 10.181 21.941 14.164 33.842 6.104 18.239 10.44 38.18 10.211 58.5-.201 17.808-3.908 35.23-9.223 51.25-4.118 12.406-9.213 24.11-15.15 34.807-5.939-10.698-11.03-22.401-15.15-34.807-5.315-16.01-9.02-33.438-9.223-51.25-.23-20.317 4.107-40.26 10.211-58.5 3.983-11.901 8.732-23.25 14.164-33.842"/><path d="M104.55 27.16a34.39 34.39 0 0 0-2.338.008c-9.928.365-19.213 4.836-28.971 6.703a55.977 55.977 0 0 1-22.05-.217 96.904 96.904 0 0 1 6.27 17.514c1.923 7.61 2.912 15.42 4.479 23.11 1.566 7.691 3.759 15.375 7.846 22.08 4.825 7.911 12.545 14.338 21.619 16.215 5.773 1.194 12.04.455 17.08-2.594 1.981-1.197 3.774-2.752 5.05-4.682 1.278-1.93 2.02-4.253 1.865-6.563-.152-2.298-1.168-4.468-2.508-6.34-1.34-1.872-3-3.487-4.627-5.119-.285-.286-.562-.581-.846-.869a23.117 23.117 0 0 1-1.625 4.844c-1.314 2.821-3.2 5.367-5.459 7.508a26.846 26.846 0 0 1-5.461 3.996 32.66 32.66 0 0 0 4.777-5.85 34.515 34.515 0 0 0 3.314-6.727 36.75 36.75 0 0 0 1.717-6.586 483.916 483.916 0 0 1-5.354-5.729 20.136 20.136 0 0 1-1.572 5.168c-1.134 2.446-2.761 4.656-4.713 6.516a23.08 23.08 0 0 1-4.713 3.469 28.335 28.335 0 0 0 4.123-5.076 30.035 30.035 0 0 0 2.861-5.838 31.958 31.958 0 0 0 1.65-6.795c-.928-1.01-1.857-2.01-2.789-3.02a14.358 14.358 0 0 1-.939 2.836 15.183 15.183 0 0 1-3.256 4.582 16.108 16.108 0 0 1-3.254 2.439 19.965 19.965 0 0 0 2.848-3.57 21.342 21.342 0 0 0 1.977-4.105 22.41 22.41 0 0 0 1-3.908 295.631 295.631 0 0 0-3.67-3.838c-.17.659-.385 1.305-.664 1.926a12.605 12.605 0 0 1-2.666 3.803 13.214 13.214 0 0 1-2.664 2.023 16.528 16.528 0 0 0 2.332-2.963 17.736 17.736 0 0 0 1.617-3.406c.313-.886.553-1.797.732-2.719-2.873-2.903-5.819-5.729-8.93-8.383a112.593 112.593 0 0 0-18.377-12.756A64.64 64.64 0 0 1 82.747 56.14c5.71 4.666 10.566 10.265 15.652 15.604 5.086 5.339 10.511 10.502 16.994 14.02 10.475 5.676 22.764 6.589 34.594 8 11.449 1.366 23.04 3.374 33.29 8.648 8.704 4.478 16.14 11.181 22.27 18.811 9.01 11.212 15.424 24.799 16.648 39.13.841 9.848-.77 19.812-3.893 29.19a92.787 92.787 0 0 1-13.188 25.512l8.568 12.277a116.272 116.272 0 0 0 6.74-8.768 126.548 126.548 0 0 0 5.459-8.578 40.072 40.072 0 0 1-1.949 7.799c-1.302 3.615-3.118 7.02-5.07 10.334a133.922 133.922 0 0 1-2.166 3.531l2.904 4.16a327.771 327.771 0 0 1 11.459-23.35c3.73-6.895 7.802-13.774 13.621-19.03 6.659-6.01 15.331-9.559 24.21-10.811 11.443-1.612 23.279.406 34.535-2.207 7.11-1.651 13.658-5.078 20.16-8.387 4.19-2.131 8.515-4.261 13.189-4.756a19.861 19.861 0 0 1 8.217.863 40.734 40.734 0 0 0-10.811 2.379c-5.51 2.03-10.503 5.22-15.625 8.092-.801.449-1.613.886-2.43 1.316-.002.335-.008.671.006 1.01.032.79.107 1.579.262 2.354.153.765.385 1.515.688 2.234a9.161 9.161 0 0 1-1.752-5.182 54.886 54.886 0 0 1-5.494 2.475 31.122 31.122 0 0 0-.016 2.914c.062 1.318.208 2.634.502 3.92a17.41 17.41 0 0 0 1.309 3.721 14.462 14.462 0 0 1-1.902-2.906 13.894 13.894 0 0 1-1.371-4.666 13.194 13.194 0 0 1-.035-2.434c-1.998.669-4.04 1.176-6.141 1.426a30.81 30.81 0 0 1-2.572.182 40.128 40.128 0 0 0-.014 4.03c.088 1.79.298 3.578.715 5.32a22.774 22.774 0 0 0 1.863 5.05 19.383 19.383 0 0 1-2.711-3.945c-1.022-1.972-1.704-4.125-1.953-6.332a17.164 17.164 0 0 1 .051-4.102c-2.297-.03-4.6-.19-6.902-.297a53.65 53.65 0 0 0-.17 7.711c.129 2.5.433 4.996 1.035 7.426a30.87 30.87 0 0 0 2.699 7.05 26.846 26.846 0 0 1-3.928-5.508c-1.473-2.742-2.465-5.749-2.828-8.84a23.195 23.195 0 0 1 .445-7.926c-2.91-.012-5.879.269-8.6 1.188a43.713 43.713 0 0 0-.107 5.869c.099 1.984.337 3.967.805 5.898a25.005 25.005 0 0 0 2.092 5.6 21.435 21.435 0 0 1-3.045-4.373c-1.146-2.183-1.913-4.572-2.193-7.02-.19-1.663-.14-3.348.115-5-.477.25-.941.526-1.391.832a14.203 14.203 0 0 0-4.578 5.178 15.205 15.205 0 0 0-1.691 6.711c-.084 4.398 1.727 8.721 4.576 12.07 2.849 3.351 6.681 5.776 10.775 7.385 6.077 2.388 12.844 3.036 19.242 1.73 5.418-1.105 10.513-3.577 14.947-6.881 4.434-3.303 8.222-7.426 11.43-11.93 6.076-8.533 10.08-18.385 16-27.03a72.529 72.529 0 0 1 7.783-9.514 50.542 50.542 0 0 1-13.189-5.404c-8.506-4.99-15.343-12.333-23.13-18.379-3.547-2.753-7.32-5.252-11.414-7.096-4.094-1.844-8.528-3.02-13.02-3.064-5.87-.059-11.743 1.871-16.432 5.404-2.65 1.998-4.933 4.502-6.57 7.389-1.638 2.887-2.621 6.159-2.727 9.477-.159 5.01 1.82 10.14 5.621 13.404 2.515 2.159 5.672 3.431 8.863 4.324 4.497 1.259 9.169 1.838 13.838 1.945a70.09 70.09 0 0 0 11.242-.648c-3.721 2.877-8.491 4.362-13.188 4.107-4.933-.268-9.591-2.359-14.486-3.03-6.677-.909-13.45.881-19.676 3.459a78.835 78.835 0 0 0-17.08 9.729c.468-6.116.397-12.273-.215-18.377-1.253-12.487-4.793-24.763-10.596-35.891-5.488-10.524-13.02-20.02-22.27-27.459-8.249-6.634-17.859-11.611-28.11-14.27-18.01-4.674-37.26-2.13-55.35-6.486-6.913-1.665-13.632-4.357-19.459-8.432a46.609 46.609 0 0 1-14.918-17.297 50.24 50.24 0 0 0 11.891 9.729c3.344 1.968 6.97 3.562 10.811 4.109 2.518.359 5.11.258 7.572-.383 2.462-.64 4.79-1.827 6.697-3.51 2.228-1.966 3.848-4.581 4.77-7.406.921-2.825 1.158-5.853.852-8.809-.452-4.367-2.089-8.59-4.594-12.195-2.505-3.606-5.866-6.596-9.676-8.777-4.733-2.709-10.153-4.164-15.607-4.332m190.9.563c-.856 0-1.712.021-2.57.061-8.06.376-16.228 2.691-22.473 7.797-2.541 2.078-4.739 4.605-6.275 7.506-1.536 2.901-2.396 6.182-2.287 9.463.173 5.192 2.755 10.09 6.27 13.914 1.398 1.523 2.958 2.913 4.729 3.98 1.77 1.068 3.76 1.805 5.82 1.98 2.917.248 5.846-.645 8.398-2.08 2.552-1.435 4.769-3.39 6.889-5.41a116.764 116.764 0 0 0 9.785-10.549 37.996 37.996 0 0 1-8.715 12.994c-4.655 4.531-10.43 7.806-16.512 10.09-6.444 2.42-13.237 3.763-20.03 4.893-10.466 1.741-21.03 3-31.34 5.504a133.357 133.357 0 0 0-22.17 7.492 28.45 28.45 0 0 1 8.408 7.031 86.589 86.589 0 0 1 17.275-6.42c14.641-3.725 30.23-3.616 44.34-9.02 8.66-3.319 16.474-8.637 23.24-14.982 7.283-6.833 13.403-14.857 20.945-21.402a73.036 73.036 0 0 1 20.486-12.537 48.4 48.4 0 0 0-18.957 15.289c-3.107 4.203-5.512 8.862-8.04 13.443a7.544 7.544 0 0 0 1.52 2.107 8.728 8.728 0 0 0 2.746 1.822 5.807 5.807 0 0 1-3.158-.91c-.718-.46-1.307-1.089-1.781-1.799-1.095 1.948-2.222 3.875-3.461 5.732a50.404 50.404 0 0 1-2.295 3.168c.49.891 1.112 1.714 1.842 2.424a11.826 11.826 0 0 0 3.729 2.449 7.899 7.899 0 0 1-4.287-1.225c-.941-.598-1.736-1.4-2.371-2.316-1.357 1.586-2.834 3.062-4.467 4.361-.546.435-1.115.841-1.695 1.232.674 1.472 1.665 2.802 2.832 3.93a15.482 15.482 0 0 0 4.877 3.184 10.359 10.359 0 0 1-5.609-1.592c-1.683-1.064-3.02-2.617-3.938-4.391a22.331 22.331 0 0 1-3.52 1.572 13.366 13.366 0 0 0 .477 3.98c.767 2.748 2.414 5.203 4.471 7.182a20.255 20.255 0 0 0 6.383 4.15 13.584 13.584 0 0 1-7.342-2.076c-2.845-1.792-4.959-4.645-6.06-7.82a16.84 16.84 0 0 1-.906-4.639c-.223.04-.443.09-.668.121a18.374 18.374 0 0 1-3.516.154 24.736 24.736 0 0 0-.283 3.049c-.075 2.5.236 5.02 1.031 7.395.796 2.372 2.084 4.59 3.838 6.373 2.885 2.934 6.921 4.567 11.01 5.04 7.02.821 14.13-1.607 20.03-5.504 6.808-4.499 12.336-11.09 14.982-18.805 3.567-10.404 1.76-21.836 3.363-32.717a52.484 52.484 0 0 1 6.879-19.264 84.78 84.78 0 0 1-13.605-.152c-12.829-1.179-25.416-5.277-38.25-5.258m-109.78 81.82a79.412 79.412 0 0 0-14.486 17.514c-8.03 13.168-12.06 28.509-13.188 43.889-.357 4.891-.43 9.804-.217 14.703a56.946 56.946 0 0 0-14.486-8.217c-4.235-1.637-8.674-2.765-13.189-3.242a44.577 44.577 0 0 0-9.246-.031c-5.154.53-10.219 2.01-15.4 1.977a26.52 26.52 0 0 1-11.242-2.594c3.892.051 7.782.051 11.674 0 4.107-.053 8.245-.168 12.254-1.059 4.01-.891 7.923-2.612 10.842-5.502 2.207-2.185 3.8-5.057 4.146-8.143.296-2.64-.325-5.334-1.496-7.719-1.171-2.384-2.874-4.476-4.773-6.334-2.904-2.84-6.32-5.184-10.1-6.67-3.78-1.486-7.929-2.096-11.953-1.547-4.626.631-8.936 2.754-12.799 5.375-3.863 2.621-7.349 5.75-10.984 8.68-7.43 5.988-15.611 11.204-24.648 14.27a59.131 59.131 0 0 1-11.03 2.594 71.095 71.095 0 0 1 10.162 10.811c6.354 8.362 10.782 18.03 16.863 26.594 3.078 4.334 6.598 8.396 10.783 11.672 4.186 3.276 9.07 5.751 14.297 6.705 8.317 1.518 17.09-.963 24-5.836 2.46-1.736 4.722-3.777 6.547-6.172 1.825-2.395 3.204-5.153 3.83-8.098 1.109-5.218-.268-10.86-3.459-15.13-1.23-1.648-2.737-3.122-4.541-4.109-1.871-1.024-4.01-1.495-6.145-1.564-.256-.008-.512.005-.768.008.475 1.03.929 2.07 1.334 3.129 1.416 3.705 2.405 7.643 2.211 11.605a20.193 20.193 0 0 1-4.422 11.607 35.321 35.321 0 0 0 1.105-14.369c-.351-2.695-1.029-5.388-2.395-7.738a14.561 14.561 0 0 0-2.963-3.6c-.147.032-.295.06-.441.094-2.067.484-4.097 1.133-6.135 1.736.097.246.201.489.293.736.946 2.556 1.604 5.262 1.473 7.984a14.276 14.276 0 0 1-2.945 7.986 25.227 25.227 0 0 0 .736-9.887c-.231-1.85-.678-3.701-1.596-5.324a9.76 9.76 0 0 0-.508-.797c-1.221.315-2.449.595-3.699.771a27.023 27.023 0 0 1-4.209.248c.421 1.454.679 2.955.607 4.463a10.63 10.63 0 0 1-2.039 5.754c.618-2.313.791-4.745.51-7.123-.129-1.086-.368-2.166-.797-3.168-3-.224-5.975-.891-8.879-1.846a9.09 9.09 0 0 1 .152 2.049 7.82 7.82 0 0 1-1.342 4.02c.403-1.622.518-3.315.336-4.977a9.595 9.595 0 0 0-.279-1.502 61.95 61.95 0 0 1-7.195-3.107 87.037 87.037 0 0 1-14.27-9.08 157.996 157.996 0 0 0 15.783 5.404c7.948 2.26 16.18 3.905 24.432 3.461 7.529-.405 14.956-2.541 22.486-2.162 6.968.35 13.709 2.867 19.674 6.486 7.503 4.553 13.877 10.84 19.03 17.945 6.279 8.662 10.753 18.475 16.215 27.674 8.238 13.874 18.699 26.309 27.24 39.998 9.202 14.744 16.14 30.914 20.324 47.781 4.325 17.414 5.715 35.464 5.404 53.4-.389 22.441-3.439 44.895-9.945 66.37-1.062 3.505-2.221 6.998-3.852 10.277-1.63 3.28-3.754 6.358-6.527 8.75-2.477 2.137-5.593 3.73-8.863 3.676-2.743-.045-5.374-1.25-7.523-2.953-2.15-1.703-3.869-3.887-5.449-6.129-8.179-11.599-13.14-25.23-16-39.13a152.702 152.702 0 0 1-3.03-25.945c-.389-12.446.701-24.915 2.813-37.19 1.631-9.48 3.869-18.85 6.484-28.11 3.477-12.309 7.62-24.428 12.324-36.32a404.593 404.593 0 0 1 6.92-16.432l-17.08-22.27a375.967 375.967 0 0 0-21.19 45.4 375.116 375.116 0 0 0-15.352 49.51 61.995 61.995 0 0 0-13.836-22.05c-6.379-6.544-14.11-11.578-21.404-17.08a196.802 196.802 0 0 1-24.22-21.621 83.9 83.9 0 0 1 20.11 13.838c1.769 1.645 3.482 3.377 5.502 4.703 2.02 1.326 4.417 2.233 6.822 2 1.805-.175 3.507-.983 4.967-2.059 1.46-1.076 2.703-2.415 3.898-3.779 2.93-3.344 5.72-7.079 6.486-11.459.591-3.38-.095-6.897-1.479-10.04-1.384-3.14-3.437-5.939-5.656-8.557-4.528-5.341-9.944-10.123-16.432-12.758-4.993-2.027-10.462-2.713-15.848-2.527-5.385.185-10.708 1.219-15.936 2.527-6.115 1.53-12.323 3.458-18.594 2.811a23.183 23.183 0 0 1-11.242-4.322 40.536 40.536 0 0 1 4.324 12.11c2.044 11.02-.535 22.497 1.512 33.512 1.752 9.43 6.875 18.04 13.621 24.863 3.111 3.145 6.601 5.963 10.551 7.953 3.95 1.991 8.386 3.13 12.801 2.857 5.24-.323 10.412-2.763 13.621-6.918 1.139-1.475 2.028-3.153 2.533-4.947.505-1.794.619-3.706.252-5.533-.43-2.139-1.506-4.118-2.912-5.787a17.197 17.197 0 0 0-.861-.93c-.015.058-.026.116-.041.174-.579 2.202-1.422 4.369-2.795 6.186a12.36 12.36 0 0 1-5.75 4.189 22.02 22.02 0 0 0 5.172-6.502c.721-1.377 1.301-2.853 1.453-4.4.046-.465.04-.932.008-1.398a28.129 28.129 0 0 0-2.148-1.551c-1.327-.861-2.715-1.622-4.111-2.369a30.878 30.878 0 0 1-.357 1.531c-.579 2.202-1.422 4.369-2.795 6.186a12.365 12.365 0 0 1-5.75 4.188 22.038 22.038 0 0 0 5.172-6.5c.721-1.377 1.301-2.853 1.453-4.4a8.408 8.408 0 0 0-.102-2.289c-1.399-.75-2.784-1.521-4.111-2.387-.516 1.76-1.229 3.472-2.33 4.934a11.246 11.246 0 0 1-5.221 3.82 20.126 20.126 0 0 0 4.697-5.928c.639-1.227 1.151-2.54 1.303-3.914-2.151-1.601-4.084-3.469-5.852-5.496-.504 1.327-1.134 2.602-1.988 3.732a12.206 12.206 0 0 1-5.676 4.137 21.775 21.775 0 0 0 5.105-6.42c.51-.975.94-2 1.203-3.066a69.031 69.031 0 0 1-2.641-3.516 117.853 117.853 0 0 1-2.238-3.313c-.55 1.667-1.287 3.27-2.342 4.666a12.36 12.36 0 0 1-5.75 4.189 22.02 22.02 0 0 0 5.172-6.502c.721-1.377 1.301-2.853 1.453-4.4a1.286 1.286 0 0 0 0-.215c-1.598-2.492-3.183-4.992-4.889-7.41a87.61 87.61 0 0 0-11.893-13.621 52.027 52.027 0 0 1 15.352 11.244c7.06 7.517 11.822 17.07 19.459 23.998 8.02 7.284 18.688 11.182 26.594 18.594 7.994 7.494 12.495 17.942 15.998 28.324 3.46 10.257 6.168 20.807 7.352 31.566 2.147 19.523-.657 39.917 6.05 58.37 2.176 5.983 5.303 11.587 8.863 16.865a114.215 114.215 0 0 0 6.27 8.432 42.381 42.381 0 0 0-18.809-10.594c-7.314-1.899-15.07-1.817-22.27-4.109-7.72-2.458-14.347-7.504-20.324-12.973a140.301 140.301 0 0 1-15.13-16.215 59.85 59.85 0 0 1 17.945 13.838c1.716 1.945 3.318 4.01 5.299 5.688 1.981 1.675 4.431 2.954 7.03 2.961 2.382.006 4.683-1.075 6.465-2.656 1.782-1.581 3.089-3.634 4.129-5.777 2.109-4.345 3.209-9.295 2.379-14.05-.614-3.52-2.261-6.808-4.428-9.648-2.167-2.841-4.845-5.257-7.68-7.432-5.929-4.547-12.867-8.179-20.324-8.648-4.807-.303-9.601.719-14.229 2.053-4.628 1.334-9.171 2.988-13.879 4a52.847 52.847 0 0 1-23.13-.217 34.92 34.92 0 0 1 7.35 11.242c2.341 5.784 3.08 12.07 3.656 18.287.576 6.213 1.023 12.497 2.83 18.469 2.399 7.927 7.188 15.07 13.406 20.539 6.228 5.479 14.19 9.374 22.484 9.297 5.275-.049 10.638-1.796 14.486-5.404 3.378-3.168 5.443-7.696 5.621-12.324a92.138 92.138 0 0 1-6.03-4.139c-.087.368-.168.738-.266 1.104-.776 2.914-1.908 5.777-3.738 8.174a16.42 16.42 0 0 1-7.695 5.535 27.555 27.555 0 0 0 6.922-8.592c.941-1.826 1.681-3.779 1.943-5.816.108-.844.12-1.698.063-2.547a92.462 92.462 0 0 1-5.176-4.473c-.035.142-.064.285-.102.426-.647 2.449-1.59 4.859-3.121 6.877a13.766 13.766 0 0 1-6.422 4.656 23.178 23.178 0 0 0 5.777-7.227c.786-1.537 1.403-3.18 1.621-4.893.082-.647.091-1.302.059-1.953a94.156 94.156 0 0 1-1.996-2.051 115.505 115.505 0 0 1-3.447-3.857c-.025.099-.044.2-.07.299-.647 2.449-1.59 4.857-3.121 6.875a13.775 13.775 0 0 1-6.424 4.658 23.186 23.186 0 0 0 5.777-7.229c.786-1.537 1.405-3.18 1.623-4.893.097-.759.107-1.528.045-2.291a722.958 722.958 0 0 1-4.168-5.066c-.006.022 0 .044-.016.066-.586 2.232-1.44 4.428-2.832 6.27a12.524 12.524 0 0 1-5.828 4.246 21.138 21.138 0 0 0 5.242-6.59c.714-1.402 1.275-2.9 1.473-4.461a10.16 10.16 0 0 0 .051-1.854 153.77 153.77 0 0 0-4.744-5.516c-.039.165-.073.33-.115.494-.482 1.859-1.185 3.691-2.336 5.229a10.4 10.4 0 0 1-4.805 3.541 17.655 17.655 0 0 0 4.322-5.496c.589-1.171 1.05-2.42 1.213-3.721.078-.621.084-1.25.025-1.873a91.703 91.703 0 0 0-20.783-16.236 72.599 72.599 0 0 1 24.21 14.918c7.358 6.852 13.215 15.16 20.324 22.27 4.8 4.801 10.343 9.136 16.863 11.03 7.107 2.062 14.905 1.088 21.838 3.676 5.44 2.03 9.891 6.106 13.535 10.627 3.644 4.521 6.608 9.546 10.03 14.236 6.39 8.754 14.435 16.352 23.783 21.836 4.822 2.829 10.195 5.136 15.783 4.973 3.908-.114 7.713-1.444 11.1-3.393 3.389-1.949 6.392-4.503 9.221-7.201 12-11.449 21.21-25.739 34.16-36.11 8.294-6.639 17.915-11.479 27.891-15.13 6.353-2.328 12.969-4.24 18.594-8 5.064-3.385 9.07-8.106 12.824-12.906 3.75-4.8 7.342-9.778 11.822-13.904a45.402 45.402 0 0 1 17.297-9.945 54.472 54.472 0 0 0-18.594 15.13c-3.432 4.38-6.167 9.255-9.107 13.98.211 1.321.683 2.592 1.289 3.787a19.355 19.355 0 0 0 4.783 6.04 11.46 11.46 0 0 1-5.318-3.893c-.896-1.191-1.538-2.546-2.031-3.957-1.461 2.259-2.993 4.478-4.703 6.543.013.161.015.324.035.484.212 1.667.813 3.265 1.578 4.762a22.62 22.62 0 0 0 5.619 7.04 13.401 13.401 0 0 1-6.248-4.533c-1.29-1.701-2.134-3.692-2.75-5.742a36.527 36.527 0 0 1-2.82 2.73 32.97 32.97 0 0 1-3.533 2.646c.37 1.712 1.021 3.363 1.826 4.922a29.037 29.037 0 0 0 7.295 9.04 17.275 17.275 0 0 1-8.111-5.822c-1.531-2-2.588-4.314-3.373-6.715a33.668 33.668 0 0 1-4.164 1.9c-.043.821-.031 1.645.074 2.461.276 2.143 1.057 4.195 2.049 6.115a29.02 29.02 0 0 0 7.297 9.04 17.29 17.29 0 0 1-8.113-5.822c-1.928-2.52-3.123-5.532-3.941-8.598a42.277 42.277 0 0 1-.516-2.193 32.79 32.79 0 0 1-3.871.816 21.386 21.386 0 0 0 1.369 10.908 21.39 21.39 0 0 0 6.631 8.768c5.402 4.208 12.728 5.576 19.459 4.324 7.815-1.454 14.883-6.325 19.242-12.973 4.41-6.724 6.03-14.892 6.764-22.9.729-8.01.659-16.11 2.102-24.02a63.79 63.79 0 0 1 8.215-21.621 160.269 160.269 0 0 1-19.242-1.08c-7.309-.854-14.564-2.213-21.906-2.705-7.342-.492-14.873-.085-21.768 2.488-6.675 2.491-12.721 7.189-15.783 13.621-2.689 5.648-2.866 12.497-.215 18.16.993 2.123 2.367 4.076 4.094 5.66 1.727 1.585 3.808 2.794 6.07 3.42 3.97 1.1 8.245.354 12.11-1.08a35.545 35.545 0 0 0 12.11-7.568 39.11 39.11 0 0 1-11.03 10.379c-9.671 6.06-21.408 7.574-32.21 11.242a83.056 83.056 0 0 0-23.566 12.541 219.77 219.77 0 0 0 6.701-20.756c5.659-21.04 8.159-42.779 10.596-64.43 1.182-10.502 2.395-21.17 6.486-30.918 3.609-8.596 9.311-16.12 14.918-23.566 3.54-4.703 7.113-9.468 11.674-13.189 6.068-4.952 13.684-7.888 19.244-13.404 6.49-6.438 9.425-15.612 14.918-22.918a39.56 39.56 0 0 1 10.594-9.73 54.057 54.057 0 0 0-9.729 12.756c-2.376 4.324-4.147 8.952-6.324 13.379-1.347 2.739-2.877 5.429-4.738 7.838.011.27.023.539.057.807.188 1.486.718 2.911 1.396 4.246a20.12 20.12 0 0 0 4.979 6.273 11.937 11.937 0 0 1-5.535-4.04c-1.199-1.589-1.964-3.459-2.514-5.377a24.999 24.999 0 0 1-2.24 2.174c-.342.289-.693.565-1.049.834-.021.594-.011 1.19.064 1.779.217 1.705.833 3.339 1.615 4.869a23.086 23.086 0 0 0 5.752 7.193 13.709 13.709 0 0 1-6.395-4.635c-1.524-2.01-2.463-4.406-3.107-6.844-.071-.268-.129-.539-.193-.809-1.616 1.019-3.307 1.933-4.994 2.846-.085.965-.069 1.938.055 2.898.271 2.107 1.039 4.124 2.01 6.01a28.491 28.491 0 0 0 7.166 8.883 16.992 16.992 0 0 1-7.969-5.725c-1.894-2.477-3.067-5.436-3.871-8.449a41.349 41.349 0 0 1-.459-1.9c-1.822 1.066-3.591 2.231-5.152 3.621-.059.876-.048 1.756.064 2.627.271 2.107 1.039 4.126 2.01 6.01a28.483 28.483 0 0 0 7.166 8.881 16.988 16.988 0 0 1-7.969-5.723c-1.894-2.477-3.067-5.436-3.871-8.449-.033-.125-.06-.252-.092-.377-1.172 1.64-2.047 3.5-2.408 5.48-.425 2.333-.149 4.775.707 6.986.856 2.211 2.28 4.19 4.049 5.77 2.238 1.999 5.01 3.357 7.924 4.078 2.912.721 5.96.815 8.939.461 6.814-.811 13.304-4.02 18.16-8.863 6-5.989 9.406-14.28 10.379-22.703.968-8.385-.332-16.855-.217-25.295a75.633 75.633 0 0 1 3.891-22.918 56.83 56.83 0 0 1-18.16-.217c-5.399-.942-10.628-2.659-15.945-3.988-5.317-1.33-10.826-2.277-16.27-1.633-8.21.971-15.655 5.519-21.621 11.242-2.841 2.726-5.428 5.761-7.301 9.225-1.872 3.463-3.01 7.382-2.861 11.316.202 5.381 2.836 10.522 6.703 14.27 2.848 2.76 6.449 4.857 10.377 5.404 2.593.362 5.252.042 7.764-.697 2.511-.739 4.885-1.888 7.154-3.193a55.584 55.584 0 0 0 13.621-11.03 66.611 66.611 0 0 1-12.11 13.838c-7.428 6.429-16.231 11.175-23.35 17.945-7.423 7.06-12.809 16.237-15.352 26.16a389.418 389.418 0 0 0-16.432-46.48c-7.846-18.4-17.15-36.25-28.756-52.54-12.493-17.527-27.909-33.738-34.377-54.27-2.589-8.218-3.633-16.904-3.242-25.512.555-12.215 4.145-24.528 11.676-34.16a47.802 47.802 0 0 1 8.215-8.215 31.736 31.736 0 0 0-12.756-10.379m37.3 18.748a52.308 52.308 0 0 1 8.773 13.258c3.365 7.302 5.01 15.357 5.068 23.396a62.303 62.303 0 0 1-2.34 17.354 80.288 80.288 0 0 0 0-14.428c-.732-8.106-2.694-16.06-5.264-23.787a154.567 154.567 0 0 0-6.238-15.793m-39.32 1.377a679.896 679.896 0 0 0-4.053 11.791c-1.92 5.757-3.766 11.555-4.975 17.502a84.508 84.508 0 0 0-1.658 19.16 57.524 57.524 0 0 1-1.289-18.605 56.888 56.888 0 0 1 3.133-14 56.305 56.305 0 0 1 8.842-15.844m26.627 116.43a117.78 117.78 0 0 1 10.682 11.855c2.784 3.547 5.367 7.26 7.555 11.203a66.733 66.733 0 0 1 6.773 17.846 172.975 172.975 0 0 0-7.814-14.459c-2.534-4.197-5.245-8.284-7.947-12.375a3961.568 3961.568 0 0 1-9.248-14.07m-26.07 40.537a1389.271 1389.271 0 0 1-7.738 22.843 34.806 34.806 0 0 1 2.027-12.713 34.763 34.763 0 0 1 5.711-10.131m57.11 13.816a65.181 65.181 0 0 1 8.105 15.11c1.132 3 2.041 6.085 2.764 9.211a80.714 80.714 0 0 1 2.025 15.477 462.643 462.643 0 0 0-4.789-15.844 762.918 762.918 0 0 0-4.053-12.16 2213.24 2213.24 0 0 0-4.053-11.789m-67.24 14.738a3959.2 3959.2 0 0 1-3.869 18.975c-.775 3.751-1.554 7.501-2.395 11.238a359.478 359.478 0 0 1-4.605 18.238c.3-5.861.915-11.707 1.842-17.502.824-5.153 1.896-10.27 3.316-15.291a112.816 112.816 0 0 1 5.711-15.658m79.4 51.766a70.796 70.796 0 0 1 2.211 20.08c-.245 7.244-1.606 14.425-3.684 21.369a105.565 105.565 0 0 1-6.08 15.66 275.141 275.141 0 0 0 3.869-19.16 283.602 283.602 0 0 0 2.578-20.08c.551-5.943.92-11.905 1.105-17.871m-91.01 3.502c.411 5.16.843 10.318 1.291 15.475.523 6.02 1.072 12.04 1.658 18.05.467 4.792.957 9.584 1.473 14.371a130.605 130.605 0 0 1-3.5-14.371c-.998-5.414-1.653-10.893-1.842-16.395a97.543 97.543 0 0 1 .92-17.13m5.16 52.871a716.675 716.675 0 0 0 5.342 13.08c2.739 6.523 5.608 13.07 9.764 18.791a49.29 49.29 0 0 0 7.186 7.922 32.832 32.832 0 0 1-11.791-9.947c-3.408-4.658-5.523-10.134-7.186-15.66a116.26 116.26 0 0 1-3.314-14.186m77.37 14.738a37.394 37.394 0 0 1-2.947 16.766 37.36 37.36 0 0 1-10.686 14.186 145.751 145.751 0 0 0 13.633-30.951m-16.764 41.45a29.599 29.599 0 0 1-8.291 11.975c-3.683 3.2-8.238 5.483-13.08 6.08a21.38 21.38 0 0 1-10.316-1.291 37.131 37.131 0 0 0 11.05-2.025c4.461-1.545 8.601-3.937 12.342-6.816a53.856 53.856 0 0 0 8.291-7.922" fill="red"/><path d="M705.416 201a7.182 7.182 0 0 1 3.487 2.262 7.18 7.18 0 0 1 1.635 3.821c.19 1.739-.27 3.506-1.066 5.065-.795 1.559-1.913 2.93-3.096 4.219a45.288 45.288 0 0 1-6.403 5.762 4.127 4.127 0 0 1 2.743.105 4.129 4.129 0 0 1 2.059 1.816c.467.843.623 1.842.508 2.799-.114.957-.489 1.873-1.016 2.68-1.054 1.614-2.67 2.768-4.294 3.805a61.378 61.378 0 0 1-7.683 4.162 10.162 10.162 0 0 1-.32 6.083c-.667 1.776-1.832 3.34-3.237 4.614-1.406 1.273-3.048 2.265-4.766 3.069a27.28 27.28 0 0 1-11.845 2.561c.684 1.491.8 3.234.32 4.802-.346 1.13-.989 2.159-1.806 3.01-.817.853-1.806 1.534-2.867 2.053-2.122 1.039-4.5 1.43-6.852 1.658-3.511.339-7.05.339-10.564 0a2.695 2.695 0 0 1 1.276 1.898c.115.78-.14 1.606-.675 2.186-.328.356-.75.617-1.195.808-.445.191-.915.317-1.385.434-11.998 2.974-25.401.099-34.837-7.887a37.691 37.691 0 0 1-8.644-10.564 2249.964 2249.964 0 0 0-15.687 13.766c-9.528 8.44-19.11 17.11-25.931 27.852-10.245 16.14-13.512 36.02-11.845 55.06a117.179 117.179 0 0 0 9.284 36.495 60.516 60.516 0 0 1 7.04-11.525 60.417 60.417 0 0 1 8.964-9.284 24.97 24.97 0 0 1-6.083-6.723c-2.258-3.665-3.544-7.938-3.576-12.243-.035-4.623 1.347-9.158 3.256-13.368 1.711-3.774 3.845-7.339 6.03-10.862.749-1.209 1.518-2.431 2.578-3.379a6.09 6.09 0 0 1 1.791-1.138c.66-.263 1.382-.386 2.089-.308.717.079 1.41.365 1.973.815a3.85 3.85 0 0 1 1.229 1.746 19.265 19.265 0 0 1 3.842-12.485c2.825-3.732 7.176-6.395 11.845-6.723a14.522 14.522 0 0 1 7.04 1.281 40.129 40.129 0 0 1 9.604-9.924c1.121-.815 2.302-1.58 3.621-2.01 1.319-.427 2.8-.487 4.062.086a4.402 4.402 0 0 1 1.916 1.69c.453.736.681 1.609.645 2.472a37.423 37.423 0 0 1 11.525-6.403c1.202-.411 2.438-.763 3.706-.834 1.268-.071 2.582.157 3.657.834a4.853 4.853 0 0 1 1.747 1.928c.393.785.565 1.679.494 2.554a71.159 71.159 0 0 0 6.083-1.921c2.179-.797 4.33-1.703 6.595-2.204 2.265-.5 4.694-.572 6.851.283a8.523 8.523 0 0 1 4.482 4.162 17.384 17.384 0 0 1 5.442-1.601c1.821-.223 3.696-.152 5.45.387 1.754.538 3.383 1.563 4.491 3.03 1.519 2 1.947 4.639 1.905 7.153a22.67 22.67 0 0 1-3.201 11.205 4.03 4.03 0 0 1 2.784-.916c.999.059 1.969.51 2.658 1.236.677.714 1.071 1.67 1.185 2.647.114.977-.042 1.974-.361 2.904-.639 1.861-1.897 3.431-3.065 5.01a68.416 68.416 0 0 0-6.723 11.205 3.969 3.969 0 0 1 2.561 1.601c.532.75.787 1.679.79 2.599.003.92-.238 1.831-.624 2.666-.772 1.67-2.089 3.02-3.368 4.339a254.83 254.83 0 0 0-9.924 10.885 10.41 10.41 0 0 1 1.219 2.71c.52 1.814.535 3.759.125 5.601-.411 1.842-1.239 3.58-2.344 5.11-2.209 3.06-5.464 5.238-8.924 6.747a32.493 32.493 0 0 1-9.924 2.561 5.967 5.967 0 0 1 1.601 4.482c-.08 1.089-.466 2.146-1.054 3.066-.587.921-1.371 1.708-2.251 2.353-1.761 1.292-3.872 2.01-5.979 2.584a55.511 55.511 0 0 1-12.805 1.921 18.26 18.26 0 0 1-3.279 2.765c-4.312 2.841-9.634 3.725-14.797 3.842-5.513.125-11.12-.572-16.178-2.765-6.223-2.698-11.429-7.672-14.406-13.766a80.348 80.348 0 0 0-6.403 9.924c-1.998 3.665-3.748 7.677-3.521 11.845.141 2.591 1.048 5.096 2.296 7.371 1.248 2.276 2.832 4.347 4.427 6.394 12.649 16.247 26.883 32.09 45.46 40.977 10.967 5.245 23.07 7.862 33.905 13.368a70.35 70.35 0 0 1 8.749 5.277 118.588 118.588 0 0 0-11.619 9.173c-7.344 6.583-14.13 14.26-23.24 18.04-4.344 1.803-9.06 2.63-13.759 2.752-3.685.096-7.521-.278-10.702-2.14-2.23-1.306-4-3.267-5.552-5.336-1.548-2.069-2.91-4.276-4.539-6.283-3.685-4.542-8.596-7.897-13.437-11.179-4.841-3.282-9.76-6.621-13.47-11.142-3.283-3.999-5.488-8.767-8.49-12.98-1.501-2.107-3.215-4.086-5.269-5.658-2.054-1.572-4.468-2.727-7.03-3.07-2.466-.33-4.989.099-7.338.917a22.676 22.676 0 0 0-7.03 3.975 21.406 21.406 0 0 1-6.421-6.727 21.451 21.451 0 0 1-3.058-11.313c2.068.333 4.236.007 6.115-.917 2.01-.99 3.687-2.638 5.81-3.363a7.428 7.428 0 0 1 5.504.306 91.488 91.488 0 0 1-13.148-27.21c-3.109-10.663-4.383-22.16-10.396-31.494a35.554 35.554 0 0 0-12.842-11.925 55.68 55.68 0 0 1 3.058 14.07c1.338 15.857-4.269 31.741-13.148 44.947-9.359 13.921-22.24 25.23-36.39 34.25-5.251 3.348-10.718 6.413-16.558 8.576-5.84 2.163-12.08 3.408-18.299 3.043-10.547-.621-20.454-5.889-28.13-13.148-9.583-9.06-16.16-21.747-16.13-34.936.029-13.176 6.432-25.511 13.986-36.31 10.1-14.434 22.621-27.26 37.3-36.997 9.367-6.21 19.956-11.24 31.19-11.619 6.03-.204 12.08.953 17.734 3.058a54.498 54.498 0 0 1 12.231 6.421 26.068 26.068 0 0 1 11.925-3.058 26.05 26.05 0 0 1 11.925 2.752 104.379 104.379 0 0 1 6.421-38.832c3.588-9.705 8.602-18.822 12.429-28.435s6.475-20.03 4.999-30.27c-.844-5.853-3.183-11.712-7.644-15.594-2.483-2.16-5.593-3.642-8.867-3.975-.688-.07-1.39-.089-2.065.064s-1.324.492-1.751 1.036c-.47.599-.631 1.393-.606 2.153.025.761.219 1.504.391 2.245 1.964 8.432 1.267 17.361-1.24 25.647-2.507 8.286-6.772 15.965-11.852 22.974-7.863 10.849-17.722 20.2-28.742 27.825-10.549 7.295-22.434 13.1-35.16 14.677-8.573 1.061-17.478.13-25.378-3.363-7.22-3.193-13.468-8.487-17.955-14.982-4.487-6.495-7.219-14.163-8.03-22.02-1.525-14.692 3.627-29.467 11.619-41.89 10.514-16.343 25.793-29.21 42.501-39.14 9.667-5.742 20.255-10.673 31.494-11.01 8.443-.251 17.201 2.347 23.24 8.256a25.74 25.74 0 0 1 6.727 11.313 26.601 26.601 0 0 1 14.677-3.363c7.683.489 14.814 4.322 20.792 9.173a63.714 63.714 0 0 1 7.644 7.338 39.968 39.968 0 0 0 3.058-15.9c-.115-7.815-2.596-15.58-7.03-22.01a22.422 22.422 0 0 1 7.644-9.784c.625-.451 1.282-.874 2.01-1.13.728-.256 1.538-.334 2.271-.093.562.184 1.053.547 1.452.983.4.436.713.943.994 1.463a15.389 15.389 0 0 1 1.835 7.03 29.085 29.085 0 0 0 1.835-8.561c.334-5.595-.962-11.188-2.982-16.416-2.02-5.228-4.751-10.146-7.414-15.08-5.01-9.274-9.852-18.737-16.511-26.907a75.07 75.07 0 0 0-29.05-21.709 40.83 40.83 0 0 1-1.529 12.231c-1.8 6.35-5.309 12.4-10.702 16.205-1.767 1.247-3.723 2.243-5.81 2.81-2.086.567-4.306.697-6.421.248a12.145 12.145 0 0 1-6.115-3.363c-4.04 2.565-9.04 3.566-13.759 2.752-2.949-.509-5.765-1.703-8.256-3.363-.521-.348-1.032-.718-1.469-1.168-.436-.45-.798-.984-.978-1.584a3.101 3.101 0 0 1 .306-2.446 39.276 39.276 0 0 1-12.536.612c-2.497-.281-4.986-.809-7.283-1.828-2.297-1.019-4.402-2.55-5.865-4.593-.354-.494-.671-1.018-.895-1.583-.224-.565-.354-1.173-.328-1.78a3.637 3.637 0 0 1 1.367-2.666 3.634 3.634 0 0 1 2.914-.697 29.75 29.75 0 0 1-13.148-3.363c-3.941-2.06-7.405-5.02-10.09-8.561-.669-.884-1.298-1.815-1.68-2.856-.382-1.041-.504-2.207-.155-3.259a3.922 3.922 0 0 1 2.446-2.446 166.873 166.873 0 0 1-10.396-11.619c-.752-.924-1.501-1.868-2.01-2.947-.504-1.08-.747-2.323-.441-3.474a3.866 3.866 0 0 1 1.01-1.746 3.95 3.95 0 0 1 1.746-1.01 81.148 81.148 0 0 1-5.198-7.03c-.993-1.509-1.947-3.076-2.452-4.81-.505-1.735-.521-3.677.312-5.28.698-1.343 1.937-2.347 3.3-3 1.364-.657 2.856-.996 4.344-1.277a62.587 62.587 0 0 1 7.03-.917 6.245 6.245 0 0 1 .917-4.586c.7-1.054 1.716-1.874 2.836-2.461 1.121-.587 2.346-.95 3.585-1.208a23.303 23.303 0 0 1 13.454 1.223c.247-2.514 1.778-4.868 3.975-6.115 1.542-.875 3.346-1.21 5.119-1.22 1.773-.001 3.533.288 5.277.609 2.045.376 4.083.784 6.115 1.223-.044-1.897.902-3.789 2.446-4.892 1.384-.989 3.154-1.329 4.851-1.225 1.698.105 3.342.623 4.933 1.225a47.03 47.03 0 0 1 10.396 5.504 8 8 0 0 1 4.281-3.363c1.954-.637 4.102-.489 6.072.097 1.97.586 3.79 1.588 5.547 2.654a74.616 74.616 0 0 1 8.256 5.81 12.208 12.208 0 0 1 8.256-.917c2.41.589 4.595 1.915 6.453 3.559 1.858 1.644 3.411 3.602 4.861 5.614 3.867 5.368 7.151 11.443 7.644 18.04.329 4.392-.614 8.837-2.446 12.842a30.27 30.27 0 0 1-3.975 6.421 75.311 75.311 0 0 1 15.9 7.03 75.224 75.224 0 0 1 15.9 12.536l6.421-12.842a23.066 23.066 0 0 1 7.95 3.975 23.06 23.06 0 0 1 5.504 6.115c-2.764 3.064-4.324 7.187-4.281 11.313.034 3.288 1.045 6.503 2.446 9.479 2.414 5.127 5.971 9.637 8.561 14.677a43.786 43.786 0 0 1 3.058 7.644 109.995 109.995 0 0 1 22.321-21.403 32.378 32.378 0 0 1-11.313-8.867c-5.317-6.558-7.886-15.1-7.95-23.544-.056-7.32 1.712-14.661 5.198-21.1.927-1.712 1.997-3.388 3.485-4.644.744-.628 1.588-1.144 2.507-1.467.918-.323 1.912-.449 2.876-.311a5.466 5.466 0 0 1 3.058 1.529c.575-3.29 1.289-6.555 2.14-9.784.629-2.385 1.349-4.79 2.699-6.855.675-1.032 1.505-1.971 2.497-2.705.991-.734 2.147-1.259 3.366-1.447a6.788 6.788 0 0 1 3.819.525 6.784 6.784 0 0 1 2.907 2.532c2.572-3.8 5.328-7.474 8.256-11.01 1.356-1.637 2.782-3.272 4.602-4.371.91-.55 1.913-.958 2.963-1.126 1.05-.167 2.147-.088 3.138.299a5.324 5.324 0 0 1 2.433 1.929c.595.866.924 1.912.93 2.963a69.866 69.866 0 0 0 11.313-5.81c1.453-.922 2.898-1.911 4.543-2.417.822-.253 1.69-.381 2.547-.304.857.077 1.703.366 2.389.886a4.059 4.059 0 0 1 1.563 2.772 4.062 4.062 0 0 1-.951 3.037 513.291 513.291 0 0 0 7.95-4.586c1.594-.939 3.196-1.893 4.947-2.49 1.75-.597 3.685-.817 5.449-.262 2 .629 3.652 2.279 4.281 4.281a25.535 25.535 0 0 1 6.847-2.517c1.795-.38 3.642-.564 5.469-.397 1.827.167 3.636.696 5.193 1.668 1.103.689 2.085 1.615 2.672 2.776.818 1.617.8 3.549.38 5.312-.421 1.763-1.214 3.41-1.908 5.084a48.07 48.07 0 0 0-2.446 7.644 3.52 3.52 0 0 1 2.599-1.17c.979 0 1.95.437 2.599 1.17.746.842 1.041 2.01 1.014 3.136-.027 1.124-.348 2.22-.708 3.285a43.045 43.045 0 0 1-5.81 11.313 4.567 4.567 0 0 1 3.195-.339 4.564 4.564 0 0 1 2.614 1.868c.554.832.818 1.833.879 2.831.06.998-.075 1.998-.267 2.979-1.227 6.254-4.901 11.995-10.07 15.729a3.966 3.966 0 0 1 2 1.615c.464.74.671 1.638.579 2.506-.104.987-.574 1.894-1.052 2.764-2.504 4.552-5.529 8.895-9.502 12.242a29.57 29.57 0 0 1-5.504 3.669 6.456 6.456 0 0 1 1.223 5.504c-.505 2.053-2.01 3.74-3.766 4.923-1.752 1.183-3.752 1.932-5.713 2.721a125.149 125.149 0 0 0-9.479 4.281 6.36 6.36 0 0 1-.068 4.066c-.357.995-.964 1.891-1.711 2.639-.747.748-1.632 1.349-2.575 1.828-1.885.957-3.975 1.419-6.04 1.863-7.343 1.576-14.864 3.034-22.321 2.14-3.827-.459-7.676-1.588-10.702-3.975a14.977 14.977 0 0 1-4.586-6.115c-9.812 6-17.973 14.678-23.371 24.838-2.257 4.248-4.04 8.759-5.122 13.446-2.288 9.92-1.374 20.269-2.241 30.413-1.204 14.1-5.831 27.646-10.564 40.977a2009.602 2009.602 0 0 1-5.762 16.01 1687.067 1687.067 0 0 1 29.453-16.647c-5.837-4.955-9.872-11.988-11.205-19.528-1.833-10.372 1.554-21.414 8.447-29.379 1.049-1.212 2.224-2.392 3.718-2.971a5.74 5.74 0 0 1 4.802.336c2.65-3.535 5.318-7.06 8-10.564.986-1.289 2.01-2.604 3.382-3.462.688-.429 1.462-.736 2.268-.825.806-.089 1.646.046 2.353.446a3.456 3.456 0 0 1 1.671 2.338 3.455 3.455 0 0 1-.711 2.784 85.15 85.15 0 0 1 8-8.964c2.164-2.102 4.482-4.117 7.218-5.39 1.368-.637 2.832-1.081 4.334-1.228 1.502-.146 3.041.001 4.455.536a8.94 8.94 0 0 1 4.162 3.201 30.767 30.767 0 0 1 8.644-4.802c.991-.357 2.01-.664 3.064-.727 1.052-.062 2.145.138 3.02.727a3.822 3.822 0 0 1 1.54 2.161c.233.873.139 1.83-.259 2.641a26.595 26.595 0 0 1 13.446-4.802c1.427-.099 2.876-.081 4.27.243 1.394.325 2.736.972 3.734 1.997 1.372 1.41 1.991 3.514 1.601 5.442a36.415 36.415 0 0 1 3.842-1.921c1.665-.713 3.394-1.303 5.185-1.58 1.79-.277 3.648-.233 5.38.3 1.122.345 2.186.897 3.081 1.657s1.618 1.73 2.041 2.825c.517 1.338.574 2.822.347 4.237-.228 1.416-.73 2.773-1.307 4.086a36.858 36.858 0 0 1-3.842 6.723 4.808 4.808 0 0 1 2.533-.181 4.81 4.81 0 0 1 2.269 1.142c1.018.921 1.601 2.261 1.764 3.625.163 1.363-.068 2.75-.484 4.059a14.701 14.701 0 0 1-4.482 6.723"/><path d="M461.82 28.553c-.844.037-1.69.33-2.322.891-.481.426-.824.991-1.057 1.59-.233.599-.361 1.234-.457 1.869a20.36 20.36 0 0 0-.215 3.676 88.403 88.403 0 0 0-9.514-3.676c-1.289-.414-2.605-.802-3.957-.861-1.352-.059-2.762.241-3.826 1.078-.778.612-1.328 1.472-1.73 2.377a10.275 10.275 0 0 0-.865 4.758c-2.804-.383-5.62-.671-8.443-.863-2.158-.147-4.321-.24-6.475-.436-.916-.083-1.851-.183-2.746.031-.447.107-.88.293-1.24.58s-.644.677-.77 1.119c-.157.552-.062 1.148.133 1.688.195.539.487 1.039.732 1.557.422.889.712 1.839.863 2.811-1.653.153-3.32.153-4.973 0-2.817-.261-5.605-.967-8.432-.865-.991.036-1.99.175-2.91.545-.92.37-1.761.986-2.279 1.832-.509.832-.68 1.838-.648 2.813.062 1.939.878 3.786 1.947 5.404 1.693 2.565 4.02 4.65 6.486 6.486.679.506 1.384 1.01 1.863 1.709.24.349.42.745.484 1.164.065.419.011.859-.186 1.234-.209.397-.566.7-.951.93-.386.23-.804.395-1.211.584-.45.21-.891.452-1.273.77-.382.318-.705.714-.889 1.176-.243.611-.224 1.305-.041 1.936s.521 1.207.904 1.74c1.209 1.683 2.879 2.995 4.684 4.01 1.804 1.019 3.749 1.761 5.695 2.473.926.339 1.859.674 2.727 1.143.868.468 1.676 1.08 2.246 1.885.503.711.807 1.56.879 2.428a5.17 5.17 0 0 1-.447 2.545 5.31 5.31 0 0 1-2.299 2.463 5.31 5.31 0 0 1-3.322.564 38.105 38.105 0 0 0 5.406 4.107c3.578 2.246 7.538 3.893 11.674 4.756 2.909.607 5.899.827 8.865.65a14.28 14.28 0 0 1-2.379 4.324c-.551.686-1.177 1.337-1.51 2.152a3.697 3.697 0 0 0-.24 1.797c.066.607.273 1.196.586 1.721.625 1.049 1.656 1.819 2.791 2.27 1.135.451 2.371.6 3.592.592 1.221-.008 2.435-.168 3.646-.316 3.362-.411 6.78-.739 9.945-1.945.777-.296 1.541-.646 2.357-.803a3.93 3.93 0 0 1 1.238-.055c.412.053.817.19 1.16.424.559.381.926 1 1.084 1.662.158.658.124 1.349-.002 2.01a7.68 7.68 0 0 1-3.03 4.758 22.753 22.753 0 0 0 6.05 1.945c1.608.277 3.274.379 4.863.012 1.59-.367 3.105-1.243 4-2.605.671-1.02.959-2.237 1.281-3.414.322-1.177.712-2.382 1.529-3.289a4.218 4.218 0 0 1 2.582-1.355 4.048 4.048 0 0 1 2.824.707c.553.394.997.931 1.318 1.529.321.599.522 1.258.627 1.93a7.425 7.425 0 0 1-.865 4.756c2.109.606 4.384.628 6.504.059a12.226 12.226 0 0 0 5.602-3.307c1.426-1.481 2.459-3.31 3.17-5.238.711-1.929 1.11-3.961 1.373-6a47.38 47.38 0 0 0 0-12.11 53.284 53.284 0 0 0-10.51-4.344 45.607 45.607 0 0 1-3.279 4.615c-2.165 2.671-4.674 5.127-7.693 6.771a18.737 18.737 0 0 1-12 2 32.844 32.844 0 0 0 11.387-4.617c2.551-1.649 4.909-3.699 6.465-6.309a14.276 14.276 0 0 0 1.465-3.424c-4.809-1.072-9.735-1.59-14.639-2.207a45.581 45.581 0 0 1-3.338 4.709c-2.165 2.671-4.674 5.127-7.693 6.771a18.737 18.737 0 0 1-12 2 32.844 32.844 0 0 0 11.387-4.617c2.551-1.649 4.909-3.699 6.465-6.309.577-.967 1.032-2 1.365-3.08-3.144-.463-6.265-1.028-9.318-1.906a53.86 53.86 0 0 1-4.311-1.451 36.553 36.553 0 0 1-2.334 3.211c-1.755 2.154-3.789 4.13-6.23 5.455a15.206 15.206 0 0 1-9.717 1.611 26.643 26.643 0 0 0 9.219-3.719c2.063-1.328 3.972-2.979 5.232-5.084.482-.805.866-1.672 1.139-2.57-3.281-1.433-6.445-3.141-9.549-4.982-.326.458-.665.905-1.023 1.338-1.151 1.394-2.485 2.671-4.078 3.525a10.022 10.022 0 0 1-6.359 1.041 17.545 17.545 0 0 0 6.03-2.404c1.347-.855 2.599-1.918 3.426-3.283.211-.348.392-.712.543-1.09-5.591-3.41-11.01-7.207-16.582-10.623a154.173 154.173 0 0 0-20.11-10.379 71.943 71.943 0 0 1 19.459 6.703c6.612 3.405 12.646 7.809 18.926 11.793 6.28 3.984 12.939 7.603 20.21 9.18 7.432 1.612 15.171 1.02 22.689 2.162 5.945.903 11.671 2.879 17.309 4.973 6.086 2.26 12.136 4.68 17.809 7.838 11.633 6.476 21.454 15.972 29.05 26.908 8.097 11.663 13.704 24.912 17.734 38.525 1.706 5.763 3.152 11.746 2.592 17.73a27.173 27.173 0 0 1-5.344 13.764 8.739 8.739 0 0 1-4.281-4.586 8.73 8.73 0 0 1-.305-5.504 2.952 2.952 0 0 0-1.473-1.188 2.95 2.95 0 0 0-1.891-.037c-.793.254-1.456.85-1.867 1.574-.412.724-.585 1.569-.58 2.402 0 1.481.564 2.91 1.285 4.203.722 1.293 1.614 2.482 2.385 3.746 3.139 5.15 4.133 11.446 3.363 17.428-.616 4.782-2.298 9.365-4.281 13.76a101.398 101.398 0 0 1-4.893 9.479 183.736 183.736 0 0 1-11.313-11.619c-2.557-2.87-5.05-5.84-8.08-8.197-3.036-2.357-6.727-4.086-10.57-4.03-3.09.042-6.03 1.215-8.961 2.205-2.927.99-6.06 1.817-9.08 1.158a9.656 9.656 0 0 1-4.09-2.01 2.117 2.117 0 0 1-.803-.74c.251.264.523.507.803.74.249.135.521.232.803.258a2.141 2.141 0 0 0 1.758-.691c.324-.361.515-.828.6-1.305.084-.477.067-.966.012-1.447-.228-1.996-1.106-3.894-2.379-5.447-1.273-1.554-2.93-2.771-4.736-3.648-3.613-1.755-7.733-2.147-11.75-2.189a69.24 69.24 0 0 0-9.877.584c-12.844 1.713-24.909 7.309-35.773 14.371-12.427 8.08-23.666 18.295-31.494 30.881-7.02 11.29-11.194 24.696-9.785 37.916 1.111 10.421 5.897 20.648 14.07 27.21 7.631 6.132 17.739 8.716 27.518 8.254 12.294-.581 24.02-5.687 34.25-12.535 13.458-9.01 24.757-21.12 33.33-34.857 5.72-9.171 10.343-19.463 10.396-30.27a38.25 38.25 0 0 0-1.223-9.783c-.779 0-1.557.236-2.205.668a4.004 4.004 0 0 0-1.465 1.777 4.03 4.03 0 0 0 0 3.059 21.338 21.338 0 0 1-2.752-2.141c-.738-.678-1.437-1.419-1.918-2.299-.481-.88-.729-1.916-.527-2.898a3.913 3.913 0 0 1 .699-1.527 5.61 5.61 0 0 1 1.207-1.176c.909-.667 1.96-1.11 2.986-1.578 1.877-.855 3.708-1.813 5.623-2.58 1.915-.767 3.932-1.343 5.994-1.395 3.083-.077 6.117 1.039 8.682 2.752 2.565 1.713 4.699 3.998 6.607 6.42 4.03 5.116 7.238 11.221 7.338 17.734.081 5.272-2.481 15.905-4.433 23.702-3.906 15.602-10.797 27.523-14.524 46.01a383.534 383.534 0 0 0-5.809 39.14 61.275 61.275 0 0 0-12.537-7.03c-1.656-.688-3.358-1.308-5.133-1.561-1.775-.253-3.641-.12-5.264.643-2.028.953-3.482 2.771-5.096 4.326-.807.778-1.675 1.506-2.67 2.02-.995.516-2.129.811-3.242.686-1.379-.156-2.612-.936-3.668-1.836a15.593 15.593 0 0 1-3.67-4.586 2.831 2.831 0 0 0 2.447.307 2.811 2.811 0 0 0 1.471-1.197 2.806 2.806 0 0 0 .363-1.861 36.786 36.786 0 0 0-15.9-4.586c-6.555-.347-13.11 1.079-19.262 3.363-16.276 6.04-29.776 17.881-41.28 30.883-4.993 5.644-9.708 11.583-13.41 18.15-3.702 6.564-6.377 13.793-7.08 21.297-.935 10.04 1.779 20.334 7.338 28.742 3.274 4.951 7.529 9.283 12.564 12.426 5.04 3.143 10.858 5.074 16.789 5.307 8.546.336 16.862-2.802 24.461-6.727 13.426-6.934 25.499-16.513 35.16-28.13 9.788-11.763 17.204-26.02 18.346-41.28a56.048 56.048 0 0 0-1.834-18.957 2.776 2.776 0 0 0-1.576-.09c-.519.123-1 .401-1.367.789-.474.503-.744 1.17-.879 1.848-.134.678-.142 1.374-.154 2.064-.012.691-.028 1.388-.18 2.063-.152.674-.45 1.333-.949 1.811-.602.575-1.465.842-2.295.777-.816-.063-1.593-.432-2.211-.969-.728.146-1.449.333-2.182.453-1.511.247-3.063.159-4.57-.109-.67-.119-1.339-.274-1.963-.545-.624-.271-1.206-.663-1.629-1.195a3.552 3.552 0 0 1-.736-1.842 4.091 4.091 0 0 1 .301-1.967c.236-.57.6-1.095 1.094-1.465.37-.277.817-.461 1.275-.502a2.09 2.09 0 0 1 .461.008c.516.066.993.325 1.387.664s.712.758 1.01 1.186c.42.609.802 1.249 1.299 1.797.496.548 1.128 1.01 1.855 1.143.305.056.613.045.922.016a6.182 6.182 0 0 1-.27-1.25c-.129-1.35.154-2.716.633-3.984.939-2.486 2.641-4.662 4.758-6.27 3.181-2.417 7.248-3.531 11.242-3.459 4.465.08 8.931 1.638 12.324 4.541 4.471 3.825 6.766 9.56 8.648 15.13 5.222 15.47 8.602 31.723 16.432 46.05a82.36 82.36 0 0 0 9.512 13.838 35.031 35.031 0 0 1-7.566 1.297c-2.236.134-4.495.055-6.703.434-.732.126-1.46.301-2.137.607s-1.302.748-1.754 1.338c-.372.486-.619 1.06-.779 1.65-.16.591-.239 1.2-.303 1.809a39.943 39.943 0 0 0-.215 3.676 39.987 39.987 0 0 0 10.01-1.555c1.408-.407 2.797-.891 4.236-1.164 1.44-.273 2.955-.327 4.35.125 1.014.328 1.93.913 2.742 1.604.812.69 1.529 1.485 2.23 2.287 7.711 8.813 14.23 18.816 23.35 26.16 6.721 5.413 14.68 9.227 20.973 15.13a41.74 41.74 0 0 1 5.621 6.486 22.986 22.986 0 0 1 3.242-5.404c2.573-3.194 5.975-5.654 9.637-7.502 3.662-1.848 7.592-3.109 11.553-4.174a130.257 130.257 0 0 1 16-3.242 87.072 87.072 0 0 1-4.973-1.297c-14.669-4.292-27.991-12.383-40-21.838-11.127-8.761-21.312-18.8-29.619-30.27a127.62 127.62 0 0 1-9.08-14.484c.932-3.03 1.868-6.06 2.811-9.08 1.986-6.376 4.04-12.845 7.785-18.377 3.622-5.355 8.676-9.599 14.05-13.189 13.589-9.07 29.471-14.345 42.809-23.783 12-8.493 21.468-20.02 32.21-30.05a164.767 164.767 0 0 1 14.27-11.891 133.864 133.864 0 0 1-20.539 25.08c-5.089 4.867-10.556 9.316-16.205 13.525a11.1 11.1 0 0 0 1.52 1.186c1.968 1.268 4.293 1.886 6.615 2.18 3.166.401 6.403.234 9.512-.49a15.212 15.212 0 0 1-9.08 2.424c-2.65-.148-5.221-.993-7.633-2.1a36.032 36.032 0 0 1-3.088-1.625 313.95 313.95 0 0 1-4.559 3.277 282.009 282.009 0 0 1-5.408 3.703 15.074 15.074 0 0 0 2.717 2.311c2.663 1.763 5.828 2.636 8.994 3.053 4.304.567 8.712.334 12.932-.686a20.133 20.133 0 0 1-12.348 3.398c-3.611-.209-7.103-1.398-10.373-2.945a48.35 48.35 0 0 1-5.291-2.93c-3.636 2.327-7.347 4.532-11.166 6.535.871.866 1.813 1.66 2.832 2.346 3.436 2.314 7.534 3.473 11.639 4.03 5.57.752 11.282.444 16.738-.904-4.631 3.211-10.355 4.816-15.98 4.482-4.681-.278-9.204-1.848-13.428-3.885a62.203 62.203 0 0 1-6.59-3.697c-3.436 1.617-6.922 3.133-10.262 4.939-1 .541-1.989 1.113-2.955 1.719a19.471 19.471 0 0 0 3.66 3.205c3.436 2.314 7.536 3.475 11.641 4.03 5.57.752 11.28.442 16.736-.906a25.624 25.624 0 0 1-15.979 4.482c-4.681-.278-9.204-1.848-13.428-3.885a62.352 62.352 0 0 1-6.857-3.871 27.96 27.96 0 0 0-3.229 3.154c-.689.799-1.329 1.646-1.807 2.586s-.789 1.98-.787 3.035c.002 1.206.413 2.385 1.018 3.428.605 1.043 1.399 1.963 2.225 2.842 5.995 6.377 14.178 10.99 22.918 11.459 4.04.217 8.13-.451 11.893-1.945a18.26 18.26 0 0 1-6.918-3.244c-.556-.423-1.097-.885-1.482-1.469a3.153 3.153 0 0 1-.43-.951 2.353 2.353 0 0 1-.035-1.039c.128-.632.552-1.183 1.094-1.533.541-.35 1.192-.51 1.836-.533 1.289-.046 2.529.432 3.773.77 3.721 1.01 7.684.784 11.459 0a40.08 40.08 0 0 0 12.973-5.189 20.53 20.53 0 0 1-3.676-2.811 20.677 20.677 0 0 1-3.03-3.676c2.035.563 4.163.783 6.27.648 4.516-.288 8.813-2.19 12.541-4.756a37.413 37.413 0 0 0 8.432-8 12.503 12.503 0 0 1-2.811-.217c-1.231-.237-2.453-.674-3.412-1.48a4.588 4.588 0 0 1-1.166-1.457 3.69 3.69 0 0 1-.395-1.818c.049-.934.493-1.815 1.1-2.527.606-.712 1.367-1.274 2.143-1.797 1.826-1.232 3.766-2.288 5.613-3.488 1.847-1.2 3.622-2.563 4.982-4.295a13.285 13.285 0 0 0 2.807-8.439 4.45 4.45 0 0 1-1.832 2.563 4.438 4.438 0 0 1-3.076.676 4.44 4.44 0 0 1-2.74-1.555 4.442 4.442 0 0 1-.996-2.988c.035-.791.287-1.565.674-2.256.387-.691.906-1.301 1.488-1.838 1.425-1.314 3.196-2.174 4.926-3.049 1.729-.875 3.477-1.807 4.803-3.221a8.883 8.883 0 0 0 2.379-6.05 4.681 4.681 0 0 1-1.93 1.311 4.665 4.665 0 0 1-2.322.207 4.678 4.678 0 0 1-2.131-.949 4.67 4.67 0 0 1-1.4-1.865c-.464-1.127-.466-2.405-.18-3.59.286-1.184.845-2.286 1.477-3.328 1.683-2.774 3.923-5.23 5.189-8.217a14.283 14.283 0 0 0 1.08-6.701 82.892 82.892 0 0 1-15.134 3.675 10.461 10.461 0 0 0-1.08-3.893 6.688 6.688 0 0 0-.887-1.371 3.982 3.982 0 0 0-1.275-1.01c-.597-.285-1.273-.382-1.932-.33-.659.052-1.302.249-1.902.525-1.201.552-2.228 1.411-3.301 2.184-2.64 1.903-5.66 3.33-8.865 3.893-.947.166-1.927.255-2.867.053a3.965 3.965 0 0 1-1.33-.537 3.041 3.041 0 0 1-.992-1.029c-.311-.544-.422-1.18-.477-1.805-.055-.625-.058-1.255-.172-1.871a3.94 3.94 0 0 0-.424-1.221 2.62 2.62 0 0 0-.873-.941c-.491-.309-1.094-.417-1.67-.352-.576.065-1.125.296-1.607.617-.966.642-1.653 1.613-2.344 2.545-1.683 2.27-3.577 4.478-6.05 5.838-.615.338-1.275.622-1.975.676a2.665 2.665 0 0 1-1.039-.115 2.04 2.04 0 0 1-.877-.561c-.265-.294-.427-.671-.518-1.057-.09-.386-.112-.782-.125-1.178-.013-.396-.016-.793-.07-1.186-.054-.392-.163-.783-.369-1.121a2.279 2.279 0 0 0-1.027-.887 2.631 2.631 0 0 0-1.35-.193c-.487.055-.954.234-1.383.471-.429.236-.823.529-1.213.826-1.548 1.18-3.063 2.464-4.107 4.107-.981 1.543-1.498 3.326-2.166 5.03-.668 1.702-1.549 3.406-3.02 4.486-.819.6-1.811.982-2.826 1.01-1.015.026-2.049-.318-2.795-1.01-.512-.473-.872-1.082-1.277-1.648-.406-.566-.888-1.116-1.533-1.379-.488-.199-1.04-.216-1.553-.094a3.673 3.673 0 0 0-1.402.703c-.829.65-1.412 1.555-2.02 2.418-2.01 2.869-4.424 5.453-6.27 8.432a26.795 26.795 0 0 0-3.893 11.676 27.111 27.111 0 0 0-3.676-4.541 26.683 26.683 0 0 0-3.03-2.594 36.525 36.525 0 0 0-7.785 14.05c-1.497 5.149-1.805 10.817.217 15.783 1.693 4.157 5.01 7.629 9.08 9.514a14.52 14.52 0 0 1 4.109-4.541c.191-.137.394-.246.59-.373a48.523 48.523 0 0 1-1.207-4.627c-.734-3.542-1.068-7.218-.422-10.777a20.129 20.129 0 0 1 6.207-11.199 35.486 35.486 0 0 0-3.709 12.406c-.339 3.175-.236 6.458.852 9.461a15.03 15.03 0 0 0 1.545 3.084c2.953-1.146 6.194-1.691 9.332-2.299 1.173-.227 2.343-.477 3.51-.736a294.913 294.913 0 0 0-.711-6.289c-.53-4.226-1.152-8.512-.508-12.723.782-5.115 3.491-9.913 7.467-13.225a31.13 31.13 0 0 0-4.461 14.65c-.172 3.743.336 7.485 1.025 11.168.343 1.831.736 3.651 1.168 5.463a130.924 130.924 0 0 0 16.08-5.227 311.363 311.363 0 0 1-17.512 8c-7.805 3.277-15.838 6.288-22.701 11.242-6 4.332-10.94 10.06-14.703 16.432-2.245 3.802-4.081 7.831-6.27 11.666-.396.695-.81 1.391-1.371 1.961-.561.57-1.291 1.01-2.088 1.076a2.955 2.955 0 0 1-1.553-.324 4.081 4.081 0 0 1-1.244-.996c-.699-.81-1.123-1.816-1.533-2.805a281.344 281.344 0 0 1-3.02-7.551c-4.294-11.251-7.63-22.997-8.217-35.03-.42-8.606.573-17.222 1.947-25.729 1.417-8.77 3.261-17.538 6.701-25.729 4.124-9.819 10.463-18.594 17.73-26.379a129.347 129.347 0 0 1 33.08-25.512c15.262-8.234 32.41-13.57 45.39-25.07 5.952-5.277 10.793-11.663 15.795-17.848 5-6.185 10.287-12.285 16.869-16.752a45.616 45.616 0 0 1 14.486-6.486 76.625 76.625 0 0 0-11.03 9.297c-4.493 4.582-8.398 9.697-12.48 14.652.36.234.735.445 1.123.627 1.716.804 3.642 1.067 5.537 1.086a23.104 23.104 0 0 0 7.592-1.205 12.763 12.763 0 0 1-7.05 2.646c-2.146.124-4.293-.3-6.346-.938-.7-.217-1.392-.463-2.074-.73-1.512 1.799-3.059 3.566-4.682 5.266a88.987 88.987 0 0 1-3.748 3.676c.475.327.973.621 1.492.873 2.158 1.049 4.596 1.401 6.996 1.43 3.258.038 6.52-.501 9.592-1.588a15.59 15.59 0 0 1-8.906 3.486c-2.715.16-5.43-.397-8.02-1.234a37.888 37.888 0 0 1-3.121-1.184c-3.463 3.06-7.127 5.896-10.865 8.629.658.498 1.356.941 2.096 1.307 2.453 1.213 5.231 1.626 7.967 1.66a31.066 31.066 0 0 0 10.928-1.844 17.494 17.494 0 0 1-10.145 4.047c-3.094.184-6.187-.464-9.131-1.434a42.454 42.454 0 0 1-4.447-1.754c-.267.19-.529.388-.797.578a392.447 392.447 0 0 1-6.627 4.592 13.06 13.06 0 0 0 2.063 2.205c2.089 1.767 4.689 2.838 7.336 3.529a31.074 31.074 0 0 0 11.05.836 17.491 17.491 0 0 1-10.82 1.49c-3.048-.565-5.893-1.939-8.518-3.588a42.37 42.37 0 0 1-3.793-2.686 353.72 353.72 0 0 1-10.07 6.479c.61.833 1.317 1.595 2.105 2.262 2.089 1.767 4.689 2.836 7.336 3.527a31.075 31.075 0 0 0 11.05.838 17.49 17.49 0 0 1-10.82 1.488c-3.048-.565-5.893-1.939-8.518-3.588a42.416 42.416 0 0 1-3.965-2.826c-1.033.624-2.059 1.26-3.1 1.873a321.86 321.86 0 0 1-9.947 5.621 50.018 50.018 0 0 0 10.379 10.162c5.03 3.659 10.881 6.403 17.08 6.92 2.454.205 4.938.058 7.352-.434a27.14 27.14 0 0 1-3.244-3.242c-.801-.949-1.56-2.01-1.729-3.244a3.308 3.308 0 0 1 .148-1.561c.18-.496.501-.945.932-1.25.492-.349 1.111-.5 1.715-.482.604.018 1.194.196 1.74.453 1.092.515 2.01 1.336 3.03 1.975 1.802 1.123 3.933 1.664 6.05 1.73a14.932 14.932 0 0 0 9.719-3.248 5.273 5.273 0 0 0 .102-3.037 5.275 5.275 0 0 0-1.605-2.58 5.262 5.262 0 0 0-2.277-1.145 26.147 26.147 0 0 1-1.182-.152c.399 0 .794.062 1.182.152 2.703.289 5.45.166 8.115-.369 3.57-.716 6.961-2.155 10.162-3.891a57.95 57.95 0 0 0 8.217-5.406 6.527 6.527 0 0 1-3.244 0c-1.182-.305-2.289-.965-3.02-1.939a4.4 4.4 0 0 1-.824-1.865 3.874 3.874 0 0 1 .176-2.027c.309-.823.916-1.515 1.641-2.01.725-.498 1.563-.812 2.42-1.01 1.714-.396 3.501-.344 5.232-.656 3.573-.644 6.82-2.917 8.648-6.05a4.278 4.278 0 0 1-2.744.471 4.277 4.277 0 0 1-2.445-1.336c-.935-1.032-1.31-2.517-1.08-3.891.143-.853.504-1.663.998-2.373.494-.71 1.12-1.323 1.807-1.85 1.374-1.052 2.977-1.754 4.547-2.48 1.347-.623 2.716-1.297 3.719-2.391.501-.547.901-1.195 1.104-1.908.203-.714.2-1.495-.066-2.188-.276-.719-.825-1.315-1.484-1.713-.659-.398-1.424-.602-2.191-.664-.542-.044-1.091-.019-1.627-.109a2.72 2.72 0 0 1-.775-.242 1.734 1.734 0 0 1-.625-.514 1.608 1.608 0 0 1-.283-.701 1.965 1.965 0 0 1 .037-.756c.119-.494.407-.935.754-1.307.695-.743 1.626-1.235 2.303-1.994.651-.73 1.028-1.663 1.311-2.6.282-.936.484-1.898.852-2.805.424-1.045 1.067-2.01 1.307-3.115.12-.551.133-1.135-.039-1.672-.172-.537-.542-1.024-1.051-1.268a2.305 2.305 0 0 0-1.012-.201 5.918 5.918 0 0 0-1.035.121c-.342.063-.681.135-1.027.164-.346.029-.7.015-1.033-.084a2.251 2.251 0 0 1-.938-.568 2.77 2.77 0 0 1-.598-.924c-.275-.686-.298-1.452-.195-2.184.163-1.165.635-2.274 1.287-3.254.652-.979 1.482-1.832 2.389-2.582 1.09-.902 2.308-1.674 3.209-2.766.451-.546.818-1.172 1-1.855.182-.684.17-1.429-.102-2.082a3.115 3.115 0 0 0-.898-1.191 4.099 4.099 0 0 0-1.316-.715c-.953-.318-1.98-.332-2.982-.264-3.963.27-7.753 1.771-11.234 3.684-1.016.558-2.05 1.165-3.203 1.285-.576.06-1.175-.011-1.697-.262s-.961-.693-1.152-1.24c-.204-.585-.117-1.229.008-1.836.124-.607.282-1.224.207-1.84-.071-.583-.351-1.13-.742-1.568-.391-.438-.89-.772-1.42-1.025-1.789-.855-3.947-.775-5.77.008-1.822.782-3.319 2.216-4.391 3.885-.655 1.02-1.165 2.132-1.879 3.111-.357.49-.765.944-1.246 1.313-.481.368-1.038.647-1.633.764-.863.169-1.797-.023-2.502-.549-.705-.525-1.163-1.382-1.174-2.262-.007-.518.134-1.024.285-1.52.151-.495.315-.992.363-1.508a3.442 3.442 0 0 0-1.08-2.811 91.854 91.854 0 0 1-3.893 1.514c-1.108.402-2.225.786-3.277 1.316-1.052.531-2.044 1.219-2.775 2.143-.888 1.122-1.344 2.518-1.99 3.795-.323.638-.701 1.255-1.191 1.775-.491.521-1.101.943-1.791 1.133a3.42 3.42 0 0 1-1.664.027 3.979 3.979 0 0 1-1.508-.717c-.892-.678-1.492-1.692-1.801-2.77a6.714 6.714 0 0 1 0-3.676 44.183 44.183 0 0 0-5.406 2.811c-1.936 1.182-3.786 2.518-5.404 4.107a22.597 22.597 0 0 0-5.406 8.434 8.269 8.269 0 0 1-2.811-3.03c-.262-.486-.476-.998-.768-1.467-.292-.468-.675-.899-1.178-1.127-.431-.195-.927-.227-1.391-.135-.464.092-.899.303-1.289.57-.781.534-1.384 1.283-2.072 1.932-1.153 1.086-2.548 1.893-3.703 2.977-.578.542-1.097 1.157-1.455 1.863-.358.706-.549 1.51-.461 2.297.072.638.321 1.24.561 1.836.239.596.473 1.207.514 1.848.052.831-.239 1.671-.758 2.322-.519.652-1.254 1.117-2.053 1.354a4.623 4.623 0 0 1-3.998-.707 4.623 4.623 0 0 1-1.84-3.617 94.135 94.135 0 0 0-3.893 6.486c-1.825 3.339-3.464 6.843-4.107 10.594-.904 5.271.242 10.764 2.596 15.566a32.639 32.639 0 0 0 7.783 10.162c.808-.494 1.622-.978 2.438-1.461a42.37 42.37 0 0 1-.883-3.527c-.618-3.037-.899-6.185-.354-9.236a17.477 17.477 0 0 1 5.207-9.6 31.035 31.035 0 0 0-3.111 10.635c-.286 2.721-.202 5.53.715 8.107.263.74.601 1.452.992 2.133.422-.241.841-.489 1.266-.727 2.999-1.683 6.06-3.284 9.232-4.598a61.16 61.16 0 0 1-1.826-6.689c-.986-4.631-1.43-9.444-.568-14.1 1.043-5.635 4.04-10.888 8.361-14.654a45.113 45.113 0 0 0-4.996 16.234c-.453 4.156-.308 8.456 1.148 12.375a19.333 19.333 0 0 0 2.85 5.094 43.47 43.47 0 0 1 9.582-1.66 226.048 226.048 0 0 1-8.648 4.756c-7.63 3.981-15.482 7.523-23.13 11.459-10.963 5.638-21.63 12.178-30.27 20.973-1.36 1.385-2.672 2.825-4.174 4.055-1.502 1.229-3.223 2.25-5.123 2.646-.798.166-1.626.22-2.426.063-.799-.158-1.568-.537-2.113-1.143-.683-.758-.969-1.813-.971-2.834-.002-1.021.255-2.023.537-3 2.315-8.04 6.462-15.411 10.162-22.918 7.639-15.498 13.554-32.24 13.838-49.51.092-5.618-.411-11.237-.207-16.852.358-9.864 3.01-19.797 8.639-27.904 6.04-8.699 15.05-14.775 23.13-21.619 8.103-6.862 15.407-14.637 22.05-22.918 3.755-4.68 7.295-9.519 10.727-14.439a54.144 54.144 0 0 1-2.846-6.207c-1.463-3.827-2.496-7.88-2.398-11.977a22.546 22.546 0 0 1 5.061-13.643 39.597 39.597 0 0 0-2.01 14.543c.182 3.614.887 7.268 2.652 10.426a16.724 16.724 0 0 0 2.176 3.02 731.26 731.26 0 0 0 5.436-8.123 43.042 43.042 0 0 1-1.719-3.971c-1.128-3.02-1.921-6.213-1.844-9.438a18.128 18.128 0 0 1 3.893-10.752 32.049 32.049 0 0 0-1.545 11.461c.137 2.843.675 5.72 2.041 8.217a13.35 13.35 0 0 0 1.066 1.637c2.464-3.736 4.925-7.474 7.414-11.189 4.407-6.578 9.104-13.262 15.783-17.514a30.044 30.044 0 0 1 13.188-4.539 105.704 105.704 0 0 0-22.701 19.891c-3.247 3.793-6.205 7.821-8.93 12 .695.451 1.443.822 2.225 1.1 2.025.719 4.227.805 6.367.611a25.535 25.535 0 0 0 8.389-2.244 14.203 14.203 0 0 1-7.596 3.83c-2.405.388-4.873.145-7.258-.35a34.856 34.856 0 0 1-3.432-.918 141.774 141.774 0 0 0-6.229 11.08 13.01 13.01 0 0 0 2.465 1.23c2.567.948 5.374 1.068 8.098.814a31.068 31.068 0 0 0 10.672-2.984 17.498 17.498 0 0 1-9.662 5.092c-3.058.509-6.201.19-9.23-.465a42.365 42.365 0 0 1-3.686-.977c-.045.094-.094.186-.139.279-1.37 2.858-2.671 5.752-4.059 8.6.735.416 1.496.783 2.285 1.084 3.381 1.29 7.099 1.459 10.701 1.115a39.532 39.532 0 0 0 14.1-4.094 22.545 22.545 0 0 1-12.766 6.984c-4.04.69-8.198.257-12.197-.637a53.734 53.734 0 0 1-3.867-1.016 66.33 66.33 0 0 1-1.377 2.455 46.103 46.103 0 0 1-3.637 5.291c.105.042.208.091.314.131 2.567.948 5.375 1.068 8.1.814a31.057 31.057 0 0 0 10.67-2.984 17.498 17.498 0 0 1-9.662 5.092c-3.058.509-6.201.19-9.23-.465a42.666 42.666 0 0 1-2.01-.492c-1.593 1.701-3.346 3.236-5.309 4.498-2.164 1.391-4.523 2.455-6.729 3.777.785.486 1.612.904 2.477 1.227 2.767 1.032 5.798 1.165 8.738.889a33.127 33.127 0 0 0 11.514-3.258 18.733 18.733 0 0 1-10.426 5.559c-3.299.554-6.693.206-9.961-.508a45.126 45.126 0 0 1-5.549-1.598c-.296.27-.583.551-.854.848-.965 1.057-1.751 2.294-2.184 3.658a8.388 8.388 0 0 0 .217 5.621c.577 1.431 1.553 2.69 2.748 3.666 1.195.976 2.605 1.675 4.086 2.109 2.961.869 6.143.683 9.166.063 4.473-.918 8.715-2.756 13.188-3.676 2.627-.54 5.32-.758 8-.648a13.762 13.762 0 0 0-3.242-4.107 13.784 13.784 0 0 0-4.541-2.594 179.142 179.142 0 0 0 12.539-2.162c3.137-.657 6.31-1.418 9.08-3.03a16.503 16.503 0 0 0 5.621-5.406 6.835 6.835 0 0 1-3.549.629 6.82 6.82 0 0 1-3.369-1.277 6.856 6.856 0 0 1-2.596-3.891 33.555 33.555 0 0 0 6.918-1.514c4.272-1.421 8.279-3.731 11.459-6.918a25.59 25.59 0 0 0 5.406-8 12.387 12.387 0 0 1-5.406 0 12.39 12.39 0 0 1-4.973-2.379c4.385-.128 8.674-2.232 11.459-5.621 2.738-3.332 3.947-7.617 5.406-11.676.321-.893.661-1.81.619-2.758-.021-.474-.142-.949-.393-1.352-.251-.403-.637-.728-1.092-.863-.415-.123-.863-.085-1.281.023-.419.108-.815.284-1.219.439-.403.156-.822.294-1.254.318-.432.024-.884-.076-1.219-.35a1.575 1.575 0 0 1-.531-.93 2.283 2.283 0 0 1 .076-1.082c.213-.698.678-1.286 1.104-1.879 1.752-2.441 2.969-5.219 4.107-8a188.906 188.906 0 0 0 2.596-6.703 5.01 5.01 0 0 1-3.92 1.125 5.013 5.013 0 0 1-3.432-2.205c-.894-1.382-1.041-3.158-.648-4.756.344-1.399 1.066-2.675 1.846-3.887.779-1.212 1.626-2.388 2.262-3.682a12.873 12.873 0 0 0 1.297-6.27c-3.159.296-6.284.95-9.297 1.945-1.735.573-3.441 1.262-5.236 1.602-1.795.34-3.728.306-5.357-.52a6.031 6.031 0 0 1-2.811-3.03 21.79 21.79 0 0 0-11.459 5.838c-.859.838-1.678 1.769-2.77 2.27-.546.25-1.156.383-1.752.309-.596-.074-1.173-.368-1.531-.85-.364-.49-.474-1.116-.564-1.719-.091-.603-.182-1.231-.518-1.74-.371-.563-1.01-.912-1.664-1.057-.658-.145-1.343-.105-2.01-.023a16.534 16.534 0 0 0-8 3.242 16.29 16.29 0 0 0-4.756 5.838 4.104 4.104 0 0 1-1.895-.994 4.109 4.109 0 0 1-1.133-1.816c-.217-.722-.23-1.49-.381-2.229a3.765 3.765 0 0 0-.369-1.064 2.12 2.12 0 0 0-.764-.814 2 2 0 0 0-.953-.264c-.333 0-.665.052-.98.158-.631.213-1.19.596-1.742.969-2.305 1.555-4.77 3.065-6.27 5.406-.84 1.311-1.325 2.811-1.783 4.299-.458 1.488-.905 2.997-1.676 4.35A10.1 10.1 0 0 1 619.279 53a15.156 15.156 0 0 0-3.891-4.541c-.647-.506-1.346-.962-2.123-1.23-.777-.268-1.642-.336-2.418-.066-.515.179-.973.499-1.363.881s-.716.825-1.016 1.281c-1.755 2.666-2.709 5.906-2.377 9.08.224 2.138 1.01 4.182 1.314 6.311.152 1.064.18 2.156-.043 3.207-.223 1.051-.712 2.063-1.488 2.807-.512.49-1.151.859-1.846.996-.695.137-1.447.03-2.047-.348-.412-.259-.738-.632-1.035-1.018-.297-.386-.573-.793-.91-1.145a4.352 4.352 0 0 0-2.594-1.297 57.435 57.435 0 0 0-4.324 6.486c-2.441 4.268-4.349 8.938-4.758 13.838-.357 4.282.452 8.625 2.09 12.598 1.638 3.973 4.091 7.582 6.992 10.752 1.16 1.268 2.411 2.482 3.904 3.332 1.494.85 3.263 1.315 4.951.992 1.036-.198 2-.683 2.85-1.313.846-.63 1.577-1.403 2.246-2.219 1.338-1.631 2.454-3.459 3.994-4.9.153-.144.323-.268.484-.402a54.106 54.106 0 0 1-2.094-4.75c-1.463-3.827-2.496-7.88-2.398-11.977a22.554 22.554 0 0 1 5.063-13.645 39.566 39.566 0 0 0-2.01 14.545c.182 3.614.889 7.268 2.654 10.426a16.952 16.952 0 0 0 2.447 3.336c1.716-.593 3.563-.807 5.363-.561a244.498 244.498 0 0 1-11.242 10.379c-5.941 5.151-12.146 10.04-17.512 15.783-4.846 5.191-8.967 11.04-14.05 15.998a57.23 57.23 0 0 1-3.891 3.459 24.959 24.959 0 0 1-3.03-4.107c-2.406-4.091-3.593-8.791-5.838-12.973-1.763-3.285-4.145-6.188-6.232-9.277-2.087-3.089-3.92-6.48-4.361-10.182-.488-4.09.757-8.164 1.945-12.11a567.442 567.442 0 0 0 2.162-7.35h-4.107a73.06 73.06 0 0 0-1.947 4.973c-.846 2.418-1.602 4.949-3.242 6.918a9.44 9.44 0 0 1-3.459 2.594 68.19 68.19 0 0 0-21.621-17.08c-9.04-4.532-18.993-6.99-28.973-8.648-8.905-1.48-18.04-2.383-26.373-5.844a45.569 45.569 0 0 1-5.625-2.805c3.561.434 7.12.893 10.678 1.355.268-1.16.408-2.349.402-3.539-.016-3.288-1.088-6.495-2.563-9.434a35.494 35.494 0 0 0-8.1-10.564 20.296 20.296 0 0 1 10.117 8.465c1.914 3.192 2.907 6.86 3.459 10.541a49.14 49.14 0 0 1 .484 5.02c1.854.246 3.707.505 5.557.779.464-1.679.712-3.418.703-5.16-.02-4.094-1.364-8.09-3.209-11.742a44.14 44.14 0 0 0-10.141-13.146 25.287 25.287 0 0 1 12.668 10.533c2.392 3.971 3.64 8.536 4.332 13.12.36 2.385.572 4.792.645 7.203 1.534.272 3.065.562 4.588.893 1.518.33 3.03.687 4.566.928.451-1.7.686-3.458.678-5.217-.021-4.305-1.437-8.501-3.379-12.344a46.392 46.392 0 0 0-10.676-13.822c5.515 2.063 10.295 6.03 13.336 11.07 2.517 4.174 3.832 8.974 4.561 13.793.332 2.195.542 4.409.643 6.627a10.772 10.772 0 0 0 1.73-.391c2.63-.857 4.798-2.781 6.486-4.973 2.833-3.678 4.512-8.348 4.107-12.973-.26-2.973-1.354-5.819-2.768-8.447-1.413-2.628-3.146-5.066-4.799-7.551-.988-1.485-1.966-3.01-3.313-4.18-.673-.585-1.436-1.074-2.273-1.381-.837-.307-1.752-.425-2.631-.277-.506.085-1 .259-1.426.549-.424.29-.775.698-.953 1.18-.153.412-.176.86-.203 1.299-.027.439-.062.885-.23 1.291-.145.35-.388.657-.689.887-.301.23-.659.383-1.031.453-.745.139-1.533-.059-2.17-.469-.924-.594-1.522-1.581-1.961-2.588-.439-1.01-.753-2.072-1.281-3.035-.77-1.405-1.967-2.541-3.297-3.434-1.33-.892-2.799-1.557-4.271-2.188a120.437 120.437 0 0 0-5.404-2.162 28.113 28.113 0 0 1-.432 6.92 31.161 31.161 0 0 1-11.676-6.05c-1.301-1.078-2.543-2.282-4.086-2.971-.772-.344-1.613-.551-2.457-.514m-9.16 21.978a18.402 18.402 0 0 1 9.143 7.674c1.732 2.896 2.629 6.222 3.127 9.559a44.74 44.74 0 0 1 .488 6.602l-3.84-1.215c.481-1.443.724-2.965.717-4.486-.014-2.981-.983-5.889-2.316-8.555a32.204 32.204 0 0 0-7.318-9.578m-11.525.156a16.5 16.5 0 0 1 8.174 6.887c1.55 2.6 2.348 5.586 2.793 8.58a40.36 40.36 0 0 1 .439 5.924l-3.434-1.09c.43-1.295.647-2.663.641-4.03-.012-2.674-.878-5.284-2.07-7.678a28.929 28.929 0 0 0-6.543-8.596m188.37 15.994a39.566 39.566 0 0 0-2.01 14.545c.182 3.614.887 7.268 2.652 10.426a16.915 16.915 0 0 0 3.426 4.293l-3.322 3.613a53.863 53.863 0 0 1-3.412-7.258c-1.463-3.827-2.496-7.88-2.398-11.977a22.549 22.549 0 0 1 5.063-13.643m34.11 119.79a20.993 20.993 0 0 0-1.727 6.516c-.163 1.665-.122 3.376.396 4.967a8.585 8.585 0 0 0 1.096 2.215l-1.557 1.414a28.654 28.654 0 0 1-.902-3.57c-.347-1.865-.509-3.789-.197-5.66a11.458 11.458 0 0 1 2.891-5.881m-8.717 3.264a31.035 31.035 0 0 0-3.111 10.635c-.286 2.721-.202 5.53.715 8.107a13.086 13.086 0 0 0 1.975 3.615l-2.807 2.307a42.361 42.361 0 0 1-1.627-5.828c-.618-3.037-.899-6.185-.354-9.236a17.48 17.48 0 0 1 5.209-9.6m-13.721 7.449a31.035 31.035 0 0 0-3.111 10.635c-.286 2.721-.202 5.53.715 8.107a13.086 13.086 0 0 0 1.975 3.615l-2.807 2.307a42.354 42.354 0 0 1-1.625-5.828c-.618-3.037-.901-6.185-.355-9.236a17.48 17.48 0 0 1 5.209-9.6m-149.03 9.688c.147.009.294.033.434.078.295.094.565.276.746.527.181.251.27.572.227.879a1.619 1.619 0 0 1-.254.629c-.122.193-.265.371-.395.559-.415.602-.678 1.292-.977 1.959-.299.667-.647 1.333-1.186 1.826a3.057 3.057 0 0 1-2.553.756 2.868 2.868 0 0 1-1.25-.549 2.797 2.797 0 0 1-.846-1.072 2.698 2.698 0 0 1-.217-1.398c.055-.474.244-.932.541-1.305.356-.446.853-.759 1.365-1.01.513-.251 1.05-.449 1.553-.719.519-.278.997-.63 1.531-.877.267-.123.549-.22.84-.264.145-.022.293-.028.439-.019m-18.14.643c1.203-.008 2.394.143 3.545.518.445.145.887.323 1.262.604.375.28.682.67.793 1.125.063.261.06.536.002.799-.058.262-.17.512-.318.736-.297.448-.732.79-1.197 1.059-1.507.869-3.329 1-5.066.902-1.737-.101-3.464-.416-5.203-.361-2.196.069-4.344.73-6.322 1.686-1.978.956-3.8 2.203-5.57 3.504-2.189 1.609-4.348 3.349-5.836 5.621-.257.392-.499.807-.857 1.109a1.584 1.584 0 0 1-.615.33 1.097 1.097 0 0 1-.689-.033c-.277-.114-.489-.357-.607-.633-.119-.275-.154-.581-.15-.881.011-.985.415-1.937.984-2.74.57-.804 1.301-1.477 2.043-2.125 5.192-4.535 11.248-8.139 17.838-10.162 1.928-.592 3.962-1.044 5.967-1.057m26.15 1.645a1.99 1.99 0 0 1 .543.066c.354.097.683.319.855.643.129.242.164.529.129.801a2.151 2.151 0 0 1-.27.771c-.266.479-.654.881-.941 1.348-.398.647-.595 1.403-.656 2.16-.061.757.011 1.519.117 2.271.12.851.287 1.708.207 2.564-.04.428-.145.854-.338 1.238a2.39 2.39 0 0 1-.844.955c-.331.208-.72.316-1.111.33a2.722 2.722 0 0 1-1.143-.217c-.722-.301-1.305-.872-1.744-1.52a6.034 6.034 0 0 1-.865-4.756c.276-1.133.88-2.156 1.514-3.135.492-.761 1.01-1.513 1.662-2.143.652-.63 1.45-1.137 2.338-1.318.18-.037.363-.059.547-.061m-12.24 11.05c.114.002.229.013.342.035.349.07.675.244.938.484.263.24.463.545.596.875.265.661.254 1.407.088 2.1-.121.505-.32.988-.445 1.492s-.171 1.05.014 1.535c.133.35.377.646.65.902s.578.477.863.719c.259.219.505.461.676.754.171.293.26.645.188.977a1.196 1.196 0 0 1-.332.588c-.163.161-.366.28-.582.354-.433.148-.907.122-1.355.031a5.136 5.136 0 0 1-2.486-1.297c-1.049-.988-1.657-2.373-1.945-3.785-.162-.794-.232-1.611-.127-2.414.105-.803.388-1.593.883-2.234.28-.363.63-.68 1.041-.883a2.2 2.2 0 0 1 .996-.232m11.76 3.619c.142.003.284.016.424.039.56.092 1.101.365 1.455.809.258.323.407.718.535 1.111.128.393.241.796.438 1.16.363.671.991 1.164 1.666 1.518.675.354 1.406.584 2.117.859.541.209 1.076.446 1.553.775.477.329.897.758 1.15 1.279.205.423.296.9.271 1.369-.024.469-.163.93-.391 1.342-.454.823-1.257 1.427-2.15 1.721-.929.305-1.955.29-2.887 0a5.448 5.448 0 0 1-2.412-1.611c-1.206-1.382-1.715-3.264-2.918-4.648-.45-.518-.989-.955-1.428-1.482a3.58 3.58 0 0 1-.549-.865 2.191 2.191 0 0 1-.186-1c.037-.527.307-1.02.688-1.387.38-.367.864-.614 1.367-.775a3.87 3.87 0 0 1 1.256-.199m-73.51 13.43c.331.007.664.104.932.299.323.235.539.601.637.988.098.387.085.794.018 1.188-.174 1.019-.708 1.946-1.355 2.752-.647.806-1.41 1.509-2.127 2.254-2.325 2.416-4.166 5.267-5.658 8.27-1.569 3.157-2.772 6.521-3.266 10.01-.145 1.022-.237 2.083-.732 2.988-.248.453-.596.86-1.041 1.121-.445.262-.99.37-1.49.244-.541-.136-.993-.536-1.275-1.018-.283-.481-.411-1.04-.465-1.596-.188-1.927.476-3.821 1.088-5.658 1.547-4.645 2.861-9.474 5.658-13.492 1.822-2.617 4.203-4.784 6.529-6.965.483-.453.977-.917 1.584-1.182.304-.132.634-.212.965-.205m70.72.072c.412-.022.829.05 1.209.211.808.341 1.401 1.041 1.945 1.729.393.496.78 1 1.252 1.422.472.421 1.04.758 1.666.85.68.099 1.366-.096 2.047-.189a3.536 3.536 0 0 1 1.027-.014c.34.054.672.187.926.418.286.26.457.634.516 1.016s.014.772-.082 1.146c-.147.571-.422 1.125-.865 1.514a2.646 2.646 0 0 1-1.313.596c-.48.079-.976.048-1.453-.049-.954-.194-1.835-.64-2.748-.979-1.296-.481-2.671-.754-3.918-1.352-.623-.299-1.214-.68-1.693-1.178-.479-.498-.844-1.118-.982-1.795a2.98 2.98 0 0 1 .027-1.322 2.73 2.73 0 0 1 .621-1.164 2.665 2.665 0 0 1 1.818-.86m8.555 13.639a1.915 1.915 0 0 1 1.25.363c.482.34.807.882.928 1.459.166.79-.035 1.622-.393 2.346-.357.724-.862 1.361-1.348 2.01-3.584 4.766-6.199 10.176-9.357 15.234-3.518 5.634-7.755 10.873-12.92 15.05-3.558 2.876-7.542 5.233-11.797 6.914-.579.229-1.18.447-1.803.438a2.045 2.045 0 0 1-.9-.211 1.478 1.478 0 0 1-.654-.643c-.15-.3-.178-.655-.107-.982a2.1 2.1 0 0 1 .449-.887c.428-.516 1.031-.849 1.615-1.178 5.339-3.01 10.272-6.744 14.582-11.1 5.683-5.743 10.244-12.514 14.15-19.588 1.389-2.518 2.7-5.08 4.219-7.521.208-.335.422-.671.689-.961.267-.29.591-.535.967-.656.14-.045.286-.073.434-.082m45.24 34.18a224.415 224.415 0 0 1-1.693 7.541 199.355 199.355 0 0 1-3.539 12.773 179.672 179.672 0 0 1-4.309 12.156c.376-4.288.992-8.555 1.846-12.773.861-4.255 1.969-8.48 3.693-12.465a42.874 42.874 0 0 1 4-7.232m-85.984 10.777c.317-.027.64.021.916.176.292.164.514.44.635.752s.143.658.09.988c-.106.661-.498 1.241-.941 1.742-1.785 2.02-4.411 3.053-6.965 3.916-5.174 1.748-10.512 3.083-15.953 3.553-3.377.291-6.774.249-10.162.148-.795-.024-1.613-.056-2.34-.377a2.504 2.504 0 0 1-.947-.705 1.807 1.807 0 0 1-.414-1.096 1.733 1.733 0 0 1 .377-1.072c.238-.304.568-.532.93-.668.519-.196 1.091-.206 1.641-.133.549.073 1.083.225 1.623.35 2.937.681 6 .53 9 .211 6.02-.64 12.08-1.979 17.332-4.998 1.251-.719 2.448-1.529 3.707-2.234.368-.206.746-.406 1.156-.502.103-.024.209-.042.314-.051m185.51 16.475a20.76 20.76 0 0 0-1.701 6.434c-.161 1.644-.118 3.332.393 4.902a8.507 8.507 0 0 0 1.078 2.188l-1.533 1.395a28.498 28.498 0 0 1-.889-3.525c-.341-1.841-.5-3.739-.193-5.586a11.332 11.332 0 0 1 2.846-5.807m-13.08.596a31.52 31.52 0 0 0-3.174 10.82c-.292 2.768-.206 5.626.729 8.248a13.214 13.214 0 0 0 2.02 3.68l-2.863 2.346a42.869 42.869 0 0 1-1.66-5.928c-.63-3.09-.916-6.294-.359-9.398a17.762 17.762 0 0 1 5.313-9.768m-13.426 2.373a35.497 35.497 0 0 0-3.709 12.408c-.339 3.175-.234 6.456.854 9.459a15.067 15.067 0 0 0 2.354 4.219l-3.344 2.691a48.315 48.315 0 0 1-1.939-6.799c-.734-3.542-1.068-7.218-.422-10.777a20.134 20.134 0 0 1 6.207-11.201m-84.41 13.639c.297 2.758-.945 6.449-1.23 9.693-.274 3.121-.614 6.258-.461 9.387.206 4.196.616 8.434 1.846 12.467-2.813-3.313-4.303-7.618-4.924-11.85-.509-3.47.238-7.06 1.076-10.465.793-3.218 2.861-6.649 3.693-9.232m-77.56 17.17c.387 0 .774.029 1.158.09.507.08 1.015.22 1.443.504.214.142.407.319.555.529.148.21.251.453.287.707.061.43-.076.877-.332 1.229-.256.351-.622.611-1.021.783-.798.344-1.696.342-2.564.383-2.633.123-5.343.742-7.398 2.393-.823.661-1.523 1.473-2.395 2.068a5.275 5.275 0 0 1-1.877.822 4.213 4.213 0 0 1-2.039-.06c-.476-.139-.932-.378-1.277-.734-.345-.356-.574-.838-.574-1.334 0-.542.269-1.059.641-1.453.372-.395.842-.681 1.318-.939 2-1.087 4.203-1.75 6.313-2.611 1.441-.589 2.847-1.274 4.326-1.76 1.11-.364 2.275-.615 3.438-.615m15.59.621c.166.012.327.048.477.121.261.129.459.373.543.652.068.226.065.471.012.701-.053.23-.153.446-.275.648-.244.404-.573.754-.824 1.154-.398.634-.588 1.372-.869 2.066-.296.73-.703 1.425-1.273 1.969-.57.543-1.315.925-2.102.969a2.54 2.54 0 0 1-1.242-.238 2.175 2.175 0 0 1-.934-.85c-.255-.44-.335-.966-.291-1.473.044-.506.204-.996.4-1.465.476-1.137 1.191-2.196 2.176-2.938 1.059-.797 2.379-1.191 3.699-1.307.166-.014.338-.024.504-.012m3.633 5.127a2.66 2.66 0 0 1 1.645.496c.476.337.842.818 1.074 1.354.263.607.354 1.273.385 1.934.031.66.005 1.325.051 1.984.063.915.261 1.819.287 2.736.013.459-.018.92-.129 1.365a3.145 3.145 0 0 1-.594 1.229c-.307.377-.72.666-1.176.834a2.958 2.958 0 0 1-1.436.146c-.936-.134-1.79-.718-2.285-1.523-.314-.511-.488-1.098-.588-1.689-.1-.592-.13-1.194-.174-1.793-.11-1.493-.313-3.03.109-4.461.193-.657.522-1.283 1.01-1.766.486-.483 1.138-.813 1.822-.846m-7.213 11.895c.21.007.42.043.623.1.405.114.784.309 1.148.52.921.531 1.794 1.189 2.395 2.066.368.537.628 1.152.717 1.797a3.35 3.35 0 0 1-.283 1.904 2.919 2.919 0 0 1-1.516 1.424 2.795 2.795 0 0 1-2.074 0c-.506-.214-.937-.584-1.287-1.01-.35-.424-.625-.904-.889-1.387-.518-.947-1.01-1.968-.98-3.047.012-.49.134-.983.393-1.398.259-.416.661-.75 1.131-.887.202-.059.413-.081.623-.074m9.451 13.13a4.1 4.1 0 0 1 .809.109c.719.166 1.406.488 1.957.979.615.547 1.038 1.28 1.633 1.85a4.671 4.671 0 0 0 2.084 1.133 5.653 5.653 0 0 0 2.377.065c1.293-.233 2.495-.876 3.482-1.742.444-.39.849-.823 1.299-1.205.45-.382.958-.717 1.531-.861a2.458 2.458 0 0 1 1.086-.031c.358.072.7.232.98.467.334.279.578.662.707 1.078.129.416.145.862.068 1.291-.153.858-.67 1.619-1.318 2.201-1.301 1.167-3.068 1.657-4.789 1.959-2.348.412-4.81.533-7.07-.219-1.73-.575-3.252-1.628-4.787-2.611-.608-.389-1.235-.781-1.68-1.35a2.453 2.453 0 0 1-.473-.963c-.078-.352-.06-.73.084-1.061.108-.249.283-.467.496-.635.213-.168.462-.288.723-.361.261-.073.532-.099.803-.092m60.41 4.531a101.589 101.589 0 0 1 12.311 24.773 72.812 72.812 0 0 1-12.313-24.775m-127.62 1.844c.151 0 .302.015.451.045a2.117 2.117 0 0 1 1.381.953c.298.493.361 1.126.143 1.658-.139.337-.381.623-.652.865-.272.243-.575.446-.871.658a18.674 18.674 0 0 0-3.482 3.264c-3.103 3.732-4.783 8.404-6.746 12.842-1.098 2.483-2.312 4.95-2.83 7.615-.256 1.316-.345 2.685-.871 3.918-.26.609-.634 1.187-1.168 1.578a2.393 2.393 0 0 1-.896.412 1.945 1.945 0 0 1-.982-.031 2.042 2.042 0 0 1-1.031-.762 2.921 2.921 0 0 1-.492-1.197c-.212-1.161.136-2.341.436-3.482.456-1.736.807-3.499 1.307-5.223 1.58-5.447 4.607-10.352 7.834-15.02 1.675-2.42 3.434-4.821 5.658-6.748.459-.398.942-.777 1.492-1.035a3.112 3.112 0 0 1 1.322-.314m79.11 5.04c.105.011.208.036.307.074.197.077.374.203.521.355.294.304.468.705.598 1.107.592 1.841.367 3.863-.252 5.695-.619 1.832-1.611 3.511-2.578 5.186-2.933 5.077-5.711 10.26-9.141 15.02-5.506 7.635-12.57 14-19.805 20.02-3.102 2.582-6.357 5.171-10.229 6.311-1.081.318-2.194.518-3.264.871-.363.12-.725.258-1.105.297-.19.019-.383.011-.568-.035a1.14 1.14 0 0 1-.502-.262 1.06 1.06 0 0 1-.273-.414 1.212 1.212 0 0 1-.068-.492c.021-.333.171-.65.385-.906s.488-.456.781-.615c.293-.159.605-.281.916-.402 2.693-1.055 5.387-2.156 7.834-3.699 4.749-2.995 8.32-7.486 11.971-11.752 3.848-4.496 7.884-8.835 11.533-13.494 2.793-3.566 5.352-7.309 7.836-11.1.914-1.395 1.821-2.802 2.516-4.318.695-1.516 1.174-3.155 1.184-4.822.003-.514-.037-1.038.096-1.535.067-.248.178-.489.346-.684.168-.195.394-.342.646-.393.104-.021.211-.025.316-.014m67.13 26.21a381.76 381.76 0 0 0 12.158 14.311c7.443 8.338 15.257 16.354 23.545 23.854a268.265 268.265 0 0 0 25.391 20.313 137.568 137.568 0 0 1-30.777-18.928c-8.91-7.253-16.944-15.68-23.08-25.391a86.994 86.994 0 0 1-7.232-14.158m-118.15 30.826c.39.023.779.11 1.127.289s.652.454.832.801c.158.306.215.659.186 1a2.484 2.484 0 0 1-.309.979c-.332.604-.859 1.073-1.4 1.5-2.254 1.776-4.895 3.01-7.617 3.918-4.403 1.469-9.07 2.118-13.711 1.959-3.092-.106-6.262-.599-8.924-2.176-.714-.423-1.395-.931-1.895-1.594s-.807-1.499-.717-2.324c.039-.353.151-.7.336-1a2.08 2.08 0 0 1 .752-.736 2.31 2.31 0 0 1 1.283-.27c.442.029.872.163 1.273.352.802.377 1.486.963 2.232 1.441 2.441 1.564 5.495 1.927 8.375 1.596 2.88-.332 5.642-1.306 8.383-2.25 1.912-.658 3.833-1.307 5.658-2.176.66-.314 1.308-.657 1.992-.916.684-.259 1.413-.433 2.143-.391m211.31 35.27a190.52 190.52 0 0 0-17.945 4.107c-4.111 1.154-8.21 2.459-11.986 4.451-3.777 1.993-7.244 4.718-9.6 8.279-.469.71-.896 1.459-1.135 2.275-.239.817-.279 1.711.019 2.508.27.721.806 1.328 1.457 1.74.651.412 1.411.636 2.178.707 1.534.142 3.056-.304 4.518-.791 8.387-2.797 16.299-7.108 22.98-12.898a61.545 61.545 0 0 0 9.514-10.379" fill="red"/></g></svg>