<svg xmlns="http://www.w3.org/2000/svg" width="812.82" height="947.48" viewBox="0 0 812.818 947.479"><g fill-rule="evenodd"><path d="M5.497 5.501V516.553l.332.35a400.909 435.273 0 0 0 400.576 425.082A400.909 435.273 0 0 0 806.84 517.057l.477-.504V5.501H5.496" fill="red"/><g fill="#fff" stroke="#000" stroke-width="3"><path d="M212.35 398.968a51.179 51.179 0 0 1 6.153 13.845 51.164 51.164 0 0 1 1.538 8.03 16.463 16.463 0 0 0 5.128-9.914c.531-4.13-.596-8.45-3.077-11.794l-9.743-.171z"/><path d="M222.59 397.668a51.179 51.179 0 0 1 6.153 13.845 51.164 51.164 0 0 1 1.538 8.03 16.463 16.463 0 0 0 5.128-9.914c.531-4.13-.596-8.45-3.077-11.794l-9.743-.171zM200.88 394.768a51.179 51.179 0 0 1 6.153 13.845 51.164 51.164 0 0 1 1.538 8.03 16.463 16.463 0 0 0 5.128-9.914c.531-4.13-.596-8.45-3.077-11.794l-9.743-.171z"/><path d="M191.65 391.348a51.179 51.179 0 0 1 6.153 13.845 51.164 51.164 0 0 1 1.538 8.03 16.463 16.463 0 0 0 5.128-9.914c.531-4.13-.596-8.45-3.077-11.794l-9.743-.171zM209.43 443.848a51.179 51.179 0 0 0 6.153-13.845 51.164 51.164 0 0 0 1.538-8.03 16.463 16.463 0 0 1 5.128 9.914c.531 4.13-.596 8.45-3.077 11.794l-9.743.171z"/><path d="M219.34 444.188a51.179 51.179 0 0 0 6.153-13.845 51.164 51.164 0 0 0 1.538-8.03 16.463 16.463 0 0 1 5.128 9.914c.531 4.13-.596 8.45-3.077 11.794l-9.743.171zM199.52 441.108a51.179 51.179 0 0 0 6.153-13.845 51.164 51.164 0 0 0 1.538-8.03 16.463 16.463 0 0 1 5.128 9.914c.531 4.13-.596 8.45-3.077 11.794l-9.743.171z"/></g><g fill="#03f" stroke="#000" stroke-width="5"><path d="m444.88 725.7-8.05 7.721a34.989 34.989 0 0 1 2.693 13.813c-.076 7.263-2.492 14.483-6.801 20.33a30.488 30.488 0 0 0 12.955-9.449c2.372-2.976 4.181-6.415 5.162-10.09.981-3.677 1.122-7.59.281-11.301a22.13 22.13 0 0 0-6.236-11.02zM608.97 727.09a35.613 35.613 0 0 1 2.764 14.11c-.078 7.424-2.558 14.805-6.978 20.77a31.193 31.193 0 0 0 13.294-9.653c2.429-3.037 4.284-6.55 5.291-10.306 1.01-3.757 1.155-7.757.294-11.55a22.533 22.533 0 0 0-6.399-11.26l-8.265 7.888zM283.22 732.16l-8.34 7.949a35.853 35.853 0 0 1 2.789 14.221c-.078 7.483-2.582 14.922-7.04 20.93a31.43 31.43 0 0 0 13.416-9.729c2.45-3.06 4.321-6.597 5.338-10.383 1.017-3.786 1.167-7.818.299-11.641a22.68 22.68 0 0 0-6.459-11.348z"/></g></g><g stroke="#000"><g stroke-linecap="round" stroke-width="8"><path d="M5.5 5.5v247.42h801.82V5.5H5.5z" fill="#fff"/><path d="M5.497 64.74v128.93h801.82V64.74H5.497z" fill="red"/><path d="M127.49 64.74v34.21a30.258 30.258 0 0 1 30.258 30.258 30.258 30.258 0 0 1-30.258 30.26v34.21h73.3v-34.21a30.258 30.258 0 0 0 30.258-30.26A30.258 30.258 0 0 0 200.79 98.95V64.74h-73.3zm227.13 0v34.21a30.258 30.258 0 0 1 30.258 30.258 30.258 30.258 0 0 1-30.258 30.26v34.21h73.3v-34.21a30.258 30.258 0 0 0 30.258-30.26A30.258 30.258 0 0 0 427.92 98.95V64.74h-73.3zm227.13 0v34.21a30.258 30.258 0 0 1 30.258 30.258 30.258 30.258 0 0 1-30.258 30.26v34.21h73.3v-34.21a30.258 30.258 0 0 0 30.258-30.26A30.258 30.258 0 0 0 655.05 98.95V64.74h-73.3z" fill="gold"/><path d="m235.23 734.8-80.45 109.96a400.909 435.273 0 0 0 251.623 97.219 400.909 435.273 0 0 0 251.643-97.2l-80.46-109.97-85.71 117.14-85.47-116.82-85.47 116.82-85.71-117.14z" fill="#fff"/></g><g fill-rule="evenodd"><path d="M5.497 5.501V516.553l.332.35a400.909 435.273 0 0 0 400.576 425.082A400.909 435.273 0 0 0 806.84 517.057l.477-.504V5.501H5.496z" fill="none" stroke-width="11"/><g stroke-width="5"><g fill="#03f"><path d="M98.46 408.53a37.351 37.351 0 0 0-10.877 1.746c8.571 2.314 16.345 7.485 21.789 14.498a41.308 41.308 0 0 1 7.463 15.432l13.768 1.33a26.097 26.097 0 0 0-1.852-15.43c-1.911-4.233-4.968-7.918-8.666-10.729-3.698-2.81-8.03-4.756-12.543-5.836a37.13 37.13 0 0 0-9.082-1.012zM66.738 428.98c-4.422.089-8.829.96-12.943 2.582 8.708 1.731 16.813 6.37 22.717 13a41.304 41.304 0 0 1 8.484 14.893l13.826.402a26.102 26.102 0 0 0-2.887-15.271c-2.192-4.095-5.49-7.566-9.369-10.121-3.879-2.555-8.326-4.205-12.906-4.979a36.837 36.837 0 0 0-5.03-.496 29.932 29.932 0 0 0-1.895-.001zM49.555 452.85a37.456 37.456 0 0 0 1.395 19.922c1.555 4.377 3.949 8.473 7.137 11.852 3.188 3.378 7.179 6.02 11.592 7.475a26.097 26.097 0 0 0 15.539.199l-2.789-13.547a41.354 41.354 0 0 1-16.14-5.779c-7.552-4.667-13.524-11.845-16.736-20.12M376.08 719.95a26.092 26.092 0 0 0-7.863 13.404c-1.04 4.527-.838 9.312.406 13.787 1.244 4.475 3.514 8.641 6.457 12.234a37.466 37.466 0 0 0 16.334 11.494c-5.424-7.03-8.483-15.851-8.574-24.729a41.317 41.317 0 0 1 3.395-16.801l-10.154-9.391zM233.89 721.02a26.105 26.105 0 0 0-7.863 13.406c-1.04 4.527-.836 9.31.408 13.785s3.512 8.643 6.455 12.236a37.462 37.462 0 0 0 16.334 11.492c-5.424-7.03-8.483-15.851-8.574-24.729a41.335 41.335 0 0 1 3.396-16.801l-10.156-9.391zM208.36 724.17a26.101 26.101 0 0 0-7.861 13.406c-1.04 4.527-.838 9.31.406 13.785s3.512 8.643 6.455 12.236a37.462 37.462 0 0 0 16.334 11.492c-5.424-7.03-8.483-15.851-8.574-24.729a41.335 41.335 0 0 1 3.396-16.801l-10.156-9.391zM407.87 725.49a26.094 26.094 0 0 0-7.861 13.406c-1.04 4.527-.838 9.31.406 13.785s3.512 8.643 6.455 12.236a37.462 37.462 0 0 0 16.334 11.492c-5.424-7.03-8.483-15.849-8.574-24.727a41.344 41.344 0 0 1 3.396-16.803l-10.156-9.391z"/></g><path d="M262.91 497.56c-1.417 8.319-5.862 16.09-12.317 21.523-6.455 5.435-14.867 8.494-23.305 8.475-4.95-.012-9.854-1.041-14.804-1.08-6.646-.052-13.187 1.681-19.828 1.934-7.985.304-15.97-1.559-23.281-4.784-7.311-3.225-13.978-7.785-20.08-12.944-3.389-2.865-6.646-5.956-9.114-9.646-2.467-3.689-4.114-8.04-4.01-12.477.077-3.265 1.089-6.501.75-9.749-.215-2.059-.963-4.02-1.655-5.969-.692-1.951-1.341-3.961-1.345-6.03-.003-1.653.41-3.285 1-4.828.592-1.543 1.363-3.01 2.109-4.485.746-1.475 1.472-2.968 1.967-4.546.495-1.577.754-3.25.546-4.89-.228-1.794-1.016-3.499-2.151-4.907-1.135-1.408-2.609-2.526-4.223-3.343-3.106-1.572-6.65-2.02-10.124-2.25-1.281-.084-2.571-.141-3.847-.005-1.277.136-2.548.473-3.652 1.13-1.369.815-2.43 2.106-3.058 3.57-.628 1.464-.834 3.093-.691 4.68.296 3.288 2.137 6.404 4.875 8.249a10.485 10.485 0 0 1-5.999-3.375c-1.195-1.36-2.01-3-2.865-4.599-.853-1.597-1.78-3.198-3.134-4.4-1.993-1.769-4.767-2.5-7.427-2.356-2.661.144-5.223 1.097-7.571 2.356-2.815 1.51-5.403 3.491-7.413 5.974-2.01 2.483-3.427 5.482-3.836 8.65-.487 3.779.501 7.71 2.625 10.874 2.067 3.079 5.164 5.417 8.624 6.749a20.152 20.152 0 0 0 10.124 1.125 6.083 6.083 0 0 1-2.695 3.098 6.081 6.081 0 0 1-4.054.651c-1.246-.238-2.389-.864-3.409-1.618-1.02-.754-1.935-1.639-2.891-2.473-.956-.834-1.967-1.626-3.12-2.156-1.153-.53-2.467-.783-3.704-.503-.995.226-1.895.786-2.625 1.5-.913.894-1.575 2.03-1.966 3.246-.391 1.216-.516 2.511-.43 3.786.171 2.549 1.165 4.978 2.396 7.217 1.516 2.758 3.528 5.406 6.374 6.749 2.207 1.041 4.827 1.197 7.124.375a9.122 9.122 0 0 0 4.272-3.2 9.12 9.12 0 0 0 1.728-5.05 16.724 16.724 0 0 1 .75 10.124c-1.271 5.264-5.207 9.731-10.124 11.999-5.153 2.376-11.346 2.376-16.499 0 5.5 5.794 13.385 9.252 21.373 9.374 5.376.082 10.787-1.319 15.374-4.125 5.422-3.317 9.616-8.593 11.624-14.624a213.147 213.147 0 0 0-5.999 13.874c-1.01 2.586-1.978 5.215-2.399 7.96-.42 2.745-.265 5.642.899 8.163 1.363 2.954 3.956 5.131 6.527 7.125 2.57 1.994 5.264 3.98 6.972 6.749 1.616 2.62 2.218 5.764 2.224 8.843.006 3.078-.55 6.127-1.099 9.156a3029.584 3029.584 0 0 0-4.125 23.25c5.285-3.625 9.02-9.435 10.124-15.749.405-2.315.47-4.681.937-6.984.467-2.303 1.4-4.615 3.188-6.14 1.725-1.471 4.174-2.047 6.374-1.5a67.171 67.171 0 0 1 4.5 17.623c1.126 9.839.032 19.949-3.375 29.25a61.09 61.09 0 0 1-9.749 17.248c4.366 1 9.1.321 13-1.872 3.907-2.193 6.951-5.877 8.369-10.127 1.354-4.057 1.24-8.451.834-12.709-.407-4.258-1.093-8.519-.834-12.789.288-4.739 1.814-9.495 4.875-13.12 3.634-4.308 9.375-6.749 14.999-6.374a40.54 40.54 0 0 0-5.999 14.249c-1.781 8.515-.77 17.383 1.125 25.873a126.695 126.695 0 0 0 8.624 25.498 49.499 49.499 0 0 1 .75-24.748c1.988-6.798 5.681-13.395 11.624-17.248a21.64 21.64 0 0 1 13.499-3.375 51.693 51.693 0 0 0-7.499 22.498c-.733 8.183.55 16.6 4.125 23.998 3.874 8.02 10.434 14.713 18.373 18.748a51.8 51.8 0 0 1-10.124-22.873c-1.631-9.409-.579-19.269 3-28.12 2.537 5.323 7.215 9.588 12.749 11.624 4.315 1.587 9.04 1.838 13.603 1.314 4.567-.524 9.01-1.796 13.395-3.189 12.898-4.099 25.762-9.479 35.622-18.748 8.04-7.558 13.772-17.569 16.08-28.359 2.312-10.79 1.173-22.314-3.335-32.386-6.86-15.327-21.691-26.814-38.25-29.622z" fill="gold"/></g><path d="M115.83 451.96a16.062 16.062 0 0 1 5.705 6.968c1.908 4.514 1.627 9.739.045 14.377s-4.375 8.768-7.423 12.605a98.403 98.403 0 0 1-9.556 10.4 61.812 61.812 0 0 0 8.432-22.767c.752-4.768.926-9.743-.562-14.335a20.677 20.677 0 0 0-3.935-7.03l7.294-.222z"/><g stroke-width="5"><path d="M409.83 560.34a103.147 103.147 0 0 0 34.36 13.657c6.114 1.224 12.556 1.872 18.503 0 3.638-1.145 6.926-3.185 10.06-5.363 3.131-2.178 6.162-4.52 9.494-6.377 3.332-1.856 7.03-3.224 10.845-3.25 1.907-.013 3.825.315 5.585 1.048 1.76.733 3.36 1.878 4.55 3.368 1.308 1.637 2.1 3.67 2.31 5.755.21 2.085-.156 4.217-.988 6.14-1.205 2.787-3.347 5.089-5.778 6.909-2.431 1.82-5.159 3.197-7.879 4.546-2.273 1.127-4.575 2.257-6.536 3.866-1.961 1.61-3.58 3.771-4.04 6.267-.29 1.58-.102 3.218.331 4.765.433 1.547 1.104 3.01 1.794 4.465.691 1.45 1.406 2.893 1.933 4.41.527 1.517.864 3.121.771 4.724-.117 2.01-.905 3.934-1.915 5.68-1.01 1.746-2.243 3.35-3.354 5.03-4.241 6.421-6.664 13.918-11.01 20.266-6.647 9.7-17.259 15.983-24.671 25.11-5.992 7.38-9.756 16.455-16.301 23.35-1.251 1.318-2.606 2.555-4.15 3.515-1.544.96-3.289 1.636-5.102 1.772-1.804.135-3.605-.265-5.342-.77-1.737-.505-3.449-1.12-5.231-1.432-4.796-.841-9.741.581-14.08 2.794-4.338 2.213-8.227 5.196-12.355 7.779-3.855 2.413-7.95 4.498-11.415 7.443-1.733 1.473-3.3 3.161-4.489 5.098-1.19 1.938-1.993 4.135-2.159 6.403-.127 1.746.129 3.525.8 5.142.671 1.617 1.761 3.065 3.165 4.11 1.652 1.229 3.684 1.869 5.726 2.134 2.042.265 4.112.176 6.169.068 1.771-.092 3.549-.198 5.283-.565 1.735-.367 3.437-1.01 4.849-2.078 1.51-1.145 2.629-2.735 3.524-4.406 1.834-3.42 2.829-7.258 4.846-10.573 1.526-2.509 3.636-4.679 6.168-6.168a16.519 16.519 0 0 1 9.692-2.203 41.935 41.935 0 0 0-11.01 8.371c-1.318 1.4-2.549 2.904-3.451 4.603-.902 1.699-1.467 3.608-1.395 5.53.085 2.283 1.085 4.497 2.643 6.168 1.52 1.63 3.554 2.755 5.723 3.265 2.169.511 4.466.416 6.613-.182a14.578 14.578 0 0 0 6.608-3.965c2.69-2.824 4.115-6.581 5.727-10.133a84.157 84.157 0 0 1 6.608-11.895 47.693 47.693 0 0 0-2.203 7.93c-.345 1.846-.58 3.723-.498 5.6.082 1.876.492 3.759 1.379 5.414.888 1.657 2.232 3.043 3.77 4.125 1.537 1.081 3.266 1.868 5.04 2.484 1.784.618 3.641 1.071 5.529 1.139 1.887.068 3.812-.263 5.485-1.139 2.383-1.247 4.132-3.575 4.846-6.168.829-3.01.321-6.223-.441-9.252-.775-3.081-1.824-6.128-3.524-8.811a20.396 20.396 0 0 0-4.846-5.287 8.337 8.337 0 0 1 6.368 1.432 8.34 8.34 0 0 1 3.324 5.617c.155 1.219.037 2.464.239 3.676.101.606.286 1.205.608 1.728.322.524.788.969 1.356 1.204.419.173.883.227 1.335.185a3.962 3.962 0 0 0 1.303-.37c.822-.385 1.52-.986 2.208-1.577 7.172-6.154 14.97-12.211 24.23-14.1 8.727-1.778 18.201.549 25.11 6.168a37.645 37.645 0 0 1-11.895-11.895 37.564 37.564 0 0 1-4.846-11.895 52.658 52.658 0 0 0 17.18 4.406 52.708 52.708 0 0 0 22.469-3.084 42.29 42.29 0 0 1-13.657-11.895 42.301 42.301 0 0 1-7.05-14.979c8.328 5.43 18.254 8.377 28.2 8.371a51.864 51.864 0 0 0 25.993-7.05c-7.254-.791-14.207-4.11-19.385-9.252a32.65 32.65 0 0 1-7.93-12.776c6.675 4.749 15.28 6.697 23.35 5.287 6.725-1.176 13.03-4.642 17.622-9.692-6.166.254-12.401-1.824-17.18-5.727-4.211-3.438-7.236-8.169-9.252-13.217-4.375-10.956-4.147-23.11-5.727-34.804a112.277 112.277 0 0 0-8.811-30.839c-3.176-7.082-7.107-13.868-12.139-19.778-5.03-5.91-11.194-10.933-18.26-14.14-10.253-4.661-22.03-5.319-33.1-3.228-11.07 2.091-21.494 6.801-31.22 12.48a164.46 164.46 0 0 0-37.01 29.517z" fill="gold"/><g fill="#03f"><path d="M585.01 722.35a41.331 41.331 0 0 0-3.396 16.801c.091 8.878 3.15 17.7 8.575 24.728a37.479 37.479 0 0 1-16.334-11.493c-2.943-3.594-5.212-7.761-6.456-12.236-1.244-4.475-1.447-9.259-.407-13.786a26.098 26.098 0 0 1 7.863-13.406l10.156 9.391zM558.2 727.11a41.331 41.331 0 0 0-3.396 16.801c.091 8.878 3.15 17.7 8.575 24.728a37.479 37.479 0 0 1-16.334-11.493c-2.943-3.594-5.212-7.761-6.456-12.236-1.244-4.475-1.447-9.259-.407-13.786a26.098 26.098 0 0 1 7.863-13.406l10.156 9.391z"/></g><path d="M548.06 283.4a353.573 353.573 0 0 1-29.471 13.986c-6.846 2.87-14.08 5.572-21.479 4.994-5.123-.4-9.975-2.35-14.852-3.971-4.877-1.62-10.06-2.939-15.12-2.023-4.138.749-7.878 2.947-11.225 5.494-3.346 2.546-6.39 5.472-9.756 7.992-8.542 6.397-18.808 9.957-28.471 14.486-9.909 4.645-19.649 10.716-25.475 19.98-5.358 8.521-6.87 19.218-4.773 29.06 2.096 9.845 7.651 18.807 15.06 25.623 7.406 6.816 16.599 11.544 26.27 14.334 9.671 2.79 19.82 3.691 29.881 3.408 15.09-.424 29.976-3.467 44.668-6.926 3.373 8.02 8.739 15.16 15.271 20.91 8.554 7.535 19.2 12.749 30.471 14.486 9.588 1.478 19.38.462 28.971-1a315.51 315.51 0 0 0 23.477-4.494c-4.162 2.455-7.409 6.423-8.992 10.988-1.864 5.377-1.353 11.56 1.5 16.484a19.32 19.32 0 0 0 6.992 6.992c-.09-12.854 6.464-25.577 16.982-32.967 9.691-6.809 21.799-8.958 33.467-10.988 5.133-.893 10.31-1.799 15.516-1.602.014 0 .029 0 .043.002.469 2.668.628 5.386.426 8.092-.453 6.06-2.66 11.859-5.309 17.33-5.799 11.976-14.194 22.837-24.51 31.05-5.52 4.396-12.11 7.863-19.13 9.06a31.199 31.199 0 0 1-5.285.432 25.103 25.103 0 0 0-1.045-1.492c-5.01-6.613-13.809-9.19-20.564-14.02-8.506-6.078-17.525-11.536-27.27-15.332-9.74-3.796-20.249-5.897-30.676-5.148-6.726.483-13.304 2.13-19.902 3.52-6.598 1.389-13.339 2.529-20.06 1.975-10.764-.887-20.765-6.05-31.469-7.492-14.704-1.985-29.31 3.142-43.955 5.496-17.629 2.833-35.643 1.646-53.45 2.996-15.251 1.157-30.819 4.372-43.46 12.986-15.476 10.549-24.782 27.876-32.467 44.955-4.987 11.08-9.568 22.428-12.191 34.29-2.623 11.867-3.234 24.341-.297 36.13 2.166 8.698 6.306 16.986 12.488 23.477 5.303 5.568 12.32 9.823 19.98 10.49a24.95 24.95 0 0 0 14.984-3.496c-3.439 4.597-9.252 7.309-14.984 6.992-3.864-.214-7.624-1.704-11.488-1.498-3.692.196-7.203 1.976-9.85 4.557-2.647 2.581-4.472 5.92-5.635 9.43-1.7 5.133-2.032 10.598-2.645 15.971-.613 5.373-1.572 10.857-4.35 15.496-1.9 3.174-4.594 5.831-7.625 7.951-3.03 2.121-6.399 3.723-9.857 5.04-7.738 2.94-15.926 4.464-23.967 6.432-8.04 1.968-16.1 4.452-22.986 9.05-5.11 3.416-9.576 8.145-11.488 13.986-.907 2.771-1.212 5.786-.516 8.617.697 2.831 2.462 5.453 5.01 6.867 1.417.786 3.02 1.183 4.633 1.363 1.611.18 3.237.152 4.857.135 2.497-.027 4.995-.027 7.492 0a12.767 12.767 0 0 1-2.498-7.992c.144-4.201 2.414-8.129 5.496-10.988 4.328-4.02 10.145-6.112 15.982-6.994a46.697 46.697 0 0 1 2.42-.291 20.818 20.818 0 0 1 3.076-.207 46.525 46.525 0 0 0-3.076.207c-5.384.749-10.481 3.554-13.908 7.783-1.991 2.456-3.439 5.38-3.996 8.492-.388 2.166-.331 4.457.5 6.494.44 1.079 1.095 2.075 1.949 2.867.854.792 1.909 1.376 3.047 1.627 1.141.252 2.324.18 3.49.111a59.294 59.294 0 0 1 3.502-.111h9.49a16.965 16.965 0 0 1-.998-9.49c1-5.433 4.64-10.08 8.99-13.486a35.669 35.669 0 0 1 9.99-5.494 26.432 26.432 0 0 0-9.49 8.492c-2.122 3.126-3.566 6.735-3.996 10.488-.444 3.87.191 7.818 1.498 11.488 1.184 3.324 3.03 6.577 5.994 8.492 1.824 1.179 3.995 1.786 6.166 1.836 2.171.049 4.341-.447 6.322-1.336 5-2.242 8.559-6.759 12.986-9.99 1.285-.938 2.653-1.775 3.801-2.877.574-.551 1.09-1.167 1.48-1.859.391-.693.656-1.463.713-2.256.087-1.205-.308-2.414-.963-3.43-.655-1.015-1.558-1.851-2.533-2.564-2.468-1.807-5.399-2.872-7.992-4.496a21.577 21.577 0 0 1-7.492-7.992 14.617 14.617 0 0 0 5.666 5.684 14.631 14.631 0 0 0 7.82 1.809c3.931-.207 7.6-1.992 10.988-3.996 3.791-2.241 7.418-4.812 11.488-6.492 5.795-2.392 12.272-2.857 18.482-1.998a45.723 45.723 0 0 1 21.479 8.99 40.491 40.491 0 0 1-6.494-17.982 40.427 40.427 0 0 1 1.498-15.984 22.919 22.919 0 0 0 10.49 5.496c5.183 1.157 10.761.429 15.484-1.998a23.277 23.277 0 0 0 9.99-9.99c-3.781 2.878-8.842 4-13.486 2.996-4.321-.936-8.143-3.61-10.99-6.992a26.11 26.11 0 0 1-5.994-14.486 49.602 49.602 0 0 0 20.48 7.992c7.807 1.161 15.823.431 23.477-1.498a76.486 76.486 0 0 0 15.984-5.994 27.698 27.698 0 0 1-15.984 1.998c-5.806-1.013-11.222-3.923-15.484-7.992a33.17 33.17 0 0 1-8.992-14.984 48.106 48.106 0 0 0 17.482 7.492c6.06 1.262 12.347 1.337 18.482.5a63.24 63.24 0 0 0 18.48-5.496 51.13 51.13 0 0 1-15.982-2.996c-9.541-3.433-18.01-9.785-23.977-17.982 6.05 4.741 13.798 7.265 21.479 6.994 7.928-.279 15.716-3.54 21.479-8.992a18.848 18.848 0 0 1-8.863 2.801 18.842 18.842 0 0 1-9.119-1.801c-3.788-1.809-6.893-4.873-9.166-8.402-2.273-3.529-3.756-7.517-4.82-11.578a63.923 63.923 0 0 1-1.998-19.48 16.713 16.713 0 0 0 3.201 9.174 16.72 16.72 0 0 0 7.789 5.811c4.95 1.773 10.474 1.095 15.484-.5 7.875-2.508 14.894-7.15 21.428-12.211 6.533-5.061 12.705-10.601 19.531-15.26 6.345-4.331 13.201-7.863 19.639-12.05 3.03-1.97 5.954-4.087 8.777-6.336a23.355 23.355 0 0 1 2.553-2.09c-.84.71-1.693 1.405-2.553 2.09-4.01 3.771-6.714 8.933-7.438 14.395-.534 4.03-.031 8.161 1.172 12.04 1.203 3.884 3.093 7.532 5.322 10.932 7.58 11.56 19.277 20.339 32.467 24.475 17.567 5.508 36.908 2.89 54.45 8.492 9.05 2.893 17.704 8.263 22.479 16.482 3.649 6.281 4.772 13.72 4.994 20.98.258 8.436-.706 17.205-4.994 24.475-1.414 2.397-3.188 4.608-5.385 6.316-2.197 1.709-4.834 2.9-7.604 3.174-4 .396-7.97-1.104-11.988-.998-4.213.111-8.229 2.01-11.523 4.637-3.294 2.628-5.946 5.964-8.455 9.35-5.082 6.858-9.851 14.465-10.49 22.977-.193 2.566.006 5.181.801 7.629.795 2.447 2.205 4.723 4.193 6.357 2.01 1.65 4.621 2.608 7.213 2.432 2.548-.173 4.981-1.445 6.666-3.365a10.464 10.464 0 0 0 2.58-7.422c.87 3.01 2.846 5.709 5.52 7.355 2.268 1.396 4.946 2.048 7.607 2.125 2.662.077 5.315-.398 7.877-1.125 2.608-.741 5.165-1.757 7.391-3.305 2.226-1.548 4.114-3.659 5.098-6.186 1.162-2.983 1-6.291.998-9.492a90.031 90.031 0 0 1 1.5-16.482 36.375 36.375 0 0 0 0 11.988c.861 5.144 2.91 10.195 6.492 13.986 2.217 2.346 5.03 4.184 8.174 4.93 3.14.746 6.606.33 9.309-1.434 1.539-1 2.793-2.406 3.766-3.965.972-1.559 1.672-3.276 2.229-5.03 1.785-5.614 2.129-11.625 1.498-17.482a54.311 54.311 0 0 0-6.492-20.479 10.129 10.129 0 0 1 5.182 1.262 10.13 10.13 0 0 1 3.809 3.732c1.222 2.097 1.642 4.548 2.305 6.883.331 1.168.729 2.325 1.316 3.387.587 1.062 1.372 2.032 2.373 2.719 1.54 1.056 3.537 1.371 5.359.963 1.822-.408 3.459-1.507 4.631-2.961.999-1.239 1.67-2.721 2.092-4.256.422-1.535.604-3.127.693-4.717.179-3.179 0-6.406.711-9.51.678-2.961 2.151-5.701 4.02-8.1 1.864-2.398 4.115-4.471 6.475-6.385 4.727-3.834 10.05-7.122 15.984-8.492a27.85 27.85 0 0 1 12.486 0 81.665 81.665 0 0 0-33.466-6.994 25.855 25.855 0 0 0 11.488-7.492c2.999-3.399 5.05-7.536 7.992-10.988 4.395-5.167 10.755-8.619 17.482-9.49h-23.476a46.3 46.3 0 0 1 4.496-7.492 46.273 46.273 0 0 1 5.381-6.092c-4.055 2.205-8.79 3.18-13.373 2.594-4.195-.537-8.267-2.283-12.486-1.998a13.22 13.22 0 0 0-6.102 1.992 67.33 67.33 0 0 1-4.889 5.502 13.2 13.2 0 0 1 4.477-5.24c.134-.092.274-.175.412-.262a67.938 67.938 0 0 0 9.1-14.979 67.829 67.829 0 0 0 4.639-15.176c-.921 2.692-2.524 5.153-4.67 7.02-3.756 3.274-9.08 4.667-13.955 3.656-3.06-.634-5.876-2.139-8.461-3.896-2.585-1.757-4.979-3.778-7.523-5.594-2.902-2.071-6.02-3.892-8.521-6.432-1.251-1.27-2.337-2.718-3.068-4.344-.731-1.626-1.095-3.438-.896-5.209.219-1.95 1.11-3.784 2.311-5.336 1.201-1.552 2.705-2.843 4.271-4.03 3.133-2.364 6.641-4.412 8.902-7.621 2.064-2.929 2.891-6.701 2.242-10.225s-4.214-5.617-5.738-8.756a38.181 38.181 0 0 1-1.166-2.691c.422-.048.844-.089 1.264-.148 5.916-.834 11.635-2.682 17.307-4.561 13.273-4.397 26.606-9.07 38.461-16.482 17.336-10.843 30.995-27.558 37.816-46.834 1.945-5.497 3.357-11.275 3.143-17.1-.236-6.413-2.473-12.698-6.105-17.988-3.63-5.287-8.643-9.602-14.373-12.482-5.093-2.561-10.704-3.988-16.365-4.66-5.909-10.309-13.752-19.653-23.596-26.309-10.439-7.06-22.834-10.89-35.35-12.314-18.17-2.067-36.566.769-54.31 5.193-17.74 4.424-35.06 10.432-52.791 14.875h-.002c-.48-7.628 1.61-15.331 5.367-22 3.959-7.03 9.7-12.955 16.207-17.721 10.1-7.397 22.09-12.08 34.465-13.986a86.045 86.045 0 0 1 13.986-1c7.544 8.735 17.795 15.1 28.971 17.982 12.204 3.149 25.15 2.176 37.463-.5a139.627 139.627 0 0 0 28.473-9.49 72.183 72.183 0 0 1-27.973 0c-6.129-1.214-12.141-3.251-17.482-6.494a42.717 42.717 0 0 1-10.49-8.99 52.893 52.893 0 0 0 24.477 2.998c9.755-1.121 19.395-5.198 25.973-12.488 4.938-5.473 7.979-12.627 8.492-19.98a54.996 54.996 0 0 1-22.977 18.482c-5.815 2.488-12.329 3.959-18.482 2.496-5.646-1.342-10.413-4.984-15.16-8.318-2.376-1.668-4.803-3.288-7.43-4.525-2.627-1.237-5.474-2.086-8.377-2.141-3.79-.071-7.483 1.208-10.9 2.848-8.863 4.252-16.385 10.957-25.303 15.09-9.7 4.497-20.56 5.736-30.73 9.03-17.775 5.763-33.518 18.293-41.957 34.965-4.22 8.338-6.613 17.701-6.127 27.03-5.182.222-10.407-.258-15.416-1.602-5.04-1.352-9.873-3.598-13.928-6.879-4.055-3.281-7.305-7.621-8.984-12.559a24.864 24.864 0 0 1-.58-13.943 24.862 24.862 0 0 1 7.07-12.03c-6.294-1.686-13.349-.22-18.449 3.834-5.101 4.054-8.124 10.598-7.902 17.11.119 3.499 1.122 6.939 2.703 10.06 1.581 3.123 3.73 5.939 6.166 8.453a44.96 44.96 0 0 0 14.486 9.99 42.027 42.027 0 0 1-22.479 4.496c-9.332-.753-18.428-4.796-24.975-11.488-4.855-4.962-8.327-11.542-8.49-18.482-.134-5.665 1.938-11.242 5.154-15.906 3.22-4.669 7.556-8.501 12.328-11.566 6.473-4.158 13.721-6.937 20.979-9.49 3.634-1.279 7.307-2.514 11.11-3.133 3.803-.619 7.771-.601 11.434.594 3.227 1.052 6.093 2.966 8.926 4.836s5.732 3.744 8.99 4.697c4.02 1.175 8.353.867 12.395-.215 4.04-1.082 7.84-2.908 11.582-4.781a410.31 410.31 0 0 0 20.479-10.988 42.644 42.644 0 0 1-21.977 1.498c-9.248-1.823-17.837-6.834-23.977-13.986a36.232 36.232 0 0 0 20.479 3.496c7.184-.894 13.972-3.953 19.98-7.99a65.748 65.748 0 0 0 21.479-23.977zm112.11 298.92c.691-2.02 1-4.171.855-6.303a67.57 67.57 0 0 1-.855 6.303zm18.225 27.566c2.307-1.255 4.396-2.904 6.107-4.898a46.337 46.337 0 0 0-6.107 4.898zm-56.35-219.1c8.816 1.147 17.298 4.927 24.919 9.504 4.122 2.476 7.741 5.817 10.869 9.482-12.299 1.93-24.404 4.966-36.34 8.5-18.326 5.426-36.866 12.11-55.945 10.988-10.872-.641-21.752-3.965-30.414-10.566-4.86-3.704-8.976-8.411-11.846-13.807 16.286-4.245 32.568-8.922 49.08-11.992-.576 1.041-1.13 2.102-1.537 3.219-1.218 3.342-2.18 6.808-2.676 10.33-.421 2.988-.24 9.05-.24 9.05s10.464-16.718 18.838-20.994c10.534-5.38 25.17-5.03 35.29-3.713zm-62.42 335.08c.27.851.427 1.736.473 2.627a12.278 12.278 0 0 1-.473-2.627z" fill="gold"/><path d="M685.04 408.61a50.554 50.554 0 0 1 7.189 18.617c1.19 6.985.889 14.169-.307 21.15-1.284 7.503-3.604 14.847-7.086 21.616-3.255 6.327-7.516 12.13-12.537 17.17a71.355 71.355 0 0 1-21.04 14.592" fill="none"/></g><path d="M474.9 550.54a85.37 85.37 0 0 1 15.501-12.651c10.554-6.717 22.433-11.02 33.598-16.66 3.579-1.808 7.123-3.781 10.1-6.468 5.819-5.255 9.1-13.205 8.674-21.03 3.094 3.694 4.786 8.534 4.668 13.35-.118 4.817-2.047 9.568-5.318 13.1-4.2 4.54-10.254 6.888-16.257 8.378-6 1.489-12.202 2.278-18.01 4.416-8.26 3.044-15.31 8.674-21.685 14.746a157.447 157.447 0 0 0-5.421 5.421l-5.855-2.602z"/><g stroke-width="5"><g fill="none" stroke-linecap="round"><path d="M499.48 393.35a43.458 43.458 0 0 0 3.842 16.492M519 390.06a31.546 31.546 0 0 0 4.287 14.827M657.83 409.77a34.888 34.888 0 0 1 6.947 10.799 34.82 34.82 0 0 1 2.196 8.09"/></g><path d="M256.23 432.71a148.478 148.478 0 0 0-30.767-13.332c-11.995-3.656-24.425-5.782-36.921-6.837-3.407-.288-6.828-.497-10.194-1.093-3.367-.596-6.701-1.592-9.633-3.351-4.876-2.925-8.45-8.04-9.23-13.674-.667-4.814.726-9.878 3.76-13.674-6.832 2.393-12.492 7.925-15.04 14.7a25.342 25.342 0 0 0-1.367 12.307c.597 4.362 2.361 8.59 5.226 11.933 2.865 3.342 6.848 5.759 11.183 6.528 4.363.774 8.86-.11 13.08-1.462 4.22-1.352 8.287-3.171 12.559-4.35 8.439-2.327 17.473-2.061 25.981 0 8.2 1.987 15.912 5.58 23.93 8.205a105.133 105.133 0 0 0 17.435 4.102z" fill="#03f"/><path d="M256.23 432.71a100.966 100.966 0 0 1-30.08 3.76c-7.939-.211-15.834-1.362-23.588-3.077-1.176-.26-2.375-.535-3.574-.414-1.585.16-3.072 1.04-4.02 2.321a5.752 5.752 0 0 0-1.083 2.645 5.249 5.249 0 0 0 .4 2.824c.388.867 1.017 1.607 1.714 2.252.697.645 1.467 1.206 2.207 1.802.74.596 1.456 1.235 2.01 2 .557.769.95 1.683.975 2.632.025.932-.303 1.845-.773 2.651-.469.806-1.077 1.52-1.666 2.242s-1.169 1.465-1.57 2.306c-.401.842-.614 1.8-.436 2.715.136.696.496 1.341.986 1.854.49.513 1.106.898 1.767 1.156 1.322.516 2.787.528 4.199.387 1.856-.185 3.698-.626 5.385-1.423 1.687-.798 3.216-1.961 4.332-3.456a10.094 10.094 0 0 0 1.926-7.05 19.38 19.38 0 0 1 12.173-1.72c4.826.905 9.175 3.627 14.02 4.444 3.564.601 7.303.119 10.598-1.367a37.46 37.46 0 0 1-7.179 14.7c-5.949 7.428-14.836 12.435-24.272 13.674a56.957 56.957 0 0 0 22.563 1.709 56.883 56.883 0 0 0 14.358-3.76 40.551 40.551 0 0 1-13.674 17.777c-4.163 3.053-8.874 5.279-13.674 7.179a121.903 121.903 0 0 1-19.14 5.812 39.44 39.44 0 0 0 15.04 5.128c5.02.63 10.156.28 15.04-1.026a16.435 16.435 0 0 0-7.179 8.888c-1.153 3.471-1.131 7.31-2.735 10.598a11.745 11.745 0 0 1-4.794 5.069 11.749 11.749 0 0 1-6.829 1.426c4.645.7 9.411.583 14.02-.342a40.775 40.775 0 0 0 19.828-10.256 78.956 78.956 0 0 1-18.802 25.639 25.721 25.721 0 0 0 14.02 2.393c4.422-.502 8.699-2.181 12.307-4.786a26.75 26.75 0 0 0 9.23-11.965 45.926 45.926 0 0 1-6.153 12.649c-2.049 2.952-4.441 5.655-6.472 8.619-2.032 2.964-3.723 6.271-4.125 9.842-.381 3.379.427 6.824 1.909 9.884 1.482 3.061 3.615 5.766 5.954 8.234a56.936 56.936 0 0 0 20.17 13.674 59.089 59.089 0 0 1-3.419-20.853 59.224 59.224 0 0 1 7.863-28.374 36.624 36.624 0 0 0 12.991 14.7c6.153 3.978 13.53 6.03 20.853 5.812a36.996 36.996 0 0 1-6.495-13.332c-1.681-6.56-1.528-13.451-2.767-20.11a48.792 48.792 0 0 0-4.07-12.368c3.677 9.167 10.546 17.02 19.14 21.879 7.826 4.425 17.03 6.364 25.981 5.47a31.865 31.865 0 0 1-11.623-12.307c-3.786-7.16-4.747-15.602-8.888-22.563a28.188 28.188 0 0 0-11.281-10.598c6.836 6.891 16.01 11.418 25.639 12.649 9.641 1.233 19.676-.847 28.03-5.812a58.324 58.324 0 0 1-15.725-11.281 58.262 58.262 0 0 1-10.256-14.02 65.274 65.274 0 0 0 30.08 2.051 65.311 65.311 0 0 0 26.665-10.939 52.182 52.182 0 0 1-17.777-4.102 52.123 52.123 0 0 1-13.674-8.546 57.973 57.973 0 0 0 21.879-5.47 57.937 57.937 0 0 0 15.725-10.939c-8.089 2.838-17.07 3.081-25.297.684a41.496 41.496 0 0 1-10.598-4.786 41.876 41.876 0 0 1 4.786-5.812 41.612 41.612 0 0 1 8.888-6.837 52.766 52.766 0 0 1-19.828 1.367c-8.07-.982-15.845-3.839-22.904-7.863a73.523 73.523 0 0 1-11.623-8.205 50.369 50.369 0 0 0 16.409 2.735 50.428 50.428 0 0 0 19.828-4.102 42.48 42.48 0 0 1-15.725-6.837 42.413 42.413 0 0 1-10.939-11.281 35.323 35.323 0 0 0 12.991-2.393 35.22 35.22 0 0 0 8.546-4.786 41.043 41.043 0 0 1-17.435-5.128 41.018 41.018 0 0 1-14.7-14.02 23.953 23.953 0 0 0 10.256 2.051 24.008 24.008 0 0 0 12.307-3.76c-6.285.781-12.875-1.416-17.435-5.812-3.287-3.169-5.466-7.298-7.389-11.44-1.922-4.142-3.664-8.41-6.286-12.148-3.03-4.316-7.174-7.81-11.857-10.229-4.683-2.418-9.891-3.772-15.15-4.129-9.353-.635-18.895 1.934-26.665 7.179a63.707 63.707 0 0 0-18.12-.684c-6.782.717-13.404 2.521-19.889 4.631-2.063.672-4.137 1.384-5.981 2.529-1.844 1.144-3.461 2.77-4.214 4.805-.435 1.176-.567 2.444-.578 3.697-.011 1.254.095 2.505.121 3.759.025 1.253-.033 2.521-.364 3.73-.331 1.209-.954 2.364-1.914 3.171-1.094.92-2.534 1.322-3.949 1.524-1.416.202-2.856.231-4.255.527a11.457 11.457 0 0 0-6.837 4.444 18.625 18.625 0 0 0-4.786-5.47c-1.218-.935-2.56-1.722-4.01-2.225-1.451-.503-3.01-.715-4.536-.51-1.558.21-3.039.854-4.338 1.739-1.299.885-2.423 2.01-3.421 3.223-1.888 2.297-3.381 5.058-3.523 8.03a9.403 9.403 0 0 0 .861 4.424 8.638 8.638 0 0 0 2.9 3.439c1.781 1.224 3.992 1.705 6.153 1.709 4.04.008 8.05-1.624 10.939-4.444-1.614 3.872-5.151 6.885-9.23 7.863-1.62.388-3.315.475-4.883 1.036-.784.281-1.535.684-2.138 1.258-.604.574-1.055 1.327-1.183 2.15-.115.739.031 1.495.243 2.213s.49 1.417.649 2.148c.236 1.086.201 2.21.227 3.321.026 1.111.121 2.249.59 3.257.545 1.17 1.572 2.08 2.748 2.612 1.176.532 2.493.705 3.782.642 2.578-.126 5.01-1.156 7.487-1.887 9.04-2.668 18.894-1.327 27.69 2.051 7.672 2.947 14.782 7.44 20.511 13.332a52.293 52.293 0 0 1 8.888 12.307z" fill="gold"/></g><path d="M242.92 360.81c-.773.043-1.535.237-2.203.623-.653.377-1.196.924-1.646 1.529-.451.605-.814 1.27-1.174 1.934-.36.663-.717 1.33-1.154 1.945-.437.615-.96 1.18-1.596 1.586-.706.451-1.526.688-2.344.867-.818.179-1.65.305-2.449.557-.893.281-1.742.721-2.449 1.334-.708.613-1.269 1.404-1.564 2.293-.303.913-.318 1.912-.092 2.848.226.935.686 1.808 1.291 2.557 1.209 1.497 2.953 2.477 4.758 3.145a18.956 18.956 0 0 0 7.125 1.166 61.907 61.907 0 0 1-4.922-2.85c-.554-.356-1.11-.726-1.553-1.213-.443-.487-.768-1.108-.779-1.766a2.167 2.167 0 0 1 .895-1.76 2.273 2.273 0 0 1 1.955-.313c.625.191 1.14.639 1.559 1.141.418.502.759 1.064 1.162 1.578.646.824 1.459 1.522 2.396 1.988.937.466 2 .695 3.043.604a5.426 5.426 0 0 0 3.295-1.535 5.712 5.712 0 0 0 1.627-3.258c.097-.694.068-1.4.146-2.096.078-.696.28-1.409.76-1.92.365-.388.87-.631 1.395-.727.524-.095 1.067-.05 1.584.078 1.575.392 2.871 1.521 3.893 2.783 1.021 1.262 1.831 2.684 2.844 3.953a15.583 15.583 0 0 0 4.145 3.627 27.433 27.433 0 0 0-3.627-8.938c-1.182-1.874-2.59-3.602-4.145-5.182-2.412-2.451-5.22-4.57-8.42-5.828-.957-.376-1.954-.676-2.98-.746a6.43 6.43 0 0 0-.773-.006zm20.305 48.721a5.436 5.436 0 0 0-.855.049 3.872 3.872 0 0 0-1.592.613c-.474.323-.87.768-1.111 1.289-.366.791-.361 1.724-.092 2.553s.788 1.558 1.402 2.176c1.23 1.235 2.828 2.031 4.176 3.135a11.557 11.557 0 0 1 3.996 6.723 11.563 11.563 0 0 1-1.254 7.721 22.336 22.336 0 0 0 3.475-13.164c-.112-2.07-.526-4.149-1.443-6.01-.918-1.859-2.368-3.492-4.225-4.414-.771-.383-1.621-.641-2.477-.672z"/><g stroke-width="5"><g fill="none" stroke-linecap="round"><path d="M374.51 449.8a42.713 42.713 0 0 1-16.842 9.04c-10.17 2.765-21.364 1.566-30.717-3.291a33.501 33.501 0 0 1 3.291 12.25 33.622 33.622 0 0 1-4.571 19.381 30.891 30.891 0 0 0-7.679-10.06 30.88 30.88 0 0 0-12.799-6.582c4.133 5.652 6.238 12.756 5.851 19.747a30.826 30.826 0 0 1-6.765 17.553 41.564 41.564 0 0 0-6.03-12.616 41.562 41.562 0 0 0-9.873-9.873c4.521 9.336 3.951 20.954-1.463 29.803-3.541 5.787-9.03 10.36-15.359 12.799a45.87 45.87 0 0 0-2.194-23.04 45.759 45.759 0 0 0-8.593-14.444M270.59 338.36a33.82 33.82 0 0 0-7.405 5.124 33.875 33.875 0 0 0-7.111 9.179M252.13 452.2c2.801 1.929 6.416 2.631 9.735 1.89a12.543 12.543 0 0 0 7.615-5.223 12.544 12.544 0 0 0 1.893-9.04c3.308 5.33 4.323 12.03 2.743 18.1-1.374 5.279-4.676 10.03-9.142 13.164a17.22 17.22 0 0 0 11.336 1.828c3.757-.696 7.236-2.678 9.892-5.425 2.656-2.747 4.502-6.236 5.467-9.934 2.082-7.976-.124-16.938-5.668-23.04a31.557 31.557 0 0 1 12.616 8.959 31.551 31.551 0 0 1 6.765 13.713 37.13 37.13 0 0 0 .914-21.575 37.1 37.1 0 0 0-10.605-17.735 22.807 22.807 0 0 1 14.627 2.743 22.778 22.778 0 0 1 9.325 10.239 28.14 28.14 0 0 0-2.01-12.799c-3.376-8.228-10.901-14.627-19.564-16.638a58.498 58.498 0 0 1 16.273 6.582 58.532 58.532 0 0 1 12.07 9.508c1.449-5.676.925-11.837-1.463-17.19-2.248-5.04-6.075-9.287-10.605-12.433-7.173-4.983-16.193-7.238-24.866-6.217"/><path d="M289.47 381.68a33.446 33.446 0 0 0 16.821-5.668c2.473-1.674 4.734-3.701 6.451-6.144 1.717-2.443 2.872-5.32 3.057-8.3.15-2.42-.345-4.869-1.36-7.07-1.015-2.202-2.544-4.158-4.391-5.729-3.695-3.142-8.598-4.681-13.447-4.752-7.03-.103-13.966 2.798-19.2 7.496a31.814 31.814 0 0 0-7.314 9.69"/><path d="M277.77 367.42a38.694 38.694 0 0 1 9.142-7.862c1.791-1.107 3.704-2.078 5.768-2.494 2.064-.416 4.309-.232 6.116.848a7.094 7.094 0 0 1 2.59 2.733 7.618 7.618 0 0 1 .884 3.666 8.044 8.044 0 0 1-1.381 4.389 8.237 8.237 0 0 1-3.555 2.925c-1.405.602-2.945.803-4.464.976-1.519.174-3.058.33-4.495.852a9.277 9.277 0 0 0-4.163 3.051 9.27 9.27 0 0 0-1.87 4.811"/></g><path d="M273.88 276.86h-.003c5.07-.093 9.194 4.331 9.212 9.882.008 2.631-.928 5.173-2.603 7.082l.096.681c1.737-2.272 4.285-3.61 6.974-3.657 5.07-.093 9.194 4.332 9.211 9.882.017 5.549-4.079 10.123-9.148 10.216a8.52 8.52 0 0 1-4.785-1.394c.217 1.326.447 2.651.83 3.93.41 1.371 1 2.691 1.873 3.766a7.935 7.935 0 0 0 3.541 2.47c1.353.469 2.807.572 4.224.373 2.206-.311 4.313-1.358 6.073-2.868 2.089-1.791 3.701-4.242 4.596-6.97a11.142 11.142 0 0 0 .125 5.625c.521 1.808 1.52 3.437 2.842 4.65 2.113 1.935 5.01 2.735 7.768 2.383 2.35-.301 4.648-1.435 6.283-3.33 1.148-1.33 1.941-2.984 2.527-4.697.117-.345.227-.693.331-1.043-.428.085-.86.132-1.293.142-4.49.083-8.145-3.835-8.159-8.751-.015-4.916 3.613-8.966 8.102-9.05 2.472-.045 4.814 1.144 6.364 3.234.228-.381.464-.757.714-1.124 1.138-1.674 2.506-3.173 4.093-4.33 1.585-1.158 3.392-1.969 5.273-2.254 2.19-.331 4.456.066 6.424 1.127 1.969 1.06 3.631 2.779 4.708 4.868-5.332 3.505-10.154 7.954-14.221 13.11-7.258 9.21-11.03 16.527-13.662 28.342 0 0-8.947-2.871-13.529-3.646-11.601-1.965-23.382-2.852-35.09-2.514-12.291.355-24.545 2.266-36.64 4.76-2.457.507-7 2.045-7 2.045s-11.536-19.05-17.803-26.724c-4.097-5.01-8.946-9.286-14.297-12.591 1.065-2.131 2.716-3.909 4.678-5.04 1.961-1.133 4.226-1.613 6.416-1.361 1.881.216 3.693.961 5.284 2.06 1.593 1.1 2.973 2.549 4.119 4.18.253.36.494.73.725 1.105 1.533-2.144 3.867-3.423 6.338-3.471 4.49-.083 8.145 3.835 8.159 8.751.015 4.916-3.613 8.967-8.102 9.05a7.512 7.512 0 0 1-1.297-.101c.108.349.22.694.339 1.036.597 1.688 1.4 3.311 2.556 4.604 1.646 1.832 3.95 2.882 6.302 3.097 2.761.253 5.65-.654 7.752-2.667 1.316-1.261 2.304-2.928 2.814-4.752.512-1.826.542-3.8.091-5.629.906 2.696 2.535 5.085 4.635 6.797 1.769 1.444 3.882 2.413 6.09 2.643 1.417.143 2.871-.008 4.221-.529a8.277 8.277 0 0 0 3.53-2.597c.866-1.106 1.449-2.45 1.85-3.834.374-1.291.596-2.622.805-3.954-1.435.989-3.085 1.531-4.773 1.565-5.069.094-9.194-4.331-9.212-9.882-.018-5.549 4.08-10.124 9.148-10.216 2.693-.045 5.249 1.204 6.998 3.416.03-.236.063-.47.094-.703-1.687-1.845-2.639-4.349-2.651-6.977-.018-5.549 4.078-10.123 9.148-10.216z" fill="#03f"/></g></g></g></svg>