<svg xmlns="http://www.w3.org/2000/svg" xmlns:xlink="http://www.w3.org/1999/xlink" width="700" height="775"><defs><clipPath id="a"><path d="m5 165 75-70c170-52 354-54 530 0l80 70c-126 36-103 155-50 290 42 190-17.7 258-100 300-58.9 28.8-123 46.8-190 60-60-9.2-124-29-190-60C24 681 30 555 60 455c26-114 92-245-55-290"/></clipPath></defs><g transform="translate(0 -39.8)"><path d="m5 164.8 75-70c170-52 354-54 530 0l80 70c-126 36-103 155-50 290 42 190-17.7 258-100 300-58.9 28.8-123 46.8-190 60-60-9.2-124-29-190-60-136-74-130-200-100-300 26-114 92-245-55-290" fill="#fff"/><path clip-path="url(#a)" fill="#da121a" d="M30 385h650v320H30z"/><path d="m95 230 85 155 85-155-85-160-85 160" id="b" fill="#da121a"/><use xlink:href="#b" transform="translate(170)" width="700" height="775"/><use height="775" width="700" transform="translate(340)" xlink:href="#b"/><path d="m95 705 85-260 85 260" id="c" fill="#fff"/><use xlink:href="#c" transform="translate(170)" width="700" height="775"/><use height="775" width="700" transform="translate(340)" xlink:href="#c"/><path clip-path="url(#a)" fill="#89c5e3" d="M80 705h540v110H80z"/><path d="m5 164.8 75-70c170-52 354-54 530 0l80 70c-126 36-103 155-50 290 42 190-17.7 258-100 300-58.9 28.8-123 46.8-190 60-60-9.2-124-29-190-60-136-74-130-200-100-300 26-114 100-245-55-290" fill="none" stroke="#000" stroke-linejoin="round" stroke-linecap="round" stroke-width="4" id="d"/><use xlink:href="#d"/></g><path d="M610 55c0 16.6-122-20-260-20S80 71.6 80 55 212 5 350 5s260 33.4 260 50" fill="#fcdd09" stroke="#000" stroke-linejoin="round" stroke-linecap="round" stroke-width="6"/></svg>