<svg xmlns="http://www.w3.org/2000/svg" height="635" width="605" viewBox="0 0 604.999 635"><path d="M268 7c-42 4.4-84 14.5-124 29.6-10.1 39-33.8 73-67 96-22 18-47 24.7-70 29.6l6.9 21c17 2.5 25.5 5.1 34 12 29.9 16.9 21.6 55 25.9 84 5.1 79 .1 164 41 235 23.6 42 66 74 112 86 27.5 3.8 57 16 79 27.5 36-28.4 87-20.8 123-49.6 40.7-23.4 67.8-64 82-107 23.4-72 16.9-148 24-222-.9-22.9 7.2-48 30-58 10.8-4.4 7.6-5.9 28.4-8.4l5.8-20.6c-25.6-7-58-16-79-36.9-29-22-49-54-58-89C400.1 13.6 333-.5 267 6.7z" stroke="#000" stroke-width="5.6"/><g fill="#fcdd09" fill-rule="evenodd"><path d="M303 4c-5.3 0-10.7.1-16 .3-14 .6-28 2.5-41.8 4.6-16 2.4-47.6 9.3-47.6 9.3l-2.3 11.5-13 17.2s14.2-5.4 21.6-7.3c16-4.2 32.4-6.9 48.8-9 13-1.7 26-2.6 39-2.9 13.5-.3 27-.1 40.5.9 16.7 1.3 33.5 3 49.9 6.5 16 3.5 31.9 8.6 47 14.4 8.4 3.2 24.5 11 24.5 11l8.1-25s-9.9-3.5-14.9-5.2c-10.4-3.4-20.7-7-31-9.9-9.7-2.7-19.5-5-29.4-6.9-18.8-3.6-37.8-6.8-56.9-8.4-8.9-.7-17.8-1.1-26.7-1.1M143 36s-6.9 22.5-12.4 32.8c-7.5 14.3-17 27.7-27.7 39.9-6.3 7.2-15.2 11.9-21.3 19.3-4 4.9-6 11.2-9.8 16.3-4.2 5.7-14.2 15.8-14.2 15.8l.3 9.8s21.7-11 30.9-18.8c12.2-10.2 22.3-22.8 31.7-35.7 10.2-14 18.7-29.4 26.6-45 1.5-3 4-9.3 4-9.3zM462 80c11 21 25.5 39.4 40.9 57 7.3 8.4 15.6 15.8 24 22.9 7.2 6 22.6 16.6 22.6 16.6s9.5-1.5 14.2-2.5c6.5-1.5 13-3 19.4-5.3 5.5-2 16-7.3 16-7.3s-22-4.5-32.7-8.5c-13.5-5-26.4-11.6-38.7-19-12.9-8-24.8-17.6-36.5-27.4-5.6-4.7-10.6-10.2-16-15-4.3-3.9-13.3-11.4-13.3-11.4"/></g><g stroke="#000" stroke-width="4"><path d="M267 6c-42 4.4-84 14.5-124 29.6-10.1 39-32.6 71-64.9 95-27 21.3-50 27-72 30.8l5.8 21.4c8.9 6 25.8 5.2 34.5 12 29.9 16.9 21.6 55 25.9 84 5.1 79 .1 164 41 235 23.6 42 66 74 112 86 27.7 6 53.9 11 76 29 49-34.7 67-14.4 123-49.6 46.7-29.4 70-65 84-109 23.4-72 16.9-148 24-222 1.6-22.9 1.9-42 30-58 9.9-4.2 17.7-6.7 28-8.5l5.8-20.7c-25.7-7-57-15.9-78-36.7-29-22-49-54-58-89-61.9-22.6-129-36.7-195-29.5z" fill="none"/><path d="M268 25c-40 2.8-80 12.6-116 31.6-19.3 49.7-56.6 91-101 120 22 17 30.9 44 27.9 72 2.9 67-5.5 136 12 202 13.2 47 38 94 82 120 21.6 16.7 47 24.4 74 30.5 26 3.7 43 11.8 57 23 18.8-10.4 29.4-15.9 46.6-20.6 25.3-6.8 52-9.9 74-25.6 37.9-21.6 67.9-55.9 83-97 30.3-71 19-150 22.4-225-1.4-25.8-.2-54.6 21.7-72 1.5-2 6.4-5.2 5-6.4-12.3-11.2-25.6-17.5-41-32.9-24.8-24.9-46.7-53-58.9-87-57-30.3-123-36-187-31.6z" fill="#da121a"/></g><g stroke="#000"><g stroke-linejoin="round"><g fill-rule="evenodd"><path d="M309 36.7c-1.6 8.8 7.6 20 2.9 28 10.8-.4 10.6 1.1 11-11-3.4-7-6.4-14-13.9-16.9z" fill="#fff" stroke-width="2.5"/><g stroke-width="2"><g fill="#e7e7e7"><path d="M258 140c1.2 1.8 4.7.2 6.6-.4-5-13.2-9.8-11.9-6.6.4zM272 139c1.2 1.8 3 .6 4.9 0-1.8-12.7-8.5-12.3-4.9 0zM246 111c-1.8.2-4.5-1.2-5.6 0 .2 2 .6 4.2.6 6.2-.6 5.3 5.8 4.1 5.7 1.1.1-2.9.6-6.9-.7-7.3z"/></g><path d="M257 112c-1.8.2-4.5-1.2-5.6 0 .2 2 .6 4.2.6 6.2-.6 5.3 5.8 4.1 5.7 1.1.1-2.9.6-6.9-.7-7.3z" fill="#fff"/></g></g><g stroke-width="2"><path d="M264 115c4.4 8.1 10.7 13.2 12.8 25 5.8 1.6 11-3.9 16-11.5-.8-15.8-14.4-14.9-28.4-13.3" stroke-linecap="round"/><path d="M268 113c-1.8.2-4.5-1.2-5.6 0 .2 2 .6 4.2.6 6.2-.6 5.3 5.8 4.1 5.7 1.1.1-2.9.6-6.9-.7-7.3z" fill="#fff" fill-rule="evenodd"/></g><g fill-rule="evenodd"><g fill="#fff" stroke-width="2.5"><path d="M352 78c2.5-5.6 1-7-2.8-7.7-1.7-.3-2.2-3.1-4-5-4.4-10.2-1.3-5.4-10.7-17.5-4-20.7-8.2-8.7-10.3 4.1-5.1 1.4-1.2 18.6-3.3 10.7-24.5 4.1-18.7-5.3-30.4-.8-8.3 3.2-27-2-22.3 11-5.3 0-25.6 3.2-33.6 9.6-7.9-5-16 .3-5.1 11-2.3 6.4-4.1 14.9 12 18.8 8.2 1.9 19.8 2 31 2.6 17.9 1 15 9.1 13.7 18.5-1 7-6.4 5.8-10.4 6.2-9.4.9-17.4.2-25.7 3.2-19.7 7.6-5.3 17.5 3.1 6.5 6.9-1.5 22.6-3 31.7-1.4 10.2-1.8 17.6 19.5-.9 36.6-16 13.3-36 27-43.6 45 53.6 22.9 98 14.8 138-4.3-3.2-9.4-7.4-55-6.5-64-2.2-4.1-2.7-8.4-4.1-12.2 2.5-4.6.1-4.8-2.4-5.5 4.9-4.8 1.3-5.4-.9-6.1 2.3-3 5.1-6.2-1.2-6.9 2.8-4.5 7.9-10-1-8.3 3.5-5.9 3.7-9.2-.9-8.6 6.8-6.8 1.3-5-.7-5.7 4.2-10.3-.6-5.3-1.2-7.6 3-6.2 2.5-9-1.8-8.3 3.1-2.3 7.3-8.8-2.5-8.4 6.2-6.8 2.3-7-3.7-5.7z"/><path d="M216 107c-11.6-1.5-10.1 24 15 22.6 10 .4 19 .4 42 .4 5.9-.7 7.2-3.8 0-4.8-10.7-2.9-25 .3-36.8-.5-17 3.3-14-16.9-20.4-17.6z"/></g><path d="M247 142c1.2 1.8 3 .6 4.9 0-2.8-14.3-7.8-11.7-4.9 0z" fill="#e7e7e7" stroke-width="2"/></g></g><path d="M232 85c1.3.3 2.5 1.4 2.6 2.8 0 1.9-1.3 3.8-3.1 4.5-.8.1-1.5-.5-1.8-1.2-1-1.6-2.5-3-3.6-4.5-.8-1-1.5-2.2-1.5-3.6 0-.6.1-1.2.4-1.6.5-.4 1.4 0 1.6.6.8 1.3 1.8 2.7 3.3 3.4.7.2 1.4-.4 2.1-.3z" fill-rule="evenodd" stroke-width=".5"/><g fill="#fff" stroke-width="5.3"><path d="M183.583 379.126c-29.502.56-55.953 28.892-102.24 30.01.813 11.598 3.56 22.89 5.035 34.437 36.573-7.121 74.773-36.624 112.923-28.994 37.132 6.257 69.686 31.385 110.379 25.433 37.64-5.697 72.23-30.367 110.379-30.52 34.538.052 46.797 11.191 99.697 27.468l2.188-33.063c-52.392-13.174-84.947-39.675-125.64-24.415-39.166 5.951-75.79 35.097-114.957 23.398-33.571-4.883-64.09-24.314-98.68-24.263" stroke-width="2.695898"/><path d="M190.196 308.422c-36.624-.05-74.773 28.434-111.397 31.028l1.78 34.08c43.236-.508 74.265-27.467 112.414-28.383 29.502-.712 78.842 26.908 117.5 26.96 25.84.152 78.843-32.555 118.01-29.503 34.538 5.087 59.004 17.752 96.645 29.502l.254-33.571c-41.201-6.867-82.911-39.116-126.656-27.977-37.64 5.189-66.126 35.047-113.94 25.942-33.571-4.883-60.022-28.485-94.61-28.485" stroke-width="2.695898"/><path d="M183.583 241.279c-36.624 0-70.704 26.247-106.819 28.993l2.086 36.115c40.693-8.494 76.808-36.623 118.518-29.502 38.098 5.748 75.281 29.96 113.94 27.468 29.502-1.73 74.264-31.944 112.922-30.52 28.485.916 62.565 23.398 102.24 31.537l.306-34.08c-47.306-13.225-84.946-40.184-128.691-29.502-39.676 4.68-72.738 33.062-113.431 25.941-33.572-4.883-67.143-26.857-101.732-26.806" stroke-width="2.695898"/></g><g stroke-width="5"><g fill-rule="evenodd"><path d="M218.31 507.308c-.61-3.357-1.576-6.613-2.136-10.02 0-2.086-.56-.458-2.492.66l-56.462 15.77 2.391 13.428 61.04-4.426c-.56-3.865-.662-4.374-1.069-8.138-.407-2.442-.916-4.883-1.272-7.325z" fill="#fcdd09" stroke-linejoin="round" stroke-width="2.5433"/><g fill="#e7e7e7" stroke-linecap="round"><path d="M499.6 461.936c-.713-3.765-6.308-5.189-9.055-5.341l-230.931 38.15-45.78 6.917s6.053 4.578 9.003 6.918c.51.407 1.018.864 1.526 1.322-.305.61-.61 1.221-.966 1.78-1.984 3.256-6.104 9.563-6.104 9.563l45.27-8.952 230.424-42.219c3.306-.966 7.325-4.73 6.765-8.037z" fill="#fff" stroke-width="2.5433"/><path d="m492.478 462.953-260.434 45.27" stroke-width="1.475114"/></g></g><g fill="#fcdd09" stroke-linecap="round" transform="translate(-5.5 1.7) scale(.50866)"><rect width="55.7" height="25" x="1033" y="-287" rx="7.2" transform="rotate(80.13)" stroke-linejoin="round"/><g fill-rule="evenodd"><path d="m393 986.8 52 39.6M400 1027.8l36.5-52.9"/></g><g stroke-linejoin="round" transform="rotate(80.13)"><rect width="234" height="21.8" x="944" y="-274" rx="7.2"/><rect ry="7.2" rx="4.9" y="-132" x="1057" height="28.8" width="9.7"/></g></g></g><g fill="#fcdd09" stroke-linecap="round"><path d="M153.202 517.99c-.153-1.17-1.424-2.238-3.205-2.594l-7.12-1.272c-1.985-.356-3.816.407-4.07 1.78-.254 1.323 1.17 2.747 3.204 3.052l7.122 1.272c1.983.356 3.815-.407 4.069-1.78a.867.867 0 0 0 0-.509zm1.424 8.088c-.05-.153-.102-.306-.203-.458-.662-1.17-2.645-1.323-4.426-.305l-6.307 3.662c-1.78 1.017-2.645 2.798-1.984 3.968s2.645 1.322 4.426.305l6.307-3.663c1.526-.915 2.39-2.34 2.136-3.51z" stroke-linejoin="round" stroke-width="4.06928"/><g fill-rule="evenodd" stroke-width="5"><path d="m161.85 512.802 16.175 13.225M177.618 508.732l20.346 15.769M164.901 527.044l12.564-17.803M179.652 526.027l16.48-22.381" stroke-width="2.5433"/></g><g stroke-linejoin="round"><path d="M157.271 510.869c1.17 6.612 2.29 13.225 3.46 19.837.304 2.035-1.323 3.968-3.358 4.12-1.272.306-2.696.306-3.713-.559-1.12-.814-1.374-2.187-1.577-3.459-1.068-6.206-2.187-12.411-3.256-18.668-.305-2.034 1.323-3.967 3.358-4.12 1.271-.305 2.695-.305 3.713.56a3.707 3.707 0 0 1 1.373 2.289z" stroke-width="2.5433"/><g stroke-width="8"><path d="m150.15 517.481 6.918-1.22M151.167 523.585l6.918-1.22M151.676 529.18l6.918-1.22M149.641 512.395l6.918-1.221" stroke-width="4.06928"/></g><path d="m208.137 452.373 20.347 117.5" stroke-width="2.03464"/><g stroke-width="5"><g transform="rotate(80.13 -3.76 -2.42) scale(.50866)"><rect rx="7.2" y="-287" x="1173" height="49" width="16"/><circle r="13.2" cy="-262" cx="1202"/></g><g transform="matrix(-.0872 -.50113 -.50113 .0872 88.093 5.159)"><rect rx="7.2" y="-107" x="-911" height="49" width="16"/><circle r="13.2" cy="-82" cx="-882"/></g></g></g></g><g stroke-width=".5" stroke-linejoin="round" stroke-linecap="round"><path d="M78.29 279.937c12.005-1.22 20.855-6.104 30.47-10.122-9.869 3.459-18.821 7.579-30.52 8.087zM79.816 289.602c8.24-2.035 13.734-4.019 19.736-6.053-6.104 1.373-11.851 2.695-20.143 4.069zM80.325 297.231c6.867-1.526 12.055-3.814 17.498-5.9-5.748 1.475-10.987 3.103-17.803 3.917zM80.325 348.606c.356.204.763.254 1.017.254.356 0 .712 0 1.17-.05.865-.051 1.933-.204 3.154-.407 2.441-.407 5.493-.967 8.444-1.628 2.95-.661 5.85-1.373 7.935-1.984 1.068-.305 1.882-.56 2.492-.814.305-.101.509-.203.61-.305l.153-.152v-.051h-.05c-.052 0-.052.05-.153.05-.153.051-.356.102-.662.204a54.28 54.28 0 0 1-2.492.56c-2.136.457-5.036.966-8.037 1.475-3 .508-6.053.915-8.444 1.119-1.22.101-2.238.152-3 .152a3.32 3.32 0 0 1-.865-.101c-.306-.051-.204-.102-.153-.051zM81.342 357.762c7.63-1.22 13.073-2.798 18.668-4.273-5.799.865-11.19 1.73-18.82 2.29zM81.342 365.9c6.816-.864 13.124-3.102 19.126-4.272-6.358.56-12.411 2.085-19.278 2.289zM83.377 417.275c10.682-.508 16.175-2.187 20.702-4.07-4.73 1.222-10.173 2.188-20.702 2.036zM84.903 426.431c11.547-.458 17.142-1.984 21.211-3.815-4.222 1.12-9.817 1.984-21.211 1.78zM85.92 435.078c10.428-1.526 16.226-3.255 19.838-5.035-3.815 1.17-9.665 2.238-19.838 3.052z" stroke-width=".25433"/></g><g stroke-width=".5" stroke-linejoin="round" stroke-linecap="round"><path d="M526.928 279.937c-11.444-1.984-21.77-5.34-31.028-9.665 9.156 4.985 19.33 9.055 31.028 11.7zM525.911 288.584c-8.342-1.78-16.99-5.392-25.738-9.105 8.393 4.273 16.786 8.597 25.23 11.089zM525.402 298.757l.255-.966c-7.121-1.628-13.887-3.764-19.838-6.867 5.748 3.713 12.36 6.51 19.33 8.8l.253-.967zM525.402 347.589c-10.478-3.256-21.109-6.206-30.52-11.343 9.36 5.697 19.788 9.359 30.012 13.225zM525.911 357.253c-8.952-1.882-17.549-4.578-25.738-8.342a121.08 121.08 0 0 0 25.23 10.326zM526.42 364.883c-7.63-1.526-14.65-3.56-21.211-6.104 6.307 3.103 13.123 5.85 20.702 8.037zM523.876 414.223l.306-.966c-9.461-2.442-18.617-5.9-27.468-10.326 8.546 4.985 17.498 9.156 26.908 12.208l.305-.967zM524.385 420.836c-9.257-2.9-18.668-5.748-26.45-8.902 7.63 3.764 16.786 7.274 25.89 10.784zM522.86 427.448c-6.563-1.882-13.175-3.713-19.788-6.103 6.359 3 12.717 5.493 19.126 8.036z" stroke-width=".25433"/></g><path d="M430.283 262.643c3.103.254 5.748-.255 9.563.966m-11.496-8.545c5.138.763 8.85-.56 16.582 3.916m-30.926-10.936c14.65-.356 28.485.356 36.115 6.46m-22.178 74.264c3.46.153 7.121-.152 9.563 1.984m-12.106-7.579c5.29.509 6.307-1.119 18.26 3.662m-33.062-9.562c14.751-2.747 29.502-.509 43.745 5.34m-23.348 72.739c1.933.102 3.764.05 6.053.509m-11.19-6.257c3.56-.203 6.561-1.322 12.208 1.475m-27.265-7.324c11.496-1.526 22.89-3.052 38.659 3.662m-164.298 42.727c14.04 2.696 28.384 2.29 43.236-.864m-34.588-4.73c9.46 2.44 18.311 1.118 27.315-.052m-22.381-5.595c6.51 1.984 11.597 1.119 16.582 0m-27.976-57.479c13.48 3.663 26.806 3.256 39.675-1.119m-32.554-5.493c6.104 2.594 12.106 2.238 18.057 1.475m-14.75-7.223c3.865.712 7.629 1.22 10.935.305m-19.837-55.444c14.496 3.001 28.993 4.375 44.253-3.103m-32.554-1.983c4.934 2.085 16.633.864 24.415-1.679m-22.89-5.34c4.528.66 8.953 1.169 12.92.304M186.839 261.88c4.019-.102 7.986-.153 10.937.305m-16.583-6.765c4.222-.865 12.157-.458 20.855.305m-33.063-6.765c12.157-2.34 24.721-.967 37.133 1.424m-16.583 81.385c3.307.102 4.985-.457 10.682.56m-15.463-7.884c8.24-.102 17.04-1.12 22.737 2.797m-32.554-8.443c15.717-5.494 32.045-1.272 47.814 5.34m-34.08 77.826c3.357-.204 6.816-.255 11.19 1.119m-19.685-7.885c7.782-.61 15.26-1.576 25.942 1.425m-33.063-7.885c24.415-4.781 34.589 1.069 47.814 4.782" fill="none" stroke-linejoin="round" stroke-linecap="round" stroke-width="1.983774"/><g stroke-linejoin="round" stroke-linecap="round" stroke-width="2"><path d="M277 81c7.2-5 16.3-4.5 25.6-3.2-4.1 6-8.7 11.2-15.9 12.5"/><circle cy="84" cx="286" r="5.5"/></g></g><g stroke-linecap="round"><g fill="none"><path d="m292 80 .4.5" stroke="#fff" stroke-linejoin="round" stroke-width="2"/><g stroke="#000"><path d="m322 164 16 6.4m-31-7.5 4.3 10.1m30.9-12 9-.2m11.2.4c2.4.7 3.6 1.1 9.6 2.8m-1.8-8.5 10.3-1.6m-83 18.2c4-11.6 12.6-2.9 7.8 5.4m6.7-18c-2.8 11.9 9 9.1 9.4-.4m37.5 16c-2.8-11.9 11.4-10.7 11.8-1.2M352 156.5c-2.8 11.9 11.6 10 11.9.5m-32 2c-2.8 11.9 9 9.1 9.4-.4m-24 15.8c3-11.6 16-7 12.4.8m9.8-3.8c3-11.6 13.8-7.3 10.3.4m12.7-23c-2.5 11.5 9.2 13.2 9 1.4m-28.9-.7c-3.1 10.5 10.2 8 10.6-.3m-3.9 26.8c3-11.6 12-6.8 8.5 1m-28 1.7c.3-9.3 9.6-8.4 8.7.4m-53 .4c5.7-14.7 20.5-1.3 9.9 5.6m10.5-6.8c6.5-12.6 19.3-2.6 9.3 4.5m-30.8-22.9c1.7 16 12 8.8 9.2-2.8m8-2.3c-1.7 12.2 10.5 10 10.3-.4m11 0c-2.8 11.9 9 9.1 9.4-.4" stroke-width="5.1"/><g stroke-linejoin="round" stroke-width="3.1"><path d="M277 147c14-.1 29.6-4.1 31.5-3.7 2.7.5 5.9-6.4 4-7.7-1.3-3.2-3.8-5.9 0-11.7"/><path d="M292 140c9.7-.1 12.5-4.3 10-11.4M330 37.8c1 3.4 2.9 9.9 8 15.8 3.2 3.7 3.7 8.9 5.3 12.8 4.5 10.5 2.4 27.5-13 24.8M330 39c-1-1.5-5.1 11.9-7 25.3-1.2 8.2.6 14.7 1.6 16.3"/></g></g></g><g stroke="#000" stroke-linejoin="round"><ellipse transform="matrix(.98235 -.18706 .21645 .97629 0 0)" ry="16" rx="3.1" cy="127" cx="310" stroke-width="3.4"/><g stroke-width=".5"><path d="M246.148 227.545a30.765 30.765 0 0 0 1.679 2.136c7.782 2.645 16.785 3.358 25.23 4.578-8.445-2.136-16.99-3.662-24.264-7.02a42.41 42.41 0 0 1-2.645.255zM250.217 222.458c.56.61 1.069 1.17 1.628 1.78 6.206 2.035 12.157 2.646 17.803 2.85-5.748-.865-11.394-2.137-17.192-4.731-.763.05-1.577.101-2.391.101zM253.778 217.372c.305.56.661 1.068 1.068 1.577 5.392 2.238 10.886 2.34 16.226 2.543-5.391-.814-10.58-1.475-15.26-4.171-.61.05-1.22.05-1.83.05zM258.356 212.285a97.968 97.968 0 0 0 2.39 1.526c4.223.56 8.241.712 12.107.56a69.45 69.45 0 0 1-11.7-2.442c-.915.153-1.83.255-2.746.356zM264.969 206.69c.61.712 1.271 1.424 2.085 2.085 3.713 1.323 8.088 1.73 12.513 1.832-4.476-.662-8.545-1.679-11.7-3.408a17.363 17.363 0 0 1-2.746-.509zM271.072 201.603c.662.56 1.374 1.069 2.035 1.577 4.273.763 8.546 1.221 12.666.967-4.12-.407-8.139-1.475-12.157-2.9-.865.102-1.679.255-2.544.306zM275.65 196.008c1.17.661 2.137 1.22 3.103 1.73 2.645.305 4.476.254 5.9.101 1.934-.203 3.256-.61 5.342-.407-2.086-.61-3.408-.61-5.341-.813-1.374-.153-3.052-.357-5.494-.967-1.017.204-2.136.305-3.459.356zM282.772 191.43c.457.407.966.763 1.526 1.17 1.475.102 3 .102 4.374.102.967 0 1.78-.051 2.442-.102.305 0 .56-.05.763-.05.101 0 .203-.052.254-.052.05 0 .102-.05.153-.05 0-.051-.051-.051-.153-.102-.05-.051-.153-.051-.254-.102-.204-.05-.458-.102-.763-.203-.61-.153-1.475-.255-2.391-.458-1.323-.255-2.798-.509-4.171-.814-.61.203-1.22.407-1.78.61zM373.313 180.748a12.213 12.213 0 0 0-1.933-.61c-2.441.305-4.985.814-7.07.56 2.034.712 4.68.66 7.121.762.61-.254 1.272-.457 1.882-.66zM373.313 185.326a21.26 21.26 0 0 1-1.73-.407c-2.39.56-5.29.763-7.578.56 2.238.661 5.188.966 7.782.865.56-.306 1.068-.662 1.526-1.018zM373.822 190.922c-.967-.051-1.984-.102-3.001-.255-2.747.356-5.646.458-8.291.356a44.19 44.19 0 0 0 8.342.814 25 25 0 0 0 2.95-.915zM374.33 198.551c-.66 0-1.424-.05-2.238-.05-1.933.152-4.17.254-5.9.203 1.73.203 4.018.254 5.951.254.814-.101 1.628-.254 2.238-.356zM376.365 213.811c-1.272.153-2.594.204-3.866.153-1.983.356-4.069.458-6.358.254 2.187.509 4.324.763 6.41.712 1.322-.305 2.593-.661 3.763-1.119z" stroke-width=".25433"/></g></g></g><g stroke="#000"><path d="M266 83c-.6-.2-1.1-.4-1.7-.6-4.6-.6-8.6.5-12.5 2.1 4-1.4 8-2.4 12.4-1.6.6 0 1.2 0 1.7.1z"/><path d="M268 77.9c-.5-.2-1.1-.4-1.6-.6-9.9 1.1-16.6 3.1-22.9 6.2 6.5-2.6 13.2-4.2 23-4.7l1.5-.9z" stroke-linejoin="round" stroke-linecap="round" stroke-width="2"/></g></svg>