<svg xmlns="http://www.w3.org/2000/svg" viewBox="0 0 672.66 758.87"><g fill="#fcdd09"><path d="M580.965 9.993c-35.568 45.632-131.61 78.31-244.53 78.31-111.84 0-207.13-32.05-243.5-77-.248.216-.502.41-.75.625a95.03 95.03 0 0 1 .844 12.656c0 50.552-32.452 93.59-84.986 101.8 12.203 41.979 15.279 82.12 4.923 113.11l6.688 126.25 21.438 110.81 30.12 86.59 45.563 56.56 59.59 44.03 61.62 27.16 55.656 27.563 42.781 30.469 42.781-30.469 55.656-27.563 61.62-27.16 59.59-44.03 45.563-56.56 30.12-86.59 21.438-110.81 6.688-126.25c-3.844-51.5-4.977-80.51 3.806-110.63-52.43-8.284-83.87-53.799-83.87-104.28 0-4.953.383-9.829 1.125-14.594"/><path d="M91.905 9.993a94.823 94.823 0 0 1 1.125 14.594c0 49.902-28.965 91.46-80.5 100.41 5.128 15.343.507 32.979 2.719 45.47 5.68 32.07 3.03 65.27 4.875 97.87 2.785 49.25 1.946 99.01 9.344 147.69 4.141 27.25 10.59 54.22 19.5 80.06 10.653 30.891 22.738 61.837 40.28 88.69 12.499 19.13 28.446 35.609 45.34 50.12 19.774 16.987 42.07 30.402 64.66 42.469 22.573 12.06 47.07 19.242 70.31 29.656 8.102 3.63 16.382 6.901 24.09 11.438 14.43 8.489 39.556 27.903 42.781 30.406 3.225-2.503 28.351-21.917 42.781-30.406 7.711-4.537 15.992-7.808 24.09-11.438 23.25-10.414 47.739-17.595 70.31-29.656 22.585-12.07 44.882-25.481 64.66-42.469 16.898-14.516 32.844-30.995 45.34-50.12 17.543-26.85 29.628-57.797 40.28-88.69 8.91-25.838 15.359-52.816 19.5-80.06 7.398-48.679 6.559-98.43 9.344-147.69 1.844-32.609-.805-65.802 4.875-97.87 2.212-12.49-2.409-30.13 2.719-45.47-51.54-8.95-80.5-50.5-80.5-100.41 0-4.953.383-9.829 1.125-14.594-35.567 45.633-131.61 78.31-244.53 78.31-112.92 0-208.96-32.679-244.53-78.31"/><g font-family="Sans" text-anchor="middle" word-spacing="0" letter-spacing="0"><text transform="rotate(25.476 341.14 -143.805)" y="657.56" x="669.73" font-size="5.422"><tspan y="657.56" x="669.73">Christian Duscha</tspan></text><text transform="rotate(-24.832 -379.338 -15.212)" y="974.34" x="84.35" font-size="13.501"><tspan y="974.34" x="84.35">Gleiwitz-Essen-Landshut</tspan></text></g><path d="M581.081 9.97c-35.568 45.632-131.61 78.31-244.53 78.31-111.84 0-207.13-32.05-243.5-77-.248.216-.502.41-.75.625a95.03 95.03 0 0 1 .844 12.656c0 50.552-27.982 92.2-80.52 100.41 12.203 41.979 10.809 83.51.453 114.5l6.688 126.25 21.438 110.81 30.12 86.59 45.562 56.56 59.59 44.03 61.63 27.16 55.656 27.563 42.781 30.469 42.781-30.469 55.656-27.563 61.62-27.16 59.59-44.03 45.563-56.56 30.12-86.59 21.438-110.81 6.688-126.25c-3.844-51.5-5.086-80.48 3.697-110.59-52.43-8.284-83.76-53.83-83.76-104.31 0-4.953.383-9.829 1.125-14.594"/></g><path d="M92.001 9.967a94.823 94.823 0 0 1 1.125 14.594c0 49.902-28.965 91.46-80.5 100.41 5.128 15.343.538 32.979 2.75 45.47 5.68 32.07 3.03 65.27 4.875 97.87 2.785 49.25 1.915 99.01 9.313 147.69 4.141 27.25 10.59 54.22 19.5 80.06 10.653 30.891 22.769 61.837 40.31 88.69 12.499 19.13 28.415 35.609 45.31 50.12 19.774 16.987 42.1 30.402 64.69 42.469 22.573 12.06 47.07 19.242 70.31 29.656 8.102 3.63 16.351 6.901 24.06 11.438 14.356 8.446 39.26 27.65 42.688 30.31V88.274c-112.87-.024-208.88-32.696-244.44-78.31" fill="#da121a"/><g stroke="#000"><path d="M77.691 190.7 26.066 404.95l2.615 12.11 8.706 44.523 18.62 55.29 28.26 62.23 56.634 63.67 35.437 24.08 57.6 23.775 44.564 19.447 58.05 38.825-.14-343.45h.031l-.031-.063.031-3.094h-.75l-51-211.59-51.19 212.47h-1.125l-51.19-212.47-51.41 213.34h-.688l-51.41-213.34z" fill="#fff" stroke-linejoin="round" stroke-linecap="round" stroke-width="5"/><g fill="none"><path d="M580.971 9.997c-35.568 45.632-131.61 78.31-244.53 78.31-111.84 0-207.13-32.05-243.5-77-.248.216-.502.41-.75.625a95.03 95.03 0 0 1 .844 12.656c0 50.552-27.967 92.2-80.5 100.41 12.203 41.979 10.793 83.51.438 114.5l6.688 126.25 21.438 110.81 30.12 86.59 45.563 56.56 59.59 44.03 61.62 27.16 55.656 27.563 42.781 30.469 42.781-30.469 55.656-27.563 61.62-27.16 59.59-44.03 45.563-56.56 30.12-86.59 21.438-110.81 6.688-126.25c-3.844-51.5-4.977-80.51 3.806-110.63-52.43-8.284-83.87-53.799-83.87-104.28 0-4.953.383-9.829 1.125-14.594z"/><path d="M91.911 9.997a94.823 94.823 0 0 1 1.125 14.594c0 49.902-28.965 91.46-80.5 100.41 5.128 15.343 1.888 30.31 2.719 45.47 1.787 32.617 3.03 65.26 4.875 97.87 2.784 49.25 1.946 99.01 9.344 147.69 4.141 27.25 10.59 54.22 19.5 80.06 10.653 30.891 22.738 61.837 40.28 88.69 12.499 19.13 28.446 35.609 45.34 50.12 19.774 16.987 42.07 30.402 64.66 42.469 22.573 12.06 47.07 19.242 70.31 29.656 8.102 3.63 16.382 6.901 24.09 11.438 14.43 8.489 39.556 27.903 42.781 30.406 3.225-2.503 28.351-21.917 42.781-30.406 7.711-4.537 15.992-7.808 24.09-11.438 23.25-10.414 47.739-17.595 70.31-29.656 22.585-12.07 44.882-25.481 64.66-42.469 16.898-14.516 32.844-30.995 45.34-50.12 17.543-26.85 29.628-57.797 40.28-88.69 8.91-25.838 15.359-52.816 19.5-80.06 7.398-48.679 6.559-98.43 9.344-147.69 1.844-32.609 3.088-65.26 4.875-97.87.831-15.16-2.409-30.13 2.719-45.47-51.54-8.95-80.5-50.5-80.5-100.41 0-4.953.383-9.829 1.125-14.594-35.567 45.633-131.61 78.31-244.53 78.31-112.92 0-208.96-32.679-244.53-78.31z" stroke-linejoin="round" stroke-width="20"/></g><path d="M336.441 101.96V734.3" fill="none" stroke-linecap="round" stroke-width="5"/><g stroke-width="5.941"><g fill="#da121a" stroke-linejoin="round"><path d="M397.06 116.585 362.025 232.1l114.573 241.45 10.416 27.459z" stroke-width="4.99982678"/><path d="m584.547 229.264-17.99-127.827-104.155 393.901 12.31-22.722z" stroke-linecap="round" stroke-width="4.99982678"/></g><g stroke-linecap="round"><path d="M487.016 501.019s1.231 31.092 3.788 46.396c1.368 8.192 2.556 16.66 6.155 24.145 4.198 8.733 9.307 18.045 17.517 23.198 4.77 2.995 11 4.168 16.57 3.314 5.515-.841 11.174-3.705 14.676-8.048 5.58-6.918 7.958-16.686 7.574-25.565-.41-9.486-6.13-18.04-10.415-26.512-4.544-8.988-10.66-17.089-16.1-25.566-4.985-7.774-10.263-15.361-15.148-23.198-3.593-5.765-8.211-11.091-10.415-17.518-1.651-4.813-2.489-10.095-1.894-15.148.63-5.357 2.655-10.686 5.682-15.148 2.633-3.884 6.492-6.896 10.415-9.47 8.684-5.692 18.582-9.429 28.406-12.782 7.064-2.41 14.5-3.55 21.778-5.208 5.825-1.326 17.518-3.787 17.518-3.787" fill="none" stroke-width="4.99982678"/><path d="M553.299 564.457s-16.754-35.22-26.512-52.078c-4.627-7.993-10.264-15.361-15.149-23.198-3.593-5.765-8.211-11.091-10.415-17.517-1.651-4.814-2.489-10.096-1.894-15.149.63-5.356 2.655-10.686 5.682-15.148 2.633-3.883 6.492-6.896 10.415-9.469 8.684-5.693 28.406-12.783 28.406-12.783s-7.782 13.205-10.415 20.358c-2.13 5.784-3.825 11.841-4.261 17.99-.494 6.956.466 14.007 1.893 20.832 2.044 9.769 6.597 18.847 9.469 28.405 1.928 6.416 3.69 12.887 5.208 19.407 2.952 12.691 7.574 38.348 7.574 38.348z" fill="#da121a" stroke-width="4.99982678"/></g><g stroke-linejoin="round"><path d="M462.4 495.338s-24.23 50.537-36.457 75.75c-6.59 13.592-12.324 27.64-19.884 40.716-3.528 6.101-6.08 13.451-11.833 17.518-3.595 2.542-8.458 4.148-12.783 3.314-3.656-.706-6.655-3.73-8.995-6.628-2.175-2.693-3.192-6.177-4.261-9.469-1.195-3.68-1.97-7.513-2.368-11.362-.356-3.454-.234-6.951 0-10.415.475-6.992 1.01-14.067 2.84-20.831 1.83-6.758 4.497-13.374 8.049-19.407 2.962-5.034 7.302-9.12 10.889-13.73 4.632-5.95 9.146-11.998 13.73-17.99 3.624-4.738 7.353-9.398 10.889-14.203 3.892-5.29 9.153-9.912 11.362-16.1 2.234-6.258 2.524-13.331 1.42-19.884-1.197-7.111-4.831-13.689-8.521-19.884-4.945-8.3-12.027-15.124-17.99-22.722-6.665-8.492-19.885-25.566-19.885-25.566" fill="none" stroke-width="4.99982678"/><g fill="#da121a"><path d="M406.056 611.804s-6.08 13.451-11.833 17.518c-3.595 2.542-8.457 4.148-12.782 3.314-3.657-.706-6.655-3.73-8.996-6.628-2.175-2.693-3.191-6.177-4.26-9.469-1.196-3.68-1.971-7.513-2.368-11.362-.356-3.454-.235-6.951 0-10.415.474-6.992 1.01-14.067 2.84-20.831 1.83-6.758 4.497-13.374 8.048-19.407 0 0-.51 24.937 2.667 36.827 1.648 6.163 3.238 13.384 8.327 17.231 4.956 3.748 18.359 3.227 18.359 3.227z" stroke-linecap="round" stroke-width="4.99982678"/><path d="m387.592 540.784 13.73-17.99s7.353-9.399 10.889-14.204c3.892-5.29 9.153-9.912 11.362-16.1 2.234-6.258 2.524-13.331 1.42-19.884-1.197-7.111-4.831-13.689-8.522-19.884-4.944-8.3-12.026-15.124-17.99-22.722-6.664-8.492-19.884-25.566-19.884-25.566s12.183 20.852 16.1 32.19c2.836 8.222 4.8 16.883 5.207 25.566.567 12.073-3.878 36.053-3.878 36.053z" stroke-width="4.99982678"/></g></g></g></g><g font-family="Sans" text-anchor="middle" word-spacing="0" letter-spacing="0"><text x="677.13" y="684.61" transform="rotate(25.476 404.815 -146.421)" fill="#0e121a" font-size="5.422"><tspan x="677.13" y="684.61">Christian Duscha</tspan></text><text x="32.811" y="995.54" transform="rotate(-24.832 -439.583 -40.538)" fill="#0a121a" font-size="5.101"><tspan x="32.811" y="995.54">Gleiwitz-Essen-Landshut</tspan></text></g></svg>