<svg xmlns="http://www.w3.org/2000/svg" width="977.12" height="1067.603"><path style="fill:#da121a;fill-opacity:1;stroke:none" d="M609.597 6.562c-26.166.053-51.022.198-70.798.479-79.106 1.122-156.701-.214-235.051 0-2.653.007-5.305.036-7.958.043-78.35.214-155.945 1.122-235.05 0-79.107-1.122-239.53 0-239.53 0s4.994 48.176 6.783 72.32c3.067 41.378 4.256 82.873 6.784 124.288 3.405 55.765 7.902 111.488 11.307 167.253 2.529 41.415 3.91 82.896 6.784 124.288 4.346 62.593 5.024 125.748 15.786 187.562 6.017 34.562 14.418 68.979 27.136 101.674 15.355 39.474 33.474 78.714 58.84 112.633 18.288 24.456 41.648 45.043 65.883 63.622 27.747 21.273 57.962 39.816 89.932 53.969 33.818 14.97 69.918 25.08 106.24 32.093 27.334 5.278 55.354 7.255 83.193 7.35 27.662.094 55.548-1.52 82.713-6.74 36.46-7.007 72.538-17.626 106.458-32.747 31.934-14.235 62.229-32.696 89.976-53.968 24.235-18.58 47.595-39.167 65.884-63.623 25.365-33.919 43.483-73.159 58.838-112.632 12.719-32.696 21.12-67.156 27.137-101.718 10.761-61.814 11.44-124.97 15.786-187.562 2.873-41.392 4.255-82.873 6.784-124.288 3.404-55.765 7.902-111.444 11.306-167.21 2.529-41.414 3.718-82.91 6.785-124.288 1.79-24.144 6.784-72.32 6.784-72.32s-90.237-.636-168.732-.478z" transform="translate(188.79 3.463)"/><path style="fill:#fff;fill-opacity:1;stroke:#000;stroke-width:5;stroke-linecap:butt;stroke-linejoin:round;stroke-miterlimit:4;stroke-opacity:1;stroke-dasharray:none" d="M639.394-.963c-9.98-.002-19.97.012-29.781.032-26.165.052-51.036.188-70.813.468-79.106 1.123-156.712-.214-235.062 0-1.18.003-2.351.024-3.532.032 1.827 29.547 9.255 143.87 18.282 204.53 11.504 77.312 23.126 155.72 48.187 228.75 21.966 64.01 50.935 126.03 88.313 179.97 33.065 47.715 72.691 91.025 117.78 123.53 37.757 27.22 80.362 47.586 124.188 57.563a874.245 874.245 0 0 0 6.782-16.968c12.718-32.696 21.139-67.157 27.156-101.72 10.762-61.813 11.436-124.969 15.781-187.562 2.874-41.392 4.253-82.898 6.781-124.312 3.405-55.766 7.908-111.422 11.313-167.188 2.528-41.414 3.714-82.934 6.781-124.312.404-5.443.99-12.161 1.625-19.219 1.605-20.32 3.53-42.245 4.5-53.094-1.66-.011-69.279-.484-138.281-.5zM-49.794-.9c-65.65.054-127.111.491-128.343.5.963 10.785 2.871 32.44 4.468 52.625.652 7.226 1.245 14.128 1.657 19.687 3.067 41.378 4.252 82.867 6.78 124.282 3.406 55.765 7.909 111.484 11.313 167.25 2.529 41.414 3.908 82.889 6.782 124.28 4.345 62.594 5.02 125.75 15.78 187.563 6.018 34.562 14.439 68.992 27.157 101.688a876.177 876.177 0 0 0 6.781 16.937c43.817-9.979 86.409-30.35 124.157-57.562 45.09-32.506 84.716-75.816 117.78-123.531 37.379-53.94 66.348-115.96 88.313-179.97 25.062-73.03 36.684-151.438 48.188-228.75 9.026-60.66 16.48-174.983 18.312-204.53-1.18.008-2.35.028-3.53.03-78.35.215-155.957 1.123-235.063 0C31.073-.82-10.006-.932-49.794-.9z" transform="translate(188.79 3.463)"/><path style="fill:#000;stroke:#000;stroke-width:5;stroke-linecap:round;stroke-linejoin:round;stroke-miterlimit:4;stroke-opacity:1;stroke-dasharray:none;stroke-dashoffset:0" d="m327.625 25.156 371.063 706.657c6.124-21.365 12.61-43.024 16.187-65.094 8.078-49.835 11.75-151 11.75-151L468.937 25.156z" transform="translate(188.79 3.463)"/><path style="fill:none;stroke:#fff;stroke-width:5;stroke-linecap:square;stroke-linejoin:miter;stroke-miterlimit:4;stroke-opacity:1;stroke-dasharray:none" d="m332.125 7.031 394.656 751.625" transform="translate(188.79 3.463)"/><path style="fill:none;stroke:#000;stroke-width:20;stroke-linecap:butt;stroke-linejoin:miter;stroke-miterlimit:4;stroke-opacity:1;stroke-dasharray:none" d="M609.597 6.562c-26.166.053-51.022.198-70.798.479-79.106 1.122-156.701-.214-235.051 0-2.653.007-5.305.036-7.958.043-78.35.214-155.945 1.122-235.05 0-79.107-1.122-239.53 0-239.53 0s4.994 48.176 6.783 72.32c3.067 41.378 4.256 82.873 6.784 124.288 3.405 55.765 7.902 111.488 11.307 167.253 2.529 41.415 3.91 82.896 6.784 124.288 4.346 62.593 5.024 125.748 15.786 187.562 6.017 34.562 14.418 68.979 27.136 101.674 15.355 39.474 33.474 78.714 58.84 112.633 18.288 24.456 41.648 45.043 65.883 63.623 27.747 21.272 57.962 39.815 89.932 53.968 33.818 14.97 69.918 25.08 106.24 32.093 27.334 5.278 55.354 7.255 83.193 7.35 27.662.094 55.548-1.52 82.713-6.74 36.46-7.007 72.538-17.626 106.458-32.747 31.934-14.235 62.229-32.696 89.976-53.968 24.235-18.58 47.595-39.166 65.884-63.622 25.365-33.92 43.483-73.16 58.838-112.633 12.719-32.696 21.12-67.156 27.137-101.718 10.761-61.814 11.44-124.969 15.786-187.562 2.873-41.392 4.255-82.873 6.784-124.288 3.404-55.765 7.902-111.444 11.306-167.21 2.529-41.414 3.718-82.91 6.785-124.287 1.79-24.145 6.784-72.32 6.784-72.32s-90.237-.637-168.732-.479z" transform="translate(188.79 3.463)"/><text xml:space="preserve" style="font-size:7.54515696px;font-style:normal;font-variant:normal;font-weight:400;font-stretch:normal;text-align:center;line-height:125%;letter-spacing:0;word-spacing:0;writing-mode:lr-tb;text-anchor:middle;fill:#090505;fill-opacity:1;stroke:none;font-family:Sans;-inkscape-font-specification:Sans" x="396.025" y="1005.246" transform="rotate(7.822 69.07 1382.422)"><tspan x="396.025" y="1005.246">Christian Duscha</tspan></text><text xml:space="preserve" style="font-size:12.47256756px;font-style:normal;font-variant:normal;font-weight:400;font-stretch:normal;text-align:center;line-height:125%;letter-spacing:0;word-spacing:0;writing-mode:lr-tb;text-anchor:middle;fill:#070307;fill-opacity:1;stroke:none;font-family:Sans;-inkscape-font-specification:Sans" x="121.447" y="1110.119" transform="rotate(-14.29 108.209 -751.323)"><tspan x="121.447" y="1110.119">Gleiwitz-Essen-Landshut</tspan></text><text transform="rotate(7.822 69.07 1382.422)" y="1005.246" x="396.025" style="font-size:7.54515696px;font-style:normal;font-variant:normal;font-weight:400;font-stretch:normal;text-align:center;line-height:125%;letter-spacing:0;word-spacing:0;writing-mode:lr-tb;text-anchor:middle;fill:#090505;fill-opacity:1;stroke:none;font-family:Sans;-inkscape-font-specification:Sans" xml:space="preserve"><tspan y="1005.246" x="396.025">Christian Duscha</tspan></text><text transform="rotate(-14.29 108.209 -751.323)" y="1110.119" x="121.447" style="font-size:12.47256756px;font-style:normal;font-variant:normal;font-weight:400;font-stretch:normal;text-align:center;line-height:125%;letter-spacing:0;word-spacing:0;writing-mode:lr-tb;text-anchor:middle;fill:#070307;fill-opacity:1;stroke:none;font-family:Sans;-inkscape-font-specification:Sans" xml:space="preserve"><tspan y="1110.119" x="121.447">Gleiwitz-Essen-Landshut</tspan></text><path style="fill:#fff;stroke:#000;stroke-width:5;stroke-linecap:butt;stroke-linejoin:round;stroke-miterlimit:4;stroke-opacity:1;stroke-dasharray:none" d="M285.24 776.062c-11.932-38.715-37.48-75.042-69.76-99.523-14.14-10.726-32.525-16.382-50.226-17.673-12.917-.942-27.774-.33-38.135 7.441-8.653 6.49-12.164 18.365-14.882 28.834-7.406 28.523 5.719 60.15-2.79 88.362-2.212 7.332-5.011 16.619-12.092 19.533-7.372 3.034-18.171.56-23.254-5.58-4.156-5.022-.93-19.533-.93-19.533s-14.062 12.7-15.812 21.393c-2.582 12.827 1.592 27.563 9.301 38.135 6.643 9.108 17.65 16.26 28.834 17.672 16.735 2.115 35.14-4.413 48.367-14.882 16.344-12.936 17.54-38.581 31.624-53.947 7.964-8.688 17.063-19.885 28.834-20.463 12.484-.612 24.732 8.855 32.555 18.603 11.785 14.684 16.133 35.128 16.742 53.947.557 17.212-2.892 35.67-12.091 50.227-10.011 15.841-24.98 35.091-43.717 35.345-6.634.09-12.167-6.547-15.812-12.092-3.51-5.341-7.88-13.087-4.65-18.602 3.572-6.101 20.462-5.581 20.462-5.581s-9.674-8.91-15.812-10.232c-10.116-2.177-21.175.592-30.694 4.651-9.355 3.989-19.69 9.479-24.183 18.603-7.396 15.02-6.571 34.828 0 50.227 4.045 9.479 13.185 16.626 22.323 21.393 12.615 6.58 27.947 11.37 41.856 8.37 36.923-7.961 74.606-32.553 92.082-66.038 21.377-40.958 15.468-94.438 1.86-138.59z" transform="translate(188.79 3.463)"/><path style="fill:#fff;stroke:#000;stroke-width:5;stroke-linecap:butt;stroke-linejoin:round;stroke-miterlimit:4;stroke-opacity:1;stroke-dasharray:none" d="M314.297 776.062c11.932-38.715 37.481-75.042 69.76-99.523 14.141-10.726 32.525-16.382 50.227-17.673 12.917-.942 27.774-.33 38.135 7.441 8.653 6.49 12.164 18.365 14.882 28.834 7.405 28.523-5.72 60.15 2.79 88.362 2.212 7.332 5.011 16.619 12.092 19.533 7.371 3.034 18.17.56 23.253-5.58 4.157-5.022.93-19.533.93-19.533s14.063 12.7 15.813 21.393c2.582 12.827-1.592 27.563-9.302 38.135-6.642 9.108-17.65 16.26-28.834 17.672-16.735 2.115-35.14-4.413-48.366-14.882-16.345-12.936-17.54-38.581-31.625-53.947-7.963-8.688-17.062-19.885-28.834-20.463-12.483-.612-24.731 8.855-32.554 18.603-11.785 14.684-16.134 35.128-16.742 53.947-.557 17.212 2.892 35.67 12.091 50.227 10.01 15.841 24.979 35.091 43.716 35.345 6.635.09 12.168-6.547 15.812-12.092 3.511-5.341 7.881-13.087 4.651-18.602-3.573-6.101-20.463-5.581-20.463-5.581s9.675-8.91 15.812-10.232c10.117-2.177 21.176.592 30.695 4.651 9.355 3.989 19.69 9.479 24.183 18.603 7.396 15.02 6.571 34.828 0 50.227-4.045 9.479-13.185 16.626-22.323 21.393-12.615 6.58-27.947 11.37-41.856 8.37-36.923-7.961-74.606-32.553-92.083-66.038-21.376-40.958-15.467-94.438-1.86-138.59z" transform="translate(188.79 3.463)"/><path style="fill:#fff;stroke:#000;stroke-width:5;stroke-linecap:butt;stroke-linejoin:round;stroke-miterlimit:4;stroke-opacity:1;stroke-dasharray:none" d="M299.784 545.115s-7.035 10.732-11.71 15.034c-5.63 5.18-11.95 10.125-19.211 12.533-12.718 4.216-27.61-2.272-40.13 2.5-4.635 1.767-8.804 5.168-11.68 9.21-4.954 6.962-7.976 15.706-8.385 24.242-.741 15.456 5.942 30.469 10.886 45.132 8.848 26.241 24.698 49.769 33.422 76.052 7.025 21.166 13.06 42.983 15.033 65.196 2.987 33.619 3.294 68.403-5 101.119-5.544 21.862-20.697 40.147-29.245 61.019-3.906 9.539-11.033 18.984-10.032 29.243.594 6.088 4.5 11.948 9.178 15.888 10.45 8.801 26.338 7.89 38.453 14.21 6.916 3.607 11.981 10.433 19.212 13.356 2.883 1.166 6.1 1.496 9.209 1.495 3.1-.001 6.305-.333 9.179-1.494 7.239-2.926 12.318-9.749 19.242-13.357 12.118-6.315 28.003-5.409 38.453-14.21 4.678-3.94 8.584-9.8 9.178-15.888 1.001-10.259-6.126-19.704-10.032-29.243-8.548-20.872-23.701-39.157-29.244-61.02-8.295-32.715-8.019-67.5-5.032-101.118 1.974-22.213 8.04-44.03 15.064-65.196 8.724-26.283 24.574-49.811 33.422-76.052 4.944-14.663 11.597-29.676 10.856-45.132-.41-8.536-3.4-17.28-8.355-24.243-2.876-4.041-7.045-7.442-11.68-9.209-12.52-4.772-27.412 1.716-40.13-2.5-7.261-2.408-13.582-7.354-19.211-12.533-4.675-4.302-11.71-15.034-11.71-15.034z" transform="translate(188.79 3.463)"/><path style="fill:#fff;stroke:#000;stroke-width:5;stroke-linecap:round;stroke-linejoin:round;stroke-miterlimit:4;stroke-opacity:1;stroke-dasharray:none" d="M299.769 572.364v419.488M276.73 910.001s-11.635 23.976-16.742 36.275c-3.424 8.244-7.727 16.327-9.302 25.113-.984 5.494-2.884 11.965 0 16.743 3.44 5.699 11.906 5.975 17.673 9.301 8.569 4.943 25.113 15.812 25.113 15.812M282.31 591.897s-35.046-6.41-45.576 4.65c-8.135 8.545-3.659 23.686-1.86 35.346 2.02 13.09 9.624 24.687 13.952 37.205 8.716 25.206 16.175 50.83 24.183 76.27a14046.75 14046.75 0 0 1 9.302 29.764" transform="translate(188.79 3.463)"/><g style="fill:#fff;stroke:#000;stroke-opacity:1"><path d="M-790.19 896.993s-11.924 24.57-17.157 37.174c-3.508 8.45-7.918 16.732-9.532 25.736-1.009 5.63-2.956 12.262 0 17.158 3.526 5.84 12.201 6.123 18.11 9.531 8.782 5.066 25.737 16.205 25.737 16.205M-784.47 571.004s-35.916-6.568-46.707 4.766c-8.336 8.757-3.75 24.272-1.906 36.221 2.07 13.415 9.862 25.3 14.298 38.127 8.932 25.832 16.576 52.09 24.783 78.162 3.198 10.16 9.531 30.501 9.531 30.501" style="fill:#fff;stroke:#000;stroke-width:5.12393808;stroke-linecap:round;stroke-linejoin:round;stroke-miterlimit:4;stroke-opacity:1;stroke-dasharray:none" transform="matrix(-.97581 0 0 .97581 -259.478 38.167)"/></g><path style="fill:none;stroke:#000;stroke-width:5;stroke-linecap:round;stroke-linejoin:miter;stroke-miterlimit:4;stroke-opacity:1;stroke-dasharray:none" d="M88.828 820.709s18.866-.356 26.043-5.581c7.524-5.478 11.066-15.336 13.952-24.184 6.285-19.27-1.625-41.893 6.511-60.458 5.292-12.074 13.827-24.81 26.044-29.764 14.125-5.728 32.305-3.778 45.576 3.72 18.953 10.71 38.135 53.018 38.135 53.018" transform="translate(188.79 3.463)"/><path style="fill:#fff;stroke:#000;stroke-width:5;stroke-linecap:round;stroke-linejoin:miter;stroke-miterlimit:4;stroke-opacity:1;stroke-dasharray:none" d="M158.587 900.7s-11.299 12.58-12.091 20.462c-.854 8.488 2.46 18.033 8.37 24.184 5.307 5.521 13.74 8.592 21.394 8.371 12.619-.364 34.414-15.812 34.414-15.812" transform="translate(188.79 3.463)"/><g style="fill:#fff;stroke:#000;stroke-opacity:1"><path d="M-684.792 767.229s-19.333-.364-26.689-5.72c-7.71-5.613-11.34-15.715-14.298-24.782-6.44-19.748 1.666-42.932-6.672-61.957-5.423-12.374-14.17-25.425-26.69-30.502-14.475-5.87-33.106-3.872-46.705 3.813-19.423 10.975-39.08 54.331-39.08 54.331" style="fill:none;stroke:#000;stroke-width:5.12393808;stroke-linecap:round;stroke-linejoin:miter;stroke-miterlimit:4;stroke-opacity:1;stroke-dasharray:none" transform="translate(1367.73 75.5) scale(.97581)"/><path d="M-756.28 849.203s11.578 12.891 12.39 20.97c.876 8.698-2.52 18.48-8.578 24.783-5.437 5.658-14.08 8.805-21.923 8.578-12.932-.373-35.268-16.204-35.268-16.204" style="fill:#fff;stroke:#000;stroke-width:5.12393808;stroke-linecap:round;stroke-linejoin:miter;stroke-miterlimit:4;stroke-opacity:1;stroke-dasharray:none" transform="translate(1367.73 75.5) scale(.97581)"/></g><g style="fill:#fff" transform="translate(1257.902 11.463)"><g transform="translate(0 -.787)" style="fill:#fff"><rect style="fill:#fff;stroke:#000;stroke-width:5;stroke-linecap:round;stroke-linejoin:round;stroke-miterlimit:4;stroke-opacity:1;stroke-dasharray:none;stroke-dashoffset:0" width="140.036" height="29.977" x="-839.36" y="785.994" rx="15.304" ry="14.989"/><rect style="fill:#fff;stroke:#000;stroke-width:5;stroke-linecap:round;stroke-linejoin:round;stroke-miterlimit:4;stroke-opacity:1;stroke-dasharray:none;stroke-dashoffset:0" width="140.036" height="29.977" x="-839.36" y="836.389" rx="15.304" ry="14.989"/></g><rect ry="14.989" rx="15.304" y="810.404" x="-857.989" height="29.977" width="177.293" style="fill:#fff;stroke:#000;stroke-width:4.99999952;stroke-linecap:round;stroke-linejoin:round;stroke-miterlimit:4;stroke-opacity:1;stroke-dasharray:none;stroke-dashoffset:0"/></g><g style="fill:none;stroke:#fdffff;stroke-opacity:1"><path d="M-907.84 197.818c-7.31-3.575-17.32 4.957-21.196 12.113-3.275 6.045 2.745 13.889 1.21 20.591-2.68 11.717-10.987 21.431-17.562 31.493-16.08 24.605-34.85 47.368-53.296 70.253-17.342 21.515-31.746 46.47-53.901 62.986-4.782 3.565-10.388 7.169-16.352 7.267-8.059.133-15.93-4.288-22.408-9.084-7.729-5.722-9.685-17.882-18.17-22.409-3.934-2.099-8.955-2.111-13.323-1.21-7.874 1.623-13.237 10.376-21.197 11.506-6.547.93-12.768-4.133-19.38-4.24-5.543-.089-12.117-.547-16.352 3.029-4.929 4.162-3.351 12.633-6.662 18.169-2.496 4.172-7.212 6.718-9.69 10.901-3.06 5.164-5.902 10.958-6.057 16.958-.108 4.214 1.696 8.369 3.634 12.112 2.711 5.236 5.185 15.372 10.901 13.93 6.951-1.754.34-14.83 3.634-21.197 1.837-3.55 4.68-7.235 8.48-8.479 2.523-.826 5.944-.614 7.872 1.211 2.847 2.695.638 8.017 2.423 11.507 1.366 2.672 3.152 5.903 6.056 6.662 4.941 1.291 10.924-1.234 14.535-4.845 2.257-2.257 3.028-5.892 3.028-9.084 0-3.192-3.502-5.928-3.028-9.085.517-3.434 2.968-6.89 6.056-8.479 3.052-1.57 7.667-2.205 10.296 0 2.67 2.24.208 7.205 1.817 10.296 1.582 3.039 3.985 6.286 7.268 7.268 5.727 1.713 11.616-3.025 17.563-3.634 3.414-.35 6.979-.881 10.296 0 4.719 1.253 13.133 2.402 12.718 7.267-.804 9.418-18.045 5.776-26.648 9.69-9.87 4.491-19.201 10.11-28.464 15.747-5.597 3.405-10.499 7.96-16.352 10.901-5.364 2.694-12.908 1.627-16.958 6.057-3.8 4.155-1.51 11.426-4.24 16.352-2.56 4.621-9.811 6.336-10.9 11.506-1.238 5.874 6.203 10.958 6.055 16.958-.156 6.334-6.343 11.295-7.267 17.563-.592 4.015-.276 8.338 1.211 12.113 1.954 4.959 5.487 9.44 9.69 12.718 3.637 2.837 8.996 8.174 12.718 5.45 6.712-4.91-2.838-16.524-2.422-24.83.36-7.197-2.933-20.51 4.24-21.197 4.776-.457 2.793 9.328 5.45 13.324 2.53 3.804 5.169 9.039 9.69 9.69 5.008.721 9.14-4.423 13.324-7.268 3.912-2.659 10.099-4.423 10.901-9.084 1.076-6.244-5.098-11.986-9.69-16.352-3.141-2.987-11.668-1.725-11.507-6.056.189-5.06 8.869-6.192 13.93-6.057 5.866.157 9.878 7.874 15.746 7.874 4.966 0 9.669-3.302 13.324-6.662 7.136-6.562 7.331-19.088 15.14-24.831 4.024-2.96 9.553-3.299 14.536-3.634 3.648-.245 10.38-2.407 10.901 1.211.969 6.717-14.616 2.51-18.774 7.873-5.126 6.611-1.698 16.693-3.634 24.831-1.625 6.832-2.744 14.159-6.662 19.986-3.116 4.634-10.96 5.602-12.718 10.901-2.607 7.856 4.753 15.978 5.45 24.226.324 3.827-.504 7.667-.605 11.507-.09 3.43-.55 6.908 0 10.295 1.636 10.083 3.385 21.035 9.69 29.07 3.976 5.068 10.163 8.51 16.352 10.296 4.461 1.288 11.718 4.083 13.93 0 2.64-4.874-8.522-8.415-9.085-13.93-.617-6.04 2.81-12.261 6.662-16.957 2.13-2.598 5.889-3.31 8.479-5.45 4.513-3.73 10.592-7.065 12.112-12.719 1.348-5.012-.443-11.046-3.634-15.14-2.941-3.776-11.703-1.985-12.718-6.662-.976-4.5 4.575-8.462 8.48-10.902 3.323-2.077 9.25.783 11.506-2.422 3.4-4.834-2.08-11.664-2.423-17.564-.549-9.474-3.874-20.098.606-28.464 3.834-7.159 12.334-11.212 19.986-13.93 5.15-1.83 11.45-3.63 16.352-1.211 6.276 3.097 5.898 13.377 11.507 17.563 5.067 3.782 12.732 8.68 18.169 5.451 3.37-2.002-1.434-10.807 2.422-11.507 5.18-.94 6.06 8.648 8.48 13.324 2.205 4.262 1.98 10.008 5.45 13.324 4.34 4.147 13.5 1.15 16.957 6.056 2.675 3.795 1.777 9.64 0 13.93-1.638 3.956-11.168 5.343-9.084 9.084 3.431 6.16 14.976-.58 20.591-4.845 7.34-5.574 10.503-15.452 13.324-24.225 3.113-9.678 6.035-20.403 3.634-30.282-1.613-6.638-6.933-11.883-11.507-16.957-3.357-3.725-6.886-7.743-11.507-9.69-11.402-4.807-25.757 1.656-36.943-3.634-5.678-2.685-11.445-7.331-13.324-13.324-2.394-7.633.87-16.365 4.24-23.62 15.459-33.29 43.791-59.352 70.252-84.788 16.301-15.67 41.868-22.04 53.901-41.183 3.182-5.061 1.963-11.823 3.634-17.563 1.75-6.012 6.904-11.307 6.662-17.563-.146-3.79-3.435-6.775-4.845-10.296-1.66-4.149-2.64-8.545-4.24-12.718-3.623-9.456-2.346-25.182-12.112-27.86-8.646-2.37-14.554 10.472-21.803 15.747-3.036 2.21-5.33 6.578-9.084 6.662-5.094.114-10.002-4.168-12.718-8.479-3.806-6.038 3.383-18.061-3.028-21.197z" style="fill:#000;stroke:#000;stroke-width:5.15596342;stroke-linecap:butt;stroke-linejoin:round;stroke-miterlimit:4;stroke-opacity:1;stroke-dasharray:none" transform="matrix(.95982 0 0 .97978 1219.146 -.676)"/><path d="M-999.98 153.789s5.051 11.998 10.463 14.487c7.337 3.374 16.277-.189 24.144-2.012 8.979-2.082 19.214-16.554 25.754-10.06 3.465 3.44-2.545 9.604-5.23 13.681-3.602 5.466-11.45 7.69-14.085 13.682-1.89 4.3-.781 9.403-.403 14.084.287 3.54-.752 8.234 2.012 10.463 4.388 3.537 11.758 1.899 16.902-.403 5.37-2.403 7.418-9.276 12.072-12.877 5.317-4.113 11.678-6.68 17.706-9.657 3.553-1.755 7.356-6.672 10.865-4.83 3.866 2.031 1.55 8.597 2.414 12.878 1.63 8.072-2.669 21.82 5.231 24.144 5.096 1.499 7.763-7.276 11.268-11.267 2.903-3.307 4.714-7.591 8.048-10.463 4.185-3.605 9.192-9.625 14.486-8.048 8.28 2.468 8.186 15.22 12.073 22.937 3.616 7.18 5.285 15.58 10.462 21.73 4.458 5.297 16.901 12.072 16.901 12.072s-4.952-12.384-6.036-18.913c-3.295-19.852 5.698-41.458-1.207-60.36-1.244-3.405-4.641-5.571-6.841-8.451-2.508-3.284-3.114-9.897-7.243-10.06-8.083-.32-8.566 14.687-15.694 18.51-4.047 2.171-9.204 2.626-13.682 1.61-2.94-.667-5.577-2.637-7.646-4.829-4.944-5.24-3.566-16.828-10.462-18.913-3.905-1.18-7.03 4.24-10.865 5.634-6.974 2.534-15.786 9.27-21.73 4.829-3.124-2.334-.204-7.818-.805-11.67-1.214-7.779.349-17.82-5.634-22.937-3.58-3.064-9.681-2.887-14.084-1.208-12.234 4.668-16.079 21.288-26.961 28.571-4.058 2.716-8.948 4.036-13.682 5.232-6.033 1.524-18.51 2.414-18.51 2.414z" style="fill:#000;stroke:#000;stroke-width:5.15596342;stroke-linecap:butt;stroke-linejoin:round;stroke-miterlimit:4;stroke-opacity:1;stroke-dasharray:none" transform="matrix(.95982 0 0 .97978 1219.146 -.676)"/><path d="M-936.802 29.848h151.707s-12.294 33.223-16.9 50.3c-3.817 14.148-7.765 28.446-8.854 43.058-.738 9.913.545 19.895 1.61 29.778.539 4.999 2.414 14.89 2.414 14.89s-10.752-11.366-15.291-17.707c-5.25-7.333-4.75-22.1-13.682-23.34-9.209-1.276-13.48 12.81-20.12 19.316-4.2 4.116-6.744 13.793-12.475 12.475-7.193-1.655-5.287-13.808-7.243-20.925-1.234-4.49 1.49-11.912-2.817-13.682-7.157-2.941-12.596 9.04-19.315 12.877-3.751 2.142-7.703 7.341-11.67 5.634-8.533-3.674-4.568-18.12-8.45-26.56-1.385-3.009-2.294-6.918-5.232-8.45-6.433-3.353-14.603 2.56-21.73 1.207-5.366-1.018-11.343-2.686-14.889-6.84-2.26-2.65-2.343-6.61-2.817-10.06-.584-4.253 0-12.878 0-12.878s6.016 11.619 11.67 13.28c5.622 1.651 12.704-.74 16.901-4.83 3.525-3.433 3.942-9.186 4.427-14.083.863-8.727-1.257-17.527-2.817-26.157-1.06-5.858-4.427-17.303-4.427-17.303z" style="fill:#000;stroke:#000;stroke-width:5.15596342;stroke-linecap:butt;stroke-linejoin:round;stroke-miterlimit:4;stroke-opacity:1;stroke-dasharray:none" transform="matrix(.95982 0 0 .97978 1219.146 -.676)"/><path d="M-904.61 126.023s4.345-10.892 6.037-16.499c1.993-6.603 4.829-20.12 4.829-20.12M-942.838 99.867s10.226-2.49 14.89-4.83c3.525-1.768 9.657-6.84 9.657-6.84M-863.966 141.717s8.223-13.247 10.865-20.523c2.2-6.058 4.024-18.913 4.024-18.913M-816.885 142.522s-5.355-15.07-6.438-22.938c-.586-4.252 0-12.877 0-12.877M-967.385 155.801c1.61-.805 21.73-16.096 21.73-16.096M-942.838 187.994s12.233-9.125 16.499-15.292c2.224-3.216 4.426-10.865 4.426-10.865M-889.72 200.468s6.005-7.968 8.048-12.474c2.016-4.447 4.024-14.085 4.024-14.085M-833.383 212.54s-4.755-10.784-6.036-16.498c-.973-4.337-1.208-13.28-1.208-13.28M-870.405 245.538s7.53 11.802 8.048 18.51c.448 5.807-1.237 12.028-4.426 16.901-13.753 21.018-40.832 29.498-59.154 46.68-14.342 13.448-27.418 28.3-39.436 43.862-8.936 11.571-18.96 22.948-24.144 36.619-3.026 7.982-3.622 25.351-3.622 25.351M-979.054 390.001l-21.73-19.315M-964.165 366.662l-17.706-17.706M-944.85 346.542l-20.925-20.12M-925.534 325.616l-23.742-18.51M-901.792 308.313l-19.718-19.316M-1190.318 420.584s5.71-11.347 10.463-15.291c2.82-2.34 6.413-4.78 10.06-4.427 3.74.363 7.063 3.386 9.255 6.439 2.526 3.517 3.622 12.475 3.622 12.475M-1111.044 414.146s7.402-2.607 11.268-2.817c6.895-.375 20.522 2.817 20.522 2.817M-1099.374 481.75c0-1.61 6.055-15.484 11.67-21.327 5.961-6.204 22.132-13.28 22.132-13.28M-1063.56 466.056s9.674-10.692 12.072-17.303c2.112-5.823-.953-12.873 1.61-18.51 2.08-4.578 7.122-7.109 10.463-10.866 4.496-5.057 12.877-15.694 12.877-15.694M-1047.061 490.2s8.738-14.596 15.291-19.717c3.928-3.07 8.768-5.201 13.682-6.036 10.082-1.714 30.583 2.414 30.583 2.414M-938.009 503.48c2.817-2.414 6.905-11.747 12.877-13.28 3.534-.906 7.656.888 10.463 3.22 2.445 2.032 4.426 8.45 4.426 8.45" style="fill:none;stroke:#fdffff;stroke-width:5.15596342;stroke-linecap:round;stroke-linejoin:miter;stroke-miterlimit:4;stroke-opacity:1;stroke-dasharray:none" transform="matrix(.95982 0 0 .97978 1219.146 -.676)"/><path d="M-1059.536 581.144s-7.792-9.16-12.877-8.45c-3.861.54-5.912 5.36-7.645 8.853-2.012 4.053-2.877 8.755-2.817 13.28.046 3.448 2.414 10.06 2.414 10.06M-1143.236 520.381s-6.749-6.013-10.865-7.646c-5.29-2.098-16.901-2.414-16.901-2.414" style="fill:none;stroke:#fdffff;stroke-width:5.15596342;stroke-linecap:round;stroke-linejoin:round;stroke-miterlimit:4;stroke-opacity:1;stroke-dasharray:none" transform="matrix(.95982 0 0 .97978 1219.146 -.676)"/></g></svg>