<svg height="208.012" width="193.847" xmlns="http://www.w3.org/2000/svg"><path d="M192.597 1.25s-4.95 98.849-6.937 121.957c-1.886 21.954-11.79 42.687-27.886 58.378-16.655 16.237-38.264 25.177-60.849 25.177-22.584 0-44.196-8.94-60.849-25.177-16.096-15.691-25.998-36.424-27.883-58.378C6.205 100.1 1.25 1.25 1.25 1.25z" fill="#0f47af"/><path d="M1.25 1.25h37.706l142.492 142.498c-4.643 14.143-12.72 27.158-23.674 37.837a91.726 91.726 0 0 1-10.698 8.932L3.628 47.068C2.3 22.2 1.25 1.25 1.25 1.25" fill="#f9d100"/><path d="M1.25 1.25h37.706l142.492 142.498c-4.643 14.143-12.72 27.158-23.674 37.837a91.726 91.726 0 0 1-10.698 8.932L3.628 47.068C2.3 22.2 1.25 1.25 1.25 1.25z" fill="#fcdd09" stroke="#1b1a1c" stroke-width="1.25"/><path d="M192.597 1.25s-4.95 98.849-6.937 121.957c-1.886 21.954-11.79 42.687-27.886 58.378-16.655 16.237-38.264 25.177-60.849 25.177-22.584 0-44.196-8.94-60.849-25.177-16.096-15.691-25.998-36.424-27.883-58.378C6.205 100.1 1.25 1.25 1.25 1.25z" fill="none" stroke="#1b1a1c" stroke-width="2.5"/><g fill="#da121a" fill-rule="evenodd" stroke="#313131" stroke-linejoin="bevel"><path d="M38.692 16.079 32.14 31.454l-17.394-1.632 10.115 13.34-10.144 14.119 16.525-1.97 7.543 15.77 6.324-15.198 17.612 1.454-10.068-13.04 10.115-14.4-16.685 2.13zM88.764 62.427l-6.551 15.376-17.394-1.632 10.115 13.34-10.143 14.118 16.524-1.97 7.544 15.77 6.324-15.197 17.61 1.454-10.067-13.04 10.115-14.4-16.685 2.13zM139.321 112.133l-6.551 15.376-17.394-1.632 10.115 13.34-10.143 14.118 16.524-1.97 7.544 15.77 6.324-15.197 17.611 1.454-10.068-13.04 10.115-14.4-16.685 2.13z"/></g></svg>