<svg xmlns="http://www.w3.org/2000/svg" viewBox="0 0 1028.8 1067.6"><path d="M887.05 10c-9.98-.002-20 .012-29.813.031-26.16.053-51 .188-70.781.469-79.11 1.122-156.71-.214-235.06 0-2.653.007-5.285.055-7.938.063-78.35.214-155.96 1.122-235.06 0-36.691-.521-90.63-.547-138.19-.438L9.998 130.565s75.952 4.368 78.44 45.14c3.405 55.766 1.891 142.94 5.296 198.7 2.529 41.41 3.908 82.92 6.781 124.31 4.346 62.59 5.02 125.75 15.781 187.56 6.02 34.562 14.438 68.961 27.16 101.66 15.355 39.473 33.447 78.71 58.813 112.62 18.288 24.456 41.671 45.05 65.906 63.62 27.747 21.272 57.967 39.816 89.94 53.969 33.818 14.97 69.896 25.08 106.22 32.09 27.334 5.278 55.35 7.249 83.19 7.344 27.662.094 55.55-1.498 82.72-6.719 36.46-7.01 72.55-17.629 106.47-32.75 31.934-14.235 62.22-32.697 89.97-53.969 24.24-18.58 47.587-39.17 65.875-63.62 25.365-33.919 43.489-73.15 58.844-112.62 12.718-32.695 21.14-67.16 27.16-101.72 10.762-61.814 11.436-124.97 15.781-187.56 2.874-41.39 4.253-82.87 6.781-124.28 3.405-55.766 7.908-111.45 11.313-167.22 2.407-39.432 3.619-78.937 6.375-118.34-25.19-26.753-50.905-53.849-74.72-78.66-18.292-.059-37-.12-57.03-.125" fill="#fff"/><path d="M544.14 8.39V1058.7" style="fill:none;stroke:#000;stroke-width:5;stroke-linecap:round"/><path style="fill:#89c5e3;stroke:#000;stroke-width:8;stroke-miterlimit:4;stroke-dasharray:none;stroke-linejoin:round;stroke-linecap:round;fill-opacity:1" d="M887.07 10.003c-9.98-.002-20 .012-29.813.031-26.16.053-51 .188-70.781.469-79.11 1.122-156.71-.214-235.06 0-2.433.006-4.851.05-7.281.063v1047c1.133 0 2.274.027 3.406.031 27.662.094 55.55-1.498 82.72-6.719 36.46-7.01 72.55-17.63 106.47-32.75 31.934-14.235 62.22-32.697 89.97-53.969 24.24-18.58 47.587-39.17 65.875-63.62 25.365-33.919 43.489-73.15 58.844-112.62 12.718-32.695 21.14-67.16 27.16-101.72 10.762-61.814 11.436-124.97 15.781-187.56 2.874-41.39 4.253-82.87 6.781-124.28 3.405-55.766 7.908-111.45 11.313-167.22 2.407-39.432 3.619-78.937 6.375-118.34-25.19-26.753-50.905-53.849-74.72-78.66-18.292-.059-37-.12-57.03-.125z"/><path style="fill:#fcdd09;stroke:#000;stroke-width:5;stroke-linecap:round;stroke-linejoin:round" d="M746.14 88.535c-17.01-9.02-38.501-3.243-48 12.909a32.303 32.303 0 0 0-4.237 12.393 35.059 35.059 0 0 0-8.815-6.609c-17.01-9.02-38.501-3.243-48 12.909-9.502 16.15-3.415 36.561 13.594 45.584a36.584 36.584 0 0 0 17.02 4.266l-46.807 44.01 78.43 41.605 14.917-60.921c3.049 4.657 7.35 8.659 12.748 11.523 17.01 9.02 38.501 3.243 48-12.909 9.502-16.15 3.415-36.561-13.594-45.584-3.385-1.796-6.94-3-10.548-3.663 3.513-2.644 6.569-5.977 8.891-9.924 9.502-16.15 3.415-36.561-13.594-45.584z"/><path d="M474.37 212.76c-14.494 1.737-30.354-1.198-43.486 5.177-8.781 4.263-15.989 12.162-20.707 20.707-3.763 6.817-6.588 15.12-5.177 22.778.902 4.895 3.894 10.08 8.283 12.424 2.13 1.14 5.231-1.33 7.248 0 2.194 1.447 3.346 4.63 3.106 7.248-1.138 12.391-14.1 20.517-20.707 31.06-7.23 11.535-14.396 23.14-20.707 35.2-2.291 4.378-3.68 9.216-6.212 13.46-2.653 4.446-10.508 7.386-9.318 12.424.709 3 5.591 2.632 8.283 4.141 2.84 1.593 7.321 2.066 8.283 5.177 1.781 5.758-4.09 11.432-7.248 16.566-5.394 8.77-12.888 16.07-19.672 23.813-4.345 4.96-8.706 9.926-13.46 14.495-9.177 8.819-20.778 15.12-28.99 24.849-3.895 4.612-8.507 9.548-9.318 15.531-.866 6.389 1.502 13.339 5.177 18.637 2.676 3.857 7.136 6.297 11.389 8.283 3.546 1.656 8.07.777 11.389 2.847 3.066 1.911 4.971 5.287 6.989 8.283 2.07 3.073 5.07 6.133 5.177 9.836.151 5.21-2.96 10.384-6.471 14.236-2.812 3.085-8.207 3-10.871 6.212-1.516 1.827-2.21 4.359-2.33 6.73-.17 3.365 1.831 6.504 2.33 9.836 1.19 7.952-.545 16.31 1.553 24.07.806 2.98 3 5.413 4.141 8.283 1.66 4.187 4.27 8.455 3.883 12.942-.133 1.538-1.38 2.761-2.071 4.141-1.122 2.243-2.829 4.28-3.365 6.73-.553 2.53-.432 5.269.259 7.765.948 3.424 2.825 6.655 5.177 9.318 1.839 2.083 4.232 3.701 6.73 4.918 3.708 1.806 7.893 2.417 11.907 3.365 3.59.848 7.383.87 10.871 2.071 3.211 1.106 6.56 2.36 9.06 4.659 2.396 2.204 4.087 5.215 5.177 8.283.699 1.966.751 4.126.777 6.212.032 2.601-.3 5.208-.777 7.765-.476 2.552-.965 5.158-2.071 7.506-1.346 2.859-4.88 4.655-5.436 7.765-.298 1.669.636 3.356 1.294 4.918 1.368 3.245 3.828 5.926 5.436 9.06 1.888 3.679 2.341 8.155 4.918 11.389 2 2.51 4.927 4.195 7.765 5.695 4.126 2.18 8.643 3.658 13.201 4.659 6.348 1.394 12.92 1.51 19.413 1.812 4.05.189 8.173.709 12.166 0 5.43-.964 10.595-3.237 15.531-5.695 4.135-2.059 7.442-5.596 11.648-7.506 2.441-1.109 7.73-2.224 7.73-2.224s3.113 5.01 4.764 7.455c2.288 3.389 4.323 7.007 7.118 9.991 2.909 3.106 6.456 5.557 9.888 8.071 4.576 3.35 9.774 5.817 14.236 9.318 1.393 1.093 3.177 2 3.883 3.624.86 1.978.682 4.425 0 6.471-.409 1.228-1.256 2.383-2.33 3.106-2.516 1.696-6.136.877-8.801 2.33-3.486 1.9-6.472 4.809-8.801 8.02-2.718 3.753-5.419 8.06-5.695 12.683-.172 2.888 2.152 5.423 2.588 8.283.195 1.279.569 2.72 0 3.883-1.297 2.651-4.633 3.657-6.989 5.436-8.622 6.509-17.05 13.316-26.14 19.15-5.655 3.632-11.211 7.753-17.601 9.836-13.634 4.444-32.29-4.672-42.709 5.177-6.754 6.381-4.299 18.17-4.918 27.437-1.048 15.683-.383 31.584 2.071 47.11 2.124 13.439 5.44 26.869 10.871 39.34 5.257 12.08 11.661 24.08 20.707 33.649 10.687 11.306 24.49 19.513 38.31 26.661 9.697 5.02 20.13 8.836 30.802 11.13 10.998 2.364 22.4 2.657 33.649 2.589 8.749-.053 17.731.073 26.14-2.33 19.331-5.521 37.571-15.367 53.839-27.18 15.946-11.578 28.778-27.03 41.674-41.932 11.09-12.813 20.749-26.81 30.543-40.638 5.03-7.108 11.01-13.76 14.495-21.743.888-2.033-.573-5.837 1.553-6.471 1.93-.576 2.626 3.188 4.4 4.141 2.655 1.427 5.802 1.771 8.801 2.071 16.234 1.624 32.765.721 48.921-1.553 6.963-.98 13.875-2.68 20.449-5.177 7.54-2.864 14.608-6.915 21.484-11.13 10.86-6.657 22.902-12.479 31.06-22.26 5.562-6.669 8.706-15.216 11.13-23.555 1.553-5.344 1.828-11.01 2.071-16.566.305-6.987.264-14.05-.777-20.966-.744-4.946-1.686-10-3.883-14.495-5.842-11.954-14.264-22.849-24.07-31.838-8.26-7.569-18.618-12.53-28.473-17.86-11.613-6.282-24.814-9.518-35.979-16.566-2.279-1.439-5.899-2.5-6.212-5.177-.1-.857.828-1.603 1.553-2.071 2.01-1.294 5.03-.195 6.989-1.553 2.204-1.525 3.41-4.239 4.4-6.73 1.263-3.177 1.73-6.677 1.812-10.09.048-2 .069-4.14-.777-5.953-2.426-5.202-8.677-7.772-11.648-12.683-3.037-5.02-2.284-11.987-5.953-16.566-1.916-2.391-4.863-3.936-7.765-4.918-2.79-.944-5.901-1.292-8.801-.777-3.192.567-5.567 3.901-8.801 4.141-2.695.2-5.497-.86-7.765-2.33-2.105-1.364-4.36-3.249-4.918-5.695-.735-3.224.652-6.897 2.588-9.577 3.03-4.19 8.294-6.282 12.942-8.542 3.926-1.909 9.06-1.362 12.424-4.141 2.443-2.02 1.611-7.421 4.659-8.283 2.564-.725 4.344 4.21 6.989 3.883 3.756-.464 5.364-5.356 8.283-7.765 2.383-1.966 4.807-3.933 7.506-5.436 3.178-1.769 6.837-2.525 10.09-4.141 3.049-1.513 6.129-3.069 8.801-5.177 2.539-2 5.29-4.093 6.73-6.989 1.478-2.972 1.257-6.53 1.553-9.836.354-3.954-1.07-8.166.259-11.907.659-1.854 2.238-3.262 3.624-4.659 3.331-3.358 7.139-6.263 11.13-8.801 1.628-1.035 3.821-1.216 5.177-2.588 2.224-2.251 3.533-5.437 4.141-8.542.515-2.63.489-5.54-.518-8.02-1.149-2.836-4.628-4.23-5.953-6.989-.989-2.059-1.204-4.447-1.294-6.73-.124-3.123-.05-6.387 1.035-9.318.798-2.155 2.598-3.79 3.883-5.695 2.435-3.611 5.986-6.703 7.248-10.871.9-2.973.998-6.377 0-9.318-1.048-3.089-3.578-5.53-5.953-7.765-3.259-3.067-8.372-3.982-11.13-7.506-2.322-2.966-4.654-6.926-3.883-10.613.562-2.688 3.902-3.873 5.695-5.953 2.207-2.563 4.457-5.133 6.212-8.02 1.282-2.112 2.488-4.338 3.106-6.73.887-3.434 1.573-7.156.777-10.613-.695-3.01-2.494-5.816-4.659-8.02-1.979-2.02-4.882-2.854-7.248-4.4-4.148-2.711-8.818-4.888-12.166-8.542-1.28-1.397-2.938-3.03-2.847-4.918.071-1.483 2.675-2.142 2.588-3.624-.733-12.561-16.394-19.13-25.367-27.955-21.276-20.918-43.21-41.41-67.3-59.02-33.998-24.852-70.06-47.37-108.2-65.23-25.304-11.851-51.42-24.462-79.21-27.437-10.02-1.073-20.02 2.424-30.03 3.624"/><path style="fill:#da121a" d="M348.46 559.18c-3.148.135-6.701 1.169-8.75 3.563-2.072 2.421-2.082 6.128-2.188 9.313-.128 3.882.489 7.883 1.906 11.5 1.514 3.864 3.307 8.235 6.844 10.406 10.406 6.388 24.22 3.337 36.406 4.094 15.48.962 46.531.531 46.531.531s-1.419-2.933-2.719-3.813c-6.377-4.315-14.993-3.623-22.469-5.469-6.208-1.533-12.781-1.992-18.594-4.656-5.177-2.373-9.656-6.124-13.969-9.844-4.202-3.624-6.782-9.141-11.5-12.06-3.41-2.112-7.493-3.734-11.5-3.563m31.09 44.969c-3.696.007-7.4.064-11.09.188-6.406.215-13.14-.547-19.16 1.656-2.52.922-5.138 2.383-6.563 4.656-1.473 2.351-1.75 5.47-1.375 8.219.409 2.992 1.753 5.978 3.813 8.188 3.202 3.436 7.798 5.666 12.344 6.844 4.946 1.282 10.293.953 15.313 0 3.179-.604 6.03-2.363 9.03-3.563 4.295-1.714 8.56-3.523 12.875-5.188 4.443-1.714 9.03-3.067 13.406-4.938 4.577-1.956 8.936-4.373 13.406-6.563l13.406-6.563s-14.749-1.518-22.16-1.906c-11.07-.58-22.16-1.051-33.25-1.031"/><path style="fill:#fcdd09" d="M623.18 522.36c-8.156.059-16.22 3.976-23.25 8.156-15.859 9.429-30.887 22.1-40.25 38-7.107 12.07-9.594 26.738-10.406 40.719-.556 9.568.266 19.609 3.844 28.5 3.625 9.01 9.895 17.09 17.188 23.5 5.879 5.167 13.09 9.07 20.594 11.313 8.331 2.489 17.328 2.66 26 2.031 5.782-.419 11.678-1.474 16.969-3.844 7.941-3.557 15.254-8.851 21.25-15.16 9.06-9.531 16.518-20.978 21.25-33.25 4.565-11.84 6.555-24.843 6.344-37.531-.164-9.844 2.539-23.825-5.875-28.938-1.876-1.14-4.766.287-6.344 1.813-3.53 3.413-3.401 9.253-4.531 14.03-2.74 11.578-1.038 24.18-5.406 35.25-5.496 13.925-14.07 27.25-25.344 37.09-3.809 3.325-8.81 5.05-13.563 6.781-3.059 1.112-6.246 2.214-9.5 2.281-5.912.122-12.07-.848-17.406-3.406-8.102-3.887-16.404-9.457-20.594-17.406-3.463-6.569-2.661-14.742-2.25-22.16.435-7.853 1.736-15.892 4.969-23.06 4.232-9.387 10.623-18.03 18.313-24.875 6.807-6.06 15.515-9.685 23.75-13.594 5.691-2.701 13.202-2.327 17.656-6.781 1.485-1.485 2.149-3.778 2.25-5.875.135-2.813-.426-5.979-2.25-8.125-2.797-3.289-7.471-5.187-11.781-5.438a24.47 24.47 0 0 0-1.625-.031m102.03 123.62a9.75 9.75 0 0 0-9.75 9.75 9.75 9.75 0 0 0 9.75 9.75 9.75 9.75 0 0 0 9.75-9.75 9.75 9.75 0 0 0-9.75-9.75m10.563 22.844c-6.884 0-12.469 5.585-12.469 12.469 0 6.884 5.585 12.469 12.469 12.469 6.884 0 12.469-5.585 12.469-12.469 0-6.884-5.585-12.469-12.469-12.469m-12.156 26.906c-8.01 0-14.5 6.492-14.5 14.5 0 8.01 6.492 14.5 14.5 14.5 8.01 0 14.5-6.492 14.5-14.5 0-8.01-6.492-14.5-14.5-14.5m-20.531 29.22c-8.01 0-14.5 6.492-14.5 14.5 0 8.01 6.492 14.5 14.5 14.5 8.01 0 14.5-6.492 14.5-14.5 0-8.01-6.492-14.5-14.5-14.5m-26.03 26.844c-8.01 0-14.5 6.492-14.5 14.5 0 8.01 6.492 14.5 14.5 14.5 8.01 0 14.5-6.492 14.5-14.5 0-8.01-6.492-14.5-14.5-14.5m-169.5 14.469c-7.134 0-12.938 5.804-12.938 12.938s5.804 12.906 12.938 12.906 12.906-5.772 12.906-12.906-5.772-12.938-12.906-12.938m145.97 14.469c-8.01 0-14.5 6.492-14.5 14.5 0 8.01 6.492 14.5 14.5 14.5 8.01 0 14.5-6.492 14.5-14.5 0-8.01-6.492-14.5-14.5-14.5m-155.69 19c-8.01 0-14.5 6.492-14.5 14.5 0 8.01 6.492 14.5 14.5 14.5 8.01 0 14.5-6.492 14.5-14.5 0-8.01-6.492-14.5-14.5-14.5m125.84 9.06c-8.01 0-14.5 6.492-14.5 14.5 0 8.01 6.492 14.5 14.5 14.5 8.01 0 14.5-6.492 14.5-14.5 0-8.01-6.492-14.5-14.5-14.5m-25.469 25.313c-8.01 0-14.5 6.492-14.5 14.5 0 8.01 6.492 14.5 14.5 14.5 8.01 0 14.5-6.492 14.5-14.5 0-8.01-6.492-14.5-14.5-14.5m-107.19 6.344c-8.01 0-14.5 6.492-14.5 14.5 0 8.01 6.492 14.5 14.5 14.5 8.01 0 14.5-6.492 14.5-14.5 0-8.01-6.492-14.5-14.5-14.5m83.22 21.719c-8.01 0-14.5 6.492-14.5 14.5 0 8.01 6.492 14.5 14.5 14.5 8.01 0 14.5-6.492 14.5-14.5 0-8.01-6.492-14.5-14.5-14.5m-46.563 7.688c-8.01 0-14.5 6.492-14.5 14.5 0 8.01 6.492 14.5 14.5 14.5 8.01 0 14.5-6.492 14.5-14.5 0-8.01-6.492-14.5-14.5-14.5m-38.906 10.375c-8.01 0-14.5 6.492-14.5 14.5 0 8.01 6.492 14.5 14.5 14.5 8.01 0 14.5-6.492 14.5-14.5 0-8.01-6.492-14.5-14.5-14.5m68.28 13.12c-8.01 0-14.5 6.492-14.5 14.5 0 8.01 6.492 14.5 14.5 14.5 8.01 0 14.5-6.492 14.5-14.5 0-8.01-6.492-14.5-14.5-14.5m-39.781 11.313c-8.01 0-14.5 6.492-14.5 14.5 0 8.01 6.492 14.5 14.5 14.5 8.01 0 14.5-6.492 14.5-14.5 0-8.01-6.492-14.5-14.5-14.5m-34.375 9.03c-8.01 0-14.5 6.492-14.5 14.5 0 8.01 6.492 14.5 14.5 14.5 8.01 0 14.5-6.492 14.5-14.5 0-8.01-6.492-14.5-14.5-14.5m58.34 13.594c-8.01 0-14.5 6.492-14.5 14.5 0 8.01 6.492 14.5 14.5 14.5 8.01 0 14.5-6.492 14.5-14.5 0-8.01-6.492-14.5-14.5-14.5m-36.625 14.469c-8.01 0-14.5 6.492-14.5 14.5 0 8.01 6.492 14.5 14.5 14.5 8.01 0 14.5-6.492 14.5-14.5 0-8.01-6.492-14.5-14.5-14.5"/><path style="fill:#fff" d="M427.02 233.4c-2.319-.064-4.095 3.158-5.469 5.188-2.031 3-3.155 6.681-3.563 10.281-.551 4.869-.045 9.975 1.594 14.594.892 2.513 2.262 5.05 4.344 6.719 2.082 1.666 4.883 2.269 7.5 2.781 3.879.759 7.898.151 11.844.375 2.031.115 4.557 1.376 6.656 1.719.019.223.052.442.063.656.206 4.02.188 8.461 2.375 11.844 1.845 2.854 5.169 4.647 8.313 5.938 3.084 1.266 6.562 1.223 9.875 1.594 4.065.455 8.648 2.719 12.25.781.935-.503 1.703-1.729 1.563-2.781-.148-1.107-1.343-1.916-2.375-2.344-2.433-1.01-5.313.457-7.906 0-3.036-.535-6.205-1.361-8.688-3.188-2.8-2.06-4.848-5.128-6.313-8.281-1.023-2.202-1.245-4.718-1.563-7.125-.396-3.01 1.039-6.398-.406-9.06-.945-1.742-2.897-4.173-4.75-4.125a1.952 1.952 0 0 0-.781.156c-3.372 1.538-3.09 5.936-2.438 10.344a8.06 8.06 0 0 1-1.5-.469c-1.893-.814-3.481-2.541-5.531-2.75-4.067-.414-7.861 3.934-11.875 3.156-2.585-.501-5.258-2.337-6.313-4.75-1.538-3.518.19-7.73 1.188-11.438.751-2.789 2.809-5.118 3.563-7.906.656-2.429 1.184-5.02.781-7.5-.255-1.571-.414-4-1.969-4.344a2.573 2.573 0 0 0-.469-.063m32.03 17.12c-.307-.005-.577.072-.75.313-1.704 2.365.824 6.094 2.75 8.281 2.608 2.962 8.145 2.139 10.688 5.156 1.235 1.466-.206 4.791 1.563 5.531 3.044 1.275 6.396-2.375 8.688-4.75 1.431-1.483 3.278-3.531 2.781-5.531-.273-1.099-1.691-1.663-2.781-1.969-3.433-.962-7.216 1.718-10.656.781-2.01-.547-3.572-2.176-5.125-3.563-1.044-.932-1.599-2.407-2.781-3.156-.81-.513-1.801-.648-2.75-.781-.489-.068-1.114-.304-1.625-.313m65.25 26.28c-1.852.069-3.905.514-5.563.5-3.839-.031-7.673.613-11.469 1.188-1.992.301-5.43-.77-5.906 1.188-.399 1.638 2.798 1.913 3.938 3.156.963 1.05 1.436 2.492 2.375 3.563.923 1.052 1.846 2.258 3.156 2.75 1.972.741 4.418.921 6.313 0 2.109-1.025 2.235-4.506 4.344-5.531 1.421-.691 3.419.852 4.75 0 1.588-1.016 3.295-3.479 2.375-5.125-.809-1.447-2.46-1.756-4.313-1.688m-32.34 7.03a2.064 2.064 0 0 0-.875.188c-1.329.633-2.514 2.57-1.969 3.938.571 1.432 3.339.425 4.344 1.594 1.313 1.528.922 3.909 1.188 5.906.521 3.925-.803 8.247.781 11.875 1.305 2.988 3.97 5.34 6.719 7.094 3.51 2.24 7.694 4.281 11.844 3.938 2.524-.209 4.615-2.12 6.719-3.531 1.708-1.146 2.78-3.377 4.75-3.969 2.284-.687 5.312-.773 7.094.813 1.312 1.168.297 3.611 1.188 5.125 2.788 4.742 7.477 8.328 12.25 11.06 2.277 1.304 4.88 2.233 7.5 2.375 3.352.182 6.868-.476 9.875-1.969 4.094-2.033 7.442-5.512 10.281-9.09 2.415-3.047 2.822-7.492 5.531-10.281 2.754-2.836 6.747-4.168 10.281-5.938 2.69-1.347 5.35-2.853 8.281-3.531 2.569-.595 6.418 1.771 7.906-.406.705-1.031-.158-2.854-1.188-3.563-2.497-1.719-6.088 0-9.09.406-3.611.476-7.447.653-10.656 2.375-4.349 2.334-7.768 6.248-10.656 10.25-1.965 2.722-2.107 6.59-4.344 9.09-1.655 1.853-4.047 3.02-6.344 3.969-2.747 1.132-5.72 2.115-8.688 1.969-3.743-.184-7.625-1.358-10.656-3.563-2.513-1.828-4-4.795-5.531-7.5-1.686-2.98-1.699-6.909-3.938-9.5-1-1.162-2.504-1.881-3.969-2.344-1.762-.557-3.94-1.346-5.531-.406-1.623.959-.912 3.936-2.375 5.125-2.726 2.216-6.841 3.225-10.25 2.375-3.894-.971-6.673-4.705-9.09-7.906-1.492-1.973-1.94-4.564-3.156-6.719-1.634-2.894-2.79-6.403-5.531-8.281-.751-.515-1.768-.981-2.688-.969m140.06 32.31c-3.89.072-7.562 4.482-11.375 6.188-3.283 1.468-7.309 1.824-9.875 4.344-2.69 2.642-4.01 6.578-4.719 10.281-.473 2.46.103 5.01.375 7.5.522 4.777.564 9.767 2.375 14.219 1.391 3.417 3.127 7.232 6.313 9.09 2.398 1.402 6.257 2.65 8.313.781 1.072-.974.577-3.02 0-4.344-1.077-2.478-4.861-3.053-5.938-5.531-2.362-5.435-.86-11.919 0-17.781.399-2.72.837-5.627 2.375-7.906 2.359-3.494 6.636-5.208 9.875-7.906 2.01-1.673 5.483-2.551 5.938-5.125.236-1.335-.712-3.138-2-3.563a4.879 4.879 0 0 0-1.656-.25m-66.69 23.938c-.12 0-.249.007-.375.031-2.664.522-3.066 4.787-3.156 7.5-.134 4.04 2.128 7.858 3.938 11.469 1.784 3.559 3.438 7.619 6.719 9.875 3.79 2.606 8.906 3.942 13.438 3.156 2.627-.455 7.07-1.7 6.719-4.344-.561-4.252-8.591-1.732-12.25-3.969-3.337-2.04-6.386-4.878-8.313-8.281-1.872-3.307-.878-7.755-2.75-11.06-.946-1.671-2.163-4.368-3.969-4.375m93.09 5.469c-2.191.045-4.431 1.868-5.781 3.625-1.071 1.393-1.736 3.487-1.188 5.156.758 2.307 4.517 2.544 5.531 4.75.55 1.196-.755 2.859 0 3.938.884 1.262 3.269.458 4.344 1.563.871.895.199 2.799 1.188 3.563 1.566 1.21 5.499 2.337 5.938.406.157-.691-1.557-.204-1.969-.781-1.606-2.255.215-5.615-.406-8.313-.9-3.909-2.783-7.567-4.75-11.06-.556-.987-.866-2.49-1.969-2.75a3.76 3.76 0 0 0-.938-.094m-247.94 13.531a1.951 1.951 0 0 0-.688.188c-2.649 1.31-1.871 5.632-2.25 8.563-.367 2.834-.593 5.798 0 8.594.923 4.347 2.19 9.12 5.406 12.188 2.102 2 5.22 3.17 8.125 3.156.81-.004 1.796-.236 2.25-.906 2.614-3.861 0-9.337 0-14 0-2.858.927-5.859 0-8.563-.557-1.622-1.85-2.952-3.156-4.063-1.436-1.221-3.238-1.904-4.938-2.719-1.543-.74-3.188-2.571-4.75-2.438m297.53 8.125a1.908 1.908 0 0 0-.844.156c-2.868 1.253-2.659 5.691-3.563 8.688-.775 2.571-1.603 5.221-1.594 7.906.013 3.899-.496 8.799 2.375 11.438 2.441 2.243 6.918 2.688 9.875 1.188 2.156-1.094 3.729-3.901 3.563-6.313-.284-4.125-6.105-5.983-7.5-9.875-1.156-3.225-.759-6.873-.406-10.281.056-.54.659-1.082.406-1.563-.392-.747-1.401-1.307-2.313-1.344m-103.53.781a4.79 4.79 0 0 0-2 .563c-2.592 1.428-2.77 5.301-4.75 7.5-2.133 2.369-5.705 3.303-7.5 5.938-3.33 4.889-5.092 11.05-5.125 16.969-.024 4.25 1.88 8.333 3.531 12.25 1.764 4.184 3.347 8.803 6.719 11.844 1.708 1.54 4.158 2.068 6.344 2.781 2.308.753 4.734 2.135 7.094 1.563.999-.243 2.348-.941 2.375-1.969.126-4.844-7.801-5.961-10.656-9.875-2.569-3.522-6.134-7.526-5.531-11.844.361-2.589 4.136-3.518 5.125-5.938.799-1.954-.258-4.309.406-6.313 1.138-3.432 4.04-5.997 5.906-9.09 2.1-3.483 6.815-6.685 5.938-10.656-.386-1.749-2.641-2.602-4.344-3.156-.877-.285-1.851-.523-2.813-.563-.24 0-.482-.016-.719 0m-173.97 3.125c-.321.003-.596.11-.844.344-1.97 1.864-.259 5.504.438 8.125.691 2.601 2.146 4.971 3.625 7.219 2.053 3.122 4.103 6.5 7.219 8.563 1.706 1.129 3.821 1.508 5.844 1.813 1.785.268 4.139 1.253 5.438 0 3.03-2.926 1.913-8.677.438-12.625-1.08-2.891-4.13-4.599-6.313-6.781-2.182-2.182-3.869-5.292-6.781-6.313-1.851-.649-3.883.471-5.844.438-1.021-.017-2.257-.791-3.219-.781m219.09 10.781c-2.739.183-5.733 3.723-8.406 5.219-2.486 1.391-5.21 2.641-7.125 4.75-2.812 3.096-4.844 7.03-5.938 11.06-.93 3.434-1.261 7.211-.375 10.656.765 2.974 3.768 4.996 4.75 7.906.763 2.26 2.42 5.362.781 7.094-1.632 1.724-4.755-.235-7.125-.375-2.107-.124-4.364-1.218-6.313-.406-1.292.538-3.096 1.8-2.75 3.156.658 2.584 5.03 1.778 7.5 2.781 1.202.488 3.074.349 3.531 1.563.664 1.764-1.297 3.589-2.344 5.156-1.294 1.937-3.52 3.147-4.75 5.125-1.937 3.115-3.432 6.648-3.938 10.281-.401 2.881-.37 6.02.781 8.688 1.181 2.742 3.684 4.725 5.906 6.719 2.04 1.83 4.429 3.213 6.719 4.719 2.321 1.526 4.359 4.599 7.125 4.344 1.764-.163 3.448-1.829 3.938-3.531.794-2.764-.578-6.067-2.375-8.313-2.062-2.576-6.57-2.219-8.688-4.75-1.87-2.236-2.712-5.367-2.75-8.281-.042-3.165 1.33-6.264 2.75-9.09 1.394-2.777 3.585-5.078 5.531-7.5 1.754-2.182 3.755-4.149 5.531-6.313 1.37-1.669 3.438-3.063 3.969-5.156.82-3.231.564-7.333-1.594-9.875-1.078-1.27-3.776-.211-4.75-1.563-2.31-3.205-.983-8.02 0-11.844.748-2.911 2.476-5.551 4.344-7.906 2.201-2.776 6.465-3.888 7.906-7.125.911-2.045 1.886-5.512 0-6.719a2.958 2.958 0 0 0-1.844-.469m-182.69 5.313c-.743-.011-1.439.114-2.063.5-1.431.884-2.401 2.825-2.25 4.5.405 4.494 4.686 7.923 8.125 10.844 2.974 2.526 6.585 4.477 10.375 5.406 2.337.573 5.04 1.021 7.219 0 1.064-.498 1.85-1.614 2.25-2.719.563-1.556.229-3.299 0-4.938-.304-2.169-.561-4.546-1.813-6.344-1.599-2.296-4.168-3.859-6.75-4.938-3.514-1.468-7.485-1.511-11.281-1.813-1.218-.097-2.575-.482-3.813-.5m223.31 6.375c-1.809-.044-3.627 1.163-5.281 2-3.056 1.547-5.899 3.601-8.281 6.06-1.97 2.035-3.813 4.37-4.781 7.03-1.462 4.02-1.251 8.474-1.281 12.75-.027 3.736-.281 7.656.938 11.188 1.078 3.123 2.725 6.395 5.438 8.281 1.97 1.37 4.731.91 7.03 1.594 2.935.873 5.87 4.588 8.594 3.188 1.078-.555 1.355-2.351.969-3.5-.556-1.653-3.02-1.86-4.156-3.188-1.883-2.21-3.136-4.939-4.156-7.656-1.188-3.164-1.784-6.554-2.219-9.906-.383-2.955-.754-5.99-.313-8.938.434-2.894 1.017-6.02 2.875-8.281 1.876-2.283 5.473-2.478 7.656-4.469.676-.616 1.669-1.307 1.594-2.219-.149-1.799-2.09-3.415-3.844-3.844a3.712 3.712 0 0 0-.781-.094m-249.37 11.03a.995.995 0 0 0-.813.25c-1.169.994.28 3.1.906 4.5.614 1.373 1.702 2.457 2.688 3.594 1.673 1.928 2.994 4.698 5.438 5.438 1.468.445 3.936.52 4.5-.906.476-1.203-1.506-2.098-2.25-3.156-1.368-1.945-2.342-4.233-4.063-5.875-1.027-.98-2.353-1.622-3.625-2.25-.864-.427-1.898-1.463-2.781-1.594m58.28.688c-2.236.048-4.03 2.455-4.938 4.5-.669 1.513-.523 3.399 0 4.969.951 2.854 3.47 4.917 5.406 7.219 2.26 2.687 3.995 6.295 7.219 7.688 2.9 1.253 6.808 1.702 9.469 0 1.814-1.161 3.236-3.785 2.719-5.875-.774-3.125-5.364-3.647-7.688-5.875-2.544-2.439-4.258-5.633-6.75-8.125-1.661-1.661-3.088-4.551-5.438-4.5m269.44 3.281c-2.075.155-4.428 1.489-6.125 2.625-2.277 1.524-3.202 4.437-4.719 6.719-1.375 2.069-3.072 3.995-3.969 6.313-1.063 2.746-2.01 5.778-1.563 8.688.387 2.503 2.231 4.564 3.563 6.719 1.787 2.891 3.297 6.136 5.906 8.313 1.9 1.585 4.329 2.517 6.719 3.156 1.532.41 3.861 1.719 4.75.406.825-1.219-1.251-2.683-1.969-3.969-1.585-2.84-3.878-5.291-5.156-8.281-1.444-3.377-3.078-7.03-2.75-10.688.168-1.878 1.609-3.402 2.375-5.125.815-1.832 1.303-3.816 2.344-5.531.971-1.6 3.01-2.554 3.563-4.344.426-1.391.802-3.489-.375-4.344-.751-.546-1.651-.727-2.594-.656m-40.34.125c-.627-.099-1.396 1.057-2.125 1.313-1.779.624-3.819.398-5.531 1.188-2.559 1.18-5.369 2.634-6.688 5.125-2.221 4.196-1.638 9.575-.813 14.25.697 3.95 2.654 7.611 4.75 11.03 1.612 2.631 3.292 5.537 5.938 7.125 2.768 1.662 6.5 3.236 9.469 1.969 1.143-.488 2.077-1.919 1.969-3.156-.308-3.53-5.05-5.01-7.094-7.906-1.119-1.59-2.249-3.255-2.781-5.125-1.192-4.187-1.307-8.71-.781-13.03.534-4.382 7.3-9.795 3.938-12.656a.486.486 0 0 0-.25-.125m-285.5 8.313c-2.43.03-1.478 4.673-2.688 6.781-.853 1.488-2.153 2.671-3.156 4.063-1.268 1.76-2.996 3.33-3.625 5.406-.785 2.591-.223 5.427 0 8.125.226 2.735.641 5.472 1.344 8.125.78 2.944 1.491 6.03 3.188 8.563 1.364 2.033 3.435 3.516 5.406 4.969 1.682 1.24 3.389 2.611 5.406 3.156 1.888.51 3.953.361 5.875 0 2.855-.536 5.392-2.17 8.125-3.156 3.132-1.13 6.241-2.338 9.469-3.156 2.517-.638 5.423-.019 7.656-1.344 2.485-1.474 4.481-4.055 5.438-6.781 1.593-4.542 1.106-9.753 0-14.438-.464-1.964-1.166-4.117-2.719-5.406-2.528-2.098-6.407-1.528-9.469-2.719-1.254-.488-2.316-1.472-3.625-1.781-2.049-.484-4.505-1.08-6.313 0-1.907 1.139-4.01 3.794-3.156 5.844 1.027 2.46 5.086 1.67 7.688 2.25 1.931.43 4.787-.766 5.844.906.839 1.328-.399 3.277-1.344 4.531-1.506 2-4.546 2.288-6.313 4.063-1.384 1.39-1.459 3.986-3.156 4.969-2.867 1.66-6.886 1.726-9.938.438-1.669-.704-2.471-2.641-3.594-4.063-1.138-1.441-1.974-3.122-3.188-4.5-1.478-1.678-4.03-2.486-4.938-4.531-.913-2.063-.689-4.601 0-6.75.79-2.464 4.115-3.785 4.5-6.344.212-1.411-.837-2.729-1.344-4.063-.407-1.071-.23-3.17-1.375-3.156m287.78 37.16c-1.364.072-2.875.497-4 .875-3.276 1.102-5.82 3.963-7.906 6.719-2.098 2.772-3.068 6.266-4.344 9.5-1.375 3.486-3.157 6.931-3.563 10.656-.272 2.501-.179 5.188.813 7.5 1.841 4.292 4.892 8.553 9.06 10.656 3.418 1.723 7.815 1.954 11.469.813 1.61-.503 4.09-1.477 3.938-3.156-.176-1.936-3.632-1.536-5.125-2.781-1.943-1.62-3.345-3.834-4.75-5.938-1.669-2.499-3.596-4.964-4.344-7.875-.95-3.699-1.234-7.855 0-11.469 1.183-3.465 4.082-6.148 6.719-8.688.816-.786 1.993-1.155 2.781-1.969.991-1.023 3.01-2.289 2.375-3.563-.531-1.062-1.761-1.353-3.125-1.281m38.31 1.719c-2.249.167-5.367 2.153-7.156 3.5-2.309 1.739-3.056 4.943-4.344 7.531-1.209 2.43-2.619 4.839-3.156 7.5-.521 2.581-.401 5.303 0 7.906.4 2.593.672 5.504 2.375 7.5 1.72 2.02 4.975 1.939 7.094 3.531 1.862 1.4 2.718 4.02 4.75 5.156 1.757.986 4.328 2.399 5.938 1.188 2.534-1.907 1.765-6.485.781-9.5-.811-2.485-3.555-3.816-5.125-5.906-1.601-2.132-3.589-4.162-4.344-6.719-1.343-4.546-1.089-9.605 0-14.219a8 8 0 0 1 1.563-3.156c1.06-1.311 4.717-1.676 3.969-3.188-.452-.912-1.321-1.201-2.344-1.125m-205.12 16.625a.52.52 0 0 0-.219.125c-.665.587-.596 1.794-.438 2.688.103.579.613.978.875 1.5.601 1.196 1.346 2.369 1.625 3.688.37 1.751-.146 3.589 0 5.375.086 1.057.29 2.118.5 3.156.146.723.531 2.125.531 2.125l.156-.156s.663-2.446.875-3.688c.268-1.569.603-3.158.531-4.75-.059-1.311-.417-2.587-.781-3.844-.357-1.232-.912-2.401-1.375-3.594-.256-.658-.365-1.407-.781-1.969a1.499 1.499 0 0 0-.688-.531c-.245-.085-.562-.184-.813-.125m82.84 4.438c-2.046.316-2.192 4.436-2.75 6.688-1.23 4.96-1.92 10.401-.625 15.344.666 2.541 2.925 4.351 4.125 6.688 1.264 2.46 4.144 5.05 3.219 7.656-1.05 2.96-7.737 1.381-8.313 4.469-.539 2.892 4.536 4.01 5.75 6.688.931 2.055.778 4.468.938 6.719.211 2.971.605 6.02 0 8.938-.706 3.405-2.029 6.788-4.125 9.563-2.734 3.618-6.675 6.238-10.531 8.625-1.983 1.228-4.053 3.098-6.375 2.875-2.203-.212-3.745-2.418-5.438-3.844-1.035-.872-1.624-2.357-2.875-2.875-1.474-.611-3.186 0-4.781 0-.638 0-1.303-.207-1.906 0-2.294.787-4.405 2.451-5.75 4.469-.673 1.01-.808 2.298-.969 3.5-.169 1.265-.467 2.656 0 3.844.743 1.891 2.53 3.25 4.156 4.469 1.142.856 2.46 1.56 3.844 1.906 3.819.956 7.845.259 11.781.313 2.765.037 5.6.539 8.313 0 3.274-.651 6.305-2.241 9.25-3.813 3.722-1.986 7.584-4.01 10.531-7.03 2.639-2.702 4.115-6.327 6.06-9.563 1.327-2.204 3.105-4.246 3.813-6.719.762-2.661.785-5.549.344-8.281-.29-1.794-1.024-3.523-1.938-5.094-1.67-2.872-5.599-4.425-6.375-7.656-.56-2.333.552-4.87 1.594-7.03.591-1.227 2.044-1.928 2.563-3.188 1.141-2.769 1.516-5.999.938-8.938-.864-4.389-3.764-8.18-6.375-11.813-1.274-1.772-3.415-2.87-4.469-4.781-2.02-3.659.974-11.735-3.188-12.12a1.832 1.832 0 0 0-.438 0m-96.22 6.563c-.245-.019-.482.038-.656.188-.883.757-.773 2.286-.563 3.438.137.747.808 1.296 1.156 1.969.798 1.541 1.786 3.051 2.156 4.75.491 2.256-.193 4.635 0 6.938.115 1.363.409 2.693.688 4.03.194.932.688 2.781.688 2.781l.219-.25s.875-3.119 1.156-4.719c.355-2.02.782-4.073.688-6.125-.078-1.69-.548-3.349-1.031-4.969-.474-1.588-1.229-3.087-1.844-4.625-.339-.849-.479-1.807-1.031-2.531-.233-.305-.545-.566-.906-.688-.216-.073-.474-.168-.719-.188m-113.62.219c-.095.013-.185.062-.281.094-2.123.703-2.35 4.079-2.25 6.313.096 2.151 1.345 4.185 2.719 5.844 1.65 1.993 3.88 3.648 6.313 4.531 1.843.67 3.927.213 5.875.438 1.965.226 4.476 2.336 5.844.906 2.12-2.217.388-6.862-1.781-9.03-1.085-1.085-3.066-.451-4.531-.906-2.188-.68-4.551-1.222-6.313-2.688-.834-.694-1.046-1.952-1.813-2.719-1.079-1.079-2.354-2.971-3.781-2.781m257 5.563c-1.591.144-3.475 1.757-4.906 2.656-2.292 1.441-4.072 3.625-5.75 5.75-2.01 2.548-4.09 5.193-5.094 8.281-.857 2.638-.29 5.563-.656 8.313-.3 2.254-1.221 4.415-1.281 6.688-.062 2.361.053 4.855.969 7.03 1.411 3.353 3.743 6.457 6.688 8.594 2.287 1.66 5.234 2.297 8 2.875 3.13.654 6.37.846 9.563.656 1.728-.103 3.414-.549 5.094-.969 3.786-.946 10.677.369 11.188-3.5.181-1.375-2.223-1.789-3.531-2.25-.908-.32-1.922-.034-2.844-.313-3.552-1.074-7.096-2.671-9.906-5.094-2.481-2.14-3.424-5.692-5.75-8-2.22-2.203-6.219-2.628-7.656-5.406-1.221-2.362-.645-5.389 0-7.969.439-1.754 1.654-3.249 2.563-4.813 1.201-2.066 2.971-3.826 3.813-6.06.721-1.915 2.54-4.752.969-6.06-.433-.361-.938-.454-1.469-.406m-281.19 3.688c-.851.043-1.703.201-2.469.5-1.563.609-2.098 2.744-3.563 3.563-1.719.961-3.91.672-5.75 1.375-2.326.889-5.211 1.471-6.563 3.563-2.036 3.15.052 7.569-.813 11.219-.66 2.786-.938 6.293-3.281 7.938-3.289 2.308-8.362 2.098-12.06.531-2.916-1.235-4.138-4.763-6.281-7.094-3.843-4.18-7.738-8.326-11.781-12.313a95.783 95.783 0 0 0-3.813-3.563c-1.697-1.501-3.15-3.449-5.219-4.375-2.355-1.054-5.091-1.373-7.656-1.094-.775.084-1.744.172-2.188.813-.935 1.35-.829 3.52 0 4.938.845 1.446 3.041 1.425 4.375 2.438.617.468 1.788.894 1.656 1.656-.327 1.89-3.331 2.129-5.219 2.469-2.073.373-4.617-1.853-6.281-.563-.439.34-.46 1.131-.281 1.656.602 1.772 2.352 3.126 4.094 3.813 4.074 1.606 8.911-1.074 13.156 0 3.72.941 6.948 3.349 10.125 5.5 2.95 1.997 5.198 4.924 8.219 6.813 3.393 2.122 7.08 3.883 10.938 4.938 2.391.653 4.937 1.259 7.375.813 4.134-.758 8.03-3.052 11.25-5.75 2.196-1.839 3.879-4.264 5.188-6.813 1.133-2.208 1.503-4.74 2.188-7.125.391-1.361.101-3.115 1.094-4.125.931-.948 2.528-1.273 3.844-1.094 1.907.259 3.556 1.66 4.906 3.03 1.636 1.661 2.616 3.87 3.563 6 1.242 2.795 1.59 5.951 2.75 8.781 1.362 3.322 3.184 6.412 4.906 9.563a431.337 431.337 0 0 0 10.969 18.906c2.278 3.708 4.71 7.296 7.094 10.938 2.814 4.297 6.714 8.03 8.5 12.844 3.01 8.106 3.281 25.75 3.281 25.75s1.807-3.03 2.469-4.656c.609-1.497 1.167-3.053 1.375-4.656.833-6.426.921-13.13-.563-19.438-.944-4.01-2.914-7.78-5.188-11.219-2.778-4.203-7.101-7.189-10.125-11.219-2.188-2.916-3.949-6.143-5.75-9.313-2.439-4.293-4.288-8.9-6.844-13.12-1.323-2.187-3.476-3.92-4.375-6.313-1.162-3.094.056-6.746-1.094-9.844-1.461-3.938-4.528-7.105-7.125-10.406-1.517-1.929-2.716-4.424-4.938-5.469-1.239-.583-2.676-.854-4.094-.781m117.5 1.438c-.339-.027-.665.042-.906.25-1.223 1.055-1.073 3.207-.781 4.813.189 1.041 1.111 1.812 1.594 2.75 1.106 2.148 2.487 4.225 3 6.594.681 3.145-.268 6.447 0 9.656.159 1.899.552 3.791.938 5.656.268 1.299.938 3.844.938 3.844l.344-.313s1.173-4.363 1.563-6.594c.492-2.819 1.1-5.671.969-8.531-.108-2.356-.768-4.68-1.438-6.938-.657-2.214-1.68-4.294-2.531-6.438-.47-1.183-.672-2.522-1.438-3.531-.322-.425-.75-.799-1.25-.969-.3-.102-.661-.223-1-.25m-20.781 15.344c-.405-.031-.806.036-1.094.281-1.459 1.245-1.286 3.793-.938 5.688.226 1.228 1.299 2.112 1.875 3.219 1.319 2.535 2.982 5.02 3.594 7.813.812 3.712-.32 7.619 0 11.406.189 2.241.665 4.424 1.125 6.625.32 1.534 1.156 4.563 1.156 4.563l.375-.375s1.41-5.149 1.875-7.781c.587-3.327 1.282-6.687 1.125-10.06-.129-2.78-.888-5.524-1.688-8.188-.784-2.612-2.02-5.064-3.03-7.594-.561-1.396-.774-2.996-1.688-4.188-.384-.501-.903-.925-1.5-1.125-.358-.12-.783-.25-1.188-.281m253.31.656c-.17.023-.328.072-.469.156-1.869 1.121-1.904 3.973-2.25 6.125-.747 4.644-.127 9.455.438 14.12.24 1.985.456 4.01 1.25 5.844.877 2.027 2.297 3.806 3.75 5.469.954 1.092 1.774 2.814 3.219 2.938 1.377.118 2.929-.992 3.5-2.25.779-1.715-.389-3.767-.844-5.594-.406-1.629-.69-3.4-1.688-4.75-.929-1.258-3.01-1.403-3.75-2.781-1.677-3.121-.319-7.09-.563-10.625-.151-2.191-.119-4.412-.563-6.563-.119-.577-.11-1.279-.563-1.656-.379-.316-.958-.505-1.469-.438m-270.16 16.813c-.405-.031-.806.036-1.094.281-1.459 1.245-1.286 3.824-.938 5.719.226 1.228 1.299 2.112 1.875 3.219 1.319 2.535 2.982 4.986 3.594 7.781.812 3.712-.32 7.619 0 11.406.189 2.241.665 4.455 1.125 6.656.32 1.534 1.156 4.563 1.156 4.563l.375-.375s1.41-5.149 1.875-7.781c.587-3.327 1.282-6.719 1.125-10.09-.129-2.78-.888-5.492-1.688-8.156-.784-2.612-2.02-5.064-3.03-7.594-.561-1.396-.774-2.996-1.688-4.188-.384-.501-.903-.956-1.5-1.156-.358-.12-.783-.25-1.188-.281m-17.375 5.219c-.335.017-.659.103-.906.313-1.67 1.415-1.461 4.348-1.063 6.5.259 1.396 1.497 2.399 2.156 3.656 1.51 2.881 3.394 5.668 4.094 8.844.93 4.217-.366 8.666 0 12.969.217 2.547.755 5.061 1.281 7.563.367 1.742 1.313 5.188 1.313 5.188l.438-.438s1.624-5.853 2.156-8.844c.672-3.78 1.461-7.634 1.281-11.469-.148-3.159-1.023-6.254-1.938-9.281-.897-2.968-2.275-5.75-3.438-8.625-.642-1.586-.923-3.396-1.969-4.75-.44-.57-1.036-1.085-1.719-1.313-.512-.171-1.129-.341-1.688-.313m254.94.531a.993.993 0 0 0-.281.063c-2.145.743-2.687 3.793-3.219 6-.6 2.49-.034 5.131.125 7.688.137 2.196-.041 4.497.719 6.563.798 2.169 2.312 4.077 3.906 5.75 1.651 1.732 3.67 3.076 5.719 4.313 2.157 1.302 4.389 2.649 6.844 3.219 2.585.6 5.316.206 7.969.125 2.38-.072 4.991.525 7.125-.531 1.064-.526 2.389-1.469 2.375-2.656-.012-1.021-1.26-1.661-2.094-2.25-1.992-1.407-4.587-1.752-6.719-2.938-3.01-1.676-5.732-3.788-8.5-5.844-2.393-1.778-5.276-3.162-7-5.594-1.627-2.294-1.73-5.36-2.781-7.969-.67-1.662-.973-3.619-2.25-4.875-.507-.499-1.245-1.104-1.938-1.063m-27.28 30.688c-3.187.035-2.487 5.915-3.156 9.03-.73 3.395-.889 6.902-.906 10.375 0 1.961-.514 4.16.438 5.875 1.721 3.105 5.657 4.317 8.594 6.313 2.347 1.595 4.518 3.659 7.219 4.531 2.152.695 4.52.813 6.75.438 4.187-.705 8.08-2.829 11.75-4.969 2.131-1.243 5.59-2.046 5.844-4.5.143-1.379-1.39-2.668-2.688-3.156-1.991-.75-4.191.755-6.313.906-3.751.267-7.839 1.514-11.281 0-2.241-.986-3.221-3.723-4.969-5.438-2.434-2.388-5.916-3.836-7.688-6.75-1.611-2.649-1.328-6.071-2.25-9.03-.382-1.227-.059-3.639-1.344-3.625m-300.03 116.75s2.02 3.52 2.969 5.313c1.111 2.098 1.933 4.36 3.188 6.375 1.174 1.887 2.418 3.784 4.03 5.313 1.924 1.822 4.315 3.116 6.594 4.469 2.259 1.341 4.528 2.706 7 3.594 1.568.563 4.875 1.063 4.875 1.063s-1.9-1.676-2.969-2.344c-2.201-1.376-4.789-2.02-7-3.375-1.592-.979-3.036-2.208-4.469-3.406-1.767-1.478-3.69-2.86-5.094-4.688-1.118-1.456-1.523-3.341-2.531-4.875-.802-1.219-1.819-2.31-2.781-3.406-1.222-1.392-3.813-4.03-3.813-4.03m372.72 60.37c-.444.018-.883.056-1.281.094a37.425 37.425 0 0 0-12.563 3.5c-8.247 3.96-16.691 8.796-22.25 16.06-1.875 2.451-3.386 7.618-4.063 10.219 1.548-1.596 11.184-11.455 17.406-15.469 5.752-3.711 12.261-6.231 18.781-8.313 7.087-2.262 21.875-4.438 21.875-4.438s-11.246-1.919-17.906-1.656m-40.16 29.875c-.133.137-.594.594-.594.594l.188.969.406-1.563m43.625-15.844c-3.409.156-6.817 1.197-9.969 2.5-7.988 3.303-15.321 8.303-21.875 13.938-9.222 7.928-17.06 17.493-23.969 27.5-2.411 3.491-6 11.219-6 11.219s8.383-6.798 12.375-10.438c8.764-7.991 15.826-17.892 25.344-24.969 4.958-3.686 10.559-6.502 16.25-8.906 5.658-2.39 11.658-3.982 17.625-5.438 2.102-.513 6.375-1.156 6.375-1.156s-9.586-4.084-14.688-4.25a18.937 18.937 0 0 0-1.469 0m31.813 26.16c-1.684.058-3.358.26-5 .563-6.35 1.169-12.39 3.959-18 7.156-8.07 4.6-15.14 10.834-22.06 17.03-7.613 6.817-14.02 14.875-21.281 22.06-9.08 8.986-20.323 16.01-27.875 26.313-6.651 9.08-14.719 30.375-14.719 30.375s20.911-22.598 31.375-33.875c8.569-9.235 16.727-18.832 25.719-27.656 7.108-6.976 14.271-13.978 22.25-19.938 7.287-5.442 14.635-11.399 23.25-14.313 3.685-1.246 7.741-1.694 11.594-1.156 3.298.46 6.241 2.297 9.281 3.656 3.556 1.589 10.469 5.219 10.469 5.219l2.5 2.156s-5.143-9.527-9.281-12.781c-2.797-2.199-6.39-3.347-9.875-4.063a36.044 36.044 0 0 0-6.656-.75c-.562-.009-1.126-.019-1.688 0m-279.37 9.406s-1.92 3.782-2.563 5.781c-.966 3.01-2.121 6.1-1.906 9.25.37 5.416 4.097 10.115 5.438 15.375.666 2.615 1.828 5.357 1.281 8-.563 2.722-3.973 4.302-4.5 7.03-.987 5.112 1.215 10.409 2.875 15.344.456 1.356 1.938 3.844 1.938 3.844s2.376-9.154 3.5-13.75c.78-3.19 1.874-6.331 2.25-9.594.39-3.389.526-6.88 0-10.25-.863-5.529-3.688-10.591-5.125-16-1.315-4.951-3.188-15.03-3.188-15.03m99.25 79s-7.111 6.96-10.688 10.406c-3.347 3.225-6.796 6.349-10.09 9.625-1.535 1.525-3.205 2.923-4.5 4.656-.793 1.062-1.969 3.469-1.969 3.469 1.204-.451 9.584-6.819 13.844-10.844 3.591-3.393 6.89-7.118 9.781-11.125 1.395-1.933 3.625-6.188 3.625-6.188m19.688 4.656s-11.31 11.02-17 16.5c-5.325 5.131-10.785 10.132-16.03 15.344-2.442 2.427-5.127 4.648-7.188 7.406-1.262 1.689-3.125 5.531-3.125 5.531 1.915-.718 15.254-10.847 22.03-17.25 5.714-5.399 10.962-11.345 15.563-17.719 2.219-3.074 5.75-9.813 5.75-9.813m13.469 15.188s-15.12 14.74-22.719 22.06c-7.113 6.853-14.399 13.507-21.406 20.469-3.262 3.241-6.841 6.222-9.594 9.906-1.686 2.256-4.188 7.344-4.188 7.344 2.558-.959 20.385-14.447 29.438-23a167.718 167.718 0 0 0 20.781-23.688c2.964-4.107 7.688-13.09 7.688-13.09"/><path d="M588.47 134.395c-7.145-3.79-16.188-1.381-20.18 5.404-3.991 6.785-1.41 15.36 5.735 19.15.213.113.431.206.648.308l-25.354 18.301 34.23 13.07-4.999-30.14c6.07 1.06 12.45-1.557 15.628-6.959 3.991-6.785 1.439-15.345-5.706-19.13zm199.27 105.7c-7.145-3.79-16.16-1.366-20.15 5.419-3.177 5.402-2.179 11.933 1.955 16.286l-29.649 11.763 29.669 20.821 3.117-30.1c.205.122.403.249.616.363 7.145 3.79 16.188 1.381 20.18-5.404 3.991-6.785 1.41-15.36-5.735-19.15z" style="fill:#fcdd09;stroke:#000;stroke-width:5;stroke-linecap:round;stroke-linejoin:round"/><path style="fill:#fcdd09;stroke:#000;stroke-width:5" d="M542.21 60.355a41.154 41.154 0 0 0-7.964-3.186c-4.302-1.217-8.998-1.611-13.422-.892-5.04.819-9.514 3.633-14.08 5.809-3.736 1.779-10.863 5.907-10.863 5.907s-4.329-5.555-6.676-8.195c-3.972-4.468-8.307-8.66-12.533-12.913-2.827-2.844-5.08-6.357-8.581-8.418-6.531-3.844-14.289-6.499-21.971-6.608-5.067-.072-10.242 1.552-14.643 3.938-5.971 3.238-11.713 7.751-14.928 13.523-1.484 2.664-2.287 5.983-1.55 8.914 1.067 4.246 4.164 8.385 8.154 10.554 4.968 2.701 11.668-.11 17.08 1.653 6.901 2.246 13.961 5.632 18.547 11.02 2.981 3.502 3.978 8.279 4.853 12.704 2.124 10.745 1.323 21.878.834 32.801-.612 13.66-4.706 40.744-4.706 40.744l23.515 8.214 37.814 11.07s5.779-10.825 4.137-16.13c-1.494-4.83-8.02-6.615-11.536-10.379-4.864-5.201-10.136-10.402-13.144-16.744-2.92-6.159-4.916-13.1-4.318-19.83.517-5.818 3.748-11.19 6.695-16.315.98-1.704 3.601-4.712 3.601-4.712s11.06 7.144 17.386 8.829c5.246 1.397 11.04 2.142 16.312.85 5.539-1.356 10.663-4.654 14.545-8.643 2.92-3 5.17-6.849 5.975-10.862.93-4.637.151-9.64-1.56-14.07-2.023-5.239-5.576-10.08-9.91-13.848-2.115-1.838-4.523-3.447-7.06-4.784zm333.38 176.84c-2.53-1.351-5.207-2.44-7.964-3.186-5.651-1.529-11.855-1.863-17.613-.752-4.871.94-9.766 2.933-13.437 6.117-3.176 2.755-5.448 6.593-6.607 10.527-1.541 5.231-1.84 11.09-.152 16.278 1.608 4.944 5.34 9.25 9.344 12.76 4.828 4.232 17 9.414 17 9.414s-1.323 3.697-2.337 5.382c-3.05 5.07-6.144 10.515-11.09 13.983-5.722 4.01-13.02 6.02-20.07 6.891-7.264.894-14.664-.627-21.878-1.833-5.221-.873-10.269-5.226-15.384-3.901-5.619 1.455-12.268 11.82-12.268 11.82l29.758 24.77 19.666 14.692s22.17-17.496 34.1-25.15c9.538-6.123 19.07-12.624 29.821-16.54 4.427-1.613 9.233-3.311 13.936-2.737 7.235.883 13.974 4.817 19.606 9.219 4.42 3.455 5.412 10.347 10.439 12.947 4.04 2.088 9.4 2.438 13.767 1.075 3.01-.941 5.57-3.33 7.181-5.927 3.49-5.626 4.497-12.65 4.27-19.18-.168-4.81-1.397-9.83-4.118-13.889-4.126-6.155-10.575-11.04-17.446-14.301-3.683-1.751-8.04-1.746-12.08-2.54-6.03-1.187-12.03-2.48-18.12-3.349-3.598-.514-10.849-1.102-10.849-1.102s-.035-7.928-.399-11.881c-.445-4.836-.268-9.93-2.176-14.435-1.675-3.954-4.491-7.546-7.838-10.386a40.304 40.304 0 0 0-7.06-4.784z"/><path d="M663.42 229.175c-86.28-45.771-167.78-70.73-205.99-65.53l1.841 61.65c43.06 7.146 104.65 29.705 168.91 63.79 64.25 34.08 116.8 72.07 145.79 103.14l56.25-30.837c-15.379-33.624-80.51-86.45-166.79-132.22z" style="fill:#fcdd09;stroke:#000;stroke-width:5;stroke-linejoin:round"/><path style="fill:#fcdd09;stroke:#000;stroke-width:5;stroke-linecap:round" d="M460.47 207.125s31.938 8.357 47.69 13.248c17.17 5.332 34.26 11 50.989 17.535 16.872 6.589 33.413 13.984 49.701 21.81 9.491 4.56 27.947 14.633 27.947 14.633M790.08 380.965s-24.35-21.331-37.05-31.444c-13.843-11.03-27.943-21.806-42.623-31.838-14.808-10.119-30.16-19.546-45.764-28.541-9.09-5.242-27.851-14.796-27.851-14.796M459.27 175.855s34.488 9.709 51.53 15.284c18.577 6.078 37.08 12.497 55.23 19.784 18.308 7.351 36.29 15.512 54.03 24.1 10.333 5.01 30.475 15.974 30.475 15.974"/><path style="fill:#fcdd09;stroke:#000;stroke-width:5;stroke-linecap:round" d="M818.76 365.545s-26.902-22.685-40.89-33.483c-15.249-11.772-30.763-23.302-46.867-34.09-16.244-10.881-33.04-21.07-50.09-30.836-9.935-5.688-30.38-16.14-30.38-16.14"/><path style="fill:#da121a;stroke:#000;stroke-width:5;stroke-linecap:round;stroke-linejoin:round" d="M651.18 250.025c-7.362-3.905-16.665-1.404-20.777 5.587-4.113 6.991-1.478 15.825 5.884 19.73 7.362 3.905 16.665 1.404 20.777-5.587 4.113-6.991 1.478-15.825-5.884-19.73zm-71.27-33.977c-7.362-3.905-16.665-1.404-20.777 5.587-4.113 6.991-1.478 15.825 5.884 19.73 7.362 3.905 16.665 1.404 20.777-5.587 4.113-6.991 1.478-15.825-5.884-19.73zm137.07 72.71c-7.362-3.905-16.665-1.404-20.777 5.587-4.113 6.991-1.478 15.825 5.884 19.73 7.362 3.905 16.665 1.404 20.777-5.587 4.113-6.991 1.478-15.825-5.884-19.73zm-234.05-105.97c-7.362-3.905-16.665-1.404-20.777 5.587-4.113 6.991-1.478 15.825 5.884 19.73 7.362 3.905 16.665 1.404 20.777-5.587 4.113-6.991 1.478-15.825-5.884-19.73zm314.73 166.95c-7.362-3.905-16.665-1.404-20.777 5.587-4.113 6.991-1.478 15.825 5.884 19.73 7.362 3.905 16.665 1.404 20.777-5.587 4.113-6.991 1.478-15.825-5.884-19.73z"/><path style="fill:#fcdd09;stroke:#000;stroke-width:5;stroke-linecap:round" d="M679.53 204.405s9.336-8.128 12.666-13.159c4.999-7.551 7.508-16.377 10.502-24.831 3.804-10.743 3.668-22.879 9.443-32.799 3.743-6.428 15.702-16.226 15.702-16.226"/><path style="fill:#fcdd09;stroke:#000;stroke-width:5;stroke-linecap:round" d="M705.05 164.505s12.339-3.101 18.382-1.942c6.791 1.303 13.564 4.689 18.14 9.625 3.65 3.934 6.194 14.589 6.194 14.589M703.81 163.845s-3.689-11.603-7.897-15.882c-4.729-4.808-11.317-8.509-18.14-9.625-5.442-.889-16.33 2.641-16.33 2.641"/><path d="M887.05 10c-9.98-.002-20 .012-29.813.031-26.16.053-51 .188-70.781.469-79.11 1.122-156.71-.214-235.06 0-2.653.007-5.285.055-7.938.063-78.35.214-155.96 1.122-235.06 0-36.691-.521-90.63-.547-138.19-.438L9.998 130.565s75.952 4.368 78.44 45.14c3.405 55.766 1.891 142.94 5.296 198.7 2.529 41.41 3.908 82.92 6.781 124.31 4.346 62.59 5.02 125.75 15.781 187.56 6.02 34.562 14.438 68.961 27.16 101.66 15.355 39.473 33.447 78.71 58.813 112.62 18.288 24.456 41.671 45.05 65.906 63.62 27.747 21.272 57.967 39.816 89.94 53.969 33.818 14.97 69.896 25.08 106.22 32.09 27.334 5.278 55.35 7.249 83.19 7.344 27.662.094 55.55-1.498 82.72-6.719 36.46-7.01 72.55-17.629 106.47-32.75 31.934-14.235 62.22-32.697 89.97-53.969 24.24-18.58 47.587-39.17 65.875-63.62 25.365-33.919 43.489-73.15 58.844-112.62 12.718-32.695 21.14-67.16 27.16-101.72 10.762-61.814 11.436-124.97 15.781-187.56 2.874-41.39 4.253-82.87 6.781-124.28 3.405-55.766 7.908-111.45 11.313-167.22 2.407-39.432 3.619-78.937 6.375-118.34-25.19-26.753-50.905-53.849-74.72-78.66-18.292-.059-37-.12-57.03-.125z" style="fill:none;stroke:#000;stroke-width:20"/></svg>