<svg xmlns="http://www.w3.org/2000/svg" height="600" width="550"><g stroke="#000"><path d="m4.93 6.691.03 26.332 3.355 304.56s1.612 33.05 5.488 49.03c7.136 29.418 15.608 59.64 32.368 84.85 21.625 32.522 51.686 60.14 84.79 80.86 29.86 18.687 64.67 29.09 99.02 36.899 14.692 3.342 29.94 3.939 45.02 4.09 15.08-.15 30.32-.748 45.02-4.09 34.35-7.812 69.16-18.212 99.018-36.898 33.11-20.718 63.17-48.34 84.79-80.86 16.761-25.21 25.23-55.43 32.37-84.85 3.876-15.98 5.488-49.03 5.488-49.03l3.355-304.56.03-26.332h-403.83z" stroke-width="11" fill="none"/><path d="M9.316 13.106v25.85l3.303 298.99s1.585 32.439 5.398 48.129c7.02 28.88 15.357 58.545 31.848 83.292 21.275 31.927 50.851 59.042 83.42 79.376 29.378 18.344 63.63 28.554 97.42 36.224 14.454 3.28 29.456 3.867 44.29 4.015 14.832-.148 29.834-.734 44.29-4.015 33.793-7.67 68.04-17.879 97.419-36.224 32.572-20.337 62.15-47.45 83.42-79.376 16.49-24.746 24.827-54.417 31.848-83.292 3.814-15.688 5.398-48.129 5.398-48.129l3.303-298.99v-25.85H9.313z" fill="#fff"/><g stroke-width="5"><path stroke-linejoin="bevel" d="m276.997 12.597-2 574.385c14.832-.147 29.834-.73 44.29-3.988 33.792-7.618 68.039-17.758 97.419-35.978 32.571-20.2 62.15-47.13 83.419-78.84 16.49-24.578 24.827-54.049 31.848-82.728 3.813-15.582 5.397-47.803 5.397-47.803.629-107.549 3.303-221.488 3.303-329.047-87.913.976-175.788 5.626-263.677 3.995z" stroke-linecap="square" stroke-width="4.99995"/><path d="M274.997 8.997v577.985" fill="none" stroke-width="4.99995"/></g><path stroke-linejoin="round" d="M425.8 199.53c-.257 3.778 9.636 4.806 9.25.874.58-3.11-9.641-5.989-9.25-.874z" fill-rule="evenodd" stroke-width="2" fill="#fff"/></g><g fill-rule="evenodd" fill="red"><path d="M277.58 134.25c2.903-8.15 15.21-8.434 22.021-8.009.746.519 3.75-5.86 2.533-9.753-15.819-9.466-28.139 5.213-24.554 17.762zM320.38 85.871c6.517 1.318 7.992 9.339 9.735 14.213-1.026 5.844 16.655 6.693 11.653-.987-.33-24.034-21.79-17.326-21.39-13.226zM367.6 122.73c.558 4.295 4.24 10.086 2.694 10.195 22.452.567 11.77-21.4 8.86-26.992-2.2 4.936-1.621 12.294-11.554 16.797zM306.32 165.8c-1.664-5.02-1.06-3.415-.416-13.701-7.536-3.38-8.192-4.316-20.178-12.105 3.876 15.476 5.739 18.229 20.594 25.806zM278.22 387.47c10.817-1.877 20.837.208 30.037 4.144 4.11-5.397 7.375-9.38 7.562-16.596-12.304-8.212-38.24 5.496-37.6 12.452zM359.06 415.18c3.141 13.154-1.893 15.699-.369 25.671 12.68-1.977 16.43-12.609 17.442-27.686-.304-1.857-13.729 2.263-17.073 2.016zM292.14 448.02c3.335-14.758 3.123-13.876 9.378-20.284 6.8-6.787-6.784-7.653-5.62-8.37-6.185-.735-20.147 19.814-3.758 28.655zM323.87 438.63c-1.469 14.539 7.347 22.435 13.089 22.314-.916-14.493.596-16.912.51-24.108z"/><path d="M375.02 170.96c1.71 5.335 4.12 6.87 8.614 10.214 4.692 3.491 12.148 4.597 17.761 6.243 10.651 4.268 15.684 7.255 26.03 9.509 13.617 4.132 18.247-1.704 1.402-6.02-7.528-3.873-25.225-8.759-30.895-15.046-4.36-4.338-5.265-10.5-10.305-15.187-8.01-6.902-14.814 2.546-12.607 10.287z" stroke="#000" stroke-width="2"/></g><g stroke-linejoin="round" stroke="#000"><path d="M385.7 347.71c-12.667 5.484-12.568 12.43-24.387 19.189-8.084 5.828-16.104 11.766-23.665 18.267-7.512 3.476-9.423-7.068-13.869-10.536-5.945-2.56-8.477 5.652-11.047 9.5-4.222 4.085-19.024 12.924-5.756 16.714 4.512.552 11.713 10.398 3.888 11.463-4.925 1.244-15.925-6.352-14.294 5.817 3.583 3.584 9.35 1.66 6.821 7.79 4.297 18.674 5.432-1.404 11.39-2.87 11.176-.296 9.445 7.263 4.14 12.07-.264 7.744 12.623 3.698 16.33 1.609 5.256 3.14 13.978 2.537 12.638-5.866-2.34-9.594-5.644-17.16 2.563-16.245 4.548.678.103 5.554 13.734 3.913 12.19-1.26 13.024-8.476 16.94-15.307 6.956-3.452 4.568 8.99 4.725 13.059-1.467 4.933 2.377 11.149 8.535 2.167 2.934-6.582 7.076-7.63 9.079-14.514.614-4.162 4.128-5.475 3.667-.265.42 6.146 1.208 8.272-.04 14.167 9.099-13.146 16.034-23.154 24.175-37.25 2.15-9.698-.355-19.706 1.403-29.45 7.263-15.166 12.983-19.467-11.362-5.396-8.055-.242-13.668 25.394-21.045 28.187-8.036-3.515-14.279-13.654-14.563-26.214zM366.01 193.28c-3.995-9.084-10.112-19.142-11.405-31.985-.563-5.593 2.548-11.217 5.703-15.868 2.662-3.925 6.58-4.664 10.462-7.422.552-4.806-5.138-20.072-8.973-22.083-1.951-.23-4.01.489-5.703 1.488-1.964 1.159-3.427 3.075-4.711 4.959-4.626 8.783-12.034 7.286 1.488-11.902.526-6.52 1.053-8.1-5.463-9.509-3.118-.427-5.05.457-8.174.831-1.559.187-3.14.024-4.71 0-2.729-.04-5.595-1.112-8.183-.248-6.108 3.395-.07 6.657 1.24 9.422 7.427 13.723-1.435 15.281-7.686 5.703-1.893-6.311-10.357-5.91-15.125-2.975-1.333.624-2.09 2.144-2.727 3.471-1.578 3.29-3.379 7.125-2.479 10.662.491 1.93 2.415 3.216 3.967 4.463 2.51 2.02 5.815.15 8.63 1.711 3.44 2.946 9.716 4.84 4.263 7.96-2.927.457-7.572-.706-9.582 1.47-2.128 2.304.572 7.61.225 10.726-.326 4.166-1.544 9.383 1.175 12.597 2.01 2.176 9.402-.19 11.982 1.271 6.428 5.55 9.028 11.266 8.597 16.581-3.784 5.892-16.339 4.413-20.531-2.31 0 0 6.611 9.654 9.847 14.171 4.5 6.283 8.324 9.101 14.156 14.172 3.362 2.923 7.116 5.43 10.166 8.678 1.131 1.205 2.975 3.967 2.975 3.967s-8.2-6.347-12.893-8.43c-4.764-2.115-10.488-1.586-15.12-3.967-8.496-5.192-11.847-6.713-5.951 3.471 3.465 5.766 8.356 10.71 13.637 14.877 2.672 2.108 5.705 3.86 8.926 4.96 2.611.89 21.382 2.84 21.382 2.84s-23.26-2.012-28.077-3.337c-10.878-5.738-15.462-5.048-8.87 7.892 4.269 5.515 8.838 9.303 15.068 12.437 7.04 3.54 23.06 5.207 23.06 5.207s-12.986 1.088-19.34 0c-16.195-4.85-23.556-5.845-5.951 6.942 3.627 2.803 8.123 4.295 12.397 5.951 16.788 2.557 24.575-7.595 36.948-10.37-25.96-12.31-26.773-32.255-25.197-36.608 1.703-4.703 25.208 14.547 34.267 6.046-8.404-12.877-19.279-28.9-23.711-37.911z" fill-rule="evenodd" stroke-width="4" fill="gold"/><g stroke-width="2" fill="#fff"><path d="M416.606 198.05c-.808 2.894 8.835 4.881 9.25.874.65-3.131-9.751-5.254-9.25-.874zM406.606 196.05c.092 5.036 7.76 4.854 9.25.874.455-3.366-9.671-5.721-9.25-.874z" stroke-width="1.99998"/></g></g><g fill-rule="evenodd"><path stroke-linejoin="round" d="M471.78 262.36c4.072 13.904 15.124 15.704 33.433 15.894 6.611-3.66 25.129-12.388 9.409-14.796-12.574-6.329-14.596-21.647-25.19-29.327-5.551-3.673-8.48-4.726-1.315-.05 9.525 6.198 21.052 8.983 31.488 1.628-7.404-7.831-15.045-19.29-17.807-29.458 1.347-8.98-5.38-19.284-9.94-24.402 9.287.911 10.111-15.217 10.288-16.938.892-8.646-5.738-19.811-7.89-10.637 7.858-8.822 13.31 12.779-6.715 17.102-13.457 6.81 15.418-5.268 15.563-6.501 14.276-9.149 8.906-13.766-.99-19.423-6.299-3.826-13.89-5.757-20.752-7.558-17.132-1.723-34.102-7.023-51.284-3.628-5.287 4.36-15.738 1.484-21.72 4.575-8.201 4.237-11.312 6.447-5.262 12.57-1.424 20.69 8.49 15.816 19.092 21.274 8.481 5.709 29.553-1.005 27.346 14.152-.158 7.684-6.697 15.1-14.11 16.46-.863 2.42-24.093-4.14-32.018-2.63-8.78-1.77-2.833 18.336 2.18 16.956 2.667-.735 3.697-3.541 7.407-5.525 8.723-2.769 35.311 1.002 17.603 13.018-19.103 4.44-27.821 9.923-40.895 10.593-12.869 2.234-28.258-9.33-34.316-10.825 1.07 16.041 9.156 27.391 24.665 32.976 5.824 2.244 39.18-3.456 36.526-4.281-14.091 6.644-39.476 10.044-51.548 17.743-15.588 6.634-31.999 10.837-46.764 3.397-8.746-3.837-13.648-7.882-20.526-13.824 1.165 14.903 3.249 26.494 14.582 37.405 13.176 9.454 31.447 8.955 47.183 8.368 19.934-5.679-4.186 9.535-13.536 9.303-8.18 1.696-16.493 1.646-25.358-.347-18.953-4.615-28.267-10.487-11.776 7.453 18.777 19.3 62.16 31.883 76.236 8.995 8.69-8.375 15.728-13.58 26.765-18.7-23.189 11.223-28.956 50.776-12.118 53.984 5.52-15.757 12.699-24.07 23.573-28.717 5.161-3.91 14.929-15.471 17.217-14.814 2.458 3.042-14.245 12.883-16.679 26.938.439 15.548 20.207 33.365 32.385 39.416-4.053-16.113-5.895-12.112-5.583-27.575-.902-9.342-.544-15.864 1.648-25.012 5.084 13.256 12.87 24.326 28.732 26.478 10.518.267 13.639-3.26 28.336-13.468-10.288-1.707-15.45-8.148-23.708-21.871-4.54-5.83-18.823-23.36-17.852-22.71 7.25 10.966 19.67 20.462 33.17 17.308 7.659-.932 20.639-11.471 11.093-13.204-15.747-12.865-28.452-29.727-40.27-47.764z" stroke="#000" stroke-width="4" fill="gold"/><g stroke="#000" stroke-width="2"><path d="M458.215 82.236c-.331 1.849 1.529 8.99-1.575 4.392-3.916-4.108-8.006 3.782-8.572 7.189 1.052 5.075 3.075 8.702 6.345 11.502 2.113 11.235-23.331 1.623-16.56-6.691 3.544-2.342 3.783-5.32 3.375-9.518-.182-4.53-5.473-6.058-9.016-4.183-4.311 2.007-8.06-1.382-11.188-3.902-4.36-3.24-10.538-.897-13.682 2.957-3.668 3.837-2.589 10.47.845 14.068 5.941 2.996 8.64 9.736 9.942 15.943 3.264 7.819 5.362 20.01 8.5 19.453 21.01-4.934 52.07 1.586 68.389 6.78l6.758-12.907c3.384-4.383 5.816-9.444 9.181-13.804 3.777-3.229 8.887-7.155 6.636-12.827-2.124-5.444-8.859-6.731-14.042-6.72-4.558.182-9.538-.713-13.433 2.31-2.677 1.122-3.82 5.397-.766 7.127 4.45 3.401 6.774 7.394 3.365 12.115-4.433 5.107-19.822.15-18.264-6.433 1.419-4.813 4.9-3.689 7.506-6.993 2.697-2.714 5.358-9.472-.85-8.68-6.834.3-3.62-7.628-6.481-10.989-1.974-3.578-6.334-6.631-10.443-4.563-2.295.975-4.223 2.628-5.97 4.375z" fill="red" stroke-width="1.99998"/><g stroke-linejoin="round" fill="gold"><path d="M430.955 152.43c-.475.903 7.839.866 8.422 1.608 3.775 3.138 3.612 6.552 8.753 9.096 3.296 1.961 8.852 1.645 12.02-.121 4.17-2.018 2.396-6.804 10.439-3.332.668.049 4.194.312 2.298.166-3.319-.069-4.157-1.743-6.374-4.182-7.122-11.584-24.172-14.218-27.727-5.508-.732 1.793-5.78.877-7.83 2.273z" stroke-width="3.99996"/><path d="M424.826 395.018c-11.734 14.261-10.497 26.825-12.106 50.806 5.5-1.047 6.371-5.987 11.533-12.392 1.62 4.713-.873 10.97-2.463 15.904-2.62 6.75-6.44 17.503-9.995 23.82 7.485.152 11.261-1.713 12.415-5.637 1.955-2.14 5.744-10.237 5.384-3.017-5.344 10.536-7.999 18.984-10.315 27.23 8.565-3.446 12.44-9.741 14.814-12.424 5.072-2.404-9.695 27.417-10.79 29.432.87 4.52 8.496-2.448 11.444-3.899 24.153-24.994 53.85-68.411 64.79-97.329 3.425-12.792-2.725-25.48-8.44-36.606-27.845 5.853-27.663-12.225-35.802-15.094-.414 8.087 3.156 23.696 7.074 30.768 3.727 3.688 6.227 9.16-3.942 10.193-7.108-.525-8.076-2.422-12.503-7.534-5.626-5.033-9.3-12.194-21.097 5.78z" stroke-width="1.99998"/></g></g><path d="M409.85 139.1c.096 5.745-.1 16.599 7.104 17.714 3.982.72 4.588-4.986.41-5.055-9.99-8.14 15.308-16.107 10.783-15.302-3.518-1.435-17.068.544-18.297 2.643z"/></g><g stroke-linecap="round" fill="none"><g stroke="#000"><path d="M470.48 214.77c-.943 3.744 1.83 11.213 3.574 14.362" stroke-width="2"/><g stroke-width="4"><path d="M385.04 246.17c18.045 5.117 24.545-5.373 36.443-2.928M483.5 194.55c1.12 14.037 7.799 18.45 9.829 18.475M431.39 277.04c-2.15-.533-3.078-18.015-2.48-20.133.781-2.764-4.074 24.237-7.388 23.823"/></g></g><path d="M423.026 125.49c27.846-2.216 49.072-1.582 74.004 8.363" stroke-width="2.9999700000000002" stroke="#000"/></g><g stroke="#000"><path d="M449.67 145.1c-.628.023-1.249.095-1.854.223-1.793.379-3.197 1.8-4.73 2.803-1.156.756-2.197 1.697-3.291 2.547 1.678 1.309 5.087-.43 6.61.327 1.918.954 3.25 2.482 5.38 2.728 6.691-2.354 7.956-2.027 11.13-.809-1.054-1.333-1.848-1.103-3.012-2.341-1.472-1.565-2.78-3.478-4.73-4.379a12.25 12.25 0 0 0-5.502-1.1z" fill-rule="evenodd" stroke-width="3"/><g stroke-linejoin="round" stroke-linecap="round"><g stroke-width="4"><path d="M363.07 309.34c14.189-3.804 21.762-9.883 29.178-15.377 7.38-5.46 14.96-10.65 29.35-12.96-14.543 1.654-22.534 6.27-30.48 11.317-7.91 5.024-15.354 10.157-28.994 13.14zM465 329.2a53.666 53.666 0 0 0-.99 2.105c4.628 6.715 10.556 11.37 16.19 15.895-4.921-5.592-9.63-10.877-12.915-17.8a40.813 40.813 0 0 1-2.286-.2zM437.35 344.96l-1.403.863c1.68 7.924 3.539 14.472 5.703 18.181-1.2-4.012-2.043-10.683-2.708-18.623a212.9 212.9 0 0 1-1.592-.42zM453.57 210.36a146.99 146.99 0 0 1 1.954-.242c6.367-4.738 9.403-7.933 11.102-11.683 1.78-3.93 2.068-8.476 3.453-16.101-1.722 7.673-2.304 12-4.314 15.673-1.833 3.35-4.883 6.178-11.323 10.6-.27.574-.561 1.159-.872 1.754zM440.19 325.36c5.983-9.287 10.03-25.344 7.882-39.634 1.668 14.362-2.907 30.108-9.087 38.82zM476 292.6c-.146.983-.288 1.937-.417 2.873 2.094 2.861 4.02 4.57 6.075 6.09 2.079 1.538 4.18 2.814 6.942 5.037-2.337-2.65-4.127-4.436-5.709-6.336-1.561-1.875-2.842-3.773-4.248-6.654-.85-.26-1.74-.6-2.64-1.01zM479.8 242.6a24.065 24.065 0 0 1-.631 1.87c1.984 3.53 2.79 5.34 3.55 6.548.459.731.92 1.286 1.633 1.934.689.625 1.649 1.369 3.048 2.448-1.257-1.28-2.005-2.17-2.483-2.924-.473-.745-.666-1.334-.85-2.052-.332-1.296-.684-3.263-2.379-7.198a57.817 57.817 0 0 1-1.888-.626zM441.4 245.4c-.235.731-.505 1.43-.801 2.102 1.695 2.957 2.601 5.697 3.768 8.542 1.321 3.219 2.81 6.08 5.833 8.556-2.56-2.854-3.442-5.885-4.135-9.086-.604-2.785-1.112-6.01-2.455-9.44a38.612 38.612 0 0 0-2.21-.674zM454.6 229.4a14.452 14.452 0 0 1-1.184 1.719c1.58 2.684 1.689 4.402 1.942 6.438.137 1.104.317 2.18.886 3.286.558 1.087 1.461 2.148 2.956 3.357-1.29-1.457-1.854-2.646-2.053-3.68-.195-1.01-.052-1.917.127-2.92.332-1.849.871-4.342-.538-8.04a33.984 33.984 0 0 0-2.136-.16zM469.8 215.4a10.523 10.523 0 0 1-1.184 2.102c1.343 2.357 1.363 3.788 1.449 5.643.048 1.052.13 2.098.648 3.184.504 1.056 1.385 2.078 2.887 3.271-1.283-1.473-1.77-2.626-1.873-3.578-.099-.916.152-1.707.44-2.61.514-1.616 1.278-3.926.1-7.477a29.247 29.247 0 0 0-2.467-.535z"/></g><g stroke-width="2"><path d="M336.56 175.08c.074.507.125 1 .158 1.482 2.364 1.41 3.393 2 4.577 2.206 1.078.188 2.88.035 6.824.406-4.134-.791-5.493-.998-6.446-1.537-.763-.432-1.39-1.164-3.67-2.948-.465.14-.945.27-1.443.391zM330.63 162.93c.074.507.122 1.001.145 1.483 2.181 1.356 3.655 2.56 4.805 3.166 1.512.798 3.208 1.128 7.337 1.517-4.147-.794-5.58-1.514-6.66-2.499-.84-.764-1.926-2.227-4.162-4.033-.479.123-.968.246-1.465.366zM344.07 187.67c-.141.377-.27.76-.387 1.15 2.48 1.468 4.676 1.117 6.571 1.488-2.114-1.298-3.436-1.391-5.174-3.28-.323.229-.66.443-1.01.642z"/></g></g></g><g stroke-linejoin="round" fill-rule="evenodd" stroke="#000" stroke-width="2" fill="#fff"><path d="M435.94 186.86c-.702 4.893 8.925 6.583 9.25.874 1.566-7.852-8.832-9.791-9.25-.874zM425.49 184.01c-.702 4.893 8.925 6.583 9.25.874 2.012-9.25-8.726-9.727-9.25-.874z"/><path d="M415.98 181.16c-.702 4.893 8.925 6.583 9.25.874 1.914-9.783-8.9-9.699-9.25-.874z"/><path d="M407.75 175.46c-2.474 10.532 7.997 9.593 9.25.874 1.743-7.732-8.667-9.44-9.25-.874z"/></g><g stroke-linejoin="round" stroke="#000" stroke-linecap="round"><path d="M452.19 446.82c.843-.07 1.677-.134 2.5-.195 5.867-6.988 8.424-11.848 12.671-18.654-5.218 6.247-8.553 10.286-15.088 16.359a52.422 52.422 0 0 1-.083 2.49z" stroke-width="3"/><g stroke-width="2"><path d="M447.09 435.82c.844-.07 1.657-.114 2.447-.137 2.504-3.006 3.568-4.764 4.395-6.458.942-1.93 1.54-3.685 3.83-7.354-2.726 3.263-3.958 4.883-5.305 6.36-1.158 1.269-2.564 2.617-5.333 5.154.025.779.014 1.59-.034 2.435zM443.39 424.32c.844-.07 1.645-.091 2.406-.07 2.347-2.724 3.062-3.636 3.62-4.537.094-.15 1.554-2.932 3.245-5.642-2.787 3.337-3.528 3.85-4.488 4.371-.824.448-1.95 1.02-4.74 3.459.018.77.005 1.574-.043 2.419zM439.79 414.12c.844-.07 1.645-.091 2.406-.07 2.347-2.724 3.062-3.636 3.62-4.537.094-.15 1.554-2.931 3.246-5.642-2.788 3.337-3.53 3.85-4.49 4.371-.823.448-1.949 1.02-4.739 3.459.018.77.005 1.574-.043 2.419zM358.46 399.42c.086-.434.168-.87.249-1.306-3.394-1.61-6.657-2.727-9.52-4.743 2.367 2.68 5.332 4.586 8.218 6.854.348-.27.7-.54 1.053-.805zM366.96 392.62c.086-.435.168-.869.248-1.304-3.36-1.562-5.466-1.636-8.32-3.645 2.364 2.676 4.305 3.622 7.032 5.764.34-.277.686-.55 1.04-.815zM373.56 383.52c.086-.434.18-.864.284-1.29-3.194-1.573-4.732-2.93-7.756-5.059 2.294 2.597 3.5 4.755 6.402 7.136.36-.259.716-.521 1.07-.787zM380.66 374.32a8.42 8.42 0 0 1-.68-.903 8.11 8.11 0 0 0-.677-.323c-.297-.121-.364-.108-.39-.084-.032.03-.104-.01-.324-.179-.22-.17-.59-.475-1.3-1.06.657.64.977 1.005 1.135 1.222.203.28.093.208.198.377.052.082.139.176.34.329.129.096.316.23.593.422a6.38 6.38 0 0 1 1.105.2z"/></g><path d="M350.04 328.16a68.2 68.2 0 0 0 6.646 1.061c14.265-2.8 24.164-10.45 33.626-17.92-10.354 6.7-20.429 12.97-34.155 14.528a48.1 48.1 0 0 1-6.117 2.331zM318.26 287.08c1.51 2.901 3.68 5.318 6.551 7.23 3.065 1.065 6.371 1.475 9.77 1.44 6.85-.07 14.412-1.955 21.8-4.382 7.406-2.434 14.86-5.492 21.46-8.008 6.615-2.522 12.482-4.546 16.827-4.95-4.412-.02-10.448 1.605-17.246 3.74-6.82 2.14-14.308 4.757-21.774 6.762-7.48 2.009-14.72 3.34-20.986 2.994-3.08-.17-5.84-.74-8.243-1.776-2.744-.26-5.524-1.137-8.158-3.05z" stroke-width="4"/><path d="M409.39 332.5c1.128-.097 2.242-.188 3.345-.274 9.198-10.277 13.134-17.142 15.917-23.046 2.914-6.181 4.558-11.304 9.915-18.492-5.995 6.758-8.355 11.601-11.932 17.4-3.322 5.384-7.69 11.581-17.144 21.078a75.538 75.538 0 0 1-.102 3.334z" stroke-width="2"/></g><path d="M144.82 49.069c-4.783 1.879-3.875 8.646-6.79 12.147-8.343 18.706-21.495 34.933-29.264 53.876-6.391 18.908-.14 40.69 13.722 54.663 8.764 11.541 11.986 27.057 8.778 41.108-10.443-3.563-23.309-9.603-24.953-21.962 2.966-15.211-6.318-30.105-18.011-39.195-10.244-8.681-22.948-13.174-35.382-17.61-13.879-5.85-22.648-13.929-37.294-17.858 9.458 21.738 7.444 46.67 17.54 68.198 6.57 14.365 18.324 27.855 34.475 30.98 8.952 4.532 19.87-.536 28.797 3.387-.417 4.004-6.407 4.686-9.725 5.963-13.182 3.258-29.748.19-39.765 11.54-13.885 17.53-10.923 41.41-12.898 62.255.71 11.133-6.27 21.064-6.587 32.037.714 4.925 6.695 2.86 9.011.368 22.774-15.415 49.391-27.07 66.868-49.231 3.313-5.183 9.713-9.281 8.72-16.27-.017-7.976-6.572-15.02-5.098-22.912 5.55-5.302 12.127 1.998 15 6.78 6.078 6.623 3.409 16.288 4.566 24.452 1.28 37.709-2.907 75.284-3.746 112.938-1.062 13.69-10.765 28.747-25.797 29.412-14.56 3.49-31.85 6.657-40.856 20.004-2.334 4.264-3.932 8.746-6.129 13.044-3.23 8.521 7.614 17.834 15.258 12.35 5.084-3.598 4.095-11.197 9.603-14.542 10.84-8.354 25.238-5.12 37.835-6.215 3.076-.564 6.384 1.888 4.354 4.954-8.766 14.122-22.493 26.953-23.514 44.603-2.246 7.76 7.782 14.762 14.579 10.71 6.565-4.138 9.19-12.617 8.722-20.05 6.972-11.075 14.121-24.226 26.96-29.23 6.59-1.989 11.694 4.482 17.028 7.453 8.617 6.082 16.417 16.235 14.15 27.295.562 9.515 10.16 19.327 20.051 17.08 7.854-3.312 6.06-13.658 5.19-20.409-2.28-14.636-11.228-27.494-19.277-39.063 8.952-4.392 19.83-.292 28.14 4.145 5.776 2.272 5.484 10.137 11.485 12.185 7.668 3.456 15.537-5.825 12.259-13.132-2.57-5.31-6.397-9.952-10.024-14.612-11.749-13.237-30.077-16.441-44.789-24.93-14.083-9.414-20.802-27.177-17.543-43.57 1.577-33.337 2.364-66.786 2.538-100.111-1.19-10.47 4.853-24.265 16.595-25.062 5.044-.337 7.82 2.54 3.747 6.456-5.762 9.02-12.488 20.86-6.55 31.464 7.683 14.591 20.292 26.817 35.978 32.425a120.78 120.78 0 0 1 39.334 22.603c5.84-6.713 1.624-16.285.756-23.976-3.147-12.773-2.226-25.857-2.691-38.874.251-11.43-2.125-24.12-11.59-31.61-10.933-13.04-30.099-9.03-43.557-17.337-3.961-1.399-4.936-5.685-1.747-8.557 9.184-6.508 21.399-2.4 31.648-5.86 19.97-8 30.16-29.65 33.423-49.722 1.022-12.175 6.084-23.298 11.168-34.229 1.91-3.587 1.37-10.768-4.526-10.955-6.481 2.386-10.93 6.662-17.807 8.754-21.338 7.468-45.123 14.677-59.319 33.586-4.744 6.597-7.323 14.972-5.353 23.004.722 14.77-12.035 26.627-23.903 32.413-5.828-6.914-3.14-17.374-.568-25.166 2.997-7.863 10.663-12.663 13.781-20.55 10.94-20.16 7.642-45.188-3.7-64.423-6.136-11.03-12.873-21.936-15.237-34.53-1.827-4.038-2.406-12.556-8.068-12.877z"/><path stroke-linejoin="round" d="M158.45 390.92c8.882 9.98 25.016 25.745 43.203 27.853 10.502 5.053 25.973 20.012 30.409 32.148.883 2.414-4.224 2.387-5.146 4.838-10.202-9.887-16.868-21.544-38.445-21.798-10.572 1.41-20.883-6.962-22.877-8.493 15.556 25.718 17.422 21.976 25.365 38.38 3.477 7.78 13.895 32.297 5.266 32.206l-10.834-.114c-5.833-13.366-1.957-28.139-14.147-38.873-18.256-10.704-22.263-21.92-28.743-33.763 12.854 25.377-28.864 34.121-30.03 57.91-1.436 4.76-3.792 14.711-4.449 14.616l-9.961-1.435c-3.764-.542-.514-16.134 3.41-20.61 8.625-13.74 15.725-14.146 24.246-45.815 15.585-26.23-4.899 15.868-24.663 5.053-30.94-3.574-40.44 23.415-38.103 23.531l-9.57-.478c-4.02-15.268 16.932-37.418 36.445-36.758 34.413-7.541 31.868-11.428 36.381-39.012 6.11-40.699 3.579-82 4.477-122.96 3.32-29.076-39.299-37.437-31.202-16.59 9.391 14.282 8.12 22.076-3.234 35.141-18.653 22.606-48.289 36.985-66.856 51.69-5.598 1.283 9.306-35.795 7.657-43.786 2.498-24.165-.723-37.524 17.458-55.819 11.42-10.36 25.77 4.391 36.878-8.071 7.125-6.574 32.761 3.848 14.87-4.157-10.445-20.807-36.08-4.145-51.26-19.16-19.988-16.022-29.75-37.908-31.823-62.889-.956-8.43-15.679-30.086-2.003-13.63 15.01 7.98 39.624 10.735 56.34 24.01 15.175 7.59 26.432 22.531 26.005 40.008.837 12.334 10.819 19.242 19.299 27.38 19.699 19.63 17.262 41.64 12.618-.735 1.268-16.433 1.002-28.145.165-30.921-1.457-7.607-10.332-16.367-10.332-16.367-19.081-23.7-16.2-43.23-6.82-61.183 6.764-16.674 19.091-27.81 23.158-45.908 2.712-9.264 4.829-16.175 6.065-2.525 3.02 28.537 24.203 42.862 25.315 71.655.519 14.74-6.437 32.771-13.614 39.635-4.56 7.214-8.273 5.671-8.15 14.847.884 20.535-4.613 65.546-2.997 48.652 3.829-15.294 25.74-32.225 34.201-38.258 1.76-1.254 5.73-11.246 5.58-14.546-.967-36.397 28.043-48.998 57.877-57.216 9.068-2.45 28.84-18.949 15.112-1.867-8.291 16.07-.81 35.654-10.027 51.642-6.22 15.458-18.038 30.458-36.454 29.093-18.504-9.717-32.368 13.782-48.989 24.108 21.285-20.338 28.398 1.896 45.695 4.925 22.576-5.621 40.561 24.626 37.207 45.939-2.285 18.057 1.869 35.87 6.089 53.304-10.99-22.456-45.78-23.61-62.81-45.333-11.11-10.021-14.937-25.37-7.379-34.035 26.34-18.212-14.884-26.978-21.376-9.247-10.348 22.201-2.565 45.36-4.687 69.09.084 26.201-4.628 58.836.19 84.698z" fill-rule="evenodd" stroke="#000" stroke-linecap="round" stroke-width="4.06" fill="red" transform="matrix(.98522 0 0 .98516 1.678 3.658)"/><g stroke-linejoin="round" stroke="#000" stroke-linecap="round" stroke-width="2.03"><path d="M151.44 177.92c.552-.91 1.099-1.808 1.64-2.696 2-27.163-.924-41.723-4.094-52.704-3.252-11.266-6.77-18.762-5.442-32.593-1.81 13.856 1.267 21.549 4.066 32.96 2.685 10.944 5.11 25.308 2.679 52.108.39.956.774 1.93 1.151 2.925zM100.2 232.27a76.046 76.046 0 0 0-1.534-1.095c-5.671 2.294-9.159 5.166-11.565 8.565-2.5 3.532-3.8 7.603-5.28 11.968-2.963 8.74-6.912 19.659-22.804 32.447 16.258-12.406 20.749-23.131 24.283-31.9 1.768-4.386 3.213-8.027 5.69-11.091 2.292-2.835 5.497-5.2 10.785-7.082.122-.601.264-1.206.426-1.813zM104.78 191.81c-9.923-3-19.891-9.97-29.789-18.253-9.925-8.307-19.509-17.688-28.941-25.6 9.128 8.091 18.628 17.836 28.292 26.358 9.656 8.514 19.638 15.964 29.828 19.4zM98.594 205.51c-.546-2.743-3.059-5.253-6.191-7.646-3.202-2.446-7.374-5-11.662-7.726-8.596-5.466-17.916-11.777-21.722-19.808 3.531 8.234 12.709 14.866 21.17 20.643 4.238 2.892 8.244 5.538 11.279 8.064 3.1 2.58 4.906 4.818 5.154 6.807zM184.77 188.84c5.408.303 9.725-2.175 13.556-6.048 3.815-3.857 7.281-9.236 10.959-15.002 7.367-11.55 15.805-25.039 30.036-32.157-14.44 6.85-23.191 20.187-30.873 31.61-3.846 5.718-7.368 10.865-11.172 14.478-3.79 3.6-7.72 5.54-12.363 5.124zM194 199.86c.55-.064 1.13-.33 1.681-.647.577-.333 1.22-.783 1.913-1.32 1.387-1.076 3.046-2.56 4.853-4.297 3.618-3.48 7.9-8.05 11.918-12.601 4.019-4.555 7.782-9.104 10.36-12.547 1.289-1.722 2.283-3.17 2.864-4.203.29-.516.48-.932.549-1.226.034-.147.04-.266.01-.35-.032-.089-.096-.125-.179-.125.082.02.113.072.118.138a.747.747 0 0 1-.069.3c-.103.263-.32.645-.642 1.133-.643.975-1.696 2.361-3.046 4.025-2.698 3.327-6.576 7.754-10.706 12.183-4.131 4.43-8.507 8.855-12.199 12.174-1.847 1.662-3.508 3.034-4.87 3.987-.68.477-1.271.838-1.755 1.074-.5.244-.832.325-.96.308zM191.82 233.51c7.547 10 11.21 15.399 13.247 18.796 2.06 3.437 2.414 4.727 3.507 6.871 1.061 2.081 2.72 4.712 7.198 10.485 4.482 5.777 11.798 14.713 24.195 29.403-12.267-14.795-19.458-23.84-23.799-29.708-4.345-5.873-5.82-8.544-6.687-10.602-.853-2.024-1.175-3.636-3.112-7.193-1.94-3.565-5.515-9.124-12.945-19.246zM206.89 226.38c5.063 13.62 11.683 28.361 20.105 36.695-7.873-8.726-13.827-23.643-18.215-37.349zM83.989 224.16l-.94-.34c-5.455 16.104-8.95 32.65-24.354 46.388 15.96-13.337 20.136-29.784 26.235-45.71l-.94-.34zM137.49 182.91c3.824-29.632 2.647-42.573.76-50.157-1.874-7.527-4.41-9.62-3.345-17.875-1.405 8.271.84 10.578 2.37 18.096 1.517 7.457 2.37 20.209-1.767 49.67z" transform="matrix(.98522 0 0 .98516 1.678 3.658)"/></g></svg>