<svg height="530.233" width="538.678" xmlns:xlink="http://www.w3.org/1999/xlink" xmlns="http://www.w3.org/2000/svg"><path style="display:inline;fill:#000;stroke:none;stroke-width:30" d="M311.402 555.462c-15.805-14.944-52.987-15.119-85.57-23.824-38.03-10.16-63.613-25.967-82.14-46.528-25.204-27.975-30.424-54.316-33.308-109.506l-7.8-149.27c-2.613-50.002-9.063-61.139-46.28-66-10.614-1.387-7.89-14.603 0-15.334 48.451-4.49 69.353-38.208 77.242-64.667 57.006 11.24 120.27-72.148 176.114-47.632 2.6 1.142 5.804 1.712 9.007 1.712 3.203 0 6.406-.57 9.006-1.712 55.845-24.516 119.108 58.872 176.114 47.632 7.889 26.46 28.791 60.177 77.243 64.667 7.89.731 10.613 13.947 0 15.333-37.218 4.862-43.668 15.999-46.28 66l-7.8 149.271c-2.885 55.19-8.105 81.531-33.31 109.506-18.526 20.561-44.109 36.368-82.139 46.528-32.583 8.705-69.765 8.88-85.57 23.824-1.99 1.881-4.566 2.936-7.264 2.936-2.7 0-5.275-1.055-7.265-2.936z" transform="translate(-49.328 -28.165)"/><path style="display:inline;fill:#ed1c24;stroke:none;stroke-width:30" d="M476.546 120.192c10.79 17.035 21.996 29.155 33.454 38.293 1.538 1.226 2.815 3.776 2.815 5.743l-.04 235.666c-.01 63.871-41.275 105.06-101.041 123.422-1.88.577-3.914-.497-4.53-2.364l-87.42-264.686c-.356-1.076-1.879-1.076-2.234 0l-87.42 264.686c-.617 1.867-2.65 2.941-4.53 2.364-59.767-18.362-101.031-59.55-101.042-123.422l-.04-235.666c0-1.967 1.278-4.517 2.815-5.743 11.459-9.138 22.664-21.258 33.454-38.293 1.052-1.662 3.451-3.296 5.377-3.696 58.992-12.236 97.017-66.9 149.294-43.207 1.791.812 4.626.812 6.417 0 52.277-23.693 90.303 30.971 149.295 43.207 1.925.4 4.324 2.034 5.376 3.696z" transform="translate(-49.328 -28.165)"/><path style="fill:#fff;stroke:none;stroke-width:30" d="m238.008 522.06 79.187-239.76c.469-1.418 2.475-1.418 2.943 0l79.188 239.76c.812 2.46-.584 4.89-3.128 5.383-25.953 5.016-59.65 8.32-74.332 21.469-1.927 1.726-4.472 1.726-6.4 0-14.682-13.15-48.379-16.453-74.331-21.47-2.544-.491-3.94-2.921-3.127-5.382z" transform="translate(-49.328 -28.165)"/><g transform="translate(-49.328 -28.165)"><path id="a" style="opacity:1;fill:#fff;stroke:#000;stroke-width:9;stroke-linejoin:round;stroke-miterlimit:4;stroke-dasharray:none" d="m497.137 88.722-11.864 14.966c-4.071 5.135-4.525 13.784-.847 19.207 5.57 8.21 12.283 16.926 24.26 27.844 4.842 4.414 14.242 7.077 20.74 6.235l42.683-5.529c-39.937-4.827-64.051-36.212-74.972-62.723zm-19.235 24.264c-60.572-10.945-96.623-63.614-149.43-47.443-5.492 1.682-9.738-.968-9.76-6.715l-.008-2.5c-.02-5.747 3.759-13.185 8.976-15.577 52.383-24.02 109.105 50.864 169.457 47.97l-19.235 24.265z"/><use xlink:href="#a" width="100%" height="100%" transform="matrix(-1 0 0 1 637.333 0)"/></g><g transform="translate(-49.328 -28.165)"><path style="fill:#fff;stroke:#000;stroke-width:6.5;stroke-linecap:round;stroke-linejoin:round;stroke-miterlimit:4;stroke-dasharray:none" d="M284.964 130.579c-.216-16.318 44.223-15.217 38.89 18.856-5.902 37.72 21.403 42.465 99.232 54.683 7.279 1.143 7.754 7.728-.943 7.307-.998 4.088-3.038 6.903-8.014 6.128-3.3 3.81-6.6 4.4-9.9 4.714-5.862.482-7.366 7.346-4.242 10.607-1.063 4.094-.567 6.888.235 9.428 5.051 1.959 11.834 6.516 18.62 11.078 17.637 2.332 22.082 14.092 13.672 14.613-3.253 8.213-7.988 10.991-13.907 9.429.137 5.001-2.334 8.097-13.67 4.714-3.59 1.545-7.642 1.798-13.436-2.829-12.002.644-33.09-14.235-55.625-31.584-.76 7.094-1.431 18.197-13.504 13.654l-6.67 1.706c-1.41-5.439-4.567-11.397-8.5-18.083-5.384-2.25-8.375-5.167-11.333-7.417-31.228-8.595-40.35-44.275-19.833-65.333 23.656-24.281-5.07-25.887-17.5-20.833 5.058-8.05 11.807-12.733 21.083-12.334 3.424.148 5.428-2.269 5.345-8.504z"/><path style="opacity:1;fill:none;stroke:#000;stroke-width:6.5;stroke-linecap:round;stroke-linejoin:round;stroke-miterlimit:4;stroke-dasharray:none" d="M324.478 234.533c-2.545 7.198 1.491 7.704 8.451 9.655m63.758-1.886c-24.5 6.836-35.249-.391-49.615.825-9.923-2.345-19.152-5.267-25.338-10.725-19.882-6.803-30.355-21.308-25.81-41.719m22.912 70.694c2.46-13.213-6.87-20.413-12.74-14.93l-3.763-2.864c4.48-5.399 10.445.577 13.032 3.111" transform="translate(3.536)"/><path style="opacity:1;fill:none;stroke:#000;stroke-width:5;stroke-linecap:round;stroke-linejoin:round;stroke-miterlimit:4;stroke-dasharray:none" d="M414.339 268.445c6.271 3.643 10.283-.865 15.348-7.174l-8.916 10.208m5.135-10.452c-.766 1.833-3.778 2.425-6.728 1.323-2.95-1.101-4.722-3.48-3.956-5.313.766-1.833 3.778-2.426 6.728-1.324 2.95 1.102 4.722 3.481 3.956 5.314zm-35.808-17.146c22 12.658 31.007 20.853 38.29 24.82m-28.66-8.742c11.608 6.742 7.218 12.886-3.741 6.713m-21.566-21.414 50.616 29.401m-70.85-31.53 60.885 34.293c10.223-2.318-4.31-6.05-8.721-9.075m-33.66-5.26c12.457 7.683 7.935 16.33-4.69 8.68m-33.621-32.31 70.73 43.624c-8.206-3.234-16.348-6.564-24.397-10.034m-19.543-47.815c11.463.084 11.085 6.832 1.011 6.965m20.306-3.597c0 1.79-2.534 3.241-5.66 3.241-3.126 0-5.66-1.45-5.66-3.24 0-1.79 2.534-3.241 5.66-3.241 3.126 0 5.66 1.45 5.66 3.24zm.252-11.247c14.743.789 9.694 9.955.26 8.304 11.567 2.385 11.931-4.527 12.672-7.554m9.102-4.46c0 2.484-3.264 4.499-7.291 4.499-4.027 0-7.291-2.015-7.291-4.5 0-2.484 3.264-3.165 7.291-3.165 4.027 0 7.291.681 7.291 3.166zm-27.427-5.494c14.347.713 14.285 9.795 2.055 8.92m10.269-8.338c9.52.472 9.152-7.633.197-8.695m-42.56 2.079c10.556 3.198 21.439 6.247 38.773 6.364 12.72.926 25.455 1.65 38.483-1.737-9.006.16-18.169-.462-27.396-1.409m-55.988 3.617c12.676 4.924 24.366 7.877 34.53 7.778 13.39 1.282 25.86 2.038 34.884.825l7.157-4.803c-4.295.707-8.51 1.097-12.583.917m-70.47 4.358c7.814.742 14.465 6.921 28.52 7.306 13.938-.014 23.415-.36 31.349 2.71-2.993 2.398-7.77.016-11.483.709m-56.753-3.536c11.435 1.536 14.42 5.58 24.277 6.363 27.187 2.383 33.606-2.525 42.427 2.711 3.332 1.942 1.932 5.81-2.936 9.593" transform="translate(3.536)"/><circle style="fill:#000;stroke:none;stroke-width:5;stroke-linecap:round;stroke-linejoin:round;stroke-miterlimit:4;stroke-dasharray:none" cx="300.874" cy="137.297" r="4.243"/><path style="fill:#000;stroke:#000;stroke-width:6.5;stroke-linecap:round;stroke-linejoin:round;stroke-miterlimit:4;stroke-dasharray:none" d="M322.372 261.377c2.733 6.241 5.467 11.25 8.2 14.041-10.88 1.563-20.693 1.34-24.866-2.121 5.711-2.41 10.374-5.014 9.996-10.214z"/></g><path style="opacity:1;fill:#fd0;stroke:#000;stroke-width:5;stroke-linecap:round;stroke-linejoin:round;stroke-miterlimit:4;stroke-dasharray:none" transform="translate(-40.328 -31.812)" d="m215.333 210.34-9.806-18.354-20.799.684L195.72 175l-10.992-17.67 20.799.684 9.806-18.354 9.807 18.354 20.798-.684L234.947 175l10.991 17.67-20.798-.684z"/></svg>