<svg xmlns="http://www.w3.org/2000/svg" version="1.0" width="495.806" height="622.277"><path style="fill:#da121a;fill-opacity:1;fill-rule:nonzero;stroke:none;stroke-width:.99999994" d="m9.356 6.25 240.005 2.322v286.625H8.24z"/><path style="fill:#fff;fill-opacity:1;fill-rule:nonzero;stroke:none;stroke-width:.99999994" d="M250.68 7.584h238.594v292.812c0 169.812-106.644 310.22-237.866 310.22-.361 0-.728 0-.728-.382V7.584"/><path style="fill:#4d87ca;fill-opacity:1;fill-rule:nonzero;stroke:none;stroke-width:.99999994" d="M10.384 296.503h238.95l1.025 318.384c-209.542-12.322-231.73-252.8-239.975-268.664z"/><path style="fill:none;stroke:#231f20;stroke-width:11;stroke-linecap:round;stroke-linejoin:round;stroke-miterlimit:3.86400008;stroke-dasharray:none;stroke-opacity:1" d="M5.5 5.5h484.806v297.208c0 172.134-108.102 314.07-241.485 314.07-128.989 0-243.321-142.72-243.321-314.07z"/><path style="fill:none;stroke:#000;stroke-width:8;stroke-linecap:butt;stroke-linejoin:round;stroke-opacity:1;stroke-miterlimit:4;stroke-dasharray:none" d="m250.68 7.584.728 603.031"/><path style="fill:none;stroke:#000;stroke-width:8;stroke-linecap:butt;stroke-linejoin:miter;stroke-opacity:1;stroke-miterlimit:4;stroke-dasharray:none" d="M10.384 296.503h238.95"/><path style="fill:#000;stroke:none;stroke-width:1px;stroke-linecap:butt;stroke-linejoin:miter;stroke-opacity:1" d="M414.885 26.93c-19.08.166-38.147 3.284-56.305 9.45-9.401 3.194-18.611 7.227-26.885 12.911-8.273 5.684-15.608 13.086-20.527 22.107-3.779 6.93-6.092 14.837-6.023 22.829.068 7.99 2.618 16.044 7.609 22.064 5.913 7.133 15.17 11.032 24.123 10.158a713.764 713.764 0 0 1-35.053 45.125 47.03 47.03 0 0 1 7.373 8.242 48.628 48.628 0 0 1 5.225 9.579 104.036 104.036 0 0 1 12.836-24.692c2.862-4.056 6.025-7.914 8.314-12.355a36.167 36.167 0 0 0 2.621-6.625 59.588 59.588 0 0 0 2.621 10.213c1.905 5.383 4.605 10.486 8.215 14.793 3.611 4.306 8.155 7.797 13.278 9.771 8.846 3.41 18.973 2.047 27.373-2.445 8.4-4.492 15.176-11.88 20.326-20.188 13.074-21.09 15.896-47.142 22.015-71.49 2.74-10.904 6.35-21.894 13.268-30.504 3.553-4.421 8.011-8.165 13.205-10.07a23.156 23.156 0 0 1 12.318-1c-5.22-4.977-11.272-8.988-17.79-11.795-10.804-4.652-22.652-5.933-34.323-6.072a184.935 184.935 0 0 0-3.814-.006zm.724 166.968c-11.84.072-23.684 1.151-35.248 3.668-25.742 5.604-50.52 19.036-65.732 40.545-4.838 6.841-8.691 14.513-10.225 22.75-1.533 8.238-.61 17.086 3.535 24.368 4.103 7.203 11.315 12.565 19.395 14.416A161.07 161.07 0 0 0 305.58 336.6a144.626 144.626 0 0 0 16.44 17.761c-1.15-10.309 1.456-20.995 7.22-29.619 2.666-3.988 5.977-7.545 8.317-11.732a29.799 29.799 0 0 0 2.62-6.29 55.259 55.259 0 0 0 2.62 9.698c1.898 5.119 4.58 9.98 8.187 14.078 3.607 4.098 8.162 7.416 13.305 9.248 8.83 3.145 18.883 1.673 27.209-2.63 8.326-4.305 15.067-11.22 20.492-18.862 13.928-19.62 19.655-43.936 22.016-67.88.64-6.497 1.068-13.078 2.988-19.317.96-3.12 2.295-6.14 4.14-8.832 1.846-2.692 4.213-5.052 7.024-6.71 3.716-2.19 8.045-3.081 12.319-3.67a103.34 103.34 0 0 1 12.318-.948 60.368 60.368 0 0 0-17.79-11.2c-10.808-4.397-22.654-5.563-34.321-5.767-1.69-.03-3.383-.04-5.075-.03zm11.217 160.28c-5.836.014-11.698.567-17.478 1.361-13.397 1.84-26.64 4.962-39.307 9.695-12.098 4.52-23.72 10.552-33.736 18.705-10.016 8.154-18.396 18.5-23.332 30.434-3.013 7.284-4.73 15.193-4.221 23.059.509 7.866 3.342 15.684 8.58 21.574 4.931 5.545 11.92 9.217 19.283 10.133a145.199 145.199 0 0 0-13.746 26.734 145.129 145.129 0 0 0-5.71 18.11 48.372 48.372 0 0 1 8.263 7.218 48.425 48.425 0 0 1 8.014 11.99c-1.804-11.683.078-23.908 5.314-34.507 2.125-4.302 4.79-8.353 6.445-12.856a31.236 31.236 0 0 0 1.639-6.615 41.98 41.98 0 0 0 4.059 9.19c2.919 4.915 6.877 9.24 11.65 12.386 4.773 3.147 10.367 5.092 16.078 5.35 9.063.41 17.996-3.463 24.82-9.44 6.825-5.977 11.696-13.919 15.237-22.271 8.654-20.418 9.7-43.097 12.379-65.112 1.225-10.072 2.895-20.344 7.828-29.21 2.95-5.304 7.132-10.06 12.508-12.88a24.7 24.7 0 0 1 12.033-2.802 60.571 60.571 0 0 0-19.28-8.377c-5.674-1.36-11.484-1.884-17.32-1.87z"/><path style="fill:#078930;stroke:none;stroke-width:1px;stroke-linecap:butt;stroke-linejoin:miter;stroke-opacity:1;fill-opacity:1" d="M413.705 33.504a102.542 102.542 0 0 0-17.394 1.443c-18.71 3.18-36.273 11.45-53.22 20.387-8.018 4.23-16.1 8.737-22.388 15.473-3.143 3.368-5.802 7.279-7.525 11.638-1.724 4.36-2.49 9.18-1.897 13.862.95 7.502 5.42 14.269 11.393 18.478 6.088 4.291 13.74 6.048 20.972 4.817.641 6.016 1.471 12.01 2.489 17.968.755 4.424 1.62 8.85 3.12 13.057 2.437 6.834 6.726 13.153 12.794 16.682 3.866 2.248 8.322 3.284 12.738 3.23 4.416-.054 8.794-1.175 12.85-3.016 11.163-5.065 19.649-15.456 24.57-27.162 4.477-10.648 6.238-22.315 7.637-33.867 1.399-11.552 2.494-23.23 5.765-34.353 2.58-8.774 6.632-17.291 13.037-23.526 3.644-3.546 7.993-6.283 12.684-7.982a104.09 104.09 0 0 0-37.625-7.13zm-3.348 22.344c.146-.009.293-.007.438.006.193.016.386.053.572.11a2.85 2.85 0 0 1 1.387.97 3.22 3.22 0 0 1 .644 1.57c.128.996-.19 2.006-.693 2.875-.502.869-1.182 1.62-1.846 2.373-4.104 4.658-7.79 9.678-12.021 14.22-3.68 3.952-7.756 7.523-12.02 10.837-3.585 2.786-7.315 5.4-10.666 8.464-1.906 1.743-3.67 3.63-5.377 5.569 1.003.028 2.006.086 3.006.02 3.322-.222 6.38-1.812 9.313-3.387 2.09-1.124 4.175-2.258 6.263-3.387 1.491-.806 2.986-1.61 4.403-2.54 1.52-.996 2.944-2.13 4.402-3.216.423-.315.852-.627 1.336-.836.484-.21 1.03-.31 1.541-.18.45.115.848.403 1.133.77.285.367.463.808.56 1.262.248 1.155-.032 2.397-.677 3.386-.704 1.08-1.79 1.846-2.877 2.54-1.707 1.087-3.482 2.06-5.248 3.046-5.782 3.227-11.531 6.609-17.778 8.805-1.76.619-3.564 1.142-5.418 1.354-1.572.179-3.163.13-4.74 0-.389-.033-.78-.07-1.158-.166-.101-.026-.197-.07-.295-.106-1.325 1.552-2.68 3.074-4.135 4.504-.482.475-.987.948-1.605 1.225-.31.138-.644.224-.983.226a1.789 1.789 0 0 1-.966-.266 1.75 1.75 0 0 1-.631-.73 2.29 2.29 0 0 1-.21-.95c-.008-.652.22-1.286.503-1.874.398-.827.913-1.583 1.474-2.309-.288-.768-.303-1.61-.289-2.431.03-1.704.164-3.412.508-5.08.463-2.246 1.302-4.405 2.37-6.434 1.92-3.652 4.574-6.901 6.263-10.666.572-1.276 1.03-2.603 1.656-3.854.625-1.25 1.439-2.442 2.576-3.255.712-.51 1.56-.863 2.436-.876.437-.006.878.073 1.28.249.4.175.76.447 1.026.794.453.594.605 1.379.532 2.122-.074.742-.356 1.45-.701 2.11-.754 1.445-1.809 2.708-2.71 4.065-1.02 1.538-1.843 3.2-2.539 4.91-.47 1.159-.885 2.341-1.185 3.555-.232.938-.395 1.893-.701 2.809-.028.083-.066.163-.096.246.653-.687 1.306-1.374 1.982-2.04 4.42-4.344 9.37-8.113 13.883-12.359 6.284-5.911 11.671-12.7 17.608-18.96 1.27-1.34 2.575-2.668 3.554-4.233.633-1.01 1.123-2.113 1.862-3.049.483-.612 1.078-1.151 1.785-1.482a3.473 3.473 0 0 1 1.27-.326zm-85.91 21.789c.222-.01.445.011.658.07.428.118.817.393 1.04.777.147.254.219.546.24.838.021.293-.006.585-.047.875-.368 2.619-1.786 4.974-2.404 7.545-.952 3.957.104 8.252 2.41 11.606 1.637 2.381 3.874 4.332 6.41 5.718 2.21 1.208 4.678 1.998 7.195 2.04 1.227.02 2.449-.135 3.674-.194 1.225-.058 2.48-.015 3.639.387.562.195 1.103.48 1.527.896.425.417.724.978.756 1.573.035.65-.254 1.29-.693 1.771-.44.481-1.019.818-1.62 1.07-2.028.854-4.31.806-6.505.653-2.65-.185-5.31-.508-7.84-1.319a21.086 21.086 0 0 1-10.326-7.332 26.683 26.683 0 0 1-3.827-15.593c.12-1.772.42-3.535.94-5.233.474-1.55 1.138-3.053 2.1-4.357.526-.715 1.176-1.39 2.019-1.668.21-.07.433-.113.654-.123zm9.192 7.38a.908.908 0 0 1 .662.23c.118.108.206.251.267.403.062.153.098.315.127.477.265 1.462-.05 2.968.078 4.45.199 2.278 1.477 4.38 3.227 5.759a9.817 9.817 0 0 0 4.246 1.91c1.331.251 2.721.234 4.008-.191.627-.207 1.221-.51 1.834-.758.613-.25 1.257-.448 1.916-.44.32.005.642.059.93.206.287.146.537.391.656.703.13.34.093.735-.047 1.07-.14.335-.377.616-.639.857-.884.816-2.05 1.195-3.193 1.504-1.379.373-2.787.674-4.213.692-2.301.028-4.61-.707-6.512-2.075-2.241-1.97-3.885-4.677-4.634-7.634a13.65 13.65 0 0 1-.426-2.955c-.027-.91.052-1.831.316-2.698.145-.474.36-.951.74-1.25.19-.149.419-.246.657-.26zm21.896 50.833c.445-.033.897.068 1.295.306.396.237.736.603.998 1.03.262.426.45.911.584 1.416.267 1.008.316 2.079.397 3.132.222 2.91.723 5.857 1.976 8.368a13.86 13.86 0 0 0 4.656 5.28c1.886 1.271 3.99 2.037 6.13 2.442 3.04.577 6.174.436 9.165-.43 2.52-.728 4.951-1.98 7.01-3.86 2.35-2.148 4.155-5.052 5.572-8.153 1.151-2.518 2.099-5.238 3.776-7.293.609-.747 1.323-1.403 2.156-1.717a2.465 2.465 0 0 1 1.223-.156c.41.06.81.254 1.115.586.261.284.445.66.549 1.064.103.404.126.834.093 1.254-.065.84-.348 1.633-.642 2.4-1.318 3.44-2.91 6.727-4.674 9.87-1.875 3.34-3.977 6.562-6.65 9.01-4.915 4.499-11.516 6.002-17.616 4.718-6.623-1.394-12.75-6.022-16.537-12.656-1.823-3.196-3.12-6.876-3.414-10.727-.063-.826-.079-1.665.045-2.482.124-.817.394-1.613.854-2.236.392-.533.92-.926 1.498-1.088.144-.04.293-.068.441-.078zm8.348 1.586c.152.014.302.05.44.11.204.091.38.23.515.393s.232.35.3.541c.139.385.164.792.206 1.194.114 1.11.374 2.234 1.021 3.191.572.847 1.429 1.53 2.403 2.014.973.484 2.061.775 3.166.93 1.57.22 3.187.165 4.732-.164 1.3-.278 2.556-.754 3.62-1.471 1.213-.819 2.144-1.927 2.876-3.11.594-.96 1.083-1.997 1.95-2.78.314-.285.683-.535 1.113-.655.203-.057.419-.082.63-.059.212.023.42.097.577.223.135.108.23.252.283.406.053.154.066.318.049.479-.034.32-.18.621-.332.914a26.193 26.193 0 0 1-2.412 3.763c-.968 1.274-2.056 2.503-3.436 3.436-2.537 1.716-5.944 2.289-9.094 1.799-3.42-.532-6.584-2.297-8.539-4.826-.941-1.219-1.612-2.622-1.764-4.09a3.108 3.108 0 0 1 .024-.945c.064-.312.204-.616.441-.854a1.543 1.543 0 0 1 1.23-.44zm52.125 64.738a132.15 132.15 0 0 0-12.987.765c-21.379 2.324-42.081 9.913-60.31 21.323-6.706 4.197-13.139 8.948-18.432 14.828-5.293 5.88-9.422 12.96-11.013 20.709-1 4.865-.975 9.982.443 14.742 1.418 4.76 4.273 9.139 8.287 12.063 4.61 3.357 10.67 4.645 16.246 3.453a8.571 8.571 0 0 0 .203 5.685c1.005 2.537 3.273 4.505 5.889 5.28a9.71 9.71 0 0 0 4.672.203 38.744 38.744 0 0 0 2.232 10.154c2.387 6.511 6.72 12.495 12.795 15.84 3.87 2.13 8.323 3.123 12.74 3.078 4.418-.045 8.797-1.108 12.846-2.875 11.122-4.855 19.397-14.814 24.57-25.791 9.44-20.025 9.492-42.99 13.405-64.78 1.402-7.806 3.388-15.69 7.717-22.337a35.73 35.73 0 0 1 9.136-9.543 132.68 132.68 0 0 0-28.44-2.797zm-5.487 25.015c.332-.022.67.011.983.122.313.11.603.3.808.56.182.23.295.508.338.797.044.289.017.588-.062.87-.16.561-.527 1.046-.963 1.437-.623.558-1.385.94-2.17 1.234-.784.293-1.597.504-2.394.76a23.814 23.814 0 0 0-4.456 1.97c-1.451.824-2.828 1.789-4.046 2.928-1 .935-1.888 1.984-2.766 3.033-1.162 1.39-2.314 2.79-3.336 4.284-1.228 1.795-2.245 3.743-2.908 5.81.498-.173.998-.342 1.502-.5 1.894-.594 3.822-1.083 5.758-1.523.73-.166 1.472-.326 2.216-.346.249-.007.497.002.745.031.495.058.985.198 1.418.448.432.249.804.61 1.037 1.052.204.39.296.833.28 1.272a3.117 3.117 0 0 1-.327 1.265c-.389.788-1.065 1.406-1.815 1.864-1.072.654-2.303 1.01-3.54 1.228-1.238.218-2.493.305-3.739.465-2.421.31-4.805.895-7.111 1.693-2.368.82-4.662 1.866-6.772 3.217-1.731 1.109-3.327 2.414-4.91 3.725-2.094 1.734-4.18 3.488-6.096 5.418-2.573 2.59-4.849 5.513-6.433 8.802-.662 1.375-1.205 2.806-1.782 4.22.227-.21.452-.42.69-.618 2.17-1.802 4.664-3.172 7.023-4.719 2.698-1.768 5.23-3.853 8.155-5.215 2.336-1.087 4.825-1.96 7.379-2.304.465-.063.931-.086 1.4-.084 1.405.005 2.823.231 4.23.277.66.022 1.899.715 1.985.067v-.006l.002.002-.002.004c-.093.304.64.21.894.417.254.208.476.481.592.788.103.27.115.578.07.863a1.8 1.8 0 0 1-.332.805c-.349.458-.84.822-1.365 1.062-.757.346-1.62.413-2.449.49-.834.078-1.675-.068-2.512-.033-1.622.068-3.256.146-4.847.47a24.194 24.194 0 0 0-4.764 1.509c-1.255.544-2.412 1.294-3.578 2.01-1.543.946-3.016 2.001-4.514 3.017-2.539 1.722-4.918 3.696-7.582 5.217-1.984 1.132-4.688 4.46-6.332 3.414a5.153 5.153 0 0 1-3.703-.139 4.157 4.157 0 0 1-1.23-.807 3.182 3.182 0 0 1-.801-1.226c-.257-.734-.202-1.55.021-2.295.223-.745.604-1.432.994-2.105.102-.176.215-.345.319-.52.009-.534.018-1.07.035-1.603.053-1.638.13-3.28.379-4.899.43-2.792 1.362-5.482 2.342-8.133.972-2.632 1.996-5.249 3.238-7.765 1.507-3.055 3.34-5.959 5.547-8.555a49.298 49.298 0 0 1 2.703-2.904c.47-.47.958-.944 1.558-1.23.3-.144.625-.24.957-.253.333-.013.672.057.96.223.253.146.462.363.609.615.147.252.233.54.263.83.06.581-.103 1.167-.363 1.692-.372.75-.938 1.386-1.558 1.949-.62.562-1.298 1.059-1.944 1.592a23.813 23.813 0 0 0-3.408 3.48c-1.044 1.302-1.966 2.71-2.676 4.219-.582 1.239-1.02 2.54-1.447 3.84-.565 1.72-1.118 3.448-1.514 5.215a25.14 25.14 0 0 0-.564 3.921c.8-1.108 1.626-2.195 2.521-3.228 2.78-3.207 6.116-5.879 9.48-8.465 2.637-2.026 5.313-4.008 8.087-5.84.095-.654.203-1.305.343-1.951.601-2.76 1.698-5.385 2.838-7.97 1.133-2.568 2.315-5.118 3.71-7.553 1.692-2.956 3.7-5.742 6.062-8.198a49.26 49.26 0 0 1 2.875-2.732c.498-.44 1.016-.883 1.633-1.133a2.46 2.46 0 0 1 .97-.191c.333.007.667.096.944.279.243.161.439.392.57.652.132.261.2.554.213.846.025.584-.175 1.159-.467 1.666-.418.725-1.022 1.326-1.676 1.85-.653.523-1.36.976-2.037 1.468a23.818 23.818 0 0 0-3.617 3.264c-1.122 1.236-2.128 2.582-2.93 4.045-.657 1.2-1.175 2.475-1.681 3.746-.67 1.682-1.326 3.373-1.83 5.111a25.308 25.308 0 0 0-.786 3.682 68.069 68.069 0 0 1 2.864-1.486c.183-.435.364-.87.553-1.301.655-1.502 1.335-2.998 2.166-4.41 1.432-2.435 3.294-4.587 5.185-6.688 1.878-2.085 3.797-4.137 5.883-6.015 2.53-2.28 5.307-4.3 8.318-5.895 1.17-.62 2.37-1.174 3.586-1.697.611-.263 1.24-.522 1.904-.567zm-85.367 24.522c.189.015.373.06.547.133.348.147.647.422.793.771.096.23.124.487.11.737-.015.25-.069.493-.135.734-.6 2.174-2.06 4.008-2.865 6.113-1.241 3.24-.821 6.99.755 10.08 1.12 2.195 2.794 4.093 4.782 5.545 1.732 1.265 3.728 2.206 5.85 2.52 1.033.153 2.081.156 3.122.242s2.095.26 3.03.728c.453.228.877.529 1.189.928.312.4.505.906.467 1.412-.042.554-.36 1.064-.783 1.422-.424.358-.948.578-1.483.725-1.807.497-3.73.206-5.566-.166-2.217-.45-4.428-1.015-6.475-1.98a17.964 17.964 0 0 1-7.908-7.342 22.788 22.788 0 0 1-1.51-13.61 19.836 19.836 0 0 1 1.371-4.32c.572-1.258 1.298-2.457 2.254-3.453.524-.546 1.147-1.044 1.889-1.186.185-.035.378-.049.566-.033zm8.545 2.1a1.11 1.11 0 0 1 .93.326c.155.16.264.371.293.59.022.162 0 .325-.05.474a1.36 1.36 0 0 1-.23.404c-.191.24-.44.42-.681.608-.664.518-1.28 1.132-1.64 1.918-.319.694-.42 1.498-.352 2.295.068.796.303 1.586.633 2.33a9.637 9.637 0 0 0 1.939 2.855c.682.691 1.474 1.274 2.344 1.641.993.419 2.06.547 3.1.521.843-.02 1.693-.136 2.529.082.303.08.606.205.85.422.114.103.215.226.282.366a.8.8 0 0 1 .08.445.682.682 0 0 1-.148.34.867.867 0 0 1-.287.222c-.218.109-.467.14-.713.164-1.1.11-2.218.108-3.336.03-1.188-.084-2.393-.26-3.523-.735-2.08-.874-3.767-2.747-4.676-4.888-.987-2.326-1.089-4.99-.232-7.217.412-1.073 1.047-2.053 1.925-2.738.189-.148.39-.281.614-.368.111-.043.229-.074.35-.087zm31.922 40.88c.301-.034.618.026.877.176.193.112.351.272.469.451.117.18.195.38.244.584.098.408.081.827.082 1.243.002 1.147.145 2.322.687 3.365.48.922 1.258 1.704 2.17 2.295.913.59 1.957.994 3.032 1.26 1.527.377 3.13.478 4.69.29 1.311-.158 2.6-.525 3.722-1.156 1.28-.72 2.31-1.762 3.152-2.902.684-.926 1.271-1.94 2.205-2.658.34-.261.73-.482 1.166-.563a1.62 1.62 0 0 1 .63 0c.206.044.401.14.544.285.122.124.203.28.24.444.037.162.033.331 0 .494-.065.325-.24.62-.42.904a27.1 27.1 0 0 1-2.761 3.62c-1.084 1.21-2.28 2.361-3.737 3.183-2.678 1.51-6.101 1.768-9.162.96-3.323-.875-6.27-2.99-7.945-5.769-.807-1.339-1.326-2.841-1.328-4.36 0-.325.022-.653.117-.966a1.74 1.74 0 0 1 .521-.83c.221-.188.504-.315.805-.35zm-7.973 5.127c.38.008.76.106 1.086.293.325.186.593.455.793.76.2.305.335.644.422.992.174.697.16 1.42.172 2.135.034 1.974.304 3.992 1.236 5.766.825 1.569 2.144 2.885 3.68 3.867 1.536.981 3.287 1.636 5.084 2.053 2.555.591 5.229.708 7.818.326 2.182-.322 4.316-1.002 6.166-2.13 2.113-1.287 3.8-3.122 5.17-5.114 1.113-1.618 2.063-3.386 3.598-4.657.558-.461 1.201-.856 1.926-1.011a2.61 2.61 0 0 1 1.047-.024c.345.068.674.225.916.469.207.209.345.475.412.754.066.279.064.57.014.851-.1.562-.385 1.076-.676 1.573-1.304 2.227-2.832 4.332-4.498 6.33-1.772 2.123-3.73 4.15-6.133 5.619-4.418 2.7-10.111 3.27-15.23 1.996-5.56-1.382-10.523-4.907-13.391-9.627-1.382-2.273-2.291-4.838-2.336-7.45-.01-.56.021-1.126.17-1.667.148-.542.42-1.06.844-1.45a2.503 2.503 0 0 1 1.71-.654zm65.204 63.778a123.886 123.886 0 0 0-29.6 3.521c-20.927 5.112-40.403 15.765-56.39 30.203-5.357 4.837-10.37 10.14-14.18 16.27-3.81 6.13-6.386 13.145-6.594 20.36-.139 4.81.789 9.668 2.844 14.02 2.054 4.354 5.247 8.187 9.252 10.858a25.203 25.203 0 0 0 14.216 4.205 8.573 8.573 0 0 0 1.06 5.59c1.378 2.356 3.918 3.958 6.622 4.328 1.56.214 3.17.038 4.647-.506.84 3.372 2.1 6.638 3.744 9.7 1.645 3.065 3.687 5.937 6.205 8.337 2.518 2.401 5.524 4.323 8.838 5.383 4.428 1.418 9.293 1.246 13.734-.135 4.44-1.38 8.468-3.927 11.885-7.082 5.358-4.947 9.23-11.348 11.926-18.125 2.695-6.776 4.265-13.946 5.505-21.132 2.447-14.175 3.657-28.543 6.106-42.717 1.664-9.63 3.939-19.274 8.385-27.977a60.687 60.687 0 0 1 9.658-13.771 123.41 123.41 0 0 0-17.863-1.33zm-10.284 14.693c.22-.02.443-.012.66.025.764.13 1.442.64 1.833 1.309.39.67.501 1.483.369 2.246-.142.815-.547 1.565-1.045 2.225-.499.66-1.092 1.242-1.664 1.84-3.886 4.057-6.866 8.873-9.989 13.543-4.388 6.561-9.105 12.895-13.761 19.27.68-.416 1.364-.828 2.037-1.257 1.833-1.167 3.597-2.45 5.222-3.892 1.101-.978 2.173-2.051 3.538-2.604.48-.194.997-.32 1.513-.324.172-.001.343.011.514.039.341.055.673.172.967.353.293.182.548.431.726.727.19.316.29.681.307 1.049.017.368-.047.737-.17 1.084-.246.694-.718 1.287-1.24 1.807-1.672 1.661-3.878 2.643-5.916 3.828-2.664 1.547-5.084 3.475-7.576 5.285a100.857 100.857 0 0 1-8.186 5.353c-4.113 5.727-8.24 11.442-12.516 17.041 1.012-.364 2.058-.644 3.063-1.029 2.113-.809 4.013-2.074 5.988-3.178.856-.478 1.727-.927 2.582-1.406 1.597-.894 3.136-1.895 4.567-3.035.969-.772 1.92-1.625 3.093-2.027.55-.19 1.15-.273 1.72-.15.284.06.559.174.798.339.24.165.441.385.578.64.147.274.217.586.215.895-.002.31-.073.617-.191.902-.238.572-.661 1.05-1.125 1.461-1.485 1.316-3.398 2.021-5.15 2.952-2.293 1.216-4.343 2.838-6.61 4.1-1.756.976-3.627 1.727-5.49 2.48-2.195.886-4.387 1.779-6.545 2.75-.947.426-1.908.855-2.893 1.177-.792.98-1.579 1.964-2.385 2.932-.83.997-1.71 2.022-2.898 2.543-.595.26-1.26.381-1.9.281-.642-.1-1.254-.434-1.633-.96a2.496 2.496 0 0 1-.446-1.39c-.012-.492.1-.983.29-1.439.378-.91 1.044-1.667 1.679-2.422.473-.562.921-1.143 1.375-1.72-.098-1.346-.058-2.701.148-4.034.308-1.98.974-3.885 1.694-5.755a100.59 100.59 0 0 1 4.402-9.82c1.408-2.741 2.94-5.426 4.063-8.296.858-2.195 1.492-4.527 2.879-6.433.433-.596.947-1.15 1.595-1.5a2.865 2.865 0 0 1 1.045-.336c.366-.04.743.003 1.084.142.32.131.604.345.828.608.225.262.392.572.498.9.214.657.186 1.374.028 2.047-.338 1.433-1.234 2.657-2.032 3.895-1.177 1.826-2.174 3.765-3.046 5.755-.468 1.066-.9 2.147-1.356 3.217-1.048 2.462-2.224 4.878-3.039 7.426 5.69-7.797 11.785-15.295 17.6-23.002 8.838-11.716 17.019-23.913 25.732-35.723.525-.711 1.063-1.432 1.764-1.972.35-.27.74-.491 1.16-.627.21-.068.428-.115.648-.135zm-83.117 39.293c.221.018.438.068.643.154.409.173.76.495.931.905.113.27.146.57.13.863-.018.293-.083.58-.16.863-.705 2.55-2.418 4.7-3.364 7.168-1.457 3.8-.965 8.196.887 11.82 1.314 2.574 3.278 4.798 5.613 6.5 2.034 1.484 4.38 2.588 6.871 2.956 1.214.179 2.445.184 3.668.285 1.223.1 2.46.306 3.557.855.532.267 1.031.618 1.398 1.086.367.469.592 1.063.547 1.656-.05.65-.42 1.248-.918 1.668-.498.42-1.114.677-1.742.85-2.123.583-4.38.24-6.537-.195-2.604-.527-5.2-1.19-7.604-2.323a21.084 21.084 0 0 1-9.287-8.609 26.686 26.686 0 0 1-1.773-15.959c.348-1.741.874-3.45 1.609-5.066.67-1.475 1.524-2.881 2.646-4.05.616-.64 1.35-1.223 2.221-1.39a2.47 2.47 0 0 1 .664-.037zm14.053 3.22c.14.007.283.053.41.141.148.104.27.264.352.442.08.177.123.371.138.562.032.405-.06.79-.195 1.137-.372.957-1.058 1.654-1.652 2.422-.732.945-1.345 2.045-1.641 3.312-.26 1.11-.27 2.324-.105 3.526a13.591 13.591 0 0 0 1.277 4.148c.452.917 1.009 1.785 1.687 2.502.679.718 1.483 1.283 2.332 1.557.961.31 1.94.24 2.866.049.335-.07.67-.156 1.02-.137.174.009.352.044.523.119.17.075.335.19.468.344.18.206.297.48.336.756.04.275 0 .55-.103.779-.12.268-.322.47-.553.607a2.427 2.427 0 0 1-.754.268c-1.224.254-2.548.042-3.806-.455-2.613-1.032-4.97-3.314-6.415-6.14-1.33-2.604-1.882-5.712-1.26-8.364.34-1.442 1.002-2.707 1.737-3.88a21.541 21.541 0 0 1 2.303-3.081c.19-.209.39-.416.636-.53a.87.87 0 0 1 .399-.083zm52.752 40.528c.21-.013.42.018.586.102.143.071.249.18.316.302a.806.806 0 0 1 .096.397c-.001.276-.115.553-.234.824-.538 1.213-1.22 2.399-1.993 3.55-.822 1.226-1.764 2.43-3.023 3.429-2.315 1.836-5.595 2.836-8.727 2.898-3.4.067-6.672-.949-8.836-2.795-1.042-.889-1.835-1.975-2.128-3.195a2.297 2.297 0 0 1-.07-.805c.031-.273.138-.552.347-.789.178-.202.43-.37.717-.467.286-.097.604-.123.884-.062a1.338 1.338 0 0 1 .893.666c.173.305.238.646.318.98.222.922.585 1.835 1.313 2.547.643.63 1.552 1.077 2.553 1.34 1 .263 2.093.346 3.189.31a15.798 15.798 0 0 0 4.62-.855c1.245-.432 2.428-1.025 3.398-1.793 1.107-.876 1.91-1.955 2.51-3.066.487-.903.862-1.855 1.632-2.649.28-.288.618-.556 1.028-.722.193-.079.402-.134.61-.147zm-32.836 2.748c.42-.026.845.053 1.22.24.374.187.691.476.938.813.247.336.425.72.55 1.119.253.796.298 1.64.374 2.47.209 2.297.683 4.623 1.863 6.604 1.044 1.752 2.609 3.166 4.385 4.168 1.776 1.003 3.76 1.606 5.773 1.926 2.864.455 5.816.345 8.633-.338 2.373-.575 4.665-1.563 6.604-3.047 2.214-1.694 3.913-3.986 5.248-6.433 1.084-1.988 1.975-4.135 3.555-5.756.573-.59 1.249-1.108 2.033-1.356a2.73 2.73 0 0 1 1.15-.123 1.9 1.9 0 0 1 1.049.461c.246.225.42.523.517.842.097.319.121.658.09.99-.061.664-.33 1.289-.607 1.895-1.242 2.714-2.74 5.307-4.4 7.787-1.766 2.636-3.748 5.18-6.266 7.111-4.629 3.551-10.845 4.738-16.59 3.725-6.238-1.1-12.01-4.755-15.576-9.99-1.718-2.522-2.94-5.427-3.217-8.465-.06-.653-.075-1.315.041-1.96.117-.644.372-1.273.805-1.765.37-.42.867-.73 1.412-.857.136-.032.276-.052.416-.06z"/></svg>