<svg xmlns="http://www.w3.org/2000/svg" width="800" height="891" style="shape-rendering:geometricPrecision;text-rendering:geometricPrecision;image-rendering:optimizeQuality;fill-rule:evenodd;clip-rule:evenodd"><path style="opacity:1" fill="#050904" d="M-.5-.5h800v14c-.968 2.107-1.302 4.44-1 7-.814 2.131-1.314 4.464-1.5 7a392.58 392.58 0 0 0-.5 28v8c-.819 2.805-1.319 5.805-1.5 9a612.382 612.382 0 0 0-.5 35 868.398 868.398 0 0 0-1 31c-.809 1.792-1.309 3.792-1.5 6a511.925 511.925 0 0 0-.5 32v6c-.819 2.805-1.319 5.805-1.5 9a8386.31 8386.31 0 0 0-1.5 47v13c-1.696 13.795-2.363 27.795-2 42v2a820.818 820.818 0 0 0-3 61v17c-.817 2.469-1.317 5.135-1.5 8-.5 9.994-.666 19.994-.5 30v10c-.802 1.452-1.302 3.118-1.5 5-.567 16-1.067 32-1.5 48v15c-1.675 10.117-2.341 20.45-2 31v2a14736.43 14736.43 0 0 0-5 36 43.474 43.474 0 0 1-2 15c-1.723 2.28-2.389 4.947-2 8-.617.111-1.117.444-1.5 1a436.267 436.267 0 0 0-1.5 11v2c-1.765 2.623-2.432 5.623-2 9a5.727 5.727 0 0 1-1 3c-1.238 1.714-1.905 3.714-2 6-.221 2.567-.888 4.901-2 7-.617.111-1.117.444-1.5 1a56.433 56.433 0 0 0-2.5 10c-9.044 28.506-21.711 55.173-38 80-1.406.473-2.073 1.473-2 3a190.77 190.77 0 0 1-13 19c-1.406.473-2.073 1.473-2 3-26.834 36.836-59.167 67.836-97 93-1.527-.073-2.527.594-3 2-1.399 1.39-3.066 2.39-5 3-1.527-.073-2.527.594-3 2-25.271 15.797-52.271 28.13-81 37-5.214-.036-9.88 1.297-14 4h-1c-3.992.264-7.659 1.264-11 3h-2l-12 1.5c-.556.383-.889.883-1 1.5a32.462 32.462 0 0 0-8 .5c-.556.383-.889.883-1 1.5a581 581 0 0 1-27 3.5c-39.49 2.963-78.49.13-117-8.5-3.263-2.068-6.93-3.068-11-3-52.252-14.459-99.252-38.959-141-73.5a132.648 132.648 0 0 1-17-16.5c-1.085-2.087-2.751-3.42-5-4a349.553 349.553 0 0 1-43-51c.073-1.527-.594-2.527-2-3-1.474-.936-2.474-2.27-3-4 .073-1.527-.594-2.527-2-3-21.87-31.565-38.204-65.898-49-103a168.167 168.167 0 0 0-1.5-8c-.383-.556-.883-.889-1.5-1a52.078 52.078 0 0 0-1.5-10c-.377-1.442-1.21-2.442-2.5-3l-1-6c.33-2.728-.337-5.062-2-7v-3c-.452-3.663-.952-7.33-1.5-11-.383-.556-.883-.889-1.5-1a50.442 50.442 0 0 0-.5-10c-.278-.916-.778-1.582-1.5-2a93.423 93.423 0 0 1-2-17c.163-6.562-.503-12.895-2-19v-8a707.347 707.347 0 0 0-3-56v-5c.39-12.877-.277-25.544-2-38v-13a731.105 731.105 0 0 0-3-57v-5c.353-12.875-.313-25.541-2-38-.282-8.336-.616-16.669-1-25 .166-11.338 0-22.672-.5-34-.179-3.525-.679-6.859-1.5-10v-6c.166-9.006 0-18.006-.5-27-.21-1.558-.71-2.891-1.5-4a812.73 812.73 0 0 0-1-32c.167-11.338 0-22.672-.5-34-.19-2.208-.69-4.208-1.5-6v-9c.166-9.006 0-18.006-.5-27-.198-1.882-.698-3.548-1.5-5a2031.015 2031.015 0 0 0-4-74v-9z"/><path style="opacity:1" fill="#a08b01" d="M169.5 17.5h-152v16c-.989-5.475-1.322-11.142-1-17 51.17-.332 102.169.001 153 1z"/><path style="opacity:1" fill="#a08b00" d="M782.5 17.5c-48.836-.332-97.503.001-146 1-.543-.06-.876-.393-1-1a2706.148 2706.148 0 0 1 147 0z"/><path style="opacity:1" fill="#f4d208" d="M169.5 17.5c-48.4 69.69-75.9 147.023-82.5 232-3.215 60.709 6.118 119.376 28 176a4701.368 4701.368 0 0 1 48 125c16.984 52.746 16.651 105.412-1 158a930.517 930.517 0 0 1-21.5 50c-1.175.219-2.175-.114-3-1-31.316-36.633-55.983-77.299-74-122 .38-2.198-.287-3.865-2-5-16.906-51.154-25.406-103.82-25.5-158l-18.5-439v-16h152z"/><path style="opacity:1" fill="#fcfdfa" d="M198.5 16.5c137-.167 274 0 411 .5 18.06 26.605 34.227 54.438 48.5 83.5 44.884 99.754 49.551 201.42 14 305a3879.238 3879.238 0 0 0-56 147c-14.054 47.514-14.721 95.181-2 143a380.22 380.22 0 0 0 28.5 70.5c-52.981-30.444-109.981-50.444-171-60a1263.857 1263.857 0 0 1-14-189.5 383.85 383.85 0 0 1 5.5-77c2.016-6.203 5.183-11.703 9.5-16.5a24.551 24.551 0 0 1 12 .5c-15.489 18.628-14.156 36.128 4 52.5 15.4 9.519 30.067 8.519 44-3 12.063-12.084 25.73-21.75 41-29-3.051-4.502-4.885-9.335-5.5-14.5 10.626 7.038 21.792 7.871 33.5 2.5a97.402 97.402 0 0 0 24-16 73.649 73.649 0 0 1 26-10.5c-3.932-6.462-5.599-13.462-5-21a195.271 195.271 0 0 1 3.5-25c1.801-9.788-.032-18.788-5.5-27 5.619-5.905 9.119-12.905 10.5-21a1113.063 1113.063 0 0 1 4-42 104.84 104.84 0 0 1 5.5-13 132.82 132.82 0 0 1-14-6.5 422.952 422.952 0 0 1-26-23 52.526 52.526 0 0 0-10.5-5.5 324.841 324.841 0 0 0-12-33 109.174 109.174 0 0 1-1.5-23c-11.298 1.859-22.298.692-33-3.5L541 121.5a142.745 142.745 0 0 1-4.5-16 37.783 37.783 0 0 1-15 5.5c-10.35.734-20.683.567-31-.5-8.099-.057-15.599 1.943-22.5 6-2.795-6.737-6.962-12.57-12.5-17.5a530.333 530.333 0 0 0-27-15c-11.456-6.736-19.79-16.236-25-28.5-5.682 11.89-14.015 21.39-25 28.5a288.8 288.8 0 0 0-28 16 66.763 66.763 0 0 0-12 16.5 39.478 39.478 0 0 0-11-4.5l-43-1c-5.282-.694-10.115-2.527-14.5-5.5a68.16 68.16 0 0 1-8 23 361.44 361.44 0 0 0-21.5 33c-11.226 4.316-22.893 6.15-35 5.5 1.139 5.416 1.306 10.916.5 16.5a888.011 888.011 0 0 0-13.5 38 87.591 87.591 0 0 0-15 9.5c-9.949 11.805-21.949 20.638-36 26.5 3.248 5.574 5.414 11.574 6.5 18a374.89 374.89 0 0 0 4 41c1.373 6.414 4.539 11.747 9.5 16-3.701 5.939-5.701 12.439-6 19.5a242.873 242.873 0 0 1 3.5 40.5c-1.059 5.184-2.893 10.018-5.5 14.5a55.477 55.477 0 0 1 18 5 229.834 229.834 0 0 1 24 16c13.533 8.913 27.533 9.747 42 2.5l1 1a15616.89 15616.89 0 0 1-6 15c8.227 1.614 15.561 5.114 22 10.5 10.406 11.102 22.406 19.769 36 26 20.653.682 34.153-8.818 40.5-28.5 2.166-12.033-1.001-22.366-9.5-31 6.956-1.785 12.456.215 16.5 6 4.885 12.847 7.552 26.18 8 40 2.567 67.704-.1 135.37-8 203a1180.467 1180.467 0 0 1-5.5 34c-61.115 10.912-118.115 31.579-171 62 19.936-36.558 32.436-75.558 37.5-117 3.003-38.311-1.664-75.645-14-112a7465.216 7465.216 0 0 1-58-154c-29.847-109.712-17.514-214.379 37-314a1153.883 1153.883 0 0 1 34.5-55z"/><path style="opacity:1" fill="#f4d208" d="M782.5 17.5c.838.342 1.172 1.008 1 2-1.207 7.139-1.874 14.472-2 22a3307.383 3307.383 0 0 0-3 93c-1.549 13.135-2.215 26.468-2 40a288.983 288.983 0 0 0-1 24 907.459 907.459 0 0 0-2 37v17a269.887 269.887 0 0 0-2 26 108879.52 108879.52 0 0 1-10 239 376.311 376.311 0 0 0-2 18 76.926 76.926 0 0 1-1 10c-.949 4.157-1.616 8.49-2 13v2c-1.157 2.773-1.824 5.773-2 9-13.851 70.033-44.018 132.033-90.5 186-40.434-73.11-45.434-148.777-15-227a1970.306 1970.306 0 0 0 56-148c25.425-98.811 17.425-194.811-24-288-8.76-17.19-17.76-34.19-27-51a216.615 216.615 0 0 0-17.5-23 5329.655 5329.655 0 0 1 146-1z"/><path style="opacity:1" fill="#656366" d="M798.5 20.5a582.288 582.288 0 0 1-2 35c-.166-9.34 0-18.673.5-28 .186-2.536.686-4.869 1.5-7z"/><path style="opacity:1" fill="#8a8671" d="M783.5 19.5c.272 7.563-.395 14.897-2 22 .126-7.528.793-14.861 2-22z"/><path style="opacity:1" fill="#01a041" d="M410.5 117.5c.202-2.489-.298-4.823-1.5-7-.821 7.179-.655 14.179.5 21 .695 10.486.861 21.152.5 32a25.027 25.027 0 0 0-6.5 8 76.852 76.852 0 0 1-6.5-8c.195-17.008.528-34.008 1-51-1.037 11.805-5.537 21.972-13.5 30.5-14.528 8.717-26.361 5.884-35.5-8.5-3.467-12.6.033-22.767 10.5-30.5 17.723-7.082 32.556-17.915 44.5-32.5A139.745 139.745 0 0 0 421.5 90a651.137 651.137 0 0 0 30 16.5c7.672 8.866 9.506 18.866 5.5 30-9.571 12.074-21.071 14.241-34.5 6.5-6.595-7.289-10.595-15.789-12-25.5z"/><path style="opacity:1" fill="#58575a" d="M796.5 63.5c-.42 14.834-1.086 29.5-2 44-.167-11.671 0-23.338.5-35 .181-3.195.681-6.195 1.5-9z"/><path style="opacity:1" fill="#6e6c6f" d="M3.5 82.5c.802 1.452 1.302 3.118 1.5 5 .5 8.994.666 17.994.5 27a484.957 484.957 0 0 1-2-32z"/><path style="opacity:1" fill="#035123" d="M407.5 100.5c1.086.12 1.753.787 2 2l-1 2c-.929-1.189-1.262-2.522-1-4z"/><path style="opacity:1" fill="#019f40" d="M528.5 117.5c1.644-.214 3.144.12 4.5 1a39.484 39.484 0 0 0 3 13 309.42 309.42 0 0 1 17 24c.563 1.225.23 2.225-1 3-13.736-3.317-25.403.35-35 11-.667-3-.667-6 0-9 1.314-2.589 1.981-5.256 2-8a192.105 192.105 0 0 0-12.5 23c-2.667-1.333-4.667-3.333-6-6a1544.503 1544.503 0 0 0 10.5-21 80.499 80.499 0 0 1-5.5 6.5 57.55 57.55 0 0 1-10.5 7.5 24.992 24.992 0 0 1-7.5-7 155.973 155.973 0 0 1-9.5-20c-4.602 4.13-9.768 7.13-15.5 9 1.969-17.277 11.802-25.944 29.5-26a163.059 163.059 0 0 0 31.5 1.5 38.715 38.715 0 0 0 5-2.5z"/><path style="opacity:1" fill="#029f40" d="M273.5 116.5a87.646 87.646 0 0 0 9 3.5c10.719.645 21.386.145 32-1.5 10.925.097 19.759 4.43 26.5 13a42.196 42.196 0 0 1 3.5 13 66.76 66.76 0 0 1-15.5-8 138.566 138.566 0 0 0-6.5 13.5 63.366 63.366 0 0 1-10.5 13.5 151.12 151.12 0 0 1-15.5-13l-1 1c4.752 5.444 8.085 11.61 10 18.5-.685 2.86-2.352 5.027-5 6.5a175.46 175.46 0 0 0-12-22l-1 1.5c2.243 4.29 2.91 8.79 2 13.5-9.868-10.013-21.868-14.18-36-12.5a34.638 34.638 0 0 1 4.5-8.5c9.748-8.496 14.915-19.162 15.5-32z"/><path style="opacity:1" fill="#02411a" d="M410.5 117.5c-.986 4.47-1.319 9.137-1 14-1.155-6.821-1.321-13.821-.5-21 1.202 2.177 1.702 4.511 1.5 7z"/><path style="opacity:1" fill="#606160" d="M5.5 123.5c.81 1.792 1.31 3.792 1.5 6 .5 11.328.667 22.662.5 34a1343.741 1343.741 0 0 1-2-40z"/><path style="opacity:1" fill="#02a141" d="M330.5 146.5a224.801 224.801 0 0 0 18 8.5c13.482 1.774 26.482 5.108 39 10 11.724 8.173 15.224 19.006 10.5 32.5-14.248 14.817-28.248 14.484-42-1a129.073 129.073 0 0 1-8-13 393.79 393.79 0 0 0 13.5 40.5c-2.171 2.66-4.837 4.827-8 6.5a3.647 3.647 0 0 1-1.5-1 692.051 692.051 0 0 1-12-40 91.875 91.875 0 0 1-1.5 29c-12.405-2.212-24.405-.879-36 4-3.409-2.097-5.909-5.097-7.5-9-1.664-9.01.003-17.343 5-25a203.112 203.112 0 0 1 23-25c4.141-4.949 6.641-10.616 7.5-17z"/><path style="opacity:1" fill="#01a141" d="M473.5 145.5c3.594 7.162 7.76 14.162 12.5 21 8.782 7.776 16.449 16.442 23 26 3.28 8.348 3.28 16.681 0 25-1.013 2.346-2.679 4.013-5 5a132.856 132.856 0 0 0-20.5-5.5c-4.805-.781-9.472-.281-14 1.5a76.716 76.716 0 0 1-3.5-6l-1-19a554.812 554.812 0 0 0-10 35 7.248 7.248 0 0 1-2.5 2 51.812 51.812 0 0 1-8-6.5 1641.472 1641.472 0 0 1 16-43c-.949-.617-1.782-.451-2.5.5-3.979 12.309-11.812 21.142-23.5 26.5-18.205 1.787-27.705-6.38-28.5-24.5 3.379-11.047 10.546-18.547 21.5-22.5a469.97 469.97 0 0 1 30-6c6.191-1.921 11.524-5.087 16-9.5z"/><path style="opacity:1" fill="#019b3e" d="M388.5 148.5c1.277 1.194 1.944 2.86 2 5l-1 5a194.27 194.27 0 0 0-13-4.5 99.697 99.697 0 0 0 12-5.5z"/><path style="opacity:1" fill="#02953d" d="M415.5 148.5c4.64 1.649 9.307 3.316 14 5a177.25 177.25 0 0 0-11.5 5c-1.764-3.057-2.598-6.39-2.5-10z"/><path style="opacity:1" fill="#6b6b6c" d="M793.5 138.5a773.49 773.49 0 0 1-2 38c-.167-10.672 0-21.339.5-32 .191-2.208.691-4.208 1.5-6z"/><path style="opacity:1" fill="#585653" d="M778.5 134.5a366.415 366.415 0 0 1-2 40c-.215-13.532.451-26.865 2-40z"/><path style="opacity:1" fill="#02a041" d="M259.5 163.5c26.333 2.675 34.833 16.342 25.5 41-5.78 7.371-13.28 10.204-22.5 8.5-6.979-1.841-13.646-4.175-20-7a153.684 153.684 0 0 1 26.5 29.5c.922 4.191.588 8.191-1 12-8.463-14.136-18.797-26.803-31-38 2.43 4.818 5.43 9.485 9 14 5.582 13.248 1.749 22.748-11.5 28.5-19.772 6.111-31.439-1.055-35-21.5 2.293-12.574 6.793-24.241 13.5-35 1.629-6.325 1.796-12.658.5-19 6.012.323 12.012-.177 18-1.5a491.464 491.464 0 0 1 28-11.5z"/><path style="opacity:1" fill="#01a141" d="M538.5 163.5c12.536.792 24.203 4.292 35 10.5a79.973 79.973 0 0 0 19 1.5c-1.278 6.018-1.111 12.018.5 18a163.161 163.161 0 0 0 10 22c5.949 13.585 3.449 25.419-7.5 35.5-13.727 5.444-25.56 2.611-35.5-8.5-2.95-13.121.716-24.121 11-33 .688-.832.521-1.498-.5-2a208.908 208.908 0 0 0-32.5 40c-1.578-4.737-1.578-9.404 0-14a267.454 267.454 0 0 1 26.5-28.5c-4.705 1.58-9.372 3.58-14 6-18.802 6.36-29.635-.14-32.5-19.5-1.064-15.104 5.77-24.438 20.5-28z"/><path style="opacity:1" fill="#666765" d="M791.5 182.5a829.349 829.349 0 0 1-3 56 8386.31 8386.31 0 0 1 1.5-47c.181-3.195.681-6.195 1.5-9z"/><path style="opacity:1" fill="#01a141" d="M408.5 257.5c.131-.876-.202-1.543-1-2-1.311 4.484-1.311 8.817 0 13a273.184 273.184 0 0 0 3 38 33.752 33.752 0 0 0-1 7.5 3275.227 3275.227 0 0 0 5.5 58.5c12.067-16.921 27.233-29.921 45.5-39 1.256.039 2.256-.461 3-1.5a112.97 112.97 0 0 0-15-.5c-11.052-2.232-16.386-9.066-16-20.5 1.18-11.515 7.514-18.181 19-20a27.842 27.842 0 0 1 13 1 1129.11 1129.11 0 0 0 37 26 151.33 151.33 0 0 0 16 5.5 104.61 104.61 0 0 0-6.5 12l-3 35c-1.703 6.366-5.536 10.866-11.5 13.5-16.917 7.914-30.417 4.08-40.5-11.5-2.939-8.839-1.606-16.839 4-24a116.252 116.252 0 0 1 13.5-11.5c-29.332 3.733-43.999 20.566-44 50.5.157 7.272.991 14.605 2.5 22 .414.457.914.791 1.5 1 23.233-6.872 46.233-6.038 69 2.5a265.933 265.933 0 0 1 20 8.5 117.535 117.535 0 0 1-15.5-16c-3.708-7.955-3.208-15.622 1.5-23 16.054-16.964 30.554-15.63 43.5 4a54.628 54.628 0 0 0 2 7c.823 11.02 1.823 22.02 3 33 .712 4.711 2.545 8.878 5.5 12.5a222.394 222.394 0 0 0-17 10 296.34 296.34 0 0 1-21 20c-13.687 7.368-25.854 5.535-36.5-5.5-3.632-8.633-4.465-17.633-2.5-27 5.671-8.603 13.671-11.77 24-9.5a204.355 204.355 0 0 0 16 3c-17.753-9.521-36.753-14.188-57-14-13.511 1.748-24.178 8.081-32 19a38.284 38.284 0 0 0 2.5 6.5l9.5-9.5a25.93 25.93 0 0 1 9-3.5 229.94 229.94 0 0 0-7.5 36c-3.161 79.482.006 158.815 9.5 238a822.066 822.066 0 0 0-114 0 2229.603 2229.603 0 0 0 11-157c.415-27.281-.085-54.614-1.5-82a146.715 146.715 0 0 0-7.5-35c2.023-.541 4.023-.041 6 1.5l12 10a4.934 4.934 0 0 0 3 .5c.351-2.369.518-4.703.5-7-13.299-14.938-29.799-20.438-49.5-16.5-12.55 2.46-24.55 6.293-36 11.5a29.042 29.042 0 0 0-8 3c3.549.614 6.883-.052 10-2 29.359-8.139 40.526 2.528 33.5 32-7.172 10.286-17.005 14.119-29.5 11.5a54.224 54.224 0 0 1-9-4l-25-23c-3.974-2.602-8.307-4.102-13-4.5 2.83-4.973 4.997-10.306 6.5-16l3-33c4.848-15.893 15.348-22.726 31.5-20.5 15.554 7.25 20.388 18.75 14.5 34.5-4.167 5.5-9 10.333-14.5 14.5 14.283-6.424 29.283-11.091 45-14 10-.667 20-.667 30 0a135.248 135.248 0 0 0 16 3.5c3.399-16.271 2.566-32.271-2.5-48-5.258-11.065-13.758-18.565-25.5-22.5a79.377 79.377 0 0 0-15-3c9.312 4.644 15.812 11.81 19.5 21.5 1.027 16.818-6.807 26.818-23.5 30-11.105.142-20.271-3.858-27.5-12a33.88 33.88 0 0 1-4-12l-1-27a47.249 47.249 0 0 0-7.5-14 71.282 71.282 0 0 0 22-8.5 542.25 542.25 0 0 1 32-23c12.513-3.052 22.679.448 30.5 10.5 2.372 7.61 1.706 14.943-2 22-4.529 5.514-10.362 8.181-17.5 8-4.164-1.111-8.497-1.611-13-1.5 1.41 1.372 3.077 2.205 5 2.5 11.273 4.735 21.44 11.402 30.5 20a362.934 362.934 0 0 0 16 19 643.264 643.264 0 0 0 4-37 9109.71 9109.71 0 0 1 4.5-78l-1-1c-2.671 8.176-7.005 15.343-13 21.5-12.997 6.869-24.497 4.703-34.5-6.5-5.06-13.399-2.226-24.899 8.5-34.5 9-6.169 18.334-11.836 28-17a117.341 117.341 0 0 0 16-15.5 163.057 163.057 0 0 1 10 11.5 845.471 845.471 0 0 1 33 21c11.573 11.077 13.74 23.577 6.5 37.5-5.934 4.142-12.434 6.809-19.5 8a33.652 33.652 0 0 1-10-2.5c-7.093-6.13-12.093-13.63-15-22.5z"/><path style="opacity:1" fill="#757774" d="M8.5 195.5c.79 1.109 1.29 2.442 1.5 4 .5 8.994.666 17.994.5 27a499.128 499.128 0 0 1-2-31z"/><path style="opacity:1" fill="#01983e" d="M286.5 213.5a125.229 125.229 0 0 1 6 12c-6.738 4.06-13.738 4.727-21 2a21.83 21.83 0 0 0-5-6c7.659-.545 14.326-3.212 20-8z"/><path style="opacity:1" fill="#028c39" d="M439.5 213.5c.876-.131 1.543.202 2 1a19.507 19.507 0 0 1-3 7 24.834 24.834 0 0 1-8-5c3.286-.542 6.286-1.542 9-3z"/><path style="opacity:1" fill="#01973d" d="M518.5 213.5a46.153 46.153 0 0 1 7 4.5c4.781.844 9.448 2.01 14 3.5a55.05 55.05 0 0 1-6 6.5 43.397 43.397 0 0 1-17-1c-1.016-.519-1.682-1.353-2-2.5a78.049 78.049 0 0 1 4-11z"/><path style="opacity:1" fill="#028d39" d="M365.5 214.5c11.371-.197 12.371 2.137 3 7-1.956-1.851-2.956-4.184-3-7z"/><path style="opacity:1" fill="#4f4e50" d="M775.5 198.5c.166 10.006 0 20.006-.5 30-.186 2.536-.686 4.869-1.5 7a907.459 907.459 0 0 1 2-37z"/><path style="opacity:1" fill="#02a041" d="M301.5 270.5c-.822-2.228-2.155-2.895-4-2 .688 1.355 1.688 2.355 3 3 7.285 7.236 11.952 15.903 14 26-4.444 6.608-10.11 12.108-17 16.5-15.762 5.039-26.928-.128-33.5-15.5-1.919-6.325-1.919-12.659 0-19a260.907 260.907 0 0 0 12-28 39.924 39.924 0 0 0-.5-15c12.792.574 24.792-2.593 36-9.5 14.091-6.546 26.257-4.046 36.5 7.5.449 2.594-.551 4.594-3 6-4.052 9.691-5.885 19.691-5.5 30-5.147 1.999-10.481 2.499-16 1.5a361.212 361.212 0 0 1-19-7 163.824 163.824 0 0 1 21.5 21.5c.374.916.874 1.75 1.5 2.5a18.778 18.778 0 0 0-5.5 4.5 224.76 224.76 0 0 0-20.5-23z"/><path style="opacity:1" fill="#01a041" d="M474.5 223.5a45.564 45.564 0 0 1 14 1.5 147.435 147.435 0 0 1 18 8c7.778 3.278 15.778 4.111 24 2.5-2.318 12.438.182 23.771 7.5 34 5.056 9.204 6.39 18.871 4 29-6.129 13.788-16.629 19.288-31.5 16.5a180.773 180.773 0 0 1-17.5-14.5c-.767-4.094-.434-8.094 1-12a110.364 110.364 0 0 1 14.5-20.5c-.667-.667-1.333-.667-2 0a973.943 973.943 0 0 1-23 24.5 156.813 156.813 0 0 1-5-4 222.472 222.472 0 0 1 21-22.5 172.436 172.436 0 0 1-18 6c-5.189.985-10.189.485-15-1.5 1.071-12.876-1.929-24.543-9-35 4.549-5.758 10.216-9.758 17-12z"/><path style="opacity:1" fill="#01a040" d="M611.5 277.5c.543-.06.876-.393 1-1a57.15 57.15 0 0 0-15-1 141.773 141.773 0 0 0-9-13c13.893-4.557 22.559-13.89 26-28 2.283.108 4.283.941 6 2.5l17 17a43.056 43.056 0 0 0 16 7c-6.86 11.419-8.86 23.753-6 37-.439 7.865-2.272 15.365-5.5 22.5l-4.5 4.5a323.228 323.228 0 0 1-17-4.5c-3.925.314-7.925 1.314-12 3l-2-1c2.683-8.023 7.35-14.69 14-20a268.625 268.625 0 0 1-14-13.5 88.011 88.011 0 0 1 11-6c-3.926.528-7.759 1.695-11.5 3.5-3.518-1.129-4.685-3.296-3.5-6.5a45.8 45.8 0 0 1 9-2.5z"/><path style="opacity:1" fill="#01a041" d="M189.5 234.5c.996-.086 1.829.248 2.5 1 3.403 13.806 11.903 22.973 25.5 27.5a216.167 216.167 0 0 0-8 11.5 56.175 56.175 0 0 1-16 2.5c4.23.793 7.896 2.627 11 5.5a10.94 10.94 0 0 1-3 4.5 69.363 69.363 0 0 1-15-5.5l-1 1 11 5.5c1.074.739 1.741 1.739 2 3-3.799 4.291-8.133 8.124-13 11.5a69.826 69.826 0 0 1 14 20l-1 2c-9.736-3.759-19.402-3.426-29 1-1.883-.376-3.383-1.376-4.5-3a35.157 35.157 0 0 1-5-10l-1-37a72.698 72.698 0 0 0-6.5-13.5 173.498 173.498 0 0 0 16-7.5c7.02-6.688 14.02-13.355 21-20z"/><path style="opacity:1" fill="#01943c" d="M257.5 241.5c.876-.131 1.543.202 2 1a257.767 257.767 0 0 0 7 13.5 86.867 86.867 0 0 1-12-4.5c-1.114-1.223-1.281-2.556-.5-4a27.563 27.563 0 0 0 3.5-6z"/><path style="opacity:1" fill="#01993e" d="M547.5 241.5c.876-.131 1.543.202 2 1 .696 2.857 2.029 5.357 4 7.5a94.853 94.853 0 0 0-12 6.5l-1-1 7-14z"/><path style="opacity:1" fill="#6e6e6e" d="M10.5 232.5c.821 3.141 1.321 6.475 1.5 10 .5 11.328.666 22.662.5 34a1027.278 1027.278 0 0 1-2-44z"/><path style="opacity:1" fill="#00491f" d="M408.5 257.5c-.982 3.462-1.315 7.129-1 11-1.311-4.183-1.311-8.516 0-13 .798.457 1.131 1.124 1 2z"/><path style="opacity:1" fill="#01a141" d="M557.5 255.5c11.007-.712 19.84 3.288 26.5 12a625.759 625.759 0 0 0 17 29 87.52 87.52 0 0 1 8.5 7 43.203 43.203 0 0 0-10.5 14 389.143 389.143 0 0 0-6 24c-6.711 19.8-19.877 26.133-39.5 19-10.259-7.511-14.759-17.511-13.5-30a45.255 45.255 0 0 1 7.5-8.5 76.634 76.634 0 0 1 23-7 81.645 81.645 0 0 0-18 1c-8.069 1.687-16.069 3.353-24 5 5.888-2.445 10.888-6.112 15-11a206.929 206.929 0 0 1 24-3 7905.659 7905.659 0 0 1-18-6 3.943 3.943 0 0 1-1-2c2.113-11.578.78-22.744-4-33.5a9.201 9.201 0 0 1 2-4.5c3.49-2.412 7.157-4.245 11-5.5z"/><path style="opacity:1" fill="#01a041" d="M238.5 256.5c7.88-1.089 15.047.578 21.5 5 .85 1.51 1.683 3.01 2.5 4.5-5.788 10.328-7.455 21.328-5 33-5.876 4.518-12.543 7.185-20 8a538.472 538.472 0 0 0 24 3 96.032 96.032 0 0 0 13 10 1795.886 1795.886 0 0 1-34-5.5l-1 1a75.154 75.154 0 0 1 21 8.5c6.975 7.443 7.808 15.61 2.5 24.5-9.337 15.525-22.17 19.358-38.5 11.5-4.318-3.315-7.485-7.481-9.5-12.5a267.515 267.515 0 0 1-7-27c-2.601-6.709-6.768-12.209-12.5-16.5 5.781-2.781 10.281-6.947 13.5-12.5a183.144 183.144 0 0 1 16-27c4.227-3.354 8.727-6.021 13.5-8z"/><path style="opacity:1" fill="#095123" d="M301.5 270.5c-.667 0-1 .333-1 1-1.312-.645-2.312-1.645-3-3 1.845-.895 3.178-.228 4 2z"/><path style="opacity:1" fill="#575857" d="M773.5 252.5c.166 6.675 0 13.342-.5 20-.191 2.208-.691 4.208-1.5 6 .259-8.847.926-17.514 2-26z"/><path style="opacity:1" fill="#034019" d="M597.5 275.5a57.15 57.15 0 0 1 15 1c-.124.607-.457.94-1 1l-14-2z"/><path style="opacity:1" fill="#797979" d="M788.5 251.5a647.183 647.183 0 0 1-2 42c-.363-14.205.304-28.205 2-42z"/><path style="opacity:1" fill="#018e3a" d="M337.5 278.5a13.116 13.116 0 0 1 7 1c1.333 1.12 1.833 2.453 1.5 4l-1-1a100.241 100.241 0 0 1-12.5 2.5 13.92 13.92 0 0 1-3-4 53.956 53.956 0 0 1 8-2.5z"/><path style="opacity:1" fill="#028f3a" d="M462.5 278.5c4.981.589 9.981 1.089 15 1.5a48.407 48.407 0 0 1-5.5 5.5 66.711 66.711 0 0 0-12.5-3 514.367 514.367 0 0 0 3-4z"/><path style="opacity:1" fill="#019d40" d="M390.5 282.5c.656 1.122.989 2.455 1 4a633.81 633.81 0 0 1-8.5 63 54.066 54.066 0 0 0-14.5-13c13.036-6.74 17.202-17.074 12.5-31a40.256 40.256 0 0 0-8.5-12.5c7.688-.904 13.688-4.404 18-10.5z"/><path style="opacity:1" fill="#019b3f" d="M414.5 283.5a110.962 110.962 0 0 0 10 6.5 21.341 21.341 0 0 0 9 1.5c-3.701 5.584-6.868 11.584-9.5 18-1.983 12.702 2.85 21.702 14.5 27-5.892 3.385-11.058 7.718-15.5 13a2234.41 2234.41 0 0 1-8.5-66z"/><path style="opacity:1" fill="#878589" d="M13.5 301.5c1.687 12.459 2.353 25.125 2 38a402.377 402.377 0 0 1-2-38z"/><path style="opacity:1" fill="#727073" d="M786.5 295.5a846.552 846.552 0 0 1-3 61 820.818 820.818 0 0 1 3-61z"/><path style="opacity:1" fill="#01a041" d="M611.5 328.5c14.731-1.078 24.565 5.255 29.5 19a90.455 90.455 0 0 1 0 19c-3.096 11.64-3.262 23.307-.5 35-6.509-.373-12.509 1.127-18 4.5a163.787 163.787 0 0 1-28 20c-12.307 3.083-22.141-.417-29.5-10.5-2.663-9.272-3.33-18.606-2-28 4.226-8.53 11.059-11.697 20.5-9.5a48.222 48.222 0 0 1 16 7c1 .667 2 .667 3 0a294.145 294.145 0 0 0-26-15c2.57-2.459 5.57-3.459 9-3a191.495 191.495 0 0 1 19.5 11.5c.667-.667.667-1.333 0-2-5.511-5.524-9.344-12.024-11.5-19.5a131.934 131.934 0 0 0 8.5-22.5 71.934 71.934 0 0 1 9.5-6zM209.5 382.5a116.726 116.726 0 0 1 18.5-5c8.016 1.014 13.349 5.348 16 13a172.707 172.707 0 0 1-3 26c-12.664 13.32-26.497 14.486-41.5 3.5-7.367-7.681-16.033-13.348-26-17a32.462 32.462 0 0 0-8-.5c2.723-12.345 2.556-24.678-.5-37-1.516-9.457-.183-18.457 4-27 9.357-10.716 20.19-12.549 32.5-5.5a365.978 365.978 0 0 1 11 24.5c-1.891 7.505-5.725 13.838-11.5 19-.688.832-.521 1.498.5 2a324.533 324.533 0 0 1 21-12 36.16 36.16 0 0 1 7 4l-13 6.5a59.425 59.425 0 0 0-7 5.5z"/><path style="opacity:1" fill="#019e40" d="M272.5 332.5c.235-.597.735-.93 1.5-1l12.5 5.5c1.366 2.997 2.033 6.164 2 9.5h-16c1.097-4.821 1.097-9.487 0-14z"/><path style="opacity:1" fill="#06481d" d="M352.5 332.5c-2.885-.306-5.552.027-8 1-1.923-.295-3.59-1.128-5-2.5 4.503-.111 8.836.389 13 1.5z"/><path style="opacity:1" fill="#04461d" d="M448.5 331.5a112.97 112.97 0 0 1 15 .5c-.744 1.039-1.744 1.539-3 1.5l-12-2z"/><path style="opacity:1" fill="#019b3f" d="M529.5 331.5h3a46.755 46.755 0 0 0 1 13c-5.169 1.63-10.335 1.964-15.5 1a12.494 12.494 0 0 1 0-7 105.498 105.498 0 0 1 11.5-7z"/><path style="opacity:1" fill="#02a040" d="M269.5 353.5c6.378-.205 12.711.128 19 1v11a566.213 566.213 0 0 0-23-4 22.581 22.581 0 0 0 4-8z"/><path style="opacity:1" fill="#019e40" d="M519.5 364.5c-1.869-2.135-2.536-4.802-2-8 .453-.958 1.119-1.792 2-2.5a145.053 145.053 0 0 1 17-.5c.262 3.191 1.595 5.858 4 8a447.221 447.221 0 0 0-21 3z"/><path style="opacity:1" fill="#019b3f" d="M445.5 358.5c.997-.03 1.664.47 2 1.5-1.713 8.358-.38 16.192 4 23.5a295.859 295.859 0 0 1-12.5 17 139.568 139.568 0 0 1 1-27c.769-5.424 2.603-10.424 5.5-15z"/><path style="opacity:1" fill="#00481e" d="M517.5 356.5c-.536 3.198.131 5.865 2 8-.709.904-1.709 1.237-3 1-.31-3.213.023-6.213 1-9z"/><path style="opacity:1" fill="#02953c" d="M358.5 357.5c4.063 4.126 6.563 9.126 7.5 15a93.915 93.915 0 0 1 .5 28 103.031 103.031 0 0 0-13-16.5 103.382 103.382 0 0 0 4.5-8.5c.499-5.991.666-11.991.5-18z"/><path style="opacity:1" fill="#7b797c" d="M15.5 344.5a731.105 731.105 0 0 1 3 57 734.902 734.902 0 0 1-3-57z"/><path style="opacity:1" fill="#018d39" d="M248.5 370.5a21.127 21.127 0 0 1 9 1 54.912 54.912 0 0 1-7 7 19585.27 19585.27 0 0 0-11-6.5c3.195-.181 6.195-.681 9-1.5z"/><path style="opacity:1" fill="#01953c" d="M548.5 371.5c5.89-1.324 11.89-1.157 18 .5a95.234 95.234 0 0 0-11 5.5 2968.346 2968.346 0 0 0-7-6z"/><path style="opacity:1" fill="#053316" d="M209.5 382.5c-1.753 1.723-3.753 3.223-6 4.5-1.259.982-2.592 1.315-4 1 2.76-2.938 6.094-4.772 10-5.5z"/><path style="opacity:1" fill="#878588" d="M783.5 373.5a615.507 615.507 0 0 1-2 38c-.166-10.006 0-20.006.5-30 .183-2.865.683-5.531 1.5-8z"/><path style="opacity:1" fill="#019a3e" d="M494.5 389.5a321.306 321.306 0 0 0 5 18 167.112 167.112 0 0 0-14-4 4.934 4.934 0 0 1 .5-3 130.837 130.837 0 0 0 8.5-11z"/><path style="opacity:1" fill="#01953c" d="M308.5 389.5c5.161 2.996 9.161 7.162 12 12.5a137.712 137.712 0 0 0-14 6.5c-.541-2.023-.041-4.023 1.5-6 .499-4.321.666-8.654.5-13z"/><path style="opacity:1" fill="#039a3e" d="M344.5 391.5c4.156 1.145 7.156 3.811 9 8a60.713 60.713 0 0 1-19 .5c-1.76-.965-2.094-2.132-1-3.5a53.873 53.873 0 0 0 11-5zM457.5 391.5a156.369 156.369 0 0 1 16 5.5l-2 3a241.113 241.113 0 0 1-20-.5c2.009-2.696 4.009-5.363 6-8z"/><path style="opacity:1" fill="#082b13" d="M522.5 421.5c1.855-.228 2.688.439 2.5 2-.995-.566-1.828-1.233-2.5-2z"/><path style="opacity:1" fill="#033b18" d="M283.5 428.5c.342.838 1.008 1.172 2 1-3.117 1.948-6.451 2.614-10 2a29.042 29.042 0 0 1 8-3z"/><path style="opacity:1" fill="#909090" d="M18.5 414.5c1.723 12.456 2.39 25.123 2 38a496.15 496.15 0 0 1-2-38z"/><path style="opacity:1" fill="#838284" d="M781.5 421.5a823.41 823.41 0 0 1-3 53c.433-16 .933-32 1.5-48 .198-1.882.698-3.548 1.5-5z"/><path style="opacity:1" fill="#8d8e8c" d="M20.5 457.5a707.347 707.347 0 0 1 3 56 710.862 710.862 0 0 1-3-56z"/><path style="opacity:1" fill="#919390" d="M778.5 489.5c.03 10.529-.637 20.862-2 31-.341-10.55.325-20.883 2-31z"/><path style="opacity:1" fill="#9a9268" d="M761.5 517.5a128.507 128.507 0 0 1-.5 16c-.278.916-.778 1.582-1.5 2 .537-6.15 1.204-12.15 2-18z"/><path style="opacity:1" fill="#a3a4a2" d="M23.5 521.5c1.497 6.105 2.163 12.438 2 19-1.497-6.105-2.163-12.438-2-19z"/><path style="opacity:1" fill="#777876" d="M776.5 522.5c-.147 12.361-1.814 24.361-5 36a14736.43 14736.43 0 0 1 5-36z"/><path style="opacity:1" fill="#4c4a3d" d="M758.5 545.5a60.931 60.931 0 0 1-.5 11c-.278.916-.778 1.582-1.5 2 .384-4.51 1.051-8.843 2-13z"/><path style="opacity:1" fill="#69676a" d="M27.5 557.5c.722.418 1.222 1.084 1.5 2 .498 3.317.665 6.65.5 10-.982-3.816-1.65-7.816-2-12z"/><path style="opacity:1" fill="#787663" d="M756.5 560.5c.285 3.329-.382 6.329-2 9 .176-3.227.843-6.227 2-9z"/><path style="opacity:1" fill="#47474a" d="M29.5 569.5c.617.111 1.117.444 1.5 1 .548 3.67 1.048 7.337 1.5 11-1.63-3.726-2.63-7.726-3-12z"/><path style="opacity:1" fill="#6f6d70" d="M769.5 573.5c-.302 2.873-.969 5.539-2 8-.389-3.053.277-5.72 2-8z"/><path style="opacity:1" fill="#4e4e4e" d="M767.5 581.5c-.37 4.274-1.37 8.274-3 12 .452-3.663.952-7.33 1.5-11 .383-.556.883-.889 1.5-1z"/><path style="opacity:1" fill="#747573" d="M32.5 584.5c1.663 1.938 2.33 4.272 2 7-1.112-2.099-1.779-4.433-2-7z"/><path style="opacity:1" fill="#686968" d="M764.5 595.5c-.358 3.189-1.025 6.189-2 9-.432-3.377.235-6.377 2-9z"/><path style="opacity:1" fill="#575856" d="M35.5 597.5c1.29.558 2.123 1.558 2.5 3a52.078 52.078 0 0 1 1.5 10 1707.062 1707.062 0 0 1-4-13z"/><path style="opacity:1" fill="#969895" d="M761.5 607.5c.241 2.398-.426 4.398-2 6 .095-2.286.762-4.286 2-6z"/><path style="opacity:1" fill="#868588" d="M39.5 610.5c.617.111 1.117.444 1.5 1a168.167 168.167 0 0 1 1.5 8c-1.617-2.689-2.617-5.689-3-9z"/><path style="opacity:1" fill="#6e6d70" d="M757.5 620.5c-.582 4.032-1.916 7.699-4 11a56.433 56.433 0 0 1 2.5-10c.383-.556.883-.889 1.5-1z"/><path style="opacity:1" fill="#958c66" d="M61.5 630.5c1.713 1.135 2.38 2.802 2 5-1.038-1.43-1.704-3.097-2-5z"/><path style="opacity:1" fill="#03a242" d="M441.5 872.5a460.926 460.926 0 0 0-29 2 556.794 556.794 0 0 1-54-2c-4.464-1.144-9.13-1.81-14-2a151.243 151.243 0 0 0-17-3c-3.612-2.115-7.612-3.115-12-3a138.812 138.812 0 0 0-22-6c-2.348-1.597-5.014-2.597-8-3-46.646-15.776-87.979-40.609-124-74.5a272.254 272.254 0 0 1 38-23c150.993-71.648 298.326-64.981 442 20-49.217 46.21-106.883 76.21-173 90a378.591 378.591 0 0 1-27 4.5z"/><path style="opacity:1" fill="#959496" d="M715.5 711.5c.073 1.527-.594 2.527-2 3-.073-1.527.594-2.527 2-3z"/><path style="opacity:1" fill="#979895" d="M91.5 722.5c1.406.473 2.073 1.473 2 3-1.406-.473-2.073-1.473-2-3z"/><path style="opacity:1" fill="#9f9da1" d="M96.5 729.5c1.406.473 2.073 1.473 2 3-1.406-.473-2.073-1.473-2-3z"/><path style="opacity:1" fill="#969896" d="M700.5 733.5c.073 1.527-.594 2.527-2 3-.073-1.527.594-2.527 2-3z"/><path style="opacity:1" fill="#757477" d="M141.5 783.5c2.249.58 3.915 1.913 5 4-2.249-.58-3.915-1.913-5-4z"/><path style="opacity:1" fill="#9fa09f" d="M601.5 829.5c-.473 1.406-1.473 2.073-3 2 .473-1.406 1.473-2.073 3-2z"/><path style="opacity:1" fill="#a2a1a3" d="M593.5 834.5c-.473 1.406-1.473 2.073-3 2 .473-1.406 1.473-2.073 3-2z"/><path style="opacity:1" fill="#5d7266" d="M285.5 855.5c2.986.403 5.652 1.403 8 3-3.136-.103-5.802-1.103-8-3z"/><path style="opacity:1" fill="#65796d" d="M315.5 864.5c4.388-.115 8.388.885 12 3-4.233-.473-8.233-1.473-12-3z"/><path style="opacity:1" fill="#606864" d="M344.5 870.5c4.87.19 9.536.856 14 2-4.953.377-9.619-.289-14-2z"/><path style="opacity:1" fill="#333b37" d="M441.5 872.5c-1.452.802-3.118 1.302-5 1.5-7.993.5-15.993.666-24 .5a460.926 460.926 0 0 1 29-2z"/><path style="opacity:1" fill="#5b5c5b" d="M509.5 873.5a107.496 107.496 0 0 1-14 4c4.12-2.703 8.786-4.036 14-4z"/><path style="opacity:1" fill="#706f71" d="M304.5 877.5c4.07-.068 7.737.932 11 3-3.946-.382-7.612-1.382-11-3z"/><path style="opacity:1" fill="#777678" d="M494.5 877.5c-3.341 1.736-7.008 2.736-11 3 3.341-1.736 7.008-2.736 11-3z"/><path style="opacity:1" fill="#4d4c4e" d="M481.5 880.5c-4.064 1.638-8.397 2.638-13 3 .111-.617.444-1.117 1-1.5l12-1.5z"/><path style="opacity:1" fill="#666767" d="M468.5 883.5a68.688 68.688 0 0 1-9 2c.111-.617.444-1.117 1-1.5a32.462 32.462 0 0 1 8-.5z"/></svg>