<svg xmlns="http://www.w3.org/2000/svg" width="571" height="646" style="shape-rendering:geometricPrecision;text-rendering:geometricPrecision;image-rendering:optimizeQuality;fill-rule:evenodd;clip-rule:evenodd"><path style="opacity:.57" fill="#030004" d="M-.5-.5h571v13a424125.4 424125.4 0 0 1-14.5 379c-9.481 86.507-48.981 155.341-118.5 206.5-42.083 28.305-88.417 44.139-139 47.5h-27C162.058 634.884 83.892 579.884 37 480.5c-12.523-29.091-20.19-59.424-23-91C9.233 263.672 4.4 138.005-.5 12.5v-13z"/><path style="opacity:1" fill="#1e1b1d" d="M.5.5h569c-4.571 125.66-9.071 251.327-13.5 377-7.444 101.788-54.278 179.288-140.5 232.5-77.122 41.24-156.122 45.24-237 12C98.344 583.562 46.51 521.396 23 435.5a314.672 314.672 0 0 1-8-47A132000.749 132000.749 0 0 1 .5.5z"/><path style="opacity:1" fill="#8b7d0e" d="M562.5 11.5v-4H7.5v4c-.951-1.419-1.284-3.085-1-5h557c.284 1.915-.049 3.581-1 5z"/><path style="opacity:1" fill="#fde500" d="M562.5 11.5a199353.287 199353.287 0 0 1-13.5 377 310.56 310.56 0 0 1-15 70 249.192 249.192 0 0 1-10.5 23.5c-7.604-.195-14.938-1.862-22-5a90.455 90.455 0 0 0-19 0c-21.63 8.664-43.296 8.664-65 0-11.533-1.75-22.533-.083-33 5-17.164 3.211-33.83 1.544-50-5-11.55-1.75-22.55-.083-33 5-17.168 3.22-33.835 1.554-50-5-11.486-1.435-22.486.231-33 5-15.74 3.013-31.073 1.68-46-4-12.806-2.914-25.14-1.581-37 4-15.72 2.915-31.054 1.581-46-4a66.024 66.024 0 0 0-21-1 615.568 615.568 0 0 1-19 5.5 7.93 7.93 0 0 1-3.5-1c-13.172-29.686-21.505-60.686-25-93-4.429-125.674-8.929-251.34-13.5-377v-4h555v4z"/><path style="opacity:1" fill="#201e1f" d="M231.5 50.5c36.154-3.019 71.154 1.815 105 14.5 11.679 5.426 21.846 12.926 30.5 22.5 11.377 18.534 9.544 35.701-5.5 51.5-10.665 5.587-20.165 12.753-28.5 21.5-9.722 11.53-11.722 24.196-6 38 5.868 6.904 13.368 10.238 22.5 10 40.684-3.398 68.184-24.064 82.5-62 6.524-21.425.024-37.258-19.5-47.5 9.28-8.62 17.113-18.454 23.5-29.5 17.335-16.94 35.002-17.274 53-1 10.891 15.119 18.557 31.785 23 50 14.996 55.524 15.329 111.19 1 167a266.613 266.613 0 0 1-15.5 51c-1.189.929-2.522 1.262-4 1a678.752 678.752 0 0 0 6.5-47c6.127-58.609 1.46-116.275-14-173-3.492-14.153-9.992-26.653-19.5-37.5-6.365-4.565-12.699-4.565-19 0a148.8 148.8 0 0 1-13 16c18.739 13.984 25.906 32.484 21.5 55.5-5.18 17.174-15.013 31.007-29.5 41.5-29.458 20.374-62.124 30.04-98 29-11.844-1.026-22.51-5.026-32-12-8.95-7.483-10.784-16.316-5.5-26.5a837.5 837.5 0 0 1 33-36c9.236-11.041 13.236-23.707 12-38-2.869-9.54-8.703-16.707-17.5-21.5-20.763-11.74-43.096-17.407-67-17-69.11-1.944-135.443 10.556-199 37.5.061-2.092 1.061-3.592 3-4.5 42.474-23.937 87.807-39.937 136-48 13.477-1.85 26.811-3.683 40-5.5z"/><path style="opacity:1" fill="#018dcf" d="M225.5 54.5c17.67-.167 35.336 0 53 .5 26.438 1.353 50.771 9.02 73 23 8.802 5.797 14.969 13.63 18.5 23.5 2.618 14.815-1.882 26.982-13.5 36.5-13.68 6.679-24.513 16.512-32.5 29.5-4.548 11.049-4.548 22.049 0 33 6.545 8.189 15.045 11.855 25.5 11 45.985-3.209 75.152-26.876 87.5-71 3.427-17.796-2.407-31.463-17.5-41-1.021-.502-1.188-1.168-.5-2a99.839 99.839 0 0 0 18-23c17.302-19.857 34.635-19.857 52 0 14.168 24.502 23.168 50.836 27 79a305.75 305.75 0 0 1 4 66 540.958 540.958 0 0 1-19 99 771.092 771.092 0 0 0 4.5-84.5 421.487 421.487 0 0 0-2.5-52.5 791.327 791.327 0 0 0-14-67c-3.855-14.216-10.688-26.716-20.5-37.5-10.367-5.7-19.534-4.2-27.5 4.5a98.851 98.851 0 0 1-11.5 15c26.529 19.815 31.362 44.148 14.5 73-8.238 10.871-18.072 20.037-29.5 27.5-17.712 9.425-36.378 16.092-56 20-18.674 3.496-36.674 1.496-54-6-6.901-4.049-11.234-9.882-13-17.5.664-4.509 2.497-8.509 5.5-12 14.162-13.486 26.828-28.153 38-44 11.196-24.746 4.696-43.246-19.5-55.5-19.829-9.833-40.829-14.833-63-15a424.028 424.028 0 0 0-102 8 2211.921 2211.921 0 0 0-58 14c42.762-17.94 87.095-29.44 133-34.5z"/><path style="opacity:1" fill="#231f1c" d="M451.5 80.5c6.266-1.383 9.933.95 11 7-1.941 8.142-6.274 9.809-13 5-3.065-4.67-2.398-8.67 2-12z"/><path style="opacity:1" fill="#0682bf" d="M453.5 83.5c2.481-.177 4.314.823 5.5 3 .339 3.987-1.494 5.487-5.5 4.5-2.586-2.494-2.586-4.994 0-7.5z"/><path style="opacity:1" fill="#20181b" d="M223.5 176.5h-21v14c6.813.991 13.813 1.325 21 1v259c-4.863-.319-9.53.014-14 1-.904.709-1.237 1.709-1 3h35v-62h-9v-16h9c.268-1.599-.066-2.932-1-4a25.14 25.14 0 0 1-4.5-4c-.5-6.658-.666-13.325-.5-20h9c.495-36.332.828-72.665 1-109h18a5432.763 5432.763 0 0 1 1 109h9c.166 6.675 0 13.342-.5 20-2.582 1.728-4.082 4.061-4.5 7h15c.505-8.839 4.838-15.006 13-18.5 13.052-2.648 21.718 2.185 26 14.5v5c1.915.284 3.581-.049 5-1 .713-12.213 7.213-18.546 19.5-19 12.287.454 18.787 6.787 19.5 19 1.419.951 3.085 1.284 5 1v-5c3.967-12.1 12.301-16.933 25-14.5 8.623 3.129 13.29 9.295 14 18.5 2.787.977 5.787 1.31 9 1 .328-10.514-.006-20.847-1-31-3.611-4.264-4.945-9.264-4-15h6c1.166-14.649 2.333-29.316 3.5-44 4.178-1.899 8.678-2.565 13.5-2a3204.914 3204.914 0 0 0 5 44v3c4.202.317 8.202-.017 12-1 1.47-14.667 2.97-29.334 4.5-44 4.178-1.899 8.678-2.565 13.5-2a612.889 612.889 0 0 1 4 44v3h6a40.914 40.914 0 0 1-.5 9c-1.669 1.346-2.836 3.013-3.5 5a2971.316 2971.316 0 0 0-1 109h24v12h-436v-15h-15v-261h21v-14h-21v-15h171v15z"/><path style="opacity:1" fill="#e10019" d="M56.5 165.5h163v7h-163v-7z"/><path style="opacity:1" fill="#9f081a" d="M56.5 165.5a6725.953 6725.953 0 0 1 164-1v9a6725.953 6725.953 0 0 1-164-1h163v-7h-163z"/><path style="opacity:1" fill="#780d1b" d="M199.5 177.5h-122v13c-.986-4.47-1.32-9.137-1-14 41.17-.332 82.17.001 123 1z"/><path style="opacity:1" fill="#8b7d0e" d="M223.5 176.5c-6.479.991-13.146 1.324-20 1v13h-1v-14h21z"/><path style="opacity:1" fill="#e1001a" d="M199.5 177.5v13h-122v-13h122z"/><path style="opacity:1" fill="#86790f" d="M202.5 190.5h22v261h-15c4.47-.986 9.137-1.319 14-1v-259c-7.187.325-14.187-.009-21-1z"/><path style="opacity:1" fill="#e1001a" d="M56.5 194.5h164v19h-164v-19z"/><path style="opacity:1" fill="#780d1b" d="M56.5 194.5v19h164a6808.314 6808.314 0 0 1-165 1c-.324-6.854.01-13.521 1-20z"/><path style="opacity:1" fill="#af061a" d="M56.5 218.5a6725.953 6725.953 0 0 1 164-1c.324 6.854-.009 13.521-1 20v-19h-163z"/><path style="opacity:1" fill="#e10019" d="M56.5 218.5h163v19h-163v-19z"/><path style="opacity:1" fill="#19171a" d="M266.5 228.5h61v9h-61v-9z"/><path style="opacity:1" fill="#ac061a" d="M323.5 234.5c-8.474-1.332-17.307-1.998-26.5-2-9.193.002-18.026.668-26.5 2-.904-.709-1.237-1.709-1-3h55c.237 1.291-.096 2.291-1 3z"/><path style="opacity:1" fill="#e10019" d="M323.5 234.5h-53c8.474-1.332 17.307-1.998 26.5-2 9.193.002 18.026.668 26.5 2z"/><path style="opacity:1" fill="#5a5114" d="M266.5 228.5v9h61a961.42 961.42 0 0 1-62 1c-.313-3.542.021-6.875 1-10z"/><path style="opacity:1" fill="#e1001a" d="M56.5 241.5h164v19h-164v-19z"/><path style="opacity:1" fill="#e0001a" d="M263.5 351.5c2.448.973 5.115 1.306 8 1v14a32.6 32.6 0 0 1-4.5 4 40.914 40.914 0 0 0-.5 9h158v-33h52v111h23v5h-428v-11h134v6h41v-68h-9v-10h9c1.111-5.349-.389-9.682-4.5-13a98.432 98.432 0 0 1-.5-14h9v-13c.563-31.997.896-63.997 1-96h10a7521.543 7521.543 0 0 0 2 108z"/><path style="opacity:1" fill="#1a171b" d="M297.5 249.5h93v10h-93v-10z"/><path style="opacity:1" fill="#b8081b" d="M301.5 252.5h85v4h-85v-4z"/><path style="opacity:1" fill="#e10019" d="M219.5 264.5v19h-163v-19h163z"/><path style="opacity:1" fill="#af061a" d="M219.5 264.5c.991 6.479 1.324 13.146 1 20a6725.953 6725.953 0 0 1-164-1h163v-19z"/><path style="opacity:1" fill="#780d1b" d="M220.5 288.5h-164v19c-.99-6.479-1.324-13.146-1-20 55.169-.332 110.169.001 165 1z"/><path style="opacity:1" fill="#e1001a" d="M220.5 288.5v19h-164v-19h164z"/><path style="opacity:1" fill="#d8011a" d="M429.5 287.5h7v6h-7v-6z"/><path style="opacity:1" fill="#d7011a" d="M471.5 293.5c-2.888.51-5.221-.156-7-2v-4h7v6z"/><path style="opacity:1" fill="#720e1b" d="M464.5 291.5c1.779 1.844 4.112 2.51 7 2-2.448.973-5.115 1.306-8 1-.237-1.291.096-2.291 1-3z"/><path style="opacity:1" fill="#dd001a" d="M428.5 297.5h9a445.65 445.65 0 0 0 4 33h-16a394.42 394.42 0 0 0 3-33zM475.5 330.5h-15v-3l3-30h9a397.363 397.363 0 0 0 3 33z"/><path style="opacity:1" fill="#e1001a" d="M56.5 311.5h164v19h-164v-19z"/><path style="opacity:1" fill="#564e15" d="M444.5 328.5c3.673 1.818 7.673 2.484 12 2-3.798.983-7.798 1.317-12 1v-3z"/><path style="opacity:1" fill="#52111b" d="M460.5 327.5v3h15c-5.14.988-10.474 1.321-16 1-.268-1.599.066-2.932 1-4z"/><path style="opacity:1" fill="#5a5114" d="M478.5 328.5a20.514 20.514 0 0 0 6 3h-6v-3z"/><path style="opacity:1" fill="#e1001a" d="M56.5 334.5h164v19h-164v-19zM420.5 334.5h60c.541 3.152-.459 5.652-3 7.5-18 .667-36 .667-54 0-2.541-1.848-3.541-4.348-3-7.5z"/><path style="opacity:1" fill="#807411" d="M420.5 345.5c.994 10.153 1.328 20.486 1 31-3.213.31-6.213-.023-9-1h8v-30z"/><path style="opacity:1" fill="#8c7e0e" d="M480.5 345.5v108c7.852-.325 15.518.008 23 1h-24c-.332-36.504.002-72.837 1-109z"/><path style="opacity:1" fill="#6d0f1b" d="M250.5 339.5v13h-9c2.448-.973 5.115-1.306 8-1-.317-4.202.017-8.202 1-12z"/><path style="opacity:1" fill="#7b0c1b" d="M263.5 351.5h9c.321 5.195-.013 10.195-1 15v-14c-2.885.306-5.552-.027-8-1z"/><path style="opacity:1" fill="#780d1b" d="M56.5 334.5v19h164a6808.314 6808.314 0 0 1-165 1c-.324-6.854.01-13.521 1-20z"/><path style="opacity:1" fill="#e10019" d="M56.5 358.5h163v18h-163v-18z"/><path style="opacity:1" fill="#dd001a" d="M321.5 375.5h-32v-3c5.481-13.732 14.481-16.565 27-8.5 2.906 3.311 4.573 7.144 5 11.5zM364.5 372.5v3h-32c3.32-13.991 11.653-18.491 25-13.5 3.801 2.614 6.134 6.114 7 10.5zM408.5 372.5v3h-32c3.188-13.929 11.522-18.429 25-13.5 3.736 2.659 6.069 6.159 7 10.5z"/><path style="opacity:1" fill="#4d111b" d="M289.5 372.5v3h32c-10.821.995-21.821 1.328-33 1-.268-1.599.066-2.932 1-4z"/><path style="opacity:1" fill="#605616" d="M324.5 371.5c.934 1.068 1.268 2.401 1 4h4c-1.419.951-3.085 1.284-5 1v-5z"/><path style="opacity:1" fill="#4d111b" d="M364.5 372.5c.934 1.068 1.268 2.401 1 4-11.179.328-22.179-.005-33-1h32v-3z"/><path style="opacity:1" fill="#615815" d="M373.5 371.5v5c-1.915.284-3.581-.049-5-1h4c-.268-1.599.066-2.932 1-4z"/><path style="opacity:1" fill="#4b111b" d="M408.5 372.5c.934 1.068 1.268 2.401 1 4-11.179.328-22.179-.005-33-1h32v-3z"/><path style="opacity:1" fill="#af061a" d="M56.5 358.5a6725.953 6725.953 0 0 1 164-1v20a6725.953 6725.953 0 0 1-164-1h163v-18h-163z"/><path style="opacity:1" fill="#780d1b" d="M220.5 381.5h-164v19c-.99-6.479-1.324-13.146-1-20 55.169-.332 110.169.001 165 1z"/><path style="opacity:1" fill="#e1001a" d="M220.5 381.5v19h-164v-19h164z"/><path style="opacity:1" fill="#1c181b" d="M409.5 457.5v-65c-11.179-.328-22.179.005-33 1v64h-11v-65c-11.179-.328-22.179.005-33 1v64h-11v-64c-10.821-.995-21.821-1.328-33-1v65h-22v-68h158v68h-15z"/><path style="opacity:1" fill="#86790f" d="M242.5 372.5c.934 1.068 1.268 2.401 1 4h-9v16h9v62h-35c-.237-1.291.096-2.291 1-3 10.616 1.977 21.616 2.644 33 2v-60h-9v-18h9v-3z"/><path style="opacity:1" fill="#fee700" d="M284.5 393.5v60h-14v-60h14z"/><path style="opacity:1" fill="#bba909" d="M284.5 393.5a931.31 931.31 0 0 1 1 61c-5.195.321-10.195-.013-15-1h14v-60z"/><path style="opacity:1" fill="#700e1b" d="M321.5 393.5h-32c.331 21.507-.003 42.84-1 64v-65c11.179-.328 22.179.005 33 1z"/><path style="opacity:1" fill="#8c7e0e" d="M325.5 393.5v60h3v-60a931.31 931.31 0 0 1 1 61h-5a931.31 931.31 0 0 1 1-61z"/><path style="opacity:1" fill="#fee700" d="M325.5 393.5h3v60h-3v-60z"/><path style="opacity:1" fill="#700e1b" d="M332.5 393.5c10.821-.995 21.821-1.328 33-1v65a1024.542 1024.542 0 0 1-1-64h-32z"/><path style="opacity:1" fill="#f3dc01" d="M368.5 393.5h4v60h-4v-60z"/><path style="opacity:1" fill="#877a0f" d="M368.5 393.5c1.419-.951 3.085-1.284 5-1v62c-1.915.284-3.581-.049-5-1h4v-60h-4z"/><path style="opacity:1" fill="#700e1b" d="M376.5 393.5c10.821-.995 21.821-1.328 33-1v65a1024.542 1024.542 0 0 1-1-64h-32z"/><path style="opacity:1" fill="#f8e101" d="M412.5 393.5h8v60h-8v-60z"/><path style="opacity:1" fill="#85780f" d="M412.5 393.5c2.787-.977 5.787-1.31 9-1v62c-3.213.31-6.213-.023-9-1h8v-60h-8z"/><path style="opacity:1" fill="#e1001a" d="M56.5 404.5h164v19h-164v-19z"/><path style="opacity:1" fill="#780d1b" d="M56.5 404.5v19h164a6808.314 6808.314 0 0 1-165 1c-.324-6.854.01-13.521 1-20z"/><path style="opacity:1" fill="#af061a" d="M56.5 428.5a6725.953 6725.953 0 0 1 164-1c.324 6.854-.009 13.521-1 20v-19h-163z"/><path style="opacity:1" fill="#e10019" d="M56.5 428.5h163v19h-163v-19z"/><path style="opacity:1" fill="#740e1b" d="M205.5 451.5h-134v11h428v-5c.961 1.765 1.295 3.765 1 6h-430v-13c45.17-.332 90.17.001 135 1z"/><path style="opacity:1" fill="#018bcd" d="M67.5 480.5c6.675-.166 13.342 0 20 .5 20.986 8.635 41.986 8.635 63 0 11.932-1.602 23.432-.102 34.5 4.5a84.3 84.3 0 0 0 26.5 1.5 205.318 205.318 0 0 0 22-6 90.455 90.455 0 0 1 19 0c21.02 8.599 42.02 8.599 63 0 7-.667 14-.667 21 0 20.681 8.633 41.347 8.633 62 0 7-.667 14-.667 21 0 20.619 8.524 41.286 8.524 62 0 7-.667 14-.667 21 0a436.644 436.644 0 0 0 19 6.5c-1.125 3.281-2.958 5.948-5.5 8-16.897-6.751-33.73-6.584-50.5.5-16.169 3.079-31.835 1.412-47-5a100.2 100.2 0 0 0-20 0c-19.55 8.187-39.217 8.521-59 1a83.602 83.602 0 0 0-24-1c-19.55 8.187-39.217 8.521-59 1-9-2-18-2-27 0-19.771 7.592-39.437 7.259-59-1-12.49-1.776-24.49-.11-36 5-15.882 3.183-31.216 1.516-46-5-7-.667-14-.667-21 0a179.625 179.625 0 0 1-15 4c-2.134-2.699-3.134-5.533-3-8.5 6.297-1.432 12.297-3.432 18-6z"/><path style="opacity:1" fill="#f5de02" d="M70.5 493.5c11.757-.082 23.09 2.085 34 6.5 8.667.667 17.333.667 26 0a355.78 355.78 0 0 1 29.5-6.5 92.995 92.995 0 0 1 27.5 6.5c8.667.667 17.333.667 26 0a294.03 294.03 0 0 1 30-6.5 76.555 76.555 0 0 1 23 5.5c18.138 3.222 35.804 1.555 53-5a49.226 49.226 0 0 1 14 0c22.969 8.643 45.969 8.643 69 0a49.226 49.226 0 0 1 14 0c21.201 8.254 42.535 8.588 64 1 12.241-2.943 23.908-1.443 35 4.5-1.537 3.102-3.537 5.768-6 8-8.814-2.764-17.814-3.597-27-2.5-14.403 6.16-29.403 8.16-45 6a101.62 101.62 0 0 0-29-6.5 64.164 64.164 0 0 0-24 5.5 133.408 133.408 0 0 1-30 1 101.62 101.62 0 0 0-29-6.5 79.559 79.559 0 0 0-25 5.5c-16.526 3.219-32.526 1.553-48-5-11.488-1.474-22.488.193-33 5-17.188 3.281-33.855 1.614-50-5-6-.667-12-.667-18 0-14.451 6.006-29.451 8.006-45 6a443.328 443.328 0 0 0-23-6c-5-.667-10-.667-15 0-8.098 4.684-12.098 2.517-12-6.5a7793.51 7793.51 0 0 0 14-5z"/><path style="opacity:1" fill="#018ccf" d="M67.5 508.5c12.206-1.311 23.873.522 35 5.5 16.496 3.042 32.496 1.375 48-5a100.2 100.2 0 0 1 20 0c20.957 8.64 41.957 8.64 63 0a100.2 100.2 0 0 1 20 0c20.963 8.663 41.963 8.663 63 0a90.455 90.455 0 0 1 19 0c21.339 8.635 42.673 8.635 64 0 6-.667 12-.667 18 0 21.675 8.634 43.342 8.634 65 0 8.901-1.192 17.567-.359 26 2.5-1.707 3.364-4.04 6.03-7 8-10.719-2.086-21.052-.919-31 3.5-16.642 3.923-32.975 2.923-49-3a62.433 62.433 0 0 0-13-1.5 532.931 532.931 0 0 1-40.5 7c-11.006.229-21.506-1.937-31.5-6.5a90.455 90.455 0 0 0-19 0 275.458 275.458 0 0 0-18 5c-15.054 2.857-29.721 1.524-44-4-12.806-2.914-25.14-1.581-37 4-16.846 3.208-33.18 1.542-49-5-11.862-1.781-23.196-.114-34 5-11.014 1.901-22.014 1.901-33 0-11.018-5.236-22.518-6.736-34.5-4.5a19.272 19.272 0 0 1-5.5-7.5c1.421-1.623 3.088-2.79 5-3.5z"/><path style="opacity:1" fill="#f6df02" d="M71.5 521.5a84.9 84.9 0 0 1 13 .5 122.878 122.878 0 0 0 34.5 7.5 82.238 82.238 0 0 0 14.5-1.5 110.184 110.184 0 0 1 27.5-6.5c10.791 2.481 21.624 4.981 32.5 7.5 13.507 1.36 26.507-.64 39-6 7.326-1.941 14.66-1.941 22 0 13.774 6.424 28.108 8.09 43 5a222.972 222.972 0 0 1 28.5-6.5 118.4 118.4 0 0 1 26.5 6.5c15.763 2.559 31.097.892 46-5a81.824 81.824 0 0 1 11.5-1.5 136.372 136.372 0 0 1 25.5 6.5 87.089 87.089 0 0 0 24 1 190.938 190.938 0 0 0 26-7 42.479 42.479 0 0 1 13 0 4.457 4.457 0 0 1 2 1.5 75.78 75.78 0 0 1-6 8.5c-9.104.109-17.771 2.109-26 6-17.515 3.24-34.515 1.574-51-5-12.552-1.356-24.552.644-36 6-16.226 2.155-31.893.155-47-6a72.464 72.464 0 0 0-17 0 408.602 408.602 0 0 1-19 6c-9 .667-18 .667-27 0a104.067 104.067 0 0 0-28.5-6.5l-7.5.5c-21.227 8.227-42.561 8.56-64 1a59.353 59.353 0 0 0-19-1c-15.119 6.109-30.785 8.109-47 6a164.672 164.672 0 0 0-30-7.5 119.645 119.645 0 0 1-6-8.5c.916-.278 1.582-.778 2-1.5z"/><path style="opacity:1" fill="#018ccf" d="M79.5 537.5c.774-.647 1.774-.98 3-1a969.465 969.465 0 0 1 24 6.5c8 .667 16 .667 24 0a119.598 119.598 0 0 1 29.5-6.5l8.5.5c22.005 8.666 44.005 8.666 66 0 6-.667 12-.667 18 0 21.339 8.666 42.672 8.666 64 0 6-.667 12-.667 18 0 21.675 8.666 43.341 8.666 65 0a90.455 90.455 0 0 1 19 0c21.32 8.666 42.654 8.666 64 0a16.242 16.242 0 0 1 8 0 78.988 78.988 0 0 1-10 11c-20.785 7.63-41.451 7.296-62-1-11.862-1.781-23.196-.114-34 5-16.855 3.25-33.188 1.583-49-5a90.455 90.455 0 0 0-19 0c-21.636 8.641-43.302 8.641-65 0a72.464 72.464 0 0 0-17 0c-22.005 8.607-44.005 8.607-66 0a72.464 72.464 0 0 0-17 0c-20.562 8.147-41.229 8.481-62 1a147.255 147.255 0 0 1-10-10.5z"/><path style="opacity:1" fill="#fde500" d="M150.5 550.5c7.008-.166 14.008 0 21 .5 20.617 8.555 41.284 8.555 62 0a100.2 100.2 0 0 1 20 0c20.945 8.532 41.945 8.532 63 0a100.2 100.2 0 0 1 20 0c20.928 8.534 41.928 8.534 63 0a100.2 100.2 0 0 1 20 0c18.656 8.016 37.489 8.516 56.5 1.5l.5 1c-51.726 55.103-115.559 83.103-191.5 84-76.037-.823-139.87-28.823-191.5-84 19.159 6.158 38.159 5.158 57-3z"/></svg>