<svg xmlns="http://www.w3.org/2000/svg" width="771" height="761" style="shape-rendering:geometricPrecision;text-rendering:geometricPrecision;image-rendering:optimizeQuality;fill-rule:evenodd;clip-rule:evenodd"><path style="opacity:1" fill="#070202" d="M1.5-.5h769v5c-1.333.667-1.333 1.333 0 2v3c-.904.709-1.237 1.709-1 3-1.25.077-2.083.744-2.5 2a967.431 967.431 0 0 0-2 34 28.04 28.04 0 0 1-1.5 5c.98 6.488 1.314 13.154 1 20a8120.75 8120.75 0 0 1-2 13 164.643 164.643 0 0 0-1.5 30c-.87.608-1.37 1.441-1.5 2.5a70.243 70.243 0 0 0 1 7.5c-1.66 7.311-1.993 14.644-1 22a246.266 246.266 0 0 1-3 22c-.441 4.162.226 7.495 2 10-.951-2.545-1.951-2.545-3 0 .21 3.982.21 7.982 0 12 .14 1.53.807 2.53 2 3v3c-.802 1.452-1.302 3.118-1.5 5a2166.306 2166.306 0 0 0-3.5 72c-1.428 7.12-2.094 14.453-2 22a1221.784 1221.784 0 0 0-2 45c-1.225.652-1.892 1.819-2 3.5a79.847 79.847 0 0 0 0 22.5c-1.496 6.105-2.163 12.438-2 19v9a5338.989 5338.989 0 0 0-4 46c.295 2.235-.039 4.235-1 6-2.131 4.652-3.131 9.652-3 15-2.207 5.691-3.541 11.691-4 18v1a19.552 19.552 0 0 0-4 3.5 76.26 76.26 0 0 0 0 7.5l-3 2c1.112.765 1.779 1.765 2 3-2.843 4.867-4.509 10.2-5 16 .237 1.291-.096 2.291-1 3-3.026 3.733-4.692 8.066-5 13v1a16.332 16.332 0 0 0-4 2c-.515 3.243-1.848 6.076-4 8.5 1.323.816 1.989 1.983 2 3.5-.897 1.098-1.73 1.098-2.5 0a246.689 246.689 0 0 1-9 19 17.758 17.758 0 0 0-1.5 7c-1.604.787-2.271 2.12-2 4-.763 1.868-1.763 3.535-3 5-.996-.086-1.829.248-2.5 1-.318 1.561-1.151 2.728-2.5 3.5l1 1-5 4c.837 1.011 1.17 2.178 1 3.5-1.406.473-2.073 1.473-2 3-2.825.978-4.158 2.978-4 6v1c-2 0-3 1-3 3a514.367 514.367 0 0 0-4 3 296.36 296.36 0 0 1-18 23 11.637 11.637 0 0 0-2 5c0 .667-.333 1-1 1a203.899 203.899 0 0 0-24 24 81845.151 81845.151 0 0 1-27 24h-4c.381 2.442-.286 3.109-2 2a16.332 16.332 0 0 0-2 4c-1.904.238-3.238 1.238-4 3-1.679-.215-2.679.452-3 2-4.843 1.918-9.177 4.584-13 8-7.5 3.176-14.5 7.176-21 12-.342.838-1.008 1.172-2 1-3.159-.019-5.826 1.148-8 3.5-2.31.497-4.643.663-7 .5.067 1.459-.266 2.792-1 4-.342.838-1.008 1.172-2 1-2.741.207-5.074 1.207-7 3-2.741.207-5.074 1.207-7 3-2.741.207-5.074 1.207-7 3-2.053-.098-3.72.569-5 2-2.398-.241-4.398.426-6 2a130.775 130.775 0 0 0-11 2.5c-.556.383-.889.883-1 1.5h-1c-9.33 1.46-18.33 3.794-27 7-2.107.968-4.441 1.302-7 1-8.319.201-16.319 1.535-24 4a89.482 89.482 0 0 1-21 2h-41c-6.447-1.436-13.114-2.103-20-2-4.419-1.472-9.086-2.138-14-2-5.025-2.004-10.358-3.004-16-3a826.338 826.338 0 0 1-62-19c-.558-1.29-1.558-2.123-3-2.5-7.032-2.853-14.032-5.686-21-8.5-2.508-2.424-5.508-4.09-9-5-.992.172-1.658-.162-2-1-.787-1.604-2.12-2.271-4-2-1.533-1.745-3.533-2.745-6-3-2.129-2.45-4.796-4.117-8-5-1.836-2.088-4.169-3.421-7-4-.473-1.406-1.473-2.073-3-2-.473-1.406-1.473-2.073-3-2a32.728 32.728 0 0 0-11-8c-.762-1.762-2.096-2.762-4-3a24.187 24.187 0 0 0-9-7c-1.411-2.414-3.411-4.081-6-5-1.365-2.36-3.365-4.027-6-5-1.365-2.36-3.365-4.027-6-5 0-1.333-.667-2-2-2-2.731-3.734-6.064-6.734-10-9v-1c-1-3-3-5-6-6a43.842 43.842 0 0 0-4.5-7c-.671-.752-1.504-1.086-2.5-1-.238-1.904-1.238-3.238-3-4-1.646-3.31-3.98-5.977-7-8a24.187 24.187 0 0 0-7-9c.073-1.527-.594-2.527-2-3 0-2-1-3-3-3v-1c-.054-2.132-1.054-3.465-3-4 .073-1.527-.594-2.527-2-3a298.393 298.393 0 0 1-8-14.5c-.63-1.31-1.63-2.144-3-2.5a608.518 608.518 0 0 0-16-29c-.16-1.653-.826-2.986-2-4a714.269 714.269 0 0 1-23-63c-.934-1.068-1.268-2.401-1-4a112.16 112.16 0 0 0-4-21.5c1.632-2.87.965-5.036-2-6.5-.38-7.956-1.714-15.623-4-23-.78-15.355-1.78-30.688-3-46-.027-5.551-.694-10.884-2-16a40.282 40.282 0 0 1 1-12 51.55 51.55 0 0 1-2-15 968.278 968.278 0 0 0-3-42 6.846 6.846 0 0 1 1-4 5076.92 5076.92 0 0 1-9-116v-6a480.112 480.112 0 0 0-2-25 2253.878 2253.878 0 0 0-6-86 6989.534 6989.534 0 0 1-4-68z"/><path style="opacity:1" fill="#e64625" d="M386.5 12.5v68c7.362-.135 14.696.198 22 1 2.461 1.031 5.127 1.698 8 2h1c1.28 1.431 2.947 2.098 5 2 1.542.8 3.208 1.134 5 1 1.342 1.293 3.009 2.126 5 2.5.752.67 1.086 1.504 1 2.5-5.833 11.67-7.999 24.003-6.5 37 3.407 9.915 10.24 15.582 20.5 17 5.232.71 10.565 1.377 16 2 .509 6.48-1.824 11.647-7 15.5a55.824 55.824 0 0 1-16 1.5 626.058 626.058 0 0 0 12.5 73c.854 3.092 2.354 5.759 4.5 8 .453.958 1.119 1.792 2 2.5 2.539.796 4.872.629 7-.5 5.924-4.613 9.924-10.613 12-18 1-1.333 2-1.333 3 0 9.295 18.922 4.295 32.756-15 41.5a924.342 924.342 0 0 1 6 24 67.627 67.627 0 0 0 19-2.5c2.053.098 3.72-.569 5-2 6.829-2.251 13.163-5.251 19-9 1.527.073 2.527-.594 3-2 15.683-11.669 27.85-26.335 36.5-44 8.107-18.49 12.607-37.823 13.5-58-12.77 2.799-23.27-.868-31.5-11-8.271-10.78-8.604-21.78-1-33a59.622 59.622 0 0 0 6.5-5c1.653-.16 2.986-.826 4-2 2.053.098 3.72-.569 5-2 1.599.268 2.932-.066 4-1 3.54-.253 6.873-.919 10-2 9.241-.11 18.241-1.11 27-3 6.25.316 12.25-.35 18-2h7c2.652.09 4.985-.576 7-2a241.037 241.037 0 0 0 19-4c2.398.241 4.398-.426 6-2 24.142-7.235 45.808-18.902 65-35 1.946 4.896 2.613 10.23 2 16-3.194 18.547-12.194 33.714-27 45.5a307.485 307.485 0 0 1-19 14 377 377 0 0 1-49 21c8.258-.044 16.258-1.211 24-3.5 3.329.285 6.329-.382 9-2 3.281.08 6.281-.587 9-2 3.262-.475 6.262-1.475 9-3a18.453 18.453 0 0 0 6-.5c.556-.383.889-.883 1-1.5 1.653-.16 2.986-.826 4-2 8.888-2.049 16.888-5.883 24-11.5a18.453 18.453 0 0 1 6-.5c.58 31.917-14.087 53.417-44 64.5-15.426 4.901-31.093 8.067-47 9.5 8.192 2.371 16.692 3.371 25.5 3 6.738.186 13.238-.481 19.5-2h2c4.264.156 8.264-.511 12-2a111.075 111.075 0 0 0 16-5c2.991.334 5.324-.666 7-3 .992.172 1.658-.162 2-1 1.478-.262 2.811.071 4 1a23.832 23.832 0 0 1 1 9c-.981 22.985-12.648 37.319-35 43-2.51.427-4.843 1.093-7 2a306.865 306.865 0 0 1-58 1l-4 1a17.886 17.886 0 0 0 6 3c1.43 1.037 3.097 1.704 5 2 3.581 1.307 7.247 2.641 11 4 1.802.958 3.802 1.625 6 2a27.13 27.13 0 0 0 10 2c1.602 1.574 3.602 2.241 6 2h1c3.767 1.295 7.767 1.961 12 2 9.674 2.547 19.34 2.547 29 0 1.915.284 3.581-.049 5-1h5v6c-2.475 14.131-10.142 24.298-23 30.5a12.93 12.93 0 0 1-5 .5 168.081 168.081 0 0 1-35 0 360.893 360.893 0 0 1-36-10c-1.014-1.174-2.347-1.84-4-2a1297.02 1297.02 0 0 0-15-4.5c3.552 3.273 7.552 5.773 12 7.5.473 1.406 1.473 2.073 3 2a64.322 64.322 0 0 0 9 6c.473 1.406 1.473 2.073 3 2 1.807 2.076 4.141 3.409 7 4 .473 1.406 1.473 2.073 3 2 4.124 3.781 8.791 6.781 14 9 .473 1.406 1.473 2.073 3 2 4.516 3.427 9.516 6.093 15 8 1.014 1.174 2.347 1.84 4 2 2.436 1.371 5.103 2.371 8 3 2.952 1.91 6.286 2.91 10 3h1c2.311 1.568 4.978 2.402 8 2.5 5.323.499 10.656.666 16 .5-3.25 16.754-13.25 27.254-30 31.5-15.459 2.591-30.459.924-45-5a180.646 180.646 0 0 1-41-24 1061.798 1061.798 0 0 1-29-25.5c3.182 6.519 7.515 12.186 13 17 .238 1.904 1.238 3.238 3 4a310.436 310.436 0 0 0 20 22c3.063 4.066 6.729 7.399 11 10l4 4c1.739 2.743 4.073 4.743 7 6 1 1.667 2.333 3 4 4 1.085 2.087 2.751 3.42 5 4a16.635 16.635 0 0 0 6 5c1.085 2.087 2.751 3.42 5 4a6.547 6.547 0 0 0 3 3c.473 1.406 1.473 2.073 3 2a25.14 25.14 0 0 0 4 4.5 168.061 168.061 0 0 0 21 12.5c.473 1.406 1.473 2.073 3 2a83.135 83.135 0 0 1 15 8.5c-6.215 4.971-13.215 8.305-21 10-17.044 3.412-33.377 1.412-49-6a226.261 226.261 0 0 1-37-26 1900.678 1900.678 0 0 1-62-65.5c-2.896-4.405-6.396-8.405-10.5-12 2.472 5.572 5.972 10.572 10.5 15a4.934 4.934 0 0 0 .5 3 97.62 97.62 0 0 1 7.5 10c-.073 1.527.594 2.527 2 3a449.386 449.386 0 0 0 31 39c.919 2.589 2.586 4.589 5 6a111.897 111.897 0 0 0 9 11c2 2.667 4.333 5 7 7 4.333 5 9 9.667 14 14 2.069 3.073 4.736 5.406 8 7 .333 1 1 1.667 2 2 1.085 2.087 2.751 3.42 5 4 2.069 3.073 4.736 5.406 8 7 .762 1.762 2.096 2.762 4 3 .762 1.762 2.096 2.762 4 3 1.079 2.043 2.746 3.376 5 4 .473 1.406 1.473 2.073 3 2a19.359 19.359 0 0 1 4 4.5c-1.163 1.855-2.83 3.189-5 4-11.271 2.497-22.605 2.997-34 1.5-2.015-1.424-4.348-2.09-7-2-15.921-5.43-30.255-13.597-43-24.5-30.829-30.145-58.662-62.645-83.5-97.5a7.248 7.248 0 0 0-2.5-2 71.254 71.254 0 0 1-2 4 1515.681 1515.681 0 0 0 1-75h-141a1190.252 1190.252 0 0 1 69-1v-147c-6.286.552-12.286-.448-18-3l-1 2.5c3.719 15.278 4.886 30.778 3.5 46.5a428.27 428.27 0 0 1-19 34c-3.957 5.47-9.124 9.137-15.5 11a72.032 72.032 0 0 1-11-1 30.137 30.137 0 0 1-6-3.5 39.806 39.806 0 0 0-7-8c-.949-.617-1.782-.451-2.5.5-5.593 6.84-7.26 14.507-5 23 1.451 1.964 3.284 3.297 5.5 4 1.159 1.75 2.826 2.75 5 3 5.232.71 10.565 1.377 16 2a722.558 722.558 0 0 1-29 35 455.036 455.036 0 0 1-15-1c-16.089-3.088-30.422-9.922-43-20.5-26.041-25.594-39.375-56.76-40-93.5l14-2c19.192-6.385 26.359-19.385 21.5-39-5.315-6.155-11.815-10.488-19.5-13-7.219-3.149-14.885-4.482-23-4a96.254 96.254 0 0 1-19-1c-9.409-2.248-19.075-3.582-29-4h-3c-3.057-1.595-6.39-2.762-10-3.5a92.856 92.856 0 0 1-15-2.5c-6.428-.481-12.428-2.147-18-5-1.403-1.431-3.07-2.598-5-3.5a8.43 8.43 0 0 0-4-.5c-15.416-6.125-28.916-15.125-40.5-27-1.878 15.125.955 29.125 8.5 42 .238 1.904 1.238 3.238 3 4 .628 2.162 1.961 3.828 4 5 1.667 3.667 4.333 6.333 8 8 .333 1 1 1.667 2 2 1.085 2.087 2.751 3.42 5 4a54.17 54.17 0 0 0 8 5c1.085 2.087 2.751 3.42 5 4 .473 1.406 1.473 2.073 3 2 .342.838 1.008 1.172 2 1 1.159 1.75 2.826 2.75 5 3 1.681 1.508 3.681 2.508 6 3 2.39 1.52 5.057 2.52 8 3 .787 1.604 2.12 2.271 4 2 1.291-.237 2.291.096 3 1 3.295 2.33 6.628 4.664 10 7-10.69-.834-21.024-2.834-31-6-2.015-1.424-4.348-2.09-7-2a4359.61 4359.61 0 0 0-11-2.5 771.657 771.657 0 0 0-32-13.5c-1.504 16.815 3.163 31.482 14 44a6.544 6.544 0 0 0 3 3 16.626 16.626 0 0 0 6 5c.473 1.406 1.473 2.073 3 2 .342.838 1.008 1.172 2 1 .473 1.406 1.473 2.073 3 2 1.43 1.037 3.097 1.704 5 2 1.014 1.174 2.347 1.84 4 2h1c3.16 2.5 6.827 3.833 11 4 2.671 1.618 5.671 2.285 9 2h1c3.855 2.535 8.188 3.535 13 3 1.419.951 3.085 1.284 5 1 1.719.522 3.052 1.522 4 3-20.777 3.41-41.11 2.076-61-4-2.014-1.424-4.348-2.09-7-2a5144.596 5144.596 0 0 0-14-4 77.921 77.921 0 0 0 2.5 23c1.201 4.344 3.034 8.344 5.5 12 1.688 3.688 4.355 6.355 8 8 .473 1.406 1.473 2.073 3 2 .342.838 1.008 1.172 2 1 1.676 2.334 4.009 3.334 7 3 1.014 1.174 2.347 1.84 4 2 2.719 1.413 5.719 2.08 9 2 .418.722 1.084 1.222 2 1.5 3.986.499 7.986.666 12 .5 16.003-.167 32.003 0 48 .5a160.272 160.272 0 0 1-15 8 276.06 276.06 0 0 1-43 10 161.607 161.607 0 0 1-37-1.5c-.105 5.244.895 10.244 3 15-.073 1.527.594 2.527 2 3 .98 3.964 2.98 7.297 6 10 .473 1.406 1.473 2.073 3 2 .473 1.406 1.473 2.073 3 2 .473 1.406 1.473 2.073 3 2 1.014 1.174 2.347 1.84 4 2 1.526 1.63 3.526 2.463 6 2.5l12 .5c8.621.213 16.954-.787 25-3 4.07.068 7.737-.932 11-3 1.599.268 2.932-.066 4-1 4.147.374 7.814-.626 11-3a31.686 31.686 0 0 1 6-2h7c-24.237 19.793-51.237 34.96-81 45.5a905.445 905.445 0 0 1-23 2.5c1.046 5.159 3.046 9.826 6 14 .238 1.904 1.238 3.238 3 4 0 .667.333 1 1 1 1.085 2.087 2.751 3.42 5 4 .473 1.406 1.473 2.073 3 2 2.588 2.125 5.588 3.458 9 4 .418.722 1.084 1.222 2 1.5 8.864 2.148 17.531 1.982 26-.5 4.174.166 8.174-.5 12-2 2.567-.221 4.901-.888 7-2a53.968 53.968 0 0 1 9-4c1.88.271 3.213-.396 4-2a436.456 436.456 0 0 0 20-12c1.527.073 2.527-.594 3-2 .342-.838 1.008-1.172 2-1 2.249-.58 3.915-1.913 5-4a160.621 160.621 0 0 1 13-11c1.898-.596 3.565-.596 5 0-25.317 31.487-54.317 58.987-87 82.5a220.737 220.737 0 0 1-31 15c.744 1.039 1.744 1.539 3 1.5.473 1.406 1.473 2.073 3 2 .473 1.406 1.473 2.073 3 2 .342.838 1.008 1.172 2 1 1.602 1.574 3.602 2.241 6 2 6.54 3.107 13.54 4.44 21 4a84.902 84.902 0 0 0 13-.5c1.558-.21 2.891-.71 4-1.5a155.147 155.147 0 0 0 22-9c1.653-.16 2.986-.826 4-2a180.386 180.386 0 0 1 19-13c1.527.073 2.527-.594 3-2a1848.06 1848.06 0 0 0 36.5-36 430.04 430.04 0 0 0 31-37c.671-.752 1.504-1.086 2.5-1 .992-.172 1.658.162 2 1-25.712 38.9-55.379 74.733-89 107.5a925.842 925.842 0 0 1-32 25.5c-.886.825-1.219 1.825-1 3a20.69 20.69 0 0 1 5 1c2.671 1.618 5.671 2.285 9 2 3.651.665 7.485.999 11.5 1 6.36.129 12.527-.538 18.5-2 4.532-.605 8.532-2.272 12-5 7.904-3.069 15.237-7.069 22-12 1.527.073 2.527-.594 3-2l6-5c1.527.073 2.527-.594 3-2a746.212 746.212 0 0 0 39.5-40 4307.184 4307.184 0 0 1 47.5-61h1c-.268 1.599.066 2.932 1 4a139.589 139.589 0 0 0 5 28c-14.881 21.734-31.881 41.901-51 60.5-9.78 8.557-20.78 15.057-33 19.5v3h4c3.71 1.636 7.71 2.302 12 2 5.14.988 10.474 1.321 16 1 5.81.99 11.81 1.323 18 1-.268 1.599.066 2.932 1 4 1.8 8.424 5.134 16.091 10 23 1.079 2.043 2.746 3.376 5 4 .762 1.762 2.096 2.762 4 3 .473 1.406 1.473 2.073 3 2 1.068.934 2.401 1.268 4 1-2.639-21.439 1.861-41.106 13.5-59a77.145 77.145 0 0 1 12.5-13 364.09 364.09 0 0 1 22 46c-11.011-1.394-18.511 3.272-22.5 14-.823 4.238-.156 8.238 2 12 1.432 1.939 3.265 3.272 5.5 4 2.405 1.268 5.072 1.935 8 2-1.878 23.073-9.378 44.073-22.5 63-15.8 17.288-33.633 19.621-53.5 7a4.933 4.933 0 0 0-2.5 1c-1.479 8.081.188 15.414 5 22 1.129 1.641 2.629 2.641 4.5 3 1.552 2.612 3.886 3.945 7 4 .418.722 1.084 1.222 2 1.5 4.333.667 8.667.667 13 0a86.647 86.647 0 0 0 19-9c11.274-10.42 19.941-22.587 26-36.5h2c-7.306 39.302-30.306 62.969-69 71 .762 1.762 2.096 2.762 4 3 2.602 2.31 5.602 4.143 9 5.5 9.021 3.338 18.354 4.338 28 3a49.076 49.076 0 0 0 15-6c9.496-9.161 16.33-19.994 20.5-32.5a149.215 149.215 0 0 0 6.5-39c.617-.111 1.117-.444 1.5-1 .5 7.326.666 14.659.5 22-1.904 16.658-6.404 32.658-13.5 48a16.242 16.242 0 0 0 0 8c.377 1.442 1.21 2.442 2.5 3 .473 1.406 1.473 2.073 3 2a340.978 340.978 0 0 0 21 14c.342.838 1.008 1.172 2 1 .25 20.002.583 40.002 1 60-47.922-.124-93.922-9.624-138-28.5a539.749 539.749 0 0 1-76-45C96.327 610.174 51.493 527.007 40 425.5a2371.876 2371.876 0 0 1-6.5-101 343.73 343.73 0 0 0-2-24c-6.46-95.987-12.793-191.987-19-288h374z"/><path style="opacity:1" fill="#fefdfa" d="M386.5 12.5h371a79657.79 79657.79 0 0 0-21 361v4c-1.375 6.789-2.042 13.789-2 21v3a740.673 740.673 0 0 1-8 63c-2.789 6.289-4.455 12.956-5 20-1.972 2.584-2.972 5.584-3 9a619.153 619.153 0 0 1-28 69 1270.27 1270.27 0 0 0-25 41 15265.176 15265.176 0 0 1-18 23 55.546 55.546 0 0 0-12 13c-4.639 4.974-9.305 9.974-14 15-.667 0-1 .333-1 1-4.271 2.601-7.937 5.934-11 10a46.493 46.493 0 0 0-9 7c-1.21.432-2.21 1.099-3 2a7716.014 7716.014 0 0 0-20 15l-6 3c-5.174 1.849-9.507 4.849-13 9l-4 1c-1.527-.073-2.527.594-3 2-3.546 1.219-6.546 3.219-9 6-4.184.092-7.517 1.759-10 5-3.131-.592-5.464.408-7 3h-2c-1.88-.271-3.213.396-4 2-.709.904-1.709 1.237-3 1-1.88-.271-3.213.396-4 2h-2c-3.254.294-5.921 1.627-8 4-2.741.207-5.074 1.207-7 3h-3c-2.728-.329-5.062.337-7 2-.342.838-1.008 1.172-2 1-1.983-.343-3.317.324-4 2a41.541 41.541 0 0 1-8 1c-3.662.223-6.995 1.223-10 3-1.419.951-3.085 1.284-5 1-17.3 2.539-34.3 5.206-51 8h-17c-.417-19.998-.75-39.998-1-60 3.214-.94 6.214-2.44 9-4.5a151.21 151.21 0 0 1 17-12c2.86-3.681 3.693-7.848 2.5-12.5-7.32-12.997-11.487-26.997-12.5-42a12.93 12.93 0 0 1 .5-5c.383.556.883.889 1.5 1 3.27 15.453 9.103 29.786 17.5 43 10.124 10.93 22.624 15.097 37.5 12.5 9.679-1.177 18.013-5.01 25-11.5.543-.06.876-.393 1-1a9.86 9.86 0 0 0-6-1c-4.002-2.11-8.335-3.443-13-4-1.014-1.174-2.347-1.84-4-2-1.653-.16-2.986-.826-4-2-.473-1.406-1.473-2.073-3-2a10.134 10.134 0 0 1-4-1.5c-9.933-7.6-18.1-16.766-24.5-27.5a233.518 233.518 0 0 0-7-16c-1.326-4.284-1.992-8.617-2-13 7.395 16.307 18.228 29.807 32.5 40.5 15.896 7.931 29.729 5.431 41.5-7.5 3.191-6.251 4.357-12.918 3.5-20-1.077-3.472-2.744-3.805-5-1a135.776 135.776 0 0 0-11 5 74.617 74.617 0 0 1-24 0c-3.772-.384-6.772-2.05-9-5-1.085-2.087-2.751-3.42-5-4l-3-4c.073-1.527-.594-2.527-2-3l-4-7c.073-1.527-.594-2.527-2-3-6.946-14.01-11.613-28.844-14-44.5a9.839 9.839 0 0 1 1-4c9.284-.322 14.284-5.155 15-14.5-.722-5.317-3.055-9.65-7-13-1.297-3.658-3.963-5.324-8-5-2.51.446-4.51-.22-6-2a265.784 265.784 0 0 0 11-24c2.889-4.632 5.222-9.632 7-15 .432-1.21 1.099-2.21 2-3 13.262 10.849 21.096 24.849 23.5 42a201.33 201.33 0 0 1 1.5 29c7.085-1.47 12.919-5.137 17.5-11a82.82 82.82 0 0 0 10.5-26.5 261.653 261.653 0 0 0 50-5.5c.543-.06.876-.393 1-1-1.746-2.354-4.079-3.354-7-3-1.653-.16-2.986-.826-4-2-.473-1.406-1.473-2.073-3-2-3.349-.669-6.016-2.336-8-5-1.085-2.087-2.751-3.42-5-4-1.904-.238-3.238-1.238-4-3-1.085-2.087-2.751-3.42-5-4-1-.333-1.667-1-2-2-1.085-2.087-2.751-3.42-5-4-1.333-3.333-3.667-5.667-7-7l-5-6c0-2-1-3-3-3a46.493 46.493 0 0 1-7-9c.073-1.527-.594-2.527-2-3a308.19 308.19 0 0 1-18-24 265.333 265.333 0 0 0 5-26v-1a71.254 71.254 0 0 0 2-4 7.248 7.248 0 0 1 2.5 2c24.838 34.855 52.671 67.355 83.5 97.5 12.745 10.903 27.079 19.07 43 24.5 2.015 1.424 4.348 2.09 7 2 11.395 1.497 22.729.997 34-1.5 2.17-.811 3.837-2.145 5-4a19.359 19.359 0 0 0-4-4.5c-.473-1.406-1.473-2.073-3-2-2.254-.624-3.921-1.957-5-4-.762-1.762-2.096-2.762-4-3s-3.238-1.238-4-3c-2.069-3.073-4.736-5.406-8-7-1.085-2.087-2.751-3.42-5-4-1-.333-1.667-1-2-2-2.069-3.073-4.736-5.406-8-7-5-4.333-9.667-9-14-14-1.333-3.333-3.667-5.667-7-7a111.897 111.897 0 0 1-9-11c-.919-2.589-2.586-4.589-5-6a449.386 449.386 0 0 1-31-39c.073-1.527-.594-2.527-2-3a97.62 97.62 0 0 0-7.5-10 4.934 4.934 0 0 1-.5-3v-3a1900.678 1900.678 0 0 0 62 65.5 226.261 226.261 0 0 0 37 26c15.623 7.412 31.956 9.412 49 6 7.785-1.695 14.785-5.029 21-10a83.135 83.135 0 0 0-15-8.5c-.473-1.406-1.473-2.073-3-2a168.061 168.061 0 0 1-21-12.5 25.14 25.14 0 0 1-4-4.5c-.473-1.406-1.473-2.073-3-2a6.547 6.547 0 0 1-3-3c-1.085-2.087-2.751-3.42-5-4a16.635 16.635 0 0 1-6-5c-1.085-2.087-2.751-3.42-5-4-1.667-1-3-2.333-4-4-1.739-2.743-4.073-4.743-7-6l-4-4c-3.063-4.066-6.729-7.399-11-10a310.436 310.436 0 0 1-20-22c-.238-1.904-1.238-3.238-3-4-5.485-4.814-9.818-10.481-13-17a1061.798 1061.798 0 0 0 29 25.5 180.646 180.646 0 0 0 41 24c14.541 5.924 29.541 7.591 45 5 16.75-4.246 26.75-14.746 30-31.5a388.441 388.441 0 0 1-24-3h-1c-3.005-1.777-6.338-2.777-10-3-2.897-.629-5.564-1.629-8-3-.787-1.604-2.12-2.271-4-2-5.484-1.907-10.484-4.573-15-8-.473-1.406-1.473-2.073-3-2-5.209-2.219-9.876-5.219-14-9-.473-1.406-1.473-2.073-3-2-2.859-.591-5.193-1.924-7-4-.473-1.406-1.473-2.073-3-2a64.322 64.322 0 0 1-9-6c-.473-1.406-1.473-2.073-3-2-4.448-1.727-8.448-4.227-12-7.5a1297.02 1297.02 0 0 1 15 4.5c.787 1.604 2.12 2.271 4 2a360.893 360.893 0 0 0 36 10c6.269 1.48 12.769 2.147 19.5 2l12.5-.5c1.237-.232 2.237-.732 3-1.5a12.93 12.93 0 0 0 5-.5c12.858-6.202 20.525-16.369 23-30.5.968-2.107 1.302-4.441 1-7-2.235-.295-4.235.039-6 1-1.419.951-3.085 1.284-5 1h-29c-.418-.722-1.084-1.222-2-1.5a50.464 50.464 0 0 0-10-.5h-1c-1.602-1.574-3.602-2.241-6-2a27.13 27.13 0 0 1-10-2c-1.49-1.78-3.49-2.446-6-2a4607.278 4607.278 0 0 1-11-4c-1.135-1.713-2.802-2.38-5-2a17.886 17.886 0 0 1-6-3l4-1a306.865 306.865 0 0 0 58-1 18.453 18.453 0 0 0 6-.5c.556-.383.889-.883 1-1.5 22.352-5.681 34.019-20.015 35-43 1.138-2.804 1.305-5.804.5-9-1.62-2.132-3.454-2.465-5.5-1-.342.838-1.008 1.172-2 1-2.518.764-4.851 1.764-7 3a111.075 111.075 0 0 1-16 5c-4.233.039-8.233.705-12 2h-2a749.411 749.411 0 0 1-45-1c15.907-1.433 31.574-4.599 47-9.5 29.913-11.083 44.58-32.583 44-64.5a18.453 18.453 0 0 0-6 .5c-7.112 5.617-15.112 9.451-24 11.5-1.88-.271-3.213.396-4 2-2.51.427-4.843 1.093-7 2-2.738 1.525-5.738 2.525-9 3-3.281-.08-6.281.587-9 2-3.227.176-6.227.843-9 2-7.742 2.289-15.742 3.456-24 3.5a377 377 0 0 0 49-21 307.485 307.485 0 0 0 19-14c14.806-11.786 23.806-26.953 27-45.5 1.317-5.846 1.317-11.846 0-18-1.022.356-1.689 1.022-2 2-19.192 16.098-40.858 27.765-65 35-2.398-.241-4.398.426-6 2a241.037 241.037 0 0 1-19 4c-2.728-.329-5.062.337-7 2h-7c-6.199.152-12.199.818-18 2-8.759 1.89-17.759 2.89-27 3-3.66-.341-6.993.325-10 2-1.068.934-2.401 1.268-4 1-2.053-.098-3.72.569-5 2-1.88-.271-3.213.396-4 2a59.622 59.622 0 0 1-6.5 5c-7.604 11.22-7.271 22.22 1 33 8.23 10.132 18.73 13.799 31.5 11-.893 20.177-5.393 39.51-13.5 58-8.65 17.665-20.817 32.331-36.5 44-1.527-.073-2.527.594-3 2-5.837 3.749-12.171 6.749-19 9-2.053-.098-3.72.569-5 2a67.627 67.627 0 0 1-19 2.5 924.342 924.342 0 0 0-6-24c19.295-8.744 24.295-22.578 15-41.5-1.254-3.81-2.254-3.81-3 0-2.076 7.387-6.076 13.387-12 18-3.285.29-6.285-.377-9-2-2.146-2.241-3.646-4.908-4.5-8a626.058 626.058 0 0 1-12.5-73 55.824 55.824 0 0 0 16-1.5c5.176-3.853 7.509-9.02 7-15.5-4.896-1.946-10.229-2.613-16-2-10.26-1.418-17.093-7.085-20.5-17-1.499-12.997.667-25.33 6.5-37 1.291-1.042 1.291-2.208 0-3.5a20.093 20.093 0 0 0-6-1.5c-1.792.134-3.458-.2-5-1-1.135-1.713-2.802-2.38-5-2h-1c-2.28-1.723-4.947-2.39-8-2a172.314 172.314 0 0 0-22-1v-68z"/><path style="opacity:1" fill="#81252f" d="M757.5 12.5c1.265 1.014 1.931 2.514 2 4.5-.26 2.676-.594 5.343-1 8 .175 1.658.842 2.991 2 4-1.52 2.596-2.353 5.43-2.5 8.5a1626.803 1626.803 0 0 0-2.5 45c3.297-.171 3.631.495 1 2a121.476 121.476 0 0 0-2.5 17 16404.235 16404.235 0 0 1-11.5 179 4.933 4.933 0 0 0 1 2.5 4285.522 4285.522 0 0 1-7 90.5 79657.79 79657.79 0 0 1 21-361z"/><path style="opacity:1" fill="#964534" d="M769.5 12.5a2222.223 2222.223 0 0 1-6 91h-1v-17a8120.75 8120.75 0 0 0 2-13c.314-6.846-.02-13.512-1-20a28.04 28.04 0 0 0 1.5-5 967.431 967.431 0 0 1 2-34c.417-1.256 1.25-1.923 2.5-2z"/><path style="opacity:1" fill="#a0495a" d="M-.5.5v-1h2a6989.534 6989.534 0 0 0 4 68v8a379.458 379.458 0 0 1-2-10.5c.457-.414.79-.914 1-1.5-1.62-21.129-3.286-42.129-5-63z"/><path style="opacity:1" fill="#863744" d="M5.5 67.5a2253.878 2253.878 0 0 1 6 86v9a1612.814 1612.814 0 0 1-6-87v-8z"/><path style="opacity:1" fill="#fefdfa" d="M93.5 102.5c2.553 2.084 5.553 3.417 9 4 5.572 2.853 11.572 4.519 18 5 7.934 3.257 16.268 5.257 25 6h3c9.433 2.061 19.099 3.395 29 4a96.254 96.254 0 0 0 19 1 500.34 500.34 0 0 1 23 4c7.685 2.512 14.185 6.845 19.5 13 4.859 19.615-2.308 32.615-21.5 39a57.15 57.15 0 0 0-15 1c.124.607.457.94 1 1 .625 36.74 13.959 67.906 40 93.5 12.578 10.578 26.911 17.412 43 20.5 4.934 1.883 9.934 2.216 15 1a722.558 722.558 0 0 0 29-35c-4.896-1.946-10.229-2.613-16-2-1.159-1.75-2.826-2.75-5-3-2.216-.703-4.049-2.036-5.5-4-2.26-8.493-.593-16.16 5-23 .718-.951 1.551-1.117 2.5-.5a39.806 39.806 0 0 1 7 8 30.137 30.137 0 0 0 6 3.5c3.544 2.069 7.21 2.402 11 1 6.376-1.863 11.543-5.53 15.5-11a428.27 428.27 0 0 0 19-34c1.386-15.722.219-31.222-3.5-46.5l1-2.5c5.714 2.552 11.714 3.552 18 3v147c-23.173-.331-46.173.002-69 1a1260.363 1260.363 0 0 0-1 71 4307.184 4307.184 0 0 0-47.5 61 746.212 746.212 0 0 1-39.5 40c-1.527-.073-2.527.594-3 2l-6 5c-1.527-.073-2.527.594-3 2-6.763 4.931-14.096 8.931-22 12-4.401.906-8.401 2.572-12 5-5.973 1.462-12.14 2.129-18.5 2-4.015-.001-7.849-.335-11.5-1-2.773-1.157-5.773-1.824-9-2a20.69 20.69 0 0 0-5-1c-.219-1.175.114-2.175 1-3a925.842 925.842 0 0 0 32-25.5c33.621-32.767 63.288-68.6 89-107.5 1.276-.886 1.276-1.886 0-3-1.022.355-1.689 1.022-2 2-.996-.086-1.829.248-2.5 1a430.04 430.04 0 0 1-31 37 1848.06 1848.06 0 0 1-36.5 36c-1.527-.073-2.527.594-3 2a180.386 180.386 0 0 0-19 13c-1.88-.271-3.213.396-4 2a155.147 155.147 0 0 1-22 9 170.342 170.342 0 0 0-17 2c-7.46.44-14.46-.893-21-4-1.602-1.574-3.602-2.241-6-2-.992.172-1.658-.162-2-1-.473-1.406-1.473-2.073-3-2-.473-1.406-1.473-2.073-3-2-1.256.039-2.256-.461-3-1.5a220.737 220.737 0 0 0 31-15c32.683-23.513 61.683-51.013 87-82.5.904-.709 1.237-1.709 1-3-2.589-.039-4.589.961-6 3a160.621 160.621 0 0 0-13 11c-2.249.58-3.915 1.913-5 4-.992-.172-1.658.162-2 1-1.527-.073-2.527.594-3 2a436.456 436.456 0 0 1-20 12c-1.653.16-2.986.826-4 2a53.968 53.968 0 0 0-9 4c-2.728-.329-5.062.337-7 2-3.826 1.5-7.826 2.166-12 2a236.026 236.026 0 0 1-28-1c-3.412-.542-6.412-1.875-9-4-.473-1.406-1.473-2.073-3-2-1.085-2.087-2.751-3.42-5-4-.667 0-1-.333-1-1-.238-1.904-1.238-3.238-3-4-2.954-4.174-4.954-8.841-6-14a905.445 905.445 0 0 0 23-2.5c29.763-10.54 56.763-25.707 81-45.5a9.175 9.175 0 0 0 4.5-2c.432-1.1-.068-1.767-1.5-2-3.667.772-7.001 2.105-10 4a31.686 31.686 0 0 0-6 2c-3.927.426-7.593 1.426-11 3-1.068.934-2.401 1.268-4 1-3.927.426-7.593 1.426-11 3a278.056 278.056 0 0 1-25 2 69.341 69.341 0 0 1-18-2c-1.653-.16-2.986-.826-4-2-.473-1.406-1.473-2.073-3-2-1.527.073-2.527-.594-3-2-.473-1.406-1.473-2.073-3-2-3.02-2.703-5.02-6.036-6-10 .073-1.527-.594-2.527-2-3-2.105-4.756-3.105-9.756-3-15a161.607 161.607 0 0 0 37 1.5 276.06 276.06 0 0 0 43-10 160.272 160.272 0 0 0 15-8c-15.997-.5-31.997-.667-48-.5-4.48-1.021-9.147-1.687-14-2-2.719-1.413-5.719-2.08-9-2-1.653-.16-2.986-.826-4-2-2.149-1.236-4.482-2.236-7-3-.992.172-1.658-.162-2-1-.473-1.406-1.473-2.073-3-2-2.382-3.048-5.048-5.715-8-8-2.466-3.656-4.299-7.656-5.5-12a77.921 77.921 0 0 1-2.5-23c4.651 1.322 9.318 2.655 14 4 2.014 1.424 4.348 2.09 7 2 19.89 6.076 40.223 7.41 61 4 1.603.188 2.937-.312 4-1.5a18.991 18.991 0 0 0-8-1.5c-1.915.284-3.581-.049-5-1-4.075-1.618-8.408-2.618-13-3h-1c-2.671-1.618-5.671-2.285-9-2-3.3-2.142-6.967-3.475-11-4h-1c-.787-1.604-2.12-2.271-4-2-1.903-.296-3.57-.963-5-2-.473-1.406-1.473-2.073-3-2-.992.172-1.658-.162-2-1-.473-1.406-1.473-2.073-3-2a16.626 16.626 0 0 1-6-5c0-2-1-3-3-3-10.837-12.518-15.504-27.185-14-44a771.657 771.657 0 0 1 32 13.5c3.708.838 7.375 1.671 11 2.5 2.015 1.424 4.348 2.09 7 2 9.976 3.166 20.31 5.166 31 6 3.79.492 4.456-.341 2-2.5a90.245 90.245 0 0 0-12-4.5c-.709-.904-1.709-1.237-3-1-1.014-1.174-2.347-1.84-4-2-2.943-.48-5.61-1.48-8-3-1.107-2.469-3.107-3.469-6-3-1.159-1.75-2.826-2.75-5-3-.992.172-1.658-.162-2-1-.473-1.406-1.473-2.073-3-2-1.085-2.087-2.751-3.42-5-4a54.17 54.17 0 0 1-8-5c-1.085-2.087-2.751-3.42-5-4-1-.333-1.667-1-2-2-2.333-3-5-5.667-8-8-2.039-1.172-3.372-2.838-4-5-.238-1.904-1.238-3.238-3-4-7.545-12.875-10.378-26.875-8.5-42 11.584 11.875 25.084 20.875 40.5 27z"/><path style="opacity:1" fill="#f79f53" d="M716.5 89.5c.613-5.77-.054-11.104-2-16 .311-.978.978-1.644 2-2 1.317 6.154 1.317 12.154 0 18z"/><path style="opacity:1" fill="#fef8f4" d="M384.5 115.5c-15.337.167-30.67 0-46-.5-2.912-.275-5.579-1.109-8-2.5.399-8.214 4.732-11.714 13-10.5 10.288 6.764 19.788 5.93 28.5-2.5 2.076-3.393 3.242-7.06 3.5-11-6.126-1.033-11.459.467-16 4.5-2.402.814-4.735.647-7-.5a7.253 7.253 0 0 1 2-2.5c4.919-3.607 10.252-6.274 16-8a50.48 50.48 0 0 1 15-1.5c.328 11.845-.005 23.512-1 35z"/><path style="opacity:1" fill="#fee770" d="M408.5 81.5c3.053-.39 5.72.277 8 2-2.873-.302-5.539-.969-8-2z"/><path style="opacity:1" fill="#ffe17a" d="M417.5 83.5c2.198-.38 3.865.287 5 2-2.053.098-3.72-.569-5-2z"/><path style="opacity:1" fill="#fbbc43" d="M427.5 86.5c2.064.187 4.064.687 6 1.5 1.291 1.292 1.291 2.458 0 3.5.086-.996-.248-1.83-1-2.5-1.991-.374-3.658-1.207-5-2.5z"/><path style="opacity:1" fill="#f34c70" d="M93.5 102.5a8.43 8.43 0 0 1 4 .5c1.93.902 3.597 2.069 5 3.5-3.447-.583-6.447-1.916-9-4z"/><path style="opacity:1" fill="#fcb94c" d="M649.5 108.5c-1.602 1.574-3.602 2.241-6 2 1.602-1.574 3.602-2.241 6-2z"/><path style="opacity:1" fill="#f04058" d="M120.5 111.5a92.856 92.856 0 0 0 15 2.5c3.61.738 6.943 1.905 10 3.5-8.732-.743-17.066-2.743-25-6z"/><path style="opacity:1" fill="#ffe27f" d="M330.5 112.5c2.421 1.391 5.088 2.225 8 2.5 15.33.5 30.663.667 46 .5-15.495 1.161-31.161 1.328-47 .5-3.092.107-5.425-1.059-7-3.5z"/><path style="opacity:1" fill="#f99d37" d="M624.5 114.5c-2.015 1.424-4.348 2.09-7 2 1.938-1.663 4.272-2.329 7-2z"/><path style="opacity:1" fill="#ef2d4e" d="M148.5 117.5c9.925.418 19.591 1.752 29 4-9.901-.605-19.567-1.939-29-4z"/><path style="opacity:1" fill="#fff1aa" d="M610.5 116.5c-5.75 1.65-11.75 2.316-18 2 5.801-1.182 11.801-1.848 18-2z"/><path style="opacity:1" fill="#fdc754" d="M61.5 117.5c1.762.762 2.762 2.096 3 4-1.762-.762-2.762-2.096-3-4z"/><path style="opacity:1" fill="#fefaf6" d="M348.5 201.5c-2.117-2.155-4.784-3.155-8-3-6.357-.024-12.69.31-19 1a21.435 21.435 0 0 0-7 1c.359-1.871 1.359-3.371 3-4.5 11.84-7.59 24.84-10.59 39-9 2.004-2.841 2.504-6.007 1.5-9.5a66.688 66.688 0 0 0-6.5-13c-1.667-3.667-4.333-6.333-8-8-2.676-3.678-6.343-5.844-11-6.5a25.238 25.238 0 0 0-10 0c-2.153.099-3.819.933-5 2.5-8.076 5.086-14.076 12.086-18 21a5.727 5.727 0 0 0-3-1c-11.227-14.66-11.727-29.66-1.5-45 7.982-7.654 17.482-10.154 28.5-7.5 23.918 11.325 37.418 30.158 40.5 56.5 1.153 8.75-.181 17.084-4 25-3.9 2.636-7.734 2.636-11.5 0z"/><path style="opacity:1" fill="#fdcb52" d="M565.5 121.5c-3.127 1.081-6.46 1.747-10 2 3.007-1.675 6.34-2.341 10-2z"/><path style="opacity:1" fill="#5f0e13" d="M762.5 86.5v17c-.416 9.997-.75 19.997-1 30v1c-.989 5.475-1.322 11.142-1 17v2c-.982 3.462-1.315 7.129-1 11-.454 1.759-.454 3.759 0 6 .313 3.542-.021 6.875-1 10-1.774-2.505-2.441-5.838-2-10a246.266 246.266 0 0 0 3-22c-.993-7.356-.66-14.689 1-22a70.243 70.243 0 0 1-1-7.5c.13-1.059.63-1.892 1.5-2.5a164.643 164.643 0 0 1 1.5-30z"/><path style="opacity:1" fill="#f2496c" d="M196.5 122.5c8.115-.482 15.781.851 23 4a500.34 500.34 0 0 0-23-4z"/><path style="opacity:1" fill="#d6886c" d="M762.5 103.5h1c.423.765.757 1.598 1 2.5a721.837 721.837 0 0 1-3 27.5c.25-10.003.584-20.003 1-30z"/><path style="opacity:1" fill="#fff7e5" d="M343.5 123.5h13c.097 5.673-2.57 7.839-8 6.5-2.29-1.777-3.957-3.944-5-6.5z"/><path style="opacity:1" fill="#fff1e3" d="M364.5 123.5a18.453 18.453 0 0 1 6 .5c-3.436 4.892-3.77 9.892-1 15 5.026 2.258 10.359 3.091 16 2.5v5c-8.596.718-16.43-1.282-23.5-6-1.483-3.202-1.817-6.536-1-10l3.5-7z"/><path style="opacity:1" fill="#ffe170" d="M551.5 124.5c-1.28 1.431-2.947 2.098-5 2 1.28-1.431 2.947-2.098 5-2z"/><path style="opacity:1" fill="#fecc59" d="M68.5 126.5c3 2.333 5.667 5 8 8-3.667-1.667-6.333-4.333-8-8z"/><path style="opacity:1" fill="#fed971" d="M546.5 126.5c-1.014 1.174-2.347 1.84-4 2 .787-1.604 2.12-2.271 4-2z"/><path style="opacity:1" fill="#fedf6a" d="M78.5 136.5c2.249.58 3.915 1.913 5 4-2.249-.58-3.915-1.913-5-4z"/><path style="opacity:1" fill="#d4846e" d="M761.5 134.5c.304.65.637 1.317 1 2a605.347 605.347 0 0 1-2 15c-.322-5.858.011-11.525 1-17z"/><path style="opacity:1" fill="#fff094" d="M91.5 145.5c2.249.58 3.915 1.913 5 4-2.249-.58-3.915-1.913-5-4z"/><path style="opacity:1" fill="#fde64f" d="M447.5 145.5c5.771-.613 11.104.054 16 2a777.189 777.189 0 0 1-16-2z"/><path style="opacity:1" fill="#feda55" d="M96.5 149.5c1.527-.073 2.527.594 3 2-1.527.073-2.527-.594-3-2z"/><path style="opacity:1" fill="#ffde7e" d="M343.5 156.5c-3.695-2.297-7.695-4.13-12-5.5-4.793-.651-9.459-.151-14 1.5 1.181-1.567 2.847-2.401 5-2.5a25.238 25.238 0 0 1 10 0c4.657.656 8.324 2.822 11 6.5z"/><path style="opacity:1" fill="#fdd15c" d="M101.5 152.5c2.174.25 3.841 1.25 5 3-2.174-.25-3.841-1.25-5-3z"/><path style="opacity:1" fill="#c56856" d="M760.5 153.5c.707 3.728.374 7.395-1 11-.315-3.871.018-7.538 1-11z"/><path style="opacity:1" fill="#fff0a5" d="M106.5 155.5c2.893-.469 4.893.531 6 3-2.319-.492-4.319-1.492-6-3z"/><path style="opacity:1" fill="#fef7f2" d="M321.5 176.5c3.54-.253 6.873-.919 10-2a55.328 55.328 0 0 1 16-.5c3.357 1.512 5.357 4.012 6 7.5h-19c-5.291-.288-9.957 1.046-14 4-2.009 1.565-4.343 2.565-7 3-2.467.255-4.467 1.255-6 3l-10 2a96.873 96.873 0 0 1-16-1c-2.353-.84-4.353-2.174-6-4-1.382-2.049-3.048-3.715-5-5-7.32-12.666-4.987-22.999 7-31-.965 8.394.535 16.394 4.5 24 1.938 2.606 4.438 4.439 7.5 5.5 4.667.667 9.333.667 14 0a189.459 189.459 0 0 1 18-5.5z"/><path style="opacity:1" fill="#fed16f" d="M343.5 156.5c3.667 1.667 6.333 4.333 8 8-3-2.333-5.667-5-8-8z"/><path style="opacity:1" fill="#fed470" d="M683.5 155.5c-1.014 1.174-2.347 1.84-4 2 .787-1.604 2.12-2.271 4-2z"/><path style="opacity:1" fill="#f7973b" d="M679.5 157.5c-.111.617-.444 1.117-1 1.5a18.453 18.453 0 0 1-6 .5c2.157-.907 4.49-1.573 7-2z"/><path style="opacity:1" fill="#fcd146" d="M120.5 161.5c1.653.16 2.986.826 4 2-1.88.271-3.213-.396-4-2z"/><path style="opacity:1" fill="#f25882" d="M99.5 163.5c2.652-.09 4.985.576 7 2-2.652.09-4.985-.576-7-2z"/><path style="opacity:1" fill="#fdc965" d="M663.5 162.5c-2.719 1.413-5.719 2.08-9 2 2.719-1.413 5.719-2.08 9-2z"/><path style="opacity:1" fill="#ffe689" d="M654.5 164.5c-2.671 1.618-5.671 2.285-9 2 2.773-1.157 5.773-1.824 9-2z"/><path style="opacity:1" fill="#fdd74f" d="M127.5 164.5a90.245 90.245 0 0 1 12 4.5c2.456 2.159 1.79 2.992-2 2.5-3.372-2.336-6.705-4.67-10-7z"/><path style="opacity:1" fill="#f7d8ba" d="M759.5 164.5c1.242 2.111 1.242 4.111 0 6-.454-2.241-.454-4.241 0-6z"/><path style="opacity:1" fill="#6e252b" d="M11.5 153.5a480.112 480.112 0 0 1 2 25h-1a76.565 76.565 0 0 0-2-13 5.577 5.577 0 0 0 1-3v-9z"/><path style="opacity:1" fill="#fed268" d="M296.5 172.5a5.727 5.727 0 0 1 3 1c-1.279 1.215-2.279.882-3-1z"/><path style="opacity:1" fill="#f99cc4" d="M331.5 174.5c-3.127 1.081-6.46 1.747-10 2 3.007-1.675 6.34-2.341 10-2z"/><path style="opacity:1" fill="#feeb8d" d="m217.5 178.5-14 2c-.543-.06-.876-.393-1-1a57.15 57.15 0 0 1 15-1z"/><path style="opacity:1" fill="#b4696f" d="M12.5 178.5h1v13a241.476 241.476 0 0 1-2-11c.363-.683.696-1.35 1-2z"/><path style="opacity:1" fill="#ffe68e" d="M334.5 181.5c-4.401 1.844-9.067 3.177-14 4 4.043-2.954 8.709-4.288 14-4z"/><path style="opacity:1" fill="#906151" d="M758.5 182.5c.111.617.444 1.117 1 1.5a795.113 795.113 0 0 1-2 13.5v-2c-.318-4.532.015-8.866 1-13z"/><path style="opacity:1" fill="#ffe596" d="M270.5 183.5c1.952 1.285 3.618 2.951 5 5-2.644-.644-4.311-2.311-5-5z"/><path style="opacity:1" fill="#fbb448" d="M313.5 188.5c-1.533 1.745-3.533 2.745-6 3 1.533-1.745 3.533-2.745 6-3z"/><path style="opacity:1" fill="#300404" d="M758.5 180.5v2c-.985 4.134-1.318 8.468-1 13-1.193-.47-1.86-1.47-2-3 .21-4.018.21-8.018 0-12 1.049-2.545 2.049-2.545 3 0z"/><path style="opacity:1" fill="#fed769" d="M70.5 191.5c2 0 3 1 3 3a6.544 6.544 0 0 1-3-3z"/><path style="opacity:1" fill="#fef08d" d="M281.5 192.5a96.873 96.873 0 0 0 16 1c-1.973.663-4.139.996-6.5 1-3.477.172-6.644-.494-9.5-2z"/><path style="opacity:1" fill="#ffe57d" d="M340.5 198.5c3.216-.155 5.883.845 8 3-2.897-.629-5.564-1.629-8-3z"/><path style="opacity:1" fill="#fde876" d="M79.5 199.5c1.527-.073 2.527.594 3 2-1.527.073-2.527-.594-3-2z"/><path style="opacity:1" fill="#fcb752" d="M321.5 199.5c-2.213 1.812-4.547 2.145-7 1a21.435 21.435 0 0 1 7-1z"/><path style="opacity:1" fill="#ad5c4d" d="M757.5 198.5c.597.235.93.735 1 1.5a44569.546 44569.546 0 0 1-6 80.5v-5a2166.306 2166.306 0 0 1 3.5-72c.198-1.882.698-3.548 1.5-5z"/><path style="opacity:1" fill="#fddc50" d="M84.5 202.5c1.527-.073 2.527.594 3 2-1.527.073-2.527-.594-3-2z"/><path style="opacity:1" fill="#fdd453" d="M92.5 206.5c1.88-.271 3.213.396 4 2-1.653-.16-2.986-.826-4-2z"/><path style="opacity:1" fill="#ffe27a" d="M97.5 208.5c4.033.525 7.7 1.858 11 4-4.173-.167-7.84-1.5-11-4z"/><path style="opacity:1" fill="#fbaa43" d="M704.5 208.5c-1.676 2.334-4.009 3.334-7 3 2.149-1.236 4.482-2.236 7-3z"/><path style="opacity:1" fill="#ffefa6" d="M706.5 207.5c2.046-1.465 3.88-1.132 5.5 1 .805 3.196.638 6.196-.5 9a23.832 23.832 0 0 0-1-9c-1.189-.929-2.522-1.262-4-1z"/><path style="opacity:1" fill="#ffe77d" d="M108.5 212.5c3.329-.285 6.329.382 9 2-3.329.285-6.329-.382-9-2z"/><path style="opacity:1" fill="#f23c6b" d="M72.5 215.5c2.652-.09 4.986.576 7 2-2.652.09-4.986-.576-7-2z"/><path style="opacity:1" fill="#ffdb64" d="M118.5 214.5c4.592.382 8.925 1.382 13 3-4.812.535-9.145-.465-13-3z"/><path style="opacity:1" fill="#fedb6f" d="M681.5 216.5c-3.736 1.489-7.736 2.156-12 2 3.767-1.295 7.767-1.961 12-2z"/><path style="opacity:1" fill="#ffebab" d="M622.5 217.5a749.411 749.411 0 0 0 45 1c-6.262 1.519-12.762 2.186-19.5 2-8.808.371-17.308-.629-25.5-3z"/><path style="opacity:1" fill="#ffed8b" d="M136.5 218.5a18.991 18.991 0 0 1 8 1.5c-1.063 1.188-2.397 1.688-4 1.5-.948-1.478-2.281-2.478-4-3z"/><path style="opacity:1" fill="#fed862" d="M481.5 229.5c-1-1.333-2-1.333-3 0 .746-3.81 1.746-3.81 3 0z"/><path style="opacity:1" fill="#f46298" d="M324.5 239.5c3.635.614 7.302.948 11 1-3.79 1.402-7.456 1.069-11-1z"/><path style="opacity:1" fill="#ffda84" d="M66.5 246.5c2.952 2.285 5.618 4.952 8 8-3.645-1.645-6.312-4.312-8-8z"/><path style="opacity:1" fill="#ffe68b" d="M457.5 245.5c2.715 1.623 5.715 2.29 9 2-2.128 1.129-4.461 1.296-7 .5-.881-.708-1.547-1.542-2-2.5z"/><path style="opacity:1" fill="#fed765" d="M74.5 254.5c1.527-.073 2.527.594 3 2-1.527.073-2.527-.594-3-2z"/><path style="opacity:1" fill="#8c3d44" d="M13.5 184.5a5076.92 5076.92 0 0 0 9 116 6.846 6.846 0 0 0-1 4v10a6350.37 6350.37 0 0 1-8-123v-7z"/><path style="opacity:1" fill="#ffdc6b" d="M309.5 255.5c2.174.25 3.841 1.25 5 3-2.174-.25-3.841-1.25-5-3z"/><path style="opacity:1" fill="#ffe481" d="M79.5 257.5c2.518.764 4.851 1.764 7 3-2.991.334-5.324-.666-7-3z"/><path style="opacity:1" fill="#ffed90" d="M314.5 258.5c5.771-.613 11.104.054 16 2a777.189 777.189 0 0 1-16-2z"/><path style="opacity:1" fill="#f9a6ca" d="M676.5 260.5c-.111.617-.444 1.117-1 1.5a18.453 18.453 0 0 1-6 .5c2.157-.907 4.49-1.573 7-2z"/><path style="opacity:1" fill="#feeb78" d="M90.5 262.5c3.281-.08 6.281.587 9 2-3.281.08-6.281-.587-9-2z"/><path style="opacity:1" fill="#feda66" d="M99.5 264.5c4.853.313 9.52.979 14 2a72.367 72.367 0 0 1-12-.5c-.916-.278-1.582-.778-2-1.5z"/><path style="opacity:1" fill="#ffdb79" d="M613.5 267.5c2.198-.38 3.865.287 5 2-1.903-.296-3.57-.963-5-2z"/><path style="opacity:1" fill="#ffe47f" d="M629.5 273.5c2.51-.446 4.51.22 6 2-2.198-.375-4.198-1.042-6-2z"/><path style="opacity:1" fill="#fed66c" d="M645.5 277.5c2.398-.241 4.398.426 6 2-2.398.241-4.398-.426-6-2z"/><path style="opacity:1" fill="#ffeca1" d="M652.5 279.5c3.35-.165 6.683.002 10 .5.916.278 1.582.778 2 1.5-4.233-.039-8.233-.705-12-2z"/><path style="opacity:1" fill="#fcb54f" d="M518.5 279.5c-.473 1.406-1.473 2.073-3 2 .473-1.406 1.473-2.073 3-2z"/><path style="opacity:1" fill="#fed370" d="M664.5 281.5h29c-9.66 2.547-19.326 2.547-29 0z"/><path style="opacity:1" fill="#fcce8c" d="M698.5 280.5c1.765-.961 3.765-1.295 6-1 .302 2.559-.032 4.893-1 7v-6h-5z"/><path style="opacity:1" fill="#fedc7a" d="M496.5 290.5c-1.28 1.431-2.947 2.098-5 2 1.28-1.431 2.947-2.098 5-2z"/><path style="opacity:1" fill="#752825" d="M752.5 275.5v5a77.772 77.772 0 0 1-1 17h-1c-.094-7.547.572-14.88 2-22z"/><path style="opacity:1" fill="#fcc7e2" d="M286.5 294.5c4.993.416 9.993.749 15 1-5.066 1.216-10.066.883-15-1z"/><path style="opacity:1" fill="#63121e" d="M316.5 297.5h69a931.31 931.31 0 0 1-61 1c-2.619-.268-5.119.065-7.5 1a2379.52 2379.52 0 0 0-.5 69h-1c-.331-23.839.002-47.506 1-71z"/><path style="opacity:1" fill="#fcbb58" d="M69.5 298.5c1.406.473 2.073 1.473 2 3-1.406-.473-2.073-1.473-2-3z"/><path style="opacity:1" fill="#fdfdf9" d="M325.5 304.5h61a441.579 441.579 0 0 0 1 42v8a1009.46 1009.46 0 0 1-63 1v-48c-.237-1.291.096-2.291 1-3z"/><path style="opacity:1" fill="#f78db6" d="M600.5 305.5c1.653.16 2.986.826 4 2-1.88.271-3.213-.396-4-2z"/><path style="opacity:1" fill="#fdd959" d="M172.5 310.5h-7c2.999-1.895 6.333-3.228 10-4 1.432.233 1.932.9 1.5 2a9.175 9.175 0 0 1-4.5 2z"/><path style="opacity:1" fill="#ffe47b" d="M597.5 308.5c1.527-.073 2.527.594 3 2-1.527.073-2.527-.594-3-2z"/><path style="opacity:1" fill="#ffdb78" d="M77.5 311.5c1.527-.073 2.527.594 3 2-1.527.073-2.527-.594-3-2z"/><path style="opacity:1" fill="#fdc74a" d="M159.5 312.5c-3.186 2.374-6.853 3.374-11 3 3.407-1.574 7.073-2.574 11-3z"/><path style="opacity:1" fill="#3d0a03" d="M31.5 300.5a343.73 343.73 0 0 1 2 24c-1.768-7.757-2.435-15.757-2-24z"/><path style="opacity:1" fill="#feec7c" d="M83.5 315.5c1.527-.073 2.527.594 3 2-1.527.073-2.527-.594-3-2z"/><path style="opacity:1" fill="#fdd260" d="M609.5 316.5c1.527-.073 2.527.594 3 2-1.527.073-2.527-.594-3-2z"/><path style="opacity:1" fill="#fdc74a" d="M144.5 316.5c-3.263 2.068-6.93 3.068-11 3 3.407-1.574 7.073-2.574 11-3z"/><path style="opacity:1" fill="#ee2f47" d="M640.5 317.5a168.081 168.081 0 0 0 35 0c-.763.768-1.763 1.268-3 1.5l-12.5.5c-6.731.147-13.231-.52-19.5-2z"/><path style="opacity:1" fill="#ffdf71" d="M90.5 319.5a69.341 69.341 0 0 0 18 2c8.37-.291 16.703-.958 25-2-8.046 2.213-16.379 3.213-25 3l-12-.5c-2.474-.037-4.474-.87-6-2.5z"/><path style="opacity:1" fill="#fedd63" d="M619.5 322.5c1.527-.073 2.527.594 3 2-1.527.073-2.527-.594-3-2z"/><path style="opacity:1" fill="#270605" d="M324.5 298.5a168.522 168.522 0 0 1-6 2c-1.584 8.906-.751 17.573 2.5 26 .87-.608 1.37-1.441 1.5-2.5a17.65 17.65 0 0 1-.5-9.5 46.698 46.698 0 0 0 2.5-7v48c-1.332-3.764-2.165-7.764-2.5-12l-1-2a7.248 7.248 0 0 1-2.5 2 211.151 211.151 0 0 0-1 29c-.934-1.068-1.268-2.401-1-4-.167-23.002 0-46.002.5-69 2.381-.935 4.881-1.268 7.5-1z"/><path style="opacity:1" fill="#fbc68f" d="M556.5 331.5c-2.653-.642-3.819-2.308-3.5-5a701.656 701.656 0 0 0 3.5 5z"/><path style="opacity:1" fill="#75252d" d="M21.5 304.5a968.278 968.278 0 0 1 3 42h-1a686.816 686.816 0 0 1-2-32v-10z"/><path style="opacity:1" fill="#bf7362" d="M750.5 297.5h1c.543.06.876.393 1 1a933.196 933.196 0 0 0-4 51v-7c.39-15.013 1.057-30.013 2-45z"/><path style="opacity:1" fill="#ffde7a" d="M636.5 333.5c1.527-.073 2.527.594 3 2-1.527.073-2.527-.594-3-2z"/><path style="opacity:1" fill="#030101" d="M385.5 297.5h72c.285 25.022-.048 50.022-1 75v1c-1.745 1.306-3.745 2.306-6 3 3.829 7.764 3.162 15.264-2 22.5.88 1.356 1.214 2.856 1 4.5l-17 50c-.901.79-1.568 1.79-2 3-1.212.73-2.212 1.73-3 3a34.344 34.344 0 0 0-4 12 265.784 265.784 0 0 1-11 24l-25 50c0-.667-.333-1-1-1-1.174-1.014-1.84-2.347-2-4 .271-1.88-.396-3.213-2-4a282.851 282.851 0 0 1-17-35c.073-1.527-.594-2.527-2-3a364.09 364.09 0 0 0-22-46 21.17 21.17 0 0 0-2-7c-1.204-5.395-3.204-10.395-6-15 .539-3.916-.794-6.916-4-9v-2c-.207-2.741-1.207-5.074-3-7 .38-2.198-.287-3.865-2-5v-2c.098-2.053-.569-3.72-2-5a139.589 139.589 0 0 1-5-28c-.332-9.69.002-19.356 1-29a7.248 7.248 0 0 0 2.5-2l1 2c.335 4.236 1.168 8.236 2.5 12a992.742 992.742 0 0 0 63 1v169c1.679.215 2.679-.452 3-2v-1c1.604-.787 2.271-2.12 2-4 1.604-.787 2.271-2.12 2-4-.172-.992.162-1.658 1-2 1.037-1.43 1.704-3.097 2-5 3.06-4.13 5.06-8.796 6-14 .16-1.653.826-2.986 2-4 1.508-1.681 2.508-3.681 3-6-.172-.992.162-1.658 1-2 2.701-2.735 4.368-6.069 5-10 1.604-.787 2.271-2.12 2-4-.172-.992.162-1.658 1-2 3.116-4.57 5.45-9.57 7-15 1.037-1.43 1.704-3.097 2-5 1.887-2.289 3.221-4.955 4-8v-2c1.406-.473 2.073-1.473 2-3-.098-2.053.569-3.72 2-5 1.149-.291 1.816-1.124 2-2.5a27.716 27.716 0 0 0 2-8.5c4.085-8.43 6.918-17.43 8.5-27a189.805 189.805 0 0 1 3-17c.817-5.516.651-10.85-.5-16a931.31 931.31 0 0 0-61-1 650.602 650.602 0 0 0-1-51 481.12 481.12 0 0 0-62 0c-.904.709-1.237 1.709-1 3a46.698 46.698 0 0 1-2.5 7 17.65 17.65 0 0 0 .5 9.5c-.13 1.059-.63 1.892-1.5 2.5-3.251-8.427-4.084-17.094-2.5-26a168.522 168.522 0 0 0 6-2 931.31 931.31 0 0 0 61-1z"/><path style="opacity:1" fill="#d5b2cf" d="M325.5 304.5a481.12 481.12 0 0 1 62 0v42a441.579 441.579 0 0 1-1-42h-61z"/><path style="opacity:1" fill="#fee070" d="M654.5 343.5c1.88-.271 3.213.396 4 2-1.653-.16-2.986-.826-4-2z"/><path style="opacity:1" fill="#fcd345" d="M203.5 348.5c-1.435-.596-3.102-.596-5 0 1.411-2.039 3.411-3.039 6-3 .237 1.291-.096 2.291-1 3z"/><path style="opacity:1" fill="#fdc564" d="M569.5 348.5c1.762.762 2.762 2.096 3 4-1.762-.762-2.762-2.096-3-4z"/><path style="opacity:1" fill="#ffe37d" d="M666.5 348.5c3.662.223 6.995 1.223 10 3-3.714-.09-7.048-1.09-10-3z"/><path style="opacity:1" fill="#ad5260" d="M23.5 346.5h1a51.55 51.55 0 0 0 2 15 40.282 40.282 0 0 0-1 12 361.102 361.102 0 0 1-2-27z"/><path style="opacity:1" fill="#fdd14e" d="M677.5 351.5a388.441 388.441 0 0 0 24 3 128.507 128.507 0 0 1-16-.5c-3.022-.098-5.689-.932-8-2.5z"/><path style="opacity:1" fill="#fce156" d="M260.5 357.5c-.342-.838-1.008-1.172-2-1 .311-.978.978-1.645 2-2 1.276 1.114 1.276 2.114 0 3z"/><path style="opacity:1" fill="#d78c27" d="M387.5 354.5v2a992.742 992.742 0 0 1-63-1 1009.46 1009.46 0 0 0 63-1z"/><path style="opacity:1" fill="#fefefa" d="M448.5 366.5a255.593 255.593 0 0 1-10 50c-2.142 3.3-3.475 6.967-4 11-1.431 1.28-2.098 2.947-2 5-1.406.473-2.073 1.473-2 3v2c-2.271 2.112-3.604 4.779-4 8-1.713 1.135-2.38 2.802-2 5-1.636 1.249-2.803 2.916-3.5 5a60.869 60.869 0 0 0-3.5 10c-.838.342-1.172 1.008-1 2-1.174 1.014-1.84 2.347-2 4-2.467 2.837-4.133 6.171-5 10-.838.342-1.172 1.008-1 2-2.039 1.411-3.039 3.411-3 6-1.174 1.014-1.84 2.347-2 4a60.725 60.725 0 0 0-6 14c-1.713 1.135-2.38 2.802-2 5-.838.342-1.172 1.008-1 2-1.174 1.014-1.84 2.347-2 4-1.174 1.014-1.84 2.347-2 4v1c-.617.111-1.117.444-1.5 1-.5-55.999-.667-111.999-.5-168h60v10z"/><path style="opacity:1" fill="#ffe6c7" d="M514.5 356.5v3c-4.528-4.428-8.028-9.428-10.5-15 4.104 3.595 7.604 7.595 10.5 12z"/><path style="opacity:1" fill="#5e2b28" d="M748.5 342.5v7c-.217 7.52-.884 14.854-2 22v-3a79.847 79.847 0 0 1 0-22.5c.108-1.681.775-2.848 2-3.5z"/><path style="opacity:1" fill="#f79427" d="M185.5 359.5c-1.085 2.087-2.751 3.42-5 4 1.085-2.087 2.751-3.42 5-4z"/><path style="opacity:1" fill="#fdb33b" d="M178.5 364.5c-.473 1.406-1.473 2.073-3 2 .473-1.406 1.473-2.073 3-2z"/><path style="opacity:1" fill="#fcb84a" d="M74.5 372.5c1.762.762 2.762 2.096 3 4-1.762-.762-2.762-2.096-3-4z"/><path style="opacity:1" fill="#fbb752" d="M522.5 372.5c1.406.473 2.073 1.473 2 3-1.406-.473-2.073-1.473-2-3z"/><path style="opacity:1" fill="#ffd171" d="M592.5 374.5c4.271 2.601 7.937 5.934 11 10-4.271-2.601-7.937-5.934-11-10z"/><path style="opacity:1" fill="#ffe894" d="M78.5 377.5c2.249.58 3.915 1.913 5 4-2.249-.58-3.915-1.913-5-4z"/><path style="opacity:1" fill="#fed65c" d="M155.5 378.5c-.787 1.604-2.12 2.271-4 2 1.014-1.174 2.347-1.84 4-2z"/><path style="opacity:1" fill="#751726" d="M736.5 377.5v15l-2 6c-.042-7.211.625-14.211 2-21z"/><path style="opacity:1" fill="#ffe37e" d="M83.5 381.5c1.527-.073 2.527.594 3 2-1.527.073-2.527-.594-3-2z"/><path style="opacity:1" fill="#691e27" d="M25.5 373.5c1.306 5.116 1.973 10.449 2 16h-1a118.468 118.468 0 0 1-1-16z"/><path style="opacity:1" fill="#fee374" d="M142.5 384.5c-2.099 1.112-4.433 1.779-7 2 1.938-1.663 4.272-2.329 7-2z"/><path style="opacity:1" fill="#651a17" d="M746.5 368.5v3c1.333 2 1.333 4 0 6l-2 10c-.163-6.562.504-12.895 2-19z"/><path style="opacity:1" fill="#ffe79f" d="M95.5 387.5a236.026 236.026 0 0 0 28 1c-8.469 2.482-17.136 2.648-26 .5-.916-.278-1.582-.778-2-1.5z"/><path style="opacity:1" fill="#ffe894" d="M607.5 388.5c2.927 1.257 5.261 3.257 7 6-2.927-1.257-5.261-3.257-7-6z"/><path style="opacity:1" fill="#3f0a11" d="M456.5 373.5a265.333 265.333 0 0 1-5 26l-2 4c.214-1.644-.12-3.144-1-4.5 5.162-7.236 5.829-14.736 2-22.5 2.255-.694 4.255-1.694 6-3z"/><path style="opacity:1" fill="#c06456" d="M746.5 377.5c.113 9.87-.553 19.537-2 29v-19l2-10z"/><path style="opacity:1" fill="#ffe384" d="M618.5 398.5c2.249.58 3.915 1.913 5 4-2.249-.58-3.915-1.913-5-4z"/><path style="opacity:1" fill="#86313b" d="M26.5 389.5h1c1.22 15.312 2.22 30.645 3 46-2.242-15.109-3.576-30.443-4-46z"/><path style="opacity:1" fill="#fefcf9" d="M322.5 400.5c-.098 2.053.569 3.72 2 5v2c.296 1.903.963 3.57 2 5 .052 2.846 1.052 5.18 3 7v2c.963 3.244 2.296 6.244 4 9 1.234 5.383 3.234 10.383 6 15a21.17 21.17 0 0 1 2 7 77.145 77.145 0 0 0-12.5 13c-11.639 17.894-16.139 37.561-13.5 59-1.599.268-2.932-.066-4-1-.473-1.406-1.473-2.073-3-2-1.904-.238-3.238-1.238-4-3-1.039-2.031-2.705-3.364-5-4-4.866-6.909-8.2-14.576-10-23v-5h-19c-5.526.321-10.86-.012-16-1-3.795-1.117-7.795-1.783-12-2h-4v-3c12.22-4.443 23.22-10.943 33-19.5 19.119-18.599 36.119-38.766 51-60.5z"/><path style="opacity:1" fill="#e54525" d="M451.5 399.5a308.19 308.19 0 0 0 18 24c-.073 1.527.594 2.527 2 3a46.493 46.493 0 0 0 7 9 6.547 6.547 0 0 0 3 3l5 6c2 2.667 4.333 5 7 7 1.085 2.087 2.751 3.42 5 4 .333 1 1 1.667 2 2 1.085 2.087 2.751 3.42 5 4 .762 1.762 2.096 2.762 4 3 1.085 2.087 2.751 3.42 5 4 1.984 2.664 4.651 4.331 8 5 .473 1.406 1.473 2.073 3 2 1.014 1.174 2.347 1.84 4 2a17.843 17.843 0 0 1 6 4 261.653 261.653 0 0 1-50 5.5 82.82 82.82 0 0 1-10.5 26.5c-4.581 5.863-10.415 9.53-17.5 11a201.33 201.33 0 0 0-1.5-29c-2.404-17.151-10.238-31.151-23.5-42l17-50 2-4z"/><path style="opacity:1" fill="#80292a" d="M744.5 396.5v10c-.037 12.284-1.371 24.284-4 36 1.28-15.486 2.613-30.82 4-46z"/><path style="opacity:1" fill="#b24d6e" d="M322.5 400.5c1.431 1.28 2.098 2.947 2 5-1.431-1.28-2.098-2.947-2-5z"/><path style="opacity:1" fill="#76191a" d="M449.5 356.5c1.151 5.15 1.317 10.484.5 16a189.805 189.805 0 0 0-3 17c-1.582 9.57-4.415 18.57-8.5 27a255.593 255.593 0 0 0 10-50c.979-3.125 1.313-6.458 1-10z"/><path style="opacity:1" fill="#340406" d="M736.5 392.5a286.396 286.396 0 0 0 0 16c-.457.798-1.124 1.131-2 1v-11l2-6z"/><path style="opacity:1" fill="#ffdd82" d="M629.5 407.5c2.249.58 3.915 1.913 5 4-2.249-.58-3.915-1.913-5-4z"/><path style="opacity:1" fill="#8f3a65" d="M324.5 407.5c1.713 1.135 2.38 2.802 2 5-1.037-1.43-1.704-3.097-2-5z"/><path style="opacity:1" fill="#722649" d="M326.5 412.5c1.793 1.926 2.793 4.259 3 7-1.948-1.82-2.948-4.154-3-7z"/><path style="opacity:1" fill="#feca69" d="M555.5 414.5c2.414 1.411 4.081 3.411 5 6-2.414-1.411-4.081-3.411-5-6z"/><path style="opacity:1" fill="#ffe783" d="M637.5 414.5c1.527-.073 2.527.594 3 2-1.527.073-2.527-.594-3-2z"/><path style="opacity:1" fill="#461c2e" d="M329.5 421.5c3.206 2.084 4.539 5.084 4 9-1.704-2.756-3.037-5.756-4-9z"/><path style="opacity:1" fill="#fdc860" d="M469.5 423.5c1.406.473 2.073 1.473 2 3-1.406-.473-2.073-1.473-2-3z"/><path style="opacity:1" fill="#4f1712" d="M438.5 416.5a27.716 27.716 0 0 1-2 8.5c-.184 1.376-.851 2.209-2 2.5.525-4.033 1.858-7.7 4-11z"/><path style="opacity:1" fill="#8b2929" d="M734.5 401.5v8c-.209 12.05-1.542 23.884-4 35.5a14.436 14.436 0 0 0 1 5c-2.464 4.113-3.63 8.613-3.5 13.5-.383.556-.883.889-1.5 1a740.673 740.673 0 0 0 8-63z"/><path style="opacity:1" fill="#fcbb4b" d="M188.5 430.5c-.473 1.406-1.473 2.073-3 2 .473-1.406 1.473-2.073 3-2z"/><path style="opacity:1" fill="#ffd877" d="M569.5 431.5c3.333 1.333 5.667 3.667 7 7-2.667-2-5-4.333-7-7z"/><path style="opacity:1" fill="#ad5735" d="M432.5 432.5c.073 1.527-.594 2.527-2 3-.073-1.527.594-2.527 2-3z"/><path style="opacity:1" fill="#fdd162" d="M665.5 433.5c1.527-.073 2.527.594 3 2-1.527.073-2.527-.594-3-2z"/><path style="opacity:1" fill="#ffe27e" d="M478.5 435.5c2 0 3 1 3 3a6.547 6.547 0 0 1-3-3z"/><path style="opacity:1" fill="#7a2950" d="M333.5 430.5c2.796 4.605 4.796 9.605 6 15-2.766-4.617-4.766-9.617-6-15z"/><path style="opacity:1" fill="#842d1d" d="M430.5 437.5c-.779 3.045-2.113 5.711-4 8 .396-3.221 1.729-5.888 4-8z"/><path style="opacity:1" fill="#ffde7d" d="M486.5 444.5c3.333 1.333 5.667 3.667 7 7-2.667-2-5-4.333-7-7z"/><path style="opacity:1" fill="#fecf74" d="M166.5 445.5c-1.014 1.174-2.347 1.84-4 2 .787-1.604 2.12-2.271 4-2z"/><path style="opacity:1" fill="#954432" d="M426.5 445.5c-.296 1.903-.963 3.57-2 5-.38-2.198.287-3.865 2-5z"/><path style="opacity:1" fill="#893243" d="M30.5 435.5c2.286 7.377 3.62 15.044 4 23-1.877-7.446-3.21-15.113-4-23z"/><path style="opacity:1" fill="#ffde6d" d="M88.5 447.5c1.527-.073 2.527.594 3 2-1.527.073-2.527-.594-3-2z"/><path style="opacity:1" fill="#fed670" d="M91.5 449.5c1.527-.073 2.527.594 3 2-1.527.073-2.527-.594-3-2z"/><path style="opacity:1" fill="#ffd973" d="M493.5 451.5c2.249.58 3.915 1.913 5 4-2.249-.58-3.915-1.913-5-4z"/><path style="opacity:1" fill="#8c3140" d="M739.5 448.5c-.239 5.269-1.239 10.269-3 15-.131-5.348.869-10.348 3-15z"/><path style="opacity:1" fill="#ffd778" d="M590.5 452.5c3.264 1.594 5.931 3.927 8 7-3.264-1.594-5.931-3.927-8-7z"/><path style="opacity:1" fill="#ffe9a1" d="M96.5 452.5c2.398-.241 4.398.426 6 2-2.398.241-4.398-.426-6-2z"/><path style="opacity:1" fill="#862e1d" d="M424.5 450.5c-1.55 5.43-3.884 10.43-7 15a60.869 60.869 0 0 1 3.5-10c.697-2.084 1.864-3.751 3.5-5z"/><path style="opacity:1" fill="#fef18e" d="M140.5 456.5c-1.109.79-2.442 1.29-4 1.5a84.902 84.902 0 0 1-13 .5 170.342 170.342 0 0 1 17-2z"/><path style="opacity:1" fill="#ffe487" d="M500.5 457.5c2.249.58 3.915 1.913 5 4-2.249-.58-3.915-1.913-5-4z"/><path style="opacity:1" fill="#ffd977" d="M600.5 461.5c2.249.58 3.915 1.913 5 4-2.249-.58-3.915-1.913-5-4z"/><path style="opacity:1" fill="#491b28" d="M430.5 456.5c-1.778 5.368-4.111 10.368-7 15a34.344 34.344 0 0 1 4-12c.788-1.27 1.788-2.27 3-3z"/><path style="opacity:1" fill="#ffeea2" d="M509.5 464.5c2.249.58 3.915 1.913 5 4-2.249-.58-3.915-1.913-5-4z"/><path style="opacity:1" fill="#ffe481" d="M605.5 465.5c3.264 1.594 5.931 3.927 8 7-3.264-1.594-5.931-3.927-8-7z"/><path style="opacity:1" fill="#fcbd5a" d="M228.5 469.5c-.473 1.406-1.473 2.073-3 2 .473-1.406 1.473-2.073 3-2z"/><path style="opacity:1" fill="#88261b" d="M416.5 467.5c.271 1.88-.396 3.213-2 4 .16-1.653.826-2.986 2-4z"/><path style="opacity:1" fill="#812b3a" d="M736.5 463.5c-.414 6.313-1.748 12.313-4 18 .459-6.309 1.793-12.309 4-18z"/><path style="opacity:1" fill="#741716" d="M726.5 464.5c.191 7.237-1.476 13.903-5 20 .545-7.044 2.211-13.711 5-20z"/><path style="opacity:1" fill="#fee679" d="M522.5 473.5c1.527-.073 2.527.594 3 2-1.527.073-2.527-.594-3-2z"/><path style="opacity:1" fill="#feda74" d="M617.5 475.5c1.904.238 3.238 1.238 4 3-1.904-.238-3.238-1.238-4-3z"/><path style="opacity:1" fill="#832e1e" d="M414.5 471.5c-.632 3.931-2.299 7.265-5 10 .867-3.829 2.533-7.163 5-10z"/><path style="opacity:1" fill="#fbb44f" d="M219.5 476.5c-.473 1.406-1.473 2.073-3 2 .473-1.406 1.473-2.073 3-2z"/><path style="opacity:1" fill="#ffea96" d="M529.5 477.5c2.921-.354 5.254.646 7 3-.124.607-.457.94-1 1a17.843 17.843 0 0 0-6-4z"/><path style="opacity:1" fill="#7f374a" d="M34.5 458.5c2.965 1.464 3.632 3.63 2 6.5a112.16 112.16 0 0 1 4 21.5c-1.17-2.15-2.17-4.484-3-7a3.646 3.646 0 0 1 1-1.5 92.086 92.086 0 0 1-4-19.5z"/><path style="opacity:1" fill="#955262" d="M387.5 304.5a650.602 650.602 0 0 1 1 51 931.31 931.31 0 0 1 61 1c.313 3.542-.021 6.875-1 10v-10h-60c-.167 56.001 0 112.001.5 168 .383-.556.883-.889 1.5-1-.321 1.548-1.321 2.215-3 2v-221z"/><path style="opacity:1" fill="#feda64" d="M626.5 482.5c1.527-.073 2.527.594 3 2-1.527.073-2.527-.594-3-2z"/><path style="opacity:1" fill="#fee976" d="M242.5 483.5c4.205.217 8.205.883 12 2-4.29.302-8.29-.364-12-2z"/><path style="opacity:1" fill="#903923" d="M408.5 483.5c-.492 2.319-1.492 4.319-3 6-.039-2.589.961-4.589 3-6z"/><path style="opacity:1" fill="#f8a030" d="M270.5 486.5h19v5c-.934-1.068-1.268-2.401-1-4-6.19.323-12.19-.01-18-1z"/><path style="opacity:1" fill="#7c1b16" d="M721.5 484.5c.054 3.492-.946 6.492-3 9 .028-3.416 1.028-6.416 3-9z"/><path style="opacity:1" fill="#e64727" d="M520.5 505.5c.58 2.249 1.913 3.915 4 5 2.4 3.403 5.4 6.07 9 8 .333 1 1 1.667 2 2 1.739 2.743 4.073 4.743 7 6 .111.617.444 1.117 1 1.5 9.176.824 18.176.657 27-.5a265.208 265.208 0 0 1 32 1l2 9a175.924 175.924 0 0 1 17 3c.473 1.406 1.473 2.073 3 2a24.93 24.93 0 0 1 1 8c.107 2.403-.893 4.236-3 5.5-4.222 3.111-8.889 4.111-14 3a1109.215 1109.215 0 0 0-5.5-9.5 14.748 14.748 0 0 0-4.5-3c-13-1.333-26-1.333-39 0a14.555 14.555 0 0 1 4 5c1.085 2.087 2.751 3.42 5 4 1.411 2.414 3.411 4.081 6 5 .473 1.406 1.473 2.073 3 2 .473 1.406 1.473 2.073 3 2 1.014 1.174 2.347 1.84 4 2 .787 1.604 2.12 2.271 4 2 .473 1.406 1.473 2.073 3 2 1.43 1.037 3.097 1.704 5 2l2 2a53.864 53.864 0 0 0-6.5 6c-.731 4.483-.231 8.817 1.5 13 .116 3.622-1.55 5.788-5 6.5-4 .667-8 .667-12 0-2.31-1.637-3.81-3.804-4.5-6.5a89.869 89.869 0 0 1 0-15 155.37 155.37 0 0 1-25-23 63.805 63.805 0 0 0-2.5 20 449.768 449.768 0 0 1 1.5 30 148.248 148.248 0 0 0-10 4 52.424 52.424 0 0 0 1.5 12c-.789 7.242-4.789 9.742-12 7.5-7.317-2.99-9.484-8.156-6.5-15.5 4.267-4.605 7.267-9.939 9-16a377.022 377.022 0 0 0 1.5-45c-12.005-.167-24.005 0-36 .5a9.454 9.454 0 0 0-2.5 1.5c-1.621 6.935-5.454 12.102-11.5 15.5-8.544 2.144-15.377-.356-20.5-7.5-.5-4 1-7 4.5-9 2.897-.629 5.564-1.629 8-3 1.984.117 3.65-.55 5-2a65.75 65.75 0 0 0 1.5-10c1.356-.88 2.856-1.214 4.5-1 4.205-.217 8.205-.883 12-2a86.822 86.822 0 0 0 23-3 1328.364 1328.364 0 0 0-30.5-31c-.581-4.186.086-8.186 2-12 4.748-1.135 9.581-1.302 14.5-.5a398.642 398.642 0 0 0 17 16.5z"/><path style="opacity:1" fill="#31171d" d="M732.5 482.5c-1.066 5.62-2.733 10.953-5 16-.221-1.235-.888-2.235-2-3l3-2a76.26 76.26 0 0 1 0-7.5 19.552 19.552 0 0 1 4-3.5z"/><path style="opacity:1" fill="#fefcf6" d="M286.5 563.5c-.588-2.563-1.588-4.896-3-7-1.382-1.301-3.048-2.134-5-2.5l-17-.5c-6.077.025-11.91.691-17.5 2a544.583 544.583 0 0 0-1 33c.881 10.429 4.548 19.762 11 28 1.023 3.817.523 7.317-1.5 10.5-4.14 3.242-8.806 4.242-14 3-1.507-1.473-2.174-3.307-2-5.5 1.14-5.034 1.14-10.034 0-15a21.127 21.127 0 0 0-9-1 403.352 403.352 0 0 0 0-50c-.553-2.052-1.553-2.385-3-1a160.41 160.41 0 0 1-24.5 23 76.402 76.402 0 0 1 0 15c-3.922 8.019-10.089 10.186-18.5 6.5-1.394-1.739-2.061-3.739-2-6a42.033 42.033 0 0 0 2.5-12.5 117.295 117.295 0 0 0-7.5-7c13.726-5.614 25.893-13.614 36.5-24a10.134 10.134 0 0 0 1.5-4c-12.827-1.16-25.827-1.327-39-.5-.556.383-.889.883-1 1.5-3.322 3.423-6.322 7.256-9 11.5-7.345 2.237-12.845.07-16.5-6.5-1.24-6.348 1.26-10.514 7.5-12.5l14-1a51.727 51.727 0 0 0 1.5-9.5l1.5-1.5c6.992-.5 13.992-.666 21-.5a126.39 126.39 0 0 0 34 1c2.283-.108 4.283-.941 6-2.5l37-37a98.432 98.432 0 0 1 14-.5c1.575 3.879 2.408 7.879 2.5 12a1328.364 1328.364 0 0 0-30.5 31c1.559 1.631 3.559 2.464 6 2.5 11.016.835 22.016 1.835 33 3a62.065 62.065 0 0 1 1.5 10.5c2.916 2.495 6.416 3.662 10.5 3.5l6 4c1.277 2.466 1.277 4.966 0 7.5-4.078 3.915-8.911 6.248-14.5 7-5.042-.867-8.875-3.533-11.5-8z"/><path style="opacity:1" fill="#f46c9b" d="M587.5 492.5c2.652-.09 4.985.576 7 2-2.652.09-4.985-.576-7-2z"/><path style="opacity:1" fill="#f48327" d="M194.5 490.5c-3.468 2.728-7.468 4.395-12 5 3.599-2.428 7.599-4.094 12-5z"/><path style="opacity:1" fill="#ffef95" d="M143.5 494.5c3.227.176 6.227.843 9 2-3.329.285-6.329-.382-9-2z"/><path style="opacity:1" fill="#fefcf7" d="M363.5 498.5c-.073 1.527.594 2.527 2 3a282.851 282.851 0 0 0 17 35c.16 1.653.826 2.986 2 4 .16 1.653.826 2.986 2 4 .332 47.836-.001 95.503-1 143a340.978 340.978 0 0 1-21-14c-.473-1.406-1.473-2.073-3-2-1.29-.558-2.123-1.558-2.5-3a16.242 16.242 0 0 1 0-8c7.096-15.342 11.596-31.342 13.5-48 1.156-7.823 1.323-15.823.5-24-.667-1.333-1.333-1.333-2 0a4.934 4.934 0 0 0-.5 3 149.215 149.215 0 0 1-6.5 39c-4.17 12.506-11.004 23.339-20.5 32.5a49.076 49.076 0 0 1-15 6c-9.646 1.338-18.979.338-28-3-3.398-1.357-6.398-3.19-9-5.5-.762-1.762-2.096-2.762-4-3 38.694-8.031 61.694-31.698 69-71-.237-3.789-.904-3.789-2 0-6.059 13.913-14.726 26.08-26 36.5a86.647 86.647 0 0 1-19 9 42.479 42.479 0 0 1-13 0c-.916-.278-1.582-.778-2-1.5a36.077 36.077 0 0 0-7-4c-1.871-.359-3.371-1.359-4.5-3-4.812-6.586-6.479-13.919-5-22a4.933 4.933 0 0 1 2.5-1c19.867 12.621 37.7 10.288 53.5-7 13.122-18.927 20.622-39.927 22.5-63-2.338-1.54-5.005-2.206-8-2-2.235-.728-4.068-2.061-5.5-4-2.156-3.762-2.823-7.762-2-12 3.989-10.728 11.489-15.394 22.5-14z"/><path style="opacity:1" fill="#e64626" d="M412.5 495.5c1.49 1.78 3.49 2.446 6 2a35.875 35.875 0 0 1 8 5c3.945 3.35 6.278 7.683 7 13-.716 9.345-5.716 14.178-15 14.5a9.839 9.839 0 0 0-1 4c2.387 15.656 7.054 30.49 14 44.5-.073 1.527.594 2.527 2 3l4 7c-.073 1.527.594 2.527 2 3l3 4c1.085 2.087 2.751 3.42 5 4 2.228 2.95 5.228 4.616 9 5 2.873 2.177 6.206 3.177 10 3 4.017-.36 8.017-.86 12-1.5.916-.278 1.582-.778 2-1.5a135.776 135.776 0 0 1 11-5c1.792-.134 3.458.199 5 1 .857 7.082-.309 13.749-3.5 20-11.771 12.931-25.604 15.431-41.5 7.5-14.272-10.693-25.105-24.193-32.5-40.5.008 4.383.674 8.716 2 13a233.518 233.518 0 0 1 7 16c6.4 10.734 14.567 19.9 24.5 27.5a10.134 10.134 0 0 0 4 1.5c.473 1.406 1.473 2.073 3 2 1.014 1.174 2.347 1.84 4 2 .787 1.604 2.12 2.271 4 2 4.002 2.11 8.335 3.443 13 4l5 2c-6.987 6.49-15.321 10.323-25 11.5-14.876 2.597-27.376-1.57-37.5-12.5-8.397-13.214-14.23-27.547-17.5-43-1.13-6.664-2.297-13.33-3.5-20-.819 8.224-.319 16.224 1.5 24 1.013 15.003 5.18 29.003 12.5 42 1.193 4.652.36 8.819-2.5 12.5a151.21 151.21 0 0 0-17 12c-2.786 2.06-5.786 3.56-9 4.5v-143l25-50z"/><path style="opacity:1" fill="#ffeb9b" d="M418.5 497.5c4.037-.324 6.703 1.342 8 5a35.875 35.875 0 0 0-8-5z"/><path style="opacity:1" fill="#a14977" d="M363.5 498.5c1.406.473 2.073 1.473 2 3-1.406-.473-2.073-1.473-2-3z"/><path style="opacity:1" fill="#7d3323" d="M403.5 493.5c-.94 5.204-2.94 9.87-6 14a60.725 60.725 0 0 1 6-14z"/><path style="opacity:1" fill="#8d3147" d="M727.5 498.5c-.89 5.666-2.557 11-5 16 .491-5.8 2.157-11.133 5-16z"/><path style="opacity:1" fill="#fed66a" d="M520.5 505.5c2.087 1.085 3.42 2.751 4 5-2.087-1.085-3.42-2.751-4-5z"/><path style="opacity:1" fill="#7d2d23" d="M397.5 507.5c-.296 1.903-.963 3.57-2 5-.38-2.198.287-3.865 2-5z"/><path style="opacity:1" fill="#fed66b" d="M524.5 510.5c3.6 1.93 6.6 4.597 9 8-3.6-1.93-6.6-4.597-9-8z"/><path style="opacity:1" fill="#ffe08d" d="M299.5 514.5c2.295.636 3.961 1.969 5 4-2.254-.624-3.921-1.957-5-4z"/><path style="opacity:1" fill="#a24b2a" d="M394.5 514.5c.271 1.88-.396 3.213-2 4 .16-1.653.826-2.986 2-4z"/><path style="opacity:1" fill="#8b3a5a" d="M41.5 490.5a714.269 714.269 0 0 0 23 63c-10.213-19.962-17.88-40.962-23-63z"/><path style="opacity:1" fill="#ffe68a" d="M535.5 520.5c2.927 1.257 5.261 3.257 7 6-2.927-1.257-5.261-3.257-7-6z"/><path style="opacity:1" fill="#af5a3a" d="M392.5 518.5c.271 1.88-.396 3.213-2 4 .16-1.653.826-2.986 2-4z"/><path style="opacity:1" fill="#ffe271" d="M308.5 521.5c1.527-.073 2.527.594 3 2-1.527.073-2.527-.594-3-2z"/><path style="opacity:1" fill="#fee875" d="M622.5 523.5a59.567 59.567 0 0 0-14 1c.111-.617.444-1.117 1-1.5 4.52-.814 8.854-.647 13 .5z"/><path style="opacity:1" fill="#732949" d="M721.5 517.5c-.87 4.723-2.536 9.056-5 13 .308-4.934 1.974-9.267 5-13z"/><path style="opacity:1" fill="#e74828" d="M622.5 523.5c15.056 4.427 20.556 14.427 16.5 30a31.313 31.313 0 0 1-5.5 9 77.59 77.59 0 0 1-2.5-17c-4.853-9.901-12.686-13.567-23.5-11-1.524-3.635-1.191-6.969 1-10a59.567 59.567 0 0 1 14-1z"/><path style="opacity:1" fill="#fff8ee" d="M147.5 526.5c5.344-.166 10.677.001 16 .5 2.79 2.21 3.623 5.044 2.5 8.5a608.655 608.655 0 0 1-19 4c-5.579 7.291-8.246 15.624-8 25-10.82-12.68-9.986-24.514 2.5-35.5a219.403 219.403 0 0 0 6-2.5z"/><path style="opacity:1" fill="#fee776" d="M570.5 527.5c5.156-.666 10.489-.999 16-1 5.711.005 11.044.672 16 2a265.208 265.208 0 0 0-32-1z"/><path style="opacity:1" fill="#fec957" d="M348.5 528.5c2.995-.206 5.662.46 8 2-2.928-.065-5.595-.732-8-2z"/><path style="opacity:1" fill="#fbaecb" d="M192.5 529.5c11.328.473 22.662.807 34 1a126.39 126.39 0 0 1-34-1z"/><path style="opacity:1" fill="#4c2136" d="M716.5 531.5c-1.488 4.967-3.488 9.634-6 14-.011-1.517-.677-2.684-2-3.5 2.152-2.424 3.485-5.257 4-8.5a16.332 16.332 0 0 1 4-2z"/><path style="opacity:1" fill="#fef497" d="M470.5 535.5a41.541 41.541 0 0 0-8 1c2.493-2.084 5.16-2.417 8-1z"/><path style="opacity:1" fill="#fedf71" d="M494.5 535.5c-3.795 1.117-7.795 1.783-12 2 3.71-1.636 7.71-2.302 12-2z"/><path style="opacity:1" fill="#e74828" d="M470.5 535.5c2.853 2.368 4.019 5.368 3.5 9-7.269 2.471-13.602 6.471-19 12a22.981 22.981 0 0 0-2 5 86.578 86.578 0 0 1-1.5 13c-10.046-6.302-12.213-14.635-6.5-25 2.759-4.262 6.259-7.596 10.5-10 1.653-.16 2.986-.826 4-2 1.291.237 2.291-.096 3-1a41.541 41.541 0 0 1 8-1z"/><path style="opacity:1" fill="#fefaf5" d="m322.5 573.5-2-11a32.894 32.894 0 0 0-3-7c-.629-2.497-2.296-3.83-5-4-.787-1.604-2.12-2.271-4-2-1.903-.296-3.57-.963-5-2-.473-1.406-1.473-2.073-3-2-1.595-4.918.238-7.584 5.5-8 11.004 1.496 19.004 7.163 24 17 1.224 5.804.224 11.138-3 16-1.129 1.641-2.629 2.641-4.5 3z"/><path style="opacity:1" fill="#ffe780" d="M604.5 537.5a84.902 84.902 0 0 1 13 .5c1.937.122 3.27.955 4 2.5a175.924 175.924 0 0 0-17-3z"/><path style="opacity:1" fill="#9e4670" d="M382.5 536.5c1.604.787 2.271 2.12 2 4-1.174-1.014-1.84-2.347-2-4z"/><path style="opacity:1" fill="#fec950" d="M459.5 537.5c-1.014 1.174-2.347 1.84-4 2 .787-1.604 2.12-2.271 4-2z"/><path style="opacity:1" fill="#fed66d" d="M621.5 540.5c1.527-.073 2.527.594 3 2-1.527.073-2.527-.594-3-2z"/><path style="opacity:1" fill="#fdc980" d="M624.5 542.5c1.526.992 2.193 2.492 2 4.5-.014 1.385-.348 2.551-1 3.5a24.93 24.93 0 0 0-1-8z"/><path style="opacity:1" fill="#fede6a" d="M300.5 545.5c1.527-.073 2.527.594 3 2-1.527.073-2.527-.594-3-2z"/><path style="opacity:1" fill="#8d2922" d="M718.5 493.5a52.016 52.016 0 0 1-1.5 10 983.011 983.011 0 0 1-22.5 55c-1.021 1.688-2.355 3.021-4 4a619.153 619.153 0 0 0 28-69z"/><path style="opacity:1" fill="#f9b735" d="M212.5 548.5a422.748 422.748 0 0 0-40 1c.111-.617.444-1.117 1-1.5 13.173-.827 26.173-.66 39 .5z"/><path style="opacity:1" fill="#fedd61" d="M308.5 549.5c1.88-.271 3.213.396 4 2-1.653-.16-2.986-.826-4-2z"/><path style="opacity:1" fill="#ffe992" d="M312.5 551.5c2.704.17 4.371 1.503 5 4a21.614 21.614 0 0 1-5-4z"/><path style="opacity:1" fill="#ffd778" d="M563.5 551.5c2.249.58 3.915 1.913 5 4-2.249-.58-3.915-1.913-5-4z"/><path style="opacity:1" fill="#fcb652" d="M471.5 550.5c-2.436 1.371-5.103 2.371-8 3 2.117-2.155 4.784-3.155 8-3z"/><path style="opacity:1" fill="#6d2146" d="M710.5 545.5a142.769 142.769 0 0 1-13 26c.023-2.427.523-4.76 1.5-7a246.689 246.689 0 0 0 9-19c.77 1.098 1.603 1.098 2.5 0z"/><path style="opacity:1" fill="#964a84" d="M64.5 553.5c1.174 1.014 1.84 2.347 2 4-1.604-.787-2.27-2.12-2-4z"/><path style="opacity:1" fill="#fcbf42" d="M224.5 557.5c1.447-1.385 2.447-1.052 3 1a5.727 5.727 0 0 0-3-1z"/><path style="opacity:1" fill="#f89740" d="M283.5 556.5c1.412 2.104 2.412 4.437 3 7-2.318-1.685-3.318-4.019-3-7z"/><path style="opacity:1" fill="#ffe470" d="M574.5 560.5c1.527-.073 2.527.594 3 2-1.527.073-2.527-.594-3-2z"/><path style="opacity:1" fill="#7c366a" d="M66.5 557.5a608.518 608.518 0 0 1 16 29c-6.618-8.898-11.951-18.565-16-29z"/><path style="opacity:1" fill="#ffdb71" d="M577.5 562.5c1.527-.073 2.527.594 3 2-1.527.073-2.527-.594-3-2z"/><path style="opacity:1" fill="#ffea78" d="M584.5 566.5c1.653.16 2.986.826 4 2-1.88.271-3.213-.396-4-2z"/><path style="opacity:1" fill="#fedb63" d="M588.5 568.5c1.527-.073 2.527.594 3 2-1.527.073-2.527-.594-3-2z"/><path style="opacity:1" fill="#f8ab5f" d="m320.5 562.5 2 11c-.06.543-.393.876-1 1a36.875 36.875 0 0 1-1-12z"/><path style="opacity:1" fill="#ffe681" d="M591.5 570.5c2.198-.38 3.865.287 5 2-1.903-.296-3.57-.963-5-2z"/><path style="opacity:1" fill="#fedf64" d="M596.5 572.5c1.603-.188 2.937.312 4 1.5a2.428 2.428 0 0 1-2 .5l-2-2z"/><path style="opacity:1" fill="#c275a8" d="M697.5 571.5c-.16 1.653-.826 2.986-2 4-.271-1.88.396-3.213 2-4z"/><path style="opacity:1" fill="#fedf5b" d="M607.5 579.5c-2.667-1.333-5.333-1.333-8 0 .812-1.493 2.145-2.16 4-2 1.855-.16 3.188.507 4 2z"/><path style="opacity:1" fill="#e74a27" d="M607.5 579.5c2.467 4.773 2.633 9.773.5 15-3.939 8.262-9.606 14.929-17 20-.667-1.333-.667-2.667 0-4 4.039-8.496 6.039-17.496 6-27a16.58 16.58 0 0 1 2.5-4c2.667-1.333 5.333-1.333 8 0z"/><path style="opacity:1" fill="#fdcc67" d="M431.5 578.5c1.406.473 2.073 1.473 2 3-1.406-.473-2.073-1.473-2-3z"/><path style="opacity:1" fill="#fff6ee" d="M179.5 614.5c-.762-1.762-2.096-2.762-4-3a59.176 59.176 0 0 1-11.5-17c-.854-4.125-.52-8.125 1-12 4.003-3.001 7.336-2.335 10 2-.182 12.286 2.985 23.619 9.5 34-1.998-.264-3.665-1.597-5-4z"/><path style="opacity:1" fill="#8b2619" d="M690.5 562.5c-6.566 14.809-14.899 28.476-25 41a1270.27 1270.27 0 0 1 25-41z"/><path style="opacity:1" fill="#fcd84c" d="M356.5 586.5h-2c1.096-3.789 1.763-3.789 2 0z"/><path style="opacity:1" fill="#612447" d="M692.5 580.5c-1.918 4.843-4.584 9.177-8 13 .17-1.322-.163-2.489-1-3.5l5-4-1-1c1.349-.772 2.182-1.939 2.5-3.5.671-.752 1.504-1.086 2.5-1z"/><path style="opacity:1" fill="#fcc15d" d="M437.5 588.5c1.406.473 2.073 1.473 2 3-1.406-.473-2.073-1.473-2-3z"/><path style="opacity:1" fill="#7f3d73" d="M82.5 586.5c1.37.356 2.37 1.19 3 2.5a298.393 298.393 0 0 0 8 14.5c-4.84-4.854-8.507-10.52-11-17z"/><path style="opacity:1" fill="#fce19b" d="M372.5 612.5c.166-7.341 0-14.674-.5-22-.383.556-.883.889-1.5 1a4.934 4.934 0 0 1 .5-3c.667-1.333 1.333-1.333 2 0 .823 8.177.656 16.177-.5 24z"/><path style="opacity:1" fill="#a04e8a" d="M684.5 593.5c.073 1.527-.594 2.527-2 3-.073-1.527.594-2.527 2-3z"/><path style="opacity:1" fill="#fed980" d="M442.5 595.5c2.249.58 3.915 1.913 5 4-2.249-.58-3.915-1.913-5-4z"/><path style="opacity:1" fill="#fdd466" d="M496.5 600.5c-1.542-.801-3.208-1.134-5-1 2.256-2.805 3.923-2.472 5 1z"/><path style="opacity:1" fill="#823864" d="M682.5 596.5c-.84 2.353-2.174 4.353-4 6-.158-3.022 1.175-5.022 4-6z"/><path style="opacity:1" fill="#b068ae" d="M93.5 603.5c1.406.473 2.073 1.473 2 3-1.406-.473-2.073-1.473-2-3z"/><path style="opacity:1" fill="#ffe79e" d="M456.5 604.5a74.617 74.617 0 0 0 24 0c-.418.722-1.084 1.222-2 1.5-3.983.64-7.983 1.14-12 1.5-3.794.177-7.127-.823-10-3z"/><path style="opacity:1" fill="#8a2b19" d="M665.5 603.5c-4.535 8.862-10.535 16.529-18 23 6.031-7.691 12.031-15.358 18-23z"/><path style="opacity:1" fill="#984783" d="M678.5 603.5a6.547 6.547 0 0 1-3 3c0-2 1-3 3-3z"/><path style="opacity:1" fill="#702b67" d="M95.5 606.5c1.946.535 2.946 1.868 3 4-1.474-.936-2.474-2.27-3-4z"/><path style="opacity:1" fill="#feddc4" d="M405.5 613.5c-.617-.111-1.117-.444-1.5-1a12.93 12.93 0 0 0-.5 5c-1.819-7.776-2.319-15.776-1.5-24 1.203 6.67 2.37 13.336 3.5 20z"/><path style="opacity:1" fill="#79397f" d="M98.5 611.5c2 0 3 1 3 3a6.546 6.546 0 0 1-3-3z"/><path style="opacity:1" fill="#ffd871" d="M175.5 611.5c1.904.238 3.238 1.238 4 3-1.904-.238-3.238-1.238-4-3z"/><path style="opacity:1" fill="#fcb447" d="M551.5 613.5c-3.333-1.333-6.667-1.333-10 0 3.252-3.893 6.586-3.893 10 0z"/><path style="opacity:1" fill="#e74a28" d="M551.5 613.5c2.624 8.668.624 16.168-6 22.5a47.249 47.249 0 0 1-14 7.5c-1.083-.865-1.249-1.865-.5-3 6.689-7.752 10.189-16.752 10.5-27 3.333-1.333 6.667-1.333 10 0z"/><path style="opacity:1" fill="#fef9f1" d="M237.5 643.5c-.473-1.406-1.473-2.073-3-2-2.174-.25-3.841-1.25-5-3-.762-1.762-2.096-2.762-4-3-4.618-5.491-6.118-11.824-4.5-19 2.775-3.154 5.942-3.654 9.5-1.5.643 11.453 4.976 21.286 13 29.5-2.117.969-4.117.636-6-1z"/><path style="opacity:1" fill="#89519e" d="M101.5 614.5c1.406.473 2.073 1.473 2 3-1.406-.473-2.073-1.473-2-3z"/><path style="opacity:1" fill="#834995" d="M103.5 617.5a24.187 24.187 0 0 1 7 9 24.187 24.187 0 0 1-7-9z"/><path style="opacity:1" fill="#7c3164" d="M675.5 606.5a135.041 135.041 0 0 1-24 31 11.637 11.637 0 0 1 2-5 296.36 296.36 0 0 0 18-23 514.367 514.367 0 0 1 4-3z"/><path style="opacity:1" fill="#77397d" d="M110.5 626.5c3.02 2.023 5.354 4.69 7 8-3.05-2.049-5.383-4.716-7-8z"/><path style="opacity:1" fill="#ffe27a" d="M287.5 626.5a36.077 36.077 0 0 1 7 4c-3.114-.055-5.448-1.388-7-4z"/><path style="opacity:1" fill="#7c1c13" d="M647.5 626.5a102.015 102.015 0 0 1-7.5 10c-1.129 1.641-2.629 2.641-4.5 3a55.546 55.546 0 0 1 12-13z"/><path style="opacity:1" fill="#f59581" d="M386.5 544.5c.667 0 1 .333 1 1v143c-.992.172-1.658-.162-2-1a5112.717 5112.717 0 0 0 1-143z"/><path style="opacity:1" fill="#95519c" d="M117.5 634.5c1.762.762 2.762 2.096 3 4-1.762-.762-2.762-2.096-3-4z"/><path style="opacity:1" fill="#fed46d" d="M225.5 635.5c1.904.238 3.238 1.238 4 3-1.904-.238-3.238-1.238-4-3z"/><path style="opacity:1" fill="#803b7f" d="M120.5 638.5c.996-.086 1.829.248 2.5 1a43.842 43.842 0 0 1 4.5 7c-3.05-2.049-5.383-4.716-7-8z"/><path style="opacity:1" fill="#fee87a" d="M234.5 641.5c1.527-.073 2.527.594 3 2-1.527.073-2.527-.594-3-2z"/><path style="opacity:1" fill="#672a65" d="M127.5 646.5c3 1 5 3 6 6-2.285-1.618-4.285-3.618-6-6z"/><path style="opacity:1" fill="#fedb68" d="M456.5 645.5c1.527-.073 2.527.594 3 2-1.527.073-2.527-.594-3-2z"/><path style="opacity:1" fill="#6b1610" d="M635.5 639.5a4.934 4.934 0 0 1-.5 3 76.287 76.287 0 0 1-13.5 12c4.695-5.026 9.361-10.026 14-15z"/><path style="opacity:1" fill="#fee670" d="M463.5 649.5c1.653.16 2.986.826 4 2-1.88.271-3.213-.396-4-2z"/><path style="opacity:1" fill="#ffe785" d="M467.5 651.5c4.665.557 8.998 1.89 13 4-4.665-.557-8.998-1.89-13-4z"/><path style="opacity:1" fill="#803f8d" d="M133.5 653.5c3.936 2.266 7.269 5.266 10 9-3.936-2.266-7.269-5.266-10-9z"/><path style="opacity:1" fill="#fddf5c" d="M480.5 655.5a9.86 9.86 0 0 1 6 1c-.124.607-.457.94-1 1l-5-2z"/><path style="opacity:1" fill="#ffdc7b" d="M287.5 657.5c1.904.238 3.238 1.238 4 3-1.904-.238-3.238-1.238-4-3z"/><path style="opacity:1" fill="#973720" d="M620.5 655.5c-3.063 4.066-6.729 7.399-11 10 3.063-4.066 6.729-7.399 11-10z"/><path style="opacity:1" fill="#692861" d="M650.5 638.5c-14.448 18.783-31.448 34.783-51 48 8.986-7.984 17.986-15.984 27-24a203.899 203.899 0 0 1 24-24z"/><path style="opacity:1" fill="#96518a" d="M143.5 662.5c1.333 0 2 .667 2 2-1.333 0-2-.667-2-2z"/><path style="opacity:1" fill="#6c3580" d="M145.5 664.5c2.635.973 4.635 2.64 6 5-2.589-.919-4.589-2.586-6-5z"/><path style="opacity:1" fill="#73337b" d="M151.5 669.5c2.635.973 4.635 2.64 6 5-2.589-.919-4.589-2.586-6-5z"/><path style="opacity:1" fill="#49140f" d="M609.5 665.5a44.19 44.19 0 0 1-5 6.5 8.43 8.43 0 0 1-4 .5 46.493 46.493 0 0 1 9-7z"/><path style="opacity:1" fill="#ffe077" d="M361.5 671.5c1.527-.073 2.527.594 3 2-1.527.073-2.527-.594-3-2z"/><path style="opacity:1" fill="#6b3483" d="M157.5 674.5c2.589.919 4.589 2.586 6 5-2.589-.919-4.589-2.586-6-5z"/><path style="opacity:1" fill="#67337d" d="M163.5 679.5a24.187 24.187 0 0 1 9 7 24.187 24.187 0 0 1-9-7z"/><path style="opacity:1" fill="#83210e" d="M597.5 674.5v3a4.934 4.934 0 0 0-3 .5c-5.036 4.857-10.703 8.69-17 11.5a7716.014 7716.014 0 0 1 20-15z"/><path style="opacity:1" fill="#763985" d="M172.5 686.5c1.904.238 3.238 1.238 4 3-1.904-.238-3.238-1.238-4-3z"/><path style="opacity:1" fill="#402148" d="M599.5 686.5c-1.943 2.971-4.609 4.971-8 6a16.332 16.332 0 0 1 2-4c1.714 1.109 2.381.442 2-2h4z"/><path style="opacity:1" fill="#69378b" d="M176.5 689.5a32.728 32.728 0 0 1 11 8 32.728 32.728 0 0 1-11-8z"/><path style="opacity:1" fill="#8d4a9e" d="M591.5 692.5c-.762 1.762-2.096 2.762-4 3 .762-1.762 2.096-2.762 4-3z"/><path style="opacity:1" fill="#a14a24" d="M571.5 692.5c.086.996-.248 1.829-1 2.5a41.965 41.965 0 0 1-12 6.5c3.493-4.151 7.826-7.151 13-9z"/><path style="opacity:1" fill="#85448e" d="M587.5 695.5c-.473 1.406-1.473 2.073-3 2 .321-1.548 1.321-2.215 3-2z"/><path style="opacity:1" fill="#9850a0" d="M187.5 697.5c1.527-.073 2.527.594 3 2-1.527.073-2.527-.594-3-2z"/><path style="opacity:1" fill="#5f2c7e" d="M584.5 697.5c-3.823 3.416-8.157 6.082-13 8 3.823-3.416 8.157-6.082 13-8z"/><path style="opacity:1" fill="#67378b" d="M190.5 699.5c1.527-.073 2.527.594 3 2-1.527.073-2.527-.594-3-2z"/><path style="opacity:1" fill="#eca25a" d="M554.5 702.5c-.473 1.406-1.473 2.073-3 2 .473-1.406 1.473-2.073 3-2z"/><path style="opacity:1" fill="#64190e" d="M558.5 701.5a152.784 152.784 0 0 1-10 7.5 20.093 20.093 0 0 1-6 1.5c2.454-2.781 5.454-4.781 9-6 1.527.073 2.527-.594 3-2l4-1z"/><path style="opacity:1" fill="#673387" d="M193.5 701.5c2.831.579 5.164 1.912 7 4-2.831-.579-5.164-1.912-7-4z"/><path style="opacity:1" fill="#7a439d" d="M200.5 705.5c3.204.883 5.871 2.55 8 5-3.204-.883-5.871-2.55-8-5z"/><path style="opacity:1" fill="#5e2b7e" d="M571.5 705.5c-6.5 4.824-13.5 8.824-21 12 6.5-4.824 13.5-8.824 21-12z"/><path style="opacity:1" fill="#883719" d="M542.5 710.5a48.188 48.188 0 0 1-10 5c2.483-3.241 5.816-4.908 10-5z"/><path style="opacity:1" fill="#693f96" d="M208.5 710.5c2.467.255 4.467 1.255 6 3-2.467-.255-4.467-1.255-6-3z"/><path style="opacity:1" fill="#4f3088" d="M214.5 713.5c1.88-.271 3.213.396 4 2-1.653-.16-2.986-.826-4-2z"/><path style="opacity:1" fill="#883518" d="M532.5 715.5c-2.009 1.565-4.343 2.565-7 3 1.536-2.592 3.869-3.592 7-3z"/><path style="opacity:1" fill="#763f96" d="M220.5 716.5c3.492.91 6.492 2.576 9 5-3.492-.91-6.492-2.576-9-5z"/><path style="opacity:1" fill="#ecbb69" d="m523.5 718.5-2 2h-2c.787-1.604 2.12-2.271 4-2z"/><path style="opacity:1" fill="#73160a" d="M523.5 718.5h2c-.787 1.604-2.12 2.271-4 2l2-2z"/><path style="opacity:1" fill="#e5a65a" d="M516.5 721.5v1l-4 1c.787-1.604 2.12-2.271 4-2z"/><path style="opacity:1" fill="#401d4b" d="M548.5 718.5c-4.736 3.702-10.07 6.368-16 8 .734-1.208 1.067-2.541 1-4 2.357.163 4.69-.003 7-.5 2.174-2.352 4.841-3.519 8-3.5z"/><path style="opacity:1" fill="#4e120c" d="M516.5 722.5c-1.418 1.808-3.418 2.475-6 2v-1h2l4-1z"/><path style="opacity:1" fill="#f1c96a" d="M510.5 723.5v1c-1.653.16-2.986.826-4 2a5.727 5.727 0 0 0-3 1h-1c2.079-2.373 4.746-3.706 8-4z"/><path style="opacity:1" fill="#79130a" d="M510.5 724.5c-.787 1.604-2.12 2.271-4 2 1.014-1.174 2.347-1.84 4-2z"/><path style="opacity:1" fill="#6c378b" d="M229.5 721.5c6.968 2.814 13.968 5.647 21 8.5 1.442.377 2.442 1.21 3 2.5a98.055 98.055 0 0 1-24-11z"/><path style="opacity:1" fill="#772411" d="M502.5 727.5h1c-2.184 2.085-4.851 3.085-8 3 1.926-1.793 4.259-2.793 7-3z"/><path style="opacity:1" fill="#52338d" d="M530.5 727.5c-1.926 1.793-4.259 2.793-7 3 1.926-1.793 4.259-2.793 7-3z"/><path style="opacity:1" fill="#fce08b" d="M492.5 730.5c-2.099 1.112-4.433 1.779-7 2 1.938-1.663 4.272-2.329 7-2z"/><path style="opacity:1" fill="#631108" d="M492.5 730.5h3c-3.713 1.935-7.713 3.268-12 4v-1c.992.172 1.658-.162 2-1 2.567-.221 4.901-.888 7-2z"/><path style="opacity:1" fill="#562b82" d="M523.5 730.5c-1.926 1.793-4.259 2.793-7 3 1.926-1.793 4.259-2.793 7-3z"/><path style="opacity:1" fill="#bb712d" d="M483.5 733.5v1c-1.208.734-2.541 1.067-4 1 .683-1.676 2.017-2.343 4-2z"/><path style="opacity:1" fill="#492a79" d="M516.5 733.5c-1.926 1.793-4.259 2.793-7 3 1.926-1.793 4.259-2.793 7-3z"/><path style="opacity:1" fill="#62150b" d="M479.5 735.5c-.111.617-.444 1.117-1 1.5l-9 1.5 2-2a41.541 41.541 0 0 0 8-1z"/><path style="opacity:1" fill="#6d3b90" d="M509.5 736.5c-1.135 1.713-2.802 2.38-5 2 1.28-1.431 2.947-2.098 5-2z"/><path style="opacity:1" fill="#f5cb66" d="m471.5 736.5-2 2h-1a51.569 51.569 0 0 1-7 1c3.005-1.777 6.338-2.777 10-3z"/><path style="opacity:1" fill="#4c0a07" d="M468.5 738.5c-4.93 2.458-10.263 3.792-16 4l4-2c1.915.284 3.581-.049 5-1a51.569 51.569 0 0 0 7-1z"/><path style="opacity:1" fill="#372174" d="M504.5 738.5c-1.714 1.238-3.714 1.905-6 2 1.602-1.574 3.602-2.241 6-2z"/><path style="opacity:1" fill="#5f308c" d="M253.5 732.5a826.338 826.338 0 0 0 62 19c-21.629-3.568-42.296-9.901-62-19z"/><path style="opacity:1" fill="#3f2478" d="M498.5 740.5c-3.695 1.932-7.695 3.265-12 4 .111-.617.444-1.117 1-1.5a130.775 130.775 0 0 1 11-2.5z"/><path style="opacity:1" fill="#500b06" d="M451.5 742.5c-2.338 1.54-5.005 2.206-8 2 2.405-1.268 5.072-1.935 8-2z"/><path style="opacity:1" fill="#eabd64" d="m456.5 740.5-4 2h-1c-2.928.065-5.595.732-8 2a1101.451 1101.451 0 0 1-38 4c16.7-2.794 33.7-5.461 51-8z"/><path style="opacity:1" fill="#45267e" d="M485.5 744.5c-8.699 3.07-17.699 5.404-27 7 8.67-3.206 17.67-5.54 27-7z"/><path style="opacity:1" fill="#5a3093" d="M315.5 751.5c5.642-.004 10.975.996 16 3-5.576-.371-10.909-1.371-16-3z"/><path style="opacity:1" fill="#382274" d="M451.5 752.5c-7.737 2.139-15.737 3.472-24 4 7.681-2.465 15.681-3.799 24-4z"/><path style="opacity:1" fill="#4d2c87" d="M331.5 754.5c4.914-.138 9.581.528 14 2-4.891-.032-9.557-.699-14-2z"/><path style="opacity:1" fill="#452d80" d="M345.5 756.5c6.886-.103 13.553.564 20 2-6.915.367-13.581-.299-20-2z"/><path style="opacity:1" fill="#3f2673" d="M367.5 758.5h39l-10 2h-1c-.667-1.333-1.333-1.333-2 0h-9l-17-2z"/></svg>