<svg xmlns="http://www.w3.org/2000/svg" width="336" height="367" style="shape-rendering:geometricPrecision;text-rendering:geometricPrecision;image-rendering:optimizeQuality;fill-rule:evenodd;clip-rule:evenodd"><path style="opacity:.012" fill="#a9ff00" d="M-.5-.5h152A5700.845 5700.845 0 0 1 .5.5c.332 42.17-.001 84.17-1 126V-.5z"/><path style="opacity:.975" fill="#0e0e05" d="M151.5-.5h184v231c-1.372 9.816-3.872 19.483-7.5 29-23.838 52.162-63.338 85.995-118.5 101.5-68.135 14.404-125.635-3.762-172.5-54.5a198.504 198.504 0 0 1-28-49 923.178 923.178 0 0 0-8-29 3851.876 3851.876 0 0 0-1.5-88v-14C.499 84.67.832 42.67.5.5c50.503.332 100.836-.001 151-1z"/><path style="opacity:1" fill="#fbd900" d="M6.5 4.5h322c.167 76.334 0 152.667-.5 229a128.495 128.495 0 0 1-3 15c-8.738 21.82-21.238 41.154-37.5 58-19.881 19.788-43.214 34.288-70 43.5-14.46 5.652-29.46 8.486-45 8.5-43.456-1.012-82.123-14.846-116-41.5-26.677-25.927-43.177-57.427-49.5-94.5-.5-72.666-.667-145.333-.5-218z"/><path style="opacity:1" fill="#1b1c28" d="M168.5 9.5c-.923-.803-1.923-.97-3-.5a63.404 63.404 0 0 1-5 6.5 24.6 24.6 0 0 1 5.5-10c1.481.97 2.315 2.304 2.5 4z"/><path style="opacity:1" fill="#24273f" d="M160.5 15.5c-.933 2.87-2.6 5.204-5 7 .956-2.939 2.623-5.272 5-7z"/><path style="opacity:1" fill="#101216" d="M155.5 22.5c.219 1.175-.114 2.175-1 3a106.226 106.226 0 0 0-20-1v4c-.973-1.75-2.307-3.25-4-4.5a340.054 340.054 0 0 0 25-1.5z"/><path style="opacity:1" fill="#156aee" d="M168.5 9.5a46.475 46.475 0 0 1 7 9c1.6 2.071 2.1 4.405 1.5 7a179.617 179.617 0 0 1-10 15c-2.33-2.682-2.83-2.349-1.5 1a121.871 121.871 0 0 1-22 1 8.43 8.43 0 0 0-.5-4 39.022 39.022 0 0 1-5.5-6 310.678 310.678 0 0 1-3-4v-4c6.726-.295 13.392.038 20 1 .886-.825 1.219-1.825 1-3 2.4-1.796 4.067-4.13 5-7a63.404 63.404 0 0 0 5-6.5c1.077-.47 2.077-.303 3 .5z"/><path style="opacity:1" fill="#1a191a" d="M178.5 22.5c8.36-.331 16.693.002 25 1-5.25 5.491-9.25 11.825-12 19a42.594 42.594 0 0 0 3.5 8 182.038 182.038 0 0 0 8.5 10.5l-24 1a29.048 29.048 0 0 1-3 4.5c-.028-2.082.639-3.916 2-5.5l18-1a4.932 4.932 0 0 0 1-2.5 173.165 173.165 0 0 0-9-15 88.55 88.55 0 0 1 9.5-15c.667-1 .667-2 0-3-6.443-1.127-12.943-1.127-19.5 0v-2z"/><path style="opacity:1" fill="#0a2b6b" d="M175.5 18.5c1.762.762 2.762 2.096 3 4v2a221.453 221.453 0 0 1-10 17l1 2c-2.315.734-4.148 2.068-5.5 4-.492-1.049-.326-2.049.5-3a111.123 111.123 0 0 0-21-1v-1c7.363.33 14.697-.003 22-1-1.33-3.349-.83-3.682 1.5-1a179.617 179.617 0 0 0 10-15c.6-2.595.1-4.929-1.5-7z"/><path style="opacity:1" fill="#146aee" d="M176.5 66.5a66.11 66.11 0 0 0-7 9c-1.545.952-3.212 1.285-5 1a99.047 99.047 0 0 0-9-15 111.123 111.123 0 0 0-21-1 52.174 52.174 0 0 1 3-9c2.961-1.912 4.961-4.579 6-8 7.032-.33 14.032.003 21 1-.826.951-.992 1.951-.5 3 1.352-1.932 3.185-3.266 5.5-4l-1-2a221.453 221.453 0 0 0 10-17c6.557-1.127 13.057-1.127 19.5 0 .667 1 .667 2 0 3a88.55 88.55 0 0 0-9.5 15 173.165 173.165 0 0 1 9 15 4.932 4.932 0 0 1-1 2.5l-18 1c-1.361 1.584-2.028 3.418-2 5.5z"/><path style="opacity:1" fill="#1d1d22" d="M137.5 32.5a39.022 39.022 0 0 0 5.5 6 8.43 8.43 0 0 1 .5 4v1c-1.039 3.421-3.039 6.088-6 8a70.823 70.823 0 0 1 5-9.5 26.057 26.057 0 0 1-5-9.5z"/><path style="opacity:1" fill="#7d6d04" d="m131.5 60.5 23 2a144.874 144.874 0 0 1-24-1c.124-.607.457-.94 1-1z"/><path style="opacity:1" fill="#0b1404" d="M50.5 61.5v2a254.295 254.295 0 0 1-8.5 5c-.388-.928-1.055-1.595-2-2-1.139.49-2.305.823-3.5 1-2.652.05-3.652 1.05-3 3-2.467 2.29-2.467 4.457 0 6.5a4.932 4.932 0 0 1-3 .5v-12c5.4.191 10.733-.309 16-1.5.55-1.845 1.55-3.345 3-4.5.797.457 1.13 1.124 1 2z"/><path style="opacity:1" fill="#016318" d="M50.5 63.5c-.27 1.929.23 3.595 1.5 5l1-2c.498 3.317.665 6.65.5 10-2.636.98-5.303 1.98-8 3-1.614-.303-2.948-.97-4-2-1.669-3.38-3.336-6.714-5-10a14.076 14.076 0 0 0 3.5-1c.945.405 1.612 1.072 2 2a254.295 254.295 0 0 0 8.5-5z"/><path style="opacity:1" fill="#14161b" d="M137.5 51.5a52.174 52.174 0 0 0-3 9c7.032-.33 14.032.003 21 1a99.047 99.047 0 0 1 9 15c1.788.285 3.455-.048 5-1a66.11 66.11 0 0 1 7-9 56.618 56.618 0 0 1-10 15c-3.999-6.324-7.999-12.657-12-19l-23-2a44.18 44.18 0 0 1 6-9z"/><path style="opacity:1" fill="#01811f" d="M73.5 76.5a19.16 19.16 0 0 1-2.5 5c-.718.95-1.55 1.117-2.5.5 1.265-1.337 1.765-2.837 1.5-4.5a27.2 27.2 0 0 0-3.5 6c-2.028-2.367-4.528-4.367-7.5-6a12.988 12.988 0 0 0-5.5-1 50.441 50.441 0 0 0-.5-10l-1 2c-1.27-1.405-1.77-3.071-1.5-5v-2h1c.06.543.393.876 1 1 .886-.825 1.219-1.825 1-3a8.434 8.434 0 0 1 4 .5 34.238 34.238 0 0 0 11 5.5l2.5 3c.117 3.004.95 5.671 2.5 8z"/><path style="opacity:1" fill="#008420" d="M106.5 79.5c-1.344 4.004-4.011 5.337-8 4 .503-4.356 2.503-7.69 6-10 1.929.27 3.595-.23 5-1.5-1.333-1-1.333-2 0-3l-4-3a25.154 25.154 0 0 0 4-4.5c1.208-.734 2.541-1.067 4-1 1.427 4.733 2.094 9.4 2 14-13.317.17-13.317.67 0 1.5l-2 2c-2.536.186-4.869.686-7 1.5z"/><path style="opacity:1" fill="#18270a" d="M144.5 76.5c-2.281-.423-3.948.244-5 2-2.882-.108-5.215-1.274-7-3.5a14.984 14.984 0 0 0 3-3.5l-2.5-1a573.641 573.641 0 0 1-17.5 9c-1.545.952-3.212 1.285-5 1-1.068-.934-2.401-1.268-4-1 2.131-.814 4.464-1.314 7-1.5l2-2c-13.317-.83-13.317-1.33 0-1.5.094-4.6-.573-9.267-2-14-1.459-.067-2.792.266-4 1l-4 1c-.832-.828-.499-1.662 1-2.5 3.871-.64 4.538-2.14 2-4.5a18.085 18.085 0 0 0-3.5 2 22.848 22.848 0 0 0-6.5-8 4.452 4.452 0 0 0-1.5 2c-2.667-2.667-5.333-2.667-8 0-2.09-1.29-3.424-.624-4 2-2.09-1-3.757-.333-5 2a8.434 8.434 0 0 0-.5 4h-3c-.02 1.643.647 2.976 2 4-.457.797-1.124 1.13-2 1-2.207 2.216-2.207 4.382 0 6.5-1.981.605-2.315 1.605-1 3-.566.995-1.233 1.828-2 2.5-1.55-2.329-2.383-4.996-2.5-8l-2.5-3c-3.994-1.167-7.66-3-11-5.5a8.434 8.434 0 0 0-4-.5c.219 1.175-.114 2.175-1 3-.607-.124-.94-.457-1-1 .185-2.39 1.518-3.39 4-3a59.622 59.622 0 0 0 10 2.5l7 6.5c2.73-11.563 9.896-18.563 21.5-21 5.475.81 9.142 3.81 11 9 .347-1.68 1.347-2.68 3-3 1.381 2.368 3.381 4.035 6 5 1.22 5.397 2.72 10.73 4.5 16 4.116.817 7.783-.35 11-3.5a32.438 32.438 0 0 1 8-.5l-1 6c2.885-.306 5.552.027 8 1z"/><path style="opacity:1" fill="#065015" d="m105.5 62.5 4-1a25.154 25.154 0 0 1-4 4.5l4 3c-1.333 1-1.333 2 0 3-1.405 1.27-3.071 1.77-5 1.5a4.934 4.934 0 0 0-.5-3c-1.183 1.231-2.349 1.231-3.5 0a14.984 14.984 0 0 0 3-3.5c-1.566-.608-2.9-1.442-4-2.5.185-1.696 1.019-3.03 2.5-4 .617.95.451 1.782-.5 2.5 1.755 3.29 3.089 3.123 4-.5z"/><path style="opacity:1" fill="#01771d" d="M105.5 62.5c-.911 3.623-2.245 3.79-4 .5.951-.718 1.117-1.55.5-2.5-1.481.97-2.315 2.304-2.5 4-.997.03-1.664-.47-2-1.5.488-1.584 1.488-2.75 3-3.5l-1.5-1c-1.011.556-1.844 1.222-2.5 2-1.193-2.01-1.193-4.176 0-6.5l-.5-1.5c-.667 1.333-1.333 1.333-2 0a26.094 26.094 0 0 1-3.5 5c-.952 1.545-1.285 3.212-1 5a81.718 81.718 0 0 1-2.5-3c-1.416 1.218-1.25 2.551.5 4l-.5 2c-2.588-.837-4.422-2.503-5.5-5l-1 1c2.282 2.138 2.949 4.471 2 7 .039-1.256-.461-2.256-1.5-3 .263 1.45.096 2.784-.5 4a83.44 83.44 0 0 1-4-5c.876.13 1.543-.203 2-1-1.353-1.024-2.02-2.357-2-4h3a8.434 8.434 0 0 1 .5-4c1.243-2.333 2.91-3 5-2 .576-2.624 1.91-3.29 4-2 2.667-2.667 5.333-2.667 8 0a4.452 4.452 0 0 1 1.5-2 22.848 22.848 0 0 1 6.5 8 18.085 18.085 0 0 1 3.5-2c2.538 2.36 1.871 3.86-2 4.5-1.499.838-1.832 1.672-1 2.5z"/><path style="opacity:1" fill="#023f11" d="M96.5 60.5a67.988 67.988 0 0 1-7 2c-.285-1.788.048-3.455 1-5a26.094 26.094 0 0 0 3.5-5c.667 1.333 1.333 1.333 2 0l.5 1.5c-1.193 2.324-1.193 4.49 0 6.5z"/><path style="opacity:1" fill="#027c1e" d="M36.5 67.5c1.664 3.286 3.331 6.62 5 10a29.77 29.77 0 0 1-2 7c-1.175-.219-2.175.114-3 1l5 2a18.941 18.941 0 0 0-5 3 9.106 9.106 0 0 0-5-1c-.24-1.967.094-3.8 1-5.5-1.655-1.444-2.322-3.278-2-5.5v-1a4.932 4.932 0 0 0 3-.5c-2.467-2.043-2.467-4.21 0-6.5-.652-1.95.348-2.95 3-3z"/><path style="opacity:1" fill="#18380d" d="M191.5 74.5c1.792.81 3.792 1.31 6 1.5-.556.383-.889.883-1 1.5-1.814-.376-3.481-.376-5 0l-1 1.5a9.568 9.568 0 0 0 3 3c-1.519-.33-2.852-.164-4 .5h-1c-.477-3.418.523-6.084 3-8z"/><path style="opacity:1" fill="#016f1b" d="M139.5 78.5c1.478-.262 2.811.071 4 1-2.776 2.578-6.109 4.078-10 4.5-2.009 2.996-4.176 3.496-6.5 1.5l-1.5-6-3.5 5-1-3c-2.849 1.81-6.015 2.81-9.5 3-.179 2.106-1.179 3.772-3 5-1.546-.712-2.546-1.878-3-3.5a207.341 207.341 0 0 1 5-5.5c1.788.285 3.455-.048 5-1a573.641 573.641 0 0 0 17.5-9l2.5 1a14.984 14.984 0 0 1-3 3.5c1.785 2.226 4.118 3.392 7 3.5z"/><path style="opacity:1" fill="#035b17" d="M76.5 64.5a83.44 83.44 0 0 0 4 5c.596-1.216.763-2.55.5-4 1.039.744 1.539 1.744 1.5 3 .146 2.442-.687 3.11-2.5 2-1.701 1.524-1.201 2.524 1.5 3 2.982 4.082 2.315 7.082-2 9-1.53-.029-2.696-.695-3.5-2-.5 1.167-1.333 2-2.5 2.5.948.483 1.948.65 3 .5.16 1.7-.007 3.366-.5 5-.718-.95-1.55-1.117-2.5-.5a32.034 32.034 0 0 0 4 2.5c-2.498-.621-4.832.046-7 2-.672-1.485-.006-2.651 2-3.5-1.084-2.825-2.25-2.992-3.5-.5-1.892-1.117-2.725-2.784-2.5-5a27.2 27.2 0 0 1 3.5-6c.265 1.663-.235 3.163-1.5 4.5.95.617 1.782.45 2.5-.5a19.16 19.16 0 0 0 2.5-5c.767-.672 1.434-1.505 2-2.5-1.315-1.395-.981-2.395 1-3-2.207-2.118-2.207-4.284 0-6.5z"/><path style="opacity:1" fill="#036c1c" d="M196.5 77.5c.423.765.757 1.598 1 2.5-1.486.251-2.486 1.585-3 4a26.078 26.078 0 0 1 5 3.5c-1.347 3.875-2.514 3.875-3.5 0-2.926 4.27-4.759 3.936-5.5-1 3.949-.193 3.949-.693 0-1.5-.752-.67-1.086-1.504-1-2.5 1.148-.664 2.481-.83 4-.5a9.568 9.568 0 0 1-3-3l1-1.5c1.519-.376 3.186-.376 5 0z"/><path style="opacity:1" fill="#026819" d="M224.5 64.5a44.01 44.01 0 0 0 3 5.5c-1.322 2.52-.655 3.02 2 1.5 1 .333 1.667 1 2 2-1.873.175-3.873 1.009-6 2.5.971 1.041 1.971 1.874 3 2.5a16.062 16.062 0 0 1 5 2l2 9a21.827 21.827 0 0 1 5 6 3.647 3.647 0 0 1-1 1.5c1.438.219 2.771.719 4 1.5-1.168 1.406-.835 2.572 1 3.5-1.478 2.039-3.478 2.872-6 2.5.276-3.352-.891-6.02-3.5-8l-1.5 3c.346 1.196.846 1.196 1.5 0a25.716 25.716 0 0 1 1.5 5.5c-.215 1.908-1.215 3.074-3 3.5a85.378 85.378 0 0 0-3-10l-2 1a65.271 65.271 0 0 0-4-9 3497.672 3497.672 0 0 0-11-9c-3.295 1.194-4.795-.139-4.5-4-1.011.837-2.178 1.17-3.5 1-.791 2.19-.791 4.19 0 6-.342.838-1.008 1.172-2 1-1.265-.98-2.599-1.98-4-3l2-2a6.845 6.845 0 0 1-1-4c4.407 1.871 5.74.538 4-4a2.429 2.429 0 0 1 .5-2c1.585.876 2.585 2.21 3 4a4.458 4.458 0 0 1 1.5-2 85.735 85.735 0 0 0 10 4.5 15.252 15.252 0 0 1 1.5 4.5c.414-.457.914-.79 1.5-1l9 11c.561 1.926.727 3.926.5 6 2.985-2.696 3.152-5.53.5-8.5.235-.873.569-1.707 1-2.5-2.666-.539-4.833-1.872-6.5-4a107.598 107.598 0 0 1-6.5-11c2.354-1.622 2.354-3.122 0-4.5.971-1.481 2.304-2.315 4-2.5z"/><path style="opacity:1" fill="#f6d401" d="M261.5 110.5a24.93 24.93 0 0 0-1 8c1.126 1.358 1.126 2.692 0 4a11.068 11.068 0 0 0-3.5-2c-1.659 2.965-3.993 5.299-7 7l-1-1c-.745 1.49-1.912 2.49-3.5 3a155.846 155.846 0 0 1-7-6 74.11 74.11 0 0 0-4-10c2.069-3.073 4.736-5.406 8-7 7.447-3.451 13.78-2.118 19 4z"/><path style="opacity:1" fill="#182c0d" d="M31.5 100.5c-1.744 2.25-3.744 4.417-6 6.5 3.543 1.608 6.543 3.942 9 7 1.077.47 2.077.303 3-.5-.321 1.548-1.321 2.215-3 2a40.946 40.946 0 0 0-10-7 6.544 6.544 0 0 0-3 3c6.818 4.093 6.484 4.759-1 2-.929 1.189-1.262 2.522-1 4 3.368-.464 4.702-.131 4 1-3.326.467-3.66 1.634-1 3.5-3.146.11-4.146 1.443-3 4-3.772.611-3.772 1.611 0 3a4.934 4.934 0 0 1-3 .5c-.14 1.624.527 2.79 2 3.5-.566.995-1.233 1.828-2 2.5-1.868-6.019-.868-11.519 3-16.5-2.46-2.882-2.293-5.382.5-7.5.494-1.634.66-3.301.5-5 1.808.009 3.475-.491 5-1.5 1.614-2.127 3.614-3.627 6-4.5z"/><path style="opacity:1" fill="#02781d" d="M31.5 100.5a18.452 18.452 0 0 1 6 .5c2.909 1.406 4.909 3.572 6 6.5a51.648 51.648 0 0 0 1 7 6.845 6.845 0 0 0-4 1 184.223 184.223 0 0 0-3-2c-.923.803-1.923.97-3 .5-2.457-3.058-5.457-5.392-9-7 2.256-2.083 4.256-4.25 6-6.5z"/><path style="opacity:1" fill="#221d05" d="M250.5 108.5a4.934 4.934 0 0 1 3 .5c1.674 1.506 2.674 3.339 3 5.5-2.198-.514-4.198-1.514-6-3-1.062-.925-1.062-1.925 0-3z"/><path style="opacity:1" fill="#035115" d="M43.5 107.5a57.917 57.917 0 0 1 13.5 5c1.03-.336 1.53-1.003 1.5-2 1 .333 1.667 1 2 2-.438-.065-.772.101-1 .5a14.503 14.503 0 0 1 4.5 4.5l1-1a22.381 22.381 0 0 0 6.5 3v4c-1.624.14-2.79-.527-3.5-2-1.309 2.391-2.309 2.391-3 0a3.647 3.647 0 0 1-1.5 1l-3-3c.987-3.867.487-3.867-1.5 0a26.803 26.803 0 0 0-7.5-3.5 15.28 15.28 0 0 1-1.5-4.5c-1.506 1.674-3.34 2.674-5.5 3a51.648 51.648 0 0 1-1-7z"/><path style="opacity:1" fill="#027b1d" d="M317.5 112.5c-.067 1.459.266 2.792 1 4-.904.709-1.237 1.709-1 3-2.897.375-5.563-.125-8-1.5a7.293 7.293 0 0 0 3-2c-3.014 1.272-5.347.439-7-2.5a37.138 37.138 0 0 0 7.5-9c2.091 3.152 1.258 5.485-2.5 7l1 1c2.178-2.538 4.178-2.538 6 0z"/><path style="opacity:1" fill="#039324" d="M34.5 115.5v1c-2.177-.086-4.177-.753-6-2-1.104 1.131-.77 1.965 1 2.5a32.79 32.79 0 0 0-3.5 5.5c-1.481-.971-2.315-2.304-2.5-4 .702-1.131-.632-1.464-4-1-.262-1.478.071-2.811 1-4 7.484 2.759 7.818 2.093 1-2a6.544 6.544 0 0 1 3-3 40.946 40.946 0 0 1 10 7z"/><path style="opacity:1" fill="#746504" d="M261.5 110.5c2.731 3.757 3.231 7.424 1.5 11l-1-6c-.232 1.237-.732 2.237-1.5 3a24.93 24.93 0 0 1 1-8z"/><path style="opacity:1" fill="#081506" d="M99.5 64.5c1.1 1.058 2.434 1.892 4 2.5a14.984 14.984 0 0 1-3 3.5c1.151 1.231 2.317 1.231 3.5 0 .483.948.649 1.948.5 3-3.497 2.31-5.497 5.644-6 10 3.989 1.337 6.656.004 8-4 1.599-.268 2.932.066 4 1a207.341 207.341 0 0 0-5 5.5c.454 1.622 1.454 2.788 3 3.5 1.821-1.228 2.821-2.894 3-5 3.485-.19 6.651-1.19 9.5-3l1 3 3.5-5 1.5 6c2.324 1.996 4.491 1.496 6.5-1.5 3.891-.422 7.224-1.922 10-4.5-1.189-.929-2.522-1.262-4-1 1.052-1.756 2.719-2.423 5-2 1.844 1.779 2.51 4.112 2 7 1.447.634 2.113 1.8 2 3.5-.326 2.484-1.326 4.651-3 6.5 1.545.952 3.212 1.285 5 1a31.88 31.88 0 0 0 1 8.5 39.673 39.673 0 0 1-4 6.5c2.123 4.624 5.623 7.624 10.5 9 .667 4 .667 8 0 12-4.122 3.434-6.455 7.768-7 13a9.454 9.454 0 0 1-2.5 1.5 230.825 230.825 0 0 0 20.5 15.5c3.785-3.631 7.951-6.631 12.5-9-4.103 4.599-8.936 8.266-14.5 11a4117.688 4117.688 0 0 1-17.5-13.5 25.238 25.238 0 0 0-10 0c-1.734 4.316-1.067 8.149 2 11.5-3.037-.052-5.704.948-8 3 1.735 3.339 1.068 6.006-2 8-.929 1.189-1.262 2.522-1 4h-5c-.018 3.421-1.351 6.088-4 8v-1a44.206 44.206 0 0 0 3-8c1.333-1.333 2.667-1.333 4 0 .806-2.872 2.14-5.372 4-7.5-1.903-5.036-4.237-9.203-7-12.5l1-2a133.512 133.512 0 0 0-8-9.5 15.39 15.39 0 0 0-6-3c.556-.383.889-.883 1-1.5a111.277 111.277 0 0 0-9.5-7c-1.612.223-3.112.223-4.5 0 .296-1.903.963-3.57 2-5 1.381 3.172 3.381 4.006 6 2.5-.576-1.714-1.743-2.881-3.5-3.5a34.251 34.251 0 0 0-1.5-8 50.771 50.771 0 0 0-1 8l-2-1c1.488-4.105 1.321-8.105-.5-12-.758 2.269-.591 4.436.5 6.5a54.662 54.662 0 0 1-2 4.5c-.607-.124-.94-.457-1-1 1.274-3.765.94-7.431-1-11 .086-.996-.248-1.829-1-2.5-5.949-4.465-11.782-4.299-17.5.5a15.83 15.83 0 0 1-3.5 5.5c.305 3.61.305 7.277 0 11 2.416 4.446 3.416 4.28 3-.5a47.296 47.296 0 0 0 5.5 6c.717-.544 1.217-1.211 1.5-2 1.029.626 2.029 1.459 3 2.5 2.385.556 4.718.39 7-.5-.453.958-1.12 1.792-2 2.5-2.398.374-4.731.374-7 0 1.455 2.016 3.455 2.849 6 2.5-2.098 1.555-4.432 2.888-7 4a9.107 9.107 0 0 1 1 5h10c.219 1.175-.114 2.175-1 3-2.022-1.673-4.356-2.34-7-2a4.932 4.932 0 0 0 .5 3c.893-1.211 1.726-1.211 2.5 0-.505 1.419-1.505 2.085-3 2l-2 2c-3.248 1.076-3.581.41-1-2-1.638-1.205-1.97-2.538-1-4-2.544-3.217-2.544-6.384 0-9.5-1.414-1.548-3.08-2.215-5-2 1.537 1.11 2.204 2.61 2 4.5-1.478-.262-2.811.071-4 1 1.168 1.406.835 2.572-1 3.5 1.79.415 3.124 1.415 4 3a4.934 4.934 0 0 1-3 .5c-.14 1.624.527 2.79 2 3.5-2.667 1.333-2.667 2.667 0 4-1.995.924-2.328 2.09-1 3.5a20.676 20.676 0 0 1-1 5c-.904.709-1.237 1.709-1 3-.448 2.396-1.614 4.73-3.5 7-1.673-2.417-3.507-2.417-5.5 0a16.874 16.874 0 0 1-8 1 608.262 608.262 0 0 1-5-11c.25-1.422 1.083-2.422 2.5-3 .029-2.826.195-5.493.5-8 2.3-1.575 3.133-3.575 2.5-6 2.712.834 5.379.5 8-1a47.69 47.69 0 0 1 5.5-7c.929-1.189 1.262-2.522 1-4a4.934 4.934 0 0 0 3-.5c-3.947-1.108-6.114.392-6.5 4.5-.67-.752-1.504-1.086-2.5-1v3c-1.643-.02-2.976.647-4 2-2.285-.916-3.451.084-3.5 3a7.253 7.253 0 0 0-2.5-2c-3.584 2.326-7.251 3.659-11 4-2.205.352-4.038 1.352-5.5 3-.417-1.256-1.25-1.923-2.5-2-5.379-.023-9.712-2.189-13-6.5-2.307-.779-4.307-.279-6 1.5-1.611-.82-2.278-2.154-2-4 1.667 1.333 3.333 1.333 5 0a31.705 31.705 0 0 1 6 2c1.108.79 2.442 1.29 4 1.5-1.493 1.156-1.326 1.99.5 2.5a3.944 3.944 0 0 0 2-1c2.456 1.821 5.29 2.488 8.5 2a18.437 18.437 0 0 0-.5-6c-3.754-1.468-6.92-3.801-9.5-7-1.109 1.09-2.109 1.09-3 0l2-3c-.774-1.211-1.607-1.211-2.5 0-.597-2.424.237-4.257 2.5-5.5-.26-1.261-.926-2.261-2-3a19.885 19.885 0 0 0 4-3.5 3.646 3.646 0 0 0-1-1.5c.916-.278 1.583-.778 2-1.5v-1c1.679.215 2.679-.452 3-2 .982.641 1.982 1.307 3 2a6.845 6.845 0 0 1 4-1c2.16-.326 3.994-1.326 5.5-3a15.28 15.28 0 0 0 1.5 4.5c2.72.797 5.22 1.963 7.5 3.5 1.987-3.867 2.487-3.867 1.5 0l3 3a3.647 3.647 0 0 0 1.5-1c.691 2.391 1.691 2.391 3 0 .71 1.473 1.876 2.14 3.5 2v-4a22.381 22.381 0 0 1-6.5-3l-1 1a14.503 14.503 0 0 0-4.5-4.5c.228-.399.562-.565 1-.5h2c.974 1.585 2.474 2.585 4.5 3 .456-1.244-.044-2.077-1.5-2.5 1.091-2.064 1.258-4.231.5-6.5a3.647 3.647 0 0 1-1.5 1c-.184-1.54-1.35-2.873-3.5-4-.765.07-1.265.403-1.5 1-2.487-2.791-4.82-2.624-7 .5l4 1a6.802 6.802 0 0 0-3 1.5 29.744 29.744 0 0 0 5 3c.03.997-.47 1.664-1.5 2a57.917 57.917 0 0 0-13.5-5c-1.091-2.928-3.091-5.094-6-6.5a18.452 18.452 0 0 0-6-.5 11.81 11.81 0 0 0 2-3.5 940.47 940.47 0 0 0-3.5-5.5c-.814-4.52-.647-8.854.5-13-.322 2.222.345 4.056 2 5.5-.906 1.7-1.24 3.533-1 5.5a9.106 9.106 0 0 1 5 1 18.941 18.941 0 0 1 5-3l-5-2c.825-.886 1.825-1.219 3-1a29.77 29.77 0 0 0 2-7c1.052 1.03 2.386 1.697 4 2 2.697-1.02 5.364-2.02 8-3 1.9-.067 3.734.266 5.5 1 2.972 1.633 5.472 3.633 7.5 6-.225 2.216.608 3.883 2.5 5 1.25-2.492 2.416-2.325 3.5.5-2.006.849-2.672 2.015-2 3.5 2.168-1.954 4.502-2.621 7-2a32.034 32.034 0 0 1-4-2.5c.95-.617 1.782-.45 2.5.5.493-1.634.66-3.3.5-5a4.932 4.932 0 0 1-3-.5c1.167-.5 2-1.333 2.5-2.5.804 1.305 1.97 1.971 3.5 2 4.315-1.918 4.982-4.918 2-9-2.701-.476-3.201-1.476-1.5-3 1.813 1.11 2.646.442 2.5-2 .949-2.529.282-4.862-2-7l1-1c1.078 2.497 2.912 4.163 5.5 5l.5-2c-1.75-1.449-1.916-2.782-.5-4a81.718 81.718 0 0 0 2.5 3 67.988 67.988 0 0 0 7-2c.656-.778 1.489-1.444 2.5-2l1.5 1c-1.512.75-2.512 1.916-3 3.5.336 1.03 1.003 1.53 2 1.5z"/><path style="opacity:1" fill="#015614" d="M101.5 126.5v-1c.11-2.601.443-5.268 1-8a34.251 34.251 0 0 1 1.5 8c1.757.619 2.924 1.786 3.5 3.5-2.619 1.506-4.619.672-6-2.5z"/><path style="opacity:1" fill="#01781d" d="M136.5 115.5c-.597-.235-.93-.735-1-1.5.556-1.011 1.222-1.844 2-2.5 1.788.285 3.455-.048 5-1-3.27-.558-6.27-1.558-9-3-.453-.958-1.119-1.792-2-2.5 2.435-.075 3.102-.908 2-2.5 2.649-1.609 5.649-2.443 9-2.5-4.059-1.117-7.392-2.617-10-4.5-1.09-1.109-1.09-2.109 0-3a85.676 85.676 0 0 0 17 4v4c-1.478-.262-2.811.071-4 1l3 4a18.33 18.33 0 0 0-4 6 32.367 32.367 0 0 0 4.5 3c.311 1.242-.189 2.242-1.5 3l1 1c.946-.487 1.946-.82 3-1 1.556 1.047 3.223 1.714 5 2a25.879 25.879 0 0 1-1 10 167.705 167.705 0 0 0-17-5.5c2.661-1.658 5.327-3.324 8-5-2.589.179-5.089 1.013-7.5 2.5-1.811-.924-1.645-1.757.5-2.5-1.314-.985-2.314-2.152-3-3.5z"/><path style="opacity:1" fill="#7a6902" d="M95.5 111.5c1.94 3.569 2.274 7.235 1 11a185.59 185.59 0 0 0-1-11z"/><path style="opacity:1" fill="#006b1a" d="M69.5 110.5c1.194.47 1.86 1.47 2 3l-1 3a9.864 9.864 0 0 1-1-6z"/><path style="opacity:1" fill="#014d13" d="M113.5 108.5c2.216-.225 3.883.608 5 2.5-2.981 1.164-5.981 1.831-9 2a3.647 3.647 0 0 1-1-1.5c2.044-.565 3.71-1.565 5-3z"/><path style="opacity:1" fill="#031806" d="M133.5 107.5c2.73 1.442 5.73 2.442 9 3-1.545.952-3.212 1.285-5 1a47.499 47.499 0 0 1-5.5-1c-1.711-.061-3.044.606-4 2a9.454 9.454 0 0 0-2.5-1.5c1.829-.273 3.329-1.107 4.5-2.5.414.457.914.791 1.5 1a31.147 31.147 0 0 1 2-2z"/><path style="opacity:1" fill="#034c14" d="M59.5 104.5c.235-.597.735-.93 1.5-1 2.15 1.127 3.316 2.46 3.5 4a3.647 3.647 0 0 0 1.5-1c.758 2.269.591 4.436-.5 6.5 1.456.423 1.956 1.256 1.5 2.5-2.026-.415-3.526-1.415-4.5-3 .437-1.574 1.437-2.741 3-3.5-1.663-.265-3.163.235-4.5 1.5-.311-1.242.189-2.242 1.5-3a4.458 4.458 0 0 0-2-1.5c1.212-1.107.879-1.607-1-1.5z"/><path style="opacity:1" fill="#017c1e" d="M59.5 104.5c1.879-.107 2.212.393 1 1.5a4.458 4.458 0 0 1 2 1.5c-1.311.758-1.811 1.758-1.5 3 1.337-1.265 2.837-1.765 4.5-1.5-1.563.759-2.563 1.926-3 3.5h-2c-.333-1-1-1.667-2-2a29.744 29.744 0 0 1-5-3 6.802 6.802 0 0 1 3-1.5l-4-1c2.18-3.124 4.513-3.291 7-.5z"/><path style="opacity:1" fill="#036018" d="M133.5 102.5c1.102 1.592.435 2.425-2 2.5.881.708 1.547 1.542 2 2.5a31.147 31.147 0 0 0-2 2 3.647 3.647 0 0 1-1.5-1c-1.171 1.393-2.671 2.227-4.5 2.5.916.374 1.75.874 2.5 1.5.956-1.394 2.289-2.061 4-2 1.825.443 3.658.777 5.5 1-.778.656-1.444 1.489-2 2.5.07.765.403 1.265 1 1.5.131.876-.202 1.543-1 2-1.333-1.333-2.667-1.333-4 0a10.258 10.258 0 0 1-1.5-4c-1 2.667-2 2.667-3 0-1.688 1.545-3.688 2.545-6 3a3.647 3.647 0 0 0-1.5-1c-1.846 2.092-4.179 3.426-7 4a4.457 4.457 0 0 1-1.5-2 8.43 8.43 0 0 0-.5 4h-6c-.117-1.984.55-3.65 2-5a3.647 3.647 0 0 1 1.5 1c2.382-2.626 4.715-2.96 7-1 2.587-2.621 5.753-4.288 9.5-5l-5-2c5.748-1.7 10.414-4.034 14-7z"/><path style="opacity:1" fill="#054813" d="M97.5 110.5a2.429 2.429 0 0 0 2-.5c-1.363-2.129-1.03-2.629 1-1.5 1.254-1.759.921-3.259-1-4.5.752-.671 1.086-1.504 1-2.5-1.51-4.944-.676-5.278 2.5-1 .743-2.145 1.576-2.311 2.5-.5a95.698 95.698 0 0 0 0 7.5c-2.882 1.782-3.215 3.615-1 5.5l-1.5 1.5c-1.461-1.968-3.295-3.302-5.5-4z"/><path style="opacity:1" fill="#f1d001" d="M95.5 111.5a185.59 185.59 0 0 1 1 11c.06.543.393.876 1 1a54.662 54.662 0 0 0 2-4.5c-1.091-2.064-1.258-4.231-.5-6.5 1.821 3.895 1.988 7.895.5 12-.667 0-1 .333-1 1-.929 1.436-2.095 2.769-3.5 4a15.967 15.967 0 0 0-.5-7 64.538 64.538 0 0 0-4 6.5c-3.082-.64-5.415-.474-7 .5-.283.789-.783 1.456-1.5 2a47.296 47.296 0 0 1-5.5-6c.416 4.78-.584 4.946-3 .5.305-3.723.305-7.39 0-11a15.83 15.83 0 0 0 3.5-5.5c5.718-4.799 11.551-4.965 17.5-.5.752.671 1.086 1.504 1 2.5z"/><path style="opacity:1" fill="#2c2608" d="M82.5 110.5c5.47 1.186 5.803 2.352 1 3.5-1.735 2.882-2.735 2.882-3 0 .362-1.434 1.028-2.601 2-3.5z"/><path style="opacity:1" fill="#016318" d="M75.5 100.5c1.532.87 3.032.536 4.5-1 1.368 1.527 1.868 3.027 1.5 4.5-2.083.475-3.916 1.308-5.5 2.5l-1.5-1a9.107 9.107 0 0 0 1-5z"/><path style="opacity:1" fill="#018721" d="M126.5 92.5h3c.852 5.37-.815 9.703-5 13a78.872 78.872 0 0 0-11 0c-1.676-.683-2.343-2.017-2-4 4.135.61 7.801-.223 11-2.5l-1.5-.5c-1.597 1.385-3.43 2.051-5.5 2v-3h3v-5c3.685.728 5.518 3.06 5.5 7 1.016-1.134 1.683-.8 2 1 1.813-2.578 1.98-5.245.5-8z"/><path style="opacity:1" fill="#017d1d" d="M110.5 91.5a41.67 41.67 0 0 1 2 6 29.077 29.077 0 0 0-3 8c-.31 1.238-.81 1.238-1.5 0a30.736 30.736 0 0 1 2.5-14z"/><path style="opacity:1" fill="#00781d" d="M75.5 100.5c-1.567 1.181-2.4 2.847-2.5 5a8.189 8.189 0 0 0-2.5-4c1.371-2.12.705-3.12-2-3v-5a6.845 6.845 0 0 1 4 1c-.204-1.03.296-2.03 1.5-3 2.058.61 2.891 1.61 2.5 3a4.452 4.452 0 0 0 1.5-2c.374.916.874 1.75 1.5 2.5-1.797 1.53-3.13 3.364-4 5.5z"/><path style="opacity:1" fill="#01751c" d="M47.5 93.5c.317-3.226.484-6.56.5-10 1.126-1.444 2.626-2.11 4.5-2a171.593 171.593 0 0 1 10.5 4c3.33 5.293 4.163 10.96 2.5 17-4.43-1.458-5.096-3.958-2-7.5-.094-2.954-.594-3.12-1.5-.5-.496-1.535-.33-3.035.5-4.5l-1-1.5c-.929 1.189-1.262 2.522-1 4-3.215-.676-5.382-2.676-6.5-6-.323 3.88.51 7.546 2.5 11l-1 1c-3.096-1.202-5.763-2.869-8-5z"/><path style="opacity:1" fill="#005b17" d="M82.5 92.5c5.862.162 7.195 2.662 4 7.5-1.903.774-3.57.44-5-1-.161-2.072.172-4.239 1-6.5z"/><path style="opacity:1" fill="#026819" d="M47.5 93.5c.856 3.878 3.19 6.378 7 7.5l-4 4c-.832.688-1.498.521-2-.5.59-1.299 1.59-2.132 3-2.5-2.31.155-4.644.155-7 0-1.56-.318-2.728-1.151-3.5-2.5-.718.951-1.55 1.117-2.5.5 1.238-.69 1.238-1.19 0-1.5 1.282-1.68 2.949-3.013 5-4 1.208-.734 2.541-1.067 4-1z"/><path style="opacity:1" fill="#016719" d="M100.5 101.5c.086.996-.248 1.829-1 2.5 1.921 1.241 2.254 2.741 1 4.5-2.03-1.129-2.363-.629-1 1.5a2.429 2.429 0 0 1-2 .5c-.533-2.068-.533-4.068 0-6-1.223-1.114-2.556-1.281-4-.5 2.295.984 1.961 1.817-1 2.5l-1-2a133.06 133.06 0 0 0 2.5-16c1.848-2.541 4.348-3.541 7.5-3-2.214 5.058-3.547 10.391-4 16h3z"/><path style="opacity:1" fill="#044f14" d="M112.5 88.5c-.131.876.202 1.543 1 2 3.156-1.272 3.489-.939 1 1-.929 1.189-1.262 2.522-1 4a4.932 4.932 0 0 0 3-.5c.636-2.775 2.136-4.941 4.5-6.5 2.177 3.73 4.01 3.73 5.5 0 .854 1.132.854 2.465 0 4 1.48 2.755 1.313 5.422-.5 8-.317-1.8-.984-2.134-2-1 .018-3.94-1.815-6.272-5.5-7v5h-3v3c2.07.051 3.903-.615 5.5-2l1.5.5c-3.199 2.277-6.865 3.11-11 2.5-.343 1.983.324 3.317 2 4-1.205 1.186-2.539 1.186-4 0 .6-2.798 1.6-5.465 3-8a41.67 41.67 0 0 0-2-6c-.073-1.527.594-2.527 2-3z"/><path style="opacity:1" fill="#018320" d="M43.5 94.5c-2.051.987-3.718 2.32-5 4-2.083-1.545-4.083-3.378-6-5.5 4.077-2.228 7.743-1.728 11 1.5z"/><path style="opacity:1" fill="#026d1c" d="M103.5 88.5c3.653 2.029 3.986 4.695 1 8l-3-3c1.505-1.341 2.172-3.008 2-5z"/><path style="opacity:1" fill="#037b1e" d="M146.5 83.5c-.131 3.899-1.464 7.232-4 10-1.211-.774-1.211-1.607 0-2.5-2.027-.498-4.027-.331-6 .5-1.147-.318-1.981-.984-2.5-2-1.183 1.231-2.349 1.231-3.5 0a84.043 84.043 0 0 0 11-6.5c1.765-.64 3.432-.473 5 .5z"/><path style="opacity:1" fill="#016217" d="M82.5 83.5c1.879-.107 2.212.393 1 1.5 2.078 1.486 3.412 3.486 4 6-3.83.288-6.83-1.212-9-4.5a171.62 171.62 0 0 0 4-3z"/><path style="opacity:1" fill="#017d1d" d="M126.5 88.5c-1.49 3.73-3.323 3.73-5.5 0-2.364 1.559-3.864 3.725-4.5 6.5a4.932 4.932 0 0 1-3 .5c-.262-1.478.071-2.811 1-4 2.489-1.939 2.156-2.272-1-1-.798-.457-1.131-1.124-1-2 4.635-3.913 9.301-3.913 14 0z"/><path style="opacity:1" fill="#015213" d="M42.5 80.5c2.775.334 3.441 1.667 2 4-1.205-1.077-1.872-2.41-2-4z"/><path style="opacity:1" fill="#028520" d="M92.5 64.5c3.194-.324 4.194.842 3 3.5 3.801 7.812 2.301 14.312-4.5 19.5a78.28 78.28 0 0 0-6-6c-2.177-7.923.323-13.59 7.5-17z"/><path style="opacity:1" fill="#061907" d="M89.5 70.5c1.967-.24 3.8.094 5.5 1 .239 2.225-.595 2.558-2.5 1-2.933 2.238-2.6 3.238 1 3 .009 1.808-.491 3.475-1.5 5-.893 1.211-1.726 1.211-2.5 0 .431-.793.764-1.627 1-2.5a582.15 582.15 0 0 1-3-2c1.385-1.597 2.051-3.43 2-5.5z"/><path style="opacity:1" fill="#b09904" d="M234.5 123.5c3.29 1.272 5.124 3.605 5.5 7-.708-.881-1.542-1.547-2.5-2a18.924 18.924 0 0 1-3-5z"/><path style="opacity:1" fill="#017f1e" d="M121.5 126.5c.843 1.673 2.176 2.84 4 3.5-2.773 2.282-5.773 2.782-9 1.5a39.028 39.028 0 0 1-6-6.5c2.033-3.904 5.033-5.071 9-3.5.886-.825 1.219-1.825 1-3 4.912-.437 9.578.396 14 2.5a31.724 31.724 0 0 0 4 8c-2.747 6.294-6.747 7.127-12 2.5 4.41-.989 5.743-3.489 4-7.5a18.04 18.04 0 0 0-7.5-3.5c-1.5.833-2.667 2-3.5 3.5.139 1.301.805 2.134 2 2.5z"/><path style="opacity:1" fill="#028e23" d="M121.5 126.5c.834-1.248 2.167-1.915 4-2l4 .5c.457.414.791.914 1 1.5-2.998 1.143-5.998 1.143-9 0z"/><path style="opacity:1" fill="#0a1705" d="M317.5 112.5c-1.822-2.538-3.822-2.538-6 0l-1-1c3.758-1.515 4.591-3.848 2.5-7a37.138 37.138 0 0 1-7.5 9c1.653 2.939 3.986 3.772 7 2.5a7.293 7.293 0 0 1-3 2c2.437 1.375 5.103 1.875 8 1.5-.237-1.291.096-2.291 1-3 1.679 2.195 2.679 4.695 3 7.5a200.041 200.041 0 0 0-3 16.5 11.988 11.988 0 0 0-6-1v9l-8-1c-1.359-1.509-.859-2.176 1.5-2 1.711-.061 3.044.606 4 2 .684-1.284.517-2.451-.5-3.5 2.254-1.054 2.587-2.554 1-4.5l-5-4a4.457 4.457 0 0 0-1.5 2c-.424-2.115-1.591-2.948-3.5-2.5 3.062 2.68 3.728 5.847 2 9.5h-3c-.221 1.235-.888 2.235-2 3 .928 2.273.928 4.606 0 7l2 6a22.343 22.343 0 0 0-2 8h-4a12.992 12.992 0 0 0 1 5.5 30.243 30.243 0 0 0-6 7c-4.296.964-8.63 1.797-13 2.5-.442 1.239-1.109 2.239-2 3-.667 0-1-.333-1-1 .923-3.564 1.256-7.231 1-11-1.068-.934-2.401-1.268-4-1-1.937-.695-2.937.305-3 3-2.27.625-2.604-.375-1-3-.457-.798-1.124-1.131-2-1v-2c-1.324-1.35-2.324-1.183-3 .5a27.07 27.07 0 0 1-2 4.5c.457.798 1.124 1.131 2 1l-1 2c-.941 2.625-2.107 2.625-3.5 0a46.746 46.746 0 0 0-4.5-13 59.887 59.887 0 0 1-4.5 10 25.893 25.893 0 0 0-5.5 6.5c-4.784.703-6.784 3.537-6 8.5a16.873 16.873 0 0 1-8-1c-2.306-4.905-5.139-5.238-8.5-1-3.037-3.698-5.871-7.698-8.5-12 1.879-1.57 2.212-3.236 1-5l-3-2c.417-.624 1.084-.957 2-1 2.398 2.632 4.731 2.632 7 0 2.296.304 2.629 1.304 1 3a27.553 27.553 0 0 0-5 5c1.079 2.286 2.413 4.286 4 6-.237 1.291.096 2.291 1 3-.065.438.101.772.5 1 .879-2.846 2.546-3.513 5-2l3-5c.536 2.067.036 3.901-1.5 5.5.744 1.039 1.744 1.539 3 1.5.291 1.149 1.124 1.816 2.5 2 2.307-3.563 5.64-6.896 10-10a4.934 4.934 0 0 0 .5-3c1.679.215 2.679-.452 3-2 .997.03 1.664-.47 2-1.5-1.195-1.533-1.195-3.033 0-4.5-2.422-1.786-2.422-3.452 0-5-1.13-1.122-1.797-2.456-2-4h-3c-.203 1.89.463 3.39 2 4.5a439.78 439.78 0 0 1-3 6.5h-2a67.935 67.935 0 0 0 1.5-20 9.454 9.454 0 0 0-2.5-1.5c1.791-2.106 2.458-4.606 2-7.5a4.934 4.934 0 0 0-3 .5 37.967 37.967 0 0 1-9 7.5c-.342-.838-1.008-1.172-2-1 3.146-1.256 5.146-3.589 6-7 1.478.262 2.811-.071 4-1-.825-.886-1.825-1.219-3-1 .801-1.542 1.134-3.208 1-5 .934-1.068 1.268-2.401 1-4 1.212.73 2.212 1.73 3 3 .792-1.2.792-2.533 0-4 .958.453 1.792 1.119 2.5 2-.376-3.395-2.21-5.728-5.5-7-2.518-3.457-2.518-6.79 0-10a74.11 74.11 0 0 1 4 10 155.846 155.846 0 0 0 7 6c1.588-.51 2.755-1.51 3.5-3l1 1c3.007-1.701 5.341-4.035 7-7a11.068 11.068 0 0 1 3.5 2c1.126-1.308 1.126-2.642 0-4 .768-.763 1.268-1.763 1.5-3l1 6c1.731-3.576 1.231-7.243-1.5-11-5.22-6.118-11.553-7.451-19-4-.417-.624-1.084-.957-2-1a111.21 111.21 0 0 0-6 4c-.607-.124-.94-.457-1-1 1.785-.426 2.785-1.592 3-3.5a25.716 25.716 0 0 0-1.5-5.5c-.654 1.196-1.154 1.196-1.5 0l1.5-3c2.609 1.98 3.776 4.648 3.5 8 2.522.372 4.522-.461 6-2.5-1.835-.928-2.168-2.094-1-3.5a10.255 10.255 0 0 0-4-1.5 3.647 3.647 0 0 0 1-1.5 21.827 21.827 0 0 0-5-6l-2-9a16.062 16.062 0 0 0-5-2c1.164-3.9 2.497-3.9 4 0a26.006 26.006 0 0 0 5-7c-1.131-1.104-1.965-.77-2.5 1a107.248 107.248 0 0 1-8.5-9c.262-2.064 1.429-3.397 3.5-4a55.19 55.19 0 0 1 3 7c1.129 1.641 2.629 2.641 4.5 3 .736-1.73 2.07-2.73 4-3-.88-1.889-.88-3.889 0-6 .996.086 1.829-.248 2.5-1 .94 3.076 2.44 5.743 4.5 8h1c.28 2.787 1.613 4.953 4 6.5-1.134 1.016-.801 1.683 1 2-.928.388-1.595 1.055-2 2 1.333 1.333 1.333 2.667 0 4 2.89 1.892 2.556 2.725-1 2.5.732 2.637.732 5.137 0 7.5-.201 2.286-1.534 4.286-4 6 1.207 1.3 1.874 2.8 2 4.5 2.481.177 4.314-.823 5.5-3l2.5-7.5c-1.073-3.408-1.073-6.741 0-10a35.468 35.468 0 0 0 4-6.5 6.807 6.807 0 0 0-3-1.5c3.122-1.42 3.456-3.088 1-5a7.253 7.253 0 0 0 2-2.5 577.098 577.098 0 0 0-4-5 12.93 12.93 0 0 0-.5-5c-2.141-2.974-4.975-4.974-8.5-6a4.94 4.94 0 0 0-2.5 1c-.29-1.544-.956-2.877-2-4-.741 1.14-1.575 1.14-2.5 0a126.73 126.73 0 0 1-12 9c-5.7.211-7.366 2.878-5 8-1.696.185-3.029 1.019-4 2.5 2.354 1.378 2.354 2.878 0 4.5a107.598 107.598 0 0 0 6.5 11c1.667 2.128 3.834 3.461 6.5 4a11.462 11.462 0 0 0-1 2.5c2.652 2.97 2.485 5.804-.5 8.5.227-2.074.061-4.074-.5-6l-9-11a3.646 3.646 0 0 0-1.5 1 15.252 15.252 0 0 0-1.5-4.5 85.735 85.735 0 0 1-10-4.5 4.458 4.458 0 0 0-1.5 2c-.415-1.79-1.415-3.124-3-4a2.429 2.429 0 0 0-.5 2c-2.533 1.354-4.2.52-5-2.5 2.432-1.088 2.098-1.588-1-1.5.417-.624 1.084-.957 2-1a128.002 128.002 0 0 1 18 6c.251-4.973 1.585-9.973 4-15a6.845 6.845 0 0 1-1-4 9.107 9.107 0 0 1 5 1c.886-.825 1.219-1.825 1-3 4.824.514 8.157-1.486 10-6 8.196-.929 15.196 1.738 21 8a147.176 147.176 0 0 0 6.5 13 23.165 23.165 0 0 0 4.5-6.5c4.593-.07 8.76-1.237 12.5-3.5 1.716.248 3.216.915 4.5 2a6.846 6.846 0 0 1 4-1v4c4.084-.457 7.917.21 11.5 2 1.011-.837 2.178-1.17 3.5-1a43.897 43.897 0 0 0 3 10.5 113.6 113.6 0 0 0-1.5 14.5 21.389 21.389 0 0 1-4.5 8c3.636 2.823 7.636 5.156 12 7a26.843 26.843 0 0 0 4 8c-.124.607-.457.94-1 1z"/><path style="opacity:1" fill="#03701c" d="M264.5 121.5c2.881.198 4.881 1.698 6 4.5-.894 3.675-2.561 4.175-5 1.5a9.86 9.86 0 0 1-1-6z"/><path style="opacity:1" fill="#017e1e" d="M285.5 116.5c5.075-.591 9.742.409 14 3 3.014 5.779 1.848 10.446-3.5 14a6.201 6.201 0 0 1-3.5-2 32.367 32.367 0 0 1 4.5-3c1.379-3.975.213-6.809-3.5-8.5-4.906-1.185-9.239-.185-13 3 2.303 3.817 5.637 6.151 10 7 .194 1.43.194 2.93 0 4.5a36.226 36.226 0 0 1-13-9.5 4.934 4.934 0 0 0-3-.5c-.17-1.322.163-2.489 1-3.5 4.242.262 7.575-1.238 10-4.5z"/><path style="opacity:1" fill="#028820" d="M287.5 121.5c3.85-.575 6.85.759 9 4-.581 2.224-1.914 3.057-4 2.5l-5-3.5c-2.039 2.692-2.873 2.358-2.5-1 .995-.566 1.828-1.233 2.5-2z"/><path style="opacity:1" fill="#055616" d="m285.5 108.5-1 2c-1.315 1.635-1.315 3.301 0 5-.891 1.09-1.891 1.09-3 0-.886.825-1.219 1.825-1 3-2.888.51-5.221-.156-7-2a76.556 76.556 0 0 0 6-7.5c1.244-.456 2.077.044 2.5 1.5.71-1.473 1.876-2.14 3.5-2z"/><path style="opacity:1" fill="#035c17" d="M273.5 116.5a124.15 124.15 0 0 0-3.5 3c-1.826-.51-1.993-1.344-.5-2.5-1.049-.492-2.049-.326-3 .5-.929-1.189-1.262-2.522-1-4 1.7-.126 3.2-.793 4.5-2 .945.405 1.612 1.072 2 2 .826-1.905 1.993-2.239 3.5-1-1.13 1.122-1.797 2.456-2 4z"/><path style="opacity:1" fill="#026c1a" d="M291.5 113.5a20.69 20.69 0 0 1 1-5c.601-5.101 3.434-8.101 8.5-9 .706 2.471.373 4.805-1 7-.284-2.386-1.284-3.052-3-2-1.028 3.009-1.695 6.009-2 9l3-5a7.248 7.248 0 0 0 2.5 2 70.364 70.364 0 0 0 3.5-11c1.194 2.123 1.86 4.457 2 7l1.5-3c1-1.333 2-1.333 3 0a32.647 32.647 0 0 1-8 11c-1.634-.468-2.8-1.468-3.5-3-1.673 4.439-4.173 5.106-7.5 2z"/><path style="opacity:1" fill="#053810" d="M292.5 108.5a20.69 20.69 0 0 0-1 5 5.576 5.576 0 0 0-3 1l-4-4 1-2c2.198-.567 4.531-.567 7 0z"/><path style="opacity:1" fill="#016418" d="M269.5 100.5c1.984-.117 3.65.55 5 2 1.693-1.779 3.693-2.279 6-1.5a8.905 8.905 0 0 0 4 3c-.72 2.122-1.887 2.622-3.5 1.5-5.34 2.377-10.507 4.377-15.5 6-1.946-1.544-2.446-3.544-1.5-6a14.972 14.972 0 0 0 3.5-3c1.714 1.109 2.381.442 2-2z"/><path style="opacity:1" fill="#017b1d" d="M305.5 73.5c.685 4.595.518 9.262-.5 14a153.629 153.629 0 0 1-7.5 12 16.985 16.985 0 0 1-6.5-2c-1.257.35-1.591 1.016-1 2a15.256 15.256 0 0 0 4.5 1.5c-4.135 3.469-8.135 3.302-12-.5 3.889-1.436 7.223-3.603 10-6.5-1.052-1.716-.386-2.716 2-3a4.932 4.932 0 0 0-3-.5c-.284-1.915.049-3.581 1-5 2.148.11 2.481-.556 1-2 3.469-2.3 6.802-4.8 10-7.5-2.178-.165-4.011.668-5.5 2.5-.617-.95-.451-1.782.5-2.5 1.941-1.903 4.274-2.736 7-2.5z"/><path style="opacity:1" fill="#016d1a" d="M257.5 61.5c1.3 1.606 2.634 3.273 4 5a7.253 7.253 0 0 1-2 2.5c2.456 1.912 2.122 3.58-1 5 1.124.25 2.124.75 3 1.5a35.468 35.468 0 0 1-4 6.5c-1.073 3.259-1.073 6.592 0 10l-2.5 7.5c-1.186 2.177-3.019 3.177-5.5 3-.126-1.7-.793-3.2-2-4.5 2.466-1.714 3.799-3.714 4-6 .732-2.363.732-4.863 0-7.5 3.556.225 3.89-.608 1-2.5 1.333-1.333 1.333-2.667 0-4 .405-.945 1.072-1.612 2-2-1.801-.317-2.134-.984-1-2-2.387-1.547-3.72-3.713-4-6.5a27.68 27.68 0 0 1 8-6z"/><path style="opacity:1" fill="#021303" d="m240.5 75.5 2 6c-.379 3.067.621 4.067 3 3-.27 8.965-1.77 8.965-4.5 0a40.911 40.911 0 0 1-.5-9z"/><path style="opacity:1" fill="#03721c" d="M277.5 78.5c10.698-2.142 14.531 1.858 11.5 12-1.125 4.998-4.292 7.831-9.5 8.5a77.622 77.622 0 0 0-8 .5c-2.638-1.196-3.471-3.196-2.5-6 1.117-2.915 3.117-4.915 6-6 .127-1.277-.373-2.443-1.5-3.5.796-2.285 2.129-4.119 4-5.5z"/><path style="opacity:1" fill="#072d0f" d="M284.5 83.5c-4.48.15-6.48 2.483-6 7 1.459.067 2.792-.266 4-1 .832.829.499 1.662-1 2.5a47.95 47.95 0 0 1-8 1c3.355-3.55 5.022-7.55 5-12a23.105 23.105 0 0 1 6 2.5z"/><path style="opacity:1" fill="#019c25" d="M284.5 83.5c.241 2.386-.425 4.386-2 6-1.208.734-2.541 1.067-4 1-.48-4.517 1.52-6.85 6-7z"/><path style="opacity:1" fill="#029523" d="M245.5 84.5c-2.379 1.067-3.379.067-3-3a13.115 13.115 0 0 1 1-7 4.458 4.458 0 0 1 1.5 2c.497 2.646.664 5.313.5 8z"/><path style="opacity:1" fill="#016618" d="M303.5 66.5c1.112 2.1 1.779 4.433 2 7-2.726-.236-5.059.597-7 2.5-.951.718-1.117 1.55-.5 2.5 1.489-1.832 3.322-2.665 5.5-2.5-3.198 2.7-6.531 5.2-10 7.5 1.481 1.444 1.148 2.11-1 2-.801-1.542-1.134-3.209-1-5 1.175.219 2.175-.114 3-1-.457-.797-1.124-1.13-2-1a696.755 696.755 0 0 0 10-7 9.107 9.107 0 0 0 1-5z"/><path style="opacity:1" fill="#028a21" d="M303.5 66.5a9.107 9.107 0 0 1-1 5 696.755 696.755 0 0 1-10 7c-1.333 0-2-.667-2-2 .438.065.772-.101 1-.5a4.451 4.451 0 0 1-2-1.5c2.284-2.183 3.618-4.85 4-8 3.127-2.096 6.46-2.096 10 0z"/><path style="opacity:1" fill="#017f1e" d="M239.5 72.5a4.932 4.932 0 0 1 3 .5c-.881.708-1.547 1.542-2 2.5a40.911 40.911 0 0 0 .5 9c2.73 8.965 4.23 8.965 4.5 0 1.592-1.102 2.425-.435 2.5 2 .342-2.12 1.175-2.453 2.5-1a72.33 72.33 0 0 0-4 9.5c-1 .667-2 .667-3 0-.833-1.5-2-2.667-3.5-3.5a37.838 37.838 0 0 1-3.5-10.5c-.189-3.291.811-6.124 3-8.5z"/><path style="opacity:1" fill="#026117" d="M250.5 85.5c-1.325-1.453-2.158-1.12-2.5 1-.075-2.435-.908-3.102-2.5-2a32.462 32.462 0 0 0-.5-8 4.458 4.458 0 0 0-1.5-2 13.115 13.115 0 0 0-1 7l-2-6c.453-.958 1.119-1.792 2-2.5a4.932 4.932 0 0 0-3-.5c.104-2.203.77-4.203 2-6 1.208-.734 2.541-1.067 4-1 2.62 4.494 4.62 9.328 6 14.5-.259 1.261-.926 2.261-2 3 .752.67 1.086 1.504 1 2.5z"/><path style="opacity:1" fill="#025215" d="M226.5 63.5c2.629 3.13 5.462 6.13 8.5 9 .535-1.77 1.369-2.104 2.5-1a26.006 26.006 0 0 1-5 7c-1.503-3.9-2.836-3.9-4 0-1.029-.626-2.029-1.459-3-2.5 2.127-1.491 4.127-2.325 6-2.5-.333-1-1-1.667-2-2-2.655 1.52-3.322 1.02-2-1.5a44.01 44.01 0 0 1-3-5.5c.992.172 1.658-.162 2-1z"/><path style="opacity:1" fill="#055015" d="M241.5 60.5c-.88 2.111-.88 4.111 0 6-1.93.27-3.264 1.27-4 3a17.339 17.339 0 0 0-3.5-7c-.667-1.333-.667-2.667 0-4a22.973 22.973 0 0 1 2 5v-8c1.163 1.785 1.83 3.785 2 6l1-3c.417 1.256 1.25 1.923 2.5 2z"/><path style="opacity:1" fill="#016e1a" d="M293.5 66.5c-.382 3.15-1.716 5.817-4 8a4.451 4.451 0 0 0 2 1.5c-.228.399-.562.565-1 .5-2.412.17-4.579-.497-6.5-2a3.942 3.942 0 0 0-2 1c.16-2.547 1.326-4.714 3.5-6.5a11.357 11.357 0 0 1-3.5-1.5 250.26 250.26 0 0 1-3.5 9c-3.281 1.266-5.781.266-7.5-3-.579 2.517.254 4.517 2.5 6a23.415 23.415 0 0 0-3 7c-1.306-1.412-2.14-3.079-2.5-5-1.457 2.755-1.29 5.588.5 8.5a38.893 38.893 0 0 0-2 9.5c-3.297-.171-3.631.495-1 2-.346 1.196-.846 1.196-1.5 0a4.934 4.934 0 0 0-.5 3c-2.667-1.375-5.334-2.041-8-2a20.038 20.038 0 0 0 3-6c1 2.667 2 2.667 3 0a119.15 119.15 0 0 0-1-10.5 411.985 411.985 0 0 1 5.5-17.5 21.894 21.894 0 0 0 7-6c1.699.906 3.533 1.24 5.5 1v-3h5c-.168 5.032.832 5.2 3 .5.983-.59 1.65-.258 2 1-1.115 1.235-1.115 2.402 0 3.5-2.248.824-2.414 1.824-.5 3 1.444-1.655 3.278-2.322 5.5-2z"/><path style="opacity:1" fill="#01841f" d="M257.5 61.5a27.68 27.68 0 0 0-8 6h-1a25.196 25.196 0 0 1 3-5.5c-1.828-1.506-2.162-3.173-1-5-1.935-1.895-3.602-1.562-5 1-1.135.75-2.135.583-3-.5 1.639-1.416 2.473-3.083 2.5-5-2.802 1.891-3.968 4.558-3.5 8-1.25-.077-2.083-.744-2.5-2l-1 3c-.17-2.215-.837-4.215-2-6v8a22.973 22.973 0 0 0-2-5c-.667 1.333-.667 2.667 0 4a17.339 17.339 0 0 1 3.5 7c-1.871-.359-3.371-1.359-4.5-3a55.19 55.19 0 0 0-3-7c-2.071.603-3.238 1.936-3.5 4-.342.838-1.008 1.172-2 1-2.366-5.122-.7-7.789 5-8a126.73 126.73 0 0 0 12-9c.925 1.14 1.759 1.14 2.5 0 1.044 1.123 1.71 2.456 2 4a4.94 4.94 0 0 1 2.5-1c3.525 1.026 6.359 3.026 8.5 6 .494 1.634.66 3.3.5 5z"/><path style="opacity:1" fill="#046118" d="M248.5 67.5c-2.06-2.257-3.56-4.924-4.5-8-.671.752-1.504 1.086-2.5 1-.468-3.442.698-6.109 3.5-8-.027 1.917-.861 3.584-2.5 5 .865 1.083 1.865 1.25 3 .5 1.398-2.562 3.065-2.895 5-1-1.162 1.827-.828 3.494 1 5a25.196 25.196 0 0 0-3 5.5z"/><path style="opacity:1" fill="#7a6905" d="M98.5 125.5c0-.667.333-1 1-1l2 1v1c-1.037 1.43-1.704 3.097-2 5-.667 0-1 .333-1 1a22.58 22.58 0 0 0-8 4c-2.545.349-4.545-.484-6-2.5 2.269.374 4.602.374 7 0 .88-.708 1.547-1.542 2-2.5 4.132-.429 5.799-2.429 5-6z"/><path style="opacity:1" fill="#998405" d="M259.5 124.5c.709-.904 1.709-1.237 3-1-1.17 4.012-3.67 7.012-7.5 9l-1.5-.5c3.661-1.756 5.661-4.256 6-7.5z"/><path style="opacity:1" fill="#332c09" d="M98.5 125.5c.799 3.571-.868 5.571-5 6a11.596 11.596 0 0 1-7 .5c-.971-1.041-1.971-1.874-3-2.5 1.585-.974 3.918-1.14 7-.5a64.538 64.538 0 0 1 4-6.5c.685 2.281.851 4.614.5 7 1.405-1.231 2.571-2.564 3.5-4z"/><path style="opacity:1" fill="#064814" d="M145.5 128.5a12 12 0 0 0-1 3.5c2.491.626 2.491 1.459 0 2.5 1.115 1.098 1.115 2.265 0 3.5a15.414 15.414 0 0 1 2 4.5c0 .667-.333 1-1 1-.773-2.545-2.273-4.545-4.5-6-1.587 1.227-2.921.894-4-1-.604 3.833-1.437 3.833-2.5 0 3.018-2.173 6.018-4.339 9-6.5l-3-1c1.648-1.677 3.315-1.844 5-.5z"/><path style="opacity:1" fill="#01731c" d="M145.5 128.5c2.46.199 4.793.865 7 2a28.718 28.718 0 0 1-1 5 28.043 28.043 0 0 1-5 1.5c2.107 1.264 3.107 3.097 3 5.5h-3a15.414 15.414 0 0 0-2-4.5c1.115-1.235 1.115-2.402 0-3.5 2.491-1.041 2.491-1.874 0-2.5a12 12 0 0 1 1-3.5z"/><path style="opacity:1" fill="#c7ac04" d="M251.5 133.5h-4c-2.25.319-4.25-.181-6-1.5l2.5-.5c1.669.666 3.169.666 4.5 0 1.987.368 2.987 1.034 3 2z"/><path style="opacity:1" fill="#007c1c" d="M260.5 130.5c1.175-.219 2.175.114 3 1-.577 2.05-1.91 3.05-4 3-.067-1.459.266-2.792 1-4z"/><path style="opacity:1" fill="#02721c" d="M306.5 120.5c4.585-.513 8.918.154 13 2l1 1.5a604.676 604.676 0 0 0-3 3.5c2.145 1.182 2.145 2.682 0 4.5.923 2.041 1.256 4.208 1 6.5-3.787.686-6.954-.314-9.5-3-.432-1.1.068-1.767 1.5-2 1.883.376 3.383 1.376 4.5 3-.136-2.649-1.636-4.315-4.5-5a3.647 3.647 0 0 1 1-1.5c-2.766-.691-3.433-2.191-2-4.5l6-2a156.172 156.172 0 0 1-10-.5c.752-.671 1.086-1.504 1-2.5z"/><path style="opacity:1" fill="#01791c" d="M273.5 126.5c1.265 1.014 1.931 2.514 2 4.5l-1 4.5a21.127 21.127 0 0 1-1-9z"/><path style="opacity:1" fill="#017d1e" d="M40.5 116.5c2.982.463 5.982.796 9 1v3c-3.676.117-6.843 1.45-9.5 4-.182 7.795 3.318 9.962 10.5 6.5 3.387-2.002 4.887-4.835 4.5-8.5-2.35 2.543-3.517 1.877-3.5-2 4.522-.88 7.855.62 10 4.5a64.75 64.75 0 0 0-14 13c-4.612 1.304-8.445-.196-11.5-4.5-2.332-3.934-2.665-7.934-1-12a81.362 81.362 0 0 1 5.5-5z"/><path style="opacity:1" fill="#029122" d="M44.5 123.5a51.56 51.56 0 0 1 7 1c-1.137 6.078-4.304 7.411-9.5 4a8.435 8.435 0 0 1-.5-4c1.291.237 2.291-.096 3-1z"/><path style="opacity:1" fill="#024712" d="M113.5 138.5a9.108 9.108 0 0 0-5 1c-.793-.855-.46-1.689 1-2.5-3.054-.64-5.054.527-6 3.5-1.454-1.02-1.787-2.187-1-3.5-2.386-.284-3.052-1.284-2-3-.916-.278-1.582-.778-2-1.5 0-.667.333-1 1-1 1.388.223 2.888.223 4.5 0a111.277 111.277 0 0 1 9.5 7z"/><path style="opacity:1" fill="#005615" d="M234.5 129.5c.268 1.599-.066 2.932-1 4a31.147 31.147 0 0 0-2 2c-1.6-3.007-.933-5.341 2-7 .607.124.94.457 1 1z"/><path style="opacity:1" fill="#026c1a" d="M57.5 132.5c3.044 2.001 4.044 4.667 3 8-1.714-1.109-2.38-.442-2 2a551.754 551.754 0 0 1-15 3v-4c5.716-1.515 10.382-4.515 14-9z"/><path style="opacity:1" fill="#026a1a" d="M185.5 139.5v-1c2.477-.62 2.477-1.62 0-3 3.801-1.994 7.801-2.827 12-2.5a20.64 20.64 0 0 1-6 2c1.962 1.537 4.295 2.537 7 3-.32 1.653-1.32 2.653-3 3 .837 1.011 1.17 2.178 1 3.5a12.992 12.992 0 0 0-5.5 1c-1.735-1.182-2.735-2.849-3-5-.671-.752-1.504-1.086-2.5-1z"/><path style="opacity:1" fill="#018c22" d="M277.5 128.5c1.265 1.014 1.931 2.514 2 4.5l-1 4.5a21.127 21.127 0 0 1-1-9z"/><path style="opacity:1" fill="#01791d" d="M281.5 133.5c1.193.47 1.86 1.47 2 3l-1 3a9.86 9.86 0 0 1-1-6z"/><path style="opacity:1" fill="#00701b" d="M284.5 140.5v-6h3v6h-3z"/><path style="opacity:1" fill="#015a16" d="M66.5 138.5c-1.208.734-2.541 1.067-4 1-.45-3.548-1.45-6.881-3-10 2.644.34 4.978-.327 7-2a4.451 4.451 0 0 1 1.5 2c1.73-2.431 3.23-2.097 4.5 1-3.236 1.881-5.236 4.548-6 8z"/><path style="opacity:1" fill="#028a22" d="M27.5 142.5a31.705 31.705 0 0 0-6-2c.847-1.466 2.18-2.3 4-2.5-2.535-.617-4.868-.117-7 1.5-.886-.825-1.219-1.825-1-3 2.62.268 5.12-.065 7.5-1l2.5 3 3-2 1 1a19.885 19.885 0 0 0-4 3.5c1.45-.263 2.784-.096 4 .5-1.189.929-2.522 1.262-4 1z"/><path style="opacity:1" fill="#006b1b" d="M242.5 137.5c1.086.12 1.753.787 2 2l-1 2c-.929-1.189-1.262-2.522-1-4z"/><path style="opacity:.012" fill="#a9ff00" d="M-.5 140.5a3851.876 3851.876 0 0 1 1.5 88 923.178 923.178 0 0 1 8 29 198.504 198.504 0 0 0 28 49c46.865 50.738 104.365 68.904 172.5 54.5 55.162-15.505 94.662-49.338 118.5-101.5 3.628-9.517 6.128-19.184 7.5-29v136H-.5v-226z"/><path style="opacity:1" fill="#071306" d="M198.5 68.5c3.098-.088 3.432.412 1 1.5.8 3.02 2.467 3.854 5 2.5 1.74 4.538.407 5.871-4 4a6.845 6.845 0 0 0 1 4l-2 2c1.401 1.02 2.735 2.02 4 3-.997-.03-1.664.47-2 1.5-.775 2.27-1.108 4.437-1 6.5a100.966 100.966 0 0 1 8.5 12 68.554 68.554 0 0 0 15 6c2.914-1.248 4.747-3.414 5.5-6.5a105.117 105.117 0 0 0-8.5-14.5c-3.975-5.411-9.142-7.411-15.5-6-.791-1.81-.791-3.81 0-6 1.322.17 2.489-.163 3.5-1-.295 3.861 1.205 5.194 4.5 4 3.636 2.962 7.302 5.962 11 9a65.271 65.271 0 0 1 4 9l2-1a85.378 85.378 0 0 1 3 10c.06.543.393.876 1 1a111.21 111.21 0 0 1 6-4c.916.043 1.583.376 2 1-3.264 1.594-5.931 3.927-8 7-2.518 3.21-2.518 6.543 0 10a18.924 18.924 0 0 0 3 5c.792 1.467.792 2.8 0 4-.788-1.27-1.788-2.27-3-3-.06-.543-.393-.876-1-1-2.933 1.659-3.6 3.993-2 7a31.147 31.147 0 0 1 2-2c.134 1.792-.199 3.458-1 5-2.542.206-4.209 1.539-5 4a14.72 14.72 0 0 1-5 1.5c-.837 1.011-1.17 2.178-1 3.5h4c.992-.172 1.658.162 2 1-1.31 1.648-2.643 3.314-4 5a4.457 4.457 0 0 0 2 1.5c-1.073 1.25-1.073 2.584 0 4l-.5 1.5-2-4a12.494 12.494 0 0 0 0 7 146.083 146.083 0 0 1 5.5 8.5c3.868.972 7.201.139 10-2.5h2c.438-.065.772.101 1 .5-1.236 1.085-2.569 1.918-4 2.5-1.511 1.976-2.344 4.309-2.5 7-.667-1.333-1.333-1.333-2 0a8.43 8.43 0 0 1-.5-4c-5.428-.584-8.928-3.584-10.5-9-1.409-1.281-2.909-2.281-4.5-3 3.37-1.333 3.703-3.5 1-6.5a38.769 38.769 0 0 0 6-8l-3-.5a87.551 87.551 0 0 1-12 4.5c-3.012 1.101-4.345 2.935-4 5.5-2.109-.552-2.942-1.886-2.5-4 2.7-1.769 5.534-3.102 8.5-4v-5h-4v3c-2.161-.326-3.994-1.326-5.5-3-1.107 1.212-1.607.879-1.5-1-5.248 2.061-4.914 3.561 1 4.5a245.39 245.39 0 0 0-2 8.5 30.983 30.983 0 0 1 4 3v6h3c-.215 1.679.452 2.679 2 3l3 2c-1.208 2.544-3.208 3.878-6 4-1.602-4.031-2.768-8.364-3.5-13a660.832 660.832 0 0 0-5-3 49.118 49.118 0 0 0-11.5 9.5 11.803 11.803 0 0 0 2 3.5h-3c-2.159-1.285-2.826-2.952-2-5 4.554-2.867 8.887-6.2 13-10a23.832 23.832 0 0 0 1-9 60.931 60.931 0 0 0-11 .5c-.971 1.481-2.304 2.315-4 2.5 1.977-2.314 3.977-4.647 6-7-2.693-1.032-3.36-2.698-2-5 .996-.086 1.829.248 2.5 1 .265 2.151 1.265 3.818 3 5a12.992 12.992 0 0 1 5.5-1c.17-1.322-.163-2.489-1-3.5 1.68-.347 2.68-1.347 3-3-2.705-.463-5.038-1.463-7-3a20.64 20.64 0 0 0 6-2c-4.199-.327-8.199.506-12 2.5 2.477 1.38 2.477 2.38 0 3a37.84 37.84 0 0 0-5-5.5c-6.673-.737-7.507-3.237-2.5-7.5a43.385 43.385 0 0 0 2-8c3.896-1.856 7.062-4.522 9.5-8-4.917-3.735-6.25-8.568-4-14.5a15.009 15.009 0 0 1 4-3.5 23.833 23.833 0 0 1-1-9h1c-.086.996.248 1.83 1 2.5 3.949.807 3.949 1.307 0 1.5.741 4.936 2.574 5.27 5.5 1 .986 3.875 2.153 3.875 3.5 0a26.078 26.078 0 0 0-5-3.5c.514-2.415 1.514-3.749 3-4a11.114 11.114 0 0 0-1-2.5c.111-.617.444-1.117 1-1.5-2.208-.19-4.208-.69-6-1.5 2.677-1.144 5.343-1.31 8-.5-1.791-1.79-2.125-3.623-1-5.5z"/><path style="opacity:1" fill="#016719" d="M223.5 135.5h4l-4 7c-1.175.219-2.175-.114-3-1a43.505 43.505 0 0 1 3-6z"/><path style="opacity:1" fill="#01721c" d="M191.5 110.5c3.595 1.595 6.262 4.262 8 8-1.306-.202-2.806.132-4.5 1-1.43-2.17-2.93-2.336-4.5-.5 3.776 1.605 5.776 4.438 6 8.5a79.172 79.172 0 0 1-10-2c-.886.825-1.219 1.825-1 3a77.357 77.357 0 0 0 11 2c-3.928 1.485-7.928 2.318-12 2.5 3.785-2.557 3.285-3.057-1.5-1.5-1.899-.398-3.399-1.398-4.5-3a51.812 51.812 0 0 1 5-11.5c2.324-1.374 4.657-1.707 7-1-2.157-1.085-2.324-2.251-.5-3.5a13.92 13.92 0 0 0 4 3 163.792 163.792 0 0 0-2.5-5z"/><path style="opacity:1" fill="#016819" d="M220.5 117.5h3c2.834 4.998 2.334 5.665-1.5 2-1.471 2.402-2.971 2.236-4.5-.5-3.057.107-5.391-1.06-7-3.5l1.5-1a9.568 9.568 0 0 1 3 3c.71-1.473 1.876-2.14 3.5-2-.188 1.603.312 2.937 1.5 4a2.428 2.428 0 0 0 .5-2z"/><path style="opacity:1" fill="#027f1e" d="M206.5 120.5h5a229.267 229.267 0 0 1 19 6c.219 1.175-.114 2.175-1 3a126.9 126.9 0 0 1-19.5 13c-7.479-1.734-11.313-6.567-11.5-14.5.914-2.335 2.247-4.502 4-6.5a6.846 6.846 0 0 1 4-1z"/><path style="opacity:1" fill="#07310f" d="M217.5 131.5c2.01-1.523 2.344-3.356 1-5.5a16.242 16.242 0 0 0-8 0c-.21 3.649 1.79 5.816 6 6.5-3.797 1.051-6.797-.283-9-4 .667-2.667 2.333-4.333 5-5a40.018 40.018 0 0 1 14 4.5c-2.843 2.455-5.843 3.622-9 3.5z"/><path style="opacity:1" fill="#019624" d="M217.5 131.5c-.667 0-1 .333-1 1-4.21-.684-6.21-2.851-6-6.5a16.242 16.242 0 0 1 8 0c1.344 2.144 1.01 3.977-1 5.5z"/><path style="opacity:1" fill="#073c12" d="M223.5 117.5h-3c.418-.722 1.084-1.222 2-1.5a56.268 56.268 0 0 1-7-2.5l2-1c4.254.085 8.587.752 13 2-1.519 2.564-3.019 2.564-4.5 0-.377 1.442-1.21 2.442-2.5 3z"/><path style="opacity:1" fill="#014d13" d="M211.5 120.5h-5v-2l-3-6c1.933-.229 3.6-1.062 5-2.5-1.399-.595-2.732-.428-4 .5-.929-1.189-1.262-2.522-1-4 1.322.17 2.489-.163 3.5-1 .617.949.451 1.782-.5 2.5.949.617 1.782.451 2.5-.5 3.314 2.395 2.814 3.728-1.5 4 1.333 2.667 1.333 5.333 0 8 1.599-.268 2.932.066 4 1z"/><path style="opacity:1" fill="#007a1d" d="m203.5 112.5 3 6a25.14 25.14 0 0 1-4.5-4c-.333 1.547.167 2.88 1.5 4-.502 1.021-1.168 1.188-2 .5a23.162 23.162 0 0 0-4.5-6.5c-.688-.832-.521-1.498.5-2a14.972 14.972 0 0 1 3.5 3c.671-.752 1.504-1.086 2.5-1z"/><path style="opacity:1" fill="#016b1a" d="M203.5 106.5c-1.548.321-2.215 1.321-2 3-1.89.203-3.39-.463-4.5-2-2.498 1.098-4.998.932-7.5-.5-.837-1.011-1.17-2.178-1-3.5-1.175.219-2.175-.114-3-1a11.987 11.987 0 0 0 1-6 28.148 28.148 0 0 0 7-2l3 1c1.524 2.736 3.691 4.736 6.5 6 1.519 1.639 1.686 3.306.5 5z"/><path style="opacity:1" fill="#01821f" d="M203.5 85.5c.992.172 1.658-.162 2-1 6.358-1.411 11.525.589 15.5 6a105.117 105.117 0 0 1 8.5 14.5c-.753 3.086-2.586 5.252-5.5 6.5a68.554 68.554 0 0 1-15-6 100.966 100.966 0 0 0-8.5-12c-.108-2.063.225-4.23 1-6.5.336-1.03 1.003-1.53 2-1.5z"/><path style="opacity:1" fill="#072a0d" d="M210.5 90.5a4.932 4.932 0 0 1 3 .5c-2.347 1.191-3.18 3.024-2.5 5.5 1.739 3.407 4.406 5.74 8 7l1.5-.5a29.91 29.91 0 0 0-4-11.5c.855-.793 1.689-.46 2.5 1a44.334 44.334 0 0 0 5 12c.359-3.044 1.026-3.378 2-1 .711 1.867.211 3.367-1.5 4.5a307.108 307.108 0 0 1-14.5-7.5 17.335 17.335 0 0 0-3.5-7c1.684-.65 3.017-1.65 4-3z"/><path style="opacity:1" fill="#01721c" d="M299.5 144.5c-2.048.826-3.715.159-5-2a22.193 22.193 0 0 1-3-6c1.414 1.554 3.081 2.888 5 4l1-1c-2.636-1.564-2.469-2.897.5-4 1.376 3.093 1.876 6.093 1.5 9z"/><path style="opacity:1" fill="#006f1b" d="M232.5 138.5c1.175-.219 2.175.114 3 1-1.189.929-2.522 1.262-4 1-.854 3.411-2.854 5.744-6 7h-4c-.17-1.322.163-2.489 1-3.5a14.72 14.72 0 0 0 5-1.5c.791-2.461 2.458-3.794 5-4z"/><path style="opacity:1" fill="#015816" d="M272.5 139.5c-.886-1.276-1.886-1.276-3 0a4.457 4.457 0 0 0 2 1.5 19.552 19.552 0 0 1-4 3.5c-.709-.904-1.709-1.237-3-1 .076-2.423-.924-4.256-3-5.5.903-3.067 2.07-3.567 3.5-1.5 3.356-2.612 6.189-1.945 8.5 2-.124.607-.457.94-1 1z"/><path style="opacity:1" fill="#01831f" d="M272.5 139.5c1.513.809 3.18.976 5 .5a7.293 7.293 0 0 1-3 2l1.5.5a36.87 36.87 0 0 1 5.5-2l2 2c-3.943 1.633-7.943 3.3-12 5-1.917-.254-3.251-1.254-4-3a19.552 19.552 0 0 0 4-3.5 4.457 4.457 0 0 1-2-1.5c1.114-1.276 2.114-1.276 3 0z"/><path style="opacity:1" fill="#014312" d="M291.5 136.5a22.193 22.193 0 0 0 3 6c-2.228.277-3.895 1.277-5 3h-1c-1.052-1.756-2.719-2.423-5-2v-1l-2-2h3c.291 1.149 1.124 1.816 2.5 2l2.5-1a9.108 9.108 0 0 1-1-5h3z"/><path style="opacity:1" fill="#0c5a18" d="M304.5 147.5c-1.548-.321-2.215-1.321-2-3 1.728-3.653 1.062-6.82-2-9.5 1.909-.448 3.076.385 3.5 2.5a4.457 4.457 0 0 1 1.5-2l5 4c1.587 1.946 1.254 3.446-1 4.5 1.017 1.049 1.184 2.216.5 3.5-.956-1.394-2.289-2.061-4-2-2.359-.176-2.859.491-1.5 2z"/><path style="opacity:1" fill="#026419" d="M34.5 116.5c-.417.722-1.084 1.222-2 1.5.457.414.79.914 1 1.5a19.885 19.885 0 0 1-4 3.5c1.074.739 1.74 1.739 2 3-2.263 1.243-3.097 3.076-2.5 5.5.893-1.211 1.726-1.211 2.5 0l-2 3c.891 1.09 1.891 1.09 3 0 2.58 3.199 5.746 5.532 9.5 7 .495 1.973.662 3.973.5 6-3.21.488-6.044-.179-8.5-2a3.944 3.944 0 0 1-2 1c-1.826-.51-1.993-1.344-.5-2.5-1.558-.21-2.892-.71-4-1.5 1.478.262 2.811-.071 4-1-1.216-.596-2.55-.763-4-.5a19.885 19.885 0 0 1 4-3.5l-1-1-3 2-2.5-3c-2.38.935-4.88 1.268-7.5 1-.219 1.175.114 2.175 1 3 2.132-1.617 4.465-2.117 7-1.5-1.82.2-3.153 1.034-4 2.5-1.667 1.333-3.333 1.333-5 0v-5c.767-.672 1.434-1.505 2-2.5-1.473-.71-2.14-1.876-2-3.5a4.934 4.934 0 0 0 3-.5c-3.772-1.389-3.772-2.389 0-3-1.146-2.557-.146-3.89 3-4-2.66-1.866-2.326-3.033 1-3.5.185 1.696 1.019 3.029 2.5 4a32.79 32.79 0 0 1 3.5-5.5c-1.77-.535-2.104-1.369-1-2.5 1.823 1.247 3.823 1.914 6 2z"/><path style="opacity:1" fill="#005615" d="M200.5 144.5c-.221-1.235-.888-2.235-2-3 2.006-1.126 3.34-.46 4 2-.457.798-1.124 1.131-2 1z"/><path style="opacity:1" fill="#03731b" d="M245.5 143.5h3c.42 2.174.42 4.174 0 6-1.915-1.571-2.915-3.571-3-6z"/><path style="opacity:1" fill="#01821e" d="M283.5 143.5c2.281-.423 3.948.244 5 2a30.137 30.137 0 0 0-6 3.5c-2.724.27-5.391.77-8 1.5-1.333-.667-1.333-1.333 0-2a59.562 59.562 0 0 1 9-5z"/><path style="opacity:1" fill="#03781e" d="M113.5 138.5c-.111.617-.444 1.117-1 1.5a15.39 15.39 0 0 1 6 3 133.512 133.512 0 0 1 8 9.5l-1 2c2.763 3.297 5.097 7.464 7 12.5-1.86 2.128-3.194 4.628-4 7.5-1.333-1.333-2.667-1.333-4 0a44.206 44.206 0 0 1-3 8c-2.518-1.194-2.518-2.36 0-3.5a9.454 9.454 0 0 1-1.5-2.5c-.417 1.256-1.25 1.923-2.5 2-.781-2.152-1.114-4.152-1-6 .221-1.235.888-2.235 2-3a730.007 730.007 0 0 0-1-19h-3c.219-1.175-.114-2.175-1-3a10.94 10.94 0 0 1-4.5-3c-.617-.949-.451-1.782.5-2.5-1.049-.492-2.049-.326-3 .5-.765-1.112-1.765-1.779-3-2 .946-2.973 2.946-4.14 6-3.5-1.46.811-1.793 1.645-1 2.5a9.108 9.108 0 0 1 5-1z"/><path style="opacity:1" fill="#016819" d="M215.5 141.5c3.064.103 4.064 1.436 3 4a22.755 22.755 0 0 1-5 4c-.929-1.189-1.262-2.522-1-4h3v-4z"/><path style="opacity:1" fill="#01761c" d="M247.5 133.5h4c3.775 1.423 3.775 3.256 0 5.5l3 1c-.951.718-1.117 1.551-.5 2.5 1.011-.837 2.178-1.17 3.5-1-.735 3.793-2.735 6.793-6 9-1.224-2.328-1.224-4.661 0-7-1.363-1.393-2.196-3.059-2.5-5-.71 1.473-1.876 2.14-3.5 2 .214-1.644-.12-3.144-1-4.5 1.813.046 3.479-.12 5-.5a31.147 31.147 0 0 1-2-2z"/><path style="opacity:1" fill="#156bee" d="M181.5 151.5c1.696-.185 3.029-1.019 4-2.5a60.931 60.931 0 0 1 11-.5 23.832 23.832 0 0 1-1 9c-4.113 3.8-8.446 7.133-13 10a128.295 128.295 0 0 0-12 7.5c-.752.671-1.086 1.504-1 2.5a3830.11 3830.11 0 0 1-38 26.5c-1.537 1.11-2.203 2.61-2 4.5-3.965-.353-6.631 1.313-8 5a184.16 184.16 0 0 1-7 31c-1.324-3.607-1.991-7.607-2-12a371.5 371.5 0 0 1 1.5-25 103.613 103.613 0 0 1 19.5-16.5c.752-.671 1.086-1.504 1-2.5 7.321-3.818 13.654-8.818 19-15 .667 0 1-.333 1-1 2.584-.069 4.584-1.235 6-3.5a21.438 21.438 0 0 1-5 0 572.972 572.972 0 0 0-14-8.5c-3.067-3.351-3.734-7.184-2-11.5a25.238 25.238 0 0 1 10 0 4117.688 4117.688 0 0 0 17.5 13.5c5.564-2.734 10.397-6.401 14.5-11z"/><path style="opacity:1" fill="#006319" d="M241.5 145.5h3c.443 3.124 2.11 5.457 5 7-1.759 1.254-3.259.921-4.5-1a38.833 38.833 0 0 0-3.5-6z"/><path style="opacity:1" fill="#017d1e" d="M134.5 136.5c1.063 3.833 1.896 3.833 2.5 0 1.079 1.894 2.413 2.227 4 1 2.227 1.455 3.727 3.455 4.5 6-.483 2.37-1.649 3.037-3.5 2-1.049 1.607-2.549 2.273-4.5 2 .043 4.158-1.29 7.825-4 11-1.472-3.151-3.472-5.817-6-8a20.2 20.2 0 0 1-1.5-6 4.457 4.457 0 0 1-1.5 2c-.929-1.189-1.262-2.522-1-4-3.849.481-5.849-1.186-6-5h-3v-3h-3c.146-2.442-.687-3.109-2.5-2-.781-1.444-.614-2.777.5-4 3.157 3.069 6.823 5.403 11 7l2-1a10.258 10.258 0 0 1 1.5 4c.582-3.168 1.582-3.501 3-1 .718-.951 1.551-1.117 2.5-.5.55 1.845 1.55 3.345 3 4.5l1-1c-2.663-2.016-2.33-3.349 1-4z"/><path style="opacity:1" fill="#045c19" d="M200.5 144.5c-.107 1.879.393 2.212 1.5 1 1.506 1.674 3.339 2.674 5.5 3v-3h4v5c-2.966.898-5.8 2.231-8.5 4-.442 2.114.391 3.448 2.5 4l-2 2a30.983 30.983 0 0 0-4-3 245.39 245.39 0 0 1 2-8.5c-5.914-.939-6.248-2.439-1-4.5z"/><path style="opacity:1" fill="#018620" d="M272.5 152.5c-3.828 1.849-6.494.682-8-3.5-1.459.355-2.793.189-4-.5a31.147 31.147 0 0 0-2-2 6.846 6.846 0 0 0 1-4 4.934 4.934 0 0 1 3 .5 44.96 44.96 0 0 0 10 9.5z"/><path style="opacity:1" fill="#01781d" d="M55.5 153.5c-1.928-1.036-3.928-1.536-6-1.5 2.315 1.368 2.315 2.201 0 2.5-2.935-.396-5.602-1.396-8-3 1.832-.557 3.165-1.557 4-3 3.749-.341 7.416-1.674 11-4a7.253 7.253 0 0 1 2.5 2c.049-2.916 1.215-3.916 3.5-3 1.024-1.353 2.357-2.02 4-2v-3c.996-.086 1.83.248 2.5 1 .386-4.108 2.553-5.608 6.5-4.5a4.934 4.934 0 0 1-3 .5c.262 1.478-.071 2.811-1 4a47.69 47.69 0 0 0-5.5 7c-2.621 1.5-5.288 1.834-8 1 .633 2.425-.2 4.425-2.5 6z"/><path style="opacity:1" fill="#01841f" d="M70.5 148.5c.543.06.876.393 1 1-1.74 2.241-3.906 3.908-6.5 5-2.076 2.717-2.743 5.717-2 9 1.171 1.393 2.671 2.227 4.5 2.5-1.123 1.044-2.456 1.71-4 2 1.759.798 3.425.631 5-.5a74.373 74.373 0 0 1 2.5-10c.698 1.191 1.531 2.191 2.5 3-1.017 8.336-5.684 12.169-14 11.5-3.389-6.368-2.389-11.868 3-16.5-1.54-1.032-2.04-2.365-1.5-4 2.849-1.809 6.016-2.809 9.5-3z"/><path style="opacity:1" fill="#115a16" d="M45.5 148.5c-.835 1.443-2.168 2.443-4 3 2.398 1.604 5.065 2.604 8 3 2.315-.299 2.315-1.132 0-2.5 2.072-.036 4.072.464 6 1.5a72.532 72.532 0 0 0-.5 8c-1.417.578-2.25 1.578-2.5 3-1.415-1.58-4.415-2.58-9-3v-1c4.943.212 5.61-.788 2-3l1-2c-2.359-1.214-4.692-1.214-7 0-.667 0-1 .333-1 1a41.221 41.221 0 0 1-1-7c1.25.077 2.083.744 2.5 2 1.462-1.648 3.295-2.648 5.5-3z"/><path style="opacity:1" fill="#027f1e" d="M84.5 153.5v3a8.43 8.43 0 0 0-4 .5 12.409 12.409 0 0 1 4 2.5l-2 1a19.051 19.051 0 0 0-6-1c-1.328-1.41-.995-2.576 1-3.5-2.667-1.333-2.667-2.667 0-4-1.473-.71-2.14-1.876-2-3.5a4.934 4.934 0 0 0 3-.5c-.876-1.585-2.21-2.585-4-3 1.835-.928 2.168-2.094 1-3.5 1.189-.929 2.522-1.262 4-1 .204-1.89-.463-3.39-2-4.5 1.92-.215 3.586.452 5 2-2.544 3.116-2.544 6.283 0 9.5-.97 1.462-.638 2.795 1 4-2.581 2.41-2.248 3.076 1 2z"/><path style="opacity:1" fill="#073710" d="M260.5 148.5c1.207.689 2.541.855 4 .5 1.506 4.182 4.172 5.349 8 3.5.992-.172 1.658.162 2 1-.438-.065-.772.101-1 .5 1.687 1.913 2.187 4.08 1.5 6.5a17.808 17.808 0 0 0-3.5-5c-1.232.645-2.565.811-4 .5-1.913 5.949.087 10.116 6 12.5-.535 1.601-1.535 2.101-3 1.5-2.617-2.442-4.95-4.942-7-7.5a149.964 149.964 0 0 0-4-12c-.172-.992.162-1.658 1-2z"/><path style="opacity:1" fill="#072d0e" d="M73.5 160.5c-.969-.809-1.802-1.809-2.5-3a74.373 74.373 0 0 0-2.5 10c-1.575 1.131-3.241 1.298-5 .5 1.544-.29 2.877-.956 4-2-1.829-.273-3.329-1.107-4.5-2.5-.743-3.283-.076-6.283 2-9 2.594-1.092 4.76-2.759 6.5-5-.124-.607-.457-.94-1-1v-4h3c1.222 5.389 1.222 10.722 0 16z"/><path style="opacity:1" fill="#028420" d="M238.5 169.5c-2.799 2.639-6.132 3.472-10 2.5a146.083 146.083 0 0 0-5.5-8.5 12.494 12.494 0 0 1 0-7l2 4 .5-1.5c-1.073-1.416-1.073-2.75 0-4a4.457 4.457 0 0 1-2-1.5c1.357-1.686 2.69-3.352 4-5a37.967 37.967 0 0 0 9-7.5 4.934 4.934 0 0 1 3-.5c.458 2.894-.209 5.394-2 7.5.916.374 1.75.874 2.5 1.5a67.935 67.935 0 0 1-1.5 20z"/><path style="opacity:1" fill="#031203" d="M230.5 154.5c-1.006-.438-1.006-1.104 0-2 .67-2.848 2.337-4.348 5-4.5a34.041 34.041 0 0 0-1.5 7.5c-1.011-.837-2.178-1.17-3.5-1z"/><path style="opacity:1" fill="#054914" d="M230.5 152.5c-1.006.896-1.006 1.562 0 2-2.258 2.778-2.591 5.778-1 9 1.951-.273 3.451.393 4.5 2 2.466-4.163 3.299-3.996 2.5.5-3.325 2.495-5.992 1.995-8-1.5-1.152-2.606-1.318-5.273-.5-8 .122-1.937.955-3.27 2.5-4z"/><path style="opacity:1" fill="#041305" d="M98.5 132.5c.418.722 1.084 1.222 2 1.5-1.052 1.716-.386 2.716 2 3-.787 1.313-.454 2.48 1 3.5 1.235.221 2.235.888 3 2 .951-.826 1.951-.992 3-.5-.951.718-1.117 1.551-.5 2.5a10.94 10.94 0 0 0 4.5 3c.886.825 1.219 1.825 1 3h3c.412 6.262.746 12.595 1 19-1.112.765-1.779 1.765-2 3-1.299 1.599-2.965 2.099-5 1.5.556-.383.889-.883 1-1.5.958-.453 1.792-1.119 2.5-2 3.498-9.518 1.331-17.351-6.5-23.5a18.453 18.453 0 0 0-6-.5 12.93 12.93 0 0 0-.5-5 8.906 8.906 0 0 1-3-4c-.368 5.92-.035 11.587 1 17l1 1c.495-1.973.662-3.973.5-6h5c-.108 2.014.558 3.68 2 5 .616 1.298.616 2.298 0 3a173.55 173.55 0 0 1-3-4c-.929 1.189-1.262 2.522-1 4-.79-1.109-1.29-2.442-1.5-4l-1 6c-1.003-2.435-1.503-2.102-1.5 1 .02 1.226.353 2.226 1 3a38.025 38.025 0 0 0 6 10c-.06.543-.393.876-1 1a185.977 185.977 0 0 0-3-2h-2a20.69 20.69 0 0 1-1-5c-3.297.171-3.63-.495-1-2-.356-1.022-1.022-1.689-2-2-.203-2.138-1.203-3.805-3-5 1.326.295 2.659-.205 4-1.5-1.576-4.671-2.242-9.504-2-14.5a8.43 8.43 0 0 1-4-.5c.928-.388 1.595-1.055 2-2-.924-1.15-.924-2.15 0-3a8.43 8.43 0 0 0-4-.5 22.58 22.58 0 0 1 8-4z"/><path style="opacity:1" fill="#02791e" d="M112.5 172.5a20.69 20.69 0 0 1-5 1 38.025 38.025 0 0 1-6-10 2.428 2.428 0 0 1 .5-2c1.356.88 2.856 1.214 4.5 1-.262 1.478.071 2.811 1 4 6.469-1.262 7.469-4.262 3-9a4.457 4.457 0 0 1 2-1.5c-1.208-.921-2.542-1.421-4-1.5-1.442-1.32-2.108-2.986-2-5h-5a18.453 18.453 0 0 1-.5 6l-1-1c-1.035-5.413-1.368-11.08-1-17a8.906 8.906 0 0 0 3 4 12.93 12.93 0 0 1 .5 5 18.453 18.453 0 0 1 6 .5c7.831 6.149 9.998 13.982 6.5 23.5-.708.881-1.542 1.547-2.5 2z"/><path style="opacity:1" fill="#029924" d="M43.5 160.5c-2.376-.706-3.71-2.373-4-5 2.308-1.214 4.641-1.214 7 0l-1 2c3.61 2.212 2.943 3.212-2 3z"/><path style="opacity:1" fill="#019523" d="M66.5 155.5h3c-.011 3.39-1.345 6.056-4 8-1-.333-1.667-1-2-2a17.89 17.89 0 0 0 3-6z"/><path style="opacity:1" fill="#02791e" d="M217.5 163.5c-1.478-.262-2.811.071-4 1 1.875.909 3.208 2.243 4 4-2.269 2.632-4.602 2.632-7 0-.916.043-1.583.376-2 1-1.548-.321-2.215-1.321-2-3h-3v-6l2-2c-.345-2.565.988-4.399 4-5.5a87.551 87.551 0 0 0 12-4.5l3 .5a38.769 38.769 0 0 1-6 8c2.703 3 2.37 5.167-1 6.5z"/><path style="opacity:1" fill="#036419" d="M244.5 158.5c-1.255-2.019-1.589-4.019-1-6a7.248 7.248 0 0 1 2.5 2c1.318 2.93 1.985 5.93 2 9-.223-2.381-1.39-4.047-3.5-5z"/><path style="opacity:1" fill="#01761c" d="M256.5 160.5c-1.347.528-2.681.695-4 .5a109.636 109.636 0 0 1-2-6.5c7.767-7.846 8.433-7.346 2 1.5 1.635.54 2.968.04 4-1.5l1 1a9.108 9.108 0 0 0-1 5z"/><path style="opacity:1" fill="#01741c" d="M289.5 145.5c2.442-.146 3.109.687 2 2.5a8.43 8.43 0 0 0 4 .5v3c-8 .333-8 .667 0 1v4h-3c-.219 1.175.114 2.175 1 3a9.108 9.108 0 0 1 5-1c.372 2.522-.461 4.522-2.5 6a4.934 4.934 0 0 1-.5-3c-3.642-.58-7.309-1.08-11-1.5-2.497-.412-4.497-1.578-6-3.5 3.83-.009 7.83-.175 12-.5a42.769 42.769 0 0 1-9-1.5 10.258 10.258 0 0 1 4-1.5 34.251 34.251 0 0 1-8-1.5c4.879-.439 8.879-2.439 12-6z"/><path style="opacity:1" fill="#02811f" d="M90.5 136.5a8.43 8.43 0 0 1 4 .5c-.924.85-.924 1.85 0 3-.405.945-1.072 1.612-2 2a8.43 8.43 0 0 0 4 .5c-.242 4.996.424 9.829 2 14.5-1.341 1.295-2.674 1.795-4 1.5 1.797 1.195 2.797 2.862 3 5l-4 4c.774 1.211 1.607 1.211 2.5 0 .684 1.979.184 3.646-1.5 5a4.458 4.458 0 0 0 2 1.5l-3.5 4.5a8.435 8.435 0 0 1-.5-4c-2.988.345-4.321-.988-4-4 .296-2.485 1.63-4.152 4-5-1.503-.552-3.17-.552-5 0-.904-.709-1.237-1.709-1-3a44.293 44.293 0 0 1 3-2c-1.082-.249-2.415-.415-4-.5.906-1.699 1.24-3.533 1-5.5 2.342-.004 4.342-.837 6-2.5-1.932-.138-3.766.362-5.5 1.5a2.427 2.427 0 0 1-.5-2c1.495.085 2.495-.581 3-2-.774-1.211-1.607-1.211-2.5 0a4.932 4.932 0 0 1-.5-3c2.644-.34 4.978.327 7 2 .886-.825 1.219-1.825 1-3h-10a9.107 9.107 0 0 0-1-5c2.568-1.112 4.902-2.445 7-4z"/><path style="opacity:1" fill="#19181b" d="M141.5 160.5a572.972 572.972 0 0 1 14 8.5c1.707.195 3.374.195 5 0-1.416 2.265-3.416 3.431-6 3.5-2.077-3.404-5.077-5.904-9-7.5a25.14 25.14 0 0 1-4-4.5z"/><path style="opacity:1" fill="#034713" d="M86.5 151.5a2.427 2.427 0 0 0 .5 2c1.734-1.138 3.568-1.638 5.5-1.5-1.658 1.663-3.658 2.496-6 2.5.24 1.967-.094 3.801-1 5.5 1.585.085 2.918.251 4 .5a44.293 44.293 0 0 0-3 2c-2.85-1.428-3.85-.761-3 2-1.894-.548-3.56-1.548-5-3l-1 1c1.13 2.972 3.13 4.972 6 6l-1 2a483.2 483.2 0 0 0-7-6 20.676 20.676 0 0 0 1-5c2.047.011 4.047.344 6 1l2-1a12.409 12.409 0 0 0-4-2.5 8.43 8.43 0 0 1 4-.5v-3l2-2z"/><path style="opacity:1" fill="#07310f" d="M104.5 157.5c1.036 3.943 3.37 5.61 7 5a18.67 18.67 0 0 0-3-5c.616-.702.616-1.702 0-3 1.458.079 2.792.579 4 1.5a4.457 4.457 0 0 0-2 1.5c4.469 4.738 3.469 7.738-3 9-.929-1.189-1.262-2.522-1-4-1.644.214-3.144-.12-4.5-1a2.428 2.428 0 0 0-.5 2c-.647-.774-.98-1.774-1-3-.003-3.102.497-3.435 1.5-1l1-6c.21 1.558.71 2.891 1.5 4z"/><path style="opacity:1" fill="#018b21" d="M108.5 157.5a18.67 18.67 0 0 1 3 5c-3.63.61-5.964-1.057-7-5-.262-1.478.071-2.811 1-4a173.55 173.55 0 0 0 3 4z"/><path style="opacity:1" fill="#086a1e" d="M256.5 160.5c1.725.343 2.225 1.343 1.5 3-.908 1.939-2.408 2.939-4.5 3 .115-2.447 1.115-4.447 3-6z"/><path style="opacity:1" fill="#026b1a" d="M288.5 161.5c2.211.467 4.211 1.467 6 3-1.667 1-3 2.333-4 4-.327-2.167-.994-4.501-2-7z"/><path style="opacity:1" fill="#029f26" d="M83.5 164.5v4c-2.87-1.028-4.87-3.028-6-6l1-1c1.44 1.452 3.106 2.452 5 3z"/><path style="opacity:1" fill="#019622" d="M75.5 164.5a483.2 483.2 0 0 1 7 6c.38 3.067-.62 4.067-3 3-.974-2.635-2.64-4.635-5-6-.237-1.291.096-2.291 1-3z"/><path style="opacity:1" fill="#01771c" d="M289.5 175.5c-.917-4.085-3.417-6.752-7.5-8a28.931 28.931 0 0 0-1.5-4c1.387-.307 3.054-.307 5 0 .454 2.64 1.621 4.973 3.5 7 1.011.837 2.178 1.17 3.5 1 .412 2.473-.588 3.806-3 4z"/><path style="opacity:1" fill="#121804" d="M86.5 162.5c-.237 1.291.096 2.291 1 3 .268 1.599-.066 2.932-1 4 .219-1.175-.114-2.175-1-3-.22 4.558-1.72 8.558-4.5 12a20.211 20.211 0 0 1-1.5 6c-2.032-1.319-4.032-1.319-6 0a8.435 8.435 0 0 1 .5-4c2.263 1.089 4.096.422 5.5-2 1.035-1.628 1.035-3.295 0-5 2.38 1.067 3.38.067 3-3l1-2v-4c-.85-2.761.15-3.428 3-2z"/><path style="opacity:1" fill="#01771c" d="M244.5 158.5c.203 1.544.87 2.878 2 4-2.422 1.548-2.422 3.214 0 5-1.195 1.467-1.195 2.967 0 4.5-.336 1.03-1.003 1.53-2 1.5-1.14.661-2.64.661-4.5 0-1.219 5.009-2.053 4.676-2.5-1 1.431-.582 2.764-1.415 4-2.5-.228-.399-.562-.565-1-.5a439.78 439.78 0 0 0 3-6.5c-1.537-1.11-2.203-2.61-2-4.5h3z"/><path style="opacity:1" fill="#057f1f" d="M259.5 150.5a149.964 149.964 0 0 1 4 12c2.05 2.558 4.383 5.058 7 7.5 1.465.601 2.465.101 3-1.5-5.913-2.384-7.913-6.551-6-12.5 1.435.311 2.768.145 4-.5a17.808 17.808 0 0 1 3.5 5c.687-2.42.187-4.587-1.5-6.5.228-.399.562-.565 1-.5.997-.03 1.664.47 2 1.5 1.395 4.885 1.228 9.718-.5 14.5-1.473 1.507-3.307 2.174-5.5 2a100.159 100.159 0 0 1-7-1 23.579 23.579 0 0 0-3-8 54.856 54.856 0 0 1-1-12z"/><path style="opacity:1" fill="#048f23" d="M263.5 162.5c-.705-2.744-.705-5.411 0-8 1.396 1.352 2.063 3.019 2 5-.14 1.53-.807 2.53-2 3z"/><path style="opacity:1" fill="#00821f" d="M263.5 170.5v2c-1.474.936-2.474 2.27-3 4-.876.131-1.543-.202-2-1a27.07 27.07 0 0 0 2-4.5c.676-1.683 1.676-1.85 3-.5z"/><path style="opacity:1" fill="#156aec" d="M184.5 172.5h3a18.473 18.473 0 0 0 2 3.5c3.91 1.907 7.244 4.573 10 8l5 1a64.799 64.799 0 0 0 10 9c5.228 1.257 9.728 3.757 13.5 7.5a211.737 211.737 0 0 1 2.5 40c-2.258.947-3.425-.053-3.5-3a72.73 72.73 0 0 0-2.5-16 97.51 97.51 0 0 1-1.5-9c-1.055-2.556-2.888-4.223-5.5-5-10.966-8.097-22.633-15.263-35-21.5a78.986 78.986 0 0 1-8-6.5c.035-6.696 3.368-9.363 10-8z"/><path style="opacity:1" fill="#01791e" d="m281.5 172.5 2 8h-4c.352-2.573-.148-4.906-1.5-7-.496 1.535-.33 3.035.5 4.5a16.2 16.2 0 0 1-1.5 3.5c-1.604-2.747-2.438-5.747-2.5-9 2.382-1.046 4.715-1.046 7 0z"/><path style="opacity:1" fill="#01741c" d="M257.5 166.5c1.086.12 1.753.787 2 2a32.55 32.55 0 0 1-3 7c-1.227-3.195-.893-6.195 1-9z"/><path style="opacity:1" fill="#038a21" d="M43.5 161.5c4.585.42 7.585 1.42 9 3 .841 1.879 1.175 3.879 1 6a10.1 10.1 0 0 0-6 1.5 16.09 16.09 0 0 1 8 3.5 634.672 634.672 0 0 0-5 7 46.658 46.658 0 0 1-6-5.5 11.292 11.292 0 0 1 2-4c-3.465-.966-5.798-3.132-7-6.5a10.256 10.256 0 0 1 4-1.5c-5.167-1.014-5.167-2.18 0-3.5z"/><path style="opacity:1" fill="#034913" d="M103.5 172.5c.982.641 1.982 1.307 3 2 .607-.124.94-.457 1-1a20.69 20.69 0 0 0 5-1c-.111.617-.444 1.117-1 1.5 2.035.599 3.701.099 5-1.5-.114 1.848.219 3.848 1 6a14.698 14.698 0 0 1-3.5-3c-.884 3.933-.384 7.599 1.5 11l-2-1a41.612 41.612 0 0 0-3-10 20.2 20.2 0 0 0-1.5 6c-.129-2.503-1.129-4.503-3-6a358.463 358.463 0 0 1-1.5 10l-2-1c1.442-3.961 1.776-7.961 1-12z"/><path style="opacity:1" fill="#07244e" d="M182.5 167.5c-.826 2.048-.159 3.715 2 5-6.632-1.363-9.965 1.304-10 8-1.17-1.779-2.836-2.779-5-3-.086-.996.248-1.829 1-2.5a128.295 128.295 0 0 1 12-7.5z"/><path style="opacity:1" fill="#018821" d="M289.5 175.5c-.028 2.842-1.362 4.009-4 3.5-1.068-2.438-2.402-4.605-4-6.5a185.977 185.977 0 0 0-2-3l1-1c1.393 1.363 3.059 2.196 5 2.5.783 2.118 2.116 3.618 4 4.5z"/><path style="opacity:1" fill="#018b21" d="M101.5 172.5h2c.776 4.039.442 8.039-1 12a31.781 31.781 0 0 1-7-2.5 4.94 4.94 0 0 1-1-2.5 44.238 44.238 0 0 1 5.5-8l1 4a4.934 4.934 0 0 0 .5-3z"/><path style="opacity:1" fill="#191812" d="M153.5 173.5c-5.346 6.182-11.679 11.182-19 15a323.918 323.918 0 0 1 19-15z"/><path style="opacity:1" fill="#007d1e" d="M217.5 182.5c-1.587-1.714-2.921-3.714-4-6a27.553 27.553 0 0 1 5-5c1.545-.73 2.378-2.063 2.5-4 .667 1.667.667 3.333 0 5-3.685 1.166-4.185 2.999-1.5 5.5a15.414 15.414 0 0 0-2 4.5z"/><path style="opacity:1" fill="#019723" d="M269.5 173.5a24.935 24.935 0 0 1-.5 7 3.647 3.647 0 0 1-1.5 1c-.952-1.545-1.285-3.212-1-5 .063-2.695 1.063-3.695 3-3z"/><path style="opacity:1" fill="#0d8122" d="M273.5 174.5c.256 3.769-.077 7.436-1 11-.661-1.634-.994-3.467-1-5.5.047-2.295.713-4.129 2-5.5z"/><path style="opacity:1" fill="#026b1a" d="M52.5 164.5a608.262 608.262 0 0 0 5 11c2.747.313 5.413-.02 8-1 1.993-2.417 3.827-2.417 5.5 0 1.886-2.27 3.052-4.604 3.5-7 2.36 1.365 4.026 3.365 5 6 1.035 1.705 1.035 3.372 0 5-1.404 2.422-3.237 3.089-5.5 2a8.435 8.435 0 0 0-.5 4 92.843 92.843 0 0 1-12 1 12.935 12.935 0 0 0-.5-5c-1.585-.876-2.585-2.209-3-4a18.064 18.064 0 0 1-4.5 5.5c.964 2.598 2.63 3.098 5 1.5.797.457 1.13 1.124 1 2-3.655.575-6.655-.425-9-3a634.672 634.672 0 0 1 5-7 16.09 16.09 0 0 0-8-3.5 10.1 10.1 0 0 1 6-1.5c.175-2.121-.159-4.121-1-6z"/><path style="opacity:1" fill="#038821" d="M228.5 186.5c-1.256.039-2.256-.461-3-1.5 1.536-1.599 2.036-3.433 1.5-5.5l-3 5c-2.454-1.513-4.121-.846-5 2-.399-.228-.565-.562-.5-1-.236-2.726.597-5.059 2.5-7a7.293 7.293 0 0 0 2 3 33.242 33.242 0 0 0 3.5-6c1.024 1.353 2.357 2.02 4 2a46.86 46.86 0 0 1-2 9z"/><path style="opacity:1" fill="#02a326" d="M117.5 178.5c-.172 1.992.495 3.658 2 5-.783 1.788-2.116 2.788-4 3-1.884-3.401-2.384-7.067-1.5-11a14.698 14.698 0 0 0 3.5 3z"/><path style="opacity:1" fill="#035616" d="M217.5 163.5c1.591.719 3.091 1.719 4.5 3 1.572 5.416 5.072 8.416 10.5 9a8.43 8.43 0 0 0 .5 4c.667-1.333 1.333-1.333 2 0 .156-2.691.989-5.024 2.5-7 .447 5.676 1.281 6.009 2.5 1 1.86.661 3.36.661 4.5 0-.321 1.548-1.321 2.215-3 2a4.934 4.934 0 0 1-.5 3c-4.36 3.104-7.693 6.437-10 10-1.376-.184-2.209-.851-2.5-2a46.86 46.86 0 0 0 2-9c-1.643.02-2.976-.647-4-2a33.242 33.242 0 0 1-3.5 6 7.293 7.293 0 0 1-2-3c-1.903 1.941-2.736 4.274-2.5 7-.904-.709-1.237-1.709-1-3a15.414 15.414 0 0 1 2-4.5c-2.685-2.501-2.185-4.334 1.5-5.5.667-1.667.667-3.333 0-5-.122 1.937-.955 3.27-2.5 4 1.629-1.696 1.296-2.696-1-3-.792-1.757-2.125-3.091-4-4 1.189-.929 2.522-1.262 4-1z"/><path style="opacity:1" fill="#038f22" d="M61.5 185.5h-2c.13-.876-.203-1.543-1-2-2.37 1.598-4.036 1.098-5-1.5a18.064 18.064 0 0 0 4.5-5.5c.415 1.791 1.415 3.124 3 4 .493 1.634.66 3.301.5 5z"/><path style="opacity:1" fill="#039723" d="M113.5 185.5c-2.781.406-5.781.406-9 0a358.463 358.463 0 0 0 1.5-10c1.871 1.497 2.871 3.497 3 6a20.2 20.2 0 0 1 1.5-6 41.612 41.612 0 0 1 3 10z"/><path style="opacity:1" fill="#1e2006" d="M39.5 155.5c.29 2.627 1.624 4.294 4 5v1c-5.167 1.32-5.167 2.486 0 3.5a10.256 10.256 0 0 0-4 1.5c1.202 3.368 3.535 5.534 7 6.5a11.292 11.292 0 0 0-2 4 46.658 46.658 0 0 0 6 5.5c2.345 2.575 5.345 3.575 9 3h2a92.843 92.843 0 0 0 12-1c-1.342 1.293-3.009 2.126-5 2.5a49.226 49.226 0 0 1-14 0 51.054 51.054 0 0 1-10.5-7.5 18.437 18.437 0 0 1-.5-6c-1.322.17-2.489-.163-3.5-1-2.91-4.105-3.076-8.271-.5-12.5a14.068 14.068 0 0 1-1-3.5c0-.667.333-1 1-1z"/><path style="opacity:1" fill="#1a280b" d="M97.5 163.5c.978.311 1.644.978 2 2-2.63 1.505-2.297 2.171 1 2a20.69 20.69 0 0 0 1 5 4.934 4.934 0 0 1-.5 3l-1-4a44.238 44.238 0 0 0-5.5 8 4.94 4.94 0 0 0 1 2.5 31.781 31.781 0 0 0 7 2.5l2 1c3.219.406 6.219.406 9 0l2 1c1.884-.212 3.217-1.212 4-3-1.505-1.342-2.172-3.008-2-5 1.25-.077 2.083-.744 2.5-2 .374.916.874 1.75 1.5 2.5-2.518 1.14-2.518 2.306 0 3.5v1c-.957 2.668-2.957 4.168-6 4.5-15.218 2.336-24.884-3.83-29-18.5.934-1.068 1.268-2.401 1-4 1.83-.552 3.497-.552 5 0-2.37.848-3.704 2.515-4 5-.321 3.012 1.012 4.345 4 4a8.435 8.435 0 0 0 .5 4l3.5-4.5a4.458 4.458 0 0 1-2-1.5c1.684-1.354 2.184-3.021 1.5-5-.893 1.211-1.726 1.211-2.5 0l4-4z"/><path style="opacity:1" fill="#1c2f0e" d="M263.5 172.5c.876-.131 1.543.202 2 1-1.604 2.625-1.27 3.625 1 3-.285 1.788.048 3.455 1 5a3.647 3.647 0 0 0 1.5-1c.497-2.31.663-4.643.5-7 1.599-.268 2.932.066 4 1-1.287 1.371-1.953 3.205-2 5.5.006 2.033.339 3.866 1 5.5 0 .667.333 1 1 1-.235.597-.735.93-1.5 1a11.821 11.821 0 0 1-3.5-4.5c-3.272-1.17-6.272-2.67-9-4.5l1-2c.526-1.73 1.526-3.064 3-4z"/><path style="opacity:1" fill="#837203" d="M291.5 206.5c-8.849-.326-17.516.007-26 1-.543-.06-.876-.393-1-1 9.158-1.322 18.158-1.322 27 0z"/><path style="opacity:1" fill="#111213" d="M169.5 177.5c2.164.221 3.83 1.221 5 3a78.986 78.986 0 0 0 8 6.5c12.367 6.237 24.034 13.403 35 21.5l-40 2a293.218 293.218 0 0 0-52 2.5c-.916.278-1.582.778-2 1.5-.768.763-1.268 1.763-1.5 3a8.43 8.43 0 0 1-.5-4c1.369-3.687 4.035-5.353 8-5-.203-1.89.463-3.39 2-4.5a3830.11 3830.11 0 0 0 38-26.5z"/><path style="opacity:1" fill="#f7d502" d="M167.5 180.5a8.43 8.43 0 0 1 4 .5 121.501 121.501 0 0 0 7.5 6.5 1113.547 1113.547 0 0 1 33.5 20c-19.236-.113-38.569.054-58 .5a436.362 436.362 0 0 1-24 2 132.928 132.928 0 0 1 27-20c3.881-2.718 7.215-5.884 10-9.5z"/><path style="opacity:1" fill="#1b1307" d="M291.5 206.5c-5.576 8.038-7.576 17.038-6 27 10.153 1.435 19.153-.898 27-7 .323 6.19-.01 12.19-1 18-.999-4.505-.999-9.172 0-14-4.704 2.021-9.37 4.021-14 6h-13a106.296 106.296 0 0 1-1-20l1-4c.934-1.068 1.268-2.401 1-4h-15c-.237 1.291.096 2.291 1 3 2.979 7.981 4.312 16.315 4 25h-5a8.43 8.43 0 0 1-4-.5c2.208-.191 4.208-.691 6-1.5.974-9.788-1.359-18.788-7-27 8.484-.993 17.151-1.326 26-1z"/><path style="opacity:1" fill="#81100a" d="M284.5 212.5v-3c-4.794-.597-9.127.07-13 2-.904-.709-1.237-1.709-1-3h15c.268 1.599-.066 2.932-1 4z"/><path style="opacity:1" fill="#156bef" d="M177.5 210.5h40v3h-5a241.046 241.046 0 0 0-31 1c-3.057.89-4.891 2.89-5.5 6a96.54 96.54 0 0 0 .5 24c.765 1.112 1.765 1.779 3 2 3.477.823 7.144 1.323 11 1.5a135.21 135.21 0 0 0-10 2.5c-1.252 1.839-1.252 3.672 0 5.5 12.329.674 24.662 1.174 37 1.5 3.798.983 7.798 1.317 12 1 .295-2.235-.039-4.235-1-6a76.926 76.926 0 0 1-10-1c-.543-.06-.876-.393-1-1 4.775-1.153 9.442-.82 14 1v9a14.692 14.692 0 0 1-4.5 1 1425.107 1425.107 0 0 0-47.5-2c-2.534 11.325-2.534 22.659 0 34a221.28 221.28 0 0 0 1 27v22c-2.326 3.737-4.993 3.904-8 .5-.935-2.381-1.268-4.881-1-7.5-.079-11.093-.746-21.426-2-31-.973-2.448-1.306-5.115-1-8 .995-11.822 1.328-23.822 1-36-18.055-.139-35.722 1.861-53 6h-3c-.163-2.357.003-4.69.5-7 .383.556.883.889 1.5 1a53.455 53.455 0 0 0 17 .5 211.356 211.356 0 0 1 32-4c1.393-3.377.226-5.543-3.5-6.5a257.835 257.835 0 0 1-23.5 2 98.836 98.836 0 0 1-19 .5c1.237-.232 2.237-.732 3-1.5a1254.63 1254.63 0 0 0 43-4c1.465-3.889 1.965-7.889 1.5-12a32.337 32.337 0 0 0-3.5 9.5 112.73 112.73 0 0 0-19 3c-7.659.5-15.326.666-23 .5v-3c-1.175.219-2.175-.114-3-1a350.741 350.741 0 0 0 4-17c1.929-5.13 5.596-8.13 11-9a579.965 579.965 0 0 1 30-1.5l1-1a61.016 61.016 0 0 0-14.5-1.5c-7.736.323-15.236 1.323-22.5 3-.709.904-1.709 1.237-3 1v-4c.418-.722 1.084-1.222 2-1.5a293.218 293.218 0 0 1 52-2.5z"/><path style="opacity:1" fill="#0a2c61" d="M217.5 208.5c2.612.777 4.445 2.444 5.5 5a97.51 97.51 0 0 0 1.5 9c-1.542-.801-3.208-1.134-5-1-7.966-.733-7.966-2.066 0-4-4.482-.667-8.816-1.334-13-2 2.357.163 4.69-.003 7-.5-.556-.383-.889-.883-1-1.5h5v-3h-40l40-2z"/><path style="opacity:1" fill="#0c3e8a" d="M132.5 218.5c-1.765-.961-3.765-1.295-6-1 7.264-1.677 14.764-2.677 22.5-3 4.917-.077 9.75.423 14.5 1.5l-1 1a579.965 579.965 0 0 0-30 1.5z"/><path style="opacity:1" fill="#166df3" d="M206.5 215.5c4.184.666 8.518 1.333 13 2-7.966 1.934-7.966 3.267 0 4-.876-.131-1.543.202-2 1l3 2.5-3 2.5c.825.886 1.825 1.219 3 1v3a4.934 4.934 0 0 0-3 .5 12.93 12.93 0 0 0 5 .5v3a12.93 12.93 0 0 0-5 .5l7 1-4 3c1.372.402 2.705.902 4 1.5 1.276 1.114 1.276 2.114 0 3a16.597 16.597 0 0 0-7-.5 7.248 7.248 0 0 1 2 2.5c-3.71 1.258-7.377 1.258-11 0h-12c-4.305-2.175-8.972-3.509-14-4 .117-1.984-.55-3.65-2-5a9.108 9.108 0 0 0 1-5h-3c.396-6.099 2.729-11.432 7-16a111.148 111.148 0 0 1 21-1z"/><path style="opacity:1" fill="#5c0e08" d="M283.5 216.5c-.293 6.755.04 13.422 1 20-1.32-2.928-1.986-6.261-2-10 .002-3.518.335-6.851 1-10z"/><path style="opacity:1" fill="#f11f11" d="m284.5 212.5-1 4c-.665 3.149-.998 6.482-1 10 .014 3.739.68 7.072 2 10h13a8.43 8.43 0 0 1 4 .5c1.333.667 1.333 1.333 0 2 1.333.667 2.667.667 4 0-2.013-.875-2.013-2.209 0-4 1-.667 2-.667 3 0 1.287 3.125 1.287 6.291 0 9.5-8.403-2.08-16.737-2.414-25-1-1.372 8.213-.039 16.213 4 24-.124.607-.457.94-1 1h-13v-3c-.268-1.599.066-2.932 1-4 .722-.418 1.222-1.084 1.5-2a103.08 103.08 0 0 0-.5-23c.312-8.685-1.021-17.019-4-25 3.873-1.93 8.206-2.597 13-2v3z"/><path style="opacity:1" fill="#0b1734" d="M219.5 221.5c1.792-.134 3.458.199 5 1a72.73 72.73 0 0 1 2.5 16c.075 2.947 1.242 3.947 3.5 3-3.885 3.17-3.218 5.67 2 7.5-.228.399-.562.565-1 .5-4.317 1.008-6.65-.659-7-5 1.276-.886 1.276-1.886 0-3a28.931 28.931 0 0 0-4-1.5l4-3-7-1a12.93 12.93 0 0 1 5-.5v-3a12.93 12.93 0 0 1-5-.5 4.934 4.934 0 0 1 3-.5v-3c-1.175.219-2.175-.114-3-1l3-2.5-3-2.5c.457-.798 1.124-1.131 2-1z"/><path style="opacity:1" fill="#0b1021" d="M212.5 213.5c.111.617.444 1.117 1 1.5-2.31.497-4.643.663-7 .5-7.032-.33-14.032.003-21 1-4.271 4.568-6.604 9.901-7 16h3a9.108 9.108 0 0 1-1 5c1.45 1.35 2.117 3.016 2 5 1.98 1.605 4.313 2.772 7 3.5-3.317.498-6.65.665-10 .5-1.235-.221-2.235-.888-3-2a96.54 96.54 0 0 1-.5-24c.609-3.11 2.443-5.11 5.5-6a241.046 241.046 0 0 1 31-1z"/><path style="opacity:1" fill="#421306" d="M248.5 231.5c7.714 2.713 15.714 3.713 24 3-1.792.809-3.792 1.309-6 1.5a8.43 8.43 0 0 0 4 .5v1a215.523 215.523 0 0 1-23-3v12h-1c-.608-5.444.058-10.444 2-15z"/><path style="opacity:1" fill="#ee1f12" d="M270.5 237.5c3-.333 4.333 1 4 4a84.902 84.902 0 0 0-13 .5c-.556.383-.889.883-1 1.5-4.168 1.054-8.168 2.721-12 5-.798-.457-1.131-1.124-1-2v-12a215.523 215.523 0 0 0 23 3z"/><path style="opacity:1" fill="#675804" d="M248.5 231.5c-1.942 4.556-2.608 9.556-2 15-.284 1.915.049 3.581 1 5-.06.543-.393.876-1 1a121.862 121.862 0 0 1-1-22c1.291-.237 2.291.096 3 1z"/><path style="opacity:1" fill="#b0190b" d="M270.5 237.5v-1h5a103.08 103.08 0 0 1 .5 23c-.278.916-.778 1.582-1.5 2a114.269 114.269 0 0 0 1-18h-15c.111-.617.444-1.117 1-1.5a84.902 84.902 0 0 1 13-.5c.333-3-1-4.333-4-4z"/><path style="opacity:1" fill="#988404" d="M312.5 226.5a78.644 78.644 0 0 1 0 25c.284-1.915-.049-3.581-1-5v-2c.99-5.81 1.323-11.81 1-18z"/><path style="opacity:1" fill="#b3190d" d="M311.5 244.5v2c-.235.597-.735.93-1.5 1-3.019-2.44-6.519-3.607-10.5-3.5a128.507 128.507 0 0 0-16-.5c8.263-1.414 16.597-1.08 25 1 1.287-3.209 1.287-6.375 0-9.5-1-.667-2-.667-3 0-2.013 1.791-2.013 3.125 0 4-1.333.667-2.667.667-4 0 1.333-.667 1.333-1.333 0-2a8.43 8.43 0 0 0-4-.5c4.63-1.979 9.296-3.979 14-6-.999 4.828-.999 9.495 0 14z"/><path style="opacity:1" fill="#0b1f43" d="M121.5 213.5a8.43 8.43 0 0 0 .5 4c.232-1.237.732-2.237 1.5-3v4c1.291.237 2.291-.096 3-1 2.235-.295 4.235.039 6 1-5.404.87-9.071 3.87-11 9a350.741 350.741 0 0 1-4 17c.825.886 1.825 1.219 3 1v3c7.674.166 15.341 0 23-.5a112.73 112.73 0 0 1 19-3 32.337 32.337 0 0 1 3.5-9.5c.465 4.111-.035 8.111-1.5 12a1254.63 1254.63 0 0 1-43 4c-1.792-.134-3.458.199-5 1 1.199-2.991.532-5.658-2-8a184.16 184.16 0 0 0 7-31z"/><path style="opacity:1" fill="#0a479e" d="M182.5 242.5c5.028.491 9.695 1.825 14 4 1.052 1.756 2.719 2.423 5 2-1.792.809-3.792 1.309-6 1.5a90.455 90.455 0 0 0 19 0 20.093 20.093 0 0 0-6-1.5v-2c3.623 1.258 7.29 1.258 11 0a7.248 7.248 0 0 0-2-2.5 16.597 16.597 0 0 1 7 .5c.35 4.341 2.683 6.008 7 5v2c-4.558-1.82-9.225-2.153-14-1 .124.607.457.94 1 1-1.293.658-2.793.992-4.5 1a638.787 638.787 0 0 0-33.5-2 135.21 135.21 0 0 1 10-2.5c-3.856-.177-7.523-.677-11-1.5 3.35.165 6.683-.002 10-.5-2.687-.728-5.02-1.895-7-3.5z"/><path style="opacity:1" fill="#146df4" d="M201.5 248.5h7c2.064.187 4.064.687 6 1.5a90.455 90.455 0 0 1-19 0c2.208-.191 4.208-.691 6-1.5z"/><path style="opacity:1" fill="#090f1e" d="M196.5 246.5h12v2h-7c-2.281.423-3.948-.244-5-2z"/><path style="opacity:1" fill="#070a15" d="M180.5 250.5a638.787 638.787 0 0 1 33.5 2c1.707-.008 3.207-.342 4.5-1 3.307.551 6.64.884 10 1v5h-11a1313.225 1313.225 0 0 1-37-1.5c-1.252-1.828-1.252-3.661 0-5.5z"/><path style="opacity:1" fill="#060915" d="M115.5 260.5c-.322-2.222.345-4.056 2-5.5 6.912-.063 13.579-.897 20-2.5a257.835 257.835 0 0 0 23.5-2c3.726.957 4.893 3.123 3.5 6.5a211.356 211.356 0 0 0-32 4 53.455 53.455 0 0 1-17-.5z"/><path style="opacity:1" fill="#231506" d="M53.5 210.5c8.028-.331 16.028.002 24 1-4.541 8.772-6.208 18.105-5 28 10.017.872 18.85-1.795 26.5-8 .667 8.333.667 16.667 0 25l-4.5-4.5a242.43 242.43 0 0 0-22-.5c-.166 5.344 0 10.677.5 16a31.002 31.002 0 0 1 5.5 9 66.641 66.641 0 0 1-23 0c4.344-7.791 6.01-16.125 5-25-9.861-.619-18.861 1.715-27 7a121.871 121.871 0 0 1-1-22c2.971-.065 5.638.769 8 2.5 6.325.5 12.658.666 19 .5.676-10.285-1.324-19.952-6-29z"/><path style="opacity:1" fill="#710e07" d="M90.5 249.5h-20v15c-.988-5.14-1.321-10.474-1-16 7.187-.325 14.187.009 21 1z"/><path style="opacity:1" fill="#660e08" d="M70.5 223.5v17h13c-4.47.986-9.137 1.319-14 1-.323-6.19.01-12.19 1-18z"/><path style="opacity:1" fill="#e91e11" d="M70.5 223.5c-.99 5.81-1.323 11.81-1 18 4.863.319 9.53-.014 14-1 4.785.106 9.119-1.227 13-4a49.874 49.874 0 0 1 1 14 51.56 51.56 0 0 0-7-1c-6.813-.991-13.813-1.325-21-1-.321 5.526.012 10.86 1 16a76.691 76.691 0 0 0 3 11h-15a25.642 25.642 0 0 1 3.5-10c.5-5.323.666-10.656.5-16-6.01-.166-12.01.001-18 .5-3.042 2.022-6.375 3.189-10 3.5v-13a281.158 281.158 0 0 0 27 1c.166-5.011 0-10.011-.5-15-.113-4.043-1.28-7.709-3.5-11a57.15 57.15 0 0 1 15-1l-2 9z"/><path style="opacity:1" fill="#0a469b" d="M121.5 251.5c-.763.768-1.763 1.268-3 1.5a98.836 98.836 0 0 0 19-.5c-6.421 1.603-13.088 2.437-20 2.5-1.655 1.444-2.322 3.278-2 5.5-.617-.111-1.117-.444-1.5-1a24.935 24.935 0 0 0-.5 7h3c-.709.904-1.709 1.237-3 1-1.148-4.481-1.315-9.148-.5-14 1.011-.837 2.178-1.17 3.5-1 1.542-.801 3.208-1.134 5-1z"/><path style="opacity:1" fill="#073576" d="M228.5 252.5c.961 1.765 1.295 3.765 1 6-4.202.317-8.202-.017-12-1h11v-5z"/><path style="opacity:1" fill="#0a2148" d="M168.5 296.5a158.032 158.032 0 0 0-2-33 210.882 210.882 0 0 0-49 5.5 4.457 4.457 0 0 1 2 1.5 9.425 9.425 0 0 1-3 3l3 2c-1.103.498-2.103.831-3 1a7.293 7.293 0 0 1 2 3c-.932 1.48-.932 2.813 0 4a5.727 5.727 0 0 1-3-1c-.974-4.564-.974-9.064 0-13.5-.916-.278-1.582-.778-2-1.5 1.291.237 2.291-.096 3-1 17.278-4.139 34.945-6.139 53-6 .328 12.178-.005 24.178-1 36z"/><path style="opacity:1" fill="#091630" d="M179.5 259.5c15.847.403 31.681 1.069 47.5 2a14.692 14.692 0 0 0 4.5-1c-2.357 1.598-5.023 2.598-8 3a211.633 211.633 0 0 0-38-1 10.756 10.756 0 0 1-2.5 3 282.745 282.745 0 0 0-1.5 26 94.443 94.443 0 0 1 2 6.5c-1.515 2.569-2.181 5.402-2 8.5.96 9.14 2.293 18.14 4 27-1.112.765-1.779 1.765-2 3-.617.111-1.117.444-1.5 1-.173-5.848-.673-11.515-1.5-17a221.28 221.28 0 0 1-1-27 223.576 223.576 0 0 1 0-34z"/><path style="opacity:1" fill="#17160d" d="M134.5 188.5c.086.996-.248 1.829-1 2.5a103.613 103.613 0 0 0-19.5 16.5 371.5 371.5 0 0 0-1.5 25c.009 4.393.676 8.393 2 12 2.532 2.342 3.199 5.009 2 8-1.322-.17-2.489.163-3.5 1-.815 4.852-.648 9.519.5 14 .418.722 1.084 1.222 2 1.5-.974 4.436-.974 8.936 0 13.5a19.22 19.22 0 0 0-1 6 171.243 171.243 0 0 0-4-30.5l1-5.5c4.345-1.885 4.679-3.885 1-6a267.196 267.196 0 0 1-.5-40l7.5-7.5c4.88-3.72 9.88-7.22 15-10.5z"/><path style="opacity:1" fill="#166cf2" d="M223.5 263.5c-1.777 1.1-3.777 1.934-6 2.5 3.711.175 7.378.675 11 1.5a13.116 13.116 0 0 1-7 1c-1.478-.262-2.811.071-4 1a31.116 31.116 0 0 0 11 1c.131.876-.202 1.543-1 2a51.28 51.28 0 0 0-6 2c9.333 1.333 9.333 2.667 0 4 9.143 2.111 8.81 3.777-1 5 .124.607.457.94 1 1h8c-2.217 1.58-4.884 2.58-8 3a3.647 3.647 0 0 0 1 1.5c2.4.186 4.734.686 7 1.5-12 1.333-12 2.667 0 4a112.72 112.72 0 0 1-9 3 25.879 25.879 0 0 0 10 1c.172.992-.162 1.658-1 2a32.462 32.462 0 0 0-8 .5 3.647 3.647 0 0 0-1 1.5c1.984 1.206 3.984 1.206 6 0 2.371.392 3.038 1.392 2 3a25.879 25.879 0 0 0-10 1 36.875 36.875 0 0 0 12 1v3a43.117 43.117 0 0 0-13 1 49.87 49.87 0 0 0 14 1c.237 1.291-.096 2.291-1 3a98.432 98.432 0 0 0-14 .5 3.647 3.647 0 0 0-1 1.5 130.373 130.373 0 0 0 16 1.5 111.892 111.892 0 0 1-14 2.5c4.817.667 9.483 1.334 14 2-9.176.364-18.342 1.697-27.5 4a77.645 77.645 0 0 1-13.5 5.5c-2.048 1.956-3.714 4.123-5 6.5-1.548-.321-2.215-1.321-2-3 .221-1.235.888-2.235 2-3a318.528 318.528 0 0 1-4-27c-.181-3.098.485-5.931 2-8.5a94.443 94.443 0 0 0-2-6.5c.093-8.557.593-17.223 1.5-26a10.756 10.756 0 0 0 2.5-3 211.633 211.633 0 0 1 38 1z"/><path style="opacity:1" fill="#201204" d="M260.5 243.5h15c.14 6.036-.193 12.036-1 18-.934 1.068-1.268 2.401-1 4-.934 1.068-1.268 2.401-1 4 4.863.319 9.53-.014 14-1 .543-.06.876-.393 1-1-4.039-7.787-5.372-15.787-4-24 5.344-.166 10.677.001 16 .5 3.981-.107 7.481 1.06 10.5 3.5.765-.07 1.265-.403 1.5-1 .951 1.419 1.284 3.085 1 5-8.693-4.545-18.026-6.212-28-5-.233 7.964 1.767 15.298 6 22a4.933 4.933 0 0 1-1 2.5c-6.683 1.783-13.349 1.783-20 0a51.289 51.289 0 0 1 3.5-10.5c.499-4.989.666-9.989.5-15-9.359-.492-18.025 1.508-26 6-.951-1.419-1.284-3.085-1-5h1c-.131.876.202 1.543 1 2 3.832-2.279 7.832-3.946 12-5z"/><path style="opacity:1" fill="#176ef7" d="M168.5 296.5c-.306 2.885.027 5.552 1 8v31c.285 1.788-.048 3.455-1 5-1.122-1.13-2.456-1.797-4-2-5.836-5.395-12.836-8.061-21-8a175.924 175.924 0 0 0-17-3c-1.955-.947-2.289-2.281-1-4a32.065 32.065 0 0 1-4-2.5l2-1c-1.323-.816-1.989-1.983-2-3.5-1.419-.951-3.085-1.284-5-1 1.333-2.333 1.333-4.667 0-7 6.667-.667 6.667-1.333 0-2 .048-3.135 1.715-4.802 5-5-1.189-.929-2.522-1.262-4-1-.28-2.888 1.053-4.388 4-4.5a8.43 8.43 0 0 0-4-.5v-3c1.478.262 2.811-.071 4-1-.825-.886-1.825-1.219-3-1 .215-2.644.215-4.977 0-7-.932-1.187-.932-2.52 0-4a7.293 7.293 0 0 0-2-3c.897-.169 1.897-.502 3-1l-3-2a9.425 9.425 0 0 0 3-3 4.457 4.457 0 0 0-2-1.5 210.882 210.882 0 0 1 49-5.5 158.032 158.032 0 0 1 2 33z"/><path style="opacity:1" fill="#6c0e07" d="M273.5 265.5v3h13c-4.47.986-9.137 1.319-14 1-.268-1.599.066-2.932 1-4z"/><path style="opacity:1" fill="#052d64" d="m221.5 268.5 7 2a31.116 31.116 0 0 1-11-1c1.189-.929 2.522-1.262 4-1z"/><path style="opacity:1" fill="#091b3c" d="M228.5 270.5c1.063 4.139 1.73 8.472 2 13-3.213-.31-6.213.023-9 1-.543-.06-.876-.393-1-1 9.81-1.223 10.143-2.889 1-5 9.333-1.333 9.333-2.667 0-4a51.28 51.28 0 0 1 6-2c.798-.457 1.131-1.124 1-2z"/><path style="opacity:1" fill="#0a3f8b" d="M179.5 259.5a223.576 223.576 0 0 0 0 34c-2.534-11.341-2.534-22.675 0-34z"/><path style="opacity:1" fill="#0c1e40" d="M229.5 284.5c.348 3.715 1.014 7.715 2 12-.363.683-.696 1.35-1 2a25.879 25.879 0 0 1-10-1 112.72 112.72 0 0 0 9-3c-12-1.333-12-2.667 0-4a26.724 26.724 0 0 0-7-1.5 3.647 3.647 0 0 1-1-1.5c3.116-.42 5.783-1.42 8-3z"/><path style="opacity:1" fill="#072a5e" d="M229.5 300.5a14.093 14.093 0 0 0 1 3.5c-.336 1.03-1.003 1.53-2 1.5 1.038-1.608.371-2.608-2-3-2.016 1.206-4.016 1.206-6 0a3.647 3.647 0 0 1 1-1.5 32.462 32.462 0 0 1 8-.5z"/><path style="opacity:1" fill="#08285e" d="M230.5 315.5c-4.147.825-8.481 1.325-13 1.5l15 1c1.578 2.339 1.245 4.172-1 5.5-4.517-.666-9.183-1.333-14-2a111.892 111.892 0 0 0 14-2.5 130.373 130.373 0 0 1-16-1.5 3.647 3.647 0 0 1 1-1.5 98.432 98.432 0 0 1 14-.5z"/><path style="opacity:1" fill="#082d67" d="M121.5 316.5c.011 1.517.677 2.684 2 3.5l-2 1a32.065 32.065 0 0 0 4 2.5c-1.289 1.719-.955 3.053 1 4h-5a12.93 12.93 0 0 1-.5 5 38.852 38.852 0 0 0-1.5-7c1.109-1.714.442-2.381-2-2a4.934 4.934 0 0 1 .5-3c.893 1.211 1.726 1.211 2.5 0-1.189-.929-2.522-1.262-4-1-.219-1.175.114-2.175 1-3 1.226.863 2.56.863 4 0z"/><path style="opacity:1" fill="#0c4293" d="M171.5 335.5h-2v-31c1.254 9.574 1.921 19.907 2 31z"/><path style="opacity:1" fill="#0e0e0f" d="M115.5 282.5c.891.61 1.891.943 3 1 .215 2.023.215 4.356 0 7 1.175-.219 2.175.114 3 1-1.189.929-2.522 1.262-4 1v3a8.43 8.43 0 0 1 4 .5c-2.947.112-4.28 1.612-4 4.5 1.478-.262 2.811.071 4 1-3.285.198-4.952 1.865-5 5 6.667.667 6.667 1.333 0 2 1.333 2.333 1.333 4.667 0 7 1.915-.284 3.581.049 5 1-1.44.863-2.774.863-4 0-.886.825-1.219 1.825-1 3 1.478-.262 2.811.071 4 1-.774 1.211-1.607 1.211-2.5 0a4.934 4.934 0 0 0-.5 3c2.442-.381 3.109.286 2 2a38.852 38.852 0 0 1 1.5 7 12.93 12.93 0 0 0 .5-5h5a175.924 175.924 0 0 1 17 3c.418.722 1.084 1.222 2 1.5-2.987 2.044-6.154 2.544-9.5 1.5a82.45 82.45 0 0 0-6.5 3c1.921 1.141 3.921 1.308 6 .5l-2-1c1.667-.667 3.333-.667 5 0-1.323.816-1.989 1.983-2 3.5-8.003-.42-14.836-3.42-20.5-9a372.152 372.152 0 0 1-1.5-42 19.22 19.22 0 0 1 1-6z"/><path style="opacity:1" fill="#071634" d="M143.5 330.5c8.164-.061 15.164 2.605 21 8-9.376.906-18.71 1.24-28 1 .011-1.517.677-2.684 2-3.5-1.667-.667-3.333-.667-5 0l2 1c-2.079.808-4.079.641-6-.5a82.45 82.45 0 0 1 6.5-3c3.346 1.044 6.513.544 9.5-1.5-.916-.278-1.582-.778-2-1.5z"/><path style="opacity:1" fill="#1263dc" d="M145.5 333.5c5.746-.806 10.746.694 15 4.5-6 .667-12 .667-18 0a4.457 4.457 0 0 1-2-1.5c1.86-.825 3.526-1.825 5-3z"/><path style="opacity:1" fill="#062f69" d="M180.5 320.5c.827 5.485 1.327 11.152 1.5 17 .383-.556.883-.889 1.5-1-.215 1.679.452 2.679 2 3a29.555 29.555 0 0 0-5 3v-22z"/><path style="opacity:1" fill="#111113" d="M187.5 172.5a848.943 848.943 0 0 1 42 28 154.427 154.427 0 0 1 2.5 43 4.457 4.457 0 0 0-1.5 2c1.881 1.262 3.214 2.929 4 5a101.859 101.859 0 0 0-3 28.5 400.544 400.544 0 0 1 2.5 47.5c-14.232 8.769-29.732 13.602-46.5 14.5-4.079 2.075-7.579 4.908-10.5 8.5a303.899 303.899 0 0 0-14.5-8.5 332.95 332.95 0 0 1-26-1.5c9.29.24 18.624-.094 28-1 1.544.203 2.878.87 4 2 .952-1.545 1.285-3.212 1-5h2c-.268 2.619.065 5.119 1 7.5 3.007 3.404 5.674 3.237 8-.5a29.555 29.555 0 0 1 5-3c1.286-2.377 2.952-4.544 5-6.5a77.645 77.645 0 0 0 13.5-5.5c9.158-2.303 18.324-3.636 27.5-4 2.245-1.328 2.578-3.161 1-5.5l-15-1c4.519-.175 8.853-.675 13-1.5.904-.709 1.237-1.709 1-3a49.87 49.87 0 0 1-14-1 43.117 43.117 0 0 1 13-1v-3a36.875 36.875 0 0 1-12-1 25.879 25.879 0 0 1 10-1c.997.03 1.664-.47 2-1.5a14.093 14.093 0 0 1-1-3.5c.838-.342 1.172-1.008 1-2 .304-.65.637-1.317 1-2-.986-4.285-1.652-8.285-2-12h-8c2.787-.977 5.787-1.31 9-1-.27-4.528-.937-8.861-2-13l-7-2a13.116 13.116 0 0 0 7-1 62.744 62.744 0 0 0-11-1.5c2.223-.566 4.223-1.4 6-2.5 2.977-.402 5.643-1.402 8-3v-11c.438.065.772-.101 1-.5-5.218-1.83-5.885-4.33-2-7.5.43-13.44-.404-26.773-2.5-40-3.772-3.743-8.272-6.243-13.5-7.5a64.799 64.799 0 0 1-10-9l-5-1c-2.756-3.427-6.09-6.093-10-8a18.473 18.473 0 0 1-2-3.5z"/><path style="opacity:1" fill="#115fd4" d="M214.5 328.5a13.116 13.116 0 0 1 7 1 243.4 243.4 0 0 0-9 5.5c-5.789 2.491-11.789 3.491-18 3a6.547 6.547 0 0 1 3-3c5.98-1.739 11.647-3.906 17-6.5z"/></svg>