<svg xmlns="http://www.w3.org/2000/svg" width="225" height="243" style="shape-rendering:geometricPrecision;text-rendering:geometricPrecision;image-rendering:optimizeQuality;fill-rule:evenodd;clip-rule:evenodd"><path style="opacity:1" fill="#090909" d="M130.5 231.5c-9.986.666-19.986.999-30 1h-1c-3.088-1.285-6.422-1.951-10-2-26.943-5.215-48.443-18.882-64.5-41-7.132-9.934-11.799-20.934-14-33-.5-48.332-.667-96.666-.5-145h203c.167 49.334 0 98.668-.5 148-13.019 40.515-40.519 64.515-82.5 72z"/><path style="opacity:1" fill="#c40d00" d="M109.5 68.5c-6.07.97-12.07.47-18-1.5-3.996-4.114-4.662-8.614-2-13.5a18.492 18.492 0 0 0 3.5-2 37.816 37.816 0 0 1 10 3c4.536-1.81 5.536-4.81 3-9a12.139 12.139 0 0 1-4.5-3.5c7.802-.285 10.802-4.119 9-11.5-.502-1.021-1.168-1.188-2-.5-.855 4.084-3.189 5.584-7 4.5a26.722 26.722 0 0 1-1.5-7 3.943 3.943 0 0 0-2-1 47.188 47.188 0 0 0-5.5 6c-2.713-2.593-4.713-5.593-6-9-2.108 1.882-3.442 4.215-4 7-2.626.95-5.293.95-8 0v-8c-4.138.473-6.138 2.806-6 7-1.967.24-3.8-.094-5.5-1 1.047-7.974-1.286-8.974-7-3-.196-1.786-1.03-3.12-2.5-4-3.784 3.583-3.784 7.083 0 10.5 9.672 3.354 19.671 4.854 30 4.5 1.613 1.338 2.113 3.005 1.5 5a64.109 64.109 0 0 0-8 7 154.004 154.004 0 0 1-7 15 16.25 16.25 0 0 0 0 8 42.28 42.28 0 0 1 3.5 8v3c-3.213-.31-6.213.023-9 1-.617.11-1.117.444-1.5 1a41.187 41.187 0 0 1-3.5 13c2.668 5.917 7.168 8.25 13.5 7 .201-4.63-1.966-7.296-6.5-8-.089-5.886 2.578-7.886 8-6 2.292.84 4.625 1.84 7 3a93.032 93.032 0 0 0 5 19.5l-.5 2.5a43.282 43.282 0 0 0-6.5 6h-64v-106h97v53h-3z"/><path style="opacity:1" fill="#fdfdfd" d="M158.5 121.5c.891-.761 1.558-1.761 2-3-2.298-4.363-3.464-9.03-3.5-14-4.274-3.087-7.107-7.087-8.5-12 1.235-5.694 1.235-11.361 0-17a32.367 32.367 0 0 1 4.5-3c1.458-4.746-.042-8.08-4.5-10-1.472 2.116-2.639 4.45-3.5 7a9.175 9.175 0 0 0-4.5-2c-.418-.722-1.084-1.222-2-1.5l-7-.5c-3.947-.137-7.614.53-11 2h-5v-52h93v106h-50z"/><path style="opacity:1" fill="#6f160d" d="M89.5 53.5v-2c-.03-.997.47-1.664 1.5-2 4.794.953 9.627 1.62 14.5 2a4.934 4.934 0 0 0-.5-3 63.68 63.68 0 0 1-6.5-7c.838-.342 1.172-1.008 1-2 4.131.785 7.464-.381 10-3.5l-1-1.5c-2.368 1.723-5.034 2.39-8 2-1.406-.473-2.073-1.473-2-3 .262-1.478-.071-2.811-1-4-1.434 1.72-2.267 3.72-2.5 6a14.437 14.437 0 0 0-5.5-2.5c-1.729-1.789-2.396-3.956-2-6.5h-3v4c-2.988 1.773-6.322 2.44-10 2-1.175-1.474-2.175-3.14-3-5-.929 1.189-1.262 2.522-1 4-3.585.348-6.918-.319-10-2a70.679 70.679 0 0 1-2-4c-.93 4.925-2.596 5.258-5 1-1.31 1.74-.976 3.073 1 4 3.3.784 6.634 1.784 10 3h8c3.942.375 7.61 1.375 11 3-10.329.354-20.328-1.146-30-4.5-3.784-3.417-3.784-6.917 0-10.5 1.47.88 2.304 2.214 2.5 4 5.714-5.974 8.047-4.974 7 3 1.7.906 3.533 1.24 5.5 1-.138-4.194 1.862-6.527 6-7v8c2.707.95 5.374.95 8 0 .558-2.785 1.892-5.118 4-7 1.287 3.407 3.287 6.407 6 9a47.188 47.188 0 0 1 5.5-6 3.943 3.943 0 0 1 2 1c.186 2.4.686 4.734 1.5 7 3.811 1.084 6.145-.416 7-4.5.832-.688 1.498-.521 2 .5 1.802 7.381-1.198 11.215-9 11.5a12.139 12.139 0 0 0 4.5 3.5c2.536 4.19 1.536 7.19-3 9a37.816 37.816 0 0 0-10-3 18.492 18.492 0 0 1-3.5 2z"/><path style="opacity:1" fill="#edcac2" d="M60.5 29.5c-1.765.961-3.765 1.295-6 1-1.976-.927-2.31-2.26-1-4 2.404 4.258 4.07 3.925 5-1a70.679 70.679 0 0 0 2 4z"/><path style="opacity:1" fill="#9d5b4e" d="M60.5 29.5c3.082 1.681 6.415 2.348 10 2l-6 2a92.146 92.146 0 0 0-10-3c2.235.295 4.235-.039 6-1z"/><path style="opacity:1" fill="#d9b0a6" d="M74.5 32.5c-.342.838-1.008 1.172-2 1h-8l6-2c-.262-1.478.071-2.811 1-4 .825 1.86 1.825 3.526 3 5z"/><path style="opacity:1" fill="#faf6f4" d="M98.5 33.5c-.073 1.527.594 2.527 2 3 .111.617.444 1.117 1 1.5-1.634.493-3.3.66-5 .5l-2-1c1.332-1.33 2.165-2.997 2.5-5 .383.556.883.89 1.5 1z"/><path style="opacity:1" fill="#ceaea7" d="M98.5 33.5c-.617-.11-1.117-.444-1.5-1-.335 2.003-1.168 3.67-2.5 5-4.075-1.363-7.408-3.696-10-7v-4h3c-.396 2.544.271 4.711 2 6.5a14.437 14.437 0 0 1 5.5 2.5c.233-2.28 1.066-4.28 2.5-6 .929 1.189 1.262 2.522 1 4z"/><path style="opacity:1" fill="#fbf9f9" d="M98.5 41.5a63.68 63.68 0 0 0 6.5 7c.483.948.649 1.948.5 3a123.474 123.474 0 0 1-14.5-2c-1.03.336-1.53 1.003-1.5 2-5.644 6.335-4.978 12.168 2 17.5a48.34 48.34 0 0 1 12 2.5 29.155 29.155 0 0 1 9-1v21h-11a21.12 21.12 0 0 1-9-1c1.006-.896 1.006-1.562 0-2a18.338 18.338 0 0 1-6 4c-3.788-1.756-7.788-2.422-12-2-1.939-2.776-4.439-3.443-7.5-2-1.525 3.22-2.192 6.553-2 10 1.7.906 3.533 1.24 5.5 1v4c-3.27-.384-6.103-1.718-8.5-4a101.71 101.71 0 0 1 2.5-14c.667 0 1-.333 1-1 5.676.166 11.343 0 17-.5a27.57 27.57 0 0 1-5-1.5c-6.36-7.271-7.526-15.271-3.5-24 3.246-8.079 8.746-14.079 16.5-18a26.61 26.61 0 0 0-3.5-2c-.75-1.135-.583-2.135.5-3a718.194 718.194 0 0 0 11 6z"/><path style="opacity:1" fill="#cc978b" d="M99.5 39.5c-1.291.237-2.291-.096-3-1 1.7.16 3.366-.007 5-.5-.556-.383-.889-.883-1-1.5 2.966.39 5.632-.277 8-2l1 1.5c-2.536 3.119-5.869 4.285-10 3.5z"/><path style="opacity:1" fill="#424442" d="M94.5 42.5c2.5.01 2.668.678.5 2a2.428 2.428 0 0 1-.5-2z"/><path style="opacity:1" fill="#4c2c25" d="M84.5 30.5c2.592 3.304 5.925 5.637 10 7l2 1c.709.904 1.709 1.237 3 1 .172.992-.162 1.658-1 2a718.194 718.194 0 0 1-11-6c-1.083.865-1.25 1.865-.5 3a26.61 26.61 0 0 1 3.5 2c-7.754 3.921-13.254 9.921-16.5 18-4.026 8.729-2.86 16.729 3.5 24-.342.838-1.008 1.172-2 1-.16-1.653-.826-2.986-2-4a42.28 42.28 0 0 0-3.5-8 16.25 16.25 0 0 1 0-8 154.004 154.004 0 0 0 7-15 64.109 64.109 0 0 1 8-7c.613-1.995.113-3.662-1.5-5-3.39-1.625-7.058-2.625-11-3 .992.172 1.658-.162 2-1 3.678.44 7.012-.227 10-2z"/><path style="opacity:1" fill="#45221c" d="M89.5 51.5v2c-2.662 4.886-1.996 9.386 2 13.5 5.93 1.97 11.93 2.47 18 1.5l3 2a29.155 29.155 0 0 0-9 1 48.34 48.34 0 0 0-12-2.5c-6.978-5.332-7.644-11.165-2-17.5z"/><path style="opacity:1" fill="#492824" d="M140.5 67.5c-6.711-.213-13.377.12-20 1v-1c3.386-1.47 7.053-2.137 11-2l7 .5c.916.278 1.582.778 2 1.5z"/><path style="opacity:1" fill="#bf0f00" d="m140.5 67.5 1 2c.815 1.337 1.982 2.337 3.5 3 .566 2.223 1.4 4.223 2.5 6-.166 6.01.001 12.01.5 18a51.043 51.043 0 0 0 8 9 16.242 16.242 0 0 1 0 8c-.988-4.909-3.821-8.242-8.5-10-1-1.667-2.333-3-4-4 .131-2.867-1.203-4.533-4-5-2-2.667-4.333-5-7-7-5.682-.107-11.015 1.227-16 4a133.156 133.156 0 0 1-1-23h5a122.205 122.205 0 0 1 20-1z"/><path style="opacity:1" fill="#971906" d="M147.5 78.5c-1.1-1.777-1.934-3.777-2.5-6-1.518-.663-2.685-1.663-3.5-3 1.67.251 3.17.918 4.5 2a274.762 274.762 0 0 1 4-4c1.45 2.336.784 4.336-2 6a12.93 12.93 0 0 0-.5 5z"/><path style="opacity:1" fill="#5d0d09" d="M73.5 79.5c1.174 1.014 1.84 2.347 2 4-3.542-.313-6.875.02-10 1 0 .667-.333 1-1 1v-2c2.787-.977 5.787-1.31 9-1v-3z"/><path style="opacity:1" fill="#503029" d="M158.5 121.5h-1c1.39-2.5 1.223-4.833-.5-7-.21 1.558-.71 2.891-1.5 4a168.167 168.167 0 0 0-1.5-8 63.707 63.707 0 0 1-6.5-7c4.679 1.758 7.512 5.091 8.5 10a16.242 16.242 0 0 0 0-8 51.043 51.043 0 0 1-8-9c-.499-5.99-.666-11.99-.5-18-.16-1.7.006-3.366.5-5 2.784-1.664 3.45-3.664 2-6a274.762 274.762 0 0 0-4 4 9.175 9.175 0 0 0-4.5-2l-1-2c1.67.251 3.17.918 4.5 2 .861-2.55 2.028-4.884 3.5-7 4.458 1.92 5.958 5.254 4.5 10a32.367 32.367 0 0 0-4.5 3c1.235 5.639 1.235 11.306 0 17 1.393 4.913 4.226 8.913 8.5 12 .036 4.97 1.202 9.637 3.5 14-.442 1.239-1.109 2.239-2 3z"/><path style="opacity:1" fill="#a28580" d="M77.5 82.5a27.57 27.57 0 0 0 5 1.5c-5.657.5-11.324.666-17 .5 3.125-.98 6.458-1.313 10-1 .992.172 1.658-.162 2-1z"/><path style="opacity:1" fill="#fbfafa" d="M129.5 90.5c2.266 5.807 2.599 11.807 1 18-3.068 3.122-5.402 6.789-7 11-2.382 1.546-5.049 2.213-8 2v-29a43.344 43.344 0 0 0 10.5-3c1.256.148 2.423.482 3.5 1z"/><path style="opacity:1" fill="#431612" d="M132.5 87.5c2.667 2 5 4.333 7 7l2 3h-3a11.987 11.987 0 0 0 1 6c-.457.798-1.124 1.131-2 1-1.077-3.026-1.077-6.026 0-9-1.421-2.843-3.421-4.176-6-4 2.445 5.217 2.611 10.551.5 16-.383.556-.883.889-1.5 1 1.599-6.193 1.266-12.193-1-18 .6-1.4 1.6-2.4 3-3z"/><path style="opacity:1" fill="#681b10" d="M101.5 91.5h11v2h-18l7-2z"/><path style="opacity:1" fill="#c20e00" d="M94.5 93.5h18v28c-7.852.325-15.518-.008-23-1 2.214-.892 3.214-2.558 3-5a83.164 83.164 0 0 1-.5-21c.67-.752 1.504-1.086 2.5-1z"/><path style="opacity:1" fill="#721305" d="M139.5 94.5c2.797.467 4.131 2.133 4 5-1-.333-1.667-1-2-2l-2-3z"/><path style="opacity:1" fill="#4c1913" d="M64.5 83.5v2a101.71 101.71 0 0 0-2.5 14c2.397 2.282 5.23 3.616 8.5 4v-4c-1.967.24-3.8-.094-5.5-1-.192-3.447.475-6.78 2-10 3.061-1.443 5.561-.776 7.5 2-5.422-1.886-8.089.114-8 6 4.534.704 6.701 3.37 6.5 8-6.332 1.25-10.832-1.083-13.5-7a41.187 41.187 0 0 0 3.5-13c.383-.556.883-.89 1.5-1z"/><path style="opacity:1" fill="#f9f7f7" d="M141.5 97.5c.333 1 1 1.667 2 2 1.667 1 3 2.333 4 4a63.707 63.707 0 0 0 6.5 7 168.167 168.167 0 0 1 1.5 8 10.515 10.515 0 0 0-3 2.5c-8.51.823-16.844.657-25-.5h3a20.093 20.093 0 0 1 1.5-6 73.609 73.609 0 0 0 5.5-10c.876.131 1.543-.202 2-1a11.987 11.987 0 0 1-1-6h3z"/><path style="opacity:1" fill="#482e28" d="M137.5 104.5a73.609 73.609 0 0 1-5.5 10 20.093 20.093 0 0 0-1.5 6h-4a102.484 102.484 0 0 1 11-16z"/><path style="opacity:1" fill="#4c2c25" d="M130.5 108.5a557.884 557.884 0 0 1-5 10c-.457.798-1.124 1.131-2 1 1.598-4.211 3.932-7.878 7-11z"/><path style="opacity:1" fill="#37120e" d="m101.5 91.5-7 2c-.996-.086-1.83.248-2.5 1a83.164 83.164 0 0 0 .5 21c.214 2.442-.786 4.108-3 5 .065-.438-.101-.772-.5-1-.278.916-.778 1.582-1.5 2a24.258 24.258 0 0 1 3-7c-.887-6.97-1.22-13.97-1-21h-5a187.745 187.745 0 0 0 3 19l-.5 5c-1.992.828-3.492 2.161-4.5 4h-3a43.282 43.282 0 0 1 6.5-6l.5-2.5a93.032 93.032 0 0 1-5-19.5 73.746 73.746 0 0 0-7-3c4.212-.422 8.212.244 12 2a18.338 18.338 0 0 0 6-4c1.006.438 1.006 1.104 0 2a21.12 21.12 0 0 0 9 1z"/><path style="opacity:1" fill="#ecdedb" d="M87.5 121.5h-5c1.008-1.839 2.508-3.172 4.5-4l.5-5a187.745 187.745 0 0 1-3-19h5c-.22 7.03.113 14.03 1 21a24.258 24.258 0 0 0-3 7z"/><path style="opacity:1" fill="#b31001" d="M157.5 121.5a4.934 4.934 0 0 1-3-.5c.752-.671 1.086-1.504 1-2.5.79-1.109 1.29-2.442 1.5-4 1.723 2.167 1.89 4.5.5 7z"/><path style="opacity:1" fill="#b91402" d="M137.5 104.5a102.484 102.484 0 0 0-11 16c-1.101 1.098-2.434 1.265-4 .5.556-.383.889-.883 1-1.5.876.131 1.543-.202 2-1 1.725-3.367 3.392-6.7 5-10 .617-.111 1.117-.444 1.5-1 2.111-5.449 1.945-10.783-.5-16 2.579-.176 4.579 1.157 6 4-1.077 2.974-1.077 5.974 0 9z"/><path style="opacity:1" fill="#fcfcfc" d="M15.5 124.5h97v104c-37.913-.752-67.08-17.085-87.5-49a103.249 103.249 0 0 1-9-21 578.416 578.416 0 0 1-.5-34z"/><path style="opacity:1" fill="#194f25" d="M115.5 124.5h93c4.924 25.113-.576 47.446-16.5 67-14.692 17.764-33.192 29.597-55.5 35.5a111.396 111.396 0 0 1-21 1.5v-104z"/><path style="opacity:1" fill="#f0f2f0" d="M174.5 147.5c-4.605 2.936-8.605 6.602-12 11-4.357-.278-5.357-1.945-3-5a6.547 6.547 0 0 0 3-3 57.51 57.51 0 0 0 9-9 514.367 514.367 0 0 0 4-3 19.887 19.887 0 0 1 4 3.5 38.47 38.47 0 0 0-5 5.5z"/><path style="opacity:1" fill="#f3f3f3" d="M138.5 139.5c3.395 4.398 7.395 8.064 12 11 1.333 2 3 3.667 5 5-.999 2.674-2.666 3.341-5 2-3.292-2.99-6.626-5.99-10-9a25.657 25.657 0 0 0-6-6c.783-1.788 2.116-2.788 4-3z"/><path style="opacity:1" fill="#184f25" d="M83.5 144.5a82.698 82.698 0 0 1 1 14 33.825 33.825 0 0 1 13.5 4c2.073 4.806 1.906 9.473-.5 14a40.58 40.58 0 0 1-14 2 835.326 835.326 0 0 1 3 14.5c-7.993.5-15.993.666-24 .5l2-15c-5.484.28-10.484-1.053-15-4-1.21-11.124 3.79-16.457 15-16-1.436-14.985 4.898-19.651 19-14z"/><path style="opacity:1" fill="#243126" d="M138.5 139.5c-1.884.212-3.217 1.212-4 3a25.657 25.657 0 0 1 6 6 26.796 26.796 0 0 0-8-4c.418-2.939 1.918-5.272 4.5-7 .717.544 1.217 1.211 1.5 2z"/><path style="opacity:1" fill="#223124" d="M138.5 139.5c4.564 2.891 8.564 6.557 12 11-4.605-2.936-8.605-6.602-12-11z"/><path style="opacity:1" fill="#121a12" d="M171.5 141.5a57.51 57.51 0 0 1-9 9c2-4 5-7 9-9z"/><path style="opacity:1" fill="#112214" d="M174.5 147.5c-3.395 4.398-7.395 8.064-12 11 3.395-4.398 7.395-8.064 12-11z"/><path style="opacity:1" fill="#7a847b" d="M63.5 147.5v10h-7c1.765-.961 3.765-1.295 6-1-.31-3.213.023-6.213 1-9z"/><path style="opacity:1" fill="#232a23" d="M83.5 144.5c2.228 3.576 3.228 7.576 3 12 2.46 1.031 5.127 1.698 8 2 6.288 3.695 8.122 9.029 5.5 16-.708.881-1.542 1.547-2.5 2 2.406-4.527 2.573-9.194.5-14a33.825 33.825 0 0 0-13.5-4c.063-4.703-.27-9.37-1-14z"/><path style="opacity:1" fill="#7a847c" d="M86.5 156.5c3.053-.389 5.72.277 8 2-2.873-.302-5.54-.969-8-2z"/><path style="opacity:1" fill="#1d201d" d="M159.5 153.5c-2.357 3.055-1.357 4.722 3 5v3a43.836 43.836 0 0 1-2-1 23.65 23.65 0 0 1-3 3.5c3.5 2.334 6.5 5.168 9 8.5-3.063-1.551-5.729-3.718-8-6.5-1-.667-2-.667-3 0a179.919 179.919 0 0 1-9.5 8.5c-.183 2.865-.683 5.531-1.5 8a18.453 18.453 0 0 0-.5-6c-1.451 1.964-3.284 3.297-5.5 4a204.429 204.429 0 0 1 17-17 6.547 6.547 0 0 0-3-3 26.544 26.544 0 0 0-7 5l5-8c2.334 1.341 4.001.674 5-2 1.105-1.1 2.438-1.767 4-2z"/><path style="opacity:1" fill="#cacac9" d="M155.5 158.5c1.837.139 2.17.806 1 2-.798-.457-1.131-1.124-1-2z"/><path style="opacity:1" fill="#f0f1f0" d="M138.5 180.5c-1.904-.238-3.238-1.238-4-3 3.638-3.974 7.305-7.974 11-12a26.544 26.544 0 0 1 7-5 6.547 6.547 0 0 1 3 3 204.429 204.429 0 0 0-17 17z"/><path style="opacity:1" fill="#f5f6f5" d="M162.5 161.5a110.008 110.008 0 0 0 15.5 15c.464.594.631 1.261.5 2a31.147 31.147 0 0 0-2 2c-3.083-3.094-6.416-5.761-10-8a36.438 36.438 0 0 0-9-8.5 23.65 23.65 0 0 0 3-3.5c.683.363 1.35.696 2 1z"/><path style="opacity:1" fill="#17271a" d="M162.5 161.5a381.355 381.355 0 0 1 18 15.5c-.544.717-1.211 1.217-2 1.5a2.428 2.428 0 0 0-.5-2 110.008 110.008 0 0 1-15.5-15z"/><path style="opacity:1" fill="#fafafa" d="M166.5 172.5a160.464 160.464 0 0 1 4 23c-8.269 1.97-16.935 2.636-26 2v-15c.817-2.469 1.317-5.135 1.5-8a179.919 179.919 0 0 0 9.5-8.5c1-.667 2-.667 3 0 2.271 2.782 4.937 4.949 8 6.5z"/><path style="opacity:1" fill="#29312a" d="M83.5 144.5c-14.102-5.651-20.436-.985-19 14-11.21-.457-16.21 4.876-15 16-3.335-6.429-2.002-11.929 4-16.5a4.934 4.934 0 0 1 3-.5h7v-10c3.705-6.671 9.372-8.838 17-6.5 1.563.759 2.563 1.926 3 3.5z"/><path style="opacity:1" fill="#1b211b" d="M49.5 174.5c4.516 2.947 9.516 4.28 15 4l-2 15c8.007.166 16.007 0 24-.5a835.326 835.326 0 0 0-3-14.5c4.8.15 9.467-.516 14-2-2.883 3.156-6.55 4.49-11 4l1 14h-27l2-14c-5.743.658-10.076-1.342-13-6z"/><path style="opacity:1" fill="#0b0d0b" d="M134.5 177.5c.762 1.762 2.096 2.762 4 3-.283.789-.783 1.456-1.5 2l-3-3c-.692-.937-.525-1.603.5-2z"/><path style="opacity:1" fill="#101210" d="M144.5 183.5v14c9.065.636 17.731-.03 26-2 .904.709 1.237 1.709 1 3h-29c-.056-5.231.611-10.231 2-15z"/><path style="opacity:1" fill="#5c5e5a" d="M89.5 230.5c3.578.049 6.912.715 10 2-3.622.178-6.956-.489-10-2z"/><path style="opacity:1" fill="#7b7c7a" d="M130.5 231.5c-5.934 1.463-12.101 2.13-18.5 2-4.015-.001-7.849-.335-11.5-1a451.371 451.371 0 0 0 30-1z"/></svg>