<svg xmlns="http://www.w3.org/2000/svg" width="173" height="168" style="shape-rendering:geometricPrecision;text-rendering:geometricPrecision;image-rendering:optimizeQuality;fill-rule:evenodd;clip-rule:evenodd"><path style="opacity:1" fill="#313230" d="M.5-.5h171c0 .667.333 1 1 1v29c-1.565 21.307-6.399 41.974-14.5 62-2.047 5.034-4.547 9.7-7.5 14h-2c15.455-32.138 22.122-66.138 20-102a6806.827 6806.827 0 0 0-165-1c-.327 10.18.006 20.18 1 30 .852 44.968 17.852 82.301 51 112l-2 1C28.76 125.377 12.593 99.71 5 68.5 2.161 53.13.328 37.796-.5 22.5v-9c1.333-.333 1.333-.667 0-1v-8c1.333-.667 1.333-1.333 0-2v-2c.667 0 1-.333 1-1z"/><path style="opacity:1" fill="#f2f3f0" d="M168.5 3.5c2.122 35.862-4.545 69.862-20 102-14.665 25.031-34.998 44.197-61 57.5-3.613.208-6.946-.792-10-3a388.17 388.17 0 0 1-22-15.5c-33.148-29.699-50.148-67.032-51-112v-29h164z"/><path style="opacity:1" fill="#a3a5a2" d="M168.5 3.5H4.5v29c-.994-9.82-1.327-19.82-1-30 55.17-.332 110.169.001 165 1z"/><path style="opacity:1" fill="#171210" d="M9.5 9.5c50.999.494 101.999.828 153 1 1.139 32.51-5.028 63.51-18.5 93-13.43 23.458-32.263 41.125-56.5 53-29.946-13.901-51.78-35.901-65.5-66-9.596-26.129-13.763-53.129-12.5-81z"/><path style="opacity:1" fill="#fb0101" d="M158.5 13.5c1.865 32.8-4.635 63.8-19.5 93a230.825 230.825 0 0 1-15.5 20.5A353.369 353.369 0 0 1 87 153.5c-44.993-23.609-69.16-60.942-72.5-112v-28h144z"/><path style="opacity:1" fill="#a90a0c" d="M158.5 13.5h-144v28c-.994-9.486-1.327-19.152-1-29 48.503-.332 96.836.001 145 1z"/><path style="opacity:1" fill="#1f1715" d="M141.5 50.5c-1.435-1.29-2.435-2.956-3-5a14.456 14.456 0 0 0-7 1.5 63.03 63.03 0 0 1 10 9l-4 4c-4.153-1.004-4.82.163-2 3.5-2.536 4.849-5.536 5.182-9 1-.929-1.189-1.262-2.522-1-4a60.808 60.808 0 0 1-7-2.5 268.864 268.864 0 0 0-19 20 42.106 42.106 0 0 0 9 10.5c1.329-6.162 4.329-11.329 9-15.5a12.5 12.5 0 0 1 7 0c8.239 4.765 9.906 11.098 5 19-7.659 1.173-9.659-1.66-6-8.5-2.715-2.71-5.215-2.377-7.5 1a20.447 20.447 0 0 0-3.5 6.5 227.912 227.912 0 0 1 18.5 17.5c.648 5.682-1.852 8.516-7.5 8.5-5.229-4.903-10.229-10.236-15-16-7.074-2.463-11.74-.13-14 7 .268 2.893 1.268 3.226 3 1 7.922-1.75 10.422 1.083 7.5 8.5-7.365 4.911-13.365 3.578-18-4-2.73-5.796-1.563-10.63 3.5-14.5l12-3A92.184 92.184 0 0 0 90 86.5c-2.892 1.32-4.225 3.654-4 7l-2 2c.245 4.313.245 8.647 0 13-.233 2.28-1.066 4.28-2.5 6 3.934 3.21 3.934 6.377 0 9.5-2.666.162-4.666-1.005-6-3.5-7.667 4-15.333 4-23 0-3.377 2.985-5.71 2.319-7-2 1-1.98 2.333-3.646 4-5-2.989-2.926-4.656-6.593-5-11a105.913 105.913 0 0 1 3-9.5l-3-5c.725-4.084 3.058-5.418 7-4a11.383 11.383 0 0 0 2 2.5c5.963-3.606 12.13-3.939 18.5-1a150.703 150.703 0 0 1 9.5-6 538.56 538.56 0 0 0-21-17.5c-13.658-11.655-23.325-25.988-29-43l1-1.5c10.167 3.683 19.167 9.183 27 16.5a1652.813 1652.813 0 0 1 33 35.5 3116.034 3116.034 0 0 1 48-46.5c2.403-.63 4.237.203 5.5 2.5a31.945 31.945 0 0 1-1.5 12l1 1c4.406-2.696 7.406-1.362 9 4a163.705 163.705 0 0 1-9.5 12 19.565 19.565 0 0 1-3.5-4z"/><path style="opacity:1" fill="#e5e7e4" d="M118.5 74.5c8.481.312 12.647 4.645 12.5 13-1.516 2.506-3.682 3.34-6.5 2.5-.88-1.356-1.214-2.856-1-4.5 4.562.22 5.228-1.28 2-4.5-6.645-2.596-11.145-.43-13.5 6.5-.325-2.053.009-4.053 1-6a57.112 57.112 0 0 1 5.5-7z"/><path style="opacity:1" fill="#e2e3e0" d="M128.5 48.5c.997-.03 1.664.47 2 1.5-1.166 4.587.167 5.42 4 2.5a19.897 19.897 0 0 1 4 3.5c-2.307.31-4.474 1.142-6.5 2.5-.595 1.399-.428 2.732.5 4-1.773 3.812-3.44 3.646-5-.5a11.064 11.064 0 0 1 2-3.5 6.204 6.204 0 0 0-3.5-2c-1.578 1.047-3.078 1.047-4.5 0 2.356-2.686 4.689-5.353 7-8z"/><path style="opacity:1" fill="#e1e2df" d="M141.5 50.5c-.322-2.222.345-4.056 2-5.5a19.897 19.897 0 0 0-4-3.5c-1.468 1.833-3.135 2.166-5 1 2.333-3 5-5.667 8-8 1.145 1.276 1.145 2.609 0 4a10.756 10.756 0 0 0 2.5 3c2.901-2.818 5.401-2.484 7.5 1-1.853.42-3.687.753-5.5 1-1.325 2.48-1.825 4.98-1.5 7.5-1.319.195-2.653.028-4-.5z"/><path style="opacity:1" fill="#e9ebe8" d="M140.5 24.5c2.973.465 4.14 2.132 3.5 5A1422.019 1422.019 0 0 0 98.5 74c-2.821.507-3.988-.66-3.5-3.5a2956.731 2956.731 0 0 0 45.5-46z"/><path style="opacity:1" fill="#edeeeb" d="M33.5 20.5c5.287 1.753 10.287 4.253 15 7.5a169.792 169.792 0 0 1 17 14L104 86.5c2.112 3.89.946 5.724-3.5 5.5a520.86 520.86 0 0 0-34-27c-14.712-12.194-25.712-27.027-33-44.5z"/><path style="opacity:1" fill="#181a18" d="M40.5 27.5a650.536 650.536 0 0 1 57.5 56c.667.667.667 1.333 0 2a779.211 779.211 0 0 1-48-46 154.854 154.854 0 0 1-9.5-12z"/><path style="opacity:1" fill="#eaebe8" d="M82.5 81.5a8.434 8.434 0 0 1 4 .5c1.174 2.829.174 3.829-3 3-.837-1.011-1.17-2.178-1-3.5zM77.5 83.5c7.09 1.55 8.59 5.216 4.5 11a84.714 84.714 0 0 1-7.5-8c1.27-.788 2.27-1.788 3-3z"/><path style="opacity:1" fill="#dcdedb" d="M47.5 84.5c3.185.222 4.185 1.722 3 4.5a8.434 8.434 0 0 1-4 .5c-.134-1.791.2-3.458 1-5z"/><path style="opacity:1" fill="#eaebe8" d="M49.5 113.5c-4.784-11.578-1.784-20.412 9-26.5a42.498 42.498 0 0 1 13 0c12.148 7.55 14.314 17.383 6.5 29.5-10.492 7.468-19.992 6.468-28.5-3z"/><path style="opacity:1" fill="#1f211f" d="M61.5 89.5c14.37 1.379 19.204 9.045 14.5 23-9.21 8.765-17.21 7.765-24-3-2.424-9.48.742-16.147 9.5-20z"/><path style="opacity:1" fill="#ebece9" d="M60.5 91.5h4v4c-3.296.05-4.629-1.283-4-4z"/><path style="opacity:1" fill="#e7e8e5" d="M107.5 90.5c2.744.572 3.577 2.238 2.5 5-1.444 1.655-3.278 2.322-5.5 2-.35-2.953.65-5.287 3-7z"/><path style="opacity:1" fill="#b6b8b5" d="M66.5 91.5c3.837.703 4.003 2.036.5 4a8.434 8.434 0 0 1-.5-4z"/><path style="opacity:1" fill="#e8e9e6" d="M56.5 94.5a27.24 27.24 0 0 0 8 4c3.203-.268 5.87-1.602 8-4 .586.21 1.086.543 1.5 1-.468 2.69-1.302 5.358-2.5 8 .313 2.481 1.313 4.647 3 6.5a6.204 6.204 0 0 1-2 3.5c-5.077-5.243-10.077-5.243-15 0a10.756 10.756 0 0 1-3-2.5c4.93-4.323 5.263-8.99 1-14 .243-.902.577-1.735 1-2.5z"/><path style="opacity:1" fill="#edeeeb" d="M112.5 95.5c5.954 2.108 10.621 5.941 14 11.5-1.266 1.983-2.932 2.983-5 3a179.06 179.06 0 0 1-10-12.5c.363-.683.696-1.35 1-2z"/><path style="opacity:1" fill="#d4d5d2" d="M53.5 99.5c1.138 2.804 1.304 5.804.5 9-1.815-2.884-1.982-5.884-.5-9z"/><path style="opacity:1" fill="#e0e1de" d="M74.5 100.5c2.116 1.588 2.449 3.588 1 6-2.239-1.633-2.572-3.633-1-6z"/><path style="opacity:1" fill="#e7e8e5" d="M92.5 100.5a4.934 4.934 0 0 1 3 .5c-5.333 4.667-5.333 9.333 0 14a4.934 4.934 0 0 0 3 .5c-1.008-5.167.825-6.834 5.5-5 .494 6.824-2.672 9.324-9.5 7.5-8.19-5.086-8.856-10.92-2-17.5z"/><path style="opacity:1" fill="#0e100d" d="M61.5 100.5c5.658-.82 7.325 1.346 5 6.5-5.238.594-6.905-1.573-5-6.5z"/><path style="opacity:1" fill="#d4d6d3" d="M62.5 102.5h3c-.746 3.81-1.746 3.81-3 0z"/><path style="opacity:1" fill="#ecedea" d="M126.5 108.5h3c.138 4.193-1.862 6.527-6 7-.35-2.953.65-5.287 3-7z"/><path style="opacity:1" fill="#f2f3f0" d="M61.5 111.5c1.756 1.052 2.423 2.719 2 5-4.311-.285-4.978-1.951-2-5z"/><path style="opacity:1" fill="#d2d4d1" d="M65.5 111.5c6.255 2.483 6.255 4.15 0 5v-5z"/><path style="opacity:1" fill="#dadcd9" d="M48.5 116.5c1.495-.085 2.495.581 3 2-.82 1.611-2.154 2.278-4 2-.067-1.459.266-2.792 1-4z"/><path style="opacity:1" fill="#e1e2df" d="M78.5 117.5h3v4c-3.454.233-4.454-1.1-3-4z"/><path style="opacity:1" fill="#2e302e" d="M148.5 105.5h2a168.061 168.061 0 0 1-12.5 21c-14.762 16.954-31.928 30.621-51.5 41h-2a160.026 160.026 0 0 1-31-22l2-1a388.17 388.17 0 0 0 22 15.5c3.054 2.208 6.387 3.208 10 3 26.002-13.303 46.335-32.469 61-57.5z"/></svg>