<svg xmlns="http://www.w3.org/2000/svg" width="213" height="241" style="shape-rendering:geometricPrecision;text-rendering:geometricPrecision;image-rendering:optimizeQuality;fill-rule:evenodd;clip-rule:evenodd"><path style="opacity:1" fill="#6f6a58" d="M206.5 5.5H8.5v137c-.999-45.83-1.332-91.83-1-138 66.502-.332 132.835 0 199 1z"/><path style="opacity:1" fill="#070708" d="M206.5 5.5c.167 47.668 0 95.334-.5 143-1.4 17.728-7.567 33.395-18.5 47a10.515 10.515 0 0 1-3-2.5c1.184-1.145 1.184-2.312 0-3.5 9.934-13.576 15.101-28.91 15.5-46 .667-8.667.667-17.333 0-26-25.711-.89-51.877-1.223-78.5-1v3h-5a71.254 71.254 0 0 1 4-2l-6.5-1a548.105 548.105 0 0 0-36 1c-5.6-.646-11.1-1.313-16.5-2h46v-105a61.278 61.278 0 0 0-5.5-2c-29.264.663-58.431 1.33-87.5 2v104c-.802-1.452-1.302-3.118-1.5-5-1.505 1.798-1.672 3.632-.5 5.5-1.032 1.627-2.366 2.793-4 3.5V5.5h198z"/><path style="opacity:1" fill="#000332" d="M107.5 10.5h-93c29.069-.67 58.236-1.337 87.5-2a61.278 61.278 0 0 1 5.5 2z"/><path style="opacity:1" fill="#203782" d="M14.5 10.5h93v61c-.672-19.736-1.339-39.569-2-59.5a824.4 824.4 0 0 0-68 .5h-1c-6.813-.991-13.813-1.325-21-1a3978.93 3978.93 0 0 1 0 103h9c1.144-8.058 1.144-16.058 0-24l2-11v34h71c2.73 1.317 5.563 1.317 8.5 0 .169-11.507.669-22.84 1.5-34v36h-47c-15.51.33-30.842-.004-46-1v-104z"/><path style="opacity:1" fill="#beaf6b" d="M199.5 115.5a1830.22 1830.22 0 0 0-1.5-103 189.786 189.786 0 0 0-33.5-.5c-.881.708-1.547 1.542-2 2.5h-6c1.109-.79 2.442-1.29 4-1.5a262.378 262.378 0 0 0-50-.5 2233.747 2233.747 0 0 0-1 94v9c-.998-34.83-1.332-69.83-1-105h92c.332 35.17-.002 70.17-1 105z"/><path style="opacity:1" fill="#1239ae" d="M107.5 71.5v8a570.653 570.653 0 0 0-1.5 34c-2.937 1.317-5.77 1.317-8.5 0 1.678-5.493 2.678-11.326 3-17.5A162.681 162.681 0 0 1 99 78.5c-.949-1.593-2.115-2.926-3.5-4-.817-2.979-1.65-5.979-2.5-9-1.7-.906-3.533-1.24-5.5-1 .638-3.356-.696-5.356-4-6 .166-5.011 0-10.011-.5-15-.383-.556-.883-.89-1.5-1-1.38-1.206-2.547-.873-3.5 1-1.598 2.395-1.764 4.728-.5 7v5a30.139 30.139 0 0 1-3 3.5 32.437 32.437 0 0 1-8 .5h-19c.412-2.473-.588-3.806-3-4 .172-.992-.162-1.658-1-2 .063-4.703-.27-9.37-1-14a18.436 18.436 0 0 1 .5-6c1.257 2.246 3.09 3.58 5.5 4v-3c-1.175.219-2.175-.114-3-1a14.974 14.974 0 0 1 3-3.5c-1.748-.08-3.415-.913-5-2.5-1.147-2.265-1.314-4.598-.5-7l1 1c1.12-1.052 1.62-2.219 1.5-3.5-5.114.195-5.114-.472 0-2-2.976-.705-5.642-1.871-8-3.5a824.4 824.4 0 0 1 68-.5c.661 19.931 1.328 39.764 2 59.5z"/><path style="opacity:1" fill="#1c1915" d="M156.5 14.5h6c4.801 2.472 8.301 6.138 10.5 11a124.405 124.405 0 0 0 5 17c.812 5.217.312 10.217-1.5 15-.951-1.419-1.284-3.085-1-5 1.069-2.908 1.236-5.908.5-9a492.797 492.797 0 0 0-6-21 25.136 25.136 0 0 0-4.5-4c-1.72-1.364-3.72-2.364-6-3-2.479 1.576-5.146 2.576-8 3 1.282-1.68 2.949-3.013 5-4z"/><path style="opacity:1" fill="#192f91" d="M165.5 18.5c-.086.996.248 1.83 1 2.5-2.539.796-4.872.63-7-.5-.06-.543-.393-.876-1-1a76.685 76.685 0 0 1-6 3.5 4.451 4.451 0 0 1 2 1.5 23.602 23.602 0 0 0-3.5 3c-1.388-1.236-2.554-2.57-3.5-4a16.57 16.57 0 0 1 4-2.5c-1.098-.77-1.098-1.603 0-2.5 2.854-.424 5.521-1.424 8-3 2.28.636 4.28 1.636 6 3z"/><path style="opacity:1" fill="#19203f" d="M151.5 18.5c-1.098.897-1.098 1.73 0 2.5a16.57 16.57 0 0 0-4 2.5c.636-2.295 1.969-3.961 4-5z"/><path style="opacity:1" fill="#122772" d="M165.5 18.5a25.136 25.136 0 0 1 4.5 4 492.797 492.797 0 0 1 6 21c.736 3.092.569 6.092-.5 9-.656.778-1.489 1.444-2.5 2-2.236-1.998-4.736-3.331-7.5-4 2.948-.277 5.781.056 8.5 1 .667-4 .667-8 0-12-.278-.916-.778-1.583-1.5-2-.355-3.599-1.689-6.765-4-9.5a18.064 18.064 0 0 1-5.5-4.5 11.81 11.81 0 0 0-3.5 2h-1c.119-1.683.452-3.35 1-5 2.128 1.13 4.461 1.296 7 .5-.752-.67-1.086-1.504-1-2.5z"/><path style="opacity:1" fill="#fadd64" d="M156.5 14.5c-2.051.987-3.718 2.32-5 4-2.031 1.039-3.364 2.705-4 5-.876-.13-1.543.203-2 1-1.52 2.162-2.52 4.495-3 7-.722.418-1.222 1.084-1.5 2-1-1.333-2-1.333-3 0a44.656 44.656 0 0 0-6.5 14c-.838.342-1.172 1.008-1 2-1.293 1.342-2.126 3.009-2.5 5-.667 4-.667 8 0 12a25.136 25.136 0 0 0 4.5 4c1.839 3.4 1.172 4.9-2 4.5a35.524 35.524 0 0 0 4 5.5 5.727 5.727 0 0 0 1 3v3a4.934 4.934 0 0 1-.5 3 1227.31 1227.31 0 0 1-8.5 11c-1.347.671-2.514.671-3.5 0-1.742.749-3.242 2.416-4.5 5-1.189.929-2.522 1.262-4 1a8.43 8.43 0 0 1-.5 4 32.6 32.6 0 0 1-4.5-4c-.326-31.377.008-62.71 1-94a262.378 262.378 0 0 1 50 .5c-1.558.21-2.891.71-4 1.5z"/><path style="opacity:1" fill="#1236a9" d="M172.5 37.5c-.557 5.815-2.724 6.815-6.5 3 .359 3.68 2.192 6.514 5.5 8.5-1.325-.148-2.492.018-3.5.5a6.544 6.544 0 0 0-3-3l-1-5-1 2a7.292 7.292 0 0 0-2-3c-.741 1.14-1.575 1.14-2.5 0-1.553-1.765-1.886-3.599-1-5.5-2.873-2.37-2.539-4.204 1-5.5.929-1.189 1.262-2.522 1-4a11.81 11.81 0 0 1 3.5-2 18.064 18.064 0 0 0 5.5 4.5c2.311 2.735 3.645 5.901 4 9.5z"/><path style="opacity:1" fill="#111219" d="M142.5 31.5a4.934 4.934 0 0 0 .5 3c.654-1.196 1.154-1.196 1.5 0a49.892 49.892 0 0 0-1 5.5 19.215 19.215 0 0 1 3 6.5c-1.951-1.216-3.451-2.883-4.5-5a208.89 208.89 0 0 1-4.5 5c.34-2.179 1.34-4.012 3-5.5.368-1.473-.132-2.973-1.5-4.5-3.018 3.386-5.518 7.053-7.5 11a44.656 44.656 0 0 1 6.5-14c1-1.333 2-1.333 3 0 .278-.916.778-1.582 1.5-2z"/><path style="opacity:1" fill="#112e92" d="M158.5 25.5h1c.262 1.478-.071 2.811-1 4-3.539 1.296-3.873 3.13-1 5.5-.886 1.901-.553 3.735 1 5.5.925 1.14 1.759 1.14 2.5 0a7.292 7.292 0 0 1 2 3l1-2 1 5a6.544 6.544 0 0 1 3 3c1.008-.482 2.175-.648 3.5-.5-3.308-1.986-5.141-4.82-5.5-8.5 3.776 3.815 5.943 2.815 6.5-3 .722.417 1.222 1.084 1.5 2 .667 4 .667 8 0 12-2.719-.944-5.552-1.277-8.5-1 .111-.617.444-1.117 1-1.5a108.273 108.273 0 0 1-9-2 22.146 22.146 0 0 0-7-4c-4.714-2.83-5.214-6.33-1.5-10.5a90.524 90.524 0 0 1 9.5-7z"/><path style="opacity:1" fill="#ae9d4d" d="M33.5 33.5h1v5h5c0 .667.333 1 1 1v2c-3.198.536-5.865-.131-8-2 .961-1.765 1.295-3.765 1-6z"/><path style="opacity:1" fill="#312d05" d="M31.5 39.5h1c2.135 1.869 4.802 2.536 8 2v1c-3.108-.236-6.108.097-9 1v-4z"/><path style="opacity:1" fill="#f2d96e" d="M40.5 42.5c1.626 2.746 2.293 5.746 2 9h-12l1-8c2.892-.903 5.892-1.236 9-1z"/><path style="opacity:1" fill="#121322" d="M40.5 31.5h1c-.306 2.885.027 5.552 1 8a82.702 82.702 0 0 1 1 14c-.667 0-1-.333-1-1v-1c.293-3.254-.374-6.254-2-9v-11z"/><path style="opacity:1" fill="#0c184a" d="M159.5 20.5a20.365 20.365 0 0 0-1 5 90.524 90.524 0 0 0-9.5 7c-3.714 4.17-3.214 7.67 1.5 10.5 2.571.9 4.904 2.234 7 4 2.971.794 5.971 1.461 9 2-.556.383-.889.883-1 1.5 2.764.669 5.264 2.002 7.5 4 1.011-.556 1.844-1.222 2.5-2-.284 1.915.049 3.581 1 5v2c-5.776-4.773-12.442-7.94-20-9.5-1.176-2.301-2.51-2.634-4-1 1.214 3.193 3.214 5.693 6 7.5-4.881-2.21-8.881-5.543-12-10a19.215 19.215 0 0 0-3-6.5 49.892 49.892 0 0 1 1-5.5c-.346-1.196-.846-1.196-1.5 0a4.934 4.934 0 0 1-.5-3c.48-2.505 1.48-4.838 3-7 .457-.797 1.124-1.13 2-1 .946 1.43 2.112 2.764 3.5 4a23.602 23.602 0 0 1 3.5-3 4.451 4.451 0 0 0-2-1.5 76.685 76.685 0 0 0 6-3.5c.607.124.94.457 1 1z"/><path style="opacity:1" fill="#e9de8b" d="m81.5 44.5 1 4c-5.73.876-6.563-.79-2.5-5 .383.556.883.89 1.5 1z"/><path style="opacity:1" fill="#47473d" d="M81.5 42.5v2c-.617-.11-1.117-.444-1.5-1-4.063 4.21-3.23 5.876 2.5 5v1h-4c-.667 0-1 .333-1 1-1.264-2.272-1.098-4.605.5-7 .953-1.873 2.12-2.206 3.5-1z"/><path style="opacity:1" fill="#392d0c" d="m31.5 43.5-1 8h12v1h-13c-.432-3.377.235-6.377 2-9z"/><path style="opacity:1" fill="#282b50" d="M81.5 42.5c.617.11 1.117.444 1.5 1 .5 4.989.666 9.989.5 15h-1v-10l-1-4v-2z"/><path style="opacity:1" fill="#f3da7e" d="M29.5 52.5h13c0 .667.333 1 1 1v3c-5.195.32-10.195-.013-15-1a5.728 5.728 0 0 0 1-3z"/><path style="opacity:1" fill="#152563" d="M137.5 46.5a32.508 32.508 0 0 1-3 7c-.982 3.462-1.315 7.129-1 11v3c-1.808.817-3.308.15-4.5-2-.754-5.463-.254-10.797 1.5-16-.172-.992.162-1.658 1-2 1.982-3.947 4.482-7.614 7.5-11 1.368 1.527 1.868 3.027 1.5 4.5-1.66 1.488-2.66 3.321-3 5.5z"/><path style="opacity:1" fill="#143194" d="M176.5 59.5c.838.342 1.172 1.008 1 2v4h-4c-.31-1.644-1.31-2.644-3-3 .131-.876-.202-1.543-1-2a143.904 143.904 0 0 0-11-4c-2.786-1.807-4.786-4.307-6-7.5 1.49-1.634 2.824-1.301 4 1 7.558 1.56 14.224 4.727 20 9.5z"/><path style="opacity:1" fill="#131639" d="M29.5 52.5a5.728 5.728 0 0 1-1 3c-1.125.848-1.125 1.848 0 3a301.949 301.949 0 0 1-1 20h-1c.03-8.046-.137-16.045-.5-24 .816-1.323 1.983-1.99 3.5-2z"/><path style="opacity:1" fill="#897f5b" d="M78.5 49.5v8h3v-8h1v9h-5v-8c0-.667.333-1 1-1z"/><path style="opacity:1" fill="#f9e06f" d="M78.5 49.5h3v8h-3v-8z"/><path style="opacity:1" fill="#0d0d05" d="M130.5 49.5c-1.754 5.203-2.254 10.537-1.5 16 1.192 2.15 2.692 2.817 4.5 2v3h-1a25.136 25.136 0 0 1-4.5-4c-.667-4-.667-8 0-12 .374-1.991 1.207-3.658 2.5-5z"/><path style="opacity:1" fill="#72645f" d="M135.5 61.5c.111-.617.444-1.117 1-1.5-.916-.278-1.582-.778-2-1.5a5.577 5.577 0 0 0 3-1c1.35 1.45 3.016 2.117 5 2 .275 4.72-.559 5.054-2.5 1-1.193 1.478-1.693 2.812-1.5 4-1.235-.84-2.235-1.84-3-3z"/><path style="opacity:1" fill="#131d4d" d="M158.5 56.5a143.904 143.904 0 0 1 11 4c.798.457 1.131 1.124 1 2a28.932 28.932 0 0 1-8-3c-1.73-.526-3.064-1.526-4-3z"/><path style="opacity:1" fill="#08154d" d="M44.5 55.5c2.412.194 3.412 1.527 3 4h19v1h-22v-5z"/><path style="opacity:1" fill="#121216" d="M77.5 55.5v3c-.667 0-1 .333-1 1-3.228.914-6.561 1.247-10 1v-1a32.437 32.437 0 0 0 8-.5 30.139 30.139 0 0 0 3-3.5z"/><path style="opacity:1" fill="#070319" d="M134.5 53.5v5c.418.722 1.084 1.222 2 1.5-.556.383-.889.883-1 1.5l-2 3c-.315-3.871.018-7.538 1-11z"/><path style="opacity:1" fill="#16110e" d="M44.5 57.5v3h18v1h-18v7c-1.333-3.667-1.333-7.333 0-11z"/><path style="opacity:1" fill="#f9df74" d="M77.5 58.5h5a18.436 18.436 0 0 1-.5 6c-4.675 1.834-6.508.167-5.5-5 0-.667.333-1 1-1z"/><path style="opacity:1" fill="#91847c" d="M162.5 59.5a28.932 28.932 0 0 0 8 3v1c-.641 1.542-1.641 2.876-3 4-.054-1.187-.387-2.52-1-4a3.646 3.646 0 0 0-1.5 1c-1.919-1.581-2.752-3.248-2.5-5z"/><path style="opacity:1" fill="#72611c" d="M82.5 58.5h1v2c.438 5.813-2.062 7.48-7.5 5a8.434 8.434 0 0 1-.5-4h-13v-1h4c3.439.247 6.772-.086 10-1-1.008 5.167.825 6.834 5.5 5 .496-1.973.662-3.973.5-6z"/><path style="opacity:1" fill="#131429" d="M83.5 58.5c3.304.644 4.638 2.644 4 6 1.967-.24 3.8.094 5.5 1 .85 3.021 1.683 6.021 2.5 9-1.946-2.234-3.113-4.9-3.5-8-1.356-.88-2.856-1.213-4.5-1l-2-4c-.342-.838-1.008-1.172-2-1v-2z"/><path style="opacity:1" fill="#221f1f" d="M176.5 57.5a70.586 70.586 0 0 1 8.5 13c.741 2.519-.092 4.185-2.5 5-.258-5.227-1.924-9.894-5-14 .172-.992-.162-1.658-1-2v-2z"/><path style="opacity:1" fill="#ead2d0" d="M146.5 46.5c3.119 4.457 7.119 7.79 12 10 .936 1.474 2.27 2.474 4 3-.252 1.752.581 3.419 2.5 5 .414-.457.914-.79 1.5-1 .613 1.48.946 2.813 1 4 1.359-1.124 2.359-2.458 3-4-.086.996.248 1.83 1 2.5a36.643 36.643 0 0 0-4 6.5 6.846 6.846 0 0 1-4-1c-.632 2.237-1.965 3.903-4 5a3.647 3.647 0 0 0 1 1.5 9.173 9.173 0 0 0-2 4.5c-3.277.284-6.443-.05-9.5-1-.484 1.693.016 3.027 1.5 4-.311.978-.978 1.644-2 2a25.86 25.86 0 0 0-3-5c-.587.733-.587 1.733 0 3-2.836-.337-3.502-1.67-2-4 .992.172 1.658-.162 2-1 3.461.61 6.128-.556 8-3.5a27.587 27.587 0 0 1-5-1.5c-.558-1.29-1.558-2.123-3-2.5 2.105-1.335 2.771-3.002 2-5-1-.667-2-.667-3 0a7.253 7.253 0 0 1 2 2.5c-6.071 3.43-8.237 1.763-6.5-5-.605 3.408-1.938 6.408-4 9-.2-1.82-1.034-3.153-2.5-4v-6l2-3c.765 1.16 1.765 2.16 3 3-.193-1.188.307-2.522 1.5-4 1.941 4.054 2.775 3.72 2.5-1-1.984.117-3.65-.55-5-2a5.577 5.577 0 0 1-3 1v-5a32.508 32.508 0 0 0 3-7 208.89 208.89 0 0 0 4.5-5c1.049 2.117 2.549 3.784 4.5 5z"/><path style="opacity:1" fill="#72645f" d="M148.5 57.5c3.064-.356 5.731.477 8 2.5a11.392 11.392 0 0 1-2 2.5c-1.098-1.115-2.265-1.115-3.5 0a463.76 463.76 0 0 1-4.5-2.5c.881-.708 1.547-1.542 2-2.5z"/><path style="opacity:1" fill="#4a3c40" d="M147.5 54.5a8.435 8.435 0 0 1 4 .5 29.465 29.465 0 0 0-4.5 2.5c-.47-1.077-.303-2.077.5-3z"/><path style="opacity:1" fill="#0c1a4b" d="M177.5 61.5c3.076 4.106 4.742 8.773 5 14a5.728 5.728 0 0 0-3 1c.667-2.32.834-4.653.5-7-2.2-2.33-4.2-2.33-6 0a52.55 52.55 0 0 0-1.5 7c-.706 1.057-1.039.724-1-1l2-10h4v-4z"/><path style="opacity:1" fill="#312726" d="M170.5 62.5c1.69.356 2.69 1.356 3 3-1.289 2.891-3.289 5.225-6 7a36.643 36.643 0 0 1 4-6.5c-.752-.67-1.086-1.504-1-2.5v-1z"/><path style="opacity:1" fill="#122981" d="M179.5 76.5h-7a52.55 52.55 0 0 1 1.5-7c1.8-2.33 3.8-2.33 6 0 .334 2.347.167 4.68-.5 7z"/><path style="opacity:1" fill="#f8dc66" d="M83.5 60.5c.992-.172 1.658.162 2 1v22h-9a13.117 13.117 0 0 1-7-1c-1.353-1.024-2.02-2.357-2-4-4.338.122-4.672.455-1 1l2 6h-7c.453-.958 1.12-1.792 2-2.5-6.248.414-12.581.58-19 .5v-22h31a8.434 8.434 0 0 0 .5 4c5.438 2.48 7.938.813 7.5-5z"/><path style="opacity:1" fill="#817362" d="M148.5 75.5c-.605 1.526-1.771 2.526-3.5 3-2.195-3.876-4.362-3.876-6.5 0-1.105 1.1-2.438 1.767-4 2a35.524 35.524 0 0 1-4-5.5c3.172.4 3.839-1.1 2-4.5h1c1.466.847 2.3 2.18 2.5 4 2.062-2.592 3.395-5.592 4-9-1.737 6.763.429 8.43 6.5 5a7.253 7.253 0 0 0-2-2.5c1-.667 2-.667 3 0 .771 1.998.105 3.665-2 5 1.442.377 2.442 1.21 3 2.5z"/><path style="opacity:1" fill="#877b3f" d="m85.5 61.5 2 4c.318 4.532-.015 8.866-1 13 .31-3.213-.023-6.213-1-9v-8z"/><path style="opacity:1" fill="#e9d268" d="M87.5 65.5c1.644-.213 3.144.12 4.5 1 .387 3.1 1.554 5.766 3.5 8l1 4a20.677 20.677 0 0 1 1 5h-11v-5c.985-4.134 1.318-8.468 1-13z"/><path style="opacity:1" fill="#251c16" d="M167.5 72.5a19.62 19.62 0 0 1-3.5 2c-1.116 3.256-2.949 5.922-5.5 8a9.173 9.173 0 0 1 2-4.5 3.647 3.647 0 0 1-1-1.5c2.035-1.097 3.368-2.763 4-5a6.846 6.846 0 0 0 4 1z"/><path style="opacity:1" fill="#1638a3" d="M36.5 12.5h1c2.358 1.629 5.024 2.795 8 3.5-5.114 1.528-5.114 2.195 0 2 .12 1.281-.38 2.448-1.5 3.5l-1-1c-.814 2.402-.647 4.735.5 7 1.585 1.587 3.252 2.42 5 2.5a14.974 14.974 0 0 0-3 3.5c.825.886 1.825 1.219 3 1v3c-2.41-.42-4.243-1.754-5.5-4a18.436 18.436 0 0 0-.5 6c-.973-2.448-1.306-5.115-1-8v-1a49.285 49.285 0 0 1-2-11c-.027-2.89-1.194-3.89-3.5-3 .029 4.196-1.305 7.863-4 11a72.444 72.444 0 0 0-.5 12v4c-1.765 2.623-2.432 5.623-2 9-1.517.01-2.684.677-3.5 2 .363 7.955.53 15.954.5 24v1l-2 11c-.057-5.892-.39-11.559-1-17l2-5c-1.032-2.117-1.032-4.284 0-6.5-1.23-3.255-1.73-6.421-1.5-9.5a70.021 70.021 0 0 0-4.5-6.5c2.025-2.686 4.025-5.352 6-8v-5a20.473 20.473 0 0 1 2.5-3.5c.414.457.914.79 1.5 1 1.231-1.15 1.231-2.317 0-3.5 1.393-1.171 2.227-2.671 2.5-4.5.654 1.196 1.154 1.196 1.5 0a4.452 4.452 0 0 0-2-1.5 6.807 6.807 0 0 0 3-1.5c-.774-1.211-1.607-1.211-2.5 0a4.932 4.932 0 0 1-.5-3c3.098.087 3.432-.413 1-1.5a51.209 51.209 0 0 1 4-2.5z"/><path style="opacity:1" fill="#f9de71" d="M34.5 33.5h5v5-5h-5z"/><path style="opacity:1" fill="#524b19" d="M33.5 31.5h7v8c-.667 0-1-.333-1-1v-5h-6v-2z"/><path style="opacity:1" fill="#e8d372" d="M36.5 20.5a64.545 64.545 0 0 0 5 10v1h-8c1.454-3.478 2.454-7.145 3-11z"/><path style="opacity:1" fill="#151c46" d="M39.5 19.5c-1.291-.237-2.291.096-3 1-.546 3.855-1.546 7.522-3 11v2c.295 2.235-.039 4.235-1 6h-1a72.444 72.444 0 0 1 .5-12c2.695-3.137 4.029-6.804 4-11 2.306-.89 3.473.11 3.5 3z"/><path style="opacity:1" fill="#212118" d="M36.5 20.5c.709-.904 1.709-1.237 3-1 .25 3.749.917 7.416 2 11a64.545 64.545 0 0 1-5-10z"/><path style="opacity:1" fill="#f4d967" d="M28.5 58.5h14v42c-.982 3.462-1.315 7.129-1 11h-14v-33c.554-6.653.888-13.32 1-20z"/><path style="opacity:1" fill="#5b4c15" d="M35.5 63.5c.667 6.667 1.333 6.667 2 0 .961 1.765 1.295 3.765 1 6h-4c-.295-2.235.039-4.235 1-6z"/><path style="opacity:1" fill="#0c0200" d="M35.5 63.5h2c-.667 6.667-1.333 6.667-2 0z"/><path style="opacity:1" fill="#1139ae" d="M36.5 12.5a51.209 51.209 0 0 0-4 2.5c2.432 1.087 2.098 1.587-1 1.5a4.932 4.932 0 0 0 .5 3c.893-1.211 1.726-1.211 2.5 0a6.807 6.807 0 0 1-3 1.5 4.452 4.452 0 0 1 2 1.5c-.346 1.196-.846 1.196-1.5 0-.273 1.829-1.107 3.329-2.5 4.5 1.231 1.183 1.231 2.35 0 3.5a3.646 3.646 0 0 1-1.5-1 20.473 20.473 0 0 0-2.5 3.5v5a1904.725 1904.725 0 0 1-6 8 70.021 70.021 0 0 1 4.5 6.5c-.23 3.079.27 6.245 1.5 9.5-1.032 2.216-1.032 4.383 0 6.5l-2 5c.61 5.441.943 11.108 1 17 1.144 7.942 1.144 15.942 0 24h-9a3978.93 3978.93 0 0 0 0-103c7.187-.325 14.187.009 21 1z"/><path style="opacity:1" fill="#5d524a" d="M148.5 75.5a27.587 27.587 0 0 0 5 1.5c-1.872 2.944-4.539 4.11-8 3.5a24.939 24.939 0 0 1-7-.5c1.238-.69 1.238-1.19 0-1.5 2.138-3.876 4.305-3.876 6.5 0 1.729-.474 2.895-1.474 3.5-3z"/><path style="opacity:1" fill="#2c1b03" d="M37.5 82.5h-3v-4c.69-1.274 1.523-1.274 2.5 0a8.434 8.434 0 0 1 .5 4z"/><path style="opacity:1" fill="#e9d3d3" d="m173.5 65.5-2 10c-.951 1.419-1.284 3.085-1 5-4.389.903-8.389 2.57-12 5-1.291.237-2.291-.096-3-1 1.527.073 2.527-.594 3-2 2.551-2.078 4.384-4.744 5.5-8a19.62 19.62 0 0 0 3.5-2c2.711-1.775 4.711-4.109 6-7z"/><path style="opacity:1" fill="#161106" d="M138.5 78.5c1.238.31 1.238.81 0 1.5 2.31.497 4.643.663 7 .5-.342.838-1.008 1.172-2 1h-5c-.004 3.75-1.004 4.417-3 2a5.727 5.727 0 0 1-1-3c1.562-.233 2.895-.9 4-2z"/><path style="opacity:1" fill="#1d1c30" d="M171.5 75.5c-.039 1.724.294 2.057 1 1h7a5.728 5.728 0 0 1 3-1c-.558 1.29-1.558 2.123-3 2.5a20.211 20.211 0 0 0-6 1.5 5.575 5.575 0 0 1 1 3 10.022 10.022 0 0 0-3-1 36.923 36.923 0 0 1-13 4c3.611-2.43 7.611-4.097 12-5-.284-1.915.049-3.581 1-5z"/><path style="opacity:1" fill="#87742e" d="M34.5 78.5v4h3c-1.068.934-2.401 1.268-4 1-.285-1.915.049-3.581 1-5z"/><path style="opacity:1" fill="#100a04" d="M85.5 69.5c.977 2.787 1.31 5.787 1 9v5h11a20.677 20.677 0 0 0-1-5c.617.11 1.117.444 1.5 1 .826 11.174.659 22.174-.5 33v-1c.638-9.395-.029-18.395-2-27-3.512-.555-6.512.112-9 2a36.152 36.152 0 0 0-10-3h9v-14z"/><path style="opacity:1" fill="#8f8078" d="M158.5 82.5c-.473 1.406-1.473 2.073-3 2a20.676 20.676 0 0 1-5 1c-1.484-.973-1.984-2.307-1.5-4 3.057.95 6.223 1.284 9.5 1z"/><path style="opacity:1" fill="#534312" d="M43.5 53.5c.838.342 1.172 1.008 1 2v2c-1.333 3.667-1.333 7.333 0 11v15c6.419.08 12.752-.086 19-.5-.88.708-1.547 1.542-2 2.5h-17c.057 8.02-.276 16.021-1 24-.977-2.787-1.31-5.787-1-9v-42h-14c-1.125-1.152-1.125-2.152 0-3 4.805.987 9.805 1.32 15 1v-3z"/><path style="opacity:1" fill="#211c20" d="M174.5 82.5a21.622 21.622 0 0 1 5 4c-2.704-.17-4.371-1.503-5-4z"/><path style="opacity:1" fill="#f5da8d" d="M95.5 84.5c-2.393.71-4.893 1.377-7.5 2-.173 5.516-.673 10.85-1.5 16v-16c2.488-1.888 5.488-2.555 9-2z"/><path style="opacity:1" fill="#83735c" d="M143.5 81.5c-1.502 2.33-.836 3.663 2 4v1c-1.207.689-2.541.855-4 .5 1.231 1.183 1.231 2.35 0 3.5-1.531-.921-2.865-.588-4 1l-2-5v-3c1.996 2.417 2.996 1.75 3-2h5z"/><path style="opacity:1" fill="#15150a" d="m135.5 86.5 2 5a21.434 21.434 0 0 0 1 7c-1.808-1.418-2.475-3.418-2-6-2.481.274-4.147 1.607-5 4-1.734 4.175-4.734 6.842-9 8l4-4a1227.31 1227.31 0 0 0 8.5-11 4.934 4.934 0 0 0 .5-3z"/><path style="opacity:1" fill="#9e9590" d="M145.5 86.5c.543.06.876.393 1 1a312.373 312.373 0 0 0-4 9c-1.291-.237-2.291.096-3 1 0 .667-.333 1-1 1a21.434 21.434 0 0 1-1-7c1.135-1.588 2.469-1.921 4-1 1.231-1.15 1.231-2.317 0-3.5 1.459.355 2.793.189 4-.5z"/><path style="opacity:1" fill="#081544" d="M179.5 86.5c.992-.172 1.658.162 2 1l1 4c-1.653.16-2.986.826-4 2-3.435.692-5.435 2.692-6 6-.992-.172-1.658.162-2 1-3.185-.949-6.185-.282-9 2 .975-2.013 2.642-3.346 5-4 .886-.825 1.219-1.825 1-3 3.978-1.654 7.978-3.32 12-5 1.126-1.308 1.126-2.642 0-4z"/><path style="opacity:1" fill="#17140d" d="M181.5 87.5c1.175-.219 2.175.114 3 1-1.141.925-1.141 1.759 0 2.5 3.998 1.337 7.332 3.67 10 7l-2 3a735.908 735.908 0 0 0-25 2c-2.912.275-5.579 1.109-8 2.5.282-1.278.949-2.278 2-3 2.815-2.282 5.815-2.949 9-2a1216.21 1216.21 0 0 1 21-1c.203-1.89-.463-3.39-2-4.5l-7-3.5-1-4z"/><path style="opacity:1" fill="#140400" d="M34.5 93.5c1.676.683 2.343 2.017 2 4-1.676-.683-2.343-2.017-2-4z"/><path style="opacity:1" fill="#736221" d="M76.5 83.5a36.152 36.152 0 0 1 10 3v25h11v1h-12c.295-2.235-.039-4.235-1-6v-21h-13c.228 3.918 1.228 7.584 3 11l-.5 2c-.232-1.237-.732-2.237-1.5-3-5.14-.988-10.474-1.321-16-1v18c-9.848.327-19.514-.006-29-1h14c-.315-3.871.018-7.538 1-11-.31 3.213.023 6.213 1 9 3.53 1.923 7.53 2.589 12 2a81.871 81.871 0 0 1 1-18c2.215-5.21 2.882-5.21 2 0h13a51.639 51.639 0 0 1-1-7c-4.084-.457-7.917.21-11.5 2-.239-1.288.261-2.288 1.5-3h8l-2-6c-3.672-.545-3.338-.878 1-1-.02 1.643.647 2.976 2 4a13.117 13.117 0 0 0 7 1z"/><path style="opacity:1" fill="#edd366" d="M84.5 106.5v5h-12a32.462 32.462 0 0 1-8-.5c-.625-2.8-1.292-5.634-2-8.5l-5-2.5c1.211-1.113 1.211-2.28 0-3.5a57.124 57.124 0 0 1 15-1c.768.763 1.268 1.763 1.5 3l.5-2c-1.772-3.416-2.772-7.082-3-11h13v21z"/><path style="opacity:1" fill="#121328" d="M150.5 85.5a20.676 20.676 0 0 0 5-1c.709.904 1.709 1.237 3 1a522.552 522.552 0 0 1-10 4.5 32.36 32.36 0 0 1-4 5.5 73.712 73.712 0 0 1 9 11.5c2.189.322 4.189-.178 6-1.5-2.642 4.932-5.809 5.265-9.5 1a11.803 11.803 0 0 0-3.5 2 5.727 5.727 0 0 1 1-3c-.154-2.47-1.154-4.47-3-6-1.052-1.756-2.719-2.423-5-2 .709-.904 1.709-1.237 3-1 1.259-2.96 2.592-5.96 4-9-.124-.607-.457-.94-1-1v-1c-.587-1.267-.587-2.267 0-3a25.86 25.86 0 0 1 3 5c1.022-.356 1.689-1.022 2-2z"/><path style="opacity:1" fill="#0c0200" d="M76.5 93.5h4v12h-4v-12z"/><path style="opacity:1" fill="#152962" d="M95.5 74.5c1.385 1.074 2.551 2.407 3.5 4 .19 5.915.69 11.749 1.5 17.5-.322 6.174-1.322 12.007-3 17.5v-1c1.159-10.826 1.326-21.826.5-33-.383-.556-.883-.89-1.5-1l-1-4z"/><path style="opacity:1" fill="#1337a6" d="M174.5 82.5c.629 2.497 2.296 3.83 5 4 1.126 1.358 1.126 2.692 0 4-4.022 1.68-8.022 3.346-12 5 .219 1.175-.114 2.175-1 3-2.358.654-4.025 1.987-5 4-1.051.722-1.718 1.722-2 3-1.811 1.322-3.811 1.822-6 1.5a73.712 73.712 0 0 0-9-11.5 32.36 32.36 0 0 0 4-5.5 522.552 522.552 0 0 0 10-4.5 36.923 36.923 0 0 0 13-4c1.084.185 2.084.518 3 1z"/><path style="opacity:1" fill="#13339c" d="M178.5 93.5a9.864 9.864 0 0 1 6 1c.864 1.697 2.197 2.863 4 3.5a647.64 647.64 0 0 1-16 1.5c.565-3.308 2.565-5.308 6-6z"/><path style="opacity:1" fill="#665215" d="M34.5 93.5c-.343 1.983.324 3.317 2 4-.709.904-1.709 1.237-3 1-.285-1.915.049-3.581 1-5z"/><path style="opacity:1" fill="#0f1e54" d="M138.5 98.5c.667 0 1-.333 1-1 2.281-.423 3.948.244 5 2a11.114 11.114 0 0 0-2.5-1c-4.787 1.284-7.621 4.284-8.5 9 2.146.378 4.313.712 6.5 1 2.805-.321 5.305-1.321 7.5-3a5.727 5.727 0 0 0-1 3 5.727 5.727 0 0 0-3 1 40.914 40.914 0 0 1-9-.5c-1.561-.318-2.728-1.151-3.5-2.5-1.049 1.607-2.549 2.273-4.5 2 3.979-1.815 6.812-4.815 8.5-9 .781-1.444.614-2.777-.5-4a5.577 5.577 0 0 1-3 1c.853-2.393 2.519-3.726 5-4-.475 2.582.192 4.582 2 6z"/><path style="opacity:1" fill="#182d75" d="m182.5 91.5 7 3.5c1.537 1.11 2.203 2.61 2 4.5-7.004.273-14.004.606-21 1 .342-.838 1.008-1.172 2-1a647.64 647.64 0 0 0 16-1.5c-1.803-.637-3.136-1.803-4-3.5a9.864 9.864 0 0 0-6-1c1.014-1.174 2.347-1.84 4-2z"/><path style="opacity:1" fill="#d8c56f" d="M72.5 95.5a57.124 57.124 0 0 0-15 1c1.211 1.22 1.211 2.387 0 3.5l5 2.5c.708 2.866 1.375 5.7 2 8.5 2.646.497 5.313.664 8 .5-3.125.979-6.458 1.313-10 1v-9h-4c.554 3.512-.112 6.512-2 9v-18c5.526-.321 10.86.012 16 1z"/><path style="opacity:1" fill="#fade67" d="M95.5 84.5c1.971 8.605 2.638 17.605 2 27h-11v-9c.827-5.15 1.327-10.484 1.5-16 2.607-.623 5.107-1.29 7.5-2z"/><path style="opacity:1" fill="#192f87" d="M126.5 108.5c-1 .333-1.667 1-2 2h-3v-5c0-.667.333-1 1-1 4.266-1.158 7.266-3.825 9-8a5.577 5.577 0 0 0 3-1c1.114 1.223 1.281 2.556.5 4-1.688 4.185-4.521 7.185-8.5 9z"/><path style="opacity:1" fill="#13329d" d="M144.5 99.5c1.846 1.53 2.846 3.53 3 6-2.195 1.679-4.695 2.679-7.5 3a151.471 151.471 0 0 1-6.5-1c.879-4.716 3.713-7.716 8.5-9 .902.243 1.735.577 2.5 1z"/><path style="opacity:1" fill="#f8dc67" d="M199.5 115.5h-90v-9a32.6 32.6 0 0 0 4.5 4 8.43 8.43 0 0 0 .5-4c1.478.262 2.811-.071 4-1 1.258-2.584 2.758-4.251 4.5-5 .986.671 2.153.671 3.5 0l-4 4c-.667 0-1 .333-1 1-.617.111-1.117.444-1.5 1a18.453 18.453 0 0 0-.5 6c2.053.098 3.72-.569 5-2 6.339.206 12.672-.127 19-1a5.727 5.727 0 0 1 3-1 11.803 11.803 0 0 1 3.5-2c3.691 4.265 6.858 3.932 9.5-1 2.421-1.391 5.088-2.225 8-2.5a735.908 735.908 0 0 1 25-2l2-3c-2.668-3.33-6.002-5.663-10-7-1.141-.741-1.141-1.575 0-2.5-.825-.886-1.825-1.219-3-1-.342-.838-1.008-1.172-2-1a21.622 21.622 0 0 0-5-4 5.575 5.575 0 0 0-1-3 20.211 20.211 0 0 1 6-1.5c1.442-.377 2.442-1.21 3-2.5 2.408-.815 3.241-2.481 2.5-5a70.586 70.586 0 0 0-8.5-13c1.812-4.783 2.312-9.783 1.5-15a124.405 124.405 0 0 1-5-17c-2.199-4.862-5.699-8.528-10.5-11 .453-.958 1.119-1.792 2-2.5 11.243-.82 22.41-.653 33.5.5a1830.22 1830.22 0 0 1 1.5 103z"/><path style="opacity:1" fill="#f8dc69" d="M60.5 85.5c-1.239.712-1.739 1.712-1.5 3 3.583-1.79 7.416-2.457 11.5-2a51.639 51.639 0 0 0 1 7h-13c.882-5.21.215-5.21-2 0a81.871 81.871 0 0 0-1 18c-4.47.589-8.47-.077-12-2a245.858 245.858 0 0 0 1-24h16z"/><path style="opacity:1" fill="#1c1708" d="M48.5 92.5h3v14h-4a53.788 53.788 0 0 1 1-14z"/><path style="opacity:1" fill="#25230d" d="M143.5 109.5a112.128 112.128 0 0 1-19 1c.333-1 1-1.667 2-2 1.951.273 3.451-.393 4.5-2 .772 1.349 1.939 2.182 3.5 2.5 2.982.498 5.982.665 9 .5z"/><path style="opacity:1" fill="#141309" d="M121.5 105.5v5h3c-1.28 1.431-2.947 2.098-5 2a18.453 18.453 0 0 1 .5-6c.383-.556.883-.889 1.5-1z"/><path style="opacity:1" fill="#15110c" d="M26.5 78.5h1v33c9.486.994 19.152 1.327 29 1 1.888-2.488 2.554-5.488 2-9h4v9c3.542.313 6.875-.021 10-1h12v-5c.961 1.765 1.295 3.765 1 6h12v1h-71v-35z"/><path style="opacity:1" fill="#0e0f0a" d="M14.5 114.5c15.158.996 30.49 1.33 46 1-.666 2.173-1.833 2.507-3.5 1-1.059.13-1.892.63-2.5 1.5a14.505 14.505 0 0 0 4 5c-.228.399-.562.565-1 .5l-4-3c-1.926-1.793-4.26-2.793-7-3-10.507-1.323-21.174-1.323-32 0 .124.607.457.94 1 1v1c-.934 1.068-1.268 2.401-1 4 .065 8.366.065 16.866 0 25.5 5.687 33.419 23.354 58.086 53 74 37.875 15.212 72.209 9.879 103-16 3.288-2.806 5.954-5.973 8-9.5 3.073-1.233 3.406-2.733 1-4.5 1.036-1.617 2.203-1.784 3.5-.5a2.428 2.428 0 0 0 .5-2c0-.667.333-1 1-1 1.184 1.188 1.184 2.355 0 3.5a10.515 10.515 0 0 0 3 2.5c-22.456 31.385-53.123 45.218-92 41.5-38.005-5.915-64.839-26.415-80.5-61.5-4.235-10.604-6.402-21.604-6.5-33v-24c1.634-.707 2.968-1.873 4-3.5-1.172-1.868-1.005-3.702.5-5.5.198 1.882.698 3.548 1.5 5z"/><path style="opacity:1" fill="#a79857" d="M46.5 117.5c-10.514-.328-20.847.006-31 1-.543-.06-.876-.393-1-1 10.826-1.323 21.493-1.323 32 0z"/><path style="opacity:1" fill="#09500e" d="M60.5 115.5h1c5.4.687 10.9 1.354 16.5 2a548.105 548.105 0 0 1 36-1l6.5 1a71.254 71.254 0 0 0-4 2c0 .667-.333 1-1 1-1.81.914-2.81 2.914-3 6-2.472-.135-3.806.532-4 2l-3 3c-1.199-.146-1.866.854-2 3a74.855 74.855 0 0 1 5.5 6l5-2a11.38 11.38 0 0 1 2.5 2c-2.937 6.623-2.27 7.29 2 2a50.656 50.656 0 0 1 3.5-8c2.848 3.537 6.015 3.871 9.5 1a2.428 2.428 0 0 0 2-.5c-.174-3.733-1.841-6.566-5-8.5-.963.47-.963 1.137 0 2h-3c.548-1.188.881-2.355 1-3.5a29.517 29.517 0 0 1-2.5-4.5c-.69-1.238-1.19-1.238-1.5 0-.667 0-1-.333-1-1v-3c26.623-.223 52.789.11 78.5 1 .667 8.667.667 17.333 0 26-.399 17.09-5.566 32.424-15.5 46-.667 0-1 .333-1 1a308.918 308.918 0 0 1-8-3 233.71 233.71 0 0 1-10.5-6 3.647 3.647 0 0 1-1.5 1c-1.122-1.13-2.456-1.797-4-2a58.524 58.524 0 0 1-8-10c.438.065.772-.101 1-.5-3.199-4.448-7.199-6.281-12-5.5-.667 0-1-.333-1-1a97.3 97.3 0 0 0-12-3.5 51.24 51.24 0 0 0-12-12 8.43 8.43 0 0 0-4-.5c-8.932-.804-16.265-4.804-22-12-.825-.886-1.825-1.219-3-1a134.712 134.712 0 0 0-17-3 94.418 94.418 0 0 1-11-7c-.667 0-1-.333-1-1 .438.065.772-.101 1-.5a14.505 14.505 0 0 1-4-5c.608-.87 1.441-1.37 2.5-1.5 1.667 1.507 2.834 1.173 3.5-1z"/><path style="opacity:1" fill="#f9dd64" d="M46.5 117.5c2.74.207 5.074 1.207 7 3 .01 1.517.677 2.684 2 3.5l-3 2.5c1.14.925 1.14 1.759 0 2.5 2.667.667 2.667 1.333 0 2a4.934 4.934 0 0 0 3 .5 4.932 4.932 0 0 1 .5-3c.718.951 1.55 1.117 2.5.5-.95-.718-1.117-1.551-.5-2.5l6 7c1.488-.696 2.988-.362 4.5 1a32.442 32.442 0 0 0-6 2.5 9.465 9.465 0 0 1 1.5 2.5 2504.399 2504.399 0 0 1 17-3c3.176.39 5.676 1.89 7.5 4.5l-1.5 1.5c-3.343-.148-5.343-1.815-6-5-3.501 3.098-7.501 3.765-12 2l-1.5 1.5a191.748 191.748 0 0 1 3 4 28.04 28.04 0 0 0-5 1.5 304.549 304.549 0 0 1-8-.5 19.17 19.17 0 0 0-5-2.5c-1.722-1.753-3.222-3.753-4.5-6-.816-1.323-1.983-1.989-3.5-2-1.249-1.636-2.916-2.803-5-3.5-10.509.249-18.509-3.918-24-12.5v-1c10.153-.994 20.486-1.328 31-1z"/><path style="opacity:1" fill="#08500d" d="M14.5 123.5c1.422.209 2.755.709 4 1.5l-1 1a14.506 14.506 0 0 1 5 4 496.18 496.18 0 0 1 22 5.5c2.3 5.298 5.967 9.298 11 12-.087 3.098.413 3.432 1.5 1 .317 1.801.984 2.134 2 1a92.151 92.151 0 0 0 19.5 2.5c1.38 1.324 1.713 2.657 1 4 3.885 1.221 6.885 3.554 9 7a73.616 73.616 0 0 0 11 2l1.5 1.5c1.388-1.054 2.888-1.22 4.5-.5-2.429.451-2.596 1.285-.5 2.5 1.444-1.655 3.278-2.322 5.5-2 4.371 1.533 7.705 4.366 10 8.5 1.932 1.459 3.932 2.625 6 3.5a225.995 225.995 0 0 0 17 2c2.016 2.7 3.516 5.7 4.5 9l1-1a80.499 80.499 0 0 0 6.5 5.5c7.15.135 14.484-.199 22-1 .88 1.356 1.214 2.856 1 4.5-2.046 3.527-4.712 6.694-8 9.5-30.791 25.879-65.125 31.212-103 16-29.646-15.914-47.313-40.581-53-74 .065-8.634.065-17.134 0-25.5z"/><path style="opacity:1" fill="#1f2909" d="M115.5 120.5c-1.203 2.673-1.203 5.34 0 8-2.155.338-4.489.338-7 0 .194-1.468 1.528-2.135 4-2 .19-3.086 1.19-5.086 3-6z"/><path style="opacity:1" fill="#182507" d="M58.5 124.5a94.418 94.418 0 0 0 11 7c-4.816-.572-8.483-2.905-11-7z"/><path style="opacity:1" fill="#182a09" d="M15.5 119.5c5.491 8.582 13.491 12.749 24 12.5 2.084.697 3.751 1.864 5 3.5a496.18 496.18 0 0 0-22-5.5 14.506 14.506 0 0 0-5-4l1-1a10.136 10.136 0 0 0-4-1.5c-.268-1.599.066-2.932 1-4z"/><path style="opacity:1" fill="#22220b" d="M125.5 128.5c-1.267.587-2.267.587-3 0 1.324-2.698 1.324-5.364 0-8 .31-1.238.81-1.238 1.5 0a29.517 29.517 0 0 0 2.5 4.5c-.119 1.145-.452 2.312-1 3.5z"/><path style="opacity:1" fill="#121a05" d="M131.5 135.5c.592-3.131-.408-5.464-3-7-.963-.863-.963-1.53 0-2 3.159 1.934 4.826 4.767 5 8.5a2.428 2.428 0 0 1-2 .5z"/><path style="opacity:1" fill="#1c2507" d="M189.5 131.5a67.898 67.898 0 0 1-7-2c1.751-7.572-.916-9.572-8-6-.086-.996.248-1.829 1-2.5 6.635-1.647 9.968.686 10 7 2.118.26 3.784 1.26 5 3-.228.399-.562.565-1 .5z"/><path style="opacity:1" fill="#fadd64" d="M182.5 129.5c-1.276.886-1.276 1.886 0 3 1.98-.883 3.98-.717 6 .5 1.318 3.537-.015 5.371-4 5.5l-2-1c-1.644-.816-2.81-2.15-3.5-4-2.968 2.428-5.802 2.095-8.5-1a9.86 9.86 0 0 1 6-1c.536-2.467 1.036-4.8 1.5-7 1.047 2.208 2.547 3.874 4.5 5z"/><path style="opacity:1" fill="#162909" d="M174.5 123.5c-.256 2.292.077 4.459 1 6.5-6.683-.284-9.016 2.716-7 9 1.973.495 3.973.662 6 .5-7.641 2.429-10.141-.238-7.5-8a10.94 10.94 0 0 1 4.5-3c.501-2.155 1.501-3.822 3-5z"/><path style="opacity:1" fill="#e2d185" d="M182.5 129.5a67.898 67.898 0 0 0 7 2c.841 1.879 1.175 3.879 1 6-1.862 1.975-3.862 2.308-6 1 3.985-.129 5.318-1.963 4-5.5-2.02-1.217-4.02-1.383-6-.5-1.276-1.114-1.276-2.114 0-3z"/><path style="opacity:1" fill="#e6cf68" d="M182.5 129.5c-1.953-1.126-3.453-2.792-4.5-5-.464 2.2-.964 4.533-1.5 7a9.86 9.86 0 0 0-6 1c2.698 3.095 5.532 3.428 8.5 1 .69 1.85 1.856 3.184 3.5 4-1.723 1.753-3.223 3.753-4.5 6a20.2 20.2 0 0 0-1.5-6c-1.022.355-1.689 1.022-2 2a18.453 18.453 0 0 1-6-.5c-2.016-6.284.317-9.284 7-9-.923-2.041-1.256-4.208-1-6.5 7.084-3.572 9.751-1.572 8 6z"/><path style="opacity:1" fill="#f1d96a" d="M116.5 119.5h5c0 .667.333 1 1 1 1.324 2.636 1.324 5.302 0 8 .733.587 1.733.587 3 0h3c2.592 1.536 3.592 3.869 3 7-3.485 2.871-6.652 2.537-9.5-1a50.656 50.656 0 0 0-3.5 8 246.697 246.697 0 0 1-2-7c-5.613 3.58-9.279 2.246-11-4l3-3c2.511.338 4.845.338 7 0-1.203-2.66-1.203-5.327 0-8 .667 0 1-.333 1-1z"/><path style="opacity:1" fill="#192906" d="M149.5 130.5c-6.125.481-8.458 3.814-7 10-2.121-.175-4.121.159-6 1 3.148-3.899 5.815-7.732 8-11.5 1.887-.78 3.554-.613 5 .5z"/><path style="opacity:1" fill="#f3d969" d="M149.5 130.5h1c2.972 2.66 3.639 5.827 2 9.5 7.083-.146 9.083 2.854 6 9a12.494 12.494 0 0 1-7 0c-1.852-3.055-2.852-2.555-3 1.5-.838.342-1.172 1.008-1 2-.804-.887-1.471-2.553-2-5-2.42 2.577-5.42 3.577-9 3-1.234-3.035-1.234-6.035 0-9 1.879-.841 3.879-1.175 6-1-1.458-6.186.875-9.519 7-10z"/><path style="opacity:1" fill="#182d0a" d="M105.5 131.5c1.721 6.246 5.387 7.58 11 4a246.697 246.697 0 0 0 2 7c-4.27 5.29-4.937 4.623-2-2a11.38 11.38 0 0 0-2.5-2l-5 2a74.855 74.855 0 0 0-5.5-6c.134-2.146.801-3.146 2-3z"/><path style="opacity:1" fill="#192707" d="M44.5 135.5c1.517.011 2.684.677 3.5 2 1.278 2.247 2.778 4.247 4.5 6l3 4c-5.033-2.702-8.7-6.702-11-12z"/><path style="opacity:1" fill="#172408" d="M86.5 134.5c1.175-.219 2.175.114 3 1 5.735 7.196 13.068 11.196 22 12-4.827.279-9.493-.387-14-2a85.725 85.725 0 0 1-11-11z"/><path style="opacity:1" fill="#112207" d="m182.5 137.5 2 1c2.138 1.308 4.138.975 6-1 .086.996-.248 1.829-1 2.5l-8 1c-1.5 2.167-3.333 4-5.5 5.5-.77-2.653-1.27-4.986-1.5-7 .311-.978.978-1.645 2-2a20.2 20.2 0 0 1 1.5 6c1.277-2.247 2.777-4.247 4.5-6z"/><path style="opacity:1" fill="#1e2d0c" d="M37.5 141.5c-1.89-.203-3.39.463-4.5 2a24.939 24.939 0 0 0-.5 7c-3.254-.293-6.254.374-9 2 1.199-3.192 3.532-4.859 7-5 .224-4.725 2.724-7.392 7.5-8 2.168 1.322 2 1.989-.5 2z"/><path style="opacity:1" fill="#162506" d="M148.5 150.5c.148-4.055 1.148-4.555 3-1.5 2.333.667 4.667.667 7 0 3.083-6.146 1.083-9.146-6-9 1.639-3.673.972-6.84-2-9.5-.065-.438.101-.772.5-1 2.167 1.5 4 3.333 5.5 5.5-.837 1.011-1.17 2.178-1 3.5 5.842 1.7 7.342 5.366 4.5 11-4.029 2.272-7.862 2.605-11.5 1z"/><path style="opacity:1" fill="#1a2f0c" d="M55.5 147.5a121.215 121.215 0 0 1 24 3.5 70.856 70.856 0 0 0 10 10c7.262 1.279 14.262 3.112 21 5.5-2.222-.322-4.056.345-5.5 2-2.096-1.215-1.929-2.049.5-2.5-1.612-.72-3.112-.554-4.5.5l-1.5-1.5a73.616 73.616 0 0 1-11-2c-2.115-3.446-5.115-5.779-9-7 .713-1.343.38-2.676-1-4a92.151 92.151 0 0 1-19.5-2.5c-1.016 1.134-1.683.801-2-1-1.087 2.432-1.587 2.098-1.5-1z"/><path style="opacity:1" fill="#172508" d="M147.5 152.5c2.359.889 2.525 2.222.5 4-1.147-.958-2.147-.625-3 1l-1-7c-2.605 1.314-5.105 1.314-7.5 0 3.58.577 6.58-.423 9-3 .529 2.447 1.196 4.113 2 5z"/><path style="opacity:1" fill="#1a270a" d="M178.5 158.5c.214-1.644-.12-3.144-1-4.5-2.514-1.252-5.18-1.752-8-1.5.812-1.493 2.145-2.16 4-2 5.202.812 6.869 3.479 5 8z"/><path style="opacity:1" fill="#f3da6a" d="M37.5 141.5c.79.901 1.79 1.568 3 2 1.267 2.194 1.267 4.528 0 7 2.757.529 5.257 1.529 7.5 3-.588 7.752-3.588 8.752-9 3a55.208 55.208 0 0 0-3 7c-.118-2.871-.784-5.538-2-8a19.555 19.555 0 0 0-3.5 4c-5.664 1.001-7.998-1.333-7-7 2.746-1.626 5.746-2.293 9-2-.163-2.357.003-4.69.5-7 1.11-1.537 2.61-2.203 4.5-2z"/><path style="opacity:1" fill="#172a0b" d="M111.5 147.5a8.43 8.43 0 0 1 4 .5 51.24 51.24 0 0 1 12 12 97.3 97.3 0 0 1 12 3.5 31.818 31.818 0 0 1-12-1.5 84.01 84.01 0 0 0-8-7.5c.086-.996-.248-1.829-1-2.5a785.54 785.54 0 0 1-7-4.5z"/><path style="opacity:1" fill="#182309" d="M30.5 159.5a19.555 19.555 0 0 1 3.5-4c1.216 2.462 1.882 5.129 2 8a55.208 55.208 0 0 1 3-7c5.412 5.752 8.412 4.752 9-3-2.243-1.471-4.743-2.471-7.5-3 1.267-2.472 1.267-4.806 0-7 .448-1.965 1.448-2.298 3-1-.553 2.227-.553 4.561 0 7 5.81 1.291 7.643 4.624 5.5 10-3.13 2.622-6.297 2.622-9.5 0-.495 2.97-1.995 5.304-4.5 7-2.55-1.995-3.05-4.328-1.5-7h-3z"/><path style="opacity:1" fill="#fadd60" d="M97.5 145.5c4.507 1.613 9.173 2.279 14 2a785.54 785.54 0 0 0 7 4.5c.752.671 1.086 1.504 1 2.5-1.463 2.098-1.296 4.098.5 6 .317-1.801.984-2.134 2-1 .595 1.399.428 2.732-.5 4a4.457 4.457 0 0 0 1.5 2 64.5 64.5 0 0 1 10-1c.483.948.649 1.948.5 3-4.514-.427-8.681.573-12.5 3l-1.5-1c2.75-.506 2.584-1.84-.5-4-.725 1.658-1.892 2.158-3.5 1.5a13.92 13.92 0 0 0 3-4c-2.514-.569-4.848-.069-7 1.5-1.529-.029-2.696-.696-3.5-2a3.647 3.647 0 0 1-1.5 1 38.852 38.852 0 0 0-7-1.5l1-1c-1.167-.5-2-1.333-2.5-2.5-2.243 1.782-4.743 2.282-7.5 1.5-.335-1.503-.335-2.836 0-4a18.452 18.452 0 0 0-6-.5c.213-1.644-.12-3.144-1-4.5a20.428 20.428 0 0 0 5.5-1.5c.711-1.867.211-3.367-1.5-4.5l1.5-1.5a14.706 14.706 0 0 1 5 4 11.804 11.804 0 0 0 3.5-2z"/><path style="opacity:1" fill="#f3da69" d="M169.5 152.5c2.82-.252 5.486.248 8 1.5.88 1.356 1.214 2.856 1 4.5v1c-.978.311-1.645.978-2 2a261.12 261.12 0 0 0 7.5 2c1.913 5.594.08 7.761-5.5 6.5l-3.5-3.5a20.64 20.64 0 0 1-2 6c-.233-2.28-1.066-4.28-2.5-6-2.433 2.742-5.433 3.575-9 2.5-2.337-6.83-.004-9.33 7-7.5a68.09 68.09 0 0 1 1-9z"/><path style="opacity:1" fill="#181c07" d="M140.5 164.5c4.801-.781 8.801 1.052 12 5.5-.228.399-.562.565-1 .5-3.213-2.774-6.88-4.774-11-6z"/><path style="opacity:1" fill="#0c1403" d="M68.5 161.5c.126 2.415.293 4.749.5 7-3.07-1.459-5.904-1.126-8.5 1-.086-.996.248-1.829 1-2.5l5-1a36.28 36.28 0 0 1 2-4.5z"/><path style="opacity:1" fill="#1b2907" d="M70.5 159.5c5.304-2.452 8.47-.785 9.5 5 1.91.706 3.91 1.706 6 3 .483.948.65 1.948.5 3-2.71-3.531-5.876-3.864-9.5-1-.004-1.868.496-3.702 1.5-5.5-1.078-4.046-3.745-5.546-8-4.5z"/><path style="opacity:1" fill="#f5da69" d="m53.5 120.5 4 3c0 .667.333 1 1 1 2.517 4.095 6.184 6.428 11 7 5.62.617 11.287 1.617 17 3a85.725 85.725 0 0 0 11 11 11.804 11.804 0 0 1-3.5 2 14.706 14.706 0 0 0-5-4l-1.5 1.5c1.711 1.133 2.211 2.633 1.5 4.5a20.428 20.428 0 0 1-5.5 1.5c.88 1.356 1.213 2.856 1 4.5a18.452 18.452 0 0 1 6 .5c-.335 1.164-.335 2.497 0 4 2.757.782 5.257.282 7.5-1.5.5 1.167 1.333 2 2.5 2.5l-1 1c2.391.287 4.724.787 7 1.5a3.647 3.647 0 0 0 1.5-1c.804 1.304 1.971 1.971 3.5 2 2.152-1.569 4.486-2.069 7-1.5a13.92 13.92 0 0 1-3 4c1.608.658 2.775.158 3.5-1.5 3.084 2.16 3.25 3.494.5 4l1.5 1c3.819-2.427 7.986-3.427 12.5-3a4.934 4.934 0 0 0-.5-3 64.5 64.5 0 0 0-10 1 4.457 4.457 0 0 1-1.5-2c.928-1.268 1.095-2.601.5-4-1.016-1.134-1.683-.801-2 1-1.796-1.902-1.963-3.902-.5-6a84.01 84.01 0 0 1 8 7.5 31.818 31.818 0 0 0 12 1.5c0 .667.333 1 1 1 4.12 1.226 7.787 3.226 11 6a58.524 58.524 0 0 0 8 10c1.126 1.953 2.792 3.453 5 4.5 3.707.737 7.373 1.571 11 2.5.843 1.673 2.176 2.84 4 3.5a175.3 175.3 0 0 1-22 1c-4.404-.738-7.237-3.238-8.5-7.5-1.451-1.964-3.284-3.297-5.5-4-.111-.617-.444-1.117-1-1.5a128.507 128.507 0 0 0-16-.5c-2.068-.875-4.068-2.041-6-3.5-2.295-4.134-5.629-6.967-10-8.5-6.738-2.388-13.738-4.221-21-5.5a70.856 70.856 0 0 1-10-10 121.215 121.215 0 0 0-24-3.5l-3-4a19.17 19.17 0 0 1 5 2.5c2.831.212 5.498.379 8 .5a28.04 28.04 0 0 1 5-1.5 191.748 191.748 0 0 0-3-4l1.5-1.5c4.499 1.765 8.499 1.098 12-2 .657 3.185 2.657 4.852 6 5l1.5-1.5c-1.824-2.61-4.324-4.11-7.5-4.5-5.656.978-11.323 1.978-17 3a9.465 9.465 0 0 0-1.5-2.5 32.442 32.442 0 0 1 6-2.5c-1.512-1.362-3.012-1.696-4.5-1l-6-7c-.617.949-.45 1.782.5 2.5-.95.617-1.782.451-2.5-.5a4.932 4.932 0 0 0-.5 3 4.934 4.934 0 0 1-3-.5c2.667-.667 2.667-1.333 0-2 1.14-.741 1.14-1.575 0-2.5l3-2.5c-1.323-.816-1.99-1.983-2-3.5z"/><path style="opacity:1" fill="#1b2c0c" d="M169.5 152.5a68.09 68.09 0 0 0-1 9c-7.004-1.83-9.337.67-7 7.5 3.567 1.075 6.567.242 9-2.5 1.434 1.72 2.267 3.72 2.5 6a20.64 20.64 0 0 0 2-6l3.5 3.5c5.58 1.261 7.413-.906 5.5-6.5a261.12 261.12 0 0 1-7.5-2c.355-1.022 1.022-1.689 2-2 6.222-.256 8.722 2.744 7.5 9-.5 1.833-1.667 3-3.5 3.5a17.903 17.903 0 0 0-8 .5c-.782 2.576-2.282 4.576-4.5 6a87.689 87.689 0 0 0-.5-8c-5.083 2.47-8.75.97-11-4.5.803-5.078 3.803-7.244 9-6.5a18.453 18.453 0 0 1 .5-6c.383-.556.883-.889 1.5-1z"/><path style="opacity:1" fill="#eed66b" d="M70.5 159.5c4.255-1.046 6.922.454 8 4.5-1.004 1.798-1.504 3.632-1.5 5.5 3.624-2.864 6.79-2.531 9.5 1-.382 4.871-3.049 6.871-8 6-.311-.978-.978-1.645-2-2a26.968 26.968 0 0 1-3.5 6 20.211 20.211 0 0 0-1.5-6c-3.465 2.622-6.965 2.622-10.5 0a12.935 12.935 0 0 1-.5-5c2.596-2.126 5.43-2.459 8.5-1a178.835 178.835 0 0 1-.5-7c1-.333 1.667-1 2-2z"/><path style="opacity:1" fill="#19290a" d="M98.5 191.5c.672-.767 1.505-1.434 2.5-2l1 6a12.804 12.804 0 0 1 3-6c4.585 3.232 7.752 2.232 9.5-3-.029-1.529-.696-2.696-2-3.5a20.2 20.2 0 0 1-6-1.5c2.089-4.613.756-7.613-4-9-4.895.958-6.561 3.791-5 8.5-5.259.581-7.426 3.415-6.5 8.5.708.881 1.542 1.547 2.5 2 1.109.79 2.442 1.29 4 1.5-7.556 1.085-10.056-2.081-7.5-9.5 4.21-2.457 6.044-6.124 5.5-11a13.142 13.142 0 0 0 6-2c1.953.656 3.953.989 6 1a31.774 31.774 0 0 0 2.5 7l1-1c.552 2.547 1.886 4.547 4 6 1.338 8.513-1.829 11.179-9.5 8-.847 2.372-2.181 4.372-4 6a4.457 4.457 0 0 1-2-1.5l1-3c-.916-.278-1.582-.778-2-1.5z"/><path style="opacity:1" fill="#142607" d="M86.5 170.5c1.297 6.679-1.37 8.679-8 6 4.951.871 7.618-1.129 8-6z"/><path style="opacity:1" fill="#1b290a" d="M60.5 169.5c-.16 1.699.007 3.366.5 5 3.535 2.622 7.035 2.622 10.5 0a20.211 20.211 0 0 1 1.5 6 26.968 26.968 0 0 0 3.5-6c1.022.355 1.689 1.022 2 2-1.579 1.73-3.246 3.564-5 5.5l1 1c-4.122 1.779-5.122.279-3-4.5l-1.5-1-3 2c-4.05-1.252-6.884-3.752-8.5-7.5.566-.995 1.233-1.828 2-2.5z"/><path style="opacity:1" fill="#0c1503" d="M126.5 178.5c5.344-.166 10.677.001 16 .5.556.383.889.883 1 1.5a225.995 225.995 0 0 1-17-2z"/><path style="opacity:1" fill="#f3d968" d="M98.5 191.5h-5c-.958-.453-1.792-1.119-2.5-2-.926-5.085 1.241-7.919 6.5-8.5-1.561-4.709.105-7.542 5-8.5 4.756 1.387 6.089 4.387 4 9a20.2 20.2 0 0 0 6 1.5c1.304.804 1.971 1.971 2 3.5-1.748 5.232-4.915 6.232-9.5 3a12.804 12.804 0 0 0-3 6l-1-6c-.995.566-1.828 1.233-2.5 2z"/><path style="opacity:1" fill="#16260c" d="M159.5 180.5c1.544.203 2.878.87 4 2a3.647 3.647 0 0 0 1.5-1 233.71 233.71 0 0 0 10.5 6 206.993 206.993 0 0 0-11-2.5c-2.208-1.047-3.874-2.547-5-4.5z"/><path style="opacity:1" fill="#1d2b0b" d="M42.5 166.5c6.207-.127 8.873 2.873 8 9 4.253-.646 7.086 1.02 8.5 5l1-1c-1.136 3.372-3.136 6.372-6 9-2.178-.029-4.345-.529-6.5-1.5a25.549 25.549 0 0 1-5.5 6.5c-1.319-1.75-1.819-3.75-1.5-6-7.198 1.632-11.198-1.202-12-8.5a8.902 8.902 0 0 0 4-3 18.452 18.452 0 0 1 6-.5c-1.185-3.974.148-6.974 4-9z"/><path style="opacity:1" fill="#f0d76a" d="M41.5 168.5c4.583-1.157 7.25.51 8 5-.888 1.655-1.388 3.322-1.5 5 2.218-2.119 4.718-2.452 7.5-1 1.959 3.966.959 6.633-3 8-2.412.094-4.245-.906-5.5-3-2.518 9.341-4.185 9.675-5 1-2.58 1.847-5.412 2.347-8.5 1.5-3.67-5.947-2.003-8.613 5-8l2.5 2.5a55.531 55.531 0 0 1-1.5-6c-.063-2.014.603-3.681 2-5z"/><path style="opacity:1" fill="#192d0d" d="M143.5 180.5c2.216.703 4.049 2.036 5.5 4 1.263 4.262 4.096 6.762 8.5 7.5a175.3 175.3 0 0 0 22-1c-1.824-.66-3.157-1.827-4-3.5a308.918 308.918 0 0 0 8 3 2.428 2.428 0 0 1-.5 2c-1.297-1.284-2.464-1.117-3.5.5 2.406 1.767 2.073 3.267-1 4.5.214-1.644-.12-3.144-1-4.5-7.516.801-14.85 1.135-22 1a80.499 80.499 0 0 1-6.5-5.5l-1 1c-.984-3.3-2.484-6.3-4.5-9z"/><path style="opacity:1" fill="#dac96c" d="M144.5 192.5c0 .667.333 1 1 1v1c-2.474-.124-5.14-.291-8-.5l-1 1c5.027 6.661 3.36 8.661-5 6-2.599 2.579-2.599 5.079 0 7.5-2.39-.185-3.39-1.518-3-4-.063-2.014.603-3.681 2-5 2.544-.396 4.711.271 6.5 2-.904-2.526-1.238-5.192-1-8 2.585-2.235 5.418-2.569 8.5-1z"/><path style="opacity:1" fill="#1b260c" d="M144.5 192.5c-3.082-1.569-5.915-1.235-8.5 1-.238 2.808.096 5.474 1 8-1.789-1.729-3.956-2.396-6.5-2 .418-.722 1.084-1.222 2-1.5-.84-1.666-.34-1.833 1.5-.5.833-8.164 4.666-9.997 11.5-5.5-.228.399-.562.565-1 .5z"/><path style="opacity:1" fill="#1e2609" d="M145.5 193.5a29.01 29.01 0 0 1 3 4.5l5 1c1.098.77 1.098 1.603 0 2.5-3.543-2.987-6.709-2.654-9.5 1 .73-2.521 1.23-5.187 1.5-8v-1z"/><path style="opacity:1" fill="#0f0f00" d="M68.5 194.5a11.99 11.99 0 0 0 1 6 9.86 9.86 0 0 1-6 1c1.068-.934 2.401-1.268 4-1-.295-2.235.039-4.235 1-6z"/><path style="opacity:1" fill="#f7dc67" d="M145.5 194.5c-.27 2.813-.77 5.479-1.5 8 2.791-3.654 5.957-3.987 9.5-1 .738 7.793-2.262 9.793-9 6-.886.825-1.219 1.825-1 3-1.037 1.43-1.704 3.097-2 5-.814-2.131-1.314-4.464-1.5-7l-1-1c-.708.881-1.542 1.547-2.5 2h-5v-1c-2.599-2.421-2.599-4.921 0-7.5 8.36 2.661 10.027.661 5-6l1-1c2.86.209 5.526.376 8 .5z"/><path style="opacity:1" fill="#1e2e0a" d="M83.5 210.5c.935-2.613 1.102-5.279.5-8a261.47 261.47 0 0 1-7.5-2c2.983-4.047 1.983-6.714-3-8-2.014-.063-3.68.603-5 2-.086-.996.248-1.829 1-2.5 7.26-2.212 10.593.288 10 7.5 4.454.112 7.121 2.445 8 7-1.021 1.688-2.355 3.021-4 4z"/><path style="opacity:1" fill="#151f07" d="M114.5 200.5c-8.493-1.029-10.827 2.137-7 9.5-2.31.497-4.643.663-7 .5.102-.837 1.102-1.504 3-2-.273-7.232 3.06-10.398 10-9.5.556.383.889.883 1 1.5z"/><path style="opacity:1" fill="#1e2a0a" d="M130.5 199.5c-1.397 1.319-2.063 2.986-2 5-.39 2.482.61 3.815 3 4v1c-.397 1.025-1.063 1.192-2 .5-3.216-2.411-4.049-5.244-2.5-8.5.816-1.323 1.983-1.989 3.5-2z"/><path style="opacity:1" fill="#eed56a" d="M83.5 210.5c-2.657.338-4.99-.329-7-2a14.833 14.833 0 0 0-3.5 4 8.435 8.435 0 0 1-.5-4c-2.771 1.586-5.771 2.086-9 1.5-1.655-1.444-2.322-3.278-2-5.5.901-.79 1.568-1.79 2-3a9.86 9.86 0 0 0 6-1 11.99 11.99 0 0 1-1-6c1.32-1.397 2.986-2.063 5-2 4.983 1.286 5.983 3.953 3 8a261.47 261.47 0 0 0 7.5 2c.602 2.721.435 5.387-.5 8z"/><path style="opacity:1" fill="#1a280d" d="M153.5 201.5c2.812 3.339 2.479 6.505-1 9.5-3.394 1.515-6.394 1.348-9-.5-.219-1.175.114-2.175 1-3 6.738 3.793 9.738 1.793 9-6z"/><path style="opacity:1" fill="#f0d869" d="M114.5 200.5c1.584 3.406 1.25 6.572-1 9.5 6.993-.764 9.327 2.07 7 8.5a5.727 5.727 0 0 1-3 1c-2.179-.34-4.012-1.34-5.5-3a31.894 31.894 0 0 1-1.5 6c-.667 0-1-.333-1-1-.097-4.628-1.43-5.461-4-2.5-6.737 1.433-9.07-1.067-7-7.5.992.172 1.658-.162 2-1 2.357.163 4.69-.003 7-.5-3.827-7.363-1.493-10.529 7-9.5z"/><path style="opacity:1" fill="#202f0c" d="M114.5 200.5c.876-.131 1.543.202 2 1a32.444 32.444 0 0 1 1.5 6c5.726 2.984 6.726 6.984 3 12-.399-.228-.565-.562-.5-1 2.327-6.43-.007-9.264-7-8.5 2.25-2.928 2.584-6.094 1-9.5z"/><path style="opacity:1" fill="#162b10" d="M61.5 204.5c-.322 2.222.345 4.056 2 5.5 3.229.586 6.229.086 9-1.5a8.435 8.435 0 0 0 .5 4 14.833 14.833 0 0 1 3.5-4c2.01 1.671 4.343 2.338 7 2-2.24.764-4.573 1.598-7 2.5-.862 2.734-1.695 2.901-2.5.5a6.544 6.544 0 0 1-3 3c-.216-1.884-.883-3.551-2-5-2.904.775-5.57.108-8-2l-1 1c-2.097-2.609-1.764-4.942 1-7 .399.228.565.562.5 1z"/><path style="opacity:1" fill="#101f09" d="M141.5 215.5a12.64 12.64 0 0 1-2.5 4c.128-2.986.128-5.986 0-9-1.938 2.478-4.105 2.645-6.5.5 1.558-.21 2.891-.71 4-1.5.958-.453 1.792-1.119 2.5-2l1 1c.186 2.536.686 4.869 1.5 7z"/><path style="opacity:1" fill="#1f2309" d="M98.5 211.5c-2.07 6.433.263 8.933 7 7.5 2.57-2.961 3.903-2.128 4 2.5-.617.111-1.117.444-1.5 1-.956-1.394-2.289-2.061-4-2-4.088 1.305-6.922-.195-8.5-4.5.415-2.026 1.415-3.526 3-4.5z"/><path style="opacity:1" fill="#0f2606" d="M117.5 219.5c-1.109.79-2.442 1.29-4 1.5a21.72 21.72 0 0 1-5.5 7.5c-1.267-1.41-1.267-3.076 0-5 1.159 1.066 1.992.733 2.5-1a31.894 31.894 0 0 0 1.5-6c1.488 1.66 3.321 2.66 5.5 3z"/></svg>