<svg xmlns="http://www.w3.org/2000/svg" width="288" height="323" style="shape-rendering:geometricPrecision;text-rendering:geometricPrecision;image-rendering:optimizeQuality;fill-rule:evenodd;clip-rule:evenodd"><path style="opacity:.982" fill="#1c1a19" d="M-.5-.5h288v196c-9.222 58.062-41.222 97.896-96 119.5-10.275 3.32-20.608 5.82-31 7.5h-34c-46.439-7.131-82.272-30.464-107.5-70-10.23-17.862-16.73-36.862-19.5-57V-.5z"/><path style="opacity:1" fill="#c2c1c1" d="M282.5 186.5V4.5H4.5v182a8372.84 8372.84 0 0 1-1-183h280a8375.918 8375.918 0 0 1-1 183z"/><path style="opacity:1" fill="#fbfbfb" d="M282.5 186.5c-5.351 58.548-35.018 99.381-89 122.5-60.05 19.862-111.883 7.029-155.5-38.5-20.472-24.242-31.639-52.242-33.5-84V4.5h278v182z"/><path style="opacity:1" fill="#dc0116" d="M156.5 24.5c-.56 2.3-1.06 4.634-1.5 7-.837-1.507-2.004-2.007-3.5-1.5a51.054 51.054 0 0 1 4 5.5 289.533 289.533 0 0 1 3-6c.566 5.3 3.233 9.133 8 11.5-2.495.157-4.828.324-7 .5a224.395 224.395 0 0 1 1.5 20 18.117 18.117 0 0 0 5.5 4.5c-3.318 3.406-6.485 3.24-9.5-.5-.852 4.496-.352 8.83 1.5 13l2 1a94.963 94.963 0 0 1 7.5-2l7 3c2.676-.662 4.843-2.162 6.5-4.5a12.5 12.5 0 0 1 7 0c2.688 2.694 5.855 4.527 9.5 5.5 3.071-.238 4.571-1.904 4.5-5a61.536 61.536 0 0 0-3.5-10c-.667-1.667-.667-3.333 0-5a81.526 81.526 0 0 0 8.5-2.5c.054-4.438 1.72-8.105 5-11-2.068.017-3.734 1.017-5 3-7.912 1.706-11.079-1.46-9.5-9.5a20.236 20.236 0 0 1 7.5-7.5 91.653 91.653 0 0 1 14-6c2.282-2.397 3.616-5.23 4-8.5a4.932 4.932 0 0 1 3 .5c3.691 5.715 7.524 5.548 11.5-.5l5-8c5.625 6.97 5.958 14.302 1 22-3.52 4.691-8.02 8.025-13.5 10 9.355 5.09 17.522 3.422 24.5-5l5.5-9.5c2.403-.63 4.237.203 5.5 2.5 3.48 8.873 1.314 16.04-6.5 21.5-7.444 4.316-15.444 6.483-24 6.5-.17 1.322.163 2.489 1 3.5 11.961 5.788 23.961 5.955 36 .5 1.456 7.825-1.211 13.659-8 17.5-10.413 3.416-20.747 3.25-31-.5.098-2.053-.569-3.72-2-5-.454-2.64-1.621-4.973-3.5-7 .89-6.357.556-12.69-1-19a8.902 8.902 0 0 0-3-4 107.514 107.514 0 0 0 2.5 12 7.292 7.292 0 0 1-2 3 14.978 14.978 0 0 1 1 4.5 29.7 29.7 0 0 0-2 10.5c-2.97.246-4.303 1.912-4 5-3.145.577-4.645 2.577-4.5 6a7.248 7.248 0 0 0-2.5-2 9.86 9.86 0 0 0-1 6c-1.56-.02-3.06-.352-4.5-1a96.248 96.248 0 0 0-4.5 6c-1.831-1.43-3.831-1.93-6-1.5-1.937 6.729-5.103 7.229-9.5 1.5-1.542 3.12-3.542 5.786-6 8-3.912-1.743-7.079-4.41-9.5-8a26.584 26.584 0 0 1-8 9c-7.861-4.952-9.694-11.285-5.5-19-1.555 2.015-3.389 2.349-5.5 1a22.133 22.133 0 0 1-3-6c-.608 3.487.559 6.487 3.5 9 .782 2.757.282 5.257-1.5 7.5a110.506 110.506 0 0 0-8.5 5.5c-4.795-1.631-7.628-4.964-8.5-10 1.848-2.63 3.348-5.296 4.5-8a21.368 21.368 0 0 1-6 5c-1.767-.84-3.101-2.173-4-4 .052 2.972.886 5.805 2.5 8.5-4.972 13.68-9.972 13.847-15 .5-2.758 3.928-6.258 6.929-10.5 9a6.293 6.293 0 0 1-3-1l-2.5-6c-2.602 2.493-5.602 3.66-9 3.5a167.29 167.29 0 0 0-2-6.5 11.621 11.621 0 0 1-5 3c-2.585-.573-3.585-2.24-3-5h-7a18.436 18.436 0 0 0-.5-6c-1.356.88-2.856 1.213-4.5 1v-7h-5a15.42 15.42 0 0 1 1-7 609.189 609.189 0 0 0-3-3.5c-.527-2.859-.527-5.859 0-9a9.265 9.265 0 0 0-2-2.5c1.853-2.191 2.187-4.525 1-7 .847-1.345 2.013-2.345 3.5-3 .688-.832.521-1.498-.5-2a38.9 38.9 0 0 0-5.5 5c-.31 6.56-.31 13.226 0 20a22.584 22.584 0 0 0-4 8c-8.37 5.407-17.537 7.24-27.5 5.5-7.037-1.666-12.37-5.499-16-11.5a18.436 18.436 0 0 1 .5-6c.388-.928 1.055-1.595 2-2 2.528 1.845 5.361 3.012 8.5 3.5a64.247 64.247 0 0 0 16 0c1.558-.21 2.892-.71 4-1.5 4.264-.465 7.598-2.465 10-6a202.162 202.162 0 0 0-20-1.5c-4.685-1.35-8.185-4.183-10.5-8.5a47.945 47.945 0 0 1-1-18c.747-2.251 2.247-3.584 4.5-4 3.614 15.796 13.28 21.963 29 18.5 1.333-.667 1.333-1.333 0-2-7.5-3.5-13-9-16.5-16.5-1.88-6.601-.046-11.768 5.5-15.5 1.333-.667 2.667-.667 4 0 1.956 5.624 5.123 10.457 9.5 14.5a28.83 28.83 0 0 1 1.5-4c.865-1.083 1.865-1.25 3-.5a13.243 13.243 0 0 0 3 5 89.665 89.665 0 0 0 16 8 45.24 45.24 0 0 1 8.5 7.5c2.3 7.36-.368 11.027-8 11-3.016-.142-5.849-.642-8.5-1.5a12.417 12.417 0 0 0 4 2.5c.572 2.417 1.572 4.584 3 6.5 3.364.49 6.03 1.99 8 4.5a38.478 38.478 0 0 0-4 10c.333 4.49 2.667 5.99 7 4.5a22.935 22.935 0 0 1 9.5-3.5 40.402 40.402 0 0 1 12.5 5c4.889-3.966 9.722-3.966 14.5 0 1.653-.32 2.653-1.32 3-3a9296.46 9296.46 0 0 0 4.5-13 4.458 4.458 0 0 0-1.5-2c-2.555 2.15-5.388 2.483-8.5 1 5.225-.891 8.558-3.891 10-9-1.957-1.573-2.29-3.573-1-6a17.152 17.152 0 0 0-2-6.5c2.741-3.743 3.575-7.91 2.5-12.5-4.514-5.844-9.014-11.678-13.5-17.5l1-1.5c1.6 2.597 3.933 3.93 7 4-.011 3.989 1.989 5.989 6 6a84.541 84.541 0 0 1 11-3.5c-5.494-.826-10.328-2.993-14.5-6.5-2.839 2.909-5.006 2.575-6.5-1 .318-1.147.984-1.98 2-2.5 9.436-.32 18.769.513 28 2.5a25.582 25.582 0 0 0 10.5-2l1.5 1c-3.042 4.867-7.375 8.034-13 9.5a11.102 11.102 0 0 1 3 4.5z"/><path style="opacity:1" fill="#392c2a" d="M251.5 122.5c6.708 1.497 13.375 1.33 20-.5 2.75-1.085 4.417-3.085 5-6-9.062-3.366-17.728-7.699-26-13-6.627-5.62-12.127-12.12-16.5-19.5-1.5-1.969-3.333-3.302-5.5-4 .992.172 1.658-.162 2-1 .904-.709 1.237-1.709 1-3 1.431 1.28 2.098 2.947 2 5 10.253 3.75 20.587 3.916 31 .5 6.789-3.841 9.456-9.675 8-17.5-12.039 5.455-24.039 5.288-36-.5-.837-1.011-1.17-2.178-1-3.5 8.556-.017 16.556-2.184 24-6.5 7.814-5.46 9.98-12.627 6.5-21.5-1.263-2.297-3.097-3.13-5.5-2.5l-5.5 9.5c-6.978 8.422-15.145 10.09-24.5 5 5.48-1.975 9.98-5.309 13.5-10 4.958-7.698 4.625-15.03-1-22l-5 8c-3.976 6.048-7.809 6.215-11.5.5a4.932 4.932 0 0 0-3-.5c-.384 3.27-1.718 6.103-4 8.5a91.653 91.653 0 0 0-14 6 20.236 20.236 0 0 0-7.5 7.5c-1.579 8.04 1.588 11.206 9.5 9.5 1.266-1.983 2.932-2.983 5-3-3.28 2.895-4.946 6.562-5 11a81.526 81.526 0 0 1-8.5 2.5c-.667 1.667-.667 3.333 0 5a61.536 61.536 0 0 1 3.5 10c.071 3.096-1.429 4.762-4.5 5-3.645-.973-6.812-2.806-9.5-5.5a12.5 12.5 0 0 0-7 0c-1.657 2.338-3.824 3.838-6.5 4.5l-7-3a94.963 94.963 0 0 0-7.5 2l-2-1c-1.852-4.17-2.352-8.504-1.5-13 3.015 3.74 6.182 3.906 9.5.5a18.117 18.117 0 0 1-5.5-4.5 224.395 224.395 0 0 0-1.5-20c2.172-.176 4.505-.343 7-.5-4.767-2.367-7.434-6.2-8-11.5-.296-1.903-.963-3.57-2-5a11.102 11.102 0 0 0-3-4.5c5.625-1.466 9.958-4.633 13-9.5l-1.5-1a25.582 25.582 0 0 1-10.5 2 114.127 114.127 0 0 0-28-2.5c-1.016.52-1.682 1.353-2 2.5 1.494 3.575 3.661 3.909 6.5 1 4.172 3.507 9.006 5.674 14.5 6.5a84.541 84.541 0 0 0-11 3.5c-4.011-.011-6.011-2.011-6-6-3.067-.07-5.4-1.403-7-4l-1 1.5c4.486 5.822 8.986 11.656 13.5 17.5 1.075 4.59.241 8.757-2.5 12.5a17.152 17.152 0 0 1 2 6.5c-1.29 2.427-.957 4.427 1 6-1.442 5.109-4.775 8.109-10 9 3.112 1.483 5.945 1.15 8.5-1a4.458 4.458 0 0 1 1.5 2 9296.46 9296.46 0 0 1-4.5 13c-.347 1.68-1.347 2.68-3 3-4.778-3.966-9.611-3.966-14.5 0a40.402 40.402 0 0 0-12.5-5 22.935 22.935 0 0 0-9.5 3.5c-4.333 1.49-6.667-.01-7-4.5a38.478 38.478 0 0 1 4-10c-1.97-2.51-4.636-4.01-8-4.5-1.428-1.916-2.428-4.083-3-6.5a12.417 12.417 0 0 1-4-2.5c2.651.858 5.484 1.358 8.5 1.5 7.632.027 10.3-3.64 8-11a45.24 45.24 0 0 0-8.5-7.5 89.665 89.665 0 0 1-16-8 13.243 13.243 0 0 1-3-5c-1.135-.75-2.135-.583-3 .5a28.83 28.83 0 0 0-1.5 4c-4.377-4.043-7.544-8.876-9.5-14.5-1.333-.667-2.667-.667-4 0-5.546 3.732-7.38 8.899-5.5 15.5 3.5 7.5 9 13 16.5 16.5 1.333.667 1.333 1.333 0 2-15.72 3.463-25.386-2.704-29-18.5 2.356 4.864 5.356 9.364 9 13.5 4.02 3.68 8.687 5.014 14 4-5.398-2.57-10.065-6.07-14-10.5 2.764.942 5.43 2.775 8 5.5 1.259.982 2.592 1.315 4 1-8.343-6.182-11.51-14.349-9.5-24.5 2.408-5.538 6.408-7.538 12-6 1.072 4.738 3.405 8.738 7 12 1.883-2.524 4.383-3.858 7.5-4-.445 2.865.221 5.365 2 7.5a258.267 258.267 0 0 1 19 10 34.692 34.692 0 0 1 6.5 7.5c.755 2.803.422 5.47-1 8a104.229 104.229 0 0 1-10.5 6c2.504 2.124 5.337 3.79 8.5 5a12.5 12.5 0 0 1 0 7c-2.528 2.5-3.361 5.334-2.5 8.5a98.642 98.642 0 0 0 14-2.5 34.116 34.116 0 0 1 13 4 19.323 19.323 0 0 1 7-3c2.792.314 5.292 1.314 7.5 3 2.708-3.463 4.208-7.463 4.5-12-6.981 1.342-9.981-1.324-9-8 3.486 2.883 6.486 2.383 9-1.5-3.961-.608-5.461-2.774-4.5-6.5 1.356.88 2.856 1.214 4.5 1 .389-3.053-.277-5.72-2-8l-6-2c3.461.61 6.128-.556 8-3.5a67.541 67.541 0 0 0-16 3 8.435 8.435 0 0 0 4 .5c-1.068.934-2.401 1.268-4 1-2.145-.238-3.812-1.238-5-3 6.38-.281 12.38-1.781 18-4.5a100.245 100.245 0 0 0-20 0c-5.722 3.389-11.222 3.222-16.5-.5-1.296-3.675-.296-6.342 3-8 1.543 2.382 3.71 3.715 6.5 4a184.092 184.092 0 0 1 31-.5c-4.555-3.964-9.889-5.964-16-6-4.267-5.02-9.267-5.852-15-2.5-.541-5.239 1.459-9.072 6-11.5 6.169.274 11.836-1.06 17-4a118.142 118.142 0 0 1 29 1.5 51.038 51.038 0 0 0 15-3c-.674 7.208-4.674 12.041-12 14.5a47.803 47.803 0 0 1 5.5 14.5c2.574 1.502 5.407 2.502 8.5 3-1.407 4.415-4.407 6.082-9 5-.166 5.344.001 10.677.5 16 1.35 4.065 3.516 4.732 6.5 2 1.282 3.94-.051 6.774-4 8.5a18.437 18.437 0 0 1-6 .5 51.56 51.56 0 0 0 1 7 117.246 117.246 0 0 0 8.5-2 16.46 16.46 0 0 1 7 3c2.841-2.336 6.007-4.003 9.5-5 4.203.768 7.87 2.602 11 5.5 1.634.493 3.301.66 5 .5a540.377 540.377 0 0 1-3.5-18 9.457 9.457 0 0 1 1.5-2.5l7-1c.88-1.356 1.214-2.856 1-4.5-3.185.48-6.019-.186-8.5-2-3.666-8.284-1.499-14.451 6.5-18.5a114.54 114.54 0 0 1 13-6c3.548-2.59 4.882-6.09 4-10.5 2.064.187 4.064.687 6 1.5 2.791 5.81 5.958 5.977 9.5.5a207.271 207.271 0 0 1 5.5-10c9.275 9.549 9.275 19.215 0 29l.5 1c2.618-2.222 5.451-3.722 8.5-4.5a49.934 49.934 0 0 1-16 10c4.903.937 9.57.27 14-2a69.717 69.717 0 0 0 11-16c3.909.224 6.409 2.39 7.5 6.5 2.855 9.77.021 17.27-8.5 22.5a81.568 81.568 0 0 0-11 5 49.92 49.92 0 0 1 11 0c-5.481 1.564-11.148 2.564-17 3l1 1c6.249 1.536 12.583 1.87 19 1a12.8 12.8 0 0 0 6-3 18.437 18.437 0 0 1 6-.5c1.763 11.66-2.903 19.16-14 22.5l-21 1a79.027 79.027 0 0 0 20 13c-7.694-1.52-14.361-5.186-20-11-.667-.667-1.333-.667-2 0 10.382 13.763 23.882 22.597 40.5 26.5.667 1.667.667 3.333 0 5-7.933 7.703-16.766 9.037-26.5 4z"/><path style="opacity:1" fill="#491917" d="M156.5 24.5c1.037 1.43 1.704 3.097 2 5a289.533 289.533 0 0 0-3 6 51.054 51.054 0 0 0-4-5.5c1.496-.507 2.663-.007 3.5 1.5.44-2.366.94-4.7 1.5-7z"/><path style="opacity:1" fill="#4f1517" d="M231.5 34.5a50.67 50.67 0 0 0 11.5-15c-1.292 6.81-5.125 11.81-11.5 15z"/><path style="opacity:1" fill="#471717" d="M42.5 21.5c3.167 6.486 7.834 11.652 14 15.5-7.848-2.025-12.514-7.192-14-15.5z"/><path style="opacity:1" fill="#b3b3b2" d="M130.5 15.5c1.604.787 2.271 2.12 2 4 1.699-.16 3.366.006 5 .5-4.698 2.491-7.031.991-7-4.5z"/><path style="opacity:1" fill="#f0d802" d="M108.5 12.5c3.478-.316 6.812.184 10 1.5a40.819 40.819 0 0 0 8 10.5c-2.951.724-5.951.557-9-.5-3.576-4.129-7.91-5.295-13-3.5-1.083-.865-1.249-1.865-.5-3a32.864 32.864 0 0 1 4.5-5z"/><path style="opacity:1" fill="#ce0416" d="M112.5 33.5c1.599-.268 2.932.066 4 1a54.908 54.908 0 0 0-12 2.5c-3 .667-6 .667-9 0-3.422-1.406-3.755-3.239-1-5.5 2.105 1.968 4.605 2.968 7.5 3a56.196 56.196 0 0 1 10.5-1z"/><path style="opacity:1" fill="#7d0e17" d="M112.5 33.5c4.601-1.4 9.268-1.233 14 .5-3.317.498-6.65.665-10 .5-1.068-.934-2.401-1.268-4-1z"/><path style="opacity:1" fill="#7a1517" d="M231.5 34.5c-1.005 2.062-2.671 2.895-5 2.5 1.41-1.372 3.077-2.205 5-2.5z"/><path style="opacity:1" fill="#321817" d="M149.5 33.5c1.318 3.098.485 5.765-2.5 8-1.15-2.254-1.484-4.587-1-7 1.41 3.639 2.577 3.306 3.5-1z"/><path style="opacity:1" fill="#d4bf08" d="M123.5 43.5h-4a8.435 8.435 0 0 1-4-.5 67.541 67.541 0 0 1 16-3c-1.872 2.944-4.539 4.11-8 3.5z"/><path style="opacity:1" fill="#3a1817" d="M140.5 38.5c.876-.13 1.543.203 2 1a25.022 25.022 0 0 1-6.5 8c-.82-2.228-.487-4.228 1-6l1 2c1.372-1.41 2.205-3.077 2.5-5z"/><path style="opacity:1" fill="#6a6558" d="M119.5 43.5h4l6 2c-4.863.32-9.53-.014-14-1 1.599.268 2.932-.066 4-1z"/><path style="opacity:1" fill="#661317" d="M257.5 47.5a46.107 46.107 0 0 1 5.5-6c-.519 3.026-2.352 5.026-5.5 6z"/><path style="opacity:1" fill="#461617" d="M31.5 52.5c-3.148-.974-4.981-2.974-5.5-6a46.142 46.142 0 0 1 5.5 6z"/><path style="opacity:1" fill="#591517" d="M257.5 47.5c-1.928 1.974-4.261 3.474-7 4.5-5.695 1.424-11.362 1.924-17 1.5 8.386-.575 16.386-2.575 24-6z"/><path style="opacity:1" fill="#3c1817" d="M31.5 52.5a418.62 418.62 0 0 0 21 1.5c-7.32 2.226-14.32 1.726-21-1.5z"/><path style="opacity:1" fill="#352625" d="M25.5 28.5c-2.253.416-3.753 1.749-4.5 4a47.945 47.945 0 0 0 1 18c2.315 4.317 5.815 7.15 10.5 8.5 6.691.17 13.358.67 20 1.5-2.402 3.535-5.736 5.535-10 6 0-.667.333-1 1-1 .79-.283 1.456-.783 2-1.5-4.989-.5-9.989-.666-15-.5-2.726.236-5.059-.597-7-2.5 3.311.215 6.644.215 10 0-7.465-2.132-12.298-6.965-14.5-14.5a49.248 49.248 0 0 1 0-14c.74-2.839 2.407-4.839 5-6 1.03.336 1.53 1.003 1.5 2z"/><path style="opacity:1" fill="#6e6c6c" d="M30.5 63.5c5.011-.166 10.011 0 15 .5-.544.717-1.21 1.217-2 1.5l-13-2z"/><path style="opacity:1" fill="#403533" d="M42.5 66.5c-1.108.79-2.442 1.29-4 1.5a64.247 64.247 0 0 1-16 0c-3.139-.488-5.972-1.655-8.5-3.5-.945.405-1.612 1.072-2 2a18.436 18.436 0 0 0-.5 6c-1.13-2.128-1.296-4.462-.5-7 .368-1.41 1.201-2.41 2.5-3a21.07 21.07 0 0 0 10 3.5c6.325.5 12.658.666 19 .5z"/><path style="opacity:1" fill="#391817" d="M53.5 68.5a2.428 2.428 0 0 1 2 .5c-10.994 9.026-22.994 10.693-36 5 12.36 4.53 23.693 2.697 34-5.5z"/><path style="opacity:1" fill="#c60616" d="M231.5 75.5c.237 1.291-.096 2.291-1 3-4.664-.223-6.497-2.557-5.5-7a3.942 3.942 0 0 1 2-1 31.331 31.331 0 0 1 4.5 5z"/><path style="opacity:1" fill="#441717" d="M233.5 71.5c.235-.597.735-.93 1.5-1a48.601 48.601 0 0 0 16 3 102.06 102.06 0 0 0 15.5-2.5c-10.924 5.827-21.924 5.994-33 .5z"/><path style="opacity:1" fill="#db0116" d="M228.5 79.5c2.167.698 4 2.031 5.5 4 4.373 7.38 9.873 13.88 16.5 19.5 8.272 5.301 16.938 9.634 26 13-.583 2.915-2.25 4.915-5 6-6.625 1.83-13.292 1.997-20 .5-2.508-2.424-5.508-4.09-9-5-7.057-5.559-12.89-12.226-17.5-20 3.413 19.659 12.246 36.492 26.5 50.5a24.598 24.598 0 0 0 10 5.5c3.106 1.768 6.439 3.268 10 4.5 2.468 1.588 2.634 3.422.5 5.5-5.339 4.191-11.173 5.025-17.5 2.5-17.799-7.208-31.466-19.041-41-35.5-3.71-4.754-6.377-10.087-8-16 .276-1.83.943-3.497 2-5a96.005 96.005 0 0 1 8.5 8c1.194-2.123 1.86-4.457 2-7a8.905 8.905 0 0 1 3-4c.5-6.325.666-12.658.5-19 1.808-.009 3.475.491 5 1.5 7.801 12.573 18.467 21.907 32 28 1.333.667 2.667.667 4 0-17.338-6.671-29.338-18.671-36-36 .336-1.03 1.003-1.53 2-1.5z"/><path style="opacity:1" fill="#da0116" d="M35.5 167.5c-7.812 2.558-14.479.892-20-5-.17-1.322.163-2.489 1-3.5a43.983 43.983 0 0 0 15-5c16.086-14.528 25.753-32.361 29-53.5-8.496 17.027-22.163 25.527-41 25.5-3.26-1.211-6.092-3.044-8.5-5.5-.667-1-.667-2 0-3 16.683-4.538 29.85-13.871 39.5-28a54.199 54.199 0 0 1 5-7.5c1.444-.78 2.777-.614 4 .5.062 6.046-1.771 11.379-5.5 16-7.228 8.686-16.061 15.019-26.5 19-1.333.667-1.333 1.333 0 2 14.014-5.674 25.014-15.007 33-28 .825-.886 1.825-1.219 3-1-.025 7.671 1.475 15.005 4.5 22a12.5 12.5 0 0 1 0 7c-8.282 15.615-19.449 28.782-33.5 39.5 3.042-.327 5.709-1.66 8-4 11.763-10.539 21.096-22.873 28-37a22.205 22.205 0 0 0 8-5.5c1.147 2.265 1.314 4.598.5 7-8.8 21.338-23.3 37.338-43.5 48z"/><path style="opacity:1" fill="#2d1c1a" d="M231.5 75.5a31.331 31.331 0 0 0-4.5-5 3.942 3.942 0 0 0-2 1c-.997 4.443.836 6.777 5.5 7-.342.838-1.008 1.172-2 1-.997-.03-1.664.47-2 1.5 6.662 17.329 18.662 29.329 36 36-1.333.667-2.667.667-4 0-13.533-6.093-24.199-15.427-32-28-1.525-1.009-3.192-1.509-5-1.5.166 6.342 0 12.675-.5 19a8.905 8.905 0 0 0-3 4c-.14 2.543-.806 4.877-2 7a96.005 96.005 0 0 0-8.5-8 11.577 11.577 0 0 0-2 5c1.623 5.913 4.29 11.246 8 16a4.934 4.934 0 0 0-3 .5 19.209 19.209 0 0 1 3 6.5c-1.703-1.16-2.369-.493-2 2v1a154.455 154.455 0 0 1-6.5-21c-.7-1.532-1.866-2.532-3.5-3a44.707 44.707 0 0 1-3 9c-2.675-.672-5.508-.672-8.5 0-.575 4.474-.075 8.807 1.5 13-.722-.418-1.222-1.084-1.5-2l-1 3-1-1c-.801 2.867-.634 5.534.5 8 2.905 12.81 8.739 24.143 17.5 34 .617.949.451 1.782-.5 2.5-9.526-1.815-17.359-6.648-23.5-14.5-6.142-9.585-10.642-19.919-13.5-31a7.248 7.248 0 0 0-2.5 2 343.142 343.142 0 0 0-4.5 14c.247 1.213.914 1.88 2 2l1 2a20.69 20.69 0 0 0-5-1c1.235-7.277-.265-7.277-4.5 0a72.367 72.367 0 0 0-.5 12 124.153 124.153 0 0 0-2.5-14 71.912 71.912 0 0 1-5.5 10c-.28 3.227-1.613 5.893-4 8a21.741 21.741 0 0 1-6.5-7c-2.521 4.477-3.021 9.144-1.5 14l-2-1c-.508-1.733-1.341-2.066-2.5-1a57.668 57.668 0 0 1-8 12c-1.834 4.671-3.667 9.338-5.5 14a21.614 21.614 0 0 0-4-5c-1.122 1.13-2.456 1.797-4 2a19.552 19.552 0 0 1 3.5-4c.781-1.444.614-2.777-.5-4a108.393 108.393 0 0 0-11 5l-2-2c-1.025-.397-1.192-1.063-.5-2 3.757-3.086 6.757-6.752 9-11a118.528 118.528 0 0 1 7-20c2.428-3.098 5.428-5.431 9-7l.5-3a66.19 66.19 0 0 1-3.5-14l-2-2c-2.455 16.411-9.288 30.577-20.5 42.5-4.025 3.512-8.692 5.679-14 6.5l-3-1c8.8-10.059 14.133-21.726 16-35 1.113-1.446 1.28-3.113.5-5-.67-.752-1.504-1.086-2.5-1 1.57-4.89 2.07-9.89 1.5-15a22.956 22.956 0 0 1-2-5l-5 4c-3.444 23.612-13.944 42.612-31.5 57a306.977 306.977 0 0 1 13.5-16c8.517-12.372 14.017-26.038 16.5-41a80.685 80.685 0 0 1-2-10c-1.624-.14-2.79.527-3.5 2-.496 4.633-1.662 8.967-3.5 13-1.92-2.584-3.586-2.25-5 1-8.615 15.953-21.282 27.287-38 34 20.2-10.662 34.7-26.662 43.5-48 .814-2.402.647-4.735-.5-7a22.205 22.205 0 0 1-8 5.5c-6.904 14.127-16.237 26.461-28 37-2.291 2.34-4.958 3.673-8 4 14.051-10.718 25.218-23.885 33.5-39.5a12.5 12.5 0 0 0 0-7c-3.025-6.995-4.525-14.329-4.5-22-1.175-.219-2.175.114-3 1-7.986 12.993-18.986 22.326-33 28-1.333-.667-1.333-1.333 0-2 10.439-3.981 19.272-10.314 26.5-19 3.729-4.621 5.562-9.954 5.5-16-1.223-1.114-2.556-1.28-4-.5a54.199 54.199 0 0 0-5 7.5c-.181-1.53-.514-3.196-1-5-.757-1.273-1.423-1.273-2 0-10.87 3.462-21.203 2.296-31-3.5-2.591-2.358-4.258-5.19-5-8.5 3.63 6.001 8.963 9.834 16 11.5 9.963 1.74 19.13-.093 27.5-5.5a22.584 22.584 0 0 1 4-8c-.31-6.774-.31-13.44 0-20a38.9 38.9 0 0 1 5.5-5c1.021.502 1.188 1.168.5 2-1.487.655-2.653 1.655-3.5 3 1.187 2.475.853 4.809-1 7a9.265 9.265 0 0 1 2 2.5c-.527 3.141-.527 6.141 0 9a609.189 609.189 0 0 1 3 3.5 15.42 15.42 0 0 0-1 7h5v7c1.644.213 3.144-.12 4.5-1 .496 1.973.662 3.973.5 6h7c-.585 2.76.415 4.427 3 5a11.621 11.621 0 0 0 5-3 167.29 167.29 0 0 1 2 6.5c3.398.16 6.398-1.007 9-3.5l2.5 6a6.293 6.293 0 0 0 3 1c4.242-2.071 7.742-5.072 10.5-9 5.028 13.347 10.028 13.18 15-.5-1.614-2.695-2.448-5.528-2.5-8.5.899 1.827 2.233 3.16 4 4a21.368 21.368 0 0 0 6-5c-1.152 2.704-2.652 5.37-4.5 8 .872 5.036 3.705 8.369 8.5 10a110.506 110.506 0 0 1 8.5-5.5c1.782-2.243 2.282-4.743 1.5-7.5-2.941-2.513-4.108-5.513-3.5-9a22.133 22.133 0 0 0 3 6c2.111 1.349 3.945 1.015 5.5-1-4.194 7.715-2.361 14.048 5.5 19a26.584 26.584 0 0 0 8-9c2.421 3.59 5.588 6.257 9.5 8 2.458-2.214 4.458-4.88 6-8 4.397 5.729 7.563 5.229 9.5-1.5 2.169-.43 4.169.07 6 1.5a96.248 96.248 0 0 1 4.5-6c1.44.648 2.94.98 4.5 1a9.86 9.86 0 0 1 1-6 7.248 7.248 0 0 1 2.5 2c-.145-3.423 1.355-5.423 4.5-6-.303-3.088 1.03-4.754 4-5a29.7 29.7 0 0 1 2-10.5 14.978 14.978 0 0 0-1-4.5 7.292 7.292 0 0 0 2-3 107.514 107.514 0 0 1-2.5-12 8.902 8.902 0 0 1 3 4c1.556 6.31 1.89 12.643 1 19 1.879 2.027 3.046 4.36 3.5 7z"/><path style="opacity:1" fill="#cc0416" d="M206.5 92.5h3c.351 4.512-.315 8.845-2 13-3.57-1.781-6.237-4.448-8-8 2.554-.803 4.388.197 5.5 3a99.907 99.907 0 0 1 1.5-8z"/><path style="opacity:1" fill="#3f1617" d="M95.5 90.5c1.121 1.59.954 3.256-.5 5-.385-1.697-.218-3.363.5-5z"/><path style="opacity:1" fill="#d50316" d="M67.5 88.5h5c.696 6.002-1.971 8.335-8 7-.35-2.953.65-5.287 3-7z"/><path style="opacity:1" fill="#d20216" d="M217.5 83.5c2.805 2.814 3.472 6.147 2 10-2.633-.8-4.633-2.3-6-4.5l.5-1.5c.893 1.211 1.726 1.211 2.5 0a6.845 6.845 0 0 0 1-4z"/><path style="opacity:1" fill="#c50617" d="M62.5 80.5c4.528.341 5.86 2.508 4 6.5a20.088 20.088 0 0 1-6 1.5c-.393-3.013.274-5.68 2-8z"/><path style="opacity:1" fill="#ca0416" d="M221.5 78.5c.996-.086 1.829.248 2.5 1 4.211 7.906 3.211 9.24-3 4-.384-1.697-.218-3.363.5-5z"/><path style="opacity:1" fill="#401717" d="M142.5 71.5c.321 3.453-1.346 6.12-5 8-1.083-.865-1.249-1.865-.5-3l1 1c2.102-1.595 3.602-3.595 4.5-6z"/><path style="opacity:1" fill="#541717" d="M153.5 66.5c.965 1.221.798 2.554-.5 4a12.374 12.374 0 0 1-4.5 5c-1.388-1.09-1.888-2.424-1.5-4 1.183 1.231 2.349 1.231 3.5 0a19.223 19.223 0 0 0 3-5z"/><path style="opacity:1" fill="#c40717" d="M59.5 72.5h4c.097 5.276-2.236 7.276-7 6 .629-2.24 1.629-4.24 3-6z"/><path style="opacity:1" fill="#2e1817" d="M146.5 52.5c.814 3.09-.186 5.757-3 8-1.131-1.575-1.298-3.241-.5-5l1 2c1.372-1.41 2.205-3.077 2.5-5z"/><path style="opacity:1" fill="#501717" d="M139.5 53.5c1.073.75 1.24 1.75.5 3a21.53 21.53 0 0 1-5 6l-.5-1.5c2.672-1.837 4.339-4.337 5-7.5z"/><path style="opacity:1" fill="#371717" d="M156.5 46.5c1.113 1.446 1.28 3.113.5 5l-5 5c-.667-1.667-.667-3.333 0-5 1 1.333 2 1.333 3 0a42.504 42.504 0 0 0 1.5-5z"/><path style="opacity:1" fill="#401817" d="M108.5 91.5c1.129 2.166.629 4.166-1.5 6-.322-2.189.178-4.189 1.5-6z"/><path style="opacity:1" fill="#790d17" d="M163.5 91.5c1.293 1.864 1.293 3.864 0 6-1.194-2.016-1.194-4.016 0-6z"/><path style="opacity:1" fill="#5d1517" d="M179.5 89.5c1.826 1.955 2.326 4.288 1.5 7-1.352-2.094-1.852-4.427-1.5-7z"/><path style="opacity:1" fill="#cb0516" d="M212.5 93.5c2.558-.653 4.725.347 6.5 3 2.007 9.318-.326 10.985-7 5-.667-2-.667-4 0-6 .701 2.261 1.868 3.261 3.5 3-.775-1.896-1.775-3.563-3-5z"/><path style="opacity:1" fill="#d10316" d="M76.5 94.5c1.844 7.201-1.156 11.201-9 12-1.147-2.265-1.314-4.598-.5-7 1.133-1.711 2.633-2.211 4.5-1.5-1.017 1.05-1.184 2.216-.5 3.5a57.141 57.141 0 0 1 5.5-7z"/><path style="opacity:1" fill="#c40616" d="M78.5 95.5c.876-.13 1.543.203 2 1a32.412 32.412 0 0 1 1.5 6c1.033-2.533 2.867-4.2 5.5-5 .908 1.29.741 2.623-.5 4a51.054 51.054 0 0 1-5.5 4c-1.923-3.021-2.923-6.354-3-10z"/><path style="opacity:1" fill="#d50316" d="M131.5 97.5c.817 2.469 1.317 5.135 1.5 8a34.251 34.251 0 0 1 1.5-8 34.832 34.832 0 0 0 7 7c-1.895 4.563-4.895 8.23-9 11-2.834-2.17-4.5-5.004-5-8.5a39.236 39.236 0 0 1 4-9.5z"/><path style="opacity:1" fill="#d90116" d="M150.5 98.5h3a32.462 32.462 0 0 0 .5 8c.186-2.4.686-4.734 1.5-7a18.68 18.68 0 0 1 6 6.5 111.037 111.037 0 0 1-8 9.5c-5.375-2.833-7.875-7.166-7.5-13a32.567 32.567 0 0 0 4.5-4z"/><path style="opacity:1" fill="#d10316" d="M169.5 100.5c.817 2.469 1.317 5.135 1.5 8 .497-2.646.664-5.313.5-8 3.327.486 5.661 2.32 7 5.5-4.448 12.656-8.448 12.322-12-1a20.987 20.987 0 0 1 3-4.5z"/><path style="opacity:1" fill="#d60216" d="M113.5 100.5c.074 2.849.408 5.849 1 9a102.505 102.505 0 0 1 2.5-8 19.887 19.887 0 0 1 3.5 4c-1.456 4.591-4.123 8.258-8 11-7.001-5.918-6.668-11.252 1-16z"/><path style="opacity:1" fill="#d80116" d="M188.5 100.5c2.636-.009 3.969 1.325 4 4-.048 2.829-1.048 5.163-3 7-2.537-1.702-4.537-3.869-6-6.5 1.93-4.753 3.43-4.586 4.5.5a12.93 12.93 0 0 0 .5-5z"/><path style="opacity:1" fill="#d20316" d="M195.5 100.5c1.758 1.641 3.258 3.641 4.5 6a21.438 21.438 0 0 1 0-5l5 5c.707 8.647-1.96 9.981-8 4-2.446-3.097-2.946-6.431-1.5-10z"/><path style="opacity:1" fill="#d10316" d="M99.5 101.5c1.522.691 2.522 1.858 3 3.5-5.085 8.817-8.085 7.983-9-2.5h3c.623 4.834 1.623 4.5 3-1z"/><path style="opacity:1" fill="#ce0316" d="M88.5 103.5h3c.153 6.201-2.847 10.201-9 12-1.152-2.606-1.318-5.273-.5-8 .965-1.76 2.132-2.094 3.5-1-1.43 1.831-1.93 3.831-1.5 6a28.518 28.518 0 0 0 4.5-9z"/><path style="opacity:1" fill="#da0116" d="M209.5 103.5c6.768.882 8.768 4.549 6 11-4.635-2.286-6.635-5.953-6-11z"/><path style="opacity:1" fill="#d50216" d="M75.5 104.5c2.818-.005 3.985 1.328 3.5 4-2.531 3.388-5.698 5.721-9.5 7-.163-2.357.003-4.69.5-7a60.011 60.011 0 0 1 5.5-4z"/><path style="opacity:1" fill="#342a29" d="M47.5 84.5c.577-1.273 1.243-1.273 2 0 .486 1.804.819 3.47 1 5-9.65 14.129-22.817 23.462-39.5 28-.667 1-.667 2 0 3 2.408 2.456 5.24 4.289 8.5 5.5 18.837.027 32.504-8.473 41-25.5-3.247 21.139-12.914 38.972-29 53.5a43.983 43.983 0 0 1-15 5c-.837 1.011-1.17 2.178-1 3.5-2.624-1.698-2.624-3.531 0-5.5 9.67-.586 17.503-4.753 23.5-12.5a152.717 152.717 0 0 0 16.5-29c1.025-.397 1.192-1.063.5-2-.97.124-1.803.124-2.5 0-9.643 10.935-21.643 15.435-36 13.5-12.335-5.944-12.002-10.611 1-14 12.475-4.73 22.475-12.563 30-23.5l-1-1-13 9.5c-2.797 1.914-5.797 2.914-9 3a91.87 91.87 0 0 0 23-16c-.228-.399-.562-.565-1-.5z"/><path style="opacity:1" fill="#d30316" d="M121.5 107.5a467.073 467.073 0 0 1 2 9 34.251 34.251 0 0 0 1.5-8c6.338 5.979 5.838 11.313-1.5 16-2.881-2.592-4.881-5.759-6-9.5a81.838 81.838 0 0 0 4-7.5z"/><path style="opacity:1" fill="#cf0416" d="M161.5 107.5c1.193.47 1.86 1.47 2 3-.768 2.654-.934 5.321-.5 8a73.619 73.619 0 0 0 2-11c5.596 6.285 4.762 11.951-2.5 17a24.992 24.992 0 0 1-7-7.5c2.14-3.122 4.14-6.289 6-9.5z"/><path style="opacity:1" fill="#cd0416" d="M179.5 108.5c1.431.381 2.264 1.381 2.5 3l1-3a14.506 14.506 0 0 0 5 4c.306 2.451-.194 4.784-1.5 7-5.22-2.151-7.553-5.818-7-11z"/><path style="opacity:1" fill="#da0116" d="M192.5 109.5c2.216.703 4.049 2.036 5.5 4 2.788 11.263.122 13.263-8 6a19.67 19.67 0 0 1 2.5-10z"/><path style="opacity:1" fill="#d30316" d="M140.5 109.5c1.086.12 1.753.787 2 2a100.318 100.318 0 0 1 1.5 8l1-10c6.184 5.616 5.684 10.616-1.5 15-6.305-4.186-7.305-9.186-3-15z"/><path style="opacity:1" fill="#ce0316" d="M100.5 110.5c1.25.077 2.083.744 2.5 2 2.066-2.798 3.566-2.465 4.5 1a32.97 32.97 0 0 1-7.5 6c-2.12-3.197-1.953-6.197.5-9z"/><path style="opacity:1" fill="#cc0416" d="M93.5 111.5c2.64 1.206 3.472 3.206 2.5 6a21.741 21.741 0 0 1-6.5 7 135.281 135.281 0 0 0-3-7.5 24.29 24.29 0 0 1 3.5-3.5l1 7a90.447 90.447 0 0 0 2.5-9z"/><path style="opacity:1" fill="#d50216" d="M176.5 114.5c2.318.318 3.652 1.652 4 4-.711 4.814-2.377 9.147-5 13-5.237-3.288-7.237-7.788-6-13.5 1-.667 2-.667 3 0a121.805 121.805 0 0 1 2.5 7.5c.24-3.752.74-7.419 1.5-11z"/><path style="opacity:1" fill="#d50316" d="M106.5 116.5c1.89-.203 3.39.463 4.5 2l1 7c1.805-11.437 4.139-11.77 7-1a35.978 35.978 0 0 1-5.5 8.5c-1 .667-2 .667-3 0-3.515-4.932-4.848-10.432-4-16.5z"/><path style="opacity:1" fill="#d90216" d="M133.5 121.5a10.098 10.098 0 0 0 1.5 6c.179-3.525.679-6.859 1.5-10a36.225 36.225 0 0 0 5 8.5c-5.304 12.708-9.971 12.374-14-1 .731-3.683 2.731-6.183 6-7.5v4z"/><path style="opacity:1" fill="#dc0116" d="M211.5 140.5c4.845 14.705 13.178 27.205 25 37.5 4.844 2.687 8.844 6.187 12 10.5-.539 2.703-2.205 4.203-5 4.5a27.842 27.842 0 0 1-13-1 75.533 75.533 0 0 1-18-14.5c.073-1.527-.594-2.527-2-3a231.91 231.91 0 0 1-19-36c-1.575-4.193-2.075-8.526-1.5-13 2.992-.672 5.825-.672 8.5 0a44.707 44.707 0 0 0 3-9c1.634.468 2.8 1.468 3.5 3a154.455 154.455 0 0 0 6.5 21z"/><path style="opacity:1" fill="#42302e" d="M242.5 117.5c3.492.91 6.492 2.576 9 5-3.744-.428-6.744-2.095-9-5z"/><path style="opacity:1" fill="#db0116" d="M94.5 143.5a217.834 217.834 0 0 1-25.5 41c-4.925 5.213-10.759 9.046-17.5 11.5-5.493 1.358-10.327.191-14.5-3.5-.797-1.759-.63-3.426.5-5 10.441-4.605 18.941-11.605 25.5-21 7.227-8.789 12.06-18.789 14.5-30 .934-1.068 1.268-2.401 1-4 1.838-4.033 3.004-8.367 3.5-13 .71-1.473 1.876-2.14 3.5-2a80.685 80.685 0 0 0 2 10c-2.483 14.962-7.983 28.628-16.5 41a306.977 306.977 0 0 0-13.5 16c17.556-14.388 28.056-33.388 31.5-57l5-4a22.956 22.956 0 0 0 2 5c.57 5.11.07 10.11-1.5 15z"/><path style="opacity:1" fill="#3d3332" d="M242.5 117.5c-4.172-1.658-7.672-4.325-10.5-8-.667.667-.667 1.333 0 2 7.053 10.059 15.22 19.226 24.5 27.5-10.039-7.044-18.539-15.878-25.5-26.5 2.361 8.721 6.361 16.721 12 24 5.763 6.269 11.929 11.936 18.5 17a24.598 24.598 0 0 1-10-5.5c-14.254-14.008-23.087-30.841-26.5-50.5 4.61 7.774 10.443 14.441 17.5 20z"/><path style="opacity:1" fill="#d30316" d="M102.5 119.5c1.725.343 2.225 1.343 1.5 3-5.231 8.5-7.398 7.833-6.5-2 2.12 1.509 3.787 1.176 5-1z"/><path style="opacity:1" fill="#d60216" d="M153.5 118.5c6.676 5.483 6.509 10.817-.5 16-7.333-4.279-8-9.279-2-15 1.334 11.696 2.167 11.362 2.5-1z"/><path style="opacity:1" fill="#cd0416" d="M181.5 119.5a42.367 42.367 0 0 0 9 3l-3 4c-2.766-1.759-4.766-4.093-6-7z"/><path style="opacity:1" fill="#7e0f17" d="M136.5 117.5c-.821 3.141-1.321 6.475-1.5 10a10.098 10.098 0 0 1-1.5-6 112.33 112.33 0 0 0 2-5c.607.124.94.457 1 1z"/><path style="opacity:1" fill="#d90116" d="M103.5 126.5a481.497 481.497 0 0 1 7.5 9 11.295 11.295 0 0 0 4-2c-.273 18.163-7.106 33.33-20.5 45.5a34.615 34.615 0 0 1-8.5 4.5l-1.5-1c10.902-15.545 16.068-32.878 15.5-52a19.552 19.552 0 0 0 3.5-4z"/><path style="opacity:1" fill="#d40216" d="M120.5 125.5c6.627 2.074 6.627 5.408 0 10-1.612-1.049-2.612-2.549-3-4.5a25.194 25.194 0 0 0 3-5.5z"/><path style="opacity:1" fill="#d50216" d="M166.5 125.5c5.319 3.293 5.319 6.627 0 10-3.078-2.021-4.078-4.687-3-8 1.299.59 2.132 1.59 2.5 3a12.93 12.93 0 0 0 .5-5z"/><path style="opacity:1" fill="#d20316" d="M144.5 127.5a63.285 63.285 0 0 1 6 9c-1.474 4.641-3.974 8.641-7.5 12-3.564-2.627-5.731-6.127-6.5-10.5a36.553 36.553 0 0 0 5.5-8.5l1 11a121.16 121.16 0 0 0 1.5-13z"/><path style="opacity:1" fill="#3e3c3b" d="M78.5 132.5c.268 1.599-.066 2.932-1 4a8.435 8.435 0 0 0-.5-4c-4.96 12.295-12.294 22.961-22 32 1.065-3.106 3.065-5.773 6-8a123.206 123.206 0 0 0 13.5-22c-.124-.607-.457-.94-1-1 1.414-3.25 3.08-3.584 5-1z"/><path style="opacity:1" fill="#453938" d="M213.5 130.5c9.534 16.459 23.201 28.292 41 35.5 6.327 2.525 12.161 1.691 17.5-2.5 2.134-2.078 1.968-3.912-.5-5.5-3.561-1.232-6.894-2.732-10-4.5 4.232.278 8.232 1.444 12 3.5 2.003 5.698.003 9.365-6 11-4 .667-8 .667-12 0-16.968-6.064-30.468-16.564-40.5-31.5 3.372 9.699 9.039 18.032 17 25 .667.667.667 1.333 0 2-8.353-7.174-14.519-15.841-18.5-26a19.209 19.209 0 0 0-3-6.5 4.934 4.934 0 0 1 3-.5z"/><path style="opacity:1" fill="#d00316" d="M158.5 130.5c1.737 2.508 2.57 5.508 2.5 9l1-6c1.464.959 2.297 2.292 2.5 4-.901 12.926-3.401 13.259-7.5 1-.712-2.938-.212-5.604 1.5-8z"/><path style="opacity:1" fill="#d70216" d="M180.5 124.5c3.018.853 4.851 2.853 5.5 6-.864 18.605 4.803 34.938 17 49 .688.832.521 1.498-.5 2-13.428-5.596-22.595-15.262-27.5-29a318.342 318.342 0 0 0-4.5-17 4.933 4.933 0 0 1 1-2.5c2.087.218 4.087.051 6-.5 1.4-2.535 2.4-5.202 3-8z"/><path style="opacity:1" fill="#d30316" d="M125.5 133.5c.827 6.536 1.994 6.536 3.5 0 3.566 2.019 4.232 4.685 2 8a55.05 55.05 0 0 1-6.5 6 127.854 127.854 0 0 1-3-8.5 32.924 32.924 0 0 1 4-5.5z"/><path style="opacity:1" fill="#474645" d="M55.5 115.5c-6.845 10.686-15.345 20.019-25.5 28-.667-.667-.667-1.333 0-2 9.513-8.005 17.346-17.339 23.5-28 .697.124 1.53.124 2.5 0 .692.937.525 1.603-.5 2z"/><path style="opacity:1" fill="#3f1717" d="M252.5 156.5c-8.178-4.337-15.011-10.337-20.5-18l-9-14c-1.832-2.828-2.832-5.828-3-9 7.506 16.367 18.339 30.033 32.5 41z"/><path style="opacity:1" fill="#d50216" d="M153.5 137.5a833.454 833.454 0 0 1 6 10c-4.728 8.316-8.395 7.816-11-1.5.158-2.149.992-3.983 2.5-5.5a25.777 25.777 0 0 0 2 8c.499-3.652.665-7.318.5-11z"/><path style="opacity:1" fill="#5f1817" d="M177.5 134.5c1.149.291 1.816 1.124 2 2.5a82.92 82.92 0 0 0 7 23.5l-1 1c-4.363-8.443-7.03-17.443-8-27z"/><path style="opacity:1" fill="#661517" d="M104.5 148.5a45.902 45.902 0 0 1 1.5-15c.667 4 .667 8 0 12-.232 1.237-.732 2.237-1.5 3z"/><path style="opacity:1" fill="#d50216" d="M132.5 141.5a246.697 246.697 0 0 1 2 7c.651-7.829 1.984-7.996 4-.5-1.902 6.99-5.068 7.824-9.5 2.5l-.5-2.5c.705-2.542 2.039-4.708 4-6.5z"/><path style="opacity:1" fill="#615f5f" d="M191.5 138.5v2c1.313 9.334 4.979 18.001 11 26-.667 1.333-1.333 1.333-2 0-5.442-7.554-9.276-15.887-11.5-25a12.93 12.93 0 0 0-.5 5c-1.134-2.466-1.301-5.133-.5-8l1 1 1-3c.278.916.778 1.582 1.5 2z"/><path style="opacity:1" fill="#491717" d="M211.5 162.5c-7.548-10.474-12.048-22.141-13.5-35a196.743 196.743 0 0 0 13.5 35z"/><path style="opacity:1" fill="#d80216" d="M146.5 164.5c-3.523 6.798-6.689 6.464-9.5-1-2.809-6.032-1.309-10.699 4.5-14 .805 3.792 1.138 7.458 1 11a445.324 445.324 0 0 0 2.5-11 3.647 3.647 0 0 1 1.5-1c1.666 1.492 2.666 3.325 3 5.5a193.216 193.216 0 0 1-3 10.5z"/><path style="opacity:1" fill="#db0116" d="M125.5 149.5a93.56 93.56 0 0 1 8.5 8c.738 3.761.405 7.428-1 11-.71 1.473-1.876 2.14-3.5 2a12.93 12.93 0 0 1-.5 5 97.042 97.042 0 0 1-9 14 32.473 32.473 0 0 0-4 10 30.13 30.13 0 0 1-3-12c-2.685 4.427-6.518 6.26-11.5 5.5 3.708-3.91 6.542-8.41 8.5-13.5a51.78 51.78 0 0 1 6-17 32.537 32.537 0 0 1 9-6c.497-2.31.663-4.643.5-7z"/><path style="opacity:1" fill="#402f2e" d="M211.5 139.5c7.253 18.977 19.587 33.81 37 44.5 3.001 4.003 2.335 7.336-2 10-4.241 1.457-8.574 1.791-13 1-8.624-3.966-15.624-9.799-21-17.5a75.533 75.533 0 0 0 18 14.5 27.842 27.842 0 0 0 13 1c2.795-.297 4.461-1.797 5-4.5-3.156-4.313-7.156-7.813-12-10.5-11.822-10.295-20.155-22.795-25-37.5v-1z"/><path style="opacity:1" fill="#d90116" d="M164.5 157.5a21.892 21.892 0 0 1 6.5 4 550.885 550.885 0 0 1 11 24 39.447 39.447 0 0 0 4.5 6c-1.574 1.131-3.241 1.298-5 .5a39.447 39.447 0 0 1-6-4.5 3.647 3.647 0 0 0-1.5 1c-.201 3.253-1.034 6.253-2.5 9-.617.111-1.117.444-1.5 1-.685-8.037-4.019-14.704-10-20a20.51 20.51 0 0 1-3-8l-1 1c-.232-1.237-.732-2.237-1.5-3a72.367 72.367 0 0 1 .5-12c4.235-7.277 5.735-7.277 4.5 0a20.69 20.69 0 0 1 5 1z"/><path style="opacity:1" fill="#da0116" d="M154.5 168.5a59.933 59.933 0 0 1-3.5 18c-.968 7.814-.301 15.48 2 23 1.848 2.541 4.348 3.541 7.5 3 .219 1.175-.114 2.175-1 3a11.988 11.988 0 0 1-6 1c.233 6.233 3.566 9.567 10 10 2.611-.056 4.778-1.056 6.5-3 3.462 3.849 3.295 7.515-.5 11-2.715.623-5.382.957-8 1 3.396 6.531 8.73 9.031 16 7.5a14.748 14.748 0 0 0 3-4.5c3.798 2.589 5.798 6.256 6 11 4.366 1.856 7.033 5.023 8 9.5.242 2.348-.592 4.182-2.5 5.5-.85-4.832-3.684-7.499-8.5-8 .478 2.778-.522 4.778-3 6a33.689 33.689 0 0 0-3.5-9 84.883 84.883 0 0 0-16.5-10.5c-4.323-2.973-6.99-6.973-8-12-.35-1.257-1.017-1.591-2-1-2.471 9.403.196 17.069 8 23a22.508 22.508 0 0 0 7 2c-3.594 6.322-8.261 7.155-14 2.5-2.001 9.998 1.999 15.998 12 18-2.46 6.431-6.627 7.764-12.5 4a6.293 6.293 0 0 0-3 1c.338 3.213 1.171 6.379 2.5 9.5a66.6 66.6 0 0 1-7.5 15.5 78.854 78.854 0 0 1-7.5-15c.304-1.941 1.137-3.607 2.5-5 .78-1.887.613-3.554-.5-5-.417-.624-1.084-.957-2-1-5.242 3.466-9.242 2.466-12-3 9.333-2.313 13.5-8.313 12.5-18l-1-1c-3.61 4.955-7.777 5.289-12.5 1v-3c4.548.301 7.715-1.699 9.5-6 3.363-6.352 4.196-13.019 2.5-20-1.164 2.995-2.33 5.995-3.5 9a426.915 426.915 0 0 1-22 17 102.505 102.505 0 0 0-2.5 8c-2.672-1.925-3.672-4.592-3-8-4.273.643-7.273 2.976-9 7-2.084-5.577-.418-9.577 5-12 .992-3.816 2.992-6.982 6-9.5.667-.667 1.333-.667 2 0 1.07 4.206 3.737 5.539 8 4 5.18-1.824 8.013-5.324 8.5-10.5-7.866 1.469-11.199-1.865-10-10l1-1c3.308 3.827 7.474 4.994 12.5 3.5 3.673-2.513 5.339-6.013 5-10.5a18.453 18.453 0 0 1-6-.5 15.83 15.83 0 0 0 5.5-3.5c4.968-10.691 5.802-21.691 2.5-33-1.521-4.856-1.021-9.523 1.5-14a21.741 21.741 0 0 0 6.5 7c2.387-2.107 3.72-4.773 4-8a71.912 71.912 0 0 0 5.5-10 124.153 124.153 0 0 1 2.5 14z"/><path style="opacity:1" fill="#3d1717" d="M104.5 148.5c-2.135 11.602-6.968 21.935-14.5 31 3.504-5.997 6.837-12.33 10-19 1.211-4.235 2.711-8.235 4.5-12z"/><path style="opacity:1" fill="#452c2a" d="M191.5 138.5a231.91 231.91 0 0 0 19 36c-8.8-9.838-15.133-21.172-19-34v-2z"/><path style="opacity:1" fill="#541517" d="M252.5 156.5a66.78 66.78 0 0 1 10 4.5c-3.934-.133-7.267-1.633-10-4.5z"/><path style="opacity:1" fill="#391817" d="M163.5 160.5c2.928 1.091 5.094 3.091 6.5 6 2.498 4.827 4.165 9.827 5 15a58.463 58.463 0 0 1-6-14 61.38 61.38 0 0 0-5.5-7z"/><path style="opacity:1" fill="#481517" d="M211.5 162.5c1.406.473 2.073 1.473 2 3-1.406-.473-2.073-1.473-2-3z"/><path style="opacity:1" fill="#342a2a" d="M15.5 162.5c5.521 5.892 12.188 7.558 20 5-.417.722-1.084 1.222-2 1.5-4 .667-8 .667-12 0-2.909-1.406-4.909-3.572-6-6.5z"/><path style="opacity:1" fill="#6c1517" d="M125.5 172.5a9.86 9.86 0 0 1 1-6c1.257 2.299.923 4.299-1 6z"/><path style="opacity:1" fill="#3a2f2e" d="M77.5 136.5c-2.44 11.211-7.273 21.211-14.5 30-6.559 9.395-15.059 16.395-25.5 21-1.13 1.574-1.297 3.241-.5 5 4.173 3.691 9.007 4.858 14.5 3.5 6.741-2.454 12.575-6.287 17.5-11.5a217.834 217.834 0 0 0 25.5-41c.996-.086 1.83.248 2.5 1 .78 1.887.613 3.554-.5 5a154.267 154.267 0 0 1-10.5 21c-.718.951-1.55 1.117-2.5.5 4.434-6.361 7.6-13.194 9.5-20.5-7.166 15.162-16.666 28.662-28.5 40.5-6 5.508-13 7.841-21 7-5.935-1.245-8.768-4.745-8.5-10.5 10.5-5.501 19.5-12.834 27-22a151.893 151.893 0 0 0 15.5-29z"/><path style="opacity:1" fill="#3b1817" d="M187.5 163.5a238.063 238.063 0 0 1 10 12.5c-4.58-2.899-7.914-7.066-10-12.5z"/><path style="opacity:1" fill="#401817" d="M213.5 165.5a236.714 236.714 0 0 1 12 13.5 137.896 137.896 0 0 0 13 9c-11.252-4.077-19.586-11.577-25-22.5z"/><path style="opacity:1" fill="#523c3a" d="M210.5 174.5c1.406.473 2.073 1.473 2 3-1.406-.473-2.073-1.473-2-3z"/><path style="opacity:1" fill="#701217" d="M145.5 183.5c0-.667-.333-1-1-1a57.269 57.269 0 0 1 3.5-10c-.138 3.86-.971 7.527-2.5 11z"/><path style="opacity:1" fill="#3e1717" d="M125.5 172.5c-1.414 4.601-3.914 8.601-7.5 12 1.79-4.322 4.29-8.322 7.5-12z"/><path style="opacity:1" fill="#3c1917" d="M144.5 182.5c.667 0 1 .333 1 1a103.278 103.278 0 0 0 2 25c-1.917-3.304-3.084-6.971-3.5-11a47.364 47.364 0 0 1-7.5 14l-1-1c7.871-10.953 8.871-22.453 3-34.5l.5-1.5 4 8c.69 1.238 1.19 1.238 1.5 0z"/><path style="opacity:1" fill="#edd503" d="M108.5 200.5a154.733 154.733 0 0 0-19.5 17c-.72 1.612-.554 3.112.5 4.5 2.317 1.993 4.984 3.159 8 3.5-1.333 2.667-1.333 5.333 0 8-3.544.261-5.377-1.405-5.5-5a71.46 71.46 0 0 0-8.5-6c-4.27 1.419-7.936 3.752-11 7a13.118 13.118 0 0 1-1-7c3.97.015 6.97-1.652 9-5-3.876-2.878-8.21-4.711-13-5.5-.837-1.011-1.17-2.178-1-3.5a32.462 32.462 0 0 1 8 .5 29.725 29.725 0 0 0 9.5 6.5 141.099 141.099 0 0 0 16.5-18 108.393 108.393 0 0 1 11-5c1.114 1.223 1.281 2.556.5 4a19.552 19.552 0 0 0-3.5 4z"/><path style="opacity:1" fill="#491517" d="M147.5 208.5c1.348 1.027 1.848 2.36 1.5 4-1.188-1.063-1.688-2.397-1.5-4z"/><path style="opacity:1" fill="#343025" d="m98.5 195.5 2 2a141.099 141.099 0 0 1-16.5 18 29.725 29.725 0 0 1-9.5-6.5 32.462 32.462 0 0 0-8-.5c-.17 1.322.163 2.489 1 3.5 4.79.789 9.124 2.622 13 5.5-2.03 3.348-5.03 5.015-9 5a13.118 13.118 0 0 0 1 7c3.064-3.248 6.73-5.581 11-7a71.46 71.46 0 0 1 8.5 6c.123 3.595 1.956 5.261 5.5 5-1.333-2.667-1.333-5.333 0-8-3.016-.341-5.683-1.507-8-3.5-1.054-1.388-1.22-2.888-.5-4.5a154.733 154.733 0 0 1 19.5-17 102.927 102.927 0 0 1-15 14.5 76.402 76.402 0 0 1 15 0c2.419 1.509 3.419 3.675 3 6.5-1.322.17-2.489-.163-3.5-1-2.574 2.527-5.74 3.694-9.5 3.5a32.005 32.005 0 0 1 7.5 5.5c.808 2.079.641 4.079-.5 6a6.895 6.895 0 0 0-4-2c-5.603 3.584-9.437 2.25-11.5-4a67.843 67.843 0 0 1-6.5-5 25.55 25.55 0 0 0-9 5.5c-2.067.687-4.067.52-6-.5-1.35 1.45-3.016 2.117-5 2-.625-3.47.375-6.304 3-8.5a80.413 80.413 0 0 0 11-5 8.902 8.902 0 0 1-4-3c-3.438.135-6.272-1.032-8.5-3.5-.058-3.613-1.058-6.613-3-9 2.4-1.102 4.9-1.269 7.5-.5a84.792 84.792 0 0 1 8 7.5 36.168 36.168 0 0 0 7 4 132.96 132.96 0 0 1 9.5-10c2.157-2.317 3.657-4.984 4.5-8z"/><path style="opacity:1" fill="#e9d303" d="M65.5 204.5c3.244-1.679 5.244-.679 6 3-2.447-.115-4.447-1.115-6-3z"/><path style="opacity:1" fill="#eed703" d="M99.5 215.5h3c.086 2.177.753 4.177 2 6l-2 1c-3.746-1.753-7.746-2.42-12-2v-3c3.33.285 6.33-.382 9-2z"/><path style="opacity:1" fill="#cab60a" d="M103.5 217.5c2.105-1.319 4.105-.986 6 1-2.257 1.27-4.257.936-6-1z"/><path style="opacity:1" fill="#551317" d="M143.5 215.5c1.312 4.515 1.312 9.182 0 14-1.275-4.716-1.275-9.383 0-14z"/><path style="opacity:1" fill="#373227" d="M163.5 155.5c3.87.853 7.036 2.853 9.5 6a501.594 501.594 0 0 0 13 27 25.55 25.55 0 0 0 6.5 5.5c-2.468 1.588-2.634 3.422-.5 5.5 7.227 14.034 15.394 14.534 24.5 1.5 3.428-.701 6.762-.368 10 1 1.473.71 2.14 1.876 2 3.5-1.788-.285-3.455.048-5 1 1.365 2.251 1.031 4.251-1 6a304.257 304.257 0 0 0-13 4 129.16 129.16 0 0 0 13.5 9c1.601 2.594 1.767 5.261.5 8a14.972 14.972 0 0 1-3.5-3c-1.525 2.587-3.692 3.42-6.5 2.5-2.554-3.895-5.888-7.062-10-9.5a143.184 143.184 0 0 0-12 11.5l-2 .5a33.265 33.265 0 0 0-5.5-4 11.068 11.068 0 0 0-3.5 2c-1.212-2.341-.878-4.507 1-6.5a57.884 57.884 0 0 0 11-4c-3.856-.404-7.523-.071-11 1-1.692-1.401-2.359-3.234-2-5.5-5.646.349-6.313-1.151-2-4.5a243.34 243.34 0 0 0 17 0 172.156 172.156 0 0 0-22-16.5h-1c1.466-2.747 2.299-5.747 2.5-9a3.647 3.647 0 0 1 1.5-1 39.447 39.447 0 0 0 6 4.5c1.759.798 3.426.631 5-.5a39.447 39.447 0 0 1-4.5-6 550.885 550.885 0 0 0-11-24 21.892 21.892 0 0 0-6.5-4l-1-2z"/><path style="opacity:1" fill="#f5dd01" d="M184.5 216.5a84.902 84.902 0 0 1 13 .5l-2 3c-4.871.22-9.537 1.054-14 2.5.115-2.447 1.115-4.447 3-6z"/><path style="opacity:1" fill="#ceba08" d="M178.5 214.5c1.788-.285 3.455.048 5 1-1.676 2.421-3.676 2.588-6 .5.556-.383.889-.883 1-1.5z"/><path style="opacity:1" fill="#f1d902" d="M217.5 202.5c7.44-.405 7.774.595 1 3-2.303-.376-2.637-1.376-1-3z"/><path style="opacity:1" fill="#f1da02" d="M175.5 191.5c3.645 1.152 7.312 2.318 11 3.5a73.146 73.146 0 0 0 16 18.5 104.49 104.49 0 0 0 12.5-7 56.738 56.738 0 0 0 6.5 1.5c1.333 1 1.333 2 0 3a260.281 260.281 0 0 1-12 3c-1.41.368-2.41 1.201-3 2.5a33.2 33.2 0 0 0 9.5 7 168.167 168.167 0 0 1 1.5 8c-4.075.101-6.575-1.899-7.5-6a47.05 47.05 0 0 1-6.5-5 155.197 155.197 0 0 1-12 12.5 4.934 4.934 0 0 1-3 .5c-.465-4.821 1.535-7.987 6-9.5 3.169-2.479 4.336-5.646 3.5-9.5a580.713 580.713 0 0 0-22.5-18c-1.166-1.667-1.166-3.334 0-5z"/><path style="opacity:1" fill="#e1cb04" d="M66.5 224.5c5.213 1.117 5.213 2.451 0 4-1.126-1.308-1.126-2.642 0-4z"/><path style="opacity:1" fill="#d9c406" d="M217.5 224.5c3.255.528 4.588 2.195 4 5-2.851-.512-4.184-2.179-4-5z"/><path style="opacity:1" fill="#fae100" d="M183.5 227.5c1.478-.262 2.811.071 4 1-1.574 1.131-3.241 1.298-5 .5.556-.383.889-.883 1-1.5z"/><path style="opacity:1" fill="#e7d103" d="M99.5 227.5c3.735.046 5.068 1.713 4 5a25.866 25.866 0 0 0-5-3c.363-.683.696-1.35 1-2z"/><path style="opacity:1" fill="#292d28" d="M231.5 206.5c6.231-.647 11.398 1.353 15.5 6a52.229 52.229 0 0 1 7 18c.733 10.36.567 20.694-.5 31-13.967 3.656-27.967 3.823-42 .5-10.619-2.93-15.119-9.764-13.5-20.5 3.845-6.167 9.345-8.334 16.5-6.5-2.293 6.023-.293 9.023 6 9a25.513 25.513 0 0 0 4-4.5c1.088 3.182 3.255 5.182 6.5 6 4.177-1.392 5.344-4.059 3.5-8a25.866 25.866 0 0 0-5-3 19.887 19.887 0 0 1 3.5-4c.768-6.711-2.065-8.711-8.5-6-2.612-8.087-.278-14.087 7-18z"/><path style="opacity:1" fill="#019333" d="M230.5 208.5c9.022-1.146 15.189 2.521 18.5 11 4.708 13.029 5.708 26.362 3 40-10.973 2.708-22.14 3.542-33.5 2.5-7.808-.815-13.974-4.315-18.5-10.5-2.353-9.808 1.48-14.808 11.5-15-.183 6.984 3.15 9.817 10 8.5 2.163-2.978 4.163-2.645 6 1 6.188 1.134 9.354-1.366 9.5-7.5a10.91 10.91 0 0 0-4.5-5c4.427-4.702 3.76-8.535-2-11.5-1.735-.651-3.402-.485-5 .5-1.299-3.077-1.132-6.077.5-9a31.447 31.447 0 0 0 4.5-5z"/><path style="opacity:1" fill="#381817" d="M141.5 235.5c.988 3.655.488 7.321-1.5 11-.984 3.653-3.151 5.82-6.5 6.5 4.406-4.982 7.073-10.816 8-17.5z"/><path style="opacity:1" fill="#711517" d="M142.5 249.5c1.277 1.194 1.944 2.86 2 5l-1 5a25.879 25.879 0 0 1-1-10z"/><path style="opacity:1" fill="#321817" d="M144.5 235.5a838.95 838.95 0 0 0 2.5 10 106.612 106.612 0 0 1 4 8c-5.033-4.929-7.199-10.929-6.5-18z"/><path style="opacity:1" fill="#362b2a" d="m132.5 178.5 2 1c3.302 11.309 2.468 22.309-2.5 33a15.83 15.83 0 0 1-5.5 3.5c1.973.495 3.973.662 6 .5.339 4.487-1.327 7.987-5 10.5-5.026 1.494-9.192.327-12.5-3.5l-1 1c-1.199 8.135 2.134 11.469 10 10-.487 5.176-3.32 8.676-8.5 10.5-4.263 1.539-6.93.206-8-4-.667-.667-1.333-.667-2 0-3.008 2.518-5.008 5.684-6 9.5-5.418 2.423-7.084 6.423-5 12 1.727-4.024 4.727-6.357 9-7-.672 3.408.328 6.075 3 8a102.505 102.505 0 0 1 2.5-8 426.915 426.915 0 0 0 22-17c1.17-3.005 2.336-6.005 3.5-9 1.696 6.981.863 13.648-2.5 20-1.785 4.301-4.952 6.301-9.5 6v3c-1.122-1.788-1.289-3.788-.5-6 3.482 1.577 6.148.577 8-3 1.971-4.24 3.305-8.573 4-13-4.603 6.929-10.77 12.095-18.5 15.5l-5.5 5.5c-.687 2.068-.52 4.068.5 6-1.921 1.141-3.921 1.308-6 .5a56.551 56.551 0 0 0-4-5.5c-2.951 2.232-4.618 5.232-5 9-1.299-.59-2.132-1.59-2.5-3-2.178-7.235-.178-12.902 6-17 1.234-5.07 4.401-8.403 9.5-10 2.998 7.645 7.165 7.978 12.5 1l.5-1c-9.481-2.628-11.814-8.128-7-16.5.667-.667 1.333-.667 2 0 3.044 6.209 7.21 7.042 12.5 2.5 1.009-1.525 1.509-3.192 1.5-5-5.999.498-8.166-2.169-6.5-8 .347 1.68 1.347 2.68 3 3 2.654-1.321 4.654-3.321 6-6 2.161-9.736 1.994-19.402-.5-29z"/><path style="opacity:1" fill="#3a2827" d="M137.5 280.5c-2.181-.216-3.847.617-5 2.5-8.172 1.172-11.505-2.328-10-10.5 7.738 1.62 11.738-1.713 12-10a40.914 40.914 0 0 1-9-.5c-1.926-.422-2.926-1.589-3-3.5 4.723 4.289 8.89 3.955 12.5-1l1 1c1 9.687-3.167 15.687-12.5 18 2.758 5.466 6.758 6.466 12 3 .916.043 1.583.376 2 1z"/><path style="opacity:1" fill="#292b27" d="M46.5 206.5c12.491-.846 17.491 4.821 15 17-5.803-2.018-8.636-.018-8.5 6a19.897 19.897 0 0 1 3.5 4c-4.018 1.826-5.518 4.826-4.5 9 2.667 2.667 5.333 2.667 8 0 .483-.948.65-1.948.5-3 2.324.162 3.991 1.328 5 3.5 7.03.458 9.363-2.709 7-9.5 13.082-.436 18.248 5.564 15.5 18-2.957 4.731-7.123 7.898-12.5 9.5-13.983 3.086-27.983 3.253-42 .5-2.392-11.288-2.559-22.622-.5-34 1.535-9.108 6.035-16.108 13.5-21z"/><path style="opacity:1" fill="#019233" d="M47.5 207.5c9.716-.284 14.383 4.383 14 14-9.466-.534-12.132 3.466-8 12-5.8 5.334-5.133 9.668 2 13 2.785-.559 5.118-1.892 7-4 8.098 4.948 12.098 2.614 12-7 11.77.194 15.604 5.861 11.5 17-6.635 5.959-14.468 9.126-23.5 9.5a101.73 101.73 0 0 1-28-1.5 129.488 129.488 0 0 1 .5-34c1.691-8.073 5.858-14.406 12.5-19z"/><path style="opacity:1" fill="#3a2b2a" d="M154.5 168.5c.768.763 1.268 1.763 1.5 3l1-1a20.51 20.51 0 0 0 3 8c5.981 5.296 9.315 11.963 10 20 .383-.556.883-.889 1.5-1h1c-.489 2.824-2.156 4.157-5 4 .569-10.291-3.265-18.624-11.5-25-1.867 2.308-2.867 4.975-3 8a90.455 90.455 0 0 0 0 19c.606 3.048 2.106 5.548 4.5 7.5 1.547.333 2.88-.167 4-1.5 1.861 5.622-.139 8.288-6 8-.526 3.308.807 5.474 4 6.5 4.894 1.681 8.227.181 10-4.5 3.726 3.917 4.892 8.584 3.5 14-2.228 2.468-5.062 3.635-8.5 3.5 3.41 3.979 7.743 5.479 13 4.5v-5c7.054.726 10.721 4.726 11 12 6.506 3.019 8.672 8.019 6.5 15-1.264 2.107-3.097 3.107-5.5 3-.528-8.01-3.194-8.843-8-2.5a8.43 8.43 0 0 1-4 .5c.468-3.631-.199-6.965-2-10a87.384 87.384 0 0 0-15-9.5 32.27 32.27 0 0 1-9.5-9.5c.103 6.805 2.936 12.305 8.5 16.5 2.646.497 5.313.664 8 .5-1.612 8.438-6.445 11.105-14.5 8-.617 4.608.883 8.441 4.5 11.5 2.64.839 4.973.339 7-1.5 1.124 3.5.624 6.833-1.5 10-1.299 1.48-2.966 2.146-5 2a86.92 86.92 0 0 1-8.5-2c1.729 4.17 2.229 8.503 1.5 13a95.488 95.488 0 0 0-7.5 17 101.182 101.182 0 0 0-8.5-17 12.494 12.494 0 0 1 0-7c1.663-1.658 2.496-3.658 2.5-6 1.113 1.446 1.28 3.113.5 5-1.363 1.393-2.196 3.059-2.5 5a78.854 78.854 0 0 0 7.5 15 66.6 66.6 0 0 0 7.5-15.5c-1.329-3.121-2.162-6.287-2.5-9.5a6.293 6.293 0 0 1 3-1c5.873 3.764 10.04 2.431 12.5-4-10.001-2.002-14.001-8.002-12-18 5.739 4.655 10.406 3.822 14-2.5a22.508 22.508 0 0 1-7-2c-7.804-5.931-10.471-13.597-8-23 .983-.591 1.65-.257 2 1 1.01 5.027 3.677 9.027 8 12a84.883 84.883 0 0 1 16.5 10.5 33.689 33.689 0 0 1 3.5 9c2.478-1.222 3.478-3.222 3-6 4.816.501 7.65 3.168 8.5 8 1.908-1.318 2.742-3.152 2.5-5.5-.967-4.477-3.634-7.644-8-9.5-.202-4.744-2.202-8.411-6-11a14.748 14.748 0 0 1-3 4.5c-7.27 1.531-12.604-.969-16-7.5 2.618-.043 5.285-.377 8-1 3.795-3.485 3.962-7.151.5-11-1.722 1.944-3.889 2.944-6.5 3-6.434-.433-9.767-3.767-10-10a11.988 11.988 0 0 0 6-1c.886-.825 1.219-1.825 1-3-3.152.541-5.652-.459-7.5-3-2.301-7.52-2.968-15.186-2-23a59.933 59.933 0 0 0 3.5-18z"/><path style="opacity:1" fill="#3d1817" d="M142.5 262.5c.997-.03 1.664.47 2 1.5.621 4.083 2.621 7.25 6 9.5l-1 1a25.619 25.619 0 0 1-6-6 71.1 71.1 0 0 1-5 5.5c-.667.667-1.333.667-2 0 3.727-2.955 5.727-6.788 6-11.5z"/></svg>