<?xml version="1.0" encoding="UTF-8" standalone="no"?>
<!-- Creator: CorelDRAW -->

<svg
   xml:space="preserve"
   width="2130px"
   height="2551px"
   style="shape-rendering:geometricPrecision; text-rendering:geometricPrecision; image-rendering:optimizeQuality; fill-rule:evenodd; clip-rule:evenodd"
   viewBox="0 0 2230.36 2671.32"
   version="1.1"
   id="svg134"
   sodipodi:docname="Wappen_Suhl.svg"
   inkscape:version="1.1.1 (3bf5ae0d25, 2021-09-20)"
   xmlns:inkscape="http://www.inkscape.org/namespaces/inkscape"
   xmlns:sodipodi="http://sodipodi.sourceforge.net/DTD/sodipodi-0.dtd"
   xmlns="http://www.w3.org/2000/svg"
   xmlns:svg="http://www.w3.org/2000/svg"><sodipodi:namedview
   id="namedview136"
   pagecolor="#ffffff"
   bordercolor="#666666"
   borderopacity="1.0"
   inkscape:pageshadow="2"
   inkscape:pageopacity="0.0"
   inkscape:pagecheckerboard="0"
   showgrid="false"
   inkscape:zoom="0.23062048"
   inkscape:cx="813.02407"
   inkscape:cy="1246.6369"
   inkscape:window-width="1920"
   inkscape:window-height="1017"
   inkscape:window-x="-8"
   inkscape:window-y="-8"
   inkscape:window-maximized="1"
   inkscape:current-layer="Ebene_x0020_1" />
 <defs
   id="defs4">
  <style
   type="text/css"
   id="style2">
   <![CDATA[
    .fil5 {fill:#005DBE}
    .fil1 {fill:#1FB53B}
    .fil0 {fill:#2B2C2A}
    .fil2 {fill:#F02C2D}
    .fil3 {fill:#FCD016}
    .fil4 {fill:white}
   ]]>
  </style>
 </defs>
 <g
   id="Ebene_x0020_1"
   inkscape:label="Ebene 1">
  <metadata
   id="CorelCorpID_0Corel-Layer" />
  <path
   class="fil0"
   d="M1065.23 2668.94c77.0032,7.11779 170.818,-2.55028 249.855,-17.8371 70.3764,-10.2209 127.492,-34.6935 191.241,-58.6404 60.1555,-22.9562 118.805,-52.0136 171.818,-85.1809 54.5639,-32.6243 101.993,-67.3079 149.413,-107.586 47.4202,-39.7594 89.7397,-81.0784 129.017,-127.499 41.8273,-48.9365 81.5868,-95.8483 113.72,-148.896 33.1425,-53.5299 60.6824,-105.544 84.121,-167.251 27.5411,-65.2746 52.0136,-135.642 63.741,-203.434 18.881,-101.51 10.2209,-197.359 10.2209,-297.792l0 -1454.83 -2227.38 1.03396 -0.999335 1016.25c0,86.6972 0,172.369 0,257.515 0,46.4208 0,91.2895 0,136.676l0 276.879 1.51632 14.2875c-2.0333,49.9791 12.2542,124.914 40.802,198.358 18.364,63.2326 48.9377,127.466 79.0377,186.622 30.0901,57.6324 61.1907,110.136 99.4326,156.557 37.7261,46.9032 79.0464,92.807 124.94,133.085 48.9464,44.3517 94.3332,77.4942 146.346,110.144 54.0556,33.6496 111.171,62.19 170.327,87.2142 64.2406,25.9889 126.432,46.3862 192.215,62.1987 76.4862,23.4386 139.236,30.0654 210.612,32.1246z"
   id="path7"
   style="fill:#000000" />
  <path
   class="fil1"
   d="M1066.75 2653.62c78.0371,3.07592 158.6,-6.10979 237.119,-16.8032 28.0568,-3.5929 52.5294,-10.7367 78.0371,-15.8125 3.55827,-2.0333 8.14309,-2.0333 10.185,-4.07649 0,0 0,-0.516982 0,-1.54229 -19.8877,-16.8118 -42.8353,-28.0308 -67.3091,-39.7681 -17.8458,-10.211 -39.7594,-16.8378 -59.6731,-9.17706 -14.2529,3.55827 -24.9895,11.736 -36.6922,14.7699 -3.58425,0 -5.11046,1.03396 -7.14376,1.03396 -21.4313,-13.7705 -25.5065,-43.8619 -48.9451,-56.5972 -16.3208,-19.889 -40.7946,-21.4399 -62.7416,-22.9562 -35.1758,8.17772 -68.3085,27.5398 -87.7064,56.0889 -7.14252,4.10123 -9.69404,12.253 -17.3288,14.2875 -30.6083,-10.1863 -63.224,-2.03454 -90.2468,11.736 -12.7452,6.10979 -20.9229,15.2869 -31.6163,20.9143 -4.59348,4.58358 -8.66997,8.14309 -14.2875,9.66807 -1.52621,1.02531 -3.07716,3.0685 -3.07716,4.06784 10.7379,8.69471 25.5078,5.10922 37.7607,11.736 52.496,13.2882 103.509,13.2882 155.006,19.915 3.58548,0.999335 5.11046,2.0333 8.66008,2.51565z"
   id="path9"
   style="fill:#078930" />
  <path
   class="fil2"
   d="M854.617 2128.42c-3.55085,-98.3998 -10.6934,-140.236 26.0235,-211.613 -27.0228,-21.9136 -59.6731,-44.8686 -90.7725,-63.7496 -8.66131,15.8125 -18.3554,38.7601 -25.9901,54.5726 0,1.51632 0.999335,1.51632 0.999335,3.55951 43.3536,53.5633 57.6411,114.237 54.0556,183.579l0 511.955 35.6842 8.66873 0 -486.973z"
   id="path11"
   style="fill:#da121a" />
  <path
   class="fil2"
   d="M1400.75 2606.72l32.1333 -12.7366 0 -483.414c0.516982,-148.896 21.9136,-172.36 55.0809,-214.679 -8.17772,-20.3973 -13.2523,-33.6509 -23.9816,-51.4967l-98.4072 62.1987c31.6163,69.8594 36.7255,146.863 35.1746,221.824l0 478.304z"
   id="path13"
   style="fill:#da121a" />
  <path
   class="fil3"
   d="M793.943 2495.55l-53.5299 0 -35.6916 24.9895 -71.4104 -46.9032 74.4517 -40.802 30.6083 25.5065 55.5719 0 0 -329.925 -62.7157 0 -19.3621 28.0568 -87.7064 -53.0476 87.1882 -41.7927 19.8803 33.1326 62.7157 0c1.03396,0 -4.07526,-10.702 -2.55028,-11.736 6.62678,-61.1907 -21.4053,-124.914 -61.1993,-169.293 -45.3869,-49.4621 -111.135,-81.0784 -175.403,-82.596l0 662.377c69.3684,46.9366 146.346,74.96 239.153,104.026l0 -101.993z"
   id="path15"
   style="fill:#fcdd09" />
  <path
   class="fil3"
   d="M1376.27 2588.36l-0.516982 -509.922c-1.51632,-71.8927 -11.219,-143.785 -59.1574,-198.866 -40.7674,-53.0216 -102.475,-85.1549 -166.742,-90.7477 -70.3418,-4.58482 -140.718,16.2948 -191.724,64.749 -49.9531,44.3529 -73.4177,108.62 -78.5282,174.404l0 560.383c0.516982,1.55095 3.59414,1.03396 5.11046,1.03396 34.1666,-23.9816 78.0025,-41.8286 118.805,-30.6083 17.3548,-18.3294 36.2011,-42.3196 59.6744,-54.0556 4.0666,-6.62678 9.17706,-11.7026 16.3208,-11.2104 1.51632,0 3.04129,-1.52621 4.59224,-2.56018 4.58482,-22.9216 4.58482,-47.3855 2.03454,-70.8588 -24.9908,-14.2875 -53.5646,-32.1333 -58.6404,-63.2326 -8.17772,-65.2672 -71.9274,-100.95 -93.324,-162.666 -27.5398,-50.4874 -35.1746,-105.544 -0.516982,-152.972 28.058,-27.5398 30.0913,-63.741 21.9136,-98.4332 -9.15108,-10.1776 -27.0228,-8.14309 -35.6842,-19.3633 -0.49101,-0.516982 -0.49101,-2.0333 0,-3.54962 9.17829,-12.7712 28.575,-15.3215 42.8279,-21.9569 0.516982,-0.516982 1.03396,-0.516982 2.06793,-2.0333 2.52431,-14.2875 -1.55095,-34.1678 11.7026,-43.8619 1.55095,-1.52497 3.07592,-2.00733 3.07592,-2.00733 11.2104,-1.03396 16.8118,10.6934 27.5411,13.2177 12.2183,-4.0666 19.3621,-24.4726 34.1666,-21.9124 9.66807,2.0333 9.17706,13.2523 13.2536,17.8458 12.7353,2.0333 25.9889,-10.702 37.2079,2.0333 6.10979,5.11046 9.18695,11.2203 7.14376,17.8718 -10.702,20.8883 -28.0568,38.2431 -17.3288,62.7157 11.7372,52.0136 9.18572,110.654 54.0556,145.829 2.0333,1.55095 3.55085,2.55152 3.55085,2.55152 3.5929,0.516982 5.6262,-3.0685 7.15118,-6.62678 5.61878,-37.7261 11.7286,-72.4109 19.8803,-107.095 20.9143,-45.3869 45.3869,-87.7052 82.105,-117.28 2.04196,-1.00799 3.55827,0 4.59224,0 20.9143,9.69404 31.6163,31.0907 36.2011,52.5306 4.59224,11.7273 0,26.5059 11.736,33.6496 15.2955,6.62678 22.9216,19.8803 30.0654,32.1333 12.7712,20.3973 14.8045,45.3869 3.58548,64.232 -3.58548,5.61878 -6.13577,10.7292 -3.58548,15.8038 14.8045,26.5417 17.3288,58.1581 5.11046,84.6639 -14.2875,32.6169 -48.9451,54.0556 -47.4202,92.29 2.55028,28.0667 43.3437,38.2431 41.7927,63.7496 -7.10913,23.4732 -21.3966,40.2863 -41.2844,50.9797 -20.9143,9.18572 -44.3529,9.7027 -64.258,0.516982 -0.492246,0 -2.04319,0 -3.04253,1.03396 -7.14376,32.6243 0.999335,74.4529 -27.5398,98.9255 -4.07649,2.0333 -7.14376,3.54962 -10.7033,4.0666l-16.8378 -2.55028c-1.52497,0 -2.04196,1.51632 -3.07592,2.55028 -3.03387,12.2282 -3.03387,25.5078 -3.03387,37.2091 6.10979,5.62744 16.8032,7.14376 16.8032,16.8465 17.847,15.8038 29.583,34.6848 42.3196,54.5639 1.55095,1.51755 3.06726,3.04253 3.06726,3.04253 51.0143,-24.4726 109.653,-10.7033 151.973,25.5065 0,0 0.999335,0 1.51632,0 0,-1.00799 0,-1.52497 0,-2.55894z"
   id="path17"
   style="fill:#fcdd09" />
  <path
   class="fil3"
   d="M1461.94 2585.81c60.1914,-19.8791 119.839,-45.3522 176.963,-76.485 15.8038,-9.17829 30.0654,-17.847 44.3529,-26.5071l-0.518219 -655.258c-1.00799,-0.49101 1.55218,-9.66807 0,-10.7033 -64.2406,4.59348 -130.541,42.8366 -172.335,92.29 -37.2425,46.9118 -58.6392,114.247 -52.5294,172.887l52.0124 0 22.9476 -19.915 78.5195 32.6503c8.17772,-9.7027 -69.3338,53.5299 -74.96,49.9717l-24.9908 -21.4313 -53.5287 0 0 329.408 46.3862 0 37.7595 -30.5824 72.8933 46.3948 -71.3757 44.8958 -35.6928 -24.9809 -47.9371 0c-6.10979,30.0654 0,65.2659 -2.0333,97.3646 1.51632,0.516982 2.55028,0.516982 4.0666,0z"
   id="path19"
   style="fill:#fcdd09" />
  <path
   class="fil3"
   d="M1126.94 2491.99c8.15175,-15.2869 8.66873,-36.7169 7.14376,-55.0809 -3.58548,-5.10922 -10.728,-7.11779 -16.3208,-7.11779 -0.516982,0 -1.55095,1.00799 -2.06793,1.52497 -5.07583,18.364 -2.00856,36.2011 -3.04253,54.5639 3.04253,3.55951 8.15175,7.14376 12.7366,7.14376l1.55095 -1.03396z"
   id="path21"
   style="fill:#fcdd09" />
  <path
   class="fil2"
   d="M529.284 2480.78l0.516982 -94.332c-47.4202,0 -96.8823,0 -144.819,0 3.58425,0 94.849,73.409 141.778,97.3646 1.00799,0 1.00799,0 1.52497,0 0.999335,-0.999335 0.999335,-1.51632 0.999335,-3.03263z"
   id="path23"
   style="fill:#da121a" />
  <path
   class="fil2"
   d="M1720.49 2457.82c32.1073,-18.8798 63.2326,-42.3196 90.7477,-67.8175 0,-0.516982 1.55095,-3.07592 10.728,-7.14376l-108.62 0 -2.0333 74.9612 9.17706 0z"
   id="path25"
   style="fill:#da121a" />
  <polygon
   class="fil2"
   points="358.474,2361.46 529.801,2361.46 529.801,2282.42 272.802,2282.42 "
   id="polygon27"
   style="fill:#da121a" />
  <path
   class="fil2"
   d="M1841.84 2361.46c39.2424,-27.0228 57.1229,-46.9032 82.079,-79.0365l-212.612 0 0 79.0365 130.533 0z"
   id="path29"
   style="fill:#da121a" />
  <path
   class="fil3"
   d="M1159.56 2316.07c19.8803,0.516982 41.3104,-8.14309 54.5639,-24.4738 1.51632,-4.07526 3.55951,-6.62554 3.55951,-10.211 -23.4386,22.4306 -60.6824,27.5411 -91.2647,15.2869 -58.1234,-25.4719 -99.9508,-76.4862 -126.974,-130.016 -7.14376,-17.3288 -12.7366,-32.6157 -19.3633,-48.9451 -0.516982,-1.03396 -1.03396,-2.0333 -3.5929,-3.06726 -2.03454,0 -4.06784,2.0333 -4.58482,3.58425 13.2795,62.1987 47.4202,114.212 94.8403,158.082 25.5065,20.3627 58.1581,39.7607 92.8157,39.7607z"
   id="path31"
   style="fill:#fcdd09" />
  <path
   class="fil2"
   d="M263.625 2255.4l123.389 0 -0.482352 -101.993 -205.021 0c24.9908,43.3523 68.3431,101.993 82.1136,101.993z"
   id="path33"
   style="fill:#da121a" />
  <polygon
   class="fil2"
   points="411.487,2257.43 529.801,2257.43 529.801,2153.41 411.487,2153.41 "
   id="polygon35"
   style="fill:#da121a" />
  <polygon
   class="fil2"
   points="1711.31,2259.46 1808.19,2259.46 1808.19,2153.41 1711.31,2153.41 "
   id="polygon37"
   style="fill:#da121a" />
  <path
   class="fil2"
   d="M1938.21 2259.46c37.2438,-35.6829 64.2678,-69.8594 90.7737,-106.059l-197.842 0 0 106.059 107.069 0z"
   id="path39"
   style="fill:#da121a" />
  <path
   class="fil2"
   d="M251.371 2128.42l0 -100.442 -134.091 0.49101c13.2536,40.311 27.0241,66.2999 52.0136,99.9508 17.3288,0 71.8927,0 82.0778,0z"
   id="path41"
   style="fill:#da121a" />
  <polygon
   class="fil2"
   points="272.802,2128.42 529.801,2128.42 529.801,2027.97 272.802,2027.97 "
   id="polygon43"
   style="fill:#da121a" />
  <polygon
   class="fil2"
   points="1947.39,2128.42 1947.39,2027.97 1710.79,2027.46 1711.31,2128.42 "
   id="polygon45"
   style="fill:#da121a" />
  <path
   class="fil2"
   d="M2041.72 2128.42c28.5738,-37.7261 42.8353,-60.6737 58.6392,-99.9508l-127.982 -0.49101 -0.516982 100.442 69.8594 0z"
   id="path47"
   style="fill:#da121a" />
  <path
   class="fil2"
   d="M122.872 2002.98l-0.482352 -71.9187 -45.9038 0c7.14376,27.5411 27.0228,74.4789 32.1333,73.9619l14.2529 -2.04319z"
   id="path49"
   style="fill:#da121a" />
  <polygon
   class="fil2"
   points="147.38,2002.47 386.532,2002.47 386.532,1931.09 147.38,1931.09 "
   id="polygon51"
   style="fill:#da121a" />
  <polygon
   class="fil2"
   points="411.487,2002.47 529.801,2002.47 529.801,1931.09 411.487,1931.09 "
   id="polygon53"
   style="fill:#da121a" />
  <polygon
   class="fil2"
   points="1807.68,2002.98 1808.19,1931.06 1711.31,1931.58 1711.31,2002.47 "
   id="polygon55"
   style="fill:#da121a" />
  <polygon
   class="fil2"
   points="1831.14,2002.47 2075.92,2002.47 2075.92,1931.09 1831.14,1931.09 "
   id="polygon57"
   style="fill:#da121a" />
  <path
   class="fil2"
   d="M2113.13 2005.03c21.4053,-44.9045 21.4053,-41.3116 32.0987,-74.9699l-46.3862 0c-1.51632,-2.0333 -7.14376,73.4189 3.55827,74.9699l10.7292 0z"
   id="path59"
   style="fill:#da121a" />
  <path
   class="fil3"
   d="M1012.18 1934.13c5.11046,0 9.69404,-3.0685 12.7712,-7.14376 2.55028,-5.59281 0.482352,-9.6693 0,-13.2536 -4.07649,-5.59281 -13.7705,-5.59281 -19.372,-3.06726 -4.10123,3.58425 -7.14376,10.211 -4.61821,15.8372 2.55894,4.55885 7.14376,8.14433 11.219,7.62735z"
   id="path61"
   style="fill:#fcdd09" />
  <polygon
   class="fil2"
   points="529.801,1905.58 529.801,1887.75 62.1987,1887.75 69.3424,1905.58 "
   id="polygon63"
   style="fill:#da121a" />
  <path
   class="fil2"
   d="M1075.93 1910.67c6.62678,-13.2622 20.9143,-23.4398 19.3893,-39.7693 -3.0685,-6.10856 -9.17706,-10.185 -16.8378,-11.2104 -8.14309,0 -15.2869,5.1018 -22.9476,3.54962 -9.18572,-2.0333 -5.08449,-12.7353 -12.2282,-16.8118 -3.58425,-3.06726 -8.66008,-2.0333 -12.2443,1.52497 -9.70393,6.13577 -15.2955,19.398 -26.5158,18.364 -9.17706,-4.59348 -17.3548,-15.8125 -28.0568,-10.1863 -6.62678,8.14433 -6.10979,21.9136 -7.62611,32.6169 24.9895,1.51632 54.5639,-16.8118 78.5195,6.62678 10.702,4.59224 17.3288,15.2955 27.5398,16.3295l1.00799 -1.03396z"
   id="path65"
   style="fill:#da121a" />
  <path
   class="fil2"
   d="M2148.82 1904.56c7.14376,-2.04319 11.2116,-11.7372 12.2456,-17.847l-449.756 0 0 17.847 437.511 0z"
   id="path67"
   style="fill:#da121a" />
  <path
   class="fil2"
   d="M891.343 1899.47c12.7353,-16.8378 26.5059,-39.2771 46.3862,-57.1142 -11.2116,-9.7027 -31.0907,-32.1333 -45.8692,-42.8366 -17.33,15.8038 -32.6503,36.7268 -49.4634,64.2332l48.9464 35.7176z"
   id="path69"
   style="fill:#da121a" />
  <path
   class="fil2"
   d="M739.896 1885.19c14.7699,-31.0993 22.4306,-48.9365 35.6842,-68.8514l43.3523 31.6163c16.3208,-20.8871 35.2018,-46.9118 54.5639,-68.3419 0.516982,-1.51632 -2.55028,6.14319 1.03396,0l-38.2678 -35.6842c5.10056,-13.2536 83.6287,-73.4177 120.347,-86.6712l24.9895 53.013c16.8378,-10.6946 51.4967,-21.3966 76.4862,-25.9901l-13.2536 -53.5633c33.1339,-10.1863 101.476,-10.6946 143.27,-5.59281l-8.66008 56.0889c26.0235,3.58425 58.1482,11.219 84.6639,25.5065l22.9476 -52.0124c42.8353,14.2529 99.4066,52.0124 126.948,80.5528l-38.2431 42.8366c21.9483,18.8798 36.2098,38.2419 55.0896,65.2659l47.4202 -28.5404c14.7699,20.3973 24.4726,41.8286 32.6157,58.6404 33.6855,-36.7268 79.0377,-65.2758 145.338,-78.0112 22.9562,-3.58548 28.5491,-3.58548 55.0896,0l0 68.3085 456.874 0c21.9483,-63.7509 39.2771,-143.27 39.2771,-197.325l-108.62 0 0 111.178 -160.633 0 0 -111.178 -110.653 0 0 111.178 -148.379 0 0 -111.178 -80.0704 0 0 54.0556 -69.8594 0 0 -293.208 -83.63 0 0 80.0457 -79.5275 0 0 -141.753 -46.4208 0 0 61.7077 -83.6213 0 0 -177.47 -75.4522 0 0 -75.9692 -85.1549 0 0 75.9692 -78.0371 0 0 177.47 -78.5195 0 0 -61.7077 -44.8699 0 0 141.753 -85.1797 0 0 -80.0457 -88.7058 0 0 293.208 -75.9692 0 0 -54.0556 -72.9267 0 0 111.178 -174.921 0 0 -111.178 -103.509 0 0 111.178 -162.666 0 0 -111.178 -89.2215 0c-2.03454,54.0556 -3.58548,99.4424 32.1073,196.325l476.779 0 0 -56.6059c69.3424,-1.51632 145.338,22.9562 196.325,67.3091 9.17829,9.17706 11.7286,11.7273 13.7705,11.7273z"
   id="path71"
   style="fill:#da121a" />
  <path
   class="fil2"
   d="M1404.33 1856.65c-11.7286,-19.398 -34.1678,-46.4208 -47.4202,-60.7083l-45.3869 42.8267c17.8458,18.881 33.6496,35.7274 43.3523,52.0136l49.4547 -34.132z"
   id="path73"
   style="fill:#da121a" />
  <path
   class="fil2"
   d="M1000.96 1800.52l-54.5379 -104.026c-25.4991,11.7372 -60.1914,37.7607 -72.9279,49.9791l79.5547 84.1469c13.261,-12.2183 33.6583,-24.9895 47.9112,-30.1z"
   id="path75"
   style="fill:#da121a" />
  <path
   class="fil2"
   d="M1377.31 1744.96c-15.3215,-16.3295 -51.4967,-41.836 -83.113,-55.6065l-44.3776 106.586c18.8711,10.728 37.7261,23.9816 51.0044,33.1673l76.4862 -84.1469z"
   id="path77"
   style="fill:#da121a" />
  <path
   class="fil2"
   d="M1080.52 1773.5l-16.8032 -64.232c-14.2962,2.55028 -52.0136,12.2183 -70.8934,22.9562l25.9889 57.6052c13.2882,-3.55951 43.8705,-14.2875 61.7077,-16.3295z"
   id="path79"
   style="fill:#da121a" />
  <path
   class="fil2"
   d="M1233.01 1789.83l20.3961 -58.1234c-10.211,-10.2197 -55.0809,-21.4387 -77.5202,-23.472 -3.55827,20.9131 -7.14376,41.8273 -10.702,62.7157 22.9216,4.59224 45.3869,9.69404 67.8261,18.8798z"
   id="path81"
   style="fill:#da121a" />
  <path
   class="fil4"
   d="M251.371 1752.62l-0.482352 -1210.06c-10.702,-27.0241 -40.311,-103.019 -47.9371,-129.525l59.1574 0 192.24 -277.396c-5.61755,-13.7705 -16.8378,-31.6163 -10.211,-47.4288 6.10979,-13.2536 18.3628,-25.4979 32.6503,-27.5398 16.8131,-2.03454 32.6169,5.10922 41.794,18.3628l-0.999335 49.4621 193.765 284.539 60.6824 0 -35.2092 118.831 0.516982 872.462 79.5621 0 0 78.5207 29.0574 0 0 -141.236 99.4338 0 0 62.7157 25.5065 0 0 -181.029 77.0032 0 0 -77.4855 140.201 0 0 77.4855 76.0038 0 0 181.029 27.5398 0 0 -62.7157 100.959 0 0 141.236 27.5411 0 0 -78.5207 73.409 -0.516982 0 -879.089 -50.4614 -111.687 71.3757 0 185.623 -287.098c-3.0685,-14.7699 -26.5417,-27.0228 1.51632,-54.5379 9.7027,-12.2456 24.4726,-14.2875 35.1746,-12.2456 14.8045,3.55951 44.3875,35.1672 21.4313,64.2332l207.536 289.649 45.3869 0 -49.4547 118.831 -2.04196 1220.75 114.212 0 0 -111.17 133.609 0c0,0 0,-57.1229 0.516982,-58.6404l0 -1560.38 -2185.54 0c-4.59348,0 1.51632,1131.53 1.51632,1277.87 0,113.721 -0.999335,227.415 -1.51632,341.145l112.686 0 0 111.17 116.246 0z"
   id="path83"
   style="fill:#ffffff" />
  <path
   class="fil2"
   d="M1148.34 1768.42l14.8045 -116.28c-22.9562,-3.54962 -67.8261,-3.03263 -88.2234,4.07649l23.9556 112.204c16.3295,-1.03396 33.1339,0 49.4634,0z"
   id="path85"
   style="fill:#da121a" />
  <polygon
   class="fil2"
   points="526.242,1752.62 526.242,1641.45 649.123,1641.45 649.123,1699.06 676.146,1699.06 676.146,1404.33 711.865,1404.33 711.865,531.869 272.285,531.869 272.802,1641.45 400.785,1641.45 400.785,1752.62 "
   id="polygon87"
   style="fill:#da121a" />
  <polygon
   class="fil2"
   points="1800.53,1752.62 1800.53,1641.45 1938.21,1641.45 1938.21,531.869 1518.54,531.869 1518.54,1404.33 1550.16,1404.33 1550.16,1699.06 1575.67,1699.06 1576.18,1640.93 1704.17,1641.45 1704.17,1752.62 "
   id="polygon89"
   style="fill:#da121a" />
  <path
   class="fil0"
   d="M627.718 1297.24l0 -151.421c0,0 0,-52.5306 -51.0056,-52.5306 -50.4701,0 -46.3948,34.1332 -50.4701,52.5306l0 151.421 101.476 0z"
   id="path91"
   style="fill:#000000" />
  <path
   class="fil0"
   d="M451.281 1297.24l0 -151.421c-0.516982,1.51632 0,-52.5306 -50.4961,-52.5306 -51.4967,0 -52.496,53.013 -51.4967,52.5306l0 151.421 101.993 0z"
   id="path93"
   style="fill:#000000" />
  <path
   class="fil0"
   d="M1686.32 1297.24l0 -151.421c0,0 0,-52.5306 -50.4973,-53.5646 -49.4535,1.03396 -49.4535,53.5646 -49.4535,53.5646l0 151.421 99.9508 0z"
   id="path95"
   style="fill:#000000" />
  <path
   class="fil0"
   d="M1868.87 1297.24l0 -151.421c0,0 0,-52.5306 -49.9704,-52.5306 -51.0143,0 -51.0143,52.5306 -51.0143,52.5306l0 151.421 100.985 0z"
   id="path97"
   style="fill:#000000" />
  <path
   class="fil0"
   d="M1299.27 862.277c35.2018,3.06726 69.8594,-11.2203 92.8157,-40.7946 31.6077,-32.1333 39.2684,-78.0025 23.9816,-117.797 -21.4313,-56.6059 -75.9952,-89.7385 -126.982,-116.254 -59.1574,-26.5059 -115.755,-53.5559 -158.591,-99.4326 -10.185,-9.69528 -18.8798,-18.881 -30.5824,-30.6083l71.377 -99.9248c0.516982,0 4.07526,3.55827 5.10922,3.04129 64.7502,33.6509 133.092,88.2148 150.93,100.985 30.0654,22.9216 59.1302,48.4281 83.6287,74.9353 7.636,8.17772 12.7366,14.2875 21.9223,16.3208 1.51755,0 2.03454,-0.999335 3.58548,-2.0333 -12.7712,-61.7077 -52.5306,-116.246 -88.2494,-164.71 -40.7674,-50.4874 -80.5615,-78.5195 -133.057,-110.653 -23.9816,-16.3208 -64.7836,-30.5824 -88.7392,-14.2529 -14.2875,12.2196 -15.8038,29.5484 -12.2456,44.8699 1.51755,7.62611 11.2116,13.7359 13.2536,20.8797l-56.6059 77.0032c-35.1758,-46.3862 -64.2332,-108.62 -117.254,-140.744 -34.6848,-16.8131 -72.4109,-31.5916 -107.095,-15.2955 -32.6503,16.8465 -60.1914,42.8353 -67.3005,80.0704 -3.5929,20.3973 2.0333,38.7601 4.06784,57.0882 14.2875,63.7509 54.5726,114.764 97.3993,160.116 15.2955,19.3967 33.1425,36.7268 47.9124,54.5726l-105.027 149.413c-16.8465,26.0149 -61.7163,72.4097 -29.583,91.2907 34.1678,22.9476 47.4202,-29.583 70.8934,-53.0476l107.586 -149.413c42.8279,37.7521 94.8403,82.6207 142.786,115.238 50.9797,37.2425 93.2906,82.1124 155.006,103.027 10.7033,2.0333 18.8723,4.59224 29.0574,6.10979z"
   id="path99"
   style="fill:#000000" />
  <path
   class="fil0"
   d="M451.281 841.363l0 -156.531c0,0 0,-49.4547 -50.4961,-49.4547 -51.4967,0 -51.4967,49.4547 -51.4967,49.4547l0 156.531 101.993 0z"
   id="path101"
   style="fill:#000000" />
  <path
   class="fil0"
   d="M627.718 841.363l0 -156.531c0,0 0,-49.4547 -51.0056,-49.4547 -50.4701,0 -50.4701,49.4547 -50.4701,49.4547l0 156.531 101.476 0z"
   id="path103"
   style="fill:#000000" />
  <path
   class="fil3"
   d="M1305.42 840.364c25.4719,1.51632 50.9784,-9.18572 66.7835,-29.583 29.0648,-26.5405 36.7255,-63.7496 24.4726,-98.3998 -25.9901,-60.1901 -84.1469,-87.7398 -140.227,-115.763 -59.1574,-26.0235 -105.552,-59.1562 -150.422,-104.026 -6.10979,-6.62678 -14.2875,-16.3295 -17.8458,-19.8791l-104.026 145.819c47.4288,40.2863 96.3653,79.5634 144.311,117.288 52.0136,34.6848 95.8743,82.596 158.591,99.4338 6.62554,3.0685 12.7353,4.59348 18.3628,5.11046z"
   id="path105"
   style="fill:#fcdd09" />
  <path
   class="fil0"
   d="M1586.37 841.363l99.9508 0 0 -156.531c0,0 0,-49.4547 -51.0143,-49.4547 -48.9365,0 -48.9365,49.4547 -48.9365,49.4547l0 156.531z"
   id="path107"
   style="fill:#000000" />
  <path
   class="fil0"
   d="M1767.88 841.363l100.985 0 0 -156.531c0,0 0,-49.4547 -49.9704,-49.4547 -51.0143,0 -51.0143,49.4547 -51.0143,49.4547l0 156.531z"
   id="path109"
   style="fill:#000000" />
  <path
   class="fil3"
   d="M818.932 827.592l342.662 -474.72c-1.51632,-2.0333 -27.0228,-16.8378 -24.9895,-21.4313l-339.076 477.823c-3.58548,7.62611 -2.55152,13.7705 3.55827,19.3621 7.14376,4.59348 10.702,3.55951 17.8458,-1.03396z"
   id="path111"
   style="fill:#fcdd09" />
  <path
   class="fil3"
   d="M946.424 577.221l110.144 -154.489c-31.6163,-52.0136 -68.3431,-112.686 -122.39,-142.269 -25.5065,-10.7033 -52.5306,-23.4646 -78.0112,-9.17706 -29.5744,13.2523 -52.0136,38.7601 -55.0809,69.8508 0.516982,67.8249 39.7594,124.432 82.1136,171.335 18.8451,22.9476 41.2757,48.9451 59.6385,66.7909l3.58548 -2.04196z"
   id="path113"
   style="fill:#fcdd09" />
  <polygon
   class="fil2"
   points="264.659,516.547 719.5,516.547 748.556,425.282 687.365,425.282 663.927,471.677 628.235,471.677 603.246,426.292 547.129,426.292 517.064,471.677 459.941,471.677 429.359,426.292 370.72,426.292 343.179,471.677 311.562,471.677 286.056,426.292 227.932,426.292 "
   id="polygon115"
   style="fill:#da121a" />
  <path
   class="fil2"
   d="M1519.06 510.437l424.258 0 39.2424 -84.1457 -46.3862 0 -25.5065 45.3856 -31.0993 0 -31.6163 -45.3856 -57.6064 0 -27.0228 45.3856 -52.5306 0 -29.583 -45.3856 -57.6052 0 -24.9895 45.3856 -37.7521 0 -27.5151 -45.3856 -58.6392 0 40.7934 84.1457c1.00799,1.51755 2.00733,0 3.55827,0z"
   id="path117"
   style="fill:#da121a" />
  <path
   class="fil5"
   d="M681.257 413.038l-22.4393 46.4208 -24.9895 -0.516982 -25.9901 -45.9038 -65.3006 0 -32.0987 46.4208 -45.3869 0 -29.583 -46.4208 -68.3344 0 -28.5478 46.4208 -22.4306 0 -24.9908 -46.4208 -16.8378 0 190.724 -274.844 45.3869 -4.07649c0.516982,0 -1.55095,0 -0.516982,0.49101l188.173 278.43 -16.8378 0z"
   id="path119"
   style="fill:#0f47af" />
  <path
   class="fil5"
   d="M1568.01 460.458l23.4646 0 27.5398 -47.4202 67.8261 0 30.0654 47.4202 39.2771 0 29.5744 -47.4202 65.7829 0 32.1073 47.4202 21.4313 0 27.5411 -47.4202 22.438 0 -202.46 -281.988c-17.3288,0 -29.5818,7.66074 -46.3948,0l-179.995 281.988 12.7366 0c1.52497,0.516982 27.0228,47.4202 29.066,47.4202z"
   id="path121"
   style="fill:#0f47af" />
  <path
   class="fil0"
   d="M482.898 56.0802c24.7137,0 44.8699,20.1561 44.8699,44.8699 0,24.7224 -20.1561,44.8699 -44.8699,44.8699 -24.7137,0 -44.8699,-20.1475 -44.8699,-44.8699 0,-24.7137 20.1561,-44.8699 44.8699,-44.8699z"
   id="path123" />
  <path
   class="fil3"
   d="M483.897 67.2992c18.5446,0 33.6855,15.1409 33.6855,33.6509 0,18.5433 -15.1409,33.6583 -33.6855,33.6583 -18.5087,0 -33.6496,-15.1149 -33.6496,-33.6583 0,-18.51 15.1409,-33.6509 33.6496,-33.6509z"
   id="path125"
   style="fill:#fcdd09" />
  <path
   class="fil0"
   d="M1727.63 54.0469c24.1374,0 43.8359,19.6985 43.8359,43.8693 0,24.1374 -19.6985,43.8359 -43.8359,43.8359 -24.1621,0 -43.8606,-19.6985 -43.8606,-43.8359 0,-24.1708 19.6985,-43.8693 43.8606,-43.8693z"
   id="path127" />
  <path
   class="fil3"
   d="M1728.12 63.741c18.8117,0 34.1678,15.3561 34.1678,34.1753 0,18.8117 -15.3561,34.1332 -34.1678,34.1332 -18.8192,0 -34.1753,-15.3215 -34.1753,-34.1332 0,-18.8192 15.3561,-34.1753 34.1753,-34.1753z"
   id="path129"
   style="fill:#fcdd09" />
  <path
   class="fil5"
   d="M1133.05 317.189c-16.3208,-13.2869 -11.2116,-28.0655 -12.7366,-29.5818 7.63477,-27.0241 25.9975,-29.583 49.9457,-23.9816 21.947,7.66074 21.947,7.66074 43.8693,19.3881 38.2431,24.9895 59.6744,41.2856 103.51,80.5627 11.219,14.7686 15.8125,16.3208 24.9895,28.0568 5.59157,7.63477 11.736,15.8125 20.3961,25.4719 11.7372,20.9143 26.5071,42.3542 39.2771,62.7503 -3.06726,-6.14319 16.8131,31.6163 14.7699,30.5824 0,9.17829 12.7452,30.0913 12.7452,35.1672 -9.18572,-5.59281 -24.9636,-25.4719 -33.6583,-34.6502 -9.17829,-9.18572 -15.2869,-15.3202 -19.3633,-18.8798 -45.9038,-40.7934 -95.8743,-77.5202 -147.38,-110.653 -22.4306,-14.2875 -24.9809,-15.2955 -52.0136,-29.583 -12.2183,-7.62611 -31.0907,-19.3621 -44.3517,-34.6502z"
   id="path131"
   style="fill:#0f47af" />
 </g>
</svg>
