<svg xmlns="http://www.w3.org/2000/svg" width="449.787" height="487.366" viewBox="0 0 337.34 365.524"><path d="M0 .25C1.87.03 3.76.01 5.64 0c110.56.13 221.13-.12 331.7.13-.37 11.9-.92 23.79-1.47 35.67-2.67 56.78-5.18 113.55-7.88 170.32-1.36 29.05-10.03 57.67-24.98 82.61-5.76 8.77-11.86 17.34-18.86 25.17-25.38 28.29-61.42 46.95-99.3 50.69-3.66-.07-7.064-.04-10.724-.17-.39.4.514.593.134.993-5.29.3-12.47-.063-17.73-.443-23.22-1.57-46.05-8.67-66.11-20.44-14.66-8.04-27.16-19.41-38.56-31.51-19.36-21.62-32.81-48.33-39.15-76.62-4.22-19.39-4.6-39.32-5.12-59.08-1.21-18.27-1.52-36.59-2.56-54.87C3.53 81.71 1.44 40.98 0 .25z" style="fill:#1b1c20"/><path d="M6.02 5.49c108.31.16 216.63.06 324.94.05-1.47 27-2.67 54.02-3.91 81.04-19.63-21.69-38.74-43.85-58.35-65.56-16.42 20.98-33.14 41.71-49.51 62.72-17.45-21.07-34.72-42.3-52-63.5-16.37 20.75-32.58 41.63-48.75 62.54-16.63-20.49-32.86-41.31-49.49-61.8-19.6 22.99-39.19 46-59.01 68.8-1.26-28.1-2.66-56.19-3.92-84.29z" style="fill:#e44018"/><path d="M10.19 95.07c19.62-23.21 39.47-46.23 59.32-69.24 16.17 21.13 32.91 41.84 49.19 62.9 16.24-21.05 32.1-42.41 48.58-63.28 16.99 21.37 34.53 42.3 51.36 63.8 16.66-21.38 33.62-42.54 50.29-63.91 18.88 21 37.48 42.24 56.3 63.3-.91 17.25.48 34.54-.85 51.77-.98 21.33-1.98 42.66-3.08 63.98-.36 14.72-2.72 29.42-7.26 43.44-10.4-7.66-21.82-13.82-33.47-19.34-.18-15.11-.62-30.23-.74-45.35 1.52.13 3.03.28 4.56.42.04-2.49 0-4.98.04-7.48 1.37 2.24 2.58 4.58 3.86 6.87 2.86-.57 5.72-1.07 8.6-1.54-.12-1.67-.27-3.33-.38-5 1.39 1.8 2.53 3.77 3.67 5.74 2.98-.75 5.97-1.43 8.93-2.25-.84-2.32-1.72-4.62-2.38-6.99 1.29.92 2.48 1.97 3.68 3.01 2.65-1.52 5.33-3 7.96-4.57-1.89-3.75-3.58-7.59-5.39-11.37 1.66-1.19 3.34-2.35 4.98-3.56a390.18 390.18 0 0 0-5.77-8.39c-5.92 4.77-12.77 9.28-20.63 9.46-4.05.02-7.4-2.41-10.16-5.11l1.93-1.57c-.03-1.84-.03-3.68.09-5.51 1.36 2.76 2.19 5.73 2.94 8.71 3.51-.4 7.07-.73 10.5-1.65.15-2.2-.5-4.34-.76-6.5 1.35 1.49 2.6 3.07 3.85 4.65 3.03-1.33 6.07-2.64 9.08-4-.97-1.89-1.95-3.77-2.87-5.68 1.87.43 3.74.9 5.6 1.38 1.88-2.57 3.67-5.2 5.29-7.93-2.08-1.41-4.19-2.77-6.32-4.09.57-1.18 1.24-2.31 1.67-3.55-1.65-3.11-3.66-6.02-5.45-9.04-3.03 4.25-7.79 7.87-13.29 7.24-3.12.22-5.89-1.7-7.15-4.47-1.05-1.25.25-2.26 1.08-3.15.43.81 1.28 2.44 1.7 3.25 2.88-1.17 5.73-2.39 8.57-3.65-.32-1.97-.61-3.93-.86-5.91l3.2 2.6c2.3-1.71 4.63-3.41 6.97-5.09-1.44-2.31-2.87-4.61-4.19-6.98 2.21-1.86 4.4-3.76 6.44-5.81-2.29-2.76-4.49-5.59-6.7-8.4-3.21 3.32-6.42 7.12-11.03 8.45-2.29.7-4.83.2-6.52-1.53 2.09-1.16 4.22-2.25 6.3-3.44-1.47-2.05-2.98-4.07-4.2-6.28 2.28.95 4.49 2.06 6.73 3.11 1.63-1.46 3.26-2.91 4.9-4.36-1.54-1.94-3.14-3.83-4.67-5.77 1.34-1.2 2.71-2.38 4.08-3.56-2.25-2.39-4.42-4.86-6.6-7.31-3.59 1.7-7.65 3.12-11.65 2.23-4.95-3.04-6.63-9.06-8.86-14.07-1.21-.05-2.43-.09-3.63-.13-2.73 4.29-4.27 9.36-7.71 13.16-4.05 2.78-9.09.21-13.18-1.19-2.15 2.48-4.27 4.99-6.34 7.54 1.33 1.09 2.66 2.19 3.98 3.3-1.63 1.95-3.35 3.82-5.06 5.7 1.74 1.56 3.52 3.07 5.32 4.56 2.32-1.43 4.65-2.85 7.16-3.94-1.45 2.46-3.22 4.7-5.04 6.88 2.11 1.02 4.19 2.11 6.2 3.33-1.13 1.19-2.48 2.31-4.24 2.04-5.63-.24-9.4-4.95-13.11-8.57-2.36 2.72-4.68 5.47-7.08 8.15 2.09 2.01 4.23 3.96 6.33 5.96-1.31 2.4-2.76 4.72-4.3 6.98 2.31 1.65 4.63 3.3 6.93 4.97 1.07-1.07 2.16-2.13 3.26-3.17-.32 2.1-.69 4.19-1.03 6.28 2.84 1.26 5.71 2.43 8.54 3.73.33-.72 1.01-2.16 1.34-2.88.63.43 1.89 1.27 2.52 1.69-1.93 2.87-4.49 6.07-8.31 6-5.54.57-10.13-3.34-13.19-7.52-2.12 2.97-4.34 5.87-6.49 8.82.83 1.09 1.66 2.19 2.48 3.29-2.03 1.74-4.29 3.18-6.58 4.55 1.64 2.76 3.24 5.55 4.97 8.27 1.98-.66 3.96-1.33 5.97-1.92-.95 2.06-2.01 4.08-3.1 6.08 3.07 1.21 6.16 2.37 9.18 3.71 1.39-1.74 2.72-3.54 4.13-5.27-.39 2.36-.92 4.71-1.41 7.05 3.54.6 7.11 1.1 10.68 1.6.88-2.8 1.76-5.61 2.71-8.39.45 2.54-.42 5.85 2.49 7.13-4.04 3.88-10 5.97-15.49 4.26-5.67-2.28-11.01-5.3-16.12-8.64-1.83 2.72-3.6 5.47-5.28 8.28a88.17 88.17 0 0 0-6.68-8.95c-4.8 4.34-10.64 7.51-16.88 9.21-4.87 1.37-9.93-.97-13.43-4.3 2.4-1.69 1.62-4.7 1.91-7.21 1.24 2.73 2.14 5.59 2.96 8.47 3.59-.44 7.2-.82 10.73-1.62-.48-2.26-.96-4.52-1.28-6.8 1.37 1.58 2.65 3.24 3.91 4.93 3.09-1.37 6.19-2.7 9.3-4.04-.99-1.97-2.11-3.88-3.12-5.84 2.03.48 4.06 1 6.08 1.59 1.66-2.62 3.08-5.38 4.53-8.11-2.13-1.47-4.24-2.98-6.38-4.43.74-1 1.49-1.98 2.24-2.97-1.99-3.15-4-6.29-5.94-9.48-2.75 4.07-6.9 7.56-12.03 7.77-3.97.53-7.4-2.34-9.24-5.59.68-2.48 3.16-1.07 3.76.69 2.77-1.03 5.63-1.91 8.2-3.4-.12-1.97-.51-3.92-.78-5.87 1.12.83 2.24 1.67 3.35 2.51 2.25-1.78 4.53-3.53 6.71-5.41-1.46-2.2-2.89-4.42-4.08-6.79 2.19-1.87 4.37-3.75 6.53-5.65-2.31-2.85-4.7-5.63-7.08-8.41-3.9 4.17-8.33 8.97-14.49 9.05-1-.6-1.97-1.26-2.9-1.97 1.92-1.19 3.95-2.21 5.85-3.43-1.17-2.28-2.77-4.3-4.09-6.49 2.27.94 4.5 2.01 6.68 3.15 1.67-1.48 3.34-2.97 4.99-4.47-1.53-1.94-3.09-3.86-4.57-5.84 1.29-1.11 2.58-2.21 3.89-3.31-2.08-2.5-4.23-4.92-6.48-7.26-4.28 1.4-9.86 4.59-13.77.87-3.21-3.69-5.45-8.11-7.81-12.37-.63.01-1.88.03-2.51.03-1.85 4.71-3.87 9.7-7.81 13.06-3.99 3.19-9.14.38-13.16-1.24-2.11 2.6-4.25 5.16-6.38 7.74 1.44 1.05 2.88 2.11 4.31 3.17-1.57 1.96-3.16 3.9-4.77 5.83 1.71 1.51 3.38 3.05 5.18 4.46 2.29-1.56 4.69-2.98 7.26-4.03-1.51 2.41-3.29 4.64-5.04 6.89 2.17 1.21 4.32 2.45 6.38 3.85-1.61.71-3.22 1.8-5.07 1.47-5.41-.54-9.13-4.92-12.79-8.44-2.23 2.84-4.6 5.56-6.98 8.27 2.13 2.07 4.46 3.93 6.74 5.83a83.064 83.064 0 0 1-4.48 7.1c2.32 1.7 4.71 3.3 7.11 4.86 1.18-1.08 2.37-2.16 3.6-3.19-.41 2.12-.91 4.23-1.43 6.34 2.9 1.26 5.83 2.47 8.71 3.77.33-.67.99-2 1.32-2.66.58.36 1.75 1.09 2.34 1.45-1.88 2.41-3.66 5.82-7.14 5.88-5.8.7-11.01-2.83-14.24-7.37-2.47 2.5-4.98 4.98-7.52 7.42 1.24 1.83 2.45 3.68 3.63 5.54-2.17 1.27-4.38 2.47-6.59 3.67 1.92 2.84 3.81 5.71 5.62 8.63 1.83-.77 3.67-1.51 5.53-2.2-1 2.16-2.09 4.29-3.1 6.45 3.22 1.14 6.43 2.33 9.62 3.56 1.15-1.85 2.27-3.72 3.61-5.43-.24 2.37-.69 4.7-1.11 7.04 3.57.58 7.16 1.04 10.74 1.56.78-2.94 1.76-5.83 2.95-8.64.38 2.42-.46 5.35 1.79 7.09-4.5 5.85-12.83 5.78-19.07 3.09-4.45-2.08-8.9-4.2-13.15-6.67-1.74 2.48-3.45 4.99-5.17 7.49-1.77-2.45-3.52-4.92-5.34-7.32-6.5 4.02-13.16 9.29-21.23 8.93-4.07 0-7.67-2.29-10.32-5.22 2.62-1.2 1.76-4.31 2.23-6.6 1.04 2.67 1.82 5.44 2.57 8.21 3.74-.31 7.48-.57 11.22-.97-.39-2.36-.91-4.7-1.28-7.06 1.37 1.5 2.61 3.12 3.8 4.77 3.22-1.22 6.42-2.48 9.52-3.99-.96-1.89-1.95-3.76-2.88-5.65 1.84.56 3.67 1.14 5.49 1.75 2.15-2.69 4.17-5.48 5.95-8.42-2.2-1.22-4.42-2.39-6.62-3.62.59-1.2 1.27-2.36 1.79-3.59-1.82-3.24-3.92-6.32-5.64-9.62-2.08 2.43-4.01 5.19-7 6.6-4.89 2.96-12.35.7-14.17-4.9l1.22-1.56c.52.72 1.54 2.16 2.06 2.88 2.89-1.14 5.81-2.22 8.7-3.39-.2-1.93-.43-3.86-.6-5.79 1.03.86 2.04 1.75 3.05 2.64 2.37-1.76 4.73-3.54 7.12-5.27-1.39-2.41-2.86-4.78-4.17-7.23 2.19-1.78 4.39-3.55 6.52-5.4-2.17-2.93-4.38-5.84-6.6-8.73-3.41 3.47-6.93 7.51-11.9 8.59-2.09.75-4.06-.6-5.93-1.33 1.95-1.52 4.08-2.77 6.22-4-1.37-2.06-2.83-4.05-4.15-6.15 2.31.95 4.58 2.02 6.77 3.23 1.72-1.48 3.42-2.99 5.09-4.52-1.42-1.96-3.35-3.65-4.14-5.98 1.15-1.18 2.48-2.15 3.78-3.15-2.26-2.47-4.4-5.03-6.56-7.58-3.94 1.66-8.43 3.32-12.71 1.92-3.54-3.32-5.55-7.89-7.43-12.28-.47-1.78-2.7-1.13-4.03-1.53-2.8 4.67-4.61 10.29-9.18 13.61-4.17 1.01-8.36-1.07-12.32-2.23-2.11 2.53-4.21 5.05-6.2 7.67 1.28 1.05 2.53 2.14 3.77 3.24-1.62 1.95-3.23 3.92-4.81 5.91 1.6 1.36 3.19 2.73 4.77 4.13 2.44-1.14 4.84-2.38 7.28-3.54-1.49 2.39-3.21 4.62-4.91 6.87 2.12 1.11 4.24 2.21 6.29 3.44-1.92 1.48-4.39 2.21-6.72 1.17-4.49-1.27-7.53-5.05-10.57-8.33-2.36 2.86-4.7 5.73-7.17 8.5 2.13 1.84 4.24 3.72 6.21 5.75-1.46 2.3-2.95 4.57-4.42 6.87 2.22 1.74 4.43 3.5 6.6 5.31 1.23-1.06 2.46-2.14 3.73-3.17-.45 2.13-.94 4.25-1.46 6.36 3.03 1.28 6.06 2.58 9.11 3.83.24-.71.71-2.12.95-2.83 3.5.84.86 3.78-.66 5.19-2.67 2.59-6.93 2.24-10.22 1.26-3.66-1.04-5.88-4.31-8.13-7.11-2.13 3.13-4.5 6.09-6.56 9.27.84 1.15 1.68 2.31 2.51 3.47-2.27 1.61-4.69 2.98-7.11 4.33 1.82 2.82 3.77 5.55 5.81 8.21 1.8-.71 3.6-1.43 5.41-2.11-1.01 2.04-2.09 4.04-3.12 6.07 3.09 1.36 6.19 2.68 9.24 4.12 1.38-1.85 2.76-3.7 4.28-5.44-.6 2.37-1.19 4.75-1.77 7.13 3.56.85 7.19 1.35 10.81 1.92 1.06-2.76 2-5.58 3.22-8.28.06 1.69.09 3.39.11 5.08.53.37 1.58 1.12 2.11 1.49-3.45 3.32-8.04 5.9-12.99 5.07-7.19-1.17-13.17-5.77-18.9-9.96-1.98 3.24-3.74 6.62-6.07 9.64 1.72 1.23 3.46 2.43 5.21 3.63-1.76 3.45-3.56 6.9-5.64 10.18 2.74 1.68 5.54 3.26 8.31 4.88 1.2-1.14 2.41-2.27 3.7-3.31-.69 2.4-1.56 4.74-2.36 7.11 2.95.85 5.93 1.56 8.93 2.23 1.18-1.85 2.33-3.71 3.65-5.47-.01 1.62-.03 3.23-.07 4.85 2.8.57 5.63 1 8.46 1.44 1.2-2.12 2.34-4.28 3.66-6.32-.01 2.13-.19 4.26-.15 6.4.48 1.85 3 1.08 4.39 1.39-.74 13.8-1.36 27.61-1.94 41.42-.36 1.28.36 3.42-1.17 4.05-10.37 4.99-20.6 10.31-30.56 16.08-8.22-25.21-6.46-52.05-8.37-78.14-1.12-24.07-2.23-48.15-3.4-72.22z" style="fill:#fff"/><path d="M261.18 71c4.55-2.94 6.22-8.38 8.46-13.02 2.29 5.06 4.49 10.96 9.84 13.54 4.03 1.55 8.23-.45 12.07-1.63 1.03 1.18 2.06 2.36 3.1 3.54-1.27 1.29-2.54 2.59-3.8 3.89 1.72 2.16 3.34 4.46 4 7.19-5.15-2.19-9.76-5.42-14.77-7.88 2.36 4.57 4.98 9 6.98 13.75-1.86.79-3.71 1.59-5.56 2.38-2.27-3.93-4.1-8.13-6.89-11.74 1.16 5.41 3.44 10.49 5.05 15.76.86-.28 1.72-.57 2.59-.85 3.15 1.72 6.68 3.37 10.37 2.71 4.01-.82 6.73-4.16 10.16-6.12 1.48-.14 2.16 1.85 2.96 2.85-1.68 2.19-3.83 3.96-5.84 5.83 1.35 2.27 2.65 4.56 3.83 6.92-.89.45-1.78.89-2.67 1.34-2.66-2.92-5.47-5.71-8.49-8.25.68 4.46 1.55 8.9 2.26 13.36-1.23.57-2.46 1.13-3.68 1.7-3-4.59-5.25-9.62-8.31-14.16.89 4.48 2.05 8.91 2.79 13.42-2.02.34-4.3 1.91-6.23 1.13-3.12-5.14-4.34-11.2-7.42-16.38 1.87 6.84 3.59 13.73 4.76 20.73 1.88-.44 3.75-.89 5.63-1.34 2.88 4.1 6.79 8.37 12.27 8.17 4.96.56 9.01-2.66 12.61-5.58.99 1.41 1.98 2.82 2.97 4.24-1.11 1.41-2.22 2.82-3.32 4.23 2.28 1.45 4.6 2.82 6.95 4.15-.89 1.47-1.83 2.91-2.79 4.34-3.46-1.44-6.98-2.72-10.56-3.82 1.57 3.03 3.44 5.93 4.67 9.12-.56 1.57-2.59 1.85-3.85 2.74-3.8-5.16-7.07-10.69-11.13-15.66 1.06 6.13 2.85 12.1 4 18.21-1.87.35-3.74.71-5.6 1.06-2.46-6.71-4.2-13.69-7-20.28-.5 6.11-.36 12.24-.44 18.37-1.81.15-3.61.29-5.41.44-1.3-6.08-1.87-12.31-3.54-18.31-.22 7.39.58 14.76.83 22.14 1.9-.41 3.79-.81 5.69-1.22 2.97 3.77 6.61 7.94 11.78 8.15 8.13.13 15.4-4.2 21.91-8.62.97 1.32 1.94 2.64 2.92 3.97-1.72 1.3-3.44 2.59-5.16 3.89 1.77 3.64 3.5 7.31 5.19 10.99-1.27.87-2.54 1.73-3.8 2.59-3.46-3.3-6.63-6.91-10.29-10.01 1.49 5.21 3.82 10.16 4.91 15.49-.98.19-2.93.59-3.91.79-3.37-4.96-5.52-10.6-8.86-15.57.34 5.09.8 10.17.95 15.28-1.56.16-3.13.32-4.68.49-2.67-4.73-4.62-9.83-7.39-14.5.06 5.16.19 10.32-.01 15.48l-4.64.15c-1.95-6.06-3.27-12.31-5.49-18.27.03 6.89 1.63 13.63 2.07 20.49.48.24 1.45.72 1.93.96.11 14.38.39 28.76.77 43.14-5.59-2.48-11.26-4.75-16.98-6.9 0-12.5.07-25.01-.04-37.52.74-.07 2.22-.2 2.96-.27.84-6.98 2.4-13.86 3.12-20.86-2.85 5.58-3.98 11.79-6.06 17.65-.49 2-3.25.98-4.71 1.58-.16-5.23.05-10.45.04-15.68-1.87 3.96-5.72 7.82-4.97 12.43l-1.15-.99c-.57 1.03-1.13 2.06-1.7 3.09-1.48-.23-2.97-.47-4.45-.7.18-5.16.83-10.28 1.35-15.41-3.27 5.21-5.74 10.88-9.27 15.93-.9-.28-2.7-.83-3.6-1.11 1.08-5.41 3.34-10.45 5.14-15.63-3.4 3.37-6.79 6.75-10.18 10.13-1.39-.73-2.77-1.48-4.15-2.22 1.52-3.32 3.11-6.6 4.78-9.84-1.69-1.11-3.38-2.23-5.06-3.33 1.13-1.85 2.28-3.7 3.42-5.54 6.78 3.91 13.92 8.85 22.13 8.13 5.14-.31 8.66-4.4 11.76-8.04 1.79.35 3.6.7 5.4 1.04.37-7.19 1.36-14.34 1.35-21.54-1.65 6.02-2.56 12.21-4.19 18.24-1.59-.27-3.18-.53-4.78-.79-.26-5.97-.01-11.97-.47-17.94-3.33 6.37-4.6 13.54-7.57 20.06-1.76-.39-3.51-.78-5.26-1.17 1.09-6 2.96-11.82 4.1-17.8-4.1 4.87-7.38 10.36-11.44 15.27-1.34-.72-2.69-1.44-4.03-2.16 1.57-3.25 3.35-6.4 5.25-9.47-3.57 1.21-7.13 2.43-10.68 3.67-.9-1.3-1.81-2.6-2.71-3.89 2.35-1.51 4.72-3 7.07-4.5-1.26-1.78-2.5-3.57-3.73-5.36 1.2-1.18 2.39-2.38 3.6-3.55 3.66 3.9 8.89 6.6 14.37 5.81 4.79-.41 7.74-4.67 10.29-8.26 1.74.57 3.48 1.14 5.24 1.71 1.95-6.96 4.09-13.9 5.36-21.03-2.84 5.67-4.77 11.75-7.65 17.41-1.92-.71-3.84-1.42-5.75-2.13.68-4.17 1.66-8.28 2.35-12.44-3.03 3.98-4.69 8.83-7.86 12.71-1.29-.13-2.56-.34-3.82-.62.56-4.67 1.6-9.26 2.51-13.88-3.08 2.53-5.67 5.6-8.79 8.08-.97-.47-1.92-.97-2.85-1.5 1.49-2.12 3-4.24 4.52-6.35-2.13-2.04-4.26-4.07-6.35-6.14 1.15-1.2 2.31-2.39 3.48-3.57 3.79 2.78 7.4 6.69 12.39 6.95 3.02.27 5.53-1.66 8.02-3.02.69.14 2.07.43 2.76.57 1.52-5.06 3.75-9.9 5-15.05-2.61 3.61-4.69 7.57-6.94 11.41-1.88-.94-3.75-1.89-5.62-2.85 2.53-4.42 5.19-8.77 7.56-13.29-4.9 2.43-9.25 6-14.47 7.74l-.79-.72c1.27-2.15 3.03-3.92 4.75-5.7-1.42-1.45-2.85-2.9-4.27-4.35 1.23-1.08 2.23-2.53 3.77-3.2 4.18.63 8.69 3.12 12.76.8zM62.12 70.9c4-3.3 6.11-8.26 8.56-12.7 2.2 4.85 4.35 10.22 8.81 13.44 4.23 2.01 8.84-.2 12.99-1.37.9 1.31 1.81 2.62 2.71 3.93-1.32 1.27-2.65 2.52-3.98 3.79 1.68 2.09 3.28 4.25 4.65 6.56-5.67-1.66-10.33-5.41-15.43-8.23 2.24 4.74 5 9.23 7.11 14.04-1.72.85-3.43 1.69-5.14 2.53-3.05-4.32-5.25-9.17-8.29-13.49 2.09 5.79 4.09 11.62 5.9 17.51 3.84-1.5 6.84 2.24 10.58 2.22 5.2.46 9.18-3.47 12.9-6.5 1 1.07 2.01 2.14 3.01 3.22a66.78 66.78 0 0 1-6.2 5.69c1.29 2.28 2.6 4.55 3.89 6.84-.63.45-1.89 1.36-2.52 1.81-2.68-2.91-5.48-5.73-8.6-8.17.77 4.44 1.46 8.9 1.84 13.39l-3.36 1.2c-3.01-4.63-5.42-9.62-8.46-14.24 1.12 4.5 2.22 9.02 2.47 13.66-1.99.55-3.97 1.09-5.96 1.64-2.32-5.54-4.05-11.31-6.7-16.71.47 6.98 2.78 13.67 3.98 20.54 1.94-.43 3.87-.85 5.81-1.27 3.03 3.82 6.61 8.03 11.89 8.26 5.05.91 9.09-2.61 13.05-5.09 1.02 1.21 1.89 2.54 2.8 3.83-1.12 1.41-2.23 2.83-3.34 4.25 2.2 1.38 4.41 2.75 6.61 4.12-.95 1.21-1.65 2.72-2.96 3.58-3.41-.96-6.67-2.39-10.13-3.16 1.83 3.27 3.69 6.54 5.24 9.96-1.61.46-3.21.94-4.82 1.39-3.7-5.33-7.19-10.8-11.09-15.99 1.24 6.42 3.27 12.66 4.33 19.12-1.91.19-3.83.39-5.74.58-2.94-6.79-3.99-14.23-6.99-20.97-.46 6.35-.03 12.75-.75 19.1-1.76.1-3.51.23-5.27.34-1.21-6.16-1.63-12.47-3.36-18.52-.28 7.42.3 14.85.62 22.27 1.91-.29 3.82-.59 5.73-.88 2.87 4.06 6.82 8.12 12.15 8.24 8.08.08 15.2-4.28 21.81-8.44.89 1.41 1.78 2.83 2.68 4.24-1.52 1.27-4.05 1.95-4.75 3.86 1.29 3.79 4.27 7 4.54 11.11-1.05.73-2.19 1.35-3.39 1.77-3.83-3.01-6.82-6.96-10.66-9.97 1.59 5.36 3.86 10.52 4.85 16.05-1.27-.01-2.54-.07-3.81-.19-3.37-4.71-5.57-10.15-8.86-14.93.46 5.13.91 10.26 1.12 15.41-1.67.16-3.33.35-4.99.52-2.44-5.16-4.63-10.43-7.33-15.45-.16 5.36.02 10.72.11 16.08-1.55.02-3.1.05-4.66.09-2.12-6.04-3.21-12.38-5.42-18.38-.96 7.23.26 14.54.59 21.78.75.14 2.25.42 2.99.57-.41 11.6.4 23.19.36 34.79-6.07 2.25-12.02 4.83-17.99 7.35.58-14.22.87-28.46 1.56-42.67 1.24-1.56 2.39-3.23 2.8-5.21 1.38-5.88 3.06-11.78 3.12-17.87-2.29 6.26-4.23 12.65-6.15 19.04l-4.84.3c-.06-5.35.41-10.68.42-16.03-2.69 4.84-4.96 9.89-7.58 14.76-1.47-.32-3.26 0-4.51-.88-.53-4.77.97-9.55.91-14.35-3.31 4.71-5.9 9.88-8.96 14.76-1.29-.54-2.58-1.08-3.87-1.61 1.58-5.07 3.56-9.99 5.45-14.94-3.67 3.17-7.08 6.61-10.6 9.94-1.31-.87-2.66-1.7-3.83-2.74 1.25-3.22 3.08-6.17 4.66-9.23-1.6-1.24-3.21-2.47-4.81-3.7 1.04-1.62 2.07-3.24 3.1-4.86 6.94 3.41 13.72 8.57 21.83 8.16 5.2-.16 9.19-3.89 12.21-7.75 1.96.23 3.92.48 5.88.73.19-7.23 1.46-14.39 1.47-21.63-1.75 6-2.77 12.19-4.43 18.22-1.57-.18-3.14-.35-4.71-.52-.67-6.16-.06-12.37-.82-18.51-2.33 6.75-4.53 13.56-7.24 20.17-1.8-.34-3.6-.67-5.4-1 1-6.02 3.02-11.79 4.29-17.74-4.17 4.63-7.44 9.98-11.4 14.78-1.53-.66-3.07-1.33-4.6-2 1.94-3.05 3.81-6.14 5.55-9.31-3.63 1.06-7.24 2.21-10.83 3.4-.78-1.36-1.56-2.73-2.34-4.09 2.36-1.32 4.72-2.65 7.05-4.01-1.23-1.78-2.46-3.57-3.71-5.34.99-1.25 1.93-2.55 3.03-3.7 3.67 2.68 7.31 5.91 12.1 6.19 5.73.95 9.96-3.82 13.2-7.81l5.79 1.08c1.56-6.54 3.51-13 4.7-19.63-2.8 5.08-4.48 10.69-7.26 15.79-2.13-.08-4.09-1.05-6.1-1.65.69-4.41 1.83-8.72 3.26-12.94-.25.07-.73.21-.97.28-2.58 4.25-4.73 8.79-7.8 12.71-1.35.22-2.57-.77-3.84-1.11.77-4.36 1.76-8.67 2.64-13.01-3.09 2.44-6.04 5.05-8.92 7.74-.86-.59-1.72-1.17-2.58-1.75 1.48-2.07 3-4.11 4.55-6.12-1.98-2.08-4.03-4.09-6.1-6.09 1.09-1.37 2.18-2.73 3.27-4.1 3.39 2.88 6.62 6.48 11.14 7.45 3.36.74 6.42-1.16 9.15-2.83l2.79.99c2.02-5.47 4.34-10.84 6.02-16.44-2.97 3.9-5.25 8.25-7.95 12.33-1.72-.9-3.44-1.79-5.16-2.69 2.28-4.55 5.07-8.82 7.38-13.35-5.32 2.33-10 6.21-15.79 7.37 1.49-2.43 3.35-4.59 5.31-6.64-1.35-1.33-2.71-2.66-4.06-3.99 1.03-1.17 2.08-2.32 3.12-3.49 4.36 1.11 9.36 3.58 13.68 1.12zM158.42 71.25c4.7-2.77 7.03-7.97 9.77-12.44 2.45 4.33 4.88 9.06 9.22 11.8 4.2 1.98 8.78-.16 12.88-1.33.98 1.32 1.95 2.65 2.93 3.98-1.32 1.13-2.63 2.26-3.94 3.39 1.64 2.24 3.25 4.52 4.59 6.97-5.58-1.36-10.08-5.17-15.32-7.38 2.47 4.36 5.07 8.65 7.17 13.2-1.67.97-3.33 1.93-4.99 2.9-2.69-4.38-5.12-8.92-8.09-13.12 1.75 5.79 4.19 11.33 5.92 17.13.89-.27 1.78-.53 2.67-.79 2.62 1.39 5.36 2.96 8.44 2.68 4.98-.07 8.51-4.11 12.11-7.02 1.03 1.32 2.06 2.64 3.09 3.97a772.79 772.79 0 0 1-6.18 5.21c1.31 2.18 2.62 4.36 3.91 6.55-.55.51-1.65 1.52-2.2 2.02-2.97-2.7-5.81-5.53-8.83-8.17.72 4.48 1.72 8.93 2.35 13.43-1.16.58-2.33 1.16-3.49 1.75-3.12-4.64-5.75-9.57-8.43-14.47 1.02 4.55 2.08 9.11 2.58 13.76-2.06.6-4.12 1.19-6.18 1.79-2.1-5.31-4.05-10.68-6.62-15.79.94 6.64 3.32 12.95 4.61 19.51 1.72-.49 3.44-1.05 5.22-1.35 3.23 3.09 6.05 7.38 10.96 7.77 5.21 1.09 9.82-1.98 13.45-5.33 1.06 1.18 2.11 2.38 3.18 3.57-.92 1.6-1.84 3.21-2.76 4.81 2.15 1.34 4.3 2.67 6.45 4.01-.77 1.4-1.52 2.8-2.29 4.21-3.64-1.33-7.3-2.62-10.98-3.87 1.94 3.3 3.84 6.62 5.64 9.99-1.51.67-3.03 1.34-4.54 2-3.69-5-7-10.3-11.1-14.98.99 6.03 3.39 11.73 4.04 17.84-1.86.29-3.71.6-5.57.9-2.39-6.78-4.18-13.77-7.01-20.38-.25 6.16-.02 12.34-.38 18.5-1.7.33-3.41.66-5.1.98-1.37-5.72-2.21-11.54-3.59-17.25-.46 6.91.38 13.8.62 20.7 2.01-.35 4.02-.7 6.03-1.04 2.79 4.04 6.85 7.78 12.05 7.87 7.87-.15 14.96-4.25 21.05-8.91 1.05 1.44 2.1 2.89 3.15 4.33-1.72 1.01-3.46 2-5.03 3.22 1.5 3.85 3.93 7.27 5.28 11.18-1.11 1.01-2.37 1.84-3.59 2.7-3.57-3.21-6.95-6.65-10.6-9.77 1.85 4.97 3.72 9.94 5.2 15.04-1.26.47-2.52.93-3.78 1.4-3.42-4.98-5.78-10.59-9.23-15.55.31 5.13 1.1 10.23 1.21 15.39-1.59.18-3.18.36-4.76.55-2.71-4.97-4.83-10.22-7.47-15.22.11 5.52.38 11.03.21 16.54-1.52-.15-3.04-.31-4.55-.46-1.99-6.22-3.72-12.53-5.72-18.75.11 6.92 1.44 13.75 2.05 20.63.76.42 1.51.85 2.27 1.27-.13 6.78.59 13.53.58 20.3-5.69-.38-11.38-.53-17.07-.36.04-6.57.05-13.13-.01-19.7 1.04-.27 2.08-.54 3.12-.8.48-6.93 2.12-13.74 2.31-20.69-2.56 5.81-3.52 12.13-5.55 18.11-1.58.08-3.16.17-4.73.26-.29-5.14.05-10.28.09-15.42-2.74 4.71-4.64 9.84-7.38 14.54-1.55-.29-3.1-.56-4.64-.84.18-4.86.76-9.69 1-14.54-3.35 4.76-5.64 10.14-8.71 15.08-1.39-.28-2.79-.55-4.18-.83 1.65-5.34 3.59-10.58 5.32-15.88-3.38 3.38-6.84 6.67-10.13 10.14-1.27-.87-4.54-.89-3.63-3.14 1.01-3.06 2.66-5.85 3.96-8.79-1.62-1.1-3.24-2.2-4.86-3.29 1-1.73 1.99-3.46 2.98-5.18 7.16 4.2 15.08 8.5 23.69 7.41 4.54-.61 7.6-4.37 10.22-7.77 1.78.29 3.54.6 5.32.9.79-7.22 1.67-14.48 1.24-21.76-1.71 5.95-2.12 12.16-3.72 18.13l-4.8-.3c-.76-5.93-.49-11.92-.82-17.88-2.77 6.31-4.5 13.02-6.54 19.59l-5.89-.42c.87-6.12 2.77-12.03 3.84-18.11-3.99 4.74-7.09 10.13-10.74 15.12-1.61-.62-3.23-1.24-4.83-1.85 1.7-3.29 3.57-6.48 5.5-9.65-3.45 1.09-6.86 2.27-10.26 3.51l-2.8-3.97c2.19-1.38 4.38-2.74 6.59-4.1-1.29-1.99-2.58-3.97-3.89-5.95 1.16-.96 2.31-1.92 3.47-2.88 3.83 3.49 8.81 6.39 14.19 5.49 4.72-.6 7.79-4.6 10.36-8.19 1.88.41 3.77.82 5.65 1.24 1.44-6.92 3.88-13.62 4.75-20.64-2.83 5.26-4.21 11.16-7.01 16.43-1.83.9-4.04-.8-5.98-1.08.6-4.25 1.51-8.45 2.07-12.71-2.84 4.33-4.89 9.12-7.74 13.45-1.23-.6-2.45-1.19-3.68-1.79.67-4.31 1.43-8.61 2.21-12.9-2.86 2.76-5.76 5.49-8.75 8.11l-2.37-2.19c1.32-2.01 2.65-4.02 3.97-6.03-2.04-1.94-4.05-3.9-6.02-5.9 1.09-1.24 2.18-2.48 3.28-3.71 3.43 2.68 6.79 6.03 11.29 6.7 3.3.53 6.27-1.3 8.98-2.92.88.2 1.76.39 2.64.59 1.7-5.39 4-10.59 5.29-16.11-2.67 3.91-4.76 8.17-7.21 12.21-1.73-.74-3.47-1.48-5.21-2.23 2.01-4.7 4.64-9.1 6.78-13.74-5.05 2.64-9.46 6.81-15.23 7.78 1.46-2.41 3.2-4.64 5.03-6.79-1.42-1.3-2.85-2.59-4.27-3.89l3.2-3.62c3.81.81 7.9 3.04 11.75 1.38z" style="fill:#41a436"/><path d="M213.64 159.93c1.41-.86 2.82-1.72 4.22-2.59 1.73 1.32 3.45 2.65 5.19 3.96-1.45 3.07-2.81 6.19-4.33 9.23-1.73-3.52-3.38-7.07-5.08-10.6zM117.97 158.29c1.89 1.31 3.73 2.67 5.6 4.01-1.49 3.1-2.82 6.28-4.66 9.19-2.39-2.68-3.2-6.35-4.91-9.44 1.32-1.26 2.65-2.51 3.97-3.76zM207.22 172.22c1.26.99 2.44 2.07 3.63 3.15 2.52-1.3 5.06-2.56 7.63-3.74 2.4 1.46 4.82 2.89 7.22 4.36 1.15-1.23 2.3-2.46 3.5-3.65-.71 2.44-1.54 4.84-2.32 7.26 2.95.81 5.92 1.58 8.89 2.37 1.08-1.96 2.15-3.92 3.4-5.78.05 1.72.05 3.44.07 5.16 2.87.31 5.74.61 8.59 1 .85-1.66 1.62-3.36 2.45-5.02.26-.48.79-1.43 1.05-1.91.1 2.58-.01 5.16-.01 7.74 1.75-.28 3.5-.59 5.26-.91-.62 12.03-.85 24.08-.85 36.13-24.06-8.09-49.12-13.35-74.49-14.72-.18-6.66-.77-13.31-.82-19.97 1.55-.37 3.23-.39 4.69-1.1.01-2.39-.22-4.78-.17-7.17 1.38 2.23 2.45 4.63 3.59 6.99 2.9-.45 5.8-.89 8.67-1.49-.06-1.66-.09-3.32-.09-4.97 1.28 1.79 2.31 3.73 3.39 5.64 2.94-.74 5.87-1.51 8.81-2.28-.59-2.4-1.38-4.73-2.09-7.09zM107.56 173.57c1.14 1.02 2.22 2.1 3.29 3.18 2.54-1.19 4.89-3.02 7.67-3.58 2.78.83 5.46 1.99 8.17 3.05 1.21-1.2 2.43-2.39 3.7-3.52-.72 2.43-1.5 4.84-2.19 7.28 2.93.84 5.92 1.46 8.89 2.19 1.05-2.09 2.07-4.23 3.65-5.99-.07 1.2-.23 3.6-.31 4.8 2.83.67 5.69 1.32 8.58 1.64 1.34-2.23 2.19-4.74 3.83-6.8.08 2.44-.09 4.88-.29 7.31h4.25c-.67 6.78-.65 13.6-1.27 20.39-25.9.71-51.6 5.98-75.99 14.66-.34-11.18-.28-22.39-1.12-33.55 2.1-.4 4.2-.76 6.31-1.1-.09-2.47-.19-4.94-.22-7.4 1.42 2.31 2.6 4.75 3.81 7.17 2.89-.46 5.78-.91 8.67-1.39 0-1.61.04-3.23.11-4.84 1.35 1.83 2.42 3.83 3.47 5.84 2.91-.77 5.84-1.46 8.77-2.19-.59-2.38-1.26-4.75-1.78-7.15z" style="fill:#fff"/><path d="M78.28 222.17c31.89-12.18 66.33-17.64 100.42-15.77 32.95 1.63 65.51 9.77 95.53 23.38 12.87 5.96 25.43 12.73 36.97 20.99 2.28 1.04.7 3.44.18 5.08-7.48 19.93-18.24 38.82-33 54.27-15.93 17.64-36.17 31.23-58.34 39.75-35.82 13.04-76.57 11.96-111.49-3.43-36.69-16.35-66.33-47.64-80.99-85.01-1.64-4.05-3.17-8.14-4.7-12.23 17.81-10.28 36.15-19.78 55.42-27.03z" style="fill:#41a436"/><path d="M69.68 231.26c4-2.35 8.58-3.43 12.82-5.25 26.61 10.58 53.39 20.75 80.03 31.27 1.66.84 3.51.75 5.22.09 31.3-9.95 62.69-19.63 93.99-29.58 4.05 4.03 7.15 9.68 6.09 15.56-1.2.83-2.53 1.44-3.81 2.11 2.55 7.67 5.1 15.34 7.7 22.99-5.42 1.74-10.84 3.43-16.24 5.22-1.13-3.05-2.17-6.11-3.16-9.2 1.43-.48 2.86-.95 4.29-1.42-.41-1.19-.82-2.37-1.23-3.55-1.39.56-2.77 1.11-4.15 1.68-.71-1.54-1.42-3.09-2.13-4.63-.81.29-1.62.59-2.42.88.42 1.63.85 3.25 1.27 4.88-1.34.4-2.68.81-4.02 1.21.3.66.9 1.97 1.2 2.63 1.44-.07 2.86-.35 4.28-.57 1 2.94 1.96 5.88 2.88 8.85-5.5 1.62-10.86 3.65-16.37 5.21-2.48-7.77-5.18-15.47-7.65-23.24-12.41 3.72-24.69 7.86-37.06 11.7 6.88 3.32 14.16 5.73 21.29 8.47 1.52-4.69 2.73-9.48 3.43-14.37 3.88 1.4 7.75 2.8 11.63 4.2-.29 5.43-.82 10.85-1.62 16.23 8.72 5.11 17.62 9.91 26.13 15.38 3.11 2.43 7.03-1.06 10.41.6 6.14 2.43 7.48 11.24 3.47 16.11-2.88 3.85-8.34 6.67-13.03 4.43-3.17-1.35-3.62-6-7.23-6.57-9.66-2.51-19.31-5.06-28.97-7.55-3.81 5.69-7.95 11.21-12.97 15.9-3.94-2.15-7.93-4.23-11.9-6.34 3.39-4.65 7.16-9.1 9.78-14.25-13.55-6.66-27.58-12.37-41.26-18.79-2.18-.9-4.53-2.5-6.95-1.4-6.48 2.14-13.02 4.11-19.47 6.35-2.04 3.08-5.36 4.7-9.08 4.18-5.6 5.49-9.77 12.58-10.23 20.56 1.81 1.96 4.12 4.26 3.25 7.2-2.31 7.9-13.36 11.16-20 6.75-2.99-2.01-2.49-5.83-1.78-8.85-5.35-5.49-12.39-9.3-20.13-9.79-1.72 1.94-3.37 4.72-6.33 4.59-3.96.38-6.93-2.9-8.88-5.92-2.14-3.56-3.52-8.28-1.45-12.17 1.35-2.09 3.67-4 6.3-3.77 1.49-.23 3.25.58 4.56-.35 5.82-4.69 9.14-12.09 9.07-19.55-2.91-1.65-6.64-4.01-5.46-7.98 2.14-8.15 13.86-11.47 20.45-6.68 3.02 2.1 2.14 6.04 1.05 8.95 5.69 6.25 14.02 9.1 22.31 9.34 1.55-1.46 2.87-3.42 5.01-4.01 2.92-.03 5.83.4 8.75.2-1.29-.94-2.63-1.82-4.07-2.5-17.71-7.86-35.39-15.8-53.05-23.79-1.46-3.91-3.34-7.66-4.56-11.65z" style="fill:#1b1c20"/><path d="M75.37 231.98c2.04-.9 4.09-1.79 6.14-2.65 42.96 17.26 86.04 34.22 129.01 51.45-.62 1.56-1.25 3.12-1.88 4.69-44.42-17.84-88.94-35.44-133.27-53.49zM171.08 260.16c29.81-9.6 59.64-19.14 89.44-28.79 1.79 2.53 3.08 5.36 3.72 8.4-14.52 5.14-29.37 9.28-43.92 14.33-11.92 3.88-23.8 7.93-35.76 11.7-4.66-1.38-9.08-3.57-13.48-5.64zM74.12 234.16c44.04 18.9 88.11 37.71 132.08 56.77-.86 1.67-1.7 3.35-2.53 5.03-42.33-18.6-84.66-37.21-127.05-55.66-.85-2.04-1.68-4.09-2.5-6.14zM231.72 255.18c9.59-3.07 19.16-6.19 28.77-9.21 2.24 6.61 4.26 13.3 6.65 19.86-3.18 1.01-6.39 1.96-9.58 2.97-.22-.72-.65-2.14-.86-2.85 1.26-.36 2.52-.71 3.79-1.06-1.17-3.13-2.25-6.28-3.42-9.39l-3.48 1.36c-.71-1.54-1.42-3.08-2.12-4.61-3.17.85-6.33 1.73-9.47 2.69.7 1.61 1.42 3.24 2.14 4.86-1.27.44-2.54.87-3.8 1.31 1.18 2.9 2.26 5.83 3.27 8.79.81-.26 2.42-.77 3.23-1.03.27 1.06.55 2.12.83 3.19-2.84.92-5.68 1.84-8.49 2.84-2.6-6.53-4.93-13.17-7.46-19.72zM81.95 256.7c3.41-1.87 10.37-.48 9.28 4.52-1.68 4.68-8.96 6.53-12.61 3.13-2.07-2.89.54-6.48 3.33-7.65zM83.4 269.49c2.73-.52 5.39-1.33 7.97-2.36 6.69 6.68 15.91 11.29 25.55 10.63.54 3.72 1.95 7.28 4.44 10.14-6.68 5.46-10.67 13.65-11.19 22.23-3.48.27-6.94.93-10.03 2.62-6.45-6.18-15.09-9.34-23.8-10.66-.45-2.98-1.33-5.87-2.78-8.51 3.04-2.74 6.03-5.74 7.59-9.6 2.09-4.53 2.29-9.59 2.25-14.49zM219.3 267.38c1.4.43 2.8.86 4.2 1.3-1.32 9.19-2.98 18.45-6.7 27-3.22 7.48-8.01 14.12-13.03 20.47-1.96-.87-3.94-1.71-5.93-2.53 5.23-5.07 8.9-11.46 11.97-18 4.15-9.04 7.21-18.56 9.49-28.24zM131.12 272.21c1.85-.49 3.7-.99 5.56-1.49 4.14 2.16 8.5 3.91 12.49 6.36-4.84 1.68-9.66 3.43-14.53 5.03-.31-3.56-1.42-6.99-3.52-9.9zM123.12 274.02c6.74-2.93 11.6 10.27 4.58 12.61-5.99.34-9.38-9.03-4.58-12.61z" style="fill:#fbcb0f"/><path d="M89.81 275.2c.48-.33 1.44-.98 1.93-1.31 2.47 3.27 5.26 6.65 9.29 8 3.69 1.49 7.71.69 11.47-.05.54 1.88 1.26 3.72 2.23 5.43-3.42 2.16-6.85 4.77-8.46 8.62-1.69 3.53-1.18 7.54-1.54 11.32l-1.84.24c-2.7-2.9-5.25-6.22-9.17-7.51-4.71-2.26-10.14-1.46-15-3.1 2.73-2.35 5.81-4.45 7.71-7.6 2.71-4.13 3.35-9.2 3.38-14.04z" style="fill:#1b1c20"/><path d="M92.85 280.58c2 2.11 3.97 4.53 6.86 5.39 3.32 1.15 6.82.3 10.2-.01-2.46 2.1-5.27 4.01-6.73 7-1.4 2.59-1.31 5.61-1.43 8.47-1.86-2.14-3.68-4.54-6.38-5.66-3.21-1.44-6.8-.87-10.18-.74 2.41-1.92 5.2-3.65 6.62-6.5 1.25-2.45 1-5.28 1.04-7.95zM225.16 288.2c8.51 5.31 17.69 9.42 26.58 14.04-1.22 2.3-2.41 4.6-3.61 6.91-9.15-3.4-18.41-6.47-27.63-9.64 1.8-3.67 3.31-7.46 4.66-11.31zM64.91 294.52c6.44-2.74 11.49 9.25 5.35 12.44-6.29 1.64-10.65-8.92-5.35-12.44zM257 303.72c3.81-2.49 7.5 2.77 6.02 6.27-.96 3.48-5.29 7.68-8.85 4.77-3.71-3.23-1.09-9.25 2.83-11.04zM103.88 314.62c3.33-1.73 9.18-.88 9.22 3.76-1.5 5.45-10.03 7.76-13.49 2.97-1.07-3.06 1.7-5.66 4.27-6.73z" style="fill:#fbcb0f"/><path d="M172.255 365.158c.38-.4 1.225-.508 1.615-.908 3.66.13 8.344.1 12.004.17-4.214.854-7.343.784-10.724.979l-3.07.043z" style="fill:#1b1c20;fill-opacity:1"/></svg>