<?xml version="1.0" encoding="UTF-8"?>
<!DOCTYPE svg PUBLIC "-//W3C//DTD SVG 1.1//EN" "http://www.w3.org/Graphics/SVG/1.1/DTD/svg11.dtd">
<svg xmlns="http://www.w3.org/2000/svg" version="1.1" width="229px" height="251px" style="shape-rendering:geometricPrecision; text-rendering:geometricPrecision; image-rendering:optimizeQuality; fill-rule:evenodd; clip-rule:evenodd" xmlns:xlink="http://www.w3.org/1999/xlink">
<g><path style="opacity:1" fill="#fcfcfc" d="M 228.5,12.5 C 228.5,91.8333 228.5,171.167 228.5,250.5C 191.167,250.5 153.833,250.5 116.5,250.5C 120.5,249.833 124.5,249.167 128.5,248.5C 174.013,238.664 203.68,211.33 217.5,166.5C 218.56,161.141 219.726,155.808 221,150.5C 223.101,104.319 225.601,58.3187 228.5,12.5 Z"/></g>
<g><path style="opacity:1" fill="#fbfbfc" d="M -0.5,22.5 C 1.27666,63.3272 2.77666,104.327 4,145.5C 7.82984,188.026 28.3298,219.526 65.5,240C 75.2678,243.774 85.2678,246.608 95.5,248.5C 99.5,249.167 103.5,249.833 107.5,250.5C 71.5,250.5 35.5,250.5 -0.5,250.5C -0.5,174.5 -0.5,98.5 -0.5,22.5 Z"/></g>
<g><path style="opacity:1" fill="#27222a" d="M -0.5,-0.5 C 75.8333,-0.5 152.167,-0.5 228.5,-0.5C 228.5,3.83333 228.5,8.16667 228.5,12.5C 225.601,58.3187 223.101,104.319 221,150.5C 219.726,155.808 218.56,161.141 217.5,166.5C 203.68,211.33 174.013,238.664 128.5,248.5C 117.569,248.244 106.569,248.244 95.5,248.5C 85.2678,246.608 75.2678,243.774 65.5,240C 28.3298,219.526 7.82984,188.026 4,145.5C 2.77666,104.327 1.27666,63.3272 -0.5,22.5C -0.5,14.8333 -0.5,7.16667 -0.5,-0.5 Z"/></g>
<g><path style="opacity:1" fill="#6f737d" d="M 222.5,41.5 C 222.282,50.6831 221.615,59.6831 220.5,68.5C 220.236,59.2826 220.903,50.2826 222.5,41.5 Z"/></g>
<g><path style="opacity:1" fill="#5c2829" d="M 187.5,49.5 C 186.104,54.1282 186.771,58.4615 189.5,62.5C 186.414,60.271 184.414,57.271 183.5,53.5C 184.211,51.4554 185.544,50.1221 187.5,49.5 Z"/></g>
<g><path style="opacity:1" fill="#4a3436" d="M 37.5,33.5 C 37.5266,36.2298 36.8599,38.7298 35.5,41C 38.0198,44.941 40.0198,49.1076 41.5,53.5C 41.1667,54.8333 40.8333,56.1667 40.5,57.5C 38.6666,59.1493 36.9999,60.8159 35.5,62.5C 37.2506,59.5781 38.2506,56.4114 38.5,53C 37.3132,48.7915 35.9799,44.6248 34.5,40.5C 34.1716,37.4995 35.1716,35.1661 37.5,33.5 Z"/></g>
<g><path style="opacity:1" fill="#4a2721" d="M 187.5,23.5 C 187.481,25.0603 187.148,26.5603 186.5,28C 188.895,31.9582 190.895,36.1249 192.5,40.5C 191.076,43.6863 189.409,46.6863 187.5,49.5C 188.028,46.3331 188.695,43.1664 189.5,40C 188.131,36.7517 186.797,32.7517 185.5,28C 185.569,26.0145 186.235,24.5145 187.5,23.5 Z"/></g>
<g><path style="opacity:1" fill="#3f3037" d="M 39.5,25.5 C 40.6935,25.9704 41.3601,26.9704 41.5,28.5C 41.2225,31.1021 39.8892,32.7688 37.5,33.5C 38.7496,30.994 39.4162,28.3274 39.5,25.5 Z"/></g>
<g><path style="opacity:1" fill="#222027" d="M 35.5,17.5 C 37.0931,18.3479 38.2597,19.6813 39,21.5C 39.4828,22.448 39.6495,23.448 39.5,24.5C 37.412,22.6644 36.0787,20.3311 35.5,17.5 Z"/></g>
<g><path style="opacity:1" fill="#f7f7f8" d="M 199.5,9.5 C 199.617,7.5165 198.95,5.84983 197.5,4.5C 200.446,3.34524 203.446,3.17858 206.5,4C 209.015,7.36232 211.015,11.029 212.5,15C 210.229,18.8762 208.229,22.8762 206.5,27C 208.284,31.6108 210.284,36.1108 212.5,40.5C 211.415,43.6649 210.082,46.6649 208.5,49.5C 211.444,47.2851 213.11,44.2851 213.5,40.5C 211.985,35.9657 210.319,31.4657 208.5,27C 209.992,23.013 211.992,19.3464 214.5,16C 213.089,12.4091 211.422,8.90911 209.5,5.5C 209.709,4.91395 210.043,4.41395 210.5,4C 214.821,3.50098 219.154,3.33432 223.5,3.5C 223.04,16.1626 222.707,28.8292 222.5,41.5C 220.903,50.2826 220.236,59.2826 220.5,68.5C 219.084,93.1503 217.918,117.817 217,142.5C 216.717,149.637 215.717,156.637 214,163.5C 213.804,165.286 212.971,166.619 211.5,167.5C 209.494,164.987 208.16,162.154 207.5,159C 209.044,154.456 211.044,150.123 213.5,146C 213.138,144.775 212.638,143.609 212,142.5C 211.346,141.304 210.846,141.304 210.5,142.5C 211.52,144.432 211.687,146.432 211,148.5C 208.699,151.788 206.866,155.288 205.5,159C 206.327,162.488 207.827,165.654 210,168.5C 209.48,178.213 206.147,186.88 200,194.5C 198.483,191.657 196.983,188.823 195.5,186C 197.551,181.306 199.551,176.639 201.5,172C 200.828,168.514 199.161,165.68 196.5,163.5C 197.779,166.395 198.779,169.395 199.5,172.5C 197.689,176.619 196.023,180.786 194.5,185C 195.429,189.114 197.095,192.948 199.5,196.5C 195.55,202.451 191.217,208.118 186.5,213.5C 185.369,211.926 185.202,210.259 186,208.5C 187.966,205.399 189.8,202.232 191.5,199C 190.356,195.193 188.356,192.027 185.5,189.5C 185.338,187.473 185.505,185.473 186,183.5C 187.865,179.649 189.698,175.816 191.5,172C 190.477,168.315 188.477,165.482 185.5,163.5C 185.5,162.833 185.5,162.167 185.5,161.5C 186.192,156.772 188.025,152.439 191,148.5C 191.941,146.011 191.441,144.011 189.5,142.5C 189.25,140.326 188.25,138.659 186.5,137.5C 186.481,135.94 186.148,134.44 185.5,133C 187.523,128.624 189.523,124.29 191.5,120C 189.14,115.776 187.474,111.276 186.5,106.5C 188.425,102.307 190.092,97.9741 191.5,93.5C 191.359,89.5524 189.859,86.2191 187,83.5C 186.398,80.7795 186.565,78.1128 187.5,75.5C 191.087,72.3048 192.254,68.3048 191,63.5C 190.617,62.944 190.117,62.6107 189.5,62.5C 186.771,58.4615 186.104,54.1282 187.5,49.5C 189.409,46.6863 191.076,43.6863 192.5,40.5C 190.895,36.1249 188.895,31.9582 186.5,28C 187.148,26.5603 187.481,25.0603 187.5,23.5C 194.099,17.3246 194.099,10.9912 187.5,4.5C 190.106,3.34827 192.773,3.1816 195.5,4C 196.697,6.01533 198.03,7.84866 199.5,9.5 Z"/></g>
<g><path style="opacity:1" fill="#34303a" d="M 199.5,34.5 C 201.533,35.8984 202.533,37.8984 202.5,40.5C 201.817,44.1986 200.317,47.5319 198,50.5C 197.503,52.8098 197.337,55.1432 197.5,57.5C 196.275,56.8478 195.608,55.6811 195.5,54C 195.667,52.8333 195.833,51.6667 196,50.5C 201.162,45.902 202.329,40.5687 199.5,34.5 Z"/></g>
<g><path style="opacity:1" fill="#211b1d" d="M 199.5,9.5 C 201.387,10.7679 202.387,12.6013 202.5,15C 200.691,18.7833 199.024,22.6167 197.5,26.5C 197.968,29.2334 198.635,31.9 199.5,34.5C 197.277,32.5593 195.944,30.0593 195.5,27C 197.222,22.8887 199.222,18.8887 201.5,15C 200.68,13.1997 200.014,11.3664 199.5,9.5 Z"/></g>
<g><path style="opacity:1" fill="#ec3034" d="M 187.5,23.5 C 186.235,24.5145 185.569,26.0145 185.5,28C 186.797,32.7517 188.131,36.7517 189.5,40C 188.695,43.1664 188.028,46.3331 187.5,49.5C 185.544,50.1221 184.211,51.4554 183.5,53.5C 184.414,57.271 186.414,60.271 189.5,62.5C 189.31,66.9225 188.643,71.2559 187.5,75.5C 184.688,75.9792 183.355,77.6459 183.5,80.5C 186.293,84.4226 188.293,88.7559 189.5,93.5C 187.399,98.2509 185.399,103.084 183.5,108C 186.254,111.579 188.254,115.579 189.5,120C 186.935,124.127 184.935,128.46 183.5,133C 183.959,134.942 184.959,136.442 186.5,137.5C 188.25,138.659 189.25,140.326 189.5,142.5C 189.808,144.924 189.474,147.257 188.5,149.5C 186.565,152.371 184.899,155.371 183.5,158.5C 183.64,160.03 184.307,161.03 185.5,161.5C 185.5,162.167 185.5,162.833 185.5,163.5C 186.478,166.131 187.478,168.798 188.5,171.5C 186.976,176.049 185.31,180.549 183.5,185C 183.307,187.008 183.974,188.508 185.5,189.5C 186.751,192.63 188.085,195.797 189.5,199C 188.553,202.243 186.72,204.743 184,206.5C 183.825,210.211 183.325,213.878 182.5,217.5C 181.575,218.641 180.741,218.641 180,217.5C 179.751,218.624 179.251,219.624 178.5,220.5C 171.595,225.336 165.095,230.003 159,234.5C 158.667,234.167 158.333,233.833 158,233.5C 138.916,244.709 118.416,248.209 96.5,244C 85.8213,242.081 75.488,239.081 65.5,235C 57.7098,229.262 50.0431,224.096 42.5,219.5C 40.0644,216.322 38.8978,212.655 39,208.5C 38.6174,207.944 38.1174,207.611 37.5,207.5C 37.5,207.167 37.5,206.833 37.5,206.5C 36.7577,204.574 35.7577,202.741 34.5,201C 35.2606,196.594 36.7606,192.427 39,188.5C 39.1667,187.333 39.3333,186.167 39.5,185C 39.3917,183.319 38.7251,182.152 37.5,181.5C 36.373,179.002 35.7063,176.336 35.5,173.5C 36.9995,168.294 38.3329,163.127 39.5,158C 39.4313,156.014 38.7647,154.514 37.5,153.5C 37.7148,151.821 37.0481,150.821 35.5,150.5C 35.3354,147.482 35.502,144.482 36,141.5C 39.212,137.272 40.0454,132.605 38.5,127.5C 37.8589,126.007 36.8589,125.007 35.5,124.5C 36.2602,118.53 37.5935,112.697 39.5,107C 39.4668,104.39 38.8001,102.223 37.5,100.5C 35.8958,99.713 35.2291,98.3797 35.5,96.5C 35.0722,92.5744 36.2389,89.2411 39,86.5C 39.8275,82.1287 39.6609,77.7953 38.5,73.5C 37.4822,72.8075 36.4822,72.1408 35.5,71.5C 35.5,68.5 35.5,65.5 35.5,62.5C 36.9999,60.8159 38.6666,59.1493 40.5,57.5C 40.8333,56.1667 41.1667,54.8333 41.5,53.5C 40.0198,49.1076 38.0198,44.941 35.5,41C 36.8599,38.7298 37.5266,36.2298 37.5,33.5C 39.8892,32.7688 41.2225,31.1021 41.5,28.5C 41.3601,26.9704 40.6935,25.9704 39.5,25.5C 39.5,25.1667 39.5,24.8333 39.5,24.5C 39.6495,23.448 39.4828,22.448 39,21.5C 38.2597,19.6813 37.0931,18.3479 35.5,17.5C 35.3379,15.4727 35.5045,13.4727 36,11.5C 36.7096,10.0267 37.8762,9.36007 39.5,9.5C 39.5,7.5 39.5,5.5 39.5,3.5C 88.1712,3.16673 136.838,3.50006 185.5,4.5C 187.689,7.28924 189.023,10.4559 189.5,14C 189.06,17.2481 188.393,20.4147 187.5,23.5 Z"/></g>
<g><path style="opacity:1" fill="#36262a" d="M 121.5,57.5 C 121.833,57.5 122.167,57.5 122.5,57.5C 123.5,57.5 124.5,57.5 125.5,57.5C 125.577,58.7498 126.244,59.5831 127.5,60C 125.634,62.2247 124.134,64.7247 123,67.5C 122.29,66.0267 121.124,65.3601 119.5,65.5C 119.167,68.8333 118.833,72.1667 118.5,75.5C 117.604,76.5063 116.938,76.5063 116.5,75.5C 116.833,72.1667 117.167,68.8333 117.5,65.5C 117.833,64.8333 118.167,64.1667 118.5,63.5C 123.669,63.4576 124.669,61.4576 121.5,57.5 Z"/></g>
<g><path style="opacity:1" fill="#e7b146" d="M 121.5,57.5 C 124.669,61.4576 123.669,63.4576 118.5,63.5C 117.5,63.5 116.5,63.5 115.5,63.5C 115.202,59.347 117.202,57.347 121.5,57.5 Z"/></g>
<g><path style="opacity:1" fill="#e1b447" d="M 113.5,65.5 C 111.907,66.3479 110.74,67.6813 110,69.5C 106.43,68.9732 104.264,66.9732 103.5,63.5C 104.1,61.5323 105.433,60.5323 107.5,60.5C 109.54,59.4808 111.54,59.4808 113.5,60.5C 112.311,61.4287 110.978,61.762 109.5,61.5C 109.38,64.2048 110.38,64.8715 112.5,63.5C 113.298,63.9569 113.631,64.6236 113.5,65.5 Z"/></g>
<g><path style="opacity:1" fill="#e9b351" d="M 134.5,57.5 C 132.688,57.2287 131.022,56.562 129.5,55.5C 130.711,53.5781 132.044,51.7448 133.5,50C 133.167,49.8333 132.833,49.6667 132.5,49.5C 130.169,52.1576 127.836,54.8243 125.5,57.5C 124.5,57.5 123.5,57.5 122.5,57.5C 122.833,56.1667 123.167,54.8333 123.5,53.5C 125.371,53.1412 126.871,52.1412 128,50.5C 129.777,47.2801 131.277,43.9467 132.5,40.5C 133.607,45.4744 134.607,50.4744 135.5,55.5C 135.457,56.4164 135.124,57.0831 134.5,57.5 Z"/></g>
<g><path style="opacity:1" fill="#7c4f0b" d="M 139.5,33.5 C 140.239,33.369 140.906,33.5357 141.5,34C 140.829,34.9862 140.829,36.1529 141.5,37.5C 139.55,42.7351 138.883,48.4018 139.5,54.5C 138.51,48.69 138.177,42.69 138.5,36.5C 139.404,35.791 139.737,34.791 139.5,33.5 Z"/></g>
<g><path style="opacity:1" fill="#883846" d="M 75.5,48.5 C 76.1174,48.6107 76.6174,48.944 77,49.5C 77.1667,52.1667 77.3333,54.8333 77.5,57.5C 77.4783,60.5902 76.8117,63.2568 75.5,65.5C 75.5,59.8333 75.5,54.1667 75.5,48.5 Z"/></g>
<g><path style="opacity:1" fill="#7a2c27" d="M 103.5,35.5 C 103.177,42.0221 103.51,48.3554 104.5,54.5C 104.5,54.8333 104.5,55.1667 104.5,55.5C 103.222,55.7822 102.222,56.4489 101.5,57.5C 101.334,51.4908 101.501,45.4908 102,39.5C 102.21,37.9419 102.71,36.6085 103.5,35.5 Z"/></g>
<g><path style="opacity:1" fill="#e38957" d="M 121.5,31.5 C 122.791,31.2627 123.791,31.596 124.5,32.5C 125.292,33.5181 126.959,33.8514 129.5,33.5C 130.98,41.3371 128.98,48.0038 123.5,53.5C 120.75,55.5297 117.75,57.1964 114.5,58.5C 112.542,56.5644 110.876,54.3977 109.5,52C 109.905,51.0546 110.572,50.3879 111.5,50C 110.267,48.3023 109.6,46.3023 109.5,44C 109.833,42.1667 110.167,40.3333 110.5,38.5C 111.833,39.5 113.167,40.5 114.5,41.5C 115.487,38.2317 115.82,34.8984 115.5,31.5C 117.5,31.5 119.5,31.5 121.5,31.5 Z"/></g>
<g><path style="opacity:1" fill="#573c39" d="M 115.5,43.5 C 117.205,44.0881 118.872,44.4214 120.5,44.5C 119.335,45.5836 118.002,46.4169 116.5,47C 118.577,47.1922 120.577,47.6922 122.5,48.5C 121.754,49.7362 121.421,51.0695 121.5,52.5C 119.5,52.5 117.5,52.5 115.5,52.5C 115.52,50.857 114.853,49.5237 113.5,48.5C 115.005,47.1585 115.672,45.4918 115.5,43.5 Z"/></g>
<g><path style="opacity:1" fill="#e3b359" d="M 134.5,28.5 C 136.459,30.7847 137.792,33.4513 138.5,36.5C 138.177,42.69 138.51,48.69 139.5,54.5C 139.784,56.4147 139.451,58.0813 138.5,59.5C 137.083,52.5938 136.25,45.5938 136,38.5C 135.08,38.0698 134.247,37.7365 133.5,37.5C 136.121,35.1282 135.788,34.4616 132.5,35.5C 131.251,32.6216 131.918,30.2882 134.5,28.5 Z"/></g>
<g><path style="opacity:1" fill="#9c7049" d="M 134.5,28.5 C 131.918,30.2882 131.251,32.6216 132.5,35.5C 135.788,34.4616 136.121,35.1282 133.5,37.5C 134.247,37.7365 135.08,38.0698 136,38.5C 136.25,45.5938 137.083,52.5938 138.5,59.5C 137.005,59.0113 135.671,58.3446 134.5,57.5C 135.124,57.0831 135.457,56.4164 135.5,55.5C 134.607,50.4744 133.607,45.4744 132.5,40.5C 131.277,43.9467 129.777,47.2801 128,50.5C 126.871,52.1412 125.371,53.1412 123.5,53.5C 128.98,48.0038 130.98,41.3371 129.5,33.5C 130.709,31.5654 130.542,29.5654 129,27.5C 128.517,28.448 128.351,29.448 128.5,30.5C 127.325,30.719 126.325,30.3857 125.5,29.5C 126.853,28.4763 127.52,27.143 127.5,25.5C 127.56,24.9569 127.893,24.6236 128.5,24.5C 129.345,26.7619 130.678,27.4286 132.5,26.5C 133.522,26.8555 134.189,27.5222 134.5,28.5 Z"/></g>
<g><path style="opacity:1" fill="#453432" d="M 119.5,34.5 C 121.92,34.2924 124.253,34.6258 126.5,35.5C 127.844,38.8223 126.844,39.8223 123.5,38.5C 123.167,39.1667 122.833,39.8333 122.5,40.5C 120.077,39.2882 119.077,37.2882 119.5,34.5 Z"/></g>
<g><path style="opacity:1" fill="#86614e" d="M 121.5,31.5 C 119.5,31.5 117.5,31.5 115.5,31.5C 115.82,34.8984 115.487,38.2317 114.5,41.5C 113.167,40.5 111.833,39.5 110.5,38.5C 110.167,40.3333 109.833,42.1667 109.5,44C 109.6,46.3023 110.267,48.3023 111.5,50C 110.572,50.3879 109.905,51.0546 109.5,52C 110.876,54.3977 112.542,56.5644 114.5,58.5C 117.75,57.1964 120.75,55.5297 123.5,53.5C 123.167,54.8333 122.833,56.1667 122.5,57.5C 122.167,57.5 121.833,57.5 121.5,57.5C 117.202,57.347 115.202,59.347 115.5,63.5C 116.5,63.5 117.5,63.5 118.5,63.5C 118.167,64.1667 117.833,64.8333 117.5,65.5C 116.167,65.5 114.833,65.5 113.5,65.5C 113.631,64.6236 113.298,63.9569 112.5,63.5C 110.38,64.8715 109.38,64.2048 109.5,61.5C 110.978,61.762 112.311,61.4287 113.5,60.5C 111.54,59.4808 109.54,59.4808 107.5,60.5C 107.646,58.0576 106.813,57.3909 105,58.5C 104.517,57.552 104.351,56.552 104.5,55.5C 104.5,55.1667 104.5,54.8333 104.5,54.5C 104.176,47.6457 104.509,40.979 105.5,34.5C 105.17,40.8682 105.504,47.2015 106.5,53.5C 107.072,45.7421 108.072,38.0755 109.5,30.5C 112.807,30.9368 115.807,30.2702 118.5,28.5C 120.213,28.8793 121.213,29.8793 121.5,31.5 Z"/></g>
<g><path style="opacity:1" fill="#362729" d="M 75.5,48.5 C 75.5,54.1667 75.5,59.8333 75.5,65.5C 74.087,68.2186 73.4203,71.2186 73.5,74.5C 78.6028,79.0515 84.6028,82.0515 91.5,83.5C 91.1559,80.3799 91.8225,77.5466 93.5,75C 91.4029,71.7138 91.0695,68.2138 92.5,64.5C 95.8191,62.3685 98.8191,60.0352 101.5,57.5C 102.222,56.4489 103.222,55.7822 104.5,55.5C 104.351,56.552 104.517,57.552 105,58.5C 106.813,57.3909 107.646,58.0576 107.5,60.5C 105.433,60.5323 104.1,61.5323 103.5,63.5C 104.264,66.9732 106.43,68.9732 110,69.5C 110.74,67.6813 111.907,66.3479 113.5,65.5C 112.783,67.9366 111.783,70.2699 110.5,72.5C 106.233,71.2316 103.233,68.5649 101.5,64.5C 100.311,63.5713 98.9778,63.238 97.5,63.5C 97.1936,66.3854 97.5269,69.0521 98.5,71.5C 98.6716,72.4916 98.3382,73.1583 97.5,73.5C 97.19,72.2617 96.69,72.2617 96,73.5C 93.6825,79.4547 91.6825,85.4547 90,91.5C 89.7978,89.7444 89.2978,88.0777 88.5,86.5C 85.0198,84.8343 81.6864,83.0009 78.5,81C 76.5355,80.376 74.8689,80.876 73.5,82.5C 74.6302,83.6223 75.2969,84.9557 75.5,86.5C 76.4959,86.4142 77.3292,86.7476 78,87.5C 78.3333,86.8333 78.6667,86.1667 79,85.5C 79.49,86.7932 79.6567,88.1266 79.5,89.5C 77.7483,89.4176 76.7483,90.2509 76.5,92C 77.741,93.7309 78.741,95.5642 79.5,97.5C 76.2424,95.2494 73.2424,92.5828 70.5,89.5C 69.5713,88.3112 69.238,86.9778 69.5,85.5C 67.8333,85.5 66.1667,85.5 64.5,85.5C 63.5076,93.3159 63.1743,101.316 63.5,109.5C 63.1667,109.5 62.8333,109.5 62.5,109.5C 62.8315,100.475 62.4982,91.4754 61.5,82.5C 60.8076,81.9747 60.3076,81.3081 60,80.5C 58.2568,104.977 58.0901,129.31 59.5,153.5C 59.1583,154.338 58.4916,154.672 57.5,154.5C 57.5,138.167 57.5,121.833 57.5,105.5C 57.8264,96.6506 57.493,87.9839 56.5,79.5C 52.8651,76.2548 50.1984,72.2548 48.5,67.5C 46.4501,58.8962 45.4501,50.3962 45.5,42C 48.0913,36.2145 51.758,31.0479 56.5,26.5C 57.4656,24.604 57.7989,22.604 57.5,20.5C 60.1667,20.5 62.8333,20.5 65.5,20.5C 65.3379,22.5273 65.5045,24.5273 66,26.5C 72.7452,32.2204 75.9119,39.5537 75.5,48.5 Z"/></g>
<g><path style="opacity:1" fill="#efecee" d="M 48.5,44.5 C 49.8333,46.8333 51.1667,49.1667 52.5,51.5C 56.489,57.1548 61.1556,62.1548 66.5,66.5C 64.5853,66.2155 62.9187,66.5489 61.5,67.5C 60.448,67.6495 59.448,67.4828 58.5,67C 55.9638,64.295 53.2971,61.795 50.5,59.5C 48.7579,54.6923 48.0912,49.6923 48.5,44.5 Z"/></g>
<g><path style="opacity:1" fill="#271d2b" d="M 50.5,59.5 C 53.2971,61.795 55.9638,64.295 58.5,67C 59.448,67.4828 60.448,67.6495 61.5,67.5C 60.8166,69.1765 59.4832,69.8432 57.5,69.5C 55.1667,66.1667 52.8333,62.8333 50.5,59.5 Z"/></g>
<g><path style="opacity:1" fill="#eae9eb" d="M 50.5,59.5 C 52.8333,62.8333 55.1667,66.1667 57.5,69.5C 56.2463,71.3569 56.2463,73.3569 57.5,75.5C 57.1667,75.8333 56.8333,76.1667 56.5,76.5C 52.9893,71.979 50.3227,66.979 48.5,61.5C 48.7472,60.2867 49.4138,59.62 50.5,59.5 Z"/></g>
<g><path style="opacity:1" fill="#656166" d="M 51.5,35.5 C 51.8417,34.6618 52.5084,34.3284 53.5,34.5C 55.9541,39.4081 58.4541,44.4081 61,49.5C 64.7451,54.3978 68.2451,59.3978 71.5,64.5C 63.0022,56.8537 57.0022,47.5204 53.5,36.5C 53.0431,35.7025 52.3764,35.3691 51.5,35.5 Z"/></g>
<g><path style="opacity:1" fill="#f3f1f4" d="M 51.5,35.5 C 52.3764,35.3691 53.0431,35.7025 53.5,36.5C 57.0022,47.5204 63.0022,56.8537 71.5,64.5C 72.4124,65.7382 72.5791,67.0715 72,68.5C 64.6673,63.6668 58.5006,57.6668 53.5,50.5C 51.1191,46.5191 50.1191,42.1857 50.5,37.5C 50.8333,36.8333 51.1667,36.1667 51.5,35.5 Z"/></g>
<g><path style="opacity:1" fill="#f3f1f4" d="M 61.5,32.5 C 61.7376,34.4044 62.7376,35.7377 64.5,36.5C 67.0604,40.5698 70.2271,44.2365 74,47.5C 74.6667,49.5 74.6667,51.5 74,53.5C 72.2814,50.7121 70.1148,48.3788 67.5,46.5C 69.3967,49.947 71.5633,53.2804 74,56.5C 74.6667,58.5 74.6667,60.5 74,62.5C 73.5831,63.756 72.7498,64.4226 71.5,64.5C 68.2451,59.3978 64.7451,54.3978 61,49.5C 58.4541,44.4081 55.9541,39.4081 53.5,34.5C 55.1457,32.8543 56.8123,31.1877 58.5,29.5C 59.2876,30.7701 60.2876,31.7701 61.5,32.5 Z"/></g>
<g><path style="opacity:1" fill="#83757e" d="M 50.5,37.5 C 50.1191,42.1857 51.1191,46.5191 53.5,50.5C 52.8333,50.5 52.5,50.8333 52.5,51.5C 51.1667,49.1667 49.8333,46.8333 48.5,44.5C 49.0654,42.0479 49.7321,39.7146 50.5,37.5 Z"/></g>
<g><path style="opacity:1" fill="#5c585d" d="M 67.5,46.5 C 63.2196,43.7475 60.3863,40.0808 59,35.5C 62.0726,39.0613 64.9059,42.728 67.5,46.5 Z"/></g>
<g><path style="opacity:1" fill="#353237" d="M 61.5,32.5 C 63.2624,33.2623 64.2624,34.5956 64.5,36.5C 62.7376,35.7377 61.7376,34.4044 61.5,32.5 Z"/></g>
<g><path style="opacity:1" fill="#ececf0" d="M 64.5,36.5 C 64.2624,34.5956 63.2624,33.2623 61.5,32.5C 60.7084,31.0331 60.7084,29.6998 61.5,28.5C 63.7954,29.4318 66.1287,30.2652 68.5,31C 71.8942,35.1422 73.5608,39.6422 73.5,44.5C 70.4802,41.811 67.4802,39.1444 64.5,36.5 Z"/></g>
<g><path style="opacity:1" fill="#301e21" d="M 139.5,33.5 C 139.737,34.791 139.404,35.791 138.5,36.5C 137.792,33.4513 136.459,30.7847 134.5,28.5C 134.189,27.5222 133.522,26.8555 132.5,26.5C 130.678,27.4286 129.345,26.7619 128.5,24.5C 127.893,24.6236 127.56,24.9569 127.5,25.5C 125.22,23.0132 122.553,22.3465 119.5,23.5C 120.025,24.1924 120.692,24.6924 121.5,25C 120.584,25.3742 119.75,25.8742 119,26.5C 116.752,23.1382 117.418,21.1382 121,20.5C 123.871,21.4014 126.704,22.4014 129.5,23.5C 130.666,21.8327 130.666,20.166 129.5,18.5C 128.976,16.6943 128.309,15.0276 127.5,13.5C 126.032,12.2209 125.365,10.5542 125.5,8.5C 122.474,8.83746 120.474,10.5041 119.5,13.5C 117.896,14.287 117.229,15.6203 117.5,17.5C 115.743,18.292 114.409,19.6253 113.5,21.5C 114.025,22.1924 114.692,22.6924 115.5,23C 113.473,24.3957 113.14,26.0624 114.5,28C 112.702,27.9942 111.035,27.6609 109.5,27C 107.506,29.1575 106.172,31.6575 105.5,34.5C 104.509,40.979 104.176,47.6457 104.5,54.5C 103.51,48.3554 103.177,42.0221 103.5,35.5C 104.272,30.6268 106.605,26.6268 110.5,23.5C 113.452,16.9141 117.119,10.9141 121.5,5.5C 124.792,5.11955 127.125,6.45289 128.5,9.5C 129.39,12.3939 130.724,15.0606 132.5,17.5C 133.314,19.7662 133.814,22.0995 134,24.5C 136.668,27.0228 138.501,30.0228 139.5,33.5 Z"/></g>
<g><path style="opacity:1" fill="#2c1716" d="M 129.5,33.5 C 126.959,33.8514 125.292,33.5181 124.5,32.5C 126.288,32.7852 127.955,32.4519 129.5,31.5C 129.376,30.8933 129.043,30.56 128.5,30.5C 128.351,29.448 128.517,28.448 129,27.5C 130.542,29.5654 130.709,31.5654 129.5,33.5 Z"/></g>
<g><path style="opacity:1" fill="#deaf50" d="M 117.5,17.5 C 121.566,17.307 125.566,17.6403 129.5,18.5C 130.666,20.166 130.666,21.8327 129.5,23.5C 126.704,22.4014 123.871,21.4014 121,20.5C 117.418,21.1382 116.752,23.1382 119,26.5C 119.75,25.8742 120.584,25.3742 121.5,25C 120.692,24.6924 120.025,24.1924 119.5,23.5C 122.553,22.3465 125.22,23.0132 127.5,25.5C 127.52,27.143 126.853,28.4763 125.5,29.5C 126.325,30.3857 127.325,30.719 128.5,30.5C 129.043,30.56 129.376,30.8933 129.5,31.5C 127.955,32.4519 126.288,32.7852 124.5,32.5C 123.791,31.596 122.791,31.2627 121.5,31.5C 121.213,29.8793 120.213,28.8793 118.5,28.5C 115.807,30.2702 112.807,30.9368 109.5,30.5C 108.072,38.0755 107.072,45.7421 106.5,53.5C 105.504,47.2015 105.17,40.8682 105.5,34.5C 106.172,31.6575 107.506,29.1575 109.5,27C 111.035,27.6609 112.702,27.9942 114.5,28C 113.14,26.0624 113.473,24.3957 115.5,23C 114.692,22.6924 114.025,22.1924 113.5,21.5C 114.409,19.6253 115.743,18.292 117.5,17.5 Z"/></g>
<g><path style="opacity:1" fill="#f0ebf6" d="M 59.5,22.5 C 60.8333,22.5 62.1667,22.5 63.5,22.5C 63.5,23.8333 63.5,25.1667 63.5,26.5C 62.1667,26.5 60.8333,26.5 59.5,26.5C 59.5,25.1667 59.5,23.8333 59.5,22.5 Z"/></g>
<g><path style="opacity:1" fill="#8b6f4e" d="M 119.5,13.5 C 120.334,14.7479 121.667,15.4146 123.5,15.5C 125.333,15.4146 126.666,14.7479 127.5,13.5C 128.309,15.0276 128.976,16.6943 129.5,18.5C 125.566,17.6403 121.566,17.307 117.5,17.5C 117.229,15.6203 117.896,14.287 119.5,13.5 Z"/></g>
<g><path style="opacity:1" fill="#e7b346" d="M 127.5,13.5 C 126.666,14.7479 125.333,15.4146 123.5,15.5C 121.667,15.4146 120.334,14.7479 119.5,13.5C 120.474,10.5041 122.474,8.83746 125.5,8.5C 125.365,10.5542 126.032,12.2209 127.5,13.5 Z"/></g>
<g><path style="opacity:1" fill="#f7f7f8" d="M 13.5,38.5 C 17.5801,34.3371 19.4134,29.3371 19,23.5C 13.0024,16.9323 13.169,10.4323 19.5,4C 22.5541,3.17858 25.5541,3.34524 28.5,4.5C 26.4226,7.48973 24.7559,10.6564 23.5,14C 23.8584,16.0324 24.6917,17.8657 26,19.5C 25.7468,16.867 25.7468,14.2004 26,11.5C 27.5862,9.32953 28.9196,6.99619 30,4.5C 32.7947,3.21748 35.6281,3.21748 38.5,4.5C 36.5631,7.37602 34.8964,10.376 33.5,13.5C 33.6682,15.1705 34.3349,16.5039 35.5,17.5C 36.0787,20.3311 37.412,22.6644 39.5,24.5C 39.5,24.8333 39.5,25.1667 39.5,25.5C 39.4162,28.3274 38.7496,30.994 37.5,33.5C 35.1716,35.1661 34.1716,37.4995 34.5,40.5C 35.9799,44.6248 37.3132,48.7915 38.5,53C 38.2506,56.4114 37.2506,59.5781 35.5,62.5C 32.983,65.4611 32.983,68.4611 35.5,71.5C 39.8534,77.8702 39.3534,83.8702 34,89.5C 33.3333,91.5 33.3333,93.5 34,95.5C 34.3826,96.056 34.8826,96.3893 35.5,96.5C 35.2291,98.3797 35.8958,99.713 37.5,100.5C 39.5118,106.259 38.3452,111.259 34,115.5C 33.3333,118.167 33.3333,120.833 34,123.5C 34.3826,124.056 34.8826,124.389 35.5,124.5C 36.4897,127.151 37.4897,129.817 38.5,132.5C 36.6911,136.794 34.6911,140.961 32.5,145C 33.1402,147.12 34.1402,148.954 35.5,150.5C 35.427,152.027 36.0937,153.027 37.5,153.5C 39.4285,158.922 38.2618,163.589 34,167.5C 31.4295,173.158 32.5962,177.825 37.5,181.5C 37.6633,183.857 37.4966,186.19 37,188.5C 35.027,191.464 33.527,194.631 32.5,198C 33.034,201.578 34.7007,204.411 37.5,206.5C 37.5,206.833 37.5,207.167 37.5,207.5C 37.7852,209.288 37.4519,210.955 36.5,212.5C 31.895,207.464 27.895,201.964 24.5,196C 25.3195,194.2 25.9862,192.366 26.5,190.5C 25.2058,191.29 24.0391,192.29 23,193.5C 18.4321,186.361 14.9321,178.695 12.5,170.5C 16.3203,166.539 18.1536,161.872 18,156.5C 17.7216,155.584 17.2216,154.918 16.5,154.5C 17.1539,158.839 16.1539,162.673 13.5,166C 12.8333,166.667 12.1667,166.667 11.5,166C 10.5244,160.57 9.69102,155.07 9,149.5C 6.74069,100.85 4.90735,52.1829 3.5,3.5C 8.17853,3.33418 12.8452,3.50085 17.5,4C 15.1789,6.80834 13.5122,9.975 12.5,13.5C 14.5802,17.8308 16.2469,22.3308 17.5,27C 16.3287,30.9624 14.9953,34.7957 13.5,38.5 Z"/></g>
<g><path style="opacity:1" fill="#343139" d="M 25.5,71.5 C 23.5726,68.8632 23.0726,65.8632 24,62.5C 26.1894,59.8202 27.6894,56.8202 28.5,53.5C 27.1205,49.0712 25.4538,44.7379 23.5,40.5C 24.8291,35.6806 26.8291,31.1806 29.5,27C 28.4962,25.2017 27.9962,23.3684 28,21.5C 29.6556,23.1459 30.4889,25.1459 30.5,27.5C 28.5991,31.5694 26.9325,35.7361 25.5,40C 27.4258,44.5295 29.0925,49.1962 30.5,54C 28.5023,58.329 26.5023,62.6624 24.5,67C 25.1476,68.4397 25.4809,69.9397 25.5,71.5 Z"/></g>
<g><path style="opacity:1" fill="#302f33" d="M 13.5,38.5 C 15.3112,43.4557 17.3112,48.289 19.5,53C 17.5721,57.6281 15.5721,62.2948 13.5,67C 14.3295,68.4651 14.4962,69.9651 14,71.5C 13.1667,69.8333 12.3333,68.1667 11.5,66.5C 13.5597,62.1338 15.5597,57.8005 17.5,53.5C 17.072,49.3797 15.572,45.7131 13,42.5C 12.235,40.9343 12.4017,39.6009 13.5,38.5 Z"/></g>
<g><path style="opacity:1" fill="#10111c" d="M 35.5,62.5 C 35.5,65.5 35.5,68.5 35.5,71.5C 32.983,68.4611 32.983,65.4611 35.5,62.5 Z"/></g>
<g><path style="opacity:1" fill="#ccb775" d="M 93.5,67.5 C 96.7094,68.2967 97.2094,69.9634 95,72.5C 94.3923,70.8455 93.8923,69.1789 93.5,67.5 Z"/></g>
<g><path style="opacity:1" fill="#2a1a15" d="M 189.5,62.5 C 190.117,62.6107 190.617,62.944 191,63.5C 192.254,68.3048 191.087,72.3048 187.5,75.5C 188.643,71.2559 189.31,66.9225 189.5,62.5 Z"/></g>
<g><path style="opacity:1" fill="#38393c" d="M 208.5,49.5 C 208.336,52.1873 208.503,54.854 209,57.5C 211.309,60.4522 212.809,63.7855 213.5,67.5C 211.757,71.9838 209.757,76.3171 207.5,80.5C 209.899,84.7999 211.899,89.2999 213.5,94C 212.41,97.0107 210.91,99.844 209,102.5C 208.833,103.833 208.667,105.167 208.5,106.5C 210.085,111.125 211.751,115.792 213.5,120.5C 213.246,122.417 212.246,123.751 210.5,124.5C 212.048,119.231 210.881,114.565 207,110.5C 206.833,109.167 206.667,107.833 206.5,106.5C 207.582,101.918 209.248,97.585 211.5,93.5C 209.948,88.9068 208.281,84.4068 206.5,80C 208.023,75.7859 209.689,71.6193 211.5,67.5C 210.817,63.8014 209.317,60.4681 207,57.5C 206.333,55.1667 206.333,52.8333 207,50.5C 207.383,49.944 207.883,49.6107 208.5,49.5 Z"/></g>
<g><path style="opacity:1" fill="#c98669" d="M 66.5,66.5 C 69.5497,68.5491 71.883,71.2157 73.5,74.5C 73.6621,76.5273 73.4955,78.5273 73,80.5C 72.0138,81.1712 70.8471,81.1712 69.5,80.5C 69.5,81.5 69.5,82.5 69.5,83.5C 64.9188,83.8054 62.0854,81.8054 61,77.5C 60.6667,77.8333 60.3333,78.1667 60,78.5C 59.654,76.7818 59.154,75.1151 58.5,73.5C 58.7093,72.914 59.0426,72.414 59.5,72C 58.244,71.5831 57.5774,70.7498 57.5,69.5C 59.4832,69.8432 60.8166,69.1765 61.5,67.5C 62.9187,66.5489 64.5853,66.2155 66.5,66.5 Z"/></g>
<g><path style="opacity:1" fill="#28171a" d="M 69.5,80.5 C 66.4453,79.2865 63.7786,77.4532 61.5,75C 61.9437,73.4667 62.277,71.9667 62.5,70.5C 63.3567,71.7357 64.0234,73.069 64.5,74.5C 65.325,75.3857 66.325,75.719 67.5,75.5C 67.8308,77.3224 68.4975,78.9891 69.5,80.5 Z"/></g>
<g><path style="opacity:1" fill="#e8ae45" d="M 125.5,57.5 C 129.41,57.2628 133.077,58.0961 136.5,60C 140.5,62 144.5,64 148.5,66C 149.728,66.779 150.728,67.779 151.5,69C 147.384,73.281 143.05,77.4477 138.5,81.5C 136.136,84.5521 134.636,87.8854 134,91.5C 135.673,88.9989 137.507,86.6655 139.5,84.5C 139.833,85.8333 140.167,87.1667 140.5,88.5C 139.161,98.2281 136.828,107.561 133.5,116.5C 131.453,116.511 129.453,116.844 127.5,117.5C 121.668,115.42 116.335,112.586 111.5,109C 112.032,106.98 113.365,106.147 115.5,106.5C 115.833,109.5 117.5,111.167 120.5,111.5C 120.795,107.772 121.461,104.105 122.5,100.5C 124.598,100.043 126.264,99.0428 127.5,97.5C 122.114,98.9772 117.114,101.31 112.5,104.5C 111.514,100.03 111.181,95.3633 111.5,90.5C 111.5,89.5 111.5,88.5 111.5,87.5C 113.346,85.9699 114.346,83.9699 114.5,81.5C 115.268,80.7375 115.768,79.7375 116,78.5C 117.036,80.299 117.203,81.9657 116.5,83.5C 116.259,86.0336 117.259,87.7002 119.5,88.5C 120.622,89.1558 121.955,89.4892 123.5,89.5C 125.333,89.4146 126.666,88.7479 127.5,87.5C 127.5,83.8333 127.5,80.1667 127.5,76.5C 132.372,76.8134 135.706,74.8134 137.5,70.5C 137.444,69.263 136.944,68.263 136,67.5C 135.361,74.6037 132.028,76.2704 126,72.5C 125.836,77.1786 125.836,81.8453 126,86.5C 124.938,87.0968 123.772,87.4302 122.5,87.5C 120.645,87.6598 119.312,86.9931 118.5,85.5C 118.5,82.1667 118.5,78.8333 118.5,75.5C 118.833,72.1667 119.167,68.8333 119.5,65.5C 121.124,65.3601 122.29,66.0267 123,67.5C 124.134,64.7247 125.634,62.2247 127.5,60C 126.244,59.5831 125.577,58.7498 125.5,57.5 Z"/></g>
<g><path style="opacity:1" fill="#352021" d="M 127.5,87.5 C 124.946,88.388 122.279,88.7214 119.5,88.5C 117.259,87.7002 116.259,86.0336 116.5,83.5C 117.167,84.1667 117.833,84.8333 118.5,85.5C 119.312,86.9931 120.645,87.6598 122.5,87.5C 123.772,87.4302 124.938,87.0968 126,86.5C 125.836,81.8453 125.836,77.1786 126,72.5C 132.028,76.2704 135.361,74.6037 136,67.5C 136.944,68.263 137.444,69.263 137.5,70.5C 135.706,74.8134 132.372,76.8134 127.5,76.5C 127.5,80.1667 127.5,83.8333 127.5,87.5 Z"/></g>
<g><path style="opacity:1" fill="#463023" d="M 114.5,81.5 C 114.346,83.9699 113.346,85.9699 111.5,87.5C 111.719,86.325 111.386,85.325 110.5,84.5C 104.406,81.8103 103.906,78.1437 109,73.5C 108.096,76.0256 107.762,78.6922 108,81.5C 110.163,82.768 112.33,82.768 114.5,81.5 Z"/></g>
<g><path style="opacity:1" fill="#211f22" d="M 15.5,99.5 C 13.3339,97.5485 12.0006,95.0485 11.5,92C 13.3172,88.8434 15.1505,85.6767 17,82.5C 17.4248,79.3275 17.0915,76.3275 16,73.5C 17.6965,75.5596 18.8631,77.8929 19.5,80.5C 17.5,84.5 15.5,88.5 13.5,92.5C 14.1734,94.851 14.8401,97.1843 15.5,99.5 Z"/></g>
<g><path style="opacity:1" fill="#6f4f1e" d="M 116.5,75.5 C 116.938,76.5063 117.604,76.5063 118.5,75.5C 118.5,78.8333 118.5,82.1667 118.5,85.5C 117.833,84.8333 117.167,84.1667 116.5,83.5C 117.203,81.9657 117.036,80.299 116,78.5C 115.768,79.7375 115.268,80.7375 114.5,81.5C 114.259,79.1016 114.926,77.1016 116.5,75.5 Z"/></g>
<g><path style="opacity:1" fill="#202120" d="M 197.5,57.5 C 199.722,60.2624 201.388,63.4291 202.5,67C 200.493,71.3457 198.493,75.6791 196.5,80C 197.28,82.6785 198.113,85.1785 199,87.5C 196.865,85.3983 195.365,82.8983 194.5,80C 196.956,75.8771 198.956,71.5437 200.5,67C 199.346,63.865 198.346,60.6983 197.5,57.5 Z"/></g>
<g><path style="opacity:1" fill="#ebedec" d="M 62.5,109.5 C 62.6666,122.504 62.4999,135.504 62,148.5C 61.1534,150.193 60.3201,151.86 59.5,153.5C 58.0901,129.31 58.2568,104.977 60,80.5C 60.3076,81.3081 60.8076,81.9747 61.5,82.5C 62.4982,91.4754 62.8315,100.475 62.5,109.5 Z"/></g>
<g><path style="opacity:1" fill="#3b262e" d="M 35.5,71.5 C 36.4822,72.1408 37.4822,72.8075 38.5,73.5C 39.6609,77.7953 39.8275,82.1287 39,86.5C 36.2389,89.2411 35.0722,92.5744 35.5,96.5C 34.8826,96.3893 34.3826,96.056 34,95.5C 33.3333,93.5 33.3333,91.5 34,89.5C 39.3534,83.8702 39.8534,77.8702 35.5,71.5 Z"/></g>
<g><path style="opacity:1" fill="#eb2f33" d="M 64.5,85.5 C 66.1667,85.5 67.8333,85.5 69.5,85.5C 69.238,86.9778 69.5713,88.3112 70.5,89.5C 73.2424,92.5828 76.2424,95.2494 79.5,97.5C 81.4044,97.7376 82.7377,98.7376 83.5,100.5C 83.7214,101.735 84.3881,102.735 85.5,103.5C 88.8177,104.67 92.151,104.67 95.5,103.5C 100.674,104.698 102.674,108.032 101.5,113.5C 96.5879,117.521 91.9213,121.854 87.5,126.5C 86.3112,127.429 84.9778,127.762 83.5,127.5C 83.1692,129.322 82.5025,130.989 81.5,132.5C 79.368,132.554 78.0347,133.554 77.5,135.5C 74.733,135.87 72.733,137.204 71.5,139.5C 68.9437,140.378 66.6104,141.711 64.5,143.5C 63.5052,138.208 63.1718,132.875 63.5,127.5C 64.1174,127.611 64.6174,127.944 65,128.5C 65.1667,126 65.3333,123.5 65.5,121C 65.4524,108.853 65.119,97.0196 64.5,85.5 Z"/></g>
<g><path style="opacity:1" fill="#e4ad45" d="M 113.5,65.5 C 114.833,65.5 116.167,65.5 117.5,65.5C 117.167,68.8333 116.833,72.1667 116.5,75.5C 114.926,77.1016 114.259,79.1016 114.5,81.5C 112.33,82.768 110.163,82.768 108,81.5C 107.762,78.6922 108.096,76.0256 109,73.5C 103.906,78.1437 104.406,81.8103 110.5,84.5C 111.386,85.325 111.719,86.325 111.5,87.5C 109.915,90.9003 108.748,94.567 108,98.5C 104.847,96.1852 102.68,93.1852 101.5,89.5C 102.069,85.6707 101.402,82.3373 99.5,79.5C 99.8064,76.6146 99.4731,73.9479 98.5,71.5C 97.5269,69.0521 97.1936,66.3854 97.5,63.5C 98.9778,63.238 100.311,63.5713 101.5,64.5C 103.233,68.5649 106.233,71.2316 110.5,72.5C 111.783,70.2699 112.783,67.9366 113.5,65.5 Z"/></g>
<g><path style="opacity:1" fill="#ca9e71" d="M 99.5,79.5 C 101.402,82.3373 102.069,85.6707 101.5,89.5C 100.778,89.0825 100.278,88.4158 100,87.5C 99.5026,84.854 99.3359,82.1873 99.5,79.5 Z"/></g>
<g><path style="opacity:1" fill="#e0b454" d="M 75.5,86.5 C 76.686,88.1942 76.5193,89.8608 75,91.5C 71.8501,89.8715 71.0168,87.5382 72.5,84.5C 73.5178,85.1925 74.5178,85.8592 75.5,86.5 Z"/></g>
<g><path style="opacity:1" fill="#989381" d="M 127.5,87.5 C 126.666,88.7479 125.333,89.4146 123.5,89.5C 121.955,89.4892 120.622,89.1558 119.5,88.5C 122.279,88.7214 124.946,88.388 127.5,87.5 Z"/></g>
<g><path style="opacity:1" fill="#eab146" d="M 97.5,73.5 C 96.4795,80.7783 97.8128,87.445 101.5,93.5C 100.025,95.8092 98.3581,97.9759 96.5,100C 95.8333,100.667 95.1667,100.667 94.5,100C 89.6022,96.2549 84.6022,92.7549 79.5,89.5C 79.6567,88.1266 79.49,86.7932 79,85.5C 78.6667,86.1667 78.3333,86.8333 78,87.5C 77.3292,86.7476 76.4959,86.4142 75.5,86.5C 75.2969,84.9557 74.6302,83.6223 73.5,82.5C 74.8689,80.876 76.5355,80.376 78.5,81C 81.6864,83.0009 85.0198,84.8343 88.5,86.5C 89.2978,88.0777 89.7978,89.7444 90,91.5C 91.6825,85.4547 93.6825,79.4547 96,73.5C 96.69,72.2617 97.19,72.2617 97.5,73.5 Z"/></g>
<g><path style="opacity:1" fill="#d9bf9c" d="M 111.5,90.5 C 111.181,95.3633 111.514,100.03 112.5,104.5C 112.217,105.289 111.717,105.956 111,106.5C 110.183,100.984 110.349,95.6503 111.5,90.5 Z"/></g>
<g><path style="opacity:1" fill="#52382e" d="M 98.5,71.5 C 99.4731,73.9479 99.8064,76.6146 99.5,79.5C 99.3359,82.1873 99.5026,84.854 100,87.5C 100.278,88.4158 100.778,89.0825 101.5,89.5C 102.68,93.1852 104.847,96.1852 108,98.5C 108.748,94.567 109.915,90.9003 111.5,87.5C 111.5,88.5 111.5,89.5 111.5,90.5C 110.349,95.6503 110.183,100.984 111,106.5C 111.717,105.956 112.217,105.289 112.5,104.5C 117.114,101.31 122.114,98.9772 127.5,97.5C 126.264,99.0428 124.598,100.043 122.5,100.5C 121.461,104.105 120.795,107.772 120.5,111.5C 117.5,111.167 115.833,109.5 115.5,106.5C 113.365,106.147 112.032,106.98 111.5,109C 116.335,112.586 121.668,115.42 127.5,117.5C 129.453,116.844 131.453,116.511 133.5,116.5C 134.492,116.328 135.158,116.662 135.5,117.5C 133.219,117.077 131.552,117.744 130.5,119.5C 130.833,120.167 131.167,120.833 131.5,121.5C 124.951,118.892 118.618,115.726 112.5,112C 111.216,111.316 110.049,111.483 109,112.5C 108.036,108.204 107.203,103.87 106.5,99.5C 105.914,99.2907 105.414,98.9574 105,98.5C 104.259,101.562 104.425,104.562 105.5,107.5C 104.348,109.793 103.015,111.793 101.5,113.5C 102.674,108.032 100.674,104.698 95.5,103.5C 92.151,104.67 88.8177,104.67 85.5,103.5C 84.3881,102.735 83.7214,101.735 83.5,100.5C 85.7345,101.447 88.0678,102.114 90.5,102.5C 91.5,102.167 92.5,101.833 93.5,101.5C 88.1546,98.1444 83.488,94.1444 79.5,89.5C 84.6022,92.7549 89.6022,96.2549 94.5,100C 95.1667,100.667 95.8333,100.667 96.5,100C 98.3581,97.9759 100.025,95.8092 101.5,93.5C 97.8128,87.445 96.4795,80.7783 97.5,73.5C 98.3382,73.1583 98.6716,72.4916 98.5,71.5 Z"/></g>
<g><path style="opacity:1" fill="#251718" d="M 127.5,97.5 C 128.901,94.6855 130.901,93.3521 133.5,93.5C 131.736,95.2776 129.736,96.6109 127.5,97.5 Z"/></g>
<g><path style="opacity:1" fill="#741719" d="M 56.5,79.5 C 57.493,87.9839 57.8264,96.6506 57.5,105.5C 57.1667,105.5 56.8333,105.5 56.5,105.5C 55.7026,96.7024 55.7026,88.0357 56.5,79.5 Z"/></g>
<g><path style="opacity:1" fill="#e6ae41" d="M 79.5,89.5 C 83.488,94.1444 88.1546,98.1444 93.5,101.5C 92.5,101.833 91.5,102.167 90.5,102.5C 88.0678,102.114 85.7345,101.447 83.5,100.5C 82.7377,98.7376 81.4044,97.7376 79.5,97.5C 78.741,95.5642 77.741,93.7309 76.5,92C 76.7483,90.2509 77.7483,89.4176 79.5,89.5 Z"/></g>
<g><path style="opacity:1" fill="#e3b44e" d="M 101.5,96.5 C 102.239,96.369 102.906,96.5357 103.5,97C 102.88,99.4728 102.214,101.973 101.5,104.5C 100.167,103.5 98.8333,102.5 97.5,101.5C 98.8569,99.8144 100.19,98.1477 101.5,96.5 Z"/></g>
<g><path style="opacity:1" fill="#282729" d="M 25.5,71.5 C 27.7769,73.874 29.4435,76.7073 30.5,80C 28.3599,84.4461 26.3599,88.9461 24.5,93.5C 26.7302,97.8971 28.7302,102.397 30.5,107C 28.2287,111.084 26.2287,115.251 24.5,119.5C 26.3341,124.008 28.3341,128.508 30.5,133C 29.3048,136.56 27.4715,139.726 25,142.5C 24.3658,145.555 24.5325,148.555 25.5,151.5C 23.4672,150.102 22.4672,148.102 22.5,145.5C 24.1351,141.037 26.1351,136.704 28.5,132.5C 26.2638,128.1 24.2638,123.6 22.5,119C 24.9065,114.905 26.9065,110.571 28.5,106C 26.2863,101.901 24.6196,97.5678 23.5,93C 25.145,88.6779 26.8117,84.3445 28.5,80C 27.6334,77.1042 26.6334,74.2709 25.5,71.5 Z"/></g>
<g><path style="opacity:1" fill="#f0b948" d="M 115.5,103.5 C 116.833,103.5 118.167,103.5 119.5,103.5C 119.02,109.76 117.686,109.76 115.5,103.5 Z"/></g>
<g><path style="opacity:1" fill="#212227" d="M 15.5,99.5 C 17.6801,101.031 18.6801,103.198 18.5,106C 17.9636,109.907 16.4636,113.407 14,116.5C 13.5046,119.531 13.6713,122.531 14.5,125.5C 12.9394,123.509 11.9394,121.176 11.5,118.5C 12.7302,115.709 14.2302,113.042 16,110.5C 16.5787,106.797 16.412,103.131 15.5,99.5 Z"/></g>
<g><path style="opacity:1" fill="#e8ae44" d="M 131.5,121.5 C 133.861,121.674 136.194,122.007 138.5,122.5C 140.105,129.757 140.605,137.09 140,144.5C 137.386,148.09 134.552,151.424 131.5,154.5C 132.159,151.839 133.492,149.506 135.5,147.5C 132.833,146.833 130.167,146.167 127.5,145.5C 125.73,144.18 125.397,142.68 126.5,141C 125.04,139.418 123.373,138.085 121.5,137C 122,136.5 122.5,136 123,135.5C 124.167,136.667 125.333,137.833 126.5,139C 127.449,139.617 128.282,139.451 129,138.5C 130.333,142.5 131.667,142.5 133,138.5C 134.314,139.313 135.481,140.313 136.5,141.5C 137.739,139.993 137.405,138.826 135.5,138C 136.938,137.781 138.271,137.281 139.5,136.5C 138.5,135.167 137.5,133.833 136.5,132.5C 137.441,132.511 138.108,132.011 138.5,131C 138.095,130.055 137.428,129.388 136.5,129C 137.517,127.951 137.684,126.784 137,125.5C 133.324,124.417 129.324,123.417 125,122.5C 123.189,121.576 123.355,120.743 125.5,120C 120.502,119.277 115.668,118.111 111,116.5C 109.853,117.458 108.853,117.125 108,115.5C 107.506,117.134 107.34,118.801 107.5,120.5C 106.167,120.5 104.833,120.5 103.5,120.5C 103.657,121.873 103.49,123.207 103,124.5C 102.346,123.304 101.846,123.304 101.5,124.5C 103.252,126.597 105.252,128.263 107.5,129.5C 105.115,131.263 102.448,132.763 99.5,134C 94.4671,134.171 89.4671,134.671 84.5,135.5C 90.8442,136.485 97.1775,136.652 103.5,136C 97.1075,143.364 89.1075,147.198 79.5,147.5C 77.795,146.465 76.1284,146.465 74.5,147.5C 73.2072,149.636 73.2072,151.636 74.5,153.5C 75.3238,157.312 75.8238,161.312 76,165.5C 78.4546,170.319 80.4546,175.319 82,180.5C 85.4696,183.628 88.1362,187.295 90,191.5C 91.3453,200.165 91.512,208.832 90.5,217.5C 88.3379,219.02 86.0046,220.02 83.5,220.5C 84.5236,217.445 85.8569,214.445 87.5,211.5C 83.1966,212.888 80.8633,216.221 80.5,221.5C 79.5489,222.919 79.2155,224.585 79.5,226.5C 78.3509,226.209 77.6842,225.376 77.5,224C 78.8587,217.467 78.692,210.967 77,204.5C 75.8867,202.671 74.3867,201.837 72.5,202C 73.1029,203.825 73.7696,205.659 74.5,207.5C 75.1667,214.5 75.8333,221.5 76.5,228.5C 78.6415,229.952 80.9748,230.952 83.5,231.5C 83.56,232.043 83.8933,232.376 84.5,232.5C 86.1151,231.846 87.7818,231.346 89.5,231C 92.9076,229.165 96.2409,227.332 99.5,225.5C 100.833,224.833 102.167,224.167 103.5,223.5C 108.854,223.569 114.187,223.902 119.5,224.5C 121.137,225.218 122.803,225.384 124.5,225C 117.759,220.998 110.426,219.498 102.5,220.5C 105.977,219.677 109.644,219.177 113.5,219C 111.423,218.808 109.423,218.308 107.5,217.5C 109.261,215.632 111.261,214.299 113.5,213.5C 115.575,213.698 117.575,213.865 119.5,214C 117.253,212.723 115.253,211.223 113.5,209.5C 113.787,207.879 114.787,206.879 116.5,206.5C 117.429,205.311 117.762,203.978 117.5,202.5C 120.319,206.556 123.319,210.556 126.5,214.5C 126.833,214 127.167,213.5 127.5,213C 126.275,210.054 124.942,207.22 123.5,204.5C 123.67,203.178 123.337,202.011 122.5,201C 125.047,199.559 127.547,199.059 130,199.5C 130.617,200.449 130.451,201.282 129.5,202C 130.5,202.333 131.5,202.667 132.5,203C 131.762,205.503 132.762,207.337 135.5,208.5C 136.822,211.145 138.156,213.811 139.5,216.5C 134.753,230.207 125.419,234.874 111.5,230.5C 102.353,231.693 93.1866,232.693 84,233.5C 77.4646,232.649 71.9646,229.816 67.5,225C 62.2765,223.282 57.2765,221.115 52.5,218.5C 51.5046,212.872 51.1712,207.206 51.5,201.5C 52.603,188.723 54.603,176.056 57.5,163.5C 60.3625,160.939 61.6959,157.606 61.5,153.5C 62.4617,150.243 63.9617,147.243 66,144.5C 68.3284,143.336 70.1618,141.67 71.5,139.5C 73.8525,138.66 75.8525,137.326 77.5,135.5C 79.4044,135.262 80.7377,134.262 81.5,132.5C 87.5489,128.633 93.2156,124.133 98.5,119C 99.448,118.517 100.448,118.351 101.5,118.5C 101.5,116.833 101.5,115.167 101.5,113.5C 103.015,111.793 104.348,109.793 105.5,107.5C 104.425,104.562 104.259,101.562 105,98.5C 105.414,98.9574 105.914,99.2907 106.5,99.5C 107.203,103.87 108.036,108.204 109,112.5C 110.049,111.483 111.216,111.316 112.5,112C 118.618,115.726 124.951,118.892 131.5,121.5 Z"/></g>
<g><path style="opacity:1" fill="#a5343d" d="M 64.5,85.5 C 65.119,97.0196 65.4524,108.853 65.5,121C 65.3333,123.5 65.1667,126 65,128.5C 64.6174,127.944 64.1174,127.611 63.5,127.5C 63.5,121.5 63.5,115.5 63.5,109.5C 63.1743,101.316 63.5076,93.3159 64.5,85.5 Z"/></g>
<g><path style="opacity:1" fill="#e7c858" d="M 135.5,117.5 C 136.404,118.209 136.737,119.209 136.5,120.5C 134.5,120.167 132.5,119.833 130.5,119.5C 131.552,117.744 133.219,117.077 135.5,117.5 Z"/></g>
<g><path style="opacity:1" fill="#4e2d37" d="M 37.5,100.5 C 38.8001,102.223 39.4668,104.39 39.5,107C 37.5935,112.697 36.2602,118.53 35.5,124.5C 34.8826,124.389 34.3826,124.056 34,123.5C 33.3333,120.833 33.3333,118.167 34,115.5C 38.3452,111.259 39.5118,106.259 37.5,100.5 Z"/></g>
<g><path style="opacity:1" fill="#3a2024" d="M 101.5,113.5 C 101.5,115.167 101.5,116.833 101.5,118.5C 100.448,118.351 99.448,118.517 98.5,119C 93.2156,124.133 87.5489,128.633 81.5,132.5C 82.5025,130.989 83.1692,129.322 83.5,127.5C 84.9778,127.762 86.3112,127.429 87.5,126.5C 91.9213,121.854 96.5879,117.521 101.5,113.5 Z"/></g>
<g><path style="opacity:1" fill="#41231f" d="M 187.5,75.5 C 186.565,78.1128 186.398,80.7795 187,83.5C 189.859,86.2191 191.359,89.5524 191.5,93.5C 190.092,97.9741 188.425,102.307 186.5,106.5C 187.474,111.276 189.14,115.776 191.5,120C 189.523,124.29 187.523,128.624 185.5,133C 186.148,134.44 186.481,135.94 186.5,137.5C 184.959,136.442 183.959,134.942 183.5,133C 184.935,128.46 186.935,124.127 189.5,120C 188.254,115.579 186.254,111.579 183.5,108C 185.399,103.084 187.399,98.2509 189.5,93.5C 188.293,88.7559 186.293,84.4226 183.5,80.5C 183.355,77.6459 184.688,75.9792 187.5,75.5 Z"/></g>
<g><path style="opacity:1" fill="#151717" d="M 210.5,124.5 C 210.573,126.027 209.906,127.027 208.5,127.5C 208.427,125.973 209.094,124.973 210.5,124.5 Z"/></g>
<g><path style="opacity:1" fill="#322f30" d="M 196.5,136.5 C 195.883,136.389 195.383,136.056 195,135.5C 194.333,133.5 194.333,131.5 195,129.5C 197.859,126.781 199.359,123.448 199.5,119.5C 198.132,115.089 196.465,110.756 194.5,106.5C 196.073,102.355 197.907,98.355 200,94.5C 200.305,92.4432 200.305,90.4432 200,88.5C 201.363,89.8928 202.196,91.5595 202.5,93.5C 200.218,97.7293 198.218,102.063 196.5,106.5C 198.57,110.815 200.237,115.315 201.5,120C 200.699,123.439 199.199,126.605 197,129.5C 196.503,131.81 196.337,134.143 196.5,136.5 Z"/></g>
<g><path style="opacity:1" fill="#191013" d="M 62.5,109.5 C 62.8333,109.5 63.1667,109.5 63.5,109.5C 63.5,115.5 63.5,121.5 63.5,127.5C 63.1718,132.875 63.5052,138.208 64.5,143.5C 66.6104,141.711 68.9437,140.378 71.5,139.5C 70.1618,141.67 68.3284,143.336 66,144.5C 63.9617,147.243 62.4617,150.243 61.5,153.5C 59.9748,156.079 58.6414,158.746 57.5,161.5C 57.5,159.167 57.5,156.833 57.5,154.5C 58.4916,154.672 59.1583,154.338 59.5,153.5C 60.3201,151.86 61.1534,150.193 62,148.5C 62.4999,135.504 62.6666,122.504 62.5,109.5 Z"/></g>
<g><path style="opacity:1" fill="#1f1f20" d="M 208.5,127.5 C 208.277,129.342 207.943,131.175 207.5,133C 208.218,135.217 208.718,137.384 209,139.5C 204.749,135.349 204.582,131.349 208.5,127.5 Z"/></g>
<g><path style="opacity:1" fill="#29182b" d="M 81.5,132.5 C 80.7377,134.262 79.4044,135.262 77.5,135.5C 78.0347,133.554 79.368,132.554 81.5,132.5 Z"/></g>
<g><path style="opacity:1" fill="#1c0d1a" d="M 77.5,135.5 C 75.8525,137.326 73.8525,138.66 71.5,139.5C 72.733,137.204 74.733,135.87 77.5,135.5 Z"/></g>
<g><path style="opacity:1" fill="#1b1922" d="M 196.5,136.5 C 198.085,137.002 198.585,138.002 198,139.5C 196.961,138.756 196.461,137.756 196.5,136.5 Z"/></g>
<g><path style="opacity:1" fill="#34282c" d="M 35.5,124.5 C 36.8589,125.007 37.8589,126.007 38.5,127.5C 40.0454,132.605 39.212,137.272 36,141.5C 35.502,144.482 35.3354,147.482 35.5,150.5C 34.1402,148.954 33.1402,147.12 32.5,145C 34.6911,140.961 36.6911,136.794 38.5,132.5C 37.4897,129.817 36.4897,127.151 35.5,124.5 Z"/></g>
<g><path style="opacity:1" fill="#28191d" d="M 95.5,150.5 C 96.4345,149.432 96.7678,148.099 96.5,146.5C 90.8623,147.22 85.1956,147.553 79.5,147.5C 89.1075,147.198 97.1075,143.364 103.5,136C 97.1775,136.652 90.8442,136.485 84.5,135.5C 89.4671,134.671 94.4671,134.171 99.5,134C 102.448,132.763 105.115,131.263 107.5,129.5C 109.806,128.188 112.139,126.855 114.5,125.5C 114.833,125.833 115.167,126.167 115.5,126.5C 106.351,134.785 99.684,144.785 95.5,156.5C 95.2537,154.78 95.2537,152.78 95.5,150.5 Z"/></g>
<g><path style="opacity:1" fill="#28282b" d="M 14.5,125.5 C 16.7226,127.441 18.0559,129.941 18.5,133C 16.8039,137.38 15.1373,141.714 13.5,146C 14.2265,148.907 15.2265,151.74 16.5,154.5C 11.9705,151.717 10.4705,147.717 12,142.5C 13.9665,139.399 15.7998,136.232 17.5,133C 16.3487,130.535 15.3487,128.035 14.5,125.5 Z"/></g>
<g><path style="opacity:1" fill="#c0a46e" d="M 79.5,147.5 C 85.1956,147.553 90.8623,147.22 96.5,146.5C 96.7678,148.099 96.4345,149.432 95.5,150.5C 89.9262,148.547 83.9262,147.88 77.5,148.5C 77.5,150.5 77.5,152.5 77.5,154.5C 76.678,152.611 75.8447,150.611 75,148.5C 74.5065,150.134 74.3398,151.801 74.5,153.5C 73.2072,151.636 73.2072,149.636 74.5,147.5C 76.1284,146.465 77.795,146.465 79.5,147.5 Z"/></g>
<g><path style="opacity:1" fill="#252d1d" d="M 25.5,151.5 C 26.9063,151.973 27.573,152.973 27.5,154.5C 26.0937,154.027 25.427,153.027 25.5,151.5 Z"/></g>
<g><path style="opacity:1" fill="#41272e" d="M 35.5,150.5 C 37.0481,150.821 37.7148,151.821 37.5,153.5C 36.0937,153.027 35.427,152.027 35.5,150.5 Z"/></g>
<g><path style="opacity:1" fill="#2a272b" d="M 196.5,163.5 C 195.007,162.688 194.34,161.355 194.5,159.5C 195.819,154.696 197.819,150.196 200.5,146C 199.67,144.535 199.504,143.035 200,141.5C 201.023,142.6 201.523,143.933 201.5,145.5C 201.072,149.62 199.572,153.287 197,156.5C 196.503,158.81 196.337,161.143 196.5,163.5 Z"/></g>
<g><path style="opacity:1" fill="#c9a571" d="M 61.5,153.5 C 61.6959,157.606 60.3625,160.939 57.5,163.5C 57.5,162.833 57.5,162.167 57.5,161.5C 58.6414,158.746 59.9748,156.079 61.5,153.5 Z"/></g>
<g><path style="opacity:1" fill="#3c1f1f" d="M 189.5,142.5 C 191.441,144.011 191.941,146.011 191,148.5C 188.025,152.439 186.192,156.772 185.5,161.5C 184.307,161.03 183.64,160.03 183.5,158.5C 184.899,155.371 186.565,152.371 188.5,149.5C 189.474,147.257 189.808,144.924 189.5,142.5 Z"/></g>
<g><path style="opacity:1" fill="#332228" d="M 141.5,37.5 C 141.169,45.1955 141.503,52.8622 142.5,60.5C 146.774,61.9702 150.774,63.9702 154.5,66.5C 155.486,70.6173 156.819,74.6173 158.5,78.5C 165.936,91.1402 170.603,104.807 172.5,119.5C 173.842,121.005 175.508,121.672 177.5,121.5C 179.164,126.657 179.83,131.99 179.5,137.5C 178.167,137.5 176.833,137.5 175.5,137.5C 175.334,144.508 175.5,151.508 176,158.5C 176.833,159.5 177.667,160.5 178.5,161.5C 179.493,166.12 179.827,170.786 179.5,175.5C 180.978,175.238 182.311,175.571 183.5,176.5C 181.149,178.229 178.482,178.896 175.5,178.5C 175.785,180.288 175.452,181.955 174.5,183.5C 173.571,182.311 173.238,180.978 173.5,179.5C 172.817,177.824 171.483,177.157 169.5,177.5C 169.5,174.167 169.5,170.833 169.5,167.5C 169.483,163.883 170.483,160.55 172.5,157.5C 173.497,150.866 173.83,144.2 173.5,137.5C 170.167,137.5 166.833,137.5 163.5,137.5C 162.674,134.757 161.341,132.257 159.5,130C 154.221,128.513 148.888,127.347 143.5,126.5C 143.5,131.5 143.5,136.5 143.5,141.5C 148.014,142.334 152.347,143.667 156.5,145.5C 157.833,149.833 157.833,154.167 156.5,158.5C 154.929,159.309 153.262,159.643 151.5,159.5C 152.66,168.12 153.327,176.787 153.5,185.5C 153.336,188.187 153.503,190.854 154,193.5C 154.278,194.416 154.778,195.082 155.5,195.5C 155.419,202.261 156.086,208.928 157.5,215.5C 153.5,215.5 149.5,215.5 145.5,215.5C 142.771,197.596 140.771,179.596 139.5,161.5C 137.396,161.201 135.396,161.534 133.5,162.5C 134.883,167.833 136.049,173.166 137,178.5C 136.823,190.079 137.99,201.413 140.5,212.5C 142.455,213.28 143.455,214.78 143.5,217C 140.642,223.861 135.976,229.195 129.5,233C 118.856,234.095 108.19,235.095 97.5,236C 91.5,236.667 85.5,236.667 79.5,236C 69.2403,230.709 59.2403,225.209 49.5,219.5C 49.5,215.167 49.5,210.833 49.5,206.5C 49.5,204.833 49.5,203.167 49.5,201.5C 50.1667,201.5 50.8333,201.5 51.5,201.5C 51.1712,207.206 51.5046,212.872 52.5,218.5C 57.2765,221.115 62.2765,223.282 67.5,225C 71.9646,229.816 77.4646,232.649 84,233.5C 93.1866,232.693 102.353,231.693 111.5,230.5C 125.419,234.874 134.753,230.207 139.5,216.5C 138.156,213.811 136.822,211.145 135.5,208.5C 135.666,202.158 135.5,195.825 135,189.5C 133.932,180.041 132.765,170.708 131.5,161.5C 129.019,161.323 127.186,162.323 126,164.5C 123.921,167.733 122.421,171.233 121.5,175C 124.488,177.877 123.821,179.377 119.5,179.5C 119.586,172.006 121.919,165.339 126.5,159.5C 128.521,158.145 130.188,156.479 131.5,154.5C 134.552,151.424 137.386,148.09 140,144.5C 140.605,137.09 140.105,129.757 138.5,122.5C 136.194,122.007 133.861,121.674 131.5,121.5C 131.167,120.833 130.833,120.167 130.5,119.5C 132.5,119.833 134.5,120.167 136.5,120.5C 136.737,119.209 136.404,118.209 135.5,117.5C 135.158,116.662 134.492,116.328 133.5,116.5C 136.828,107.561 139.161,98.2281 140.5,88.5C 140.167,87.1667 139.833,85.8333 139.5,84.5C 137.507,86.6655 135.673,88.9989 134,91.5C 134.636,87.8854 136.136,84.5521 138.5,81.5C 143.05,77.4477 147.384,73.281 151.5,69C 150.728,67.779 149.728,66.779 148.5,66C 144.5,64 140.5,62 136.5,60C 133.077,58.0961 129.41,57.2628 125.5,57.5C 127.836,54.8243 130.169,52.1576 132.5,49.5C 132.833,49.6667 133.167,49.8333 133.5,50C 132.044,51.7448 130.711,53.5781 129.5,55.5C 131.022,56.562 132.688,57.2287 134.5,57.5C 135.671,58.3446 137.005,59.0113 138.5,59.5C 139.451,58.0813 139.784,56.4147 139.5,54.5C 138.883,48.4018 139.55,42.7351 141.5,37.5 Z"/></g>
<g><path style="opacity:1" fill="#f2e5f1" d="M 175.5,165.5 C 177.344,166.204 177.844,167.537 177,169.5C 175.301,170.406 173.467,170.739 171.5,170.5C 171.5,169.167 171.5,167.833 171.5,166.5C 173.099,166.768 174.432,166.434 175.5,165.5 Z"/></g>
<g><path style="opacity:1" fill="#eff4f1" d="M 173.5,159.5 C 177.627,161.637 177.46,163.637 173,165.5C 172.51,163.455 172.677,161.455 173.5,159.5 Z"/></g>
<g><path style="opacity:1" fill="#f5f5f6" d="M 141.5,159.5 C 144.167,159.5 146.833,159.5 149.5,159.5C 149.334,165.176 149.501,170.843 150,176.5C 152.075,188.767 153.575,201.101 154.5,213.5C 152.5,213.5 150.5,213.5 148.5,213.5C 146.164,195.473 143.831,177.473 141.5,159.5 Z"/></g>
<g><path style="opacity:1" fill="#eeeeef" d="M 142.5,142.5 C 146.603,143.645 150.603,144.979 154.5,146.5C 154.5,149.833 154.5,153.167 154.5,156.5C 146.522,157.813 138.522,158.646 130.5,159C 133.059,156.561 135.392,153.895 137.5,151C 141.381,149.81 145.381,149.143 149.5,149C 146.167,148.667 142.833,148.333 139.5,148C 141.607,146.736 142.607,144.903 142.5,142.5 Z"/></g>
<g><path style="opacity:1" fill="#d2895f" d="M 173.5,129.5 C 173.785,131.288 173.452,132.955 172.5,134.5C 171.197,133.282 170.197,133.615 169.5,135.5C 168.268,134.855 166.935,134.689 165.5,135C 164.142,133.168 163.808,131.335 164.5,129.5C 165.167,130.167 165.833,130.833 166.5,131.5C 168.729,130.423 171.063,129.756 173.5,129.5 Z"/></g>
<g><path style="opacity:1" fill="#dc885f" d="M 173.5,129.5 C 172.821,127.186 171.488,126.853 169.5,128.5C 168.749,127.624 168.249,126.624 168,125.5C 162.8,130.425 161.3,129.425 163.5,122.5C 165.003,121.443 166.67,120.776 168.5,120.5C 176.333,122.163 179,126.83 176.5,134.5C 175.065,133.053 174.065,131.386 173.5,129.5 Z"/></g>
<g><path style="opacity:1" fill="#e9af47" d="M 167.5,113.5 C 169.256,114.552 169.923,116.219 169.5,118.5C 166.951,118.387 164.618,119.054 162.5,120.5C 161.016,119.533 160.016,118.2 159.5,116.5C 161.887,114.897 164.554,113.897 167.5,113.5 Z"/></g>
<g><path style="opacity:1" fill="#876341" d="M 153.5,107.5 C 155.44,109.471 157.107,111.804 158.5,114.5C 161.433,113.195 164.433,112.195 167.5,111.5C 167.5,112.167 167.5,112.833 167.5,113.5C 164.554,113.897 161.887,114.897 159.5,116.5C 159.158,115.662 158.492,115.328 157.5,115.5C 155.153,113.473 153.819,110.806 153.5,107.5 Z"/></g>
<g><path style="opacity:1" fill="#d9af61" d="M 143.5,100.5 C 143.5,100.833 143.5,101.167 143.5,101.5C 141.175,102.655 140.008,104.655 140,107.5C 139.111,108.888 138.611,108.722 138.5,107C 139.771,101.144 141.104,95.3107 142.5,89.5C 144.378,88.339 145.378,89.0056 145.5,91.5C 144.068,94.3273 143.401,97.3273 143.5,100.5 Z"/></g>
<g><path style="opacity:1" fill="#e7ab40" d="M 167.5,111.5 C 164.433,112.195 161.433,113.195 158.5,114.5C 157.107,111.804 155.44,109.471 153.5,107.5C 153.82,104.102 153.487,100.768 152.5,97.5C 149.066,92.2844 145.399,87.2844 141.5,82.5C 144.355,77.7772 148.355,74.9439 153.5,74C 160.816,85.4924 165.482,97.9924 167.5,111.5 Z"/></g>
<g><path style="opacity:1" fill="#ea2e32" d="M 153.5,107.5 C 153.819,110.806 155.153,113.473 157.5,115.5C 158.702,119.048 159.369,122.715 159.5,126.5C 152.231,126.01 145.231,124.343 138.5,121.5C 138.167,120.167 137.833,118.833 137.5,117.5C 139.521,112.134 141.521,106.801 143.5,101.5C 143.5,101.167 143.5,100.833 143.5,100.5C 145.117,99.4107 145.95,97.744 146,95.5C 146.741,94.3595 147.575,94.3595 148.5,95.5C 149.72,99.9086 151.386,103.909 153.5,107.5 Z"/></g>
<g><path style="opacity:1" fill="#373538" d="M 27.5,154.5 C 28.8086,155.624 29.4753,157.124 29.5,159C 27.2863,163.099 25.6196,167.432 24.5,172C 24.8641,174.921 25.5308,177.754 26.5,180.5C 24.2231,178.126 22.5565,175.293 21.5,172C 25.3974,166.729 27.3974,160.896 27.5,154.5 Z"/></g>
<g><path style="opacity:1" fill="#dfdbe2" d="M 174.5,171.5 C 175.5,171.5 176.5,171.5 177.5,171.5C 177.5,173.167 177.5,174.833 177.5,176.5C 175.167,176.5 172.833,176.5 170.5,176.5C 170.408,173.6 171.741,171.933 174.5,171.5 Z"/></g>
<g><path style="opacity:1" fill="#502a31" d="M 37.5,153.5 C 38.7647,154.514 39.4313,156.014 39.5,158C 38.3329,163.127 36.9995,168.294 35.5,173.5C 35.7063,176.336 36.373,179.002 37.5,181.5C 32.5962,177.825 31.4295,173.158 34,167.5C 38.2618,163.589 39.4285,158.922 37.5,153.5 Z"/></g>
<g><path style="opacity:1" fill="#65232f" d="M 169.5,167.5 C 169.5,170.833 169.5,174.167 169.5,177.5C 171.483,177.157 172.817,177.824 173.5,179.5C 171.669,178.948 170.003,178.948 168.5,179.5C 167.5,178.5 166.5,177.5 165.5,176.5C 167.078,173.526 168.411,170.526 169.5,167.5 Z"/></g>
<g><path style="opacity:1" fill="#532424" d="M 185.5,163.5 C 188.477,165.482 190.477,168.315 191.5,172C 189.698,175.816 187.865,179.649 186,183.5C 185.505,185.473 185.338,187.473 185.5,189.5C 183.974,188.508 183.307,187.008 183.5,185C 185.31,180.549 186.976,176.049 188.5,171.5C 187.478,168.798 186.478,166.131 185.5,163.5 Z"/></g>
<g><path style="opacity:1" fill="#19181c" d="M 26.5,180.5 C 30.5,183.833 30.5,187.167 26.5,190.5C 27.7074,187.148 27.7074,183.814 26.5,180.5 Z"/></g>
<g><path style="opacity:1" fill="#9b454c" d="M 153.5,185.5 C 154.117,185.611 154.617,185.944 155,186.5C 155.498,189.482 155.665,192.482 155.5,195.5C 154.778,195.082 154.278,194.416 154,193.5C 153.503,190.854 153.336,188.187 153.5,185.5 Z"/></g>
<g><path style="opacity:1" fill="#edaf41" d="M 131.5,154.5 C 130.188,156.479 128.521,158.145 126.5,159.5C 121.919,165.339 119.586,172.006 119.5,179.5C 123.821,179.377 124.488,177.877 121.5,175C 122.421,171.233 123.921,167.733 126,164.5C 127.186,162.323 129.019,161.323 131.5,161.5C 132.765,170.708 133.932,180.041 135,189.5C 135.5,195.825 135.666,202.158 135.5,208.5C 132.762,207.337 131.762,205.503 132.5,203C 131.5,202.667 130.5,202.333 129.5,202C 130.451,201.282 130.617,200.449 130,199.5C 127.547,199.059 125.047,199.559 122.5,201C 123.337,202.011 123.67,203.178 123.5,204.5C 115.167,193.325 111.334,180.658 112,166.5C 114.701,160.983 117.368,155.649 120,150.5C 112.425,155.98 108.925,163.313 109.5,172.5C 109.514,183.247 112.18,193.247 117.5,202.5C 117.762,203.978 117.429,205.311 116.5,206.5C 114.787,206.879 113.787,207.879 113.5,209.5C 108.579,209.144 104.246,210.477 100.5,213.5C 104.68,212.55 109.013,212.55 113.5,213.5C 111.261,214.299 109.261,215.632 107.5,217.5C 109.423,218.308 111.423,218.808 113.5,219C 109.644,219.177 105.977,219.677 102.5,220.5C 97.3408,221.575 93.0075,223.908 89.5,227.5C 86.1667,227.5 82.8333,227.5 79.5,227.5C 79.5,227.167 79.5,226.833 79.5,226.5C 79.2155,224.585 79.5489,222.919 80.5,221.5C 86.2414,224.247 91.0747,222.914 95,217.5C 94.6142,206.182 94.1142,194.849 93.5,183.5C 93.6946,177.436 94.3613,171.436 95.5,165.5C 95.1667,164.167 94.8333,162.833 94.5,161.5C 93.8133,163.274 92.9799,164.941 92,166.5C 91.531,172.19 90.8643,177.857 90,183.5C 82.0519,175.497 77.8852,165.83 77.5,154.5C 77.5,152.5 77.5,150.5 77.5,148.5C 83.9262,147.88 89.9262,148.547 95.5,150.5C 95.2537,152.78 95.2537,154.78 95.5,156.5C 99.684,144.785 106.351,134.785 115.5,126.5C 115.167,126.167 114.833,125.833 114.5,125.5C 112.139,126.855 109.806,128.188 107.5,129.5C 105.252,128.263 103.252,126.597 101.5,124.5C 101.846,123.304 102.346,123.304 103,124.5C 103.49,123.207 103.657,121.873 103.5,120.5C 104.833,120.5 106.167,120.5 107.5,120.5C 107.34,118.801 107.506,117.134 108,115.5C 108.853,117.125 109.853,117.458 111,116.5C 115.668,118.111 120.502,119.277 125.5,120C 123.355,120.743 123.189,121.576 125,122.5C 129.324,123.417 133.324,124.417 137,125.5C 137.684,126.784 137.517,127.951 136.5,129C 137.428,129.388 138.095,130.055 138.5,131C 138.108,132.011 137.441,132.511 136.5,132.5C 137.5,133.833 138.5,135.167 139.5,136.5C 138.271,137.281 136.938,137.781 135.5,138C 137.405,138.826 137.739,139.993 136.5,141.5C 135.481,140.313 134.314,139.313 133,138.5C 131.667,142.5 130.333,142.5 129,138.5C 128.282,139.451 127.449,139.617 126.5,139C 125.333,137.833 124.167,136.667 123,135.5C 122.5,136 122,136.5 121.5,137C 123.373,138.085 125.04,139.418 126.5,141C 125.397,142.68 125.73,144.18 127.5,145.5C 130.167,146.167 132.833,146.833 135.5,147.5C 133.492,149.506 132.159,151.839 131.5,154.5 Z"/></g>
<g><path style="opacity:1" fill="#3a2629" d="M 37.5,181.5 C 38.7251,182.152 39.3917,183.319 39.5,185C 39.3333,186.167 39.1667,187.333 39,188.5C 36.7606,192.427 35.2606,196.594 34.5,201C 35.7577,202.741 36.7577,204.574 37.5,206.5C 34.7007,204.411 33.034,201.578 32.5,198C 33.527,194.631 35.027,191.464 37,188.5C 37.4966,186.19 37.6633,183.857 37.5,181.5 Z"/></g>
<g><path style="opacity:1" fill="#482022" d="M 56.5,105.5 C 56.8333,105.5 57.1667,105.5 57.5,105.5C 57.5,121.833 57.5,138.167 57.5,154.5C 57.5,156.833 57.5,159.167 57.5,161.5C 57.5,162.167 57.5,162.833 57.5,163.5C 54.603,176.056 52.603,188.723 51.5,201.5C 50.8333,201.5 50.1667,201.5 49.5,201.5C 49.3342,196.821 49.5008,192.155 50,187.5C 51.9005,180.212 53.5672,172.879 55,165.5C 55.1682,145.329 55.6682,125.329 56.5,105.5 Z"/></g>
<g><path style="opacity:1" fill="#201820" d="M 69.5,163.5 C 75.8613,170.495 79.6946,178.828 81,188.5C 81.6667,194.833 81.6667,201.167 81,207.5C 79.6478,192.087 75.8145,177.42 69.5,163.5 Z"/></g>
<g><path style="opacity:1" fill="#291a1f" d="M 123.5,204.5 C 124.942,207.22 126.275,210.054 127.5,213C 127.167,213.5 126.833,214 126.5,214.5C 123.319,210.556 120.319,206.556 117.5,202.5C 112.18,193.247 109.514,183.247 109.5,172.5C 108.925,163.313 112.425,155.98 120,150.5C 117.368,155.649 114.701,160.983 112,166.5C 111.334,180.658 115.167,193.325 123.5,204.5 Z"/></g>
<g><path style="opacity:1" fill="#35272d" d="M 113.5,209.5 C 115.253,211.223 117.253,212.723 119.5,214C 117.575,213.865 115.575,213.698 113.5,213.5C 109.013,212.55 104.68,212.55 100.5,213.5C 104.246,210.477 108.579,209.144 113.5,209.5 Z"/></g>
<g><path style="opacity:1" fill="#1f141f" d="M 64.5,187.5 C 65.0431,187.56 65.3764,187.893 65.5,188.5C 61.7532,195.466 60.7532,202.799 62.5,210.5C 63.4776,210.023 64.3109,209.357 65,208.5C 65.3304,205.511 66.1638,202.678 67.5,200C 67.8499,198.743 68.5165,198.409 69.5,199C 68.8496,203.762 67.3496,208.262 65,212.5C 63.5557,214.155 61.7224,214.822 59.5,214.5C 57.5182,204.772 59.1849,195.772 64.5,187.5 Z"/></g>
<g><path style="opacity:1" fill="#891f20" d="M 49.5,206.5 C 49.5,210.833 49.5,215.167 49.5,219.5C 48.5028,219.53 47.8361,219.03 47.5,218C 48.0721,214.015 48.7388,210.182 49.5,206.5 Z"/></g>
<g><path style="opacity:1" fill="#2c2020" d="M 77.5,154.5 C 77.8852,165.83 82.0519,175.497 90,183.5C 90.8643,177.857 91.531,172.19 92,166.5C 92.9799,164.941 93.8133,163.274 94.5,161.5C 94.8333,162.833 95.1667,164.167 95.5,165.5C 94.3613,171.436 93.6946,177.436 93.5,183.5C 94.1142,194.849 94.6142,206.182 95,217.5C 91.0747,222.914 86.2414,224.247 80.5,221.5C 80.8633,216.221 83.1966,212.888 87.5,211.5C 85.8569,214.445 84.5236,217.445 83.5,220.5C 86.0046,220.02 88.3379,219.02 90.5,217.5C 91.512,208.832 91.3453,200.165 90,191.5C 88.1362,187.295 85.4696,183.628 82,180.5C 80.4546,175.319 78.4546,170.319 76,165.5C 75.8238,161.312 75.3238,157.312 74.5,153.5C 74.3398,151.801 74.5065,150.134 75,148.5C 75.8447,150.611 76.678,152.611 77.5,154.5 Z"/></g>
<g><path style="opacity:1" fill="#281b23" d="M 102.5,220.5 C 110.426,219.498 117.759,220.998 124.5,225C 122.803,225.384 121.137,225.218 119.5,224.5C 116.45,223.065 113.117,222.398 109.5,222.5C 107.304,222.505 105.304,222.838 103.5,223.5C 102.167,224.167 100.833,224.833 99.5,225.5C 96.3061,226.758 92.9728,227.424 89.5,227.5C 93.0075,223.908 97.3408,221.575 102.5,220.5 Z"/></g>
<g><path style="opacity:1" fill="#826f53" d="M 103.5,223.5 C 105.304,222.838 107.304,222.505 109.5,222.5C 113.117,222.398 116.45,223.065 119.5,224.5C 114.187,223.902 108.854,223.569 103.5,223.5 Z"/></g>
<g><path style="opacity:1" fill="#c9a061" d="M 99.5,225.5 C 96.2409,227.332 92.9076,229.165 89.5,231C 87.7818,231.346 86.1151,231.846 84.5,232.5C 83.8933,232.376 83.56,232.043 83.5,231.5C 85.4982,230.852 87.4982,230.019 89.5,229C 85.9748,228.821 82.6414,228.321 79.5,227.5C 82.8333,227.5 86.1667,227.5 89.5,227.5C 92.9728,227.424 96.3061,226.758 99.5,225.5 Z"/></g>
<g><path style="opacity:1" fill="#23171f" d="M 79.5,226.5 C 79.5,226.833 79.5,227.167 79.5,227.5C 82.6414,228.321 85.9748,228.821 89.5,229C 87.4982,230.019 85.4982,230.852 83.5,231.5C 80.9748,230.952 78.6415,229.952 76.5,228.5C 75.8333,221.5 75.1667,214.5 74.5,207.5C 73.7696,205.659 73.1029,203.825 72.5,202C 74.3867,201.837 75.8867,202.671 77,204.5C 78.692,210.967 78.8587,217.467 77.5,224C 77.6842,225.376 78.3509,226.209 79.5,226.5 Z"/></g>
<g><path style="opacity:1" fill="#544c4f" d="M 128.5,248.5 C 124.5,249.167 120.5,249.833 116.5,250.5C 113.5,250.5 110.5,250.5 107.5,250.5C 103.5,249.833 99.5,249.167 95.5,248.5C 106.569,248.244 117.569,248.244 128.5,248.5 Z"/></g>
</svg>
