<?xml version="1.0" encoding="UTF-8"?>
<!DOCTYPE svg PUBLIC "-//W3C//DTD SVG 1.1//EN" "http://www.w3.org/Graphics/SVG/1.1/DTD/svg11.dtd">
<svg xmlns="http://www.w3.org/2000/svg" version="1.1" width="224px" height="251px" style="shape-rendering:geometricPrecision; text-rendering:geometricPrecision; image-rendering:optimizeQuality; fill-rule:evenodd; clip-rule:evenodd" xmlns:xlink="http://www.w3.org/1999/xlink">
<g><path style="opacity:1" fill="#1c1c1b" d="M -0.5,-0.5 C 74.1667,-0.5 148.833,-0.5 223.5,-0.5C 223.5,42.5 223.5,85.5 223.5,128.5C 222.924,132.232 221.757,135.898 220,139.5C 220.618,135.695 220.451,132.028 219.5,128.5C 219.832,87.9966 219.499,47.6632 218.5,7.5C 219.303,6.57683 219.47,5.57683 219,4.5C 217.223,6.78992 215.056,8.45659 212.5,9.5C 213.96,7.53717 215.627,5.70383 217.5,4C 147.498,3.16669 77.4976,3.33336 7.5,4.5C 10.189,7.51984 12.8556,10.5198 15.5,13.5C 15.5,14.5 15.5,15.5 15.5,16.5C 11.5357,13.0371 7.70234,9.37046 4,5.5C 3.50019,15.4944 3.33352,25.4944 3.5,35.5C 2.16667,35.5 0.833333,35.5 -0.5,35.5C -0.5,23.5 -0.5,11.5 -0.5,-0.5 Z"/></g>
<g><path style="opacity:1" fill="#009530" d="M 212.5,9.5 C 180.289,40.2117 148.622,71.3784 117.5,103C 114.989,104.848 112.489,106.681 110,108.5C 108.649,106.982 107.149,105.649 105.5,104.5C 104.167,102.5 102.5,100.833 100.5,99.5C 72.1949,70.8612 43.8615,42.1945 15.5,13.5C 12.8556,10.5198 10.189,7.51984 7.5,4.5C 77.4976,3.33336 147.498,3.16669 217.5,4C 215.627,5.70383 213.96,7.53717 212.5,9.5 Z"/></g>
<g><path style="opacity:1" fill="#fcfcfc" d="M 15.5,16.5 C 46.6665,49.1638 78.1665,81.1638 110,112.5C 122.788,101.381 135.288,89.881 147.5,78C 171.035,54.2984 194.701,30.7984 218.5,7.5C 219.499,47.6632 219.832,87.9966 219.5,128.5C 219.052,134.531 218.385,140.531 217.5,146.5C 182.506,147.833 147.173,148.5 111.5,148.5C 76.1667,148.167 40.8333,147.833 5.5,147.5C 4.7695,144.891 4.2695,142.224 4,139.5C 3.50002,105.502 3.33335,71.5016 3.5,37.5C 3.5,36.8333 3.5,36.1667 3.5,35.5C 3.33352,25.4944 3.50019,15.4944 4,5.5C 7.70234,9.37046 11.5357,13.0371 15.5,16.5 Z"/></g>
<g><path style="opacity:1" fill="#490b19" d="M -0.5,35.5 C 0.833333,35.5 2.16667,35.5 3.5,35.5C 3.5,36.1667 3.5,36.8333 3.5,37.5C 2.16667,37.5 0.833333,37.5 -0.5,37.5C -0.5,36.8333 -0.5,36.1667 -0.5,35.5 Z"/></g>
<g><path style="opacity:1" fill="#101a11" d="M 218.5,7.5 C 194.701,30.7984 171.035,54.2984 147.5,78C 135.288,89.881 122.788,101.381 110,112.5C 78.1665,81.1638 46.6665,49.1638 15.5,16.5C 15.5,15.5 15.5,14.5 15.5,13.5C 43.8615,42.1945 72.1949,70.8612 100.5,99.5C 101.167,102.167 102.833,103.833 105.5,104.5C 107.149,105.649 108.649,106.982 110,108.5C 112.489,106.681 114.989,104.848 117.5,103C 148.622,71.3784 180.289,40.2117 212.5,9.5C 215.056,8.45659 217.223,6.78992 219,4.5C 219.47,5.57683 219.303,6.57683 218.5,7.5 Z"/></g>
<g><path style="opacity:1" fill="#0c421b" d="M 120.5,71.5 C 124.167,71.5 127.833,71.5 131.5,71.5C 130.122,72.2344 128.622,72.9011 127,73.5C 125.667,72.1667 124.333,72.1667 123,73.5C 122.005,72.9341 121.172,72.2674 120.5,71.5 Z"/></g>
<g><path style="opacity:1" fill="#181813" d="M 83.5,51.5 C 84.1667,51.5 84.8333,51.5 85.5,51.5C 82.6852,68.3838 89.0185,73.2171 104.5,66C 105.883,64.7292 106.883,63.2292 107.5,61.5C 108.468,63.6074 108.802,65.9407 108.5,68.5C 108.533,72.8689 108.2,77.2022 107.5,81.5C 109.167,81.5 110.833,81.5 112.5,81.5C 112.5,78.5 112.5,75.5 112.5,72.5C 113.167,69.1667 113.833,65.8333 114.5,62.5C 118.851,68.9914 124.851,70.9914 132.5,68.5C 132.5,69.1667 132.5,69.8333 132.5,70.5C 131.833,70.5 131.5,70.8333 131.5,71.5C 127.833,71.5 124.167,71.5 120.5,71.5C 120.158,70.6618 119.492,70.3284 118.5,70.5C 117.855,69.1882 116.855,68.1882 115.5,67.5C 114.505,73.1278 114.171,78.7945 114.5,84.5C 111.5,84.5 108.5,84.5 105.5,84.5C 105.5,79.1667 105.5,73.8333 105.5,68.5C 104.209,68.2627 103.209,68.596 102.5,69.5C 85.8718,74.5404 79.5384,68.5404 83.5,51.5 Z"/></g>
<g><path style="opacity:1" fill="#707273" d="M 114.5,62.5 C 113.833,65.8333 113.167,69.1667 112.5,72.5C 112.177,68.774 112.511,65.1073 113.5,61.5C 114.107,61.6236 114.44,61.9569 114.5,62.5 Z"/></g>
<g><path style="opacity:1" fill="#122214" d="M 132.5,70.5 C 132.5,69.8333 132.5,69.1667 132.5,68.5C 139.791,60.6544 139.125,53.4877 130.5,47C 122.898,43.9005 116.232,39.4005 110.5,33.5C 102.17,39.4957 93.8365,45.4957 85.5,51.5C 84.8333,51.5 84.1667,51.5 83.5,51.5C 85.1436,49.5193 86.8103,47.5193 88.5,45.5C 95.3764,41.2346 102.043,36.7346 108.5,32C 109.38,30.6439 109.714,29.1439 109.5,27.5C 110.675,27.281 111.675,27.6143 112.5,28.5C 114.167,31.1667 115.833,33.8333 117.5,36.5C 126.426,40.3689 133.926,46.0356 140,53.5C 141.819,61.1873 139.319,66.854 132.5,70.5 Z"/></g>
<g><path style="opacity:1" fill="#f7f8f8" d="M 132.5,68.5 C 124.851,70.9914 118.851,68.9914 114.5,62.5C 114.44,61.9569 114.107,61.6236 113.5,61.5C 112.511,65.1073 112.177,68.774 112.5,72.5C 112.5,75.5 112.5,78.5 112.5,81.5C 110.833,81.5 109.167,81.5 107.5,81.5C 108.2,77.2022 108.533,72.8689 108.5,68.5C 109.8,65.9759 109.8,63.3092 108.5,60.5C 107.893,60.6236 107.56,60.9569 107.5,61.5C 106.883,63.2292 105.883,64.7292 104.5,66C 89.0185,73.2171 82.6852,68.3838 85.5,51.5C 93.8365,45.4957 102.17,39.4957 110.5,33.5C 116.232,39.4005 122.898,43.9005 130.5,47C 139.125,53.4877 139.791,60.6544 132.5,68.5 Z"/></g>
<g><path style="opacity:1" fill="#998988" d="M 107.5,61.5 C 107.56,60.9569 107.893,60.6236 108.5,60.5C 109.8,63.3092 109.8,65.9759 108.5,68.5C 108.802,65.9407 108.468,63.6074 107.5,61.5 Z"/></g>
<g><path style="opacity:1" fill="#19642f" d="M 102.5,69.5 C 103.209,68.596 104.209,68.2627 105.5,68.5C 105.5,73.8333 105.5,79.1667 105.5,84.5C 104.711,84.2172 104.044,83.7172 103.5,83C 104.629,78.9215 104.796,74.7548 104,70.5C 103.617,69.944 103.117,69.6107 102.5,69.5 Z"/></g>
<g><path style="opacity:1" fill="#0e3e19" d="M 118.5,70.5 C 117.5,70.5 116.5,70.5 115.5,70.5C 115.411,73.7086 115.744,76.8752 116.5,80C 116.475,81.876 115.809,83.376 114.5,84.5C 114.171,78.7945 114.505,73.1278 115.5,67.5C 116.855,68.1882 117.855,69.1882 118.5,70.5 Z"/></g>
<g><path style="opacity:1" fill="#814942" d="M 55.5,91.5 C 58.5256,94.1954 61.5256,96.8621 64.5,99.5C 63.391,99.4431 62.391,99.1098 61.5,98.5C 61.1667,98.5 60.8333,98.5 60.5,98.5C 58.4202,96.4268 56.7536,94.0934 55.5,91.5 Z"/></g>
<g><path style="opacity:1" fill="#814942" d="M 174.5,91.5 C 177.526,94.1954 180.526,96.8621 183.5,99.5C 182.391,99.4431 181.391,99.1098 180.5,98.5C 180.167,98.5 179.833,98.5 179.5,98.5C 177.42,96.4268 175.754,94.0934 174.5,91.5 Z"/></g>
<g><path style="opacity:1" fill="#064d1b" d="M 100.5,99.5 C 102.5,100.833 104.167,102.5 105.5,104.5C 102.833,103.833 101.167,102.167 100.5,99.5 Z"/></g>
<g><path style="opacity:1" fill="#6b322f" d="M 77.5,108.5 C 80.4074,110.315 81.7407,112.981 81.5,116.5C 80.1861,113.872 78.8527,111.205 77.5,108.5 Z"/></g>
<g><path style="opacity:1" fill="#6b322f" d="M 196.5,108.5 C 199.407,110.315 200.741,112.981 200.5,116.5C 199.186,113.872 197.853,111.205 196.5,108.5 Z"/></g>
<g><path style="opacity:1" fill="#151712" d="M 55.5,91.5 C 56.7536,94.0934 58.4202,96.4268 60.5,98.5C 59.448,98.6495 58.448,98.4828 57.5,98C 55.9825,96.3149 54.3159,94.8149 52.5,93.5C 45.99,99.588 38.6566,104.421 30.5,108C 24.5217,113.739 24.0217,119.905 29,126.5C 38.9748,131.525 46.3081,128.858 51,118.5C 50.2982,126.41 49.7982,134.41 49.5,142.5C 51.1667,142.5 52.8333,142.5 54.5,142.5C 54.3336,134.826 54.5003,127.159 55,119.5C 59.7127,129.134 66.8794,131.634 76.5,127C 80.3964,121.402 80.2297,115.902 76,110.5C 71.7628,106.964 67.2628,103.798 62.5,101C 61.7476,100.329 61.4142,99.4959 61.5,98.5C 62.391,99.1098 63.391,99.4431 64.5,99.5C 69.4312,101.786 73.7646,104.786 77.5,108.5C 78.8527,111.205 80.1861,113.872 81.5,116.5C 80.8869,130.161 73.8869,134.995 60.5,131C 59.6667,130.167 58.8333,129.333 58,128.5C 57.5007,133.489 57.3341,138.489 57.5,143.5C 53.8333,143.5 50.1667,143.5 46.5,143.5C 46.97,138.463 47.6367,133.463 48.5,128.5C 46.8767,127.524 45.5433,128.024 44.5,130C 26.3062,134.132 20.1396,127.299 26,109.5C 27.5,108 29,106.5 30.5,105C 40.1015,101.716 47.6015,95.8831 53,87.5C 54.4813,88.4709 55.3146,89.8042 55.5,91.5 Z"/></g>
<g><path style="opacity:1" fill="#00922f" d="M 60.5,98.5 C 60.8333,98.5 61.1667,98.5 61.5,98.5C 61.4142,99.4959 61.7476,100.329 62.5,101C 67.2628,103.798 71.7628,106.964 76,110.5C 80.2297,115.902 80.3964,121.402 76.5,127C 66.8794,131.634 59.7127,129.134 55,119.5C 54.5003,127.159 54.3336,134.826 54.5,142.5C 52.8333,142.5 51.1667,142.5 49.5,142.5C 49.7982,134.41 50.2982,126.41 51,118.5C 46.3081,128.858 38.9748,131.525 29,126.5C 24.0217,119.905 24.5217,113.739 30.5,108C 38.6566,104.421 45.99,99.588 52.5,93.5C 54.3159,94.8149 55.9825,96.3149 57.5,98C 58.448,98.4828 59.448,98.6495 60.5,98.5 Z"/></g>
<g><path style="opacity:1" fill="#151712" d="M 174.5,91.5 C 175.754,94.0934 177.42,96.4268 179.5,98.5C 178.448,98.6495 177.448,98.4828 176.5,98C 174.983,96.3149 173.316,94.8149 171.5,93.5C 164.99,99.588 157.657,104.421 149.5,108C 143.522,113.739 143.022,119.905 148,126.5C 157.975,131.525 165.308,128.858 170,118.5C 169.298,126.41 168.798,134.41 168.5,142.5C 170.167,142.5 171.833,142.5 173.5,142.5C 173.334,134.826 173.5,127.159 174,119.5C 178.713,129.134 185.879,131.634 195.5,127C 199.396,121.402 199.23,115.902 195,110.5C 190.763,106.964 186.263,103.798 181.5,101C 180.748,100.329 180.414,99.4959 180.5,98.5C 181.391,99.1098 182.391,99.4431 183.5,99.5C 188.431,101.786 192.765,104.786 196.5,108.5C 197.853,111.205 199.186,113.872 200.5,116.5C 199.887,130.161 192.887,134.995 179.5,131C 178.667,130.167 177.833,129.333 177,128.5C 176.501,133.489 176.334,138.489 176.5,143.5C 172.833,143.5 169.167,143.5 165.5,143.5C 165.97,138.463 166.637,133.463 167.5,128.5C 165.877,127.524 164.543,128.024 163.5,130C 145.306,134.132 139.14,127.299 145,109.5C 146.5,108 148,106.5 149.5,105C 159.102,101.716 166.602,95.8831 172,87.5C 173.481,88.4709 174.315,89.8042 174.5,91.5 Z"/></g>
<g><path style="opacity:1" fill="#00922f" d="M 179.5,98.5 C 179.833,98.5 180.167,98.5 180.5,98.5C 180.414,99.4959 180.748,100.329 181.5,101C 186.263,103.798 190.763,106.964 195,110.5C 199.23,115.902 199.396,121.402 195.5,127C 185.879,131.634 178.713,129.134 174,119.5C 173.5,127.159 173.334,134.826 173.5,142.5C 171.833,142.5 170.167,142.5 168.5,142.5C 168.798,134.41 169.298,126.41 170,118.5C 165.308,128.858 157.975,131.525 148,126.5C 143.022,119.905 143.522,113.739 149.5,108C 157.657,104.421 164.99,99.588 171.5,93.5C 173.316,94.8149 174.983,96.3149 176.5,98C 177.448,98.4828 178.448,98.6495 179.5,98.5 Z"/></g>
<g><path style="opacity:1" fill="#fdfdfd" d="M 223.5,142.5 C 223.5,178.5 223.5,214.5 223.5,250.5C 189.5,250.5 155.5,250.5 121.5,250.5C 157.453,245.697 185.119,228.03 204.5,197.5C 212.736,183.455 218.403,168.455 221.5,152.5C 221.5,150.833 221.5,149.167 221.5,147.5C 222.167,145.833 222.833,144.167 223.5,142.5 Z"/></g>
<g><path style="opacity:1" fill="#3c393b" d="M 219.5,128.5 C 220.451,132.028 220.618,135.695 220,139.5C 221.757,135.898 222.924,132.232 223.5,128.5C 223.5,133.167 223.5,137.833 223.5,142.5C 222.833,144.167 222.167,145.833 221.5,147.5C 220.839,148.718 220.172,150.051 219.5,151.5C 219.306,149.963 218.639,148.297 217.5,146.5C 218.385,140.531 219.052,134.531 219.5,128.5 Z"/></g>
<g><path style="opacity:1" fill="#fdfdfd" d="M -0.5,145.5 C 3.31403,177.962 17.314,205.129 41.5,227C 57.6133,239.35 75.6133,247.183 95.5,250.5C 63.5,250.5 31.5,250.5 -0.5,250.5C -0.5,215.5 -0.5,180.5 -0.5,145.5 Z"/></g>
<g><path style="opacity:1" fill="#fdfdfd" d="M 214.5,163.5 C 213.801,165.556 212.801,167.556 211.5,169.5C 207.956,168.211 204.623,166.544 201.5,164.5C 193.863,162.762 186.863,164.262 180.5,169C 164.141,183.911 147.474,184.244 130.5,170C 119.152,163.532 107.486,162.866 95.5,168C 87.1451,175.175 77.4784,179.342 66.5,180.5C 63.4083,180.493 60.4083,179.993 57.5,179C 48.729,172.948 39.3957,167.948 29.5,164C 22.337,163.109 16.337,165.275 11.5,170.5C 10.8826,170.389 10.3826,170.056 10,169.5C 8.33964,163.858 6.83964,158.191 5.5,152.5C 75.8333,152.5 146.167,152.5 216.5,152.5C 215.674,156.136 215.008,159.803 214.5,163.5 Z"/></g>
<g><path style="opacity:1" fill="#6a77a3" d="M 31.5,167.5 C 25.3971,167.186 19.7304,168.519 14.5,171.5C 13.359,173.421 13.1923,175.421 14,177.5C 15.8681,180.605 17.0348,183.938 17.5,187.5C 14.1422,182.77 12.1422,177.437 11.5,171.5C 16.7,167.156 22.7,165.323 29.5,166C 30.4158,166.278 31.0825,166.778 31.5,167.5 Z"/></g>
<g><path style="opacity:1" fill="#353748" d="M 221.5,152.5 C 218.403,168.455 212.736,183.455 204.5,197.5C 203.5,197.5 202.5,197.5 201.5,197.5C 201.354,200.55 200.02,201.55 197.5,200.5C 203.068,191.864 207.735,182.697 211.5,173C 207.798,170.809 204.131,168.476 200.5,166C 198.866,165.506 197.199,165.34 195.5,165.5C 187.705,166.731 181.038,170.064 175.5,175.5C 171.855,177.322 168.189,179.156 164.5,181C 157.44,183.094 150.44,182.927 143.5,180.5C 137.58,176.957 131.747,173.291 126,169.5C 123.361,168.006 120.528,167.339 117.5,167.5C 115.414,166.391 113.08,165.724 110.5,165.5C 101.967,166.936 94.2998,170.269 87.5,175.5C 75.9254,183.991 63.9254,184.658 51.5,177.5C 45.5215,172.837 38.8548,169.504 31.5,167.5C 31.0825,166.778 30.4158,166.278 29.5,166C 22.7,165.323 16.7,167.156 11.5,171.5C 11.5,171.167 11.5,170.833 11.5,170.5C 16.337,165.275 22.337,163.109 29.5,164C 39.3957,167.948 48.729,172.948 57.5,179C 60.4083,179.993 63.4083,180.493 66.5,180.5C 77.4784,179.342 87.1451,175.175 95.5,168C 107.486,162.866 119.152,163.532 130.5,170C 147.474,184.244 164.141,183.911 180.5,169C 186.863,164.262 193.863,162.762 201.5,164.5C 204.623,166.544 207.956,168.211 211.5,169.5C 212.801,167.556 213.801,165.556 214.5,163.5C 215.535,162.754 216.535,161.254 217.5,159C 217.014,156.973 217.014,154.807 217.5,152.5C 218.833,152.5 220.167,152.5 221.5,152.5 Z"/></g>
<g><path style="opacity:1" fill="#6d7ba5" d="M 117.5,167.5 C 113.486,167.334 109.486,167.501 105.5,168C 99.3592,170.345 93.3592,172.845 87.5,175.5C 94.2998,170.269 101.967,166.936 110.5,165.5C 113.08,165.724 115.414,166.391 117.5,167.5 Z"/></g>
<g><path style="opacity:1" fill="#7683ac" d="M 195.5,165.5 C 188.845,168.813 182.178,172.147 175.5,175.5C 181.038,170.064 187.705,166.731 195.5,165.5 Z"/></g>
<g><path style="opacity:1" fill="#4261a9" d="M 195.5,165.5 C 197.199,165.34 198.866,165.506 200.5,166C 204.131,168.476 207.798,170.809 211.5,173C 207.735,182.697 203.068,191.864 197.5,200.5C 196.488,201.872 195.488,203.205 194.5,204.5C 193.789,202.97 192.789,201.637 191.5,200.5C 191.5,199.5 191.5,198.5 191.5,197.5C 187.486,197.334 183.486,197.501 179.5,198C 171.458,202.353 163.458,206.686 155.5,211C 149.431,211.804 143.431,211.471 137.5,210C 133.438,206.971 129.105,204.471 124.5,202.5C 123.508,202.672 122.842,202.338 122.5,201.5C 121.942,200.21 120.942,199.377 119.5,199C 114.875,197.838 110.208,197.504 105.5,198C 103.416,198.697 101.749,199.864 100.5,201.5C 98.712,201.215 97.0453,201.548 95.5,202.5C 89.1518,208.426 81.6518,211.426 73,211.5C 70.1667,211.333 67.3333,211.167 64.5,211C 56.9564,206.627 49.2897,202.46 41.5,198.5C 39.8333,198.167 38.1667,197.833 36.5,197.5C 32.4931,198.173 28.4931,198.839 24.5,199.5C 21.333,195.997 18.9996,191.997 17.5,187.5C 17.0348,183.938 15.8681,180.605 14,177.5C 13.1923,175.421 13.359,173.421 14.5,171.5C 19.7304,168.519 25.3971,167.186 31.5,167.5C 38.8548,169.504 45.5215,172.837 51.5,177.5C 52.6155,180.08 54.6155,181.746 57.5,182.5C 64.8333,183.833 72.1667,183.833 79.5,182.5C 82.2702,180.142 84.9369,177.808 87.5,175.5C 93.3592,172.845 99.3592,170.345 105.5,168C 109.486,167.501 113.486,167.334 117.5,167.5C 120.528,167.339 123.361,168.006 126,169.5C 131.747,173.291 137.58,176.957 143.5,180.5C 150.44,182.927 157.44,183.094 164.5,181C 168.189,179.156 171.855,177.322 175.5,175.5C 182.178,172.147 188.845,168.813 195.5,165.5 Z"/></g>
<g><path style="opacity:1" fill="#5f6e97" d="M 87.5,175.5 C 84.9369,177.808 82.2702,180.142 79.5,182.5C 72.1667,183.833 64.8333,183.833 57.5,182.5C 54.6155,181.746 52.6155,180.08 51.5,177.5C 63.9254,184.658 75.9254,183.991 87.5,175.5 Z"/></g>
<g><path style="opacity:1" fill="#1f1f1f" d="M -0.5,37.5 C 0.833333,37.5 2.16667,37.5 3.5,37.5C 3.33335,71.5016 3.50002,105.502 4,139.5C 4.2695,142.224 4.7695,144.891 5.5,147.5C 40.8333,147.833 76.1667,148.167 111.5,148.5C 147.173,148.5 182.506,147.833 217.5,146.5C 218.639,148.297 219.306,149.963 219.5,151.5C 220.172,150.051 220.839,148.718 221.5,147.5C 221.5,149.167 221.5,150.833 221.5,152.5C 220.167,152.5 218.833,152.5 217.5,152.5C 217.014,154.807 217.014,156.973 217.5,159C 216.535,161.254 215.535,162.754 214.5,163.5C 215.008,159.803 215.674,156.136 216.5,152.5C 146.167,152.5 75.8333,152.5 5.5,152.5C 6.83964,158.191 8.33964,163.858 10,169.5C 10.3826,170.056 10.8826,170.389 11.5,170.5C 11.5,170.833 11.5,171.167 11.5,171.5C 12.1422,177.437 14.1422,182.77 17.5,187.5C 18.9996,191.997 21.333,195.997 24.5,199.5C 24.1961,200.15 23.8627,200.817 23.5,201.5C 24.7824,201.088 25.7824,201.754 26.5,203.5C 51.8203,237.119 85.487,250.952 127.5,245C 155.219,240.152 177.552,226.652 194.5,204.5C 195.488,203.205 196.488,201.872 197.5,200.5C 200.02,201.55 201.354,200.55 201.5,197.5C 202.5,197.5 203.5,197.5 204.5,197.5C 185.119,228.03 157.453,245.697 121.5,250.5C 112.833,250.5 104.167,250.5 95.5,250.5C 75.6133,247.183 57.6133,239.35 41.5,227C 17.314,205.129 3.31403,177.962 -0.5,145.5C -0.5,109.5 -0.5,73.5 -0.5,37.5 Z"/></g>
<g><path style="opacity:1" fill="#323751" d="M 191.5,200.5 C 187.554,199.473 183.554,199.306 179.5,200C 171.833,204.333 164.167,208.667 156.5,213C 143.76,215.364 133.093,211.864 124.5,202.5C 129.105,204.471 133.438,206.971 137.5,210C 143.431,211.471 149.431,211.804 155.5,211C 163.458,206.686 171.458,202.353 179.5,198C 183.486,197.501 187.486,197.334 191.5,197.5C 191.5,198.5 191.5,199.5 191.5,200.5 Z"/></g>
<g><path style="opacity:1" fill="#31374e" d="M 100.5,201.5 C 95.2652,205.463 89.5986,208.963 83.5,212C 71.4282,215.765 60.7615,213.432 51.5,205C 45.4313,200.816 38.7646,199.149 31.5,200C 29.2404,200.549 27.5738,201.716 26.5,203.5C 25.7824,201.754 24.7824,201.088 23.5,201.5C 23.8627,200.817 24.1961,200.15 24.5,199.5C 28.4931,198.839 32.4931,198.173 36.5,197.5C 38.1667,197.833 39.8333,198.167 41.5,198.5C 49.2897,202.46 56.9564,206.627 64.5,211C 67.3333,211.167 70.1667,211.333 73,211.5C 81.6518,211.426 89.1518,208.426 95.5,202.5C 97.0453,201.548 98.712,201.215 100.5,201.5 Z"/></g>
<g><path style="opacity:1" fill="#fbfbfa" d="M 100.5,201.5 C 107.849,198.904 115.182,198.904 122.5,201.5C 122.842,202.338 123.508,202.672 124.5,202.5C 133.093,211.864 143.76,215.364 156.5,213C 164.167,208.667 171.833,204.333 179.5,200C 183.554,199.306 187.554,199.473 191.5,200.5C 192.789,201.637 193.789,202.97 194.5,204.5C 177.552,226.652 155.219,240.152 127.5,245C 85.487,250.952 51.8203,237.119 26.5,203.5C 27.5738,201.716 29.2404,200.549 31.5,200C 38.7646,199.149 45.4313,200.816 51.5,205C 60.7615,213.432 71.4282,215.765 83.5,212C 89.5986,208.963 95.2652,205.463 100.5,201.5 Z"/></g>
<g><path style="opacity:1" fill="#2a334f" d="M 122.5,201.5 C 115.182,198.904 107.849,198.904 100.5,201.5C 101.749,199.864 103.416,198.697 105.5,198C 110.208,197.504 114.875,197.838 119.5,199C 120.942,199.377 121.942,200.21 122.5,201.5 Z"/></g>
</svg>
