<?xml version="1.0" encoding="UTF-8"?>
<!DOCTYPE svg PUBLIC "-//W3C//DTD SVG 1.1//EN" "http://www.w3.org/Graphics/SVG/1.1/DTD/svg11.dtd">
<svg xmlns="http://www.w3.org/2000/svg" version="1.1" width="260px" height="266px" style="shape-rendering:geometricPrecision; text-rendering:geometricPrecision; image-rendering:optimizeQuality; fill-rule:evenodd; clip-rule:evenodd" xmlns:xlink="http://www.w3.org/1999/xlink">
<g><path style="opacity:1" fill="#fbfbfb" d="M -0.5,-0.5 C 86.1667,-0.5 172.833,-0.5 259.5,-0.5C 259.5,88.1667 259.5,176.833 259.5,265.5C 172.833,265.5 86.1667,265.5 -0.5,265.5C -0.5,176.833 -0.5,88.1667 -0.5,-0.5 Z"/></g>
<g><path style="opacity:1" fill="#365094" d="M 111.5,12.5 C 89.8072,11.8445 68.4738,12.5112 47.5,14.5C 46.4138,14.62 45.7472,15.2867 45.5,16.5C 46.2491,20.5841 47.2491,24.5841 48.5,28.5C 46.1119,27.7813 44.6119,26.1146 44,23.5C 43.5804,19.8086 43.0804,16.1419 42.5,12.5C 33.4754,12.1685 24.4754,12.5018 15.5,13.5C 14.5429,19.439 14.2096,25.439 14.5,31.5C 13.5093,25.021 13.176,18.3543 13.5,11.5C 46.3376,11.1684 79.0043,11.5017 111.5,12.5 Z"/></g>
<g><path style="opacity:1" fill="#352f36" d="M 111.5,7.5 C 158.826,8.39696 206.16,8.73029 253.5,8.5C 251.445,55.1326 249.612,101.799 248,148.5C 245.096,191.342 225.596,224.009 189.5,246.5C 187.507,245.528 187.174,244.195 188.5,242.5C 189.694,241.728 190.694,240.728 191.5,239.5C 196.013,238.069 199.68,235.403 202.5,231.5C 207.74,227.767 212.574,223.434 217,218.5C 219.37,214.403 222.203,210.736 225.5,207.5C 228.004,203.172 231.004,199.172 234.5,195.5C 236.861,185.803 240.028,176.47 244,167.5C 244.809,144.616 246.309,121.783 248.5,99C 248.486,94.5853 248.152,90.252 247.5,86C 240.508,85.5004 233.508,85.3337 226.5,85.5C 226.5,85.1667 226.5,84.8333 226.5,84.5C 226.932,83.2905 227.599,82.2905 228.5,81.5C 228.5,82.5 228.5,83.5 228.5,84.5C 234.5,84.5 240.5,84.5 246.5,84.5C 247.458,60.8428 248.124,37.1761 248.5,13.5C 224.167,13.5 199.833,13.5 175.5,13.5C 174.609,12.8902 173.609,12.5569 172.5,12.5C 172.167,12.5 171.833,12.5 171.5,12.5C 135.847,10.6716 99.8473,9.83824 63.5,10C 79.8647,10.1548 95.8647,9.32148 111.5,7.5 Z"/></g>
<g><path style="opacity:1" fill="#f2f3f3" d="M 175.5,13.5 C 199.833,13.5 224.167,13.5 248.5,13.5C 248.124,37.1761 247.458,60.8428 246.5,84.5C 240.5,84.5 234.5,84.5 228.5,84.5C 228.5,83.5 228.5,82.5 228.5,81.5C 231.473,75.5624 234.973,69.8958 239,64.5C 240.385,65.5505 241.385,66.8839 242,68.5C 242.499,64.8484 242.665,61.1817 242.5,57.5C 243.48,51.5664 244.813,45.5664 246.5,39.5C 246.332,37.8295 245.665,36.4961 244.5,35.5C 244.773,32.8166 243.773,31.3166 241.5,31C 238.739,35.835 236.073,40.0017 233.5,43.5C 234.751,36.9952 236.084,30.4952 237.5,24C 237.109,21.0467 236.275,18.2134 235,15.5C 233.418,16.9603 232.085,18.627 231,20.5C 227.699,36.3524 225.199,52.3524 223.5,68.5C 222.662,68.8417 222.328,69.5084 222.5,70.5C 221.363,74.4172 220.53,78.4172 220,82.5C 219.174,84.4054 218.007,84.7388 216.5,83.5C 218.628,71.5254 220.628,59.5254 222.5,47.5C 223.669,44.659 224.669,41.659 225.5,38.5C 226.181,34.6008 227.181,30.7675 228.5,27C 228.167,26.5 227.833,26 227.5,25.5C 221.297,33.4387 217.63,42.4387 216.5,52.5C 215.662,52.8417 215.328,53.5084 215.5,54.5C 215.005,56.4817 214.505,58.4817 214,60.5C 213.501,56.1794 213.334,51.8461 213.5,47.5C 213.461,46.2438 213.961,45.2438 215,44.5C 215.667,35.8333 215.667,27.1667 215,18.5C 213.276,15.2697 211.276,14.9364 209,17.5C 208.5,31.5069 208.667,45.5069 209.5,59.5C 208.833,57.5 208.167,55.5 207.5,53.5C 206.05,42.6057 201.883,32.939 195,24.5C 194.833,25 194.667,25.5 194.5,26C 200.001,43.8355 204.001,62.0022 206.5,80.5C 206.167,81.8333 205.833,83.1667 205.5,84.5C 204.817,84.1373 204.15,83.8039 203.5,83.5C 201.741,72.9252 199.408,62.5919 196.5,52.5C 196.5,50.1667 196.5,47.8333 196.5,45.5C 195.644,36.7374 194.144,28.0708 192,19.5C 190.287,18.1218 188.953,16.4552 188,14.5C 187.163,16.8383 186.33,19.1716 185.5,21.5C 187.051,28.8047 188.384,36.138 189.5,43.5C 188.833,42.8333 188.167,42.1667 187.5,41.5C 186.694,37.0544 184.694,33.2211 181.5,30C 179.193,29.7287 178.026,30.8953 178,33.5C 178.858,44.8089 179.858,56.1423 181,67.5C 182,66.1667 183,64.8333 184,63.5C 189.028,68.2226 192.528,73.8893 194.5,80.5C 194.833,81.8333 195.167,83.1667 195.5,84.5C 188.833,84.5 182.167,84.5 175.5,84.5C 175.5,60.8333 175.5,37.1667 175.5,13.5 Z"/></g>
<g><path style="opacity:1" fill="#2d54a4" d="M 111.5,12.5 C 116.316,13.3261 121.316,13.8261 126.5,14C 126.833,14.3333 127.167,14.6667 127.5,15C 125.5,15.3333 123.5,15.6667 121.5,16C 120.748,16.6708 120.414,17.5041 120.5,18.5C 117.5,19.8333 114.5,19.8333 111.5,18.5C 109.704,19.7927 108.037,21.2927 106.5,23C 104.966,23.923 103.299,24.423 101.5,24.5C 96.6772,23.9028 92.0106,22.7361 87.5,21C 82.1602,19.466 77.6602,20.6326 74,24.5C 73.0622,28.7281 70.8955,32.0615 67.5,34.5C 68.312,31.006 66.9787,28.3394 63.5,26.5C 62.8333,26.8333 62.1667,27.1667 61.5,27.5C 59.4114,20.4121 54.7448,16.0788 47.5,14.5C 68.4738,12.5112 89.8072,11.8445 111.5,12.5 Z"/></g>
<g><path style="opacity:1" fill="#325499" d="M 111.5,18.5 C 114.5,19.8333 117.5,19.8333 120.5,18.5C 118.903,25.0401 117.903,31.7067 117.5,38.5C 117.441,41.1094 118.108,43.4428 119.5,45.5C 114.262,42.2118 113.262,37.8785 116.5,32.5C 115.934,29.5826 115.934,26.5826 116.5,23.5C 114.856,23.2865 113.356,23.6198 112,24.5C 109.591,28.0636 107.424,31.7302 105.5,35.5C 101.167,35.5 96.8333,35.5 92.5,35.5C 92.5,37.1667 92.5,38.8333 92.5,40.5C 91.9517,43.0838 90.285,44.0838 87.5,43.5C 87.6641,40.8127 87.4974,38.146 87,35.5C 85.9887,36.3366 84.8221,36.67 83.5,36.5C 85.0583,31.7019 88.0583,30.5353 92.5,33C 99.8862,35.3845 105.22,33.2178 108.5,26.5C 108.03,25.537 107.363,25.537 106.5,26.5C 106.5,26.1667 106.5,25.8333 106.5,25.5C 109.763,24.4932 111.429,22.1598 111.5,18.5 Z"/></g>
<g><path style="opacity:1" fill="#28283d" d="M 111.5,7.5 C 95.8647,9.32148 79.8647,10.1548 63.5,10C 99.8473,9.83824 135.847,10.6716 171.5,12.5C 151.5,12.5 131.5,12.5 111.5,12.5C 79.0043,11.5017 46.3376,11.1684 13.5,11.5C 13.176,18.3543 13.5093,25.021 14.5,31.5C 14.5,35.5 14.5,39.5 14.5,43.5C 13.3175,37.3067 11.6508,31.3067 9.5,25.5C 9.29902,19.491 8.96569,13.491 8.5,7.5C 42.8333,7.5 77.1667,7.5 111.5,7.5 Z"/></g>
<g><path style="opacity:1" fill="#2c54ab" d="M 48.5,28.5 C 50.7814,29.2071 52.9481,30.2071 55,31.5C 54.4742,33.2275 54.6409,34.8941 55.5,36.5C 54.2089,37.5417 54.2089,38.7083 55.5,40C 58.146,40.4974 60.8127,40.6641 63.5,40.5C 62.4684,46.4913 62.3017,52.4913 63,58.5C 61.1187,55.6491 60.2854,55.9825 60.5,59.5C 60.2854,63.0175 61.1187,63.3509 63,60.5C 63.49,61.7932 63.6567,63.1266 63.5,64.5C 57.439,64.7904 51.439,64.4571 45.5,63.5C 42.4646,65.301 39.1313,65.9677 35.5,65.5C 34.8333,65.5 34.5,65.1667 34.5,64.5C 33.791,63.596 32.791,63.2627 31.5,63.5C 31.5,64.5 31.5,65.5 31.5,66.5C 29.5328,66.2606 27.6995,66.5939 26,67.5C 25.8236,70.8818 25.3236,74.2152 24.5,77.5C 22.5331,78.6816 21.1997,78.0149 20.5,75.5C 19.7119,68.9504 19.3785,62.4504 19.5,56C 19.9054,55.0546 20.572,54.3879 21.5,54C 18.972,52.9826 18.972,51.8159 21.5,50.5C 19.8513,49.3523 18.3513,48.019 17,46.5C 17.1184,41.0675 16.2851,36.0675 14.5,31.5C 14.2096,25.439 14.5429,19.439 15.5,13.5C 24.4754,12.5018 33.4754,12.1685 42.5,12.5C 43.0804,16.1419 43.5804,19.8086 44,23.5C 44.6119,26.1146 46.1119,27.7813 48.5,28.5 Z"/></g>
<g><path style="opacity:1" fill="#2e2932" d="M 196.5,45.5 C 193.617,46.8733 191.283,46.2066 189.5,43.5C 188.384,36.138 187.051,28.8047 185.5,21.5C 186.33,19.1716 187.163,16.8383 188,14.5C 188.953,16.4552 190.287,18.1218 192,19.5C 194.144,28.0708 195.644,36.7374 196.5,45.5 Z"/></g>
<g><path style="opacity:1" fill="#2d2c31" d="M 233.5,43.5 C 232.655,44.6715 231.989,46.0048 231.5,47.5C 230.678,53.0803 229.844,53.4137 229,48.5C 227.777,56.0317 225.944,62.6983 223.5,68.5C 225.199,52.3524 227.699,36.3524 231,20.5C 232.085,18.627 233.418,16.9603 235,15.5C 236.275,18.2134 237.109,21.0467 237.5,24C 236.084,30.4952 234.751,36.9952 233.5,43.5 Z"/></g>
<g><path style="opacity:1" fill="#273029" d="M 225.5,38.5 C 224.755,36.3285 224.588,33.9952 225,31.5C 224.581,32.6721 223.915,33.6721 223,34.5C 220.858,41.2209 218.691,47.2209 216.5,52.5C 217.63,42.4387 221.297,33.4387 227.5,25.5C 227.833,26 228.167,26.5 228.5,27C 227.181,30.7675 226.181,34.6008 225.5,38.5 Z"/></g>
<g><path style="opacity:1" fill="#2a3631" d="M 187.5,41.5 C 186.685,40.5707 185.852,39.5707 185,38.5C 186.032,45.6253 187.866,52.6253 190.5,59.5C 190.376,60.1067 190.043,60.44 189.5,60.5C 188.559,58.9505 187.893,57.2838 187.5,55.5C 186.116,47.9935 183.782,40.6602 180.5,33.5C 180.036,36.0132 179.702,38.8465 179.5,42C 180.917,48.4577 182.083,54.9577 183,61.5C 183.667,59.5 184.333,57.5 185,55.5C 185.464,56.0944 185.631,56.7611 185.5,57.5C 184.962,59.1172 184.629,60.7839 184.5,62.5C 186.467,62.2606 188.301,62.5939 190,63.5C 190.464,62.9056 190.631,62.2389 190.5,61.5C 192.247,62.9807 193.414,64.9807 194,67.5C 194.526,72.6292 193.86,72.6292 192,67.5C 191,66.5 190,65.5 189,64.5C 189.398,66.6313 190.398,68.6313 192,70.5C 193.167,73.5 194.333,76.5 195.5,79.5C 195.376,80.1067 195.043,80.44 194.5,80.5C 192.528,73.8893 189.028,68.2226 184,63.5C 183,64.8333 182,66.1667 181,67.5C 179.858,56.1423 178.858,44.8089 178,33.5C 178.026,30.8953 179.193,29.7287 181.5,30C 184.694,33.2211 186.694,37.0544 187.5,41.5 Z"/></g>
<g><path style="opacity:1" fill="#2f54ab" d="M 119.5,45.5 C 120.746,48.8372 121.579,52.1705 122,55.5C 121.5,56 121,56.5 120.5,57C 116.911,57.2069 113.411,57.7069 110,58.5C 106.424,57.8004 104.591,59.467 104.5,63.5C 101.261,63.4129 98.2613,64.0795 95.5,65.5C 93.8631,61.7725 95.1964,59.7725 99.5,59.5C 101.27,58.1804 101.603,56.6804 100.5,55C 101.167,54.6667 101.833,54.3333 102.5,54C 99.6623,51.8799 96.9956,52.0466 94.5,54.5C 94.1667,53.8333 93.8333,53.1667 93.5,52.5C 94.7545,50.6663 95.4211,48.6663 95.5,46.5C 99.1947,45.5397 102.861,45.5397 106.5,46.5C 104.759,49.7638 105.759,51.5972 109.5,52C 110.833,52.6667 110.833,53.3333 109.5,54C 111.473,54.4955 113.473,54.6621 115.5,54.5C 115.662,52.4727 115.495,50.4727 115,48.5C 113.989,47.6634 112.822,47.33 111.5,47.5C 111.67,46.1779 111.337,45.0113 110.5,44C 106.528,43.2624 102.694,42.0957 99,40.5C 96.7536,41.5506 94.587,41.5506 92.5,40.5C 92.5,38.8333 92.5,37.1667 92.5,35.5C 96.8333,35.5 101.167,35.5 105.5,35.5C 107.424,31.7302 109.591,28.0636 112,24.5C 113.356,23.6198 114.856,23.2865 116.5,23.5C 115.934,26.5826 115.934,29.5826 116.5,32.5C 113.262,37.8785 114.262,42.2118 119.5,45.5 Z"/></g>
<g><path style="opacity:1" fill="#363134" d="M 213.5,47.5 C 213.167,47.5 212.833,47.5 212.5,47.5C 211.833,52.6813 211.167,58.0147 210.5,63.5C 209.571,62.3112 209.238,60.9778 209.5,59.5C 208.667,45.5069 208.5,31.5069 209,17.5C 211.276,14.9364 213.276,15.2697 215,18.5C 215.667,27.1667 215.667,35.8333 215,44.5C 213.961,45.2438 213.461,46.2438 213.5,47.5 Z"/></g>
<g><path style="opacity:1" fill="#2e54a5" d="M 92.5,40.5 C 94.587,41.5506 96.7536,41.5506 99,40.5C 102.694,42.0957 106.528,43.2624 110.5,44C 111.337,45.0113 111.67,46.1779 111.5,47.5C 112.822,47.33 113.989,47.6634 115,48.5C 115.495,50.4727 115.662,52.4727 115.5,54.5C 113.473,54.6621 111.473,54.4955 109.5,54C 110.833,53.3333 110.833,52.6667 109.5,52C 105.759,51.5972 104.759,49.7638 106.5,46.5C 102.861,45.5397 99.1947,45.5397 95.5,46.5C 95.4211,48.6663 94.7545,50.6663 93.5,52.5C 93.8333,53.1667 94.1667,53.8333 94.5,54.5C 96.9956,52.0466 99.6623,51.8799 102.5,54C 101.833,54.3333 101.167,54.6667 100.5,55C 101.603,56.6804 101.27,58.1804 99.5,59.5C 95.1964,59.7725 93.8631,61.7725 95.5,65.5C 88.4855,59.4853 82.1521,52.8187 76.5,45.5C 80.2188,43.5006 82.5521,40.5006 83.5,36.5C 84.8221,36.67 85.9887,36.3366 87,35.5C 87.4974,38.146 87.6641,40.8127 87.5,43.5C 90.285,44.0838 91.9517,43.0838 92.5,40.5 Z"/></g>
<g><path style="opacity:1" fill="#4e6c51" d="M 187.5,55.5 C 186.833,56.1667 186.167,56.8333 185.5,57.5C 185.631,56.7611 185.464,56.0944 185,55.5C 184.333,57.5 183.667,59.5 183,61.5C 182.083,54.9577 180.917,48.4577 179.5,42C 179.702,38.8465 180.036,36.0132 180.5,33.5C 183.782,40.6602 186.116,47.9935 187.5,55.5 Z"/></g>
<g><path style="opacity:1" fill="#2b3341" d="M 9.5,25.5 C 11.6508,31.3067 13.3175,37.3067 14.5,43.5C 14.5,44.5 14.5,45.5 14.5,46.5C 14.3335,58.8378 14.5001,71.1712 15,83.5C 16.6923,97.6698 17.6923,112.003 18,126.5C 18.3826,127.056 18.8826,127.389 19.5,127.5C 19.5,132.833 19.5,138.167 19.5,143.5C 19.7559,150.224 19.4226,156.891 18.5,163.5C 16.6939,155.062 15.5272,146.395 15,137.5C 13.0003,100.171 11.1669,62.8381 9.5,25.5 Z"/></g>
<g><path style="opacity:1" fill="#566a46" d="M 244.5,35.5 C 245.665,36.4961 246.332,37.8295 246.5,39.5C 244.813,45.5664 243.48,51.5664 242.5,57.5C 241.49,58.3211 240.99,60.6545 241,64.5C 237.25,53.9214 237.917,43.588 243,33.5C 243.278,34.4158 243.778,35.0825 244.5,35.5 Z"/></g>
<g><path style="opacity:1" fill="#1c223e" d="M 47.5,14.5 C 54.7448,16.0788 59.4114,20.4121 61.5,27.5C 62.1667,27.1667 62.8333,26.8333 63.5,26.5C 66.9787,28.3394 68.312,31.006 67.5,34.5C 70.8955,32.0615 73.0622,28.7281 74,24.5C 77.6602,20.6326 82.1602,19.466 87.5,21C 92.0106,22.7361 96.6772,23.9028 101.5,24.5C 103.299,24.423 104.966,23.923 106.5,23C 108.037,21.2927 109.704,19.7927 111.5,18.5C 111.429,22.1598 109.763,24.4932 106.5,25.5C 100.353,28.1759 94.3532,27.6759 88.5,24C 84.428,23.0441 80.5946,23.5441 77,25.5C 75.2366,30.0412 72.7366,34.0412 69.5,37.5C 70.841,40.8147 73.1743,42.3147 76.5,42C 78.7598,37.8282 81.0931,33.6615 83.5,29.5C 84.7722,28.954 86.1055,28.6207 87.5,28.5C 91.3578,29.3969 95.1912,30.3969 99,31.5C 102.45,31.196 104.95,29.5293 106.5,26.5C 107.363,25.537 108.03,25.537 108.5,26.5C 105.22,33.2178 99.8862,35.3845 92.5,33C 88.0583,30.5353 85.0583,31.7019 83.5,36.5C 82.5521,40.5006 80.2188,43.5006 76.5,45.5C 82.1521,52.8187 88.4855,59.4853 95.5,65.5C 102.5,73.5 109.5,81.5 116.5,89.5C 115.953,92.7024 114.953,95.7024 113.5,98.5C 112.609,99.1098 111.609,99.4431 110.5,99.5C 110.167,99.5 109.833,99.5 109.5,99.5C 110.96,97.8563 112.293,96.0229 113.5,94C 97.6627,75.8159 81.3294,57.8159 64.5,40C 61.2695,39.1389 58.2695,37.9722 55.5,36.5C 54.6409,34.8941 54.4742,33.2275 55,31.5C 52.9481,30.2071 50.7814,29.2071 48.5,28.5C 47.2491,24.5841 46.2491,20.5841 45.5,16.5C 45.7472,15.2867 46.4138,14.62 47.5,14.5 Z"/></g>
<g><path style="opacity:1" fill="#d2d6dc" d="M 64.5,30.5 C 62.9139,33.861 60.5806,35.1944 57.5,34.5C 59.3403,32.3311 61.6737,30.9977 64.5,30.5 Z"/></g>
<g><path style="opacity:1" fill="#31303c" d="M 57.5,27.5 C 58.4551,29.7099 59.9551,30.0432 62,28.5C 62.9947,29.0659 63.828,29.7326 64.5,30.5C 61.6737,30.9977 59.3403,32.3311 57.5,34.5C 56.8419,32.3609 55.8419,30.3609 54.5,28.5C 54.9382,28.5654 55.2716,28.3988 55.5,28C 53.74,25.9708 52.5733,23.8041 52,21.5C 54.068,23.3962 55.9013,25.3962 57.5,27.5 Z"/></g>
<g><path style="opacity:1" fill="#eff0f1" d="M 106.5,25.5 C 106.5,25.8333 106.5,26.1667 106.5,26.5C 104.95,29.5293 102.45,31.196 99,31.5C 95.1912,30.3969 91.3578,29.3969 87.5,28.5C 86.1055,28.6207 84.7722,28.954 83.5,29.5C 81.0931,33.6615 78.7598,37.8282 76.5,42C 73.1743,42.3147 70.841,40.8147 69.5,37.5C 72.7366,34.0412 75.2366,30.0412 77,25.5C 80.5946,23.5441 84.428,23.0441 88.5,24C 94.3532,27.6759 100.353,28.1759 106.5,25.5 Z"/></g>
<g><path style="opacity:1" fill="#dcdce4" d="M 57.5,27.5 C 55.9013,25.3962 54.068,23.3962 52,21.5C 52.5733,23.8041 53.74,25.9708 55.5,28C 55.2716,28.3988 54.9382,28.5654 54.5,28.5C 49.8076,25.9603 47.6409,21.9603 48,16.5C 53.5353,18.0352 57.0353,21.5352 58.5,27C 58.2716,27.3988 57.9382,27.5654 57.5,27.5 Z"/></g>
<g><path style="opacity:1" fill="#aab6a8" d="M 192.5,55.5 C 192.737,54.209 192.404,53.209 191.5,52.5C 191.643,50.7376 191.309,49.0709 190.5,47.5C 190.846,46.3044 191.346,46.3044 192,47.5C 193.476,50.2654 193.643,52.9321 192.5,55.5 Z"/></g>
<g><path style="opacity:1" fill="#2f54a1" d="M 55.5,36.5 C 58.2695,37.9722 61.2695,39.1389 64.5,40C 81.3294,57.8159 97.6627,75.8159 113.5,94C 112.293,96.0229 110.96,97.8563 109.5,99.5C 108.508,99.6716 107.842,99.3382 107.5,98.5C 101.799,88.9603 94.4654,80.7936 85.5,74C 78.9531,69.2066 71.6198,66.7066 63.5,66.5C 58.1667,65.1667 52.8333,65.1667 47.5,66.5C 44.9966,67.0845 42.4966,67.7511 40,68.5C 38.0188,68.1015 36.5188,67.1015 35.5,65.5C 39.1313,65.9677 42.4646,65.301 45.5,63.5C 51.439,64.4571 57.439,64.7904 63.5,64.5C 63.6567,63.1266 63.49,61.7932 63,60.5C 61.1187,63.3509 60.2854,63.0175 60.5,59.5C 60.2854,55.9825 61.1187,55.6491 63,58.5C 62.3017,52.4913 62.4684,46.4913 63.5,40.5C 60.8127,40.6641 58.146,40.4974 55.5,40C 54.2089,38.7083 54.2089,37.5417 55.5,36.5 Z"/></g>
<g><path style="opacity:1" fill="#385597" d="M 111.5,12.5 C 131.5,12.5 151.5,12.5 171.5,12.5C 171.833,12.5 172.167,12.5 172.5,12.5C 172.5,12.8333 172.5,13.1667 172.5,13.5C 172.427,31.2605 172.427,48.9272 172.5,66.5C 172.423,68.299 171.923,69.9656 171,71.5C 170.362,68.3991 169.195,65.7324 167.5,63.5C 166.617,58.8683 165.95,54.2016 165.5,49.5C 166.79,50.0577 167.623,51.0577 168,52.5C 168.497,54.8098 168.663,57.1432 168.5,59.5C 169.5,59.5 170.5,59.5 171.5,59.5C 171.824,44.9215 171.49,30.4215 170.5,16C 161.602,14.3909 152.602,14.0576 143.5,15C 146.42,17.0343 148.253,19.8677 149,23.5C 149.814,31.4128 149.647,39.2462 148.5,47C 149.126,47.7504 149.626,48.5838 150,49.5C 152.955,49.3218 156.121,49.3218 159.5,49.5C 154.128,52.9895 149.462,52.1562 145.5,47C 146.959,44.0187 147.626,40.8521 147.5,37.5C 147.066,32.1605 146.566,26.8272 146,21.5C 142.266,17.9353 137.766,16.2686 132.5,16.5C 128.386,16.7412 124.386,17.4079 120.5,18.5C 120.414,17.5041 120.748,16.6708 121.5,16C 123.5,15.6667 125.5,15.3333 127.5,15C 127.167,14.6667 126.833,14.3333 126.5,14C 121.316,13.8261 116.316,13.3261 111.5,12.5 Z"/></g>
<g><path style="opacity:1" fill="#2e54a7" d="M 165.5,49.5 C 163.741,49.0461 161.741,49.0461 159.5,49.5C 156.121,49.3218 152.955,49.3218 150,49.5C 149.626,48.5838 149.126,47.7504 148.5,47C 149.647,39.2462 149.814,31.4128 149,23.5C 148.253,19.8677 146.42,17.0343 143.5,15C 152.602,14.0576 161.602,14.3909 170.5,16C 171.49,30.4215 171.824,44.9215 171.5,59.5C 170.5,59.5 169.5,59.5 168.5,59.5C 168.663,57.1432 168.497,54.8098 168,52.5C 167.623,51.0577 166.79,50.0577 165.5,49.5 Z"/></g>
<g><path style="opacity:1" fill="#242b1f" d="M 187.5,41.5 C 188.167,42.1667 188.833,42.8333 189.5,43.5C 191.283,46.2066 193.617,46.8733 196.5,45.5C 196.5,47.8333 196.5,50.1667 196.5,52.5C 195.583,52.5064 195.083,51.5064 195,49.5C 194.764,54.6131 195.431,59.6131 197,64.5C 197.667,67.5 197.667,70.5 197,73.5C 195.191,67.5577 193.691,61.5577 192.5,55.5C 193.643,52.9321 193.476,50.2654 192,47.5C 191.346,46.3044 190.846,46.3044 190.5,47.5C 191.309,49.0709 191.643,50.7376 191.5,52.5C 189.792,49.0497 188.459,45.383 187.5,41.5 Z"/></g>
<g><path style="opacity:1" fill="#586551" d="M 234.5,58.5 C 234.34,60.153 233.674,61.4863 232.5,62.5C 231.5,63.8333 230.5,65.1667 229.5,66.5C 230.295,62.5236 230.962,58.5236 231.5,54.5C 233.35,49.4774 235.517,44.4774 238,39.5C 237.328,45.8694 236.161,52.2027 234.5,58.5 Z"/></g>
<g><path style="opacity:1" fill="#1d2440" d="M 159.5,49.5 C 161.741,49.0461 163.741,49.0461 165.5,49.5C 165.95,54.2016 166.617,58.8683 167.5,63.5C 169.089,71.1143 170.423,78.7809 171.5,86.5C 170.473,95.22 166.807,102.553 160.5,108.5C 161.246,109.736 161.579,111.07 161.5,112.5C 164.206,112.575 166.873,112.908 169.5,113.5C 170.29,114.401 171.29,115.068 172.5,115.5C 172.281,116.675 172.614,117.675 173.5,118.5C 183.033,114.265 192.366,114.599 201.5,119.5C 202.518,118.807 203.518,118.141 204.5,117.5C 203.708,118.967 203.708,120.3 204.5,121.5C 205.675,122.855 206.675,122.688 207.5,121C 206.549,120.282 206.383,119.449 207,118.5C 208.359,119.365 209.526,120.365 210.5,121.5C 213.675,121.84 215.841,123.507 217,126.5C 216.997,137.516 216.497,148.516 215.5,159.5C 213.833,159.5 212.167,159.5 210.5,159.5C 215.195,147.865 214.028,136.865 207,126.5C 199.361,119.674 190.528,117.008 180.5,118.5C 179.833,120.167 179.167,121.833 178.5,123.5C 178.688,121.897 178.188,120.563 177,119.5C 175.644,120.38 174.144,120.714 172.5,120.5C 171.833,120.167 171.167,119.833 170.5,119.5C 170.167,117.167 168.833,115.833 166.5,115.5C 164.264,114.018 161.931,113.685 159.5,114.5C 159.88,112.302 159.213,110.635 157.5,109.5C 157.5,108.167 157.5,106.833 157.5,105.5C 165.163,100.841 168.496,94.1747 167.5,85.5C 167.877,83.742 168.544,82.0754 169.5,80.5C 168.476,74.6413 167.142,68.9746 165.5,63.5C 164.081,60.4044 163.081,57.0711 162.5,53.5C 158.434,52.5095 154.434,52.8428 150.5,54.5C 149.5,53.8333 148.5,53.1667 147.5,52.5C 147.027,51.0937 146.027,50.427 144.5,50.5C 144.5,48.5 144.5,46.5 144.5,44.5C 144.993,42.1944 145.326,39.861 145.5,37.5C 146.765,35.6431 146.432,33.9764 144.5,32.5C 145.451,31.0813 145.784,29.4147 145.5,27.5C 143.167,27.5 140.833,27.5 138.5,27.5C 137.5,27.5 136.5,27.5 135.5,27.5C 130.5,27.5 125.5,27.5 120.5,27.5C 120.058,31.1545 119.724,34.8212 119.5,38.5C 119.328,39.4916 119.662,40.1583 120.5,40.5C 121.28,44.1267 122.78,47.46 125,50.5C 125.671,51.2524 126.504,51.5858 127.5,51.5C 127.5,52.5 127.5,53.5 127.5,54.5C 127.5,54.8333 127.5,55.1667 127.5,55.5C 126.13,57.1722 124.797,58.8388 123.5,60.5C 120.237,61.4822 116.903,62.1489 113.5,62.5C 114.153,68.8592 116.153,74.5259 119.5,79.5C 121.847,80.6069 122.18,82.2736 120.5,84.5C 119.662,84.8417 119.328,85.5084 119.5,86.5C 118.833,87.1667 118.167,87.8333 117.5,88.5C 115.121,80.6084 113.121,72.6084 111.5,64.5C 111.833,63.1667 112.167,61.8333 112.5,60.5C 115.45,59.5123 118.45,58.679 121.5,58C 124.08,56.5186 124.913,54.352 124,51.5C 122.236,49.6107 120.736,47.6107 119.5,45.5C 118.108,43.4428 117.441,41.1094 117.5,38.5C 117.903,31.7067 118.903,25.0401 120.5,18.5C 124.386,17.4079 128.386,16.7412 132.5,16.5C 137.766,16.2686 142.266,17.9353 146,21.5C 146.566,26.8272 147.066,32.1605 147.5,37.5C 147.626,40.8521 146.959,44.0187 145.5,47C 149.462,52.1562 154.128,52.9895 159.5,49.5 Z"/></g>
<g><path style="opacity:1" fill="#dfe6e9" d="M 127.5,55.5 C 127.5,55.1667 127.5,54.8333 127.5,54.5C 130,52.2296 132.667,51.2296 135.5,51.5C 133.631,55.1053 130.964,56.4386 127.5,55.5 Z"/></g>
<g><path style="opacity:1" fill="#dedee7" d="M 144.5,50.5 C 146.027,50.427 147.027,51.0937 147.5,52.5C 143.853,53.4424 140.186,53.9424 136.5,54C 138.372,51.0561 141.039,49.8895 144.5,50.5 Z"/></g>
<g><path style="opacity:1" fill="#ecedf2" d="M 145.5,37.5 C 145.326,39.861 144.993,42.1944 144.5,44.5C 143.596,45.209 143.263,46.209 143.5,47.5C 141.833,47.5 140.167,47.5 138.5,47.5C 138.234,43.4295 138.567,39.4295 139.5,35.5C 141.396,34.5344 143.396,34.2011 145.5,34.5C 145.5,35.5 145.5,36.5 145.5,37.5 Z"/></g>
<g><path style="opacity:1" fill="#f1f2f5" d="M 135.5,27.5 C 136.663,34.4443 136.663,41.4443 135.5,48.5C 132.557,48.9802 129.89,49.9802 127.5,51.5C 126.504,51.5858 125.671,51.2524 125,50.5C 122.78,47.46 121.28,44.1267 120.5,40.5C 122.011,39.0425 123.011,37.2092 123.5,35C 126.117,34.1785 128.784,33.6785 131.5,33.5C 131.5,32.5 131.5,31.5 131.5,30.5C 128.167,30.5 124.833,30.5 121.5,30.5C 121.435,33.4282 120.768,36.0948 119.5,38.5C 119.724,34.8212 120.058,31.1545 120.5,27.5C 125.5,27.5 130.5,27.5 135.5,27.5 Z"/></g>
<g><path style="opacity:1" fill="#28242c" d="M 120.5,40.5 C 119.662,40.1583 119.328,39.4916 119.5,38.5C 120.768,36.0948 121.435,33.4282 121.5,30.5C 124.833,30.5 128.167,30.5 131.5,30.5C 131.5,31.5 131.5,32.5 131.5,33.5C 128.784,33.6785 126.117,34.1785 123.5,35C 123.011,37.2092 122.011,39.0425 120.5,40.5 Z"/></g>
<g><path style="opacity:1" fill="#c6cdd4" d="M 138.5,27.5 C 140.833,27.5 143.167,27.5 145.5,27.5C 145.784,29.4147 145.451,31.0813 144.5,32.5C 140.062,33.5749 138.062,31.9083 138.5,27.5 Z"/></g>
<g><path style="opacity:1" fill="#e8dcd9" d="M 121.5,23.5 C 128.863,23.1694 136.197,23.5027 143.5,24.5C 139.833,24.8333 136.167,25.1667 132.5,25.5C 128.435,25.4888 124.768,24.8222 121.5,23.5 Z"/></g>
<g><path style="opacity:1" fill="#d6dbe4" d="M 127.5,18.5 C 131.637,18.1463 135.637,18.6463 139.5,20C 134.5,20.6667 129.5,20.6667 124.5,20C 125.737,19.7679 126.737,19.2679 127.5,18.5 Z"/></g>
<g><path style="opacity:1" fill="#e2dee6" d="M 187.5,55.5 C 187.893,57.2838 188.559,58.9505 189.5,60.5C 189.5,61.1667 189.833,61.5 190.5,61.5C 190.631,62.2389 190.464,62.9056 190,63.5C 188.301,62.5939 186.467,62.2606 184.5,62.5C 184.629,60.7839 184.962,59.1172 185.5,57.5C 186.167,56.8333 186.833,56.1667 187.5,55.5 Z"/></g>
<g><path style="opacity:1" fill="#f7f9f8" d="M 119.5,79.5 C 116.153,74.5259 114.153,68.8592 113.5,62.5C 116.903,62.1489 120.237,61.4822 123.5,60.5C 125.856,59.4249 128.189,59.4249 130.5,60.5C 132.961,65.3189 133.628,70.3189 132.5,75.5C 128.051,76.8447 123.718,78.178 119.5,79.5 Z"/></g>
<g><path style="opacity:1" fill="#dfe8e3" d="M 232.5,62.5 C 233.674,61.4863 234.34,60.153 234.5,58.5C 235.151,57.9094 235.818,57.2427 236.5,56.5C 237.292,58.4648 237.959,60.4648 238.5,62.5C 236.892,63.3184 235.225,63.9851 233.5,64.5C 232.702,64.0431 232.369,63.3764 232.5,62.5 Z"/></g>
<g><path style="opacity:1" fill="#465783" d="M 172.5,13.5 C 173.498,37.3275 173.831,61.3275 173.5,85.5C 172.833,85.8333 172.167,86.1667 171.5,86.5C 170.423,78.7809 169.089,71.1143 167.5,63.5C 169.195,65.7324 170.362,68.3991 171,71.5C 171.923,69.9656 172.423,68.299 172.5,66.5C 172.427,48.9272 172.427,31.2605 172.5,13.5 Z"/></g>
<g><path style="opacity:1" fill="#1d2d1b" d="M 231.5,54.5 C 230.962,58.5236 230.295,62.5236 229.5,66.5C 228.194,69.3379 227.027,72.3379 226,75.5C 226.176,68.0991 227.176,60.7657 229,53.5C 229.342,55.6192 230.175,55.9526 231.5,54.5 Z"/></g>
<g><path style="opacity:1" fill="#272c24" d="M 244.5,35.5 C 243.778,35.0825 243.278,34.4158 243,33.5C 237.917,43.588 237.25,53.9214 241,64.5C 240.99,60.6545 241.49,58.3211 242.5,57.5C 242.665,61.1817 242.499,64.8484 242,68.5C 241.385,66.8839 240.385,65.5505 239,64.5C 234.973,69.8958 231.473,75.5624 228.5,81.5C 229.642,77.004 231.308,72.6707 233.5,68.5C 233.154,67.3044 232.654,67.3044 232,68.5C 228.519,76.17 227.685,75.5034 229.5,66.5C 230.5,65.1667 231.5,63.8333 232.5,62.5C 232.369,63.3764 232.702,64.0431 233.5,64.5C 235.225,63.9851 236.892,63.3184 238.5,62.5C 237.959,60.4648 237.292,58.4648 236.5,56.5C 235.818,57.2427 235.151,57.9094 234.5,58.5C 236.161,52.2027 237.328,45.8694 238,39.5C 235.517,44.4774 233.35,49.4774 231.5,54.5C 232.103,51.9591 232.103,49.6257 231.5,47.5C 231.989,46.0048 232.655,44.6715 233.5,43.5C 236.073,40.0017 238.739,35.835 241.5,31C 243.773,31.3166 244.773,32.8166 244.5,35.5 Z"/></g>
<g><path style="opacity:1" fill="#f4f6f7" d="M 165.5,63.5 C 165.785,65.288 165.452,66.9547 164.5,68.5C 159.535,69.7117 154.535,70.7117 149.5,71.5C 148.741,66.6285 147.741,61.7952 146.5,57C 147.032,54.9803 148.365,54.147 150.5,54.5C 154.434,52.8428 158.434,52.5095 162.5,53.5C 163.081,57.0711 164.081,60.4044 165.5,63.5 Z"/></g>
<g><path style="opacity:1" fill="#30519c" d="M 119.5,45.5 C 120.736,47.6107 122.236,49.6107 124,51.5C 124.913,54.352 124.08,56.5186 121.5,58C 118.45,58.679 115.45,59.5123 112.5,60.5C 112.167,61.8333 111.833,63.1667 111.5,64.5C 113.121,72.6084 115.121,80.6084 117.5,88.5C 117.5,89.1667 117.167,89.5 116.5,89.5C 109.5,81.5 102.5,73.5 95.5,65.5C 98.2613,64.0795 101.261,63.4129 104.5,63.5C 104.591,59.467 106.424,57.8004 110,58.5C 113.411,57.7069 116.911,57.2069 120.5,57C 121,56.5 121.5,56 122,55.5C 121.579,52.1705 120.746,48.8372 119.5,45.5 Z"/></g>
<g><path style="opacity:1" fill="#50634d" d="M 225.5,38.5 C 224.669,41.659 223.669,44.659 222.5,47.5C 218.569,59.4042 216.235,71.7375 215.5,84.5C 212.606,84.9577 210.106,84.291 208,82.5C 206.496,66.3053 203.33,50.472 198.5,35C 198.667,34.1667 198.833,33.3333 199,32.5C 200,34.5 201,36.5 202,38.5C 203.727,44.248 205.56,49.248 207.5,53.5C 208.167,55.5 208.833,57.5 209.5,59.5C 209.238,60.9778 209.571,62.3112 210.5,63.5C 211.167,58.0147 211.833,52.6813 212.5,47.5C 212.334,57.1724 212.5,66.8391 213,76.5C 213.963,69.9612 215.13,63.4612 216.5,57C 216.472,55.9302 216.139,55.0968 215.5,54.5C 215.328,53.5084 215.662,52.8417 216.5,52.5C 218.691,47.2209 220.858,41.2209 223,34.5C 223.915,33.6721 224.581,32.6721 225,31.5C 224.588,33.9952 224.755,36.3285 225.5,38.5 Z"/></g>
<g><path style="opacity:1" fill="#e7eaf2" d="M 48.5,68.5 C 50.9806,68.3234 52.8139,69.3234 54,71.5C 55.5617,75.0145 56.395,78.6811 56.5,82.5C 55.1779,82.67 54.0113,82.3366 53,81.5C 52.5865,77.3459 51.0865,73.6793 48.5,70.5C 48.5,69.8333 48.5,69.1667 48.5,68.5 Z"/></g>
<g><path style="opacity:1" fill="#4f5e4c" d="M 187.5,41.5 C 188.459,45.383 189.792,49.0497 191.5,52.5C 192.404,53.209 192.737,54.209 192.5,55.5C 193.691,61.5577 195.191,67.5577 197,73.5C 197.667,70.5 197.667,67.5 197,64.5C 195.431,59.6131 194.764,54.6131 195,49.5C 195.083,51.5064 195.583,52.5064 196.5,52.5C 199.408,62.5919 201.741,72.9252 203.5,83.5C 201.052,84.4731 198.385,84.8064 195.5,84.5C 195.167,83.1667 194.833,81.8333 194.5,80.5C 195.043,80.44 195.376,80.1067 195.5,79.5C 194.333,76.5 193.167,73.5 192,70.5C 190.398,68.6313 189.398,66.6313 189,64.5C 190,65.5 191,66.5 192,67.5C 193.86,72.6292 194.526,72.6292 194,67.5C 193.414,64.9807 192.247,62.9807 190.5,61.5C 189.833,61.5 189.5,61.1667 189.5,60.5C 190.043,60.44 190.376,60.1067 190.5,59.5C 187.866,52.6253 186.032,45.6253 185,38.5C 185.852,39.5707 186.685,40.5707 187.5,41.5 Z"/></g>
<g><path style="opacity:1" fill="#213153" d="M 14.5,46.5 C 16.6485,73.3207 18.3152,100.321 19.5,127.5C 18.8826,127.389 18.3826,127.056 18,126.5C 17.6923,112.003 16.6923,97.6698 15,83.5C 14.5001,71.1712 14.3335,58.8378 14.5,46.5 Z"/></g>
<g><path style="opacity:1" fill="#5c725c" d="M 231.5,47.5 C 232.103,49.6257 232.103,51.9591 231.5,54.5C 230.175,55.9526 229.342,55.6192 229,53.5C 227.176,60.7657 226.176,68.0991 226,75.5C 227.027,72.3379 228.194,69.3379 229.5,66.5C 227.685,75.5034 228.519,76.17 232,68.5C 232.654,67.3044 233.154,67.3044 233.5,68.5C 231.308,72.6707 229.642,77.004 228.5,81.5C 227.599,82.2905 226.932,83.2905 226.5,84.5C 224.833,84.5 223.167,84.5 221.5,84.5C 221.777,80.4444 222.444,76.4444 223.5,72.5C 223.457,71.5836 223.124,70.9169 222.5,70.5C 222.328,69.5084 222.662,68.8417 223.5,68.5C 225.944,62.6983 227.777,56.0317 229,48.5C 229.844,53.4137 230.678,53.0803 231.5,47.5 Z"/></g>
<g><path style="opacity:1" fill="#e4e4e9" d="M 38.5,70.5 C 41.8398,71.5132 44.5065,73.5132 46.5,76.5C 47.5896,75.6086 47.5896,74.6086 46.5,73.5C 46.8457,72.3044 47.3457,72.3044 48,73.5C 52.3108,79.7683 50.8108,81.7683 43.5,79.5C 37.3277,78.6859 34.661,75.3525 35.5,69.5C 36.4168,70.1272 37.4168,70.4606 38.5,70.5 Z"/></g>
<g><path style="opacity:1" fill="#3b3c41" d="M 37.5,72.5 C 40.069,73.4632 42.4024,74.7965 44.5,76.5C 40.7932,77.8229 38.4599,76.4896 37.5,72.5 Z"/></g>
<g><path style="opacity:1" fill="#33569e" d="M 14.5,31.5 C 16.2851,36.0675 17.1184,41.0675 17,46.5C 18.3513,48.019 19.8513,49.3523 21.5,50.5C 18.972,51.8159 18.972,52.9826 21.5,54C 20.572,54.3879 19.9054,55.0546 19.5,56C 19.3785,62.4504 19.7119,68.9504 20.5,75.5C 21.1997,78.0149 22.5331,78.6816 24.5,77.5C 25.3236,74.2152 25.8236,70.8818 26,67.5C 27.6995,66.5939 29.5328,66.2606 31.5,66.5C 31.5,65.5 31.5,64.5 31.5,63.5C 32.791,63.2627 33.791,63.596 34.5,64.5C 32.9837,65.8997 31.3171,67.233 29.5,68.5C 28.914,68.2907 28.414,67.9574 28,67.5C 27.115,70.538 27.615,73.2046 29.5,75.5C 29.6655,79.5138 29.4988,83.5138 29,87.5C 27.1144,90.289 25.2811,92.9556 23.5,95.5C 25.8333,95.5 28.1667,95.5 30.5,95.5C 30.2746,97.7159 31.1079,99.3826 33,100.5C 33.9426,106.436 33.4426,112.103 31.5,117.5C 30.6425,113.594 30.6425,109.76 31.5,106C 29.6556,103.196 28.9889,100.03 29.5,96.5C 28.1667,96.5 26.8333,96.5 25.5,96.5C 25.9415,101.691 25.4415,106.691 24,111.5C 23.5,110.5 23,109.5 22.5,108.5C 24.0326,103.362 23.6992,98.3617 21.5,93.5C 23.524,91.3102 25.3573,88.9768 27,86.5C 27.6667,84.1667 27.6667,81.8333 27,79.5C 27.1409,83.8312 25.8075,84.4978 23,81.5C 22,81.8333 21,82.1667 20,82.5C 20.125,102.839 20.7917,123.172 22,143.5C 22.4994,138.177 22.666,132.844 22.5,127.5C 23.5,127.5 24.5,127.5 25.5,127.5C 25.4943,135.548 24.8276,143.548 23.5,151.5C 24.283,161.404 25.9496,171.07 28.5,180.5C 23.5912,168.621 20.5912,156.288 19.5,143.5C 19.5,138.167 19.5,132.833 19.5,127.5C 18.3152,100.321 16.6485,73.3207 14.5,46.5C 14.5,45.5 14.5,44.5 14.5,43.5C 14.5,39.5 14.5,35.5 14.5,31.5 Z"/></g>
<g><path style="opacity:1" fill="#e7ecf2" d="M 32.5,76.5 C 35.5552,77.2465 37.2219,79.2465 37.5,82.5C 36.3515,84.7971 35.1848,87.1304 34,89.5C 32.6703,90.5822 31.1703,91.2488 29.5,91.5C 31.036,86.6297 32.036,81.6297 32.5,76.5 Z"/></g>
<g><path style="opacity:1" fill="#dedbe5" d="M 43.5,81.5 C 46.3053,82.1051 48.6387,83.4384 50.5,85.5C 46.6478,85.1305 42.9812,84.1305 39.5,82.5C 40.6888,81.5713 42.0222,81.238 43.5,81.5 Z"/></g>
<g><path style="opacity:1" fill="#18294a" d="M 63.5,66.5 C 71.6198,66.7066 78.9531,69.2066 85.5,74C 94.4654,80.7936 101.799,88.9603 107.5,98.5C 106.833,98.5 106.167,98.5 105.5,98.5C 99.7783,89.9402 92.7783,82.4402 84.5,76C 78.5974,72.3811 72.2641,69.8811 65.5,68.5C 64.8333,67.8333 64.1667,67.1667 63.5,66.5 Z"/></g>
<g><path style="opacity:1" fill="#252d2e" d="M 207.5,53.5 C 205.56,49.248 203.727,44.248 202,38.5C 201,36.5 200,34.5 199,32.5C 198.833,33.3333 198.667,34.1667 198.5,35C 203.33,50.472 206.496,66.3053 208,82.5C 210.106,84.291 212.606,84.9577 215.5,84.5C 216.235,71.7375 218.569,59.4042 222.5,47.5C 220.628,59.5254 218.628,71.5254 216.5,83.5C 218.007,84.7388 219.174,84.4054 220,82.5C 220.53,78.4172 221.363,74.4172 222.5,70.5C 223.124,70.9169 223.457,71.5836 223.5,72.5C 222.444,76.4444 221.777,80.4444 221.5,84.5C 223.167,84.5 224.833,84.5 226.5,84.5C 226.5,84.8333 226.5,85.1667 226.5,85.5C 209.325,85.8299 192.325,85.4966 175.5,84.5C 182.167,84.5 188.833,84.5 195.5,84.5C 198.385,84.8064 201.052,84.4731 203.5,83.5C 204.15,83.8039 204.817,84.1373 205.5,84.5C 205.833,83.1667 206.167,81.8333 206.5,80.5C 204.001,62.0022 200.001,43.8355 194.5,26C 194.667,25.5 194.833,25 195,24.5C 201.883,32.939 206.05,42.6057 207.5,53.5 Z"/></g>
<g><path style="opacity:1" fill="#192710" d="M 212.5,47.5 C 212.833,47.5 213.167,47.5 213.5,47.5C 213.334,51.8461 213.501,56.1794 214,60.5C 214.505,58.4817 215.005,56.4817 215.5,54.5C 216.139,55.0968 216.472,55.9302 216.5,57C 215.13,63.4612 213.963,69.9612 213,76.5C 212.5,66.8391 212.334,57.1724 212.5,47.5 Z"/></g>
<g><path style="opacity:1" fill="#dbdce3" d="M 52.5,85.5 C 56.44,84.766 57.7734,86.0993 56.5,89.5C 54.1667,89.1667 52.8333,87.8333 52.5,85.5 Z"/></g>
<g><path style="opacity:1" fill="#232534" d="M 34.5,64.5 C 34.5,65.1667 34.8333,65.5 35.5,65.5C 36.5188,67.1015 38.0188,68.1015 40,68.5C 42.4966,67.7511 44.9966,67.0845 47.5,66.5C 47.3284,67.4916 47.6618,68.1583 48.5,68.5C 48.5,69.1667 48.5,69.8333 48.5,70.5C 45.2186,69.372 41.8852,69.372 38.5,70.5C 37.4168,70.4606 36.4168,70.1272 35.5,69.5C 34.661,75.3525 37.3277,78.6859 43.5,79.5C 44.5063,80.3957 44.5063,81.0623 43.5,81.5C 42.0222,81.238 40.6888,81.5713 39.5,82.5C 42.9812,84.1305 46.6478,85.1305 50.5,85.5C 51.3957,84.4937 52.0623,84.4937 52.5,85.5C 52.8333,87.8333 54.1667,89.1667 56.5,89.5C 57.1834,91.1765 58.5168,91.8432 60.5,91.5C 62.1436,92.3164 63.3103,93.6498 64,95.5C 64.4974,98.146 64.6641,100.813 64.5,103.5C 63.6618,103.158 63.3284,102.492 63.5,101.5C 64.0072,97.3303 62.3405,94.3303 58.5,92.5C 56.7238,100.214 53.7238,107.381 49.5,114C 50.1634,115.518 51.1634,116.685 52.5,117.5C 53.6737,118.514 54.3404,119.847 54.5,121.5C 52.7708,120.883 51.2708,119.883 50,118.5C 52.7336,128.407 58.9002,135.407 68.5,139.5C 67.8333,139.5 67.5,139.833 67.5,140.5C 61.494,139.153 56.8273,135.82 53.5,130.5C 51.604,129.534 49.604,129.201 47.5,129.5C 47.5,126.5 47.5,123.5 47.5,120.5C 46.5,120.5 45.5,120.5 44.5,120.5C 45.6279,131.317 42.4613,132.984 35,125.5C 34.2086,124.255 33.7086,122.922 33.5,121.5C 33.5,120.833 33.5,120.167 33.5,119.5C 34.1667,120.167 34.8333,120.833 35.5,121.5C 36.7915,124.401 38.7915,126.734 41.5,128.5C 42.4656,126.604 42.7989,124.604 42.5,122.5C 42.5,120.833 42.5,119.167 42.5,117.5C 39.9963,116.361 37.3297,115.694 34.5,115.5C 34.2322,113.901 34.5655,112.568 35.5,111.5C 36.1098,110.609 36.4431,109.609 36.5,108.5C 37.9622,98.0751 39.1289,98.4084 40,109.5C 41.5548,111.146 43.2215,111.479 45,110.5C 48.2505,103.412 49.7505,96.079 49.5,88.5C 48.109,87.3554 46.7757,87.3554 45.5,88.5C 47.3257,92.5262 46.3257,95.6929 42.5,98C 39.9644,98.1862 37.631,98.6862 35.5,99.5C 33.4972,96.8821 31.4972,94.2155 29.5,91.5C 31.1703,91.2488 32.6703,90.5822 34,89.5C 35.1848,87.1304 36.3515,84.7971 37.5,82.5C 37.2219,79.2465 35.5552,77.2465 32.5,76.5C 31.609,75.8902 30.609,75.5569 29.5,75.5C 27.615,73.2046 27.115,70.538 28,67.5C 28.414,67.9574 28.914,68.2907 29.5,68.5C 31.3171,67.233 32.9837,65.8997 34.5,64.5 Z"/></g>
<g><path style="opacity:1" fill="#bfc3cd" d="M 29.5,71.5 C 30.9953,71.4148 31.9953,72.0815 32.5,73.5C 30.6043,74.6394 29.6043,73.9728 29.5,71.5 Z"/></g>
<g><path style="opacity:1" fill="#f1f3f4" d="M 65.5,68.5 C 72.2641,69.8811 78.5974,72.3811 84.5,76C 92.7783,82.4402 99.7783,89.9402 105.5,98.5C 104.187,103.861 100.854,107.527 95.5,109.5C 95.2307,105.236 95.064,100.903 95,96.5C 93.4875,99.8566 90.9875,101.857 87.5,102.5C 87.6662,96.1579 87.4995,89.8246 87,83.5C 86.0926,88.6451 83.2593,92.3118 78.5,94.5C 78.1667,94.1667 77.8333,93.8333 77.5,93.5C 79.41,88.6585 79.91,83.6585 79,78.5C 78.3333,77.1667 77.6667,77.1667 77,78.5C 76.2486,82.2657 74.2486,85.2657 71,87.5C 70.8989,82.0541 70.2323,76.7207 69,71.5C 68.6667,71.1667 68.3333,70.8333 68,70.5C 67.4434,74.175 66.1101,77.5083 64,80.5C 62.3177,76.1476 59.8177,72.3143 56.5,69C 59.4816,68.502 62.4816,68.3354 65.5,68.5 Z"/></g>
<g><path style="opacity:1" fill="#e6eaf2" d="M 38.5,86.5 C 40.1992,86.3398 41.8659,86.5065 43.5,87C 40.4024,89.428 38.069,92.428 36.5,96C 35.5,96.6667 34.5,96.6667 33.5,96C 35.2919,92.9169 36.9586,89.7503 38.5,86.5 Z"/></g>
<g><path style="opacity:1" fill="#eef0f2" d="M 119.5,86.5 C 119.328,85.5084 119.662,84.8417 120.5,84.5C 127.097,82.8511 133.763,81.5178 140.5,80.5C 139.167,72.8333 137.833,65.1667 136.5,57.5C 138.144,57.2865 139.644,57.6198 141,58.5C 143.021,65.0594 144.521,71.726 145.5,78.5C 152.791,76.9592 160.124,75.6259 167.5,74.5C 167.859,76.7659 167.192,78.5993 165.5,80C 159.508,81.276 153.508,82.4427 147.5,83.5C 149.007,91.8616 150.674,100.195 152.5,108.5C 150.833,108.5 149.167,108.5 147.5,108.5C 146.465,101.028 144.799,93.6948 142.5,86.5C 142,86.1667 141.5,85.8333 141,85.5C 134.197,87.216 127.364,88.5493 120.5,89.5C 120.737,88.209 120.404,87.209 119.5,86.5 Z"/></g>
<g><path style="opacity:1" fill="#aaabbc" d="M 43.5,90.5 C 45.0232,93.0449 44.3566,95.0449 41.5,96.5C 41.1667,96.1667 40.8333,95.8333 40.5,95.5C 42.756,94.5791 43.756,92.9124 43.5,90.5 Z"/></g>
<g><path style="opacity:1" fill="#2a54a7" d="M 210.5,110.5 C 209.5,111.167 208.5,111.833 207.5,112.5C 204.9,113.599 202.734,115.266 201,117.5C 198.929,116.475 196.762,115.642 194.5,115C 187.152,114.479 179.819,114.645 172.5,115.5C 171.29,115.068 170.29,114.401 169.5,113.5C 167.562,111.837 165.228,111.171 162.5,111.5C 164.191,107.145 166.691,103.145 170,99.5C 170.526,96.7284 171.359,94.0618 172.5,91.5C 173.425,90.3595 174.259,90.3595 175,91.5C 175.49,90.2068 175.657,88.8734 175.5,87.5C 198.5,87.8143 221.5,88.1476 244.5,88.5C 244.559,91.0488 243.559,93.0488 241.5,94.5C 241.977,95.4776 242.643,96.3109 243.5,97C 242.684,104.421 242.184,111.921 242,119.5C 242.194,115.74 241.027,112.574 238.5,110C 229.939,103.591 220.939,102.591 211.5,107C 210.663,108.011 210.33,109.178 210.5,110.5 Z"/></g>
<g><path style="opacity:1" fill="#e1e3ee" d="M 52.5,91.5 C 53.5,91.5 54.5,91.5 55.5,91.5C 54.8658,98.9068 52.3658,105.573 48,111.5C 49.792,104.99 51.292,98.3233 52.5,91.5 Z"/></g>
<g><path style="opacity:1" fill="#6c7db0" d="M 246.5,87.5 C 246.034,96.4939 245.7,105.494 245.5,114.5C 244.169,105.456 244.502,96.4555 246.5,87.5 Z"/></g>
<g><path style="opacity:1" fill="#f3f4f4" d="M 167.5,85.5 C 168.496,94.1747 165.163,100.841 157.5,105.5C 156.076,99.5653 155.076,93.5653 154.5,87.5C 158.876,87.0912 163.21,86.4245 167.5,85.5 Z"/></g>
<g><path style="opacity:1" fill="#1b264e" d="M 29.5,75.5 C 30.609,75.5569 31.609,75.8902 32.5,76.5C 32.036,81.6297 31.036,86.6297 29.5,91.5C 31.4972,94.2155 33.4972,96.8821 35.5,99.5C 35.19,102.713 35.5233,105.713 36.5,108.5C 36.4431,109.609 36.1098,110.609 35.5,111.5C 34.5655,112.568 34.2322,113.901 34.5,115.5C 33.7659,116.708 33.4326,118.041 33.5,119.5C 33.5,120.167 33.5,120.833 33.5,121.5C 32.6554,120.329 31.9887,118.995 31.5,117.5C 33.4426,112.103 33.9426,106.436 33,100.5C 31.1079,99.3826 30.2746,97.7159 30.5,95.5C 28.1667,95.5 25.8333,95.5 23.5,95.5C 25.2811,92.9556 27.1144,90.289 29,87.5C 29.4988,83.5138 29.6655,79.5138 29.5,75.5 Z"/></g>
<g><path style="opacity:1" fill="#ecf0f3" d="M 36.5,108.5 C 35.5233,105.713 35.19,102.713 35.5,99.5C 37.631,98.6862 39.9644,98.1862 42.5,98C 46.3257,95.6929 47.3257,92.5262 45.5,88.5C 46.7757,87.3554 48.109,87.3554 49.5,88.5C 49.7505,96.079 48.2505,103.412 45,110.5C 43.2215,111.479 41.5548,111.146 40,109.5C 39.1289,98.4084 37.9622,98.0751 36.5,108.5 Z"/></g>
<g><path style="opacity:1" fill="#292f59" d="M 117.5,101.5 C 118.931,101.881 119.764,102.881 120,104.5C 120.497,106.81 120.663,109.143 120.5,111.5C 119.167,111.5 117.833,111.5 116.5,111.5C 116.167,110.5 115.5,109.833 114.5,109.5C 114.737,108.209 114.404,107.209 113.5,106.5C 114.301,104.958 114.634,103.292 114.5,101.5C 115.5,101.5 116.5,101.5 117.5,101.5 Z"/></g>
<g><path style="opacity:1" fill="#ebecef" d="M 117.5,101.5 C 116.5,101.5 115.5,101.5 114.5,101.5C 114.634,103.292 114.301,104.958 113.5,106.5C 110.228,108.77 106.728,110.77 103,112.5C 102.48,110.711 102.813,109.044 104,107.5C 106.001,104.669 108.167,102.003 110.5,99.5C 111.609,99.4431 112.609,99.1098 113.5,98.5C 115.461,96.6878 117.794,95.6878 120.5,95.5C 119.956,97.7155 118.956,99.7155 117.5,101.5 Z"/></g>
<g><path style="opacity:1" fill="#e6eaef" d="M 63.5,101.5 C 59.8461,106.796 56.1794,112.129 52.5,117.5C 51.1634,116.685 50.1634,115.518 49.5,114C 53.7238,107.381 56.7238,100.214 58.5,92.5C 62.3405,94.3303 64.0072,97.3303 63.5,101.5 Z"/></g>
<g><path style="opacity:1" fill="#f3f6f7" d="M 70.5,117.5 C 70.3507,112.205 68.6841,107.538 65.5,103.5C 65.6946,99.0848 65.1946,94.7514 64,90.5C 63.0267,88.36 61.5267,86.6933 59.5,85.5C 56.3165,71.2946 57.6498,70.9612 63.5,84.5C 65.4586,83.2519 66.9586,81.5852 68,79.5C 68.1859,83.5159 68.1859,87.5159 68,91.5C 71.3441,89.9961 74.3441,87.9961 77,85.5C 76.6622,89.1923 75.8289,92.8589 74.5,96.5C 78.5852,97.251 82.0852,95.9177 85,92.5C 85.6713,96.6357 85.1713,100.636 83.5,104.5C 86.6522,105.809 89.6522,105.476 92.5,103.5C 92.8333,103.833 93.1667,104.167 93.5,104.5C 88.2272,113.432 90.0605,115.432 99,110.5C 99.5,112 100,113.5 100.5,115C 98.1992,117.156 95.5325,118.822 92.5,120C 85.3319,122.267 77.9986,123.434 70.5,123.5C 70.5,121.5 70.5,119.5 70.5,117.5 Z"/></g>
<g><path style="opacity:1" fill="#f4f7f8" d="M 157.5,109.5 C 159.213,110.635 159.88,112.302 159.5,114.5C 159.106,118.406 157.94,122.072 156,125.5C 151.414,131.001 147.581,137.001 144.5,143.5C 143.007,139.657 141.34,135.99 139.5,132.5C 139.046,128.851 138.046,125.351 136.5,122C 138.287,119.866 140.62,119.033 143.5,119.5C 143.007,117.194 142.674,114.861 142.5,112.5C 147.705,112.392 152.705,111.392 157.5,109.5 Z"/></g>
<g><path style="opacity:1" fill="#ded7e2" d="M 35.5,111.5 C 37.8273,111.247 39.8273,111.914 41.5,113.5C 41,113.833 40.5,114.167 40,114.5C 37.8155,114.302 36.3155,113.302 35.5,111.5 Z"/></g>
<g><path style="opacity:1" fill="#1d2848" d="M 63.5,101.5 C 63.3284,102.492 63.6618,103.158 64.5,103.5C 64.8333,103.5 65.1667,103.5 65.5,103.5C 68.6841,107.538 70.3507,112.205 70.5,117.5C 69.8333,118.833 69.1667,120.167 68.5,121.5C 68.8535,115.573 67.3535,110.239 64,105.5C 62.3896,109.443 59.7229,112.443 56,114.5C 55.3333,116.167 55.3333,117.833 56,119.5C 56.6708,120.252 57.5041,120.586 58.5,120.5C 61.5443,122.011 64.8776,122.678 68.5,122.5C 65.7131,123.477 62.7131,123.81 59.5,123.5C 57.597,123.204 55.9303,122.537 54.5,121.5C 54.3404,119.847 53.6737,118.514 52.5,117.5C 56.1794,112.129 59.8461,106.796 63.5,101.5 Z"/></g>
<g><path style="opacity:1" fill="#e1e3e6" d="M 44.5,113.5 C 46.9118,113.694 47.9118,115.027 47.5,117.5C 44.0464,117.733 43.0464,116.4 44.5,113.5 Z"/></g>
<g><path style="opacity:1" fill="#3c568e" d="M 68.5,121.5 C 68.5,121.833 68.5,122.167 68.5,122.5C 64.8776,122.678 61.5443,122.011 58.5,120.5C 57.5041,120.586 56.6708,120.252 56,119.5C 55.3333,117.833 55.3333,116.167 56,114.5C 59.7229,112.443 62.3896,109.443 64,105.5C 67.3535,110.239 68.8535,115.573 68.5,121.5 Z"/></g>
<g><path style="opacity:1" fill="#385085" d="M 207.5,112.5 C 206.527,114.149 205.527,115.816 204.5,117.5C 203.518,118.141 202.518,118.807 201.5,119.5C 192.366,114.599 183.033,114.265 173.5,118.5C 172.614,117.675 172.281,116.675 172.5,115.5C 179.819,114.645 187.152,114.479 194.5,115C 196.762,115.642 198.929,116.475 201,117.5C 202.734,115.266 204.9,113.599 207.5,112.5 Z"/></g>
<g><path style="opacity:1" fill="#2e56ac" d="M 58.5,120.5 C 57.1021,114.079 59.6021,112.079 66,114.5C 66.7581,116.769 66.5914,118.936 65.5,121C 63.2487,120.793 60.9154,120.627 58.5,120.5 Z"/></g>
<g><path style="opacity:1" fill="#272733" d="M 135.5,27.5 C 136.5,27.5 137.5,27.5 138.5,27.5C 138.062,31.9083 140.062,33.5749 144.5,32.5C 146.432,33.9764 146.765,35.6431 145.5,37.5C 145.5,36.5 145.5,35.5 145.5,34.5C 143.396,34.2011 141.396,34.5344 139.5,35.5C 138.567,39.4295 138.234,43.4295 138.5,47.5C 140.167,47.5 141.833,47.5 143.5,47.5C 143.263,46.209 143.596,45.209 144.5,44.5C 144.5,46.5 144.5,48.5 144.5,50.5C 141.039,49.8895 138.372,51.0561 136.5,54C 140.186,53.9424 143.853,53.4424 147.5,52.5C 148.5,53.1667 149.5,53.8333 150.5,54.5C 148.365,54.147 147.032,54.9803 146.5,57C 147.741,61.7952 148.741,66.6285 149.5,71.5C 154.535,70.7117 159.535,69.7117 164.5,68.5C 165.452,66.9547 165.785,65.288 165.5,63.5C 167.142,68.9746 168.476,74.6413 169.5,80.5C 168.544,82.0754 167.877,83.742 167.5,85.5C 163.21,86.4245 158.876,87.0912 154.5,87.5C 155.076,93.5653 156.076,99.5653 157.5,105.5C 157.5,106.833 157.5,108.167 157.5,109.5C 152.705,111.392 147.705,112.392 142.5,112.5C 142.674,114.861 143.007,117.194 143.5,119.5C 140.62,119.033 138.287,119.866 136.5,122C 138.046,125.351 139.046,128.851 139.5,132.5C 139.672,133.492 139.338,134.158 138.5,134.5C 137.279,129.909 135.612,125.576 133.5,121.5C 133.167,120.833 132.833,120.167 132.5,119.5C 134.993,118.226 137.659,117.56 140.5,117.5C 140.853,115.365 140.02,114.032 138,113.5C 131.808,115.757 125.641,118.09 119.5,120.5C 120.269,123.624 121.936,124.291 124.5,122.5C 124.5,123.167 124.5,123.833 124.5,124.5C 123.201,126.099 121.535,126.599 119.5,126C 118.407,123.557 117.407,121.057 116.5,118.5C 118.304,117.232 120.304,116.565 122.5,116.5C 122.923,114.219 122.256,112.552 120.5,111.5C 120.663,109.143 120.497,106.81 120,104.5C 119.764,102.881 118.931,101.881 117.5,101.5C 118.956,99.7155 119.956,97.7155 120.5,95.5C 117.794,95.6878 115.461,96.6878 113.5,98.5C 114.953,95.7024 115.953,92.7024 116.5,89.5C 117.167,89.5 117.5,89.1667 117.5,88.5C 118.167,87.8333 118.833,87.1667 119.5,86.5C 120.404,87.209 120.737,88.209 120.5,89.5C 127.364,88.5493 134.197,87.216 141,85.5C 141.5,85.8333 142,86.1667 142.5,86.5C 144.799,93.6948 146.465,101.028 147.5,108.5C 149.167,108.5 150.833,108.5 152.5,108.5C 150.674,100.195 149.007,91.8616 147.5,83.5C 153.508,82.4427 159.508,81.276 165.5,80C 167.192,78.5993 167.859,76.7659 167.5,74.5C 160.124,75.6259 152.791,76.9592 145.5,78.5C 144.521,71.726 143.021,65.0594 141,58.5C 139.644,57.6198 138.144,57.2865 136.5,57.5C 137.833,65.1667 139.167,72.8333 140.5,80.5C 133.763,81.5178 127.097,82.8511 120.5,84.5C 122.18,82.2736 121.847,80.6069 119.5,79.5C 123.718,78.178 128.051,76.8447 132.5,75.5C 133.628,70.3189 132.961,65.3189 130.5,60.5C 128.189,59.4249 125.856,59.4249 123.5,60.5C 124.797,58.8388 126.13,57.1722 127.5,55.5C 130.964,56.4386 133.631,55.1053 135.5,51.5C 132.667,51.2296 130,52.2296 127.5,54.5C 127.5,53.5 127.5,52.5 127.5,51.5C 129.89,49.9802 132.557,48.9802 135.5,48.5C 136.663,41.4443 136.663,34.4443 135.5,27.5 Z"/></g>
<g><path style="opacity:1" fill="#e4e4ea" d="M 125.5,105.5 C 126.376,105.369 127.043,105.702 127.5,106.5C 128.305,108.915 129.305,111.249 130.5,113.5C 129.264,114.357 127.931,115.023 126.5,115.5C 123.239,112.269 122.906,108.936 125.5,105.5 Z"/></g>
<g><path style="opacity:1" fill="#dbd4e1" d="M 130.5,109.5 C 130.56,108.957 130.893,108.624 131.5,108.5C 132.912,109.806 134.579,110.64 136.5,111C 133.875,113.07 131.875,112.57 130.5,109.5 Z"/></g>
<g><path style="opacity:1" fill="#cdd1ce" d="M 120.5,99.5 C 123.361,100.237 124.361,101.904 123.5,104.5C 121.244,103.579 120.244,101.912 120.5,99.5 Z"/></g>
<g><path style="opacity:1" fill="#eef1f4" d="M 133.5,92.5 C 135.288,92.2148 136.955,92.5481 138.5,93.5C 139.962,98.8119 141.295,104.145 142.5,109.5C 133.079,108.536 127.079,103.869 124.5,95.5C 127.662,94.635 130.662,93.635 133.5,92.5 Z"/></g>
<g><path style="opacity:1" fill="#f7f8f8" d="M 210.5,159.5 C 208.009,164.976 205.676,170.476 203.5,176C 203.542,177.967 204.042,179.801 205,181.5C 207.664,182.998 209.83,184.998 211.5,187.5C 211.443,188.609 211.11,189.609 210.5,190.5C 202.583,198.244 194.417,205.911 186,213.5C 184.5,215.833 183,218.167 181.5,220.5C 183.396,222.881 183.729,225.381 182.5,228C 177.628,229.388 172.628,229.888 167.5,229.5C 167.678,226.784 168.178,224.117 169,221.5C 176.511,216.329 182.177,209.662 186,201.5C 186.667,199.167 186.667,196.833 186,194.5C 182.872,191.526 179.372,189.193 175.5,187.5C 172.562,185.066 169.729,182.399 167,179.5C 165.667,175.5 164.333,171.5 163,167.5C 162.533,173.282 159.366,176.282 153.5,176.5C 153.667,172.33 153,168.33 151.5,164.5C 156.511,164.666 161.511,164.499 166.5,164C 170.764,163.519 174.764,162.353 178.5,160.5C 181.645,146.641 182.312,132.641 180.5,118.5C 190.528,117.008 199.361,119.674 207,126.5C 214.028,136.865 215.195,147.865 210.5,159.5 Z"/></g>
<g><path style="opacity:1" fill="#302d35" d="M 38.5,122.5 C 38.719,121.325 38.3857,120.325 37.5,119.5C 36.8933,119.624 36.56,119.957 36.5,120.5C 35.596,119.791 35.2627,118.791 35.5,117.5C 39.2729,117.657 40.2729,119.324 38.5,122.5 Z"/></g>
<g><path style="opacity:1" fill="#edeef2" d="M 228.5,168.5 C 227.671,169.332 226.838,168.999 226,167.5C 223.599,162.768 222.932,157.768 224,152.5C 226.951,145.6 229.617,138.6 232,131.5C 233.358,124.909 231.525,119.409 226.5,115C 223.991,113.664 221.324,112.83 218.5,112.5C 213.979,113.099 209.979,114.766 206.5,117.5C 213,108.316 221.334,106.149 231.5,111C 236.146,116.311 237.646,122.477 236,129.5C 233.181,137.133 229.848,144.466 226,151.5C 224.995,157.468 225.829,163.134 228.5,168.5 Z"/></g>
<g><path style="opacity:1" fill="#b6b7c3" d="M 34.5,115.5 C 37.3297,115.694 39.9963,116.361 42.5,117.5C 42.5,119.167 42.5,120.833 42.5,122.5C 41.71,121.391 41.21,120.058 41,118.5C 40.7978,120.256 40.2978,121.922 39.5,123.5C 38.8933,123.376 38.56,123.043 38.5,122.5C 40.2729,119.324 39.2729,117.657 35.5,117.5C 35.2627,118.791 35.596,119.791 36.5,120.5C 37.5573,121.206 37.2239,121.539 35.5,121.5C 34.8333,120.833 34.1667,120.167 33.5,119.5C 33.4326,118.041 33.7659,116.708 34.5,115.5 Z"/></g>
<g><path style="opacity:1" fill="#f3f4f5" d="M 68.5,139.5 C 58.9002,135.407 52.7336,128.407 50,118.5C 51.2708,119.883 52.7708,120.883 54.5,121.5C 55.9303,122.537 57.597,123.204 59.5,123.5C 71.9846,126.737 84.3179,125.903 96.5,121C 99.1992,118.49 102.199,116.824 105.5,116C 98.1856,131.827 85.8523,139.66 68.5,139.5 Z"/></g>
<g><path style="opacity:1" fill="#ebeaed" d="M 42.5,122.5 C 42.7989,124.604 42.4656,126.604 41.5,128.5C 38.7915,126.734 36.7915,124.401 35.5,121.5C 37.2239,121.539 37.5573,121.206 36.5,120.5C 36.56,119.957 36.8933,119.624 37.5,119.5C 38.3857,120.325 38.719,121.325 38.5,122.5C 38.56,123.043 38.8933,123.376 39.5,123.5C 40.2978,121.922 40.7978,120.256 41,118.5C 41.21,120.058 41.71,121.391 42.5,122.5 Z"/></g>
<g><path style="opacity:1" fill="#335394" d="M 173.5,85.5 C 197.833,86.1667 222.167,86.8333 246.5,87.5C 244.502,96.4555 244.169,105.456 245.5,114.5C 244.768,128.832 243.935,143.165 243,157.5C 242.259,162.402 241.092,167.068 239.5,171.5C 241.415,156.9 241.915,142.234 241,127.5C 239.234,133.703 236.9,139.703 234,145.5C 232.667,147.5 231.333,149.5 230,151.5C 229.73,158.314 230.564,164.981 232.5,171.5C 228.31,164.726 227.143,157.393 229,149.5C 232.953,143.973 235.953,137.973 238,131.5C 241.48,114.332 234.646,106.165 217.5,107C 214.861,107.653 212.527,108.82 210.5,110.5C 210.33,109.178 210.663,108.011 211.5,107C 220.939,102.591 229.939,103.591 238.5,110C 241.027,112.574 242.194,115.74 242,119.5C 242.184,111.921 242.684,104.421 243.5,97C 242.643,96.3109 241.977,95.4776 241.5,94.5C 243.559,93.0488 244.559,91.0488 244.5,88.5C 221.5,88.1476 198.5,87.8143 175.5,87.5C 175.657,88.8734 175.49,90.2068 175,91.5C 174.259,90.3595 173.425,90.3595 172.5,91.5C 171.359,94.0618 170.526,96.7284 170,99.5C 166.691,103.145 164.191,107.145 162.5,111.5C 165.228,111.171 167.562,111.837 169.5,113.5C 166.873,112.908 164.206,112.575 161.5,112.5C 161.579,111.07 161.246,109.736 160.5,108.5C 166.807,102.553 170.473,95.22 171.5,86.5C 172.167,86.1667 172.833,85.8333 173.5,85.5 Z"/></g>
<g><path style="opacity:1" fill="#f2f3f6" d="M 120.5,111.5 C 122.256,112.552 122.923,114.219 122.5,116.5C 120.304,116.565 118.304,117.232 116.5,118.5C 117.407,121.057 118.407,123.557 119.5,126C 121.535,126.599 123.201,126.099 124.5,124.5C 125.376,124.369 126.043,124.702 126.5,125.5C 128.363,129.755 130.03,134.088 131.5,138.5C 130.274,141.952 128.774,145.285 127,148.5C 125.103,146.984 122.936,146.317 120.5,146.5C 121.833,142.833 123.167,139.167 124.5,135.5C 123.325,135.281 122.325,135.614 121.5,136.5C 119.98,138.662 118.98,140.995 118.5,143.5C 115.692,143.031 113.358,141.697 111.5,139.5C 112.833,137.167 114.167,134.833 115.5,132.5C 115.167,131.5 114.5,130.833 113.5,130.5C 112.182,133.65 110.016,135.983 107,137.5C 105.049,137.112 103.549,136.112 102.5,134.5C 106.842,125.456 112.842,117.789 120.5,111.5 Z"/></g>
<g><path style="opacity:1" fill="#3e4f8b" d="M 206.5,124.5 C 210.256,122.932 213.423,123.932 216,127.5C 216.61,131.236 216.277,134.903 215,138.5C 213.887,132.575 211.054,127.909 206.5,124.5 Z"/></g>
<g><path style="opacity:1" fill="#f4f4f7" d="M 166.5,115.5 C 168.833,115.833 170.167,117.167 170.5,119.5C 167.877,131.413 160.71,139.079 149,142.5C 149.032,140.402 149.699,138.402 151,136.5C 155.503,130.165 159.503,123.498 163,116.5C 164.011,115.663 165.178,115.33 166.5,115.5 Z"/></g>
<g><path style="opacity:1" fill="#dbdae3" d="M 210.5,121.5 C 215.418,119.43 219.252,120.763 222,125.5C 219.713,135.001 217.879,144.668 216.5,154.5C 216.655,160.809 218.989,166.142 223.5,170.5C 218.656,168.499 215.989,164.832 215.5,159.5C 216.497,148.516 216.997,137.516 217,126.5C 215.841,123.507 213.675,121.84 210.5,121.5 Z"/></g>
<g><path style="opacity:1" fill="#132246" d="M 232.5,171.5 C 232.433,172.959 232.766,174.292 233.5,175.5C 231.473,175.662 229.473,175.495 227.5,175C 226.944,174.617 226.611,174.117 226.5,173.5C 227.479,172.235 228.479,170.901 229.5,169.5C 229.376,168.893 229.043,168.56 228.5,168.5C 225.829,163.134 224.995,157.468 226,151.5C 229.848,144.466 233.181,137.133 236,129.5C 237.646,122.477 236.146,116.311 231.5,111C 221.334,106.149 213,108.316 206.5,117.5C 205.833,117.5 205.167,117.5 204.5,117.5C 205.527,115.816 206.527,114.149 207.5,112.5C 208.5,111.833 209.5,111.167 210.5,110.5C 212.527,108.82 214.861,107.653 217.5,107C 234.646,106.165 241.48,114.332 238,131.5C 235.953,137.973 232.953,143.973 229,149.5C 227.143,157.393 228.31,164.726 232.5,171.5 Z"/></g>
<g><path style="opacity:1" fill="#3056a3" d="M 31.5,117.5 C 31.9887,118.995 32.6554,120.329 33.5,121.5C 33.7086,122.922 34.2086,124.255 35,125.5C 42.4613,132.984 45.6279,131.317 44.5,120.5C 45.5,120.5 46.5,120.5 47.5,120.5C 47.5,123.5 47.5,126.5 47.5,129.5C 49.604,129.201 51.604,129.534 53.5,130.5C 56.8273,135.82 61.494,139.153 67.5,140.5C 67.7307,143.785 66.3974,146.285 63.5,148C 55.3339,152.582 47.3339,157.415 39.5,162.5C 38.222,167.499 38.222,172.499 39.5,177.5C 37.5648,178.15 35.5648,178.483 33.5,178.5C 33.5,177.5 33.5,176.5 33.5,175.5C 34.8333,175.5 36.1667,175.5 37.5,175.5C 34.3618,163.705 38.6951,156.539 50.5,154C 53.681,151.908 56.681,149.575 59.5,147C 58.8333,146.667 58.1667,146.333 57.5,146C 61.0917,144.725 61.0917,143.058 57.5,141C 60.0793,139.291 59.746,138.124 56.5,137.5C 53.5933,139.776 50.5933,141.776 47.5,143.5C 47.736,145.973 49.0693,147.64 51.5,148.5C 51.0814,149.672 50.4147,150.672 49.5,151.5C 47.6385,150.472 46.3052,148.972 45.5,147C 41.9373,148.184 38.9373,147.184 36.5,144C 39.8168,143.502 43.1501,143.335 46.5,143.5C 46.5,142.5 46.5,141.5 46.5,140.5C 45.448,140.649 44.448,140.483 43.5,140C 41.319,134.997 37.9857,131.164 33.5,128.5C 34.4114,132.457 35.4114,136.457 36.5,140.5C 34.6693,139.948 33.0026,139.948 31.5,140.5C 30.7696,138.659 30.1029,136.825 29.5,135C 30.727,133.413 30.3937,132.079 28.5,131C 30.1247,130.147 30.4581,129.147 29.5,128C 30.938,127.781 32.2713,127.281 33.5,126.5C 31.8333,125.167 30.1667,123.833 28.5,122.5C 29.6963,120.855 30.6963,119.189 31.5,117.5 Z"/></g>
<g><path style="opacity:1" fill="#20233c" d="M 172.5,13.5 C 172.5,13.1667 172.5,12.8333 172.5,12.5C 173.609,12.5569 174.609,12.8902 175.5,13.5C 175.5,37.1667 175.5,60.8333 175.5,84.5C 192.325,85.4966 209.325,85.8299 226.5,85.5C 233.508,85.3337 240.508,85.5004 247.5,86C 248.152,90.252 248.486,94.5853 248.5,99C 246.309,121.783 244.809,144.616 244,167.5C 240.028,176.47 236.861,185.803 234.5,195.5C 231.004,199.172 228.004,203.172 225.5,207.5C 226.5,204.833 227.5,202.167 228.5,199.5C 231.645,194.946 234.145,189.946 236,184.5C 237.684,180.284 238.851,175.951 239.5,171.5C 241.092,167.068 242.259,162.402 243,157.5C 243.935,143.165 244.768,128.832 245.5,114.5C 245.7,105.494 246.034,96.4939 246.5,87.5C 222.167,86.8333 197.833,86.1667 173.5,85.5C 173.831,61.3275 173.498,37.3275 172.5,13.5 Z"/></g>
<g><path style="opacity:1" fill="#2c57ad" d="M 31.5,117.5 C 30.6963,119.189 29.6963,120.855 28.5,122.5C 30.1667,123.833 31.8333,125.167 33.5,126.5C 32.2713,127.281 30.938,127.781 29.5,128C 30.4581,129.147 30.1247,130.147 28.5,131C 30.3937,132.079 30.727,133.413 29.5,135C 30.1029,136.825 30.7696,138.659 31.5,140.5C 33.0026,139.948 34.6693,139.948 36.5,140.5C 35.4114,136.457 34.4114,132.457 33.5,128.5C 37.9857,131.164 41.319,134.997 43.5,140C 44.448,140.483 45.448,140.649 46.5,140.5C 46.5,141.5 46.5,142.5 46.5,143.5C 43.1501,143.335 39.8168,143.502 36.5,144C 38.9373,147.184 41.9373,148.184 45.5,147C 46.3052,148.972 47.6385,150.472 49.5,151.5C 50.4147,150.672 51.0814,149.672 51.5,148.5C 49.0693,147.64 47.736,145.973 47.5,143.5C 50.5933,141.776 53.5933,139.776 56.5,137.5C 59.746,138.124 60.0793,139.291 57.5,141C 61.0917,143.058 61.0917,144.725 57.5,146C 58.1667,146.333 58.8333,146.667 59.5,147C 56.681,149.575 53.681,151.908 50.5,154C 38.6951,156.539 34.3618,163.705 37.5,175.5C 36.1667,175.5 34.8333,175.5 33.5,175.5C 33.5,176.5 33.5,177.5 33.5,178.5C 35.5648,178.483 37.5648,178.15 39.5,177.5C 39.9677,181.131 39.301,184.465 37.5,187.5C 39.7138,188.041 41.8805,188.374 44,188.5C 46.1186,194.64 46.9519,200.973 46.5,207.5C 44.8333,207.5 43.1667,207.5 41.5,207.5C 39.4484,201.996 36.9484,196.663 34,191.5C 34.6199,186.504 32.7866,182.837 28.5,180.5C 25.9496,171.07 24.283,161.404 23.5,151.5C 24.8276,143.548 25.4943,135.548 25.5,127.5C 24.5,127.5 23.5,127.5 22.5,127.5C 22.666,132.844 22.4994,138.177 22,143.5C 20.7917,123.172 20.125,102.839 20,82.5C 21,82.1667 22,81.8333 23,81.5C 25.8075,84.4978 27.1409,83.8312 27,79.5C 27.6667,81.8333 27.6667,84.1667 27,86.5C 25.3573,88.9768 23.524,91.3102 21.5,93.5C 23.6992,98.3617 24.0326,103.362 22.5,108.5C 23,109.5 23.5,110.5 24,111.5C 25.4415,106.691 25.9415,101.691 25.5,96.5C 26.8333,96.5 28.1667,96.5 29.5,96.5C 28.9889,100.03 29.6556,103.196 31.5,106C 30.6425,109.76 30.6425,113.594 31.5,117.5 Z"/></g>
<g><path style="opacity:1" fill="#292931" d="M 228.5,168.5 C 229.043,168.56 229.376,168.893 229.5,169.5C 228.479,170.901 227.479,172.235 226.5,173.5C 225.306,172.728 224.306,171.728 223.5,170.5C 218.989,166.142 216.655,160.809 216.5,154.5C 217.879,144.668 219.713,135.001 222,125.5C 219.252,120.763 215.418,119.43 210.5,121.5C 209.526,120.365 208.359,119.365 207,118.5C 206.383,119.449 206.549,120.282 207.5,121C 206.675,122.688 205.675,122.855 204.5,121.5C 203.708,120.3 203.708,118.967 204.5,117.5C 205.167,117.5 205.833,117.5 206.5,117.5C 209.979,114.766 213.979,113.099 218.5,112.5C 221.324,112.83 223.991,113.664 226.5,115C 231.525,119.409 233.358,124.909 232,131.5C 229.617,138.6 226.951,145.6 224,152.5C 222.932,157.768 223.599,162.768 226,167.5C 226.838,168.999 227.671,169.332 228.5,168.5 Z"/></g>
<g><path style="opacity:1" fill="#eef0f2" d="M 213.5,115.5 C 221.038,113.85 226.204,116.517 229,123.5C 229.624,128.223 229.29,132.89 228,137.5C 225.467,141.904 223.467,146.571 222,151.5C 221.24,157.021 221.574,162.355 223,167.5C 219.665,163.652 218.165,159.152 218.5,154C 219.667,145.16 221.667,136.493 224.5,128C 223.4,121.235 219.4,117.569 212.5,117C 213.056,116.617 213.389,116.117 213.5,115.5 Z"/></g>
<g><path style="opacity:1" fill="#e9ecee" d="M 114.5,109.5 C 115.5,109.833 116.167,110.5 116.5,111.5C 110.38,116.795 105.547,123.128 102,130.5C 101.399,132.137 100.899,133.803 100.5,135.5C 101.4,137.239 102.067,139.072 102.5,141C 101.76,147.809 101.26,154.643 101,161.5C 99.5993,163.192 97.7659,163.859 95.5,163.5C 94.4721,144.92 99.1388,127.92 109.5,112.5C 111.319,111.68 112.986,110.68 114.5,109.5 Z"/></g>
<g><path style="opacity:1" fill="#f5f7f6" d="M 67.5,148.5 C 68.8159,152.089 69.9825,155.756 71,159.5C 74.4465,163.457 77.6132,167.457 80.5,171.5C 71.1947,174.892 62.528,173.559 54.5,167.5C 54.1667,167.667 53.8333,167.833 53.5,168C 56.6845,171.612 56.0178,173.779 51.5,174.5C 53.3172,181.752 54.8172,189.085 56,196.5C 60.8279,198.661 64.3279,202.161 66.5,207C 64.6506,211.003 61.984,214.17 58.5,216.5C 56.6377,212.458 54.1377,208.792 51,205.5C 49.9887,194.135 46.6554,183.468 41,173.5C 40.3333,170.167 40.3333,166.833 41,163.5C 50.4703,159.434 59.1369,154.1 67,147.5C 67.3988,147.728 67.5654,148.062 67.5,148.5 Z"/></g>
<g><path style="opacity:1" fill="#2a3034" d="M 69.5,147.5 C 70.9372,155.708 74.9372,162.375 81.5,167.5C 82.2508,166.624 82.7508,165.624 83,164.5C 83.7185,167.407 83.2185,170.074 81.5,172.5C 80.8333,172.5 80.5,172.167 80.5,171.5C 77.6132,167.457 74.4465,163.457 71,159.5C 69.9825,155.756 68.8159,152.089 67.5,148.5C 68.1667,148.167 68.8333,147.833 69.5,147.5 Z"/></g>
<g><path style="opacity:1" fill="#2c55a8" d="M 239.5,171.5 C 236.905,173.433 234.572,173.433 232.5,171.5C 230.564,164.981 229.73,158.314 230,151.5C 231.333,149.5 232.667,147.5 234,145.5C 236.9,139.703 239.234,133.703 241,127.5C 241.915,142.234 241.415,156.9 239.5,171.5 Z"/></g>
<g><path style="opacity:1" fill="#2a2b34" d="M 63.5,66.5 C 64.1667,67.1667 64.8333,67.8333 65.5,68.5C 62.4816,68.3354 59.4816,68.502 56.5,69C 59.8177,72.3143 62.3177,76.1476 64,80.5C 66.1101,77.5083 67.4434,74.175 68,70.5C 68.3333,70.8333 68.6667,71.1667 69,71.5C 70.2323,76.7207 70.8989,82.0541 71,87.5C 74.2486,85.2657 76.2486,82.2657 77,78.5C 77.6667,77.1667 78.3333,77.1667 79,78.5C 79.91,83.6585 79.41,88.6585 77.5,93.5C 77.8333,93.8333 78.1667,94.1667 78.5,94.5C 83.2593,92.3118 86.0926,88.6451 87,83.5C 87.4995,89.8246 87.6662,96.1579 87.5,102.5C 90.9875,101.857 93.4875,99.8566 95,96.5C 95.064,100.903 95.2307,105.236 95.5,109.5C 100.854,107.527 104.187,103.861 105.5,98.5C 106.167,98.5 106.833,98.5 107.5,98.5C 107.842,99.3382 108.508,99.6716 109.5,99.5C 109.833,99.5 110.167,99.5 110.5,99.5C 108.167,102.003 106.001,104.669 104,107.5C 102.813,109.044 102.48,110.711 103,112.5C 106.728,110.77 110.228,108.77 113.5,106.5C 114.404,107.209 114.737,108.209 114.5,109.5C 112.986,110.68 111.319,111.68 109.5,112.5C 99.1388,127.92 94.4721,144.92 95.5,163.5C 97.7659,163.859 99.5993,163.192 101,161.5C 101.26,154.643 101.76,147.809 102.5,141C 102.067,139.072 101.4,137.239 100.5,135.5C 100.899,133.803 101.399,132.137 102,130.5C 105.547,123.128 110.38,116.795 116.5,111.5C 117.833,111.5 119.167,111.5 120.5,111.5C 112.842,117.789 106.842,125.456 102.5,134.5C 103.549,136.112 105.049,137.112 107,137.5C 110.016,135.983 112.182,133.65 113.5,130.5C 114.5,130.833 115.167,131.5 115.5,132.5C 114.167,134.833 112.833,137.167 111.5,139.5C 113.358,141.697 115.692,143.031 118.5,143.5C 118.98,140.995 119.98,138.662 121.5,136.5C 122.325,135.614 123.325,135.281 124.5,135.5C 123.167,139.167 121.833,142.833 120.5,146.5C 122.936,146.317 125.103,146.984 127,148.5C 128.774,145.285 130.274,141.952 131.5,138.5C 130.03,134.088 128.363,129.755 126.5,125.5C 126.043,124.702 125.376,124.369 124.5,124.5C 124.5,123.833 124.5,123.167 124.5,122.5C 127.007,121.108 129.673,120.108 132.5,119.5C 132.833,120.167 133.167,120.833 133.5,121.5C 131.467,121.949 129.8,122.949 128.5,124.5C 134.904,140.638 140.737,156.972 146,173.5C 146.93,176.362 148.597,178.695 151,180.5C 151.425,176.131 151.092,171.797 150,167.5C 146.612,156.247 142.779,145.247 138.5,134.5C 139.338,134.158 139.672,133.492 139.5,132.5C 141.34,135.99 143.007,139.657 144.5,143.5C 147.581,137.001 151.414,131.001 156,125.5C 157.94,122.072 159.106,118.406 159.5,114.5C 161.931,113.685 164.264,114.018 166.5,115.5C 165.178,115.33 164.011,115.663 163,116.5C 159.503,123.498 155.503,130.165 151,136.5C 149.699,138.402 149.032,140.402 149,142.5C 160.71,139.079 167.877,131.413 170.5,119.5C 171.167,119.833 171.833,120.167 172.5,120.5C 171.38,127.57 168.047,133.403 162.5,138C 157.475,141.762 151.975,144.596 146,146.5C 147.036,151.797 148.203,157.13 149.5,162.5C 155.176,162.666 160.843,162.499 166.5,162C 170.188,161.81 173.688,160.976 177,159.5C 179.33,147.554 179.83,135.554 178.5,123.5C 179.167,121.833 179.833,120.167 180.5,118.5C 182.312,132.641 181.645,146.641 178.5,160.5C 174.764,162.353 170.764,163.519 166.5,164C 161.511,164.499 156.511,164.666 151.5,164.5C 153,168.33 153.667,172.33 153.5,176.5C 159.366,176.282 162.533,173.282 163,167.5C 164.333,171.5 165.667,175.5 167,179.5C 169.729,182.399 172.562,185.066 175.5,187.5C 173.236,186.781 170.903,186.448 168.5,186.5C 168.703,184.61 168.037,183.11 166.5,182C 162.179,181.501 157.846,181.334 153.5,181.5C 153.762,182.978 153.429,184.311 152.5,185.5C 150.075,181.457 147.075,180.79 143.5,183.5C 142.738,181.738 141.404,180.738 139.5,180.5C 141.265,179.539 143.265,179.205 145.5,179.5C 144.462,175.087 143.129,170.754 141.5,166.5C 139.604,165.534 137.604,165.201 135.5,165.5C 136.329,170.453 136.663,175.453 136.5,180.5C 135.833,180.5 135.167,180.5 134.5,180.5C 134.647,175.786 134.314,171.119 133.5,166.5C 131.5,166.5 129.5,166.5 127.5,166.5C 127.815,170.371 127.482,174.038 126.5,177.5C 126.5,173.5 126.5,169.5 126.5,165.5C 129.059,165.802 131.393,165.468 133.5,164.5C 135.833,164.5 138.167,164.5 140.5,164.5C 140.768,162.901 140.434,161.568 139.5,160.5C 138.434,158.299 137.767,155.965 137.5,153.5C 132.005,152.749 126.672,151.416 121.5,149.5C 120.459,154.58 119.126,159.58 117.5,164.5C 119.228,165.263 121.562,165.93 124.5,166.5C 121.482,166.335 118.482,166.502 115.5,167C 113.387,170.173 112.387,173.673 112.5,177.5C 111.508,177.328 110.842,177.662 110.5,178.5C 111.477,181.287 111.81,184.287 111.5,187.5C 103.125,187.26 94.7921,187.593 86.5,188.5C 84.6568,187.717 82.6568,187.05 80.5,186.5C 81.3021,182.508 83.9688,179.675 88.5,178C 91.0627,176.921 93.7294,176.421 96.5,176.5C 97.3761,173.201 97.5428,169.868 97,166.5C 96.2904,165.027 95.1238,164.36 93.5,164.5C 93.3339,158.824 93.5006,153.157 94,147.5C 95.0243,142.089 96.0243,136.756 97,131.5C 89.5506,139.471 80.3839,142.805 69.5,141.5C 68.8333,141.167 68.1667,140.833 67.5,140.5C 67.5,139.833 67.8333,139.5 68.5,139.5C 85.8523,139.66 98.1856,131.827 105.5,116C 102.199,116.824 99.1992,118.49 96.5,121C 84.3179,125.903 71.9846,126.737 59.5,123.5C 62.7131,123.81 65.7131,123.477 68.5,122.5C 68.5,122.167 68.5,121.833 68.5,121.5C 69.1667,120.167 69.8333,118.833 70.5,117.5C 70.5,119.5 70.5,121.5 70.5,123.5C 77.9986,123.434 85.3319,122.267 92.5,120C 95.5325,118.822 98.1992,117.156 100.5,115C 100,113.5 99.5,112 99,110.5C 90.0605,115.432 88.2272,113.432 93.5,104.5C 93.1667,104.167 92.8333,103.833 92.5,103.5C 89.6522,105.476 86.6522,105.809 83.5,104.5C 85.1713,100.636 85.6713,96.6357 85,92.5C 82.0852,95.9177 78.5852,97.251 74.5,96.5C 75.8289,92.8589 76.6622,89.1923 77,85.5C 74.3441,87.9961 71.3441,89.9961 68,91.5C 68.1859,87.5159 68.1859,83.5159 68,79.5C 66.9586,81.5852 65.4586,83.2519 63.5,84.5C 57.6498,70.9612 56.3165,71.2946 59.5,85.5C 61.5267,86.6933 63.0267,88.36 64,90.5C 65.1946,94.7514 65.6946,99.0848 65.5,103.5C 65.1667,103.5 64.8333,103.5 64.5,103.5C 64.6641,100.813 64.4974,98.146 64,95.5C 63.3103,93.6498 62.1436,92.3164 60.5,91.5C 58.5168,91.8432 57.1834,91.1765 56.5,89.5C 57.7734,86.0993 56.44,84.766 52.5,85.5C 52.0623,84.4937 51.3957,84.4937 50.5,85.5C 48.6387,83.4384 46.3053,82.1051 43.5,81.5C 44.5063,81.0623 44.5063,80.3957 43.5,79.5C 50.8108,81.7683 52.3108,79.7683 48,73.5C 47.3457,72.3044 46.8457,72.3044 46.5,73.5C 47.5896,74.6086 47.5896,75.6086 46.5,76.5C 44.5065,73.5132 41.8398,71.5132 38.5,70.5C 41.8852,69.372 45.2186,69.372 48.5,70.5C 51.0865,73.6793 52.5865,77.3459 53,81.5C 54.0113,82.3366 55.1779,82.67 56.5,82.5C 56.395,78.6811 55.5617,75.0145 54,71.5C 52.8139,69.3234 50.9806,68.3234 48.5,68.5C 47.6618,68.1583 47.3284,67.4916 47.5,66.5C 52.8333,65.1667 58.1667,65.1667 63.5,66.5 Z"/></g>
<g><path style="opacity:1" fill="#5b5e64" d="M 139.5,160.5 C 140.434,161.568 140.768,162.901 140.5,164.5C 138.167,164.5 135.833,164.5 133.5,164.5C 128.5,164.5 123.5,164.5 118.5,164.5C 125.313,163.509 132.313,163.175 139.5,163.5C 139.5,162.5 139.5,161.5 139.5,160.5 Z"/></g>
<g><path style="opacity:1" fill="#e2dfe4" d="M 103.5,154.5 C 107.263,156.919 111.263,158.919 115.5,160.5C 111.929,161.248 108.595,160.415 105.5,158C 104.177,157.184 103.511,156.017 103.5,154.5 Z"/></g>
<g><path style="opacity:1" fill="#f0f0f2" d="M 133.5,121.5 C 135.612,125.576 137.279,129.909 138.5,134.5C 142.779,145.247 146.612,156.247 150,167.5C 151.092,171.797 151.425,176.131 151,180.5C 148.597,178.695 146.93,176.362 146,173.5C 140.737,156.972 134.904,140.638 128.5,124.5C 129.8,122.949 131.467,121.949 133.5,121.5 Z"/></g>
<g><path style="opacity:1" fill="#f5f7f9" d="M 139.5,160.5 C 139.5,161.5 139.5,162.5 139.5,163.5C 132.313,163.175 125.313,163.509 118.5,164.5C 118.167,164.5 117.833,164.5 117.5,164.5C 119.126,159.58 120.459,154.58 121.5,149.5C 126.672,151.416 132.005,152.749 137.5,153.5C 137.767,155.965 138.434,158.299 139.5,160.5 Z"/></g>
<g><path style="opacity:1" fill="#eae8ee" d="M 132.5,143.5 C 134.293,145.426 135.293,147.759 135.5,150.5C 133.516,150.617 131.85,149.95 130.5,148.5C 131.456,146.925 132.123,145.258 132.5,143.5 Z"/></g>
<g><path style="opacity:1" fill="#f2f2f5" d="M 104.5,139.5 C 109.443,141.938 114.277,144.604 119,147.5C 119.535,150.827 119.035,153.994 117.5,157C 112.673,155.839 108.173,153.672 104,150.5C 103.55,146.812 103.717,143.146 104.5,139.5 Z"/></g>
<g><path style="opacity:1" fill="#f6f7f8" d="M 178.5,123.5 C 179.83,135.554 179.33,147.554 177,159.5C 173.688,160.976 170.188,161.81 166.5,162C 160.843,162.499 155.176,162.666 149.5,162.5C 148.203,157.13 147.036,151.797 146,146.5C 151.975,144.596 157.475,141.762 162.5,138C 168.047,133.403 171.38,127.57 172.5,120.5C 174.144,120.714 175.644,120.38 177,119.5C 178.188,120.563 178.688,121.897 178.5,123.5 Z"/></g>
<g><path style="opacity:1" fill="#e8e7ed" d="M 132.5,119.5 C 129.673,120.108 127.007,121.108 124.5,122.5C 121.936,124.291 120.269,123.624 119.5,120.5C 125.641,118.09 131.808,115.757 138,113.5C 140.02,114.032 140.853,115.365 140.5,117.5C 137.659,117.56 134.993,118.226 132.5,119.5 Z"/></g>
<g><path style="opacity:1" fill="#dee2e5" d="M 60.5,91.5 C 59.2028,88.3966 59.5362,88.0633 61.5,90.5C 61.3764,91.1067 61.0431,91.44 60.5,91.5 Z"/></g>
<g><path style="opacity:1" fill="#303235" d="M 207.5,142.5 C 210.019,153.084 207.519,162.417 200,170.5C 202.871,164.916 205.205,158.916 207,152.5C 207.498,149.183 207.665,145.85 207.5,142.5 Z"/></g>
<g><path style="opacity:1" fill="#483e40" d="M 44.5,163.5 C 46.0085,166.122 45.5085,168.455 43,170.5C 43.4371,168.243 43.9371,165.91 44.5,163.5 Z"/></g>
<g><path style="opacity:1" fill="#f3f2f4" d="M 102.5,160.5 C 106.392,161.579 110.059,163.246 113.5,165.5C 112.36,168.923 111.026,172.256 109.5,175.5C 107.591,174.652 105.591,174.318 103.5,174.5C 102.873,169.859 102.54,165.193 102.5,160.5 Z"/></g>
<g><path style="opacity:1" fill="#f2f3f5" d="M 124.5,166.5 C 124.5,170.833 124.5,175.167 124.5,179.5C 122.533,179.739 120.699,179.406 119,178.5C 119,176.5 119,174.5 119,172.5C 117.719,175.447 115.719,177.781 113,179.5C 112.536,178.906 112.369,178.239 112.5,177.5C 112.387,173.673 113.387,170.173 115.5,167C 118.482,166.502 121.482,166.335 124.5,166.5 Z"/></g>
<g><path style="opacity:1" fill="#f1f2f5" d="M 139.5,180.5 C 138.5,180.5 137.5,180.5 136.5,180.5C 136.663,175.453 136.329,170.453 135.5,165.5C 137.604,165.201 139.604,165.534 141.5,166.5C 143.129,170.754 144.462,175.087 145.5,179.5C 143.265,179.205 141.265,179.539 139.5,180.5 Z"/></g>
<g><path style="opacity:1" fill="#f2f7f6" d="M 134.5,180.5 C 131.833,180.5 129.167,180.5 126.5,180.5C 126.5,179.5 126.5,178.5 126.5,177.5C 127.482,174.038 127.815,170.371 127.5,166.5C 129.5,166.5 131.5,166.5 133.5,166.5C 134.314,171.119 134.647,175.786 134.5,180.5 Z"/></g>
<g><path style="opacity:1" fill="#eaeaee" d="M 161.5,175.5 C 162.922,175.75 163.922,176.583 164.5,178C 162.167,178.667 159.833,178.667 157.5,178C 159.066,177.392 160.4,176.558 161.5,175.5 Z"/></g>
<g><path style="opacity:1" fill="#182448" d="M 210.5,159.5 C 212.167,159.5 213.833,159.5 215.5,159.5C 215.989,164.832 218.656,168.499 223.5,170.5C 224.306,171.728 225.306,172.728 226.5,173.5C 221.467,172.321 217.467,169.655 214.5,165.5C 214.509,163.692 214.009,162.025 213,160.5C 210.143,165.681 207.31,170.848 204.5,176C 206.667,180.167 209.833,183.333 214,185.5C 214.315,186.908 213.982,188.241 213,189.5C 212.722,188.584 212.222,187.918 211.5,187.5C 209.83,184.998 207.664,182.998 205,181.5C 204.042,179.801 203.542,177.967 203.5,176C 205.676,170.476 208.009,164.976 210.5,159.5 Z"/></g>
<g><path style="opacity:1" fill="#f0f3f7" d="M 110.5,178.5 C 110.5,180.833 110.5,183.167 110.5,185.5C 108.167,185.5 105.833,185.5 103.5,185.5C 103.5,182.833 103.5,180.167 103.5,177.5C 105.903,177.448 108.236,177.781 110.5,178.5 Z"/></g>
<g><path style="opacity:1" fill="#dfe1e5" d="M 92.5,178.5 C 93.675,178.281 94.675,178.614 95.5,179.5C 94.6518,181.409 94.3184,183.409 94.5,185.5C 80.5932,186.363 79.9265,184.03 92.5,178.5 Z"/></g>
<g><path style="opacity:1" fill="#ecf0f3" d="M 98.5,175.5 C 99.6491,175.791 100.316,176.624 100.5,178C 101.216,180.792 101.549,183.626 101.5,186.5C 99.8333,186.5 98.1667,186.5 96.5,186.5C 96.9111,182.779 97.5778,179.112 98.5,175.5 Z"/></g>
<g><path style="opacity:1" fill="#385994" d="M 28.5,180.5 C 32.7866,182.837 34.6199,186.504 34,191.5C 36.9484,196.663 39.4484,201.996 41.5,207.5C 35.3003,199.433 30.9669,190.433 28.5,180.5 Z"/></g>
<g><path style="opacity:1" fill="#34549a" d="M 139.5,216.5 C 139.338,214.473 139.505,212.473 140,210.5C 141.011,209.663 142.178,209.33 143.5,209.5C 143.421,208.07 143.754,206.736 144.5,205.5C 142.9,202.06 141.067,198.726 139,195.5C 138.505,193.527 138.338,191.527 138.5,189.5C 132.893,189.447 127.56,188.947 122.5,188C 125.167,187.333 125.167,186.667 122.5,186C 123.167,185.667 123.833,185.333 124.5,185C 121.859,182.791 119.025,182.291 116,183.5C 115.879,185.727 115.046,187.56 113.5,189C 110.183,189.498 106.85,189.665 103.5,189.5C 106.167,188.833 108.833,188.167 111.5,187.5C 112.302,186.048 112.802,184.382 113,182.5C 114.126,181.056 115.626,180.39 117.5,180.5C 125.328,182.033 133.328,183.033 141.5,183.5C 140.407,187.108 140.24,190.775 141,194.5C 142.767,198.086 144.267,201.752 145.5,205.5C 144.327,209.659 142.327,213.325 139.5,216.5 Z"/></g>
<g><path style="opacity:1" fill="#305499" d="M 214.5,165.5 C 213.5,165.5 212.5,165.5 211.5,165.5C 211.5,167.167 211.5,168.833 211.5,170.5C 214.47,170.746 215.803,172.412 215.5,175.5C 214.07,175.421 212.736,175.754 211.5,176.5C 210.833,175.167 210.167,173.833 209.5,172.5C 207.554,174.044 207.054,176.044 208,178.5C 213.636,182.067 219.469,185.234 225.5,188C 222.5,188.333 219.5,188.667 216.5,189C 214.374,191.433 213.041,194.266 212.5,197.5C 208.536,200.647 204.203,202.98 199.5,204.5C 204.594,200.897 208.927,196.397 212.5,191C 211.906,190.536 211.239,190.369 210.5,190.5C 211.11,189.609 211.443,188.609 211.5,187.5C 212.222,187.918 212.722,188.584 213,189.5C 213.982,188.241 214.315,186.908 214,185.5C 209.833,183.333 206.667,180.167 204.5,176C 207.31,170.848 210.143,165.681 213,160.5C 214.009,162.025 214.509,163.692 214.5,165.5 Z"/></g>
<g><path style="opacity:1" fill="#486298" d="M 232.5,171.5 C 234.572,173.433 236.905,173.433 239.5,171.5C 238.851,175.951 237.684,180.284 236,184.5C 234.145,189.946 231.645,194.946 228.5,199.5C 230.523,195.778 231.689,191.778 232,187.5C 232.615,185.884 233.615,184.551 235,183.5C 235.167,182.167 235.333,180.833 235.5,179.5C 235.415,177.667 234.748,176.334 233.5,175.5C 232.766,174.292 232.433,172.959 232.5,171.5 Z"/></g>
<g><path style="opacity:1" fill="#303037" d="M 204.5,183.5 C 208.919,185.562 209.419,188.229 206,191.5C 205.647,190.328 205.813,189.162 206.5,188C 205.586,186.594 204.92,185.094 204.5,183.5 Z"/></g>
<g><path style="opacity:1" fill="#f3f5f6" d="M 168.5,186.5 C 169.18,191.213 169.18,195.88 168.5,200.5C 156.276,206.257 149.443,215.923 148,229.5C 145.959,230.423 143.792,230.756 141.5,230.5C 141.5,231.5 141.5,232.5 141.5,233.5C 137.167,233.5 132.833,233.5 128.5,233.5C 128.687,231.436 129.187,229.436 130,227.5C 138.432,223.73 144.099,217.396 147,208.5C 147.462,203.396 146.128,198.729 143,194.5C 142.245,190.745 142.411,187.078 143.5,183.5C 147.075,180.79 150.075,181.457 152.5,185.5C 153.429,184.311 153.762,182.978 153.5,181.5C 157.846,181.334 162.179,181.501 166.5,182C 168.037,183.11 168.703,184.61 168.5,186.5 Z"/></g>
<g><path style="opacity:1" fill="#2a55ab" d="M 139.5,216.5 C 139.672,217.492 139.338,218.158 138.5,218.5C 136.456,219.031 134.789,220.198 133.5,222C 131.527,222.495 129.527,222.662 127.5,222.5C 126.751,226.761 125.251,230.761 123,234.5C 122.833,236.5 122.667,238.5 122.5,240.5C 122.539,242.952 123.206,244.952 124.5,246.5C 128.785,245.705 133.119,245.372 137.5,245.5C 139.262,245.643 140.929,245.309 142.5,244.5C 143.196,241.444 144.03,238.444 145,235.5C 151.379,233.191 154.046,228.525 153,221.5C 154.185,219.623 155.185,217.623 156,215.5C 159.367,214.447 161.034,212.114 161,208.5C 164.606,205.465 168.773,204.131 173.5,204.5C 173.167,199.833 172.833,195.167 172.5,190.5C 173.5,190.5 174.5,190.5 175.5,190.5C 178.175,191.355 180.842,192.522 183.5,194C 184.574,194.739 185.241,195.739 185.5,197C 182.748,206.385 177.081,213.219 168.5,217.5C 166.857,217.48 165.524,218.147 164.5,219.5C 163.335,227.813 163.168,236.147 164,244.5C 168.079,243.371 172.245,243.204 176.5,244C 175.631,246.655 173.964,248.488 171.5,249.5C 164.53,250.636 157.53,251.97 150.5,253.5C 142.521,254.665 134.521,254.832 126.5,254C 125.833,253.333 125.167,252.667 124.5,252C 120.514,251.969 116.848,250.969 113.5,249C 118.168,247.507 119.334,244.674 117,240.5C 115.989,241.337 114.822,241.67 113.5,241.5C 113.239,244.633 111.572,245.8 108.5,245C 107.549,241.943 107.216,238.777 107.5,235.5C 108.5,235.5 109.5,235.5 110.5,235.5C 110.223,230.767 110.557,226.1 111.5,221.5C 110.38,219.404 108.88,219.07 107,220.5C 103.564,218.384 100.73,215.718 98.5,212.5C 99.9501,211.15 100.617,209.484 100.5,207.5C 98.8333,207.5 97.1667,207.5 95.5,207.5C 95.5,205.5 95.5,203.5 95.5,201.5C 93.5328,201.739 91.6995,201.406 90,200.5C 89.502,197.518 89.3354,194.518 89.5,191.5C 92.8499,191.665 96.1832,191.498 99.5,191C 100.416,190.722 101.082,190.222 101.5,189.5C 102.167,189.5 102.833,189.5 103.5,189.5C 106.85,189.665 110.183,189.498 113.5,189C 115.046,187.56 115.879,185.727 116,183.5C 119.025,182.291 121.859,182.791 124.5,185C 123.833,185.333 123.167,185.667 122.5,186C 125.167,186.667 125.167,187.333 122.5,188C 127.56,188.947 132.893,189.447 138.5,189.5C 138.338,191.527 138.505,193.527 139,195.5C 141.067,198.726 142.9,202.06 144.5,205.5C 143.754,206.736 143.421,208.07 143.5,209.5C 142.178,209.33 141.011,209.663 140,210.5C 139.505,212.473 139.338,214.473 139.5,216.5 Z"/></g>
<g><path style="opacity:1" fill="#293145" d="M 19.5,143.5 C 20.5912,156.288 23.5912,168.621 28.5,180.5C 30.9669,190.433 35.3003,199.433 41.5,207.5C 50.615,220.618 61.9484,231.284 75.5,239.5C 82.3628,244.01 89.6961,247.677 97.5,250.5C 93.7382,250.373 90.0715,249.706 86.5,248.5C 83.2594,246.36 79.7594,244.694 76,243.5C 74.6057,242.387 73.439,241.053 72.5,239.5C 70.3635,238.207 68.3635,238.207 66.5,239.5C 40.4108,220.679 24.4108,195.346 18.5,163.5C 19.4226,156.891 19.7559,150.224 19.5,143.5 Z"/></g>
<g><path style="opacity:1" fill="#24284b" d="M 67.5,140.5 C 68.1667,140.833 68.8333,141.167 69.5,141.5C 69.5,143.5 69.5,145.5 69.5,147.5C 68.8333,147.833 68.1667,148.167 67.5,148.5C 67.5654,148.062 67.3988,147.728 67,147.5C 59.1369,154.1 50.4703,159.434 41,163.5C 40.3333,166.833 40.3333,170.167 41,173.5C 46.6554,183.468 49.9887,194.135 51,205.5C 54.1377,208.792 56.6377,212.458 58.5,216.5C 58.8564,218.19 59.8564,219.19 61.5,219.5C 62.8944,221.592 64.7277,223.258 67,224.5C 69.3422,221.149 71.1755,217.482 72.5,213.5C 73.4345,212.432 73.7678,211.099 73.5,209.5C 74.6946,209.866 75.3613,210.699 75.5,212C 73.5612,217.375 71.2278,222.542 68.5,227.5C 67.069,227.023 65.7357,226.357 64.5,225.5C 58.876,219.613 53.7093,213.28 49,206.5C 49.1828,195.578 46.0161,185.911 39.5,177.5C 38.222,172.499 38.222,167.499 39.5,162.5C 47.3339,157.415 55.3339,152.582 63.5,148C 66.3974,146.285 67.7307,143.785 67.5,140.5 Z"/></g>
<g><path style="opacity:1" fill="#2a55a9" d="M 214.5,165.5 C 217.467,169.655 221.467,172.321 226.5,173.5C 226.611,174.117 226.944,174.617 227.5,175C 229.473,175.495 231.473,175.662 233.5,175.5C 234.748,176.334 235.415,177.667 235.5,179.5C 235.333,180.833 235.167,182.167 235,183.5C 233.615,184.551 232.615,185.884 232,187.5C 231.689,191.778 230.523,195.778 228.5,199.5C 227.178,199.33 226.011,199.663 225,200.5C 224.338,202.813 223.838,205.146 223.5,207.5C 222.167,207.5 220.833,207.5 219.5,207.5C 219.657,208.873 219.49,210.207 219,211.5C 216.76,213.028 215.093,215.028 214,217.5C 212.984,216.366 212.317,216.699 212,218.5C 210.701,218.034 209.201,218.034 207.5,218.5C 206.183,222.96 204.516,227.293 202.5,231.5C 199.68,235.403 196.013,238.069 191.5,239.5C 183.431,243.09 181.431,240.756 185.5,232.5C 187.024,230.142 189.024,228.309 191.5,227C 188.457,224.144 187.457,220.811 188.5,217C 189.448,216.517 190.448,216.351 191.5,216.5C 191.351,215.448 191.517,214.448 192,213.5C 195.082,210.924 197.582,207.924 199.5,204.5C 204.203,202.98 208.536,200.647 212.5,197.5C 213.041,194.266 214.374,191.433 216.5,189C 219.5,188.667 222.5,188.333 225.5,188C 219.469,185.234 213.636,182.067 208,178.5C 207.054,176.044 207.554,174.044 209.5,172.5C 210.167,173.833 210.833,175.167 211.5,176.5C 212.736,175.754 214.07,175.421 215.5,175.5C 215.803,172.412 214.47,170.746 211.5,170.5C 211.5,168.833 211.5,167.167 211.5,165.5C 212.5,165.5 213.5,165.5 214.5,165.5 Z"/></g>
<g><path style="opacity:1" fill="#345390" d="M 175.5,190.5 C 174.5,190.5 173.5,190.5 172.5,190.5C 172.833,195.167 173.167,199.833 173.5,204.5C 168.773,204.131 164.606,205.465 161,208.5C 161.034,212.114 159.367,214.447 156,215.5C 155.185,217.623 154.185,219.623 153,221.5C 154.046,228.525 151.379,233.191 145,235.5C 144.03,238.444 143.196,241.444 142.5,244.5C 140.929,245.309 139.262,245.643 137.5,245.5C 138.531,244.751 139.698,244.085 141,243.5C 141.897,240.51 142.731,237.51 143.5,234.5C 145.5,233.167 147.5,231.833 149.5,230.5C 150.379,226.846 151.213,223.179 152,219.5C 154.667,215.5 157.333,211.5 160,207.5C 163.576,205.31 167.243,203.31 171,201.5C 171.648,196.688 171.148,192.022 169.5,187.5C 172.089,187.461 174.089,188.461 175.5,190.5 Z"/></g>
<g><path style="opacity:1" fill="#3f5b99" d="M 228.5,199.5 C 227.5,202.167 226.5,204.833 225.5,207.5C 222.203,210.736 219.37,214.403 217,218.5C 212.574,223.434 207.74,227.767 202.5,231.5C 204.516,227.293 206.183,222.96 207.5,218.5C 209.201,218.034 210.701,218.034 212,218.5C 212.317,216.699 212.984,216.366 214,217.5C 215.093,215.028 216.76,213.028 219,211.5C 219.49,210.207 219.657,208.873 219.5,207.5C 220.833,207.5 222.167,207.5 223.5,207.5C 223.838,205.146 224.338,202.813 225,200.5C 226.011,199.663 227.178,199.33 228.5,199.5 Z"/></g>
<g><path style="opacity:1" fill="#354d8a" d="M 138.5,218.5 C 135.887,222.043 132.553,224.71 128.5,226.5C 125.955,232.924 124.622,239.59 124.5,246.5C 123.206,244.952 122.539,242.952 122.5,240.5C 122.667,238.5 122.833,236.5 123,234.5C 125.251,230.761 126.751,226.761 127.5,222.5C 129.527,222.662 131.527,222.495 133.5,222C 134.789,220.198 136.456,219.031 138.5,218.5 Z"/></g>
<g><path style="opacity:1" fill="#1f2744" d="M 80.5,171.5 C 80.5,172.167 80.8333,172.5 81.5,172.5C 77.5756,178.271 73.4089,183.937 69,189.5C 68.3333,191.167 68.3333,192.833 69,194.5C 78.1252,204.419 83.7919,216.085 86,229.5C 88.3333,231.167 90.6667,232.833 93,234.5C 95.9135,231.678 98.0802,228.345 99.5,224.5C 96.1651,223.452 94.6651,221.118 95,217.5C 93.108,216.87 91.4413,215.87 90,214.5C 89.0831,209.246 87.4164,204.246 85,199.5C 84.0975,198.299 82.9308,197.465 81.5,197C 85.2362,195.784 86.2362,193.451 84.5,190C 84.8361,188.97 85.5028,188.47 86.5,188.5C 94.7921,187.593 103.125,187.26 111.5,187.5C 108.833,188.167 106.167,188.833 103.5,189.5C 102.833,189.5 102.167,189.5 101.5,189.5C 96.8189,189.669 92.1522,190.002 87.5,190.5C 87.7076,192.92 87.3742,195.253 86.5,197.5C 88.7491,202.661 90.4158,207.995 91.5,213.5C 96.0719,214.087 98.0719,216.754 97.5,221.5C 100.721,222.505 104.054,223.339 107.5,224C 108.081,224.893 108.415,225.893 108.5,227C 107.72,231.287 106.554,235.453 105,239.5C 103.644,240.38 102.144,240.714 100.5,240.5C 96.96,238.471 93.6267,236.805 90.5,235.5C 88.2294,233.734 86.0627,231.734 84,229.5C 82.8507,222.032 80.684,214.866 77.5,208C 73.8873,203.286 70.3873,198.452 67,193.5C 66.6396,190.206 67.473,187.206 69.5,184.5C 71.8288,182.159 73.8288,179.492 75.5,176.5C 69.2538,176.437 63.5872,174.77 58.5,171.5C 57.914,171.709 57.414,172.043 57,172.5C 54.8782,180.257 55.2115,187.923 58,195.5C 60.0183,196.223 61.8516,197.223 63.5,198.5C 66.8333,202.167 70.1667,205.833 73.5,209.5C 73.7678,211.099 73.4345,212.432 72.5,213.5C 72.6358,210.476 71.3025,208.976 68.5,209C 66.2703,212.643 63.9369,216.143 61.5,219.5C 59.8564,219.19 58.8564,218.19 58.5,216.5C 61.984,214.17 64.6506,211.003 66.5,207C 64.3279,202.161 60.8279,198.661 56,196.5C 54.8172,189.085 53.3172,181.752 51.5,174.5C 56.0178,173.779 56.6845,171.612 53.5,168C 53.8333,167.833 54.1667,167.667 54.5,167.5C 62.528,173.559 71.1947,174.892 80.5,171.5 Z"/></g>
<g><path style="opacity:1" fill="#33569a" d="M 69.5,184.5 C 69.8804,181.208 68.5471,178.875 65.5,177.5C 62.7854,175.615 60.1187,175.448 57.5,177C 58.331,181.788 59.1643,186.621 60,191.5C 62.2257,193.285 63.3924,195.618 63.5,198.5C 61.8516,197.223 60.0183,196.223 58,195.5C 55.2115,187.923 54.8782,180.257 57,172.5C 57.414,172.043 57.914,171.709 58.5,171.5C 63.5872,174.77 69.2538,176.437 75.5,176.5C 73.8288,179.492 71.8288,182.159 69.5,184.5 Z"/></g>
<g><path style="opacity:1" fill="#2e59af" d="M 69.5,184.5 C 65.8933,185.342 63.8933,187.675 63.5,191.5C 64.5,193.5 65.5,195.5 66.5,197.5C 65.675,198.386 64.675,198.719 63.5,198.5C 63.3924,195.618 62.2257,193.285 60,191.5C 59.1643,186.621 58.331,181.788 57.5,177C 60.1187,175.448 62.7854,175.615 65.5,177.5C 68.5471,178.875 69.8804,181.208 69.5,184.5 Z"/></g>
<g><path style="opacity:1" fill="#f3f5f6" d="M 86.5,188.5 C 85.5028,188.47 84.8361,188.97 84.5,190C 86.2362,193.451 85.2362,195.784 81.5,197C 82.9308,197.465 84.0975,198.299 85,199.5C 87.4164,204.246 89.0831,209.246 90,214.5C 91.4413,215.87 93.108,216.87 95,217.5C 94.6651,221.118 96.1651,223.452 99.5,224.5C 98.0802,228.345 95.9135,231.678 93,234.5C 90.6667,232.833 88.3333,231.167 86,229.5C 83.7919,216.085 78.1252,204.419 69,194.5C 68.3333,192.833 68.3333,191.167 69,189.5C 73.4089,183.937 77.5756,178.271 81.5,172.5C 83.2185,170.074 83.7185,167.407 83,164.5C 82.7508,165.624 82.2508,166.624 81.5,167.5C 74.9372,162.375 70.9372,155.708 69.5,147.5C 69.5,145.5 69.5,143.5 69.5,141.5C 80.3839,142.805 89.5506,139.471 97,131.5C 96.0243,136.756 95.0243,142.089 94,147.5C 93.5006,153.157 93.3339,158.824 93.5,164.5C 95.1238,164.36 96.2904,165.027 97,166.5C 97.5428,169.868 97.3761,173.201 96.5,176.5C 93.7294,176.421 91.0627,176.921 88.5,178C 83.9688,179.675 81.3021,182.508 80.5,186.5C 82.6568,187.05 84.6568,187.717 86.5,188.5 Z"/></g>
<g><path style="opacity:1" fill="#36579e" d="M 39.5,177.5 C 46.0161,185.911 49.1828,195.578 49,206.5C 53.7093,213.28 58.876,219.613 64.5,225.5C 65.7357,226.357 67.069,227.023 68.5,227.5C 71.2278,222.542 73.5612,217.375 75.5,212C 75.3613,210.699 74.6946,209.866 73.5,209.5C 70.1667,205.833 66.8333,202.167 63.5,198.5C 64.675,198.719 65.675,198.386 66.5,197.5C 65.5,195.5 64.5,193.5 63.5,191.5C 63.8933,187.675 65.8933,185.342 69.5,184.5C 67.473,187.206 66.6396,190.206 67,193.5C 70.3873,198.452 73.8873,203.286 77.5,208C 80.684,214.866 82.8507,222.032 84,229.5C 86.0627,231.734 88.2294,233.734 90.5,235.5C 86.8368,236.005 84.5035,234.505 83.5,231C 82.552,230.517 81.552,230.351 80.5,230.5C 82.0819,225.146 81.2486,220.146 78,215.5C 77.502,218.482 77.3354,221.482 77.5,224.5C 76.448,224.351 75.448,224.517 74.5,225C 75.8333,226.667 75.8333,228.333 74.5,230C 72.5273,230.495 70.5273,230.662 68.5,230.5C 68.9464,234.573 71.2798,236.573 75.5,236.5C 75.5,237.5 75.5,238.5 75.5,239.5C 61.9484,231.284 50.615,220.618 41.5,207.5C 43.1667,207.5 44.8333,207.5 46.5,207.5C 46.9519,200.973 46.1186,194.64 44,188.5C 41.8805,188.374 39.7138,188.041 37.5,187.5C 39.301,184.465 39.9677,181.131 39.5,177.5 Z"/></g>
<g><path style="opacity:1" fill="#f2f3f4" d="M 72.5,213.5 C 71.1755,217.482 69.3422,221.149 67,224.5C 64.7277,223.258 62.8944,221.592 61.5,219.5C 63.9369,216.143 66.2703,212.643 68.5,209C 71.3025,208.976 72.6358,210.476 72.5,213.5 Z"/></g>
<g><path style="opacity:1" fill="#f0f2f3" d="M 100.5,225.5 C 102.5,225.5 104.5,225.5 106.5,225.5C 105.344,229.793 104.344,234.126 103.5,238.5C 100.427,238.547 98.0937,237.381 96.5,235C 98.5239,232.119 99.8573,228.953 100.5,225.5 Z"/></g>
<g><path style="opacity:1" fill="#1f2641" d="M 117.5,164.5 C 117.833,164.5 118.167,164.5 118.5,164.5C 123.5,164.5 128.5,164.5 133.5,164.5C 131.393,165.468 129.059,165.802 126.5,165.5C 126.5,169.5 126.5,173.5 126.5,177.5C 126.5,178.5 126.5,179.5 126.5,180.5C 129.167,180.5 131.833,180.5 134.5,180.5C 135.167,180.5 135.833,180.5 136.5,180.5C 137.5,180.5 138.5,180.5 139.5,180.5C 141.404,180.738 142.738,181.738 143.5,183.5C 142.411,187.078 142.245,190.745 143,194.5C 146.128,198.729 147.462,203.396 147,208.5C 144.099,217.396 138.432,223.73 130,227.5C 129.187,229.436 128.687,231.436 128.5,233.5C 132.833,233.5 137.167,233.5 141.5,233.5C 141.5,232.5 141.5,231.5 141.5,230.5C 143.792,230.756 145.959,230.423 148,229.5C 149.443,215.923 156.276,206.257 168.5,200.5C 169.18,195.88 169.18,191.213 168.5,186.5C 170.903,186.448 173.236,186.781 175.5,187.5C 179.372,189.193 182.872,191.526 186,194.5C 186.667,196.833 186.667,199.167 186,201.5C 182.177,209.662 176.511,216.329 169,221.5C 168.178,224.117 167.678,226.784 167.5,229.5C 172.628,229.888 177.628,229.388 182.5,228C 183.729,225.381 183.396,222.881 181.5,220.5C 183,218.167 184.5,215.833 186,213.5C 194.417,205.911 202.583,198.244 210.5,190.5C 211.239,190.369 211.906,190.536 212.5,191C 208.927,196.397 204.594,200.897 199.5,204.5C 193.875,208.291 189.042,212.957 185,218.5C 184.661,220.834 184.828,223.168 185.5,225.5C 185.658,227.319 184.991,228.652 183.5,229.5C 182.513,232.768 182.18,236.102 182.5,239.5C 177.535,240.606 172.535,241.606 167.5,242.5C 166.833,242.167 166.167,241.833 165.5,241.5C 163.754,233.089 164.754,225.089 168.5,217.5C 177.081,213.219 182.748,206.385 185.5,197C 185.241,195.739 184.574,194.739 183.5,194C 180.842,192.522 178.175,191.355 175.5,190.5C 174.089,188.461 172.089,187.461 169.5,187.5C 171.148,192.022 171.648,196.688 171,201.5C 167.243,203.31 163.576,205.31 160,207.5C 157.333,211.5 154.667,215.5 152,219.5C 151.213,223.179 150.379,226.846 149.5,230.5C 147.5,231.833 145.5,233.167 143.5,234.5C 142.731,237.51 141.897,240.51 141,243.5C 139.698,244.085 138.531,244.751 137.5,245.5C 133.119,245.372 128.785,245.705 124.5,246.5C 124.622,239.59 125.955,232.924 128.5,226.5C 132.553,224.71 135.887,222.043 138.5,218.5C 139.338,218.158 139.672,217.492 139.5,216.5C 142.327,213.325 144.327,209.659 145.5,205.5C 144.267,201.752 142.767,198.086 141,194.5C 140.24,190.775 140.407,187.108 141.5,183.5C 133.328,183.033 125.328,182.033 117.5,180.5C 115.626,180.39 114.126,181.056 113,182.5C 112.802,184.382 112.302,186.048 111.5,187.5C 111.81,184.287 111.477,181.287 110.5,178.5C 110.842,177.662 111.508,177.328 112.5,177.5C 112.369,178.239 112.536,178.906 113,179.5C 115.719,177.781 117.719,175.447 119,172.5C 119,174.5 119,176.5 119,178.5C 120.699,179.406 122.533,179.739 124.5,179.5C 124.5,175.167 124.5,170.833 124.5,166.5C 121.562,165.93 119.228,165.263 117.5,164.5 Z"/></g>
<g><path style="opacity:1" fill="#f4f5f7" d="M 129.5,243.5 C 128.5,243.5 127.5,243.5 126.5,243.5C 126.5,242.167 126.5,240.833 126.5,239.5C 126.414,238.504 126.748,237.671 127.5,237C 131.486,236.501 135.486,236.334 139.5,236.5C 139.5,238.5 139.5,240.5 139.5,242.5C 136.214,243.207 132.881,243.54 129.5,243.5 Z"/></g>
<g><path style="opacity:1" fill="#3f383a" d="M 165.5,194.5 C 166.94,196.42 166.607,198.087 164.5,199.5C 164.167,199.333 163.833,199.167 163.5,199C 165.037,197.89 165.703,196.39 165.5,194.5 Z"/></g>
<g><path style="opacity:1" fill="#3a589d" d="M 199.5,204.5 C 197.582,207.924 195.082,210.924 192,213.5C 191.517,214.448 191.351,215.448 191.5,216.5C 190.448,216.351 189.448,216.517 188.5,217C 187.457,220.811 188.457,224.144 191.5,227C 189.024,228.309 187.024,230.142 185.5,232.5C 181.431,240.756 183.431,243.09 191.5,239.5C 190.694,240.728 189.694,241.728 188.5,242.5C 183.195,245.65 177.529,247.984 171.5,249.5C 173.964,248.488 175.631,246.655 176.5,244C 172.245,243.204 168.079,243.371 164,244.5C 163.168,236.147 163.335,227.813 164.5,219.5C 165.524,218.147 166.857,217.48 168.5,217.5C 164.754,225.089 163.754,233.089 165.5,241.5C 166.167,241.833 166.833,242.167 167.5,242.5C 172.535,241.606 177.535,240.606 182.5,239.5C 182.18,236.102 182.513,232.768 183.5,229.5C 184.991,228.652 185.658,227.319 185.5,225.5C 184.828,223.168 184.661,220.834 185,218.5C 189.042,212.957 193.875,208.291 199.5,204.5 Z"/></g>
<g><path style="opacity:1" fill="#f2f2f6" d="M 166.5,232.5 C 171.167,232.5 175.833,232.5 180.5,232.5C 180.5,234.167 180.5,235.833 180.5,237.5C 175.833,238.5 171.167,239.5 166.5,240.5C 166.5,237.833 166.5,235.167 166.5,232.5 Z"/></g>
<g><path style="opacity:1" fill="#797988" d="M 126.5,239.5 C 126.5,240.833 126.5,242.167 126.5,243.5C 127.5,243.5 128.5,243.5 129.5,243.5C 128.432,244.434 127.099,244.768 125.5,244.5C 125.216,242.585 125.549,240.919 126.5,239.5 Z"/></g>
<g><path style="opacity:1" fill="#3d5696" d="M 75.5,239.5 C 78.2706,239.421 80.9373,239.921 83.5,241C 89.8747,245.351 96.5414,248.851 103.5,251.5C 101.435,251.483 99.4352,251.15 97.5,250.5C 89.6961,247.677 82.3628,244.01 75.5,239.5 Z"/></g>
<g><path style="opacity:1" fill="#2e58af" d="M 90.5,235.5 C 93.6267,236.805 96.96,238.471 100.5,240.5C 99.0813,241.451 97.4147,241.784 95.5,241.5C 95.5,242.833 95.5,244.167 95.5,245.5C 98.5184,245.335 101.518,245.502 104.5,246C 106.569,247.523 108.903,248.357 111.5,248.5C 111.5,249.5 111.5,250.5 111.5,251.5C 108.833,251.5 106.167,251.5 103.5,251.5C 96.5414,248.851 89.8747,245.351 83.5,241C 80.9373,239.921 78.2706,239.421 75.5,239.5C 75.5,238.5 75.5,237.5 75.5,236.5C 71.2798,236.573 68.9464,234.573 68.5,230.5C 70.5273,230.662 72.5273,230.495 74.5,230C 75.8333,228.333 75.8333,226.667 74.5,225C 75.448,224.517 76.448,224.351 77.5,224.5C 77.3354,221.482 77.502,218.482 78,215.5C 81.2486,220.146 82.0819,225.146 80.5,230.5C 81.552,230.351 82.552,230.517 83.5,231C 84.5035,234.505 86.8368,236.005 90.5,235.5 Z"/></g>
<g><path style="opacity:1" fill="#34589f" d="M 101.5,189.5 C 101.082,190.222 100.416,190.722 99.5,191C 96.1832,191.498 92.8499,191.665 89.5,191.5C 89.3354,194.518 89.502,197.518 90,200.5C 91.6995,201.406 93.5328,201.739 95.5,201.5C 95.5,203.5 95.5,205.5 95.5,207.5C 97.1667,207.5 98.8333,207.5 100.5,207.5C 100.617,209.484 99.9501,211.15 98.5,212.5C 100.73,215.718 103.564,218.384 107,220.5C 108.88,219.07 110.38,219.404 111.5,221.5C 110.557,226.1 110.223,230.767 110.5,235.5C 109.5,235.5 108.5,235.5 107.5,235.5C 107.216,238.777 107.549,241.943 108.5,245C 111.572,245.8 113.239,244.633 113.5,241.5C 114.822,241.67 115.989,241.337 117,240.5C 119.334,244.674 118.168,247.507 113.5,249C 116.848,250.969 120.514,251.969 124.5,252C 125.167,252.667 125.833,253.333 126.5,254C 134.521,254.832 142.521,254.665 150.5,253.5C 157.53,251.97 164.53,250.636 171.5,249.5C 167.723,251.29 163.723,252.79 159.5,254C 144.222,256.849 128.889,257.182 113.5,255C 109.941,254.148 106.607,252.981 103.5,251.5C 106.167,251.5 108.833,251.5 111.5,251.5C 111.5,250.5 111.5,249.5 111.5,248.5C 108.903,248.357 106.569,247.523 104.5,246C 101.518,245.502 98.5184,245.335 95.5,245.5C 95.5,244.167 95.5,242.833 95.5,241.5C 97.4147,241.784 99.0813,241.451 100.5,240.5C 102.144,240.714 103.644,240.38 105,239.5C 106.554,235.453 107.72,231.287 108.5,227C 108.415,225.893 108.081,224.893 107.5,224C 104.054,223.339 100.721,222.505 97.5,221.5C 98.0719,216.754 96.0719,214.087 91.5,213.5C 90.4158,207.995 88.7491,202.661 86.5,197.5C 87.3742,195.253 87.7076,192.92 87.5,190.5C 92.1522,190.002 96.8189,189.669 101.5,189.5 Z"/></g>
<g><path style="opacity:1" fill="#2c2f3d" d="M 66.5,239.5 C 68.3635,238.207 70.3635,238.207 72.5,239.5C 73.439,241.053 74.6057,242.387 76,243.5C 79.7594,244.694 83.2594,246.36 86.5,248.5C 90.0715,249.706 93.7382,250.373 97.5,250.5C 99.4352,251.15 101.435,251.483 103.5,251.5C 106.607,252.981 109.941,254.148 113.5,255C 128.889,257.182 144.222,256.849 159.5,254C 163.723,252.79 167.723,251.29 171.5,249.5C 177.529,247.984 183.195,245.65 188.5,242.5C 187.174,244.195 187.507,245.528 189.5,246.5C 158.612,262.249 126.612,264.749 93.5,254C 84.1055,249.741 75.1055,244.908 66.5,239.5 Z"/></g>
</svg>
