<svg xmlns="http://www.w3.org/2000/svg" width="179.063" height="181.651"><path d="M434.19 526.768c2.534 59.6-38.59 95.67-84.96 95.67-46.37 0-81.426-34.816-82.44-95.522z" style="fill:#fff;fill-opacity:1;fill-rule:nonzero;stroke:#000;stroke-width:3;stroke-linecap:round;stroke-linejoin:round;stroke-miterlimit:4;stroke-opacity:1;stroke-dasharray:none" transform="translate(-260.75 -442.311)"/><path d="M262.33 443.806h175.914l-4.167 82.805-167.311-.025z" style="fill:#f61226;fill-opacity:1;stroke:#000;stroke-width:3;stroke-linecap:butt;stroke-linejoin:miter;stroke-miterlimit:4;stroke-opacity:1;stroke-dasharray:none" transform="translate(-260.75 -442.311)"/><path d="M412.084 535.223c-9.897 10.868-24.534 30.057-48.452 38.054 9.25-17.173 32.735-33.56 48.452-38.054z" style="fill:#166a49;fill-opacity:1;stroke:#000;stroke-width:1px;stroke-linecap:butt;stroke-linejoin:round;stroke-opacity:1" transform="translate(-260.75 -442.311)"/><path d="M424.325 563.261c-13.746 5.206-35.488 15.682-60.433 11.978 16.026-11.12 44.386-15.092 60.433-11.978z" style="fill:#166a49;fill-opacity:1;stroke:#000;stroke-width:1px;stroke-linecap:butt;stroke-linejoin:round;stroke-opacity:1" transform="translate(-260.75 -442.311)"/><path d="M419.644 549.16c-12.17 8.244-30.9 23.463-56.027 25.626 13.021-14.524 39.695-24.945 56.027-25.625z" style="fill:#166a49;fill-opacity:1;stroke:#000;stroke-width:1px;stroke-linecap:butt;stroke-linejoin:round;stroke-opacity:1" transform="translate(-260.75 -442.311)"/><path d="m341.463 576.508 9.502 12.532 8.807-12.342z" style="fill:#265a46;fill-opacity:1;stroke:none" transform="translate(-260.75 -442.311)"/><path d="M290.425 535.562c9.897 10.868 24.535 30.056 48.452 38.053-9.25-17.173-32.735-33.56-48.452-38.053z" style="fill:#166a49;fill-opacity:1;stroke:#000;stroke-width:1px;stroke-linecap:butt;stroke-linejoin:round;stroke-opacity:1" transform="translate(-260.75 -442.311)"/><path d="M278.185 563.6c13.746 5.206 35.488 15.682 60.433 11.977-16.026-11.12-44.386-15.091-60.433-11.977z" style="fill:#166a49;fill-opacity:1;stroke:#000;stroke-width:1px;stroke-linecap:butt;stroke-linejoin:round;stroke-opacity:1" transform="translate(-260.75 -442.311)"/><path d="M282.866 549.5c12.17 8.242 30.9 23.461 56.026 25.624-13.02-14.523-39.694-24.944-56.026-25.625z" style="fill:#166a49;fill-opacity:1;stroke:#000;stroke-width:1px;stroke-linecap:butt;stroke-linejoin:round;stroke-opacity:1" transform="translate(-260.75 -442.311)"/><path transform="matrix(.97715 0 0 .98337 -252.55 -428.972)" d="M370.357 556.559a19.643 18.66 0 1 1-39.286 0 19.643 18.66 0 1 1 39.286 0z" style="fill:#000;fill-opacity:1;stroke:none"/><path d="m343.571 562.97 5.983-3.617v-7.098c-1.776.18-6.935 9.264-5.983 10.714zM358.267 562.947l-6.116-3.705v-7.099c1.776.18 7.069 9.354 6.116 10.804zM350.893 561.496l6.027 3.527c-.88 1.555-11.426 2.185-11.852.155z" style="fill:#166a49;fill-opacity:1;stroke:none" transform="translate(-260.75 -442.311)"/><path transform="matrix(.97715 0 0 .98337 -270.226 -396.659)" d="M370.357 556.559a19.643 18.66 0 1 1-39.286 0 19.643 18.66 0 1 1 39.286 0z" style="fill:#000;fill-opacity:1;stroke:none"/><path d="m325.896 595.283 5.982-3.616v-7.098c-1.776.18-6.934 9.264-5.982 10.714zM340.592 595.26l-6.116-3.705v-7.098c1.776.18 7.068 9.354 6.116 10.804zM333.217 593.81l6.027 3.526c-.879 1.556-11.426 2.186-11.851.156z" style="fill:#166a49;fill-opacity:1;stroke:none" transform="translate(-260.75 -442.311)"/><path transform="matrix(.97715 0 0 .98337 -234.366 -397.164)" d="M370.357 556.559a19.643 18.66 0 1 1-39.286 0 19.643 18.66 0 1 1 39.286 0z" style="fill:#000;fill-opacity:1;stroke:none"/><path d="m361.756 594.778 5.983-3.616v-7.098c-1.776.18-6.935 9.264-5.983 10.714zM376.452 594.756l-6.116-3.706v-7.098c1.776.18 7.068 9.354 6.116 10.804zM369.078 593.305l6.027 3.526c-.88 1.556-11.427 2.186-11.852.156z" style="fill:#166a49;fill-opacity:1;stroke:none" transform="translate(-260.75 -442.311)"/><path d="M89.594 26.313c-13.221 0-23.938 10.747-23.938 23.968S76.373 74.22 89.594 74.22c13.22 0 23.937-10.717 23.937-23.938 0-13.22-10.716-23.968-23.937-23.968zM87 32.75v9.531a8.486 8.486 0 0 0-2.719 1.532l-8.25-4.75A17.706 17.706 0 0 1 87 32.75zm5.688.031a17.694 17.694 0 0 1 11.062 6.563l-8.219 4.75a8.452 8.452 0 0 0-2.844-1.75V32.78zM73.188 44l8.218 4.75c-.089.49-.156.986-.156 1.5 0 .647.08 1.27.219 1.875l-8.156 4.719a17.69 17.69 0 0 1-1.282-6.594c0-2.202.424-4.304 1.156-6.25zm33.312.344a17.706 17.706 0 0 1 1.031 5.906c0 2.252-.454 4.393-1.219 6.375l-8.25-4.75c.106-.529.188-1.065.188-1.625 0-.368-.016-.738-.063-1.094l8.313-4.812zm-16.781 1.875c2.28 0 4.125 1.876 4.125 4.156a4.123 4.123 0 0 1-4.125 4.125 4.123 4.123 0 0 1-4.125-4.125c0-2.28 1.845-4.156 4.125-4.156zm5.406 10.531h.031l8.281 4.813a17.724 17.724 0 0 1-10.812 6.187v-9.594a8.442 8.442 0 0 0 2.5-1.406zm-10.531.188a8.384 8.384 0 0 0 2.344 1.25v9.593c-4.248-.693-7.985-2.92-10.657-6.062l8.313-4.782z" style="fill:#fff;fill-opacity:1;fill-rule:nonzero;stroke:#000;stroke-width:1.9842519700000001;stroke-linecap:butt;stroke-linejoin:miter;stroke-miterlimit:4;stroke-opacity:1;stroke-dasharray:none"/><path d="M284.125 452.438 275 461.563v53.968h43.563l-.25-25.343h.062c.63-16.339 14.725-27.76 32.031-27.76 17.708 0 31.683 12.048 31.683 28.916l-.157 24.187h43.256v-54.375l-8.75-8.719z" style="fill:#fff;fill-opacity:1;stroke:#000;stroke-width:2;stroke-linecap:butt;stroke-linejoin:miter;stroke-miterlimit:4;stroke-opacity:1;stroke-dasharray:none" transform="translate(-260.75 -442.311)"/><path d="M285.522 515.536v-7.477M307.953 515.6v-7.478M296.8 507.869v-7.477M307.953 500.265v-7.477M285.522 500.011v-7.477M296.8 492.534v-7.477M285.522 484.74v-7.477M307.953 484.93v-7.476M296.8 477.073v-7.477M318.218 477.073v-7.477M307.953 469.28v-7.478M329.37 469.343v-7.477M285.522 469.216v-7.477" style="fill:none;stroke:#000;stroke-width:3;stroke-linecap:butt;stroke-linejoin:miter;stroke-miterlimit:4;stroke-opacity:1;stroke-dasharray:none" transform="translate(-260.75 -442.311)"/><path d="M274.876 469.406h54.748M275.13 477.263h47.143M275.257 484.867h43.975M275.383 492.344h43.215M275.383 500.328h43.215" style="fill:none;stroke:#000;stroke-width:2;stroke-linecap:butt;stroke-linejoin:miter;stroke-miterlimit:4;stroke-opacity:1;stroke-dasharray:none" transform="translate(-260.75 -442.311)"/><path d="M414.815 514.945v-7.477" style="fill:none;stroke:#000;stroke-width:3;stroke-linecap:butt;stroke-linejoin:miter;stroke-miterlimit:4;stroke-opacity:1;stroke-dasharray:none" transform="translate(-260.75 -442.311)"/><path d="M275.383 507.932h42.962" style="fill:none;stroke:#000;stroke-width:2;stroke-linecap:butt;stroke-linejoin:miter;stroke-miterlimit:4;stroke-opacity:1;stroke-dasharray:none" transform="translate(-260.75 -442.311)"/><path d="M392.384 515.008v-7.477M403.537 507.278V499.8M392.384 499.674v-7.477M414.815 499.42v-7.476M403.537 491.944v-7.477M414.815 484.15v-7.477M392.384 484.34v-7.477M403.537 476.483v-7.477M382.12 476.483v-7.477M392.384 468.689v-7.477M370.967 468.752v-7.477M414.815 468.625v-7.477" style="fill:none;stroke:#000;stroke-width:3;stroke-linecap:butt;stroke-linejoin:miter;stroke-miterlimit:4;stroke-opacity:1;stroke-dasharray:none" transform="translate(-260.75 -442.311)"/><path d="M425.46 468.815h-54.746M275.51 461.296h149.54M425.207 476.673h-47.143M425.08 484.276h-43.975M424.954 491.754h-43.215M424.954 499.737h-43.215M424.954 507.341h-42.962" style="fill:none;stroke:#000;stroke-width:2;stroke-linecap:butt;stroke-linejoin:miter;stroke-miterlimit:4;stroke-opacity:1;stroke-dasharray:none" transform="translate(-260.75 -442.311)"/></svg>