<svg xmlns="http://www.w3.org/2000/svg" width="480.122" height="511.286"><g transform="translate(-265.653 -133.862)"><path d="M271.724 137.566s12.188 241.544 17.078 298.012c4.643 53.646 29.022 104.308 68.645 142.65 40.998 39.678 94.19 61.524 149.785 61.524 55.593 0 108.794-21.846 149.786-61.524 39.623-38.342 63.999-89.004 68.639-142.65 4.892-56.468 17.09-298.012 17.09-298.012H271.723z" style="fill:#fff;stroke:none"/><path d="M513.48 140.643c0 5.998-15.249 18.716-15.286 38.603-.023 12.432 15.001 25.53 15.285 41.923.223 12.882-16.076 26.624-15.99 41.34.078 13.155 15.723 27.133 15.99 41.325.243 12.95-16.456 26.446-16.384 39.93.074 13.637 16.083 26.865 16.384 40.725.288 13.251-16.427 26.74-16.416 39.926.013 14.576 16.007 29.02 16.416 43.144.412 14.228-16.602 28.331-16.835 41.713-.262 15.008 16.031 28.746 16.835 42.154.903 15.057-14.665 27.216-16.287 39.646-2.685 20.57 17.712 34.93 16.287 45.085 55.592 0 98.44-18.034 139.432-57.712 39.623-38.342 63.999-89.004 68.639-142.65 4.892-56.468 17.09-298.012 17.09-298.012l-225.16 2.86z" style="fill:#d8201f;fill-opacity:1;stroke:none"/><path style="fill:#231f20;fill-opacity:1;stroke:#231f20;stroke-width:1px;stroke-linecap:butt;stroke-linejoin:miter;stroke-opacity:1" d="M603.113 153.644c2.46 9.269 15.935 16.61 13.094 58.92 6.937-5.961 7.23-14.8 10.638-21.276 9.704 33.468-7.746 65.825-4.91 90.836 5.49-8.678 8.293-17.804 10.639-27.006 12.223 32.363-5.178 57.49-8.184 81.016 9.851-9.73 10.686-19.462 13.537-29.193 7.127 34.583-6.627 63.231-11.9 79.93 9.932-8.308 15.299-16.617 16.213-24.925 12.697 50.477-17.972 65.148-16.213 82.21 11.348-1.085 22.77-1.075 33.552-10.64l2.455 36.008-37.644.818-9.82 79.38-26.187-.82-9.284-79.633h-38.872l2.204-36.035c5.643 6.171 17.592 10.966 36.132 10.103-4.28-32.768-24.284-46.823-18.225-89.33 6.157 10.874 7.83 21.563 20.68 31.228-6.47-24.279-26.475-51.71-15.793-85.66 4.043 13.352 6.738 28.59 15.793 34.923-5.518-33.065-26.626-65.83-7.365-99.372 2.496 11.97 3.731 26.82 9.69 30.875 3.35-23.267-18.315-58.128.085-89.773 3.112 8.998 2.295 24.677 8.229 28.972 1.378-8.298-.629-17.272 5.472-24.625 1.66-8.58-5.495-16.164 5.984-26.93z"/><path style="fill:#fff;stroke:#231f20;stroke-width:1px;stroke-linecap:butt;stroke-linejoin:miter;stroke-opacity:1" d="m585.09 469.27 6.608 68.283 20.705-.22 5.947-68.064c.141-1.06-.022-1.06-2.39-1.06h-29.202c-.768.142-1.778.041-1.668 1.06z"/><rect style="fill:#fff;stroke:#231f20;stroke-width:2.06399894;stroke-linecap:round;stroke-linejoin:round;stroke-miterlimit:4;stroke-opacity:1;stroke-dasharray:none" width="55.044" height="16.793" x="574.075" y="447.296" rx="1.765" ry="2.661"/><path style="fill:#fff;stroke:#231f20;stroke-width:2;stroke-linecap:butt;stroke-linejoin:miter;stroke-miterlimit:4;stroke-opacity:1;stroke-dasharray:none" d="M652.862 444.256c1.934-.427 4.507-2.016 4.337 1.38l-.197 17.414c-.146 1.237-1.187.686-1.88.828l-19.593-.055c-.84.076-2.135.41-1.99-.839v-12.813c-.39-2.978 3.056-2.185 8.737-3.118 3.198-.525 5.17-1.227 10.586-2.797zM550.27 444.332c-1.934-.427-4.507-2.016-4.338 1.38l.197 17.415c.147 1.237 1.187.685 1.881.827l19.592-.055c.84.076 2.135.411 1.99-.839v-12.813c.39-2.978-3.056-2.184-8.736-3.117-3.198-.526-5.17-1.228-10.586-2.798z"/><path style="fill:#fff;stroke:#231f20;stroke-width:1px;stroke-linecap:butt;stroke-linejoin:miter;stroke-opacity:1" d="m602.696 219.766 2.587 223.395h14.266c7.907-20.41 24.67-39.878 21.095-64.272-6.867 8.45-13.996 14.46-24.149 25.873 4.508-27.098 18.56-49.55 18.974-74.17l-17.68 21.992c-2.677-15.567 14.225-49.077 14.661-78.483l-15.093 25.442c-5.106-26.428 7.818-59.608 6.9-87.97-1.35.977-8.05 12.65-12.074 18.974-1.53-23.847 2.102-53.127-9.056-66.84-2.674-1.994-1.471 6.49-.705 13.67.872 8.166-7.25-1.715-5.763 49.72-2.516 1.615-8.73-19.156-13.617-28.212-1.914-2.382-2.514 6.71-.814 18.732 1.276 9.022 4.668 19.055 5.242 30.647.648 13.076.94 22.306-1.437 34.097-1.034 2.635-13.706-28.466-14.385-25.94-4.62 26.597 13.939 60.756 14.661 90.988-6.044-6.347-11.766-11.726-19.405-22.855-.3 23.393 19.23 42.208 17.25 69.859-8.178-4.146-17.94-20.427-20.7-18.974 4.592 32.89 18.242 44.182 19.6 67.722h16.583l3.059-223.395z"/><path style="fill:#fff;stroke:#231f20;stroke-width:4.92522621;stroke-linecap:round;stroke-linejoin:round;stroke-miterlimit:4;stroke-opacity:1;stroke-dasharray:none" d="M371.896 531.14c0 12.463-10.103 22.565-22.565 22.565-12.462 0-22.564-10.102-22.564-22.564s10.102-22.565 22.564-22.565 22.565 10.103 22.565 22.565z" transform="translate(212.061 -31.082) scale(1.1167)"/><path style="fill:#d8201f;fill-opacity:1;stroke:#231f20;stroke-width:11.40512466;stroke-linecap:round;stroke-linejoin:round;stroke-miterlimit:4;stroke-opacity:1;stroke-dasharray:none" d="M371.896 531.14c0 12.463-10.103 22.565-22.565 22.565-12.462 0-22.564-10.102-22.564-22.564s10.102-22.565 22.564-22.565 22.565 10.103 22.565 22.565z" transform="matrix(.45267 0 0 .45267 444.242 321.82)"/><path style="fill:#231f20;fill-opacity:1;stroke:#231f20;stroke-width:1px;stroke-linecap:butt;stroke-linejoin:miter;stroke-opacity:1" d="M460.596 584.267c8.963-5.693 12.77-23.796 8.1-33.904-6.753-14.612-25.613-11.058-26.455-17.677-.53-5.296 20.17 4.722 32.046-5.944 6.765-6.076 2.162-20.778 1.603-22.277-9.618-25.782-29.182-19.22-33.329-15.774-4.223 3.509-4.654 11.832-11.776 12.092-3.922.143-7.245-1.23-9.53-5.499-8.007-19.94 11.086-43.314 10.632-64.16-.424-19.42-14.663-32.702-10.631-39.81 31.236-48.782-1.656-62.753 5.12-93.044 25.11-57.636-9.278-71.286-4.792-106.004 1.046-8.088 4.094-15.458 12.785-22.004.94-3.372 19.707-12.414-1.938-13.62-44.575 9.28-30.575 33.52-36.594 50.086 1.58 5.42-21.405.064-37.287 4.822-10.183 3.05-19.47 8.11-27.093 17.038-10.69 16.54-4.695 22.402-.614 18.166 20.913-11.83 32.645-17.714 59.563-10.09 13.083 3.706 29.588 21.232 16.235 46.627-3.355 11.638-54.976-10.136-79.126 26.58-7.638 21.43.245 26.918 5.087 18.623 11.769-13.88 24.904-19.933 52.034-11.403 10.943 3.441 22.61 9.217 23.57 31.016.56 14.235-3.943 18.743-11.225 23.306-10.148 6.359-44.623-11.595-65.925 11.703-3.653 6.922-7.474 13.954-8.304 19.03-.65 3.982-.461 12.766 5.095 7.337 16.387-11.539 18.184-16.98 43.204-12.855 11.809 1.947 33.964 19.07 32.658 31.095-2.985 14.4-7.429 19.658-12.67 22.978-12.974 8.218-29.864-7.54-55.749 12.934-10.142 9.454-11.956 20.093-12.906 25.105-.917 4.844-.625 10.405 6.721 5.043 8.852-9.407 14.897-18.984 35.86-18.074 4.393.19 8.83.539 12.991 3.521 8.876 6.363 9.063 16.596 10.517 20.737 1.695 8.061 17.826 14.883 16.197 22.596-5.274 6.832-14.483-4.44-24.781 5.546-3.849 3.732-6.518 13.657-1.72 27.121 8.06 12.663 20.777 13.419 28.295 12.947 11.782-.738 8.348-15.779 15.728-19.503 9.564 2.49-1.075 22.415 6.413 31.415 6.094 7.324 15.057 10.802 31.99 4.178z"/><path style="fill:none;stroke:#231f20;stroke-width:6.52899981;stroke-linecap:butt;stroke-linejoin:miter;stroke-miterlimit:4;stroke-opacity:1;stroke-dasharray:none" d="M513.465 142.179c0 13.107-11.857 18.202-14.835 32.569-4.09 19.726 13.563 25.43 14.77 47.795.043.789.065 1.598.065 2.43 0 15.759-18.015 24.595-16.525 39.55 1.574 17.05 16.525 26.44 16.525 43.976 0 15.174-19.216 25.84-17.479 38.76 1.532 20.111 17.479 22.802 17.479 42.931 0 18.742-18.636 24.606-16.843 40.772 1.603 13.614 16.843 25.165 16.843 45.509 0 14.742-18.916 24.395-17.161 39.802 2.862 13.962 17.16 24.248 17.16 41.888 0 15.937-20.806 26.116-17.16 41.814 3.044 18.51 17.16 30.065 17.16 39.824"/><path d="M270.203 138.412s12.188 241.545 17.078 298.013c4.643 53.645 29.022 104.307 68.645 142.65 40.998 39.677 94.19 61.523 149.785 61.523 55.593 0 108.794-21.846 149.786-61.523 39.623-38.343 63.999-89.005 68.639-142.65 4.892-56.468 17.09-298.013 17.09-298.013H270.202z" style="fill:none;stroke:#1b1a1c;stroke-width:9.10000038;stroke-linecap:butt;stroke-linejoin:miter;stroke-miterlimit:4;stroke-opacity:1;stroke-dasharray:none"/></g></svg>