<?xml version="1.0" encoding="UTF-8"?>
<!DOCTYPE svg PUBLIC "-//W3C//DTD SVG 1.1//EN" "http://www.w3.org/Graphics/SVG/1.1/DTD/svg11.dtd">
<svg xmlns="http://www.w3.org/2000/svg" version="1.1" width="193px" height="197px" style="shape-rendering:geometricPrecision; text-rendering:geometricPrecision; image-rendering:optimizeQuality; fill-rule:evenodd; clip-rule:evenodd" xmlns:xlink="http://www.w3.org/1999/xlink">
<g><path style="opacity:1" fill="#f8fafb" d="M -0.5,-0.5 C 63.8333,-0.5 128.167,-0.5 192.5,-0.5C 192.5,42.1667 192.5,84.8333 192.5,127.5C 191.834,122.983 191.167,118.317 190.5,113.5C 189.507,118.12 189.173,122.786 189.5,127.5C 188.167,127.5 186.833,127.5 185.5,127.5C 185.654,120.07 184.987,112.737 183.5,105.5C 183.5,102.167 183.5,98.8333 183.5,95.5C 184.833,95.5 186.167,95.5 187.5,95.5C 187.172,100.875 187.505,106.208 188.5,111.5C 192.101,93.2406 192.434,75.0739 189.5,57C 189.667,54.8333 189.833,52.6667 190,50.5C 190.654,51.6956 191.154,51.6956 191.5,50.5C 191,49.5 190.5,48.5 190,47.5C 189.247,38.4793 188.414,29.4793 187.5,20.5C 187.5,14.8333 187.5,9.16667 187.5,3.5C 126.495,3.73267 65.4946,3.39934 4.5,2.5C 4.5,6.83333 4.5,11.1667 4.5,15.5C 3.5,15.5 2.5,15.5 1.5,15.5C 2.1128,21.2709 1.44613,26.6042 -0.5,31.5C -0.5,20.8333 -0.5,10.1667 -0.5,-0.5 Z"/></g>
<g><path style="opacity:1" fill="#1a161b" d="M 187.5,20.5 C 186.439,40.1836 185.105,59.8503 183.5,79.5C 183.368,60.807 184.035,42.1403 185.5,23.5C 185.495,17.7891 184.828,12.4558 183.5,7.5C 165.197,5.51288 146.53,4.84621 127.5,5.5C 117.773,4.86109 108.44,5.52775 99.5,7.5C 98.8333,7.5 98.1667,7.5 97.5,7.5C 96.8333,7.5 96.1667,7.5 95.5,7.5C 90.1667,7.5 84.8333,7.5 79.5,7.5C 67.8524,6.16762 55.8524,5.50095 43.5,5.5C 31.3286,5.50012 19.3286,5.83345 7.5,6.5C 7.5,6.83333 7.5,7.16667 7.5,7.5C 5.63105,9.63528 4.96438,12.3019 5.5,15.5C 5.16667,15.5 4.83333,15.5 4.5,15.5C 4.5,11.1667 4.5,6.83333 4.5,2.5C 65.4946,3.39934 126.495,3.73267 187.5,3.5C 187.5,9.16667 187.5,14.8333 187.5,20.5 Z"/></g>
<g><path style="opacity:1" fill="#0b1243" d="M 7.5,6.5 C 19.3286,5.83345 31.3286,5.50012 43.5,5.5C 55.8524,5.50095 67.8524,6.16762 79.5,7.5C 71.5,7.5 63.5,7.5 55.5,7.5C 39.6754,6.50364 23.6754,6.1703 7.5,6.5 Z"/></g>
<g><path style="opacity:1" fill="#0c1227" d="M 127.5,5.5 C 127.5,6.16667 127.5,6.83333 127.5,7.5C 118.167,7.5 108.833,7.5 99.5,7.5C 108.44,5.52775 117.773,4.86109 127.5,5.5 Z"/></g>
<g><path style="opacity:1" fill="#181a43" d="M 127.5,5.5 C 146.53,4.84621 165.197,5.51288 183.5,7.5C 173.5,7.5 163.5,7.5 153.5,7.5C 144.833,7.5 136.167,7.5 127.5,7.5C 127.5,6.83333 127.5,6.16667 127.5,5.5 Z"/></g>
<g><path style="opacity:1" fill="#264aa1" d="M 153.5,7.5 C 163.5,7.5 173.5,7.5 183.5,7.5C 183.5,15.5 183.5,23.5 183.5,31.5C 182.833,31.5 182.167,31.5 181.5,31.5C 181.5,24.1667 181.5,16.8333 181.5,9.5C 174.621,9.22176 167.788,9.55509 161,10.5C 158.28,9.7667 155.78,8.7667 153.5,7.5 Z"/></g>
<g><path style="opacity:1" fill="#2043a4" d="M 24.5,7.5 C 34.8333,7.5 45.1667,7.5 55.5,7.5C 63.5,7.5 71.5,7.5 79.5,7.5C 84.8333,7.5 90.1667,7.5 95.5,7.5C 95.5,10.1667 95.5,12.8333 95.5,15.5C 94.8333,26.1667 94.1667,36.8333 93.5,47.5C 91.9397,49.1561 90.9397,51.1561 90.5,53.5C 87.4989,61.5079 84.4989,69.5079 81.5,77.5C 80.0779,77.2504 79.0779,76.417 78.5,75C 80.0262,70.5481 79.6929,66.2148 77.5,62C 77.6705,59.3186 77.8372,56.4852 78,53.5C 79.0113,52.6634 80.1779,52.33 81.5,52.5C 81.5,50.8333 81.5,49.1667 81.5,47.5C 82.895,44.484 84.2283,41.3173 85.5,38C 84.4844,37.4806 83.8178,36.6473 83.5,35.5C 83.8515,34.2141 84.5182,33.3808 85.5,33C 85.3552,32.228 85.0219,31.5613 84.5,31C 85.6721,30.5814 86.6721,29.9147 87.5,29C 85.481,27.1151 84.1476,25.2817 83.5,23.5C 81.4763,26.2057 78.8097,27.539 75.5,27.5C 69.4943,24.8228 63.4943,22.1561 57.5,19.5C 57.6716,18.5084 57.3382,17.8417 56.5,17.5C 56.4894,15.9826 55.8228,14.8159 54.5,14C 50.299,13.0776 46.299,13.5776 42.5,15.5C 42.1667,16.8333 41.8333,18.1667 41.5,19.5C 41.5854,21.3328 42.2521,22.6661 43.5,23.5C 46.1379,26.4744 48.8046,29.4744 51.5,32.5C 51.5,33.5 51.5,34.5 51.5,35.5C 49.8235,34.8166 49.1568,33.4832 49.5,31.5C 45.4454,31.8242 41.4454,31.4909 37.5,30.5C 36.4783,29.646 35.6449,28.646 35,27.5C 34.6667,27.8333 34.3333,28.1667 34,28.5C 33.8253,24.789 33.3253,21.1224 32.5,17.5C 30.8496,14.9275 28.683,12.9275 26,11.5C 25.3333,12.1667 24.6667,12.8333 24,13.5C 23.9358,11.5396 24.1024,9.53958 24.5,7.5 Z"/></g>
<g><path style="opacity:1" fill="#1f45ab" d="M 97.5,7.5 C 98.1667,7.5 98.8333,7.5 99.5,7.5C 108.833,7.5 118.167,7.5 127.5,7.5C 136.167,7.5 144.833,7.5 153.5,7.5C 155.78,8.7667 158.28,9.7667 161,10.5C 167.788,9.55509 174.621,9.22176 181.5,9.5C 181.5,16.8333 181.5,24.1667 181.5,31.5C 181.309,42.2796 180.643,52.9463 179.5,63.5C 178.188,61.2568 177.522,58.5902 177.5,55.5C 178.084,49.5503 179.084,43.717 180.5,38C 178.311,37.323 177.978,36.1563 179.5,34.5C 178.318,32.3546 176.818,32.3546 175,34.5C 174.676,32.4311 173.842,32.0977 172.5,33.5C 168.838,33.1616 168.171,31.995 170.5,30C 169.833,29.6667 169.167,29.3333 168.5,29C 169.554,27.6124 169.72,26.1124 169,24.5C 168.282,25.4506 167.449,25.6172 166.5,25C 167.5,24 168.5,23 169.5,22C 168.289,20.8869 168.289,19.7202 169.5,18.5C 168.833,17.1667 167.833,16.1667 166.5,15.5C 165.505,20.7921 165.172,26.1254 165.5,31.5C 163.856,26.4104 162.856,21.077 162.5,15.5C 162.167,15.5 161.833,15.5 161.5,15.5C 159.142,15.7475 157.142,15.0808 155.5,13.5C 150.265,11.55 144.598,10.8833 138.5,11.5C 132.402,10.8833 126.735,11.55 121.5,13.5C 118.102,13.8204 114.768,13.487 111.5,12.5C 114.64,11.9095 117.64,11.0761 120.5,10C 113.508,9.50038 106.508,9.33371 99.5,9.5C 99.5,16.8333 99.5,24.1667 99.5,31.5C 98.8333,31.1667 98.1667,30.8333 97.5,30.5C 97.5,30.1667 97.5,29.8333 97.5,29.5C 98.4757,22.3301 98.4757,14.9967 97.5,7.5 Z"/></g>
<g><path style="opacity:1" fill="#344487" d="M 138.5,11.5 C 137.766,12.7079 137.433,14.0413 137.5,15.5C 136.167,15.5 134.833,15.5 133.5,15.5C 133.5,14.5 133.5,13.5 133.5,12.5C 131.167,12.5 128.833,12.5 126.5,12.5C 126.5,13.5 126.5,14.5 126.5,15.5C 126.5,16.8333 125.833,17.5 124.5,17.5C 124.5,16.8333 124.5,16.1667 124.5,15.5C 124.027,14.0937 123.027,13.427 121.5,13.5C 126.735,11.55 132.402,10.8833 138.5,11.5 Z"/></g>
<g><path style="opacity:1" fill="#151a45" d="M 56.5,17.5 C 56.1667,17.5 55.8333,17.5 55.5,17.5C 53.1421,14.7636 50.1421,13.9302 46.5,15C 42.8136,16.8927 41.8136,19.726 43.5,23.5C 42.2521,22.6661 41.5854,21.3328 41.5,19.5C 41.8333,18.1667 42.1667,16.8333 42.5,15.5C 46.299,13.5776 50.299,13.0776 54.5,14C 55.8228,14.8159 56.4894,15.9826 56.5,17.5 Z"/></g>
<g><path style="opacity:1" fill="#080e40" d="M 95.5,7.5 C 96.1667,7.5 96.8333,7.5 97.5,7.5C 98.4757,14.9967 98.4757,22.3301 97.5,29.5C 97.8772,24.5474 97.2105,19.8807 95.5,15.5C 95.5,12.8333 95.5,10.1667 95.5,7.5 Z"/></g>
<g><path style="opacity:1" fill="#1f234e" d="M 138.5,11.5 C 144.598,10.8833 150.265,11.55 155.5,13.5C 154.5,13.5 153.5,13.5 152.5,13.5C 151.5,13.5 150.5,13.5 149.5,13.5C 148.596,14.209 148.263,15.209 148.5,16.5C 145.642,16.9717 143.642,15.9717 142.5,13.5C 141.167,13.5 139.833,13.5 138.5,13.5C 138.263,14.791 138.596,15.791 139.5,16.5C 137.5,17.1667 135.5,17.8333 133.5,18.5C 131.833,18.5 130.167,18.5 128.5,18.5C 128.5,17.8333 128.5,17.1667 128.5,16.5C 129.5,16.5 130.5,16.5 131.5,16.5C 131.5,15.5 131.5,14.5 131.5,13.5C 130.5,13.5 129.5,13.5 128.5,13.5C 127.833,14.1667 127.167,14.8333 126.5,15.5C 126.5,14.5 126.5,13.5 126.5,12.5C 128.833,12.5 131.167,12.5 133.5,12.5C 133.5,13.5 133.5,14.5 133.5,15.5C 134.833,15.5 136.167,15.5 137.5,15.5C 137.433,14.0413 137.766,12.7079 138.5,11.5 Z"/></g>
<g><path style="opacity:1" fill="#f4f6fd" d="M 121.5,17.5 C 121.5,18.8333 120.833,19.5 119.5,19.5C 119.369,18.7611 119.536,18.0944 120,17.5C 120.69,16.2617 121.19,16.2617 121.5,17.5 Z"/></g>
<g><path style="opacity:1" fill="#b5c5df" d="M 161.5,16.5 C 161.5,17.5 161.5,18.5 161.5,19.5C 158.833,18.5 158.833,17.5 161.5,16.5 Z"/></g>
<g><path style="opacity:1" fill="#141435" d="M 183.5,7.5 C 184.828,12.4558 185.495,17.7891 185.5,23.5C 184.035,42.1403 183.368,60.807 183.5,79.5C 182.167,90.1667 180.833,100.833 179.5,111.5C 180.119,84.793 181.452,58.1263 183.5,31.5C 183.5,23.5 183.5,15.5 183.5,7.5 Z"/></g>
<g><path style="opacity:1" fill="#f9f4fa" d="M 119.5,37.5 C 119.5,32.5 119.5,27.5 119.5,22.5C 121.781,21.3918 123.948,20.0585 126,18.5C 126.829,23.8643 126.663,29.1977 125.5,34.5C 123.473,35.5133 121.473,36.5133 119.5,37.5 Z"/></g>
<g><path style="opacity:1" fill="#612029" d="M 57.5,19.5 C 63.4943,22.1561 69.4943,24.8228 75.5,27.5C 75.5,28.1667 75.5,28.8333 75.5,29.5C 72.7702,29.5266 70.2702,28.8599 68,27.5C 66.5657,27.8618 65.3991,28.5285 64.5,29.5C 64.1667,29.5 63.8333,29.5 63.5,29.5C 61.4962,27.8097 59.1629,26.4764 56.5,25.5C 56.1667,24.5 55.8333,23.5 55.5,22.5C 55.6399,20.9704 56.3065,19.9704 57.5,19.5 Z"/></g>
<g><path style="opacity:1" fill="#eaf0f7" d="M 160.5,21.5 C 161.103,26.6186 160.436,31.2853 158.5,35.5C 157.279,34.9717 156.113,34.305 155,33.5C 154.333,28.5 154.333,23.5 155,18.5C 157.018,19.2228 158.852,20.2228 160.5,21.5 Z"/></g>
<g><path style="opacity:1" fill="#1b1526" d="M 55.5,17.5 C 55.8333,17.5 56.1667,17.5 56.5,17.5C 57.3382,17.8417 57.6716,18.5084 57.5,19.5C 56.3065,19.9704 55.6399,20.9704 55.5,22.5C 55.8333,23.5 56.1667,24.5 56.5,25.5C 59.1629,26.4764 61.4962,27.8097 63.5,29.5C 61.1667,28.8333 58.8333,28.1667 56.5,27.5C 55.8333,27.5 55.5,27.8333 55.5,28.5C 51.1367,26.8849 50.8034,24.2182 54.5,20.5C 54.1373,19.8165 53.8039,19.1499 53.5,18.5C 54.4916,18.6716 55.1583,18.3382 55.5,17.5 Z"/></g>
<g><path style="opacity:1" fill="#2146a9" d="M 117.5,17.5 C 117.5,42.5 117.5,67.5 117.5,92.5C 116.883,92.6107 116.383,92.944 116,93.5C 114.298,89.3399 113.298,85.0065 113,80.5C 111.989,79.6634 110.822,79.33 109.5,79.5C 108.307,79.0296 107.64,78.0296 107.5,76.5C 106.62,73.1985 105.954,69.8651 105.5,66.5C 104.704,60.1835 104.037,53.8502 103.5,47.5C 104.822,47.67 105.989,47.3366 107,46.5C 107.001,43.313 107.834,40.4797 109.5,38C 106.36,36.9996 105.027,34.8329 105.5,31.5C 106.833,31.5 108.167,31.5 109.5,31.5C 109.5,26.1667 109.5,20.8333 109.5,15.5C 110.833,15.5 112.167,15.5 113.5,15.5C 113.173,20.2137 113.507,24.8804 114.5,29.5C 115.328,25.2044 115.828,20.8711 116,16.5C 116.383,17.056 116.883,17.3893 117.5,17.5 Z"/></g>
<g><path style="opacity:1" fill="#0f113d" d="M 7.5,7.5 C 8.23891,7.36899 8.90558,7.53566 9.5,8C 8.42982,15.7717 8.42982,23.6051 9.5,31.5C 7.52109,26.4471 6.18775,21.1138 5.5,15.5C 4.96438,12.3019 5.63105,9.63528 7.5,7.5 Z"/></g>
<g><path style="opacity:1" fill="#1b1a29" d="M 95.5,15.5 C 97.2105,19.8807 97.8772,24.5474 97.5,29.5C 97.5,29.8333 97.5,30.1667 97.5,30.5C 97.5,31.8333 97.5,33.1667 97.5,34.5C 95.6185,38.5514 94.2852,42.8847 93.5,47.5C 94.1667,36.8333 94.8333,26.1667 95.5,15.5 Z"/></g>
<g><path style="opacity:1" fill="#8cafc4" d="M 160.5,21.5 C 160.833,21.5 161.167,21.5 161.5,21.5C 161.5,26.8333 161.5,32.1667 161.5,37.5C 160.29,37.0679 159.29,36.4013 158.5,35.5C 160.436,31.2853 161.103,26.6186 160.5,21.5 Z"/></g>
<g><path style="opacity:1" fill="#0e1e48" d="M 56.5,27.5 C 60.8535,31.5219 65.1869,35.5219 69.5,39.5C 70.4044,43.9548 71.071,48.4548 71.5,53C 70.6463,59.2961 69.313,65.4628 67.5,71.5C 66.1667,71.5 64.8333,71.5 63.5,71.5C 67.718,64.7419 69.8847,57.4085 70,49.5C 69.434,45.0354 67.7673,41.0354 65,37.5C 61.3329,34.9988 58.1662,31.9988 55.5,28.5C 55.5,27.8333 55.8333,27.5 56.5,27.5 Z"/></g>
<g><path style="opacity:1" fill="#253e8f" d="M 81.5,47.5 C 81.5,44.8333 81.5,42.1667 81.5,39.5C 78.9267,38.5075 76.26,37.6741 73.5,37C 74.1667,36.6667 74.8333,36.3333 75.5,36C 73.5273,35.5045 71.5273,35.3379 69.5,35.5C 69.5,36.8333 69.5,38.1667 69.5,39.5C 65.1869,35.5219 60.8535,31.5219 56.5,27.5C 58.8333,28.1667 61.1667,28.8333 63.5,29.5C 63.8333,29.5 64.1667,29.5 64.5,29.5C 68.6861,30.9185 73.0194,32.2518 77.5,33.5C 80.4621,30.6121 79.7954,29.2787 75.5,29.5C 75.5,28.8333 75.5,28.1667 75.5,27.5C 78.8097,27.539 81.4763,26.2057 83.5,23.5C 84.1476,25.2817 85.481,27.1151 87.5,29C 86.6721,29.9147 85.6721,30.5814 84.5,31C 85.0219,31.5613 85.3552,32.228 85.5,33C 84.5182,33.3808 83.8515,34.2141 83.5,35.5C 83.8178,36.6473 84.4844,37.4806 85.5,38C 84.2283,41.3173 82.895,44.484 81.5,47.5 Z"/></g>
<g><path style="opacity:1" fill="#1f1c35" d="M 75.5,29.5 C 79.7954,29.2787 80.4621,30.6121 77.5,33.5C 73.0194,32.2518 68.6861,30.9185 64.5,29.5C 65.3991,28.5285 66.5657,27.8618 68,27.5C 70.2702,28.8599 72.7702,29.5266 75.5,29.5 Z"/></g>
<g><path style="opacity:1" fill="#1e42ab" d="M 121.5,13.5 C 123.027,13.427 124.027,14.0937 124.5,15.5C 121.612,14.9898 119.279,15.6565 117.5,17.5C 116.883,17.3893 116.383,17.056 116,16.5C 115.828,20.8711 115.328,25.2044 114.5,29.5C 113.507,24.8804 113.173,20.2137 113.5,15.5C 112.167,15.5 110.833,15.5 109.5,15.5C 109.5,20.8333 109.5,26.1667 109.5,31.5C 108.167,31.5 106.833,31.5 105.5,31.5C 105.027,34.8329 106.36,36.9996 109.5,38C 107.834,40.4797 107.001,43.313 107,46.5C 105.989,47.3366 104.822,47.67 103.5,47.5C 103.664,44.8127 103.497,42.146 103,39.5C 102.667,39.8333 102.333,40.1667 102,40.5C 101.844,37.8091 101.011,35.4758 99.5,33.5C 99.5,32.8333 99.5,32.1667 99.5,31.5C 99.5,24.1667 99.5,16.8333 99.5,9.5C 106.508,9.33371 113.508,9.50038 120.5,10C 117.64,11.0761 114.64,11.9095 111.5,12.5C 114.768,13.487 118.102,13.8204 121.5,13.5 Z"/></g>
<g><path style="opacity:1" fill="#1c42a8" d="M 24.5,7.5 C 24.1024,9.53958 23.9358,11.5396 24,13.5C 24.6667,12.8333 25.3333,12.1667 26,11.5C 28.683,12.9275 30.8496,14.9275 32.5,17.5C 33.3253,21.1224 33.8253,24.789 34,28.5C 34.3333,28.1667 34.6667,27.8333 35,27.5C 35.6449,28.646 36.4783,29.646 37.5,30.5C 41.4454,31.4909 45.4454,31.8242 49.5,31.5C 49.1568,33.4832 49.8235,34.8166 51.5,35.5C 54.3126,36.4461 55.646,38.4461 55.5,41.5C 53.5,41.5 51.5,41.5 49.5,41.5C 49.7394,39.5328 49.4061,37.6995 48.5,36C 45.6213,35.1264 42.9546,35.4597 40.5,37C 42.744,37.0496 44.4107,37.8829 45.5,39.5C 43.6096,39.2965 42.1096,39.9632 41,41.5C 40.2904,40.0267 39.1238,39.3601 37.5,39.5C 37.5,40.8333 37.5,42.1667 37.5,43.5C 35.5,43.5 33.5,43.5 31.5,43.5C 31.0769,40.7118 32.0769,38.7118 34.5,37.5C 34.8333,38.1667 35.1667,38.8333 35.5,39.5C 36.4287,38.3112 36.762,36.9778 36.5,35.5C 33.0612,34.751 30.0612,33.0844 27.5,30.5C 25.6568,31.9387 23.9901,31.772 22.5,30C 24.7148,29.8295 26.7148,29.1628 28.5,28C 26.4021,28.9845 24.4021,28.6511 22.5,27C 23.5505,25.6152 24.8839,24.6152 26.5,24C 24.9512,22.786 23.7845,21.286 23,19.5C 21.6914,21.8912 20.6914,21.8912 20,19.5C 19.6905,20.7659 19.1905,21.9326 18.5,23C 19.8333,23.6667 21.1667,24.3333 22.5,25C 20.9352,26.8708 20.2685,28.7041 20.5,30.5C 17.247,26.8994 14.9137,23.2327 13.5,19.5C 13.3178,17.3254 12.6511,15.3254 11.5,13.5C 11.7481,10.9944 13.0814,9.32769 15.5,8.5C 18.4281,7.51592 21.4281,7.18259 24.5,7.5 Z"/></g>
<g><path style="opacity:1" fill="#2a4291" d="M 7.5,7.5 C 7.5,7.16667 7.5,6.83333 7.5,6.5C 23.6754,6.1703 39.6754,6.50364 55.5,7.5C 45.1667,7.5 34.8333,7.5 24.5,7.5C 21.4281,7.18259 18.4281,7.51592 15.5,8.5C 13.0814,9.32769 11.7481,10.9944 11.5,13.5C 12.6511,15.3254 13.3178,17.3254 13.5,19.5C 10.5808,39.5457 10.9141,59.5457 14.5,79.5C 15.4656,77.604 15.7989,75.604 15.5,73.5C 16.5,73.5 17.5,73.5 18.5,73.5C 17.2033,75.9929 16.2033,78.6596 15.5,81.5C 16.6155,82.5984 16.6155,83.7651 15.5,85C 15.6387,86.301 16.3054,87.1344 17.5,87.5C 22.6186,86.8969 27.2853,87.5636 31.5,89.5C 30.8166,91.1765 29.4832,91.8432 27.5,91.5C 27.5,92.5 27.5,93.5 27.5,94.5C 26.8333,94.8333 26.1667,95.1667 25.5,95.5C 25.3893,94.8826 25.056,94.3826 24.5,94C 22.1902,93.5034 19.8568,93.3367 17.5,93.5C 17.8134,96.2469 17.48,98.9135 16.5,101.5C 14.9029,93.6522 13.9029,93.6522 13.5,101.5C 13.5036,104.746 14.5036,107.579 16.5,110C 15.6433,110.689 14.9767,111.522 14.5,112.5C 15.4066,115.421 15.7399,118.421 15.5,121.5C 14.8333,120.833 14.1667,120.167 13.5,119.5C 12.4882,95.3282 11.1549,71.3282 9.5,47.5C 9.5,42.1667 9.5,36.8333 9.5,31.5C 8.42982,23.6051 8.42982,15.7717 9.5,8C 8.90558,7.53566 8.23891,7.36899 7.5,7.5 Z"/></g>
<g><path style="opacity:1" fill="#faf9fa" d="M 119.5,77.5 C 119.5,64.8333 119.5,52.1667 119.5,39.5C 121.473,38.5133 123.473,37.5133 125.5,36.5C 126.833,49.1667 126.833,61.8333 125.5,74.5C 123.473,75.5133 121.473,76.5133 119.5,77.5 Z"/></g>
<g><path style="opacity:1" fill="#284797" d="M 55.5,41.5 C 52.6197,43.4451 49.2864,44.7784 45.5,45.5C 45.0825,44.7784 44.4158,44.2784 43.5,44C 44.7932,43.51 46.1266,43.3433 47.5,43.5C 47.8432,41.5168 47.1765,40.1834 45.5,39.5C 44.4107,37.8829 42.744,37.0496 40.5,37C 42.9546,35.4597 45.6213,35.1264 48.5,36C 49.4061,37.6995 49.7394,39.5328 49.5,41.5C 51.5,41.5 53.5,41.5 55.5,41.5 Z"/></g>
<g><path style="opacity:1" fill="#1c2344" d="M 51.5,32.5 C 53.175,34.002 55.0083,35.3353 57,36.5C 58.3014,38.3646 58.6347,40.3646 58,42.5C 52.5021,44.7547 47.0021,47.088 41.5,49.5C 42.3696,47.7263 43.703,46.393 45.5,45.5C 49.2864,44.7784 52.6197,43.4451 55.5,41.5C 55.646,38.4461 54.3126,36.4461 51.5,35.5C 51.5,34.5 51.5,33.5 51.5,32.5 Z"/></g>
<g><path style="opacity:1" fill="#1e41a8" d="M 13.5,19.5 C 14.9137,23.2327 17.247,26.8994 20.5,30.5C 20.2685,28.7041 20.9352,26.8708 22.5,25C 21.1667,24.3333 19.8333,23.6667 18.5,23C 19.1905,21.9326 19.6905,20.7659 20,19.5C 20.6914,21.8912 21.6914,21.8912 23,19.5C 23.7845,21.286 24.9512,22.786 26.5,24C 24.8839,24.6152 23.5505,25.6152 22.5,27C 24.4021,28.6511 26.4021,28.9845 28.5,28C 26.7148,29.1628 24.7148,29.8295 22.5,30C 23.9901,31.772 25.6568,31.9387 27.5,30.5C 30.0612,33.0844 33.0612,34.751 36.5,35.5C 36.762,36.9778 36.4287,38.3112 35.5,39.5C 35.1667,38.8333 34.8333,38.1667 34.5,37.5C 32.0769,38.7118 31.0769,40.7118 31.5,43.5C 33.5,43.5 35.5,43.5 37.5,43.5C 37.5,42.1667 37.5,40.8333 37.5,39.5C 39.1238,39.3601 40.2904,40.0267 41,41.5C 42.1096,39.9632 43.6096,39.2965 45.5,39.5C 47.1765,40.1834 47.8432,41.5168 47.5,43.5C 46.1266,43.3433 44.7932,43.51 43.5,44C 44.4158,44.2784 45.0825,44.7784 45.5,45.5C 43.703,46.393 42.3696,47.7263 41.5,49.5C 37.7193,49.093 34.7193,50.4263 32.5,53.5C 30.2112,57.9116 27.5445,62.0783 24.5,66C 25.0944,66.4643 25.7611,66.631 26.5,66.5C 25.791,67.404 24.791,67.7373 23.5,67.5C 21.863,69.4752 20.1964,71.4752 18.5,73.5C 17.5,73.5 16.5,73.5 15.5,73.5C 15.7989,75.604 15.4656,77.604 14.5,79.5C 10.9141,59.5457 10.5808,39.5457 13.5,19.5 Z"/></g>
<g><path style="opacity:1" fill="#f2f4f6" d="M 55.5,17.5 C 55.1583,18.3382 54.4916,18.6716 53.5,18.5C 53.8039,19.1499 54.1373,19.8165 54.5,20.5C 50.8034,24.2182 51.1367,26.8849 55.5,28.5C 58.1662,31.9988 61.3329,34.9988 65,37.5C 67.7673,41.0354 69.434,45.0354 70,49.5C 69.8847,57.4085 67.718,64.7419 63.5,71.5C 63.5,71.8333 63.5,72.1667 63.5,72.5C 62.7784,72.0825 62.2784,71.4158 62,70.5C 61.5291,72.2464 60.8624,73.913 60,75.5C 59.6667,74.5 59.3333,73.5 59,72.5C 54.8885,79.7811 48.7218,84.1144 40.5,85.5C 40.2172,84.7109 39.7172,84.0442 39,83.5C 37.371,83.1637 35.871,83.8304 34.5,85.5C 34.4891,82.9991 33.8224,82.8324 32.5,85C 30.8333,85.6667 29.1667,85.6667 27.5,85C 33.4485,81.2685 39.7818,78.2685 46.5,76C 50.6932,71.56 54.6932,66.3933 58.5,60.5C 57.9344,59.7087 57.101,59.7087 56,60.5C 55.0546,60.0946 54.3879,59.428 54,58.5C 53.3109,59.3567 52.4776,60.0233 51.5,60.5C 50.9041,59.2839 50.7374,57.9506 51,56.5C 49.0317,60.2232 47.3651,60.2232 46,56.5C 44.0976,55.503 41.931,55.503 39.5,56.5C 41.1241,53.6416 40.4574,52.9749 37.5,54.5C 37.0825,53.7784 36.4158,53.2784 35.5,53C 37.7274,52.059 39.7274,50.8923 41.5,49.5C 47.0021,47.088 52.5021,44.7547 58,42.5C 58.6347,40.3646 58.3014,38.3646 57,36.5C 55.0083,35.3353 53.175,34.002 51.5,32.5C 48.8046,29.4744 46.1379,26.4744 43.5,23.5C 41.8136,19.726 42.8136,16.8927 46.5,15C 50.1421,13.9302 53.1421,14.7636 55.5,17.5 Z"/></g>
<g><path style="opacity:1" fill="#171b33" d="M 53.5,18.5 C 51.9557,18.7031 50.6223,19.3698 49.5,20.5C 48.354,19.8551 47.354,19.0217 46.5,18C 49.0385,17.2042 51.3718,17.3709 53.5,18.5 Z"/></g>
<g><path style="opacity:1" fill="#faf7f7" d="M 187.5,20.5 C 188.414,29.4793 189.247,38.4793 190,47.5C 190.5,48.5 191,49.5 191.5,50.5C 191.154,51.6956 190.654,51.6956 190,50.5C 189.833,52.6667 189.667,54.8333 189.5,57C 192.434,75.0739 192.101,93.2406 188.5,111.5C 187.505,106.208 187.172,100.875 187.5,95.5C 186.167,95.5 184.833,95.5 183.5,95.5C 183.5,90.1667 183.5,84.8333 183.5,79.5C 185.105,59.8503 186.439,40.1836 187.5,20.5 Z"/></g>
<g><path style="opacity:1" fill="#0c1433" d="M 97.5,30.5 C 98.1667,30.8333 98.8333,31.1667 99.5,31.5C 99.5,32.1667 99.5,32.8333 99.5,33.5C 100.331,44.8269 102.331,55.8269 105.5,66.5C 105.954,69.8651 106.62,73.1985 107.5,76.5C 107.64,78.0296 108.307,79.0296 109.5,79.5C 111.047,84.8035 112.381,90.1368 113.5,95.5C 112.883,95.3893 112.383,95.056 112,94.5C 107.859,84.2555 104.359,73.9222 101.5,63.5C 99.7942,53.8924 98.4608,44.2257 97.5,34.5C 97.5,33.1667 97.5,31.8333 97.5,30.5 Z"/></g>
<g><path style="opacity:1" fill="#2e458a" d="M 99.5,33.5 C 101.011,35.4758 101.844,37.8091 102,40.5C 102.333,40.1667 102.667,39.8333 103,39.5C 103.497,42.146 103.664,44.8127 103.5,47.5C 104.037,53.8502 104.704,60.1835 105.5,66.5C 102.331,55.8269 100.331,44.8269 99.5,33.5 Z"/></g>
<g><path style="opacity:1" fill="#f2eaf3" d="M 160.5,38.5 C 160.5,38.8333 160.5,39.1667 160.5,39.5C 157.915,50.8749 156.915,62.5416 157.5,74.5C 156.85,74.1961 156.183,73.8627 155.5,73.5C 154.334,60.8465 154.167,48.1798 155,35.5C 156.78,36.6394 158.614,37.6394 160.5,38.5 Z"/></g>
<g><path style="opacity:1" fill="#091638" d="M 124.5,15.5 C 124.5,16.1667 124.5,16.8333 124.5,17.5C 123.652,18.625 122.652,18.625 121.5,17.5C 121.19,16.2617 120.69,16.2617 120,17.5C 119.536,18.0944 119.369,18.7611 119.5,19.5C 119.5,20.5 119.5,21.5 119.5,22.5C 119.5,27.5 119.5,32.5 119.5,37.5C 119.5,38.1667 119.5,38.8333 119.5,39.5C 119.5,52.1667 119.5,64.8333 119.5,77.5C 119.5,77.8333 119.5,78.1667 119.5,78.5C 119.5,84.1667 119.5,89.8333 119.5,95.5C 118.094,95.0269 117.427,94.0269 117.5,92.5C 117.5,67.5 117.5,42.5 117.5,17.5C 119.279,15.6565 121.612,14.9898 124.5,15.5 Z"/></g>
<g><path style="opacity:1" fill="#2045ac" d="M 179.5,63.5 C 179.249,81.5189 178.582,99.5189 177.5,117.5C 178.069,121.329 177.402,124.663 175.5,127.5C 173.78,125.342 172.947,122.675 173,119.5C 172.5,120 172,120.5 171.5,121C 171.616,122.268 171.949,123.602 172.5,125C 171.861,129.121 171.195,133.287 170.5,137.5C 168.097,132.202 166.431,126.702 165.5,121C 165.581,118.375 166.248,116.041 167.5,114C 165.772,105.913 164.772,97.5798 164.5,89C 165.364,70.0212 165.697,50.8545 165.5,31.5C 165.172,26.1254 165.505,20.7921 166.5,15.5C 167.833,16.1667 168.833,17.1667 169.5,18.5C 168.289,19.7202 168.289,20.8869 169.5,22C 168.5,23 167.5,24 166.5,25C 167.449,25.6172 168.282,25.4506 169,24.5C 169.72,26.1124 169.554,27.6124 168.5,29C 169.167,29.3333 169.833,29.6667 170.5,30C 168.171,31.995 168.838,33.1616 172.5,33.5C 173.842,32.0977 174.676,32.4311 175,34.5C 176.818,32.3546 178.318,32.3546 179.5,34.5C 177.978,36.1563 178.311,37.323 180.5,38C 179.084,43.717 178.084,49.5503 177.5,55.5C 177.522,58.5902 178.188,61.2568 179.5,63.5 Z"/></g>
<g><path style="opacity:1" fill="#181823" d="M 41.5,49.5 C 39.7274,50.8923 37.7274,52.059 35.5,53C 36.4158,53.2784 37.0825,53.7784 37.5,54.5C 40.4574,52.9749 41.1241,53.6416 39.5,56.5C 41.931,55.503 44.0976,55.503 46,56.5C 47.3651,60.2232 49.0317,60.2232 51,56.5C 50.7374,57.9506 50.9041,59.2839 51.5,60.5C 52.4776,60.0233 53.3109,59.3567 54,58.5C 54.3879,59.428 55.0546,60.0946 56,60.5C 57.101,59.7087 57.9344,59.7087 58.5,60.5C 54.6932,66.3933 50.6932,71.56 46.5,76C 39.7818,78.2685 33.4485,81.2685 27.5,85C 29.1667,85.6667 30.8333,85.6667 32.5,85C 33.8224,82.8324 34.4891,82.9991 34.5,85.5C 31.8523,87.2565 32.1857,88.5899 35.5,89.5C 35.7709,91.3797 35.1042,92.713 33.5,93.5C 33.8432,91.5168 33.1765,90.1834 31.5,89.5C 27.2853,87.5636 22.6186,86.8969 17.5,87.5C 17.3285,85.5082 17.9951,83.8415 19.5,82.5C 19.2907,81.914 18.9574,81.414 18.5,81C 19.9007,80.5899 21.234,80.0899 22.5,79.5C 24.4304,78.2365 26.0971,76.5699 27.5,74.5C 26.6446,73.707 25.8113,74.0403 25,75.5C 24.6258,74.5838 24.1258,73.7504 23.5,73C 24.2524,72.3292 24.5858,71.4959 24.5,70.5C 26.0295,71.0668 27.5295,71.7334 29,72.5C 31.2575,69.7142 30.7575,69.0475 27.5,70.5C 27.1667,70.1667 26.8333,69.8333 26.5,69.5C 27.1667,68.5 27.8333,67.5 28.5,66.5C 28.0302,65.537 27.3635,65.537 26.5,66.5C 25.7611,66.631 25.0944,66.4643 24.5,66C 27.5445,62.0783 30.2112,57.9116 32.5,53.5C 34.7193,50.4263 37.7193,49.093 41.5,49.5 Z"/></g>
<g><path style="opacity:1" fill="#f4f7f8" d="M 52.5,61.5 C 53.675,61.281 54.675,61.6143 55.5,62.5C 50.762,68.0027 49.762,67.6694 52.5,61.5 Z"/></g>
<g><path style="opacity:1" fill="#f1f1f4" d="M 47.5,61.5 C 48.7887,60.4991 50.1221,60.6658 51.5,62C 46.3616,67.5648 45.0283,67.3982 47.5,61.5 Z"/></g>
<g><path style="opacity:1" fill="#f3eef6" d="M 47.5,61.5 C 40.5275,65.6759 40.0275,65.0093 46,59.5C 46.7172,60.0442 47.2172,60.7109 47.5,61.5 Z"/></g>
<g><path style="opacity:1" fill="#eef2f4" d="M 41.5,58.5 C 42.552,58.3505 43.552,58.5172 44.5,59C 42.7957,61.7568 40.4623,63.0901 37.5,63C 39.0414,61.6288 40.3747,60.1288 41.5,58.5 Z"/></g>
<g><path style="opacity:1" fill="#e7eef3" d="M 39.5,56.5 C 40.7065,57.8804 40.3731,59.0471 38.5,60C 36.9556,61.1871 35.2889,61.5205 33.5,61C 35.1137,58.8733 37.1137,57.3733 39.5,56.5 Z"/></g>
<g><path style="opacity:1" fill="#e3eaef" d="M 37.5,54.5 C 36.0009,57.5317 33.6676,59.0317 30.5,59C 32.2278,56.418 34.5611,54.918 37.5,54.5 Z"/></g>
<g><path style="opacity:1" fill="#dffafa" d="M 160.5,39.5 C 160.812,51.5803 160.479,63.5803 159.5,75.5C 158.508,75.6716 157.842,75.3382 157.5,74.5C 156.915,62.5416 157.915,50.8749 160.5,39.5 Z"/></g>
<g><path style="opacity:1" fill="#9ec3d6" d="M 160.5,38.5 C 160.833,38.5 161.167,38.5 161.5,38.5C 161.5,51.1667 161.5,63.8333 161.5,76.5C 160.508,76.6716 159.842,76.3382 159.5,75.5C 160.479,63.5803 160.812,51.5803 160.5,39.5C 160.5,39.1667 160.5,38.8333 160.5,38.5 Z"/></g>
<g><path style="opacity:1" fill="#17193d" d="M 23.5,67.5 C 23.9175,68.2216 24.5842,68.7216 25.5,69C 24.944,69.3826 24.6107,69.8826 24.5,70.5C 20.8324,72.2389 20.499,74.5722 23.5,77.5C 23.1373,78.1835 22.8039,78.8501 22.5,79.5C 21.234,80.0899 19.9007,80.5899 18.5,81C 18.9574,81.414 19.2907,81.914 19.5,82.5C 17.9951,83.8415 17.3285,85.5082 17.5,87.5C 16.3054,87.1344 15.6387,86.301 15.5,85C 16.6155,83.7651 16.6155,82.5984 15.5,81.5C 16.2033,78.6596 17.2033,75.9929 18.5,73.5C 20.1964,71.4752 21.863,69.4752 23.5,67.5 Z"/></g>
<g><path style="opacity:1" fill="#e5e6ed" d="M 24.5,70.5 C 24.6107,69.8826 24.944,69.3826 25.5,69C 24.5842,68.7216 23.9175,68.2216 23.5,67.5C 24.791,67.7373 25.791,67.404 26.5,66.5C 27.3635,65.537 28.0302,65.537 28.5,66.5C 27.8333,67.5 27.1667,68.5 26.5,69.5C 26.8333,69.8333 27.1667,70.1667 27.5,70.5C 30.7575,69.0475 31.2575,69.7142 29,72.5C 27.5295,71.7334 26.0295,71.0668 24.5,70.5 Z"/></g>
<g><path style="opacity:1" fill="#bfc2cc" d="M 31.5,75.5 C 31.4142,74.5041 31.7476,73.6708 32.5,73C 31.8333,72.6667 31.1667,72.3333 30.5,72C 32.4211,71.6397 34.0878,70.8064 35.5,69.5C 35.8333,69.6667 36.1667,69.8333 36.5,70C 32.9274,73.9633 33.7608,74.4633 39,71.5C 39.3879,72.428 40.0546,73.0946 41,73.5C 42.6565,72.5159 44.3232,71.5159 46,70.5C 46.3742,71.4162 46.8742,72.2496 47.5,73C 42.7599,73.6852 38.5933,75.5185 35,78.5C 34.4926,77.0039 34.9926,75.8373 36.5,75C 34.735,74.3603 33.0683,74.5269 31.5,75.5 Z"/></g>
<g><path style="opacity:1" fill="#646872" d="M 24.5,70.5 C 24.5858,71.4959 24.2524,72.3292 23.5,73C 24.1258,73.7504 24.6258,74.5838 25,75.5C 25.8113,74.0403 26.6446,73.707 27.5,74.5C 26.0971,76.5699 24.4304,78.2365 22.5,79.5C 22.8039,78.8501 23.1373,78.1835 23.5,77.5C 20.499,74.5722 20.8324,72.2389 24.5,70.5 Z"/></g>
<g><path style="opacity:1" fill="#11122d" d="M 93.5,47.5 C 91.2273,63.9756 86.5606,79.6422 79.5,94.5C 82.5027,84.1664 85.6693,73.833 89,63.5C 89.6103,60.1727 90.1103,56.8394 90.5,53.5C 90.9397,51.1561 91.9397,49.1561 93.5,47.5 Z"/></g>
<g><path style="opacity:1" fill="#1c40ad" d="M 81.5,47.5 C 81.5,49.1667 81.5,50.8333 81.5,52.5C 80.1779,52.33 79.0113,52.6634 78,53.5C 77.8372,56.4852 77.6705,59.3186 77.5,62C 79.6929,66.2148 80.0262,70.5481 78.5,75C 79.0779,76.417 80.0779,77.2504 81.5,77.5C 80.4181,79.3386 79.5847,81.3386 79,83.5C 78.6667,82.8333 78.3333,82.1667 78,81.5C 77.7104,83.0441 77.0437,84.3774 76,85.5C 75.2214,83.1929 75.7214,81.1929 77.5,79.5C 77.1543,78.3044 76.6543,78.3044 76,79.5C 75.3333,78.1667 75.3333,76.8333 76,75.5C 76.3333,76.1667 76.6667,76.8333 77,77.5C 77.966,73.8823 77.466,70.549 75.5,67.5C 76.09,66.2011 77.09,65.3678 78.5,65C 77.1279,64.5983 75.7946,64.0983 74.5,63.5C 73.8333,56.1667 73.1667,48.8333 72.5,41.5C 71.7348,40.3881 70.7348,39.7214 69.5,39.5C 69.5,38.1667 69.5,36.8333 69.5,35.5C 71.5273,35.3379 73.5273,35.5045 75.5,36C 74.8333,36.3333 74.1667,36.6667 73.5,37C 76.26,37.6741 78.9267,38.5075 81.5,39.5C 81.5,42.1667 81.5,44.8333 81.5,47.5 Z"/></g>
<g><path style="opacity:1" fill="#aca5b8" d="M 31.5,75.5 C 30.9688,77.5441 29.8022,79.2107 28,80.5C 28.0768,78.2285 29.2435,76.5618 31.5,75.5 Z"/></g>
<g><path style="opacity:1" fill="#191b3c" d="M 63.5,72.5 C 62.588,74.5952 61.4213,76.5952 60,78.5C 56.1551,79.8334 52.6551,81.8334 49.5,84.5C 48.1468,85.5237 47.4802,86.857 47.5,88.5C 46.1984,89.8069 44.865,89.8069 43.5,88.5C 42.0499,89.8498 41.3832,91.5165 41.5,93.5C 40.8333,93.5 40.1667,93.5 39.5,93.5C 40.9864,90.6286 39.9864,89.2953 36.5,89.5C 37.5,87.8333 38.8333,86.5 40.5,85.5C 48.7218,84.1144 54.8885,79.7811 59,72.5C 59.3333,73.5 59.6667,74.5 60,75.5C 60.8624,73.913 61.5291,72.2464 62,70.5C 62.2784,71.4158 62.7784,72.0825 63.5,72.5 Z"/></g>
<g><path style="opacity:1" fill="#f4f9f8" d="M 4.5,15.5 C 4.83333,15.5 5.16667,15.5 5.5,15.5C 6.22565,52.2546 8.22565,88.9212 11.5,125.5C 11.631,126.239 11.4643,126.906 11,127.5C 10.3333,126.167 9.66667,126.167 9,127.5C 7.49472,125.702 7.32806,123.868 8.5,122C 1.65546,113.411 -0.0112077,103.911 3.5,93.5C 1.96559,89.6619 1.13225,85.6619 1,81.5C 0.721579,82.4158 0.221579,83.0825 -0.5,83.5C -0.5,66.1667 -0.5,48.8333 -0.5,31.5C 1.44613,26.6042 2.1128,21.2709 1.5,15.5C 2.5,15.5 3.5,15.5 4.5,15.5 Z"/></g>
<g><path style="opacity:1" fill="#f6f2f4" d="M 151.5,74.5 C 149.551,86.5835 148.884,98.9168 149.5,111.5C 148.167,111.5 146.833,111.5 145.5,111.5C 145.5,109.167 145.5,106.833 145.5,104.5C 147.45,99.2649 148.117,93.5982 147.5,87.5C 142.833,87.5 138.167,87.5 133.5,87.5C 133.5,93.1667 133.5,98.8333 133.5,104.5C 136.833,104.5 140.167,104.5 143.5,104.5C 143.5,106.167 143.5,107.833 143.5,109.5C 139.985,109.288 136.652,109.288 133.5,109.5C 135.347,114.02 138.013,118.02 141.5,121.5C 141.006,123.917 139.672,125.584 137.5,126.5C 134.253,122.341 131.253,118.008 128.5,113.5C 128.5,100.5 128.5,87.5 128.5,74.5C 136.167,74.5 143.833,74.5 151.5,74.5 Z"/></g>
<g><path style="opacity:1" fill="#23419e" d="M 63.5,71.5 C 64.8333,71.5 66.1667,71.5 67.5,71.5C 66.5549,72.9928 65.5549,74.4928 64.5,76C 65.1958,78.4067 65.5291,80.7401 65.5,83C 64.8742,83.7504 64.3742,84.5838 64,85.5C 63.2825,84.5494 62.4491,84.3828 61.5,85C 63.0368,86.1096 63.7035,87.6096 63.5,89.5C 64.8221,89.67 65.9887,89.3366 67,88.5C 66.4048,90.5479 66.9048,92.5479 68.5,94.5C 67.9851,96.2251 67.3184,97.8917 66.5,99.5C 63.4246,101.28 61.7579,103.947 61.5,107.5C 60.8333,107.5 60.1667,107.5 59.5,107.5C 56.8267,105.87 54.8267,103.537 53.5,100.5C 51.604,99.5344 49.604,99.2011 47.5,99.5C 47.5,98.1667 46.8333,97.5 45.5,97.5C 45.5578,94.3356 46.2245,91.3356 47.5,88.5C 47.4802,86.857 48.1468,85.5237 49.5,84.5C 52.6551,81.8334 56.1551,79.8334 60,78.5C 61.4213,76.5952 62.588,74.5952 63.5,72.5C 63.5,72.1667 63.5,71.8333 63.5,71.5 Z"/></g>
<g><path style="opacity:1" fill="#1b281d" d="M 99.5,87.5 C 98.5178,86.8592 97.5178,86.1925 96.5,85.5C 92.8647,88.6339 89.3647,91.9672 86,95.5C 85.7918,100.123 87.9585,102.79 92.5,103.5C 84.9324,103.387 82.5991,99.7208 85.5,92.5C 89.757,89.7492 93.5903,86.4158 97,82.5C 98.0945,84.0779 98.9278,85.7446 99.5,87.5 Z"/></g>
<g><path style="opacity:1" fill="#797387" d="M 40.5,85.5 C 38.8333,86.5 37.5,87.8333 36.5,89.5C 36.1667,89.5 35.8333,89.5 35.5,89.5C 32.1857,88.5899 31.8523,87.2565 34.5,85.5C 35.871,83.8304 37.371,83.1637 39,83.5C 39.7172,84.0442 40.2172,84.7109 40.5,85.5 Z"/></g>
<g><path style="opacity:1" fill="#f6f9f8" d="M 125.5,107.5 C 123.896,103.25 121.896,99.25 119.5,95.5C 119.5,89.8333 119.5,84.1667 119.5,78.5C 121.84,77.914 124.007,76.914 126,75.5C 126.825,86.3414 126.659,97.008 125.5,107.5 Z"/></g>
<g><path style="opacity:1" fill="#2746a0" d="M 69.5,39.5 C 70.7348,39.7214 71.7348,40.3881 72.5,41.5C 73.1667,48.8333 73.8333,56.1667 74.5,63.5C 75.7946,64.0983 77.1279,64.5983 78.5,65C 77.09,65.3678 76.09,66.2011 75.5,67.5C 77.466,70.549 77.966,73.8823 77,77.5C 76.6667,76.8333 76.3333,76.1667 76,75.5C 75.3333,76.8333 75.3333,78.1667 76,79.5C 76.6543,78.3044 77.1543,78.3044 77.5,79.5C 75.7214,81.1929 75.2214,83.1929 76,85.5C 77.0437,84.3774 77.7104,83.0441 78,81.5C 78.3333,82.1667 78.6667,82.8333 79,83.5C 79.5847,81.3386 80.4181,79.3386 81.5,77.5C 84.4989,69.5079 87.4989,61.5079 90.5,53.5C 90.1103,56.8394 89.6103,60.1727 89,63.5C 85.6693,73.833 82.5027,84.1664 79.5,94.5C 79.5,94.8333 79.5,95.1667 79.5,95.5C 78.5041,95.4142 77.6708,95.7476 77,96.5C 74.5983,102.973 71.4316,108.973 67.5,114.5C 67.1924,112.076 67.5258,109.743 68.5,107.5C 70.9705,104.049 73.3039,100.549 75.5,97C 72.3207,96.4033 69.9874,94.7367 68.5,92C 69.2529,90.513 70.0862,90.3463 71,91.5C 71.4536,89.4636 72.2869,87.6303 73.5,86C 72.3114,84.1052 71.3114,82.1052 70.5,80C 71.8333,80 73.1667,80 74.5,80C 72.1993,77.9967 72.1993,76.1633 74.5,74.5C 73.1667,73.5 73.1667,72.5 74.5,71.5C 74.3333,71.1667 74.1667,70.8333 74,70.5C 71.8132,73.4356 69.6466,73.7689 67.5,71.5C 69.313,65.4628 70.6463,59.2961 71.5,53C 71.071,48.4548 70.4044,43.9548 69.5,39.5 Z"/></g>
<g><path style="opacity:1" fill="#161118" d="M 128.5,13.5 C 128.5,14.5 128.5,15.5 128.5,16.5C 128.5,17.1667 128.5,17.8333 128.5,18.5C 128.5,23.5 128.5,28.5 128.5,33.5C 136.5,33.5 144.5,33.5 152.5,33.5C 152.5,28.5 152.5,23.5 152.5,18.5C 146.167,18.5 139.833,18.5 133.5,18.5C 135.5,17.8333 137.5,17.1667 139.5,16.5C 140.5,16.5 141.5,16.5 142.5,16.5C 142.5,15.5 142.5,14.5 142.5,13.5C 143.642,15.9717 145.642,16.9717 148.5,16.5C 148.263,15.209 148.596,14.209 149.5,13.5C 149.5,14.5 149.5,15.5 149.5,16.5C 150.5,16.5 151.5,16.5 152.5,16.5C 152.5,15.5 152.5,14.5 152.5,13.5C 153.5,13.5 154.5,13.5 155.5,13.5C 157.142,15.0808 159.142,15.7475 161.5,15.5C 161.5,15.8333 161.5,16.1667 161.5,16.5C 158.833,17.5 158.833,18.5 161.5,19.5C 161.5,20.1667 161.5,20.8333 161.5,21.5C 161.167,21.5 160.833,21.5 160.5,21.5C 158.852,20.2228 157.018,19.2228 155,18.5C 154.333,23.5 154.333,28.5 155,33.5C 156.113,34.305 157.279,34.9717 158.5,35.5C 159.29,36.4013 160.29,37.0679 161.5,37.5C 161.5,37.8333 161.5,38.1667 161.5,38.5C 161.167,38.5 160.833,38.5 160.5,38.5C 158.614,37.6394 156.78,36.6394 155,35.5C 154.167,48.1798 154.334,60.8465 155.5,73.5C 156.183,73.8627 156.85,74.1961 157.5,74.5C 157.842,75.3382 158.508,75.6716 159.5,75.5C 159.842,76.3382 160.508,76.6716 161.5,76.5C 161.5,77.1667 161.5,77.8333 161.5,78.5C 161.167,78.5 160.833,78.5 160.5,78.5C 159.5,77.8333 158.5,77.1667 157.5,76.5C 156.85,76.1961 156.183,75.8627 155.5,75.5C 154.5,98.8238 154.167,122.157 154.5,145.5C 153.833,145.5 153.5,145.167 153.5,144.5C 153.831,120.994 153.498,97.6607 152.5,74.5C 152.167,74.5 151.833,74.5 151.5,74.5C 143.833,74.5 136.167,74.5 128.5,74.5C 128.5,87.5 128.5,100.5 128.5,113.5C 128.167,113.5 127.833,113.5 127.5,113.5C 126.28,111.718 125.614,109.718 125.5,107.5C 126.659,97.008 126.825,86.3414 126,75.5C 124.007,76.914 121.84,77.914 119.5,78.5C 119.5,78.1667 119.5,77.8333 119.5,77.5C 121.473,76.5133 123.473,75.5133 125.5,74.5C 126.833,61.8333 126.833,49.1667 125.5,36.5C 123.473,37.5133 121.473,38.5133 119.5,39.5C 119.5,38.8333 119.5,38.1667 119.5,37.5C 121.473,36.5133 123.473,35.5133 125.5,34.5C 126.663,29.1977 126.829,23.8643 126,18.5C 123.948,20.0585 121.781,21.3918 119.5,22.5C 119.5,21.5 119.5,20.5 119.5,19.5C 120.833,19.5 121.5,18.8333 121.5,17.5C 122.652,18.625 123.652,18.625 124.5,17.5C 125.833,17.5 126.5,16.8333 126.5,15.5C 127.167,14.8333 127.833,14.1667 128.5,13.5 Z"/></g>
<g><path style="opacity:1" fill="#f2f3f4" d="M 128.5,35.5 C 136.833,35.5 145.167,35.5 153.5,35.5C 153.667,47.8378 153.5,60.1712 153,72.5C 144.919,73.4825 136.752,73.8158 128.5,73.5C 128.5,60.8333 128.5,48.1667 128.5,35.5 Z"/></g>
<g><path style="opacity:1" fill="#151313" d="M 133.5,50.5 C 138.167,50.5 142.833,50.5 147.5,50.5C 147.5,56.1667 147.5,61.8333 147.5,67.5C 142.833,67.5 138.167,67.5 133.5,67.5C 133.5,61.8333 133.5,56.1667 133.5,50.5 Z"/></g>
<g><path style="opacity:1" fill="#fafafa" d="M 135.5,51.5 C 138.5,51.5 141.5,51.5 144.5,51.5C 144.5,55.8333 144.5,60.1667 144.5,64.5C 141.5,64.5 138.5,64.5 135.5,64.5C 135.5,60.1667 135.5,55.8333 135.5,51.5 Z"/></g>
<g><path style="opacity:1" fill="#f9fafb" d="M 128.5,18.5 C 130.167,18.5 131.833,18.5 133.5,18.5C 139.833,18.5 146.167,18.5 152.5,18.5C 152.5,23.5 152.5,28.5 152.5,33.5C 144.5,33.5 136.5,33.5 128.5,33.5C 128.5,28.5 128.5,23.5 128.5,18.5 Z"/></g>
<g><path style="opacity:1" fill="#f3f5fe" d="M 142.5,13.5 C 142.5,14.5 142.5,15.5 142.5,16.5C 141.5,16.5 140.5,16.5 139.5,16.5C 138.596,15.791 138.263,14.791 138.5,13.5C 139.833,13.5 141.167,13.5 142.5,13.5 Z"/></g>
<g><path style="opacity:1" fill="#f1f3fc" d="M 149.5,13.5 C 150.5,13.5 151.5,13.5 152.5,13.5C 152.5,14.5 152.5,15.5 152.5,16.5C 151.5,16.5 150.5,16.5 149.5,16.5C 149.5,15.5 149.5,14.5 149.5,13.5 Z"/></g>
<g><path style="opacity:1" fill="#f3f8fd" d="M 128.5,13.5 C 129.5,13.5 130.5,13.5 131.5,13.5C 131.5,14.5 131.5,15.5 131.5,16.5C 130.5,16.5 129.5,16.5 128.5,16.5C 128.5,15.5 128.5,14.5 128.5,13.5 Z"/></g>
<g><path style="opacity:1" fill="#541a32" d="M 47.5,88.5 C 46.2245,91.3356 45.5578,94.3356 45.5,97.5C 44.8333,97.5 44.1667,97.5 43.5,97.5C 43.8432,95.5168 43.1765,94.1834 41.5,93.5C 41.3832,91.5165 42.0499,89.8498 43.5,88.5C 44.865,89.8069 46.1984,89.8069 47.5,88.5 Z"/></g>
<g><path style="opacity:1" fill="#0c1239" d="M 9.5,47.5 C 11.1549,71.3282 12.4882,95.3282 13.5,119.5C 11.8524,111.875 10.8524,103.875 10.5,95.5C 9.50058,79.5139 9.16724,63.5139 9.5,47.5 Z"/></g>
<g><path style="opacity:1" fill="#78293a" d="M 31.5,89.5 C 33.1765,90.1834 33.8432,91.5168 33.5,93.5C 33.5,94.8333 33.5,96.1667 33.5,97.5C 32.0568,96.6649 31.0568,95.3316 30.5,93.5C 29.5344,95.396 29.2011,97.396 29.5,99.5C 27.744,98.4479 27.0773,96.7812 27.5,94.5C 27.5,93.5 27.5,92.5 27.5,91.5C 29.4832,91.8432 30.8166,91.1765 31.5,89.5 Z"/></g>
<g><path style="opacity:1" fill="#234384" d="M 35.5,89.5 C 35.8333,89.5 36.1667,89.5 36.5,89.5C 39.9864,89.2953 40.9864,90.6286 39.5,93.5C 37.8235,94.1834 37.1568,95.5168 37.5,97.5C 36.1667,97.5 34.8333,97.5 33.5,97.5C 33.5,96.1667 33.5,94.8333 33.5,93.5C 35.1042,92.713 35.7709,91.3797 35.5,89.5 Z"/></g>
<g><path style="opacity:1" fill="#ba2b34" d="M 39.5,93.5 C 40.1667,93.5 40.8333,93.5 41.5,93.5C 43.1765,94.1834 43.8432,95.5168 43.5,97.5C 42.1667,97.5 40.8333,97.5 39.5,97.5C 39.5,96.1667 39.5,94.8333 39.5,93.5 Z"/></g>
<g><path style="opacity:1" fill="#0f1812" d="M 99.5,87.5 C 106.19,89.3498 109.023,93.6832 108,100.5C 107.292,101.381 106.458,102.047 105.5,102.5C 107.1,100.429 107.6,98.0953 107,95.5C 104.53,92.7089 102.03,90.0422 99.5,87.5 Z"/></g>
<g><path style="opacity:1" fill="#081632" d="M 113.5,95.5 C 116.671,97.5189 118.004,100.519 117.5,104.5C 115.375,101.912 114.042,98.9122 113.5,95.5 Z"/></g>
<g><path style="opacity:1" fill="#30593f" d="M 99.5,87.5 C 102.03,90.0422 104.53,92.7089 107,95.5C 107.6,98.0953 107.1,100.429 105.5,102.5C 102.348,103.041 99.8484,102.041 98,99.5C 97.3544,110.577 96.1878,110.91 94.5,100.5C 94.6692,102.764 94.3358,105.097 93.5,107.5C 93.7678,105.901 93.4345,104.568 92.5,103.5C 87.9585,102.79 85.7918,100.123 86,95.5C 89.3647,91.9672 92.8647,88.6339 96.5,85.5C 97.5178,86.1925 98.5178,86.8592 99.5,87.5 Z"/></g>
<g><path style="opacity:1" fill="#32448c" d="M 109.5,79.5 C 110.822,79.33 111.989,79.6634 113,80.5C 113.298,85.0065 114.298,89.3399 116,93.5C 116.383,92.944 116.883,92.6107 117.5,92.5C 117.427,94.0269 118.094,95.0269 119.5,95.5C 119.956,100.413 121.956,104.413 125.5,107.5C 125.614,109.718 126.28,111.718 127.5,113.5C 130.504,118.843 133.504,124.177 136.5,129.5C 139.848,132.851 142.848,136.518 145.5,140.5C 146.94,141.952 148.606,142.952 150.5,143.5C 151.167,143.5 151.5,143.833 151.5,144.5C 153.896,149.106 157.563,151.273 162.5,151C 162.642,147.379 162.642,143.545 162.5,139.5C 163.461,141.265 163.795,143.265 163.5,145.5C 165.718,145.386 167.718,144.72 169.5,143.5C 167.824,148.016 165.49,152.182 162.5,156C 161.5,156.667 160.5,156.667 159.5,156C 157.264,153.716 154.598,152.216 151.5,151.5C 151.5,150.167 151.5,148.833 151.5,147.5C 150.022,147.762 148.689,147.429 147.5,146.5C 145.847,144.351 143.847,142.684 141.5,141.5C 138.916,135.923 135.249,131.257 130.5,127.5C 129.662,127.158 129.328,126.492 129.5,125.5C 128.704,121.323 126.871,117.657 124,114.5C 122.727,112.286 121.727,109.953 121,107.5C 120.184,106.177 119.017,105.511 117.5,105.5C 117.5,105.167 117.5,104.833 117.5,104.5C 118.004,100.519 116.671,97.5189 113.5,95.5C 112.381,90.1368 111.047,84.8035 109.5,79.5 Z"/></g>
<g><path style="opacity:1" fill="#bc2b2a" d="M 33.5,97.5 C 33.5,97.8333 33.5,98.1667 33.5,98.5C 33.5,99.8333 32.8333,100.5 31.5,100.5C 31.1583,99.6618 30.4916,99.3284 29.5,99.5C 29.2011,97.396 29.5344,95.396 30.5,93.5C 31.0568,95.3316 32.0568,96.6649 33.5,97.5 Z"/></g>
<g><path style="opacity:1" fill="#2b0e14" d="M 39.5,93.5 C 39.5,94.8333 39.5,96.1667 39.5,97.5C 40.8333,97.5 42.1667,97.5 43.5,97.5C 44.1667,97.5 44.8333,97.5 45.5,97.5C 46.8333,97.5 47.5,98.1667 47.5,99.5C 42.7858,99.6469 38.1191,99.3136 33.5,98.5C 33.5,98.1667 33.5,97.8333 33.5,97.5C 34.8333,97.5 36.1667,97.5 37.5,97.5C 37.1568,95.5168 37.8235,94.1834 39.5,93.5 Z"/></g>
<g><path style="opacity:1" fill="#f5f5f6" d="M 97.5,34.5 C 98.4608,44.2257 99.7942,53.8924 101.5,63.5C 99.9642,61.9749 98.9642,59.9749 98.5,57.5C 96.6745,58.5709 95.5079,57.9042 95,55.5C 94.6667,55.8333 94.3333,56.1667 94,56.5C 93.6667,62.5 93.3333,68.5 93,74.5C 91.4947,76.2983 91.3281,78.1316 92.5,80C 91.0179,85.4871 87.6846,89.4871 82.5,92C 83.448,92.4828 84.448,92.6495 85.5,92.5C 82.5991,99.7208 84.9324,103.387 92.5,103.5C 93.4345,104.568 93.7678,105.901 93.5,107.5C 93.5,108.167 93.5,108.833 93.5,109.5C 95.7258,111.525 98.2258,112.191 101,111.5C 102.188,112.563 102.688,113.897 102.5,115.5C 100.339,115.174 98.5059,114.174 97,112.5C 96.8348,114.678 97.6682,116.511 99.5,118C 98.8742,118.75 98.3742,119.584 98,120.5C 95.9129,119.603 93.7463,118.936 91.5,118.5C 87.9135,116.42 84.7468,113.754 82,110.5C 81.5357,111.094 81.369,111.761 81.5,112.5C 77.5528,114.945 74.0528,117.945 71,121.5C 70.3333,123.833 70.3333,126.167 71,128.5C 71.7083,129.381 72.5416,130.047 73.5,130.5C 73.8417,131.338 74.5084,131.672 75.5,131.5C 76.8221,131.67 77.9887,131.337 79,130.5C 79.49,131.793 79.6567,133.127 79.5,134.5C 77.6208,135.341 75.6208,135.675 73.5,135.5C 73.5,137.5 73.5,139.5 73.5,141.5C 72.209,141.263 71.209,141.596 70.5,142.5C 70.1667,142.5 69.8333,142.5 69.5,142.5C 67.831,140.491 66.1643,138.491 64.5,136.5C 61.5059,140.082 58.0059,143.082 54,145.5C 51.3833,150.422 52.2166,154.422 56.5,157.5C 55.5041,157.414 54.6708,157.748 54,158.5C 52.1295,156.781 49.9628,155.781 47.5,155.5C 47.1156,153.071 46.449,150.737 45.5,148.5C 48.1667,145.167 50.8333,141.833 53.5,138.5C 55.5869,137.415 56.9202,135.749 57.5,133.5C 66.8777,122.086 74.211,109.419 79.5,95.5C 79.5,95.1667 79.5,94.8333 79.5,94.5C 86.5606,79.6422 91.2273,63.9756 93.5,47.5C 94.2852,42.8847 95.6185,38.5514 97.5,34.5 Z"/></g>
<g><path style="opacity:1" fill="#191918" d="M 145.5,104.5 C 144.833,104.5 144.167,104.5 143.5,104.5C 140.167,104.5 136.833,104.5 133.5,104.5C 133.5,98.8333 133.5,93.1667 133.5,87.5C 138.167,87.5 142.833,87.5 147.5,87.5C 148.117,93.5982 147.45,99.2649 145.5,104.5 Z"/></g>
<g><path style="opacity:1" fill="#eeeeee" d="M 134.5,88.5 C 137.833,88.5 141.167,88.5 144.5,88.5C 144.5,92.8333 144.5,97.1667 144.5,101.5C 141.223,101.784 138.057,101.451 135,100.5C 134.501,96.5138 134.334,92.5138 134.5,88.5 Z"/></g>
<g><path style="opacity:1" fill="#305198" d="M 181.5,31.5 C 182.167,31.5 182.833,31.5 183.5,31.5C 181.452,58.1263 180.119,84.793 179.5,111.5C 178.952,113.626 178.285,115.626 177.5,117.5C 178.582,99.5189 179.249,81.5189 179.5,63.5C 180.643,52.9463 181.309,42.2796 181.5,31.5 Z"/></g>
<g><path style="opacity:1" fill="#39264d" d="M 27.5,94.5 C 27.0773,96.7812 27.744,98.4479 29.5,99.5C 30.4916,99.3284 31.1583,99.6618 31.5,100.5C 31.5,100.833 31.5,101.167 31.5,101.5C 29.5,101.5 27.5,101.5 25.5,101.5C 25.5,99.5 25.5,97.5 25.5,95.5C 26.1667,95.1667 26.8333,94.8333 27.5,94.5 Z"/></g>
<g><path style="opacity:1" fill="#040d44" d="M 161.5,15.5 C 161.833,15.5 162.167,15.5 162.5,15.5C 162.5,56.8333 162.5,98.1667 162.5,139.5C 162.642,143.545 162.642,147.379 162.5,151C 157.563,151.273 153.896,149.106 151.5,144.5C 152.167,144.5 152.833,144.5 153.5,144.5C 153.5,145.167 153.833,145.5 154.5,145.5C 155.585,147.587 157.251,148.92 159.5,149.5C 159.56,150.043 159.893,150.376 160.5,150.5C 161.5,126.509 161.833,102.509 161.5,78.5C 161.5,77.8333 161.5,77.1667 161.5,76.5C 161.5,63.8333 161.5,51.1667 161.5,38.5C 161.5,38.1667 161.5,37.8333 161.5,37.5C 161.5,32.1667 161.5,26.8333 161.5,21.5C 161.5,20.8333 161.5,20.1667 161.5,19.5C 161.5,18.5 161.5,17.5 161.5,16.5C 161.5,16.1667 161.5,15.8333 161.5,15.5 Z"/></g>
<g><path style="opacity:1" fill="#1f41aa" d="M 67.5,114.5 C 66.213,113.232 65.213,113.565 64.5,115.5C 64.0358,113.025 63.0358,111.025 61.5,109.5C 61.5,108.833 61.5,108.167 61.5,107.5C 61.7579,103.947 63.4246,101.28 66.5,99.5C 67.3184,97.8917 67.9851,96.2251 68.5,94.5C 66.9048,92.5479 66.4048,90.5479 67,88.5C 65.9887,89.3366 64.8221,89.67 63.5,89.5C 63.7035,87.6096 63.0368,86.1096 61.5,85C 62.4491,84.3828 63.2825,84.5494 64,85.5C 64.3742,84.5838 64.8742,83.7504 65.5,83C 65.5291,80.7401 65.1958,78.4067 64.5,76C 65.5549,74.4928 66.5549,72.9928 67.5,71.5C 69.6466,73.7689 71.8132,73.4356 74,70.5C 74.1667,70.8333 74.3333,71.1667 74.5,71.5C 73.1667,72.5 73.1667,73.5 74.5,74.5C 72.1993,76.1633 72.1993,77.9967 74.5,80C 73.1667,80 71.8333,80 70.5,80C 71.3114,82.1052 72.3114,84.1052 73.5,86C 72.2869,87.6303 71.4536,89.4636 71,91.5C 70.0862,90.3463 69.2529,90.513 68.5,92C 69.9874,94.7367 72.3207,96.4033 75.5,97C 73.3039,100.549 70.9705,104.049 68.5,107.5C 67.5258,109.743 67.1924,112.076 67.5,114.5 Z"/></g>
<g><path style="opacity:1" fill="#13192f" d="M 119.5,95.5 C 121.896,99.25 123.896,103.25 125.5,107.5C 121.956,104.413 119.956,100.413 119.5,95.5 Z"/></g>
<g><path style="opacity:1" fill="#2e469b" d="M 162.5,15.5 C 162.856,21.077 163.856,26.4104 165.5,31.5C 165.697,50.8545 165.364,70.0212 164.5,89C 164.772,97.5798 165.772,105.913 167.5,114C 166.248,116.041 165.581,118.375 165.5,121C 166.431,126.702 168.097,132.202 170.5,137.5C 171.195,133.287 171.861,129.121 172.5,125C 171.949,123.602 171.616,122.268 171.5,121C 172,120.5 172.5,120 173,119.5C 172.947,122.675 173.78,125.342 175.5,127.5C 174.386,133.382 172.386,138.715 169.5,143.5C 167.718,144.72 165.718,145.386 163.5,145.5C 163.795,143.265 163.461,141.265 162.5,139.5C 162.5,98.1667 162.5,56.8333 162.5,15.5 Z"/></g>
<g><path style="opacity:1" fill="#060f08" d="M 105.5,102.5 C 103.44,103.811 101.274,103.811 99,102.5C 98.5034,104.81 98.3367,107.143 98.5,109.5C 96.8333,109.5 95.1667,109.5 93.5,109.5C 93.5,108.833 93.5,108.167 93.5,107.5C 94.3358,105.097 94.6692,102.764 94.5,100.5C 96.1878,110.91 97.3544,110.577 98,99.5C 99.8484,102.041 102.348,103.041 105.5,102.5 Z"/></g>
<g><path style="opacity:1" fill="#f4f6f6" d="M 101.5,63.5 C 104.359,73.9222 107.859,84.2555 112,94.5C 112.383,95.056 112.883,95.3893 113.5,95.5C 114.042,98.9122 115.375,101.912 117.5,104.5C 117.5,104.833 117.5,105.167 117.5,105.5C 119.912,110.659 122.579,115.659 125.5,120.5C 124.036,119.595 122.702,119.595 121.5,120.5C 119.344,118.159 116.844,116.159 114,114.5C 113,112.833 112,111.167 111,109.5C 107.197,114.056 103.197,118.39 99,122.5C 97.7816,128.089 99.9482,131.089 105.5,131.5C 106.167,131.5 106.5,131.167 106.5,130.5C 108.176,131.183 108.843,132.517 108.5,134.5C 106.007,133.253 103.507,133.253 101,134.5C 99.3468,134.18 98.3468,133.18 98,131.5C 96.2087,133.513 94.8753,133.513 94,131.5C 93.6322,132.91 92.7989,133.91 91.5,134.5C 89.2534,133.626 86.9201,133.292 84.5,133.5C 84.281,132.325 84.6143,131.325 85.5,130.5C 87.3163,131.735 88.983,131.735 90.5,130.5C 91.4959,130.586 92.3292,130.252 93,129.5C 94.9468,125.505 94.4468,121.838 91.5,118.5C 93.7463,118.936 95.9129,119.603 98,120.5C 98.3742,119.584 98.8742,118.75 99.5,118C 97.6682,116.511 96.8348,114.678 97,112.5C 98.5059,114.174 100.339,115.174 102.5,115.5C 102.688,113.897 102.188,112.563 101,111.5C 98.2258,112.191 95.7258,111.525 93.5,109.5C 95.1667,109.5 96.8333,109.5 98.5,109.5C 98.3367,107.143 98.5034,104.81 99,102.5C 101.274,103.811 103.44,103.811 105.5,102.5C 106.458,102.047 107.292,101.381 108,100.5C 109.023,93.6832 106.19,89.3498 99.5,87.5C 98.9278,85.7446 98.0945,84.0779 97,82.5C 93.5903,86.4158 89.757,89.7492 85.5,92.5C 84.448,92.6495 83.448,92.4828 82.5,92C 87.6846,89.4871 91.0179,85.4871 92.5,80C 91.3281,78.1316 91.4947,76.2983 93,74.5C 93.3333,68.5 93.6667,62.5 94,56.5C 94.3333,56.1667 94.6667,55.8333 95,55.5C 95.5079,57.9042 96.6745,58.5709 98.5,57.5C 98.9642,59.9749 99.9642,61.9749 101.5,63.5 Z"/></g>
<g><path style="opacity:1" fill="#632735" d="M 47.5,103.5 C 53.3635,104.2 56.1968,107.534 56,113.5C 56.3333,112.833 56.6667,112.167 57,111.5C 57.4169,112.756 58.2502,113.423 59.5,113.5C 58.7961,115.344 57.4628,115.844 55.5,115C 54.9011,113.378 54.2344,111.878 53.5,110.5C 53.5,109.5 53.5,108.5 53.5,107.5C 51.1417,107.747 49.1417,107.081 47.5,105.5C 47.5,104.833 47.5,104.167 47.5,103.5 Z"/></g>
<g><path style="opacity:1" fill="#922c30" d="M 33.5,98.5 C 38.1191,99.3136 42.7858,99.6469 47.5,99.5C 49.604,99.2011 51.604,99.5344 53.5,100.5C 54.8267,103.537 56.8267,105.87 59.5,107.5C 59.5,109.5 59.5,111.5 59.5,113.5C 58.2502,113.423 57.4169,112.756 57,111.5C 56.6667,112.167 56.3333,112.833 56,113.5C 56.1968,107.534 53.3635,104.2 47.5,103.5C 46.4261,101.784 44.7594,100.784 42.5,100.5C 41.6538,105.141 40.9872,109.808 40.5,114.5C 40.5195,115.726 40.8529,116.726 41.5,117.5C 41.5,118.167 41.5,118.833 41.5,119.5C 44.3373,121.402 47.6707,122.069 51.5,121.5C 51.5,122.833 51.5,124.167 51.5,125.5C 46.7697,125.283 42.1031,125.617 37.5,126.5C 37.5,125.833 37.5,125.167 37.5,124.5C 39.4651,117.24 40.1318,109.573 39.5,101.5C 36.8333,101.5 34.1667,101.5 31.5,101.5C 31.5,101.167 31.5,100.833 31.5,100.5C 32.8333,100.5 33.5,99.8333 33.5,98.5 Z"/></g>
<g><path style="opacity:1" fill="#222f64" d="M 31.5,101.5 C 34.1667,101.5 36.8333,101.5 39.5,101.5C 40.1318,109.573 39.4651,117.24 37.5,124.5C 36.2921,125.234 34.9587,125.567 33.5,125.5C 33.5,124.167 33.5,122.833 33.5,121.5C 34.8333,121.5 36.1667,121.5 37.5,121.5C 37.5,115.5 37.5,109.5 37.5,103.5C 34.9179,103.975 32.9179,103.308 31.5,101.5 Z"/></g>
<g><path style="opacity:1" fill="#0f122f" d="M 79.5,95.5 C 74.211,109.419 66.8777,122.086 57.5,133.5C 61.557,127.544 64.8903,121.21 67.5,114.5C 71.4316,108.973 74.5983,102.973 77,96.5C 77.6708,95.7476 78.5041,95.4142 79.5,95.5 Z"/></g>
<g><path style="opacity:1" fill="#f5fafa" d="M 151.5,74.5 C 151.833,74.5 152.167,74.5 152.5,74.5C 153.156,97.5246 152.49,120.191 150.5,142.5C 145.439,137.771 141.106,132.438 137.5,126.5C 139.672,125.584 141.006,123.917 141.5,121.5C 138.013,118.02 135.347,114.02 133.5,109.5C 136.652,109.288 139.985,109.288 143.5,109.5C 143.5,107.833 143.5,106.167 143.5,104.5C 144.167,104.5 144.833,104.5 145.5,104.5C 145.5,106.833 145.5,109.167 145.5,111.5C 146.833,111.5 148.167,111.5 149.5,111.5C 148.884,98.9168 149.551,86.5835 151.5,74.5 Z"/></g>
<g><path style="opacity:1" fill="#e2fcfb" d="M 157.5,76.5 C 158.5,77.1667 159.5,77.8333 160.5,78.5C 160.806,101.282 160.472,123.616 159.5,145.5C 158.179,142.402 157.512,138.902 157.5,135C 157.818,115.691 157.818,96.1909 157.5,76.5 Z"/></g>
<g><path style="opacity:1" fill="#250c28" d="M 47.5,103.5 C 46.1667,103.5 44.8333,103.5 43.5,103.5C 43.5,106.833 43.5,110.167 43.5,113.5C 42.3263,114.514 41.6596,115.847 41.5,117.5C 40.8529,116.726 40.5195,115.726 40.5,114.5C 40.9872,109.808 41.6538,105.141 42.5,100.5C 44.7594,100.784 46.4261,101.784 47.5,103.5 Z"/></g>
<g><path style="opacity:1" fill="#2741a6" d="M 47.5,103.5 C 47.5,104.167 47.5,104.833 47.5,105.5C 47.6715,107.492 47.0049,109.158 45.5,110.5C 47.396,111.466 49.396,111.799 51.5,111.5C 51.5,112.833 51.5,114.167 51.5,115.5C 49.5168,115.157 48.1834,115.824 47.5,117.5C 46.1667,117.5 44.8333,117.5 43.5,117.5C 43.5,116.167 43.5,114.833 43.5,113.5C 43.5,110.167 43.5,106.833 43.5,103.5C 44.8333,103.5 46.1667,103.5 47.5,103.5 Z"/></g>
<g><path style="opacity:1" fill="#f8fafc" d="M 11.5,125.5 C 12.2387,129.045 13.572,132.378 15.5,135.5C 17.423,144.016 21.423,151.349 27.5,157.5C 30.7485,163.417 35.0818,168.417 40.5,172.5C 40.4226,173.75 39.756,174.583 38.5,175C 39.8333,175.333 41.1667,175.667 42.5,176C 41.5494,176.718 41.3828,177.551 42,178.5C 46.8164,181.35 46.3164,182.683 40.5,182.5C 37.091,182.249 33.7577,182.583 30.5,183.5C 29.6721,182.585 28.6721,181.919 27.5,181.5C 25.0276,182.992 22.3609,183.658 19.5,183.5C 19.5,180.833 19.5,178.167 19.5,175.5C 15.6056,176.526 8.93897,176.526 -0.5,175.5C -0.5,144.833 -0.5,114.167 -0.5,83.5C 0.221579,83.0825 0.721579,82.4158 1,81.5C 1.13225,85.6619 1.96559,89.6619 3.5,93.5C -0.0112077,103.911 1.65546,113.411 8.5,122C 7.32806,123.868 7.49472,125.702 9,127.5C 9.66667,126.167 10.3333,126.167 11,127.5C 11.4643,126.906 11.631,126.239 11.5,125.5 Z"/></g>
<g><path style="opacity:1" fill="#0e1911" d="M 91.5,118.5 C 94.4468,121.838 94.9468,125.505 93,129.5C 92.3292,130.252 91.4959,130.586 90.5,130.5C 92.432,127.823 92.932,124.823 92,121.5C 88.3332,118.664 84.8332,115.664 81.5,112.5C 81.369,111.761 81.5357,111.094 82,110.5C 84.7468,113.754 87.9135,116.42 91.5,118.5 Z"/></g>
<g><path style="opacity:1" fill="#211034" d="M 59.5,107.5 C 60.1667,107.5 60.8333,107.5 61.5,107.5C 61.5,108.167 61.5,108.833 61.5,109.5C 61.6621,111.527 61.4955,113.527 61,115.5C 55.6753,118.715 53.1753,117.048 53.5,110.5C 54.2344,111.878 54.9011,113.378 55.5,115C 57.4628,115.844 58.7961,115.344 59.5,113.5C 59.5,111.5 59.5,109.5 59.5,107.5 Z"/></g>
<g><path style="opacity:1" fill="#2a3d88" d="M 47.5,105.5 C 49.1417,107.081 51.1417,107.747 53.5,107.5C 53.5,108.5 53.5,109.5 53.5,110.5C 53.1753,117.048 55.6753,118.715 61,115.5C 61.4955,113.527 61.6621,111.527 61.5,109.5C 63.0358,111.025 64.0358,113.025 64.5,115.5C 65.213,113.565 66.213,113.232 67.5,114.5C 64.8903,121.21 61.557,127.544 57.5,133.5C 56.9202,135.749 55.5869,137.415 53.5,138.5C 50.7633,138.859 48.7633,140.193 47.5,142.5C 47.5,140.833 47.5,139.167 47.5,137.5C 49.5,137.5 51.5,137.5 53.5,137.5C 53.5,135.5 53.5,133.5 53.5,131.5C 50.4779,131.658 48.4779,130.325 47.5,127.5C 49.5,127.5 51.5,127.5 53.5,127.5C 53.5,124.833 53.5,122.167 53.5,119.5C 51.8984,117.926 49.8984,117.259 47.5,117.5C 48.1834,115.824 49.5168,115.157 51.5,115.5C 51.5,114.167 51.5,112.833 51.5,111.5C 49.396,111.799 47.396,111.466 45.5,110.5C 47.0049,109.158 47.6715,107.492 47.5,105.5 Z"/></g>
<g><path style="opacity:1" fill="#325c42" d="M 81.5,112.5 C 84.8332,115.664 88.3332,118.664 92,121.5C 92.932,124.823 92.432,127.823 90.5,130.5C 86.9103,130.456 84.4103,128.789 83,125.5C 80.6132,126.988 78.1132,128.988 75.5,131.5C 74.5084,131.672 73.8417,131.338 73.5,130.5C 73.9382,130.565 74.2716,130.399 74.5,130C 71.075,127.715 70.575,124.882 73,121.5C 75.4794,118.931 78.146,116.598 81,114.5C 81.4643,113.906 81.631,113.239 81.5,112.5 Z"/></g>
<g><path style="opacity:1" fill="#f2eff2" d="M 157.5,76.5 C 157.818,96.1909 157.818,115.691 157.5,135C 157.512,138.902 158.179,142.402 159.5,145.5C 159.5,146.833 159.5,148.167 159.5,149.5C 157.251,148.92 155.585,147.587 154.5,145.5C 154.167,122.157 154.5,98.8238 155.5,75.5C 156.183,75.8627 156.85,76.1961 157.5,76.5 Z"/></g>
<g><path style="opacity:1" fill="#1f2857" d="M 43.5,113.5 C 43.5,114.833 43.5,116.167 43.5,117.5C 44.8333,117.5 46.1667,117.5 47.5,117.5C 49.8984,117.259 51.8984,117.926 53.5,119.5C 49.5,119.5 45.5,119.5 41.5,119.5C 41.5,118.833 41.5,118.167 41.5,117.5C 41.6596,115.847 42.3263,114.514 43.5,113.5 Z"/></g>
<g><path style="opacity:1" fill="#0d1b12" d="M 81.5,112.5 C 81.631,113.239 81.4643,113.906 81,114.5C 78.146,116.598 75.4794,118.931 73,121.5C 70.575,124.882 71.075,127.715 74.5,130C 74.2716,130.399 73.9382,130.565 73.5,130.5C 72.5416,130.047 71.7083,129.381 71,128.5C 70.3333,126.167 70.3333,123.833 71,121.5C 74.0528,117.945 77.5528,114.945 81.5,112.5 Z"/></g>
<g><path style="opacity:1" fill="#121c13" d="M 121.5,120.5 C 123.321,124.466 122.654,127.799 119.5,130.5C 119.062,130.565 118.728,130.399 118.5,130C 122.092,127.029 122.425,123.696 119.5,120C 115.602,118.681 112.768,116.181 111,112.5C 107.965,115.87 104.632,118.87 101,121.5C 99.1991,124.621 99.8657,127.288 103,129.5C 105.078,128.057 105.911,128.724 105.5,131.5C 99.9482,131.089 97.7816,128.089 99,122.5C 103.197,118.39 107.197,114.056 111,109.5C 112,111.167 113,112.833 114,114.5C 116.844,116.159 119.344,118.159 121.5,120.5 Z"/></g>
<g><path style="opacity:1" fill="#131c37" d="M 117.5,105.5 C 119.017,105.511 120.184,106.177 121,107.5C 121.727,109.953 122.727,112.286 124,114.5C 126.871,117.657 128.704,121.323 129.5,125.5C 127.937,124.055 126.604,122.389 125.5,120.5C 122.579,115.659 119.912,110.659 117.5,105.5 Z"/></g>
<g><path style="opacity:1" fill="#0f152a" d="M 127.5,113.5 C 127.833,113.5 128.167,113.5 128.5,113.5C 131.253,118.008 134.253,122.341 137.5,126.5C 141.106,132.438 145.439,137.771 150.5,142.5C 150.5,142.833 150.5,143.167 150.5,143.5C 148.606,142.952 146.94,141.952 145.5,140.5C 142.848,136.518 139.848,132.851 136.5,129.5C 133.504,124.177 130.504,118.843 127.5,113.5 Z"/></g>
<g><path style="opacity:1" fill="#2041a5" d="M 25.5,95.5 C 25.5,97.5 25.5,99.5 25.5,101.5C 27.5,101.5 29.5,101.5 31.5,101.5C 32.9179,103.308 34.9179,103.975 37.5,103.5C 37.5,109.5 37.5,115.5 37.5,121.5C 36.1667,121.5 34.8333,121.5 33.5,121.5C 33.5,122.833 33.5,124.167 33.5,125.5C 34.9587,125.567 36.2921,125.234 37.5,124.5C 37.5,125.167 37.5,125.833 37.5,126.5C 38.209,127.404 39.209,127.737 40.5,127.5C 38.2005,130.656 35.7005,132.99 33,134.5C 33.0773,133.262 32.9106,132.262 32.5,131.5C 31.8076,132.025 31.3076,132.692 31,133.5C 30.5774,132.044 29.7441,131.544 28.5,132C 29.6734,135.11 29.1734,135.277 27,132.5C 26.6667,132.833 26.3333,133.167 26,133.5C 26.4229,131.613 26.2563,129.613 25.5,127.5C 24.1667,127.5 22.8333,127.5 21.5,127.5C 21.5,130.167 21.5,132.833 21.5,135.5C 19.631,133.365 18.9644,130.698 19.5,127.5C 18.1667,127.5 16.8333,127.5 15.5,127.5C 15.5,125.5 15.5,123.5 15.5,121.5C 15.7399,118.421 15.4066,115.421 14.5,112.5C 14.9767,111.522 15.6433,110.689 16.5,110C 14.5036,107.579 13.5036,104.746 13.5,101.5C 13.9029,93.6522 14.9029,93.6522 16.5,101.5C 17.48,98.9135 17.8134,96.2469 17.5,93.5C 19.8568,93.3367 22.1902,93.5034 24.5,94C 25.056,94.3826 25.3893,94.8826 25.5,95.5 Z"/></g>
<g><path style="opacity:1" fill="#30593e" d="M 119.5,130.5 C 117.127,131.195 114.794,131.528 112.5,131.5C 111.778,131.918 111.278,132.584 111,133.5C 110.667,130.833 110.333,128.167 110,125.5C 109.003,127.323 107.836,128.99 106.5,130.5C 106.5,131.167 106.167,131.5 105.5,131.5C 105.911,128.724 105.078,128.057 103,129.5C 99.8657,127.288 99.1991,124.621 101,121.5C 104.632,118.87 107.965,115.87 111,112.5C 112.768,116.181 115.602,118.681 119.5,120C 122.425,123.696 122.092,127.029 118.5,130C 118.728,130.399 119.062,130.565 119.5,130.5 Z"/></g>
<g><path style="opacity:1" fill="#a5d7df" d="M 160.5,78.5 C 160.833,78.5 161.167,78.5 161.5,78.5C 161.833,102.509 161.5,126.509 160.5,150.5C 159.893,150.376 159.56,150.043 159.5,149.5C 159.5,148.167 159.5,146.833 159.5,145.5C 160.472,123.616 160.806,101.282 160.5,78.5 Z"/></g>
<g><path style="opacity:1" fill="#3c1322" d="M 41.5,119.5 C 45.5,119.5 49.5,119.5 53.5,119.5C 53.5,122.167 53.5,124.833 53.5,127.5C 51.5,127.5 49.5,127.5 47.5,127.5C 45.1667,127.5 42.8333,127.5 40.5,127.5C 39.209,127.737 38.209,127.404 37.5,126.5C 42.1031,125.617 46.7697,125.283 51.5,125.5C 51.5,124.167 51.5,122.833 51.5,121.5C 47.6707,122.069 44.3373,121.402 41.5,119.5 Z"/></g>
<g><path style="opacity:1" fill="#0f1422" d="M 5.5,15.5 C 6.18775,21.1138 7.52109,26.4471 9.5,31.5C 9.5,36.8333 9.5,42.1667 9.5,47.5C 9.16724,63.5139 9.50058,79.5139 10.5,95.5C 10.8524,103.875 11.8524,111.875 13.5,119.5C 14.1667,120.167 14.8333,120.833 15.5,121.5C 15.5,123.5 15.5,125.5 15.5,127.5C 15.5,130.167 15.5,132.833 15.5,135.5C 13.572,132.378 12.2387,129.045 11.5,125.5C 8.22565,88.9212 6.22565,52.2546 5.5,15.5 Z"/></g>
<g><path style="opacity:1" fill="#23397f" d="M 15.5,127.5 C 16.8333,127.5 18.1667,127.5 19.5,127.5C 18.9644,130.698 19.631,133.365 21.5,135.5C 21.8707,138.892 23.5374,141.558 26.5,143.5C 27.699,148.319 30.0323,152.319 33.5,155.5C 32.7095,156.401 31.7095,157.068 30.5,157.5C 27.887,153.201 25.2204,148.868 22.5,144.5C 21.675,143.614 20.675,143.281 19.5,143.5C 19.5842,140.252 18.7508,137.252 17,134.5C 16.6174,135.056 16.1174,135.389 15.5,135.5C 15.5,132.833 15.5,130.167 15.5,127.5 Z"/></g>
<g><path style="opacity:1" fill="#b4bdc0" d="M 152.5,74.5 C 153.498,97.6607 153.831,120.994 153.5,144.5C 152.833,144.5 152.167,144.5 151.5,144.5C 151.5,143.833 151.167,143.5 150.5,143.5C 150.5,143.167 150.5,142.833 150.5,142.5C 152.49,120.191 153.156,97.5246 152.5,74.5 Z"/></g>
<g><path style="opacity:1" fill="#181623" d="M 183.5,79.5 C 183.5,84.8333 183.5,90.1667 183.5,95.5C 183.5,98.8333 183.5,102.167 183.5,105.5C 181.937,122.192 176.937,137.859 168.5,152.5C 165.179,157.152 161.513,161.485 157.5,165.5C 157.703,163.956 158.37,162.622 159.5,161.5C 159.376,160.893 159.043,160.56 158.5,160.5C 159.303,159.577 159.47,158.577 159,157.5C 156.156,155.841 153.656,153.841 151.5,151.5C 154.598,152.216 157.264,153.716 159.5,156C 160.5,156.667 161.5,156.667 162.5,156C 165.49,152.182 167.824,148.016 169.5,143.5C 172.386,138.715 174.386,133.382 175.5,127.5C 177.402,124.663 178.069,121.329 177.5,117.5C 178.285,115.626 178.952,113.626 179.5,111.5C 180.833,100.833 182.167,90.1667 183.5,79.5 Z"/></g>
<g><path style="opacity:1" fill="#f5f4f6" d="M 125.5,120.5 C 126.604,122.389 127.937,124.055 129.5,125.5C 129.328,126.492 129.662,127.158 130.5,127.5C 131.529,129.517 132.529,131.517 133.5,133.5C 131.518,133.005 129.518,132.505 127.5,132C 129.595,131.444 129.762,130.944 128,130.5C 126.699,131.098 125.865,132.098 125.5,133.5C 127.095,132.956 128.429,133.623 129.5,135.5C 126.079,140.144 122.246,144.477 118,148.5C 117.162,151.481 117.995,153.814 120.5,155.5C 120.5,155.833 120.5,156.167 120.5,156.5C 118.165,155.587 115.999,154.253 114,152.5C 113.501,148.848 113.335,145.182 113.5,141.5C 119.08,141.664 120.58,139.33 118,134.5C 115.306,137.194 112.64,139.86 110,142.5C 108.187,141.391 107.354,142.058 107.5,144.5C 103.635,141.398 99.9682,138.065 96.5,134.5C 95.1431,136.186 93.8098,137.852 92.5,139.5C 90.5,140.5 88.5,141.5 86.5,142.5C 83.6114,143.008 80.7781,143.675 78,144.5C 77.0754,143.953 76.2421,143.287 75.5,142.5C 77.2955,141.859 78.7955,140.859 80,139.5C 80.3333,139.833 80.6667,140.167 81,140.5C 81.4828,139.552 81.6495,138.552 81.5,137.5C 82.5,137.5 83.5,137.5 84.5,137.5C 84.5,136.167 84.5,134.833 84.5,133.5C 86.9201,133.292 89.2534,133.626 91.5,134.5C 92.7989,133.91 93.6322,132.91 94,131.5C 94.8753,133.513 96.2087,133.513 98,131.5C 98.3468,133.18 99.3468,134.18 101,134.5C 103.507,133.253 106.007,133.253 108.5,134.5C 108.5,135.5 108.5,136.5 108.5,137.5C 110.167,137.5 111.833,137.5 113.5,137.5C 113.795,135.265 113.461,133.265 112.5,131.5C 114.794,131.528 117.127,131.195 119.5,130.5C 122.654,127.799 123.321,124.466 121.5,120.5C 122.702,119.595 124.036,119.595 125.5,120.5 Z"/></g>
<g><path style="opacity:1" fill="#11163f" d="M 130.5,127.5 C 135.249,131.257 138.916,135.923 141.5,141.5C 138.473,139.14 135.806,136.473 133.5,133.5C 132.529,131.517 131.529,129.517 130.5,127.5 Z"/></g>
<g><path style="opacity:1" fill="#141c1a" d="M 129.5,135.5 C 132.5,139.167 135.833,142.5 139.5,145.5C 135.985,144.908 133.318,143.075 131.5,140C 130.5,139.333 129.5,139.333 128.5,140C 125.573,142.382 122.739,144.882 120,147.5C 119.398,150.221 119.565,152.887 120.5,155.5C 117.995,153.814 117.162,151.481 118,148.5C 122.246,144.477 126.079,140.144 129.5,135.5 Z"/></g>
<g><path style="opacity:1" fill="#151c16" d="M 90.5,130.5 C 88.983,131.735 87.3163,131.735 85.5,130.5C 84.6143,131.325 84.281,132.325 84.5,133.5C 84.5,134.833 84.5,136.167 84.5,137.5C 83.5,137.5 82.5,137.5 81.5,137.5C 79.9519,137.179 79.2852,136.179 79.5,134.5C 79.6567,133.127 79.49,131.793 79,130.5C 77.9887,131.337 76.8221,131.67 75.5,131.5C 78.1132,128.988 80.6132,126.988 83,125.5C 84.4103,128.789 86.9103,130.456 90.5,130.5 Z"/></g>
<g><path style="opacity:1" fill="#2d221f" d="M 112.5,131.5 C 113.461,133.265 113.795,135.265 113.5,137.5C 111.833,137.5 110.167,137.5 108.5,137.5C 108.5,136.5 108.5,135.5 108.5,134.5C 108.843,132.517 108.176,131.183 106.5,130.5C 107.836,128.99 109.003,127.323 110,125.5C 110.333,128.167 110.667,130.833 111,133.5C 111.278,132.584 111.778,131.918 112.5,131.5 Z"/></g>
<g><path style="opacity:1" fill="#f9fafc" d="M 183.5,105.5 C 184.987,112.737 185.654,120.07 185.5,127.5C 186.833,127.5 188.167,127.5 189.5,127.5C 189.173,122.786 189.507,118.12 190.5,113.5C 191.167,118.317 191.834,122.983 192.5,127.5C 192.5,138.5 192.5,149.5 192.5,160.5C 191.596,161.209 191.263,162.209 191.5,163.5C 188.5,163.167 187.167,164.5 187.5,167.5C 188.833,167.5 190.167,167.5 191.5,167.5C 191.5,173.167 191.5,178.833 191.5,184.5C 180.852,183.723 170.185,183.39 159.5,183.5C 159.5,180.833 159.5,178.167 159.5,175.5C 162.167,175.5 164.833,175.5 167.5,175.5C 168.166,172.972 168.832,170.306 169.5,167.5C 170.833,178.167 172.167,178.167 173.5,167.5C 174.318,170.107 174.818,172.774 175,175.5C 175.498,172.518 175.665,169.518 175.5,166.5C 167.704,166.595 167.704,165.762 175.5,164C 167.664,163.567 167.664,162.567 175.5,161C 174.167,160.667 172.833,160.333 171.5,160C 171.957,159.586 172.291,159.086 172.5,158.5C 171.123,156.435 169.79,154.435 168.5,152.5C 176.937,137.859 181.937,122.192 183.5,105.5 Z"/></g>
<g><path style="opacity:1" fill="#1a1a39" d="M 53.5,138.5 C 50.8333,141.833 48.1667,145.167 45.5,148.5C 42.1667,150.833 38.8333,153.167 35.5,155.5C 39.4218,151.239 43.4218,146.906 47.5,142.5C 48.7633,140.193 50.7633,138.859 53.5,138.5 Z"/></g>
<g><path style="opacity:1" fill="#315d3f" d="M 104.5,154.5 C 103.167,155.833 101.833,155.833 100.5,154.5C 101.043,154.44 101.376,154.107 101.5,153.5C 99.4733,152.307 97.9733,150.64 97,148.5C 94.8733,150.114 93.3733,152.114 92.5,154.5C 91.1667,155.833 89.8333,155.833 88.5,154.5C 88.9382,154.565 89.2716,154.399 89.5,154C 85.1953,151.588 84.5286,148.421 87.5,144.5C 89.5212,143.145 91.1879,141.479 92.5,139.5C 94.0443,139.297 95.3777,138.63 96.5,137.5C 98.6558,139.49 100.656,141.657 102.5,144C 101.262,143.923 100.262,144.089 99.5,144.5C 101.453,145.69 103.287,147.024 105,148.5C 105.998,145.972 106.831,145.972 107.5,148.5C 107.016,150.801 106.016,152.801 104.5,154.5 Z"/></g>
<g><path style="opacity:1" fill="#2145a9" d="M 40.5,127.5 C 42.8333,127.5 45.1667,127.5 47.5,127.5C 48.4779,130.325 50.4779,131.658 53.5,131.5C 53.5,133.5 53.5,135.5 53.5,137.5C 51.5,137.5 49.5,137.5 47.5,137.5C 47.5,139.167 47.5,140.833 47.5,142.5C 43.4218,146.906 39.4218,151.239 35.5,155.5C 34.8333,155.5 34.1667,155.5 33.5,155.5C 30.0323,152.319 27.699,148.319 26.5,143.5C 23.5374,141.558 21.8707,138.892 21.5,135.5C 21.5,132.833 21.5,130.167 21.5,127.5C 22.8333,127.5 24.1667,127.5 25.5,127.5C 26.2563,129.613 26.4229,131.613 26,133.5C 26.3333,133.167 26.6667,132.833 27,132.5C 29.1734,135.277 29.6734,135.11 28.5,132C 29.7441,131.544 30.5774,132.044 31,133.5C 31.3076,132.692 31.8076,132.025 32.5,131.5C 32.9106,132.262 33.0773,133.262 33,134.5C 35.7005,132.99 38.2005,130.656 40.5,127.5 Z"/></g>
<g><path style="opacity:1" fill="#0d1b13" d="M 92.5,139.5 C 91.1879,141.479 89.5212,143.145 87.5,144.5C 84.5286,148.421 85.1953,151.588 89.5,154C 89.2716,154.399 88.9382,154.565 88.5,154.5C 86.5891,154.426 85.4224,153.426 85,151.5C 84.2069,148.259 84.7069,145.259 86.5,142.5C 88.5,141.5 90.5,140.5 92.5,139.5 Z"/></g>
<g><path style="opacity:1" fill="#203726" d="M 107.5,144.5 C 108.537,146.738 108.703,149.071 108,151.5C 107.578,153.426 106.411,154.426 104.5,154.5C 106.016,152.801 107.016,150.801 107.5,148.5C 106.831,145.972 105.998,145.972 105,148.5C 103.287,147.024 101.453,145.69 99.5,144.5C 100.262,144.089 101.262,143.923 102.5,144C 100.656,141.657 98.6558,139.49 96.5,137.5C 95.3777,138.63 94.0443,139.297 92.5,139.5C 93.8098,137.852 95.1431,136.186 96.5,134.5C 99.9682,138.065 103.635,141.398 107.5,144.5 Z"/></g>
<g><path style="opacity:1" fill="#325c42" d="M 139.5,145.5 C 140.435,148.113 140.602,150.779 140,153.5C 139.097,154.701 137.931,155.535 136.5,156C 136.728,156.399 137.062,156.565 137.5,156.5C 136.5,157.833 135.5,157.833 134.5,156.5C 134.938,156.565 135.272,156.399 135.5,156C 134,154.5 132.5,153 131,151.5C 130.667,154.833 130.333,158.167 130,161.5C 129.667,158.5 129.333,155.5 129,152.5C 126.804,155.125 123.97,156.125 120.5,155.5C 119.565,152.887 119.398,150.221 120,147.5C 122.739,144.882 125.573,142.382 128.5,140C 129.5,139.333 130.5,139.333 131.5,140C 133.318,143.075 135.985,144.908 139.5,145.5 Z"/></g>
<g><path style="opacity:1" fill="#010e07" d="M 139.5,145.5 C 140.117,145.611 140.617,145.944 141,146.5C 141.667,149.167 141.667,151.833 141,154.5C 140.184,155.823 139.017,156.489 137.5,156.5C 137.062,156.565 136.728,156.399 136.5,156C 137.931,155.535 139.097,154.701 140,153.5C 140.602,150.779 140.435,148.113 139.5,145.5 Z"/></g>
<g><path style="opacity:1" fill="#1a2437" d="M 141.5,141.5 C 143.847,142.684 145.847,144.351 147.5,146.5C 148.689,147.429 150.022,147.762 151.5,147.5C 151.5,148.833 151.5,150.167 151.5,151.5C 147.145,149.145 143.812,145.812 141.5,141.5 Z"/></g>
<g><path style="opacity:1" fill="#17211a" d="M 69.5,142.5 C 69.8333,142.5 70.1667,142.5 70.5,142.5C 76.9605,146.303 77.9605,151.137 73.5,157C 71.4325,157.687 69.4325,157.52 67.5,156.5C 66.8319,158.969 66.1653,161.302 65.5,163.5C 64.1667,163.5 62.8333,163.5 61.5,163.5C 62.3635,161.105 62.3635,158.771 61.5,156.5C 59.9291,157.309 58.2624,157.643 56.5,157.5C 52.2166,154.422 51.3833,150.422 54,145.5C 58.0059,143.082 61.5059,140.082 64.5,136.5C 66.1643,138.491 67.831,140.491 69.5,142.5 Z"/></g>
<g><path style="opacity:1" fill="#2f5c40" d="M 69.5,142.5 C 72.0401,144.886 74.0401,147.719 75.5,151C 74.344,155.374 71.6773,156.54 67.5,154.5C 67.1345,153.098 66.3012,152.098 65,151.5C 63.261,153.892 60.9276,155.559 58,156.5C 53.031,153.39 52.531,149.723 56.5,145.5C 59.4495,143.885 62.1162,141.885 64.5,139.5C 65.9397,140.952 67.6064,141.952 69.5,142.5 Z"/></g>
<g><path style="opacity:1" fill="#0f1633" d="M 30.5,157.5 C 29.5,157.5 28.5,157.5 27.5,157.5C 21.423,151.349 17.423,144.016 15.5,135.5C 16.1174,135.389 16.6174,135.056 17,134.5C 18.7508,137.252 19.5842,140.252 19.5,143.5C 20.675,143.281 21.675,143.614 22.5,144.5C 25.2204,148.868 27.887,153.201 30.5,157.5 Z"/></g>
<g><path style="opacity:1" fill="#f8f7f9" d="M 45.5,148.5 C 46.449,150.737 47.1156,153.071 47.5,155.5C 49.9628,155.781 52.1295,156.781 54,158.5C 54.6708,157.748 55.5041,157.414 56.5,157.5C 58.2624,157.643 59.9291,157.309 61.5,156.5C 62.3635,158.771 62.3635,161.105 61.5,163.5C 62.8333,163.5 64.1667,163.5 65.5,163.5C 67.159,164.834 68.4924,166.501 69.5,168.5C 67.1818,169.652 65.3484,171.319 64,173.5C 63.51,172.207 63.3433,170.873 63.5,169.5C 61.5082,169.328 59.8415,169.995 58.5,171.5C 57.6789,174.446 57.6789,177.446 58.5,180.5C 49.3518,175.529 41.1852,169.196 34,161.5C 33.5,160.5 33,159.5 32.5,158.5C 33.7701,157.712 34.7701,156.712 35.5,155.5C 38.8333,153.167 42.1667,150.833 45.5,148.5 Z"/></g>
<g><path style="opacity:1" fill="#f6f8f8" d="M 133.5,133.5 C 135.806,136.473 138.473,139.14 141.5,141.5C 143.812,145.812 147.145,149.145 151.5,151.5C 153.656,153.841 156.156,155.841 159,157.5C 159.47,158.577 159.303,159.577 158.5,160.5C 153.354,166.141 147.688,171.308 141.5,176C 137.256,178.428 132.922,180.594 128.5,182.5C 126.707,182.116 125.707,180.95 125.5,179C 127.631,175.855 127.631,172.855 125.5,170C 126.167,169.667 126.833,169.333 127.5,169C 126.296,167.647 125.629,165.981 125.5,164C 125.569,162.014 126.235,160.514 127.5,159.5C 127.5,160.833 127.5,162.167 127.5,163.5C 129.167,163.5 130.833,163.5 132.5,163.5C 131.99,160.612 132.656,158.279 134.5,156.5C 135.5,157.833 136.5,157.833 137.5,156.5C 139.017,156.489 140.184,155.823 141,154.5C 141.667,151.833 141.667,149.167 141,146.5C 140.617,145.944 140.117,145.611 139.5,145.5C 135.833,142.5 132.5,139.167 129.5,135.5C 128.429,133.623 127.095,132.956 125.5,133.5C 125.865,132.098 126.699,131.098 128,130.5C 129.762,130.944 129.595,131.444 127.5,132C 129.518,132.505 131.518,133.005 133.5,133.5 Z"/></g>
<g><path style="opacity:1" fill="#f5f5f5" d="M 120.5,156.5 C 122.468,157.819 124.468,157.819 126.5,156.5C 127.386,157.325 127.719,158.325 127.5,159.5C 126.235,160.514 125.569,162.014 125.5,164C 125.629,165.981 126.296,167.647 127.5,169C 126.833,169.333 126.167,169.667 125.5,170C 127.631,172.855 127.631,175.855 125.5,179C 125.707,180.95 126.707,182.116 128.5,182.5C 120.44,186.684 111.773,189.017 102.5,189.5C 103.617,186.721 104.783,186.388 106,188.5C 107.481,187.529 108.315,186.196 108.5,184.5C 110.167,184.5 111.833,184.5 113.5,184.5C 113.5,182.5 113.5,180.5 113.5,178.5C 115.5,178.5 117.5,178.5 119.5,178.5C 120.906,178.027 121.573,177.027 121.5,175.5C 122.629,173.372 122.796,171.039 122,168.5C 117.86,165.272 114.194,161.605 111,157.5C 109.905,158.693 109.072,160.027 108.5,161.5C 105.891,162.443 103.891,164.11 102.5,166.5C 102.167,166.5 101.833,166.5 101.5,166.5C 100.534,163.875 99.5343,163.875 98.5,166.5C 97.914,166.291 97.414,165.957 97,165.5C 95.6813,167.287 94.848,169.287 94.5,171.5C 93.8676,169.257 92.5342,167.591 90.5,166.5C 88.9095,164.367 86.9095,162.701 84.5,161.5C 83.9744,159.77 82.9744,158.436 81.5,157.5C 80.2652,157.721 79.2652,158.388 78.5,159.5C 78.1667,158.833 77.8333,158.167 77.5,157.5C 76.676,159.748 75.676,159.914 74.5,158C 76.1667,157 77.5,155.667 78.5,154C 77.2404,152.186 77.2404,150.353 78.5,148.5C 79.8425,149.902 80.6758,149.569 81,147.5C 81.3176,149.061 82.1509,150.228 83.5,151C 82.6721,151.915 81.6721,152.581 80.5,153C 84.6522,155.079 88.9855,156.579 93.5,157.5C 93.5,158.833 93.5,160.167 93.5,161.5C 95.1667,161.5 96.8333,161.5 98.5,161.5C 97.9898,158.612 98.6565,156.279 100.5,154.5C 101.833,155.833 103.167,155.833 104.5,154.5C 106.411,154.426 107.578,153.426 108,151.5C 108.703,149.071 108.537,146.738 107.5,144.5C 107.354,142.058 108.187,141.391 110,142.5C 112.64,139.86 115.306,137.194 118,134.5C 120.58,139.33 119.08,141.664 113.5,141.5C 113.335,145.182 113.501,148.848 114,152.5C 115.999,154.253 118.165,155.587 120.5,156.5 Z"/></g>
<g><path style="opacity:1" fill="#1b271f" d="M 100.5,154.5 C 98.6565,156.279 97.9898,158.612 98.5,161.5C 96.8333,161.5 95.1667,161.5 93.5,161.5C 93.5,160.167 93.5,158.833 93.5,157.5C 93.4142,156.504 93.7476,155.671 94.5,155C 93.9056,154.536 93.2389,154.369 92.5,154.5C 93.3733,152.114 94.8733,150.114 97,148.5C 97.9733,150.64 99.4733,152.307 101.5,153.5C 101.376,154.107 101.043,154.44 100.5,154.5 Z"/></g>
<g><path style="opacity:1" fill="#111c14" d="M 81.5,157.5 C 82.9744,158.436 83.9744,159.77 84.5,161.5C 83.5041,161.586 82.6708,161.252 82,160.5C 79.2974,163.538 76.2974,166.205 73,168.5C 71.4845,173.682 73.3178,176.682 78.5,177.5C 71.8527,178.662 69.3527,175.662 71,168.5C 74.5221,165.734 77.8554,162.734 81,159.5C 81.4643,158.906 81.631,158.239 81.5,157.5 Z"/></g>
<g><path style="opacity:1" fill="#171f1a" d="M 134.5,156.5 C 132.656,158.279 131.99,160.612 132.5,163.5C 130.833,163.5 129.167,163.5 127.5,163.5C 127.5,162.167 127.5,160.833 127.5,159.5C 127.719,158.325 127.386,157.325 126.5,156.5C 124.468,157.819 122.468,157.819 120.5,156.5C 120.5,156.167 120.5,155.833 120.5,155.5C 123.97,156.125 126.804,155.125 129,152.5C 129.333,155.5 129.667,158.5 130,161.5C 130.333,158.167 130.667,154.833 131,151.5C 132.5,153 134,154.5 135.5,156C 135.272,156.399 134.938,156.565 134.5,156.5 Z"/></g>
<g><path style="opacity:1" fill="#21392a" d="M 121.5,175.5 C 121.662,173.473 121.495,171.473 121,169.5C 119.68,169.201 118.18,169.034 116.5,169C 115.04,167.418 113.373,166.085 111.5,165C 113.993,163.417 113.826,161.917 111,160.5C 110.329,161.252 109.496,161.586 108.5,161.5C 109.072,160.027 109.905,158.693 111,157.5C 114.194,161.605 117.86,165.272 122,168.5C 122.796,171.039 122.629,173.372 121.5,175.5 Z"/></g>
<g><path style="opacity:1" fill="#f8f7f9" d="M 168.5,152.5 C 169.79,154.435 171.123,156.435 172.5,158.5C 172.291,159.086 171.957,159.586 171.5,160C 172.833,160.333 174.167,160.667 175.5,161C 167.664,162.567 167.664,163.567 175.5,164C 167.704,165.762 167.704,166.595 175.5,166.5C 175.665,169.518 175.498,172.518 175,175.5C 174.818,172.774 174.318,170.107 173.5,167.5C 172.167,178.167 170.833,178.167 169.5,167.5C 168.832,170.306 168.166,172.972 167.5,175.5C 167.5,174.167 167.5,172.833 167.5,171.5C 161.07,171.589 157.07,174.756 155.5,181C 158.754,184.211 158.087,185.711 153.5,185.5C 153.573,189.481 151.573,191.147 147.5,190.5C 146.167,190.333 144.833,190.167 143.5,190C 146.289,189.759 148.956,189.092 151.5,188C 146.136,187.171 140.802,187.337 135.5,188.5C 135,189.5 134.5,190.5 134,191.5C 132.992,191.018 131.825,190.852 130.5,191C 129.789,189.745 128.956,188.579 128,187.5C 126.846,188.743 125.512,189.743 124,190.5C 123.536,189.906 123.369,189.239 123.5,188.5C 136.84,183.828 148.174,176.161 157.5,165.5C 161.513,161.485 165.179,157.152 168.5,152.5 Z"/></g>
<g><path style="opacity:1" fill="#f9fbfc" d="M 192.5,160.5 C 192.5,172.5 192.5,184.5 192.5,196.5C 160.167,196.5 127.833,196.5 95.5,196.5C 98.5692,196.015 101.236,194.681 103.5,192.5C 110.3,191.8 116.967,190.466 123.5,188.5C 123.369,189.239 123.536,189.906 124,190.5C 125.512,189.743 126.846,188.743 128,187.5C 128.956,188.579 129.789,189.745 130.5,191C 131.825,190.852 132.992,191.018 134,191.5C 134.5,190.5 135,189.5 135.5,188.5C 140.802,187.337 146.136,187.171 151.5,188C 148.956,189.092 146.289,189.759 143.5,190C 144.833,190.167 146.167,190.333 147.5,190.5C 151.573,191.147 153.573,189.481 153.5,185.5C 158.087,185.711 158.754,184.211 155.5,181C 157.07,174.756 161.07,171.589 167.5,171.5C 167.5,172.833 167.5,174.167 167.5,175.5C 164.833,175.5 162.167,175.5 159.5,175.5C 159.5,178.167 159.5,180.833 159.5,183.5C 170.185,183.39 180.852,183.723 191.5,184.5C 191.5,178.833 191.5,173.167 191.5,167.5C 190.167,167.5 188.833,167.5 187.5,167.5C 187.167,164.5 188.5,163.167 191.5,163.5C 191.263,162.209 191.596,161.209 192.5,160.5 Z"/></g>
<g><path style="opacity:1" fill="#f5f8f7" d="M 79.5,134.5 C 79.2852,136.179 79.9519,137.179 81.5,137.5C 81.6495,138.552 81.4828,139.552 81,140.5C 80.6667,140.167 80.3333,139.833 80,139.5C 78.7955,140.859 77.2955,141.859 75.5,142.5C 76.2421,143.287 77.0754,143.953 78,144.5C 80.7781,143.675 83.6114,143.008 86.5,142.5C 84.7069,145.259 84.2069,148.259 85,151.5C 85.4224,153.426 86.5891,154.426 88.5,154.5C 89.8333,155.833 91.1667,155.833 92.5,154.5C 93.2389,154.369 93.9056,154.536 94.5,155C 93.7476,155.671 93.4142,156.504 93.5,157.5C 88.9855,156.579 84.6522,155.079 80.5,153C 81.6721,152.581 82.6721,151.915 83.5,151C 82.1509,150.228 81.3176,149.061 81,147.5C 80.6758,149.569 79.8425,149.902 78.5,148.5C 77.2404,150.353 77.2404,152.186 78.5,154C 77.5,155.667 76.1667,157 74.5,158C 75.676,159.914 76.676,159.748 77.5,157.5C 77.8333,158.167 78.1667,158.833 78.5,159.5C 79.2652,158.388 80.2652,157.721 81.5,157.5C 81.631,158.239 81.4643,158.906 81,159.5C 77.8554,162.734 74.5221,165.734 71,168.5C 69.3527,175.662 71.8527,178.662 78.5,177.5C 79.4682,179.607 79.8016,181.941 79.5,184.5C 81.1667,184.5 82.8333,184.5 84.5,184.5C 84.3367,182.143 84.5034,179.81 85,177.5C 90.8235,179.856 93.9902,177.856 94.5,171.5C 94.848,169.287 95.6813,167.287 97,165.5C 97.414,165.957 97.914,166.291 98.5,166.5C 99.5343,163.875 100.534,163.875 101.5,166.5C 97.5459,170.271 97.5459,174.104 101.5,178C 103.712,178.789 105.712,178.622 107.5,177.5C 108.468,179.607 108.802,181.941 108.5,184.5C 108.315,186.196 107.481,187.529 106,188.5C 104.783,186.388 103.617,186.721 102.5,189.5C 86.9045,190.791 72.2379,187.791 58.5,180.5C 57.6789,177.446 57.6789,174.446 58.5,171.5C 59.8415,169.995 61.5082,169.328 63.5,169.5C 63.3433,170.873 63.51,172.207 64,173.5C 65.3484,171.319 67.1818,169.652 69.5,168.5C 68.4924,166.501 67.159,164.834 65.5,163.5C 66.1653,161.302 66.8319,158.969 67.5,156.5C 69.4325,157.52 71.4325,157.687 73.5,157C 77.9605,151.137 76.9605,146.303 70.5,142.5C 71.209,141.596 72.209,141.263 73.5,141.5C 73.5,139.5 73.5,137.5 73.5,135.5C 75.6208,135.675 77.6208,135.341 79.5,134.5 Z"/></g>
<g><path style="opacity:1" fill="#f9fbfc" d="M 40.5,182.5 C 39.1637,186.51 39.3303,190.51 41,194.5C 44.3873,196.318 46.3873,195.318 47,191.5C 47.1462,196.266 48.6462,196.599 51.5,192.5C 52.4287,193.689 52.762,195.022 52.5,196.5C 34.8333,196.5 17.1667,196.5 -0.5,196.5C -0.5,189.5 -0.5,182.5 -0.5,175.5C 8.93897,176.526 15.6056,176.526 19.5,175.5C 19.5,178.167 19.5,180.833 19.5,183.5C 22.3609,183.658 25.0276,182.992 27.5,181.5C 28.6721,181.919 29.6721,182.585 30.5,183.5C 33.7577,182.583 37.091,182.249 40.5,182.5 Z"/></g>
<g><path style="opacity:1" fill="#f7f8fa" d="M 40.5,172.5 C 58.7632,187.587 79.7632,194.254 103.5,192.5C 101.236,194.681 98.5692,196.015 95.5,196.5C 81.1667,196.5 66.8333,196.5 52.5,196.5C 52.762,195.022 52.4287,193.689 51.5,192.5C 48.6462,196.599 47.1462,196.266 47,191.5C 46.3873,195.318 44.3873,196.318 41,194.5C 39.3303,190.51 39.1637,186.51 40.5,182.5C 46.3164,182.683 46.8164,181.35 42,178.5C 41.3828,177.551 41.5494,176.718 42.5,176C 41.1667,175.667 39.8333,175.333 38.5,175C 39.756,174.583 40.4226,173.75 40.5,172.5 Z"/></g>
<g><path style="opacity:1" fill="#191918" d="M 33.5,155.5 C 34.1667,155.5 34.8333,155.5 35.5,155.5C 34.7701,156.712 33.7701,157.712 32.5,158.5C 33,159.5 33.5,160.5 34,161.5C 41.1852,169.196 49.3518,175.529 58.5,180.5C 72.2379,187.791 86.9045,190.791 102.5,189.5C 111.773,189.017 120.44,186.684 128.5,182.5C 132.922,180.594 137.256,178.428 141.5,176C 147.688,171.308 153.354,166.141 158.5,160.5C 159.043,160.56 159.376,160.893 159.5,161.5C 158.37,162.622 157.703,163.956 157.5,165.5C 148.174,176.161 136.84,183.828 123.5,188.5C 116.967,190.466 110.3,191.8 103.5,192.5C 79.7632,194.254 58.7632,187.587 40.5,172.5C 35.0818,168.417 30.7485,163.417 27.5,157.5C 28.5,157.5 29.5,157.5 30.5,157.5C 31.7095,157.068 32.7095,156.401 33.5,155.5 Z"/></g>
<g><path style="opacity:1" fill="#1a1610" d="M 119.5,178.5 C 117.5,178.5 115.5,178.5 113.5,178.5C 113.5,180.5 113.5,182.5 113.5,184.5C 111.833,184.5 110.167,184.5 108.5,184.5C 108.802,181.941 108.468,179.607 107.5,177.5C 107.685,175.804 108.519,174.471 110,173.5C 109.914,176.881 110.081,180.214 110.5,183.5C 111.324,180.215 111.824,176.882 112,173.5C 113.913,176.28 116.413,177.947 119.5,178.5 Z"/></g>
<g><path style="opacity:1" fill="#151f19" d="M 101.5,166.5 C 101.833,166.5 102.167,166.5 102.5,166.5C 100.568,169.177 100.068,172.177 101,175.5C 102.789,177.229 104.956,177.896 107.5,177.5C 105.712,178.622 103.712,178.789 101.5,178C 97.5459,174.104 97.5459,170.271 101.5,166.5 Z"/></g>
<g><path style="opacity:1" fill="#1f2c24" d="M 90.5,166.5 C 92.5342,167.591 93.8676,169.257 94.5,171.5C 93.9902,177.856 90.8235,179.856 85,177.5C 84.5034,179.81 84.3367,182.143 84.5,184.5C 82.8333,184.5 81.1667,184.5 79.5,184.5C 79.8016,181.941 79.4682,179.607 78.5,177.5C 79.5045,176.317 80.3378,174.984 81,173.5C 81.5423,178.721 82.3756,178.721 83.5,173.5C 84.4682,174.489 85.6349,175.156 87,175.5C 88.6687,174.834 90.1687,174.834 91.5,175.5C 91.9972,173.784 92.3306,172.117 92.5,170.5C 91.3698,169.378 90.7031,168.044 90.5,166.5 Z"/></g>
<g><path style="opacity:1" fill="#2f5a3d" d="M 84.5,161.5 C 86.9095,162.701 88.9095,164.367 90.5,166.5C 90.7031,168.044 91.3698,169.378 92.5,170.5C 92.3306,172.117 91.9972,173.784 91.5,175.5C 90.1687,174.834 88.6687,174.834 87,175.5C 85.6349,175.156 84.4682,174.489 83.5,173.5C 82.3756,178.721 81.5423,178.721 81,173.5C 80.3378,174.984 79.5045,176.317 78.5,177.5C 73.3178,176.682 71.4845,173.682 73,168.5C 76.2974,166.205 79.2974,163.538 82,160.5C 82.6708,161.252 83.5041,161.586 84.5,161.5 Z"/></g>
<g><path style="opacity:1" fill="#305b41" d="M 121.5,175.5 C 121.573,177.027 120.906,178.027 119.5,178.5C 116.413,177.947 113.913,176.28 112,173.5C 111.824,176.882 111.324,180.215 110.5,183.5C 110.081,180.214 109.914,176.881 110,173.5C 108.519,174.471 107.685,175.804 107.5,177.5C 104.956,177.896 102.789,177.229 101,175.5C 100.068,172.177 100.568,169.177 102.5,166.5C 103.891,164.11 105.891,162.443 108.5,161.5C 109.496,161.586 110.329,161.252 111,160.5C 113.826,161.917 113.993,163.417 111.5,165C 113.373,166.085 115.04,167.418 116.5,169C 118.18,169.034 119.68,169.201 121,169.5C 121.495,171.473 121.662,173.473 121.5,175.5 Z"/></g>
</svg>
