<svg width="203mm" height="917.102" viewBox="0 0 203 242.65" xmlns="http://www.w3.org/2000/svg"><path d="M1.5 1.5v139.77a99.828 99.828 0 0 0 29.29 70.628 100.058 100.058 0 0 0 70.71 29.255 100.059 100.059 0 0 0 70.71-29.255 99.822 99.822 0 0 0 29.29-70.628V1.5z" fill="#da121a"/><g stroke="#000" color="#000"><path d="M108.956 4.65c-13.861.22-23.737 16.65-22.239 28.626l-26.93 5.522.138 3.713c2.474 1.247 2.382 6.318.285 7.184l.093 2.763 7.854 1.68c-2.34 1.839-4.427 4.157-5.999 7.015-5.627-6.272-16.165-5.285-14.65 8.783-5.023 2.324-7.914 6.547-7.082 13.857-5.417-2.64-10.61-5.962-14.848-9.767-3.269 3.147-7.41 5.035-11.594 7.04.218 7.944.333 18.758.114 26.911-.144 5.385-.246 9.533-1.233 11.194 4.636 2.874 4.26 10.621 1.62 10.841-.551 1.953.145 4.617-2.184 6.246l17.074 12.033c.805-5.912 1.742-11.407 3.602-13.979-2.188-2.245-2.735-4.353.54-4.115l.208-2.626c-3.992-6.97-.844-18.31-.965-24.76 9.53 7.797 20.194 15.4 37.707 18.623-2.591 4.131-6.128 8.12-11.997 12.65l-1.56 1.206 5.672 4.252-13.225 6.355v11.543l13.524-5.623v4.477l-21.191 9.115.254 10.76 11.56-3.127v1.332l-32.042 9.902 22.84 15.972h32.885l6.21-11.874 7.805 11.874h65.946c.477-4.838.89-6.653 2.456-11.247 6.28-18.418-2.632-37.98-15.783-49.838-12.136-10.942-18.276-18.289-18.071-26.288-14.479 4.028-28.14 6.037-41.288 5.098-1.856-2.754-3.523-5.732-5.381-9.198l-1.512-2.82-1.199 2.967c-1.085 2.685-2.077 5.139-3.18 7.477-14.482-3.06-28.423-10.194-42.257-22.736-.798-.757-2.232-.22-2.332.722-1.21 11.458-3.005 21.483-1.025 33.772l-3.156.009.098 2.698 2.033 1.125-.38 8.828-8.916-6.335c1.744-6.13 5.715-10.531 1.88-13.993.305-11.456 1.87-22.43 1.083-34.383 2.095-1.073 4.096-2.178 5.662-3.428 7.73 4.79 15.79 9.333 24.936 13.062l3.395-5.082c-11.429-9.211-4.917-14.733 1.478-15.583-5.977-8.892-2.335-15.148 10.69-8.155.71-6.915 4.761-10.761 15.223-12.697l-.04-2.358-13.346-2.669-2.085-6.574 26.163-5.02c-.892-11.737 4.43-22.803 11.517-27.016l-4.186 23.988 17.772 4.095c7.391-8.155 18.09-13.996 27.431-15.193l-15.535 18.512 15.491 4.465 16.14-13.759c-.588 3.827-2.177 6.972-4.334 10.637-.915 1.555.835 3.214 2.377 2.959 6.518-1.078 12.844-3.375 18.44-5.223-20.482 18.61-52.623 16.881-74.24 5.79-2.642-1.223-4.888.898-2.403 3.041 3.4 2.933 5.863 7.114 6.659 12.321l-1.987.076-9.62-9.75c-.932-.943-2.901-1.428-3.454.407L81.334 89.586c17.476-1.44 44.811-5.492 60.195-2.926 9.96 1.661 15.16 6.034 17.436 14.682l-6.82 2.274c3.798 16.35-2.226 36.923 15.598 42.464.334 14.434 2.72 28.058 4.838 42.072-2.824 3.762-4.901 9.243-5.661 15.926H95.416c-1.843 0-2.38 4.244 0 4.244h76.66c.513-6.418 2.084-12.176 5.891-17.197 1.689-2.226.152-2.936-.144-4.79-2.516-15.711-4.607-29.58-4.915-44.38-16.798-4.837-13.283-22.167-14.744-34.028l6.667-2.846c-.881-14.609-10.206-21.236-21.384-23.372-13.585-2.595-39.878.395-54.944 2.34l7.413-25.24 7.807 8.567 9.133-.425c-.031-4.232-.912-8.762-2.505-12.14 28.37 14.206 66.125 4.372 77.276-21.34-5.694-.409-6.647 4.04-22.413 6.534 1.317-6.105 1.564-12.21 1.282-18.316l-22.567 19.397-5.079-1.96 17.136-21.464c-17.122-.636-33.078 4.918-41.012 15.529l-9.622-2.239zm3.725 116.68c2.364 4.893 7.342 2.08 10.262 1.445 6.36 13.246 16.19 18.162 24.127 28.263 6.663 8.48 13.642 26.246 8.159 35.123-1.846 2.99-2.309 5.6-2.527 11.787h-29.746l9.231-11.533-28.353-9.392v-3.012l11.237 3.871 2.713-11.2-21.723-9.04.505-3.619 7.723 2.017 3.4-10.867-17.003-6.093 7.492-7.16-1.377-1.067c-3.507-2.72-6.197-5.237-8.454-7.813 7.155.065 15.2-.458 24.334-1.71z" fill="#fff"/><path d="M77.951 112.875c4.067 7.32 8.104 13.028 15.707 19.211l-8.559 8.178 18.865 6.761-1.685 5.387-8.217-2.144-1.293 9.252 21.494 8.945-1.334 5.506-12.096-4.168v9.386l26.42 8.75-7.625 10.008h-26.76l-9.773-15.743-7.774 15.744H45.278l-17.223-12.572 28.447-8.79v-7.464l-11.652 3.152-.115-4.91 21.145-9.094v-10.949l-13.523 5.623v-5.16l15.977-7.68-6.588-4.937c9.3-7.606 12.934-14.403 16.205-22.291z" fill="#078930"/><g fill="#da121a" stroke-linecap="round"><path d="M64.354 175.376c-4.682 0-8.516 3.835-8.516 8.518s3.834 8.515 8.516 8.515 8.518-3.833 8.518-8.515-3.836-8.518-8.518-8.518zm0 3.602c2.737 0 4.918 2.179 4.918 4.916s-2.181 4.916-4.918 4.916-4.916-2.18-4.916-4.916 2.18-4.916 4.916-4.916zM91.143 170.456c-4.033 0-7.335 3.303-7.335 7.336s3.302 7.335 7.335 7.335c4.033 0 7.336-3.302 7.336-7.335s-3.303-7.336-7.336-7.336zm0 3.102c2.357 0 4.236 1.877 4.236 4.234s-1.879 4.235-4.236 4.235c-2.357 0-4.234-1.878-4.234-4.235s1.877-4.234 4.234-4.234zM77.016 150.896c-5.15 0-9.366 4.218-9.366 9.368s4.216 9.366 9.366 9.366c5.15 0 9.368-4.216 9.368-9.366 0-5.15-4.218-9.368-9.368-9.368zm0 3.961c3.01 0 5.41 2.397 5.41 5.407s-2.4 5.407-5.41 5.407c-3.01 0-5.407-2.397-5.407-5.407s2.397-5.407 5.407-5.407zM78.528 123.778c-3.955 0-7.193 3.24-7.193 7.194 0 3.955 3.238 7.193 7.193 7.193 3.955 0 7.194-3.238 7.194-7.192 0-3.955-3.24-7.195-7.194-7.195zm0 3.042c2.312 0 4.154 1.84 4.154 4.153s-1.843 4.152-4.154 4.152c-2.312 0-4.152-1.84-4.152-4.152s1.84-4.153 4.152-4.153z"/></g></g><path d="m83.088 41.846 11.367-2.547c.594 1.914.97 3.852-.668 6.013-4.247.01-7.563-1.626-10.7-3.466z" fill="#fff" stroke="#000" stroke-linejoin="round"/><path d="M1.5 1.5v139.77a99.828 99.828 0 0 0 29.29 70.628 100.058 100.058 0 0 0 70.71 29.255 100.059 100.059 0 0 0 70.71-29.255 99.822 99.822 0 0 0 29.29-70.628V1.5z" fill="none" stroke="#000" stroke-linecap="square" stroke-miterlimit="8" stroke-width="3"/></svg>