<?xml version="1.0" encoding="UTF-8"?>
<!DOCTYPE svg PUBLIC "-//W3C//DTD SVG 1.1//EN" "http://www.w3.org/Graphics/SVG/1.1/DTD/svg11.dtd">
<svg xmlns="http://www.w3.org/2000/svg" version="1.1" width="184px" height="187px" style="shape-rendering:geometricPrecision; text-rendering:geometricPrecision; image-rendering:optimizeQuality; fill-rule:evenodd; clip-rule:evenodd" xmlns:xlink="http://www.w3.org/1999/xlink">
<g><path style="opacity:1" fill="#22201f" d="M 139.5,-0.5 C 153.833,-0.5 168.167,-0.5 182.5,-0.5C 182.5,3.83333 182.5,8.16667 182.5,12.5C 181.5,12.5 180.5,12.5 179.5,12.5C 179.5,9.16667 179.5,5.83333 179.5,2.5C 137.5,2.5 95.5,2.5 53.5,2.5C 92.6645,1.6674 131.998,1.1674 171.5,1C 160.659,0.830376 149.992,0.330376 139.5,-0.5 Z"/></g>
<g><path style="opacity:1" fill="#fcfcfc" d="M 53.5,2.5 C 95.5,2.5 137.5,2.5 179.5,2.5C 179.5,5.83333 179.5,9.16667 179.5,12.5C 178.145,38.6835 176.812,65.0168 175.5,91.5C 168.5,91.5 161.5,91.5 154.5,91.5C 154.5,86.5 154.5,81.5 154.5,76.5C 157.833,77.8331 161.166,79.1664 164.5,80.5C 165.647,80.1822 166.481,79.5156 167,78.5C 168.343,79.2135 169.676,78.8802 171,77.5C 171.212,74.7478 172.045,72.2478 173.5,70C 173.355,69.228 173.022,68.5613 172.5,68C 169.167,67.6667 165.833,67.3333 162.5,67C 161.5,66 160.5,65 159.5,64C 161.727,63.879 163.56,63.0456 165,61.5C 165.414,61.9574 165.914,62.2907 166.5,62.5C 168.827,60.2171 171.494,58.3837 174.5,57C 171.972,55.6841 171.972,54.5174 174.5,53.5C 173.5,52.1667 172.5,50.8333 171.5,49.5C 165.998,52.8679 161.665,51.8679 158.5,46.5C 158.667,46.1667 158.833,45.8333 159,45.5C 161.522,48.3264 163.522,47.9931 165,44.5C 167.085,45.6469 168.585,44.9803 169.5,42.5C 169.5,40.1667 169.5,37.8333 169.5,35.5C 166.26,35.0244 162.927,35.0244 159.5,35.5C 158.522,35.189 157.855,34.5223 157.5,33.5C 159.332,32.7515 160.999,31.7515 162.5,30.5C 163.086,30.7093 163.586,31.0426 164,31.5C 165.679,29.1557 166.846,26.6557 167.5,24C 165.463,21.5864 162.963,21.4198 160,23.5C 157.915,22.8758 156.082,21.8758 154.5,20.5C 155.217,17.6771 156.217,15.0104 157.5,12.5C 155.345,12.628 153.345,12.128 151.5,11C 149.54,8.89386 147.706,6.72719 146,4.5C 143.706,8.79174 140.206,11.6251 135.5,13C 134.978,13.5613 134.645,14.228 134.5,15C 135.477,16.497 136.477,17.997 137.5,19.5C 136.871,21.9971 135.204,23.3304 132.5,23.5C 129.371,21.7843 126.704,22.2843 124.5,25C 126.807,25.3542 127.141,26.3542 125.5,28C 126.065,30.2979 127.232,31.1312 129,30.5C 130.416,33.1948 132.416,33.8614 135,32.5C 135.112,35.0563 133.779,36.3896 131,36.5C 129.016,36.2587 127.183,35.5921 125.5,34.5C 124.354,35.1449 123.354,35.9783 122.5,37C 123.574,37.7387 124.241,38.7387 124.5,40C 123.019,43.8526 124.186,45.0193 128,43.5C 129.077,46.9531 131.244,48.1198 134.5,47C 133.743,48.5122 132.743,49.8455 131.5,51C 127.463,51.6067 123.463,51.44 119.5,50.5C 118.933,56.3753 121.266,60.3753 126.5,62.5C 127.713,62.2528 128.38,61.5862 128.5,60.5C 129.404,61.209 129.737,62.209 129.5,63.5C 134.371,63.5782 134.371,64.7448 129.5,67C 126.776,67.2695 124.109,67.7695 121.5,68.5C 120.571,69.6888 120.238,71.0222 120.5,72.5C 121.791,72.2627 122.791,72.596 123.5,73.5C 122.522,73.811 121.855,74.4777 121.5,75.5C 122.48,76.9814 123.647,78.3147 125,79.5C 130.08,78.3977 135.246,77.731 140.5,77.5C 140.5,82.1667 140.5,86.8333 140.5,91.5C 126.833,91.5 113.167,91.5 99.5,91.5C 99.2743,86.4376 99.6076,81.4376 100.5,76.5C 100.833,76.5 101.167,76.5 101.5,76.5C 101.414,77.4959 101.748,78.3292 102.5,79C 104.906,79.3057 107.073,80.139 109,81.5C 110.653,81.1802 111.653,80.1802 112,78.5C 113.587,79.727 114.921,79.3937 116,77.5C 116.492,76.451 116.326,75.451 115.5,74.5C 116.491,73.3348 117.491,72.1681 118.5,71C 118.333,70.5 118.167,70 118,69.5C 114.6,68.4604 111.1,67.7938 107.5,67.5C 106.5,66.1667 105.5,64.8333 104.5,63.5C 106.451,63.7733 107.951,63.1066 109,61.5C 111.501,63.0558 113.001,62.3892 113.5,59.5C 115.714,59.7093 117.381,58.876 118.5,57C 118.261,55.2189 117.928,53.3856 117.5,51.5C 116.386,50.2241 115.386,50.2241 114.5,51.5C 109.842,52.4858 106.176,51.1524 103.5,47.5C 105.312,47.574 107.312,47.2407 109.5,46.5C 111.737,45.8679 113.403,44.5346 114.5,42.5C 114.354,40.1943 114.021,37.861 113.5,35.5C 113.167,35.1667 112.833,34.8333 112.5,34.5C 108.718,37.4622 105.384,37.1289 102.5,33.5C 103.325,32.6143 104.325,32.281 105.5,32.5C 107.445,31.9717 109.445,30.8051 111.5,29C 110.657,27.2134 110.49,25.3801 111,23.5C 109.055,22.3078 107.055,22.3078 105,23.5C 103.1,22.9231 101.267,22.2565 99.5,21.5C 99.0842,18.6405 100.084,16.4738 102.5,15C 100.199,12.8442 97.5325,11.1776 94.5,10C 93.7734,8.60119 93.2734,7.10119 93,5.5C 92.4387,4.97814 91.772,4.6448 91,4.5C 87.9651,9.03566 84.1317,12.7023 79.5,15.5C 80.4013,17.6877 81.7347,19.521 83.5,21C 82.944,21.3826 82.6107,21.8826 82.5,22.5C 81.5084,22.3284 80.8417,22.6618 80.5,23.5C 77.8015,23.5339 75.3015,22.8672 73,21.5C 72.3333,22.1667 71.6667,22.8333 71,23.5C 71.6667,25.5 71.6667,27.5 71,29.5C 72.3561,30.3802 73.8561,30.7135 75.5,30.5C 75.5,31.5 75.5,32.5 75.5,33.5C 77.1439,33.7135 78.6439,33.3802 80,32.5C 80.1849,34.8262 79.0182,36.1595 76.5,36.5C 74.6175,35.9757 72.7842,35.3091 71,34.5C 68.1064,36.3264 67.9397,38.3264 70.5,40.5C 70.0233,41.4776 69.3567,42.3109 68.5,43C 71.1116,44.8895 73.9449,46.3895 77,47.5C 77.9454,47.0946 78.6121,46.428 79,45.5C 79.3845,47.1966 79.2178,48.8632 78.5,50.5C 77.1667,50.8333 75.8333,51.1667 74.5,51.5C 72.0799,51.7076 69.7466,51.3742 67.5,50.5C 66.1861,51.3128 65.0195,52.3128 64,53.5C 63.6532,51.8198 62.6532,50.8198 61,50.5C 57.8792,51.5359 54.7125,51.7026 51.5,51C 50.6433,50.3109 49.9767,49.4776 49.5,48.5C 52.1668,47.3655 54.8334,46.3655 57.5,45.5C 59.676,44.2867 60.0093,42.62 58.5,40.5C 60.7983,38.5147 60.6316,36.5147 58,34.5C 54.6163,37.3206 51.4496,37.154 48.5,34C 49.7932,33.51 51.1266,33.3433 52.5,33.5C 52.3505,32.448 52.5172,31.448 53,30.5C 54,31.8333 55,31.8333 56,30.5C 55.3019,28.2362 55.8019,26.4028 57.5,25C 56.186,22.4149 54.186,21.9149 51.5,23.5C 48.3216,23.3269 46.3216,21.6603 45.5,18.5C 47.1045,16.8211 47.7711,14.8211 47.5,12.5C 45.3453,12.628 43.3453,12.128 41.5,11C 37.7359,3.80052 34.0693,3.80052 30.5,11C 28.6547,12.128 26.6547,12.628 24.5,12.5C 24.5,13.8333 24.5,15.1667 24.5,16.5C 25.675,16.281 26.675,16.6143 27.5,17.5C 27.3306,19.1173 26.9972,20.784 26.5,22.5C 23.6818,23.7826 20.8484,23.7826 18,22.5C 14.7755,23.4239 14.2755,24.7572 16.5,26.5C 15.2889,27.7202 15.2889,28.8869 16.5,30C 18.4434,31.5555 20.6101,32.7221 23,33.5C 23.772,33.3552 24.4387,33.0219 25,32.5C 25.195,33.8193 25.0283,35.1526 24.5,36.5C 21.1174,36.7428 17.9508,36.0761 15,34.5C 11.9233,36.3019 11.7567,38.3019 14.5,40.5C 13.1966,42.5894 13.6966,44.2561 16,45.5C 16.414,45.0426 16.914,44.7093 17.5,44.5C 18.9551,47.3566 20.9551,48.0232 23.5,46.5C 23.9693,45.2546 24.3026,45.4213 24.5,47C 24.0217,48.3026 23.355,49.4693 22.5,50.5C 20.7028,51.7298 18.7028,52.3964 16.5,52.5C 13.3579,49.6961 10.6912,50.0294 8.5,53.5C 9.02527,54.1924 9.69194,54.6924 10.5,55C 9.66887,58.0216 11.0022,59.5216 14.5,59.5C 14.5,60.5 14.5,61.5 14.5,62.5C 17.7626,63.1381 20.9293,63.1381 24,62.5C 24.6667,63.1667 24.6667,63.8333 24,64.5C 20.3286,67.1958 16.1619,68.1958 11.5,67.5C 11.1667,69.5 10.8333,71.5 10.5,73.5C 11.552,73.3505 12.552,73.5172 13.5,74C 12.239,77.446 13.5723,79.446 17.5,80C 21.2277,80.7347 24.561,79.9014 27.5,77.5C 28.1667,77.8333 28.8333,78.1667 29.5,78.5C 30.4922,82.7828 30.8256,87.1161 30.5,91.5C 23.1667,91.5 15.8333,91.5 8.5,91.5C 6.71611,61.8404 5.04944,32.1738 3.5,2.5C 20.1667,2.5 36.8333,2.5 53.5,2.5 Z"/></g>
<g><path style="opacity:1" fill="#fefefe" d="M -0.5,4.5 C 2.10048,39.5049 4.76715,74.5049 7.5,109.5C 7.5,110.5 7.5,111.5 7.5,112.5C 8.99837,120.665 11.665,128.332 15.5,135.5C 15.5,135.833 15.5,136.167 15.5,136.5C 24.4449,155.112 38.1116,169.112 56.5,178.5C 61.2896,180.763 66.2896,182.43 71.5,183.5C 74.5349,184.374 77.5349,185.374 80.5,186.5C 53.5,186.5 26.5,186.5 -0.5,186.5C -0.5,125.833 -0.5,65.1667 -0.5,4.5 Z"/></g>
<g><path style="opacity:1" fill="#333336" d="M -0.5,-0.5 C 46.1667,-0.5 92.8333,-0.5 139.5,-0.5C 149.992,0.330376 160.659,0.830376 171.5,1C 131.998,1.1674 92.6645,1.6674 53.5,2.5C 36.8333,2.5 20.1667,2.5 3.5,2.5C 5.04944,32.1738 6.71611,61.8404 8.5,91.5C 7.54885,92.9187 7.21552,94.5853 7.5,96.5C 7.5,100.833 7.5,105.167 7.5,109.5C 4.76715,74.5049 2.10048,39.5049 -0.5,4.5C -0.5,2.83333 -0.5,1.16667 -0.5,-0.5 Z"/></g>
<g><path style="opacity:1" fill="#fdfdfd" d="M 182.5,-0.5 C 182.833,-0.5 183.167,-0.5 183.5,-0.5C 183.5,61.8333 183.5,124.167 183.5,186.5C 156.833,186.5 130.167,186.5 103.5,186.5C 105.833,185.833 108.167,185.167 110.5,184.5C 134.684,179.499 153.184,166.499 166,145.5C 168.403,141.365 170.237,137.032 171.5,132.5C 173.806,128.915 175.139,124.915 175.5,120.5C 178.008,112.829 179.008,104.829 178.5,96.5C 180.081,68.6678 181.414,40.6678 182.5,12.5C 182.5,8.16667 182.5,3.83333 182.5,-0.5 Z"/></g>
<g><path style="opacity:1" fill="#364b39" d="M 99.5,21.5 C 95.4482,21.6941 91.2816,21.3608 87,20.5C 85.8904,22.0368 84.3904,22.7035 82.5,22.5C 82.6107,21.8826 82.944,21.3826 83.5,21C 81.7347,19.521 80.4013,17.6877 79.5,15.5C 84.1317,12.7023 87.9651,9.03566 91,4.5C 91.772,4.6448 92.4387,4.97814 93,5.5C 93.2734,7.10119 93.7734,8.60119 94.5,10C 97.5325,11.1776 100.199,12.8442 102.5,15C 100.084,16.4738 99.0842,18.6405 99.5,21.5 Z"/></g>
<g><path style="opacity:1" fill="#34503a" d="M 57.5,45.5 C 53.7016,44.5166 49.7016,44.1832 45.5,44.5C 46.8032,41.1497 46.1365,40.8164 43.5,43.5C 42.7492,42.624 42.2492,41.624 42,40.5C 41.4242,42.3774 41.5909,44.2108 42.5,46C 41.8626,47.7126 40.8626,47.8793 39.5,46.5C 38.5713,47.6888 38.238,49.0222 38.5,50.5C 37.5,50.5 36.5,50.5 35.5,50.5C 35.6602,48.8008 35.4935,47.1341 35,45.5C 34.2904,46.9733 33.1238,47.6399 31.5,47.5C 31.5,46.5 31.5,45.5 31.5,44.5C 30.5,44.5 29.5,44.5 28.5,44.5C 28.6567,43.1266 28.49,41.7932 28,40.5C 27.7978,42.2556 27.2978,43.9223 26.5,45.5C 25.2638,44.7542 23.9305,44.4208 22.5,44.5C 19.8221,43.9992 17.8221,42.4992 16.5,40C 19.6009,39.3621 22.2676,38.1954 24.5,36.5C 25.0283,35.1526 25.195,33.8193 25,32.5C 24.4387,33.0219 23.772,33.3552 23,33.5C 20.6101,32.7221 18.4434,31.5555 16.5,30C 15.2889,28.8869 15.2889,27.7202 16.5,26.5C 14.2755,24.7572 14.7755,23.4239 18,22.5C 20.8484,23.7826 23.6818,23.7826 26.5,22.5C 26.9972,20.784 27.3306,19.1173 27.5,17.5C 26.675,16.6143 25.675,16.281 24.5,16.5C 24.5,15.1667 24.5,13.8333 24.5,12.5C 26.6547,12.628 28.6547,12.128 30.5,11C 34.0693,3.80052 37.7359,3.80052 41.5,11C 43.3453,12.128 45.3453,12.628 47.5,12.5C 47.7711,14.8211 47.1045,16.8211 45.5,18.5C 46.3216,21.6603 48.3216,23.3269 51.5,23.5C 54.186,21.9149 56.186,22.4149 57.5,25C 55.8019,26.4028 55.3019,28.2362 56,30.5C 55,31.8333 54,31.8333 53,30.5C 52.5172,31.448 52.3505,32.448 52.5,33.5C 51.1266,33.3433 49.7932,33.51 48.5,34C 51.4496,37.154 54.6163,37.3206 58,34.5C 60.6316,36.5147 60.7983,38.5147 58.5,40.5C 60.0093,42.62 59.676,44.2867 57.5,45.5 Z"/></g>
<g><path style="opacity:1" fill="#37573d" d="M 99.5,21.5 C 101.267,22.2565 103.1,22.9231 105,23.5C 107.055,22.3078 109.055,22.3078 111,23.5C 110.49,25.3801 110.657,27.2134 111.5,29C 109.445,30.8051 107.445,31.9717 105.5,32.5C 103.81,31.8969 102.31,30.8969 101,29.5C 99.9826,32.028 98.8159,32.028 97.5,29.5C 95.6329,32.2291 94.6329,31.8957 94.5,28.5C 93.325,28.281 92.325,28.6143 91.5,29.5C 92.3482,31.4086 92.6816,33.4086 92.5,35.5C 91.5,35.5 90.5,35.5 89.5,35.5C 89.5,33.8333 89.5,32.1667 89.5,30.5C 86.2893,30.988 83.456,30.3213 81,28.5C 79.9335,30.2826 78.4335,30.7826 76.5,30C 76.8333,29.6667 77.1667,29.3333 77.5,29C 75.246,28.3763 73.5794,27.043 72.5,25C 73,24.5 73.5,24 74,23.5C 76.583,25.1337 79.083,25.3003 81.5,24C 81.2716,23.6012 80.9382,23.4346 80.5,23.5C 80.8417,22.6618 81.5084,22.3284 82.5,22.5C 84.3904,22.7035 85.8904,22.0368 87,20.5C 91.2816,21.3608 95.4482,21.6941 99.5,21.5 Z"/></g>
<g><path style="opacity:1" fill="#344839" d="M 154.5,20.5 C 145.636,22.6913 136.636,24.0247 127.5,24.5C 127.215,26.288 127.548,27.9547 128.5,29.5C 129.167,29.1667 129.833,28.8333 130.5,28.5C 133.401,30.1617 136.401,31.6617 139.5,33C 136.006,36.7245 131.673,38.7245 126.5,39C 130.049,40.4606 133.716,41.6272 137.5,42.5C 137.815,44.2259 137.981,45.8925 138,47.5C 137.586,47.0426 137.086,46.7093 136.5,46.5C 133.962,51.942 129.628,54.6086 123.5,54.5C 122.347,55.6868 122.347,56.6868 123.5,57.5C 124.344,59.7593 126.011,60.7593 128.5,60.5C 128.38,61.5862 127.713,62.2528 126.5,62.5C 121.266,60.3753 118.933,56.3753 119.5,50.5C 123.463,51.44 127.463,51.6067 131.5,51C 132.743,49.8455 133.743,48.5122 134.5,47C 131.244,48.1198 129.077,46.9531 128,43.5C 124.186,45.0193 123.019,43.8526 124.5,40C 124.241,38.7387 123.574,37.7387 122.5,37C 123.354,35.9783 124.354,35.1449 125.5,34.5C 127.183,35.5921 129.016,36.2587 131,36.5C 133.779,36.3896 135.112,35.0563 135,32.5C 132.416,33.8614 130.416,33.1948 129,30.5C 127.232,31.1312 126.065,30.2979 125.5,28C 127.141,26.3542 126.807,25.3542 124.5,25C 126.704,22.2843 129.371,21.7843 132.5,23.5C 135.204,23.3304 136.871,21.9971 137.5,19.5C 136.477,17.997 135.477,16.497 134.5,15C 134.645,14.228 134.978,13.5613 135.5,13C 140.206,11.6251 143.706,8.79174 146,4.5C 147.706,6.72719 149.54,8.89386 151.5,11C 153.345,12.128 155.345,12.628 157.5,12.5C 156.217,15.0104 155.217,17.6771 154.5,20.5 Z"/></g>
<g><path style="opacity:1" fill="#293c2d" d="M 80.5,23.5 C 80.9382,23.4346 81.2716,23.6012 81.5,24C 79.083,25.3003 76.583,25.1337 74,23.5C 73.5,24 73,24.5 72.5,25C 73.5794,27.043 75.246,28.3763 77.5,29C 77.1667,29.3333 76.8333,29.6667 76.5,30C 78.4335,30.7826 79.9335,30.2826 81,28.5C 83.456,30.3213 86.2893,30.988 89.5,30.5C 89.5,32.1667 89.5,33.8333 89.5,35.5C 90.5,35.5 91.5,35.5 92.5,35.5C 92.6816,33.4086 92.3482,31.4086 91.5,29.5C 92.325,28.6143 93.325,28.281 94.5,28.5C 94.6329,31.8957 95.6329,32.2291 97.5,29.5C 98.8159,32.028 99.9826,32.028 101,29.5C 102.31,30.8969 103.81,31.8969 105.5,32.5C 104.325,32.281 103.325,32.6143 102.5,33.5C 105.384,37.1289 108.718,37.4622 112.5,34.5C 112.833,34.8333 113.167,35.1667 113.5,35.5C 114.021,37.861 114.354,40.1943 114.5,42.5C 113.403,44.5346 111.737,45.8679 109.5,46.5C 107.312,47.2407 105.312,47.574 103.5,47.5C 106.176,51.1524 109.842,52.4858 114.5,51.5C 114.217,52.2891 113.717,52.9558 113,53.5C 107.398,53.8933 103.398,51.5599 101,46.5C 100.333,47.8333 99.6667,47.8333 99,46.5C 98.5172,47.448 98.3505,48.448 98.5,49.5C 96.1103,49.8551 93.777,50.5217 91.5,51.5C 89.2242,50.721 87.0575,49.721 85,48.5C 83.9895,48.8919 83.4895,49.5585 83.5,50.5C 81.2778,46.288 80.1112,46.6213 80,51.5C 79.6174,50.944 79.1174,50.6107 78.5,50.5C 79.2178,48.8632 79.3845,47.1966 79,45.5C 78.6121,46.428 77.9454,47.0946 77,47.5C 73.9449,46.3895 71.1116,44.8895 68.5,43C 69.3567,42.3109 70.0233,41.4776 70.5,40.5C 67.9397,38.3264 68.1064,36.3264 71,34.5C 72.7842,35.3091 74.6175,35.9757 76.5,36.5C 79.0182,36.1595 80.1849,34.8262 80,32.5C 78.6439,33.3802 77.1439,33.7135 75.5,33.5C 75.5,32.5 75.5,31.5 75.5,30.5C 73.8561,30.7135 72.3561,30.3802 71,29.5C 71.6667,27.5 71.6667,25.5 71,23.5C 71.6667,22.8333 72.3333,22.1667 73,21.5C 75.3015,22.8672 77.8015,23.5339 80.5,23.5 Z"/></g>
<g><path style="opacity:1" fill="#3b3438" d="M 179.5,12.5 C 180.5,12.5 181.5,12.5 182.5,12.5C 181.414,40.6678 180.081,68.6678 178.5,96.5C 178.813,93.7531 178.48,91.0865 177.5,88.5C 176.824,89.6016 176.158,90.6016 175.5,91.5C 176.812,65.0168 178.145,38.6835 179.5,12.5 Z"/></g>
<g><path style="opacity:1" fill="#315135" d="M 154.5,20.5 C 156.082,21.8758 157.915,22.8758 160,23.5C 162.963,21.4198 165.463,21.5864 167.5,24C 166.846,26.6557 165.679,29.1557 164,31.5C 163.586,31.0426 163.086,30.7093 162.5,30.5C 160.999,31.7515 159.332,32.7515 157.5,33.5C 157.855,34.5223 158.522,35.189 159.5,35.5C 161.969,36.3171 164.635,36.8171 167.5,37C 167.943,38.5185 167.276,39.6852 165.5,40.5C 166.441,40.4895 167.108,40.9895 167.5,42C 166.352,43.726 165.185,43.5593 164,41.5C 163.517,42.448 163.351,43.448 163.5,44.5C 161.738,44.6427 160.071,44.3094 158.5,43.5C 156.347,49.3228 158.347,52.3228 164.5,52.5C 167.009,51.998 169.342,51.998 171.5,52.5C 169.78,53.934 167.78,54.7674 165.5,55C 172.167,55.6667 172.167,56.3333 165.5,57C 164.663,58.0113 164.33,59.1779 164.5,60.5C 162.234,60.8588 160.401,60.1922 159,58.5C 157.667,61.1667 156.333,61.1667 155,58.5C 154.119,60.2735 152.953,60.9402 151.5,60.5C 152.074,62.0589 152.74,63.5589 153.5,65C 150.921,65.4317 149.421,64.2651 149,61.5C 148.51,62.7932 148.343,64.1266 148.5,65.5C 147.167,65.5 145.833,65.5 144.5,65.5C 144.649,64.448 144.483,63.448 144,62.5C 143.282,63.4506 142.449,63.6172 141.5,63C 142.777,60.5341 142.777,58.0341 141.5,55.5C 140.749,56.376 140.249,57.376 140,58.5C 137.254,55.9748 134.42,55.9748 131.5,58.5C 130.5,57.1667 129.5,57.1667 128.5,58.5C 127.459,56.0087 126.626,56.0087 126,58.5C 125.162,57.001 124.329,56.6676 123.5,57.5C 122.347,56.6868 122.347,55.6868 123.5,54.5C 129.628,54.6086 133.962,51.942 136.5,46.5C 137.086,46.7093 137.586,47.0426 138,47.5C 137.981,45.8925 137.815,44.2259 137.5,42.5C 133.716,41.6272 130.049,40.4606 126.5,39C 131.673,38.7245 136.006,36.7245 139.5,33C 136.401,31.6617 133.401,30.1617 130.5,28.5C 129.833,28.8333 129.167,29.1667 128.5,29.5C 127.548,27.9547 127.215,26.288 127.5,24.5C 136.636,24.0247 145.636,22.6913 154.5,20.5 Z"/></g>
<g><path style="opacity:1" fill="#394a3f" d="M 24.5,36.5 C 22.2676,38.1954 19.6009,39.3621 16.5,40C 17.8221,42.4992 19.8221,43.9992 22.5,44.5C 22.3284,45.4916 22.6618,46.1583 23.5,46.5C 20.9551,48.0232 18.9551,47.3566 17.5,44.5C 16.914,44.7093 16.414,45.0426 16,45.5C 13.6966,44.2561 13.1966,42.5894 14.5,40.5C 11.7567,38.3019 11.9233,36.3019 15,34.5C 17.9508,36.0761 21.1174,36.7428 24.5,36.5 Z"/></g>
<g><path style="opacity:1" fill="#34573a" d="M 94.5,33.5 C 96.5273,33.3379 98.5273,33.5045 100.5,34C 99.3318,35.4056 99.6652,36.5723 101.5,37.5C 104.96,38.6362 108.293,39.1362 111.5,39C 110.273,40.5874 110.606,41.9207 112.5,43C 107.646,44.449 102.812,44.949 98,44.5C 97.3333,43.1667 96.6667,41.8333 96,40.5C 95.6664,42.8473 95.833,45.1806 96.5,47.5C 95.5,47.5 94.5,47.5 93.5,47.5C 93.5,48.5 93.5,49.5 93.5,50.5C 91.2063,48.7627 88.5396,47.596 85.5,47C 86.6091,45.187 85.9424,44.3537 83.5,44.5C 83.1667,39.1667 82.8333,39.1667 82.5,44.5C 80.2627,43.551 77.9294,42.8844 75.5,42.5C 75.5,41.1667 75.5,39.8333 75.5,38.5C 81.6942,36.8751 88.0276,36.2085 94.5,36.5C 94.5,35.5 94.5,34.5 94.5,33.5 Z"/></g>
<g><path style="opacity:1" fill="#16341e" d="M 45.5,44.5 C 46.6016,46.0919 45.935,46.9252 43.5,47C 44.056,47.3826 44.3893,47.8826 44.5,48.5C 41.4635,50.57 38.1302,51.9033 34.5,52.5C 34.5,51.5 34.5,50.5 34.5,49.5C 31.6405,49.9158 29.4738,48.9158 28,46.5C 25.9803,47.0319 25.147,48.3652 25.5,50.5C 24.5,50.5 23.5,50.5 22.5,50.5C 23.355,49.4693 24.0217,48.3026 24.5,47C 24.3026,45.4213 23.9693,45.2546 23.5,46.5C 22.6618,46.1583 22.3284,45.4916 22.5,44.5C 23.9305,44.4208 25.2638,44.7542 26.5,45.5C 27.2978,43.9223 27.7978,42.2556 28,40.5C 28.49,41.7932 28.6567,43.1266 28.5,44.5C 29.5,44.5 30.5,44.5 31.5,44.5C 31.5,45.5 31.5,46.5 31.5,47.5C 33.1238,47.6399 34.2904,46.9733 35,45.5C 35.4935,47.1341 35.6602,48.8008 35.5,50.5C 36.5,50.5 37.5,50.5 38.5,50.5C 38.238,49.0222 38.5713,47.6888 39.5,46.5C 40.8626,47.8793 41.8626,47.7126 42.5,46C 41.5909,44.2108 41.4242,42.3774 42,40.5C 42.2492,41.624 42.7492,42.624 43.5,43.5C 46.1365,40.8164 46.8032,41.1497 45.5,44.5 Z"/></g>
<g><path style="opacity:1" fill="#35563c" d="M 44.5,48.5 C 44.3437,49.4982 44.8437,50.4982 46,51.5C 47.1926,49.557 48.6926,49.7237 50.5,52C 54.4248,52.2344 57.4248,53.0678 59.5,54.5C 59.7394,56.4672 59.4061,58.3005 58.5,60C 54.7778,60.2382 51.1111,60.7382 47.5,61.5C 45.8988,60.8346 44.3988,60.5012 43,60.5C 42.51,61.7932 42.3433,63.1266 42.5,64.5C 40.0706,64.8844 37.7373,65.551 35.5,66.5C 35.6602,64.8008 35.4935,63.1341 35,61.5C 32.7565,65.7225 31.5898,65.3892 31.5,60.5C 30.5,60.5 29.5,60.5 28.5,60.5C 28.6567,59.1266 28.49,57.7932 28,56.5C 24.5674,59.8262 20.4007,61.1595 15.5,60.5C 15.5,58.5 15.5,56.5 15.5,54.5C 16.552,54.6495 17.552,54.4828 18.5,54C 16.6573,53.8413 15.9907,53.3413 16.5,52.5C 18.7028,52.3964 20.7028,51.7298 22.5,50.5C 23.5,50.5 24.5,50.5 25.5,50.5C 25.147,48.3652 25.9803,47.0319 28,46.5C 29.4738,48.9158 31.6405,49.9158 34.5,49.5C 34.5,50.5 34.5,51.5 34.5,52.5C 38.1302,51.9033 41.4635,50.57 44.5,48.5 Z"/></g>
<g><path style="opacity:1" fill="#35543b" d="M 114.5,51.5 C 115.386,50.2241 116.386,50.2241 117.5,51.5C 117.928,53.3856 118.261,55.2189 118.5,57C 117.381,58.876 115.714,59.7093 113.5,59.5C 107.925,60.4524 102.259,60.7857 96.5,60.5C 95.9678,63.2482 94.9678,65.2482 93.5,66.5C 92.1667,66.5 90.8333,66.5 89.5,66.5C 89.5,65.5 89.5,64.5 89.5,63.5C 88.5,63.5 87.5,63.5 86.5,63.5C 86.5,62.5 86.5,61.5 86.5,60.5C 80.9738,60.1786 75.6405,60.5119 70.5,61.5C 69.6618,61.1583 69.3284,60.4916 69.5,59.5C 70.525,59.1034 70.6917,58.4368 70,57.5C 69.3333,56.1667 68.6667,56.1667 68,57.5C 67.3162,56.2161 67.4829,55.0495 68.5,54C 67.8333,53.6667 67.1667,53.3333 66.5,53C 68.1124,52.2797 69.6124,52.4464 71,53.5C 72.3024,52.9152 73.469,52.2485 74.5,51.5C 75.8333,51.1667 77.1667,50.8333 78.5,50.5C 79.1174,50.6107 79.6174,50.944 80,51.5C 80.1112,46.6213 81.2778,46.288 83.5,50.5C 83.4895,49.5585 83.9895,48.8919 85,48.5C 87.0575,49.721 89.2242,50.721 91.5,51.5C 93.777,50.5217 96.1103,49.8551 98.5,49.5C 98.3505,48.448 98.5172,47.448 99,46.5C 99.6667,47.8333 100.333,47.8333 101,46.5C 103.398,51.5599 107.398,53.8933 113,53.5C 113.717,52.9558 114.217,52.2891 114.5,51.5 Z"/></g>
<g><path style="opacity:1" fill="#fbfbfb" d="M 69.5,59.5 C 69.3284,60.4916 69.6618,61.1583 70.5,61.5C 71.8845,62.8009 73.3845,62.8009 75,61.5C 76.0975,62.9675 77.5975,63.8008 79.5,64C 78.5,65 77.5,66 76.5,67C 73.1832,67.4983 69.8499,67.665 66.5,67.5C 67.4687,70.9779 68.1354,74.3112 68.5,77.5C 70.665,78.4985 72.8316,79.4985 75,80.5C 76.3261,80.2451 77.3261,79.5784 78,78.5C 79.7755,79.5361 81.6089,79.5361 83.5,78.5C 85.4302,82.3727 86.0969,86.706 85.5,91.5C 71.8333,91.5 58.1667,91.5 44.5,91.5C 44.5,87.1667 44.5,82.8333 44.5,78.5C 50.1884,80.9083 55.8551,80.9083 61.5,78.5C 62.6446,77.2243 62.6446,75.891 61.5,74.5C 64.1741,73.5009 64.8408,71.8342 63.5,69.5C 59.8085,68.7475 56.1418,67.9142 52.5,67C 51.3128,65.9805 50.3128,64.8139 49.5,63.5C 54.444,63.7799 58.944,62.1133 63,58.5C 64.3441,53.306 65.5108,53.306 66.5,58.5C 67.325,59.3857 68.325,59.719 69.5,59.5 Z"/></g>
<g><path style="opacity:1" fill="#2d3f32" d="M 113.5,59.5 C 113.001,62.3892 111.501,63.0558 109,61.5C 107.951,63.1066 106.451,63.7733 104.5,63.5C 104.565,63.0618 104.399,62.7284 104,62.5C 103.667,63.1667 103.333,63.8333 103,64.5C 99.9639,60.506 98.1305,60.8393 97.5,65.5C 93.6789,68.1074 89.8456,68.1074 86,65.5C 84.2894,65.4393 82.956,66.1059 82,67.5C 81.4387,66.9781 80.772,66.6448 80,66.5C 77.4147,68.3354 74.748,70.002 72,71.5C 71.5065,73.1341 71.3398,74.8008 71.5,76.5C 76.1667,76.5 80.8333,76.5 85.5,76.5C 84.8333,77.1667 84.1667,77.8333 83.5,78.5C 81.6089,79.5361 79.7755,79.5361 78,78.5C 77.3261,79.5784 76.3261,80.2451 75,80.5C 72.8316,79.4985 70.665,78.4985 68.5,77.5C 68.1354,74.3112 67.4687,70.9779 66.5,67.5C 69.8499,67.665 73.1832,67.4983 76.5,67C 77.5,66 78.5,65 79.5,64C 77.5975,63.8008 76.0975,62.9675 75,61.5C 73.3845,62.8009 71.8845,62.8009 70.5,61.5C 75.6405,60.5119 80.9738,60.1786 86.5,60.5C 86.5,61.5 86.5,62.5 86.5,63.5C 87.5,63.5 88.5,63.5 89.5,63.5C 89.5,64.5 89.5,65.5 89.5,66.5C 90.8333,66.5 92.1667,66.5 93.5,66.5C 94.9678,65.2482 95.9678,63.2482 96.5,60.5C 102.259,60.7857 107.925,60.4524 113.5,59.5 Z"/></g>
<g><path style="opacity:1" fill="#324c36" d="M 154.5,76.5 C 151.028,69.913 148.695,70.2463 147.5,77.5C 146.667,75.5 145.833,73.5 145,71.5C 143.644,72.3802 142.144,72.7135 140.5,72.5C 140.724,76.5148 139.557,77.1815 137,74.5C 136,75.1667 135,75.8333 134,76.5C 130.668,76.2496 127.168,76.2496 123.5,76.5C 123.5,75.5 123.5,74.5 123.5,73.5C 122.791,72.596 121.791,72.2627 120.5,72.5C 120.238,71.0222 120.571,69.6888 121.5,68.5C 124.109,67.7695 126.776,67.2695 129.5,67C 134.371,64.7448 134.371,63.5782 129.5,63.5C 129.737,62.209 129.404,61.209 128.5,60.5C 126.011,60.7593 124.344,59.7593 123.5,57.5C 124.329,56.6676 125.162,57.001 126,58.5C 126.626,56.0087 127.459,56.0087 128.5,58.5C 129.5,57.1667 130.5,57.1667 131.5,58.5C 134.42,55.9748 137.254,55.9748 140,58.5C 140.249,57.376 140.749,56.376 141.5,55.5C 142.777,58.0341 142.777,60.5341 141.5,63C 142.449,63.6172 143.282,63.4506 144,62.5C 144.483,63.448 144.649,64.448 144.5,65.5C 145.833,65.5 147.167,65.5 148.5,65.5C 148.343,64.1266 148.51,62.7932 149,61.5C 149.421,64.2651 150.921,65.4317 153.5,65C 152.74,63.5589 152.074,62.0589 151.5,60.5C 152.953,60.9402 154.119,60.2735 155,58.5C 156.333,61.1667 157.667,61.1667 159,58.5C 160.401,60.1922 162.234,60.8588 164.5,60.5C 164.33,59.1779 164.663,58.0113 165.5,57C 172.167,56.3333 172.167,55.6667 165.5,55C 167.78,54.7674 169.78,53.934 171.5,52.5C 169.342,51.998 167.009,51.998 164.5,52.5C 158.347,52.3228 156.347,49.3228 158.5,43.5C 160.071,44.3094 161.738,44.6427 163.5,44.5C 163.351,43.448 163.517,42.448 164,41.5C 165.185,43.5593 166.352,43.726 167.5,42C 167.108,40.9895 166.441,40.4895 165.5,40.5C 167.276,39.6852 167.943,38.5185 167.5,37C 164.635,36.8171 161.969,36.3171 159.5,35.5C 162.927,35.0244 166.26,35.0244 169.5,35.5C 169.5,37.8333 169.5,40.1667 169.5,42.5C 168.585,44.9803 167.085,45.6469 165,44.5C 163.522,47.9931 161.522,48.3264 159,45.5C 158.833,45.8333 158.667,46.1667 158.5,46.5C 161.665,51.8679 165.998,52.8679 171.5,49.5C 172.5,50.8333 173.5,52.1667 174.5,53.5C 171.972,54.5174 171.972,55.6841 174.5,57C 171.494,58.3837 168.827,60.2171 166.5,62.5C 165.914,62.2907 165.414,61.9574 165,61.5C 163.56,63.0456 161.727,63.879 159.5,64C 160.5,65 161.5,66 162.5,67C 165.833,67.3333 169.167,67.6667 172.5,68C 173.022,68.5613 173.355,69.228 173.5,70C 172.045,72.2478 171.212,74.7478 171,77.5C 169.676,78.8802 168.343,79.2135 167,78.5C 166.481,79.5156 165.647,80.1822 164.5,80.5C 161.166,79.1664 157.833,77.8331 154.5,76.5 Z"/></g>
<g><path style="opacity:1" fill="#345439" d="M 104.5,63.5 C 105.5,64.8333 106.5,66.1667 107.5,67.5C 109.189,68.3037 110.855,69.3037 112.5,70.5C 113.833,72.1667 113.833,73.8333 112.5,75.5C 111.833,75.1667 111.167,74.8333 110.5,74.5C 111.089,76.3733 110.422,78.04 108.5,79.5C 106.929,76.9066 104.596,75.9066 101.5,76.5C 101.167,76.5 100.833,76.5 100.5,76.5C 99.8333,76.5 99.1667,76.5 98.5,76.5C 98.7989,74.396 98.4656,72.396 97.5,70.5C 96.1841,73.028 95.0174,73.028 94,70.5C 93.5034,72.8098 93.3367,75.1432 93.5,77.5C 92.5,77.5 91.5,77.5 90.5,77.5C 90.6633,75.1432 90.4966,72.8098 90,70.5C 88.9826,73.028 87.8159,73.028 86.5,70.5C 85.5344,72.396 85.2011,74.396 85.5,76.5C 80.8333,76.5 76.1667,76.5 71.5,76.5C 71.3398,74.8008 71.5065,73.1341 72,71.5C 74.748,70.002 77.4147,68.3354 80,66.5C 80.772,66.6448 81.4387,66.9781 82,67.5C 82.956,66.1059 84.2894,65.4393 86,65.5C 89.8456,68.1074 93.6789,68.1074 97.5,65.5C 98.1305,60.8393 99.9639,60.506 103,64.5C 103.333,63.8333 103.667,63.1667 104,62.5C 104.399,62.7284 104.565,63.0618 104.5,63.5 Z"/></g>
<g><path style="opacity:1" fill="#324839" d="M 45.5,44.5 C 49.7016,44.1832 53.7016,44.5166 57.5,45.5C 54.8334,46.3655 52.1668,47.3655 49.5,48.5C 49.9767,49.4776 50.6433,50.3109 51.5,51C 54.7125,51.7026 57.8792,51.5359 61,50.5C 62.6532,50.8198 63.6532,51.8198 64,53.5C 65.0195,52.3128 66.1861,51.3128 67.5,50.5C 69.7466,51.3742 72.0799,51.7076 74.5,51.5C 73.469,52.2485 72.3024,52.9152 71,53.5C 69.6124,52.4464 68.1124,52.2797 66.5,53C 67.1667,53.3333 67.8333,53.6667 68.5,54C 67.4829,55.0495 67.3162,56.2161 68,57.5C 68.6667,56.1667 69.3333,56.1667 70,57.5C 70.6917,58.4368 70.525,59.1034 69.5,59.5C 68.325,59.719 67.325,59.3857 66.5,58.5C 65.5108,53.306 64.3441,53.306 63,58.5C 58.944,62.1133 54.444,63.7799 49.5,63.5C 50.3128,64.8139 51.3128,65.9805 52.5,67C 56.1418,67.9142 59.8085,68.7475 63.5,69.5C 64.8408,71.8342 64.1741,73.5009 61.5,74.5C 62.6446,75.891 62.6446,77.2243 61.5,78.5C 55.8551,80.9083 50.1884,80.9083 44.5,78.5C 43.6618,78.8417 43.3284,79.5084 43.5,80.5C 42.2587,76.0094 42.2587,74.676 43.5,76.5C 48.5649,76.219 53.5649,76.5524 58.5,77.5C 59.4742,75.2573 59.8076,72.924 59.5,70.5C 56.8333,70.5 54.1667,70.5 51.5,70.5C 50.8736,67.6851 49.5402,65.1851 47.5,63C 46.1667,62.3333 44.8333,62.3333 43.5,63C 43.9574,63.414 44.2907,63.914 44.5,64.5C 42.5966,66.5623 40.2633,67.8956 37.5,68.5C 34.9406,71.9063 34.9406,75.2397 37.5,78.5C 38.684,76.9539 39.684,75.2873 40.5,73.5C 40.8333,73.8333 41.1667,74.1667 41.5,74.5C 40.6906,76.0709 40.3573,77.7376 40.5,79.5C 38.4727,79.3379 36.4727,79.5045 34.5,80C 35.2883,83.0757 35.7883,86.2423 36,89.5C 38.3806,88.565 40.8806,88.2317 43.5,88.5C 43.5,89.5 43.5,90.5 43.5,91.5C 39.1667,91.5 34.8333,91.5 30.5,91.5C 30.8256,87.1161 30.4922,82.7828 29.5,78.5C 28.8333,78.1667 28.1667,77.8333 27.5,77.5C 24.561,79.9014 21.2277,80.7347 17.5,80C 13.5723,79.446 12.239,77.446 13.5,74C 12.552,73.5172 11.552,73.3505 10.5,73.5C 10.8333,71.5 11.1667,69.5 11.5,67.5C 16.1619,68.1958 20.3286,67.1958 24,64.5C 24.6667,63.8333 24.6667,63.1667 24,62.5C 20.9293,63.1381 17.7626,63.1381 14.5,62.5C 14.5,61.5 14.5,60.5 14.5,59.5C 11.0022,59.5216 9.66887,58.0216 10.5,55C 9.69194,54.6924 9.02527,54.1924 8.5,53.5C 10.6912,50.0294 13.3579,49.6961 16.5,52.5C 15.9907,53.3413 16.6573,53.8413 18.5,54C 17.552,54.4828 16.552,54.6495 15.5,54.5C 15.5,56.5 15.5,58.5 15.5,60.5C 20.4007,61.1595 24.5674,59.8262 28,56.5C 28.49,57.7932 28.6567,59.1266 28.5,60.5C 29.5,60.5 30.5,60.5 31.5,60.5C 31.5898,65.3892 32.7565,65.7225 35,61.5C 35.4935,63.1341 35.6602,64.8008 35.5,66.5C 37.7373,65.551 40.0706,64.8844 42.5,64.5C 42.3433,63.1266 42.51,61.7932 43,60.5C 44.3988,60.5012 45.8988,60.8346 47.5,61.5C 51.1111,60.7382 54.7778,60.2382 58.5,60C 59.4061,58.3005 59.7394,56.4672 59.5,54.5C 57.4248,53.0678 54.4248,52.2344 50.5,52C 48.6926,49.7237 47.1926,49.557 46,51.5C 44.8437,50.4982 44.3437,49.4982 44.5,48.5C 44.3893,47.8826 44.056,47.3826 43.5,47C 45.935,46.9252 46.6016,46.0919 45.5,44.5 Z"/></g>
<g><path style="opacity:1" fill="#163020" d="M 98.5,76.5 C 97.8333,76.5 97.1667,76.5 96.5,76.5C 96.6309,75.6236 96.2975,74.9569 95.5,74.5C 94.5481,76.0453 94.2148,77.712 94.5,79.5C 92.8333,79.5 91.1667,79.5 89.5,79.5C 89.762,78.0222 89.4287,76.6888 88.5,75.5C 87.8933,75.6236 87.56,75.9569 87.5,76.5C 86.8333,76.5 86.1667,76.5 85.5,76.5C 85.2011,74.396 85.5344,72.396 86.5,70.5C 87.8159,73.028 88.9826,73.028 90,70.5C 90.4966,72.8098 90.6633,75.1432 90.5,77.5C 91.5,77.5 92.5,77.5 93.5,77.5C 93.3367,75.1432 93.5034,72.8098 94,70.5C 95.0174,73.028 96.1841,73.028 97.5,70.5C 98.4656,72.396 98.7989,74.396 98.5,76.5 Z"/></g>
<g><path style="opacity:1" fill="#334136" d="M 107.5,67.5 C 111.1,67.7938 114.6,68.4604 118,69.5C 118.167,70 118.333,70.5 118.5,71C 117.491,72.1681 116.491,73.3348 115.5,74.5C 116.326,75.451 116.492,76.451 116,77.5C 114.921,79.3937 113.587,79.727 112,78.5C 111.653,80.1802 110.653,81.1802 109,81.5C 107.073,80.139 104.906,79.3057 102.5,79C 101.748,78.3292 101.414,77.4959 101.5,76.5C 104.596,75.9066 106.929,76.9066 108.5,79.5C 110.422,78.04 111.089,76.3733 110.5,74.5C 111.167,74.8333 111.833,75.1667 112.5,75.5C 113.833,73.8333 113.833,72.1667 112.5,70.5C 110.855,69.3037 109.189,68.3037 107.5,67.5 Z"/></g>
<g><path style="opacity:1" fill="#253028" d="M 154.5,76.5 C 154.5,81.5 154.5,86.5 154.5,91.5C 153.833,91.5 153.167,91.5 152.5,91.5C 152.337,85.9435 152.003,80.2769 151.5,74.5C 149.889,75.3202 149.222,76.6536 149.5,78.5C 146.712,78.1319 144.046,77.6319 141.5,77C 143.129,81.8509 143.463,86.6843 142.5,91.5C 141.833,91.5 141.167,91.5 140.5,91.5C 140.5,86.8333 140.5,82.1667 140.5,77.5C 135.246,77.731 130.08,78.3977 125,79.5C 123.647,78.3147 122.48,76.9814 121.5,75.5C 121.855,74.4777 122.522,73.811 123.5,73.5C 123.5,74.5 123.5,75.5 123.5,76.5C 127.168,76.2496 130.668,76.2496 134,76.5C 135,75.8333 136,75.1667 137,74.5C 139.557,77.1815 140.724,76.5148 140.5,72.5C 142.144,72.7135 143.644,72.3802 145,71.5C 145.833,73.5 146.667,75.5 147.5,77.5C 148.695,70.2463 151.028,69.913 154.5,76.5 Z"/></g>
<g><path style="opacity:1" fill="#36533f" d="M 96.5,76.5 C 97.3924,81.4376 97.7257,86.4376 97.5,91.5C 94.1667,91.5 90.8333,91.5 87.5,91.5C 87.5,86.5 87.5,81.5 87.5,76.5C 87.56,75.9569 87.8933,75.6236 88.5,75.5C 89.4287,76.6888 89.762,78.0222 89.5,79.5C 91.1667,79.5 92.8333,79.5 94.5,79.5C 94.2148,77.712 94.5481,76.0453 95.5,74.5C 96.2975,74.9569 96.6309,75.6236 96.5,76.5 Z"/></g>
<g><path style="opacity:1" fill="#36503b" d="M 152.5,91.5 C 149.167,91.5 145.833,91.5 142.5,91.5C 143.463,86.6843 143.129,81.8509 141.5,77C 144.046,77.6319 146.712,78.1319 149.5,78.5C 149.222,76.6536 149.889,75.3202 151.5,74.5C 152.003,80.2769 152.337,85.9435 152.5,91.5 Z"/></g>
<g><path style="opacity:1" fill="#34543a" d="M 43.5,80.5 C 43.5,83.1667 43.5,85.8333 43.5,88.5C 40.8806,88.2317 38.3806,88.565 36,89.5C 35.7883,86.2423 35.2883,83.0757 34.5,80C 36.4727,79.5045 38.4727,79.3379 40.5,79.5C 40.3573,77.7376 40.6906,76.0709 41.5,74.5C 41.1667,74.1667 40.8333,73.8333 40.5,73.5C 39.684,75.2873 38.684,76.9539 37.5,78.5C 34.9406,75.2397 34.9406,71.9063 37.5,68.5C 40.2633,67.8956 42.5966,66.5623 44.5,64.5C 44.2907,63.914 43.9574,63.414 43.5,63C 44.8333,62.3333 46.1667,62.3333 47.5,63C 49.5402,65.1851 50.8736,67.6851 51.5,70.5C 54.1667,70.5 56.8333,70.5 59.5,70.5C 59.8076,72.924 59.4742,75.2573 58.5,77.5C 53.5649,76.5524 48.5649,76.219 43.5,76.5C 42.2587,74.676 42.2587,76.0094 43.5,80.5 Z"/></g>
<g><path style="opacity:1" fill="#22201f" d="M 85.5,76.5 C 86.1667,76.5 86.8333,76.5 87.5,76.5C 87.5,81.5 87.5,86.5 87.5,91.5C 90.8333,91.5 94.1667,91.5 97.5,91.5C 97.7257,86.4376 97.3924,81.4376 96.5,76.5C 97.1667,76.5 97.8333,76.5 98.5,76.5C 99.1667,76.5 99.8333,76.5 100.5,76.5C 99.6076,81.4376 99.2743,86.4376 99.5,91.5C 113.167,91.5 126.833,91.5 140.5,91.5C 141.167,91.5 141.833,91.5 142.5,91.5C 145.833,91.5 149.167,91.5 152.5,91.5C 153.167,91.5 153.833,91.5 154.5,91.5C 161.5,91.5 168.5,91.5 175.5,91.5C 176.158,90.6016 176.824,89.6016 177.5,88.5C 178.48,91.0865 178.813,93.7531 178.5,96.5C 179.008,104.829 178.008,112.829 175.5,120.5C 175.5,116.5 175.5,112.5 175.5,108.5C 175.5,103.833 175.5,99.1667 175.5,94.5C 147.833,94.5 120.167,94.5 92.5,94.5C 92.5,124.5 92.5,154.5 92.5,184.5C 94.1667,184.5 95.8333,184.5 97.5,184.5C 101.833,184.5 106.167,184.5 110.5,184.5C 108.167,185.167 105.833,185.833 103.5,186.5C 95.8333,186.5 88.1667,186.5 80.5,186.5C 77.5349,185.374 74.5349,184.374 71.5,183.5C 72.5676,182.566 73.901,182.232 75.5,182.5C 80.4725,183.164 85.4725,183.497 90.5,183.5C 90.5,177.5 90.5,171.5 90.5,165.5C 90.5,164.833 90.1667,164.5 89.5,164.5C 90.4601,157.922 90.7934,151.255 90.5,144.5C 90.6716,143.508 90.3382,142.842 89.5,142.5C 90.4601,135.922 90.7934,129.255 90.5,122.5C 90.5,121.833 90.1667,121.5 89.5,121.5C 90.8099,114.401 90.8099,107.401 89.5,100.5C 89.5,100.167 89.5,99.8333 89.5,99.5C 90.3007,97.9582 90.634,96.2915 90.5,94.5C 84.8333,94.5 79.1667,94.5 73.5,94.5C 72.8333,94.5 72.1667,94.5 71.5,94.5C 64.8333,94.5 58.1667,94.5 51.5,94.5C 50.8333,94.5 50.1667,94.5 49.5,94.5C 43.1579,94.3338 36.8246,94.5005 30.5,95C 29.6266,96.045 28.6266,96.8783 27.5,97.5C 27.5,97.1667 27.5,96.8333 27.5,96.5C 21.9262,94.5467 15.9262,93.88 9.5,94.5C 8.83333,95.1667 8.16667,95.8333 7.5,96.5C 7.21552,94.5853 7.54885,92.9187 8.5,91.5C 15.8333,91.5 23.1667,91.5 30.5,91.5C 34.8333,91.5 39.1667,91.5 43.5,91.5C 43.5,90.5 43.5,89.5 43.5,88.5C 43.5,85.8333 43.5,83.1667 43.5,80.5C 43.3284,79.5084 43.6618,78.8417 44.5,78.5C 44.5,82.8333 44.5,87.1667 44.5,91.5C 58.1667,91.5 71.8333,91.5 85.5,91.5C 86.0969,86.706 85.4302,82.3727 83.5,78.5C 84.1667,77.8333 84.8333,77.1667 85.5,76.5 Z"/></g>
<g><path style="opacity:1" fill="#fa222a" d="M 9.5,94.5 C 15.9262,93.88 21.9262,94.5467 27.5,96.5C 22.187,101.478 16.8537,106.478 11.5,111.5C 10.8076,110.975 10.3076,110.308 10,109.5C 9.50074,104.511 9.33407,99.5111 9.5,94.5 Z"/></g>
<g><path style="opacity:1" fill="#fdfcfc" d="M 49.5,94.5 C 38.5,106.167 27.1667,117.5 15.5,128.5C 13.6652,124.344 11.9986,120.011 10.5,115.5C 11.1925,114.482 11.8592,113.482 12.5,112.5C 17.8063,107.86 22.8063,102.86 27.5,97.5C 28.6266,96.8783 29.6266,96.045 30.5,95C 36.8246,94.5005 43.1579,94.3338 49.5,94.5 Z"/></g>
<g><path style="opacity:1" fill="#f92129" d="M 51.5,94.5 C 58.1667,94.5 64.8333,94.5 71.5,94.5C 67.1028,98.8918 63.1028,103.558 59.5,108.5C 53.1667,112.833 47.8333,118.167 43.5,124.5C 39.1667,126.833 35.8333,130.167 33.5,134.5C 32.1667,134.5 31.5,135.167 31.5,136.5C 29.1667,136.833 27.8333,138.167 27.5,140.5C 25.9557,140.703 24.6223,141.37 23.5,142.5C 22.4787,140.812 21.1454,139.479 19.5,138.5C 17.8092,135.355 17.3092,132.021 18,128.5C 29.3687,117.298 40.5354,105.965 51.5,94.5 Z"/></g>
<g><path style="opacity:1" fill="#fefefe" d="M 73.5,94.5 C 79.1667,94.5 84.8333,94.5 90.5,94.5C 90.634,96.2915 90.3007,97.9582 89.5,99.5C 70.5,117.833 51.8333,136.5 33.5,155.5C 29.7839,153.456 26.9506,150.456 25,146.5C 24.3333,145.5 24.3333,144.5 25,143.5C 26.045,142.627 26.8783,141.627 27.5,140.5C 29.1667,139.5 30.5,138.167 31.5,136.5C 32.5,136.167 33.1667,135.5 33.5,134.5C 37.1667,131.5 40.5,128.167 43.5,124.5C 49.1667,119.5 54.5,114.167 59.5,108.5C 64.5,104.167 69.1667,99.5 73.5,94.5 Z"/></g>
<g><path style="opacity:1" fill="#f92129" d="M 175.5,108.5 C 174.505,113.814 173.171,119.148 171.5,124.5C 171.5,125.167 171.5,125.833 171.5,126.5C 169.654,129.54 168.321,132.873 167.5,136.5C 152.812,165.2 129.478,181.2 97.5,184.5C 95.8333,184.5 94.1667,184.5 92.5,184.5C 92.5,154.5 92.5,124.5 92.5,94.5C 120.167,94.5 147.833,94.5 175.5,94.5C 175.5,99.1667 175.5,103.833 175.5,108.5 Z"/></g>
<g><path style="opacity:1" fill="#5d2f2b" d="M 71.5,94.5 C 72.1667,94.5 72.8333,94.5 73.5,94.5C 69.1667,99.5 64.5,104.167 59.5,108.5C 63.1028,103.558 67.1028,98.8918 71.5,94.5 Z"/></g>
<g><path style="opacity:1" fill="#f92229" d="M 89.5,100.5 C 90.8099,107.401 90.8099,114.401 89.5,121.5C 74.1667,136.167 59.1667,151.167 44.5,166.5C 39.7306,164.298 36.064,160.965 33.5,156.5C 52.5,138.167 71.1667,119.5 89.5,100.5 Z"/></g>
<g><path style="opacity:1" fill="#8f3715" d="M 131.5,101.5 C 128.974,98.9368 127.307,99.6034 126.5,103.5C 124.5,103.833 122.5,104.167 120.5,104.5C 123.598,103.1 126.265,101.1 128.5,98.5C 130.516,98.5159 131.516,99.5159 131.5,101.5 Z"/></g>
<g><path style="opacity:1" fill="#b68251" d="M 131.5,101.5 C 132.551,102.222 133.218,103.222 133.5,104.5C 132.041,104.433 130.708,104.766 129.5,105.5C 129.167,105.5 128.833,105.5 128.5,105.5C 127.5,105.167 126.833,104.5 126.5,103.5C 127.307,99.6034 128.974,98.9368 131.5,101.5 Z"/></g>
<g><path style="opacity:1" fill="#823329" d="M 120.5,104.5 C 119.22,105.931 117.553,106.598 115.5,106.5C 116.635,104.787 118.302,104.12 120.5,104.5 Z"/></g>
<g><path style="opacity:1" fill="#f2edec" d="M 126.5,103.5 C 126.833,104.5 127.5,105.167 128.5,105.5C 128.631,106.239 128.464,106.906 128,107.5C 125.599,106.398 123.099,106.231 120.5,107C 117.604,110.066 114.604,112.899 111.5,115.5C 108.163,116.484 106.663,118.817 107,122.5C 106.617,121.944 106.117,121.611 105.5,121.5C 105.46,118.575 106.293,115.909 108,113.5C 110.396,110.933 112.896,108.6 115.5,106.5C 117.553,106.598 119.22,105.931 120.5,104.5C 122.5,104.167 124.5,103.833 126.5,103.5 Z"/></g>
<g><path style="opacity:1" fill="#693742" d="M 136.5,104.5 C 138.179,104.285 139.179,104.952 139.5,106.5C 138.29,106.068 137.29,105.401 136.5,104.5 Z"/></g>
<g><path style="opacity:1" fill="#f0e7e8" d="M 133.5,104.5 C 134.5,104.5 135.5,104.5 136.5,104.5C 137.29,105.401 138.29,106.068 139.5,106.5C 140.167,106.5 140.833,106.5 141.5,106.5C 143.147,108.326 145.147,109.66 147.5,110.5C 148.167,111.833 149.167,112.833 150.5,113.5C 151.11,115.434 152.11,117.101 153.5,118.5C 153.5,119.167 153.5,119.833 153.5,120.5C 152.518,121.141 151.518,121.807 150.5,122.5C 149.893,122.376 149.56,122.043 149.5,121.5C 150.598,120.399 150.765,119.066 150,117.5C 145.886,113.539 141.386,110.206 136.5,107.5C 134.332,105.545 131.998,104.879 129.5,105.5C 130.708,104.766 132.041,104.433 133.5,104.5 Z"/></g>
<g><path style="opacity:1" fill="#fbf9f9" d="M 136.5,107.5 C 140.473,111.301 144.64,114.968 149,118.5C 149.483,119.448 149.649,120.448 149.5,121.5C 146.15,123.734 142.483,125.4 138.5,126.5C 137.945,123.379 138.278,120.212 139.5,117C 138.387,115.765 137.387,116.265 136.5,118.5C 134.742,118.877 133.075,119.544 131.5,120.5C 130.34,116.541 130.173,112.541 131,108.5C 132.699,107.594 134.533,107.261 136.5,107.5 Z"/></g>
<g><path style="opacity:1" fill="#5d2f28" d="M 89.5,99.5 C 89.5,99.8333 89.5,100.167 89.5,100.5C 71.1667,119.5 52.5,138.167 33.5,156.5C 33.5,156.167 33.5,155.833 33.5,155.5C 51.8333,136.5 70.5,117.833 89.5,99.5 Z"/></g>
<g><path style="opacity:1" fill="#733637" d="M 141.5,106.5 C 144.267,106.87 146.267,108.204 147.5,110.5C 145.147,109.66 143.147,108.326 141.5,106.5 Z"/></g>
<g><path style="opacity:1" fill="#595458" d="M 136.5,107.5 C 141.386,110.206 145.886,113.539 150,117.5C 150.765,119.066 150.598,120.399 149.5,121.5C 149.649,120.448 149.483,119.448 149,118.5C 144.64,114.968 140.473,111.301 136.5,107.5 Z"/></g>
<g><path style="opacity:1" fill="#5e272a" d="M 9.5,94.5 C 9.33407,99.5111 9.50074,104.511 10,109.5C 10.3076,110.308 10.8076,110.975 11.5,111.5C 16.8537,106.478 22.187,101.478 27.5,96.5C 27.5,96.8333 27.5,97.1667 27.5,97.5C 22.8063,102.86 17.8063,107.86 12.5,112.5C 10.8333,112.5 9.16667,112.5 7.5,112.5C 7.5,111.5 7.5,110.5 7.5,109.5C 7.5,105.167 7.5,100.833 7.5,96.5C 8.16667,95.8333 8.83333,95.1667 9.5,94.5 Z"/></g>
<g><path style="opacity:1" fill="#5c201f" d="M 49.5,94.5 C 50.1667,94.5 50.8333,94.5 51.5,94.5C 40.5354,105.965 29.3687,117.298 18,128.5C 17.3092,132.021 17.8092,135.355 19.5,138.5C 18.1667,137.833 16.8333,137.167 15.5,136.5C 15.5,136.167 15.5,135.833 15.5,135.5C 15.5,133.167 15.5,130.833 15.5,128.5C 27.1667,117.5 38.5,106.167 49.5,94.5 Z"/></g>
<g><path style="opacity:1" fill="#4b231e" d="M 59.5,108.5 C 54.5,114.167 49.1667,119.5 43.5,124.5C 47.8333,118.167 53.1667,112.833 59.5,108.5 Z"/></g>
<g><path style="opacity:1" fill="#742f2b" d="M 150.5,113.5 C 152.727,114.401 153.727,116.067 153.5,118.5C 152.11,117.101 151.11,115.434 150.5,113.5 Z"/></g>
<g><path style="opacity:1" fill="#650d0f" d="M 175.5,108.5 C 175.5,112.5 175.5,116.5 175.5,120.5C 174.167,121.833 172.833,123.167 171.5,124.5C 173.171,119.148 174.505,113.814 175.5,108.5 Z"/></g>
<g><path style="opacity:1" fill="#353337" d="M 7.5,112.5 C 9.16667,112.5 10.8333,112.5 12.5,112.5C 11.8592,113.482 11.1925,114.482 10.5,115.5C 11.9986,120.011 13.6652,124.344 15.5,128.5C 15.5,130.833 15.5,133.167 15.5,135.5C 11.665,128.332 8.99837,120.665 7.5,112.5 Z"/></g>
<g><path style="opacity:1" fill="#584541" d="M 128.5,105.5 C 128.833,105.5 129.167,105.5 129.5,105.5C 131.998,104.879 134.332,105.545 136.5,107.5C 134.533,107.261 132.699,107.594 131,108.5C 130.173,112.541 130.34,116.541 131.5,120.5C 133.075,119.544 134.742,118.877 136.5,118.5C 137.387,116.265 138.387,115.765 139.5,117C 138.278,120.212 137.945,123.379 138.5,126.5C 142.483,125.4 146.15,123.734 149.5,121.5C 149.56,122.043 149.893,122.376 150.5,122.5C 151.518,121.807 152.518,121.141 153.5,120.5C 153.427,122.027 154.094,123.027 155.5,123.5C 155.5,124.833 155.5,126.167 155.5,127.5C 154.751,126.469 154.085,125.302 153.5,124C 151.061,123.485 150.895,123.985 153,125.5C 153.667,127.5 153.667,129.5 153,131.5C 151.349,136.342 149.516,141.009 147.5,145.5C 146.41,146.857 145.076,147.857 143.5,148.5C 143.5,149.167 143.167,149.5 142.5,149.5C 142.565,149.062 142.399,148.728 142,148.5C 141.768,149.737 141.268,150.737 140.5,151.5C 140.389,152.117 140.056,152.617 139.5,153C 133.167,153.667 126.833,153.667 120.5,153C 118.277,152.348 117.11,150.848 117,148.5C 116.517,149.448 116.351,150.448 116.5,151.5C 116.167,151.5 115.833,151.5 115.5,151.5C 114.432,150.566 113.099,150.232 111.5,150.5C 111.5,150.167 111.5,149.833 111.5,149.5C 112.552,149.649 113.552,149.483 114.5,149C 112,147.833 110.167,146 109,143.5C 108.261,139.615 106.927,135.948 105,132.5C 104.056,129.653 104.556,127.153 106.5,125C 106.272,124.601 105.938,124.435 105.5,124.5C 105.5,123.5 105.5,122.5 105.5,121.5C 106.117,121.611 106.617,121.944 107,122.5C 106.663,118.817 108.163,116.484 111.5,115.5C 114.604,112.899 117.604,110.066 120.5,107C 123.099,106.231 125.599,106.398 128,107.5C 128.464,106.906 128.631,106.239 128.5,105.5 Z"/></g>
<g><path style="opacity:1" fill="#eee2e5" d="M 136.5,118.5 C 137.621,120.089 137.454,121.756 136,123.5C 134.198,121.727 134.365,120.06 136.5,118.5 Z"/></g>
<g><path style="opacity:1" fill="#e5d4d8" d="M 124.5,122.5 C 123.833,122.5 123.5,122.833 123.5,123.5C 121.438,122.495 120.604,120.829 121,118.5C 123.071,119.103 124.238,120.436 124.5,122.5 Z"/></g>
<g><path style="opacity:1" fill="#f9f8f7" d="M 111.5,115.5 C 115.802,114.009 119.469,111.509 122.5,108C 124.112,107.28 125.612,107.446 127,108.5C 130.859,121.808 127.859,123.808 118,114.5C 119.121,118.335 119.955,122.335 120.5,126.5C 116.08,126.086 112.246,124.419 109,121.5C 108.333,120.5 108.333,119.5 109,118.5C 110.045,117.627 110.878,116.627 111.5,115.5 Z"/></g>
<g><path style="opacity:1" fill="#d99265" d="M 153.5,118.5 C 155.434,119.11 157.101,120.11 158.5,121.5C 157.778,122.551 156.778,123.218 155.5,123.5C 154.094,123.027 153.427,122.027 153.5,120.5C 153.5,119.833 153.5,119.167 153.5,118.5 Z"/></g>
<g><path style="opacity:1" fill="#fefefe" d="M 90.5,122.5 C 90.7934,129.255 90.4601,135.922 89.5,142.5C 84.5,146.833 79.8333,151.5 75.5,156.5C 69.1667,162.167 63.1667,168.167 57.5,174.5C 52.9485,173.558 48.9485,171.558 45.5,168.5C 59.7811,152.551 74.7811,137.218 90.5,122.5 Z"/></g>
<g><path style="opacity:1" fill="#f5eeee" d="M 105.5,124.5 C 105.938,124.435 106.272,124.601 106.5,125C 104.556,127.153 104.056,129.653 105,132.5C 106.927,135.948 108.261,139.615 109,143.5C 110.167,146 112,147.833 114.5,149C 113.552,149.483 112.552,149.649 111.5,149.5C 104.036,143.282 101.203,135.282 103,125.5C 103.671,124.748 104.504,124.414 105.5,124.5 Z"/></g>
<g><path style="opacity:1" fill="#faf9f9" d="M 107.5,125.5 C 111.5,126.167 115.5,126.833 119.5,127.5C 117.782,131.056 115.116,133.89 111.5,136C 115.211,136.175 118.878,136.675 122.5,137.5C 121.197,139.968 119.697,142.301 118,144.5C 115.667,147.167 113.333,147.167 111,144.5C 110.322,139.75 108.656,135.417 106,131.5C 105.252,129.16 105.752,127.16 107.5,125.5 Z"/></g>
<g><path style="opacity:1" fill="#faf9f9" d="M 147.5,145.5 C 141.277,145.626 137.277,142.626 135.5,136.5C 136.167,136.5 136.833,136.5 137.5,136.5C 140.385,136.806 143.052,136.473 145.5,135.5C 145.938,135.565 146.272,135.399 146.5,135C 142.619,133.599 139.953,131.099 138.5,127.5C 141.563,127.137 144.563,126.47 147.5,125.5C 149.985,125.239 151.652,126.239 152.5,128.5C 149.82,133.872 148.154,139.539 147.5,145.5 Z"/></g>
<g><path style="opacity:1" fill="#3f2830" d="M 175.5,120.5 C 175.139,124.915 173.806,128.915 171.5,132.5C 171.5,130.5 171.5,128.5 171.5,126.5C 171.5,125.833 171.5,125.167 171.5,124.5C 172.833,123.167 174.167,121.833 175.5,120.5 Z"/></g>
<g><path style="opacity:1" fill="#f0c546" d="M 124.5,122.5 C 135.416,121.703 139.083,126.37 135.5,136.5C 130.418,139.65 125.918,138.983 122,134.5C 121.013,130.525 121.513,126.859 123.5,123.5C 123.5,122.833 123.833,122.5 124.5,122.5 Z"/></g>
<g><path style="opacity:1" fill="#551d1c" d="M 43.5,124.5 C 40.5,128.167 37.1667,131.5 33.5,134.5C 35.8333,130.167 39.1667,126.833 43.5,124.5 Z"/></g>
<g><path style="opacity:1" fill="#f6f1f1" d="M 155.5,127.5 C 155.351,132.575 154.685,137.575 153.5,142.5C 151.674,144.147 150.34,146.147 149.5,148.5C 147.5,149.833 145.5,149.833 143.5,148.5C 145.076,147.857 146.41,146.857 147.5,145.5C 149.516,141.009 151.349,136.342 153,131.5C 153.667,129.5 153.667,127.5 153,125.5C 150.895,123.985 151.061,123.485 153.5,124C 154.085,125.302 154.751,126.469 155.5,127.5 Z"/></g>
<g><path style="opacity:1" fill="#782916" d="M 158.5,121.5 C 159.404,122.209 159.737,123.209 159.5,124.5C 158.5,124.5 157.5,124.5 156.5,124.5C 156.666,128.514 156.499,132.514 156,136.5C 155.998,139.051 155.164,141.051 153.5,142.5C 154.685,137.575 155.351,132.575 155.5,127.5C 155.5,126.167 155.5,124.833 155.5,123.5C 156.778,123.218 157.778,122.551 158.5,121.5 Z"/></g>
<g><path style="opacity:1" fill="#5c1410" d="M 171.5,126.5 C 171.5,128.5 171.5,130.5 171.5,132.5C 170.167,133.833 168.833,135.167 167.5,136.5C 168.321,132.873 169.654,129.54 171.5,126.5 Z"/></g>
<g><path style="opacity:1" fill="#3b2314" d="M 33.5,134.5 C 33.1667,135.5 32.5,136.167 31.5,136.5C 31.5,135.167 32.1667,134.5 33.5,134.5 Z"/></g>
<g><path style="opacity:1" fill="#663e35" d="M 89.5,121.5 C 90.1667,121.5 90.5,121.833 90.5,122.5C 74.7811,137.218 59.7811,152.551 45.5,168.5C 44.6618,168.158 44.3284,167.492 44.5,166.5C 59.1667,151.167 74.1667,136.167 89.5,121.5 Z"/></g>
<g><path style="opacity:1" fill="#857879" d="M 145.5,135.5 C 143.052,136.473 140.385,136.806 137.5,136.5C 137.491,134.692 137.991,133.025 139,131.5C 140.819,133.503 142.985,134.836 145.5,135.5 Z"/></g>
<g><path style="opacity:1" fill="#592020" d="M 31.5,136.5 C 30.5,138.167 29.1667,139.5 27.5,140.5C 27.8333,138.167 29.1667,136.833 31.5,136.5 Z"/></g>
<g><path style="opacity:1" fill="#faf9fa" d="M 140.5,151.5 C 134.509,151.689 128.509,152.022 122.5,152.5C 120.214,152.04 118.881,150.707 118.5,148.5C 119.981,144.873 121.981,141.54 124.5,138.5C 125.977,141.591 127.644,144.591 129.5,147.5C 130.614,144.124 132.281,141.124 134.5,138.5C 138.346,142.003 140.346,146.337 140.5,151.5 Z"/></g>
<g><path style="opacity:1" fill="#e6ded8" d="M 127.5,139.5 C 128.5,139.5 129.5,139.5 130.5,139.5C 129.511,146.145 128.511,146.145 127.5,139.5 Z"/></g>
<g><path style="opacity:1" fill="#f92129" d="M 90.5,144.5 C 90.7934,151.255 90.4601,157.922 89.5,164.5C 84.0353,169.464 78.702,174.63 73.5,180C 67.8605,180.352 62.8605,178.685 58.5,175C 64.7631,169.243 70.4298,163.076 75.5,156.5C 80.5,152.5 85.5,148.5 90.5,144.5 Z"/></g>
<g><path style="opacity:1" fill="#7e2e20" d="M 115.5,106.5 C 112.896,108.6 110.396,110.933 108,113.5C 106.293,115.909 105.46,118.575 105.5,121.5C 105.5,122.5 105.5,123.5 105.5,124.5C 104.504,124.414 103.671,124.748 103,125.5C 101.203,135.282 104.036,143.282 111.5,149.5C 111.5,149.833 111.5,150.167 111.5,150.5C 111.678,156.724 113.011,157.057 115.5,151.5C 115.833,151.5 116.167,151.5 116.5,151.5C 117.823,153.686 119.823,155.186 122.5,156C 126.486,156.499 130.486,156.666 134.5,156.5C 135.5,156.5 136.5,156.5 137.5,156.5C 130.74,158.648 123.906,158.315 117,155.5C 114.804,156.09 112.638,156.757 110.5,157.5C 109.738,156.372 109.071,155.205 108.5,154C 109.554,152.612 109.72,151.112 109,149.5C 106.425,146.681 104.092,143.681 102,140.5C 101.976,134.295 101.142,128.295 99.5,122.5C 97.668,121.86 97.3347,120.86 98.5,119.5C 100.409,118.652 102.409,118.318 104.5,118.5C 106.061,112.604 109.728,108.604 115.5,106.5 Z"/></g>
<g><path style="opacity:1" fill="#e2b066" d="M 99.5,122.5 C 99.999,119.611 101.499,118.944 104,120.5C 104.483,121.448 104.649,122.448 104.5,123.5C 102.708,123.634 101.042,123.301 99.5,122.5 Z"/></g>
<g><path style="opacity:1" fill="#712728" d="M 153.5,142.5 C 153.316,145.337 151.982,147.337 149.5,148.5C 150.34,146.147 151.674,144.147 153.5,142.5 Z"/></g>
<g><path style="opacity:1" fill="#3b2f32" d="M 15.5,136.5 C 16.8333,137.167 18.1667,137.833 19.5,138.5C 21.1454,139.479 22.4787,140.812 23.5,142.5C 24.6223,141.37 25.9557,140.703 27.5,140.5C 26.8783,141.627 26.045,142.627 25,143.5C 24.3333,144.5 24.3333,145.5 25,146.5C 26.9506,150.456 29.7839,153.456 33.5,155.5C 33.5,155.833 33.5,156.167 33.5,156.5C 36.064,160.965 39.7306,164.298 44.5,166.5C 44.3284,167.492 44.6618,168.158 45.5,168.5C 48.9485,171.558 52.9485,173.558 57.5,174.5C 56.7659,175.708 56.4326,177.041 56.5,178.5C 38.1116,169.112 24.4449,155.112 15.5,136.5 Z"/></g>
<g><path style="opacity:1" fill="#f7f3f1" d="M 140.5,151.5 C 141.268,150.737 141.768,149.737 142,148.5C 142.399,148.728 142.565,149.062 142.5,149.5C 143.326,151.548 142.659,153.215 140.5,154.5C 140.167,154.5 139.833,154.5 139.5,154.5C 137.694,155.024 136.028,155.691 134.5,156.5C 130.486,156.666 126.486,156.499 122.5,156C 119.823,155.186 117.823,153.686 116.5,151.5C 116.351,150.448 116.517,149.448 117,148.5C 117.11,150.848 118.277,152.348 120.5,153C 126.833,153.667 133.167,153.667 139.5,153C 140.056,152.617 140.389,152.117 140.5,151.5 Z"/></g>
<g><path style="opacity:1" fill="#50281d" d="M 89.5,142.5 C 90.3382,142.842 90.6716,143.508 90.5,144.5C 85.5,148.5 80.5,152.5 75.5,156.5C 79.8333,151.5 84.5,146.833 89.5,142.5 Z"/></g>
<g><path style="opacity:1" fill="#dca054" d="M 111.5,150.5 C 113.099,150.232 114.432,150.566 115.5,151.5C 113.011,157.057 111.678,156.724 111.5,150.5 Z"/></g>
<g><path style="opacity:1" fill="#4f393d" d="M 139.5,154.5 C 139.5,155.833 138.833,156.5 137.5,156.5C 136.5,156.5 135.5,156.5 134.5,156.5C 136.028,155.691 137.694,155.024 139.5,154.5 Z"/></g>
<g><path style="opacity:1" fill="#76381b" d="M 143.5,148.5 C 145.5,149.833 147.5,149.833 149.5,148.5C 149.5,151.167 149.5,153.833 149.5,156.5C 147.302,156.88 145.635,156.213 144.5,154.5C 143.167,154.5 141.833,154.5 140.5,154.5C 142.659,153.215 143.326,151.548 142.5,149.5C 143.167,149.5 143.5,149.167 143.5,148.5 Z"/></g>
<g><path style="opacity:1" fill="#efb26b" d="M 144.5,154.5 C 143.444,151.818 144.444,150.651 147.5,151C 149.075,154.726 148.075,155.893 144.5,154.5 Z"/></g>
<g><path style="opacity:1" fill="#4c2522" d="M 171.5,132.5 C 170.237,137.032 168.403,141.365 166,145.5C 153.184,166.499 134.684,179.499 110.5,184.5C 106.167,184.5 101.833,184.5 97.5,184.5C 129.478,181.2 152.812,165.2 167.5,136.5C 168.833,135.167 170.167,133.833 171.5,132.5 Z"/></g>
<g><path style="opacity:1" fill="#fdfcfc" d="M 90.5,165.5 C 90.5,171.5 90.5,177.5 90.5,183.5C 85.4725,183.497 80.4725,183.164 75.5,182.5C 75.3893,181.883 75.056,181.383 74.5,181C 79.702,175.63 85.0353,170.464 90.5,165.5 Z"/></g>
<g><path style="opacity:1" fill="#472823" d="M 75.5,156.5 C 70.4298,163.076 64.7631,169.243 58.5,175C 62.8605,178.685 67.8605,180.352 73.5,180C 78.702,174.63 84.0353,169.464 89.5,164.5C 90.1667,164.5 90.5,164.833 90.5,165.5C 85.0353,170.464 79.702,175.63 74.5,181C 75.056,181.383 75.3893,181.883 75.5,182.5C 73.901,182.232 72.5676,182.566 71.5,183.5C 66.2896,182.43 61.2896,180.763 56.5,178.5C 56.4326,177.041 56.7659,175.708 57.5,174.5C 63.1667,168.167 69.1667,162.167 75.5,156.5 Z"/></g>
</svg>
