<?xml version="1.0" encoding="UTF-8"?>
<!DOCTYPE svg PUBLIC "-//W3C//DTD SVG 1.1//EN" "http://www.w3.org/Graphics/SVG/1.1/DTD/svg11.dtd">
<svg xmlns="http://www.w3.org/2000/svg" version="1.1" width="173px" height="185px" style="shape-rendering:geometricPrecision; text-rendering:geometricPrecision; image-rendering:optimizeQuality; fill-rule:evenodd; clip-rule:evenodd" xmlns:xlink="http://www.w3.org/1999/xlink">
<g><path style="opacity:1" fill="#040504" d="M -0.5,-0.5 C 57.1667,-0.5 114.833,-0.5 172.5,-0.5C 172.5,28.5 172.5,57.5 172.5,86.5C 171.778,86.0825 171.278,85.4158 171,84.5C 170.955,68.1735 171.122,51.8401 171.5,35.5C 171.333,25.5 171.167,15.5 171,5.5C 170.617,4.94404 170.117,4.61071 169.5,4.5C 168.817,2.82351 167.483,2.15684 165.5,2.5C 149.692,1.03256 133.692,0.365893 117.5,0.5C 107.328,0.500168 97.3277,0.833501 87.5,1.5C 76.987,1.14061 66.3204,1.14061 55.5,1.5C 46.0853,0.922629 36.4187,0.589295 26.5,0.5C 18.8333,0.666667 11.1667,0.833333 3.5,1C 2.94404,1.38258 2.61071,1.88258 2.5,2.5C 2.5,30.5 2.5,58.5 2.5,86.5C 1.62356,86.3691 0.956892,86.7025 0.5,87.5C 0.994306,89.0255 1.66097,90.3588 2.5,91.5C 2.5,100.833 2.5,110.167 2.5,119.5C 1.74867,116.754 0.748673,114.087 -0.5,111.5C -0.5,74.1667 -0.5,36.8333 -0.5,-0.5 Z"/></g>
<g><path style="opacity:1" fill="#111d15" d="M 55.5,1.5 C 55.5,1.83333 55.5,2.16667 55.5,2.5C 37.8333,2.5 20.1667,2.5 2.5,2.5C 2.61071,1.88258 2.94404,1.38258 3.5,1C 11.1667,0.833333 18.8333,0.666667 26.5,0.5C 36.4187,0.589295 46.0853,0.922629 55.5,1.5 Z"/></g>
<g><path style="opacity:1" fill="#383839" d="M 165.5,2.5 C 139.5,2.5 113.5,2.5 87.5,2.5C 87.5,2.16667 87.5,1.83333 87.5,1.5C 97.3277,0.833501 107.328,0.500168 117.5,0.5C 133.692,0.365893 149.692,1.03256 165.5,2.5 Z"/></g>
<g><path style="opacity:1" fill="#1d1d1d" d="M 87.5,1.5 C 87.5,1.83333 87.5,2.16667 87.5,2.5C 86.502,30.3284 86.1687,58.3284 86.5,86.5C 114.167,86.5 141.833,86.5 169.5,86.5C 169.5,59.1667 169.5,31.8333 169.5,4.5C 170.117,4.61071 170.617,4.94404 171,5.5C 171.167,15.5 171.333,25.5 171.5,35.5C 171.122,51.8401 170.955,68.1735 171,84.5C 171.278,85.4158 171.778,86.0825 172.5,86.5C 172.5,91.8333 172.5,97.1667 172.5,102.5C 171.609,103.11 170.609,103.443 169.5,103.5C 169.5,98.5 169.5,93.5 169.5,88.5C 141.833,88.5 114.167,88.5 86.5,88.5C 86.5,108.5 86.5,128.5 86.5,148.5C 96.8333,148.5 107.167,148.5 117.5,148.5C 117.082,149.222 116.416,149.722 115.5,150C 105.839,150.5 96.1724,150.666 86.5,150.5C 86.5,153.167 86.5,155.833 86.5,158.5C 86.5,159.5 86.5,160.5 86.5,161.5C 86.5,164.167 86.5,166.833 86.5,169.5C 86.5,170.5 86.5,171.5 86.5,172.5C 86.5,175.167 86.5,177.833 86.5,180.5C 86.2144,182.933 85.5477,182.933 84.5,180.5C 84.5,149.833 84.5,119.167 84.5,88.5C 57.1667,88.5 29.8333,88.5 2.5,88.5C 2.5,89.5 2.5,90.5 2.5,91.5C 1.66097,90.3588 0.994306,89.0255 0.5,87.5C 0.956892,86.7025 1.62356,86.3691 2.5,86.5C 29.8333,86.5 57.1667,86.5 84.5,86.5C 84.5,58.5 84.5,30.5 84.5,2.5C 74.8333,2.5 65.1667,2.5 55.5,2.5C 55.5,2.16667 55.5,1.83333 55.5,1.5C 66.3204,1.14061 76.987,1.14061 87.5,1.5 Z"/></g>
<g><path style="opacity:1" fill="#54814c" d="M 2.5,2.5 C 20.1667,2.5 37.8333,2.5 55.5,2.5C 65.1667,2.5 74.8333,2.5 84.5,2.5C 84.5,30.5 84.5,58.5 84.5,86.5C 57.1667,86.5 29.8333,86.5 2.5,86.5C 2.5,58.5 2.5,30.5 2.5,2.5 Z"/></g>
<g><path style="opacity:1" fill="#fcfcfc" d="M 87.5,2.5 C 113.5,2.5 139.5,2.5 165.5,2.5C 167.483,2.15684 168.817,2.82351 169.5,4.5C 169.5,31.8333 169.5,59.1667 169.5,86.5C 141.833,86.5 114.167,86.5 86.5,86.5C 86.1687,58.3284 86.502,30.3284 87.5,2.5 Z"/></g>
<g><path style="opacity:1" fill="#4a7849" d="M 114.5,9.5 C 115.051,12.8067 115.384,16.1401 115.5,19.5C 116.791,19.7373 117.791,19.404 118.5,18.5C 119.134,17.0532 120.301,16.3866 122,16.5C 123.07,16.528 123.903,16.8614 124.5,17.5C 126.371,21.8662 127.038,26.5329 126.5,31.5C 126.5,32.5 126.5,33.5 126.5,34.5C 125.5,34.5 124.5,34.5 123.5,34.5C 123.5,33.8333 123.167,33.5 122.5,33.5C 122.335,31.1732 121.669,29.0065 120.5,27C 118.055,26.0902 116.722,26.9236 116.5,29.5C 115.305,29.8656 114.639,30.699 114.5,32C 115.167,33.3333 115.833,34.6667 116.5,36C 114.424,37.2438 113.424,39.0771 113.5,41.5C 114.833,41.5 116.167,41.5 117.5,41.5C 117.67,42.8221 117.337,43.9887 116.5,45C 114.155,45.2365 112.155,46.0698 110.5,47.5C 108.883,46.4107 108.05,44.744 108,42.5C 107.331,45.2674 106.164,45.7674 104.5,44C 105.388,42.7803 106.055,41.4469 106.5,40C 106.316,38.6244 105.649,37.7911 104.5,37.5C 104.5,36.5 104.5,35.5 104.5,34.5C 105.552,34.6495 106.552,34.4828 107.5,34C 107.167,33.6667 106.833,33.3333 106.5,33C 107.357,32.3109 108.023,31.4776 108.5,30.5C 106.317,27.3151 103.317,25.9818 99.5,26.5C 99.6633,28.8568 99.4966,31.1902 99,33.5C 97.9887,34.3366 96.8221,34.67 95.5,34.5C 95.5405,31.1194 95.2071,27.7861 94.5,24.5C 95.713,20.6265 98.3796,18.6265 102.5,18.5C 104.893,20.7361 106.727,23.4027 108,26.5C 107.173,21.1677 107.34,15.8344 108.5,10.5C 109.915,5.77811 111.915,5.44477 114.5,9.5 Z"/></g>
<g><path style="opacity:1" fill="#537f4b" d="M 154.5,46.5 C 153.609,47.1098 152.609,47.4431 151.5,47.5C 150.828,46.7326 149.995,46.0659 149,45.5C 145.99,50.8049 144.656,50.4715 145,44.5C 143.456,47.2636 142.289,47.0969 141.5,44C 142.056,43.6174 142.389,43.1174 142.5,42.5C 144.103,43.6772 145.436,43.5106 146.5,42C 145,41.1667 143.833,40 143,38.5C 142.601,38.7284 142.435,39.0618 142.5,39.5C 142.167,39.5 141.833,39.5 141.5,39.5C 140.833,39.5 140.5,39.1667 140.5,38.5C 140.5,36.5 141.5,35.5 143.5,35.5C 147.505,32.8325 147.172,30.8325 142.5,29.5C 141.686,27.7274 140.352,27.2274 138.5,28C 137.577,30.0408 137.244,32.2075 137.5,34.5C 136.5,34.5 135.5,34.5 134.5,34.5C 134.167,29.8333 133.833,25.1667 133.5,20.5C 135.194,18.5624 137.194,18.2291 139.5,19.5C 141.499,21.4935 142.999,23.8268 144,26.5C 144.497,23.854 144.664,21.1873 144.5,18.5C 145.434,17.4324 145.768,16.099 145.5,14.5C 146.304,12.8113 147.304,11.1446 148.5,9.5C 150.505,12.0299 151.839,14.8632 152.5,18C 151.179,22.6349 149.845,27.3015 148.5,32C 149.828,34.1665 151.494,35.9999 153.5,37.5C 152.624,38.2508 151.624,38.7508 150.5,39C 152.009,41.4274 153.343,43.9274 154.5,46.5 Z"/></g>
<g><path style="opacity:1" fill="#fefffe" d="M 18.5,16.5 C 18.5,17.1667 18.5,17.8333 18.5,18.5C 17.1434,17.3146 15.6434,16.3146 14,15.5C 9.33228,17.4609 9.33228,16.7943 14,13.5C 15.6147,14.3862 17.1147,15.3862 18.5,16.5 Z"/></g>
<g><path style="opacity:1" fill="#9f9d9f" d="M 59.5,17.5 C 58.6661,16.2521 57.3328,15.5854 55.5,15.5C 46.3013,14.1616 37.3013,14.4949 28.5,16.5C 27.9569,16.44 27.6236,16.1067 27.5,15.5C 29.0453,14.5481 30.712,14.2148 32.5,14.5C 41.8206,13.3317 51.1539,13.3317 60.5,14.5C 60.7373,15.791 60.404,16.791 59.5,17.5 Z"/></g>
<g><path style="opacity:1" fill="#363c38" d="M 20.5,17.5 C 19.8333,17.1667 19.1667,16.8333 18.5,16.5C 17.1147,15.3862 15.6147,14.3862 14,13.5C 9.33228,16.7943 9.33228,17.4609 14,15.5C 15.6434,16.3146 17.1434,17.3146 18.5,18.5C 19.7563,20.941 19.7563,23.2743 18.5,25.5C 18.1362,20.3827 15.4696,18.0493 10.5,18.5C 9.90538,21.625 9.90538,23.9583 10.5,25.5C 12.308,28.5844 13.6413,32.0844 14.5,36C 14.4301,36.7648 14.0967,37.2648 13.5,37.5C 12.0806,35.073 11.0806,32.4064 10.5,29.5C 9.67428,33.5739 10.1743,37.5739 12,41.5C 12.3333,41.1667 12.6667,40.8333 13,40.5C 13.7914,41.745 14.2914,43.0783 14.5,44.5C 17.3382,46.3059 17.0048,47.3059 13.5,47.5C 13.7373,46.209 13.404,45.209 12.5,44.5C 12.19,43.2617 11.69,43.2617 11,44.5C 10.8279,51.0133 10.3279,57.3466 9.5,63.5C 9.16667,63.5 8.83333,63.5 8.5,63.5C 8.60097,57.9891 8.9343,52.4891 9.5,47C 7.5932,37.0647 6.92654,27.0647 7.5,17C 12.159,9.61263 16.4923,9.7793 20.5,17.5 Z"/></g>
<g><path style="opacity:1" fill="#8a8788" d="M 108.5,10.5 C 107.34,15.8344 107.173,21.1677 108,26.5C 106.727,23.4027 104.893,20.7361 102.5,18.5C 104.017,18.5106 105.184,19.1772 106,20.5C 106.026,16.8211 106.86,13.4878 108.5,10.5 Z"/></g>
<g><path style="opacity:1" fill="#a8a4a6" d="M 114.5,9.5 C 115.645,12.6781 116.978,15.6781 118.5,18.5C 117.791,19.404 116.791,19.7373 115.5,19.5C 115.384,16.1401 115.051,12.8067 114.5,9.5 Z"/></g>
<g><path style="opacity:1" fill="#fafafa" d="M 59.5,17.5 C 58.8333,17.5 58.5,17.8333 58.5,18.5C 56.8211,18.8923 55.1545,19.3923 53.5,20C 55.567,23.4809 56.567,27.3142 56.5,31.5C 55.0256,32.4363 54.0256,33.7697 53.5,35.5C 51.2729,36.4006 50.2729,38.0672 50.5,40.5C 52.4815,41.3475 54.4815,41.8475 56.5,42C 61.6133,39.6943 66.1133,36.5277 70,32.5C 70.3333,28.8333 70.6667,25.1667 71,21.5C 72.2901,16.5115 75.1235,15.3448 79.5,18C 78.5838,18.3742 77.7504,18.8742 77,19.5C 77.2179,21.5868 77.0512,23.5868 76.5,25.5C 72.2574,22.913 71.5907,23.7463 74.5,28C 74.1374,30.5534 73.1374,32.72 71.5,34.5C 69.7056,37.7454 67.0389,40.0788 63.5,41.5C 63.3893,42.1174 63.056,42.6174 62.5,43C 59.367,43.3925 56.367,44.2259 53.5,45.5C 54.2634,46.7193 55.2634,47.7193 56.5,48.5C 54.784,48.9972 53.1173,49.3306 51.5,49.5C 52.4991,52.1741 54.1658,52.8408 56.5,51.5C 55.5042,61.5766 59.0042,69.5766 67,75.5C 67.5281,76.816 67.0281,77.4827 65.5,77.5C 62.7492,73.243 59.4158,69.4097 55.5,66C 54.5632,65.3083 53.8966,65.475 53.5,66.5C 52.5489,67.9187 52.2155,69.5853 52.5,71.5C 51.5,71.5 50.5,71.5 49.5,71.5C 48.736,68.213 46.9027,65.5463 44,63.5C 43.7744,66.095 43.2744,68.595 42.5,71C 41.5509,71.6172 40.7175,71.4506 40,70.5C 39.79,68.9419 39.29,67.6085 38.5,66.5C 37.6942,65.0028 37.0276,63.3361 36.5,61.5C 34.4514,60.1182 32.7847,58.4516 31.5,56.5C 30.3666,53.7291 29.3666,50.8958 28.5,48C 28.6251,46.3732 29.1251,44.8732 30,43.5C 32.1796,42.6538 33.6796,41.1538 34.5,39C 30.2222,35.9361 28.5555,31.7695 29.5,26.5C 30.2161,28.5563 30.8828,30.723 31.5,33C 34.8347,35.2909 37.668,34.7909 40,31.5C 40.4935,33.1341 40.6602,34.8008 40.5,36.5C 43.6352,36.4518 45.3019,34.7852 45.5,31.5C 53.3621,34.7775 56.1954,32.1108 54,23.5C 53.2229,21.7852 51.8895,20.7852 50,20.5C 44.7913,23.3753 39.7913,23.0419 35,19.5C 34.6174,20.056 34.1174,20.3893 33.5,20.5C 31.8577,19.197 30.1911,17.8637 28.5,16.5C 37.3013,14.4949 46.3013,14.1616 55.5,15.5C 57.3328,15.5854 58.6661,16.2521 59.5,17.5 Z"/></g>
<g><path style="opacity:1" fill="#747574" d="M 146.5,7.5 C 145.781,9.76375 145.448,12.0971 145.5,14.5C 145.768,16.099 145.434,17.4324 144.5,18.5C 142.577,21.2178 141.244,20.8845 140.5,17.5C 141.117,17.6107 141.617,17.944 142,18.5C 143.156,14.8772 144.156,11.2106 145,7.5C 145.69,6.26166 146.19,6.26166 146.5,7.5 Z"/></g>
<g><path style="opacity:1" fill="#f7f7f7" d="M 18.5,25.5 C 19.185,30.2394 20.185,34.9061 21.5,39.5C 20.4168,39.5394 19.4168,39.8728 18.5,40.5C 17.269,39.3493 17.269,38.1827 18.5,37C 17.5509,36.3828 16.7175,36.5494 16,37.5C 15.1041,34.975 15.6041,32.8083 17.5,31C 16.4642,29.3831 15.2975,29.2164 14,30.5C 13.7468,27.7996 13.7468,25.133 14,22.5C 13.6667,22.1667 13.3333,21.8333 13,21.5C 11.9054,22.6934 11.072,24.0267 10.5,25.5C 9.90538,23.9583 9.90538,21.625 10.5,18.5C 15.4696,18.0493 18.1362,20.3827 18.5,25.5 Z"/></g>
<g><path style="opacity:1" fill="#434d46" d="M 140.5,17.5 C 141.244,20.8845 142.577,21.2178 144.5,18.5C 144.664,21.1873 144.497,23.854 144,26.5C 142.999,23.8268 141.499,21.4935 139.5,19.5C 137.194,18.2291 135.194,18.5624 133.5,20.5C 133.5,19.8333 133.5,19.1667 133.5,18.5C 135.607,17.5318 137.941,17.1984 140.5,17.5 Z"/></g>
<g><path style="opacity:1" fill="#616f65" d="M 102.5,18.5 C 98.3796,18.6265 95.713,20.6265 94.5,24.5C 94.5,23.8333 94.5,23.1667 94.5,22.5C 95.7204,17.9016 98.3871,16.5683 102.5,18.5 Z"/></g>
<g><path style="opacity:1" fill="#57834d" d="M 153.5,28.5 C 152.624,28.6309 151.957,28.2975 151.5,27.5C 152.193,26.4822 152.859,25.4822 153.5,24.5C 153.762,22.4362 154.929,21.1029 157,20.5C 157.971,21.1984 159.137,21.1984 160.5,20.5C 161.442,20.6082 162.275,20.9415 163,21.5C 163.309,22.7659 163.809,23.9326 164.5,25C 163.545,28.0994 162.711,31.266 162,34.5C 161.25,33.8742 160.416,33.3742 159.5,33C 160.833,31.6667 160.833,30.3333 159.5,29C 158.034,28.3645 156.7,27.5312 155.5,26.5C 154.478,26.8555 153.811,27.5222 153.5,28.5 Z"/></g>
<g><path style="opacity:1" fill="#807d80" d="M 29.5,26.5 C 31.1344,24.7151 32.4677,22.7151 33.5,20.5C 34.1174,20.3893 34.6174,20.056 35,19.5C 39.7913,23.0419 44.7913,23.3753 50,20.5C 51.8895,20.7852 53.2229,21.7852 54,23.5C 56.1954,32.1108 53.3621,34.7775 45.5,31.5C 45.3019,34.7852 43.6352,36.4518 40.5,36.5C 40.6602,34.8008 40.4935,33.1341 40,31.5C 37.668,34.7909 34.8347,35.2909 31.5,33C 30.8828,30.723 30.2161,28.5563 29.5,26.5 Z"/></g>
<g><path style="opacity:1" fill="#fefffe" d="M 34.5,22.5 C 38.9757,22.8222 40.4757,25.1556 39,29.5C 35.1675,32.6726 33.0009,31.8393 32.5,27C 32.7586,25.2134 33.4253,23.7134 34.5,22.5 Z"/></g>
<g><path style="opacity:1" fill="#7a7b7a" d="M 124.5,17.5 C 126.017,17.5106 127.184,18.1772 128,19.5C 128.652,23.7561 128.152,27.7561 126.5,31.5C 127.038,26.5329 126.371,21.8662 124.5,17.5 Z"/></g>
<g><path style="opacity:1" fill="#aea5ab" d="M 133.5,18.5 C 133.5,19.1667 133.5,19.8333 133.5,20.5C 132.285,24.0326 132.285,27.6992 133.5,31.5C 132.883,31.3893 132.383,31.056 132,30.5C 131.333,26.8333 131.333,23.1667 132,19.5C 132.383,18.944 132.883,18.6107 133.5,18.5 Z"/></g>
<g><path style="opacity:1" fill="#565c57" d="M 133.5,20.5 C 133.833,25.1667 134.167,29.8333 134.5,34.5C 135.5,34.5 136.5,34.5 137.5,34.5C 136.713,36.1042 135.38,36.7709 133.5,36.5C 133.5,34.8333 133.5,33.1667 133.5,31.5C 132.285,27.6992 132.285,24.0326 133.5,20.5 Z"/></g>
<g><path style="opacity:1" fill="#273d2d" d="M 152.5,12.5 C 153.393,16.6599 153.726,20.6599 153.5,24.5C 152.859,25.4822 152.193,26.4822 151.5,27.5C 151.957,28.2975 152.624,28.6309 153.5,28.5C 153.5,29.1667 153.5,29.8333 153.5,30.5C 153.196,31.1499 152.863,31.8165 152.5,32.5C 153.833,34.1667 155.167,35.8333 156.5,37.5C 153.584,40.1367 153.917,42.3034 157.5,44C 156.627,45.045 155.627,45.8783 154.5,46.5C 153.343,43.9274 152.009,41.4274 150.5,39C 151.624,38.7508 152.624,38.2508 153.5,37.5C 151.494,35.9999 149.828,34.1665 148.5,32C 149.845,27.3015 151.179,22.6349 152.5,18C 151.839,14.8632 150.505,12.0299 148.5,9.5C 147.304,11.1446 146.304,12.8113 145.5,14.5C 145.448,12.0971 145.781,9.76375 146.5,7.5C 147.423,6.69708 148.423,6.53042 149.5,7C 150.758,8.74091 151.758,10.5742 152.5,12.5 Z"/></g>
<g><path style="opacity:1" fill="#fefefe" d="M 52.5,25.5 C 54.0328,29.7945 52.3661,31.6278 47.5,31C 44.4672,27.0943 45.3005,24.261 50,22.5C 51.7491,22.7483 52.5824,23.7483 52.5,25.5 Z"/></g>
<g><path style="opacity:1" fill="#5b585c" d="M 34.5,24.5 C 38.1612,24.3501 39.1612,25.8501 37.5,29C 33.7071,29.4866 32.7071,27.9866 34.5,24.5 Z"/></g>
<g><path style="opacity:1" fill="#e7e5e7" d="M 74.5,13.5 C 73.2073,15.2959 71.7073,16.9625 70,18.5C 68.9191,23.4762 67.9191,28.4762 67,33.5C 64.0381,36.3989 60.5381,38.3989 56.5,39.5C 55.8933,39.3764 55.56,39.0431 55.5,38.5C 59.0536,37.2307 62.0536,35.2307 64.5,32.5C 65.2216,32.0825 65.7216,31.4158 66,30.5C 66.498,27.5184 66.6646,24.5184 66.5,21.5C 67.4961,17.1706 70.1627,14.5039 74.5,13.5 Z"/></g>
<g><path style="opacity:1" fill="#818280" d="M 122.5,33.5 C 121.043,31.7582 119.876,29.7582 119,27.5C 118.292,28.3805 117.458,29.0472 116.5,29.5C 116.722,26.9236 118.055,26.0902 120.5,27C 121.669,29.0065 122.335,31.1732 122.5,33.5 Z"/></g>
<g><path style="opacity:1" fill="#7f7b7f" d="M 52.5,25.5 C 52.6162,28.9103 50.9496,30.2436 47.5,29.5C 46.9224,25.065 48.5891,23.7317 52.5,25.5 Z"/></g>
<g><path style="opacity:1" fill="#838683" d="M 66.5,21.5 C 66.6646,24.5184 66.498,27.5184 66,30.5C 65.7216,31.4158 65.2216,32.0825 64.5,32.5C 64.6459,28.6125 65.3126,24.9458 66.5,21.5 Z"/></g>
<g><path style="opacity:1" fill="#727472" d="M 58.5,18.5 C 57.1852,19.667 56.5186,21.167 56.5,23C 57.6095,25.9987 57.6095,28.832 56.5,31.5C 56.567,27.3142 55.567,23.4809 53.5,20C 55.1545,19.3923 56.8211,18.8923 58.5,18.5 Z"/></g>
<g><path style="opacity:1" fill="#c7c4c7" d="M 82.5,29.5 C 82.5,30.5 82.5,31.5 82.5,32.5C 81.5041,32.5858 80.6708,32.2524 80,31.5C 79.2599,32.7494 79.4265,33.7494 80.5,34.5C 80.5,35.1667 80.1667,35.5 79.5,35.5C 78.2921,36.2341 76.9587,36.5674 75.5,36.5C 74.8571,32.5994 75.8571,29.266 78.5,26.5C 79.5695,27.9095 80.9028,28.9095 82.5,29.5 Z"/></g>
<g><path style="opacity:1" fill="#223127" d="M 142.5,29.5 C 147.172,30.8325 147.505,32.8325 143.5,35.5C 143.675,33.3792 143.341,31.3792 142.5,29.5 Z"/></g>
<g><path style="opacity:1" fill="#5d645e" d="M 104.5,37.5 C 103.503,37.5299 102.836,37.0299 102.5,36C 103.477,34.503 104.477,33.003 105.5,31.5C 105.019,28.6857 103.352,27.3524 100.5,27.5C 101.143,31.4331 100.143,34.7664 97.5,37.5C 95.9519,37.1788 95.2852,36.1788 95.5,34.5C 96.8221,34.67 97.9887,34.3366 99,33.5C 99.4966,31.1902 99.6633,28.8568 99.5,26.5C 103.317,25.9818 106.317,27.3151 108.5,30.5C 108.023,31.4776 107.357,32.3109 106.5,33C 106.833,33.3333 107.167,33.6667 107.5,34C 106.552,34.4828 105.552,34.6495 104.5,34.5C 104.5,35.5 104.5,36.5 104.5,37.5 Z"/></g>
<g><path style="opacity:1" fill="#363f38" d="M 152.5,12.5 C 153.887,14.8766 154.721,17.5432 155,20.5C 158.943,17.6342 162.61,17.9676 166,21.5C 166.555,27.3471 165.722,33.0138 163.5,38.5C 159.458,37.1073 157.124,34.2739 156.5,30C 155.423,29.5304 154.423,29.6971 153.5,30.5C 153.5,29.8333 153.5,29.1667 153.5,28.5C 153.811,27.5222 154.478,26.8555 155.5,26.5C 156.7,27.5312 158.034,28.3645 159.5,29C 160.833,30.3333 160.833,31.6667 159.5,33C 160.416,33.3742 161.25,33.8742 162,34.5C 162.711,31.266 163.545,28.0994 164.5,25C 163.809,23.9326 163.309,22.7659 163,21.5C 162.275,20.9415 161.442,20.6082 160.5,20.5C 159.137,21.1984 157.971,21.1984 157,20.5C 154.929,21.1029 153.762,22.4362 153.5,24.5C 153.726,20.6599 153.393,16.6599 152.5,12.5 Z"/></g>
<g><path style="opacity:1" fill="#e7e7e7" d="M 13.5,37.5 C 14.1175,39.2292 15.1175,40.7292 16.5,42C 15.9341,42.9947 15.2674,43.828 14.5,44.5C 14.2914,43.0783 13.7914,41.745 13,40.5C 12.6667,40.8333 12.3333,41.1667 12,41.5C 10.1743,37.5739 9.67428,33.5739 10.5,29.5C 11.0806,32.4064 12.0806,35.073 13.5,37.5 Z"/></g>
<g><path style="opacity:1" fill="#5a5859" d="M 123.5,34.5 C 124.5,34.5 125.5,34.5 126.5,34.5C 125.911,38.2965 124.911,38.2965 123.5,34.5 Z"/></g>
<g><path style="opacity:1" fill="#636463" d="M 142.5,29.5 C 143.341,31.3792 143.675,33.3792 143.5,35.5C 141.5,35.5 140.5,36.5 140.5,38.5C 139.903,38.2648 139.57,37.7648 139.5,37C 140.484,35.3435 141.484,33.6768 142.5,32C 141.975,31.3076 141.308,30.8076 140.5,30.5C 139.479,31.9014 138.479,33.2347 137.5,34.5C 137.244,32.2075 137.577,30.0408 138.5,28C 140.352,27.2274 141.686,27.7274 142.5,29.5 Z"/></g>
<g><path style="opacity:1" fill="#fdfcfd" d="M 72.5,36.5 C 73.709,38.4346 73.5423,40.4346 72,42.5C 70.187,41.3909 69.3537,42.0576 69.5,44.5C 67.7748,44.1575 67.2748,43.1575 68,41.5C 70.3913,40.61 71.8913,38.9433 72.5,36.5 Z"/></g>
<g><path style="opacity:1" fill="#5c5b5c" d="M 32.5,14.5 C 30.712,14.2148 29.0453,14.5481 27.5,15.5C 27.6236,16.1067 27.9569,16.44 28.5,16.5C 30.1911,17.8637 31.8577,19.197 33.5,20.5C 32.4677,22.7151 31.1344,24.7151 29.5,26.5C 28.5555,31.7695 30.2222,35.9361 34.5,39C 33.6796,41.1538 32.1796,42.6538 30,43.5C 29.1251,44.8732 28.6251,46.3732 28.5,48C 29.3666,50.8958 30.3666,53.7291 31.5,56.5C 29.5583,61.0557 28.8917,66.0557 29.5,71.5C 29.1667,71.5 28.8333,71.5 28.5,71.5C 26.9382,71.7329 25.6049,72.3995 24.5,73.5C 24.83,66.8002 24.4967,60.1335 23.5,53.5C 22.5025,61.1378 22.1692,68.8045 22.5,76.5C 21.5,75.1667 20.5,75.1667 19.5,76.5C 20.365,67.8295 20.865,59.1628 21,50.5C 20.3333,49.1667 19.6667,49.1667 19,50.5C 17.7773,58.4529 17.2773,66.4529 17.5,74.5C 16.8333,74.1667 16.1667,73.8333 15.5,73.5C 15.9497,65.1273 15.9497,56.7939 15.5,48.5C 13.8172,57.289 13.4838,65.9557 14.5,74.5C 14.5,74.8333 14.5,75.1667 14.5,75.5C 12.7629,72.992 11.9296,69.992 12,66.5C 11.3333,65.1667 10.6667,65.1667 10,66.5C 8.96141,65.7562 8.46141,64.7562 8.5,63.5C 8.83333,63.5 9.16667,63.5 9.5,63.5C 10.1894,64.7736 11.0228,64.7736 12,63.5C 12.4995,57.1754 12.6662,50.8421 12.5,44.5C 13.404,45.209 13.7373,46.209 13.5,47.5C 17.0048,47.3059 17.3382,46.3059 14.5,44.5C 15.2674,43.828 15.9341,42.9947 16.5,42C 15.1175,40.7292 14.1175,39.2292 13.5,37.5C 14.0967,37.2648 14.4301,36.7648 14.5,36C 13.6413,32.0844 12.308,28.5844 10.5,25.5C 11.072,24.0267 11.9054,22.6934 13,21.5C 13.3333,21.8333 13.6667,22.1667 14,22.5C 13.7468,25.133 13.7468,27.7996 14,30.5C 15.2975,29.2164 16.4642,29.3831 17.5,31C 15.6041,32.8083 15.1041,34.975 16,37.5C 16.7175,36.5494 17.5509,36.3828 18.5,37C 17.269,38.1827 17.269,39.3493 18.5,40.5C 19.4168,39.8728 20.4168,39.5394 21.5,39.5C 20.185,34.9061 19.185,30.2394 18.5,25.5C 19.7563,23.2743 19.7563,20.941 18.5,18.5C 18.5,17.8333 18.5,17.1667 18.5,16.5C 19.1667,16.8333 19.8333,17.1667 20.5,17.5C 22.6808,21.8637 23.6808,26.1971 23.5,30.5C 22.8826,30.3893 22.3826,30.056 22,29.5C 21.6667,26.8333 21.3333,24.1667 21,21.5C 20.3333,24.5 20.3333,27.5 21,30.5C 22.0594,33.8032 23.5594,36.8032 25.5,39.5C 25.6682,42.0514 26.6682,42.7181 28.5,41.5C 29.6431,41.0919 30.6431,40.4252 31.5,39.5C 29.0638,36.471 28.0638,32.971 28.5,29C 28.6749,26.1767 29.3416,23.51 30.5,21C 28.2841,19.2806 26.6175,17.114 25.5,14.5C 25.8869,13.2801 26.7202,12.6135 28,12.5C 29.7275,12.899 31.2275,13.5657 32.5,14.5 Z"/></g>
<g><path style="opacity:1" fill="#fdfdfd" d="M 23.5,30.5 C 23.8726,33.5739 24.5392,36.5739 25.5,39.5C 23.5594,36.8032 22.0594,33.8032 21,30.5C 20.3333,27.5 20.3333,24.5 21,21.5C 21.3333,24.1667 21.6667,26.8333 22,29.5C 22.3826,30.056 22.8826,30.3893 23.5,30.5 Z"/></g>
<g><path style="opacity:1" fill="#b7b4b6" d="M 94.5,22.5 C 94.5,23.1667 94.5,23.8333 94.5,24.5C 95.2071,27.7861 95.5405,31.1194 95.5,34.5C 95.2852,36.1788 95.9519,37.1788 97.5,37.5C 96.791,38.404 95.791,38.7373 94.5,38.5C 94.0615,32.9747 94.0615,27.6414 94.5,22.5 Z"/></g>
<g><path style="opacity:1" fill="#f9f9f9" d="M 21.5,39.5 C 24.7651,41.022 26.0984,43.3553 25.5,46.5C 24.6733,44.838 23.5067,43.5046 22,42.5C 21.5172,41.552 21.3505,40.552 21.5,39.5 Z"/></g>
<g><path style="opacity:1" fill="#f3f3f3" d="M 76.5,69.5 C 75.8333,69.5 75.5,69.1667 75.5,68.5C 75.6664,60.4931 75.4997,52.4931 75,44.5C 74.6198,53.8943 73.4531,62.8943 71.5,71.5C 71.3903,63.4754 71.7237,55.4754 72.5,47.5C 72.5,46.8333 72.5,46.1667 72.5,45.5C 74.149,43.8252 75.4823,41.8252 76.5,39.5C 77.8229,49.6589 77.8229,59.6589 76.5,69.5 Z"/></g>
<g><path style="opacity:1" fill="#fdfdfd" d="M 25.5,39.5 C 26.5,40.1667 27.5,40.8333 28.5,41.5C 26.6682,42.7181 25.6682,42.0514 25.5,39.5 Z"/></g>
<g><path style="opacity:1" fill="#4c7d49" d="M 127.5,40.5 C 128.496,40.4142 129.329,40.7476 130,41.5C 132,47.8333 132,54.1667 130,60.5C 129.682,62.0609 128.849,63.2276 127.5,64C 128.793,64.49 130.127,64.6567 131.5,64.5C 132.775,67.5689 132.775,70.2356 131.5,72.5C 130.957,72.56 130.624,72.8933 130.5,73.5C 131.167,74.5 131.833,75.5 132.5,76.5C 131.609,77.5896 130.609,77.5896 129.5,76.5C 128.614,77.325 128.281,78.325 128.5,79.5C 128.672,80.4916 128.338,81.1583 127.5,81.5C 126.194,80.5326 125.527,79.1993 125.5,77.5C 124.167,77.5 122.833,77.5 121.5,77.5C 121.5,76.5 121.5,75.5 121.5,74.5C 123.851,73.0839 123.851,71.4172 121.5,69.5C 122.859,66.9404 124.526,64.4404 126.5,62C 124.944,56.6112 124.278,51.1112 124.5,45.5C 125.737,44.0351 126.737,42.3684 127.5,40.5 Z"/></g>
<g><path style="opacity:1" fill="#28322b" d="M 142.5,42.5 C 142.5,41.5 142.5,40.5 142.5,39.5C 142.435,39.0618 142.601,38.7284 143,38.5C 143.833,40 145,41.1667 146.5,42C 145.436,43.5106 144.103,43.6772 142.5,42.5 Z"/></g>
<g><path style="opacity:1" fill="#fefffe" d="M 12.5,44.5 C 12.6662,50.8421 12.4995,57.1754 12,63.5C 11.0228,64.7736 10.1894,64.7736 9.5,63.5C 10.3279,57.3466 10.8279,51.0133 11,44.5C 11.69,43.2617 12.19,43.2617 12.5,44.5 Z"/></g>
<g><path style="opacity:1" fill="#b8b6b8" d="M 71.5,34.5 C 71.3284,35.4916 71.6618,36.1583 72.5,36.5C 71.8913,38.9433 70.3913,40.61 68,41.5C 67.2748,43.1575 67.7748,44.1575 69.5,44.5C 70.209,45.404 71.209,45.7373 72.5,45.5C 72.5,46.1667 72.5,46.8333 72.5,47.5C 70.8476,54.6101 69.8476,61.9434 69.5,69.5C 69.825,61.9809 69.4916,54.6476 68.5,47.5C 68.6309,46.6236 68.2975,45.9569 67.5,45.5C 66.0316,47.3329 64.3649,47.6662 62.5,46.5C 63.1455,44.5679 64.4788,43.4012 66.5,43C 65.7562,41.9614 64.7562,41.4614 63.5,41.5C 67.0389,40.0788 69.7056,37.7454 71.5,34.5 Z"/></g>
<g><path style="opacity:1" fill="#878587" d="M 74.5,13.5 C 76.258,13.8769 77.9246,14.5435 79.5,15.5C 81.2888,19.3109 82.6221,23.3109 83.5,27.5C 83.4573,28.4164 83.1239,29.0831 82.5,29.5C 80.9028,28.9095 79.5695,27.9095 78.5,26.5C 75.8571,29.266 74.8571,32.5994 75.5,36.5C 76.9587,36.5674 78.2921,36.2341 79.5,35.5C 79.1686,44.1922 79.502,52.8589 80.5,61.5C 81.8218,52.3418 81.8218,43.3418 80.5,34.5C 79.4265,33.7494 79.2599,32.7494 80,31.5C 80.6708,32.2524 81.5041,32.5858 82.5,32.5C 82.8319,42.8548 82.4986,53.1881 81.5,63.5C 79.1052,62.4775 78.1052,63.4775 78.5,66.5C 78.762,67.9778 78.4287,69.3112 77.5,70.5C 76.8933,70.3764 76.56,70.0431 76.5,69.5C 77.8229,59.6589 77.8229,49.6589 76.5,39.5C 75.4823,41.8252 74.149,43.8252 72.5,45.5C 71.209,45.7373 70.209,45.404 69.5,44.5C 69.3537,42.0576 70.187,41.3909 72,42.5C 73.5423,40.4346 73.709,38.4346 72.5,36.5C 71.6618,36.1583 71.3284,35.4916 71.5,34.5C 73.1374,32.72 74.1374,30.5534 74.5,28C 71.5907,23.7463 72.2574,22.913 76.5,25.5C 77.0512,23.5868 77.2179,21.5868 77,19.5C 77.7504,18.8742 78.5838,18.3742 79.5,18C 75.1235,15.3448 72.2901,16.5115 71,21.5C 70.6667,25.1667 70.3333,28.8333 70,32.5C 66.1133,36.5277 61.6133,39.6943 56.5,42C 54.4815,41.8475 52.4815,41.3475 50.5,40.5C 50.2729,38.0672 51.2729,36.4006 53.5,35.5C 53.2852,37.1788 53.9519,38.1788 55.5,38.5C 55.56,39.0431 55.8933,39.3764 56.5,39.5C 60.5381,38.3989 64.0381,36.3989 67,33.5C 67.9191,28.4762 68.9191,23.4762 70,18.5C 71.7073,16.9625 73.2073,15.2959 74.5,13.5 Z"/></g>
<g><path style="opacity:1" fill="#fcfcfc" d="M 80.5,34.5 C 81.8218,43.3418 81.8218,52.3418 80.5,61.5C 79.502,52.8589 79.1686,44.1922 79.5,35.5C 80.1667,35.5 80.5,35.1667 80.5,34.5 Z"/></g>
<g><path style="opacity:1" fill="#e7e6e7" d="M 18.5,43.5 C 20.1765,44.1834 20.8432,45.5168 20.5,47.5C 19.448,47.6495 18.448,47.4828 17.5,47C 18.3366,45.9887 18.67,44.8221 18.5,43.5 Z"/></g>
<g><path style="opacity:1" fill="#737675" d="M 104.5,37.5 C 105.649,37.7911 106.316,38.6244 106.5,40C 106.055,41.4469 105.388,42.7803 104.5,44C 106.164,45.7674 107.331,45.2674 108,42.5C 108.05,44.744 108.883,46.4107 110.5,47.5C 110.631,48.3764 110.298,49.0431 109.5,49.5C 107.991,47.5761 105.991,46.4094 103.5,46C 102.62,44.6439 102.286,43.1439 102.5,41.5C 103.675,41.719 104.675,41.3857 105.5,40.5C 104.873,39.5832 104.539,38.5832 104.5,37.5 Z"/></g>
<g><path style="opacity:1" fill="#e5e5e5" d="M 22.5,47.5 C 27.4214,47.1349 27.7547,48.1349 23.5,50.5C 22.6143,49.675 22.281,48.675 22.5,47.5 Z"/></g>
<g><path style="opacity:1" fill="#fcfcfc" d="M 15.5,73.5 C 14.8333,73.5 14.5,73.8333 14.5,74.5C 13.4838,65.9557 13.8172,57.289 15.5,48.5C 15.9497,56.7939 15.9497,65.1273 15.5,73.5 Z"/></g>
<g><path style="opacity:1" fill="#fafafa" d="M 19.5,76.5 C 18.1667,76.5 17.5,75.8333 17.5,74.5C 17.2773,66.4529 17.7773,58.4529 19,50.5C 19.6667,49.1667 20.3333,49.1667 21,50.5C 20.865,59.1628 20.365,67.8295 19.5,76.5 Z"/></g>
<g><path style="opacity:1" fill="#a9a4a7" d="M 127.5,39.5 C 127.5,39.8333 127.5,40.1667 127.5,40.5C 126.737,42.3684 125.737,44.0351 124.5,45.5C 123.532,47.6074 123.198,49.9407 123.5,52.5C 121.62,52.7709 120.287,52.1042 119.5,50.5C 120.496,50.4142 121.329,50.7476 122,51.5C 122.333,49.1667 122.667,46.8333 123,44.5C 124.517,42.7605 126.017,41.0938 127.5,39.5 Z"/></g>
<g><path style="opacity:1" fill="#4d804a" d="M 114.5,51.5 C 119.495,52.3244 122.828,55.1577 124.5,60C 123.906,60.4643 123.239,60.631 122.5,60.5C 120.243,59.1974 118.41,59.864 117,62.5C 116.392,64.1545 115.892,65.8211 115.5,67.5C 115.158,68.3382 114.492,68.6716 113.5,68.5C 112.596,67.791 112.263,66.791 112.5,65.5C 113.687,62.6571 113.687,59.6571 112.5,56.5C 113.187,54.8228 113.854,53.1561 114.5,51.5 Z"/></g>
<g><path style="opacity:1" fill="#51814b" d="M 142.5,53.5 C 143.474,59.002 143.14,64.3353 141.5,69.5C 141.118,65.7317 139.451,62.7317 136.5,60.5C 135.432,59.5655 134.099,59.2322 132.5,59.5C 132.433,58.0413 132.766,56.7079 133.5,55.5C 133.953,54.5416 134.619,53.7083 135.5,53C 138.039,52.2042 140.372,52.3709 142.5,53.5 Z"/></g>
<g><path style="opacity:1" fill="#fefffe" d="M 24.5,73.5 C 24.573,75.0269 23.9063,76.0269 22.5,76.5C 22.1692,68.8045 22.5025,61.1378 23.5,53.5C 24.4967,60.1335 24.83,66.8002 24.5,73.5 Z"/></g>
<g><path style="opacity:1" fill="#fefffe" d="M 26.5,53.5 C 27.1174,53.6107 27.6174,53.944 28,54.5C 28.1667,57 28.3333,59.5 28.5,62C 28.6182,65.0272 28.1182,67.8605 27,70.5C 26.5006,64.8431 26.3339,59.1764 26.5,53.5 Z"/></g>
<g><path style="opacity:1" fill="#304d39" d="M 130.5,38.5 C 131.799,44.2363 132.799,49.903 133.5,55.5C 132.766,56.7079 132.433,58.0413 132.5,59.5C 134.099,59.2322 135.432,59.5655 136.5,60.5C 135.178,60.33 134.011,60.6634 133,61.5C 132.852,63.9054 133.352,66.2387 134.5,68.5C 134.246,70.4172 133.246,71.7505 131.5,72.5C 132.775,70.2356 132.775,67.5689 131.5,64.5C 130.127,64.6567 128.793,64.49 127.5,64C 128.849,63.2276 129.682,62.0609 130,60.5C 132,54.1667 132,47.8333 130,41.5C 129.329,40.7476 128.496,40.4142 127.5,40.5C 127.5,40.1667 127.5,39.8333 127.5,39.5C 128.391,38.8902 129.391,38.5569 130.5,38.5 Z"/></g>
<g><path style="opacity:1" fill="#626663" d="M 130.5,38.5 C 131.79,39.0577 132.623,40.0577 133,41.5C 133.297,44.914 133.964,48.2473 135,51.5C 136.126,50.0564 137.626,49.3898 139.5,49.5C 141.224,49.9039 142.891,50.0706 144.5,50C 142.751,48.7085 140.918,47.5418 139,46.5C 138.51,45.2068 138.343,43.8734 138.5,42.5C 139.5,42.5 140.5,42.5 141.5,42.5C 141.5,41.5 141.5,40.5 141.5,39.5C 141.833,39.5 142.167,39.5 142.5,39.5C 142.5,40.5 142.5,41.5 142.5,42.5C 142.389,43.1174 142.056,43.6174 141.5,44C 142.289,47.0969 143.456,47.2636 145,44.5C 144.656,50.4715 145.99,50.8049 149,45.5C 149.995,46.0659 150.828,46.7326 151.5,47.5C 149.636,48.9784 148.303,50.9784 147.5,53.5C 146.522,53.0233 145.689,52.3567 145,51.5C 145.251,53.9554 145.751,56.4554 146.5,59C 145.655,63.4605 145.322,67.9605 145.5,72.5C 143.278,72.822 141.444,72.1554 140,70.5C 138.218,67.3681 137.052,64.0347 136.5,60.5C 139.451,62.7317 141.118,65.7317 141.5,69.5C 142.209,70.404 143.209,70.7373 144.5,70.5C 144.666,65.1563 144.499,59.8229 144,54.5C 143.617,53.944 143.117,53.6107 142.5,53.5C 140.372,52.3709 138.039,52.2042 135.5,53C 134.619,53.7083 133.953,54.5416 133.5,55.5C 132.799,49.903 131.799,44.2363 130.5,38.5 Z"/></g>
<g><path style="opacity:1" fill="#3a5a43" d="M 124.5,45.5 C 124.278,51.1112 124.944,56.6112 126.5,62C 124.526,64.4404 122.859,66.9404 121.5,69.5C 120.503,69.5299 119.836,69.0299 119.5,68C 121.429,66.3058 122.429,64.1391 122.5,61.5C 122.5,61.1667 122.5,60.8333 122.5,60.5C 123.239,60.631 123.906,60.4643 124.5,60C 122.828,55.1577 119.495,52.3244 114.5,51.5C 115.919,50.5489 117.585,50.2155 119.5,50.5C 120.287,52.1042 121.62,52.7709 123.5,52.5C 123.198,49.9407 123.532,47.6074 124.5,45.5 Z"/></g>
<g><path style="opacity:1" fill="#334b39" d="M 31.5,56.5 C 32.7847,58.4516 34.4514,60.1182 36.5,61.5C 37.0276,63.3361 37.6942,65.0028 38.5,66.5C 38.5,69.1667 38.5,71.8333 38.5,74.5C 37.5,75.1667 36.5,75.8333 35.5,76.5C 34.5,76.5 33.5,76.5 32.5,76.5C 37.4283,74.6221 38.7617,71.1221 36.5,66C 34.5661,63.9987 32.8994,61.832 31.5,59.5C 30.833,63.6475 30.1663,67.6475 29.5,71.5C 28.8917,66.0557 29.5583,61.0557 31.5,56.5 Z"/></g>
<g><path style="opacity:1" fill="#808180" d="M 122.5,60.5 C 122.5,60.8333 122.5,61.1667 122.5,61.5C 121.448,61.3505 120.448,61.5172 119.5,62C 118.251,63.98 116.918,65.8133 115.5,67.5C 115.892,65.8211 116.392,64.1545 117,62.5C 118.41,59.864 120.243,59.1974 122.5,60.5 Z"/></g>
<g><path style="opacity:1" fill="#8b8e8a" d="M 114.5,51.5 C 113.854,53.1561 113.187,54.8228 112.5,56.5C 113.687,59.6571 113.687,62.6571 112.5,65.5C 111.996,61.4934 111.83,57.4934 112,53.5C 112.708,52.6195 113.542,51.9528 114.5,51.5 Z"/></g>
<g><path style="opacity:1" fill="#898589" d="M 63.5,41.5 C 64.7562,41.4614 65.7562,41.9614 66.5,43C 64.4788,43.4012 63.1455,44.5679 62.5,46.5C 64.3649,47.6662 66.0316,47.3329 67.5,45.5C 68.2975,45.9569 68.6309,46.6236 68.5,47.5C 67.3454,54.3209 67.1787,61.3209 68,68.5C 68.3826,69.056 68.8826,69.3893 69.5,69.5C 69.8476,61.9434 70.8476,54.6101 72.5,47.5C 71.7237,55.4754 71.3903,63.4754 71.5,71.5C 71.5,71.8333 71.5,72.1667 71.5,72.5C 71.5,73.1667 71.5,73.8333 71.5,74.5C 68.3957,71.8991 65.3957,69.0657 62.5,66C 61.6683,65.3123 61.0016,65.479 60.5,66.5C 63.6508,70.1514 66.9842,73.6514 70.5,77C 71.4368,77.6917 72.1034,77.525 72.5,76.5C 73.2891,76.7828 73.9558,77.2828 74.5,78C 71.3035,78.8045 68.3035,78.6378 65.5,77.5C 67.0281,77.4827 67.5281,76.816 67,75.5C 59.0042,69.5766 55.5042,61.5766 56.5,51.5C 54.1658,52.8408 52.4991,52.1741 51.5,49.5C 53.1173,49.3306 54.784,48.9972 56.5,48.5C 55.2634,47.7193 54.2634,46.7193 53.5,45.5C 56.367,44.2259 59.367,43.3925 62.5,43C 63.056,42.6174 63.3893,42.1174 63.5,41.5 Z"/></g>
<g><path style="opacity:1" fill="#f3f2f3" d="M 59.5,51.5 C 60.7868,52.8714 61.4535,54.7047 61.5,57C 61.1667,58.8333 60.8333,60.6667 60.5,62.5C 59.5108,58.8927 59.1774,55.226 59.5,51.5 Z"/></g>
<g><path style="opacity:1" fill="#fefffe" d="M 64.5,49.5 C 65.8137,54.3477 65.8137,59.3477 64.5,64.5C 63.2214,59.4489 63.2214,54.4489 64.5,49.5 Z"/></g>
<g><path style="opacity:1" fill="#f6f5f6" d="M 68.5,47.5 C 69.4916,54.6476 69.825,61.9809 69.5,69.5C 68.8826,69.3893 68.3826,69.056 68,68.5C 67.1787,61.3209 67.3454,54.3209 68.5,47.5 Z"/></g>
<g><path style="opacity:1" fill="#aeadae" d="M 75.5,68.5 C 74.8333,69.8333 74.1667,71.1667 73.5,72.5C 72.8333,72.5 72.1667,72.5 71.5,72.5C 71.5,72.1667 71.5,71.8333 71.5,71.5C 73.4531,62.8943 74.6198,53.8943 75,44.5C 75.4997,52.4931 75.6664,60.4931 75.5,68.5 Z"/></g>
<g><path style="opacity:1" fill="#656b67" d="M 112.5,65.5 C 112.263,66.791 112.596,67.791 113.5,68.5C 112.632,70.6246 111.632,70.7913 110.5,69C 110.808,67.5405 111.475,66.3739 112.5,65.5 Z"/></g>
<g><path style="opacity:1" fill="#2c4b34" d="M 142.5,53.5 C 143.117,53.6107 143.617,53.944 144,54.5C 144.499,59.8229 144.666,65.1563 144.5,70.5C 143.209,70.7373 142.209,70.404 141.5,69.5C 143.14,64.3353 143.474,59.002 142.5,53.5 Z"/></g>
<g><path style="opacity:1" fill="#4d6152" d="M 78.5,66.5 C 79.4511,67.9187 79.7845,69.5853 79.5,71.5C 78.1667,71.5 76.8333,71.5 75.5,71.5C 75.719,72.675 75.3857,73.675 74.5,74.5C 73.7025,74.0431 73.3691,73.3764 73.5,72.5C 74.1667,71.1667 74.8333,69.8333 75.5,68.5C 75.5,69.1667 75.8333,69.5 76.5,69.5C 76.56,70.0431 76.8933,70.3764 77.5,70.5C 78.4287,69.3112 78.762,67.9778 78.5,66.5 Z"/></g>
<g><path style="opacity:1" fill="#dedcde" d="M 71.5,74.5 C 71.8333,75.1667 72.1667,75.8333 72.5,76.5C 72.1034,77.525 71.4368,77.6917 70.5,77C 66.9842,73.6514 63.6508,70.1514 60.5,66.5C 61.0016,65.479 61.6683,65.3123 62.5,66C 65.3957,69.0657 68.3957,71.8991 71.5,74.5 Z"/></g>
<g><path style="opacity:1" fill="#283d2e" d="M 28.5,71.5 C 27.2412,74.5499 25.2412,77.0499 22.5,79C 20.5753,78.8651 18.5753,78.6984 16.5,78.5C 16.7148,76.8212 16.0481,75.8212 14.5,75.5C 14.5,75.1667 14.5,74.8333 14.5,74.5C 14.5,73.8333 14.8333,73.5 15.5,73.5C 16.1667,73.8333 16.8333,74.1667 17.5,74.5C 17.5,75.8333 18.1667,76.5 19.5,76.5C 20.5,75.1667 21.5,75.1667 22.5,76.5C 23.9063,76.0269 24.573,75.0269 24.5,73.5C 25.6049,72.3995 26.9382,71.7329 28.5,71.5 Z"/></g>
<g><path style="opacity:1" fill="#d4cfd2" d="M 38.5,74.5 C 39.5,74.5 40.5,74.5 41.5,74.5C 41.8808,76.9418 41.2141,77.6085 39.5,76.5C 38.5,77.1667 37.5,77.8333 36.5,78.5C 35.7025,78.0431 35.3691,77.3764 35.5,76.5C 36.5,75.8333 37.5,75.1667 38.5,74.5 Z"/></g>
<g><path style="opacity:1" fill="#515e56" d="M 131.5,72.5 C 132.903,73.9312 134.569,75.0978 136.5,76C 134.628,78.9439 131.961,80.1105 128.5,79.5C 128.281,78.325 128.614,77.325 129.5,76.5C 130.609,77.5896 131.609,77.5896 132.5,76.5C 131.833,75.5 131.167,74.5 130.5,73.5C 130.624,72.8933 130.957,72.56 131.5,72.5 Z"/></g>
<g><path style="opacity:1" fill="#717171" d="M 53.5,66.5 C 54.2096,71.656 55.0429,76.656 56,81.5C 54.5944,82.6682 53.4277,82.3348 52.5,80.5C 51.8333,81.1667 51.1667,81.8333 50.5,82.5C 48.5,81.1667 46.5,81.1667 44.5,82.5C 43.5514,80.0666 44.2181,78.0666 46.5,76.5C 48.3332,74.5043 48.8332,72.171 48,69.5C 46.9887,68.6634 45.8221,68.33 44.5,68.5C 44.7849,74.0505 42.9515,78.7172 39,82.5C 38.3109,81.6433 37.4776,80.9767 36.5,80.5C 34.5,80.8333 32.5,81.1667 30.5,81.5C 28.9103,78.8301 29.577,77.1634 32.5,76.5C 33.5,76.5 34.5,76.5 35.5,76.5C 35.3691,77.3764 35.7025,78.0431 36.5,78.5C 37.5,77.8333 38.5,77.1667 39.5,76.5C 41.2141,77.6085 41.8808,76.9418 41.5,74.5C 40.5,74.5 39.5,74.5 38.5,74.5C 38.5,71.8333 38.5,69.1667 38.5,66.5C 39.29,67.6085 39.79,68.9419 40,70.5C 40.7175,71.4506 41.5509,71.6172 42.5,71C 43.2744,68.595 43.7744,66.095 44,63.5C 46.9027,65.5463 48.736,68.213 49.5,71.5C 50.5,71.5 51.5,71.5 52.5,71.5C 52.2155,69.5853 52.5489,67.9187 53.5,66.5 Z"/></g>
<g><path style="opacity:1" fill="#eae9ea" d="M 46.5,76.5 C 48.3146,75.3702 50.3146,74.7036 52.5,74.5C 52.9228,77.2431 51.7561,78.5765 49,78.5C 47.6244,78.3158 46.7911,77.6491 46.5,76.5 Z"/></g>
<g><path style="opacity:1" fill="#5e665f" d="M 121.5,74.5 C 121.5,75.5 121.5,76.5 121.5,77.5C 122.833,77.5 124.167,77.5 125.5,77.5C 125.527,79.1993 126.194,80.5326 127.5,81.5C 127.5,82.5 127.5,83.5 127.5,84.5C 126.5,84.5 125.5,84.5 124.5,84.5C 124.5,82.8333 124.5,81.1667 124.5,79.5C 120.488,80.1126 118.488,78.4459 118.5,74.5C 119.5,74.5 120.5,74.5 121.5,74.5 Z"/></g>
<g><path style="opacity:1" fill="#fbfbfb" d="M 84.5,180.5 C 76.4502,180.214 68.4502,179.381 60.5,178C 53.6383,175.396 46.9716,172.563 40.5,169.5C 41.9346,168.176 42.9346,166.509 43.5,164.5C 45.7582,163.201 48.0916,162.201 50.5,161.5C 50.5,160.5 50.5,159.5 50.5,158.5C 49.0222,158.762 47.6888,158.429 46.5,157.5C 49.0869,154.677 49.0869,152.01 46.5,149.5C 45.1416,147.257 45.8083,145.591 48.5,144.5C 50.2898,146.792 51.7898,149.459 53,152.5C 54.2635,154.607 56.0968,155.607 58.5,155.5C 58.8229,149.31 58.4896,143.31 57.5,137.5C 56.8333,137.167 56.1667,136.833 55.5,136.5C 55.0377,135.12 54.0377,134.453 52.5,134.5C 50.8653,135.046 49.1986,135.38 47.5,135.5C 47.6493,131.522 46.6493,127.856 44.5,124.5C 41.5308,123.155 39.8641,124.155 39.5,127.5C 37.0795,129.878 35.9128,132.878 36,136.5C 35.3292,135.748 34.4959,135.414 33.5,135.5C 28.4579,134.04 25.7912,136.04 25.5,141.5C 27.1254,145.752 26.7921,149.752 24.5,153.5C 25.365,154.583 26.365,154.749 27.5,154C 30.2023,151.403 32.5356,148.57 34.5,145.5C 35.646,146.145 36.646,146.978 37.5,148C 35.7727,149.389 34.4394,151.056 33.5,153C 33.8361,154.03 34.5028,154.53 35.5,154.5C 38.0031,157.258 37.1698,158.925 33,159.5C 32.4153,160.998 32.9153,161.998 34.5,162.5C 35.5676,163.434 36.901,163.768 38.5,163.5C 39.0965,165.398 39.0965,167.065 38.5,168.5C 19.4851,157.175 7.48508,140.842 2.5,119.5C 2.5,110.167 2.5,100.833 2.5,91.5C 2.5,90.5 2.5,89.5 2.5,88.5C 29.8333,88.5 57.1667,88.5 84.5,88.5C 84.5,119.167 84.5,149.833 84.5,180.5 Z"/></g>
<g><path style="opacity:1" fill="#fafafa" d="M 169.5,103.5 C 168.778,119.94 163.778,134.94 154.5,148.5C 145.897,149.088 137.564,148.422 129.5,146.5C 129.245,143.063 130.412,140.396 133,138.5C 136.28,139.622 138.78,141.622 140.5,144.5C 143.507,146.175 146.84,146.841 150.5,146.5C 155.415,146.313 157.081,143.98 155.5,139.5C 153.479,136.3 150.479,134.466 146.5,134C 150.175,131.172 152.842,127.672 154.5,123.5C 154.5,122.833 154.5,122.167 154.5,121.5C 154.845,117.805 156.178,114.472 158.5,111.5C 160.428,109.399 161.095,107.066 160.5,104.5C 158.226,100.245 154.893,97.2452 150.5,95.5C 147.019,98.6314 145.185,102.298 145,106.5C 144.667,106.833 144.333,107.167 144,107.5C 143.768,106.263 143.268,105.263 142.5,104.5C 142.945,101.635 142.278,99.1354 140.5,97C 137.188,96.4617 134.021,96.9617 131,98.5C 129.774,98.3552 128.607,98.0219 127.5,97.5C 125.463,102.076 125.13,106.743 126.5,111.5C 125.504,111.586 124.671,111.252 124,110.5C 124.108,105.72 123.275,101.386 121.5,97.5C 120.167,97.8333 118.833,98.1667 117.5,98.5C 115.331,97.9182 112.998,97.9182 110.5,98.5C 109.833,100.167 109.167,101.833 108.5,103.5C 107.262,105.214 106.595,107.214 106.5,109.5C 108.199,109.34 109.866,109.506 111.5,110C 113.787,112.962 116.62,115.129 120,116.5C 121.316,119.688 121.816,123.022 121.5,126.5C 122.084,129.285 121.084,130.952 118.5,131.5C 116.31,130.626 115.31,128.959 115.5,126.5C 115.5,125.833 115.5,125.167 115.5,124.5C 116.622,122.712 116.789,120.712 116,118.5C 115.329,117.748 114.496,117.414 113.5,117.5C 113.5,116.5 113.5,115.5 113.5,114.5C 112.5,114.5 111.5,114.5 110.5,114.5C 109.426,112.784 107.759,111.784 105.5,111.5C 103.306,114.845 101.972,118.512 101.5,122.5C 102.005,123.919 103.005,124.585 104.5,124.5C 104.737,125.791 104.404,126.791 103.5,127.5C 101.336,125.178 99.6693,122.511 98.5,119.5C 98.448,117.097 98.7814,114.764 99.5,112.5C 100.167,112.167 100.833,111.833 101.5,111.5C 103.556,110.407 104.556,108.574 104.5,106C 104.202,103.152 103.869,100.319 103.5,97.5C 101.516,97.6168 99.8498,96.9501 98.5,95.5C 91.7694,98.2943 89.2694,103.294 91,110.5C 91.7083,111.381 92.5416,112.047 93.5,112.5C 93.8333,113.167 94.1667,113.833 94.5,114.5C 94.0834,118.817 94.7501,122.817 96.5,126.5C 98.6705,130.016 101.67,132.349 105.5,133.5C 101.452,133.395 97.4517,133.728 93.5,134.5C 92.551,136.737 91.8844,139.071 91.5,141.5C 91.1667,141.5 90.8333,141.5 90.5,141.5C 89.596,142.209 89.2627,143.209 89.5,144.5C 92.2594,145.885 95.2594,146.552 98.5,146.5C 102.252,146.451 105.252,145.117 107.5,142.5C 108.309,140.972 108.976,139.306 109.5,137.5C 110.167,137.5 110.833,137.5 111.5,137.5C 119.346,137.22 121.68,140.553 118.5,147.5C 118.5,148.167 118.167,148.5 117.5,148.5C 107.167,148.5 96.8333,148.5 86.5,148.5C 86.5,128.5 86.5,108.5 86.5,88.5C 114.167,88.5 141.833,88.5 169.5,88.5C 169.5,93.5 169.5,98.5 169.5,103.5 Z"/></g>
<g><path style="opacity:1" fill="#56824d" d="M 28.5,99.5 C 28.5,101.5 28.5,103.5 28.5,105.5C 26.568,109.02 25.068,112.686 24,116.5C 23.8138,113.964 23.3138,111.631 22.5,109.5C 20.9364,103.67 21.4364,98.0035 24,92.5C 25.4186,94.9929 26.9186,97.3263 28.5,99.5 Z"/></g>
<g><path style="opacity:1" fill="#686b69" d="M 101.5,111.5 C 102.138,109.54 102.138,107.707 101.5,106C 103.878,102.3 102.878,99.4664 98.5,97.5C 97.2638,98.2458 95.9305,98.5792 94.5,98.5C 93.871,100.465 93.2043,102.465 92.5,104.5C 92.8838,107.139 93.2171,109.806 93.5,112.5C 92.5416,112.047 91.7083,111.381 91,110.5C 89.2694,103.294 91.7694,98.2943 98.5,95.5C 99.8498,96.9501 101.516,97.6168 103.5,97.5C 103.869,100.319 104.202,103.152 104.5,106C 104.556,108.574 103.556,110.407 101.5,111.5 Z"/></g>
<g><path style="opacity:1" fill="#53854d" d="M 117.5,98.5 C 116.534,100.057 115.2,101.39 113.5,102.5C 112.575,101.359 111.741,101.359 111,102.5C 110.51,101.207 110.343,99.8734 110.5,98.5C 112.998,97.9182 115.331,97.9182 117.5,98.5 Z"/></g>
<g><path style="opacity:1" fill="#797979" d="M 142.5,104.5 C 141.833,102.833 141.167,101.167 140.5,99.5C 138.338,98.5829 136.005,98.5829 133.5,99.5C 132.508,99.3284 131.842,99.6618 131.5,100.5C 130.833,100.5 130.167,100.5 129.5,100.5C 127.586,103.684 126.92,107.351 127.5,111.5C 127.167,111.5 126.833,111.5 126.5,111.5C 125.13,106.743 125.463,102.076 127.5,97.5C 128.607,98.0219 129.774,98.3552 131,98.5C 134.021,96.9617 137.188,96.4617 140.5,97C 142.278,99.1354 142.945,101.635 142.5,104.5 Z"/></g>
<g><path style="opacity:1" fill="#467b48" d="M 101.5,111.5 C 100.833,111.833 100.167,112.167 99.5,112.5C 98.3509,112.209 97.6842,111.376 97.5,110C 98.3863,107.192 98.553,104.359 98,101.5C 96.5845,104.958 96.0845,108.625 96.5,112.5C 95.5,112.5 94.5,112.5 93.5,112.5C 93.2171,109.806 92.8838,107.139 92.5,104.5C 93.2043,102.465 93.871,100.465 94.5,98.5C 95.9305,98.5792 97.2638,98.2458 98.5,97.5C 102.878,99.4664 103.878,102.3 101.5,106C 102.138,107.707 102.138,109.54 101.5,111.5 Z"/></g>
<g><path style="opacity:1" fill="#286d39" d="M 140.5,99.5 C 140.66,101.199 140.494,102.866 140,104.5C 137.359,103.268 135.193,101.602 133.5,99.5C 136.005,98.5829 138.338,98.5829 140.5,99.5 Z"/></g>
<g><path style="opacity:1" fill="#55824c" d="M 150.5,99.5 C 151.5,99.5 152.5,99.5 153.5,99.5C 157.164,104.107 157.331,108.774 154,113.5C 153.305,109.467 152.472,105.467 151.5,101.5C 151.112,105.589 150.112,109.256 148.5,112.5C 147.314,107.842 147.981,103.509 150.5,99.5 Z"/></g>
<g><path style="opacity:1" fill="#7c7c7b" d="M 63.5,94.5 C 64.7899,95.0577 65.6232,96.0577 66,97.5C 65.9467,100.675 66.78,103.342 68.5,105.5C 68.5,106.167 68.1667,106.5 67.5,106.5C 66.8333,106.5 66.1667,106.5 65.5,106.5C 65.6684,102.342 65.0017,98.3425 63.5,94.5 Z"/></g>
<g><path style="opacity:1" fill="#4c6453" d="M 63.5,94.5 C 62.1779,94.33 61.0113,94.6634 60,95.5C 59.2029,100.175 58.3696,104.841 57.5,109.5C 56.5748,108.643 55.9081,107.643 55.5,106.5C 57.3167,102.937 58.4834,98.9371 59,94.5C 60.7723,90.5 62.2723,90.5 63.5,94.5 Z"/></g>
<g><path style="opacity:1" fill="#4c7f49" d="M 129.5,100.5 C 130.167,100.5 130.833,100.5 131.5,100.5C 133.424,102.09 133.757,103.924 132.5,106C 135.124,105.35 137.791,105.517 140.5,106.5C 140.5,107.5 140.5,108.5 140.5,109.5C 140.5,109.833 140.5,110.167 140.5,110.5C 137.167,111.167 133.833,111.833 130.5,112.5C 128.352,108.648 128.018,104.648 129.5,100.5 Z"/></g>
<g><path style="opacity:1" fill="#437644" d="M 29.5,114.5 C 28.448,114.649 27.448,114.483 26.5,114C 27.7025,111.095 29.0359,108.262 30.5,105.5C 32.8074,101.133 35.9741,100.466 40,103.5C 40.3151,108.838 40.1484,114.172 39.5,119.5C 38.1779,119.67 37.0113,119.337 36,118.5C 35.5477,115.851 34.7143,113.351 33.5,111C 32.2068,110.51 30.8734,110.343 29.5,110.5C 29.5,111.833 29.5,113.167 29.5,114.5 Z"/></g>
<g><path style="opacity:1" fill="#57834d" d="M 21.5,112.5 C 21.8693,114.993 21.2027,115.66 19.5,114.5C 18.8333,114.5 18.5,114.167 18.5,113.5C 17.3568,108.836 15.5235,108.503 13,112.5C 12.8142,114.9 12.3142,117.234 11.5,119.5C 11.1667,119 10.8333,118.5 10.5,118C 9.68513,114.475 9.51846,110.642 10,106.5C 11.5251,103.913 13.6917,103.08 16.5,104C 18.8303,106.55 20.497,109.383 21.5,112.5 Z"/></g>
<g><path style="opacity:1" fill="#36523e" d="M 121.5,97.5 C 122.11,98.391 122.443,99.391 122.5,100.5C 118.61,100.555 116.443,102.555 116,106.5C 113.865,104.722 111.365,104.055 108.5,104.5C 108.5,104.167 108.5,103.833 108.5,103.5C 109.167,101.833 109.833,100.167 110.5,98.5C 110.343,99.8734 110.51,101.207 111,102.5C 111.741,101.359 112.575,101.359 113.5,102.5C 115.2,101.39 116.534,100.057 117.5,98.5C 118.833,98.1667 120.167,97.8333 121.5,97.5 Z"/></g>
<g><path style="opacity:1" fill="#457946" d="M 63.5,94.5 C 65.0017,98.3425 65.6684,102.342 65.5,106.5C 63.9757,109.207 62.9757,112.207 62.5,115.5C 60.8327,116.666 59.166,116.666 57.5,115.5C 57.5,114.833 57.1667,114.5 56.5,114.5C 56.5824,112.748 55.7491,111.748 54,111.5C 51.9264,112.072 50.7598,113.405 50.5,115.5C 50.5,115.833 50.5,116.167 50.5,116.5C 49.3509,116.209 48.6842,115.376 48.5,114C 47.7135,110.542 47.3802,107.042 47.5,103.5C 51.0343,101.756 53.7009,102.756 55.5,106.5C 55.9081,107.643 56.5748,108.643 57.5,109.5C 58.3696,104.841 59.2029,100.175 60,95.5C 61.0113,94.6634 62.1779,94.33 63.5,94.5 Z"/></g>
<g><path style="opacity:1" fill="#4d804c" d="M 71.5,103.5 C 75.099,102.938 77.099,104.438 77.5,108C 77.2589,112.481 76.2589,116.648 74.5,120.5C 73.0735,118.852 72.2401,116.852 72,114.5C 71.2917,113.619 70.4584,112.953 69.5,112.5C 68.4583,111.209 67.2917,111.209 66,112.5C 65.2516,110.16 65.7516,108.16 67.5,106.5C 68.1667,106.5 68.5,106.167 68.5,105.5C 68.9731,104.094 69.9731,103.427 71.5,103.5 Z"/></g>
<g><path style="opacity:1" fill="#494949" d="M 158.5,111.5 C 158.196,108.478 157.696,105.478 157,102.5C 156.241,100.937 155.074,99.9371 153.5,99.5C 152.5,99.5 151.5,99.5 150.5,99.5C 149.5,99.5 148.5,99.5 147.5,99.5C 147.33,101.848 146.997,104.182 146.5,106.5C 146.599,108.799 147.266,110.799 148.5,112.5C 149.167,113.5 149.833,114.5 150.5,115.5C 147.572,114.409 145.406,112.409 144,109.5C 142.989,110.337 141.822,110.67 140.5,110.5C 140.5,110.167 140.5,109.833 140.5,109.5C 142.256,108.448 142.923,106.781 142.5,104.5C 143.268,105.263 143.768,106.263 144,107.5C 144.333,107.167 144.667,106.833 145,106.5C 145.185,102.298 147.019,98.6314 150.5,95.5C 154.893,97.2452 158.226,100.245 160.5,104.5C 161.095,107.066 160.428,109.399 158.5,111.5 Z"/></g>
<g><path style="opacity:1" fill="#22472d" d="M 133.5,99.5 C 135.193,101.602 137.359,103.268 140,104.5C 140.494,102.866 140.66,101.199 140.5,99.5C 141.167,101.167 141.833,102.833 142.5,104.5C 142.923,106.781 142.256,108.448 140.5,109.5C 140.5,108.5 140.5,107.5 140.5,106.5C 137.791,105.517 135.124,105.35 132.5,106C 133.757,103.924 133.424,102.09 131.5,100.5C 131.842,99.6618 132.508,99.3284 133.5,99.5 Z"/></g>
<g><path style="opacity:1" fill="#3f4641" d="M 28.5,96.5 C 28.5,97.5 28.5,98.5 28.5,99.5C 26.9186,97.3263 25.4186,94.9929 24,92.5C 21.4364,98.0035 20.9364,103.67 22.5,109.5C 22.7373,110.791 22.404,111.791 21.5,112.5C 20.497,109.383 18.8303,106.55 16.5,104C 13.6917,103.08 11.5251,103.913 10,106.5C 9.51846,110.642 9.68513,114.475 10.5,118C 10.8333,118.5 11.1667,119 11.5,119.5C 12.3142,117.234 12.8142,114.9 13,112.5C 15.5235,108.503 17.3568,108.836 18.5,113.5C 17.2921,112.766 15.9587,112.433 14.5,112.5C 14.931,117.239 13.2643,120.905 9.5,123.5C 8.6381,119.3 7.6381,115.133 6.5,111C 7.44753,103.315 11.2809,100.815 18,103.5C 18.6667,102.833 19.3333,102.167 20,101.5C 20.5683,97.4634 21.735,93.6301 23.5,90C 24.635,89.2506 25.635,89.4173 26.5,90.5C 27.3721,92.4496 28.0388,94.4496 28.5,96.5 Z"/></g>
<g><path style="opacity:1" fill="#8e8a8e" d="M 121.5,97.5 C 123.275,101.386 124.108,105.72 124,110.5C 124.671,111.252 125.504,111.586 126.5,111.5C 125.721,113.927 124.554,113.927 123,111.5C 122.501,107.848 122.335,104.182 122.5,100.5C 122.443,99.391 122.11,98.391 121.5,97.5 Z"/></g>
<g><path style="opacity:1" fill="#6e7770" d="M 71.5,103.5 C 73.8169,102.058 75.9836,102.392 78,104.5C 77.9701,110.148 77.8034,115.815 77.5,121.5C 76.209,121.737 75.209,121.404 74.5,120.5C 76.2589,116.648 77.2589,112.481 77.5,108C 77.099,104.438 75.099,102.938 71.5,103.5 Z"/></g>
<g><path style="opacity:1" fill="#224a2e" d="M 129.5,100.5 C 128.018,104.648 128.352,108.648 130.5,112.5C 129.391,112.443 128.391,112.11 127.5,111.5C 126.92,107.351 127.586,103.684 129.5,100.5 Z"/></g>
<g><path style="opacity:1" fill="#616964" d="M 108.5,103.5 C 108.5,103.833 108.5,104.167 108.5,104.5C 108.5,105.833 108.5,107.167 108.5,108.5C 111.599,108.092 113.933,109.259 115.5,112C 117.134,112.494 118.801,112.66 120.5,112.5C 121.885,115.259 122.552,118.259 122.5,121.5C 122.493,123.369 122.16,125.036 121.5,126.5C 121.816,123.022 121.316,119.688 120,116.5C 116.62,115.129 113.787,112.962 111.5,110C 109.866,109.506 108.199,109.34 106.5,109.5C 106.595,107.214 107.262,105.214 108.5,103.5 Z"/></g>
<g><path style="opacity:1" fill="#fdfdfd" d="M 150.5,115.5 C 150.492,118.545 150.159,121.545 149.5,124.5C 147.833,125.5 146.5,126.833 145.5,128.5C 143.343,127.947 143.51,126.947 146,125.5C 147.318,122.594 147.652,119.594 147,116.5C 146.329,115.748 145.496,115.414 144.5,115.5C 144.5,115.167 144.5,114.833 144.5,114.5C 144.631,113.624 144.298,112.957 143.5,112.5C 133.409,113.844 129.743,119.344 132.5,129C 132.046,130.622 131.046,131.788 129.5,132.5C 128.511,128.893 128.177,125.226 128.5,121.5C 129.481,119.604 130.481,117.604 131.5,115.5C 134.714,114.063 137.714,112.397 140.5,110.5C 141.822,110.67 142.989,110.337 144,109.5C 145.406,112.409 147.572,114.409 150.5,115.5 Z"/></g>
<g><path style="opacity:1" fill="#173c24" d="M 150.5,99.5 C 147.981,103.509 147.314,107.842 148.5,112.5C 147.266,110.799 146.599,108.799 146.5,106.5C 146.997,104.182 147.33,101.848 147.5,99.5C 148.5,99.5 149.5,99.5 150.5,99.5 Z"/></g>
<g><path style="opacity:1" fill="#627467" d="M 47.5,103.5 C 47.3802,107.042 47.7135,110.542 48.5,114C 48.6842,115.376 49.3509,116.209 50.5,116.5C 50.5852,117.995 49.9185,118.995 48.5,119.5C 45.9516,114.777 45.1183,109.777 46,104.5C 46.3826,103.944 46.8826,103.611 47.5,103.5 Z"/></g>
<g><path style="opacity:1" fill="#374e3f" d="M 99.5,112.5 C 98.7814,114.764 98.448,117.097 98.5,119.5C 97.6981,118.048 97.1981,116.382 97,114.5C 96.6174,115.056 96.1174,115.389 95.5,115.5C 95.5,114.833 95.1667,114.5 94.5,114.5C 94.1667,113.833 93.8333,113.167 93.5,112.5C 94.5,112.5 95.5,112.5 96.5,112.5C 96.0845,108.625 96.5845,104.958 98,101.5C 98.553,104.359 98.3863,107.192 97.5,110C 97.6842,111.376 98.3509,112.209 99.5,112.5 Z"/></g>
<g><path style="opacity:1" fill="#4e7d4a" d="M 122.5,100.5 C 122.335,104.182 122.501,107.848 123,111.5C 124.554,113.927 125.721,113.927 126.5,111.5C 126.833,111.5 127.167,111.5 127.5,111.5C 128.391,112.11 129.391,112.443 130.5,112.5C 129.08,115.261 128.413,118.261 128.5,121.5C 127.517,125.298 127.183,129.298 127.5,133.5C 130.812,133.851 133.145,132.518 134.5,129.5C 135.9,130.1 136.9,131.1 137.5,132.5C 138.833,133.167 140.167,133.833 141.5,134.5C 143.113,136.088 145.113,137.088 147.5,137.5C 148.008,139.233 148.841,139.566 150,138.5C 155.769,140.989 155.935,143.656 150.5,146.5C 146.84,146.841 143.507,146.175 140.5,144.5C 140.238,143.022 140.571,141.689 141.5,140.5C 144.842,142.179 148.175,142.846 151.5,142.5C 147.916,141.318 144.582,139.652 141.5,137.5C 140.833,138.167 140.167,138.833 139.5,139.5C 130.839,134.546 127.505,136.879 129.5,146.5C 129.5,147.5 129.5,148.5 129.5,149.5C 137.124,150.398 144.791,150.731 152.5,150.5C 149.728,154.28 146.395,157.28 142.5,159.5C 139.492,159.701 136.492,160.034 133.5,160.5C 126.991,157.942 120.491,157.942 114,160.5C 104.892,158.349 95.7253,157.682 86.5,158.5C 86.5,155.833 86.5,153.167 86.5,150.5C 96.1724,150.666 105.839,150.5 115.5,150C 116.416,149.722 117.082,149.222 117.5,148.5C 118.167,148.5 118.5,148.167 118.5,147.5C 119.496,147.586 120.329,147.252 121,146.5C 122.692,140.019 120.192,136.353 113.5,135.5C 112.287,135.747 111.62,136.414 111.5,137.5C 110.833,137.5 110.167,137.5 109.5,137.5C 108.662,137.158 108.328,136.492 108.5,135.5C 108.179,133.952 107.179,133.285 105.5,133.5C 101.67,132.349 98.6705,130.016 96.5,126.5C 96.4476,122.802 96.1143,119.135 95.5,115.5C 96.1174,115.389 96.6174,115.056 97,114.5C 97.1981,116.382 97.6981,118.048 98.5,119.5C 99.6693,122.511 101.336,125.178 103.5,127.5C 104.768,129.387 106.601,130.387 109,130.5C 110.825,130.057 112.658,129.723 114.5,129.5C 115.183,131.176 116.517,131.843 118.5,131.5C 121.084,130.952 122.084,129.285 121.5,126.5C 122.16,125.036 122.493,123.369 122.5,121.5C 122.552,118.259 121.885,115.259 120.5,112.5C 118.801,112.66 117.134,112.494 115.5,112C 113.933,109.259 111.599,108.092 108.5,108.5C 108.5,107.167 108.5,105.833 108.5,104.5C 111.365,104.055 113.865,104.722 116,106.5C 116.443,102.555 118.61,100.555 122.5,100.5 Z"/></g>
<g><path style="opacity:1" fill="#293e2f" d="M 153.5,99.5 C 155.074,99.9371 156.241,100.937 157,102.5C 157.696,105.478 158.196,108.478 158.5,111.5C 156.178,114.472 154.845,117.805 154.5,121.5C 154.785,119.712 154.452,118.045 153.5,116.5C 152.292,119.341 150.959,122.007 149.5,124.5C 150.159,121.545 150.492,118.545 150.5,115.5C 149.833,114.5 149.167,113.5 148.5,112.5C 150.112,109.256 151.112,105.589 151.5,101.5C 152.472,105.467 153.305,109.467 154,113.5C 157.331,108.774 157.164,104.107 153.5,99.5 Z"/></g>
<g><path style="opacity:1" fill="#767877" d="M 28.5,96.5 C 29.6005,98.2774 30.4338,100.277 31,102.5C 34.4179,98.6327 37.7512,98.6327 41,102.5C 41.4735,109.18 41.3069,115.846 40.5,122.5C 38.0968,122.607 36.2635,121.607 35,119.5C 34.6966,117.112 33.8633,114.945 32.5,113C 31.212,112.761 30.212,113.261 29.5,114.5C 29.5,113.167 29.5,111.833 29.5,110.5C 30.8734,110.343 32.2068,110.51 33.5,111C 34.7143,113.351 35.5477,115.851 36,118.5C 37.0113,119.337 38.1779,119.67 39.5,119.5C 40.1484,114.172 40.3151,108.838 40,103.5C 35.9741,100.466 32.8074,101.133 30.5,105.5C 29.8333,105.5 29.1667,105.5 28.5,105.5C 28.5,103.5 28.5,101.5 28.5,99.5C 28.5,98.5 28.5,97.5 28.5,96.5 Z"/></g>
<g><path style="opacity:1" fill="#757c77" d="M 140.5,110.5 C 137.714,112.397 134.714,114.063 131.5,115.5C 130.481,117.604 129.481,119.604 128.5,121.5C 128.413,118.261 129.08,115.261 130.5,112.5C 133.833,111.833 137.167,111.167 140.5,110.5 Z"/></g>
<g><path style="opacity:1" fill="#49594d" d="M 65.5,106.5 C 66.1667,106.5 66.8333,106.5 67.5,106.5C 65.7516,108.16 65.2516,110.16 66,112.5C 67.2917,111.209 68.4583,111.209 69.5,112.5C 66.8641,112.491 65.5307,113.825 65.5,116.5C 65.6972,118.682 66.3639,120.682 67.5,122.5C 66.7745,123.867 66.1079,125.2 65.5,126.5C 62.8333,127.833 62.8333,129.167 65.5,130.5C 64.5084,130.328 63.8417,130.662 63.5,131.5C 61.4933,136.7 59.8267,136.7 58.5,131.5C 51.8225,130.859 51.1559,128.859 56.5,125.5C 55.3887,124.389 54.722,123.055 54.5,121.5C 55.8214,119.668 56.8214,117.668 57.5,115.5C 59.166,116.666 60.8327,116.666 62.5,115.5C 62.9757,112.207 63.9757,109.207 65.5,106.5 Z"/></g>
<g><path style="opacity:1" fill="#2e4434" d="M 28.5,105.5 C 29.1667,105.5 29.8333,105.5 30.5,105.5C 29.0359,108.262 27.7025,111.095 26.5,114C 27.448,114.483 28.448,114.649 29.5,114.5C 29.5111,116.547 29.8444,118.547 30.5,120.5C 30.278,122.055 29.6113,123.389 28.5,124.5C 32.5,126.833 32.5,129.167 28.5,131.5C 27.914,131.291 27.414,130.957 27,130.5C 25.9032,132.053 24.5699,133.386 23,134.5C 21.5142,132.422 19.5142,131.089 17,130.5C 16.5172,129.552 16.3505,128.552 16.5,127.5C 18.3464,127.778 19.6798,127.111 20.5,125.5C 19.1667,123.833 17.8333,122.167 16.5,120.5C 18.415,118.929 19.415,116.929 19.5,114.5C 21.2027,115.66 21.8693,114.993 21.5,112.5C 22.404,111.791 22.7373,110.791 22.5,109.5C 23.3138,111.631 23.8138,113.964 24,116.5C 25.068,112.686 26.568,109.02 28.5,105.5 Z"/></g>
<g><path style="opacity:1" fill="#f9f9f9" d="M 172.5,109.5 C 172.5,134.5 172.5,159.5 172.5,184.5C 147.5,184.5 122.5,184.5 97.5,184.5C 99.5,183.833 101.5,183.167 103.5,182.5C 125.582,178.38 143.749,167.713 158,150.5C 165.951,137.809 170.784,124.142 172.5,109.5 Z"/></g>
<g><path style="opacity:1" fill="#fafafa" d="M -0.5,124.5 C 3.88925,141.74 13.2226,155.907 27.5,167C 41.2548,175.533 56.2548,181.033 72.5,183.5C 72.5,183.833 72.5,184.167 72.5,184.5C 48.1667,184.5 23.8333,184.5 -0.5,184.5C -0.5,164.5 -0.5,144.5 -0.5,124.5 Z"/></g>
<g><path style="opacity:1" fill="#3e403f" d="M 172.5,102.5 C 172.5,104.833 172.5,107.167 172.5,109.5C 170.784,124.142 165.951,137.809 158,150.5C 143.749,167.713 125.582,178.38 103.5,182.5C 93.1829,183.226 82.8496,183.56 72.5,183.5C 56.2548,181.033 41.2548,175.533 27.5,167C 13.2226,155.907 3.88925,141.74 -0.5,124.5C -0.5,120.167 -0.5,115.833 -0.5,111.5C 0.748673,114.087 1.74867,116.754 2.5,119.5C 7.48508,140.842 19.4851,157.175 38.5,168.5C 38.8417,169.338 39.5084,169.672 40.5,169.5C 46.9716,172.563 53.6383,175.396 60.5,178C 68.4502,179.381 76.4502,180.214 84.5,180.5C 85.5477,182.933 86.2144,182.933 86.5,180.5C 99.0906,180.448 111.091,178.115 122.5,173.5C 124.629,172.797 126.629,171.797 128.5,170.5C 130.865,169.992 133.199,169.325 135.5,168.5C 137.215,166.118 139.215,164.118 141.5,162.5C 142.404,161.791 142.737,160.791 142.5,159.5C 146.395,157.28 149.728,154.28 152.5,150.5C 153.5,150.167 154.167,149.5 154.5,148.5C 163.778,134.94 168.778,119.94 169.5,103.5C 170.609,103.443 171.609,103.11 172.5,102.5 Z"/></g>
<g><path style="opacity:1" fill="#aba8ab" d="M 123.5,169.5 C 125.292,169.366 126.958,169.699 128.5,170.5C 126.629,171.797 124.629,172.797 122.5,173.5C 117.802,175.087 113.302,174.754 109,172.5C 106.333,173.167 103.667,173.833 101,174.5C 96.2407,173.248 91.4073,172.581 86.5,172.5C 86.5,171.5 86.5,170.5 86.5,169.5C 91.5085,168.803 96.5085,169.47 101.5,171.5C 103.717,170.428 106.05,169.761 108.5,169.5C 113.053,171.153 117.72,171.653 122.5,171C 123.056,170.617 123.389,170.117 123.5,169.5 Z"/></g>
<g><path style="opacity:1" fill="#517f4c" d="M 86.5,172.5 C 91.4073,172.581 96.2407,173.248 101,174.5C 103.667,173.833 106.333,173.167 109,172.5C 113.302,174.754 117.802,175.087 122.5,173.5C 111.091,178.115 99.0906,180.448 86.5,180.5C 86.5,177.833 86.5,175.167 86.5,172.5 Z"/></g>
<g><path style="opacity:1" fill="#51679f" d="M 118.5,162.5 C 121.64,161.359 124.973,161.192 128.5,162C 132.725,165.298 136.892,165.131 141,161.5C 141.399,161.728 141.565,162.062 141.5,162.5C 139.215,164.118 137.215,166.118 135.5,168.5C 133.199,169.325 130.865,169.992 128.5,170.5C 126.958,169.699 125.292,169.366 123.5,169.5C 125.292,168.691 127.292,168.191 129.5,168C 130.167,167.333 130.833,166.667 131.5,166C 127.71,162.979 123.377,161.812 118.5,162.5 Z"/></g>
<g><path style="opacity:1" fill="#808181" d="M 46.5,149.5 C 49.0869,152.01 49.0869,154.677 46.5,157.5C 47.6888,158.429 49.0222,158.762 50.5,158.5C 50.5,159.5 50.5,160.5 50.5,161.5C 48.0916,162.201 45.7582,163.201 43.5,164.5C 42.9346,166.509 41.9346,168.176 40.5,169.5C 39.5084,169.672 38.8417,169.338 38.5,168.5C 39.0965,167.065 39.0965,165.398 38.5,163.5C 36.901,163.768 35.5676,163.434 34.5,162.5C 36.3904,162.703 37.8904,162.037 39,160.5C 39.3095,161.766 39.8095,162.933 40.5,164C 41.816,164.528 42.4827,164.028 42.5,162.5C 43.1667,162.5 43.8333,162.5 44.5,162.5C 46.8418,161.789 47.1751,160.456 45.5,158.5C 45.4772,156.4 46.1439,154.567 47.5,153C 47.0109,151.862 46.6775,150.695 46.5,149.5 Z"/></g>
<g><path style="opacity:1" fill="#6383ce" d="M 118.5,162.5 C 123.377,161.812 127.71,162.979 131.5,166C 130.833,166.667 130.167,167.333 129.5,168C 127.292,168.191 125.292,168.691 123.5,169.5C 123.389,170.117 123.056,170.617 122.5,171C 117.72,171.653 113.053,171.153 108.5,169.5C 106.05,169.761 103.717,170.428 101.5,171.5C 96.5085,169.47 91.5085,168.803 86.5,169.5C 86.5,166.833 86.5,164.167 86.5,161.5C 92.6797,161.44 98.8463,161.107 105,160.5C 109.317,162.148 113.817,162.814 118.5,162.5 Z"/></g>
<g><path style="opacity:1" fill="#a19ea2" d="M 142.5,159.5 C 142.737,160.791 142.404,161.791 141.5,162.5C 141.565,162.062 141.399,161.728 141,161.5C 136.892,165.131 132.725,165.298 128.5,162C 124.973,161.192 121.64,161.359 118.5,162.5C 113.817,162.814 109.317,162.148 105,160.5C 98.8463,161.107 92.6797,161.44 86.5,161.5C 86.5,160.5 86.5,159.5 86.5,158.5C 95.7253,157.682 104.892,158.349 114,160.5C 120.491,157.942 126.991,157.942 133.5,160.5C 136.492,160.034 139.492,159.701 142.5,159.5 Z"/></g>
<g><path style="opacity:1" fill="#367e49" d="M 45.5,158.5 C 47.1751,160.456 46.8418,161.789 44.5,162.5C 44.2322,160.901 44.5655,159.568 45.5,158.5 Z"/></g>
<g><path style="opacity:1" fill="#5f5f5f" d="M 35.5,154.5 C 36.5,154.5 37.5,154.5 38.5,154.5C 38.6567,155.873 38.49,157.207 38,158.5C 35.9286,159.103 34.7619,160.436 34.5,162.5C 32.9153,161.998 32.4153,160.998 33,159.5C 37.1698,158.925 38.0031,157.258 35.5,154.5 Z"/></g>
<g><path style="opacity:1" fill="#36673e" d="M 42.5,162.5 C 42.4827,164.028 41.816,164.528 40.5,164C 39.8095,162.933 39.3095,161.766 39,160.5C 37.8904,162.037 36.3904,162.703 34.5,162.5C 34.7619,160.436 35.9286,159.103 38,158.5C 38.49,157.207 38.6567,155.873 38.5,154.5C 37.5,154.5 36.5,154.5 35.5,154.5C 35.5,153.5 35.5,152.5 35.5,151.5C 37.6847,151.112 39.518,150.112 41,148.5C 43.4276,149.26 45.2609,150.76 46.5,153C 43.037,155.15 41.7036,158.316 42.5,162.5 Z"/></g>
<g><path style="opacity:1" fill="#979496" d="M 57.5,137.5 C 58.4896,143.31 58.8229,149.31 58.5,155.5C 56.0968,155.607 54.2635,154.607 53,152.5C 51.7898,149.459 50.2898,146.792 48.5,144.5C 48.5,144.167 48.5,143.833 48.5,143.5C 49.675,143.281 50.675,143.614 51.5,144.5C 51.9483,147.682 53.2816,150.349 55.5,152.5C 56.9042,147.6 57.5709,142.6 57.5,137.5 Z"/></g>
<g><path style="opacity:1" fill="#1f1f1f" d="M 129.5,146.5 C 137.564,148.422 145.897,149.088 154.5,148.5C 154.167,149.5 153.5,150.167 152.5,150.5C 144.791,150.731 137.124,150.398 129.5,149.5C 129.5,148.5 129.5,147.5 129.5,146.5 Z"/></g>
<g><path style="opacity:1" fill="#5f6461" d="M 90.5,141.5 C 92.6687,143.416 95.3353,144.75 98.5,145.5C 99.4277,143.665 100.594,143.332 102,144.5C 103.584,143.139 105.418,142.472 107.5,142.5C 105.252,145.117 102.252,146.451 98.5,146.5C 95.2594,146.552 92.2594,145.885 89.5,144.5C 89.2627,143.209 89.596,142.209 90.5,141.5 Z"/></g>
<g><path style="opacity:1" fill="#3f5144" d="M 38.5,131.5 C 38.2284,137.079 39.2284,142.412 41.5,147.5C 43.0382,144.852 44.3715,142.185 45.5,139.5C 45.3284,140.492 45.6618,141.158 46.5,141.5C 46.5,142.833 47.1667,143.5 48.5,143.5C 48.5,143.833 48.5,144.167 48.5,144.5C 45.8083,145.591 45.1416,147.257 46.5,149.5C 46.6775,150.695 47.0109,151.862 47.5,153C 46.1439,154.567 45.4772,156.4 45.5,158.5C 44.5655,159.568 44.2322,160.901 44.5,162.5C 43.8333,162.5 43.1667,162.5 42.5,162.5C 41.7036,158.316 43.037,155.15 46.5,153C 45.2609,150.76 43.4276,149.26 41,148.5C 39.518,150.112 37.6847,151.112 35.5,151.5C 35.5,152.5 35.5,153.5 35.5,154.5C 34.5028,154.53 33.8361,154.03 33.5,153C 34.4394,151.056 35.7727,149.389 37.5,148C 36.646,146.978 35.646,146.145 34.5,145.5C 32.5356,148.57 30.2023,151.403 27.5,154C 26.365,154.749 25.365,154.583 24.5,153.5C 26.7921,149.752 27.1254,145.752 25.5,141.5C 25.7912,136.04 28.4579,134.04 33.5,135.5C 33.5,135.833 33.5,136.167 33.5,136.5C 31.712,136.215 30.0453,136.548 28.5,137.5C 27.7772,140.917 27.6105,144.25 28,147.5C 28.3333,147.833 28.6667,148.167 29,148.5C 30.0128,146.154 31.6794,144.487 34,143.5C 35.4651,144.33 36.9651,144.496 38.5,144C 37.3606,142.22 36.3606,140.386 35.5,138.5C 37.0826,136.492 38.0826,134.159 38.5,131.5 Z"/></g>
<g><path style="opacity:1" fill="#37513f" d="M 105.5,135.5 C 106.5,135.5 107.5,135.5 108.5,135.5C 108.328,136.492 108.662,137.158 109.5,137.5C 108.976,139.306 108.309,140.972 107.5,142.5C 107.657,141.127 107.49,139.793 107,138.5C 103.449,140.68 99.6153,141.513 95.5,141C 98.5597,140.152 101.56,139.152 104.5,138C 105.252,137.329 105.586,136.496 105.5,135.5 Z"/></g>
<g><path style="opacity:1" fill="#25352a" d="M 155.5,139.5 C 157.081,143.98 155.415,146.313 150.5,146.5C 155.935,143.656 155.769,140.989 150,138.5C 148.841,139.566 148.008,139.233 147.5,137.5C 147.56,136.957 147.893,136.624 148.5,136.5C 150.996,137.251 153.33,138.251 155.5,139.5 Z"/></g>
<g><path style="opacity:1" fill="#487b48" d="M 55.5,136.5 C 56.1667,136.833 56.8333,137.167 57.5,137.5C 57.5709,142.6 56.9042,147.6 55.5,152.5C 53.2816,150.349 51.9483,147.682 51.5,144.5C 50.675,143.614 49.675,143.281 48.5,143.5C 47.1667,143.5 46.5,142.833 46.5,141.5C 47.8299,137.082 50.8299,135.415 55.5,136.5 Z"/></g>
<g><path style="opacity:1" fill="#4a7c47" d="M 33.5,136.5 C 34.5,136.833 35.1667,137.5 35.5,138.5C 36.3606,140.386 37.3606,142.22 38.5,144C 36.9651,144.496 35.4651,144.33 34,143.5C 31.6794,144.487 30.0128,146.154 29,148.5C 28.6667,148.167 28.3333,147.833 28,147.5C 27.6105,144.25 27.7772,140.917 28.5,137.5C 30.0453,136.548 31.712,136.215 33.5,136.5 Z"/></g>
<g><path style="opacity:1" fill="#445549" d="M 140.5,144.5 C 138.78,141.622 136.28,139.622 133,138.5C 130.412,140.396 129.245,143.063 129.5,146.5C 127.505,136.879 130.839,134.546 139.5,139.5C 140.167,138.833 140.833,138.167 141.5,137.5C 144.582,139.652 147.916,141.318 151.5,142.5C 148.175,142.846 144.842,142.179 141.5,140.5C 140.571,141.689 140.238,143.022 140.5,144.5 Z"/></g>
<g><path style="opacity:1" fill="#4a564d" d="M 118.5,147.5 C 121.68,140.553 119.346,137.22 111.5,137.5C 111.62,136.414 112.287,135.747 113.5,135.5C 120.192,136.353 122.692,140.019 121,146.5C 120.329,147.252 119.496,147.586 118.5,147.5 Z"/></g>
<g><path style="opacity:1" fill="#a39ca1" d="M 39.5,127.5 C 39.5,128.167 39.5,128.833 39.5,129.5C 39.1667,130.167 38.8333,130.833 38.5,131.5C 38.0826,134.159 37.0826,136.492 35.5,138.5C 35.1667,137.5 34.5,136.833 33.5,136.5C 33.5,136.167 33.5,135.833 33.5,135.5C 34.4959,135.414 35.3292,135.748 36,136.5C 35.9128,132.878 37.0795,129.878 39.5,127.5 Z"/></g>
<g><path style="opacity:1" fill="#487e49" d="M 105.5,135.5 C 105.586,136.496 105.252,137.329 104.5,138C 101.56,139.152 98.5597,140.152 95.5,141C 99.6153,141.513 103.449,140.68 107,138.5C 107.49,139.793 107.657,141.127 107.5,142.5C 105.418,142.472 103.584,143.139 102,144.5C 100.594,143.332 99.4277,143.665 98.5,145.5C 95.3353,144.75 92.6687,143.416 90.5,141.5C 90.8333,141.5 91.1667,141.5 91.5,141.5C 94.8089,136.163 99.4756,134.163 105.5,135.5 Z"/></g>
<g><path style="opacity:1" fill="#616964" d="M 55.5,136.5 C 50.8299,135.415 47.8299,137.082 46.5,141.5C 45.6618,141.158 45.3284,140.492 45.5,139.5C 46.8738,134.659 45.8738,130.326 42.5,126.5C 41.265,127.34 40.265,128.34 39.5,129.5C 39.5,128.833 39.5,128.167 39.5,127.5C 39.8641,124.155 41.5308,123.155 44.5,124.5C 46.6493,127.856 47.6493,131.522 47.5,135.5C 49.1986,135.38 50.8653,135.046 52.5,134.5C 54.0377,134.453 55.0377,135.12 55.5,136.5 Z"/></g>
<g><path style="opacity:1" fill="#4c4d4d" d="M 154.5,123.5 C 152.842,127.672 150.175,131.172 146.5,134C 150.479,134.466 153.479,136.3 155.5,139.5C 153.33,138.251 150.996,137.251 148.5,136.5C 147.893,136.624 147.56,136.957 147.5,137.5C 145.113,137.088 143.113,136.088 141.5,134.5C 143.433,134.271 145.1,133.438 146.5,132C 149.399,129.271 152.066,126.438 154.5,123.5 Z"/></g>
<g><path style="opacity:1" fill="#626964" d="M 105.5,133.5 C 107.179,133.285 108.179,133.952 108.5,135.5C 107.5,135.5 106.5,135.5 105.5,135.5C 99.4756,134.163 94.8089,136.163 91.5,141.5C 91.8844,139.071 92.551,136.737 93.5,134.5C 97.4517,133.728 101.452,133.395 105.5,133.5 Z"/></g>
<g><path style="opacity:1" fill="#909191" d="M 115.5,126.5 C 115.31,128.959 116.31,130.626 118.5,131.5C 116.517,131.843 115.183,131.176 114.5,129.5C 114.5,128.833 114.5,128.167 114.5,127.5C 114.5,126.833 114.833,126.5 115.5,126.5 Z"/></g>
<g><path style="opacity:1" fill="#545656" d="M 114.5,127.5 C 114.5,128.167 114.5,128.833 114.5,129.5C 112.658,129.723 110.825,130.057 109,130.5C 106.601,130.387 104.768,129.387 103.5,127.5C 104.404,126.791 104.737,125.791 104.5,124.5C 106.176,125.183 106.843,126.517 106.5,128.5C 107.833,128.5 109.167,128.5 110.5,128.5C 109.986,126.488 109.82,124.488 110,122.5C 111.047,124.708 112.547,126.374 114.5,127.5 Z"/></g>
<g><path style="opacity:1" fill="#878a88" d="M 65.5,126.5 C 66.8333,126.5 68.1667,126.5 69.5,126.5C 69.3491,130.314 67.3491,131.981 63.5,131.5C 63.8417,130.662 64.5084,130.328 65.5,130.5C 68.1667,129.167 68.1667,127.833 65.5,126.5 Z"/></g>
<g><path style="opacity:1" fill="#21512f" d="M 154.5,121.5 C 154.5,122.167 154.5,122.833 154.5,123.5C 152.066,126.438 149.399,129.271 146.5,132C 145.1,133.438 143.433,134.271 141.5,134.5C 140.167,133.833 138.833,133.167 137.5,132.5C 138.791,132.737 139.791,132.404 140.5,131.5C 142.434,130.89 144.101,129.89 145.5,128.5C 146.5,126.833 147.833,125.5 149.5,124.5C 150.959,122.007 152.292,119.341 153.5,116.5C 154.452,118.045 154.785,119.712 154.5,121.5 Z"/></g>
<g><path style="opacity:1" fill="#407847" d="M 65.5,126.5 C 68.1667,127.833 68.1667,129.167 65.5,130.5C 62.8333,129.167 62.8333,127.833 65.5,126.5 Z"/></g>
<g><path style="opacity:1" fill="#497d48" d="M 45.5,139.5 C 44.3715,142.185 43.0382,144.852 41.5,147.5C 39.2284,142.412 38.2284,137.079 38.5,131.5C 38.8333,130.833 39.1667,130.167 39.5,129.5C 40.265,128.34 41.265,127.34 42.5,126.5C 45.8738,130.326 46.8738,134.659 45.5,139.5 Z"/></g>
<g><path style="opacity:1" fill="#435248" d="M 144.5,115.5 C 145.496,115.414 146.329,115.748 147,116.5C 147.652,119.594 147.318,122.594 146,125.5C 143.51,126.947 143.343,127.947 145.5,128.5C 144.101,129.89 142.434,130.89 140.5,131.5C 139.791,132.404 138.791,132.737 137.5,132.5C 136.9,131.1 135.9,130.1 134.5,129.5C 134.5,128.833 134.5,128.167 134.5,127.5C 136.454,124.964 138.121,122.298 139.5,119.5C 139.833,119.667 140.167,119.833 140.5,120C 139.569,122.907 138.569,125.74 137.5,128.5C 138.833,128.5 140.167,128.5 141.5,128.5C 145.158,124.843 146.158,120.51 144.5,115.5 Z"/></g>
<g><path style="opacity:1" fill="#fefffe" d="M 140.5,131.5 C 136.661,131.388 136.661,130.721 140.5,129.5C 141.463,129.97 141.463,130.637 140.5,131.5 Z"/></g>
<g><path style="opacity:1" fill="#626763" d="M 144.5,114.5 C 142.265,114.205 140.265,114.539 138.5,115.5C 136.996,117.836 134.996,119.669 132.5,121C 134.973,122.402 134.973,123.902 132.5,125.5C 132.855,126.522 133.522,127.189 134.5,127.5C 134.5,128.167 134.5,128.833 134.5,129.5C 133.145,132.518 130.812,133.851 127.5,133.5C 127.183,129.298 127.517,125.298 128.5,121.5C 128.177,125.226 128.511,128.893 129.5,132.5C 131.046,131.788 132.046,130.622 132.5,129C 129.743,119.344 133.409,113.844 143.5,112.5C 144.298,112.957 144.631,113.624 144.5,114.5 Z"/></g>
<g><path style="opacity:1" fill="#3a7643" d="M 58.5,118.5 C 60.7457,119.455 63.079,120.122 65.5,120.5C 63.6253,124.241 62.4587,128.241 62,132.5C 61.586,132.957 61.086,133.291 60.5,133.5C 59.6786,130.553 59.1786,127.553 59,124.5C 57.9264,123.382 56.7598,122.382 55.5,121.5C 56.7701,120.712 57.7701,119.712 58.5,118.5 Z"/></g>
<g><path style="opacity:1" fill="#89918d" d="M 94.5,114.5 C 95.1667,114.5 95.5,114.833 95.5,115.5C 96.1143,119.135 96.4476,122.802 96.5,126.5C 94.7501,122.817 94.0834,118.817 94.5,114.5 Z"/></g>
<g><path style="opacity:1" fill="#445849" d="M 113.5,117.5 C 114.496,117.414 115.329,117.748 116,118.5C 116.789,120.712 116.622,122.712 115.5,124.5C 114.545,122.254 113.878,119.921 113.5,117.5 Z"/></g>
<g><path style="opacity:1" fill="#57844d" d="M 19.5,119.5 C 22.5606,119.541 25.5606,119.874 28.5,120.5C 25.6473,122.025 24.6473,124.191 25.5,127C 22.972,128.316 22.972,129.483 25.5,130.5C 24.675,131.386 23.675,131.719 22.5,131.5C 22.2436,129.208 22.5769,127.041 23.5,125C 22.7262,122.56 21.0595,121.227 18.5,121C 19.056,120.617 19.3893,120.117 19.5,119.5 Z"/></g>
<g><path style="opacity:1" fill="#4d7e49" d="M 138.5,115.5 C 139.847,116.171 141.014,116.171 142,115.5C 143.057,117.219 143.89,119.053 144.5,121C 143.219,123.427 142.219,125.927 141.5,128.5C 140.167,128.5 138.833,128.5 137.5,128.5C 138.569,125.74 139.569,122.907 140.5,120C 140.167,119.833 139.833,119.667 139.5,119.5C 138.121,122.298 136.454,124.964 134.5,127.5C 133.522,127.189 132.855,126.522 132.5,125.5C 134.973,123.902 134.973,122.402 132.5,121C 134.996,119.669 136.996,117.836 138.5,115.5 Z"/></g>
<g><path style="opacity:1" fill="#5e6861" d="M 110.5,114.5 C 106.123,112.876 103.789,114.543 103.5,119.5C 104.309,121.071 104.643,122.738 104.5,124.5C 103.005,124.585 102.005,123.919 101.5,122.5C 101.972,118.512 103.306,114.845 105.5,111.5C 107.759,111.784 109.426,112.784 110.5,114.5 Z"/></g>
<g><path style="opacity:1" fill="#1b4a2a" d="M 138.5,115.5 C 140.265,114.539 142.265,114.205 144.5,114.5C 144.5,114.833 144.5,115.167 144.5,115.5C 146.158,120.51 145.158,124.843 141.5,128.5C 142.219,125.927 143.219,123.427 144.5,121C 143.89,119.053 143.057,117.219 142,115.5C 141.014,116.171 139.847,116.171 138.5,115.5 Z"/></g>
<g><path style="opacity:1" fill="#447a48" d="M 110.5,114.5 C 111.5,114.5 112.5,114.5 113.5,114.5C 113.5,115.5 113.5,116.5 113.5,117.5C 113.878,119.921 114.545,122.254 115.5,124.5C 115.5,125.167 115.5,125.833 115.5,126.5C 114.833,126.5 114.5,126.833 114.5,127.5C 112.547,126.374 111.047,124.708 110,122.5C 109.82,124.488 109.986,126.488 110.5,128.5C 109.167,128.5 107.833,128.5 106.5,128.5C 106.843,126.517 106.176,125.183 104.5,124.5C 104.643,122.738 104.309,121.071 103.5,119.5C 103.789,114.543 106.123,112.876 110.5,114.5 Z"/></g>
<g><path style="opacity:1" fill="#79797b" d="M 56.5,114.5 C 54.2492,113.135 52.2492,113.469 50.5,115.5C 50.7598,113.405 51.9264,112.072 54,111.5C 55.7491,111.748 56.5824,112.748 56.5,114.5 Z"/></g>
<g><path style="opacity:1" fill="#bcbdc1" d="M 103.5,182.5 C 101.5,183.167 99.5,183.833 97.5,184.5C 89.1667,184.5 80.8333,184.5 72.5,184.5C 72.5,184.167 72.5,183.833 72.5,183.5C 82.8496,183.56 93.1829,183.226 103.5,182.5 Z"/></g>
</svg>
