<?xml version="1.0" encoding="UTF-8"?>
<svg width="205.583mm" height="267.619mm" version="1.1" viewBox="0 0 205.583 267.619" xmlns="http://www.w3.org/2000/svg">
 <title>Wappen von Bad Arolsen</title>
 <path d="m62.630 27.233c-22.272-0.992-36.716 30.003-60.676 37.481 17.693 47.921 21.275 99.772 13.350 151.972 1.859 2.657 3.832 4.781 6.037 6.919 6.119-1.400 10.002-2.040 15.902-5.889 6.878 18.775 18.385 23.842 42.583 34.717 11.782 5.295 16.989 6.557 22.967 12.995 6.240-6.569 11.185-7.699 22.967-12.995 24.197-10.876 35.704-15.943 42.582-34.717 5.899 3.849 9.782 4.489 15.902 5.889 2.205-2.138 4.178-4.261 6.037-6.919-7.925-52.201-4.343-104.052 13.350-151.972-23.960-7.477-38.403-38.473-60.676-37.481-3.611-14.818-30.162-16.105-40.162-25.205-10 9.1-36.923 10.201-40.162 25.205z" fill="#fcdd09"/>
 <path d="m125.758 244.670c23.079-8.507 33.336-15.022 40.214-33.796 6.367 2.366 16.159 4.676 23.908 5.813-7.353-48.428-4.308-97.020 10.226-141.986-24.553-9.415-34.961-38.727-61.432-41.419-3.239-15.004-25.882-13.872-35.882-22.972-10 9.1-32.643 7.968-35.882 22.972-26.472 2.692-36.880 32.004-61.432 41.419 14.534 44.967 17.479 93.559 10.126 141.986 7.749-1.137 17.641-3.446 24.008-5.813 6.878 18.775 17.135 25.289 40.214 33.796 12.120 4.467 18.877 6.190 22.967 10.034 4.090-3.845 10.847-5.567 22.967-10.034z" fill="#fff" stroke="#000" stroke-linecap="square" stroke-width="2"/>
 <g fill="none" stroke="#000">
  <path d="m39.455 210.709-1.907 6.158"/>
  <path d="m102.791 254.704 6e-13 10.724"/>
  <path d="m166.106 210.709 1.907 6.158"/>
  <path d="m62.917 27.658 3.619 5.318"/>
  <path d="m142.658 27.658-3.619 5.318"/>
  <g stroke-width=".5">
   <path d="m57.977 28.668 3.619 5.318"/>
   <path d="m54.830 29.078 3.619 5.318"/>
   <path d="m52.036 30.456 3.619 5.318"/>
   <path d="m188.130 57.261-4.867 5.800"/>
   <path d="m190.801 59.029-5.200 6.342"/>
   <path d="m193.166 60.142-5.293 7.086"/>
   <path d="m195.214 61.264-5.200 7.505"/>
   <path d="m197.463 62.617-4.782 7.412"/>
   <path d="m200.243 62.866-4.921 8.715"/>
   <path d="m106.496 251.529 0 10.724"/>
   <path d="m111.787 249.412 0 9.840"/>
   <path d="m119.196 246.237 0 9.840"/>
   <path d="m122.371 245.179 0 9.840"/>
  </g>
 </g>
 <g fill="#078930" stroke="#000" stroke-linecap="round" stroke-linejoin="round" stroke-width="1.5">
  <path d="m67.862 170.140-0.377-4.118c-3.534 0.641-7.123-0.662-10.603-2.114-1.184-0.494-1.320-2.600 0.172-3.247 3.257-1.412 3.253-5.660 0.306-5.778-2.475-0.099-2.026-2.014-0.097-3.689 4.149-3.603 0.019-14.258-4.881-6.184-3.232 5.324-5.676 2.511-3.089-0.711 4.628-5.763 2.135-8.315-0.296-8.171-1.368 0.081-2.174-0.656-2.507-2.330-0.811-4.075-6.526-4.322-5.735 1.530 0.908 6.723-3.379 5.110-3.853 1.188-0.450-3.723-2.164-3.935-4.074-3.294-1.524 0.512-3.099 0.849-4.375-0.935-2.122-2.968-11.403 3.003-3.783 7.708 2.625 1.621 4.586 3.491 1.869 5.607-1.770 1.379-2.361 4.174 0.117 5.604 0.753 0.434 1.065 1.303 1.426 2.053 1.500 3.121 3.717 3.070 6.492 2.077 2.081-0.745 3.667-0.022 1.600 2.051-2.075 2.080 3.488 10.301 8.910 6.043 0.718-0.564 1.384-1.161 2.325-0.344 0.709 0.615 0.472 1.937 2.953 1.361 0.947-0.220 1.658-0.068 2.776 0.855 1.788 1.476 5.238 3.492 7.557 3.940-2.013 1.250-4.777 3.067-6.486 4.688-1.019 0.966-2.337 0.486-3.234-0.860-2.493-3.739-8.872-0.843-5.959 3.599 1.325 2.020 0.656 2.971-0.686 3.618-1.476 0.712-2.793 0.728-4.222-3.017-1.497-3.923-3.921-2.865-7.458-2.440-3.321 0.399-7.009 4.597-1.785 7.291 1.190 0.574 1.678 2.488 3.026 3.730 1.671 1.538 1.996 2.253 1.069 3.349-1.064 1.259-1.195-1.708-4.472-2.586-2.650-0.710-4.365 0.295-5.530 2.457-1.150 2.134-1.636 4.987 1.123 6.326 3.086 1.498 2.793 3.406 0.215 4.082-2.438 0.639-1.802 6.128-0.048 8.187 1.635 1.920 2.614 1.727 3.352 0.405 1.395-2.497 4.717-1.761 5.114-3.165 1.504-5.312 4.720-2.841 5.789-1.106 2.466 4.005 5.380 2.837 6.499 0.631 0.903-1.783 5.722-2.440 1.912-6.250-2.303-2.303 0.450-6.364 3.430-1.804 4.591 7.024 6.789-2.653 4.629-3.103-1.863-0.388-2.109-1.348-1.206-2.196 1.415-1.329 2.181-2.799 0.166-3.823-3.814-1.937-1.919-4.615-0.206-5.021 3.451-0.818 3.399-2.279 1.106-4.250-1.165-1.002-0.303-2.308 0.732-2.814z"/>
  <path d="m137.543 169.489c5.037-0.034 8.431 1.085 11.997 3.727 1.438 1.065 0.952 2.059-0.263 2.760-2.482 1.433-1.701 6.089 1.430 6.757 3.672 0.784 1.904 1.136-0.545 1.136-7.345 0-2.782 13.746 2.882 8.082 3.724-3.724 4.305 0.624 2.072 3.002-2.368 2.521 5.147 15.411 7.301 7.373 0.924-3.448 4.005-1.423 4.185 0.327 0.406 3.954 7.779 5.003 11.212 2.999 2.978-1.738 3.779-8.389-1.440-10.184-1.880-0.647-0.127-1.123 0.251-1.021 5.501 1.474 6.793-7.367-1.101-9.482-3.563-0.955-1.651-2.460 0.503-3.155 7.201-2.322-4.316-11.727-6.750-5.828-0.886 2.148-6.462 1.428-3.778-1.657 1.259-1.448-0.451-2.443-2.192-3.076-1.840-0.670-3.765-0.892-4.131 0.850-0.427 2.033-1.596 1.868-2.526 0.880-3.001-3.190-12.189-6.574-12.594-6.067 2.770-0.791 5.173-2.780 6.896-4.227 1.239-1.040 2.355-1.071 3.424-0.244 0.929 0.719 2.943 0.136 3.518-0.635 0.726-0.973 1.724-0.574 2.323 0.164 4.012 4.950 14.334-2.414 7.254-5.058-4.953-1.849-1.153-7.101 3.287-2.661 3.435 3.435 6.423-0.123 6.755-2.808 0.074-0.599 0.749-1.998 1.487-2.781 2.380-2.525 0.261-6.694-2.652-6.211-6.094 1.009-5.576-1.350-1.441-3.142 0.777-0.337 2.666-0.897 2.175-2.540-0.490-1.643 1.241-1.941 1.711-2.095 1.625-0.534 2.514-4.099 1.177-6.479-1.893-3.371-7.954-3.616-10.358 0.548-3.272 5.668-2.736 1.626-2.665 0.157 0.289-6.019-10.173-5.062-7.356 3.183 1.464 4.286-0.526 6.748-3.556 1.500-2.680-4.642-4.649 1.093-5.754 2.942-1.291 2.160-1.885 6.079 0.158 7.548 3.468 2.494 3.122 4.820-2.775 3.494-3.394-0.763-3.088 10.248 0.386 10.430 4.336 0.227-4.069 6.501-10.230 6.501z"/>
  <path d="m107.403 127.967c-1.895-8.189-1.665-15.918 19.483-13.491l0.357-3.040c-5.652-0.596-11.161-0.191-16.639 0.429 11.777-12.719 18.437-23.990 33.969-13.505-0.350 1.829 2.562 4.223 4.108 2.677 0.858-0.858 2.401 0.069 1.536 2.150-1.275 3.068 2.245 6.206 5.174 5.814 1.661-0.223 4.658-2.570 3.142 3.090-1.420 5.300 7.084 10.078 9.272 4.643 0.827-2.053 2.909-1.625 3.809 1.166 1.095 3.395 6.189 2.897 11.026-1.049 1.649-3.156 0.531-5.748-1.867-7.610-1.978-1.536-5.618 0.488-5.385-1.520 0.270-2.333 2.497 0.506 4.963-1.959 2.218-2.218 1.104-4.846-2.626-6.632-2.423-1.160-5.203-1.986-6.949-0.275-1.622 1.590-2.868 0.616-1.254-1.075 2.171-2.274-0.501-3.106-2.271-3.921-2.031-0.936-3.728-0.748-5.060 1.484-0.522 0.875-1.196 1.643-2.420-0.201-1.607-2.423-5.625-2.206-7.057 0.455-0.598 1.111-1.241 1.235-1.570 0.195-0.811-2.567-3.483-3.082-5.439 0.498-3.908-3.328-9.750-5.288-16.790-4.258 3.383-3.046 9.378-7.159 12.714-5.784 4.452 1.836 8.919 2.129 8.288-1.605-0.296-1.749 2.129-3.579 2.513 0.716 0.350 3.913 12.314 4.030 10.821 0.061-0.642-1.707 3.929-5.383 3.939 1.589 0.006 4.505 10.994 7.311 9.146 0.667-0.626-2.250 2.135-4.041 1.892-0.174-0.221 3.505 11.264 2.773 9.195-4.270-0.462-1.574-1.108-2.833-0.484-4.396 0.862-2.160-2.520-4.857-4.391-4.660-1.414 0.149-2.216-1.651-1.466-2.586 2.175-2.710-5.089-6.867-7.347-3.561-1.821 2.667-4.163 1.054-1.134-1.249 4.894-3.722 0.148-8.886-5.998-6.781-4.330 1.482-8.915 3.217-6.267 7.015 3.059 4.388-7.107 6.753-4.134 1.211 2.469-4.604-1.504-5.552-5.261-2.939-2.635 1.832-5.253 4.900-3.151 6.837 1.727 1.592-0.756 3.578-1.439 1.448-1.876-5.853-10.885 2.894-7.248 5.263 3.964 2.582 3.020 2.302-0.298 3.388-2.739 0.896-7.053 2.953-11.930 6.285-0.533-9.597-6.213-13.909-10.734-10.836 7.985 6.245 5.081 14.630-0.062 19.891-4.015 4.107-8.225 8.823-11.037 12.801 1.962-8.658 2.092-15.757 2.217-21.700 0.213-10.206 7.568-16.263 18.964-24.691l-1.211-2.532c-5.398 2.367-11.919 8.384-18.708 15.272-0.150-5.028-0.993-10.299 2.171-13.148 0.782-0.704 4.315 2.348 5.658-2.245 0.351-1.199 0.931-2.967 1.845-3.263 1.704-0.552 1.575-3.306-1.035-3.220-5.690 0.186-1.107-4.226 1.392-3.525 1.971 0.553 4.492-0.642 4.951-6.363 0.197-2.451 2.666-7.042-4.667-4.649-3.199 1.044-4.508-0.214-4.522-1.512-0.013-1.192 1.017-2.417 3.786-1.919 3.262 0.586 4.598-3.709 5.994-6.148 3.899-6.813-0.531-9.654-7.182-4.147-5.304 4.392-7.714 0.669-4.429-1.930 3.159-2.499 0.997-4.502-2.607-6.720-1.648-1.015-3.585-2.525-5.520-4.299-1.569 2.072-3.111 4.042-4.672 4.993-3.138 1.913-3.646 6.727-1.078 6.710 1.806-0.012 0.573 1.746-1.513 1.962-1.979 0.205-3.893 0.327-5.746 0.261-6.242-0.222-1.870 4.397-3.053 7.370-0.732 1.840 0.175 4.788 4.726 3.569 5.165-1.384 7.043 3.943 0.673 3.943-3.158 0-3.447 2.165-1.769 2.888 1.078 0.465 1.358 2.618 1.131 3.779-0.509 2.595 1.880 3.163 3.081 2.674 4.892-1.995 6.920 3.064 2.180 4.093-2.126 0.461-2.553 2.396-1.068 3.416 1.314 0.903 0.865 3.608 3.842 4.446 3.843 1.082 2.616 7.277 2.441 13.560-6.270-7.839-12.796-14.655-20.053-18.546l-1.714 2.736c8.092 5.753 17.489 12.662 19.671 22.790 1.291 5.993 1.125 13.997-0.055 25.296-1.856-2.868-3.144-4.497-4.931-6.594-7.173-8.420-13.512-21.931-1.861-26.435-7.297-0.927-10.552 4.816-8.704 14.605-3.329-2.428-8.921-6.022-14.640-9.380-2.744-1.611-3.432-3.928-1.635-5.518 2.760-2.443-0.961-4.525-2.743-7.186-1.240-1.852-4.623-0.450-4.623 1.591 0 4.509-4.901 1.896-3.234-0.991 2.499-4.329-3.899-4.150-4.880-5.549-2.241-3.197-6.722 1.368-4.494 4.561 2.660 3.812-2.029 3.397-1.181 0.243 0.407-1.514-2.922-5.834-5.788-4.741-1.649 0.629-2.691-0.128-4.064-0.873-3.639-1.976-7.317 0.507-4.438 4.673 2.977 4.308 0.072 5.102-1.469 1.892-1.308-2.725-13.501 2.346-8.376 5.023 1.641 0.857 1.449 1.814-0.373 1.814-5.385 0-8.297 8.126-5.893 12.015 1.292 2.091 4.837 4.815 7.816 0.830 2.606-3.486 6.573-2.353 5.147 0.677-3.407 7.240 10.669 2.736 8.723-1.559-1.208-2.665 0.601-3.242 2.581-4.030 3.543-1.410 4.751 0.849 3.131 3.132-3.862 5.445 9.069 3.696 10.630-0.869 1.907-5.578 3.676-2.672 2.926-0.680-1.115 2.962 6.221 2.398 6.804 0.205 1.456-5.482 14.637 6.126 14.637 6.126-4.501-0.354-10.685 0.329-14.963 1.672-2.629 0.825-4.473 0.833-5.178-0.090-1.423-1.862-5.480-0.774-4.939 1.334 0.350 1.364-1.790 4.043-2.696 0.851-0.814-2.865-7.958-1.909-7.312 0.992 0.528 2.369-1.536 3.024-3.516 1.194-1.592-1.472-14.486-1.966-9.835 4.364 1.153 1.569 2.410 3.623 3.676 3.547 2.904-0.175 3.347 3.052-0.754 0.630-4.244-2.506-6.667 0.040-8.888 2.393-2.293 2.430-4.230 4.905-0.112 6.080 2.492 0.710 1.410 1.385-0.457 2.663-1.614 1.105-0.399 4.673 1.243 5.735 3.234 2.092 12.155 1.689 11.582-2.675-0.423-3.221 2.938-4.165 3.461-1.156 0.848 4.878 12.563-1.545 7.325-6.066-3.102-2.677 1.425-5.925 2.192-1.888 1.304 6.864 8.778-4.202 6.327-5.581-1.785-1.004-0.307-3.478 1.323-1.688 0.905 0.994 5.654-0.929 3.873-4.218-1.463-2.701 0.889-3.525 9.037-4.941 14.079-2.448 18.584 7.153 24.362 16.074-3.644-0.792-7.235-0.763-11.283-0.491l0.509 2.993c9.595-0.091 14.750-1.769 15.313 13.705z"/>
 </g>
 <g stroke="#000" stroke-linecap="round">
  <path d="m110.956 31.516c-3.510 0.776-5.952 3.750-5.024 13.649" fill="none"/>
  <path d="m93.712 220.003c2.832 0.169 2.789-4.008 2.707-6.613" fill="none" stroke-width="2.9"/>
  <path d="m107.411 242.058c-4.261-1.399-2.730-7.484 1.942-6.104 1.908 0.575 3.324 1.243 5.504 2.712 1.358 0.179 3.062-0.151 4.073 0.828 0.868 0.842 2.760 0.847 4.141 1.405 2.383-1.720 6.939-0.072 8.249-1.428-3.072-0.742-13.966-1.852-11.763-4.440 0.707-0.831-0.468-1.092-1.464-0.860-2.788 0.647-5.090 0.439-6.835-0.007-2.787-0.713-4.222-2.230-4.468-3.362 0.351-0.970 0.539-2.048 0.518-3.265-0.273-1.723 1.067-2.521 2.388-2.354 3.204 0.406 8.000-1.106 9.254 1.356 1.354 2.658 5.237 3.266 8.010 3.945 5.841 1.430 6.836 6.653 10.374 6.083l-1.486-4.718c1.007-1.749 3.818-2.704 5.744-2.582 2.862 0.181 6.593-0.560 9.213-3.177-3.910 0.283-10.347 2.755-11.729 0.848-0.389-0.537-1.801-0.845-3.149 0.250-1.266 1.028-6.293 0.942-7.157 0.171-1.216-1.085-2.870-0.260-3.953-1.343-1.557-1.557-0.012-4.521 3.954-4.620 4.357-0.109 7.295 0.449 8.215-0.470 1.057-1.057 3.226-0.656 4.514 0.064 4.337 2.424 13.447-0.190 17.541-4.057l-25.528 0.775c-3.526-0.962-2.643-3.924 0.595-5.859 3.548-2.121 7.169-5.360 6.287-9.726-1.652 1.443-4.652 8.174-10.437 9.760-1.509 0.414-2.774 0.774-3.345 2.486-0.396 1.673-3.104 4.287-5.584 3.657-1.802-0.457-3.124 0.994-4.578 1.956-4.188 2.771-9.246 1.620-8.713-6.552l-10.666 0.654c-0.065 2.060-0.746 2.847-0.803 3.984-0.205 4.125-2.314 0.092-5.119 1.257-1.431 0.594-3.286-0.552-5.262-1.251-1.411-0.694-2.867-0.978-4.402-0.557-5.078 0.600-7.301-1.036-8.094-3.916-1.299-7.527-7.847-1.375-16.237-5.970 4.578 5.223 11.664 3.241 12.617 8.411-1.895 1.117-4.565 1.623-6.545 2.699-3.997 2.172-9.088 2.688-15.438 1.636 7.347 3.100 13.245 2.002 17.390 0.287 3.020-1.250 7.973-1.310 8.860 0.046 1.406 2.147 2.590 0.544 4.317 0.519 1.560-0.023 3.224-0.012 4.667 1.108 1.158 0.899 2.734 1.062 4.179 1.412-0.900 0.866-1.120 0.806-1.225 2.120-0.207 2.571-6.134 4.196-12.744 3.586-1.260-0.116-1.897 0.346-3.009 1.072-4.226 2.758-7.859 2.813-11.236 1.041 1.651 1.915 5.886 3.244 9.066 1.856 5.426-2.368 7.158 1.171 2.201 4.524 5.071 0.343 3.554-5.332 9.608-5.182 3.436 0.085 7.138-1.771 10.475-4.545 2.926-2.432 6.129-1.962 8.767-3.668-0.592 2.030 0.720 3.283 0.334 5.118-1.300 6.167-6.073 1.941-8.631 2.658 0.982 5.575-1.619 3.514-2.653 4.786-0.529 0.651-1.516 0.732-2.662 1.037-0.996 0.265-1.845 1.460-3.710 1.392-1.695-0.062-3.568 0.049-4.063 1.053 0.875 0.012 1.763-0.352 3.047 0.105 1.279 0.455 2.977 0.680 4.123-0.325 0.886-0.776 2.369-0.753 3.713-0.850 2.225-0.160 3.108-1.537 4.483-1.632 0.961-0.066 2.477 0.018 3.703-0.763 0.841-0.536 2.624-0.258 3.237-0.754 0.272 2.713 0.215 5.144-2.321 5.685-2.430 0.518-2.859 1.869-2.414 2.918 2.301-1.559 4.484-2.907 5.205 0.974 0.461 2.480 2.943 1.493 4.932 1.296-0.810-2.188-0.387-3.170 1.697-2.991 2.178 0.186 1.792-1.704 0.284-2.199z" fill="#078930" stroke-linejoin="round" stroke-width="1.5"/>
 </g>
 <g fill="none" stroke="#000">
  <g stroke-linecap="round" stroke-width="1.5">
   <path d="m30.705 138.281c9.239 8.228 12.734 17.935 25.922 25.493"/>
   <path d="m30.356 119.319c11.783-14.553 20.955-16.485 30.762-21.492"/>
   <path d="m149.367 173.082c6.255 3.108 12.619 6.239 16.072 16.424 1.536 4.531 6.905 7.431 8.864 12.391"/>
   <path d="m150.883 162.739c9.217-7.240 11.714-17.414 17.136-26.359"/>
   <path d="m19.848 85.713c19.312-10.701 34.311-7.818 47.825-0.262"/>
   <path d="m103.441 19.675c0.195 6.833-1.547 11.710-1.086 18.326 0.795 11.391 2.166 24.191 3.784 35.052"/>
  </g>
  <path d="m102.791 2.629v8.345"/>
  <g stroke-linecap="round">
   <path d="m175.605 79.758c-6.376-6.030-19.498-4.245-25.800-1.430-2.994 1.337-6.225 2.540-9.278 3.355" stroke-width="1.5"/>
   <path d="m46.874 180.339c-3.483 7.275-10.435 13.287-15.264 18.816"/>
   <path d="m56.880 175.321c-2.753 2.055-7.009 6.171-7.900 8.570"/>
   <path d="m151.641 99.206c7.793 2.280 16.065 7.705 22.889 15.323"/>
   <path d="m126.237 85.367c0.803 3.984-2.710 8.336-5.699 12.168 3.122-3.651 5.282-8.180 8.261-10.037" stroke-linejoin="round"/>
   <path d="m105.076 114.521c-1.658 3.344-2.707 7.358-1.898 13.415"/>
  </g>
 </g>
 <g stroke="#000">
  <g stroke-linecap="round">
   <path d="m102.791 126.728c-13.397 0-27.322 1.348-40.983 3.361 4.171 15.268 5.278 30.298 4.983 45.921-0.507 26.853 13.113 38.319 36.000 38.319 22.887 0 36.508-11.465 36.000-38.319-0.295-15.623 0.811-30.653 4.983-45.921-13.661-2.013-27.586-3.361-40.983-3.361z" fill="#fcdd09" stroke-linejoin="round" stroke-width="2"/>
   <path d="m106.235 80.335c-3.228 3.406-1.830 20.808-0.765 26.284" fill="none"/>
   <path d="m104.772 221.197c0.649-2.285 1.313-4.047 2.673-6.418" fill="none"/>
   <path d="m135.301 121.766c-6.712 2.436-10.770-1.226-8.405-8.931 2.028-7.568 4.826-8.601 10.657-8.428 2.312 0.069 4.594 0.817 4.727 2.687 5.237 3.992 8.532 7.778 7.999 11.358-0.592 3.977-8.771 6.337-14.978 3.314z" fill="#fcdd09" stroke-linejoin="round" stroke-width="1.5"/>
   <path d="m142.651 63.334c7.342-4.557 12.195-11.603 9.118-16.254-2.737-4.137-10.022-3.066-18.519 1.867-8.361-1.534-10.301 7.917-7.554 14.427 2.762 6.547 10.253 10.129 16.955-0.041z" fill="#fcdd09" stroke-linejoin="round" stroke-width="1.5"/>
  </g>
  <path d="m141.449 24.587-3.619 5.318" fill="none" stroke-width=".5"/>
  <path d="m53.421 45.934c5.266-5.679 12.624-2.908 18.144 0.867 10.296-4.748 11.904 7.679 9.123 13.840-2.846 6.305-12.876 10.675-15.266 0.123-6.910-4.044-12.177-9.527-12.000-14.830z" fill="#fcdd09" stroke-linecap="round" stroke-linejoin="round" stroke-width="1.5"/>
  <path d="m72.919 121.960c5.982 6.841 10.978-1.287 10.053-9.141-1.320-11.207-9.417-11.427-12.290-6.451-3.729 1.039-11.741 2.181-11.186 8.960 0.404 4.927 8.272 7.537 13.423 6.631z" fill="#fcdd09" stroke-linecap="round" stroke-linejoin="round" stroke-width="1.5"/>
 </g>
 <g fill="none" stroke="#000">
  <path d="m132.977 48.963c-2.239 10.666 4.096 14.969 9.265 14.393" stroke-linecap="round" stroke-width="1.5"/>
  <path d="m138.983 21.470-3.619 5.318" stroke-width=".5"/>
  <g stroke-linecap="round">
   <g stroke-width="1.5">
    <path d="m71.800 47.056c2.484 2.564-0.169 11.756-6.085 13.833"/>
    <path d="m72.846 121.991c1.523-5.971 2.064-11.705-2.151-15.590"/>
    <path d="m142.180 107.280c-3.928 1.476-7.169 8.604-6.776 14.482"/>
   </g>
   <g stroke-width=".5">
    <path d="m132.536 54.050c-1.779 3.860-3.965 7.161-6.176 10.326"/>
    <path d="m132.207 52.372c-3.610 1.196-5.044 4.826-6.834 8.550"/>
    <path d="m133.556 58.491c-1.779 3.860-2.912 5.681-5.649 8.221"/>
    <path d="m138.096 62.965c-0.792 2.873-1.925 4.365-4.926 6.543"/>
    <path d="m135.694 61.254c-1.779 3.860-2.583 5.253-5.584 7.431"/>
    <path d="m125.727 52.076c2.194 2.988 4.912 5.636 8.595 7.661"/>
    <path d="m128.128 49.905c1.010 1.935 2.544 2.742 4.318 3.615"/>
    <path d="m124.970 56.715c2.243 3.759 11.549 11.805 14.746 9.898"/>
    <path d="m135.486 118.776c-5.036 0.574-7.509-2.301-7.985-7.866"/>
    <path d="m136.012 116.210c-4.049-1.531-5.338-3.288-6.867-8.721"/>
    <path d="m137.459 112.591c-2.376-2.525-3.788-4.588-5.288-7.537"/>
    <path d="m138.393 110.093c-3.870 0.792-7.986 4.719-11.732 8.731"/>
    <path d="m136.346 115.211c-3.451 1.676-5.055 4.115-7.080 6.731"/>
    <path d="m139.537 104.848c-4.625 1.465-10.852 6.374-12.541 9.165"/>
    <path d="m139.297 108.888c0.609-1.066-1.574-3.592-3.145-4.359"/>
    <path d="m82.994 115.665c-2.907 3.229-6.300 5.195-9.959 6.411"/>
    <path d="m82.468 111.257c-2.837 2.422-5.674 4.493-8.511 6.214"/>
    <path d="m81.086 107.507c-2.191 1.974-4.244 3.809-6.932 6.280"/>
    <path d="m79.310 105.072c-2.310 1.029-3.962 3.000-5.748 5.424"/>
    <path d="m81.481 121.520c-2.108-4.337-5.357-13.111-9.367-13.787"/>
    <path d="m74.178 114.612c1.935 1.963 3.194 6.107 3.923 9.964"/>
    <path d="m82.731 113.691c-2.991-3.670-6.305-9.343-9.564-9.576"/>
    <path d="m65.822 62.702c5.716 0.956 10.722-0.783 15.569-3.129"/>
    <path d="m82.007 52.504c-2.396 3.603-7.599 4.739-12.854 6.017"/>
    <path d="m77.731 46.385c-0.050 1.852-2.115 3.704-4.959 5.556"/>
    <path d="m71.481 55.530c0.994 3.880 2.184 7.466 3.529 10.819"/>
    <path d="m79.310 62.636c-1.473-5.224-3.774-9.502-6.472-13.327"/>
    <path d="m72.928 46.319c4.329 1.628 6.942 5.402 9.187 9.635"/>
    <path d="m69.309 58.359c-0.708 3.198 0.563 6.441 2.213 8.714"/>
   </g>
  </g>
 </g>
 <path d="m102.792 132.157-3.424 25.707-20.598-15.757 15.757 20.598-25.706 3.423h67.942l-25.706-3.423 15.757-20.598-20.598 15.757z" stroke="#000" stroke-linecap="round" stroke-linejoin="round" stroke-miterlimit="8"/>
 <path d="m102.792 144.271-1.259 18.355-14.197-12.111 12.416 13.847-18.818 1.228h43.714l-18.818-1.228 12.416-13.847-14.197 12.111z" fill="#fff"/>
 <g stroke="#000">
  <path d="m91.520 189.153h23.217v2.513s-3.894-0.7-5.862-0.7h-13.283c-1.377 0-4.072 0.7-4.072 0.7z" stroke-linecap="round" stroke-linejoin="round" stroke-miterlimit="8" stroke-width=".5"/>
  <path d="m93.351 174.739c-2.446 8.168-4.894 16.335-8.071 24.016-1.086 2.625-2.516 4.456-4.420 5.055h10.832c-0.816-3.276-0.259-7.173 0.536-10.473l4.459-18.504 11.592 0 1.620 1.580 6.337 23.534c0.553 2.053-0.713 3.195-2.191 4.343h9.225c1.568-0.063 0.883-1.666 0.397-2.844l-10.117-24.5c-0.833-2.018-0.054-5.494 12.992-1.080l-4.992-5.129h-38.952c-1.149 2.128-3.381 4.477-5.898 6.729 2.405-0.409 4.601-2.759 6.573-3.087 3.847-0.638 6.592-1.162 10.078 0.361z" stroke-linecap="round" stroke-linejoin="round" stroke-width="2"/>
  <path id="Kontur" d="m62.630 27.233c-22.272-0.992-36.716 30.003-60.676 37.481 17.693 47.921 21.275 99.772 13.350 151.972 1.859 2.657 3.832 4.781 6.037 6.919 6.119-1.400 10.002-2.04 15.902-5.889 6.878 18.775 18.385 23.842 42.583 34.717 11.782 5.295 16.989 6.557 22.967 12.995 6.240-6.569 11.185-7.699 22.967-12.995 24.197-10.876 35.704-15.943 42.582-34.717 5.899 3.849 9.782 4.489 15.902 5.889 2.205-2.138 4.178-4.261 6.037-6.919-7.925-52.201-4.343-104.052 13.350-151.972-23.960-7.477-38.403-38.473-60.676-37.481-3.611-14.818-30.162-16.105-40.162-25.205-10 9.1-36.923 10.201-40.162 25.205z" fill="none" stroke-linecap="square" stroke-miterlimit="8" stroke-width="3.000"/>
 </g>
</svg>
