<?xml version="1.0" encoding="UTF-8" standalone="no"?><svg xmlns="http://www.w3.org/2000/svg" width="979.28" height="1067.6" viewBox="0 0 979.28409 1067.6028"><g transform="translate(114.64 2.286)"><path d="m684.83 7.739c-26.17.053-51.02.198-70.798.478-79.11 1.122-156.7-.214-235.05 0-2.653.007-5.305.036-7.958.043-78.35.214-155.94 1.122-235.05 0-79.11-1.122-239.53 0-239.53 0 0 0 4.995 48.18 6.784 72.32 3.067 41.38 4.256 82.87 6.784 124.29 3.405 55.766 7.902 111.49 11.307 167.25 2.529 41.41 3.91 82.9 6.784 124.29 4.346 62.59 5.02 125.75 15.786 187.56 6.02 34.562 14.418 68.979 27.14 101.67 15.355 39.473 33.473 78.71 58.839 112.63 18.288 24.456 41.648 45.04 65.884 63.62 27.747 21.272 57.962 39.816 89.93 53.968 33.818 14.97 69.917 25.08 106.24 32.09 27.334 5.278 55.35 7.255 83.19 7.349 27.662.094 55.55-1.52 82.71-6.741 36.46-7.01 72.54-17.626 106.46-32.746 31.934-14.235 62.23-32.696 89.98-53.968 24.24-18.58 47.595-39.17 65.884-63.62 25.365-33.919 43.484-73.16 58.839-112.63 12.718-32.695 21.12-67.16 27.14-101.72 10.762-61.814 11.44-124.97 15.786-187.56 2.874-41.39 4.256-82.87 6.784-124.29 3.405-55.766 7.902-111.44 11.307-167.21 2.529-41.41 3.717-82.909 6.784-124.29 1.79-24.14 6.784-72.32 6.784-72.32 0 0-90.24-.636-168.73-.478" fill="#da121a"/><g stroke="#000" stroke-linejoin="round" stroke-linecap="round" stroke-width="5"><path d="m86.28 135.38c-2.955 0-5.334 2.379-5.334 5.334v89.53h-169.31c3.127 47.3 6.795 94.57 9.684 141.88 2.529 41.41 3.911 82.9 6.785 124.29 4.346 62.59 5.02 125.75 15.785 187.56 6.02 34.562 14.419 68.979 27.14 101.67 15.355 39.473 33.474 78.71 58.84 112.63 18.288 24.456 41.648 45.04 65.883 63.62 27.747 21.272 57.961 39.814 89.93 53.967 33.818 14.97 69.917 25.08 106.24 32.09 27.334 5.278 55.35 7.255 83.19 7.35 27.662.094 55.55-1.52 82.71-6.74 36.46-7.01 72.54-17.626 106.46-32.746 31.934-14.235 62.23-32.697 89.98-53.969 24.24-18.58 47.596-39.17 65.885-63.62 25.365-33.919 43.483-73.16 58.838-112.63 12.718-32.695 21.12-67.15 27.14-101.72 10.762-61.814 11.44-124.97 15.785-187.56 2.874-41.39 4.257-82.87 6.785-124.29 2.887-47.29 6.554-94.52 9.68-141.79h-169.31v-89.53c0-2.955-2.379-5.334-5.334-5.334h-184.32c-2.955 0-5.334 2.379-5.334 5.334v89.53h-198.13v-89.53c0-2.955-2.379-5.334-5.334-5.334h-184.32z" fill="#fff"/><path d="m-60.19 336.58c.726 11.03 1.433 22.07 2.09 33.1 2.414 40.507 3.734 81.08 6.477 121.56 4.148 61.22 4.796 122.99 15.07 183.45 5.744 33.804 13.764 67.47 25.906 99.44 14.658 38.608 31.956 76.988 56.17 110.16 17.459 23.92 39.758 44.06 62.894 62.23 26.488 20.806 55.33 38.942 85.85 52.783 32.28 14.642 66.745 24.53 101.42 31.39 26.09 5.162 52.844 7.096 79.42 7.188 26.408.092 53.03-1.486 78.961-6.592 34.806-6.853 69.25-17.239 101.63-32.03 30.485-13.923 59.41-31.98 85.89-52.785 23.14-18.17 45.44-38.31 62.896-62.23 24.21-33.18 41.51-71.56 56.17-110.17 12.141-31.979 20.16-65.68 25.906-99.49 10.274-60.46 10.921-122.23 15.07-183.45 2.743-40.485 4.064-81.06 6.477-121.56.656-11.01 1.361-22.01 2.085-33.02h-870.38z"/></g><path d="m-69.68 533.27c2.763 50.44 4.908 101.01 13.561 150.71 6.02 34.562 14.419 68.979 27.14 101.67 9.855 25.335 20.861 50.564 34.18 74.36h739.58c13.328-23.81 24.342-49.06 34.2-74.41 12.718-32.695 21.12-67.15 27.14-101.72 8.647-49.67 10.796-100.2 13.557-150.62h-889.35" fill="#fcdd09"/><g stroke="#000"><path d="m684.83 7.739c-26.17.053-51.02.198-70.798.478-79.11 1.122-156.7-.214-235.05 0-2.653.007-5.305.036-7.958.043-78.35.214-155.94 1.122-235.05 0-79.11-1.122-239.53 0-239.53 0 0 0 4.995 48.18 6.784 72.32 3.067 41.38 4.256 82.87 6.784 124.29 3.405 55.766 7.902 111.49 11.307 167.25 2.529 41.41 3.91 82.9 6.784 124.29 4.346 62.59 5.02 125.75 15.786 187.56 6.02 34.562 14.418 68.979 27.14 101.67 15.355 39.473 33.473 78.71 58.839 112.63 18.288 24.456 41.648 45.04 65.884 63.62 27.747 21.272 57.962 39.816 89.93 53.968 33.818 14.97 69.917 25.08 106.24 32.09 27.334 5.278 55.35 7.255 83.19 7.349 27.662.094 55.55-1.52 82.71-6.741 36.46-7.01 72.54-17.626 106.46-32.746 31.934-14.235 62.23-32.696 89.98-53.968 24.24-18.58 47.595-39.17 65.884-63.62 25.365-33.919 43.484-73.16 58.839-112.63 12.718-32.695 21.12-67.16 27.14-101.72 10.762-61.814 11.44-124.97 15.786-187.56 2.874-41.39 4.256-82.87 6.784-124.29 3.405-55.766 7.902-111.44 11.307-167.21 2.529-41.41 3.717-82.909 6.784-124.29 1.79-24.14 6.784-72.32 6.784-72.32 0 0-90.24-.636-168.73-.478z" fill="none" stroke-width="20"/><g stroke-linejoin="round" stroke-width="5"><g fill="#0f47af"><g fill-rule="evenodd"><path d="m374.36 556.53c0 0-.171 1.342-.191 1.494-2.687 2.794-8.369 8.896-10.785 12.975-2.633 4.446-4.577 9.397-5.564 14.469-1.01 5.19-.279 15.861-.279 15.861 0 0-8.482-4.296-13.08-5.287-4.446-.959-9.09-.649-13.633-.557-4.559.093-13.635 1.113-13.635 1.113 0 0 1.679 6.992 3.061 10.295 2.819 6.74 5.441 14 10.574 19.2 2.772 2.808 10.295 5.844 10.295 5.844 0 0-4.617 2.146-6.4 3.895-2.591 2.54-4.659 5.752-5.842 9.182-1.55 4.493-1.393 14.191-1.393 14.191 0 0 6.29-6.112 10.02-8.348 2.747-1.648 5.701-3.643 8.904-3.617 4.03.032 8.163 2 11.129 4.73 2.93 2.698 5.716 6.592 5.564 10.572-.179 4.706-3.998 8.83-7.512 11.965-7.367 6.573-17.289 9.851-26.711 12.801-8.967 2.808-18.552 3-27.83 4.49 0 0-11.891-1.466-16.801-4.559-3.257-2.051-6.233-5.126-7.541-8.746-1.453-4.02-1.524-8.923.23-12.822 1.608-3.573 4.931-6.74 8.656-7.955 3.752-1.224 11.764 1.326 11.764 1.326 0 0-2.985-5.671-5.363-7.705-2.251-1.925-5.105-3.218-7.992-3.883-2.251-.518-4.935 1.163-6.93-.002-.828-.484-1.273-1.557-1.414-2.506-.298-1.997 1.465-3.903 1.305-5.916-.244-3.062-1.751-5.97-3.387-8.57-3.483-5.538-8.31-10.208-13.324-14.41-1.758-1.473-5.722-6-5.791-3.715-.19-.384-.407-.494-.637-.404-.997.388-2.279 4.514-3.078 6.197-2.806 5.91-5.246 12.166-6.102 18.652-.402 3.045-.559 6.318.496 9.203.693 1.896 3.09 2.893 3.652 4.832.267.921.311 2.082-.24 2.867-1.327 1.891-4.467 1.481-6.297 2.891-2.347 1.808-4.403 4.175-5.646 6.863-1.314 2.84-1.662 9.238-1.662 9.238 0 0 6.22-5.66 10.141-6.111 3.893-.449 8.232 1.044 11.184 3.621 3.22 2.813 5.201 7.298 5.557 11.559.32 3.836-1.102 7.871-3.207 11.09-3.173 4.858-13.369 11.15-13.369 11.15l30.336 5.064 5.795-3.928c9.635 10.414 39.982 11.398 39.982 11.398l53.625-6.295 53.625 6.295c0 0 30.346-.984 39.982-11.396l5.795 3.926 30.336-5.064c0 0-10.196-6.292-13.369-11.15-2.105-3.223-3.527-7.258-3.207-11.09.356-4.261 2.336-8.746 5.557-11.559 2.951-2.577 7.291-4.07 11.184-3.621 3.921.452 10.141 6.111 10.141 6.111 0 0-.348-6.398-1.662-9.238-1.243-2.689-3.3-5.056-5.646-6.863-1.83-1.41-4.97-1-6.297-2.891-.551-.785-.507-1.946-.24-2.867.562-1.939 2.959-2.936 3.652-4.832 1.055-2.885.898-6.158.496-9.203-.856-6.486-3.296-12.742-6.102-18.652-.799-1.683-2.081-5.809-3.078-6.197-.23-.09-.446.02-.637.404-.069-2.285-4.03 2.242-5.791 3.715-5.01 4.202-9.842 8.872-13.324 14.41-1.635 2.6-3.143 5.508-3.387 8.57-.16 2.01 1.603 3.919 1.305 5.916-.141.949-.586 2.02-1.414 2.506-1.994 1.165-4.679-.516-6.93.002-2.887.665-5.741 1.958-7.992 3.883-2.379 2.034-5.363 7.705-5.363 7.705 0 0 8.01-2.55 11.764-1.326 3.725 1.215 7.05 4.382 8.656 7.955 1.754 3.899 1.684 8.801.23 12.822-1.308 3.62-4.284 6.695-7.541 8.746-4.91 3.093-16.801 4.559-16.801 4.559-9.278-1.487-18.863-1.683-27.83-4.49-9.422-2.95-19.344-6.228-26.711-12.801-3.514-3.135-7.332-7.259-7.512-11.965-.152-3.98 2.634-7.875 5.564-10.572 2.966-2.73 7.098-4.698 11.129-4.73 3.203-.026 6.157 1.969 8.904 3.617 3.727 2.236 10.02 8.348 10.02 8.348 0 0 .158-9.698-1.393-14.191-1.183-3.43-3.251-6.642-5.842-9.182-1.783-1.748-6.4-3.895-6.4-3.895 0 0 7.523-3.036 10.295-5.844 5.133-5.199 7.755-12.459 10.574-19.2 1.382-3.303 3.061-10.295 3.061-10.295 0 0-9.08-1.021-13.635-1.113-4.548-.092-9.187-.403-13.633.557-4.596.992-13.08 5.287-13.08 5.287 0 0 .732-10.671-.279-15.861-.988-5.072-2.931-10.02-5.564-14.469-2.416-4.079-8.098-10.181-10.785-12.975-.02-.152-.191-1.494-.191-1.494 0 0-.44.452-.633.648-.193-.196-.633-.648-.633-.648z"/><path d="m186.87 722.33c0 0-10.04-21.775-16.363-31.922-9.371-15.03-20.17-29.21-31.787-42.583-10.618-12.217-34.486-34.19-34.486-34.19 0 0 15.296-2.176 22.791-.9 9.644 1.642 20.305 3.946 27.29 10.796 4.254 4.173 6.897 16.493 6.897 16.493 0 0 2.794-7.366 5.398-10.196 4.261-4.633 10.1-7.733 15.894-10.196 3.972-1.689 12.595-2.999 12.595-2.999 0 0 2.429 15.482 1.2 23.09-1.096 6.78-7.497 19.19-7.497 19.19 0 0 8.419-.747 12.295.6 3.249 1.129 6.222 3.333 8.397 5.998 2.49 3.051 4.798 10.796 4.798 10.796 0 0-9.543-4.559-14.394-3.599-5.119 1.013-10.39 4.567-12.595 9.296-1.354 2.905-.719 6.675.6 9.596 1.686 3.737 5.05 6.817 8.697 8.697 6.937 3.579 15.353 2.872 23.09 3.898 6.172.819 13.522-1.814 18.593 1.799 5.282 3.763 10.601 11.71 8.097 17.693-1.807 4.317-8.097 5.398-13.195 4.798-5.098-.6-46.31-6.163-46.31-6.163z"/></g><ellipse cx="-288" cy="617.92" rx="8.425" ry="21.344" transform="matrix(.78916-.61419.61419.78916 0 0)" stroke-linecap="round"/><path d="m563.13 722.33c0 0 10.04-21.775 16.363-31.922 9.371-15.03 20.17-29.21 31.787-42.583 10.618-12.217 34.486-34.19 34.486-34.19 0 0-15.296-2.176-22.791-.9-9.644 1.642-20.305 3.946-27.29 10.796-4.254 4.173-6.897 16.493-6.897 16.493 0 0-2.794-7.366-5.398-10.196-4.261-4.633-10.1-7.733-15.894-10.196-3.972-1.689-12.595-2.999-12.595-2.999 0 0-2.429 15.482-1.2 23.09 1.096 6.78 7.497 19.19 7.497 19.19 0 0-8.419-.747-12.295.6-3.249 1.129-6.222 3.333-8.397 5.998-2.49 3.051-4.798 10.796-4.798 10.796 0 0 9.543-4.559 14.394-3.599 5.119 1.013 10.39 4.567 12.595 9.296 1.354 2.905.719 6.675-.6 9.596-1.686 3.737-5.05 6.817-8.697 8.697-6.937 3.579-15.353 2.872-23.09 3.898-6.172.819-13.522-1.814-18.593 1.799-5.282 3.763-10.601 11.71-8.097 17.693 1.807 4.317 8.097 5.398 13.195 4.798 5.098-.6 46.31-6.163 46.31-6.163z" fill-rule="evenodd"/><g stroke-linecap="round"><ellipse cx="-879.87" cy="157.28" rx="8.425" ry="21.344" transform="matrix(-.78916-.61419-.61419.78916 0 0)"/><ellipse cx="375" cy="782.19" rx="160.74" ry="25.15"/></g><path d="m374.99702 697.17383a188.13023 25.1535 0 0 0 -188.1289 25.15429h-.002.004a188.13023 25.1535 0 0 0 1.15821 2.5293l26.23 57.33a160.73625 25.15354 0 0 1 160.73632 -25.15429 160.73625 25.15354 0 0 1 160.73633 25.15429l26.1-57.04a188.13023 25.1535 0 0 0 1.29296 -2.82422 188.13023 25.1535 0 0 0 -188.13086 -25.15429z" fill-rule="evenodd"/><g stroke-linecap="round"><ellipse cx="375" cy="782.69" rx="147.13" ry="15.11"/><path d="m282.29 722.4l-12.02 12.02 12.02 12.02 12.02-12.02-12.02-12.02zm185.42 0l-12.02 12.02 12.02 12.02 12.02-12.02-12.02-12.02z"/><path d="m351.59 718.99v18.463h46.809v-18.463h-46.809zm-129.04 17.283l-28.953 11.393 6.76 17.18 28.955-11.393-6.762-17.18zm304.89 0l-6.76 17.18 28.955 11.393 6.76-17.18-28.955-11.393z"/></g></g><g fill="none" stroke-linecap="round"><ellipse transform="matrix(.97696-.21341.21341.97696 0 0)" ry="8.5" rx="8.45" cy="697.12" cx="117.93"/><ellipse cx="-614.79" cy="537.07" rx="8.45" ry="8.5" transform="matrix(-.97696-.21341-.21341.97696 0 0)"/><rect width="20.664" height="41.33" x="364.66" y="606.43" rx="10.332"/></g></g></g></g></svg>