<?xml version="1.0" encoding="UTF-8" standalone="no"?><svg xmlns="http://www.w3.org/2000/svg" width="979.28" height="1067.6" viewBox="0 0 979.28409 1067.6027" xmlns:xlink="http://www.w3.org/1999/xlink"><defs><path id="0" d="m-67.36 272.5c0 0 5.979.323 8.863 1.052 5.313 1.344 10.395 3.584 15.286 6.06 6.02 3.047 11.456 7.134 17.16 10.747 5.776 3.661 11.296 7.747 17.27 11.07 3.488 1.943 7.02 3.91 10.805 5.17 4.949 1.646 15.347 3.045 15.347 3.045" stroke="#000" fill-rule="evenodd" fill="none" stroke-linecap="round" stroke-width="5"/><path id="1" d="m-51.55 303.02c0 0 4.385.231 6.5.752 3.897.96 7.624 2.56 11.211 4.327 4.416 2.176 8.402 5.096 12.583 7.676 4.236 2.615 8.285 5.533 12.666 7.91 2.558 1.388 5.146 2.793 7.924 3.693 3.629 1.176 11.255 2.175 11.255 2.175" stroke="#000" fill-rule="evenodd" fill="none" stroke-linecap="round" stroke-width="5"/><path id="2" d="m-35.03 332.4c0 0 2.6.127 3.854.415 2.31.53 4.52 1.412 6.646 2.388 2.618 1.201 4.981 2.811 7.46 4.235 2.512 1.443 4.912 3.053 7.509 4.364 1.517.766 3.051 1.541 4.698 2.037 2.152.649 6.673 1.2 6.673 1.2" stroke="#000" fill-rule="evenodd" fill="none" stroke-linecap="round" stroke-width="5"/><path id="3" d="m-44.42 317.3c0 0 3.491.179 5.175.583 3.102.745 6.069 1.985 8.925 3.356 3.515 1.688 6.689 3.952 10.02 5.953 3.373 2.028 6.595 4.291 10.08 6.134 2.037 1.076 4.096 2.166 6.308 2.864 2.889.912 8.96 1.687 8.96 1.687" stroke="#000" fill-rule="evenodd" fill="none" stroke-linecap="round" stroke-width="5"/><path id="4" d="m-723.22 674.83c-2.632-.135-5.367 1.918-6.703 4.189-2.765 4.701-1.131 10.895-.838 16.342.19 3.531 2.653 7.08 1.676 10.475-.821 2.854-5.01 3.864-5.867 6.705-.941 3.1.621 6.46 1.258 9.637 1.253 6.246 4.182 12.12 5.03 18.438.871 6.507.214 13.13 0 19.693-.21 6.435-1.293 12.837-1.256 19.275.032 5.463 1.637 10.892 1.256 16.342-.499 7.133-3.314 13.918-4.607 20.951-.689 3.749-1.864 7.505-1.678 11.313.225 4.602 2.287 8.926 3.354 13.408 1.027 4.318.552 9.243 2.932 12.99 1.708 2.688 4.363 5.685 7.543 5.867 3.755.215 7.249-2.961 9.637-5.867 2.833-3.448 4.915-8.118 4.609-12.57-.346-5.05-5.786-8.527-7.123-13.408-1.589-5.799-.633-12.01-.838-18.02-.081-2.377-.118-4.755-.15-7.133 1.224-.008 2.715-.452 3.502.428 1.304 1.457-1.167 4.298 0 5.867 1.741 2.34 5.837 3.94 8.381 2.514 2.394-1.342 2.025-5.218 2.096-7.961.089-3.423-2.578-6.667-2.096-10.06.714-5.01 2.138-14.281 7.123-13.408 3.891.681.498 7.962 1.676 11.732.745 2.385.881 7.06 3.354 6.703 4.772-.694 1.673-9.498 2.514-14.246 1.113-6.286 3.98-12.503 3.352-18.855-.339-3.433-1.165-7.378-3.771-9.639-1.843-1.598-5.566.202-7.123-1.676-4.01-4.844 4.774-16.01-.838-18.855-2.246-1.139-5.167 1.933-6.285 4.189-1.989 4.01.567 8.94.838 13.41.288 4.748 2.468 9.777.838 14.246-1.253 3.434-5.875 4.707-7.541 7.961-1.361 2.658-1.079 5.874-1.678 8.799-.917 4.482-.122 9.799-2.932 13.41-.37.476-.894 1.037-1.467 1.543-.039-2.75-.088-5.5-.209-8.248-.65-14.823-2.444-29.587-2.934-44.42-.235-7.119.495-14.263 0-21.369-.49-7.03-1.636-14.02-2.934-20.951-.898-4.795-4.762-9.576-3.352-14.246.886-2.932 5.861-3.34 6.703-6.285.596-2.085-.478-4.478-1.676-6.285-.88-1.328-2.181-2.852-3.771-2.934zm-8.379 166.77c0 0-3.732-6.541-5.867-9.637-.904-1.311-2.131-2.396-2.934-3.771-1.829-3.137-3.079-6.599-4.189-10.06-2.28-7.097-5.381-14.344-5.03-21.789.231-4.853 3.264-9.157 4.607-13.826 1.471-5.111 3.138-10.223 3.771-15.504.698-5.825.578-11.762 0-17.6-.281-2.835 1.167-8.191-1.676-8.379-5.597-.371-3.774 10.568-5.447 15.922-2.902 9.284-4.372 19.03-7.961 28.07-1.452 3.658-4.87 6.581-5.447 10.475-1 6.747 1.433 13.705 3.771 20.11 2.53 6.933 5.406 14.341 10.895 19.275 4.187 3.764 15.504 6.703 15.504 6.703z" stroke="#000" fill-rule="evenodd"/><path id="5" d="m-59.43 287.67c0 0 5.266.282 7.807.918 4.68 1.173 9.157 3.126 13.464 5.285 5.304 2.658 10.09 6.223 15.11 9.374 5.088 3.193 9.95 6.757 15.213 9.66 3.072 1.695 6.18 3.411 9.517 4.51 4.359 1.436 13.518 2.656 13.518 2.656" stroke="#000" fill-rule="evenodd" fill="none" stroke-linecap="round" stroke-width="5"/></defs><g transform="translate(211.31 9.392)"><path d="m588.16.633c-26.17.053-51.02.198-70.798.478-79.11 1.122-156.7-.214-235.05 0-2.653.007-5.305.036-7.958.043-78.35.214-155.94 1.122-235.05 0-79.11-1.122-239.53 0-239.53 0 0 0 4.995 48.18 6.784 72.32 3.067 41.38 4.256 82.87 6.784 124.29 3.405 55.766 7.902 111.49 11.307 167.25 2.529 41.41 3.91 82.9 6.784 124.29 4.346 62.59 5.02 125.75 15.786 187.56 6.02 34.562 14.418 68.979 27.14 101.67 15.355 39.473 33.473 78.71 58.839 112.63 18.288 24.456 41.648 45.04 65.884 63.62 27.747 21.272 57.962 39.816 89.93 53.968 33.818 14.97 69.917 25.08 106.24 32.09 27.334 5.278 55.35 7.255 83.19 7.349 27.662.094 55.55-1.52 82.71-6.741 36.46-7.01 72.54-17.626 106.46-32.746 31.934-14.235 62.23-32.696 89.98-53.968 24.24-18.58 47.595-39.17 65.884-63.62 25.365-33.919 43.484-73.16 58.839-112.63 12.718-32.695 21.12-67.16 27.14-101.72 10.762-61.814 11.44-124.97 15.786-187.56 2.874-41.39 4.256-82.87 6.784-124.29 3.405-55.766 7.902-111.44 11.307-167.21 2.529-41.41 3.717-82.909 6.784-124.29 1.789-24.14 6.784-72.32 6.784-72.32 0 0-90.24-.636-168.73-.478" fill="#0f47af"/><g stroke="#000"><g fill="#fff"><path d="m274.17 259.08c-29.804 0-55.03 37.15-84.84 37.15-.649 0-1.297-.018-1.941-.053-.624-.033-1.245-.084-1.865-.148-.084-.009-.168-.022-.252-.031-.503-.055-1.01-.12-1.506-.195-.196-.03-.392-.063-.588-.096-.393-.065-.786-.135-1.178-.211-.251-.049-.502-.099-.752-.152-.306-.065-.611-.135-.916-.207-.337-.08-.674-.161-1.01-.248-.197-.051-.395-.106-.592-.16-.402-.11-.804-.223-1.205-.344-.096-.029-.193-.06-.289-.09-.479-.148-.957-.301-1.434-.463-.008-.003-.019-.006-.029-.008-.151-.051-.301-.107-.451-.16-.378-.145-.755-.297-1.135-.439-.289-.108-.592-.206-.881-.318-.254-.1-.499-.215-.754-.318-.499-.204-.999-.395-1.496-.605-.758-.331-1.515-.675-2.27-1.035-.305-.151-.612-.297-.918-.449-.054-.027-.108-.053-.162-.08-.029-.015-.059-.03-.088-.045-.407-.203-.814-.411-1.221-.621-.645-.334-1.287-.69-1.93-1.041-1.533-.838-3.07-1.718-4.59-2.639-.865-.524-1.713-1.051-2.576-1.596-1.728-1.09-3.451-2.215-5.172-3.359-.942-.626-1.9-1.25-2.842-1.885-.255-.171-.501-.348-.756-.52-.522-.351-1.054-.69-1.574-1.043-2.055-1.389-4.094-2.788-6.152-4.145-.073-.048-.152-.094-.225-.143-.108-.071-.218-.134-.326-.205-1.348-.886-2.695-1.76-4.049-2.607-.654-.41-1.305-.818-1.963-1.217-.059-.036-.125-.082-.184-.117-.869-.525-1.745-1.034-2.617-1.535-.87-.5-1.721-.979-2.596-1.449-.535-.288-1.078-.562-1.615-.838-.682-.349-1.379-.686-2.064-1.014-.582-.279-1.155-.552-1.738-.813-.747-.333-1.497-.654-2.248-.957-.11-.045-.218-.099-.328-.143-.051-.021-.091-.038-.143-.059-.894-.353-1.798-.681-2.699-.984-.606-.203-1.229-.402-1.838-.582-.65-.193-1.308-.356-1.963-.52-.11-.028-.219-.062-.328-.088-.022-.001-.041 0-.063 0-.744-.179-1.479-.353-2.229-.492-.029 0-.052-.022-.082-.027-.665-.122-1.333-.231-2-.318-.174-.023-.337-.038-.512-.059-.536-.064-1.075-.132-1.615-.172-.461-.036-.928-.04-1.391-.059-.464-.018-.923-.029-1.389-.029-.713 0-1.417.017-2.125.059-.627.037-1.257.075-1.881.143-.204.022-.411.063-.615.088-.444.055-.886.103-1.328.172-.212.033-.423.08-.633.117-.109.019-.217.039-.326.059-.823.15-1.636.351-2.453.551-.471.116-.943.217-1.412.348-.219.061-.435.139-.654.203-.612.179-1.228.376-1.838.58-.197.065-.397.135-.594.203-.544.188-1.093.373-1.635.58-.282.107-.559.205-.84.316-.037.014-.084.044-.121.059-.652.262-1.292.528-1.941.813-.015.001-.047.022-.063.029-.435.192-.873.376-1.307.578-.409.19-.799.383-1.207.582-.438.213-.872.442-1.309.664-.225.115-.45.23-.674.348-.43.223-.859.436-1.287.666-.71.383-1.439.787-2.146 1.189-.481.273-.951.556-1.432.838-.303.178-.617.343-.92.523-1.107.66-2.21 1.33-3.313 2.025-.073.047-.13.099-.203.146-.225.142-.449.292-.674.436-1.303.833-2.606 1.687-3.906 2.549-.808.535-1.625 1.079-2.432 1.621-1.414.951-2.818 1.885-4.232 2.842-2.734 1.847-5.472 3.692-8.217 5.445-.173.11-.358.209-.531.318-.898.57-1.799 1.133-2.699 1.682-.11.067-.219.135-.328.201-.777.47-1.55.942-2.33 1.393-.086.049-.18.095-.266.145-.773.445-1.553.884-2.33 1.305-.449.245-.899.489-1.35.725-.517.27-1.035.524-1.553.781-7.01 3.481-14.178 5.824-21.627 5.824-29.804 0-54.922-37.15-84.73-37.15v-.008-.004c-29.804 0-55.03 37.15-84.84 37.15-10.387 0-20.2-4.516-29.848-10.385 1.667 30.29 3.765 60.46 6.969 90.32 2.397 22.34 5.17 44.67 8.664 66.58 4.641 1.648 9.362 2.648 14.215 2.648 29.804 0 55.03-37.15 84.84-37.15 29.804 0 54.924 37.15 84.73 37.15 7.451 0 14.617-2.341 21.625-5.822.518-.257 1.036-.511 1.553-.781.451-.235.9-.48 1.35-.725.776-.42 1.558-.862 2.332-1.307.086-.049.18-.094.266-.145.779-.45 1.553-.92 2.33-1.391.11-.065.217-.135.326-.201.9-.548 1.802-1.114 2.699-1.684.173-.109.36-.207.533-.316 2.746-1.754 5.483-3.6 8.217-5.447 1.414-.956 2.816-1.889 4.23-2.84.807-.542 1.626-1.085 2.434-1.621 1.3-.863 2.6-1.718 3.904-2.551.225-.144.449-.29.674-.434.073-.047.131-.099.205-.146 1.103-.695 2.205-1.367 3.313-2.027.303-.182.615-.345.918-.521.48-.281.95-.566 1.432-.84.707-.401 1.437-.805 2.146-1.188.429-.23.859-.444 1.289-.666.224-.116.45-.235.674-.35.437-.222.869-.45 1.307-.662.408-.199.798-.391 1.207-.582.434-.202.874-.386 1.309-.578.015-.001.045-.022.061-.029.65-.285 1.289-.551 1.941-.813.037-.015.086-.044.123-.059.281-.113.558-.212.84-.318.542-.207 1.088-.389 1.633-.578.196-.068.398-.137.594-.203.61-.203 1.227-.401 1.84-.58.219-.064.435-.142.654-.203.469-.131.939-.232 1.41-.348.817-.2 1.63-.399 2.453-.551.109-.021.219-.039.328-.059.211-.038.421-.083.633-.117.441-.07.886-.118 1.33-.172.203-.025.409-.066.613-.088.624-.068 1.254-.106 1.881-.143.708-.041 1.412-.059 2.125-.059.467 0 .927 0 1.391.027.463.018.928.024 1.389.059.539.04 1.079.112 1.615.174.175.021.338.034.512.059.669.089 1.339.197 2 .318.029.001.052.022.082.027.749.139 1.485.313 2.229.492.022 0 .039-.001.061 0 .11.026.219.06.328.088.654.164 1.313.327 1.961.52.609.18 1.233.378 1.84.582.901.304 1.805.632 2.699.984.051.021.091.038.143.059.11.044.218.098.328.143.751.303 1.503.624 2.25.957.584.262 1.155.533 1.736.811.685.329 1.382.665 2.064 1.016.537.276 1.08.551 1.615.838.874.47 1.725.951 2.596 1.449.872.501 1.751 1.01 2.619 1.535.059.036.123.082.182.117.654.4 1.306.806 1.963 1.217 1.353.848 2.7 1.722 4.049 2.607.108.071.22.132.328.203.073.048.152.096.225.145 2.059 1.358 4.097 2.754 6.152 4.143.522.353 1.054.691 1.574 1.043.254.171.499.35.754.521.941.634 1.899 1.256 2.842 1.883 1.722 1.144 3.444 2.272 5.172 3.361.863.544 1.71 1.071 2.576 1.596 1.572.951 3.16 1.86 4.742 2.723.503.275.986.547 1.49.811.532.278 1.061.546 1.596.811.689.342 1.373.695 2.064 1.014.348.16.716.31 1.064.463.57.252 1.144.462 1.717.695.254.103.501.22.756.318.289.114.59.21.879.318.309.116.615.236.922.357.0001.004.0001.008.002.012.073.026.146.047.219.072.117.045.232.096.35.137.035.013.088.018.123.029.151.051.304.096.455.146.308.102.617.203.926.299.246.076.493.148.74.221.355.104.71.207 1.066.303.161.043.323.083.484.125.414.107.829.21 1.244.305.121.027.242.052.363.078.474.104.949.204 1.426.291 0 0 .002 0 .002 0 2.247.412 4.516.643 6.816.643 1.872 0 3.726-.147 5.564-.422.905-.135 1.807-.301 2.705-.496.009-.002.018-.004.027-.006.898-.195 1.793-.421 2.684-.672 15.305-4.309 29.634-16.492 44.37-25.4.004-.002.008-.004.012-.006.863-.522 1.726-1.033 2.592-1.529.004-.002.008-.004.012-.006.866-.497 1.734-.98 2.604-1.447.004-.002.008-.004.012-.006.87-.468 1.741-.92 2.615-1.354.003-.002.006-.004.001-.006 7.02-3.48 14.182-5.799 21.631-5.799 29.804 0 54.924 37.15 84.73 37.15.989 0 1.974-.043 2.953-.123.007-.0001.014-.0001.022-.002.048-.004.095-.001.143-.014.406-.035.811-.075 1.215-.123.234-.027.468-.06.701-.092.189-.026.378-.05.566-.078.894-.134 1.784-.3 2.67-.492.743-.161 1.481-.359 2.219-.559.203-.055.407-.102.609-.16.85-.242 1.697-.511 2.541-.799.001-.003.019-.006.029-.001.003-.0001.006-.005.001-.006 3.123-1.069 6.21-2.423 9.268-4 .002-.001.002-.02.004-.029.077-.039.154-.075.23-.115.451-.235.9-.48 1.35-.725.776-.42 1.556-.862 2.33-1.307.086-.049.18-.094.266-.145.779-.45 1.555-.92 2.332-1.391.11-.065.217-.135.326-.201.9-.548 1.8-1.114 2.697-1.684.173-.109.36-.207.533-.316 2.746-1.754 5.483-3.6 8.217-5.447 1.414-.956 2.818-1.889 4.232-2.84.807-.542 1.626-1.085 2.434-1.621 1.3-.863 2.6-1.718 3.904-2.551.225-.144.449-.29.674-.434.073-.047.131-.099.205-.146 1.103-.695 2.203-1.367 3.311-2.027.303-.182.617-.345.92-.521.48-.281.95-.566 1.432-.84.707-.401 1.437-.805 2.146-1.188.429-.23.857-.444 1.287-.666.224-.116.45-.235.674-.35.437-.222.871-.45 1.309-.662.408-.199.798-.391 1.207-.582.434-.202.872-.386 1.307-.578.015-.001.047-.022.063-.029.649-.285 1.289-.551 1.941-.813.037-.015.086-.044.123-.059.281-.113.556-.212.838-.318.542-.207 1.09-.389 1.635-.578.196-.068.398-.137.594-.203.61-.203 1.227-.401 1.84-.58.219-.064.435-.142.654-.203.469-.131.939-.232 1.41-.348.817-.2 1.63-.399 2.453-.551.109-.021.217-.039.326-.059.211-.038.423-.083.635-.117.441-.07.884-.118 1.328-.172.203-.025.409-.066.613-.088.624-.068 1.253-.106 1.881-.143.708-.041 1.412-.059 2.125-.059.467 0 .927.002 1.391.029.463.018.93.024 1.391.059.539.04 1.079.112 1.615.174.175.021.336.034.51.059.669.089 1.341.197 2.01.318.029.001.05.022.08.027.749.139 1.485.313 2.229.492.022 0 .039-.001.061 0 .11.026.219.06.328.088.654.164 1.315.327 1.963.52.609.18 1.233.378 1.84.582.901.304 1.805.632 2.699.984.051.021.091.038.143.059.11.044.218.098.328.143.751.303 1.503.624 2.25.957.584.262 1.155.533 1.736.811.685.329 1.382.665 2.064 1.016.537.276 1.08.551 1.615.838.874.47 1.725.951 2.596 1.449.872.501 1.749 1.01 2.617 1.535.059.036.125.082.184.117.654.4 1.306.806 1.963 1.217 1.353.848 2.698 1.722 4.047 2.607.108.071.22.132.328.203.073.048.152.096.225.145 2.059 1.358 4.099 2.754 6.154 4.143.522.353 1.052.691 1.572 1.043.254.171.501.35.756.521.941.634 1.899 1.256 2.842 1.883 1.722 1.144 3.444 2.272 5.172 3.361.863.544 1.708 1.071 2.574 1.596 1.572.951 3.161 1.86 4.744 2.723.503.275.986.547 1.49.811.532.278 1.061.546 1.596.811.689.342 1.373.695 2.064 1.014.348.16.716.31 1.064.463.57.252 1.142.462 1.715.695.254.103.503.22.758.318.289.114.59.21.879.318.499.187.991.406 1.492.578.035.013.086.018.121.029 4.429 1.508 8.933 2.404 13.553 2.404 29.804 0 55.01-37.15 84.81-37.15 29.804 0 54.944 37.15 84.75 37.15 7.914 0 15.496-2.613 22.922-6.453 3.219-20.711 5.817-41.79 8.08-62.867 3.389-31.607 5.541-63.56 7.254-95.64-12.372 8.277-24.835 15.811-38.26 15.811-29.804 0-54.944-37.15-84.75-37.15-29.804 0-55.01 37.15-84.81 37.15-4.618 0-9.123-.899-13.553-2.406-.035-.013-.087-.018-.123-.029-.502-.172-.993-.391-1.492-.578-.289-.108-.59-.206-.879-.318-.254-.1-.501-.215-.756-.318-.573-.234-1.146-.444-1.717-.695-.348-.153-.717-.304-1.064-.463-.692-.318-1.373-.669-2.063-1.012-.533-.264-1.063-.535-1.596-.813-.505-.263-.99-.537-1.492-.811-1.583-.863-3.172-1.772-4.742-2.723-.865-.524-1.713-1.051-2.576-1.596-1.728-1.09-3.449-2.215-5.17-3.359-.942-.626-1.9-1.25-2.842-1.885-.255-.171-.501-.348-.756-.52-.522-.351-1.054-.69-1.574-1.043-2.055-1.389-4.094-2.788-6.152-4.145-.073-.048-.152-.094-.225-.143-.108-.071-.22-.134-.328-.205-1.348-.886-2.693-1.76-4.047-2.607-.654-.41-1.305-.818-1.963-1.217-.059-.036-.125-.082-.184-.117-.869-.525-1.745-1.034-2.617-1.535-.87-.5-1.723-.979-2.598-1.449-.535-.288-1.076-.562-1.613-.838-.682-.349-1.381-.686-2.066-1.014-.582-.279-1.153-.552-1.736-.813-.747-.333-1.499-.654-2.25-.957-.11-.045-.216-.099-.326-.143-.051-.021-.093-.038-.145-.059-.894-.353-1.796-.681-2.697-.984-.606-.203-1.231-.402-1.84-.582-.65-.193-1.308-.356-1.963-.52-.11-.028-.219-.062-.328-.088-.022-.001-.039 0-.06 0-.744-.179-1.479-.353-2.229-.492-.029 0-.052-.022-.082-.027-.665-.122-1.335-.231-2-.318-.174-.023-.335-.038-.51-.059-.536-.064-1.077-.132-1.617-.172-.461-.036-.926-.042-1.389-.06-.464-.018-.923-.029-1.389-.029-.713 0-1.419.017-2.127.059-.627.037-1.257.077-1.881.145-.204.022-.409.063-.613.088-.444.055-.886.103-1.328.172-.212.033-.423.08-.633.117-.109.019-.219.039-.328.059-.823.15-1.636.351-2.453.551-.471.116-.941.217-1.41.348-.219.061-.435.139-.654.203-.612.179-1.23.376-1.84.58-.197.065-.396.135-.592.203-.544.188-1.095.373-1.637.58-.282.107-.557.205-.838.316-.037.014-.084.044-.121.059-.652.262-1.294.528-1.943.813-.015.001-.045.022-.061.029-.435.192-.875.376-1.309.578-.409.19-.797.383-1.205.582-.438.213-.872.442-1.309.664-.225.115-.452.231-.676.348-.43.223-.859.436-1.287.666-.71.383-1.439.787-2.146 1.189-.481.273-.951.556-1.432.838-.303.178-.615.343-.918.523-1.107.66-2.21 1.33-3.313 2.025-.073.047-.13.099-.203.146-.225.142-.451.292-.676.436-1.303.833-2.604 1.687-3.904 2.549-.808.535-1.625 1.079-2.432 1.621-1.414.951-2.818 1.885-4.232 2.842-1.367.924-2.736 1.846-4.105 2.758-1.338.891-2.677 1.768-4.02 2.625-.072.046-.145.089-.217.135-.137.082-.277.162-.41.246-.898.57-1.797 1.133-2.697 1.682-.11.067-.219.135-.328.201-.777.47-1.552.942-2.332 1.393-.086.049-.178.095-.264.145-.773.445-1.553.884-2.33 1.305-.403.22-.809.437-1.213.65-.089.047-.178.092-.268.139-.474.245-.949.481-1.424.717-2.61 1.296-5.242 2.431-7.902 3.35-.041.014-.082.029-.123.043-.785.269-1.573.515-2.363.744-.158.046-.316.091-.475.135-.68.19-1.364.358-2.049.516-.23.053-.461.108-.691.156-.614.131-1.229.239-1.846.342-.325.054-.65.117-.977.162-.134.019-.268.035-.402.053-1.58.204-3.172.318-4.777.318-29.804 0-54.942-37.15-84.75-37.15h-.002v-.004l.002-.006z" stroke-width="5.326"/><path d="M278.33398 628.2793A166.93312 166.93312 0 0 0 117.58203 750.86719 136.34485 166.93312 0 0 0 1.875 671.8457 136.34485 166.93312 0 0 0 -125.42383 779.10156c15.308 39.28 33.372 78.31 58.62 112.07 18.288 24.456 41.649 45.04 65.885 63.62 27.747 21.272 57.961 39.817 89.93 53.969 33.818 14.97 69.917 25.08 106.24 32.09 27.334 5.278 55.35 7.255 83.19 7.35 27.662.094 55.55-1.52 82.71-6.74 36.46-7.01 72.54-17.626 106.46-32.746 31.934-14.235 62.23-32.697 89.98-53.969 24.24-18.58 47.594-39.17 65.883-63.62 25.2-33.7 43.25-72.65 58.54-111.87A136.34485 166.93312 0 0 0 554.79102 671.8457 136.34485 166.93312 0 0 0 439.16406 750.50195 166.93312 166.93312 0 0 0 278.33398 628.2793" stroke-linejoin="round" stroke-linecap="round" stroke-width="5"/></g><path d="m588.16.633c-26.17.053-51.02.198-70.798.478-79.11 1.122-156.7-.214-235.05 0-2.653.007-5.305.036-7.958.043-78.35.214-155.94 1.122-235.05 0-79.11-1.122-239.53 0-239.53 0 0 0 4.995 48.18 6.784 72.32 3.067 41.38 4.256 82.87 6.784 124.29 3.405 55.766 7.902 111.49 11.307 167.25 2.529 41.41 3.91 82.9 6.784 124.29 4.346 62.59 5.02 125.75 15.786 187.56 6.02 34.562 14.418 68.979 27.14 101.67 15.355 39.473 33.473 78.71 58.839 112.63 18.288 24.456 41.648 45.04 65.884 63.62 27.747 21.272 57.962 39.816 89.93 53.968 33.818 14.97 69.917 25.08 106.24 32.09 27.334 5.278 55.35 7.255 83.19 7.349 27.662.094 55.55-1.52 82.71-6.741 36.46-7.01 72.54-17.626 106.46-32.746 31.934-14.235 62.23-32.696 89.98-53.968 24.24-18.58 47.595-39.17 65.884-63.62 25.365-33.919 43.484-73.16 58.839-112.63 12.718-32.695 21.12-67.16 27.14-101.72 10.762-61.814 11.44-124.97 15.786-187.56 2.874-41.39 4.256-82.87 6.784-124.29 3.405-55.766 7.902-111.44 11.307-167.21 2.529-41.41 3.717-82.909 6.784-124.29 1.79-24.14 6.784-72.32 6.784-72.32 0 0-90.24-.636-168.73-.478z" fill="none" stroke-width="20"/></g><g><g><use xlink:href="#0"/><use xlink:href="#5"/><use xlink:href="#1"/><use xlink:href="#3"/><use xlink:href="#2"/></g><g transform="translate(170.06)"><use xlink:href="#0"/><use xlink:href="#5"/><use xlink:href="#1"/><use xlink:href="#3"/><use xlink:href="#2"/></g><g transform="translate(340.12)"><use xlink:href="#0"/><use xlink:href="#5"/><use xlink:href="#1"/><use xlink:href="#3"/><use xlink:href="#2"/></g><g transform="translate(510.17)"><use xlink:href="#0"/><use id="6" xlink:href="#5"/><use xlink:href="#1"/><use xlink:href="#3"/><use xlink:href="#2"/></g><g transform="translate(680.23)"><use xlink:href="#0"/><use xlink:href="#6"/><use xlink:href="#1"/><use xlink:href="#3"/><use xlink:href="#2"/></g></g><g stroke="#000" stroke-linecap="round"><path d="M278.33456 71.05078A124.44179 142.21919 0 0 0 153.8912 213.26953v370.96h248.88v-370.96A124.44179 142.21919 0 0 0 278.33456 71.05078" fill="#fcdd09" stroke-linejoin="round" stroke-width="11"/><g fill="none" fill-rule="evenodd" stroke-width="14"><path d="m210.78 462.58l135.11-97.18"/><path d="m210.78 349.18l135.11-97.18"/><path d="m210.78 235.79l135.11-97.18"/><path d="m231.52 545.04l93.63-66.25"/></g></g><g transform="translate(1002.36)"><path d="m-716.1 1017.16c-3.875-.348-7.81-1.818-10.894-4.19-3.964-3.049-7.02-7.477-8.799-12.152-2.493-6.561-2.438-13.941-2.095-20.951.661-13.515 5.99-26.419 7.961-39.807.858-5.83 3.466-11.985 1.676-17.599-1.234-3.868-4.078-8.03-7.961-9.218-3.046-.929-6.112 1.812-9.218 2.514-6.921 1.564-14.65 7.04-20.951 3.771-4.106-2.127-5.363-7.974-5.866-12.571-.56-5.12-.451-11.611 3.352-15.08 3.223-2.944 8.625-1.756 12.99-1.676 3.398.063 6.658 1.648 10.06 1.676 2.825.023 5.905.104 8.38-1.257 2.429-1.336 4.156-3.832 5.447-6.285 1.547-2.938 2.04-6.351 2.514-9.637.638-4.426-3.16-10.728.419-13.409 3.118-2.336 8.67.072 11.313 2.933 1.636 1.771 1.175 4.714 1.257 7.123.134 3.931-1.58 7.813-1.257 11.732.214 2.601.018 5.963 2.095 7.542 1.89 1.437 4.78.38 7.123 0 3.488-.566 6.53-3.123 10.06-3.352 5.112-.332 11.596-.818 15.08 2.933 2.395 2.575 1.288 6.959 1.257 10.475-.036 4.089-.097 8.38-1.676 12.152-.884 2.113-1.957 4.935-4.19 5.447-3.044.699-5.668-2.641-8.38-4.19-2.456-1.403-4.411-3.808-7.123-4.609-2.545-.752-5.648-1.3-7.961 0-3.279 1.843-4.851 6.02-5.866 9.637-1.282 4.572-1.04 9.613 0 14.247 1.861 8.291 7.335 15.33 10.894 23.05 2.566 5.563 5.948 10.845 7.542 16.761 1.755 6.508 2.241 13.374 2.095 20.11-.082 3.811-.145 7.822-1.676 11.313-1.875 4.275-4.795 8.495-8.799 10.894-2.561 1.535-5.825 1.943-8.799 1.676z" fill="#078930" fill-rule="evenodd" stroke="#000" stroke-linejoin="round" stroke-width="5"/><g><ellipse cx="-724.06" cy="766.59" rx="56.986" ry="110.62" fill="#078930" stroke="#000" stroke-linejoin="round" stroke-linecap="round" stroke-width="11"/><use xlink:href="#4"/></g><g transform="translate(.42)"><g transform="matrix(0 1-1 0 179.59 1621.97)"><ellipse ry="110.62" rx="56.986" cy="766.59" cx="-724.06" fill="#078930" stroke="#000" stroke-linejoin="round" stroke-linecap="round" stroke-width="11"/><use xlink:href="#4"/></g><g transform="matrix(0 1 1 0-1628.55 1621.97)"><ellipse ry="110.62" rx="56.986" cy="766.59" cx="-724.06" fill="#078930" stroke="#000" stroke-linejoin="round" stroke-linecap="round" stroke-width="11"/><use xlink:href="#4"/></g></g><path d="m-737.89 979.87c0 0 4.599-6.551 8.05-8.235 3.763-1.838 8.307-1.702 12.484-1.402 3.311.238 6.777.828 9.637 2.514 4.427 2.609 10.63 11.166 10.63 11.166" fill="none" fill-rule="evenodd" stroke="#000" stroke-linecap="round" stroke-width="5"/></g></g></svg>