<?xml version="1.0" encoding="UTF-8" standalone="no"?><svg xmlns="http://www.w3.org/2000/svg" viewBox="0 0 977.12 1067.6" xmlns:xlink="http://www.w3.org/1999/xlink"><g transform="translate(124.02 11.976)"><path d="m674.36-1.951c-26.17.053-51.02.198-70.798.478-79.11 1.122-156.7-.214-235.05 0-2.653.007-5.305.036-7.958.043-78.35.214-155.94 1.122-235.05 0-79.11-1.122-239.53 0-239.53 0 0 0 4.995 48.18 6.784 72.32 3.067 41.38 4.256 82.87 6.784 124.29 3.405 55.766 7.902 111.49 11.307 167.25 2.529 41.41 3.91 82.9 6.784 124.29 4.346 62.59 5.02 125.75 15.786 187.56 6.02 34.562 14.418 68.979 27.14 101.67 15.355 39.473 33.473 78.71 58.839 112.63 18.288 24.456 41.648 45.04 65.884 63.62 27.747 21.272 57.962 39.816 89.93 53.968 33.818 14.97 69.917 25.08 106.24 32.09 27.334 5.278 55.35 7.255 83.19 7.349 27.662.094 55.55-1.52 82.71-6.741 36.46-7.01 72.54-17.626 106.46-32.746 31.934-14.235 62.23-32.696 89.98-53.968 24.24-18.58 47.595-39.17 65.884-63.62 25.365-33.919 43.484-73.16 58.839-112.63 12.718-32.695 21.12-67.16 27.14-101.72 10.762-61.814 11.44-124.97 15.786-187.56 2.874-41.39 4.256-82.87 6.784-124.29 3.405-55.766 7.902-111.44 11.307-167.21 2.529-41.41 3.717-82.909 6.784-124.29 1.79-24.14 6.784-72.32 6.784-72.32 0 0-90.24-.636-168.73-.478" fill="#0f47af"/><g stroke="#000"><path d="m674.36-1.951c-26.17.053-51.02.198-70.798.478-79.11 1.122-156.7-.214-235.05 0-2.653.007-5.305.036-7.958.043-78.35.214-155.94 1.122-235.05 0-79.11-1.122-239.53 0-239.53 0 0 0 4.995 48.18 6.784 72.32 3.067 41.38 4.256 82.87 6.784 124.29 3.405 55.766 7.902 111.49 11.307 167.25 2.529 41.41 3.91 82.9 6.784 124.29 4.346 62.59 5.02 125.75 15.786 187.56 6.02 34.562 14.418 68.979 27.14 101.67 15.355 39.473 33.473 78.71 58.839 112.63 18.288 24.456 41.648 45.04 65.884 63.62 27.747 21.272 57.962 39.816 89.93 53.968 33.818 14.97 69.917 25.08 106.24 32.09 27.334 5.278 55.35 7.255 83.19 7.349 27.662.094 55.55-1.52 82.71-6.741 36.46-7.01 72.54-17.626 106.46-32.746 31.934-14.235 62.23-32.696 89.98-53.968 24.24-18.58 47.595-39.17 65.884-63.62 25.365-33.919 43.484-73.16 58.839-112.63 12.718-32.695 21.12-67.16 27.14-101.72 10.762-61.814 11.44-124.97 15.786-187.56 2.874-41.39 4.256-82.87 6.784-124.29 3.405-55.766 7.902-111.44 11.307-167.21 2.529-41.41 3.717-82.909 6.784-124.29 1.79-24.14 6.784-72.32 6.784-72.32 0 0-90.24-.636-168.73-.478z" fill="none" stroke-width="20"/><g stroke-linejoin="round" stroke-width="5"><path d="m364.53 55.47c-185.6 0-351.21 85.51-459.62 219.28 1.892 26.706 3.792 53.41 5.469 80.12 96.06-149.15 263.56-247.94 454.16-247.94 190.58 0 358.08 98.78 454.16 247.91 1.677-26.723 3.576-53.42 5.469-80.12-108.42-133.75-274.03-219.25-459.62-219.25z" fill="#da121a"/><path d="m364.53 106.94c-190.58 0-358.08 98.78-454.16 247.91.159 2.532.314 5.062.469 7.594 1.929 31.592 3.203 63.21 4.969 94.81 73.93-174.79 247-297.44 448.72-297.44 201.72 0 374.79 122.65 448.72 297.44 1.768-31.632 3.038-63.28 4.969-94.91.153-2.501.312-5 .469-7.5-96.08-149.13-263.58-247.91-454.16-247.91z" fill="#fcdd09"/><path d="m364.53 159.81c-201.72 0-374.79 122.65-448.72 297.44.549 9.825 1.131 19.652 1.813 29.469 4.346 62.59 5.02 125.75 15.781 187.56.056.323.1.646.156.969-.611-9.397-.906-18.886-.906-28.438 0-238.53 193.35-431.91 431.87-431.91 238.53 0 431.91 193.38 431.91 431.91 0 9.403-.314 18.747-.906 28 .037-.208.089-.417.125-.625 10.762-61.814 11.436-124.97 15.781-187.56.679-9.786 1.265-19.581 1.813-29.375-73.93-174.79-247-297.44-448.72-297.44z" fill="#0f47af"/></g></g><g transform="translate(1077.55)"><g stroke="#000" stroke-linejoin="round" stroke-width="5"><path d="m-713 260c0 0-11.539 24.908-22 32.969-11.927 9.191-29.02 8.381-42.719 14.625-8.131 3.705-17.542 6.512-23.19 13.438-4.879 5.985-7.694 14.255-7.344 21.969.644 14.2 9.403 27.14 17.09 39.09 8.576 13.331 25.1 21.02 31.75 35.406 15.173 32.806 12.425 71.36 14.656 107.44 6.28 101.56-3.046 203.47-3.656 305.22-.09 15.06 2.284 30.3 0 45.19-2.265 14.758-4.145 31.03-13.438 42.719-4.996 6.283-15.08 6.533-20.75 12.219-3.991 4.01-8.481 9-8.563 14.656-.073 5.099 3.249 10.367 7.344 13.406 8.01 5.946 19.704 3.329 29.28 6.125 6.685 1.951 13.148 4.62 19.531 7.406 7.494 3.271 22 10.906 22 10.906 0 0 14.474-7.635 21.969-10.906 6.383-2.786 12.846-5.455 19.531-7.406 9.577-2.796 21.301-.179 29.31-6.125 4.095-3.039 7.386-8.307 7.313-13.406-.081-5.653-4.541-10.651-8.531-14.656-5.665-5.686-15.786-5.936-20.781-12.219-9.293-11.686-11.142-27.961-13.406-42.719-2.284-14.884.09-30.13 0-45.19-.61-101.75-9.968-203.66-3.688-305.22 2.231-36.08-.517-74.63 14.656-107.44 6.654-14.387 23.17-22.08 31.75-35.406 7.691-11.955 16.45-24.894 17.09-39.09.35-7.714-2.434-15.983-7.313-21.969-5.645-6.926-15.09-9.733-23.22-13.438-13.702-6.244-30.791-5.434-42.719-14.625-10.461-8.06-21.969-32.969-21.969-32.969z" fill="#fff"/><path d="m-695.39 303.22c0 0 16.874 9.02 24.12 15.16 8.444 7.151 20.949 13.801 22.05 24.811 1.141 11.369-11.329 19.85-17.23 29.635-7.834 12.992-19.501 24.14-24.12 38.594-15.07 47.13-7.291 98.72-8.959 148.18-1.1 32.604-.723 65.24-.689 97.86.053 50.31-1.377 100.69 1.378 150.93 1.631 29.74-1.41 60.983 8.959 88.91 2.929 7.886 11.944 12.652 14.473 20.676 1.243 3.944 1.634 8.607 0 12.405-2.376 5.523-8.117 9.03-13.09 12.405-2.723 1.845-6.598 1.846-8.959 4.135-2.582 2.503-4.824 9.649-4.824 9.649" fill="none" stroke-linecap="round"/></g><g transform="translate(-3.653)"><path d="m-763.62 698.81c0 0 4.814-136.22-.689-204-.941-11.594-1.507-23.538-5.513-34.459-6.567-17.902-17.764-34.01-29.635-48.932-12.624-15.87-26.441-31.629-43.614-42.41-14.439-9.07-31.31-14.276-48.05-17.545-12.634-2.468-38.594-1.378-38.594-1.378" fill="none" stroke="#000" stroke-linecap="round" stroke-width="5" id="0"/><path d="m-769.82 460.35c0 0-19.483-32.791-29.635-48.932-10.516-16.72-23.419-32.02-32.392-49.621-6.144-12.05-10.52-24.971-14.473-37.905-2.964-9.699-6.892-29.635-6.892-29.635" fill="none" stroke="#000" stroke-linecap="round" stroke-width="5" id="1"/><path d="m-840.16 272.66c-1.749.057-3.496.473-5.188 1.25l-25.688 11.781c-6.767 3.108-9.68 11.03-6.531 17.781l.938 2.031c3.149 6.748 11.139 9.67 17.906 6.563l25.656-11.781c6.767-3.108 9.68-11.03 6.531-17.781l-.938-2.031c-2.361-5.061-7.44-7.983-12.688-7.813zm-86.06 47.719c-5.743-.149-11.154 3.405-13.12 9.125l-9.219 26.719c-2.426 7.04 1.32 14.617 8.375 17l2.094.719c7.05 2.383 14.699-1.366 17.12-8.406l9.188-26.719c2.426-7.04-1.289-14.617-8.344-17l-2.125-.719c-1.323-.447-2.643-.684-3.969-.719z" fill="#fff" stroke="#000" stroke-linejoin="round" stroke-linecap="round" stroke-width="5" id="2"/><g transform="matrix(-1 0 0 1-1418.73 0)"><use xlink:href="#0"/><use xlink:href="#1"/><use xlink:href="#2"/></g></g><g transform="translate(-3.485)"><path d="m-931.78 849.74c0 0-7.323 8.377-12.405 9.649-6.558 1.641-14.442.422-19.986-3.446-5.655-3.945-8.711-11.218-10.338-17.919-1.563-6.44-1.453-13.677.935-19.858 4.101-10.616 12.148-20.2 21.739-26.328 7.625-4.871 17.212-6.713 26.26-6.881 7.705-.144 15.606 1.715 22.567 5.02 6.94 3.296 12.389 9.131 18.1 14.275 8.567 7.724 14.616 18.277 24.12 24.811 5.767 3.964 12.303 8.494 19.297 8.27 6.692-.214 13.191-4.336 17.919-9.08 4.691-4.703 7.425-11.338 8.959-17.801 3.131-13.187 0-27.11 0-40.662 0-45.946.801-91.9 0-137.84-.345-19.766 2.981-40.16-2.068-59.27-2.913-11.03-7.634-22.414-15.851-30.32-10.162-9.783-24.13-17.525-38.22-18.16-12.85-.583-27.15 4.213-36.21 13.34-10.498 10.57-15.562 27.15-15.16 42.04.475 17.701 20.87 31.23 20.676 48.932-.216 19.639-9.877 40.24-24.12 53.757-14.295 13.569-35.427 21.604-55.13 21.365-17.578-.213-36.426-7.655-48.697-20.243-11.282-11.573-18.234-29.09-17.465-45.23.44-9.236 5.626-18.523 12.405-24.811 4-3.713 9.708-5.929 15.16-6.203 6.461-.324 13.754 1.237 18.608 5.513 4.708 4.148 7.088 10.974 7.581 17.23.354 4.5-3.446 13.09-3.446 13.09 0 0-11.17-8.136-17.23-6.892-4.137.849-8.01 4.844-8.959 8.959-1.934 8.378 1.936 18.718 8.398 24.388 4.849 4.254 12.746 5.595 18.961 3.868 8.507-2.363 14.968-10.345 19.505-17.919 4.266-7.122 6.226-15.819 6.203-24.12-.025-9.03-3.431-17.852-6.892-26.19-4.184-10.08-11.4-18.629-16.54-28.26-10.824-20.271-27.516-39.2-30.07-62.04-2.77-24.792 3.814-51.695 16.973-72.888 9.672-15.577 25.972-26.968 42.484-34.941 18.272-8.822 39.25-13.749 59.52-12.769 28.957 1.401 59.793 8.83 82.88 26.366 19.622 14.905 32.695 38.473 40.485 61.85 10.261 30.793 5.176 64.734 6.203 97.18 1.393 43.984-.194 88.01-.059 132.02.116 37.778 3.03 75.62.748 113.33-1.091 18.03-1.481 36.52-6.892 53.757-3.57 11.372-7.715 23.692-16.54 31.703-8.624 7.827-20.773 12.295-32.392 13.09-13.05.898-27.2-2.272-38.04-9.579-9.938-6.696-15.337-18.578-21.23-29.02-8.198-14.529-9.502-32.673-19.297-46.18-5.165-7.12-12-13.54-19.986-17.23-3.588-1.658-7.998-3.161-11.716-1.822-5.125 1.846-10.257 6.813-10.84 12.229-.466 4.331 3.246 8.385 6.39 11.401 3.431 3.291 12.721 6.449 12.721 6.449z" fill="#fff" stroke="#000" stroke-linejoin="round" stroke-width="5" id="3"/><path d="m-993.8 672.72c0 0 17.548 2.117 25.11-1.507 11.01-5.275 19.18-16.183 24.607-27.12 6.506-13.12 8.863-28.568 8.03-43.19-1.455-25.692-25.2-48.22-22.598-73.82 2.087-20.494 14.11-40.689 29.628-54.23 13.09-11.428 31.361-19.575 48.711-18.58 19.583 1.122 38.944 12.683 52.23 27.12 16.461 17.889 22.741 43.584 28.12 67.29 9.534 42.01 5.65 85.993 6.528 129.06.7 34.31.638 68.67-1 102.95-.933 19.467-.355 39.33-5.02 58.25-2.174 8.814-4.568 18.277-10.546 25.11-5.879 6.719-14.207 12.766-23.1 13.559-10.128.903-20.573-4.335-28.624-10.546-10.185-7.857-14.643-21.15-22.1-31.637-5.626-7.914-8.945-18.291-17.07-23.602-5.305-3.466-12.261-4.479-18.58-4.02-5.706.417-11.26 2.929-16.07 6.03-1.99 1.282-5.02 5.02-5.02 5.02" fill="none" stroke="#000" stroke-linecap="round" stroke-width="5" id="4"/><g transform="matrix(-1 0 0 1-1419.06 0)"><use xlink:href="#3"/><use xlink:href="#4"/></g></g><rect ry="32.687" rx="51.934" y="676.32" x="-849.22" height="78.46" width="272.41" fill="#fff" stroke="#000" stroke-linejoin="round" stroke-linecap="round" stroke-width="5"/></g></g></svg>