<?xml version="1.0" encoding="UTF-8" standalone="no"?>
<svg
   xmlns:dc="http://purl.org/dc/elements/1.1/"
   xmlns:cc="http://creativecommons.org/ns#"
   xmlns:rdf="http://www.w3.org/1999/02/22-rdf-syntax-ns#"
   xmlns:svg="http://www.w3.org/2000/svg"
   xmlns="http://www.w3.org/2000/svg"
   xmlns:sodipodi="http://sodipodi.sourceforge.net/DTD/sodipodi-0.dtd"
   xmlns:inkscape="http://www.inkscape.org/namespaces/inkscape"
   viewBox="0 0 726.48236 863.9576"
   version="1.1"
   id="svg1175"
   sodipodi:docname="Wappen_von_Hahnbach.svg"
   inkscape:version="0.92.5 (2060ec1f9f, 2020-04-08)"
   width="726.48236"
   height="863.95758">
  <metadata
     id="metadata1181">
    <rdf:RDF>
      <cc:Work
         rdf:about="">
        <dc:format>image/svg+xml</dc:format>
        <dc:type
           rdf:resource="http://purl.org/dc/dcmitype/StillImage" />
        <dc:title />
      </cc:Work>
    </rdf:RDF>
  </metadata>
  <defs
     id="defs1179">
    <inkscape:path-effect
       effect="spiro"
       id="path-effect877"
       is_visible="true" />
    <inkscape:path-effect
       effect="spiro"
       id="path-effect1010"
       is_visible="true" />
    <inkscape:path-effect
       effect="spiro"
       id="path-effect1006"
       is_visible="true" />
    <inkscape:path-effect
       effect="spiro"
       id="path-effect2866"
       is_visible="true" />
    <inkscape:path-effect
       effect="spiro"
       id="path-effect2795"
       is_visible="true" />
    <inkscape:path-effect
       effect="spiro"
       id="path-effect2512"
       is_visible="true" />
    <inkscape:path-effect
       effect="spiro"
       id="path-effect2512-2"
       is_visible="true" />
    <inkscape:path-effect
       effect="spiro"
       id="path-effect2866-8"
       is_visible="true" />
  </defs>
  <sodipodi:namedview
     pagecolor="#ffffff"
     bordercolor="#666666"
     borderopacity="1"
     objecttolerance="10"
     gridtolerance="10"
     guidetolerance="10"
     inkscape:pageopacity="0"
     inkscape:pageshadow="2"
     inkscape:window-width="1920"
     inkscape:window-height="1046"
     id="namedview1177"
     showgrid="false"
     inkscape:zoom="0.91786913"
     inkscape:cx="363.24119"
     inkscape:cy="431.97879"
     inkscape:window-x="-11"
     inkscape:window-y="-11"
     inkscape:window-maximized="1"
     inkscape:current-layer="svg1175"
     inkscape:snap-midpoints="true"
     inkscape:snap-smooth-nodes="true"
     fit-margin-top="0"
     fit-margin-left="0"
     fit-margin-right="0"
     fit-margin-bottom="0" />
  <path
     style="fill:#fcdd09;fill-opacity:1;fill-rule:evenodd;stroke:none;stroke-width:16;stroke-linecap:round;stroke-linejoin:round;stroke-miterlimit:4;stroke-dasharray:none;stroke-opacity:1"
     d="M 194.26579,16.37545 C 131.24711,22.65344 68.976171,36.48084 8.007981,53.85787 h -0.008 l 9.625,431.29102 C 25.644541,677.32196 173.9404,855.72135 363.24216,855.95745 552.71437,855.84965 700.95176,677.50502 708.85935,485.14889 L 718.4824,53.85787 h -0.008 C 657.50621,36.48084 595.23526,22.65344 532.21658,16.37545 420.12106,5.2083689 306.36093,5.2083689 194.26541,16.37545 Z"
     id="path10563-0-6-2-8-4"
     inkscape:connector-curvature="0"
     sodipodi:nodetypes="acccccccaa" />
  <path
     style="fill:#0f47af;stroke:none;stroke-width:1px;stroke-linecap:butt;stroke-linejoin:miter;stroke-opacity:1;fill-opacity:1"
     d="M 143.83789 672.26953 C 121.30053 672.16714 99.081915 676.58491 76.798828 680.65625 C 97.802452 715.59245 123.73289 747.06761 153.58398 773.38086 C 187.70152 775.52243 221.00713 787.30198 255.24219 787.08594 C 291.59943 786.8565 326.88227 773.0957 363.24023 773.0957 C 399.5982 773.0957 434.883 786.8565 471.24023 787.08594 C 505.55886 787.30251 538.94364 775.46667 573.14844 773.36719 C 602.96748 747.06506 628.86093 715.60527 649.83008 680.68164 C 626.37669 676.3982 602.99579 671.71751 579.24023 672.31836 C 542.89809 673.23756 507.59328 686.53996 471.24023 686.31055 C 434.883 686.08111 399.5982 672.31836 363.24023 672.31836 C 326.88227 672.31836 291.59943 686.08111 255.24219 686.31055 C 218.88914 686.53996 183.58433 673.23756 147.24219 672.31836 C 146.10647 672.28963 144.97194 672.27468 143.83789 672.26953 z "
     id="path2793" />
  <path
     style="fill:#ffffff;stroke:none;stroke-width:1px;stroke-linecap:butt;stroke-linejoin:miter;stroke-opacity:1"
     d="M 165.79102 693.07227 C 160.9751 693.07299 156.16177 693.35851 151.37891 693.93555 C 131.96927 696.27727 113.37592 703.21031 94.302734 707.36719 C 96.213919 710.04917 98.148823 712.71235 100.12109 715.3418 C 124.02864 712.48691 147.05749 702.61839 171.16602 700.34766 C 189.6733 698.60449 208.59438 701.46153 225.76172 708.5918 C 207.53386 698.41571 186.66003 693.06914 165.79102 693.07227 z M 387.05859 693.07227 C 382.24267 693.07299 377.42934 693.35851 372.64648 693.93555 C 347.78606 696.9349 324.26773 707.48756 299.35938 710.05859 C 291.4481 710.87519 283.45228 710.87519 275.54102 710.05859 C 286.74511 714.26857 298.75197 716.33099 310.71875 716.10352 C 338.50968 715.57523 364.75817 702.95417 392.43164 700.34766 C 410.93892 698.60449 429.86196 701.46153 447.0293 708.5918 C 428.80144 698.41571 407.9276 693.06914 387.05859 693.07227 z M 608.32422 693.07227 C 603.5083 693.07299 598.69302 693.35851 593.91016 693.93555 C 569.04974 696.9349 545.53335 707.48756 520.625 710.05859 C 512.71373 710.87519 504.7179 710.87519 496.80664 710.05859 C 508.01074 714.26857 520.0176 716.33099 531.98438 716.10352 C 559.77531 715.57523 586.0238 702.95417 613.69727 700.34766 C 621.47749 699.61485 629.33181 699.70537 637.09766 700.57422 C 637.89178 699.409 638.67245 698.23292 639.45508 697.05859 C 629.30121 694.4239 618.81211 693.07069 608.32422 693.07227 z M 178.90625 712.68555 C 174.81766 712.68616 170.73239 712.92808 166.67188 713.41797 C 147.04002 715.78651 128.39215 723.69416 108.86523 726.54492 C 110.40941 728.45808 111.96976 730.3551 113.54688 732.23633 C 113.73045 732.23411 113.9141 732.24177 114.09766 732.23828 C 137.69141 731.78978 159.97472 721.07614 183.46875 718.86328 C 199.18093 717.38338 215.24767 719.80792 229.82227 725.86133 C 214.34731 717.22211 196.62347 712.68289 178.90625 712.68555 z M 400.17383 712.68555 C 396.08524 712.68616 391.99802 712.92808 387.9375 713.41797 C 366.83168 715.96434 346.86527 724.92273 325.71875 727.10547 C 319.0023 727.79874 312.2145 727.79874 305.49805 727.10547 C 315.01002 730.67962 325.20576 732.4314 335.36523 732.23828 C 358.95898 731.78978 381.2423 721.07614 404.73633 718.86328 C 420.44851 717.38338 436.51523 719.80792 451.08984 725.86133 C 435.61487 717.22211 417.89105 712.68289 400.17383 712.68555 z M 621.44141 712.68555 C 617.35282 712.68616 613.26364 712.92808 609.20312 713.41797 C 588.09731 715.96434 568.1309 724.92273 546.98438 727.10547 C 540.26792 727.79874 533.48208 727.79874 526.76562 727.10547 C 536.2776 730.67962 546.46944 732.4314 556.62891 732.23828 C 579.43191 731.80481 601.01739 721.80575 623.64844 719.13672 C 625.22832 717.07966 626.78992 715.00657 628.33203 712.91602 C 626.03793 712.76439 623.74027 712.6852 621.44141 712.68555 z "
     id="path2864" />
  <path
     style="fill:#da121a;stroke:none;stroke-width:1px;stroke-linecap:butt;stroke-linejoin:miter;stroke-opacity:1;fill-opacity:1"
     d="m 273.749,62.048828 c -1.8289,0.01433 -3.6696,0.144235 -5.43945,0.605469 -1.76984,0.461234 -3.4739,1.269337 -4.8125,2.515625 -0.99664,0.927907 -1.76622,2.071888 -2.71484,3.048828 -0.47431,0.48847 -0.99624,0.936502 -1.58789,1.273438 -0.59165,0.336935 -1.25695,0.559537 -1.9375,0.580078 -0.79242,0.02392 -1.57857,-0.228613 -2.26172,-0.63086 -0.68315,-0.402246 -1.27072,-0.949965 -1.79688,-1.542968 -1.05232,-1.186007 -1.88489,-2.572518 -3.07422,-3.621094 -1.12433,-0.991284 -2.53164,-1.636692 -3.99804,-1.947266 -1.4664,-0.310574 -2.9905,-0.294748 -4.47071,-0.05859 -3.84155,0.612888 -7.29869,2.657803 -10.47461,4.904297 -1.21825,0.861739 -2.41772,1.761966 -3.74023,2.453125 -1.32251,0.69116 -2.79402,1.168421 -4.28516,1.111328 -1.41578,-0.05421 -2.76681,-0.58252 -4.06054,-1.160156 -1.29373,-0.577635 -2.57763,-1.216259 -3.96289,-1.513672 -2.69198,-0.577962 -5.5503,0.21166 -7.86719,1.699219 -2.31689,1.487559 -4.14893,3.622391 -5.72656,5.878906 -0.90414,1.293198 -1.74123,2.642251 -2.35547,4.095703 -0.61425,1.453453 -1.0026,3.017851 -0.98828,4.595704 0.008,0.883688 0.14146,1.764994 0.11914,2.648437 -0.0223,0.883443 -0.21947,1.801204 -0.78711,2.478516 -0.4907,0.5855 -1.21602,0.935527 -1.95899,1.113281 -0.74296,0.177754 -1.51383,0.199171 -2.27734,0.224609 -1.20982,0.04031 -2.42259,0.09575 -3.61133,0.324219 -1.18874,0.22847 -2.35856,0.636703 -3.35351,1.326172 -1.46257,1.013511 -2.485,2.623912 -2.8418,4.367187 -0.16255,0.794174 -0.19239,1.607892 -0.30859,2.410157 -0.11621,0.802264 -0.32786,1.613964 -0.80469,2.269534 -0.60387,0.83023 -1.56392,1.32125 -2.52149,1.6914 -0.95756,0.37015 -1.96148,0.65475 -2.82812,1.20508 -0.75618,0.48019 -1.37668,1.14301 -1.96289,1.82031 -0.58622,0.6773 -1.15078,1.38035 -1.82617,1.96875 -1.44912,1.26248 -3.33015,1.92629 -5.21485,2.30274 -1.88469,0.37644 -3.81078,0.49367 -5.70508,0.81836 -4.10565,0.70371 -8.03923,2.39707 -11.36718,4.90234 -5.84643,4.40117 -9.64274,11.16557 -11.36719,18.27735 -0.90008,3.71198 -1.2753,7.54911 -1.11328,11.36523 1.94945,-2.16186 4.20759,-4.04267 6.68555,-5.57031 4.06741,-2.50754 8.82506,-4.05862 13.5957,-3.78907 3.22107,0.18201 6.33329,1.17197 9.43359,2.06446 3.1003,0.89249 6.29169,1.69963 9.51172,1.5 4.24006,-0.26287 8.23682,-2.2545 12.48047,-2.45117 3.4059,-0.15786 6.93647,0.94685 9.36133,3.34375 1.26493,1.25034 2.20698,2.82359 2.71093,4.52929 0.50396,1.70571 0.56785,3.54032 0.18555,5.27735 -4.79056,-1.93802 -9.9917,-2.85506 -15.15625,-2.67383 -9.8055,0.34409 -19.00692,4.5359 -28.52734,6.9082 -7.84799,1.95557 -16.03191,2.67718 -24.07031,1.7832 -5.8976,-0.65588 -11.8904,-2.27361 -16.49415,-6.01757 -3.29603,-2.68048 -5.7418,-6.38948 -6.9082,-10.47461 -0.98215,3.39022 -1.36215,6.95363 -1.11523,10.47461 0.46806,6.6746 3.34749,13.30368 8.4707,17.60742 2.81079,2.3612 6.21586,3.97416 9.78516,4.83203 3.56929,0.85787 7.29887,0.97147 10.9414,0.51562 10.101,-1.26409 19.11817,-6.74017 28.75196,-10.02929 6.67018,-2.27731 13.68385,-3.51012 20.72656,-3.78907 3.26925,-0.12948 6.54665,-0.0533 9.80664,0.22461 -3.19641,1.46212 -6.19261,3.35851 -8.88086,5.62305 -2.94619,2.48183 -5.52062,5.40513 -7.61133,8.64063 3.56178,0.47887 7.12721,0.92333 10.69727,1.33593 3.48826,0.40316 6.9796,0.77549 10.47461,1.11524 0.76558,0.95028 1.28029,2.1019 1.47461,3.30664 0.19431,1.20474 0.0686,2.46072 -0.35938,3.60351 -0.52877,1.4119 -1.50306,2.62541 -2.65039,3.60352 -1.14733,0.97811 -2.46628,1.73528 -3.8125,2.41406 -5.73814,2.89327 -12.15073,4.51755 -17.38476,8.2461 -3.55875,2.53512 -6.45411,5.99839 -8.29102,9.96289 -1.83691,3.9645 -2.60747,8.42075 -2.18359,12.76953 0.49615,5.09039 2.73453,10.12532 6.68554,13.37305 2.19316,1.80277 4.86564,3.01764 7.66602,3.48437 2.80038,0.46673 5.72156,0.18349 8.38086,-0.81055 -2.75994,3.56905 -6.46832,6.39848 -10.64063,8.11524 -3.60541,1.4835 -7.52514,2.1381 -11.42383,2.13867 -4.81244,7.1e-4 -9.7906,-1.06734 -13.5957,-4.01367 -2.16275,-1.67464 -3.87845,-3.91927 -4.92773,-6.44532 -1.04928,-2.52604 -1.42957,-5.32688 -1.08985,-8.04101 -3.22188,3.43684 -4.95443,8.22487 -4.67968,12.92773 0.19165,3.28051 1.33474,6.49998 3.25585,9.16602 1.92112,2.66604 4.61278,4.76839 7.66407,5.98828 -4.48118,-0.73009 -9.25649,0.61096 -12.70313,3.56641 -2.40365,2.06109 -4.12304,4.79462 -5.68164,7.55078 -1.5586,2.75616 -3.01028,5.60202 -5.01758,8.05078 -2.7158,3.31308 -6.38231,5.78809 -10.37304,7.3457 -3.99074,1.55762 -8.29813,2.22099 -12.58203,2.23828 -7.62023,0.0308 -15.23902,-1.99071 -21.8418,-5.79492 -0.59562,4.73549 0.61797,9.67647 3.3418,13.59571 2.10546,3.02948 5.04537,5.41592 8.25976,7.22656 3.2144,1.81064 6.70927,3.07149 10.24024,4.14062 3.95151,1.19648 7.97205,2.16352 12.03515,2.89649 -1.38953,3.36723 -3.83827,6.2884 -6.91015,8.24609 -4.48938,2.86106 -10.09701,3.57842 -15.37696,2.89844 -3.55954,-0.45842 -7.0425,-1.51879 -10.2539,-3.1211 2.26743,3.29867 4.35351,6.72275 6.24218,10.25196 7.02679,13.1304 11.30478,27.7244 12.48047,42.57031 -7.44435,-1.86714 -15.62606,-0.5796 -22.13672,3.48437 -6.51066,4.06398 -11.26306,10.84951 -12.85546,18.35743 -1.04071,4.90672 -0.771,10.03775 0.37109,14.92187 1.14209,4.88412 3.13768,9.536 5.52148,13.94922 4.7676,8.82644 11.07987,16.73905 15.94922,25.50977 1.5148,2.72845 2.89725,5.56329 3.65821,8.58984 0.76095,3.02655 0.87309,6.27691 -0.12891,9.23242 -1.07302,3.16499 -3.43523,5.87161 -6.42578,7.36328 4.78416,0.30407 9.65839,-1.05441 13.5957,-3.78906 5.16795,-3.58938 8.61112,-9.55404 9.13672,-15.82422 3.99977,4.13053 7.72599,8.5273 11.14453,13.15039 4.11087,5.55937 7.86089,11.66455 8.91406,18.49805 0.85712,5.56135 -0.1791,11.39704 -2.90039,16.32227 3.91618,-0.27964 7.76452,-1.45725 11.16602,-3.41797 4.95953,-2.85883 8.92806,-7.3955 11.125,-12.68164 1.45979,-3.51249 2.14922,-7.34153 2.00586,-11.14258 5.23828,5.18134 11.70905,9.10793 18.72265,11.36523 8.86245,2.85234 18.44417,3.04669 27.18946,6.24024 8.53548,3.11693 15.87116,8.976 21.84375,15.82422 1.56606,1.79566 3.05481,3.67539 4.22656,5.75 1.17175,2.0746 2.02152,4.35948 2.23633,6.73242 0.23587,2.60561 -0.3146,5.27759 -1.56055,7.57812 4.67966,-4.07517 8.31639,-9.33832 10.47461,-15.15625 2.41532,-6.51099 2.96296,-13.70243 1.56055,-20.5039 3.89854,2.71289 8.30858,4.68954 12.92773,5.79492 4.65661,1.11434 9.52325,1.34182 14.26367,0.66797 -0.80824,2.43547 -1.1881,5.01307 -1.11523,7.57812 0.11137,3.92052 1.3263,7.86744 3.78906,10.91992 1.69531,2.10127 3.90882,3.71467 6.12695,5.25391 2.21814,1.53924 4.48783,3.04649 6.35352,4.99805 1.46423,1.53162 2.66669,3.33626 3.37305,5.33398 0.70636,1.99772 0.9023,4.19349 0.41601,6.25586 -0.4469,1.89534 -1.45269,3.62899 -2.72461,5.10352 -1.27192,1.47453 -2.80469,2.70479 -4.40625,3.8125 -2.76722,1.91393 -5.76921,3.48876 -8.91601,4.67968 2.23727,2.1163 5.18302,3.47007 8.24609,3.78907 2.91633,0.30371 5.92437,-0.32946 8.4707,-1.78321 -0.11929,7.91425 -1.32305,15.81177 -3.5664,23.40235 -3.54198,11.9846 -9.60232,23.04175 -14.48633,34.54492 -0.95886,2.25838 -1.87751,4.54356 -3.08789,6.67773 -1.21038,2.13417 -2.73406,4.13154 -4.71289,5.58203 -1.982,1.45282 -4.47336,2.32367 -6.91016,2.00586 -1.52675,-0.19912 -2.97496,-0.85401 -4.21289,-1.76953 -1.23793,-0.91552 -2.27365,-2.08635 -3.14258,-3.35742 -2.81239,-4.11399 -3.85115,-9.14086 -5.57031,-13.81836 -0.93275,-2.53784 -2.09662,-5.09848 -2.00586,-7.80078 0.0481,-1.43114 0.44807,-2.82276 0.77539,-4.2168 0.32732,-1.39404 0.58355,-2.84123 0.33789,-4.25195 -0.19358,-1.11172 -0.69249,-2.15285 -1.32422,-3.08789 -0.63172,-0.93505 -1.39569,-1.77304 -2.16601,-2.59766 -0.56008,-0.59955 -1.12852,-1.19689 -1.7832,-1.6914 -0.65469,-0.49452 -1.40367,-0.8862 -2.21289,-1.02149 -0.95369,-0.15943 -1.93071,0.0432 -2.85938,0.3125 -0.92867,0.26926 -1.84366,0.60753 -2.80273,0.73047 -1.2656,0.16224 -2.55514,-0.0607 -3.77539,-0.43359 -1.22026,-0.37288 -2.38831,-0.89384 -3.58008,-1.34961 -3.75792,-1.43715 -7.79507,-2.22396 -11.8125,-2.00586 -3.13314,0.17009 -6.27947,0.97459 -8.91602,2.67578 -2.86877,1.85103 -5.04384,4.75113 -6.01758,8.02344 2.61178,1.65825 5.93266,2.15492 8.91602,1.33593 1.3048,-0.35819 2.53263,-0.94952 3.81445,-1.38281 1.28183,-0.43328 2.6686,-0.70764 3.98633,-0.40039 0.79736,0.18592 1.56155,0.59938 2.05859,1.25 0.24852,0.32531 0.42603,0.70674 0.5,1.10938 0.074,0.40263 0.0418,0.8258 -0.10742,1.20703 -0.23216,0.59329 -0.72395,1.0446 -1.22851,1.43359 -0.50456,0.389 -1.04476,0.74676 -1.44532,1.24219 -0.3507,0.43377 -0.57987,0.95749 -0.70117,1.50195 -0.1213,0.54446 -0.13903,1.10974 -0.0976,1.66602 0.0828,1.11254 0.39902,2.19345 0.57617,3.29492 0.11747,0.73042 0.17369,1.47421 0.37695,2.18555 0.20326,0.71134 0.57328,1.4052 1.18164,1.82617 0.60012,0.41527 1.3706,0.5201 2.09766,0.45703 0.72706,-0.0631 1.42886,-0.27946 2.13672,-0.45703 1.96873,-0.49389 3.99768,-0.69294 6.01757,-0.89258 1.48602,-0.14687 2.97332,-0.29502 4.45899,-0.44531 -0.5498,2.25563 -0.777,4.59095 -0.66992,6.91015 0.12715,2.75413 0.72175,5.50274 0.44726,8.2461 -0.0663,0.66295 -0.18496,1.32486 -0.42773,1.94531 -0.24277,0.62045 -0.61593,1.2007 -1.13281,1.62109 -0.62802,0.51078 -1.44451,0.76215 -2.25391,0.77539 -0.8094,0.0132 -1.6125,-0.20183 -2.3457,-0.54492 -1.46641,-0.68618 -2.63977,-1.85276 -3.86914,-2.90625 -4.16864,-3.57224 -9.22771,-6.00816 -14.48829,-7.57812 -5.49028,-1.63851 -11.21631,-2.36407 -16.9375,-2.67383 -2.49719,-0.13521 -5.01368,-0.1915 -7.49023,0.15625 -2.47655,0.34775 -4.92725,1.11542 -6.99805,2.51758 -2.32967,1.57744 -4.09418,3.91263 -5.21289,6.49414 -1.1187,2.58151 -1.61346,5.4045 -1.69531,8.21679 -0.15062,5.17506 1.09372,10.38306 3.56641,14.93165 1.40935,-2.23016 2.82063,-4.45818 4.23437,-6.68555 0.90697,-1.42894 1.82132,-2.8654 2.9668,-4.11133 1.14547,-1.24593 2.54535,-2.30268 4.16406,-2.79687 2.26449,-0.69136 4.86113,-0.1708 6.6875,1.33593 0.83347,0.68761 1.49917,1.55174 2.17774,2.39258 0.67856,0.84085 1.38833,1.67779 2.27929,2.28906 1.63406,1.12112 3.7218,1.37199 5.69922,1.24219 1.97742,-0.1298 3.91835,-0.60402 5.89063,-0.79687 4.2321,-0.41382 8.59554,0.51287 12.25781,2.67382 1.72454,1.01759 3.29983,2.30185 5.12695,3.1211 2.28779,1.0258 4.91825,1.2644 7.35352,0.66797 -1.86549,1.34527 -3.88983,2.47056 -6.01758,3.34375 -4.78962,1.96555 -10.00057,2.6262 -15.1543,3.11914 -3.25132,0.31098 -6.52972,0.56561 -9.68164,1.42187 -3.15192,0.85627 -6.21203,2.36955 -8.37109,4.82032 -1.98519,2.25339 -3.10902,5.24299 -3.1211,8.24609 -0.0109,2.70379 0.84452,5.34973 2.04297,7.77344 1.19845,2.4237 2.73698,4.65998 4.19727,6.93554 2.80388,4.36927 5.33663,8.91297 7.57812,13.59571 0.0908,-3.41962 0.23896,-6.83736 0.44532,-10.25196 0.0966,-1.5985 0.20747,-3.20338 0.55078,-4.76758 0.34331,-1.56419 0.92935,-3.09765 1.90039,-4.37109 0.56235,-0.73748 1.25321,-1.38217 2.05078,-1.85547 0.79756,-0.4733 1.70462,-0.77139 2.63086,-0.81836 1.43209,-0.0726 2.82139,0.44615 4.14648,0.99414 1.3251,0.54799 2.66867,1.1418 4.09961,1.23438 1.94997,0.12615 3.87921,-0.71893 5.34961,-2.00586 1.90306,-1.66561 3.12317,-4.02677 5.125,-5.57227 2.14,-1.65216 4.93583,-2.18778 7.63477,-2.3457 2.69894,-0.15792 5.42879,0.01 8.09179,-0.45703 3.24573,-0.56862 6.26771,-2.06135 9.01368,-3.88281 2.24722,-1.49064 4.34154,-3.21202 6.24023,-5.12696 1.76401,2.03256 3.79222,3.83607 6.01758,5.34961 1.94877,1.32544 4.11676,2.44984 6.46289,2.67383 1.2048,0.11503 2.42062,-0.0108 3.6289,0.0586 0.60415,0.0347 1.2088,0.11835 1.78516,0.30274 0.57636,0.18439 1.12647,0.47164 1.57227,0.88086 0.6163,0.56574 1.00821,1.33873 1.27734,2.13086 0.26913,0.79212 0.42696,1.61621 0.65234,2.42187 0.36899,1.31899 0.92545,2.59636 1.74024,3.69727 0.81478,1.10091 1.89602,2.02058 3.16211,2.54297 1.1451,0.47246 2.40222,0.60984 3.64062,0.63867 1.23841,0.0288 2.47842,-0.0445 3.71485,0.0312 1.07632,0.0659 2.15223,0.2464 3.1582,0.63477 1.00597,0.38836 1.94213,0.99157 2.63672,1.8164 0.61746,0.73325 1.03079,1.62391 1.27539,2.55078 0.2446,0.92687 0.32489,1.89101 0.32422,2.84961 -0.001,1.91721 -0.32185,3.82788 -0.26172,5.74414 0.0551,1.75753 0.43379,3.5032 1.11328,5.125 3.89975,-2.25297 7.33465,-5.30534 10.0293,-8.91406 1.60046,-2.14337 2.94795,-4.49459 3.80859,-7.02734 0.86064,-2.53275 1.22563,-5.25461 0.87305,-7.90625 -0.45816,-3.44563 -2.18496,-6.74902 -4.9043,-8.91407 -1.28476,-1.02288 -2.79523,-1.81373 -3.78906,-3.12109 -0.75867,-0.998 -1.15118,-2.21746 -1.61328,-3.38281 -0.4621,-1.16536 -1.04207,-2.34477 -2.04297,-3.09961 -0.67091,-0.50598 -1.48803,-0.78484 -2.3125,-0.94727 -0.82447,-0.16242 -1.66598,-0.21573 -2.5,-0.31836 -2.39611,-0.29484 -4.74128,-0.99828 -6.91016,-2.05859 -2.8292,-1.38312 -5.33668,-3.35819 -7.57617,-5.57227 -0.89051,-0.8804 -1.74909,-1.80977 -2.38476,-2.88867 -0.63568,-1.0789 -1.04067,-2.32464 -0.95899,-3.57422 0.0533,-0.81588 0.31186,-1.61185 0.69531,-2.33398 0.38345,-0.72214 0.889,-1.37321 1.44922,-1.96875 1.12045,-1.19107 2.45496,-2.1596 3.65039,-3.27539 1.54316,-1.44036 2.84585,-3.11616 4.33203,-4.61524 1.48618,-1.49907 3.21613,-2.85019 5.25196,-3.4082 2.09212,-0.57344 4.30973,-0.2641 6.46289,0 4.43682,0.5442 8.90298,0.8784 13.37304,0.89063 2.66917,0.007 5.35546,-0.10112 7.96289,-0.67188 2.60744,-0.57076 5.1461,-1.62486 7.19141,-3.33984 2.05396,-1.72224 3.55534,-4.09253 4.23438,-6.68555 -2.88777,0.38272 -5.78608,0.68113 -8.69141,0.89258 -2.38398,0.1735 -4.78128,0.28859 -7.16211,0.0762 -2.38083,-0.21242 -4.7553,-0.76221 -6.87891,-1.85937 -2.32878,-1.20317 -4.3116,-3.0567 -5.70117,-5.2793 -1.38956,-2.22261 -2.18581,-4.80811 -2.32226,-7.42578 -0.2514,-4.82279 1.67742,-9.47515 3.78906,-13.81836 2.92766,-6.0216 6.28182,-11.83614 10.0293,-17.38477 1.28081,2.26235 2.94531,4.30622 4.90234,6.01758 2.62447,2.29502 5.7753,3.98633 9.13867,4.9043 0.23614,-3.3306 -0.30249,-6.71376 -1.56054,-9.80664 -0.76954,-1.89188 -1.80198,-3.67239 -2.5,-5.5918 -0.69803,-1.91941 -1.0447,-4.06124 -0.39649,-5.99805 0.32717,-0.97756 0.91643,-1.88448 1.75195,-2.48828 0.83553,-0.6038 1.92696,-0.87806 2.92774,-0.63086 0.93279,0.23041 1.71678,0.88458 2.28125,1.66211 0.56447,0.77754 0.93501,1.67751 1.28515,2.57227 0.70393,1.79883 1.35144,3.62266 2.20508,5.35547 0.85364,1.7328 1.92766,3.38577 3.36719,4.67382 1.60903,1.43972 3.65542,2.38346 5.79492,2.67383 -1.60318,-3.81668 -3.0914,-7.68254 -4.45898,-11.58984 -2.1379,-6.10815 -4.00384,-12.48681 -3.56446,-18.94336 0.22425,-3.29526 1.07878,-6.60362 2.89649,-9.36133 1.34468,-2.04006 3.20054,-3.74175 5.34961,-4.9043 3.20305,3.39725 5.71823,7.4391 7.35351,11.8125 1.93156,5.16577 2.62686,10.79127 2.00782,16.27149 2.60777,-3.70741 4.71282,-7.76756 6.24023,-12.03516 2.21627,-6.19227 3.2058,-12.82097 2.89649,-19.39062 3.18098,4.83795 6.37586,9.66633 9.58398,14.48632 9.14433,13.73878 18.41923,27.43032 28.97461,40.11719 7.99487,9.60932 16.75928,18.6933 23.17773,29.41992 2.7514,4.59818 5.08581,9.59724 5.57227,14.9336 0.24781,2.71843 -0.005,5.52863 -1.11328,8.02344 -0.95868,2.15893 -2.54724,4.02905 -4.50586,5.34961 -1.95863,1.32055 -4.28047,2.09084 -6.63867,2.22851 -3.45086,0.20146 -6.87144,-0.92999 -9.89063,-2.61328 -3.01918,-1.6833 -5.69721,-3.90614 -8.38476,-6.08008 -3.23525,-2.61695 -6.58147,-5.22147 -10.47657,-6.68555 -0.85502,-0.32138 -1.73553,-0.58747 -2.64258,-0.69531 -0.90704,-0.10784 -1.8432,-0.0525 -2.70507,0.25 -1.0804,0.37925 -1.99071,1.12477 -2.81836,1.91602 -0.82766,0.79124 -1.60379,1.64687 -2.53125,2.31836 -1.61463,1.169 -3.60034,1.71417 -5.57227,2.00586 -1.59055,0.23527 -3.20077,0.31926 -4.79101,0.55664 -1.59024,0.23738 -3.18219,0.63784 -4.57032,1.44922 -2.25426,1.31764 -3.79299,3.63388 -4.64648,6.10156 -0.85349,2.46767 -1.08725,5.10248 -1.24219,7.70898 -0.35749,6.01414 -0.32476,12.05049 0.0957,18.06055 1.98031,-2.82251 4.06199,-5.57336 6.24023,-8.24609 1.05723,-1.29725 2.14371,-2.58314 3.41797,-3.66797 1.27425,-1.08483 2.7534,-1.96802 4.38281,-2.34961 1.69759,-0.39756 3.51656,-0.22758 5.125,0.44531 1.46931,0.61468 2.73539,1.61876 3.99023,2.59961 1.25485,0.98085 2.54299,1.96523 4.03321,2.52734 1.96974,0.743 4.13518,0.69384 6.24023,0.66797 5.49731,-0.0676 10.9971,0.0866 16.49414,0 4.39415,-0.0692 8.78552,-0.2916 13.16407,-0.66797 -4.10883,1.47247 -8.07651,3.33963 -11.82813,5.57032 -2.94716,1.75235 -5.76714,3.73332 -8.30664,6.03711 -0.94768,0.85971 -1.86194,1.77371 -2.56055,2.8457 -0.6986,1.07199 -1.17508,2.32009 -1.16797,3.59961 0.007,1.25525 0.46891,2.45584 0.83594,3.65625 0.18352,0.6002 0.3462,1.21024 0.41602,1.83398 0.0698,0.62374 0.0454,1.26264 -0.13672,1.86328 -0.21817,0.71964 -0.65741,1.35921 -1.18945,1.89063 -0.53205,0.53142 -1.15643,0.96263 -1.79883,1.35351 -1.28481,0.78177 -2.68293,1.44036 -3.69727,2.55078 -0.82458,0.9027 -1.34341,2.06146 -1.57617,3.26172 -0.23276,1.20026 -0.18953,2.44316 0.0156,3.64844 0.41952,2.46465 1.50454,4.77746 2.87696,6.86719 1.37242,2.08973 3.03173,3.9749 4.70117,5.83594 2.7032,3.01344 5.45211,5.98655 8.24609,8.91601 0.7821,-4.10512 1.00702,-8.31724 0.66797,-12.48242 -0.14887,-1.82891 -0.40546,-3.66092 -0.26172,-5.49023 0.14374,-1.82932 0.73633,-3.69805 2.04493,-4.98438 0.7164,-0.70421 1.61233,-1.20073 2.53515,-1.59766 0.92283,-0.39692 1.88236,-0.70153 2.81445,-1.07617 1.6306,-0.65539 3.18358,-1.53051 4.50977,-2.68359 1.32619,-1.15308 2.42171,-2.59249 3.06836,-4.22656 0.6841,-1.7287 0.85341,-3.62745 1.55859,-5.34766 0.70586,-1.72185 1.92132,-3.19236 3.27735,-4.4668 1.35602,-1.27443 2.86261,-2.37568 4.30078,-3.55664 3.65828,-3.00401 6.86564,-6.5209 10.47461,-9.58398 1.70026,-1.44309 3.48817,-2.78353 5.34961,-4.01172 0.16719,2.08676 0.0168,4.19842 -0.44531,6.24023 -0.47229,2.08684 -1.26512,4.08765 -1.78907,6.16211 -0.52395,2.07447 -0.77158,4.29163 -0.14648,6.33789 0.66057,2.16237 2.21704,3.91093 3.49609,5.77539 1.73437,2.52818 3.00107,5.35158 4.01172,8.2461 1.34026,3.8385 2.2466,7.82804 3.78906,11.58984 1.92113,4.68531 4.82462,8.96434 8.46875,12.48047 0.98455,-5.13228 1.35838,-10.3795 1.11328,-15.59961 -0.11813,-2.51609 -0.3789,-5.04279 -0.125,-7.54883 0.25391,-2.50603 1.07976,-5.04582 2.83789,-6.84961 1.63789,-1.68041 3.94912,-2.59478 5.53516,-4.32421 1.26072,-1.3747 1.98991,-3.27318 1.7832,-5.12696 -0.15069,-1.35146 -0.77224,-2.60697 -1.50586,-3.75195 -0.73361,-1.14498 -1.58823,-2.21007 -2.2832,-3.37891 -2.15942,-3.63181 -2.64226,-8.12077 -1.7832,-12.25781 0.85501,-4.11758 3.02749,-7.98559 6.24023,-10.69922 3.47743,-2.9372 7.97547,-4.41693 12.47071,-5.13281 4.49524,-0.71588 9.06908,-0.73208 13.60546,-1.10742 1.88338,-0.15583 3.76696,-0.37396 5.65626,-0.33008 1.88929,0.0439 3.80534,0.36294 5.48828,1.22266 2.66916,1.36351 4.54087,4.02155 5.34765,6.9082 0.52784,1.88861 0.63024,3.93796 0,5.79492 -0.44457,1.3099 -1.24776,2.49556 -2.30078,3.39258 -1.05302,0.89701 -2.35288,1.50371 -3.7168,1.73437 3.23666,0.67959 6.64499,0.52315 9.80665,-0.44726 2.23932,-0.68732 4.36218,-1.78419 6.15234,-3.29492 1.79015,-1.51074 3.24069,-3.43987 4.09961,-5.61915 0.80313,-2.03773 1.08194,-4.25809 1.01172,-6.44726 -0.0702,-2.18917 -0.48121,-4.35539 -1.01172,-6.48047 -1.5801,-6.32948 -4.33968,-12.50891 -8.91406,-17.16016 -3.87865,-3.94381 -9.1775,-6.70117 -14.70899,-6.6875 -3.58881,0.009 -7.10971,1.16822 -10.2539,2.89844 -5.51427,3.03444 -9.93399,7.75938 -15.37696,10.91992 -3.97379,2.30745 -8.57337,3.75146 -13.15039,3.34375 -4.58458,-0.40837 -8.88383,-2.6642 -12.25781,-5.79492 -2.63782,-2.44763 -4.82642,-5.57844 -5.34961,-9.13867 -0.38706,-2.63388 0.20301,-5.43371 1.7832,-7.57617 1.30138,-1.76444 3.1851,-3.01035 5.11914,-4.04297 1.93405,-1.03262 3.96304,-1.89422 5.80078,-3.08984 2.93481,-1.90937 5.30479,-4.64347 6.91602,-7.75196 1.61123,-3.10849 2.47504,-6.58219 2.66797,-10.07812 0.16116,-2.9202 -0.14005,-5.86472 -0.89063,-8.69141 -1.42719,3.01282 -3.08798,5.91398 -4.96093,8.67188 -2.16754,3.19165 -4.65041,6.21895 -7.72852,8.54492 -2.72955,2.06258 -5.91499,3.54465 -9.2793,4.16601 -3.36431,0.62137 -6.90422,0.36809 -10.09765,-0.85937 -3.34152,-1.28438 -6.22261,-3.58895 -8.58203,-6.28125 -2.35943,-2.69231 -4.23134,-5.77323 -5.9668,-8.9043 -7.52319,-13.57312 -12.74581,-28.40994 -21.2832,-41.36914 -2.93421,-4.45393 -6.24366,-8.65929 -9.88477,-12.55664 2.82263,0.82183 5.75228,1.27329 8.69141,1.33789 3.92762,0.0863 7.86978,-0.52031 11.58984,-1.7832 -3.11536,-2.82852 -6.23616,-5.65302 -9.36133,-8.4707 -3.63371,-3.2762 -7.27301,-6.54319 -10.91992,-9.80469 2.85071,-1.79011 5.92814,-3.21847 9.13672,-4.23633 4.03005,-1.27846 8.2536,-1.90896 12.48047,-2.00586 9.97079,-0.22859 19.82409,2.49786 28.97461,6.46484 6.4784,2.80856 12.68266,6.24709 18.49804,10.25196 -0.32239,-4.99115 -1.78108,-9.90514 -4.23437,-14.26368 -1.42498,-2.53163 -3.21057,-4.95383 -3.78906,-7.80078 -0.44142,-2.17232 -0.12043,-4.49312 0.89258,-6.46484 3.88467,0.76458 7.58216,2.46064 10.69726,4.9043 3.91908,3.07433 6.86346,7.27402 8.91602,11.8125 2.15201,4.75838 3.37086,9.93751 3.5664,15.15625 3.23018,-4.94286 4.52758,-11.1138 3.56446,-16.93946 -0.57842,-3.49867 -1.93957,-6.94896 -1.5586,-10.47461 0.19692,-1.82234 0.90118,-3.64021 2.22852,-4.90429 1.05751,-1.00712 2.45916,-1.61267 3.90234,-1.83594 1.44318,-0.22327 2.92732,-0.0801 4.34375,0.27539 4.3695,1.09647 8.02086,4.1299 10.91992,7.57813 3.59837,4.28 6.27649,9.33104 7.80078,14.71093 1.61954,-4.77774 2.00769,-9.96838 1.11524,-14.93359 -0.64127,-3.56774 -1.92273,-6.98348 -2.89844,-10.47461 -0.46686,-1.67045 -0.86679,-3.40393 -0.66797,-5.12695 0.11947,-1.03532 0.46299,-2.05541 1.07032,-2.90235 0.60732,-0.84693 1.48855,-1.51086 2.49609,-1.77734 0.8646,-0.22867 1.79272,-0.16081 2.64648,0.10547 0.85377,0.26627 1.6381,0.72312 2.35352,1.25976 1.43084,1.0733 2.59682,2.46552 4.00195,3.57227 1.95963,1.5435 4.35498,2.49583 6.82227,2.86328 3.19752,0.47621 6.47383,-0.0106 9.58398,-0.89258 2.73022,-0.77422 5.38256,-1.85663 7.80078,-3.34179 2.74967,-1.68872 5.18049,-3.89415 7.13086,-6.46485 -3.28526,0.34405 -6.63728,0.0402 -9.80664,-0.89062 -4.85721,-1.42654 -9.38344,-4.47449 -11.8125,-8.91602 -2.27104,-4.15259 -2.54124,-9.08618 -2.45117,-13.81836 0.41008,-21.54609 7.19873,-42.46722 15.37891,-62.4043 4.11777,-10.03601 8.60234,-19.91608 12.92578,-29.86523 3.58076,-8.24009 7.05186,-16.5294 10.69922,-24.74023 4.30832,-9.69879 9.12776,-19.63175 17.38476,-26.29883 2.26603,-1.8297 4.7707,-3.38602 7.48828,-4.4336 2.71759,-1.04757 5.65412,-1.57737 8.5586,-1.36132 2.98391,0.22196 5.89025,1.23091 8.4375,2.80078 2.54725,1.56987 4.73806,3.69259 6.49414,6.11523 3.03765,4.19067 4.77233,9.3122 4.90429,14.48633 2.76692,-4.49103 4.66943,-9.51186 5.57227,-14.70898 0.6528,-3.75778 0.78291,-7.62747 0.13867,-11.38672 -0.64423,-3.75925 -2.08155,-7.40956 -4.375,-10.45703 -2.44715,-3.25172 -5.82229,-5.75203 -9.54492,-7.39649 -3.72263,-1.64445 -7.78391,-2.45325 -11.84961,-2.63281 -8.55707,-0.37793 -17.30263,2.10777 -24.07227,7.35547 -5.92151,4.59025 -10.11711,11.01693 -13.88281,17.49414 -3.7657,6.4772 -7.26039,13.19478 -12.19336,18.83398 -4.69461,5.36673 -10.53686,9.57835 -16.26953,13.81836 -12.3808,9.15711 -24.49644,18.67292 -36.32812,28.5293 10.97134,-8.79816 20.19042,-19.77066 26.96679,-32.09375 5.60046,-10.18464 9.51428,-21.20799 12.92774,-32.31836 4.1533,-13.51845 7.84643,-27.72379 16.9375,-38.55664 2.9216,-3.48136 6.37009,-6.54716 10.29883,-8.83203 3.92874,-2.28488 8.34724,-3.77643 12.88086,-4.09571 8.01876,-0.56471 16.22303,2.73504 21.61914,8.69336 0.0349,-3.5309 -0.4171,-7.06765 -1.33789,-10.47656 -1.04809,-3.88016 -2.7153,-7.61441 -5.10547,-10.8457 -2.39018,-3.23129 -5.51805,-5.94841 -9.15821,-7.65235 -5.28514,-2.47394 -11.34653,-2.71035 -17.16211,-2.22851 -11.31145,0.93719 -22.74832,4.66439 -30.97851,12.48047 -8.60572,8.17271 -12.84,19.84134 -16.26953,31.20312 -3.49722,11.58602 -6.5068,23.45209 -12.25977,34.09961 -4.24299,7.85289 -9.9391,14.91817 -16.71484,20.72852 6.48367,-5.942 11.56192,-13.40688 14.70898,-21.61914 3.44672,-8.99423 4.55767,-18.69216 5.42383,-28.28516 0.86616,-9.593 1.53045,-19.28273 4.16016,-28.54883 2.15854,-7.6059 5.66834,-14.88875 10.74804,-20.94726 5.07971,-6.05852 11.77529,-10.85311 19.33985,-13.15235 6.11124,-1.8575 12.60563,-2.06383 18.98633,-1.77343 6.38069,0.29039 12.73979,1.06309 19.12695,1.10546 7.19735,0.0478 14.57604,-0.89165 20.94922,-4.23632 4.99812,-2.62304 9.22544,-6.69228 12.03515,-11.58789 -6.76157,1.64979 -13.79421,2.17766 -20.72656,1.55859 -16.18447,-1.44531 -31.45545,-9.04259 -47.69531,-9.58399 -14.97471,-0.49921 -30.11532,5.42011 -40.56445,16.15821 -9.69575,9.96387 -15.11493,23.54927 -16.9375,37.33203 -1.5734,11.89843 -0.63849,24.05693 -2.67579,35.88476 -1.06974,6.2106 -2.97162,12.31301 -6.01757,17.83008 -3.10277,5.61998 -7.38137,10.58628 -12.48047,14.48633 5.0724,-7.21236 8.25295,-15.74278 9.13867,-24.51562 1.65869,-16.42897 -4.58601,-32.75337 -4.01172,-49.25586 0.60539,-17.39614 8.93901,-33.98255 20.94922,-46.58203 5.94562,-6.23734 12.83128,-11.63747 20.55273,-15.4629 7.72146,-3.82542 16.29768,-6.0461 24.91407,-5.93359 12.88722,0.16828 25.08902,5.4304 37.66601,8.24609 6.28328,1.40668 12.74316,2.20758 19.16797,1.78321 4.94658,-0.32674 9.84384,-1.38054 14.48633,-3.11914 -6.43434,0.067 -12.87877,-1.31412 -18.7207,-4.01172 -7.00647,-3.23534 -13.01354,-8.25764 -19.61329,-12.25781 -11.43565,-6.93126 -24.74025,-10.7463 -38.11132,-10.92188 -13.91188,-0.18267 -27.82049,3.5649 -39.89649,10.47461 -15.25563,8.72906 -27.56283,22.55655 -34.32226,38.78125 -6.28958,15.09691 -7.75827,31.79091 -7.35547,48.14063 0.33751,13.69976 1.92275,27.55295 -0.66797,41.00976 -1.38372,7.18739 -3.95525,14.14403 -7.57813,20.50391 4.05787,-9.89447 5.68006,-20.77825 4.68164,-31.42578 -1.75237,-18.68802 -11.33703,-36.07888 -12.25976,-54.82618 -0.95087,-19.31897 7.54897,-38.14873 19.61328,-53.26757 12.37447,-15.50753 28.53964,-27.83104 46.35938,-36.55274 15.07774,-7.37966 31.57776,-12.27014 48.36328,-12.48047 13.02138,-0.16316 26.17916,2.55664 37.66601,8.69141 13.85114,7.39746 24.73437,19.39507 33.6543,32.31836 13.81748,20.01892 23.58136,42.82275 28.5293,66.63867 -2.88663,-23.91941 -9.2259,-47.41855 -18.75977,-69.54492 -7.00643,-16.26063 -16.03777,-32.15314 -29.66406,-43.458986 -15.31762,-12.709153 -35.4114,-18.631899 -55.28516,-19.720703 -31.14133,-1.706108 -62.78431,8.085657 -87.51953,27.082029 -21.89698,17.84771 -37.36826,43.41869 -43.01563,71.09766 -4.70495,23.06001 -2.78114,47.20152 -8.6914,69.98242 -4.17438,16.09001 -12.18903,31.2026 -14.26367,47.69531 -1.10192,8.75992 -0.47792,17.70992 1.55859,26.30078 1.95226,8.23548 5.19899,16.16314 9.58398,23.40235 -8.68857,-8.40678 -18.26804,-15.89282 -28.52734,-22.28906 -12.442,-7.75707 -26.19055,-13.99272 -40.78711,-15.37696 -11.72468,-1.11189 -23.75225,0.92114 -35.21484,-1.7832 -2.88587,-0.68086 -5.77067,-1.69552 -8.04688,-3.5957 -1.1381,-0.9501 -2.10697,-2.11729 -2.75,-3.45313 -0.64303,-1.33584 -0.95032,-2.84439 -0.79101,-4.31836 0.15521,-1.43605 0.75299,-2.81507 1.66211,-3.9375 0.90911,-1.12242 2.12207,-1.98823 3.46289,-2.52539 2.31122,-0.92592 4.87822,-0.86556 7.35547,-1.11523 0.78435,-0.079 1.57273,-0.19195 2.31445,-0.45899 0.74172,-0.26703 1.43969,-0.69905 1.91992,-1.32422 0.57469,-0.74813 0.7961,-1.73919 0.66797,-2.67382 -0.0869,-0.63404 -0.32968,-1.24869 -0.71484,-1.75977 -0.38517,-0.51108 -0.91332,-0.91702 -1.51368,-1.13867 -0.92551,-0.34171 -1.9552,-0.23574 -2.91601,-0.0117 -0.96081,0.22402 -1.89951,0.5628 -2.87891,0.68164 -1.90178,0.23076 -3.80007,-0.38295 -5.57031,-1.11523 -0.98319,-0.40671 -1.95107,-0.85358 -2.89844,-1.33789 0.43845,-4.81891 0.73686,-9.65003 0.89258,-14.48633 0.22721,-7.05663 0.1511,-14.12355 -0.22461,-21.17383 3.3098,1.68206 7.09392,2.41954 10.79297,2.10156 3.54946,-0.30511 7.13094,-1.66071 9.49023,-4.33008 1.91827,-2.17037 2.90622,-5.13617 2.67383,-8.02343 -2.22217,2.40921 -5.6745,3.6187 -8.91406,3.12109 -1.23606,-0.18986 -2.44316,-0.61522 -3.49414,-1.29297 -1.05098,-0.67775 -1.9441,-1.6115 -2.52539,-2.71875 -0.90961,-1.73265 -1.01354,-3.7935 -0.70899,-5.72656 0.30456,-1.93306 0.99089,-3.78145 1.60157,-5.64063 1.51058,-4.59888 2.58182,-9.45743 2.00586,-14.26367 -0.66613,-5.5586 -3.61898,-10.80788 -8.02344,-14.26367 2.50154,-0.9946 5.12975,-1.67037 7.80078,-2.00586 2.04107,-0.25637 4.1052,-0.31491 6.13477,-0.65039 2.02957,-0.33548 4.06253,-0.97414 5.67773,-2.24805 1.52042,-1.19915 2.60288,-2.93998 3.00586,-4.83398 0.40298,-1.89401 0.1232,-3.92637 -0.77734,-5.64063 -1.18001,1.40465 -2.73334,2.49119 -4.45704,3.11914 -1.98089,0.72165 -4.13837,0.83396 -6.24023,0.66993 -1.38811,-0.10834 -2.78042,-0.33808 -4.07227,-0.85743 -1.29184,-0.51935 -2.48485,-1.34561 -3.2832,-2.48632 -0.85863,-1.22685 -1.21746,-2.75087 -1.24609,-4.24805 -0.0286,-1.49719 0.2521,-2.98139 0.57617,-4.44336 1.44283,-6.50902 3.7721,-12.94944 3.56641,-19.61328 -0.11225,-3.63651 -0.98184,-7.20807 -2.00586,-10.69922 -0.97235,-3.315 -2.08677,-6.58801 -3.3418,-9.80664 4.26632,1.25623 8.7016,1.93297 13.14844,2.00586 7.72225,0.12658 15.43875,-1.57771 22.51172,-4.67969 3.37921,-1.48202 6.63715,-3.29118 9.48242,-5.64062 2.84527,-2.34945 5.27253,-5.2583 6.78711,-8.62305 2.29703,-5.10305 2.37886,-10.927776 1.7832,-16.492189 -0.53445,-4.992618 -1.58264,-9.931288 -3.12109,-14.710937 -1.73192,3.666756 -4.55875,6.808763 -8.02344,8.916015 -4.44652,2.704407 -9.73974,3.651854 -14.93164,4.011719 -3.48616,0.241635 -6.99041,0.241635 -10.47656,0 1.95132,-2.623061 3.60113,-5.47239 4.90429,-8.470703 1.7814,-4.098639 2.91276,-8.477395 3.3418,-12.925781 -2.28704,-0.313343 -4.60573,-0.38795 -6.9082,-0.222656 -1.77822,0.127657 -3.60017,0.415452 -5.12696,1.335937 -1.54297,0.930246 -2.67527,2.440799 -4.23437,3.34375 -1.57117,0.909937 -3.4527,1.128759 -5.26758,1.076172 -1.81488,-0.05259 -3.61478,-0.356475 -5.42969,-0.408203 -5.34669,-0.152392 -10.72163,1.997196 -14.48828,5.794922 -0.29998,-2.065738 -0.29998,-4.174497 0,-6.240235 0.47398,-3.263925 1.70433,-6.414489 3.56641,-9.136719 -3.35894,-0.766572 -6.80676,-1.142227 -10.25196,-1.115234 z m -65.78125,39.453122 c 2.62506,1.36594 5.4467,2.3517 8.35157,2.91602 2.71998,0.5284 5.51291,0.68777 8.27539,0.47265 -0.0603,1.66595 0.0989,3.34025 0.47265,4.96485 0.46682,2.02934 1.26825,3.98079 2.36328,5.75195 -1.51327,0.021 -3.01957,0.43147 -4.33398,1.18164 -1.07418,0.61307 -2.0195,1.45108 -2.75781,2.44336 -1.59823,-2.89102 -3.33489,-5.70596 -5.20117,-8.43164 -2.21245,-3.23124 -4.60702,-6.33785 -7.16993,-9.29883 z"
     id="path1008"
     inkscape:connector-curvature="0" />
  <g
     id="g882">
    <path
       id="rect900"
       d="M 13.966797 321.19336 L 16.582031 438.44531 L 709.90234 438.44531 L 712.51758 321.19336 L 13.966797 321.19336 z "
       style="fill:#0f47af;fill-opacity:1;stroke:none;stroke-width:25.63348961;stroke-linecap:round;stroke-linejoin:round;stroke-miterlimit:4;stroke-dasharray:none;stroke-opacity:1" />
    <path
       id="path918-4"
       d="M 14.244141 333.66992 L 15.275391 379.82031 L 46.275391 379.82031 L 20.410156 333.66992 L 14.244141 333.66992 z M 46.275391 379.82031 L 72.138672 425.9707 L 177.79492 425.9707 L 151.92969 379.82031 L 46.275391 379.82031 z M 151.92969 379.82031 L 257.58594 379.82031 L 231.7207 333.66992 L 126.06641 333.66992 L 151.92969 379.82031 z M 257.58594 379.82031 L 283.44922 425.9707 L 389.10547 425.9707 L 363.24023 379.82031 L 257.58594 379.82031 z M 363.24023 379.82031 L 468.89648 379.82031 L 443.03125 333.66992 L 337.37695 333.66992 L 363.24023 379.82031 z M 468.89648 379.82031 L 494.75977 425.9707 L 600.41602 425.9707 L 574.55078 379.82031 L 468.89648 379.82031 z M 574.55078 379.82031 L 680.20703 379.82031 L 654.3418 333.66992 L 548.6875 333.66992 L 574.55078 379.82031 z M 680.20703 379.82031 L 706.07031 425.9707 L 710.17969 425.9707 L 711.20898 379.82031 L 680.20703 379.82031 z "
       style="fill:#ffffff;stroke:none;stroke-width:1px;stroke-linecap:butt;stroke-linejoin:miter;stroke-opacity:1" />
  </g>
  <path
     style="fill:none;fill-rule:evenodd;stroke:#000000;stroke-width:16;stroke-linecap:round;stroke-linejoin:round;stroke-miterlimit:4;stroke-dasharray:none;stroke-opacity:1"
     d="M 194.26579,16.375592 C 131.24711,22.653582 68.976172,36.480982 8.007982,53.858012 h -0.008 l 9.625,431.291018 C 25.644542,677.3221 173.9404,855.72149 363.24216,855.95759 552.71437,855.84979 700.95176,677.50516 708.85935,485.14903 L 718.4824,53.858012 h -0.008 C 657.50621,36.480982 595.23526,22.653582 532.21658,16.375592 420.12106,5.2085118 306.36093,5.2085118 194.26541,16.375592 Z"
     id="path10563-0-6-2-8"
     inkscape:connector-curvature="0"
     sodipodi:nodetypes="acccccccaa" />
</svg>
