<svg xmlns="http://www.w3.org/2000/svg" viewBox="0 0 977.12 1067.6" xmlns:xlink="http://www.w3.org/1999/xlink"><defs><path id="0" d="m-982.62 687.94c-10.593 0-19.16 8.595-19.16 19.19 0 .331-.017.673 0 1v59.969h38.34v-60.969c0-10.593-8.595-19.19-19.19-19.19z" stroke-linejoin="round" stroke="#000" fill="none" stroke-linecap="round"/><path id="1" d="m-976.56 690.76c-7.247 0-13.11 8.292-13.11 18.511 0 .319-.012.649 0 .965v57.854h26.23v-58.819c0-10.219-5.88-18.511-13.13-18.511z" stroke-linejoin="round" stroke="#000" stroke-linecap="round"/></defs><g transform="translate(222.16-.136)"><path d="m576.23 10.162c-26.17.053-51.02.198-70.798.478-79.11 1.122-156.7-.214-235.05 0-2.653.007-5.305.036-7.958.043-78.35.214-155.94 1.122-235.05 0-79.11-1.122-239.53 0-239.53 0 0 0 4.995 48.18 6.784 72.32 3.067 41.38 4.256 82.87 6.784 124.29 3.405 55.766 7.902 111.49 11.307 167.25 2.529 41.41 3.91 82.9 6.784 124.29 4.346 62.59 5.02 125.75 15.786 187.56 6.02 34.562 14.418 68.979 27.14 101.67 15.355 39.473 33.473 78.71 58.839 112.63 18.288 24.456 41.648 45.04 65.884 63.62 27.747 21.272 57.962 39.816 89.93 53.968 33.818 14.97 69.917 25.08 106.24 32.09 27.334 5.278 55.35 7.255 83.19 7.349 27.662.094 55.55-1.52 82.71-6.741 36.46-7.01 72.54-17.626 106.46-32.746 31.934-14.235 62.23-32.696 89.98-53.968 24.24-18.58 47.595-39.17 65.884-63.62 25.365-33.919 43.484-73.16 58.839-112.63 12.718-32.695 21.12-67.16 27.14-101.72 10.762-61.814 11.44-124.97 15.786-187.56 2.874-41.39 4.256-82.87 6.784-124.29 3.405-55.766 7.902-111.44 11.307-167.21 2.529-41.41 3.717-82.909 6.784-124.29 1.79-24.14 6.784-72.32 6.784-72.32 0 0-90.24-.636-168.73-.478" fill="#da121a"/><g stroke="#000"><g fill="#fff"><path d="m266.4 230.62l-97.47 151.84-76.938 90.28-47.19 28.719-8.219 101.56-3.063 201.06 4.094 124.12 166.19 3.094 62.56-2.344 62.59 2.344 166.19-3.094 4.125-124.12-3.094-201.06-8.219-101.56-47.19-28.719-76.938-90.28-97.44-151.84z"/><g stroke-linejoin="round" stroke-linecap="round" stroke-width="5"><path d="m303.13 406.47h73.47v28.774h-73.47z"/><path d="m245.87 262.59l-18.469 28.781h39 38.969l-18.469-28.781h-20.5-20.531zm-97.37 143.87l-24.531 28.781h32.22v-28.781h-7.688zm228.09 0v28.781h32.22l-24.531-28.781h-7.688z"/><path d="m229.67 406.47h73.47v28.774h-73.47z"/><path d="m156.2 406.47h73.47v28.774h-73.47z"/><path d="m266.4 377.69h73.47v28.775h-73.47z"/><path d="m190.47 348.91l-21.531 33.563-20.438 24h44.44v-28.781h36.719v-28.781h-39.19zm112.66 0v28.781h36.75v28.781h44.41l-20.438-24-21.531-33.563h-39.19z"/><path d="m192.93 377.69h73.47v28.775h-73.47z"/><path d="m229.67 348.92h73.47v28.774h-73.47z"/><path d="m266.4 320.15h73.47v28.774h-73.47z"/><path d="m192.93 320.15h73.47v28.774h-73.47z"/><path d="m229.67 291.37h73.47v28.775h-73.47z"/><path d="m303.13 464.02h73.47v28.774h-73.47z"/><path d="m376.6 464.02h73.47v28.774h-73.47z"/><path d="m229.67 464.02h73.47v28.774h-73.47z"/><path d="m156.2 464.02h73.47v28.774h-73.47z"/><path d="m82.73 464.02h73.47v28.774h-73.47z"/><path d="m266.4 435.24h73.47v28.775h-73.47z"/><path d="m339.87 435.24h73.47v28.775h-73.47z"/><path d="m192.93 435.24h73.47v28.775h-73.47z"/><path d="m119.47 435.24h73.47v28.775h-73.47z"/><path d="m303.13 521.57h73.47v28.775h-73.47z"/><path d="m376.6 521.57h73.47v28.775h-73.47z"/><path d="m229.67 521.57h73.47v28.775h-73.47z"/><path d="m156.2 521.57h73.47v28.775h-73.47z"/><path d="m82.73 521.57h73.47v28.775h-73.47z"/><path d="m266.4 492.79h73.47v28.774h-73.47z"/><path d="m339.87 492.79h73.47v28.774h-73.47z"/><path d="m192.93 492.79h73.47v28.774h-73.47z"/><path d="m119.47 492.79h73.47v28.774h-73.47z"/><path d="m46 492.79h73.47v28.774h-73.47z"/><path d="m413.33 492.79h73.47v28.774h-73.47z"/><path d="m303.13 579.12h73.47v28.775h-73.47z"/><path d="m376.6 579.12h73.47v28.775h-73.47z"/><path d="m229.67 579.12h73.47v28.775h-73.47z"/><path d="m156.2 579.12h73.47v28.775h-73.47z"/><path d="m82.73 579.12h73.47v28.775h-73.47z"/><path d="m266.4 550.34h73.47v28.774h-73.47z"/><path d="m339.87 550.34h73.47v28.774h-73.47z"/><path d="m192.93 550.34h73.47v28.774h-73.47z"/><path d="m119.47 550.34h73.47v28.774h-73.47z"/><path d="m46 550.34h73.47v28.774h-73.47z"/><path d="m413.33 550.34h73.47v28.774h-73.47z"/><path d="m303.13 636.66h73.47v28.774h-73.47z"/><path d="m376.6 636.66h73.47v28.774h-73.47z"/><path d="m229.67 636.66h73.47v28.774h-73.47z"/><path d="m156.2 636.66h73.47v28.774h-73.47z"/><path d="m82.73 636.66h73.47v28.774h-73.47z"/><path d="m266.4 607.89h73.47v28.774h-73.47z"/><path d="m339.87 607.89h73.47v28.774h-73.47z"/><path d="m192.93 607.89h73.47v28.774h-73.47z"/><path d="m119.47 607.89h73.47v28.774h-73.47z"/><path d="m46 607.89h73.47v28.774h-73.47z"/><path d="m413.33 607.89h73.47v28.774h-73.47z"/><path d="m303.13 694.21h73.47v28.774h-73.47z"/><path d="m376.6 694.21h73.47v28.774h-73.47z"/><path d="m229.67 694.21h73.47v28.774h-73.47z"/><path d="m156.2 694.21h73.47v28.774h-73.47z"/><path d="m82.73 694.21h73.47v28.774h-73.47z"/><path d="m266.4 665.44h73.47v28.775h-73.47z"/><path d="m339.87 665.44h73.47v28.775h-73.47z"/><path d="m192.93 665.44h73.47v28.775h-73.47z"/><path d="m119.47 665.44h73.47v28.775h-73.47z"/><path d="m46 665.44h73.47v28.775h-73.47z"/><path d="m413.33 665.44h73.47v28.775h-73.47z"/><path d="m303.13 751.76h73.47v28.775h-73.47z"/><path d="m376.6 751.76h73.47v28.775h-73.47z"/><path d="m229.67 751.76h73.47v28.775h-73.47z"/><path d="m156.2 751.76h73.47v28.775h-73.47z"/><path d="m82.73 751.76h73.47v28.775h-73.47z"/><path d="m266.4 722.99h73.47v28.775h-73.47z"/><path d="m339.87 722.99h73.47v28.775h-73.47z"/><path d="m192.93 722.99h73.47v28.775h-73.47z"/><path d="m119.47 722.99h73.47v28.775h-73.47z"/><path d="m46 722.99h73.47v28.775h-73.47z"/><path d="m413.33 722.99h73.47v28.775h-73.47z"/><path d="m303.13 809.31h73.47v28.775h-73.47z"/><path d="m376.6 809.31h73.47v28.775h-73.47z"/><path d="m229.67 809.31h73.47v28.775h-73.47z"/><path d="m156.2 809.31h73.47v28.775h-73.47z"/><path d="m82.73 809.31h73.47v28.775h-73.47z"/><path d="m266.4 780.54h73.47v28.774h-73.47z"/><path d="m339.87 780.54h73.47v28.774h-73.47z"/><path d="m192.93 780.54h73.47v28.774h-73.47z"/><path d="m119.47 780.54h73.47v28.774h-73.47z"/><path d="m46 780.54h73.47v28.774h-73.47z"/><path d="m413.33 780.54h73.47v28.774h-73.47z"/><path d="m303.13 866.86h73.47v28.774h-73.47z"/><path d="m376.6 866.86h73.47v28.774h-73.47z"/><path d="m229.67 866.86h73.47v28.774h-73.47z"/><path d="m156.2 866.86h73.47v28.774h-73.47z"/><path d="m82.73 866.86h73.47v28.774h-73.47z"/><path d="m266.4 838.09h73.47v28.774h-73.47z"/><path d="m339.87 838.09h73.47v28.774h-73.47z"/><path d="m192.93 838.09h73.47v28.774h-73.47z"/><path d="m119.47 838.09h73.47v28.774h-73.47z"/><path d="m46 838.09h73.47v28.774h-73.47z"/><path d="m413.33 838.09h73.47v28.774h-73.47z"/></g></g><g stroke-width="5"><path d="m266.37 50.563c0 0-3.98 8.484-5.688 12.875-.903 2.323-2.375 7.125-2.375 7.125 0 0-2.595-2.524-3.906-3.75-2.08-1.945-6.313-5.75-6.313-5.75 0 0 5.315 17.238 7.188 26.09 1.159 5.48 2.403 13.723 3.375 20.75-3.914-.614-7.652-1.253-10.594-1.875-8.856-1.872-26.09-7.188-26.09-7.188 0 0 3.805 4.201 5.75 6.281 1.226 1.311 3.75 3.906 3.75 3.906 0 0-4.802 1.503-7.125 2.406-4.391 1.707-12.875 5.688-12.875 5.688 0 0 8.484 3.98 12.875 5.688 2.323.903 7.125 2.375 7.125 2.375 0 0-2.524 2.595-3.75 3.906-1.945 2.08-5.75 6.313-5.75 6.313 0 0 17.238-5.315 26.09-7.188 2.763-.584 6.252-1.17 9.906-1.75-.024 9.863-.184 25-1 34.5-.618 7.191-2.361 18.1-3.719 26.19-1.722-2.299-3.895-4.3-6.438-5.469-3.612-1.66-7.97-1.397-11.906-.844-2.7.379-5.343 1.369-7.656 2.813-2.034 1.269-4.02 2.877-5.188 4.969-1.701 3.037-2.714 6.769-2.25 10.219.456 3.396 2.02 7.07 4.781 9.09 2.821 2.072 6.858 2.408 10.313 1.844 3.27-.534 8.719-4.75 8.719-4.75 0 0 .071 8.127-.844 12.06-.023.097-.037.212-.063.313-8.719 19.708-18.633 38.909-29.563 57.44-1.539 2.61-3.084 5.222-4.656 7.813-.399-1.323-.915-2.606-1.563-3.813-1.869-3.482-4.753-6.756-8.344-8.406-3.612-1.66-7.97-1.428-11.906-.875-2.7.379-5.343 1.369-7.656 2.813-2.034 1.269-4.02 2.908-5.188 5-1.701 3.037-2.714 6.738-2.25 10.188.456 3.396 2.02 7.097 4.781 9.125 2.821 2.072 6.858 2.408 10.313 1.844 3.27-.534 8.719-4.781 8.719-4.781 0 0 .073 6.271-.531 10.469-13.388 20.479-27.733 40.37-42.781 59.688-.225-3.592-1.012-7.222-2.688-10.344-1.869-3.482-4.753-6.756-8.344-8.406-3.612-1.66-7.97-1.397-11.906-.844-2.7.379-5.343 1.369-7.656 2.813-2.034 1.269-4.047 2.877-5.219 4.969-1.701 3.037-2.682 6.738-2.219 10.188.456 3.396 2.02 7.097 4.781 9.125 2.821 2.072 6.858 2.408 10.313 1.844 3.27-.534 8.719-4.781 8.719-4.781 0 0 .071 8.158-.844 12.09-.238 1.022-.613 2.245-1.063 3.5-2.622 3.2-5.251 6.394-7.906 9.563-23.268 27.761-75.938 77.75-75.938 77.75l-2.438.594 9.781 25.09 60.62-50.813 80.19-96.72 66.12-100.62 66.12 100.62 80.19 96.72 60.62 50.813 9.781-25.09-2.438-.594c0 0-52.67-49.989-75.938-77.75-2.656-3.169-5.284-6.363-7.906-9.563-.45-1.255-.825-2.478-1.063-3.5-.914-3.935-.844-12.09-.844-12.09 0 0 5.448 4.247 8.719 4.781 3.454.564 7.492.228 10.313-1.844 2.761-2.028 4.325-5.729 4.781-9.125.464-3.45-.518-7.151-2.219-10.188-1.171-2.092-3.185-3.7-5.219-4.969-2.314-1.443-4.956-2.433-7.656-2.813-3.937-.553-8.294-.816-11.906.844-3.591 1.651-6.475 4.924-8.344 8.406-1.676 3.122-2.463 6.752-2.688 10.344-15.05-19.313-29.394-39.21-42.781-59.688-.604-4.198-.531-10.469-.531-10.469 0 0 5.448 4.247 8.719 4.781 3.454.564 7.492.228 10.313-1.844 2.761-2.028 4.325-5.729 4.781-9.125.464-3.45-.549-7.151-2.25-10.188-1.171-2.092-3.154-3.731-5.188-5-2.314-1.443-4.956-2.433-7.656-2.813-3.937-.553-8.294-.785-11.906.875-3.591 1.651-6.475 4.924-8.344 8.406-.648 1.207-1.164 2.489-1.563 3.813-1.572-2.591-3.117-5.203-4.656-7.813-10.93-18.529-20.843-37.73-29.563-57.44-.025-.1-.04-.215-.063-.313-.914-3.935-.844-12.06-.844-12.06 0 0 5.448 4.216 8.719 4.75 3.454.564 7.492.228 10.313-1.844 2.761-2.028 4.325-5.698 4.781-9.09.464-3.45-.549-7.182-2.25-10.219-1.171-2.092-3.154-3.7-5.188-4.969-2.314-1.443-4.956-2.433-7.656-2.813-3.937-.553-8.294-.816-11.906.844-2.542 1.169-4.715 3.17-6.438 5.469-1.358-8.08-3.069-18.997-3.688-26.19-.816-9.497-1.01-24.637-1.031-34.5 3.647.58 7.114 1.166 9.875 1.75 8.856 1.872 26.09 7.188 26.09 7.188 0 0-3.805-4.232-5.75-6.313-1.226-1.311-3.75-3.906-3.75-3.906 0 0 4.802-1.472 7.125-2.375 4.391-1.707 12.875-5.688 12.875-5.688 0 0-8.484-3.98-12.875-5.688-2.323-.903-7.125-2.406-7.125-2.406 0 0 2.524-2.595 3.75-3.906 1.945-2.08 5.75-6.281 5.75-6.281 0 0-17.238 5.315-26.09 7.188-2.94.621-6.688 1.261-10.594 1.875.965-7.03 2.185-15.27 3.344-20.75 1.872-8.856 7.188-26.09 7.188-26.09 0 0-4.201 3.805-6.281 5.75-1.311 1.226-3.875 3.75-3.875 3.75 0 0-1.534-4.802-2.438-7.125-1.707-4.391-5.688-12.875-5.688-12.875z" fill="#fcdd09" stroke-linejoin="round"/><path d="m266.4 190.97c0 0-29.686 65.1-48.37 95.5-30.505 49.618-65.11 96.98-103.47 140.81-20.15 23.02-66.12 63.69-66.12 63.69l13.469 22.625c0 0 71.2-64.95 102.25-101.62 29.415-34.746 55.02-72.69 78.969-111.41 8.646-13.976 23.281-43.47 23.281-43.47 0 0 14.604 29.493 23.25 43.47 23.951 38.715 49.554 76.66 78.969 111.41 31.05 36.675 102.25 101.62 102.25 101.62l13.469-22.625c0 0-45.973-40.664-66.12-63.69-38.36-43.829-72.964-91.19-103.47-140.81-18.689-30.399-48.34-95.5-48.34-95.5z" fill="#fff"/><g transform="translate(988.8)" fill="none" stroke-linecap="round"><path d="m-933.64 502.28c0 0 72.03-66.49 102.86-104.38 24.613-30.25 44.32-64.21 64.895-97.34 15.291-24.621 43.47-75.3 43.47-75.3"/><path d="m-511.2 502.28c0 0-72.03-66.49-102.86-104.38-24.613-30.25-44.32-64.21-64.895-97.34-15.291-24.621-43.47-75.3-43.47-75.3"/></g><g stroke-linejoin="round"><g stroke-linecap="round"><g fill="#fff"><path d="m189.27 656.87h154.28v268.76h-154.28z"/><path d="m108.45 627.46v29.406 268.75h80.81v-268.75l-80.81-29.406z"/><path d="m424.36 627.46v29.406 268.75h-80.81v-268.75l80.81-29.406z"/><path d="m266.39 746.87c-20.625 0-37.34 11.773-37.34 26.313v148.16h74.69v-148.16c0-14.539-16.718-26.313-37.34-26.313z"/></g><path d="m272.82 753.61c-17.07 0-30.915 11.319-30.915 25.297v142.44h61.831v-142.44c0-13.978-13.841-25.297-30.915-25.297z"/><path d="m148.88 694.47c-8.07 0-14.625 5.02-14.625 11.188v62.875l29.22 11.09v-11.09-62.875c0-6.17-6.521-11.188-14.594-11.188z" fill="#fff"/><path d="m154.28 697.07c-5.083 0-9.208 4.865-9.208 10.846v60.957l18.396 10.755v-10.755-60.957c0-5.981-4.106-10.846-9.188-10.846z"/><path d="m383.94 694.47c8.07 0 14.625 5.02 14.625 11.188v62.875l-29.22 11.09v-11.09-62.875c0-6.17 6.521-11.188 14.594-11.188z" fill="#fff"/><path d="m378.53 697.07c5.083 0 9.208 4.865 9.208 10.846v60.957l-18.396 10.755v-10.755-60.957c0-5.981 4.106-10.846 9.188-10.846z"/></g><g fill="#fff"><path d="m189.27 656.87l-80.81-29.406-19.297-16.663 92.21 31.602z"/><path d="m343.55 656.87l80.81-29.406 19.297-16.663-92.21 31.602z"/><path d="m189.27 656.87l-7.901-14.467h170.08l-7.901 14.467z"/></g><g fill="#0f47af"><path d="m266.38 412.53c0 0-66.27 84.55-102.52 124.24-23.613 25.858-74.72 74.03-74.72 74.03l94.16 31.591h79.38 7.434 79.38l94.16-31.591c0 0-51.11-48.17-74.72-74.03-36.25-39.692-102.55-124.24-102.55-124.24z"/><path d="m246.48 595.49l-.059.235-11.927.353c0 0-1.16 18.916.752 28.08.557 2.668 1.65 5.251 3.067 7.579 1.611 2.645 3.442 5.382 6.05 7.05 1.766 1.129 3.955 1.713 6.05 1.716 2.116.002 4.326-.579 6.11-1.716 2.611-1.665 4.441-4.405 6.05-7.05 1.417-2.328 2.511-4.911 3.067-7.579 1.912-9.167.752-28.08.752-28.08l-11.927-.353-.059-.235-3.936.117z"/><path d="m278.38 595.49l-.059.235-11.927.353c0 0-1.16 18.916.752 28.08.557 2.668 1.65 5.251 3.067 7.579 1.611 2.645 3.442 5.382 6.05 7.05 1.766 1.129 3.955 1.713 6.05 1.716 2.116.002 4.326-.579 6.11-1.716 2.611-1.665 4.441-4.405 6.05-7.05 1.417-2.328 2.511-4.911 3.067-7.579 1.912-9.167.752-28.08.752-28.08l-11.927-.353-.059-.235-3.936.117z"/><path d="m202.7 593.37c0 0-2.753 18.735-1.625 28.03.328 2.706 1.191 5.373 2.406 7.813 1.381 2.772 2.979 5.679 5.438 7.563 1.664 1.275 3.817 2.038 5.906 2.219 2.108.181 4.345-.205 6.219-1.188 2.743-1.438 4.796-4.03 6.625-6.531 1.61-2.199 2.907-4.67 3.688-7.281 2.682-8.972 3.156-27.938 3.156-27.938l-11.875-1.344-.031-.25-3.938-.219-3.969-.438-.063.219-11.938-.656z"/><path d="m330.1 593.37l-11.938.656-.063-.219-3.969.438-3.938.219-.031.25-11.875 1.344c0 0 .443 18.965 3.125 27.938.781 2.611 2.109 5.082 3.719 7.281 1.829 2.499 3.882 5.093 6.625 6.531 1.874.982 4.111 1.369 6.219 1.188 2.089-.18 4.242-.944 5.906-2.219 2.459-1.884 4.03-4.79 5.406-7.563 1.215-2.44 2.109-5.107 2.438-7.813 1.128-9.296-1.625-28.03-1.625-28.03z"/><path d="m176.3 593.37c0 0-3.987 17.832-3.685 26.875.088 2.632.655 5.27 1.575 7.719 1.045 2.783 2.297 5.671 4.398 7.688 1.422 1.365 3.304 2.279 5.2 2.625 1.913.348 4 .166 5.794-.625 2.621-1.158 4.698-3.463 6.567-5.719 1.644-1.985 3.03-4.269 3.952-6.719 3.156-8.417 5.05-26.625 5.05-26.625l-10.727-2.281-.03-.219-3.566-.531-3.596-.781-.089.219-10.846-1.625z"/><path d="m356.5 593.37l-10.846 1.625-.089-.219-3.596.781-3.596.531v.219l-10.727 2.281c0 0 1.895 18.208 5.05 26.625.919 2.45 2.308 4.734 3.952 6.719 1.869 2.255 3.946 4.561 6.567 5.719 1.79.791 3.881.973 5.794.625 1.896-.346 3.778-1.26 5.2-2.625 2.1-2.02 3.323-4.905 4.368-7.688.92-2.449 1.517-5.087 1.605-7.719.303-9.04-3.685-26.875-3.685-26.875z"/><path d="m148.96 583.44c0 0-6.04 17.16-6.969 26.16-.271 2.619-.081 5.303.438 7.844.589 2.888 1.307 5.929 2.969 8.188 1.125 1.529 2.741 2.672 4.438 3.25 1.712.583 3.655.656 5.406.094 2.564-.823 4.793-2.872 6.813-4.875 1.777-1.763 3.359-3.843 4.531-6.156 4.03-7.95 8.219-25.75 8.219-25.75l-9.563-3.594v-.25l-3.219-.969-3.188-1.188-.125.188-9.75-2.938z"/><path d="m383.81 583.44l-9.75 2.938-.125-.188-3.188 1.188-3.219.969.031.25-9.563 3.594c0 0 4.161 17.8 8.188 25.75 1.172 2.314 2.754 4.393 4.531 6.156 2.02 2 4.248 4.052 6.813 4.875 1.752.562 3.694.489 5.406-.094 1.697-.578 3.313-1.721 4.438-3.25 1.661-2.259 2.411-5.3 3-8.188.518-2.541.708-5.225.438-7.844-.931-9-7-26.16-7-26.16z"/><path d="m178.84 519.84c-5.338 6.179-10.394 11.927-14.969 16.938-1.106 1.211-2.344 2.511-3.563 3.813.011.334.009.67.031 1 .165 2.486.414 5.12 1.375 7.188.65 1.399 1.686 2.498 2.813 3.156 1.137.664 2.458.95 3.719.656 1.846-.429 3.558-1.929 5.125-3.406 1.379-1.3 2.65-2.894 3.656-4.719 3.458-6.268 7.875-20.781 7.875-20.781l-6.06-3.844z"/><path d="m353.97 519.84l-6.06 3.844c0 0 4.386 14.513 7.844 20.781 1.01 1.824 2.277 3.419 3.656 4.719 1.567 1.477 3.279 2.977 5.125 3.406 1.261.293 2.613.008 3.75-.656 1.127-.659 2.131-1.757 2.781-3.156.961-2.067 1.241-4.701 1.406-7.188.021-.32.021-.645.031-.969-1.228-1.312-2.449-2.624-3.563-3.844-4.575-5.01-9.63-10.758-14.969-16.938z"/><path d="m128 573.34c-2.252 2.213-4.429 4.36-6.625 6.5-2.424 5.42-5.365 12.463-6.469 17.313-.585 2.567-.708 5.259-.5 7.844.236 2.937.592 6.06 1.969 8.5.932 1.653 2.416 2.972 4.03 3.75 1.63.785 3.537 1.097 5.344.75 2.645-.507 5.098-2.255 7.344-4 1.977-1.536 3.808-3.438 5.25-5.594 4.956-7.406 11.25-24.563 11.25-24.563l-9.06-4.719.063-.25-3.094-1.344-3.03-1.594-.125.188-6.344-2.781z"/><path d="m404.78 573.34l-6.313 2.781-.125-.188-3.063 1.594-3.063 1.344.031.25-9.03 4.719c0 0 6.263 17.16 11.219 24.563 1.442 2.155 3.273 4.058 5.25 5.594 2.246 1.745 4.699 3.493 7.344 4 1.807.347 3.745.035 5.375-.75 1.615-.778 3.068-2.097 4-3.75 1.377-2.442 1.764-5.563 2-8.5.208-2.585.053-5.276-.531-7.844-1.106-4.857-4.04-11.92-6.469-17.344-2.188-2.133-4.381-4.264-6.625-6.469z"/><path d="m249.54 565.45l-.05.199-10.09.298c0 0-.982 16.01.636 23.769.471 2.258 1.396 4.444 2.596 6.415 1.363 2.239 2.913 4.555 5.122 5.967 1.495.956 3.347 1.45 5.122 1.452 1.791.002 3.662-.49 5.171-1.452 2.21-1.409 3.758-3.728 5.122-5.967 1.2-1.97 2.125-4.157 2.596-6.415 1.619-7.759.636-23.769.636-23.769l-10.09-.298-.05-.199-3.332.099z"/><path d="m276.54 565.45l-.05.199-10.09.298c0 0-.982 16.01.636 23.769.471 2.258 1.396 4.444 2.596 6.415 1.363 2.239 2.913 4.555 5.122 5.967 1.495.956 3.347 1.45 5.122 1.452 1.791.002 3.662-.49 5.171-1.452 2.21-1.409 3.758-3.728 5.122-5.967 1.2-1.97 2.125-4.157 2.596-6.415 1.618-7.759.636-23.769.636-23.769l-10.09-.298-.05-.199-3.332.099z"/><path d="m212.48 563.66c0 0-2.33 15.856-1.375 23.724.278 2.29 1.01 4.547 2.037 6.612 1.169 2.346 2.521 4.806 4.602 6.401 1.409 1.079 3.231 1.725 4.999 1.878 1.784.153 3.677-.174 5.263-1.01 2.322-1.217 4.059-3.412 5.607-5.528 1.362-1.861 2.46-3.953 3.121-6.163 2.27-7.594 2.671-23.645 2.671-23.645l-10.05-1.137-.026-.212-3.333-.185-3.359-.37-.053.185-10.1-.555z"/><path d="m320.31 563.66l-10.1.555-.053-.185-3.359.37-3.333.185-.026.212-10.05 1.137c0 0 .375 16.05 2.645 23.645.661 2.21 1.785 4.301 3.147 6.163 1.548 2.115 3.285 4.311 5.607 5.528 1.586.831 3.479 1.158 5.263 1.01 1.768-.153 3.59-.799 4.999-1.878 2.081-1.594 3.407-4.054 4.576-6.401 1.028-2.065 1.785-4.322 2.063-6.612.955-7.868-1.375-23.724-1.375-23.724z"/><path d="m190.15 561.97c0 0-3.375 15.09-3.119 22.746.075 2.227.555 4.46 1.333 6.533.884 2.355 1.944 4.8 3.722 6.506 1.203 1.155 2.796 1.929 4.401 2.222 1.619.295 3.389.14 4.904-.529 2.218-.98 3.977-2.931 5.558-4.84 1.392-1.68 2.567-3.613 3.345-5.686 2.672-7.124 4.275-22.534 4.275-22.534l-9.08-1.931-.025-.185-3.02-.45-3.043-.661-.075.185-9.18-1.375z"/><path d="m342.65 561.97l-9.18 1.375-.075-.185-3.043.661-3.043.45v.185l-9.08 1.931c0 0 1.604 15.411 4.275 22.534.777 2.073 1.953 4.01 3.345 5.686 1.581 1.909 3.34 3.86 5.558 4.84 1.515.669 3.285.824 4.904.529 1.605-.293 3.198-1.066 4.401-2.222 1.778-1.706 2.812-4.151 3.697-6.506.778-2.073 1.284-4.305 1.358-6.533.256-7.654-3.119-22.746-3.119-22.746z"/><path d="m167.01 555.25c0 0-5.11 14.521-5.898 22.14-.229 2.217-.068 4.488.37 6.639.498 2.444 1.106 5.02 2.513 6.93.952 1.294 2.32 2.262 3.756 2.751 1.449.493 3.093.555 4.576.079 2.17-.696 4.057-2.43 5.766-4.126 1.504-1.492 2.843-3.252 3.835-5.21 3.408-6.728 6.956-21.794 6.956-21.794l-8.093-3.042v-.212l-2.724-.82-2.698-1.01-.106.159-8.252-2.486z"/><path d="m365.77 555.25l-8.252 2.486-.106-.159-2.698 1.01-2.724.82.026.212-8.093 3.042c0 0 3.521 15.07 6.93 21.794.992 1.958 2.331 3.718 3.835 5.21 1.709 1.696 3.595 3.43 5.766 4.126 1.483.476 3.126.414 4.576-.079 1.436-.489 2.804-1.457 3.756-2.751 1.406-1.912 2.041-4.486 2.539-6.93.438-2.151.6-4.422.37-6.639-.788-7.617-5.924-22.14-5.924-22.14z"/><path d="m152.94 548.34c-4.122 4.259-8.593 8.748-13.156 13.313-.667 1.867-1.249 3.673-1.594 5.188-.495 2.173-.614 4.469-.438 6.656.2 2.486.522 5.12 1.688 7.188.789 1.399 2.04 2.529 3.406 3.188 1.379.664 2.971.918 4.5.625 2.239-.429 4.318-1.898 6.219-3.375 1.673-1.3 3.248-2.926 4.469-4.75 4.194-6.268 9.5-20.781 9.5-20.781l-7.656-4 .031-.219-2.594-1.125-2.563-1.344-.125.156-1.688-.719z"/><path d="m379.84 548.34l-1.656.719-.125-.156-2.594 1.344-2.594 1.125.031.219-7.625 4c0 0 5.274 14.513 9.469 20.781 1.221 1.824 2.796 3.45 4.469 4.75 1.901 1.477 3.949 2.946 6.188 3.375 1.529.293 3.183.039 4.563-.625 1.367-.659 2.586-1.788 3.375-3.188 1.165-2.067 1.519-4.701 1.719-7.188.176-2.188.026-4.483-.469-6.656-.345-1.515-.926-3.321-1.594-5.188-4.564-4.565-9.03-9.05-13.156-13.313z"/><path d="m252.5 533.53l-.041.199-8.322.298c0 0-.81 16.01.525 23.769.388 2.258 1.151 4.444 2.14 6.415 1.124 2.239 2.402 4.555 4.223 5.967 1.233.956 2.76 1.45 4.223 1.452 1.476.002 3.02-.49 4.264-1.452 1.822-1.409 3.099-3.728 4.223-5.967.989-1.97 1.752-4.157 2.14-6.415 1.334-7.759.524-23.769.524-23.769l-8.322-.298-.041-.199-2.747.1z"/><path d="m274.76 533.53l-.041.199-8.322.298c0 0-.81 16.01.525 23.769.388 2.258 1.151 4.444 2.14 6.415 1.124 2.239 2.402 4.555 4.223 5.967 1.233.956 2.76 1.45 4.223 1.452 1.476.002 3.02-.49 4.264-1.452 1.822-1.409 3.099-3.728 4.223-5.967.989-1.97 1.752-4.157 2.14-6.415 1.334-7.759.524-23.769.524-23.769l-8.322-.298-.041-.199-2.747.1z"/><path d="m221.95 531.74c0 0-1.921 15.856-1.134 23.724.229 2.29.831 4.547 1.679 6.612.963 2.346 2.079 4.806 3.794 6.401 1.161 1.079 2.664 1.725 4.121 1.878 1.471.153 3.03-.174 4.339-1.01 1.914-1.217 3.346-3.412 4.623-5.528 1.123-1.861 2.028-3.953 2.573-6.163 1.872-7.594 2.202-23.645 2.202-23.645l-8.286-1.137-.022-.212-2.748-.185-2.769-.37-.044.185-8.33-.555z"/><path d="m310.85 531.74l-8.33.555-.044-.185-2.769.37-2.748.185-.022.212-8.286 1.137c0 0 .309 16.05 2.181 23.645.545 2.21 1.472 4.301 2.595 6.163 1.276 2.115 2.709 4.311 4.623 5.528 1.307.831 2.869 1.158 4.339 1.01 1.458-.153 2.96-.799 4.121-1.878 1.716-1.594 2.809-4.054 3.772-6.401.848-2.065 1.472-4.322 1.701-6.612.787-7.868-1.134-23.724-1.134-23.724z"/><path d="m203.53 530.05c0 0-2.782 15.09-2.571 22.746.061 2.227.457 4.46 1.099 6.533.729 2.355 1.603 4.8 3.069 6.506.992 1.155 2.306 1.929 3.629 2.222 1.335.295 2.794.14 4.04-.529 1.829-.98 3.278-2.931 4.582-4.84 1.147-1.68 2.117-3.613 2.758-5.686 2.203-7.124 3.525-22.534 3.525-22.534l-7.485-1.931-.021-.185-2.488-.45-2.509-.661-.062.185-7.568-1.375z"/><path d="m329.27 530.05l-7.568 1.375-.062-.185-2.509.661-2.509.45v.185l-7.485 1.931c0 0 1.322 15.411 3.525 22.534.641 2.073 1.61 4.01 2.758 5.686 1.304 1.909 2.753 3.86 4.582 4.84 1.249.669 2.708.824 4.04.529 1.323-.293 2.636-1.066 3.629-2.222 1.466-1.706 2.319-4.151 3.048-6.506.642-2.073 1.058-4.305 1.12-6.533.211-7.654-2.571-22.746-2.571-22.746z"/><path d="m184.45 523.33c0 0-4.213 14.521-4.863 22.14-.189 2.217-.056 4.488.305 6.639.411 2.444.912 5.02 2.072 6.93.785 1.294 1.912 2.262 3.096 2.751 1.195.493 2.55.555 3.772.079 1.789-.696 3.345-2.43 4.754-4.126 1.24-1.492 2.344-3.252 3.162-5.21 2.81-6.728 5.735-21.794 5.735-21.794l-6.673-3.042v-.212l-2.246-.82-2.224-1.01-.087.159-6.803-2.486z"/><path d="m348.32 523.33l-6.803 2.486-.087-.159-2.224 1.01-2.246.82.022.212-6.673 3.042c0 0 2.903 15.07 5.713 21.794.818 1.958 1.922 3.718 3.162 5.21 1.409 1.696 2.964 3.43 4.754 4.126 1.222.476 2.578.414 3.772-.079 1.184-.489 2.312-1.457 3.096-2.751 1.159-1.912 1.683-4.486 2.093-6.93.361-2.151.494-4.422.305-6.639-.649-7.617-4.884-22.14-4.884-22.14z"/><path d="m249.95 500.73l-.048.203-9.849.304c0 0-.958 16.305.621 24.21.46 2.3 1.362 4.526 2.533 6.533 1.33 2.28 2.843 4.639 4.997 6.077 1.459.974 3.266 1.477 4.997 1.479 1.747.002 3.573-.499 5.05-1.479 2.157-1.435 3.667-3.797 4.997-6.077 1.17-2.01 2.073-4.233 2.533-6.533 1.579-7.902.621-24.21.621-24.21l-9.849-.304-.048-.203-3.251.101z"/><path d="m197.34 498.03c-2.361 2.829-4.708 5.59-7.03 8.344-.758 4.707-1.464 10.21-1.344 13.969.073 2.268.522 4.545 1.281 6.656.863 2.399 1.891 4.887 3.625 6.625 1.174 1.176 2.747 1.952 4.313 2.25 1.58.3 3.303.151 4.781-.531 2.165-.998 3.863-2.994 5.406-4.938 1.358-1.711 2.523-3.67 3.281-5.781 2.607-7.255 4.156-22.938 4.156-22.938l-8.844-1.969-.031-.188-2.938-.469-2.969-.656-.063.188-3.625-.563z"/><path d="m213.79 498.91c0 0-2.274 16.15-1.342 24.16.271 2.332.984 4.631 1.987 6.734 1.14 2.39 2.46 4.895 4.49 6.518 1.374 1.099 3.152 1.757 4.877 1.912 1.741.156 3.588-.177 5.135-1.024 2.265-1.239 3.96-3.475 5.471-5.629 1.329-1.896 2.4-4.03 3.045-6.276 2.215-7.733 2.606-24.08 2.606-24.08l-9.806-1.158-.026-.215-3.252-.189-3.277-.377-.052.189-9.858-.566z"/><path d="m335.47 498.03l-3.625.563-.063-.188-2.969.656-2.969.469v.188l-8.875 1.969c0 0 1.581 15.683 4.188 22.938.759 2.111 1.892 4.071 3.25 5.781 1.543 1.944 3.273 3.939 5.438 4.938 1.479.682 3.201.832 4.781.531 1.566-.298 3.107-1.074 4.281-2.25 1.734-1.738 2.762-4.226 3.625-6.625.759-2.111 1.24-4.388 1.313-6.656.12-3.751-.588-9.237-1.344-13.938-2.332-2.763-4.662-5.537-7.03-8.375z"/><path d="m319.01 498.91l-9.858.566-.052-.189-3.277.377-3.252.189-.026.215-9.806 1.158c0 0 .366 16.347 2.581 24.08.645 2.251 1.742 4.38 3.071 6.276 1.51 2.154 3.206 4.39 5.471 5.629 1.547.847 3.395 1.18 5.135 1.024 1.725-.155 3.503-.813 4.877-1.912 2.03-1.623 3.324-4.129 4.465-6.518 1-2.103 1.742-4.402 2.01-6.734.932-8.01-1.342-24.16-1.342-24.16z"/><path d="m276.3 500.73l-.048.203-9.849.304c0 0-.958 16.305.621 24.21.46 2.3 1.362 4.526 2.533 6.533 1.33 2.28 2.843 4.639 4.997 6.077 1.459.974 3.266 1.477 4.997 1.479 1.747.002 3.573-.499 5.05-1.479 2.157-1.435 3.667-3.797 4.997-6.077 1.17-2.01 2.073-4.233 2.533-6.533 1.579-7.902.621-24.21.621-24.21l-9.849-.304-.048-.203-3.251.101z"/><path d="m224.37 468.37l-.063.188-2.625-.156c-2.783 3.423-5.512 6.787-8.375 10.281-.379 4.686-.606 9.902-.188 13.5.271 2.332.965 4.616 1.969 6.719 1.14 2.39 2.47 4.908 4.5 6.531 1.374 1.099 3.15 1.751 4.875 1.906 1.741.156 3.609-.185 5.156-1.031 2.265-1.239 3.958-3.471 5.469-5.625 1.329-1.896 2.387-4.03 3.03-6.281 2.215-7.733 2.625-24.06 2.625-24.06l-9.813-1.188-.031-.188-3.25-.188-3.281-.406z"/><path d="m250.62 469.83l-.048.203-9.849.304c0 0-.958 16.305.621 24.21.46 2.3 1.362 4.526 2.533 6.533 1.33 2.28 2.843 4.639 4.997 6.077 1.459.974 3.266 1.477 4.997 1.479 1.747.002 3.573-.499 5.05-1.479 2.157-1.435 3.667-3.797 4.997-6.077 1.17-2.01 2.073-4.233 2.533-6.533 1.579-7.901.621-24.21.621-24.21l-9.849-.304-.048-.203-3.251.101z"/><path d="m309.78 468.37l-3.281.406-3.25.188-.031.188-9.813 1.188c0 0 .379 16.329 2.594 24.06.645 2.251 1.733 4.386 3.063 6.281 1.51 2.154 3.203 4.386 5.469 5.625 1.547.847 3.384 1.188 5.125 1.031 1.725-.155 3.501-.807 4.875-1.906 2.03-1.623 3.329-4.142 4.469-6.531 1-2.103 1.76-4.387 2.031-6.719.363-3.125.225-7.492-.063-11.656-3.36-4.094-6.556-8.03-9.813-12.03l-1.344.063-.031-.188z"/><path d="m276.97 469.83l-.048.203-9.849.304c0 0-.958 16.305.621 24.21.46 2.3 1.362 4.526 2.533 6.533 1.33 2.28 2.843 4.639 4.997 6.077 1.459.974 3.266 1.477 4.997 1.479 1.747.002 3.573-.499 5.05-1.479 2.157-1.435 3.667-3.797 4.997-6.077 1.17-2.01 2.073-4.233 2.533-6.533 1.579-7.901.621-24.21.621-24.21l-9.849-.304-.048-.203-3.251.101z"/><path d="m238.94 447.06c-1.44 1.795-2.928 3.656-4.438 5.531-.435 4.249-.859 9.783-.438 13.406.215 1.848.799 3.646 1.594 5.313.904 1.894 1.953 3.901 3.563 5.188 1.089.871 2.508 1.377 3.875 1.5 1.38.124 2.836-.11 4.063-.781 1.795-.982 3.147-2.793 4.344-4.5 1.053-1.502 1.895-3.154 2.406-4.938 1.756-6.129 2.063-19.09 2.063-19.09l-7.781-.938-.031-.156-2.563-.156-2.594-.281-.031.125-4.03-.219z"/><path d="m293.84 447.06l-4 .219-.031-.125-2.594.281-2.594.156-.031.156-7.75.938c0 0 .276 12.965 2.031 19.09.511 1.784 1.384 3.435 2.438 4.938 1.197 1.707 2.548 3.518 4.344 4.5 1.226.671 2.683.905 4.063.781 1.367-.123 2.786-.629 3.875-1.5 1.609-1.287 2.628-3.294 3.531-5.188.795-1.667 1.379-3.464 1.594-5.313.42-3.614.018-9.13-.406-13.375-1.52-1.888-3.02-3.756-4.469-5.563z"/><path d="m263.8 448.29l-.038.161-7.806.241c0 0-.759 12.922.492 19.18.364 1.823 1.08 3.587 2.01 5.177 1.054 1.807 2.253 3.677 3.961 4.816 1.156.772 2.588 1.17 3.961 1.172 1.385.002 2.832-.395 3.999-1.172 1.709-1.137 2.907-3.01 3.961-4.816.928-1.59 1.643-3.355 2.01-5.177 1.252-6.262.492-19.18.492-19.18l-7.806-.241-.038-.161-2.576.08z"/><path d="m263.8 429.1l-.038.161-7.806.241c0 0-.759 12.922.492 19.18.364 1.823 1.08 3.587 2.01 5.177 1.054 1.807 2.253 3.677 3.961 4.816 1.156.772 2.588 1.17 3.961 1.172 1.385.002 2.832-.395 3.999-1.172 1.709-1.137 2.907-3.01 3.961-4.816.928-1.59 1.643-3.355 2.01-5.177 1.252-6.262.492-19.18.492-19.18l-7.806-.241-.038-.161-2.576.08z"/></g><g stroke-linecap="round"><path d="m266.39 319.5c-5.569 0-10.06 4.524-10.06 10.09 0 4.053 2.396 7.522 5.844 9.125v11.313h-10.594c-1.603-3.448-5.072-5.844-9.125-5.844-5.569 0-10.09 4.524-10.09 10.09 0 5.569 4.524 10.06 10.09 10.06 4.053 0 7.522-2.396 9.125-5.844h10.594v40.25c-7.532 1.886-13.12 8.665-13.12 16.781 0 9.574 7.77 17.344 17.344 17.344 9.574 0 17.344-7.77 17.344-17.344 0-8.106-5.577-14.884-13.09-16.781v-40.25h10.594c1.603 3.448 5.072 5.844 9.125 5.844 5.569 0 10.09-4.493 10.09-10.06 0-5.569-4.524-10.09-10.09-10.09-4.053 0-7.522 2.396-9.125 5.844h-10.594v-11.313c3.448-1.603 5.844-5.072 5.844-9.125 0-5.569-4.524-10.09-10.09-10.09z" fill="#fcdd09"/><g fill="#fff"><path d="m-74.41 278.72v128.66h-2.031c-4.03 0-7.25 3.255-7.25 7.281v4.03c0 4.03 3.223 7.281 7.25 7.281h2.031v185.47h-2.031c-4.03 0-7.25 3.223-7.25 7.25v4.03c0 4.03 3.223 7.281 7.25 7.281h2.031v276.28c10.966 13.745 23.499 26.25 36.813 37.875h106.12v-314.16h2.031c4.03 0 7.25-3.255 7.25-7.281v-4.03c0-4.03-3.223-7.25-7.25-7.25h-2.031v-185.47h2.031c4.03 0 7.25-3.255 7.25-7.281v-4.03c0-4.03-3.223-7.281-7.25-7.281h-2.031v-128.66h-142.94zm538.66 0v128.66h-2.031c-4.03 0-7.25 3.255-7.25 7.281v4.03c0 4.03 3.223 7.281 7.25 7.281h2.031v185.47h-2.031c-4.03 0-7.25 3.223-7.25 7.25v4.03c0 4.03 3.223 7.281 7.25 7.281h2.031v314.16h106.12c13.311-11.625 25.846-24.14 36.813-37.875v-276.28h2.031c4.03 0 7.25-3.255 7.25-7.281v-4.03c0-4.03-3.223-7.25-7.25-7.25h-2.031v-185.47h2.031c4.03 0 7.25-3.255 7.25-7.281v-4.03c0-4.03-3.223-7.281-7.25-7.281h-2.031v-128.66h-142.94z"/><path d="m167.09 863.37v44.44h-32.31v46.844h131.62v-46.844h-32.31v-44.44h-67z"/></g></g></g><g stroke-linecap="round"><g fill="#fff"><path d="m219.57 873.89v24.631"/><path d="m199.38 943.74h54.915v-24.23"/><path d="m298.71 863.37v44.44h-32.31v46.844h131.62v-46.844h-32.31v-44.44h-67z" stroke-linejoin="round"/><path d="m351.19 873.89v24.631"/><path d="m331 943.74h54.915v-24.23"/><path d="m430.34 863.37v44.44h-32.31v46.844h131.62v-46.844h-32.31v-44.44h-67z" stroke-linejoin="round"/><path d="m482.82 873.89v24.631"/><path d="m462.63 943.74h54.915v-24.23"/><path d="m35.462 863.37v44.44h-32.31v46.844h131.62v-46.844h-32.31v-44.44h-67z" stroke-linejoin="round"/><path d="m87.94 873.89v24.631"/><path d="m67.751 943.74h54.915v-24.23"/><path d="m-96.16 863.37v11.469c5.417 8.888 11.183 17.521 17.406 25.844 15.178 20.297 33.859 37.937 53.625 53.969h28.28v-46.844h-32.31v-44.44h-67zm658.12 0v44.44h-32.31v46.844h28.19c19.79-16.05 38.493-33.681 53.688-54 6.224-8.323 12.02-16.955 17.438-25.844v-11.438h-67zm-513.87 140.66c9.477 5.133 19.14 9.899 28.969 14.25 18.656 8.259 38.02 15.03 57.719 20.625v-34.875h-86.69zm335.44 0v39.25c24.686-6.418 48.924-14.675 72.16-25.03 9.776-4.358 19.401-9.11 28.844-14.219h-101z" stroke-linejoin="round"/><path d="m614.44 873.89v24.631"/><path d="m-43.685 873.89v24.631"/><path d="m-38.49 943.74h29.531v-24.23"/><path stroke-linejoin="round" d="m72.58 954.66h124.38v49.38h-124.38z"/><path d="m101 994.72h86.18v-25.622"/><path d="m-25.12 954.66c4.05 3.285 8.16 6.497 12.281 9.656 19.216 14.732 39.591 28.16 60.938 39.719h24.5v-49.37h-97.72zm470.84 0v49.37h38.813c21.403-11.58 41.872-24.99 61.12-39.75 4.1-3.143 8.158-6.358 12.188-9.625h-112.12z" stroke-linejoin="round"/><path d="m34.945 994.72h27.854v-25.622"/><path stroke-linejoin="round" d="m321.35 954.66h124.38v49.38h-124.38z"/><path d="m349.77 994.72h86.18v-25.622"/><g transform="translate(1093.74-.808)"><path stroke-linejoin="round" d="m-896.77 955.46h124.38v49.38h-124.38z"/><path d="m-868.36 995.53h86.18v-25.622"/></g><path d="m259.16 1004.03v49.37h75.75c4.791-.703 9.561-1.493 14.313-2.406 11.488-2.208 22.956-4.766 34.31-7.719v-39.25h-124.37z" stroke-linejoin="round"/><path d="m287.58 1044.1h65.53 20.656v-1.622"/><path d="m474.15 994.72h20.05"/><path d="m134.78 1004.03v34.875c16.01 4.548 32.25 8.324 48.531 11.469 6.02 1.162 12.08 2.174 18.16 3.03h57.688v-49.37h-124.37z" stroke-linejoin="round"/><path d="m163.19 1044.1h86.18v-25.622"/><path d="m383.53 1004.03v39.25c24.686-6.418 48.924-14.675 72.16-25.03 9.776-4.358 19.401-9.11 28.844-14.219h-101z" stroke-linejoin="round"/></g><g fill="none"><path d="m-64.709 620.71h123.56"/><path d="m-64.709 416.68h123.56"/></g></g><g transform="translate(979.68)"><use xlink:href="#0"/><path d="m-976.56 690.76c-7.247 0-13.11 8.292-13.11 18.511 0 .319-.012.649 0 .965v57.854h26.23v-58.819c0-10.219-5.88-18.511-13.13-18.511z" stroke-linejoin="round" stroke-linecap="round"/></g></g><g transform="matrix(.78173 0 0 .78173 765.2-64.731)" stroke-width="6.396"><use xlink:href="#0"/><use xlink:href="#1"/></g><g transform="matrix(.6329 0 0 .6329 618.97-123.26)" stroke-width="7.9"><use xlink:href="#0"/><use xlink:href="#1"/></g><path d="m68.54 278.72l20.594-19.395h-184.12l20.594 19.395z" fill="#fff" stroke-linejoin="round" stroke-width="5"/></g><path d="m-971.89 362.87l-36.402 21.02v-42.03z" transform="matrix(3.3036 1.98639-1.90733 3.44054 3980.12 941.41)" fill="#0f47af" stroke="#000" stroke-linejoin="round" stroke-linecap="round" stroke-width="1.284" id="2"/><g stroke="#000"><g stroke-width="5"><g stroke-linecap="round"><path d="m-10.587 44.5v22.625h-29.5v15.344h29.5v45.625h15.344v-45.625h29.469v-15.344h-29.469v-22.625h-15.344z" fill="#fcdd09" stroke-linejoin="round"/><g fill="none"><path d="m473.95 620.71h123.56"/><path d="m473.95 416.68h123.56"/></g></g><g transform="translate(1518.34)"><use xlink:href="#0"/><use xlink:href="#1"/></g></g><g transform="matrix(.78173 0 0 .78173 1303.87-64.731)" stroke-width="6.396"><use xlink:href="#0"/><use xlink:href="#1"/></g><g transform="matrix(.6329 0 0 .6329 1157.63-123.26)" stroke-width="7.9"><use xlink:href="#0"/><use xlink:href="#1"/></g><path d="m607.2 278.72l20.593-19.395h-184.12l20.594 19.395z" fill="#fff" stroke-linejoin="round" stroke-width="5"/></g><use transform="translate(538.66)" xlink:href="#2"/><g stroke="#000"><path d="m528.07 44.5v22.625h-29.5v15.344h29.5v45.625h15.344v-45.625h29.469v-15.344h-29.469v-22.625h-15.344z" fill="#fcdd09" stroke-linejoin="round" stroke-linecap="round" stroke-width="5"/><path d="m576.23 10.162c-26.17.053-51.02.198-70.798.478-79.11 1.122-156.7-.214-235.05 0-2.653.007-5.305.036-7.958.043-78.35.214-155.94 1.122-235.05 0-79.11-1.122-239.53 0-239.53 0 0 0 4.995 48.18 6.784 72.32 3.067 41.38 4.256 82.87 6.784 124.29 3.405 55.766 7.902 111.49 11.307 167.25 2.529 41.41 3.91 82.9 6.784 124.29 4.346 62.59 5.02 125.75 15.786 187.56 6.02 34.562 14.418 68.979 27.14 101.67 15.355 39.473 33.473 78.71 58.839 112.63 18.288 24.456 41.648 45.04 65.884 63.62 27.747 21.272 57.962 39.816 89.93 53.968 33.818 14.97 69.917 25.08 106.24 32.09 27.334 5.278 55.35 7.255 83.19 7.349 27.662.094 55.55-1.52 82.71-6.741 36.46-7.01 72.54-17.626 106.46-32.746 31.934-14.235 62.23-32.696 89.98-53.968 24.24-18.58 47.595-39.17 65.884-63.62 25.365-33.919 43.484-73.16 58.839-112.63 12.718-32.695 21.12-67.16 27.14-101.72 10.762-61.814 11.44-124.97 15.786-187.56 2.874-41.39 4.256-82.87 6.784-124.29 3.405-55.766 7.902-111.44 11.307-167.21 2.529-41.41 3.717-82.909 6.784-124.29 1.79-24.14 6.784-72.32 6.784-72.32 0 0-90.24-.636-168.73-.478z" fill="none" stroke-width="20"/></g><g font-family="Sans" text-anchor="middle" text-align="center" stroke="none" word-spacing="0" line-height="125%" letter-spacing="0"><text x="363.46" y="1013.35" transform="matrix(.9907.1361-.1361.9907 0 0)" fill="#090505" font-size="7.545"><tspan x="363.46" y="1013.35">Christian Duscha</tspan></text><text x="88.22" y="1105.37" transform="matrix(.96906-.24682.24682.96906 0 0)" fill="#070307" font-size="12.473"><tspan x="88.22" y="1105.37">Gleiwitz-Essen-Landshut</tspan></text></g></g></svg>