<svg xmlns="http://www.w3.org/2000/svg" xmlns:xlink="http://www.w3.org/1999/xlink" version="1.0" width="214.453" height="251.199"><path d="m17.717 806.79 3.862 162.27c2.76 115.906 201.969 115.906 204.728 0l3.863-162.27H17.717z" style="fill:#fff;fill-opacity:1;fill-rule:evenodd;stroke:none;stroke-width:2;stroke-linecap:butt;stroke-miterlimit:4;stroke-dashoffset:0;stroke-opacity:1" transform="translate(-16.717 -805.79)"/><path d="m17.724 806.8 2.907 121.562h206.656l2.875-121.563H17.724z" style="fill:#d43a29;fill-opacity:1;fill-rule:evenodd;stroke:#000;stroke-width:.99921262;stroke-linecap:butt;stroke-linejoin:miter;stroke-miterlimit:4;stroke-dasharray:none;stroke-opacity:1" transform="translate(-16.717 -805.79)"/><path d="M144.86 925.569c0-22.183 23.206-42.107 36.117-30.658 5.883 5.217 7.09 30.62 28.451 24.504-7.702-19.587 24.059-40.85 4.164-64.358-20.018-23.653-80.232.753-80.02 69.93.213-45.971 19.821-60.302 19.172-80.846-.538-17.036-15.688-20.846-22.642-25.796-4.791-3.41-3.648-6.816-6.159-6.816-2.51 0-1.367 3.407-6.159 6.816-6.954 4.95-22.104 8.76-22.642 25.796-.649 20.544 18.96 34.875 19.172 80.847.212-69.178-60.002-93.584-80.02-69.931-19.894 23.508 11.867 44.771 4.164 64.358 21.362 6.116 22.568-19.287 28.452-24.504 12.91-11.449 36.117 8.475 36.117 30.658" style="fill:#fff;fill-opacity:1;fill-rule:evenodd;stroke:#000;stroke-width:.99999994px;stroke-linecap:butt;stroke-linejoin:round;stroke-opacity:1" transform="translate(-16.717 -805.79)"/><path d="M144.13 931.189c0 54.983 61.198 40.87 38.423 18.458 20.816.034 41.765 23.143 23.204 45.531-18.484 22.296-74.241 5.979-74.241-63.428 0 44.559 17.947 62.18 17.357 77.313-.589 15.127-13.044 21.212-18.415 25.245-5.371 4.033-4.219 6.93-6.515 6.93-2.296 0-1.143-2.897-6.514-6.93-5.371-4.033-17.827-10.118-18.416-25.245-.59-15.134 17.357-32.754 17.357-77.313 0 69.407-55.757 85.724-74.241 63.428-18.56-22.388 2.388-45.497 23.204-45.53-22.775 22.41 38.423 36.524 38.423-18.46" style="fill:#d43a29;fill-opacity:1;fill-rule:evenodd;stroke:#000;stroke-width:.99999988px;stroke-linecap:butt;stroke-linejoin:round;stroke-opacity:1" transform="translate(-16.717 -805.79)"/><path d="M123.943 822.047v202.198" style="fill:none;fill-opacity:.75;fill-rule:evenodd;stroke:#000;stroke-width:.9992125;stroke-linecap:round;stroke-linejoin:miter;stroke-miterlimit:4;stroke-dasharray:none;stroke-opacity:1" transform="translate(-16.717 -805.79)"/><g transform="translate(-17.579 -805.79)" style="stroke:#000"><path d="M63.332 872.71c52.594 1.18 66.701 100.812 14.917 109.398" id="a" style="fill:none;fill-opacity:.75;fill-rule:evenodd;stroke:#000;stroke-width:.99999994px;stroke-linecap:round;stroke-linejoin:miter;marker:none;marker-start:none;marker-mid:none;marker-end:none;stroke-miterlimit:4;stroke-dasharray:none;stroke-dashoffset:0;stroke-opacity:1;visibility:visible;display:inline;overflow:visible;enable-background:accumulate"/><use transform="matrix(-1 0 0 1 249.611 0)" style="stroke:#000" width="248.031" height="248.031" xlink:href="#a"/></g><path style="fill:#d43a29;fill-opacity:1;fill-rule:evenodd;stroke:#000;stroke-width:.99999994px;stroke-linecap:butt;stroke-linejoin:round;marker:none;marker-start:none;marker-mid:none;marker-end:none;stroke-miterlimit:4;stroke-dasharray:none;stroke-dashoffset:0;stroke-opacity:1;visibility:visible;display:inline;overflow:visible;enable-background:accumulate" d="M98.275 928.346h51.336v12.155H98.275z" transform="translate(-16.717 -805.79)"/><path style="fill:#fff;fill-opacity:1;fill-rule:evenodd;stroke:#000;stroke-width:.99999994px;stroke-linecap:butt;stroke-linejoin:round;marker:none;marker-start:none;marker-mid:none;marker-end:none;stroke-miterlimit:4;stroke-dasharray:none;stroke-dashoffset:0;stroke-opacity:1;visibility:visible;display:inline;overflow:visible;enable-background:accumulate" d="M98.275 916.256h51.336v12.09H98.275z" transform="translate(-16.717 -805.79)"/><path d="M99.034 921.884h49.818a6.48 6.48 0 0 1 6.495 6.495H92.539a6.48 6.48 0 0 1 6.495-6.495z" style="fill:#fff;fill-opacity:1;fill-rule:evenodd;stroke:#000;stroke-width:.99999994px;stroke-linecap:butt;stroke-linejoin:miter;marker:none;marker-start:none;marker-mid:none;marker-end:none;stroke-miterlimit:4;stroke-dashoffset:0;stroke-opacity:1;visibility:visible;display:inline;overflow:visible;enable-background:accumulate" transform="translate(-16.717 -805.79)"/><path d="M99.034 934.84h49.818a6.48 6.48 0 0 0 6.495-6.494H92.539a6.48 6.48 0 0 0 6.495 6.495z" style="fill:#d43a29;fill-opacity:1;fill-rule:evenodd;stroke:#000;stroke-width:.99999994px;stroke-linecap:butt;stroke-linejoin:miter;marker:none;marker-start:none;marker-mid:none;marker-end:none;stroke-miterlimit:4;stroke-dashoffset:0;stroke-opacity:1;visibility:visible;display:inline;overflow:visible;enable-background:accumulate" transform="translate(-16.717 -805.79)"/><path d="m17.717 806.79 3.862 162.27c2.76 115.906 201.969 115.906 204.728 0l3.863-162.27H17.717z" style="fill:none;fill-opacity:1;fill-rule:evenodd;stroke:#000;stroke-width:2;stroke-linecap:butt;stroke-miterlimit:4;stroke-dashoffset:0;stroke-opacity:1" transform="translate(-16.717 -805.79)"/></svg>