<svg xmlns="http://www.w3.org/2000/svg" version="1.0" width="210.667" height="246.763"><path d="m49.62 791.37 3.794 159.38c2.71 113.844 198.369 113.844 201.079 0l3.794-159.38H49.62z" style="fill:#fff;fill-opacity:1;fill-rule:evenodd;stroke:#000;stroke-width:2;stroke-linecap:butt;stroke-miterlimit:4;stroke-dashoffset:0;stroke-opacity:1" transform="translate(-48.62 -790.37)"/><path d="M171.719 207.188c-.47-.01-.937.007-1.406.03-13.15.833-23.601 11.582-28.157 23.376-2.03 4.894-2.296 12.365-.437 17.687 17.021-2.384 33.327-8.217 46.906-17.5 1.338-7.748-.734-16.478-7.594-20.844-2.786-1.816-6.028-2.689-9.312-2.75z" transform="translate(-18.562 -3.755)" style="color:#000;fill:#507931;fill-opacity:1;fill-rule:evenodd;stroke:#000;stroke-width:1.0000001pt;stroke-linecap:butt;stroke-linejoin:miter;marker:none;marker-start:none;marker-mid:none;marker-end:none;stroke-miterlimit:4;stroke-dashoffset:0;stroke-opacity:1;visibility:visible;display:inline;overflow:visible;enable-background:accumulate"/><path d="M124.718 46.875c-5.98-3.053-14.39-5.545-19-5.919-4.605-.373-5.752-1.176-8.597-3.426-2.845-2.25-5.42-5.17-3.302-7.662s3.5-3.058 3.676-1.184c.175 1.874 2.928 6.043 7.662 6.541 4.735.499 18.44 6.354 20.184 7.974" transform="translate(-18.562 -3.755)" style="opacity:1;color:#000;fill:#b10d16;fill-opacity:1;fill-rule:evenodd;stroke:#000;stroke-width:1px;stroke-linecap:butt;stroke-linejoin:miter;marker:none;marker-start:none;marker-mid:none;marker-end:none;stroke-miterlimit:4;stroke-dasharray:none;stroke-dashoffset:0;stroke-opacity:1;visibility:visible;display:inline;overflow:visible;enable-background:accumulate"/><path d="M148.64 18.654c7.2-7.87 18.018-6.932 14.891 7.549" transform="translate(-18.562 -3.755)" style="opacity:1;color:#000;fill:#000;fill-opacity:1;fill-rule:evenodd;stroke:none;stroke-width:1px;stroke-linecap:round;stroke-linejoin:round;marker:none;marker-start:none;marker-mid:none;marker-end:none;stroke-miterlimit:4;stroke-dasharray:none;stroke-dashoffset:0;stroke-opacity:.55035975;visibility:visible;display:inline;overflow:visible;enable-background:accumulate"/><path d="M82.353 813.821c5.98-.24 9.868 4.557 10.313 8.142.445 3.585.869 11.636-3.562 11.055-4.42-.579-3.826-12.009-1.488-11.169 2.31.83-1.136-3.097-5.263-8.028z" style="opacity:1;color:#000;fill:#000;fill-opacity:1;fill-rule:evenodd;stroke:#fff;stroke-width:1px;stroke-linecap:butt;stroke-linejoin:miter;marker:none;marker-start:none;marker-mid:none;marker-end:none;stroke-miterlimit:4;stroke-dasharray:none;stroke-dashoffset:0;stroke-opacity:1;visibility:visible;display:inline;overflow:visible;enable-background:accumulate" transform="translate(-48.62 -790.37)"/><path d="M85.349 810.297c6.244-.944 9.868 4.557 10.312 8.142.445 3.585-1.862 11.195-5.059 9.117-3.197-2.078-3.11-6.766-1.312-8.35 1.761-1.55.186-3.978-3.941-8.909z" style="opacity:1;color:#000;fill:#000;fill-opacity:1;fill-rule:evenodd;stroke:#fff;stroke-width:1px;stroke-linecap:butt;stroke-linejoin:miter;marker:none;marker-start:none;marker-mid:none;marker-end:none;stroke-miterlimit:4;stroke-dasharray:none;stroke-dashoffset:0;stroke-opacity:1;visibility:visible;display:inline;overflow:visible;enable-background:accumulate" transform="translate(-48.62 -790.37)"/><path d="M88.96 806.157c6.422-1.473 10.133 4.468 10.578 8.053.445 3.585-2.039 12.605-5.236 10.527-3.196-2.079-2.934-8.176-1.135-9.76 1.76-1.55 1.154-3.537-4.206-8.82z" style="opacity:1;color:#000;fill:#000;fill-opacity:1;fill-rule:evenodd;stroke:#fff;stroke-width:1px;stroke-linecap:butt;stroke-linejoin:miter;marker:none;marker-start:none;marker-mid:none;marker-end:none;stroke-miterlimit:4;stroke-dasharray:none;stroke-dashoffset:0;stroke-opacity:1;visibility:visible;display:inline;overflow:visible;enable-background:accumulate" transform="translate(-48.62 -790.37)"/><path d="M66.516 16.766c6.554-.671 9.78 7.048 9.78 10.66s-4.396 11.002-7.313 8.546c-2.916-2.456-2.244-8.605-.264-9.955 1.938-1.322 2.467-3.348-2.203-9.251z" transform="translate(-18.562 -3.755)" style="opacity:1;color:#000;fill:#000;fill-opacity:1;fill-rule:evenodd;stroke:#fff;stroke-width:1px;stroke-linecap:butt;stroke-linejoin:miter;marker:none;marker-start:none;marker-mid:none;marker-end:none;stroke-miterlimit:4;stroke-dasharray:none;stroke-dashoffset:0;stroke-opacity:1;visibility:visible;display:inline;overflow:visible;enable-background:accumulate"/><path d="M122.175 889.96c4.618.588 8.181-1.547 13.606-4.9-3.421-4.351-12.57-8.257-17.245-10.323.558-1.318 16.308-9.903 19.744-12.546-1.07.056-2.935.678-4.537 1.12 2.191-2.62 4.603-6.648 9.509-8.579-.665-.332-2.264-.353-3.24-1.059 2.243-1.703 4.672-2.97 7.164-3.675-.498-.582-1.495-1.101-1.993-1.682 2.076-.416 4.323-.8 6.416-1.371.748-2.243 1.377-4.635 10.342-3.987l37.69-20.558c0 11.65-5.18 25.496-4.175 30.09.873 3.986 5.732 11.275 5.794 16.197-.545-.016-1.64.207-2.305.124 0 1.661.374 2.326.374 3.987-.415-.166-1.205-.207-1.682-.187.457 2.596.415 5.192.249 7.85-.81-.291-1.62-.457-2.367-.748.498 2.513.623 5.462.872 8.036-.582-.249-1.91-1.557-2.492-1.806 1.578 10.798 3.56 20.707 5.2 32.128 5.311 2.18 10.843 5.857 11.574 13.059-2.119-.084-2.695.186-4.813.103 0 0 5.929 6.727 5.804 8.845-.124 2.118 2.725 3.455 3.914 6.23-1.135-.122-1.993.084-2.99.125 2.14 2.186 3.797 4.284 4.748 6.955-.872-.042-1.26.313-2.131.272 2.089 2.525 4.266 4.699 4.901 7.974-.747.623-.79 1.246-1.537 1.869 2.515.841 3.928 5.383 4.901 8.868-.742.022-1.484.065-2.227.065 2.29 3.524 3.613 11.92 1.428 15.823-2.11 3.77-21.438 18.435-23.487 22.59-1.257-9.414.085-7.09 2.822-11.348-2.485 3.209-7.44 5.704-10.549 10.878-1.655-10.95 4.732-12.593 4.721-13.09-5.228 5.824-5.322 3.536-10.401 6.608 1.573-5.077 2.693-7.246 7.441-10.001-3.753 2.267-5.549 3.496-6.42 3.122-.873-.373-.426-2.185-2.17-.814-1.745 1.37-2.48 1.922-5.057 4.054 5.061-15.2 15.427-10.037 20.249-12.6 4.752-2.525 7.99-3.56 3.305-10.468-4.643-6.848-10.098-10.323-23.056-21.91-12.958-11.588-15.823-15.45-17.63-26.788-10.978-8.12-16.8-14.394-18.09-20.292-3.292 1.4-5.729 2.223-8.707 2.45-.039-.798-.133-1.77-.009-2.518-1.612 1.298-4.098 2.224-6.637 2.732 0-.94-.177-1.263-.177-2.203-1.82 1.556-4.434 1.88-6.343 2.203.294-.764-.117-1.968.088-2.908" style="color:#000;fill:#000;fill-opacity:1;fill-rule:evenodd;stroke:none;stroke-width:1px;stroke-linecap:butt;stroke-linejoin:miter;marker:none;marker-start:none;marker-mid:none;marker-end:none;stroke-miterlimit:4;stroke-dashoffset:0;stroke-opacity:.55035975;visibility:visible;display:inline;overflow:visible;enable-background:accumulate" transform="translate(-48.62 -790.37)"/><path d="M156.468 46.632c-6.432 20.616-26.343 12.687-39.91 4.67-.494.657-.088 2.085-.088 2.907-3.7-1.527-7.355-3.396-11.013-5.022 5.41-3.006 12.542-3.802 17.339-4.367 4.623-.545-3.493-16.892-13.286-17.482-4.28-.258-6.038-1.976-3.612-4.229 2.466-2.29 3.612-2.29 3.436-3.7-.18-1.442.384-2.488 2.554-1.674 2.115.793 9.78 2.555 12.423 3.26 2.643.705 6.419.26 8.281-1.674 1.82-1.889 17.885-6.343 30.219 4.053-3.257 2.81-4.317 4.316-4.317 4.316 8.81-12.657 27.198-.104 11.894 12.247-1.182.953-4.141.44-4.141.44" transform="translate(-18.562 -3.755)" style="opacity:1;color:#000;fill:#000;fill-opacity:1;fill-rule:evenodd;stroke:#fff;stroke-width:1px;stroke-linecap:round;stroke-linejoin:round;marker:none;marker-start:none;marker-mid:none;marker-end:none;stroke-miterlimit:4;stroke-dasharray:none;stroke-dashoffset:0;stroke-opacity:1;visibility:visible;display:inline;overflow:visible;enable-background:accumulate"/><path d="M101.42 85.619c.062-2.747 4.297-7.499 6.854-9.997-1.907.263-4.193.959-7.37 3.067 2.15-1.333 4.706-3.975 6.285-6.745-10.716-8.223-26.175-18.61-28.63-21.36-2.413-2.701-1.657-7.855.494-11.834 2.114-3.91 6.391-16.233-2.254-20.427 1.046 2.854 1.882 8.181.094 8.012-1.784-.17-5.326 4.34-5.795 5.849-.482 1.548-1.155 22.102-4.683 31.94l4.427 4.338c-1.26-.06-2.273.131-3.534.072 2.192 2.28 4.82 3.685 7.324 4.78-.885.315-2.005-.016-2.902.26 1.557 2.118 5.483 4.124 5.269 5.384-.225 1.32 5.233 4.111 5.233 4.111-1.35.27-2.022 1.011-2.99 1.495 2.928 1.62 6.105 1.964 9.55 4.852" transform="translate(-18.562 -3.755)" style="opacity:1;color:#000;fill:#000;fill-opacity:1;fill-rule:evenodd;stroke:#fff;stroke-width:1px;stroke-linecap:round;stroke-linejoin:round;marker:none;marker-start:none;marker-mid:none;marker-end:none;stroke-miterlimit:4;stroke-dasharray:none;stroke-dashoffset:0;stroke-opacity:1;visibility:visible;display:inline;overflow:visible;enable-background:accumulate"/><path d="M138.277 28.427c1.6-1.036 2.952-1.077 6.297-.12-4.835-2.635-7.303-3.028-11.515-3.42.792-.71 1.896-1.483 3.498-2.13" transform="translate(-18.562 -3.755)" style="fill:none;fill-opacity:.75;fill-rule:evenodd;stroke:#fff;stroke-width:1px;stroke-linecap:round;stroke-linejoin:round;stroke-opacity:1"/><path d="M63.609 102.665c-2.273-2.63-1.535-7.914-2.084-8.634-.507-.666-5.001-1.24-7.938-1.298 3.814-6.788 16.35-.993 18.046-1.053m33.18 6.727c12.792-7.924 28.263-22.252 39.974-11.57m1.109 21.818c-5.55 9.898-10.444 7.332-12.687 5.463-3.485 2.972-6.183 4.42-10.022 6.133.352-1.095.523-1.823.683-2.785-3.987 2.865-15.132 6.871-18.286 6.57-.039-.799-.133-1.77-.009-2.518-1.612 1.297-4.098 2.224-6.637 2.731 0-.94-.177-1.262-.177-2.202-1.82 1.556-4.434 1.88-6.343 2.202" transform="translate(-18.562 -3.755)" style="opacity:1;color:#000;fill:none;fill-opacity:1;fill-rule:evenodd;stroke:#fff;stroke-width:1px;stroke-linecap:round;stroke-linejoin:round;marker:none;marker-start:none;marker-mid:none;marker-end:none;stroke-miterlimit:4;stroke-dasharray:none;stroke-dashoffset:0;stroke-opacity:1;visibility:visible;display:inline;overflow:visible;enable-background:accumulate"/><path d="M71.098 32.184c-.353 8.105 1.497 21.673 1.057 25.285-.44 3.612-3.965 11.893-9.163.969-3.316-6.97-9.338-15.506 8.106-26.254z" transform="translate(-18.562 -3.755)" style="opacity:1;color:#000;fill:#000;fill-opacity:1;fill-rule:evenodd;stroke:#fff;stroke-width:1px;stroke-linecap:butt;stroke-linejoin:miter;marker:none;marker-start:none;marker-mid:none;marker-end:none;stroke-miterlimit:4;stroke-dasharray:none;stroke-dashoffset:0;stroke-opacity:1;visibility:visible;display:inline;overflow:visible;enable-background:accumulate"/><path d="M36.298 109.536c.039 3.987 1.822 7.85 4.229 12.335 23.493-9.633 49.179-21.29 70.48-28.898 21.262-7.592 47.4-17.52 57.09-21.144 9.8-3.664 16.713-4.485 21.144-4.581 4.557-.096 13.847.427 20.895 1.014 1.431-2.637 2.987-6.645 3.421-10.529-7.738-1.328-15.726-2.905-23.963-2.114 6.247-5.553 12.12-13.35 17.62-21.145-3.642-2.584-7.408-4.42-10.925-7.753-5.602 9.124-13.75 17.343-18.802 22.512-5.05 5.168-7.101 6.866-11.255 8.002-4.27 1.167-14.481 5.75-34.226 15.256-19.694 9.481-74.105 26.69-95.708 37.045z" transform="translate(-18.562 -3.755)" style="opacity:1;color:#000;fill:#efde31;fill-opacity:1;fill-rule:evenodd;stroke:#000;stroke-width:1px;stroke-linecap:butt;stroke-linejoin:miter;marker:none;marker-start:none;marker-mid:none;marker-end:none;stroke-miterlimit:4;stroke-dasharray:none;stroke-dashoffset:0;stroke-opacity:1;visibility:visible;display:inline;overflow:visible;enable-background:accumulate"/><path d="M141.788 29.556a2.554 2.554 0 1 1-5.109 0 2.554 2.554 0 1 1 5.109 0z" transform="translate(-19.559 -4.877)" style="opacity:1;color:#000;fill:none;fill-opacity:.75;fill-rule:evenodd;stroke:#fff;stroke-width:1pt;stroke-linecap:round;stroke-linejoin:round;marker:none;marker-start:none;marker-mid:none;marker-end:none;stroke-miterlimit:4;stroke-dasharray:none;stroke-dashoffset:0;stroke-opacity:1;visibility:visible;display:inline;overflow:visible;enable-background:accumulate"/><path d="M162.097 30.49c5.606-5.73 14.079-2.117 7.724 4.86" transform="translate(-18.562 -3.755)" style="fill:none;fill-opacity:.75;fill-rule:evenodd;stroke:#fff;stroke-width:1px;stroke-linecap:round;stroke-linejoin:round;stroke-opacity:1"/><path d="M122.564 907.956c-13.714 1.116-21.415-9.727-25.598-9.412-4.175.315-3.933-9.86-13.871-4.684 1.321-4.346 7.048-3.054 10.572-4.581-2.007-1.181-4.284-2.336-3.357-2.726 2.772-1.166 1.67-5.386 1.273-5.908-.507-.666-5.001-1.239-7.938-1.298 3.814-6.788 16.35-.993 18.046-1.053l-.581-4.025c1.786-1.942-1.305-4.347-4.15-6.396 20.034-1.152 10.345 21.073 25.215 22.086" style="color:#000;fill:#000;fill-opacity:1;fill-rule:evenodd;stroke:none;stroke-width:1px;stroke-linecap:butt;stroke-linejoin:miter;marker:none;marker-start:none;marker-mid:none;marker-end:none;stroke-miterlimit:4;stroke-dashoffset:0;stroke-opacity:.55035975;visibility:visible;display:inline;overflow:visible;enable-background:accumulate" transform="translate(-48.62 -790.37)"/><path d="M83.706 886.196c4.798-4.797 10.518-2.807 14.63-.69" style="opacity:1;color:#000;fill:#000;fill-opacity:1;fill-rule:evenodd;stroke:#fff;stroke-width:1px;stroke-linecap:round;stroke-linejoin:miter;marker:none;marker-start:none;marker-mid:none;marker-end:none;stroke-miterlimit:4;stroke-dasharray:none;stroke-dashoffset:0;stroke-opacity:1;visibility:visible;display:inline;overflow:visible;enable-background:accumulate" transform="translate(-48.62 -790.37)"/><path d="M97.588 890.74c-1.755-.408-3.17-1.018-4.705-1.475" style="opacity:1;color:#000;fill:#000;fill-opacity:1;fill-rule:evenodd;stroke:#fff;stroke-width:1px;stroke-linecap:round;stroke-linejoin:miter;marker:none;marker-start:none;marker-mid:none;marker-end:none;stroke-miterlimit:4;stroke-dasharray:none;stroke-dashoffset:0;stroke-opacity:1;visibility:visible;display:inline;overflow:visible;enable-background:accumulate" transform="translate(-48.62 -790.37)"/><path d="M70.77 94.033a526.547 526.547 0 0 0-5.81-4.327c-1.402-2.595-5.627-4.105-8.27-6.014 12.03-2.596 17.111 4.527 22.303 11.463" transform="translate(-18.562 -3.755)" style="opacity:1;color:#000;fill:#000;fill-opacity:1;fill-rule:evenodd;stroke:#fff;stroke-width:1px;stroke-linecap:round;stroke-linejoin:miter;marker:none;marker-start:none;marker-mid:none;marker-end:none;stroke-miterlimit:4;stroke-dasharray:none;stroke-dashoffset:0;stroke-opacity:1;visibility:visible;display:inline;overflow:visible;enable-background:accumulate"/><path d="M126.513 133.698C88.757 145.016 92.395 186.58 90.9 193.539c-1.521 7.079-11.59.34-15.813-2.18-4.168-2.49-6.86-1.486-8.13 1.169 3.107-.02 4.952-.241 4.67.793-.264.969-.928 3.393.705 4.58 1.633 1.189-.736 2.189-.264 5.728.341 2.562-.025 2.406-3.507 3.098-3.566.709-4.44 3.116-5.48 5.712 3.278-1.898 11.454-4.053 17.62-.881 6.168 3.171 10.549 4.872 14.097 3.524 4.405-1.674 8.436-5.517 8.634-8.018.485.68 1.321 1.91 1.85 2.555.206-1.938.18-4.052.617-5.99l3.171.528c-.318-2.308-.135-4.866 0-7.4h2.29c-.322-2.82.289-5.639.882-8.458l2.29.176c.353-2.649.705-4.86 1.058-7.048l2.995 1.586c-.184-2.526.243-5.051 1.234-7.577 1.057.529 1.762.793 2.378 1.498.5-3.201 2.32-6.05 4.141-8.194.118 1.263.235 2.262.529 3.084 2.317-6.452 11.252-10.79 22.73-12.598" transform="translate(-18.562 -3.755)" style="opacity:1;color:#000;fill:#000;fill-opacity:1;fill-rule:evenodd;stroke:none;stroke-width:1px;stroke-linecap:butt;stroke-linejoin:miter;marker:none;marker-start:none;marker-mid:none;marker-end:none;stroke-miterlimit:4;stroke-dasharray:none;stroke-dashoffset:0;stroke-opacity:1;visibility:visible;display:inline;overflow:visible;enable-background:accumulate"/><path d="M90.026 993.53c.337-4.11 2.005-4.393 4.41-5.747 3.154-1.776 6.619-1.673 7.726 3.442 1.089 5.031-6.907 3.105-7.476 1.082-.545-1.938-1.97-.852-4.66 1.224z" style="opacity:1;color:#000;fill:#000;fill-opacity:1;fill-rule:evenodd;stroke:#fff;stroke-width:1px;stroke-linecap:butt;stroke-linejoin:miter;marker:none;marker-start:none;marker-mid:none;marker-end:none;stroke-miterlimit:4;stroke-dasharray:none;stroke-dashoffset:0;stroke-opacity:1;visibility:visible;display:inline;overflow:visible;enable-background:accumulate" transform="translate(-48.62 -790.37)"/><path d="M90.291 985.353c1.729-3.744 3.393-3.438 6.116-3.884 3.573-.584 8.647 2.834 6.276 6.617-2.397 3.824-7.755-.187-7.595-2.282.154-2.007-1.557-1.477-4.797-.451z" style="opacity:1;color:#000;fill:#000;fill-opacity:1;fill-rule:evenodd;stroke:#fff;stroke-width:1px;stroke-linecap:butt;stroke-linejoin:miter;marker:none;marker-start:none;marker-mid:none;marker-end:none;stroke-miterlimit:4;stroke-dasharray:none;stroke-dashoffset:0;stroke-opacity:1;visibility:visible;display:inline;overflow:visible;enable-background:accumulate" transform="translate(-48.62 -790.37)"/><path d="M168.528 201.678c-4.607-8.503-16.592-2.634-16.773.69 6.986-3.09 9.188-.456 16.773-.69z" transform="translate(-18.562 -3.755)" style="opacity:1;color:#000;fill:#000;fill-opacity:1;fill-rule:evenodd;stroke:none;stroke-width:1px;stroke-linecap:round;stroke-linejoin:round;marker:none;marker-start:none;marker-mid:none;marker-end:none;stroke-miterlimit:4;stroke-dasharray:none;stroke-dashoffset:0;stroke-opacity:1;visibility:visible;display:inline;overflow:visible;enable-background:accumulate"/><path d="M179.57 1000.258c5.062-15.2 15.428-10.037 20.25-12.6 4.752-2.525 7.99-3.56 3.305-10.468-4.643-6.848-10.098-10.323-23.056-21.91-12.958-11.588-15.823-15.45-17.63-26.788-10.978-8.12-16.8-14.394-18.09-20.292" style="color:#000;fill:none;fill-opacity:1;fill-rule:evenodd;stroke:#fff;stroke-width:1px;stroke-linecap:butt;stroke-linejoin:miter;marker:none;marker-start:none;marker-mid:none;marker-end:none;stroke-miterlimit:4;stroke-dashoffset:0;stroke-opacity:1;visibility:visible;display:inline;overflow:visible;enable-background:accumulate" transform="translate(-48.62 -790.37)"/><path d="m128.082 138.513-7.475.873c4.984 1.869 8.597 3.987 12.335 6.728" transform="translate(-18.562 -3.755)" style="fill:none;fill-opacity:.75;fill-rule:evenodd;stroke:#fff;stroke-width:1px;stroke-linecap:butt;stroke-linejoin:round;stroke-opacity:1"/><path d="M70.146 193.584c1.745 4.61 5.358 7.351 9.345 7.476 3.987.124 16.446 5.482 18.19 7.6" transform="translate(-18.562 -3.755)" style="fill:none;fill-opacity:.75;fill-rule:evenodd;stroke:#fff;stroke-width:1px;stroke-linecap:round;stroke-linejoin:round;stroke-opacity:1"/><path d="m166.07 210.765-4.316 4.405M171.621 213.143l-3.172 3.7M162.635 207.329l-6.167 4.317" transform="translate(-18.562 -3.755)" style="fill:none;fill-opacity:.75;fill-rule:evenodd;stroke:#fff;stroke-width:1px;stroke-linecap:round;stroke-linejoin:miter;stroke-opacity:1"/><path d="M119.797 32.235c-3.115-3.053-7.226-5.482-10.777-5.794l-.25 6.043 2.742-5.42.56 7.227 3.177-5.482c-.311 3.364-.498 5.357 4.548 3.426z" transform="translate(-18.562 -3.755)" style="opacity:1;color:#000;fill:#fff;fill-opacity:1;fill-rule:evenodd;stroke:#000;stroke-width:1px;stroke-linecap:butt;stroke-linejoin:round;marker:none;marker-start:none;marker-mid:none;marker-end:none;stroke-miterlimit:4;stroke-dasharray:none;stroke-dashoffset:0;stroke-opacity:1;visibility:visible;display:inline;overflow:visible;enable-background:accumulate"/><path d="M116.06 46.688c-1.496.249-5.171 1.433-6.106 1.62-.062-.748-.623-7.227-.623-7.227l3.551 6.417.062-6.355 3.115 5.545z" transform="translate(-18.562 -3.755)" style="opacity:1;color:#000;fill:#fff;fill-opacity:1;fill-rule:evenodd;stroke:#000;stroke-width:1px;stroke-linecap:butt;stroke-linejoin:round;marker:none;marker-start:none;marker-mid:none;marker-end:none;stroke-miterlimit:4;stroke-dasharray:none;stroke-dashoffset:0;stroke-opacity:1;visibility:visible;display:inline;overflow:visible;enable-background:accumulate"/><path d="m49.62 791.37 3.794 159.38c2.71 113.844 198.369 113.844 201.079 0l3.794-159.38H49.62z" style="fill:none;fill-opacity:1;fill-rule:evenodd;stroke:#000;stroke-width:2;stroke-linecap:butt;stroke-miterlimit:4;stroke-dashoffset:0;stroke-opacity:1" transform="translate(-48.62 -790.37)"/><path d="M77.563 207.188c-10.702.34-20.249 10.813-18.626 21.656.093.681.238 1.358.376 2.031 13.524 9.206 29.763 14.991 46.687 17.375 1.368-5.393 1.465-12.771-.125-17.313-3.392-9.828-11.02-18.48-20.625-22.406-2.415-.912-5.037-1.44-7.688-1.344z" transform="translate(-18.562 -3.755)" style="color:#000;fill:#507931;fill-opacity:1;fill-rule:evenodd;stroke:#000;stroke-width:1.0000001pt;stroke-linecap:butt;stroke-linejoin:miter;marker:none;marker-start:none;marker-mid:none;marker-end:none;stroke-miterlimit:4;stroke-dashoffset:0;stroke-opacity:1;visibility:visible;display:inline;overflow:visible;enable-background:accumulate"/><path d="M123.844 201.875c-19.901 0-28.375 16.814-28.375 37.531 0 2.404.173 4.753.5 7.031 18.134 4.097 37.578 4.11 55.719.032.33-2.288.5-4.648.5-7.063 0-20.717-8.796-37.531-28.344-37.531z" transform="translate(-18.562 -3.755)" style="color:#000;fill:#507931;fill-opacity:1;fill-rule:evenodd;stroke:#000;stroke-width:1pt;stroke-linecap:butt;stroke-linejoin:miter;marker:none;marker-start:none;marker-mid:none;marker-end:none;stroke-miterlimit:4;stroke-dashoffset:0;stroke-opacity:1;visibility:visible;display:inline;overflow:visible;enable-background:accumulate"/><path d="m49.62 791.37 3.794 159.38c2.71 113.844 198.369 113.844 201.079 0l3.794-159.38H49.62z" style="fill:none;fill-opacity:1;fill-rule:evenodd;stroke:#000;stroke-width:2;stroke-linecap:butt;stroke-miterlimit:4;stroke-dashoffset:0;stroke-opacity:1" transform="translate(-48.62 -790.37)"/></svg>