<svg xmlns="http://www.w3.org/2000/svg" version="1.0" width="223.671" height="261.996"><path d="m15.864 812.277 4.03 169.3c2.88 120.928 210.732 120.928 213.611 0l4.03-169.3H15.866z" style="fill:#2f73c9;fill-opacity:1;fill-rule:evenodd;stroke:#000;stroke-width:2;stroke-linecap:butt;stroke-miterlimit:4;stroke-dashoffset:0;stroke-opacity:1" transform="translate(-14.864 -811.277)"/><path d="M46.34 961.743c-1.942-54.818 33.629-82.243 40.181-79.971 5.77 2 9.628-2.206 12.89-5.553 3.998-4.102 13.99 3.172 20.439 9.208 2.808 2.629 7.975 3.19 7.959-1.603-.027-7.89 3.68-11.034 6.831-8.48 1.698 1.377 3.384 4.7 6.047 1.758 1.525 1.579 6.717 3.14 8.079 1.138 1.3-1.912 4.88-1.928 6.387.25 2.33 3.365 6.912 7.125 11.845 3.282 29.03 24.09 35.078 45.915 35.303 83.503 53.486-175.09-206.986-179.794-155.96-3.532z" style="fill:#ffff08;fill-opacity:1;fill-rule:evenodd;stroke:#000;stroke-width:.99999994px;stroke-linecap:butt;stroke-linejoin:round;stroke-opacity:1" transform="translate(-14.864 -811.277)"/><path d="M97.282 862.419c-3.537 2.284-5.259 8.029-4.141 14.052" style="fill:none;fill-opacity:.75;fill-rule:evenodd;stroke:#000;stroke-width:.99921256;stroke-linecap:round;stroke-linejoin:miter;stroke-miterlimit:4;stroke-dasharray:none;stroke-opacity:1" transform="translate(-14.864 -811.277)"/><path d="M111.353 866.177c.076-1.9-1.994-7.11-2.974-8.706-1.5 2.559-3.062 7.806-3.591 12.626l-3.559-1.716" style="fill:none;fill-opacity:.75;fill-rule:evenodd;stroke:#000;stroke-width:.99921256;stroke-linecap:round;stroke-linejoin:round;stroke-miterlimit:4;stroke-dasharray:none;stroke-opacity:1" transform="translate(-14.864 -811.277)"/><path d="M120.234 869.617c14.044-5.104 3.816 5.91 5.107 9.208" style="fill:none;fill-opacity:.75;fill-rule:evenodd;stroke:#000;stroke-width:.99999994px;stroke-linecap:round;stroke-linejoin:miter;stroke-opacity:1" transform="translate(-14.864 -811.277)"/><path d="M141.036 876.932c0-2.317.368-5.917.696-10.617 2.552 1.8 4.153 7.974 4.19 12.336" style="fill:none;fill-opacity:.75;fill-rule:evenodd;stroke:#000;stroke-width:.99999994px;stroke-linecap:butt;stroke-linejoin:miter;stroke-opacity:1" transform="translate(-14.864 -811.277)"/><path d="M143.707 865.392c-1.626-.014-3.37.483-5.215 1.421" style="opacity:1;color:#000;fill:none;fill-opacity:.75;fill-rule:evenodd;stroke:#000;stroke-width:.99999994px;stroke-linecap:round;stroke-linejoin:miter;marker:none;marker-start:none;marker-mid:none;marker-end:none;stroke-miterlimit:4;stroke-dasharray:none;stroke-dashoffset:0;stroke-opacity:1;visibility:visible;display:inline;overflow:visible;enable-background:accumulate" transform="translate(-14.864 -811.277)"/><path d="M103.743 47.723a2.81 1.305 0 1 1-5.619 0 2.81 1.305 0 1 1 5.62 0z" transform="matrix(.92127 -.14852 .13673 1.0007 -5.94 21.392)" style="opacity:1;color:#000;fill:none;fill-opacity:1;fill-rule:evenodd;stroke:#000;stroke-width:1.0302001pt;stroke-linecap:butt;stroke-linejoin:round;marker:none;marker-start:none;marker-mid:none;marker-end:none;stroke-miterlimit:4;stroke-dasharray:none;stroke-dashoffset:0;stroke-opacity:1;visibility:visible;display:inline;overflow:visible;enable-background:accumulate"/><path d="M98.52 872.127c3.168-.94 1.649-8.24 9.86-14.656" style="opacity:1;color:#000;fill:none;fill-opacity:.75;fill-rule:evenodd;stroke:#000;stroke-width:.99921256;stroke-linecap:round;stroke-linejoin:miter;marker:none;marker-start:none;marker-mid:none;marker-end:none;stroke-miterlimit:4;stroke-dasharray:none;stroke-dashoffset:0;stroke-opacity:1;visibility:visible;display:inline;overflow:visible;enable-background:accumulate" transform="translate(-14.864 -811.277)"/><path d="m119.201 95.787 16.624 50.366 53.039.246-42.764 31.375 16.155 50.519-43.054-30.976-43.054 30.976 16.156-50.519L49.538 146.4l53.039-.246 16.624-50.366z" transform="matrix(1.0166 0 0 1.01662 -9.345 -12.812)" style="fill:#ffff08;fill-opacity:1;fill-rule:evenodd;stroke:#000;stroke-width:.98288572;stroke-linecap:butt;stroke-linejoin:miter;stroke-miterlimit:4;stroke-dasharray:none;stroke-opacity:1"/></svg>