<svg xmlns="http://www.w3.org/2000/svg" version="1.0" width="206.786" height="242.218"><path d="m26.29 807.335 3.723 156.42c2.66 111.73 194.68 111.73 197.34 0l3.723-156.42H26.289z" style="fill:#316331;fill-opacity:1;fill-rule:evenodd;stroke:#000;stroke-width:2;stroke-linecap:butt;stroke-miterlimit:4;stroke-dashoffset:0;stroke-opacity:1" transform="translate(-25.29 -806.335)"/><path d="M77.293 1015.453c-.626-4.96 2.19-6.408 4.634-8.002l3.034 2.665c-2.357.874-5.809 3.297-7.668 5.337z" style="opacity:1;fill:#fde904;fill-opacity:1;fill-rule:evenodd;stroke:#000;stroke-width:1px;stroke-linecap:butt;stroke-linejoin:miter;marker:none;marker-start:none;marker-mid:none;marker-end:none;stroke-miterlimit:4;stroke-dasharray:none;stroke-dashoffset:0;stroke-opacity:1;visibility:visible;display:inline;overflow:visible;enable-background:accumulate" transform="translate(-25.29 -806.335)"/><path d="M93.346 1006.263c-.164 3.91-6.675 5.675-9.236 4.945-2.914-.83-4.283-4.333-.866-5.933 4.294-2.01 10.367-5.29 10.102.988z" style="opacity:1;fill:#fff;fill-opacity:1;fill-rule:evenodd;stroke:#000;stroke-width:1px;stroke-linecap:butt;stroke-linejoin:round;marker:none;marker-start:none;marker-mid:none;marker-end:none;stroke-miterlimit:4;stroke-dasharray:none;stroke-dashoffset:0;stroke-opacity:1;visibility:visible;display:inline;overflow:visible;enable-background:accumulate" transform="translate(-25.29 -806.335)"/><path d="M71.84 822.295c2.435 3.404 3.25 12.193 1.965 13.608-.996-.208-4.014-.501-4.411-1.769.613-1.272 2.099-7.569 2.447-11.84z" style="opacity:1;fill:#f7e239;fill-opacity:1;fill-rule:evenodd;stroke:#000;stroke-width:1px;stroke-linecap:butt;stroke-linejoin:miter;marker:none;marker-start:none;marker-mid:none;marker-end:none;stroke-miterlimit:4;stroke-dasharray:none;stroke-dashoffset:0;stroke-opacity:1;visibility:visible;display:inline;overflow:visible;enable-background:accumulate" transform="translate(-25.29 -806.335)"/><path d="M145.031 1005.444c5.084-2.457 8.92-2.147 11.546.463-.73.986-2.438 2.487-3.518 3.022-.785-1.262-4.399-3.375-8.028-3.485z" style="opacity:1;fill:#fde904;fill-opacity:1;fill-rule:evenodd;stroke:#000;stroke-width:1px;stroke-linecap:butt;stroke-linejoin:miter;marker:none;marker-start:none;marker-mid:none;marker-end:none;stroke-miterlimit:4;stroke-dasharray:none;stroke-dashoffset:0;stroke-opacity:1;visibility:visible;display:inline;overflow:visible;enable-background:accumulate" transform="translate(-25.29 -806.335)"/><path d="M160.066 1015.163c-2.288.596-14.32-2.181-10.82-5.178 1.224-.323 3.003-1.751 4.263-3.917 1.52-2.612 2.199-3.308 4.558-1.51 2.401 1.828 2.543 3.286 1.765 5.095-.693 1.614-1.14 5.23.234 5.51z" style="opacity:1;fill:#fff;fill-opacity:1;fill-rule:evenodd;stroke:#000;stroke-width:1px;stroke-linecap:butt;stroke-linejoin:round;marker:none;marker-start:none;marker-mid:none;marker-end:none;stroke-miterlimit:4;stroke-dasharray:none;stroke-dashoffset:0;stroke-opacity:1;visibility:visible;display:inline;overflow:visible;enable-background:accumulate" transform="translate(-25.29 -806.335)"/><path d="M39.771 828.113c4.859-3.054 10.18-1.198 11.965 3.202-.464.757-2.88 1.889-4.207 1.84-1.737-2.056-4.446-3.875-7.758-5.042z" style="opacity:1;fill:#f7e239;fill-opacity:1;fill-rule:evenodd;stroke:#000;stroke-width:1px;stroke-linecap:butt;stroke-linejoin:miter;marker:none;marker-start:none;marker-mid:none;marker-end:none;stroke-miterlimit:4;stroke-dasharray:none;stroke-dashoffset:0;stroke-opacity:1;visibility:visible;display:inline;overflow:visible;enable-background:accumulate" transform="translate(-25.29 -806.335)"/><path d="M53.565 816.921c4.59.78 8.235 5.126 9.014 9.443-1.392.043-4.587 1.389-5.463.583-.072-2.655-1.345-7.269-3.551-10.026z" style="opacity:1;fill:#f7e239;fill-opacity:1;fill-rule:evenodd;stroke:#000;stroke-width:1px;stroke-linecap:butt;stroke-linejoin:miter;marker:none;marker-start:none;marker-mid:none;marker-end:none;stroke-miterlimit:4;stroke-dasharray:none;stroke-dashoffset:0;stroke-opacity:1;visibility:visible;display:inline;overflow:visible;enable-background:accumulate" transform="translate(-25.29 -806.335)"/><path d="M51.329 841.702c4.569-3.295 3.571-8.082 3.316-11.148-.256-3.066-6.597.287-7.45 1.828-2.731 4.935 1.578 7.205 4.134 9.32z" style="opacity:1;fill:#fff;fill-opacity:1;fill-rule:evenodd;stroke:#000;stroke-width:1px;stroke-linecap:butt;stroke-linejoin:round;marker:none;marker-start:none;marker-mid:none;marker-end:none;stroke-miterlimit:4;stroke-dasharray:none;stroke-dashoffset:0;stroke-opacity:1;visibility:visible;display:inline;overflow:visible;enable-background:accumulate" transform="translate(-25.29 -806.335)"/><path d="M66.111 833.05c.023 1.686-6.362 3.26-7.86 3.349-1.566.091-4.091-.19-4.173-3.053-.082-2.863-.279-5.724 2.421-6.753 2.089-.796 5.846-2.664 7.707-.746 1.459 1.503 1.862 4.112 1.905 7.204z" style="opacity:1;fill:#fff;fill-opacity:1;fill-rule:evenodd;stroke:#000;stroke-width:1px;stroke-linecap:butt;stroke-linejoin:round;marker:none;marker-start:none;marker-mid:none;marker-end:none;stroke-miterlimit:4;stroke-dasharray:none;stroke-dashoffset:0;stroke-opacity:1;visibility:visible;display:inline;overflow:visible;enable-background:accumulate" transform="translate(-25.29 -806.335)"/><path d="M61.043 834.549c-4.208 4.625-4.418 11.152-2.371 26.493 2.914 5.366 5.718 10.685 7.304 13.786.831-1.15 1.078-2.688 1.212-4.302 2.35 5.844 5.833 11.265 10.062 16.405.352-1.262 1.072-2.524 1.424-3.698 1.293 3.847 8.176 12.835 9.909 14.656.264-1.263.525-2.628.68-3.766 3.74 4.825 8.654 9.267 16.411 11.484l1.624-32.036c-12.594-3.509-26.618-12.64-38.342-21.586-4.46-3.404-2.975-6.036.791-8.019 3.48-1.832 5.743-2.467 4.229-6.96-.352-1.043-1.839-4.55-4.913-4.821-2.98-.263-5.707.057-8.02 2.364z" style="opacity:1;fill:#fff;fill-opacity:1;fill-rule:evenodd;stroke:#000;stroke-width:1px;stroke-linecap:butt;stroke-linejoin:round;marker:none;marker-start:none;marker-mid:none;marker-end:none;stroke-miterlimit:4;stroke-dasharray:none;stroke-dashoffset:0;stroke-opacity:1;visibility:visible;display:inline;overflow:visible;enable-background:accumulate" transform="translate(-25.29 -806.335)"/><path d="M74.42 980.305c4.182-1.458 8.706-1.967 10.79.578l-3.554 4.054c-1.795-2.5-4.151-3.271-7.235-4.632z" style="opacity:1;fill:#f7e239;fill-opacity:1;fill-rule:evenodd;stroke:#000;stroke-width:1px;stroke-linecap:butt;stroke-linejoin:miter;marker:none;marker-start:none;marker-mid:none;marker-end:none;stroke-miterlimit:4;stroke-dasharray:none;stroke-dashoffset:0;stroke-opacity:1;visibility:visible;display:inline;overflow:visible;enable-background:accumulate" transform="translate(-25.29 -806.335)"/><path d="M162.392 936.381c-11.375-3.866-44.712-5.215-52.773 20.802 1.202-.916 3.175-1.656 4.686-2.173-1.48 2.477-2.729 8.359-2.298 12.284 2.242-1.605 4.567-4.438 5.923-1.542.882 1.882 1.532 4.773 1.17 6.289-2.23 9.356-14.265 14.026-23.293 18.476-2.955 1.457-2.689 1.799-5.95.438-2.07-.864-2.872-2.143-1.55-4.321.582-.96 1.47-3.314-.298-5.138-1.186-1.225-3.618-2.51-4.624-.19-.693 1.599-6.443 5.823-5.65 9.3 1.404 12.95 11.902 12.6 25.666 12.829 2.304.045 17.94-.838 10.818-4.063 4.339-.58 7.603-1.534 12.369-3.765-1.37-.44-2.991-1.424-3.466-2.15 5.009-1.196 8.77-2.988 12.269-5.037-2.18-.656-3.884-1.568-5.425-2.454 3.565-.938 8.128-2.442 12.396-5.867-1.58-.156-3.324-.463-5.282-.883 3.427-1.885 7.124-4.386 8.333-6.65-9.363-.337-9.21-3.992-9.98-9.367-.887-6.2 13.133-11.868 25.61-13.421 1.206-1.65 2.678-10.346 1.35-13.397z" style="fill:#fff;fill-opacity:1;fill-rule:evenodd;stroke:#000;stroke-width:1px;stroke-linecap:butt;stroke-linejoin:round;marker:none;marker-start:none;marker-mid:none;marker-end:none;stroke-miterlimit:4;stroke-dashoffset:0;stroke-opacity:1;visibility:visible;display:inline;overflow:visible;enable-background:accumulate" transform="translate(-25.29 -806.335)"/><path d="M70.337 1009.711c-2.077-6.217 2.224-8.727 5.536-8.814l.634 4.357c-1.66.318-4.038 2.163-6.17 4.457z" style="opacity:1;fill:#f7e239;fill-opacity:1;fill-rule:evenodd;stroke:#000;stroke-width:1px;stroke-linecap:butt;stroke-linejoin:miter;marker:none;marker-start:none;marker-mid:none;marker-end:none;stroke-miterlimit:4;stroke-dasharray:none;stroke-dashoffset:0;stroke-opacity:1;visibility:visible;display:inline;overflow:visible;enable-background:accumulate" transform="translate(-25.29 -806.335)"/><path d="M63.034 994.2c-.015-4.066 8.608-7.136 10.934-5.171l-1.92 4.378c-2.6-.495-5.986-.559-9.014.794z" style="opacity:1;fill:#f7e239;fill-opacity:1;fill-rule:evenodd;stroke:#000;stroke-width:1px;stroke-linecap:butt;stroke-linejoin:miter;marker:none;marker-start:none;marker-mid:none;marker-end:none;stroke-miterlimit:4;stroke-dasharray:none;stroke-dashoffset:0;stroke-opacity:1;visibility:visible;display:inline;overflow:visible;enable-background:accumulate" transform="translate(-25.29 -806.335)"/><path d="M79.95 998.772c-3.388-.676-6.363.02-7.562-.784-1.2-.803-1.41-2.578-1.522-4.612-.126-2.306-.757-4.191 1.185-4.758 2.119-.618 5.776-1.553 5.887 1.02.079 1.827 7.108 10.15 2.012 9.134z" style="opacity:1;fill:#fff;fill-opacity:1;fill-rule:evenodd;stroke:#000;stroke-width:1px;stroke-linecap:butt;stroke-linejoin:round;marker:none;marker-start:none;marker-mid:none;marker-end:none;stroke-miterlimit:4;stroke-dasharray:none;stroke-dashoffset:0;stroke-opacity:1;visibility:visible;display:inline;overflow:visible;enable-background:accumulate" transform="translate(-25.29 -806.335)"/><path d="M86.56 1005.03c-3.453.075-6.94 2.237-9.501 1.507-2.914-.83-4.785-8.056-1.042-8.577 2.086-.29 6.481-1.993 6.592.58.079 1.827 9.84 6.36 3.951 6.49z" style="opacity:1;fill:#fff;fill-opacity:1;fill-rule:evenodd;stroke:#000;stroke-width:1px;stroke-linecap:butt;stroke-linejoin:round;marker:none;marker-start:none;marker-mid:none;marker-end:none;stroke-miterlimit:4;stroke-dasharray:none;stroke-dashoffset:0;stroke-opacity:1;visibility:visible;display:inline;overflow:visible;enable-background:accumulate" transform="translate(-25.29 -806.335)"/><path d="M82.158 1000.091c5.923 5.893 7.665 6.536 14.794 6.68 7.468.149 9.153-3.167 4.286-5.425-5.199-2.413-16.514-7.868-21.966-9.056.271 2.688.554 5.481 2.886 7.802z" style="opacity:1;fill:#fff;fill-opacity:1;fill-rule:evenodd;stroke:#000;stroke-width:1px;stroke-linecap:butt;stroke-linejoin:round;marker:none;marker-start:none;marker-mid:none;marker-end:none;stroke-miterlimit:4;stroke-dasharray:none;stroke-dashoffset:0;stroke-opacity:1;visibility:visible;display:inline;overflow:visible;enable-background:accumulate" transform="translate(-25.29 -806.335)"/><path d="M55.656 913.275c6.797-.499 8.506 2.327 9.233 5.934-1.081.58-4.113.92-5.441.87-.239-2.672-.921-4.756-3.792-6.804z" style="opacity:1;fill:#f7e239;fill-opacity:1;fill-rule:evenodd;stroke:#000;stroke-width:1px;stroke-linecap:butt;stroke-linejoin:miter;marker:none;marker-start:none;marker-mid:none;marker-end:none;stroke-miterlimit:4;stroke-dasharray:none;stroke-dashoffset:0;stroke-opacity:1;visibility:visible;display:inline;overflow:visible;enable-background:accumulate" transform="translate(-25.29 -806.335)"/><path d="M62.838 935.401c-7.086-5.12-14.373-4.84-8.308-10.393 2.026-3.79 4.38-5.599 5.79-5.863 1.41-.264 6.664-1.623 6.998 1.875.35 3.673-1.363 5.597-2.835 6.423-1.97 1.103-1.733 2.406-1.645 7.958z" style="opacity:1;fill:#fff;fill-opacity:1;fill-rule:evenodd;stroke:#000;stroke-width:1px;stroke-linecap:butt;stroke-linejoin:round;marker:none;marker-start:none;marker-mid:none;marker-end:none;stroke-miterlimit:4;stroke-dasharray:none;stroke-dashoffset:0;stroke-opacity:1;visibility:visible;display:inline;overflow:visible;enable-background:accumulate" transform="translate(-25.29 -806.335)"/><path d="M35.28 841.328c3.096-1.767 9.006-3.333 11.242-.372-.818.915-1.104 2.89-2.369 3.298-1.997-1.755-5.742-2.696-8.873-2.926z" style="opacity:1;fill:#f7e239;fill-opacity:1;fill-rule:evenodd;stroke:#000;stroke-width:1px;stroke-linecap:butt;stroke-linejoin:miter;marker:none;marker-start:none;marker-mid:none;marker-end:none;stroke-miterlimit:4;stroke-dasharray:none;stroke-dashoffset:0;stroke-opacity:1;visibility:visible;display:inline;overflow:visible;enable-background:accumulate" transform="translate(-25.29 -806.335)"/><path d="m52.198 852.289 1.612-9.383c-2.619-1.138-4.718-3.004-6.207-4.356-1.49-1.352-4.22 3.412-4.372 4.579-.34 2.604.695 6.628 8.967 9.16z" style="opacity:1;fill:#fff;fill-opacity:1;fill-rule:evenodd;stroke:#000;stroke-width:1px;stroke-linecap:butt;stroke-linejoin:round;marker:none;marker-start:none;marker-mid:none;marker-end:none;stroke-miterlimit:4;stroke-dasharray:none;stroke-dashoffset:0;stroke-opacity:1;visibility:visible;display:inline;overflow:visible;enable-background:accumulate" transform="translate(-25.29 -806.335)"/><path d="M61.043 834.549c-2.688 12.5 2.226 14.1 2.228 18.688 0 3.75-1.205 8.102-4.95 7.987-6.98-.214-7.79-11.203-8.145-17.493-.364-6.454 4.045-10.219 10.867-9.182z" style="opacity:1;fill:#fff;fill-opacity:1;fill-rule:evenodd;stroke:#000;stroke-width:1px;stroke-linecap:butt;stroke-linejoin:round;marker:none;marker-start:none;marker-mid:none;marker-end:none;stroke-miterlimit:4;stroke-dasharray:none;stroke-dashoffset:0;stroke-opacity:1;visibility:visible;display:inline;overflow:visible;enable-background:accumulate" transform="translate(-25.29 -806.335)"/><path d="M54.348 959.56c-1.958-3.685-1.053-8.661.618-11.207 1.005.705 3.607 1.203 4.16 2.41-1.952 1.062-3.82 5.3-4.778 8.798z" style="opacity:1;fill:#f7e239;fill-opacity:1;fill-rule:evenodd;stroke:#000;stroke-width:1px;stroke-linecap:butt;stroke-linejoin:miter;marker:none;marker-start:none;marker-mid:none;marker-end:none;stroke-miterlimit:4;stroke-dasharray:none;stroke-dashoffset:0;stroke-opacity:1;visibility:visible;display:inline;overflow:visible;enable-background:accumulate" transform="translate(-25.29 -806.335)"/><path d="M39.518 946.195c-.325-7.383 6.606-8.615 9.804-9.523.402 1.16.839 4.5.404 5.803-2.196.157-7.443 1.077-10.208 3.72z" style="opacity:1;fill:#f7e239;fill-opacity:1;fill-rule:evenodd;stroke:#000;stroke-width:1px;stroke-linecap:butt;stroke-linejoin:miter;marker:none;marker-start:none;marker-mid:none;marker-end:none;stroke-miterlimit:4;stroke-dasharray:none;stroke-dashoffset:0;stroke-opacity:1;visibility:visible;display:inline;overflow:visible;enable-background:accumulate" transform="translate(-25.29 -806.335)"/><path d="M40.592 924.993c1.86-3.52 5.374-4.415 10.016-2.044-.157 1.425-1.287 3.85-2.872 4.171-1.579-1.534-3.331-1.822-7.144-2.127z" style="opacity:1;fill:#f7e239;fill-opacity:1;fill-rule:evenodd;stroke:#000;stroke-width:1px;stroke-linecap:butt;stroke-linejoin:miter;marker:none;marker-start:none;marker-mid:none;marker-end:none;stroke-miterlimit:4;stroke-dasharray:none;stroke-dashoffset:0;stroke-opacity:1;visibility:visible;display:inline;overflow:visible;enable-background:accumulate" transform="translate(-25.29 -806.335)"/><path d="M156.831 1040.005c-1.59-4.326-.56-8.516.761-9.925 1.146.44 2.613.631 3.67 1.777-2.312 2.789-2.935 5.086-4.43 8.148z" style="opacity:1;fill:#f7e239;fill-opacity:1;fill-rule:evenodd;stroke:#000;stroke-width:1px;stroke-linecap:butt;stroke-linejoin:miter;marker:none;marker-start:none;marker-mid:none;marker-end:none;stroke-miterlimit:4;stroke-dasharray:none;stroke-dashoffset:0;stroke-opacity:1;visibility:visible;display:inline;overflow:visible;enable-background:accumulate" transform="translate(-25.29 -806.335)"/><path d="M142.192 1036.449c-1.173-6.424 1.653-9.308 4.791-10.072.683 1.02 2.093 2.188 2.297 3.733-1.972 1.156-4.984 3.656-7.088 6.339z" style="opacity:1;fill:#f7e239;fill-opacity:1;fill-rule:evenodd;stroke:#000;stroke-width:1px;stroke-linecap:butt;stroke-linejoin:miter;marker:none;marker-start:none;marker-mid:none;marker-end:none;stroke-miterlimit:4;stroke-dasharray:none;stroke-dashoffset:0;stroke-opacity:1;visibility:visible;display:inline;overflow:visible;enable-background:accumulate" transform="translate(-25.29 -806.335)"/><path d="M134.243 1018.187c1.59-4.338 6.076-5.947 10.736-5.893-.109 1.222.16 3.625-.387 5.308-1.949-.726-7.045-.358-10.35.585z" style="opacity:1;fill:#f7e239;fill-opacity:1;fill-rule:evenodd;stroke:#000;stroke-width:1px;stroke-linecap:butt;stroke-linejoin:miter;marker:none;marker-start:none;marker-mid:none;marker-end:none;stroke-miterlimit:4;stroke-dasharray:none;stroke-dashoffset:0;stroke-opacity:1;visibility:visible;display:inline;overflow:visible;enable-background:accumulate" transform="translate(-25.29 -806.335)"/><path d="M139.406 849.05c-14.334-.208-18.826 1.002-23.307 3.96-6.376 4.207-9.007 2.948-12.521-.557-3.416-3.406-2.714-4.818-1.258-5.984 1.656-1.326 2.385-.56 3.328.435 1.156 1.218 4.05 3.928 10.137 1.71 6.938-2.527 11.158-3.613 23.48-2.903.663.702-.083 1.933.14 3.34z" style="opacity:1;fill:#f7e239;fill-opacity:1;fill-rule:evenodd;stroke:#000;stroke-width:1px;stroke-linecap:butt;stroke-linejoin:miter;marker:none;marker-start:none;marker-mid:none;marker-end:none;stroke-miterlimit:4;stroke-dasharray:none;stroke-dashoffset:0;stroke-opacity:1;visibility:visible;display:inline;overflow:visible;enable-background:accumulate" transform="translate(-25.29 -806.335)"/><path d="m128.556 854.396.043-4.143h2.73l.263 3.877-3.036.266z" style="opacity:1;fill:#f7e239;fill-opacity:1;fill-rule:evenodd;stroke:#000;stroke-width:1px;stroke-linecap:butt;stroke-linejoin:miter;marker:none;marker-start:none;marker-mid:none;marker-end:none;stroke-miterlimit:4;stroke-dasharray:none;stroke-dashoffset:0;stroke-opacity:1;visibility:visible;display:inline;overflow:visible;enable-background:accumulate" transform="translate(-25.29 -806.335)"/><path d="m126.518 838.362 1.477 4.127-2.202 1.145-2.895-3.253 3.62-2.02z" style="opacity:1;fill:#f7e239;fill-opacity:1;fill-rule:evenodd;stroke:#000;stroke-width:1px;stroke-linecap:butt;stroke-linejoin:miter;marker:none;marker-start:none;marker-mid:none;marker-end:none;stroke-miterlimit:4;stroke-dasharray:none;stroke-dashoffset:0;stroke-opacity:1;visibility:visible;display:inline;overflow:visible;enable-background:accumulate" transform="translate(-25.29 -806.335)"/><path d="M159.449 949.764s1.131-9.067.757-10.433c-.397-1.448-6.2-4.71-7.78-5.889-4.257-3.173-5.024-.74-3.085 1.374.893.974 5.122 6.019 5.256 7.687.176 2.203-3.495 2.828-1.26 6.126 1.836 2.711 5.495 1.223 6.112 1.135z" style="opacity:1;fill:#fff;fill-opacity:1;fill-rule:evenodd;stroke:#000;stroke-width:1px;stroke-linecap:butt;stroke-linejoin:round;marker:none;marker-start:none;marker-mid:none;marker-end:none;stroke-miterlimit:4;stroke-dasharray:none;stroke-dashoffset:0;stroke-opacity:1;visibility:visible;display:inline;overflow:visible;enable-background:accumulate" transform="translate(-25.29 -806.335)"/><path d="M198.056 861.513c4.43-.683 10.466-7.515 12.399-10.674.424 11.141-4.082 19.213-21.599 19.817-2.101.073-2.964-2.167-1.95 10.253.994 12.156 16.721 37.002 18.025 52.949 1.296 15.862-12.285 17.237-21.233 12.922 2.215 5.342 4.023 12.54 5.368 18.284.66 2.825 7.216 11.485 12.354.738.564 3.982-.162 6.196-.707 8.173 1.004.155 2.211.553 3.382.061-.903 3.148-4.685 6.203-5.279 8.419 1.227 1.254 2.663 2.035 3.924 2.166-.925 2.1-5.173 6.007-7.168 7.765 1.214.757 2.522 1.444 4.473 1.34-2.512 3.178-5.163 4.616-9.067 6.381.625.62 1.696 1.428 2.974 1.726-1.364 2.382-6.422 5.111-9.56 6.517 1.805.911 3.504.585 4.509.982-4.698 4.161-15.2 14.39-18.85 16.486-3.868 2.222-4.435 7.652-8.075 7.816-2.148.098-6.385-1.797-5.624-3.567.821-1.913 1.868-4.41 4.756-7.415-2.888 3.005-3.935 5.502-4.756 7.415-.76 1.77-5.007.932-7.155 1.012-1.215.045-4.148-4.538-4.24-5.633-.213-2.488-.06-3.54 1.822-3.992 2.701-.648 5.559-1.988 8.227-2.937-2.668.949-5.526 2.289-8.227 2.937-1.882.452-3.354-.96-4.114-2.09-.76-1.13-.35-5.28-.06-6.494.727-3.052 1.693-5.278 5.589-3.095 5.387 3.02 7.64 6.38 14.436 2.82 5.408-2.834 23.342-29.99 17.946-31.356-1.483-.376-3.245-1.59-4.712-2.793-.203.929-.578 2.32-1.478 3.68-3.827-1.988-6.291-6.727-6.884-8.33-.557 1.248-1.663 2.174-2.594 3.144-3.476-4.507-3.484-8.726-4.025-12.27-1.067.864-2.523 1.236-3.216 1.851-1.725-4.146.773-14.336 1.435-26.962-8.838-12.857-16.666-20.046-33.81-20.57.805-11.387 14.299-32.448 29.691-26.78 6.757 5.85 21.44 30.256 24.465 40.069 1.981 6.425 4.642 8.755 11.91 7.985 5.696-.603 7.479-2.803 7.164-7.213-.864-12.094-13.886-32.983-17.623-52.09-2.053-10.494-.452-18.474 7.607-27.216 4.845-5.257 13.841-10.75 17.509-13.047 1.181-.74 4.129-1.99-2.492-5.994 12.153.122 9.724 11.573 6.932 16.136-1.933 3.159-7.97 9.991-12.399 10.674z" style="fill:#fff;fill-opacity:1;fill-rule:evenodd;stroke:#000;stroke-width:1px;stroke-linecap:butt;stroke-linejoin:round;marker:none;marker-start:none;marker-mid:none;marker-end:none;stroke-miterlimit:4;stroke-dashoffset:0;stroke-opacity:1;visibility:visible;display:inline;overflow:visible;enable-background:accumulate" transform="translate(-25.29 -806.335)"/><path d="M57.412 936.06c-2.731-1.146-6.793-.635-7.841-.707-.804-.055-1.286.45-1.495 1.417-.21.967.288 5.018.7 5.543.446.572 3.258 4.589 5.377 2.91.9-.712 3.05-2.042 5.55-3.17-2.5 1.128-4.65 2.458-5.55 3.17-2.119 1.679 2.29 6.521 3.876 7.226 1.586.705 5.597-2.483 7.401-2.908 13.736-3.237 17.175-6.504 19.299-6.521 5.174-.041 8.986-.968 14.006-2.643-1.528-1.204-4.373-2.76-6.26-2.907 4.79-.822 9.755-1.027 15.508-3.171-.79-1.201-2.27-1.999-3.909-2.735 7.645-.513 10.846-.856 13.248-2.552-.714-1.326-2.07-2.19-2.698-2.75 2.46-.34 6.248-.278 9.392-2.184 0 0-1.132-1.368-2.818-2.555 4.8-.67 6.483-.115 8.46-.969-.007-1.93-.432-2.295-2.273-3.01 18.527-3.158 6.582-29.28-8.121-21.247-27.042 2.835-14.86 16.433-48.953 34.902-10.375 5.62-14.042-1.694-14.823-5.09-.753-3.269-3.1-3.81-4.631-3.768-1.328.035-4.308 2.884-4.544 5.616-.394 4.56 2.454 7.34 3.258 7.396 1.048.072 5.11-.44 7.841.707z" style="fill:#fff;fill-opacity:1;fill-rule:evenodd;stroke:#000;stroke-width:1px;stroke-linecap:butt;stroke-linejoin:round;marker:none;marker-start:none;marker-mid:none;marker-end:none;stroke-miterlimit:4;stroke-dashoffset:0;stroke-opacity:1;visibility:visible;display:inline;overflow:visible;enable-background:accumulate" transform="translate(-25.29 -806.335)"/><path d="M101.175 880.457c1.169-.04 2.928-.213 4.347-.254-2.54 2.843-4.3 7.697-4.238 10.935 1.015-.146 2.66-.477 3.89-.698-.816 2.473-1.662 7.498-1.59 10.994 13.834-9.332 18.677-.984 21.47.86 1.873 1.237 10.65 3.684 16.114.283 10.226-6.365 13.147-7.225 17.402-12.98.727.343 1.711.53 2.753.692.246-1.42.472-3.496.226-5.324.85.623 2.384 1.094 3.36 1.592.082-2.104.353-5.017-.122-7.059 1.1.923 2.573 1.222 3.923 1.833.208-3.425-.767-7.474-2.178-9.404 1.804.457 3.296 1.225 4.29 1.993-.04-1.477-.287-5.55-2.792-9.982 1.347.784 2.695 1.577 4.042 1.226-.302-2.832-.928-5.629-2.715-8.296l3.364.062c-.684-3.283-2.672-6.24-4.653-9.198a7.45 7.45 0 0 0 4.254.238c-.25-2.858-4.293-6.28-5.997-7.685 1.338-.223 1.83-.06 3.636.238-1.268-2.576-4.016-5.855-7.814-7.044 7.285-2.723 4.535-9.53-2.698-9.317 2.066-3.535-9.44-9.208-10.825-1.702-4.079 8.52 8.888 16.402-6.568 35.668.412 5.298-2.825 5.256-12.211 5.256.221 1.093 1.086 2.394 2.117 3.114-4.735-1.33-12.71-3.158-18.193.747 1.37.54 3.24 1.578 5.107 1.62-10.523 1.742-14.53 5.612-17.7 11.592z" style="opacity:1;fill:#fff;fill-opacity:1;fill-rule:evenodd;stroke:#000;stroke-width:1px;stroke-linecap:butt;stroke-linejoin:round;marker:none;marker-start:none;marker-mid:none;marker-end:none;stroke-miterlimit:4;stroke-dasharray:none;stroke-dashoffset:0;stroke-opacity:1;visibility:visible;display:inline;overflow:visible;enable-background:accumulate" transform="translate(-25.29 -806.335)"/><path d="M133.116 30.472c-.873-3.746-1.254-6.356 3.24-7.104 4.716 2.56.497 10.08-3.24 7.104z" transform="translate(-39.374 .177)" style="opacity:1;fill:#fff;fill-opacity:1;fill-rule:evenodd;stroke:#000;stroke-width:1px;stroke-linecap:butt;stroke-linejoin:round;marker:none;marker-start:none;marker-mid:none;marker-end:none;stroke-miterlimit:4;stroke-dasharray:none;stroke-dashoffset:0;stroke-opacity:1;visibility:visible;display:inline;overflow:visible;enable-background:accumulate"/><path d="M155.893 835.447c8.46 15.327-4.105 27.276-8.868 22.73-2.751-2.626-4.493-.66-6.493-.457-2 .204-6.678.114-6.994 1.693-.379 1.888-2.83.734-4.062-1.381-.775-1.332-2.931-3.979-.421-4.132 3.239-.197 1.375-.175 4.726-.263 3.46-.092 4.007-.525 4.081-4.066.168-8.03-6.16-7.014-6.39-9.516-.145-1.563-2.732-2.285-3.355-.79-1.05 2.522-6.336 2.463-7.79 1.083-2.923-2.772-1.59-4.203.117-5.08 2.061-1.058 2.258-1.32 1.592-3.594-.658-2.247.42-1.913 2.125-1.929 1.642-.015 1.706-.903 3.325-2.647 2.094-2.255 4.298-3.8 8.097-3.925 4.732-.155 5.678-1.253 11.153-1.495 1.702-.075 11.857.908 5.792 3.764 2.398-.165 5.39 1.236 2.607 3.612-1.085.926-.34 4.402.758 6.393z" style="opacity:1;fill:#fff;fill-opacity:1;fill-rule:evenodd;stroke:#000;stroke-width:1px;stroke-linecap:butt;stroke-linejoin:round;marker:none;marker-start:none;marker-mid:none;marker-end:none;stroke-miterlimit:4;stroke-dasharray:none;stroke-dashoffset:0;stroke-opacity:1;visibility:visible;display:inline;overflow:visible;enable-background:accumulate" transform="translate(-25.29 -806.335)"/><path d="M136.793 26.795a1.932 1.932 0 1 1-3.864 0 1.932 1.932 0 1 1 3.864 0z" transform="translate(-25.165 -1.88)" style="opacity:1;fill:none;fill-opacity:1;fill-rule:evenodd;stroke:#000;stroke-width:1px;stroke-linecap:butt;stroke-linejoin:round;marker:none;marker-start:none;marker-mid:none;marker-end:none;stroke-miterlimit:4;stroke-dasharray:none;stroke-dashoffset:0;stroke-opacity:1;visibility:visible;display:inline;overflow:visible;enable-background:accumulate"/><path d="M130.249 25.362c2.929-.748 10.532.187 11.093-1.807" transform="translate(-25.29 -2.004)" style="opacity:1;fill:none;fill-opacity:1;fill-rule:evenodd;stroke:#000;stroke-width:1px;stroke-linecap:butt;stroke-linejoin:round;marker:none;marker-start:none;marker-mid:none;marker-end:none;stroke-miterlimit:4;stroke-dasharray:none;stroke-dashoffset:0;stroke-opacity:1;visibility:visible;display:inline;overflow:visible;enable-background:accumulate"/></svg>