<svg xmlns="http://www.w3.org/2000/svg" version="1.0" width="212.515" height="248.928"><path d="m14.644 802.311 3.828 160.79c2.734 114.85 200.126 114.85 202.86 0l3.827-160.79H14.644z" style="fill:#008bd1;fill-opacity:1;fill-rule:evenodd;stroke:#000;stroke-width:1.99999988;stroke-linecap:butt;stroke-miterlimit:4;stroke-dashoffset:0;stroke-opacity:1" transform="translate(-13.644 -801.311)"/><path d="M81.405 180.194c-2.128.553-2.603-.26-3.124-1.805-.494-1.467-2.499.494-3.13 2.51-1.324-8.588 13.42-9.34 19.558-10.22" transform="translate(-13.644 3.02)" style="opacity:1;color:#000;fill:#d80025;fill-opacity:1;fill-rule:evenodd;stroke:#000;stroke-width:.99921262;stroke-linecap:butt;stroke-linejoin:round;marker:none;marker-start:none;marker-mid:none;marker-end:none;stroke-miterlimit:4;stroke-dasharray:none;stroke-dashoffset:0;stroke-opacity:1;visibility:visible;display:inline;overflow:visible;enable-background:accumulate"/><path d="M105.597 839.759c-2.26 14.963-25.654 28.521-33.178 40.454 1.074-.091 2.453-1.093 3.649-1.939-2.748 5.594-4.555 10.683-6.116 16.21.77-.178 1.976-1.354 2.62-2.032-1.68 4.259-1.43 18.422-.681 22.12.954-1.99 1.41-4.229 2.114-6.343 1.518 7.523 4.843 13.178 8.105 19.206l.176-5.991c4.397 7.333 9.976 13.98 16.74 19.382-.881-1.938-1.202-3.316-2.083-5.254 7.016 5.79 14.22 9.649 21.92 12.137v5.327c0 1.057.778 1.178 1.836 1.181l8.552.033 11.62-2.79c14.817 1.77 29.75 2.746 44.67 2.229 2.068 3.079 5.756 5.286 8.634 7.929l5.462-1.057c-15.664-21.015-37.784-47.241-54.405-60.427-16.622-13.186-23.838-24.446-45.325-18.688-1.916.513-2.45-1.225-1.586-2.29 6.645-8.203 17.867-24.36 22.018-34.444 4.13-10.031.235-25.353-10.565-27.932-10.741-2.565-19.504 3.862-19.91 12.334 3.141.94 6.02.734 9.162.176" style="opacity:1;color:#000;fill:#fff;fill-opacity:1;fill-rule:evenodd;stroke:#000;stroke-width:.99921262;stroke-linecap:butt;stroke-linejoin:round;marker:none;marker-start:none;marker-mid:none;marker-end:none;stroke-miterlimit:4;stroke-dasharray:none;stroke-dashoffset:0;stroke-opacity:1;visibility:visible;display:inline;overflow:visible;enable-background:accumulate" transform="translate(-13.644 -801.311)"/><path d="M89.863 24.783 49.865 56.5l44.05-21.145c1.074-4.096 3.128-7.21 5.11-10.396-3.142.207-6.251.314-9.162-.176z" transform="translate(-13.644 3.02)" style="opacity:1;color:#000;fill:#d80025;fill-opacity:1;fill-rule:evenodd;stroke:#000;stroke-width:.99921262;stroke-linecap:butt;stroke-linejoin:round;marker:none;marker-start:none;marker-mid:none;marker-end:none;stroke-miterlimit:4;stroke-dasharray:none;stroke-dashoffset:0;stroke-opacity:1;visibility:visible;display:inline;overflow:visible;enable-background:accumulate"/><path d="m49.865 56.5 46.958-28.28" transform="translate(-13.644 3.02)" style="fill:none;fill-opacity:.75;fill-rule:evenodd;stroke:#000;stroke-width:1px;stroke-linecap:round;stroke-linejoin:miter;stroke-opacity:1"/><path d="m120.607 142.5 10.341 9.47 10.466-.686c.497-.032 1.957-.87.997-2.242l-4.486-6.417" transform="translate(-13.644 3.02)" style="opacity:1;color:#000;fill:#fff;fill-opacity:1;fill-rule:evenodd;stroke:#000;stroke-width:.99921262;stroke-linecap:round;stroke-linejoin:round;marker:none;marker-start:none;marker-mid:none;marker-end:none;stroke-miterlimit:4;stroke-dasharray:none;stroke-dashoffset:0;stroke-opacity:1;visibility:visible;display:inline;overflow:visible;enable-background:accumulate"/><path d="M127.13 119.051c10.896 11.07 33.379 21.579 52.684 30.22-10.066-10.275-21.628-19.677-32.318-29.515l-10.25-4.162 5.037 4.603c6.953 6.687 13.968 12.69 21.233 18.941-8.284-4.719-16.07-10.746-23.17-17.708l-11.705-6.391-1.511 4.012z" transform="translate(-13.644 3.02)" style="opacity:1;color:#000;fill:#000;fill-opacity:1;fill-rule:evenodd;stroke:none;stroke-width:1px;stroke-linecap:butt;stroke-linejoin:miter;marker:none;marker-start:none;marker-mid:none;marker-end:none;stroke-miterlimit:4;stroke-dasharray:none;stroke-dashoffset:0;stroke-opacity:1;visibility:visible;display:inline;overflow:visible;enable-background:accumulate"/><path d="m150.288 119.43 32.046 30.048 2.855-.208 8.892 7.854c-7.899-8.764-25.313-26.074-38.762-39.243l-11.85-4.722 6.819 6.27z" transform="translate(-13.644 3.02)" style="opacity:1;color:#000;fill:#000;fill-opacity:1;fill-rule:evenodd;stroke:none;stroke-width:1px;stroke-linecap:butt;stroke-linejoin:miter;marker:none;marker-start:none;marker-mid:none;marker-end:none;stroke-miterlimit:4;stroke-dasharray:none;stroke-dashoffset:0;stroke-opacity:1;visibility:visible;display:inline;overflow:visible;enable-background:accumulate"/><path d="m157.798 117.582 39.185 39.184 1.495-.373-37.067-40.805-9.344-4.36 5.731 6.354z" transform="translate(-13.644 3.02)" style="opacity:1;color:#000;fill:#000;fill-opacity:1;fill-rule:evenodd;stroke:none;stroke-width:1px;stroke-linecap:butt;stroke-linejoin:miter;marker:none;marker-start:none;marker-mid:none;marker-end:none;stroke-miterlimit:4;stroke-dasharray:none;stroke-dashoffset:0;stroke-opacity:1;visibility:visible;display:inline;overflow:visible;enable-background:accumulate"/><path d="M121.57 224.912c-9.426-4.933-17.447-4.499-20.503 2.033 3.26.838 7.59-1.756 20.504-2.032z" transform="translate(-13.644 3.02)" style="opacity:1;color:#000;fill:#d80025;fill-opacity:1;fill-rule:evenodd;stroke:#000;stroke-width:.99921262;stroke-linecap:butt;stroke-linejoin:round;marker:none;marker-start:none;marker-mid:none;marker-end:none;stroke-miterlimit:4;stroke-dasharray:none;stroke-dashoffset:0;stroke-opacity:1;visibility:visible;display:inline;overflow:visible;enable-background:accumulate"/><path d="m122.19 150.054-.026 25.526c-.002 2.126.395 1.417.374 2.741l-.685 43.421c-.048 2.998-5.311 3.123-10.495 3.033-5.227-.09-8.58 3.175-10.562 7.682 5.552-4.787 9.333-1.151 16.073-4.631-5.572 1.764-10.927 2.998-11.463 9.117 1.85-1.718 2.951-2.271 5.175-2.243 2.181.027 7.56-6.215 14.032-6.15 6.516.066 5.795 1.375 8.262 1.1 2.472-.274 4.302.687 5.402 1.921.044-4.581-2.872-6.377-6.083-6.34-3.21.037-5.477-.136-5.482-3.863l-.062-43.42c0-.393.604-1.097.647-1.82.043-.724-.475-1.466-.48-1.933l-.251-24.177-4.376.036z" transform="translate(-13.644 3.02)" style="opacity:1;color:#000;fill:#d80025;fill-opacity:1;fill-rule:evenodd;stroke:#000;stroke-width:.99921262;stroke-linecap:butt;stroke-linejoin:round;marker:none;marker-start:none;marker-mid:none;marker-end:none;stroke-miterlimit:4;stroke-dasharray:none;stroke-dashoffset:0;stroke-opacity:1;visibility:visible;display:inline;overflow:visible;enable-background:accumulate"/><path d="m134.619 151.649 14.36 15.506c.592.639.528 2.18-.352 2.202l-53.654 1.322c-4.177.103-16.017 7.893-18.325 15.858 1.41-1.175 2.474-3.166 4.229-3.524 1.027-.21 2.556-.122 3.4-.943l7.348-7.162-7.349 7.162c-1.938 1.889-1.478 4.641.041 8.075.242-6.74 4.293-3.884 4.654-6.892.37-3.07 3.041-4.496 4.857-6.143 1.815-1.647 4.233-1.428 5.638.352 1.405 1.78 4.758 3.671 2.467 8.282 5.374-4.053 6.167-7.224-1.321-11.013l54.27-.528c3.08-.03 3.244-4.411 1.498-6.255l-15.77-16.652" transform="translate(-13.644 3.02)" style="opacity:1;color:#000;fill:#d80025;fill-opacity:1;fill-rule:evenodd;stroke:#000;stroke-width:.99921262;stroke-linecap:butt;stroke-linejoin:round;marker:none;marker-start:none;marker-mid:none;marker-end:none;stroke-miterlimit:4;stroke-dasharray:none;stroke-dashoffset:0;stroke-opacity:1;visibility:visible;display:inline;overflow:visible;enable-background:accumulate"/><path d="M96.436 94.158c.212 9.554 7.633 16.253 35.937 27.082 1.694.648-2.191-3.458-3.072-4.868 7.5 4.898 6.707 6.225 11.499 5.695 4.781-.529 1.885-1.976-2.194-5.87 6.634 4.744 7.177 5.01 11.092 4.895 3.738-.11 2.215-2.175-3.55-6.874 6.003 5.315 7.375 5.803 11.663 4.756 4.371-1.068.723-2.656-3.497-5.437 5.39 3.713 7.35 4.897 9.211 3.473 1.915-1.466 1.022-1.837 1.313-2.668" transform="translate(-13.644 3.02)" style="opacity:1;color:#000;fill:#fff;fill-opacity:1;fill-rule:evenodd;stroke:#000;stroke-width:.99921262;stroke-linecap:round;stroke-linejoin:round;marker:none;marker-start:none;marker-mid:none;marker-end:none;stroke-miterlimit:4;stroke-dasharray:none;stroke-dashoffset:0;stroke-opacity:1;visibility:visible;display:inline;overflow:visible;enable-background:accumulate"/><path d="M99.026 829.29c-1.939 2.026-3.76 6.314-5.11 10.396 2.457.363 8.754.52 11.68.073 2.94-.45 7.444-3.466 6.608-11.1" style="opacity:1;color:#000;fill:#fff;fill-opacity:1;fill-rule:evenodd;stroke:#000;stroke-width:.99921262;stroke-linecap:round;stroke-linejoin:round;marker:none;marker-start:none;marker-mid:none;marker-end:none;stroke-miterlimit:4;stroke-dasharray:none;stroke-dashoffset:0;stroke-opacity:1;visibility:visible;display:inline;overflow:visible;enable-background:accumulate" transform="translate(-13.644 -801.311)"/><path d="M99.026 24.96c-1.684-5.947 3.404-6.423 4.697-5.182 1.26 1.21 1.364 5.742-4.697 5.181z" transform="translate(-13.644 3.02)" style="fill:#000;fill-opacity:1;fill-rule:evenodd;stroke:none;stroke-width:1px;stroke-linecap:butt;stroke-linejoin:miter;stroke-opacity:1"/></svg>