<svg xmlns="http://www.w3.org/2000/svg" version="1.0" width="225.133" height="263.708"><path d="m34.947 762.048 4.055 170.325c2.896 121.661 211.99 121.661 214.886 0l4.055-170.325H34.947z" style="fill:#fff;fill-opacity:1;fill-rule:evenodd;stroke:#000;stroke-width:2.13733602;stroke-linecap:butt;stroke-miterlimit:4;stroke-dashoffset:0;stroke-opacity:1" transform="translate(-33.878 -760.98)"/><path d="M147.101 775.838c1.779 4.897 10.11 7.75 11.533 15.963 1.438 8.298-4.957 12.285-9.522 10.707l.088 16.827c2.337-5.99 6.443-10.125 12.144-12.253-1.029-3.644-2.197-7.75 2.102-12.52 4.298-4.771 14.806.263 20.228-.637-1.872 4.018-1.43 11.547-5.248 16.43-3.926 5.02-13.353 3.878-15.41-1.413-5.548 2.584-9.868 9.263-10.678 10.255-.852 1.045-2.798 3.93-2.798 6.833v22.114c1.38-1.997 3.554-4.259 5.286-5.639.03 1.175.197 5.558.177 6.696-1.607 1.899-2.814 3.764-3.877 6.079.059 1.13-.352 18.031-.528 27.047 4.023-14.184 12.242-34.198 12.95-35.77.676-1.497 1.628-2.536 1.41-3.876-.232-1.425-1.663-3.497-1.746-5.73-3.784 1.5-8.754-.35-9.952-5.263-1.193-4.893 5.76-12.535 6.878-17.45 2.816 3.878 9.41 4.184 12.036 10.292 2.602 6.052-1.434 8.75-5.054 11.037.484 2.137.35 4.097.393 6.145 3.906-5.256 10.632-14.243 11.675-15.417 1-1.127 1.1-2.254 1.218-3.737.132-1.655-.33-5.015-1.27-7.893 1.204-.235 2.679-.646 3.883-.88 1.292 2.554 1.086 6.43 1.145 9.25 7.71-7.226 8.924-11.654 8.804-16.864-3.983-.838-8.59-5.205-6.954-11.6 1.638-6.4 13.159-8.511 16.895-11.593.938 10.618 7.177 11.012 5.993 17.554-1.174 6.482-7.41 7.249-12.355 6.946-.251 2.63-.855 5.437-2.34 7.716 1.932-.15 4.288-.24 6.344-.097 1.908-4.246 4.719-8.305 11.043-6.781 6.346 1.528 9.685 14.43 13.944 15.662-6.67 1.797-10.846 6.16-17.495 6.255-6.586.093-10.05-4.194-8.647-11.433-4.484.27-5.622-1.346-8.448 1.151-2.869 2.536-11.163 10.348-15.946 17.004 2.892-1.384 5.523-1.52 8.193-2.156.177-3.782 2.206-7.792 8.792-8.221 6.593-.43 11.332 11.344 15.468 12.236-6.343 1.142-7.72 7.61-15.73 9.12-8.023 1.514-10.166-5.981-9.44-9.993-8.601 1.277-12.305 4.3-16.397 14.558-4.123 10.334-10.143 24.98-14.677 43.54 2.41-4.526 5.109-9.385 7.932-13.228 2.792-3.8 5.049-9.008 5.394-10.97l4.075-1.49.25 2.119c-.777 1.156-1.413 3.82-2.119 5.731 5.773-4.385 6.612-5.688 8.068-11.835-4.07-.015-8.063-1.71-7.755-8.302.308-6.6 10.349-9.709 12.074-13.741 1.425 4.516 9.16 8.21 9.325 14.856.163 6.586-4.356 7.646-9.527 8.058l-2.093 4.962c12.59-6.309 18.395-1.518 27.46-11.88-3.986-1.56-7.944-6.773-3.488-12.024 4.499-5.303 13.964-2.947 18.984-4.854-.58 5.651 1.982 14.336-.692 18.019-2.63 3.625-9.357 3.7-12.528.271-1.335 2.396-3.357 3.795-5.502 5.32 8.525-.825 16.365.781 21.837 4.442.98-3.95 3.498-7.387 9.917-6.67 6.43.718 10.092 12.843 11.793 17.547-5.237.865-10.651 5.555-17.533 3.908-6.965-1.667-7.503-8.666-5.434-12.177-6.465-3.368-15.885-4.106-24.63-4.497 2.908 1.85 4.236 2.99 5.995 5.648 3.516-1.359 9.093-1.898 12.638 2.03 3.589 3.975-.167 15.885-1.707 20.527-7.185-1.84-12.238-4.132-15.627-8.126-3.345-3.943-2.472-11.362 1.366-13.401-4.43-4.823-6.231-5.015-9.331-4.744-3.105.271-14.444 4.572-17.73 6.472 1.947.342 4.185 1.317 5.458 3.057 2.9-2.857 8.3-5.334 12.726-.438 4.431 4.902.362 15.181.232 20-7.185-1.84-11.533-.618-16.332-5.22-4.755-4.559-2.659-10.863 1.047-12.726.04-.004-4.012-1.59-6.655-1.413-2.643.176-7.4 6.695-10.044 11.453-2.643 4.757-4.581 11.277-4.757 16.74-.176 5.461.793 37.082 1.72 45.856.925 8.774 9.512 18.004 29.722 11.774 20.176-6.22 27.476 1.661 31.176 4.128 3.7 2.467 3.148 9.772 2.467 12.07-.705 2.379-1.233 3.083-1.41-1.498-.176-4.581-5.352-9.603-6.762-10.484-1.41-.88-3.436-1.762-3.436.176 0 1.939 1.85 9.163 3.084 12.158 1.233 2.996-2.82.616-4.23-.88-1.409-1.498-3.17-8.106-3.7-11.101-.528-2.996-7.64-1.11-9.69-.881-2.38.264-8.81 2.466-8.81 2.466s3.803 2.416 6.094 3.825c2.29 1.41 4.122 5.295 4.405 7.93.264 2.466 1.16 4.854 2.378 7.047 1.219 2.194-.88.97-2.819-.264-1.938-1.233-3.788-5.726-4.67-8.546-.88-2.819-3.89-5.234-6.358-5.939-2.466-.705-9.426-1.057-9.426-1.057s4.228 2.555 6.519 4.317c2.29 1.762 3.238 7.892 2.886 9.654-.352 1.762-.44 8.282.088 10.749.529 2.466-.352 2.995-2.467-.529-2.114-3.524-2.113-8.31-2.202-12.775-.09-4.463-3.062-4.368-5.706-6.659-2.643-2.29-3.876-1.586-5.99-2.29-2.115-.705-6.344-3.172-8.634-4.758-2.29-1.586-5.463-4.053-5.463-4.053s2.115 3.084 5.287 6.608c3.171 3.524 1.145 8.898-.97 11.718-2.114 2.819-3.171 8.37-2.29 10.307.88 1.939 1.29 5.958.793 8.194-.529 2.379-1.322.705-1.586-1.762-.282-2.634-1.674-4.582-2.555-7.577-.881-2.995-.705-6.696 1.938-11.189 2.64-4.487.793-6.784-.617-7.665-1.41-.88-1.456-1.674-5.963-7.048-4.506 5.727-4.553 6.52-5.963 7.4-1.41.882-3.256 3.178-.617 7.666 2.643 4.493 2.82 8.193 1.939 11.188-.881 2.996-2.273 4.943-2.555 7.577-.265 2.467-1.058 4.14-1.586 1.762-.497-2.236-.088-6.255.793-8.193.88-1.938-.176-7.489-2.29-10.308-2.115-2.82-4.142-8.193-.97-11.718 3.172-3.524 5.286-6.607 5.286-6.607s-3.172 2.467-5.462 4.053c-2.29 1.585-6.52 4.052-8.634 4.757-2.115.705-3.348 0-5.991 2.29-2.643 2.291-5.99 2.32-6.079 6.784-.09 4.464-.088 9.251-2.203 12.775-2.114 3.524-2.995 2.996-2.466.529.528-2.467.44-8.987.088-10.749-.353-1.762.969-8.017 3.26-9.779 2.29-1.762 6.519-4.317 6.519-4.317s-6.96.353-9.427 1.057c-2.467.705-5.726 2.996-6.607 5.815-.881 2.82-2.732 7.312-4.67 8.546-1.938 1.233-4.038 2.458-2.819.264 1.219-2.193 2.114-4.581 2.379-7.048.282-2.634 2.114-6.52 4.405-7.929 2.29-1.41 6.343-3.7 6.343-3.7s-6.431-2.203-8.81-2.467c-2.05-.228-9.163-2.115-9.691.88-.529 2.996-2.29 9.604-3.7 11.102-1.409 1.496-5.463 3.876-4.23.88 1.234-2.995 3.084-10.22 3.084-12.157 0-1.939-2.026-1.057-3.436-.176-1.41.88-6.96 5.902-7.136 10.484-.176 4.58-.705 3.876-1.41 1.497-.68-2.298-1.233-9.603 2.467-12.07 3.7-2.466 11.624-10.596 31.8-4.377 20.21 6.23 28.796-3 29.723-11.774.926-8.773 1.646-40.145 1.47-45.608-.177-5.462-2.115-11.981-4.758-16.739-2.643-4.757-7.4-11.277-10.043-11.453-2.643-.176-6.696 1.41-6.656 1.413 3.706 1.863 5.803 8.168 1.047 12.727-4.799 4.601-9.147 3.38-16.331 5.219-.13-4.818-4.2-15.098.231-20 4.426-4.895 9.827-2.418 12.726.438 1.273-1.74 3.512-2.715 5.459-3.057-3.286-1.9-14.625-6.2-17.73-6.472-3.1-.27-4.902-.079-9.332 4.744 3.838 2.04 4.712 9.459 1.366 13.401-3.389 3.994-8.442 6.287-15.627 8.126-1.54-4.641-5.295-16.552-1.706-20.527 3.544-3.927 9.122-3.388 12.638-2.03 1.758-2.657 3.087-3.797 5.994-5.647-8.744.39-18.164 1.128-24.63 4.496 2.07 3.511 1.531 10.51-5.434 12.177-6.881 1.647-12.296-3.043-17.532-3.907 1.7-4.705 5.362-16.83 11.792-17.548 6.42-.716 8.938 2.72 9.917 6.67 5.473-3.66 13.313-5.266 21.838-4.442-2.146-1.524-4.167-2.923-5.503-5.32-3.17 3.429-9.897 3.354-12.528-.27-2.673-3.684-.111-12.368-.692-18.02 5.02 1.908 14.486-.449 18.985 4.854 4.455 5.251.498 10.465-3.488 12.025 9.065 10.362 14.87 5.57 27.46 11.88l-2.093-4.963c-5.171-.412-9.69-1.472-9.527-8.057.165-6.647 7.9-10.34 9.325-14.857 1.725 4.033 11.766 7.141 12.073 13.742.308 6.592-3.684 8.286-7.755 8.301 1.456 6.148 2.295 7.45 8.069 11.836-.707-1.91-1.855-4.75-2.119-5.732l.25-2.491 4.075 1.862c.138 1.622 2.601 7.17 5.394 10.97 2.823 3.843 4.817 9.055 7.226 13.581-4.534-18.56-10.553-33.558-14.676-43.893-4.093-10.258-7.964-13.031-16.565-14.308.726 4.011-1.417 11.507-9.44 9.994-8.009-1.51-9.386-7.98-15.73-9.122 4.137-.891 8.875-12.666 15.469-12.236 6.585.43 8.614 4.44 8.792 8.222 2.669.635 5.116.522 8.008 1.906-4.783-6.655-12.373-13.763-15.242-16.298-2.825-2.498-4.317-1.234-8.8-1.504 1.402 7.239-2.06 11.526-8.648 11.433-6.648-.095-10.824-4.458-17.495-6.255 4.26-1.232 7.6-14.134 13.944-15.662 6.325-1.524 9.136 2.535 11.044 6.781 2.056-.144 4.236-.582 6.167-.432-1.485-2.278-2.088-4.733-2.34-7.364-4.944.303-11.181-.463-12.354-6.945-1.185-6.543 5.055-6.937 5.993-17.554 3.736 3.081 15.257 5.192 16.895 11.593 1.636 6.394-2.972 10.761-6.955 11.6-.12 5.21 1.975 9.462 9.685 16.687.06-2.819-.146-6.695 1.146-9.25 1.204.235 2.055.646 3.26.88-.94 2.879-1.278 6.363-1.146 8.018.119 1.483-.03 2.486.97 3.612 1.042 1.175 7.81 10.513 11.717 15.77.042-2.048-.091-4.009.392-6.145-3.62-2.287-7.655-4.985-5.053-11.037 2.625-6.109 9.22-6.414 12.036-10.292 1.117 4.915 8.071 12.557 6.878 17.45-1.198 4.912-6.168 6.763-9.952 5.263-.083 2.233-.81 3.953-1.042 5.378-.218 1.339.03 2.731.705 4.229.709 1.57 9.633 21.232 13.656 35.416-.176-9.015-.587-25.916-.529-27.047-1.062-2.314-2.27-4.18-3.876-6.079-.02-1.137.147-5.52.176-6.695 1.733 1.38 3.906 3.641 5.286 5.638v-22.113c0-2.903-2.32-4.418-3.172-5.463-.81-.992-6.873-7.173-10.927-11.376-2.056 5.29-12.253 5.59-14.787 1.164-2.512-4.389-1.88-10.419-2.258-18.549 5.423.9 13.564.352 17.488 4.25 3.969 3.942 2.881 7.382 1.853 11.026 4.081 4.495 8.062 7.757 12.143 12.252l.088-16.826c-3.942.954-11.832-2.534-10.394-10.832 1.423-8.213 10.627-11.294 12.405-16.191z" style="color:#000;fill:#316318;fill-opacity:1;fill-rule:evenodd;stroke:#000;stroke-width:1.41732287;stroke-linecap:butt;stroke-linejoin:miter;marker:none;marker-start:none;marker-mid:none;marker-end:none;stroke-miterlimit:4;stroke-dasharray:none;stroke-dashoffset:0;stroke-opacity:1;visibility:visible;display:inline;overflow:visible;enable-background:accumulate" transform="translate(-33.878 -760.98)"/></svg>