<svg xmlns="http://www.w3.org/2000/svg" version="1.0" width="215.154" height="252.019"><path d="M17.814 802.847 21.69 965.65c2.768 116.288 202.634 116.288 205.403 0l3.875-162.803H17.814z" style="fill:#fff;fill-opacity:1;fill-rule:evenodd;stroke:#000;stroke-width:2;stroke-linecap:butt;stroke-miterlimit:4;stroke-dashoffset:0;stroke-opacity:1" transform="translate(-16.814 -801.847)"/><path d="M114.046 1001.883c1.343-4.165 2.991-6.592 9.847-3.24 2.368-.998 8.052-4.31 9.846 1.12l-10.345 15.706-9.348-13.586z" style="opacity:1;color:#000;fill:#316b18;fill-opacity:1;fill-rule:evenodd;stroke:#000;stroke-width:1px;stroke-linecap:butt;stroke-linejoin:miter;marker:none;marker-start:none;marker-mid:none;marker-end:none;stroke-miterlimit:4;stroke-dasharray:none;stroke-dashoffset:0;stroke-opacity:1;visibility:visible;display:inline;overflow:visible;enable-background:accumulate" transform="translate(-16.814 -801.847)"/><path d="M114.794 949.658c1.218-3.292 8.101-7.963 8.725-4.113 2.368-.997 7.43-1.566 9.223 3.864l-9.099 14.583-8.85-14.334z" style="opacity:1;color:#000;fill:#316b18;fill-opacity:1;fill-rule:evenodd;stroke:#000;stroke-width:1px;stroke-linecap:butt;stroke-linejoin:miter;marker:none;marker-start:none;marker-mid:none;marker-end:none;stroke-miterlimit:4;stroke-dasharray:none;stroke-dashoffset:0;stroke-opacity:1;visibility:visible;display:inline;overflow:visible;enable-background:accumulate" transform="translate(-16.814 -801.847)"/><path d="M114.046 96.843c2.493-1.87 5.733-2.493 8.476-.997 2.368-.998 9.673-1.442 10.719 1.246l-9.847 11.84-9.348-12.09z" transform="translate(-16.814 2.484)" style="opacity:1;color:#000;fill:#316b18;fill-opacity:1;fill-rule:evenodd;stroke:#000;stroke-width:1px;stroke-linecap:butt;stroke-linejoin:miter;marker:none;marker-start:none;marker-mid:none;marker-end:none;stroke-miterlimit:4;stroke-dasharray:none;stroke-dashoffset:0;stroke-opacity:1;visibility:visible;display:inline;overflow:visible;enable-background:accumulate"/><path d="M125.944 907.558c8.656-13.82 18.25-25.546 32.169-34.02-2.5-1.232-5.51-2.125-6.699-4.23l2.556-1.322c-3.13-1.692-5.525-3.45-6.081-5.376l1.41-.706c-2.398-2.835-3.976-5.978-4.495-9.518l2.292.176c-1.764-2.027-2.072-4.054-2.468-6.081l2.115.793c-1.105-2.774-.695-5.296-.44-7.844 3.023 1.433 7.245 3.886 7.315 7.404l3.173 1.057c-.099 1.342-.316 2.743-.882 4.319.846 1.12 1.839 2.132 3.614 2.556-.015 3.231.228 6.463-.441 9.694l1.146-.528.705 4.142c-.977-6.434-.651-12.956-.705-19.39l1.85 1.322c-.25-2.086-.244-4.171.441-6.257l1.587.529c.138-2.666.953-4.823 2.027-6.787l1.939 1.234c.386-2.392 1.5-4.42 2.82-6.345l1.675 1.145c.854-1.959 2.012-2.704 3.084-3.79.632 1.88.601 3.76-.793 5.641l2.292.264c-.234 2.174-.6 4.348-1.763 6.522l1.939-.705c-.509 2.6-1.384 5.095-3.526 7.227l2.116-.44c-.771 2.486-1.991 4.3-3.702 5.376l1.322 1.41-7.491 12.162c3.877-6.594 8.29-10.687 12.867-14.013l1.322 2.027c1.534-1.809 3.262-3.473 5.729-4.583l.264 2.732c1.474-2.201 4.607-3.78 7.932-5.288l-.176 2.556c2.536-1.42 5.868-1.25 9.078-1.322-2.075 3.6-4.77 6.33-8.02 8.285l2.027.705c-1.648 1.878-3.788 3.262-6.61 3.966l1.762 1.058c-1.727 1.35-3.797 1.845-5.993 2.027l-.705 2.644c-2.67.58-5.396 1.274-7.844 1.41l.265 1.234c-3.34 1.235-7.291.806-10.576 2.027 3.45-1.288 6.656-.778 9.254-1.41l-.705 1.674c2.904-.596 5.703-.667 8.372-.088l-.617 1.939c2.361-.348 4.808-.178 7.404.881l-1.058 2.116c2.721.316 5.294.928 7.315 2.644l-.881 1.41c2.267.574 3.96 1.866 5.288 3.613-2.633.26-5.478.236-8.813-.44l.793 1.939c-2.791-.658-5.582-.723-8.373-2.909l-.176 2.115c-2.497-.234-4.877-1.41-7.14-3.525l.089 2.556c-2.047-.93-4.153-1.742-5.288-4.495l-2.82.881c-1.888-1.51-3.232-3.29-4.671-5.023 1.743 1.69 3.277 3.45 4.318 5.376l-2.291.705c1.876 1.326 3.498 2.906 4.67 4.935l-2.379 1.322c2.092 1.34 3.213 3.459 4.142 5.73l-2.38.792c1.411 2.622.95 5.01.53 7.404-2.417-1.954-4.973-3.74-6.258-7.051l-1.763 1.058c-1.04-2.076-2.049-4.163-1.939-6.699l-1.674.882c-.304-2.427-.45-4.919.176-7.58l-2.115 1.146c-.106-2.997.195-5.993.793-8.99-31.258 22.62-19.331 30.211-33.403 40.63l1.366 39.446c9.698-18.109 23.084-29.917 40.758-34.4-2.784-.69-5.568-1.196-8.351-3.241l1.994-1.62c-2.266-.162-4.433-.716-6.232-2.743l2.076-1.37c-1.914-.937-4.672-2.73-5.882-4.84l1.936-1.143c-1.976-.89-3.192-2.541-4.237-4.363l2.617-.25c-2.236-2.285-2.296-4.843-2.742-7.353 1.982 1.162 4.073 2.159 5.609 3.989l1.246-1.995c1.388 1.521 2.675 3.143 3.365 5.36l1.122-2.119c1.203 1.962 2.393 3.99 3.366 7.105l1.87-.374a35.3 35.3 0 0 1 .872 6.73l1.745-.997c.927 1.552 1.674 3.465 2.368 5.484-.208-3.121.099-5.557.593-7.743l1.37 1.174c-.228-2.847.71-4.79 1.402-6.892l1.246 1.994c.305-2.889 1.05-5.525 2.992-7.478l1.246 1.745c.778-3.615 2.828-5.448 4.737-7.479l1.128 1.59c1.07-1.997 3.334-3.3 5.477-4.207-.462 2.611-.463 5.146-2.243 7.977l2.368-.499c-.695 2.113-1.994 4.105-3.864 5.983l2.368.25c-1.302 2.539-3.009 4.755-5.484 6.356l1.62 1.371c-2.866 3.656-6.559 6.212-10.095 8.974 3.719-2.366 7.398-4.89 11.342-6.356l-.25 2.492c1.918-1.864 4.372-3.327 7.23-4.487l-.25 2.369c1.787-1.288 4.675-2.301 7.354-3.366l-.124 2.618c2.455-1.852 5.446-1.564 8.35-1.62l-.498 1.495a19.556 19.556 0 0 1 7.354.623c-1.968 2.611-4.568 3.744-7.23 4.737l1.496 1.246c-2.589.971-5.16 2.035-7.977 1.87l.499 1.62c-2.591.575-5.31.98-8.6.623l.872 1.62c-2.838-.063-5.358-.604-7.727-1.37l.124 1.994c-3.623.027-6.939-.87-10.345-1.496 5.3 1.552 10.724 2.727 15.58 5.609l-2.243.872c2.574 1.04 4.844 2.231 6.48 3.74l-2.118 1.495c2.192.514 4.339 1.095 5.609 2.992l-1.87 1.246c2.97 1.825 5.418 4.26 6.98 7.728-3.396-.292-6.844-.5-9.099-2.618l-.872 2.493c-2.084-1.643-3.942-3.376-4.861-5.484l-1.496.623c-2.139-1.454-3.258-3.317-4.238-5.235l-1.745 1.247c-2.138-2.16-2.982-4.321-3.49-6.482l-1.87-.124c-1.155-1.337-1.635-3.35-2.367-5.11.926 2.121 1.745 4.216 1.745 6.107l-2.618.748c1.922 2.35 2.308 4.894 2.368 7.478l-2.243-.25c.394 1.87.312 3.74.25 5.61l-2.12-.25c.189 1.933.488 3.902 0 5.61l-1.37-.375c-1.102 2.13-2.182 4.33-3.74 4.861-.698-1.198-1.11-2.896-.872-5.733l-1.62.374c.216-2.003.147-4.077 1.246-5.859h-1.87c.1-2.676.614-5.284 2.119-7.727l-2.514.03c1.373-2.768 2.526-5.139 4.134-6.262l-2.338-.66c1.224-2.52 2.418-4.754 4.582-6.57-19.078 4.512-31.183 15.4-38.639 30.538.525 3.216-2.416 7.279-5.11 8.35l.822 41.234c8.943-14.835 21.466-25.175 37.457-28.732a33.15 33.15 0 0 1-6.874-3.349l2.468-1.058c-2.817-.903-4.872-2.314-6.699-3.877l3.526-.706c-2.782-1.95-5.49-3.92-5.993-6.521h2.115c-1.979-1.729-3.907-3.519-4.583-6.875l2.82.176c-.514-2.441-1.125-4.762-.352-8.813 1.762 1.351 3.525 3.7 5.288 5.051.333-.427.66-1.328 1.294-1.77 1.814 1.552 1.9 5.33 1.99 7.016.768-.496 1.206-.951 1.96-1.098.97 1.52 1.99 5.634.22 7.37 1.017-.287 2.136-.063 2.78-.037.702 1.317 1.033 3.93 1.408 7.389.347-1.894 1.36-4.114 2.158-4.884l1.41 2.644c-.795-4.616.997-6.668 3.173-9.166.528.588.793 1.616.881 2.468.672-2.613 1.946-5.36 4.23-7.051l.882 3.525c.812-2.31 2.609-4.028 4.583-5.64.411.999.646 2.086.705 2.82 1.424-2.811 4.893-3.495 7.932-4.23-.737 2.803-1.975 5.538-4.583 8.108l2.468.353c-.981 1.39-3.167 2.539-5.288 3.701 1.59-.206 2.088.134 2.748.534-.724.908-4.47 3.705-6.626 4.49-.44 2.527-2.898 2.805-4.848 3.79-1.234 1.263-2.203 2.35-3.173 3.613 2.284-.143 3.78.202 5.377.088v1.587c1.838-1.875 5.586-2.111 8.99-2.644l-2.821 2.82c3.232-1.404 6.463-1.484 9.695-1.763l-.882 2.82c2.35-.642 4.584-.709 6.699-.176l-.53 1.41c3.115.647 5.994 1.763 8.638 3.35-2.49 2.332-5.56 3.07-8.99 2.82l-.352 1.939-6.346-1.763-.176 2.468a20.465 20.465 0 0 1-7.58-2.468c-.176.529-.088 1.41-.264 1.939-3.153-.54-5.974-1.669-7.491-4.76l-.353 2.468c-1.772-.363-4.389-1.438-5.926-2.975 1.964 1.475 4.833 3.042 6.102 5.443-.881.412-1.234.911-2.115 1.322 3.367.511 5.414 2.519 6.786 5.024-.881.47-2.027.411-2.908.881 3.461.575 4.422 2.935 5.64 5.112l-2.82.881c2.779 1.217 4.146 3.845 5.64 6.346l-2.996-.352c1.857 2.812 1.46 4.873 1.41 7.05-4.824-1.983-6.525-4.207-7.05-6.522-1.245.385-1.672-.022-2.994-.162-.645-1.025-1.178-3.227-1.413-5.478-1.1.474-1.845.547-2.469.442-.627-.954-1.326-2.682-1.233-5.025-.357.2-.852.214-1.217.502-.943-1.318-1.124-3.449-.898-7.2l-2.291.176 1.057-7.227-1.762 10.752-1.763-.529.705 7.756-1.763-1.41c.339 2.567.11 4.992-.881 7.227l-1.763-1.586c-.199 2.169-.464 4.325-2.291 6.169l-1.41-1.939c-.97 2.855-2.049 4.712-3.35 4.583-1.19-1.645-1.017-4.708-.352-7.05-.94.293-1.44.41-2.38.704-.258-2.35.664-4.524 2.38-6.874l-3.35.352c1.496-2.735 2.38-5.377 4.848-7.138-1.116-.06-1.616-.206-2.732-.265 1.765-2.115 2.709-3.676 6.434-5.464-.823-.118-.676-.764-1.498-.881 1.422-1.151 4.07-3.75 8.813-7.227-15.209 2.014-25.112 13.577-33.315 28.202.163 4.558-1.952 6.583-3.835 7.632l.169 24.17-7.853-.5-.08-21.405c-2.63-1.299-3.733-2.877-3.57-7.434-8.203-14.626-18.37-26.013-33.58-28.027 4.743 3.477 7.392 6.076 8.814 7.227-.823.118-.676.764-1.498.882 3.725 1.788 4.58 3.702 6.345 5.817-1.116.058-1.263-.147-2.38-.089 2.47 1.762 3.089 4.404 4.584 7.14l-3.35-.353c1.717 2.35 2.639 4.524 2.38 6.874-.94-.293-1.44-.411-2.38-.705.665 2.343.84 5.405-.352 7.05-1.3.13-2.38-1.727-3.35-4.582l-1.41 1.939c-1.827-1.844-2.091-4-2.29-6.17l-1.763 1.587c-.99-2.235-1.22-4.66-.882-7.227l-1.762 1.41.705-7.756-1.763.529-1.763-10.752 1.058 7.227-2.292-.177c.226 3.752.045 5.883-.898 7.2-.364-.287-.86-.301-1.217-.501.094 2.343-.605 4.07-1.233 5.025-.623.105-1.37.032-2.468-.442-.235 2.25-.769 4.453-1.413 5.478-1.323.14-1.75.547-2.994.162-.525 2.314-2.226 4.538-7.05 6.522-.051-2.177-.447-4.238 1.41-7.05l-2.997.352c1.494-2.5 2.333-5.217 5.111-6.434-.94-.294-1.35-.5-2.291-.793 1.218-2.177 2.444-3.656 5.024-5.288-.882-.47-1.41-.235-2.292-.705 1.891-1.987 3.72-4.036 6.434-5.2-.881-.411-.881-.735-1.763-1.146 1.269-2.402 4.139-3.969 6.103-5.443-1.538 1.537-4.154 2.612-5.926 2.975l-.353-2.467c-1.518 3.09-4.338 4.22-7.491 4.759-.177-.529-.089-1.41-.265-1.94a20.465 20.465 0 0 1-7.58 2.469l-.176-2.468-6.345 1.763-.353-1.94c-3.429.25-6.5-.487-8.99-2.82 2.645-1.586 5.524-2.702 8.638-3.349l-.53-1.41c2.115-.533 4.35-.466 6.7.176l-.882-2.82c3.231.28 6.463.36 9.694 1.763l-2.82-2.82c3.403.532 7.152.769 8.99 2.643v-1.586c1.597.114 3.092-.231 5.376-.088-.97-1.263-1.939-2.35-3.173-3.614-1.95-.984-4.407-1.262-4.847-3.79-2.156-.784-5.903-3.581-6.627-4.49.66-.399 1.863-.387 3.454-.18-2.121-1.163-5.012-2.664-5.993-4.055l2.468-.352c-2.608-2.57-3.846-5.305-4.583-8.109 3.038.736 6.508 1.42 7.932 4.23.058-.734.294-1.82.705-2.82 1.974 1.613 3.77 3.332 4.583 5.641l.881-3.525c2.285 1.69 3.558 4.438 4.23 7.05.089-.851.353-1.88.882-2.467 2.176 2.498 3.968 4.55 3.173 9.166l1.41-2.644c.797.77 1.81 2.99 2.158 4.884.374-3.46.705-6.072 1.407-7.389.644-.026 1.764-.25 2.78.037-1.77-1.736-.75-5.85.22-7.37.754.146 1.28.514 1.96 1.097.091-1.684.177-5.463 1.99-7.015.634.442.961 1.343 1.295 1.77 1.763-1.351 3.525-3.7 5.288-5.051.773 4.05.162 6.372-.353 8.813l2.82-.176c-.675 3.356-2.604 5.146-4.582 6.874h2.115c-.504 2.601-3.211 4.572-5.993 6.522l3.525.705c-1.827 1.564-3.881 2.975-6.698 3.878l2.468 1.058a33.15 33.15 0 0 1-6.875 3.349c15.992 3.557 27.633 13.545 36.84 27.41l.525-42.727c-2.694-1.071-4.225-3.548-3.7-6.764-7.456-15.138-19.208-25.673-38.286-30.185 2.163 1.816 3.358 4.05 4.581 6.57l-2.338.66c1.609 1.123 2.762 3.494 4.135 6.262l-2.514-.03c1.504 2.442 2.019 5.05 2.119 7.727h-1.87c1.099 1.782 1.03 3.856 1.246 5.858l-1.62-.374c.238 2.838-.174 4.536-.872 5.734-1.558-.532-2.639-2.731-3.74-4.861l-1.37.374c-.488-1.707-.189-3.677 0-5.61l-2.12.25c-.063-1.87-.144-3.739.25-5.609l-2.244.25c.06-2.584.447-5.127 2.368-7.479l-2.617-.748c0-1.89.819-3.985 1.745-6.107-.732 1.76-1.212 3.774-2.368 5.11l-1.87.125c-.507 2.16-1.351 4.32-3.49 6.481l-1.745-1.246c-.98 1.918-2.099 3.78-4.238 5.235l-1.495-.624c-.92 2.109-2.777 3.842-4.861 5.485l-.873-2.493c-2.254 2.118-5.703 2.325-9.098 2.617 1.562-3.467 3.304-5.814 6.274-7.64l-1.693-1.07a8.783 8.783 0 0 1 5.344-3.696l-1.325-1.055c1.637-1.508 3.202-2.083 5.776-3.122l-1.715-.96c4.856-2.883 9.576-4.587 14.875-6.138-3.406.625-5.84 1.522-9.464 1.495l.125-1.994c-2.37.766-4.89 1.308-7.728 1.371l.873-1.62c-3.29.356-6.01-.048-8.6-.623l.498-1.62c-2.817.165-5.387-.899-7.977-1.87l1.496-1.247c-2.661-.992-5.262-2.125-7.23-4.736a19.556 19.556 0 0 1 7.355-.623l-.499-1.496c2.904.057 5.895-.232 8.35 1.62l-.124-2.617c2.68 1.065 5.567 2.077 7.354 3.365l-.25-2.368c2.858 1.16 5.312 2.622 7.23 4.487l-.25-2.493c3.944 1.467 4.892 1.787 8.61 4.154-3.536-2.763-4.496-3.115-7.363-6.771l1.62-1.371c-2.475-1.602-4.181-3.817-5.484-6.357l2.368-.25c-1.87-1.877-3.168-3.87-3.864-5.982l2.369.499c-1.78-2.831-1.781-5.366-2.244-7.977 2.143.906 4.408 2.21 5.478 4.207l1.745-1.15c1.909 2.032 3.342 3.424 4.12 7.039l1.775-1.657c1.94 1.953 2.158 4.501 2.462 7.39l1.247-1.994c.691 2.102 1.718 4.486 1.489 7.332l1.283-1.085c.494 2.186 1.065 4.18 1.122 6.773.43-2.195.912-3.49 1.839-5.043l1.745.997a35.3 35.3 0 0 1 .872-6.73l1.87.373c.972-3.115 2.162-5.142 3.365-7.104l1.122 2.119c.691-2.218 1.978-3.84 3.365-5.36l1.247 1.994c1.536-1.83 3.627-2.827 5.609-3.988-.446 2.51.198 4.627-2.037 6.913l1.912.69c-1.045 1.821-1.556 3.296-3.533 4.186l1.232 1.32c-1.21 2.11-3.968 3.903-5.882 4.839l2.076 1.371c-1.8 2.026-3.967 2.581-6.232 2.742l1.994 1.62c-2.784 2.046-5.069 3.176-7.852 3.864 17.673 4.484 29.327 13.906 39.024 32.015l-.52-41.307c-12.53-9.553-.992-16.998-32.25-39.618.598 2.996.774 5.37.668 8.366l-1.43-.71c.128 2.911.168 5.216-.135 7.643l-1.675-.882c.11 2.536-.899 4.187-1.939 6.262l-1.513-.185c-1.285 3.312-4.464 4.91-6.507 6.178-.42-2.393-.881-4.78.529-7.403l-2.38-.793c.93-2.27 1.427-4.388 3.52-5.729l-2.318-.325c1.173-2.03 3.356-4.606 5.232-5.932l-1.685.46c1.04-1.925 2.763-3 4.506-4.69-1.44 1.733-2.971 2.828-4.859 4.337l-3.115-1.36c-1.322 2.378-3.552 2.879-5.6 3.809l-.223-1.933c-2.262 2.115-4.828 3.353-7.325 3.588l-.177-1.99c-2.79 2.185-5.395 1.751-8.185 2.409l.294-1.814c-3.335.676-5.37.264-8.003.004 1.328-1.748 2.335-2.603 4.602-3.177l-.632-.662c2.022-1.716 5.03-3.512 7.752-3.829l-1.37-1.74c2.596-1.06 4.918-1.23 7.28-.882l-.618-1.94c2.562-.363 4.878-.198 7.999-.036-1.009-1.258-1.896-2.33-1.077-3.587-2.51.61-5.151.206-7.72-1.597l-.704-1.647c-2.196-.182-4.017-.926-5.744-2.277l1.513-1.805c-2.822-.704-5.461-1.59-7.109-3.468l2.028-.705c-3.25-1.954-5.447-5.184-7.522-8.783 3.21.072 6.542-.099 9.078 1.322l-.426-1.496c3.326 1.507 6.708 2.027 8.182 4.228l.015-2.358c2.466 1.11 4.444 2.4 5.978 4.21l.387-1.841c4.775 3.178 10.682 7.832 14.114 14.761l-7.803-13.097 1.322-1.41c-1.71-1.077-2.931-2.89-3.702-5.377l2.115.441c-2.142-2.133-3.016-4.627-3.525-7.227l1.939.705c-1.162-2.174-1.529-4.348-1.763-6.522l1.482-.077c-1.395-1.88-.864-3.574-.233-5.454 1.073 1.086 2.48 1.457 3.334 3.416l1.176-.772c1.32 1.926 2.933 3.58 3.32 5.972l.879-.985c1.073 1.964 2.948 3.872 3.086 6.537l.901-.154c.685 2.085 1.376 3.797 1.126 5.883l1.851-1.322c.382 6.559.459 13.89.541 18.268.036-4.643-.228-7.24-.147-10.317 1.463-1.483 3.08-3.304 3.925-4.425-.566-1.576-.784-2.977-.882-4.319l2.55-.123c.07-3.517 4.79-6.033 7.814-7.465.254 2.547 1.35 4.134.244 6.909l1.555-.731c-.397 2.027-.143 3.244-1.907 5.27l1.73.635c-.518 3.54-2.158 7.181-4.557 10.017l1.473.206c-.557 1.926-2.265 4.059-5.396 5.75l1.87.949c-1.189 2.105-4.198 2.998-6.698 4.23 13.546 8.848 22.64 19.763 31.297 33.583l.696-18.336c.252-6.636-7.227-11.281-8.46-12.78l1.762-1.41 7.05 5.024c.088-9.088-1.473-6.469-10.047-15.952l1.851-1.146c2.879 1.998 5.882 3.499 8.549 6.346.183-8.867-4.283-10.327-10.576-15.071l1.146-1.498 9.166 4.935c.264-7.582-4.903-9.51-9.166-13.396l1.85-2.115 7.756 5.816c-.999-6.55-3.686-9.706-8.813-14.894l1.674-1.94c2.512 2.292 5.11 4.412 7.404 7.14l-.353-11.987 3.085.089v11.633c1.837-3.067 4.447-4.848 6.962-6.786l1.41 1.498c-4.67 5.402-7.826 8.01-7.403 14.983l7.756-6.434 1.587 2.027c-4.983 5.757-13.245 9.023-9.695 16.746l9.254-7.668 1.146 1.763c-6.845 6.972-11.997 7.799-10.224 16.833 2.505-2.51 4.83-5.128 8.46-6.962l.97 1.674c-8.33 7.944-9.378 6.908-9.077 15.512l6.698-6.786 2.027 2.203c-6.522 6.522-8.725 8.516-8.725 12.074v20.712z" style="color:#000;fill:#316b18;fill-opacity:1;fill-rule:evenodd;stroke:#000;stroke-width:1px;stroke-linecap:butt;stroke-linejoin:round;marker:none;marker-start:none;marker-mid:none;marker-end:none;stroke-miterlimit:4;stroke-dashoffset:0;stroke-opacity:1;visibility:visible;display:inline;overflow:visible;enable-background:accumulate" transform="translate(-16.814 -801.847)"/><path d="M139.957 70.177a4.054 4.054 0 1 1-8.108 0 4.054 4.054 0 1 1 8.108 0z" transform="translate(-17.167 2.307)" style="opacity:1;color:#000;fill:#e7d600;fill-opacity:1;fill-rule:evenodd;stroke:#000;stroke-width:1pt;stroke-linecap:butt;stroke-linejoin:miter;marker:none;marker-start:none;marker-mid:none;marker-end:none;stroke-miterlimit:4;stroke-dasharray:none;stroke-dashoffset:0;stroke-opacity:1;visibility:visible;display:inline;overflow:visible;enable-background:accumulate"/><path d="M139.957 70.177a4.054 4.054 0 1 1-8.108 0 4.054 4.054 0 1 1 8.108 0z" transform="translate(-40.258 2.66)" style="opacity:1;color:#000;fill:#e7d600;fill-opacity:1;fill-rule:evenodd;stroke:#000;stroke-width:1pt;stroke-linecap:butt;stroke-linejoin:miter;marker:none;marker-start:none;marker-mid:none;marker-end:none;stroke-miterlimit:4;stroke-dasharray:none;stroke-dashoffset:0;stroke-opacity:1;visibility:visible;display:inline;overflow:visible;enable-background:accumulate"/><path d="M139.957 70.177a4.054 4.054 0 1 1-8.108 0 4.054 4.054 0 1 1 8.108 0z" transform="translate(-41.492 -8.269)" style="opacity:1;color:#000;fill:#e7d600;fill-opacity:1;fill-rule:evenodd;stroke:#000;stroke-width:1pt;stroke-linecap:butt;stroke-linejoin:miter;marker:none;marker-start:none;marker-mid:none;marker-end:none;stroke-miterlimit:4;stroke-dasharray:none;stroke-dashoffset:0;stroke-opacity:1;visibility:visible;display:inline;overflow:visible;enable-background:accumulate"/><path d="M139.957 70.177a4.054 4.054 0 1 1-8.108 0 4.054 4.054 0 1 1 8.108 0z" transform="translate(-41.844 -19.021)" style="opacity:1;color:#000;fill:#e7d600;fill-opacity:1;fill-rule:evenodd;stroke:#000;stroke-width:1pt;stroke-linecap:butt;stroke-linejoin:miter;marker:none;marker-start:none;marker-mid:none;marker-end:none;stroke-miterlimit:4;stroke-dasharray:none;stroke-dashoffset:0;stroke-opacity:1;visibility:visible;display:inline;overflow:visible;enable-background:accumulate"/><path d="M139.957 70.177a4.054 4.054 0 1 1-8.108 0 4.054 4.054 0 1 1 8.108 0z" transform="translate(-41.844 -30.479)" style="opacity:1;color:#000;fill:#e7d600;fill-opacity:1;fill-rule:evenodd;stroke:#000;stroke-width:1pt;stroke-linecap:butt;stroke-linejoin:miter;marker:none;marker-start:none;marker-mid:none;marker-end:none;stroke-miterlimit:4;stroke-dasharray:none;stroke-dashoffset:0;stroke-opacity:1;visibility:visible;display:inline;overflow:visible;enable-background:accumulate"/><path d="M139.957 70.177a4.054 4.054 0 1 1-8.108 0 4.054 4.054 0 1 1 8.108 0z" transform="translate(-40.61 -42.817)" style="opacity:1;color:#000;fill:#e7d600;fill-opacity:1;fill-rule:evenodd;stroke:#000;stroke-width:1pt;stroke-linecap:butt;stroke-linejoin:miter;marker:none;marker-start:none;marker-mid:none;marker-end:none;stroke-miterlimit:4;stroke-dasharray:none;stroke-dashoffset:0;stroke-opacity:1;visibility:visible;display:inline;overflow:visible;enable-background:accumulate"/><path d="M139.957 70.177a4.054 4.054 0 1 1-8.108 0 4.054 4.054 0 1 1 8.108 0z" transform="translate(-18.048 -42.817)" style="opacity:1;color:#000;fill:#e7d600;fill-opacity:1;fill-rule:evenodd;stroke:#000;stroke-width:1pt;stroke-linecap:butt;stroke-linejoin:miter;marker:none;marker-start:none;marker-mid:none;marker-end:none;stroke-miterlimit:4;stroke-dasharray:none;stroke-dashoffset:0;stroke-opacity:1;visibility:visible;display:inline;overflow:visible;enable-background:accumulate"/><path d="M139.957 70.177a4.054 4.054 0 1 1-8.108 0 4.054 4.054 0 1 1 8.108 0z" transform="translate(-15.757 -31.007)" style="opacity:1;color:#000;fill:#e7d600;fill-opacity:1;fill-rule:evenodd;stroke:#000;stroke-width:1pt;stroke-linecap:butt;stroke-linejoin:miter;marker:none;marker-start:none;marker-mid:none;marker-end:none;stroke-miterlimit:4;stroke-dasharray:none;stroke-dashoffset:0;stroke-opacity:1;visibility:visible;display:inline;overflow:visible;enable-background:accumulate"/><path d="M139.957 70.177a4.054 4.054 0 1 1-8.108 0 4.054 4.054 0 1 1 8.108 0z" transform="translate(-15.228 -19.903)" style="opacity:1;color:#000;fill:#e7d600;fill-opacity:1;fill-rule:evenodd;stroke:#000;stroke-width:1pt;stroke-linecap:butt;stroke-linejoin:miter;marker:none;marker-start:none;marker-mid:none;marker-end:none;stroke-miterlimit:4;stroke-dasharray:none;stroke-dashoffset:0;stroke-opacity:1;visibility:visible;display:inline;overflow:visible;enable-background:accumulate"/><path d="M139.957 70.177a4.054 4.054 0 1 1-8.108 0 4.054 4.054 0 1 1 8.108 0z" transform="translate(-15.933 -8.445)" style="opacity:1;color:#000;fill:#e7d600;fill-opacity:1;fill-rule:evenodd;stroke:#000;stroke-width:1pt;stroke-linecap:butt;stroke-linejoin:miter;marker:none;marker-start:none;marker-mid:none;marker-end:none;stroke-miterlimit:4;stroke-dasharray:none;stroke-dashoffset:0;stroke-opacity:1;visibility:visible;display:inline;overflow:visible;enable-background:accumulate"/><path d="M139.957 70.177a4.054 4.054 0 1 1-8.108 0 4.054 4.054 0 1 1 8.108 0z" transform="translate(-58.697 -65.653) scale(1.21739)" style="opacity:1;color:#000;fill:#e7d600;fill-opacity:1;fill-rule:evenodd;stroke:#000;stroke-width:.82142859pt;stroke-linecap:butt;stroke-linejoin:miter;marker:none;marker-start:none;marker-mid:none;marker-end:none;stroke-miterlimit:4;stroke-dasharray:none;stroke-dashoffset:0;stroke-opacity:1;visibility:visible;display:inline;overflow:visible;enable-background:accumulate"/></svg>