<svg xmlns="http://www.w3.org/2000/svg" version="1.0" width="219.125" height="256.67"><g transform="translate(-27.875 -808.458)"><path d="m28.875 809.458 3.948 165.832c2.82 118.451 206.41 118.451 209.23 0L246 809.458H28.875z" style="fill:#e04a29;fill-opacity:1;fill-rule:evenodd;stroke:#000;stroke-width:2;stroke-linecap:butt;stroke-miterlimit:4;stroke-dashoffset:0;stroke-opacity:1"/><path d="M81.934 30.95h19.559v20.184h9.514V30.95h19.735v31.188h-12.584v9.691h12.584v30.483h-19.735V82.003h-9.514v20.133l-19.559.176V71.83h19.935v-9.691H81.934V30.95z" transform="translate(0 804.33)" style="color:#000;fill:#fff;fill-opacity:1;fill-rule:evenodd;stroke:#000;stroke-width:1.00000012px;stroke-linecap:butt;stroke-linejoin:miter;marker:none;marker-start:none;marker-mid:none;marker-end:none;stroke-miterlimit:4;stroke-dashoffset:0;stroke-opacity:1;visibility:visible;display:inline;overflow:visible;enable-background:accumulate"/><path d="M137.178 1042.186c4.339-2.616 8.367-4.573 16.2-7.31 7.873-2.749 33.44-14.906 33.44-39.93 0-25.026-21.224-39.518-49.64-39.518s-49.64 14.492-49.64 39.518c0 25.024 25.566 37.181 33.44 39.93 7.832 2.737 11.861 4.694 16.2 7.31zm.623-17.692c3.009 0 37.803-5.979 37.803-30.156 0-24.052-22.644-23.198-24.26-23.198-1.74 0-9.129.316-13.543 3.226-4.415-2.91-11.802-3.226-13.543-3.226-1.617 0-24.26-.854-24.26 23.198 0 24.177 34.794 30.156 37.803 30.156z" style="color:#000;fill:#fff;fill-opacity:1;fill-rule:evenodd;stroke:#000;stroke-width:1.00310087pt;stroke-linecap:butt;stroke-linejoin:miter;marker:none;marker-start:none;marker-mid:none;marker-end:none;stroke-miterlimit:4;stroke-dashoffset:0;stroke-opacity:1;visibility:visible;display:inline;overflow:visible;enable-background:accumulate"/><rect width="25.043" height="9.22" rx="4.61" ry="4.61" x="124.656" y="946.956" style="opacity:1;color:#000;fill:#fff;fill-opacity:1;fill-rule:evenodd;stroke:#000;stroke-width:1.00000012px;stroke-linecap:butt;stroke-linejoin:miter;marker:none;marker-start:none;marker-mid:none;marker-end:none;stroke-miterlimit:4;stroke-dasharray:none;stroke-dashoffset:0;stroke-opacity:1;visibility:visible;display:inline;overflow:visible;enable-background:accumulate"/><rect width="14.951" height="124.828" rx="0" ry="0" x="129.702" y="822.113" style="opacity:1;color:#000;fill:#fff;fill-opacity:1;fill-rule:evenodd;stroke:#000;stroke-width:1.00000012px;stroke-linecap:butt;stroke-linejoin:miter;marker:none;marker-start:none;marker-mid:none;marker-end:none;stroke-miterlimit:4;stroke-dasharray:none;stroke-dashoffset:0;stroke-opacity:1;visibility:visible;display:inline;overflow:visible;enable-background:accumulate"/></g></svg>