<svg xmlns="http://www.w3.org/2000/svg" xmlns:xlink="http://www.w3.org/1999/xlink" version="1.0" width="221.639" height="259.616"><g transform="translate(-13.67 -816.763)"><path d="m14.67 817.763 3.993 167.75c2.852 119.821 208.8 119.821 211.652 0l3.993-167.75H14.67z" style="fill:#fff;fill-opacity:1;fill-rule:evenodd;stroke:none;stroke-width:2;stroke-linecap:butt;stroke-miterlimit:4;stroke-dashoffset:0;stroke-opacity:1"/><path d="m14.656 13.438 1.406 59.374 171 182.063c24.79-14.634 42.43-39.197 43.25-73.688l.157-6.843L79.375 13.438H14.656z" transform="translate(0 804.33)" style="color:#000;fill:#3178d8;fill-opacity:1;fill-rule:evenodd;stroke:#000;stroke-width:1.00000012px;stroke-linecap:butt;stroke-linejoin:miter;marker:none;marker-start:none;marker-mid:none;marker-end:none;stroke-miterlimit:4;stroke-dasharray:none;stroke-dashoffset:0;stroke-opacity:1;visibility:visible;display:inline;overflow:visible;enable-background:accumulate"/><path d="M88.51 890.285c-16.07 15.091-50.765 12.691-58.19-19.596 13.319 15.587 32.851 12.6 42.823 3.234 9.971-9.364 14.178-28.671-.544-42.94 31.758 9.433 31.979 44.21 15.91 59.302z" id="a" style="fill:#f7de39;fill-opacity:1;fill-rule:evenodd;stroke:#000;stroke-width:.99921262;stroke-linecap:butt;stroke-linejoin:round;stroke-miterlimit:4;stroke-dasharray:none;stroke-opacity:1"/><use transform="translate(50.744 55.404)" id="b" x="0" y="0" width="248.031" height="248.031" xlink:href="#a"/><use transform="translate(50.744 55.404)" width="248.031" height="248.031" xlink:href="#b"/><path d="m14.67 817.763 3.993 167.75c2.852 119.821 208.8 119.821 211.652 0l3.993-167.75H14.67z" style="fill:none;fill-opacity:1;fill-rule:evenodd;stroke:#000;stroke-width:2;stroke-linecap:butt;stroke-miterlimit:4;stroke-dashoffset:0;stroke-opacity:1"/></g></svg>