<svg xmlns="http://www.w3.org/2000/svg" xmlns:xlink="http://www.w3.org/1999/xlink" version="1.0" width="224.99" height="263.541"><g transform="translate(-12.662 -812.773)"><path d="m13.662 813.773 4.055 170.305c2.895 121.647 211.985 121.647 214.88 0l4.055-170.305H13.662z" style="fill:#cc3222;fill-opacity:1;fill-rule:evenodd;stroke:none;stroke-width:2;stroke-linecap:butt;stroke-miterlimit:4;stroke-dashoffset:0;stroke-opacity:1"/><path d="m13.656 9.438 1.5 63.5 171.188 182.968c26.384-14.676 45.39-40.07 46.25-76.156l.031-1.375L74.594 9.437H13.656z" transform="translate(0 804.33)" style="color:#000;fill:#fff;fill-opacity:1;fill-rule:evenodd;stroke:#1a1a1a;stroke-width:1.00000012px;stroke-linecap:butt;stroke-linejoin:miter;marker:none;marker-start:none;marker-mid:none;marker-end:none;stroke-miterlimit:4;stroke-dasharray:none;stroke-dashoffset:0;stroke-opacity:1;visibility:visible;display:inline;overflow:visible;enable-background:accumulate"/><path d="M180.176 954.53c-19.067-.635-35.058 14.325-35.694 33.392-.635 19.068 14.326 35.06 33.393 35.694 19.067.636 35.059-14.325 35.694-33.392.635-19.067-14.325-35.059-33.393-35.694zm-.398 11.962c12.464.415 22.244 10.87 21.829 23.333-.415 12.464-10.87 22.245-23.334 21.83-12.463-.416-22.244-10.87-21.828-23.334.415-12.464 10.87-22.244 23.333-21.83z" id="a" style="color:#000;fill:#215aa5;fill-opacity:1;fill-rule:evenodd;stroke:#000;stroke-width:1pt;stroke-linecap:butt;stroke-linejoin:miter;marker:none;marker-start:none;marker-mid:none;marker-end:none;stroke-miterlimit:4;stroke-dasharray:none;stroke-dashoffset:0;stroke-opacity:1;visibility:visible;display:inline;overflow:visible;enable-background:accumulate"/><use transform="translate(-55.775 -59.619)" width="248.031" height="248.031" xlink:href="#a"/><use transform="translate(-111.55 -119.238)" width="248.031" height="248.031" xlink:href="#a"/><path d="m13.662 813.773 4.055 170.305c2.895 121.647 211.985 121.647 214.88 0l4.055-170.305H13.662z" style="fill:none;fill-opacity:1;fill-rule:evenodd;stroke:#000;stroke-width:2;stroke-linecap:butt;stroke-miterlimit:4;stroke-dashoffset:0;stroke-opacity:1"/></g></svg>