<svg xmlns="http://www.w3.org/2000/svg" xmlns:xlink="http://www.w3.org/1999/xlink" height="763" width="603" version="1.0"><defs><radialGradient xlink:href="#a" id="b" gradientUnits="userSpaceOnUse" gradientTransform="matrix(1.21503 0 0 1.26667 -839.192 -490.49)" cx="858.042" cy="579.933" fx="858.042" fy="579.933" r="300"/><linearGradient id="a"><stop style="stop-color:#fff;stop-opacity:.3137255" offset="0"/><stop offset=".19" style="stop-color:#fff;stop-opacity:.25098041"/><stop style="stop-color:#6b6b6b;stop-opacity:.1254902" offset=".6"/><stop style="stop-color:#000;stop-opacity:.1254902" offset="1"/></linearGradient></defs><path d="M1.5 1.5v458.868c0 166.31 134.315 301.132 300 301.132s300-134.822 300-301.132V1.5H1.5z" style="fill:#fff;fill-opacity:1;stroke:#fff;stroke-opacity:1"/><path style="opacity:1;fill:#5ab532;fill-opacity:1;fill-rule:evenodd;stroke:#000;stroke-width:3.00000095;stroke-linecap:round;stroke-linejoin:round;stroke-miterlimit:4;stroke-dasharray:none;stroke-opacity:1" d="M1.5 384.5v75.875c0 166.31 134.315 301.125 300 301.125s300-134.814 300-301.125V384.5H1.5z"/><path style="fill:#e20909;fill-opacity:1;fill-rule:evenodd;stroke:#000;stroke-width:5.00000095;stroke-linecap:butt;stroke-linejoin:miter;stroke-miterlimit:4;stroke-dasharray:none;stroke-opacity:1" d="m126.213 340.5 116.024-.019.673-10.683 114.336.627.272 9.901 114.184-.589-.007-240.447c11.247-.232 17.208-.597 25.812-.896V45.675h-36.279l-.63 26.096-22.989-.28V45.676h-41.393l-1.462 25.017h-20.696l.73-25.017H337.78v53.518l20.236.566-.683 116.485c1.451 1.913-13.035 1.756-19.553 1.49v-30.397l-23.613.007.406 29.305c3.569-.496-19.95-.36-28.205 0l-.224-28.46-22.454.164-.698 28.84-21.925-.061-.997-118.407h19.235l-.73-53.05h-29.218l-1.046 25.817h-23.058V45.675h-38.717v25.817h-24.103V45.675H102.5v53.85l23.405.234.308 240.741z"/><path style="fill:#e20909;fill-opacity:1;fill-rule:evenodd;stroke:#000;stroke-width:3.00000095;stroke-linecap:round;stroke-linejoin:round;stroke-miterlimit:4;stroke-dasharray:none;stroke-opacity:1" d="M297.437 274.45c-15.154 0-27.453 7.977-27.453 17.806 0 .69.069 1.373.187 2.043h-.187v35.61h54.906V294.3h-.187c.118-.67.187-1.352.187-2.043 0-9.829-12.299-17.805-27.453-17.805z"/><path style="fill:#e20909;fill-opacity:1;fill-rule:evenodd;stroke:#000;stroke-width:5.00000143;stroke-linecap:butt;stroke-linejoin:miter;stroke-miterlimit:4;stroke-dasharray:none;stroke-opacity:1" d="m241.175 180.284 1.024 158.929"/><path d="m357.078 176.697.417 160.894" style="fill:#e20909;fill-opacity:1;fill-rule:evenodd;stroke:#000;stroke-width:5.00000095;stroke-linecap:butt;stroke-linejoin:miter;stroke-miterlimit:4;stroke-dasharray:none;stroke-opacity:1"/><path d="m239.766 99.057-121.12.41 121.12-.41M478.907 99.057l-121.12.41 121.12-.41" style="fill:#e20909;fill-opacity:1;fill-rule:evenodd;stroke:#000;stroke-width:5.00000143;stroke-linecap:butt;stroke-linejoin:miter;stroke-miterlimit:4;stroke-dasharray:none;stroke-opacity:1"/><path style="fill:#e20909;fill-opacity:1;fill-rule:evenodd;stroke:#000;stroke-width:3.00000215;stroke-linecap:round;stroke-linejoin:round;stroke-miterlimit:4;stroke-dasharray:none;stroke-opacity:1" d="M165.55 141.559h32.89v32.235h-32.89z"/><path style="fill:#e20909;fill-opacity:1;fill-rule:evenodd;stroke:#000;stroke-width:3.00000191;stroke-linecap:round;stroke-linejoin:round;stroke-miterlimit:4;stroke-dasharray:none;stroke-opacity:1" d="M397.623 142.945h32.89v30.85h-32.89z"/><g style="display:inline"><path style="fill:url(#b);fill-opacity:1" d="M1.5 1.5v458.868c0 166.31 134.315 301.132 300 301.132s300-134.821 300-301.132V1.5H1.5z"/></g><g style="display:inline"><path style="fill:none;fill-opacity:1;stroke:#000;stroke-width:3;stroke-miterlimit:4;stroke-dasharray:none;stroke-opacity:1" d="M1.5 1.5v458.868c0 166.31 134.315 301.132 300 301.132s300-134.821 300-301.132V1.5H1.5z"/></g></svg>