<svg height="600.88354" width="500.00101" xmlns="http://www.w3.org/2000/svg"><path d="m.30414446 157.42014v340.17273c0 133.15745 107.53965554 241.10299 240.19655554 241.10299 132.65692 0 240.19658-107.94554 240.19658-241.10299v-340.17273z" fill="#fcdd09" stroke-width=".800655" transform="translate(9.499787 -147.61623)"/><g stroke="#000"><g fill-rule="evenodd" transform="matrix(.80065522 0 0 .80065522 9.64815 .59639)"><g fill="#fcdd09" stroke-width="6"><g transform="translate(12.23904 22.05012)"><path d="m207.96155 132.02875c-6.34289 29.54277 34.94862 27.80221 69.88074 30.23813-20.07273 2.64795-39.35827 7.92264-60.51358 7.05833-13.34001-.54502-28.64396-6.59149-25.1869-25.17139 1.55087-8.33504 7.45706-10.36902 15.81974-12.12507z"/><path d="m267.34285 113.36076c-47.20696-24.247842-65.25404 6.55619-45.91709 29.15796 8.91159-22.37972 40.62502-.35657 50.67709 20.81893-12.78046 3.56604-9.95543 12.52909-38.11774 9.86764 10.56698 3.30565-1.30282 44.47723 66.27585-1.97351z"/></g><path d="m150.90843 557.57391c-57.365112-66.30367-71.177683-33.68392-66.82428-15.37311 25.98795-17.29017 40.0089 16.9977 51.56119 23.92322-82.14904-12.6963-57.568821 40.6421-41.422853 37.936 1.511728-26.80149 27.636503-21.07458 44.572983-20.58609-34.1141 68.82273 9.94345 56.86165 18.56703 59.60536-21.65714-21.87269-8.17119-44.75531 2.72018-60.05352 18.48438 2.14563 48.08278-4.02068 53.70865 22.673-1.74983-8.30104 54.16963-30.73637-51.36468-35.87139l74.03767-62.02805-37.37145-18.10153s-48.18444 67.87611-48.18444 67.87611z"/><path d="m449.54377 557.31645c57.36511-66.30368 78.7828-37.4865 74.4294-19.17569-25.98795-17.29017-47.61402 15.73018-59.16631 22.65569 82.14904-12.69629 66.44146 40.64211 50.29549 37.93601-1.51172-26.80149-40.31171-24.87716-57.2482-24.38868 34.1141 68.82274-7.4084 63.19928-16.03197 65.94299 21.65714-21.87268 10.70623-49.82541-.18513-65.12361-18.48438 2.14562-50.61783 4.85195-56.2437 31.54564 4.0959-6.06912-55.36875-25.21369 48.82962-43.47651l-74.03767-64.5631 37.37145-18.10153s51.98702 76.74879 51.98702 76.74879z"/></g><path d="m146.41665 43.299012c9.29353 37.45219 29.26271 103.648728 73.75785 166.728528 8.84098 12.53366-1.4047 44.46459-40.90486 32.34977 5.66701 18.53661-8.4194 44.01356 43.0982 46.44049 4.76216-12.67086 7.38017-27.48583 26.31091-25.98806l8.88987-12.04296-10.76041.22234c25.11688-29.36551 42.87663-25.67436 51.15007-44.42752-.47736-19.89826 7.28922-48.52146-40.85404-80.81017l.52913-.46271 117.1022-1.54332c9.33367-6.48021 18.66737-7.01291 28.00104-9.88437-8.95739 18.64566-21.7431 30.1787-31.27056 38.70427-15.65842 14.01189-5.34301 39.86256-7.11811 59.71235-18.32866-34.70545-2.75048 56.74806-12.60996 40.37531-11.53701-19.15846-4.44126 2.09745-9.02933 8.32423 12.98063-.30289 15.99261 15.53879 27.17493 20.27201 27.63237 11.69615 51.62797-5.44241 49.27952-39.57553-39.44563 3.87803-48.01377-13.73135-34.10865-45.62746 25.63785-39.06612 58.1648-98.55529 73.32338-154.096523 43.65253 2.801849 28.70331 85.306843-4.85199 145.412083 21.8248-35.90336 63.10022-60.22071 79.1131-129.902339 22.98694 23.37741 79.09953 36.541925-49.67832 158.947809-2.31656 6.56359 78.26409-39.6182 83.71821-55.07154 17.47032 79.82681-22.51156 84.08275-88.67463 103.99023 30.94464 3.23794 60.52752 11.58262 96.54604-4.20632-7.60399 25.41788 13.64289 89.12011-106.43046 45.61443 32.17526 17.53076 53.03248 45.7138 105.92724 43.74385-10.29437 25.32846-5.30552 94.19153-125.37318-9.88437 33.48603 37.97069 43.40988 71.90216 119.5147 117.17889-23.62399 10.68858-57.16742 77.65361-156.07078-103.26859 7.02613 12.33877 18.83919 86.82848 72.42852 132.09569-46.70134 18.53669-89.79523 4.60651-119.19186-132.59891-5.68378 12.95283-18.41177 21.61997-14.09073 46.26008 9.87571 56.31475 97.33318 117.95801 76.4545 103.95223l-68.3096 12.4006c-18.91289-18.78973-25.18332-35.06128-25.79341-50.36698l2.31613-52.66351c-25.23295 61.64909 5.013 155.74914 20.86802 152.81323-9.20547-.44574-13.44391 7.38697-29.83354-5.03237-.0245 49.50626 4.82147 94.93899 77.28052 83.82264-12.15706 21.7504-9.35587 55.00721-70.73844 38.89189-8.30326 15.9594-14.59826 34.59643-30.51718 40.40159-26.80001-10.05779-29.24969-26.60901-37.05934-41.73092-18.48197 8.1566-52.82343 24.29767-73.75789-37.0593 39.58541 9.01125 74.6293 2.23531 86.33887-85.65523-11.41983 7.52834-23.6598 12.32278-39.07231 6.54212 35.28692-24.43492 34.54265-99.43489 17.36546-153.09026 0 0 4.07233 46.58887 4.34909 58.76798.56374 24.80882-10.9931 35.98694-20.02442 44.35912l-66.89289-11.39412c61.60596-70.40984 61.15509-75.01585 65.38318-100.7524 4.8863-29.74319-5.3679-36.61216-8.05183-47.44698-25.41834 81.25317-35.69692 112.19572-61.7334 126.73662-31.56618 17.62915-62.19992 5.12641-59.32678 1.01033 61.0239-41.58943 52.73845-89.77975 77.81952-134.79229-54.8404 100.22226-108.199961 168.85322-155.0643 98.91985 61.770006-19.26619 69.49113-47.56708 116.99851-108.80422-31.03615 22.38193-102.862163 101.85929-118.004993 10.06479 25.933423 2.62186 67.664732-18.45304 109.307483-39.39515-75.941781 23.03139-119.031661 7.64276-115.849604-61.86051 31.490607 23.61889 67.829556 26.63223 104.597914 27.82061-43.674741-27.83749-114.992744-32.2845-94.21028-114.6627 30.278776 29.96313 61.983289 56.78967 98.91985 72.10572-84.955522-81.51674-122.349646-112.06955-74.441527-173.361376 4.237349 32.291508 44.834217 78.049526 84.325897 123.398206-5.28035-44.04203-64.683043-118.320801 1.50975-140.920878z" stroke-width="1.000001"/><path d="m303.28125 25.75 2 17.5-17.5-2v17.4375l17.5-2-2 15.5625c-28.44146 1.816539-50.4375 13.612203-50.4375 27.875 0 15.51961 26.03685 20.09375 58.09375 20.09375 32.05689 0 65.43795-6.43867 58.0625-20.09375-7.37449-13.653299-19.85698-24.718978-48.28125-27.96875l-2-15.46875 17.5 2v-17.4375l-17.5 2 2-17.5z" fill="#fcdd09" stroke-linecap="round" stroke-linejoin="round" stroke-width="6"/><path d="m233.86304 83.571877c28.3422 31.334473 21.31349 39.082423 24.82762 41.336753h103.25408c9.89577-13.76166-.19273-15.45474 32.55018-33.8902-31.40916-15.364864-31.70082 9.9717-34.4924 5.365307-20.34859-18.225829-27.49684 16.462763-8.26224 11.713633-12.64531 11.11085-20.71343 8.45077-28.07644 0 15.49803-8.51966 5.47621-19.084385-3.04384-18.560434 4.81008-13.508514-3.64312-14.610119-8.79369-19.752755-16.85967 10.669446-9.72371 14.399136-8.2413 20.406683-10.46596.763236-16.91142 11.406506-3.79672 17.906506-11.69324 10.72674-24.35701 4.30912-29.66886.40362 33.72327-10.795536-3.74719-31.591589-7.97968-14.055275-8.29082-17.736992-17.20154-11.919018-28.27671-10.873838z" fill="#fcdd09" stroke-width="6"/><path d="m280.5 129.46949c15.58071 52.28539 55.2075 22.51593 49.36715-.0778l-23.25181 1.08291c-.78225 7.9758.59686 12.60677 6.15569 10.7693-14.55521 6.18817-20.24307-1.89549-20.33059-11.39942z" fill="#fff"/></g><path d="m.30414446 157.42016v340.17274c0 133.15745 107.53963554 241.10296 240.19650554 241.10296 132.65694 0 240.19663-107.94551 240.19663-241.10296v-340.17274z" fill="none" stroke-width="9.607862" transform="translate(9.499787 -147.61623)"/></g></svg>