<svg xmlns="http://www.w3.org/2000/svg" xmlns:xlink="http://www.w3.org/1999/xlink" height="763" width="603" version="1.0"><defs><radialGradient xlink:href="#a" id="b" gradientUnits="userSpaceOnUse" gradientTransform="matrix(1.21503 0 0 1.26667 -839.192 -490.49)" cx="858.042" cy="579.933" fx="858.042" fy="579.933" r="300"/><linearGradient id="a"><stop style="stop-color:#fff;stop-opacity:.3137255" offset="0"/><stop offset=".19" style="stop-color:#fff;stop-opacity:.25098041"/><stop style="stop-color:#6b6b6b;stop-opacity:.1254902" offset=".6"/><stop style="stop-color:#000;stop-opacity:.1254902" offset="1"/></linearGradient></defs><path d="M1.5 1.5v458.868c0 166.31 134.315 301.132 300 301.132s300-134.822 300-301.132V1.5H1.5z" style="fill:#2b5df2;fill-opacity:1"/><path style="fill:#fff;fill-rule:evenodd;stroke:#000;stroke-width:3.01964331;stroke-linecap:butt;stroke-linejoin:miter;stroke-miterlimit:4;stroke-dasharray:none;stroke-opacity:1" d="M2.125 1.5c4.544 35.81 47.987 32.665 64.219 62.063 17.785 32.21 3.687 68.599 39.5 98.718 27.45 23.086 68.07 15.697 90.969 40.313 31.86 34.25 4.65 87.308 66.093 109.031 50.41 17.822 100.166 24.66 99.563 87.531-.64 66.65 63.44 68.875 104.719 75.531 60.236 9.714 42.004 121.824 98.406 127.313a770.752 770.752 0 0 0 5.75-9.969c19.3-39.779 30.156-84.434 30.156-131.656V285.156c-1.465-66.012-2.198-151.136 0-263.719V1.5H2.125z"/><path transform="matrix(.38817 0 0 .38817 224.617 35.18)" d="M530 390a50 50 0 1 1-100 0 50 50 0 1 1 100 0z" style="fill:none;fill-opacity:1;stroke:#333;stroke-width:1;stroke-linecap:round;stroke-linejoin:round;stroke-miterlimit:4;stroke-dasharray:none;stroke-opacity:1"/><path transform="matrix(.38817 0 0 .38817 224.617 35.18)" d="M775 390a295 295 0 1 1-590 0 295 295 0 1 1 590 0z" style="fill:none;fill-opacity:1;stroke:#333;stroke-width:1;stroke-linecap:round;stroke-linejoin:round;stroke-miterlimit:4;stroke-dasharray:none;stroke-opacity:1"/><path d="M358.541 7.575c-8.191 55.504 3.56 104.36 47.968 142.332-65.364 3.542-100.507 38.678-120.548 89.601-23.846-53.721-62.503-85.863-122.47-86.955 58.286-42.966 60.456-92.167 44.857-143.343 47.335 27.208 96.68 33.973 150.193-1.635z" style="fill:#5ab532;fill-opacity:1;stroke:#000;stroke-width:3;stroke-linecap:round;stroke-linejoin:miter;marker-start:none;stroke-miterlimit:4;stroke-dasharray:none;stroke-opacity:1" transform="matrix(1.38964 0 0 1.38964 14.89 28.084)"/><path d="M330.626 53.547c-8.861 12.676-43.472 61.951-44.638 60.44-3.076-3.985-33.946-48.647-43.059-63.205-17.17-58.216 103.913-56.903 87.697 2.765z" style="fill:#e20909;fill-opacity:1;stroke:#000;stroke-width:3;stroke-linecap:round;stroke-linejoin:miter;stroke-miterlimit:4;stroke-dasharray:none;stroke-opacity:1" transform="matrix(1.38964 0 0 1.38964 14.89 28.084)"/><path style="fill:#e20909;fill-opacity:1;stroke:#000;stroke-width:3;stroke-linecap:round;stroke-linejoin:miter;stroke-miterlimit:4;stroke-dasharray:none;stroke-opacity:1" d="M350.89 134.218c-14.868-4.533-67.335-18.478-66.259-20.054 2.84-4.157 35.777-47.317 46.806-60.483 52.36-35.286 80.784 80.52 19.453 80.537z" transform="matrix(1.38964 0 0 1.38964 14.89 28.084)"/><path d="M286.46 184.786c-.28-15.464-1.446-73.651.386-73.114 4.831 1.416 52.106 17.823 68.036 24.245 49.92 37.444-46.42 109.452-68.421 48.869z" style="fill:#e20909;fill-opacity:1;stroke:#000;stroke-width:3;stroke-linecap:round;stroke-linejoin:miter;stroke-miterlimit:4;stroke-dasharray:none;stroke-opacity:1" transform="matrix(1.38964 0 0 1.38964 14.89 28.084)"/><path style="fill:#e20909;fill-opacity:1;stroke:#000;stroke-width:3;stroke-linecap:round;stroke-linejoin:miter;stroke-miterlimit:4;stroke-dasharray:none;stroke-opacity:1" d="M213.137 138.944c14.62-5.046 73.122-27.356 73.178-25.448.146 5.032 1.238 53.779.054 70.913-18.214 60.624-121.629-6.259-73.232-45.465z" transform="matrix(1.38964 0 0 1.38964 14.89 28.084)"/><path d="M241.204 51.889c9.316 12.345 46.243 61.88 44.445 62.522-4.74 1.694-52.806 18.831-69.468 23-60.994.49-28.53-118.853 25.023-85.522z" style="fill:#e20909;fill-opacity:1;stroke:#000;stroke-width:3;stroke-linecap:round;stroke-linejoin:miter;stroke-miterlimit:4;stroke-dasharray:none;stroke-opacity:1" transform="matrix(1.38964 0 0 1.38964 14.89 28.084)"/><path d="M206.788 86.296c0 1.117 72.256 26.676 75.608 24.162 3.072-2.514 3.442-79.19 2.604-79.19-.838 0 1.964 74.885 4.478 77.678 2.514 3.073 74.014-19.857 73.735-20.695-.28-.838-70.893 22.634-72.29 25.986-1.117 3.352 42.122 65.355 42.96 64.796.838-.558-42.105-60.277-46.295-59.998-3.492 0-52.309 59.16-51.75 59.998.838.56 46.944-58.938 45.547-62.29-1.117-3.352-73.48-31.844-74.039-30.447h-.558z" style="fill:#e20909;fill-opacity:1;stroke:#000;stroke-width:2.79329991;stroke-linecap:round;stroke-linejoin:round;stroke-miterlimit:4;stroke-dasharray:none;stroke-opacity:1" transform="matrix(1.38964 0 0 1.38964 14.89 28.084)"/><path transform="translate(243.249 50.318) scale(.34935)" d="M617 390a137 137 0 1 1-274 0 137 137 0 1 1 274 0z" style="fill:#fcef3c;fill-opacity:1;stroke:#000;stroke-width:15.91108894;stroke-linecap:butt;stroke-miterlimit:4;stroke-dasharray:none;stroke-opacity:1"/><path style="fill:none;fill-opacity:.75;fill-rule:evenodd;stroke:#000;stroke-width:2.23463988;stroke-linecap:round;stroke-linejoin:miter;stroke-miterlimit:4;stroke-dasharray:none;stroke-opacity:1" d="M252.658 37.644c1.608-6.033 7.007-12.872 13.178-12.498 5.796.352 11.511 5.1 19.255 5.213 7.743.113 14.139-6.87 25.341-3.203 6.65 2.177 7.606 6.475 9.537 12.08" transform="matrix(1.38964 0 0 1.38964 14.89 28.084)"/><path d="M348.964 57.271c6.535.99 10.326 5.828 13.01 13.19 1.987 5.455-.679 10.575 1.606 17.974 2.285 7.4 3.976 6.531 7.259 14.64 2.025 5.004.796 8.629-2.81 15.865" style="fill:none;fill-opacity:.75;fill-rule:evenodd;stroke:#000;stroke-width:2.23464108;stroke-linecap:round;stroke-linejoin:miter;stroke-miterlimit:4;stroke-dasharray:none;stroke-opacity:1" transform="matrix(1.38964 0 0 1.38964 14.89 28.084)"/><path d="M357.965 152.829c1.044 4.813 1.147 13.038-6.195 19.004-5.806 4.72-11.332 3.077-17.663 7.537-6.331 4.459-8.142 10.809-15.091 14.164-6.701 3.236-11.83 1.435-16.686-1.965M267.795 193.927c-5.66 2.366-11.105 3.345-15.878-.585-4.482-3.691-9.624-9.098-15.822-13.742-6.197-4.643-10.644-2.92-17.835-10.226-3.786-3.847-3.858-11.105-2.125-16.774M204.079 121.646c-4-4.653-9.338-8.393-6.237-18.895 1.644-5.569 6.163-9.193 8.663-16.523 2.501-7.329.446-12.77 4.927-20.011 3.717-6.006 8.98-7.267 14.906-7.37" style="fill:none;fill-opacity:.75;fill-rule:evenodd;stroke:#000;stroke-width:2.23463988;stroke-linecap:round;stroke-linejoin:miter;stroke-miterlimit:4;stroke-dasharray:none;stroke-opacity:1" transform="matrix(1.38964 0 0 1.38964 14.89 28.084)"/><g><path style="fill:none;fill-opacity:1;stroke:#333;stroke-width:1;stroke-linecap:round;stroke-linejoin:round;stroke-miterlimit:4;stroke-dasharray:none;stroke-opacity:1" d="M530 390a50 50 0 1 1-100 0 50 50 0 1 1 100 0z" transform="matrix(.38817 0 0 .38817 3.617 341.653)"/><path style="fill:none;fill-opacity:1;stroke:#333;stroke-width:1;stroke-linecap:round;stroke-linejoin:round;stroke-miterlimit:4;stroke-dasharray:none;stroke-opacity:1" d="M775 390a295 295 0 1 1-590 0 295 295 0 1 1 590 0z" transform="matrix(.38817 0 0 .38817 3.617 341.653)"/><path style="fill:#5ab532;fill-opacity:1;stroke:#000;stroke-width:4.1689291;stroke-linecap:round;stroke-linejoin:miter;marker-start:none;stroke-miterlimit:4;stroke-dasharray:none;stroke-opacity:1" d="M291.258 345.084c-11.384 77.131 4.947 145.024 66.658 197.791-90.833 4.923-139.669 53.749-167.518 124.514-33.138-74.654-86.858-119.319-170.19-120.837 80.996-59.708 84.012-128.08 62.336-199.195 65.777 37.81 134.35 47.21 208.714-2.273z" transform="translate(.876)"/><path style="fill:#fff;fill-opacity:1;stroke:#000;stroke-width:4.1689291;stroke-linecap:round;stroke-linejoin:miter;stroke-miterlimit:4;stroke-dasharray:none;stroke-opacity:1" d="M252.466 408.97c-12.314 17.614-60.41 86.09-62.032 83.99-4.274-5.538-47.172-67.602-59.836-87.833-23.86-80.9 144.402-79.075 121.868 3.843z" transform="translate(.876)"/><path d="M280.626 521.074c-20.661-6.3-93.573-25.678-92.077-27.869 3.946-5.776 49.717-65.753 65.044-84.049 72.762-49.036 112.26 111.893 27.033 111.918z" style="fill:#fff;fill-opacity:1;stroke:#000;stroke-width:4.1689291;stroke-linecap:round;stroke-linejoin:miter;stroke-miterlimit:4;stroke-dasharray:none;stroke-opacity:1" transform="translate(.876)"/><path style="fill:#fff;fill-opacity:1;stroke:#000;stroke-width:4.1689291;stroke-linecap:round;stroke-linejoin:miter;stroke-miterlimit:4;stroke-dasharray:none;stroke-opacity:1" d="M191.091 591.344c-.39-21.488-2.01-102.348.537-101.602 6.713 1.967 72.408 24.768 94.545 33.692 69.372 52.034-64.508 152.099-95.082 67.91z" transform="translate(.876)"/><path d="M89.198 527.64c20.316-7.011 101.613-38.014 101.69-35.363.204 6.993 1.722 74.733.076 98.544-25.31 84.245-169.02-8.698-101.766-63.18z" style="fill:#fff;fill-opacity:1;stroke:#000;stroke-width:4.1689291;stroke-linecap:round;stroke-linejoin:miter;stroke-miterlimit:4;stroke-dasharray:none;stroke-opacity:1" transform="translate(.876)"/><path style="fill:#fff;fill-opacity:1;stroke:#000;stroke-width:4.1689291;stroke-linecap:round;stroke-linejoin:miter;stroke-miterlimit:4;stroke-dasharray:none;stroke-opacity:1" d="M128.2 406.665c12.947 17.155 64.262 85.99 61.763 86.883-6.587 2.354-73.38 26.17-96.534 31.962-84.76.683-39.649-165.164 34.771-118.845z" transform="translate(.876)"/><path style="fill:#e20909;fill-opacity:1;stroke:#000;stroke-width:3.88168979;stroke-linecap:round;stroke-linejoin:round;stroke-miterlimit:4;stroke-dasharray:none;stroke-opacity:1" d="M80.375 454.479c0 1.552 100.41 37.07 105.068 33.576 4.27-3.493 4.784-110.046 3.619-110.046-1.164 0 2.729 104.064 6.222 107.945 3.494 4.27 102.854-27.594 102.465-28.758-.388-1.165-98.515 31.453-100.455 36.11-1.553 4.659 58.533 90.821 59.698 90.045 1.164-.777-58.511-83.765-64.334-83.377-4.852 0-72.69 82.212-71.914 83.377 1.165.776 65.235-81.904 63.295-86.562-1.553-4.658-102.112-44.251-102.888-42.31h-.776z" transform="translate(.876)"/><path style="fill:#fcef3c;fill-opacity:1;stroke:#000;stroke-width:15.91108894;stroke-linecap:butt;stroke-miterlimit:4;stroke-dasharray:none;stroke-opacity:1" d="M617 390a137 137 0 1 1-274 0 137 137 0 1 1 274 0z" transform="translate(22.249 356.792) scale(.34935)"/><path d="M144.117 386.87c2.236-8.384 9.738-17.887 18.314-17.367 8.053.488 15.996 7.085 26.757 7.243 10.76.158 19.648-9.546 35.215-4.45 9.242 3.025 10.57 8.997 13.253 16.786" style="fill:none;fill-opacity:.75;fill-rule:evenodd;stroke:#000;stroke-width:3.10535169;stroke-linecap:round;stroke-linejoin:miter;stroke-miterlimit:4;stroke-dasharray:none;stroke-opacity:1" transform="translate(.876)"/><path style="fill:none;fill-opacity:.75;fill-rule:evenodd;stroke:#000;stroke-width:3.10535336;stroke-linecap:round;stroke-linejoin:miter;stroke-miterlimit:4;stroke-dasharray:none;stroke-opacity:1" d="M277.948 414.145c9.082 1.375 14.35 8.098 18.079 18.329 2.763 7.58-.942 14.695 2.233 24.977s5.525 9.076 10.087 20.346c2.815 6.952 1.106 11.99-3.904 22.045" transform="translate(.876)"/><path style="fill:none;fill-opacity:.75;fill-rule:evenodd;stroke:#000;stroke-width:3.10535169;stroke-linecap:round;stroke-linejoin:miter;stroke-miterlimit:4;stroke-dasharray:none;stroke-opacity:1" d="M290.457 546.935c1.451 6.69 1.594 18.119-8.609 26.41-8.069 6.558-15.748 4.276-24.546 10.473-8.797 6.197-11.314 15.02-20.97 19.684-9.313 4.497-16.44 1.994-23.188-2.731M165.153 604.047c-7.867 3.289-15.432 4.649-22.064-.813-6.229-5.129-13.375-12.643-21.987-19.095-8.612-6.452-14.792-4.06-24.785-14.212-5.261-5.345-5.361-15.431-2.953-23.31M76.61 503.602c-5.559-6.466-12.976-11.663-8.667-26.257 2.285-7.738 8.564-12.775 12.04-22.96 3.474-10.185.619-17.747 6.845-27.81 5.165-8.346 12.478-10.098 20.715-10.242" transform="translate(.876)"/></g><g style="display:inline"><path style="fill:url(#b);fill-opacity:1" d="M1.5 1.5v458.868c0 166.31 134.315 301.132 300 301.132s300-134.821 300-301.132V1.5H1.5z"/></g><g style="display:inline"><path style="fill:none;fill-opacity:1;stroke:#000;stroke-width:3;stroke-miterlimit:4;stroke-dasharray:none;stroke-opacity:1" d="M1.5 1.5v458.868c0 166.31 134.315 301.132 300 301.132s300-134.821 300-301.132V1.5H1.5z"/></g></svg>