<svg xmlns="http://www.w3.org/2000/svg" height="600.378" width="500"><g style="fill:#fff;stroke:#000;stroke-width:5;stroke-linecap:round;stroke-linejoin:round"><path d="M963.639 678.338V512.766H730.506l.047 165.31c.058 64.78 52.41 116.83 116.534 116.83 64.123 0 116.567-52.017 116.567-116.568z" transform="translate(-1485.608 -1039.475) scale(2.04893)" style="fill:#5084c3;fill-opacity:1;stroke-width:6;stroke-linecap:square;stroke-linejoin:miter"/><g style="fill:#fff;stroke-width:2.5;stroke-linecap:round"><path d="m250.001 282.684 21.191 69.252 70.57-16.274-49.379 52.978 49.379 52.978-70.57-16.274-21.191 69.252-21.191-69.252-70.57 16.274 49.379-52.978-49.379-52.978 70.57 16.274zM134.694 85.81l21.19 69.251 70.57-16.274-49.378 52.978 49.378 52.978-70.57-16.273-21.19 69.251-21.192-69.251-70.569 16.273 49.378-52.978-49.378-52.978 70.57 16.274zM365.308 85.81 386.5 155.06l70.57-16.274-49.378 52.978 49.378 52.978-70.57-16.273-21.19 69.251-21.192-69.251-70.57 16.273 49.379-52.978-49.378-52.978 70.569 16.274z"/></g></g></svg>