<svg xmlns="http://www.w3.org/2000/svg" width="690" height="772" style="shape-rendering:geometricPrecision;text-rendering:geometricPrecision;image-rendering:optimizeQuality;fill-rule:evenodd;clip-rule:evenodd"><path style="opacity:1" fill="#b6b5ff" d="M685.5-.5h4v427h-1c.167-141.667 0-283.334-.5-425-.995-.566-1.828-1.233-2.5-2z"/><path style="opacity:1" fill="#100d18" d="M2.5-.5h683c.672.767 1.505 1.434 2.5 2 .5 141.666.667 283.333.5 425-1.231 89.905-31.065 168.572-89.5 236-76.797 78.275-170.297 114.109-280.5 107.5-104.975-8.718-189.141-54.552-252.5-137.5-36.959-53.863-58.292-113.53-64-179a8438.278 8438.278 0 0 1-2.5-43V4.5a29.505 29.505 0 0 1 3-5z"/><path style="opacity:1" fill="#fefefe" d="M10.5 9.5h668a33615.39 33615.39 0 0 1-1.5 443c-6.509 75.262-33.843 141.595-82 199-67.679 71.866-151.179 108.199-250.5 109-101.707-.827-186.54-38.827-254.5-114-49.999-62.633-76.332-134.3-79-215-.5-140.666-.667-281.333-.5-422z"/><path style="opacity:1" fill="#0f0511" d="M426.5 316.5c-.802-1.385-1.469-1.218-2 .5.07.765.403 1.265 1 1.5a609.897 609.897 0 0 1 13.5 58 1294.224 1294.224 0 0 1 2 66c.611 6.778 2.611 13.111 6 19 3.438 4.581 7.938 6.081 13.5 4.5 16.301-6.634 28.468-17.8 36.5-33.5 13.517-27.096 18.85-55.762 16-86a2526 2526 0 0 0-14-106c-5.204-36.288-2.537-71.955 8-107 10.538-22.949 28.538-34.616 54-35 16.877.606 30.544 7.606 41 21 6.248 8.497 10.915 17.83 14 28 16.418 15.838 25.585 35.172 27.5 58 .143 20.766-7.191 38.266-22 52.5-1.333.667-2.667.667-4 0a28.415 28.415 0 0 1-4.5-7.5 851.995 851.995 0 0 1-12-37 65.838 65.838 0 0 0 1 14 1352.191 1352.191 0 0 1 11 40c2.74 24.169-4.426 44.836-21.5 62a6.547 6.547 0 0 1-3-3c4.251-13.426 5.084-27.093 2.5-41-4.835-18.164-11.835-35.497-21-52-7.475-18.791-7.141-37.457 1-56 5.245-11.5 11.745-22.167 19.5-32-5.221-11.388-13.555-19.555-25-24.5-12.925-1.461-23.425 3.039-31.5 13.5-9.784 14.787-14.784 31.121-15 49a169.166 169.166 0 0 0 0 26 1630.03 1630.03 0 0 1 13 128c5.097 37.51-.569 73.176-17 107-9.069 16.403-21.569 29.569-37.5 39.5a1684.847 1684.847 0 0 0-34.5 18.5c-11.013 20.045-15.013 41.378-12 64 2.835 13.864 11.002 19.031 24.5 15.5 15.047-4.713 25.214-14.546 30.5-29.5a302.871 302.871 0 0 1 6.5-18.5c1.444-.781 2.777-.614 4 .5a49.18 49.18 0 0 1 3.5 9 196.843 196.843 0 0 1 2 24 56.985 56.985 0 0 0 15-14 365.756 365.756 0 0 0 17-32c3.659-1.52 5.159-.187 4.5 4-2.19 18.886-7.19 36.886-15 54-.543.06-.876.393-1 1 .757 1.273 1.423 1.273 2 0 10.879-5.034 20.545-11.867 29-20.5a12.93 12.93 0 0 1 5-.5c-2.99 26.654-15.656 47.321-38 62a25.879 25.879 0 0 0 10 1 8.43 8.43 0 0 1-.5 4c-10.72 11.729-22.886 21.563-36.5 29.5a20.093 20.093 0 0 0 6 1.5 8.43 8.43 0 0 1-.5 4c-12.803 13.146-27.303 23.98-43.5 32.5-8.635 10.972-19.302 19.306-32 25a106.022 106.022 0 0 1-17 2c-6.037 10.453-14.703 13.787-26 10l-3.5-3.5a31.294 31.294 0 0 0-3.5-9c-1.571-1.915-3.571-2.915-6-3a79.973 79.973 0 0 1-1.5 19c-1.841 2.678-4.341 4.345-7.5 5-1.939 5.727-5.606 9.893-11 12.5-6.082 2.812-12.416 4.146-19 4a3.943 3.943 0 0 1-1-2c2.154-3.488 4.988-6.321 8.5-8.5a48.493 48.493 0 0 0 4.5-7l-6-4c-1.044-2.268-1.211-4.601-.5-7 4.349-3.699 6.849-8.366 7.5-14a8.43 8.43 0 0 0-4 .5c-5.249 4.92-11.249 8.587-18 11-4.952 1.31-9.285.31-13-3-2-.667-4-.667-6 0a70.203 70.203 0 0 0-16 12c-1.284.684-2.451.517-3.5-.5-.501-13.832 5.666-23.332 18.5-28.5.619-3.57 2.286-6.57 5-9a234.586 234.586 0 0 1 24-6 201.284 201.284 0 0 1-10.5-8.5c-4.791-6.21-4.624-12.21.5-18a198.528 198.528 0 0 0-12.5-11c-.507-1.496-.007-2.663 1.5-3.5 7.849-3.524 15.515-3.19 23 1a38.929 38.929 0 0 1 5 5.5c4.52-.066 7.687 1.934 9.5 6a318.091 318.091 0 0 0 4.5 17l3 1a405.39 405.39 0 0 1 24-1.5 51.057 51.057 0 0 1 9-8 306.302 306.302 0 0 0 28-18c7.09-8.946 6.424-17.279-2-25a628.596 628.596 0 0 0-26-11 45.255 45.255 0 0 1-8.5-7.5c-8.802 6.876-18.635 11.543-29.5 14a8.43 8.43 0 0 1 .5-4c4.529-5.722 8.029-12.055 10.5-19l-1.5-1c-10.451 3.759-20.951 3.925-31.5.5-1.172-1.868-1.005-3.702.5-5.5l9.5-9.5c-14.674-2.836-22.341-11.669-23-26.5a9012.793 9012.793 0 0 1 17 4c3.654-.131 6.487-1.798 8.5-5a57.26 57.26 0 0 0 5-19c.667-9.667.667-19.333 0-29-20.536-10.987-39.702-9.153-57.5 5.5-6.324 5.489-8.491 12.322-6.5 20.5a79.183 79.183 0 0 0 8 19c.667 1.667.667 3.333 0 5-5.042 2.027-10.208 2.527-15.5 1.5 10.445 8.434 18.612 18.6 24.5 30.5.837 2.321 1.17 4.655 1 7-1.388 1.054-2.888 1.22-4.5.5a246.886 246.886 0 0 0-19-9c-1.667-.667-3.333-.667-5 0 10.7 10.024 23.033 17.524 37 22.5 1.333 1.333 1.333 2.667 0 4-18.877 3.694-36.877 1.028-54-8a40.193 40.193 0 0 1-1 8.5c-7.658 1.954-15.324 1.954-23 0a802.89 802.89 0 0 0-27-7 87.976 87.976 0 0 0-19-1.5 29.939 29.939 0 0 0 3 10c0 2-1 3-3 3-9.09-2.127-16.923-6.46-23.5-13-13.21 10.403-21.543 7.403-25-9-4.235-10.749-7.902-10.416-11 1l-6.5 6.5a29.927 29.927 0 0 1-9 2c-4.536 9.265-11.87 12.599-22 10-3.92-.782-6.92-2.782-9-6a3.942 3.942 0 0 1 1-2 82.2 82.2 0 0 1 12-4c5.815-3.069 6.815-7.069 3-12l1.5-4.5a205.834 205.834 0 0 0 16.5-17.5c-1.1-1.023-2.433-1.523-4-1.5-6.73 2.597-13.73 3.764-21 3.5-5.184-1.854-8.184-5.52-9-11-7.847-2.657-15.847-3.157-24-1.5-2.854-.049-4.02-1.382-3.5-4 8.227-10.132 18.728-13.798 31.5-11 9.903-6.103 18.903-4.936 27 3.5a12.93 12.93 0 0 0 5 .5c-.238-5.48-2.404-10.147-6.5-14-4.88-6.454-4.547-12.454 1-18 .667-1.333.667-2.667 0-4l-11-13c-.684-1.284-.517-2.451.5-3.5 12.819-2.324 22.153 2.176 28 13.5 8.744 1.125 12.411 6.125 11 15a56.166 56.166 0 0 1-1 9.5c.259 1.261.926 2.261 2 3 3.377.369 6.71.369 10 0 2.532 7.2 7.532 11.533 15 13 8.51 1.114 16.844.448 25-2 3.51-1.907 4.676-4.74 3.5-8.5l-18-24c-4.018-7.886-5.352-16.219-4-25 1.388-1.054 2.888-1.22 4.5-.5a411.182 411.182 0 0 0 11.5 15.5 394.88 394.88 0 0 1 0-30 14.293 14.293 0 0 1 2.5-6.5c4.166.244 7.833 1.911 11 5a63.167 63.167 0 0 0 15.5 6.5c.945-.405 1.612-1.072 2-2 .94-6.681 1.94-13.347 3-20 .739-1.074 1.739-1.741 3-2a65.717 65.717 0 0 0 15.5 11.5c6.802 2.388 13.802 3.054 21 2 25.71-9.075 52.21-13.908 79.5-14.5a211.1 211.1 0 0 1 16 1c1.981-.129 3.647-.796 5-2 4.565-16.989 1.232-32.322-10-46l-40-40a175.1 175.1 0 0 1-16.5-26c-8.071 3.096-15.404 1.763-22-4a143.086 143.086 0 0 0-19 12.5L228 374.5c-1.653-.32-2.653-1.32-3-3a95.907 95.907 0 0 0-2.5-18c-6.9 5.732-12.067 12.732-15.5 21-.739 1.074-1.739 1.741-3 2-2.393-1.774-4.059-4.107-5-7-1.502-4.678-3.002-9.345-4.5-14a187.512 187.512 0 0 0-24 9.5 28.95 28.95 0 0 1-9-.5 20.702 20.702 0 0 0-7 1.5 69.945 69.945 0 0 1-12.5 7.5l-2.5-.5-7-9c-4.327-.843-6.327.99-6 5.5a57.316 57.316 0 0 1 1.5 13c-2.836 2.615-6.17 4.282-10 5-2.291 8.769-6.791 16.103-13.5 22 1.11 11.484 2.11 22.984 3 34.5.049 4.151-1.951 5.484-6 4a67.473 67.473 0 0 1-14.5-4.5 984.17 984.17 0 0 1-2.5-74 50.464 50.464 0 0 1-10-.5c-2.107-1.264-3.107-3.097-3-5.5-3.15-.289-6.15.211-9 1.5a188.275 188.275 0 0 1-13 10.5 4.932 4.932 0 0 1-2.5-1c-2.077-14.282 4.09-22.782 18.5-25.5 2.643-8.833 8.643-13 18-12.5v-14c-10.093-.924-15.093-6.424-15-16.5-5.13-2.588-10.463-3.088-16-1.5-3.41-1.082-3.91-3.082-1.5-6 6.723-8.582 14.89-10.249 24.5-5 2.693-1.77 5.693-2.437 9-2a650.622 650.622 0 0 1 5-87c.961-1.765 1.295-3.765 1-6-2.281-.423-3.948.244-5 2-1.114 2.949-3.114 5.115-6 6.5a46.48 46.48 0 0 1-17 2.5c.645-4.178 2.812-7.511 6.5-10a31.303 31.303 0 0 0 5-8c-2.797-8.358-.297-14.358 7.5-18a23.417 23.417 0 0 0 6-2.5c-2.558-.275-4.892.225-7 1.5-5.58.71-9.58-1.456-12-6.5l-2.5-.5a263.381 263.381 0 0 1-16.5 5.5c-2.212-7.91.454-13.577 8-17a222.19 222.19 0 0 1 12-2.5c1.204-2.915 3.204-5.081 6-6.5a178.951 178.951 0 0 1 23-2.5v-4c-5.728-.744-8.728-4.078-9-10-6.79-2.766-13.457-2.432-20 1-1.766.066-2.766-.768-3-2.5 5.459-13.582 14.959-17.416 28.5-11.5 2.968-1.578 6.135-2.245 9.5-2a82.706 82.706 0 0 1 3-16.5l-1-1.5c-11 6.262-22.668 8.095-35 5.5-9.551-5.951-14.218-14.618-14-26 .336-13.341 7.002-21.675 20-25 8.141-1.98 15.975-1.146 23.5 2.5-2.15-13.552 1.684-25.052 11.5-34.5 9.792-5.62 19.792-5.953 30-1 8.53 5.042 12.53 12.542 12 22.5a73.25 73.25 0 0 1-4 21c30.763-1.422 40.929 12.244 30.5 41-4.198 7.685-10.698 11.685-19.5 12-14.033-3.016-26.033-9.683-36-20a422.838 422.838 0 0 0-6.5 28 181.583 181.583 0 0 1 11.5 14 120.664 120.664 0 0 1 19 8.5 868.914 868.914 0 0 1 33 22c21.267 9.294 41.267 20.628 60 34a138.27 138.27 0 0 1 14.5 13.5 136.243 136.243 0 0 1 24.5-23.5 50.729 50.729 0 0 1-10.5-3.5c-.418-2.288.249-4.288 2-6a287.384 287.384 0 0 1 28.5-28.5c-8.243.406-15.076-2.427-20.5-8.5-3.976-6.901-3.142-13.068 2.5-18.5 4.87-.249 9.537.751 14 3 3.333.667 6.667.667 10 0-11.105-7.342-22.772-8.342-35-3a680.917 680.917 0 0 1-31 16c-14.033 4.207-25.2.374-33.5-11.5-1.84-8.155.66-14.655 7.5-19.5 1.444-.781 2.777-.614 4 .5 2.668 11.509 9.668 15.676 21 12.5a940.534 940.534 0 0 0 32-13c16.771-5.954 31.938-3.121 45.5 8.5 1.72-8.238.22-15.738-4.5-22.5-3.381-2.245-7.048-2.912-11-2a324.411 324.411 0 0 1-15.5 6.5c-5.693-2.162-9.193-6.328-10.5-12.5.326-2.484 1.326-4.651 3-6.5-2.833-4.95-3.666-10.284-2.5-16 1.319-1.987 3.152-3.154 5.5-3.5a1262.415 1262.415 0 0 0 40-8 50.77 50.77 0 0 1 6-10 275.004 275.004 0 0 1 44-10.5c3.604-6.107 8.604-10.607 15-13.5 6.232-1.145 11.399.688 15.5 5.5a122.47 122.47 0 0 1 2 20l8.5 8.5a169.33 169.33 0 0 1 19 0c16.168 5.848 20.668 16.682 13.5 32.5a103.639 103.639 0 0 1-6.5 12c8.484 7.96 14.15 17.627 17 29-.333 1.667-1.333 2.667-3 3-3.025-1.283-6.025-1.616-9-1a78.855 78.855 0 0 0 7.5 15 311.238 311.238 0 0 1 9.5 13.5c-.362 1.885-1.529 2.719-3.5 2.5a90.893 90.893 0 0 1-12.5-4l-1 1c10.181 15.876 16.181 33.21 18 52-.554 8.005-2.388 15.672-5.5 23-1.938 1.36-3.604 1.027-5-1a92.116 92.116 0 0 0-13.5-18c-.977 7.928.857 15.261 5.5 22a184.778 184.778 0 0 1 21 34c1.948 7.917.115 14.75-5.5 20.5-2.195 1.373-4.529 1.706-7 1a34.706 34.706 0 0 1-7.5-6.5c-.165 5.509.835 10.842 3 16a358.709 358.709 0 0 0 14.5 27.5 3.943 3.943 0 0 1-1 2c-13.86 1.066-25.527-3.434-35-13.5z"/><path style="opacity:1" fill="#06872f" d="M122.5 18.5c19.607-1.229 28.441 7.771 26.5 27a395.924 395.924 0 0 1-6 21 3.942 3.942 0 0 0 2 1c8.887-2.775 17.721-2.608 26.5.5 8.521 5.23 11.355 12.73 8.5 22.5-5.272 17.76-16.106 22.26-32.5 13.5-7.916-4.468-14.916-10.135-21-17a12.935 12.935 0 0 0-5-.5 165.924 165.924 0 0 1-8 30c-3.08-.578-4.414-2.412-4-5.5a626.76 626.76 0 0 0 4-20 6.29 6.29 0 0 0-1-3 366.096 366.096 0 0 1-23 9c-17.644 3.339-26.644-3.995-27-22 1.356-14.017 9.19-21.183 23.5-21.5 6.156-.04 11.656 1.794 16.5 5.5 1.634.493 3.301.66 5 .5-2.779-9.395-2.613-18.728.5-28 3.162-6.336 7.996-10.67 14.5-13z"/><path style="opacity:1" fill="#d00f19" d="M387.5 24.5c11.775 0 15.442 5.667 11 17-6.376-4.185-13.376-6.685-21-7.5a132.121 132.121 0 0 1 10-9.5z"/><path style="opacity:1" fill="#d71119" d="M366.5 39.5c18.446-1.942 33.112 4.558 44 19.5 34.526-3.446 42.36 9.387 23.5 38.5-8.125 3.87-16.625 4.87-25.5 3-2.896.524-3.563 2.024-2 4.5 9.708 1.207 19.208.374 28.5-2.5 7.21 5.393 12.377 12.393 15.5 21l-2 1c-2.982-1.001-5.982-1.501-9-1.5-1.091 2.064-1.258 4.231-.5 6.5 3.096 8.699 7.596 16.532 13.5 23.5-5.962-.211-11.128-2.378-15.5-6.5a169.921 169.921 0 0 1-18-30c-1.11-1.537-2.61-2.203-4.5-2 .383 4.94 2.05 9.44 5 13.5-9.534 1.644-16.534-1.856-21-10.5-2.047-1.404-3.714-1.071-5 1 6.206 11.439 15.873 16.605 29 15.5 10.417 13.104 19.25 27.27 26.5 42.5 6.011 12.691 8.678 26.024 8 40-.133 3.025-1.133 5.692-3 8a97.132 97.132 0 0 0-15.5-17.5c-1.444-.781-2.777-.614-4 .5-2.682 7.044-2.516 14.044.5 21a153.563 153.563 0 0 0 18 28 121.345 121.345 0 0 1 7 13c1.068 5.268.401 10.268-2 15-.739 1.074-1.739 1.741-3 2a21.365 21.365 0 0 1-6-5c-4.865-11.236-11.365-21.402-19.5-30.5a8.43 8.43 0 0 0-4-.5 8.43 8.43 0 0 0 .5 4 68.472 68.472 0 0 1 13 18c.09 8.781 1.09 17.448 3 26a197.969 197.969 0 0 0 13.5 26.5c-4.636.527-8.97-.473-13-3a115.498 115.498 0 0 1-21.5-16.5c-1.947.544-2.78 1.877-2.5 4 1.338 6.699 2.671 13.365 4 20-.146 4.886-1.146 9.553-3 14a76.762 76.762 0 0 0-14-11.5 24.362 24.362 0 0 0-10-1.5 219.613 219.613 0 0 1 3 20.5l-1 6.5a55.5 55.5 0 0 0-12-9.5 117.08 117.08 0 0 1-27-13 77.742 77.742 0 0 1-10-11c-1-.667-2-.667-3 0-1.628 3.603-2.462 7.437-2.5 11.5-.5 6.658-.666 13.325-.5 20-14.537-1.696-23.704-9.696-27.5-24a224.318 224.318 0 0 1-2.5-17c-1.644-.214-3.144.12-4.5 1a92.08 92.08 0 0 1-15.5 22.5c-6.999 3.652-13.666 3.319-20-1 4.967-6.405 7.134-13.572 6.5-21.5a9.454 9.454 0 0 0-1.5-2.5c-3.875-1.52-7.875-1.854-12-1-7.623 1.833-14.956 4.166-22 7a128.074 128.074 0 0 1 12.5-24.5 166.165 166.165 0 0 1 18.5-19c-.5-1.381-1.5-2.047-3-2-5.914 2.975-11.914 3.475-18 1.5a191.778 191.778 0 0 0 20-38.5 7.293 7.293 0 0 0-2-3 165.228 165.228 0 0 0 29-18.5 69.641 69.641 0 0 0 14-14c-.263-1.946-1.263-2.612-3-2a184.656 184.656 0 0 1-42 30c-4.439 3.105-8.773 3.105-13 0a3.943 3.943 0 0 1-1-2c4.355-10.366 11.021-19.032 20-26a110.872 110.872 0 0 0 14-11c6.778-.611 13.111-2.611 19-6 2.605-1.931 2.605-3.764 0-5.5-9.623 5.816-19.956 7.483-31 5 11.287-13.791 23.954-25.958 38-36.5-.362-1.885-1.529-2.719-3.5-2.5-7.143 2.305-14.31 2.472-21.5.5-5.797-2.76-7.963-7.26-6.5-13.5.739-1.074 1.739-1.741 3-2 9.19 4.194 18.69 5.028 28.5 2.5 5.001-1.598 7.501-5.098 7.5-10.5 1.336-8.668.336-17.002-3-25-4.698-6.814-11.198-9.314-19.5-7.5l-13 6.5c-3.869-1.736-5.703-4.736-5.5-9a27.188 27.188 0 0 1 9.5-3.5c1.333-1.333 1.333-2.667 0-4a42.717 42.717 0 0 1-9-1.5c-1.085-3.273-1.252-6.606-.5-10a358.788 358.788 0 0 1 38.5-7.5c5.609-1.276 8.776-4.776 9.5-10.5a29.465 29.465 0 0 1 4.5-2.5 526.603 526.603 0 0 1 32-7.5z"/><path style="opacity:1" fill="#100206" d="M344.5 60.5a40.939 40.939 0 0 1 9 .5 256.804 256.804 0 0 0 17 6c.837 1.011 1.17 2.178 1 3.5a19.374 19.374 0 0 1-8-1c-.592 9.104-5.259 12.604-14 10.5-4.659-3.146-5.992-7.313-4-12.5-1.521-.38-3.187-.546-5-.5a3.944 3.944 0 0 1-1-2 12.503 12.503 0 0 1 5-4.5z"/><path style="opacity:1" fill="#120201" d="M421.5 65.5c13.198-1.311 18.365 4.356 15.5 17-7.596 8.103-16.596 10.103-27 6a4.934 4.934 0 0 1-.5-3c6.425.37 12.758-.13 19-1.5 4.568-2.587 6.068-6.42 4.5-11.5-2.077-1.458-4.41-2.124-7-2a669.586 669.586 0 0 1-20.5 4c-.262-1.478.071-2.811 1-4a288.716 288.716 0 0 1 15-5z"/><path style="opacity:1" fill="#dfddfd" d="M351.5 67.5h3a41.732 41.732 0 0 0 1 9c-5.936-.875-7.269-3.875-4-9z"/><path style="opacity:1" fill="#d71119" d="M553.5 103.5c21.332-1.585 37.498 6.749 48.5 25a163.818 163.818 0 0 1 10 22c11.911 11.815 20.245 25.815 25 42 3.569 19.588-.098 37.588-11 54l-6 6c-4.816-4.962-5.149-9.962-1-15 4.248-11.99 5.581-24.323 4-37a150.702 150.702 0 0 0-5.5-28.5 4.934 4.934 0 0 0-3-.5 411.64 411.64 0 0 1 4 40c.757 8.881-.909 17.214-5 25a1691.805 1691.805 0 0 1-11.5-39c-2-4-4-4-6 0a142.913 142.913 0 0 0 2 36 938.442 938.442 0 0 1 10 33c3.078 17.083-.255 32.749-10 47a134.855 134.855 0 0 0-4-36 533.602 533.602 0 0 0-20-48c-6.471-17.275-5.804-34.275 2-51a150.935 150.935 0 0 1 20-31c-4.827-14.504-14.327-25.004-28.5-31.5-18.384-1.724-32.217 5.443-41.5 21.5-9.199 18.202-13.365 37.536-12.5 58 .256 9.346.756 18.68 1.5 28a837.08 837.08 0 0 1 12 165c-5.811 53.476-33.978 89.309-84.5 107.5-5.262 6.355-9.096 13.522-11.5 21.5-4.991 14.617-6.991 29.617-6 45 3.488 22.82 15.988 30.32 37.5 22.5 8.622-4.059 15.788-9.892 21.5-17.5a194.712 194.712 0 0 0 11-24 78.56 78.56 0 0 1 .5 27.5c-.219 1.971.615 3.138 2.5 3.5 6.843-2.754 12.843-6.754 18-12a139.097 139.097 0 0 0 15-23c-2.641 14.589-7.308 28.589-14 42-.667 1.333-.667 2.667 0 4 2.401 1.102 4.901 1.269 7.5.5 10.489-4.148 19.655-10.314 27.5-18.5-4.87 22.892-17.536 40.225-38 52 .47 4.312 2.97 6.979 7.5 8a65.34 65.34 0 0 1-12 11.5 258.587 258.587 0 0 0-21.5 15.5c-1.075 3.031-.075 5.031 3 6 .667.667.667 1.333 0 2a157.146 157.146 0 0 1-38.5 27.5c-8.704 11.371-19.704 19.705-33 25l-16 1c-3.656 9.49-10.323 13.156-20 11l-2.5-2.5c-.838-6.187-4.004-10.687-9.5-13.5-3.846-1.157-6.679.009-8.5 3.5l-1 16c-.734 2.236-2.234 3.569-4.5 4a43.23 43.23 0 0 0-10-3c-2.906 1.028-5.739 1.028-8.5 0 2.84-5.191 5.34-10.691 7.5-16.5-.789-5.232-3.789-7.232-9-6l-18 11c-2.929.777-5.763.61-8.5-.5.275-5.112-1.392-9.445-5-13-.97-5.048 1.197-7.882 6.5-8.5l14-1c5.795-.782 7.962-3.949 6.5-9.5l-11-9c-2.076-2.717-2.743-5.717-2-9 4.41-1.502 8.91-3.002 13.5-4.5 1.543-2.948 3.71-3.782 6.5-2.5a275.597 275.597 0 0 0 5 18 6.978 6.978 0 0 0 2.5 3.5 823.13 823.13 0 0 0 31-1 63.726 63.726 0 0 1 10-9 306.302 306.302 0 0 0 28-18c9.935-11.645 9.269-22.645-2-33a224.212 224.212 0 0 0-26-11 28.977 28.977 0 0 1-9-9c-1-.667-2-.667-3 0-5.755 4.708-12.088 8.041-19 10 4.095-6.214 6.095-13.048 6-20.5-6.335 1.169-12.669 2.335-19 3.5-4 .667-8 .667-12 0l-1-1a59.693 59.693 0 0 1 12-10.5c1.114-1.223 1.281-2.556.5-4-8.955-.427-16.621-3.761-23-10-1.59-2.15-2.257-4.483-2-7 12.681 5.883 21.348 2.216 26-11a52.475 52.475 0 0 0 3-15 747.538 747.538 0 0 1 2-50 109.302 109.302 0 0 1 4-14c14.894-22.717 13.894-44.717-3-66a1539.407 1539.407 0 0 0-40-40 120.109 120.109 0 0 1-15.5-25 136.284 136.284 0 0 0 13-18c1.597 18.064 10.93 29.898 28 35.5 3.317.498 6.65.665 10 .5a123.573 123.573 0 0 1 2-28 65.33 65.33 0 0 0 13 10.5 496.296 496.296 0 0 0 23 10 75.379 75.379 0 0 1 15.5 13.5 3.943 3.943 0 0 0 2-1c.667-8.667.667-17.333 0-26-1.241-1.377-1.408-2.71-.5-4a124.737 124.737 0 0 1 18 14.5 8.43 8.43 0 0 0 4 .5 60.826 60.826 0 0 0 2.5-10 234.279 234.279 0 0 1 9 44l1 58c4.403 30.916 19.236 37.083 44.5 18.5 17.855-17.2 29.355-38.033 34.5-62.5 4.244-23.274 4.577-46.607 1-70a1466.26 1466.26 0 0 1-14-115 256.408 256.408 0 0 1 4-58c3.622-28.778 19.456-46.112 47.5-52z"/><path style="opacity:1" fill="#cc0e18" d="M283.5 111.5c13.198-.236 24.531 4.264 34 13.5a10.756 10.756 0 0 1-3 2.5c-14.411-12.235-30.077-14.068-47-5.5a314.513 314.513 0 0 1-30 15c-9.933 2.134-18.1-.699-24.5-8.5-1.261-4.631-.261-8.631 3-12 2.45 4.784 5.95 8.617 10.5 11.5 4.667.667 9.333.667 14 0a17997.132 17997.132 0 0 1 43-16.5z"/><path style="opacity:1" fill="#c20b17" d="M81.5 117.5c4.253-.514 8.087.486 11.5 3 .483.948.65 1.948.5 3a219.773 219.773 0 0 0-11.5-2c-9.357 1.452-9.524.119-.5-4z"/><path style="opacity:1" fill="#d71119" d="M98.5 118.5c4.621-.507 8.954.326 13 2.5 6.284 5.592 11.618 11.926 16 19a236.077 236.077 0 0 1 19 8 868.914 868.914 0 0 1 33 22c23.441 9.878 45.107 22.545 65 38l10 10c-6.548 7.942-5.214 13.942 4 18a484.287 484.287 0 0 1-41 33 10.413 10.413 0 0 1-5 1.5 146.627 146.627 0 0 1-19-3.5c-.928-.388-1.595-1.055-2-2a200.954 200.954 0 0 0 4-10.5 4.933 4.933 0 0 0-1-2.5c-12.669-.124-25.002-2.124-37-6a62.419 62.419 0 0 0 8-7.5 7.248 7.248 0 0 0-2-2.5 39.65 39.65 0 0 1-12-3l10-7c4.509-4.815 3.509-8.148-3-10a78.606 78.606 0 0 0-17-3.5 37.963 37.963 0 0 0 2-12c-12.336.332-19.003-5.668-20-18a41.783 41.783 0 0 1-14.5-7 443.909 443.909 0 0 0 3-33c-3.93-5.629-9.264-8.963-16-10-2.21-2.704-1.876-5.037 1-7 .29-2.42.79-4.754 1.5-7z"/><path style="opacity:1" fill="#057f2c" d="M103.5 141.5c2.942 1.482 4.276 3.982 4 7.5A1011.07 1011.07 0 0 0 95 299.5a14.506 14.506 0 0 1-5-4c-.819-51.829 3.681-103.162 13.5-154z"/><path style="opacity:.961" fill="#63000e" d="M84.5 148.5c4.134-.985 8.468-1.318 13-1 .284 1.915-.049 3.581-1 5v-4h-12z"/><path style="opacity:1" fill="#d61119" d="M84.5 148.5h12v4a54.938 54.938 0 0 0-1 12 72.114 72.114 0 0 0-17.5 3c-1.971.032-3.471-.802-4.5-2.5 3.522-3.236 3.855-6.736 1-10.5 1.684-4.517 5.017-6.517 10-6z"/><path style="opacity:1" fill="#100101" d="M349.5 150.5h4a90.288 90.288 0 0 0-4 18c.603 7.415 2.603 14.415 6 21a83.658 83.658 0 0 1 3.5-18c1.33-3.507 3.83-5.173 7.5-5a8.43 8.43 0 0 1-.5 4c-2.106 1.877-3.439 4.21-4 7a75.141 75.141 0 0 0-1 22 55.361 55.361 0 0 1 5.5 13c-1.788.285-3.455-.048-5-1a153.66 153.66 0 0 1-16.5-37c-1.039-8.504.461-16.504 4.5-24z"/><path style="opacity:1" fill="#0f0101" d="M406.5 153.5c1.517.011 2.684.677 3.5 2a255.552 255.552 0 0 1 1 38c-.133 2.914-1.3 5.247-3.5 7-1.446-.671-2.112-1.838-2-3.5 1.401-4.089 1.901-8.256 1.5-12.5-7.054-5.721-13.388-12.054-19-19l-3.5-8.5c.559-2.188 1.893-2.854 4-2 3.353 9.216 9.186 16.382 17.5 21.5a119.143 119.143 0 0 1 .5-23z"/><path style="opacity:1" fill="#bd0a17" d="M60.5 157.5a40.911 40.911 0 0 1 9 .5c1.981.605 2.315 1.605 1 3-5.486-.105-10.653 1.062-15.5 3.5l-1.5-.5c1.985-2.639 4.319-4.806 7-6.5z"/><path style="opacity:.624" fill="#3a36ac" d="M81.5 173.5c0-.667-.333-1-1-1 2.108-1.275 4.442-1.775 7-1.5a23.417 23.417 0 0 1-6 2.5z"/><path style="opacity:1" fill="#ce0e18" d="M92.5 173.5c.647.774.98 1.774 1 3a196.537 196.537 0 0 0-2.5 15c-1.11 1.537-2.61 2.203-4.5 2 .774-6.139-1.892-9.139-8-9-.107-2.403.893-4.236 3-5.5l11-5.5z"/><path style="opacity:1" fill="#fdfdff" d="M107.5 180.5a87.567 87.567 0 0 0 11 6c1.251 5.078 3.585 9.578 7 13.5 3.943 2.705 8.277 4.538 13 5.5-1.724 4.135-2.057 8.302-1 12.5l15 1a22.226 22.226 0 0 1 6 2.5 143.143 143.143 0 0 0-16 12 7.248 7.248 0 0 0 2 2.5l12 4a80.499 80.499 0 0 0-6.5 5.5c-.781 1.444-.614 2.777.5 4a171.814 171.814 0 0 0 39 7.5c-2.645 4.12-3.979 8.62-4 13.5a569.844 569.844 0 0 0 23 4.5 144.746 144.746 0 0 1-23 16l-34 17c-11.686-.199-22.519 2.634-32.5 8.5-7.048-2.373-13.048-6.373-18-12a697.162 697.162 0 0 1 1-63 1880.037 1880.037 0 0 1 5.5-61z"/><path style="opacity:1" fill="#c70c18" d="M79.5 189.5c2.427 3.31 2.593 6.977.5 11-2.13 2.044-4.63 2.877-7.5 2.5 3.522-3.878 5.856-8.378 7-13.5z"/><path style="opacity:.62" fill="#5b60db" d="M89.5 204.5v-5c-1.459-.067-2.792.266-4 1 1.052-1.756 2.719-2.423 5-2 .295 2.235-.039 4.235-1 6z"/><path style="opacity:1" fill="#0f0101" d="M324.5 205.5c2.135-.353 3.468.48 4 2.5-5.541 11.557-10.041 23.391-13.5 35.5a228.729 228.729 0 0 1 19.5-15.5 41.056 41.056 0 0 0 6-9c1.891-.309 3.225.525 4 2.5-5.524 9.024-12.857 16.191-22 21.5L309 256.5c-1.732-.234-2.566-1.234-2.5-3a296.574 296.574 0 0 1 18-48zM385.5 216.5c1.89-.203 3.39.463 4.5 2a454.766 454.766 0 0 0 2 26 44.809 44.809 0 0 0 5 16c3.218 4.276 4.884 3.609 5-2 .915-8.779.415-17.446-1.5-26 1.644-.214 3.144.12 4.5 1a54.628 54.628 0 0 1 2 7 99.615 99.615 0 0 1-2 28c-4.351 1.008-8.018-.325-11-4a45.731 45.731 0 0 1-6-14 181.049 181.049 0 0 1-2.5-34z"/><path style="opacity:1" fill="#d71119" d="M263.5 237.5h4c-4.7 13.901-11.366 26.734-20 38.5 3.102 4.381 7.436 6.381 13 6-10.816 12.288-18.816 26.288-24 42 .234 1.732 1.234 2.566 3 2.5 6.995-2.83 13.995-5.664 21-8.5a53.069 53.069 0 0 1 14-1.5c-.194 6.583-2.194 12.583-6 18-14.423 8.246-27.257 18.579-38.5 31a546.75 546.75 0 0 1-3.5-18.5c-1.333-.667-2.667-.667-4 0-7.921 5.688-14.088 12.855-18.5 21.5a57.26 57.26 0 0 1-5-19 3.943 3.943 0 0 0-2-1 217.003 217.003 0 0 1-30 12 24.967 24.967 0 0 0-11.5-.5 66.876 66.876 0 0 0-13 8.5 46.597 46.597 0 0 0-7-8.5c-5.622-2.819-10.122-1.652-13.5 3.5-.788 5.288-.288 10.454 1.5 15.5-.362 1.885-1.529 2.719-3.5 2.5a395.107 395.107 0 0 1-8.5-4.5c-2.068-.687-4.068-.52-6 .5a18.08 18.08 0 0 1-3.5-2c2.583-5.082 4.416-10.582 5.5-16.5-.394-5.706-3.394-7.706-9-6a79.961 79.961 0 0 1-17 12c-2.2.825-4.034.325-5.5-1.5l-1-11c-3.549-1.975-4.215-4.641-2-8 2.795-2.146 5.961-3.313 9.5-3.5 6.73-.17 13.397-.837 20-2 7.908-5.531 7.908-11.198 0-17a194.98 194.98 0 0 0-16-3c-4.305-.903-8.139-2.737-11.5-5.5-.667-1.333-.667-2.667 0-4 5.542-2.822 7.042-7.156 4.5-13a10.1 10.1 0 0 1 6 1.5l18 16a40.875 40.875 0 0 0 13 7c2 .667 4 .667 6 0 9.04-6.094 19.04-8.761 30-8 41.19-19.242 78.19-44.409 111-75.5z"/><path style="opacity:1" fill="#120201" d="M368.5 237.5c1.322-.17 2.489.163 3.5 1a56.252 56.252 0 0 1-1 17c-5.962 15.106-8.462 30.773-7.5 47-7.521-3.018-13.021-8.351-16.5-16-3.664-11.77-4.498-23.77-2.5-36h4c-.166 9.006 0 18.006.5 27 1.447 6.23 4.447 11.564 9 16a148.74 148.74 0 0 1 8-38 784.53 784.53 0 0 1 2.5-18z"/><path style="opacity:1" fill="#100101" d="M294.5 238.5c3.18-.324 4.347 1.01 3.5 4-5.5 4.167-10.333 9-14.5 14.5-2.141.884-3.807.384-5-1.5a96.957 96.957 0 0 1 16-17z"/><path style="opacity:1" fill="#130201" d="M311.5 263.5c2.222.059 3.222 1.225 3 3.5a94.995 94.995 0 0 1-10.5 25.5c-3.379 2.99-5.045 2.324-5-2a37.885 37.885 0 0 0 6-10 109.782 109.782 0 0 1 6.5-17z"/><path style="opacity:1" fill="#120201" d="M422.5 272.5c1.89-.203 3.39.463 4.5 2l1 12c.353 3.039 1.52 5.705 3.5 8-1.859 2.519-3.859 2.519-6 0-2.428-7.12-3.428-14.453-3-22z"/><path style="opacity:1" fill="#c60c18" d="M61.5 295.5c6.601-1.366 11.268.967 14 7l-1.5 1c-4.683-3.076-9.85-4.909-15.5-5.5a81.819 81.819 0 0 0 3-2.5z"/><path style="opacity:.557" fill="#494bc9" d="M426.5 316.5c-.838.342-1.172 1.008-1 2-.597-.235-.93-.735-1-1.5.531-1.718 1.198-1.885 2-.5z"/><path style="opacity:1" fill="#06872f" d="M88.5 324.5a11.987 11.987 0 0 1 6 1 25.87 25.87 0 0 1 1 10h-7v-11z"/><path style="opacity:.996" fill="#d8d8f9" d="M100.5 327.5c3.844 1.791 4.011 4.125.5 7a24.935 24.935 0 0 1-.5-7z"/><path style="opacity:1" fill="#c40c18" d="M65.5 353.5c4.438-1.075 6.438.592 6 5-8.038-.399-14.538 2.601-19.5 9-.635-2.135-.301-4.135 1-6 3.672-3.577 7.838-6.244 12.5-8z"/><path style="opacity:1" fill="#05812d" d="M96.5 360.5a1589.037 1589.037 0 0 1 5 82c-3.1-.192-6.1-.858-9-2a1082.253 1082.253 0 0 1-3.5-74 68.884 68.884 0 0 0 7.5-6z"/><path style="opacity:1" fill="#c90d18" d="M107.5 381.5c3.599-.562 5.599.938 6 4.5a32.085 32.085 0 0 1-6.5 12.5c-2.101-5.769-1.934-11.436.5-17z"/><path style="opacity:1" fill="#d71119" d="M322.5 462.5a191.57 191.57 0 0 1 31 1.5c-6.496 11.976-9.496 24.809-9 38.5a265.126 265.126 0 0 0-22-5.5c-20.64-1.597-36.473 6.237-47.5 23.5-1.492 4.911-1.826 9.911-1 15a261.188 261.188 0 0 0 7.5 20 64.637 64.637 0 0 1-21.5-4c-1.5.167-2.333 1-2.5 2.5a473.076 473.076 0 0 1 26.5 25.5c3.005 3.623 5.005 7.623 6 12-8.377-5.573-17.543-8.073-27.5-7.5a4.933 4.933 0 0 0-1 2.5c2.727 5.564 6.727 10.064 12 13.5a108.477 108.477 0 0 0 21 12 55.634 55.634 0 0 1-19-1 271.715 271.715 0 0 1-34.5-13.5c-1.5.167-2.333 1-2.5 2.5a25.399 25.399 0 0 0 5.5 6.5 10.098 10.098 0 0 1 1.5 6c-13.465-.117-26.465-2.617-39-7.5-9.472-2.353-18.972-2.853-28.5-1.5a10.413 10.413 0 0 0-1.5 5c.521 2.024.688 4.024.5 6-6.897-3.25-12.897-7.584-18-13a38.25 38.25 0 0 0-8.5 5.5c-2.577 1.25-5.243 1.584-8 1a45.53 45.53 0 0 1-6.5-15.5c-1.792-3.628-4.625-5.961-8.5-7-2.197.348-4.03 1.348-5.5 3-1.72 4.946-4.554 9.113-8.5 12.5-1.865 1.301-3.865 1.635-6 1a28.834 28.834 0 0 1-4-6 135.094 135.094 0 0 0-7-2.5 392.005 392.005 0 0 1 16.5-17c2.691-6.669.358-10.336-7-11a66.727 66.727 0 0 0-12.5 3.5c-3 .667-6 .667-9 0-1.624-1.117-2.624-2.617-3-4.5a31.234 31.234 0 0 1 3.5-6c.66-2.547.493-5.047-.5-7.5 2.9-3.336 6.566-4.336 11-3l11 7c8.621.985 11.788-2.848 9.5-11.5a97.042 97.042 0 0 1-9-14c-1.205-3.368-.205-5.702 3-7 2.787 1.017 5.62 1.184 8.5.5a62.047 62.047 0 0 1 8-5.5c1.147.318 1.981.984 2.5 2a169.14 169.14 0 0 1 0 19 11.532 11.532 0 0 0 3.5 4.5 111.061 111.061 0 0 0 11 2.5c3.116 6.232 8.116 10.065 15 11.5 9.505 1.145 18.838.478 28-2 6.361-2.89 8.861-7.723 7.5-14.5a243.631 243.631 0 0 0-16-21c-3.62-5.526-5.62-11.526-6-18a201.284 201.284 0 0 0 8.5 10.5c6.7 1.037 9.366-1.963 8-9a407.197 407.197 0 0 1-1-16c-.13-3.684.37-7.184 1.5-10.5 8.143 6.67 17.31 10.336 27.5 11 3.08-6.992 4.58-14.325 4.5-22 12.108 11.9 26.275 15.067 42.5 9.5 19.303-6.559 38.97-10.726 59-12.5z"/><path style="opacity:1" fill="#cd0e18" d="M103.5 504.5c8.98-1.208 14.147 2.792 15.5 12-1.808 1.896-3.975 2.396-6.5 1.5-1.616-5.444-4.616-9.944-9-13.5z"/><path style="opacity:.999" fill="#d00f19" d="M65.5 550.5c4.436-.29 8.77.21 13 1.5 2.813 2.536 2.646 4.703-.5 6.5a63.748 63.748 0 0 0-19.5-3.5 778.377 778.377 0 0 0 7-4.5z"/><path style="opacity:.514" fill="#0b25d6" d="M523.5 579.5c0 .667.333 1 1 1-.577 1.273-1.243 1.273-2 0 .124-.607.457-.94 1-1z"/><path style="opacity:1" fill="#c50c18" d="M99.5 599.5c3.639 8.905.472 13.571-9.5 14l-4.5-1c7.273-1.608 11.94-5.942 14-13z"/><path style="opacity:1" fill="#c60c18" d="M314.5 651.5c6.592-.86 12.092 1.14 16.5 6 .667 1 .667 2 0 3-2.243 1.782-4.743 2.282-7.5 1.5a146.77 146.77 0 0 0-9-10.5z"/><path style="opacity:1" fill="#cc0e18" d="M300.5 709.5c3.358 1.027 5.025 3.36 5 7-6.618.892-12.452 3.558-17.5 8-.257-2.517.41-4.85 2-7a68.064 68.064 0 0 1 10.5-8z"/><path style="opacity:1" fill="#c90d18" d="M346.5 736.5c5.44-.074 6.94 2.259 4.5 7-3.476 2.824-7.31 4.657-11.5 5.5 3.266-3.703 5.599-7.87 7-12.5z"/></svg>