<svg xmlns="http://www.w3.org/2000/svg" width="1504" height="1704" style="shape-rendering:geometricPrecision;text-rendering:geometricPrecision;image-rendering:optimizeQuality;fill-rule:evenodd;clip-rule:evenodd"><path style="opacity:.998" fill="#010102" d="M1498.5 888.5c-.67-6.179-1.33-12.512-2-19a7.239 7.239 0 0 1-2.5-2c-1.01.837-2.18 1.17-3.5 1 .03-285.927.03-571.927 0-858-326.33-.333-652.667 0-979 1 2.646 2.13 4.979 4.463 7 7a9.86 9.86 0 0 1-1 6 44.043 44.043 0 0 0-2-1c-5.073-3.566-9.74-7.732-14-12.5-71.666-.5-143.333-.667-215-.5-.617-.11-1.117-.444-1.5-1-1.488 1.66-3.321 2.66-5.5 3-1.256.039-2.256-.461-3-1.5-88.666-.5-177.333-.667-266-.5-.167 88.334 0 176.667.5 265a63.697 63.697 0 0 1 6.5 7 36.287 36.287 0 0 1-4.5 2l-1-3c-.833 1.5-2 2.667-3.5 3.5a36.278 36.278 0 0 0 2 4.5c-.167 70.001 0 140.001.5 210l1.5 3a21.445 21.445 0 0 0-1 7c-.67 118.36-1.336 236.86-2 355.5.13 1.059.63 1.892 1.5 2.5.5 8.327.666 16.66.5 25-1.522.29-3.022.29-4.5 0L5.5 891c1.507-.837 2.007-2.004 1.5-3.5-1.45.236-2.95.236-4.5 0 .462-7.508-.038-14.842-1.5-22C.5 577.167.333 288.834.5.5h1500c.63 296.017-.03 592.017-2 888z"/><path style="opacity:1" fill="#0e46ae" d="M279.5 12.5a1017807.824 1017807.824 0 0 0 1152 1143c.98 1.31 1.98 2.65 3 4-.83 2.66-1.67 5.33-2.5 8a617.832 617.832 0 0 0-19 49c-.95 1.96-2.29 3.62-4 5-.41 2.73-1.08 5.4-2 8a83.451 83.451 0 0 0-9 20 22.668 22.668 0 0 0-4 5c-3.02 6.54-5.68 13.21-8 20a398.27 398.27 0 0 1-12 19c.06 3.94-1.6 6.94-5 9a132.465 132.465 0 0 1-18 29c-2.46 3.99-4.29 8.33-5.5 13-1.19.93-2.52 1.26-4 1 .33 3.11-.84 5.44-3.5 7-.49 1.63-.66 3.3-.5 5-1.32-.17-2.49.16-3.5 1-2.29 4.93-5.29 9.26-9 13-.33 1.33-.67 2.67-1 4-1.51.76-2.85 1.76-4 3-1.34 3-2.67 6-4 9-1.01.84-2.18 1.17-3.5 1 .15 1.05-.02 2.05-.5 3-3.41 4.72-7.07 9.06-11 13-.57 2.9-2.24 4.9-5 6-2.02 5.34-5.35 9.68-10 13-.48.95-.65 1.95-.5 3h-3c.16 1.37-.01 2.71-.5 4-2.64 2.3-5.31 4.64-8 7-.48.95-.65 1.95-.5 3h-3c.74 3.45-.59 5.12-4 5v3h-3v4c-3.41-.12-4.74 1.55-4 5-2.79.43-5.12 1.77-7 4a69.4 69.4 0 0 1-5.5 8 78.921 78.921 0 0 0-10.5 10.5c-.95.48-1.95.65-3 .5.15 1.05-.02 2.05-.5 3a34.862 34.862 0 0 1-8.5 5.5l1 1c-1.58-.19-2.92-1.03-4-2.5a95.629 95.629 0 0 1-7.5-9c-60.16-58.83-119.5-118.16-178-178a909.436 909.436 0 0 1-49-49C835.473 1099.97 683.973 948.473 532.5 797a95.578 95.578 0 0 0-10-7.5 4.934 4.934 0 0 0-.5-3 387148.985 387148.985 0 0 0-504.5-504 63.697 63.697 0 0 0-6.5-7c-.5-88.333-.667-176.666-.5-265 88.667-.167 177.334 0 266 .5.744 1.039 1.744 1.539 3 1.5z"/><path style="opacity:1" fill="#fdfefe" d="M286.5 10.5c71.667-.167 143.334 0 215 .5 4.26 4.768 8.927 8.934 14 12.5a32330.998 32330.998 0 0 0 151 151.5 920866.114 920866.114 0 0 1 812 804.5c.9 3.417.9 6.917 0 10.5-2.54 13.29-5.21 26.46-8 39.5.17 1.54.51 3.04 1 4.5-1.29 2.79-2.46 5.63-3.5 8.5a4172.9 4172.9 0 0 1-14 59l-2 2c-.39 3.72-1.06 7.39-2 11a1231.56 1231.56 0 0 1-11.5 35.5c-.34 1.03-1 1.53-2 1.5a6130780.653 6130780.653 0 0 1-1150-1141z"/><path style="opacity:1" fill="#0e46ae" d="M1490.5 868.5c-1.21 20.538-2.38 41.204-3.5 62a169.135 169.135 0 0 0-3 26 284.78 284.78 0 0 0-3.5 16c-320.64-317.994-641.302-635.994-962-954-2.021-2.537-4.354-4.87-7-7 326.333-1 652.67-1.333 979-1 .03 286.073.03 572.073 0 858z"/><path style="opacity:.996" fill="#000165" d="M140.5 140.5a1150.87 1150.87 0 0 1 83-.5c12.08 4.079 21.913 11.246 29.5 21.5a215.783 215.783 0 0 0 10 17 1381.864 1381.864 0 0 1 14 49 313.694 313.694 0 0 0 30 55c2.4 3.902 5.566 6.902 9.5 9-.709.904-1.709 1.237-3 1a98.521 98.521 0 0 1-7.5-9 313.694 313.694 0 0 1-30-55 1381.864 1381.864 0 0 0-14-49c-6.263-13.592-15.43-24.759-27.5-33.5a47.356 47.356 0 0 0-12-5 3360.51 3360.51 0 0 0-82-.5z"/><path style="opacity:1" fill="#010165" d="M328.5 149.5c4.146-1.147 8.48-1.314 13-.5 8.834 2.673 16.334 7.506 22.5 14.5a329.2 329.2 0 0 1 27 47c2.697 4.021 5.364 8.021 8 12a169.322 169.322 0 0 0 19 17c2.159 2.581 2.659 5.247 1.5 8-.255-2.516-1.089-4.85-2.5-7a169.322 169.322 0 0 1-19-17 833.232 833.232 0 0 1-27-48 129.193 129.193 0 0 0-15.5-18.5c-8.329-5.164-17.329-7.664-27-7.5z"/><path style="opacity:.994" fill="#04080f" d="M518.5 18.5c320.698 318.006 641.36 636.006 962 954-1.59 2.377-2.25 4.71-2 7a920866.114 920866.114 0 0 0-812-804.5 32330.998 32330.998 0 0 1-151-151.5c.65.304 1.317.637 2 1a9.86 9.86 0 0 0 1-6z"/><path style="opacity:.999" fill="#030303" d="M328.5 149.5c9.671-.164 18.671 2.336 27 7.5a129.193 129.193 0 0 1 15.5 18.5 833.232 833.232 0 0 0 27 48 169.322 169.322 0 0 0 19 17c1.411 2.15 2.245 4.484 2.5 7-10.78 14.712-25.114 19.879-43 15.5a17138.085 17138.085 0 0 1-33-21c-9.739-1.967-16.406 1.533-20 10.5-1.761 9.763.905 18.263 8 25.5 4.732.115 9.066 1.282 13 3.5-.689 1.207-.855 2.541-.5 4-2.041-2.474-4.708-3.474-8-3-2.793-.195-5.293.471-7.5 2-.886-.825-1.219-1.825-1-3 .543-.06.876-.393 1-1-7.839-9.69-10.505-20.69-8-33 6.009-8.952 14.343-12.119 25-9.5a166.77 166.77 0 0 1 25 17c16.765 9.319 31.432 6.819 44-7.5 1.209-1.935 1.042-3.935-.5-6a192.182 192.182 0 0 1-18-15 902.542 902.542 0 0 1-28-50 159.041 159.041 0 0 0-13.5-16.5c-6.181-3.562-12.681-6.062-19.5-7.5-1.707.008-3.207.342-4.5 1-17.695 5.178-31.195 15.844-40.5 32-7.003 23.327-4.003 45.327 9 66a311.669 311.669 0 0 0 23.5 34c-1.367 2.632-2.201 2.298-2.5-1-.717.544-1.217 1.211-1.5 2-12.147-14.271-22.314-29.938-30.5-47a97.296 97.296 0 0 1-6.5-27.5 197.435 197.435 0 0 1 4.5-28.5c9.878-16.713 24.044-28.046 42.5-34z"/><path style="opacity:1" fill="#2a3500" d="M330.5 153.5c1.293-.658 2.793-.992 4.5-1 6.819 1.438 13.319 3.938 19.5 7.5a159.041 159.041 0 0 1 13.5 16.5 902.542 902.542 0 0 0 28 50 192.182 192.182 0 0 0 18 15c1.542 2.065 1.709 4.065.5 6 .009-1.808-.491-3.475-1.5-5a192.182 192.182 0 0 1-18-15 902.542 902.542 0 0 1-28-50 159.041 159.041 0 0 0-13.5-16.5c-7.081-4.516-14.748-7.016-23-7.5z"/><path style="opacity:1" fill="#fecc00" d="M330.5 153.5c8.252.484 15.919 2.984 23 7.5a159.041 159.041 0 0 1 13.5 16.5 902.542 902.542 0 0 0 28 50 192.182 192.182 0 0 0 18 15c1.009 1.525 1.509 3.192 1.5 5-12.568 14.319-27.235 16.819-44 7.5a166.77 166.77 0 0 0-25-17c-10.657-2.619-18.991.548-25 9.5-3.724 12.455-1.391 23.788 7 34-1.039 2.031-2.705 3.364-5 4a311.669 311.669 0 0 1-23.5-34c-13.003-20.673-16.003-42.673-9-66 9.305-16.156 22.805-26.822 40.5-32z"/><path style="opacity:1" fill="#010165" d="M323.5 252.5c-.574 9.573 2.426 17.739 9 24.5a39.484 39.484 0 0 1 13 3c2.107 1.264 3.107 3.097 3 5.5-.973-1.639-2.306-2.973-4-4-3.934-2.218-8.268-3.385-13-3.5-7.095-7.237-9.761-15.737-8-25.5z"/><path style="opacity:1" fill="#2c3400" d="M320.5 247.5c-2.505 12.31.161 23.31 8 33-.124.607-.457.94-1 1-8.391-10.212-10.724-21.545-7-34z"/><path style="opacity:.975" fill="#010265" d="M354.5 284.5c9.896-2.481 15.563 1.519 17 12-.02 1.226-.353 2.226-1 3-.217-10.552-5.55-15.552-16-15z"/><path style="opacity:.995" fill="#101004" d="M327.5 281.5c-.219 1.175.114 2.175 1 3 2.207-1.529 4.707-2.195 7.5-2 3.292-.474 5.959.526 8 3-.355-1.459-.189-2.793.5-4 1.694 1.027 3.027 2.361 4 4 2.235.295 4.235-.039 6-1 10.45-.552 15.783 4.448 16 15-1.88 2.255-2.88 4.922-3 8 .496 2.105 1.996 4.105 4.5 6a28.043 28.043 0 0 0 1.5 5c-.124.607-.457.94-1 1-.824-6.656-4.491-9.156-11-7.5a1255.974 1255.974 0 0 0-51 52.5 29.555 29.555 0 0 1-3-5 1595.114 1595.114 0 0 1 57.5-59c1.84-5.98-.326-9.98-6.5-12-3.33.412-6.33 1.578-9 3.5a468.873 468.873 0 0 1-54 54.5c-.936-1.474-2.27-2.474-4-3a950.962 950.962 0 0 1 26.5-25 5910.025 5910.025 0 0 1 25-28c-.006-6.305-3.172-8.471-9.5-6.5a546.577 546.577 0 0 0-33 30.5 11.105 11.105 0 0 0-3-4.5c.556-.383.889-.883 1-1.5a85.582 85.582 0 0 0 12-10c.934-1.068 1.268-2.401 1-4l2-2c1.291.237 2.291-.096 3-1 1.713-1.135 2.38-2.802 2-5 .283-.789.783-1.456 1.5-2 .299 3.298 1.133 3.632 2.5 1 2.295-.636 3.961-1.969 5-4z"/><path style="opacity:1" fill="#fcde08" d="M307.5 359.5c-3.86 3.098-8.193 5.432-13 7-5.893-2.452-8.059-6.785-6.5-13a72.667 72.667 0 0 1 7.5-7 468.873 468.873 0 0 0 54-54.5c2.67-1.922 5.67-3.088 9-3.5 6.174 2.02 8.34 6.02 6.5 12a1595.114 1595.114 0 0 0-57.5 59z"/><path style="opacity:1" fill="#fdfefe" d="M1216.5 1490.5c1.83 2 2.33 4.33 1.5 7-4.58 3.25-8.41 7.08-11.5 11.5-3.19.26-5.19 1.92-6 5-3 .33-4.67 2-5 5-3.88.21-6.21 2.21-7 6-1.33.33-2.67.67-4 1-5.26 6.42-11.6 11.59-19 15.5-3.46 2.96-6.79 6.12-10 9.5a215.4 215.4 0 0 0-20 15 41.781 41.781 0 0 0-10 5c-5.99 6-12.99 10.33-21 13-1.02 3.05-3.02 4.38-6 4a46.294 46.294 0 0 0-6-5.5 823123.28 823123.28 0 0 0-1080-1080l-1.5-3c-.5-69.999-.667-139.999-.5-210a8.435 8.435 0 0 1 .5-4c401.836 402.003 803.67 803.67 1205.5 1205z"/><path style="opacity:1" fill="#010165" d="M198.5 284.5c10.602-1.487 21.268-.987 32 1.5 21.579 7.289 41.579 17.455 60 30.5-5.729-2.37-11.063-5.537-16-9.5a768.723 768.723 0 0 0-45-20 124.555 124.555 0 0 0-31-2.5z"/><path style="opacity:1" fill="#fece01" d="M291.5 343.5c-7.18 1.321-10.346-1.679-9.5-9a175.2 175.2 0 0 0 18.5-20 546.577 546.577 0 0 1 33-30.5c6.328-1.971 9.494.195 9.5 6.5a5910.025 5910.025 0 0 0-25 28 950.962 950.962 0 0 0-26.5 25z"/><path style="opacity:.994" fill="#000166" d="M446.5 293.5c2.905-1.201 5.905-1.034 9 .5 8.225 6.211 13.058 14.377 14.5 24.5.808 3.527.641 6.86-.5 10 1.117-13.931-3.883-25.097-15-33.5a18.991 18.991 0 0 0-8-1.5z"/><path style="opacity:1" fill="#010133" d="M960.5 213.5c-.167 27.335 0 54.669.5 82 3.712 10.264 9.546 19.098 17.5 26.5 5.793 2.73 11.46 5.73 17 9a1215.603 1215.603 0 0 0 57 17c23.7 7.852 45.7 18.852 66 33 1.29 1.292 1.29 2.458 0 3.5.09-.996-.25-1.829-1-2.5-20.3-14.148-42.3-25.148-66-33a1215.603 1215.603 0 0 1-57-17 207.178 207.178 0 0 0-17-9c-7.954-7.402-13.788-16.236-17.5-26.5a1150.87 1150.87 0 0 1 .5-83z"/><path style="opacity:.999" fill="#040503" d="M140.5 140.5c27.335-.167 54.669 0 82 .5a47.356 47.356 0 0 1 12 5c12.07 8.741 21.237 19.908 27.5 33.5a1381.864 1381.864 0 0 1 14 49 313.694 313.694 0 0 0 30 55 98.521 98.521 0 0 0 7.5 9l-2 2a285.005 285.005 0 0 1-28.5-42 165.643 165.643 0 0 1-10-23 1381.864 1381.864 0 0 0-14-49c-5.589-12.916-14.089-23.416-25.5-31.5a47.356 47.356 0 0 0-12-5c-26.836-.83-53.503-.664-80 .5-.283.789-.783 1.456-1.5 2a1481.76 1481.76 0 0 0 0 77c5.691 16.026 16.524 27.192 32.5 33.5a1217.754 1217.754 0 0 0 57 17 352.368 352.368 0 0 1 46 20 466.027 466.027 0 0 0 23 14.5c-.111.617-.444 1.117-1 1.5a11.105 11.105 0 0 1 3 4.5 175.2 175.2 0 0 1-18.5 20c-.846 7.321 2.32 10.321 9.5 9 1.73.526 3.064 1.526 4 3a72.667 72.667 0 0 0-7.5 7c-1.559 6.215.607 10.548 6.5 13 4.807-1.568 9.14-3.902 13-7a29.555 29.555 0 0 0 3 5c.166 7.309 3.833 9.809 11 7.5a1078.064 1078.064 0 0 0 39.5-38.5 78.218 78.218 0 0 1 11.5-14c.543-.06.876-.393 1-1a28.043 28.043 0 0 1-1.5-5c-2.504-1.895-4.004-3.895-4.5-6 7.191 2.255 10.191 7.255 9 15 .975 1.693 2.308 3.193 4 4.5 13.73 7.155 28.063 9.322 43 6.5 8.773-1.933 14.606-7.266 17.5-16a222.398 222.398 0 0 0 5.5-24 18.991 18.991 0 0 1 8 1.5c11.117 8.403 16.117 19.569 15 33.5-8.646 32.217-28.979 42.383-61 30.5a521.573 521.573 0 0 1-33-15c-3.444-3.904-7.444-5.737-12-5.5-1.073.751-1.24 1.751-.5 3a99.187 99.187 0 0 0 21.5 12.5c11.929 9.134 24.929 16.467 39 22a54.73 54.73 0 0 1 12.5 9.5c5.343 15.236 7.843 30.903 7.5 47-1.354 2.196-3.354 3.696-6 4.5a400.05 400.05 0 0 1-40 0 20.51 20.51 0 0 1-8-3 102.355 102.355 0 0 1-10.5-13.5 869.577 869.577 0 0 0-35-59c-1.616-1.301-3.116-1.301-4.5 0-1.113 1.446-1.28 3.113-.5 5a540.488 540.488 0 0 1 21 34 124.177 124.177 0 0 0 5 17 119.947 119.947 0 0 1 1.5 17c-1.83 8.92-5.33 17.254-10.5 25-17.664 15.381-35.831 15.881-54.5 1.5a142.196 142.196 0 0 1-7.5-8.5c-.667-1.667-.667-3.333 0-5a173.981 173.981 0 0 0 28.5-6.5c17.639-12.115 22.472-28.282 14.5-48.5a141.407 141.407 0 0 0-11.5-16.5c-3.298-.542-6.465-.042-9.5 1.5-5.204-1.869-9.204-5.202-12-10-11.7 5.733-18.867 2.233-21.5-10.5l2-7a122.828 122.828 0 0 1-6.5-7.5 30.99 30.99 0 0 1-1-13c-7.342-5.224-15.509-7.391-24.5-6.5l-8 5c-.752.671-1.086 1.504-1 2.5-1.141 3.14-1.308 6.473-.5 10a110901.88 110901.88 0 0 0 17 32c3.748 7.543 5.581 15.543 5.5 24-2.291 6.665-5.458 12.998-9.5 19-3.088 2.597-6.588 3.431-10.5 2.5a196.871 196.871 0 0 0-25-21 1406.582 1406.582 0 0 1-45-22 190.792 190.792 0 0 0-15-11c-11.637-17.686-11.804-35.519-.5-53.5 9.7-13.579 22.533-22.246 38.5-26a124.555 124.555 0 0 1 31 2.5 768.723 768.723 0 0 1 45 20c4.937 3.963 10.271 7.13 16 9.5 3.85-.201 4.85-2.034 3-5.5-20.295-14.148-42.295-25.148-66-33a1217.754 1217.754 0 0 1-57-17 207.178 207.178 0 0 0-17-9c-7.954-7.402-13.788-16.236-17.5-26.5-.667-27-.667-54 0-81 1.397-1.57 2.897-2.904 4.5-4z"/><path style="opacity:1" fill="#fece01" d="M372.5 319.5a78.218 78.218 0 0 0-11.5 14 1078.064 1078.064 0 0 1-39.5 38.5c-7.167 2.309-10.834-.191-11-7.5a1255.974 1255.974 0 0 1 51-52.5c6.509-1.656 10.176.844 11 7.5z"/><path style="opacity:1" fill="#fecd00" d="M449.5 298.5c10.965 5.91 16.298 15.243 16 28-7.618 30.196-26.285 39.696-56 28.5-5.291-4.163-11.291-6.83-18-8a71.71 71.71 0 0 1-20.5-12.5c-.409-2.195.091-4.195 1.5-6 8.644 3.828 17.644 6.994 27 9.5 8.843.824 17.51.657 26-.5 9.448-2.608 15.948-8.608 19.5-18a103.07 103.07 0 0 0 4.5-21z"/><path style="opacity:.886" fill="#273602" d="M449.5 298.5c.751-1.073 1.751-1.24 3-.5 10.252 6.992 14.586 16.492 13 28.5.298-12.757-5.035-22.09-16-28z"/><path style="opacity:1" fill="#2a3500" d="M200.5 288.5c13.338-1.594 26.338.239 39 5.5 16.714 6.522 32.381 14.855 47 25 1.291 1.292 1.291 2.458 0 3.5.086-.996-.248-1.829-1-2.5-19.407-13.252-40.407-23.252-63-30a183.182 183.182 0 0 0-22-1.5z"/><path style="opacity:1" fill="#fecc00" d="M200.5 288.5c7.36.058 14.694.558 22 1.5 22.593 6.748 43.593 16.748 63 30 .752.671 1.086 1.504 1 2.5a44.053 44.053 0 0 0-5.5 3 649.508 649.508 0 0 1-16.5-6.5c-10.863-2.883-19.197.283-25 9.5-1.148 4.481-1.315 9.148-.5 14a274.008 274.008 0 0 0 14 25l7 17c.499 4.989.666 9.989.5 15-2.337 2.465-3.837 5.465-4.5 9a21.754 21.754 0 0 1-7.5 6 265.717 265.717 0 0 0-26-21.5 1410.173 1410.173 0 0 1-45-22 64.783 64.783 0 0 0-11-8c-7.453-7.177-11.12-16.011-11-26.5 4.694-25.693 19.694-41.693 45-48zM141.5 144.5c26.335-.167 52.669 0 79 .5 11.194 3.677 20.361 10.177 27.5 19.5a215.783 215.783 0 0 0 10 17 1079.393 1079.393 0 0 0 19 62 265.32 265.32 0 0 0 33 52c.483.948.649 1.948.5 3a85.582 85.582 0 0 1-12 10 466.027 466.027 0 0 1-23-14.5 352.368 352.368 0 0 0-46-20 1217.754 1217.754 0 0 1-57-17c-15.976-6.308-26.809-17.474-32.5-33.5a1481.76 1481.76 0 0 1 0-77c.717-.544 1.217-1.211 1.5-2z"/><path style="opacity:1" fill="#2c3500" d="M141.5 144.5a1069.168 1069.168 0 0 1 80-.5 47.356 47.356 0 0 1 12 5c11.411 8.084 19.911 18.584 25.5 31.5a1381.864 1381.864 0 0 1 14 49 165.643 165.643 0 0 0 10 23 285.005 285.005 0 0 0 28.5 42c.268 1.599-.066 2.932-1 4a4.934 4.934 0 0 0-.5-3 265.32 265.32 0 0 1-33-52 1079.393 1079.393 0 0 1-19-62 215.783 215.783 0 0 1-10-17c-7.139-9.323-16.306-15.823-27.5-19.5-26.331-.5-52.665-.667-79-.5z"/><path style="opacity:1" fill="#010165" d="M376.5 322.5c14.213 9.38 29.88 13.046 47 11-14.937 2.822-29.27.655-43-6.5-1.692-1.307-3.025-2.807-4-4.5z"/><path style="opacity:1" fill="#020133" d="M1160.5 312.5c2.47-1.134 5.13-1.301 8-.5 11.02 7.031 22.02 14.031 33 21a90.913 90.913 0 0 0 22 1.5c-7.57 1.409-15.24 1.242-23-.5-10.98-6.969-21.98-13.969-33-21a24.927 24.927 0 0 0-7-.5z"/><path style="opacity:1" fill="#283500" d="M372.5 328.5c1.446-1.113 3.113-1.28 5-.5 14.752 8.85 30.752 12.017 48 9.5-8.49 1.157-17.157 1.324-26 .5-9.356-2.506-18.356-5.672-27-9.5z"/><path style="opacity:1" fill="#fecc00" d="M358.5 344.5a141.306 141.306 0 0 0 24 13.5c11.929 9.134 24.929 16.467 39 22a183.542 183.542 0 0 1 10.5 7.5 181.787 181.787 0 0 1 7.5 43 16.58 16.58 0 0 1-4 2.5 256.122 256.122 0 0 1-32 0 45.984 45.984 0 0 1-10-2l-6.5-6.5a3466.435 3466.435 0 0 0-40.5-68 76.938 76.938 0 0 1 12-12z"/><path style="opacity:.969" fill="#010166" d="M363.5 338.5c1.206 2.798 3.206 4.965 6 6.5a158.523 158.523 0 0 1 32 19 121.493 121.493 0 0 0 23 11 54.73 54.73 0 0 1 12.5 9.5c5.795 15.72 7.962 31.72 6.5 48 .343-16.097-2.157-31.764-7.5-47a54.73 54.73 0 0 0-12.5-9.5c-14.071-5.533-27.071-12.866-39-22a99.187 99.187 0 0 1-21.5-12.5c-.74-1.249-.573-2.249.5-3z"/><path style="opacity:1" fill="#010266" d="M243.5 330.5a40.914 40.914 0 0 0 .5 9 288.687 288.687 0 0 0 14 25c4.766 9.129 7.6 18.796 8.5 29-.02 1.226-.353 2.226-1 3 .081-8.457-1.752-16.457-5.5-24a110901.88 110901.88 0 0 1-17-32c-.808-3.527-.641-6.86.5-10z"/><path style="opacity:1" fill="#010165" d="M339.5 361.5a8.43 8.43 0 0 0 .5 4 540.488 540.488 0 0 1 21 34 114.27 114.27 0 0 1 6.5 30c-.007 1.869-.34 3.536-1 5a119.947 119.947 0 0 0-1.5-17 124.177 124.177 0 0 1-5-17 540.488 540.488 0 0 0-21-34c-.78-1.887-.613-3.554.5-5z"/><path style="opacity:1" fill="#2a3500" d="M334.5 367.5c.577-1.273 1.243-1.273 2 0a1031.496 1031.496 0 0 1 20.5 34 144.387 144.387 0 0 1 6.5 28c-.043.916-.376 1.583-1 2a126.18 126.18 0 0 0-6.5-29 1261.825 1261.825 0 0 0-21.5-35z"/><path style="opacity:1" fill="#283600" d="M239.5 328.5a84.902 84.902 0 0 0 .5 13 274.008 274.008 0 0 0 14 25l7 17c.817 5.516.651 10.85-.5 16a112.97 112.97 0 0 0-.5-15l-7-17a274.008 274.008 0 0 1-14-25c-.815-4.852-.648-9.519.5-14z"/><path style="opacity:.998" fill="#060604" d="M1142.5 359.5c1.07-.751 1.24-1.751.5-3-14.69-17.715-26.02-37.381-34-59a87.983 87.983 0 0 1-2.5-21c-.5-11.654 2.34-22.32 8.5-32 8.06-10.377 18.23-18.21 30.5-23.5 17.04-4.946 31.54-.78 43.5 12.5a328.248 328.248 0 0 1 27 47c5.77 10.434 13.6 18.934 23.5 25.5 8.02 7.139 7.69 13.973-1 20.5a98.63 98.63 0 0 1-15 8 90.913 90.913 0 0 1-22-1.5c-10.98-6.969-21.98-13.969-33-21-2.87-.801-5.53-.634-8 .5-12.63 6.036-15.47 15.369-8.5 28a25.571 25.571 0 0 0 5.5 6.5c7.24.182 13.4 2.682 18.5 7.5 11.86-3.825 18.7.341 20.5 12.5-.31 3.441-1.31 6.608-3 9.5 3.11.591 5.61 2.258 7.5 5a36.9 36.9 0 0 1 1.5 12c-2.53-.731-2.53-.231 0 1.5-1.1.77-1.1 1.603 0 2.5-1.91-.284-3.58.049-5 1-1.41 1.805-1.91 3.805-1.5 6 9.01 7.421 19.17 12.587 30.5 15.5 3.12 1.306 5.79 3.14 8 5.5-1.98.605-2.31 1.605-1 3a296.539 296.539 0 0 1-33-14.5c-3.2-3.601-6.86-5.434-11-5.5-.11.617-.44 1.117-1 1.5a91.617 91.617 0 0 0 22 13c11.93 9.134 24.93 16.467 39 22a54.687 54.687 0 0 1 12.5 9.5c5.74 15.878 8.08 32.211 7 49-1.53 1.797-3.36 3.13-5.5 4-13.67.167-27.34 0-41-.5a20.504 20.504 0 0 1-8-3 102.693 102.693 0 0 1-10.5-13.5 869.992 869.992 0 0 0-35-59c-1.29-1.291-2.46-1.291-3.5 0-.91 1.238-1.08 2.572-.5 4a538.629 538.629 0 0 1 21 34 109.662 109.662 0 0 1 6.5 30.5c-.68 15.026-6.68 27.36-18 37a38.313 38.313 0 0 1-14 4.5c-17.17.832-31-5.501-41.5-19-.5-1.973-.66-3.973-.5-6a137.19 137.19 0 0 1 20-3.5c14.31-4.228 22.98-13.395 26-27.5 1.64-7.781.81-15.447-2.5-23a141.286 141.286 0 0 0-11.5-16.5c-1.57-.765-2.9-.598-4 .5-.71.904-1.71 1.237-3 1-6.56-.547-11.23-3.88-14-10-.61.124-.94.457-1 1-1.43 1.037-3.1 1.704-5 2-10.92.41-16.26-4.924-16-16-.21-1.644.12-3.144 1-4.5-6.32-3.565-8.66-8.731-7-15.5 1.79-3.447.79-5.947-3-7.5a75.834 75.834 0 0 1-11-4c-3.2-.805-6.2-.638-9 .5a105.009 105.009 0 0 1-8.5 6c-1.48 3.202-1.82 6.536-1 10 5.68 10.698 11.35 21.365 17 32 8.62 16.321 7.12 31.487-4.5 45.5a10.117 10.117 0 0 1-4 1.5c-2.36.163-4.69-.003-7-.5a196.94 196.94 0 0 0-25-21c-12.03-5.683-24.03-11.35-36-17a230.256 230.256 0 0 1-24-16c-6.44-9.398-9.44-19.898-9-31.5.309-8.379 2.809-16.046 7.5-23 18.18-23.988 42.01-31.821 71.5-23.5 20.69 7.01 40.02 16.676 58 29 1.77.64 3.43.473 5-.5 1.29-1.042 1.29-2.208 0-3.5-20.3-14.148-42.3-25.148-66-33a1215.603 1215.603 0 0 1-57-17 207.178 207.178 0 0 0-17-9c-7.954-7.402-13.788-16.236-17.5-26.5a3360.51 3360.51 0 0 1-.5-82c.843-1.673 2.176-2.84 4-3.5 28-.667 56-.667 84 0 12.08 4.079 21.91 11.246 29.5 21.5a213.945 213.945 0 0 0 10 17c4.98 16.273 9.64 32.606 14 49 8.68 21.025 19.68 40.692 33 59 1.67 1.667 3.33 3.333 5 5 .71-.881 1.54-1.547 2.5-2z"/><path style="opacity:1" fill="#293500" d="M1025.5 358.5c13.34-1.594 26.34.239 39 5.5 16.71 6.522 32.38 14.855 47 25 1.29 1.292 1.29 2.458 0 3.5.09-.996-.25-1.829-1-2.5-19.41-13.252-40.41-23.252-63-30a183.238 183.238 0 0 0-22-1.5z"/><path style="opacity:1" fill="#263600" d="M1181.5 358.5c6.23-1.488 9.9 1.179 11 8-.12.607-.46.94-1 1-.83-5.836-4.17-8.836-10-9z"/><path style="opacity:.999" fill="#fcde08" d="M1181.5 358.5c5.83.164 9.17 3.164 10 9a5575.31 5575.31 0 0 1-62 64.5 187.48 187.48 0 0 1-10 4.5c-5.89-2.452-8.06-6.785-6.5-13a632.48 632.48 0 0 0 31.5-28.5 698.209 698.209 0 0 0 30-33c2.21-1.616 4.55-2.783 7-3.5z"/><path style="opacity:1" fill="#fcdd08" d="M1025.5 358.5c7.36.058 14.69.558 22 1.5 22.59 6.748 43.59 16.748 63 30 .75.671 1.09 1.504 1 2.5-1.9.868-3.74 1.868-5.5 3a637.92 637.92 0 0 1-16.5-6.5c-10.86-2.883-19.2.283-25 9.5-1.15 4.481-1.32 9.148-.5 14a273.769 273.769 0 0 0 14 25c2.33 5.667 4.67 11.333 7 17 .5 4.989.67 9.989.5 15-2.34 2.465-3.84 5.465-4.5 9a21.81 21.81 0 0 1-7.5 6 266.19 266.19 0 0 0-26-21.5 1401.869 1401.869 0 0 1-45-22 64.783 64.783 0 0 0-11-8c-7.453-7.177-11.12-16.011-11-26.5 4.694-25.693 19.69-41.693 45-48z"/><path style="opacity:1" fill="#fcde08" d="M1158.5 353.5c4.95-1.189 8.28.477 10 5a80.79 80.79 0 0 1-6.5 10 715.537 715.537 0 0 1-42.5 42.5c-6.14 5.227-10.48 4.061-13-3.5.08-1.799.58-3.466 1.5-5a3533.339 3533.339 0 0 0 50.5-49z"/><path style="opacity:1" fill="#273600" d="M1144.5 319.5c-1.18 11.639 1.82 21.973 9 31-.12.607-.46.94-1 1-7.7-9.478-10.37-20.145-8-32z"/><path style="opacity:1" fill="#020132" d="M1106.5 276.5a87.983 87.983 0 0 0 2.5 21c7.98 21.619 19.31 41.285 34 59 .74 1.249.57 2.249-.5 3a335.549 335.549 0 0 1-30.5-49c-4.57-11.086-6.4-22.419-5.5-34z"/><path style="opacity:1" fill="#293500" d="M1155.5 223.5c1.29-.658 2.79-.992 4.5-1 9.63 1.668 17.97 6.001 25 13a328.248 328.248 0 0 1 27 47 93.298 93.298 0 0 1 9 14 192.699 192.699 0 0 0 18 15c1.54 2.065 1.71 4.065.5 6 .01-1.808-.49-3.475-1.5-5a192.699 192.699 0 0 1-18-15 900.6 900.6 0 0 1-28-50 158.527 158.527 0 0 0-13.5-16.5c-7.08-4.516-14.75-7.016-23-7.5z"/><path style="opacity:1" fill="#fcdd08" d="M1155.5 223.5c8.25.484 15.92 2.984 23 7.5a158.527 158.527 0 0 1 13.5 16.5 900.6 900.6 0 0 0 28 50 192.699 192.699 0 0 0 18 15c1.01 1.525 1.51 3.192 1.5 5-12.57 14.319-27.23 16.819-44 7.5a166.618 166.618 0 0 0-25-17c-11.77-2.81-20.44 1.024-26 11.5-2.37 11.855.3 22.522 8 32-2.27 4.101-4.77 4.435-7.5 1a234.485 234.485 0 0 1-31-53c-4-14.698-3.67-29.365 1-44 9.31-16.156 22.81-26.822 40.5-32z"/><path style="opacity:1" fill="#fbdd08" d="M966.5 214.5c26.335-.167 52.67 0 79 .5 11.19 3.677 20.36 10.177 27.5 19.5a213.945 213.945 0 0 0 10 17 1080.188 1080.188 0 0 0 19 62 265.04 265.04 0 0 0 33 52c.48.948.65 1.948.5 3a60.238 60.238 0 0 1-12.5 10c-21.03-14.766-43.86-26.266-68.5-34.5a2693.285 2693.285 0 0 1-49-14c-13.053-4.274-24.22-11.44-33.5-21.5a108.34 108.34 0 0 1-7-15 1481.76 1481.76 0 0 1 0-77c.717-.544 1.217-1.211 1.5-2z"/><path style="opacity:.961" fill="#2a3400" d="M966.5 214.5c26.497-1.164 53.16-1.33 80-.5 11.19 3.677 20.36 10.177 27.5 19.5a213.945 213.945 0 0 0 10 17 1080.188 1080.188 0 0 0 19 62 265.04 265.04 0 0 0 33 52c.76 1.566.6 2.899-.5 4a4.949 4.949 0 0 0-.5-3 265.04 265.04 0 0 1-33-52 1080.188 1080.188 0 0 1-19-62 213.945 213.945 0 0 1-10-17c-7.14-9.323-16.31-15.823-27.5-19.5-26.33-.5-52.665-.667-79-.5z"/><path style="opacity:1" fill="#2b3500" d="M358.5 344.5c1.221-.965 2.554-.798 4 .5a109.436 109.436 0 0 0 21 12c11.929 9.134 24.929 16.467 39 22a183.542 183.542 0 0 1 10.5 7.5c4.698 14.498 6.865 29.165 6.5 44a181.787 181.787 0 0 0-7.5-43 183.542 183.542 0 0 0-10.5-7.5c-14.071-5.533-27.071-12.866-39-22a141.306 141.306 0 0 1-24-13.5z"/><path style="opacity:1" fill="#fbde08" d="M1186.5 381.5c8.05-.792 11.22 2.541 9.5 10a67.875 67.875 0 0 0-10 12 1082.882 1082.882 0 0 1-39.5 38.5c-10.78 1.246-13.28-2.588-7.5-11.5a3303.844 3303.844 0 0 1 47.5-49z"/><path style="opacity:1" fill="#fcd404" d="M1274.5 368.5c10.96 5.91 16.3 15.243 16 28-3.91 20.898-16.57 31.898-38 33a95.066 95.066 0 0 1-18-4c-2.21-2.36-4.88-4.194-8-5.5-11.33-2.913-21.49-8.079-30.5-15.5-.41-2.195.09-4.195 1.5-6 8.64 3.828 17.64 6.994 27 9.5 8.84.824 17.51.657 26-.5 9.45-2.608 15.95-8.608 19.5-18a102.67 102.67 0 0 0 4.5-21z"/><path style="opacity:1" fill="#020135" d="M1078.5 393.5c2.8-1.138 5.8-1.305 9-.5a75.834 75.834 0 0 0 11 4c3.79 1.553 4.79 4.053 3 7.5.53-3.308-.81-5.474-4-6.5a75.834 75.834 0 0 1-11-4 32.465 32.465 0 0 0-8-.5z"/><path style="opacity:1" fill="#2d3400" d="M1197.5 398.5c1.42-.951 3.09-1.284 5-1 .84 1.673 2.18 2.84 4 3.5 14.06 5.974 28.72 8.14 44 6.5-8.49 1.157-17.16 1.324-26 .5-9.36-2.506-18.36-5.672-27-9.5z"/><path style="opacity:.999" fill="#050508" d="M1247.5 433.5a60.772 60.772 0 0 1-14-5c-1.31-1.395-.98-2.395 1-3a95.066 95.066 0 0 0 18 4c21.43-1.102 34.09-12.102 38-33 1.59-12.008-2.75-21.508-13-28.5-1.25-.74-2.25-.573-3 .5a102.67 102.67 0 0 1-4.5 21c-3.55 9.392-10.05 15.392-19.5 18-15.28 1.64-29.94-.526-44-6.5-1.82-.66-3.16-1.827-4-3.5-1.1-.897-1.1-1.73 0-2.5-2.53-1.731-2.53-2.231 0-1.5 14.58 9.083 30.42 12.083 47.5 9 7.7-2.68 12.7-8.013 15-16a126.884 126.884 0 0 0 5-23c3.51-1.266 7.01-1.099 10.5.5 14.19 11.922 18.36 26.756 12.5 44.5-8.49 20.68-23.65 29.013-45.5 25z"/><path style="opacity:.961" fill="#293500" d="M1274.5 368.5c.75-1.073 1.75-1.24 3-.5 10.25 6.992 14.59 16.492 13 28.5.3-12.757-5.04-22.09-16-28z"/><path style="opacity:1" fill="#fecd01" d="M334.5 367.5a1261.825 1261.825 0 0 1 21.5 35 126.18 126.18 0 0 1 6.5 29c-1.67 9.285-5.17 17.952-10.5 26-14.152 12.163-28.986 12.997-44.5 2.5-3.526-2.026-6.193-4.859-8-8.5a3.647 3.647 0 0 1 1-1.5c31.69-1.677 46.19-18.177 43.5-49.5-2.86-10.221-7.694-19.388-14.5-27.5 1.242-2.272 2.908-4.106 5-5.5z"/><path style="opacity:1" fill="#2e3400" d="M1064.5 398.5c-.17 4.346 0 8.679.5 13a273.769 273.769 0 0 0 14 25c2.33 5.667 4.67 11.333 7 17 .82 5.516.65 10.85-.5 16 .17-5.011 0-10.011-.5-15-2.33-5.667-4.67-11.333-7-17a273.769 273.769 0 0 1-14-25c-.82-4.852-.65-9.519.5-14z"/><path style="opacity:1" fill="#fecc00" d="M1183.5 414.5a141.229 141.229 0 0 0 24 13.5c11.93 9.134 24.93 16.467 39 22 3.59 2.377 7.09 4.877 10.5 7.5a181.483 181.483 0 0 1 7.5 43 16.6 16.6 0 0 1-4 2.5c-10.67.667-21.33.667-32 0a45.995 45.995 0 0 1-10-2c-2.17-2.167-4.33-4.333-6.5-6.5a3486.323 3486.323 0 0 0-40.5-68 76.938 76.938 0 0 1 12-12z"/><path style="opacity:.996" fill="#020135" d="M1189.5 408.5c4.14.066 7.8 1.899 11 5.5a296.539 296.539 0 0 0 33 14.5 60.772 60.772 0 0 0 14 5c-2.36.163-4.69-.003-7-.5a158.992 158.992 0 0 0-27-11c-8.51-3.75-16.51-8.25-24-13.5z"/><path style="opacity:1" fill="#fcdd08" d="M1159.5 437.5c7.33 11.515 14.5 23.182 21.5 35a126.494 126.494 0 0 1 6.5 29c-1.67 9.285-5.17 17.952-10.5 26-14.15 12.163-28.99 12.997-44.5 2.5-3.53-2.026-6.19-4.859-8-8.5.21-.586.54-1.086 1-1.5 31.69-1.677 46.19-18.177 43.5-49.5-2.86-10.221-7.69-19.388-14.5-27.5 1.24-2.272 2.91-4.106 5-5.5z"/><path style="opacity:1" fill="#020234" d="M1107.5 424.5c-.26 11.076 5.08 16.41 16 16-12.26 1.745-17.59-3.589-16-16z"/><path style="opacity:1" fill="#010136" d="M1128.5 438.5c.06-.543.39-.876 1-1 2.77 6.12 7.44 9.453 14 10-2.57 1.143-5.23.976-8-.5-2.95-2.441-5.29-5.275-7-8.5z"/><path style="opacity:1" fill="#020134" d="M976.5 402.5c-.44 11.602 2.56 22.102 9 31.5a230.256 230.256 0 0 0 24 16c11.97 5.65 23.97 11.317 36 17a196.94 196.94 0 0 1 25 21c2.31.497 4.64.663 7 .5-2.47 1.134-5.13 1.301-8 .5a196.94 196.94 0 0 0-25-21c-12.03-5.683-24.03-11.35-36-17a230.256 230.256 0 0 1-24-16c-6.891-9.885-9.558-20.718-8-32.5z"/><path style="opacity:1" fill="#2c3400" d="M1159.5 437.5c.58-1.273 1.24-1.273 2 0 7.06 11.222 13.9 22.556 20.5 34 3.1 9.133 5.27 18.466 6.5 28-.04.916-.38 1.583-1 2a126.494 126.494 0 0 0-6.5-29c-7-11.818-14.17-23.485-21.5-35z"/><path style="opacity:1" fill="#293600" d="M1183.5 414.5c1.22-.965 2.55-.798 4 .5a109.678 109.678 0 0 0 21 12c11.93 9.134 24.93 16.467 39 22 3.59 2.377 7.09 4.877 10.5 7.5 4.7 14.498 6.86 29.165 6.5 44a181.483 181.483 0 0 0-7.5-43 182.143 182.143 0 0 0-10.5-7.5c-14.07-5.533-27.07-12.866-39-22a141.229 141.229 0 0 1-24-13.5z"/><path style="opacity:1" fill="#020134" d="M1146.5 446.5c1.1-1.098 2.43-1.265 4-.5a141.286 141.286 0 0 1 11.5 16.5c3.31 7.553 4.14 15.219 2.5 23 .59-7.629-.58-14.962-3.5-22l-9-14c-1.26-2.107-3.1-3.107-5.5-3z"/><path style="opacity:1" fill="#010033" d="M1165.5 431.5c1.04-1.291 2.21-1.291 3.5 0a869.992 869.992 0 0 1 35 59c3.12 4.786 6.62 9.286 10.5 13.5a20.504 20.504 0 0 0 8 3c13.66.5 27.33.667 41 .5-13.83 1.161-27.83 1.327-42 .5a20.504 20.504 0 0 1-8-3 102.693 102.693 0 0 1-10.5-13.5 1177.654 1177.654 0 0 0-33-56c-.88-2.135-2.38-3.469-4.5-4z"/><path style="opacity:1" fill="#0e46ae" d="M11.5 509.5a55847.935 55847.935 0 0 0 281 281 18026.67 18026.67 0 0 1 111.5 113 663879.914 663879.914 0 0 0 683.5 683c1.83 1.43 3.49 3.1 5 5a46.535 46.535 0 0 0-6 5.5 678.855 678.855 0 0 0-31 16c-.63.75-1.13 1.58-1.5 2.5-2.49-1.45-4.33-.78-5.5 2-41.3 20.99-84.633 37.65-130 50-74.061 19.08-149.395 25.58-226 19.5a4135.597 4135.597 0 0 0-53-7 2838.54 2838.54 0 0 0-56-12c-5.569-2.8-11.569-4.46-18-5a97.733 97.733 0 0 1-12-5.5c-.793.43-1.627.76-2.5 1a717.847 717.847 0 0 0-17.5-7.5c-7.882-1.51-15.215-4.18-22-8a2723.942 2723.942 0 0 0-45-18 3067.09 3067.09 0 0 0-16-10 75.845 75.845 0 0 0-11-4c-5.919-4.84-12.586-8.5-20-11a26.152 26.152 0 0 1-8-6.5c-7.892-2.86-14.892-7.03-21-12.5-1.333-.33-2.667-.67-4-1-1.55-3.45-4.217-5.45-8-6-3.796-3.59-8.129-6.26-13-8a13.892 13.892 0 0 0-3-4c-5.554-2.56-10.221-6.22-14-11-5.161-2.15-9.494-5.48-13-10-1.333-.33-2.667-.67-4-1a159.357 159.357 0 0 0-26-21.5c-.929-1.19-1.262-2.52-1-4h-4c-.46-3.46-2.46-5.12-6-5a4.939 4.939 0 0 0-.5-3 769.852 769.852 0 0 1-39-37 4.939 4.939 0 0 1-.5-3 4.949 4.949 0 0 1-3-.5 163.253 163.253 0 0 0-20.5-22.5 4.939 4.939 0 0 1-.5-3h-3a4.939 4.939 0 0 0-.5-3 163.94 163.94 0 0 0-10.5-11 177.401 177.401 0 0 0-19.5-24c-3.314-5.96-7.314-11.3-12-16a47.365 47.365 0 0 0-7.5-11.5c-.924-1.15-.924-2.15 0-3-1.829-.27-3.329-1.11-4.5-2.5-1.667-3.33-3.333-6.67-5-10a217.386 217.386 0 0 1-7.5-9c-.952-1.55-1.285-3.21-1-5-1.322.17-2.489-.16-3.5-1-5.052-10.43-11.052-20.43-18-30 .063-3.94-1.603-6.94-5-9-4.949-9.64-9.949-19.3-15-29a11.38 11.38 0 0 1-2.5-2 118.812 118.812 0 0 1-4.5-12c-3.667-6.67-7.333-13.33-11-20 .121-3.42-1.212-6.09-4-8a84.967 84.967 0 0 0-4-14l-3-3c-3.225-10.1-7.225-19.77-12-29-8.49-22.34-16.49-45.01-24-68-7.19-26.32-14.19-52.98-21-80a927.599 927.599 0 0 0-9.5-48.5 27.314 27.314 0 0 0 1-3.5 685.99 685.99 0 0 1-4.5-23c-2.96-24.49-5.46-48.824-7.5-73 .166-8.34 0-16.673-.5-25-.87-.608-1.37-1.441-1.5-2.5.664-118.64 1.33-237.14 2-355.5z"/><path style="opacity:.983" fill="#04080f" d="M286.5 10.5a6130780.653 6130780.653 0 0 0 1150 1141c-.81 1.15-1.81 1.15-3 0-.86 1.27-1.53 2.6-2 4a1017807.824 1017807.824 0 0 1-1152-1143c2.179-.34 4.012-1.34 5.5-3 .383.556.883.89 1.5 1z"/><path style="opacity:.992" fill="#020134" d="M1118.5 516.5c-.16 2.027 0 4.027.5 6 10.5 13.499 24.33 19.832 41.5 19-17.44 2.206-31.61-3.794-42.5-18-.8-2.539-.63-4.872.5-7z"/><path style="opacity:.984" fill="#010265" d="M745.5 566.5c4.146-1.147 8.48-1.314 13-.5 8.834 2.673 16.334 7.506 22.5 14.5a329.2 329.2 0 0 1 27 47c2.697 4.021 5.364 8.021 8 12a169.322 169.322 0 0 0 19 17c2.159 2.581 2.659 5.247 1.5 8-.255-2.516-1.089-4.85-2.5-7a169.322 169.322 0 0 1-19-17 833.232 833.232 0 0 1-27-48 129.193 129.193 0 0 0-15.5-18.5c-8.329-5.164-17.329-7.664-27-7.5z"/><path style="opacity:1" fill="#010165" d="M557.5 557.5a1150.87 1150.87 0 0 1 83-.5c12.08 4.079 21.913 11.246 29.5 21.5a215.783 215.783 0 0 0 10 17 1381.864 1381.864 0 0 1 14 49 313.694 313.694 0 0 0 30 55c2.4 3.902 5.566 6.902 9.5 9-.751 1.073-1.751 1.24-3 .5l-4.5-4.5c-13.323-18.308-24.323-37.975-33-59a1381.864 1381.864 0 0 0-14-49c-6.263-13.592-15.43-24.759-27.5-33.5a47.356 47.356 0 0 0-12-5 3360.51 3360.51 0 0 0-82-.5z"/><path style="opacity:1" fill="#000266" d="M740.5 669.5c-.574 9.573 2.426 17.739 9 24.5a39.484 39.484 0 0 1 13 3c2.107 1.264 3.107 3.097 3 5.5-4.327-5.071-9.994-7.571-17-7.5-7.095-7.237-9.761-15.737-8-25.5z"/><path style="opacity:1" fill="#020164" d="M771.5 701.5c9.896-2.481 15.563 1.519 17 12-.02 1.226-.353 2.226-1 3 .222-4.342-1.111-8.009-4-11-.843-1.673-2.176-2.84-4-3.5a32.462 32.462 0 0 0-8-.5z"/><path style="opacity:.998" fill="#010166" d="M863.5 710.5c2.905-1.201 5.905-1.034 9 .5 8.225 6.211 13.058 14.377 14.5 24.5.808 3.527.641 6.86-.5 10 1.117-13.931-3.883-25.097-15-33.5a18.991 18.991 0 0 0-8-1.5z"/><path style="opacity:1" fill="#010166" d="M615.5 701.5c10.602-1.487 21.268-.987 32 1.5 21.579 7.289 41.579 17.455 60 30.5-5.729-2.37-11.063-5.537-16-9.5a768.723 768.723 0 0 0-45-20 124.555 124.555 0 0 0-31-2.5z"/><path style="opacity:1" fill="#fdce01" d="M750.5 700.5c4.945-1.189 8.278.477 10 5a81.136 81.136 0 0 1-6.5 10 715.237 715.237 0 0 1-42.5 42.5c-3.364 3.64-7.031 4.14-11 1.5-2.461-3.142-2.628-6.475-.5-10a3559.873 3559.873 0 0 0 50.5-49z"/><path style="opacity:.997" fill="#040403" d="M557.5 557.5c27.335-.167 54.669 0 82 .5a47.356 47.356 0 0 1 12 5c12.07 8.741 21.237 19.908 27.5 33.5a1381.864 1381.864 0 0 1 14 49c8.677 21.025 19.677 40.692 33 59l4.5 4.5c1.249.74 2.249.573 3-.5 1.877-1.159 2.377-2.826 1.5-5-14.692-17.715-26.025-37.381-34-59-2.988-14.788-2.322-29.455 2-44 9.878-16.713 24.044-28.046 42.5-34 9.671-.164 18.671 2.336 27 7.5a129.193 129.193 0 0 1 15.5 18.5 833.232 833.232 0 0 0 27 48 169.322 169.322 0 0 0 19 17c1.411 2.15 2.245 4.484 2.5 7-10.78 14.712-25.114 19.879-43 15.5a17138.085 17138.085 0 0 1-33-21c-9.739-1.967-16.406 1.533-20 10.5-1.761 9.763.905 18.263 8 25.5 7.006-.071 12.673 2.429 17 7.5 2.235.295 4.235-.039 6-1a32.462 32.462 0 0 1 8 .5c1.824.66 3.157 1.827 4 3.5-3.282-.616-6.616-.616-10 0-3.99 1.334-7.324 3.667-10 7-2.486-.962-2.486-1.795 0-2.5-1.638-2.133-2.471-4.633-2.5-7.5-3.107-3.073-6.607-3.739-10.5-2a3559.873 3559.873 0 0 1-50.5 49c-2.128 3.525-1.961 6.858.5 10v5c-4.422-1.987-6.755-5.487-7-10.5 2.058-4.398 1.058-7.731-3-10a75.963 75.963 0 0 1-11-4c-8.006-1.443-14.339 1.057-19 7.5-1.141 3.14-1.308 6.473-.5 10a110901.88 110901.88 0 0 0 17 32c3.748 7.543 5.581 15.543 5.5 24-2.291 6.665-5.458 12.998-9.5 19-3.088 2.597-6.588 3.431-10.5 2.5a196.871 196.871 0 0 0-25-21 1406.582 1406.582 0 0 1-45-22 190.792 190.792 0 0 0-15-11c-11.637-17.686-11.804-35.519-.5-53.5 9.7-13.579 22.533-22.246 38.5-26a124.555 124.555 0 0 1 31 2.5 768.723 768.723 0 0 1 45 20c4.937 3.963 10.271 7.13 16 9.5 3.85-.201 4.85-2.034 3-5.5-20.295-14.148-42.295-25.148-66-33a1217.754 1217.754 0 0 1-57-17 207.178 207.178 0 0 0-17-9c-7.954-7.402-13.788-16.236-17.5-26.5-.667-27-.667-54 0-81 1.397-1.57 2.897-2.904 4.5-4z"/><path style="opacity:1" fill="#293500" d="M617.5 705.5c13.338-1.594 26.338.239 39 5.5 16.714 6.522 32.381 14.855 47 25 1.291 1.292 1.291 2.458 0 3.5.086-.996-.248-1.829-1-2.5-19.407-13.252-40.407-23.252-63-30a183.182 183.182 0 0 0-22-1.5z"/><path style="opacity:1" fill="#fecc00" d="M617.5 705.5c7.36.058 14.694.558 22 1.5 22.593 6.748 43.593 16.748 63 30 .752.671 1.086 1.504 1 2.5a44.053 44.053 0 0 0-5.5 3 649.508 649.508 0 0 1-16.5-6.5c-10.863-2.883-19.197.283-25 9.5-1.148 4.481-1.315 9.148-.5 14a274.008 274.008 0 0 0 14 25l7 17c.499 4.989.666 9.989.5 15-2.337 2.465-3.837 5.465-4.5 9a21.754 21.754 0 0 1-7.5 6 265.717 265.717 0 0 0-26-21.5 1410.173 1410.173 0 0 1-45-22 64.783 64.783 0 0 0-11-8c-7.453-7.177-11.12-16.011-11-26.5 4.694-25.693 19.694-41.693 45-48z"/><path style="opacity:1" fill="#273500" d="M736.5 666.5c-1.177 11.639 1.823 21.973 9 31-.124.607-.457.94-1 1-7.703-9.478-10.37-20.145-8-32z"/><path style="opacity:.961" fill="#2a3500" d="M747.5 570.5c1.293-.658 2.793-.992 4.5-1 9.633 1.668 17.967 6.001 25 13a329.2 329.2 0 0 1 27 47 94.093 94.093 0 0 1 9 14 192.182 192.182 0 0 0 18 15c1.542 2.065 1.709 4.065.5 6 .009-1.808-.491-3.475-1.5-5a192.182 192.182 0 0 1-18-15 902.542 902.542 0 0 1-28-50 159.041 159.041 0 0 0-13.5-16.5c-7.081-4.516-14.748-7.016-23-7.5z"/><path style="opacity:1" fill="#2b3500" d="M558.5 561.5a1069.168 1069.168 0 0 1 80-.5c11.194 3.677 20.361 10.177 27.5 19.5a215.783 215.783 0 0 0 10 17 1079.393 1079.393 0 0 0 19 62 265.32 265.32 0 0 0 33 52c.765 1.566.598 2.899-.5 4a4.934 4.934 0 0 0-.5-3 265.32 265.32 0 0 1-33-52 1079.393 1079.393 0 0 1-19-62c-5.589-12.916-14.089-23.416-25.5-31.5a47.356 47.356 0 0 0-12-5c-26.331-.5-52.665-.667-79-.5z"/><path style="opacity:1" fill="#fcdd08" d="M747.5 570.5c8.252.484 15.919 2.984 23 7.5a159.041 159.041 0 0 1 13.5 16.5 902.542 902.542 0 0 0 28 50 192.182 192.182 0 0 0 18 15c1.009 1.525 1.509 3.192 1.5 5-12.568 14.319-27.235 16.819-44 7.5a166.77 166.77 0 0 0-25-17c-11.774-2.81-20.441 1.024-26 11.5-2.37 11.855.297 22.522 8 32-2.271 4.101-4.771 4.435-7.5 1-12.645-16.286-22.978-33.952-31-53-4.003-14.698-3.669-29.365 1-44 9.305-16.156 22.805-26.822 40.5-32z"/><path style="opacity:1" fill="#fecc00" d="M558.5 561.5c26.335-.167 52.669 0 79 .5a47.356 47.356 0 0 1 12 5c11.411 8.084 19.911 18.584 25.5 31.5a1079.393 1079.393 0 0 0 19 62 265.32 265.32 0 0 0 33 52c.483.948.649 1.948.5 3a60.212 60.212 0 0 1-12.5 10c-21.03-14.766-43.864-26.266-68.5-34.5a2700.208 2700.208 0 0 1-49-14c-13.053-4.274-24.22-11.44-33.5-21.5a108.34 108.34 0 0 1-7-15 1481.76 1481.76 0 0 1 0-77c.717-.544 1.217-1.211 1.5-2z"/><path style="opacity:1" fill="#2c3500" d="M656.5 745.5a84.902 84.902 0 0 0 .5 13 274.008 274.008 0 0 0 14 25l7 17c.817 5.516.651 10.85-.5 16a112.97 112.97 0 0 0-.5-15l-7-17a274.008 274.008 0 0 1-14-25c-.815-4.852-.648-9.519.5-14z"/><path style="opacity:1" fill="#010165" d="M780.5 755.5c1.206 2.798 3.206 4.965 6 6.5a158.523 158.523 0 0 1 32 19 121.493 121.493 0 0 0 23 11 54.73 54.73 0 0 1 12.5 9.5c5.795 15.72 7.962 31.72 6.5 48 .343-16.097-2.157-31.764-7.5-47-7.159-6.498-15.326-11.331-24.5-14.5a187.965 187.965 0 0 1-27-17 99.187 99.187 0 0 1-21.5-12.5c-.74-1.249-.573-2.249.5-3z"/><path style="opacity:.996" fill="#080803" d="M750.5 700.5c3.893-1.739 7.393-1.073 10.5 2 .029 2.867.862 5.367 2.5 7.5-2.486.705-2.486 1.538 0 2.5a545.267 545.267 0 0 1-58.5 58c-1.559 6.215.607 10.548 6.5 13a189.663 189.663 0 0 0 10-4.5 2628.43 2628.43 0 0 1 60.5-61.5c1.907-7.154-.926-11.154-8.5-12 3.384-.616 6.718-.616 10 0 2.889 2.991 4.222 6.658 4 11-1.88 2.255-2.88 4.922-3 8 7.191 2.255 10.191 7.255 9 15 .975 1.693 2.308 3.193 4 4.5 13.73 7.155 28.063 9.322 43 6.5 8.773-1.933 14.606-7.266 17.5-16a222.398 222.398 0 0 0 5.5-24 18.991 18.991 0 0 1 8 1.5c11.117 8.403 16.117 19.569 15 33.5-8.646 32.217-28.979 42.383-61 30.5a521.573 521.573 0 0 1-33-15c-3.444-3.904-7.444-5.737-12-5.5-1.073.751-1.24 1.751-.5 3a99.187 99.187 0 0 0 21.5 12.5 187.965 187.965 0 0 0 27 17c9.174 3.169 17.341 8.002 24.5 14.5 5.343 15.236 7.843 30.903 7.5 47-1.354 2.196-3.354 3.696-6 4.5a400.05 400.05 0 0 1-40 0 20.51 20.51 0 0 1-8-3 102.355 102.355 0 0 1-10.5-13.5 869.577 869.577 0 0 0-35-59c-1.616-1.301-3.116-1.301-4.5 0-1.113 1.446-1.28 3.113-.5 5a540.488 540.488 0 0 1 21 34 124.177 124.177 0 0 0 5 17 119.947 119.947 0 0 1 1.5 17c-1.83 8.92-5.33 17.254-10.5 25-16.052 14.35-33.218 15.684-51.5 4a54.71 54.71 0 0 1-10.5-11c-.743-1.941-.576-3.774.5-5.5a124.793 124.793 0 0 0 28-6c17.639-12.115 22.472-28.282 14.5-48.5a141.407 141.407 0 0 0-11.5-16.5c-3.298-.542-6.465-.042-9.5 1.5-5.204-1.869-9.204-5.202-12-10-11.7 5.733-18.867 2.233-21.5-10.5 1.438-3.181 1.772-6.348 1-9.5v-5c3.969 2.64 7.636 2.14 11-1.5a715.237 715.237 0 0 0 42.5-42.5 81.136 81.136 0 0 0 6.5-10c-1.722-4.523-5.055-6.189-10-5z"/><path style="opacity:1" fill="#fecc00" d="M775.5 761.5a141.306 141.306 0 0 0 24 13.5c11.929 9.134 24.929 16.467 39 22a183.542 183.542 0 0 1 10.5 7.5 181.787 181.787 0 0 1 7.5 43 16.58 16.58 0 0 1-4 2.5 256.122 256.122 0 0 1-32 0 45.984 45.984 0 0 1-10-2l-6.5-6.5a3466.435 3466.435 0 0 0-40.5-68 76.938 76.938 0 0 1 12-12z"/><path style="opacity:1" fill="#283600" d="M789.5 745.5c1.446-1.113 3.113-1.28 5-.5 14.752 8.85 30.752 12.017 48 9.5-8.49 1.157-17.157 1.324-26 .5-9.356-2.506-18.356-5.672-27-9.5z"/><path style="opacity:1" fill="#010164" d="M793.5 739.5c14.213 9.38 29.88 13.046 47 11-14.937 2.822-29.27.655-43-6.5-1.692-1.307-3.025-2.807-4-4.5z"/><path style="opacity:1" fill="#fcde08" d="M778.5 728.5c8.052-.792 11.219 2.541 9.5 10a67.746 67.746 0 0 0-10 12 1078.064 1078.064 0 0 1-39.5 38.5c-10.779 1.246-13.279-2.588-7.5-11.5a3298.804 3298.804 0 0 1 47.5-49z"/><path style="opacity:1" fill="#283500" d="M866.5 715.5c.751-1.073 1.751-1.24 3-.5 10.252 6.992 14.586 16.492 13 28.5.298-12.757-5.035-22.09-16-28z"/><path style="opacity:1" fill="#fecd01" d="M866.5 715.5c10.965 5.91 16.298 15.243 16 28-7.618 30.196-26.285 39.696-56 28.5-5.291-4.163-11.291-6.83-18-8a71.71 71.71 0 0 1-20.5-12.5c-.409-2.195.091-4.195 1.5-6 8.644 3.828 17.644 6.994 27 9.5 8.843.824 17.51.657 26-.5 9.448-2.608 15.948-8.608 19.5-18a103.07 103.07 0 0 0 4.5-21z"/><path style="opacity:1" fill="#fecf01" d="M773.5 705.5c7.574.846 10.407 4.846 8.5 12a2628.43 2628.43 0 0 0-60.5 61.5 189.663 189.663 0 0 1-10 4.5c-5.893-2.452-8.059-6.785-6.5-13a545.267 545.267 0 0 0 58.5-58c2.676-3.333 6.01-5.666 10-7z"/><path style="opacity:1" fill="#010165" d="M660.5 747.5a40.914 40.914 0 0 0 .5 9 288.687 288.687 0 0 0 14 25c4.766 9.129 7.6 18.796 8.5 29-.02 1.226-.353 2.226-1 3 .081-8.457-1.752-16.457-5.5-24a110901.88 110901.88 0 0 1-17-32c-.808-3.527-.641-6.86.5-10z"/><path style="opacity:.961" fill="#283500" d="M751.5 784.5c.577-1.273 1.243-1.273 2 0a1031.496 1031.496 0 0 1 20.5 34 144.387 144.387 0 0 1 6.5 28c-.043.916-.376 1.583-1 2a126.18 126.18 0 0 0-6.5-29 1261.825 1261.825 0 0 0-21.5-35z"/><path style="opacity:1" fill="#293500" d="M775.5 761.5c1.221-.965 2.554-.798 4 .5a109.436 109.436 0 0 0 21 12c11.929 9.134 24.929 16.467 39 22a183.542 183.542 0 0 1 10.5 7.5c4.698 14.498 6.865 29.165 6.5 44a181.787 181.787 0 0 0-7.5-43 183.542 183.542 0 0 0-10.5-7.5c-14.071-5.533-27.071-12.866-39-22a141.306 141.306 0 0 1-24-13.5z"/><path style="opacity:1" fill="#010165" d="M756.5 778.5a8.43 8.43 0 0 0 .5 4 540.488 540.488 0 0 1 21 34 114.27 114.27 0 0 1 6.5 30c-.007 1.869-.34 3.536-1 5a119.947 119.947 0 0 0-1.5-17 124.177 124.177 0 0 1-5-17 540.488 540.488 0 0 0-21-34c-.78-1.887-.613-3.554.5-5z"/><path style="opacity:1" fill="#fece01" d="M751.5 784.5a1261.825 1261.825 0 0 1 21.5 35 126.18 126.18 0 0 1 6.5 29c-1.67 9.285-5.17 17.952-10.5 26-14.152 12.163-28.986 12.997-44.5 2.5-3.526-2.026-6.193-4.859-8-8.5a3.647 3.647 0 0 1 1-1.5c31.69-1.677 46.19-18.177 43.5-49.5-2.86-10.221-7.694-19.388-14.5-27.5 1.242-2.272 2.908-4.106 5-5.5z"/><path style="opacity:.373" fill="#e1ffd6" d="M1499.5 897.5c1.33.667 1.33.667 0 0z"/><path style="opacity:.373" fill="#e1ffd8" d="M1499.5 902.5c1.33.667 1.33.667 0 0z"/><path style="opacity:.118" fill="#f2fff5" d="M18.5 1026.5c1.333.67 1.333.67 0 0z"/><path style="opacity:.239" fill="#f2ffcc" d="M21.5 1038.5c1.333.67 1.333.67 0 0z"/><path style="opacity:.963" fill="#04090f" d="M12.5 502.5a823123.28 823123.28 0 0 1 1080 1080c-1 1.18-1.84 2.52-2.5 4-1.07-2.61-1.9-2.61-2.5 0a663879.914 663879.914 0 0 1-683.5-683 18026.67 18026.67 0 0 0-111.5-113 55847.935 55847.935 0 0 1-281-281 21.445 21.445 0 0 1 1-7z"/><path style="opacity:.118" fill="#f2fff5" d="M31.5 1094.5c1.333.67 1.333.67 0 0z"/><path style="opacity:.994" fill="#04090f" d="M17.5 282.5a387148.985 387148.985 0 0 1 504.5 504c.483.948.649 1.948.5 3a95.578 95.578 0 0 1 10 7.5c151.473 151.473 302.973 302.97 454.5 454.5a909.436 909.436 0 0 0 49 49c58.5 59.84 117.84 119.17 178 178 2.33 3.17 4.83 6.17 7.5 9-1.32 1.45-2.16 1.12-2.5-1-.68 1.28-.52 2.45.5 3.5-.95.48-1.95.65-3 .5A2052865.602 2052865.602 0 0 1 11 285.5a8.435 8.435 0 0 0-.5 4 36.278 36.278 0 0 1-2-4.5c1.5-.833 2.667-2 3.5-3.5l1 3a36.287 36.287 0 0 0 4.5-2z"/><path style="opacity:.235" fill="#f7fff5" d="M144.5 1345.5c1.333.67 1.333.67 0 0z"/><path style="opacity:.118" fill="#f2fff5" d="M1334.5 1376.5c1.33.67 1.33.67 0 0z"/><path style="opacity:.114" fill="#f3ffd1" d="M1307.5 1414.5c1.33.67 1.33.67 0 0z"/><path style="opacity:.992" fill="#050c0c" d="M1498.5 888.5c-5.49 84.621-20.99 167.29-46.5 248-8.79 26.23-18.46 52.23-29 78-1.49 4.84-3.99 9.17-7.5 13 .21.59.54 1.09 1 1.5-1.33 2.33-2.67 4.67-4 7 .46.41.79.91 1 1.5-1.33 1.67-2.67 3.33-4 5-2.69 7.11-5.52 14.11-8.5 21l-4 4c-1.33 4-2.67 8-4 12-3.93 4.77-6.93 10.1-9 16l-4 4v4a164.56 164.56 0 0 0-9 12v4c-6.14 6.43-10.8 13.76-14 22-3.22 1.29-4.39 3.45-3.5 6.5a20.148 20.148 0 0 1-4 3.5c-.95 1.55-1.29 3.21-1 5-3.55.16-4.89 1.83-4 5a25.482 25.482 0 0 0-4.5 4c-2.33 3.52-4.5 7.18-6.5 11-.82.89-1.82 1.22-3 1 .16 1.7-.01 3.37-.5 5-3.7 4.36-7.36 8.69-11 13-2.99 4.63-5.99 9.3-9 14-1.01.84-2.18 1.17-3.5 1 .16 1.37-.01 2.71-.5 4a20.61 20.61 0 0 0-4.5 2.5l1 1a39.034 39.034 0 0 1-8 9l1 1c-2.71.87-4.05 2.71-4 5.5h-3c.2 3.27-1.3 5.27-4.5 6-4.38 5.06-8.21 10.39-11.5 16-2.68 1.56-5.18 3.56-7.5 6 .62 1.59.28 2.93-1 4-.41-.46-.91-.79-1.5-1-1.36 2.19-3.19 3.86-5.5 5-.11 2.95-1.61 4.28-4.5 4 .21 3.25-1.29 5.25-4.5 6-5.68 7.04-12.01 13.38-19 19-.48.95-.65 1.95-.5 3-3.57-.59-5.57.91-6 4.5-5.64 4.29-10.97 8.79-16 13.5-.89.82-1.22 1.82-1 3h-4c.26 3.54-1.41 5.38-5 5.5-5.54 4.37-10.54 9.2-15 14.5a47.12 47.12 0 0 1-12 7.5l-9 9c-1.33.33-2.67.67-4 1-.76 1.51-1.76 2.85-3 4a50.517 50.517 0 0 1-10 6 14.001 14.001 0 0 0-3 4c-1.33.33-2.67.67-4 1a63.688 63.688 0 0 0-10 8c-3.44.11-5.78 1.78-7 5-1.33.33-2.67.67-4 1a63.688 63.688 0 0 0-10 8c-12.65 6.67-25.32 13.33-38 20l-3 3a318.34 318.34 0 0 0-25 12c-1.2.9-2.03 2.07-2.5 3.5-1.05-1.02-2.22-1.18-3.5-.5a457.03 457.03 0 0 1-38.5 17.5c-2.085-1.15-3.585-.48-4.5 2a2375.455 2375.455 0 0 1-54 18.5 1919.773 1919.773 0 0 1-73 17 3472.833 3472.833 0 0 0-55 7c-30.326 2.21-60.992 2.88-92 2a2282.177 2282.177 0 0 1-48.5-5.5c-2.094.04-4.094.37-6 1l-1.5-1.5c-7.478-1.71-15.144-2.71-23-3-7.918-2.97-16.251-4.63-25-5a365.793 365.793 0 0 0-30-7c-4.489-2.85-9.489-4.18-15-4a68.923 68.923 0 0 1-15.5-6.5c-2.048.92-3.881.42-5.5-1.5-13.321-3.18-25.988-7.85-38-14-6.215-1.08-12.215-3.41-18-7-15.489-5.7-30.155-12.86-44-21.5-.586.21-1.086.54-1.5 1-2.379-2.38-5.213-3.88-8.5-4.5l-2-3a229.11 229.11 0 0 1-23-11c-1.333-1.33-2.667-2.67-4-4-3.667-1.67-7.333-3.33-11-5-1.333-1.33-2.667-2.67-4-4-.949-.62-1.782-.45-2.5.5-6.195-4.87-12.361-9.7-18.5-14.5a96.206 96.206 0 0 1-11-5.5 1045.85 1045.85 0 0 0-30.5-25c-.741 1.14-1.575 1.14-2.5 0-5.845-6.53-12.512-11.86-20-16 .203-1.89-.463-3.39-2-4.5a20.73 20.73 0 0 1-6-2c1.141-.74 1.141-1.57 0-2.5-1.189-.93-2.522-1.26-4-1-.069-2.58-1.235-4.58-3.5-6-.333.33-.667.67-1 1-4.057-4.39-8.39-8.39-13-12a8.43 8.43 0 0 1-.5-4c-3.36.71-5.193-.62-5.5-4-2.333-.91-4.166-2.41-5.5-4.5-.949-.62-1.782-.45-2.5.5a20.153 20.153 0 0 1-1.5-6 4.949 4.949 0 0 1-3-.5c-2.707-2.51-4.707-5.34-6-8.5-1.478.26-2.811-.07-4-1a74.31 74.31 0 0 0-16-18 89.097 89.097 0 0 1-4-7c-1.322.17-2.489-.16-3.5-1a31.53 31.53 0 0 0-4-7 14.029 14.029 0 0 0-4-3 4.939 4.939 0 0 1-.5-3 4.949 4.949 0 0 1-3-.5 296.642 296.642 0 0 0-14-17.5c-.952-1.55-1.285-3.21-1-5-3.333 0-5-1.67-5-5-2.181.22-3.847-.62-5-2.5.333-.33.667-.67 1-1-3.359-3.34-5.859-7.18-7.5-11.5-1.333-.67-2.667-1.33-4-2a72.98 72.98 0 0 0-5.5-10c-.825-.89-1.825-1.22-3-1 .285-1.79-.048-3.45-1-5a5405.392 5405.392 0 0 0-20.5-28c.185-4.15-1.648-6.98-5.5-8.5.924-.85.924-1.85 0-3a76.387 76.387 0 0 0-8.5-11.5 47.18 47.18 0 0 1-5-12 150.633 150.633 0 0 0-8-11 140.01 140.01 0 0 1-10-20 17.853 17.853 0 0 1-4.5-5.5c.333-.33.667-.67 1-1-2.499-4.52-4.999-9.02-7.5-13.5.063-3.94-1.603-6.94-5-9l-4-12-3-3c-1.333-4.67-2.667-9.33-4-14a16.641 16.641 0 0 1-4-4c-3.174-10.45-7.174-20.45-12-30a329.567 329.567 0 0 0-15-40 157.694 157.694 0 0 0-11.5-34.5c.522-.56.855-1.23 1-2a944.286 944.286 0 0 1-10-30.5c.431-.79.764-1.63 1-2.5a683.323 683.323 0 0 1-10.5-39.5 1277.194 1277.194 0 0 0-7-35 1412.335 1412.335 0 0 1-9-64c-1.115-2.252-1.281-4.752-.5-7.5a664.437 664.437 0 0 0-4-24c1.398-8.246 1.065-16.412-1-24.5 1.55.236 3.05.236 4.5 0 .507 1.496.007 2.663-1.5 3.5l1.5 1.5c1.478.29 2.978.29 4.5 0 2.04 24.176 4.54 48.51 7.5 73a685.99 685.99 0 0 0 4.5 23 27.314 27.314 0 0 1-1 3.5 927.599 927.599 0 0 1 9.5 48.5c6.81 27.02 13.81 53.68 21 80 7.51 22.99 15.51 45.66 24 68 4.775 9.23 8.775 18.9 12 29l3 3a84.967 84.967 0 0 1 4 14c2.788 1.91 4.121 4.58 4 8 3.667 6.67 7.333 13.33 11 20 1.295 4.11 2.795 8.11 4.5 12a11.38 11.38 0 0 0 2.5 2c5.051 9.7 10.051 19.36 15 29 3.397 2.06 5.063 5.06 5 9 6.948 9.57 12.948 19.57 18 30 1.011.84 2.178 1.17 3.5 1-.285 1.79.048 3.45 1 5 2.413 3.06 4.913 6.06 7.5 9 1.667 3.33 3.333 6.67 5 10 1.171 1.39 2.671 2.23 4.5 2.5-.924.85-.924 1.85 0 3a47.365 47.365 0 0 1 7.5 11.5c4.686 4.7 8.686 10.04 12 16a177.401 177.401 0 0 1 19.5 24 163.94 163.94 0 0 1 10.5 11c.483.95.649 1.95.5 3h3a4.939 4.939 0 0 0 .5 3 163.253 163.253 0 0 1 20.5 22.5c.948.48 1.948.65 3 .5a4.939 4.939 0 0 0 .5 3 769.852 769.852 0 0 0 39 37c.483.95.649 1.95.5 3 3.54-.12 5.54 1.54 6 5h4c-.262 1.48.071 2.81 1 4a159.357 159.357 0 0 1 26 21.5c1.333.33 2.667.67 4 1 3.506 4.52 7.839 7.85 13 10 3.779 4.78 8.446 8.44 14 11a13.892 13.892 0 0 1 3 4c4.871 1.74 9.204 4.41 13 8 3.783.55 6.45 2.55 8 6 1.333.33 2.667.67 4 1 6.108 5.47 13.108 9.64 21 12.5a26.152 26.152 0 0 0 8 6.5c7.414 2.5 14.081 6.16 20 11a75.845 75.845 0 0 1 11 4 3067.09 3067.09 0 0 1 16 10 2723.942 2723.942 0 0 1 45 18c6.785 3.82 14.118 6.49 22 8 5.86 2.42 11.694 4.92 17.5 7.5.873-.24 1.707-.57 2.5-1a97.733 97.733 0 0 0 12 5.5c6.431.54 12.431 2.2 18 5a2838.54 2838.54 0 0 1 56 12c17.789 2.23 35.456 4.57 53 7 76.605 6.08 151.939-.42 226-19.5 45.367-12.35 88.7-29.01 130-50 1.17-2.78 3.01-3.45 5.5-2 .37-.92.87-1.75 1.5-2.5a678.855 678.855 0 0 1 31-16c1.85-2.02 3.85-3.85 6-5.5-1.51-1.9-3.17-3.57-5-5 .6-2.61 1.43-2.61 2.5 0 .66-1.48 1.5-2.82 2.5-4 2.13 1.63 4.13 3.46 6 5.5 2.98.38 4.98-.95 6-4 8.01-2.67 15.01-7 21-13 3.11-2.12 6.45-3.78 10-5a215.4 215.4 0 0 1 20-15c3.21-3.38 6.54-6.54 10-9.5 7.4-3.91 13.74-9.08 19-15.5 1.33-.33 2.67-.67 4-1 .79-3.79 3.12-5.79 7-6 .33-3 2-4.67 5-5 .81-3.08 2.81-4.74 6-5 3.09-4.42 6.92-8.25 11.5-11.5.83-2.67.33-5-1.5-7 1.05.15 2.05-.02 3-.5-1.02-1.05-1.18-2.22-.5-3.5.34 2.12 1.18 2.45 2.5 1 1.08 1.47 2.42 2.31 4 2.5l-1-1c3.08-1.41 5.92-3.24 8.5-5.5.48-.95.65-1.95.5-3 1.05.15 2.05-.02 3-.5 3.17-3.83 6.67-7.33 10.5-10.5a69.4 69.4 0 0 0 5.5-8c1.88-2.23 4.21-3.57 7-4-.74-3.45.59-5.12 4-5v-4h3v-3c3.41.12 4.74-1.55 4-5h3c-.15-1.05.02-2.05.5-3 2.69-2.36 5.36-4.7 8-7 .49-1.29.66-2.63.5-4h3c-.15-1.05.02-2.05.5-3 4.65-3.32 7.98-7.66 10-13 2.76-1.1 4.43-3.1 5-6 3.93-3.94 7.59-8.28 11-13 .48-.95.65-1.95.5-3 1.32.17 2.49-.16 3.5-1 1.33-3 2.66-6 4-9 1.15-1.24 2.49-2.24 4-3 .33-1.33.67-2.67 1-4 3.71-3.74 6.71-8.07 9-13 1.01-.84 2.18-1.17 3.5-1-.16-1.7.01-3.37.5-5 2.66-1.56 3.83-3.89 3.5-7 1.48.26 2.81-.07 4-1 1.21-4.67 3.04-9.01 5.5-13 7.27-8.92 13.27-18.59 18-29 3.4-2.06 5.06-5.06 5-9a398.27 398.27 0 0 0 12-19c2.32-6.79 4.98-13.46 8-20 1.09-1.85 2.43-3.52 4-5a83.451 83.451 0 0 1 9-20c.92-2.6 1.59-5.27 2-8 1.71-1.38 3.05-3.04 4-5a617.832 617.832 0 0 1 19-49c.83-2.67 1.67-5.34 2.5-8-1.02-1.35-2.02-2.69-3-4 .47-1.4 1.14-2.73 2-4 1.19 1.15 2.19 1.15 3 0 1 .03 1.66-.47 2-1.5 4.02-11.81 7.86-23.64 11.5-35.5.94-3.61 1.61-7.28 2-11l2-2a4172.9 4172.9 0 0 0 14-59c1.04-2.87 2.21-5.71 3.5-8.5-.49-1.46-.83-2.96-1-4.5 2.79-13.04 5.46-26.21 8-39.5.9-3.583.9-7.083 0-10.5-.25-2.29.41-4.623 2-7 1-5.314 2.17-10.647 3.5-16 .34-8.844 1.34-17.511 3-26 1.12-20.796 2.29-41.462 3.5-62 1.32.17 2.49-.163 3.5-1a7.239 7.239 0 0 0 2.5 2c.67 6.488 1.33 12.821 2 19z"/><path style="opacity:.914" fill="#ecfcea" d="M1187.5 1422.5c1.42.21 2.76.71 4 1.5-2.2 2.07-3.54 1.57-4-1.5z"/><path style="opacity:.949" fill="#181cfe" d="M323.5 1382.5h4v6c-2.687.16-5.354 0-8-.5 1.939-1.43 3.272-3.27 4-5.5z"/><path style="opacity:.996" fill="#050603" d="M484.5 1217.5c2 .67 4 1.33 6 2-.992-.17-1.658.16-2 1-1.073.75-1.24 1.75-.5 3a99.268 99.268 0 0 0 21.5 12.5 160.37 160.37 0 0 0 39 22 54.816 54.816 0 0 1 12.5 9.5c5.343 15.24 7.843 30.9 7.5 47-1.354 2.2-3.354 3.7-6 4.5-13.333.67-26.667.67-40 0a20.573 20.573 0 0 1-8-3 101.832 101.832 0 0 1-10.5-13.5 869.577 869.577 0 0 0-35-59c-1.616-1.3-3.116-1.3-4.5 0-1.113 1.45-1.28 3.11-.5 5a540.2 540.2 0 0 1 21 34 124.053 124.053 0 0 0 5 17c.904 5.64 1.404 11.3 1.5 17-1.83 8.92-5.33 17.25-10.5 25-15.626 14.13-32.459 15.63-50.5 4.5-4.5-3.17-8.333-7-11.5-11.5-.743-1.94-.576-3.77.5-5.5 9.579-.93 18.913-2.93 28-6 17.639-12.12 22.472-28.28 14.5-48.5a140.735 140.735 0 0 0-11.5-16.5c-3.298-.54-6.465-.04-9.5 1.5-5.204-1.87-9.204-5.2-12-10-11.7 5.73-18.867 2.23-21.5-10.5.749-2.5 1.416-5 2-7.5a8.394 8.394 0 0 1 4 .5c-.837 1.01-1.17 2.18-1 3.5.587 12.96 6.254 15.79 17 8.5 4.276-4.45 8.609-8.61 13-12.5.722.42 1.222 1.08 1.5 2 .333-.33.667-.67 1-1 .483.95.649 1.95.5 3-4.264 3.77-7.597 8.27-10 13.5.143 2.15 1.143 3.82 3 5 2.667.67 5.333.67 8 0a1995.055 1995.055 0 0 0 38-36.5z"/><path style="opacity:.993" fill="#020165" d="M464.5 1243.5a8.43 8.43 0 0 0 .5 4 540.2 540.2 0 0 1 21 34 114.304 114.304 0 0 1 6.5 30c-.007 1.87-.34 3.54-1 5-.096-5.7-.596-11.36-1.5-17a124.053 124.053 0 0 1-5-17 540.2 540.2 0 0 0-21-34c-.78-1.89-.613-3.55.5-5z"/><path style="opacity:.98" fill="#2b3500" d="M459.5 1249.5c.577-1.27 1.243-1.27 2 0a1033.591 1033.591 0 0 1 20.5 34 144.404 144.404 0 0 1 6.5 28c-.043.92-.376 1.58-1 2a126.203 126.203 0 0 0-6.5-29 1266.286 1266.286 0 0 0-21.5-35z"/><path style="opacity:1" fill="#2a3500" d="M483.5 1226.5c1.221-.96 2.554-.8 4 .5a109.12 109.12 0 0 0 21 12 160.37 160.37 0 0 0 39 22c3.588 2.38 7.088 4.88 10.5 7.5 4.698 14.5 6.865 29.16 6.5 44a181.725 181.725 0 0 0-7.5-43 186.552 186.552 0 0 0-10.5-7.5 160.37 160.37 0 0 1-39-22 140.76 140.76 0 0 1-24-13.5z"/><path style="opacity:1" fill="#fcdd08" d="M459.5 1249.5a1266.286 1266.286 0 0 1 21.5 35c3.315 9.44 5.481 19.1 6.5 29-1.67 9.29-5.17 17.95-10.5 26-14.152 12.16-28.986 13-44.5 2.5-3.526-2.03-6.193-4.86-8-8.5.209-.59.543-1.09 1-1.5 31.69-1.68 46.19-18.18 43.5-49.5-2.86-10.22-7.694-19.39-14.5-27.5 1.242-2.27 2.908-4.11 5-5.5z"/><path style="opacity:1" fill="#010165" d="M488.5 1220.5c1.206 2.8 3.206 4.96 6 6.5a158.384 158.384 0 0 1 32 19 121.128 121.128 0 0 0 23 11 54.816 54.816 0 0 1 12.5 9.5c5.795 15.72 7.962 31.72 6.5 48 .343-16.1-2.157-31.76-7.5-47a54.816 54.816 0 0 0-12.5-9.5 160.37 160.37 0 0 1-39-22 99.268 99.268 0 0 1-21.5-12.5c-.74-1.25-.573-2.25.5-3z"/><path style="opacity:.999" fill="#010203" d="M1187.5 1166.5c1.21 2.8 3.21 4.96 6 6.5a158.247 158.247 0 0 1 32 19c7.27 4.47 14.94 8.14 23 11 4.62 2.56 8.78 5.73 12.5 9.5 5.34 15.24 7.84 30.9 7.5 47-1.35 2.2-3.35 3.7-6 4.5-13.33.67-26.67.67-40 0-2.88-.44-5.54-1.44-8-3-3.88-4.21-7.38-8.71-10.5-13.5a839.629 839.629 0 0 0-34.5-58 6.603 6.603 0 0 0 3-3 651.633 651.633 0 0 1 35.5 59c2.75 4.75 6.25 8.92 10.5 12.5 8.54 1.96 17.2 2.79 26 2.5 5.33-.17 10.67-.33 16-.5 1.48-.66 2.82-1.5 4-2.5.36-14.84-1.8-29.5-6.5-44-6.52-5.84-14.02-10-22.5-12.5a187.525 187.525 0 0 1-27-17c-8.32-3.49-15.99-7.99-23-13.5.16-1.65.83-2.99 2-4z"/><path style="opacity:1" fill="#000264" d="M368.5 1212.5a40.9 40.9 0 0 0 .5 9 288.835 288.835 0 0 0 14 25c4.766 9.13 7.6 18.8 8.5 29-.02 1.23-.353 2.23-1 3 .081-8.46-1.752-16.46-5.5-24-5.652-10.64-11.319-21.3-17-32-.808-3.53-.641-6.86.5-10z"/><path style="opacity:1" fill="#010163" d="M1164.5 1188.5c-.16 1.37.01 2.71.5 4a538.343 538.343 0 0 1 21 34c3.52 9.72 5.68 19.72 6.5 30-.01 1.87-.34 3.54-1 5-.1-5.7-.6-11.36-1.5-17-2.07-5.55-3.74-11.21-5-17a538.343 538.343 0 0 0-21-34 8.394 8.394 0 0 1-.5-4c0-.67.33-1 1-1z"/><path style="opacity:.922" fill="#293500" d="M1183.5 1171.5c.34-.84 1.01-1.17 2-1 7.01 5.51 14.68 10.01 23 13.5 8.49 6.42 17.49 12.08 27 17 8.48 2.5 15.98 6.66 22.5 12.5 4.7 14.5 6.86 29.16 6.5 44-.77-14.64-3.27-28.97-7.5-43-3.41-2.62-6.91-5.12-10.5-7.5a160.408 160.408 0 0 1-39-22c-8.45-3.72-16.45-8.22-24-13.5z"/><path style="opacity:1" fill="#fbdd08" d="M483.5 1226.5a140.76 140.76 0 0 0 24 13.5 160.37 160.37 0 0 0 39 22c3.588 2.38 7.088 4.88 10.5 7.5a181.725 181.725 0 0 1 7.5 43c-1.183 1-2.516 1.84-4 2.5-10.667.67-21.333.67-32 0-3.414-.3-6.747-.96-10-2-2.167-2.17-4.333-4.33-6.5-6.5a3469.382 3469.382 0 0 0-40.5-68c3.56-4.45 7.56-8.45 12-12z"/><path style="opacity:.922" fill="#273601" d="M497.5 1210.5c1.419-.95 3.085-1.28 5-1 .843 1.67 2.176 2.84 4 3.5 14.058 5.97 28.725 8.14 44 6.5-8.49 1.16-17.157 1.32-26 .5-9.356-2.51-18.356-5.67-27-9.5z"/><path style="opacity:1" fill="#fdce02" d="M484.5 1217.5a1995.055 1995.055 0 0 1-38 36.5c-2.667.67-5.333.67-8 0-1.857-1.18-2.857-2.85-3-5 2.403-5.23 5.736-9.73 10-13.5a2397.57 2397.57 0 0 1 41-41.5c6.269-1.73 9.936.61 11 7a167.623 167.623 0 0 0-13 16.5z"/><path style="opacity:1" fill="#010166" d="M501.5 1204.5c14.213 9.38 29.88 13.05 47 11-15.371 2.86-30.037.53-44-7a12.097 12.097 0 0 1-3-4z"/><path style="opacity:.996" fill="#040403" d="M265.5 1022.5c27.335-.17 54.669 0 82 .5 12.08 4.08 21.913 11.25 29.5 21.5 3.081 5.83 6.415 11.5 10 17a1382.47 1382.47 0 0 1 14 49c8.677 21.03 19.677 40.69 33 59l4.5 4.5c1.249.74 2.249.57 3-.5 1.877-1.16 2.377-2.83 1.5-5-14.692-17.71-26.025-37.38-34-59-7.568-39.72 7.265-65.72 44.5-78 9.671-.16 18.671 2.34 27 7.5a128.919 128.919 0 0 1 15.5 18.5 831.889 831.889 0 0 0 27 48 169.224 169.224 0 0 0 19 17c1.411 2.15 2.245 4.48 2.5 7-10.78 14.71-25.114 19.88-43 15.5-10.979-6.97-21.979-13.97-33-21-9.739-1.97-16.406 1.53-20 10.5-1.761 9.76.905 18.26 8 25.5 5.281.04 9.947 1.54 14 4.5-1.25.08-2.083.74-2.5 2-3.038-2.19-6.204-2.53-9.5-1a3593.245 3593.245 0 0 1-50.5 49c-2.311 4.13-1.811 7.79 1.5 11 .162 1.09-.172 2.43-1 4-4.422-1.99-6.755-5.49-7-10.5 2.058-4.4 1.058-7.73-3-10a75.845 75.845 0 0 1-11-4c-8.006-1.44-14.339 1.06-19 7.5-1.141 3.14-1.308 6.47-.5 10 5.681 10.7 11.348 21.36 17 32 3.748 7.54 5.581 15.54 5.5 24-2.291 6.67-5.458 13-9.5 19-3.088 2.6-6.588 3.43-10.5 2.5a197.538 197.538 0 0 0-25-21 1408.71 1408.71 0 0 1-45-22 190.538 190.538 0 0 0-15-11c-11.637-17.69-11.804-35.52-.5-53.5 9.7-13.58 22.533-22.25 38.5-26 10.446-.46 20.779.37 31 2.5a770.73 770.73 0 0 1 45 20c4.937 3.96 10.271 7.13 16 9.5 3.85-.2 4.85-2.03 3-5.5-20.295-14.15-42.295-25.15-66-33a1223.807 1223.807 0 0 1-57-17 207.178 207.178 0 0 0-17-9c-7.954-7.4-13.788-16.24-17.5-26.5-.667-27-.667-54 0-81 1.397-1.57 2.897-2.9 4.5-4z"/><path style="opacity:1" fill="#2a3400" d="M364.5 1210.5c-.166 4.35.001 8.68.5 13a273.74 273.74 0 0 0 14 25c2.333 5.67 4.667 11.33 7 17l.5 8.5c-.019 3.25-.686 6.08-2 8.5 1.926-14.07-1.574-26.74-10.5-38a246.607 246.607 0 0 1-10-20c-.815-4.85-.648-9.52.5-14z"/><path style="opacity:.996" fill="#0f0f03" d="M458.5 1165.5c3.296-1.53 6.462-1.19 9.5 1 .417-1.26 1.25-1.92 2.5-2a10.26 10.26 0 0 1 3 3c2.235.29 4.235-.04 6-1 10.45-.55 15.783 4.45 16 15-1.88 2.26-2.88 4.92-3 8 7.191 2.26 10.191 7.26 9 15a12.097 12.097 0 0 0 3 4c-.667.33-1.333.67-2 1-1.915-.28-3.581.05-5 1-2.494 2.75-2.494 5.42 0 8-.998.09-2.165.42-3.5 1-.604-3.83-1.437-3.83-2.5 0h-1c-2-.67-4-1.33-6-2a167.623 167.623 0 0 1 13-16.5c-1.064-6.39-4.731-8.73-11-7a2397.57 2397.57 0 0 0-41 41.5 4.939 4.939 0 0 0-.5-3c-.333.33-.667.67-1 1-.278-.92-.778-1.58-1.5-2a1096.113 1096.113 0 0 1 47.5-49c1.84-5.98-.326-9.98-6.5-12-3.33.41-6.33 1.58-9 3.5a698.308 698.308 0 0 1-30 33 328.454 328.454 0 0 0-22 21 37.161 37.161 0 0 0-10 7.5c-.17-1.32.163-2.49 1-3.5a8.394 8.394 0 0 0-4-.5c-.333-.67-.667-1.33-1-2 .828-1.57 1.162-2.91 1-4 3.77 1.3 7.104.47 10-2.5a715.537 715.537 0 0 0 42.5-42.5c2.43-3.2 4.597-6.53 6.5-10-1.722-4.52-5.055-6.19-10-5z"/><path style="opacity:.998" fill="#060703" d="M571.5 1175.5a18.96 18.96 0 0 1 8 1.5c11.117 8.4 16.117 19.57 15 33.5-6.759 27.74-24.426 38.91-53 33.5a2095.726 2095.726 0 0 1-41-18 82.525 82.525 0 0 0-9-6.5c1.063-3.83 1.896-3.83 2.5 0 1.335-.58 2.502-.91 3.5-1a373.564 373.564 0 0 0 37 18.5c29.715 11.2 48.382 1.7 56-28.5 1.586-12.01-2.748-21.51-13-28.5-1.249-.74-2.249-.57-3 .5a103.07 103.07 0 0 1-4.5 21c-3.552 9.39-10.052 15.39-19.5 18-15.275 1.64-29.942-.53-44-6.5-1.824-.66-3.157-1.83-4-3.5.667-.33 1.333-.67 2-1 13.963 7.53 28.629 9.86 44 7 8.773-1.93 14.606-7.27 17.5-16a222.398 222.398 0 0 0 5.5-24z"/><path style="opacity:1" fill="#293600" d="M574.5 1180.5c.751-1.07 1.751-1.24 3-.5 10.252 6.99 14.586 16.49 13 28.5.298-12.76-5.035-22.09-16-28z"/><path style="opacity:.992" fill="#050503" d="M1271.5 1120.5c2.77-.08 5.44.42 8 1.5 11.12 8.4 16.12 19.57 15 33.5-6.76 27.74-24.43 38.91-53 33.5-8.64-4.48-17.64-8.15-27-11-5.36-2.34-10.36-5.17-15-8.5 1.05-.1 2.22-.1 3.5 0 .46-.59.63-1.26.5-2 13.36 5.84 26.69 11.67 40 17.5 25.88 4.41 41.54-6.09 47-31.5 1.59-12.01-2.75-21.51-13-28.5-1.25-.74-2.25-.57-3 .5a102.67 102.67 0 0 1-4.5 21c-3.55 9.39-10.05 15.39-19.5 18-17.68 2.53-34.01-.8-49-10-1.33-1-1.33-2 0-3 14.57 9.05 30.24 12.05 47 9 8.77-1.93 14.61-7.27 17.5-16 2.29-7.95 4.12-15.95 5.5-24z"/><path style="opacity:.999" fill="#000265" d="M571.5 1175.5c2.905-1.2 5.905-1.03 9 .5 8.225 6.21 13.058 14.38 14.5 24.5.808 3.53.641 6.86-.5 10 1.117-13.93-3.883-25.1-15-33.5a18.96 18.96 0 0 0-8-1.5z"/><path style="opacity:1" fill="#273600" d="M325.5 1170.5c13.338-1.59 26.338.24 39 5.5 16.714 6.52 32.381 14.85 47 25 1.291 1.29 1.291 2.46 0 3.5.086-1-.248-1.83-1-2.5-19.407-13.25-40.407-23.25-63-30a184.01 184.01 0 0 0-22-1.5z"/><path style="opacity:1" fill="#fcdd08" d="M574.5 1180.5c10.965 5.91 16.298 15.24 16 28-7.618 30.2-26.285 39.7-56 28.5a373.564 373.564 0 0 1-37-18.5c-2.494-2.58-2.494-5.25 0-8 8.644 3.83 17.644 6.99 27 9.5 8.843.82 17.51.66 26-.5 9.448-2.61 15.948-8.61 19.5-18a103.07 103.07 0 0 0 4.5-21z"/><path style="opacity:1" fill="#010266" d="M1188.5 1165.5c1.21 2.8 3.21 4.96 6 6.5a158.247 158.247 0 0 1 32 19c7.27 4.47 14.94 8.14 23 11 4.62 2.56 8.78 5.73 12.5 9.5 5.79 15.72 7.96 31.72 6.5 48 .34-16.1-2.16-31.76-7.5-47a54.772 54.772 0 0 0-12.5-9.5c-8.06-2.86-15.73-6.53-23-11a158.247 158.247 0 0 0-32-19c-2.79-1.54-4.79-3.7-6-6.5 0-.67.33-1 1-1z"/><path style="opacity:1" fill="#010165" d="M479.5 1166.5c9.896-2.48 15.563 1.52 17 12-.02 1.23-.353 2.23-1 3-.217-10.55-5.55-15.55-16-15z"/><path style="opacity:1" fill="#fbdd08" d="M1183.5 1171.5c7.55 5.28 15.55 9.78 24 13.5a160.408 160.408 0 0 0 39 22c3.59 2.38 7.09 4.88 10.5 7.5 4.23 14.03 6.73 28.36 7.5 43-1.18 1-2.52 1.84-4 2.5-5.33.17-10.67.33-16 .5-8.8.29-17.46-.54-26-2.5a47.084 47.084 0 0 1-10.5-12.5 651.633 651.633 0 0 0-35.5-59c-.53-1.35-.69-2.68-.5-4 3.68-3.84 7.51-7.51 11.5-11z"/><path style="opacity:.999" fill="#fcde08" d="M442.5 1231.5a224.346 224.346 0 0 0-13 12.5c-10.746 7.29-16.413 4.46-17-8.5a37.161 37.161 0 0 1 10-7.5 328.454 328.454 0 0 1 22-21 698.308 698.308 0 0 0 30-33c2.67-1.92 5.67-3.09 9-3.5 6.174 2.02 8.34 6.02 6.5 12a1096.113 1096.113 0 0 0-47.5 49z"/><path style="opacity:1" fill="#fece01" d="M458.5 1165.5c4.945-1.19 8.278.48 10 5a80.612 80.612 0 0 1-6.5 10 715.537 715.537 0 0 1-42.5 42.5c-2.896 2.97-6.23 3.8-10 2.5-3.311-3.21-3.811-6.87-1.5-11a3593.245 3593.245 0 0 0 50.5-49z"/><path style="opacity:1" fill="#fcdd08" d="M325.5 1170.5c7.36.06 14.694.56 22 1.5 22.593 6.75 43.593 16.75 63 30 .752.67 1.086 1.5 1 2.5a44.578 44.578 0 0 0-5.5 3 660.936 660.936 0 0 1-16.5-6.5c-10.863-2.88-19.197.28-25 9.5-1.148 4.48-1.315 9.15-.5 14 3.038 6.83 6.371 13.5 10 20 8.926 11.26 12.426 23.93 10.5 38-1.358 6.37-5.024 11.04-11 14a266.003 266.003 0 0 0-26-21.5 1408.04 1408.04 0 0 1-45-22 64.947 64.947 0 0 0-11-8c-7.453-7.18-11.12-16.01-11-26.5 4.694-25.69 19.694-41.69 45-48z"/><path style="opacity:1" fill="#010165" d="M323.5 1166.5c10.602-1.49 21.268-.99 32 1.5 21.579 7.29 41.579 17.46 60 30.5-5.729-2.37-11.063-5.54-16-9.5a770.73 770.73 0 0 0-45-20 124.508 124.508 0 0 0-31-2.5z"/><path style="opacity:1" fill="#2d3400" d="M1197.5 1155.5c1.07-.93 2.4-1.27 4-1 14.99 9.2 31.32 12.53 49 10-8.49 1.16-17.16 1.32-26 .5-9.36-2.51-18.36-5.67-27-9.5z"/><path style="opacity:.98" fill="#000165" d="M1201.5 1149.5c14.21 9.38 29.88 13.05 47 11-16.76 3.05-32.43.05-47-9v-2z"/><path style="opacity:1" fill="#253701" d="M444.5 1131.5c-1.177 11.64 1.823 21.97 9 31-.124.61-.457.94-1 1-7.703-9.48-10.37-20.14-8-32z"/><path style="opacity:.996" fill="#0d0e03" d="M1158.5 1105.5c6.32-.13 11.32 2.2 15 7 2.24.29 4.24-.04 6-1 10.45-.55 15.78 4.45 16 15-1.88 2.26-2.88 4.92-3 8 7.19 2.26 10.19 7.26 9 15v2c-1.33 1-1.33 2 0 3-1.6-.27-2.93.07-4 1-1.41 1.8-1.91 3.8-1.5 6 2.44 2.13 4.94 4.13 7.5 6 .13.74-.04 1.41-.5 2-1.28-.1-2.45-.1-3.5 0a46.773 46.773 0 0 1-7-4.5c-1.57-.76-2.9-.6-4 .5-.67 0-1 .33-1 1-1.17 1.01-1.84 2.35-2 4-.99-.17-1.66.16-2 1-3.99 3.49-7.82 7.16-11.5 11-.19 1.32-.03 2.65.5 4a6.603 6.603 0 0 1-3 3c-1.38-2.1-3.05-2.43-5-1-.67 0-1 .33-1 1-.65.59-1.32 1.26-2 2-1.59-2.16-3.26-2.33-5-.5.47 1.73 1.47 2.9 3 3.5a28.17 28.17 0 0 0-5 5c-1.29-1.04-1.29-2.21 0-3.5-.57-.99-1.23-1.83-2-2.5a433.113 433.113 0 0 0 45-47.5c-1.06-6.39-4.73-8.73-11-7a1205.468 1205.468 0 0 0-50 51.5c-1-1.67-2.33-3-4-4 18.6-20.1 37.77-39.77 57.5-59 1.84-5.98-.33-9.98-6.5-12-3.33.41-6.33 1.58-9 3.5-9.63 11.3-19.63 22.3-30 33a327.492 327.492 0 0 0-22 21c-1.58 1.09-3.24 1.93-5 2.5 1.68-2.23 1.35-3.89-1-5 8.64-8.47 17.47-16.8 26.5-25 8.35-9.42 16.69-18.75 25-28-.01-6.3-3.17-8.47-9.5-6.5-10.37 9.51-20.7 19.01-31 28.5.16-1.7-.01-3.37-.5-5-.67.75-1.5 1.09-2.5 1 3.64-3.3 7.31-6.64 11-10 .62-.42.96-1.08 1-2-.99-1.99-1.99-3.99-3-6 .67-.33 1.33-.67 2-1 1.13.62 2.13 1.46 3 2.5 1.25.74 2.25.57 3-.5 1.71-1.14 2.38-2.8 2-5 .67-1 1.33-2 2-3 2.82 2.13 5.15 1.46 7-2 .67 0 1-.33 1-1 1.29-1.27 2.29-.93 3 1 1.42-.5 2.09-1.5 2-3z"/><path style="opacity:.996" fill="#040403" d="M965.5 967.5c27.335-.167 54.67 0 82 .5 12.08 4.079 21.91 11.246 29.5 21.5 3.08 5.831 6.41 11.5 10 17 5.72 20.87 12.05 41.54 19 62a528.717 528.717 0 0 0 29.5 48c-.67.33-1.33.67-2 1-5.63-6.58-10.8-13.58-15.5-21-4.93-8.96-9.93-17.96-15-27-6.95-20.46-13.28-41.13-19-62-5.59-12.916-14.09-23.416-25.5-31.5a47.326 47.326 0 0 0-12-5c-26.84-.83-53.503-.664-80 .5-.283.789-.783 1.456-1.5 2a1481.76 1481.76 0 0 0 0 77c5.691 16.03 16.524 27.19 32.5 33.5 18.87 6.13 37.87 11.8 57 17 24.2 7.93 46.54 19.27 67 34 .95.48 1.95.65 3 .5 1 .09 1.83-.25 2.5-1 .49 1.63.66 3.3.5 5a464.456 464.456 0 0 1-20.5 22c-.85 7.32 2.32 10.32 9.5 9 2.35 1.11 2.68 2.77 1 5-6.23 5.12-6.56 10.62-1 16.5l3 1.5c4.81-1.57 9.14-3.9 13-7 1.67 1 3 2.33 4 4-1.37 7.78 1.96 10.61 10 8.5 1.87-2.04 3.87-3.87 6-5.5.77.67 1.43 1.51 2 2.5-1.29 1.29-1.29 2.46 0 3.5 3.58 6.1 7.42 12.1 11.5 18 8.81 22.66 3.31 40.83-16.5 54.5a76.543 76.543 0 0 1-24 5c-.95.72-1.12 1.55-.5 2.5 14.37 16.68 30.87 19.18 49.5 7.5 7.26-8.28 11.59-17.78 13-28.5.62-.42.96-1.08 1-2-1.23-9.53-3.4-18.87-6.5-28-6.6-11.44-13.44-22.78-20.5-34-.76-1.27-1.42-1.27-2 0-1.53-.6-2.53-1.77-3-3.5 1.74-1.83 3.41-1.66 5 .5.68-.74 1.35-1.41 2-2-.16 1.37.01 2.71.5 4a538.343 538.343 0 0 1 21 34c1.26 5.79 2.93 11.45 5 17 .9 5.64 1.4 11.3 1.5 17-1.83 8.92-5.33 17.25-10.5 25-17.66 15.38-35.83 15.88-54.5 1.5-2.62-2.74-5.12-5.57-7.5-8.5-.67-1.67-.67-3.33 0-5 9.66-1.36 19.16-3.53 28.5-6.5 17.64-12.12 22.47-28.28 14.5-48.5-3.44-5.78-7.28-11.28-11.5-16.5-3.3-.54-6.46-.04-9.5 1.5-5.2-1.87-9.2-5.2-12-10-11.7 5.73-18.87 2.23-21.5-10.5.67-2.33 1.33-4.67 2-7-2.25-2.39-4.41-4.89-6.5-7.5a31.016 31.016 0 0 1-1-13c-7.34-5.22-15.51-7.39-24.5-6.5-2.67 1.67-5.33 3.33-8 5-.75.67-1.09 1.5-1 2.5-1.14 3.14-1.31 6.47-.5 10 5.68 10.7 11.35 21.36 17 32 3.75 7.54 5.58 15.54 5.5 24-2.29 6.67-5.46 13-9.5 19-3.09 2.6-6.59 3.43-10.5 2.5a197.608 197.608 0 0 0-25-21c-15.18-7.09-30.18-14.43-45-22a190.538 190.538 0 0 0-15-11c-11.637-17.69-11.804-35.52-.5-53.5 9.7-13.58 22.53-22.25 38.5-26 10.45-.46 20.78.37 31 2.5a770.135 770.135 0 0 1 45 20c4.94 3.96 10.27 7.13 16 9.5 3.85-.2 4.85-2.03 3-5.5-20.3-14.15-42.3-25.15-66-33-19.13-5.2-38.13-10.87-57-17a207.178 207.178 0 0 0-17-9c-7.954-7.4-13.788-16.24-17.5-26.5-.667-27-.667-54 0-81 1.397-1.57 2.897-2.904 4.5-4z"/><path style="opacity:.922" fill="#283500" d="M1159.5 1194.5c.58-1.27 1.24-1.27 2 0 7.06 11.22 13.9 22.56 20.5 34 3.1 9.13 5.27 18.47 6.5 28-.04.92-.38 1.58-1 2-1.02-9.9-3.19-19.56-6.5-29-7-11.82-14.17-23.48-21.5-35z"/><path style="opacity:1" fill="#fcdd08" d="M1159.5 1194.5c7.33 11.52 14.5 23.18 21.5 35 3.31 9.44 5.48 19.1 6.5 29-1.41 10.72-5.74 20.22-13 28.5-18.63 11.68-35.13 9.18-49.5-7.5-.62-.95-.45-1.78.5-2.5 8.29-.38 16.29-2.05 24-5 19.81-13.67 25.31-31.84 16.5-54.5-4.08-5.9-7.92-11.9-11.5-18a28.17 28.17 0 0 1 5-5z"/><path style="opacity:1" fill="#010166" d="M1068.5 1157.5c-.16 3.02 0 6.02.5 9 4.27 8.59 8.93 16.92 14 25 4.77 9.13 7.6 18.8 8.5 29-.02 1.23-.35 2.23-1 3 .08-8.46-1.75-16.46-5.5-24-5.65-10.64-11.32-21.3-17-32-.81-3.53-.64-6.86.5-10z"/><path style="opacity:1" fill="#2b3500" d="M1064.5 1155.5c-.17 4.35 0 8.68.5 13 4.22 8.56 8.89 16.9 14 25 2.33 5.67 4.67 11.33 7 17 .82 5.52.65 10.85-.5 16 .69-13.75-3.14-26.09-11.5-37-3.63-6.5-6.96-13.17-10-20-.82-4.85-.65-9.52.5-14z"/><path style="opacity:1" fill="#010168" d="M448.5 1134.5c-.574 9.57 2.426 17.74 9 24.5 4.505.26 8.839 1.26 13 3 2.107 1.26 3.107 3.1 3 5.5a10.26 10.26 0 0 0-3-3c-4.053-2.96-8.719-4.46-14-4.5-7.095-7.24-9.761-15.74-8-25.5z"/><path style="opacity:1" fill="#fcde08" d="M1152.5 1193.5a46.294 46.294 0 0 0-6 5.5c-8.04 2.11-11.37-.72-10-8.5 16.07-17.58 32.74-34.74 50-51.5 6.27-1.73 9.94.61 11 7a433.113 433.113 0 0 1-45 47.5z"/><path style="opacity:1" fill="#2c3500" d="M1274.5 1125.5c.75-1.07 1.75-1.24 3-.5 10.25 6.99 14.59 16.49 13 28.5.3-12.76-5.04-22.09-16-28z"/><path style="opacity:.808" fill="#293500" d="M1025.5 1115.5c13.34-1.59 26.34.24 39 5.5 16.71 6.52 32.38 14.85 47 25 1.29 1.29 1.29 2.46 0 3.5.09-1-.25-1.83-1-2.5-19.41-13.25-40.41-23.25-63-30-7.31-.94-14.64-1.44-22-1.5z"/><path style="opacity:1" fill="#fcdd08" d="M1274.5 1125.5c10.96 5.91 16.3 15.24 16 28-5.46 25.41-21.12 35.91-47 31.5-13.31-5.83-26.64-11.66-40-17.5-2.56-1.87-5.06-3.87-7.5-6-.41-2.2.09-4.2 1.5-6 8.64 3.83 17.64 6.99 27 9.5 8.84.82 17.51.66 26-.5 9.45-2.61 15.95-8.61 19.5-18a102.67 102.67 0 0 0 4.5-21z"/><path style="opacity:1" fill="#010165" d="M1271.5 1120.5c2.91-1.2 5.91-1.03 9 .5 8.22 6.21 13.06 14.38 14.5 24.5.81 3.53.64 6.86-.5 10 1.12-13.93-3.88-25.1-15-33.5a18.954 18.954 0 0 0-8-1.5z"/><path style="opacity:1" fill="#fbdd08" d="M1132.5 1186.5c-3.86 3.1-8.19 5.43-13 7l-3-1.5c-5.56-5.88-5.23-11.38 1-16.5 1.76-.57 3.42-1.41 5-2.5 7.03-7.36 14.36-14.36 22-21 10.37-10.7 20.37-21.7 30-33 2.67-1.92 5.67-3.09 9-3.5 6.17 2.02 8.34 6.02 6.5 12-19.73 19.23-38.9 38.9-57.5 59z"/><path style="opacity:1" fill="#fcdd08" d="M1025.5 1115.5c7.36.06 14.69.56 22 1.5 22.59 6.75 43.59 16.75 63 30 .75.67 1.09 1.5 1 2.5-1.9.87-3.74 1.87-5.5 3-5.53-2.09-11.03-4.26-16.5-6.5-10.86-2.88-19.2.28-25 9.5-1.15 4.48-1.32 9.15-.5 14 3.04 6.83 6.37 13.5 10 20 8.36 10.91 12.19 23.25 11.5 37-2.34 2.46-3.84 5.46-4.5 9a21.81 21.81 0 0 1-7.5 6c-8.23-7.73-16.9-14.9-26-21.5-15.22-7.11-30.22-14.44-45-22a64.947 64.947 0 0 0-11-8c-7.453-7.18-11.12-16.01-11-26.5 4.694-25.69 19.69-41.69 45-48z"/><path style="opacity:.995" fill="#010165" d="M1023.5 1111.5c10.6-1.49 21.27-.99 32 1.5 21.58 7.29 41.58 17.46 60 30.5-5.73-2.37-11.06-5.54-16-9.5a770.135 770.135 0 0 0-45-20 124.489 124.489 0 0 0-31-2.5z"/><path style="opacity:1" fill="#010166" d="M1179.5 1111.5c9.9-2.48 15.56 1.52 17 12-.02 1.23-.35 2.23-1 3-.22-10.55-5.55-15.55-16-15z"/><path style="opacity:1" fill="#fcde08" d="M1116.5 1170.5c-7.18 1.32-10.35-1.68-9.5-9 7.05-7.09 13.89-14.43 20.5-22 10.3-9.49 20.63-18.99 31-28.5 6.33-1.97 9.49.2 9.5 6.5-8.31 9.25-16.65 18.58-25 28-9.03 8.2-17.86 16.53-26.5 25z"/><path style="opacity:.988" fill="#000164" d="M1148.5 1079.5c-.57 9.57 2.43 17.74 9 24.5a39.3 39.3 0 0 1 13 3c2.11 1.26 3.11 3.1 3 5.5-3.68-4.8-8.68-7.13-15-7-3.99-1.82-6.82-4.82-8.5-9-2.25-5.69-2.75-11.36-1.5-17z"/><path style="opacity:1" fill="#293500" d="M266.5 1026.5c26.497-1.16 53.164-1.33 80-.5 11.194 3.68 20.361 10.18 27.5 19.5 3.081 5.83 6.415 11.5 10 17a1080.855 1080.855 0 0 0 19 62 265.23 265.23 0 0 0 33 52c.765 1.57.598 2.9-.5 4a4.939 4.939 0 0 0-.5-3 265.23 265.23 0 0 1-33-52 1080.855 1080.855 0 0 1-19-62c-5.589-12.92-14.089-23.42-25.5-31.5a47.14 47.14 0 0 0-12-5c-26.331-.5-52.665-.67-79-.5z"/><path style="opacity:1" fill="#040403" d="M1153.5 976.5c9.67-.164 18.67 2.336 27 7.5a129.193 129.193 0 0 1 15.5 18.5 829.511 829.511 0 0 0 27 48c5.87 6.12 12.21 11.78 19 17 1.41 2.15 2.24 4.48 2.5 7-10.78 14.71-25.11 19.88-43 15.5-10.98-6.97-21.98-13.97-33-21-9.74-1.97-16.41 1.53-20 10.5-1.25 5.64-.75 11.31 1.5 17 1.68 4.18 4.51 7.18 8.5 9 .09 1.5-.58 2.5-2 3-.71-1.93-1.71-2.27-3-1-7.17-9-10.17-19.33-9-31 5.56-10.48 14.23-14.31 26-11.5 8.89 4.94 17.22 10.6 25 17 16.77 9.32 31.43 6.82 44-7.5 1.21-1.93 1.04-3.93-.5-6a191.77 191.77 0 0 1-18-15 902.05 902.05 0 0 1-28-50 158.527 158.527 0 0 0-13.5-16.5c-6.18-3.562-12.68-6.062-19.5-7.5-1.71.008-3.21.342-4.5 1-17.69 5.178-31.19 15.844-40.5 32-7 23.33-4 45.33 9 66 6.6 11.09 13.77 21.76 21.5 32-.67 1-1.33 2-2 3-12.15-14.27-22.31-29.94-30.5-47-3.5-8.84-5.67-18-6.5-27.5a198.4 198.4 0 0 1 4.5-28.5c9.88-16.713 24.04-28.046 42.5-34z"/><path style="opacity:.98" fill="#293500" d="M1144.5 1076.5c-1.17 11.67 1.83 22 9 31 0 .67-.33 1-1 1-7.7-9.48-10.37-20.14-8-32z"/><path style="opacity:1" fill="#2a3500" d="M1155.5 980.5c1.29-.658 2.79-.992 4.5-1 6.82 1.438 13.32 3.938 19.5 7.5a158.527 158.527 0 0 1 13.5 16.5 902.05 902.05 0 0 0 28 50 191.77 191.77 0 0 0 18 15c1.54 2.07 1.71 4.07.5 6 .01-1.81-.49-3.48-1.5-5a191.77 191.77 0 0 1-18-15 902.05 902.05 0 0 1-28-50 158.527 158.527 0 0 0-13.5-16.5c-7.08-4.516-14.75-7.016-23-7.5z"/><path style="opacity:.997" fill="#010165" d="M265.5 1022.5a1153.18 1153.18 0 0 1 83-.5c12.08 4.08 21.913 11.25 29.5 21.5 3.081 5.83 6.415 11.5 10 17a1382.47 1382.47 0 0 1 14 49 313.73 313.73 0 0 0 30 55c2.4 3.9 5.566 6.9 9.5 9-.751 1.07-1.751 1.24-3 .5l-4.5-4.5c-13.323-18.31-24.323-37.97-33-59a1382.47 1382.47 0 0 0-14-49 215.602 215.602 0 0 1-10-17c-7.587-10.25-17.42-17.42-29.5-21.5-27.331-.5-54.665-.67-82-.5z"/><path style="opacity:1" fill="#293600" d="M455.5 1035.5c1.293-.66 2.793-.99 4.5-1 9.633 1.67 17.967 6 25 13a329.145 329.145 0 0 1 27 47 94.404 94.404 0 0 1 9 14 191.259 191.259 0 0 0 18 15c1.542 2.07 1.709 4.07.5 6a8.78 8.78 0 0 0-1.5-5 191.259 191.259 0 0 1-18-15 903.998 903.998 0 0 1-28-50 159.252 159.252 0 0 0-13.5-16.5c-7.081-4.52-14.748-7.02-23-7.5z"/><path style="opacity:.988" fill="#000265" d="M453.5 1031.5c4.146-1.15 8.48-1.31 13-.5 8.834 2.67 16.334 7.51 22.5 14.5a329.145 329.145 0 0 1 27 47c2.697 4.02 5.364 8.02 8 12a169.224 169.224 0 0 0 19 17c2.159 2.58 2.659 5.25 1.5 8-.255-2.52-1.089-4.85-2.5-7a169.224 169.224 0 0 1-19-17 831.889 831.889 0 0 1-27-48 128.919 128.919 0 0 0-15.5-18.5c-8.329-5.16-17.329-7.66-27-7.5z"/><path style="opacity:1" fill="#fcdd08" d="M455.5 1035.5c8.252.48 15.919 2.98 23 7.5a159.252 159.252 0 0 1 13.5 16.5 903.998 903.998 0 0 0 28 50 191.259 191.259 0 0 0 18 15 8.78 8.78 0 0 1 1.5 5c-12.568 14.32-27.235 16.82-44 7.5a166.846 166.846 0 0 0-25-17c-11.774-2.81-20.441 1.02-26 11.5-2.37 11.86.297 22.52 8 32-2.271 4.1-4.771 4.43-7.5 1a234.417 234.417 0 0 1-31-53c-4.003-14.7-3.669-29.36 1-44 9.305-16.16 22.805-26.82 40.5-32z"/><path style="opacity:1" fill="#010166" d="M965.5 967.5c27.497-1.164 55.16-1.33 83-.5 12.08 4.079 21.91 11.246 29.5 21.5a213.945 213.945 0 0 0 10 17c4.98 16.27 9.64 32.61 14 49a313.992 313.992 0 0 0 30 55c2.4 3.9 5.57 6.9 9.5 9-.75 1.07-1.75 1.24-3 .5-.87-1.04-1.87-1.88-3-2.5a528.717 528.717 0 0 1-29.5-48c-6.95-20.46-13.28-41.13-19-62-3.59-5.5-6.92-11.169-10-17-7.59-10.254-17.42-17.421-29.5-21.5-27.33-.5-54.665-.667-82-.5z"/><path style="opacity:1" fill="#fcdd08" d="M266.5 1026.5c26.335-.17 52.669 0 79 .5a47.14 47.14 0 0 1 12 5c11.411 8.08 19.911 18.58 25.5 31.5a1080.855 1080.855 0 0 0 19 62 265.23 265.23 0 0 0 33 52c.483.95.649 1.95.5 3a60.212 60.212 0 0 1-12.5 10c-21.03-14.77-43.864-26.27-68.5-34.5-16.357-4.51-32.69-9.17-49-14-13.053-4.27-24.22-11.44-33.5-21.5a108.34 108.34 0 0 1-7-15 1481.76 1481.76 0 0 1 0-77c.717-.54 1.217-1.21 1.5-2z"/><path style="opacity:1" fill="#2b3500" d="M966.5 971.5c26.497-1.164 53.16-1.33 80-.5a47.326 47.326 0 0 1 12 5c11.41 8.084 19.91 18.584 25.5 31.5 5.72 20.87 12.05 41.54 19 62 5.07 9.04 10.07 18.04 15 27 4.7 7.42 9.87 14.42 15.5 21 1.01 2.01 2.01 4.01 3 6-.04.92-.38 1.58-1 2 .15-1.05-.02-2.05-.5-3a264.952 264.952 0 0 1-33-52c-6.95-20.46-13.28-41.13-19-62-5.59-12.916-14.09-23.416-25.5-31.5a47.326 47.326 0 0 0-12-5c-26.33-.5-52.665-.667-79-.5z"/><path style="opacity:1" fill="#010166" d="M1153.5 976.5c4.15-1.147 8.48-1.314 13-.5 8.83 2.673 16.33 7.506 22.5 14.5a328.193 328.193 0 0 1 27 47c2.7 4.02 5.36 8.02 8 12 5.87 6.12 12.21 11.78 19 17 2.16 2.58 2.66 5.25 1.5 8-.26-2.52-1.09-4.85-2.5-7a168.961 168.961 0 0 1-19-17 829.511 829.511 0 0 1-27-48 129.193 129.193 0 0 0-15.5-18.5c-8.33-5.164-17.33-7.664-27-7.5z"/><path style="opacity:1" fill="#fcdd08" d="M1155.5 980.5c8.25.484 15.92 2.984 23 7.5a158.527 158.527 0 0 1 13.5 16.5 902.05 902.05 0 0 0 28 50 191.77 191.77 0 0 0 18 15 8.765 8.765 0 0 1 1.5 5c-12.57 14.32-27.23 16.82-44 7.5-7.78-6.4-16.11-12.06-25-17-11.77-2.81-20.44 1.02-26 11.5-2.37 11.86.3 22.52 8 32-1.85 3.46-4.18 4.13-7 2a351.128 351.128 0 0 1-21.5-32c-13-20.67-16-42.67-9-66 9.31-16.156 22.81-26.822 40.5-32zM966.5 971.5c26.335-.167 52.67 0 79 .5a47.326 47.326 0 0 1 12 5c11.41 8.084 19.91 18.584 25.5 31.5 5.72 20.87 12.05 41.54 19 62a264.952 264.952 0 0 0 33 52c.48.95.65 1.95.5 3-3.69 3.36-7.36 6.7-11 10-1.05.15-2.05-.02-3-.5-20.46-14.73-42.8-26.07-67-34-19.13-5.2-38.13-10.87-57-17-15.976-6.31-26.809-17.47-32.5-33.5a1481.76 1481.76 0 0 1 0-77c.717-.544 1.217-1.211 1.5-2z"/></svg>