<svg xmlns="http://www.w3.org/2000/svg" version="1.0" width="208.86" height="244.66"><path style="fill:#feeb00;fill-opacity:1;fill-rule:evenodd;stroke:#000;stroke-width:1.99999988;stroke-linecap:butt;stroke-miterlimit:4;stroke-dashoffset:0;stroke-opacity:1" d="m1 1 3.761 158.003c2.687 112.86 196.652 112.86 199.338 0L207.86 1z"/><path style="opacity:1;fill:#009645;fill-opacity:1;stroke:#000;stroke-width:.99999994;stroke-miterlimit:9;stroke-dasharray:none;stroke-dashoffset:4.57999992;stroke-opacity:1" d="M25.385 172.285c.628-1.59 1.435-3.572 3.925-3.709 11.714-.42 19.498-12.252 19.498-19.533v-44.01h13.15v44.01c0 7.281 7.783 19.113 19.497 19.533 2.49.137 3.297 2.119 3.925 3.709H55.383z"/><path style="opacity:1;fill:#009645;fill-opacity:1;stroke:#000;stroke-width:.99999994;stroke-miterlimit:9;stroke-dasharray:none;stroke-dashoffset:4.57999992;stroke-opacity:1" d="M9.146 64.831c-4.49 15.552 7.044 30.163 23.27 25.276-15.679 6.782-17.361 26.301-5.61 35.913 11.752 9.611 27.692 1.753 28.577-17.128.884 18.88 16.824 26.74 28.576 17.128 11.752-9.611 10.07-29.131-5.609-35.91 16.225 4.89 27.759-9.72 23.27-25.273-4.489-15.551-21.468-19.808-32.042-5.119 9.142-15.86.33-32.697-14.195-32.697-14.526 0-23.338 16.837-14.195 32.694C30.614 45.023 13.634 49.28 9.146 64.831z"/><path style="opacity:1;fill:#cc2918;fill-opacity:1;stroke:#000;stroke-width:.99999994;stroke-miterlimit:9;stroke-dasharray:none;stroke-dashoffset:4.57999992;stroke-opacity:1" d="M96.728 106.253h102.319l-51.16-58.136z"/><path style="opacity:1;fill:none;fill-opacity:1;stroke:#000;stroke-width:.99999994;stroke-miterlimit:9;stroke-dasharray:none;stroke-dashoffset:4.57999992;stroke-opacity:1" d="M66.57 167.16c1.542 1.96 2.752 3.61 4.96 5.125M59.458 166.212c.846 1.937 1.822 4.25 3.236 6.073"/><path style="opacity:1;fill:#009645;fill-opacity:1;stroke:#000;stroke-width:1;stroke-miterlimit:9;stroke-dasharray:none;stroke-dashoffset:4.57999992;stroke-opacity:1" d="M202.836 172.285c-5.914 35.094-39.297 71.362-98.406 71.362-60.797-.87-91.544-34.273-98.405-71.362h196.81z"/><path style="opacity:1;fill:#fff;fill-opacity:1;stroke:#000;stroke-width:.99999994;stroke-miterlimit:9;stroke-dasharray:none;stroke-dashoffset:4.57999992;stroke-opacity:1" d="M192.05 172.285v-66.032H103.724v66.032h44.162z"/><path style="opacity:1;fill:none;fill-opacity:1;stroke:#000;stroke-width:.99999994;stroke-miterlimit:9;stroke-dasharray:none;stroke-dashoffset:4.57999992;stroke-opacity:1" d="M170.272 141.465v17.43H125.503v-17.43c0-12.846 9.495-22.384 22.384-22.384 12.89 0 22.385 9.538 22.385 22.384zM147.887 119.081v39.814M155.349 120.235v38.66M162.81 124.428v34.467M140.426 120.235v38.66M132.964 124.428v34.467"/><path style="opacity:1;fill:none;fill-opacity:1;stroke:#000;stroke-width:.99999988;stroke-miterlimit:9;stroke-dasharray:none;stroke-dashoffset:4.57999992;stroke-opacity:1" d="M170.272 150.407h-44.77M170.272 141.983h-44.77M168.966 133.558H126.81M163.584 125.134H132.19"/><path style="opacity:1;fill:none;fill-opacity:1;stroke:#000;stroke-width:.99999994;stroke-miterlimit:9;stroke-dasharray:none;stroke-dashoffset:4.57999992;stroke-opacity:1" d="M48.583 166.19c-1.083 1.937-2.341 4.272-4.153 6.095M42.748 166.74c-1.833 1.96-4.525 4.03-7.151 5.545"/><path style="opacity:1;fill:none;fill-opacity:1;stroke:#000;stroke-width:.99999988;stroke-miterlimit:9;stroke-dasharray:none;stroke-dashoffset:4.57999992;stroke-opacity:1" d="M54.356 166.588c-.503 1.937-1.004 3.874-1.845 5.697"/></svg>