<?xml version="1.0" encoding="UTF-8" standalone="no"?>
<svg
   xmlns:dc="http://purl.org/dc/elements/1.1/"
   xmlns:cc="http://creativecommons.org/ns#"
   xmlns:rdf="http://www.w3.org/1999/02/22-rdf-syntax-ns#"
   xmlns:svg="http://www.w3.org/2000/svg"
   xmlns="http://www.w3.org/2000/svg"
   xmlns:sodipodi="http://sodipodi.sourceforge.net/DTD/sodipodi-0.dtd"
   xmlns:inkscape="http://www.inkscape.org/namespaces/inkscape"
   width="209"
   height="245"
   stroke="#000"
   version="1.1"
   id="svg12"
   sodipodi:docname="CHE Billens-Hennens COA.svg"
   inkscape:version="0.92.3 (2405546, 2018-03-11)">
  <metadata
     id="metadata18">
    <rdf:RDF>
      <cc:Work
         rdf:about="">
        <dc:format>image/svg+xml</dc:format>
        <dc:type
           rdf:resource="http://purl.org/dc/dcmitype/StillImage" />
      </cc:Work>
    </rdf:RDF>
  </metadata>
  <defs
     id="defs16" />
  <sodipodi:namedview
     pagecolor="#ffffff"
     bordercolor="#666666"
     borderopacity="1"
     objecttolerance="10"
     gridtolerance="10"
     guidetolerance="10"
     inkscape:pageopacity="0"
     inkscape:pageshadow="2"
     inkscape:window-width="1920"
     inkscape:window-height="1017"
     id="namedview14"
     showgrid="false"
     inkscape:zoom="2.1114641"
     inkscape:cx="4.5378924"
     inkscape:cy="101.13529"
     inkscape:window-x="-8"
     inkscape:window-y="-8"
     inkscape:window-maximized="1"
     inkscape:current-layer="svg12" />
  <path
     d="M1 1h207v148c0 51.445-51.785 95-103.5 95S1 200.445 1 149V1z"
     fill="#fff"
     id="path2"
     style="fill:#f00000;fill-opacity:1" />
  <path
     d="M 141.36544,236.79465 152.27392,231.84602 0.94397522,54.375414 1.0241588,75.172855 Z m 62.1646,-61.51005 c 5.70613,-20.74249 2.9673,-15.13448 2.9673,-15.13448 L 66.754567,1.0568006 48.750733,1.0911093 Z"
     id="path4"
     style="fill:#fcdb00;fill-opacity:1;stroke-width:0.99999994"
     inkscape:connector-curvature="0"
     sodipodi:nodetypes="cccccccccc" />
  <path
     d="M1 41V1h35.213l162.736 184.848c-8.77 16.982-20.937 29.482-35.65 39.511L1 41z"
     fill="#f00000"
     id="path6"
     style="fill:#000000" />
  <path
     d="m58.887 36.479-12.061 11.379-14.572-7.963 7.125 14.99-12.066 11.373 16.463-2.115 7.117 14.994 3.049-16.297 16.465-2.11-14.578-7.956 3.059-16.296zm54 61.34-12.059 11.379-14.572-7.963 7.125 14.99-12.066 11.375 16.463-2.115 7.117 14.992 3.049-16.297 16.463-2.11-14.576-7.956 3.057-16.295zm54 61.34-12.059 11.379-14.574-7.963 7.125 14.99-12.064 11.375 16.463-2.115 7.117 14.992 3.049-16.297 16.463-2.108-14.576-7.957 3.057-16.297z"
     fill="#fcdb00"
     id="path8" />
  <path
     d="M1 1h207v148c0 51.445-51.785 95-103.5 95S1 200.445 1 149V1z"
     fill="none"
     stroke-width="2"
     id="path10" />
</svg>
