<?xml version="1.0" encoding="UTF-8"?>
<!DOCTYPE svg PUBLIC "-//W3C//DTD SVG 1.1//EN" "http://www.w3.org/Graphics/SVG/1.1/DTD/svg11.dtd">
<svg xmlns="http://www.w3.org/2000/svg" version="1.1" width="267px" height="300px" style="shape-rendering:geometricPrecision; text-rendering:geometricPrecision; image-rendering:optimizeQuality; fill-rule:evenodd; clip-rule:evenodd" xmlns:xlink="http://www.w3.org/1999/xlink">
<g><path style="opacity:1" fill="#000000" d="M -0.5,-0.5 C 88.5,-0.5 177.5,-0.5 266.5,-0.5C 266.5,58.8333 266.5,118.167 266.5,177.5C 259.696,231.815 231.03,269.648 180.5,291C 169.275,294.806 157.941,297.64 146.5,299.5C 137.833,299.5 129.167,299.5 120.5,299.5C 59.0177,290.191 19.851,255.525 3,195.5C 1.76993,188.366 0.603266,181.366 -0.5,174.5C -0.5,116.167 -0.5,57.8333 -0.5,-0.5 Z"/></g>
<g><path style="opacity:1" fill="#fe0000" d="M 5.5,5.5 C 47.5,5.5 89.5,5.5 131.5,5.5C 131.5,101.833 131.5,198.167 131.5,294.5C 70.1411,289.959 29.6411,258.626 10,200.5C 8.28129,193.573 6.94796,186.573 6,179.5C 5.50001,121.501 5.33334,63.501 5.5,5.5 Z"/></g>
<g><path style="opacity:1" fill="#fefffe" d="M 134.5,5.5 C 176.5,5.5 218.5,5.5 260.5,5.5C 260.973,66.1948 260.473,126.861 259,187.5C 256.443,203.17 251.11,217.837 243,231.5C 238.333,230.167 235.333,227.167 234,222.5C 233.53,207.126 232.863,191.793 232,176.5C 238.055,181.611 244.888,185.278 252.5,187.5C 250.545,178.133 247.878,168.966 244.5,160C 247.174,160.153 249.84,160.653 252.5,161.5C 252.477,159.073 251.977,156.74 251,154.5C 246.139,146.449 242.139,138.116 239,129.5C 241.205,132.04 243.705,134.207 246.5,136C 248.925,136.986 250.591,136.319 251.5,134C 244.964,125.935 239.964,116.935 236.5,107C 236.833,106.5 237.167,106 237.5,105.5C 239.67,107.086 242.004,108.42 244.5,109.5C 244.833,109 245.167,108.5 245.5,108C 241.363,99.5604 237.363,91.0604 233.5,82.5C 233.833,82.1667 234.167,81.8333 234.5,81.5C 236.5,82.5 238.5,83.5 240.5,84.5C 240.833,84 241.167,83.5 241.5,83C 237.186,75.0596 233.853,66.7262 231.5,58C 233.035,57.5038 234.535,57.6705 236,58.5C 237.28,58.3865 238.113,57.7199 238.5,56.5C 231.321,48.1387 226.821,38.4721 225,27.5C 223,23.5 221,23.5 219,27.5C 216.561,38.2851 213.061,48.6184 208.5,58.5C 210.677,58.4139 212.677,57.7472 214.5,56.5C 214.591,61.6971 212.758,66.3638 209,70.5C 206.37,64.9377 204.37,59.271 203,53.5C 204.11,55.0368 205.61,55.7035 207.5,55.5C 203.793,46.0676 200.626,36.4009 198,26.5C 195.16,23.6293 192.826,23.9626 191,27.5C 188.653,37.1759 185.486,46.5092 181.5,55.5C 183.39,55.7035 184.89,55.0368 186,53.5C 184.63,59.271 182.63,64.9377 180,70.5C 176.242,66.3638 174.409,61.6971 174.5,56.5C 176.323,57.7472 178.323,58.4139 180.5,58.5C 175.939,48.6184 172.439,38.2851 170,27.5C 168,23.5 166,23.5 164,27.5C 162.179,38.4721 157.679,48.1387 150.5,56.5C 150.887,57.7199 151.72,58.3865 153,58.5C 154.465,57.6705 155.965,57.5038 157.5,58C 155.147,66.7262 151.814,75.0596 147.5,83C 147.833,83.5 148.167,84 148.5,84.5C 150.5,83.5 152.5,82.5 154.5,81.5C 154.833,81.8333 155.167,82.1667 155.5,82.5C 151.637,91.0604 147.637,99.5604 143.5,108C 143.833,108.5 144.167,109 144.5,109.5C 146.996,108.42 149.33,107.086 151.5,105.5C 151.833,106 152.167,106.5 152.5,107C 149.036,116.935 144.036,125.935 137.5,134C 138.409,136.319 140.075,136.986 142.5,136C 145.295,134.207 147.795,132.04 150,129.5C 146.861,138.116 142.861,146.449 138,154.5C 137.023,156.74 136.523,159.073 136.5,161.5C 139.16,160.653 141.826,160.153 144.5,160C 141.122,168.966 138.455,178.133 136.5,187.5C 144.112,185.278 150.945,181.611 157,176.5C 156.137,191.793 155.47,207.126 155,222.5C 154.101,226.151 151.934,228.651 148.5,230C 143.845,230.499 139.179,230.666 134.5,230.5C 134.5,155.5 134.5,80.5 134.5,5.5 Z"/></g>
<g><path style="opacity:1" fill="#000000" d="M 85.5,11.5 C 100.53,10.7616 111.363,17.0949 118,30.5C 122.404,42.0514 120.238,52.218 111.5,61C 102.557,67.5789 94.39,66.7456 87,58.5C 83.0907,50.0608 85.2574,43.7274 93.5,39.5C 94.7199,39.8869 95.3865,40.7202 95.5,42C 94.2266,47.0633 96.2266,49.3966 101.5,49C 106.692,39.1309 103.692,32.9642 92.5,30.5C 82.2118,32.2885 76.0451,38.2885 74,48.5C 73.1717,53.1315 72.6717,57.7982 72.5,62.5C 73.6308,72.8068 74.2975,83.1401 74.5,93.5C 77.8499,93.335 81.1832,93.5017 84.5,94C 88.2942,100.127 86.6275,103.294 79.5,103.5C 79.5,104.833 79.5,106.167 79.5,107.5C 82.5184,107.335 85.5184,107.502 88.5,108C 90.4439,110.153 90.9439,112.653 90,115.5C 88.5557,117.155 86.7224,117.822 84.5,117.5C 85.049,121.221 85.549,124.888 86,128.5C 84.7365,130.607 82.9032,131.607 80.5,131.5C 84.7255,166.518 89.0588,201.518 93.5,236.5C 90.383,236.358 87.883,235.024 86,232.5C 81.8413,225.184 78.508,217.517 76,209.5C 74.5595,217.81 73.2262,226.143 72,234.5C 69.4444,243.258 66.1111,251.592 62,259.5C 57.8889,251.592 54.5556,243.258 52,234.5C 50.7738,226.143 49.4405,217.81 48,209.5C 45.2897,218.753 41.123,227.253 35.5,235C 33.9751,236.009 32.3084,236.509 30.5,236.5C 34.9412,201.518 39.2745,166.518 43.5,131.5C 40.6755,131.919 38.5088,130.919 37,128.5C 37.451,124.888 37.951,121.221 38.5,117.5C 33.0115,117.496 31.1781,114.829 33,109.5C 33.5,109 34,108.5 34.5,108C 37.4816,107.502 40.4816,107.335 43.5,107.5C 43.5,106.167 43.5,104.833 43.5,103.5C 36.3725,103.294 34.7058,100.127 38.5,94C 40.8098,93.5034 43.1432,93.3367 45.5,93.5C 47.3965,74.1855 50.8965,55.1855 56,36.5C 61.4333,22.8947 71.2666,14.5614 85.5,11.5 Z"/></g>
<g><path style="opacity:1" fill="#fefffe" d="M 87.5,13.5 C 104.539,15.0363 114.873,24.203 118.5,41C 117.386,52.7601 111.22,60.2601 100,63.5C 91.7857,61.6409 87.7857,56.6409 88,48.5C 90.2956,42.1447 91.9623,42.1447 93,48.5C 96.3291,53.0573 100.162,53.5573 104.5,50C 109.566,37.6677 105.566,30.5011 92.5,28.5C 78.0745,30.4344 70.9078,38.7677 71,53.5C 70.7684,66.8547 71.2684,80.188 72.5,93.5C 64.1667,93.5 55.8333,93.5 47.5,93.5C 49.6557,74.889 53.1557,56.5556 58,38.5C 63.4333,24.8947 73.2666,16.5614 87.5,13.5 Z"/></g>
<g><path style="opacity:1" fill="#009943" d="M 194.5,26.5 C 197.374,34.2734 200.374,42.1067 203.5,50C 202.863,51.7126 201.863,51.8793 200.5,50.5C 199.386,51.723 199.219,53.0563 200,54.5C 202.252,61.5931 205.085,68.4264 208.5,75C 206.331,75.4294 204.331,74.9294 202.5,73.5C 202.167,73.8333 201.833,74.1667 201.5,74.5C 204.851,85.2123 209.184,95.5457 214.5,105.5C 211.913,104.876 209.247,103.543 206.5,101.5C 206.167,102 205.833,102.5 205.5,103C 208.336,113.518 212.336,123.518 217.5,133C 214.735,132.28 212.401,130.613 210.5,128C 209.365,127.251 208.365,127.417 207.5,128.5C 210.38,138.138 214.046,147.472 218.5,156.5C 218.167,156.833 217.833,157.167 217.5,157.5C 215.929,155.585 213.929,154.585 211.5,154.5C 214.125,164.541 217.458,174.374 221.5,184C 221.167,184.5 220.833,185 220.5,185.5C 214.032,182.599 207.365,180.266 200.5,178.5C 199.833,178.833 199.167,179.167 198.5,179.5C 199.579,193.821 200.746,208.154 202,222.5C 206.667,235.833 211.333,235.833 216,222.5C 216.975,210.812 218.141,199.145 219.5,187.5C 221.901,189.062 223.901,188.729 225.5,186.5C 222.461,177.881 219.127,169.381 215.5,161C 215.667,160.5 215.833,160 216,159.5C 218.896,161.533 222.063,162.866 225.5,163.5C 220.14,154.772 215.806,145.439 212.5,135.5C 212.667,135.167 212.833,134.833 213,134.5C 215.703,136.902 218.87,138.235 222.5,138.5C 220.559,133.285 218.059,128.285 215,123.5C 212.892,117.853 211.225,112.187 210,106.5C 212.257,108.046 214.424,109.712 216.5,111.5C 217.72,111.113 218.387,110.28 218.5,109C 216.442,103.55 214.108,98.2163 211.5,93C 213.078,87.6766 215.078,82.5099 217.5,77.5C 215.892,76.7579 214.225,76.5913 212.5,77C 211.707,75.9148 211.04,74.7481 210.5,73.5C 214.402,67.1313 217.736,60.4646 220.5,53.5C 218.087,53.246 215.754,53.246 213.5,53.5C 216.332,44.8391 219.166,36.1724 222,27.5C 223.974,32.7284 225.641,38.0618 227,43.5C 229.088,47.6766 231.088,51.6766 233,55.5C 231.192,53.1568 229.026,52.4901 226.5,53.5C 230.331,61.8305 233.664,70.3305 236.5,79C 234.326,78.0628 231.993,77.2294 229.5,76.5C 231.638,85.9459 235.305,94.7793 240.5,103C 238.035,102.435 235.702,101.268 233.5,99.5C 234.482,112.31 239.482,123.477 248.5,133C 247.833,133.667 247.167,133.667 246.5,133C 243.405,128.715 239.405,125.882 234.5,124.5C 238.002,136.005 243.002,146.839 249.5,157C 246.246,156.303 243.246,154.803 240.5,152.5C 242.611,162.522 245.611,172.522 249.5,182.5C 247.477,183.041 245.477,182.541 243.5,181C 239.394,178.867 235.561,176.367 232,173.5C 231.228,173.645 230.561,173.978 230,174.5C 230.765,191.141 231.431,207.807 232,224.5C 233.462,229.818 236.962,232.651 242.5,233C 216.864,271.424 180.864,291.924 134.5,294.5C 134.5,273.833 134.5,253.167 134.5,232.5C 139.844,232.666 145.177,232.499 150.5,232C 153.934,230.651 156.101,228.151 157,224.5C 157.569,207.807 158.235,191.141 159,174.5C 157.951,173.483 156.784,173.316 155.5,174C 150.838,177.666 145.838,180.833 140.5,183.5C 142.513,173.61 145.513,163.776 149.5,154C 149.167,153.5 148.833,153 148.5,152.5C 145.754,154.803 142.754,156.303 139.5,157C 145.998,146.839 150.998,136.005 154.5,124.5C 149.595,125.882 145.595,128.715 142.5,133C 141.833,133.667 141.167,133.667 140.5,133C 149.518,123.477 154.518,112.31 155.5,99.5C 153.298,101.268 150.965,102.435 148.5,103C 153.695,94.7793 157.362,85.9459 159.5,76.5C 157.007,77.2294 154.674,78.0628 152.5,79C 155.336,70.3305 158.669,61.8305 162.5,53.5C 159.974,52.4901 157.808,53.1568 156,55.5C 157.912,51.6766 159.912,47.6766 162,43.5C 163.359,38.0618 165.026,32.7284 167,27.5C 169.834,36.1724 172.668,44.8391 175.5,53.5C 173.246,53.246 170.913,53.246 168.5,53.5C 171.264,60.4646 174.598,67.1313 178.5,73.5C 177.96,74.7481 177.293,75.9148 176.5,77C 174.775,76.5913 173.108,76.7579 171.5,77.5C 173.922,82.5099 175.922,87.6766 177.5,93C 174.892,98.2163 172.558,103.55 170.5,109C 170.613,110.28 171.28,111.113 172.5,111.5C 174.576,109.712 176.743,108.046 179,106.5C 177.775,112.187 176.108,117.853 174,123.5C 170.941,128.285 168.441,133.285 166.5,138.5C 170.13,138.235 173.297,136.902 176,134.5C 176.167,134.833 176.333,135.167 176.5,135.5C 173.194,145.439 168.86,154.772 163.5,163.5C 166.937,162.866 170.104,161.533 173,159.5C 173.167,160 173.333,160.5 173.5,161C 169.873,169.381 166.539,177.881 163.5,186.5C 165.099,188.729 167.099,189.062 169.5,187.5C 170.859,199.145 172.025,210.812 173,222.5C 177.667,235.833 182.333,235.833 187,222.5C 188.254,208.154 189.421,193.821 190.5,179.5C 187.861,178.644 185.194,178.81 182.5,180C 177.945,182.11 173.278,183.944 168.5,185.5C 168.167,185 167.833,184.5 167.5,184C 171.542,174.374 174.875,164.541 177.5,154.5C 175.071,154.585 173.071,155.585 171.5,157.5C 171.167,157.167 170.833,156.833 170.5,156.5C 174.954,147.472 178.62,138.138 181.5,128.5C 180.635,127.417 179.635,127.251 178.5,128C 170.273,135.631 169.44,134.798 176,125.5C 178.504,117.989 181.004,110.489 183.5,103C 183.167,102.5 182.833,102 182.5,101.5C 179.753,103.543 177.087,104.876 174.5,105.5C 179.816,95.5457 184.149,85.2123 187.5,74.5C 187.167,74.1667 186.833,73.8333 186.5,73.5C 184.669,74.9294 182.669,75.4294 180.5,75C 183.915,68.4264 186.748,61.5931 189,54.5C 189.781,53.0563 189.614,51.723 188.5,50.5C 187.391,51.5896 186.391,51.5896 185.5,50.5C 188.901,42.6265 191.901,34.6265 194.5,26.5 Z"/></g>
<g><path style="opacity:1" fill="#fefffe" d="M 175.5,79.5 C 178.271,79.4207 180.937,79.9207 183.5,81C 181.873,83.7542 180.373,86.5875 179,89.5C 177.83,86.1478 176.664,82.8145 175.5,79.5 Z"/></g>
<g><path style="opacity:1" fill="#fefffe" d="M 208.5,79.5 C 210.288,79.2148 211.955,79.5481 213.5,80.5C 212.181,83.4423 211.015,86.4423 210,89.5C 208.627,86.5875 207.127,83.7542 205.5,81C 206.737,80.7679 207.737,80.2679 208.5,79.5 Z"/></g>
<g><path style="opacity:1" fill="#fefffe" d="M 39.5,96.5 C 54.1667,96.5 68.8333,96.5 83.5,96.5C 83.5,97.8333 83.5,99.1667 83.5,100.5C 68.8333,100.5 54.1667,100.5 39.5,100.5C 39.5,99.1667 39.5,97.8333 39.5,96.5 Z"/></g>
<g><path style="opacity:1" fill="#fefffe" d="M 46.5,103.5 C 56.5,103.5 66.5,103.5 76.5,103.5C 76.5,104.833 76.5,106.167 76.5,107.5C 66.5,107.5 56.5,107.5 46.5,107.5C 46.5,106.167 46.5,104.833 46.5,103.5 Z"/></g>
<g><path style="opacity:1" fill="#fefffe" d="M 35.5,110.5 C 52.8333,110.5 70.1667,110.5 87.5,110.5C 87.5,111.833 87.5,113.167 87.5,114.5C 70.1667,114.5 52.8333,114.5 35.5,114.5C 35.5,113.167 35.5,111.833 35.5,110.5 Z"/></g>
<g><path style="opacity:1" fill="#fefffe" d="M 41.5,117.5 C 54.8333,117.5 68.1667,117.5 81.5,117.5C 81.5,118.833 81.5,120.167 81.5,121.5C 68.1667,121.5 54.8333,121.5 41.5,121.5C 41.5,120.167 41.5,118.833 41.5,117.5 Z"/></g>
<g><path style="opacity:1" fill="#fefffe" d="M 41.5,124.5 C 54.8375,124.333 68.1708,124.5 81.5,125C 82.8333,126 82.8333,127 81.5,128C 68.1667,128.667 54.8333,128.667 41.5,128C 40.3157,126.855 40.3157,125.688 41.5,124.5 Z"/></g>
<g><path style="opacity:1" fill="#fefffe" d="M 45.5,131.5 C 56.5,131.5 67.5,131.5 78.5,131.5C 81.6894,164.806 86.0228,197.972 91.5,231C 91.3333,231.833 91.1667,232.667 91,233.5C 84.1689,224.336 79.3356,214.169 76.5,203C 76.1501,201.743 75.4835,201.409 74.5,202C 73.284,220.497 69.1173,238.33 62,255.5C 54.8827,238.33 50.716,220.497 49.5,202C 48.5165,201.409 47.8499,201.743 47.5,203C 44.6644,214.169 39.8311,224.336 33,233.5C 35.7338,211.512 38.7338,189.512 42,167.5C 43.6619,155.54 44.8286,143.54 45.5,131.5 Z"/></g>
<g><path style="opacity:1" fill="#fefffe" d="M -0.5,174.5 C 0.603266,181.366 1.76993,188.366 3,195.5C 19.851,255.525 59.0177,290.191 120.5,299.5C 80.1667,299.5 39.8333,299.5 -0.5,299.5C -0.5,257.833 -0.5,216.167 -0.5,174.5 Z"/></g>
<g><path style="opacity:1" fill="#fefffe" d="M 266.5,177.5 C 266.5,218.167 266.5,258.833 266.5,299.5C 226.5,299.5 186.5,299.5 146.5,299.5C 157.941,297.64 169.275,294.806 180.5,291C 231.03,269.648 259.696,231.815 266.5,177.5 Z"/></g>
<g><path style="opacity:1" fill="#fefffe" d="M 184.5,181.5 C 185.5,181.5 186.5,181.5 187.5,181.5C 187.278,194.545 186.445,207.545 185,220.5C 183.587,223.661 181.92,226.661 180,229.5C 178.08,226.661 176.413,223.661 175,220.5C 173.395,209.174 172.895,197.841 173.5,186.5C 177.376,185.058 181.043,183.391 184.5,181.5 Z"/></g>
<g><path style="opacity:1" fill="#fefffe" d="M 201.5,181.5 C 206.35,182.589 211.017,184.255 215.5,186.5C 216.105,197.841 215.605,209.174 214,220.5C 212.587,223.661 210.92,226.661 209,229.5C 205.609,225.053 203.609,220.053 203,214.5C 202.342,203.504 201.842,192.504 201.5,181.5 Z"/></g>
</svg>
