<svg xmlns="http://www.w3.org/2000/svg" width="267" height="300" style="shape-rendering:geometricPrecision;text-rendering:geometricPrecision;image-rendering:optimizeQuality;fill-rule:evenodd;clip-rule:evenodd"><path style="opacity:1" d="M-.5-.5h267v178c-6.804 54.315-35.47 92.148-86 113.5-11.225 3.806-22.559 6.64-34 8.5h-26C59.018 290.191 19.851 255.525 3 195.5a1864.598 1864.598 0 0 1-3.5-21V-.5z"/><path style="opacity:1" fill="#fe0000" d="M5.5 5.5c62.334-.167 124.668 0 187 .5L8 190.5a73.675 73.675 0 0 1-2-11c-.5-57.999-.667-115.999-.5-174z"/><path style="opacity:1" fill="#fefffe" d="M198.5 5.5h62c.167 21.67 0 43.336-.5 65a56676.097 56676.097 0 0 1-200.5 200c-25.844-18.695-42.844-43.528-51-74.5a51163.555 51163.555 0 0 0 190-190.5z"/><path style="opacity:1" d="M195.5 66.5h4a4189.102 4189.102 0 0 1-54 110c-.502 1.021-1.168 1.188-2 .5L131 164.5l-17 17a267.498 267.498 0 0 0-11 19c-7.576 9.658-16.742 11.492-27.5 5.5-8.739-6.897-14.405-15.73-17-26.5.803-6.44 3.803-11.607 9-15.5a237.57 237.57 0 0 0 36.5-24.5c.667-.667.667-1.333 0-2l-15-15c-.667-.667-.667-1.333 0-2a15823.844 15823.844 0 0 0 106.5-54z"/><path style="opacity:1" fill="#0291dd" d="M190.5 73.5a2.427 2.427 0 0 1 2 .5 11463.89 11463.89 0 0 0-45.5 90.5l-14-14c-1.833-7.167-6.333-11.667-13.5-13.5l-18-18c29.728-15.197 59.394-30.363 89-45.5z"/><path style="opacity:1" fill="#fe0000" d="M259.5 76.5c.667 17.163 1 34.497 1 52a932.681 932.681 0 0 1-1.5 59c-9.582 45.909-35.749 78.409-78.5 97.5-41.008 15.151-80.008 11.151-117-12a54425.658 54425.658 0 0 0 196-196.5z"/><path style="opacity:1" fill="#0291dd" d="M96.5 120.5a138.7 138.7 0 0 1 14 14c-.865 1.083-1.865 1.249-3 .5l-13-13c.916-.278 1.582-.778 2-1.5zM113.5 138.5a19.177 19.177 0 0 1 5 2.5c-9.504 5.495-17.837 12.495-25 21a93.316 93.316 0 0 0-13.5 8.5 27.027 27.027 0 0 1-7.5-4 449.86 449.86 0 0 0 41-28zM122.5 143.5c.876-.131 1.543.202 2 1a46.928 46.928 0 0 1-4.5 8l-20 20a207.51 207.51 0 0 0-13 24c-.718.951-1.55 1.117-2.5.5-5.094-4.421-9.427-9.421-13-15a491.261 491.261 0 0 1 25-17c7.4-8.918 16.067-16.085 26-21.5zM126.5 148.5c4.194 3.8 4.694 8.133 1.5 13l-17 17-10 16a46.643 46.643 0 0 1-5.5-6 62.68 62.68 0 0 1 7.5-13l20-20a17.341 17.341 0 0 0 3.5-7zM133.5 157.5a147.277 147.277 0 0 1 10.5 10c.749 1.135.583 2.135-.5 3-4.966-3.272-8.299-7.606-10-13z"/><path style="opacity:1" fill="#0291dd" d="M67.5 169.5a28.535 28.535 0 0 1 9 4.5 103.333 103.333 0 0 0-8.5 4.5c-.84 3.62-.174 6.954 2 10 4.2 4.534 8.7 8.701 13.5 12.5 4.99.87 7.99-1.296 9-6.5.502-1.021 1.168-1.188 2-.5 3.143 7.19.643 11.357-7.5 12.5-12.53-5.031-20.697-14.031-24.5-27 .615-3.897 2.282-7.23 5-10z"/><path style="opacity:1" fill="#fefffe" d="M-.5 174.5c1.103 6.866 2.27 13.866 3.5 21 16.851 60.025 56.018 94.691 117.5 104H-.5v-125zM266.5 177.5v122h-120c11.441-1.86 22.775-4.694 34-8.5 50.53-21.352 79.196-59.185 86-113.5z"/></svg>