<svg xmlns="http://www.w3.org/2000/svg" width="267" height="300" style="shape-rendering:geometricPrecision;text-rendering:geometricPrecision;image-rendering:optimizeQuality;fill-rule:evenodd;clip-rule:evenodd"><path style="opacity:1" d="M-.5-.5h267v175c-6.913 59.422-38.579 99.256-95 119.5a219.78 219.78 0 0 1-26 5.5h-25C59.018 290.191 19.851 255.525 3 195.5a1864.598 1864.598 0 0 1-3.5-21V-.5z"/><path style="opacity:1" fill="#fe0000" d="M5.5 5.5h255a5611.275 5611.275 0 0 1-1.5 181 32.444 32.444 0 0 1-1.5 6 150.545 150.545 0 0 1-30 .5c-.88-1.356-1.214-2.856-1-4.5h-7c.214 1.644-.12 3.144-1 4.5a342.33 342.33 0 0 1-37 0c-.88-1.356-1.214-2.856-1-4.5h-7c.214 1.644-.12 3.144-1 4.5-7.659.5-15.326.666-23 .5-.166-8.007 0-16.007.5-24 2.339-4.756 5.839-5.923 10.5-3.5 3.956 4.634 8.456 8.468 13.5 11.5 2.484-.326 4.651-1.326 6.5-3 3.242 3.827 6.575 3.827 10 0 5.564 4.112 11.564 4.945 18 2.5.655-1.487 1.655-2.653 3-3.5 6.651 5.002 10.651 3.335 12-5-.348-2.197-1.348-4.03-3-5.5l-12-6-14 2c-5.865-2.86-10.865-6.86-15-12a44.786 44.786 0 0 0-16-5 6.978 6.978 0 0 1-3.5-2.5 49.944 49.944 0 0 0 0-11c-2.006-3.172-4.506-5.838-7.5-8 .712-1.546 1.878-2.546 3.5-3 1.944.939 3.611 2.273 5 4a88.713 88.713 0 0 0 5.5 16.5c5.414 4.092 10.748 4.258 16 .5 1.187 4.541 3.52 8.375 7 11.5 4.907 1.622 8.574.288 11-4h6c2.257-3.238 2.59-6.738 1-10.5 4.003-.77 5.503-3.104 4.5-7a55.506 55.506 0 0 0-13.5-5.5c-3.262-2.592-5.762-5.759-7.5-9.5-6.082-3.632-12.416-3.965-19-1a16.2 16.2 0 0 1-3.5-1.5 196.284 196.284 0 0 1-9.5-20.5 220.835 220.835 0 0 1-16-12l-1.5-3c4.404-3.925 8.238-3.258 11.5 2a28.425 28.425 0 0 0 4.5 7.5 131.576 131.576 0 0 0 14 6.5l3-.5a67.843 67.843 0 0 1 5-6.5c2.156 2.438 4.489 2.605 7 .5 5.066-7.88 3.066-13.214-6-16-3.04-.32-6.04-.32-9 0-5.741-6.87-13.074-10.537-22-11-4.69-2.881-6.523-7.048-5.5-12.5a18.085 18.085 0 0 1 3.5-2 19.742 19.742 0 0 1 5 5.5c7.983 2.685 10.816-.148 8.5-8.5-4.816-4.28-10.316-7.446-16.5-9.5-4.472-3.78-6.639-8.613-6.5-14.5-7.515-3.742-11.181-1.409-11 7-1.061 3.062-2.894 5.562-5.5 7.5-6.184 2.054-11.684 5.22-16.5 9.5-2.316 8.352.517 11.185 8.5 8.5a19.742 19.742 0 0 1 5-5.5c2.839.502 4.172 2.169 4 5-1.115 8.071-5.782 11.571-14 10.5-5.723 1.861-10.39 5.194-14 10-7.988-1.67-13.988.996-18 8 .096 4.72 2.263 7.887 6.5 9.5a11.074 11.074 0 0 0 3.5-2 67.762 67.762 0 0 1 5 6.5l3 .5a131.567 131.567 0 0 0 14-6.5 28.425 28.425 0 0 0 4.5-7.5c3.262-5.258 7.096-5.925 11.5-2l-1.5 3a220.835 220.835 0 0 1-16 12 196.284 196.284 0 0 1-9.5 20.5 16.199 16.199 0 0 1-3.5 1.5c-6.3-2.744-12.467-2.577-18.5.5-1.946 3.881-4.612 7.214-8 10a55.51 55.51 0 0 0-13.5 5.5c-1.003 3.896.497 6.23 4.5 7-1.59 3.762-1.257 7.262 1 10.5h6c2.426 4.288 6.093 5.622 11 4 3.48-3.125 5.814-6.959 7-11.5 5.252 3.758 10.585 3.592 16-.5a88.713 88.713 0 0 0 5.5-16.5c1.389-1.727 3.056-3.061 5-4 1.622.454 2.788 1.454 3.5 3-2.994 2.162-5.494 4.828-7.5 8a49.944 49.944 0 0 0 0 11c-3.924 3.086-8.424 4.586-13.5 4.5-5.865 2.86-10.865 6.86-15 12l-6 3-14-2-12 6c-4.207 5.351-3.374 9.851 2.5 13.5a57.202 57.202 0 0 0 6.5-3c2.278 3.55 5.611 5.217 10 5 3.953-.473 7.62-1.807 11-4 3.425 3.827 6.758 3.827 10 0 2.539 2.54 5.539 3.374 9 2.5l11-11c4.661-2.423 8.161-1.256 10.5 3.5.5 7.993.666 15.993.5 24-7.674.166-15.341 0-23-.5-.88-1.356-1.213-2.856-1-4.5h-7c.213 1.644-.12 3.144-1 4.5a342.33 342.33 0 0 1-37 0c-.88-1.356-1.214-2.856-1-4.5h-7c.214 1.644-.12 3.144-1 4.5a150.546 150.546 0 0 1-30-.5 32.412 32.412 0 0 1-1.5-6 5610.871 5610.871 0 0 1-1.5-181z"/><path style="opacity:1" fill="#009943" d="M131.5 18.5c1.322-.17 2.489.163 3.5 1 .827 10.834 6.66 17.334 17.5 19.5a15.854 15.854 0 0 1 6 5.5c-.333 1-1 1.667-2 2a19.742 19.742 0 0 1-5-5.5c-3.498-1.967-6.832-1.633-10 1-1.624 5.68-1.124 11.18 1.5 16.5a6.977 6.977 0 0 0 3.5 2.5c5.867-.068 11.2 1.599 16 5a39.793 39.793 0 0 0 8 7c6.261-1.857 11.261-.19 15 5-.188 1.882-1.188 3.049-3 3.5-2.375-1.083-4.708-1.083-7 0-.8 2.633-2.3 4.633-4.5 6a155.816 155.816 0 0 0-10.5-5.5 51.255 51.255 0 0 0-8-11c-6.594-3.7-11.594-2.2-15 4.5a23.609 23.609 0 0 0 2.5 6 220.835 220.835 0 0 0 16 12 196.284 196.284 0 0 0 9.5 20.5 14.378 14.378 0 0 0 6.5 1.5 232.712 232.712 0 0 1 11.5-1.5l4 2c1.907 3.91 4.573 7.244 8 10a86.299 86.299 0 0 1 12 4.5c-2.568.452-3.901 1.952-4 4.5a63.83 63.83 0 0 1 2 7.5c-2.708-.949-5.374-.949-8 0-2.177 6.175-5.01 6.509-8.5 1a101.453 101.453 0 0 0-4.5-10.5l-2-.5a25.962 25.962 0 0 1-7 5 23.597 23.597 0 0 1-6-2.5 43.334 43.334 0 0 1-4.5-14.5c-2.815-5.669-7.315-7.502-13.5-5.5-2.79 2.21-3.623 5.044-2.5 8.5 3.692 2.192 6.526 5.192 8.5 9-1.6 4.088-1.266 7.922 1 11.5a104.011 104.011 0 0 1 18 6c4.135 5.14 9.135 9.14 15 12 4.954.746 9.787.246 14.5-1.5a60.985 60.985 0 0 1 13 7c.236 1.8-.264 3.466-1.5 5a12.795 12.795 0 0 0-6-3 3572.116 3572.116 0 0 0-10 6 81.524 81.524 0 0 0-11-5 16.229 16.229 0 0 0-5 2c-3.929-2.77-7.596-2.437-11 1a89.206 89.206 0 0 0-15-12.5c-4.188-.639-8.188-.306-12 1l-3.5-3.5c-.197-3.554-1.364-6.721-3.5-9.5a23.403 23.403 0 0 1 4.5-6.5 8.43 8.43 0 0 0 .5-4c-6.627 2.239-9.46 6.906-8.5 14a125.684 125.684 0 0 1 6.5 12.5c-.598 1.301-1.598 2.135-3 2.5-2.764-1.261-5.097-3.095-7-5.5a45.992 45.992 0 0 0-9-2.5c-2.409.87-4.742.87-7 0a18.68 18.68 0 0 1 6.5-6c.741-3.062.575-6.062-.5-9 2.699-2.398 4.033-5.398 4-9a4.934 4.934 0 0 0-3 .5c-3.957 3.794-4.957 8.294-3 13.5-4.042 2.878-7.209 6.545-9.5 11a86.748 86.748 0 0 0-9.5 2.5 163.246 163.246 0 0 1-11 10.5c-3.404-3.437-7.07-3.77-11-1a16.226 16.226 0 0 0-5-2 81.536 81.536 0 0 0-11 5 3572.116 3572.116 0 0 0-10-6 12.797 12.797 0 0 0-6 3c-2.291-2.317-2.291-4.484 0-6.5a181.368 181.368 0 0 1 11.5-5.5c7.133 3.095 13.966 2.595 20.5-1.5l9-9a104.003 104.003 0 0 1 18-6c2.266-3.578 2.6-7.412 1-11.5 1.974-3.808 4.808-6.808 8.5-9 .64-8.33-3.193-11.163-11.5-8.5a17.842 17.842 0 0 0-4.5 5.5 43.325 43.325 0 0 1-4.5 14.5c-4.379 3.814-8.046 3.314-11-1.5-1.223-1.114-2.556-1.281-4-.5a101.627 101.627 0 0 0-4.5 10.5c-3.49 5.509-6.323 5.175-8.5-1-2.626-.949-5.292-.949-8 0a63.928 63.928 0 0 1 2-7.5c-.099-2.548-1.432-4.048-4-4.5a86.308 86.308 0 0 1 12-4.5c3.262-2.592 5.762-5.759 7.5-9.5 1.42-.96 2.92-1.793 4.5-2.5 3.781.396 7.614.896 11.5 1.5 2.3.006 4.466-.494 6.5-1.5a196.284 196.284 0 0 0 9.5-20.5 220.835 220.835 0 0 0 16-12c4.319-7.363 2.153-11.696-6.5-13a23.6 23.6 0 0 0-6 2.5 51.255 51.255 0 0 0-8 11A155.913 155.913 0 0 0 95 87.5c-2.2-1.367-3.7-3.367-4.5-6-2.292-1.083-4.625-1.083-7 0-1.812-.451-2.812-1.618-3-3.5 3.74-5.19 8.74-6.857 15-5a39.799 39.799 0 0 0 8-7c4.8-3.401 10.133-5.068 16-5 2.881-1.25 4.714-3.417 5.5-6.5.796-4.255.629-8.422-.5-12.5-3.168-2.633-6.502-2.967-10-1a19.742 19.742 0 0 1-5 5.5c-1-.333-1.667-1-2-2a14.984 14.984 0 0 1 3-3.5 185.249 185.249 0 0 1 14-7c4.653-4.137 6.986-9.304 7-15.5z"/><path style="opacity:1" d="M128.5 53.5h3a15.417 15.417 0 0 1-1 7c1.667 1.333 3.333 1.333 5 0a15.417 15.417 0 0 1-1-7h3c1.086 3.678 1.086 7.345 0 11-3 1.333-6 1.333-9 0-1.086-3.655-1.086-7.322 0-11zM122.5 95.5h4c.117 1.984-.55 3.65-2 5 1.966 3.049 2.466 6.382 1.5 10-3.793 2.18-4.293 4.846-1.5 8 3.333-2.667 6.667-2.667 10 0 1.952-1.728 3.285-3.895 4-6.5l-4-11c.44-3.609 2.44-5.109 6-4.5.117 1.984-.55 3.65-2 5a66.713 66.713 0 0 1 4 10.5c-.66 5.204-3.327 8.704-8 10.5a16.229 16.229 0 0 1-5-2c-7.152 4.039-10.818 1.872-11-6.5 1.02-2.868 2.687-5.368 5-7.5-3.602-3.351-3.935-7.017-1-11z"/><path style="opacity:1" fill="#fefffe" d="M-.5 174.5c1.103 6.866 2.27 13.866 3.5 21 16.851 60.025 56.018 94.691 117.5 104H-.5v-125zM266.5 174.5v125h-121a219.78 219.78 0 0 0 26-5.5c56.421-20.244 88.087-60.078 95-119.5z"/><path style="opacity:1" fill="#fe0000" d="M10.5 200.5c9.34-.166 18.673 0 28 .5a110.58 110.58 0 0 1 .5 25.5c-6.111 1.309-12.278 1.309-18.5 0a108.022 108.022 0 0 1-10-26zM47.5 200.5c12.338-.167 24.671 0 37 .5a110.58 110.58 0 0 1 .5 25.5 237.412 237.412 0 0 1-37.5.5 89.163 89.163 0 0 1 0-26.5zM93.5 200.5h22a80.15 80.15 0 0 1-6.5 24c-2.396 2.513-5.396 3.513-9 3a26.715 26.715 0 0 1-7-1 116.517 116.517 0 0 1 .5-26zM150.5 200.5c7.587-.314 15.087.019 22.5 1 .816 8.579.649 17.079-.5 25.5-9.785 3.335-15.951.168-18.5-9.5a103.327 103.327 0 0 1-3.5-17zM181.5 200.5c12.338-.167 24.671 0 37 .5a110.563 110.563 0 0 1 .5 25.5 237.411 237.411 0 0 1-37.5.5 89.163 89.163 0 0 1 0-26.5zM227.5 200.5h28a108.013 108.013 0 0 1-10 26c-6.222 1.309-12.389 1.309-18.5 0a116.517 116.517 0 0 1 .5-26z"/><path style="opacity:1" fill="#009943" d="M23.5 230.5c73.003-.333 146.003 0 219 1-25.331 39.929-61.831 60.929-109.5 63-42.235-1.95-76.568-19.284-103-52a105.016 105.016 0 0 1-6.5-12z"/></svg>