<svg xmlns="http://www.w3.org/2000/svg" width="500" height="560" viewBox="-176.966 -215.01 500 560" xml:space="preserve"><path d="M-172.966-211.01V94.364c.039 136.22 110.165 246.626 246 246.626 135.835 0 245.961-110.407 246-246.626V-211.01z" style="fill:#fff;fill-opacity:1;stroke:#000;stroke-width:8.00004;stroke-miterlimit:4;stroke-dasharray:none"/><path style="fill:#000;fill-opacity:1;stroke:none;stroke-width:1px;stroke-linecap:butt;stroke-linejoin:miter;stroke-opacity:1" d="M100.573-185.319c-1.017.011-2.033.06-3.045.141-5.14.41-10.204 1.619-15.04 3.408-3.605 1.334-7.097 2.991-10.352 5.033-1.564.981-3.073 2.05-4.69 2.94-.636.35-1.297.675-2.008.826-.71.15-1.48.113-2.119-.232-.36-.195-.664-.477-.96-.758-.297-.282-.595-.568-.948-.774a2.51 2.51 0 0 0-2.176-.166 2.193 2.193 0 0 0-1.105.973c-.249.463-.306 1.014-.227 1.533.079.52.285 1.013.535 1.475.12.221.252.438.328.678.039.12.063.245.063.37a.84.84 0 0 1-.08.366.818.818 0 0 1-.25.295 1.063 1.063 0 0 1-.35.166c-.25.069-.514.057-.771.025-.258-.032-.513-.085-.772-.115a2.195 2.195 0 0 0-.775.027 1.626 1.626 0 0 0-.791.473 2 2 0 0 0-.447.81c-.088.306-.112.63-.06.944.05.313.177.615.368.869.254.337.613.58.98.787.368.207.752.386 1.098.627a3.563 3.563 0 0 1 1.46 2.256c.158.879-.047 1.701-.397 2.61-.35.908-4.97 10.19-7.254 13.929-1.48 2.358-4.467 5.097-8.756 6.81-1.013.42-2.107.631-3.096 1.106a5.062 5.062 0 0 0-1.443 1.012c-.412.423-.738.94-.9 1.508-.204.71-.148 1.481.078 2.185.225.704.615 1.347 1.072 1.928.639.813 1.41 1.515 2.21 2.168 1.553 1.265 3.244 2.372 4.645 3.803.351.358.684.737.948 1.164.264.426.457.902.511 1.4.083.755-.155 1.504-.265 2.256-.043.293-.067.594 0 .883.059.257.187.494.346.705.158.21.347.397.539.578.676.637 1.407 1.222 1.99 1.945.144.179.278.367.377.574.099.207.16.435.152.664-.012.334-.169.648-.367.916-.199.27-.439.506-.649.766a3.802 3.802 0 0 0-.714 1.375 3.169 3.169 0 0 0-.037 1.543c.097.42.286.811.486 1.193.599 1.148 1.307 2.255 1.68 3.495.236.787.33 1.634.132 2.431-.146.589-.446 1.132-.574 1.725a3.505 3.505 0 0 0 .043 1.594 4.79 4.79 0 0 0 .664 1.459c.527.794 1.24 1.446 1.99 2.033.759.592 1.573 1.13 2.477 1.459 1.156.42 2.403.479 3.625.619.999.114 2.006.289 2.92.707 1.19.545 2.19 1.511 2.74 2.7.423.912.578 1.93.567 2.937-.012 1.005-.183 2.003-.39 2.988-.19.916-.418 1.84-.884 2.652-.504.878-1.262 1.582-1.812 2.432a4.133 4.133 0 0 0-.534 1.14 2.521 2.521 0 0 0-.04 1.249c.083.35.255.675.474.96.22.286.483.535.762.764.385.317.808.601 1.283.752.68.216 1.412.145 2.123.088 4.116-.33 8.254-.118 12.383-.088 3.967.03 7.944-.108 11.894.266a43.27 43.27 0 0 1 5.352.84c2.004.447 3.99 1.052 5.793 2.033.331.18.657.375.945.619.289.243.54.539.69.885.233.535.208 1.166-.018 1.705-.226.538-.64.987-1.13 1.303a3.786 3.786 0 0 1-1.706.572 4.448 4.448 0 0 1-1.789-.219c-1.09-.362-2.015-1.094-3.05-1.592a7.332 7.332 0 0 0-2.212-.664c-1.127-.148-2.27-.022-3.406.045-4.201.248-8.4-.313-12.602-.574-5.474-.34-10.967-.168-16.45-.266-1.21-.021-2.426-.056-3.628.088-.974.117-1.929.352-2.873.62-1.666.472-3.305 1.05-4.998 1.413-2.622.562-5.323.595-8.004.664-1.403.037-2.809.084-4.2.266-3.38.442-6.597 1.668-9.817 2.785-4.382 1.52-8.869 2.861-13.488 3.274-1.506.134-3.039.166-4.51-.178-1.445-.338-2.792-1.031-4.246-1.326-.702-.143-1.446-.187-2.123.045-.728.248-1.325.802-1.725 1.459-.685 1.125-.811 2.49-.928 3.802-.26 2.932-.555 5.91 0 8.801.46 2.392 1.513 4.686 3.139 6.5a12.49 12.49 0 0 0 3.14 2.522c.68.385 1.432.713 2.211.662.44-.03.865-.18 1.249-.397a5.605 5.605 0 0 0 1.05-.797c.602-.56 1.155-1.207 1.903-1.548.25-.115.518-.19.793-.206.274-.014.554.036.798.163.215.11.396.278.541.47.146.193.256.41.344.635.32.812.362 1.736.088 2.565-.354 1.071-1.189 1.914-2.078 2.609-1.617 1.263-3.566 2.193-5.617 2.256-1.752.053-3.49-.537-4.957-1.496-1.467-.96-2.676-2.276-3.666-3.723-1.357-1.982-2.32-4.216-2.985-6.523-.446-1.55-.76-3.144-.84-4.754-.053-1.075-.002-2.154-.066-3.229-.063-1.073-.24-2.134-.336-3.205-.095-1.07-.106-2.165.158-3.207.276-1.087.84-2.073 1.305-3.094.499-1.093.89-2.236 1.46-3.295.752-1.402 1.831-2.654 3.206-3.455.402-.234.848-.435 1.313-.408.291.017.572.124.82.277.248.154.465.355.664.569.305.327.573.688.893 1 .928.905 2.27 1.327 3.564 1.25.613-.037 1.214-.177 1.813-.313 3.708-.841 7.45-1.532 11.195-2.187 2.972-.52 5.964-1.022 8.818-2.002 1.435-.493 2.834-1.108 4.315-1.44 1.005-.225 2.035-.317 3.064-.375 2.082-.116 4.169-.09 6.254-.125 3.08-.05 6.169-.23 9.193-.812.676-.13 1.35-.28 2.002-.5.616-.207 1.223-.484 1.688-.938.576-.563.878-1.344 1.14-2.105.73-2.118 1.283-4.292 1.858-6.457.071-.268.142-.538.148-.815.006-.276-.058-.565-.236-.777a1.12 1.12 0 0 0-.486-.32 2.608 2.608 0 0 0-.577-.121c-1.085-.13-2.184-.03-3.271.088-3.694.399-7.365.996-11.057 1.416-4.209.478-8.44.728-12.646 1.238-4.35.527-8.663 1.33-13.002 1.945-1.47.208-2.99.392-4.422 0-1.085-.297-2.052-.908-3.006-1.504-10.014-6.257-20.45-11.81-30.691-17.69-12.023-6.902-23.794-14.265-36.135-20.583-1.783-.913-3.581-1.806-5.47-2.47-.636-.224-1.3-.424-1.971-.376a3.767 3.767 0 0 0-1.125.281 5.985 5.985 0 0 0-.846.42 23.21 23.21 0 0 1-3.893-2.035c-1.66-1.08-3.215-2.414-4.156-4.156-.519-.96-.837-2.02-1.018-3.096-.22-1.312-.238-2.65-.22-3.98.02-1.47.079-2.972-.354-4.377-.337-1.096-.96-2.082-1.636-3.008-2.213-3.027-5.047-5.535-7.829-8.049a224.301 224.301 0 0 1-4.73-4.377c-1.13-1.081-2.245-2.183-3.273-3.361-1.219-1.395-2.316-2.895-3.583-4.246-1.133-1.21-2.402-2.296-3.802-3.184a16.153 16.153 0 0 0-4.688-2.033c-1.072-.27-2.216-.42-3.271-.09-.823.257-1.533.788-2.168 1.371a13.4 13.4 0 0 0-1.9 2.168 28.389 28.389 0 0 1-4.335-2.476c-1.86-1.293-3.527-2.46-5.275-3.903-.971-.801-1.99-1.926-2.994-2.687-1.872-1.455-3.745-1.047-5.617-.662a82.018 82.018 0 0 0-11.762 5.04c-4.092 2.147-8.079 4.706-10.967 8.313-2.097 2.62-3.548 5.719-4.512 8.934-1.074 3.586-1.56 7.322-1.857 11.054a114.413 114.413 0 0 0-.266 13.797 587.127 587.127 0 0 0 35.29 35.998l19.546.707a42.943 42.943 0 0 1 8.137 5.706c1.561 1.39 3.06 2.954 3.803 4.908.59 1.552.665 3.247.664 4.908-.003 4.732-.562 9.455-1.508 14.092-1.31 6.422-3.357 12.667-5.002 19.011-2.243 8.654-3.733 17.48-5.379 26.266-1.94 10.364-4.104 20.694-5.504 31.145-.456 3.409-.831 6.828-1.125 10.255a9.412 9.412 0 0 0 1.315 3.373 9.396 9.396 0 0 0 1.902 2.167 687.993 687.993 0 0 0 73.707-10.417c19.749-3.89 39.317-8.646 58.785-13.757 14.84-3.896 29.625-8 44.35-12.309.013.147.013.294 0 .441-.058.674-.382 1.306-.822 1.819-.441.513-.993.916-1.565 1.277-1.518.96-3.194 1.642-4.865 2.301-2.527.996-5.068 1.95-7.606 2.918-4.775 1.821-9.54 3.689-14.417 5.219-3.188 1-6.418 1.855-9.64 2.742-2.249.62-4.59 1.308-6.278 2.918-1.209 1.152-1.977 2.68-2.832 4.113-.417.698-.86 1.38-1.194 2.121-.294.652-.502 1.379-.353 2.078.094.447.33.856.632 1.2.302.343.667.626 1.047.88.715.478 1.488.863 2.211 1.327.909.582 1.74 1.287 2.46 2.091a53.732 53.732 0 0 0 11.755-1.75c3.456-.914 6.813-2.172 10.258-3.127 5.42-1.502 11.024-2.245 16.635-2.627 10.457-.711 20.966-.182 31.394.875 5.794.588 11.57 1.34 17.322 2.252 1.309.767 2.603 1.56 3.88 2.377 1.134.727 2.275 1.483 3.564 1.875.875.267 1.845.352 2.69 0a3.26 3.26 0 0 0 1.161-.845c.323-.36.574-.778.776-1.217.488-1.064.676-2.236.94-3.377.32-1.39.759-2.752 1.312-4.066 1.997-2.297 3.998-4.59 6.004-6.88.598-.683 1.21-1.39 1.5-2.251.359-1.069.167-2.27-.344-3.274-.65-1.276-1.763-2.25-2.918-3.095-.916-.67-1.886-1.289-2.654-2.124-1.275-1.383-1.896-3.263-2.121-5.13-.249-2.061-.054-4.154.353-6.19.433-2.161 1.101-4.268 1.768-6.369 3.003-9.465 5.973-18.94 9.021-28.39.415-1.288.833-2.576 1.15-3.891.357-1.48.583-3.044.176-4.51-.328-1.186-1.067-2.246-2.033-3.008-1.289-1.016-2.908-1.489-4.422-2.123-2.032-.85-3.952-2.05-5.394-3.715-.43-.496-.818-1.035-1.094-1.63-.276-.596-.439-1.25-.41-1.907a3.39 3.39 0 0 1 .795-2.035c.375-.44.87-.78 1.416-.973a592.855 592.855 0 0 1 16.718 12.198c1.964 1.485 3.919 2.986 5.752 4.629 5.497 4.923 9.78 11.02 14.26 16.884 4.78 6.257 9.833 12.303 14.51 18.637 6.067 8.218 11.483 16.895 16.76 25.64a1018.638 1018.638 0 0 1 24.89 43.653 358.777 358.777 0 0 1-.437 40.9 2021.514 2021.514 0 0 1-5.317 6.442c-.897 1.083-1.082 1.336-1.625 2.002-.543.666.043 1.125.063 1.687.02.562.792 2.504 1.187 3.754.396 1.25.918.918 1.375 1.375a129.046 129.046 0 0 0 11.508-8.38c1.442-1.178 2.861-2.389 4.127-3.753 1.105-1.19 2.09-2.493 3.283-3.595a15.276 15.276 0 0 1 1.69-1.344 17.293 17.293 0 0 1 4.033-2.065 144.861 144.861 0 0 0 3.502-8.505c3.425-9.132 5.919-18.581 8.38-28.018 4.106-15.733 8.15-31.531 10.257-47.654.872-6.677 1.41-13.404 1.377-20.137-.068-13.53-2.44-26.944-5.38-40.15a466.502 466.502 0 0 0-10.005-37.524 980.11 980.11 0 0 1 9.13-16.76c1.628-2.919 3.278-5.85 4.378-9.005a28.134 28.134 0 0 0 1.502-7.381 113.184 113.184 0 0 0-37.774-5.88c-7.533.12-15.034.991-22.515 1.878-9.5 1.125-19.007 2.277-28.393 4.127-6.241 1.23-12.43 2.77-18.45 4.828-4.663 1.594-9.22 3.498-13.929 4.953-.733.226-1.492.444-2.254.353-.835-.099-1.582-.557-2.256-1.06-1.546-1.155-2.895-2.638-3.627-4.424-.224-.547-.39-1.147-.265-1.725.08-.367.273-.7.502-1 .228-.299.492-.57.736-.857 1.656-1.946 2.312-4.616 2.123-7.164a12.528 12.528 0 0 0-2.54-6.662c.012-3.151.137-6.301.374-9.443.198-2.624.474-5.25.375-7.88-.088-2.337-.477-4.67-1.252-6.878-1.076-3.067-2.884-5.846-5.064-8.256-2.895-3.2-6.424-5.76-10.069-8.069-3.184-2.017-6.515-3.878-10.132-4.939-2.922-.857-5.973-1.172-9.024-1.14zm122.15 63.705c.244.526.298 1.136.153 1.696-.146.56-.491.816-.96 1.156-1.902 1.146-4.973.948-8.003 1.375-6.565.807-13.066 2.088-19.514 3.565-8.014 1.835-15.96 3.976-23.763 6.566-6.808 2.26-13.506 4.862-20.39 6.88-3.341.98-6.728 1.822-10.005 3-4.53 1.63-8.81 3.886-13.32 5.567-.868.323-1.764.628-2.69.625a4.156 4.156 0 0 1-1.564-.312l-.393-3.121a138.085 138.085 0 0 1 10.776-4.946c7.556-3.083 15.367-5.49 23.164-7.9 9.913-3.065 19.827-6.146 29.892-8.668 9.074-2.274 18.281-4.092 27.596-4.951 3-.277 6.01-.455 9.021-.532zm-287.927 11.012c5.248 2.876 10.48 5.78 15.697 8.711 3.982 2.238 7.956 4.49 11.941 6.72 3.881 2.172 7.774 4.322 11.674 6.458 3.413 1.869 6.841 3.734 9.994 6.014 2.031 1.468 3.94 3.104 6.014 4.511 1.2.815 2.467 1.56 3.47 2.608.547.57 1.016 1.24 1.221 2.002.283 1.05.042 2.172-.343 3.19-.555 1.465-1.4 2.804-2.002 4.251-.621 1.492-.976 3.08-1.313 4.66-.516 2.423-.998 4.856-1.283 7.317-.205 1.765-.309 3.54-.436 5.312-.074 1.044-.164 2.12-.64 3.053a4.165 4.165 0 0 1-1.48 1.613c-.56.355-1.219.58-1.881.553a2.46 2.46 0 0 1-1.02-.26c-.315-.16-.593-.399-.793-.691a2.6 2.6 0 0 1-.387-1 6.53 6.53 0 0 1-.086-1.075c-.018-1.066.025-2.135.188-3.189.236-1.52.719-2.992 1-4.504.474-2.55.367-5.167.564-7.754.061-.8.152-1.605.375-2.377.263-.908.7-1.754 1.063-2.627.61-1.47 1.007-3.036 1.062-4.627.017-.466.001-.95-.187-1.377-.235-.533-.708-.918-1.188-1.25-.983-.68-2.057-1.218-3.127-1.752-1.502-.75-3.008-1.495-4.439-2.375-3.046-1.871-5.7-4.309-8.568-6.443-2.53-1.882-5.226-3.528-7.944-5.127-4.406-2.593-8.89-5.07-13.57-7.129-2.94-1.292-5.957-2.42-8.818-3.879a42.3 42.3 0 0 1-10.243-7.326zM84.684 25.127c-1.806.013-3.613.06-5.418.138-8.168.352-16.3 1.323-24.39 2.5a484.964 484.964 0 0 0-26.022 4.512A6255.103 6255.103 0 0 0-10.06 150.793c-4.85 15.285-9.646 30.597-15.213 45.636a471.193 471.193 0 0 1-15.92 37.854 190.765 190.765 0 0 0 10.516 7.617c3.956 2.665 8.022 5.187 12.32 7.254.5.24 1.006.477 1.455.8.45.325.845.747 1.045 1.265.153.395.185.83.125 1.25a3.521 3.521 0 0 1-.591 1.47c-.3.44-.681.822-1.096 1.156a7.543 7.543 0 0 1-2.44 1.313 19.803 19.803 0 0 1-7.378-4.127 77.508 77.508 0 0 1-6.88 1.688c-3.5.69-7.064 1.142-10.632 1.064-1.362-.03-2.753-.144-4.002-.688-1.264-.55-2.301-1.504-3.315-2.439-1.518-1.4-3.04-2.8-4.566-4.191-1.164-1.062-2.34-2.126-3.69-2.938-1.25-.752-2.623-1.273-4.001-1.752-2.267-.788-4.567-1.478-6.817-2.314-1.9-.706-3.767-1.52-5.504-2.565-2.51-1.511-4.706-3.48-6.941-5.377-3.324-2.82-6.766-5.5-10.194-8.193-3.244-2.55-6.48-5.113-9.82-7.535-1.737-1.26-3.5-2.48-5.252-3.72-1.095-.777-2.224-1.58-3.533-1.878a5.324 5.324 0 0 0-2.564.063c-1.32.357-2.472 1.197-3.377 2.22a9.592 9.592 0 0 0-1.471 2.22 26.206 26.206 0 0 0 1.69 3.753c1.624 2.962 3.802 5.576 5.94 8.191 4.144 5.067 8.194 10.214 12.509 15.135 6.407 7.309 13.38 14.103 20.574 20.639 5.363 4.872 10.855 9.605 16.512 14.133 3.726 2.982 7.57 5.905 11.943 7.818 2.097.917 4.291 1.59 6.441 2.375 2.396.875 4.748 1.893 6.944 3.19 3.425 2.021 6.419 4.684 9.506 7.193 2.436 1.98 4.958 3.884 7.753 5.314 1.797.92 3.706 1.641 5.692 2.002 2.538.462 5.157.33 7.691.813 1.76.334 3.458.962 5.067 1.752 1.329.652 2.652 1.43 4.127 1.562a5.053 5.053 0 0 0 3.377-.937c1.13-.82 1.88-2.072 2.377-3.377.57-1.496.845-3.094.937-4.692.108-1.873-.032-3.75 0-5.627.019-1.11.1-2.224.314-3.314.334-1.692.986-3.304 1.688-4.879.734-1.65 1.529-3.28 2.064-5.004.421-1.354.68-2.804.375-4.19-.373-1.7-1.56-3.125-2.939-4.189-1.49-1.15-3.218-1.946-4.816-2.94-1.19-.738-2.336-1.619-3.065-2.814-.867-1.422-1.057-3.226-.562-4.816.547-1.761 1.92-3.24 3.627-3.94 1.45-.595 3.082-.637 4.628-.375 1.018.173 2.01.47 3.002.75.225.064.45.127.682.159.231.03.469.029.693-.034.307-.085.575-.28.788-.517.212-.237.377-.514.527-.795 1.374-2.567 1.807-5.514 2.312-8.38 1.789-10.14 4.72-20.035 7.157-30.038 1.948-8 3.581-16.076 5.218-24.147 3.063-15.1 6.145-30.208 10.082-45.105.732-2.769 1.494-5.532 2.059-8.34.1-.502.202-1.023.5-1.44.148-.207.344-.382.572-.495.228-.114.49-.164.742-.13.366.05.693.275.92.565.228.29.364.643.455 1 .292 1.138.146 2.336 0 3.502-.353 2.835-.69 5.673-1.062 8.506-1.112 8.455-2.541 16.864-4.002 25.266-2.044 11.754-4.153 23.502-6.756 35.146-2.344 10.486-5.086 20.878-7.566 31.332a638.988 638.988 0 0 0-3.502 15.635 242.444 242.444 0 0 0 70.885.183 242.394 242.394 0 0 0 64.386-18.75 4776.668 4776.668 0 0 1-17.511-34.314c-5.923-11.722-11.798-23.472-18.043-35.025-2.998-5.546-6.085-11.052-8.668-16.803-.333-.74-.657-1.484-1.018-2.211-.288-.58-.603-1.17-.662-1.815-.06-.66.165-1.334.574-1.857.256-.327.586-.602.973-.752.142-.055.293-.09.445-.096a.86.86 0 0 1 .44.096c.213.116.353.328.486.531 2.165 3.314 4.52 6.5 6.678 9.819 2.534 3.9 4.788 7.973 6.986 12.072 8.014 14.942 15.316 30.254 23.191 45.27a667.373 667.373 0 0 0 12.008 21.888 72.378 72.378 0 0 0 6.856-1.844 71.324 71.324 0 0 0 14.681-6.632c4.143-2.474 8.019-5.367 12.03-8.05 2.45-1.638 4.97-3.207 7.695-4.333.956-.395 1.978-.74 3.006-.62.68.08 1.333.367 1.86.805a3.812 3.812 0 0 1 1.148 1.672c.401 1.156.242 2.428 0 3.627-.51 2.527-1.368 4.973-2.39 7.34-2.025 4.699-4.697 9.099-6.72 13.799-.705 1.639-1.341 3.33-2.388 4.775-.479.66-1.038 1.26-1.637 1.813-2.462 2.275-5.569 3.756-8.047 6.013-2.327 2.12-4.008 4.838-5.795 7.43a113.873 113.873 0 0 1-4.863 6.5c-2.75 3.435-5.65 6.757-8.182 10.356-1.172 1.666-2.282 3.412-3.814 4.754-1.426 1.248-3.155 2.09-4.88 2.876-3.472 1.583-7.027 2.995-10.38 4.815-1.949 1.057-3.822 2.248-5.692 3.44-.527.336-1.066.685-1.437 1.189-.315.428-.49.95-.547 1.478-.058.53-.003 1.066.11 1.586.205.958.608 1.88 1.226 2.639.618.76 1.457 1.35 2.4 1.613.715.2 1.473.21 2.21.117.736-.093 1.454-.288 2.167-.492 3.76-1.076 7.43-2.446 11.07-3.877 7.654-3.009 15.195-6.292 22.764-9.506 4.364-1.852 8.755-3.69 12.82-6.128 3.65-2.19 7-4.842 10.319-7.506 4.415-3.544 8.812-7.135 12.76-11.194 1.961-2.016 3.81-4.148 5.44-6.441 1.592-2.242 2.98-4.643 4.816-6.692 1.242-1.386 2.671-2.592 4.127-3.753 4.054-3.236 8.34-6.167 12.507-9.254 3.45-2.555 6.845-5.24 9.631-8.506 1.381-1.619 2.622-3.41 3.252-5.442.555-1.79.613-3.715.313-5.566-.26-1.607-.81-3.21-1.875-4.44-1.074-1.239-2.578-2.004-4.004-2.814-1.78-1.01-3.526-2.161-4.815-3.752-1.043-1.287-1.745-2.812-2.44-4.316-.484-1.052-.986-2.126-1.812-2.938a4.864 4.864 0 0 0-3.504-1.377c-1.011.03-1.993.38-2.876.875-1.242.696-2.305 1.67-3.502 2.44-1.018.655-2.136 1.164-3.315 1.44-1.456.34-3.046.303-4.377-.378a3.37 3.37 0 0 1-.728-.486 2.095 2.095 0 0 1-.522-.701c-.214-.485-.199-1.038-.127-1.563.073-.53.201-1.055.422-1.543a3.44 3.44 0 0 1 .955-1.271c.389-.313.853-.518 1.324-.68.472-.162.957-.284 1.428-.447a8.54 8.54 0 0 0 4.815-4.252l-89.618-93.309a329.337 329.337 0 0 1-18.261-65.54 82.826 82.826 0 0 0-9.881-2.126 22.584 22.584 0 0 0-7.631-6.004c-3.66-1.764-7.723-2.504-11.756-3.002-5.378-.663-10.8-.928-16.22-.888z"/><path style="fill:#f0a483;fill-opacity:1;stroke:none;stroke-width:1px;stroke-linecap:butt;stroke-linejoin:miter;stroke-opacity:1" d="M100.706-181.729c-3.07-.06-6.156.389-9.145 1.123-2.725.67-5.404 1.58-7.87 2.918a23.352 23.352 0 0 0-3.274 2.123c-1.144.88-1.016 1.994.224 2.596 1.241.602 2.21 1.13 3.69 2.111 2.205 1.462 4.254 3.147 6.254 4.88 2.08 1.801 4.117 3.659 6.316 5.314 3.624 2.727 7.658 4.874 11.819 6.68 4.35 1.886 8.87 3.42 13 5.75 1.575.888 3.097 1.894 4.777 2.564.566.225 1.151.414 1.758.472.606.06 1.237-.018 1.779-.296.64-.328 1.116-.915 1.428-1.563.311-.647.473-1.356.607-2.062.554-2.912.703-5.913.264-8.844-.5-3.342-1.78-6.58-3.803-9.287-2.188-2.928-5.166-5.163-8.225-7.164-2.52-1.65-5.129-3.174-7.87-4.422-2.76-1.257-5.666-2.236-8.669-2.654a25.839 25.839 0 0 0-3.06-.239zm-230.412 10.104c-.717.047-1.425.28-2.067.611-.515.265-1.003.6-1.367 1.05-.363.452-.592 1.031-.539 1.608.042.452.248.873.5 1.25.65.975 1.594 1.709 2.533 2.409 1.23.916 2.481 1.806 3.69 2.751a67.97 67.97 0 0 1 4.127 3.534 102.223 102.223 0 0 1 3.44 3.314 11.819 11.819 0 0 1 1.251-3.72c.7-1.309 1.65-2.482 2.783-3.44a27.274 27.274 0 0 0-3.564-2.72c-1.145-.734-2.348-1.383-3.442-2.19-1.51-1.115-2.797-2.52-4.376-3.533-.687-.441-1.442-.808-2.252-.907a3.835 3.835 0 0 0-.717-.017zm-10.498 6.232a3.602 3.602 0 0 0-.752.088c-.854.193-1.614.69-2.256 1.283-.253.234-.49.485-.682.772-.19.287-.333.611-.379.953-.065.487.068.986.309 1.414.201.358.474.67.752.973 1.195 1.296 2.54 2.445 3.848 3.627 2.857 2.58 5.557 5.332 8.49 7.826 1.72 1.462 3.523 2.838 5.13 4.424a18.94 18.94 0 0 1 1.635 1.812c.552.705 1.053 1.499 1.15 2.389.041.368.009.746-.114 1.095-.124.35-.342.669-.637.893a1.93 1.93 0 0 1-1.133.375 2.503 2.503 0 0 1-1.166-.285c-.646-.33-1.145-.883-1.637-1.416-1.957-2.123-4.041-4.124-6.146-6.102-2.433-2.285-4.895-4.54-7.342-6.81-1.706-1.583-3.406-3.174-5.174-4.688-.673-.576-1.36-1.143-2.123-1.592a4.185 4.185 0 0 0-.76-.365 2.115 2.115 0 0 0-.832-.12 1.99 1.99 0 0 0-.914.316 3.099 3.099 0 0 0-.72.656 3.742 3.742 0 0 0-.797 1.636 3.495 3.495 0 0 0 .31 2.211c.347.699.905 1.265 1.46 1.813 2.632 2.603 5.395 5.068 8.091 7.605 3.436 3.233 6.768 6.586 10.436 9.553.52.42 1.049.835 1.503 1.326.408.44.757.949.93 1.524.173.575.156 1.223-.133 1.75-.247.452-.684.788-1.173.95a2.635 2.635 0 0 1-1.524.022 3.797 3.797 0 0 1-1.283-.664c-.564-.431-1.03-.976-1.504-1.504-2.63-2.923-5.671-5.442-8.535-8.136-1.838-1.729-3.603-3.53-5.438-5.262-.735-.694-1.484-1.378-2.168-2.123-.325-.355-.644-.73-1.06-.973a2.12 2.12 0 0 0-1.14-.285 2.116 2.116 0 0 0-1.116.373 2.401 2.401 0 0 0-.83 1.057c-.174.42-.24.878-.23 1.332.028 1.25.637 2.423 1.413 3.404.596.753 1.293 1.42 1.99 2.078 3.727 3.517 7.58 6.898 11.366 10.35 1.858 1.694 3.7 3.405 5.572 5.084.49.44.986.882 1.371 1.416.27.375.484.8.55 1.258.032.229.027.464-.026.69a1.51 1.51 0 0 1-.303.616c-.288.346-.743.535-1.193.532-.388-.003-.765-.137-1.102-.329-.337-.191-.638-.439-.934-.689-1.889-1.596-3.667-3.32-5.484-4.998-2.183-2.017-4.429-3.975-6.412-6.19-.909-1.014-1.785-2.102-2.963-2.787-.475-.276-.999-.481-1.547-.529-.542-.047-1.11.07-1.547.397-.307.23-.537.554-.681.91a2.997 2.997 0 0 0-.203 1.125c0 1.072.455 2.092 1.015 3.006.845 1.378 1.937 2.59 3.053 3.76 3.57 3.741 7.47 7.152 11.232 10.7 2.776 2.618 5.477 5.312 8.18 8.004 3.596 3.583 7.194 7.165 10.791 10.747a327.626 327.626 0 0 0 20.06 1.117 68.446 68.446 0 0 1 4.065 3.377c1.362 1.223 2.675 2.5 4.066 3.69.324.276.651.55 1.012.775.361.225.757.403 1.176.476.451.078.92.03 1.357-.107a4 4 0 0 0 1.207-.645c.736-.56 1.302-1.317 1.752-2.125.497-.89.861-1.848 1.188-2.814.251-.744.48-1.495.687-2.252a15.99 15.99 0 0 1 1.69-5.067c.708-1.327 1.61-2.568 2.064-4.002.15-.474.25-.97.237-1.466-.014-.498-.146-1-.426-1.41-.261-.384-.64-.677-1.055-.883-.415-.207-.867-.332-1.32-.43-.952-.205-1.927-.29-2.877-.5a5.12 5.12 0 0 1-1.018-.318 2.467 2.467 0 0 1-.86-.622 2.551 2.551 0 0 1-.464-.857 6.65 6.65 0 0 1-.223-.955c-.635-3.586-.693-7.246-.875-10.883-.172-3.443-.458-6.879-.689-10.318-.067-1-.13-2.001-.188-3.002a24.708 24.708 0 0 0-1.375-2.252c-1.366-1.99-3.016-3.764-4.69-5.502-3.448-3.577-7.03-7.024-10.444-10.633-1.22-1.288-1.945-2.308-2.766-3.88-.41-.757-.966-1.724-1.799-1.811-.832-.087-1.489.243-2.002 1.252-.636 1.14-.922 2.448-1 3.752a12.759 12.759 0 0 0 .188 3.064 62.688 62.688 0 0 0 2.742 3.58 54.88 54.88 0 0 0 5.307 5.615c.847.774 1.722 1.522 2.474 2.39.277.319.54.657.73 1.034.191.378.309.799.288 1.22a2.06 2.06 0 0 1-.414 1.128 2.287 2.287 0 0 1-.957.73 2.863 2.863 0 0 1-1.438.168 4.517 4.517 0 0 1-1.392-.433c-1.575-.76-2.76-2.126-3.848-3.494-.948-1.194-1.858-2.416-2.785-3.625-1.623-2.117-3.307-4.202-5.262-6.016-1.754-1.628-3.708-3.022-5.617-4.465-2.345-1.773-4.631-3.624-6.943-5.44-1.574-1.235-3.162-2.456-4.643-3.802-.396-.36-.787-.731-1.238-1.018a3.986 3.986 0 0 0-2.166-.619zm34.097.285c-.15.007-.3.029-.445.069a1.55 1.55 0 0 0-.885.619 1.608 1.608 0 0 0-.242.945c.013.33.109.653.242.955.368.833 1.01 1.509 1.637 2.168 1.645 1.73 3.272 3.48 4.908 5.219 3.186 3.389 6.405 6.746 9.553 10.17a470.876 470.876 0 0 1 3.492 3.848c.453.504.914 1.02 1.195 1.636.308.675.382 1.428.442 2.166.277 3.4.333 6.813.574 10.215.187 2.643.488 5.276.71 7.916.091 1.102.177 2.235.661 3.229.425.872 1.131 1.577 1.903 2.166 1.112.848 2.38 1.485 3.449 2.388.287.243.557.506.857.733.3.227.634.42 1 .506.462.107.942.037 1.414 0 .907-.073 1.834-.021 2.697.265a5.154 5.154 0 0 1 2.256 1.504l5.485-2.21c-.33-.804-.773-1.28-.973-2.124-.37-1.56-.335-3.53-.242-5.13a60.587 60.587 0 0 1-7.379-4.565c-1.262-.912-2.49-1.875-3.627-2.94-.343-.321-.685-.665-.875-1.095-.21-.476-.215-1.012-.22-1.532-.025-2.23-.15-4.46-.188-6.69-.021-1.237-.016-2.485-.281-3.692-.32-1.454-1.03-2.811-2-3.94-.64-.744-1.406-1.366-2.127-2.031-6.384-5.8-10.997-10.981-16.006-16.498a18.03 18.03 0 0 0-2.787-2.477c-.888-.635-1.842-1.189-2.873-1.548a4.461 4.461 0 0 0-.875-.223 2.556 2.556 0 0 0-.45-.022zm172.59 2.414a2.794 2.794 0 0 0-1.013.174c-.463.175-.868.481-1.207.84-.34.36-.617.772-.872 1.195-.817 1.357-1.418 2.83-2.033 4.29-1.116 2.65-2.286 5.283-3.627 7.828-1.054 2-2.223 3.96-3.715 5.66-1.604 1.828-3.558 3.33-5.66 4.554-1.249.728-2.563 1.369-3.67 2.3-.28.235-.547.491-.767.784-.22.294-.394.626-.47.985-.135.622.033 1.29.397 1.812.462.66 1.21 1.082 1.99 1.283.993.256 2.04.187 3.052.354.435.072.874.191 1.238.441.3.206.539.496.707.819.168.323.266.678.31 1.039.115.927-.12 1.858-.222 2.787-.201 1.824.106 3.659.31 5.482.044.39.083.785.201 1.159.119.374.323.732.64.964.228.169.505.264.786.305.281.041.567.032.85.006.945-.088 1.862-.356 2.785-.576a28.886 28.886 0 0 1 3.582-.62 4.641 4.641 0 0 1-.008 1.88c-.18.85-.622 1.664-1.314 2.19-.407.307-.886.508-1.377.646-.491.137-.997.212-1.5.29-.612.096-1.246.204-1.75.563-.33.235-.587.57-.752.94-.212.473-.278 1-.272 1.517.006.518.083 1.033.147 1.547.25 2.032.296 4.09.125 6.129-.038.455-.087.912-.045 1.367.042.455.185.913.484 1.258.193.223.445.391.715.51.27.118.557.19.848.242 1.09.196 2.207.117 3.314.125 1.516.011 3.056.193 4.44.812 1.082.485 2.037 1.223 3.126 1.69 1.657.71 3.514.754 5.317.75 1.847-.004 3.713-.048 5.504-.5 1.979-.5 3.8-1.48 5.566-2.502 1.907-1.104 3.794-2.282 5.377-3.815.88-.85 1.658-1.804 2.565-2.626.279-.254.574-.496.91-.667.336-.17.719-.264 1.092-.208.392.058.749.282 1.011.58.263.297.437.664.551 1.045.33 1.097.178 2.29-.187 3.376-.506 1.504-1.404 2.857-2.5 4.002-.934.976-1.787 1.695-3.254 2.377-1.467.683-9.112 1.594-10.567 3.284a.483.483 0 0 0-.127.28.478.478 0 0 0 .055.255.65.65 0 0 0 .166.2c.135.113.301.179.467.235 1.264.433 2.612.554 3.941.688 4.582.462 9.154 1.288 13.758 1.365 4.83.08 9.601-.25 14.402-.78 4.105-.452 8.255-1.29 12.364-1.712l-.393-3.121c-.477.096-.98.058-1.437-.11-.664-.244-1.202-.74-1.682-1.26-.438-.474-.855-.996-1.04-1.615-.19-.641-.113-1.33 0-1.99.195-1.128.49-2.235.798-3.338a132.228 132.228 0 0 1 1.592-5.285c.515-1.588 1.07-3.225.906-4.887a5.577 5.577 0 0 0-1.26-3.029 4.243 4.243 0 0 0-1.107-.951 3.032 3.032 0 0 0-1.391-.42 3.22 3.22 0 0 0-1.31.248 5.62 5.62 0 0 0-1.167.66c-.978.698-1.805 1.582-2.654 2.432-1.072 1.073-2.195 2.103-3.441 2.967-1.038.719-2.18 1.33-3.424 1.548-1.734.306-3.543-.183-5.049-1.095a11.08 11.08 0 0 1-2.502-2.11c-.33-.369-.64-.76-.88-1.193-.242-.432-.414-.909-.45-1.402-.015-.201-.007-.406.04-.602.045-.196.13-.386.259-.54.2-.242.494-.39.799-.464.304-.074.622-.08.935-.084.641-.007 1.283 0 1.924 0 .672.001 1.343 0 2.016-.01a3.022 3.022 0 0 0 1.724 2.432c.876.407 1.907.368 2.83.088 1.599-.486 2.906-1.631 4.069-2.83 1.847-1.907 3.464-4.025 4.998-6.192.587-.83 1.178-1.699 1.37-2.697.206-1.062-.073-2.19-.663-3.096-.653-1.002-1.667-1.742-2.785-2.166a7.016 7.016 0 0 0-4.201-.22c-1.725.442-3.213 1.502-4.733 2.431-.8.49-1.626.95-2.52 1.238a6.13 6.13 0 0 1-2.253.303 4.789 4.789 0 0 1-2.17-.656c-1.042-.63-1.768-1.67-2.344-2.742-1.156-2.15-1.842-4.595-1.68-7.031.067-1.005.279-2.007.707-2.918.356-.757.854-1.436 1.328-2.124.195-.28.385-.567.534-.875.148-.307.252-.64.261-.982a1.605 1.605 0 0 0-.21-.857 1.266 1.266 0 0 0-.674-.559 1.234 1.234 0 0 0-.594-.04c-.198.032-.386.11-.555.218-.423.272-.699.716-1.017 1.105-.544.665-1.26 1.203-2.079 1.46-.429.134-.902.189-1.328.044-.425-.144-.77-.479-.986-.873-.216-.394-.31-.846-.34-1.295-.016-.247-.013-.495-.035-.742a1.948 1.948 0 0 0-.186-.717 1.367 1.367 0 0 0-.664-.619c-.384-.168-.823-.153-1.238-.088-.34.053-.674.138-1.016.178-.341.04-.696.034-1.017-.09a1.41 1.41 0 0 1-.533-.361 1.325 1.325 0 0 1-.307-.567 1.647 1.647 0 0 1-.004-.722c.048-.239.133-.469.225-.694.339-.834.776-1.63 1.326-2.343.25-.327.53-.644.668-1.032.068-.194.099-.404.066-.607a.855.855 0 0 0-.293-.528.903.903 0 0 0-.537-.187 1.596 1.596 0 0 0-.568.098c-.56.19-1.036.564-1.502.93-.53.414-1.068.83-1.682 1.105-.677.303-1.464.42-2.166.177-.595-.205-1.077-.645-1.549-1.062-1.711-1.512-3.544-2.881-5.306-4.334-1.122-.924-2.214-1.883-3.317-2.83-.699-.601-1.424-1.211-2.299-1.504a3.328 3.328 0 0 0-1.021-.174zm158.555 370.856a3.989 3.989 0 0 0-.988.119c-1.122.267-2.14.858-3.096 1.502-1.6 1.078-4.323 3.388-5.66 4.777a41.473 41.473 0 0 1 1.68 5.57c.305 1.35.55 2.734 1.15 3.981.646 1.343 1.727 2.504 3.096 3.096a5.628 5.628 0 0 0 3.021.39 6.17 6.17 0 0 0 2.814-1.185c1.188-.896 2.061-2.198 3.362-2.92.867-.482 1.872-.672 2.742-1.148.495-.271.943-.636 1.277-1.09a2.92 2.92 0 0 0 .58-1.565c.04-.785-.282-1.549-.707-2.21-1.074-1.673-2.773-2.822-4.246-4.157-.808-.733-1.563-1.54-2.123-2.477-.274-.458-.499-.946-.793-1.392-.294-.446-.668-.859-1.152-1.084-.3-.14-.626-.2-.957-.207zM-7.851 253.53c-.795.041-1.569.3-2.275.668-.707.367-1.351.841-1.977 1.334-1.85 1.456-3.608 3.177-4.441 5.379-.186.49-.322 1-.36 1.523-.037.523.028 1.06.235 1.541.244.569.676 1.04 1.166 1.418.49.379 1.038.67 1.586.957 1.35.709 2.713 1.408 3.94 2.315.518.384 1.012.804 1.562 1.142.55.339 1.169.597 1.814.61.51.01 1.022-.136 1.463-.393a3.447 3.447 0 0 0 1.102-1.047c.625-.92.826-2.08.75-3.19-.025-.355-.075-.707-.094-1.064-.02-.356-.008-.718.094-1.06.112-.377.328-.717.568-1.028.24-.31.509-.598.746-.912.573-.755.966-1.68.938-2.627-.032-1.058-.583-2.047-1.313-2.814a9.994 9.994 0 0 0-.814-.75c-.657-.552-1.352-1.068-2.125-1.44-.797-.382-1.682-.608-2.565-.562z"/><path style="fill:#000;fill-opacity:1;stroke:none;stroke-width:1px;stroke-linecap:butt;stroke-linejoin:miter;stroke-opacity:1" d="M69.228-149.657c-.715-.231-1.356-.461-2.063-.406a2.976 2.976 0 0 0-1.22.344 2.478 2.478 0 0 0-1.188 1.594c-.112.49-.075 1.004.015 1.499.09.494.232.978.329 1.472.207 1.057.2 2.173-.157 3.19-.226.642-.584 1.228-.875 1.844-.18.38-.335.781-.357 1.201-.011.21.012.423.08.621.069.2.183.383.34.524.227.204.534.305.839.33.305.025.611-.021.912-.08 1.422-.28 2.781-.861 4.22-1.032 1.492-.177 2.997.094 4.472.375.909.173 1.83.35 2.752.281.24-.018.482-.053.708-.14.225-.085.435-.225.574-.422.125-.177.189-.393.202-.61a1.987 1.987 0 0 0-.077-.641c-.138-.512-.41-.98-.73-1.403-.32-.422-.69-.804-1.052-1.193-1.049-1.126-2.032-2.32-2.846-3.627-.362-.582-.692-1.188-1.125-1.72a5.517 5.517 0 0 0-1.251-1.125c-.822-.489-1.786-.644-2.502-.876z"/><path style="fill:red;fill-opacity:1;stroke:none;stroke-width:1px;stroke-linecap:butt;stroke-linejoin:miter;stroke-opacity:1" d="M244.221 208.287c-.716-.017-1.442.176-2.103.467-1.141.502-2.142 1.287-3.002 2.19-.292.306-.572.63-.789.993-.217.364-.373.77-.4 1.194-.034.503.116 1.01.37 1.445.256.435.613.803 1.007 1.12.768.617 1.683 1.049 2.375 1.751a4.15 4.15 0 0 1 1.15 2.365 4.122 4.122 0 0 1-.524 2.574c-.562.966-1.493 1.658-2.439 2.252-2.045 1.286-4.273 2.249-6.441 3.315a73.052 73.052 0 0 0-9.631 5.691c-.792-.11-2.46-.15-3.252-.25-1.21-.15-2.46-.286-3.627.063a4.265 4.265 0 0 0-1.19.562c-.647.444-1.147 1.067-1.625 1.69-1.846 2.41-3.476 4.979-5.066 7.566-.557.907-1.112 1.823-1.5 2.815-.547 1.396-.746 2.899-1.002 4.377-.212 1.224-.482 2.478-1.187 3.502-.328.475-.74.887-1.188 1.251-1.617 1.317-3.642 2.01-5.441 3.065-1.197.701-2.293 1.564-3.315 2.502-1.381 1.268-2.63 2.673-3.814 4.127-2.105 2.582-4.015 5.316-6.067 7.941-2.71 3.469-5.667 6.744-8.318 10.258-1.313 1.741-2.559 3.55-4.127 5.064-1.235 1.194-2.653 2.186-4.129 3.065-2.5 1.489-5.173 2.66-7.754 4.004-1.936 1.007-3.821 2.112-5.754 3.127-.468.246-.947.492-1.312.875-.167.175-.309.38-.377.611a.902.902 0 0 0 .062.701.962.962 0 0 0 .44.375c.38.174.821.161 1.224.053.404-.108.777-.305 1.15-.49a37.769 37.769 0 0 1 2.878-1.25c2.448-.967 4.943-1.819 7.38-2.815 3.922-1.602 7.681-3.572 11.569-5.254 4.758-2.057 9.726-3.693 14.197-6.316 3.657-2.145 6.905-4.907 10.256-7.504 4.303-3.335 8.82-6.432 12.695-10.256 3.637-3.588 6.645-7.756 9.569-11.945 1.71-2.451 3.411-4.932 5.504-7.066 2.257-2.304 4.923-4.157 7.566-6.004 3.057-2.138 6.105-4.287 9.193-6.38 2.83-1.916 5.704-3.793 8.256-6.066.475-.422.94-.862 1.313-1.377a5.462 5.462 0 0 0 1.012-2.982 6.318 6.318 0 0 0-.7-3.084c-.662-1.303-1.73-2.366-2.937-3.19-1.349-.92-2.884-1.57-4.13-2.626-.887-.754-1.612-1.715-2-2.813-.338-.96-.416-2.002-.814-2.94a4.144 4.144 0 0 0-.984-1.425 3.444 3.444 0 0 0-1.516-.826 3.363 3.363 0 0 0-.71-.092zm-354.48 9.457a1.659 1.659 0 0 0-.969.39c-.24.21-.41.497-.5.803a2.33 2.33 0 0 0-.062.95c.08.626.364 1.207.687 1.75.935 1.569 2.209 2.904 3.44 4.253 4.155 4.554 7.938 9.434 12.07 14.008 7.707 8.531 16.566 15.926 25.203 23.514 4.447 3.906 8.848 7.877 13.57 11.445 2.157 1.63 4.399 3.184 6.881 4.252 2.145.923 4.431 1.466 6.63 2.252 2.32.83 4.536 1.93 6.69 3.127a73.846 73.846 0 0 1 10.132 6.754c2.443 1.945 4.75 4.055 7.19 6.004 1.466 1.17 3.043 2.312 4.88 2.69 1.108.227 2.255.162 3.377.312 1.632.218 3.163.883 4.69 1.502 1.558.632 3.137 1.222 4.753 1.687 1.078.31 2.21.566 3.315.375a4.393 4.393 0 0 0 2.689-1.625c.697-.897 1.03-2.032 1.147-3.162.116-1.13.032-2.27-.022-3.404-.078-1.655-.089-3.335.313-4.942.259-1.038.687-2.026 1.126-3.001.647-1.436 1.333-2.882 1.563-4.44.152-1.029.094-2.107-.313-3.064a3.973 3.973 0 0 0-1.105-1.51 3.27 3.27 0 0 0-1.709-.742c-.624-.069-1.25.06-1.875.125-1.679.172-3.372-.132-5.004-.563-3.523-.93-6.864-2.455-10.068-4.19a80.934 80.934 0 0 1-10.381-6.693c-1.371-1.138-2.108-3.908-2.94-4.877a6.687 6.687 0 0 0-3.002-2.002c-.647-.208-1.324-.314-2.001-.375-.956-.085-1.918-.082-2.877-.062-2.212.047-4.42.187-6.63.312-2.958.169-5.918.311-8.88.375-1.827.04-3.729.035-5.38-.75-.995-.473-1.845-1.21-2.585-2.027-.74-.817-1.377-1.72-2.041-2.6-1.4-1.856-2.947-3.647-4.879-4.94-1.094-.734-2.292-1.294-3.502-1.813-2.19-.942-4.434-1.758-6.629-2.69-1.95-.828-3.862-1.748-5.691-2.814-5.178-3.019-9.599-7.15-14.133-11.07-4.949-4.28-10.08-8.342-15.072-12.571-.332-.281-.668-.566-1.063-.75a2.111 2.111 0 0 0-1.033-.203z"/></svg>