<svg xmlns="http://www.w3.org/2000/svg" width="158" height="190" style="shape-rendering:geometricPrecision;text-rendering:geometricPrecision;image-rendering:optimizeQuality;fill-rule:evenodd;clip-rule:evenodd"><path style="opacity:1" fill="#090404" d="M-.5-.5h158v123c-9.27 39.307-33.937 61.64-74 67h-8c-32.171-2.999-55.338-18.999-69.5-48-2.972-7.571-5.139-15.238-6.5-23V-.5z"/><path style="opacity:1" fill="#fce101" d="M81.5 26.5a91.131 91.131 0 0 1-12-4.5c-1.47-2.243-2.47-4.743-3-7.5-6.928 2.52-8.76 7.187-5.5 14 2.483 1.991 5.316 2.991 8.5 3a346.231 346.231 0 0 1 15-2h1c8.083 2.18 7.75 3.513-1 4-2.631.18-4.965-.487-7-2-.246 1.72-.246 3.72 0 6a74.08 74.08 0 0 1 12 1.5 64.698 64.698 0 0 0 12.5 4.5c2.814.092 5.147-.908 7-3l.5 1c-1.969 2.236-4.469 3.569-7.5 4a139.373 139.373 0 0 1-10.5-4 73.731 73.731 0 0 1-18 7c.11-.617.444-1.117 1-1.5A9636.516 9636.516 0 0 1 49 34.5c-2.865-7.397-4.365-14.73-4.5-22-.416-2.252-1.749-3.752-4-4.5-2.803-.755-5.47-.422-8 1-6.894 4.043-11.227 9.877-13 17.5 1.56-.02 3.06-.352 4.5-1 1.6.57 2.766 1.57 3.5 3a52.87 52.87 0 0 0 5 17.5c5.12 1.375 8.453-.458 10-5.5.667 0 1 .333 1 1-.889 3.226-2.889 5.56-6 7a74.381 74.381 0 0 0 8 6.5l-3 2.5a74.564 74.564 0 0 1 11 4.5c3.156.603 6.156.103 9-1.5.911-5.545 3.911-9.212 9-11-3.173 2.686-5.007 6.02-5.5 10 1.6-1.536 3.433-2.036 5.5-1.5a174.357 174.357 0 0 1-31 12c-1.884 1.049-3.218 2.549-4 4.5h-1c.34-2.179 1.34-4.012 3-5.5a235.773 235.773 0 0 1-6-13.5c1.353-1.628 1.02-2.962-1-4-.992-1.526-2.492-2.193-4.5-2-2.544-.116-4.711.717-6.5 2.5-7.025 6.435-9.025 14.102-6 23 1.613.088 2.78-.745 3.5-2.5 4.18 6.51 9.346 12.01 15.5 16.5 2.359.208 4.526.374 6.5.5a19.908 19.908 0 0 1 9.5-1.5c-1.231 1.183-1.231 2.35 0 3.5a72.359 72.359 0 0 1 14-8c.054 1.187.387 2.52 1 4 5.852-4.926 12.519-8.26 20-10-2.385 1.763-5.052 3.263-8 4.5a76.906 76.906 0 0 1 8 6.5l-18 5.5c-2.602.883-4.77 2.383-6.5 4.5a114.343 114.343 0 0 0-4.5 27c-1.695 1.326-3.028.993-4-1a38.47 38.47 0 0 1-5.5-5c-1.757-7.988-6.09-9.988-13-6-4.434 7.573-5.434 15.573-3 24a8.908 8.908 0 0 0 3 4c2.146-3.819 4.646-3.985 7.5-.5-7.77 2.771-13.27 7.937-16.5 15.5-11.69-13.392-17.69-29.059-18-47-.5-34.665-.667-69.332-.5-104h146c.437 38.69-.063 77.357-1.5 116-1.551 12.688-6.551 23.688-15 33-2.405-1.903-4.239-4.236-5.5-7 7.884-6.618 7.884-13.118 0-19.5 1.123-1.044 2.456-1.71 4-2a59.043 59.043 0 0 1-9-5 4.457 4.457 0 0 0 2-1.5 56.303 56.303 0 0 1-8-6.5 114.034 114.034 0 0 1 3.5-11.5c1.113-1.211 2.28-1.211 3.5 0a28.717 28.717 0 0 0 .5-13A230.934 230.934 0 0 0 107.5 62a69.625 69.625 0 0 0 7.5-11.5 7.292 7.292 0 0 1 2 3 57.895 57.895 0 0 1 4-10 7.248 7.248 0 0 0 2.5 2l2-17a42.644 42.644 0 0 0 8-3.5c1.518-2.925.851-5.258-2-7l-10-1c-8.65-6.964-17.817-8.131-27.5-3.5a116.197 116.197 0 0 0-19.5-2 29.372 29.372 0 0 0 2 12c1.47-.88 2.304-2.214 2.5-4a45.882 45.882 0 0 0 9 3 31.753 31.753 0 0 1 4.5 5l-1 2c-2.998-2.168-6.331-3.168-10-3z"/><path style="opacity:1" fill="#f40c08" d="M42.5 14.5c-.962 2.486-1.795 2.486-2.5 0-.717.544-1.217 1.21-1.5 2-2.08-1.227-4.08-2.727-6-4.5 2.169-.43 4.169.07 6 1.5.793-.855.46-1.689-1-2.5a8.434 8.434 0 0 1 4-.5c-.268 1.599.066 2.932 1 4z"/><path style="opacity:1" fill="#1c110f" d="M124.5 10.5c3.364-.71 5.697.456 7 3.5-4.149 2.49-8.149 2.49-12 0 1.455-1.626 3.122-2.792 5-3.5z"/><path style="opacity:1" fill="#2b110c" d="m44.5 12.5-2 2c-.934-1.068-1.268-2.401-1-4a8.434 8.434 0 0 0-4 .5c1.46.811 1.793 1.645 1 2.5-1.831-1.43-3.831-1.93-6-1.5 1.92 1.773 3.92 3.273 6 4.5l-1.5 3a33.87 33.87 0 0 0-5.5 0v-2a9.864 9.864 0 0 0-6 1 44.293 44.293 0 0 1 3 2c-2.342.004-4.342.837-6 2.5.948.483 1.948.65 3 .5 1.1 1.058 2.434 1.892 4 2.5-1.256.417-1.923 1.25-2 2.5-.734-1.43-1.9-2.43-3.5-3-1.44.648-2.94.98-4.5 1 1.773-7.623 6.106-13.457 13-17.5 2.53-1.422 5.197-1.755 8-1 2.251.748 3.584 2.248 4 4.5z"/><path style="opacity:1" fill="#ee1913" d="M31.5 17.5a81.718 81.718 0 0 0-3-2.5c2.681-.664 5.015.003 7 2a8.434 8.434 0 0 1-4 .5z"/><path style="opacity:1" fill="#0d0705" d="M44.5 12.5c.135 7.27 1.635 14.603 4.5 22A9636.516 9636.516 0 0 0 74.5 47c-.556.383-.89.883-1 1.5-.342.838-1.008 1.172-2 1-5.089 1.788-8.089 5.455-9 11-2.844 1.603-5.844 2.103-9 1.5a74.564 74.564 0 0 0-11-4.5l3-2.5a74.381 74.381 0 0 1-8-6.5c3.111-1.44 5.111-3.774 6-7 1.231-6.538 1.064-13.205-.5-20a107 107 0 0 1-.5 19c-1.547 5.042-4.88 6.875-10 5.5a52.87 52.87 0 0 1-5-17.5c.077-1.25.744-2.083 2-2.5-1.566-.608-2.9-1.442-4-2.5 2 0 3-1 3-3 1.291.237 2.291-.096 3-1a33.87 33.87 0 0 1 5.5 0l1.5-3c.283-.79.783-1.456 1.5-2 .705 2.486 1.538 2.486 2.5 0l2-2z"/><path style="opacity:1" fill="#f7f5f0" d="M106.5 21.5c-1.792.134-3.458-.2-5-1 .418-.722 1.084-1.222 2-1.5-1.211-.893-1.211-1.726 0-2.5a66.557 66.557 0 0 1 6 2.5 81.216 81.216 0 0 0-3 2.5z"/><path style="opacity:1" fill="#d91b06" d="M31.5 17.5v2c-.709.904-1.709 1.237-3 1a44.293 44.293 0 0 0-3-2 9.864 9.864 0 0 1 6-1z"/><path style="opacity:1" fill="#fb0000" d="M81.5 26.5c1.72.522 3.052 1.522 4 3h-1c-4.167-1.074-8.5-1.074-13 0-7.52.015-10.02-3.318-7.5-10 .786 3.083 2.62 5.25 5.5 6.5 3.986.499 7.986.666 12 .5z"/><path style="opacity:1" fill="#e9d006" d="M123.5 19.5c2.82-.253 5.486.247 8 1.5a25.249 25.249 0 0 1-10 0c.916-.278 1.582-.778 2-1.5z"/><path style="opacity:1" fill="#fb0000" d="M28.5 20.5c0 2-1 3-3 3a4.932 4.932 0 0 1-3-.5c1.658-1.663 3.658-2.496 6-2.5z"/><path style="opacity:1" fill="#24110e" d="M81.5 26.5a72.444 72.444 0 0 1-12-.5c-2.88-1.25-4.714-3.417-5.5-6.5-2.52 6.682-.02 10.015 7.5 10 4.5-1.074 8.833-1.074 13 0a346.231 346.231 0 0 0-15 2c-3.184-.009-6.017-1.009-8.5-3-3.26-6.813-1.428-11.48 5.5-14 .53 2.757 1.53 5.257 3 7.5a91.131 91.131 0 0 0 12 4.5z"/><path style="opacity:1" fill="#ab9c7e" d="M101.5 20.5c1.542.8 3.208 1.134 5 1-2.266 2.263-4.933 2.596-8 1-2.667-2.333-2.667-4.667 0-7 .565 2.044 1.565 3.71 3 5z"/><path style="opacity:1" fill="#c8b564" d="M43.5 41.5c0-.667-.333-1-1-1a107 107 0 0 0 .5-19c1.564 6.795 1.731 13.462.5 20z"/><path style="opacity:1" fill="#d6220c" d="M31.5 51.5c2.02 1.038 2.353 2.372 1 4-.92-.567-1.253.1-1 2-1.459.067-2.792-.266-4-1-.06-2.55-1.394-4.05-4-4.5 2.63-.845 4.964-.345 7 1.5.797-.457 1.13-1.124 1-2z"/><path style="opacity:1" fill="#e60903" d="M27.5 56.5v2h-4c-1.1-1.059-2.434-1.892-4-2.5 2.847-2.063 5.514-1.897 8 .5z"/><path style="opacity:1" fill="#e60c08" d="M23.5 58.5v3c-.342.838-1.008 1.172-2 1-1.452-.802-3.118-1.302-5-1.5 1.802-2.102 4.136-2.936 7-2.5z"/><path style="opacity:1" fill="#791e1a" d="M23.5 58.5h4a8.95 8.95 0 0 1-4 3v-3z"/><path style="opacity:1" fill="#fb0000" d="M21.5 62.5v3a18.436 18.436 0 0 1-6-.5c1.478-2.039 3.478-2.872 6-2.5z"/><path style="opacity:1" fill="#f60100" d="M17.5 66.5c.997-.03 1.664.47 2 1.5-4.149 4.596-4.816 4.096-2-1.5z"/><path style="opacity:1" fill="#fde200" d="M84.5 77.5c.502-1.585 1.502-2.085 3-1.5-.744 1.039-1.744 1.539-3 1.5z"/><path style="opacity:1" fill="#b3a077" d="M35.5 74.5h1c-1.7 5.16-2.033 5.16-1 0z"/><path style="opacity:1" fill="#f9de19" d="M86.5 91.5c.397-1.025 1.063-1.192 2-.5l4.5 4.5c.811-1.46 1.645-1.793 2.5-1-4.376 8.171-5.876 16.838-4.5 26 8.542 9.179 18.709 15.679 30.5 19.5-.608.87-1.441 1.37-2.5 1.5-7.091-2.084-14.257-2.751-21.5-2-7.115-5.052-15.115-7.385-24-7a29.782 29.782 0 0 1 2-5c.896 1.006 1.562 1.006 2 0-1.062-2.603-1.228-5.27-.5-8a61.06 61.06 0 0 1 11.5-4c-.382-5.277.618-10.277 3-15a57.862 57.862 0 0 0-5-9z"/><path style="opacity:1" fill="#e10f04" d="M36.5 113.5c4.027-.24 5.36 1.426 4 5a59.546 59.546 0 0 0-7-3 44.293 44.293 0 0 0 3-2z"/><path style="opacity:1" fill="#fb0d01" d="M35.5 118.5c3.424.198 4.258 1.532 2.5 4a100.232 100.232 0 0 1-5.5-2 44.293 44.293 0 0 0 3-2z"/><path style="opacity:1" fill="#fefefe" d="M-.5 118.5c1.361 7.762 3.528 15.429 6.5 23 14.162 29.001 37.329 45.001 69.5 48h-76v-71z"/><path style="opacity:1" fill="#fb0000" d="M32.5 123.5c6.535.425 6.535 1.425 0 3-1.062-.925-1.062-1.925 0-3z"/><path style="opacity:1" fill="#fefefe" d="M157.5 122.5v67h-74c40.063-5.36 64.73-27.693 74-67z"/><path style="opacity:1" fill="#504015" d="M51.5 124.5c.972 1.993 2.305 2.326 4 1-.282 1.278-.949 2.278-2 3h-2c-1.946-.754-2.78-2.088-2.5-4 1.392 2.342 2.225 2.342 2.5 0z"/><path style="opacity:1" fill="#fb0000" d="M33.5 127.5c.997-.03 1.664.47 2 1.5-5.525 6.119-6.191 5.619-2-1.5z"/><path style="opacity:1" fill="#c8b32d" d="M51.5 128.5h2c2 2.171 3.834 4.504 5.5 7 .667 1 .667 2 0 3a83.439 83.439 0 0 0-7.5-10z"/><path style="opacity:1" fill="#f21905" d="M34.5 131.5c.597.235.93.735 1 1.5a14.317 14.317 0 0 0-2.5 5.5c-.87-.608-1.37-1.441-1.5-2.5a20.958 20.958 0 0 1 3-4.5z"/><path style="opacity:1" fill="#fce01f" d="M58.5 139.5c1.212 1.764.879 3.43-1 5l-1-.5a9.175 9.175 0 0 0 2-4.5z"/><path style="opacity:1" fill="#e11a0d" d="M98.5 145.5c-.667 0-1-.333-1-1 1.107-2.469 3.107-3.469 6-3v3c-1.792-.134-3.458.199-5 1z"/><path style="opacity:1" fill="#f90300" d="M93.5 141.5c1.158 1.073 1.158 2.239 0 3.5.139 1.301.805 2.134 2 2.5v12c-3.928 7.36-8.595 14.36-14 21-.984 2.57-2.15 2.57-3.5 0-19.094 1.066-35.76-5.267-50-19-.01-10.881 5.49-16.548 16.5-17a98.82 98.82 0 0 1 13 3c-.492 4.736.842 8.736 4 12v-4c-.712-3.425-.712-6.758 0-10-.322-2.222.345-4.056 2-5.5 9.591-4.447 19.258-4.614 29-.5.797.457 1.13 1.124 1 2z"/><path style="opacity:1" fill="#67190f" d="m93.5 141.5 4 3c0 .667.333 1 1 1l-3 2c-1.195-.366-1.861-1.199-2-2.5 1.158-1.261 1.158-2.427 0-3.5z"/><path style="opacity:1" fill="#ea100a" d="M101.5 150.5c-1.333 0-2-.667-2-2 .194-2.412 1.527-3.412 4-3a13.227 13.227 0 0 1-2 5z"/><path style="opacity:1" fill="#f40b01" d="m105.5 152.5-4 3v-3l2-2c.06-.543.393-.876 1-1 .886.825 1.219 1.825 1 3z"/><path style="opacity:1" fill="#75110d" d="M99.5 148.5c0 1.333.667 2 2 2h2l-2 2h-4v3h-2v-5l4-2z"/><path style="opacity:1" fill="#f80401" d="M83.5 180.5c5.84-6.182 10.507-13.182 14-21v-4a21.587 21.587 0 0 1 6 5c1.014 1.174 2.347 1.84 4 2 2.613.935 5.279 1.102 8 .5a41.03 41.03 0 0 1 0-5.5 178.05 178.05 0 0 0 11-7c2.513 1.837 4.179 4.337 5 7.5-2.427 3.932-5.427 7.432-9 10.5-12.094 8.198-25.427 12.698-40 13.5.556-.383.89-.883 1-1.5z"/><path style="opacity:1" fill="#720f0a" d="M61.5 145.5c-.712 3.242-.712 6.575 0 10-1.472-1.617-2.139-3.617-2-6 .085-1.833.752-3.166 2-4z"/><path style="opacity:1" fill="#fb0000" d="M107.5 152.5h1c-.764 2.518-1.764 4.851-3 7v-1c-.241-2.386.425-4.386 2-6z"/><path style="opacity:1" fill="#130709" d="M101.5 152.5v3a8.941 8.941 0 0 0 4 3v1c-.342.838-1.008 1.172-2 1a21.587 21.587 0 0 0-6-5v-3h4z"/><path style="opacity:1" fill="#630f0d" d="M105.5 152.5h2c-1.575 1.614-2.241 3.614-2 6a8.941 8.941 0 0 1-4-3l4-3z"/><path style="opacity:1" fill="#fb0000" d="M111.5 155.5c.423 2.281-.244 3.948-2 5-.423-2.281.244-3.948 2-5z"/><path style="opacity:1" fill="#180605" d="M95.5 155.5h2v4h-2v-4z"/><path style="opacity:1" fill="#62130e" d="m108.5 152.5 3 3c-1.756 1.052-2.423 2.719-2 5-.722-.418-1.222-1.084-1.5-2a8.43 8.43 0 0 0-.5 4c-1.653-.16-2.986-.826-4-2 .992.172 1.658-.162 2-1 1.236-2.149 2.236-4.482 3-7z"/><path style="opacity:1" fill="#3d0d08" d="M61.5 159.5c3.089 2.25 5.089 5.25 6 9-3.45-1.981-5.45-4.981-6-9z"/><path style="opacity:1" fill="#59130d" d="M95.5 159.5h2c-3.493 7.818-8.16 14.818-14 21h-2c5.405-6.64 10.072-13.64 14-21z"/><path style="opacity:1" fill="#48160a" d="M67.5 168.5a86.267 86.267 0 0 1 7.5 8c.688.832.521 1.498-.5 2-3.604-2.579-5.938-5.912-7-10z"/></svg>