<svg xmlns="http://www.w3.org/2000/svg" width="540" height="620"><path d="M4.5 4.5h531V350a265.5 265.5 0 0 1-531 0z" stroke="#000" stroke-width="9" fill="#e2001a"/><path d="M298 502c33-7 56-15 82-38 40-9 83-41 122-80C469 239 368 84 270 24 172 84 71 239 38 384c39 39 82 71 122 80 26 23 49 31 82 38m56 3v-5c36-24 58-65 58-107 0-58-37-117-86-157-49 40-86 99-86 157 0 42 22 83 58 107v5m-82-41v93c26 23 49 31 82 32v-87 25c22-11 34-11 56 0v-25 87c33-1 56-9 82-32v-93" stroke="#000" stroke-width="4" fill="#fff"/></svg>