<svg xmlns="http://www.w3.org/2000/svg" width="540" height="620"><defs><clipPath id="a"><path d="M9 9h522v341a261 261 0 0 1-522 0z"/></clipPath></defs><path d="M4.5 4.5h531V350a265.5 265.5 0 0 1-531 0z" stroke="#000" stroke-width="9" fill="#fff"/><g stroke="#000" stroke-width="4" fill="#0056ad" clip-path="url(#a)"><path d="M540 0v620H-80zM247 293V30h46v217zm0-263h-21v32h-22V30H47v32h74v20a11 11 0 0 1-22 0H47v36h101V62h25v56h53v25h-53v63h-25v-63H47v37h52a11 11 0 0 1 22 0v26H47v34h157v-34h22v34h21z"/><path d="M247 293v36h-8a12 12 0 0 0 0 24h8v12h-17v13a95 105 0 0 0-90 76 13 13 0 0 0-23 10 16 16 0 0 0 0 32 13 13 0 0 0 23 10 110 90 0 0 0 110 80v14h40v-14a110 90 0 0 0 110-80 13 13 0 0 0 23-10 16 16 0 0 0 0-32 13 13 0 0 0-23-10 95 105 0 0 0-90-76v-13h-17v-12h8a12 12 0 0 0 0-24h-8v-82zm9 255c-3 3-7 5-16 5-29 0-70-27-70-57a16 16 0 0 0 0-32c0-18 26-55 70-55 9 0 13 2 16 5a68 68 0 0 0 0 134zm28 0a68 68 0 0 0 0-134c3-3 7-5 16-5 44 0 70 37 70 55a16 16 0 0 0 0 32c0 30-41 57-70 57-9 0-13-2-16-5zm-14-105a38 38 0 0 1 0 76 38 38 0 0 1 0-76" fill="#fff"/></g></svg>