<svg version="1.1" id="Ebene_1" xmlns="http://www.w3.org/2000/svg" x="0" y="0" viewBox="0 0 456.3 534.5" style="enable-background:new 0 0 456.3 534.5" xml:space="preserve"><style>.st1,.st2,.st3,.st4{stroke-miterlimit:11.47}.st1{fill:#ffd600;stroke:#000;stroke-width:3.02}.st2,.st3,.st4{stroke-width:.22}.st2{fill:#fff;stroke:#fff}.st3,.st4{stroke:#000}.st4{fill:#e40520;stroke:#e40520}</style><path d="M1.5 1.5V307c0 120.4 96.5 226 226.2 226s227.1-105.6 227.1-226.2V1.6L1.5 1.5z" style="fill:#fff;stroke:#000;stroke-width:3.02;stroke-miterlimit:11.47"/><path class="st1" d="M385 308.5v1.3l-.3 35.9s.6 1.9-.1 3-3 .1-3 .1l-290.6.6s-1.5 1-2.2-.2c-.4-.8-.5-1.7-.2-2.6l-.1-37.4.1-1.1 50-45.9 201.5.8 44.9 45.5z"/><path class="st1" d="m95.8 315.6 46.4-44.1 192.4-.1 42.6 43.5-42.8.3-.7-43.8-190.6.1-.1 43.7-47.2.4z"/><path class="st2" d="m194.5 259.3 13 11.2 18.7 13.3 1.6-4.2-12.4-11.2-15.1-8.8-5.8-.3z"/><path class="st3" d="M286.8 24.6c1.9 1.1 3.7 2.4 5.3 3.9 2.5 2.3 5.8 7 6.8 7.3s3.3-2.1 4.5-4 2.8-7.7 2.5-9.4c-.9-5.1-3.8-9.7-8.1-12.7-3.8-2.7-6.1-3.3-9-3.3-3.5-.1-6.9.9-9.8 2.9-2.8 1.7-5 4.1-6.5 7-.8 1.6-1.1 1.4-.3 2 .4.1.8.2 1.2.4 1.9.6 5 1.7 6.5 2.2 2.5.9 4.8 2.2 6.9 3.7z"/><path class="st3" d="M298.8 39.8c-1-.6-.6-.3-1.7-1.5-.8-.8-1-1.5-1.8-2.4-2-2.6-5.3-8-17.6-12.3-5.9-2.2-12.2-3.2-18.5-3-5.2 0-12.9 1.4-18.6 2.9s-22.7 7.1-26.5 8.6c-3.8 1.6-10.9 4.4-13.1 4.2-2.4-.2-6.6-2-9.5-3.2s-5.5-2.2-7.2-2.1c-1.6.3-.9 2-.9 2.8s1.9 2.6 2.7 3.7 5.7 6 5.7 6c-1.2.2-2.3.5-3.4 1-1.4.6-3.4 3.6-3.7 4.4s-1.3 2.4-1.3 4.5-.3 4.4 1.6 5.8 3.2 1.9 4.8 3.4c.2 1 .3 1.9.4 2.9 0 0 1.7 4.3 2 5 .4 1 1.9 4.3 1.9 4.3s-14.6-2.9-19.7-4.7-9.9-3.3-18.1-7.8c-5.8-3.1-11.8-8.8-12.5-9.8s-1.7-1.9-2.5-1.4-.9 1.4-1.1 3.1c-.3 2.8-.2 5.7.4 8.4.7 4.1 2.3 8 4.8 11.3 3 3.8 4.3 5.6 7.1 7.4 2.7 1.7 6.2 3 10.4 4.3 3.1 1 11.6 2.2 14.5 2.4s7.1.6 8.4.9c1.3.1 2.7.1 4 .1 0 0 3.4-.2 3.4.7 0 .7-.9 4.8-.9 4.8s-2.7 0-3.5.6-2 2-1.7 3.2.9 2.3 3.7 3.7c4.7 2.1 9.6 3.5 14.7 4.2 5.2.7 12.1 2.2 19.1 2.9s23.7 2 29.4 2.1c2.1 0 4.3.1 6.4.3 1.4.1 2.5.5 4 .5 3.7-.2 7.4-.9 10.9-2.1 3.7-.9 7.2-2.6 10.2-5 3.5-2.9 6.5-6.2 9.2-9.9 1.4-2.4 2.6-4.8 3.6-7.4.8-2 1.2-6 1.6-7.3s.2-3 1.2-3.8c.7-.8 1.8-1.1 2.9-.8 2.2.4 4.4.5 6.6.4 3 .1 6-.4 8.9-1.4 4.2-1.4 10.1-4 12.5-10.4s2.2-10.9.4-14.7-5.2-9.8-12.8-11.7c-5.9-1.6-9.7-.8-12.2.4-2.2 1-4.3 2.5-6 4.3-1.6 1.6-2.5 4.8-3.4 4.8s-1.2-.7-.6-1.3.7-2.2 1.1-2.7c.1-.4 1.3-3 .3-3.6z"/><path class="st2" d="M310.3 43.5c-3 1.1-5.5 3-6.3 5s-1.9 3.8-2.4 5.3-.8 3.2-.8 3.2h1c.4-1.5.9-3 1.6-4.4 1-1.6 2.6-6.2 6.7-7.1s4-.8 6-.4 5.3 1.2 6.1 2 3.2 2.7 3.2 2.7c-.4-1.3-1.2-2.5-2.2-3.4-1.6-1.4-2.5-2.6-6.3-3-2.2-.2-4.4-.2-6.6.1zM250.6 57.8c-.4-1.3-.9-3.5-.2-4.3s1.6-1.7.4-2.9-1.9-.2-3.3.1c-2.1.2-4.3.2-6.4 0-.1 1.3.6 2.5 1.7 3.2.7.4 1.1-.1 2.2.4.7.4.7 1.3 1.8 2.5s2.3 3.2 3.7 4.5c1.3 1.3 2.8 2.5 4.3 3.5 1.8.8 1.8 1.3 4.6 1.6 3.3.5 6.5-1 8.3-3.8.5-.7 1.2-1.8.3-1.6-.6.1-1.7 1.3-2.9 2.3s-3.2 1-4.5 1c-2.6-.1-5.1-1-7.2-2.6-1.4-.8-2.4-2.2-2.8-3.9zM196.2 63.2s.2 3.8.4 4.5.9 3 .9 3c.2-1.3.5-2.6.9-3.8.4-.9.8-2.5.2-3.1-.8-.5-1.6-.7-2.4-.6zM204.8 65.7v5.1l.6-1.5.6-3.3-1.2-.3zM211.4 65.4s-.9 3-1.3 5-.6 4.8-.6 4.8-.1 1.5.6 1.7c1.4.4 7.1.5 10.4 1.3s5.5 1.2 9.4 2.3c2.8.7 5.6 1.8 8.1 3.2.3-1.5.2-3.2-.4-4.6-1.2-2.7-1.4-5.5-6.9-8.4-4.2-2.2-8.8-3-12.2-3.8-3.2-.8-7.1-1.5-7.1-1.5zM213 89.4s-.3 3.7-.3 4.5c.1 1.1.9 2.1 2 2.4 2.5.3 5 .4 7.5.2 2.7-.2 6.4 0 6.8-.8s-1.7-2.6-3.7-3.2-6.8-2.2-8.4-2.6c-1.3-.3-2.6-.5-3.9-.5z"/><path class="st4" d="M147.5 63.9s1.2 6.7 4.7 9.9c2.9 2.7 5.5 5.3 13.7 7 7.5 1.4 15.1 2.3 22.7 2.7 4.1 0 17.1.6 20.8 1s7.9.1 12.2 1.8 8.4 3.3 9.4 3.1 1.5-.8.9-1.7-6.7-3.2-10.4-3.8-10-2.2-13.2-2.2c-4 .1-8-.1-12-.4-6.4-.9-12.7-2.2-18.9-4-3.8-1.2-10.4-2.7-14.6-4.7s-6.7-2.8-9.8-4.6c-1.9-1.2-3.8-2.6-5.5-4.1z"/><path class="st3" d="M249.6 114.7c-5.6-.4-16.4-1.2-19.5-1.4-3.2-.2-6.5.1-9.6.9-4.4.7-8.8 1.9-13 3.5-6 2.4-11.7 5.6-16.9 9.5-3 2.2-8.1 9.2-9.4 12.1-1.5 4-2.8 8-3.9 12.1-.7 2.7-1.3 5.4-1.7 8.1-.3 1.5-1.1 9.1-1.1 9.1l-.6-.2c-.4-2-.7-4.1-.8-6.2.3-1.5.4-4.5 1.1-8.1s1.4-8.9 2.5-11.6 2.4-6.9 3.2-7.7c.8-1.1 1.4-2.3 1.9-3.5l-.9-3.5c-3.9-2.1-8.1-3.6-12.5-4.6-8.1-2.1-14.3-3.2-26.4-4.4s-19.2-.4-24.6-1.3c-3-.5-5.9-1.6-8.4-3.2-1.2-.9-4.8-3-4.8-3.8s.2-1 .9-.6 3.3 1.8 4.4 2.2c1.6.6 3.4 1 5.1 1.2 1.9.1 4.8.1 4.8.1-1.9-1.2-3.6-2.7-5-4.4-1.7-2.2-7.1-6.6-8.9-10.3-2.2-4-3.4-8.5-3.7-13 0-5.8 1.3-11.5 3.8-16.7 2.3-4.2 6.3-10.1 6.6-13.9s1.3-7.3.3-11.1c-1.3-4.6-5.3-7.1-5.8-7.1s-1.9 0-1.9 1c.1 1.6 0 3.2-.1 4.8-.2 1.6-.8 3.1-1.7 4.5-.6.9-.6 1.8-1.7 2.7-.9.9-2.2 1.2-3.3.8-.6-.2-.6-.5-.2-1.1 1-1.1 1.5-2.5 1.4-3.9 0-2.4-1.3-7.4-2.2-10.5-1.1-3.6-3-6.9-5.6-9.6-2.8-2.7-6.6-4.1-10.4-4 0 0 2 2.7 2.7 4.2.9 1.5 1.6 3.1 2 4.8.2.9.6 1.7 1.1 2.4l-.4 1.9c-1.5.8-2.9 1.7-4.2 2.7-.9.8-4.5 4.5-4.5 4.5l.8-4.9c-1.9-2.9-4.3-5.4-7.1-7.5-4.2-2.9-9.5-2.7-11.3-2.7-1 0-1.9.2-2.8.6 1.6 1 3 2.2 4.2 3.7 1.5 1.9 2.7 4 3.7 6.3.6 1.5.8 6 .8 6s-6.2 8.3-6.2 9.3c0 1.9.8 4 2 6.8.7 1.6 1.5 3.2 2.4 4.7C63 63.8 62 63 61 62.1c-.8-.9-2-6.8-2.2-8.4s.7-5.8.4-6.4-4.9-.7-7.7-.8c-2.8-.3-10.5.5-11.5.9s-1.1 1.1-.7 1.7 3.3 1.6 4.3 2c1.5.4 3 .9 4.5 1.6 1.5.8 3.9 2.7 4.1 3.6s-.9 4.3-.9 5.7c.2 2.6.5 5.1.9 7.6 0 0-3-4-3.8-4-3.1 0-6.1.4-9 1.4-1.4.5-3.8 2.2-4 2.9s-.7 2.2.1 2.6 4.5-.1 6.3.5c1.7.7 3.2 1.7 4.5 3l2 .4c-.3 1.1-.4 2.2-.3 3.2.2 1.7.7 3.4 1.5 5 1 2 2.3 3.8 4 5.2.9.9 1.9 1.7 3 2.9s2.8 5.8 2.8 5.8l3-4.2c1-1.4 2.9-4.1 3.3-4.9.6-1.1 1.3-2.1 2.1-3 .2.6.4 1.3.4 1.9-.3 1.1-1 2.2-1.9 3-.4.7-1.2 1.7-1.9 2.7-1.5 2.3-2.8 4.7-3.9 7.3.1 1.9.4 3.8.9 5.6.9 2.9 1.8 7.3 3.8 11.3s8.5 12.2 12.4 17.5 10.2 13.1 12.4 15.1c2.3 2 12 9.8 12 9.8l.2-4c.8 1.9 1.8 3.8 3 5.5 1.6 1.7 5.8 4.8 7.1 5.8s4 3.3 4.6 3.8c2.2 1.4 3.7 1.9 4.3 1.7 1.1-.1.2-.9.1-1.7-.7-1.3-1.5-2.6-2.4-3.8 0 0 0-1.4.7-.9s4 4.7 5.2 5.6c2.5 2.3 5.2 4.3 8.1 6 2.4 1.1 7 2.2 8.6 1.3.5-.4.6-1.1 0-2.3s-2.2-3.4-2.6-4.2c-.3-.7-.5-1.4-.6-2.1 0 0 .6-.8 1.1-.1s2.3 3 3.5 4.6c.6.7 1.2 1.3 1.9 1.9 2.4 1.8 6 3.5 7.6 3.7 2.2.4 3.5.6 3.5.6l1.4-2.4s-.2-.8.6.1.6 2.4 2.8 2.2 4.7-1.8 8.5-3.6 11.8-5.7 16.3-7.4 11.7-3.5 15.8-4.5c3.8-1 7.7-1.8 11.7-2.3 3.2-.4 8.9-1.7 9.4-1.7.3 0 1.4-.1 1.3.6s-1.4 1.2-1.4 1.2-5.3.9-8.6 1.4c-3.9.5-7.7 1.4-11.4 2.6-3.4 1-11.7 3.2-15.9 4.8s-11.8 5-16.7 7.3-9.6 4.5-14.1 6.3c-4.2 1.8-8.4 3.8-12.4 6-3.5 1.9-7.1 4.2-9.4 5s-3.8 1.2-6.3 2.2-13.2 5-17.9 6.6-7.8 3.2-10.9 4.3c-3.1 1.2-6.3 1.9-9.7 2-3.4 0-6.8-.6-7.8-1.4s-3.4-1.9-4-2.7-1.7-2.2-1.7-2.2l.3-.9c.7 1.1 1.6 2 2.6 2.7 1.5 1.1 3.2 1.9 5 2.2 2.1.2 2.9 1.1 5.1.6 3.8-.8 5-2.4 5-2.4s-10.1-9.6-10.3-10.5-.3-3 .4-3.8 4.1-7.6 4.8-10.4 1.8-9.4.1-15.6c-1.2-4.7-3.8-8.3-7.5-9.6-2.2-.8-4.4-1.3-6.8-1.4l2.4 9c-1.9.5-3.7 1.1-5.4 2-2.2 1.1-2.8 1.4-3.5 3.6-.4 1.3.4 3.4 1.7 4.9.9 1.4 1.5 3 1.8 4.6.2 2.3.2 4.6 0 6.8l-1.4-.6s-.4-5.3-2.7-8.9c-2.2-3.7-3.4-6.5-8.4-8.9-4-2.1-8.5-3.2-13-3.1-4.5.4-6.7 1.9-7.1 2.4s-.9 1.4.4 1.6c1.6.3 3.2.8 4.6 1.6 2.1 1 4 2.5 5.3 4.4.6 1.2 1 2.4 1.2 3.7 0 0 0 .4-1.5.2s-3 0-4.3.7c-1.1.8-2 1.7-2.9 2.7-.5.9-.8 1.9.1 2.4s2.9 1.9 4.3 1.9c.8 0 1.6-.1 2.5-.2l.4 3.2c-1.4-1.4-3.2-2.3-5.2-2.4-3.2-.2-4.8-.4-8.3.6-2.8.6-5.5 1.6-8 3-2.5 1.6-4.5 4-5.5 6.8-.6 2-.6 2.1-.4 3.4s0 1.8 1 1.6.6.3 2.4-1.1 1.8-1.5 3.4-1.8 2 .4 2 .4-1.7 3.6-1.7 5.7c0 1.6.4 3.2 1.3 4.6.6 1.3 1.8 2.1 3.2 2.2.9 0 1.9-.8 3-1.2 1.6-.6 3.3-1 5-1.1 2 0 4 .2 6 .6 2 .4 4.8 2.5 4.8 2.5l-.2.9c-1.5-1.4-3.4-2.1-5.4-2.2-3.2 0-5-.8-9.1.9s-4.8 3.5-6.5 5c-1.6 1.7-3.2 5.8-3 7.4.2 1.2.4 2.4.7 3.5 0 0 .3.3.9 0 .6-.1 2-2.2 3.7-2.7 2-1 4.2-1.4 6.4-1.2 3.2.1 5 .1 6.6.8s3.7 2.2 7.3 4.4 11.2 8.4 15 10.9 11.9 7.2 15.8 8.9c2.8 1.4 5.7 2.4 8.7 3.2 5.2 1 10.7.6 13.9.6s12.6-.5 12.6-.5c.8.1 1.5.1 2.3-.1.7-.2.4-1.4-.5-2.1-1-1.1-1.4-1.6-2.2-2.6-.8-.7-1.9-1.4-.7-1.5s2.4.4 4.6 1.2 4 2.5 6.1 3.2c2.7.8 5.5 1.3 8.3 1.6 1.4.2 2.8.1 4.2-.4.7-.2 1.8-.4 1.4-1.2-.5-1-1.2-1.8-2-2.6-.6-.6-2-1.4-1.8-2s1.2-.6 2.4-.2 3.6 1.8 5.5 2.4c2 .8 4 1.4 6.1 1.9 3.1.4 8.1.4 8.9-.1s.9-.6-.2-1.6-3.3-3.8-4.1-4.5-.2-.9.4-.9c1.3.4 2.5.8 3.8 1.4 1.2.4 5.7 2.3 8.6 2.7 2.3.3 4.6.3 6.8 0 .8-.2 2.4-1 1.9-2-.5-1.1-1.3-2.1-2.4-2.6-1.4-.6-2.4-.8-3-1.6s0-1.2.9-1 2.9.8 5.3 1.4c3.5.8 7.1 1.2 10.7 1.2 2.2-.1 4.4-.6 6.4-1.7 1.1-.6 1.6-.8.6-1.6-1.1-1.1-2.1-2.2-3-3.4-.6-.6 0-.8.6-1.2s5.3 1.1 6.5 1.9 4.5.9 5.5.9 3-1.7 7.1-2.2 10.5-1.4 11.4-1.8c1.2-.6 2.4-1.4 3.4-2.4.6-.5 1.4-.7 2.2-.8l.4.6s0 2.2-.9 2.8c-1.2.6-2.4 1.2-3.7 1.7-.8.1-9.4 1.5-11.7 2.2-3.8 1.2-7.5 2.7-11.1 4.3-2.4 1.3-8.4 3.2-10 4.5s-2.1.8-2.1 1.6.2 1.1 1.7 2.3 4.3 2 5.2 3.1 1.7 1 1.9 1.5 0 .6-.6.8-.6.9.4 1.6 5.7 5.2 7.7 6.8 5.6 4.5 7 5.7c1.3 1 2.6 2 4 2.8.6.4 1 0 3 1.6 1.3 1 2.3 2.4 2.8 4 0 .5-.1 1.1-.3 1.6 0 0-1.4-1.1-3.4-2.7-2-1.5-4-3.8-6.4-5.2s-6.6-5.3-8.1-6.4c-1.3-1-2.6-1.9-4-2.7-1-.6-2-1.2-2.9-2-1.2-1.5-2.3-3-3.4-4.6-.5-.3-1.2-.5-1.8-.4-1.9.4-3.7 1-5.3 1.9-1.6.9-6 2.8-8.3 4.8s-4.2 4.9-7.2 8.1-11.5 11-13.1 15.1c-1.3 3.1-6.7 23.8-6.7 23.8l-1.8 4.8 153.8 4.5s2.3-8.4 3-9.9c1.3-4 1.8-8.3 1.4-12.5-.2-2.2-3-10.6-4-13.6s-10.9-21.5-11.2-22.4-.8-17.8-.8-21-.4-16.1 0-19.3-.1-25.4 1.3-28.8 6.5-12.7 7.6-15.9c1.1-4.5 1.5-9.2 1-13.9-.5-4-2.2-10.6-3.2-12.3s-2-3.4-2.4-4.3c-.4-.6-.9-1.1-1.4-1.6 0-1.8.1-3.7.4-5.5 1-3.5.8-1.8 2.5-6.2s3.4-11.2 4.5-14.9c1.4-4.5 3.2-8.6 4.4-15.3 1.1-5.9 2.3-9.2 2.5-12.2s-.1-10.7-.6-11.7-7.6-2.6-8.2-2.4-1 .9-1.3 1.8c-.3 2.4-.7 4.7-1.4 7-.8 2.2-3.2 9.6-5.8 12.4s-5.4 6.7-7.6 8.3-8.7 5.5-11.5 6.4c-3.3 1.2-7.6 1.6-13.8 1.9-1.6-.1-11.9-.6-11.9-.6z"/><path class="st4" d="M207.4 276.9c-.9.4.1.6.7 1.1 1 .9 2.2 1.7 3.4 2.4 2 1.1 3.8 2.5 5.3 4.2.9 1.5 2 2.7 3.4 3.7.5.3 2.6.9 3.2.3.8-.8 1-2 .6-3-.6-1.4-2.2-3-4.9-5-1.9-1.6-2.9-2.4-4.6-3-.5-.1-1.5-.5-2.2-.7-1.5-.4-3.3-.4-4.9 0z"/><path class="st2" d="M231.9 270.8c-.6-.3-2 0-1.4.7s1.6 1 1.6 2c-.2 1.6-.5 3.1-.9 4.6-.6 2.2-1.4 4.4-2.4 6.5-1 2.2-2.3 4.3-3.7 6.3-1.4 1.8-2.7 3.7-3.8 5.6-.1.8-.4 3.8-.4 3.8l.8.4c.2-1.2.6-2.4 1.1-3.6.6-1.2 3-3.9 3.8-5s2.7-5.5 3.4-6.6 1-3.2 1.7-4.1 1.6-2.4 2-3.2c.5-1.5.6-3.1.4-4.6-.7-1.1-1.4-2-2.2-2.8zM83.3 67s-.4 3.1-.6 4c-.2 1.8-.2 3.7.3 5.5.4 2.1.9 4.2 1.7 6.3 1.6 4 2.2 6.9 3.5 10.6.9 2.3 1.7 4.7 2.3 7.1.2 1.4 2.4 8.5 2.4 8.5-.3-2.9-.8-5.8-1.4-8.6-1.1-3.9-1.4-5.9-2.2-8.1-.4-.9-.9-2.4-1.4-4.2s-1.4-3.7-2-5.6c-.8-2-1.4-4.1-1.8-6.2-.3-1.7-.5-3.5-.6-5.3l-.2-4z"/><path class="st1" d="M90 349.6c1.2.6 7.8-1.1 15.3 6 2 1.9 2.6 6.8 3.2 12.5.5 5.5.7 11.6.7 15.9 0 5.7.3 34.1.4 53.1.1 8.6.1 15.5.1 17.3 0 5.7-.6 19.3-.6 21.7s-1 9.3 1.7 10.9 9 1.7 11.4 1.7 11 .2 13.4-2.2 0-17.6 2-20 39.7-6.1 50.2-6.1 59.5 1.2 76.5 1.7 54.7 1.2 56 2 .7 6.5.7 9.6-1.1 12.2 1.4 13.8c2.3 1.6 7.6 1.5 13.2 1.5s13.4.4 15-1.6 1.4-7.2 1.2-13.3c0-5.2 1.1-24.2 3.2-25.7 2-1.7 2.7-12.1 2.7-15.8s-.3-60.3.5-64-.2-9.5 3.8-13.5 5.7-4.5 9.7-6.3c7-3.1 7-9.6 4.1-10.9S98.3 339 96 340.6s-7.2 8.5-6 9z"/><path class="st1" d="M365.5 436.8H99.1s-1.2.1-1.5.8c-.4.6 0 .9 0 .9v28.9s-.8 4.8.3 6 4.5.5 4.5.5l260.6.3s2.5.4 3.6-.8.9-4 .9-4l-.1-30.7s.6-.8 0-1.4c-.6-.3-1.3-.5-1.9-.5zM88.6 309.2l.1 37.4c-.2.9-.1 1.8.2 2.6.5.9 2.4.2 2.4.2l290.8-.3c.8.3 1.6.1 2.3-.4 1-.9.4-3.1.4-3.1l.3-35.9-296.5-.5z"/></svg>