<svg xmlns="http://www.w3.org/2000/svg" version="1.0" width="208.86" height="244.66"><path style="fill:#cc2918;fill-opacity:1;fill-rule:evenodd;stroke:#000;stroke-width:1.99999988;stroke-linecap:butt;stroke-miterlimit:4;stroke-dashoffset:0;stroke-opacity:1" d="m1 1 3.761 158.003c2.687 112.86 196.652 112.86 199.338 0L207.86 1z"/><path style="opacity:1;fill:#feeb00;fill-opacity:1;stroke:#000;stroke-width:1;stroke-miterlimit:4;stroke-dasharray:none;stroke-dashoffset:4.57999992;stroke-opacity:1" d="M104.43 1v242.647c-39.163-.462-90.66-18.393-98.938-74.922L1 1z"/><path style="opacity:1;fill:#009645;fill-opacity:1;stroke:#000;stroke-width:1;stroke-miterlimit:4;stroke-dasharray:none;stroke-dashoffset:4.57999992;stroke-opacity:1" d="M11.617 191.109h185.627c-11.595 25.332-38.607 51.548-92.814 52.538-56.697-1.864-82.178-28.783-92.813-52.538z"/><path d="M89.731 20.684c-.004 5.363 4.328 9.37 6.541 9.37h16.335c2.213 0 6.545-4.007 6.54-9.37-.008-10.099-8.858-12.905-14.708-12.905s-14.7 2.806-14.708 12.905z" style="opacity:1;fill:#cc2918;fill-opacity:1;stroke:#000;stroke-width:1;stroke-miterlimit:4;stroke-dasharray:none;stroke-dashoffset:4.57999992;stroke-opacity:1" transform="translate(-51)"/><path d="M98.217 182.788 96.272 30.053h16.335l-1.945 152.735c-.005.723-2.354 1.238-6.223 1.238-3.868 0-6.217-.515-6.222-1.238z" style="opacity:1;fill:#cc2918;fill-opacity:1;stroke:#000;stroke-width:1;stroke-miterlimit:4;stroke-dasharray:none;stroke-dashoffset:4.57999992;stroke-opacity:1" transform="translate(-51)"/><path d="M94.328 37.92c-1.293 0-2.1-1.088-2.1-2.1 0-1.023.791-2.099 2.1-2.099h20.223c1.309 0 2.1 1.076 2.1 2.1 0 1.01-.807 2.099-2.1 2.099H94.328zM94.582 43.857c-1.26 0-2.045-1.088-2.045-2.1 0-1.023.77-2.098 2.045-2.098h19.715c1.275 0 2.045 1.075 2.045 2.099 0 1.011-.786 2.1-2.045 2.1H94.582zM95.866 104.498c-1.104 0-1.77 1.076-1.77 2.1 0 1.01.68 2.099 1.77 2.099h17.147c1.09 0 1.77-1.088 1.77-2.1 0-1.023-.666-2.099-1.77-2.099H95.866z" style="opacity:1;fill:#cc2918;fill-opacity:1;stroke:#000;stroke-width:1;stroke-miterlimit:4;stroke-dasharray:none;stroke-dashoffset:4.57999992;stroke-opacity:1" transform="translate(-51)"/><path d="M95.973 108.697c-1.089 0-1.747 1.075-1.747 2.099 0 1.011.671 2.1 1.747 2.1h16.933c1.076 0 1.747-1.089 1.747-2.1 0-1.024-.658-2.1-1.747-2.1H95.973z" style="opacity:1;fill:#cc2918;fill-opacity:1;stroke:#000;stroke-width:.99999994;stroke-miterlimit:4;stroke-dasharray:none;stroke-dashoffset:4.57999992;stroke-opacity:1" transform="translate(-51)"/><path d="M110.972 173.54c.837 0 1.36-.723 1.36-1.396 0-.68-.513-1.396-1.36-1.396H97.907c-.847 0-1.36.716-1.36 1.396 0 .673.523 1.396 1.36 1.396h13.065z" style="opacity:1;fill:#cc2918;fill-opacity:1;stroke:#000;stroke-width:1;stroke-miterlimit:4;stroke-dasharray:none;stroke-dashoffset:4.57999992;stroke-opacity:1" transform="translate(-51)"/><path style="fill:none;fill-opacity:1;fill-rule:evenodd;stroke:#000;stroke-width:1.99999988;stroke-linecap:butt;stroke-miterlimit:4;stroke-dashoffset:0;stroke-opacity:1" d="m1 1 3.761 158.003c2.687 112.86 196.652 112.86 199.338 0L207.86 1z"/><g><path d="M39.731 20.684c-.004 5.363 4.328 9.37 6.541 9.37h16.335c2.213 0 6.545-4.007 6.54-9.37C69.14 10.585 60.29 7.779 54.44 7.779s-14.7 2.806-14.708 12.905z" style="opacity:1;fill:#feeb00;fill-opacity:1;stroke:#000;stroke-width:1;stroke-miterlimit:4;stroke-dasharray:none;stroke-dashoffset:4.57999992;stroke-opacity:1" transform="translate(103)"/><path d="M48.217 182.788 46.272 30.053h16.335l-1.945 152.735c-.005.723-2.354 1.238-6.223 1.238-3.868 0-6.217-.515-6.222-1.238z" style="opacity:1;fill:#feeb00;fill-opacity:1;stroke:#000;stroke-width:1;stroke-miterlimit:4;stroke-dasharray:none;stroke-dashoffset:4.57999992;stroke-opacity:1" transform="translate(103)"/><path d="M44.328 37.92c-1.293 0-2.1-1.088-2.1-2.1 0-1.023.791-2.099 2.1-2.099H64.55c1.309 0 2.1 1.076 2.1 2.1 0 1.01-.807 2.099-2.1 2.099H44.328zM44.582 43.857c-1.26 0-2.045-1.088-2.045-2.1 0-1.023.77-2.098 2.045-2.098h19.715c1.275 0 2.045 1.075 2.045 2.099 0 1.011-.786 2.1-2.045 2.1H44.582zM45.866 104.498c-1.104 0-1.77 1.076-1.77 2.1 0 1.01.68 2.099 1.77 2.099h17.147c1.09 0 1.77-1.088 1.77-2.1 0-1.023-.666-2.099-1.77-2.099H45.866z" style="opacity:1;fill:#feeb00;fill-opacity:1;stroke:#000;stroke-width:1;stroke-miterlimit:4;stroke-dasharray:none;stroke-dashoffset:4.57999992;stroke-opacity:1" transform="translate(103)"/><path d="M45.973 108.697c-1.089 0-1.747 1.075-1.747 2.099 0 1.011.671 2.1 1.747 2.1h16.933c1.076 0 1.747-1.089 1.747-2.1 0-1.024-.658-2.1-1.747-2.1H45.973z" style="opacity:1;fill:#feeb00;fill-opacity:1;stroke:#000;stroke-width:.99999994;stroke-miterlimit:4;stroke-dasharray:none;stroke-dashoffset:4.57999992;stroke-opacity:1" transform="translate(103)"/><path d="M60.972 173.54c.837 0 1.36-.723 1.36-1.396 0-.68-.513-1.396-1.36-1.396H47.907c-.847 0-1.36.716-1.36 1.396 0 .673.523 1.396 1.36 1.396h13.065z" style="opacity:1;fill:#feeb00;fill-opacity:1;stroke:#000;stroke-width:1;stroke-miterlimit:4;stroke-dasharray:none;stroke-dashoffset:4.57999992;stroke-opacity:1" transform="translate(103)"/></g></svg>