<svg xmlns="http://www.w3.org/2000/svg" version="1.0" width="208.86" height="244.66"><path style="fill:#1b63c6;fill-opacity:1;fill-rule:evenodd;stroke:#000;stroke-width:1.99999988;stroke-linecap:butt;stroke-miterlimit:4;stroke-dashoffset:0;stroke-opacity:1" d="m1 1 3.761 158.003c2.687 112.86 196.652 112.86 199.338 0L207.86 1z"/><path d="M78.065 212.225c-2.09-4.61-2.428-8.856-4.64-13.692 4.429-9.963 5.058-17.585-1.661-30.454-2.462 7.958-2.18 17.239-.87 24.673-2.28-5.12-4.101-9.186-6.614-13.54 3.163-7.638 5.78-19-.38-29.733-2.113 6.018-3.539 17.232-1.443 25.746-2.653-4.32-11.465-22.69-14.42-27.067l-1.872 2.116c2.9 4.728 9.514 19.131 12.139 23.727-5.408-6.022-10.945-11.711-18.634-11.719 4.4 9.244 12.697 13.876 21.842 17.506 2.538 4.888 4.17 7.953 6.864 13.7-6.675-10.552-14.603-13.346-21.163-15.93 4.823 10.82 12.592 15.25 22.143 19.722 2.202 4.653 4.355 12.348 6.295 16.694z" style="opacity:1;fill:#feeb00;fill-opacity:1;stroke:#000;stroke-width:1;stroke-miterlimit:4;stroke-dasharray:none;stroke-dashoffset:4.57999992;stroke-opacity:1"/><path d="M22.093 118.524c-.815 1.72-.56 4.198 1.06 5.303l15.737 10.116.893-18.685c.04-1.96-1.83-3.605-3.704-3.94-2.904-.52-6.458 1.108-7.897 1.85-1.439.74-4.826 2.69-6.089 5.356zM43.847 111.689c-1.898.155-3.916 1.615-4.064 3.57l-.893 18.684 16.63-8.568c1.717-.946 2.208-3.388 1.56-5.179-1.002-2.773-4.188-5.037-5.55-5.912-1.361-.876-4.744-2.834-7.683-2.595zM60.643 127.109c-1.083-1.566-3.356-2.584-5.123-1.734l-16.63 8.568 15.736 10.117c1.678 1.014 4.039.218 5.266-1.238 1.9-2.254 2.269-6.146 2.346-7.762.077-1.617.082-5.526-1.595-7.951zM55.686 149.363c.815-1.72.56-4.198-1.06-5.303L38.89 133.943l-.894 18.685c-.04 1.96 1.83 3.606 3.705 3.941 2.903.519 6.457-1.108 7.896-1.85 1.44-.741 4.827-2.69 6.09-5.356z" style="opacity:1;fill:#feeb00;fill-opacity:1;stroke:#000;stroke-width:.99999994;stroke-miterlimit:4;stroke-dasharray:none;stroke-dashoffset:4.57999992;stroke-opacity:1"/><path d="M33.933 156.198c1.897-.155 3.916-1.615 4.063-3.57l.894-18.685-16.63 8.57c-1.718.945-2.208 3.387-1.561 5.177 1.002 2.774 4.188 5.038 5.55 5.913 1.362.876 4.744 2.834 7.684 2.595zM17.136 140.778c1.083 1.566 3.357 2.584 5.124 1.734l16.63-8.569-15.737-10.116c-1.678-1.014-4.038-.218-5.265 1.238-1.901 2.254-2.27 6.145-2.346 7.762-.078 1.617-.083 5.525 1.594 7.951z" style="opacity:1;fill:#feeb00;fill-opacity:1;stroke:#000;stroke-width:.99999994;stroke-miterlimit:4;stroke-dasharray:none;stroke-dashoffset:4.57999992;stroke-opacity:1"/><circle transform="matrix(-.88894 .45803 .45811 .8889 0 0)" cy="132.21" cx="26.798" style="opacity:1;fill:#feeb00;fill-opacity:1;stroke:#000;stroke-width:.99999994;stroke-miterlimit:4;stroke-dasharray:none;stroke-dashoffset:4.57999992;stroke-opacity:1" r="2.348"/><circle transform="matrix(-.88894 .45803 .45811 .8889 0 0)" cy="139.325" cx="30.882" style="opacity:1;fill:#feeb00;fill-opacity:1;stroke:#000;stroke-width:.99999994;stroke-miterlimit:4;stroke-dasharray:none;stroke-dashoffset:4.57999992;stroke-opacity:1" r="2.348"/><circle transform="matrix(-.88894 .45803 .45811 .8889 0 0)" cy="141.553" cx="26.836" style="opacity:1;fill:#feeb00;fill-opacity:1;stroke:#000;stroke-width:.99999994;stroke-miterlimit:4;stroke-dasharray:none;stroke-dashoffset:4.57999992;stroke-opacity:1" r="2.348"/><circle transform="matrix(-.88894 .45803 .45811 .8889 0 0)" cy="134.612" cx="22.798" style="opacity:1;fill:#feeb00;fill-opacity:1;stroke:#000;stroke-width:.99999994;stroke-miterlimit:4;stroke-dasharray:none;stroke-dashoffset:4.57999992;stroke-opacity:1" r="2.348"/><circle transform="matrix(-.88894 .45803 .45811 .8889 0 0)" cy="139.254" cx="22.815" style="opacity:1;fill:#feeb00;fill-opacity:1;stroke:#000;stroke-width:.99999994;stroke-miterlimit:4;stroke-dasharray:none;stroke-dashoffset:4.57999992;stroke-opacity:1" r="2.348"/><circle transform="matrix(-.88894 .45803 .45811 .8889 0 0)" cy="134.633" cx="30.84" style="opacity:1;fill:#feeb00;fill-opacity:1;stroke:#000;stroke-width:.99999994;stroke-miterlimit:4;stroke-dasharray:none;stroke-dashoffset:4.57999992;stroke-opacity:1" r="2.348"/><circle transform="matrix(-.88894 .45803 .45811 .8889 0 0)" cy="136.88" cx="26.792" style="opacity:1;fill:#feeb00;fill-opacity:1;stroke:#000;stroke-width:.99999994;stroke-miterlimit:4;stroke-dasharray:none;stroke-dashoffset:4.57999992;stroke-opacity:1" r="2.348"/><g><path d="M130.884 212.136c2.09-4.61 2.496-9.204 4.708-14.04-4.429-9.964-6.027-18.648.692-31.517 1.025 8.208 2.96 18.832 1.65 26.267 2.28-5.12 4.134-9.28 6.647-13.634-3.118-8.087-5.647-22.887.255-31.045 2.113 6.017 3.663 18.544 1.568 27.058 2.652-4.32 11.464-22.69 14.42-27.067l1.871 2.116c-2.9 4.728-10.139 19.694-12.763 24.29 5.834-5.5 12.353-11.312 19.258-12.282-4.4 9.244-12.603 14.313-21.748 17.944-2.537 4.887-3.7 7.765-6.395 13.511 6.675-10.55 14.338-12.815 20.898-15.4-4.823 10.822-12.89 14.47-22.44 18.943-2.202 4.653-4.267 12.26-6.207 16.606z" style="opacity:1;fill:#feeb00;fill-opacity:1;stroke:#000;stroke-width:1;stroke-miterlimit:4;stroke-dasharray:none;stroke-dashoffset:4.57999992;stroke-opacity:1"/><path d="M186.767 118.524c.815 1.72.56 4.198-1.06 5.303l-15.736 10.116-.894-18.685c-.04-1.96 1.83-3.605 3.705-3.94 2.903-.52 6.457 1.108 7.896 1.85 1.44.74 4.827 2.69 6.09 5.356zM165.014 111.69c1.898.154 3.916 1.614 4.063 3.568l.894 18.685-16.63-8.568c-1.718-.946-2.208-3.388-1.561-5.179 1.002-2.773 4.188-5.037 5.55-5.912 1.362-.876 4.744-2.834 7.684-2.595zM148.217 127.109c1.083-1.566 3.357-2.584 5.124-1.734l16.63 8.568-15.737 10.117c-1.678 1.014-4.038.218-5.265-1.238-1.901-2.254-2.269-6.146-2.346-7.762-.078-1.617-.083-5.526 1.594-7.951z" style="opacity:1;fill:#feeb00;fill-opacity:1;stroke:#000;stroke-width:.99999994;stroke-miterlimit:4;stroke-dasharray:none;stroke-dashoffset:4.57999992;stroke-opacity:1"/><path d="M153.174 149.363c-.815-1.72-.56-4.198 1.06-5.303l15.737-10.117.893 18.685c.04 1.96-1.83 3.606-3.704 3.941-2.904.519-6.458-1.108-7.897-1.85-1.439-.741-4.826-2.69-6.089-5.356z" style="opacity:1;fill:#feeb00;fill-opacity:1;stroke:#000;stroke-width:.99999994;stroke-miterlimit:4;stroke-dasharray:none;stroke-dashoffset:4.57999992;stroke-opacity:1"/><path d="M174.928 156.198c-1.898-.155-3.916-1.615-4.064-3.57l-.893-18.685 16.63 8.57c1.717.945 2.208 3.387 1.56 5.177-1.002 2.774-4.188 5.038-5.55 5.913-1.361.876-4.744 2.834-7.683 2.595zM191.724 140.778c-1.083 1.566-3.356 2.584-5.123 1.734l-16.63-8.569 15.737-10.116c1.677-1.014 4.038-.218 5.265 1.238 1.9 2.254 2.269 6.145 2.346 7.762.077 1.617.082 5.525-1.595 7.951z" style="opacity:1;fill:#feeb00;fill-opacity:1;stroke:#000;stroke-width:.99999994;stroke-miterlimit:4;stroke-dasharray:none;stroke-dashoffset:4.57999992;stroke-opacity:1"/><circle transform="rotate(27.26) skewX(-.005)" cy="36.545" cx="212.453" style="opacity:1;fill:#feeb00;fill-opacity:1;stroke:#000;stroke-width:.99999994;stroke-miterlimit:4;stroke-dasharray:none;stroke-dashoffset:4.57999992;stroke-opacity:1" r="2.348"/><circle transform="rotate(27.26) skewX(-.005)" cy="39.078" cx="216.622" style="opacity:1;fill:#feeb00;fill-opacity:1;stroke:#000;stroke-width:.99999994;stroke-miterlimit:4;stroke-dasharray:none;stroke-dashoffset:4.57999992;stroke-opacity:1" r="2.348"/><circle transform="rotate(27.26) skewX(-.005)" cy="43.633" cx="216.452" style="opacity:1;fill:#feeb00;fill-opacity:1;stroke:#000;stroke-width:.99999994;stroke-miterlimit:4;stroke-dasharray:none;stroke-dashoffset:4.57999992;stroke-opacity:1" r="2.348"/><circle transform="rotate(27.26) skewX(-.005)" cy="45.944" cx="212.45" style="opacity:1;fill:#feeb00;fill-opacity:1;stroke:#000;stroke-width:.99999994;stroke-miterlimit:4;stroke-dasharray:none;stroke-dashoffset:4.57999992;stroke-opacity:1" r="2.348"/><circle transform="rotate(27.26) skewX(-.005)" cy="38.919" cx="208.438" style="opacity:1;fill:#feeb00;fill-opacity:1;stroke:#000;stroke-width:.99999994;stroke-miterlimit:4;stroke-dasharray:none;stroke-dashoffset:4.57999992;stroke-opacity:1" r="2.348"/><circle transform="rotate(27.26) skewX(-.005)" cy="43.589" cx="208.47" style="opacity:1;fill:#feeb00;fill-opacity:1;stroke:#000;stroke-width:.99999994;stroke-miterlimit:4;stroke-dasharray:none;stroke-dashoffset:4.57999992;stroke-opacity:1" r="2.348"/><circle transform="rotate(27.26) skewX(-.005)" cy="41.215" cx="212.447" style="opacity:1;fill:#feeb00;fill-opacity:1;stroke:#000;stroke-width:.99999994;stroke-miterlimit:4;stroke-dasharray:none;stroke-dashoffset:4.57999992;stroke-opacity:1" r="2.348"/></g><g><path d="M106.018 82.379v28.55c1.846-8.325 5.313-16.415 10.896-22.105 1.371 16.174-5.81 20.753-10.896 27.245v24.278c1.183-9.57 4.277-18.337 9.293-22.474 1.465 13.687-3.74 21.412-9.293 28.724v36.25l-1.605.063-1.605-.063v-35.896c-5.749-7.443-11.886-16.813-9.971-29.724 5.148 5.513 8.833 14.402 9.971 23.43v-24.234c-5.332-6.702-12.603-13.011-11.554-28.203 5.99 6.23 9.909 15.003 11.554 23.062V82.379h1.605zM113.748 33.934c1.792 1.37 2.867 4.117 1.762 6.16l-11.08 19.191-11.08-19.191c-1.105-2.043-.03-4.79 1.762-6.16 2.776-2.121 7.4-2.337 9.318-2.337 1.918 0 6.543.216 9.318 2.337zM87.135 38.54c2.082-.867 4.999-.424 6.215 1.554l11.08 19.191H82.27c-2.321-.064-4.163-2.37-4.453-4.606-.45-3.464 1.676-7.577 2.635-9.238.959-1.66 3.458-5.558 6.683-6.901zM77.817 63.89c.29-2.236 2.132-4.54 4.453-4.605h22.16L93.35 78.476c-1.216 1.978-4.133 2.42-6.215 1.554-3.225-1.343-5.724-5.24-6.683-6.901-.959-1.661-3.085-5.774-2.635-9.238z" style="opacity:1;fill:#feeb00;fill-opacity:1;stroke:#000;stroke-width:1;stroke-miterlimit:4;stroke-dasharray:none;stroke-dashoffset:4.57999992;stroke-opacity:1"/><path d="M95.112 84.636c-1.791-1.37-2.867-4.117-1.762-6.16l11.08-19.191 11.08 19.191c1.105 2.043.03 4.79-1.762 6.16-2.775 2.121-7.4 2.336-9.318 2.336-1.917 0-6.542-.215-9.318-2.336zM121.726 80.03c-2.082.867-5 .424-6.216-1.554l-11.08-19.191h22.16c2.322.064 4.163 2.37 4.454 4.606.45 3.464-1.677 7.577-2.636 9.238-.958 1.66-3.457 5.558-6.682 6.901z" style="opacity:1;fill:#feeb00;fill-opacity:1;stroke:#000;stroke-width:1;stroke-miterlimit:4;stroke-dasharray:none;stroke-dashoffset:4.57999992;stroke-opacity:1"/><path d="M131.044 54.679c-.29 2.237-2.132 4.542-4.454 4.606h-22.16l11.08-19.191c1.217-1.978 4.134-2.42 6.216-1.554 3.225 1.343 5.724 5.24 6.682 6.901.96 1.66 3.085 5.774 2.636 9.238z" style="opacity:1;fill:#feeb00;fill-opacity:1;stroke:#000;stroke-width:1;stroke-miterlimit:4;stroke-dasharray:none;stroke-dashoffset:4.57999992;stroke-opacity:1"/><circle r="2.781" cy="53.754" cx="104.438" style="opacity:1;fill:#feeb00;fill-opacity:1;stroke:#000;stroke-width:1;stroke-miterlimit:4;stroke-dasharray:none;stroke-dashoffset:4.57999992;stroke-opacity:1"/><circle r="2.781" cy="56.754" cx="109.375" style="opacity:1;fill:#feeb00;fill-opacity:1;stroke:#000;stroke-width:1;stroke-miterlimit:4;stroke-dasharray:none;stroke-dashoffset:4.57999992;stroke-opacity:1"/><circle r="2.781" cy="62.222" cx="109.281" style="opacity:1;fill:#feeb00;fill-opacity:1;stroke:#000;stroke-width:1;stroke-miterlimit:4;stroke-dasharray:none;stroke-dashoffset:4.57999992;stroke-opacity:1"/><circle r="2.781" cy="64.754" cx="104.531" style="opacity:1;fill:#feeb00;fill-opacity:1;stroke:#000;stroke-width:1;stroke-miterlimit:4;stroke-dasharray:none;stroke-dashoffset:4.57999992;stroke-opacity:1"/><circle r="2.781" cy="56.597" cx="99.781" style="opacity:1;fill:#feeb00;fill-opacity:1;stroke:#000;stroke-width:1;stroke-miterlimit:4;stroke-dasharray:none;stroke-dashoffset:4.57999992;stroke-opacity:1"/><circle r="2.781" cy="62.097" cx="99.719" style="opacity:1;fill:#feeb00;fill-opacity:1;stroke:#000;stroke-width:1;stroke-miterlimit:4;stroke-dasharray:none;stroke-dashoffset:4.57999992;stroke-opacity:1"/><circle r="2.781" cy="59.285" cx="104.43" style="opacity:1;fill:#feeb00;fill-opacity:1;stroke:#000;stroke-width:1;stroke-miterlimit:4;stroke-dasharray:none;stroke-dashoffset:4.57999992;stroke-opacity:1"/></g><path style="opacity:1;fill:#feeb00;fill-opacity:1;stroke:#000;stroke-width:1;stroke-miterlimit:4;stroke-dasharray:none;stroke-dashoffset:4.57999992;stroke-opacity:1" d="M113.954 184.983c.975-4.967 1.96-9.97 3.003-15.184-4.895-10.899-6.094-21.335-.638-30.94 2.137 8.066 2.987 16.082 2.062 24.03 1.997-8.592 4.012-17.697 6.58-26.226-2.73-9.936-6.344-19.371.639-29.535 1.849 7.88 2.67 15.32 1.223 23.319 1.59-4.814 2.794-9.089 4.666-14.027-.606-9.647 4.613-17.05 11.612-24.142-.342 9.631-.997 19.143-9.305 25.772-1.737 5.267-3.36 9.717-4.86 14.792 4.416-6.691 9.08-11.827 15.579-14.356-2.16 10.006-9.307 15.093-17.374 20.725-2.42 8.498-4.1 17.505-6.151 25.936 4.075-11.801 9.956-15.417 15.747-19.438-2.21 11.64-8.911 19.504-17.18 26.05-1.076 5.033-1.961 9.697-2.852 14.373z"/><g><path d="M562.116-58.156c5.2-2.295 10.481-6.073 10.481-14.192 0-7.892-11.244-13.764-19.055-7.198-8.13 6.835-11.27 17.12-10.96 29.699.947 7.673 2.206 18.761 12.259 19.767 6.027.603 12.873-5.427 6.39-12.254-1.516 5.926-7.964 5.217-10.252 2.033-6.733-9.369-3.101-19.992.795-25.28 5.608-7.608 14.762-.83 10.342 7.425zM520.396-58.156c-5.2-2.295-10.481-6.073-10.481-14.192 0-7.892 11.244-13.764 19.055-7.198 8.13 6.835 11.27 17.12 10.96 29.699-.947 7.673-2.206 18.761-12.26 19.767-6.026.603-12.872-5.427-6.39-12.254 1.517 5.926 7.965 5.217 10.253 2.033 6.733-9.369 3.101-19.992-.795-25.28-5.608-7.608-14.762-.83-10.342 7.425z" style="opacity:1;fill:#feeb00;fill-opacity:1;stroke:#000;stroke-width:1;stroke-miterlimit:4;stroke-dasharray:none;stroke-dashoffset:4.57999992;stroke-opacity:1" transform="translate(-370.71 112.2)"/><path d="M546.824-29.341c-1.273-6.948-3.344-14.088-3.27-20.595-2.131-10.514 2.656-21.422 5.922-32.438 2.01-6.78-2.692-12.994-8.22-16.794-5.528 3.8-10.23 10.014-8.22 16.794 3.266 11.016 8.053 21.924 5.922 32.438.074 6.507-1.997 13.647-3.27 20.595-.718 3.913 2.925 8.5 5.568 11.137 2.642-2.636 6.285-7.224 5.568-11.137z" style="opacity:1;fill:#feeb00;fill-opacity:1;stroke:#000;stroke-width:1;stroke-miterlimit:4;stroke-dasharray:none;stroke-dashoffset:4.57999992;stroke-opacity:1" transform="translate(-370.71 112.2)"/><path d="M534.562-53.638c-1.576 0-2.655 1.576-2.627 3.636 0 2 1.108 3.636 2.627 3.636h13.388c1.519 0 2.627-1.637 2.627-3.636.028-2.06-1.05-3.636-2.627-3.636h-6.694z" style="opacity:1;fill:#feeb00;fill-opacity:1;stroke:#000;stroke-width:1;stroke-miterlimit:4;stroke-dasharray:none;stroke-dashoffset:4.57999992;stroke-opacity:1" transform="translate(-370.71 112.2)"/></g><path style="opacity:1;fill:#feeb00;fill-opacity:1;stroke:#000;stroke-width:1;stroke-miterlimit:4;stroke-dasharray:none;stroke-dashoffset:4.57999992;stroke-opacity:1" d="M94.906 184.983a4439.36 4439.36 0 0 0-3.002-15.184c4.332-10.899 5.719-20.023.575-29.69-2.137 8.066-2.925 14.832-2 22.78-1.996-8.592-3.747-17.21-6.315-25.74 2.73-9.936 5.267-18.482-.216-29.084-1.849 7.88-3.092 14.87-1.645 22.868-1.59-4.814-3.06-9.575-4.932-14.513-.139-8.454-5.025-16.39-11.611-24.142.341 9.631.997 19.143 9.305 25.772 1.737 5.267 3.228 10.335 4.728 15.41-4.418-6.69-8.95-13.152-15.447-15.681 2.16 10.006 9.174 16.419 17.241 22.05 2.42 8.499 4.232 16.887 6.284 25.318-4.075-11.801-9.956-15.417-15.747-19.438 2.21 11.64 8.91 19.504 17.18 26.05 1.076 5.033 1.96 9.697 2.852 14.373z"/><g><path d="M562.116-58.156c5.2-2.295 10.481-6.073 10.481-14.192 0-7.892-11.244-13.764-19.055-7.198-8.13 6.835-11.27 17.12-10.96 29.699.947 7.673 2.206 18.761 12.259 19.767 6.027.603 12.873-5.427 6.39-12.254-1.516 5.926-7.964 5.217-10.252 2.033-6.733-9.369-3.101-19.992.795-25.28 5.608-7.608 14.762-.83 10.342 7.425zM520.396-58.156c-5.2-2.295-10.481-6.073-10.481-14.192 0-7.892 11.244-13.764 19.055-7.198 8.13 6.835 11.27 17.12 10.96 29.699-.947 7.673-2.206 18.761-12.26 19.767-6.026.603-12.872-5.427-6.39-12.254 1.517 5.926 7.965 5.217 10.253 2.033 6.733-9.369 3.101-19.992-.795-25.28-5.608-7.608-14.762-.83-10.342 7.425z" style="opacity:1;fill:#feeb00;fill-opacity:1;stroke:#000;stroke-width:1;stroke-miterlimit:4;stroke-dasharray:none;stroke-dashoffset:4.57999992;stroke-opacity:1" transform="matrix(-1 0 0 1 579.57 112.2)"/><path d="M546.824-29.341c-1.273-6.948-3.344-14.088-3.27-20.595-2.131-10.514 2.656-21.422 5.922-32.438 2.01-6.78-2.692-12.994-8.22-16.794-5.528 3.8-10.23 10.014-8.22 16.794 3.266 11.016 8.053 21.924 5.922 32.438.074 6.507-1.997 13.647-3.27 20.595-.718 3.913 2.925 8.5 5.568 11.137 2.642-2.636 6.285-7.224 5.568-11.137z" style="opacity:1;fill:#feeb00;fill-opacity:1;stroke:#000;stroke-width:1;stroke-miterlimit:4;stroke-dasharray:none;stroke-dashoffset:4.57999992;stroke-opacity:1" transform="matrix(-1 0 0 1 579.57 112.2)"/><path d="M534.562-53.638c-1.576 0-2.655 1.576-2.627 3.636 0 2 1.108 3.636 2.627 3.636h13.388c1.519 0 2.627-1.637 2.627-3.636.028-2.06-1.05-3.636-2.627-3.636h-6.694z" style="opacity:1;fill:#feeb00;fill-opacity:1;stroke:#000;stroke-width:1;stroke-miterlimit:4;stroke-dasharray:none;stroke-dashoffset:4.57999992;stroke-opacity:1" transform="matrix(-1 0 0 1 579.57 112.2)"/></g><path style="opacity:1;fill:#009645;fill-opacity:1;stroke:#000;stroke-width:1;stroke-miterlimit:4;stroke-dasharray:none;stroke-dashoffset:4.57999992;stroke-opacity:1" d="M131.228 215.903c4.735-14.91 16.807-21.053 25.96-20.18 16.55 1.576 18.646 15.008 17.017 25.194-15.25 11.878-34.19 20.265-57.557 22.147zM77.633 215.903c-4.736-14.91-16.807-21.053-25.96-20.18-16.55 1.576-18.647 15.008-17.018 25.194 15.251 11.878 34.19 20.265 57.557 22.147z"/><path style="opacity:1;fill:#009645;fill-opacity:1;stroke:#000;stroke-width:1;stroke-miterlimit:4;stroke-dasharray:none;stroke-dashoffset:4.57999992;stroke-opacity:1" d="M126.359 190.923c5.489 6.989 6.673 19.381 5.053 24.41-3.425 10.633-6.837 19.233-12.517 27.495l-14.465.82-14.465-.82c-5.68-8.262-9.091-16.862-12.517-27.496-1.619-5.028-.436-17.42 5.054-24.41 6.41-8.16 17.053-10.078 21.928-10.078s15.52 1.919 21.929 10.079z"/></svg>