<svg xmlns="http://www.w3.org/2000/svg" version="1.0" width="208.86" height="244.66"><path style="fill:#1b63c6;fill-opacity:1;fill-rule:evenodd;stroke:#000;stroke-width:1.99999988;stroke-linecap:butt;stroke-miterlimit:4;stroke-dashoffset:0;stroke-opacity:1" d="m1 1 3.761 158.003c2.687 112.86 196.652 112.86 199.338 0L207.86 1z"/><path style="opacity:1;fill:#fff;fill-opacity:1;stroke:#000;stroke-width:1.00157475;stroke-miterlimit:20;stroke-dasharray:none;stroke-dashoffset:4.57999992;stroke-opacity:1" d="m120.19 242.674-5.69-48.764 3-50.75 19.25-6 31.5 18 8.75-34.75 6.25-7.75 21.756 16.244c0 46.434-2.215 63.329-24.943 87.191-9.514 9.989-30.317 22.214-59.874 26.579zM4.038 136.641 20.5 109.16l11.25 5 8.75 19.75.08 10.247 19.17 12.003 13.25-1 16 20.25-8 31.5 2.255 34.969c-28.305-5.47-47.014-16.234-59.105-30.75C5.806 189.108 3.934 166.06 4.038 136.642z"/><path style="opacity:1;fill:#fff;fill-opacity:1;stroke:#000;stroke-width:.99999994;stroke-miterlimit:4;stroke-dasharray:none;stroke-dashoffset:4.57999992;stroke-opacity:1" d="m190.147 23.817-9.843 11.532 9.843 11.531-14.907-2.76-5.063 14.292-5.064-14.292-14.906 2.76 9.843-11.531-9.843-11.532 14.906 2.76 5.064-14.292 5.063 14.292zM18.714 23.817l9.843 11.532-9.843 11.531 14.906-2.76 5.064 14.292 5.063-14.292 14.907 2.76L48.81 35.35l9.843-11.532-14.907 2.76-5.063-14.292-5.064 14.292z"/><path style="opacity:1;fill:none;fill-opacity:1;stroke:#000;stroke-width:1.00157475;stroke-miterlimit:20;stroke-dasharray:none;stroke-dashoffset:4.57999992;stroke-opacity:1" d="m89 175.41-9.25 8-35.5-3.5-3.5-14.25M117.5 143.16l10 11 23.75 12.5 18.25 3.25M127.5 154.16l2 26.25"/><g transform="translate(2 4)"><path d="M119.413 100.322c2.076 2.762 4.682 5.293 10.253 6.54 5.577.747 8.888 7.227 12.55 12.817l.354 5.392 4.95 4.684c.714-1.528.997-2.985.702-4.825-.16-.996-1.47-1.69-3.088-2.158l-.266-.972c.573-.278 1.3-.71 2.122-1.237-3.306-5.918-7.172-12.236-11.049-18.562-5.801-1.801-11.191-1.853-16.528-1.68zM65.584 87.506c-2.517-.575-4.252 2.417-3.005 4.021 5.481 7.051 10.776 14.03 16.882 17.766 1.24-4.404-.311-6.718-4.066-7.292 1.088-2.615 1.934-5.145 3.182-6.717l-4.375-5.613c-2.793-.789-5.62-1.481-8.618-2.165zM76.75 35.285c-2.583 3.48-2.013 7.199 1.813 11.187 1.266 1.321 1.824 3.047 1.75 5.125l4.25-.437c.141-3.656.356-7.287 4.187-10.125 10.753-7.965 25.62-13.235 24.125-26.938-1.764 3.5-3.448 7.035-6.25 10.125-1.07 1.18-2.36 1.279-2.46-.422-.133-2.297.145-5.098.575-7.911-3.692 2.273-3.879 7.05-4.11 11.976-.36.4-2.825 2.366-3.44 2.459-.676.101-.895-.065-1.244-.647-1.138-1.89-1.057-4.895-.818-7.623-2.78 2.221-3.628 5.822-2.696 10.695-1.28.882-2.738 2.192-4.132 3.403-.564.49-.897-.081-1.06-.442-1.166-2.567-.942-5.802-1.04-8.883-2.98 3.15-4.154 7.1-2.076 12.485-1.044 1.175-1.961 2.402-2.608 3.734-.244.504-.641.724-1.016.42-2.21-1.789-3.3-4.682-3.75-8.181z" style="opacity:1;fill:#feeb00;fill-opacity:1;stroke:#000;stroke-width:1.00157475;stroke-miterlimit:20;stroke-dasharray:none;stroke-dashoffset:4.57999992;stroke-opacity:1"/><path d="M92.52 47.952c9.072-3.964 17.43-9.086 25.655-14.894 3.3-2.33 7.166-3.927 15.203-1.944-4.646 1.219-11.318 2.171-11.314 3.977.006 2.452 6.376 2.222 9.988 2.652-4.115 2.858-8.644 3.497-13.877.353-1.577 1.077-3.085 1.987-4.508 3.006-.493.353-.535.807-.176 1.237 1.959 2.351 5.083 3.484 8.485 4.331-5.073 2.466-9.302 1.175-13.082-2.121-1.147.651-2.379 1.223-3.623 1.966-.414.247-.47.762-.023 1.26 1.657 1.839 4.342 3.454 7.823 4.883-2.688 2.354-7.787 1.553-12.507-3.358-1.154.578-2.23.99-2.85 1.26-.278.12-.652.63-.465.95 1.447 2.455 3.965 4.126 6.32 5.9-3.272 1.966-6.911.306-10.85-4.31-2.057.063-2.587 1.02-2.231 2.497 1.232.323 4.9 3.053 5.944 5.392-1.017 1.09-2.623 1.545-3.757 1.392 1.346 5.145 1.857 10.22 1.79 15.247 11.183 1.365 22.44 3.133 34.222 6.657 1.93.577 4.164.833 7.625.187-.232 2.074-1.376 2.527-2.315 3.343.826 3.514 1.618 6.798 2.917 9.811 2.147 4.982 5.38 4.703 7.645 4.994l11.104 16.12c-.686.212-1.343.22-2 .232.54 1.792 1.218 3.648 3.27 4.596.24 2.178-.38 4.09-.972 6.01l-4.64-4.95c.202-9.499-5.48-15.058-13.833-18.826-4.831-1.187-9.87-2.487-12.772-4.729-4.333.097-8.092.016-13.353.577 1.556-.815 2.307-1.37 3.32-2.035a558.773 558.773 0 0 0-18.605 1.68c-4.328.458-8.573.023-12.517-1.69-.4.319-.765.623-1.183.982a146.895 146.895 0 0 0-16.352-1.326c-1.133-.03-1.34.732-1.105 1.105 1.91 3.035 4.38 5.549 6.806 8.088l-1.326 1.149.84 1.149c1.79.287 4.209.903 4.331 1.856.242 1.88.133 3.671-.044 5.48-3.086-2.087-6.888-4.43-8.972-8.618l-7.275-8.654c-1.577-2.2-.708-6.277 2.688-6.531 3.767-.028 7.538-.074 11.593-1.656-.465-2.876-.884-5.768-.656-8.875a3.633 3.633 0 0 1-1.031.75c.13-3.45 1.27-6.596 2.594-9.688-.647.308-1.217.407-1.782.469 1.459-3.896 4.148-7.66 7.282-11.375-3.115-.147-7.421-1.688-11.375-3.344-2.531.968-4.87 1.613-4.969-1.531l1.062-3.563c6.21-2.815 13.095-5.245 20.121-7.594 1.58 1.247 3.538 1.898 7.713.074z" style="opacity:1;fill:#feeb00;fill-opacity:1;stroke:#000;stroke-width:1.00199997;stroke-miterlimit:20;stroke-dasharray:none;stroke-dashoffset:4.57999992;stroke-opacity:1"/><path d="M74.031 54.191c1.929-.275 4.174-.036 5.781.438" style="opacity:1;fill:none;fill-opacity:1;stroke:#000;stroke-width:1.00199997;stroke-miterlimit:20;stroke-dasharray:none;stroke-dashoffset:4.57999992;stroke-opacity:1"/><circle r=".844" cy="55.097" cx="76.914" style="opacity:1;fill:#000;fill-opacity:1;stroke:#000;stroke-width:1.00199997;stroke-miterlimit:20;stroke-dasharray:none;stroke-dashoffset:4.57999992;stroke-opacity:1"/><path d="M124.716 101.073c-3.21-2.79-5.312-6.152-7.247-9.6M83.56 99.604c1.562-1.253 2.585-2.567 3.596-3.882M73.562 92.629a106.214 106.214 0 0 0 5.149-2.14M74.469 74.816c1.11-.525 2.194-1.13 2.981-1.96M72.906 83.754c1.011-1.02 1.97-2.063 2.732-3.187M79.969 63.91c1.739.176 3.45-.383 5.105-2.369M87.085 59.2c1.309 1.437 3.482 3.007 5.59 3.181M86.245 55.686c1.254-.221 2.739-.498 4.243-.089M88.62 57.224c1.211.008 2.564.932 3.361 1.521" style="opacity:1;fill:none;fill-opacity:1;stroke:#000;stroke-width:1.00199997;stroke-miterlimit:20;stroke-dasharray:none;stroke-dashoffset:4.57999992;stroke-opacity:1"/><ellipse ry="1.647" rx="1.056" cy="57.239" cx="64.064" style="opacity:1;fill:#000;fill-opacity:1;stroke:#000;stroke-width:1.00199997;stroke-miterlimit:20;stroke-dasharray:none;stroke-dashoffset:4.57999992;stroke-opacity:1"/></g><path style="opacity:1;fill:none;fill-opacity:1;stroke:#000;stroke-width:1.00199997;stroke-miterlimit:20;stroke-dasharray:none;stroke-dashoffset:4.57999992;stroke-opacity:1" d="m40.58 144.157.17 21.503L35 186.41l5 22.5"/><path style="fill:none;fill-opacity:1;fill-rule:evenodd;stroke:#000;stroke-width:1.99999988;stroke-linecap:butt;stroke-miterlimit:4;stroke-dashoffset:0;stroke-opacity:1" d="m1 1 3.761 158.003c2.687 112.86 196.652 112.86 199.338 0L207.86 1z"/><path style="opacity:1;fill:none;fill-opacity:1;stroke:#000;stroke-width:1.00199997;stroke-miterlimit:20;stroke-dasharray:none;stroke-dashoffset:4.57999992;stroke-opacity:1" d="m151.25 166.66 11.25 33.75 7-30.5-1.25-14.75"/></svg>