<svg width="622.24" height="717.23" xmlns="http://www.w3.org/2000/svg"><path d="M6.21 6h609.82l-14.755 429.83c-14.754 162.29-127.87 275.4-290.16 275.4s-275.4-113.11-290.16-275.4z" fill="#f00000"/><path d="M386.81 32.775c-11.353 3.305-12.215 2.95-16.559 9.605-10.58 4.63 1.317 17.408-.006 25.344l11.883-4.86c4.629-3.307 8.139.89 10.025-7.124.661-2.645-4.021-20.32-5.344-22.965zM197.17 86.082c-2.298 5.771-3.314 8.763-1.153 12.228.274 10.453 18.506 10.595 29.063 11.162-3.243-13.896-7.776-21.871-7.776-21.871l-9.549-3.225c-3.51.086-7.86-.937-10.585 1.705zm271.5 90.518c-2.645 4.629-10 10.855-12.645 15.484l11.242 9.258c6.613 0 13.886-3.967 17.854-8.596-2.645-6.613-9.838-14.163-16.451-16.146zm-262.63 81.791c-4.629 4.629-5.572 18.682-6.894 25.295 4.629 1.984 16.478 7.14 21.523.36 0-7.275 10.624-16.987 7.474-25.044-4.092-.037-18.515.19-22.104-.611zm153.57 42.104-1.602.916-2.941 10.201c4.796 65.406 2.267 86.296 1.332 130.81-15.006 57.308-20.195 106.1-72.383 151.12-1.984-24.467-7.644-46.705-14.918-69.189-2.645-7.274-6.892-13.238-8.215-20.512-.397-13.702 1.446-27.435 4.547-40.986l6.121-.82c.398.929.893 1.779 1.576 2.463l3.59 3.564c3.968 3.307 17.72 3.375 37.962-17.344-1.2-3.226-1.028-5.835-.686-7.506 5.29-7.935 8.294-15.248 7.633-26.49l-2.828-4.373c2.208-12.024 3.204-17.055 4.01-19.526-.488-2.14-4.75-1.832-6.944-1.13-.661-7.274.163-19.795-1.82-27.73l-4.83 5.348c-.793 1.127-1.518 2.28-2.288 3.416l-4.375-1.135c2.715-2.768 5.203-5.556 6.934-8.441-10.58 2.645-23.682 1.44-31.617 9.377-2.645-1.984-.558-4.801-3.203-6.123-10.58 6.612-19.816 16.22-25.768 26.8l-5.373.374-3.783 12.129c-3.968 12.564-2.87 31.44 7.71 40.037 1.283.855 3.77.115 6.094-1.016l2.766 6.394c-3.322 9.167-6.007 18.793-7.414 29.443-6.72-10.337-13.13-22.964-21.064-32.883-11.407-17.227-23.982-32.327-37.791-45.836 1.619-2.19 3.153-4.538 3.45-5.425 11.902-15.21 15.277-27.706 6.68-42.254-1.322-4.63-13.952-17.25-17.26-19.895-1.983 1.322-3-.465-1.976 6.611-10.58-10.58-9.922-14.115-22.486-21.389l-17.1-8.459c-.661 3.306-1.083 4.827-1.744 8.795-10.58-7.936-23.264-7.354-35.828-9.338 5.8 5.09 1.399 7.47 7.725 12.529l-19.594-5.102c-5.952 1.323-17.14.316-20.445 5.606a164.775 164.775 0 0 0 8.369 10.965 976.946 976.946 0 0 0-6.69-4.197c-3.306 5.951 1.981 12.567 3.965 19.18-.661 7.274 3.648 5.354-1.417 14.745 1.323 11.242 5.207 22.26 12.481 29.534-1.983 1.322 4.555 6.126 5.877 10.094 7.936 10.58 7.565 10.806 19.467 14.774-.66 1.983 1.244 5.082 3.89 7.066 15.208 7.935 41.388 16.958 55.937 3.732 1.984-3.967 6.432-10.997 6.432-16.287-10.893-11.355-22.55-21.992-34.73-32.057 5.877 2.825 11.608 5.617 17.139 8.655 29.04 30.289 49.63 51.864 63.764 92.334l5.761 9.48c-8.521-.348-17.63.665-26.775 2.557l-.193-2.453c4.63-3.307 4.707-10.682 3.385-13.988-10.58-12.564-35.606-18.503-52.8-13.213-1.983 3.306-12.521 6.095-11.198 9.402-14.548 5.951-23.385 5.686-34.627 18.25-1.323 5.29 2.008 7.235 3.992 10.54-8.597 4.63-5.295 11.489-8.602 19.425 1.323 3.306 2.278 2.398 4.262 3.72-2.412 10.024-4.45 20.8-5.426 30.288 8.491 2.188 18.51 5.513 26.736 5.695 6.724 2.503 7.705 5.045 8.51 6.484 10.58 1.323 11.522-.397 28.272-1.265 11.242-1.983 9.056-1.234 18.974-6.524 9.768-5.557 17.115-5.925 18.068-3.912 12.564-5.29 20.284-12.56 20.691-33.607-1.322-3.306-5.699-10.797-11.65-10.797-2.291.36-4.557.762-6.818 1.188l-.504-6.135c10.296-1.424 23.89-1.095 35.613 2.08 10.58 31.741 12.385 36.242 21.305 98.756-12.933 7.713-27.343 16.145-33.723 23.145-1.984 9.258-6.013 23.353-7.336 32.611 3.306 6.613 9.945.954 16.598-3.514 38.354-19.177 70.095-54.877 113.08-68.104 10.58-1.984 21.819-.671 30.416 2.635-1.323-6.613-6.072-16.727-12.023-20.033-15.399-8.755-28.684-5.832-38.555-1.33 18.516-18.516 28.761-38.149 36.035-61.955l19.838-21.814h17.191c9.847 5.043 10.913 5.8 21.725 12.125-5.952 7.935-12.131 22.173-10.148 32.092 3.968 7.935 5.588 19.464 14.185 23.432 6.137 5.152 17.202 14.807 21.237 16.054l9.288 3.381c8.596 4.63 13.36 5.288 23.942 6.61l4.712-4.639c9.92 5.952 20.283 3.696 32.848 4.357 4.62-4.484 1.026-34.322 4.682-35.19-.886-13.189-5.119-30.115-5.15-37.35-5.29-8.597-11.273-14.129-19.87-20.08l-3.558-6.99c-11.188-9.097-13.488-7.815-28.002-10.241-4.153-.093-10.417 2.7-14.343 4.766-4.63 1.984-11.17 3.4-11.83 8.69 1.532 4.313-37.203-14.818-44.717-15.4 12.925-13.658 25.853-23.824 39.262-35.02 1.957 6.627 6.502 16.674 12.503 19.674 11.903 4.63 27.956-.012 39.859-3.316 3.306.661 1.992-3.96.67-5.283 11.242-2.645 24.359-5.61 34.279-12.884-1.323-1.984 7.429-5.717 5.445-7.7 7.935-5.952 6.555-6.528 12.506-15.786-1.984-1.983-3.01-3.016-7.93-3.964 9.92-2.645 19.794-13.492 23.762-22.75-4.76-.345-6.644-.835-8.257-.864 7.382-9.227 7.633-15.628 11.955-26.293 1.006-.3 1.992-.61 3.007-.904l-7.709-9.97c-9.258-4.63-23.87-8.37-35.113-9.693-7.186-.525-13.547.06-23.744 2.42l-3.306-2.648c-10.303 3.733-18.332 3.525-26.268 6.17-6.714 3.828-11.172 6.753-17.373 11.021-5.952 3.307-8.137 5.82-15.873 11.25-9.258 11.242-27.376 26.744-18.78 43.938 2.07 2.587 4.972 11.11 8.667 14.078-19.87 18.876-38.152 38.15-52.31 53.006 9.92-56.209 12.048-102.4.804-159.93-5.952-1.983-10.598-12.704-15.89-15.35z" fill="#094"/><path d="M340.43 34.708c-3.62-.32-7.301-.222-10.965.155-14.556 1.5-29.122 7.43-39.702 11.728-9.179 3.05-19.717 4.052-30.326 6.277-10.557 2.213-21.367 5.847-30.21 14.594-8.755 7.318-10.893 19.138-8.808 30.662.385 5.291 2.536 9.45 5.282 12.851-9.566-3.738-20.784-5.778-31.643-.71a3.86 3.86 0 0 0-.117.051c-14.274 7.137-19.036 20.67-19.567 33.878-.53 13.207 2.357 26.938 2.984 37.597.003.064.007.129.013.193 1.93 19.951.411 42.848 8.253 62.809.13.326.294.638.49.93 2.75 4.123 5.956 8.485 10.23 11.985 4.172 3.418 9.38 4.579 15.698 4.697 12.82-2.047 16.119-2.248 16.119-2.248s-8.734 18.967-6.386 29.53c1.656 7.454 6.712 13.328 13.174 16.558.237.12.483.218.736.297 19.404 6.023 39.207 10.633 58.766 17.153l.18.065c7.8 2.274 16.95 3.21 26.478 4.37s14.159 2.438 23.017-3.725c.614-.426 6.712-.987 7.076-1.64 2.724-4.903 6.96-11.297 7.904-19.593 5.57 9.24 14.656 16.802 25.884 17.462.202.012.404.012.607 0 11.476-.765 20.43-6.858 27.42-13.149.333-.299 6.732-12.991 6.972-13.369 16.513-26.039 29.686-34.64 50.566-67.298-1.528-7.256.34-1.374.284-2.08-.306-3.675-1.905-8.447-2.661-12.982-.754-4.517-.826-9.062-4.894-12.706-4.156-3.89-9.203-5.893-14.492-7.207 5.503-1.512 10.16-4.397 13.394-8.266 3.938-4.71 5.56-10.2 7.894-15.201.252-.537 1.372-1.114 1.418-1.705-2.56-18.443-2.393-13.254-14.879-46.056-17.14-16.833-19.733-29.865-24.63-40.542-5.86-5.93-7.598-9.754-7.703-9.92-5.634-3.811-12.257-8.955-28.695-11.502-.187.023-3.367-1.653-3.55-1.608-7.048 1.715-12.413 5.348-16.144 9.906-10.79 21.92-2.78-3.256-7.272-14.323a4.906 4.906 0 0 0-.271-.53c9.836 4.1-12.076-9.209-27.924-17.384zM203.241 134.88c-.021.104-.005.193-.025.297-.005.035-.035.056-.04.09zm124.599 6.006c8.12 3.995 13.543 7.84 22.447 8.718l-1.343-.323c1.802.721 2.58 1.092 2.428.956l.013-1.059c-.675 3.6.117 7.293 2.118 9.622 2.002 2.33 4.318 3.19 6.006 3.9 1.688.712 2.865 1.288 3.255 1.628s.452.113.452 1.447c0 .623.118 1.241.348 1.82.957 2.391.715 1.528.233 2.713s-1.755 5.13-.323 8.95a4.907 4.907 0 0 0 1.537 2.119c1.729 1.382 2.407 3.88 3.642 8.2.08.624.077.778-.361 1.383-.493.68-1.622 1.674-3.036 3.01s-3.328 3.173-4.055 6.263c-.451 1.917.77 3.918 1.524 5.915-.53 1.694-1.045 3.058-1.188 3.23-.17.202.064.374-2.054.374l.323.013c-3.443-.23-7.061 1.05-8.899 3.513s-1.953 4.778-2.17 6.368c-.206 1.516-.445 2.353-.465 2.428l.827.039c-9.31-1.693-16.67 3.558-21.75 9.364l1.175-.982c-1.3.78-2.98.495-4.12-.646l1.175 1.925c-.8-2.4-2.73-4.8-5.192-5.632-2.461-.832-4.464-.338-5.954.09-2.979.857-5.192 1.355-4.482 1.473a4.908 4.908 0 0 0-1.989.078c-1.534.383-2.339.186-3.37-.349-1.032-.535-2.196-1.591-3.268-2.932l1.059 2.777c-.226-3.844-2.147-7.404-4.843-9.093s-5.226-1.836-7.117-2.079c-1.89-.243-3.192-.537-3.617-.775-.424-.238-.557-.053-.865-1.795a4.897 4.897 0 0 0-.18-.698c-.124-.37-.084-1.233.477-3.035s1.653-4.216 1.653-7.517a4.907 4.907 0 0 0-3.086-4.559c-2.886-1.154-4.194-2.278-4.508-2.841s-.63-1.483.71-4.702c.144-.344.248-.704.31-1.072 1.5-8.92-.943-14.437-.943-19.128a4.922 4.922 0 0 0-.039-.646c-.187-1.404-.028-1.537.414-2.13.441-.594 1.535-1.492 3.112-2.622s3.623-2.509 5.373-4.818c1.751-2.31 2.93-5.67 2.7-9.351l-.104 1.369c.283-1.274-.097-.728 1.279-1.02s4.076-.181 7-.181c1.493 0 2.905-.68 3.836-1.847 1.952-2.44 2.792-4.625 3.59-5.748.745-1.045.969-1.22 2.287-1.395 5.789 1.05 11.49 1.437 18.017-.71zM291.533 289.25l.569.22c-.043-.02-.087-.02-.13-.04-.16-.052-.277-.13-.439-.18zm64.01 7.052c.074.196.22.372.297.568.025.044.014.098.04.142zm4.21 4.236-.038.581c.016-.131-.027-.23-.013-.362 0-.084.051-.135.051-.22zm-23.209 3.32-.465.296c.097-.053.125-.165.22-.22.076-.052.17-.022.245-.077z" clip-rule="evenodd" fill="#fff" fill-rule="evenodd"/><path d="M329.05 137.412a1.77 1.77 0 0 0-.22.013c-2.978.372-5.248 1.58-6.897 3.229-.811.812-1.244 1.848-1.834 2.79-.842-1.21-1.897-2.24-3.1-2.97-2.19-1.333-4.678-2.02-6.819-2.377a1.77 1.77 0 0 0-.955.103c-3.773 1.509-5.982 5.567-7.052 9.558-2.976-.879-6.365-.885-9.48.361-2.503 1.001-3.517 3.533-3.978 5.928-.363 1.884-.337 3.736-.35 5.464-1.101.207-2.348.256-3.964.58-1.016.205-2.142.618-3.048 1.525-.898.898-1.45 2.191-1.654 3.758-1.786 5.633-1.002 11.532 1.964 15.215-3.988 3.272-5.34 8.35-5.942 12.567a1.77 1.77 0 0 0 .104.865c1.187 3.167 3.669 5.023 6.2 6.2 1.713.797 3.33 1.297 4.959 1.86-.88.9-1.657 1.696-2.712 2.867-.83.92-1.626 1.97-2.054 3.28-.425 1.303-.39 2.866.245 4.366 1.552 3.866 5.02 7.493 9.21 8.33a1.77 1.77 0 0 0 1.536-.412c1.685-1.525 2.943-2.478 3.746-2.932.18-.102.323-.16.439-.207.092.506.13 1.385.13 2.402 0 2.062-.143 4.68.62 7.104.38 1.212 1.04 2.422 2.143 3.306 1.018.815 2.422 1.185 3.965 1.253 3.408 1.331 6.63.407 8.9-1.227 1.535-1.106 2.4-2.214 3.422-3.345l1.614 3.63a1.77 1.77 0 0 0 .362.529c1.582 1.582 3.527 2.457 5.54 2.66s4.063-.195 6.187-.904c2.6-.866 3.867-3.083 4.508-5.011.375-1.13.695-1.977 1.007-2.945 1.1 1.034 2.13 2.142 3.449 2.92 2.1 1.237 4.708 1.883 7.504 1.084a1.77 1.77 0 0 0 .129-.051c3.25-1.22 4.945-3.989 5.773-6.665.646-2.084.79-3.941 1.008-5.644l6.341.53a1.77 1.77 0 0 0 1.253-.388c3.69-2.951 5.218-6.818 5.915-11.004a1.77 1.77 0 0 0-.374-1.42c-1.334-1.63-1.449-2.464-1.395-2.804.053-.34.38-.779 1.253-1.433.873-.655 2.131-1.39 3.306-2.441s2.296-2.566 2.519-4.572a1.77 1.77 0 0 0 0-.014c.374-3.748-.797-6.919-2.648-9.415-1.422-1.917-3.217-3.43-5.037-4.818 1.802-1.736 3.103-3.74 3.603-5.876.661-2.823.462-5.665.117-8.086a1.77 1.77 0 0 0-.13-.452c-1.232-2.875-3.752-4.517-6.328-5.437-1.856-.663-3.689-.868-5.49-1.137 1.04-3.445.167-7.165-2.376-9.764-3.059-3.751-8.678-4.423-13.6-2.906-2.062-4.542-6.642-7.62-11.533-7.62z" fill="#fcdb00"/><g clip-rule="evenodd" fill-rule="evenodd"><path d="M338.314 57.84c5.952 1.323 11.242 4.629 14.549 9.258 2.645 6.613 1.322 13.226.66 19.177l3.307-7.935c1.323-5.952 1.059-14.26-3.306-18.516-2.2-2.145-5.113-4.488-10.58-5.952-15.21-5.951-25.76 6.806-38.355 13.226-21.917 11.174-52.241 0-66.128 21.16-1.984 5.952-1.984 13.227 1.984 17.855 3.968 5.29 9.258 11.242 16.532 9.258-.661-1.322-1.707-.839-3.306-1.322-7.275-2.645-12.565-10.58-12.565-18.516 1.323-5.952 3.58-11.072 9.92-12.564 16.297-3.835 36.37 0 50.257-8.597 13.225-5.29 23.144-15.21 37.031-16.532M403.12 84.953c9.258 13.225 10.58 31.08 20.5 43.644 7.935 12.564 29.096 24.467 21.822 42.322-2.645 5.951-10.58 8.597-15.21 7.935 5.29 3.307 10.817 1.043 15.21-1.322s7.274-8.412 7.274-13.226c0-15.925-12.565-25.79-22.484-36.37-17.193-15.21-7.935-48.935-35.709-50.919-4.629 0-8.596 1.323-11.903 4.63-3.306 3.967-5.951 9.918-5.951 15.87 2.645-3.968 3.967-11.903 9.258-15.21 5.951-2.645 12.564-.66 17.193 2.646M206.058 129.258c-7.935 13.226-3.967 31.08 0 44.967 9.258 21.161-6.612 44.967 4.63 64.806 4.628 3.306 9.919 8.596 17.193 6.613 3.306-1.984 7.935-3.307 8.596-7.936l-9.258 4.63c-24.467-7.936-10.58-35.71-12.564-54.226-1.323-17.193-10.58-33.725-5.952-52.24 1.323-5.291 6.613-5.952 10.581-6.614 7.935 1.323 13.226 7.936 17.855 13.226v-1.323c-1.984-3.967-5.002-9.638-9.258-12.564-6.585-4.527-15.21-3.306-21.823.661M351.54 213.902c-.661 3.968-.661 10.58-5.952 12.564-4.629 1.323-7.935-1.983-11.241-5.29-1.984 3.307-1.323 7.936-5.29 9.258s-7.275 1.323-9.92-1.322l-2.645-5.952c-3.306 2.645-6.613 8.597-12.564 5.952-11.242-.662 1.322-23.807-12.565-10.58-3.306-.662-6.612-3.307-7.935-7.275-1.984-5.29 3.307-7.274 5.952-10.58-4.63-1.323-10.58-2.646-12.565-7.936 1.323-4.629 1.984-9.919 6.613-12.564-3.306-3.307-4.629-9.92-2.645-15.21.661-5.29 5.952-3.306 8.597-4.629 0-3.967 0-9.919 3.306-11.241s7.274-1.323 9.92 0c1.322-3.307 3.306-7.936 6.612-9.92 3.968.662 9.258 2.646 9.92 7.275 1.983-3.968 3.967-7.936 9.257-7.936s9.258 3.307 10.58 7.936c4.63-1.984 10.581-1.323 13.226 1.983 1.984 2.646 3.307 6.613 1.323 9.92 5.29 1.322 10.58 1.322 12.564 5.951.661 4.63.661 10.58-4.629 13.887 4.63 3.306 9.258 7.274 8.597 13.887-.661 5.951-11.242 5.951-5.29 12.564-.662 3.968-1.323 7.936-5.952 9.258zm18.516-7.935c-6.613-9.258 7.274-9.258 5.951-17.855-1.322-4.629-3.967-7.935-7.935-10.58-1.323-5.952 5.951-5.952 3.306-12.565-.66-9.919-15.21-5.951-12.564-15.87-.661-3.307-3.306-5.952-6.613-7.274-11.903 3.967-13.225-7.936-23.806-7.936-7.274 3.307-11.903 1.984-19.177 1.323-5.951.661-7.935 5.951-10.58 9.258-5.29.661-11.903 0-13.226 5.951.661 10.58-13.887 9.258-12.564 19.177 0 5.952 7.935 10.58 0 15.21-3.307 7.935 1.322 15.21 7.935 17.854.661 3.307-2.645 7.936-1.323 11.903 1.984 10.58 17.194 3.307 17.194 15.21 2.645 3.306 7.274 5.951 12.564 4.629 3.306.661 7.935-5.952 9.92 0 2.644 2.645 7.935 3.306 11.902 1.322 4.63-5.29 10.58-7.274 17.194-5.951 9.257-.661 3.306-13.887 12.564-12.564 6.613-.662 7.935-6.613 9.258-11.242z"/><path d="M335.67 192.08c-2.646 3.968-8.597 5.951-13.888 5.951-4.629-1.322-7.274-3.967-10.58-7.935-2.645-5.951 1.984-11.242 5.29-15.21 5.952-3.306 17.193-3.306 19.177 5.29 0 3.969 2.645 8.597 0 11.904m8.597-13.226c0-2.645 1.322-3.306 3.306-4.629 0-3.306 1.323-7.935-1.984-9.919-3.967-3.306-8.596.661-12.564.661 1.872-10.964-15.043-10.751-17.193-2.645-2.645-1.984-5.29-3.306-8.597-2.645-3.967 3.307-1.322 7.936-1.984 12.564-3.306-1.322-5.951 1.323-8.596 2.646-3.307 3.306-1.323 7.274 1.322 10.58 7.936 3.306-3.306 7.935.662 13.226 1.322 3.306 5.29 5.951 7.935 5.29 9.92-5.952 5.951 10.58 15.21 8.597 5.95.66 5.29-5.29 7.935-7.936l2.645 1.984c2.645 1.323 7.935 1.984 10.58-.661s4.63-7.936 1.323-10.58c-1.323-2.646 3.306-1.985 5.29-2.646 3.307-1.322 3.96-5.238 3.75-8.682 0-4.63-5.734-5.205-9.04-5.205" fill="#fcdb00"/><path d="M324.361 173.538c-2.971-.004-5.881.775-7.866 2.014-3.306 3.307-7.94 8.59-5.295 15.202 3.306 3.306 5.949 6.62 10.578 7.943 5.29-.661 11.239-1.986 13.884-5.954 2.645-3.306.661-7.943 0-11.25-1.24-5.786-6.348-7.949-11.301-7.955zm-.684 4.133c2.494.013 5.073 1.078 6.793 2.893 1.035.997 1.735 2.217 1.886 3.577 1.984 3.307 0 7.941-3.307 8.602-1.731.347-3.64.86-5.45.904-.136.007-.266.012-.4.014h-.052c-1.265 0-2.436-.282-3.5-1.124-.003-.002-.01.002-.013 0a5.946 5.946 0 0 1-.504-.452c-2.185-1.748-3.504-4.37-3.384-6.897-.031-1.395.404-2.69 1.408-3.694 1.343-2.687 3.886-3.838 6.522-3.823zM378.652 295.24c-10.58-3.307-11.241-15.871-12.564-24.468-1.984 7.274-2.384 16.877 1.719 23.441 2.737 4.38 10.184 7.64 16.797 5.656 13.887-2.645 20.5-17.194 25.129-29.097 7.274-19.177 29.096-24.467 38.354-42.983 2.645-7.935 1.322-17.193-2.645-23.806-3.307-3.306-10.58-5.951-15.21-3.306l3.968 1.322c3.968 1.323 7.935 5.952 8.597 9.258 2.645 8.597-.43 17.275-5.952 21.822-17.273 14.225-33.725 29.758-40.338 49.596-4.629 5.952-8.597 16.532-17.855 12.565M338.314 274.74l3.968 10.58c.661 6.613-2.645 11.903-7.935 15.21-3.968 3.306-11.903 2.645-17.194.661-13.886-11.903-31.741-13.226-49.596-15.87-7.935-2.646-18.515-2.646-24.467-8.597-3.306-9.258 5.952-13.887 9.92-17.855l-5.952 1.323c-4.63 2.645-8.597 7.935-7.936 13.887 7.936 21.822 34.387 12.564 51.58 20.5 14.548 4.628 27.113 15.209 43.645 12.564 5.951-1.323 10.58-7.936 12.564-12.565-1.984-7.274-2.645-17.854-8.597-19.838"/><path d="M73.804 330.949c38.354 23.806 71.418 48.934 102.498 81.337 2.224 6.576-.596 10.77-4.629 15.21-15.21 12.564-38.176 4.646-52.683-2.294.647-1.245 1.103-2.997 1.764-4.98-11.903-3.307-23.763-14.085-31.037-24.666.793-1.11 1.98-1.636 4.626-2.958-7.274-7.936-14.704-14.962-16.026-26.204.191-.593 4.146-2.101 5.727-3.145-2.645-6.613-13.547-26.348-10.24-32.3zm37.693-7.936c-.396-5.018-2.33-7.942-3.307-9.258 12.565 1.984 23.35 3.799 33.27 11.734 1.322-3.306 1.54-6.81 1.117-9.088 14.435 4.218 29.78 15.538 38.354 24.467 1.082-1.558 1.98-4.413 1.984-6.613 3.306 2.645 7.935 7.274 9.258 11.903 7.935 15.21 12.564 35.71 1.323 50.257-1.323 1.984-4.63 1.323-5.952 0-31.08-29.757-72.08-54.886-112.418-72.08 11.982-5.068 23.183-3.764 36.37-1.322zm117.708 131.595c7.935 9.92 13.638 20.056 20.5 31.08 10.097-36.738 23.362-80.947 48.273-104.482-21.161 37.032-41 75.386-39.677 121.014 1.322 7.936 5.951 15.21 7.935 21.822 7.936 21.823 13.226 44.967 15.21 70.096l1.322 1.323c24.468-16.532 39.016-42.322 52.241-65.467 14.548-26.451 17.855-56.87 23.806-87.289 4.63-42.983 5.29-89.273-1.322-132.256l1.984-3.968c5.285 5.062 7.274 8.597 13.225 10.58 11.242 56.87 6.613 113.741-3.306 169.95h1.322c50.919-55.548 104.417-103.57 174.512-128.699-10.765 7.765-27.705 12.312-38.286 20.248-44.306 29.757-76.708 56.87-111.756 93.901l2.645 1.984c44.306 8.597 97.01 61.735 118.224 93.42-1.134-.08-10.638-10.932-10.638-10.932-19.822-24.917-64.606-59.342-102.962-69.262h-17.193l-19.838 21.822c-7.936 24.467-19.839 47.612-38.355 66.128.481.2 1.247 1.129 1.965 1.885 9.919-7.274 29.115-8.498 40.357-1.885 5.952 3.306 9.92 10.58 10.58 17.193-8.596-3.306-19.838-4.629-30.418-2.645-46.027 18.267-89.234 54.13-122.575 73.124 1.322-9.257.24-22.868 2.223-32.126 11.242-7.274 24.467-13.225 33.725-23.145 3.307-37.031-9.258-68.111-19.838-100.514-31.742-7.936-62.822 3.306-89.934 15.21-9.92 5.29-28.695 17.751-37.953 24.364 25.589-26.954 84.664-53.537 115.982-52.8l3.306-1.984c-14.548-41.66-46.29-75.386-76.708-107.127-18.516-17.193-45.685-33.736-66.188-49.607 55.548 27.774 105.203 70.77 137.606 119.044zm18.515-11.242c-10.58-8.596-10.58-27.112-5.951-39.677l3.306-8.596 4.63 2.645c5.95-10.58 12.564-20.5 23.144-27.113 1.502 1.334 1.323 5.952 3.306 7.936 7.936-7.936 17.855-11.242 28.435-13.887-5.951 9.92-15.209 17.193-21.822 27.112-8.596 16.532-19.177 34.387-26.451 50.258-1.984 2.645-5.952 3.306-8.597 1.322zm64.406-76.106c-2.112 9.154 1.722 18.574 2.383 25.848 1.515.152 1.938-.123 4.174.2-.36 5.507-2.474 21.03-3.512 24.928l5.29 1.323c-1.875 11.282-6.927 18.64-11.556 27.236 1.636 1.718 2.25 1.814 4.54 2.463-6.75 7.492-12.823 13.284-22.742 17.913-4.63 1.323-11.242.662-15.21-2.645-3.306-3.306-4.629-9.92-2.645-15.21 9.258-28.434 22.084-57.589 39.277-82.058zm37.431-116.326c-3.967.661-5.951 3.967-5.951 7.935 3.306 14.548 13.226 24.468 11.242 41 0 7.935-4.63 13.886-7.936 19.838-15.21 10.58-35.047 3.306-50.918-1.323-19.839-5.951-39.677-11.241-58.854-17.193-5.952-2.645-9.258-7.274-10.58-13.226-3.307-11.903 2.118-22.713 10.053-31.31 11.904-5.951 25.656-7.705 29.623-21.592-.661-3.306-1.984-5.29-5.951-5.951-21.161 2.645-22.484 33.725-47.612 29.096-10.581 0-17.194-7.935-21.823-15.87-7.935-18.517-5.951-41-7.935-61.5-1.323-22.483-11.242-54.225 13.887-66.79 9.919-4.628 20.5-3.306 29.757 1.323 13.226 7.274 17.194 37.032 35.71 21.161-3.307-21.822-35.048-17.193-36.37-39.676-1.985-10.58 0-19.839 7.273-26.452 15.87-15.87 39.016-13.225 58.854-19.838 21.822-7.935 58.193-23.145 72.74 3.306 7.275 17.194-1.322 35.048-13.225 45.629-1.322 3.306-1.322 7.935.662 11.241 2.645 2.646 7.274 4.63 10.58 1.984 11.903-16.532 5.952-45.628 31.08-51.58 15.87-1.983 29.097 6.613 36.37 19.839 6.613 13.887 13.683 31.518 24.263 44.082 8.597 12.564 16.792 24.472 12.77 40.562-2.727 10.906-10.581 20.5-21.823 21.822-13.226 1.322-28.435-11.242-38.354.661-.661 4.63 3.968 5.952 6.613 7.936 15.21-1.323 35.709-4.63 46.95 5.951 5.952 5.952 5.952 15.21 5.952 22.484-11.242 31.08-38.354 51.58-56.209 78.692-6.613 5.951-15.21 11.242-24.467 11.903-11.242-.661-21.161-10.58-25.129-21.161-8.596-13.226 7.936-35.71-11.242-42.983zm-131.594 31.08c-5.29 1.323-11.903 2.645-16.532.661 1.322-6.613 3.306-14.548 7.935-19.177 5.29 1.323 8.597-1.322 13.887-1.322-.661 7.274-5.29 12.564-5.29 19.838zM202.092 86.275l15.21 1.323 3.306 19.177c-7.935-2.645-15.992-1.362-21.604-2.77.661-2.646-4.186-18.39 3.088-17.73zm165.67-41.766c4.63-1.322 12.155-7.287 18.876-9.217 1.891 3.71 3.919 15.935 3.919 18.58-4.63 3.968-10.58 5.952-15.21 9.258-3.387-6.828-5.058-11.582-7.585-18.62zM485.12 192.742c-3.968 4.629-11.242 8.596-17.855 8.596l-11.241-9.257c3.306-4.63 9.919-8.597 12.564-13.226 5.951 1.984 13.887 7.274 16.532 13.887zm-62.822 217.56c-7.935-17.192 5.952-31.08 15.21-42.321.632.13 1.515.993 2.555 1.91 3.968-3.307 22.446-22.88 29.284-25.223l2.969 4.093c7.935-3.306 14.787-7.892 24.706-9.215l3.307 2.645c4.65-2.758 22.996-4.741 28.795-4.739.438.406-1.317 2.034-1.021 3.417 11.813 2.725 23.72 3.763 32.96 9.83-45.628 12.565-91.15 36.458-126.86 66.215-5.29 1.322-9.257-2.645-11.903-6.613zm124.32-24.802c4.923-.666 4.89.365 10.156.133-3.306 9.257-12.373 18.507-22.292 21.153 3.996 2.504 5.91 3.666 8.069 4.838-5.952 9.258-12.102 12.644-20.698 18.595 1.322 1.323 1.892 1.003 3.968 2.143-10.467 6.811-23.508 12.328-34.75 14.973.131 1.541-.007 1.991.596 3.21-11.903 3.306-27.708 8.032-39.611 3.402-6.613-3.306-8.597-10.58-9.258-17.854l2.645-3.968c38.354-29.096 74.063-61.499 117.708-77.37-3.968 11.904-8.597 20.826-16.532 30.745zm-88.61 92.917c12.564-6.613 26.45-.662 38.354 5.951l-.662 3.968c8.597 5.951 18.931 16.947 24.883 24.882-.82.634-1.432 1.79-3.362 2.537 3.728 4.668 4.93 10.274 6.915 16.887l1.322 14.548c-1.322 0-2.323.093-4.307.093 2.147 9.32.785 17.208.34 27.02-12.569-28.404-51.541-68.41-70.758-83.322.662-5.29 2.646-10.58 7.275-12.564zm26.45 91.918-.66 9.258c-10.581-1.323-19.178-7.274-27.774-11.903l-.662 3.967c-8.596-2.645-15.54-7.354-21.035-17.344-3.893 3.02-2.07 1.527-3.548 2.87-1.81-2.445-7.66-16.125-10.465-24.542-1.695-11.58.239-23.34 10.58-27.773 37.694 13.225 65.468 45.628 87.951 74.724-11.903-.661-24.467-2.645-34.386-9.258zm-280.382-15.871-1.984-3.306c-10.58 5.29-22.382 12.84-33.624 14.824 0 0-1.691-1.593-3.22-3.886-4.019 1.426-18.042 3.61-23.332 2.949l-.662-4.63c-9.919-.66-21.16-.66-30.419-3.306 2.646-4.629 6.613-5.951 10.58-8.596 28.436-17.194 58.855-30.42 92.58-35.71 5.952 0 7.935 7.275 9.92 11.242 2.795 9.373-7.936 25.129-19.84 30.42zM104.884 521.4c3.306-7.935 9.92-17.855 18.516-22.484-4.687-3.418-2.338-1.729-7.936-5.951 11.242-12.564 29.097-12.564 43.645-18.516-1.323-3.306-2.437-4.723-3.307-6.613 17.194-5.951 38.355-2.645 49.596 9.92 1.323 3.306 3.968 10.58-.66 13.225-36.371 12.564-72.08 31.08-98.532 57.531 0-8.596 4.63-17.193 7.275-25.128-1.984-1.323-5.93-.92-8.597-1.984zM66.53 356.741c4.629 11.242 8.596 21.822 16.532 31.08-1.323 1.323-2.333 1.796-3.307 2.646 2.645 8.596 22.873 27.258 30.147 32.548-.172 1.598-.122 3.184-.39 4.483 13.226 5.952 28.436 12.564 43.645 12.564 14.548-.66 23.145-9.919 29.758-20.5 19.838 19.84 35.048 44.968 45.628 70.096-5.003-.013-8.668.33-15.87.662.66-7.936 0-17.194-7.936-21.823-17.193-9.257-42.322-11.903-60.838-5.29 0 2.645-.424 3.701 0 7.274-14.548 6.613-31.08 12.565-40.999 25.129 1.984 1.984 3.968 3.968 6.613 5.29-3.968 9.258-13.218 17.515-11.242 29.096 1.875.446 3.918 1.66 4.629 1.984-3.306 9.258-4.629 19.839-5.29 29.097 9.919 1.322 18.004 3.581 31.08 5.29-.478.887-.285 4.681-.285 6.004 7.877-.007 19.165-.67 34.811-4.084.278.993 1.032 1.75 1.961 5.028 12.187-2.395 31.907-13.152 31.907-13.152.921 1.42.165 2.304.866 4.468 12.565-4.63 26.625-16.78 29.931-30.005 3.307-7.936 1.228-16.864-5.228-23.419 3.968-.661 12.503.935 15.809 2.258 14.548 27.112 15.87 60.176 19.838 91.918-9.258 9.258-22.483 15.21-33.725 21.822-5.29 14.548-1.322 33.725-4.629 48.274h1.984c24.715-20.318 47.797-34.686 74.103-50.323 25.825-14.804 48.234-36.305 78.653-27.708 5.951 1.322 7.827 3.235 12.564 6.612.802-5.651 1.323-12.564-1.323-17.193-8.256-16.18-22.16-23.848-43.522-19.687l3.184-3.458c19.839-19.838 17.194-54.886 42.984-70.096 11.241-1.322 23.806 1.984 32.402 7.936l-7.274 12.564c-5.951 19.838 4.63 37.693 15.21 51.58 2.178-2.058 2.287-1.683 4.13-3.162 5.29 5.951 17.081 17.063 23.694 21.692 2.445-1.658 2.847-3.172 4.18-3.779 9.258 3.306 19.576 9.716 30.818 8.394.66-1.323.868-3.784 1.322-5.952 9.92 3.968 21.822 3.306 31.08 7.274 4.647-8.407 4.163-26.222 2.843-35.878 1.125.514 2.189.12 3.863.39.33-3.968-3.095-30.223-7.556-36.273 1.17-.654 3.44-1.544 4.754-2.284-10.43-17.088-13.676-21.159-25.58-29.094l1.177-3.327c-11.903-8.597-25.79-17.193-42.322-13.226-8.597 1.984-15.21 8.597-19.838 15.21-12.767-5.984-23.902-12.568-35.982-16.05 8.597-8.597 21.984-23.811 31.903-31.747 1.503 6.859 3.864 13.058 6.509 17.026 9.258 10.58 36.272 5.844 52.73.83-.126-.514-1.887-3.865-2.041-4.94 11.241-1.985 32.275-13 42.194-18.29-1.52-1.542-2.76-2.08-4.056-3.038.661-1.323 15.068-14.89 17.255-20.008-.817-.972-2.085-1.903-3.724-2.738 7.964-3.803 15.565-16.93 17.549-25.528-2.503-.916-4.822-.702-6.607-.817 5.872-7.608 10.767-22.42 15.396-29.694 0 0-24.55-12.376-35.349-12.08 1.15-1.963 1.898-2.84 2.035-4.666-11.05-2.217-26.47-1.213-36.966 1.31-.004-.85.29-3.88-1.415-5.278-14.958 2.768-23.195 8.366-26.725 10.837-1.28-1.018-2.354-2.608-3.55-3.33-8.399 5.007-26.823 18.931-31.243 23.593-.919-.15-1.66-.934-3.203-1.035-8.597 7.274-15.21 15.21-19.838 25.128-3.968 10.581-4.63 24.468 2.645 33.064 1.322 2.646 5.951 2.646 5.951 6.613-15.21 13.226-30.419 27.774-43.644 42.983l-3.972 4.082c5.951-46.29 8.241-105.23 1.628-151.52 7.659 3.63 14.908 1.96 20.86-2.007 10.58-5.952 19.838-16.532 25.128-26.452 13.226-21.822 35.71-38.354 44.967-61.499 2.645-7.935 2.338-14.433 0-21.822 7.936-3.968 17.194-9.92 21.161-17.193-5.29-7.936-10.843-13.875-20.5-19.839 6.613-24.467-8.596-44.967-21.822-63.482-10.58-20.5-13.115-43.738-37.583-51.012-3.454-1.796-11.888-1.874-14.617-1.43.877-11.268-1.762-21.092-6.122-27.977-10.732 3.11-21.16 7.682-30.597 13.943-5.333-8.034-25.482-11.556-39.369-7.588-29.37 10.62-63.483 12.564-89.934 29.758-5.952 3.306-8.597 11.903-13.887 17.854-8.597-1.322-19.838-1.322-27.112 2.645 0 8.597 1.873 16.363 4.629 25.129-15.21 6.613-21.161 25.129-21.823 42.322 3.307 29.757 5.29 60.176 10.58 87.95 1.985 9.92 9.92 17.193 17.194 23.145l-5.951 24.467c7.274 5.29 17.193-.661 26.45 3.307 3.968 10.58 12.565 17.193 22.484 19.838 37.032 3.306 72.741 35.71 109.111 12.564 5.952 17.194 5.353 39.6 5.29 59.516-.087 27.899-2.644 56.87-7.935 83.32-7.274 44.968-27.773 85.967-58.854 119.031-1.322.662-1.983-.661-2.645-1.322-3.967-22.484-10.093-43.756-19.177-66.128-11.13-19.865-5.951-36.37-1.322-51.58 3.306 3.306 7.935 7.274 12.564 7.935 15.87 0 30.53-13.945 39.127-25.848-1.389-.751-3.637-1.358-4.56-2.121 4.628-3.307 12.398-24.134 13.318-32.142-2.823-.432-4.318-.509-5.942-.812.887-3.44 1.902-16.251 1.305-25.362-1.102-.06-2.816-.246-4.232-.342-1.323-9.257-3.307-18.515 0-27.112-14.548-3.306-28.435 3.306-40.338 9.92l-3.968-10.581c-8.597 9.919-21.822 15.21-26.451 28.435l-6.613-3.307c-4.629 15.871-11.242 31.742-8.597 49.596 3.307 10.58 10.58 15.21 19.177 19.839l-5.29 15.87h-1.322c-14.548-22.483-30.581-47.11-49.758-66.948 4.086-3.905 5.452-5.13 8.097-9.76 5.952-12.564 3.306-24.467-.661-38.354-4.63-12.565-11.903-26.451-23.145-31.742-1.323 1.984-2.136 4.223-2.645 5.29-10.58-9.919-23.14-15.139-38.354-22.483l-3.307 7.935c-10.58-5.951-25.128-7.274-38.354-5.951 0 2.645.975 4.412 1.546 6.677-12.564 1.323-27.997 1.92-38.578 9.194 3.307 10.58 9.258 21.16 11.242 32.402z"/><path d="M349.556 192.741c-1.984 1.323-6.613 0-5.951 3.968 3.306 2.645 1.322 7.935-1.323 10.58s-7.935 1.984-10.58.662l-2.646-1.984c-3.306 2.645-2.645 7.935-7.935 7.935-8.597 1.323-5.29-14.548-15.21-8.597-2.644.662-5.95-1.983-7.935-5.29-3.306-5.951 7.274-9.919-.661-13.225-1.984-3.307-3.968-6.613-1.323-10.58 2.646-1.323 5.952-3.307 8.597-2.646.661-4.629-1.984-9.92 1.984-12.564 3.306-1.323 5.951.661 8.597 2.645 1.322-7.274 13.886-10.58 16.532-3.307-.662 1.984 1.322 3.307.66 5.952 3.307 0 7.936-3.968 12.565-.661 3.307 1.322 1.984 6.612 1.984 9.919-1.984 1.322-3.306 1.984-3.306 4.629 3.306 0 8.596 1.322 9.258 5.29 1.322 1.984.66 5.952-3.307 7.274m2.645-17.854c.662-3.307 2.645-7.936 0-10.58-2.645-3.969-7.935-5.952-13.887-5.952-3.306-4.63-7.935-10.58-15.21-7.936-4.628 6.613-11.24 1.323-17.192 4.63-3.968 1.983-5.29 6.612-5.29 11.241-1.323 5.29-7.936 3.968-9.259 8.597-1.322 5.951-.66 10.58 3.307 13.886.661 5.29-4.63 10.581.661 14.549 3.307 3.306 9.258 5.951 13.887 3.967 1.984 3.968 4.629 8.597 9.92 9.92 7.935 3.306 10.58-9.92 17.854-3.968 5.951 1.322 10.58-2.645 11.242-7.936-.662-6.612 5.951-10.58 9.919-13.886 3.306-6.613-1.323-12.565-5.952-16.532"/><path d="M351.54 213.902c-.661 3.968-.661 10.58-5.952 12.564-4.629 1.323-7.935-1.983-11.241-5.29-1.984 3.307-1.323 7.936-5.29 9.258s-7.275 1.323-9.92-1.322l-2.645-5.952c-3.306 2.645-6.613 8.597-12.564 5.952-11.242-.662 1.322-23.807-12.565-10.58-3.306-.662-6.612-3.307-7.935-7.275-1.984-5.29 3.307-7.274 5.952-10.58-4.63-1.323-10.58-2.646-12.565-7.936 1.323-4.629 1.984-9.919 6.613-12.564-3.306-3.307-4.629-9.92-2.645-15.21.661-5.29 5.952-3.306 8.597-4.629 0-3.967 0-9.919 3.306-11.241s7.274-1.323 9.92 0c1.322-3.307 3.306-7.936 6.612-9.92 3.968.662 9.258 2.646 9.92 7.275 1.983-3.968 3.967-7.936 9.257-7.936s9.258 3.307 10.58 7.936c4.63-1.984 10.581-1.323 13.226 1.983 1.984 2.646 3.307 6.613 1.323 9.92 5.29 1.322 10.58 1.322 12.564 5.951.661 4.63.661 10.58-4.629 13.887 4.63 3.306 9.258 7.274 8.597 13.887-.661 5.951-11.242 5.951-5.29 12.564-.662 3.968-1.323 7.936-5.952 9.258zm18.516-7.935c-6.613-9.258 7.274-9.258 5.951-17.855-1.322-4.629-3.967-7.935-7.935-10.58-1.323-5.952 4.857-8.43 3.964-12.81-1.363-6.685-15.867-5.706-13.222-15.625-.661-3.307-3.306-5.952-6.613-7.274-11.903 3.967-13.225-7.936-23.806-7.936-7.274 3.307-11.903 1.984-19.177 1.323-5.951.661-7.935 5.951-10.58 9.258-5.29.661-11.903 0-13.226 5.951.661 10.58-13.887 9.258-12.564 19.177 0 5.952 7.935 10.58 0 15.21-3.307 7.935 1.322 15.21 7.935 17.854.661 3.307-2.645 7.936-1.322 11.903 1.983 10.58 17.193 3.307 17.193 15.21 2.645 3.306 7.274 5.951 12.564 4.629 3.307.661 7.935-5.952 9.92 0 2.644 2.645 7.935 3.306 11.902 1.322 4.63-5.29 10.58-7.274 17.194-5.951 9.258-.661 3.306-13.887 12.564-12.564 6.613-.662 7.935-6.613 9.258-11.242z"/></g><path d="M6.21 6h609.82l-14.755 429.83c-14.754 162.29-127.87 275.4-290.16 275.4s-275.4-113.11-290.16-275.4z" fill="none" stroke="#000" stroke-miterlimit="7.5" stroke-width="12"/></svg>