<?xml version="1.0" encoding="UTF-8" standalone="no"?>
<svg
   xmlns:dc="http://purl.org/dc/elements/1.1/"
   xmlns:cc="http://creativecommons.org/ns#"
   xmlns:rdf="http://www.w3.org/1999/02/22-rdf-syntax-ns#"
   xmlns:svg="http://www.w3.org/2000/svg"
   xmlns="http://www.w3.org/2000/svg"
   viewBox="0 0 226.77333 264.57333"
   height="264.57333"
   width="226.77333"
   xml:space="preserve"
   id="svg2"
   version="1.1"><metadata
     id="metadata8"><rdf:RDF><cc:Work
         rdf:about=""><dc:format>image/svg+xml</dc:format><dc:type
           rdf:resource="http://purl.org/dc/dcmitype/StillImage" /></cc:Work></rdf:RDF></metadata><defs
     id="defs6" /><g
     transform="matrix(1.3333333,0,0,-1.3333333,0,264.57333)"
     id="g10"><g
       transform="scale(0.1)"
       id="g12"><path
         id="path14"
         style="fill:#ffffff;fill-opacity:1;fill-rule:evenodd;stroke:none"
         d="M 850.391,17.5 C 391.137,17.5 17.5,391.129 17.5,850.391 V 1966.75 H 1683.29 V 850.391 C 1683.29,391.129 1309.66,17.5 850.391,17.5" /><path
         id="path16"
         style="fill:#231f20;fill-opacity:1;fill-rule:nonzero;stroke:none"
         d="M 1700.79,1984.25 H 0 V 850.391 C 0,380.73 380.734,0 850.391,0 1320.06,0 1700.79,380.73 1700.79,850.391 V 1984.25 Z m -35,-35 V 850.391 C 1665.79,400.781 1300.01,35 850.391,35 400.781,35 35,400.781 35,850.391 V 1949.25 h 1630.79" /><path
         id="path18"
         style="fill:none;stroke:#231f20;stroke-width:20;stroke-linecap:butt;stroke-linejoin:miter;stroke-miterlimit:10;stroke-dasharray:none;stroke-opacity:1"
         d="m 959.09,615.648 c 0,0 117.02,18.442 75.35,-90.589 -41.67,-109.039 70.9,-95.7 70.9,-95.7 0,0 53.87,8.332 12.31,48.332" /><path
         id="path20"
         style="fill:none;stroke:#231f20;stroke-width:20;stroke-linecap:round;stroke-linejoin:miter;stroke-miterlimit:10;stroke-dasharray:none;stroke-opacity:1"
         d="m 564.441,1302.92 c 0,0 -67.324,-161.95 -102.918,-125.74" /><path
         id="path22"
         style="fill:#231f20;fill-opacity:1;fill-rule:nonzero;stroke:none"
         d="m 392.332,1020.44 h -98.41 v 98.4 h 98.41 v -98.4" /><path
         id="path24"
         style="fill:none;stroke:#231f20;stroke-width:10;stroke-linecap:butt;stroke-linejoin:miter;stroke-miterlimit:10;stroke-dasharray:none;stroke-opacity:1"
         d="m 392.332,1020.44 h -98.41 v 98.4 h 98.41 z" /><path
         id="path26"
         style="fill:#0fab4b;fill-opacity:1;fill-rule:nonzero;stroke:none"
         d="m 706.941,1408.84 c -225,-65 -262.5,132.5 -262.5,132.5 151.711,-111.39 185,37.5 185,37.5 -65,-25 25,155 25,155 l -52.5,-35 c 45,60 -27.5,155 -27.5,155 l -45,-35 -47.5,52.5 c -65,-70 -50,-200 -50,-200 -30,-47.5 -65,0 -65,0 55,152.5 -75,208.29 -75,208.29 -50,-44.2 -97.5,22.84 -97.5,22.84 -52.5,-51.38 -115.7691,0 -115.7691,0 0,0 38.2731,-146.13 -11.7266,-146.13 0,0 39.9997,-82 10,-107.25 0,0 37.4997,-100.25 184.9957,-55.25 0,0 50,-50 -45,-57.5 0,0 -87.5,7.5 -122.4957,-7.5 0,0 59.9957,-90 14.9997,-80 0,0 119.996,-72.5 72.496,-97.5 0,0 205,-102.5 175,125 l 122.5,-87.5 c 0,0 -170,-77.5 -165,-205 0,0 -75,-28.28 -70,-105 l 20,-165 52.5,10 -4.593,151.65 c -0.305,10.06 2.75,20.08 9.226,27.79 8.938,10.64 23.004,20.69 37.5,4.47 6.824,-7.64 10.492,-17.6 11.578,-27.79 l 16.289,-153.62 67.5,2.5 -5,150 c 0,0 -5,105 -62.5,102.5 0,0 20,140 162.5,147.5 l 15,-32.5 107.5,35 c 0,0 200,2.5 247.5,-317.5 l -27.5,-29.016 -4.679,-25.715 32.179,-25.269 c 0,0 30,-287.5 -200,-500 0,0 -127.5,-155 -192.5,-160 0,0 -155,-15 -85,107.5 0,0 -135,-90 120,-170 l 92.5,-42.5 c 0,0 -57.5,47.5 32.5,92.5 0,0 135,107.5 255,325 l 23.555,30 -28.555,15 42.5,122.5 37.499,27.5 -37.499,30 c 0,0 32.499,142.5 5,260 l 15,40 -33.945,25.07 c 0,0 -26.055,117.43 -178.555,242.43 l -51.652,52.5 -28.348,-22.5" /><path
         id="path28"
         style="fill:none;stroke:#231f20;stroke-width:10;stroke-linecap:butt;stroke-linejoin:miter;stroke-miterlimit:10;stroke-dasharray:none;stroke-opacity:1"
         d="m 706.941,1408.84 c -225,-65 -262.5,132.5 -262.5,132.5 151.711,-111.39 185,37.5 185,37.5 -65,-25 25,155 25,155 l -52.5,-35 c 45,60 -27.5,155 -27.5,155 l -45,-35 -47.5,52.5 c -65,-70 -50,-200 -50,-200 -30,-47.5 -65,0 -65,0 55,152.5 -75,208.29 -75,208.29 -50,-44.2 -97.5,22.84 -97.5,22.84 -52.5,-51.38 -115.7691,0 -115.7691,0 0,0 38.2731,-146.13 -11.7266,-146.13 0,0 39.9997,-82 10,-107.25 0,0 37.4997,-100.25 184.9957,-55.25 0,0 50,-50 -45,-57.5 0,0 -87.5,7.5 -122.4957,-7.5 0,0 59.9957,-90 14.9997,-80 0,0 119.996,-72.5 72.496,-97.5 0,0 205,-102.5 175,125 l 122.5,-87.5 c 0,0 -170,-77.5 -165,-205 0,0 -75,-28.28 -70,-105 l 20,-165 52.5,10 -4.593,151.65 c -0.305,10.06 2.75,20.08 9.226,27.79 8.938,10.64 23.004,20.69 37.5,4.47 6.824,-7.64 10.492,-17.6 11.578,-27.79 l 16.289,-153.62 67.5,2.5 -5,150 c 0,0 -5,105 -62.5,102.5 0,0 20,140 162.5,147.5 l 15,-32.5 107.5,35 c 0,0 200,2.5 247.5,-317.5 l -27.5,-29.016 -4.679,-25.715 32.179,-25.269 c 0,0 30,-287.5 -200,-500 0,0 -127.5,-155 -192.5,-160 0,0 -155,-15 -85,107.5 0,0 -135,-90 120,-170 l 92.5,-42.5 c 0,0 -57.5,47.5 32.5,92.5 0,0 135,107.5 255,325 l 23.555,30 -28.555,15 42.5,122.5 37.499,27.5 -37.499,30 c 0,0 32.499,142.5 5,260 l 15,40 -33.945,25.07 c 0,0 -26.055,117.43 -178.555,242.43 l -51.652,52.5 z" /><path
         id="path30"
         style="fill:none;stroke:#231f20;stroke-width:20;stroke-linecap:butt;stroke-linejoin:miter;stroke-miterlimit:10;stroke-dasharray:none;stroke-opacity:1"
         d="m 612.773,1244.68 c 24.446,3.05 37.336,-7.89 44.129,-20.65 10.032,-18.85 6,-41.64 -7.078,-58.52 -15.047,-19.43 -48.054,-34.24 -85.383,-16.76 -48.211,22.57 -48.476,63.2 -48.476,63.2" /><path
         id="path32"
         style="fill:#231f20;fill-opacity:1;fill-rule:nonzero;stroke:none"
         d="m 627.824,1238.01 c 0,-8.94 -7.246,-16.19 -16.187,-16.19 -8.942,0 -16.192,7.25 -16.192,16.19 0,8.94 7.25,16.19 16.192,16.19 8.941,0 16.187,-7.25 16.187,-16.19" /><path
         id="path34"
         style="fill:none;stroke:#231f20;stroke-width:20;stroke-linecap:butt;stroke-linejoin:miter;stroke-miterlimit:10;stroke-dasharray:none;stroke-opacity:1"
         d="m 627.824,1238.01 c 0,-8.94 -7.246,-16.19 -16.187,-16.19 -8.942,0 -16.192,7.25 -16.192,16.19 0,8.94 7.25,16.19 16.192,16.19 8.941,0 16.187,-7.25 16.187,-16.19 z" /><path
         id="path36"
         style="fill:#231f20;fill-opacity:1;fill-rule:nonzero;stroke:none"
         d="m 1131.61,475.488 c 0,-6.617 -5.36,-11.976 -11.98,-11.976 -6.62,0 -11.98,5.359 -11.98,11.976 0,6.614 5.36,11.973 11.98,11.973 6.62,0 11.98,-1.77 11.98,-11.973" /><path
         id="path38"
         style="fill:none;stroke:#231f20;stroke-width:10;stroke-linecap:butt;stroke-linejoin:miter;stroke-miterlimit:10;stroke-dasharray:none;stroke-opacity:1"
         d="m 1131.61,475.488 c 0,-6.617 -5.36,-11.976 -11.98,-11.976 -6.62,0 -11.98,5.359 -11.98,11.976 0,6.614 5.36,11.973 11.98,11.973 6.62,0 11.98,-1.77 11.98,-11.973 z" /><path
         id="path40"
         style="fill:none;stroke:#231f20;stroke-width:20;stroke-linecap:butt;stroke-linejoin:miter;stroke-miterlimit:10;stroke-dasharray:none;stroke-opacity:1"
         d="m 1029.33,508.039 c 0,0 -18.22,-23.301 -53.221,0" /><path
         id="path42"
         style="fill:#231f20;fill-opacity:1;fill-rule:nonzero;stroke:none"
         d="m 983.27,512.359 c 0,-3.949 -3.204,-7.16 -7.161,-7.16 -3.953,0 -7.156,3.211 -7.156,7.16 0,7.551 3.203,7.161 7.156,7.161 3.957,0 7.161,-3.2 7.161,-7.161" /><path
         id="path44"
         style="fill:none;stroke:#231f20;stroke-width:20;stroke-linecap:butt;stroke-linejoin:miter;stroke-miterlimit:10;stroke-dasharray:none;stroke-opacity:1"
         d="m 983.27,512.359 c 0,-3.949 -3.204,-7.16 -7.161,-7.16 -3.953,0 -7.156,3.211 -7.156,7.16 0,7.551 3.203,7.161 7.156,7.161 3.957,0 7.161,-3.2 7.161,-7.161 z" /><path
         id="path46"
         style="fill:none;stroke:#231f20;stroke-width:30;stroke-linecap:butt;stroke-linejoin:miter;stroke-miterlimit:10;stroke-dasharray:none;stroke-opacity:1"
         d="m 735.289,1426.69 c 0,0 49.77,178.61 164.504,119.3 23.953,-12.38 34.148,-40.62 29.297,-60.69 -11.848,-49.07 -102.328,-46.78 -131.113,-4.23" /><path
         id="path48"
         style="fill:none;stroke:#231f20;stroke-width:30;stroke-linecap:butt;stroke-linejoin:miter;stroke-miterlimit:10;stroke-dasharray:none;stroke-opacity:1"
         d="m 833.004,1845.98 c 73.879,3.78 63.691,-80.8 63.691,-80.8" /><path
         id="path50"
         style="fill:none;stroke:#231f20;stroke-width:30;stroke-linecap:round;stroke-linejoin:miter;stroke-miterlimit:10;stroke-dasharray:none;stroke-opacity:1"
         d="m 783.797,1778.9 c 0,0 -10.598,1.42 -10.598,20.93 0,20.45 20.324,46.28 59.805,46.15" /><path
         id="path52"
         style="fill:none;stroke:#231f20;stroke-width:30;stroke-linecap:butt;stroke-linejoin:miter;stroke-miterlimit:10;stroke-dasharray:none;stroke-opacity:1"
         d="m 897.176,1808.85 c 0,0 33.203,68.25 81.394,11.97" /><path
         id="path54"
         style="fill:none;stroke:#231f20;stroke-width:30;stroke-linecap:butt;stroke-linejoin:miter;stroke-miterlimit:10;stroke-dasharray:none;stroke-opacity:1"
         d="m 773.199,1809.83 c 0,0 -65.972,-19.11 -79.539,25.01" /><path
         id="path56"
         style="fill:none;stroke:#231f20;stroke-width:20;stroke-linecap:butt;stroke-linejoin:miter;stroke-miterlimit:10;stroke-dasharray:none;stroke-opacity:1"
         d="m 701.84,597.328 c 0,0 -118.649,34.992 -82.399,-73.617 0,0 0.7,-4.402 1,-10.652 0.903,-18.75 -1.726,-54.161 -37.308,-37.571" /><path
         id="path58"
         style="fill:none;stroke:#231f20;stroke-width:20;stroke-linecap:round;stroke-linejoin:miter;stroke-miterlimit:10;stroke-dasharray:none;stroke-opacity:1"
         d="m 1075.6,1326.69 c 0,0 71.64,-47.93 62.15,-108.99 -0.82,-5.3 -2.25,-10.76 -4.35,-16.36 0,0 -33.96,-51.25 -66.46,-7.5" /><path
         id="path60"
         style="fill:#231f20;fill-opacity:1;fill-rule:nonzero;stroke:none"
         d="m 1379.82,1017.14 h -98.41 v 98.41 h 98.41 v -98.41" /><path
         id="path62"
         style="fill:none;stroke:#231f20;stroke-width:10;stroke-linecap:butt;stroke-linejoin:miter;stroke-miterlimit:10;stroke-dasharray:none;stroke-opacity:1"
         d="m 1379.82,1017.14 h -98.41 v 98.41 h 98.41 z" /><path
         id="path64"
         style="fill:#0fab4b;fill-opacity:1;fill-rule:nonzero;stroke:none"
         d="M 792.07,1281.79 C 713.516,1185.88 686.109,1077.32 686.109,1077.32 l -34.347,-7.68 21.011,-41.63 C 609.441,821.34 709.441,624.691 709.441,624.691 L 700.43,592.27 c 16.687,-11.161 43.34,-48.559 43.34,-48.559 15.996,-144.313 319,-305.699 319,-305.699 v -45 c 0,0 110.84,48.066 182.88,83.808 20.87,10.36 38.37,21.61 49.62,33.692 10.63,11.41 18.43,20.879 21.81,29.718 17.78,46.532 -44.31,52.782 -44.31,52.782 32.5,-23.332 25,-46.25 9.38,-63.332 -18.82,-20.578 -46.68,-30.532 -74.57,-29.578 -17.85,0.597 -34.11,3.007 -48.15,6.109 -26.72,5.879 -51.99,16.891 -75.32,31.18 C 738.809,548.891 761.109,776.34 761.109,776.34 l 30,42.39 -30,21.739 c -60,117.453 55,323.901 55,323.901 9.86,21.7 20.266,40.54 30.946,56.9 0,0 -10.52,18.68 -24.477,33.56 -13.949,14.88 -30.508,26.96 -30.508,26.96" /><path
         id="path66"
         style="fill:none;stroke:#231f20;stroke-width:10;stroke-linecap:butt;stroke-linejoin:miter;stroke-miterlimit:10;stroke-dasharray:none;stroke-opacity:1"
         d="M 792.07,1281.79 C 713.516,1185.88 686.109,1077.32 686.109,1077.32 l -34.347,-7.68 21.011,-41.63 C 609.441,821.34 709.441,624.691 709.441,624.691 L 700.43,592.27 c 16.687,-11.161 43.34,-48.559 43.34,-48.559 15.996,-144.313 319,-305.699 319,-305.699 v -45 c 0,0 110.84,48.066 182.88,83.808 20.87,10.36 38.37,21.61 49.62,33.692 10.63,11.41 18.43,20.879 21.81,29.718 17.78,46.532 -44.31,52.782 -44.31,52.782 32.5,-23.332 25,-46.25 9.38,-63.332 -18.82,-20.578 -46.68,-30.532 -74.57,-29.578 -17.85,0.597 -34.11,3.007 -48.15,6.109 -26.72,5.879 -51.99,16.891 -75.32,31.18 C 738.809,548.891 761.109,776.34 761.109,776.34 l 30,42.39 -30,21.739 c -60,117.453 55,323.901 55,323.901 9.86,21.7 20.266,40.54 30.946,56.9 0,0 -10.52,18.68 -24.477,33.56 -13.949,14.88 -30.508,26.96 -30.508,26.96 z" /><path
         id="path68"
         style="fill:#0fab4b;fill-opacity:1;fill-rule:nonzero;stroke:none"
         d="m 839.434,1331.5 c 37.125,33.25 82.242,61.52 136.675,78.18 l 18.332,35 34.889,-21.67 88.32,1.67 c 0,0 138.99,35 134.55,98.33 0,0 33.91,61.67 -69.43,0 0,0 -136.66,13.89 -113.33,136.11 l -5,27.78 23.33,-15.56 c 0,0 -18.35,95 21.66,125 l 13.34,-30 c 0,0 19.7,68.34 73.18,86.67 0,0 59.46,-37.22 68.14,-104.44 0,0 -19.65,-100.56 17.02,-105.56 0,0 60.13,-7.22 39.23,43.89 0,0 -81.26,140.77 34.75,180.94 v -31.02 l 112.5,24.52 -14.48,-31.76 c 0,0 58.72,47.13 153.2,54.45 0,0 -48.54,-157.69 9.8,-124.35 0,0 -46.67,-111.67 10,-90 0,0 -27.86,-85 -102.27,-65 0,0 -92.6,15 -91,-40 1.6,-55 91,-18.34 91,-18.34 0,0 85.6,24.39 115.6,-11.97 0,0 -20.36,-74.69 -59.35,-91.36 0,0 -41.77,-16.67 9.62,-23.33 0,0 -63.05,-46.67 -112.5,-46.67 -49.44,0 0,-36.67 0,-36.67 0,0 -207.77,-41.66 -146.1,170 l -123.27,-111.66 c 0,0 173.27,-66.82 178.27,-238.34 0,0 74.14,-69.83 56.76,-154.21 l -78.16,-9.118 -3.49,71.828 c -0.46,9.39 -3.04,18.61 -7.98,26.59 -9.06,14.64 -25.11,32 -40.38,5.7 -5.72,-9.84 -8.59,-21.09 -9.4,-32.45 l -4.62,-64.59 -59.4,2.04 c 0,0 -8.17,116.77 62.91,170.88 0,0 -7.91,191.67 -224.58,176.67 v -30 l -60.83,8.33 c 0,0 -61.534,8.29 -126.475,-53.72 0,0 -20.86,24.87 -26.434,31.12 -5.57,6.25 -24.597,26.09 -24.597,26.09" /><path
         id="path70"
         style="fill:none;stroke:#231f20;stroke-width:10;stroke-linecap:butt;stroke-linejoin:miter;stroke-miterlimit:10;stroke-dasharray:none;stroke-opacity:1"
         d="m 839.434,1331.5 c 37.125,33.25 82.242,61.52 136.675,78.18 l 18.332,35 34.889,-21.67 88.32,1.67 c 0,0 138.99,35 134.55,98.33 0,0 33.91,61.67 -69.43,0 0,0 -136.66,13.89 -113.33,136.11 l -5,27.78 23.33,-15.56 c 0,0 -18.35,95 21.66,125 l 13.34,-30 c 0,0 19.7,68.34 73.18,86.67 0,0 59.46,-37.22 68.14,-104.44 0,0 -19.65,-100.56 17.02,-105.56 0,0 60.13,-7.22 39.23,43.89 0,0 -81.26,140.77 34.75,180.94 v -31.02 l 112.5,24.52 -14.48,-31.76 c 0,0 58.72,47.13 153.2,54.45 0,0 -48.54,-157.69 9.8,-124.35 0,0 -46.67,-111.67 10,-90 0,0 -27.86,-85 -102.27,-65 0,0 -92.6,15 -91,-40 1.6,-55 91,-18.34 91,-18.34 0,0 85.6,24.39 115.6,-11.97 0,0 -20.36,-74.69 -59.35,-91.36 0,0 -41.77,-16.67 9.62,-23.33 0,0 -63.05,-46.67 -112.5,-46.67 -49.44,0 0,-36.67 0,-36.67 0,0 -207.77,-41.66 -146.1,170 l -123.27,-111.66 c 0,0 173.27,-66.82 178.27,-238.34 0,0 74.14,-69.83 56.76,-154.21 l -78.16,-9.118 -3.49,71.828 c -0.46,9.39 -3.04,18.61 -7.98,26.59 -9.06,14.64 -25.11,32 -40.38,5.7 -5.72,-9.84 -8.59,-21.09 -9.4,-32.45 l -4.62,-64.59 -59.4,2.04 c 0,0 -8.17,116.77 62.91,170.88 0,0 -7.91,191.67 -224.58,176.67 v -30 l -60.83,8.33 c 0,0 -61.534,8.29 -126.475,-53.72 0,0 -20.86,24.87 -26.434,31.12 -5.57,6.25 -24.597,26.09 -24.597,26.09 z" /><path
         id="path72"
         style="fill:none;stroke:#231f20;stroke-width:20;stroke-linecap:round;stroke-linejoin:miter;stroke-miterlimit:10;stroke-dasharray:none;stroke-opacity:1"
         d="m 1137.75,1217.7 c 0,0 18.49,-78.86 80.09,-32.61" /><path
         id="path74"
         style="fill:none;stroke:#231f20;stroke-width:20;stroke-linecap:butt;stroke-linejoin:miter;stroke-miterlimit:10;stroke-dasharray:none;stroke-opacity:1"
         d="m 662.52,534.129 c 0,0 -4.832,-20.598 -42.079,-21.07" /><path
         id="path76"
         style="fill:#231f20;fill-opacity:1;fill-rule:nonzero;stroke:none"
         d="m 675.945,531.621 c 0,-6.68 -5.41,-12.101 -12.09,-12.101 -6.679,0 -12.093,5.421 -12.093,12.101 0,6.68 5.414,12.09 12.093,12.09 6.68,0 12.09,-5.41 12.09,-12.09" /><path
         id="path78"
         style="fill:none;stroke:#231f20;stroke-width:10;stroke-linecap:butt;stroke-linejoin:miter;stroke-miterlimit:10;stroke-dasharray:none;stroke-opacity:1"
         d="m 675.945,531.621 c 0,-6.68 -5.41,-12.101 -12.09,-12.101 -6.679,0 -12.093,5.421 -12.093,12.101 0,6.68 5.414,12.09 12.093,12.09 6.68,0 12.09,-5.41 12.09,-12.09 z" /><path
         id="path80"
         style="fill:#231f20;fill-opacity:1;fill-rule:nonzero;stroke:none"
         d="m 780.695,1558.45 c -3.773,-3.54 -9.527,-0.07 -8.343,5.12 1.375,6.06 3.8,12.04 6.953,17.53 6.386,10.94 15.754,19.8 26.105,26.32 20.918,13 45.653,16.91 68.844,13.77 23.156,-3.43 45.82,-14.1 62.277,-32.44 8.125,-9.15 14.649,-20.29 17.715,-32.59 1.258,-5.24 1.922,-10.68 1.863,-16.01 -0.078,-5.9 -7.488,-8.38 -10.703,-3.63 -6.621,9.8 -23.105,42.32 -76.093,50.03 -48.516,7.06 -79.254,-19.3 -88.618,-28.1" /><path
         id="path82"
         style="fill:#231f20;fill-opacity:1;fill-rule:nonzero;stroke:none"
         d="m 786.203,1617.99 c -3.269,-3.84 -8.84,-0.84 -8.082,4.43 0.879,6.15 2.738,12.3 5.305,18.03 5.211,11.41 13.324,20.99 22.508,28.31 18.566,14.63 41.265,20.51 63,19.24 21.726,-1.57 43.464,-10.39 59.941,-27.35 8.145,-8.46 14.93,-19.04 18.582,-31.05 1.523,-5.12 2.492,-10.49 2.785,-15.8 0.321,-5.9 -6.398,-8.95 -9.699,-4.48 -6.785,9.23 -26.531,39.3 -73.914,43.76 -47.395,4.46 -72.305,-25.58 -80.426,-35.09" /><path
         id="path84"
         style="fill:#231f20;fill-opacity:1;fill-rule:nonzero;stroke:none"
         d="m 786.496,1677.32 c -2.855,-4.05 -8.32,-1.42 -7.937,3.88 0.449,6.2 1.824,12.46 3.894,18.34 4.219,11.73 11.309,21.83 19.551,29.75 16.676,15.82 37.812,23.18 58.492,23.35 20.684,-0.12 41.836,-7.49 58.516,-23.32 8.25,-7.91 15.34,-18.02 19.558,-29.75 1.758,-5.02 3.02,-10.3 3.625,-15.59 0.672,-5.86 -5.5,-9.35 -8.898,-5.1 -7.02,8.75 -23.223,39.62 -72.801,38.77 -49.574,-0.85 -66.906,-30.3 -74,-40.33" /><path
         id="path86"
         style="fill:#231f20;fill-opacity:1;fill-rule:nonzero;stroke:none"
         d="M 549.195,984.824 H 228.355 L 199.34,824.23 257.918,518.27 h 207.68 l 49.277,183.378 34.32,283.176" /><path
         id="path88"
         style="fill:none;stroke:#231f20;stroke-width:10;stroke-linecap:butt;stroke-linejoin:miter;stroke-miterlimit:10;stroke-dasharray:none;stroke-opacity:1"
         d="M 549.195,984.824 H 228.355 L 199.34,824.23 257.918,518.27 h 207.68 l 49.277,183.378 z" /><path
         id="path90"
         style="fill:#1c63b7;fill-opacity:1;fill-rule:nonzero;stroke:none"
         d="m 211.695,1021.07 c 0,-31.062 -25.179,-56.242 -56.25,-56.242 -31.062,0 -56.2458,25.18 -56.2458,56.242 0,31.07 25.1838,56.25 56.2458,56.25 31.071,0 56.25,-25.18 56.25,-56.25" /><path
         id="path92"
         style="fill:none;stroke:#231f20;stroke-width:10;stroke-linecap:butt;stroke-linejoin:miter;stroke-miterlimit:10;stroke-dasharray:none;stroke-opacity:1"
         d="m 211.695,1021.07 c 0,-31.062 -25.179,-56.242 -56.25,-56.242 -31.062,0 -56.2458,25.18 -56.2458,56.242 0,31.07 25.1838,56.25 56.2458,56.25 31.071,0 56.25,-25.18 56.25,-56.25 z" /><path
         id="path94"
         style="fill:#1c63b7;fill-opacity:1;fill-rule:nonzero;stroke:none"
         d="m 223.57,922.969 c 0,-31.071 -25.179,-56.25 -56.25,-56.25 -31.062,0 -56.246,25.179 -56.246,56.25 0,31.062 25.184,56.25 56.246,56.25 31.071,0 56.25,-25.188 56.25,-56.25" /><path
         id="path96"
         style="fill:none;stroke:#231f20;stroke-width:10;stroke-linecap:butt;stroke-linejoin:miter;stroke-miterlimit:10;stroke-dasharray:none;stroke-opacity:1"
         d="m 223.57,922.969 c 0,-31.071 -25.179,-56.25 -56.25,-56.25 -31.062,0 -56.246,25.179 -56.246,56.25 0,31.062 25.184,56.25 56.246,56.25 31.071,0 56.25,-25.188 56.25,-56.25 z" /><path
         id="path98"
         style="fill:#1c63b7;fill-opacity:1;fill-rule:nonzero;stroke:none"
         d="m 211.695,810.469 c 0,-31.071 -25.179,-56.25 -56.25,-56.25 -31.062,0 -56.2458,25.179 -56.2458,56.25 0,31.062 25.1838,56.25 56.2458,56.25 31.071,0 56.25,-25.188 56.25,-56.25" /><path
         id="path100"
         style="fill:none;stroke:#231f20;stroke-width:10;stroke-linecap:butt;stroke-linejoin:miter;stroke-miterlimit:10;stroke-dasharray:none;stroke-opacity:1"
         d="m 211.695,810.469 c 0,-31.071 -25.179,-56.25 -56.25,-56.25 -31.062,0 -56.2458,25.179 -56.2458,56.25 0,31.062 25.1838,56.25 56.2458,56.25 31.071,0 56.25,-25.188 56.25,-56.25 z" /><path
         id="path102"
         style="fill:#1c63b7;fill-opacity:1;fill-rule:nonzero;stroke:none"
         d="m 233.191,701.648 c 0,-31.07 -25.179,-56.25 -56.25,-56.25 -31.066,0 -56.25,25.18 -56.25,56.25 0,31.071 25.184,56.25 56.25,56.25 31.071,0 56.25,-25.179 56.25,-56.25" /><path
         id="path104"
         style="fill:none;stroke:#231f20;stroke-width:10;stroke-linecap:butt;stroke-linejoin:miter;stroke-miterlimit:10;stroke-dasharray:none;stroke-opacity:1"
         d="m 233.191,701.648 c 0,-31.07 -25.179,-56.25 -56.25,-56.25 -31.066,0 -56.25,25.18 -56.25,56.25 0,31.071 25.184,56.25 56.25,56.25 31.071,0 56.25,-25.179 56.25,-56.25 z" /><path
         id="path106"
         style="fill:#1c63b7;fill-opacity:1;fill-rule:nonzero;stroke:none"
         d="m 257.918,588.23 c 0,-31.058 -25.184,-56.25 -56.25,-56.25 -31.066,0 -56.25,25.192 -56.25,56.25 0,31.059 25.184,56.25 56.25,56.25 31.066,0 56.25,-25.191 56.25,-56.25" /><path
         id="path108"
         style="fill:none;stroke:#231f20;stroke-width:10;stroke-linecap:butt;stroke-linejoin:miter;stroke-miterlimit:10;stroke-dasharray:none;stroke-opacity:1"
         d="m 257.918,588.23 c 0,-31.058 -25.184,-56.25 -56.25,-56.25 -31.066,0 -56.25,25.192 -56.25,56.25 0,31.059 25.184,56.25 56.25,56.25 31.066,0 56.25,-25.191 56.25,-56.25 z" /><path
         id="path110"
         style="fill:#1c63b7;fill-opacity:1;fill-rule:nonzero;stroke:none"
         d="m 289.441,1000.09 c 0,-31.059 -25.179,-56.25 -56.25,-56.25 -31.066,0 -56.25,25.191 -56.25,56.25 0,31.07 25.184,56.25 56.25,56.25 31.071,0 56.25,-25.18 56.25,-56.25" /><path
         id="path112"
         style="fill:none;stroke:#231f20;stroke-width:10;stroke-linecap:butt;stroke-linejoin:miter;stroke-miterlimit:10;stroke-dasharray:none;stroke-opacity:1"
         d="m 289.441,1000.09 c 0,-31.059 -25.179,-56.25 -56.25,-56.25 -31.066,0 -56.25,25.191 -56.25,56.25 0,31.07 25.184,56.25 56.25,56.25 31.071,0 56.25,-25.18 56.25,-56.25 z" /><path
         id="path114"
         style="fill:#1c63b7;fill-opacity:1;fill-rule:nonzero;stroke:none"
         d="m 289.441,880.48 c 0,-31.07 -25.179,-56.25 -56.25,-56.25 -31.066,0 -56.25,25.18 -56.25,56.25 0,31.059 25.184,56.25 56.25,56.25 31.071,0 56.25,-25.191 56.25,-56.25" /><path
         id="path116"
         style="fill:none;stroke:#231f20;stroke-width:10;stroke-linecap:butt;stroke-linejoin:miter;stroke-miterlimit:10;stroke-dasharray:none;stroke-opacity:1"
         d="m 289.441,880.48 c 0,-31.07 -25.179,-56.25 -56.25,-56.25 -31.066,0 -56.25,25.18 -56.25,56.25 0,31.059 25.184,56.25 56.25,56.25 31.071,0 56.25,-25.191 56.25,-56.25 z" /><path
         id="path118"
         style="fill:#1c63b7;fill-opacity:1;fill-rule:nonzero;stroke:none"
         d="m 303.922,767.98 c 0,-31.07 -25.18,-56.25 -56.25,-56.25 -31.063,0 -56.25,25.18 -56.25,56.25 0,31.059 25.187,56.25 56.25,56.25 31.07,0 56.25,-25.191 56.25,-56.25" /><path
         id="path120"
         style="fill:none;stroke:#231f20;stroke-width:10;stroke-linecap:butt;stroke-linejoin:miter;stroke-miterlimit:10;stroke-dasharray:none;stroke-opacity:1"
         d="m 303.922,767.98 c 0,-31.07 -25.18,-56.25 -56.25,-56.25 -31.063,0 -56.25,25.18 -56.25,56.25 0,31.059 25.187,56.25 56.25,56.25 31.07,0 56.25,-25.191 56.25,-56.25 z" /><path
         id="path122"
         style="fill:#1c63b7;fill-opacity:1;fill-rule:nonzero;stroke:none"
         d="m 324.195,656.211 c 0,-31.07 -25.179,-56.25 -56.25,-56.25 -31.062,0 -56.25,25.18 -56.25,56.25 0,31.059 25.188,56.25 56.25,56.25 31.071,0 56.25,-25.191 56.25,-56.25" /><path
         id="path124"
         style="fill:none;stroke:#231f20;stroke-width:10;stroke-linecap:butt;stroke-linejoin:miter;stroke-miterlimit:10;stroke-dasharray:none;stroke-opacity:1"
         d="m 324.195,656.211 c 0,-31.07 -25.179,-56.25 -56.25,-56.25 -31.062,0 -56.25,25.18 -56.25,56.25 0,31.059 25.188,56.25 56.25,56.25 31.071,0 56.25,-25.191 56.25,-56.25 z" /><path
         id="path126"
         style="fill:#1c63b7;fill-opacity:1;fill-rule:nonzero;stroke:none"
         d="m 336.07,522.832 c 0,-31.07 -25.179,-56.25 -56.25,-56.25 -31.062,0 -56.25,25.18 -56.25,56.25 0,31.059 25.188,56.25 56.25,56.25 31.071,0 56.25,-25.191 56.25,-56.25" /><path
         id="path128"
         style="fill:none;stroke:#231f20;stroke-width:10;stroke-linecap:butt;stroke-linejoin:miter;stroke-miterlimit:10;stroke-dasharray:none;stroke-opacity:1"
         d="m 336.07,522.832 c 0,-31.07 -25.179,-56.25 -56.25,-56.25 -31.062,0 -56.25,25.18 -56.25,56.25 0,31.059 25.188,56.25 56.25,56.25 31.071,0 56.25,-25.191 56.25,-56.25 z" /><path
         id="path130"
         style="fill:#1c63b7;fill-opacity:1;fill-rule:nonzero;stroke:none"
         d="m 591.355,1041.07 c 0,-31.06 -25.179,-56.246 -56.25,-56.246 -31.066,0 -56.25,25.186 -56.25,56.246 0,31.07 25.184,56.25 56.25,56.25 31.071,0 56.25,-25.18 56.25,-56.25" /><path
         id="path132"
         style="fill:none;stroke:#231f20;stroke-width:10;stroke-linecap:butt;stroke-linejoin:miter;stroke-miterlimit:10;stroke-dasharray:none;stroke-opacity:1"
         d="m 591.355,1041.07 c 0,-31.06 -25.179,-56.246 -56.25,-56.246 -31.066,0 -56.25,25.186 -56.25,56.246 0,31.07 25.184,56.25 56.25,56.25 31.071,0 56.25,-25.18 56.25,-56.25 z" /><path
         id="path134"
         style="fill:#1c63b7;fill-opacity:1;fill-rule:nonzero;stroke:none"
         d="m 591.355,964.828 c 0,-31.066 -25.179,-56.25 -56.25,-56.25 -31.066,0 -56.25,25.184 -56.25,56.25 0,31.063 25.184,56.242 56.25,56.242 31.071,0 56.25,-25.179 56.25,-56.242" /><path
         id="path136"
         style="fill:none;stroke:#231f20;stroke-width:10;stroke-linecap:butt;stroke-linejoin:miter;stroke-miterlimit:10;stroke-dasharray:none;stroke-opacity:1"
         d="m 591.355,964.828 c 0,-31.066 -25.179,-56.25 -56.25,-56.25 -31.066,0 -56.25,25.184 -56.25,56.25 0,31.063 25.184,56.242 56.25,56.242 31.071,0 56.25,-25.179 56.25,-56.242 z" /><path
         id="path138"
         style="fill:#1c63b7;fill-opacity:1;fill-rule:nonzero;stroke:none"
         d="m 595.445,852.328 c 0,-31.066 -25.179,-56.258 -56.25,-56.258 -31.062,0 -56.25,25.192 -56.25,56.258 0,31.063 25.188,56.25 56.25,56.25 31.071,0 56.25,-25.187 56.25,-56.25" /><path
         id="path140"
         style="fill:none;stroke:#231f20;stroke-width:10;stroke-linecap:butt;stroke-linejoin:miter;stroke-miterlimit:10;stroke-dasharray:none;stroke-opacity:1"
         d="m 595.445,852.328 c 0,-31.066 -25.179,-56.258 -56.25,-56.258 -31.062,0 -56.25,25.192 -56.25,56.258 0,31.063 25.188,56.25 56.25,56.25 31.071,0 56.25,-25.187 56.25,-56.25 z" /><path
         id="path142"
         style="fill:#1c63b7;fill-opacity:1;fill-rule:nonzero;stroke:none"
         d="m 605.445,733.34 c 0,-31.07 -25.179,-56.25 -56.25,-56.25 -31.062,0 -56.25,25.18 -56.25,56.25 0,31.058 25.188,56.25 56.25,56.25 31.071,0 56.25,-25.192 56.25,-56.25" /><path
         id="path144"
         style="fill:none;stroke:#231f20;stroke-width:10;stroke-linecap:butt;stroke-linejoin:miter;stroke-miterlimit:10;stroke-dasharray:none;stroke-opacity:1"
         d="m 605.445,733.34 c 0,-31.07 -25.179,-56.25 -56.25,-56.25 -31.062,0 -56.25,25.18 -56.25,56.25 0,31.058 25.188,56.25 56.25,56.25 31.071,0 56.25,-25.192 56.25,-56.25 z" /><path
         id="path146"
         style="fill:#1c63b7;fill-opacity:1;fill-rule:nonzero;stroke:none"
         d="m 583.133,624.691 c 0,-31.062 -25.188,-56.25 -56.25,-56.25 -31.067,0 -56.25,25.188 -56.25,56.25 0,31.071 25.183,56.25 56.25,56.25 31.062,0 56.25,-25.179 56.25,-56.25" /><path
         id="path148"
         style="fill:none;stroke:#231f20;stroke-width:10;stroke-linecap:butt;stroke-linejoin:miter;stroke-miterlimit:10;stroke-dasharray:none;stroke-opacity:1"
         d="m 583.133,624.691 c 0,-31.062 -25.188,-56.25 -56.25,-56.25 -31.067,0 -56.25,25.188 -56.25,56.25 0,31.071 25.183,56.25 56.25,56.25 31.062,0 56.25,-25.179 56.25,-56.25 z" /><path
         id="path150"
         style="fill:#1c63b7;fill-opacity:1;fill-rule:nonzero;stroke:none"
         d="m 492.945,1000.09 c 0,-31.059 -25.179,-56.25 -56.25,-56.25 -31.062,0 -56.25,25.191 -56.25,56.25 0,31.07 25.188,56.25 56.25,56.25 31.071,0 56.25,-25.18 56.25,-56.25" /><path
         id="path152"
         style="fill:none;stroke:#231f20;stroke-width:10;stroke-linecap:butt;stroke-linejoin:miter;stroke-miterlimit:10;stroke-dasharray:none;stroke-opacity:1"
         d="m 492.945,1000.09 c 0,-31.059 -25.179,-56.25 -56.25,-56.25 -31.062,0 -56.25,25.191 -56.25,56.25 0,31.07 25.188,56.25 56.25,56.25 31.071,0 56.25,-25.18 56.25,-56.25 z" /><path
         id="path154"
         style="fill:#1c63b7;fill-opacity:1;fill-rule:nonzero;stroke:none"
         d="m 492.945,880.48 c 0,-31.07 -25.179,-56.25 -56.25,-56.25 -31.062,0 -56.25,25.18 -56.25,56.25 0,31.059 25.188,56.25 56.25,56.25 31.071,0 56.25,-25.191 56.25,-56.25" /><path
         id="path156"
         style="fill:none;stroke:#231f20;stroke-width:10;stroke-linecap:butt;stroke-linejoin:miter;stroke-miterlimit:10;stroke-dasharray:none;stroke-opacity:1"
         d="m 492.945,880.48 c 0,-31.07 -25.179,-56.25 -56.25,-56.25 -31.062,0 -56.25,25.18 -56.25,56.25 0,31.059 25.188,56.25 56.25,56.25 31.071,0 56.25,-25.191 56.25,-56.25 z" /><path
         id="path158"
         style="fill:#1c63b7;fill-opacity:1;fill-rule:nonzero;stroke:none"
         d="m 504.832,762.48 c 0,-31.07 -25.184,-56.25 -56.25,-56.25 -31.066,0 -56.25,25.18 -56.25,56.25 0,31.059 25.184,56.25 56.25,56.25 31.066,0 56.25,-25.191 56.25,-56.25" /><path
         id="path160"
         style="fill:none;stroke:#231f20;stroke-width:10;stroke-linecap:butt;stroke-linejoin:miter;stroke-miterlimit:10;stroke-dasharray:none;stroke-opacity:1"
         d="m 504.832,762.48 c 0,-31.07 -25.184,-56.25 -56.25,-56.25 -31.066,0 -56.25,25.18 -56.25,56.25 0,31.059 25.184,56.25 56.25,56.25 31.066,0 56.25,-25.191 56.25,-56.25 z" /><path
         id="path162"
         style="fill:#1c63b7;fill-opacity:1;fill-rule:nonzero;stroke:none"
         d="m 504.832,644.48 c 0,-31.058 -25.184,-56.25 -56.25,-56.25 -31.066,0 -56.25,25.192 -56.25,56.25 0,31.059 25.184,56.25 56.25,56.25 31.066,0 56.25,-25.191 56.25,-56.25" /><path
         id="path164"
         style="fill:none;stroke:#231f20;stroke-width:10;stroke-linecap:butt;stroke-linejoin:miter;stroke-miterlimit:10;stroke-dasharray:none;stroke-opacity:1"
         d="m 504.832,644.48 c 0,-31.058 -25.184,-56.25 -56.25,-56.25 -31.066,0 -56.25,25.192 -56.25,56.25 0,31.059 25.184,56.25 56.25,56.25 31.066,0 56.25,-25.191 56.25,-56.25 z" /><path
         id="path166"
         style="fill:#1c63b7;fill-opacity:1;fill-rule:nonzero;stroke:none"
         d="m 504.832,543.711 c 0,-31.07 -25.184,-56.25 -56.25,-56.25 -31.066,0 -56.25,25.18 -56.25,56.25 0,31.059 25.184,56.25 56.25,56.25 31.066,0 56.25,-25.191 56.25,-56.25" /><path
         id="path168"
         style="fill:none;stroke:#231f20;stroke-width:10;stroke-linecap:butt;stroke-linejoin:miter;stroke-miterlimit:10;stroke-dasharray:none;stroke-opacity:1"
         d="m 504.832,543.711 c 0,-31.07 -25.184,-56.25 -56.25,-56.25 -31.066,0 -56.25,25.18 -56.25,56.25 0,31.059 25.184,56.25 56.25,56.25 31.066,0 56.25,-25.191 56.25,-56.25 z" /><path
         id="path170"
         style="fill:#1c63b7;fill-opacity:1;fill-rule:nonzero;stroke:none"
         d="m 401.941,1000.09 c 0,-31.059 -25.179,-56.25 -56.25,-56.25 -31.066,0 -56.25,25.191 -56.25,56.25 0,31.07 25.184,56.25 56.25,56.25 31.071,0 56.25,-25.18 56.25,-56.25" /><path
         id="path172"
         style="fill:none;stroke:#231f20;stroke-width:10;stroke-linecap:butt;stroke-linejoin:miter;stroke-miterlimit:10;stroke-dasharray:none;stroke-opacity:1"
         d="m 401.941,1000.09 c 0,-31.059 -25.179,-56.25 -56.25,-56.25 -31.066,0 -56.25,25.191 -56.25,56.25 0,31.07 25.184,56.25 56.25,56.25 31.071,0 56.25,-25.18 56.25,-56.25 z" /><path
         id="path174"
         style="fill:#1c63b7;fill-opacity:1;fill-rule:nonzero;stroke:none"
         d="m 396.422,896.719 c 0,-31.071 -25.18,-56.25 -56.25,-56.25 -31.063,0 -56.25,25.179 -56.25,56.25 0,31.062 25.187,56.25 56.25,56.25 31.07,0 56.25,-25.188 56.25,-56.25" /><path
         id="path176"
         style="fill:none;stroke:#231f20;stroke-width:10;stroke-linecap:butt;stroke-linejoin:miter;stroke-miterlimit:10;stroke-dasharray:none;stroke-opacity:1"
         d="m 396.422,896.719 c 0,-31.071 -25.18,-56.25 -56.25,-56.25 -31.063,0 -56.25,25.179 -56.25,56.25 0,31.062 25.187,56.25 56.25,56.25 31.07,0 56.25,-25.188 56.25,-56.25 z" /><path
         id="path178"
         style="fill:#1c63b7;fill-opacity:1;fill-rule:nonzero;stroke:none"
         d="m 406.422,783.34 c 0,-31.07 -25.18,-56.25 -56.25,-56.25 -31.063,0 -56.25,25.18 -56.25,56.25 0,31.058 25.187,56.25 56.25,56.25 31.07,0 56.25,-25.192 56.25,-56.25" /><path
         id="path180"
         style="fill:none;stroke:#231f20;stroke-width:10;stroke-linecap:butt;stroke-linejoin:miter;stroke-miterlimit:10;stroke-dasharray:none;stroke-opacity:1"
         d="m 406.422,783.34 c 0,-31.07 -25.18,-56.25 -56.25,-56.25 -31.063,0 -56.25,25.18 -56.25,56.25 0,31.058 25.187,56.25 56.25,56.25 31.07,0 56.25,-25.192 56.25,-56.25 z" /><path
         id="path182"
         style="fill:#1c63b7;fill-opacity:1;fill-rule:nonzero;stroke:none"
         d="m 416.422,579.961 c 0,-31.07 -25.18,-56.25 -56.25,-56.25 -31.063,0 -56.25,25.18 -56.25,56.25 0,31.059 25.187,56.25 56.25,56.25 31.07,0 56.25,-25.191 56.25,-56.25" /><path
         id="path184"
         style="fill:none;stroke:#231f20;stroke-width:10;stroke-linecap:butt;stroke-linejoin:miter;stroke-miterlimit:10;stroke-dasharray:none;stroke-opacity:1"
         d="m 416.422,579.961 c 0,-31.07 -25.18,-56.25 -56.25,-56.25 -31.063,0 -56.25,25.18 -56.25,56.25 0,31.059 25.187,56.25 56.25,56.25 31.07,0 56.25,-25.191 56.25,-56.25 z" /><path
         id="path186"
         style="fill:#1c63b7;fill-opacity:1;fill-rule:nonzero;stroke:none"
         d="m 436.695,466.582 c 0,-31.07 -25.179,-56.25 -56.25,-56.25 -31.062,0 -56.25,25.18 -56.25,56.25 0,31.059 25.188,56.25 56.25,56.25 31.071,0 56.25,-25.191 56.25,-56.25" /><path
         id="path188"
         style="fill:none;stroke:#231f20;stroke-width:10;stroke-linecap:butt;stroke-linejoin:miter;stroke-miterlimit:10;stroke-dasharray:none;stroke-opacity:1"
         d="m 436.695,466.582 c 0,-31.07 -25.179,-56.25 -56.25,-56.25 -31.062,0 -56.25,25.18 -56.25,56.25 0,31.059 25.188,56.25 56.25,56.25 31.071,0 56.25,-25.191 56.25,-56.25 z" /><path
         id="path190"
         style="fill:#1c63b7;fill-opacity:1;fill-rule:nonzero;stroke:none"
         d="m 416.422,677.09 c 0,-31.07 -25.18,-56.25 -56.25,-56.25 -31.063,0 -56.25,25.18 -56.25,56.25 0,31.058 25.187,56.25 56.25,56.25 31.07,0 56.25,-25.192 56.25,-56.25" /><path
         id="path192"
         style="fill:none;stroke:#231f20;stroke-width:10;stroke-linecap:butt;stroke-linejoin:miter;stroke-miterlimit:10;stroke-dasharray:none;stroke-opacity:1"
         d="m 416.422,677.09 c 0,-31.07 -25.18,-56.25 -56.25,-56.25 -31.063,0 -56.25,25.18 -56.25,56.25 0,31.058 25.187,56.25 56.25,56.25 31.07,0 56.25,-25.192 56.25,-56.25 z" /><path
         id="path194"
         style="fill:#231f20;fill-opacity:1;fill-rule:nonzero;stroke:none"
         d="m 1151.59,984.824 h 301.52 l 56.25,-160.594 -56.25,-305.96 h -222.96 l -46.31,183.378 -32.25,283.176" /><path
         id="path196"
         style="fill:none;stroke:#231f20;stroke-width:10;stroke-linecap:butt;stroke-linejoin:miter;stroke-miterlimit:10;stroke-dasharray:none;stroke-opacity:1"
         d="m 1151.59,984.824 h 301.52 l 56.25,-160.594 -56.25,-305.96 h -222.96 l -46.31,183.378 z" /><path
         id="path198"
         style="fill:#1c63b7;fill-opacity:1;fill-rule:nonzero;stroke:none"
         d="m 1489.09,1021.07 c 0,-31.062 25.18,-56.242 56.25,-56.242 31.06,0 56.25,25.18 56.25,56.242 0,31.07 -25.19,56.25 -56.25,56.25 -31.07,0 -56.25,-25.18 -56.25,-56.25" /><path
         id="path200"
         style="fill:none;stroke:#231f20;stroke-width:10;stroke-linecap:butt;stroke-linejoin:miter;stroke-miterlimit:10;stroke-dasharray:none;stroke-opacity:1"
         d="m 1489.09,1021.07 c 0,-31.062 25.18,-56.242 56.25,-56.242 31.06,0 56.25,25.18 56.25,56.242 0,31.07 -25.19,56.25 -56.25,56.25 -31.07,0 -56.25,-25.18 -56.25,-56.25 z" /><path
         id="path202"
         style="fill:#1c63b7;fill-opacity:1;fill-rule:nonzero;stroke:none"
         d="m 1477.21,922.969 c 0,-31.071 25.19,-56.25 56.25,-56.25 31.07,0 56.25,25.179 56.25,56.25 0,31.062 -25.18,56.25 -56.25,56.25 -31.06,0 -56.25,-25.188 -56.25,-56.25" /><path
         id="path204"
         style="fill:none;stroke:#231f20;stroke-width:10;stroke-linecap:butt;stroke-linejoin:miter;stroke-miterlimit:10;stroke-dasharray:none;stroke-opacity:1"
         d="m 1477.21,922.969 c 0,-31.071 25.19,-56.25 56.25,-56.25 31.07,0 56.25,25.179 56.25,56.25 0,31.062 -25.18,56.25 -56.25,56.25 -31.06,0 -56.25,-25.188 -56.25,-56.25 z" /><path
         id="path206"
         style="fill:#1c63b7;fill-opacity:1;fill-rule:nonzero;stroke:none"
         d="m 1489.09,810.469 c 0,-31.071 25.18,-56.25 56.25,-56.25 31.06,0 56.25,25.179 56.25,56.25 0,31.062 -25.19,56.25 -56.25,56.25 -31.07,0 -56.25,-25.188 -56.25,-56.25" /><path
         id="path208"
         style="fill:none;stroke:#231f20;stroke-width:10;stroke-linecap:butt;stroke-linejoin:miter;stroke-miterlimit:10;stroke-dasharray:none;stroke-opacity:1"
         d="m 1489.09,810.469 c 0,-31.071 25.18,-56.25 56.25,-56.25 31.06,0 56.25,25.179 56.25,56.25 0,31.062 -25.19,56.25 -56.25,56.25 -31.07,0 -56.25,-25.188 -56.25,-56.25 z" /><path
         id="path210"
         style="fill:#1c63b7;fill-opacity:1;fill-rule:nonzero;stroke:none"
         d="m 1467.59,701.648 c 0,-31.07 25.19,-56.25 56.25,-56.25 31.07,0 56.25,25.18 56.25,56.25 0,31.071 -25.18,56.25 -56.25,56.25 -31.06,0 -56.25,-25.179 -56.25,-56.25" /><path
         id="path212"
         style="fill:none;stroke:#231f20;stroke-width:10;stroke-linecap:butt;stroke-linejoin:miter;stroke-miterlimit:10;stroke-dasharray:none;stroke-opacity:1"
         d="m 1467.59,701.648 c 0,-31.07 25.19,-56.25 56.25,-56.25 31.07,0 56.25,25.18 56.25,56.25 0,31.071 -25.18,56.25 -56.25,56.25 -31.06,0 -56.25,-25.179 -56.25,-56.25 z" /><path
         id="path214"
         style="fill:#1c63b7;fill-opacity:1;fill-rule:nonzero;stroke:none"
         d="m 1442.87,588.23 c 0,-31.058 25.18,-56.25 56.25,-56.25 31.06,0 56.25,25.192 56.25,56.25 0,31.059 -25.19,56.25 -56.25,56.25 -31.07,0 -56.25,-25.191 -56.25,-56.25" /><path
         id="path216"
         style="fill:none;stroke:#231f20;stroke-width:10;stroke-linecap:butt;stroke-linejoin:miter;stroke-miterlimit:10;stroke-dasharray:none;stroke-opacity:1"
         d="m 1442.87,588.23 c 0,-31.058 25.18,-56.25 56.25,-56.25 31.06,0 56.25,25.192 56.25,56.25 0,31.059 -25.19,56.25 -56.25,56.25 -31.07,0 -56.25,-25.191 -56.25,-56.25 z" /><path
         id="path218"
         style="fill:#1c63b7;fill-opacity:1;fill-rule:nonzero;stroke:none"
         d="m 1411.34,1000.09 c 0,-31.059 25.19,-56.25 56.25,-56.25 31.07,0 56.25,25.191 56.25,56.25 0,31.07 -25.18,56.25 -56.25,56.25 -31.06,0 -56.25,-25.18 -56.25,-56.25" /><path
         id="path220"
         style="fill:none;stroke:#231f20;stroke-width:10;stroke-linecap:butt;stroke-linejoin:miter;stroke-miterlimit:10;stroke-dasharray:none;stroke-opacity:1"
         d="m 1411.34,1000.09 c 0,-31.059 25.19,-56.25 56.25,-56.25 31.07,0 56.25,25.191 56.25,56.25 0,31.07 -25.18,56.25 -56.25,56.25 -31.06,0 -56.25,-25.18 -56.25,-56.25 z" /><path
         id="path222"
         style="fill:#1c63b7;fill-opacity:1;fill-rule:nonzero;stroke:none"
         d="m 1411.34,880.48 c 0,-31.07 25.19,-56.25 56.25,-56.25 31.07,0 56.25,25.18 56.25,56.25 0,31.059 -25.18,56.25 -56.25,56.25 -31.06,0 -56.25,-25.191 -56.25,-56.25" /><path
         id="path224"
         style="fill:none;stroke:#231f20;stroke-width:10;stroke-linecap:butt;stroke-linejoin:miter;stroke-miterlimit:10;stroke-dasharray:none;stroke-opacity:1"
         d="m 1411.34,880.48 c 0,-31.07 25.19,-56.25 56.25,-56.25 31.07,0 56.25,25.18 56.25,56.25 0,31.059 -25.18,56.25 -56.25,56.25 -31.06,0 -56.25,-25.191 -56.25,-56.25 z" /><path
         id="path226"
         style="fill:#1c63b7;fill-opacity:1;fill-rule:nonzero;stroke:none"
         d="m 1396.86,767.98 c 0,-31.07 25.19,-56.25 56.25,-56.25 31.07,0 56.25,25.18 56.25,56.25 0,31.059 -25.18,56.25 -56.25,56.25 -31.06,0 -56.25,-25.191 -56.25,-56.25" /><path
         id="path228"
         style="fill:none;stroke:#231f20;stroke-width:10;stroke-linecap:butt;stroke-linejoin:miter;stroke-miterlimit:10;stroke-dasharray:none;stroke-opacity:1"
         d="m 1396.86,767.98 c 0,-31.07 25.19,-56.25 56.25,-56.25 31.07,0 56.25,25.18 56.25,56.25 0,31.059 -25.18,56.25 -56.25,56.25 -31.06,0 -56.25,-25.191 -56.25,-56.25 z" /><path
         id="path230"
         style="fill:#1c63b7;fill-opacity:1;fill-rule:nonzero;stroke:none"
         d="m 1376.59,656.211 c 0,-31.07 25.18,-56.25 56.25,-56.25 31.06,0 56.25,25.18 56.25,56.25 0,31.059 -25.19,56.25 -56.25,56.25 -31.07,0 -56.25,-25.191 -56.25,-56.25" /><path
         id="path232"
         style="fill:none;stroke:#231f20;stroke-width:10;stroke-linecap:butt;stroke-linejoin:miter;stroke-miterlimit:10;stroke-dasharray:none;stroke-opacity:1"
         d="m 1376.59,656.211 c 0,-31.07 25.18,-56.25 56.25,-56.25 31.06,0 56.25,25.18 56.25,56.25 0,31.059 -25.19,56.25 -56.25,56.25 -31.07,0 -56.25,-25.191 -56.25,-56.25 z" /><path
         id="path234"
         style="fill:#1c63b7;fill-opacity:1;fill-rule:nonzero;stroke:none"
         d="m 1364.71,522.832 c 0,-31.07 25.19,-56.25 56.25,-56.25 31.07,0 56.25,25.18 56.25,56.25 0,31.059 -25.18,56.25 -56.25,56.25 -31.06,0 -56.25,-25.191 -56.25,-56.25" /><path
         id="path236"
         style="fill:none;stroke:#231f20;stroke-width:10;stroke-linecap:butt;stroke-linejoin:miter;stroke-miterlimit:10;stroke-dasharray:none;stroke-opacity:1"
         d="m 1364.71,522.832 c 0,-31.07 25.19,-56.25 56.25,-56.25 31.07,0 56.25,25.18 56.25,56.25 0,31.059 -25.18,56.25 -56.25,56.25 -31.06,0 -56.25,-25.191 -56.25,-56.25 z" /><path
         id="path238"
         style="fill:#1c63b7;fill-opacity:1;fill-rule:nonzero;stroke:none"
         d="m 1109.43,1041.07 c 0,-31.06 25.19,-56.246 56.25,-56.246 31.06,0 56.25,25.186 56.25,56.246 0,31.07 -25.19,56.25 -56.25,56.25 -31.06,0 -56.25,-25.18 -56.25,-56.25" /><path
         id="path240"
         style="fill:none;stroke:#231f20;stroke-width:10;stroke-linecap:butt;stroke-linejoin:miter;stroke-miterlimit:10;stroke-dasharray:none;stroke-opacity:1"
         d="m 1109.43,1041.07 c 0,-31.06 25.19,-56.246 56.25,-56.246 31.06,0 56.25,25.186 56.25,56.246 0,31.07 -25.19,56.25 -56.25,56.25 -31.06,0 -56.25,-25.18 -56.25,-56.25 z" /><path
         id="path242"
         style="fill:#1c63b7;fill-opacity:1;fill-rule:nonzero;stroke:none"
         d="m 1109.43,964.828 c 0,-31.066 25.19,-56.25 56.25,-56.25 31.06,0 56.25,25.184 56.25,56.25 0,31.063 -25.19,56.242 -56.25,56.242 -31.06,0 -56.25,-25.179 -56.25,-56.242" /><path
         id="path244"
         style="fill:none;stroke:#231f20;stroke-width:10;stroke-linecap:butt;stroke-linejoin:miter;stroke-miterlimit:10;stroke-dasharray:none;stroke-opacity:1"
         d="m 1109.43,964.828 c 0,-31.066 25.19,-56.25 56.25,-56.25 31.06,0 56.25,25.184 56.25,56.25 0,31.063 -25.19,56.242 -56.25,56.242 -31.06,0 -56.25,-25.179 -56.25,-56.242 z" /><path
         id="path246"
         style="fill:#1c63b7;fill-opacity:1;fill-rule:nonzero;stroke:none"
         d="m 1105.34,852.328 c 0,-31.066 25.18,-56.258 56.25,-56.258 31.06,0 56.25,25.192 56.25,56.258 0,31.063 -25.19,56.25 -56.25,56.25 -31.07,0 -56.25,-25.187 -56.25,-56.25" /><path
         id="path248"
         style="fill:none;stroke:#231f20;stroke-width:10;stroke-linecap:butt;stroke-linejoin:miter;stroke-miterlimit:10;stroke-dasharray:none;stroke-opacity:1"
         d="m 1105.34,852.328 c 0,-31.066 25.18,-56.258 56.25,-56.258 31.06,0 56.25,25.192 56.25,56.258 0,31.063 -25.19,56.25 -56.25,56.25 -31.07,0 -56.25,-25.187 -56.25,-56.25 z" /><path
         id="path250"
         style="fill:#1c63b7;fill-opacity:1;fill-rule:nonzero;stroke:none"
         d="m 1095.34,733.34 c 0,-31.07 25.18,-56.25 56.25,-56.25 31.06,0 56.25,25.18 56.25,56.25 0,31.058 -25.19,56.25 -56.25,56.25 -31.07,0 -56.25,-25.192 -56.25,-56.25" /><path
         id="path252"
         style="fill:none;stroke:#231f20;stroke-width:10;stroke-linecap:butt;stroke-linejoin:miter;stroke-miterlimit:10;stroke-dasharray:none;stroke-opacity:1"
         d="m 1095.34,733.34 c 0,-31.07 25.18,-56.25 56.25,-56.25 31.06,0 56.25,25.18 56.25,56.25 0,31.058 -25.19,56.25 -56.25,56.25 -31.07,0 -56.25,-25.192 -56.25,-56.25 z" /><path
         id="path254"
         style="fill:#1c63b7;fill-opacity:1;fill-rule:nonzero;stroke:none"
         d="m 1117.65,624.691 c 0,-31.062 25.19,-56.25 56.25,-56.25 31.07,0 56.25,25.188 56.25,56.25 0,31.071 -25.18,56.25 -56.25,56.25 -31.06,0 -56.25,-25.179 -56.25,-56.25" /><path
         id="path256"
         style="fill:none;stroke:#231f20;stroke-width:10;stroke-linecap:butt;stroke-linejoin:miter;stroke-miterlimit:10;stroke-dasharray:none;stroke-opacity:1"
         d="m 1117.65,624.691 c 0,-31.062 25.19,-56.25 56.25,-56.25 31.07,0 56.25,25.188 56.25,56.25 0,31.071 -25.18,56.25 -56.25,56.25 -31.06,0 -56.25,-25.179 -56.25,-56.25 z" /><path
         id="path258"
         style="fill:#1c63b7;fill-opacity:1;fill-rule:nonzero;stroke:none"
         d="m 1207.84,1000.09 c 0,-31.059 25.18,-56.25 56.25,-56.25 31.06,0 56.25,25.191 56.25,56.25 0,31.07 -25.19,56.25 -56.25,56.25 -31.07,0 -56.25,-25.18 -56.25,-56.25" /><path
         id="path260"
         style="fill:none;stroke:#231f20;stroke-width:10;stroke-linecap:butt;stroke-linejoin:miter;stroke-miterlimit:10;stroke-dasharray:none;stroke-opacity:1"
         d="m 1207.84,1000.09 c 0,-31.059 25.18,-56.25 56.25,-56.25 31.06,0 56.25,25.191 56.25,56.25 0,31.07 -25.19,56.25 -56.25,56.25 -31.07,0 -56.25,-25.18 -56.25,-56.25 z" /><path
         id="path262"
         style="fill:#1c63b7;fill-opacity:1;fill-rule:nonzero;stroke:none"
         d="m 1207.84,880.48 c 0,-31.07 25.18,-56.25 56.25,-56.25 31.06,0 56.25,25.18 56.25,56.25 0,31.059 -25.19,56.25 -56.25,56.25 -31.07,0 -56.25,-25.191 -56.25,-56.25" /><path
         id="path264"
         style="fill:none;stroke:#231f20;stroke-width:10;stroke-linecap:butt;stroke-linejoin:miter;stroke-miterlimit:10;stroke-dasharray:none;stroke-opacity:1"
         d="m 1207.84,880.48 c 0,-31.07 25.18,-56.25 56.25,-56.25 31.06,0 56.25,25.18 56.25,56.25 0,31.059 -25.19,56.25 -56.25,56.25 -31.07,0 -56.25,-25.191 -56.25,-56.25 z" /><path
         id="path266"
         style="fill:#1c63b7;fill-opacity:1;fill-rule:nonzero;stroke:none"
         d="m 1195.95,762.48 c 0,-31.07 25.19,-56.25 56.25,-56.25 31.07,0 56.25,25.18 56.25,56.25 0,31.059 -25.18,56.25 -56.25,56.25 -31.06,0 -56.25,-25.191 -56.25,-56.25" /><path
         id="path268"
         style="fill:none;stroke:#231f20;stroke-width:10;stroke-linecap:butt;stroke-linejoin:miter;stroke-miterlimit:10;stroke-dasharray:none;stroke-opacity:1"
         d="m 1195.95,762.48 c 0,-31.07 25.19,-56.25 56.25,-56.25 31.07,0 56.25,25.18 56.25,56.25 0,31.059 -25.18,56.25 -56.25,56.25 -31.06,0 -56.25,-25.191 -56.25,-56.25 z" /><path
         id="path270"
         style="fill:#1c63b7;fill-opacity:1;fill-rule:nonzero;stroke:none"
         d="m 1195.95,644.48 c 0,-31.058 25.19,-56.25 56.25,-56.25 31.07,0 56.25,25.192 56.25,56.25 0,31.059 -25.18,56.25 -56.25,56.25 -31.06,0 -56.25,-25.191 -56.25,-56.25" /><path
         id="path272"
         style="fill:none;stroke:#231f20;stroke-width:10;stroke-linecap:butt;stroke-linejoin:miter;stroke-miterlimit:10;stroke-dasharray:none;stroke-opacity:1"
         d="m 1195.95,644.48 c 0,-31.058 25.19,-56.25 56.25,-56.25 31.07,0 56.25,25.192 56.25,56.25 0,31.059 -25.18,56.25 -56.25,56.25 -31.06,0 -56.25,-25.191 -56.25,-56.25 z" /><path
         id="path274"
         style="fill:#1c63b7;fill-opacity:1;fill-rule:nonzero;stroke:none"
         d="m 1195.95,543.711 c 0,-31.07 25.19,-56.25 56.25,-56.25 31.07,0 56.25,25.18 56.25,56.25 0,31.059 -25.18,56.25 -56.25,56.25 -31.06,0 -56.25,-25.191 -56.25,-56.25" /><path
         id="path276"
         style="fill:none;stroke:#231f20;stroke-width:10;stroke-linecap:butt;stroke-linejoin:miter;stroke-miterlimit:10;stroke-dasharray:none;stroke-opacity:1"
         d="m 1195.95,543.711 c 0,-31.07 25.19,-56.25 56.25,-56.25 31.07,0 56.25,25.18 56.25,56.25 0,31.059 -25.18,56.25 -56.25,56.25 -31.06,0 -56.25,-25.191 -56.25,-56.25 z" /><path
         id="path278"
         style="fill:#1c63b7;fill-opacity:1;fill-rule:nonzero;stroke:none"
         d="m 1298.84,1000.09 c 0,-31.059 25.19,-56.25 56.25,-56.25 31.07,0 56.25,25.191 56.25,56.25 0,31.07 -25.18,56.25 -56.25,56.25 -31.06,0 -56.25,-25.18 -56.25,-56.25" /><path
         id="path280"
         style="fill:none;stroke:#231f20;stroke-width:10;stroke-linecap:butt;stroke-linejoin:miter;stroke-miterlimit:10;stroke-dasharray:none;stroke-opacity:1"
         d="m 1298.84,1000.09 c 0,-31.059 25.19,-56.25 56.25,-56.25 31.07,0 56.25,25.191 56.25,56.25 0,31.07 -25.18,56.25 -56.25,56.25 -31.06,0 -56.25,-25.18 -56.25,-56.25 z" /><path
         id="path282"
         style="fill:#1c63b7;fill-opacity:1;fill-rule:nonzero;stroke:none"
         d="m 1304.36,896.719 c 0,-31.071 25.19,-56.25 56.25,-56.25 31.07,0 56.25,25.179 56.25,56.25 0,31.062 -25.18,56.25 -56.25,56.25 -31.06,0 -56.25,-25.188 -56.25,-56.25" /><path
         id="path284"
         style="fill:none;stroke:#231f20;stroke-width:10;stroke-linecap:butt;stroke-linejoin:miter;stroke-miterlimit:10;stroke-dasharray:none;stroke-opacity:1"
         d="m 1304.36,896.719 c 0,-31.071 25.19,-56.25 56.25,-56.25 31.07,0 56.25,25.179 56.25,56.25 0,31.062 -25.18,56.25 -56.25,56.25 -31.06,0 -56.25,-25.188 -56.25,-56.25 z" /><path
         id="path286"
         style="fill:#1c63b7;fill-opacity:1;fill-rule:nonzero;stroke:none"
         d="m 1294.36,783.34 c 0,-31.07 25.19,-56.25 56.25,-56.25 31.07,0 56.25,25.18 56.25,56.25 0,31.058 -25.18,56.25 -56.25,56.25 -31.06,0 -56.25,-25.192 -56.25,-56.25" /><path
         id="path288"
         style="fill:none;stroke:#231f20;stroke-width:10;stroke-linecap:butt;stroke-linejoin:miter;stroke-miterlimit:10;stroke-dasharray:none;stroke-opacity:1"
         d="m 1294.36,783.34 c 0,-31.07 25.19,-56.25 56.25,-56.25 31.07,0 56.25,25.18 56.25,56.25 0,31.058 -25.18,56.25 -56.25,56.25 -31.06,0 -56.25,-25.192 -56.25,-56.25 z" /><path
         id="path290"
         style="fill:#1c63b7;fill-opacity:1;fill-rule:nonzero;stroke:none"
         d="m 1284.36,579.961 c 0,-31.07 25.19,-56.25 56.25,-56.25 31.07,0 56.25,25.18 56.25,56.25 0,31.059 -25.18,56.25 -56.25,56.25 -31.06,0 -56.25,-25.191 -56.25,-56.25" /><path
         id="path292"
         style="fill:none;stroke:#231f20;stroke-width:10;stroke-linecap:butt;stroke-linejoin:miter;stroke-miterlimit:10;stroke-dasharray:none;stroke-opacity:1"
         d="m 1284.36,579.961 c 0,-31.07 25.19,-56.25 56.25,-56.25 31.07,0 56.25,25.18 56.25,56.25 0,31.059 -25.18,56.25 -56.25,56.25 -31.06,0 -56.25,-25.191 -56.25,-56.25 z" /><path
         id="path294"
         style="fill:#1c63b7;fill-opacity:1;fill-rule:nonzero;stroke:none"
         d="m 1264.09,466.582 c 0,-31.07 25.18,-56.25 56.25,-56.25 31.06,0 56.25,25.18 56.25,56.25 0,31.059 -25.19,56.25 -56.25,56.25 -31.07,0 -56.25,-25.191 -56.25,-56.25" /><path
         id="path296"
         style="fill:none;stroke:#231f20;stroke-width:10;stroke-linecap:butt;stroke-linejoin:miter;stroke-miterlimit:10;stroke-dasharray:none;stroke-opacity:1"
         d="m 1264.09,466.582 c 0,-31.07 25.18,-56.25 56.25,-56.25 31.06,0 56.25,25.18 56.25,56.25 0,31.059 -25.19,56.25 -56.25,56.25 -31.07,0 -56.25,-25.191 -56.25,-56.25 z" /><path
         id="path298"
         style="fill:#1c63b7;fill-opacity:1;fill-rule:nonzero;stroke:none"
         d="m 1284.36,677.09 c 0,-31.07 25.19,-56.25 56.25,-56.25 31.07,0 56.25,25.18 56.25,56.25 0,31.058 -25.18,56.25 -56.25,56.25 -31.06,0 -56.25,-25.192 -56.25,-56.25" /><path
         id="path300"
         style="fill:none;stroke:#231f20;stroke-width:10;stroke-linecap:butt;stroke-linejoin:miter;stroke-miterlimit:10;stroke-dasharray:none;stroke-opacity:1"
         d="m 1284.36,677.09 c 0,-31.07 25.19,-56.25 56.25,-56.25 31.07,0 56.25,25.18 56.25,56.25 0,31.058 -25.18,56.25 -56.25,56.25 -31.06,0 -56.25,-25.192 -56.25,-56.25 z" /></g></g></svg>