<?xml version="1.0" encoding="iso-8859-1"?>
<!-- Generator: Adobe Illustrator 10.0, SVG Export Plug-In . SVG Version: 3.0.0 Build 77)  -->
<!DOCTYPE svg PUBLIC "-//W3C//DTD SVG 1.0//EN"    "http://www.w3.org/TR/2001/REC-SVG-20010904/DTD/svg10.dtd" [
	<!ENTITY ns_flows "http://ns.adobe.com/Flows/1.0/">
	<!ENTITY ns_svg "http://www.w3.org/2000/svg">
	<!ENTITY ns_xlink "http://www.w3.org/1999/xlink">
]>
<svg  xmlns="&ns_svg;" xmlns:xlink="&ns_xlink;" xmlns:a="http://ns.adobe.com/AdobeSVGViewerExtensions/3.0/"
	 width="283.465" height="318.897" viewBox="0 0 283.465 318.897"
	 style="overflow:visible;enable-background:new 0 0 283.465 318.897" xml:space="preserve">
	<g id="Wappenrand">
	</g>
	<g id="Strich_Wappen_Wappen">
	</g>
	<g id="CMYK_Wappen">
		<path style="fill-rule:evenodd;clip-rule:evenodd;" d="M0,0h283.465v177.165c0,78.278-63.455,141.732-141.732,141.732
			S0,255.443,0,177.165V0z"/>
		<g>
			<g>
				<path style="fill-rule:evenodd;clip-rule:evenodd;fill:#FFFFFF;" d="M65.608,137.531c1.447-0.128,2.173-0.144,3.488-0.957
					c0.299-0.184,0.604-0.603,0.896-0.837c0-1.604,0.293-2.066-0.857-3.289c-2.101-0.451-3.508-0.689-4.922,1.136
					c-0.198,1.254-0.205,2.063,0.558,3.189C64.914,136.985,65.397,137.31,65.608,137.531z M65.808,139.026
					c-0.949-0.507-2.048-1.171-2.591-2.152c-0.153-0.278-0.324-1.586-0.299-1.914c0.027-0.349-0.001-0.849,0.1-1.176
					c0.651-2.115,3.441-3.273,5.421-3.528c1.217,0.626,1.62,0.906,2.531,1.894c0.219,1.041,0.525,2.108,0.358,3.188
					c-0.261,1.697-2.157,3.239-3.727,3.588C67.098,139.038,66.349,138.976,65.808,139.026z"/>
				<path style="fill-rule:evenodd;clip-rule:evenodd;fill:#FFFFFF;" d="M105.906,178.208c-0.954,0.024-2.05,0.172-2.989,0.1
					c-2.359-0.182-5.493-2.084-7.447-3.421c-0.146-0.1-0.83-0.525-0.903-0.604c-3.294-3.598-6.552-7.216-9.965-10.702
					c-0.022-0.023-0.208-0.474-0.239-0.538c3.56,0.856,7.278,1.5,10.782,2.531c4.106,1.208,16.231,5.59,19.152,8.411
					c-0.054,0.137-0.124,0.271-0.199,0.398c-2.049,0-5.254-1.949-7.354-2.63c-0.91-0.296-1.915-0.357-2.83-0.658
					c-0.865-0.284-1.686-0.748-2.551-1.036c-1.615-0.538-3.318-0.996-4.962-1.455c2.582,1.518,5.281,3.095,7.952,4.444
					c2.155,1.09,4.441,1.968,6.616,3.029c0.015,0.318,0.027,0.464-0.239,0.638c-2.02-0.284-4.134-0.901-5.979-1.793
					c-1.699-0.821-3.408-1.64-5.082-2.511c-0.918-0.477-1.806-1.066-2.73-1.515c-0.603-0.292-1.358-0.445-1.993-0.697
					c2.655,3.842,6.956,5.857,11.061,7.772L105.906,178.208z"/>
				<path style="fill-rule:evenodd;clip-rule:evenodd;fill:#FFFFFF;" d="M157.983,177.869c-0.96,0.037-2.053,0.284-2.99,0.239
					c-0.222-0.011-0.88-0.272-1.143-0.346c-3.845-1.077-6.224-2.49-9.6-4.577c-0.735-0.455-1.619-0.86-2.291-1.395
					c-3.002-2.389-5.9-5.033-8.71-7.653c0.722,0,1.663-0.147,2.352-0.06c3.301,0.417,6.759,1.545,9.985,2.352
					c0.283,0.07,0.671-0.067,0.956,0c5.594,1.323,11.073,2.725,16.303,5.162c0.072,0.255,0.153,0.513,0.259,0.757
					c-1.216-0.198-2.51-0.547-3.727-0.658c-0.241-0.022-0.531,0.194-0.758,0.199c-0.876,0.022-1.85-0.162-2.71-0.339
					c-0.708-0.145-1.423-0.578-2.152-0.777c-1.802-0.492-3.781-0.93-5.64-1.176c1.98,0.818,3.891,1.86,5.879,2.65
					c2.467,0.98,5.205,1.88,7.813,2.372c-0.195,0.378-0.467,0.737-0.697,1.096c-0.104,0-0.646,0.018-0.698,0
					c-3.4-1.183-6.771-2.443-10.164-3.647c-2.676-0.949-5.266-1.872-7.792-3.169c-0.052,0.065-0.128,0.12-0.199,0.16
					c2.957,2.326,6.321,4.26,9.745,5.82c1.618,0.736,4.977,1.864,6.378,2.73C158.239,177.676,158.104,177.771,157.983,177.869z"/>
				<path style="fill-rule:evenodd;clip-rule:evenodd;fill:#FFFFFF;" d="M219.705,170.654c-0.425,0.045-1.143,0.234-1.534,0.199
					c-0.055-0.004-3.801-1.213-3.986-1.295c-3.573-1.588-7.198-3.091-10.742-4.743c-2.26-1.054-4.576-2.293-7.016-2.91
					c0.059-0.127,0.105-0.263,0.14-0.398c2.312-0.887,4.62-1.781,6.923-2.69c0.686-0.271,1.559-0.846,2.245-0.997
					c0.115-0.025,2.567,0.07,2.91,0.08c2.468,0.067,5.116,0.136,7.533,0.718c2.786,0.67,6.497,2.134,8.849,3.727
					c0.052,0.206-0.671,0.243-0.737,0.239c-0.939-0.058-1.966-0.338-2.896-0.512c-3.854-0.717-7.624-1.637-11.433-2.558
					c2.087,1.169,4.294,2.468,6.557,3.269c3.671,1.299,7.479,1.928,11.3,2.551c0.065,0.393,0.087,0.8,0.14,1.196
					c-4.53-0.71-9.318-1.646-13.632-3.249c-0.532-0.197-8.344-3.279-8.689-3.069c0.492,0.352,0.974,0.82,1.475,1.136
					c3.688,2.322,9.022,4.676,13.193,5.919c1.978,0.589,4.139,0.929,6.159,1.395c-0.038,0.267-0.103,0.54-0.34,0.698
					c-0.468,0-1.2,0.122-1.634,0.04c-2.284-0.434-7.171-1.875-9.467-2.63c-0.831-0.274-6.274-2.338-7.055-2.292
					c1.948,1.316,3.961,2.712,6.059,3.786C215.806,169.175,217.847,169.891,219.705,170.654z"/>
				<path style="fill-rule:evenodd;clip-rule:evenodd;fill:#FFFFFF;" d="M65.808,141.996c0.354,0.03,1.486-0.235,1.914-0.299
					c0.53-0.079,1.395-0.097,1.873-0.299c0.854-0.359,3.021-1.791,3.527-2.67c0.267-0.462,0.457-1.06,0.678-1.554
					c0.073-0.164,0.652-1.449,0.658-1.495c0.38-3.423-1.895-7.188-5.461-7.573c-0.51-0.055-1.089-0.148-1.595-0.14
					c-0.825,0.015-1.764,0.375-2.511,0.678c-1.431,0.579-2.621,1.515-3.668,2.671c-0.071,0.08-0.597,1.122-0.677,1.289
					c-1.001,2.083-0.787,5.213,0.837,6.962c0.4,0.432,0.938,0.789,1.422,1.123C63.389,141.089,65.037,141.93,65.808,141.996z
					 M88.707,133.824c3.045,1.76,5.954,5.033,5.501,8.829c-0.25,2.088-1.579,4.781-2.73,6.557c-0.857,1.322-2.809,2.659-4.025,3.667
					c-2.812,2.328-4.894,3.698-8.457,4.657c-0.418,0.112-0.941,0.363-1.349,0.425c-0.401,0.061-0.975-0.139-1.396-0.139
					c-0.337,0-0.671,0.229-0.996,0.239c-0.515,0.015-1.188-0.135-1.694-0.239c1.09-0.407,3.071-0.835,3.986-1.335
					c1.799-0.983,5.211-3.547,6.656-5.042c1.121-1.16,1.816-2.864,2.491-4.305c1.772-3.787,2.001-6.287-0.026-10.038
					c-0.443-0.82-0.992-1.999-1.668-2.657c-0.897-0.876-3.022-2.328-4.125-2.989c-0.082-0.05-0.607-0.115-0.798-0.2
					c0.006,0.375,4.98,4.083,4.266,10.523c-0.237,2.136-2.64,6.132-4.065,7.732c-0.259,0.291-0.582,0.523-0.837,0.817
					c-1.488,1.708-3.589,3.275-5.548,4.438c-1.822,1.083-4.605,2.335-6.789,2.558c-2.531,0.259-9.611-0.986-12.237-1.335
					c-3.825-0.508-7.688-0.902-11.499-1.495c-3.677-0.571-7.348-1.213-11.021-1.813c-1.821-0.297-3.646-0.601-5.46-0.937
					c-1.987-0.368-3.915-0.937-5.939-0.937v-0.438c0.421-0.096,0.921-0.313,1.335-0.359c0.084-0.009,2.913,0.139,3.029,0.16
					c6.268,1.108,12.514,2.311,18.794,3.348c4.729,0.781,9.598,1.614,14.396,1.615c1.492,0,4.518-0.357,5.515-1.535
					c0.18-0.213,0.322-0.554,0.472-0.797c0.056-0.092,0.369-0.548,0.385-0.598c0.149-0.475,0.19-1.164,0.259-1.674
					c0.186-1.372-0.191-2.841-1.115-3.906c-0.113,0.004-0.244-0.041-0.339-0.1c0,0.985,0.014,1.965,0.04,2.95
					c-0.257,0.388-0.997,1.606-1.495,1.833c-2.035,0.93-6.695,0.542-8.909,0.199c-3.01-0.466-6.051-1.226-9.034-1.86
					c-6.52-1.386-13.029-2.872-19.505-4.458c-0.269-0.066-0.609-0.27-0.856-0.398c0.569-2.467,0.612-2.104,1.854-4.226
					c0.858-0.382,1.891-0.861,2.83-0.996c1.46-0.211,3.007-0.216,4.483-0.326c4.997-0.371,13.148-0.787,17.798-2.126
					c3.335-0.96,6.204-3.546,8.41-6.138c0.717-0.843,1.59-2.185,2.432-2.85c0.703-0.556,1.811-1.118,2.65-1.495
					c1.993-0.894,5.301-0.127,7.493-0.498c2.577-0.437,5.19-1.224,7.746-1.814c4.32-0.997,8.663-1.897,13.001-2.81
					c0.922-0.194,1.802,0.201,2.505,0.764c1.363,1.09,1.729,1.308,1.667,2.91c-0.044,1.139-0.264,1.715-0.844,2.724
					c-0.916,1.594-3.239,2.695-4.962,3.209c-1.253,0.373-2.636,0.36-3.927,0.438c1.758-1.422,2.173-2.231,2.173-4.471
					c0-0.315-0.152-1.284-0.339-1.548c-0.465-0.657-1.251-1.227-1.894-1.694c-0.664-0.024-1.283-0.053-1.934,0.1v0.259
					c0.305,0,0.595,0.016,0.897,0.04c0.23,0.285,0.537,0.537,0.797,0.797c0.06,0.598,0.2,1.471,0.14,2.053
					c-0.086,0.827-0.914,2.292-1.694,2.671c-0.881,0.429-1.648,0.174-2.431,0.957c-0.056,0.305-0.128,0.596-0.199,0.897
					c0.124,0.143,0.227,0.323,0.299,0.498c1.322,0.331,2.603-0.094,3.886-0.299c-0.163,0.3-0.321,0.604-0.498,0.897v0.638
					c0.101,0.141,0.218,0.274,0.339,0.398C87.396,133.878,87.842,133.917,88.707,133.824z"/>
				<path style="fill-rule:evenodd;clip-rule:evenodd;fill:#FFFFFF;" d="M215.32,118.777c-0.153,0.479-0.665,1.549-0.996,1.894
					c-0.983,1.023-8.089,5.009-9.088,4.724c-4.482-1.281-8.924-2.698-13.433-3.887c-1.119-0.295-2.199-1.098-3.328-1.335
					c-1.427-0.301-18.203-3.602-18.813-3.946c4.314-1.363,8.539-2.966,12.834-4.365c1.43-0.465,11.233-3.281,12.636-2.89v0.359
					c-4.073,1.742-8.168,3.536-12.177,5.421l-0.1,0.398c3.384,0,13.521-3.62,16.801-4.942c0.497,0.201,1.106,0.369,1.494,0.757
					c-2.077,0.999-4.117,2.153-6.218,3.089c-2.302,1.026-4.777,1.769-7.115,2.73v0.499c4.41-0.682,8.935-1.551,13.094-3.229
					c1.2-0.484,2.348-1.387,3.567-1.793c0.613-0.204,2.097,0.741,2.631,0.996c-0.912,0.597-1.868,1.104-2.87,1.535v0.499
					c-2.477,0.996-4.967,1.957-7.453,2.93c-0.979,0.382-2.021,0.698-2.949,1.195c0.313,0.025,0.801,0.132,1.096,0.1
					c2.73-0.298,8.877-1.874,11.539-2.989c0.706-0.296,1.582-0.59,2.232-0.977c0.583-0.347,0.959-0.904,1.654-0.996
					c0.904,0.487,1.795,0.996,2.67,1.534c0,0,0.314,0.327,0,0.398c-4.771,2.504-8.127,3.585-13.213,5.222
					c0.474,0.149,2.779-0.131,3.248-0.179c1.216-0.125,2.461-0.188,3.668-0.359c0.877-0.124,3.936-1.024,4.822-1.355
					c0.772-0.288,1.5-0.895,2.272-1.136C213.999,118.624,215.075,118.75,215.32,118.777z"/>
				<path style="fill:#FFFFFF;" d="M262.934,163.685c-2.132-1.526-4.152-3.253-6.317-4.724c-1.054-0.715-2.204-1.338-3.289-2.013
					c-3.485-2.168-6.917-4.181-10.722-5.74c-0.799-0.328-1.633-0.785-2.451-1.037c-1.825-0.562-5.443-1.18-7.274-1.295
					c-1.635-0.104-3.34-0.011-4.982-0.021c-2.783-0.017-7.742-0.537-13.003,0.902c-5.271,1.027-10.17,2.782-15.165,4.672
					c-2.031,0.769-4.058,1.546-6.104,2.271c-0.641,0.227-1.461,0.615-2.119,0.725c-0.975,0.162-2.079,0.162-3.069,0.239
					c-2.734,0.212-5.469,0.413-8.205,0.591c-7.504,0.487-15.012,0.93-22.527,1.223c-16.384,0.638-32.774,0.811-49.166,0.279
					c-4.785-0.155-9.563-0.358-14.343-0.638c-3.018-0.176-5.991-0.325-8.995-0.658c1.926-0.974,3.991-1.913,5.779-3.129
					c1.735-1.18,4.174-4.078,5.063-6.059c0.188-0.419,0.314-0.885,0.479-1.315c0.155-0.41,0.437-0.914,0.518-1.335
					c0.128-0.661,0.091-1.483,0.113-2.166c0.077-2.387-0.014-3.521-1.688-5.368c-1.188-1.31-1.954-1.896-3.747-2.132
					c-0.259-0.034-0.964-0.034-1.176-0.139c-0.568-0.284-1.951-1.709-2.432-2.133c-0.528-0.466-3.407-1.252-3.407-2.033
					c0-0.514,1.435-0.736,1.773-0.856c1.249-0.446,2.111-1.375,2.717-2.531c0.396-0.757,0.725-1.52,0.99-2.332
					c0.326-1,1.239-5.238,2.57-5.521c18.742-3.976,38.245-4.871,57.358-4.006c6.074,0.275,12.182,0.709,18.196,1.634
					c2.072,0.319,4.074,0.79,6.118,1.236c3.24,0.707,6.484,1.377,9.706,2.172c6.53,1.613,12.995,3.541,19.392,5.621
					c4.253,1.383,8.518,3.13,12.895,4.077c2.286,0.334,7.113,1.012,8.211,1.104c0.909,0.077,4.583,0.105,5.421,0
					c0.886-0.111,1.928-0.479,2.79-0.737c0.66-0.198,1.396-0.305,2.033-0.558c4.12-1.637,7.798-4.467,11.359-7.002
					c3.411-2.428,6.836-4.839,10.284-7.208c1.216-0.835,3.962-2.979,5.321-3.448c0.192-0.066,0.608-0.058,0.837-0.1
					c0.378,0.46,0.762,0.909,1.156,1.355v0.937c-1.298,1.095-2.606,2.351-3.986,3.329c-2.026,1.436-4.188,2.72-6.298,4.033
					c-0.824,0.513-1.624,1.087-2.451,1.587c-0.861,0.521-1.856,0.881-2.69,1.455c-1.113,0.767-2.47,1.712-3.435,2.678
					c-0.075,0.075-0.139,0.143-0.153,0.252c1.071-0.424,2.248-0.718,3.289-1.195c3.641-1.672,7.363-3.324,10.842-5.321
					c1.264-0.726,4.963-3.461,5.72-4.624h0.299c-0.05,0.649-0.011,1.47-0.14,2.093c-0.145,0.694-0.598,1.499-0.857,2.172
					c-1.574,1.103-3.147,2.316-4.763,3.348c-2.674,1.71-5.585,3.114-8.45,4.464c-1.582,0.746-3.162,1.4-4.783,2.053
					c-0.887,0.357-1.818,0.647-2.69,1.037c-0.37,0.165-0.698,0.476-1.036,0.697c0.678,0.137,5.627-1.126,6.197-1.295
					c1.614-0.477,3.242-1.248,4.823-1.847c1.785-0.676,4.057-1.397,5.74-2.179c0.882-0.41,1.787-1.141,2.631-1.654
					c-0.492,1.044-1.411,3.167-2.133,4.046c-0.105,0.128-0.658,0.419-0.837,0.538c-0.183,0.122-0.344,0.356-0.519,0.458
					c-0.234,0.138-0.562,0.215-0.817,0.319c-0.813,0.329-1.67,0.782-2.511,1.017c-1.527,0.426-3.076,0.782-4.604,1.216
					c-0.78,0.221-1.573,0.596-2.352,0.777c-0.508,0.118-5.859,0.979-6.079,1.295l0.26,0.199c2.771-0.142,5.638-0.091,8.39-0.498
					c1.248-0.185,2.507-0.513,3.747-0.757c1.201-0.237,2.327-0.385,3.428-0.937c-0.154,1.009-0.295,2.021-0.458,3.029
					c-0.19,0.118-0.475,0.183-0.398,0.399c-6.412,0.791-12.816,1.685-19.192,2.73c0.581,0.233,17.344-0.084,19.551-0.139
					c0.453,1.085,1.114,2.223,1.335,3.388c-2.33-0.304-5.061-0.773-7.354-0.957c-1.631-0.13-3.287-0.16-4.923-0.219
					c-1.912-0.069-3.822-0.191-5.72,0.08c1.132,0.604,8.476,2.088,9.686,2.332c1.847,0.371,10.622,1.042,11.54,2.392
					c0.538,0.792,0.855,1.915,1.096,2.83c-1.36-0.445-2.834-0.91-4.225-1.236c-2.955-0.692-5.91-1.377-8.869-2.053
					c-1.583-0.361-3.193-0.763-4.803-0.997v0.259c1.453,0.655,2.928,1.264,4.384,1.913c0.482,0.215,0.979,0.506,1.476,0.678
					c1.149,0.399,11.388,3.761,12.296,4.424c0.152,0.111,0.303,0.303,0.438,0.438c0.198,1.067,0.484,2.032,0.299,3.129
					c-1.576-0.844-3.069-1.861-4.663-2.671c-2.597-1.319-6.303-3.214-9.108-3.986c-0.997-0.274-2.007-0.518-3.009-0.777
					c-0.442-0.115-2.235-0.625-2.711-0.518c1.636,0.77,3.959,1.75,5.461,2.631c1.029,0.604,13.367,7.655,13.991,8.41
					c-0.014,0.384,0.121,0.793,0.1,1.156c-0.029,0.479-0.241,1.063-0.359,1.534C263.287,163.506,263.104,163.59,262.934,163.685z"/>
			</g>
			<path style="fill:#FFFFFF;" d="M249.148,213.18c-22.732,0-29.952,10.969-53.041,10.969c-22.732,0-29.971-10.969-53.041-10.969
				c-22.731,0-29.797,10.969-53.041,10.969c-22.733,0-30.309-10.969-53.04-10.969c-10.309,0-17.501,2.256-24.403,4.721
				c-1.553-4.909-2.838-9.938-3.836-15.07c8.173-2.932,16.015-6.104,28.239-6.104c22.731,0,30.307,10.969,53.04,10.969
				c23.244,0,30.31-10.969,53.041-10.969c23.07,0,30.309,10.969,53.041,10.969c23.089,0,30.309-10.969,53.041-10.969
				c10.755,0,18.396,2.455,25.737,5.042c-0.963,5.166-2.214,10.229-3.737,15.172C264.89,214.879,258.097,213.18,249.148,213.18z"/>
			<path style="fill:#FFFFFF;" d="M194.694,301.903c-21.631-0.441-29.043-10.954-51.628-10.954
				c-22.731,0-29.797,10.969-53.041,10.969l-1.253-0.011c-14.938-6.36-28.486-15.331-40.091-26.341
				c14.528,2.759,23.003,9.899,41.344,9.899c23.244,0,30.31-10.969,53.041-10.969c23.07,0,30.309,10.969,53.041,10.969
				c17.046,0,25.442-5.979,37.818-9.108C222.516,287.004,209.267,295.697,194.694,301.903z"/>
			<path style="fill:#FFFFFF;" d="M249.148,252.064c-22.732,0-29.952,10.969-53.041,10.969c-22.732,0-29.971-10.969-53.041-10.969
				c-22.731,0-29.797,10.969-53.041,10.969c-22.733,0-30.309-10.969-53.04-10.969c-2.793,0-5.357,0.165-7.748,0.456
				c-3.162-4.722-6.037-9.654-8.601-14.77c4.693-1.261,9.914-2.14,16.349-2.14c22.731,0,30.307,10.969,53.04,10.969
				c23.244,0,30.31-10.969,53.041-10.969c23.07,0,30.309,10.969,53.041,10.969c23.089,0,30.309-10.969,53.041-10.969
				c5.298,0,9.84,0.596,13.964,1.51c-2.596,5.25-5.518,10.307-8.74,15.145C252.712,252.135,250.975,252.064,249.148,252.064z"/>
		</g>
		<path style="fill-rule:evenodd;clip-rule:evenodd;fill:#FFFFFF;" d="M215.374,118.742c-0.391-0.891-1.375-0.118-1.548-0.064
			c-0.772,0.241-1.5,0.849-2.272,1.136c-0.887,0.331-3.945,1.231-4.822,1.355c-1.207,0.171-2.452,0.234-3.668,0.359
			c-0.469,0.048-2.774,0.328-3.248,0.179c5.086-1.636,8.441-2.718,13.213-5.222c0.314-0.071,0-0.398,0-0.398
			c-0.875-0.538-1.766-1.047-2.67-1.534c-0.695,0.092-1.071,0.649-1.654,0.996c-0.65,0.387-1.526,0.681-2.232,0.977
			c-2.662,1.115-8.809,2.691-11.539,2.989c-0.295,0.032-0.783-0.074-1.096-0.1c0.928-0.497,1.971-0.813,2.949-1.195
			c2.486-0.973,4.977-1.934,7.453-2.93v-0.499c1.002-0.43,1.958-0.938,2.87-1.535c-0.534-0.255-2.018-1.2-2.631-0.996
			c-1.22,0.406-2.367,1.31-3.567,1.793c-4.159,1.677-8.684,2.547-13.094,3.229v-0.499c2.338-0.961,4.813-1.704,7.115-2.73
			c2.101-0.937,4.141-2.09,6.218-3.089c-0.388-0.388-0.997-0.556-1.494-0.757c-3.279,1.322-13.417,4.942-16.801,4.942l0.1-0.398
			c4.009-1.885,8.104-3.679,12.177-5.421v-0.359c-1.402-0.392-11.206,2.424-12.636,2.89c-4.295,1.398-8.52,3.001-12.834,4.365
			c0.61,0.345,17.387,3.646,18.813,3.946c1.129,0.237,2.209,1.04,3.328,1.335c4.509,1.189,8.95,2.605,13.433,3.887
			c0.999,0.285,8.104-3.7,9.088-4.724C214.655,120.326,215.718,119.945,215.374,118.742z"/>
		<g>
			<g>
				
					<path style="fill-rule:evenodd;clip-rule:evenodd;fill:#0093DD;stroke:#0093DD;stroke-width:0.2835;stroke-miterlimit:3.8637;" d="
					M182.679,82.082l-18.819-23.639l18.819-23.64l-29.883,4.478l-11.063-28.117L130.669,39.28l-29.882-4.478l18.819,23.639
					l-18.819,23.64l29.883-4.479l11.063,28.118l11.063-28.118L182.679,82.082z M167.828,172.09
					c-6.263-4.506-11.115-5.633-18.555-7.653c-0.087-0.023-0.332-0.412-0.856-0.498c5.743-0.417,11.521-0.554,17.278-0.777
					l22.421-0.857c0.128-0.005,1.129,0.348,1.369,0.405c4.707,1.137,5.317,2.063,9.572,4.219c1.893,0.958,3.89,1.785,5.82,2.671
					c2.935,1.347,6.083,3.129,9.247,3.946c1.04,0.268,2.136,0.431,3.188,0.658c2.158,0.464,4.252,0.896,6.478,0.678
					c2.485-0.244,5.574-2.023,6.896-4.166c0.943-1.529,1.18-3.101,0.957-4.883c-0.079-0.627-2.344-3.584-2.83-4.026
					c-0.58-0.526-1.481-1.262-2.152-1.654c-0.766-0.447-1.711-0.745-2.525-1.109c-3.715-1.662-7.306-3.11-11.386-3.554
					c5.071-1.294,8.992-1.498,14.21-1.801c2.375-0.138,7.03-0.37,9.406-0.053c0.457,0.061,0.984,0.276,1.436,0.398
					c0.746,0.202,1.642,0.322,2.352,0.598c0.805,0.313,1.59,0.818,2.371,1.196c3.081,1.489,6.232,3.373,9.009,5.381
					c0.645,0.466,1.203,1.076,1.854,1.534c1.907,1.345,4.003,2.649,6.019,3.827c0.125,0.407,1.291,1.149,1.574,1.355
					c1.631,0.077,3.469,0.447,5.082,0.339c0.156-0.01,0.768-0.287,1.036-0.339c0.331-0.845,0.79-1.688,1.057-2.551
					c0.694-2.248,0.87-6.859,0.598-9.147c-0.138-1.156-0.436-2.313-0.678-3.448c-0.433-2.033-0.769-3.928-1.773-5.76
					c-1.033-1.882-4.28-4.86-4.663-6.317c-0.121-0.457-0.061-1.173-0.087-1.661c-0.021-0.402-0.132-0.983-0.073-1.368
					c0.08-0.517,0.377-1.126,0.538-1.634c1.779-5.611,7.768-12.742,6.577-19.086c-0.104-0.549-0.131-1.085-0.386-1.594l-0.996-1.953
					c-0.46-0.921-0.907-1.424-1.548-2.199c-1.211,0.151-2.616,0.099-3.787,0.359c-0.414,0.092-0.87,0.348-1.275,0.499
					c-0.695,0.258-1.49,0.474-2.152,0.797c-1.439,0.704-5.107,3.597-6.477,4.624c-1.625,1.218-3.277,2.563-4.963,3.687
					c-0.814,0.543-1.785,0.914-2.591,1.475c-0.653,0.455-1.184,1.131-1.833,1.595c-1.03,0.736-2.192,1.343-3.269,2.013
					c-4.054,2.521-6.39,4.006-11.327,4.006c-3.084,0-3.909-0.17-7.088-0.856c-1.958-0.423-3.93-0.822-5.88-1.276
					c-1.389-0.323-2.795-0.914-4.165-1.335c1.33-0.818,2.8-1.591,4.065-2.491c1.088-0.773,2.098-1.79,3.149-2.631
					c0.335-1.771,0.056-4.299-0.997-5.779c-0.597-0.84-4.702-2.96-5.58-3.375c-3.954-1.867-13.688-6.206-18.256-6.131
					c-1.578,0.026-7.946,2.094-9.38,2.538c-6.456,1.995-12.883,4.074-19.318,6.132c-2.262,0.723-14.021-0.455-17.16-0.498
					c-4.384-0.062-8.789-0.037-13.173,0c-4.408,0.036-8.864,0.505-13.254,0.856c-6.23,0.5-12.541,1.016-18.733,1.914
					c-4.176,0.605-8.359,1.524-12.516,2.272c-3.223,0.58-6.533,1.011-9.727,1.714c-1.956,0.431-6.015,2.014-7.652,2.192
					c-2.23,0.242-6.768-0.131-8.829,0.737c-1.308,0.551-2.733,1.193-3.807,2.152c-0.609,0.545-1.039,1.335-1.595,1.933
					c-0.656,0.708-1.513,1.402-2.212,2.093c-0.73,0.722-1.438,1.522-2.212,2.192c-1.255,1.086-3.876,1.85-5.501,2.272
					c-4.558,1.187-19.93,1.5-21.663,2.491c-1.574,0.899-3.306,2.213-4.564,3.527c-0.59,0.617-1.074,1.359-1.654,1.993
					c0.046,0.935-0.077,2.203,0.1,3.089c0.146,0.726,1.018,1.804,0.2,2.392c-0.902-0.51-4.239,0.703-5.321,1.136
					c-0.059,0.195-0.106,0.397-0.14,0.598c0.135,0.318,0.181,0.746,0.339,1.037c0.764,1.399,2.558,3.978,4.191,4.245
					c8.838,1.445,17.608,3.113,26.5,4.225c5.799,0.725,11.621,1.343,17.438,1.894c2.871,0.271,5.77,0.446,8.63,0.797
					c1.119,0.138,2.32,0.561,3.428,0.817c0.623,0.145,1.451,0.228,2.033,0.458c0.14,0.056,4.555,2.739,4.684,2.85
					c0.969,0.836,1.85,2.273,2.689,3.269c2.313,2.736,4.568,5.736,7.195,8.151c4.768,4.381,12,5.793,18.116,3.647
					c0.828-0.291,1.677-0.826,2.471-1.216c1.294-0.633,2.783-1.373,3.906-2.271c0.093-0.074,0.192-0.25,0.272-0.346
					c0.755-0.892,1.509-1.641,2.299-2.504c0-0.398-0.109-1.058-0.299-1.415c-2.147-1.315-4.347-2.55-6.518-3.827
					c-1.273-0.749-2.549-1.633-3.866-2.292c-1.193-0.597-2.561-1.024-3.807-1.515c-2.098-0.826-4.185-1.683-6.298-2.471
					l23.179,0.299c0.119,0.001,0.725,0.357,0.956,0.398c0.563,0.1,1.2,0.073,1.774,0.1c0.544,0.386,1.035,0.405,1.654,0.638
					c1.237,0.466,3.062,1.254,4.165,2.053c0.856,0.62,1.685,1.564,2.511,2.252c3.767,3.133,8.287,7.26,12.417,9.825
					c2.28,1.417,7.354,3.382,9.944,3.588c0.713,0.056,1.778-0.191,2.511-0.279c2.486-0.298,4.819-1.335,6.518-3.222
					c1.31-1.455,3.1-3.578,3.667-5.448C167.847,173.784,167.828,172.293,167.828,172.09z M6.236,178.842l-0.002-0.168l-0.002-0.168
					l-0.003-0.175l-0.002-0.249l-0.002-0.179l-0.002-0.179l-0.001-0.174l-0.001-0.222l-0.002-0.241l-0.001-0.249v-0.359V6.26h270.99
					v170.218c0,7.706-0.635,15.263-1.854,22.622c-7.486-2.647-15.223-5.208-26.206-5.208c-22.732,0-29.952,10.969-53.041,10.969
					c-22.732,0-29.971-10.969-53.041-10.969c-22.731,0-29.797,10.969-53.041,10.969c-22.733,0-30.309-10.969-53.04-10.969
					c-12.473,0-20.383,3.302-28.737,6.283C7.041,193.229,6.357,186.104,6.236,178.842z"/>
			</g>
			<path style="fill:#0093DD;stroke:#0093DD;stroke-width:0.2835;stroke-miterlimit:3.8637;" d="M95.711,304.636
				c18.897-1.583,26.589-10.737,47.355-10.737c20.233,0,28.289,8.438,45.301,10.512c-14.522,5.332-30.226,8.242-46.635,8.242
				C125.556,312.652,110.063,309.824,95.711,304.636z"/>
			<path style="fill:#0093DD;stroke:#0093DD;stroke-width:0.2835;stroke-miterlimit:3.8637;" d="M249.148,232.622
				c-22.732,0-29.952,10.969-53.041,10.969c-22.732,0-29.971-10.969-53.041-10.969c-22.731,0-29.797,10.969-53.041,10.969
				c-22.733,0-30.309-10.969-53.04-10.969c-7.027,0-12.605,1.048-17.632,2.496c-2.231-4.704-4.202-9.557-5.894-14.54
				c6.639-2.341,13.652-4.41,23.525-4.41c22.731,0,30.307,10.969,53.04,10.969c23.244,0,30.31-10.969,53.041-10.969
				c23.07,0,30.309,10.969,53.041,10.969c23.089,0,30.309-10.969,53.041-10.97c8.538,0,15.113,1.548,21.135,3.48
				c-1.679,5.066-3.645,10.001-5.879,14.783C259.939,233.35,255.006,232.622,249.148,232.622z"/>
			<path style="fill:#0093DD;stroke:#0093DD;stroke-width:0.2835;stroke-miterlimit:3.8637;" d="M237.894,272.5
				c-14.704,2.7-22.982,9.976-41.786,9.976c-22.732,0-29.971-10.969-53.041-10.969c-22.731,0-29.797,10.969-53.041,10.969
				c-19.811,0-28.11-8.33-44.96-10.472c-5.065-5.178-9.72-10.761-13.911-16.697c1.834-0.164,3.77-0.254,5.831-0.254
				c22.731,0,30.307,10.969,53.04,10.969c23.244,0,30.31-10.969,53.041-10.969c23.07,0,30.309,10.969,53.041,10.969
				c23.089,0,30.309-10.969,53.041-10.969c1.12,0,2.207,0.027,3.263,0.078C248.055,261.322,243.196,267.132,237.894,272.5z"/>
		</g>
		<g>
			<path style="fill:#FCDB00;stroke:#FCDB00;stroke-width:0.2835;stroke-miterlimit:3.8637;" d="M176.581,78.562l-25.433-3.812
				l-9.416,23.931l-9.415-23.931l-25.433,3.812l16.017-20.12l-16.017-20.119l25.432,3.811l9.416-23.93l9.416,23.93l25.433-3.811
				l-16.017,20.12L176.581,78.562z"/>
		</g>
	</g>
</svg>
