<svg xmlns="http://www.w3.org/2000/svg" xmlns:xlink="http://www.w3.org/1999/xlink" height="763" width="603" version="1.0"><defs><radialGradient xlink:href="#a" id="b" gradientUnits="userSpaceOnUse" gradientTransform="matrix(1.21503 0 0 1.26667 -839.192 -490.49)" cx="858.042" cy="579.933" fx="858.042" fy="579.933" r="300"/><linearGradient id="a"><stop style="stop-color:#fff;stop-opacity:.3137255" offset="0"/><stop offset=".19" style="stop-color:#fff;stop-opacity:.25098041"/><stop style="stop-color:#6b6b6b;stop-opacity:.1254902" offset=".6"/><stop style="stop-color:#000;stop-opacity:.1254902" offset="1"/></linearGradient></defs><path d="M1.5 1.5v458.868c0 166.31 134.315 301.132 300 301.132s300-134.822 300-301.132V1.5H1.5z" style="fill:#fff;fill-opacity:1"/><path style="fill:#2b5df2;fill-opacity:1;stroke:#000;stroke-width:2.75000072;stroke-linecap:round;stroke-linejoin:round;stroke-miterlimit:4;stroke-dasharray:none;stroke-opacity:1" d="M98.969 511.031c-40.311-.059-54.076 21.538-87.531 26.406.794 3.021 1.646 6.018 2.53 9 .33 1.108.66 2.21 1 3.313.097.313.184.625.282.938.45 1.439.904 2.882 1.375 4.312.552 1.675 1.139 3.338 1.719 5 .539 1.544 1.093 3.093 1.656 4.625.537 1.462 1.066 2.924 1.625 4.375.229.594.455 1.189.688 1.781.741 1.89 1.503 3.755 2.28 5.625a301.595 301.595 0 0 0 3.97 9.063c.78 1.713 1.563 3.429 2.375 5.125.084.176.165.355.25.531.628 1.308 1.29 2.609 1.937 3.906.403.807.778 1.635 1.188 2.438.016.033.045.06.062.093.467.914.962 1.811 1.438 2.72.54 1.033 1.072 2.066 1.624 3.093.253.468.496.94.75 1.406.947 1.736 1.927 3.442 2.907 5.157.11.194.201.4.312.593.919 1.6 1.866 3.2 2.813 4.782.436.728.87 1.462 1.312 2.187a300.825 300.825 0 0 0 3.219 5.156c3.135-1.494 3.683.357 2.781 4.219C105.278 708.009 197.156 761.5 301.5 761.5c104.32 0 196.185-53.461 249.938-134.563.885-6.09 2.398-9.516 5.25-8.156.248-.402.472-.815.718-1.218.403-.66.821-1.307 1.219-1.97a302.918 302.918 0 0 0 3.125-5.343 299.993 299.993 0 0 0 3.531-6.344c.904-1.67 1.784-3.342 2.657-5.031.584-1.13 1.148-2.267 1.718-3.406.09-.179.192-.353.282-.532.7-1.404 1.383-2.832 2.062-4.25.11-.23.234-.456.344-.687.902-1.898 1.792-3.8 2.656-5.719.64-1.422 1.256-2.847 1.875-4.281.587-1.362 1.182-2.722 1.75-4.094.134-.323.274-.645.406-.968.63-1.535 1.24-3.079 1.844-4.625.065-.166.123-.335.188-.5a299.86 299.86 0 0 0 3.062-8.25c.25-.706.504-1.417.75-2.125.057-.166.1-.335.156-.5a299.165 299.165 0 0 0 3.063-9.375c.068-.22.151-.436.218-.657.619-2.02 1.236-4.055 1.813-6.093.434-1.533.84-3.083 1.25-4.625-32.91-5.172-46.703-26.503-86.719-26.563-45.483-.068-57.157 27.441-101.469 27.375-44.313-.064-55.89-27.59-101.375-27.656-45.484-.067-57.156 27.409-101.468 27.344-44.314-.065-55.891-27.59-101.375-27.657z"/><path d="M498.623 404.335c99.16-10.835 74.036 74.034 72.1 98.812-11.787-5.89-115.477-12.103-72.1-98.812zM477.107 340.75c21.245 59.247 67.363 40.046 112.522 23.873-34.903-37.91-70.195-71.34-112.522-23.873zM382.553 312.62c-32.507-55.535 8.587-78.685 69.972-92.907-2.44 22.958 21.954 97.073-69.972 92.907zM489.398 150.933c20.472 31.362 49.611 39.971 100.231-7.806-39.768-26.36-77.276-42.428-100.23 7.806z" style="fill:#5ab532;fill-opacity:1;fill-rule:evenodd;stroke:#000;stroke-width:3;stroke-linecap:butt;stroke-linejoin:miter;stroke-miterlimit:4;stroke-dasharray:none;stroke-opacity:1"/><path d="M516.11 90.414c77.635 2.957 62.732-46.19 60.518-79.424-39.35 11.444-88.427 15.263-60.519 79.424z" style="opacity:.9;fill:#5ab532;fill-opacity:1;fill-rule:evenodd;stroke:#000;stroke-width:3;stroke-linecap:butt;stroke-linejoin:miter;stroke-miterlimit:4;stroke-dasharray:none;stroke-opacity:1"/><path d="M468.136 88.995c52.15-28.383-7.916-75.691-33.58-78.005-10.35 35.36-19.54 79.843 33.58 78.005zM350.165 218.066c66.755-13.249 16.438-79.133 10.872-87.94-19.383 11.707-70.284 65.75-10.872 87.94zM337.874 107.672c76.405 23.234 67.456-35.25 72.1-61.938-37.016 5.667-82.181 1.93-72.1 61.938zM301.71 94.672c59.11-34.628-.416-81.902 0-86.52-21.674 24.233-50.977 53.704 0 86.52zM263.417 111.22c4.2-80.127-68.883-65.419-69.262-64.066 3.474 3.042-6.665 81.722 69.262 64.067zM248.997 213.808c-52.264-20.736-20.386-64.32-8.516-82.035 29.643 22.58 61.742 44.723 8.516 82.035zM133.636 89.704c-54.376-44.083 13.74-70.852 30.26-75.648 23.23 44.126 11.627 73.675-30.26 75.648zM86.373 90.186c-81.714 9.882-58.571-71.36-56.743-76.13 19.658 4.533 83.62 3.484 56.743 76.13zM118.279 149.513c-31.611 40.235-67.224 27.118-104.489-8.033 15.949-11.054 73.773-53.784 104.489 8.033zM219.22 315.94c24.703-70.892-35.903-86.304-66.424-94.808-1.7 24.886-31.273 90.405 66.423 94.808zM123.474 337.202c-26.457 67.991-70.198 36.602-111.103 21.516 42.206-53.716 78.34-52.793 111.103-21.516zM96.053 405.754c-45.404-7.757-86.087 17.216-63.357 90.296 72.288-14.837 98.873-43.306 63.357-90.296z" style="fill:#5ab532;fill-opacity:1;fill-rule:evenodd;stroke:#000;stroke-width:3;stroke-linecap:butt;stroke-linejoin:miter;stroke-miterlimit:4;stroke-dasharray:none;stroke-opacity:1"/><path d="M288 501.727h22.904l1.004-76.241c7.847-21.921 39.784-50.768 65.379-64.877 20.964 1.126 24.989 6.216 27.081 18.728-1.57-12.954-6.65-17.782-27.081-18.728 0 0 17.785-6.416 24.572-5.682 83.434 9.019 119.21 81.935 168.084 147.044-19.035-31.762-67.912-135.074-149.518-155.575 40.9-2.837 76.617-8.655 169.204 18.227-46.707-21.912-142.31-36.434-178.236-27.421-35.926 9.013-34.804 11.36-50.827 17.385 23.853-44.911 59.374-87.878 90.453-131.585-37.37 46.333-74.201 92.602-110.185 139.614-35.058 45.802-34.107 41.131-34.107 41.131l3.011-87.28c21.044-34.485 71.7-90.19 122.858-129.202 26.401-5.896 60.345-22.488 72.099 4.642-11.177-27.761-46.243-10.25-72.906-4.531 24.966-32.76 88.956-40.743 157.176-44.63-40.985-3.868-80.501-.738-123.896 5.181 39.7-38.189 78.973-82.357 110.74-136.41-33.524 39.29-64.345 82.242-106.563 121.534 12.936-38.186-4.536-91.07-33.488-121.554 70.403 138.366-10.585 147.725-81.214 228.728l6.523-109.52c-25.752 155.235-24.512 110.35-54.34 163.86 15.716-142.361-31.514-130.237 102.739-248.022-33.772 33.443-82.311 51.338-104.244 101.06l-3.01-137.784-6.686 137.946C271.512 104.41 232.044 75.239 193.03 46.774c141.034 141.765 87.573 85.194 101.994 248.632 2.878-3.006-15.266-17.046-35.45-49.16-5.672-9.025-18.388-114.7-18.388-114.7l5.52 108.68c-7.428-15.24-65.833-56.542-101.995-101.656-19.922-24.854 1.874-84.835 19.894-124.574-29.058 39.018-41.928 77.758-34.106 115.542C97.109 96.004 63.85 64.038 29.169 15c31.936 51.669 34.334 60.736 107.853 133.932-44.161-7.694-82.154-5.106-122.744-6.848 40.979 5.566 83.177 3.815 122.906 16.883l41.132 27.421c-36.658-9.437-70.308-17.579-82.086 2.509 11.76-19.538 45.771-12.138 82.587-1.343 38.26 38.132 75.856 75.084 107.677 122.228l4.014 95.471c-38.046-53.149-89.352-119.557-137.444-182.751l87.28 134.093c-89.507-49.996-222.907-2.061-227.286 1.154 31.734-6.7 146.557-25.597 162.085-10.85-48.135-4.25-92.576 58.344-142.964 150.313 88.742-122.075 115.168-160.933 193.629-136.263-17.607-1.705-30.838 1.762-33.782 17.385 2.75-16.858 15.396-18.595 33.782-17.385 28.738 12.157 48.147 36.188 62.191 67.047v73.732z" style="fill:#5ab532;fill-opacity:1;fill-rule:evenodd;stroke:#000;stroke-width:2.74208903px;stroke-linecap:butt;stroke-linejoin:miter;stroke-opacity:1"/><path d="M192.558 380.285c18.04 1.845 20.492 20.865 23.34 39.18 2.307 23.735 19.848 21.084 17.26 41.13-2.774 21.479-14.23 34.1-37.534 23.696-1.746 4.276-.296 7.053-.025 5.96 1.684-6.78.84-4.707-1.09-5.96-18.047 8.287-37.945-1.002-42.905-19.21-7.19-26.392 13.672-20.822 17.259-47.39 2.366-17.527 1.524-39.622 23.695-37.406zM406.441 380.285c18.039 1.845 20.492 20.865 23.34 39.18 2.307 23.735 19.848 21.084 17.26 41.13-2.774 21.479-14.23 34.1-37.534 23.696-1.746 4.276-.296 7.053-.025 5.96 1.684-6.78.84-4.707-1.09-5.96-18.047 8.287-37.945-1.002-42.905-19.21-7.19-26.392 13.672-20.822 17.259-47.39 2.366-17.527 1.524-39.622 23.695-37.406zM508.962 192.187c18.125-.516 23.031 18.023 28.238 35.811 5.373 23.234 22.42 18.324 22.46 38.538.044 21.656-9.673 35.66-34.132 28.375-1.175 4.466.624 7.031.75 5.913.788-6.943.222-4.777-1.855-5.768-16.817 10.564-37.753 3.941-45.04-13.467-10.56-25.233 10.848-22.424 10.95-49.233.066-17.686-3.642-39.483 18.629-40.17zM93.906 188.702c-18.126-.516-23.031 18.023-28.238 35.812-5.373 23.234-22.42 18.324-22.46 38.537-.044 21.656 9.673 35.661 34.132 28.376 1.175 4.466-.624 7.031-.75 5.913-.788-6.943-.222-4.777 1.855-5.768 16.816 10.563 37.753 3.94 45.04-13.467 10.56-25.233-10.848-22.424-10.95-49.233-.066-17.686 3.642-39.483-18.629-40.17z" style="fill:#e20909;fill-opacity:1;fill-rule:evenodd;stroke:#000;stroke-width:2.74208903px;stroke-linecap:butt;stroke-linejoin:miter;stroke-opacity:1"/><g style="display:inline"><path style="fill:url(#b);fill-opacity:1" d="M1.5 1.5v458.868c0 166.31 134.315 301.132 300 301.132s300-134.821 300-301.132V1.5H1.5z"/></g><g style="display:inline"><path style="fill:none;fill-opacity:1;stroke:#000;stroke-width:3;stroke-miterlimit:4;stroke-dasharray:none;stroke-opacity:1" d="M1.5 1.5v458.868c0 166.31 134.315 301.132 300 301.132s300-134.821 300-301.132V1.5H1.5z"/></g></svg>