<svg xmlns="http://www.w3.org/2000/svg" version="1.0" width="220" height="263"><path d="M1.006 1.004 1 169c10.174 129.071 210.235 117.322 218 0V1L1.006 1.004z" style="fill:#0047ab;fill-opacity:1;fill-rule:evenodd;stroke:#000;stroke-width:2;stroke-linecap:butt;stroke-linejoin:miter;stroke-miterlimit:4;stroke-dasharray:none;stroke-opacity:1"/><path d="M148.347 254.421c-1.68-1.893-2.695-2.245-2.347-5.421l17-54c1.381-4.956 2.866-11.862-6-12h-54c-17.327-.953-25.698-13.834-19-33l14-43c1.072-4.524 1.178-8.628-5-10H33c-12.097-1.134-24.284-8.174-18-31l16-51c1.835-4.73 1.78-9.752-4.004-13.529l34.99.032C66.31 3.134 66.036 7.162 65 11L49 59c-2.225 9.18 1.754 8.765 5 9h64c18.68 4.79 16.514 15.996 15 27l-15 48c-3.203 10.938 1.697 11.955 6 12h61c14.172 1.651 18.023 12.607 14 26l-15 45c-1.79 4.732-1.082 6.256 1.87 7.846-10.705 8.96-23.226 15.538-37.523 20.575z" style="fill:#fff;fill-opacity:1;fill-rule:evenodd;stroke:#000;stroke-width:1px;stroke-linecap:butt;stroke-linejoin:miter;stroke-opacity:1"/></svg>