<svg xmlns="http://www.w3.org/2000/svg" xmlns:xlink="http://www.w3.org/1999/xlink" height="763" width="603" version="1.0"><defs><radialGradient xlink:href="#a" id="b" gradientUnits="userSpaceOnUse" gradientTransform="matrix(1.21503 0 0 1.26667 -839.192 -490.49)" cx="858.042" cy="579.933" fx="858.042" fy="579.933" r="300"/><linearGradient id="a"><stop style="stop-color:#fff;stop-opacity:.3137255" offset="0"/><stop offset=".19" style="stop-color:#fff;stop-opacity:.25098041"/><stop style="stop-color:#6b6b6b;stop-opacity:.1254902" offset=".6"/><stop style="stop-color:#000;stop-opacity:.1254902" offset="1"/></linearGradient></defs><g style="opacity:1"><path d="M1.5 1.5v458.868c0 166.311 134.314 301.132 300 301.132s300-134.821 300-301.132V1.5H1.5z" style="opacity:1;fill:#2b5df2"/></g><g style="opacity:1"><path style="fill:#fff;stroke:#000;stroke-width:3;stroke-linecap:round;stroke-linejoin:round" d="M216.183 555.047v-43.343h-24.929v14.487h-16.15v-14.487h-24.578v14.487h-15.975v63.025h15.975v14.488h24.578v-14.488h16.15v14.488h24.929V566.76h-20.481v11.712h-11.353V566.76h-11.352v-11.713h11.352v-11.711h11.353v11.711h20.481z"/><path style="fill:#fff;stroke:#000;stroke-width:3;stroke-linecap:round;stroke-linejoin:round" d="M205.649 293.475h-19.354l-51.744-53.38v-19.966c0-6.901-5.423-12.497-12.113-12.497-6.69 0-12.113 5.595-12.113 12.497v19.966l-51.744 53.38H39.228c-6.689 0-12.113 5.595-12.113 12.497 0 6.901 5.423 12.496 12.113 12.496h19.354l47.003 48.491v233.756c0 2.553 2.005 4.62 4.479 4.62h24.748c2.474 0 4.479-2.067 4.479-4.62V366.958l47.003-48.491h19.354c6.689 0 12.113-5.595 12.113-12.496.001-6.901-5.422-12.496-12.112-12.496zm-60.038 31.512c-2.822 0-5.445-1.113-7.656-3.008 1.837 2.281 2.916 4.987 2.916 7.898 0 8.102-8.252 14.669-18.433 14.669s-18.433-6.567-18.433-14.669c0-2.911 1.079-5.617 2.916-7.898-2.211 1.895-4.834 3.008-7.656 3.008-7.854 0-14.219-8.513-14.219-19.015s6.366-19.016 14.219-19.016c2.822 0 5.445 1.112 7.656 3.008-1.837-2.281-2.916-4.987-2.916-7.898 0-8.102 8.252-14.669 18.433-14.669s18.433 6.568 18.433 14.669c0 2.912-1.079 5.617-2.916 7.898 2.211-1.896 4.834-3.008 7.656-3.008 7.854 0 14.219 8.513 14.219 19.016.001 10.502-6.365 19.015-14.219 19.015z"/><path style="fill:#fff;stroke:#000;stroke-width:3;stroke-linecap:round;stroke-linejoin:round" d="M147.191 373.616c0-2.552-2.005-4.62-4.479-4.62h-40.548c-2.474 0-4.479 2.068-4.479 4.62v7.059c0 2.551 2.005 4.62 4.479 4.62h40.548c2.474 0 4.479-2.069 4.479-4.62v-7.059zM278.064 222.98s6.583 308.464 9.216 321.504c2.633 13.039 8.427 41.834 14.22 88.016 5.793-46.182 11.586-74.977 14.22-88.016 2.633-13.04 9.216-321.504 9.216-321.504h-46.872 0z"/><path d="M320.723 195.951c-5.134-13.241-2.926-54.331-2.926-77.421 0-23.09-11.504-24.721-16.297-24.721-4.793 0-16.296 1.63-16.296 24.721s2.208 64.181-2.926 77.421c-4.213 10.867-4.213 22.819-4.213 22.819h46.872c-.001 0-.001-11.952-4.214-22.819z" style="fill:#fcef3c;stroke:#000;stroke-width:3;stroke-linecap:round;stroke-linejoin:round"/><ellipse ry="17.748" rx="17.205" cy="79.451" cx="301.5" style="fill:#fcef3c;stroke:#000;stroke-width:3;stroke-linecap:round;stroke-linejoin:round"/><path d="M386.686 210.893c-3.801 0-7.065 2.344-8.527 5.705H224.841c-1.461-3.36-4.726-5.705-8.527-5.705-5.163 0-9.348 4.318-9.348 9.644 0 5.326 4.186 9.644 9.348 9.644 3.801 0 7.066-2.345 8.527-5.706h153.317c1.462 3.36 4.727 5.706 8.527 5.706 5.163 0 9.349-4.318 9.349-9.644 0-5.327-4.185-9.644-9.348-9.644z" style="fill:#fcef3c;stroke:#000;stroke-width:3;stroke-linecap:round;stroke-linejoin:round"/><path style="fill:none;stroke:#000;stroke-width:3;stroke-linecap:round;stroke-linejoin:round" d="M301.5 245.846v297.733M285.204 118.53l.001.52c7.139 2.511 18.744 6.007 32.52 7.97m-.495-16.557c-12.084-1.761-22.465-4.687-29.575-7.061m-3.078 81.373c7.43 2.649 20.171 6.539 35.296 8.482m-2.119-16.773c-13.565-1.931-25.034-5.349-32.204-7.853m.104-16.45c7.102 2.474 18.362 5.825 31.676 7.757m.12-16.471c-13.519-1.951-24.925-5.368-32.033-7.856M280.932 199.907c6.822 2.649 23.329 8.359 43.323 10.341M278.137 216.597v7.878M324.863 216.597v7.878M301.5 216.597v7.878"/><path style="fill:#fff;stroke:#000;stroke-width:3;stroke-linecap:round;stroke-linejoin:round" d="M386.817 555.047v-43.343h24.928v14.487h16.151v-14.487h24.577v14.487h15.975v63.025h-15.975v14.488h-24.577v-14.488h-16.151v14.488h-24.928V566.76h20.48v11.712h11.353V566.76h11.353v-11.713H418.65v-11.711h-11.353v11.711h-20.48z"/><path style="fill:#fff;stroke:#000;stroke-width:3;stroke-linecap:round;stroke-linejoin:round" d="M385.237 305.972c0 6.901 5.423 12.496 12.113 12.496h19.354l47.004 48.491v233.756c0 2.553 2.005 4.62 4.479 4.62h24.748c2.473 0 4.479-2.067 4.479-4.62V366.958l47.004-48.491h19.354c6.689 0 12.113-5.595 12.113-12.496 0-6.901-5.424-12.497-12.113-12.497h-19.354l-51.743-53.38v-19.966c0-6.901-5.424-12.497-12.113-12.497-6.69 0-12.113 5.595-12.113 12.497v19.966l-51.743 53.38h-19.354c-6.692.001-12.115 5.596-12.115 12.498zm57.932 0c0-10.502 6.366-19.016 14.22-19.016 2.821 0 5.444 1.112 7.656 3.008-1.837-2.281-2.916-4.987-2.916-7.898 0-8.102 8.252-14.669 18.433-14.669s18.433 6.568 18.433 14.669c0 2.912-1.079 5.617-2.916 7.898 2.212-1.896 4.834-3.008 7.656-3.008 7.854 0 14.22 8.513 14.22 19.016 0 10.502-6.366 19.015-14.22 19.015-2.822 0-5.444-1.113-7.656-3.008 1.837 2.281 2.916 4.987 2.916 7.898 0 8.102-8.252 14.669-18.433 14.669s-18.433-6.567-18.433-14.669c0-2.911 1.079-5.617 2.916-7.898-2.212 1.895-4.835 3.008-7.656 3.008-7.854 0-14.22-8.513-14.22-19.015z"/><path style="fill:#fff;stroke:#000;stroke-width:3;stroke-linecap:round;stroke-linejoin:round" d="M455.809 373.616c0-2.552 2.005-4.62 4.479-4.62h40.549c2.473 0 4.479 2.068 4.479 4.62v7.059c0 2.551-2.006 4.62-4.479 4.62h-40.549c-2.474 0-4.479-2.069-4.479-4.62v-7.059z"/></g><g style="display:inline"><path style="fill:url(#b);fill-opacity:1" d="M1.5 1.5v458.868c0 166.31 134.315 301.132 300 301.132s300-134.821 300-301.132V1.5H1.5z"/></g><g style="display:inline"><path style="fill:none;fill-opacity:1;stroke:#000;stroke-width:3;stroke-miterlimit:4;stroke-dasharray:none;stroke-opacity:1" d="M1.5 1.5v458.868c0 166.31 134.315 301.132 300 301.132s300-134.821 300-301.132V1.5H1.5z"/></g></svg>