<svg xmlns="http://www.w3.org/2000/svg" xmlns:xlink="http://www.w3.org/1999/xlink" height="763" width="603" version="1.0"><defs><radialGradient xlink:href="#a" id="b" gradientUnits="userSpaceOnUse" gradientTransform="matrix(1.21503 0 0 1.26667 -839.192 -490.49)" cx="858.042" cy="579.933" fx="858.042" fy="579.933" r="300"/><linearGradient id="a"><stop style="stop-color:#fff;stop-opacity:.3137255" offset="0"/><stop offset=".19" style="stop-color:#fff;stop-opacity:.25098041"/><stop style="stop-color:#6b6b6b;stop-opacity:.1254902" offset=".6"/><stop style="stop-color:#000;stop-opacity:.1254902" offset="1"/></linearGradient></defs><g style="display:inline"><path d="M1.5 1.5v458.868c0 166.31 134.315 301.132 300 301.132s300-134.822 300-301.132V1.5H1.5z" style="fill:#fce53c;fill-opacity:1"/></g><g style="display:inline"><path style="fill:#000;fill-opacity:1;stroke:#fce209;stroke-width:3;stroke-miterlimit:4;stroke-opacity:1;stroke-dasharray:none;display:inline" d="m260.564 485.215-88.051-87.967-31.566 33.928-.126-.126L19.219 561.757c14.867 41.338 38.465 78.5 68.519 109.274l172.826-185.816zM341.312 216.251l87.639 87.735L601.5 118.155V1.5h-61.103L395.2 157.908l.157.157-54.045 58.186z"/><path style="fill:#000;fill-opacity:1;stroke:#fce53c;stroke-width:3;stroke-miterlimit:4;stroke-opacity:1;stroke-dasharray:none;display:inline" d="M399.094 1.5h-168.75l178.844 192.438-.188.218 84.375 90.813.188-.219L601.5 400.906V219.562L398.937 1.656l.157-.156zM1.5 298.843v161.875c0 5.197.116 10.367.375 15.5.085 1.69.293 3.348.406 5.031l113.25 121.875-.187.219 84.375 90.812.187-.218 60.406 65c3.493.481 6.97.983 10.5 1.343 5.043.514 10.137.896 15.25 1.157 5.114.26 10.26.406 15.438.406 5.178 0 10.324-.146 15.438-.406 5.113-.26 10.207-.643 15.25-1.157a298.575 298.575 0 0 0 15-1.906 298.176 298.176 0 0 0 14.78-2.656 296.408 296.408 0 0 0 14.5-3.344 297.392 297.392 0 0 0 14.25-4.062 296.989 296.989 0 0 0 13.938-4.75c2.509-.922 4.961-1.951 7.438-2.938l-50.531-54.344-.125.125L105.28 410.843l.156-.156L1.5 298.843z"/><path style="fill:#000;fill-opacity:1;stroke:#fce53c;stroke-width:3;stroke-miterlimit:4;stroke-opacity:1;stroke-dasharray:none;display:inline" d="M204.78 1.5h168.75L194.686 193.938l.188.218-84.375 90.813-.188-.219L2.374 400.906V219.562L204.936 1.656l-.156-.156zM601.5 298.8v161.875c0 5.197-.115 10.367-.374 15.5-.085 1.69-.293 3.348-.406 5.031L487.47 603.081l.187.219-84.375 90.812-.187-.218-60.407 65c-3.493.481-6.97.984-10.5 1.343-5.042.514-10.136.896-15.25 1.157-5.113.26-10.26.406-15.437.406a303.72 303.72 0 0 1-15.438-.406 301.683 301.683 0 0 1-15.25-1.157 298.575 298.575 0 0 1-15-1.906 298.176 298.176 0 0 1-14.78-2.656 296.375 296.375 0 0 1-14.5-3.344 297.365 297.365 0 0 1-14.25-4.062 296.957 296.957 0 0 1-13.938-4.75c-2.509-.922-4.961-1.951-7.438-2.938l50.531-54.344.125.125L497.72 410.8l-.157-.156L601.501 298.8z"/><path style="fill:#000;fill-opacity:1;stroke:#fce53c;stroke-width:3;stroke-miterlimit:4;stroke-opacity:1;stroke-dasharray:none" d="M207.031 157.156 62.375 1.5H1.5v116.094l215.625 232-.188.219 84.375 90.812.188-.219 214.313 230.625c29.813-30.557 53.22-67.455 67.968-108.5L463.156 432.75l-.125.125-256.156-275.563.156-.156z"/><path style="fill:#000;fill-opacity:1;stroke:#fce209;stroke-width:3;stroke-miterlimit:4;stroke-opacity:1;stroke-dasharray:none;display:inline" d="m342.281 215.219-171 183.969 87.344 87.343 42.875-46.125.188.219 84.375-90.813-.188-.218 43.719-47.063-87.313-87.312z"/><path style="fill:#000;fill-opacity:1;stroke:none;display:inline" d="m354.898 273.548-33.906-33.906-171 183.968 27.437 27.438 177.469-177.5z"/><path style="fill:#000;fill-opacity:1;stroke:none;display:inline" d="m429.748 226.56-50-50-171 183.969 51.563 51.563 36.344-39.782.218.219 93.563-102.469-.219-.25 39.531-43.25z"/><path style="fill:#000;fill-opacity:1;stroke:none;display:inline" d="m225.063 372.723 71.281 71.281 42.875-46.125.187.219 84.375-90.813-.187-.218 43.719-47.063-64.063-64.062-178.187 176.781z"/><path style="fill:#000;fill-opacity:1;stroke:none;display:inline" d="m162.44 439.297 71.812 71.812 42.875-46.125.188.22 84.375-90.813-.188-.22 43.719-47.062-64.594-64.593-178.187 176.78z"/></g><g style="display:inline"><path style="fill:url(#b);fill-opacity:1" d="M1.5 1.5v458.868c0 166.31 134.315 301.132 300 301.132s300-134.821 300-301.132V1.5H1.5z"/></g><g style="display:inline"><path style="fill:none;stroke:#000;stroke-width:3;stroke-miterlimit:4;stroke-opacity:1;stroke-dasharray:none;display:inline" d="M1.5 1.5v458.868c0 166.31 134.315 301.132 300 301.132s300-134.821 300-301.132V1.5H1.5z"/></g></svg>