<svg width="540" height="672" xml:space="preserve" xmlns="http://www.w3.org/2000/svg"><g stroke="#000"><path d="M534.89 222.03c0 245.47-90.405 377.78-264.89 444.44C96.42 599.548 5.11 467.49 5.11 222.03V5.17h529.78z" fill="#1c63b7" stroke-width="10.2"/><g fill="#fcdb00" stroke-width="1.295"><path d="M385.56 153.35v-7.073h11.92v25.332h-11.92v-8.564h-7.83v40.115h58.693V54.46h-29.346v46.4h-22.361v-46.4h-67.357v19.192h19.192v19.19h-19.192v17.514h-37.736v55.623h29.347v37.176h53.11V163.04h-7.83v8.564h-11.92v-25.332h11.92v7.073h7.83V137.29h15.65v16.055z" stroke-width="5"/><g transform="translate(-1.314 -4.256) scale(3.8616)"><ellipse transform="translate(0 -.53)" cx="70.884" cy="106.8" rx="6.934" ry="6.707" stroke-linejoin="round"/><path d="M63.841 140.99c-.981-.268-2.324 0-3.084.73-.942.906-.942 2.519 0 3.424.71.683 1.754.85 2.628.502.518 4.673-12.885 3.7-17.322-5.848-1.128-2.428-1.726-4.751-1.726-7.06 0-6.103 6.698-10.203 13.22-7.216-.854-4.203-5.158-4.97-7.641-5.054 1.469-1.353 3.189-2.552 5.118-3.566 7.133-3.75 8.57-8.814 7.802-12.98-.38-2.062-2-3.567-4.185-3.567s-3.955 1.702-3.955 3.8c0 2.1 1.77 3.8 3.955 3.8 1.243 5.397-12.299.326-19.967 11.032-8.281 11.562 1.877 25.72 9.309 30.034 6.945 4.03 15.42 4.306 18.362 1.479 3.321-3.192 2.306-8.189-2.514-9.51zm38.788-22.003c-7.668-10.706-21.21-5.635-19.968-11.031 2.184 0 3.955-1.701 3.955-3.8 0-2.1-1.77-3.801-3.955-3.801-2.184 0-3.804 1.504-4.185 3.568-.768 4.164.67 9.229 7.803 12.979 1.929 1.014 3.649 2.213 5.117 3.566-2.482.085-6.787.85-7.64 5.054 6.522-2.987 13.22 1.113 13.22 7.215 0 2.31-.598 4.633-1.727 7.06-4.437 9.548-17.84 10.522-17.322 5.849.875.348 1.918.18 2.628-.502.942-.905.942-2.518 0-3.423-.76-.73-2.102-.999-3.084-.73-4.82 1.32-5.834 6.317-2.513 9.509 2.943 2.828 11.416 2.552 18.362-1.48 7.432-4.312 17.59-18.471 9.309-30.032z"/><path d="M74.753 133.38s2.612-4.101 7.56-7.09c0 0-5.113-1.982-8.385 2.641 1.684-5.457-2.291-6.65-3.27-8.377-.98 1.728-4.955 2.92-3.272 8.377-3.27-4.623-8.384-2.642-8.384-2.642 4.949 2.99 7.56 7.092 7.56 7.092-8.865-3.893-12.302 3.545-12.302 3.545 14.295-.903 16.398 11.576 16.398 11.576s2.424-12.589 16.398-11.576c0 0-3.437-7.438-12.302-3.545z"/><circle transform="translate(0 -.53)" cx="70.657" cy="154.5" r="4.536" stroke-linejoin="round"/><path d="M64.48 11.422h12.354V96.66H64.48z"/></g><path d="m232.79 345.48 6.237 11.073h-9.76s-5.267 3.345-5.267 7.3 5.266 7.3 5.266 7.3h9.76l-6.236 11.071h77.485l-6.236-11.071h9.76s5.266-4.3 5.266-7.3-5.266-7.3-5.266-7.3h-9.76l6.236-11.073h-38.742z" stroke-linecap="round" stroke-linejoin="round" stroke-width="5"/></g></g></svg>