<?xml version="1.0" encoding="UTF-8"?>
<svg width="620" height="773.85" xmlns="http://www.w3.org/2000/svg"><g stroke="#000">
<path d="M614.9 336.14H5.08c4.96 173.9 96.178 340.41 304.91 432.35 208.74-91.947 299.95-258.47 304.91-432.35z" fill="#f00000" stroke-width="5"/>
<path d="m5.004 5-.008 329.03c.017.707.066 1.41.086 2.117h609.82c.02-.706.069-1.41.086-2.117V5L5.008 4.998z" fill="#fff" stroke-width="5"/></g>
<g fill="#f00000" stroke="#000" stroke-width="5">
<path d="M614.9 336.14H5.08c4.96 173.9 96.178 340.41 304.91 432.35 208.74-91.947 299.95-258.47 304.91-432.35z"/>
<path d="M614.9 336.14H5.08c4.96 173.9 96.178 340.41 304.91 432.35 208.74-91.947 299.95-258.47 304.91-432.35z"/>
<path d="M5.008 4.998 5.004 5l-.002 99.533c11.563 13.744 18.41 28.932 25.143 44.186 7.097 16.029 14.078 31.924 26.68 46.168s27.528 23.108 42.572 32.105c15.044 8.998 29.97 17.864 42.572 32.107 12.602 14.244 19.63 30.192 26.68 46.168 4.653 10.509 9.41 20.913 15.58 30.879h233.54c-4.685-9.19-10.067-18.162-17.46-26.518-12.601-14.244-27.527-23.11-42.571-32.107-14.997-8.945-29.972-17.862-42.574-32.105-12.602-14.244-19.58-30.139-26.678-46.168-7.05-15.976-14.076-31.924-26.678-46.168s-27.53-23.11-42.574-32.107c-15.044-8.998-29.97-17.862-42.572-32.105-12.602-14.244-19.58-30.139-26.678-46.168-5.69-12.895-11.523-25.724-20.127-37.701H5.017z"/></g>
<path d="M184.23 336.14c3.241 5.237 6.758 10.388 11.1 15.295 12.602 14.244 27.575 23.161 42.572 32.105 15.044 8.998 29.972 17.864 42.574 32.107 12.602 14.244 19.628 30.192 26.678 46.168 7.097 16.029 14.076 31.924 26.678 46.168s27.577 23.161 42.574 32.105c15.044 8.998 29.97 17.864 42.572 32.107 12.602 14.244 19.628 30.192 26.678 46.168 6.893 15.568 13.775 30.981 25.705 44.906 43.638-41.44 76.633-88.181 99.92-138.15-1.987-4.232-3.896-8.494-5.791-12.773-7.05-15.975-14.078-31.924-26.68-46.168s-27.528-23.11-42.572-32.107c-14.997-8.944-29.97-17.862-42.572-32.105-12.602-14.244-19.582-30.139-26.68-46.168-2.915-6.606-5.918-13.178-9.22-19.656h-233.54z" fill="#fff" stroke="#000" stroke-width="5"/>
<path d="m5.007 5-.006 329.03c4.276 174.66 95.42 342.15 305 434.47 209.59-92.32 300.73-259.82 305-434.47V5z" fill="none" stroke="#000" stroke-width="10"/>
</svg>
