<svg width="600" height="747" viewBox="0 0 158.76 197.64" xmlns="http://www.w3.org/2000/svg"><path d="M157.26 64.053c0 72.167-26.579 112.27-77.876 131.87-51.03-19.675-77.877-59.701-77.877-131.87V1.498h155.75z" fill="#1c63b7"/><path d="M1.502 1.498V29.4l59.333 59.334-46.716 46.716c3.734 8.732 8.301 16.577 13.694 23.6l51.67-51.67 51.668 51.67c5.394-7.023 9.96-14.869 13.694-23.6L98.13 88.733 157.462 29.4V1.499h-9.393L79.483 70.086 10.897 1.5H1.503z" fill="#fff" stroke="#000" stroke-width="1.6"/><path d="M157.25 64.053c0 72.166-26.578 112.26-77.875 131.86-51.03-19.675-77.876-59.7-77.876-131.86V1.498h155.75z" fill="none" stroke="#000" stroke-width="3"/></svg>