<svg xmlns="http://www.w3.org/2000/svg" xmlns:xlink="http://www.w3.org/1999/xlink" height="763" width="603" version="1.0"><defs><radialGradient xlink:href="#a" id="b" gradientUnits="userSpaceOnUse" gradientTransform="matrix(1.21503 0 0 1.26667 -839.192 -490.49)" cx="858.042" cy="579.933" fx="858.042" fy="579.933" r="300"/><linearGradient id="a"><stop style="stop-color:#fff;stop-opacity:.3137255" offset="0"/><stop offset=".19" style="stop-color:#fff;stop-opacity:.25098041"/><stop style="stop-color:#6b6b6b;stop-opacity:.1254902" offset=".6"/><stop style="stop-color:#000;stop-opacity:.1254902" offset="1"/></linearGradient></defs><g style="opacity:1;display:inline"><path d="M1.5 1.5v458.872c0 166.311 134.314 301.131 300 301.131 165.688 0 300-134.82 300-301.131V1.5H1.5z" style="opacity:1;fill:#fff;display:inline"/><path d="M301.496 761.496c165.688 0 300-134.82 300-301.131V1.5h-300v759.996z" style="opacity:1;fill:#e20909;display:inline"/></g><g style="opacity:1;display:inline"><path style="fill:none;stroke:#000;stroke-width:3" d="M301.496 1.5v759.996"/><path transform="translate(-.038 -.048)" style="fill:#fcef3c;stroke:#000;stroke-width:3;stroke-linecap:round;stroke-linejoin:round" d="M412.065 473.292H191.009l-90.901 35.852 107.198 23.902h188.463l107.197-23.902-90.901-35.852z"/><path style="fill:#fcef3c;stroke:#000;stroke-width:3;stroke-linecap:round;stroke-linejoin:round" d="M508.049 508.723a4.345 4.345 0 0 0-5.141-3.369s-107.025 21.669-107.896 21.851H207.985c-.87-.182-107.896-21.851-107.896-21.851a4.347 4.347 0 0 0-1.772 8.51l108.334 21.941c.292.061.588.091.886.091H395.46c.298 0 .594-.03.886-.091l108.334-21.941a4.347 4.347 0 0 0 3.369-5.141zM453.487 335.806c-21.548-13.218-71.525-37.624-151.991-37.624-80.466 0-130.444 24.405-151.992 37.624-19.012 11.663-26.255 13.219-36.758 13.219l.687 16.297c37.973-13.309 41.232-29.878 89.037-45.088 36.535-11.625 70.286-14.362 87.816-15.009 0 23.83-13.484 32.936-13.484 32.936h49.39s-13.483-9.106-13.484-32.936c17.53.646 51.281 3.384 87.816 15.009 47.805 15.21 51.063 31.779 89.037 45.088l.687-16.297c-10.505 0-17.749-1.556-36.761-13.219z"/><path d="M528.496 205.251c-15.844 18.832-37.572 22.363-45.449 42.19-7.413 18.661-2.444 46.718 8.148 62.2-10.593-15.482-27.705-41.829-41.285-41.829-16.297 0-17.384 25.803-8.692 42.372 8.692 16.568 13.038 19.104 13.038 19.104s2.173-15.753 13.037-15.753c10.865 0 17.927 12.132 17.927 20.823 0 8.692-7.605 15.482-12.766 10.321 0 0 1.357 15.21 17.111 20.643 15.754 5.432 19.285-6.519 19.285-6.519v-42.915c.001-64.916 15.889-91.126 19.646-110.637z" style="fill:#fcef3c;stroke:#000;stroke-width:3;stroke-linecap:round;stroke-linejoin:round"/><path d="M452.626 311.814c0-2.444-5.284-12.61 3.531-18.198 6.111-3.874 10.593 3.531 10.593 3.531" style="fill:none;stroke:#000;stroke-width:3;stroke-linecap:round;stroke-linejoin:round"/><ellipse transform="translate(-.038 -.048)" ry="23.811" rx="10.593" cy="330.966" cx="508.888" style="fill:#5ab532;stroke:#000;stroke-width:3;stroke-linecap:round;stroke-linejoin:round"/><path d="M359.108 227.399c-18.47 0-25.124 13.801-32.549 26.039-1.709 2.818-8.691 3.217-8.691-6.432 0-11.792 20.643-33.588 20.643-54.312 0-8.933-5.069-20.368-19.918-35.017-14.848-14.65-13.762-36.446-17.093-36.446-3.331 0-2.245 21.796-17.093 36.446-14.848 14.649-19.918 26.084-19.918 35.017 0 20.724 20.643 42.52 20.643 54.312 0 9.648-6.982 9.25-8.691 6.432-7.424-12.238-14.079-26.039-32.549-26.039s-33.544 12.64-33.544 29.255c0 18.401 17.746 33.409 21.729 45.737 5.794-17.152 12.857-26.442 25.532-26.442 12.674 0 18.107 10.185 18.107 17.33 0 9.47-11.951 25.548-22.816 18.223 3.079 13.042 12.132 23.762 23.902 23.762 11.77 0 20.605-9.827 24.698-18.581 4.094 8.754 12.929 18.581 24.698 18.581 11.771 0 20.823-10.72 23.901-23.762-10.864 7.325-22.815-8.753-22.815-18.223 0-7.146 5.434-17.33 18.108-17.33s19.736 9.291 25.531 26.442c3.983-12.328 21.729-27.336 21.729-45.737 0-16.616-15.075-29.255-33.544-29.255z" style="fill:#fcef3c;stroke:#000;stroke-width:3;stroke-linecap:round;stroke-linejoin:round"/><path style="fill:none;stroke:#000;stroke-width:3;stroke-linecap:round;stroke-linejoin:round" d="M301.499 316.683V158.035M231.532 285.418c0-4.288-6.915-15.658 2.173-25.905 9.507-10.72 24.038-.223 27.162.983M371.466 285.418c0-4.288 6.915-15.658-2.173-25.905-9.506-10.72-24.037-.223-27.161.983"/><ellipse transform="translate(-.038 -.048)" ry="27.871" rx="16.135" cy="282.786" cx="301.537" style="fill:#2b5df2;stroke:#000;stroke-width:3;stroke-linecap:round;stroke-linejoin:round"/><path d="M74.502 205.251c15.844 18.832 37.573 22.363 45.45 42.19 7.413 18.661 2.445 46.718-8.148 62.2 10.593-15.482 27.705-41.829 41.286-41.829 16.297 0 17.383 25.803 8.691 42.372-8.691 16.568-13.038 19.104-13.038 19.104s-2.173-15.753-13.037-15.753c-10.865 0-17.927 12.132-17.927 20.823 0 8.692 7.605 15.482 12.766 10.321 0 0-1.358 15.21-17.112 20.643-15.754 5.432-19.285-6.519-19.285-6.519v-42.915c0-64.916-15.89-91.126-19.646-110.637z" style="fill:#fcef3c;stroke:#000;stroke-width:3;stroke-linecap:round;stroke-linejoin:round"/><path d="M150.372 311.814c0-2.444 5.284-12.61-3.531-18.198-6.111-3.874-10.593 3.531-10.593 3.531" style="fill:none;stroke:#000;stroke-width:3;stroke-linecap:round;stroke-linejoin:round"/><ellipse transform="translate(-.038 -.048)" ry="23.811" rx="10.593" cy="330.966" cx="94.186" style="fill:#5ab532;stroke:#000;stroke-width:3;stroke-linecap:round;stroke-linejoin:round"/><path transform="translate(-.038 -.048)" style="fill:#fcef3c;stroke:#000;stroke-width:3;stroke-linecap:round;stroke-linejoin:round" d="M411.153 344.184H191.914l-94.522 36.397v125.485l94.522-36.397h219.239l94.523 36.397V380.581l-94.523-36.397z"/><path style="fill:#fcef3c;stroke:#000;stroke-width:3;stroke-linecap:round;stroke-linejoin:round" d="M191.876 467.449c-.667 0-1.329.123-1.952.363l-92.57 35.645a5.432 5.432 0 1 0 3.905 10.138l91.627-35.281h217.227l91.621 35.279a5.432 5.432 0 0 0 3.904-10.139l-92.563-35.642a5.431 5.431 0 0 0-1.952-.363H191.876h0zM191.876 335.264c-.667 0-1.329.123-1.952.363l-98.868 38.069a5.433 5.433 0 0 0 3.904 10.139l97.925-37.707h217.227l97.925 37.707a5.432 5.432 0 1 0 3.904-10.139l-98.867-38.069a5.431 5.431 0 0 0-1.952-.363H191.876z"/><path style="fill:none;stroke:#000;stroke-width:3;stroke-linecap:round;stroke-linejoin:round" d="M207.517 359.777h187.958v94.204H207.517z"/><path transform="translate(-.038 -.048)" style="fill:none;stroke:#000;stroke-width:3;stroke-linecap:round;stroke-linejoin:round" d="m178.824 457.333-68.342 26.315v-90.73l68.342-26.316v90.731zM424.25 457.333l68.342 26.315v-90.73l-68.342-26.316v90.731z"/><path style="fill:none;stroke:#000;stroke-width:3;stroke-linecap:round;stroke-linejoin:round" d="M191.876 467.449V346.517M411.115 467.449V346.514M190.735 335.389s-3.205 5.307 1.141 10.739M412.263 335.389s3.205 5.307-1.141 10.739M410.91 478.621s4.558-5.74.212-11.173M206.651 535.805s3.136-3.471 1.334-8.601M396.341 535.805s-3.136-3.471-1.334-8.601M192.082 478.621s-4.558-5.74-.212-11.173M207.985 527.204v-48.89M395.013 527.204v-48.89"/><path d="M152.226 421.391c0-11.495-3.387-19.53-7.565-17.947-4.178 1.583-7.565 12.185-7.565 23.679 0 11.497 3.387 19.533 7.565 17.95 4.177-1.583 7.565-12.186 7.565-23.682z" style="fill:#2b5df2;stroke:#000;stroke-width:3;stroke-linecap:round;stroke-linejoin:round"/><path transform="translate(-.038 -.048)" style="fill:#5ab532;stroke:#000;stroke-width:3;stroke-linecap:round;stroke-linejoin:round" d="m120.613 398.863-4.329 13.553 4.329 10.27 4.329-13.552-4.329-10.271zM168.786 380.611l4.329 10.27-4.329 13.552-4.33-10.271 4.33-13.551zM120.613 467.998l-4.329-10.271 4.329-13.549 4.329 10.27-4.329 13.55zM168.786 449.746l4.329-13.551-4.329-10.269-4.33 13.549 4.33 10.271z"/><circle transform="translate(-.038 -.048)" r="22.374" cy="406.927" cx="301.534" style="fill:#2b5df2;stroke:#000;stroke-width:3;stroke-linecap:round;stroke-linejoin:round"/><path transform="rotate(-45)" style="fill:#5ab532;stroke:#000;stroke-width:2.99997115;stroke-linecap:round;stroke-linejoin:round" d="M-116.704 424.242h18.107v18.108h-18.107z"/><path transform="rotate(-135)" style="fill:#5ab532;stroke:#000;stroke-width:2.99997115;stroke-linecap:round;stroke-linejoin:round" d="M-543.112-15.973h18.107V2.134h-18.107z"/><path transform="rotate(45)" style="fill:#5ab532;stroke:#000;stroke-width:2.99997115;stroke-linecap:round;stroke-linejoin:round" d="M458.702 133.044h18.108v18.107h-18.108z"/><path transform="rotate(135)" style="fill:#5ab532;stroke:#000;stroke-width:2.99997115;stroke-linecap:round;stroke-linejoin:round" d="M32.292-577.534H50.4v18.106H32.292z"/><path d="M450.773 421.391c0-11.495 3.387-19.53 7.564-17.947 4.179 1.583 7.565 12.185 7.565 23.679 0 11.497-3.387 19.533-7.565 17.95-4.178-1.583-7.564-12.186-7.564-23.682z" style="fill:#2b5df2;stroke:#000;stroke-width:3;stroke-linecap:round;stroke-linejoin:round"/><path transform="translate(-.038 -.048)" style="fill:#5ab532;stroke:#000;stroke-width:3;stroke-linecap:round;stroke-linejoin:round" d="m482.461 398.863 4.329 13.553-4.329 10.27-4.33-13.552 4.33-10.271zM434.289 380.611l-4.33 10.27 4.33 13.552 4.328-10.271-4.328-13.551zM482.461 467.998l4.329-10.271-4.329-13.549-4.33 10.27 4.33 13.55zM434.289 449.746l-4.33-13.551 4.33-10.269 4.328 13.549-4.328 10.271z"/></g><g style="display:inline"><path style="fill:url(#b);fill-opacity:1" d="M1.5 1.5v458.868c0 166.31 134.315 301.132 300 301.132s300-134.821 300-301.132V1.5H1.5z"/></g><g style="display:inline"><path style="fill:none;fill-opacity:1;stroke:#000;stroke-width:3;stroke-miterlimit:4;stroke-dasharray:none;stroke-opacity:1" d="M1.5 1.5v458.868c0 166.31 134.315 301.132 300 301.132s300-134.821 300-301.132V1.5H1.5z"/></g></svg>