<svg width="500" height="600.1" version="1.0" xml:space="preserve" xmlns="http://www.w3.org/2000/svg"><path d="M4 4v280c20 260 236 310 246 312 10-2 226-52 246-312V4z" fill="#1c63b7"/><path d="M298.7 301.5a81.128 81.128 0 0 1-22.24 23.28c-10.17 7.077-22.13 11.8-34.5 12.5-4.622.26-9.377-.019-13.75 1.5a17.566 17.566 0 0 0-8.75 6.75 26.47 26.47 0 0 0-7.191-4.478c-6.027-2.518-13.06-2.678-19.09-.177-6.321 2.62-11.15 7.823-15.73 12.9-5.289 5.866-10.61 11.84-17.15 16.26-7.723 5.224-17.02 8.093-26.34 8.132a31.94 31.94 0 0 0 9.878 3.48c8.801 1.543 18.05-.754 25.62-5.5 5.242-3.286 9.709-7.663 14.75-11.25a58.786 58.786 0 0 1 11.5-6.375 26.106 26.106 0 0 0-8.6 4.44c-2.659 2.078-4.902 4.672-6.65 7.56-3.333 5.508-4.896 12.08-9.027 17.01-3.491 4.174-8.715 6.851-14.14 7.248a10.343 10.343 0 0 0 5.169 2.238c2.486.328 5.035-.273 7.289-1.372s4.241-2.679 6.086-4.378c4.318-3.975 7.938-8.639 12-12.88 2.905-3.03 6.121-5.896 10-7.5a18.595 18.595 0 0 1 6-1.375 49.297 49.297 0 0 0 2.5 21.75c2.008 5.706 5.042 10.98 7.702 16.42 2.059 4.206 3.921 8.602 4.419 13.26.694 6.48-1.325 13-4.419 18.74-5.508 10.21-14.28 18.26-23.51 25.28-1.884 1.431-3.805 2.834-5.922 3.89-1.22.608-2.512 1.1-3.862 1.293-1.35.193-2.765.072-4.004-.498-1.125-.518-2.055-1.377-2.902-2.28-.847-.903-1.636-1.867-2.578-2.669a10.364 10.364 0 0 0-6.228-2.44 10.369 10.369 0 0 0-6.411 1.91 83.98 83.98 0 0 0 1.593-7.273c.808-4.667 1.189-9.625-.625-14-1.86-4.485-5.968-7.878-10.62-9.25a18.322 18.322 0 0 0-8.125-.5 15.12 15.12 0 0 1 3 5c.348.965.597 1.972.649 2.997.052 1.025-.1 2.07-.524 3.003-.388.854-.99 1.591-1.623 2.282-.634.691-1.308 1.348-1.877 2.093a9.585 9.585 0 0 0-1.932 5.076 9.437 9.437 0 0 0 1.182 5.3 9.376 9.376 0 0 0 4.5 4 6.778 6.778 0 0 1-4.508-1.469c-1.375-1.103-2.256-2.692-3.094-4.243-.964-1.786-1.92-3.585-3.112-5.228-1.192-1.643-2.637-3.136-4.401-4.14-2.298-1.31-5.049-1.724-7.673-1.392-2.624.332-5.125 1.38-7.353 2.805a23.097 23.097 0 0 0-5.303 4.685 13.289 13.289 0 0 1 5.038.265c3.395.846 6.371 3.045 8.485 5.834 1.294 1.707 2.284 3.624 3.182 5.568.691 1.496 1.335 3.022 2.21 4.42.9 1.44 2.041 2.73 3.359 3.8a49.203 49.203 0 0 1 .003 0c-2.419.047-4.859.278-7.157 1.035-2.298.758-4.459 2.077-5.924 4.003-1.159 1.524-1.845 3.384-2.067 5.285-.222 1.901.01 3.843.565 5.675.276.913.631 1.801 1.06 2.652a9.42 9.42 0 0 1 5.569-3.744c2.458-.559 5.099-.082 7.312 1.125 2.078 1.133 3.795 2.871 5.938 3.875 1.92.9 4.093 1.16 6.208 1.03 2.116-.132 4.19-.64 6.229-1.217 2.368-.67 4.733-1.444 7.188-1.625a15.18 15.18 0 0 1 5.125.5 7.787 7.787 0 0 0 .25 6c.605 1.277 1.552 2.364 2.594 3.318s2.186 1.79 3.28 2.682c1.17.954 2.298 1.988 3.126 3.25 1.365 2.081 1.82 4.637 1.875 7.125a25.245 25.245 0 0 1-1.5 9.125 44.669 44.669 0 0 0 8.75-3.5c2.087-1.103 4.12-2.402 5.636-4.212.757-.905 1.377-1.933 1.76-3.049s.529-2.322.354-3.489c-.058-.382-.149-.762-.164-1.149-.014-.386.055-.792.289-1.1.223-.297.572-.473.926-.585.353-.113.722-.172 1.074-.29a3.758 3.758 0 0 0 1.696-1.205c.442-.546.742-1.2.91-1.882.333-1.365.14-2.808-.23-4.163a16.378 16.378 0 0 0-1.376-3.438 8.158 8.158 0 0 0 3.89 2.237 8.158 8.158 0 0 0 4.484-.174c2.29-.758 4.14-2.51 5.5-4.5a17.577 17.577 0 0 0 1.875-3.562 13.972 13.972 0 0 0-2.375 7.812 13.952 13.952 0 0 0 2 7.125 81.908 81.908 0 0 0 4.5-3.25c3.935-3.05 7.638-6.512 10.25-10.75a27.92 27.92 0 0 0 4.006-11.93 17.7 17.7 0 0 0-.888 4.779 17.774 17.774 0 0 0 2.007 9.026 33.118 33.118 0 0 0 6.062-4.688c6.062-5.928 9.706-14.26 9.942-22.74-.563 3.144.494 6.534 2.745 8.8a10.03 10.03 0 0 0 4.125 2.5 8.73 8.73 0 0 0 1.5-3.875c.24-1.862-.128-3.752 0-5.625.15-2.208.995-4.34 2.254-6.16 1.259-1.82 2.919-3.34 4.746-4.59 3.494-2.39 7.653-3.864 10.64-6.864 2.694-2.705 4.179-6.458 4.596-10.25.341-3.108-.004-6.32-1.237-9.192-1.365-3.181-3.752-5.84-5.127-9.016-2.087-4.825-1.646-10.3-1.768-15.56a69.153 69.153 0 0 0-7.058-28.82 70.47 70.47 0 0 0 8.296 1.422c6.305.696 12.74.529 18.91-.969a44.889 44.889 0 0 0 20.85-11.64" fill="#fcdb00" stroke="#000" stroke-linecap="round" stroke-linejoin="round" stroke-width="4"/><g stroke="#000" stroke-width="4"><path d="M206.6 199.5a111.672 111.672 0 0 1-16.65 1.712c-5.895.161-11.8-.146-17.66-.83a137.788 137.788 0 0 1-37.77-9.997l-7.8 29.11a35.727 35.727 0 0 0 15.51 7.711c5.554 1.215 11.41 1.07 16.88-.5a33.434 33.434 0 0 0 6.25-2.5 84.414 84.414 0 0 1-6.25 2.5 24.234 24.234 0 0 0 10.25 8.75 24.292 24.292 0 0 0 14.12 1.75 24.243 24.243 0 0 0-1.64.233 56.657 56.657 0 0 0 8.89 3.517c10.27 3.091 21.43 3.182 31.75.258" fill="#fcdb00" stroke-linecap="round" stroke-linejoin="round"/><g transform="rotate(17.11 -105.6 1289)" fill="#fff"><path d="M-190.5 151.2-195 28.3l-6.109-10.58-6.109 10.58-4.5 122.8M-209.9 158.4v49.02h17.43V158.4"/><path d="M-220.775 155.153c-5.577-2.4-10.688-5.824-15.214-9.874-1.167-1.045-2.33-2.18-2.91-3.635a5.208 5.208 0 0 1-.309-2.799 4.612 4.612 0 0 1 1.288-2.492 4.345 4.345 0 0 1 2.379-1.19 4.302 4.302 0 0 1 2.621.442c.72.377 1.313.95 1.901 1.509 3.54 3.361 7.32 6.527 11.61 8.865 5.519 3.002 11.805 4.55 18.083 4.565 6.334.012 12.677-1.537 18.243-4.566 4.289-2.334 8.067-5.5 11.612-8.864.588-.56 1.182-1.132 1.9-1.51a4.307 4.307 0 0 1 2.623-.44 4.35 4.35 0 0 1 2.379 1.189 4.615 4.615 0 0 1 1.288 2.492 5.21 5.21 0 0 1-.308 2.798c-.58 1.455-1.742 2.59-2.909 3.636-4.522 4.052-9.632 7.475-15.212 9.878a49.591 49.591 0 0 1-19.537 4.031 49.525 49.525 0 0 1-19.53-4.028z"/><ellipse cx="-201.1" cy="210.7" rx="12.4" ry="4.616" stroke-linecap="round" stroke-linejoin="round" style="paint-order:normal"/></g><path d="M172.7 203.6a18.018 18.018 0 0 0-4.214-5.354c-3.292-2.848-7.648-4.436-12-4.375a9.578 9.578 0 0 0-.75-3.25c-.937-2.203-2.676-3.984-4.625-5.375-2.828-2.018-6.273-3.325-9.739-3.088-1.733.119-3.447.626-4.926 1.537-1.479.91-2.716 2.231-3.459 3.801a8.383 8.383 0 0 0-.75 2.625 18.336 18.336 0 0 1 3.161-.21c1.085.021 2.177.142 3.208.481 1.031.34 2.002.908 2.714 1.728.863.996 1.295 2.296 1.528 3.593.233 1.297.287 2.62.505 3.92.28 1.677.863 3.356 2.009 4.613.98 1.075 2.302 1.77 3.625 2.375a43.207 43.207 0 0 0 5.25 2" fill="#fcdb00" stroke-linecap="round" stroke-linejoin="round" style="paint-order:normal"/><path d="M113.7 179.8c-.969 2.775-1 5.868-.088 8.662a22.297 22.297 0 0 1 3.27 3.094c1.614 1.869 2.935 4.024 4.86 5.568 2.215 1.776 5.12 2.606 7.956 2.475a13.371 13.371 0 0 0 8.22-3.359 8.69 8.69 0 0 1-3.536-1.591c-.966-.733-1.787-1.692-2.21-2.828-.592-1.591-.36-3.36-.62-5.038-.176-1.148-.585-2.255-1.148-3.27-.94-1.697-2.303-3.134-3.827-4.335s-3.212-2.176-4.924-3.09a86.355 86.355 0 0 0-4.066-2.033 13.605 13.605 0 0 0-3.89 5.745z" fill="#fcdb00" stroke-linejoin="round"/><path d="M106.2 196.7c.137-1.972.946-3.89 2.262-5.365s3.131-2.496 5.074-2.855c1.205.9 2.304 1.941 3.27 3.094 1.373 1.639 2.488 3.515 4.109 4.909 1.46 1.256 3.254 2.05 5.043 2.764 2.238.893 4.54 1.694 6.935 1.961 1.979.22 3.998.07 5.922-.442a10.763 10.763 0 0 1-1.768 3.977c-1.053 1.468-2.469 2.654-4.027 3.57-1.558.916-3.257 1.57-4.988 2.087-1.279.382-2.585.693-3.916.797-1.331.103-2.69-.005-3.951-.443-1.305-.454-2.466-1.244-3.541-2.112s-2.08-1.821-3.176-2.661a19.69 19.69 0 0 0-5.127-2.828 9.096 9.096 0 0 1-2.121-6.452z" fill="#fcdb00" stroke-linejoin="round"/><path d="M105.4 211.8c-.319-1.578-.21-3.241.311-4.764s1.456-2.903 2.675-3.955a18.013 18.013 0 0 1 5.127 2.828c1.084.856 2.068 1.835 3.175 2.661 1.334.994 2.832 1.754 4.382 2.354 1.914.74 3.923 1.244 5.966 1.438a20.386 20.386 0 0 0 8.131-.884 4.876 4.876 0 0 1-.088 3.89c-.342.728-.864 1.362-1.464 1.898-.6.536-1.279.977-1.976 1.38-3.235 1.862-6.98 2.902-10.71 2.71-3.06-.16-6.038-1.134-8.773-2.517a30.55 30.55 0 0 1-4.889-3.085 9.182 9.182 0 0 1-1.867-3.953z" fill="#fcdb00" stroke-linejoin="round"/></g><path d="M346.1 201.2c-.529 6.225-.87 12.47-1.021 18.71-.21 8.655-.057 17.32-.34 25.97-.283 8.658-1.002 17.33-.34 25.97.654 8.543 2.714 17.09 7.03 24.5 5.717 9.797 15.53 17.27 26.65 19.51 8.915 1.796 18.36.239 26.54-3.742 2.01-.979 3.964-2.108 5.65-3.574 1.688-1.466 3.107-3.286 3.877-5.385.725-1.977.853-4.154.48-6.227s-1.236-4.044-2.408-5.794c-2.983-4.453-8.046-7.432-13.38-7.938-4.8-.455-9.793 1.089-13.38 4.309a16.787 16.787 0 0 0-4.65 7.031 12.824 12.824 0 0 1-1.134-8.619c.75-3.384 2.9-6.372 5.665-8.461 2.765-2.089 6.113-3.322 9.531-3.9a28.418 28.418 0 0 1 8.732-.113 28.2 28.2 0 0 1-8.505-2.041c-7.354-3.037-13.34-9.445-15.42-17.12-1.71-6.306-.751-13.27 2.495-18.94a25.665 25.665 0 0 1 4.763-6.01 24.904 24.904 0 0 0 .227 8.959c1.12 5.34 4.035 10.26 8.052 13.95 6.303 5.794 14.83 8.387 22.23 12.7 5.37 3.134 10.32 7.396 12.93 13.04 2.099 4.546 2.518 9.956.616 14.59a15.948 15.948 0 0 1-1.863 3.33 60.267 60.267 0 0 0 8.505-27.44c.519-8.841-.971-17.85-4.763-25.86a47.565 47.565 0 0 0-5.897-9.413c-7.053 1.59-14.79-.216-20.41-4.763-2.17-1.756-4.04-3.904-5.352-6.367-1.314-2.463-2.061-5.244-2.02-8.035a15.114 15.114 0 0 1 2.269-7.712 76.22 76.22 0 0 0 5.784 6.124c2.447 2.32 5.08 4.498 8.108 5.983 3.027 1.485 6.496 2.24 9.81 1.616a12.538 12.538 0 0 0 6.35-3.29c-3.881.737-7.958.42-11.68-.907-6.01-2.142-10.92-6.859-13.95-12.47-3.177-5.89-4.373-13.04-2.267-19.39a20.463 20.463 0 0 1 6.804-9.639 35.156 35.156 0 0 0 3.402 13.72c3.24 6.776 8.732 12.46 15.42 15.88a34.092 34.092 0 0 0 11.79 3.516c-8.644-5.528-15.26-14.15-18.37-23.93-2.913-9.166-2.736-19.28.453-28.35 2.77-7.878 7.781-14.95 14.29-20.19a45.224 45.224 0 0 1 12.59-7.144c-6.747 5.682-11.63 13.55-13.72 22.11-1.973 8.067-1.475 16.73 1.474 24.5 1.685 4.437 4.182 8.612 7.598 11.91 1.523 1.47 3.215 2.754 4.763 4.196a31.55 31.55 0 0 1 6.351 8.28 27.688 27.688 0 0 0-6.795-8.686c-1.459-1.244-3.058-2.344-4.318-3.789-1.379-1.58-2.303-3.527-2.84-5.555-.539-2.028-.702-4.14-.675-6.239.025-1.939.21-3.877.567-5.784a32.636 32.636 0 0 1 1.696-5.914c-.11 4.703 1.582 9.426 4.65 12.99 2.77 3.217 6.527 5.435 9.463 8.5 4.942 5.158 7.225 12.43 7.538 19.57.308 7.031-1.24 14.29-5.292 20.05a25.971 25.971 0 0 1-9.462 8.18 208.384 208.384 0 0 1 2.887 20.21c.482 5.175.769 10.42 0 15.56-1.487 9.94-6.816 18.89-12.83 26.94-7.54 10.1-16.47 19.37-27.34 25.74-7.887 4.624-16.84 7.673-25.98 7.777-6.542.075-13.07-1.36-19.09-3.929a52.684 52.684 0 0 1-9.364-5.18 57.519 57.519 0 0 1 9.526 11.11c3.62 5.518 6.255 11.61 9.299 17.46 2.73 5.252 5.847 10.39 10.09 14.52 6.926 6.728 16.32 10.27 23.99 16.13 3.133 2.395 6.007 5.223 7.939 8.66 3.28 5.838 3.566 12.95 2.435 19.55a50.239 50.239 0 0 1-1.644 6.748 16.721 16.721 0 0 1-5.826-4.478c-.972-1.17-1.778-2.468-2.706-3.673a22.878 22.878 0 0 0-4.848-4.672c6.149 4.81 10.52 11.84 12.11 19.49.765 3.684.902 7.497.4 11.23a5.667 5.667 0 0 0-1.697-2.338 5.664 5.664 0 0 0-2.633-1.19 5.67 5.67 0 0 0-3.021.325c5.504 6.922 7.305 16.63 4.65 25.06a27.235 27.235 0 0 1-4.196 8.165 43.08 43.08 0 0 0-5.783-13.949 70.811 70.811 0 0 1-1.814 16.33c-.802 3.467-1.93 6.993-4.31 9.64-1.372 1.526-3.098 2.687-4.62 4.066-.761.69-1.476 1.438-2.048 2.291-.573.853-1.001 1.813-1.156 2.83-.251 1.644.22 3.342-.073 4.981-.21 1.17-.816 2.262-1.693 3.064s-2.017 1.308-3.199 1.427c-.774.079-1.555-.005-2.331-.056-.777-.051-1.569-.068-2.32.137a4.558 4.558 0 0 0-1.804.998 6.155 6.155 0 0 0-1.28 1.627c-.673 1.213-.992 2.586-1.247 3.95a49.345 49.345 0 0 0-.722 5.693 23.217 23.217 0 0 1-7.538-13.23c-.677-3.713-.428-7.564.481-11.23a31.866 31.866 0 0 1 3.288-8.179c-5.068 5.328-7.706 12.88-7.057 20.21.142 1.596.43 3.175.58 4.77.15 1.595.156 3.225-.259 4.773-.403 1.505-1.21 2.906-2.34 3.978s-2.587 1.807-4.128 2.037c-1.226.183-2.474.052-3.712-.003-1.238-.054-2.517-.024-3.659.457-1.289.543-2.3 1.63-2.936 2.878-.635 1.247-.919 2.646-1.033 4.04a18.062 18.062 0 0 0 .728 6.742 10.28 10.28 0 0 1-4.972-.802c-1.805-.782-3.366-2.087-4.526-3.676-1.159-1.589-1.92-3.454-2.29-5.385-.872-4.556.428-9.276 2.406-13.47 1.085-2.302 2.388-4.523 4.09-6.415a18.89 18.89 0 0 1 6.255-4.571 21.292 21.292 0 0 0-7.204 5.711 21.238 21.238 0 0 0-3.14 5.275 10.527 10.527 0 0 1-7.538.802c-1.868-.51-3.576-1.545-4.972-2.887-.44-.424-.852-.878-1.3-1.293-.45-.415-.944-.792-1.506-1.033a4.1 4.1 0 0 0-1.885-.303 5.31 5.31 0 0 0-1.853.49c-1.167.538-2.138 1.424-2.998 2.379a20.28 20.28 0 0 0-3.769 6.076 30.785 30.785 0 0 1-.907-7.485c.007-3.139.51-6.311 1.812-9.167s3.447-5.38 6.232-6.826c3.443-1.786 7.557-1.804 11.37-1.075.856.164 1.706.363 2.573.446a9.713 9.713 0 0 0 3.862-.414c-2.815.803-5.934.485-8.529-.872s-4.637-3.735-5.584-6.505c-.6-1.756-.774-3.642-1.443-5.373-.402-1.04-.986-2.018-1.759-2.822-.773-.804-1.74-1.432-2.81-1.748a5.877 5.877 0 0 0-4.586.562 18.374 18.374 0 0 1 8.846-7.938c2.05-.865 4.3-1.351 6.508-1.088 2.21.263 4.37 1.334 5.683 3.129 1.173 1.604 1.592 3.62 2.382 5.443 1.03 2.376 2.752 4.48 4.99 5.784 1.704.992 3.71 1.507 5.67 1.304a8.347 8.347 0 0 0 4.667-2.064 5.69 5.69 0 0 1 .211-3.312 5.693 5.693 0 0 1 2.034-2.622c.8-.562 1.736-.91 2.695-1.096.96-.187 1.942-.218 2.92-.187 1.711.054 3.415.297 5.13.309 1.712.01 3.474-.227 4.968-1.064 1.34-.75 2.388-1.945 3.171-3.264.784-1.32 1.32-2.77 1.818-4.22 2.557-7.432 4.274-15.32 3.402-23.13a37.004 37.004 0 0 0-2.04-8.62c-1.57-4.28-3.91-8.27-6.805-11.79-5.596-6.812-13.1-11.76-20.64-16.33-5.579-3.381-11.37-6.727-15.5-11.78-1.792-2.195-3.219-4.66-4.828-6.993a54.02 54.02 0 0 0-4.764-5.964 128.888 128.888 0 0 1 6.736 8.66c1.256 1.765 2.47 3.564 3.528 5.453 2.44 4.347 4.048 9.165 4.651 14.11 1.01 8.288-.85 16.83-4.794 24.19a45.436 45.436 0 0 1-5.897 8.505c.45-1.731.866-3.47 1.247-5.217 1.753-8.016 2.776-16.42.794-24.38a33.259 33.259 0 0 0-2.577-6.941 65.035 65.035 0 0 1 1.443 8.66c.521 5.318.344 10.88-1.925 15.72-2.708 5.777-8.074 9.858-13.63 12.99-3.629 2.045-7.432 3.795-10.91 6.094a40.674 40.674 0 0 0-7.217 6.094 61.384 61.384 0 0 1 8.18-13.15c3.45-4.241 7.516-8.091 9.942-12.99 1.9-3.836 2.697-8.177 2.531-12.45-.166-4.277-1.276-8.492-3.012-12.4-1.913-4.313-4.589-8.308-5.934-12.83a23.347 23.347 0 0 1-.937-7.817 35.318 35.318 0 0 1-9.98-8.846c-4.346-5.658-6.933-12.87-6.124-19.96.723-6.331 4.002-12.03 6.691-17.8.895-1.923 1.732-3.878 2.382-5.897 2.16-6.71 2.18-14.03.454-20.87a42.514 42.514 0 0 0-3.856-9.866 39.41 39.41 0 0 1 4.983 16.79 39.461 39.461 0 0 1-3.962 19.84c-1.584-7.764-6.688-14.74-13.61-18.6-7.75-4.322-16.99-4.66-25.74-6.124-1.58-.265-3.158-.57-4.672-1.088s-2.971-1.257-4.173-2.314a9.583 9.583 0 0 1-2.985-4.988c2.54-.25 5.03-.99 7.294-2.171 3.33-1.738 6.188-4.49 7.72-7.918 1.345-3.008 1.65-6.431 3.237-9.318a11.76 11.76 0 0 1 3.668-4.036 13.375 13.375 0 0 0-4.17 4.972c-1.508 3.109-1.768 6.72-3.368 9.783-1.512 2.894-4.145 5.1-7.087 6.518-2.942 1.417-6.188 2.096-9.432 2.464-7.173.813-14.57.184-21.49 2.245-2.744.817-5.44 2.106-7.337 4.25-.987 1.115-1.727 2.423-2.586 3.639-.859 1.217-1.882 2.379-3.228 3.016a5.454 5.454 0 0 1-3.248.44c.51-.935.9-1.934 1.163-2.966.562-2.218.518-4.554.182-6.818a27.12 27.12 0 0 0-.262-1.482 8.968 8.968 0 0 1-.098 4.935 8.972 8.972 0 0 1-2.709 4.126c-1.267 1.088-2.809 1.795-4.33 2.486-4.72 2.143-9.511 4.29-13.55 7.538a30.292 30.292 0 0 0-6.014 6.495 16.397 16.397 0 0 1-.882-7.057c.305-3.195 1.567-6.273 3.48-8.85a19.36 19.36 0 0 1 3.436-3.562 134.24 134.24 0 0 1-6.01 5.897c-3.554 3.274-7.283 6.355-11.11 9.299a205.17 205.17 0 0 1-14.75 10.34 8.739 8.739 0 0 0-.061-5.763 8.735 8.735 0 0 0-3.452-4.316 8.263 8.263 0 0 1 3.769 5.533c.266 1.505.102 3.06-.256 4.546-.359 1.486-.91 2.917-1.428 4.355-1.675 4.642-3.126 9.552-6.415 13.23a16.507 16.507 0 0 1-6.415 4.41 13.547 13.547 0 0 0 1.885-7.473 13.55 13.55 0 0 0-2.526-7.282c-.647-.899-1.405-1.716-2.005-2.646-1.363-2.114-1.846-4.701-3.208-6.816a9.561 9.561 0 0 0-3.93-3.448 8.77 8.77 0 0 0-5.372 2.967c-1.164 1.368-1.877 3.063-2.967 4.49-1.025 1.343-2.437 2.459-4.09 2.808-1.102.232-2.248.115-3.353-.102s-2.19-.532-3.303-.7c-2.267-.343-4.59-.062-6.816.48-1.2.293-2.387.664-3.493 1.215-1.106.55-2.132 1.286-2.922 2.234a7.337 7.337 0 0 0-1.684 4.73c-1.721-1.923-2.492-4.66-2.027-7.198.465-2.54 2.156-4.825 4.447-6.014.305-.158.62-.298.911-.48s.561-.413.733-.71c.241-.418.266-.92.346-1.395.182-1.095.677-2.117 1.283-3.047.989-1.518 2.278-2.819 3.645-4.008.963-.837 1.975-1.628 3.09-2.247a12.28 12.28 0 0 1 8.66-1.203 12.935 12.935 0 0 0-7.773.76 12.875 12.875 0 0 0-3.977 2.69c-1.626-.012-3.251-.03-4.876-.057-1.408-.024-2.84-.057-4.18-.489a5.842 5.842 0 0 1-1.862-.973c-.55-.44-1.005-1.006-1.273-1.657-.312-.76-.369-1.622-.794-2.325-.273-.45-.683-.805-1.134-1.077-.854-.515-1.854-.748-2.848-.835-.994-.086-1.995-.032-2.992-.015-1.086.018-2.175-.007-3.258.084-1.083.09-2.168.3-3.15.766a6.468 6.468 0 0 0-2.612 2.27 7.015 7.015 0 0 1 .464-4.785 7.018 7.018 0 0 1 3.46-3.338c.897-.394 1.865-.594 2.816-.836.95-.241 1.907-.535 2.716-1.088.689-.47 1.241-1.108 1.844-1.684 2.782-2.655 6.668-3.96 10.51-4.105 1.148-.043 2.307.011 3.424.277 1.118.266 2.196.752 3.065 1.503a5.98 5.98 0 0 1 2.005 3.77 7.254 7.254 0 0 0-3.399-4.68 7.227 7.227 0 0 0-4.74-.88 7.085 7.085 0 0 1-2.446-4.303c-.219-1.391-.015-2.813.271-4.191.286-1.378.655-2.746.772-4.15.19-2.29-.33-4.661-1.604-6.575a9.274 9.274 0 0 0-3.528-3.127c4.084-.782 8.47.167 11.87 2.566 1.25.882 2.37 1.95 3.689 2.726 1.028.605 2.157 1.02 3.208 1.585 1.478.794 2.806 1.9 3.746 3.289.94 1.39 1.478 3.072 1.386 4.748-.057 1.023-.342 2.024-.401 3.047-.089 1.537.378 3.139 1.443 4.25a4.763 4.763 0 0 0 2.486 1.363 29.126 29.126 0 0 1 10.26-1.764 29.211 29.211 0 0 1 12.69 3.056 116.2 116.2 0 0 1 18.37-17.99 116.381 116.381 0 0 1 41.05-20.57 36.107 36.107 0 0 1 7.258-17.01c4.867-6.224 11.84-10.77 19.51-12.7a36.316 36.316 0 0 0-16.025 8.869l6.045-35.86" fill="#fcdb00" stroke="#000" stroke-linecap="round" stroke-linejoin="round" stroke-width="4"/><path d="M376.9 499.5c-2.098-2.848-3.464-6.2-3.931-9.641a20.714 20.714 0 0 1-.197-3.081c0-1.419.101-2.692.315-3.985l.059-.357.232-.095a9.861 9.861 0 0 1 2.137-.59 9.897 9.897 0 0 1 2.658-.02c2.017.288 3.846 1.233 5.489 2.837 1.137 1.111 2.047 2.361 2.854 3.922.292.566.717 1.52.689 1.548a9.463 9.463 0 0 1-.672-.033c-1.273-.086-1.844-.081-2.549.021-2.124.308-3.94 1.666-5.116 3.822-.57 1.046-.98 2.272-1.314 3.933a49.626 49.626 0 0 0-.343 1.928.415.415 0 0 1-.032.137c-.009.005-.134-.15-.28-.347zM347.9 519.3c-1.457-.448-2.636-1.182-3.761-2.343-2.142-2.212-3.246-5.568-3.005-9.137.03-.435.06-.865.07-.946.142-.05.157-.063.713-.198 1.182-.288 1.79-.373 2.954-.414 1.978-.07 3.926.296 5.79 1.087.718.304.648.269.778.336-.072.084-.497.414-.639.58-.65.761-1.3 1.937-1.66 2.998-.714 2.114-.928 4.88-.587 7.59l.084.631-.12-.025c-.06-.001-.339-.072-.617-.158zM317 495.2c.005-5.41 1.526-9.632 4.517-12.52.634-.612 1.539-1.29 2.176-1.63l.5-.266.34.424c.958 1.19 1.594 2.53 1.932 4.069.182.824.196 2.583.029 3.418-.151.752-.49 1.756-.81 2.406l-.303.601-.742-.03c-2.107.105-3.945 1.008-5.773 2.836-.606.606-1.507 1.63-1.683 1.91-.06.065-.09.126-.157.186.01-.192-.031-.67-.027-1.402zM326.1 462.5c-.885-1.336-1.99-2.358-3.313-3.067a8.178 8.178 0 0 0-1.415-.587 8.378 8.378 0 0 0-.648-.167c-.04-.007-.074-.017-.074-.022 0-.009.329-.323.519-.497 1.746-1.592 3.886-2.823 6.027-3.468.832-.25 1.606-.4 2.43-.466a13.242 13.242 0 0 1 1.365.006c.976.092 1.78.314 2.574.71.468.234.81.455 1.182.765.177.147.524.455.524.483 0 .023-.187.38-.317.612a11.689 11.689 0 0 1-1.933 2.565c-1.576 1.584-3.55 2.653-5.776 3.13-.21.044-.64.118-.834.144-.073.009-.167.035-.186.038-.033.005-.017-.015-.126-.179z" fill="#f00000" style="paint-order:normal"/><path d="M324.37 463.182a12.11 12.11 0 0 0 7.009-1.905 12.114 12.114 0 0 0 4.728-5.846M371.1 483.2c2.493-1.932 5.976-2.508 8.958-1.48 2.767.954 4.971 3.153 6.464 5.67a18.022 18.022 0 0 1 1.953 4.709M339.208 507.22a14.31 14.31 0 0 1 8.023-1.243 14.283 14.283 0 0 1 6.355 2.531M323.1 479.1c2.479 1.762 4.043 4.745 4.084 7.786a9.821 9.821 0 0 1-2.601 6.745M99.56 281.7c2.195.97 4.848.832 6.93-.362 1.115-.639 2.065-1.563 2.735-2.66s1.059-2.363 1.119-3.647M94.01 305.6a8.922 8.922 0 0 0 2.535-4.811c.45-2.579-.317-5.344-2.031-7.322M107.985 326.684c.517-1.782.556-3.7.113-5.502a10.717 10.717 0 0 0-3.25-5.4M141.962 329.879a15.097 15.097 0 0 1 5.63-2.521 15.12 15.12 0 0 1 7.599.314" fill="none" stroke="#000" stroke-width="3"/><path d="M98.64 329.1c.02-.916.238-1.771.672-2.637a6.711 6.711 0 0 1 2.402-2.653c.193-.12.338-.2.685-.374.34-.17.49-.251.674-.36.884-.527 1.46-1.186 1.778-2.035.12-.32.203-.68.282-1.22.048-.326.07-.441.116-.627.089-.35.27-.806.47-1.19.067-.126.183-.333.193-.343.011-.011.342.482.5.744a10.11 10.11 0 0 1 1.367 3.909c.068.526.088.904.08 1.47-.006.368-.028.784-.042.795a7.256 7.256 0 0 1-.264.055c-1.31.264-2.575.614-3.602.996-2.22.826-3.985 2.048-5.184 3.585l-.134.171z" fill="#f00000" stroke="#000" stroke-linecap="round" stroke-linejoin="round" stroke-width=".011" style="paint-order:normal"/><path d="M146.3 340a15.422 15.422 0 0 0-1.13-8.539 16.05 16.05 0 0 0-1.135-2.12l-.114-.176.113-.058a14.677 14.677 0 0 1 3.269-1.236 14.558 14.558 0 0 1 5.28-.306c.418.052.455.059.452.086-.003.03-.49 1.403-.813 2.294-.984 2.711-1.805 4.556-2.719 6.116-.841 1.436-1.806 2.67-2.844 3.641a10.09 10.09 0 0 1-.332.303c-.032.022-.034.022-.026-.005z" fill="#f00000" stroke="#000" stroke-linecap="round" stroke-linejoin="round" stroke-width=".016" style="paint-order:normal"/><path d="M94.63 303.7c-.842-.44-1.884-.738-3.015-.86-.82-.089-1.764-.095-5.073-.033-2.284.042-3.338.202-4.859.696-.062.02.012-.033.159-.236.41-.57.954-1.063 1.563-1.416.537-.312 1.033-.484 2.346-.813 1.044-.262 1.586-.416 2.054-.583 1.148-.408 1.955-.885 2.814-1.66.133-.121.516-.489.85-.818s.733-.7.885-.827a11.797 11.797 0 0 1 2.353-1.529l.486-.244.146.306c1.032 2.16 1.105 4.656.197 6.813-.209.497-.64 1.306-.696 1.303-.013 0-.108-.045-.21-.099zM101.9 281.8a2.75 2.75 0 0 1-.267-.037 2.121 2.121 0 0 1 .043-.266c.114-.568.22-1.3.277-1.92.04-.427.033-1.814-.01-2.236-.147-1.415-.442-2.587-.954-3.784a11.945 11.945 0 0 0-.884-1.664l-.154-.24c.212.04.214.04.388.075 1.59.317 3.051.877 4.406 1.69.602.36 1.048.681 2.055 1.478 1.29 1.022 1.807 1.396 2.506 1.812l.238.143c.014.01-.105.343-.221.62a7.01 7.01 0 0 1-1.54 2.276 7 7 0 0 1-3.508 1.925c-.5.111-.817.143-1.485.15-.462.005-.7 0-.89-.022z" fill="#f00000" style="paint-order:normal"/><g stroke="#000" stroke-linecap="round"><path d="M141.3 192.1a12.807 12.807 0 0 0 3.491-4.375 12.798 12.798 0 0 0 1.271-5.016M126.1 199.2a7.747 7.747 0 0 1 1.086-5.167 7.763 7.763 0 0 1 4.661-3.383M130.8 209.4a5.35 5.35 0 0 1-1.939-1.977 5.351 5.351 0 0 1-.683-2.683 5.402 5.402 0 0 1 1.998-4.083M127.5 220.1a8.29 8.29 0 0 1-1.152-3.255 8.307 8.307 0 0 1 .663-4.464" fill="none" stroke-width="3"/><path d="M128.2 218c-.107-.255-.271-.952-.329-1.391a7.044 7.044 0 0 1 .067-2.113l.012-.058h.91c1.55.001 2.913-.121 4.248-.383.182-.035.338-.065.346-.065.036 0-.082.342-.203.586-.488.986-1.596 1.868-3.624 2.883-.452.227-1.322.619-1.37.619-.013 0-.039-.036-.057-.08zM130.5 207.2a3.87 3.87 0 0 1-.792-1.95 4.39 4.39 0 0 1 .046-1.114 4.186 4.186 0 0 1 .541-1.357c.003-.004.164.028.357.071 1.452.322 2.576.444 4.078.444h.921l-.035.056c-.101.158-.384.53-.596.784-.874 1.046-2.09 1.997-3.564 2.784-.313.167-.81.41-.841.41a.663.663 0 0 1-.115-.128zM128.3 197.6c-.307-.025-.754-.08-.769-.094-.01-.01 0-.12.019-.247.203-1.299.745-2.416 1.625-3.343a7.08 7.08 0 0 1 1.152-.951l.06-.038.144.289c.626 1.249 1.593 2.35 2.823 3.213.142.1.259.187.26.195.002.026-.605.265-1.06.417-.886.296-1.766.477-2.684.552a22.39 22.39 0 0 1-1.57.008zM141.5 189.6c-1.425-1.01-3.441-1.606-5.635-1.666a19.94 19.94 0 0 1-.614-.024l-.183-.012.06-.103c.093-.163.348-.53.483-.7.998-1.249 2.36-2.136 4-2.604a9.842 9.842 0 0 1 3.919-.279c.397.051.846.129.869.15.017.018-.084.478-.183.83a11.305 11.305 0 0 1-2.338 4.351 1.745 1.745 0 0 1-.178.192c-.007 0-.097-.062-.2-.135z" fill="#f00000" stroke-linejoin="round" stroke-width=".066" style="paint-order:normal"/></g><path d="M143.982 444.223a13.227 13.227 0 0 0 7.077.88 13.267 13.267 0 0 0 7.608-4M120.766 458.284c1.566 0 3.13-.301 4.585-.881 3.122-1.244 5.691-3.813 6.934-6.935M126.844 488.626a15.305 15.305 0 0 0 1.091-6.396 15.337 15.337 0 0 0-2.553-7.775M171.8 511.2a13.937 13.937 0 0 1 6.967-2.176 13.974 13.974 0 0 1 8.484 2.521" fill="none" stroke="#000" stroke-linecap="round" stroke-linejoin="round" stroke-width="3"/><path d="M173.7 520.8c0-.022.06-.382.131-.8.272-1.57.398-3.046.399-4.64 0-1.29-.07-2.278-.248-3.514l-.026-.178.458-.194a12.342 12.342 0 0 1 10.283.258l.456.229-.03.142c-.016.078-.1.33-.184.561-.582 1.586-1.873 3.097-3.795 4.442-1.546 1.082-4.155 2.424-6.71 3.451-.776.312-.734.298-.734.243zM118.3 488.8c-.108-.296-.33-1.515-.393-2.166a13.967 13.967 0 0 1 .016-2.188c.25-2.14 1.101-3.946 2.49-5.281 1.07-1.028 2.417-1.818 4.08-2.391.199-.068.38-.124.404-.124.089 0 .57 1.09.848 1.922.269.805.486 1.746.598 2.594a14.557 14.557 0 0 1-.06 3.922 15.771 15.771 0 0 1-.282 1.33l-.03.097-.492-.014a11.95 11.95 0 0 0-1.89.119c-1.786.25-3.571.982-5.094 2.09-.126.092-.185.12-.195.09zM121.8 456.5a16.76 16.76 0 0 0-1.118-.979c-2.081-1.666-4.336-2.767-6.782-3.31l-.33-.073.407-.304c1.571-1.177 3.356-2.14 5.027-2.714 2.367-.813 4.696-.953 6.86-.413a9.333 9.333 0 0 1 3.101 1.432c.416.3 1.251 1.012 1.251 1.068 0 .052-.407.691-.66 1.034a11.3 11.3 0 0 1-3.152 2.912c-.375.233-1.259.678-1.657.835-.815.32-1.714.55-2.672.681-.084.012-.092.006-.276-.17zM147.8 443.7c-.433-.05-1.448-.233-1.484-.269-.009-.009.018-.182.06-.385.115-.561.094-2.433-.035-3.151-.235-1.305-.778-2.892-1.441-4.216l-.33-.66h.268c.375 0 1.582.164 2.304.312 3.39.698 6.576 2.612 8.669 5.21.272.339.485.647.472.686-.047.143-1.29.934-2.077 1.322-2.017.995-4.248 1.396-6.406 1.152z" fill="#f00000" style="paint-order:normal"/><g fill="none" stroke="#000" stroke-linecap="round"><path d="M407.9 391.2c.253 1.758.17 3.564-.24 5.292a14.235 14.235 0 0 1-3.61 6.576M359.9 337.7a17.29 17.29 0 0 1 2.268 3.062c1.466 2.519 2.269 5.36 3.062 8.165 1.584 5.608 3.223 11.3 6.351 16.22a30.36 30.36 0 0 0 3.969 4.99" stroke-linejoin="round" stroke-width="4"/><path d="M295 167.7c.334-.039.667-.08 1-.125 3.846-.511 7.733-1.408 11-3.5 3.938-2.522 6.733-6.761 7.5-11.38M328.4 147.7a36.126 36.126 0 0 1-1.25 16.625M338.6 142.5a23.172 23.172 0 0 0 5.625 10M343 127.6c.619 3.079 2.774 5.809 5.625 7.125a10.113 10.113 0 0 0 6.625.625M345.8 111.5a9.75 9.75 0 0 0 4.625 4.875c2.718 1.334 6.071 1.286 8.75-.125M342.1 100.8a13.414 13.414 0 0 0 9.125 2.75 13.36 13.36 0 0 0 7.046-2.672 13.354 13.354 0 0 0 4.454-6.078" stroke-linejoin="round" stroke-width="2"/><path d="M370.2 84.08c.268.674.77 1.252 1.4 1.612.63.36 1.383.5 2.1.388.83-.128 1.584-.578 2.196-1.152.612-.574 1.097-1.269 1.554-1.973.727-1.119 1.407-2.285 2.346-3.233a6.075 6.075 0 0 1 1.6-1.186c.598-.296 1.262-.47 1.929-.455 1.192.027 2.316.658 3.127 1.532.812.873 1.343 1.971 1.748 3.093a17.657 17.657 0 0 1-.25 12.5" stroke-linejoin="round" stroke-width="4"/><path d="M245 444.2a12.376 12.376 0 0 0 7.071 1.237 12.363 12.363 0 0 0 6.01-2.475M271.8 369.2a49.696 49.696 0 0 0 13-2.5 49.655 49.655 0 0 0 14.18-7.496" stroke-width="2"/></g><g stroke="#000" stroke-linecap="round" stroke-linejoin="round"><g fill="#fcdb00" stroke-width="3"><path d="M290.33 91.81a20.57 20.57 0 0 0 .243 5.527 20.596 20.596 0 0 0 2.448 6.655 19.367 19.367 0 0 0 3.368-7.854c.3-1.629.387-3.297.262-4.948M307.555 89.912a20.667 20.667 0 0 1-.912 7.98 20.642 20.642 0 0 1-2.766 5.563 18.62 18.62 0 0 1-2.18-4.205 18.657 18.657 0 0 1-1.087-7.66"/></g><path d="M320.4 112.1c-9.506-.811-19.01-1.686-28.5-2.625-15.66-1.548-31.57-3.336-46.06-9.485-2.75-1.167-5.468-2.507-7.742-4.444-2.275-1.937-4.091-4.535-4.611-7.477-.214-1.211-.207-2.455-.456-3.66-.125-.602-.316-1.195-.618-1.731-.303-.535-.721-1.013-1.245-1.334a3.324 3.324 0 0 0-2.094-.447c-.723.081-1.413.385-1.984.836s-1.023 1.043-1.341 1.696a6.354 6.354 0 0 0-.583 2.09c-.199 1.822.277 3.655.962 5.353 1.11 2.749 2.78 5.26 4.811 7.418 4.132 4.39 9.645 7.239 15.29 9.37 5.372 2.029 10.95 3.48 16.58 4.594 7.916 1.565 15.95 2.468 23.97 3.347 11.07 1.214 22.14 2.386 33.22 3.517" fill="#f00000" stroke-width="4"/><path d="M374.9 67.98a5.39 5.39 0 0 1 1.061 3.447 13.778 13.778 0 0 0 0 0c2.568-1.823 5.797-2.724 8.927-2.386 2.123.229 4.174 1.012 5.963 2.177s3.321 2.708 4.555 4.452c3.032 4.284 4.203 9.66 4.264 14.91.04 3.433-.372 6.896-1.504 10.14-1.133 3.241-3.011 6.258-5.621 8.488a16.849 16.849 0 0 1-4.014 2.532 16.855 16.855 0 0 0 5.107-3.554 27.204 27.204 0 0 1 3.531 10.15c.613 4.494.054 9.206-2 13.25-1.422 2.799-3.534 5.263-4.5 8.25-.683 2.114-.75 4.378-.64 6.597.111 2.219.395 4.431.39 6.653-.01 5.056-1.533 10.05-4.03 14.45-2.498 4.396-5.947 8.207-9.845 11.43a52.694 52.694 0 0 1-9.25 6.125 33.966 33.966 0 0 1-5.625 14c-5.113 7.363-12.87 12.36-20.12 17.62-5.373 3.902-10.67 8.158-14.25 13.75a30.651 30.651 0 0 0-4.809 16.6c-3.534.296-7.171-1.073-9.634-3.624-1.725-1.787-2.863-4.087-3.501-6.487-.638-2.401-.796-4.906-.742-7.39.086-3.894.7-7.812 2.21-11.4a24.09 24.09 0 0 1 8.22-10.25 25.96 25.96 0 0 0-8.22 10.25 25.93 25.93 0 0 0-2.21 11.4 10.754 10.754 0 0 1-5.834-2.475c-2.697-2.283-4.1-5.774-4.73-9.251-1.562-8.622 1.148-17.67 6.144-24.87a42.754 42.754 0 0 1 15.38-13.52c-7.275 3.705-13.41 9.611-17.39 16.74-2.123 3.804-3.647 7.965-4.254 12.28a30.922 30.922 0 0 0 .119 9.371 53.93 53.93 0 0 0-20.25 3.875c-8.317 3.342-15.95 9.009-20.25 16.88a30.75 30.75 0 0 0-3.5 10.75c-5.657-4.92-8.884-12.51-8.5-20 .318-6.213 3.068-12.26 7.5-16.62.947-.933 1.966-1.79 3-2.625a97.374 97.374 0 0 1 8.875-6.375 83.955 83.955 0 0 0-11.875 9 21.175 21.175 0 0 1-.625-7.375c.568-6.184 3.925-11.94 8.625-16a28.69 28.69 0 0 1 11.38-6 29.015 29.015 0 0 0-9.136 4.255c-2.758 1.931-5.182 4.356-7.026 7.173a24.628 24.628 0 0 0-3.838 10.57c-11.9.008-23.68 5.569-31.25 14.75a40.608 40.608 0 0 0-6.695 11.6c-4.771-2.927-8.38-7.695-9.9-13.08-1.324-4.696-1.081-9.764.305-14.44 1.387-4.678 3.882-8.981 6.943-12.78a48.444 48.444 0 0 1-1.418 1.85 16.716 16.716 0 0 1-1.946-6.621c-.415-5.386 1.897-10.79 5.657-14.67 4.52-4.661 10.83-7.152 17.15-8.662a73.168 73.168 0 0 1 16.621-1.996 8.39 8.39 0 0 1 2.157-5.605c1.424-1.568 3.418-2.543 5.482-3.018s4.21-.48 6.324-.341c6.548.43 12.93 2.206 19.45 3.005 5.967.732 12.12.625 17.87-1.135 5.748-1.76 11.08-5.283 14.31-10.36a21.235 21.235 0 0 0 1.945-3.89 12.932 12.932 0 0 0 6.541-1.06c2.128-.954 4-2.511 5.228-4.493 1.732-2.792 2.096-6.39.96-9.473a11.02 11.02 0 0 1-.177 7.955c-1.12 2.68-3.342 4.863-6.01 6.01-2.047.88-4.315 1.164-6.54 1.06-2.844-.131-5.64-.876-8.486-.883-2.046-.005-4.072.371-6.105.605-2.033.233-4.128.32-6.093-.252-2.859-.83-5.24-3.076-6.364-5.834-.699-1.715-.931-3.634-.555-5.447.377-1.813 1.38-3.509 2.853-4.629 1.588-1.207 3.717-1.7 5.657-1.237 1.537.368 2.88 1.284 4.147 2.23 1.267.945 2.52 1.95 3.985 2.543 1.26.511 2.631.696 3.99.75 1.36.054 2.72-.017 4.08.002.98.014 1.962.075 2.94.014.979-.062 1.965-.252 2.831-.71 1.195-.634 2.091-1.752 2.61-3 .517-1.25.678-2.624.638-3.975-.079-2.703-.934-5.329-1.123-8.026-.139-1.982.084-3.968.214-5.95.13-1.983.165-4.003-.339-5.925-.493-1.884-1.503-3.625-2.859-5.023s-3.054-2.456-4.89-3.102c-3.77-1.326-7.9-.904-11.88-.5-2.557.26-5.178.5-7.664-.15-1.243-.324-2.437-.876-3.425-1.697-.987-.822-1.76-1.922-2.098-3.161-.374-1.375-.204-2.844.149-4.226.352-1.381.88-2.713 1.232-4.094 1.244-4.898.08-10.35-3.057-14.31a7.168 7.168 0 0 1 2.207-4.092c1.645-1.511 3.88-2.156 6.01-2.828 6.626-2.093 13.09-4.911 19.98-5.834 5.42-.727 10.96-.255 16.36-1.17 6.108-1.036 11.92-3.834 18.11-3.956 5.364-.106 10.6 1.835 15.2 4.596 2.904 1.744 5.615 3.824 8.662 5.303a25.158 25.158 0 0 0 14.76 2.21 6.366 6.366 0 0 1-.678 4.409c-.905 1.602-2.493 2.746-4.224 3.37-1.73.625-3.602.767-5.44.706a25.865 25.865 0 0 1-5.456-.767 5.402 5.402 0 0 1 3.6 2.093z" fill="#fcdb00" stroke-width="4"/><g stroke-width="3"><path d="M352.2 76.18c-.714.909-1.778 1.487-2.879 1.838s-2.255.498-3.394.695c-1.983.343-3.954.845-5.967.874-1.006.015-2.02-.091-2.981-.39-.961-.298-1.87-.794-2.589-1.498-.681-.666-1.178-1.503-1.543-2.384-.365-.88-.602-1.808-.818-2.736-.222-.958-.424-1.932-.398-2.915.026-.983.297-1.988.928-2.742.518-.618 1.243-1.03 2-1.312.755-.28 1.55-.44 2.331-.632 1.742-.43 3.448-1.03 5.224-1.28 1.777-.25 3.684-.114 5.205.837.776.485 1.417 1.16 1.977 1.884s1.048 1.5 1.577 2.247c.805 1.136 1.727 2.243 2.09 3.587.359 1.335.09 2.84-.764 3.926z" fill="#fff"/><path d="M340 74.58c.86-3.299.433-6.915-1.17-9.924a17.505 17.505 0 0 0-3.711.791c-.98.324-1.969.762-2.628 1.557-.628.756-.887 1.761-.922 2.743-.045 1.27.251 2.527.6 3.749.378 1.324.835 2.66 1.687 3.742a6.116 6.116 0 0 0 3.762 2.225 13.785 13.785 0 0 0 2.383-4.883z"/><path d="M332.5 74.38a1.848 1.848 0 0 0-1.271-.37c-.45.039-.882.252-1.188.585a2.26 2.26 0 0 0-.521 1.062c-.083.39-.085.794-.054 1.192a7.363 7.363 0 0 0 2.386 4.817c1.348 1.219 3.114 1.908 4.908 2.194s3.63.192 5.436 0a51.173 51.173 0 0 0 12.41-2.907M338.1 55.74c-2.374-.068-4.763.67-6.685 2.064s-3.364 3.438-4.035 5.716c-.263.893-.41 1.82-.438 2.75 1.491.35 3.054.394 4.562.125 1.705-.303 3.312-.993 4.946-1.568 1.944-.684 3.965-1.215 6.025-1.274 2.091-.06 4.161.367 6.212.779 1.996.401 4.037.806 5.795 1.833a9.144 9.144 0 0 1 3.045 2.903" fill="none"/></g><path d="M288.9 70.42a6.784 6.784 0 0 0 5.39-.591 6.793 6.793 0 0 0 3.25-4.75" fill="none" stroke-width="4"/></g><path d="M4 4v280c20 260 236 310 246 312 10-2 226-52 246-312V4z" fill="none" stroke="#000" stroke-width="8"/></svg>