<svg width="1221.3" height="1522.9" version="1.0" xml:space="preserve" xmlns="http://www.w3.org/2000/svg"><path d="M4.243 5.077c.812 109.42-.283 218.87 2.111 328.26 7.356 94.738 45.632 185.19 103.22 254.63 53.046 63.843 118.74 114.63 190.69 147.83 16.961-4.445 32.32-15.206 47.938-23.71 94.213-56.068 175.34-97.28 217.8-208.59 37.007-94.726 34.58-138.82 34.033-189.73 1.1-101.88-2.354-206.8-1.866-308.68-34.111-1.553-69.292-.222-103.81-.666H4.829z" fill="#fff" stroke="#000" stroke-width="1.497" style="paint-order:markers fill stroke" transform="translate(6.326 2.308) scale(2.0148)"/><path d="M14.545-9.743c.561 98.456-4.015 202.27-2.505 300.72-.29 47.587 0 107.69 15.673 149.62 35.88 105.58 89.842 182.28 168.53 235.45 28.42 17.817 84.497 51.125 115.73 63.232 46.164-18.604 123.45-68.945 161.83-101.16 39.204-33.982 69.624-80.855 94.665-124.78h-56.815v-72.85c-27.16 0-50.014.178-72.849 0V367.64h-72.849v-72.849h-72.849c0-28.827.114-48.923 0-72.849h-72.849v-72.849h-72.849c-.184-24.103.186-48.746 0-72.849H76.156c.002-28.006 0-57.974 0-85.98z" fill="#f00000" style="paint-order:normal" transform="translate(-17.933 27.171) scale(2.0148)"/><path d="M76.163-9.743v85.98h71.252v72.849h72.849v72.849h72.849v72.849h72.849v72.849h72.849v72.849h72.849v72.848h56.815" fill="none" stroke="#000" stroke-linecap="square" stroke-width="3.194" style="paint-order:normal" transform="translate(-17.933 27.171) scale(2.0148)"/><g fill="#fff" stroke="#000" stroke-width="1.497"><path d="M154.99 311.12s1.96 5.509 4.186 6.85c1.593.96 2.381 1.556 5.486.208-2.816-2.266-3.712-9.23-3.712-9.23zM146.03 321.37c1.124.995 1.835 1.042 4.218 1.275-1.644-3.89-1.908-7.556-.58-10.614l-6.28-.84s-.387 2.895-.097 4.293c.445 2.138 1.158 4.486 2.74 5.886zM131.67 311.73c.463 2.025 1.038 3.077 2.904 5.434.4-2.968.996-3.941 1.867-5.742.535-1.106 2.03-3.043 2.03-3.043l-2.537-2.029-2.651-1.523s-1.186 1.707-1.456 2.705c-.363 1.346-.468 2.837-.157 4.198zM127.5 300.28c-.181-1.256.337-2.946 1.118-4.1.595-.878 1.53-1.564 2.512-1.843.83-.236 2.566.225 2.566.225l-1.135 5.074s-3.203-.95-5.061.644zM78.109 246.88s-2.176 3.45-1.638 5.178c.563 1.808 2.56 3.578 4.41 3.254-.446-3.415 1.755-6.395 1.755-6.395zM74.774 237.63s-4.118 1.157-5.141 2.915c-.911 1.566-1.15 4.226-.146 5.524 1.314-2.895 6.463-4.138 6.463-4.138zM74.791 235.62c-1.092-.74-4.572-2.653-6.585-1.87-.566-1.706 1.774-3.354 3.336-3.984 1.742-.702 5.548.706 5.548.706z" transform="matrix(4.5804 0 0 4.2998 -77.841 -27.136)"/><path d="M80.753 226.34s-.507-1.64-.97-2.333c-.907-1.357-3.431-3.41-3.431-3.41s4.077-.548 5.789.41c1.873 1.048 3.941 5.301 3.941 5.301" stroke-linecap="square" transform="matrix(4.5804 0 0 4.2998 -77.841 -27.136)"/><path d="M64.553 115.77s-1.04-4.685-2.668-6.57c2.711-.836 5.965-.008 7.573 2.189.884 1.206.082 4.59.082 4.59zM54.683 118.35c-1.643-.546-4.817-1.105-4.817-1.105s3.263-2.492 5.17-2.654c2.23-.19 6.434 2.045 6.434 2.045l-3.783 3.677s-1.525-1.471-3.004-1.963zM50.984 129.65c-1.426.503-4.085 2.03-4.085 2.03s.797-4.432 2.317-5.744c1.642-1.417 6.217-1.32 6.217-1.32l-.727 4.214c.794 0-2.519.395-3.722.82zM56.531 133.96s-3.273 2.743-3.529 4.742c-.22 1.729-.018 3.637 1.911 4.823.856-3.778 5.145-5.458 5.145-5.458-1.277-1.219-2.708-3.283-3.527-4.107zM86.647 51.421c-1.051.171-3.104.371-3.104.371s.475-3.252 1.57-4.213c1.096-.963 4.19-.837 4.19-.837l1.425 4.421s-1.74-.123-4.081.258zM86.595 41.949c-1.376-.29-4.188-.45-4.188-.45s3.45-3.808 5.743-4.294c1.852-.392 5.528 1.314 5.528 1.314l-3.165 4.68c-1.205-.596-2.58-.968-3.918-1.25zM94.776 33.468c-.696-1.174-3.08-2.568-3.08-2.568s5.226-1.021 7.344.289c1.254.775 2.295 3.938 2.295 3.938l-5.87 1.634s-.126-2.342-.689-3.293zM104.34 28.616s2.51.905 3.636 1.626c.847.543 1.873 1.047 2.296 1.998.497 1.116 0 3.704 0 3.704l-5.992-1.603z" transform="matrix(4.5804 0 0 4.2998 -77.841 -27.136)"/></g><g stroke="#000"><path d="M148.86 57.9c-2.018-.24-4.147-.674-5.83-1.886-1.02-.735-2.02-1.796-2.312-3.07-.302-1.323-.427-3.488.755-4.002 1.845-.803 3.15 2.66 4.945 3.58 2.359 1.207 5.08 1.412 7.502 2.465 1.397.606 3.679.64 4.023 2.204-.825 4.165-6.066 1.067-9.083.709z" fill="#f00000" stroke-width="1.127" transform="matrix(4.5804 0 0 4.2998 -77.841 -27.136)"/><path d="M145.63 61.658s.964-2.487 1.953-2.395c1.222.114 1.894 3.362 1.894 3.362" fill="#fff" stroke-linecap="round" stroke-width="1.127" transform="matrix(4.5804 0 0 4.2998 -77.841 -27.136)"/><path d="M150.95 49.47s-1.188 2.257-2.178 2.067c-1.225-.236-1.623-3.385-1.623-3.385" fill="#fff" stroke-linecap="square" stroke-width="1.108" transform="matrix(4.5804 0 0 4.2998 -77.841 -27.136)"/></g><path d="M125.47 208.17c-.946 1.592-1.48 3.47-1.775 5.328-.626 3.938-.324 8.009.06 11.982.208 2.144 1.921 4.32 1.208 6.336-3.332 9.417-13.858 14.362-22.566 18.266-4.105 1.84-8.819 2.833-13.215 2.084-1.934-.33-3.479-1.921-5.255-2.802-1.962-.972-4.432-1.106-5.961-2.736-1.522-1.623-1.947-4.12-2.553-6.322-.315-1.149-.594-2.347-.549-3.543.038-.985.397-1.929.672-2.87.222-.758.408-1.546.788-2.229a13.415 13.415 0 0 1 2.913-3.614c.666-.576 1.409-1.176 2.256-1.318 2.155-.36 5.279-.364 6.427 1.32.945 1.39.46 3.818 1.793 4.78 1.26.91 3.15.597 4.566 0 3.45-1.455 6.898-4.383 8.118-8.117 1.154-3.531-.399-7.562-1.545-11.097-1.012-3.118-4.122-5.34-4.6-8.599-.706-4.803.641-10 2.82-14.27 2.973-5.827 7.556-11.329 13.241-14.032 6.74-3.204 14.56-1.338 22.108-1.338 0 0-7.892-16.167-11.8-24.271-1.416-2.935-2.945-5.813-4.22-8.82-.72-1.697-.607-3.309-1.932-5.19-3.932.335-6.265.427-9.374.87-6.176.88-12.19 2.949-18.397 3.542-2.526.241-5.251.994-7.61 0-1.294-.546-1.652-3.045-3.044-3.045-1.507 0-1.897 2.701-3.297 3.298-2.553 1.088-5.553.637-8.25.064-1.201-.255-2.366-.798-3.381-1.525-2.618-1.876-5.312-4.1-6.705-7.115-1.05-2.272-1.249-5.029-.907-7.534.278-2.037 1.155-4.025 2.344-5.648 1.145-1.564 2.67-2.942 4.408-3.656 2.28-.936 5.147-1.166 7.309-.58 1.63.443.638 3.698 1.75 5.042 2.114 2.554 5.316 4.497 8.505 4.717 5.302.365 10.185-3.37 14.967-5.834 4.644-2.394 8.412-6.557 13.191-8.626 4.015-1.739 12.684-3.044 12.684-3.044s-10.928-12.402-14.714-19.786c-1.827-3.564-2.55-7.656-3.705-11.526-1.004-3.368-.831-7.329-2.8-10.173-.611-.885-1.903-.99-2.578-1.822-2.486-3.06-3.456-7.221-4.867-10.98-1.086-2.89-3.34-5.816-2.756-8.866.636-3.318 3.593-5.857 6.306-7.623 2.815-1.83 6.293-2.579 9.591-2.588 1.647-.005 3.805-.138 4.795 1.264.947 1.34-.328 3.358-.181 5.028.671 7.636 1.56 15.59 4.821 22.425 4.409 9.241 11.443 20.97 19.144 23.476 3.778-4.179 14.041-6.929 19.297-12.014 1.351-1.307 2.437-5.223 2.437-5.223s-9.92.006-12.615-3.64c-.842-1.139-1.136-3.39-.114-4.346 2.552-2.388 6.975 3.2 10.067 1.7 2.451-1.189 3.032-4.758 4.287-7.298.622-1.26 2.061-2.78 1.595-3.916-2.682-1.305-6.143-2.078-9.09-3.45-1.276-.595-2.862-.881-3.7-2.065-2.753-3.883-.106-6.518-.043-9.777.028-1.496-.787-3.41.19-4.486 1.18-1.297 3.378-.438 5.074-.416 3.445.045 6.837 1.155 10.283 1.116 2.85-.032 5.656-.778 8.49-1.116 2.083-.249 4.175-.926 6.259-.672 2.602.318 5.096 1.452 7.439 2.702 1.996 1.066 3.455 3.145 5.527 4.032 1.874.803 4.355.435 5.977 1.055-.167 2.188-.232 5.295-.809 7.857-.455 2.02-2.07 5.827-2.07 5.827s2.314 7.225 2.657 9.51c.776 5.177-2.807 10.715-4.047 15.79-.96 3.935.338 4.29-.624 8.226-1.119 4.582-1.41 5.048-2.45 9.652-2 8.861-11.317 16.38-12.923 26.053-1.578 9.505 2.527 19.116 3.688 28.689.778 6.414 1.501 12.835 2.197 19.26 1.148 10.59 3.57 21.66 3.264 31.795-.153 5.089 3.097 9.636 4.798 14.394 3.475 9.725 7.755 19.119 11.04 28.919 2.476 7.389 5.399 14.734 6.52 22.488.97 6.701 1.194 15.286.122 20.34-1.072 5.056-2.428 6.774-4.398 9.68-2.544 3.755-6.134 7.21-9.355 9.68.432-1.621 3.336-10.042 4.947-15.59.805-2.773-.466-2.3-1.805-1.92.292-1.94 1.967-6.675 1.894-8.274-.146-3.199-1.908-.492-3.72.386-.363-2.535.927-13.61.092-16.137-.756 1.308-1.07 1.243-1.84 2.085-.465-.961-.72-2.11-.935-3.68-.257-1.888-1.086-6.513-2.578-7.388-.589.667-.847 1.154-1.158 2.08-.85-.754-4.738-10.126-4.982-11.043-1.362-5.123-1.617-16.626-1.617-16.626s-2.99 2.166-4.162 3.602c-1.867 2.286-3.532 4.9-4.411 7.781-1.231 4.035-1.481 8.469-1.016 12.683.567 5.13 3.555 9.661 4.567 14.713.7 3.491.648 7.107 1.014 10.655.314 3.047.72 6.083 1.016 9.132.197 2.027.838 4.081.507 6.088-.485 2.94-1.747 5.834-3.552 8.117-1.848 2.336-4.504 3.855-7.067 5.226-1.951 1.044-4.074 1.737-6.209 2.222-2.132.485-4.333.558-6.511.67-2.365.121-4.743.196-7.103 0-2.048-.17-4.134-.339-6.087-1.015-1.988-.688-3.908-1.708-5.581-3.043-1.575-1.257-3.58-2.534-4.06-4.567-.836-3.545-.293-8.798 2.702-10.582 2.64-1.573 5.694 3.001 8.707 2.719 2.139-.2 3.653-2.661 5.769-3.05 2.516-.465 4.914 1.248 7.608.962 2.572-4.77 2.153-9.373 1.277-13.951-.867-4.528-3.816-8.333-6.233-12.171-2.499-3.966-6.904-6.65-8.484-11.12-1.6-4.526.747-9.735-.519-14.499-.53-1.996-2.01-2.75-2.767-4.286-1.104-2.244-2.09-4.615-2.537-7.103-.448-2.49-.642-5.133-.108-7.603.69-3.189 2.53-5.985 4.156-8.76 2.183-3.728 5.11-6.905 7.464-10.512 1.553-2.378 4.387-7.327 4.387-7.327s-6.837-.318-10.143.451c-4.273.994-8.5 2.715-12.145 5.29-2.35 1.66-4.486 3.82-5.993 6.358z" stroke="#000" stroke-width="1.066" transform="matrix(4.5804 0 0 4.2998 -77.841 -27.136)"/><g fill="#fff"><path d="M335.36 64.31a35.73 35.73 0 0 0-1.082.03c-2.483.102-5.026.421-7.217 1.593a8.824 8.824 0 0 0-2.19 1.635c.88.204 1.77.315 2.661.42a23.71 23.71 0 0 0 3.652.062c1.094.004 2.06-.191 2.848-.78.617-.463.965-1.24 1.217-1.968.109-.314.082-.669.111-.992zM343 66.062c-.948.484-1.401 1.462-1.531 2.367-.116.808.052 1.697.043 2.461-.014 1.179-.498 2.284-1.055 3.252-2.126 2.9-6.359 2.336-9.242 1.418-.853-.274-1.656-.712-2.399-1.213-.706-.476-1.3-1.1-1.926-1.68-.696-.77-1.322-1.4-2.158-1.843-.47-.25-1.04-.329-1.54-.426a5.84 5.84 0 0 0-.231 1.365c-.065 1.403.41 2.808 1.228 3.95.819 1.14 1.958 2.082 3.237 2.626 2.553 1.088 5.465 1.27 8.263 1.026 2.435-.213 4.917-.67 6.994-1.957 1.039-.644 1.961-1.496 2.616-2.528.654-1.032 1.032-2.249.996-3.47-.039-1.298-.542-2.566-1.342-3.588-.575-.735-1.329-1.289-1.953-1.76z" style="paint-order:normal" transform="matrix(2.21506 0 0 2.21503 -43.014 -1.608)"/></g><path d="M783.38 147.679a230.361 230.361 0 0 1 25.476 1.242 201.766 201.766 0 0 0-1.722 17.552c-.347 6.402-.42 12.985-2.827 18.928-1.968 4.862-5.375 8.978-8.136 13.439-.597.963-1.172 1.955-1.968 2.761-.398.403-.85.757-1.357 1.01a3.64 3.64 0 0 1-1.635.405 3.37 3.37 0 0 1-1.622-.436 3.884 3.884 0 0 1-1.25-1.13c-.743-1.038-.976-2.392-.782-3.654.185-1.21.736-2.343 1.447-3.34.711-.996 1.58-1.868 2.468-2.711 1.954-1.857 4.037-3.626 5.547-5.858 1.824-2.697 2.71-5.93 3.122-9.16.412-3.229.38-6.496.533-9.748.076-1.628.198-3.256.133-4.884s-.325-3.267-.982-4.758c-.255-.579-.576-1.142-1.044-1.566-.577-.523-1.34-.801-2.108-.927s-1.551-.11-2.33-.118c-3.087-.028-6.158-.408-9.233-.685-.862-.077-1.734-.149-2.556-.418-.822-.27-1.604-.763-2.045-1.507a2.796 2.796 0 0 1-.384-1.434c.002-.501.139-1 .384-1.437.281-.501.706-.92 1.21-1.196a3.098 3.098 0 0 1 1.661-.37z" fill="#fff"/><path d="M261.71 332.95a509.23 509.23 0 0 0 36.058 37.065l2.585.042a29.309 29.309 0 0 0 2.76-6.21c1-3.207 1.441-6.599 1.178-9.948-.055-.708-.15-1.44-.527-2.043a2.011 2.011 0 0 0-.76-.728 1.478 1.478 0 0 0-1.034-.138c-.257.065-.49.21-.676.398a2.018 2.018 0 0 0-.426.664c-.2.491-.236 1.03-.256 1.56-.054 1.439-.006 2.883-.158 4.315a15.574 15.574 0 0 1-1.52 5.243 12.82 12.82 0 0 1-2.025-.953c-1.956-1.138-3.57-2.767-5.194-4.342-3.222-3.123-6.579-6.104-9.87-9.154-3.023-2.8-5.99-5.659-8.944-8.532-2.885-2.808-5.759-5.631-8.779-8.294-1.162-1.024-2.36-2.04-3.23-3.322a8.534 8.534 0 0 1-.433-.707l-1.15-.022a10.358 10.358 0 0 0 2.402 5.106z" fill="#fff" style="paint-order:normal" transform="matrix(2.21506 0 0 2.21503 -43.014 -1.608)"/><g fill="none" stroke="#fff"><g stroke-linecap="round" stroke-linejoin="round"><g stroke-width="1.5"><path d="M347.8 97.818a20.483 20.483 0 0 1 9.5-1M350.13 105.82a12.411 12.411 0 0 0 6.5 1.167 12.398 12.398 0 0 0 5.666-2M309.47 118.48a25.774 25.774 0 0 0 4.666-6.166 25.775 25.775 0 0 0 2.667-7.5" transform="matrix(2.21506 0 0 2.21503 -43.014 -1.608)"/></g><path d="M187.35 118.16c3.755.765 7.712.51 11.337-.732 2.677-.917 5.256-2.444 6.802-4.815.833-1.278 1.333-2.751 1.625-4.25a17.18 17.18 0 0 0-.125-7.125" stroke-width="2.25" transform="matrix(2.21506 0 0 2.21503 -43.014 -1.608)"/><path d="M228.07 195.29c-.895-3.334-.7-6.95.547-10.169 1.826-4.715 5.691-8.299 9.5-11.625 3.906-3.411 7.884-6.74 11.812-10.125a530.685 530.685 0 0 0 9.625-8.5M228.94 196.42a56.51 56.51 0 0 1 16.177.76" stroke-width="2.75" transform="matrix(2.21506 0 0 2.21503 -43.014 -1.608)"/></g><path d="M242.3 252.12a8.453 8.453 0 0 1-4.25 3.375c-1.314.467-2.734.6-4.125.5-1.108-.079-2.204-.301-3.313-.348a10.544 10.544 0 0 0-5.406 1.242" stroke-linejoin="round" stroke-width="2.75" style="paint-order:markers fill stroke" transform="matrix(2.21506 0 0 2.21503 -43.014 -1.608)"/><g stroke-linecap="round"><g stroke-linejoin="round" stroke-width="2.75"><path d="M281.6 197.8a18.252 18.252 0 0 1 8.309-4.95c2.578-.706 5.284-.835 7.955-.707 1.658.08 3.312.257 4.95.53M285.24 184.87a30.546 30.546 0 0 1 8.75-2.875 30.544 30.544 0 0 1 9.25-.125M111.24 243.24a13.778 13.778 0 0 1 5.625-3.875 13.785 13.785 0 0 1 7.125-.625M119.37 232.12a14.97 14.97 0 0 1 5.5-.625c1.814.133 3.603.602 5.25 1.375" transform="matrix(2.21506 0 0 2.21503 -43.014 -1.608)"/></g><g stroke-linejoin="bevel" stroke-width="2"><path d="M188.97 380.24a13.72 13.72 0 0 1-.53-5.657 13.718 13.718 0 0 1 1.767-5.303M204.7 377.94a33.11 33.11 0 0 1 0-4.243c.193-2.998.8-5.982 1.953-8.756 1.048-2.52 2.535-4.841 4.234-6.977a40.104 40.104 0 0 1 3.536-3.889M205.23 351.07a41.207 41.207 0 0 1 8.132-7.425 41.23 41.23 0 0 1 11.844-5.656M288.14 430.09a25.72 25.72 0 0 1 .177-8.485 25.8 25.8 0 0 1 5.657-11.844M297.33 445.12a25.687 25.687 0 0 1-1.237-10.783 25.728 25.728 0 0 1 4.419-12.021M289.55 478a22.869 22.869 0 0 1-1.414-7.071 22.894 22.894 0 0 1 1.414-8.839M305.82 494.44a19.304 19.304 0 0 1-3.712-8.309c-.47-2.568-.41-5.233.176-7.778M361.5 81.132a2.775 2.775 0 0 1 1.237-1.944 2.77 2.77 0 0 1 2.122-.354" style="paint-order:normal" transform="matrix(2.21506 0 0 2.21503 -43.014 -1.608)"/></g><path d="M284.43 568.59a22.048 22.048 0 0 1 7.071-4.596 22.042 22.042 0 0 1 7.778-1.591M284.51 576.9a19.187 19.187 0 0 1 6.452-4.95 19.168 19.168 0 0 1 6.718-1.768" stroke-width="2" style="paint-order:normal" transform="matrix(2.21506 0 0 2.21503 -43.014 -1.608)"/></g></g><path transform="translate(6.326 2.308) scale(2.0148)" d="m489.32 72.77 12.817 67.213 64.961-21.491-51.8 44.706 51.093 45.512-64.617-22.507-13.869 67.004-12.817-67.213-64.961 21.491 51.8-44.706-51.093-45.512 64.617 22.507z" fill="#f00000" stroke="#000" stroke-linecap="square" stroke-width="3" style="paint-order:normal"/><g><path d="M-306.58-432.99h1209.8V270.7c-1.611 54.706-8.136 106.71-20.406 160.06-26.257 114.54-76.777 223.14-146.59 317.76-40.218 54.812-87.079 105.03-138.44 149.55-88.399 76.565-191.06 136.42-299.47 179.89v0c-82.152-32.953-161.46-75.443-233.18-127.4-99.798-72.088-185.52-163.02-249.2-268.53-75.112-124.1-118.75-266.49-122.53-411.46z" fill="none" stroke="#000" stroke-linecap="round" stroke-miterlimit="1000" stroke-width="11.478" style="paint-order:fill markers stroke" transform="translate(312.32 438.73)"/></g></svg>