<svg xmlns="http://www.w3.org/2000/svg" xml:space="preserve" width="500" height="600" viewBox="-2.5 -2.5 502 523"><path fill="#094" stroke="#000" stroke-width="8.03" d="M1.51-38v281c20.1 261 237 311 247 313 10-2.01 227-52.2 247-313V-38z"/><path d="M231 34.8c0 24-19.5 43.5-43.5 43.5S144 58.8 144 34.8s19.5-43.5 43.5-43.5S231 10.8 231 34.8zm34.6 0c0 24 19.5 43.5 43.5 43.5s43.5-19.5 43.5-43.5-19.5-43.5-43.5-43.5-43.5 19.5-43.5 43.5zm-155.6 0c0 24-19.5 43.5-43.5 43.5S23 58.8 23 34.8 42.5-8.7 66.5-8.7 110 10.8 110 34.8zm278 0c0 24 19.5 43.5 43.5 43.5S475 58.8 475 34.8 455.5-8.7 431.5-8.7 388 10.8 388 34.8z" fill="#fff" fill-rule="evenodd" stroke="#000" stroke-linecap="round" stroke-linejoin="round" stroke-width="4.02" class="UnoptimicedTransforms"/><g fill="#fff" fill-rule="evenodd" stroke="#000" stroke-linecap="round" stroke-linejoin="round" stroke-miterlimit="1000" stroke-width="4.02"><path d="M249 86.9c-15.4 0-27.9 12.5-27.9 27.9.016 8.32 3.75 16.2 10.2 21.5h-.065v42.3h-42.3v.004c-5.3-6.41-13.2-10.1-21.5-10.1-15.4 0-27.9 12.5-27.9 27.9 0 15.4 12.5 27.9 27.9 27.9a27.89 27.89 0 0 0 21.5-10.2v.065h42.3v82.7h35.5v-82.7h42.3v-.065c5.28 6.43 13.2 10.2 21.5 10.2 15.4 0 27.9-12.5 27.9-27.9 0-15.4-12.5-27.9-27.9-27.9a27.89 27.89 0 0 0-21.5 10.2v-.065h-42.3v-42.3h-.064c6.43-5.28 10.2-13.2 10.2-21.5 0-15.4-12.5-27.9-27.9-27.9z" style="paint-order:fill markers stroke"/><circle cx="249" cy="405" r="113" style="paint-order:fill markers stroke"/><path d="M361 447a7.776 7.776 0 0 0 2.01-2.01 7.636 7.636 0 0 0 1.35-4.08 7.206 7.206 0 0 0-1.15-4.13 6.925 6.925 0 0 0-2.01-2.01h-225a6.925 6.925 0 0 0-2.01 2.01c-.796 1.22-1.2 2.68-1.15 4.13s.526 2.89 1.35 4.08c.54.784 1.22 1.47 2.01 2.01zm-228-49a5.47 5.47 0 0 1-2.84-.747 5.477 5.477 0 0 1-2.04-2.11 5.404 5.404 0 0 1-.637-2.93c.071-1.01.44-2 1.06-2.8 1.03-1.35 2.77-2.13 4.46-2.01h85.2v-93.3a5.223 5.223 0 0 1 2.01-4.46 5.29 5.29 0 0 1 2.8-1.06 5.401 5.401 0 0 1 2.93.637 5.506 5.506 0 0 1 2.11 2.04c.501.856.763 1.85.747 2.84v104zm231 0a5.47 5.47 0 0 0 2.84-.747 5.477 5.477 0 0 0 2.04-2.11c.482-.891.708-1.92.637-2.93-.071-1.01-.44-2-1.06-2.8-1.03-1.35-2.77-2.13-4.46-2.01h-85.2v-93.3a5.223 5.223 0 0 0-2.01-4.46 5.29 5.29 0 0 0-2.8-1.06 5.401 5.401 0 0 0-2.93.637 5.506 5.506 0 0 0-2.11 2.04 5.482 5.482 0 0 0-.747 2.84v104z" style="paint-order:fill markers stroke"/></g></svg>