<?xml version="1.0" encoding="UTF-8" standalone="no"?>
<svg
   version="1.1"
   width="676"
   height="706"
   id="svg346"
   sodipodi:docname="wappenZeneggen.svg"
   inkscape:version="1.2.1 (9c6d41e410, 2022-07-14)"
   xmlns:inkscape="http://www.inkscape.org/namespaces/inkscape"
   xmlns:sodipodi="http://sodipodi.sourceforge.net/DTD/sodipodi-0.dtd"
   xmlns="http://www.w3.org/2000/svg"
   xmlns:svg="http://www.w3.org/2000/svg">
  <defs
     id="defs350" />
  <sodipodi:namedview
     id="namedview348"
     pagecolor="#ffffff"
     bordercolor="#000000"
     borderopacity="0.25"
     inkscape:showpageshadow="2"
     inkscape:pageopacity="0.0"
     inkscape:pagecheckerboard="0"
     inkscape:deskcolor="#d1d1d1"
     showgrid="false"
     showguides="false"
     inkscape:zoom="2.05722"
     inkscape:cx="351.93125"
     inkscape:cy="300.64845"
     inkscape:window-width="2560"
     inkscape:window-height="1343"
     inkscape:window-x="0"
     inkscape:window-y="30"
     inkscape:window-maximized="1"
     inkscape:current-layer="svg346">
    <inkscape:grid
       type="xygrid"
       id="grid8693" />
  </sodipodi:namedview>
  <path
     fill="none"
     stroke="#000"
     stroke-width="15"
     d="m9,9 34,368a295,349 0 0,0 588,0l34-368z"
     id="path344"
     style="stroke-width:2;stroke-dasharray:none" />
  <path
     style="fill:#e70003;stroke:#000000;stroke-width:2;stroke-dasharray:none;stroke-opacity:1"
     d="M 32.182575,256.6916 642.47045,256.6288"
     id="path1818"
     sodipodi:nodetypes="cc" />
  <path
     style="fill:#d70000;fill-opacity:1;stroke:#000000;stroke-width:0.628449;stroke-dasharray:none;stroke-opacity:1"
     d="m 177.73664,248.06481 c -7.23785,-1.21084 -15.48002,-0.89783 -21.91943,-1.08071 -5.20994,-1.18265 -10.98375,-3.41302 -13.12006,-6.60056 -0.45391,-0.7876 -1.48479,-3.56335 -2.29087,-6.16824 -0.46687,-8.61773 -0.24107,-11.45103 -6.2054,-13.23735 -1.80054,-1.09346 -3.60111,-2.18693 -5.40165,-3.28041 3.11803,-2.07784 8.46456,-0.47726 12.11406,0.1808 0.58787,-1.46902 2.01393,-3.37461 1.4097,-4.53235 -0.22253,-0.40125 -3.56988,-2.19067 -7.43838,-3.97643 -3.86846,-1.7858 -7.20362,-3.34984 -7.41146,-3.4757 -2.9193,-1.76754 5.73432,-3.00636 8.9613,-1.28288 3.87926,2.22498 8.20644,3.76452 12.84838,3.75697 1.67795,-1.33111 3.19493,-2.79882 2.9818,-4.15286 -1.94299,-3.18879 -7.00407,-1.76411 -12.55374,-4.13572 -0.82467,-2.58347 -3.714,-6.89079 -7.38366,-7.39521 -3.01918,-1.61155 2.63114,-2.12117 4.59385,-2.11883 3.77726,1.2582 8.30887,3.59996 11.37961,2.89207 2.53089,-0.33361 3.66523,-1.99129 4.93109,-3.16761 l 0.13369,-7.01803 0.13369,-7.01804 c -10.76582,-3.42679 -15.95455,-6.13124 -18.33435,-13.66008 -1.26613,-4.59703 -0.18791,-8.39105 0.3168,-13.03818 l -0.49183,-5.07776 -0.49183,-5.07774 -2.00053,-1.81412 -2.00049,-1.81413 c 4.91924,-0.72872 7.61362,0.80319 10.70261,2.80482 1.01121,-0.96018 2.02245,-1.92036 3.03369,-2.88053 l 1.27546,0.54522 c 2.59467,-1.87197 5.49595,-1.09487 7.71841,0.0403 l -6.12506,4.81294 c -1.50396,2.12327 -3.96011,2.54804 -5.46407,4.67133 0.27771,8.06514 -1.81445,13.06885 2.11717,19.21652 2.51237,3.92846 6.57532,3.07917 13.20347,3.99605 l 2.27532,0.31476 c 11.60518,-3.01109 13.46922,-5.84708 18.14449,-12.41857 3.1652,-8.42191 2.24763,-16.81601 2.24763,-25.78601 -0.54826,-5.00563 -3.5439,-9.00666 -2.17385,-12.78069 7.72435,-1.68886 5.27989,-9.88783 8.64263,-13.67432 1.01143,-1.53363 2.59619,0.84616 2.60132,1.26372 -1.13373,3.45954 -2.68167,6.00966 -4.51732,9.45319 l 0.8816,5.69155 -0.52163,12.65885 c 1.64885,-0.18381 3.29768,-0.36765 4.94654,-0.55149 4.03767,3.20325 8.07536,6.40648 12.11303,9.60974 l 1.17611,3.13515 c 0.88675,0.11813 1.19718,0.40957 2.66025,0.35438 1.99225,-1.49261 3.98448,-2.98524 5.97672,-4.47787 2.758,0.9356 5.51602,1.87117 8.27398,2.80677 -4.93915,8.15532 -16.48536,13.96005 -25.46784,20.13897 -2.52049,3.48469 -3.6508,6.29538 -4.6323,9.9331 0.3208,7.47274 1.04209,13.18976 2.30415,19.90415 -1.27358,5.05562 -4.80647,9.76167 -7.97753,13.8973 -2.94512,1.77414 -6.66663,5.52794 -8.44322,5.31753 l -0.90216,-1.78448 c -2.80954,-4.43075 -0.2052,-4.64034 -1.7432,-5.66794 -1.98851,1.74842 -0.80607,5.2663 -0.62845,7.30023 -3.71331,2.52064 -7.42657,5.04129 -11.13988,7.56194 -4.07304,5.11069 0.005,10.98372 6.85536,12.93305 2.10551,-0.39678 4.21102,-0.79355 6.3165,-1.19033 2.11261,-1.70727 4.80488,-2.30279 7.47295,-2.77283 l 0.87437,-0.86656 c 0.50183,0.60992 1.0037,1.21983 1.50556,1.82976 l -4.28182,3.00606 -4.28182,3.00608 h 0.77429 c 1.11335,0 5.58448,-2.36299 6.8664,-3.62888 l 2.29267,-0.52164 0.69087,-0.49154 0.9207,-0.063 c 1.08432,1.2135 2.16862,2.42699 3.25293,3.6405 -1.59755,1.47497 -4.31964,2.36314 -6.13938,3.114 -8.16109,3.35352 -7.11339,4.31928 1.65362,1.52427 l 4.01969,-1.11513 1.38679,1.6216 c -1.77555,0.61337 1.89831,3.24703 2.06201,5.06884 -1.39532,0.68556 -2.79062,1.37111 -4.18593,2.05665 -3.81645,0.087 -8.20555,0.44956 -11.37412,-0.26435 z m 77.09589,-27.15082 c -10.06976,-3.4519 -23.61963,-5.13688 -33.40068,-5.22687 -1.79685,-2.68755 -3.29553,-3.06876 -4.39141,-4.44375 v -13.77173 c 0.69114,-4.62999 -5.51301,-3.90687 -8.31427,-5.04889 h -14.44051 c -2.76747,-4.58512 -2.70533,-10.27578 -2.95468,-13.38164 l -0.39441,-5.01687 c 12.24548,-5.46926 18.18863,-8.03207 29.28148,-8.31343 7.82344,-0.39969 10.87704,0.80856 16.59782,3.42953 2.24329,3.44456 2.08014,5.34543 8.33171,8.22923 5.04629,3.93616 4.23641,3.29031 -1.09006,3.29031 -2.65154,-0.43844 -14.5724,-7.79759 -12.25436,-4.31305 4.66635,2.91673 7.14709,3.5956 12.99206,6.02707 1.05531,7.46167 -8.97833,10.40419 -8.2763,17.84588 1.21057,2.23659 2.88541,3.67697 5.24305,5.53425 4.37073,-0.0206 7.13609,-0.50723 8.91351,-3.21573 1.35367,-1.20673 2.96092,-1.70788 4.91299,-2.53112 l 1.87605,0.32735 1.3835,-0.26595 0.14173,1.30644 c -8.4604,5.98714 -3.42054,3.96951 3.81271,1.19481 l 1.36228,-0.42979 c 0.74754,0.97951 0.11588,1.78645 0.11588,2.87022 -3.83869,1.9517 -10.72575,3.70418 -10.05098,4.9594 3.95722,-0.57327 7.58839,-1.98938 10.48875,-1.83828 2.33427,-0.25434 2.86126,0.42271 3.99069,-0.41989 0.90576,1.78448 1.25966,2.49636 -0.33287,3.60361 l -2.79605,0.75027 c -2.59838,-0.91955 -4.11726,-0.18931 -6.68319,0.51015 -5.74499,1.56607 -2.66526,3.71071 1.88242,2.84291 l 7.38632,-1.4094 -0.42674,1.9317 c 0.42683,0.77676 1.87585,1.24155 1.07672,1.89853 l -1.6037,1.31838 c -4.41956,1.32283 -8.18175,2.31459 -12.37946,1.75635 z m -8.69218,-68.14581 c -11.41695,-5.74648 -24.22739,-7.75659 -35.45103,-13.48347 -2.14451,-1.1642 -2.32754,-1.08701 -2.8486,1.20136 -0.61085,1.26635 -0.63511,3.57816 -2.76853,3.57816 -1.89843,-0.34999 -2.1145,-2.17774 -2.76411,-3.39817 -3.52453,-2.92037 -7.04906,-5.84074 -10.57356,-8.76113 6.96035,-5.44802 8.4128,-10.82617 10.29484,-17.37861 l 0.52461,4.25436 c 0.45116,2.43023 0.85656,4.41553 1.21359,6.76167 1.49701,4.02205 0.12503,7.09369 4.98891,8.17692 2.32084,-1.52908 4.96689,-3.0757 7.07568,-4.35636 2.54657,-4.12559 3.23567,-7.42788 3.48697,-8.38817 0.48496,-1.73396 0.20478,-4.68894 2.1605,-5.60939 1.96146,0.62709 1.40396,2.41321 1.60427,3.73543 -0.29777,3.15617 -0.21127,2.84504 -0.89934,5.97299 -0.19947,1.10426 -0.87509,2.02475 0.34742,2.87032 1.17983,0.91525 3.50007,0.0447 5.05084,-0.1707 l 4.9629,0.46175 c 5.59326,4.14008 9.29638,6.45292 14.45135,10.61037 7.36726,1.90733 8.47874,3.10113 8.81844,-2.34001 0.48188,-2.18656 -0.56468,-4.18328 2.60922,-4.98834 1.54752,-0.1443 0.49997,1.60552 0.38522,2.30968 l -0.37636,2.30966 c 0.66489,-0.17649 1.32979,-0.35297 1.9947,-0.52945 0.75364,-1.35232 1.1978,-3.16356 2.80199,-4.13777 l 1.13985,-0.6543 0.21568,1.60503 1.21799,0.3225 c 2.04852,3.87305 -1.52228,6.63388 1.18441,5.10779 1.7386,-1.04952 3.44328,-0.1 5.04358,-1.83313 1.15908,2.36507 1.38115,1.78552 0.37418,5.47857 -3.28686,2.53599 -5.85781,1.73408 -5.85781,4.70375 l 3.27876,-1.32903 c 1.80331,-0.73095 3.80155,-1.32902 4.44058,-1.32902 l 1.0616,-0.90126 0.57261,2.53499 c -8.51428,7.22681 -15.79869,8.30938 -27.11582,8.25352 -0.88185,-0.22015 -1.76375,-0.44028 -2.64552,-0.66049 z m -98.81143,-43.4698 c -0.17788,-5.37369 -0.66843,-10.735688 -1.13459,-16.099789 -2.51058,-8.719254 -4.85169,-18.658551 -10.29376,-25.253623 L 131.8758,66.45924 c -4.95082,-1.840273 -7.60179,-3.732349 -9.91589,-6.810393 v -7.129058 l 1.54458,-1.06833 0.53575,1.975206 c 1.07186,3.534335 4.19332,7.11703 8.73994,8.558788 h 0.65605 c -5.22986,-6.512282 -4.3623,-14.190656 -2.14769,-20.694376 3.05136,-8.928091 3.52991,-9.216379 6.86955,-4.138377 l 1.37533,2.091178 c 0.0855,2.864566 -0.41504,16.834651 1.63181,16.990836 1.86536,-3.376315 1.58207,-7.777959 4.20696,-10.936059 l 1.2026,-1.2695 2.06094,1.949497 v 6.96326 c -2.47762,5.897935 -5.67697,8.563248 -6.93333,14.01009 l 1.52873,4.182361 c 4.66635,13.376727 8.04143,27.264146 7.46367,39.993787 -0.95687,8.20495 -2.50646,14.53718 -3.60089,21.66057 -1.83107,1.43882 -3.87273,2.90053 -6.21439,2.91081 2.49846,-8.96983 5.05558,-18.28831 6.4494,-26.40115 z m 39.57269,5.22794 c 1.05678,-5.16427 6.22257,-7.55896 1.69093,-11.37677 -2.17373,-0.20796 -3.81476,0.0364 -4.72943,0.999 -0.81098,3.78277 -2.04897,7.88632 -3.56778,11.09299 -2.26331,1.25441 -5.19386,3.69675 -7.44519,3.72853 0.30941,-1.56137 0.61883,-3.12273 0.92824,-4.68409 -0.90598,-4.45077 -1.81193,-8.90156 -2.71791,-13.35231 2.06026,-3.131149 4.7764,-6.34637 7.06284,-8.887504 -0.0829,-1.358805 -0.47301,-2.541223 -1.71182,-3.081366 -1.64865,-0.904302 -3.35411,-0.03688 -3.96817,0.547666 l -2.26751,2.895047 c -2.18969,2.705425 -6.82551,7.309404 -10.95418,5.591465 4.36163,-3.530095 2.45993,-9.171632 2.41016,-13.271951 l -4.04747,-9.410308 c -0.62631,-3.810938 0.80595,-6.022669 2.78199,-9.385554 2.17149,-3.695453 2.07362,-3.816739 -2.41021,-2.987251 -4.42181,0.818003 -3.40208,0.878289 -2.64644,-2.397664 0.52671,-2.283544 1.14272,-3.914755 1.78933,-5.899207 0.83366,-2.783411 3.44333,-5.480352 5.2876,-7.980804 1.49258,1.507683 3.84211,1.564362 5.09755,1.575478 -2.99248,-2.287332 -4.99085,-5.301969 -6.17615,-7.812752 -0.18592,-2.213319 0.48011,-3.45608 0.72016,-5.184126 0.41693,-0.877642 0.70856,-1.21802 2.22803,-1.541055 4.60675,-0.142977 5.80568,0.181988 9.68576,1.078903 l 7.36058,2.64136 c -0.60435,-1.019936 -1.24818,-2.123221 -1.75777,-2.997281 2.4997,-0.710502 5.20076,-1.312776 7.62943,-1.747263 3.81637,-0.900868 8.44777,-0.318782 11.62712,0.617018 l 1.98584,0.625848 c 0.19676,0.878207 -0.3312,1.299751 -1.00228,2.006174 l -2.96588,1.47007 c -2.44623,1.232835 -5.12387,1.129944 -6.97165,2.084395 l -0.44723,0.500527 c 0.74063,0.58123 1.2278,1.160162 4.50942,1.612919 1.62503,-0.03467 2.64871,-0.155977 4.07329,-0.155977 1.72129,-0.195912 2.26488,0.04149 3.56019,-1.471686 v -3.995042 c 0.18632,-1.030024 0.19724,-1.193442 2.21276,-1.270218 l 7.41006,-0.282427 7.41011,-0.282418 c 0.64271,0.535692 1.28547,1.071347 1.92823,1.607014 -0.98944,2.785781 0.0507,-0.0092 -1.0138,2.793859 l -3.58637,-0.622577 c 0.33203,1.438466 2.26609,2.120054 3.83748,2.911804 l -0.14232,3.596539 c 0,0 2.62042,3.526154 1.11047,4.237822 -0.82182,0.387342 2.04936,1.21392 -2.97268,-1.104603 -7.22278,-1.128881 -14.40778,0.490671 -17.02923,4.345844 -0.65035,3.107973 -1.99037,4.35889 1.67478,7.174184 6.42568,1.888089 3.87436,9.014641 2.92903,1.89737 -0.10628,-5.013523 4.116,-12.133384 4.62967,-7.515096 -1.86191,2.645914 -3.23943,3.531967 -0.11348,7.479018 2.35463,0.05444 5.01443,-0.04565 6.94655,-0.565145 1.59623,-0.43815 3.29467,-3.024033 1.73003,1.287654 l -0.49667,1.368682 c -8.63547,1.300827 -7.0667,-0.146062 -8.87626,1.489678 l -3.51095,3.173757 -0.16398,3.920964 7.42229,5.732448 c 6.4253,-0.430108 8.46547,-2.229416 19.27585,-1.290324 7.08863,1.108174 9.02122,2.535985 14.20048,5.271302 3.27533,0.142435 6.57663,-0.855466 9.05261,-1.572808 -1.02862,3.886303 -1.33148,4.115938 -5.14498,6.384788 -1.29753,0.473097 -7.93232,0.42624 -12.06137,0.431383 -2.57197,0.719381 -4.51552,2.241267 -5.78702,3.575212 l 3.27144,1.430167 c 2.94945,1.287707 5.5146,2.660327 8.42973,3.98435 1.50284,1.312547 4.0909,5.907918 5.13606,8.679618 0.48558,2.77425 2.00716,4.74447 4.21403,6.96351 2.40138,2.31156 3.11437,2.17766 0.80128,4.10543 -3.82654,0.37596 -5.75078,-1.67488 -8.53453,-3.39822 -1.76368,-1.46865 -7.97164,-5.24219 -9.78967,-2.48328 -0.29203,0.5032 -0.51967,3.4286 -0.81216,6.60684 0.42097,4.12295 -5.83409,13.01219 -10.41216,10.40829 -0.48494,-0.39478 0.0209,-1.03663 -0.0142,-1.5541 -0.22734,-3.34375 2.22849,-7.36361 -1.27102,-10.00375 -2.3019,-1.70896 -4.86818,-0.9542 -5.56622,1.63705 -1.13607,3.57935 -1.36491,7.03558 -3.50179,10.55004 -1.58305,1.90767 -4.35228,5.74093 -7.2753,4.4914 l -2.83301,-19.39105 c -2.63968,-0.24038 -3.01106,0.33915 -4.50425,1.58362 l -1.02959,3.98052 c -0.81373,3.14606 -2.04206,6.17266 -4.29896,9.4085 -2.84513,3.19804 -2.90135,3.23322 -4.72755,4.30928 -1.35239,0.62877 -2.51547,1.62987 -4.18981,1.62987 3.95822,-12.69848 1.41638,-11.85778 1.39513,-18.55922 z m 58.86081,-20.333645 c -2.73592,-1.753419 -8.53841,-3.062986 -9.50999,-4.943594 7.54183,-0.824669 14.21551,0.543015 18.31564,-3.276376 2.12872,-2.534988 2.88046,-4.723038 2.91085,-7.379685 -3.78448,0.680769 -7.9701,1.015165 -11.22488,1.293017 -1.34514,-0.930405 -2.69029,-1.860808 -4.03543,-2.791212 7.10858,-4.988355 12.15305,-7.966989 15.98294,-13.802362 0.0121,-1.967338 1.70172,-1.508238 0.0343,-5.902003 -1.97974,-4.080285 -3.53025,-8.6241 -4.54864,-12.326762 l 0.43913,-0.957017 0.16349,-1.424956 0.97708,0.767796 c 0.29964,0.235454 0.70329,0.697663 0.70565,1.183873 0.3064,1.36808 1.13938,2.118472 2.10985,4.320815 1.40577,-0.252604 1.6108,-1.995037 2.03885,-2.979047 l 0.30474,-3.205453 c 0.55498,-1.869244 1.11745,-0.536373 2.2845,-1.939998 l 0.98554,-1.543066 c 2.13137,2.260524 1.36491,4.459574 1.12337,7.038348 -0.0957,1.909318 -1.08759,4.038237 0.57393,4.993739 l 1.35311,-3.425182 c 2.19524,-4.615087 0.99336,-3.102621 2.7166,-4.728713 l 1.10942,0.01734 1.68572,-1.005238 0.59941,1.94396 c 0.49889,1.617971 1.59962,1.256086 -0.63867,3.537434 -2.38193,1.820027 -2.19422,4.210713 -0.54101,6.103183 1.05091,-2.298727 3.02743,-3.950982 5.20891,-5.755709 2.95645,0.114977 3.31343,-3.808686 4.95976,2.032186 -1.13346,4.552805 -2.38799,9.470045 -2.43212,13.591469 -2.17867,9.036625 -0.34196,4.026357 -3.56385,10.052736 -4.40617,1.596557 -8.23037,3.044323 -9.47464,5.657025 2.34117,-1.057734 5.35587,-1.147682 7.64411,-1.147127 1.14794,2.629098 -0.34377,3.574062 -5.48186,9.431082 -3.67145,4.243576 -10.13916,9.152309 -17.86005,13.571892 -0.86272,-3.229131 -3.04772,-5.040214 -4.91574,-7.002382 z"
     id="path1730"
     sodipodi:nodetypes="ccccccccsccccccccccccccccccccccccscccccccccccccccccccccccccccccccsscccccscccccccccccccccccccccccccccccccccccsccsccccccccccccccccccccccccccccccccccsscccccccccccccccscccccccccccccccccccccccccccssccccccccccccccccccccccccccccscccccccscsccccccccccccccccccaccccccsccccccccccccccsccccccccccccsccccccccccccccc" />
  <path
     style="fill:#d70000;fill-opacity:1;stroke:#000000;stroke-width:0.597569;stroke-dasharray:none;stroke-opacity:1"
     d="m 503.74619,247.08558 c 6.63519,-1.19421 14.19108,-0.8855 20.09432,-1.06587 4.77614,-1.16639 10.06919,-3.36613 12.02762,-6.50987 0.41612,-0.77679 1.36117,-3.51439 2.10013,-6.0835 0.42799,-8.49934 0.221,-11.2937 5.68871,-13.05548 1.65062,-1.07845 3.30126,-2.15689 4.95188,-3.23534 -2.8584,-2.0493 -7.75975,-0.47072 -11.10539,0.17832 -0.53892,-1.44885 -1.84623,-3.32826 -1.29232,-4.47009 0.204,-0.39574 3.27264,-2.16058 6.81902,-3.9218 3.54636,-1.76127 6.60383,-3.30382 6.79437,-3.42795 2.67621,-1.74325 -5.25686,-2.96506 -8.21516,-1.26526 -3.55624,2.19441 -7.52312,3.7128 -11.77855,3.70536 -1.53824,-1.31282 -2.92892,-2.76037 -2.73354,-4.0958 1.78121,-3.14499 6.42089,-1.73987 11.50847,-4.07891 0.756,-2.54797 3.40476,-6.79612 6.76887,-7.29361 2.76779,-1.5894 -2.41207,-2.09202 -4.21136,-2.08972 -3.46274,1.24092 -7.61703,3.5505 -10.43209,2.85235 -2.32016,-0.32903 -3.36005,-1.96395 -4.5205,-3.1241 l -0.12256,-6.92161 -0.12256,-6.92162 c 9.86941,-3.37971 14.6261,-6.04701 16.80774,-13.4724 1.16072,-4.53388 0.17227,-8.27578 -0.2904,-12.85906 l 0.45087,-5.008 0.45088,-5.00798 1.83395,-1.7892 1.83393,-1.78921 c -4.50965,-0.7187 -6.97968,0.79216 -9.81147,2.76629 -0.92701,-0.94698 -1.85406,-1.89398 -2.78109,-2.84096 l -1.16927,0.53774 c -2.37862,-1.84625 -5.03833,-1.07983 -7.07573,0.0398 l 5.61506,4.74682 c 1.37873,2.09409 3.63037,2.51304 5.0091,4.60714 -0.25458,7.95434 1.66338,12.88931 -1.94088,18.95252 -2.30318,3.87449 -6.02783,3.03687 -12.10409,3.94115 l -2.08587,0.31043 c -10.63887,-2.96972 -12.34771,-5.76675 -16.6337,-12.24795 -2.90165,-8.30621 -2.06048,-16.58498 -2.06048,-25.43174 0.5026,-4.93686 3.24882,-8.88292 1.99285,-12.60511 -7.0812,-1.66566 -4.84027,-9.75198 -7.92301,-13.48644 -0.92722,-1.51257 -2.38002,0.83453 -2.38473,1.24635 1.03933,3.41202 2.45838,5.92709 4.14119,9.32333 l -0.80819,5.61334 0.4782,12.48494 c -1.51156,-0.18129 -3.02311,-0.36261 -4.53467,-0.54392 -3.70148,3.15924 -7.40297,6.31847 -11.10445,9.47772 l -1.07818,3.09208 c -0.81292,0.1165 -1.0975,0.40394 -2.43875,0.34951 -1.82636,-1.47211 -3.65271,-2.94424 -5.47907,-4.41635 -2.52836,0.92274 -5.05672,1.84546 -7.58505,2.7682 4.52789,8.04328 15.11272,13.76826 23.34728,19.86229 2.31062,3.43681 3.34681,6.20889 4.24659,9.79663 -0.29409,7.37007 -0.95533,13.00855 -2.1123,19.63069 1.16754,4.98617 4.40626,9.62756 7.31329,13.70637 2.6999,1.74977 6.11153,5.452 7.7402,5.24448 l 0.82703,-1.75996 c 2.57561,-4.36988 0.18812,-4.5766 1.59807,-5.59007 1.82293,1.7244 0.73895,5.19394 0.57612,7.19994 3.40412,2.486 6.8082,4.97202 10.21232,7.45804 3.7339,5.04047 -0.005,10.83282 -6.28455,12.75537 -1.93019,-0.39134 -3.86039,-0.78265 -5.79056,-1.17398 -1.9367,-1.68381 -4.4048,-2.27116 -6.85072,-2.73474 l -0.80157,-0.85466 c -0.46005,0.60155 -0.92013,1.20308 -1.3802,1.80464 l 3.9253,2.96476 3.92529,2.96478 h -0.70982 c -1.02064,0 -5.11949,-2.33053 -6.29466,-3.57903 l -2.10178,-0.51448 -0.63334,-0.48479 -0.84405,-0.0622 c -0.99403,1.19683 -1.98805,2.39364 -2.98206,3.59049 1.46452,1.45471 3.95996,2.33067 5.62818,3.07122 7.48156,3.30745 6.52109,4.25994 -1.51594,1.50332 l -3.68499,-1.09981 -1.27132,1.59932 c 1.62772,0.60496 -1.74025,3.20243 -1.89031,4.9992 1.27913,0.67614 2.55826,1.35228 3.83738,2.0284 3.49868,0.0859 7.52233,0.44339 10.42707,-0.26072 z m -70.67655,-26.77781 c 9.23131,-3.40448 21.65296,-5.0663 30.6196,-5.15506 1.64723,-2.65062 3.02112,-3.02659 4.02575,-4.38269 v -13.58254 c -0.63359,-4.56637 5.05398,-3.85319 7.62199,-4.97951 h 13.23813 c 2.53704,-4.52214 2.48007,-10.13461 2.70866,-13.1978 l 0.36158,-4.94794 c -11.22588,-5.39412 -16.67417,-7.92173 -26.84338,-8.19922 -7.17203,-0.39421 -9.97138,0.79745 -15.21582,3.38241 -2.0565,3.39724 -1.90694,5.272 -7.63797,8.11618 -4.62611,3.88208 -3.88367,3.24509 0.99929,3.24509 2.43077,-0.4324 13.35904,-7.69045 11.23401,-4.25378 -4.27781,2.87665 -6.55199,3.5462 -11.91028,5.94426 -0.96744,7.35916 8.23076,10.26126 7.58718,17.6007 -1.10977,2.20587 -2.64516,3.62645 -4.80649,5.45822 -4.00681,-0.0203 -6.54191,-0.50026 -8.17133,-3.17156 -1.24096,-1.19014 -2.71439,-1.68441 -4.50392,-2.49633 l -1.71984,0.32284 -1.2683,-0.2623 -0.12993,1.2885 c 7.75595,5.90488 3.13574,3.91497 -3.49524,1.1784 l -1.24886,-0.42389 c -0.68529,0.96605 -0.10623,1.76191 -0.10623,2.83079 3.51907,1.92488 9.83267,3.65329 9.21409,4.89126 -3.62772,-0.5654 -6.95655,-1.96205 -9.61541,-1.81302 -2.1399,-0.25085 -2.62302,0.4169 -3.6584,-0.41412 -0.83035,1.75997 -1.15479,2.46206 0.30516,3.55409 l 2.56323,0.73997 c 2.38202,-0.90691 3.77443,-0.1867 6.12672,0.50314 5.26663,1.54456 2.44333,3.65972 -1.72569,2.80385 l -6.7713,-1.39004 0.39121,1.90517 c -0.39129,0.76609 -1.71967,1.22449 -0.98707,1.87244 l 1.47016,1.30028 c 4.05157,1.30465 7.50051,2.28278 11.3487,1.73221 z m 7.96844,-67.20957 c 10.46631,-5.66754 22.2101,-7.65003 32.49921,-13.29822 1.96595,-1.14821 2.13374,-1.07208 2.61142,1.18484 0.55999,1.24896 0.58222,3.52901 2.53801,3.52901 1.74036,-0.34519 1.93843,-2.14782 2.53395,-3.35148 3.23107,-2.88025 6.46212,-5.76051 9.69316,-8.64077 -6.3808,-5.37317 -7.71231,-10.67743 -9.43764,-17.13985 l -0.48093,4.19591 c -0.4136,2.39684 -0.78524,4.35486 -1.11254,6.66877 -1.37237,3.9668 -0.11462,6.99623 -4.57351,8.06458 -2.1276,-1.50807 -4.55333,-3.03343 -6.48653,-4.2965 -2.33453,-4.06891 -2.96626,-7.32583 -3.19664,-8.27293 -0.44457,-1.71014 -0.18772,-4.62452 -1.9806,-5.53233 -1.79814,0.61848 -1.28706,2.38006 -1.47069,3.68411 0.27297,3.11282 0.19368,2.80595 0.82446,5.89094 0.18285,1.08909 0.80222,1.99693 -0.31849,2.83088 -1.0816,0.90267 -3.20864,0.0441 -4.63029,-0.16836 l -4.54967,0.4554 c -5.12754,4.08321 -8.52232,6.36427 -13.24807,10.4646 -6.75383,1.88113 -7.77276,3.05853 -8.08417,-2.30785 -0.44176,-2.15652 0.51766,-4.12581 -2.39196,-4.91982 -1.41868,-0.14231 -0.45835,1.58347 -0.35315,2.27795 l 0.34502,2.27793 c -0.60953,-0.17406 -1.21906,-0.34812 -1.82861,-0.52217 -0.6909,-1.33375 -1.09807,-3.1201 -2.56869,-4.08093 l -1.04494,-0.64531 -0.19772,1.58299 -1.11657,0.31806 c -1.87795,3.81985 1.39552,6.54274 -1.08579,5.03761 -1.59383,-1.03509 -3.15658,-0.0986 -4.62363,-1.80793 -1.06258,2.33256 -1.26615,1.76099 -0.34303,5.4033 3.01319,2.50114 5.37006,1.71026 5.37006,4.63912 l -3.00575,-1.31077 c -1.65316,-0.72091 -3.48501,-1.31076 -4.07084,-1.31076 l -0.97321,-0.88888 -0.52493,2.50016 c 7.80534,7.12753 14.48323,8.19522 24.85805,8.14013 0.80841,-0.21712 1.61688,-0.43423 2.42524,-0.65141 z m 90.58395,-42.87259 c 0.16306,-5.29985 0.61277,-10.588189 1.04011,-15.878599 2.30154,-8.59946 4.44772,-18.402205 9.43666,-24.906669 l 3.68965,-1.465316 c 4.53859,-1.814989 6.96884,-3.681071 9.09025,-6.716826 v -7.031115 l -1.41597,-1.053652 -0.49114,1.94807 c -0.98261,3.485777 -3.84417,7.019251 -8.01222,8.441201 h -0.60142 c 4.7944,-6.422812 3.99908,-13.995696 1.96887,-20.410063 -2.7973,-8.80543 -3.236,-9.089757 -6.29756,-4.08152 l -1.26081,2.062447 c -0.0784,2.825212 0.38047,16.603365 -1.49595,16.757404 -1.71004,-3.329928 -1.45034,-7.6711 -3.85666,-10.785811 l -1.10247,-1.252059 -1.88934,1.922713 v 6.867594 c 2.27132,5.816904 5.20428,8.4456 6.35603,13.81761 l -1.40144,4.1249 c -4.27782,13.192952 -7.37187,26.889572 -6.84222,39.444331 0.8772,8.09222 2.29777,14.33745 3.30107,21.36297 1.6786,1.41906 3.55027,2.86069 5.69695,2.87082 -2.29043,-8.84659 -4.63463,-18.03704 -5.91239,-26.03843 z m -36.2777,5.15612 c -0.96879,-5.09332 -5.70445,-7.45511 -1.55013,-11.22047 1.99273,-0.2051 3.49712,0.0358 4.33564,0.98527 0.74345,3.73081 1.87836,7.77798 3.27071,10.94059 2.07485,1.23718 4.7614,3.64597 6.82526,3.67732 -0.28364,-1.53993 -0.5673,-3.07984 -0.85095,-4.61975 0.83055,-4.38962 1.66107,-8.77926 2.49161,-13.16886 -1.88872,-3.088139 -4.3787,-6.259189 -6.47475,-8.765409 0.0759,-1.34014 0.43362,-2.50631 1.56928,-3.03903 1.51137,-0.89188 3.07484,-0.0364 3.63776,0.54014 l 2.07872,2.85527 c 2.00736,2.66826 6.25718,7.208989 10.04207,5.51464 -3.99845,-3.48158 -2.2551,-9.04562 -2.20948,-13.0896 l 3.71047,-9.281025 c 0.57416,-3.758582 -0.73885,-5.939925 -2.55035,-9.256609 -1.99068,-3.644682 -1.90096,-3.764303 2.20953,-2.94621 4.05363,0.806765 3.1188,0.866222 2.42608,-2.364724 -0.48286,-2.252171 -1.04757,-3.860971 -1.64035,-5.818159 -0.76423,-2.745171 -3.15661,-5.405059 -4.84732,-7.871158 -1.36831,1.486969 -3.5222,1.54287 -4.67311,1.553833 2.74331,-2.255907 4.57529,-5.229127 5.66189,-7.705415 0.17045,-2.182911 -0.44013,-3.408598 -0.66019,-5.112903 -0.38221,-0.865585 -0.64957,-1.201287 -2.04251,-1.519883 -4.22317,-0.141013 -5.32228,0.179487 -8.87928,1.064081 l -6.74771,2.60507 c 0.55404,-1.005923 1.14425,-2.094051 1.61141,-2.956102 -2.29156,-0.70074 -4.76772,-1.29474 -6.99417,-1.723258 -3.4986,-0.888491 -7.74438,-0.314402 -10.65899,0.608541 l -1.8205,0.617249 c -0.18038,0.866142 0.30363,1.281895 0.91884,1.978613 l 2.71892,1.449873 c 2.24254,1.215897 4.69724,1.11442 6.39116,2.055758 l 0.40999,0.493651 c -0.67896,0.573245 -1.12557,1.144222 -4.13395,1.590759 -1.48972,-0.03419 -2.42816,-0.153834 -3.73412,-0.153834 -1.57797,-0.193221 -2.0763,0.04092 -3.26377,-1.451467 v -3.940155 c -0.17079,-1.015873 -0.18081,-1.177047 -2.0285,-1.252767 l -6.79307,-0.278547 -6.79311,-0.278537 c -0.5892,0.52833 -1.17844,1.056627 -1.76768,1.584935 0.90705,2.747508 -0.0466,-0.0091 0.92938,2.755475 l 3.28775,-0.614024 c -0.30437,1.418703 -2.0774,2.090928 -3.51794,2.8718 l 0.13046,3.547127 c 0,0 -2.40223,3.477709 -1.018,4.1796 0.75338,0.38202 -1.87872,1.197241 2.72515,-1.089427 6.62138,-1.113371 13.20814,0.483929 15.61131,4.286138 0.5962,3.065272 1.82465,4.299004 -1.53533,7.075619 -5.89065,1.86215 -3.55176,8.890792 -2.68515,1.871303 0.0974,-4.944644 -3.77328,-11.966687 -4.24418,-7.411848 1.70688,2.609562 2.9697,3.483442 0.10404,7.376266 -2.15858,0.05369 -4.59692,-0.04502 -6.36816,-0.557381 -1.46332,-0.432131 -3.02034,-2.982487 -1.58598,1.269964 l 0.45532,1.349877 c 7.91644,1.282956 6.4783,-0.144056 8.13717,1.469212 l 3.21862,3.130154 0.15033,3.867095 -6.80428,5.65369 c -5.8903,-0.424198 -7.7606,-2.198786 -17.67085,-1.272595 -6.4984,1.092945 -8.27008,2.501145 -13.01809,5.198885 -3.00261,0.14047 -6.02903,-0.84372 -8.29885,-1.5512 0.94297,3.83291 1.22061,4.05938 4.71658,6.29707 1.1895,0.4666 7.27185,0.42038 11.05709,0.42545 2.35782,0.7095 4.13955,2.21048 5.30517,3.52609 l -2.99904,1.41052 c -2.70388,1.27002 -5.05544,2.62379 -7.72784,3.92962 -1.37771,1.29451 -3.75028,5.826739 -4.7084,8.560369 -0.44515,2.73613 -1.84004,4.67928 -3.86316,6.86784 -2.20143,2.2798 -2.85505,2.14775 -0.73456,4.04902 3.50793,0.3708 5.27194,-1.65186 7.8239,-3.35152 1.61684,-1.44848 7.30789,-5.17017 8.97454,-2.44916 0.26772,0.49627 0.47641,3.38149 0.74455,6.51606 -0.38593,4.0663 5.34831,12.83342 9.54519,10.26529 0.44456,-0.38935 -0.0191,-1.02238 0.0131,-1.53275 0.20841,-3.2978 -2.04294,-7.26244 1.16519,-9.86631 2.11023,-1.68548 4.46283,-0.94109 5.10275,1.61456 1.04148,3.53018 1.25126,6.93892 3.21021,10.4051 1.45124,1.88146 3.98989,5.66206 6.66953,4.42969 l 2.59712,-19.12464 c 2.4199,-0.23708 2.76035,0.33449 4.12921,1.56187 l 0.94386,3.92583 c 0.74598,3.10283 1.87203,6.08785 3.94102,9.27924 2.60822,3.1541 2.65976,3.18879 4.33391,4.25007 1.23978,0.62014 2.30602,1.60748 3.84094,1.60748 -3.62864,-12.52403 -1.29845,-11.69486 -1.27896,-18.30424 z m -53.9598,-20.054289 c 2.50812,-1.72933 7.82747,-3.0209 8.71815,-4.87568 -6.91387,-0.81333 -13.03187,0.53556 -16.7906,-3.23136 -1.95148,-2.50016 -2.64062,-4.65815 -2.66848,-7.2783 3.46937,0.67142 7.30648,1.00122 10.29025,1.27525 1.23314,-0.91762 2.46628,-1.83524 3.69943,-2.75286 -6.5167,-4.919819 -11.14114,-7.857531 -14.65214,-13.612734 -0.011,-1.940309 -1.56004,-1.487516 -0.0314,-5.820916 1.8149,-4.024229 3.2363,-8.505617 4.1699,-12.157409 l -0.40256,-0.943869 -0.14988,-1.40538 -0.89573,0.757247 c -0.27468,0.23222 -0.64473,0.688079 -0.64688,1.167609 -0.28089,1.349285 -1.04452,2.089367 -1.93418,4.261453 -1.28872,-0.249133 -1.47667,-1.967628 -1.86908,-2.938119 l -0.27937,-3.161414 c -0.50877,-1.843563 -1.02441,-0.529004 -2.09428,-1.913345 l -0.90349,-1.521866 c -1.95389,2.229467 -1.25125,4.398305 -1.02982,6.94165 0.0878,1.883086 0.99702,3.982757 -0.52615,4.925132 l -1.24044,-3.378125 c -2.01246,-4.551681 -0.91066,-3.059995 -2.49042,-4.663746 l -1.01703,0.01709 -1.54536,-0.991427 -0.5495,1.917253 c -0.45736,1.595741 -1.46643,1.238829 0.58549,3.488834 2.1836,1.795022 2.01152,4.152863 0.49596,6.019333 -0.9634,-2.267145 -2.77536,-3.8967 -4.77519,-5.676633 -2.71029,0.113398 -3.03754,-3.756359 -4.54678,2.004267 1.03907,4.490254 2.18914,9.339938 2.2296,13.40474 1.99726,8.912473 0.31348,3.971039 3.26711,9.914624 4.03929,1.574622 7.54507,3.002498 8.68574,5.579311 -2.14624,-1.04321 -4.90992,-1.13192 -7.00763,-1.13137 -1.05236,2.59298 0.31515,3.52496 5.02542,9.30152 3.36574,4.18527 9.29493,9.02656 16.37294,13.385429 0.79089,-3.184769 2.79395,-4.970969 4.50643,-6.906179 z"
     id="path6410"
     sodipodi:nodetypes="ccccccccsccccccccccccccccccccccccscccccccccccccccccccccccccccccccsscccccscccccccccccccccccccccccccccccccccccsccsccccccccccccccccccccccccccccccccccsscccccccccccccccscccccccccccccccccccccccccccssccccccccccccccccccccccccccccscccccccscsccccccccccccccccccaccccccsccccccccccccccsccccccccccccsccccccccccccccc" />
  <path
     style="fill:#010000;fill-opacity:1;stroke:#000000;stroke-width:0.705;stroke-dasharray:none;stroke-opacity:1"
     d="m 334.3178,257.05168 c 0.0111,-1.32667 -247.205112,276.22924 -247.205112,276.22924 -0.03842,0.0604 0.214824,-0.005 0.214824,-0.005"
     id="path8695"
     sodipodi:nodetypes="ccc" />
  <path
     style="fill:#010000;fill-opacity:1;stroke:#000000;stroke-width:0.705;stroke-dasharray:none;stroke-opacity:1"
     d="m 586.17982,533.28092 c 0.0384,0.0604 -0.21482,-0.005 -0.21482,-0.005"
     id="path8697"
     sodipodi:nodetypes="cc" />
  <path
     style="fill:none;fill-opacity:1;stroke:#000000;stroke-width:0.705;stroke-dasharray:none;stroke-opacity:1"
     d="m 259.67364,340.39372 77.8463,59.44627"
     id="path9652"
     sodipodi:nodetypes="cc" />
  <path
     style="fill:none;fill-opacity:1;stroke:#000000;stroke-width:0.705;stroke-dasharray:none;stroke-opacity:1"
     d="m 501.70505,438.52728 -1.88729,0.47179"
     id="path9660"
     sodipodi:nodetypes="cc" />
  <path
     style="fill:none;fill-opacity:1;stroke:#000000;stroke-width:0.705;stroke-dasharray:none;stroke-opacity:1"
     d="M 128.51437,489.00944 337.04821,630.54827 546.52564,490.42481"
     id="path9662" />
  <path
     style="fill:#ffff00;fill-opacity:1;stroke:#000000;stroke-width:0.685391;stroke-dasharray:none;stroke-opacity:1"
     d="M 80.234309,518.53064 C 61.948122,479.87724 49.936021,436.93418 45.30099,394.20956 41.814139,348.75183 35.118007,303.47419 32.525246,257.94852 L 334.1781,257.88289 C 339.75502,257.57255 87.036954,532.6561 87.036954,532.6561 c 0,0 34.011876,-9.21808 -0.01257,-0.91093 -0.435756,0 -3.72064,-6.72635 -6.790075,-13.21453 z"
     id="path9862"
     sodipodi:nodetypes="scccccs" />
  <path
     style="fill:#ffff00;fill-opacity:1;stroke:#000000;stroke-width:0.685391;stroke-dasharray:none;stroke-opacity:1"
     d="m 341.88079,258.11532 c 99.6042,0 199.20841,0 298.81261,0 0,0 -7.92479,99.84243 -12.41923,140.06323 -4.85511,39.86514 -15.79948,81.53003 -32.56411,117.90034 -3.45186,7.4887 -8.05221,15.20279 -8.69694,15.87072 C 499.27632,441.57295 415.94883,338.79896 341.88079,258.11532 Z"
     id="path9864"
     sodipodi:nodetypes="cccscc" />
  <path
     style="fill:#008000;fill-opacity:1;stroke:#000000;stroke-width:0.685391;stroke-dasharray:none;stroke-opacity:1"
     d="m 261.39823,341.66651 74.85688,-85.18842 4.22968,-0.0308 72.42637,81.64466 -75.3689,61.60708 z"
     id="path9947"
     sodipodi:nodetypes="cccccc" />
  <path
     style="fill:#008000;fill-opacity:1;stroke:#000000;stroke-width:0.685391;stroke-dasharray:none;stroke-opacity:1"
     d="m 171.86972,440.31217 c 0,0 42.79678,-47.2456 43.1318,-47.10899 43.65502,31.08703 76.47116,55.26996 123.00905,89.06709 l 120.39004,-91.52836 42.5271,48.07437 -163.19081,121.00903 z"
     id="path9949"
     sodipodi:nodetypes="ccccccc" />
  <path
     style="fill:#008000;fill-opacity:1;stroke:#000000;stroke-width:0.685391;stroke-dasharray:none;stroke-opacity:1"
     d="M 172.96566,637.18178 C 139.77643,609.60253 113.22314,578.59475 92.45149,541.7985 l -4.842819,-8.65408 40.218499,-43.74238 209.20572,141.47484 210.19883,-140.91263 40.24387,41.48563 -4.98474,9.35186 c -22.33821,41.90867 -54.54244,79.35272 -91.66089,105.03735 -38.3246,26.51923 -76.85489,43.5563 -123.08336,48.96489 -25.28516,2.95828 -27.1728,3.48924 -52.23326,0.90102 -63.75655,-6.07591 -104.01291,-28.9086 -142.54768,-58.52322 z"
     id="path9951"
     sodipodi:nodetypes="cccccccssscc" />
  <path
     style="fill:#ffffff;stroke-width:0.486093"
     d="m 32.81127,254.2713 c 0,-0.64378 -5.030684,-55.60265 -11.179296,-122.13083 C 15.483361,65.612283 10.452299,11.01608 10.451837,10.815567 10.451375,10.615053 157.43173,10.450997 337.07485,10.450997 h 326.62388 l -0.22171,1.579802 c -0.12191,0.868891 -5.13591,55.062171 -11.14222,120.429511 -6.00636,65.36734 -11.04665,119.77936 -11.20075,120.91561 l -0.28013,2.06589 H 336.83258 32.81127 Z m 158.34476,-6.34631 c 2.88882,-1.34495 3.14911,-2.16138 1.37904,-4.32548 -0.62589,-0.76521 -1.04205,-1.75815 -0.92479,-2.20653 0.11726,-0.44838 -0.19729,-1.18671 -0.69898,-1.64073 -0.85943,-0.77778 -1.11768,-0.76855 -4.46685,0.15955 -1.95508,0.54178 -3.63397,0.90576 -3.73088,0.80885 -0.0969,-0.0969 1.45301,-0.89218 3.44427,-1.76728 4.90855,-2.15714 5.10447,-2.46392 3.14972,-4.93199 -1.53873,-1.94281 -1.64741,-1.9912 -3.81718,-1.6997 -1.9873,0.26699 -2.13726,0.22402 -1.36114,-0.39006 0.82984,-0.65658 0.81484,-0.75683 -0.3089,-2.06324 -0.90784,-1.05543 -1.33457,-1.24978 -1.8444,-0.83999 -0.36481,0.29322 -1.97575,0.90833 -3.57985,1.3669 -1.60411,0.45857 -3.18987,1.05852 -3.52391,1.33322 -0.33405,0.27469 -2.06227,0.80442 -3.84051,1.17717 -3.02475,0.63404 -3.36294,0.61489 -5.24681,-0.29708 -3.20039,-1.54928 -5.19815,-3.92281 -5.49137,-6.52427 -0.17162,-1.52258 -0.0186,-2.57297 0.48737,-3.34515 0.40564,-0.61909 3.2658,-2.8453 6.3559,-4.94712 l 5.61836,-3.82149 -0.20234,-3.20445 c -0.1113,-1.76245 -0.0909,-2.76698 0.0453,-2.23227 0.13622,0.5347 0.7136,2.01121 1.28307,3.28112 1.38204,3.08197 2.26807,3.01141 7.09111,-0.56465 4.28617,-3.178 7.37049,-7.05314 9.87704,-12.40952 1.60475,-3.42926 1.62639,-3.78621 0.65025,-10.72285 -0.22556,-1.60279 -0.0769,-1.3893 0.84589,1.21523 l 1.1195,3.1596 8.02053,0.30091 c 8.31922,0.31211 12.0149,0.88006 13.94166,2.14252 1.10242,0.72234 1.12722,0.91252 1.12722,8.64466 v 7.90608 l 2.30894,2.27057 2.30895,2.27056 6.56225,0.51412 c 8.06133,0.63156 17.32156,2.14091 22.7033,3.70048 4.77869,1.38481 9.03156,1.50353 13.65376,0.38114 3.97629,-0.96554 5.99957,-2.5868 5.07528,-4.06682 -0.33032,-0.52889 -0.60056,-1.47933 -0.60056,-2.11208 v -1.15047 l -4.82569,0.96237 c -4.4957,0.89655 -7.69775,0.86083 -7.11666,-0.0794 0.4856,-0.78571 6.21683,-2.08589 7.84678,-1.78011 1.84045,0.34527 4.92417,-0.73626 5.36349,-1.88111 0.41926,-1.09258 -0.54891,-3.47024 -1.32868,-3.26298 -0.36761,0.0977 -1.65272,0.24662 -2.8558,0.33092 -1.20308,0.0843 -3.3905,0.28051 -4.86093,0.43605 l -2.67351,0.28278 2.91656,-1.23001 c 3.77554,-1.59228 4.91181,-3.11933 3.71944,-4.99868 -0.31314,-0.49356 -1.1456,-0.35658 -3.92421,0.64572 -3.7408,1.34938 -4.75242,1.3625 -2.72696,0.0354 0.76833,-0.50344 1.2304,-1.25837 1.2304,-2.01022 0,-1.1045 -0.18242,-1.20403 -2.20678,-1.20403 -2.51143,0 -5.57209,1.35856 -7.77912,3.45297 -1.03952,0.98649 -2.3239,1.55993 -4.32051,1.92903 l -2.84124,0.52523 -2.38358,-2.346 c -1.31097,-1.2903 -2.49972,-2.8071 -2.64168,-3.37067 -0.40102,-1.59209 0.97399,-4.28783 4.13837,-8.11337 1.59442,-1.92757 3.1327,-4.11948 3.4184,-4.87092 0.80576,-2.1193 0.64741,-4.58278 -0.33121,-5.15277 -0.65,-0.37859 -0.19133,-0.49896 1.94437,-0.51025 4.37808,-0.0231 3.66258,-1.16327 -3.75277,-5.9799 -1.55253,-1.00845 -2.93796,-2.45908 -3.87642,-4.05886 -1.31744,-2.24581 -1.79475,-2.62087 -4.87539,-3.83101 -5.15725,-2.02587 -9.35063,-2.48345 -16.66668,-1.81867 -7.19406,0.6537 -12.16874,1.98386 -20.28816,5.42477 -3.17689,1.34633 -5.87322,2.35081 -5.99186,2.23218 -0.29525,-0.29525 0.79842,-2.96373 2.27082,-5.54067 1.00563,-1.76002 2.54661,-3.00267 8.78918,-7.08765 4.16336,-2.7244 8.99156,-6.09157 10.72935,-7.4826 2.83228,-2.26716 6.67462,-6.34136 7.68769,-8.15162 0.30568,-0.54621 2.31509,-0.0239 10.40192,2.70361 5.51269,1.85933 11.18962,3.99503 12.61541,4.746 2.50496,1.31937 2.82991,1.36448 9.64069,1.33846 5.18112,-0.0198 7.88537,-0.25612 10.20795,-0.89207 3.75913,-1.0293 8.97238,-3.67702 11.43923,-5.8098 1.62485,-1.40481 1.74674,-1.68637 1.43924,-3.32483 l -0.33595,-1.79006 -1.7749,0.91124 c -0.9762,0.50118 -2.43113,1.04887 -3.23318,1.21707 -1.43873,0.30173 -1.43434,0.29134 0.32729,-0.77522 0.98206,-0.59459 1.90872,-1.53982 2.05925,-2.10053 0.46752,-1.74147 0.31481,-3.95518 -0.33406,-4.84257 -0.57137,-0.78139 -0.73657,-0.78906 -2.0659,-0.0959 -2.57024,1.34022 -3.46743,1.03409 -3.77908,-1.28944 -0.15115,-1.12687 -0.5763,-2.27526 -0.94479,-2.55199 -0.36849,-0.27673 -0.81876,-0.89933 -1.00059,-1.38356 -0.31488,-0.83854 -0.39796,-0.84062 -1.74691,-0.0438 -0.77896,0.46015 -1.8884,1.67661 -2.4654,2.70326 -0.57701,1.02665 -1.14845,1.86663 -1.26987,1.86663 -0.12142,0 -0.16211,-0.92965 -0.0904,-2.06589 0.11377,-1.80327 -0.005,-2.08515 -0.93348,-2.21731 -1.77044,-0.25199 -2.8793,1.37268 -3.23056,4.73332 -0.37261,3.56494 -0.54286,3.92472 -1.85718,3.92472 -3.0159,0 -6.28667,-1.67133 -13.29216,-6.79216 -6.1144,-4.46948 -7.581,-5.33227 -9.08555,-5.34499 -2.02191,-0.0171 -2.85558,-0.75745 -1.38021,-1.22572 1.23098,-0.3907 4.1485,-3.92679 5.08074,-6.15796 0.39147,-0.93692 0.86276,-3.43558 1.04732,-5.55259 0.39804,-4.56574 0.82004,-5.55042 2.37879,-5.55042 1.76199,0 3.33809,0.72451 7.39523,3.39948 5.53031,3.64627 8.75943,4.31594 10.21147,2.1177 0.64322,-0.97376 0.50833,-1.24904 -1.97685,-4.03423 -1.79544,-2.0122 -3.07681,-4.06119 -3.92055,-6.26921 -0.68936,-1.80404 -2.03868,-4.535536 -2.99849,-6.07 -1.45602,-2.327753 -2.28062,-3.064869 -4.97765,-4.449553 -3.70748,-1.903467 -3.32476,-2.273399 0.57,-0.550953 2.92403,1.293148 6.33285,4.588153 7.22685,6.985576 0.32401,0.86889 0.71928,1.5798 0.87838,1.5798 0.58657,0 7.38673,-4.390898 10.92922,-7.057059 3.88347,-2.922784 11.51725,-10.742725 12.71644,-13.02655 0.39537,-0.752968 0.65104,-1.956048 0.56816,-2.673511 -0.14678,-1.27054 -0.22974,-1.302282 -3.18878,-1.220015 -1.67095,0.04647 -3.03808,-0.0175 -3.03808,-0.142163 0,-0.331136 5.96841,-3.101068 6.68288,-3.101521 1.31104,-9.72e-4 3.36262,-4.388854 4.16385,-8.905853 0.43532,-2.454147 1.15817,-6.430761 1.60633,-8.836921 1.25714,-6.74959 1.30924,-7.452951 0.66693,-9.003625 -0.42146,-1.017494 -0.93442,-1.447372 -1.72709,-1.447372 -0.62017,0 -1.26277,0.218742 -1.428,0.486093 -0.16523,0.267351 -0.6953,0.486093 -1.17794,0.486093 -0.48263,0 -1.97644,1.081728 -3.31957,2.40384 -1.34313,1.322112 -2.5759,2.269993 -2.73949,2.106402 -0.68408,-0.684078 -0.2011,-2.155675 1.24988,-3.808243 1.51598,-1.726605 1.53511,-1.807885 0.94515,-4.013705 -0.73899,-2.762994 -0.84399,-2.874047 -2.02189,-2.138438 -0.51891,0.324069 -1.24066,0.589215 -1.60387,0.589215 -1.02528,0 -2.1573,1.513409 -3.48237,4.655608 l -1.21401,2.878832 0.3008,-4.162442 c 0.24174,-3.345173 0.14351,-4.466608 -0.5003,-5.711591 -0.4406,-0.852033 -0.9046,-1.54915 -1.0311,-1.54915 -0.1265,0 -1.10523,0.84937 -2.17494,1.887489 -1.43693,1.3945 -1.94492,2.277255 -1.94492,3.379778 0,1.577525 -0.88954,3.968498 -1.47645,3.968498 -0.19151,0 -0.80417,-1.059902 -1.36145,-2.355337 -1.60024,-3.71988 -3.09261,-4.43217 -3.61046,-1.723233 -0.31386,1.641866 0.19884,3.488481 2.92352,10.52973 2.06764,5.343286 2.17621,5.848813 1.64027,7.637615 -0.74546,2.488105 -5.28572,7.070659 -11.00711,11.109619 -2.40054,1.694641 -4.69273,3.267886 -5.09376,3.496101 -0.62299,0.354518 -0.5876,0.53095 0.24305,1.211825 l 0.97218,0.796896 -0.97218,-0.332648 c -0.53471,-0.182956 -2.16361,-0.750688 -3.6198,-1.26163 -4.351,-1.526667 -10.93796,-2.089723 -16.43154,-1.40457 -9.90237,1.235011 -8.67559,1.402057 -12.68494,-1.727273 -3.35404,-2.617858 -3.5525,-2.878506 -3.27069,-4.295603 0.16501,-0.82975 1.13286,-2.342958 2.15077,-3.362678 1.74398,-1.747081 2.06608,-1.87033 5.58303,-2.136315 2.05275,-0.155249 4.07336,-0.531684 4.49025,-0.836522 0.75151,-0.549514 1.61258,-4.651934 0.97641,-4.651934 -0.18215,0 -0.93575,0.312636 -1.67468,0.694749 -0.73892,0.382108 -2.6669,0.844469 -4.28441,1.027469 -2.72101,0.307852 -3.00039,0.247815 -3.73634,-0.802904 -1.05808,-1.510624 -1.00447,-3.17373 0.14961,-4.640904 0.97452,-1.238901 0.77795,-3.07649 -0.37003,-3.459151 -1.06044,-0.353478 -2.98984,2.278284 -3.79599,5.177822 l -0.81318,2.924867 -1.26519,-0.654251 c -2.35966,-1.220228 -3.0932,-2.440598 -2.73639,-4.552499 0.65698,-3.888627 4.39257,-5.939715 11.46703,-6.29616 3.67903,-0.185367 4.96448,-0.06969 6.17354,0.555542 2.97695,1.53944 4.06051,0.538433 2.72636,-2.518643 -0.43101,-0.987622 -0.74876,-2.604678 -0.7061,-3.593458 0.065,-1.506667 -0.14184,-1.916759 -1.2774,-2.532526 -1.18519,-0.64268 -1.2277,-0.737183 -0.33929,-0.754206 0.60506,-0.01159 1.24376,-0.520019 1.5798,-1.257566 0.78764,-1.728671 0.71024,-2.367732 -0.40952,-3.381096 -0.89303,-0.808183 -1.69469,-0.855016 -9.68276,-0.56567 -5.32619,0.192927 -8.77151,0.137235 -8.86974,-0.143373 -0.28394,-0.811146 -5.84695,-1.96315 -9.48001,-1.96315 -1.93879,0 -5.71328,0.465945 -8.38775,1.035432 -4.39185,0.935177 -4.81724,1.120347 -4.39334,1.912415 0.76027,1.420566 0.63187,1.426117 -3.05482,0.132071 -2.5039,-0.878879 -4.93525,-1.30973 -8.39823,-1.488217 -5.67575,-0.292536 -5.78924,-0.225159 -6.66655,3.957399 -0.6553,3.124153 -0.16982,4.470784 2.90816,8.066705 1.70996,1.997702 1.45545,2.51429 -0.58124,1.179795 -1.13814,-0.745738 -1.2033,-0.700785 -3.62928,2.503869 -1.84421,2.436129 -2.83979,4.41657 -3.92793,7.813531 -0.80168,2.502661 -1.45759,5.094527 -1.45759,5.759712 0,1.35981 0.63294,1.467499 4.37484,0.744339 1.20308,-0.232508 2.25124,-0.35967 2.32925,-0.28258 0.078,0.07709 -0.64504,1.482772 -1.60679,3.123744 -0.96175,1.640967 -1.98897,4.129418 -2.28272,5.52989 -0.5177,2.468156 -0.46561,2.710415 1.69719,7.89269 3.49234,8.367958 3.58968,14.049319 0.3007,17.550287 l -0.97426,1.03704 1.11898,0.29971 c 3.41227,0.913957 7.36066,-1.08632 11.13509,-5.641103 1.38491,-1.671246 2.76023,-3.199337 3.05625,-3.395757 1.09701,-0.727881 2.71865,-0.348485 3.48054,0.814298 0.75646,1.154499 0.70769,1.268547 -1.81867,4.253312 -1.42778,1.68685 -3.08274,3.753867 -3.6777,4.593364 l -1.08173,1.52636 1.42881,6.74048 c 1.13474,5.3532 1.3362,7.13999 0.97883,8.68159 -0.70537,3.04279 -0.63386,3.29427 0.86358,3.03722 0.73522,-0.12621 1.71956,-0.39319 2.18742,-0.59328 0.7369,-0.31514 0.85066,-0.0758 0.85066,1.78997 0,1.18457 0.54686,3.98079 1.21524,6.21383 1.07845,3.6031 1.21481,4.93947 1.21156,11.87341 -0.006,12.50644 -0.97262,16.69007 -5.00672,21.66699 -2.95912,3.65072 -6.33152,5.86413 -11.35085,7.44993 -3.36505,1.06315 -3.66904,1.0781 -9.21972,0.45358 -6.99636,-0.78719 -8.19036,-1.40072 -10.13823,-5.20947 -1.43791,-2.81162 -1.45357,-2.92663 -1.35314,-9.93916 0.10097,-7.05093 0.10952,-7.1006 1.38757,-8.0668 4.53578,-3.42901 10.16488,-8.23115 10.16488,-8.67158 0,-0.99885 -4.19529,-1.85528 -6.41293,-1.30915 -2.86062,0.70448 -3.04322,0.62668 -1.2398,-0.52824 0.87067,-0.55758 1.68924,-1.48355 1.81905,-2.0577 0.12981,-0.57417 0.93934,-4.98128 1.79896,-9.7936 2.96016,-16.57156 1.71787,-28.893471 -4.92527,-48.852338 -2.71283,-8.150509 -2.82046,-7.189324 1.69081,-15.100348 2.63914,-4.628026 2.6513,-4.668325 2.6513,-8.786462 0,-3.819282 -0.0964,-4.227645 -1.25478,-5.315554 l -1.25478,-1.178441 -1.36061,1.522416 c -1.28857,1.441827 -2.11295,3.442241 -3.47918,8.442488 -0.5976,2.187185 -0.5977,2.187263 -0.94148,0.729139 -0.1891,-0.802053 -0.3697,-4.484753 -0.40133,-8.183777 l -0.0575,-6.725498 -1.82285,-2.621511 c -3.07644,-4.42436 -4.31917,-4.1788 -6.41989,1.268563 -3.18681,8.263675 -3.70702,13.930237 -1.79413,19.54335 0.61499,1.80462 0.90417,3.281127 0.64262,3.281127 -0.26156,0 -1.62151,-1.148395 -3.02212,-2.551988 -1.75104,-1.754759 -2.74236,-3.235326 -3.17329,-4.739405 -0.79842,-2.786663 -0.69463,-2.701408 -2.13756,-1.755965 -1.14627,0.751064 -1.23041,1.071335 -1.23041,4.683728 0,3.870941 0.003,3.880823 1.93025,5.807778 1.93785,1.937858 5.52612,3.973537 9.89368,5.612837 1.37086,0.514539 2.83071,1.516872 3.51402,2.412731 3.72713,4.886517 8.62276,19.517325 9.43687,28.202482 1.01505,10.828928 0.61413,13.982088 -3.8681,30.421658 -1.072,3.93181 -1.94909,7.28102 -1.94909,7.44269 0,0.16167 0.46426,0.29394 1.0317,0.29394 0.86315,0 0.93258,0.11944 0.42501,0.73103 -0.53571,0.64549 -0.78626,0.62007 -2.14107,-0.21726 -2.10771,-1.30263 -5.93731,-2.08852 -8.26277,-1.69564 l -1.9349,0.3269 2.28235,2.15644 2.28236,2.15644 0.51856,4.65054 c 0.37956,3.40392 0.36768,5.81146 -0.0443,8.98139 -1.50594,11.58688 2.8095,17.8931 15.07884,22.0349 l 3.1596,1.06659 0.13619,6.47602 c 0.13601,6.46795 0.13454,6.47774 -1.1876,7.85775 -2.51581,2.62594 -5.46304,2.61855 -12.18386,-0.0306 -2.12836,-0.83892 -2.91393,-0.91578 -5.32476,-0.52094 -1.55543,0.25474 -2.88274,0.46443 -2.94958,0.46598 -0.0668,0.001 -0.12152,0.43736 -0.12152,0.96848 0,0.65644 0.58369,1.20949 1.82285,1.72711 2.30542,0.96303 4.31844,2.86432 5.53293,5.22582 1.09014,2.11971 1.883,2.4962 7.18527,3.41188 4.53921,0.7839 6.60726,1.88378 5.92809,3.15282 -0.24711,0.46173 -0.91681,1.26262 -1.48823,1.77974 -0.94787,0.85781 -1.317,0.8926 -4.21094,0.3969 -1.7446,-0.29884 -4.8199,-1.32593 -6.83402,-2.28243 -3.15957,-1.50047 -4.14789,-1.73907 -7.2034,-1.73907 -2.65889,0 -3.79638,0.21199 -4.56463,0.85066 -0.58118,0.48317 -0.86695,1.09015 -0.66147,1.40502 0.19897,0.30489 3.58921,2.0942 7.53384,3.97624 3.94464,1.88204 7.30921,3.77926 7.47682,4.21605 0.16761,0.43679 0.0529,1.34699 -0.255,2.02267 -0.53411,1.17224 -0.67618,1.20978 -3.10198,0.81967 -4.27867,-0.6881 -8.48012,-0.51374 -9.38253,0.38938 -0.73952,0.74011 -0.55493,0.93591 2.53526,2.68926 1.83307,1.04007 3.97812,2.2143 4.76679,2.6094 2.23663,1.1205 3.17012,3.22072 3.47575,7.82003 0.33499,5.04103 1.89448,9.82498 3.837,11.77051 1.72101,1.72368 7.25235,4.35564 10.69702,5.08992 1.33676,0.28495 6.69593,0.63931 11.90928,0.78748 5.21335,0.14816 10.35378,0.46407 11.42318,0.70201 1.06941,0.23795 4.02242,0.45565 6.56226,0.48378 3.94412,0.0437 4.99022,-0.12219 7.16987,-1.13696 z m 314.38057,-0.49826 c 2.94086,-0.39359 8.20563,-0.71988 11.69952,-0.7251 6.74999,-0.0101 9.6647,-0.57953 13.87256,-2.71029 5.26939,-2.66826 6.8595,-5.66017 7.69354,-14.47588 0.52483,-5.54701 1.09745,-6.65572 4.2938,-8.31331 1.26511,-0.65608 3.23767,-1.82756 4.38354,-2.60328 1.80831,-1.22426 1.98472,-1.49224 1.33646,-2.03024 -1.10761,-0.91926 -4.49261,-1.15461 -7.79464,-0.54192 -2.57678,0.47811 -2.98733,0.44461 -3.52418,-0.28763 -1.56298,-2.13194 -0.93903,-2.78143 6.17995,-6.43279 3.73314,-1.91475 6.93081,-3.71313 7.10585,-3.9964 0.66682,-1.0789 -1.23293,-2.07558 -4.33235,-2.27294 -2.7719,-0.1765 -3.45953,-0.0164 -6.68981,1.55762 -3.80261,1.85288 -8.49957,3.09317 -9.80984,2.59038 -0.43024,-0.1651 -1.15194,-0.8644 -1.60376,-1.55399 -0.76891,-1.1735 -0.76934,-1.31151 -0.006,-2.15463 0.46227,-0.51083 2.12097,-1.15107 3.83128,-1.47884 5.99047,-1.14804 6.636,-1.46657 7.86518,-3.88094 1.30278,-2.55886 2.84087,-4.12647 4.76366,-4.85495 1.46932,-0.55667 2.20288,-1.78601 1.49075,-2.49815 -0.24684,-0.24682 -1.45249,-0.58633 -2.67924,-0.75448 -1.81148,-0.24828 -2.96921,-0.0208 -6.1624,1.21057 -5.08861,1.96238 -6.82484,1.9616 -9.06359,-0.004 l -1.73156,-1.52032 0.13484,-6.54659 0.13484,-6.54659 3.95933,-1.59653 c 6.47281,-2.61007 9.71243,-5.33233 11.72874,-9.85561 0.68179,-1.52954 0.81508,-3.63766 0.82864,-13.10868 l 0.016,-11.28603 2.40932,-2.4461 2.40932,-2.44609 h -3.18046 c -2.4221,0 -3.74865,0.28765 -5.56333,1.20635 -2.10502,1.06569 -2.46682,1.12237 -3.10307,0.48609 -0.6363,-0.63628 -0.57276,-0.72026 0.54486,-0.72026 h 1.26511 l -1.69277,-6.68377 c -0.93107,-3.67608 -2.3175,-9.70197 -3.08105,-13.39085 -1.35285,-6.53602 -1.37579,-6.89554 -0.89874,-14.0967 0.52872,-7.980883 1.89085,-14.202716 5.03548,-23.000993 1.67357,-4.682503 4.45475,-9.908503 5.27304,-9.908503 1.4752,0 8.75492,-4.050286 10.48634,-5.834359 l 1.99949,-2.060353 v -4.045614 c 0,-3.643231 -0.10879,-4.122199 -1.09371,-4.815638 -1.06454,-0.749477 -1.10848,-0.719938 -1.64707,1.106924 -0.89573,3.038135 -1.96605,4.747333 -4.13578,6.604544 -1.12263,0.960918 -2.1075,1.680748 -2.18863,1.599619 -0.0811,-0.08113 0.28242,-1.278983 0.80788,-2.661893 2.03139,-5.346136 1.75431,-10.455291 -1.02502,-18.900995 -0.80725,-2.453041 -1.77273,-4.713217 -2.14552,-5.022612 -1.08753,-0.902588 -2.31385,-0.157508 -4.0056,2.433733 -1.46343,2.241522 -1.5798,2.719169 -1.5798,6.483874 1.5e-4,5.140886 -0.5278,11.502024 -0.95449,11.502024 -0.17922,0 -0.7042,-1.604849 -1.16662,-3.566331 -0.83448,-3.539587 -2.75377,-7.127712 -3.81262,-7.127712 -0.30352,0 -0.95187,0.362014 -1.44078,0.804477 -0.73143,0.66194 -0.88892,1.553837 -0.88892,5.033836 0,4.212876 0.0112,4.251534 2.91656,9.919855 1.6041,3.129777 2.91655,6.129131 2.91655,6.665228 0,0.536097 -0.86835,3.85828 -1.92974,7.382623 -6.1778,20.514063 -7.13219,31.991116 -4.15065,49.913216 1.18602,7.12919 1.47646,8.15558 2.61363,9.23576 l 1.27935,1.21523 h -3.49861 c -4.62712,0 -5.4177,0.71235 -3.06365,2.76045 0.93573,0.81411 2.57629,2.29013 3.6457,3.28004 1.0694,0.98991 2.76465,2.4132 3.76722,3.16287 l 1.82285,1.36303 v 7.14653 c 0,6.83839 -0.0576,7.25927 -1.33676,9.76086 -1.91861,3.75232 -2.95588,4.32971 -9.13714,5.08633 l -5.2812,0.64646 -4.02932,-1.45798 c -4.55435,-1.64796 -7.6336,-4.07229 -10.50797,-8.27313 -2.51057,-3.66917 -3.25439,-7.33458 -3.58557,-17.66941 -0.26866,-8.38478 -0.22399,-8.99892 1.00033,-13.7516 0.70489,-2.73617 1.28159,-5.75509 1.28159,-6.70871 0,-1.46345 0.13265,-1.6781 0.85066,-1.3763 0.46787,0.19666 1.34283,0.4643 1.94437,0.59477 1.18641,0.25731 1.32495,-0.48255 0.65934,-3.52183 -0.18997,-0.86722 0.19755,-4.17727 0.956,-8.16665 l 1.27541,-6.70837 -1.93373,-2.770437 c -1.06357,-1.523745 -2.57362,-3.582674 -3.35564,-4.575402 -1.13872,-1.445466 -1.32252,-1.99076 -0.9227,-2.737846 0.59254,-1.107164 1.70482,-1.610182 2.7087,-1.224968 0.39826,0.152827 1.835,1.691423 3.19271,3.419104 2.96832,3.777117 6.21892,5.994366 8.78807,5.994366 2.26043,0 2.76713,-0.723354 1.47233,-2.10188 -2.48092,-2.64138 -2.23948,-9.779182 0.56104,-16.585635 2.3212,-5.641487 2.33549,-7.663536 0.0876,-12.35423 -0.93573,-1.952538 -1.70132,-3.663094 -1.70132,-3.801232 0,-0.138143 1.31245,-0.09884 2.91655,0.08734 2.83898,0.329498 2.91656,0.307877 2.91656,-0.812703 0,-1.525603 -1.78134,-7.901181 -2.74341,-9.818933 -1.76024,-3.508764 -4.24277,-6.659336 -5.00481,-6.351593 -0.41712,0.16846 -1.04559,0.423364 -1.39665,0.566454 -0.351,0.14309 0.271,-1.13566 1.38221,-2.841667 1.94218,-2.981766 2.00917,-3.213302 1.73054,-5.981672 -0.44235,-4.394092 -1.04248,-4.821079 -6.36325,-4.527304 -2.83747,0.156664 -5.27795,0.603784 -6.94481,1.272358 -3.14303,1.260659 -3.65162,1.282572 -3.28953,0.14174 0.24572,-0.774108 -0.31188,-1.025533 -4.31189,-1.944372 -2.52676,-0.580414 -5.87418,-1.055299 -7.4387,-1.055299 -3.09191,0 -8.53954,1.220174 -8.80234,1.971568 -0.10167,0.290681 -3.22445,0.349287 -8.26358,0.155086 -7.78357,-0.299968 -8.13527,-0.272825 -8.99857,0.694483 -0.77915,0.873006 -0.82255,1.236566 -0.32688,2.738453 0.34703,1.051508 0.88565,1.731804 1.37115,1.731804 0.64923,0 0.61148,0.131764 -0.20074,0.700662 -0.73166,0.512476 -0.94426,1.082713 -0.79156,2.123118 0.11482,0.78235 -0.13992,2.096753 -0.56611,2.920894 -0.86821,1.678936 -1.01862,3.769161 -0.30305,4.211407 0.2595,0.16038 1.18915,-0.08078 2.06589,-0.535911 1.06612,-0.553435 2.72106,-0.823618 4.99673,-0.815759 6.35734,0.02196 10.22804,1.871187 11.36108,5.427764 0.7957,2.497683 0.19267,4.095502 -1.96721,5.212417 -1.32996,0.687753 -1.33643,0.683028 -1.88508,-1.378224 -0.8107,-3.045729 -2.4366,-5.714046 -3.48176,-5.714046 -1.3997,0 -1.58643,1.362758 -0.48414,3.533262 0.87651,1.725937 0.9288,2.179714 0.40088,3.479089 -0.53799,1.324171 -0.86119,1.510937 -2.8392,1.640642 -1.25081,0.08202 -3.02543,-0.18511 -4.03664,-0.607617 -2.58689,-1.080871 -2.82307,-0.987356 -2.50207,0.990716 0.41849,2.578869 0.96947,2.958536 4.83458,3.331379 3.171,0.305889 3.69504,0.512507 5.33897,2.10504 1.44595,1.400735 1.82285,2.129938 1.82285,3.526701 0,1.581999 -0.32413,2.023828 -3.19125,4.350045 l -3.19124,2.589198 -5.5646,-0.872371 c -7.74735,-1.214566 -14.89334,-0.520873 -19.5726,1.900006 -1.74908,0.90491 -2.50159,0.801047 -1.31731,-0.181814 0.61543,-0.510766 -0.0723,-1.215713 -4.48461,-4.596936 -5.78307,-4.431646 -9.64748,-8.786192 -10.14346,-11.429993 -0.21662,-1.154694 -0.0449,-2.452169 0.51865,-3.918929 2.33582,-6.079344 4.09982,-12.094744 3.86085,-13.165778 -0.57226,-2.564629 -0.62233,-2.601978 -1.89071,-1.410395 -0.6614,0.621354 -1.20399,1.474403 -1.20575,1.895664 -0.002,0.421261 -0.41161,1.385365 -0.91077,2.142453 l -0.90757,1.376522 -0.54751,-1.570582 c -0.30112,-0.86382 -0.5475,-2.308227 -0.5475,-3.209792 0,-1.27339 -0.26912,-1.761828 -1.20589,-2.18865 -0.66324,-0.302192 -1.33421,-0.953728 -1.49104,-1.447858 -0.39146,-1.233373 -1.02037,-1.125873 -1.9798,0.338406 -0.66821,1.01981 -0.75704,1.979321 -0.50629,5.468545 l 0.30411,4.231722 -1.32777,-3.109423 c -0.73027,-1.710183 -1.65588,-3.262063 -2.0569,-3.448622 -0.40103,-0.18656 -1.21834,-0.591939 -1.81625,-0.900844 -1.64319,-0.84893 -1.80752,-0.740233 -2.51781,1.665373 -0.61458,2.081453 -0.5893,2.311802 0.38686,3.524173 1.55051,1.925704 2.16646,3.329212 1.83739,4.186734 -0.22874,0.596097 -0.72996,0.290355 -2.27905,-1.390204 -2.03395,-2.206576 -5.62139,-4.352443 -6.43537,-3.849381 -0.25031,0.1547 -0.73333,0.965479 -1.07338,1.801732 -0.53004,1.303478 -0.45456,2.318215 0.52894,7.11053 0.63097,3.074537 1.15026,6.287407 1.15396,7.139708 0.0106,2.421763 1.37717,7.724677 2.46657,9.571066 0.7301,1.237437 1.93293,2.123011 4.611,3.394825 1.99278,0.946364 3.62323,1.820072 3.62323,1.941571 0,0.121504 -1.28168,0.104695 -2.84817,-0.03733 -2.73019,-0.247562 -2.85767,-0.208587 -3.07741,0.940955 -0.12609,0.659569 -0.0445,1.698612 0.18128,2.308984 0.85783,2.318931 7.02279,9.31338 11.77991,13.364886 2.78532,2.372158 9.48594,7.068067 10.08549,7.068067 0.21616,0 0.72334,-0.79058 1.12707,-1.75685 1.40201,-3.355476 5.98716,-7.438768 7.69823,-6.855636 0.31541,0.107495 -0.35627,0.671946 -1.49262,1.254343 -2.74389,1.406281 -4.55904,4.285531 -7.09172,11.249113 -0.438,1.20431 -1.78312,3.31765 -2.98915,4.69632 -2.43048,2.7784 -2.62611,3.5083 -1.26938,4.73611 1.34208,1.21456 3.89265,0.58083 7.40331,-1.83947 4.76257,-3.28338 6.42814,-4.17611 7.8072,-4.18454 0.71943,-0.004 1.46325,0.2431 1.65292,0.54999 0.18967,0.3069 0.52275,2.48592 0.74018,4.84228 0.54623,5.91956 2.7162,9.9279 6.50678,12.01924 0.84867,0.46823 0.73654,0.53825 -0.88262,0.55115 -2.39149,0.0191 -2.87855,0.30018 -9.18342,5.3005 -6.28002,4.98061 -9.05672,6.53682 -11.75239,6.58668 l -1.99445,0.0369 -0.48893,-3.58878 c -0.3892,-2.85672 -0.71061,-3.73549 -1.57569,-4.30798 -1.78642,-1.18224 -2.70158,-0.46232 -2.31571,1.82167 0.41599,2.46219 0.0427,2.46495 -1.2103,0.009 -1.12375,-2.20273 -3.89385,-4.06146 -3.89385,-2.61276 0,0.45368 -0.37783,1.24236 -0.83962,1.75263 -0.48235,0.533 -0.83961,1.7062 -0.83961,2.7572 0,1.82904 -3.7e-4,1.82936 -1.65029,1.45725 -0.90765,-0.20472 -1.88602,-0.60795 -2.17415,-0.89608 -0.80845,-0.80845 -1.13481,-0.64188 -1.77619,0.90654 -0.35534,0.85788 -0.46311,2.19623 -0.26924,3.34375 0.25667,1.51921 0.66301,2.09631 1.97262,2.80158 0.90714,0.48853 1.565,0.97259 1.46189,1.0757 -0.2927,0.2927 -3.81575,-1.00105 -4.69655,-1.72469 -0.6692,-0.54979 -0.83715,-0.52824 -1.09371,0.14036 -0.82849,2.15902 -0.30934,3.36842 2.25627,5.25608 5.44394,4.00542 9.87439,5.48097 17.93419,5.9729 l 5.02631,0.30679 5.26645,-2.29407 c 2.89655,-1.26173 8.58384,-3.48288 12.63842,-4.9359 l 7.37196,-2.64184 0.72914,1.08432 c 3.43984,5.11545 7.21927,8.47182 17.57996,15.61209 5.50549,3.79421 5.85602,4.13824 7.46593,7.32756 1.49103,2.9538 2.04968,4.6741 1.51787,4.6741 -0.0942,0 -2.44571,-1.07029 -5.2255,-2.37843 -8.66745,-4.0788 -14.1289,-5.39814 -22.66296,-5.47476 -8.59969,-0.0772 -13.64254,1.78928 -15.86458,5.87188 -0.98086,1.80217 -2.16456,3.02188 -4.35281,4.48524 -6.04044,4.03945 -6.65254,5.2651 -2.64103,5.28834 1.9704,0.0114 2.35813,0.12769 1.70133,0.51024 -1.95939,1.14124 -0.71375,5.21099 3.03808,9.92597 2.51026,3.15469 3.88874,5.80794 3.88874,7.48492 0,0.52464 -1.04874,2.09444 -2.33052,3.48844 -2.32922,2.53313 -2.33182,2.53436 -4.62375,2.19066 -1.68408,-0.25254 -2.8933,-0.86325 -4.5523,-2.29909 -2.67289,-2.31337 -4.07312,-2.94758 -6.80124,-3.08047 -1.76839,-0.0861 -2.05094,0.0439 -2.23955,1.0305 -0.15433,0.80737 0.12267,1.35088 0.97218,1.90749 1.94706,1.27576 0.97293,1.27702 -2.41154,0.003 -1.74815,-0.65801 -3.31295,-1.06188 -3.47733,-0.8975 -0.16438,0.16438 -0.29887,1.0415 -0.29887,1.94916 0,1.54926 0.18598,1.73697 3.03808,3.06618 l 3.03808,1.41589 -2.91656,-0.24669 c -1.60411,-0.13569 -3.8255,-0.34182 -4.93643,-0.45808 -2.16455,-0.22652 -2.59801,0.18283 -2.59801,2.45356 0,1.60075 1.57074,2.31164 5.34702,2.41998 3.7131,0.10653 7.30167,1.38723 6.40358,2.28533 -0.44107,0.44107 -1.76523,0.34229 -5.72283,-0.42693 l -5.14898,-1.00079 0.27382,1.36911 c 0.15061,0.75302 0.0623,1.49988 -0.19634,1.6597 -0.84456,0.52197 -0.49455,2.04979 0.63986,2.79309 1.81531,1.18944 7.74923,2.41753 10.60884,2.19563 1.44147,-0.11186 4.48017,-0.76558 6.75265,-1.45271 5.16932,-1.56305 11.20301,-2.6049 19.44736,-3.35801 l 6.40807,-0.58538 2.12989,-2.23169 2.12991,-2.2317 0.0113,-7.83949 c 0.008,-5.66802 0.17958,-7.97858 0.61889,-8.34164 1.51299,-1.25021 6.72812,-2.04716 13.39751,-2.04716 h 6.81645 l 0.73788,-2.0659 c 0.40583,-1.13624 0.85859,-2.394 1.00614,-2.79503 0.14755,-0.40103 0.10899,0.47394 -0.0857,1.94437 -0.76234,5.75808 0.17142,8.81465 4.75897,15.57794 2.41471,3.55993 7.97863,8.2304 9.81319,8.23741 0.9404,0.003 2.29937,-2.28904 2.87947,-4.85773 0.27498,-1.21775 0.32636,-0.78773 0.18068,1.5129 l -0.20353,3.21423 5.27863,3.78762 c 2.90324,2.08318 5.51711,4.311 5.80857,4.9507 1.58515,3.479 -0.34644,7.38015 -4.75958,9.6127 -2.12811,1.07657 -5.10738,0.66546 -9.04298,-1.24786 -1.60012,-0.77791 -3.37796,-1.41439 -3.95077,-1.41439 -0.57276,0 -1.32786,-0.34513 -1.67794,-0.76695 -0.57053,-0.68745 -0.72676,-0.64965 -1.50699,0.36457 -1.08991,1.4168 -1.11699,2.15643 -0.0934,2.54924 1.63055,0.62569 0.18,0.83499 -1.52181,0.2196 -1.75359,-0.63411 -1.78168,-0.6235 -3.4208,1.29213 -0.90899,1.06231 -1.66091,2.20051 -1.67095,2.52932 -0.0101,0.32882 2.00511,1.5796 4.47811,2.77952 5.11136,2.4801 5.08497,2.70285 -0.12152,1.02441 l -3.6457,-1.17528 -0.84204,1.06027 c -0.46312,0.58314 -0.75984,1.29087 -0.65939,1.57271 0.10046,0.28185 -0.33979,1.37556 -0.97832,2.43047 -0.63853,1.05491 -1.16209,2.07645 -1.16346,2.2701 -0.003,0.4111 2.60892,1.81788 4.3692,2.35334 1.96984,0.5992 6.67113,0.49701 12.39852,-0.26951 z"
     id="path317" />
  <path
     style="fill:#ffffff;stroke-width:0.486093"
     d="m 316.20342,465.62189 c -27.73413,-20.26661 -63.94254,-46.51738 -84.14728,-61.00599 -8.71818,-6.25172 -15.85772,-11.5855 -15.86565,-11.85285 -0.008,-0.26735 10.15101,-11.69924 22.57541,-25.40419 l 22.58981,-24.9181 4.94206,3.80471 c 23.61279,18.17861 70.8366,54.05202 71.15417,54.05202 0.21931,0 17.23447,-13.76217 37.81147,-30.5826 20.57701,-16.82043 37.56435,-30.48889 37.74967,-30.37436 0.1853,0.11452 9.70433,10.97553 21.15339,24.13555 11.44906,13.16003 21.42612,24.62451 22.17125,25.47662 l 1.35478,1.54929 -34.16605,25.96328 c -18.79133,14.2798 -45.71607,34.74873 -59.83276,45.4865 -14.11669,10.73778 -25.71001,19.51283 -25.76292,19.50012 -0.0529,-0.0127 -9.83023,-7.13621 -21.72735,-15.83 z"
     id="path319" />
  <path
     style="fill:#ffffff;stroke-width:0.486093"
     d="M 233.08154,559.21419 C 176.00208,520.4535 129.23013,488.53438 129.14387,488.2828 c -0.12195,-0.35569 16.27198,-18.55173 41.99264,-46.60869 0.51176,-0.55824 14.42534,9.28281 83.15765,58.81724 45.39868,32.71821 82.87683,59.54623 83.28477,59.61783 0.52121,0.0915 156.81625,-115.21414 162.68294,-120.01824 0.38847,-0.31811 3.78497,3.13531 11.16211,11.34917 5.83206,6.49352 16.05129,17.778 22.70939,25.07662 6.65812,7.29861 12.0254,13.34057 11.9273,13.42658 -0.47095,0.41289 -208.94605,139.78706 -209.06335,139.76744 -0.0742,-0.0124 -46.83633,-31.73587 -103.91578,-70.49656 z"
     id="path321" />
</svg>
