<svg xmlns="http://www.w3.org/2000/svg" width="213" height="240" style="shape-rendering:geometricPrecision;text-rendering:geometricPrecision;image-rendering:optimizeQuality;fill-rule:evenodd;clip-rule:evenodd"><path style="opacity:1" fill="#fbfbfa" d="M-.5-.5h213v240H-.5V-.5z"/><path style="opacity:1" fill="#504938" d="M208.5 3.5h-3a523.546 523.546 0 0 1-61 2c-32.018.66-63.684-.007-95-2 53.17-.274 106.17-.274 159 0z"/><path style="opacity:1" fill="#51432b" d="M7.5 3.5h42c31.316 1.993 62.982 2.66 95 2v1h-1c-32.673-.333-65.34 0-98 1 .124.607.457.94 1 1v1h-2a5.728 5.728 0 0 1-3 1c.671-1.347.671-2.514 0-3.5-10.841-.825-21.508-.659-32 .5h-2v-4z"/><path style="opacity:1" fill="#493f0f" d="M205.5 3.5c-.734 1.208-1.067 2.541-1 4h-2a841.593 841.593 0 0 0-58-1v-1a523.546 523.546 0 0 0 61-2z"/><path style="opacity:1" fill="#847936" d="M143.5 6.5v1h-91c-2.235-.295-4.235.039-6 1-.543-.06-.876-.393-1-1 32.66-1 65.327-1.333 98-1z"/><path style="opacity:1" fill="#f7ec5a" d="M52.5 7.5h52l-2 4c-1.359.507-2.359 1.507-3 3a21.617 21.617 0 0 0-3-4c-5.627-1.33-11.627-1.996-18-2l-18 .5a20.667 20.667 0 0 0 5 7c-.556.383-.89.883-1 1.5a20.677 20.677 0 0 1-5-1c.092-3.571-1.574-4.738-5-3.5-.556.383-.89.883-1 1.5h-4v-6c1.291.237 2.291-.096 3-1z"/><path style="opacity:1" fill="#f3e878" d="M104.5 7.5h43a474.628 474.628 0 0 1-31 1.5c3.025.133 5.692 1.133 8 3 1.333 1.333 1.333 2.667 0 4 1.153 1.883 2.819 2.716 5 2.5a99.775 99.775 0 0 0 2 9.5c-.248 1.716-.915 3.216-2 4.5 3.376 6.035 3.876 12.368 1.5 19a53.848 53.848 0 0 1-6.5 6 529.806 529.806 0 0 0-2 14c-1.714 2.713-4.047 4.713-7 6 4.678-4.034 6.345-9.034 5-15-4.029 1.007-7.362 3.007-10 6-.983-3.798-1.317-7.798-1-12-.172-.992.162-1.658 1-2a5.728 5.728 0 0 1 3 1c9.734 1.312 15.734-3.022 18-13 .103-4.345-1.564-7.679-5-10v-1c4.953-1.591 5.286-3.925 1-7a14.72 14.72 0 0 1-1.5-5c-1.011-.837-2.178-1.17-3.5-1v-2c.353-2.135-.48-3.468-2.5-4a3830.174 3830.174 0 0 1-11 7l-.5-2c4.118-3.128 3.785-5.794-1-8a325.352 325.352 0 0 1-5 2l2-4z"/><path style="opacity:1" fill="#faf454" d="M147.5 7.5c5.344-.166 10.677 0 16 .5-1.532.7-2.532 1.866-3 3.5a42.717 42.717 0 0 1-9 1.5 89.691 89.691 0 0 1-4 6.5v2c.343 1.983-.324 3.317-2 4a26.514 26.514 0 0 1-4.5 4c-1.261-.26-2.261-.926-3-2-.779 2.406.054 4.073 2.5 5a45.209 45.209 0 0 0-.5 16c.708.88 1.542 1.547 2.5 2a19.555 19.555 0 0 1 4 3.5c1.882.198 3.548.698 5 1.5a10.136 10.136 0 0 0 1.5 4c2.955-.178 6.121-.178 9.5 0a9.86 9.86 0 0 1-1 6 16.062 16.062 0 0 0-5-2h-4c.111-.617.444-1.117 1-1.5-1.912-1.2-3.245-2.867-4-5-7.039-1.242-11.039-5.41-12-12.5-1.525 2.778-2.525 5.778-3 9 1.311.758 1.811 1.758 1.5 3-3.73.96-7.563 1.294-11.5 1a53.848 53.848 0 0 0 6.5-6c2.376-6.632 1.876-12.965-1.5-19 1.085-1.284 1.752-2.784 2-4.5a99.775 99.775 0 0 1-2-9.5c-2.181.216-3.847-.617-5-2.5 1.333-1.333 1.333-2.667 0-4-2.308-1.867-4.975-2.867-8-3 10.508-.17 20.841-.67 31-1.5z"/><path style="opacity:1" fill="#d3ca5b" d="M9.5 7.5c10.492-1.159 21.159-1.325 32-.5.671.986.671 2.153 0 3.5-2.412.194-3.412 1.527-3 4 0 .667-.333 1-1 1-1.782-.614-3.116-1.78-4-3.5a4.932 4.932 0 0 0-3-.5c1.67-1.16 3.502-1.16 5.5 0 1.434-.43 2.6-1.264 3.5-2.5a120.141 120.141 0 0 0-25-1.5h-5z"/><path style="opacity:1" fill="#c05a53" d="M44.5 9.5c.221 1.235.888 2.235 2 3a10.76 10.76 0 0 0-2.5 3 26.61 26.61 0 0 1-3.5-2 5.576 5.576 0 0 0 1-3 5.728 5.728 0 0 0 3-1z"/><path style="opacity:1" fill="#d3be60" d="M93.5 11.5c.342-.838 1.008-1.172 2-1h1a21.617 21.617 0 0 1 3 4c.641-1.493 1.641-2.493 3-3a29.752 29.752 0 0 0 2 7c-3.606-1.288-6.606-3.288-9-6-.342-.838-1.008-1.172-2-1z"/><path style="opacity:1" fill="#e7da75" d="M143.5 7.5v-1h1c19.507-.33 38.841.003 58 1-3.871-.315-7.538.018-11 1a91.123 91.123 0 0 0-19 1 3.647 3.647 0 0 0 1 1.5c7.105-1.38 10.772 1.453 11 8.5a24.491 24.491 0 0 1-11 2.5c2.336-2.833 5.336-4 9-3.5.207-2.627-.96-4.293-3.5-5a36.528 36.528 0 0 0-9 7 8.43 8.43 0 0 1-.5-4h3c-.139-3.088-1.139-5.755-3-8a38.103 38.103 0 0 1-8 3c.318 3.029 1.151 5.695 2.5 8a147.526 147.526 0 0 0-9.5-6c-3.01.694-3.677 2.36-2 5 0 .667-.333 1-1 1h-4a89.691 89.691 0 0 0 4-6.5 42.717 42.717 0 0 0 9-1.5c.468-1.634 1.468-2.8 3-3.5-5.323-.5-10.656-.666-16-.5h-4z"/><path style="opacity:1" fill="#ebdc89" d="M52.5 7.5c-.709.904-1.709 1.237-3 1v6h4a44.007 44.007 0 0 0-7 5l-1-2c3.357-2.372 3.69-5.039 1-8v-1c1.765-.961 3.765-1.295 6-1z"/><path style="opacity:1" fill="#603516" d="M122.5 16.5a54.207 54.207 0 0 0-9 4 14.74 14.74 0 0 1-1-2c-1.688 1.021-3.021 2.355-4 4l-2-1c-.016-3.56.484-6.893 1.5-10l-1-1a23.602 23.602 0 0 1-3.5 3c2.034 2.099 2.368 4.432 1 7l-1-.5c.556-.383.889-.883 1-1.5a29.752 29.752 0 0 1-2-7 325.352 325.352 0 0 0 5-2c4.785 2.206 5.118 4.872 1 8l.5 2c3.656-2.318 7.323-4.651 11-7 2.02.532 2.853 1.865 2.5 4z"/><path style="opacity:1" fill="#d5ca79" d="M59.5 16.5c1.617.538 3.284.871 5 1v1a37.803 37.803 0 0 1-13 1.5c2.525-1.719 5.192-2.886 8-3.5z"/><path style="opacity:1" fill="#fbf33e" d="M96.5 10.5h-1c-1.1-1.098-2.434-1.265-4-.5-1.877 2.126-2.877 4.626-3 7.5-1.644-.213-3.144.12-4.5 1a18.436 18.436 0 0 0-.5 6c-1.562 2.4-1.229 4.4 1 6-1 1.667-2.333 3-4 4-.617.11-1.117.444-1.5 1a36.434 36.434 0 0 0 .5 12h-4a8.434 8.434 0 0 0-.5-4 244.665 244.665 0 0 0-4.5-8c-2.814-1.94-3.48-4.44-2-7.5a82.15 82.15 0 0 1-3-8.5c0-.667-.333-1-1-1v-1c.11-.617.444-1.117 1-1.5a20.667 20.667 0 0 1-5-7l18-.5c6.373.004 12.373.67 18 2z"/><path style="opacity:1" fill="#d7c56f" d="M28.5 13.5c-.17 1.322.163 2.489 1 3.5 3.762.718 7.096 2.218 10 4.5a2.428 2.428 0 0 1-.5 2 50.558 50.558 0 0 0-13.5-6 22.853 22.853 0 0 0 3-4z"/><path style="opacity:1" fill="#b35852" d="M51.5 24.5c0 .667.333 1 1 1 2.469.817 5.135 1.317 8 1.5-3.965.108-7.632.941-11 2.5a5.728 5.728 0 0 0-3 1c.338-2.657-.329-4.99-2-7-1.554 2.433-2.22 5.1-2 8h3c-1.068.934-2.401 1.268-4 1v-6c.825-2.049.159-3.715-2-5a14.692 14.692 0 0 0-3-3.5l1-.5a55.93 55.93 0 0 0 7.5 5c.414-.457.914-.79 1.5-1a9.864 9.864 0 0 1 1 6 8.434 8.434 0 0 0 4-.5c-2.486-.705-2.486-1.538 0-2.5z"/><path style="opacity:1" fill="#bcaf61" d="M90.5 17.5c3.428.047 6.428 1.213 9 3.5a2.428 2.428 0 0 1-2 .5c-1.939-1.663-4.272-2.33-7-2h-5l5-2z"/><path style="opacity:1" fill="#f1ea67" d="M95.5 10.5c-.992-.172-1.658.162-2 1-2.475 1.187-3.475 3.187-3 6l-5 2c-.134 1.791.2 3.458 1 5h-3a18.436 18.436 0 0 1 .5-6c1.356-.88 2.856-1.213 4.5-1 .123-2.874 1.123-5.374 3-7.5 1.566-.765 2.9-.598 4 .5z"/><path style="opacity:1" fill="#f0d6a6" d="M122.5 16.5v2a38.312 38.312 0 0 0-8 3c-.607-.124-.94-.457-1-1a54.207 54.207 0 0 1 9-4z"/><path style="opacity:1" fill="#eed488" d="M152.5 18.5c2.489-.202 4.823.298 7 1.5 1.507.837 2.007 2.004 1.5 3.5a149.001 149.001 0 0 1-9.5-4c.667 0 1-.333 1-1z"/><path style="opacity:1" fill="#713d1c" d="M25.5 17.5a50.558 50.558 0 0 1 13.5 6 2.428 2.428 0 0 0 .5-2c2.159 1.285 2.825 2.951 2 5a16.066 16.066 0 0 1-5-2c-.607.124-.94.457-1 1-3.33-1.798-6.997-2.464-11-2-1.346-2.292-1.012-4.292 1-6z"/><path style="opacity:1" fill="#7e442c" d="M113.5 20.5c.06.543.393.876 1 1a38.312 38.312 0 0 1 8-3c1.322-.17 2.489.163 3.5 1a14.72 14.72 0 0 0 1.5 5c4.286 3.075 3.953 5.409-1 7-5.46-3.798-11.126-3.798-17 0 .17-1.322-.163-2.489-1-3.5l3-3c-1.442-.377-2.442-1.21-3-2.5.979-1.645 2.312-2.979 4-4 .287.7.62 1.367 1 2z"/><path style="opacity:1" fill="#693b22" d="M44.5 9.5h2c2.69 2.961 2.357 5.628-1 8l1 2a44.007 44.007 0 0 1 7-5c.11-.617.444-1.117 1-1.5 3.426-1.238 5.092-.071 5 3.5-2.808.614-5.475 1.781-8 3.5a37.803 37.803 0 0 0 13-1.5c.667 0 1 .333 1 1v3a149.288 149.288 0 0 1-14 2c-2.486.962-2.486 1.795 0 2.5a8.434 8.434 0 0 1-4 .5 9.864 9.864 0 0 0-1-6 3.646 3.646 0 0 0-1.5 1 55.93 55.93 0 0 1-7.5-5l-1 .5a14.692 14.692 0 0 1 3 3.5c-2.904-2.282-6.238-3.782-10-4.5-.837-1.011-1.17-2.178-1-3.5.333-1 1-1.667 2-2a4.932 4.932 0 0 1 3 .5c.884 1.72 2.218 2.886 4 3.5 1.265.98 2.599 1.98 4 3 1.021-.502 1.188-1.168.5-2a18.492 18.492 0 0 0-3.5-2c-.412-2.473.588-3.806 3-4a5.576 5.576 0 0 1-1 3 26.61 26.61 0 0 0 3.5 2 10.76 10.76 0 0 1 2.5-3c-1.112-.765-1.779-1.765-2-3z"/><path style="opacity:1" fill="#c5b67d" d="M38.5 14.5a18.492 18.492 0 0 1 3.5 2c.688.832.521 1.498-.5 2a171.62 171.62 0 0 1-4-3c.667 0 1-.333 1-1z"/><path style="opacity:1" fill="#552811" d="M93.5 11.5c.992-.172 1.658.162 2 1-1.634.707-2.968 1.873-4 3.5 5.467.325 9.467 2.825 12 7.5l-.5 1c-2.058-.73-3.891-1.73-5.5-3a2.428 2.428 0 0 0 2-.5c-2.572-2.287-5.572-3.453-9-3.5-.475-2.813.525-4.813 3-6z"/><path style="opacity:1" fill="#edd799" d="M65.5 22.5v2a61.253 61.253 0 0 1-13 1c-.667 0-1-.333-1-1a149.288 149.288 0 0 0 14-2z"/><path style="opacity:1" fill="#52290c" d="M85.5 19.5h5a70.679 70.679 0 0 1-4 2c.998 2.528 1.831 2.528 2.5 0a96.689 96.689 0 0 1 6.5 2 41.744 41.744 0 0 0-9 1c-.8-1.542-1.134-3.209-1-5z"/><path style="opacity:1" fill="#a35444" d="M106.5 21.5c-2.193 2.022-3.193 4.689-3 8-1.477-3.422-4.143-5.422-8-6a96.689 96.689 0 0 0-6.5-2c-.669 2.528-1.502 2.528-2.5 0a70.679 70.679 0 0 0 4-2c2.728-.33 5.061.337 7 2 1.609 1.27 3.442 2.27 5.5 3l.5-1c-2.533-4.675-6.533-7.175-12-7.5 1.032-1.627 2.366-2.793 4-3.5 2.394 2.712 5.394 4.712 9 6-.111.617-.444 1.117-1 1.5l1 .5c1.368-2.568 1.034-4.901-1-7a23.602 23.602 0 0 0 3.5-3l1 1c-1.016 3.107-1.516 6.44-1.5 10z"/><path style="opacity:1" fill="#854d2a" d="M184.5 19.5c1.713 1.135 2.38 2.802 2 5a50.442 50.442 0 0 0-10 .5c-.916.278-1.582.778-2 1.5l-5 4c.359-1.871 1.359-3.371 3-4.5-.949-.617-1.782-.45-2.5.5-1.405-3.572-1.738-7.239-1-11a9.465 9.465 0 0 1 2.5-1.5 19.897 19.897 0 0 1-4-3.5c-1.024 1.353-2.357 2.02-4 2 2.096 5.236 2.429 10.57 1 16-4.193-1.968-8.526-2.468-13-1.5-1.859-.6-2.192-1.434-1-2.5l-3-3v-2h4a149.001 149.001 0 0 0 9.5 4c.507-1.496.007-2.663-1.5-3.5-2.177-1.202-4.511-1.702-7-1.5-1.677-2.64-1.01-4.306 2-5 3.213 1.86 6.379 3.86 9.5 6-1.349-2.305-2.182-4.971-2.5-8a38.103 38.103 0 0 0 8-3c1.861 2.245 2.861 4.912 3 8h-3a8.43 8.43 0 0 0 .5 4 36.528 36.528 0 0 1 9-7c2.54.707 3.707 2.373 3.5 5-3.664-.5-6.664.667-9 3.5 3.857.024 7.523-.81 11-2.5z"/><path style="opacity:1" fill="#e8cf9a" d="M117.5 23.5c1.788-.285 3.455.048 5 1-2.947 1.158-5.947 1.658-9 1.5 1.566-.608 2.9-1.442 4-2.5z"/><path style="opacity:1" fill="#f7de9c" d="M150.5 24.5c2.044-1.278 4.044-1.112 6 .5-2.212.79-4.212.622-6-.5z"/><path style="opacity:1" fill="#c9524b" d="M169.5 30.5v5h-4c.117-1.983-.55-3.65-2-5 .363-.683.696-1.35 1-2 1.429-5.43 1.096-10.764-1-16 1.643.02 2.976-.647 4-2a19.897 19.897 0 0 0 4 3.5 9.465 9.465 0 0 0-2.5 1.5c-.738 3.761-.405 7.428 1 11 .718-.95 1.551-1.117 2.5-.5-1.641 1.129-2.641 2.629-3 4.5z"/><path style="opacity:1" fill="#735726" d="M95.5 23.5c.418.722 1.084 1.222 2 1.5a72.444 72.444 0 0 1-12 .5c.134 1.791-.2 3.458-1 5-2.229-1.6-2.562-3.6-1-6h3a41.744 41.744 0 0 1 9-1z"/><path style="opacity:1" fill="#e5d48a" d="M186.5 24.5c.667 0 1 .333 1 1a260.49 260.49 0 0 0-12.5 2c-.399-.228-.565-.562-.5-1 .418-.722 1.084-1.222 2-1.5a50.442 50.442 0 0 1 10-.5z"/><path style="opacity:1" fill="#a87150" d="M23.5 23.5h1c4.003-.464 7.67.202 11 2 .417.722 1.084 1.222 2 1.5l-12 1c-.544.717-1.21 1.217-2 1.5-2.967-2.75-2.3-4.25 2-4.5-.916-.278-1.582-.778-2-1.5z"/><path style="opacity:1" fill="#dc504a" d="M46.5 30.5v1h-4c-.22-2.9.446-5.567 2-8 1.671 2.01 2.338 4.343 2 7z"/><path style="opacity:1" fill="#582b1a" d="M65.5 24.5c1.68 2.226 1.347 3.893-1 5-4.977-1.19-9.977-1.19-15 0 3.368-1.559 7.035-2.392 11-2.5-2.865-.183-5.531-.683-8-1.5a61.253 61.253 0 0 0 13-1z"/><path style="opacity:1" fill="#6b351a" d="m147.5 21.5 3 3c-1.192 1.066-.859 1.9 1 2.5 4.474-.968 8.807-.468 13 1.5-.304.65-.637 1.317-1 2 1.45 1.35 2.117 3.017 2 5-1.871.359-3.371 1.359-4.5 3-1.22 7.792.947 14.459 6.5 20 2.512-2.17 4.179-4.837 5-8 1.887-1.268 2.887-3.101 3-5.5a29.492 29.492 0 0 1-1-6.5c-.172-.992.162-1.658 1-2 1.804.88 3.304 2.214 4.5 4 1.164 5.226.331 10.06-2.5 14.5a8.435 8.435 0 0 0 4 .5c-2.155 2.034-4.488 2.367-7 1 3.998-4.167 5.498-9.167 4.5-15l-3-3c.482 3.26.482 6.593 0 10a80.39 80.39 0 0 0-5.5 10c-.667 0-1 .333-1 1a5.728 5.728 0 0 1-3 1l-2-3a71.972 71.972 0 0 1-5.5-10c-.891-3.872-.391-7.538 1.5-11-1.368-1.094-2.535-.76-3.5 1-3.31 5.763-3.144 11.43.5 17 0 .667-.333 1-1 1-4.638-7.787-3.971-14.953 2-21.5a24.939 24.939 0 0 0-7-.5c.111-.617.444-1.117 1-1.5a18.437 18.437 0 0 0-6-.5c-.841-1.88-1.175-3.88-1-6 1.676-.683 2.343-2.017 2-4z"/><path style="opacity:1" fill="#52391c" d="M187.5 25.5c1.604.787 2.271 2.12 2 4-5.383-1.377-10.716-1.21-16 .5-1.926.422-2.926 1.59-3 3.5h-1v-3l5-4c-.065.438.101.772.5 1a260.49 260.49 0 0 1 12.5-2z"/><path style="opacity:1" fill="#885942" d="M64.5 29.5v2h-1c-1.599-.268-2.932.066-4 1-1.7-.126-3.2-.793-4.5-2-2.03.454-3.863 1.12-5.5 2 2.383 1.385 4.05 3.385 5 6-1.648-1.31-3.314-2.643-5-4-.963.47-.963 1.136 0 2h-2a20.677 20.677 0 0 1-1-5v-1a5.728 5.728 0 0 1 3-1c5.023-1.19 10.023-1.19 15 0z"/><path style="opacity:1" fill="#6b3525" d="M95.5 23.5c3.857.578 6.523 2.578 8 6v2c-1.208.734-2.541 1.067-4 1-1.792-.81-3.792-1.31-6-1.5l1-1c-2.76-.722-5.427-.555-8 .5h-2c.8-1.542 1.134-3.209 1-5a72.444 72.444 0 0 0 12-.5c-.916-.278-1.582-.778-2-1.5z"/><path style="opacity:1" fill="#ac9a71" d="m189.5 29.5-2 2h-1c-5.493-1.581-10.827-.915-16 2 .074-1.91 1.074-3.078 3-3.5 5.284-1.71 10.617-1.877 16-.5z"/><path style="opacity:1" fill="#d4be96" d="M35.5 30.5c0-.667.333-1 1-1 2.333.333 3.667 1.667 4 4-1.105-1.1-2.438-1.767-4-2 0-.667-.333-1-1-1z"/><path style="opacity:1" fill="#55241a" d="M41.5 26.5v6c0 .667-.333 1-1 1-.333-2.333-1.667-3.667-4-4-4.498-1.404-8.831-.737-13 2v-2c.79-.283 1.456-.783 2-1.5l12-1c-.916-.278-1.583-.778-2-1.5.06-.543.393-.876 1-1a16.066 16.066 0 0 0 5 2z"/><path style="opacity:1" fill="#bca083" d="M126.5 31.5v1l-2-1c-5.252-1.084-10.252-1.084-15 0 5.874-3.798 11.54-3.798 17 0z"/><path style="opacity:1" fill="#632b1c" d="M124.5 31.5v1c-1.955-.823-3.955-.99-6-.5.916.278 1.582.778 2 1.5a40.939 40.939 0 0 0-9 .5c2.794 1.535 4.794 3.702 6 6.5v1c-.722-.417-1.222-1.084-1.5-2-.013 3.846-1.18 7.179-3.5 10a31.337 31.337 0 0 0 .5-12 13.24 13.24 0 0 0-5-3c-.725-1.657-.225-2.657 1.5-3 4.748-1.084 9.748-1.084 15 0z"/><path style="opacity:1" fill="#f3e55b" d="M145.5 25.5c-.175 2.12.159 4.12 1 6h-1c-2.434 1.271-3.934 3.271-4.5 6-.731 4.484-.231 8.818 1.5 13-.958-.453-1.792-1.12-2.5-2a45.209 45.209 0 0 1 .5-16c-2.446-.927-3.279-2.594-2.5-5 .739 1.074 1.739 1.74 3 2a26.514 26.514 0 0 0 4.5-4z"/><path style="opacity:1" fill="#9d835f" d="M151.5 28.5c5.219-.206 9.553 1.627 13 5.5a79.96 79.96 0 0 1-7-3l-8-1c.916-.278 1.582-.778 2-1.5z"/><path style="opacity:1" fill="#55514b" d="M7.5 3.5v4c-1.07 3.625-1.736 7.458-2 11.5A7871.022 7871.022 0 0 1 7 139.5a461.54 461.54 0 0 0 2 15c.725 3.29 1.892 6.29 3.5 9v1c1.32 4.91 2.32 9.91 3 15-5.9-10.144-9.734-21.144-11.5-33a2618.783 2618.783 0 0 1 1-141c.417-1.256 1.25-1.923 2.5-2z"/><path style="opacity:1" fill="#77221f" d="M36.5 31.5c1.562.233 2.895.9 4 2 .667 0 1-.333 1-1 1.599.268 2.932-.066 4-1h1a20.677 20.677 0 0 0 1 5c-3.333-2.667-6.667-2.667-10 0l-1-2c1.333-1 1.333-2 0-3z"/><path style="opacity:1" fill="#c64e40" d="M99.5 32.5c-.762 1.762-2.096 2.762-4 3 .13-.876-.203-1.543-1-2-2.115.534-3.948 1.534-5.5 3a33.746 33.746 0 0 0-1.5 11c-5.904-2.664-7.404-6.997-4.5-13a19.568 19.568 0 0 0 3.5-4c2.573-1.055 5.24-1.222 8-.5l-1 1c2.208.19 4.208.69 6 1.5z"/><path style="opacity:1" fill="#a05241" d="M103.5 31.5c-.122 2.792-1.456 4.792-4 6h-1c-.397-1.025-1.063-1.192-2-.5-1.57 1.397-2.904 2.897-4 4.5v-3a6.541 6.541 0 0 0 3-3c1.904-.238 3.238-1.238 4-3 1.459.067 2.792-.266 4-1z"/><path style="opacity:1" fill="#5d251a" d="M186.5 31.5a32.438 32.438 0 0 0-8 .5c1.237.232 2.237.732 3 1.5-.667 0-1 .333-1 1-2.238-1.037-4.571-1.203-7-.5.881.708 1.547 1.542 2 2.5-.838.342-1.172 1.008-1 2a11.743 11.743 0 0 0-5-3v-2h1c5.173-2.915 10.507-3.581 16-2z"/><path style="opacity:1" fill="#d86351" d="M36.5 29.5c-.667 0-1 .333-1 1-3.393-.438-6.393.395-9 2.5A31.734 31.734 0 0 0 21 43.5c-2.451-4.672-1.618-8.672 2.5-12 4.169-2.737 8.502-3.404 13-2z"/><path style="opacity:1" fill="#de5950" d="M49.5 32.5c10.499-.331 14.666 4.669 12.5 15-1.285 3.707-3.785 5.54-7.5 5.5 1.996-4.271 2.496-8.771 1.5-13.5-.383-.556-.883-.89-1.5-1-.95-2.615-2.617-4.615-5-6z"/><path style="opacity:1" fill="#d3614f" d="M124.5 32.5c4.607 2.272 6.107 5.938 4.5 11-1.254-4.749-4.088-8.082-8.5-10-.418-.722-1.084-1.222-2-1.5 2.045-.49 4.045-.323 6 .5z"/><path style="opacity:1" fill="#8b2d1f" d="M145.5 31.5h1a18.437 18.437 0 0 1 6 .5c-.556.383-.889.883-1 1.5-4.89 6.11-5.223 12.444-1 19h-2c-4.479-7.001-3.813-13.501 2-19.5-1.765-.64-3.432-.473-5 .5v-2z"/><path style="opacity:1" fill="#e6574f" d="M180.5 34.5c6.698 4.101 8.365 9.768 5 17l-4 4a8.435 8.435 0 0 1-4-.5c2.831-4.44 3.664-9.274 2.5-14.5-1.196-1.786-2.696-3.12-4.5-4-.453-.958-1.119-1.792-2-2.5 2.429-.703 4.762-.537 7 .5z"/><path style="opacity:1" fill="#d66257" d="M186.5 31.5c5.137 4.674 6.304 10.34 3.5 17-.383.556-.883.89-1.5 1a50.464 50.464 0 0 0-.5-10c-1.406-2.909-3.572-4.909-6.5-6-.763-.768-1.763-1.268-3-1.5a32.438 32.438 0 0 1 8-.5z"/><path style="opacity:1" fill="#f2e661" d="M20.5 25.5c-.117 1.983.55 3.65 2 5a32.404 32.404 0 0 0-4.5 5 12.5 12.5 0 0 0 0 7 37.057 37.057 0 0 0 7.5 10 1843.12 1843.12 0 0 0-9-5.5 3.943 3.943 0 0 0 1-2c-2.592-3.815-2.592-7.648 0-11.5-2.248-.824-2.414-1.824-.5-3 1.183 1.231 2.35 1.231 3.5 0-1.235-1.816-1.235-3.483 0-5z"/><path style="opacity:1" fill="#db5e54" d="M63.5 31.5c3.837 3.843 5.004 8.51 3.5 14-.66 1.824-1.827 3.157-3.5 4 2.275-6.655.941-12.322-4-17 1.068-.934 2.401-1.268 4-1z"/><path style="opacity:1" fill="#e34f48" d="m106.5 21.5 2 1c.558 1.29 1.558 2.123 3 2.5l-3 3c.837 1.011 1.17 2.178 1 3.5-1.725.343-2.225 1.343-1.5 3a13.24 13.24 0 0 1 5 3c.607 4.037.44 8.037-.5 12a50.746 50.746 0 0 0-5 6.5c-1.852.773-3.186.273-4-1.5-4.81-4.726-6.143-10.392-4-17 2.544-1.208 3.878-3.208 4-6v-2c-.193-3.311.807-5.978 3-8z"/><path style="opacity:1" fill="#955020" d="M63.5 31.5h1c3.323 1.652 4.99 4.319 5 8 .568 5.864-1.765 9.864-7 12-.172-.992.162-1.658 1-2 1.673-.843 2.84-2.176 3.5-4 1.504-5.49.337-10.157-3.5-14z"/><path style="opacity:1" fill="#6d3d12" d="M186.5 31.5h1c5.577 3.516 7.41 8.516 5.5 15-3 4.081-6.834 7.081-11.5 9l4-4 3-2c.617-.11 1.117-.444 1.5-1 2.804-6.66 1.637-12.326-3.5-17z"/><path style="opacity:1" fill="#e46254" d="M169.5 35.5a11.743 11.743 0 0 1 5 3c.09 2.196.423 4.363 1 6.5-.113 2.399-1.113 4.232-3 5.5 1.663-5.662.663-10.662-3-15z"/><path style="opacity:1" fill="#801912" d="M180.5 34.5c0-.667.333-1 1-1 2.928 1.091 5.094 3.091 6.5 6 .498 3.317.665 6.65.5 10l-3 2c3.365-7.232 1.698-12.899-5-17z"/><path style="opacity:1" fill="#f35348" d="M46.5 53.5c-.904.709-1.237 1.709-1 3-2.132-.054-3.465-1.054-4-3-2.083-5.076-2.916-10.41-2.5-16 2.774-1.023 5.608-1.023 8.5 0a84.022 84.022 0 0 1-1 16z"/><path style="opacity:1" fill="#e95950" d="M151.5 33.5c2.357-.163 4.69.003 7 .5-5.971 6.547-6.638 13.713-2 21.5-2.447-.115-4.447-1.115-6-3-4.223-6.556-3.89-12.89 1-19z"/><path style="opacity:1" fill="#e5564c" d="M36.5 31.5c1.333 1 1.333 2 0 3-5.564 2.564-7.398 6.897-5.5 13a15.83 15.83 0 0 0 3.5 5.5c-6.569-.208-10.236-3.708-11-10.5 1.6-6.935 5.933-10.601 13-11z"/><path style="opacity:1" fill="#e45e55" d="M47.5 36.5h1a32.591 32.591 0 0 1 .5 13c-.608 1.566-1.441 2.9-2.5 4a84.022 84.022 0 0 0 1-16c-2.892-1.023-5.726-1.023-8.5 0-.416 5.59.417 10.924 2.5 16-2.768-1.45-4.435-3.784-5-7a10.028 10.028 0 0 1-1-3 28.76 28.76 0 0 0 2-7c3.333-2.667 6.667-2.667 10 0z"/><path style="opacity:1" fill="#50493c" d="M205.5 3.5h3c.167 46.001 0 92.001-.5 138l-1.5 12c-.375 2.198-1.042 4.198-2 6 .489-50.47.489-101.136 0-152-.067-1.459.266-2.792 1-4z"/><path style="opacity:1" fill="#ee5346" d="M95.5 35.5a6.541 6.541 0 0 1-3 3c-.617.11-1.117.444-1.5 1l-1 10c-.67-.752-1.504-1.086-2.5-1v-1a33.746 33.746 0 0 1 1.5-11c1.552-1.466 3.385-2.466 5.5-3 .797.457 1.13 1.124 1 2z"/><path style="opacity:1" fill="#f84c43" d="M103.5 54.5c-1.388-6.02-1.222-12.02.5-18 .572 2.392 1.738 4.392 3.5 6-.986 3.809-.986 7.809 0 12h-4z"/><path style="opacity:1" fill="#f34c42" d="M123.5 51.5c-.342.838-1.008 1.172-2 1-1.086-.12-1.753-.787-2-2l2-5c.047-1.538-.62-2.538-2-3-.173-2.68-1.173-5.013-3-7 .865-1.083 1.865-1.25 3-.5 3.881 4.89 5.215 10.39 4 16.5z"/><path style="opacity:1" fill="#e06352" d="M148.5 52.5c-2.591-.754-4.424-2.421-5.5-5a30.485 30.485 0 0 1 0-11c.377-1.442 1.21-2.442 2.5-3 1.568-.973 3.235-1.14 5-.5-5.813 5.999-6.479 12.499-2 19.5z"/><path style="opacity:1" fill="#f15048" d="M165.5 35.5h4c3.663 4.338 4.663 9.338 3 15-.821 3.163-2.488 5.83-5 8-5.553-5.541-7.72-12.208-6.5-20 1.129-1.641 2.629-2.641 4.5-3z"/><path style="opacity:1" fill="#6a3117" d="M48.5 36.5h1c2.66 6.093 2.326 12.093-1 18-.667 0-1 .333-1 1-.667 0-1 .333-1 1h-1c-.237-1.291.096-2.291 1-3 1.059-1.1 1.892-2.434 2.5-4 .706-4.387.54-8.72-.5-13z"/><path style="opacity:1" fill="#efe26e" d="M65.5 19.5a82.15 82.15 0 0 0 3 8.5c-1.48 3.06-.814 5.56 2 7.5a52.417 52.417 0 0 1-1 13c-3.159 3.082-6.825 5.416-11 7h-2c1.705-1.692 3.705-3.025 6-4 5.235-2.136 7.568-6.136 7-12-.01-3.681-1.677-6.348-5-8v-2c2.347-1.107 2.68-2.774 1-5v-5z"/><path style="opacity:1" fill="#e1564b" d="M120.5 33.5c4.982 4.285 6.982 9.618 6 16a7.468 7.468 0 0 1-3 2c1.215-6.11-.119-11.61-4-16.5-1.135-.75-2.135-.583-3 .5 1.827 1.987 2.827 4.32 3 7l-2-2c-1.206-2.798-3.206-4.965-6-6.5a40.939 40.939 0 0 1 9-.5z"/><path style="opacity:1" fill="#743e0f" d="M84.5 30.5h2a19.568 19.568 0 0 1-3.5 4c-2.904 6.003-1.404 10.336 4.5 13v1c1.747 3.874 4.747 5.707 9 5.5-4.818-3.192-6.152-7.359-4-12.5-.563 5.872 1.77 10.206 7 13-4.35 1.474-8.35.807-12-2a5.576 5.576 0 0 0-1-3c-5.908-3.382-7.908-8.382-6-15 1.667-1 3-2.333 4-4z"/><path style="opacity:1" fill="#e5d96e" d="M174.5 56.5a2.427 2.427 0 0 0-2 .5 19.588 19.588 0 0 1-2 3.5v-2a80.39 80.39 0 0 1 5.5-10c.482-3.407.482-6.74 0-10l3 3c.998 5.833-.502 10.833-4.5 15z"/><path style="opacity:1" fill="#743514" d="M98.5 37.5h1c-2.143 6.608-.81 12.274 4 17 .814 1.773 2.148 2.273 4 1.5a50.746 50.746 0 0 1 5-6.5 16.336 16.336 0 0 1-2 5c-.838.342-1.172 1.008-1 2-.667 0-1 .333-1 1h-5c0-.667-.333-1-1-1-4.535-4.773-6.369-10.44-5.5-17 .717-.544 1.217-1.21 1.5-2z"/><path style="opacity:1" fill="#722b11" d="M59.5 32.5c4.941 4.678 6.275 10.345 4 17-.838.342-1.172 1.008-1 2-2.295.975-4.295 2.308-6 4h-1a8.434 8.434 0 0 1-4-.5c3.924-4.97 4.924-10.47 3-16.5.617.11 1.117.444 1.5 1 .996 4.729.496 9.229-1.5 13.5 3.715.04 6.215-1.793 7.5-5.5 2.166-10.331-2.001-15.331-12.5-15 1.637-.88 3.47-1.546 5.5-2 1.3 1.207 2.8 1.874 4.5 2z"/><path style="opacity:1" fill="#ebd368" d="M54.5 38.5c1.924 6.03.924 11.53-3 16.5a8.434 8.434 0 0 0 4 .5c-.597.639-1.43.972-2.5 1a31.501 31.501 0 0 1-4.5-2c3.326-5.907 3.66-11.907 1-18-.963-.864-.963-1.53 0-2 1.686 1.357 3.352 2.69 5 4z"/><path style="opacity:1" fill="#e7d393" d="M117.5 41.5a24.935 24.935 0 0 1-.5 7l-3.5 7a5.728 5.728 0 0 0-3-1 16.336 16.336 0 0 0 2-5c2.32-2.821 3.487-6.154 3.5-10 .278.916.778 1.583 1.5 2z"/><path style="opacity:1" fill="#773416" d="m124.5 31.5 2 1c3.436 2.321 5.103 5.655 5 10-2.266 9.978-8.266 14.312-18 13l3.5-7c.497-2.31.663-4.643.5-7v-1l2 2c-.234 4.795-1.9 8.961-5 12.5 2.757.231 5.09-.602 7-2.5.992.172 1.658-.162 2-1a7.468 7.468 0 0 0 3-2c.982-6.382-1.018-11.715-6-16 4.412 1.918 7.246 5.251 8.5 10 1.607-5.062.107-8.728-4.5-11v-1z"/><path style="opacity:1" fill="#5b2d1c" d="M36.5 46.5c.565 3.216 2.232 5.55 5 7 .535 1.946 1.868 2.946 4 3v2h-4c-.432-1.21-1.099-2.21-2-3a22.584 22.584 0 0 1-4-8c0-.667.333-1 1-1z"/><path style="opacity:1" fill="#d36858" d="M92.5 38.5v3c-2.152 5.141-.818 9.308 4 12.5-4.253.207-7.253-1.626-9-5.5.996-.086 1.83.248 2.5 1l1-10c.383-.556.883-.89 1.5-1z"/><path style="opacity:1" fill="#d15852" d="M119.5 42.5c1.38.462 2.047 1.462 2 3l-2 5c.247 1.213.914 1.88 2 2-1.91 1.898-4.243 2.731-7 2.5 3.1-3.539 4.766-7.705 5-12.5z"/><path style="opacity:1" fill="#7a3512" d="M23.5 23.5c.418.722 1.084 1.222 2 1.5-4.3.25-4.967 1.75-2 4.5v2c-4.118 3.328-4.951 7.328-2.5 12A31.734 31.734 0 0 1 26.5 33c2.607-2.105 5.607-2.938 9-2.5.667 0 1 .333 1 1-7.067.399-11.4 4.065-13 11 .764 6.792 4.431 10.292 11 10.5a15.83 15.83 0 0 1-3.5-5.5c-1.898-6.103-.064-10.436 5.5-13l1 2a28.76 28.76 0 0 1-2 7 10.028 10.028 0 0 0 1 3c-.667 0-1 .333-1 1-.951-3.528-1.118-7.195-.5-11-4.79 5.98-4.29 11.646 1.5 17-3.6 1.465-6.932 1.132-10-1h-1a37.057 37.057 0 0 1-7.5-10 12.5 12.5 0 0 1 0-7 32.404 32.404 0 0 1 4.5-5c-1.45-1.35-2.117-3.017-2-5 .473-1.406 1.473-2.073 3-2z"/><path style="opacity:1" fill="#7c4c16" d="M145.5 31.5v2c-1.29.558-2.123 1.558-2.5 3a30.485 30.485 0 0 0 0 11c1.076 2.579 2.909 4.246 5.5 5h2c1.553 1.885 3.553 2.885 6 3 .667 0 1-.333 1-1 3.302 1.478 3.468 2.812.5 4-2.511-.34-4.678-1.34-6.5-3-1.452-.802-3.118-1.302-5-1.5a19.555 19.555 0 0 0-4-3.5c-1.731-4.182-2.231-8.516-1.5-13 .566-2.729 2.066-4.729 4.5-6z"/><path style="opacity:1" fill="#fbf33e" d="M14.5 7.5c8.403-.37 16.736.13 25 1.5-.9 1.236-2.066 2.07-3.5 2.5-1.998-1.16-3.83-1.16-5.5 0-1 .333-1.667 1-2 2a22.853 22.853 0 0 1-3 4c-2.012 1.708-2.346 3.708-1 6h-1c-1.527-.073-2.527.594-3 2-1.235 1.517-1.235 3.184 0 5-1.15 1.231-2.317 1.231-3.5 0-1.914 1.176-1.748 2.176.5 3-2.592 3.852-2.592 7.685 0 11.5a3.943 3.943 0 0 1-1 2 1843.12 1843.12 0 0 1 9 5.5h1c-.086.996.248 1.83 1 2.5 3.59.207 7.09.707 10.5 1.5.667 3 .667 6 0 9-.67-.752-1.504-1.086-2.5-1-1.916-2.477-4.582-3.477-8-3-.295 2.235.039 4.235 1 6 1.35 5.042 4.35 8.708 9 11 1.655 6.572 1.321 12.905-1 19-.667 0-1 .333-1 1a53.83 53.83 0 0 1-8 2c-2.327-.253-4.327.414-6 2l-4.5 7a72.496 72.496 0 0 0 0 17c.1 2.153.933 3.819 2.5 5 1.681 6.049 4.348 11.716 8 17v2c-1.287-1.268-2.287-.935-3 1a10.756 10.756 0 0 1-3-2.5c.935-2.381 1.268-4.881 1-7.5a12.93 12.93 0 0 1-5-.5c1.585-4.821.918-9.321-2-13.5a64.873 64.873 0 0 1-1-16h-4c-.417 16.11.25 32.11 2 48-2.447-4.938-3.447-10.272-3-16a8822.496 8822.496 0 0 0 1-135c1.599.268 2.932-.066 4-1z"/><path style="opacity:1" fill="#e2d379" d="M35.5 47.5a22.584 22.584 0 0 0 4 8 36.874 36.874 0 0 1-1 12c-1.355-.688-2.355-1.688-3-3 .996-.086 1.83.248 2.5 1 .667-3 .667-6 0-9A62.033 62.033 0 0 0 27.5 55c-.752-.67-1.086-1.504-1-2.5 3.068 2.132 6.4 2.465 10 1-5.79-5.354-6.29-11.02-1.5-17-.618 3.805-.451 7.472.5 11z"/><path style="opacity:1" fill="#f8ec53" d="M48.5 54.5a31.501 31.501 0 0 0 4.5 2c1.07-.028 1.903-.361 2.5-1h3c-.38 1.431-1.38 2.264-3 2.5.88.708 1.547 1.542 2 2.5h-4v3l-3 2h-3v-10c0-.667.333-1 1-1z"/><path style="opacity:1" fill="#889359" d="M109.5 56.5c-.317 4.202.017 8.202 1 12-.06.543-.393.876-1 1a36.877 36.877 0 0 1-1-12c0-.667.333-1 1-1z"/><path style="opacity:1" fill="#f4ec4d" d="M191.5 8.5c-.817 5.992-.484 11.992 1 18-1.29 2.427-.957 4.427 1 6-.96 1.312-.794 2.646.5 4 1.166 5.722.333 11.056-2.5 16a108.048 108.048 0 0 1-9.5 8c-.519-1.016-1.353-1.682-2.5-2-2.233 1.114-4.399 1.114-6.5 0-.667 1.667-.667 3.333 0 5 1.299-.466 2.799-.466 4.5 0a25.634 25.634 0 0 0-6 6c-.977-2.787-1.31-5.787-1-9a19.588 19.588 0 0 0 2-3.5 2.427 2.427 0 0 1 2-.5c2.512 1.367 4.845 1.034 7-1 4.666-1.919 8.5-4.919 11.5-9 1.91-6.484.077-11.484-5.5-15l2-2c.271-1.88-.396-3.213-2-4 0-.667-.333-1-1-1 .38-2.198-.287-3.865-2-5-.228-7.047-3.895-9.88-11-8.5a3.647 3.647 0 0 1-1-1.5 91.123 91.123 0 0 1 19-1z"/><path style="opacity:1" fill="#ebe471" d="M98.5 37.5c-.283.79-.783 1.456-1.5 2-.869 6.56.965 12.227 5.5 17 .319 4.863-.014 9.53-1 14a46.142 46.142 0 0 1-6-5.5c-1.525-1.009-3.192-1.509-5-1.5.204 3.018.537 6.018 1 9-.617-.11-1.117-.444-1.5-1a153.968 153.968 0 0 1-.5-11l1.5-1a43.35 43.35 0 0 0 5.5 3c.632 2.237 1.965 3.903 4 5 1.155-2.946 1.321-5.946.5-9a33.995 33.995 0 0 0-7.5-1.5c-2.677-.814-4.677-2.314-6-4.5 3.65 2.807 7.65 3.474 12 2-5.23-2.794-7.563-7.128-7-13 1.096-1.603 2.43-3.103 4-4.5.937-.692 1.603-.525 2 .5z"/><path style="opacity:1" fill="#f2ea6d" d="M164.5 57.5a98.433 98.433 0 0 1-.5 14c-2.028-3.192-4.528-5.859-7.5-8a16.062 16.062 0 0 1 5 2 9.86 9.86 0 0 0 1-6c-3.379-.178-6.545-.178-9.5 0a10.136 10.136 0 0 1-1.5-4c1.822 1.66 3.989 2.66 6.5 3 2.968-1.188 2.802-2.522-.5-4-3.644-5.57-3.81-11.237-.5-17 .965-1.76 2.132-2.094 3.5-1-1.891 3.462-2.391 7.128-1.5 11a71.972 71.972 0 0 0 5.5 10z"/><path style="opacity:1" fill="#bdc253" d="M35.5 64.5a21.16 21.16 0 0 0-7-2v5c-.961-1.765-1.295-3.765-1-6 3.418-.477 6.084.523 8 3z"/><path style="opacity:1" fill="#9c994c" d="M45.5 56.5h1c-.318 4.532.015 8.866 1 13v1c-.617.11-1.117.444-1.5 1a60.94 60.94 0 0 1-.5-11v-4z"/><path style="opacity:1" fill="#fce42c" d="M202.5 47.5a672.636 672.636 0 0 1-1 48h-2c.429-5.4-1.904-7.9-7-7.5 1.415 4.868 1.248 9.701-.5 14.5-.7-1.532-1.866-2.532-3.5-3a23.445 23.445 0 0 1-3.5 7c-.667 1.333-1.333 1.333-2 0-.667 2.667-1.333 2.667-2 0a4.457 4.457 0 0 0-1.5 2 148.472 148.472 0 0 0 4.5 5 75.642 75.642 0 0 1 3.5 21c-.605-2.805-1.938-5.139-4-7a80.623 80.623 0 0 0-8-9l-2-2a11.803 11.803 0 0 1-2-3.5c1.618-2.283 3.785-3.783 6.5-4.5a24.604 24.604 0 0 0 5.5-10c.904-.709 1.237-1.709 1-3h3c-.619-2.81-1.952-5.31-4-7.5.259-1.261.926-2.261 2-3-2.136-2.099-2.136-4.432 0-7-.566-.995-1.233-1.828-2-2.5v-12h4c-.289 5.07.878 9.737 3.5 14 .252-3.167.418-6.167.5-9-2.629-2.1-2.629-4.1 0-6 1.471.88 2.304 2.214 2.5 4l3-3a145.05 145.05 0 0 0 .5-17c1.792-.134 3.458.2 5 1z"/><path style="opacity:1" fill="#fbeb2b" d="M191.5 8.5h11v39c-1.542-.8-3.208-1.134-5-1a145.05 145.05 0 0 1-.5 17l-3 3c-.196-1.786-1.029-3.12-2.5-4-2.629 1.9-2.629 3.9 0 6a178.979 178.979 0 0 1-.5 9c-2.622-4.263-3.789-8.93-3.5-14h-4v12c-.722.418-1.222 1.084-1.5 2l-.5-1.5c1.262-3.978 1.262-7.812 0-11.5-1.068-.934-2.401-1.268-4-1-1.701-.466-3.201-.466-4.5 0-.667-1.667-.667-3.333 0-5 2.101 1.114 4.267 1.114 6.5 0 1.147.318 1.981.984 2.5 2a108.048 108.048 0 0 0 9.5-8c2.833-4.944 3.666-10.278 2.5-16-1.294-1.354-1.46-2.688-.5-4-1.957-1.573-2.29-3.573-1-6-1.484-6.008-1.817-12.008-1-18z"/><path style="opacity:1" fill="#27370b" d="M55.5 72.5c.635-2.993.801-5.993.5-9a86.98 86.98 0 0 0-8.5 7v-1l3-4 3-2c1.208-.734 2.541-1.067 4-1 .341 3.66-.325 6.993-2 10z"/><path style="opacity:1" fill="#8e973d" d="M102.5 56.5c.667 0 1 .333 1 1 .321 5.195-.013 10.195-1 15l-1-2c.986-4.47 1.319-9.137 1-14z"/><path style="opacity:1" fill="#777823" d="M170.5 58.5v2c-.31 3.213.023 6.213 1 9-.342.838-1.008 1.172-2 1v-11c0-.667.333-1 1-1z"/><path style="opacity:1" fill="#e6e583" d="M47.5 55.5v10h3l-3 4c-.985-4.134-1.318-8.468-1-13 0-.667.333-1 1-1z"/><path style="opacity:1" fill="#40674d" d="M41.5 58.5h4v2a2316.292 2316.292 0 0 0-2 16c-.825-1.86-1.825-3.526-3-5a61.253 61.253 0 0 0 1-13z"/><path style="opacity:1" fill="#40704f" d="M55.5 72.5a976.333 976.333 0 0 0-8 7c-1.086-.12-1.753-.787-2-2 .673-2.351 1.34-4.684 2-7a86.98 86.98 0 0 1 8.5-7 29.134 29.134 0 0 1-.5 9z"/><path style="opacity:1" fill="#4d471c" d="M7.5 7.5h1a4624.6 4624.6 0 0 0 1 136c-.447 5.728.553 11.062 3 16v4c-1.608-2.71-2.775-5.71-3.5-9a461.54 461.54 0 0 1-2-15A7871.022 7871.022 0 0 0 5.5 19c.264-4.042.93-7.875 2-11.5z"/><path style="opacity:1" fill="#324616" d="M39.5 55.5c.901.79 1.568 1.79 2 3a61.253 61.253 0 0 1-1 13 63.67 63.67 0 0 1-7-6.5 8.434 8.434 0 0 0-4-.5c1.014 6.688 4.68 11.355 11 14v18h-1c.166-5.676 0-11.343-.5-17-.383-.556-.883-.89-1.5-1-4.65-2.292-7.65-5.958-9-11v-5a21.16 21.16 0 0 1 7 2c.645 1.312 1.645 2.312 3 3a36.874 36.874 0 0 0 1-12z"/><path style="opacity:1" fill="#3b4a13" d="m101.5 70.5 1 2c-2.725-1.213-5.059-3.046-7-5.5-1.377-1.241-2.71-1.408-4-.5 1.768 6.224 5.435 10.89 11 14v1c-3.868-1.53-7.201-3.863-10-7 .172-.992-.162-1.658-1-2a104.613 104.613 0 0 1-1-9c1.808-.009 3.475.491 5 1.5a46.142 46.142 0 0 0 6 5.5z"/><path style="opacity:1" fill="#f0eb73" d="M57.5 60.5c4.665 10.359 1.665 17.025-9 20a84.113 84.113 0 0 1-1 17c-.989-5.475-1.322-11.142-1-17 .667 0 1-.333 1-1 3.929-.93 6.595-3.264 8-7 1.675-3.007 2.341-6.34 2-10-1.459-.067-2.792.266-4 1v-3h4z"/><path style="opacity:1" fill="#1f3113" d="M177.5 63.5c1.599-.268 2.932.066 4 1 .623 5.921-1.377 10.754-6 14.5a38.715 38.715 0 0 0-5 2.5c-.99 5.81-1.323 11.81-1 18a518.205 518.205 0 0 1-2-20 88.226 88.226 0 0 1 2-9c.992.172 1.658-.162 2-1a25.634 25.634 0 0 1 6-6z"/><path style="opacity:1" fill="#3e6f4e" d="M178.5 65.5c1.086.12 1.753.787 2 2-1.41 6.209-5.077 10.209-11 12 .591-6.25 3.591-10.917 9-14z"/><path style="opacity:1" fill="#fcf53f" d="M152.5 63.5c-.07 5.117 1.263 9.784 4 14v4l6 1a49.87 49.87 0 0 1-1 14c-1.226-1.778-2.893-2.778-5-3a9.175 9.175 0 0 1-4.5-2c-1.641 6.093-.141 11.427 4.5 16a5.576 5.576 0 0 0 1 3c-.457.798-1.124 1.131-2 1h-2a199.695 199.695 0 0 0-20-2.5l1-1c-3.813-.148-6.979-1.648-9.5-4.5a356.915 356.915 0 0 0-2.5-32 529.806 529.806 0 0 1 2-14c3.937.294 7.77-.04 11.5-1 .311-1.242-.189-2.242-1.5-3 .475-3.222 1.475-6.222 3-9 .961 7.09 4.961 11.258 12 12.5.755 2.133 2.088 3.8 4 5-.556.383-.889.883-1 1.5z"/><path style="opacity:1" fill="#304012" d="m164.5 57.5 2 3a1041.756 1041.756 0 0 0-1 53c-1.599.268-2.932-.066-4-1a4.934 4.934 0 0 0 3-.5c-3.148-.738-5.815-2.238-8-4.5-4.641-4.573-6.141-9.907-4.5-16a9.175 9.175 0 0 0 4.5 2 25.494 25.494 0 0 1 5 7h1c-.039 1.256.461 2.256 1.5 3 .822-7.512.655-14.845-.5-22-2.803-.461-5.137-1.795-7-4-2.737-4.216-4.07-8.883-4-14h4c2.972 2.141 5.472 4.808 7.5 8 .499-4.655.666-9.322.5-14z"/><path style="opacity:1" fill="#43744e" d="M40.5 71.5c.917 2.505.917 4.838 0 7-6.32-2.645-9.986-7.312-11-14a8.434 8.434 0 0 1 4 .5 63.67 63.67 0 0 0 7 6.5z"/><path style="opacity:1" fill="#364814" d="M55.5 72.5c-1.405 3.736-4.071 6.07-8 7a976.333 976.333 0 0 1 8-7z"/><path style="opacity:1" fill="#faf250" d="M80.5 34.5c-1.908 6.618.092 11.618 6 15 .627.917.96 1.917 1 3 1.323 2.186 3.323 3.686 6 4.5 2.595.226 5.095.726 7.5 1.5.821 3.054.655 6.054-.5 9-2.035-1.097-3.368-2.763-4-5a43.35 43.35 0 0 1-5.5-3l-1.5 1c.028 3.497.194 7.164.5 11 .383.556.883.89 1.5 1 .838.342 1.172 1.008 1 2 1.93 3.766 4.764 6.766 8.5 9 .499 4.655.666 9.322.5 14h-3c-2.22-3.777-5.554-5.444-10-5 .542 4.623 1.876 8.957 4 13-5.171-4.849-6.171-10.516-3-17l-4-3a17.44 17.44 0 0 0 3-6.5c-3.682-2.346-3.849-4.846-.5-7.5.497-2.646.664-5.313.5-8h-5c.231-3.585-.769-6.752-3-9.5.88-1.356 1.213-2.856 1-4.5a73.246 73.246 0 0 1-12-1 52.417 52.417 0 0 0 1-13 244.665 244.665 0 0 1 4.5 8 8.434 8.434 0 0 1 .5 4h4a36.434 36.434 0 0 1-.5-12c.383-.556.883-.89 1.5-1z"/><path style="opacity:1" fill="#427250" d="M102.5 72.5a54.855 54.855 0 0 0 2 7c-.457.797-1.124 1.13-2 1-5.565-3.11-9.232-7.776-11-14 1.29-.908 2.623-.741 4 .5 1.941 2.454 4.275 4.287 7 5.5z"/><path style="opacity:1" fill="#437452" d="M154.5 65.5c6.237 2.437 9.571 7.104 10 14-4.805-.632-7.972-3.299-9.5-8a18.452 18.452 0 0 1-.5-6z"/><path style="opacity:1" fill="#18301a" d="M45.5 60.5a60.94 60.94 0 0 0 .5 11c.383-.556.883-.89 1.5-1-.66 2.316-1.327 4.649-2 7 .247 1.213.914 1.88 2 2 0 .667-.333 1-1 1-.987 4.805-1.32 9.805-1 15h-1c.166-5.344 0-10.677-.5-16-1.011.837-2.178 1.17-3.5 1v-2c.917-2.162.917-4.495 0-7 1.175 1.474 2.175 3.14 3 5 .667-5.485 1.334-10.819 2-16z"/><path style="opacity:1" fill="#fcf829" d="M15.5 59.5c1.194.47 1.86 1.47 2 3a50.787 50.787 0 0 0-1 7c4.137-.201 6.47 1.799 7 6a26.61 26.61 0 0 0 3.5 2l1 9a6.975 6.975 0 0 0 2.5 3.5c-.285 1.956-.285 4.123 0 6.5-3.99 1.57-7.823 1.236-11.5-1-1.261.26-2.261.926-3 2a722.368 722.368 0 0 1-.5-38z"/><path style="opacity:1" fill="#fcf53b" d="M69.5 48.5c3.966.662 7.966.995 12 1 .213 1.644-.12 3.144-1 4.5 2.231 2.748 3.231 5.915 3 9.5h5a32.437 32.437 0 0 1-.5 8c-3.349 2.654-3.182 5.154.5 7.5a17.44 17.44 0 0 1-3 6.5l4 3c-3.171 6.484-2.171 12.151 3 17 2.705 2.012 5.372 4.012 8 6v3c-11.7 2.207-23.368 4.54-35 7a10.307 10.307 0 0 1-3-1l-4 3c-1.402-.365-2.402-1.199-3-2.5 1.61-2.21 2.278-4.71 2-7.5 2.398.241 4.398-.426 6-2 1.791.134 3.458-.199 5-1 3.12-3.936 6.454-3.936 10 0 3.106-1.959 3.44-4.126 1-6.5-2.543-.14-4.877-.806-7-2 1.829-.273 3.329-1.107 4.5-2.5a16.25 16.25 0 0 0 0-8 93.535 93.535 0 0 0-13.5-3c.825-.886 1.825-1.219 3-1a4.932 4.932 0 0 1 .5-3c1.61-.647 3.11-1.48 4.5-2.5a34.208 34.208 0 0 1-8-1.5c1.371-2.12.705-3.12-2-3l2-8h-3a24.939 24.939 0 0 0-.5-7c-.417-1.256-1.25-1.923-2.5-2-.453-.958-1.12-1.792-2-2.5 1.62-.236 2.62-1.069 3-2.5 4.175-1.584 7.841-3.918 11-7z"/><path style="opacity:1" fill="#f9f155" d="M57.5 60.5c1.25.077 2.083.744 2.5 2 .497 2.31.663 4.643.5 7h3l-2 8c2.705-.12 3.371.88 2 3a34.208 34.208 0 0 0 8 1.5 20.492 20.492 0 0 1-4.5 2.5 4.932 4.932 0 0 0-.5 3c-1.175-.219-2.175.114-3 1 4.61.675 9.11 1.675 13.5 3a16.25 16.25 0 0 1 0 8c-1.171 1.393-2.671 2.227-4.5 2.5 2.123 1.194 4.457 1.86 7 2 2.44 2.374 2.106 4.541-1 6.5-3.546-3.936-6.88-3.936-10 0a89.289 89.289 0 0 0 3-9c1.414-1.554 3.08-2.888 5-4a51.256 51.256 0 0 0-2-6c-2.568-.472-5.235-.472-8 0a20.677 20.677 0 0 1-5 1h-3c-3.135.048-4.802 1.715-5 5-1.916.748-3.916.748-6 0a84.113 84.113 0 0 0 1-17c10.665-2.975 13.665-9.641 9-20z"/><path style="opacity:1" fill="#a9ab63" d="M46.5 80.5c-.322 5.858.011 11.525 1 17v1c-1.548-.321-2.215-1.321-2-3-.32-5.195.013-10.195 1-15z"/><path style="opacity:1" fill="#3c7152" d="M44.5 95.5c-1.068.934-2.401 1.268-4 1v-16c1.322.17 2.489-.163 3.5-1 .5 5.323.666 10.656.5 16z"/><path style="opacity:1" fill="#ebe57e" d="M92.5 74.5c2.799 3.137 6.132 5.47 10 7 .166 6.675 0 13.342-.5 20a19.553 19.553 0 0 1-3.5-4h3a98.433 98.433 0 0 0-.5-14c-3.736-2.234-6.57-5.234-8.5-9z"/><path style="opacity:1" fill="#c4c965" d="M37.5 78.5c.617.11 1.117.444 1.5 1 .5 5.657.666 11.324.5 17-.709.904-1.709 1.237-3 1 2.321-6.095 2.655-12.428 1-19z"/><path style="opacity:1" fill="#f8e640" d="M181.5 64.5c1.262 3.688 1.262 7.522 0 11.5l.5 1.5c.278-.916.778-1.582 1.5-2 .767.672 1.434 1.505 2 2.5-2.136 2.568-2.136 4.901 0 7-1.074.739-1.741 1.739-2 3 2.048 2.19 3.381 4.69 4 7.5h-3c.237 1.291-.096 2.291-1 3 .284-1.915-.049-3.581-1-5-2.281-.423-3.948.244-5 2-2.284.475-4.284 1.475-6 3-.989-5.475-1.322-11.142-1-17a38.715 38.715 0 0 1 5-2.5c4.623-3.746 6.623-8.579 6-14.5z"/><path style="opacity:1" fill="#e7d698" d="M66.5 91.5c-.792 1.757-2.125 3.09-4 4-.886-.825-1.219-1.825-1-3a20.677 20.677 0 0 0 5-1z"/><path style="opacity:1" fill="#ebe684" d="M112.5 78.5h2c-4.064 4.573-5.064 9.907-3 16 9.722-8.143 13.556-5.81 11.5 7-1.037 5.868-4.537 8.535-10.5 8a28.926 28.926 0 0 1 5-3.5c.752-.671 1.086-1.504 1-2.5 2.889-2.991 4.222-6.658 4-11-5.494.307-9.994 2.64-13.5 7-.5-6.325-.666-12.658-.5-19 1.88.27 3.213-.396 4-2z"/><path style="opacity:1" fill="#b3b149" d="M170.5 81.5c-.322 5.858.011 11.525 1 17-.333 1-1 1.667-2 2v-1c-.323-6.19.01-12.19 1-18z"/><path style="opacity:1" fill="#415118" d="m102.5 81.5 2 1c.321 8.06-.179 16.06-1.5 24-2.935-5.104-6.769-9.437-11.5-13-1.102 2.69-.936 5.357.5 8 2.91 4.09 6.743 6.756 11.5 8l-1 2h-2a1242.818 1242.818 0 0 0-8-6c-2.124-4.043-3.458-8.377-4-13 4.446-.444 7.78 1.223 10 5a19.553 19.553 0 0 0 3.5 4c.5-6.658.666-13.325.5-20z"/><path style="opacity:1" fill="#f1ef6c" d="M156.5 77.5c1.863 2.205 4.197 3.539 7 4 .323 6.522-.01 12.855-1 19h-1a25.494 25.494 0 0 0-5-7c2.107.222 3.774 1.222 5 3a49.87 49.87 0 0 0 1-14l-6-1v-4z"/><path style="opacity:1" fill="#b1bb6a" d="M163.5 81.5c1.155 7.155 1.322 14.488.5 22-1.039-.744-1.539-1.744-1.5-3 .99-6.145 1.323-12.478 1-19z"/><path style="opacity:1" fill="#e9dd72" d="M58.5 92.5c-1.64 3.652-3.974 6.652-7 9a22.843 22.843 0 0 0-4-3v-1c2.084.748 4.084.748 6 0 .198-3.285 1.865-4.952 5-5z"/><path style="opacity:1" fill="#447354" d="M161.5 100.5c1.434 3.198 1.934 6.532 1.5 10-6.572-3.39-10.072-8.724-10.5-16a4.932 4.932 0 0 1 3 .5 46.117 46.117 0 0 0 6 5.5z"/><path style="opacity:1" fill="#6c3b13" d="M71.5 101.5c-1.894.548-3.56 1.548-5 3 1.267 1.871 1.267 3.704 0 5.5a27.32 27.32 0 0 1-11-1.5l-2-2a26.329 26.329 0 0 1-2-5c3.026-2.348 5.36-5.348 7-9h3c-.219 1.175.114 2.175 1 3 1.875-.91 3.208-2.243 4-4 2.765-.472 5.432-.472 8 0a51.256 51.256 0 0 1 2 6c-1.92 1.112-3.586 2.446-5 4z"/><path style="opacity:1" fill="#df5646" d="M53.5 106.5c.606-4.791 2.773-8.791 6.5-12 .52 1.016 1.353 1.682 2.5 2 1.977-.96 3.977-1.96 6-3a9.106 9.106 0 0 0 5 1c.262 1.478-.071 2.811-1 4-3.516 1.256-6.516 3.256-9 6a9.433 9.433 0 0 0 3 3l-2.5 1a23.446 23.446 0 0 0-10.5-2z"/><path style="opacity:1" fill="#213517" d="M182.5 93.5c-.447 8.555-4.614 14.555-12.5 18-.64 2.043-.14 3.71 1.5 5-.617.111-1.117.444-1.5 1-.789 5.818-.289 11.484 1.5 17-1.961 6.587-2.628 13.587-2 21v25l1 2c-.283.789-.783 1.456-1.5 2-.194-25.683-.694-51.35-1.5-77 .224-2.58.891-4.914 2-7 1-.333 1.667-1 2-2 1.716-1.525 3.716-2.525 6-3 1.052-1.756 2.719-2.423 5-2z"/><path style="opacity:1" fill="#dcd358" d="M27.5 100.5c-3.637 2.806-6.804 6.139-9.5 10-.892 7.126-.392 14.126 1.5 21-1.567-1.181-2.4-2.847-2.5-5a72.496 72.496 0 0 1 0-17l4.5-7c1.673-1.586 3.673-2.253 6-2z"/><path style="opacity:1" fill="#3b6f4e" d="M103.5 109.5c-4.757-1.244-8.59-3.91-11.5-8-1.436-2.643-1.602-5.31-.5-8 4.731 3.563 8.565 7.896 11.5 13a117.384 117.384 0 0 0 1.5-24c.65-.304 1.317-.637 2-1l1 6c-.871 4.716-.871 9.383 0 14a123.004 123.004 0 0 1-2 8c-1.149-2.425-1.816-2.425-2 0z"/><path style="opacity:1" fill="#fdea24" d="M199.5 95.5c-.205 16.429-2.538 32.429-7 48-.928-3.516-2.594-6.516-5-9a75.642 75.642 0 0 0-3.5-21 148.472 148.472 0 0 1-4.5-5 4.457 4.457 0 0 1 1.5-2c.667 2.667 1.333 2.667 2 0 .667 1.333 1.333 1.333 2 0a23.445 23.445 0 0 0 3.5-7c1.634.468 2.8 1.468 3.5 3 1.748-4.799 1.915-9.632.5-14.5 5.096-.4 7.429 2.1 7 7.5z"/><path style="opacity:1" fill="#3c3519" d="M35.5 98.5c-.8 2.241-2.466 3.241-5 3v4c1.068.934 2.401 1.268 4 1v5c-2.63.466-4.798 1.133-6.5 2 .41 7.749-1.423 14.749-5.5 21 .011 2.354.844 4.354 2.5 6 .708-.881 1.542-1.547 2.5-2v3h6v-3h-4c2.222-2.771 4.055-2.438 5.5 1 1.281-1.147 1.614-.813 1 1a6.977 6.977 0 0 1-3.5 2.5 4.934 4.934 0 0 0 3 .5 12.935 12.935 0 0 1-.5 5c-1.028-1.861-2.528-3.195-4.5-4-1.247 1.506-1.247 3.006 0 4.5 2.28.233 4.28 1.066 6 2.5a168.724 168.724 0 0 1 2-6v9a88.033 88.033 0 0 1-11-6c-3.652-5.284-6.319-10.951-8-17-1.892-6.874-2.392-13.874-1.5-21 2.696-3.861 5.863-7.194 9.5-10a53.83 53.83 0 0 0 8-2z"/><path style="opacity:1" fill="#f7eb58" d="M122.5 71.5a356.915 356.915 0 0 1 2.5 32c2.521 2.852 5.687 4.352 9.5 4.5l-1 1c6.854.515 13.52 1.348 20 2.5-6.675-.166-13.342 0-20 .5-6.956.362-13.623 1.529-20 3.5h-5c-.531-3.388.803-5.388 4-6 5.963.535 9.463-2.132 10.5-8 2.056-12.81-1.778-15.143-11.5-7-2.064-6.093-1.064-11.427 3-16 0-.667.333-1 1-1 2.953-1.287 5.286-3.287 7-6z"/><path style="opacity:1" fill="#3a6f54" d="M177.5 95.5h3c-.457 7.119-4.124 11.452-11 13a12.93 12.93 0 0 1 .5-5 157.15 157.15 0 0 1 7.5-8z"/><path style="opacity:1" fill="#f2e564" d="M191.5 8.5c3.462-.982 7.129-1.315 11-1h1c.167 46.334 0 92.668-.5 139-.31 6.741-1.81 13.074-4.5 19a389.273 389.273 0 0 1 2.5-16c.5-17.997.667-35.997.5-54a672.636 672.636 0 0 0 1-48v-39h-11z"/><path style="opacity:1" fill="#bab0aa" d="M38.5 108.5c.172.992-.162 1.658-1 2-1.257-1.123-.924-1.789 1-2z"/><path style="opacity:1" fill="#273e1c" d="M103.5 57.5h5a36.877 36.877 0 0 0 1 12c.607-.124.94-.457 1-1 2.638-2.993 5.971-4.993 10-6 1.345 5.966-.322 10.966-5 15-.667 0-1 .333-1 1h-1c.873-2.386 2.373-4.386 4.5-6a22.392 22.392 0 0 0 2.5-8c-7.819 1.966-12.152 6.966-13 15a20.676 20.676 0 0 0 5-1c-.787 1.604-2.12 2.27-4 2-.166 6.342 0 12.675.5 19 3.506-4.36 8.006-6.693 13.5-7 .222 4.342-1.111 8.009-4 11 .086.996-.248 1.829-1 2.5a28.926 28.926 0 0 0-5 3.5c-3.197.612-4.531 2.612-4 6a31.147 31.147 0 0 0-2 2 6.846 6.846 0 0 0-4-1v-5l1-2c.184-2.425.851-2.425 2 0a123.004 123.004 0 0 0 2-8c-.871-4.617-.871-9.284 0-14l-1-6c-.683.363-1.35.696-2 1l-2-1v-1c.876.13 1.543-.203 2-1a54.855 54.855 0 0 1-2-7c.987-4.805 1.321-9.805 1-15z"/><path style="opacity:1" fill="#357151" d="M118.5 103.5c-3.099 2.577-6.599 4.577-10.5 6-.133-5.889 2.367-10.389 7.5-13.5a29.465 29.465 0 0 0 4.5-2.5c.691 3.521.191 6.855-1.5 10z"/><path style="opacity:1" fill="#416a55" d="M104.5 59.5h3c.466 6.165-.201 12.165-2 18a81.884 81.884 0 0 1-1-18z"/><path style="opacity:1" fill="#3c7251" d="M113.5 78.5h-1a20.676 20.676 0 0 1-5 1c.848-8.034 5.181-13.034 13-15a22.392 22.392 0 0 1-2.5 8c-2.127 1.614-3.627 3.614-4.5 6z"/><path style="opacity:1" fill="#c0c174" d="M156.5 107.5c2.185 2.262 4.852 3.762 8 4.5a4.934 4.934 0 0 1-3 .5h-6v-1c.876.131 1.543-.202 2-1a5.576 5.576 0 0 1-1-3z"/><path style="opacity:1" fill="#dfdc67" d="M182.5 93.5c.951 1.419 1.284 3.085 1 5a24.604 24.604 0 0 1-5.5 10c-2.715.717-4.882 2.217-6.5 4.5a11.803 11.803 0 0 0 2 3.5h-2c-1.64-1.29-2.14-2.957-1.5-5 7.886-3.445 12.053-9.445 12.5-18z"/><path style="opacity:1" fill="#8d882d" d="M147.5 113.5c1.385 1.447 1.052 2.447-1 3 .111-.617.444-1.117 1-1.5-2.212-.789-4.212-.622-6 .5-.543-.06-.876-.393-1-1a13.116 13.116 0 0 1 7-1z"/><path style="opacity:1" fill="#2a271f" d="M44.5 95.5h1c-.215 1.679.452 2.679 2 3a22.843 22.843 0 0 1 4 3 26.329 26.329 0 0 0 2 5l2 2c-2.671 4.4-6.004 8.067-10 11a9.107 9.107 0 0 0-5 1c-.667 11.493-1.333 22.826-2 34v-9c.531-8.221-.469-16.221-3-24 1.333-2.667 1.333-5.333 0-8 .442-1.239 1.11-2.239 2-3 .838-.342 1.172-1.008 1-2-1.414-1.638-1.08-2.972 1-4l-2.5-1a29.303 29.303 0 0 1-6.5 2v-4c2.534.241 4.2-.759 5-3 0-.667.333-1 1-1 1.291.237 2.291-.096 3-1h1c1.599.268 2.932-.066 4-1z"/><path style="opacity:1" fill="#f3ed68" d="M8.5 7.5h6c-1.068.934-2.401 1.268-4 1 .011 45.003-.322 90.003-1 135a4624.6 4624.6 0 0 1-1-136z"/><path style="opacity:1" fill="#dbdb65" d="M146.5 116.5c-1.915.284-3.581-.049-5-1 1.788-1.122 3.788-1.289 6-.5-.556.383-.889.883-1 1.5z"/><path style="opacity:1" fill="#383122" d="M38.5 108.5c-1.924.211-2.257.877-1 2-.89.761-1.558 1.761-2 3 1.333 2.667 1.333 5.333 0 8 2.531 7.779 3.531 15.779 3 24a168.724 168.724 0 0 0-2 6c-1.72-1.434-3.72-2.267-6-2.5-1.247-1.494-1.247-2.994 0-4.5 1.972.805 3.472 2.139 4.5 4 .493-1.634.66-3.301.5-5a4.934 4.934 0 0 1-3-.5 6.977 6.977 0 0 0 3.5-2.5c.614-1.813.281-2.147-1-1-1.445-3.438-3.278-3.771-5.5-1h-2c-.958.453-1.792 1.119-2.5 2-1.656-1.646-2.489-3.646-2.5-6 4.077-6.251 5.91-13.251 5.5-21 1.702-.867 3.87-1.534 6.5-2v-5c-1.599.268-2.932-.066-4-1a29.303 29.303 0 0 0 6.5-2l2.5 1c-2.08 1.028-2.414 2.362-1 4z"/><path style="opacity:1" fill="#f1e970" d="M71.5 101.5a89.289 89.289 0 0 1-3 9c-1.542.801-3.209 1.134-5 1-5.29-.857-8.957 1.143-11 6 .21.586.543 1.086 1 1.5-5.294-.208-7.627 2.292-7 7.5a500.31 500.31 0 0 1 31-6c-10.131 4.196-20.798 6.529-32 7v-8c3.996-2.933 7.329-6.6 10-11a27.32 27.32 0 0 0 11 1.5c1.267-1.796 1.267-3.629 0-5.5 1.44-1.452 3.106-2.452 5-3z"/><path style="opacity:1" fill="#faee56" d="M63.5 111.5c-1.602 1.574-3.602 2.241-6 2 .278 2.79-.39 5.29-2 7.5.598 1.301 1.598 2.135 3 2.5l4-3c.946.487 1.946.82 3 1 11.632-2.46 23.3-4.793 35-7v-3h2v5h-3a212.572 212.572 0 0 0-22 4 500.31 500.31 0 0 0-31 6c-.627-5.208 1.706-7.708 7-7.5a3.646 3.646 0 0 1-1-1.5c2.043-4.857 5.71-6.857 11-6z"/><path style="opacity:1" fill="#3d3517" d="M153.5 111.5h2v1c-2.885-.306-5.552.027-8 1a13.116 13.116 0 0 0-7 1c.124.607.457.94 1 1 1.419.951 3.085 1.284 5 1 .086.996-.248 1.829-1 2.5 1.611 2.682 3.944 4.515 7 5.5 1.211 1.22 1.211 2.387 0 3.5l10 1c.556.383.889.883 1 1.5h-2c-10.036-1.828-19.37.172-28 6 2.452 1.893 5.119 3.226 8 4v7c-1.379 2.886-3.379 5.386-6 7.5a26.708 26.708 0 0 0-9.5 2.5c-2.256-1.585-4.756-2.252-7.5-2v-2a12.64 12.64 0 0 0 4-2.5 24.362 24.362 0 0 0-10-1.5 60.983 60.983 0 0 0 11-3c.417.624 1.084.957 2 1 2.146-.134 3.146-.801 3-2a11.988 11.988 0 0 0-1-6l1.5-1a28.118 28.118 0 0 1 4.5 3.5 8.43 8.43 0 0 0 4 .5c-.42 2.174-.42 4.174 0 6 1.491-.848 2.158-2.181 2-4l-1-3c-3.817-1.44-7.15-3.44-10-6-2.509 1.343-5.176 1.843-8 1.5-1.098-.77-1.098-1.603 0-2.5 2.165.384 3.832-.283 5-2-2.793-1.472-4.793-.806-6 2-1.261-2.956-.095-4.623 3.5-5a28.17 28.17 0 0 1 6.5 4 130.406 130.406 0 0 1 7-1.5c-1.473-.71-2.14-1.876-2-3.5-1.87-2.062-4.203-3.395-7-4l3-2a61.568 61.568 0 0 0-10-2c-.14-1.624.527-2.79 2-3.5-3.685-.914-3.352-1.581 1-2a30.334 30.334 0 0 0-10 .5c6.377-1.971 13.044-3.138 20-3.5 6.658-.5 13.325-.666 20-.5z"/><path style="opacity:1" fill="#cece55" d="M125.5 116.5h5c.023 2.621-1.311 3.955-4 4-3.4-.77-3.733-2.103-1-4z"/><path style="opacity:1" fill="#4f4413" d="M99.5 116.5a9.82 9.82 0 0 1-4 3c-11.252.646-21.918 3.48-32 8.5-4.75.223-9.416.723-14 1.5l-4-1v-1c11.202-.471 21.869-2.804 32-7a212.572 212.572 0 0 1 22-4z"/><path style="opacity:1" fill="#342f1b" d="M147.5 113.5c2.448-.973 5.115-1.306 8-1h6c1.068.934 2.401 1.268 4 1a462.903 462.903 0 0 1-1 43c.326-8.849-.007-17.516-1-26-.111-.617-.444-1.117-1-1.5l-10-1c1.211-1.113 1.211-2.28 0-3.5-3.056-.985-5.389-2.818-7-5.5.752-.671 1.086-1.504 1-2.5 2.052-.553 2.385-1.553 1-3z"/><path style="opacity:1" fill="#dad669" d="M134.5 128.5c-.085-1.495.581-2.495 2-3 4.85.568 5.183 1.901 1 4a10.014 10.014 0 0 1-3-1z"/><path style="opacity:1" fill="#342e1c" d="M171.5 116.5h2l2 2c.764 3.287 2.597 5.954 5.5 8 3.098 5.653 4.098 11.653 3 18l-1-1c-2.06 3.113-1.56 5.779 1.5 8l-2 5a34.748 34.748 0 0 1-13 6v-7c.992.172 1.658-.162 2-1 5.102-3.569 6.268-8.236 3.5-14-.697-2.084-1.864-3.751-3.5-5v-1c-1.789-5.516-2.289-11.182-1.5-17 .383-.556.883-.889 1.5-1z"/><path style="opacity:1" fill="#e8e13b" d="M161.5 130.5a162.067 162.067 0 0 1-17 3c-1.559 1.631-3.559 2.464-6 2.5 1.079 2.043 2.746 3.376 5 4a144.255 144.255 0 0 1-2 7.5v-7c-2.881-.774-5.548-2.107-8-4 8.63-5.828 17.964-7.828 28-6z"/><path style="opacity:1" fill="#cdcb69" d="M120.5 134.5h-1c1.207-2.806 3.207-3.472 6-2-1.168 1.717-2.835 2.384-5 2z"/><path style="opacity:1" fill="#346e51" d="M43.5 151.5a12.935 12.935 0 0 1-.5 5c-.67.752-1.504 1.086-2.5 1v-36h3v30z"/><path style="opacity:1" fill="#3c331b" d="M95.5 119.5c-1.714 1.238-3.714 1.905-6 2 .25 3.244 1.916 5.244 5 6 1.098 1.101 1.265 2.434.5 4-4.815 3.194-4.148 4.86 2 5a37.151 37.151 0 0 1 4.5-2c1 .333 1.667 1 2 2-1.141.925-1.141 1.759 0 2.5 1.973.495 3.973.662 6 .5.268 1.599-.066 2.932-1 4-1.199 2.532-3.199 3.865-6 4-4.933-1.573-9.933-2.406-15-2.5 1.123 1.044 2.456 1.71 4 2l-1 1c.916.278 1.582.778 2 1.5 2.483 1.811 2.483 3.645 0 5.5l6 1.5v1a112.852 112.852 0 0 1-24 4c-4.579.041-8.912-.626-13-2a201.33 201.33 0 0 0 29-1.5c1.333-1 1.333-2 0-3a38.855 38.855 0 0 1-7-1.5l-2-6c-1.465 1.109-2.465.609-3-1.5-3.62-.284-6.12-2.117-7.5-5.5-1.011.837-2.178 1.17-3.5 1-1.699-1.011-3.199-2.345-4.5-4-2.566 3.712-6.066 4.878-10.5 3.5-1.15-1.604-1.15-3.27 0-5-.53-2.443-1.53-4.61-3-6.5 4.584-.777 9.25-1.277 14-1.5 10.082-5.02 20.748-7.854 32-8.5z"/><path style="opacity:1" fill="#dfdd64" d="M72.5 133.5c1.788-.285 3.455.048 5 1-2.45 2.459-5.117 2.625-8 .5 1.237-.232 2.237-.732 3-1.5z"/><path style="opacity:1" fill="#cecb5b" d="M94.5 127.5c.17 1.322-.163 2.489-1 3.5a18.452 18.452 0 0 1-6 .5c-.219-1.175.114-2.175 1-3 2.05-.244 4.05-.577 6-1z"/><path style="opacity:1" fill="#2a2820" d="m45.5 128.5 4 1c1.47 1.89 2.47 4.057 3 6.5-1.15 1.73-1.15 3.396 0 5 4.434 1.378 7.934.212 10.5-3.5 1.301 1.655 2.801 2.989 4.5 4v4h-4c.262-1.478-.071-2.811-1-4-5.061 2.81-9.894 2.477-14.5-1-1.202 4.38-.036 7.88 3.5 10.5a3.942 3.942 0 0 0-1 2l2 4c-1.236 1.856-1.236 3.689 0 5.5-2.086.989-3.753 2.322-5 4l-2 2h-2c-2.803 1.428-5.803 2.095-9 2v-3a55.403 55.403 0 0 1-4-5.5 14.72 14.72 0 0 0 5-1.5c-1.592-1.725-1.258-2.725 1-3h4c.996.086 1.83-.248 2.5-1 .493-1.634.66-3.301.5-5l2-23z"/><path style="opacity:1" fill="#c1be52" d="M27.5 138.5h6v3h-6v-3z"/><path style="opacity:1" fill="#e7df79" d="M53.5 137.5c1.788-.285 3.455.048 5 1l-2.5 1c-1.376-.184-2.209-.851-2.5-2z"/><path style="opacity:1" fill="#302b1e" d="M134.5 128.5c-.14 1.624.527 2.79 2 3.5-2.347.436-4.681.936-7 1.5a28.17 28.17 0 0 0-6.5-4c-3.595.377-4.761 2.044-3.5 5h1c-1.098.897-1.098 1.73 0 2.5 2.824.343 5.491-.157 8-1.5 2.85 2.56 6.183 4.56 10 6l1 3c.158 1.819-.509 3.152-2 4-.42-1.826-.42-3.826 0-6a8.43 8.43 0 0 1-4-.5 28.118 28.118 0 0 0-4.5-3.5l-1.5 1a11.988 11.988 0 0 1 1 6c-1.792-.134-3.458.199-5 1a60.983 60.983 0 0 1-11 3 308.607 308.607 0 0 0-4 3c-.667 0-1 .333-1 1-1.653.16-2.986.826-4 2h-1c-1.459-.067-2.792.266-4 1l-6-1.5c2.483-1.855 2.483-3.689 0-5.5-.418-.722-1.084-1.222-2-1.5l1-1c-1.544-.29-2.877-.956-4-2 5.067.094 10.067.927 15 2.5 2.801-.135 4.801-1.468 6-4 .934-1.068 1.268-2.401 1-4a18.453 18.453 0 0 1-6-.5c-1.141-.741-1.141-1.575 0-2.5-.333-1-1-1.667-2-2a37.151 37.151 0 0 0-4.5 2c-6.148-.14-6.815-1.806-2-5 .765-1.566.598-2.899-.5-4-3.084-.756-4.75-2.756-5-6 2.286-.095 4.286-.762 6-2a9.82 9.82 0 0 0 4-3h3a6.846 6.846 0 0 1 4 1 31.147 31.147 0 0 1 2-2h5a30.334 30.334 0 0 1 10-.5c-4.352.419-4.685 1.086-1 2-1.473.71-2.14 1.876-2 3.5a61.568 61.568 0 0 1 10 2l-3 2c2.797.605 5.13 1.938 7 4z"/><path style="opacity:1" fill="#d2d16a" d="M111.5 120.5c1.965.448 2.298 1.448 1 3-2.016 1.206-4.016 1.206-6 0 1.205-1.638 2.538-1.971 4-1 .798-.457 1.131-1.124 1-2z"/><path style="opacity:1" fill="#d8d15c" d="M108.5 143.5a53.508 53.508 0 0 1-4.5 1c-4.755-1.538-4.589-2.538.5-3 1.833.085 3.166.752 4 2z"/><path style="opacity:1" fill="#f3e779" d="M171.5 135.5c1.636 1.249 2.803 2.916 3.5 5 2.768 5.764 1.602 10.431-3.5 14a45.636 45.636 0 0 1 0-19z"/><path style="opacity:1" fill="#263e25" d="M45.5 119.5v9l-2 23v-30h-3v36h-2v-3c.667-11.174 1.333-22.507 2-34a9.107 9.107 0 0 1 5-1z"/><path style="opacity:1" fill="#372e1d" d="M67.5 141.5c1.322.17 2.489-.163 3.5-1 1.38 3.383 3.88 5.216 7.5 5.5.535 2.109 1.535 2.609 3 1.5l2 6a38.855 38.855 0 0 0 7 1.5c1.333 1 1.333 2 0 3a201.33 201.33 0 0 1-29 1.5c-2.352.84-4.352 2.174-6 4l-8 3c1.247-1.678 2.914-3.011 5-4-1.236-1.811-1.236-3.644 0-5.5l-2-4a3.942 3.942 0 0 1 1-2c-3.536-2.62-4.702-6.12-3.5-10.5 4.606 3.477 9.439 3.81 14.5 1 .929 1.189 1.262 2.522 1 4h4v-4z"/><path style="opacity:1" fill="#3c3310" d="M175.5 118.5a80.623 80.623 0 0 1 8 9c3.415 8.007 3.749 16.007 1 24-3.06-2.221-3.56-4.887-1.5-8l1 1c1.098-6.347.098-12.347-3-18-2.903-2.046-4.736-4.713-5.5-8z"/><path style="opacity:1" fill="#b7b371" d="M128.5 145.5c.146 1.199-.854 1.866-3 2-.916-.043-1.583-.376-2-1 1.542-.801 3.208-1.134 5-1z"/><path style="opacity:1" fill="#8d9241" d="M171.5 134.5v1a45.636 45.636 0 0 0 0 19c-.342.838-1.008 1.172-2 1-.628-7.413.039-14.413 2-21z"/><path style="opacity:1" fill="#fcf423" d="M27.5 150.5c3.47.7 5.47 2.7 6 6a201.794 201.794 0 0 1-8.5 4c.259 3.251 1.092 6.417 2.5 9.5-2.718 1.033-4.55.2-5.5-2.5l-1 3c-.741-1.141-1.575-1.141-2.5 0a687.509 687.509 0 0 0-6-8v-3a354.256 354.256 0 0 1-2-48h4a64.873 64.873 0 0 0 1 16c2.918 4.179 3.585 8.679 2 13.5 1.634.494 3.3.66 5 .5.268 2.619-.065 5.119-1 7.5a10.756 10.756 0 0 0 3 2.5c.713-1.935 1.713-2.268 3-1z"/><path style="opacity:1" fill="#f0e26d" d="M27.5 148.5a88.033 88.033 0 0 0 11 6v3h-2c-.709-.904-1.709-1.237-3-1-.53-3.3-2.53-5.3-6-6v-2z"/><path style="opacity:1" fill="#605512" d="M87.5 149.5c-.763.768-1.763 1.268-3 1.5 2.62 1.696 5.286 1.863 8 .5-.652 1.225-1.819 1.892-3.5 2-3.293.454-5.126-.88-5.5-4h4z"/><path style="opacity:1" fill="#dfd969" d="M87.5 149.5h5v2c-2.714 1.363-5.38 1.196-8-.5 1.237-.232 2.237-.732 3-1.5z"/><path style="opacity:1" fill="#bdb957" d="M66.5 149.5c6.392.611 6.392 1.945 0 4-4-1.332-4-2.665 0-4z"/><path style="opacity:1" fill="#ede453" d="M141.5 147.5c.247 3.005-.753 5.505-3 7.5-2.85 1.791-5.85 2.958-9 3.5-1.955.823-3.955.99-6 .5-1.387-1.683-3.053-2.85-5-3.5 2.744-.252 5.244.415 7.5 2a26.708 26.708 0 0 1 9.5-2.5c2.621-2.114 4.621-4.614 6-7.5z"/><path style="opacity:1" fill="#665a27" d="M203.5 7.5h1c.489 50.864.489 101.53 0 152l-5 16h-1c.131-.876-.202-1.543-1-2a298.252 298.252 0 0 0-6.5 13c-1.75 1.924-3.583 3.591-5.5 5a49.328 49.328 0 0 0 8-15c2.434-3.209 4.101-6.876 5-11 2.69-5.926 4.19-12.259 4.5-19 .5-46.332.667-92.666.5-139z"/><path style="opacity:1" fill="#f6eb3e" d="M162.5 130.5h1c.993 8.484 1.326 17.151 1 26-.667 0-1 .333-1 1-4.683-.007-8.683-1.674-12-5-1.131 1.574-1.298 3.241-.5 5 1.481.971 2.315 2.304 2.5 4 .437 1.574 1.437 2.741 3 3.5a14.444 14.444 0 0 1 5.5 2.5c.815 4.852.648 9.519-.5 14-1.692-1.705-3.025-3.705-4-6a5.576 5.576 0 0 0-1-3 69.17 69.17 0 0 0-11-3c-.165 3.35.002 6.683.5 10 .416 2.05 1.583 3.384 3.5 4v4h-6v3h-3l-1 6v1c-.934-1.068-1.268-2.401-1-4h-3c-.408-3.099.759-5.433 3.5-7a4.934 4.934 0 0 0 .5-3c.041-7.243 1.708-14.076 5-20.5-1.973-3.758-.973-5.925 3-6.5-.627-3.364.706-5.364 4-6a99.833 99.833 0 0 0 8.5 4c1.784-.833 1.784-1.833 0-3a3.647 3.647 0 0 1-1.5 1c-.952-1.545-1.285-3.212-1-5a6.846 6.846 0 0 1 4 1 81.883 81.883 0 0 0 1-18z"/><path style="opacity:1" fill="#40390c" d="M163.5 157.5a467.073 467.073 0 0 1-9 2c1.501 2.457 3.168 2.457 5 0 1.006.438 1.006 1.104 0 2a19.221 19.221 0 0 0 5 3v19h-1v-18c-3.759-.362-7.093-1.695-10-4-.185-1.696-1.019-3.029-2.5-4-.798-1.759-.631-3.426.5-5 3.317 3.326 7.317 4.993 12 5z"/><path style="opacity:1" fill="#fdea30" d="M118.5 153.5v2c1.947.65 3.613 1.817 5 3.5 2.045.49 4.045.323 6-.5-.834 1.248-2.167 1.915-4 2-2.724.454-4.557-.546-5.5-3-.121 2.227-.954 4.06-2.5 5.5a59.072 59.072 0 0 0 10 11c-2.833 1.833-2.667 3.333.5 4.5 1.613-1.122 2.78-.622 3.5 1.5-3.545 5.414-2.212 8.08 4 8 1.079-1.859 2.412-3.359 4-4.5a4.934 4.934 0 0 1-.5 3c-2.741 1.567-3.908 3.901-3.5 7h3c-.268 1.599.066 2.932 1 4-.684 4.21-2.851 6.21-6.5 6a191.614 191.614 0 0 1-6.5-21c-1.194-1.277-2.86-1.944-5-2-3.686.064-7.02 1.064-10 3a202.592 202.592 0 0 1-2-21.5c-1.846-8.046 1.154-11.88 9-11.5v3z"/><path style="opacity:1" fill="#fdef24" d="M161.5 130.5h1a81.883 81.883 0 0 1-1 18 6.846 6.846 0 0 0-4-1c-.285 1.788.048 3.455 1 5a3.647 3.647 0 0 0 1.5-1c1.784 1.167 1.784 2.167 0 3a99.833 99.833 0 0 1-8.5-4c-3.294.636-4.627 2.636-4 6-3.973.575-4.973 2.742-3 6.5-3.292 6.424-4.959 13.257-5 20.5-1.588 1.141-2.921 2.641-4 4.5-6.212.08-7.545-2.586-4-8-.72-2.122-1.887-2.622-3.5-1.5-3.167-1.167-3.333-2.667-.5-4.5a59.072 59.072 0 0 1-10-11c1.546-1.44 2.379-3.273 2.5-5.5.943 2.454 2.776 3.454 5.5 3 1.833-.085 3.166-.752 4-2 3.15-.542 6.15-1.709 9-3.5 2.247-1.995 3.247-4.495 3-7.5.71-2.393 1.377-4.893 2-7.5-2.254-.624-3.921-1.957-5-4 2.441-.036 4.441-.869 6-2.5a162.067 162.067 0 0 0 17-3z"/><path style="opacity:1" fill="#342c1e" d="M163.5 157.5c.968 2.107 1.302 4.441 1 7a19.221 19.221 0 0 1-5-3c1.006-.896 1.006-1.562 0-2-1.832 2.457-3.499 2.457-5 0a467.073 467.073 0 0 0 9-2z"/><path style="opacity:1" fill="#e4db6a" d="M182.5 156.5c-1.399 3.057-3.399 5.723-6 8-1.667-1.333-3.333-1.333-5 0a36.875 36.875 0 0 0-1 12h3c-.902 1.841-2.236 3.174-4 4v-18a34.748 34.748 0 0 0 13-6z"/><path style="opacity:1" fill="#413411" d="M33.5 156.5c1.291-.237 2.291.096 3 1-2.258.275-2.592 1.275-1 3a14.72 14.72 0 0 1-5 1.5 55.403 55.403 0 0 0 4 5.5c-1.797 1.23-3.797 1.896-6 2-.363-2.411.637-3.911 3-4.5-6.745-3.497-6.078-5.331 2-5.5v-3z"/><path style="opacity:1" fill="#ddda6a" d="M153.5 161.5c2.907 2.305 6.241 3.638 10 4v18c-.438 1.006-1.104 1.006-2 0v-2c1.148-4.481 1.315-9.148.5-14a14.444 14.444 0 0 0-5.5-2.5c-1.563-.759-2.563-1.926-3-3.5z"/><path style="opacity:1" fill="#bdba6a" d="M102.5 155.5c.327 9.515-.006 18.848-1 28v-26h-3v-1c1.208-.734 2.541-1.067 4-1z"/><path style="opacity:1" fill="#fbec3e" d="M199.5 95.5h2c.167 18.003 0 36.003-.5 54a389.273 389.273 0 0 0-2.5 16c-.899 4.124-2.566 7.791-5 11a208.311 208.311 0 0 0-4.5 5l-1-10c-.976-2.387-2.809-3.554-5.5-3.5 1.727-1.389 3.061-3.056 4-5-1.575-1.12-2.575-2.62-3-4.5 2.513-2.386 4.013-5.386 4.5-9a327.335 327.335 0 0 0-.5-15c2.406 2.484 4.072 5.484 5 9 4.462-15.571 6.795-31.571 7-48z"/><path style="opacity:1" fill="#e8e59e" d="M206.5 153.5c1.138 2.804 1.305 5.804.5 9a139.873 139.873 0 0 0-3.5 13h-4l5-16c.958-1.802 1.625-3.802 2-6z"/><path style="opacity:1" fill="#eee44b" d="M33.5 156.5v3c-8.078.169-8.745 2.003-2 5.5-2.363.589-3.363 2.089-3 4.5 2.203-.104 4.203-.77 6-2v3a19.588 19.588 0 0 0 3.5 2c.8 2.867.634 5.534-.5 8-1.648-1.826-3.648-3.16-6-4-3.255-2.729-6.922-3.729-11-3 1.378 8.695 6.045 14.695 14 18 1.599-.268 2.932.066 4 1a31.12 31.12 0 0 1-1 11 25.65 25.65 0 0 0-6-6 16.08 16.08 0 0 1 5 2c1.247-1.506 1.247-3.006 0-4.5-1.712-1.751-3.712-2.418-6-2 .837 1.011 1.17 2.178 1 3.5a148.575 148.575 0 0 1-10-13 367.03 367.03 0 0 1-9-19v-2c1.98 2.599 3.98 5.265 6 8 .925-1.141 1.759-1.141 2.5 0l1-3c.95 2.7 2.782 3.533 5.5 2.5-1.408-3.083-2.241-6.249-2.5-9.5a201.794 201.794 0 0 0 8.5-4z"/><path style="opacity:1" fill="#41572e" d="M43.5 168.5v6a70.915 70.915 0 0 1-2-4c-1.594 3.485-2.26 7.152-2 11-.992.172-1.658-.162-2-1 1.134-2.466 1.3-5.133.5-8a19.588 19.588 0 0 1-3.5-2c3.197.095 6.197-.572 9-2z"/><path style="opacity:1" fill="#faec56" d="M91.5 160.5c-1.526 1.63-3.526 2.463-6 2.5-7.326.5-14.66.666-22 .5.262 1.478-.071 2.811-1 4l-9 4.5a100.472 100.472 0 0 1 19 2.5c2.964 2.739 2.63 4.739-1 6-2.185-.352-4.019-1.352-5.5-3l-1.5 1c-.844 3.178-2.51 5.845-5 8 1.92.824 3.254 2.157 4 4a20.691 20.691 0 0 0-5-1 31.12 31.12 0 0 0-2-2 494.818 494.818 0 0 0 3-4c1.793-1.926 2.793-4.259 3-7 .904-.709 1.237-1.709 1-3h-17a8.435 8.435 0 0 1 .5-4 80.406 80.406 0 0 1 7.5-4c.797-.457 1.13-1.124 1-2a390.157 390.157 0 0 0 36-3z"/><path style="opacity:1" fill="#9c9443" d="M57.5 174.5v-1h6c.237 1.291-.096 2.291-1 3-1.052-1.756-2.719-2.423-5-2z"/><path style="opacity:1" fill="#3a4914" d="M157.5 175.5c.975 2.295 2.308 4.295 4 6v2c-3.099-4.592-7.266-7.925-12.5-10l-1.5 1c1.411 5.166 4.078 9.499 8 13-.838.342-1.172 1.008-1 2-4.097.211-7.431 1.878-10 5 2.147 2.163 4.814 3.163 8 3 1.109.79 2.442 1.29 4 1.5-1.238.69-1.238 1.19 0 1.5-2.35 1.859-4.184 4.192-5.5 7-.667 1.667-.667 3.333 0 5a99.85 99.85 0 0 0 8.5-4l-2 3c-2.808 1.429-5.808 2.095-9 2-.172-5.497 1.828-9.997 6-13.5-16.968-2.746-17.301-6.746-1-12a32.6 32.6 0 0 0-4-4.5c-2.468-3.564-3.468-7.564-3-12a75.813 75.813 0 0 1 11 4z"/><path style="opacity:1" fill="#efe263" d="M55.5 163.5c.13.876-.203 1.543-1 2a80.406 80.406 0 0 0-7.5 4 8.435 8.435 0 0 0-.5 4h11v1c-3.373.566-6.373 1.899-9 4h-3v-10l2-2 8-3z"/><path style="opacity:1" fill="#3d4813" d="M183.5 184.5a49.369 49.369 0 0 0 1-11c-6.028 1.006-10.694 4.006-14 9l-1-2c1.764-.826 3.098-2.159 4-4 3.789-3.06 8.122-4.727 13-5a40.914 40.914 0 0 1-.5 9c-.2 1.82-1.034 3.153-2.5 4z"/><path style="opacity:1" fill="#cdce86" d="M44.5 168.5h1v10h3l-2 3c-.617.111-1.117.444-1.5 1a98.432 98.432 0 0 1-.5-14z"/><path style="opacity:1" fill="#29390c" d="M57.5 174.5c2.281-.423 3.948.244 5 2-.207 2.741-1.207 5.074-3 7 .194-2.83.86-5.496 2-8-5.403.37-10.07 2.37-14 6h-1l2-3c2.627-2.101 5.627-3.434 9-4z"/><path style="opacity:1" fill="#bdc264" d="M108.5 152.5v35h3l-2 3c-.617.111-1.117.444-1.5 1a647.854 647.854 0 0 1-.5-36v-2c0-.667.333-1 1-1z"/><path style="opacity:1" fill="#2d6a49" d="M43.5 174.5a40.282 40.282 0 0 1-1 12c-.667 1.333-1.333 1.333-2 0a9.107 9.107 0 0 1-1-5c-.26-3.848.406-7.515 2-11a70.915 70.915 0 0 0 2 4z"/><path style="opacity:1" fill="#dbd863" d="M157.5 175.5a75.813 75.813 0 0 0-11-4c-.468 4.436.532 8.436 3 12-1.917-.616-3.084-1.95-3.5-4a50.464 50.464 0 0 1-.5-10 69.17 69.17 0 0 1 11 3 5.576 5.576 0 0 1 1 3z"/><path style="opacity:1" fill="#f2e96f" d="M98.5 157.5h3v26a18.453 18.453 0 0 1-.5 6c-4.88-5.575-11.047-8.575-18.5-9 .462-1.38 1.462-2.047 3-2a39.27 39.27 0 0 1 11 3l3-4a91.123 91.123 0 0 0 1-19c-2.761 1.42-5.761 2.087-9 2a390.157 390.157 0 0 1-36 3c1.648-1.826 3.648-3.16 6-4 4.088 1.374 8.421 2.041 13 2a112.852 112.852 0 0 0 24-4z"/><path style="opacity:1" fill="#f1e35d" d="M112.5 149.5a24.362 24.362 0 0 1 10 1.5 12.64 12.64 0 0 1-4 2.5v-3c-7.846-.38-10.846 3.454-9 11.5.285 7.21.952 14.376 2 21.5 2.98-1.936 6.314-2.936 10-3 2.14.056 3.806.723 5 2-6.032-1.125-11.032.541-15 5h-3v-35a308.607 308.607 0 0 1 4-3z"/><path style="opacity:1" fill="#33430e" d="M31.5 176.5a28.737 28.737 0 0 1-7-2l-2 1c1.59 2.921 3.09 5.921 4.5 9a126.02 126.02 0 0 0 7.5 6v1c-7.955-3.305-12.622-9.305-14-18 4.078-.729 7.745.271 11 3z"/><path style="opacity:1" fill="#34724e" d="M31.5 176.5c1.911 2.417 4.078 4.75 6.5 7a52.56 52.56 0 0 1 1.5 7h-5a126.02 126.02 0 0 1-7.5-6 146.408 146.408 0 0 0-4.5-9l2-1a28.737 28.737 0 0 0 7 2z"/><path style="opacity:1" fill="#40734c" d="M161.5 183.5c1.944 7.394-.056 8.727-6 4-3.922-3.501-6.589-7.834-8-13l1.5-1c5.234 2.075 9.401 5.408 12.5 10z"/><path style="opacity:1" fill="#564e24" d="M12.5 164.5a367.03 367.03 0 0 0 9 19h-3c.032-2.119-.968-3.452-3-4-.68-5.09-1.68-10.09-3-15z"/><path style="opacity:1" fill="#344314" d="M102.5 155.5h1v35c-1.333 0-2 .667-2 2-3.919-6.293-9.585-9.459-17-9.5 2.984 6.444 7.317 11.611 13 15.5a44.87 44.87 0 0 0-10-1c1.109-.79 2.442-1.29 4-1.5-4.678-4.189-7.678-9.356-9-15.5 7.453.425 13.62 3.425 18.5 9 .495-1.973.662-3.973.5-6 .994-9.152 1.327-18.485 1-28z"/><path style="opacity:1" fill="#39714d" d="M107.5 153.5v2a752.533 752.533 0 0 0-1.5 39c-.317 1.801-.984 2.134-2 1a12.93 12.93 0 0 1-.5-5v-35c1.014-1.174 2.347-1.84 4-2z"/><path style="opacity:1" fill="#f5e65a" d="M183.5 127.5c2.062 1.861 3.395 4.195 4 7 .282 5.022.449 10.022.5 15-.487 3.614-1.987 6.614-4.5 9 .425 1.88 1.425 3.38 3 4.5-.939 1.944-2.273 3.611-4 5 2.691-.054 4.524 1.113 5.5 3.5l1 10a208.311 208.311 0 0 1 4.5-5 49.328 49.328 0 0 1-8 15c-3.933 5.602-8.599 10.602-14 15-1.942-4.556-2.608-9.556-2-15 .342-.838 1.008-1.172 2-1a23.91 23.91 0 0 0 9-2.5c1.926-.422 2.926-1.589 3-3.5 1.466-.847 2.3-2.18 2.5-4 .498-2.982.665-5.982.5-9-4.878.273-9.211 1.94-13 5h-3a36.875 36.875 0 0 1 1-12c1.667-1.333 3.333-1.333 5 0 2.601-2.277 4.601-4.943 6-8l2-5c2.749-7.993 2.415-15.993-1-24z"/><path style="opacity:1" fill="#356c4b" d="M59.5 183.5a494.818 494.818 0 0 1-3 4 31.12 31.12 0 0 1 2 2 8.43 8.43 0 0 0-4 .5c16.223 4.314 15.89 7.481-1 9.5.355 1.022 1.022 1.689 2 2a55.202 55.202 0 0 1 4 9l-1 1c-4.206-1.596-7.873-3.93-11-7a27.713 27.713 0 0 1-3-9c3.499.241 3.832-.592 1-2.5 2.378-.974 2.044-1.641-1-2a4.94 4.94 0 0 1-1-2.5 36.342 36.342 0 0 1 4-7c3.93-3.63 8.597-5.63 14-6-1.14 2.504-1.806 5.17-2 8z"/><path style="opacity:1" fill="#16351c" d="M107.5 155.5c-.167 12.005 0 24.005.5 36 .383-.556.883-.889 1.5-1h1c-1.933 1.773-3.266 3.939-4 6.5 4.45 1.114 8.45.28 12-2.5.607.124.94.457 1 1-4.275 3.657-9.275 4.824-15 3.5-2.419-1.509-3.419-3.675-3-6.5 0-1.333.667-2 2-2a12.93 12.93 0 0 0 .5 5c1.016 1.134 1.683.801 2-1a752.533 752.533 0 0 1 1.5-39z"/><path style="opacity:1" fill="#3a6b4d" d="M169.5 59.5v11a88.226 88.226 0 0 0-2 9 518.205 518.205 0 0 0 2 20v1c-1.109 2.086-1.776 4.42-2 7 .806 25.65 1.306 51.317 1.5 77 .717-.544 1.217-1.211 1.5-2 3.306-4.994 7.972-7.994 14-9a49.369 49.369 0 0 1-1 11c-.074 1.911-1.074 3.078-3 3.5a23.91 23.91 0 0 1-9 2.5 71.254 71.254 0 0 0-4-2c.826-.951.992-1.951.5-3a16.086 16.086 0 0 0-2.5 5c2.195 4.465 2.528 9.132 1 14a3.647 3.647 0 0 1-1.5-1l-2.5-9c-2.861 2.48-6.194 3.48-10 3-3.186.163-5.853-.837-8-3 2.569-3.122 5.903-4.789 10-5 3.135 1.523 6.468 2.19 10 2v-27c.302-2.559-.032-4.893-1-7 0-.667.333-1 1-1a462.903 462.903 0 0 0 1-43c-.116-17.678.217-35.345 1-53a5.728 5.728 0 0 0 3-1z"/><path style="opacity:1" fill="#1f3420" d="M43.5 168.5h1c-.166 4.679 0 9.345.5 14 .383-.556.883-.889 1.5-1h1a36.342 36.342 0 0 0-4 7 4.94 4.94 0 0 0 1 2.5c3.044.359 3.378 1.026 1 2 2.832 1.908 2.499 2.741-1 2.5a27.713 27.713 0 0 0 3 9c-.958-.453-1.792-1.119-2.5-2-.236 2.345-1.07 4.345-2.5 6a5.728 5.728 0 0 0 1 3c-2.122-1.55-3.789-3.55-5-6l2-3c-.219 1.175.114 2.175 1 3 2.165-3.658 2.498-7.491 1-11.5-.336-1.03-1.003-1.53-2-1.5h-2c-1.068-.934-2.401-1.268-4-1v-1h5a52.56 52.56 0 0 0-1.5-7c-2.422-2.25-4.589-4.583-6.5-7 2.352.84 4.352 2.174 6 4 .342.838 1.008 1.172 2 1a9.107 9.107 0 0 0 1 5c.667 1.333 1.333 1.333 2 0a40.282 40.282 0 0 0 1-12v-6z"/><path style="opacity:1" fill="#faeb3b" d="M82.5 180.5c1.322 6.144 4.322 11.311 9 15.5-1.558.21-2.891.71-4 1.5-4.567-.444-7.567 1.556-9 6 2.875 3.247 6.541 5.08 11 5.5-2.92 3.671-4.254 7.837-4 12.5 2.95.213 5.618-.454 8-2 2.775-.812 4.942-2.479 6.5-5a86.578 86.578 0 0 0 1.5 13 28.043 28.043 0 0 0 5 1.5c-.556.383-.889.883-1 1.5h-8c-15.375-.903-29.375-5.569-42-14-1.35-1.324-1.183-2.324.5-3 1.998 1.16 3.83 1.16 5.5 0 1.407-3.884.74-7.55-2-11a54.11 54.11 0 0 0 9-4c1.276-1.114 1.276-2.114 0-3a28.061 28.061 0 0 0-5-5c-.746-1.843-2.08-3.176-4-4 2.49-2.155 4.156-4.822 5-8l1.5-1c1.481 1.648 3.315 2.648 5.5 3 3.63-1.261 3.964-3.261 1-6a100.472 100.472 0 0 0-19-2.5l9-4.5c.929-1.189 1.262-2.522 1-4 7.34.166 14.674 0 22-.5 2.474-.037 4.474-.87 6-2.5 3.239.087 6.239-.58 9-2a91.123 91.123 0 0 1-1 19l-3 4a39.27 39.27 0 0 0-11-3c-1.538-.047-2.538.62-3 2z"/><path style="opacity:1" fill="#554f44" d="M198.5 175.5c-18.245 37.975-48.579 57.642-91 59-39.162-.659-69.33-17.326-90.5-50-1.009-1.525-1.509-3.192-1.5-5 2.032.548 3.032 1.881 3 4h3a8.435 8.435 0 0 0 .5 4 52.626 52.626 0 0 1 5.5 8c3.057 4.059 6.724 7.393 11 10 1.211 2.45 2.878 4.45 5 6 21.83 16.058 46.164 22.725 73 20a62.267 62.267 0 0 0 16-1.5 142.872 142.872 0 0 0 30-14 59.403 59.403 0 0 0 8-7.5c4.572-3.063 8.739-6.73 12.5-11 1.559-1.717 2.392-3.717 2.5-6 1.917-1.409 3.75-3.076 5.5-5a298.252 298.252 0 0 1 6.5-13c.798.457 1.131 1.124 1 2z"/><path style="opacity:1" fill="#2f461f" d="M107.5 214.5v13a9.108 9.108 0 0 1-5-1 130.373 130.373 0 0 1-1.5-16c-.996 2.16-2.496 3.827-4.5 5a46.064 46.064 0 0 1 6.5-11c.169 6.359.669 12.693 1.5 19a52.141 52.141 0 0 0 1.5-10c.383.556.883.889 1.5 1z"/><path style="opacity:1" fill="#386d4e" d="M111.5 217.5v-1a17.341 17.341 0 0 0-3.5-7c-.781-1.444-.614-2.777.5-4 7.474 2.562 12.474 7.562 15 15l-2 1c-3.577-.958-6.91-2.291-10-4z"/><path style="opacity:1" fill="#3b490f" d="M55.5 201.5c4.446 2.613 6.446 6.613 6 12-6.403-.522-11.07-3.522-14-9 3.127 3.07 6.794 5.404 11 7l1-1a55.202 55.202 0 0 0-4-9z"/><path style="opacity:1" fill="#2d401c" d="M127.5 206.5c-2.98.766-5.98 1.599-9 2.5 4.15 3.946 6.483 8.779 7 14.5-5.668.118-10.335-1.882-14-6 3.09 1.709 6.423 3.042 10 4l2-1c-2.526-7.438-7.526-12.438-15-15-1.114 1.223-1.281 2.556-.5 4a17.341 17.341 0 0 1 3.5 7 6.547 6.547 0 0 1-3-3c-2.797-3.566-3.464-7.566-2-12 2.213 2.274 4.879 3.774 8 4.5 4.547.249 8.88.415 13 .5z"/><path style="opacity:1" fill="#e9e15d" d="M47.5 204.5c2.93 5.478 7.597 8.478 14 9-1.67 1.16-3.502 1.16-5.5 0-1.683.676-1.85 1.676-.5 3a131.242 131.242 0 0 1-13-8c1.43-1.655 2.264-3.655 2.5-6 .708.881 1.542 1.547 2.5 2z"/><path style="opacity:1" fill="#3d7350" d="M159.5 208.5a99.85 99.85 0 0 1-8.5 4c-.667-1.667-.667-3.333 0-5 1.316-2.808 3.15-5.141 5.5-7 5.275-4.826 7.109-3.826 5.5 3-1.372 1.41-2.205 3.077-2.5 5z"/><path style="opacity:1" fill="#fbeb53" d="M126.5 182.5a191.614 191.614 0 0 0 6.5 21c3.649.21 5.816-1.79 6.5-6v-1c3.482 2.737 7.482 4.237 12 4.5-3.842 4.084-4.842 8.751-3 14 3.564.316 6.897-.517 10-2.5.886.825 1.219 1.825 1 3-8.843 5.919-18.509 9.919-29 12a16.873 16.873 0 0 1-8-1c1.189-.929 2.522-1.262 4-1a40.927 40.927 0 0 0-1-10.5c.469-1.887 1.469-3.387 3-4.5l-1-2c2.096-1.092 3.429-2.759 4-5-.247-1.213-.914-1.88-2-2-2.115-2.391-4.781-3.724-8-4l-2-2c1-.333 1.667-1 2-2 3.015-3.032 4.682-6.699 5-11z"/><path style="opacity:1" fill="#cac46a" d="M169.5 191.5c-.608 5.444.058 10.444 2 15l-1 2a5.727 5.727 0 0 0-3 1v-3c-3.797.811-7.131 2.478-10 5l2-3c2.388-2.576 5.388-3.576 9-3-.319-4.863.014-9.53 1-14z"/><path style="opacity:1" fill="#293f16" d="M87.5 197.5c-9.325 4.276-8.991 7.276 1 9 4.862-.007 8.862-1.841 12-5.5a81.819 81.819 0 0 1-3-2.5h5a8.43 8.43 0 0 1-.5 4 65.898 65.898 0 0 0-13 10c-1.202 2.177-1.702 4.511-1.5 7 2.906-.457 5.572-1.457 8-3l-2 3c-2.382 1.546-5.05 2.213-8 2-.254-4.663 1.08-8.829 4-12.5-4.459-.42-8.125-2.253-11-5.5 1.433-4.444 4.433-6.444 9-6z"/><path style="opacity:1" fill="#504812" d="M185.5 191.5c-.108 2.283-.941 4.283-2.5 6-3.761 4.27-7.928 7.937-12.5 11l1-2c5.401-4.398 10.067-9.398 14-15z"/><path style="opacity:1" fill="#3a724b" d="M87.5 197.5a44.87 44.87 0 0 1 10 1c.93.815 1.93 1.648 3 2.5-3.138 3.659-7.138 5.493-12 5.5-9.991-1.724-10.325-4.724-1-9z"/><path style="opacity:1" fill="#36704d" d="M101.5 192.5c-.419 2.825.581 4.991 3 6.5 5.725 1.324 10.725.157 15-3.5l2 2a2.428 2.428 0 0 0-2 .5c4.212.932 7.545 3.098 10 6.5-.333 1-1 1.667-2 2-4.12-.085-8.453-.251-13-.5-3.121-.726-5.787-2.226-8-4.5-1.464 4.434-.797 8.434 2 12-.667 0-1 .333-1 1-.617-.111-1.117-.444-1.5-1a52.141 52.141 0 0 1-1.5 10 182.468 182.468 0 0 1-1.5-19 46.064 46.064 0 0 0-6.5 11c0 .667-.333 1-1 1-2.428 1.543-5.094 2.543-8 3-.202-2.489.298-4.823 1.5-7a65.898 65.898 0 0 1 13-10 8.43 8.43 0 0 0 .5-4h-5c-5.683-3.889-10.016-9.056-13-15.5 7.415.041 13.081 3.207 17 9.5z"/><path style="opacity:1" fill="#ede56f" d="M149.5 183.5a32.6 32.6 0 0 1 4 4.5c-16.301 5.254-15.968 9.254 1 12-4.172 3.503-6.172 8.003-6 13.5 3.192.095 6.192-.571 9-2 2.869-2.522 6.203-4.189 10-5v3a35.916 35.916 0 0 1-8 6c.219-1.175-.114-2.175-1-3-3.103 1.983-6.436 2.816-10 2.5-1.842-5.249-.842-9.916 3-14-4.518-.263-8.518-1.763-12-4.5l1-6h3v-3h6v-4z"/><path style="opacity:1" fill="#ded966" d="M68.5 195.5c1.276.886 1.276 1.886 0 3a54.11 54.11 0 0 1-9 4c2.74 3.45 3.407 7.116 2 11 .446-5.387-1.554-9.387-6-12 3.504-1.629 7.337-2.962 11.5-4 1.03-.336 1.53-1.003 1.5-2z"/><path style="opacity:1" fill="#323a09" d="M121.5 197.5c3.219.276 5.885 1.609 8 4 1.125 1.152 1.125 2.152 0 3-2.455-3.402-5.788-5.568-10-6.5a2.428 2.428 0 0 1 2-.5z"/><path style="opacity:1" fill="#33410f" d="M58.5 189.5c1.716.129 3.383.462 5 1a28.061 28.061 0 0 1 5 5c.03.997-.47 1.664-1.5 2-4.163 1.038-7.996 2.371-11.5 4-.978-.311-1.645-.978-2-2 16.89-2.019 17.223-5.186 1-9.5a8.43 8.43 0 0 1 4-.5z"/><path style="opacity:1" fill="#346d53" d="M40.5 192.5c.997-.03 1.664.47 2 1.5 1.498 4.009 1.165 7.842-1 11.5-.886-.825-1.219-1.825-1-3v-10z"/><path style="opacity:1" fill="#193316" d="M171.5 190.5c-.992-.172-1.658.162-2 1-.986 4.47-1.319 9.137-1 14-3.612-.576-6.612.424-9 3 .295-1.923 1.128-3.59 2.5-5 1.609-6.826-.225-7.826-5.5-3-1.238-.31-1.238-.81 0-1.5-1.558-.21-2.891-.71-4-1.5 3.806.48 7.139-.52 10-3l2.5 9c.414.457.914.791 1.5 1 1.528-4.868 1.195-9.535-1-14a16.086 16.086 0 0 1 2.5-5c.492 1.049.326 2.049-.5 3a71.254 71.254 0 0 1 4 2z"/><path style="opacity:1" fill="#46420b" d="M21.5 183.5a148.575 148.575 0 0 0 10 13v1a25.65 25.65 0 0 1 6 6 31.12 31.12 0 0 0 1-11h2v10l-2 3c-4.276-2.607-7.943-5.941-11-10a52.626 52.626 0 0 0-5.5-8 8.435 8.435 0 0 1-.5-4z"/><path style="opacity:1" fill="#f8ec37" d="M31.5 197.5v-1c.17-1.322-.163-2.489-1-3.5 2.288-.418 4.288.249 6 2 1.247 1.494 1.247 2.994 0 4.5a16.08 16.08 0 0 0-5-2z"/><path style="opacity:1" fill="#35714d" d="M121.5 193.5c-.333 1-1 1.667-2 2-.06-.543-.393-.876-1-1-3.55 2.78-7.55 3.614-12 2.5.734-2.561 2.067-4.727 4-6.5a46.081 46.081 0 0 0 6-5.5c2.514-1.252 5.18-1.752 8-1.5.033 3.602-1.301 6.602-4 9 .124.607.457.94 1 1z"/><path style="opacity:1" fill="#18381b" d="M161.5 183.5c.896 1.006 1.562 1.006 2 0h1v8c-3.532.19-6.865-.477-10-2-.172-.992.162-1.658 1-2 5.944 4.727 7.944 3.394 6-4z"/><path style="opacity:1" fill="#2e3d09" d="M126.5 182.5c-.318 4.301-1.985 7.968-5 11-.543-.06-.876-.393-1-1 2.699-2.398 4.033-5.398 4-9-2.82-.252-5.486.248-8 1.5a46.081 46.081 0 0 1-6 5.5h-1l2-3c3.968-4.459 8.968-6.125 15-5z"/><path style="opacity:1" fill="#675b20" d="M170.5 208.5a59.403 59.403 0 0 1-8 7.5 142.872 142.872 0 0 1-30 14 62.267 62.267 0 0 1-16 1.5c-6.522.323-12.855-.01-19-1h8c5.676.166 11.343-.001 17-.5 2.957-.279 5.623-1.113 8-2.5 10.491-2.081 20.157-6.081 29-12a35.916 35.916 0 0 0 8-6 5.727 5.727 0 0 1 3-1z"/><path style="opacity:1" fill="#f2e469" d="M129.5 201.5c1.086.12 1.753.787 2 2-.571 2.241-1.904 3.908-4 5l1 2c-1.531 1.113-2.531 2.613-3 4.5a40.927 40.927 0 0 1 1 10.5c-1.478-.262-2.811.071-4 1a16.873 16.873 0 0 0 8 1c-2.377 1.387-5.043 2.221-8 2.5-5.657.499-11.324.666-17 .5.111-.617.444-1.117 1-1.5a28.043 28.043 0 0 1-5-1.5 86.578 86.578 0 0 1-1.5-13c-1.558 2.521-3.725 4.188-6.5 5l2-3c.667 0 1-.333 1-1 2.004-1.173 3.504-2.84 4.5-5 .171 5.364.671 10.698 1.5 16a9.108 9.108 0 0 0 5 1v-13c0-.667.333-1 1-1a6.547 6.547 0 0 0 3 3v1c3.665 4.118 8.332 6.118 14 6-.517-5.721-2.85-10.554-7-14.5 3.02-.901 6.02-1.734 9-2.5 1-.333 1.667-1 2-2 1.125-.848 1.125-1.848 0-3z"/><path style="opacity:1" fill="#4d4210" d="M42.5 208.5a131.242 131.242 0 0 0 13 8c12.625 8.431 26.625 13.097 42 14 6.145.99 12.478 1.323 19 1-26.836 2.725-51.17-3.942-73-20a5.728 5.728 0 0 1-1-3z"/></svg>