<svg xmlns="http://www.w3.org/2000/svg" xmlns:xlink="http://www.w3.org/1999/xlink" viewBox="0 0 512 590" version="1"><g fill="#fd0" stroke="#000"><path d="M3 334a253 253 0 1 0 506 0V3H3z" fill="#ee1c22" stroke-width="6"/><path d="m295 133 2 13c0 6-10 8-10 16 0 3 2 7 5 10 10 10 73-3 93 17s14 46 14 70c0 13 8 17 8 25s-2 11-5 16c0 0 7 16 7 44 0 90-67 116-71 188H174c-4-72-71-98-71-188 0-115 120-106 120-144 0-15-7-15-7-22 0-4 9-8 9-16s-10-10-10-16l2-13zm85 121c3-18 5-40-8-53-7-7-28-8-61-8-9 0-22 0-22 7 0 25 51 30 86 61z" stroke-width="4"/><g stroke-width="2.6" stroke-linejoin="round"><g id="a"><path d="m181 100-31 8 25 20-31-4 16 28-28-16 4 31-20-25-8 31-8-31-20 25 4-31-28 16 16-28-31 4 25-20-31-8 31-8-25-20 31 4-16-28 28 16-4-31 20 25 8-31 8 31 20-25-4 31 28-16-16 28 31-4-25 20z"/><circle cy="100" cx="108" r="35"/></g><use transform="translate(296)" xlink:href="#a"/></g></g></svg>