<?xml version="1.0" encoding="UTF-8"?>
<!DOCTYPE svg PUBLIC "-//W3C//DTD SVG 1.1//EN" "http://www.w3.org/Graphics/SVG/1.1/DTD/svg11.dtd">
<svg xmlns="http://www.w3.org/2000/svg" version="1.1" width="583px" height="700px" style="shape-rendering:geometricPrecision; text-rendering:geometricPrecision; image-rendering:optimizeQuality; fill-rule:evenodd; clip-rule:evenodd" xmlns:xlink="http://www.w3.org/1999/xlink">
<g><path style="opacity:1" fill="#fefefe" d="M -0.5,-0.5 C 193.833,-0.5 388.167,-0.5 582.5,-0.5C 582.5,232.833 582.5,466.167 582.5,699.5C 388.167,699.5 193.833,699.5 -0.5,699.5C -0.5,466.167 -0.5,232.833 -0.5,-0.5 Z"/></g>
<g><path style="opacity:1" fill="#03031b" d="M 268.5,9.5 C 269.5,9.5 270.5,9.5 271.5,9.5C 286.535,9.11935 297.535,9.45268 304.5,10.5C 291.813,10.3179 279.147,10.6512 266.5,11.5C 265.448,11.6495 264.448,11.4828 263.5,11C 265.382,10.8019 267.048,10.3019 268.5,9.5 Z"/></g>
<g><path style="opacity:1" fill="#1f2142" d="M 271.5,9.5 C 340.173,5.55737 401.173,25.3907 454.5,69C 516.468,124.073 555.301,192.573 571,274.5C 578.177,316.67 579.344,359.003 574.5,401.5C 573.71,402.609 573.21,403.942 573,405.5C 572.51,404.207 572.343,402.873 572.5,401.5C 582.222,322.081 569.722,246.414 535,174.5C 504.326,114.16 459.16,67.993 399.5,36C 369.281,21.7293 337.615,13.2293 304.5,10.5C 297.535,9.45268 286.535,9.11935 271.5,9.5 Z"/></g>
<g><path style="opacity:1" fill="#1f2242" d="M 268.5,9.5 C 267.048,10.3019 265.382,10.8019 263.5,11C 264.448,11.4828 265.448,11.6495 266.5,11.5C 193.82,21.9222 134.32,55.5888 88,112.5C 39.9847,172.925 13.318,241.925 8,319.5C 1.72111,404.105 20.5544,482.438 64.5,554.5C 97.9301,606.765 142.93,645.598 199.5,671C 214.979,677.37 230.979,681.87 247.5,684.5C 248.263,685.268 249.263,685.768 250.5,686C 249.207,686.49 247.873,686.657 246.5,686.5C 192.742,675.959 146.742,651.293 108.5,612.5C 53.4648,555.09 20.2982,486.756 9,407.5C -4.01138,315.537 12.6553,229.537 59,149.5C 91.5714,96.1289 136.071,55.9622 192.5,29C 216.856,18.7722 242.19,12.2722 268.5,9.5 Z"/></g>
<g><path style="opacity:1" fill="#535379" d="M 572.5,401.5 C 572.343,402.873 572.51,404.207 573,405.5C 573.21,403.942 573.71,402.609 574.5,401.5C 574.354,405.387 573.687,409.054 572.5,412.5C 572.795,410.265 572.461,408.265 571.5,406.5C 571.216,404.585 571.549,402.919 572.5,401.5 Z"/></g>
<g><path style="opacity:1" fill="#1b1e40" d="M 571.5,406.5 C 572.461,408.265 572.795,410.265 572.5,412.5C 559.618,497.111 521.952,568.278 459.5,626C 403.566,674.412 338.566,695.579 264.5,689.5C 263.048,688.698 261.382,688.198 259.5,688C 260.448,687.517 261.448,687.351 262.5,687.5C 342.056,693.596 410.723,669.429 468.5,615C 525.593,556.979 559.926,487.479 571.5,406.5 Z"/></g>
<g><path style="opacity:1" fill="#d7dbf3" d="M 304.5,10.5 C 337.615,13.2293 369.281,21.7293 399.5,36C 459.16,67.993 504.326,114.16 535,174.5C 569.722,246.414 582.222,322.081 572.5,401.5C 571.549,402.919 571.216,404.585 571.5,406.5C 559.926,487.479 525.593,556.979 468.5,615C 410.723,669.429 342.056,693.596 262.5,687.5C 257.727,685.978 252.727,684.978 247.5,684.5C 230.979,681.87 214.979,677.37 199.5,671C 142.93,645.598 97.9301,606.765 64.5,554.5C 20.5544,482.438 1.72111,404.105 8,319.5C 13.318,241.925 39.9847,172.925 88,112.5C 134.32,55.5888 193.82,21.9222 266.5,11.5C 279.147,10.6512 291.813,10.3179 304.5,10.5 Z"/></g>
<g><path style="opacity:1" fill="#4654d3" d="M 275.5,15.5 C 356.191,14.3244 424.024,42.991 479,101.5C 536.396,166.689 567.062,243.022 571,330.5C 575.111,417.451 552.778,496.451 504,567.5C 467.942,617.608 420.775,652.774 362.5,673C 261.652,698.419 175.486,673.586 104,598.5C 47.7567,534.297 17.09,459.297 12,373.5C 6.61688,285.363 28.6169,205.03 78,132.5C 112.192,84.6597 156.692,50.1597 211.5,29C 232.436,22.2632 253.769,17.7632 275.5,15.5 Z"/></g>
<g><path style="opacity:1" fill="#dadef5" d="M 430.5,545.5 C 432.544,546.031 434.211,547.198 435.5,549C 434.075,550.362 433.242,551.862 433,553.5C 440.651,560.317 448.151,567.317 455.5,574.5C 459.306,570.38 461.806,571.047 463,576.5C 459.333,580.167 455.667,583.833 452,587.5C 450.437,586.275 449.27,584.775 448.5,583C 449.615,581.607 450.115,580.107 450,578.5C 442.88,572.346 436.046,565.846 429.5,559C 427.415,558.471 425.582,558.971 424,560.5C 422.739,560.241 421.739,559.574 421,558.5C 423.834,554.13 427.001,549.797 430.5,545.5 Z"/></g>
<g><path style="opacity:1" fill="#daddf4" d="M 142.5,542.5 C 143.552,542.351 144.552,542.517 145.5,543C 153.868,550.37 161.868,558.037 169.5,566C 167.681,568.489 165.848,570.989 164,573.5C 161.391,575.981 159.224,575.481 157.5,572C 159.243,569.981 160.41,567.814 161,565.5C 157.278,561.275 153.112,557.608 148.5,554.5C 145.862,557.474 143.195,560.474 140.5,563.5C 144.625,567.123 148.625,570.957 152.5,575C 151.315,576.353 149.981,577.52 148.5,578.5C 144.178,575.343 140.011,572.01 136,568.5C 133.355,571.145 130.688,573.812 128,576.5C 127.333,577.167 127.333,577.833 128,578.5C 132.133,581.631 135.966,585.131 139.5,589C 140.167,589.667 140.833,589.667 141.5,589C 143.017,587.315 144.684,585.815 146.5,584.5C 147.981,585.48 149.315,586.647 150.5,588C 147.273,591.638 143.94,595.138 140.5,598.5C 132.011,590.178 123.344,582.012 114.5,574C 115.685,572.647 117.019,571.48 118.5,570.5C 120.078,571.64 121.744,572.14 123.5,572C 130.352,564.649 137.019,557.149 143.5,549.5C 142.5,548.167 141.5,546.833 140.5,545.5C 141.193,544.482 141.859,543.482 142.5,542.5 Z"/></g>
<g><path style="opacity:1" fill="#d7dbf2" d="M 406.5,304.5 C 409.271,309.796 413.104,314.463 418,318.5C 427.775,332.313 433.942,347.646 436.5,364.5C 439.306,367.418 441.473,370.751 443,374.5C 461.776,424.98 454.109,470.98 420,512.5C 380.842,559.327 330.676,582.827 269.5,583C 235.831,574.416 207.331,557.249 184,531.5C 157.862,500.803 139.862,465.803 130,426.5C 126.72,407.994 128.387,389.994 135,372.5C 145.025,355.782 154.525,338.782 163.5,321.5C 170.579,318.199 177.745,315.199 185,312.5C 188.33,316.491 191.164,320.824 193.5,325.5C 192.662,325.842 192.328,326.508 192.5,327.5C 190.442,325.073 188.609,322.407 187,319.5C 185.818,317.643 184.151,316.643 182,316.5C 175.973,318.062 170.307,320.395 165,323.5C 156.113,342.276 146.446,360.609 136,378.5C 133.463,386.688 131.629,395.021 130.5,403.5C 132.783,403.392 134.783,402.559 136.5,401C 142.019,395.449 147.186,389.615 152,383.5C 154.397,380.6 157.23,378.267 160.5,376.5C 180.575,388.57 198.575,403.237 214.5,420.5C 213.211,421.501 211.878,421.334 210.5,420C 210.833,419.667 211.167,419.333 211.5,419C 210.251,418.26 209.251,418.427 208.5,419.5C 197.629,409.129 186.296,399.296 174.5,390C 170.342,386.839 165.842,384.339 161,382.5C 160.167,382.667 159.333,382.833 158.5,383C 152.765,389.279 146.931,395.446 141,401.5C 136.997,406.005 134.163,411.172 132.5,417C 135.121,429.494 139.121,441.494 144.5,453C 159.8,451.943 175.134,450.943 190.5,450C 197.322,445.343 203.322,439.843 208.5,433.5C 209.514,434.674 210.847,435.34 212.5,435.5C 206.855,441.48 201.188,447.48 195.5,453.5C 201.634,464.734 209.467,474.734 219,483.5C 221.451,488.58 224.951,492.747 229.5,496C 236.988,497.302 244.321,499.135 251.5,501.5C 258.917,498.596 265.084,493.929 270,487.5C 270.725,474.327 267.725,461.993 261,450.5C 252.67,438.011 244.17,425.678 235.5,413.5C 235.804,412.85 236.137,412.183 236.5,411.5C 236.154,410.304 235.654,410.304 235,411.5C 234.907,408.993 234.074,406.826 232.5,405C 233.044,404.283 233.711,403.783 234.5,403.5C 247.774,419.314 258.941,436.648 268,455.5C 269.983,461.435 271.65,467.435 273,473.5C 273.637,475.303 274.803,476.636 276.5,477.5C 281.85,474.492 286.85,470.992 291.5,467C 297.941,460.29 304.941,454.29 312.5,449C 315.103,446.906 317.103,444.406 318.5,441.5C 309.016,424.191 300.849,406.191 294,387.5C 288.609,380.441 283.609,373.107 279,365.5C 276.509,362.01 273.675,358.843 270.5,356C 268.212,355.582 266.212,356.249 264.5,358C 254.286,366.061 244.286,374.228 234.5,382.5C 233.432,381.566 232.099,381.232 230.5,381.5C 240.977,372.531 251.644,363.698 262.5,355C 265.893,352.466 269.559,350.799 273.5,350C 279.634,359.1 286.134,367.933 293,376.5C 301.94,401.223 314.107,424.056 329.5,445C 336.32,450.576 343.32,455.909 350.5,461C 357.673,467.851 362.84,476.018 366,485.5C 370.919,502.602 377.586,518.935 386,534.5C 388.21,535.749 390.376,535.582 392.5,534C 397.327,530.173 401.827,526.006 406,521.5C 405.749,509.268 403.749,497.268 400,485.5C 387.02,460.876 375.687,435.542 366,409.5C 359.03,395.205 349.197,383.371 336.5,374C 318.646,365.24 300.979,356.24 283.5,347C 275.801,345.245 268.467,342.579 261.5,339C 250.797,329.965 241.131,319.965 232.5,309C 231.167,308.333 229.833,308.333 228.5,309C 226.905,311.102 224.905,312.602 222.5,313.5C 221.811,312.226 220.977,312.226 220,313.5C 219.505,311.527 219.338,309.527 219.5,307.5C 220.161,308.718 220.828,310.051 221.5,311.5C 223.69,309.476 226.023,307.643 228.5,306C 229.5,305.333 230.5,305.333 231.5,306C 242.167,315.333 252.167,325.333 261.5,336C 266.303,338.2 271.303,338.867 276.5,338C 289.161,329.496 302.828,322.996 317.5,318.5C 319.817,320.316 321.984,322.316 324,324.5C 332.31,318.358 340.476,312.024 348.5,305.5C 351.084,306.393 353.751,306.726 356.5,306.5C 355.432,307.434 354.099,307.768 352.5,307.5C 352.5,308.5 352.5,309.5 352.5,310.5C 343.974,312.853 336.474,317.186 330,323.5C 329.833,324.5 329.667,325.5 329.5,326.5C 329.967,329.148 331.134,331.481 333,333.5C 340.213,342.227 348.713,349.227 358.5,354.5C 362.168,350.865 366.168,348.031 370.5,346C 377.097,353.719 384.264,360.886 392,367.5C 397.347,374.693 401.514,382.527 404.5,391C 410.34,390.911 415.006,388.411 418.5,383.5C 421.47,380.981 422.137,377.981 420.5,374.5C 422.179,374.715 423.179,374.048 423.5,372.5C 424.936,374.319 426.603,374.652 428.5,373.5C 431.811,364.669 432.311,355.669 430,346.5C 424.839,332.179 416.673,319.846 405.5,309.5C 406.451,308.081 406.784,306.415 406.5,304.5 Z"/></g>
<g><path style="opacity:1" fill="#0b0d23" d="M 276.5,534.5 C 280.273,534.263 283.94,534.763 287.5,536C 302.208,543.041 312.374,554.207 318,569.5C 318.667,571.167 318.667,572.833 318,574.5C 287.78,583.681 258.947,580.515 231.5,565C 228.833,563.333 228.833,561.667 231.5,560C 242.406,554.048 253.406,548.381 264.5,543C 268.68,540.304 272.68,537.47 276.5,534.5 Z"/></g>
<g><path style="opacity:1" fill="#d9ddf4" d="M 467.5,501.5 C 469.487,502.164 471.154,503.331 472.5,505C 470.668,506.489 469.835,508.322 470,510.5C 479.631,518.057 489.131,525.724 498.5,533.5C 496.877,535.791 495.043,537.791 493,539.5C 480.56,537.246 468.06,535.746 455.5,535C 462.356,540.691 469.356,546.191 476.5,551.5C 477.48,550.019 478.647,548.685 480,547.5C 481.351,549.019 482.851,550.352 484.5,551.5C 481.19,555.978 477.69,560.311 474,564.5C 470.235,562.514 469.735,560.014 472.5,557C 464.61,550.106 456.444,543.606 448,537.5C 445.356,541.453 442.856,541.286 440.5,537C 442.771,531.892 446.438,528.392 451.5,526.5C 462.922,527.844 474.255,529.344 485.5,531C 478.667,525.5 471.833,520 465,514.5C 462.884,519.634 460.384,519.8 457.5,515C 460.665,510.341 463.998,505.841 467.5,501.5 Z"/></g>
<g><path style="opacity:1" fill="#0c0e24" d="M 294.5,515.5 C 295.552,515.351 296.552,515.517 297.5,516C 307.403,525.288 318.07,533.621 329.5,541C 336.736,546.885 342.403,553.885 346.5,562C 346.167,562.833 345.833,563.667 345.5,564.5C 339.414,567.477 333.08,569.31 326.5,570C 316.614,551.78 302.447,537.947 284,528.5C 283.333,527.5 283.333,526.5 284,525.5C 287.396,521.935 290.896,518.602 294.5,515.5 Z"/></g>
<g><path style="opacity:1" fill="#0b0d23" d="M 244.5,520.5 C 246.527,520.338 248.527,520.505 250.5,521C 254.833,524.5 259.167,528 263.5,531.5C 264.641,533.421 264.808,535.421 264,537.5C 250.31,543.258 237.477,550.425 225.5,559C 220.253,559.125 216.087,556.959 213,552.5C 212.333,551.167 212.333,549.833 213,548.5C 223.102,538.562 233.602,529.229 244.5,520.5 Z"/></g>
<g><path style="opacity:1" fill="#dadef4" d="M 116.5,504.5 C 118.074,504.937 119.241,505.937 120,507.5C 123,512.5 126,517.5 129,522.5C 131.73,528.296 130.563,533.13 125.5,537C 121.874,538.64 118.207,538.806 114.5,537.5C 114.016,547.893 108.683,552.393 98.5,551C 95.8976,550.117 93.7309,548.617 92,546.5C 88.3653,540.035 84.532,533.702 80.5,527.5C 83.5405,523.839 86.3739,523.839 89,527.5C 98.2323,522.802 107.066,517.468 115.5,511.5C 114.617,510.452 113.95,509.285 113.5,508C 114.544,506.826 115.544,505.659 116.5,504.5 Z"/></g>
<g><path style="opacity:1" fill="#4653d2" d="M 102.5,527.5 C 107.524,530.895 109.19,535.562 107.5,541.5C 104.604,544.779 101.27,545.279 97.5,543C 95.5766,540.485 93.91,537.818 92.5,535C 95.6917,532.245 99.025,529.745 102.5,527.5 Z"/></g>
<g><path style="opacity:1" fill="#4754d3" d="M 118.5,517.5 C 121.057,520.111 122.724,523.278 123.5,527C 122.892,530.568 120.725,532.401 117,532.5C 112.988,531.32 110.488,528.653 109.5,524.5C 112.349,521.916 115.349,519.583 118.5,517.5 Z"/></g>
<g><path style="opacity:1" fill="#0c0e24" d="M 322.5,507.5 C 326.167,507.164 329.5,507.997 332.5,510C 342.622,519.155 352.455,528.655 362,538.5C 365.121,541.78 367.621,545.447 369.5,549.5C 365.472,556.348 359.472,559.848 351.5,560C 346.623,552.117 340.623,545.117 333.5,539C 326.21,534.1 319.376,528.6 313,522.5C 312.333,520.833 312.333,519.167 313,517.5C 315.696,513.639 318.863,510.306 322.5,507.5 Z"/></g>
<g><path style="opacity:1" fill="#0c0e24" d="M 151.5,459.5 C 156.982,458.595 161.649,460.095 165.5,464C 185.215,483.259 200.048,505.759 210,531.5C 211.164,536.726 210.331,541.559 207.5,546C 205.833,546.667 204.167,546.667 202.5,546C 188.465,532.302 176.298,517.135 166,500.5C 159.238,489.98 153.238,478.98 148,467.5C 147.279,463.946 148.446,461.28 151.5,459.5 Z"/></g>
<g><path style="opacity:1" fill="#0c0e24" d="M 169.5,457.5 C 178.479,456.663 186.813,458.496 194.5,463C 205.267,475.19 216.267,487.19 227.5,499C 238.454,501.21 248.787,505.21 258.5,511C 262.702,514.867 266.535,519.033 270,523.5C 271.422,526.03 271.755,528.697 271,531.5C 269.951,532.517 268.784,532.684 267.5,532C 263.167,527.667 258.833,523.333 254.5,519C 251.899,517.529 249.233,516.363 246.5,515.5C 237.184,520.962 228.518,527.462 220.5,535C 219.365,535.749 218.365,535.583 217.5,534.5C 212.168,521.307 205.668,508.64 198,496.5C 193.409,489.905 188.076,483.905 182,478.5C 178.28,471.449 173.78,464.949 168.5,459C 169.056,458.617 169.389,458.117 169.5,457.5 Z"/></g>
<g><path style="opacity:1" fill="#0b0d22" d="M 320.5,449.5 C 322.857,449.337 325.19,449.503 327.5,450C 338.842,456.341 348.675,464.508 357,474.5C 362.261,487.283 366.928,500.283 371,513.5C 374.429,522.127 378.429,530.46 383,538.5C 383.746,541.789 382.58,544.289 379.5,546C 378.167,546.667 376.833,546.667 375.5,546C 364.798,534.966 354.464,523.633 344.5,512C 340.102,508.606 335.435,505.606 330.5,503C 327.217,502.257 324.217,502.924 321.5,505C 317.576,509.597 313.076,513.43 308,516.5C 300.938,507.722 293.604,507.389 286,515.5C 279.533,527.564 273.533,527.231 268,514.5C 265,511.833 262,509.167 259,506.5C 258.333,505.167 258.333,503.833 259,502.5C 275.798,488.037 292.298,473.204 308.5,458C 312.68,455.304 316.68,452.47 320.5,449.5 Z"/></g>
<g><path style="opacity:1" fill="#0b0d22" d="M 235.5,413.5 C 244.17,425.678 252.67,438.011 261,450.5C 267.725,461.993 270.725,474.327 270,487.5C 265.084,493.929 258.917,498.596 251.5,501.5C 244.321,499.135 236.988,497.302 229.5,496C 224.951,492.747 221.451,488.58 219,483.5C 209.467,474.734 201.634,464.734 195.5,453.5C 201.188,447.48 206.855,441.48 212.5,435.5C 219.315,429.052 225.315,421.885 230.5,414C 232.139,412.481 233.806,412.314 235.5,413.5 Z"/></g>
<g><path style="opacity:1" fill="#0b0d22" d="M 397.5,402.5 C 399.716,403.203 401.549,404.536 403,406.5C 405.044,411.59 407.377,416.59 410,421.5C 417.432,429.596 424.099,438.263 430,447.5C 435.128,456.207 437.794,465.54 438,475.5C 431.493,485.843 425.493,496.51 420,507.5C 414.679,514.751 411.012,514.084 409,505.5C 407.427,496.301 405.094,487.301 402,478.5C 395.529,463.56 388.529,448.893 381,434.5C 378.842,430.039 377.842,425.373 378,420.5C 382.378,416.065 387.212,412.232 392.5,409C 394.79,407.223 396.457,405.056 397.5,402.5 Z"/></g>
<g><path style="opacity:1" fill="#0b0d22" d="M 208.5,419.5 C 210.2,421.21 211.533,423.21 212.5,425.5C 211.153,428.193 209.82,430.86 208.5,433.5C 203.322,439.843 197.322,445.343 190.5,450C 175.134,450.943 159.8,451.943 144.5,453C 139.121,441.494 135.121,429.494 132.5,417C 134.163,411.172 136.997,406.005 141,401.5C 146.931,395.446 152.765,389.279 158.5,383C 159.333,382.833 160.167,382.667 161,382.5C 165.842,384.339 170.342,386.839 174.5,390C 186.296,399.296 197.629,409.129 208.5,419.5 Z"/></g>
<g><path style="opacity:1" fill="#8e9adc" d="M 54.5,387.5 C 52.1667,388.167 49.8333,388.833 47.5,389.5C 46.9569,389.44 46.6236,389.107 46.5,388.5C 49.0865,387.52 51.7531,387.187 54.5,387.5 Z"/></g>
<g><path style="opacity:1" fill="#dcdff5" d="M 524.5,376.5 C 527.963,379.817 530.963,383.65 533.5,388C 538.202,388.172 542.868,388.672 547.5,389.5C 545.482,393.536 543.482,397.536 541.5,401.5C 543.447,405.727 545.114,410.061 546.5,414.5C 541.868,415.328 537.202,415.828 532.5,416C 529.992,419.338 527.325,422.505 524.5,425.5C 521.487,422.651 518.82,419.485 516.5,416C 511.825,415.203 507.159,414.37 502.5,413.5C 504.652,409.363 506.652,405.197 508.5,401C 506.148,397.11 504.481,392.944 503.5,388.5C 508.179,388.013 512.846,387.347 517.5,386.5C 519.859,383.149 522.192,379.815 524.5,376.5 Z"/></g>
<g><path style="opacity:1" fill="#dde0f5" d="M 47.5,389.5 C 49.8333,388.833 52.1667,388.167 54.5,387.5C 56.5273,387.662 58.5273,387.495 60.5,387C 63.3917,383.367 66.3917,379.867 69.5,376.5C 72.3289,380.172 74.9956,384.005 77.5,388C 82.3631,388.029 87.0297,388.862 91.5,390.5C 89.2291,394.044 87.2291,397.71 85.5,401.5C 87.381,405.819 89.0476,410.152 90.5,414.5C 85.821,414.987 81.1544,415.653 76.5,416.5C 74.0584,419.729 71.3918,422.729 68.5,425.5C 65.8154,422.81 63.4821,419.81 61.5,416.5C 56.5178,415.419 51.5178,414.419 46.5,413.5C 48.6202,409.425 50.6202,405.258 52.5,401C 50.6836,397.204 49.0169,393.37 47.5,389.5 Z"/></g>
<g><path style="opacity:1" fill="#0b0e23" d="M 435.5,371.5 C 436.675,371.281 437.675,371.614 438.5,372.5C 451.689,399.685 454.522,428.018 447,457.5C 446.313,459.555 445.146,461.221 443.5,462.5C 439.776,456.057 436.276,449.391 433,442.5C 425.953,434.455 419.287,426.122 413,417.5C 410.208,412.251 407.708,406.918 405.5,401.5C 405.848,399.303 406.848,397.47 408.5,396C 417.473,390.927 425.64,384.76 433,377.5C 433.573,375.359 434.406,373.359 435.5,371.5 Z"/></g>
<g><path style="opacity:1" fill="#0c0f25" d="M 368.5,352.5 C 373.687,355.173 378.187,358.84 382,363.5C 388.049,370.548 393.716,377.881 399,385.5C 400.899,389.197 400.899,392.864 399,396.5C 395.851,400.492 392.018,403.658 387.5,406C 385.888,406.72 384.388,406.554 383,405.5C 382.072,399.061 380.738,392.728 379,386.5C 374.316,377.798 368.65,369.798 362,362.5C 361.365,360.365 361.699,358.365 363,356.5C 364.812,355.023 366.645,353.69 368.5,352.5 Z"/></g>
<g><path style="opacity:1" fill="#0b0d22" d="M 234.5,403.5 C 230.676,396.374 230.676,389.374 234.5,382.5C 244.286,374.228 254.286,366.061 264.5,358C 266.212,356.249 268.212,355.582 270.5,356C 273.675,358.843 276.509,362.01 279,365.5C 283.609,373.107 288.609,380.441 294,387.5C 300.849,406.191 309.016,424.191 318.5,441.5C 317.103,444.406 315.103,446.906 312.5,449C 304.941,454.29 297.941,460.29 291.5,467C 286.85,470.992 281.85,474.492 276.5,477.5C 274.803,476.636 273.637,475.303 273,473.5C 271.65,467.435 269.983,461.435 268,455.5C 258.941,436.648 247.774,419.314 234.5,403.5 Z"/></g>
<g><path style="opacity:1" fill="#0b0d22" d="M 230.5,381.5 C 226.515,382.603 223.349,381.27 221,377.5C 213.648,363.962 207.814,349.795 203.5,335C 203.731,332.091 204.897,329.591 207,327.5C 212.362,322.968 217.528,318.301 222.5,313.5C 224.905,312.602 226.905,311.102 228.5,309C 229.833,308.333 231.167,308.333 232.5,309C 241.131,319.965 250.797,329.965 261.5,339C 268.467,342.579 275.801,345.245 283.5,347C 300.979,356.24 318.646,365.24 336.5,374C 349.197,383.371 359.03,395.205 366,409.5C 375.687,435.542 387.02,460.876 400,485.5C 403.749,497.268 405.749,509.268 406,521.5C 401.827,526.006 397.327,530.173 392.5,534C 390.376,535.582 388.21,535.749 386,534.5C 377.586,518.935 370.919,502.602 366,485.5C 362.84,476.018 357.673,467.851 350.5,461C 343.32,455.909 336.32,450.576 329.5,445C 314.107,424.056 301.94,401.223 293,376.5C 286.134,367.933 279.634,359.1 273.5,350C 269.559,350.799 265.893,352.466 262.5,355C 251.644,363.698 240.977,372.531 230.5,381.5 Z"/></g>
<g><path style="opacity:1" fill="#0c0e24" d="M 313.5,323.5 C 315.655,323.372 317.655,323.872 319.5,325C 330.647,337.813 342.814,349.646 356,360.5C 363.577,369.312 369.91,378.978 375,389.5C 376.488,395.439 377.654,401.439 378.5,407.5C 378.596,409.926 377.93,412.093 376.5,414C 375.216,414.684 374.049,414.517 373,413.5C 366.061,398.796 356.561,385.963 344.5,375C 323.265,364.134 302.431,352.634 282,340.5C 282.606,337.54 284.439,335.373 287.5,334C 295.896,329.629 304.563,326.129 313.5,323.5 Z"/></g>
<g><path style="opacity:1" fill="#0b0d22" d="M 192.5,327.5 C 205.955,353.41 218.621,379.744 230.5,406.5C 226.689,411.479 222.689,416.312 218.5,421C 217.072,421.579 215.738,421.412 214.5,420.5C 198.575,403.237 180.575,388.57 160.5,376.5C 157.23,378.267 154.397,380.6 152,383.5C 147.186,389.615 142.019,395.449 136.5,401C 134.783,402.559 132.783,403.392 130.5,403.5C 131.629,395.021 133.463,386.688 136,378.5C 146.446,360.609 156.113,342.276 165,323.5C 170.307,320.395 175.973,318.062 182,316.5C 184.151,316.643 185.818,317.643 187,319.5C 188.609,322.407 190.442,325.073 192.5,327.5 Z"/></g>
<g><path style="opacity:1" fill="#0b0e23" d="M 352.5,310.5 C 360.805,314.997 368.471,320.497 375.5,327C 387.237,338.615 399.07,350.115 411,361.5C 414.176,365.863 417.343,370.196 420.5,374.5C 422.137,377.981 421.47,380.981 418.5,383.5C 415.006,388.411 410.34,390.911 404.5,391C 401.514,382.527 397.347,374.693 392,367.5C 384.264,360.886 377.097,353.719 370.5,346C 366.168,348.031 362.168,350.865 358.5,354.5C 348.713,349.227 340.213,342.227 333,333.5C 331.134,331.481 329.967,329.148 329.5,326.5C 329.667,325.5 329.833,324.5 330,323.5C 336.474,317.186 343.974,312.853 352.5,310.5 Z"/></g>
<g><path style="opacity:1" fill="#0b0d23" d="M 405.5,309.5 C 416.673,319.846 424.839,332.179 430,346.5C 432.311,355.669 431.811,364.669 428.5,373.5C 426.603,374.652 424.936,374.319 423.5,372.5C 420.512,367.208 417.012,362.208 413,357.5C 400.791,345.626 388.958,333.459 377.5,321C 382.673,313.829 389.506,308.995 398,306.5C 400.423,307.626 402.923,308.626 405.5,309.5 Z"/></g>
<g><path style="opacity:1" fill="#daddf5" d="M 534.5,265.5 C 536.124,265.36 537.29,266.027 538,267.5C 540.66,277.808 543.16,288.141 545.5,298.5C 545.392,299.442 545.059,300.275 544.5,301C 541.471,301.732 538.471,302.565 535.5,303.5C 534.558,303.392 533.725,303.059 533,302.5C 532.506,300.866 532.34,299.199 532.5,297.5C 534.927,297.477 537.26,296.977 539.5,296C 537.523,290.654 536.023,285.154 535,279.5C 534.439,278.978 533.772,278.645 533,278.5C 530.226,279.536 527.393,280.369 524.5,281C 523.572,281.388 522.905,282.055 522.5,283C 524.146,288.101 525.479,293.268 526.5,298.5C 524.5,298.833 522.5,299.167 520.5,299.5C 519.495,294.157 518.495,288.824 517.5,283.5C 512.868,284.376 508.201,285.043 503.5,285.5C 505.25,291.749 506.583,298.082 507.5,304.5C 510.5,303.833 513.5,303.167 516.5,302.5C 516.854,304.541 516.854,306.374 516.5,308C 512.166,309.51 507.832,310.01 503.5,309.5C 500.604,299.071 497.937,288.571 495.5,278C 498.676,274.339 500.676,274.839 501.5,279.5C 511.656,276.713 521.99,274.379 532.5,272.5C 532.167,270.5 531.833,268.5 531.5,266.5C 532.791,266.737 533.791,266.404 534.5,265.5 Z"/></g>
<g><path style="opacity:1" fill="#d9ddf4" d="M 44.5,249.5 C 46.5,249.5 48.5,249.5 50.5,249.5C 50.1667,251.5 49.8333,253.5 49.5,255.5C 59.8918,257.245 70.2251,259.245 80.5,261.5C 80.6369,256.367 82.9702,255.033 87.5,257.5C 86.2223,263.108 85.2223,268.775 84.5,274.5C 82.5,274.5 80.5,274.5 78.5,274.5C 78.9167,271.921 78.25,269.754 76.5,268C 68.4793,266.003 60.4793,264.669 52.5,264C 61.6953,270.695 71.0286,277.195 80.5,283.5C 81.3857,284.325 81.719,285.325 81.5,286.5C 68.8367,288.429 56.1701,290.596 43.5,293C 53.337,295.793 63.337,297.627 73.5,298.5C 73.5,296.833 73.5,295.167 73.5,293.5C 75.5,293.5 77.5,293.5 79.5,293.5C 79.6591,299.9 78.3258,305.9 75.5,311.5C 74.2638,310.754 72.9305,310.421 71.5,310.5C 71.7394,308.533 71.4061,306.699 70.5,305C 61.5351,303.009 52.5351,301.176 43.5,299.5C 41.448,299.616 40.1147,300.616 39.5,302.5C 37.604,303.466 35.604,303.799 33.5,303.5C 34.3272,297.857 35.6606,292.357 37.5,287C 47.8863,285.489 58.2197,283.656 68.5,281.5C 59.1228,275.817 50.1228,269.65 41.5,263C 42.9163,258.579 43.9163,254.079 44.5,249.5 Z"/></g>
<g><path style="opacity:1" fill="#d9dcf4" d="M 514.5,206.5 C 515.675,206.281 516.675,206.614 517.5,207.5C 521.225,214.948 524.392,222.615 527,230.5C 528.225,236.268 527.225,241.601 524,246.5C 516.458,254.569 507.292,257.403 496.5,255C 492.388,253.221 489.222,250.388 487,246.5C 484.028,239.25 480.861,232.084 477.5,225C 478.697,223.48 480.197,222.313 482,221.5C 483.252,223.001 484.252,224.668 485,226.5C 490.852,222.991 497.019,220.157 503.5,218C 506.994,216.421 510.327,214.587 513.5,212.5C 512.96,211.252 512.293,210.085 511.5,209C 512.571,208.148 513.571,207.315 514.5,206.5 Z"/></g>
<g><path style="opacity:1" fill="#4654d3" d="M 514.5,219.5 C 515.5,219.5 516.5,219.5 517.5,219.5C 518.814,224.14 520.147,228.807 521.5,233.5C 519.09,243.224 512.757,248.224 502.5,248.5C 498.331,248.849 495.164,247.182 493,243.5C 490.788,240.196 488.955,236.696 487.5,233C 496.592,228.454 505.592,223.954 514.5,219.5 Z"/></g>
<g><path style="opacity:1" fill="#d9ddf4" d="M 66.5,199.5 C 70.3986,200.046 71.7319,202.046 70.5,205.5C 71.7287,206.281 73.062,206.781 74.5,207C 82.5351,207.505 90.5351,208.338 98.5,209.5C 100.167,209.167 101.833,208.833 103.5,208.5C 105.613,204.836 107.946,204.836 110.5,208.5C 108.374,212.711 106.541,217.044 105,221.5C 102.919,222.333 100.752,222.333 98.5,221.5C 98.3832,219.516 99.0499,217.85 100.5,216.5C 96.9553,215.209 93.4553,215.209 90,216.5C 88.2308,220.474 86.8975,224.474 86,228.5C 87.7635,230.719 89.7635,232.719 92,234.5C 93.6165,229.815 96.1165,229.482 99.5,233.5C 97.6404,238.553 95.3071,243.219 92.5,247.5C 91.1667,246.833 89.8333,246.167 88.5,245.5C 88.9019,243.634 88.9019,241.634 88.5,239.5C 81.0411,232.542 73.7077,225.375 66.5,218C 64.773,218.76 63.1064,219.927 61.5,221.5C 59.8927,221.363 58.5594,220.696 57.5,219.5C 60.4975,212.838 63.4975,206.171 66.5,199.5 Z"/></g>
<g><path style="opacity:1" fill="#4550cd" d="M 70.5,214.5 C 71.4486,213.848 72.6153,213.514 74,213.5C 77.5,214 81,214.5 84.5,215C 83.3067,217.887 81.9734,220.72 80.5,223.5C 77.1467,220.478 73.8134,217.478 70.5,214.5 Z"/></g>
<g><path style="opacity:1" fill="#d9ddf4" d="M 484.5,151.5 C 485.822,151.33 486.989,151.663 488,152.5C 489.97,155.968 492.136,159.301 494.5,162.5C 488.31,173.886 482.477,185.219 477,196.5C 483.58,191.792 490.413,187.459 497.5,183.5C 498.578,181.525 498.245,179.692 496.5,178C 497.774,176.779 499.274,175.946 501,175.5C 504.404,179.964 507.57,184.63 510.5,189.5C 509.451,191.112 507.951,192.112 506,192.5C 504.669,191.004 503.169,189.671 501.5,188.5C 490.917,194.708 480.417,201.041 470,207.5C 467.836,205.189 466.836,202.522 467,199.5C 472.706,188.587 478.539,177.754 484.5,167C 482.402,167.032 480.402,167.699 478.5,169C 473.167,172.333 467.833,175.667 462.5,179C 461.848,181.09 461.681,183.257 462,185.5C 460.915,186.293 459.748,186.96 458.5,187.5C 455.649,182.984 452.649,178.484 449.5,174C 452.089,170.263 454.422,170.096 456.5,173.5C 457.365,174.583 458.365,174.749 459.5,174C 466.903,168.936 474.57,164.27 482.5,160C 485.044,158.225 485.044,156.392 482.5,154.5C 483.193,153.482 483.859,152.482 484.5,151.5 Z"/></g>
<g><path style="opacity:1" fill="#d9ddf5" d="M 100.5,146.5 C 110.461,147.131 115.128,152.464 114.5,162.5C 119.02,162.97 123.52,163.637 128,164.5C 130.454,164.241 132.454,163.241 134,161.5C 135.626,162.289 137.126,163.289 138.5,164.5C 136.774,166.228 135.441,168.228 134.5,170.5C 127.112,171.162 119.779,170.495 112.5,168.5C 110.064,169.1 108.398,170.6 107.5,173C 111.052,176.219 114.885,179.052 119,181.5C 120.353,180.315 121.52,178.981 122.5,177.5C 124.167,178.5 125.5,179.833 126.5,181.5C 123.857,186.132 120.857,190.465 117.5,194.5C 113.162,193.158 112.496,190.824 115.5,187.5C 107.132,181.143 98.4654,175.143 89.5,169.5C 87.4484,173.086 84.9484,173.419 82,170.5C 85.5128,164.518 89.3461,158.518 93.5,152.5C 95.7187,150.245 98.052,148.245 100.5,146.5 Z"/></g>
<g><path style="opacity:1" fill="#4653d2" d="M 100.5,153.5 C 104.385,153.551 107.052,155.384 108.5,159C 107.7,163.451 105.533,166.951 102,169.5C 98.8831,167.693 96.0498,165.526 93.5,163C 95.2646,159.404 97.598,156.237 100.5,153.5 Z"/></g>
<g><path style="opacity:1" fill="#dcdff5" d="M 406.5,304.5 C 406.784,306.415 406.451,308.081 405.5,309.5C 402.923,308.626 400.423,307.626 398,306.5C 389.506,308.995 382.673,313.829 377.5,321C 388.958,333.459 400.791,345.626 413,357.5C 417.012,362.208 420.512,367.208 423.5,372.5C 423.179,374.048 422.179,374.715 420.5,374.5C 417.343,370.196 414.176,365.863 411,361.5C 399.07,350.115 387.237,338.615 375.5,327C 368.471,320.497 360.805,314.997 352.5,310.5C 352.5,309.5 352.5,308.5 352.5,307.5C 354.099,307.768 355.432,307.434 356.5,306.5C 359.317,279.51 362.984,252.51 367.5,225.5C 364.769,226.607 361.936,227.607 359,228.5C 357.029,228.532 355.529,227.698 354.5,226C 349.177,225.501 343.844,225.334 338.5,225.5C 338.5,218.833 338.5,212.167 338.5,205.5C 334.833,205.5 331.167,205.5 327.5,205.5C 327.5,211.5 327.5,217.5 327.5,223.5C 327.167,236.85 327.501,250.183 328.5,263.5C 329.107,263.376 329.44,263.043 329.5,262.5C 335.167,262.5 340.833,262.5 346.5,262.5C 346.5,267.167 346.5,271.833 346.5,276.5C 326.66,276.17 306.993,276.503 287.5,277.5C 268.5,277.5 249.5,277.5 230.5,277.5C 230.5,272.833 230.5,268.167 230.5,263.5C 236.5,263.5 242.5,263.5 248.5,263.5C 248.83,244.659 248.497,225.993 247.5,207.5C 243.03,206.514 238.363,206.181 233.5,206.5C 234.114,202.865 234.448,199.198 234.5,195.5C 232.833,195.5 231.167,195.5 229.5,195.5C 228.325,202.903 226.825,210.237 225,217.5C 222.381,218.729 219.881,218.396 217.5,216.5C 216.522,216.977 215.689,217.643 215,218.5C 214.333,224.5 214.333,230.5 215,236.5C 217.274,245.872 218.774,255.372 219.5,265C 218.201,279.175 218.201,293.342 219.5,307.5C 219.338,309.527 219.505,311.527 220,313.5C 220.977,312.226 221.811,312.226 222.5,313.5C 217.528,318.301 212.362,322.968 207,327.5C 204.897,329.591 203.731,332.091 203.5,335C 207.814,349.795 213.648,363.962 221,377.5C 223.349,381.27 226.515,382.603 230.5,381.5C 232.099,381.232 233.432,381.566 234.5,382.5C 230.676,389.374 230.676,396.374 234.5,403.5C 233.711,403.783 233.044,404.283 232.5,405C 234.074,406.826 234.907,408.993 235,411.5C 235.654,410.304 236.154,410.304 236.5,411.5C 236.137,412.183 235.804,412.85 235.5,413.5C 233.806,412.314 232.139,412.481 230.5,414C 225.315,421.885 219.315,429.052 212.5,435.5C 210.847,435.34 209.514,434.674 208.5,433.5C 209.82,430.86 211.153,428.193 212.5,425.5C 211.533,423.21 210.2,421.21 208.5,419.5C 209.251,418.427 210.251,418.26 211.5,419C 211.167,419.333 210.833,419.667 210.5,420C 211.878,421.334 213.211,421.501 214.5,420.5C 215.738,421.412 217.072,421.579 218.5,421C 222.689,416.312 226.689,411.479 230.5,406.5C 218.621,379.744 205.955,353.41 192.5,327.5C 192.328,326.508 192.662,325.842 193.5,325.5C 194.786,328.117 196.453,330.45 198.5,332.5C 203.45,328.724 207.45,324.224 210.5,319C 208.232,305.599 207.065,292.099 207,278.5C 204.95,267.633 202.283,256.966 199,246.5C 198.333,245.167 197.667,245.167 197,246.5C 191.263,255.307 186.597,264.64 183,274.5C 183.994,286.463 184.327,298.463 184,310.5C 178.567,312.643 173.233,314.976 168,317.5C 165.277,316.792 164.277,315.125 165,312.5C 168.035,309.13 171.368,306.13 175,303.5C 175.667,300.833 175.667,298.167 175,295.5C 172.437,286.657 171.104,277.657 171,268.5C 178.174,252.147 183.008,235.147 185.5,217.5C 185.833,212.856 184.499,208.856 181.5,205.5C 177.008,209.823 172.341,213.99 167.5,218C 163.454,218.324 160.621,216.491 159,212.5C 158.851,206.046 158.018,199.713 156.5,193.5C 153.14,193.384 149.807,193.051 146.5,192.5C 146.5,190.833 146.5,189.167 146.5,187.5C 151.633,187.511 156.133,185.845 160,182.5C 163.296,184.304 166.796,184.804 170.5,184C 173.5,181 176.5,178 179.5,175C 183.167,174.667 186.833,174.333 190.5,174C 191.059,173.275 191.392,172.442 191.5,171.5C 189.397,166.464 187.73,161.297 186.5,156C 188.73,143.219 195.396,140.219 206.5,147C 210.662,154.022 210.495,160.855 206,167.5C 205.505,169.473 205.338,171.473 205.5,173.5C 208.874,173.674 212.207,174.174 215.5,175C 217.833,176 219.5,177.667 220.5,180C 225.196,179.516 228.863,181.183 231.5,185C 234.167,185.333 236.833,185.667 239.5,186C 239.983,190.402 239.983,194.902 239.5,199.5C 242.167,199.5 244.833,199.5 247.5,199.5C 248.495,188.012 248.828,176.345 248.5,164.5C 250.833,164.5 253.167,164.5 255.5,164.5C 256.222,175.819 256.555,187.152 256.5,198.5C 260.273,199.178 263.106,197.844 265,194.5C 267.945,199.955 269.445,205.622 269.5,211.5C 268.998,212.521 268.332,212.688 267.5,212C 266.453,209.021 265.119,206.188 263.5,203.5C 261.5,204.833 259.5,206.167 257.5,207.5C 256.5,226.155 256.167,244.821 256.5,263.5C 277.161,262.893 297.828,262.56 318.5,262.5C 318.743,242.815 318.41,223.149 317.5,203.5C 312.069,204.906 309.735,202.906 310.5,197.5C 313.167,197.5 315.833,197.5 318.5,197.5C 318.5,185.833 318.5,174.167 318.5,162.5C 321.167,162.5 323.833,162.5 326.5,162.5C 326.833,174.5 327.167,186.5 327.5,198.5C 332.537,198.413 337.537,198.746 342.5,199.5C 341.724,206.137 341.391,212.804 341.5,219.5C 345.5,219.5 349.5,219.5 353.5,219.5C 352.181,213.044 351.181,206.544 350.5,200C 351.091,189.481 354.758,180.147 361.5,172C 365.7,170.633 370.033,170.133 374.5,170.5C 374.662,168.473 374.495,166.473 374,164.5C 368.509,157.576 367.175,149.909 370,141.5C 375.025,135.645 380.692,134.979 387,139.5C 391.794,147.283 391.46,154.949 386,162.5C 385.505,164.473 385.338,166.473 385.5,168.5C 392.162,168.22 397.995,170.22 403,174.5C 409.521,184.875 415.521,195.542 421,206.5C 423.056,210.268 424.222,214.268 424.5,218.5C 428.5,218.5 432.5,218.5 436.5,218.5C 436.5,220.167 436.5,221.833 436.5,223.5C 433.102,223.18 429.768,223.513 426.5,224.5C 423.521,229.583 420.188,229.75 416.5,225C 409.842,224.5 403.175,224.334 396.5,224.5C 396.272,229.675 397.105,234.675 399,239.5C 398.866,261.503 401.366,283.169 406.5,304.5 Z"/></g>
<g><path style="opacity:1" fill="#4654d3" d="M 382.5,248.5 C 383.117,248.611 383.617,248.944 384,249.5C 387.415,267.332 390.915,285.165 394.5,303C 386.722,308.44 379.222,314.274 372,320.5C 370.018,320.01 368.351,319.01 367,317.5C 366.333,312.167 366.333,306.833 367,301.5C 372.278,283.837 377.444,266.17 382.5,248.5 Z"/></g>
<g><path style="opacity:1" fill="#4754d3" d="M 247.5,207.5 C 247.5,225.833 247.5,244.167 247.5,262.5C 241.642,262.178 235.975,262.511 230.5,263.5C 230.5,268.167 230.5,272.833 230.5,277.5C 249.5,277.5 268.5,277.5 287.5,277.5C 307.5,277.5 327.5,277.5 347.5,277.5C 347.821,272.305 347.487,267.305 346.5,262.5C 340.833,262.5 335.167,262.5 329.5,262.5C 328.505,249.677 328.171,236.677 328.5,223.5C 328.5,217.833 328.5,212.167 328.5,206.5C 331.5,206.5 334.5,206.5 337.5,206.5C 337.177,213.022 337.51,219.355 338.5,225.5C 343.844,225.334 349.177,225.501 354.5,226C 355.529,227.698 357.029,228.532 359,228.5C 361.936,227.607 364.769,226.607 367.5,225.5C 362.984,252.51 359.317,279.51 356.5,306.5C 353.751,306.726 351.084,306.393 348.5,305.5C 340.476,312.024 332.31,318.358 324,324.5C 321.984,322.316 319.817,320.316 317.5,318.5C 302.828,322.996 289.161,329.496 276.5,338C 271.303,338.867 266.303,338.2 261.5,336C 252.167,325.333 242.167,315.333 231.5,306C 230.5,305.333 229.5,305.333 228.5,306C 226.023,307.643 223.69,309.476 221.5,311.5C 220.828,310.051 220.161,308.718 219.5,307.5C 218.201,293.342 218.201,279.175 219.5,265C 218.774,255.372 217.274,245.872 215,236.5C 214.333,230.5 214.333,224.5 215,218.5C 215.689,217.643 216.522,216.977 217.5,216.5C 219.881,218.396 222.381,218.729 225,217.5C 226.825,210.237 228.325,202.903 229.5,195.5C 231.167,195.5 232.833,195.5 234.5,195.5C 234.448,199.198 234.114,202.865 233.5,206.5C 238.363,206.181 243.03,206.514 247.5,207.5 Z"/></g>
<g><path style="opacity:1" fill="#dee1f6" d="M 265.5,283.5 C 291.833,283.5 318.167,283.5 344.5,283.5C 344.666,290.508 344.5,297.508 344,304.5C 339.22,310.554 333.22,314.887 326,317.5C 323.942,316.888 322.109,315.888 320.5,314.5C 304.322,321.559 287.988,328.226 271.5,334.5C 267.108,332.284 263.108,329.451 259.5,326C 251.667,318.167 243.833,310.333 236,302.5C 235.51,301.207 235.343,299.873 235.5,298.5C 236.486,294.03 236.819,289.363 236.5,284.5C 246.348,284.827 256.014,284.494 265.5,283.5 Z"/></g>
<g><path style="opacity:1" fill="#a1aae7" d="M 265.5,283.5 C 256.014,284.494 246.348,284.827 236.5,284.5C 236.819,289.363 236.486,294.03 235.5,298.5C 235.5,293.5 235.5,288.5 235.5,283.5C 245.5,283.5 255.5,283.5 265.5,283.5 Z"/></g>
<g><path style="opacity:1" fill="#6b75d5" d="M 346.5,262.5 C 347.487,267.305 347.821,272.305 347.5,277.5C 327.5,277.5 307.5,277.5 287.5,277.5C 306.993,276.503 326.66,276.17 346.5,276.5C 346.5,271.833 346.5,267.167 346.5,262.5 Z"/></g>
<g><path style="opacity:1" fill="#888fde" d="M 247.5,207.5 C 248.497,225.993 248.83,244.659 248.5,263.5C 242.5,263.5 236.5,263.5 230.5,263.5C 235.975,262.511 241.642,262.178 247.5,262.5C 247.5,244.167 247.5,225.833 247.5,207.5 Z"/></g>
<g><path style="opacity:1" fill="#b9beec" d="M 327.5,223.5 C 327.833,223.5 328.167,223.5 328.5,223.5C 328.171,236.677 328.505,249.677 329.5,262.5C 329.44,263.043 329.107,263.376 328.5,263.5C 327.501,250.183 327.167,236.85 327.5,223.5 Z"/></g>
<g><path style="opacity:1" fill="#dde0f5" d="M 295.5,242.5 C 295.833,242.5 296.167,242.5 296.5,242.5C 300.298,243.483 304.298,243.817 308.5,243.5C 306.788,247.927 304.788,252.26 302.5,256.5C 293.5,257.833 284.5,257.833 275.5,256.5C 273.5,252.5 271.5,248.5 269.5,244.5C 270.325,243.614 271.325,243.281 272.5,243.5C 273.167,243.5 273.833,243.5 274.5,243.5C 281.687,243.825 288.687,243.491 295.5,242.5 Z"/></g>
<g><path style="opacity:1" fill="#7d86d6" d="M 303.5,239.5 C 304.955,241.134 306.622,242.468 308.5,243.5C 304.298,243.817 300.298,243.483 296.5,242.5C 299.187,242.664 301.854,242.497 304.5,242C 303.748,241.329 303.414,240.496 303.5,239.5 Z"/></g>
<g><path style="opacity:1" fill="#7684d9" d="M 280.5,228.5 C 278.783,233.602 276.783,238.602 274.5,243.5C 273.833,243.5 273.167,243.5 272.5,243.5C 274.928,238.307 277.595,233.307 280.5,228.5 Z"/></g>
<g><path style="opacity:1" fill="#7a88d8" d="M 299.5,232.5 C 301.588,234.336 302.921,236.669 303.5,239.5C 301.412,237.664 300.079,235.331 299.5,232.5 Z"/></g>
<g><path style="opacity:1" fill="#424fcf" d="M 299.5,232.5 C 300.079,235.331 301.412,237.664 303.5,239.5C 303.414,240.496 303.748,241.329 304.5,242C 301.854,242.497 299.187,242.664 296.5,242.5C 294.811,235.265 292.811,228.098 290.5,221C 290.667,220.5 290.833,220 291,219.5C 293.36,224.24 296.193,228.574 299.5,232.5 Z"/></g>
<g><path style="opacity:1" fill="#707bd3" d="M 299.5,232.5 C 296.193,228.574 293.36,224.24 291,219.5C 290.833,220 290.667,220.5 290.5,221C 292.811,228.098 294.811,235.265 296.5,242.5C 296.167,242.5 295.833,242.5 295.5,242.5C 292.949,233.271 289.949,224.271 286.5,215.5C 286.354,213.058 287.187,212.391 289,213.5C 292.757,219.74 296.257,226.074 299.5,232.5 Z"/></g>
<g><path style="opacity:1" fill="#4553d2" d="M 286.5,215.5 C 289.949,224.271 292.949,233.271 295.5,242.5C 288.687,243.491 281.687,243.825 274.5,243.5C 276.783,238.602 278.783,233.602 280.5,228.5C 283.29,224.584 285.29,220.251 286.5,215.5 Z"/></g>
<g><path style="opacity:1" fill="#707ed2" d="M 286.5,215.5 C 285.29,220.251 283.29,224.584 280.5,228.5C 281.71,223.749 283.71,219.416 286.5,215.5 Z"/></g>
<g><path style="opacity:1" fill="#757dca" d="M 338.5,225.5 C 337.51,219.355 337.177,213.022 337.5,206.5C 334.5,206.5 331.5,206.5 328.5,206.5C 328.5,212.167 328.5,217.833 328.5,223.5C 328.167,223.5 327.833,223.5 327.5,223.5C 327.5,217.5 327.5,211.5 327.5,205.5C 331.167,205.5 334.833,205.5 338.5,205.5C 338.5,212.167 338.5,218.833 338.5,225.5 Z"/></g>
<g><path style="opacity:1" fill="#4b56d2" d="M 362.5,186.5 C 363.496,186.414 364.329,186.748 365,187.5C 366.562,197.439 366.895,207.439 366,217.5C 363.415,218.885 361.415,218.218 360,215.5C 355.389,205.379 356.223,195.712 362.5,186.5 Z"/></g>
<g><path style="opacity:1" fill="#cbcff1" d="M 285.5,192.5 C 286.496,192.414 287.329,192.748 288,193.5C 289.947,198.92 291.113,204.253 291.5,209.5C 288.432,204.236 286.432,198.569 285.5,192.5 Z"/></g>
<g><path style="opacity:1" fill="#d2d7f2" d="M 278.5,192.5 C 279.496,192.414 280.329,192.748 281,193.5C 282.538,198.615 284.372,203.615 286.5,208.5C 285.675,209.386 284.675,209.719 283.5,209.5C 281.224,204.007 279.558,198.341 278.5,192.5 Z"/></g>
<g><path style="opacity:1" fill="#4654d3" d="M 395.5,187.5 C 398.888,188.619 401.721,190.619 404,193.5C 407.966,199.786 411.466,206.286 414.5,213C 414.507,214.812 413.84,216.312 412.5,217.5C 406.197,218.239 399.864,218.239 393.5,217.5C 393.334,208.494 393.5,199.494 394,190.5C 394.513,189.473 395.013,188.473 395.5,187.5 Z"/></g>
<g><path style="opacity:1" fill="#d1d6f3" d="M 299.5,191.5 C 300.822,191.33 301.989,191.663 303,192.5C 304.815,196.99 306.648,201.49 308.5,206C 308.387,207.28 307.72,208.113 306.5,208.5C 303.889,202.946 301.556,197.279 299.5,191.5 Z"/></g>
<g><path style="opacity:1" fill="#444fcc" d="M 163.5,193.5 C 171.463,192.109 172.63,194.443 167,200.5C 164.245,198.99 163.079,196.657 163.5,193.5 Z"/></g>
<g><path style="opacity:1" fill="#cbd1f0" d="M 292.5,192.5 C 293.675,192.281 294.675,192.614 295.5,193.5C 297.448,197.84 299.115,202.34 300.5,207C 300.37,208.059 299.87,208.892 299,209.5C 295.712,204.258 293.545,198.591 292.5,192.5 Z"/></g>
<g><path style="opacity:1" fill="#d8ddf4" d="M 270.5,192.5 C 271.75,192.577 272.583,193.244 273,194.5C 274.75,199.247 276.25,204.08 277.5,209C 277.387,210.28 276.72,211.113 275.5,211.5C 273.355,205.941 271.355,200.274 269.5,194.5C 269.863,193.817 270.196,193.15 270.5,192.5 Z"/></g>
<g><path style="opacity:1" fill="#7f86d8" d="M 255.5,164.5 C 253.167,164.5 250.833,164.5 248.5,164.5C 248.828,176.345 248.495,188.012 247.5,199.5C 247.5,187.5 247.5,175.5 247.5,163.5C 250.385,163.194 253.052,163.527 255.5,164.5 Z"/></g>
<g><path style="opacity:1" fill="#d9ddf5" d="M 461.5,122.5 C 463.716,123.203 465.549,124.536 467,126.5C 469.36,129.36 471.527,132.36 473.5,135.5C 472.167,136.5 470.833,137.5 469.5,138.5C 468.084,136.861 466.417,136.027 464.5,136C 457,142.167 449.5,148.333 442,154.5C 441.837,156.387 442.671,157.887 444.5,159C 443.183,160.659 441.517,161.826 439.5,162.5C 435.603,158.771 432.269,154.604 429.5,150C 430.613,148.606 431.947,147.439 433.5,146.5C 434.916,148.139 436.583,148.973 438.5,149C 445.946,143.188 453.113,137.022 460,130.5C 460.624,128.536 460.124,126.869 458.5,125.5C 459.77,124.712 460.77,123.712 461.5,122.5 Z"/></g>
<g><path style="opacity:1" fill="#dadef5" d="M 138.5,127.5 C 138.56,128.043 138.893,128.376 139.5,128.5C 140.833,122.167 140.833,115.833 139.5,109.5C 138.893,109.624 138.56,109.957 138.5,110.5C 138.103,111.525 137.437,111.692 136.5,111C 134.671,109.887 133.837,108.387 134,106.5C 137.379,102.784 141.046,99.4511 145,96.5C 146.221,97.2718 147.221,98.2718 148,99.5C 148.601,100.965 148.101,101.965 146.5,102.5C 145.503,109.468 145.17,116.468 145.5,123.5C 153.489,124.466 161.489,124.966 169.5,125C 171.845,122.015 173.845,122.515 175.5,126.5C 171.833,130.833 167.833,134.833 163.5,138.5C 159.683,136.963 159.017,134.796 161.5,132C 154.805,131.033 148.138,130.367 141.5,130C 144.605,133.527 147.939,136.86 151.5,140C 153.107,140.115 154.607,139.615 156,138.5C 158.723,139.208 159.723,140.875 159,143.5C 155.833,146.667 152.667,149.833 149.5,153C 144.167,152 143.5,149.667 147.5,146C 139.903,138.572 132.57,131.072 125.5,123.5C 124.167,124.5 122.833,125.5 121.5,126.5C 120.5,125.167 119.5,123.833 118.5,122.5C 122.167,118.5 125.833,114.5 129.5,110.5C 131.167,111.5 132.5,112.833 133.5,114.5C 131.861,115.916 131.027,117.583 131,119.5C 133.705,122.036 136.205,124.703 138.5,127.5 Z"/></g>
<g><path style="opacity:1" fill="#7983cc" d="M 138.5,110.5 C 138.56,109.957 138.893,109.624 139.5,109.5C 140.833,115.833 140.833,122.167 139.5,128.5C 138.893,128.376 138.56,128.043 138.5,127.5C 139.833,121.833 139.833,116.167 138.5,110.5 Z"/></g>
<g><path style="opacity:1" fill="#d9ddf4" d="M 420.5,85.5 C 430.106,92.7703 439.106,100.77 447.5,109.5C 444.904,113.019 442.071,116.352 439,119.5C 437.437,118.275 436.27,116.775 435.5,115C 437.246,113.311 438.413,111.478 439,109.5C 435.242,105.069 430.908,101.402 426,98.5C 423.339,100.995 420.839,103.661 418.5,106.5C 421.818,110.318 425.318,113.985 429,117.5C 429.333,119.047 428.833,120.38 427.5,121.5C 426.998,122.521 426.332,122.688 425.5,122C 421.944,117.941 417.944,114.441 413.5,111.5C 411.183,114.317 408.683,116.984 406,119.5C 405.333,120.5 405.333,121.5 406,122.5C 410.3,125.798 414.3,129.465 418,133.5C 420,131.5 422,129.5 424,127.5C 425.983,128.766 426.983,130.432 427,132.5C 423.956,135.375 421.123,138.375 418.5,141.5C 409.507,133.84 400.84,125.84 392.5,117.5C 394.492,112.644 396.992,112.311 400,116.5C 406.676,109.125 413.343,101.792 420,94.5C 420.779,92.0937 419.946,90.427 417.5,89.5C 418.524,88.1482 419.524,86.8149 420.5,85.5 Z"/></g>
<g><path style="opacity:1" fill="#d9ddf4" d="M 357.5,54.5 C 357.168,65.1874 357.501,75.8541 358.5,86.5C 359.107,86.3764 359.44,86.0431 359.5,85.5C 366.169,78.6874 372.502,71.5208 378.5,64C 383.629,64.4279 388.629,65.5945 393.5,67.5C 393.807,72.9611 391.474,74.6277 386.5,72.5C 383.167,82.5 379.833,92.5 376.5,102.5C 381.12,103.367 381.786,105.701 378.5,109.5C 372.943,107.816 367.61,105.65 362.5,103C 363.555,98.9536 366.221,97.4536 370.5,98.5C 373.279,89.6667 376.112,81.0001 379,72.5C 370.833,81.3333 362.667,90.1667 354.5,99C 353.552,99.4828 352.552,99.6495 351.5,99.5C 351.667,86.4957 351.5,73.4957 351,60.5C 347.377,69.5866 343.877,78.7532 340.5,88C 345.389,89.169 346.722,92.0023 344.5,96.5C 338.339,95.1198 332.672,92.7864 327.5,89.5C 328.6,85.6409 330.934,84.6409 334.5,86.5C 338.072,76.6168 341.738,66.7835 345.5,57C 340.982,55.1432 340.482,52.6432 344,49.5C 348.607,50.9409 353.107,52.6076 357.5,54.5 Z"/></g>
<g><path style="opacity:1" fill="#d9ddf4" d="M 189.5,65.5 C 191.624,66.0312 193.124,67.3645 194,69.5C 196.019,73.1908 197.686,76.8575 199,80.5C 197.663,81.7649 196.163,82.2649 194.5,82C 193.051,78.727 191.051,75.8937 188.5,73.5C 186.228,74.4411 184.228,75.7745 182.5,77.5C 188.002,86.3063 193.002,95.3063 197.5,104.5C 199.484,104.617 201.15,103.95 202.5,102.5C 204.946,103.427 205.779,105.094 205,107.5C 200.904,110.862 196.57,113.862 192,116.5C 188.563,113.308 188.729,110.308 192.5,107.5C 187.723,100.01 183.223,92.3435 179,84.5C 176.451,80.7446 173.784,80.7446 171,84.5C 171.631,88.1057 173.131,91.439 175.5,94.5C 174.086,95.624 172.586,96.624 171,97.5C 167.958,92.5812 164.791,87.7478 161.5,83C 171.066,77.392 180.399,71.5587 189.5,65.5 Z"/></g>
<g><path style="opacity:1" fill="#daddf4" d="M 248.5,46.5 C 249.5,46.5 250.5,46.5 251.5,46.5C 251.232,48.099 251.566,49.4324 252.5,50.5C 253.038,53.1889 253.705,55.8556 254.5,58.5C 254.291,59.086 253.957,59.586 253.5,60C 251.421,60.8077 249.421,60.641 247.5,59.5C 239.16,52.4051 231.327,53.0718 224,61.5C 220.988,70.287 222.488,78.1203 228.5,85C 237.293,89.4123 244.793,87.9123 251,80.5C 251.495,78.5273 251.662,76.5273 251.5,74.5C 248.873,75.0916 246.206,75.4249 243.5,75.5C 243.5,73.5 243.5,71.5 243.5,69.5C 247.382,69.1514 251.215,68.4847 255,67.5C 258.65,67.777 260.15,69.777 259.5,73.5C 258.525,83.6352 253.192,90.1352 243.5,93C 227.967,96.0741 218.634,89.9075 215.5,74.5C 216.579,70.8654 216.579,67.1987 215.5,63.5C 221.418,49.8766 231.418,45.5433 245.5,50.5C 246.057,48.6684 247.057,47.3351 248.5,46.5 Z"/></g>
<g><path style="opacity:1" fill="#a3abea" d="M 215.5,63.5 C 216.579,67.1987 216.579,70.8654 215.5,74.5C 214.167,70.8333 214.167,67.1667 215.5,63.5 Z"/></g>
<g><path style="opacity:1" fill="#8086db" d="M 357.5,54.5 C 358.167,64.8333 358.833,75.1667 359.5,85.5C 359.44,86.0431 359.107,86.3764 358.5,86.5C 357.501,75.8541 357.168,65.1874 357.5,54.5 Z"/></g>
<g><path style="opacity:1" fill="#7f8ada" d="M 308.5,48.5 C 309.468,50.6074 309.802,52.9407 309.5,55.5C 311.167,55.5 312.833,55.5 314.5,55.5C 312.735,56.4614 310.735,56.7947 308.5,56.5C 308.5,53.8333 308.5,51.1667 308.5,48.5 Z"/></g>
<g><path style="opacity:1" fill="#979ee0" d="M 248.5,46.5 C 249.568,45.5655 250.901,45.2322 252.5,45.5C 252.5,47.1667 252.5,48.8333 252.5,50.5C 251.566,49.4324 251.232,48.099 251.5,46.5C 250.5,46.5 249.5,46.5 248.5,46.5 Z"/></g>
<g><path style="opacity:1" fill="#d8dbf3" d="M 314.5,55.5 C 312.833,55.5 311.167,55.5 309.5,55.5C 309.802,52.9407 309.468,50.6074 308.5,48.5C 302.5,48.5 296.5,48.5 290.5,48.5C 290.5,52.5 290.5,56.5 290.5,60.5C 296.167,60.5 301.833,60.5 307.5,60.5C 307.5,62.5 307.5,64.5 307.5,66.5C 301.833,66.5 296.167,66.5 290.5,66.5C 290.5,71.1667 290.5,75.8333 290.5,80.5C 296.5,80.5 302.5,80.5 308.5,80.5C 308.5,77.8333 308.5,75.1667 308.5,72.5C 310.5,72.5 312.5,72.5 314.5,72.5C 314.5,77.1667 314.5,81.8333 314.5,86.5C 302.5,86.5 290.5,86.5 278.5,86.5C 278.5,84.5 278.5,82.5 278.5,80.5C 280.167,80.5 281.833,80.5 283.5,80.5C 283.5,69.8333 283.5,59.1667 283.5,48.5C 281.833,48.5 280.167,48.5 278.5,48.5C 278.5,46.5 278.5,44.5 278.5,42.5C 290.5,42.5 302.5,42.5 314.5,42.5C 314.5,46.8333 314.5,51.1667 314.5,55.5 Z"/></g>
<g><path style="opacity:1" fill="#d9ddf5" d="M 405.5,568.5 C 408.635,571.808 411.635,575.308 414.5,579C 412.91,580.046 411.41,581.213 410,582.5C 408.333,580.5 406.667,578.5 405,576.5C 400.438,580.405 395.938,584.239 391.5,588C 393.919,591.045 396.252,594.211 398.5,597.5C 402.309,594.858 405.976,592.025 409.5,589C 413.229,588.556 414.563,590.056 413.5,593.5C 410.167,596.167 406.833,598.833 403.5,601.5C 402.417,602.365 402.251,603.365 403,604.5C 405.285,606.907 407.451,609.407 409.5,612C 410.908,612.315 412.241,611.982 413.5,611C 417,608.167 420.5,605.333 424,602.5C 424.667,601.833 424.667,601.167 424,600.5C 422.315,598.983 420.815,597.316 419.5,595.5C 420.874,594.289 422.374,593.289 424,592.5C 427.062,595.615 429.896,598.949 432.5,602.5C 423.994,610.668 414.827,618.002 405,624.5C 400.532,622.395 400.365,619.895 404.5,617C 398.356,608.526 391.856,600.359 385,592.5C 381.839,595.392 379.672,594.725 378.5,590.5C 387.519,583.143 396.519,575.81 405.5,568.5 Z"/></g>
<g><path style="opacity:1" fill="#dbdef5" d="M 205.5,611.5 C 202.833,611.5 200.167,611.5 197.5,611.5C 197.5,612.833 197.5,614.167 197.5,615.5C 195.487,621.32 196.154,626.654 199.5,631.5C 199.014,633.497 197.847,634.831 196,635.5C 191.91,634.564 189.743,632.064 189.5,628C 190.126,622.495 190.792,616.995 191.5,611.5C 191.45,609.077 190.45,607.244 188.5,606C 187.551,605.383 186.718,605.549 186,606.5C 183.833,610.167 181.667,613.833 179.5,617.5C 183.251,619.823 183.418,622.489 180,625.5C 175.032,622.938 170.532,619.772 166.5,616C 167.454,611.188 169.787,610.354 173.5,613.5C 179.228,605.203 184.561,596.703 189.5,588C 188.711,586.374 187.711,584.874 186.5,583.5C 187.04,582.252 187.707,581.085 188.5,580C 193.48,582.328 198.48,584.995 203.5,588C 212.681,592.659 214.848,599.492 210,608.5C 208.729,609.883 207.229,610.883 205.5,611.5 Z"/></g>
<g><path style="opacity:1" fill="#4553d2" d="M 195.5,591.5 C 199.23,592.056 202.397,593.722 205,596.5C 206.694,603.343 204.194,606.176 197.5,605C 195.254,603.961 193.087,602.794 191,601.5C 191.273,597.693 192.773,594.36 195.5,591.5 Z"/></g>
<g><path style="opacity:1" fill="#818bdf" d="M 205.5,611.5 C 203.393,612.468 201.059,612.802 198.5,612.5C 198.737,613.791 198.404,614.791 197.5,615.5C 197.5,614.167 197.5,612.833 197.5,611.5C 200.167,611.5 202.833,611.5 205.5,611.5 Z"/></g>
<g><path style="opacity:1" fill="#daddf5" d="M 232.5,603.5 C 237.227,604.181 241.893,605.181 246.5,606.5C 250.246,618.236 254.079,629.903 258,641.5C 260.144,632.902 261.977,624.235 263.5,615.5C 261.712,615.785 260.045,615.452 258.5,614.5C 259.309,612.929 259.643,611.262 259.5,609.5C 265.229,610.177 270.895,611.177 276.5,612.5C 276.5,614.5 276.5,616.5 276.5,618.5C 274.409,618.682 272.409,618.348 270.5,617.5C 266.97,629.663 263.97,641.996 261.5,654.5C 257.456,654.733 254.623,653.066 253,649.5C 249.735,637.705 246.068,626.038 242,614.5C 239.197,623.651 237.364,632.985 236.5,642.5C 240.438,642.843 241.438,644.843 239.5,648.5C 238.667,648.833 237.833,649.167 237,649.5C 232.562,648.179 228.062,647.179 223.5,646.5C 223.5,644.5 223.5,642.5 223.5,640.5C 225.262,640.357 226.929,640.691 228.5,641.5C 229.192,640.975 229.692,640.308 230,639.5C 232.104,629.479 234.271,619.479 236.5,609.5C 231.719,609.833 230.386,607.833 232.5,603.5 Z"/></g>
<g><path style="opacity:1" fill="#d9ddf4" d="M 366.5,596.5 C 367.496,596.414 368.329,596.748 369,597.5C 371.024,602.732 372.524,608.065 373.5,613.5C 372.07,613.421 370.736,613.754 369.5,614.5C 367.454,611.367 365.788,608.034 364.5,604.5C 362.885,605.154 361.218,605.654 359.5,606C 358.941,606.725 358.608,607.558 358.5,608.5C 361.438,617.649 364.772,626.649 368.5,635.5C 370.326,635.92 372.326,635.92 374.5,635.5C 374.833,637.5 375.167,639.5 375.5,641.5C 370.427,642.866 365.427,644.532 360.5,646.5C 356.131,642.695 356.797,640.028 362.5,638.5C 358.647,628.732 354.647,619.066 350.5,609.5C 347.944,610.051 345.611,611.051 343.5,612.5C 345.884,615.947 346.55,619.613 345.5,623.5C 344.264,624.246 342.93,624.579 341.5,624.5C 339.669,619.185 338.169,613.851 337,608.5C 346.85,604.317 356.684,600.317 366.5,596.5 Z"/></g>
<g><path style="opacity:1" fill="#d8dbf4" d="M 301.5,610.5 C 305.79,609.987 309.623,610.987 313,613.5C 314.754,611.75 316.921,611.083 319.5,611.5C 319.5,615.833 319.5,620.167 319.5,624.5C 317.5,624.5 315.5,624.5 313.5,624.5C 313.556,619.223 310.89,616.556 305.5,616.5C 299.848,616.963 298.015,619.963 300,625.5C 304.949,628.054 310.115,630.221 315.5,632C 322.366,638.094 323.199,644.928 318,652.5C 311.891,657.306 305.557,657.639 299,653.5C 297.246,655.25 295.079,655.917 292.5,655.5C 292.5,650.167 292.5,644.833 292.5,639.5C 294.5,639.5 296.5,639.5 298.5,639.5C 299.111,648.484 303.778,651.484 312.5,648.5C 315.109,644.975 315.109,641.475 312.5,638C 307.397,636.283 302.397,634.283 297.5,632C 292.319,627.433 291.153,621.933 294,615.5C 295.913,612.72 298.413,611.053 301.5,610.5 Z"/></g>
<g><path style="opacity:1" fill="#404066" d="M 247.5,684.5 C 252.727,684.978 257.727,685.978 262.5,687.5C 261.448,687.351 260.448,687.517 259.5,688C 261.382,688.198 263.048,688.698 264.5,689.5C 258.291,688.987 252.291,687.987 246.5,686.5C 247.873,686.657 249.207,686.49 250.5,686C 249.263,685.768 248.263,685.268 247.5,684.5 Z"/></g>
</svg>
