<?xml version="1.0" encoding="UTF-8"?>
<!DOCTYPE svg PUBLIC "-//W3C//DTD SVG 1.1//EN" "http://www.w3.org/Graphics/SVG/1.1/DTD/svg11.dtd">
<svg xmlns="http://www.w3.org/2000/svg" version="1.1" width="130px" height="127px" style="shape-rendering:geometricPrecision; text-rendering:geometricPrecision; image-rendering:optimizeQuality; fill-rule:evenodd; clip-rule:evenodd" xmlns:xlink="http://www.w3.org/1999/xlink">
<g><path style="opacity:1" fill="#b4b7b4" d="M 0.5,0.5 C 0.5,0.166667 0.5,-0.166667 0.5,-0.5C 43.5,-0.5 86.5,-0.5 129.5,-0.5C 129.5,20.8333 129.5,42.1667 129.5,63.5C 129.167,63.5 128.833,63.5 128.5,63.5C 128.5,42.5 128.5,21.5 128.5,0.5C 85.8333,0.5 43.1667,0.5 0.5,0.5 Z"/></g>
<g><path style="opacity:1" fill="#fbfbfb" d="M 128.5,63.5 C 128.833,63.5 129.167,63.5 129.5,63.5C 129.5,84.5 129.5,105.5 129.5,126.5C 102.167,126.5 74.8333,126.5 47.5,126.5C 46.1938,125.533 45.5271,124.199 45.5,122.5C 60.7483,126.843 75.7483,126.01 90.5,120C 95.2793,117.697 99.6127,114.864 103.5,111.5C 119.703,99.7651 128.037,83.7651 128.5,63.5 Z"/></g>
<g><path style="opacity:1" fill="#131519" d="M 0.5,0.5 C 43.1667,0.5 85.8333,0.5 128.5,0.5C 128.5,21.5 128.5,42.5 128.5,63.5C 128.037,83.7651 119.703,99.7651 103.5,111.5C 99.6127,114.864 95.2793,117.697 90.5,120C 75.7483,126.01 60.7483,126.843 45.5,122.5C 21.7447,113.904 6.91137,97.2378 1,72.5C 0.500032,48.5023 0.333365,24.5023 0.5,0.5 Z"/></g>
<g><path style="opacity:1" fill="#0a4784" d="M 106.5,71.5 C 105.993,72.8589 104.993,73.8589 103.5,74.5C 104.167,74.8333 104.833,75.1667 105.5,75.5C 109.463,73.3193 113.63,72.9859 118,74.5C 118.337,72.9269 119.171,71.5935 120.5,70.5C 120.257,73.8826 120.924,77.0492 122.5,80C 121.692,80.3076 121.025,80.8076 120.5,81.5C 121.164,84.1803 121.164,86.0136 120.5,87C 119.004,87.5074 117.837,87.0074 117,85.5C 117.618,89.5259 116.285,90.1926 113,87.5C 112.667,87.8333 112.333,88.1667 112,88.5C 111.717,85.2577 110.883,84.9244 109.5,87.5C 108.167,84.8333 106.833,84.8333 105.5,87.5C 103.995,84.8694 103.329,85.2027 103.5,88.5C 105.288,88.2148 106.955,88.5481 108.5,89.5C 106.516,90.7059 104.516,90.7059 102.5,89.5C 102.167,89.8333 101.833,90.1667 101.5,90.5C 103.167,91.1667 104.833,91.8333 106.5,92.5C 104.051,93.9097 101.884,93.5763 100,91.5C 99.7489,89.567 99.2489,87.7337 98.5,86C 97.365,85.2506 96.365,85.4173 95.5,86.5C 96.0253,87.1924 96.6919,87.6924 97.5,88C 96.2341,88.3095 95.0674,88.8095 94,89.5C 92.5388,84.3855 90.3721,83.7189 87.5,87.5C 84.1583,86.0027 81.325,86.6694 79,89.5C 78.4604,87.8654 78.9604,86.5321 80.5,85.5C 82.216,85.0028 83.8827,84.6694 85.5,84.5C 84.0508,83.8281 82.7175,83.1614 81.5,82.5C 84.3355,81.4818 87.0021,79.9818 89.5,78C 92.874,69.82 98.5406,67.6533 106.5,71.5 Z"/></g>
<g><path style="opacity:1" fill="#bc9c3b" d="M 48.5,70.5 C 52.1788,70.7244 55.8455,71.0578 59.5,71.5C 60.1587,74.4552 60.4921,77.4552 60.5,80.5C 59.5041,80.4142 58.6708,80.7476 58,81.5C 57.5,80.3333 56.6667,79.5 55.5,79C 55.8333,78.6667 56.1667,78.3333 56.5,78C 55.5838,77.6258 54.7504,77.1258 54,76.5C 52.9025,77.9675 51.4025,78.8008 49.5,79C 48.6959,80.7713 47.5292,82.2713 46,83.5C 45.2935,87.3763 45.4602,91.2097 46.5,95C 44.9863,100.046 44.3196,105.046 44.5,110C 45.2202,112.491 45.8869,114.991 46.5,117.5C 43.5152,116.674 40.8485,115.341 38.5,113.5C 41.4653,112.413 42.7986,110.246 42.5,107C 42.3687,104.747 41.8687,102.581 41,100.5C 39.9887,99.6634 38.8221,99.33 37.5,99.5C 37.5,98.1667 37.5,96.8333 37.5,95.5C 37.9382,95.5654 38.2716,95.3988 38.5,95C 36.1088,94.3086 36.1088,93.3086 38.5,92C 37.6919,91.6924 37.0253,91.1924 36.5,90.5C 37.6161,90.598 38.6161,90.098 39.5,89C 39.3333,88.5 39.1667,88 39,87.5C 38.2825,88.4506 37.4491,88.6172 36.5,88C 35.1667,87.3333 35.1667,86.6667 36.5,86C 35.8333,85.6667 35.1667,85.3333 34.5,85C 35.3802,83.6439 35.7135,82.1439 35.5,80.5C 36.552,80.6495 37.552,80.4828 38.5,80C 36.8288,78.1575 35.8288,75.9908 35.5,73.5C 36.1903,72.1198 36.5236,70.7865 36.5,69.5C 37.4644,72.0833 38.7978,72.5833 40.5,71C 42.1667,70.3333 43.8333,70.3333 45.5,71C 44.376,71.2492 43.376,71.7492 42.5,72.5C 44.2202,73.9197 46.0535,75.253 48,76.5C 48.2254,74.2091 48.3921,72.2091 48.5,70.5 Z"/></g>
<g><path style="opacity:1" fill="#b5933a" d="M 89.5,52.5 C 88.3499,54.9825 88.3499,57.4825 89.5,60C 91.2235,62.876 92.8902,65.0426 94.5,66.5C 93.0109,70.1368 90.6776,73.8035 87.5,77.5C 78.049,79.4494 72.549,85.1161 71,94.5C 70.1859,96.2817 69.0192,97.7817 67.5,99C 67.8333,99.3333 68.1667,99.6667 68.5,100C 67.0692,100.465 65.9025,101.299 65,102.5C 63.6,106.398 62.7666,110.065 62.5,113.5C 62.1252,107.899 61.7919,102.066 61.5,96C 61.5501,92.3969 62.2168,89.0636 63.5,86C 61.5,85.3333 60.1667,84 59.5,82C 60.1667,81.6667 60.8333,81.3333 61.5,81C 61.2716,80.6012 60.9382,80.4346 60.5,80.5C 60.4921,77.4552 60.1587,74.4552 59.5,71.5C 72.0218,70.624 81.0218,64.624 86.5,53.5C 87.609,53.4431 88.609,53.1098 89.5,52.5 Z"/></g>
<g><path style="opacity:1" fill="#6e5d28" d="M 111.5,67.5 C 113.5,67.5 115.5,67.5 117.5,67.5C 117.5,68.5 117.5,69.5 117.5,70.5C 113.183,70.9166 109.183,70.2499 105.5,68.5C 109.146,69.2834 112.812,69.4501 116.5,69C 114.618,68.8019 112.952,68.3019 111.5,67.5 Z"/></g>
<g><path style="opacity:1" fill="#18110b" d="M 103.5,66.5 C 106.127,67.0916 108.794,67.4249 111.5,67.5C 112.952,68.3019 114.618,68.8019 116.5,69C 112.812,69.4501 109.146,69.2834 105.5,68.5C 104.833,67.8333 104.167,67.1667 103.5,66.5 Z"/></g>
<g><path style="opacity:1" fill="#a4963a" d="M 103.5,66.5 C 104.167,67.1667 104.833,67.8333 105.5,68.5C 102.432,68.4533 99.4318,67.9533 96.5,67C 97.7659,66.6905 98.9326,66.1905 100,65.5C 101.011,66.3366 102.178,66.67 103.5,66.5 Z"/></g>
<g><path style="opacity:1" fill="#1a170e" d="M 123.5,58.5 C 126.202,64.7703 124.202,68.7703 117.5,70.5C 117.5,69.5 117.5,68.5 117.5,67.5C 119.252,67.5824 120.252,66.7491 120.5,65C 119.312,63.0559 117.646,61.5559 115.5,60.5C 118.026,59.4901 120.192,60.1568 122,62.5C 123.188,61.4366 123.688,60.1033 123.5,58.5 Z"/></g>
<g><path style="opacity:1" fill="#1b190f" d="M 119.5,52.5 C 122.292,53.3918 123.625,55.3918 123.5,58.5C 122.18,56.5368 120.846,54.5368 119.5,52.5 Z"/></g>
<g><path style="opacity:1" fill="#f8d54f" d="M 35.5,73.5 C 35.8288,75.9908 36.8288,78.1575 38.5,80C 37.552,80.4828 36.552,80.6495 35.5,80.5C 35.7135,82.1439 35.3802,83.6439 34.5,85C 35.1667,85.3333 35.8333,85.6667 36.5,86C 35.1667,86.6667 35.1667,87.3333 36.5,88C 37.4491,88.6172 38.2825,88.4506 39,87.5C 39.1667,88 39.3333,88.5 39.5,89C 38.6161,90.098 37.6161,90.598 36.5,90.5C 37.0253,91.1924 37.6919,91.6924 38.5,92C 36.1088,93.3086 36.1088,94.3086 38.5,95C 38.2716,95.3988 37.9382,95.5654 37.5,95.5C 36.5,95.5 35.5,95.5 34.5,95.5C 34.9454,88.9013 31.9454,86.4013 25.5,88C 24.9103,89.5095 24.2436,91.0095 23.5,92.5C 22.1195,92.0004 21.4528,91.0004 21.5,89.5C 22.5471,87.9436 23.2137,86.2769 23.5,84.5C 21.0968,84.607 19.2635,83.607 18,81.5C 17.6667,81.8333 17.3333,82.1667 17,82.5C 16.7221,86.1939 16.7221,89.8606 17,93.5C 15.6233,91.2462 14.1233,89.0795 12.5,87C 14.0356,85.4006 14.5356,83.5672 14,81.5C 13.6667,82.1667 13.3333,82.8333 13,83.5C 11.6684,82.8384 10.5018,81.6718 9.5,80C 10.7932,79.51 12.1266,79.3433 13.5,79.5C 13.178,77.2776 13.8446,75.4443 15.5,74C 13.1885,70.7174 11.6885,71.2174 11,75.5C 10.4169,73.9984 9.58359,72.6651 8.5,71.5C 7.66941,65.1928 7.16941,58.8594 7,52.5C 6.61742,51.944 6.11742,51.6107 5.5,51.5C 5.5,50.8333 5.83333,50.5 6.5,50.5C 8.58414,49.7517 10.5841,49.7517 12.5,50.5C 13.293,49.6446 12.9597,48.8113 11.5,48C 13.3648,48.5809 15.0314,48.2476 16.5,47C 15.1667,47.6667 15.1667,48.3333 16.5,49C 13.9722,49.6689 13.9722,50.5022 16.5,51.5C 17.086,51.2907 17.586,50.9574 18,50.5C 19.0533,52.7427 20.3866,55.076 22,57.5C 22.4512,55.0712 23.2845,54.9045 24.5,57C 23.5243,59.1469 23.691,61.3136 25,63.5C 29.1376,66.2905 32.6376,69.6239 35.5,73.5 Z"/></g>
<g><path style="opacity:1" fill="#c6a943" d="M 59.5,32.5 C 53.64,37.2865 52.14,43.2865 55,50.5C 56.5066,46.1527 59.0066,42.486 62.5,39.5C 64.5,40.1667 66.5,40.8333 68.5,41.5C 66.5,41.5 64.5,41.5 62.5,41.5C 62.2761,43.7867 61.6094,45.9534 60.5,48C 61.6959,50.0296 63.3626,51.5296 65.5,52.5C 64.1155,53.8009 62.6155,53.8009 61,52.5C 59.955,53.3734 59.1217,54.3734 58.5,55.5C 55.3188,55.1116 52.6522,53.7782 50.5,51.5C 47.5014,48.4987 45.8347,44.832 45.5,40.5C 46.547,42.1506 47.7137,43.8172 49,45.5C 50.3086,43.1088 51.3086,43.1088 52,45.5C 52.2826,40.7278 53.1159,36.3945 54.5,32.5C 56.1673,31.3336 57.834,31.3336 59.5,32.5 Z"/></g>
<g><path style="opacity:1" fill="#f9d955" d="M 119.5,51.5 C 119.5,51.8333 119.5,52.1667 119.5,52.5C 120.846,54.5368 122.18,56.5368 123.5,58.5C 123.688,60.1033 123.188,61.4366 122,62.5C 120.192,60.1568 118.026,59.4901 115.5,60.5C 117.646,61.5559 119.312,63.0559 120.5,65C 120.252,66.7491 119.252,67.5824 117.5,67.5C 115.5,67.5 113.5,67.5 111.5,67.5C 108.794,67.4249 106.127,67.0916 103.5,66.5C 100.67,64.1766 97.6698,64.1766 94.5,66.5C 92.8902,65.0426 91.2235,62.876 89.5,60C 88.3499,57.4825 88.3499,54.9825 89.5,52.5C 90.6733,50.6595 90.6733,48.8261 89.5,47C 89.7591,45.7387 90.4258,44.7387 91.5,44C 89.8264,41.4952 87.493,39.9952 84.5,39.5C 82.8657,38.0451 81.5324,36.3784 80.5,34.5C 80.5,33.1667 80.5,31.8333 80.5,30.5C 85.579,28.1655 86.579,24.8322 83.5,20.5C 82.913,19.2334 82.913,18.2334 83.5,17.5C 91.4378,19.604 96.6045,24.604 99,32.5C 106.658,37.9927 113.491,44.326 119.5,51.5 Z"/></g>
<g><path style="opacity:1" fill="#86712e" d="M 84.5,39.5 C 87.493,39.9952 89.8264,41.4952 91.5,44C 90.4258,44.7387 89.7591,45.7387 89.5,47C 90.6733,48.8261 90.6733,50.6595 89.5,52.5C 88.609,53.1098 87.609,53.4431 86.5,53.5C 87.0029,48.8814 86.3362,44.2147 84.5,39.5 Z"/></g>
<g><path style="opacity:1" fill="#f6d350" d="M 68.5,41.5 C 69.8373,43.7753 71.1707,46.1086 72.5,48.5C 69.9683,48.8286 68.9683,49.9952 69.5,52C 68.0406,51.6446 66.7072,51.8112 65.5,52.5C 63.3626,51.5296 61.6959,50.0296 60.5,48C 61.6094,45.9534 62.2761,43.7867 62.5,41.5C 64.5,41.5 66.5,41.5 68.5,41.5 Z"/></g>
<g><path style="opacity:1" fill="#806e2b" d="M 33.5,63.5 C 34.5711,65.3775 35.2378,67.0442 35.5,68.5C 36.1924,67.9747 36.6924,67.3081 37,66.5C 40.6632,68.5165 44.4965,69.8498 48.5,70.5C 48.3921,72.2091 48.2254,74.2091 48,76.5C 46.0535,75.253 44.2202,73.9197 42.5,72.5C 43.376,71.7492 44.376,71.2492 45.5,71C 43.8333,70.3333 42.1667,70.3333 40.5,71C 38.7978,72.5833 37.4644,72.0833 36.5,69.5C 36.5236,70.7865 36.1903,72.1198 35.5,73.5C 32.6376,69.6239 29.1376,66.2905 25,63.5C 23.691,61.3136 23.5243,59.1469 24.5,57C 23.2845,54.9045 22.4512,55.0712 22,57.5C 20.3866,55.076 19.0533,52.7427 18,50.5C 17.586,50.9574 17.086,51.2907 16.5,51.5C 13.9722,50.5022 13.9722,49.6689 16.5,49C 15.1667,48.3333 15.1667,47.6667 16.5,47C 15.0314,48.2476 13.3648,48.5809 11.5,48C 12.9597,48.8113 13.293,49.6446 12.5,50.5C 10.5841,49.7517 8.58414,49.7517 6.5,50.5C 9.42647,47.6934 12.7598,45.36 16.5,43.5C 17.1667,44.1667 17.8333,44.8333 18.5,45.5C 19.6956,45.1543 19.6956,44.6543 18.5,44C 20.2889,43.4795 21.9556,43.8129 23.5,45C 21.0684,46.0875 21.4017,46.5875 24.5,46.5C 24.7646,50.1299 26.0979,53.2966 28.5,56C 28.1667,56.3333 27.8333,56.6667 27.5,57C 29.847,58.8725 31.847,61.0392 33.5,63.5 Z"/></g>
<g><path style="opacity:1" fill="#15100d" d="M 83.5,20.5 C 86.579,24.8322 85.579,28.1655 80.5,30.5C 79.8826,30.6107 79.3826,30.944 79,31.5C 73.4287,30.3256 68.262,28.3256 63.5,25.5C 52.7839,24.5314 46.7839,29.5314 45.5,40.5C 45.8347,44.832 47.5014,48.4987 50.5,51.5C 50.5983,54.2476 49.5983,54.9143 47.5,53.5C 45.1446,49.9259 42.4779,49.9259 39.5,53.5C 40.2421,54.2868 41.0754,54.9535 42,55.5C 42.7175,54.5494 43.5509,54.3828 44.5,55C 40.6035,56.7862 40.9369,57.9529 45.5,58.5C 46.1834,60.1765 47.5168,60.8432 49.5,60.5C 49.5,60.8333 49.5,61.1667 49.5,61.5C 50.2625,62.2679 51.2625,62.7679 52.5,63C 51.9056,63.4643 51.2389,63.631 50.5,63.5C 42.0262,61.8632 36.5262,56.8632 34,48.5C 30.4955,34.6757 34.6622,23.8423 46.5,16C 60.3123,10.7779 72.479,13.2779 83,23.5C 83.4828,22.552 83.6495,21.552 83.5,20.5 Z"/></g>
<g><path style="opacity:1" fill="#0f4984" d="M 127.5,7.5 C 127.811,28.5457 127.477,49.5457 126.5,70.5C 124.883,71.5893 124.05,73.256 124,75.5C 123.098,73.5692 121.931,71.9025 120.5,70.5C 119.171,71.5935 118.337,72.9269 118,74.5C 113.63,72.9859 109.463,73.3193 105.5,75.5C 104.833,75.1667 104.167,74.8333 103.5,74.5C 104.993,73.8589 105.993,72.8589 106.5,71.5C 108.734,71.3801 110.901,71.7135 113,72.5C 114.728,72.101 116.228,71.4343 117.5,70.5C 124.202,68.7703 126.202,64.7703 123.5,58.5C 123.625,55.3918 122.292,53.3918 119.5,52.5C 119.5,52.1667 119.5,51.8333 119.5,51.5C 119.291,50.0783 118.791,48.745 118,47.5C 115.628,45.2968 113.461,42.9635 111.5,40.5C 115.449,40.3068 115.449,39.8068 111.5,39C 112.167,38.8333 112.833,38.6667 113.5,38.5C 116.227,40.3075 118.227,39.8075 119.5,37C 119.095,36.0546 118.428,35.3879 117.5,35C 119.433,34.2174 120.933,34.7174 122,36.5C 123.188,35.4366 123.688,34.1033 123.5,32.5C 122.448,32.6495 121.448,32.4828 120.5,32C 122.134,31.5065 123.801,31.3398 125.5,31.5C 125.5,29.8333 125.5,28.1667 125.5,26.5C 124.167,26.5 122.833,26.5 121.5,26.5C 121.67,25.1779 121.337,24.0113 120.5,23C 123.237,17.8421 125.57,12.6754 127.5,7.5 Z"/></g>
<g><path style="opacity:1" fill="#1a150f" d="M 63.5,30.5 C 69.7093,29.8121 75.376,31.1454 80.5,34.5C 81.5324,36.3784 82.8657,38.0451 84.5,39.5C 86.3362,44.2147 87.0029,48.8814 86.5,53.5C 81.0218,64.624 72.0218,70.624 59.5,71.5C 55.8455,71.0578 52.1788,70.7244 48.5,70.5C 44.4965,69.8498 40.6632,68.5165 37,66.5C 36.6924,67.3081 36.1924,67.9747 35.5,68.5C 35.2378,67.0442 34.5711,65.3775 33.5,63.5C 36.0413,64.6882 38.5413,66.0216 41,67.5C 42.301,67.3613 43.1344,66.6946 43.5,65.5C 53.9646,69.7263 64.2979,69.2263 74.5,64C 78.0916,61.079 80.9249,57.579 83,53.5C 83.8099,49.6425 83.6433,45.9758 82.5,42.5C 81.9858,56.8489 74.4858,64.5156 60,65.5C 56.6235,65.193 53.4569,64.5263 50.5,63.5C 51.2389,63.631 51.9056,63.4643 52.5,63C 51.2625,62.7679 50.2625,62.2679 49.5,61.5C 53.073,61.023 53.9064,59.3564 52,56.5C 51.3918,58.0664 50.5585,59.3998 49.5,60.5C 47.5168,60.8432 46.1834,60.1765 45.5,58.5C 45.5,57.8333 45.8333,57.5 46.5,57.5C 46.8333,56.1667 47.1667,54.8333 47.5,53.5C 49.5983,54.9143 50.5983,54.2476 50.5,51.5C 52.6522,53.7782 55.3188,55.1116 58.5,55.5C 63.0321,55.926 67.1988,54.926 71,52.5C 71.7914,51.255 72.2914,49.9217 72.5,48.5C 73.1386,47.9032 73.472,47.0698 73.5,46C 71.6446,44.2003 70.978,42.2003 71.5,40C 68.5457,38.2814 65.5457,38.1147 62.5,39.5C 59.0066,42.486 56.5066,46.1527 55,50.5C 52.14,43.2865 53.64,37.2865 59.5,32.5C 61.153,32.3404 62.4863,31.6737 63.5,30.5 Z"/></g>
<g><path style="opacity:1" fill="#0e0d0d" d="M 75.5,9.5 C 74.2935,10.8804 74.6269,12.0471 76.5,13C 79.9908,14.5774 83.4908,16.0774 87,17.5C 87.4643,16.9056 87.631,16.2389 87.5,15.5C 92.8721,19.3828 97.0388,24.3828 100,30.5C 103.41,34.4158 107.243,37.7492 111.5,40.5C 113.461,42.9635 115.628,45.2968 118,47.5C 118.791,48.745 119.291,50.0783 119.5,51.5C 113.491,44.326 106.658,37.9927 99,32.5C 96.6045,24.604 91.4378,19.604 83.5,17.5C 82.913,18.2334 82.913,19.2334 83.5,20.5C 78.8789,16.5173 73.8789,13.0173 68.5,10C 46.0708,4.47209 31.9042,12.9721 26,35.5C 24.9163,49.6809 30.7497,59.6809 43.5,65.5C 43.1344,66.6946 42.301,67.3613 41,67.5C 38.5413,66.0216 36.0413,64.6882 33.5,63.5C 31.847,61.0392 29.847,58.8725 27.5,57C 27.8333,56.6667 28.1667,56.3333 28.5,56C 26.0979,53.2966 24.7646,50.1299 24.5,46.5C 21.4017,46.5875 21.0684,46.0875 23.5,45C 21.9556,43.8129 20.2889,43.4795 18.5,44C 19.6956,44.6543 19.6956,45.1543 18.5,45.5C 17.8333,44.8333 17.1667,44.1667 16.5,43.5C 12.7598,45.36 9.42647,47.6934 6.5,50.5C 5.83333,50.5 5.5,50.8333 5.5,51.5C 5.20804,60.9152 5.87471,70.2485 7.5,79.5C 6.20695,78.158 5.37362,76.4913 5,74.5C 4.50046,68.1754 4.33379,61.8421 4.5,55.5C 4.33669,53.1432 4.50335,50.8098 5,48.5C 10.8055,43.3553 17.1389,39.0219 24,35.5C 25.7649,22.5781 32.5983,13.5781 44.5,8.5C 48.0997,6.09233 52.0997,5.09233 56.5,5.5C 62.9738,6.44251 69.3071,7.77584 75.5,9.5 Z"/></g>
<g><path style="opacity:1" fill="#8a722a" d="M 72.5,48.5 C 71.1707,46.1086 69.8373,43.7753 68.5,41.5C 66.5,40.8333 64.5,40.1667 62.5,39.5C 65.5457,38.1147 68.5457,38.2814 71.5,40C 70.978,42.2003 71.6446,44.2003 73.5,46C 73.472,47.0698 73.1386,47.9032 72.5,48.5 Z"/></g>
<g><path style="opacity:1" fill="#eaee83" d="M 82.5,42.5 C 81.1522,41.4732 80.6522,40.1398 81,38.5C 82.1882,39.5634 82.6882,40.8967 82.5,42.5 Z"/></g>
<g><path style="opacity:1" fill="#e2dc60" d="M 76.5,42.5 C 74.6235,39.55 71.9568,37.55 68.5,36.5C 69.0198,31.9704 70.1865,31.6371 72,35.5C 72.6667,34.8333 73.3333,34.1667 74,33.5C 74,34.8333 74,36.1667 74,37.5C 75.0495,36.4829 76.2161,36.3162 77.5,37C 77.1667,37.3333 76.8333,37.6667 76.5,38C 80.1505,39.2619 80.1505,40.7619 76.5,42.5 Z"/></g>
<g><path style="opacity:1" fill="#1a1611" d="M 87.5,32.5 C 92.15,32.6526 94.65,34.9859 95,39.5C 90.9525,39.2499 87.1191,37.7499 83.5,35C 83.1667,34.6667 82.8333,34.3333 82.5,34C 84.3817,33.8019 86.0484,33.3019 87.5,32.5 Z"/></g>
<g><path style="opacity:1" fill="#e3e06e" d="M 62.5,36.5 C 62.281,35.325 62.6143,34.325 63.5,33.5C 64.7979,35.0517 64.4646,36.0517 62.5,36.5 Z"/></g>
<g><path style="opacity:1" fill="#b4b259" d="M 62.5,36.5 C 61.1052,38.3003 59.4385,38.6336 57.5,37.5C 58.5,36.5 59.5,35.5 60.5,34.5C 61.1818,35.2427 61.8485,35.9094 62.5,36.5 Z"/></g>
<g><path style="opacity:1" fill="#f1f269" d="M 65.5,32.5 C 66.5862,32.62 67.2528,33.2867 67.5,34.5C 67.1667,35.1667 66.8333,35.8333 66.5,36.5C 65.5713,35.3112 65.238,33.9778 65.5,32.5 Z"/></g>
<g><path style="opacity:1" fill="#ccbf4d" d="M 41.5,47.5 C 39.5,47.5 37.5,47.5 35.5,47.5C 35.5,46.5 35.5,45.5 35.5,44.5C 36.8734,44.6567 38.2068,44.49 39.5,44C 35.3826,43.4508 34.7159,41.7841 37.5,39C 35.842,38.2747 35.342,37.108 36,35.5C 37.3204,35.201 38.8204,35.0343 40.5,35C 39.1667,33.6667 37.8333,32.3333 36.5,31C 37.5719,29.7163 38.9052,29.3829 40.5,30C 39.9491,28.6015 39.6158,27.2682 39.5,26C 41.1667,26.3333 42.8333,26.6667 44.5,27C 43.4829,25.9505 43.3162,24.7839 44,23.5C 44.6667,22.1667 45.3333,22.1667 46,23.5C 46.8663,17.1342 48.3663,17.1342 50.5,23.5C 49.9646,25.2705 49.1313,25.6039 48,24.5C 43.8856,30.393 41.3856,36.5597 40.5,43C 42.7823,44.0842 43.1157,45.5842 41.5,47.5 Z"/></g>
<g><path style="opacity:1" fill="#f1ce50" d="M 63.5,25.5 C 63.9175,26.2216 64.5842,26.7216 65.5,27C 63.8333,27.3333 62.1667,27.6667 60.5,28C 61.9423,28.3768 62.9423,29.2101 63.5,30.5C 62.4863,31.6737 61.153,32.3404 59.5,32.5C 57.834,31.3336 56.1673,31.3336 54.5,32.5C 53.1159,36.3945 52.2826,40.7278 52,45.5C 51.3086,43.1088 50.3086,43.1088 49,45.5C 47.7137,43.8172 46.547,42.1506 45.5,40.5C 46.7839,29.5314 52.7839,24.5314 63.5,25.5 Z"/></g>
<g><path style="opacity:1" fill="#7d6629" d="M 63.5,25.5 C 68.262,28.3256 73.4287,30.3256 79,31.5C 79.3826,30.944 79.8826,30.6107 80.5,30.5C 80.5,31.8333 80.5,33.1667 80.5,34.5C 75.376,31.1454 69.7093,29.8121 63.5,30.5C 62.9423,29.2101 61.9423,28.3768 60.5,28C 62.1667,27.6667 63.8333,27.3333 65.5,27C 64.5842,26.7216 63.9175,26.2216 63.5,25.5 Z"/></g>
<g><path style="opacity:1" fill="#f2d755" d="M 83.5,20.5 C 83.6495,21.552 83.4828,22.552 83,23.5C 72.479,13.2779 60.3123,10.7779 46.5,16C 34.6622,23.8423 30.4955,34.6757 34,48.5C 36.5262,56.8632 42.0262,61.8632 50.5,63.5C 53.4569,64.5263 56.6235,65.193 60,65.5C 74.4858,64.5156 81.9858,56.8489 82.5,42.5C 83.6433,45.9758 83.8099,49.6425 83,53.5C 80.9249,57.579 78.0916,61.079 74.5,64C 64.2979,69.2263 53.9646,69.7263 43.5,65.5C 30.7497,59.6809 24.9163,49.6809 26,35.5C 31.9042,12.9721 46.0708,4.47209 68.5,10C 73.8789,13.0173 78.8789,16.5173 83.5,20.5 Z"/></g>
<g><path style="opacity:1" fill="#f6f05c" d="M 64.5,59.5 C 64.032,64.6876 63.032,64.6876 61.5,59.5C 62.4246,58.4376 63.4246,58.4376 64.5,59.5 Z"/></g>
<g><path style="opacity:1" fill="#e1da5d" d="M 57.5,58.5 C 60.0838,59.0483 61.0838,60.715 60.5,63.5C 59.5,63.5 58.5,63.5 57.5,63.5C 57.5,61.8333 57.5,60.1667 57.5,58.5 Z"/></g>
<g><path style="opacity:1" fill="#f9f65f" d="M 54.5,57.5 C 56.9238,59.2276 57.0904,61.2276 55,63.5C 54.5045,61.5273 54.3379,59.5273 54.5,57.5 Z"/></g>
<g><path style="opacity:1" fill="#f2ed58" d="M 49.5,61.5 C 49.5,61.1667 49.5,60.8333 49.5,60.5C 50.5585,59.3998 51.3918,58.0664 52,56.5C 53.9064,59.3564 53.073,61.023 49.5,61.5 Z"/></g>
<g><path style="opacity:1" fill="#f2e664" d="M 46.5,57.5 C 47.4822,56.8592 48.4822,56.1925 49.5,55.5C 50.5092,57.1846 50.0092,58.5179 48,59.5C 46.9701,59.1639 46.4701,58.4972 46.5,57.5 Z"/></g>
<g><path style="opacity:1" fill="#e7e259" d="M 73.5,54.5 C 74.1408,55.4822 74.8075,56.4822 75.5,57.5C 75.1667,57.8333 74.8333,58.1667 74.5,58.5C 73.3777,57.3698 72.0443,56.7031 70.5,56.5C 70.9731,55.0937 71.9731,54.427 73.5,54.5 Z"/></g>
<g><path style="opacity:1" fill="#dbd358" d="M 70.5,56.5 C 72.1343,61.5466 71.4677,62.2133 68.5,58.5C 68.7948,59.8255 68.2948,61.1588 67,62.5C 66.6232,61.0577 65.7899,60.0577 64.5,59.5C 65.8952,57.6206 67.8952,56.6206 70.5,56.5 Z"/></g>
<g><path style="opacity:1" fill="#ddd254" d="M 47.5,53.5 C 47.1667,54.8333 46.8333,56.1667 46.5,57.5C 45.8333,57.5 45.5,57.8333 45.5,58.5C 40.9369,57.9529 40.6035,56.7862 44.5,55C 43.5509,54.3828 42.7175,54.5494 42,55.5C 41.0754,54.9535 40.2421,54.2868 39.5,53.5C 42.4779,49.9259 45.1446,49.9259 47.5,53.5 Z"/></g>
<g><path style="opacity:1" fill="#eeea5b" d="M 73.5,54.5 C 73.3691,53.6236 73.7025,52.9569 74.5,52.5C 79.601,54.8966 79.2677,55.5632 73.5,54.5 Z"/></g>
<g><path style="opacity:1" fill="#856b2a" d="M 72.5,48.5 C 72.2914,49.9217 71.7914,51.255 71,52.5C 67.1988,54.926 63.0321,55.926 58.5,55.5C 59.1217,54.3734 59.955,53.3734 61,52.5C 62.6155,53.8009 64.1155,53.8009 65.5,52.5C 66.7072,51.8112 68.0406,51.6446 69.5,52C 68.9683,49.9952 69.9683,48.8286 72.5,48.5 Z"/></g>
<g><path style="opacity:1" fill="#ded95c" d="M 76.5,49.5 C 77.5,49.5 78.5,49.5 79.5,49.5C 79.4347,52.9983 78.1014,53.4983 75.5,51C 76.056,50.6174 76.3893,50.1174 76.5,49.5 Z"/></g>
<g><path style="opacity:1" fill="#e8dd59" d="M 41.5,47.5 C 43.0281,47.5173 43.5281,48.184 43,49.5C 40.9517,51.8358 39.1183,51.8358 37.5,49.5C 38.9492,48.8281 40.2825,48.1614 41.5,47.5 Z"/></g>
<g><path style="opacity:1" fill="#e5eb68" d="M 76.5,46.5 C 78.288,46.2148 79.9547,46.5481 81.5,47.5C 80.6667,47.8333 79.8333,48.1667 79,48.5C 77.6244,48.3158 76.7911,47.6491 76.5,46.5 Z"/></g>
<g><path style="opacity:1" fill="#f2f675" d="M 76.5,42.5 C 81.1366,42.6077 81.47,43.6077 77.5,45.5C 76.6143,44.675 76.281,43.675 76.5,42.5 Z"/></g>
<g><path style="opacity:1" fill="#c3b34c" d="M 77.5,22.5 C 79.5084,23.3007 80.0084,24.634 79,26.5C 80.3629,24.2157 81.8629,24.049 83.5,26C 80.6338,29.2642 77.9671,29.2642 75.5,26C 75.9783,24.6974 76.645,23.5307 77.5,22.5 Z"/></g>
<g><path style="opacity:1" fill="#dfda57" d="M 71.5,24.5 C 72.4793,23.2347 73.4793,21.9014 74.5,20.5C 75.4845,22.5979 75.1511,24.5979 73.5,26.5C 72.4777,26.1445 71.811,25.4778 71.5,24.5 Z"/></g>
<g><path style="opacity:1" fill="#e5d559" d="M 52.5,15.5 C 53.2829,17.3432 53.9495,19.3432 54.5,21.5C 52.0634,24.1494 50.73,23.4828 50.5,19.5C 50.7517,17.9271 51.4183,16.5938 52.5,15.5 Z"/></g>
<g><path style="opacity:1" fill="#efe45c" d="M 71.5,24.5 C 67.8788,23.2641 67.5454,21.2641 70.5,18.5C 71.5,18.8333 72.1667,19.5 72.5,20.5C 71.7542,21.7362 71.4208,23.0695 71.5,24.5 Z"/></g>
<g><path style="opacity:1" fill="#e2d059" d="M 59.5,15.5 C 60.4959,15.4142 61.3292,15.7476 62,16.5C 62.6829,21.658 63.5163,21.658 64.5,16.5C 65.9778,16.238 67.3112,16.5713 68.5,17.5C 67.8108,19.444 67.3108,21.444 67,23.5C 64.7724,21.8866 62.2724,21.22 59.5,21.5C 59.5,19.5 59.5,17.5 59.5,15.5 Z"/></g>
<g><path style="opacity:1" fill="#cab047" d="M 55.5,14.5 C 56.5,14.5 57.5,14.5 58.5,14.5C 58.5,16.8333 58.5,19.1667 58.5,21.5C 54.6588,20.5158 53.6588,18.1825 55.5,14.5 Z"/></g>
<g><path style="opacity:1" fill="#ebd95c" d="M 75.5,9.5 C 75.8333,9.5 76.1667,9.5 76.5,9.5C 81.5134,9.171 85.18,11.171 87.5,15.5C 87.631,16.2389 87.4643,16.9056 87,17.5C 83.4908,16.0774 79.9908,14.5774 76.5,13C 74.6269,12.0471 74.2935,10.8804 75.5,9.5 Z"/></g>
<g><path style="opacity:1" fill="#08080c" d="M 76.5,9.5 C 77.209,8.59603 78.209,8.26269 79.5,8.5C 84.0402,8.70758 86.7069,11.0409 87.5,15.5C 85.18,11.171 81.5134,9.171 76.5,9.5 Z"/></g>
<g><path style="opacity:1" fill="#0a4886" d="M 127.5,4.5 C 127.5,5.5 127.5,6.5 127.5,7.5C 125.57,12.6754 123.237,17.8421 120.5,23C 121.337,24.0113 121.67,25.1779 121.5,26.5C 122.833,26.5 124.167,26.5 125.5,26.5C 125.5,28.1667 125.5,29.8333 125.5,31.5C 123.801,31.3398 122.134,31.5065 120.5,32C 121.448,32.4828 122.448,32.6495 123.5,32.5C 123.688,34.1033 123.188,35.4366 122,36.5C 120.933,34.7174 119.433,34.2174 117.5,35C 118.428,35.3879 119.095,36.0546 119.5,37C 118.227,39.8075 116.227,40.3075 113.5,38.5C 112.833,38.6667 112.167,38.8333 111.5,39C 115.449,39.8068 115.449,40.3068 111.5,40.5C 107.243,37.7492 103.41,34.4158 100,30.5C 97.0388,24.3828 92.8721,19.3828 87.5,15.5C 86.7069,11.0409 84.0402,8.70758 79.5,8.5C 79.5,7.5 79.5,6.5 79.5,5.5C 74.7586,3.9152 78.7586,4.24853 91.5,6.5C 103.419,4.67185 115.419,4.00518 127.5,4.5 Z"/></g>
<g><path style="opacity:1" fill="#0a4884" d="M 44.5,8.5 C 32.5983,13.5781 25.7649,22.5781 24,35.5C 17.1389,39.0219 10.8055,43.3553 5,48.5C 4.50335,50.8098 4.33669,53.1432 4.5,55.5C 3.33836,39.0051 3.17169,22.3384 4,5.5C 6.29427,4.14778 8.79427,3.48112 11.5,3.5C 20.8182,4.22163 30.1515,4.72163 39.5,5C 36.8333,5.33333 34.1667,5.66667 31.5,6C 36.2863,6.60311 40.6197,7.43645 44.5,8.5 Z"/></g>
<g><path style="opacity:1" fill="#13518b" d="M 127.5,4.5 C 115.419,4.00518 103.419,4.67185 91.5,6.5C 78.7586,4.24853 74.7586,3.9152 79.5,5.5C 79.5,6.5 79.5,7.5 79.5,8.5C 78.209,8.26269 77.209,8.59603 76.5,9.5C 76.1667,9.5 75.8333,9.5 75.5,9.5C 69.3071,7.77584 62.9738,6.44251 56.5,5.5C 52.0997,5.09233 48.0997,6.09233 44.5,8.5C 40.6197,7.43645 36.2863,6.60311 31.5,6C 34.1667,5.66667 36.8333,5.33333 39.5,5C 30.1515,4.72163 20.8182,4.22163 11.5,3.5C 8.79427,3.48112 6.29427,4.14778 4,5.5C 3.17169,22.3384 3.33836,39.0051 4.5,55.5C 4.33379,61.8421 4.50046,68.1754 5,74.5C 5.37362,76.4913 6.20695,78.158 7.5,79.5C 10.2903,92.2796 17.2903,101.946 28.5,108.5C 28.8333,108.5 29.1667,108.5 29.5,108.5C 29.5106,110.017 30.1772,111.184 31.5,112C 41.1516,118.58 51.8183,121.746 63.5,121.5C 65.9479,122.473 68.6146,122.806 71.5,122.5C 40.7117,124.935 18.8784,111.935 6,83.5C 5,79.5 4,75.5 3,71.5C 2.50003,48.169 2.33337,24.8357 2.5,1.5C 44.1667,1.5 85.8333,1.5 127.5,1.5C 127.5,2.5 127.5,3.5 127.5,4.5 Z"/></g>
<g><path style="opacity:1" fill="#fdfdfc" d="M -0.5,-0.5 C -0.166667,-0.5 0.166667,-0.5 0.5,-0.5C 0.5,-0.166667 0.5,0.166667 0.5,0.5C 0.333365,24.5023 0.500032,48.5023 1,72.5C 6.91137,97.2378 21.7447,113.904 45.5,122.5C 45.5271,124.199 46.1938,125.533 47.5,126.5C 31.5,126.5 15.5,126.5 -0.5,126.5C -0.5,84.1667 -0.5,41.8333 -0.5,-0.5 Z"/></g>
<g><path style="opacity:1" fill="#fadf55" d="M 5.5,51.5 C 6.11742,51.6107 6.61742,51.944 7,52.5C 7.16941,58.8594 7.66941,65.1928 8.5,71.5C 9.58359,72.6651 10.4169,73.9984 11,75.5C 11.6885,71.2174 13.1885,70.7174 15.5,74C 13.8446,75.4443 13.178,77.2776 13.5,79.5C 12.1266,79.3433 10.7932,79.51 9.5,80C 10.5018,81.6718 11.6684,82.8384 13,83.5C 13.3333,82.8333 13.6667,82.1667 14,81.5C 14.5356,83.5672 14.0356,85.4006 12.5,87C 14.1233,89.0795 15.6233,91.2462 17,93.5C 16.7221,89.8606 16.7221,86.1939 17,82.5C 17.3333,82.1667 17.6667,81.8333 18,81.5C 19.2635,83.607 21.0968,84.607 23.5,84.5C 23.2137,86.2769 22.5471,87.9436 21.5,89.5C 21.4528,91.0004 22.1195,92.0004 23.5,92.5C 24.2436,91.0095 24.9103,89.5095 25.5,88C 31.9454,86.4013 34.9454,88.9013 34.5,95.5C 35.5,95.5 36.5,95.5 37.5,95.5C 37.5,96.8333 37.5,98.1667 37.5,99.5C 38.8221,99.33 39.9887,99.6634 41,100.5C 41.8687,102.581 42.3687,104.747 42.5,107C 42.7986,110.246 41.4653,112.413 38.5,113.5C 37.2905,113.068 36.2905,112.401 35.5,111.5C 35.2488,109.83 34.5822,108.33 33.5,107C 36.5777,103.997 36.911,100.83 34.5,97.5C 32.7236,99.5378 31.0569,101.704 29.5,104C 27.8659,104.494 26.1992,104.66 24.5,104.5C 16.8479,97.5149 11.1812,89.1816 7.5,79.5C 5.87471,70.2485 5.20804,60.9152 5.5,51.5 Z"/></g>
<g><path style="opacity:1" fill="#101014" d="M 7.5,79.5 C 11.1812,89.1816 16.8479,97.5149 24.5,104.5C 26.1392,105.473 27.4726,106.806 28.5,108.5C 17.2903,101.946 10.2903,92.2796 7.5,79.5 Z"/></g>
<g><path style="opacity:1" fill="#fadb56" d="M 60.5,80.5 C 60.9382,80.4346 61.2716,80.6012 61.5,81C 60.8333,81.3333 60.1667,81.6667 59.5,82C 60.1667,84 61.5,85.3333 63.5,86C 62.2168,89.0636 61.5501,92.3969 61.5,96C 61.7919,102.066 62.1252,107.899 62.5,113.5C 62.5,115.5 62.5,117.5 62.5,119.5C 57.0767,119.476 51.7434,118.81 46.5,117.5C 45.8869,114.991 45.2202,112.491 44.5,110C 44.3196,105.046 44.9863,100.046 46.5,95C 45.4602,91.2097 45.2935,87.3763 46,83.5C 47.5292,82.2713 48.6959,80.7713 49.5,79C 51.4025,78.8008 52.9025,77.9675 54,76.5C 54.7504,77.1258 55.5838,77.6258 56.5,78C 56.1667,78.3333 55.8333,78.6667 55.5,79C 56.6667,79.5 57.5,80.3333 58,81.5C 58.6708,80.7476 59.5041,80.4142 60.5,80.5 Z"/></g>
<g><path style="opacity:1" fill="#0d4b87" d="M 120.5,70.5 C 121.931,71.9025 123.098,73.5692 124,75.5C 124.05,73.256 124.883,71.5893 126.5,70.5C 125.259,80.3926 121.759,89.3926 116,97.5C 111.997,102.335 107.83,107.002 103.5,111.5C 102.167,111.833 100.833,112.167 99.5,112.5C 93.1757,112.939 86.8424,113.772 80.5,115C 80.2797,111.341 79.613,107.508 78.5,103.5C 77.7568,102.092 76.9234,100.759 76,99.5C 75.6667,99.8333 75.3333,100.167 75,100.5C 74.5065,98.8659 74.3398,97.1992 74.5,95.5C 76.5695,95.5514 78.4029,94.8847 80,93.5C 80.7594,94.6458 81.4261,95.6458 82,96.5C 84.7834,95.1136 84.9501,93.6136 82.5,92C 86.0146,93.0019 87.6812,91.5019 87.5,87.5C 90.3721,83.7189 92.5388,84.3855 94,89.5C 95.0674,88.8095 96.2341,88.3095 97.5,88C 96.6919,87.6924 96.0253,87.1924 95.5,86.5C 96.365,85.4173 97.365,85.2506 98.5,86C 99.2489,87.7337 99.7489,89.567 100,91.5C 101.884,93.5763 104.051,93.9097 106.5,92.5C 104.833,91.8333 103.167,91.1667 101.5,90.5C 101.833,90.1667 102.167,89.8333 102.5,89.5C 104.516,90.7059 106.516,90.7059 108.5,89.5C 106.955,88.5481 105.288,88.2148 103.5,88.5C 103.329,85.2027 103.995,84.8694 105.5,87.5C 106.833,84.8333 108.167,84.8333 109.5,87.5C 110.883,84.9244 111.717,85.2577 112,88.5C 112.333,88.1667 112.667,87.8333 113,87.5C 116.285,90.1926 117.618,89.5259 117,85.5C 117.837,87.0074 119.004,87.5074 120.5,87C 121.164,86.0136 121.164,84.1803 120.5,81.5C 121.025,80.8076 121.692,80.3076 122.5,80C 120.924,77.0492 120.257,73.8826 120.5,70.5 Z"/></g>
<g><path style="opacity:1" fill="#120e0e" d="M 103.5,66.5 C 102.178,66.67 101.011,66.3366 100,65.5C 98.9326,66.1905 97.7659,66.6905 96.5,67C 99.4318,67.9533 102.432,68.4533 105.5,68.5C 109.183,70.2499 113.183,70.9166 117.5,70.5C 116.228,71.4343 114.728,72.101 113,72.5C 110.901,71.7135 108.734,71.3801 106.5,71.5C 98.5406,67.6533 92.874,69.82 89.5,78C 87.0021,79.9818 84.3355,81.4818 81.5,82.5C 79.264,83.3891 77.264,84.7224 75.5,86.5C 73.3809,91.7375 71.5476,97.0708 70,102.5C 68.8455,103.743 67.5122,104.743 66,105.5C 66.1223,111.26 65.289,116.593 63.5,121.5C 51.8183,121.746 41.1516,118.58 31.5,112C 30.1772,111.184 29.5106,110.017 29.5,108.5C 31.0532,110.385 33.0532,111.385 35.5,111.5C 36.2905,112.401 37.2905,113.068 38.5,113.5C 40.8485,115.341 43.5152,116.674 46.5,117.5C 51.7434,118.81 57.0767,119.476 62.5,119.5C 62.5,117.5 62.5,115.5 62.5,113.5C 62.7666,110.065 63.6,106.398 65,102.5C 65.9025,101.299 67.0692,100.465 68.5,100C 68.1667,99.6667 67.8333,99.3333 67.5,99C 69.0192,97.7817 70.1859,96.2817 71,94.5C 72.549,85.1161 78.049,79.4494 87.5,77.5C 90.6776,73.8035 93.0109,70.1368 94.5,66.5C 97.6698,64.1766 100.67,64.1766 103.5,66.5 Z"/></g>
<g><path style="opacity:1" fill="#d5b446" d="M 35.5,111.5 C 33.0532,111.385 31.0532,110.385 29.5,108.5C 29.1667,108.5 28.8333,108.5 28.5,108.5C 27.4726,106.806 26.1392,105.473 24.5,104.5C 26.1992,104.66 27.8659,104.494 29.5,104C 31.0569,101.704 32.7236,99.5378 34.5,97.5C 36.911,100.83 36.5777,103.997 33.5,107C 34.5822,108.33 35.2488,109.83 35.5,111.5 Z"/></g>
<g><path style="opacity:1" fill="#104d86" d="M 81.5,82.5 C 82.7175,83.1614 84.0508,83.8281 85.5,84.5C 83.8827,84.6694 82.216,85.0028 80.5,85.5C 78.9604,86.5321 78.4604,87.8654 79,89.5C 81.325,86.6694 84.1583,86.0027 87.5,87.5C 87.6812,91.5019 86.0146,93.0019 82.5,92C 84.9501,93.6136 84.7834,95.1136 82,96.5C 81.4261,95.6458 80.7594,94.6458 80,93.5C 78.4029,94.8847 76.5695,95.5514 74.5,95.5C 74.3398,97.1992 74.5065,98.8659 75,100.5C 75.3333,100.167 75.6667,99.8333 76,99.5C 76.9234,100.759 77.7568,102.092 78.5,103.5C 79.613,107.508 80.2797,111.341 80.5,115C 86.8424,113.772 93.1757,112.939 99.5,112.5C 91.3361,118.779 82.0028,122.113 71.5,122.5C 68.6146,122.806 65.9479,122.473 63.5,121.5C 65.289,116.593 66.1223,111.26 66,105.5C 67.5122,104.743 68.8455,103.743 70,102.5C 71.5476,97.0708 73.3809,91.7375 75.5,86.5C 77.264,84.7224 79.264,83.3891 81.5,82.5 Z"/></g>
</svg>
