<?xml version="1.0" encoding="UTF-8"?>
<!DOCTYPE svg PUBLIC "-//W3C//DTD SVG 1.1//EN" "http://www.w3.org/Graphics/SVG/1.1/DTD/svg11.dtd">
<svg xmlns="http://www.w3.org/2000/svg" version="1.1" width="850px" height="855px" style="shape-rendering:geometricPrecision; text-rendering:geometricPrecision; image-rendering:optimizeQuality; fill-rule:evenodd; clip-rule:evenodd" xmlns:xlink="http://www.w3.org/1999/xlink">
<g><path style="opacity:1" fill="#5b5859" d="M 836.5,15.5 C 561.502,13.5008 286.169,12.8341 10.5,13.5C 10.5,15.5 10.5,17.5 10.5,19.5C 9.53178,17.3926 9.19845,15.0593 9.5,12.5C 285.5,12.5 561.5,12.5 837.5,12.5C 837.737,13.791 837.404,14.791 836.5,15.5 Z"/></g>
<g><path style="opacity:1" fill="#262222" d="M 836.5,15.5 C 825.853,177.892 814.353,340.225 802,502.5C 784.975,625.396 724.475,719.896 620.5,786C 511.466,848.419 398.133,857.419 280.5,813C 168.525,765.022 94.3585,682.856 58,566.5C 51.5391,543.529 46.8724,520.195 44,496.5C 32.2645,337.536 21.0978,178.536 10.5,19.5C 10.5,17.5 10.5,15.5 10.5,13.5C 286.169,12.8341 561.502,13.5008 836.5,15.5 Z"/></g>
<g><path style="opacity:1" fill="#c8252f" d="M 29.5,30.5 C 159.167,30.5 288.833,30.5 418.5,30.5C 418.5,294.5 418.5,558.5 418.5,822.5C 310.696,818.981 220.862,777.315 149,697.5C 97.878,636.198 68.5447,565.532 61,485.5C 49.9832,333.864 39.4832,182.197 29.5,30.5 Z"/></g>
<g><path style="opacity:1" fill="#1a3142" d="M 428.5,30.5 C 428.167,116.335 428.501,202.002 429.5,287.5C 429.44,288.043 429.107,288.376 428.5,288.5C 427.168,202.334 427.168,116.334 428.5,30.5 Z"/></g>
<g><path style="opacity:1" fill="#0065a5" d="M 428.5,30.5 C 514.167,30.3333 599.834,30.5 685.5,31C 681.032,35.46 677.365,40.46 674.5,46C 669.305,44.7501 663.972,44.4168 658.5,45C 656.663,48.645 654.663,48.9784 652.5,46C 649.671,44.4914 646.838,44.3247 644,45.5C 642.439,49.4449 640.439,53.1115 638,56.5C 631.331,52.9504 625.664,53.9504 621,59.5C 620.391,64.3232 620.724,68.9899 622,73.5C 619.154,75.2567 616.488,77.2567 614,79.5C 614.149,87.4704 617.316,94.137 623.5,99.5C 621.736,106.803 624.402,111.97 631.5,115C 634.19,115.771 636.856,116.604 639.5,117.5C 640.94,122.108 643.94,125.274 648.5,127C 652.833,127.667 657.167,127.667 661.5,127C 663.815,125.891 665.315,124.057 666,121.5C 676.474,130.387 684.974,129.22 691.5,118C 697.635,123.134 703.469,128.634 709,134.5C 709.862,136.087 710.529,137.754 711,139.5C 711.785,150.536 711.452,161.536 710,172.5C 704.512,175.22 698.845,177.553 693,179.5C 692.5,179.167 692,178.833 691.5,178.5C 698.765,176.729 702.599,172.062 703,164.5C 704.979,154.47 703.146,145.304 697.5,137C 693.969,134.823 690.136,133.656 686,133.5C 679.35,134.663 672.684,135.663 666,136.5C 659.739,135.891 653.573,134.891 647.5,133.5C 644.546,133.291 641.879,133.958 639.5,135.5C 632.275,131.647 624.608,128.98 616.5,127.5C 612.886,127.804 609.552,128.971 606.5,131C 601.199,135.3 596.199,139.966 591.5,145C 589.5,146 587.5,147 585.5,148C 578.167,148.667 570.833,148.667 563.5,148C 559.596,146.469 555.596,145.802 551.5,146C 549.556,148.153 549.056,150.653 550,153.5C 553.878,162.258 558.045,170.924 562.5,179.5C 545.552,182.358 532.552,176.524 523.5,162C 521.031,159.978 518.865,160.145 517,162.5C 516.209,166.926 516.543,171.259 518,175.5C 529.116,195.823 546.283,207.323 569.5,210C 573.113,216.978 578.78,221.311 586.5,223C 534.297,244.79 481.964,266.29 429.5,287.5C 428.501,202.002 428.167,116.335 428.5,30.5 Z"/></g>
<g><path style="opacity:1" fill="#0163a2" d="M 700.5,31.5 C 721.663,30.3373 742.996,30.1706 764.5,31C 763.545,34.0994 762.711,37.266 762,40.5C 755.891,35.694 749.557,35.3607 743,39.5C 741.441,41.2166 740.608,43.2166 740.5,45.5C 736.484,44.8999 732.984,45.8999 730,48.5C 728.768,53.7207 728.101,59.0541 728,64.5C 725.923,66.0758 724.423,68.0758 723.5,70.5C 721.955,71.4519 720.288,71.7852 718.5,71.5C 718.351,70.448 718.517,69.448 719,68.5C 725.124,63.9546 727.124,57.9546 725,50.5C 724.5,48.6667 723.333,47.5 721.5,47C 716.52,47.3581 712.52,45.6914 709.5,42C 707.866,41.5065 706.199,41.3398 704.5,41.5C 705.25,37.2246 703.917,33.8913 700.5,31.5 Z"/></g>
<g><path style="opacity:1" fill="#0164a3" d="M 797.5,31.5 C 803.979,30.5093 810.646,30.176 817.5,30.5C 816.999,41.8538 816.165,53.1871 815,64.5C 815.078,59.6448 812.911,56.3114 808.5,54.5C 807.679,51.5535 807.179,48.5535 807,45.5C 804.413,43.8042 801.579,42.8042 798.5,42.5C 798.815,38.6286 798.482,34.9619 797.5,31.5 Z"/></g>
<g><path style="opacity:1" fill="#01a24e" d="M 810.5,110.5 C 811.388,113.054 811.721,115.721 811.5,118.5C 811.649,119.552 811.483,120.552 811,121.5C 797.278,116.929 783.445,113.596 769.5,111.5C 760.33,133.848 751.664,156.348 743.5,179C 743.354,181.034 744.02,182.701 745.5,184C 749.885,183.962 754.218,183.629 758.5,183C 761.544,185.912 762.711,189.412 762,193.5C 758.368,198.134 754.368,202.467 750,206.5C 741.304,221.749 735.471,238.083 732.5,255.5C 724.106,254.992 716.106,252.992 708.5,249.5C 707.614,248.675 707.281,247.675 707.5,246.5C 710.206,246.425 712.873,246.092 715.5,245.5C 715.628,243.345 715.128,241.345 714,239.5C 709.578,235.585 705.745,231.252 702.5,226.5C 708.274,206.739 713.107,186.739 717,166.5C 721.813,145.667 715.646,129.167 698.5,117C 699.448,116.517 700.448,116.351 701.5,116.5C 701.687,114.436 702.187,112.436 703,110.5C 706.546,115.713 711.046,119.88 716.5,123C 718.635,123.635 720.635,123.301 722.5,122C 725.933,118.958 728.766,115.458 731,111.5C 737.198,101.117 741.698,90.1169 744.5,78.5C 740.289,80.0778 735.956,80.5778 731.5,80C 728.208,77.5881 727.041,74.4214 728,70.5C 731.071,69.1966 733.904,67.5299 736.5,65.5C 733.531,60.9406 732.865,56.1072 734.5,51C 735.833,50.3333 737.167,50.3333 738.5,51C 741.82,53.9945 745.487,56.4945 749.5,58.5C 749.833,58.1667 750.167,57.8333 750.5,57.5C 748.243,54.4277 746.243,51.261 744.5,48C 747.03,40.2928 751.197,39.4595 757,45.5C 759.041,49.0838 761.208,52.5838 763.5,56C 764.793,56.49 766.127,56.6567 767.5,56.5C 766.613,50.8546 766.446,45.188 767,39.5C 767.757,37.6854 768.59,36.0188 769.5,34.5C 770.167,37.1667 770.833,39.8333 771.5,42.5C 771.848,44.7128 772.681,46.7128 774,48.5C 775,43.5 776,38.5 777,33.5C 785.277,31.0931 789.777,34.2597 790.5,43C 789.139,46.5277 787.972,50.0277 787,53.5C 788.388,54.5536 789.888,54.7203 791.5,54C 799.007,45.6543 802.841,46.821 803,57.5C 801,60.8333 798.333,63.5 795,65.5C 794.066,70.0833 795.9,71.5833 800.5,70C 810.559,64.1628 815.226,67.3295 814.5,79.5C 814.798,94.2954 809.965,96.2954 800,85.5C 799.989,82.3408 799.155,79.5074 797.5,77C 794.122,76.9525 790.789,77.4525 787.5,78.5C 788.128,70.291 784.461,66.791 776.5,68C 774.288,70.0425 772.288,72.2092 770.5,74.5C 765.574,69.6743 760.407,69.341 755,73.5C 753.667,80.518 756,85.8514 762,89.5C 762.5,89.1667 763,88.8333 763.5,88.5C 761.049,85.5997 759.715,82.2663 759.5,78.5C 763.162,77.6371 765.328,78.9704 766,82.5C 768.574,85.2594 770.74,84.926 772.5,81.5C 771.031,78.2068 771.698,75.3734 774.5,73C 777.833,72.3333 781.167,72.3333 784.5,73C 785.059,73.7247 785.392,74.5581 785.5,75.5C 783.734,78.6679 782.901,82.0012 783,85.5C 784.049,86.5171 785.216,86.6838 786.5,86C 788.481,83.3381 790.981,81.5048 794,80.5C 797.067,81.402 798.067,83.402 797,86.5C 793.335,89.4362 789.168,91.2695 784.5,92C 782.167,93.6667 779.833,95.3333 777.5,97C 775.993,97.8373 775.493,99.0039 776,100.5C 787.22,104.739 798.72,108.072 810.5,110.5 Z"/></g>
<g><path style="opacity:1" fill="#185332" d="M 769.5,34.5 C 769.56,33.9569 769.893,33.6236 770.5,33.5C 771.484,36.4281 771.817,39.4281 771.5,42.5C 770.833,39.8333 770.167,37.1667 769.5,34.5 Z"/></g>
<g><path style="opacity:1" fill="#01a24e" d="M 689.5,35.5 C 691.527,35.3379 693.527,35.5045 695.5,36C 701.079,40.5199 702.079,46.0199 698.5,52.5C 698.556,53.737 699.056,54.737 700,55.5C 701.978,52.3548 704.478,49.6881 707.5,47.5C 708.168,49.9257 708.502,52.259 708.5,54.5C 719.857,48.7658 723.023,51.7658 718,63.5C 715.92,65.1233 713.754,66.6233 711.5,68C 709.398,69.7328 709.065,71.7328 710.5,74C 713.117,74.8215 715.784,75.3215 718.5,75.5C 718.344,78.8411 717.011,81.6745 714.5,84C 717.738,84.232 720.238,85.732 722,88.5C 722.896,93.9491 722.563,99.2825 721,104.5C 717.95,108.13 714.117,109.297 709.5,108C 703.94,105.733 699.94,101.9 697.5,96.5C 699.318,93.5381 701.151,90.5381 703,87.5C 703.204,82.0919 702.538,76.7586 701,71.5C 699.818,69.6431 698.151,68.6431 696,68.5C 692.834,69.4224 689.667,69.9224 686.5,70C 683.414,66.2435 679.748,63.2435 675.5,61C 677.585,59.9586 679.252,58.4586 680.5,56.5C 678.037,53.6649 677.87,50.6649 680,47.5C 682.619,43.0496 685.786,39.0496 689.5,35.5 Z"/></g>
<g><path style="opacity:1" fill="#01a34f" d="M 647.5,49.5 C 648.822,49.33 649.989,49.6634 651,50.5C 651.497,52.8098 651.663,55.1432 651.5,57.5C 652.978,57.762 654.311,57.4287 655.5,56.5C 656.655,53.0046 658.988,51.0046 662.5,50.5C 663.309,58.3022 665.309,58.4688 668.5,51C 670.888,50.1349 672.388,50.9683 673,53.5C 673.79,56.634 673.457,59.634 672,62.5C 669.041,64.3895 666.208,66.3895 663.5,68.5C 664.427,70.9456 666.094,71.7789 668.5,71C 670.38,65.2186 673.88,64.0519 679,67.5C 679.801,71.1935 680.968,74.6935 682.5,78C 686.225,78.1478 689.892,77.6478 693.5,76.5C 694.833,76.8333 696.167,77.1667 697.5,77.5C 701.299,86.9633 698.299,91.63 688.5,91.5C 688.343,92.8734 688.51,94.2068 689,95.5C 694.372,99.2358 696.705,104.236 696,110.5C 694.649,112.019 693.149,113.352 691.5,114.5C 688.976,112.81 686.976,110.643 685.5,108C 684.207,107.51 682.873,107.343 681.5,107.5C 681.92,112.512 682.087,117.512 682,122.5C 681.275,123.059 680.442,123.392 679.5,123.5C 672.175,121.518 666.842,117.185 663.5,110.5C 662.311,109.571 660.978,109.238 659.5,109.5C 660.763,114.049 661.43,118.716 661.5,123.5C 656.431,123.15 651.431,122.317 646.5,121C 645.874,120.25 645.374,119.416 645,118.5C 644.501,114.514 644.334,110.514 644.5,106.5C 641.582,107.454 638.582,108.121 635.5,108.5C 631.104,108.299 628.104,106.133 626.5,102C 627.688,100.056 629.354,98.5559 631.5,97.5C 632.583,96.635 632.749,95.635 632,94.5C 629.31,92.8183 626.477,91.3183 623.5,90C 620.793,88.1363 619.959,85.6363 621,82.5C 623.709,79.6223 626.542,76.9557 629.5,74.5C 628.533,72.3703 627.366,70.3703 626,68.5C 624.746,62.752 627.079,60.0853 633,60.5C 636.176,61.0731 639.343,61.2398 642.5,61C 643.346,56.7389 645.013,52.9056 647.5,49.5 Z"/></g>
<g><path style="opacity:1" fill="#065e98" d="M 727.5,83.5 C 730.696,85.8972 734.362,87.0638 738.5,87C 735.37,92.094 732.37,97.2606 729.5,102.5C 728.528,96.1939 727.861,89.8606 727.5,83.5 Z"/></g>
<g><path style="opacity:1" fill="#04619d" d="M 795.5,90.5 C 803.622,92.2975 809.289,96.9641 812.5,104.5C 803.294,102.376 794.294,99.5426 785.5,96C 789.024,94.4068 792.358,92.5735 795.5,90.5 Z"/></g>
<g><path style="opacity:1" fill="#2b2324" d="M 311.5,116.5 C 311.5,118.167 311.5,119.833 311.5,121.5C 313.5,121.5 315.5,121.5 317.5,121.5C 322.509,123.878 324.509,127.878 323.5,133.5C 314.064,132.268 309.897,136.268 311,145.5C 313.196,150.54 316.696,151.707 321.5,149C 326.482,144.3 327.815,138.633 325.5,132C 325.905,131.055 326.572,130.388 327.5,130C 332.418,128.876 336.918,129.709 341,132.5C 347.78,129.134 353.78,130.134 359,135.5C 359.667,137.167 359.667,138.833 359,140.5C 349.682,148.651 340.849,157.317 332.5,166.5C 339.4,172.182 341.234,179.182 338,187.5C 336.457,189.378 334.624,190.878 332.5,192C 337.211,195.625 342.544,197.125 348.5,196.5C 347.193,205.611 342.526,212.445 334.5,217C 337.86,219.546 341.526,221.379 345.5,222.5C 344.183,228.632 341.183,233.799 336.5,238C 338.899,238.711 341.232,238.544 343.5,237.5C 343.663,246.005 340.997,253.672 335.5,260.5C 339.007,270.053 337.007,278.386 329.5,285.5C 330.729,286.281 332.062,286.781 333.5,287C 328.198,297.637 319.865,304.637 308.5,308C 319.688,315.871 325.521,326.705 326,340.5C 327.333,343.833 328.667,347.167 330,350.5C 334.623,356.792 339.623,362.792 345,368.5C 347.811,372.766 349.311,377.433 349.5,382.5C 375.408,383.769 386.241,371.769 382,346.5C 380.389,340.614 378.223,334.947 375.5,329.5C 370.825,337.184 364.992,343.851 358,349.5C 355.48,338.587 354.146,327.587 354,316.5C 355.826,311.835 358.826,308.168 363,305.5C 362.957,301.327 361.957,297.327 360,293.5C 355.981,298.437 350.814,301.771 344.5,303.5C 344.511,291.857 345.345,280.19 347,268.5C 348.897,266.984 351.064,266.317 353.5,266.5C 351.093,227.553 360.593,191.887 382,159.5C 383.962,152.925 381.795,148.425 375.5,146C 381.686,140.889 387.186,141.389 392,147.5C 392.497,144.854 392.664,142.187 392.5,139.5C 403.636,140.303 409.302,146.303 409.5,157.5C 409.518,161.454 408.851,165.288 407.5,169C 417.422,183.595 415.088,195.762 400.5,205.5C 399.721,199.823 398.888,194.156 398,188.5C 395.373,186.012 392.54,185.845 389.5,188C 381.501,198.982 376.001,211.149 373,224.5C 368.456,242.849 368.456,261.182 373,279.5C 379.882,301.262 387.882,322.595 397,343.5C 405.018,368.455 397.851,387.622 375.5,401C 371.365,403.403 367.032,405.237 362.5,406.5C 360.833,406.5 359.167,406.5 357.5,406.5C 357.173,416.348 357.506,426.014 358.5,435.5C 358.621,441.705 360.788,447.038 365,451.5C 367.892,448.943 371.059,446.776 374.5,445C 381.639,444.913 388.639,443.913 395.5,442C 399.472,438.795 401.972,434.629 403,429.5C 407.777,433.554 410.277,438.721 410.5,445C 408.254,452.404 406.42,459.904 405,467.5C 408.173,469.613 411.673,470.613 415.5,470.5C 416.107,476.185 414.107,480.685 409.5,484C 410.956,486.266 411.79,488.766 412,491.5C 411.589,499.9 413.089,507.9 416.5,515.5C 413.718,516.952 411.218,516.619 409,514.5C 407.58,524.086 407.08,533.753 407.5,543.5C 405.533,543.739 403.699,543.406 402,542.5C 402.753,550.688 405.253,558.355 409.5,565.5C 408.333,565.833 407.167,566.167 406,566.5C 402.909,566.008 400.075,565.175 397.5,564C 399.956,566.946 402.623,569.613 405.5,572C 404.023,574.148 402.023,575.482 399.5,576C 393.349,576.966 387.349,576.466 381.5,574.5C 381.167,575.167 380.833,575.833 380.5,576.5C 382.634,585.179 384.634,593.845 386.5,602.5C 380.118,602.206 374.451,600.039 369.5,596C 365.941,591.699 362.275,587.532 358.5,583.5C 358.167,584.167 357.833,584.833 357.5,585.5C 358.949,588.732 360.116,592.065 361,595.5C 364.477,598.787 366.643,602.787 367.5,607.5C 367.489,609.854 366.656,611.854 365,613.5C 364.449,628.887 356.616,636.553 341.5,636.5C 344.429,631.084 345.429,625.418 344.5,619.5C 340.752,617.671 338.752,614.671 338.5,610.5C 338.874,606.335 339.874,602.335 341.5,598.5C 339.227,592.456 336.393,592.123 333,597.5C 332.833,598.833 332.667,600.167 332.5,601.5C 333.752,606.679 335.585,611.679 338,616.5C 338.667,617.833 338.667,619.167 338,620.5C 334.179,623.743 330.179,626.743 326,629.5C 324.19,633.29 323.023,637.29 322.5,641.5C 316.511,640.01 312.678,636.343 311,630.5C 310.854,625.52 310.021,620.686 308.5,616C 309.224,612.73 311.058,610.23 314,608.5C 315.009,606.975 315.509,605.308 315.5,603.5C 309.579,602.877 304.746,604.877 301,609.5C 299.496,612.684 297.996,615.851 296.5,619C 293.289,620.153 289.956,620.82 286.5,621C 283.196,624.81 281.696,629.31 282,634.5C 276.984,631.471 273.651,627.138 272,621.5C 272.479,613.106 272.145,604.772 271,596.5C 271.948,594.43 273.448,592.93 275.5,592C 284.833,591.667 294.167,591.333 303.5,591C 307.595,588.426 307.428,586.593 303,585.5C 298.771,586.799 294.604,588.299 290.5,590C 283.972,590.974 280.639,588.141 280.5,581.5C 273.88,581.227 268.38,583.561 264,588.5C 259.869,581.364 261.035,575.197 267.5,570C 271.554,567.306 275.888,565.139 280.5,563.5C 282.024,561.142 284.024,559.309 286.5,558C 290.905,557.304 295.239,557.637 299.5,559C 305.221,562.527 311.221,565.527 317.5,568C 320.303,568.755 322.97,568.422 325.5,567C 334.947,553.22 344.78,539.72 355,526.5C 355.564,518.681 354.731,511.014 352.5,503.5C 350.979,504.937 349.145,505.604 347,505.5C 343.516,504.667 340.016,504.501 336.5,505C 336.043,505.414 335.709,505.914 335.5,506.5C 339.506,510.68 342.506,515.514 344.5,521C 341.684,523.929 338.184,525.096 334,524.5C 331.833,524.333 329.667,524.167 327.5,524C 324.684,522.183 322.184,520.017 320,517.5C 305.715,523.512 293.548,520.678 283.5,509C 291.471,506.787 299.138,503.787 306.5,500C 312.064,493.861 313.897,486.694 312,478.5C 307.905,469.729 302.239,462.062 295,455.5C 287.646,445.421 284.312,434.087 285,421.5C 269.54,413.001 255.873,415.334 244,428.5C 236.538,439.191 235.538,450.525 241,462.5C 243.408,464.956 246.241,466.789 249.5,468C 254.861,468.609 260.195,468.442 265.5,467.5C 267.256,468.552 267.923,470.219 267.5,472.5C 265.894,481.217 261.227,487.717 253.5,492C 260.094,494.614 265.927,493.447 271,488.5C 271.887,493.072 271.22,497.405 269,501.5C 265.5,506.333 261.333,510.5 256.5,514C 261.927,513.547 267.261,512.38 272.5,510.5C 270.473,521.717 263.806,529.217 252.5,533C 254.833,534 257.167,535 259.5,536C 250.345,543.553 240.178,545.386 229,541.5C 230.469,546.681 233.302,551.181 237.5,555C 231.947,556.57 226.281,556.903 220.5,556C 218.336,555.086 216.336,553.919 214.5,552.5C 214.167,553 213.833,553.5 213.5,554C 214.406,556.791 215.073,559.624 215.5,562.5C 204.379,563.605 195.379,559.772 188.5,551C 187.207,550.51 185.873,550.343 184.5,550.5C 184.372,552.655 184.872,554.655 186,556.5C 196.138,562.899 197.305,570.899 189.5,580.5C 193.023,590.868 190.19,599.202 181,605.5C 180.281,599.623 178.781,593.957 176.5,588.5C 166.323,589.15 162.489,584.484 165,574.5C 168.412,570.865 169.412,566.532 168,561.5C 167.019,558.311 165.686,557.978 164,560.5C 163.864,568.562 163.197,576.562 162,584.5C 159.896,590.825 155.729,593.491 149.5,592.5C 143.324,598.848 140.157,606.515 140,615.5C 132.201,609.482 130.701,602.316 135.5,594C 122.64,590.954 120.306,584.287 128.5,574C 132.771,570.611 137.605,568.778 143,568.5C 143.1,565.097 143.934,561.93 145.5,559C 141.671,558.242 138.338,559.242 135.5,562C 132.479,566.018 129.146,569.684 125.5,573C 120.614,573.13 115.947,572.463 111.5,571C 107.114,572.93 103.948,576.097 102,580.5C 94.4314,571.59 94.7647,562.923 103,554.5C 103.333,550.167 103.667,545.833 104,541.5C 105.333,539.167 107.333,538.167 110,538.5C 114.785,539.69 119.618,540.69 124.5,541.5C 125.5,541.167 126.5,540.833 127.5,540.5C 122.375,539.354 117.875,537.021 114,533.5C 112.876,527.897 112.21,522.231 112,516.5C 109.188,512.338 105.355,509.505 100.5,508C 109.235,503.534 118.068,503.367 127,507.5C 131.99,504.538 136.656,504.872 141,508.5C 141.171,513.533 141.671,518.533 142.5,523.5C 162.365,525.183 176.532,516.849 185,498.5C 185.636,481.785 178.136,470.285 162.5,464C 157.833,463.333 153.167,463.333 148.5,464C 145.477,465.182 143.811,467.349 143.5,470.5C 144.28,473.393 145.613,476.06 147.5,478.5C 138.914,484.824 131.747,483.49 126,474.5C 125.393,470.463 125.56,466.463 126.5,462.5C 122.813,461.824 119.48,460.324 116.5,458C 114.167,455 111.833,452 109.5,449C 101.316,447.917 96.6494,451.417 95.5,459.5C 96.2038,466.312 97.5372,472.978 99.5,479.5C 87.0229,478.281 81.3562,471.281 82.5,458.5C 83.9754,435.186 96.3087,424.02 119.5,425C 121.081,425.707 122.581,426.54 124,427.5C 124.517,410.337 132.684,404.837 148.5,411C 144.609,416.801 144.609,422.468 148.5,428C 152.113,428.208 155.446,427.208 158.5,425C 164.833,418 171.167,411 177.5,404C 184.956,397.882 192.956,392.549 201.5,388C 206.644,385.73 211.978,384.063 217.5,383C 226.859,382.517 236.192,382.517 245.5,383C 243.014,379.863 241.181,376.363 240,372.5C 239,366.833 238,361.167 237,355.5C 233.211,345.608 228.211,344.942 222,353.5C 221.257,355.441 221.424,357.274 222.5,359C 220.029,359.706 217.695,359.373 215.5,358C 210.797,354.09 207.464,349.256 205.5,343.5C 200.421,348.008 198.421,353.674 199.5,360.5C 193.138,361.406 189.305,358.74 188,352.5C 182.301,357.865 176.967,363.531 172,369.5C 166.729,362.367 163.396,354.367 162,345.5C 158.405,354.372 158.905,363.038 163.5,371.5C 157.835,372.555 153.002,370.889 149,366.5C 149.942,374.472 146.442,378.305 138.5,378C 135.133,381.703 131.466,385.036 127.5,388C 124.986,389.252 122.32,389.752 119.5,389.5C 121.232,383.61 121.732,377.61 121,371.5C 117.18,368.101 116.513,364.101 119,359.5C 120.667,357.167 122.333,354.833 124,352.5C 124.089,348.29 122.256,347.457 118.5,350C 116.623,352.251 115.123,354.751 114,357.5C 114.079,362.005 114.579,366.505 115.5,371C 115.435,373.591 114.935,376.091 114,378.5C 112.527,380.007 110.693,380.674 108.5,380.5C 105.911,380.4 103.578,379.9 101.5,379C 96.1531,383.173 92.1531,388.34 89.5,394.5C 87.5269,391.754 86.0269,388.754 85,385.5C 84.9457,377.889 84.1124,370.389 82.5,363C 82.6148,361.105 83.2815,359.438 84.5,358C 79.2533,356.919 75.2533,354.086 72.5,349.5C 66.1861,351.229 61.0195,354.563 57,359.5C 53.0297,349.708 55.5297,342.208 64.5,337C 62.76,327.426 66.76,324.093 76.5,327C 81.0007,329.063 85.6673,330.063 90.5,330C 92.013,327.546 91.3463,325.879 88.5,325C 82.125,325.955 77.2917,323.788 74,318.5C 73.8568,314.381 73.1901,310.381 72,306.5C 68.3811,302.885 64.2144,300.051 59.5,298C 68.9815,291.654 78.9815,290.821 89.5,295.5C 92.6645,293.806 95.9978,293.306 99.5,294C 101.049,295.214 102.215,296.714 103,298.5C 103.931,305.863 107.098,312.029 112.5,317C 114.9,318.701 117.567,319.534 120.5,319.5C 134.572,315.066 148.905,311.732 163.5,309.5C 163.382,306.312 162.549,303.312 161,300.5C 160.667,295.167 160.333,289.833 160,284.5C 158.891,288.689 158.058,293.023 157.5,297.5C 154.053,296.361 151.219,294.361 149,291.5C 146.882,286.029 145.549,280.362 145,274.5C 142.361,277.281 140.861,280.614 140.5,284.5C 138.282,283.076 136.782,281.076 136,278.5C 134.34,271.584 133.174,264.584 132.5,257.5C 128.576,259.68 126.409,263.014 126,267.5C 122.817,262.62 120.817,257.287 120,251.5C 118.127,253.709 115.96,255.542 113.5,257C 111.633,257.711 110.133,257.211 109,255.5C 105.158,263.981 99.3247,265.648 91.5,260.5C 95.9186,256.008 97.7519,250.675 97,244.5C 90.4309,242.484 88.9309,238.65 92.5,233C 89.2464,232.75 86.2464,231.75 83.5,230C 82.1387,228.416 81.472,226.582 81.5,224.5C 76.0055,224.665 70.6721,225.665 65.5,227.5C 64.7424,218.349 68.2424,211.349 76,206.5C 77.6291,202.069 80.1291,198.236 83.5,195C 84.8333,194.333 86.1667,194.333 87.5,195C 90.9895,197.911 94.6562,200.578 98.5,203C 104.563,203.422 106.73,200.589 105,194.5C 104.167,193.667 103.333,192.833 102.5,192C 97.5624,191.127 92.729,189.961 88,188.5C 85.9283,185.068 85.2617,181.402 86,177.5C 91.2988,173.954 91.9655,169.621 88,164.5C 86.6667,161.833 84.6667,159.833 82,158.5C 81.3333,157.833 81.3333,157.167 82,156.5C 90.9876,151.54 98.8209,153.04 105.5,161C 107.796,161.091 110.13,160.924 112.5,160.5C 119.408,160.575 122.741,164.075 122.5,171C 120.856,177.418 120.356,183.918 121,190.5C 125.75,191.791 128.416,189.791 129,184.5C 129.681,180.798 129.515,177.131 128.5,173.5C 128.719,172.062 129.219,170.729 130,169.5C 133.557,167.481 137.223,165.814 141,164.5C 142.843,158.617 144.177,152.617 145,146.5C 155.496,153.495 159.329,163.162 156.5,175.5C 161.161,181.792 161.661,188.458 158,195.5C 155.766,197.7 153.266,199.533 150.5,201C 144.712,205.389 143.212,210.889 146,217.5C 151.577,221.706 157.41,225.54 163.5,229C 168.506,233.526 172.673,238.693 176,244.5C 183.457,250.48 191.623,255.314 200.5,259C 204.916,261.412 208.749,264.578 212,268.5C 214.285,263.04 214.951,257.373 214,251.5C 211.582,246.228 207.415,244.061 201.5,245C 204.556,239.727 209.056,236.56 215,235.5C 220.424,236.96 225.591,239.126 230.5,242C 231.833,242.667 233.167,242.667 234.5,242C 230.089,239.259 226.756,235.592 224.5,231C 214.962,232.448 205.295,232.781 195.5,232C 186.959,230.648 179.793,226.814 174,220.5C 168.583,205.849 172.416,194.349 185.5,186C 187.473,185.505 189.473,185.338 191.5,185.5C 191.324,190.723 190.657,195.89 189.5,201C 191.441,213.149 198.441,217.483 210.5,214C 215.439,212.564 219.772,210.064 223.5,206.5C 219.182,201.681 214.682,197.015 210,192.5C 208.627,190.305 208.294,187.971 209,185.5C 226.971,176.85 243.304,165.85 258,152.5C 258.458,149.442 258.124,146.442 257,143.5C 252.599,130.795 248.099,118.129 243.5,105.5C 245.212,102.209 247.545,101.709 250.5,104C 256.516,113.008 264.849,116.341 275.5,114C 281.915,117.181 282.249,119.847 276.5,122C 275.299,122.903 274.465,124.069 274,125.5C 273.333,129.167 273.333,132.833 274,136.5C 278.738,143.013 283.738,143.013 289,136.5C 290.004,133.007 289.504,129.841 287.5,127C 284.692,126.08 282.525,126.913 281,129.5C 280.533,120.306 285.033,116.139 294.5,117C 297.482,112.341 301.482,108.841 306.5,106.5C 309.681,109.024 311.348,112.357 311.5,116.5 Z"/></g>
<g><path style="opacity:1" fill="#04609b" d="M 725.5,106.5 C 725.913,110.178 725.079,113.844 723,117.5C 720.716,119.984 718.216,120.151 715.5,118C 713.668,116.511 712.835,114.678 713,112.5C 714.913,114.187 717.08,114.687 719.5,114C 722.094,111.914 724.094,109.414 725.5,106.5 Z"/></g>
<g><path style="opacity:1" fill="#232723" d="M 762.5,110.5 C 763.497,110.47 764.164,110.97 764.5,112C 764.138,113.225 763.638,114.391 763,115.5C 759.801,117.883 756.301,119.55 752.5,120.5C 752.351,119.448 752.517,118.448 753,117.5C 756.609,115.718 759.776,113.385 762.5,110.5 Z"/></g>
<g><path style="opacity:1" fill="#175433" d="M 810.5,110.5 C 811.748,111.334 812.415,112.667 812.5,114.5C 812.489,116.045 812.156,117.378 811.5,118.5C 811.721,115.721 811.388,113.054 810.5,110.5 Z"/></g>
<g><path style="opacity:1" fill="#f3b114" d="M 307.5,120.5 C 307.5,122.5 307.5,124.5 307.5,126.5C 308.791,126.737 309.791,126.404 310.5,125.5C 313.798,125.016 316.464,126.016 318.5,128.5C 312.268,130.566 307.768,134.566 305,140.5C 304.065,151.899 309.232,156.733 320.5,155C 329.51,150.836 333.843,143.669 333.5,133.5C 336.135,134.811 338.469,136.478 340.5,138.5C 343.5,137.833 346.5,137.167 349.5,136.5C 351.33,136.776 352.997,137.443 354.5,138.5C 346.651,146.183 338.651,153.683 330.5,161C 307.819,155.913 284.986,151.413 262,147.5C 258.594,136.448 255.094,125.448 251.5,114.5C 252.723,113.386 254.056,113.219 255.5,114C 258.128,115.626 260.461,117.626 262.5,120C 264.5,120.667 266.5,120.667 268.5,120C 270.659,117.484 272.992,117.151 275.5,119C 268.487,125.472 266.654,133.305 270,142.5C 277.7,149.445 285.034,149.112 292,141.5C 294.156,135.734 293.989,130.068 291.5,124.5C 293.413,123.949 295.413,123.782 297.5,124C 299.141,119.884 301.641,116.384 305,113.5C 306.523,115.569 307.357,117.903 307.5,120.5 Z"/></g>
<g><path style="opacity:1" fill="#0164a3" d="M 773.5,117.5 C 785.595,120.857 797.595,124.524 809.5,128.5C 810.583,129.365 810.749,130.365 810,131.5C 793.044,139.146 775.878,145.979 758.5,152C 763.369,140.431 768.369,128.931 773.5,117.5 Z"/></g>
<g><path style="opacity:1" fill="#702227" d="M 311.5,116.5 C 312.434,117.568 312.768,118.901 312.5,120.5C 314.415,120.216 316.081,120.549 317.5,121.5C 315.5,121.5 313.5,121.5 311.5,121.5C 311.5,119.833 311.5,118.167 311.5,116.5 Z"/></g>
<g><path style="opacity:1" fill="#222321" d="M 759.5,120.5 C 761.355,120.272 762.188,120.939 762,122.5C 759.5,125 757,127.5 754.5,130C 751.689,132.331 750.189,131.831 750,128.5C 753.516,126.172 756.682,123.505 759.5,120.5 Z"/></g>
<g><path style="opacity:1" fill="#916c1a" d="M 307.5,120.5 C 307.972,122.531 308.972,124.198 310.5,125.5C 309.791,126.404 308.791,126.737 307.5,126.5C 307.5,124.5 307.5,122.5 307.5,120.5 Z"/></g>
<g><path style="opacity:1" fill="#4a3b38" d="M 612.5,132.5 C 622.442,132.734 631.609,135.4 640,140.5C 650.935,139.15 661.768,139.817 672.5,142.5C 677.418,141.116 682.418,140.116 687.5,139.5C 689.634,139.515 691.634,140.015 693.5,141C 702.246,152.415 701.246,162.749 690.5,172C 687.392,173.759 684.059,174.592 680.5,174.5C 684.701,183.578 688.368,192.911 691.5,202.5C 688.232,203.487 684.898,203.82 681.5,203.5C 682.252,210.005 684.418,216.005 688,221.5C 693.864,227.699 700.031,233.532 706.5,239C 703.452,239.606 700.952,241.106 699,243.5C 698.48,245.289 698.813,246.956 700,248.5C 711.611,258.553 725.111,263.387 740.5,263C 735.019,268.525 728.352,271.025 720.5,270.5C 725.5,275 730.5,279.5 735.5,284C 733.655,285.423 731.655,286.59 729.5,287.5C 729.667,287.833 729.833,288.167 730,288.5C 735.456,292.287 740.623,296.454 745.5,301C 752.593,307.39 756.76,314.89 758,323.5C 754.069,322.451 750.903,320.285 748.5,317C 747.207,316.51 745.873,316.343 744.5,316.5C 744.259,319.794 745.092,322.794 747,325.5C 750.833,330.667 754.667,335.833 758.5,341C 754.6,343.3 751.1,342.8 748,339.5C 747.833,340.167 747.667,340.833 747.5,341.5C 751.509,348.185 755.009,355.185 758,362.5C 758.667,367.167 758.667,371.833 758,376.5C 751.815,400.878 738.648,420.545 718.5,435.5C 718.072,412.176 717.905,388.843 718,365.5C 716.452,358.628 712.452,354.294 706,352.5C 704.405,346.077 700.571,341.744 694.5,339.5C 690.63,341.172 686.63,341.672 682.5,341C 678.043,336.554 673.709,332.054 669.5,327.5C 667.616,328.693 667.116,330.359 668,332.5C 670.583,336.087 672.75,339.92 674.5,344C 672.869,345.926 671.035,347.76 669,349.5C 668.833,351 668.667,352.5 668.5,354C 670.369,362.081 671.203,370.247 671,378.5C 666.968,375.391 662.468,373.891 657.5,374C 663.717,381.561 665.883,390.061 664,399.5C 662.824,403.866 660.658,407.533 657.5,410.5C 654.463,409.098 651.463,407.765 648.5,406.5C 648.343,407.873 648.51,409.207 649,410.5C 652.861,416.888 656.194,423.554 659,430.5C 659.497,433.146 659.664,435.813 659.5,438.5C 656.215,438.731 653.715,437.397 652,434.5C 651.333,435.167 650.667,435.833 650,436.5C 649.667,446.5 649.333,456.5 649,466.5C 646.791,473.84 645.291,481.34 644.5,489C 651.442,515.078 658.275,541.245 665,567.5C 668.673,573.185 671.173,579.352 672.5,586C 669.773,600.285 663.94,613.118 655,624.5C 649.623,630.208 644.623,636.208 640,642.5C 637.671,647.319 635.838,652.319 634.5,657.5C 631.269,656.231 628.936,654.065 627.5,651C 624.202,650.458 621.035,650.958 618,652.5C 615.618,651.256 613.785,649.423 612.5,647C 609.937,646.846 607.437,647.346 605,648.5C 603.18,647.396 601.68,645.896 600.5,644C 598.1,643.814 595.766,643.314 593.5,642.5C 599.439,633.726 606.606,626.06 615,619.5C 619.156,614.678 622.489,609.345 625,603.5C 625.778,596.629 625.612,589.795 624.5,583C 624.15,581.743 623.483,581.409 622.5,582C 620.707,584.795 618.54,587.295 616,589.5C 613.554,584.78 610.721,580.28 607.5,576C 607.167,575.833 606.833,575.667 606.5,575.5C 605.333,577.167 604.167,578.833 603,580.5C 601.531,576.43 599.865,572.43 598,568.5C 596.341,569.817 595.174,571.483 594.5,573.5C 593.635,574.583 592.635,574.749 591.5,574C 587.623,568.415 584.123,562.582 581,556.5C 579.817,555.269 578.651,555.269 577.5,556.5C 576.985,558.225 576.318,559.892 575.5,561.5C 572.78,558.726 571.113,555.393 570.5,551.5C 569.325,551.281 568.325,551.614 567.5,552.5C 566.752,554.332 565.752,555.999 564.5,557.5C 563.749,556.624 563.249,555.624 563,554.5C 562.667,549.5 562.333,544.5 562,539.5C 560.667,537.5 559.333,535.5 558,533.5C 557.722,529.806 557.722,526.139 558,522.5C 555.957,520.792 554.29,518.792 553,516.5C 552.672,511.475 552.672,506.475 553,501.5C 552,499.167 550.333,497.5 548,496.5C 547.667,490.5 547.333,484.5 547,478.5C 543.739,481.021 542.073,484.355 542,488.5C 538.603,490.885 536.437,494.051 535.5,498C 536.404,501.738 538.737,503.905 542.5,504.5C 540.963,509.247 539.13,513.913 537,518.5C 536.5,527.16 536.334,535.827 536.5,544.5C 533.398,544.846 530.565,544.179 528,542.5C 527.667,542.833 527.333,543.167 527,543.5C 526.249,552.169 525.916,560.835 526,569.5C 528.448,573.615 531.281,577.448 534.5,581C 530.812,581.413 527.646,580.246 525,577.5C 524.348,580.594 524.682,583.594 526,586.5C 529,591.833 532,597.167 535,602.5C 536.652,607.846 535.152,612.013 530.5,615C 520.828,618.003 511.828,622.336 503.5,628C 498.544,634.746 493.71,641.579 489,648.5C 486.079,652.092 482.579,654.925 478.5,657C 476.5,657.667 474.5,657.667 472.5,657C 468.764,651.925 463.764,649.592 457.5,650C 454.664,644.215 449.998,641.881 443.5,643C 441,639.167 438.5,635.333 436,631.5C 434.788,628.166 435.621,625.666 438.5,624C 447.941,623.807 456.941,621.807 465.5,618C 474.081,611.098 480.747,602.765 485.5,593C 485.241,591.739 484.574,590.739 483.5,590C 477.755,587.737 473.922,583.57 472,577.5C 467.27,563.799 463.604,549.799 461,535.5C 458.474,532.937 456.807,533.603 456,537.5C 455.667,537.167 455.333,536.833 455,536.5C 454.979,530.776 454.813,525.109 454.5,519.5C 453.635,518.417 452.635,518.251 451.5,519C 449.65,521.018 447.65,522.851 445.5,524.5C 445.167,524 444.833,523.5 444.5,523C 448.199,514.43 453.032,506.596 459,499.5C 464.333,480.164 473.333,462.831 486,447.5C 492.201,436.571 494.201,424.905 492,412.5C 494.993,405.845 498.493,399.512 502.5,393.5C 499.615,392.193 497.282,390.193 495.5,387.5C 497.821,382.864 500.655,378.531 504,374.5C 505.009,372.975 505.509,371.308 505.5,369.5C 501.077,370.575 499.077,368.908 499.5,364.5C 504.264,348.562 514.264,337.062 529.5,330C 531.081,329.293 532.581,328.46 534,327.5C 536.085,334.169 539.585,340.002 544.5,345C 547.916,345.893 551.083,345.393 554,343.5C 552.846,321.439 557.179,300.439 567,280.5C 568.167,275 566,272.833 560.5,274C 553.624,277.87 547.624,282.87 542.5,289C 535.211,290.447 528.044,292.28 521,294.5C 522.36,287.779 525.36,281.779 530,276.5C 536.66,268.937 544.16,262.437 552.5,257C 566.008,249.412 579.674,242.079 593.5,235C 598.941,231.193 604.108,227.027 609,222.5C 609.617,221.551 609.451,220.718 608.5,220C 602.103,219.818 595.77,219.152 589.5,218C 586.872,216.374 584.539,214.374 582.5,212C 595.932,212.078 609.266,211.078 622.5,209C 636.913,205.006 640.413,196.506 633,183.5C 626.391,175.463 617.891,171.797 607.5,172.5C 595.189,173.951 582.856,174.784 570.5,175C 568.376,173.878 566.543,172.378 565,170.5C 562.584,165.999 559.917,161.666 557,157.5C 556.506,155.866 556.34,154.199 556.5,152.5C 566.144,153.527 575.811,153.693 585.5,153C 591.703,149.803 597.036,145.47 601.5,140C 604.886,136.982 608.553,134.482 612.5,132.5 Z"/></g>
<g><path style="opacity:1" fill="#222522" d="M 750.5,136.5 C 751.5,136.5 752.5,136.5 753.5,136.5C 753.226,142.165 750.226,145.499 744.5,146.5C 743,146.547 742,145.881 741.5,144.5C 745.14,142.525 748.14,139.858 750.5,136.5 Z"/></g>
<g><path style="opacity:1" fill="#272222" d="M 615.5,137.5 C 620.959,137.103 626.292,137.603 631.5,139C 635.281,143.098 638.115,147.598 640,152.5C 631.081,157.426 623.247,156.092 616.5,148.5C 617.167,147.167 617.833,145.833 618.5,144.5C 617.212,142.261 616.212,139.928 615.5,137.5 Z"/></g>
<g><path style="opacity:1" fill="#b5252e" d="M 620.5,138.5 C 630.256,137.636 633.589,141.97 630.5,151.5C 628.359,149.472 627.026,146.972 626.5,144C 624.341,143.088 622.175,142.255 620,141.5C 619.53,140.423 619.697,139.423 620.5,138.5 Z"/></g>
<g><path style="opacity:1" fill="#fab613" d="M 807.5,138.5 C 808.552,138.351 809.552,138.517 810.5,139C 804.198,219.735 798.531,300.568 793.5,381.5C 781.756,385.637 770.089,389.97 758.5,394.5C 758.336,391.813 758.503,389.146 759,386.5C 761.481,381.029 764.315,375.862 767.5,371C 766.945,363.054 764.278,355.888 759.5,349.5C 759.667,349.167 759.833,348.833 760,348.5C 762.305,350.93 765.138,351.93 768.5,351.5C 767.291,346.761 764.791,342.761 761,339.5C 758.767,336.341 757.934,333.008 758.5,329.5C 760.924,330.423 762.924,331.923 764.5,334C 765.784,334.684 766.951,334.517 768,333.5C 767.186,328.557 766.186,323.557 765,318.5C 760.417,310.751 755.25,303.418 749.5,296.5C 752.166,294.165 755.166,292.331 758.5,291C 750.584,286.532 743.584,280.865 737.5,274C 745.724,270.443 752.057,264.776 756.5,257C 750.833,256.667 745.167,256.333 739.5,256C 738.424,254.274 738.257,252.441 739,250.5C 744.107,233.955 751.107,218.289 760,203.5C 763,200.833 766,198.167 769,195.5C 769.738,191.598 769.072,187.932 767,184.5C 764.959,180.916 762.792,177.416 760.5,174C 757.29,174.742 753.957,175.242 750.5,175.5C 751.796,170.072 753.796,164.906 756.5,160C 773.723,153.101 790.723,145.934 807.5,138.5 Z"/></g>
<g><path style="opacity:1" fill="#f1f1f1" d="M 619.5,145.5 C 622.358,145.595 624.691,146.762 626.5,149C 622.004,152.708 619.671,151.542 619.5,145.5 Z"/></g>
<g><path style="opacity:1" fill="#fcfcfc" d="M 398.5,146.5 C 401.452,147.359 403.285,149.359 404,152.5C 404.851,158.942 404.351,165.275 402.5,171.5C 404.318,174.462 406.151,177.462 408,180.5C 408.667,184.5 408.667,188.5 408,192.5C 407.028,194.305 405.861,195.972 404.5,197.5C 404.355,191.556 402.355,186.389 398.5,182C 396.167,181.333 393.833,181.333 391.5,182C 388.705,183.793 386.205,185.96 384,188.5C 362.523,225.422 359.856,263.756 376,303.5C 382.509,316.848 388.176,330.514 393,344.5C 400.784,370.338 392.617,388.838 368.5,400C 364.205,400.912 359.872,401.579 355.5,402C 353.026,404.041 352.026,406.708 352.5,410C 353.892,422.127 354.725,434.293 355,446.5C 356.511,452.365 360.011,456.532 365.5,459C 366.635,459.749 367.635,459.583 368.5,458.5C 369.702,455.132 372.035,452.966 375.5,452C 383.983,452.493 391.983,450.827 399.5,447C 401.377,444.749 402.877,442.249 404,439.5C 405.044,446.324 403.711,452.657 400,458.5C 398.989,462.781 399.823,466.614 402.5,470C 404.842,471.171 407.176,472.338 409.5,473.5C 408.148,474.896 406.481,475.563 404.5,475.5C 401.876,474.345 399.209,473.511 396.5,473C 400.422,476.251 403.588,480.084 406,484.5C 406.57,492.186 406.904,499.852 407,507.5C 403.962,504.797 401.295,501.797 399,498.5C 399.383,503.355 400.716,508.022 403,512.5C 403.667,519.5 403.667,526.5 403,533.5C 402.667,534.167 402.333,534.833 402,535.5C 399.23,533.399 397.23,530.732 396,527.5C 394.936,528.944 394.436,530.611 394.5,532.5C 395.846,542.051 398.513,551.218 402.5,560C 395.255,557.438 389.755,552.605 386,545.5C 385.39,549.236 385.723,552.903 387,556.5C 389.745,561.349 392.412,566.015 395,570.5C 390.921,571.629 386.755,571.796 382.5,571C 379.337,568.584 376.004,566.418 372.5,564.5C 371.167,565.167 370.167,566.167 369.5,567.5C 375.659,576.315 378.993,585.982 379.5,596.5C 372.338,591.924 366.005,586.424 360.5,580C 355.924,579.05 352.924,580.883 351.5,585.5C 352.815,587.316 354.315,588.983 356,590.5C 355.651,596.799 357.984,601.799 363,605.5C 363.667,606.833 363.667,608.167 363,609.5C 360.4,610.593 357.734,610.593 355,609.5C 351.003,611.222 346.836,612.222 342.5,612.5C 343.652,608.855 344.818,605.188 346,601.5C 347.739,589.58 342.906,585.747 331.5,590C 328.58,594.368 327.747,599.201 329,604.5C 329.867,608.931 331.033,613.264 332.5,617.5C 331.163,623.34 328.829,623.84 325.5,619C 321.879,616.91 318.379,617.077 315,619.5C 314.333,617.833 314.333,616.167 315,614.5C 317.565,612.037 319.065,609.037 319.5,605.5C 319.524,601.027 317.357,598.693 313,598.5C 309.767,598.7 306.933,599.867 304.5,602C 300.296,607.369 295.63,612.202 290.5,616.5C 288.625,613.249 286.625,610.082 284.5,607C 281.242,606.788 278.076,606.288 275,605.5C 274.777,601.78 276.277,598.947 279.5,597C 288.56,596.882 297.56,596.215 306.5,595C 311.079,592.436 312.912,588.603 312,583.5C 309.591,581.418 306.757,580.418 303.5,580.5C 297.236,582.468 290.902,584.134 284.5,585.5C 285.986,581.01 287.653,576.51 289.5,572C 288.551,569.694 287.551,567.361 286.5,565C 286.645,564.228 286.978,563.561 287.5,563C 290.167,562.333 292.833,562.333 295.5,563C 300.341,565.921 305.341,568.588 310.5,571C 318.903,575.229 326.403,574.062 333,567.5C 338.396,559.766 343.396,551.766 348,543.5C 353.14,539.365 357.14,534.365 360,528.5C 361.091,515.296 359.091,502.629 354,490.5C 351.864,494.629 349.031,498.129 345.5,501C 340.826,501.333 336.16,501.167 331.5,500.5C 330.734,507.2 332.401,513.2 336.5,518.5C 334.45,519.663 332.45,519.496 330.5,518C 327.882,515.261 325.382,512.427 323,509.5C 315.479,515.228 306.979,517.062 297.5,515C 295.884,514.385 294.551,513.385 293.5,512C 311.146,507.698 319.646,496.532 319,478.5C 317.254,474.673 315.254,471.007 313,467.5C 303.701,458.886 296.368,448.886 291,437.5C 290.84,430.437 290.173,423.437 289,416.5C 285.115,409.777 280.282,403.777 274.5,398.5C 286.932,394.133 295.099,398.133 299,410.5C 299.333,417.167 299.667,423.833 300,430.5C 300.689,431.357 301.522,432.023 302.5,432.5C 303.665,423.853 303.832,415.186 303,406.5C 299.752,400.25 294.919,395.75 288.5,393C 280.849,393.494 273.182,393.828 265.5,394C 256.846,391.01 250.346,385.51 246,377.5C 242.702,367.014 240.702,356.347 240,345.5C 247.257,337.653 251.757,328.653 253.5,318.5C 252.391,317.41 251.391,317.41 250.5,318.5C 247.629,326.865 243.296,334.365 237.5,341C 233.134,344.373 229.134,344.206 225.5,340.5C 221.525,342.642 218.358,345.642 216,349.5C 211.709,344.248 209.042,338.248 208,331.5C 201.476,337.219 196.976,344.219 194.5,352.5C 191.573,346.043 190.406,339.376 191,332.5C 188.395,337.571 186.395,342.904 185,348.5C 181.654,353.179 177.654,357.179 173,360.5C 167.656,356.141 165.656,350.475 167,343.5C 168.707,341.091 169.54,338.425 169.5,335.5C 161.11,337.398 156.277,342.731 155,351.5C 154.755,355.853 154.755,360.187 155,364.5C 148.26,358.43 142.26,351.763 137,344.5C 138.187,350.219 140.52,355.553 144,360.5C 144.817,363.964 144.483,367.298 143,370.5C 141.806,371.43 140.473,372.097 139,372.5C 136.551,371.056 134.385,369.222 132.5,367C 129.518,366.502 126.518,366.335 123.5,366.5C 123.861,361.778 125.361,357.444 128,353.5C 129.247,342.735 125.247,340.069 116,345.5C 113.497,348.502 111.497,351.835 110,355.5C 109.5,361.825 109.334,368.158 109.5,374.5C 107.143,374.663 104.81,374.497 102.5,374C 100.5,371.333 98.5,368.667 96.5,366C 94.1667,365.667 91.8333,365.333 89.5,365C 86.0069,363.522 85.6736,361.522 88.5,359C 91.7302,357.692 95.0636,356.692 98.5,356C 102.934,354.253 104.768,351.086 104,346.5C 103.275,344.051 102.275,341.717 101,339.5C 99.2739,338.424 97.4406,338.257 95.5,339C 92.2567,342.821 89.2567,346.821 86.5,351C 84.3046,352.373 81.9712,352.706 79.5,352C 77.6487,350.316 75.982,348.483 74.5,346.5C 76.6409,341.118 75.1409,337.118 70,334.5C 69.5172,333.552 69.3505,332.552 69.5,331.5C 75.5851,331.694 81.4184,333.028 87,335.5C 90.7751,334.735 93.7751,332.735 96,329.5C 96.7805,328.056 96.6139,326.723 95.5,325.5C 90.2817,323.361 84.9484,321.528 79.5,320C 76.9299,317.385 76.9299,314.718 79.5,312C 83.0894,311.793 86.5894,311.293 90,310.5C 91.1268,307.623 91.7935,304.623 92,301.5C 94.0008,296.811 96.3341,296.478 99,300.5C 101.425,320.299 112.259,327.466 131.5,322C 143.523,318.658 155.523,315.324 167.5,312C 176.344,298.857 188.678,290.857 204.5,288C 205.667,286.833 206.833,285.667 208,284.5C 211.683,276.469 215.35,268.469 219,260.5C 219.667,256.5 219.667,252.5 219,248.5C 218.167,246.333 216.667,244.833 214.5,244C 219.648,242.891 224.315,243.891 228.5,247C 232.833,247.667 237.167,247.667 241.5,247C 248.435,244.521 255.435,242.354 262.5,240.5C 268.135,241.814 273.468,243.98 278.5,247C 280.167,247.667 281.833,247.667 283.5,247C 287.299,242.199 291.466,237.699 296,233.5C 296.783,231.681 296.283,230.348 294.5,229.5C 290.647,232.519 287.313,236.019 284.5,240C 282.933,241.076 281.266,241.909 279.5,242.5C 276.128,241.299 273.128,239.466 270.5,237C 264.114,235.791 258.114,236.791 252.5,240C 249.167,240.667 245.833,240.667 242.5,240C 238.868,237.37 235.535,234.37 232.5,231C 240.121,231.771 247.787,232.104 255.5,232C 266.991,228.861 271.825,221.361 270,209.5C 268.633,203.641 265.799,198.641 261.5,194.5C 259.958,193.253 258.458,193.253 257,194.5C 257.904,197.026 258.238,199.692 258,202.5C 256.829,203.893 255.329,204.727 253.5,205C 245.5,205.667 237.5,205.667 229.5,205C 223.723,202.226 219.723,197.893 217.5,192C 218.26,188.712 219.593,185.712 221.5,183C 231.667,177.084 241.667,170.917 251.5,164.5C 252.919,166.336 254.086,168.336 255,170.5C 254.685,176.592 256.851,181.425 261.5,185C 265.26,186.071 268.26,185.071 270.5,182C 273.146,181.503 275.813,181.336 278.5,181.5C 277.527,176.353 274.527,172.853 269.5,171C 265.605,169.734 261.605,169.234 257.5,169.5C 257.02,166.995 256.02,164.662 254.5,162.5C 256.494,159.844 259.16,158.51 262.5,158.5C 282.909,161.568 303.242,165.068 323.5,169C 328.727,171.393 332.394,175.226 334.5,180.5C 333.116,186.551 329.449,190.218 323.5,191.5C 324.211,195.382 326.544,197.882 330.5,199C 334.833,199.333 339.167,199.667 343.5,200C 338.544,206.977 332.21,212.31 324.5,216C 329.178,220.329 334.178,224.163 339.5,227.5C 334.348,233.152 329.015,238.652 323.5,244C 328.857,244.957 334.024,244.457 339,242.5C 333.097,257.423 323.097,269.09 309,277.5C 308.316,278.784 308.483,279.951 309.5,281C 311.635,281.635 313.635,281.301 315.5,280C 321.348,274.319 327.015,268.485 332.5,262.5C 334.551,270.246 332.217,276.412 325.5,281C 320.031,283.988 314.365,286.488 308.5,288.5C 310.167,288.833 311.833,289.167 313.5,289.5C 317.25,289.069 320.916,288.569 324.5,288C 317.399,297.765 308.065,304.431 296.5,308C 301.328,311.581 306.328,314.915 311.5,318C 314.629,321.752 317.129,325.919 319,330.5C 320.483,341.772 323.817,352.439 329,362.5C 334,368.167 339,373.833 344,379.5C 344.752,382.894 344.585,386.227 343.5,389.5C 355.951,390.111 367.951,387.944 379.5,383C 384.285,378.931 387.119,373.764 388,367.5C 392.04,348.319 387.373,331.652 374,317.5C 371.904,325.024 368.238,331.691 363,337.5C 359.851,331.56 358.851,325.226 360,318.5C 362.978,314.76 366.478,311.593 370.5,309C 368.184,300.883 365.184,293.05 361.5,285.5C 358.124,288.878 354.457,291.878 350.5,294.5C 350.167,293.167 349.833,291.833 349.5,290.5C 350.09,285.509 350.59,280.509 351,275.5C 353.495,272.172 356.329,269.172 359.5,266.5C 357.117,263.039 356.117,259.206 356.5,255C 357.261,222.764 366.427,193.264 384,166.5C 386.427,162.46 388.094,158.126 389,153.5C 391.393,155.619 392.726,158.285 393,161.5C 395.735,156.793 397.568,151.793 398.5,146.5 Z"/></g>
<g><path style="opacity:1" fill="#232422" d="M 743.5,150.5 C 744.5,150.5 745.5,150.5 746.5,150.5C 746.487,157.175 743.154,160.842 736.5,161.5C 736.351,160.448 736.517,159.448 737,158.5C 739.758,156.249 741.925,153.582 743.5,150.5 Z"/></g>
<g><path style="opacity:1" fill="#e6a716" d="M 262.5,151.5 C 284.638,153.561 306.305,157.728 327.5,164C 326.228,165.046 324.728,165.546 323,165.5C 302.248,161.385 281.415,157.718 260.5,154.5C 261.193,153.482 261.859,152.482 262.5,151.5 Z"/></g>
<g><path style="opacity:1" fill="#ebab15" d="M 147.5,155.5 C 153.514,161.035 155.014,167.701 152,175.5C 149.716,177.984 147.216,178.151 144.5,176C 143.106,175.044 142.439,173.711 142.5,172C 145.186,166.799 146.852,161.299 147.5,155.5 Z"/></g>
<g><path style="opacity:1" fill="#f3b114" d="M 88.5,159.5 C 94.7228,157.406 99.8895,159.073 104,164.5C 105.14,167.528 104.306,169.695 101.5,171C 98.8333,171.667 96.1667,171.667 93.5,171C 92.7256,168.595 92.2256,166.095 92,163.5C 91.34,161.676 90.1733,160.343 88.5,159.5 Z"/></g>
<g><path style="opacity:1" fill="#fbfbfb" d="M 112.5,164.5 C 115.238,163.965 117.072,164.965 118,167.5C 118.07,174.406 117.236,181.24 115.5,188C 116.72,199.614 121.554,201.448 130,193.5C 131.932,187.327 132.932,180.994 133,174.5C 133.707,172.919 134.54,171.419 135.5,170C 136.784,169.316 137.951,169.483 139,170.5C 141.133,179.407 146.799,183.407 156,182.5C 156.755,185.303 156.422,187.97 155,190.5C 151.282,194.273 147.116,197.44 142.5,200C 140.951,201.214 139.785,202.714 139,204.5C 139.506,219.342 146.672,229.509 160.5,235C 163.333,237.833 166.167,240.667 169,243.5C 170.302,247.274 172.469,250.441 175.5,253C 186.445,258.721 197.278,264.554 208,270.5C 207.486,274.876 205.819,278.876 203,282.5C 193.897,286.653 184.73,290.819 175.5,295C 172.269,297.727 169.603,300.894 167.5,304.5C 163.105,298.578 162.439,292.245 165.5,285.5C 164.93,280.435 162.263,277.601 157.5,277C 155.85,280.94 155.017,285.107 155,289.5C 149.001,282.519 148.168,275.019 152.5,267C 152.167,266.5 151.833,266 151.5,265.5C 146.772,267.437 142.939,270.437 140,274.5C 138.806,272.377 138.14,270.043 138,267.5C 137.562,262.13 137.562,256.797 138,251.5C 137.163,249.993 135.996,249.493 134.5,250C 131.328,252.006 128.662,254.506 126.5,257.5C 125.09,254.505 124.423,251.339 124.5,248C 126.289,239.982 125.789,232.148 123,224.5C 121.286,223.075 119.953,223.408 119,225.5C 118.934,233.271 118.267,240.938 117,248.5C 115.144,251.119 112.644,251.952 109.5,251C 107.101,245.101 102.768,241.601 96.5,240.5C 95.0598,237.772 95.7265,235.605 98.5,234C 103.09,232.502 107.59,231.002 112,229.5C 114.016,220.966 110.849,216.466 102.5,216C 99.0216,219.299 96.0216,222.966 93.5,227C 89.4737,228.337 86.4737,227.17 84.5,223.5C 90.1911,216.692 89.6911,210.359 83,204.5C 82.51,203.207 82.3433,201.873 82.5,200.5C 88.4808,201.992 93.8141,204.825 98.5,209C 102.898,210.378 106.398,209.212 109,205.5C 111.98,198.67 110.814,192.837 105.5,188C 100.682,186.131 95.6825,185.131 90.5,185C 89.2489,180.81 90.5823,177.477 94.5,175C 97.0472,174.34 99.5472,174.507 102,175.5C 106.851,173.138 110.351,169.471 112.5,164.5 Z"/></g>
<g><path style="opacity:1" fill="#222121" d="M 740.5,165.5 C 742.225,165.843 742.725,166.843 742,168.5C 740.5,170 739,171.5 737.5,173C 736.365,173.749 735.365,173.583 734.5,172.5C 736.523,170.147 738.523,167.814 740.5,165.5 Z"/></g>
<g><path style="opacity:1" fill="#242020" d="M 637.5,168.5 C 641.791,169.236 644.958,171.569 647,175.5C 651.626,186.807 651.626,198.14 647,209.5C 645.163,213.181 642.33,215.515 638.5,216.5C 638.336,213.813 638.503,211.146 639,208.5C 642.37,202.389 644.537,195.889 645.5,189C 644.135,182.111 640.802,176.277 635.5,171.5C 636.193,170.482 636.859,169.482 637.5,168.5 Z"/></g>
<g><path style="opacity:1" fill="#2f2b2c" d="M 316.5,171.5 C 317.552,171.351 318.552,171.517 319.5,172C 321.993,173.566 323.993,175.566 325.5,178C 322.839,181.649 320.172,185.316 317.5,189C 315.866,189.494 314.199,189.66 312.5,189.5C 311.533,184.633 313.533,182.466 318.5,183C 321.341,179.481 320.507,176.981 316,175.5C 315.421,174.072 315.588,172.738 316.5,171.5 Z"/></g>
<g><path style="opacity:1" fill="#c4252f" d="M 523.5,172.5 C 528.268,175.42 532.934,178.586 537.5,182C 546.381,186.407 555.714,187.741 565.5,186C 568.784,189.405 571.95,192.905 575,196.5C 575.893,195.289 576.726,195.289 577.5,196.5C 575.914,198.67 574.58,201.004 573.5,203.5C 559.862,204.231 547.862,200.064 537.5,191C 533.333,186.833 529.167,182.667 525,178.5C 523.872,176.655 523.372,174.655 523.5,172.5 Z"/></g>
<g><path style="opacity:1" fill="#c0242f" d="M 259.5,173.5 C 264.416,173.29 268.749,174.79 272.5,178C 269.155,180.241 265.489,180.908 261.5,180C 259.771,178.211 259.104,176.044 259.5,173.5 Z"/></g>
<g><path style="opacity:1" fill="#dcdbdb" d="M 600.5,177.5 C 602.527,177.338 604.527,177.505 606.5,178C 604.317,180.35 601.984,182.517 599.5,184.5C 594.065,180.801 594.398,178.468 600.5,177.5 Z"/></g>
<g><path style="opacity:1" fill="#f2f1f1" d="M 612.5,179.5 C 615.356,178.102 618.022,178.602 620.5,181C 619.601,182.236 618.434,183.07 617,183.5C 615.285,182.396 613.785,181.062 612.5,179.5 Z"/></g>
<g><path style="opacity:1" fill="#ebebeb" d="M 582.5,179.5 C 585.187,179.336 587.854,179.503 590.5,180C 589.139,181.584 588.472,183.418 588.5,185.5C 584.833,185.167 582.833,183.167 582.5,179.5 Z"/></g>
<g><path style="opacity:1" fill="#dbdada" d="M 568.5,180.5 C 571.287,179.523 574.287,179.19 577.5,179.5C 577.301,181.96 576.635,184.293 575.5,186.5C 572.507,185.167 570.173,183.167 568.5,180.5 Z"/></g>
<g><path style="opacity:1" fill="#f0ae14" d="M 707.5,179.5 C 708.097,179.735 708.43,180.235 708.5,181C 705.709,193.666 702.375,206.166 698.5,218.5C 695.645,215.48 692.979,212.313 690.5,209C 692.5,208.667 694.5,208.333 696.5,208C 697.022,207.439 697.355,206.772 697.5,206C 696.139,202.111 694.639,198.278 693,194.5C 692.502,191.518 692.335,188.518 692.5,185.5C 697.895,184.296 702.895,182.296 707.5,179.5 Z"/></g>
<g><path style="opacity:1" fill="#232c25" d="M 736.5,179.5 C 739.244,180.072 740.077,181.738 739,184.5C 737.007,186.378 734.841,186.712 732.5,185.5C 733.467,183.21 734.8,181.21 736.5,179.5 Z"/></g>
<g><path style="opacity:1" fill="#bf252f" d="M 608.5,183.5 C 611.242,184.938 613.576,186.938 615.5,189.5C 618.377,186.742 621.711,185.242 625.5,185C 629.533,188.168 630.367,192.001 628,196.5C 626.255,195.044 624.422,193.711 622.5,192.5C 620.854,193.779 619.687,195.445 619,197.5C 616.603,194.6 613.77,192.267 610.5,190.5C 609.197,193.437 607.53,196.103 605.5,198.5C 602.737,196.371 599.904,194.371 597,192.5C 594.602,194.951 592.436,197.618 590.5,200.5C 588.201,199.365 586.034,198.032 584,196.5C 580.711,200.674 579.878,200.174 581.5,195C 580.421,192.845 579.087,190.845 577.5,189C 578.593,187.635 579.926,187.301 581.5,188C 583.333,189.833 585.167,191.667 587,193.5C 588.689,190.109 590.856,187.109 593.5,184.5C 597.142,186.975 600.642,189.642 604,192.5C 606.038,189.757 607.538,186.757 608.5,183.5 Z"/></g>
<g><path style="opacity:1" fill="#222923" d="M 737.5,189.5 C 738.675,189.281 739.675,189.614 740.5,190.5C 738.755,194.408 736.422,197.908 733.5,201C 732.167,201.667 730.833,201.667 729.5,201C 728.549,200.282 728.383,199.449 729,198.5C 732.714,196.287 735.548,193.287 737.5,189.5 Z"/></g>
<g><path style="opacity:1" fill="#c2252f" d="M 184.5,191.5 C 185.586,191.62 186.253,192.287 186.5,193.5C 182.987,204.646 186.32,213.146 196.5,219C 206.75,220.673 216.417,219.006 225.5,214C 227.976,212.691 229.976,210.858 231.5,208.5C 240.586,211.24 249.586,211.074 258.5,208C 259.685,206.647 261.019,205.48 262.5,204.5C 263.799,205.09 264.632,206.09 265,207.5C 265.667,210.167 265.667,212.833 265,215.5C 264.804,217.286 263.971,218.619 262.5,219.5C 259.812,216.978 256.979,214.644 254,212.5C 253.718,218.282 252.218,218.782 249.5,214C 248.365,213.251 247.365,213.417 246.5,214.5C 245.333,216.833 244.167,219.167 243,221.5C 241.315,219.983 239.815,218.316 238.5,216.5C 237.307,218.527 235.64,220.027 233.5,221C 220.072,227.422 206.072,229.422 191.5,227C 179.553,222.61 174.719,214.11 177,201.5C 178.947,197.724 181.447,194.39 184.5,191.5 Z"/></g>
<g><path style="opacity:1" fill="#292526" d="M 271.5,198.5 C 277.52,199.688 281.02,203.355 282,209.5C 283.01,214.558 282.51,219.391 280.5,224C 279.207,224.49 277.873,224.657 276.5,224.5C 277.459,218.862 277.626,213.195 277,207.5C 276.057,204.891 274.39,202.891 272,201.5C 271.517,200.552 271.351,199.552 271.5,198.5 Z"/></g>
<g><path style="opacity:1" fill="#e8e7e7" d="M 622.5,198.5 C 627.34,199.188 627.673,200.855 623.5,203.5C 622.548,201.955 622.215,200.288 622.5,198.5 Z"/></g>
<g><path style="opacity:1" fill="#eeeeee" d="M 611.5,198.5 C 614.778,199.809 617.778,201.642 620.5,204C 616.88,205.579 613.214,205.745 609.5,204.5C 610.747,202.677 611.414,200.677 611.5,198.5 Z"/></g>
<g><path style="opacity:1" fill="#f1f1f1" d="M 597.5,200.5 C 600.121,201.121 601.788,202.788 602.5,205.5C 599.914,206.48 597.247,206.813 594.5,206.5C 594.615,204.053 595.615,202.053 597.5,200.5 Z"/></g>
<g><path style="opacity:1" fill="#e5e4e5" d="M 584.5,200.5 C 585.376,200.369 586.043,200.702 586.5,201.5C 589.586,206.788 587.919,208.621 581.5,207C 580.833,206.333 580.167,205.667 579.5,205C 581.66,204.004 583.327,202.504 584.5,200.5 Z"/></g>
<g><path style="opacity:1" fill="#f3b114" d="M 76.5,209.5 C 78.7224,209.178 80.5557,209.845 82,211.5C 82.6667,214.5 82.6667,217.5 82,220.5C 77.531,220.978 73.1977,221.978 69,223.5C 69.632,217.906 72.132,213.24 76.5,209.5 Z"/></g>
<g><path style="opacity:1" fill="#222f26" d="M 731.5,208.5 C 735.884,208.03 739.884,209.03 743.5,211.5C 740.943,211.782 738.277,211.949 735.5,212C 733.104,216.117 730.771,216.284 728.5,212.5C 729.524,211.148 730.524,209.815 731.5,208.5 Z"/></g>
<g><path style="opacity:1" fill="#222723" d="M 735.5,216.5 C 736.833,216.5 738.167,216.5 739.5,216.5C 739.719,217.675 739.386,218.675 738.5,219.5C 734.614,221.055 731.28,223.388 728.5,226.5C 727.319,224.865 727.319,223.198 728.5,221.5C 731.077,220.057 733.41,218.39 735.5,216.5 Z"/></g>
<g><path style="opacity:1" fill="#e6e5e6" d="M 255.5,218.5 C 260.653,219.548 261.319,221.548 257.5,224.5C 256.523,222.589 255.857,220.589 255.5,218.5 Z"/></g>
<g><path style="opacity:1" fill="#bd252e" d="M 102.5,221.5 C 107.528,221.718 109.195,224.218 107.5,229C 104.167,229.667 100.833,229.667 97.5,229C 99.3009,226.557 100.968,224.057 102.5,221.5 Z"/></g>
<g><path style="opacity:1" fill="#e7e7e7" d="M 247.5,220.5 C 250.26,221.423 252.26,223.256 253.5,226C 250.535,227.498 247.535,227.665 244.5,226.5C 246.038,224.757 247.038,222.757 247.5,220.5 Z"/></g>
<g><path style="opacity:1" fill="#222622" d="M 732.5,227.5 C 736.527,227.281 737.194,228.448 734.5,231C 731.638,231.93 729.305,233.597 727.5,236C 726.056,236.781 724.723,236.614 723.5,235.5C 725.968,232.121 728.968,229.454 732.5,227.5 Z"/></g>
<g><path style="opacity:1" fill="#f9b513" d="M 429.5,355.5 C 428.503,335.34 428.17,315.007 428.5,294.5C 480.649,272.623 532.982,251.457 585.5,231C 568.968,240.208 552.968,250.208 537.5,261C 526.373,271.582 517.706,283.915 511.5,298C 478.745,309.612 451.412,328.779 429.5,355.5 Z"/></g>
<g><path style="opacity:1" fill="#222823" d="M 729.5,238.5 C 732.275,238.834 732.941,240.167 731.5,242.5C 728.879,244.813 725.879,246.147 722.5,246.5C 722.351,245.448 722.517,244.448 723,243.5C 725.352,241.97 727.519,240.303 729.5,238.5 Z"/></g>
<g><path style="opacity:1" fill="#ebab14" d="M 101.5,251.5 C 108.084,253.753 108.084,256.586 101.5,260C 99.597,260.774 97.9304,260.44 96.5,259C 99.2044,257.14 100.871,254.64 101.5,251.5 Z"/></g>
<g><path style="opacity:1" fill="#c2252f" d="M 557.5,279.5 C 558.978,279.238 560.311,279.571 561.5,280.5C 551.231,297.62 546.897,316.12 548.5,336C 539.499,329.692 536.332,320.859 539,309.5C 539.532,306.736 540.366,304.07 541.5,301.5C 535.098,300.877 528.765,301.71 522.5,304C 501.233,313.294 481.233,324.628 462.5,338C 449.076,352.367 436.243,367.2 424,382.5C 423.333,378.167 423.333,373.833 424,369.5C 450.078,334.2 484.245,310.366 526.5,298C 532.515,297.256 538.515,296.423 544.5,295.5C 547.426,288.956 551.76,283.623 557.5,279.5 Z"/></g>
<g><path style="opacity:1" fill="#5a451c" d="M 428.5,294.5 C 428.17,315.007 428.503,335.34 429.5,355.5C 429.44,356.043 429.107,356.376 428.5,356.5C 427.172,335.671 427.172,315.004 428.5,294.5 Z"/></g>
<g><path style="opacity:1" fill="#f0af14" d="M 72.5,296.5 C 78.9323,295.347 84.4323,297.014 89,301.5C 88.9943,307.805 85.8277,309.971 79.5,308C 77.3333,304.5 74.5,301.667 71,299.5C 70.7613,298.212 71.2613,297.212 72.5,296.5 Z"/></g>
<g><path style="opacity:1" fill="#493a37" d="M 530.5,304.5 C 532.288,304.215 533.955,304.548 535.5,305.5C 534.633,308.935 533.466,312.269 532,315.5C 524.381,318.475 517.381,322.475 511,327.5C 510.333,326.167 510.333,324.833 511,323.5C 512.791,320.007 514.124,316.341 515,312.5C 515.833,311.667 516.667,310.833 517.5,310C 522.255,308.815 526.588,306.982 530.5,304.5 Z"/></g>
<g><path style="opacity:1" fill="#f6b313" d="M 500.5,319.5 C 502.167,319.5 503.833,319.5 505.5,319.5C 504.771,324.293 502.937,328.626 500,332.5C 489.339,338.164 479.506,344.997 470.5,353C 454.963,369.535 439.797,386.368 425,403.5C 424.333,398.5 424.333,393.5 425,388.5C 434.333,377.833 443.667,367.167 453,356.5C 467.588,342.393 483.422,330.06 500.5,319.5 Z"/></g>
<g><path style="opacity:1" fill="#c3252f" d="M 531.5,319.5 C 532.5,319.5 533.5,319.5 534.5,319.5C 534.762,320.978 534.429,322.311 533.5,323.5C 520.355,329.235 508.355,336.735 497.5,346C 471.477,371.679 447.311,398.846 425,427.5C 424.333,423.167 424.333,418.833 425,414.5C 444.732,386.767 467.899,362.267 494.5,341C 506.273,332.783 518.607,325.616 531.5,319.5 Z"/></g>
<g><path style="opacity:1" fill="#ecac15" d="M 65.5,340.5 C 70.3277,339.84 72.161,341.84 71,346.5C 67.4745,348.067 63.9745,349.733 60.5,351.5C 59.1556,346.519 60.8222,342.852 65.5,340.5 Z"/></g>
<g><path style="opacity:1" fill="#ba252e" d="M 95.5,344.5 C 98.9549,345.128 100.122,347.128 99,350.5C 95.8347,352.993 92.3347,354.493 88.5,355C 90.7568,351.278 93.0901,347.778 95.5,344.5 Z"/></g>
<g><path style="opacity:1" fill="#efae14" d="M 677.5,349.5 C 681.229,349.687 683.896,351.353 685.5,354.5C 683.652,362.226 681.652,369.892 679.5,377.5C 676.757,374.347 675.423,370.68 675.5,366.5C 676.653,360.89 677.319,355.223 677.5,349.5 Z"/></g>
<g><path style="opacity:1" fill="#01a24e" d="M 699.5,354.5 C 702.766,354.433 704.266,356.099 704,359.5C 704.667,362.5 704.667,365.5 704,368.5C 702.41,370.65 701.743,372.983 702,375.5C 705.294,372.371 708.46,369.037 711.5,365.5C 713.977,369.35 714.144,373.35 712,377.5C 707.817,382.491 704.317,387.825 701.5,393.5C 702.552,393.649 703.552,393.483 704.5,393C 706.833,390 709.167,387 711.5,384C 712.448,383.517 713.448,383.351 714.5,383.5C 712.785,418.013 711.118,452.513 709.5,487C 709.759,488.261 710.426,489.261 711.5,490C 716.706,490.738 719.039,493.738 718.5,499C 717.18,508.267 715.347,517.433 713,526.5C 710.807,534.536 712.973,541.036 719.5,546C 724.175,548.336 728.508,551.169 732.5,554.5C 734.708,558.417 737.041,562.25 739.5,566C 742.378,567.599 745.044,569.433 747.5,571.5C 744.662,573.102 741.662,573.602 738.5,573C 735.055,569.469 731.389,566.136 727.5,563C 721.337,561.994 715.837,563.494 711,567.5C 701.788,561.288 694.288,553.455 688.5,544C 690.144,540.641 690.644,537.141 690,533.5C 688.667,532.167 687.333,532.167 686,533.5C 684.772,539.951 682.439,545.951 679,551.5C 675.906,555.311 672.073,556.644 667.5,555.5C 664.711,544.914 662.211,534.248 660,523.5C 659.333,520.167 659.333,516.833 660,513.5C 671.746,491.625 676.079,468.291 673,443.5C 677.721,424.452 680.388,405.119 681,385.5C 683.107,372.601 689.273,362.268 699.5,354.5 Z"/></g>
<g><path style="opacity:1" fill="#fab613" d="M 494.5,354.5 C 495.043,354.56 495.376,354.893 495.5,355.5C 492.28,360.607 489.613,365.94 487.5,371.5C 487.22,373.623 488.053,374.956 490,375.5C 496.877,370.745 498.211,372.078 494,379.5C 488.464,383.857 484.297,389.19 481.5,395.5C 481.608,396.442 481.941,397.275 482.5,398C 485.193,398.027 486.527,399.36 486.5,402C 485.148,404.261 484.481,406.761 484.5,409.5C 488.226,423.133 486.726,436.133 480,448.5C 476.909,453.014 473.575,457.347 470,461.5C 465.186,472.951 460.186,484.284 455,495.5C 451.243,498.936 446.743,500.436 441.5,500C 439.675,501.466 439.175,503.299 440,505.5C 442.25,506.708 444.417,508.041 446.5,509.5C 442.975,518.626 437.141,525.626 429,530.5C 428.333,497.833 428.333,465.167 429,432.5C 448.036,404.285 469.869,378.285 494.5,354.5 Z"/></g>
<g><path style="opacity:1" fill="#f2b014" d="M 90.5,370.5 C 94.0238,371.095 96.6905,372.928 98.5,376C 96.0332,379.634 93.0332,382.801 89.5,385.5C 87.9563,380.247 88.2896,375.247 90.5,370.5 Z"/></g>
<g><path style="opacity:1" fill="#edad15" d="M 126.5,373.5 C 130.525,372.578 132.859,374.078 133.5,378C 132.042,383.322 128.709,385.489 123.5,384.5C 125.031,380.979 126.031,377.312 126.5,373.5 Z"/></g>
<g><path style="opacity:1" fill="#edad15" d="M 675.5,388.5 C 675.818,393.032 675.485,397.366 674.5,401.5C 672.83,401.249 671.33,400.582 670,399.5C 668.263,393.918 668.096,388.251 669.5,382.5C 672.545,383.544 674.545,385.544 675.5,388.5 Z"/></g>
<g><path style="opacity:1" fill="#fcfcfc" d="M 229.5,386.5 C 236.031,385.988 242.364,386.822 248.5,389C 255.504,393.837 262.837,398.171 270.5,402C 274.5,406 278.5,410 282.5,414C 277.639,413.059 272.639,412.559 267.5,412.5C 249.188,413.577 237.355,422.911 232,440.5C 229.032,452.456 231.865,462.622 240.5,471C 242.717,472.275 245.051,473.275 247.5,474C 252.238,474.112 256.904,474.278 261.5,474.5C 256.399,481.771 250.732,488.604 244.5,495C 245.878,496.713 247.545,498.047 249.5,499C 253.882,499.457 258.216,499.457 262.5,499C 255.652,506.015 248.652,512.848 241.5,519.5C 247.807,520.331 254.141,520.831 260.5,521C 252.026,525.199 243.026,527.699 233.5,528.5C 236.885,532.707 241.218,535.54 246.5,537C 238.132,537.74 229.798,537.574 221.5,536.5C 221.578,541.735 223.245,546.402 226.5,550.5C 226.167,550.833 225.833,551.167 225.5,551.5C 219.39,549.279 213.723,546.279 208.5,542.5C 207.202,546.715 207.202,550.882 208.5,555C 206.5,555.667 204.5,555.667 202.5,555C 196.819,551.827 191.486,548.161 186.5,544C 183.083,543.124 180.583,544.291 179,547.5C 178.333,550.833 178.333,554.167 179,557.5C 182.692,561.406 186.192,565.406 189.5,569.5C 189.278,571.055 188.611,572.389 187.5,573.5C 184.215,574.324 180.882,574.824 177.5,575C 175.54,577.866 173.874,580.866 172.5,584C 171.551,584.617 170.718,584.451 170,583.5C 168.886,578.959 169.886,574.959 173,571.5C 173.518,567.449 173.184,563.449 172,559.5C 169.596,553.805 166.262,553.138 162,557.5C 160.414,559.67 159.08,562.004 158,564.5C 157.934,570.837 157.934,577.17 158,583.5C 155.615,590.644 152.449,591.144 148.5,585C 147.271,584.219 145.938,583.719 144.5,583.5C 140.934,585.3 137.267,586.466 133.5,587C 129.473,583.689 129.807,580.689 134.5,578C 138.777,575.946 142.943,573.779 147,571.5C 147.333,568.833 147.667,566.167 148,563.5C 149.555,561.557 150.722,559.39 151.5,557C 151.095,556.055 150.428,555.388 149.5,555C 143.982,553.713 138.982,554.713 134.5,558C 130.743,561.086 127.743,564.752 125.5,569C 124.056,569.781 122.723,569.614 121.5,568.5C 123.131,558.3 118.798,553.133 108.5,553C 105.024,547.283 106.691,544.116 113.5,543.5C 121.033,545.266 128.366,544.766 135.5,542C 136.357,541.311 137.023,540.478 137.5,539.5C 131.441,536.632 125.441,533.465 119.5,530C 117.675,528.534 117.175,526.701 118,524.5C 120.042,522.396 122.542,521.229 125.5,521C 128.881,517.153 131.714,512.986 134,508.5C 135.885,508.862 136.719,510.029 136.5,512C 135.521,515.804 135.355,519.638 136,523.5C 136.93,525.552 138.43,527.052 140.5,528C 152.667,529.875 163.667,527.208 173.5,520C 194.096,502.091 194.763,483.424 175.5,464C 166.334,458.657 156.668,457.323 146.5,460C 141.044,464.088 138.711,469.588 139.5,476.5C 134.084,476.917 131.417,474.417 131.5,469C 131.329,465.871 132.162,463.037 134,460.5C 136.333,457.5 138.667,454.5 141,451.5C 141.749,450.365 141.583,449.365 140.5,448.5C 137.399,450.098 134.732,452.265 132.5,455C 124.917,459.473 120.084,457.306 118,448.5C 116.786,446.951 115.286,445.785 113.5,445C 97.0101,442.482 88.8435,449.649 89,466.5C 83.6822,452.939 87.1822,442.106 99.5,434C 103.531,431.742 107.865,430.575 112.5,430.5C 117.939,431.651 123.272,432.984 128.5,434.5C 128.334,429.821 128.501,425.155 129,420.5C 131.202,415.273 135.035,413.106 140.5,414C 140.957,414.414 141.291,414.914 141.5,415.5C 137.799,423.451 139.466,429.951 146.5,435C 150.738,435.823 154.738,435.156 158.5,433C 166.803,423.696 175.469,414.696 184.5,406C 197.906,395.626 212.906,389.126 229.5,386.5 Z"/></g>
<g><path style="opacity:1" fill="#0065a5" d="M 790.5,387.5 C 791.748,388.334 792.415,389.667 792.5,391.5C 789.998,427.525 787.165,463.525 784,499.5C 782.649,511.608 780.649,523.608 778,535.5C 774.842,546.799 772.009,558.132 769.5,569.5C 754.534,572.906 744.368,567.572 739,553.5C 735.266,550.048 731.1,547.215 726.5,545C 723.567,542.736 721.4,539.902 720,536.5C 719.333,529.833 719.333,523.167 720,516.5C 723.079,506.238 723.746,495.904 722,485.5C 720.088,484.308 718.088,483.308 716,482.5C 715.333,469.5 715.333,456.5 716,443.5C 733.665,434.001 747.165,420.335 756.5,402.5C 767.935,397.476 779.268,392.476 790.5,387.5 Z"/></g>
<g><path style="opacity:1" fill="#232522" d="M 707.5,393.5 C 708.833,393.5 710.167,393.5 711.5,393.5C 710.005,397.839 707.171,401.173 703,403.5C 701.56,402.07 701.226,400.403 702,398.5C 704.191,397.167 706.024,395.5 707.5,393.5 Z"/></g>
<g><path style="opacity:1" fill="#6c521d" d="M 675.5,388.5 C 676.812,393.015 676.812,397.682 675.5,402.5C 674.893,402.376 674.56,402.043 674.5,401.5C 675.485,397.366 675.818,393.032 675.5,388.5 Z"/></g>
<g><path style="opacity:1" fill="#f1af14" d="M 672.5,404.5 C 673.156,405.622 673.489,406.955 673.5,408.5C 672.776,415.181 671.943,421.847 671,428.5C 669.582,430.363 667.749,430.863 665.5,430C 663.718,427.757 663.218,425.257 664,422.5C 667.937,418.291 669.937,413.291 670,407.5C 671.045,406.627 671.878,405.627 672.5,404.5 Z"/></g>
<g><path style="opacity:1" fill="#222923" d="M 707.5,404.5 C 708.391,409.713 706.058,413.38 700.5,415.5C 699.479,414.998 699.312,414.332 700,413.5C 703.088,410.919 705.588,407.919 707.5,404.5 Z"/></g>
<g><path style="opacity:1" fill="#8e232a" d="M 362.5,406.5 C 361.432,407.434 360.099,407.768 358.5,407.5C 358.5,416.833 358.5,426.167 358.5,435.5C 357.506,426.014 357.173,416.348 357.5,406.5C 359.167,406.5 360.833,406.5 362.5,406.5 Z"/></g>
<g><path style="opacity:1" fill="#222321" d="M 707.5,412.5 C 708.649,412.791 709.316,413.624 709.5,415C 708.6,419.041 706.933,422.708 704.5,426C 700.505,428.349 699.005,427.182 700,422.5C 702.717,419.29 705.217,415.956 707.5,412.5 Z"/></g>
<g><path style="opacity:1" fill="#222522" d="M 704.5,429.5 C 706.903,429.695 708.57,430.862 709.5,433C 706.2,435.992 702.866,438.992 699.5,442C 698.552,442.483 697.552,442.649 696.5,442.5C 696.343,441.127 696.51,439.793 697,438.5C 700.088,435.919 702.588,432.919 704.5,429.5 Z"/></g>
<g><path style="opacity:1" fill="#222622" d="M 704.5,441.5 C 707.076,441.722 707.91,443.055 707,445.5C 705.333,449.833 702.333,452.833 698,454.5C 696.635,453.407 696.301,452.074 697,450.5C 700.088,447.919 702.588,444.919 704.5,441.5 Z"/></g>
<g><path style="opacity:1" fill="#0263a1" d="M 667.5,441.5 C 668.621,443.089 668.454,444.756 667,446.5C 666.784,460.193 666.118,473.859 665,487.5C 664.176,494.831 661.343,501.165 656.5,506.5C 654.931,505.286 654.098,503.619 654,501.5C 652.84,495.543 652.007,489.543 651.5,483.5C 652.526,476.395 654.026,469.395 656,462.5C 656.263,457.149 656.263,451.816 656,446.5C 658.493,445.054 660.327,445.721 661.5,448.5C 662.833,445.507 664.833,443.173 667.5,441.5 Z"/></g>
<g><path style="opacity:1" fill="#222321" d="M 704.5,453.5 C 706.847,455.03 707.014,457.03 705,459.5C 702.382,461.722 699.549,463.222 696.5,464C 695.483,462.951 695.316,461.784 696,460.5C 699.606,459.057 702.439,456.724 704.5,453.5 Z"/></g>
<g><path style="opacity:1" fill="#2d292a" d="M 377.5,458.5 C 387.809,458.138 393.476,463.138 394.5,473.5C 394.085,477.767 391.919,479.434 388,478.5C 387.667,475.167 387.333,471.833 387,468.5C 384.519,462.731 381.019,462.065 376.5,466.5C 374.616,465.307 374.116,463.641 375,461.5C 376.045,460.627 376.878,459.627 377.5,458.5 Z"/></g>
<g><path style="opacity:1" fill="#222923" d="M 702.5,465.5 C 703.5,465.5 704.5,465.5 705.5,465.5C 705.649,466.552 705.483,467.552 705,468.5C 692.129,481.764 691.296,480.764 702.5,465.5 Z"/></g>
<g><path style="opacity:1" fill="#732227" d="M 265.5,467.5 C 266.209,466.596 267.209,466.263 268.5,466.5C 268.795,468.735 268.461,470.735 267.5,472.5C 267.923,470.219 267.256,468.552 265.5,467.5 Z"/></g>
<g><path style="opacity:1" fill="#222823" d="M 703.5,474.5 C 704.675,474.281 705.675,474.614 706.5,475.5C 704.119,478.929 702.285,482.596 701,486.5C 695.048,492.415 693.048,491.415 695,483.5C 698.038,480.631 700.871,477.631 703.5,474.5 Z"/></g>
<g><path style="opacity:1" fill="#222522" d="M 705.5,490.5 C 708.169,494.036 707.503,497.203 703.5,500C 701.854,501.401 700.187,501.568 698.5,500.5C 701.336,497.487 703.669,494.154 705.5,490.5 Z"/></g>
<g><path style="opacity:1" fill="#222522" d="M 711.5,494.5 C 712.5,494.5 713.5,494.5 714.5,494.5C 712.784,504.271 707.45,511.271 698.5,515.5C 696.233,514.638 695.233,512.971 695.5,510.5C 697.857,510.663 700.19,510.497 702.5,510C 706.68,505.467 709.68,500.301 711.5,494.5 Z"/></g>
<g><path style="opacity:1" fill="#f0ae14" d="M 110.5,508.5 C 114.514,508.334 118.514,508.501 122.5,509C 128.3,514.901 126.967,517.901 118.5,518C 115.223,515.234 112.557,512.067 110.5,508.5 Z"/></g>
<g><path style="opacity:1" fill="#0065a5" d="M 428.5,822.5 C 428.5,762.833 428.5,703.167 428.5,643.5C 429.833,643.5 431.167,643.5 432.5,643.5C 432.938,643.435 433.272,643.601 433.5,644C 430.677,647.709 430.843,651.209 434,654.5C 435.894,651.156 438.727,649.822 442.5,650.5C 441.966,656.569 443.133,662.235 446,667.5C 447.399,664.371 449.065,661.371 451,658.5C 451.333,661.5 451.667,664.5 452,667.5C 452.368,668.91 453.201,669.91 454.5,670.5C 455.168,665.166 457.834,661.166 462.5,658.5C 462.565,664.397 464.899,669.064 469.5,672.5C 470.83,664.013 475.83,660.18 484.5,661C 491.457,655.372 496.957,648.539 501,640.5C 503.833,637.667 506.667,634.833 509.5,632C 518.371,628.379 527.037,624.379 535.5,620C 541.164,613.941 542.998,606.774 541,598.5C 539.421,595.006 537.587,591.673 535.5,588.5C 537.307,588.677 539.307,588.344 541.5,587.5C 542.851,583.934 542.351,580.601 540,577.5C 537.036,573.534 533.703,569.867 530,566.5C 529.517,565.552 529.351,564.552 529.5,563.5C 533.092,563.216 536.259,564.216 539,566.5C 540.261,566.241 541.261,565.574 542,564.5C 542.033,555.319 541.533,546.152 540.5,537C 540.652,530.141 541.152,523.308 542,516.5C 543.264,514.393 545.097,513.393 547.5,513.5C 547.018,518.122 545.684,522.455 543.5,526.5C 543.405,530.899 545.405,533.066 549.5,533C 550.191,531.933 550.691,530.766 551,529.5C 550.854,534.824 550.854,540.157 551,545.5C 551.471,547.246 552.138,548.913 553,550.5C 554.398,551.051 555.732,551.384 557,551.5C 557.562,557.627 557.228,563.627 556,569.5C 558.064,570.591 560.231,570.758 562.5,570C 564.458,567.252 566.291,564.418 568,561.5C 569.131,566.463 570.297,571.463 571.5,576.5C 573.39,576.703 574.89,576.037 576,574.5C 577.247,571.671 578.747,569.005 580.5,566.5C 586.689,570.879 589.689,576.879 589.5,584.5C 591.5,584.5 593.5,584.5 595.5,584.5C 594.841,587.455 594.508,590.455 594.5,593.5C 599.5,591.5 604.5,589.5 609.5,587.5C 609.54,590.881 609.207,594.214 608.5,597.5C 612.695,597.319 616.195,595.653 619,592.5C 619.25,600.09 617.25,607.09 613,613.5C 605.333,622.5 597.667,631.5 590,640.5C 588.196,645.662 587.529,650.995 588,656.5C 588.739,658.221 589.573,659.887 590.5,661.5C 592.216,657.397 594.883,654.064 598.5,651.5C 598.944,658.285 600.778,664.618 604,670.5C 604.406,665.688 606.406,661.688 610,658.5C 610.006,663.567 611.673,667.9 615,671.5C 615.759,668.215 617.092,665.215 619,662.5C 618.993,668.153 621.659,671.82 627,673.5C 627.5,673.167 628,672.833 628.5,672.5C 627.425,669.562 627.259,666.562 628,663.5C 628.71,662.027 629.876,661.36 631.5,661.5C 631.047,671.057 635.381,674.724 644.5,672.5C 640.414,666.221 639.58,659.554 642,652.5C 648.641,643.196 655.975,634.53 664,626.5C 670.04,615.38 674.707,603.713 678,591.5C 678.667,588.167 678.667,584.833 678,581.5C 676.088,575.176 673.254,569.343 669.5,564C 675.741,560.427 681.407,556.094 686.5,551C 688.387,550.837 689.887,551.671 691,553.5C 693.61,561.246 698.443,567.079 705.5,571C 710.997,569.442 716.664,568.776 722.5,569C 726.183,571.687 729.517,574.687 732.5,578C 741.825,577.766 751.158,577.766 760.5,578C 762.246,578.471 763.913,579.138 765.5,580C 718.472,703.023 631.139,781.023 503.5,814C 478.763,819.225 453.763,822.058 428.5,822.5 Z"/></g>
<g><path style="opacity:1" fill="#222823" d="M 710.5,512.5 C 711.709,514.435 711.542,516.435 710,518.5C 707.297,521.538 704.297,524.205 701,526.5C 699.635,525.407 699.301,524.074 700,522.5C 704.66,520.339 708.16,517.006 710.5,512.5 Z"/></g>
<g><path style="opacity:1" fill="#222923" d="M 708.5,526.5 C 709.465,527.721 709.298,529.054 708,530.5C 706.647,531.685 705.48,533.019 704.5,534.5C 703.549,535.326 702.549,535.492 701.5,535C 704.423,532.584 706.757,529.75 708.5,526.5 Z"/></g>
<g><path style="opacity:1" fill="#0065a4" d="M 447.5,529.5 C 448.497,529.47 449.164,529.97 449.5,531C 446.641,536.891 445.475,543.058 446,549.5C 447.805,552.039 450.305,553.039 453.5,552.5C 453.12,547.927 454.453,543.927 457.5,540.5C 459.105,554.343 461.605,568.009 465,581.5C 467.46,587.592 471.627,592.092 477.5,595C 471.167,601.333 464.833,607.667 458.5,614C 450.901,616.276 443.235,618.276 435.5,620C 432.111,622.619 430.611,626.119 431,630.5C 430.333,631.167 429.667,631.833 429,632.5C 428.5,600.502 428.333,568.502 428.5,536.5C 435.382,535.555 441.716,533.221 447.5,529.5 Z"/></g>
<g><path style="opacity:1" fill="#f2b014" d="M 106.5,557.5 C 110.511,557.822 113.511,559.822 115.5,563.5C 115.023,564.478 114.357,565.311 113.5,566C 111.048,566.29 108.715,566.956 106.5,568C 101.102,573.814 99.2683,572.314 101,563.5C 103.04,561.63 104.873,559.63 106.5,557.5 Z"/></g>
<g><path style="opacity:1" fill="#f0af14" d="M 274.5,568.5 C 282.993,567.471 285.327,570.637 281.5,578C 278.167,578.333 274.833,578.667 271.5,579C 269.671,579.273 268.171,580.107 267,581.5C 267.429,575.976 269.929,571.643 274.5,568.5 Z"/></g>
<g><path style="opacity:1" fill="#f2b014" d="M 178.5,579.5 C 181.365,579.055 183.865,579.722 186,581.5C 187.224,587.304 186.224,592.638 183,597.5C 183.275,592.388 181.608,588.055 178,584.5C 177.36,582.735 177.527,581.068 178.5,579.5 Z"/></g>
<g><path style="opacity:1" fill="#e4a716" d="M 140.5,591.5 C 143.244,592.072 144.077,593.738 143,596.5C 140.833,599.5 138.667,602.5 136.5,605.5C 135.369,603.926 135.202,602.259 136,600.5C 137.498,597.505 138.998,594.505 140.5,591.5 Z"/></g>
<g><path style="opacity:1" fill="#edad15" d="M 277.5,609.5 C 278.552,609.351 279.552,609.517 280.5,610C 282.731,611.61 284.731,613.443 286.5,615.5C 282.439,618.618 279.606,622.618 278,627.5C 273.517,621.629 273.35,615.629 277.5,609.5 Z"/></g>
<g><path style="opacity:1" fill="#f0af14" d="M 352.5,614.5 C 362.367,615.312 364.033,619.479 357.5,627C 354.076,629.551 350.41,631.218 346.5,632C 347.701,631.097 348.535,629.931 349,628.5C 349.683,623.599 350.849,618.933 352.5,614.5 Z"/></g>
<g><path style="opacity:1" fill="#ecac15" d="M 316.5,621.5 C 320.245,621.203 322.911,622.703 324.5,626C 322.369,628.968 320.036,631.801 317.5,634.5C 313.886,630.507 313.553,626.173 316.5,621.5 Z"/></g>
<g><path style="opacity:1" fill="#1a3142" d="M 432.5,643.5 C 431.167,643.5 429.833,643.5 428.5,643.5C 428.5,703.167 428.5,762.833 428.5,822.5C 427.501,762.669 427.168,702.669 427.5,642.5C 429.415,642.216 431.081,642.549 432.5,643.5 Z"/></g>
</svg>
