<?xml version="1.0" encoding="UTF-8"?>
<!DOCTYPE svg PUBLIC "-//W3C//DTD SVG 1.1//EN" "http://www.w3.org/Graphics/SVG/1.1/DTD/svg11.dtd">
<svg xmlns="http://www.w3.org/2000/svg" version="1.1" width="850px" height="850px" style="shape-rendering:geometricPrecision; text-rendering:geometricPrecision; image-rendering:optimizeQuality; fill-rule:evenodd; clip-rule:evenodd" xmlns:xlink="http://www.w3.org/1999/xlink">
<g><path style="opacity:1" fill="#c8c7c7" d="M 837.5,17.5 C 837.5,15.5 837.5,13.5 837.5,11.5C 562.167,11.5 286.833,11.5 11.5,11.5C 11.5,12.8333 11.5,14.1667 11.5,15.5C 10.5489,14.0813 10.2155,12.4147 10.5,10.5C 286.5,10.5 562.5,10.5 838.5,10.5C 838.802,13.0593 838.468,15.3926 837.5,17.5 Z"/></g>
<g><path style="opacity:1" fill="#252223" d="M 837.5,17.5 C 826.95,176.207 815.783,334.873 804,493.5C 785.884,635.854 713.051,739.02 585.5,803C 483.677,848.101 381.011,850.101 277.5,809C 169.696,761.862 97.5288,682.362 61,570.5C 54.0829,547.581 49.0829,524.248 46,500.5C 33.6471,338.893 22.1471,177.227 11.5,15.5C 11.5,14.1667 11.5,12.8333 11.5,11.5C 286.833,11.5 562.167,11.5 837.5,11.5C 837.5,13.5 837.5,15.5 837.5,17.5 Z"/></g>
<g><path style="opacity:1" fill="#124262" d="M 818.5,34.5 C 818.5,32.8333 818.5,31.1667 818.5,29.5C 555.833,29.5 293.167,29.5 30.5,29.5C 30.5,30.5 30.5,31.5 30.5,32.5C 29.5655,31.4324 29.2322,30.099 29.5,28.5C 292.833,28.5 556.167,28.5 819.5,28.5C 819.795,30.7354 819.461,32.7354 818.5,34.5 Z"/></g>
<g><path style="opacity:1" fill="#0065a5" d="M 818.5,34.5 C 808.048,183.164 797.548,331.831 787,480.5C 782.776,531.662 768.943,579.995 745.5,625.5C 716.653,579.138 688.32,532.472 660.5,485.5C 660.5,361.167 660.5,236.833 660.5,112.5C 615.5,112.5 570.5,112.5 525.5,112.5C 525.5,213.833 525.5,315.167 525.5,416.5C 520.135,418.01 514.635,419.343 509,420.5C 508.5,411.173 508.334,401.839 508.5,392.5C 496.52,394.827 484.52,397.161 472.5,399.5C 472.5,409.167 472.5,418.833 472.5,428.5C 468.14,429.007 463.807,429.673 459.5,430.5C 459.5,421.167 459.5,411.833 459.5,402.5C 446.654,405.919 433.654,408.585 420.5,410.5C 420.5,420.167 420.5,429.833 420.5,439.5C 415.883,440.487 411.216,441.154 406.5,441.5C 406.5,432.5 406.5,423.5 406.5,414.5C 394.192,416.994 381.858,419.327 369.5,421.5C 369.5,431.167 369.5,440.833 369.5,450.5C 364.868,451.383 360.202,452.05 355.5,452.5C 355.5,443.5 355.5,434.5 355.5,425.5C 341.91,428.456 328.243,431.122 314.5,433.5C 314.5,443.167 314.5,452.833 314.5,462.5C 309.991,462.71 305.658,463.71 301.5,465.5C 300.5,391.836 300.167,318.17 300.5,244.5C 262.5,244.5 224.5,244.5 186.5,244.5C 186.667,355.501 186.5,466.501 186,577.5C 158.814,593.426 131.48,609.093 104,624.5C 103.228,624.355 102.561,624.022 102,623.5C 73.7167,565.882 59.3834,504.882 59,440.5C 49.5896,304.487 40.0896,168.487 30.5,32.5C 30.5,31.5 30.5,30.5 30.5,29.5C 293.167,29.5 555.833,29.5 818.5,29.5C 818.5,31.1667 818.5,32.8333 818.5,34.5 Z"/></g>
<g><path style="opacity:1" fill="#14405d" d="M 660.5,485.5 C 659.5,361.668 659.167,237.668 659.5,113.5C 615.167,113.5 570.833,113.5 526.5,113.5C 526.833,214.668 526.499,315.668 525.5,416.5C 525.5,315.167 525.5,213.833 525.5,112.5C 570.5,112.5 615.5,112.5 660.5,112.5C 660.5,236.833 660.5,361.167 660.5,485.5 Z"/></g>
<g><path style="opacity:1" fill="#5a451d" d="M 535.5,122.5 C 535.5,248.5 535.5,374.5 535.5,500.5C 536.5,500.5 537.5,500.5 538.5,500.5C 537.432,501.434 536.099,501.768 534.5,501.5C 534.167,374.999 534.5,248.666 535.5,122.5 Z"/></g>
<g><path style="opacity:1" fill="#fcb713" d="M 535.5,122.5 C 573.833,122.5 612.167,122.5 650.5,122.5C 650.667,240.5 650.5,358.5 650,476.5C 612.929,484.822 575.762,492.822 538.5,500.5C 537.5,500.5 536.5,500.5 535.5,500.5C 535.5,374.5 535.5,248.5 535.5,122.5 Z"/></g>
<g><path style="opacity:1" fill="#241f20" d="M 561.5,139.5 C 569.852,137.998 576.352,140.665 581,147.5C 582.441,156.058 582.941,164.724 582.5,173.5C 572.167,173.5 561.833,173.5 551.5,173.5C 551.124,164.765 551.624,156.098 553,147.5C 555.074,143.923 557.907,141.256 561.5,139.5 Z"/></g>
<g><path style="opacity:1" fill="#241f20" d="M 612.5,139.5 C 622.287,137.58 629.454,140.914 634,149.5C 634.5,157.493 634.666,165.493 634.5,173.5C 624.167,173.5 613.833,173.5 603.5,173.5C 603.124,164.765 603.624,156.098 605,147.5C 607.028,144.308 609.528,141.641 612.5,139.5 Z"/></g>
<g><path style="opacity:1" fill="#241f20" d="M 588.5,219.5 C 580.833,219.5 573.167,219.5 565.5,219.5C 565.5,213.167 565.5,206.833 565.5,200.5C 569.651,192.029 575.984,190.195 584.5,195C 585.787,196.41 586.954,197.91 588,199.5C 588.5,206.158 588.666,212.825 588.5,219.5 Z"/></g>
<g><path style="opacity:1" fill="#231f20" d="M 620.5,200.5 C 620.5,206.833 620.5,213.167 620.5,219.5C 612.833,219.5 605.167,219.5 597.5,219.5C 597.334,212.825 597.5,206.158 598,199.5C 603.186,191.924 609.686,190.591 617.5,195.5C 618.952,196.94 619.952,198.606 620.5,200.5 Z"/></g>
<g><path style="opacity:1" fill="#5c461c" d="M 565.5,200.5 C 565.5,206.833 565.5,213.167 565.5,219.5C 573.167,219.5 580.833,219.5 588.5,219.5C 580.684,220.492 572.684,220.826 564.5,220.5C 564.176,213.646 564.509,206.979 565.5,200.5 Z"/></g>
<g><path style="opacity:1" fill="#5c471d" d="M 620.5,200.5 C 621.491,206.979 621.824,213.646 621.5,220.5C 613.316,220.826 605.316,220.492 597.5,219.5C 605.167,219.5 612.833,219.5 620.5,219.5C 620.5,213.167 620.5,206.833 620.5,200.5 Z"/></g>
<g><path style="opacity:1" fill="#241f20" d="M 586.5,234.5 C 590.833,234.5 595.167,234.5 599.5,234.5C 599.5,246.833 599.5,259.167 599.5,271.5C 595.167,271.5 590.833,271.5 586.5,271.5C 586.5,259.167 586.5,246.833 586.5,234.5 Z"/></g>
<g><path style="opacity:1" fill="#fcb713" d="M 290.5,554.5 C 259.126,561.041 227.792,567.708 196.5,574.5C 196.5,467.833 196.5,361.167 196.5,254.5C 227.833,254.5 259.167,254.5 290.5,254.5C 290.5,354.5 290.5,454.5 290.5,554.5 Z"/></g>
<g><path style="opacity:1" fill="#7e5f1b" d="M 290.5,554.5 C 290.5,454.5 290.5,354.5 290.5,254.5C 259.167,254.5 227.833,254.5 196.5,254.5C 196.5,361.167 196.5,467.833 196.5,574.5C 195.501,467.668 195.167,360.668 195.5,253.5C 227.5,253.5 259.5,253.5 291.5,253.5C 291.833,354.001 291.499,454.335 290.5,554.5 Z"/></g>
<g><path style="opacity:1" fill="#221f1f" d="M 249.5,282.5 C 249.5,294.5 249.5,306.5 249.5,318.5C 245.5,318.5 241.5,318.5 237.5,318.5C 237.5,306.5 237.5,294.5 237.5,282.5C 241.5,282.5 245.5,282.5 249.5,282.5 Z"/></g>
<g><path style="opacity:1" fill="#654d1d" d="M 249.5,282.5 C 250.495,294.655 250.829,306.989 250.5,319.5C 245.968,319.818 241.634,319.485 237.5,318.5C 241.5,318.5 245.5,318.5 249.5,318.5C 249.5,306.5 249.5,294.5 249.5,282.5 Z"/></g>
<g><path style="opacity:1" fill="#221f1f" d="M 586.5,293.5 C 590.833,293.5 595.167,293.5 599.5,293.5C 599.5,305.833 599.5,318.167 599.5,330.5C 595.167,330.5 590.833,330.5 586.5,330.5C 586.5,318.167 586.5,305.833 586.5,293.5 Z"/></g>
<g><path style="opacity:1" fill="#221f1f" d="M 237.5,342.5 C 241.5,342.5 245.5,342.5 249.5,342.5C 249.5,354.5 249.5,366.5 249.5,378.5C 245.5,378.5 241.5,378.5 237.5,378.5C 237.5,366.5 237.5,354.5 237.5,342.5 Z"/></g>
<g><path style="opacity:1" fill="#6c521c" d="M 237.5,342.5 C 241.634,341.515 245.968,341.182 250.5,341.5C 250.5,354.167 250.5,366.833 250.5,379.5C 245.968,379.818 241.634,379.485 237.5,378.5C 241.5,378.5 245.5,378.5 249.5,378.5C 249.5,366.5 249.5,354.5 249.5,342.5C 245.5,342.5 241.5,342.5 237.5,342.5 Z"/></g>
<g><path style="opacity:1" fill="#221f1f" d="M 237.5,404.5 C 241.5,404.5 245.5,404.5 249.5,404.5C 249.5,416.5 249.5,428.5 249.5,440.5C 245.5,440.5 241.5,440.5 237.5,440.5C 237.5,428.5 237.5,416.5 237.5,404.5 Z"/></g>
<g><path style="opacity:1" fill="#6c521c" d="M 237.5,404.5 C 241.634,403.515 245.968,403.182 250.5,403.5C 250.5,416.167 250.5,428.833 250.5,441.5C 245.968,441.818 241.634,441.485 237.5,440.5C 241.5,440.5 245.5,440.5 249.5,440.5C 249.5,428.5 249.5,416.5 249.5,404.5C 245.5,404.5 241.5,404.5 237.5,404.5 Z"/></g>
<g><path style="opacity:1" fill="#fbb613" d="M 496.5,404.5 C 498.156,413.287 499.156,422.287 499.5,431.5C 508.419,429.45 517.419,427.783 526.5,426.5C 526.833,452.175 526.5,477.842 525.5,503.5C 451.22,519.756 376.887,535.756 302.5,551.5C 300.509,526.188 299.843,500.522 300.5,474.5C 308.207,473.043 315.873,471.376 323.5,469.5C 323.168,460.143 323.502,450.81 324.5,441.5C 330.728,439.654 337.062,438.321 343.5,437.5C 345.156,446.287 346.156,455.287 346.5,464.5C 356.867,462.379 367.2,460.046 377.5,457.5C 378.498,448.19 378.832,438.857 378.5,429.5C 384.196,428.606 389.863,427.606 395.5,426.5C 396.167,435.5 396.833,444.5 397.5,453.5C 408.094,451.115 418.761,449.115 429.5,447.5C 429.5,437.833 429.5,428.167 429.5,418.5C 434.782,417.244 440.115,416.244 445.5,415.5C 446.833,415.5 448.167,415.5 449.5,415.5C 449.173,424.682 449.507,433.682 450.5,442.5C 460.96,439.975 471.46,437.641 482,435.5C 482.5,425.839 482.666,416.172 482.5,406.5C 487.202,406.05 491.868,405.383 496.5,404.5 Z"/></g>
<g><path style="opacity:1" fill="#c08d17" d="M 496.5,404.5 C 497.209,403.596 498.209,403.263 499.5,403.5C 499.5,412.833 499.5,422.167 499.5,431.5C 499.156,422.287 498.156,413.287 496.5,404.5 Z"/></g>
<g><path style="opacity:1" fill="#936e1a" d="M 445.5,415.5 C 446.919,414.549 448.585,414.216 450.5,414.5C 450.5,423.833 450.5,433.167 450.5,442.5C 449.507,433.682 449.173,424.682 449.5,415.5C 448.167,415.5 446.833,415.5 445.5,415.5 Z"/></g>
<g><path style="opacity:1" fill="#58441d" d="M 395.5,426.5 C 395.56,425.957 395.893,425.624 396.5,425.5C 397.498,434.81 397.832,444.143 397.5,453.5C 396.833,444.5 396.167,435.5 395.5,426.5 Z"/></g>
<g><path style="opacity:1" fill="#5b451d" d="M 343.5,437.5 C 344.209,436.596 345.209,436.263 346.5,436.5C 346.5,445.833 346.5,455.167 346.5,464.5C 346.156,455.287 345.156,446.287 343.5,437.5 Z"/></g>
<g><path style="opacity:1" fill="#59441d" d="M 300.5,474.5 C 299.843,500.522 300.509,526.188 302.5,551.5C 301.791,552.404 300.791,552.737 299.5,552.5C 299.169,526.328 299.502,500.328 300.5,474.5 Z"/></g>
<g><path style="opacity:1" fill="#00a54f" d="M 644.5,486.5 C 647.652,486.047 650.152,487.047 652,489.5C 681.249,538.333 710.749,587 740.5,635.5C 682.064,735.101 595.73,795.268 481.5,816C 363.03,831.838 260.03,799.505 172.5,719C 146.954,693.546 125.288,665.213 107.5,634C 135.839,616.828 164.506,600.162 193.5,584C 344.039,551.794 494.373,519.294 644.5,486.5 Z"/></g>
</svg>
