<svg xmlns="http://www.w3.org/2000/svg" width="850" height="855" style="shape-rendering:geometricPrecision;text-rendering:geometricPrecision;image-rendering:optimizeQuality;fill-rule:evenodd;clip-rule:evenodd"><path style="opacity:1" fill="#5b5859" d="M836.5 15.5c-274.998-2-550.331-2.666-826-2v6c-.968-2.107-1.302-4.44-1-7h828c.237 1.291-.096 2.291-1 3z"/><path style="opacity:1" fill="#262223" d="M836.5 15.5a46464.031 46464.031 0 0 1-34.5 487C784.975 625.396 724.475 719.896 620.5 786c-109.034 62.419-222.367 71.419-340 27C157.98 760.133 81.48 668.633 51 538.5a459.726 459.726 0 0 1-7-42 66860.31 66860.31 0 0 1-33.5-477v-6c275.669-.666 551.002 0 826 2z"/><path style="opacity:1" fill="#0065a5" d="M660.5 665.5a35449.934 35449.934 0 0 1-1-376c8.309-1.935 11.475-7.269 9.5-16 7.871-5.434 9.537-12.434 5-21l-5.5-3.5a11.142 11.142 0 0 1 5.5-3.5l1-8c1.715 2.897 4.215 4.231 7.5 4a18.163 18.163 0 0 1-.5-8l13-19a68.977 68.977 0 0 0 4-19 25.513 25.513 0 0 0 4.5 4 4.457 4.457 0 0 0 1.5-2c.112-7.378.278-14.712.5-22 1.746 2.354 4.079 3.354 7 3a197.692 197.692 0 0 0-4-16.5l1-1.5c2.167 1.454 4.167 1.288 6-.5l-4.5-4.5a219.618 219.618 0 0 0-2-19 85.109 85.109 0 0 0-12.5-19.5 127.983 127.983 0 0 1 14-13c-1.492-1.885-3.492-2.885-6-3 7.664-5.165 11.831-12.331 12.5-21.5a12.135 12.135 0 0 0-3.5 4.5c-1.444.78-2.777.614-4-.5 4.844-8.363 7.344-17.363 7.5-27l-7 10a356.774 356.774 0 0 1-24 21c-.667-1.667-.667-3.333 0-5 2.482-1.91 2.982-4.243 1.5-7-1.823 1.247-3.823 1.914-6 2 .497-5.614 1.663-10.947 3.5-16L655.5 81a112.796 112.796 0 0 1-31-2.5c-.383 4.655.617 8.988 3 13-6.768 1.373-13.434 1.04-20-1 .215 3.766 1.549 7.1 4 10-4.79.243-9.29-1.09-13.5-4-1.849 3.648-1.682 7.314.5 11-8.983 2.496-16.15 7.496-21.5 15a538.178 538.178 0 0 0-29 63c-.362 9.932 1.972 19.266 7 28a69.2 69.2 0 0 0 6.5 4.5c5.827.083 11.327 1.249 16.5 3.5 4.575.256 8.242-1.411 11-5a141.43 141.43 0 0 0 4-11 20.645 20.645 0 0 1 7-5c-.361 3.424-1.361 6.758-3 10a133.722 133.722 0 0 0-17 26 84.902 84.902 0 0 0-.5 13c-13.757-.525-18.257 5.809-13.5 19a13.271 13.271 0 0 0 5.5 5 74.086 74.086 0 0 1 1.5 12c2.397 2.282 5.231 3.616 8.5 4v376c-3.647.122-6.481 1.788-8.5 5a38.745 38.745 0 0 0-3.5 12c-3.704 2.4-6.204 5.733-7.5 10a133.74 133.74 0 0 1-3 11 73.547 73.547 0 0 0-15.5 9c-9.076-12.909-20.742-22.743-35-29.5a86.757 86.757 0 0 0-16-4.5c-.095-8.854-3.429-16.187-10-22-.035-6.234-2.368-11.401-7-15.5-1.525-1.009-3.192-1.509-5-1.5v-361c9.168-1.37 12.668-6.704 10.5-16 3.446-1.55 5.446-4.217 6-8a164.044 164.044 0 0 0-4.5-31.5l1-1.5c1.316 2.528 2.483 2.528 3.5 0l1-15c6.649-13.914 9.983-28.581 10-44 2.786 1.684 4.62 1.017 5.5-2-4.198-9.935-6.365-20.268-6.5-31 3.078 2.431 6.578 3.431 10.5 3-.719-8.933-4.719-16.1-12-21.5l-8-5a257.544 257.544 0 0 0 10-11.5 382.126 382.126 0 0 1-24-10.5l10-8c-3.98-3.501-8.646-5.501-14-6-11.009-1.82-21.342.012-31 5.5-4.421-7.883-11.254-11.55-20.5-11a74.75 74.75 0 0 0-19.5 4l2 3-1.5 1c-8.095-2.407-15.262-.907-21.5 4.5a21.52 21.52 0 0 0 6 5c-5.887-.382-10.887 1.452-15 5.5a14.984 14.984 0 0 0 3 3.5c-7.066 1.223-11.566 5.056-13.5 11.5l4.5 4.5c-9.432 5.221-12.766 13.054-10 23.5 1.98-3.657 4.98-5.157 9-4.5a43.982 43.982 0 0 0-6.5 13.5 557.461 557.461 0 0 1-3.5 40.5 52.582 52.582 0 0 0 1 10l1 .5c2.687-10.445 5.854-10.445 9.5 0a237.313 237.313 0 0 1-.5 35c5.147-.973 8.647-3.973 10.5-9 .573 8.349.407 16.682-.5 25 3.768-.637 6.601-2.637 8.5-6 .667 1.333.667 2.667 0 4-6.135 5.379-7.135 11.712-3 19a25.513 25.513 0 0 0 4.5 4 133.62 133.62 0 0 0 2.5 13c2.235 1.702 4.735 2.702 7.5 3a32677.5 32677.5 0 0 1-1 361c-2.695.433-4.862 1.766-6.5 4a29.639 29.639 0 0 0-4 13c-2.333 1-4 2.667-5 5a91.948 91.948 0 0 0-6 16c-10.55 2.355-20.383 6.522-29.5 12.5a140.379 140.379 0 0 0-22 22.5 48.552 48.552 0 0 0-16.5-9c-.406-8.476-3.739-15.476-10-21a29.639 29.639 0 0 0-4-13c-1.638-2.234-3.805-3.567-6.5-4a35449.934 35449.934 0 0 1-1-376c8.301-1.988 11.468-7.322 9.5-16 6.22-3.98 8.554-9.647 7-17-1.866-2.019-3.033-4.352-3.5-7 .266-2.16 1.266-3.826 3-5-.928-1.268-1.095-2.601-.5-4 2.701 2.422 5.535 2.589 8.5.5-1.117-3.073-1.284-6.24-.5-9.5a160.999 160.999 0 0 1 8-15c1.62-5.991.12-10.991-4.5-15 5.638-.83 11.304-1.33 17-1.5 1.52-2.596 2.353-5.429 2.5-8.5 4.207-3.768 5.54-8.434 4-14a32.27 32.27 0 0 0-9.5-9.5c2.701-3.726 2.367-7.226-1-10.5a52.108 52.108 0 0 0-8-5.5 478.393 478.393 0 0 0-33-11 91.41 91.41 0 0 0-15-17c-9.491-4.501-19.491-7.168-30-8a107.126 107.126 0 0 0-22-17 102.24 102.24 0 0 0-15-4 1577.542 1577.542 0 0 0-44-2c-18.553-.575-36.053-5.075-52.5-13.5-2.5-.167-3.667 1-3.5 3.5.99 7.316 4.324 13.316 10 18l14 10c-6.786.543-13.452.21-20-1-1.172 1.868-1.005 3.702.5 5.5 9.02 9.095 19.854 14.928 32.5 17.5 10.316.972 20.65 1.805 31 2.5 4.448 10.114 11.114 18.447 20 25-5.376 12.382-5.21 24.715.5 37l1 34a72.334 72.334 0 0 0 5.5 17 54.452 54.452 0 0 0-6.5 6c-1.01 5.564-.343 10.898 2 16a13.92 13.92 0 0 1 4 3 55.799 55.799 0 0 0 2 12c2.228 2.578 5.061 3.911 8.5 4v376c-3.647.122-6.481 1.788-8.5 5a38.745 38.745 0 0 0-3.5 12c-6.276 5.553-9.609 12.553-10 21-7.834.571-15.5 1.737-23 3.5C98.363 640.664 65.863 562.831 60 473.5a111124.832 111124.832 0 0 1-30.5-443h788a238836.485 238836.485 0 0 1-31.5 450c-6.652 85.366-38.152 159.866-94.5 223.5-3.366.33-6.699-.003-10-1-1.011-8.191-4.511-15.024-10.5-20.5.035-4.758-1.298-9.091-4-13a22.162 22.162 0 0 0-6.5-4z"/><path style="opacity:1" fill="#f8f8f8" d="m380.5 229.5-2-12c-4.363-14.279-6.196-28.946-5.5-44a3.647 3.647 0 0 0-1.5-1 106.314 106.314 0 0 0 1 33.5c-.2 3.233-1.367 6.067-3.5 8.5l-1-18a150.99 150.99 0 0 1-3.5-18.5 445.248 445.248 0 0 1 5.5-17.5c-.667-1.333-1.333-1.333-2 0a160.999 160.999 0 0 1-8 15c-2.899-5.115-3.233-10.448-1-16a5940.846 5940.846 0 0 0 15.5-27.5c-.536-1.377-1.536-1.377-3 0a70.588 70.588 0 0 0-9.5 10.5c.227-10.123 4.394-18.123 12.5-24 .789-.283 1.456-.783 2-1.5-2.539-.796-4.872-.629-7 .5-2.966.898-5.8 2.231-8.5 4 1.206-10.869 7.373-16.702 18.5-17.5a97.754 97.754 0 0 0-16-2c6.136-5.824 13.47-8.491 22-8-1.409-2.879-3.743-4.545-7-5a7.292 7.292 0 0 1 3-2c5.698-1.477 11.365-1.977 17-1.5-3.094-3.923-7.094-6.423-12-7.5 14.895-4.616 27.728-1.449 38.5 9.5a23.602 23.602 0 0 1 3.5-3c-4.775-5.891-10.775-10.058-18-12.5 5.055-2.34 10.388-3.007 16-2 4.967 2.653 6.301 6.653 4 12 .113 1.28.78 2.113 2 2.5 12.46-8.925 26.127-11.758 41-8.5a41.93 41.93 0 0 1-11.5 7.5c-.333 1.547.167 2.88 1.5 4a31.83 31.83 0 0 0-5 4.5c5.558-1.187 11.225-1.52 17-1a82.12 82.12 0 0 1 12 4 3.944 3.944 0 0 1 1 2c-.968 2.616-2.635 4.616-5 6a112.365 112.365 0 0 0-14 0c-3.034 1.191-4.701 3.358-5 6.5a52.985 52.985 0 0 0 9.5-3c12.143 2.652 21.31 9.319 27.5 20-2.266.706-4.599.539-7-.5l-13-11c-3.468-1.081-6.468-.415-9 2a78.116 78.116 0 0 1 11.5 3.5c.92 6.507 3.92 11.84 9 16 .307 4.857.807 9.69 1.5 14.5l-1 2.5a26.364 26.364 0 0 1-10-7c-1.147 2.265-1.314 4.598-.5 7 7.988 6.63 10.821 14.964 8.5 25a35.594 35.594 0 0 1-4-4.5c-1.259-.982-2.592-1.315-4-1 4.791 10.801 4.958 21.634.5 32.5a89.78 89.78 0 0 0-6-23c-2.194-3.195-5.027-4.195-8.5-3 5.073 6.482 8.239 13.815 9.5 22l1 34c1.009 1.525 1.509 3.192 1.5 5-2.463-.281-4.63-1.281-6.5-3-2.541-3.223-4.041-6.89-4.5-11a3.647 3.647 0 0 0-1.5 1 60.931 60.931 0 0 0-.5 11c-7.025.251-10.192-3.082-9.5-10-1.333-1.333-2.667-1.333-4 0l-1 9a4.457 4.457 0 0 1-1.5 2 36.167 36.167 0 0 1-2.5-8c-1.333-1.333-2.667-1.333-4 0a32.462 32.462 0 0 0-.5 8 8.43 8.43 0 0 1-4-.5 88.876 88.876 0 0 1-5.5-6.5 3.943 3.943 0 0 0-2 1c-.249 2.677-1.249 5.01-3 7-1.907-3.91-4.573-7.244-8-10a24.935 24.935 0 0 0-.5 7 4.934 4.934 0 0 1-3-.5 26.9 26.9 0 0 0-5.5-6.5 40.914 40.914 0 0 0-.5 9c-5.098 1.071-8.264-.929-9.5-6-6.262-5.799-10.428-4.466-12.5 4h-4c.274-7.368.94-14.702 2-22-.933-8.99-1.1-17.99-.5-27 1.647-3.922 2.647-7.922 3-12-3.004 2.666-5.004 5.999-6 10a465.81 465.81 0 0 0-2 39c-.66 1.824-1.827 3.157-3.5 4z"/><path style="opacity:1" fill="#edecec" d="M674.5 75.5c.876-.13 1.543.203 2 1a80.406 80.406 0 0 1-4 7.5c2.257-.437 4.59-.937 7-1.5a24.935 24.935 0 0 1-.5 7 40.832 40.832 0 0 1-6.5 4c-1.688-1.53-3.021-3.363-4-5.5a22.146 22.146 0 0 1-7-4l10-5c1.563-.759 2.563-1.926 3-3.5z"/><path style="opacity:1" fill="#302c2d" d="M448.5 79.5c2.778-.478 4.778.522 6 3a146.408 146.408 0 0 1-9 4.5 125.598 125.598 0 0 0-6.5 10.5c-2.298-1.804-2.965-4.137-2-7a176.323 176.323 0 0 1 11.5-11z"/><path style="opacity:1" fill="#faf9f9" d="M619.5 96.5c6.178 1.317 12.512 1.317 19 0-.124-.607-.457-.94-1-1a2159.53 2159.53 0 0 1-6.5-9c-.591-.984-.257-1.65 1-2a811.976 811.976 0 0 0 26.5 4.5 36.17 36.17 0 0 1 7 4c.837 1.011 1.17 2.178 1 3.5-11.01 1.06-21.343 4.226-31 9.5-4.264 4.168-5.097 9.002-2.5 14.5a86.401 86.401 0 0 0 7.5 10 39.447 39.447 0 0 0-4.5 6c-.667 1.333-.667 2.667 0 4a51.24 51.24 0 0 0 12 12c1.834 6.348 3.667 12.681 5.5 19 1.985-8.057.485-15.39-4.5-22l-9-9c-.667-1.333-.667-2.667 0-4 2.512-1.693 4.012-4.026 4.5-7a152.765 152.765 0 0 1-9.5-14c-1.193-5.443.973-8.61 6.5-9.5 8.34-1.768 16.673-3.601 25-5.5 1.432.233 1.932.9 1.5 2a48.932 48.932 0 0 1-9.5 6.5c3.736.61 7.403.277 11-1a82.163 82.163 0 0 1 9-8c4.096 1.636 7.429.636 10-3a48.145 48.145 0 0 1-5-2.5 97.082 97.082 0 0 1 22.5-17c-1.851 4.892-5.018 9.059-9.5 12.5l11 1a141.639 141.639 0 0 1-22 18 172.372 172.372 0 0 0 7.5-2.5c1.011.837 2.178 1.17 3.5 1a17.758 17.758 0 0 1-1.5 7 104.119 104.119 0 0 1-10.5 6 6.547 6.547 0 0 0 3 3 18.924 18.924 0 0 0 5-3c8.11 9.211 12.61 19.878 13.5 32a67.746 67.746 0 0 1-10-12l-.5 2a217.942 217.942 0 0 1 9.5 27c-4.716-3.049-8.382-7.049-11-12 .566 5.482 2.566 10.482 6 15 3.284 16.34.95 17.006-7 2a116.947 116.947 0 0 1 2 26c-.249 2.677-1.249 5.01-3 7a63.585 63.585 0 0 0-4-13l-1 18c-3.844 6.863-6.511 14.196-8 22a81.76 81.76 0 0 1-4-20 196.124 196.124 0 0 0-2.5 19c-7.39-4.112-10.556-10.446-9.5-19-2.554 4.763-3.221 9.763-2 15l-4 4a128.507 128.507 0 0 0-.5 16c-23.336.167-46.669 0-70-.5-1.956-3.595-2.456-7.428-1.5-11.5a156 156 0 0 1 26.5-37.5c2.759-.977 4.759-.144 6 2.5 1.147-4.999 4.147-7.499 9-7.5l1.5 1.5 5-11c.908-1.939 2.408-2.939 4.5-3 .044 2.816 1.044 5.149 3 7a76.499 76.499 0 0 0 5-24.5c.24-2.891-.593-5.391-2.5-7.5l-1 16c-.688 7.047-3.021 7.713-7 2a207.319 207.319 0 0 1-5.5 10 26.091 26.091 0 0 1-3.5-5c-.547 4.099-2.38 7.432-5.5 10a50.404 50.404 0 0 1-5.5-8c.148 6.37-2.352 11.37-7.5 15a32.129 32.129 0 0 0-3-7.5c-1.789-.52-3.456-.187-5 1a119.887 119.887 0 0 1-12.5 13.5c-.031 4.268-1.031 8.268-3 12-3.057.951-6.223 1.284-9.5 1-.439-9.496 1.894-18.163 7-26a26.091 26.091 0 0 1 5-3.5 174.575 174.575 0 0 0 14-5c4.062-4.365 9.062-6.532 15-6.5v-4c-4.292-.465-8.292.368-12 2.5l-7.5 7.5c-.515-12.496-1.849-12.829-4-1a48.635 48.635 0 0 0-14 8 74.77 74.77 0 0 0-6 16c-1.53 5.554-5.03 7.721-10.5 6.5-2.346-1.013-4.013-2.679-5-5a108.749 108.749 0 0 1 7.5-9.5c.738-3.761.405-7.428-1-11-1-1.333-2-1.333-3 0-.038 4.063-.872 7.897-2.5 11.5-3.81.351-5.477-1.482-5-5.5a362.153 362.153 0 0 1 30.5-70c6.117-7.264 13.95-10.431 23.5-9.5-3.196-2.601-4.529-5.768-4-9.5 6.536 1.936 13.203 2.436 20 1.5-3.333-2-6-4.667-8-8a12.935 12.935 0 0 1 5-.5z"/><path style="opacity:1" fill="#312d2e" d="M453.5 85.5c1.788-.285 3.455.048 5 1a104.46 104.46 0 0 0-13 11c-.908-1.29-.741-2.623.5-4 2.028-3.192 4.528-5.859 7.5-8z"/><path style="opacity:1" fill="#fafafa" d="M282.5 245.5v3h-85a71.318 71.318 0 0 1-5.5-14l-1-38c-4.56-8.625-5.56-17.625-3-27 1.011-.837 2.178-1.17 3.5-1-.338 2.657.329 4.99 2 7 1.162-3.959 1.662-7.959 1.5-12-10.519-7.847-18.852-17.514-25-29-1.647-3.922-2.647-7.922-3-12a1237.131 1237.131 0 0 1 29.5 15.5c3.856 5.247 8.856 8.413 15 9.5.76-5.314-1.24-9.147-6-11.5a1526.233 1526.233 0 0 0-48-21.5c.654 5.297 2.321 10.297 5 15-19.754 2.882-37.42-1.784-53-14 2.827-.279 5.827.221 9 1.5a100.2 100.2 0 0 0 20 0c12.341-6.067 25.341-8.067 39-6a532.955 532.955 0 0 1 26 5 4560.94 4560.94 0 0 0 20.5 10.5l2.5-.5c-6.31-9.162-14.977-14.829-26-17a189.816 189.816 0 0 0-43-3c-4.618.569-8.951 1.902-13 4-7.371 1.31-14.371.31-21-3-8.568-5.376-14.901-12.209-19-20.5 10.649 5.663 21.982 9.163 34 10.5 22.692.99 45.358 2.323 68 4 9.596 4.419 17.596 10.919 24 19.5 10.571.399 20.571 2.899 30 7.5a116.67 116.67 0 0 1 15 16.5 1698.654 1698.654 0 0 0 31 10.5 59.043 59.043 0 0 1 9 5c2.076 1.884 2.41 4.051 1 6.5-2.193.844-4.193 1.177-6 1a32.97 32.97 0 0 0 7.5 6c6.334-1.77 8.167.563 5.5 7 3.118 5.751 1.284 8.751-5.5 9a136.185 136.185 0 0 1-12.5-2c-4.723.604-5.056 2.104-1 4.5l15 1c1.333 1.333 1.333 2.667 0 4l-23 1c5.572 2.23 8.905 6.23 10 12a71.581 71.581 0 0 1-5.5 15.5c-1.011.837-2.178 1.17-3.5 1 .166-6.342 0-12.675-.5-19-1.235-4.732-4.068-8.065-8.5-10-1.114 1.223-1.281 2.556-.5 4 7.219 10.956 7.219 21.956 0 33 2.512-23.157-7.655-32.99-30.5-29.5a6.978 6.978 0 0 0-3.5 2.5c-.921 8.203-.088 16.203 2.5 24 .523 3.969-1.144 6.303-5 7-2.266-.431-3.766-1.764-4.5-4a12.494 12.494 0 0 1 0-7c3.68-6.542 3.18-12.709-1.5-18.5-8.785-2.754-17.785-3.754-27-3-2.677 2.514-2.177 4.347 1.5 5.5 8.346-3.027 16.346-2.36 24 2a410.708 410.708 0 0 0-2 23c2.32 7.636 7.153 9.803 14.5 6.5 4.112-4.004 5.612-8.837 4.5-14.5-7.328-19.674-1.495-25.174 17.5-16.5 5.363 6.955 7.196 14.789 5.5 23.5-.229 2.958-1.396 5.458-3.5 7.5.881.708 1.547 1.542 2 2.5z"/><path style="opacity:1" fill="#777475" d="M637.5 95.5c.543.06.876.393 1 1-6.488 1.317-12.822 1.317-19 0 6.19.323 12.19-.01 18-1z"/><path style="opacity:1" fill="#322e2f" d="M461.5 98.5c1.699-.16 3.366.007 5 .5a21.741 21.741 0 0 0-7 6.5c-1.114-1.223-1.281-2.556-.5-4a10.52 10.52 0 0 0 2.5-3z"/><path style="opacity:1" fill="#3b3738" d="M377.5 107.5a21.127 21.127 0 0 1 9 1c-3.058 1.641-6.392 2.474-10 2.5a33.902 33.902 0 0 1-6 3.5c-1.083-.865-1.249-1.865-.5-3a83.484 83.484 0 0 1 7.5-4z"/><path style="opacity:1" fill="#2e2a2b" d="M674.5 112.5c1.086.12 1.753.787 2 2l-1 2a47.741 47.741 0 0 1-15 4c-.028-2.082.639-3.916 2-5.5 4.267-.189 8.267-1.023 12-2.5z"/><path style="opacity:1" fill="#383435" d="M198.5 116.5c1.225.652 1.892 1.819 2 3.5.191 1.973-.476 3.473-2 4.5-2.563-2.58-2.563-5.247 0-8z"/><path style="opacity:1" fill="#7b7879" d="M369.5 117.5c2.128-1.129 4.461-1.296 7-.5-.544.717-1.211 1.217-2 1.5-1.419-.951-3.085-1.284-5-1z"/><path style="opacity:1" fill="#2b2728" d="M449.5 116.5a12.93 12.93 0 0 1 5 .5L444 127.5c-4.38-3.69-4.38-7.023 0-10 1.973 2.153 3.806 1.82 5.5-1zM615.5 117.5c2.488 2.073 2.488 4.407 0 7-7.302 3.26-14.968 5.093-23 5.5l-4 4a93.269 93.269 0 0 1 14 6c5.671 4.614 5.338 8.614-1 12a164.113 164.113 0 0 1-20 6l-7.5 5.5c1.903-10.711 5.236-21.044 10-31 5.282-6.36 12.115-8.86 20.5-7.5 4.741-1.029 8.408-3.529 11-7.5z"/><path style="opacity:1" fill="#2b2829" d="M204.5 119.5c1.478-.262 2.811.071 4 1-1.667 1-3 2.333-4 4-1.166-1.667-1.166-3.334 0-5z"/><path style="opacity:1" fill="#2a2627" d="M408.5 122.5c4.134-.985 8.468-1.318 13-1 .333 3.502-1.167 5.836-4.5 7-2.218-2.86-5.052-4.86-8.5-6z"/><path style="opacity:1" fill="#302c2d" d="M211.5 122.5c1.495-.085 2.495.581 3 2-1.267 1.871-1.267 3.704 0 5.5-6.549-.138-7.549-2.638-3-7.5z"/><path style="opacity:1" fill="#3a3738" d="M379.5 116.5c.997-.03 1.664.47 2 1.5-2.461 4.961-6.127 8.795-11 11.5-1.021-.502-1.188-1.168-.5-2 4.463-2.624 7.629-6.29 9.5-11z"/><path style="opacity:1" fill="#2e2a2b" d="M385.5 124.5c7.999-.667 15.332 1.166 22 5.5 4.691 4.712 6.024 10.212 4 16.5-4.822 1.009-9.155-.157-13-3.5a158.709 158.709 0 0 1-14.5-15.5c-.239-1.288.261-2.288 1.5-3z"/><path style="opacity:1" fill="#282425" d="M451.5 125.5a80.867 80.867 0 0 1 20 1.5c2.679 1.346 4.679 3.346 6 6-9.794 8.333-21.127 11.166-34 8.5 1.368-6.02 4.035-11.353 8-16z"/><path style="opacity:1" fill="#363233" d="M219.5 126.5c.77 2.883-.063 5.55-2.5 8-.612-3.111.221-5.777 2.5-8z"/><path style="opacity:1" fill="#343031" d="M678.5 127.5c5.319.634 7.819 3.634 7.5 9-3.112-2.601-5.612-5.601-7.5-9z"/><path style="opacity:1" fill="#312d2e" d="M479.5 129.5c2.786.456 4.119 2.123 4 5a144.616 144.616 0 0 1-7.5 28 32.462 32.462 0 0 0-.5 8 12.93 12.93 0 0 1-5-.5 4.933 4.933 0 0 1-1-2.5c7.001-11.658 10.334-24.325 10-38z"/><path style="opacity:1" fill="#292526" d="M380.5 130.5h3c-.531 10.452 1.302 20.452 5.5 30a29.964 29.964 0 0 0 6 7c.749 1.135.583 2.135-.5 3-7.802-3.971-12.302-10.304-13.5-19-.5-6.992-.666-13.992-.5-21z"/><path style="opacity:1" fill="#f7f6f6" d="M391.5 130.5c4.292-.465 8.292.368 12 2.5 2.942 2.992 2.608 5.492-1 7.5-4.983-1.987-8.65-5.32-11-10z"/><path style="opacity:1" fill="#edecec" d="M456.5 130.5c15.787.766 15.787 2.933 0 6.5a12.494 12.494 0 0 1-7 0c1.577-3.08 3.91-5.247 7-6.5z"/><path style="opacity:1" fill="#353132" d="M677.5 135.5c2.763.244 4.929 1.577 6.5 4a28.415 28.415 0 0 0 4.5 7.5c-.667.667-1.333.667-2 0-4.041-3.185-7.041-7.019-9-11.5z"/><path style="opacity:1" fill="#2b2728" d="M242.5 137.5c10.678-.161 19.011 4.172 25 13a34.616 34.616 0 0 0 11 2.5c2.363.589 3.363 2.089 3 4.5a132.978 132.978 0 0 1-16-2.5 78.39 78.39 0 0 0-11-10c-4.541-2.699-9.208-3.032-14-1a86.276 86.276 0 0 0-12.5 9.5 12.93 12.93 0 0 0-.5 5c-4.877-.463-6.044-2.796-3.5-7 5.284-6.034 11.451-10.701 18.5-14z"/><path style="opacity:1" fill="#2e2a2b" d="M622.5 138.5c.412 7.987-1.421 15.654-5.5 23-1.487-1.772-1.82-3.772-1-6a175.377 175.377 0 0 0 6.5-17z"/><path style="opacity:1" fill="#f6f6f6" d="M586.5 140.5a12.93 12.93 0 0 1 5 .5 29.964 29.964 0 0 0 7 6c-5.344 2.613-11.011 4.113-17 4.5.318-4.301 1.985-7.968 5-11z"/><path style="opacity:1" fill="#2f2b2c" d="M182.5 142.5c.235-.597.735-.93 1.5-1 7.49 3.418 14.157 8.085 20 14 2.223 5.612.39 7.612-5.5 6-3.882-7.55-9.216-13.883-16-19z"/><path style="opacity:1" fill="#3c3839" d="M678.5 143.5c3.573 1.063 5.406 3.396 5.5 7-2.454-1.941-4.287-4.275-5.5-7z"/><path style="opacity:1" fill="#312d2e" d="M415.5 144.5h3c.117 1.984-.55 3.65-2 5 4.08 4.661 3.08 5.828-3 3.5a3.943 3.943 0 0 1-1-2 19.25 19.25 0 0 0 3-6.5z"/><path style="opacity:1" fill="#2f2b2c" d="M439.5 144.5c1.962 2.138 4.462 3.472 7.5 4-.687 5.671-3.02 6.338-7 2-1.796-1.902-1.963-3.902-.5-6z"/><path style="opacity:1" fill="#2c2829" d="M240.5 147.5c5.277-.569 10.277.265 15 2.5a53.884 53.884 0 0 0 14 13.5 38.929 38.929 0 0 0-5.5 5c-1.069-4.502-3.735-7.502-8-9-8.543 4.396-16.71 3.73-24.5-2 2.339-4.002 5.339-7.335 9-10z"/><path style="opacity:1" fill="#ececec" d="M242.5 151.5a27.624 27.624 0 0 1 10 2.5c.88 1.356 1.214 2.856 1 4.5a13.139 13.139 0 0 1-6-2c-3.461 2.804-6.794 2.638-10-.5 1.563-1.736 3.23-3.236 5-4.5z"/><path style="opacity:1" fill="#3f3b3c" d="M680.5 151.5c3.038 1.751 4.205 4.417 3.5 8-1.993-2.318-3.159-4.984-3.5-8z"/><path style="opacity:1" fill="#292627" d="M414.5 158.5c3.478-.316 6.812.184 10 1.5a60.255 60.255 0 0 1 7.5 13.5 100.4 100.4 0 0 1 9.5-13.5c8.621-3.213 11.621-.38 9 8.5l-2.5 1a41.475 41.475 0 0 0-5.5-1.5 61.442 61.442 0 0 1-7.5 10.5c-3.152 7.299-1.319 12.799 5.5 16.5 4.552 3.278 9.552 5.444 15 6.5-1.284-7.532-1.284-14.865 0-22l1-1a31.177 31.177 0 0 0 4.5 6l.5-1.5a26.49 26.49 0 0 0-4.5-7.5c-.749-1.135-.583-2.135.5-3 5.61 3.571 8.943 8.571 10 15-6.247-1.251-8.58 1.249-7 7.5l.5 6.5c2.881-4.785 6.881-6.451 12-5-1.024 3.076-3.024 5.742-6 8a29.13 29.13 0 0 0 .5 9c-1.89-.203-3.39.463-4.5 2a34.041 34.041 0 0 1-1.5 7.5c-2.324-1.582-4.99-2.248-8-2 1.528 2.518 1.194 4.685-1 6.5a18.33 18.33 0 0 0-6-4 21.569 21.569 0 0 0-5.5 7 14.84 14.84 0 0 0-3.5-4 46.204 46.204 0 0 1-6.5 5c-2.071-1.275-3.571-3.109-4.5-5.5-2.525-.041-4.858.793-7 2.5-1.602-1.927-2.935-4.094-4-6.5-1.172-.353-2.338-.187-3.5.5-1.169-.509-2.002-1.342-2.5-2.5a34.041 34.041 0 0 1-7.5-1.5c.075-3.829 1.575-7.163 4.5-10-3.34-3.341-7.34-5.674-12-7-3.34-6.66-1.674-8.326 5-5 2.746-.596 3.58-2.263 2.5-5-4.084-.701-5.417-3.035-4-7 2.333-2.667 4.667-2.667 7 0 2.363 4.802 1.863 9.135-1.5 13 .837 2.005 2.337 3.005 4.5 3a92.528 92.528 0 0 0 20-12 25.238 25.238 0 0 0 0-10l-7-13c-.837-1.507-2.004-2.007-3.5-1.5 2.333 5.333.667 7.333-5 6-3.006-4.472-2.339-8.305 2-11.5z"/><path style="opacity:1" fill="#2c2829" d="M292.5 159.5c5.148-.434 7.815 1.899 8 7-4.575-.245-7.241-2.579-8-7z"/><path style="opacity:1" fill="#3a3637" d="M680.5 162.5c1.755 2.261 2.922 4.928 3.5 8 .667 1.667.667 3.333 0 5a32.085 32.085 0 0 1-3.5-13zM677.5 170.5c.617.111 1.117.444 1.5 1a30.485 30.485 0 0 1 0 11c-2.366-3.843-2.866-7.843-1.5-12z"/><path style="opacity:1" fill="#2c2829" d="M256.5 179.5a267.183 267.183 0 0 0 43.5 2c.72 1.612.554 3.112-.5 4.5l-7.5.5a217.354 217.354 0 0 0-30.5-2.5c1.939.908 2.939 2.408 3 4.5-7.737 1.27-10.404-1.73-8-9zM674.5 180.5c.617.111 1.117.444 1.5 1a42.479 42.479 0 0 1 0 13c-2.481-4.51-2.981-9.177-1.5-14z"/><path style="opacity:1" fill="#2e2a2b" d="M246.5 183.5c4.506 1.841 7.173 5.175 8 10-6.867-.185-9.534-3.518-8-10z"/><path style="opacity:1" fill="#312d2e" d="M237.5 190.5c4.361.67 7.695 3.003 10 7l-1.5 1a213.476 213.476 0 0 1-10.5-5 185.977 185.977 0 0 0 2-3zM669.5 193.5c1.25.077 2.083.744 2.5 2a12.494 12.494 0 0 1 0 7 19.936 19.936 0 0 1-2.5-9z"/><path style="opacity:1" fill="#f5f5f5" d="M428.5 194.5a280.536 280.536 0 0 0 28 15c-1.955 2.168-2.621 4.502-2 7-2.132-1.617-4.465-2.117-7-1.5a114.777 114.777 0 0 0-6 6.5c-2.568-1.059-4.735-2.726-6.5-5a52.745 52.745 0 0 1 0 7c-1.079 1.894-2.413 2.227-4 1a12.93 12.93 0 0 1-.5-5c-3.915.253-7.581-.413-11-2 .146 2.442-.687 3.109-2.5 2-.687-2.42-.187-4.587 1.5-6.5l-1.5-.5a29.82 29.82 0 0 1-8.5 3 12.992 12.992 0 0 0-1-5.5c3.354-4.014 7.354-7.347 12-10a24.935 24.935 0 0 1 7-.5c-.108-2.014.558-3.68 2-5z"/><path style="opacity:1" fill="#2b2728" d="M638.5 195.5h3c.239 1.967-.094 3.801-1 5.5-4.94 3.104-10.274 4.104-16 3a3.647 3.647 0 0 1-1-1.5c6.221.054 11.221-2.279 15-7z"/><path style="opacity:1" fill="#343031" d="M231.5 199.5c2.1-.023 3.933.644 5.5 2 2.199-1.145 4.365-1.145 6.5 0a7.248 7.248 0 0 1-2 2.5 16.242 16.242 0 0 1-8 0c-1.607-1.049-2.273-2.549-2-4.5z"/><path style="opacity:1" fill="#2f2b2c" d="M427.5 201.5c4.417-.458 7.75 1.208 10 5-4.566.287-9.233.287-14 0-.219-1.175.114-2.175 1-3 1.239-.442 2.239-1.109 3-2z"/><path style="opacity:1" fill="#2e2a2b" d="M623.5 211.5c4.871.078 4.871 1.245 0 3.5-4.501 2-9.168 3.5-14 4.5-2.425-1.4-2.092-2.566 1-3.5 4.601-1.057 8.934-2.557 13-4.5z"/><path style="opacity:1" fill="#7b7879" d="m378.5 217.5 2 12c-.06.543-.393.876-1 1a43.117 43.117 0 0 1-1-13z"/><path style="opacity:1" fill="#322e2f" d="M614.5 223.5c1.879-.107 2.212.393 1 1.5a154.341 154.341 0 0 0-21 10.5c-1.225-2.343-.559-4.177 2-5.5a372.543 372.543 0 0 1 18-6.5z"/><path style="opacity:1" fill="#e7e7e7" d="M663.5 234.5a694.383 694.383 0 0 1 6 8c-4.011 4.334-7.011 3.668-9-2 .989-1.994 1.989-3.994 3-6z"/><path style="opacity:1" fill="#f5b313" d="M384.5 242.5c31.668-.167 63.335 0 95 .5 5.142 4.889 5.142 9.889 0 15-31.667.667-63.333.667-95 0-3.166-1.666-4.5-4.332-4-8-.543-3.597.791-6.097 4-7.5z"/><path style="opacity:1" fill="#929090" d="M282.5 245.5c.934 1.068 1.268 2.401 1 4-28.838.331-57.505-.002-86-1h85v-3z"/><path style="opacity:1" fill="#f5b214" d="M193.5 253.5c32.002-.167 64.002 0 96 .5 4.144 5.209 3.811 10.209-1 15-31.667.667-63.333.667-95 0-5.325-5.331-5.325-10.498 0-15.5zM572.5 253.5c32.002-.167 64.002 0 96 .5 4.228 5.284 3.895 10.284-1 15-31.667.667-63.333.667-95 0-5.303-5.24-5.303-10.406 0-15.5z"/><path style="opacity:1" fill="#f8b413" d="M388.5 262.5h87a40.914 40.914 0 0 1-.5 9l-1.5 1.5c-28 .667-56 .667-84 0-.956-3.394-1.289-6.894-1-10.5z"/><path style="opacity:1" fill="#fcb713" d="M197.5 273.5h87c.529 3.851-.138 7.351-2 10.5a1721.64 1721.64 0 0 1-83 0l-1.5-1.5a40.914 40.914 0 0 1-.5-9z"/><path style="opacity:1" fill="#fbb613" d="M576.5 273.5h88a40.914 40.914 0 0 1-.5 9l-1.5 1.5c-28 .667-56 .667-84 0l-1.5-1.5a40.914 40.914 0 0 1-.5-9z"/><path style="opacity:1" fill="#124262" d="M392.5 278.5c.667 59.999 1 120.166 1 180.5 0 60.504-.667 120.67-2 180.5a32677.5 32677.5 0 0 0 1-361z"/><path style="opacity:1" fill="#bf8c17" d="M465.5 277.5v1h-67v360h-1v-361h68z"/><path style="opacity:1" fill="#fcb812" d="M465.5 278.5v360h-67v-360h67zM207.5 289.5h67v375h-67v-375z"/><path style="opacity:1" fill="#bf8c16" d="M207.5 289.5v-1h68v376h-1v-375h-67z"/><path style="opacity:1" fill="#124262" d="M280.5 289.5c-.331 125.403.002 250.737 1 376-1.333-62.33-2-124.996-2-188 0-62.834.333-125.501 1-188z"/><path style="opacity:1" fill="#fcb812" d="M586.5 289.5h67v375h-67v-375z"/><path style="opacity:1" fill="#bf8c16" d="M586.5 289.5v-1h68v376h-1v-375h-67z"/><path style="opacity:1" fill="#124262" d="M659.5 289.5c-.331 125.403.002 250.737 1 376-1.333-62.33-2-124.996-2-188 0-62.834.333-125.501 1-188z"/><path style="opacity:1" fill="#76591c" d="M465.5 277.5c1 120.499 1.333 241.166 1 362-23.173.331-46.173-.002-69-1h68v-361z"/><path style="opacity:1" fill="#fcb713" d="M476.5 655.5h-89v-6c.754-2.591 2.421-4.424 5-5.5a1481.76 1481.76 0 0 1 77 0c5.989 1.461 8.322 5.294 7 11.5z"/><path style="opacity:1" fill="#926d19" d="M387.5 649.5v6h89a2026.42 2026.42 0 0 1-90 1c-.302-2.559.032-4.893 1-7z"/><path style="opacity:1" fill="#f6b314" d="M382.5 660.5c32.668-.167 65.335 0 98 .5 5.037 4.785 7.537 10.619 7.5 17.5-37.427.996-74.927 1.33-112.5 1 .164-7.16 2.497-13.494 7-19z"/><path style="opacity:1" fill="#76591c" d="M207.5 288.5v376h68a1190.252 1190.252 0 0 1-69 1c-.333-125.834 0-251.501 1-377zM586.5 288.5v376h68a1190.252 1190.252 0 0 1-69 1c-.333-125.834 0-251.501 1-377z"/><path style="opacity:1" fill="#fbb713" d="M285.5 675.5v6h-89v-5c.34-3.175 2.007-5.341 5-6.5a1559.72 1559.72 0 0 1 79 0c2.579 1.076 4.246 2.909 5 5.5z"/><path style="opacity:1" fill="#fcb713" d="M665.5 681.5h-90v-4c.643-3.488 2.643-5.988 6-7.5a1481.76 1481.76 0 0 1 77 0c5.499 1.821 7.832 5.655 7 11.5z"/><path style="opacity:1" fill="#906c1a" d="M285.5 675.5c.968 2.107 1.302 4.441 1 7h-91c-.295-2.235.039-4.235 1-6v5h89v-6z"/><path style="opacity:1" fill="#8c691a" d="M575.5 677.5v4h90a2071.736 2071.736 0 0 1-91 1c-.284-1.915.049-3.581 1-5z"/><path style="opacity:1" fill="#00a54f" d="M369.5 683.5c42.367-.467 84.701.033 127 1.5 9.615 2.958 18.281 7.625 26 14a241.373 241.373 0 0 1 21 24.5c5.056-6.212 11.39-10.712 19-13.5 41.004-.833 82.004-.667 123 .5-66.281 67.63-146.948 104.797-242 111.5-109.503 4.215-202.837-32.119-280-109a51.448 51.448 0 0 1 11-3c41.667-.667 83.333-.667 125 0 7.937 2.941 14.437 7.775 19.5 14.5 11.259-20.691 28.092-34.357 50.5-41z"/><path style="opacity:1" fill="#f6b314" d="M192.5 686.5c32.668-.167 65.335 0 98 .5 4.595 5.281 6.928 11.448 7 18.5-37.335.167-74.668 0-112-.5-.559-7.145 1.775-13.312 7-18.5zM571.5 686.5c32.668-.167 65.335 0 98 .5 4.99 5.149 7.323 11.316 7 18.5-37.335.167-74.668 0-112-.5-.559-7.145 1.775-13.312 7-18.5z"/></svg>