<svg xmlns="http://www.w3.org/2000/svg" width="855" height="855" style="shape-rendering:geometricPrecision;text-rendering:geometricPrecision;image-rendering:optimizeQuality;fill-rule:evenodd;clip-rule:evenodd"><path style="opacity:1" fill="#272324" d="M222.5 780.5c-.473-1.406-1.473-2.073-3-2-3.525-1.259-6.525-3.259-9-6-.473-1.406-1.473-2.073-3-2-1.73-.526-3.064-1.526-4-3-.473-1.406-1.473-2.073-3-2-43.204-31.53-77.871-70.53-104-117 .215-1.679-.452-2.679-2-3-27.97-51.423-44.137-106.423-48.5-165a110322.734 110322.734 0 0 1-32.5-468h828a756733.824 756733.824 0 0 1-32.5 462c-7.231 111.288-52.398 203.454-135.5 276.5-96.215 77.303-205.215 104.303-327 81-44.562-9.793-85.895-26.959-124-51.5z"/><path style="opacity:1" fill="#1a412c" d="M32.5 30.5c263.166-1 526.499-1.333 790-1 .306 2.885-.027 5.552-1 8v-7h-789z"/><path style="opacity:1" fill="#00a54f" d="M32.5 30.5h789v7a76250.475 76250.475 0 0 1-33.5 465C766.347 636.128 694.513 731.961 572.5 790c-116.083 49.631-228.417 42.298-337-22C136.194 702.969 79.36 611.136 65 492.5a398781.714 398781.714 0 0 0-32.5-462z"/><path style="opacity:1" fill="#282726" d="M207.5 138.5c10.821.995 21.821 1.328 33 1v-13c1.421-4.59 4.421-7.756 9-9.5 28.333-.667 56.667-.667 85 0 5.585 1.417 8.919 4.917 10 10.5v12h31v-12c1.012-5.18 4.012-8.68 9-10.5 28.333-.667 56.667-.667 85 0 5.148 1.316 8.482 4.483 10 9.5v13c10.514.328 20.847-.006 31-1a84.902 84.902 0 0 1 .5-13c1.627-4.562 4.794-7.395 9.5-8.5 28-.667 56-.667 84 0 5.148 1.316 8.482 4.483 10 9.5v13h33v-13c1.136-4.428 3.802-7.595 8-9.5 24-.667 48-.667 72 0 5.14 1.14 8.307 4.306 9.5 9.5.939 16.387.606 32.72-1 49-2.087 3.802-5.254 6.302-9.5 7.5-6.658.5-13.325.666-20 .5a848.62 848.62 0 0 1-2 29c4.353.265 8.687.765 13 1.5 3.558 1.892 6.058 4.725 7.5 8.5a1378.253 1378.253 0 0 1-5 74c-.119 17.313-8.619 23.979-25.5 20a2825.828 2825.828 0 0 1-2 32c6.703-.026 12.87 1.641 18.5 5l3 5c.667 6 .667 12 0 18a1128.137 1128.137 0 0 1-7 69c-2.708 5.379-7.041 8.379-13 9a59.734 59.734 0 0 0-11.5-1 466.648 466.648 0 0 0-6.5 44 287.046 287.046 0 0 1 20 11c2.374 4.394 3.041 9.06 2 14a3583.743 3583.743 0 0 1-33 73c-3.185 4.008-7.351 6.008-12.5 6a3037.86 3037.86 0 0 0-19-6.5L607 627.5c-.667 1-.667 2 0 3 4.964 5.438 8.464 11.605 10.5 18.5.064 5.872-2.269 10.538-7 14l-60 42c-7.294 3.82-14.128 3.32-20.5-1.5-2.585-5.227-6.085-9.56-10.5-13a857.796 857.796 0 0 0-38 13.5 264.501 264.501 0 0 0-1.5 22.5c-1.927 4.928-5.427 8.094-10.5 9.5-28 .667-56 .667-84 0-4.706-1.105-7.873-3.938-9.5-8.5a242.43 242.43 0 0 1-.5-22 794.566 794.566 0 0 1-44.5-15 122.83 122.83 0 0 0-11.5 14.5c-4.732 2.401-9.732 3.068-15 2a1189.18 1189.18 0 0 1-67.5-47.5c-3.109-4.185-4.109-8.852-3-14a113.627 113.627 0 0 1 10-15c.667-1 .667-2 0-3L217.5 595a269.773 269.773 0 0 1-20 6.5c-4.619-.443-8.452-2.443-11.5-6l-33-74c-1.242-5.194-.242-9.86 3-14a81.011 81.011 0 0 1 19.5-9 377.584 377.584 0 0 0-7-44c-17.421 3.082-26.254-4.251-26.5-22a1031.07 1031.07 0 0 1-5-72c.998-3.993 3.165-7.159 6.5-9.5a54.805 54.805 0 0 1 16-2.5 388.073 388.073 0 0 1-3-32c-17.444 4.015-25.944-2.985-25.5-21a9838.506 9838.506 0 0 0-5-57 64.218 64.218 0 0 1 0-16c4.193-8.512 11.026-11.846 20.5-10a2529.442 2529.442 0 0 0-2-29 145.053 145.053 0 0 1-17-.5c-3.775-1.442-6.608-3.942-8.5-7.5a336.252 336.252 0 0 1-1-51 20.231 20.231 0 0 1 7.5-7.5c24.333-.667 48.667-.667 73 0 3.437 1.105 5.937 3.272 7.5 6.5a45.902 45.902 0 0 1 1.5 15z"/><path style="opacity:1" fill="#f6f6f6" d="M203.5 126.5v12h-10c-1.085-4.254-3.752-7.087-8-8.5a552.224 552.224 0 0 0-47 0c-3.558 1.892-6.058 4.725-7.5 8.5a121.19 121.19 0 0 0 0 22c2.116 5.962 6.283 8.962 12.5 9a23.832 23.832 0 0 0 1 9 48.73 48.73 0 0 1-17 .5c-2.833-1.5-5-3.667-6.5-6.5a528.986 528.986 0 0 1 0-46 17.842 17.842 0 0 1 4.5-5.5 658.105 658.105 0 0 1 72-1c2.909 1.406 4.909 3.572 6 6.5z"/><path style="opacity:1" fill="#f7f7f7" d="M340.5 126.5v12h-12c-1.918-4.412-5.251-7.246-10-8.5-18-.667-36-.667-54 0-4.333 1.667-7.333 4.667-9 9a72.367 72.367 0 0 1-12 .5 84.902 84.902 0 0 1 .5-13c1.563-3.228 4.063-5.395 7.5-6.5a1680.41 1680.41 0 0 1 82 0c3.508 1.012 5.842 3.178 7 6.5zM391.5 138.5h-12v-12c1.158-3.322 3.492-5.488 7-6.5a1680.41 1680.41 0 0 1 82 0c3.437 1.105 5.937 3.272 7.5 6.5.499 4.321.666 8.654.5 13a72.367 72.367 0 0 1-12-.5c-1.762-4.763-5.096-7.763-10-9a756.122 756.122 0 0 0-55 0c-3.57 2.068-6.237 4.901-8 8.5zM526.5 138.5h-12v-12c1.158-3.322 3.492-5.488 7-6.5a1680.41 1680.41 0 0 1 82 0c3.062 1.061 5.562 2.894 7.5 5.5.499 4.655.666 9.321.5 14a72.367 72.367 0 0 1-12-.5c-1.762-4.763-5.096-7.763-10-9a756.122 756.122 0 0 0-55 0c-3.57 2.068-6.237 4.901-8 8.5zM657.5 119.5c23.336-.167 46.669 0 70 .5a36.078 36.078 0 0 1 4.5 3.5 319.884 319.884 0 0 1 1 50c-1.26 2.928-3.427 4.761-6.5 5.5-6.325.5-12.658.666-19 .5v-10c7.24 1.131 12.406-1.535 15.5-8 .667-8 .667-16 0-24-1.25-2.671-3.083-4.837-5.5-6.5a307.35 307.35 0 0 0-49-1c-3.526 2.026-6.193 4.859-8 8.5a25.879 25.879 0 0 1-10 1 98.432 98.432 0 0 1 .5-14c1.494-2.814 3.66-4.814 6.5-6z"/><path style="opacity:1" fill="#01a24e" d="m189.5 137.5-9 2c-2.519.348-4.353 1.681-5.5 4-2.764 12.74 2.403 18.407 15.5 17a15.855 15.855 0 0 1-6 5.5c-6.992.5-13.992.666-21 .5a66.755 66.755 0 0 0-1.5-14c-.833-1.5-2-2.667-3.5-3.5-4-.667-8-.667-12 0l-3.5 3.5a100.292 100.292 0 0 1-1.5 14c-6.861-3.544-9.528-9.211-8-17-1.428-7.243.905-12.743 7-16.5a484.008 484.008 0 0 1 44 0c2.16.996 3.827 2.496 5 4.5z"/><path style="opacity:1" fill="#01a34f" d="M266.5 132.5c18.069-.46 36.069.04 54 1.5a25.513 25.513 0 0 1 4 4.5c-11.074-.091-15.24 5.242-12.5 16a11.532 11.532 0 0 0 3.5 4.5l10 1c-1.55 3.446-4.217 5.446-8 6a675.912 675.912 0 0 1-52 0c-8.62-4.918-7.953-7.251 2-7l3.5-3.5c.667-4 .667-8 0-12-.5-1.833-1.667-3-3.5-3.5a34.251 34.251 0 0 1-8-1.5c1.807-2.719 4.14-4.719 7-6zM459.5 137.5l-7 2c-2.519.348-4.353 1.681-5.5 4-3.085 11.745 1.415 17.412 13.5 17-1.793 3.066-4.46 4.9-8 5.5-17 .667-34 .667-51 0-9.776-5.43-9.109-7.764 2-7a12.403 12.403 0 0 0 4-2.5c1.106-4.277 1.272-8.61.5-13-.5-1.833-1.667-3-3.5-3.5-10.415.568-11.415-1.765-3-7a675.912 675.912 0 0 1 52 0c2.606.792 4.606 2.292 6 4.5zM594.5 137.5l-6 2a11.105 11.105 0 0 0-4.5 3 42.479 42.479 0 0 0 0 13c.5 1.833 1.667 3 3.5 3.5 8.781-.369 9.781 1.631 3 6a376.338 376.338 0 0 1-54 1c-9.957-5.795-8.957-8.128 3-7l3.5-3.5c3.552-11.604-.614-17.27-12.5-17a15.855 15.855 0 0 1 6-5.5 675.912 675.912 0 0 1 52 0c2.606.792 4.606 2.292 6 4.5z"/><path style="opacity:1" fill="#01a24e" d="M670.5 132.5c14.67-.167 29.337 0 44 .5 2.5 1.167 4.333 3 5.5 5.5.667 7 .667 14 0 21-1.861 5.362-5.695 7.696-11.5 7 3.744-14.417-1.589-20.251-16-17.5l-3.5 3.5a496.933 496.933 0 0 1-1.5 14 162.597 162.597 0 0 1-18-.5c-2.533-1.033-4.199-2.867-5-5.5 13.074 1.429 18.24-4.237 15.5-17l-3.5-3.5a74.086 74.086 0 0 1-12-1.5c1.715-2.382 3.715-4.382 6-6z"/><path style="opacity:1" fill="#126137" d="M189.5 137.5c.543.06.876.393 1 1a25.879 25.879 0 0 1-10 1l9-2z"/><path style="opacity:1" fill="#898788" d="M203.5 126.5c.985 4.134 1.318 8.468 1 13-3.871.315-7.538-.018-11-1h10v-12z"/><path style="opacity:1" fill="#155b35" d="M240.5 126.5v13c-11.179.328-22.179-.005-33-1h32c-.317-4.202.017-8.202 1-12z"/><path style="opacity:1" fill="#9d9b9c" d="M340.5 126.5c.985 4.134 1.318 8.468 1 13-4.532.318-8.866-.015-13-1h12v-12z"/><path style="opacity:1" fill="#126338" d="M344.5 127.5c.982 3.462 1.315 7.129 1 11h29c-.315-3.871.018-7.538 1-11v12h-31v-12z"/><path style="opacity:1" fill="#9d9b9c" d="M379.5 126.5v12h12c-4.134.985-8.468 1.318-13 1-.318-4.532.015-8.866 1-13z"/><path style="opacity:1" fill="#126137" d="M459.5 137.5c.543.06.876.393 1 1a16.873 16.873 0 0 1-8 1l7-2z"/><path style="opacity:1" fill="#155b35" d="M479.5 126.5c.983 3.798 1.317 7.798 1 12h30c-10.153.994-20.486 1.328-31 1v-13z"/><path style="opacity:1" fill="#9c9b9b" d="M514.5 126.5v12h12c-4.134.985-8.468 1.318-13 1-.318-4.532.015-8.866 1-13z"/><path style="opacity:1" fill="#116438" d="M594.5 137.5c.543.06.876.393 1 1a13.116 13.116 0 0 1-7 1l6-2z"/><path style="opacity:1" fill="#155c35" d="M614.5 126.5c.983 3.798 1.317 7.798 1 12h31c-.317-4.202.017-8.202 1-12v13h-33v-13z"/><path style="opacity:1" fill="#f6f6f6" d="M179.5 142.5c28.669-.167 57.335 0 86 .5 2.49 1.128 3.49 3.128 3 6 .419 2.981-.581 5.314-3 7-28.333.667-56.667.667-85 0-3.664-4.17-3.997-8.67-1-13.5zM317.5 142.5c28.669-.167 57.335 0 86 .5 2.606 4.267 2.606 8.601 0 13-28.667.667-57.333.667-86 0-3.959-4.499-3.959-8.999 0-13.5zM451.5 142.5c28.669-.167 57.335 0 86 .5 2.49 1.128 3.49 3.128 3 6 .419 2.981-.581 5.314-3 7-28.333.667-56.667.667-85 0-3.664-4.17-3.997-8.67-1-13.5z"/><path style="opacity:1" fill="#f7f6f6" d="M588.5 142.5c28.669-.167 57.335 0 86 .5l1.5 1.5a25.238 25.238 0 0 1 0 10l-1.5 1.5c-28.667.667-57.333.667-86 0-2.633-4.499-2.633-8.999 0-13.5z"/><path style="opacity:1" fill="#f9f9f9" d="M148.5 151.5c4.103-.731 7.603.269 10.5 3a2507.052 2507.052 0 0 1 7 85c-4.406 3.923-8.739 3.923-13 0a1711.12 1711.12 0 0 1-7-85 10.515 10.515 0 0 0 2.5-3z"/><path style="opacity:1" fill="#fafafa" d="M694.5 151.5c3.149-.289 6.149.211 9 1.5 1.48 1.299 2.146 2.966 2 5a40238.88 40238.88 0 0 0-7.5 81.5c-3.659 3.615-7.659 3.948-12 1l-.5-8.5c2.24-25.827 4.407-51.661 6.5-77.5a10.515 10.515 0 0 0 2.5-3z"/><path style="opacity:1" fill="#098343" d="M239.5 160.5h-31c.313 3.542-.021 6.875-1 10v-11c10.846-.328 21.513.006 32 1z"/><path style="opacity:1" fill="#0e783f" d="M375.5 170.5c-.979-3.125-1.313-6.458-1-10h-29c.315 3.871-.018 7.538-1 11v-12h31v11z"/><path style="opacity:1" fill="#098343" d="M480.5 160.5c9.819-.994 19.819-1.327 30-1v12c-.982-3.462-1.315-7.129-1-11h-29z"/><path style="opacity:1" fill="#0c7c41" d="M615.5 160.5c10.487-.994 21.154-1.328 32-1v12c-.982-3.462-1.315-7.129-1-11h-31z"/><path style="opacity:1" fill="#fdfdfd" d="M203.5 172.5c-1.091 2.928-3.091 5.094-6 6.5-10.995.5-21.995.667-33 .5v-7c6.101-1.649 12.435-2.649 19-3 4.808-.806 8.141-3.473 10-8 3.228-.914 6.561-1.247 10-1v12z"/><path style="opacity:1" fill="#9c9a9b" d="M203.5 172.5v-12c-3.439-.247-6.772.086-10 1 3.184-1.914 6.851-2.58 11-2 .318 4.532-.015 8.866-1 13z"/><path style="opacity:1" fill="#00a54f" d="M239.5 160.5c-2.21 11.425 2.123 18.925 13 22.5 26.667.667 53.333.667 80 0 6.48-1.314 10.48-5.147 12-11.5.982-3.462 1.315-7.129 1-11h29c-.313 3.542.021 6.875 1 10 .965 6.47 4.632 10.636 11 12.5 27 .667 54 .667 81 0 10.877-3.575 15.21-11.075 13-22.5h29c-.315 3.871.018 7.538 1 11 1.417 5.919 5.084 9.752 11 11.5 27 .667 54 .667 81 0 10.877-3.575 15.21-11.075 13-22.5h31c-.315 3.871.018 7.538 1 11 .543 6.21 3.877 9.876 10 11 9.152.994 18.485 1.327 28 1v5a160.278 160.278 0 0 0-1 17c-.934 1.068-1.268 2.401-1 4h-5c-9.905-1.604-16.405 2.396-19.5 12l-6.5 76.5c.037 7.41 3.37 12.743 10 16 3.986.499 7.986.666 12 .5a603.114 603.114 0 0 1-3 32c-11.89-3.417-19.724.583-23.5 12a1786.516 1786.516 0 0 1-6.5 75c.568 12.732 7.234 18.565 20 17.5.457.414.791.914 1 1.5a890.797 890.797 0 0 0-6.5 35c-9.675-1.661-16.675 2.006-21 11l-30 68c-1.977 9.093 1.189 15.593 9.5 19.5a747.389 747.389 0 0 1-21 24.5c-5.183-5.948-11.516-7.448-19-4.5a3255.771 3255.771 0 0 1-63 44c-8.015 6.437-9.015 13.771-3 22a1415.729 1415.729 0 0 1-28 10.5c-1.866-6.699-6.2-10.866-13-12.5l-40-.5a509.456 509.456 0 0 0-44 1.5c-5.356 2.509-8.023 6.676-8 12.5a888.041 888.041 0 0 1-32-10c5.12-9.003 3.787-16.837-4-23.5l-64-44c-3.572-1.405-7.239-1.738-11-1a332.342 332.342 0 0 0-8 5l-20-24c8.904-4.003 12.071-10.837 9.5-20.5a4782.11 4782.11 0 0 1-32-71c-5.029-6.085-11.196-8.585-18.5-7.5a437.89 437.89 0 0 1-6-35.5c16.757-.622 23.257-9.289 19.5-26l-6-68c-4.353-10.462-12.187-14.129-23.5-11a486.055 486.055 0 0 1-2-32 54.672 54.672 0 0 0 15-2.5c3.254-2.342 5.088-5.509 5.5-9.5a1353.757 1353.757 0 0 0-6-81c-4.149-11.014-11.982-14.68-23.5-11a127.77 127.77 0 0 1-3-24v-3c10.846.328 21.513-.006 32-1 5.846-1.851 9.18-5.851 10-12 .979-3.125 1.313-6.458 1-10h31z"/><path style="opacity:1" fill="#f8f8f8" d="M328.5 160.5h12v12c-1.267 3.757-3.934 5.924-8 6.5a1680.41 1680.41 0 0 1-82 0c-2.833-1.5-5-3.667-6.5-6.5a84.902 84.902 0 0 1-.5-13 72.367 72.367 0 0 1 12 .5c1.667 4.333 4.667 7.333 9 9 18.333.667 36.667.667 55 0 4.768-1.036 7.768-3.87 9-8.5z"/><path style="opacity:1" fill="#c1c0c0" d="M328.5 160.5c4.134-.985 8.468-1.318 13-1 .318 4.532-.015 8.866-1 13v-12h-12zM391.5 161.5c-3.9-.93-7.9-1.263-12-1v12c-.985-4.134-1.318-8.468-1-13 4.794-.597 9.127.07 13 2z"/><path style="opacity:1" fill="#f8f8f8" d="M379.5 172.5v-12c4.1-.263 8.1.07 12 1 1.554 3.623 4.221 6.123 8 7.5 18.333.667 36.667.667 55 0 4.904-1.237 8.238-4.237 10-9a72.367 72.367 0 0 1 12-.5 84.902 84.902 0 0 1-.5 13c-1.587 3.256-4.087 5.423-7.5 6.5a1721.64 1721.64 0 0 1-83 0c-2.909-1.406-4.909-3.572-6-6.5z"/><path style="opacity:1" fill="#c0bfbf" d="M526.5 160.5h-12v12c-.985-4.134-1.318-8.468-1-13 4.532-.318 8.866.015 13 1z"/><path style="opacity:1" fill="#f8f8f8" d="M514.5 172.5v-12h12c1.085 4.254 3.752 7.087 8 8.5 18.333.667 36.667.667 55 0 4.904-1.237 8.238-4.237 10-9a72.367 72.367 0 0 1 12-.5 84.902 84.902 0 0 1-.5 13c-1.587 3.256-4.087 5.423-7.5 6.5a1721.64 1721.64 0 0 1-83 0c-2.909-1.406-4.909-3.572-6-6.5z"/><path style="opacity:1" fill="#fbfbfb" d="M670.5 169.5c5.14.988 10.474 1.321 16 1v9a179.122 179.122 0 0 1-32-1.5 15.83 15.83 0 0 1-3.5-5.5 84.902 84.902 0 0 1-.5-13c3.398-.32 6.732.013 10 1 1.78 4.783 5.113 7.783 10 9z"/><path style="opacity:1" fill="#8e8c8d" d="M183.5 169.5c-6.565.351-12.899 1.351-19 3-.904-.709-1.237-1.709-1-3h20z"/><path style="opacity:1" fill="#918f90" d="M670.5 169.5h17c.284 1.915-.049 3.581-1 5v-4c-5.526.321-10.86-.012-16-1z"/><path style="opacity:1" fill="#1a442d" d="M197.5 182.5c-10.487.994-21.154 1.328-32 1v3c-.934-1.068-1.268-2.401-1-4h33z"/><path style="opacity:1" fill="#1a452d" d="M657.5 182.5h29c.295 2.235-.039 4.235-1 6v-5c-9.515.327-18.848-.006-28-1z"/><path style="opacity:1" fill="#195734" d="M684.5 205.5v5c-2.235.295-4.235-.039-6-1h5c-.268-1.599.066-2.932 1-4z"/><path style="opacity:1" fill="#f8f8f8" d="M175.5 212.5c6.061-.223 10.228 2.444 12.5 8a2319.489 2319.489 0 0 1 7 82c-.883 2.602-2.383 4.769-4.5 6.5a82.766 82.766 0 0 1-14 2.5 40.927 40.927 0 0 0-1-10.5c2.203-2.38 4.37-4.88 6.5-7.5 1.842-3.254 2.675-6.754 2.5-10.5a2740.478 2740.478 0 0 0-4.5-46.5c-1.538-6.041-5.371-9.375-11.5-10-.086-4.357-.42-8.69-1-13 2.885.306 5.552-.027 8-1z"/><path style="opacity:1" fill="#f9f9f9" d="M668.5 213.5h15a77.1 77.1 0 0 0-1 13c-5.487 1.313-9.32 4.647-11.5 10a3147.433 3147.433 0 0 0-4.5 47.5c-.052 6.4 2.614 11.234 8 14.5.774 4.292.774 8.625 0 13a74.058 74.058 0 0 1-12-1.5c-2.5-1.167-4.333-3-5.5-5.5a1037.766 1037.766 0 0 1 6-84 57.09 57.09 0 0 1 5.5-7zM141.5 215.5h6a40.927 40.927 0 0 0 1 10.5c-2.203 2.38-4.37 4.88-6.5 7.5-1.899 2.874-2.733 6.041-2.5 9.5a868.9 868.9 0 0 1 3.5 39.5c-.213 7.384 2.62 13.217 8.5 17.5a8.43 8.43 0 0 0 4 .5v13c-4.025.316-8.025.483-12 .5-3.719-1.263-6.219-3.763-7.5-7.5a784.562 784.562 0 0 1-6-84c2.589-4.538 6.422-6.871 11.5-7z"/><path style="opacity:1" fill="#f8f8f8" d="M703.5 215.5c4.816.08 9.483.914 14 2.5 3.296 2.925 4.963 6.592 5 11a36784.633 36784.633 0 0 0-7.5 77.5c-1.167 3.833-3.667 6.333-7.5 7.5a162.136 162.136 0 0 1-12-.5 72.367 72.367 0 0 1 .5-12c6.102-1.769 9.769-5.769 11-12a439.31 439.31 0 0 0 4-52c-1.149-3.984-3.482-6.984-7-9a84.902 84.902 0 0 1-.5-13z"/><path style="opacity:1" fill="#2a2b29" d="M421.5 228.5c3.763 5.598 8.43 10.432 14 14.5a824.257 824.257 0 0 0 33 20c16.498 15.584 23.498 34.751 21 57.5 22.462-7.598 43.462-4.764 63 8.5a205.42 205.42 0 0 0 38 30l5 1c-3.371 3.236-5.871 7.069-7.5 11.5a994.39 994.39 0 0 0-11 43c-4.574 12.575-12.741 22.075-24.5 28.5a167.28 167.28 0 0 1-23 10c14.955 20.059 18.122 41.893 9.5 65.5-8.231 14.69-13.231 30.357-15 47a29.517 29.517 0 0 0-4.5-2.5 307.21 307.21 0 0 0-49.5 1.5c-13.303-.071-25.136-4.238-35.5-12.5a135.382 135.382 0 0 1-18.5-20.5c-10.738 14.619-24.905 24.119-42.5 28.5-15.357.35-30.69-.15-46-1.5l-15 .5a29.517 29.517 0 0 0-4.5 2.5 97.754 97.754 0 0 0-2-16 990.376 990.376 0 0 0-16-39c-2.419-11.869-1.753-23.535 2-35a223.232 223.232 0 0 1 13.5-25c-22.533-6.366-37.366-20.7-44.5-43-2.915-17.289-7.581-33.956-14-50 14.701-8.11 27.868-18.276 39.5-30.5 20.609-13.166 42.276-15 65-5.5.051-23.265 9.051-42.098 27-56.5a275.155 275.155 0 0 0 33-20c4.331-3.484 7.664-7.651 10-12.5z"/><path style="opacity:1" fill="#00a44f" d="M169.5 230.5c2.928 1.091 5.094 3.091 6.5 6a47.627 47.627 0 0 1 3 16c1 12.658 1.333 25.325 1 38-.875 2.715-2.708 4.048-5.5 4 .625-3.47-.375-6.304-3-8.5-11.14-4.022-16.973-.188-17.5 11.5-6.556-6.538-9.556-14.538-9-24-.483-9.334-.983-18.668-1.5-28a34.482 34.482 0 0 1 1.5-11 7.248 7.248 0 0 1 2.5-2c.763 10.938 6.43 15.104 17 12.5 2.167-.833 3.667-2.333 4.5-4.5.498-3.317.665-6.65.5-10zM679.5 230.5c1.75 2.855 2.583 6.189 2.5 10 .93 2.052 2.43 3.552 4.5 4.5 10.69 2.656 16.357-1.511 17-12.5 1.697.864 2.863 2.197 3.5 4a401.872 401.872 0 0 1-1 41 64.894 64.894 0 0 1-5 17 13.92 13.92 0 0 1-4 3c1.148-6.56-1.352-10.727-7.5-12.5-8.237-2.05-12.904 1.116-14 9.5-2.368-.869-3.868-2.535-4.5-5a666.692 666.692 0 0 1 1-40c.268-7.32 2.768-13.654 7.5-19z"/><path style="opacity:1" fill="#fdfdfd" d="M421.5 234.5c12.751 11.235 26.751 20.735 42 28.5 10.777 8.371 17.943 19.204 21.5 32.5a170.558 170.558 0 0 1 1.5 29c22.449-8.374 43.782-6.207 64 6.5 11.941 11.95 24.941 22.45 39 31.5a74.739 74.739 0 0 0-6.5 15 675.035 675.035 0 0 1-10 40c-11.355 18.102-27.522 29.436-48.5 34 14.579 16.902 19.412 36.235 14.5 58a727.111 727.111 0 0 0-16 40 46.94 46.94 0 0 0-1.5 11 294.151 294.151 0 0 0-53 1c-11.933-.366-22.6-4.2-32-11.5-8.339-6.997-15.173-15.164-20.5-24.5-12.357 20.179-30.357 30.846-54 32a257.356 257.356 0 0 0-50.5-1 111.113 111.113 0 0 0-5.5-20 377.108 377.108 0 0 1-14-34c-2.162-21.839 4.338-40.673 19.5-56.5-21.615-5.628-37.115-18.462-46.5-38.5a236.543 236.543 0 0 0-14.5-51.5c13.736-8.889 26.403-19.222 38-31 15.195-10.474 31.862-13.474 50-9a320.73 320.73 0 0 1 17 5.5c-1.895-24.027 6.439-43.527 25-58.5a316.46 316.46 0 0 0 26-15 57.954 57.954 0 0 0 15-13.5z"/><path style="opacity:1" fill="#faf9f9" d="M160.5 288.5a40.914 40.914 0 0 1 9 .5l1.5 1.5a1633.4 1633.4 0 0 1 7 86c-4.399 2.606-8.733 2.606-13 0a3107.155 3107.155 0 0 0-7.5-82.5c.363-2.192 1.363-4.026 3-5.5z"/><path style="opacity:1" fill="#f9f9f9" d="M681.5 288.5a40.914 40.914 0 0 1 9 .5c2.333 1.333 3.333 3.333 3 6a5032.227 5032.227 0 0 0-7.5 81.5c-3.578 2.266-7.412 2.6-11.5 1-1.437-1.521-2.104-3.355-2-5.5a7602.386 7602.386 0 0 0 7.5-81.5c.717-.544 1.217-1.211 1.5-2z"/><path style="opacity:1" fill="#312d2e" d="M418.5 299.5c9.498-1.327 13.998 2.673 13.5 12a8.905 8.905 0 0 1-3 4 1691.495 1691.495 0 0 0-1 65c6.443 2.777 11.277 7.277 14.5 13.5a2939.764 2939.764 0 0 0 60-17c2.977-5.82 7.644-7.82 14-6 5.167 3.765 6.333 8.599 3.5 14.5a36.078 36.078 0 0 1-4.5 3.5h-12a5867.961 5867.961 0 0 0-58 17.5c-.901 7.392-3.901 13.725-9 19a2577.904 2577.904 0 0 1 34.5 50c1.8 1.817 3.966 2.984 6.5 3.5 5.333 5.333 5.333 10.667 0 16-9.944 2.925-15.11-.908-15.5-11.5l-35.5-51a784.206 784.206 0 0 1-14-.5 54.237 54.237 0 0 1-6.5-2.5c-1.261.259-2.261.926-3 2a1756.86 1756.86 0 0 1-34 45 29.927 29.927 0 0 0-2 9c-2.881 4.69-7.048 6.523-12.5 5.5-5.967-3.392-7.467-8.226-4.5-14.5 2.195-2.43 4.862-4.097 8-5l37-49a598.615 598.615 0 0 1-3.5-17c.051-1.6.384-3.1 1-4.5a4815.842 4815.842 0 0 0-59.5-21.5c-6.611 3.54-11.611 1.873-15-5-.672-8.992 3.494-12.825 12.5-11.5a51.705 51.705 0 0 1 8 6 2114.892 2114.892 0 0 1 58 20.5c5.107-5.719 11.44-9.053 19-10 .711-21.331.877-42.664.5-64-3.946-6.226-3.112-11.56 2.5-16z"/><path style="opacity:1" fill="#f6f6f6" d="M425.5 357.5c-.348 7.557-1.348 14.89-3 22h-4c.119-15.67.452-31.337 1-47-.155-9.561-.988-18.895-2.5-28 2.841-2.004 6.007-2.504 9.5-1.5 3.964 3.903 3.797 7.736-.5 11.5a924.222 924.222 0 0 0-.5 43z"/><path style="opacity:1" fill="#f8f8f8" d="M184.5 349.5c6.628-1.269 11.461 1.064 14.5 7a1699.196 1699.196 0 0 1 7 82c-3.533 8.769-9.533 11.102-18 7-1.213-3.268-1.546-6.601-1-10 5.703-3.735 8.536-9.069 8.5-16a4627.155 4627.155 0 0 1-3.5-39c-.226-6.02-2.393-11.186-6.5-15.5-1.525-1.009-3.192-1.509-5-1.5v-13c1.599.268 2.932-.066 4-1z"/><path style="opacity:1" fill="#f9f9f9" d="M666.5 349.5c1.068.934 2.401 1.268 4 1v6a18.453 18.453 0 0 1-.5 6c-5.065 2.067-8.399 5.733-10 11a15724.645 15724.645 0 0 0-4.5 47.5c.399 6.302 3.232 11.136 8.5 14.5a37.973 37.973 0 0 1-1 10c-9.988 4.252-16.155.919-18.5-10 2.642-25.98 5.142-51.98 7.5-78 2.549-6.693 7.383-9.36 14.5-8z"/><path style="opacity:1" fill="#6e6c6d" d="M666.5 349.5h5c.302 2.559-.032 4.893-1 7v-6c-1.599.268-2.932-.066-4-1z"/><path style="opacity:1" fill="#6f6c6d" d="M184.5 349.5c-1.068.934-2.401 1.268-4 1v5c-.961-1.765-1.295-3.765-1-6h5z"/><path style="opacity:1" fill="#f9f9f9" d="M147.5 352.5h12a35.98 35.98 0 0 0 1 9.5c-4.211 3.232-7.378 7.398-9.5 12.5a396.959 396.959 0 0 0 5 55c2.387 4.053 5.72 7.053 10 9a98.305 98.305 0 0 0 1.5 9c-.318 1.147-.984 1.981-2 2.5-4 .667-8 .667-12 0a17.842 17.842 0 0 1-5.5-4.5 149.014 149.014 0 0 1-3-19 1350.782 1350.782 0 0 0-5.5-61.5c.454-5.613 3.12-9.78 8-12.5zM688.5 450.5c-1.068-.934-2.401-1.268-4-1v-4c-.252-2.82.248-5.486 1.5-8 5.065-2.067 8.399-5.733 10-11a379.325 379.325 0 0 0 4-53c-1.637-4.137-4.47-7.137-8.5-9-.684-3.946-.684-7.946 0-12 5.605-.592 10.939.241 16 2.5 2.869 2.906 4.202 6.406 4 10.5a3086.784 3086.784 0 0 1-7.5 78c-3.319 6.24-8.485 8.574-15.5 7z"/><path style="opacity:1" fill="#f5f5f5" d="M323.5 365.5c2.357-.163 4.69.003 7 .5a346.61 346.61 0 0 0 5 5 2265.416 2265.416 0 0 1 60 21.5 18.924 18.924 0 0 1-3 5l-60-21c-4.283 2.643-8.116 1.976-11.5-2-.869-3.493-.036-6.493 2.5-9z"/><path style="opacity:1" fill="#01a34f" d="M667.5 367.5c1.637 3.641 2.803 7.641 3.5 12 5.734 3.94 11.401 3.94 17 0 1.337-3.526 1.837-7.192 1.5-11 2.763.244 4.929 1.577 6.5 4a305.364 305.364 0 0 1-2 48c-.833 5.188-3.167 9.521-7 13 .479-10.849-4.687-15.349-15.5-13.5-3.992 2.336-5.825 5.836-5.5 10.5-2.865.541-4.865-.793-6-4a742.808 742.808 0 0 1 1-40c.491-6.974 2.657-13.307 6.5-19zM181.5 366.5c5.504 5.017 8.337 11.35 8.5 19a537.844 537.844 0 0 1 1 41c-3.976 6.97-6.309 6.303-7-2-4.552-5.841-10.052-6.674-16.5-2.5a6.978 6.978 0 0 0-2.5 3.5l-1 8c-5.711-6.512-8.378-14.179-8-23a328.811 328.811 0 0 1-1-38c1.571-2.423 3.737-3.756 6.5-4-1.411 12.404 3.922 16.571 16 12.5 1.833-.5 3-1.667 3.5-3.5.499-3.652.665-7.318.5-11z"/><path style="opacity:1" fill="#6d6a6b" d="M425.5 357.5v23c-1.291.237-2.291-.096-3-1 1.652-7.11 2.652-14.443 3-22z"/><path style="opacity:1" fill="#f4f4f4" d="M509.5 373.5c7.666-.832 10.499 2.502 8.5 10-3.19 3.505-6.69 3.838-10.5 1a3408.12 3408.12 0 0 1-63 19 9.108 9.108 0 0 0-1-5 928.545 928.545 0 0 1 61-19.5c1.343-2.232 3.01-4.066 5-5.5z"/><path style="opacity:1" fill="#f8f7f7" d="M410.5 382.5a98.432 98.432 0 0 1 14 .5c2.914.133 5.247 1.3 7 3.5a150.853 150.853 0 0 0-8.5 12c-2.755 3.866-5.421 3.866-8 0l-8.5-13a173.55 173.55 0 0 0 4-3z"/><path style="opacity:1" fill="#f6f6f6" d="M403.5 386.5a198.65 198.65 0 0 1 9.5 13c1.301 1.865 1.635 3.865 1 6a167.15 167.15 0 0 1-19.5 5c-.902-9.519 2.098-17.519 9-24zM433.5 388.5c3.879 2.403 6.546 5.903 8 10.5 1.006 4.478 1.006 8.978 0 13.5a219.547 219.547 0 0 1-19-6 10.098 10.098 0 0 1 1.5-6 159.201 159.201 0 0 0 9.5-12z"/><path style="opacity:1" fill="#f7f7f7" d="M411.5 408.5h5v21c-10.4-1.408-17.067-7.075-20-17 5.386-.336 10.386-1.67 15-4z"/><path style="opacity:1" fill="#f8f8f8" d="M420.5 408.5a219.547 219.547 0 0 0 19 6c-3.331 9.982-10.331 14.982-21 15a240.498 240.498 0 0 1 2-21z"/><path style="opacity:1" fill="#f9f9f9" d="M171.5 423.5c6.45-1.799 9.95.534 10.5 7 4.778 27.002 9.445 54.002 14 81 3.061 9.25-.106 13.416-9.5 12.5-1.167-.5-2-1.333-2.5-2.5a15765.859 15765.859 0 0 1-16.5-92.5c.507-2.545 1.841-4.379 4-5.5z"/><path style="opacity:1" fill="#fafafa" d="M672.5 423.5c5.683-1.331 9.349.669 11 6a17712.084 17712.084 0 0 1-16.5 93c-3.308 2.493-6.808 2.659-10.5.5-1.528-1.648-2.195-3.648-2-6a7454.91 7454.91 0 0 1 15.5-90.5 10.515 10.515 0 0 0 2.5-3z"/><path style="opacity:1" fill="#f5f5f5" d="M397.5 423.5c2.823.648 4.323 2.314 4.5 5a1937.183 1937.183 0 0 1-36 47l-3 11c-8.42 3.915-12.087 1.249-11-8a86.67 86.67 0 0 0 9-6 2517.074 2517.074 0 0 0 36.5-49z"/><path style="opacity:1" fill="#f5f4f4" d="M432.5 427.5c2.24 1.068 4.074 2.734 5.5 5l32.5 47c8.501 2.077 10.168 6.577 5 13.5-7.545.829-11.045-2.671-10.5-10.5a2817.51 2817.51 0 0 0-36.5-52 173.55 173.55 0 0 0 4-3z"/><path style="opacity:1" fill="#939192" d="M684.5 445.5v4c1.599-.268 2.932.066 4 1h-5c-.284-1.915.049-3.581 1-5z"/><path style="opacity:1" fill="#f9f9f9" d="M199.5 490.5c4.712.273 8.545 2.273 11.5 6a1753.76 1753.76 0 0 1 32.5 74.5c-.308 6.634-3.641 10.301-10 11a51.542 51.542 0 0 1-7-10c1.852-4.69 2.352-9.523 1.5-14.5a1117.592 1117.592 0 0 1-18-41c-2.565-4.743-6.398-7.743-11.5-9a55.171 55.171 0 0 0-2-13c.287-1.943 1.287-3.277 3-4zM645.5 491.5h9a153.571 153.571 0 0 1-2 16c-4.036.52-7.203 2.52-9.5 6l-20 44c-1.164 5.226-.331 10.059 2.5 14.5l-8 10c-6.126-.629-9.459-4.129-10-10.5a1855.025 1855.025 0 0 1 32.5-75 37.84 37.84 0 0 1 5.5-5z"/><path style="opacity:1" fill="#fafafa" d="M174.5 501.5h3a34.119 34.119 0 0 0 1 10c-2.981 2.836-5.481 6.169-7.5 10-.667 3-.667 6 0 9a1949.414 1949.414 0 0 0 21 46c4.045 4.771 9.212 6.937 15.5 6.5a62.744 62.744 0 0 1 7 8c-6.293 4.656-13.293 6.656-21 6a11.532 11.532 0 0 1-4.5-3.5 3381.414 3381.414 0 0 1-32-71c-.854-4.125-.52-8.125 1-12a133.32 133.32 0 0 1 16.5-9z"/><path style="opacity:1" fill="#f9f9f9" d="M674.5 501.5a67.995 67.995 0 0 1 18.5 9c1.52 3.875 1.854 7.875 1 12l-31 70c-3.788 4.653-8.622 6.153-14.5 4.5a69.749 69.749 0 0 1-12-6 62.744 62.744 0 0 0 7-8c6.768.192 12.268-2.308 16.5-7.5l19-42c3.461-8.431 1.461-15.097-6-20l-.5-3c.672-3.012 1.339-6.012 2-9z"/><path style="opacity:1" fill="#01a34f" d="M199.5 511.5c4.317 2.153 7.484 5.486 9.5 10a263.406 263.406 0 0 1 16.5 41.5c.104 2.145-.563 3.979-2 5.5a37.424 37.424 0 0 1-7-7.5c-6.83-2.238-11.996-.072-15.5 6.5-.979 3.795-.146 7.128 2.5 10l-2 1c-4.939-1.771-8.439-5.104-10.5-10a235.634 235.634 0 0 1-16.5-42.5c-.4-3.698.933-6.531 4-8.5 1.596 2.364 2.762 5.03 3.5 8a20.499 20.499 0 0 1 3.5 2.5c12.107.73 16.774-4.77 14-16.5zM649.5 511.5c.997-.03 1.664.47 2 1.5-2.004 11 2.662 16 14 15a6.978 6.978 0 0 0 3.5-2.5c2.798-10.39 5.631-10.223 8.5.5a369.73 369.73 0 0 1-18.5 44.5c-2.344 5.046-6.177 7.546-11.5 7.5 5.234-8.231 3.234-14.231-6-18-1.667-.667-3.333-.667-5 0a209.367 209.367 0 0 1-9 8.5c-1.437-1.521-2.104-3.355-2-5.5a358.045 358.045 0 0 1 14.5-37.5 67.952 67.952 0 0 1 9.5-14z"/><path style="opacity:1" fill="#fafafa" d="M208.5 563.5c3.47-.625 6.304.375 8.5 3a2674.274 2674.274 0 0 0 55 68c3.483 4.263 2.983 8.096-1.5 11.5-3.957 2.385-7.124 1.552-9.5-2.5a2674.274 2674.274 0 0 0-55-68c-2.489-4.743-1.655-8.743 2.5-12zM636.5 563.5c8.275-.794 11.442 2.873 9.5 11a9726.035 9726.035 0 0 1-59.5 72.5c-9.291-.806-11.457-5.306-6.5-13.5a1869.046 1869.046 0 0 0 56.5-70z"/><path style="opacity:1" fill="#f8f8f8" d="M264.5 608.5c4.137-.354 8.137.146 12 1.5l60 42c6.211 4.774 7.544 10.607 4 17.5l-2.5 1a48.61 48.61 0 0 1-10.5-3.5c-.644-6.618-3.644-11.951-9-16l-36-25a76.404 76.404 0 0 0-15-2l-8-10c1.192-2.355 2.859-4.188 5-5.5z"/><path style="opacity:1" fill="#f9f9f9" d="M576.5 608.5c16.066-.385 18.399 4.782 7 15.5a67.445 67.445 0 0 0-15 2 926.118 926.118 0 0 0-41.5 30.5 34.126 34.126 0 0 0-3.5 10.5 210.559 210.559 0 0 1-11 3.5c-1.853-.689-3.019-2.022-3.5-4-1.672-6.158.162-10.991 5.5-14.5a2968.507 2968.507 0 0 0 62-43.5z"/><path style="opacity:1" fill="#01a34e" d="M271.5 627.5c9.079 1.04 17.079 4.54 24 10.5a421.249 421.249 0 0 1 26.5 21.5 12.93 12.93 0 0 1 .5 5c-3.988-.995-7.988-1.995-12-3-2.771.256-4.938 1.59-6.5 4-4.018 8.876-1.518 14.709 7.5 17.5-3.472 1.58-7.138 1.913-11 1a121.345 121.345 0 0 1-13-7l-24-18a34.706 34.706 0 0 1-6.5-7.5c-.851-2.553-.518-4.886 1-7 2.451 5.589 6.617 7.422 12.5 5.5a17.842 17.842 0 0 1 5.5-4.5c1.483-3.202 1.817-6.536 1-10a55.157 55.157 0 0 1-5.5-8z"/><path style="opacity:1" fill="#01a34f" d="M573.5 627.5c2.357-.163 4.69.003 7 .5-9.179 7.493-9.179 14.826 0 22 5.235 1.466 9.401-.034 12.5-4.5 1.893 2.595 1.893 5.261 0 8a213.882 213.882 0 0 1-40.5 29.5c-4.425 1.871-8.758 1.871-13 0 11.172-4.181 12.839-10.848 5-20a10.413 10.413 0 0 0-5-1.5 102.563 102.563 0 0 1-11 3c-.004-4.529 1.996-8.029 6-10.5a301.16 301.16 0 0 1 39-26.5z"/><path style="opacity:1" fill="#f9f9f9" d="M246.5 632.5c2.558 2.05 5.058 4.383 7.5 7-1.165 5.847-.498 11.514 2 17a365.013 365.013 0 0 0 44.5 31.5c5.746 1.104 10.913-.063 15.5-3.5a118.507 118.507 0 0 0 9.5 4c1.021.502 1.188 1.168.5 2a272.332 272.332 0 0 1-9.5 12.5c-4.857 2.21-9.524 1.877-14-1a2244.431 2244.431 0 0 1-63.5-45.5c-2.753-3.833-3.086-7.833-1-12a123.166 123.166 0 0 0 8.5-12z"/><path style="opacity:1" fill="#f9f8f8" d="M603.5 631.5a89.832 89.832 0 0 1 10.5 15c.652 3.094.318 6.094-1 9a1394.624 1394.624 0 0 1-64.5 46.5c-4.506 2.814-9.173 3.147-14 1-3.858-4.596-7.025-9.429-9.5-14.5a65.488 65.488 0 0 1 10-4c4.498 3.743 9.665 4.909 15.5 3.5a365.013 365.013 0 0 0 44.5-31.5c2.517-4.815 3.017-9.815 1.5-15 2.359-3.351 4.692-6.685 7-10z"/><path style="opacity:1" fill="#8b898a" d="M94.5 645.5c1.548.321 2.215 1.321 2 3-.901-.79-1.568-1.79-2-3z"/><path style="opacity:1" fill="#fafafa" d="M308.5 665.5a21.341 21.341 0 0 1 9 1.5 3184.712 3184.712 0 0 1 84.5 31.5c1.825 5.578.158 9.578-5 12a9201.064 9201.064 0 0 0-84.5-30.5c-7.649-3.043-8.982-7.877-4-14.5zM535.5 665.5c7.828-1.007 10.994 2.326 9.5 10-1.008 1.759-2.508 2.926-4.5 3.5a3342.607 3342.607 0 0 0-86.5 31.5c-5.13-2.6-6.63-6.6-4.5-12a26.852 26.852 0 0 1 6-3.5 2266.69 2266.69 0 0 0 80-29.5z"/><path style="opacity:1" fill="#fcfcfc" d="M385.5 673.5c28.002-.167 56.002 0 84 .5 4.616 2.093 6.949 5.593 7 10.5a104.064 104.064 0 0 0-13.5 4 44.507 44.507 0 0 0-9.5-5.5c-17-.667-34-.667-51 0-4.401 1.526-8.068 4.026-11 7.5l-12-5c-1.224-2.398-1.058-4.731.5-7a81.338 81.338 0 0 1 5.5-5z"/><path style="opacity:1" fill="#01a34f" d="M401.5 686.5c18.069-.46 36.069.04 54 1.5a7.293 7.293 0 0 1 3 2 80.576 80.576 0 0 0-11 5c-3.908 6.666-2.908 12.666 3 18 3.417.025 6.75.192 10 .5-1.202 3.368-3.535 5.534-7 6.5a675.912 675.912 0 0 1-52 0 29.964 29.964 0 0 1-7-6 43.385 43.385 0 0 0 8-2c3.412-4.854 4.245-10.021 2.5-15.5a50.116 50.116 0 0 1-8.5-6 23.72 23.72 0 0 1 5-4z"/><path style="opacity:1" fill="#f5f5f5" d="M473.5 706.5h3c.166 6.675 0 13.342-.5 20-1.668 3.665-4.501 5.832-8.5 6.5-27 .667-54 .667-81 0-3.833-1.167-6.333-3.667-7.5-7.5a54.557 54.557 0 0 1 .5-18 114.196 114.196 0 0 1 11 5c1.721 4.557 4.721 8.057 9 10.5l27.5.5c10.236.13 20.403-.37 30.5-1.5 4.4-2.787 7.066-6.787 8-12a102.128 102.128 0 0 0 8-3.5z"/><path style="opacity:1" fill="#8d8a8b" d="M200.5 765.5c1.527-.073 2.527.594 3 2-1.527.073-2.527-.594-3-2z"/><path style="opacity:1" fill="#939091" d="M207.5 770.5c1.527-.073 2.527.594 3 2-1.527.073-2.527-.594-3-2z"/><path style="opacity:1" fill="#918f90" d="M219.5 778.5c1.527-.073 2.527.594 3 2-1.527.073-2.527-.594-3-2z"/></svg>