<svg xmlns="http://www.w3.org/2000/svg" width="690.09" height="780.36" version="1.0"><path d="m17.225 22.785 652.857 1.21-50.525 538.818c-36.781 269.036-527.377 272.17-554.338.055L17.225 22.785z" style="fill:#0180bf;fill-opacity:1;fill-rule:evenodd;stroke:#000;stroke-width:12.81259823;stroke-linecap:butt;stroke-linejoin:miter;stroke-miterlimit:4;stroke-dasharray:none;stroke-opacity:1"/><path d="m398.631 757.47-.062-402.122 257.298-212.47L667.595 27.17l-64.897.086-266.615 211.132L89.24 26.256l-68.77.086 10.9 115.338 243.205 213.46-.04 402.153c35.153 5.586 87.61 6.591 124.096.177z" style="fill:#fdcd09;fill-opacity:1;fill-rule:evenodd;stroke:#000;stroke-width:6.25;stroke-linecap:butt;stroke-linejoin:miter;stroke-miterlimit:4;stroke-dasharray:none;stroke-opacity:1"/><path d="M64.707 516.36c188.716-77.424 371.514-65.407 556.465 0l-10.122 78c-.018-33.283-99.739-33.365-99.05 0v122.5c-14.697 9.638-29.267 16.034-45.297 21.84V594.36c-2.08-83.297-259.331-79.73-259.057 0v144c-16.648-8.196-32.388-15.732-47.646-26v-118c.446-39.21-86.082-40.423-87.05-2.121l-8.243-75.879z" style="fill:#fdcd09;fill-opacity:1;fill-rule:evenodd;stroke:#000;stroke-width:6.25;stroke-linecap:butt;stroke-linejoin:miter;stroke-opacity:1;stroke-miterlimit:4;stroke-dasharray:none"/></svg>