<svg xmlns="http://www.w3.org/2000/svg" width="850" height="850" style="shape-rendering:geometricPrecision;text-rendering:geometricPrecision;image-rendering:optimizeQuality;fill-rule:evenodd;clip-rule:evenodd"><path style="opacity:1" fill="#c8c7c7" d="M837.5 17.5v-6h-826v4c-.951-1.419-1.284-3.085-1-5h828c.302 2.56-.032 4.893-1 7z"/><path style="opacity:1" fill="#242122" d="M837.5 17.5a103840.317 103840.317 0 0 1-31.5 454c-6.97 107.419-49.47 197.586-127.5 270.5-102.611 86.566-219.611 114.566-351 84-35.921-9.637-69.588-24.137-101-43.5-.473-1.406-1.473-2.073-3-2a24.766 24.766 0 0 1-8-5c-.473-1.406-1.473-2.073-3-2-.473-1.406-1.473-2.073-3-2a26.707 26.707 0 0 1-7-5c-.473-1.406-1.473-2.073-3-2a89.862 89.862 0 0 1-20-16c-.473-1.406-1.473-2.073-3-2-63.353-54.987-104.52-123.654-123.5-206a468.869 468.869 0 0 1-9-58 96118.408 96118.408 0 0 1-32.5-467v-4h826v6z"/><path style="opacity:1" fill="#126237" d="M30.5 29.5c262.833-1 525.833-1.333 789-1 .295 2.235-.039 4.235-1 6v-5h-788z"/><path style="opacity:1" fill="#00a54f" d="M30.5 29.5h788v5a312209.177 312209.177 0 0 0-28.5 408c-1.035 65.137-16.035 126.803-45 185a5602.744 5602.744 0 0 0-64-109 335.126 335.126 0 0 0-35.5-49 117.812 117.812 0 0 0-14.5 17A2204.679 2204.679 0 0 0 547.5 624a113.23 113.23 0 0 1-26-.5 1770.743 1770.743 0 0 0-82.5-137 117.812 117.812 0 0 0-14.5-17 327.952 327.952 0 0 0-32.5 44 3003.53 3003.53 0 0 0-64.5 110 113.23 113.23 0 0 1-26 .5A2226.996 2226.996 0 0 0 219 487.5a133.19 133.19 0 0 0-15.5-18 357.941 357.941 0 0 0-33.5 46 4604.772 4604.772 0 0 0-65.5 111 114.83 114.83 0 0 1-11.5-22c-16.587-38.347-26.92-78.347-31-120a364664.527 364664.527 0 0 0-31.5-455z"/><path style="opacity:1" fill="#282526" d="M364.5 64.5c-.995 11.154-1.328 22.488-1 34 2.559.302 4.893-.032 7-1-.166-5.344.001-10.677.5-16l1.5-1.5a132.493 132.493 0 0 1 23 0l1.5 1.5c.499 5.323.666 10.656.5 16 4.47.986 9.137 1.32 14 1v-16c.077-1.25.744-2.083 2-2.5a121.244 121.244 0 0 1 22 0c1.256.417 1.923 1.25 2 2.5v16c4.863.32 9.53-.014 14-1-.166-5.344.001-10.677.5-16l1.5-1.5a132.493 132.493 0 0 1 23 0c.881.708 1.547 1.542 2 2.5v16h7c.328-11.512-.005-22.846-1-34a72.442 72.442 0 0 1-12-.5c-1.711-1.133-2.211-2.633-1.5-4.5a534.458 534.458 0 0 1 28.5-24c10.206 7.029 19.706 15.029 28.5 24 .783 1.934.283 3.434-1.5 4.5a72.442 72.442 0 0 1-12 .5v162a60.931 60.931 0 0 1 11 .5c1.393 1.171 2.227 2.671 2.5 4.5a29114.616 29114.616 0 0 0 22 216l-1.5 1.5c-82.903.832-165.737.665-248.5-.5a144.942 144.942 0 0 1 1-23l20-192c.093-2.507.926-4.674 2.5-6.5a60.931 60.931 0 0 1 11-.5v-162a43.123 43.123 0 0 1-13-1c-.928-1.268-1.095-2.601-.5-4a223.917 223.917 0 0 1 28.5-24 223.917 223.917 0 0 1 28.5 24c.711 1.867.211 3.367-1.5 4.5a72.442 72.442 0 0 1-12 .5z"/><path style="opacity:1" fill="#fbfbfb" d="M373.5 59.5a576.585 576.585 0 0 1-48 1 266.801 266.801 0 0 1 24-21c8.031 6.675 16.031 13.341 24 20zM523.5 59.5a576.585 576.585 0 0 1-48 1 4949.992 4949.992 0 0 1 24-21 345.703 345.703 0 0 1 24 20z"/><path style="opacity:1" fill="#8f8d8e" d="M373.5 59.5c.543.06.876.393 1 1l-25 1c-8.744.015-16.744-.318-24-1 16.175.33 32.175-.004 48-1zM523.5 59.5c.543.06.876.393 1 1l-25 1c-8.744.015-16.744-.318-24-1 16.175.33 32.175-.004 48-1z"/><path style="opacity:1" fill="#fcfcfc" d="M338.5 64.5h22v48h-22v-48z"/><path style="opacity:1" fill="#126237" d="M364.5 64.5v33h6c-2.107.968-4.441 1.302-7 1-.328-11.512.005-22.846 1-34z"/><path style="opacity:1" fill="#0b7f42" d="M484.5 64.5c.995 11.154 1.328 22.488 1 34h-7v-16c.987 4.805 1.321 9.805 1 15h5v-33z"/><path style="opacity:1" fill="#f5f5f5" d="M488.5 64.5h23v48h-23v-48z"/><path style="opacity:1" fill="#126137" d="M411.5 82.5v16c-4.863.32-9.53-.014-14-1h13c-.321-5.195.013-10.195 1-15z"/><path style="opacity:1" fill="#194a2f" d="M437.5 82.5c.987 4.805 1.321 9.805 1 15h13c-4.47.986-9.137 1.32-14 1v-16z"/><path style="opacity:1" fill="#fbfbfb" d="M373.5 83.5h21v18h20v-18h20v18h20v-18h21v18h10v11h-122v-11h10v-18z"/><path style="opacity:1" fill="#272625" d="M661.5 124.5a676.55 676.55 0 0 0 1 52c.607-.124.94-.457 1-1a1601.055 1601.055 0 0 0 34-33.5c9-.667 18-.667 27 0l1.5 1.5a97.7 97.7 0 0 1-1 25l-62 62-1 81c-6.533 6.053-13.7 11.053-21.5 15l-3-.5a183.52 183.52 0 0 1-17.5-14.5 3284.502 3284.502 0 0 0-1.5-81 1855.356 1855.356 0 0 1-62.5-63 635.34 635.34 0 0 0-1.5-19c-.212-2.511.455-4.678 2-6.5 9-.667 18-.667 27 0a1567.517 1567.517 0 0 1 34 32.5c.283.789.783 1.456 1.5 2 .5-16.997.667-33.997.5-51-.086-.996.248-1.829 1-2.5a110.872 110.872 0 0 0 14-11c2.62-2.271 5.62-2.938 9-2a397.854 397.854 0 0 1 18 14.5z"/><path style="opacity:1" fill="#2c2a2a" d="M203.5 110.5c3.647.122 6.481 1.788 8.5 5 22.75 28.437 42.75 58.77 60 91 3.814 8.291 5.147 16.957 4 26-8.635 25.804-25.468 44.137-50.5 55a658.89 658.89 0 0 1 0 40.5c-13 .667-26 .667-39 0l-1.5-1.5a510.354 510.354 0 0 1 2.5-39c-25.131-10.3-42.297-28.3-51.5-54-1.535-10.529.132-20.529 5-30 17.921-33.064 38.754-64.064 62.5-93z"/><path style="opacity:1" fill="#fbfbfb" d="M637.5 114.5a2916.974 2916.974 0 0 1 1 108 7091.77 7091.77 0 0 1-78-76.5 121.19 121.19 0 0 1 22 0 1073.402 1073.402 0 0 1 39.5 38.5l1-59a239.653 239.653 0 0 0 14.5-11z"/><path style="opacity:1" fill="#908e8f" d="M637.5 114.5c.06-.543.393-.876 1-1l1 55c.006 18.739-.327 36.739-1 54 .332-36.171-.002-72.171-1-108z"/><path style="opacity:1" fill="#fdfdfd" d="M642.5 114.5a242.143 242.143 0 0 1 15.5 11l1 59a1073.402 1073.402 0 0 0 39.5-38.5 121.19 121.19 0 0 1 22 0L643 223.5c-.5-36.332-.667-72.665-.5-109z"/><path style="opacity:1" fill="#b7b5b5" d="M407.5 115.5h34v13h-34v-13z"/><path style="opacity:1" fill="#c7c6c6" d="M485.5 116.5h-40c.317 4.202-.017 8.202-1 12v-13c13.844-.329 27.51.004 41 1z"/><path style="opacity:1" fill="#fefffe" d="M338.5 116.5h21v85h-21v-85z"/><path style="opacity:1" fill="#bfbebe" d="M338.5 116.5c7.148-.992 14.481-1.325 22-1v87c-7.519.325-14.852-.008-22-1h21v-85h-21z"/><path style="opacity:1" fill="#c2c1c1" d="M404.5 116.5h-40v85h13c-4.47.986-9.137 1.319-14 1v-87c13.844-.329 27.51.004 41 1z"/><path style="opacity:1" fill="#fefefe" d="M404.5 116.5a84.902 84.902 0 0 0 .5 13l1.5 1.5c12 .667 24 .667 36 0 .881-.708 1.547-1.542 2-2.5.983-3.798 1.317-7.798 1-12h40v85h-13c.328-10.514-.006-20.847-1-31-.953-8.076-4.619-14.576-11-19.5-5.223-1.445-9.39.055-12.5 4.5a35.145 35.145 0 0 0-5 10 647.854 647.854 0 0 0-.5 36h-35c.328-11.179-.005-22.179-1-33-1.039-7.529-4.706-13.362-11-17.5-4.482-1.011-8.316.156-11.5 3.5a50.548 50.548 0 0 0-6 12 612.388 612.388 0 0 0-.5 35h-13v-85h40z"/><path style="opacity:1" fill="#fefffe" d="M408.5 116.5h32v11h-32v-11z"/><path style="opacity:1" fill="#908e8f" d="M489.5 115.5v86h21v-86a1893.431 1893.431 0 0 1 1 87h-23c-.331-29.171.002-58.171 1-87z"/><path style="opacity:1" fill="#fefefe" d="M489.5 115.5h21v86h-21v-86z"/><path style="opacity:1" fill="#fbfafa" d="M209.5 119.5a650.903 650.903 0 0 1 22.5 28 252.541 252.541 0 0 1 11.5 18 955.639 955.639 0 0 1-27.5 24 1860.891 1860.891 0 0 1-6.5-70z"/><path style="opacity:1" fill="#fafafa" d="M201.5 118.5c.652.949.986 2.115 1 3.5a5549.253 5549.253 0 0 0-6.5 67.5 1368.777 1368.777 0 0 1-28.5-24 612.577 612.577 0 0 1 34-47z"/><path style="opacity:1" fill="#fbfbfb" d="M205.5 120.5a24128.658 24128.658 0 0 1 18 204h-35l17-204z"/><path style="opacity:1" fill="#098343" d="M619.5 125.5c.167 17.003 0 34.003-.5 51-.717-.544-1.217-1.211-1.5-2l2-49z"/><path style="opacity:1" fill="#19412c" d="m661.5 124.5 2 51c-.06.543-.393.876-1 1a676.55 676.55 0 0 1-1-52z"/><path style="opacity:1" fill="#f6f6f6" d="M558.5 148.5a9097.383 9097.383 0 0 1 80.5 80c.667 31.333.667 62.667 0 94a268.53 268.53 0 0 1-15.5-12 3284.502 3284.502 0 0 1-1.5-81l-62-62a99.676 99.676 0 0 1-1.5-19z"/><path style="opacity:1" fill="#fcfcfc" d="M721.5 149.5c1.153 5.819 1.319 11.819.5 18a2759.31 2759.31 0 0 0-63 62l-1 81a365.94 365.94 0 0 0-14.5 11 1473.061 1473.061 0 0 1-.5-94 2888.317 2888.317 0 0 0 78.5-78z"/><path style="opacity:1" fill="#fdfdfd" d="M403.5 201.5h-22v-34c6.46-18.079 13.627-18.413 21.5-1 .5 11.662.667 23.329.5 35zM467.5 166.5v35h-22c-.167-11.671 0-23.338.5-35 7.21-17.236 14.377-17.236 21.5 0z"/><path style="opacity:1" fill="#fcfcfc" d="M165.5 168.5a1025.549 1025.549 0 0 1 29.5 25 42.479 42.479 0 0 1 0 13 172.909 172.909 0 0 1-3.5 25 1084.828 1084.828 0 0 1-42-36 537.849 537.849 0 0 1 16-27z"/><path style="opacity:1" fill="#fbfbfb" d="M244.5 169.5c1.517.011 2.684.677 3.5 2a551.515 551.515 0 0 0 14.5 24 554.473 554.473 0 0 1-43 36 346.659 346.659 0 0 1-3.5-38 928.256 928.256 0 0 1 28.5-24z"/><path style="opacity:1" fill="#b3b2b2" d="M467.5 166.5c.995 11.822 1.328 23.822 1 36-7.852.325-15.518-.008-23-1h22v-35z"/><path style="opacity:1" fill="#b4b2b3" d="M381.5 167.5v34h22c-7.482.992-15.148 1.325-23 1-.328-11.845.005-23.512 1-35z"/><path style="opacity:1" fill="#bab8b9" d="M471.5 170.5c.994 10.153 1.328 20.486 1 31h13c-4.47.986-9.137 1.319-14 1v-32z"/><path style="opacity:1" fill="#fcfcfc" d="M262.5 199.5c.996-.086 1.829.248 2.5 1 10.538 17.79 9.871 35.123-2 52-10.284 13.948-23.284 24.615-39 32a342.836 342.836 0 0 1-3.5-49 1096.714 1096.714 0 0 0 42-36zM146.5 199.5a496.596 496.596 0 0 1 46 38 936.733 936.733 0 0 1-5 47c-22.969-10.465-38.802-27.465-47.5-51a72.464 72.464 0 0 1 0-17 512.237 512.237 0 0 1 6.5-17z"/><path style="opacity:1" fill="#908e8f" d="M406.5 168.5c.995 10.821 1.328 21.821 1 33h35c-11.822.995-23.822 1.328-36 1v-34z"/><path style="opacity:1" fill="#fcfcfc" d="M338.5 205.5h22v21h-22v-21z"/><path style="opacity:1" fill="#fefefe" d="M363.5 205.5h122v21h-122v-21z"/><path style="opacity:1" fill="#737071" d="M489.5 205.5v21h21v-21c.992 7.148 1.325 14.481 1 22h-23c-.325-7.519.008-14.852 1-22z"/><path style="opacity:1" fill="#fefffe" d="M489.5 205.5h21v21h-21v-21z"/><path style="opacity:1" fill="#918f8f" d="M325.5 230.5c7.816-.992 15.816-1.326 24-1 .306 2.885-.027 5.552-1 8v-7h-23z"/><path style="opacity:1" fill="#8c8a8b" d="M524.5 231.5a151.198 151.198 0 0 0-24-1v6c-.968-2.107-1.302-4.441-1-7 8.734-.635 17.067.032 25 2z"/><path style="opacity:1" fill="#fafafa" d="M325.5 230.5h23v7a104.618 104.618 0 0 1-1 9h-24a185.84 185.84 0 0 1 2-16z"/><path style="opacity:1" fill="#fdfdfd" d="M510.5 363.5h-32c.321-5.526-.012-10.86-1-16-11.488-.995-23.155-1.328-35-1v17h-43v20h15v17h14v17h88a341.561 341.561 0 0 0 2 24v4h-188c4.389-43 8.722-86 13-129h38v17h35v-17h15v-17h42v-20h-42v-16c-4.47-.986-9.137-1.319-14-1 .321-5.526-.012-10.86-1-16h-35v17h-32a732.44 732.44 0 0 0 3-34h144a8220.225 8220.225 0 0 0 14 134z"/><path style="opacity:1" fill="#fafafa" d="M524.5 231.5c.416 4.993.749 9.993 1 15h-24a76.926 76.926 0 0 0-1-10v-6c8.086-.301 16.086.033 24 1z"/><path style="opacity:1" fill="#8e8c8d" d="M416.5 246.5c.988 5.14 1.321 10.474 1 16 4.863-.319 9.53.014 14 1h-15v-17z"/><path style="opacity:1" fill="#c1c0c0" d="M346.5 252.5c-7.26-1.965-14.927-2.632-23-2 .268 1.599-.066 2.932-1 4v-5h25c.237 1.291-.096 2.291-1 3z"/><path style="opacity:1" fill="#c0bfbf" d="M526.5 252.5c-3.912-1.265-8.079-1.931-12.5-2-4.229.01-8.062.677-11.5 2-.904-.709-1.237-1.709-1-3h25v3z"/><path style="opacity:1" fill="#fefefe" d="M346.5 252.5v7c-.904.709-1.237 1.709-1 3h-24c.888-2.554 1.221-5.221 1-8 .934-1.068 1.268-2.401 1-4 8.073-.632 15.74.035 23 2z"/><path style="opacity:1" fill="#f3f3f3" d="M385.5 249.5h28v14h-28v-14z"/><path style="opacity:1" fill="#fdfdfd" d="M526.5 252.5v10h-23c-.979-3.125-1.313-6.458-1-10 3.438-1.323 7.271-1.99 11.5-2 4.421.069 8.588.735 12.5 2z"/><path style="opacity:1" fill="#918f90" d="M346.5 259.5v4c-8.517.326-16.85-.007-25-1h24c-.237-1.291.096-2.291 1-3z"/><path style="opacity:1" fill="#929091" d="M526.5 255.5c.973 2.448 1.306 5.115 1 8-8.184.326-16.184-.008-24-1h23v-7z"/><path style="opacity:1" fill="#fdfdfd" d="M344.5 279.5h-24v-4c.204-3.018.537-6.018 1-9h24a77.1 77.1 0 0 0-1 13zM348.5 266.5h21v13h-22a61.26 61.26 0 0 0 1-13z"/><path style="opacity:1" fill="#fefffe" d="M398.5 266.5v13h-25v-13h25zM427.5 266.5v13h-25v-13h25z"/><path style="opacity:1" fill="#fcfcfc" d="M528.5 274.5v5h-24a61.26 61.26 0 0 0-1-13h25v8z"/><path style="opacity:1" fill="#595657" d="M320.5 275.5v4h24c-8.15.993-16.483 1.326-25 1-.284-1.915.049-3.581 1-5z"/><path style="opacity:1" fill="#666364" d="M398.5 266.5c.986 4.47 1.319 9.137 1 14-8.849.326-17.516-.007-26-1h25v-13zM427.5 266.5c.986 4.47 1.319 9.137 1 14-8.849.326-17.516-.007-26-1h25v-13z"/><path style="opacity:1" fill="#5d5b5c" d="M528.5 274.5c.961 1.765 1.295 3.765 1 6-8.517.326-16.85-.007-25-1h24v-5z"/><path style="opacity:1" fill="#6e6b6c" d="M469.5 296.5v-13h-24v13c-.986-4.47-1.319-9.137-1-14h26c.319 4.863-.014 9.53-1 14z"/><path style="opacity:1" fill="#fefefe" d="M319.5 283.5h24a300.134 300.134 0 0 0-1 13h-24c.427-4.324.761-8.658 1-13z"/><path style="opacity:1" fill="#f9f9f9" d="M346.5 283.5h10v13h-11a61.26 61.26 0 0 0 1-13z"/><path style="opacity:1" fill="#fcfcfc" d="M360.5 283.5h25v13h-25v-13z"/><path style="opacity:1" fill="#fefffe" d="M388.5 283.5h25v13h-25v-13z"/><path style="opacity:1" fill="#fcfcfc" d="M416.5 283.5h25v13h-25v-13z"/><path style="opacity:1" fill="#fefffe" d="M469.5 296.5h-24v-13h24v13z"/><path style="opacity:1" fill="#fdfdfd" d="M505.5 283.5h24a61.26 61.26 0 0 1 1 13h-24c-.086-4.357-.42-8.69-1-13z"/><path style="opacity:1" fill="#8a8889" d="M317.5 300.5c8.15-.993 16.483-1.326 25-1 .268 1.599-.066 2.932-1 4v-3h-24z"/><path style="opacity:1" fill="#8e8c8d" d="M373.5 300.5c8.484-.993 17.151-1.326 26-1 .319 4.863-.014 9.53-1 14v-13h-25zM402.5 300.5c8.484-.993 17.151-1.326 26-1 .319 4.863-.014 9.53-1 14v-13h-25z"/><path style="opacity:1" fill="#fbfbfb" d="M317.5 300.5h24v13h-25a77.1 77.1 0 0 0 1-13z"/><path style="opacity:1" fill="#f3f3f3" d="M345.5 299.5h24v14h-25c.169-4.681.502-9.348 1-14z"/><path style="opacity:1" fill="#fafafa" d="M373.5 300.5h25v13h-25v-13zM402.5 300.5h25v13h-25v-13z"/><path style="opacity:1" fill="#f6f6f6" d="M507.5 299.5h24c.169 4.681.502 9.348 1 14h-24a198.913 198.913 0 0 1-1-14z"/><path style="opacity:1" fill="#c0bfbf" d="M339.5 320.5v-3h-23c.268 1.599-.066 2.932-1 4v-5h25c.268 1.599-.066 2.932-1 4z"/><path style="opacity:1" fill="#fefefe" d="M339.5 320.5v7c-7.728 1.918-15.728 2.585-24 2v-8c.934-1.068 1.268-2.401 1-4h23v3z"/><path style="opacity:1" fill="#f3f3f3" d="M385.5 316.5h28v14h-28v-14z"/><path style="opacity:1" fill="#f9f9f9" d="M533.5 322.5v7h-23a61.26 61.26 0 0 1-1-13h24v6z"/><path style="opacity:1" fill="#bdbcbc" d="M533.5 322.5c.973 2.448 1.306 5.115 1 8-8.184.326-16.184-.008-24-1h23v-7z"/><path style="opacity:1" fill="#b6b5b5" d="M315.5 323.5v6c8.272.585 16.272-.082 24-2v3h-25c-.302-2.559.032-4.893 1-7z"/><path style="opacity:1" fill="#fdfdfd" d="M337.5 346.5h-24v-4c.463-2.982.796-5.982 1-9h24a77.1 77.1 0 0 0-1 13z"/><path style="opacity:1" fill="#fbfbfb" d="M535.5 341.5v5h-23c.237-1.291-.096-2.291-1-3l-1-10h25v8z"/><path style="opacity:1" fill="#888687" d="M313.5 342.5v4h24c-8.15.993-16.483 1.326-25 1-.284-1.915.049-3.581 1-5z"/><path style="opacity:1" fill="#8e8c8d" d="M535.5 341.5c.961 1.765 1.295 3.765 1 6h-25v-4c.904.709 1.237 1.709 1 3h23v-5z"/><path style="opacity:1" fill="#706d6e" d="M477.5 347.5h-34c.321 5.526-.012 10.86-1 16v-17c11.845-.328 23.512.005 35 1z"/><path style="opacity:1" fill="#fefdfd" d="M335.5 363.5c-8.184.326-16.184-.008-24-1 .521-3.981.854-7.981 1-12h24a300.134 300.134 0 0 0-1 13z"/><path style="opacity:1" fill="#fefffe" d="M474.5 350.5v13h-28v-13h28z"/><path style="opacity:1" fill="#fdfdfd" d="M537.5 360.5v3h-24a77.1 77.1 0 0 0-1-13h24l1 10z"/><path style="opacity:1" fill="#575455" d="M311.5 362.5c7.816.992 15.816 1.326 24 1-8.176 1.321-16.509 1.321-25 0 .124-.607.457-.94 1-1z"/><path style="opacity:1" fill="#5d5a5b" d="M474.5 350.5h-28v13h28c-9.486.994-19.152 1.327-29 1v-15c9.848-.327 19.514.006 29 1z"/><path style="opacity:1" fill="#666364" d="M477.5 347.5c.988 5.14 1.321 10.474 1 16h32c-10.821.995-21.821 1.328-33 1v-17z"/><path style="opacity:1" fill="#585556" d="M537.5 360.5c.934 1.068 1.268 2.401 1 4-8.517.326-16.85-.007-25-1h24v-3z"/><path style="opacity:1" fill="#888687" d="M310.5 367.5c8.15-.993 16.483-1.326 25-1 .268 1.599-.066 2.932-1 4v-3h-24z"/><path style="opacity:1" fill="#8f8d8e" d="M510.5 367.5h-20v13c-.986-4.47-1.319-9.137-1-14 7.187-.325 14.187.009 21 1z"/><path style="opacity:1" fill="#fdfdfd" d="M310.5 367.5h24v3a76.926 76.926 0 0 0-1 10h-24a77.1 77.1 0 0 0 1-13z"/><path style="opacity:1" fill="#f5f5f5" d="M402.5 366.5h26v14h-26v-14zM431.5 366.5h26v14h-26v-14zM460.5 366.5h26v14h-26v-14z"/><path style="opacity:1" fill="#fcfcfc" d="M510.5 367.5a135.35 135.35 0 0 1 2 13h-22v-13h20z"/><path style="opacity:1" fill="#f6f6f6" d="M514.5 366.5h24c.04 4.693.373 9.359 1 14h-24l-1-14z"/><path style="opacity:1" fill="#bebcbd" d="M332.5 386.5c-7.26-1.965-14.927-2.632-23-2 .268 1.599-.066 2.932-1 4v-5h25c.237 1.291-.096 2.291-1 3z"/><path style="opacity:1" fill="#b4b3b3" d="M417.5 383.5h26v14h-26v-14z"/><path style="opacity:1" fill="#c6c5c5" d="M446.5 384.5c8.15-.993 16.483-1.326 25-1v14c-8.517.326-16.85-.007-25-1h24v-12h-24z"/><path style="opacity:1" fill="#fdfdfd" d="M332.5 386.5c.313 3.542-.021 6.875-1 10h-23v-8c.934-1.068 1.268-2.401 1-4 8.073-.632 15.74.035 23 2z"/><path style="opacity:1" fill="#fefffe" d="M418.5 384.5h24v12h-24v-12zM446.5 384.5h24v12h-24v-12z"/><path style="opacity:1" fill="#f7f7f7" d="M474.5 383.5h25v14h-25v-14z"/><path style="opacity:1" fill="#fafafa" d="M503.5 383.5h9c.427 4.324.761 8.658 1 13h-10v-13z"/><path style="opacity:1" fill="#f9f9f9" d="M540.5 389.5v7h-23a52.392 52.392 0 0 1-1-13h24v6z"/><path style="opacity:1" fill="#c2c1c1" d="M308.5 393.5v3h23c-7.816.992-15.816 1.326-24 1-.268-1.599.066-2.932 1-4z"/><path style="opacity:1" fill="#b1b0b0" d="M503.5 383.5v13h10c-3.462.982-7.129 1.315-11 1-.319-4.863.014-9.53 1-14z"/><path style="opacity:1" fill="#bcbbbb" d="M540.5 389.5c.973 2.448 1.306 5.115 1 8-8.184.326-16.184-.008-24-1h23v-7z"/><path style="opacity:1" fill="#fefefe" d="M330.5 410.5c-.904.709-1.237 1.709-1 3h-23v-3l1-10h24a44.866 44.866 0 0 0-1 10z"/><path style="opacity:1" fill="#f5f5f5" d="M431.5 400.5h26v14h-26v-14zM460.5 400.5h26v14h-26v-14z"/><path style="opacity:1" fill="#fefefe" d="M490.5 400.5h24c.086 4.357.42 8.69 1 13h-25v-13z"/><path style="opacity:1" fill="#fcfcfc" d="M542.5 408.5v5h-23c.268-1.599-.066-2.932-1-4a104.618 104.618 0 0 0-1-9h25v8z"/><path style="opacity:1" fill="#8e8c8d" d="M306.5 410.5v3h23c-.237-1.291.096-2.291 1-3v4h-25c-.268-1.599.066-2.932 1-4z"/><path style="opacity:1" fill="#8f8d8e" d="M490.5 400.5v13h25c-8.484.993-17.151 1.326-26 1-.319-4.863.014-9.53 1-14z"/><path style="opacity:1" fill="#8d8b8c" d="M542.5 408.5c.961 1.765 1.295 3.765 1 6h-25v-5c.934 1.068 1.268 2.401 1 4h23v-5z"/><path style="opacity:1" fill="#fdfdfd" d="M328.5 430.5c-8.184.326-16.184-.008-24-1 .521-3.981.854-7.981 1-12h24c-.58 4.31-.914 8.643-1 13zM544.5 427.5v3h-24a77.1 77.1 0 0 0-1-13h24c.116 3.36.449 6.693 1 10z"/><path style="opacity:1" fill="#575455" d="M304.5 429.5c7.816.992 15.816 1.326 24 1-8.176 1.321-16.509 1.321-25 0 .124-.607.457-.94 1-1z"/><path style="opacity:1" fill="#585556" d="M544.5 427.5c.934 1.068 1.268 2.401 1 4-8.517.326-16.85-.007-25-1h24v-3z"/><path style="opacity:1" fill="#fefefe" d="M326.5 445.5h-23v-11h24a72.032 72.032 0 0 1-1 11z"/><path style="opacity:1" fill="#f9f9f9" d="M521.5 434.5h24a73.314 73.314 0 0 0 1 12h-24a128.323 128.323 0 0 0-1-12z"/><path style="opacity:1" fill="#c4c2c3" d="M303.5 441.5v4h23c-7.816.992-15.816 1.326-24 1-.284-1.915.049-3.581 1-5z"/><path style="opacity:1" fill="#c5c4c4" d="M518.5 441.5c.951 1.419 1.284 3.085 1 5a8934.511 8934.511 0 0 1-189-1h188v-4z"/><path style="opacity:1" fill="#f9f9f9" d="M299.5 793.5c.06.543.393.876 1 1a196.869 196.869 0 0 0 1-28h26v37c64.992 17.654 129.825 17.321 194.5-1 .5-11.995.667-23.995.5-36h25c-.332 9.357.002 18.69 1 28 .607-.124.94-.457 1-1 75.167-28.508 134.501-76.508 178-144a909.266 909.266 0 0 0-82-107 933.253 933.253 0 0 0-80.5 104c-.928-7.44-.594-14.774 1-22a3904.435 3904.435 0 0 1 45-71 685.265 685.265 0 0 1 33.5-44.5c.667-.667 1.333-.667 2 0a1149.114 1149.114 0 0 1 86 128.5l1 1a11.38 11.38 0 0 0 2-2.5 4018.383 4018.383 0 0 0-57.5-90.5 510.905 510.905 0 0 0-32.5-42 418.803 418.803 0 0 0-33.5 43 1869.913 1869.913 0 0 0-49.5 77.5 30.485 30.485 0 0 1-11 0A1894.91 1894.91 0 0 1 637 483.5a41.374 41.374 0 0 1 8.5-9 385.99 385.99 0 0 1 37.5 53 3848.829 3848.829 0 0 1 59 102c.667 1 .667 2 0 3-43.39 77.47-106.557 132.303-189.5 164.5-104.618 37.528-205.951 30.195-304-22-58.733-32.733-104.9-78.233-138.5-136.5-1.914-2.798-2.914-5.798-3-9a2017.628 2017.628 0 0 1 82-137l13.5-17.5c2.593.546 4.76 2.046 6.5 4.5a892.187 892.187 0 0 1 23 33 3881.599 3881.599 0 0 1 65.5 111c-3.88 1.295-7.714 1.295-11.5 0a1218.439 1218.439 0 0 0-73-110 45.055 45.055 0 0 0-9.5-10 512.746 512.746 0 0 0-36.5 48 3688.256 3688.256 0 0 0-53.5 84.5c1.583 3.16 3.083 2.993 4.5-.5a1267.365 1267.365 0 0 1 84-126c.718-.951 1.551-1.117 2.5-.5A973.831 973.831 0 0 1 283 624.5c1.594 7.226 1.928 14.56 1 22a865.477 865.477 0 0 0-80.5-104 909.266 909.266 0 0 0-82 107c43.499 67.492 102.833 115.492 178 144z"/><path style="opacity:1" fill="#fafafa" d="M423.5 474.5c2.216.703 4.049 2.036 5.5 4a1241.325 1241.325 0 0 1 27 39A2672.725 2672.725 0 0 1 518.5 624a30.485 30.485 0 0 1-11 0A1416.726 1416.726 0 0 0 436 516.5a215.683 215.683 0 0 0-11.5-13 578.747 578.747 0 0 0-30.5 39 2147.433 2147.433 0 0 0-51.5 81 24.551 24.551 0 0 1-12 .5A2335.92 2335.92 0 0 1 409 493.5a8619.516 8619.516 0 0 1 14.5-19z"/><path style="opacity:1" fill="#fafafa" d="M423.5 508.5c1.871.359 3.371 1.359 4.5 3a1176.017 1176.017 0 0 1 77 115 100.2 100.2 0 0 1 0 20 933.253 933.253 0 0 0-80.5-104 933.253 933.253 0 0 0-80.5 104 100.2 100.2 0 0 1 0-20 1239.42 1239.42 0 0 1 79.5-118z"/><path style="opacity:1" fill="#c6c5c5" d="M560.5 647.5v-19h-51v19c-.991-6.479-1.324-13.146-1-20h53c.324 6.854-.009 13.521-1 20z"/><path style="opacity:1" fill="#fcfcfc" d="M288.5 627.5h52v20h-52v-20z"/><path style="opacity:1" fill="#fefffe" d="M560.5 647.5h-51v-19h51v19z"/><path style="opacity:1" fill="#646162" d="M288.5 627.5v20h52a702.728 702.728 0 0 1-53 1c-.325-7.187.009-14.187 1-21z"/><path style="opacity:1" fill="#595657" d="M284.5 651.5c19.837-1.328 39.837-1.328 60 0-.124.607-.457.94-1 1a871.155 871.155 0 0 0-59-1zM564.5 651.5c-19.84-.33-39.507.003-59 1-.543-.06-.876-.393-1-1 20.163-1.328 40.163-1.328 60 0z"/><path style="opacity:1" fill="#fdfdfd" d="M284.5 651.5c19.84-.33 39.507.003 59 1a94.4 94.4 0 0 1-5 7.5 600.2 600.2 0 0 1-49 0 104.988 104.988 0 0 0-5-8.5zM505.5 652.5a871.155 871.155 0 0 1 59-1 36.427 36.427 0 0 1-5 8.5 600.2 600.2 0 0 1-49 0 100.813 100.813 0 0 1-5-7.5z"/><path style="opacity:1" fill="#b7b6b6" d="M334.5 746.5v-82h-41v82a1723.12 1723.12 0 0 1-1-83h43a1723.12 1723.12 0 0 1-1 83z"/><path style="opacity:1" fill="#fefffe" d="M334.5 746.5h-41v-82h41v82z"/><path style="opacity:1" fill="#908e8e" d="M176.5 746.5c1.527-.073 2.527.594 3 2-1.527.073-2.527-.594-3-2z"/><path style="opacity:1" fill="#777576" d="M514.5 663.5v83h41v-83a1764.925 1764.925 0 0 1 1 84h-43c-.331-28.172.002-56.172 1-84z"/><path style="opacity:1" fill="#fefefe" d="M514.5 663.5h41v83h-41v-83z"/><path style="opacity:1" fill="#595657" d="M294.5 750.5c13.173-1.325 26.506-1.325 40 0-.124.607-.457.94-1 1a380.934 380.934 0 0 0-39-1z"/><path style="opacity:1" fill="#f9f9f9" d="M294.5 750.5a380.934 380.934 0 0 1 39 1 86.687 86.687 0 0 0-6 11 113.23 113.23 0 0 1-26 .5 76.568 76.568 0 0 1-7-12.5zM515.5 750.5a381.292 381.292 0 0 1 39 1 200.62 200.62 0 0 1-7 11.5 113.23 113.23 0 0 1-26-.5l-6-12z"/><path style="opacity:1" fill="#8d8b8c" d="M199.5 764.5c1.527-.073 2.527.594 3 2-1.527.073-2.527-.594-3-2z"/><path style="opacity:1" fill="#5c595a" d="M301.5 766.5c.332 9.357-.002 18.69-1 28-.607-.124-.94-.457-1-1l2-27zM547.5 766.5l2 27c-.06.543-.393.876-1 1a196.869 196.869 0 0 1-1-28z"/><path style="opacity:1" fill="#939091" d="M209.5 771.5c1.527-.073 2.527.594 3 2-1.527.073-2.527-.594-3-2z"/><path style="opacity:1" fill="#918f90" d="M212.5 773.5c1.527-.073 2.527.594 3 2-1.527.073-2.527-.594-3-2z"/><path style="opacity:1" fill="#979596" d="M223.5 780.5c1.527-.073 2.527.594 3 2-1.527.073-2.527-.594-3-2z"/></svg>