<?xml version="1.0" encoding="UTF-8" standalone="no"?>
<svg
   xmlns:dc="http://purl.org/dc/elements/1.1/"
   xmlns:cc="http://creativecommons.org/ns#"
   xmlns:rdf="http://www.w3.org/1999/02/22-rdf-syntax-ns#"
   xmlns:svg="http://www.w3.org/2000/svg"
   xmlns="http://www.w3.org/2000/svg"
   xmlns:sodipodi="http://sodipodi.sourceforge.net/DTD/sodipodi-0.dtd"
   xmlns:inkscape="http://www.inkscape.org/namespaces/inkscape"
   version="1.1"
   id="svg1473"
   width="250"
   height="335"
   viewBox="0 0 250 335"
   sodipodi:docname="AUT_Amstetten_COA.svg"
   inkscape:version="1.0.1 (3bc2e813f5, 2020-09-07)">
  <metadata
     id="metadata1479">
    <rdf:RDF>
      <cc:Work
         rdf:about="">
        <dc:format>image/svg+xml</dc:format>
        <dc:type
           rdf:resource="http://purl.org/dc/dcmitype/StillImage" />
        <dc:title />
      </cc:Work>
    </rdf:RDF>
  </metadata>
  <defs
     id="defs1477">
    <inkscape:path-effect
       effect="spiro"
       id="path-effect4261"
       is_visible="true" />
    <inkscape:path-effect
       effect="spiro"
       id="path-effect4175"
       is_visible="true" />
    <inkscape:path-effect
       effect="spiro"
       id="path-effect4141"
       is_visible="true" />
    <inkscape:path-effect
       effect="spiro"
       id="path-effect4175-7"
       is_visible="true" />
    <inkscape:path-effect
       effect="spiro"
       id="path-effect4175-0"
       is_visible="true" />
    <inkscape:path-effect
       effect="spiro"
       id="path-effect4175-75"
       is_visible="true" />
    <inkscape:path-effect
       effect="spiro"
       id="path-effect4175-4"
       is_visible="true" />
    <inkscape:path-effect
       effect="spiro"
       id="path-effect4175-01"
       is_visible="true" />
    <inkscape:path-effect
       effect="spiro"
       id="path-effect4175-5"
       is_visible="true" />
    <inkscape:path-effect
       effect="spiro"
       id="path-effect4175-6"
       is_visible="true" />
    <inkscape:path-effect
       effect="spiro"
       id="path-effect4175-73"
       is_visible="true" />
    <inkscape:path-effect
       effect="spiro"
       id="path-effect4175-9"
       is_visible="true" />
  </defs>
  <sodipodi:namedview
     pagecolor="#ffffff"
     bordercolor="#666666"
     borderopacity="1"
     objecttolerance="10"
     gridtolerance="10"
     guidetolerance="10"
     inkscape:pageopacity="0"
     inkscape:pageshadow="2"
     inkscape:window-width="1920"
     inkscape:window-height="1001"
     id="namedview1475"
     showgrid="false"
     inkscape:zoom="1.6388888"
     inkscape:cx="22.161026"
     inkscape:cy="219.76961"
     inkscape:window-x="-9"
     inkscape:window-y="-9"
     inkscape:window-maximized="1"
     inkscape:current-layer="svg1473"
     inkscape:document-rotation="0" />
  <path
     inkscape:connector-curvature="0"
     d="M 2.4267695,2.42677 V 215.85303 C 2.8383183,284.34659 63.546829,332.79929 124.99823,332.57242 186.44961,332.34552 247.07391,284.3619 247.5732,215.85303 V 2.42677 Z"
     id="path393"
     style="fill:#ffffff;fill-opacity:1;stroke:#1b1a1c;stroke-width:4.85353899;stroke-linecap:butt;stroke-linejoin:miter;stroke-miterlimit:4;stroke-dasharray:none;stroke-opacity:1"
     sodipodi:nodetypes="cczccc" />
  <path
     inkscape:connector-curvature="0"
     d="m 113.68677,34.18855 c 1.09903,1.81952 2.24534,3.44995 3.79225,3.47831 l 0.43773,5.68969 c -5.33018,0.48906 -10.84744,0.0431 -15.75878,2.62603 -4.223679,2.48011 -4.685815,4.96024 -3.939717,7.44035 7.149837,3.56979 8.673497,-5.52384 21.449487,-3.93902 l 27.72073,5.59296 c -0.8249,1.39404 -1.02675,3.13173 -3.89098,2.75432 l -3.21626,-5.29347 -2.66596,4.38654 c -2.57693,-0.96343 -1.74978,-3.81767 -2.50141,-5.79497 l -4.30898,5.60148 -1.46068,-6.51433 -5.37275,5.37177 -0.85243,-5.17828 c -2.96194,2.20453 -5.19579,1.93285 -6.46481,7.09944 -1.2586,6.16686 3.36488,-0.11024 3.25774,10.06178 2.08477,-0.21007 4.07531,-1.07946 5.70911,-4.44581 2.5152,1.09769 5.56144,0.60256 8.50868,0.40439 3.87167,3.92555 9.30401,2.3898 13.99137,3.46093 -2.72999,7.60471 -20.0177,2.26424 -20.32975,8.92381 -10.80079,-3.39019 -16.39391,2.75917 -21.47711,8.97449 1.85693,1.11581 3.7139,0.72803 5.57084,0.53444 l -4.03646,6.51435 C 90.135883,84.23287 82.511731,71.7039 75.017819,59.11262 c 0.009,-5.17118 -4.281938,-12.19319 6.004602,-12.1603 1.731394,-0.40185 4.627729,-0.84435 3.404596,-6.31851 5.243414,-7.63024 3.070309,-11.88992 -1.631174,-15.00053 1.579281,3.99764 -1.355664,8.487 -2.479038,9.02059 -4.305389,-5.44678 -5.868374,3.89804 -10.130751,5.50075 -2.646423,-5.50846 2.179354,-7.2668 -3.365563,-10.90021 2.092296,-5.03638 -2.532449,-8.28602 -7.878232,-6.4719 -0.663289,0.22509 -0.594798,-0.89221 -1.253214,-1.24362 -3.581736,-1.91157 -10.198548,0.216 -13.359411,7.45293 1.021177,1.13342 3.909684,-3.89854 7.812897,-1.53163 -0.553565,3.04526 -1.400534,6.31053 1.564943,6.71698 -0.399742,3.11031 1.696261,4.14117 3.975684,5.01923 l -2.382416,3.66243 -5.638355,-0.003 c -3.001798,-6.93274 -7.324306,-2.50196 -9.914606,1.92735 -6.706984,2.00663 -6.143101,7.75081 -5.924004,12.77774 1.690502,-1.93605 -0.111523,-4.57044 5.619396,-5.69853 -0.368608,6.72801 2.982167,4.95607 5.637421,4.77358 2.601934,2.74272 5.203848,0.67661 7.805783,0.94336 5.345744,4.94239 2.819876,8.46196 -3.110287,9.89594 2.173877,3.84647 5.024659,2.27826 7.605303,2.87097 2.044793,3.4505 -2.949915,2.42206 -5.444236,2.98457 1.247528,2.7367 2.836013,6.50174 9.368729,5.43097 -3.073293,3.95462 -3.900983,9.44339 -1.535396,13.39797 1.701274,-2.21503 3.402557,-5.47586 5.10384,-5.61423 -1.331059,4.67597 -4.435648,9.02953 -1.115055,14.55108 5.33e-4,1.50222 1.237308,2.38658 3.050104,2.98291 -0.102781,5.20002 5.825502,10.94093 2.955492,17.18291 2.904241,-0.49725 5.133127,-2.57005 6.673446,-6.24922 2.928906,3.18006 8.92319,3.46552 4.265561,13.80938 5.006171,0.44124 5.345182,-3.78385 7.907037,-5.78646 1.810707,3.32729 4.270686,2.75967 6.492458,3.62115 -5.444466,21.12769 34.594427,8.87055 39.369027,9.87129 13.03944,9.04881 19.5492,-0.56271 26.67028,22.53937 2.4727,19.2718 45.14949,14.73113 55.07231,5.10903 -0.19083,-8.59919 -10.31112,-1.38963 -14.60698,-6.56888 -1.36545,-21.36331 -10.72177,-35.81838 -21.09386,-45.53671 -2.03092,-1.99328 -2.62258,-8.00298 -3.26295,-8.44328 -0.14028,-0.0965 -1.51911,-2.17449 -1.59175,-2.30758 0.57762,-2.36972 1.1939,-6.43453 1.13888,-8.47345 1.63857,-0.36399 3.03807,2.14028 4.53941,3.42271 1.19709,-5.86986 2.32463,-11.59836 -3.80268,-17.49939 0.11735,-0.81509 -1.48287,-1.96402 0.45299,-1.87002 2.94858,1.85348 6.3075,4.4753 7.20633,9.06886 2.33548,-3.7647 2.89815,-7.52941 3.4983,-11.29412 l 1.44232,0.62292 c -0.037,-3.66783 0.11677,-7.65345 -1.38983,-8.87227 3.77264,-2.85553 7.75438,-5.62746 9.06481,-9.46773 -3.26121,1.19753 -7.0015,3.7361 -9.08328,1.63178 4.15426,-2.38632 8.62714,-4.67124 7.34876,-8.78583 -3.43922,2.39057 -8.86111,4.32722 -11.35204,-1.02396 2.70133,-2.99416 9.15681,-0.92007 6.44141,-11.13531 -0.9299,1.96161 -3.32606,6.02064 -7.02832,4.37256 -1.42677,-0.84389 -0.57386,-5.1899 -6.09537,-9.45704 L 177.52892,12.7601 c -7.11986,1.24414 -7.09645,8.23702 -13.83328,10.9027 -4.75378,-0.14605 -6.33575,-0.66197 -9.9991,-0.94949 -6.12274,-1.49769 -6.43492,1.48326 -10.08175,2.8954 -4.1509,0.55838 -12.14485,-1.30122 -19.62571,-2.83802 -2.41866,-0.49685 -4.7837,-2.32365 -6.94787,-1.2967 -3.27136,1.80471 -3.09051,6.65617 -3.35451,12.71543 z"
     id="path3264"
     style="fill:#1b1a1c;fill-opacity:1;fill-rule:evenodd;stroke:#1b1a1c;stroke-width:1.65609837;stroke-linecap:butt;stroke-linejoin:miter;stroke-miterlimit:4;stroke-dasharray:none;stroke-opacity:1"
     sodipodi:nodetypes="ccccccccccccccccccccccccccccccccccccccccccccccccccccccccccccccccccccccccccccccccccccccc" />
  <path
     inkscape:connector-curvature="0"
     d="m 120.50395,43.82976 1.95811,-5.27439 2.3105,0.17111 c -0.12675,1.93872 -0.45889,3.69372 0.18127,5.44551 -1.40538,-0.32254 -2.4063,-0.52829 -4.44988,-0.34223 z"
     id="path3266"
     style="fill:#ffffff;fill-rule:evenodd;stroke:#1b1a1c;stroke-width:0.55203271px;stroke-linecap:butt;stroke-linejoin:miter;stroke-opacity:1" />
  <path
     inkscape:connector-curvature="0"
     d="m 127.05275,44.81367 c 0.6031,-3.00676 1.75724,-3.13069 2.76869,-4.50433 l 2.05378,0.8556 c -0.81134,1.59646 -0.58484,2.92367 -0.28703,4.67544 -0.54962,-0.23698 -2.32071,-0.52827 -4.53544,-1.02671 z"
     id="path3268"
     style="fill:#ffffff;fill-rule:evenodd;stroke:#1b1a1c;stroke-width:0.55203271px;stroke-linecap:butt;stroke-linejoin:miter;stroke-opacity:1" />
  <path
     inkscape:connector-curvature="0"
     d="m 133.35257,46.54744 c 0.77424,-2.49342 2.4317,-3.28161 2.92972,-3.71409 l 0.94131,0.0856 c -0.81135,1.59645 0.45213,3.75907 0.83555,5.33974 -0.54961,-0.23699 -2.91973,-0.87052 -4.70658,-1.71118 z"
     id="path3270"
     style="fill:#ffffff;fill-rule:evenodd;stroke:#1b1a1c;stroke-width:0.55203271px;stroke-linecap:butt;stroke-linejoin:miter;stroke-opacity:1" />
  <path
     inkscape:connector-curvature="0"
     d="m 139.57688,48.76189 c 0.43374,-1.09294 1.04591,-3.11142 2.13934,-3.1051 1.26808,0.48778 2.94198,2.34868 5.47674,4.64517 -3.25643,0.78791 -5.39008,-0.88564 -7.61608,-1.54007 z"
     id="path3272"
     style="fill:#ffffff;fill-rule:evenodd;stroke:#1b1a1c;stroke-width:0.55203271px;stroke-linecap:butt;stroke-linejoin:miter;stroke-opacity:1" />
  <path
     inkscape:connector-curvature="0"
     d="m 35.07066,52.20353 c 0.229848,-3.17048 1.866176,-5.63785 6.643356,-6.53506 2.785484,1.28559 1.307939,4.9429 -0.214305,4.71383 -2.143023,-0.67387 -4.286027,0.91112 -6.429051,1.82123 z"
     id="path3278"
     style="fill:#ffc800;fill-opacity:1;fill-rule:evenodd;stroke:#1b1a1c;stroke-width:0.55203271px;stroke-linecap:butt;stroke-linejoin:miter;stroke-opacity:1" />
  <path
     inkscape:connector-curvature="0"
     d="m 48.115558,25.48208 c 2.251431,-2.10856 4.812877,-3.51974 8.945012,-1.39742 5.554401,1.56797 9.496988,-1.26646 7.267821,5.03071 l -0.340927,0.97632 c 6.939402,-0.58537 1.361893,7.62813 4.76467,10.50685 1.841893,1.24672 3.711334,0.22763 4.883739,-1.71763 1.033875,-1.71535 1.549009,-0.10221 1.550828,-0.15311 0.03316,-0.92081 -0.09665,-1.72239 0.212245,-2.12919 0.48234,-0.6352 0.957487,-1.23442 1.431438,-1.71538 1.881629,-1.9488 3.352231,0.73726 2.657244,2.51897 -0.180546,0.46289 -1.077993,1.50943 -1.182663,2.05405 3.816517,-2.60993 6.40325,-6.54962 6.453616,-10.74981 0.887047,2.43272 2.527445,3.61521 -0.862994,11.58825 -0.131999,2.45646 -0.98552,3.47019 -2.061784,4.03843 -1.000971,1.59334 -5.072834,1.9585 -8.28086,2.66918 -2.838512,6.7053 0.31991,9.17579 0.153822,14.09979 5.227369,15.90437 23.099881,28.76554 33.080275,33.1027 -1.46613,1.86048 -2.76396,1.89459 -4.44234,2.54551 0.95388,0.44166 2.79833,2.26853 5.6208,1.80486 -0.96735,6.236 -2.3881,8.77045 -5.03894,12.1693 l -0.18168,4.69826 c -2.64671,1.63868 -4.328419,4.95211 -7.108961,8.43744 -2.704334,1.52362 -5.04011,-2.48015 -7.547342,-3.91275 -0.433039,4.40949 -2.511531,4.15772 -4.19299,5.0307 1.454667,-6.1894 -2.79491,-9.74817 1.6772,-16.48953 -2.0802,3.49542 -4.306774,4.01198 -4.888119,8.67208 -3.916023,-5.8884 0.673577,-7.26232 0.136068,-10.06947 -0.210667,0.48861 -2.316497,0.99734 -4.003906,7.96158 -4.913326,-5.86201 0.837023,-10.28952 0.929075,-13.55126 -2.535604,2.35124 -5.91475,3.11488 -4.872666,12.19947 -9.091791,-11.19572 -0.07907,-11.76667 0.120634,-17.50963 -1.951947,2.43968 -5.409381,3.37418 -5.590651,7.58426 -3.57601,-6.88903 1.659327,-8.38826 3.067507,-12.07073 -1.67719,-0.41258 -4.185626,1.80267 -5.862818,5.83901 -1.83087,-6.87166 3.420803,-8.49403 3.943603,-12.93936 -2.888488,-0.6006 -5.776996,-0.16897 -8.665472,3.63329 -1.434805,-6.4412 4.633214,-7.78572 4.016634,-11.32478 -0.251438,-1.44325 0.84907,-2.16899 0.705235,-1.68296 -1.104466,3.73239 -9.086766,3.50983 -9.428287,-0.81566 3.443921,-0.41242 6.173955,-2.77569 8.589707,-10.92263 -3.146284,3.88362 -6.413327,8.70465 -11.680021,4.53202 4.155647,-1.18471 8.089403,-5.39166 3.014549,-11.69267 -3.139805,-2.75491 -5.432791,-0.21577 -6.931607,-0.35276 -1.256468,-0.41885 -1.552494,-0.74367 -0.777743,-1.76313 0.751944,-1.02808 1.483331,-2.26978 1.975326,-3.838 0.223729,-1.62457 -0.107804,-1.78256 -1.063905,-0.45606 -1.181236,1.86127 -1.645894,4.70092 -4.149418,5.21625 -0.812799,0.0904 -4.021286,0.6256 -1.911126,-3.10445 2.998643,-3.131 5.499313,-6.14345 -0.634825,-7.10037 2.629896,-4.51682 4.655408,-6.58172 6.844839,-0.5288 4.639242,-0.60305 8.372188,2.38897 11.120951,6.51125 0.563822,-5.61821 -5.72438,-6.49958 0.279509,-11.48163 l 0.178245,-1.24518 c -0.973401,-1.25666 -7.433287,-1.39972 -3.812136,-5.16013 2.008323,-0.64665 3.517797,-1.91994 5.870171,-1.95639 -1.903771,-2.44556 -3.890653,-0.10668 -7.124389,0.89875 -1.788411,-0.3373 -2.091351,-0.84448 -2.10824,-2.2888 3.664143,-0.0286 4.486447,-1.17735 5.598709,-2.24323 -2.502639,1.28783 -3.579766,0.79406 -4.192971,-0.27948 0.240186,-2.84863 -4.092962,-1.12475 -6.149691,-1.6769 z"
     id="path3280"
     style="fill:#d8201f;fill-opacity:1;fill-rule:evenodd;stroke:#1b1a1c;stroke-width:1.10406542;stroke-linecap:butt;stroke-linejoin:miter;stroke-miterlimit:4;stroke-dasharray:none;stroke-opacity:1" />
  <path
     inkscape:connector-curvature="0"
     d="m 74.644268,78.13467 c -0.002,0.23633 -0.459231,0.87466 0.679144,0.97005 0.354048,0.01 1.495368,-0.59863 1.4553,-1.84309 -0.67435,0.47672 -2.06746,0.44526 -2.134444,0.87304 z"
     id="path3286"
     style="fill:#1b1a1c;fill-opacity:1;fill-rule:evenodd;stroke:#1b1a1c;stroke-width:0.55203271px;stroke-linecap:butt;stroke-linejoin:miter;stroke-opacity:1" />
  <path
     inkscape:connector-curvature="0"
     d="m 77.166791,82.12639 c 0.01296,-0.0212 -0.665851,1.12253 0.565632,0.51069 -0.06822,-1.84305 2.415369,-0.57281 2.853864,-1.7112 0.06641,-0.58302 -0.564033,-1.0923 -0.662665,-0.67172 -0.261004,1.19957 -1.974122,-0.23436 -2.756831,1.87223 z"
     id="path3288"
     style="fill:#1b1a1c;fill-opacity:1;fill-rule:evenodd;stroke:#1b1a1c;stroke-width:0.55203271px;stroke-linecap:butt;stroke-linejoin:miter;stroke-opacity:1" />
  <path
     inkscape:connector-curvature="0"
     d="m 77.360831,85.89494 c -0.297343,0.97259 0.253809,0.90418 0.785651,0.55284 1.606279,-2.72261 4.382048,-1.23891 6.190322,-3.95744 0.381267,-0.78576 -0.427584,-0.71364 -0.649965,-0.48501 -1.580538,2.09869 -4.244845,0.58118 -6.326008,3.88961 z"
     id="path3290"
     style="fill:#1b1a1c;fill-opacity:1;fill-rule:evenodd;stroke:#1b1a1c;stroke-width:0.55203271px;stroke-linecap:butt;stroke-linejoin:miter;stroke-opacity:1" />
  <path
     inkscape:connector-curvature="0"
     d="m 75.961703,91.88363 c -0.119681,0.31613 -0.357495,0.68292 0.746258,0.47481 2.771649,-3.64363 7.31655,-3.23733 10.786744,-5.56202 0.290983,-0.30879 0.374605,-0.52873 -0.33921,-0.40698 -3.690225,2.53147 -8.079677,1.04038 -11.193792,5.49419 z"
     id="path3292"
     style="fill:#1b1a1c;fill-opacity:1;fill-rule:evenodd;stroke:#1b1a1c;stroke-width:0.55203271px;stroke-linecap:butt;stroke-linejoin:miter;stroke-opacity:1" />
  <path
     inkscape:connector-curvature="0"
     d="m 77.929083,96.36037 c -0.379337,0.81871 0.329173,0.83774 0.67842,0.47482 2.907899,-5.37502 8.343433,-3.70987 13.161192,-6.91861 0.763126,-0.78624 -0.458982,-0.66563 -0.610572,-0.54263 -4.265219,2.86914 -10.230003,1.97417 -13.22904,6.98642 z"
     id="path3294"
     style="fill:#1b1a1c;fill-opacity:1;fill-rule:evenodd;stroke:#1b1a1c;stroke-width:0.55203271px;stroke-linecap:butt;stroke-linejoin:miter;stroke-opacity:1" />
  <path
     inkscape:connector-curvature="0"
     d="m 79.896503,99.00572 c -0.713814,1.19659 0.620389,1.13955 0.91948,0.82845 2.327106,-4.97078 9.956472,-0.55793 14.548303,-4.89823 0.198209,-0.95295 0.334197,-1.2021 -0.542723,-0.54263 -5.071437,3.93873 -12.434708,0.28019 -14.92506,4.61241 z"
     id="path3296"
     style="fill:#1b1a1c;fill-opacity:1;fill-rule:evenodd;stroke:#1b1a1c;stroke-width:0.55203271px;stroke-linecap:butt;stroke-linejoin:miter;stroke-opacity:1" />
  <path
     inkscape:connector-curvature="0"
     d="m 83.540513,101.17749 c -0.491354,0.23116 -1.150924,0.0412 0,1.0303 7.369598,1.12863 12.019239,-1.13862 16.291271,-4.26836 0.453866,-0.91323 -0.0649,-0.73228 -0.637879,-0.49062 -4.354971,2.91747 -9.096232,5.08525 -15.653392,3.72868 z"
     id="path3298"
     style="fill:#1b1a1c;fill-opacity:1;fill-rule:evenodd;stroke:#1b1a1c;stroke-width:0.55203271px;stroke-linecap:butt;stroke-linejoin:miter;stroke-opacity:1" />
  <path
     inkscape:connector-curvature="0"
     d="m 85.79776,106.03459 c -0.233835,0.31314 -0.610631,1.18837 0.883261,0.88311 0.878367,-2.71273 9.601559,1.35543 14.377529,-5.05335 0.85001,-1.27505 -0.49253,-0.65234 -0.63792,-0.6378 -5.364991,6.26236 -9.257885,2.03987 -14.62287,4.80804 z"
     id="path3300"
     style="fill:#1b1a1c;fill-opacity:1;fill-rule:evenodd;stroke:#1b1a1c;stroke-width:0.55203271px;stroke-linecap:butt;stroke-linejoin:miter;stroke-opacity:1" />
  <path
     inkscape:connector-curvature="0"
     d="m 88.25125,111.72572 c -0.273311,1.07518 0.10446,0.60541 0.490719,0.49065 2.320737,-3.47502 9.868873,-0.53742 14.770091,-7.65363 0.0324,-1.09862 -0.15107,-0.81934 -0.6379,-0.49061 -3.974695,6.86859 -10.641641,3.98805 -14.62291,7.65359 z"
     id="path3302"
     style="fill:#1b1a1c;fill-opacity:1;fill-rule:evenodd;stroke:#1b1a1c;stroke-width:0.55203271px;stroke-linecap:butt;stroke-linejoin:miter;stroke-opacity:1" />
  <path
     inkscape:connector-curvature="0"
     d="m 89.890835,116.48163 c -0.273322,1.07517 0.006,1.24321 0.392549,1.12844 4.332616,-4.50528 11.341006,-1.76394 14.034046,-8.48767 0.0322,-1.09861 0.58501,-1.01558 0.0983,-0.68687 -3.33679,5.98554 -10.445346,4.33152 -14.524745,8.0461 z"
     id="path3304"
     style="fill:#1b1a1c;fill-opacity:1;fill-rule:evenodd;stroke:#1b1a1c;stroke-width:0.55203271px;stroke-linecap:butt;stroke-linejoin:miter;stroke-opacity:1" />
  <path
     inkscape:connector-curvature="0"
     d="m 119.64943,22.82187 c 7.25268,4.7099 16.20258,3.34211 24.08505,4.90374 l 5.13627,-3.3013 14.61707,1.54445 c 5.89658,-2.43371 8.27837,-6.0388 10.76819,-9.60793 3.7389,7.14596 -0.20386,11.7355 -3.22466,17.75503 13.39812,-3.65028 4.44214,17.29692 19.66329,7.97459 -2.40848,1.64932 0.62399,4.59136 -8.80502,5.44306 4.63818,8.23082 8.50633,5.97836 11.74001,5.50218 -0.37582,1.70045 -1.04242,4.88291 -10.2725,4.03494 2.43529,2.36942 5.38389,4.17904 9.7874,4.40174 -2.71104,1.4557 -2.88686,4.43226 -10.52117,2.93451 3.30273,1.90569 6.59282,3.27127 7.42622,10.01761 -3.06624,-1.22514 -5.60532,-3.85587 -9.20149,-3.66811 2.55058,1.63578 8.07863,2.19436 5.2712,11.20673 -2.77092,-3.30291 -5.3833,-6.94549 -9.36595,-7.65229 -0.44796,8.44559 5.47427,11.71101 3.66043,20.46118 -2.61732,-3.85191 -5.25962,-7.37926 -8.05461,-8.92174 2.10186,3.94119 3.76577,7.87868 2.34722,13.93174 -4.56639,-2.15895 -3.21598,-2.50161 -4.75088,-3.70344 1.22883,4.0064 5.65231,5.275 2.39533,13.12569 -2.40386,-4.98697 -7.92031,-5.65721 -8.7861,-9.90495 -0.23666,-1.16121 0.54883,-2.11762 1.16582,-3.97481 -6.09406,0.0753 -0.14502,10.5557 -4.09909,13.40864 -0.89268,-3.85547 -5.79505,-3.21471 -5.47369,-13.25399 l -0.50934,0.11792 c -1.06434,4.36976 -0.69534,10.79342 -4.37308,13.53009 0.14328,-5.14745 -5.06283,-3.68603 -1.79617,-13.89983 -2.83742,3.61027 -2.56362,8.4353 -7.7568,10.41701 0.34941,-4.39498 -1.05499,-8.31391 1.91148,-13.72644 -7.59152,4.20356 1.45406,14.6892 -7.56922,17.45248 4.17718,-1.26133 7.05115,-1.29355 10.96772,-6.91104 1.12487,4.17231 3.60328,4.36455 1.63468,10.40841 6.40444,-2.08398 6.33108,-7.95167 7.45349,-10.58584 1.20857,4.94023 4.44974,4.13864 5.06423,9.02251 3.07222,-1.86634 2.88119,-5.2214 3.53842,-7.96453 6.6215,4.07189 7.04888,6.51153 6.2748,10.70502 2.44448,-2.48227 5.10623,-4.33275 5.5706,-9.30522 l 3.38602,8.45335 c 9.69328,7.05007 18.07101,23.75976 18.67227,42.65548 2.58115,3.3421 1.94286,5.08815 1.8344,11.73801 -15.63368,206.66614 -10.72579,38.39669 -36.34061,-5.53425 -0.012,-10.26643 -2.48047,-17.43616 -10.21436,-22.8155 -25.88482,-4.20955 -10.70855,-4.10027 -8.55186,-17.4509 -35.1183,9.73469 -54.463575,-5.30424 -36.32937,-6.33253 2.09991,-2.78876 4.75536,-5.57752 5.40512,-8.3663 -3.28746,2.06693 -6.57492,7.04065 -9.86238,5.2957 6.60921,-7.12138 1.30746,-11.56274 12.28395,-16.79672 -4.38142,-0.76059 -5.20344,2.83212 -10.42302,1.52727 6.10422,-2.43098 3.56084,-11.13108 13.02607,-12.45294 0.31652,-0.0442 0.002,-1.49514 0.14508,-1.40237 -3.45797,-1.4601 -5.16384,1.08292 -9.33222,0.82703 4.42859,-3.2107 3.03715,-9.23705 19.0579,-6.83961 1.24759,-0.23514 -0.18789,-2.99066 2.71199,-3.04204 14.30468,-0.25343 26.08477,-6.99115 27.11808,-15.34877 -3.0418,2.89538 -4.76951,7.29227 -10.42892,7.1966 -3.24517,-3.3321 -9.85944,-0.26437 -12.65976,-4.33968 -0.40279,-0.58621 -1.29235,0.0434 -1.68981,0.22791 -1.77689,0.82542 -5.08994,1.06327 -8.31019,0.13682 -1.04394,2.81275 -2.62487,2.85535 -3.66879,4.17165 0.26431,-1.96231 -0.65509,-3.36216 -1.64173,-4.3808 -1.77348,-1.83104 -2.1064,-3.53579 0.18409,-3.8061 4.23412,-0.056 11.26801,-0.45133 16.56438,0.57264 6.405,1.23829 10.88402,2.39066 13.32274,-0.0956 3.22481,-3.00922 1.03486,-7.40043 -0.52032,-8.6029 -3.94449,-3.55041 -7.73553,-7.64145 -11.83348,-9.31389 -7.99093,-3.13511 -13.57963,-4.61916 -18.68707,-4.31522 -4.45447,-0.40006 -6.29157,-6.78398 -3.59207,-7.01958 2.12042,0.22646 3.47688,1.18825 2.7939,-0.53103 -2.04713,-4.61112 -2.90917,-8.0126 1.66069,-5.93338 z"
     id="path2405"
     style="fill:#d8201f;fill-opacity:1;fill-rule:evenodd;stroke:#1b1a1c;stroke-width:1.10406542;stroke-linecap:butt;stroke-linejoin:miter;stroke-miterlimit:4;stroke-dasharray:none;stroke-opacity:1"
     sodipodi:nodetypes="cccccccccccccccccccccccccccccccccccccccccccccccccccccsccccccccscccccccc" />
  <g
     id="g1549"
     style="opacity:1;stroke:#000000;stroke-opacity:1;stroke-width:0.75;stroke-miterlimit:4;stroke-dasharray:none">
    <path
       style="color:#000000;font-style:normal;font-variant:normal;font-weight:normal;font-stretch:normal;font-size:medium;line-height:normal;font-family:sans-serif;font-variant-ligatures:normal;font-variant-position:normal;font-variant-caps:normal;font-variant-numeric:normal;font-variant-alternates:normal;font-variant-east-asian:normal;font-feature-settings:normal;font-variation-settings:normal;text-indent:0;text-align:start;text-decoration:none;text-decoration-line:none;text-decoration-style:solid;text-decoration-color:#000000;letter-spacing:normal;word-spacing:normal;text-transform:none;writing-mode:lr-tb;direction:ltr;text-orientation:mixed;dominant-baseline:auto;baseline-shift:baseline;text-anchor:start;white-space:normal;shape-padding:0;shape-margin:0;inline-size:0;clip-rule:nonzero;display:inline;overflow:visible;visibility:visible;isolation:auto;mix-blend-mode:normal;color-interpolation:sRGB;color-interpolation-filters:linearRGB;solid-color:#000000;solid-opacity:1;vector-effect:none;fill:#d8201f;fill-opacity:1;fill-rule:evenodd;stroke:#000000;stroke-width:0.75;stroke-linecap:butt;stroke-linejoin:miter;stroke-miterlimit:4;stroke-dasharray:none;stroke-dashoffset:0;stroke-opacity:1;color-rendering:auto;image-rendering:auto;shape-rendering:auto;text-rendering:auto;enable-background:accumulate;stop-color:#000000;stop-opacity:1"
       d="m 162.73169,269.92611 c -0.19341,-3.80395 -2.06158,-8.35386 3.74913,-12.10481 3.94701,0.003 3.20093,4.75602 1.56451,4.75189 -1.63629,0.23749 -3.54241,2.04424 -5.31364,7.35292 z"
       id="path1551" />
    <path
       style="color:#000000;font-style:normal;font-variant:normal;font-weight:normal;font-stretch:normal;font-size:medium;line-height:normal;font-family:sans-serif;font-variant-ligatures:normal;font-variant-position:normal;font-variant-caps:normal;font-variant-numeric:normal;font-variant-alternates:normal;font-variant-east-asian:normal;font-feature-settings:normal;font-variation-settings:normal;text-indent:0;text-align:start;text-decoration:none;text-decoration-line:none;text-decoration-style:solid;text-decoration-color:#000000;letter-spacing:normal;word-spacing:normal;text-transform:none;writing-mode:lr-tb;direction:ltr;text-orientation:mixed;dominant-baseline:auto;baseline-shift:baseline;text-anchor:start;white-space:normal;shape-padding:0;shape-margin:0;inline-size:0;clip-rule:nonzero;display:inline;overflow:visible;visibility:visible;isolation:auto;mix-blend-mode:normal;color-interpolation:sRGB;color-interpolation-filters:linearRGB;solid-color:#000000;solid-opacity:1;vector-effect:none;fill:#ffffff;fill-opacity:1;fill-rule:evenodd;stroke:#000000;stroke-width:0.75;stroke-linecap:butt;stroke-linejoin:miter;stroke-miterlimit:4;stroke-dasharray:none;stroke-dashoffset:0;stroke-opacity:1;color-rendering:auto;image-rendering:auto;shape-rendering:auto;text-rendering:auto;enable-background:accumulate;stop-color:#000000;stop-opacity:1"
       d="M 165.74414 255.32031 L 165.125 255.7207 C 161.73011 257.91218 160.17286 260.90226 159.87109 263.57422 C 159.56933 266.24617 160.15583 268.50796 160.23438 270.05273 L 165.10352 270.7168 C 165.93087 268.23709 166.7682 266.70102 167.40234 265.89648 C 168.03649 265.09195 168.34141 265.056 168.4043 265.04688 L 168.03906 265.07227 C 169.65885 265.07635 170.74402 263.95829 171.25 263.01367 C 171.75598 262.06905 171.94049 261.06446 171.84766 259.98633 C 171.75482 258.9082 171.32394 257.70564 170.36133 256.77148 C 169.39872 255.83733 167.97099 255.3234 166.48242 255.32227 L 165.74414 255.32031 z "
       id="path1553" />
  </g>
  <g
     id="g1555"
     style="opacity:1;stroke:#000000;stroke-opacity:1;stroke-width:0.75;stroke-miterlimit:4;stroke-dasharray:none">
    <path
       style="color:#000000;font-style:normal;font-variant:normal;font-weight:normal;font-stretch:normal;font-size:medium;line-height:normal;font-family:sans-serif;font-variant-ligatures:normal;font-variant-position:normal;font-variant-caps:normal;font-variant-numeric:normal;font-variant-alternates:normal;font-variant-east-asian:normal;font-feature-settings:normal;font-variation-settings:normal;text-indent:0;text-align:start;text-decoration:none;text-decoration-line:none;text-decoration-style:solid;text-decoration-color:#000000;letter-spacing:normal;word-spacing:normal;text-transform:none;writing-mode:lr-tb;direction:ltr;text-orientation:mixed;dominant-baseline:auto;baseline-shift:baseline;text-anchor:start;white-space:normal;shape-padding:0;shape-margin:0;inline-size:0;clip-rule:nonzero;display:inline;overflow:visible;visibility:visible;isolation:auto;mix-blend-mode:normal;color-interpolation:sRGB;color-interpolation-filters:linearRGB;solid-color:#000000;solid-opacity:1;vector-effect:none;fill:#d8201f;fill-opacity:1;fill-rule:evenodd;stroke:#000000;stroke-width:0.75;stroke-linecap:butt;stroke-linejoin:miter;stroke-miterlimit:4;stroke-dasharray:none;stroke-dashoffset:0;stroke-opacity:1;color-rendering:auto;image-rendering:auto;shape-rendering:auto;text-rendering:auto;enable-background:accumulate;stop-color:#000000;stop-opacity:1"
       d="m 189.90176,278.69173 c -1.65715,-1.97336 -5.10166,-3.23893 -3.60964,-8.76562 2.14847,-1.9143 3.68152,-0.44444 5.11958,1.54761 -2.46047,1.67489 -1.51368,4.17628 -1.50994,7.21801 z"
       id="path1557" />
    <path
       style="color:#000000;font-style:normal;font-variant:normal;font-weight:normal;font-stretch:normal;font-size:medium;line-height:normal;font-family:sans-serif;font-variant-ligatures:normal;font-variant-position:normal;font-variant-caps:normal;font-variant-numeric:normal;font-variant-alternates:normal;font-variant-east-asian:normal;font-feature-settings:normal;font-variation-settings:normal;text-indent:0;text-align:start;text-decoration:none;text-decoration-line:none;text-decoration-style:solid;text-decoration-color:#000000;letter-spacing:normal;word-spacing:normal;text-transform:none;writing-mode:lr-tb;direction:ltr;text-orientation:mixed;dominant-baseline:auto;baseline-shift:baseline;text-anchor:start;white-space:normal;shape-padding:0;shape-margin:0;inline-size:0;clip-rule:nonzero;display:inline;overflow:visible;visibility:visible;isolation:auto;mix-blend-mode:normal;color-interpolation:sRGB;color-interpolation-filters:linearRGB;solid-color:#000000;solid-opacity:1;vector-effect:none;fill:#ffffff;fill-opacity:1;fill-rule:evenodd;stroke:#000000;stroke-width:0.75;stroke-linecap:butt;stroke-linejoin:miter;stroke-miterlimit:4;stroke-dasharray:none;stroke-dashoffset:0;stroke-opacity:1;color-rendering:auto;image-rendering:auto;shape-rendering:auto;text-rendering:auto;enable-background:accumulate;stop-color:#000000;stop-opacity:1"
       d="M 187.35352 266.71875 C 186.36849 266.91595 185.39492 267.37607 184.62891 268.05859 L 184.07227 268.55469 L 183.87891 269.27539 C 182.99421 272.55246 183.62814 275.31257 184.87109 277.08008 C 186.11404 278.84759 187.53707 279.76384 187.98633 280.29883 L 192.41016 285.56641 L 192.40234 278.68945 C 192.40016 276.91004 192.18327 275.49582 192.22852 274.71484 C 192.27377 273.93387 192.19 273.96875 192.81836 273.54102 L 194.94336 272.09375 L 193.43945 270.00977 C 192.64445 268.9085 191.78212 267.6991 190.15039 266.95898 C 189.33452 266.58893 188.33854 266.52155 187.35352 266.71875 z M 188.08594 271.51172 C 188.08655 271.51199 188.11028 271.53841 188.11133 271.53906 L 187.98047 271.75195 C 187.97785 271.75711 187.97136 271.76047 187.96875 271.76562 C 187.96713 271.76884 187.96842 271.77218 187.9668 271.77539 L 187.95508 271.79297 C 188.01581 271.73886 187.92842 271.80514 187.96875 271.76562 C 188.33778 271.40405 188.05761 271.49887 188.08594 271.51172 z "
       id="path1559" />
  </g>
  <path
     inkscape:connector-curvature="0"
     d="m 134.92945,114.66023 1.86014,0.0969 c 0.55727,6.99308 2.08409,14.44882 -12.71029,14.11624 -23.38681,9.30111 -1.22118,1.88955 -1.8935,-1.95231 14.04181,2.36701 14.31174,-4.34135 12.74365,-12.26093 z"
     id="path2429"
     style="fill:#1b1a1c;fill-opacity:1;fill-rule:evenodd;stroke:#1b1a1c;stroke-width:0.55203271px;stroke-linecap:butt;stroke-linejoin:miter;stroke-opacity:1"
     sodipodi:nodetypes="cccccc" />
  <path
     inkscape:connector-curvature="0"
     d="m 134.91731,131.90041 c 11.97071,4.37841 15.86054,-1.08546 20.21154,-5.73408 l 1.17645,1.25656 c -4.28244,4.19449 -11.56541,11.84416 -21.38799,4.47752 z"
     id="path2431"
     style="fill:#1b1a1c;fill-opacity:1;fill-rule:evenodd;stroke:#1b1a1c;stroke-width:0.55203271px;stroke-linecap:butt;stroke-linejoin:miter;stroke-opacity:1" />
  <path
     inkscape:connector-curvature="0"
     d="m 143.23403,33.12738 c 7.08286,1.19056 8.23586,-6.69971 12.64086,-3.63355 3.98633,5.71984 0.27239,6.25558 0.29989,9.33625 1.62363,0.70702 3.14297,1.55313 5.53662,1.23363 -1.73808,1.42469 -4.25206,1.4104 -6.47054,1.63427 -5.35436,3.8605 -10.88886,-2.39186 -10.40576,-5.53567 -0.63199,-0.93793 -1.92174,-1.38263 -1.60107,-3.03493 z"
     id="path2439"
     style="fill:#1b1a1c;fill-opacity:1;fill-rule:evenodd;stroke:#1b1a1c;stroke-width:0.55203271px;stroke-linecap:butt;stroke-linejoin:miter;stroke-opacity:1" />
  <path
     inkscape:connector-curvature="0"
     d="m 152.43124,30.73028 c 1.11713,0.99513 2.33987,2.31456 3.0435,4.45756 0.58859,-0.72674 1.31219,-2.47273 0.62327,-3.62521 -1.09944,-1.33213 -2.93579,-1.21169 -3.66677,-0.83235 z"
     id="path2424"
     style="fill:#d8201f;fill-opacity:1;fill-rule:evenodd;stroke:#1b1a1c;stroke-width:0.55203271px;stroke-linecap:butt;stroke-linejoin:miter;stroke-opacity:1" />
  <path
     inkscape:connector-curvature="0"
     d="m 153.75047,35.5019 c -0.26783,0.36379 -1.47779,1.93657 -1.67502,1.53354 -0.41105,-0.83992 -2.02029,-1.49652 -3.04291,-0.44642 -1.39871,1.54356 0.83522,3.1409 2.1852,3.78237 0.31422,0.6226 0.13891,1.36758 0.035,2.09469 -3.03891,-0.53707 -7.8866,-6.18149 -5.30945,-7.75108 2.88124,-0.13963 3.14386,-3.16699 5.73707,-2.62928 2.04216,0.97173 1.9579,2.01567 2.07013,3.41618 z"
     id="path2426"
     style="fill:#ffffff;fill-rule:evenodd;stroke:#1b1a1c;stroke-width:0.55203271px;stroke-linecap:butt;stroke-linejoin:miter;stroke-opacity:1" />
  <path
     inkscape:connector-curvature="0"
     d="m 169.70372,40.63697 c 8.57399,1.93101 3.91312,4.75669 0.35734,4.25292"
     id="path2428"
     style="fill:none;fill-rule:evenodd;stroke:#1b1a1c;stroke-width:1.65609837;stroke-linecap:square;stroke-linejoin:miter;stroke-miterlimit:4;stroke-dasharray:none;stroke-opacity:1" />
  <path
     inkscape:connector-curvature="0"
     d="m 170.67003,44.82793 c 7.16236,2.3087 8.1541,6.00051 -0.37549,5.59677"
     id="path2430"
     style="fill:none;fill-rule:evenodd;stroke:#1b1a1c;stroke-width:1.65609837;stroke-linecap:butt;stroke-linejoin:round;stroke-miterlimit:4;stroke-dasharray:none;stroke-opacity:1" />
  <path
     inkscape:connector-curvature="0"
     d="m 171.29183,50.38995 c 4.66948,2.10426 3.86305,5.22835 -3.5956,5.64054"
     id="path2432"
     style="fill:none;fill-rule:evenodd;stroke:#1b1a1c;stroke-width:1.65609837;stroke-linecap:butt;stroke-linejoin:round;stroke-miterlimit:4;stroke-dasharray:none;stroke-opacity:1" />
  <path
     inkscape:connector-curvature="0"
     d="m 168.77742,56.04863 c 1.40365,1.09048 4.49195,4.97806 -3.54269,3.26334"
     id="path2434"
     style="fill:none;fill-rule:evenodd;stroke:#1b1a1c;stroke-width:1.65609837;stroke-linecap:butt;stroke-linejoin:round;stroke-miterlimit:4;stroke-dasharray:none;stroke-opacity:1" />
  <path
     inkscape:connector-curvature="0"
     d="m 163.67756,62.08279 -0.35735,3.80494"
     id="path2438"
     style="fill:none;fill-rule:evenodd;stroke:#1b1a1c;stroke-width:1.65609837;stroke-linecap:butt;stroke-linejoin:round;stroke-miterlimit:4;stroke-dasharray:none;stroke-opacity:1" />
  <path
     inkscape:connector-curvature="0"
     d="m 165.91848,59.99561 c 3.82808,2.59276 0.46388,3.3634 -1.55715,3.03521"
     id="path2440"
     style="fill:none;fill-rule:evenodd;stroke:#1b1a1c;stroke-width:1.65609837;stroke-linecap:round;stroke-linejoin:round;stroke-miterlimit:4;stroke-dasharray:none;stroke-opacity:1" />
  <path
     inkscape:connector-curvature="0"
     d="m 166.19142,27.70837 c 1.07831,0.32141 2.43546,0.27113 2.61901,1.78538 0.65294,0.39332 1.33282,0.54422 2.14283,-0.4761 1.62869,-2.99549 1.84172,-5.27681 1.24999,-8.09378 -1.58857,4.146 -8.20488,4.51633 -6.01183,6.7845 z"
     id="path3212"
     style="fill:#1b1a1c;fill-opacity:1;fill-rule:evenodd;stroke:#1b1a1c;stroke-width:0.55203271px;stroke-linecap:butt;stroke-linejoin:miter;stroke-opacity:1" />
  <path
     inkscape:connector-curvature="0"
     d="m 151.68651,134.15205 c -1.34794,0.21167 -1.23015,2.25074 -0.12502,2.16419 3.65805,-0.65126 7.05018,-3.66386 10.33631,-6.73755 0.39099,-0.19158 0.61417,-1.41623 -0.53271,-0.92021 -1.83539,1.92541 -5.54457,4.68695 -9.67858,5.49357 z"
     id="path3214"
     style="fill:#1b1a1c;fill-opacity:1;fill-rule:evenodd;stroke:#1b1a1c;stroke-width:0.55203271px;stroke-linecap:butt;stroke-linejoin:miter;stroke-opacity:1" />
  <path
     inkscape:connector-curvature="0"
     d="m 157.35895,137.54884 c -0.95307,0.14934 -0.29239,1.65181 0.489,1.59075 2.58652,-0.4594 4.40758,-1.62229 6.73112,-3.79045 0.14814,-0.32757 -0.14313,-0.93484 -0.95408,-0.58493 -1.29772,1.35813 -3.343,2.21564 -6.26604,2.78463 z"
     id="path3216"
     style="fill:#1b1a1c;fill-opacity:1;fill-rule:evenodd;stroke:#1b1a1c;stroke-width:0.38986129px;stroke-linecap:butt;stroke-linejoin:miter;stroke-opacity:1" />
  <path
     inkscape:connector-curvature="0"
     d="m 160.81391,140.76081 c -0.95311,0.14932 -0.90189,1.84422 -0.12047,1.78318 2.81105,0.0537 5.3378,-2.39199 7.66135,-4.56017 0.0841,-0.35963 -0.4639,-1.3197 -0.98615,-0.87359 -1.10527,1.42228 -3.63168,3.08161 -6.55473,3.65058 z"
     id="path3218"
     style="fill:#1b1a1c;fill-opacity:1;fill-rule:evenodd;stroke:#1b1a1c;stroke-width:0.38986129px;stroke-linecap:butt;stroke-linejoin:miter;stroke-opacity:1" />
  <path
     inkscape:connector-curvature="0"
     d="m 164.20046,144.44732 c -1.08613,0.68412 -0.19086,1.42443 0.38405,1.38076 1.903,-0.32864 2.96193,-1.88095 4.67144,-3.43204 0.2034,-0.0967 0.31951,-0.71469 -0.27712,-0.46437 -2.30204,2.19035 -3.52595,1.72373 -4.77837,2.51565 z"
     id="path3220"
     style="fill:#1b1a1c;fill-opacity:1;fill-rule:evenodd;stroke:#1b1a1c;stroke-width:0.28284249px;stroke-linecap:butt;stroke-linejoin:miter;stroke-opacity:1" />
  <path
     inkscape:connector-curvature="0"
     d="m 165.12814,147.99624 c -0.98087,0.34891 -0.0459,1.67559 0.6005,1.62472 2.13961,-0.38277 3.12925,-1.67222 5.05129,-3.47868 0.22869,-0.11256 0.0705,-0.9606 -0.60028,-0.6691 -1.0735,1.13159 -2.2165,2.30556 -5.05151,2.52306 z"
     id="path3222"
     style="fill:#1b1a1c;fill-opacity:1;fill-rule:evenodd;stroke:#1b1a1c;stroke-width:0.32365903px;stroke-linecap:butt;stroke-linejoin:miter;stroke-opacity:1" />
  <path
     inkscape:connector-curvature="0"
     d="m 167.09313,151.32128 c -0.31772,-0.0323 -0.72941,1.10244 0.89816,0.89799 1.32262,-0.1371 2.71591,-1.06048 3.40022,-2.66197 0.37142,-0.77762 -0.148,-0.66454 -0.4491,-0.48107 -0.61914,1.05821 -1.60943,1.98771 -3.84928,2.24505 z"
     id="path3224"
     style="fill:#1b1a1c;fill-opacity:1;fill-rule:evenodd;stroke:#1b1a1c;stroke-width:0.55203271px;stroke-linecap:butt;stroke-linejoin:miter;stroke-opacity:1" />
  <path
     inkscape:connector-curvature="0"
     d="m 2.8317793,155.57421 v 60.31271 c 0.411549,68.49356 61.1200687,116.94625 122.5714607,116.71938 61.45137,-0.22689 122.0757,-48.21052 122.57495,-116.71938 v -60.31271 z"
     id="path393-4"
     style="fill:#004da9;fill-opacity:1;stroke:#1b1a1c;stroke-width:2.427;stroke-linecap:butt;stroke-linejoin:miter;stroke-miterlimit:4;stroke-dasharray:none;stroke-opacity:1"
     sodipodi:nodetypes="cczccc" />
  <path
     inkscape:connector-curvature="0"
     d="m 167.68151,75.78692 c -1.10778,2.9389 4.13498,8.1709 -1.26988,11.87429 9.4e-4,-2.21663 -2.10984,-2.55735 -2.35827,-4.43601"
     id="path3277"
     style="fill:none;fill-rule:evenodd;stroke:#1b1a1c;stroke-width:1.26967537;stroke-linecap:butt;stroke-linejoin:miter;stroke-miterlimit:4;stroke-dasharray:none;stroke-opacity:1" />
  <path
     inkscape:connector-curvature="0"
     d="m 165.19818,85.10394 c -0.17091,3.25294 -0.32272,6.35631 -2.10732,6.50822"
     id="path3279"
     style="fill:none;fill-rule:evenodd;stroke:#1b1a1c;stroke-width:1.38008189;stroke-linecap:butt;stroke-linejoin:miter;stroke-miterlimit:4;stroke-dasharray:none;stroke-opacity:1" />
  <path
     inkscape:connector-curvature="0"
     d="m 171.2392,70.07423 c 4.67208,4.19378 1.92616,9.02125 0.60939,15.5601 -1.93516,-4.30053 -3.61739,-4.82635 -4.02794,-7.27265"
     id="path3281"
     style="fill:none;fill-rule:evenodd;stroke:#1b1a1c;stroke-width:1.26967537;stroke-linecap:butt;stroke-linejoin:miter;stroke-miterlimit:4;stroke-dasharray:none;stroke-opacity:1" />
  <path
     inkscape:connector-curvature="0"
     d="m 174.7046,62.62963 c 0.84181,3.98406 3.99318,5.452 0.84927,12.6173 -1.21976,-1.47441 -1.80957,-3.57874 -3.70588,-4.37671"
     id="path3283"
     style="fill:none;fill-rule:evenodd;stroke:#1b1a1c;stroke-width:1.26967537;stroke-linecap:butt;stroke-linejoin:miter;stroke-miterlimit:4;stroke-dasharray:none;stroke-opacity:1" />
  <path
     inkscape:connector-curvature="0"
     d="m 177.42071,54.95093 c -0.0234,3.63359 5.35509,3.78247 0.41715,12.59179 -0.79863,-2.27406 -2.79763,-2.52927 -2.94594,-4.53852"
     id="path3285"
     style="fill:none;fill-rule:evenodd;stroke:#1b1a1c;stroke-width:1.26967537;stroke-linecap:butt;stroke-linejoin:miter;stroke-miterlimit:4;stroke-dasharray:none;stroke-opacity:1" />
  <path
     inkscape:connector-curvature="0"
     d="m 104.68431,46.58563 c -6.256877,2.09618 -9.060597,8.45294 0.67926,5.62558 4.94102,-2.41397 9.48308,-4.8517 19.37908,-2.81108 11.14976,1.68365 17.51512,4.65206 25.08454,5.32031 0.11805,-0.87471 0.61999,-1.7494 -0.78737,-2.62414 -11.63286,-2.00421 -16.42073,-5.15986 -27.42695,-6.69152 -5.64283,-0.37334 -11.28572,-0.9749 -16.92856,1.18085 z"
     id="path3287"
     style="fill:#d8201f;fill-opacity:1;fill-rule:evenodd;stroke:#1b1a1c;stroke-width:0.55203271px;stroke-linecap:butt;stroke-linejoin:miter;stroke-opacity:1" />
  <path
     inkscape:connector-curvature="0"
     d="m 119.17868,43.16476 c -1.04826,-1.79544 -0.75154,-3.96817 -0.84653,-5.76359 0.84972,-0.31217 2.68056,-0.61747 3.68122,0.54454 -1.59281,1.40951 -2.34269,3.62608 -2.83469,5.21905 z"
     id="path3289"
     style="fill:#ffc800;fill-opacity:1;fill-rule:evenodd;stroke:#1b1a1c;stroke-width:0.55203271px;stroke-linecap:butt;stroke-linejoin:miter;stroke-opacity:1" />
  <path
     inkscape:connector-curvature="0"
     d="m 125.84485,44.18175 c -0.20402,-1.85957 -0.89234,-3.91281 -0.18019,-5.40598 1.04409,-0.3828 3.14803,-0.64938 3.89744,0.93477 -1.42929,1.261 -2.69006,2.40617 -3.71725,4.47121 z"
     id="path3291"
     style="fill:#ffc800;fill-opacity:1;fill-rule:evenodd;stroke:#1b1a1c;stroke-width:0.55203271px;stroke-linecap:butt;stroke-linejoin:miter;stroke-opacity:1" />
  <path
     inkscape:connector-curvature="0"
     d="m 132.50493,45.20491 c -0.0246,-1.59856 -0.68851,-3.15897 0.39368,-4.26455 1.18106,-0.42274 1.98477,0.74344 3.16582,1.48611 -1.71846,0.22418 -2.57599,1.2038 -3.5595,2.77844 z"
     id="path3293"
     style="fill:#ffc800;fill-opacity:1;fill-rule:evenodd;stroke:#1b1a1c;stroke-width:0.55203271px;stroke-linecap:butt;stroke-linejoin:miter;stroke-opacity:1" />
  <path
     inkscape:connector-curvature="0"
     d="m 138.91542,47.03839 c -1.2389,-1.58497 -0.81622,-2.50542 -1.16133,-3.73292 1.19753,-0.13741 2.40939,-0.43215 3.41198,1.57447 -0.75023,0.34024 -1.50044,1.01387 -2.25065,2.15845 z"
     id="path3295"
     style="fill:#ffc800;fill-opacity:1;fill-rule:evenodd;stroke:#1b1a1c;stroke-width:0.55203271px;stroke-linecap:butt;stroke-linejoin:miter;stroke-opacity:1" />
  <path
     inkscape:connector-curvature="0"
     d="m 138.89573,57.71848 c 0.5818,-1.89948 1.16362,-2.22241 1.74543,-2.94569 0.24557,1.15342 0.646,2.90275 1.27624,3.28696 -0.76239,0.22488 -1.88831,0.17564 -3.02167,-0.34127 z"
     id="path3297"
     style="fill:#ffc800;fill-opacity:1;fill-rule:evenodd;stroke:#1b1a1c;stroke-width:0.55203271px;stroke-linecap:butt;stroke-linejoin:miter;stroke-opacity:1" />
  <path
     inkscape:connector-curvature="0"
     d="m 132.25879,56.76059 c 0.4507,-1.03106 0.45626,-2.06212 2.02759,-3.0932 0.1625,1.28283 0.06,2.69819 0.97436,3.60511 -1.10924,0.15506 -2.27884,0.49118 -3.00195,-0.51191 z"
     id="path3299"
     style="fill:#ffc800;fill-opacity:1;fill-rule:evenodd;stroke:#1b1a1c;stroke-width:0.55203271px;stroke-linecap:butt;stroke-linejoin:miter;stroke-opacity:1" />
  <path
     inkscape:connector-curvature="0"
     d="m 125.73335,56.70484 c 0.76533,-2.18178 1.74366,-2.87271 2.70346,-3.6935 0.15644,1.31319 0.0182,2.62642 0.92202,3.93961 -1.14566,0.075 -2.11123,0.60018 -3.62548,-0.24611 z"
     id="path3301"
     style="fill:#ffc800;fill-opacity:1;fill-rule:evenodd;stroke:#1b1a1c;stroke-width:0.55203271px;stroke-linecap:butt;stroke-linejoin:miter;stroke-opacity:1" />
  <path
     inkscape:connector-curvature="0"
     d="m 118.46337,56.95095 c 0.55927,-1.7352 1.76633,-3.58173 3.39565,-4.27745 -0.31271,1.36347 -0.11734,3.03554 0.77105,3.99871 -1.90233,0.7774 -2.80121,0.21705 -4.1667,0.27874 z"
     id="path3303"
     style="fill:#ffc800;fill-opacity:1;fill-rule:evenodd;stroke:#1b1a1c;stroke-width:0.55203271px;stroke-linecap:butt;stroke-linejoin:miter;stroke-opacity:1" />
  <path
     inkscape:connector-curvature="0"
     d="m 48.115558,25.48208 c 2.251431,-2.10856 4.812877,-3.51974 8.945012,-1.39742 1.590162,0.83942 3.598293,2.04895 1.39765,3.3538 -2.502639,1.28783 -3.579766,0.79406 -4.192971,-0.27948 0.240186,-2.84863 -4.092962,-1.12475 -6.149691,-1.6769 z"
     id="path3280-9"
     style="fill:#ffc800;fill-opacity:1;fill-rule:evenodd;stroke:#1b1a1c;stroke-width:1.10406542;stroke-linecap:butt;stroke-linejoin:miter;stroke-miterlimit:4;stroke-dasharray:none;stroke-opacity:1"
     sodipodi:nodetypes="ccccc" />
  <path
     inkscape:connector-curvature="0"
     d="m 78.304965,39.45625 c 3.816517,-2.60993 6.40325,-6.54962 6.453616,-10.74981 0.887047,2.43272 2.527445,3.61521 -0.862994,11.58825 -0.655181,2.76301 -6.532145,3.22601 -5.590622,-0.83844 z"
     id="path3280-9-5"
     style="fill:#ffc800;fill-opacity:1;fill-rule:evenodd;stroke:#1b1a1c;stroke-width:1.10406542;stroke-linecap:butt;stroke-linejoin:miter;stroke-miterlimit:4;stroke-dasharray:none;stroke-opacity:1"
     sodipodi:nodetypes="cccc" />
  <path
     inkscape:connector-curvature="0"
     d="M 108.28158,101.27293 C 89.005062,100.03084 77.582881,90.82968 66.262075,81.52571 64.516192,76.65805 58.097911,71.5071 67.785976,68.05 c 1.492475,-0.9651 4.067061,-2.3635 1.059557,-7.09849 2.344447,-8.95598 -1.144766,-12.22633 -6.62276,-13.55837 2.841708,3.22522 1.603515,8.44367 0.727721,9.32657 -5.897802,-3.66405 -4.198337,5.6569 -7.664461,8.60994 -4.358085,-4.28464 -0.414744,-7.57511 -6.863507,-9.11296 0.259929,-5.44735 -5.193008,-6.93621 -9.606613,-3.41693 -0.547616,0.43667 -0.862191,-0.63764 -1.600772,-0.74495 -4.017891,-0.58377 -9.520861,3.66137 -10.039593,11.54121 1.345125,0.71996 2.35556,-4.99321 6.830332,-4.09013 0.51221,3.0525 0.823018,6.41144 3.750619,5.78826 0.678981,3.06151 3.000431,3.32055 5.442607,3.37365 l -0.998912,4.2532 -5.305183,1.90917 c -5.175516,-5.50399 -7.7389,0.1299 -8.673229,5.17504 -5.628841,4.16193 -3.149913,9.37449 -1.238646,14.02921 0.933607,-2.39451 -1.655226,-4.26175 3.353387,-7.26627 1.93541,6.45427 4.486547,3.65114 6.922533,2.57912 3.378083,1.69788 5.12495,-1.12807 7.663166,-1.7594 6.705395,2.83681 5.523074,7.00424 0.430788,10.36409 3.349779,2.88139 5.499665,0.43946 8.128415,0.12195 3.094031,2.55265 -1.953525,3.27881 -4.109199,4.65376 2.101892,2.15152 4.87334,5.15474 10.65568,1.93231 -1.549722,4.76234 -0.466536,10.20648 3.10026,13.12456 0.8491,-2.66067 1.343467,-6.3051 2.896988,-7.01216 0.333924,4.85019 -1.109912,9.99845 3.886816,14.06681 0.51007,1.41299 1.973509,1.82556 3.88116,1.77185 1.667203,4.92668 9.191436,8.31714 8.608847,15.16236 2.563443,-1.45257 3.957125,-4.1583 4.158177,-8.14172 3.833999,1.99843 9.569851,0.2344 8.69696,11.54455 4.859136,-1.28244 3.744901,-5.37207 5.475616,-8.12469 2.83204,2.51611 4.95369,1.14799 7.33599,1.20503 27.44696,7.4968 119.0037,-55.08476 0.21286,-36.98364 z"
     id="path3264-2"
     style="fill:#1b1a1c;fill-opacity:1;fill-rule:evenodd;stroke:#1b1a1c;stroke-width:1.65609837;stroke-linecap:butt;stroke-linejoin:miter;stroke-miterlimit:4;stroke-dasharray:none;stroke-opacity:1"
     sodipodi:nodetypes="ccccccccccccccccccccccccccccccccccc" />
  <path
     inkscape:connector-curvature="0"
     d="m 26.172156,88.54442 c -0.859228,-3.06052 -0.156805,-5.93652 4.03289,-8.40045 3.056485,0.26489 2.907085,4.20645 1.397349,4.50712 -2.244579,0.0927 -3.722948,2.31049 -5.430239,3.89333 z"
     id="path3278-1"
     style="fill:#ffc800;fill-opacity:1;fill-rule:evenodd;stroke:#1b1a1c;stroke-width:0.55203271px;stroke-linecap:butt;stroke-linejoin:miter;stroke-opacity:1" />
  <path
     inkscape:connector-curvature="0"
     d="m 29.379879,58.98327 c 1.402765,-2.74702 3.333734,-4.94311 7.940877,-4.34771 5.757072,-0.40839 8.504538,-4.4117 8.54353,2.26813 l 0.01005,1.03405 c 6.329565,-2.90374 3.868672,6.71426 8.046251,8.26852 2.155622,0.54825 3.568594,-1.04434 4.011671,-3.27186 0.390741,-1.96427 1.422538,-0.62137 1.406984,-0.66989 -0.281258,-0.87746 -0.675154,-1.58756 -0.522569,-2.07497 0.238297,-0.7611 0.482009,-1.48594 0.764724,-2.09912 1.109077,-2.47133 3.403652,-0.44312 3.35422,1.46865 -0.01286,0.49667 -0.502113,1.78552 -0.415828,2.33336 2.705016,-3.7494 3.802078,-8.33273 2.424743,-12.30104 1.659678,1.98776 3.60395,2.54392 3.118948,11.19406 0.709063,2.35564 0.249991,3.59871 -0.569741,4.49823 -0.40117,1.83833 -4.107852,3.56255 -6.884686,5.3189 -0.395805,7.27042 3.413428,8.52351 4.927423,13.21201 10.312401,13.18925 30.305451,18.9322 41.165504,19.62811 -0.74816,2.24735 -4.43378,9.65269 -5.79192,10.83414 2.25808,1.52975 14.87241,-5.76189 16.35451,-8.36121 -0.0826,-0.0317 -8.6901,7.01048 -11.01475,10.38671 3.3549,0.7527 7.63891,0.13142 11.4069,0.19578 -0.4835,0.60975 -0.5505,5.25496 -0.5505,5.25496 2.75532,-1.08718 5.06144,-1.27611 8.98301,-4.6954 l 2.01999,5.04637 c 1.30137,-1.13952 2.26403,-5.09669 3.98113,-8.70882 l 2.13473,5.84963 c 1.69077,-2.97953 3.35941,-6.3429 4.05391,-9.42259 l 0.53618,3.07201 c 2.84038,-0.65038 4.44894,-2.53241 6.06561,-4.40629 0,0 2.96363,3.68099 3.61205,7.0177 3.05688,-0.79771 3.80481,-5.05825 5.01199,-8.63004 1.84939,3.54365 4.83097,5.64985 5.6995,8.82328 1.99824,-1.59719 2.60038,-2.30279 3.1658,-15.17728 0,0 5.40929,4.53475 3.4398,9.84639 -2.22636,6.00445 -15.29054,12.86364 -15.53287,13.04453 -1.49921,1.11921 -3.06257,1.99694 -5.01742,3.00055 -1.95486,1.00363 -4.30121,2.13314 -7.36638,3.75589 -3.09614,1.63916 -10.83986,4.53752 -13.02609,5.23522 -8.74498,2.79086 -17.39095,-0.0528 -17.41335,0.0131 -2.02725,2.35032 -5.58269,-0.62416 -8.427268,-1.12167 1.088318,4.29501 -0.952352,4.76296 -2.238048,6.15435 -0.731036,-6.31586 -5.935899,-8.22273 -4.015529,-16.08099 -0.771256,3.99363 -2.69066,5.23458 -1.656815,9.81562 -5.681317,-4.21153 -1.829766,-7.0603 -3.287608,-9.51883 -0.03244,0.53107 -1.840908,1.72372 -1.065996,8.84738 -6.610552,-3.84852 -2.702848,-9.96348 -3.722646,-13.06314 -1.587782,3.07167 -4.507637,4.93587 -0.44576,13.1287 -12.350603,-7.44928 -4.065725,-11.04248 -5.825874,-16.51282 -1.008706,2.957 -3.944256,5.00847 -2.686692,9.0305 -5.700857,-5.26816 -1.284358,-8.45376 -1.208754,-12.3955 -1.717732,0.18058 -3.326069,3.11512 -3.534717,7.48097 -4.053266,-5.84358 0.336859,-9.15056 -0.679214,-13.50972 -2.921018,0.41445 -5.491928,1.79996 -6.919457,6.35631 -3.534657,-5.57292 1.717649,-8.89535 -0.06279,-12.01559 -0.726113,-1.27247 0.063,-2.32835 0.09253,-1.82236 0.227025,3.8857 -7.357693,6.38303 -9.146205,2.4297 3.099929,-1.55577 4.866528,-4.70469 4.375638,-13.18795 -1.642499,4.72031 -3.080588,10.36344 -9.450522,8.22399 3.507508,-2.52363 5.781113,-7.81515 -1.130318,-12.02191 -3.888192,-1.52698 -5.183985,1.63921 -6.640441,2.01858 -1.324076,0.0319 -1.712747,-0.17319 -1.329733,-1.39493 0.358652,-1.22213 0.625503,-2.63823 0.556398,-4.28036 -0.340596,-1.60414 -0.706088,-1.64034 -1.155556,-0.0682 -0.479878,2.15149 0.04632,4.98042 -2.134131,6.31412 -0.73395,0.36067 -3.570735,1.95212 -2.850891,-2.27242 1.758883,-3.96224 3.0895,-7.6441 -3.005667,-6.46429 0.941904,-5.1409 2.146942,-7.77024 6.259788,-2.81847 4.159736,-2.14043 8.68634,-0.59152 12.670492,2.35437 -1.375305,-5.47641 -7.589791,-4.17328 -3.63167,-10.89593 l -0.254685,-1.23182 c -1.341978,-0.85211 -7.467547,1.20377 -5.33655,-3.56166 1.669946,-1.28934 2.658057,-2.99899 4.858651,-3.83094 -2.620471,-1.65507 -3.696253,1.2189 -6.397291,3.26128 -1.796822,0.28912 -2.253854,-0.0853 -2.759654,-1.43829 3.437238,-1.26945 3.821178,-2.62885 4.505967,-4.00873 -1.917475,2.06013 -3.098259,1.96085 -4.03928,1.15888 -0.74031,-2.76126 -4.231893,0.32976 -6.354019,0.50775 z"
     id="path3280-7"
     style="fill:#d8201f;fill-opacity:1;fill-rule:evenodd;stroke:#1b1a1c;stroke-width:1.10406542;stroke-linecap:butt;stroke-linejoin:miter;stroke-miterlimit:4;stroke-dasharray:none;stroke-opacity:1"
     sodipodi:nodetypes="cccccccccccccccccccccccccccccccccssssscccccccccccccccccccccccccccccccccccccccc" />
  <path
     inkscape:connector-curvature="0"
     d="m 29.379879,58.98327 c 1.402765,-2.74702 3.333734,-4.94311 7.940877,-4.34771 1.780656,0.25045 4.080052,0.70735 2.452433,2.68108 -1.917475,2.06014 -3.09825,1.96087 -4.03927,1.15888 -0.74032,-2.76126 -4.231903,0.32976 -6.35404,0.50775 z"
     id="path3280-9-1"
     style="fill:#ffc800;fill-opacity:1;fill-rule:evenodd;stroke:#1b1a1c;stroke-width:1.10406542;stroke-linecap:butt;stroke-linejoin:miter;stroke-miterlimit:4;stroke-dasharray:none;stroke-opacity:1"
     sodipodi:nodetypes="ccccc" />
  <path
     inkscape:connector-curvature="0"
     d="m 62.520188,61.89243 c 2.705026,-3.7494 3.802078,-8.33273 2.424753,-12.30104 1.659668,1.98776 3.603941,2.54392 3.118938,11.19406 0.320863,2.82143 -5.050732,5.24979 -5.543691,1.10698 z"
     id="path3280-9-5-3"
     style="fill:#ffc800;fill-opacity:1;fill-rule:evenodd;stroke:#1b1a1c;stroke-width:1.10406542;stroke-linecap:butt;stroke-linejoin:miter;stroke-miterlimit:4;stroke-dasharray:none;stroke-opacity:1"
     sodipodi:nodetypes="cccc" />
  <path
     inkscape:connector-curvature="0"
     d="m 119.64943,22.82187 c 7.25268,4.7099 16.20258,3.34211 24.08505,4.90374 l 5.13627,-3.3013 14.61707,1.54445 c 5.89658,-2.43371 8.27837,-6.0388 10.76819,-9.60793 3.7389,7.14596 -0.20386,11.7355 -3.22466,17.75503 13.39812,-3.65028 4.44214,17.29692 19.66329,7.97459 -2.40848,1.64932 0.62399,4.59136 -8.80502,5.44306 4.63818,8.23082 8.50633,5.97836 11.74001,5.50218 -0.37582,1.70045 -1.04242,4.88291 -10.2725,4.03494 2.43529,2.36942 5.38389,4.17904 9.7874,4.40174 -2.71104,1.4557 -2.88686,4.43226 -10.52117,2.93451 3.30273,1.90569 6.59282,3.27127 7.42622,10.01761 -3.06624,-1.22514 -5.60532,-3.85587 -9.20149,-3.66811 2.55058,1.63578 8.07863,2.19436 5.2712,11.20673 -2.77092,-3.30291 -5.3833,-6.94549 -9.36595,-7.65229 -0.44796,8.44559 5.47427,11.71101 3.66043,20.46118 -2.61732,-3.85191 -5.25962,-7.37926 -8.05461,-8.92174 2.10186,3.94119 3.76577,7.87868 2.34722,13.93174 -4.56639,-2.15895 -3.21598,-2.50161 -4.75088,-3.70344 1.22883,4.0064 5.65231,5.275 2.39533,13.12569 -2.40386,-4.98697 -7.92031,-5.65721 -8.7861,-9.90495 -0.23666,-1.16121 0.54883,-2.11762 1.16582,-3.97481 -6.09406,0.0753 -1.60866,16.20019 -5.56272,19.05315 -0.8927,-3.85548 -5.79506,-3.21471 -5.4737,-13.254 l -0.50933,0.11793 c -1.06435,4.36976 -0.69535,10.79341 -4.37309,13.53009 0.14327,-5.14746 -5.06283,-3.68603 -1.79616,-13.89984 -2.83744,3.61028 -2.56363,8.4353 -7.75682,10.417 0.34941,-4.39496 1.55866,-8.62749 1.9115,-13.72642 -0.8581,1.94997 -4.73025,17.27995 -6.76888,19.73165 0,-0.34759 -2.2304,-6.97268 -2.2304,-6.97268 -0.73693,2.79273 -3.95243,9.8161 -3.95243,9.8161 l -2.17686,-6.47525 c -0.31776,3.20488 -7.89537,6.84055 -7.89537,6.84055 l 0.73893,-5.87507 c 0,0 -7.38527,1.18246 -10.86012,0.82565 2.0999,-2.78876 4.75535,-5.57753 5.40511,-8.3663 -3.28746,2.06693 -6.57492,7.04065 -9.86238,5.29569 6.60922,-7.12137 1.30746,-11.56273 12.28395,-16.79671 -4.38142,-0.76059 -5.20344,2.83212 -10.42301,1.52727 6.10421,-2.43098 3.56084,-11.13108 13.02607,-12.45294 0.31651,-0.0442 0.002,-1.49514 0.14507,-1.40237 -3.45797,-1.4601 -5.16383,1.08292 -9.33222,0.82703 4.42859,-3.2107 3.03715,-9.23705 19.0579,-6.83962 1.24759,-0.23513 -0.18788,-2.99065 2.712,-3.04203 14.30467,-0.25344 26.08476,-6.99115 27.11808,-15.34877 -3.04181,2.89538 -4.76951,7.29227 -10.42893,7.1966 -3.24517,-3.3321 -9.85944,-0.26437 -12.65976,-4.33968 -0.40279,-0.58621 -1.29235,0.0434 -1.68981,0.22791 -1.77689,0.82542 -5.08994,1.06327 -8.31019,0.13682 -1.04393,2.81275 -2.62487,2.85535 -3.66879,4.17165 0.26431,-1.96231 -0.65509,-3.36216 -1.64173,-4.3808 -1.77348,-1.83105 -2.1064,-3.53579 0.18409,-3.8061 4.23413,-0.056 11.26801,-0.45134 16.56438,0.57263 6.405,1.2383 10.88402,2.39066 13.32274,-0.0956 3.22481,-3.00922 1.03486,-7.40044 -0.52032,-8.6029 -3.94448,-3.55041 -7.73553,-7.64146 -11.83348,-9.31389 -7.99092,-3.13512 -13.57963,-4.61916 -18.68707,-4.31523 -4.45447,-0.40006 -6.29157,-6.78397 -3.59207,-7.01957 2.12042,0.22646 3.47688,1.18825 2.7939,-0.53103 -2.04712,-4.61112 -2.90917,-8.0126 1.66069,-5.9334 z"
     id="path2405-4"
     style="fill:#d8201f;fill-opacity:1;fill-rule:evenodd;stroke:#1b1a1c;stroke-width:1.10406542;stroke-linecap:butt;stroke-linejoin:miter;stroke-miterlimit:4;stroke-dasharray:none;stroke-opacity:1"
     sodipodi:nodetypes="cccccccccccccccccccccccccccccccscccccccccccccsccccccccscccccccc" />
  <path
     inkscape:connector-curvature="0"
     d="m 120.50395,43.82976 1.95811,-5.27439 2.3105,0.17111 c -0.12675,1.93872 -0.45889,3.69372 0.18127,5.44551 -1.40538,-0.32254 -2.4063,-0.52829 -4.44988,-0.34223 z"
     id="path3266-7"
     style="fill:#ffffff;fill-rule:evenodd;stroke:#1b1a1c;stroke-width:0.55203271px;stroke-linecap:butt;stroke-linejoin:miter;stroke-opacity:1" />
  <path
     inkscape:connector-curvature="0"
     d="m 127.05275,44.81367 c 0.6031,-3.00676 1.75724,-3.13069 2.76869,-4.50433 l 2.05378,0.8556 c -0.81134,1.59646 -0.58484,2.92367 -0.28703,4.67544 -0.54962,-0.23698 -2.32071,-0.52827 -4.53544,-1.02671 z"
     id="path3268-5"
     style="fill:#ffffff;fill-rule:evenodd;stroke:#1b1a1c;stroke-width:0.55203271px;stroke-linecap:butt;stroke-linejoin:miter;stroke-opacity:1" />
  <path
     inkscape:connector-curvature="0"
     d="m 133.35257,46.54744 c 0.77424,-2.49342 2.4317,-3.28161 2.92972,-3.71409 l 0.94131,0.0856 c -0.81135,1.59645 0.45213,3.75907 0.83555,5.33974 -0.54961,-0.23699 -2.91973,-0.87052 -4.70658,-1.71118 z"
     id="path3270-4"
     style="fill:#ffffff;fill-rule:evenodd;stroke:#1b1a1c;stroke-width:0.55203271px;stroke-linecap:butt;stroke-linejoin:miter;stroke-opacity:1" />
  <path
     inkscape:connector-curvature="0"
     d="m 139.57688,48.76189 c 0.43374,-1.09294 1.04591,-3.11142 2.13934,-3.1051 1.26808,0.48778 2.94198,2.34868 5.47674,4.64517 -3.25643,0.78791 -5.39008,-0.88564 -7.61608,-1.54007 z"
     id="path3272-9"
     style="fill:#ffffff;fill-rule:evenodd;stroke:#1b1a1c;stroke-width:0.55203271px;stroke-linecap:butt;stroke-linejoin:miter;stroke-opacity:1" />
  <path
     inkscape:connector-curvature="0"
     d="m 143.23403,33.12738 c 7.08286,1.19056 8.23586,-6.69971 12.64086,-3.63355 3.98633,5.71984 0.27239,6.25558 0.29989,9.33625 1.62363,0.70702 3.14297,1.55313 5.53662,1.23363 -1.73808,1.42469 -4.25206,1.4104 -6.47054,1.63427 -5.35436,3.8605 -10.88886,-2.39186 -10.40576,-5.53567 -0.63199,-0.93793 -1.92174,-1.38263 -1.60107,-3.03493 z"
     id="path2439-1"
     style="fill:#1b1a1c;fill-opacity:1;fill-rule:evenodd;stroke:#1b1a1c;stroke-width:0.55203271px;stroke-linecap:butt;stroke-linejoin:miter;stroke-opacity:1" />
  <path
     inkscape:connector-curvature="0"
     d="m 152.43124,30.73028 c 1.11713,0.99513 2.33987,2.31456 3.0435,4.45756 0.58859,-0.72674 1.31219,-2.47273 0.62327,-3.62521 -1.09944,-1.33213 -2.93579,-1.21169 -3.66677,-0.83235 z"
     id="path2424-7"
     style="fill:#d8201f;fill-opacity:1;fill-rule:evenodd;stroke:#1b1a1c;stroke-width:0.55203271px;stroke-linecap:butt;stroke-linejoin:miter;stroke-opacity:1" />
  <path
     inkscape:connector-curvature="0"
     d="m 153.75047,35.5019 c -0.26783,0.36379 -1.47779,1.93657 -1.67502,1.53354 -0.41105,-0.83992 -2.02029,-1.49652 -3.04291,-0.44642 -1.39871,1.54356 0.83522,3.1409 2.1852,3.78237 0.31422,0.6226 0.13891,1.36758 0.035,2.09469 -3.03891,-0.53707 -7.8866,-6.18149 -5.30945,-7.75108 2.88124,-0.13963 3.14386,-3.16699 5.73707,-2.62928 2.04216,0.97173 1.9579,2.01567 2.07013,3.41618 z"
     id="path2426-3"
     style="fill:#ffffff;fill-rule:evenodd;stroke:#1b1a1c;stroke-width:0.55203271px;stroke-linecap:butt;stroke-linejoin:miter;stroke-opacity:1" />
  <path
     inkscape:connector-curvature="0"
     d="m 169.70372,40.63697 c 8.57399,1.93101 3.91312,4.75669 0.35734,4.25292"
     id="path2428-7"
     style="fill:none;fill-rule:evenodd;stroke:#1b1a1c;stroke-width:1.65609837;stroke-linecap:square;stroke-linejoin:miter;stroke-miterlimit:4;stroke-dasharray:none;stroke-opacity:1" />
  <path
     inkscape:connector-curvature="0"
     d="m 170.67003,44.82793 c 7.16236,2.3087 8.1541,6.00051 -0.37549,5.59677"
     id="path2430-5"
     style="fill:none;fill-rule:evenodd;stroke:#1b1a1c;stroke-width:1.65609837;stroke-linecap:butt;stroke-linejoin:round;stroke-miterlimit:4;stroke-dasharray:none;stroke-opacity:1" />
  <path
     inkscape:connector-curvature="0"
     d="m 171.29183,50.38995 c 4.66948,2.10426 3.86305,5.22835 -3.5956,5.64054"
     id="path2432-1"
     style="fill:none;fill-rule:evenodd;stroke:#1b1a1c;stroke-width:1.65609837;stroke-linecap:butt;stroke-linejoin:round;stroke-miterlimit:4;stroke-dasharray:none;stroke-opacity:1" />
  <path
     inkscape:connector-curvature="0"
     d="m 168.77742,56.04863 c 1.40365,1.09048 4.49195,4.97806 -3.54269,3.26334"
     id="path2434-4"
     style="fill:none;fill-rule:evenodd;stroke:#1b1a1c;stroke-width:1.65609837;stroke-linecap:butt;stroke-linejoin:round;stroke-miterlimit:4;stroke-dasharray:none;stroke-opacity:1" />
  <path
     inkscape:connector-curvature="0"
     d="m 163.67756,62.08279 -0.35735,3.80494"
     id="path2438-4"
     style="fill:none;fill-rule:evenodd;stroke:#1b1a1c;stroke-width:1.65609837;stroke-linecap:butt;stroke-linejoin:round;stroke-miterlimit:4;stroke-dasharray:none;stroke-opacity:1" />
  <path
     inkscape:connector-curvature="0"
     d="m 165.91848,59.99561 c 3.82808,2.59276 0.46388,3.3634 -1.55715,3.03521"
     id="path2440-0"
     style="fill:none;fill-rule:evenodd;stroke:#1b1a1c;stroke-width:1.65609837;stroke-linecap:round;stroke-linejoin:round;stroke-miterlimit:4;stroke-dasharray:none;stroke-opacity:1" />
  <path
     inkscape:connector-curvature="0"
     d="m 166.19142,27.70837 c 1.07831,0.32141 2.43546,0.27113 2.61901,1.78538 0.65294,0.39332 1.33282,0.54422 2.14283,-0.4761 1.62869,-2.99549 1.84172,-5.27681 1.24999,-8.09378 -1.58857,4.146 -8.20488,4.51633 -6.01183,6.7845 z"
     id="path3212-7"
     style="fill:#1b1a1c;fill-opacity:1;fill-rule:evenodd;stroke:#1b1a1c;stroke-width:0.55203271px;stroke-linecap:butt;stroke-linejoin:miter;stroke-opacity:1" />
  <path
     inkscape:connector-curvature="0"
     d="m 167.68151,75.78692 c -1.10778,2.9389 4.13498,8.1709 -1.26988,11.87429 9.4e-4,-2.21663 -2.10984,-2.55735 -2.35827,-4.43601"
     id="path3277-9"
     style="fill:none;fill-rule:evenodd;stroke:#1b1a1c;stroke-width:1.26967537;stroke-linecap:butt;stroke-linejoin:miter;stroke-miterlimit:4;stroke-dasharray:none;stroke-opacity:1" />
  <path
     inkscape:connector-curvature="0"
     d="m 165.19818,85.10394 c -0.17091,3.25294 -0.32272,6.35631 -2.10732,6.50822"
     id="path3279-5"
     style="fill:none;fill-rule:evenodd;stroke:#1b1a1c;stroke-width:1.38008189;stroke-linecap:butt;stroke-linejoin:miter;stroke-miterlimit:4;stroke-dasharray:none;stroke-opacity:1" />
  <path
     inkscape:connector-curvature="0"
     d="m 171.2392,70.07423 c 4.67208,4.19378 1.92616,9.02125 0.60939,15.5601 -1.93516,-4.30053 -3.61739,-4.82635 -4.02794,-7.27265"
     id="path3281-0"
     style="fill:none;fill-rule:evenodd;stroke:#1b1a1c;stroke-width:1.26967537;stroke-linecap:butt;stroke-linejoin:miter;stroke-miterlimit:4;stroke-dasharray:none;stroke-opacity:1" />
  <path
     inkscape:connector-curvature="0"
     d="m 174.7046,62.62963 c 0.84181,3.98406 3.99318,5.452 0.84927,12.6173 -1.21976,-1.47441 -1.80957,-3.57874 -3.70588,-4.37671"
     id="path3283-9"
     style="fill:none;fill-rule:evenodd;stroke:#1b1a1c;stroke-width:1.26967537;stroke-linecap:butt;stroke-linejoin:miter;stroke-miterlimit:4;stroke-dasharray:none;stroke-opacity:1" />
  <path
     inkscape:connector-curvature="0"
     d="m 177.42071,54.95093 c -0.0234,3.63359 5.35509,3.78247 0.41715,12.59179 -0.79863,-2.27406 -2.79763,-2.52927 -2.94594,-4.53852"
     id="path3285-1"
     style="fill:none;fill-rule:evenodd;stroke:#1b1a1c;stroke-width:1.26967537;stroke-linecap:butt;stroke-linejoin:miter;stroke-miterlimit:4;stroke-dasharray:none;stroke-opacity:1" />
  <path
     inkscape:connector-curvature="0"
     d="m 104.68431,46.58563 c -6.256877,2.09618 -9.060597,8.45294 0.67926,5.62558 4.94102,-2.41397 9.48308,-4.8517 19.37908,-2.81108 11.14976,1.68365 17.51512,4.65206 25.08454,5.32031 0.11805,-0.87471 0.61999,-1.7494 -0.78737,-2.62414 -11.63286,-2.00421 -16.42073,-5.15986 -27.42695,-6.69152 -5.64283,-0.37334 -11.28572,-0.9749 -16.92856,1.18085 z"
     id="path3287-0"
     style="fill:#d8201f;fill-opacity:1;fill-rule:evenodd;stroke:#1b1a1c;stroke-width:0.55203271px;stroke-linecap:butt;stroke-linejoin:miter;stroke-opacity:1" />
  <path
     inkscape:connector-curvature="0"
     d="m 119.17868,43.16476 c -1.04826,-1.79544 -0.75154,-3.96817 -0.84653,-5.76359 0.84972,-0.31217 2.68056,-0.61747 3.68122,0.54454 -1.59281,1.40951 -2.34269,3.62608 -2.83469,5.21905 z"
     id="path3289-4"
     style="fill:#ffc800;fill-opacity:1;fill-rule:evenodd;stroke:#1b1a1c;stroke-width:0.55203271px;stroke-linecap:butt;stroke-linejoin:miter;stroke-opacity:1" />
  <path
     inkscape:connector-curvature="0"
     d="m 125.84485,44.18175 c -0.20402,-1.85957 -0.89234,-3.91281 -0.18019,-5.40598 1.04409,-0.3828 3.14803,-0.64938 3.89744,0.93477 -1.42929,1.261 -2.69006,2.40617 -3.71725,4.47121 z"
     id="path3291-2"
     style="fill:#ffc800;fill-opacity:1;fill-rule:evenodd;stroke:#1b1a1c;stroke-width:0.55203271px;stroke-linecap:butt;stroke-linejoin:miter;stroke-opacity:1" />
  <path
     inkscape:connector-curvature="0"
     d="m 132.50493,45.20491 c -0.0246,-1.59856 -0.68851,-3.15897 0.39368,-4.26455 1.18106,-0.42274 1.98477,0.74344 3.16582,1.48611 -1.71846,0.22418 -2.57599,1.2038 -3.5595,2.77844 z"
     id="path3293-0"
     style="fill:#ffc800;fill-opacity:1;fill-rule:evenodd;stroke:#1b1a1c;stroke-width:0.55203271px;stroke-linecap:butt;stroke-linejoin:miter;stroke-opacity:1" />
  <path
     inkscape:connector-curvature="0"
     d="m 138.91542,47.03839 c -1.2389,-1.58497 -0.81622,-2.50542 -1.16133,-3.73292 1.19753,-0.13741 2.40939,-0.43215 3.41198,1.57447 -0.75023,0.34024 -1.50044,1.01387 -2.25065,2.15845 z"
     id="path3295-6"
     style="fill:#ffc800;fill-opacity:1;fill-rule:evenodd;stroke:#1b1a1c;stroke-width:0.55203271px;stroke-linecap:butt;stroke-linejoin:miter;stroke-opacity:1" />
  <path
     inkscape:connector-curvature="0"
     d="m 138.89573,57.71848 c 0.5818,-1.89948 1.16362,-2.22241 1.74543,-2.94569 0.24557,1.15342 0.646,2.90275 1.27624,3.28696 -0.76239,0.22488 -1.88831,0.17564 -3.02167,-0.34127 z"
     id="path3297-8"
     style="fill:#ffc800;fill-opacity:1;fill-rule:evenodd;stroke:#1b1a1c;stroke-width:0.55203271px;stroke-linecap:butt;stroke-linejoin:miter;stroke-opacity:1" />
  <path
     inkscape:connector-curvature="0"
     d="m 132.25879,56.76059 c 0.4507,-1.03106 0.45626,-2.06212 2.02759,-3.0932 0.1625,1.28283 0.06,2.69819 0.97436,3.60511 -1.10924,0.15506 -2.27884,0.49118 -3.00195,-0.51191 z"
     id="path3299-1"
     style="fill:#ffc800;fill-opacity:1;fill-rule:evenodd;stroke:#1b1a1c;stroke-width:0.55203271px;stroke-linecap:butt;stroke-linejoin:miter;stroke-opacity:1" />
  <path
     inkscape:connector-curvature="0"
     d="m 125.73335,56.70484 c 0.76533,-2.18178 1.74366,-2.87271 2.70346,-3.6935 0.15644,1.31319 0.0182,2.62642 0.92202,3.93961 -1.14566,0.075 -2.11123,0.60018 -3.62548,-0.24611 z"
     id="path3301-3"
     style="fill:#ffc800;fill-opacity:1;fill-rule:evenodd;stroke:#1b1a1c;stroke-width:0.55203271px;stroke-linecap:butt;stroke-linejoin:miter;stroke-opacity:1" />
  <path
     inkscape:connector-curvature="0"
     d="m 118.46337,56.95095 c 0.55927,-1.7352 1.76633,-3.58173 3.39565,-4.27745 -0.31271,1.36347 -0.11734,3.03554 0.77105,3.99871 -1.90233,0.7774 -2.80121,0.21705 -4.1667,0.27874 z"
     id="path3303-8"
     style="fill:#ffc800;fill-opacity:1;fill-rule:evenodd;stroke:#1b1a1c;stroke-width:0.55203271px;stroke-linecap:butt;stroke-linejoin:miter;stroke-opacity:1" />
  <path
     style="fill:#008fe2;fill-opacity:1;stroke:#000000;stroke-width:2.427;stroke-linecap:butt;stroke-linejoin:miter;stroke-miterlimit:4;stroke-dasharray:none;stroke-opacity:1"
     d="m 242.87298,243.99296 c 0.10056,2.53023 -0.0877,5.07112 -0.56042,7.56157 -1.17966,6.2156 -4.09712,11.99632 -7.39252,17.45252 -9.43092,15.61481 -22.24306,29.28361 -37.25828,40.05497 -16.9602,12.1666 -36.96674,20.68993 -57.95733,22.88855 -13.80413,1.44589 -27.80451,0.16205 -41.398087,-2.57496 C 85.343432,326.76559 72.578247,322.79871 61.048059,316.5008 46.159605,308.36857 33.629093,296.46544 24.08548,282.74019 15.943662,271.03095 9.903245,257.95774 6.3146398,244.279 v 0 c 5.7231062,-6.32609 14.2816402,-10.16285 22.9697232,-10.29725 7.882314,-0.12195 15.474515,2.6275 22.834388,5.36055 7.359884,2.73306 14.923463,5.52971 22.806755,5.50875 8.165817,-0.0217 15.963875,-3.06447 23.481706,-6.14903 7.517828,-3.08454 15.198108,-6.3074 23.352668,-6.72251 8.82012,-0.449 17.42318,2.42433 25.71444,5.36934 8.29128,2.94501 16.7623,6.04358 25.59456,6.07204 6.62956,0.0214 13.12317,-1.69619 19.47047,-3.54809 6.3473,-1.85189 12.70874,-3.86407 19.30959,-4.46088 10.95946,-0.99089 22.26178,2.13525 31.02404,8.58104"
     id="path4259" />
  <path
     style="color:#000000;font-style:normal;font-variant:normal;font-weight:normal;font-stretch:normal;font-size:medium;line-height:normal;font-family:sans-serif;font-variant-ligatures:normal;font-variant-position:normal;font-variant-caps:normal;font-variant-numeric:normal;font-variant-alternates:normal;font-variant-east-asian:normal;font-feature-settings:normal;font-variation-settings:normal;text-indent:0;text-align:start;text-decoration:none;text-decoration-line:none;text-decoration-style:solid;text-decoration-color:#000000;letter-spacing:normal;word-spacing:normal;text-transform:none;writing-mode:lr-tb;direction:ltr;text-orientation:mixed;dominant-baseline:auto;baseline-shift:baseline;text-anchor:start;white-space:normal;shape-padding:0;shape-margin:0;inline-size:0;clip-rule:nonzero;display:inline;overflow:visible;visibility:visible;isolation:auto;mix-blend-mode:normal;color-interpolation:sRGB;color-interpolation-filters:linearRGB;solid-color:#000000;solid-opacity:1;vector-effect:none;fill:#ffffff;fill-opacity:1;fill-rule:nonzero;stroke:#000000;stroke-width:0.75;stroke-linecap:butt;stroke-linejoin:miter;stroke-miterlimit:4;stroke-dasharray:none;stroke-dashoffset:0;stroke-opacity:1;color-rendering:auto;image-rendering:auto;shape-rendering:auto;text-rendering:auto;enable-background:accumulate;stop-color:#000000;stop-opacity:1;opacity:1"
     d="M 121.62891 243.75781 C 112.87269 244.21739 104.93169 247.71685 97.431641 250.89844 C 89.947098 254.07345 82.453323 257.0333 74.917969 257.05469 C 67.64461 257.07534 60.366687 254.35335 53.013672 251.53125 C 45.644791 248.70306 37.758482 245.69228 29.246094 245.82422 C 21.649736 245.94196 14.215299 248.7295 8.3769531 253.5 L 11.541016 257.37305 C 16.501713 253.31967 22.908155 250.92168 29.322266 250.82227 C 36.584368 250.70971 43.880213 253.38117 51.222656 256.19922 C 58.580967 259.02335 66.430597 262.07883 74.933594 262.05469 C 83.742744 262.02968 91.843892 258.70086 99.384766 255.50195 C 106.91012 252.30962 114.32515 249.14708 121.89062 248.75 C 130.07212 248.32058 138.35815 251.11925 146.61328 254.15039 C 154.88464 257.18748 163.6247 260.54494 173.06055 260.57617 C 180.14446 260.59967 186.87415 258.73077 193.26172 256.80469 C 199.64423 254.88014 205.84861 252.87394 212.08203 252.29102 C 221.15661 251.44239 230.54756 253.70363 238.26367 258.51953 L 240.91016 254.27734 C 232.25055 248.87257 221.82143 246.35805 211.61523 247.3125 C 204.64216 247.96459 198.12637 250.11549 191.81836 252.01758 C 185.51541 253.91815 179.25931 255.59667 173.07812 255.57617 C 164.83937 255.5489 156.63983 252.50535 148.33789 249.45703 C 140.01972 246.40275 131.09735 243.26085 121.62891 243.75781 z "
     id="path1563" />
  <path
     style="color:#000000;font-style:normal;font-variant:normal;font-weight:normal;font-stretch:normal;font-size:medium;line-height:normal;font-family:sans-serif;font-variant-ligatures:normal;font-variant-position:normal;font-variant-caps:normal;font-variant-numeric:normal;font-variant-alternates:normal;font-variant-east-asian:normal;font-feature-settings:normal;font-variation-settings:normal;text-indent:0;text-align:start;text-decoration:none;text-decoration-line:none;text-decoration-style:solid;text-decoration-color:#000000;letter-spacing:normal;word-spacing:normal;text-transform:none;writing-mode:lr-tb;direction:ltr;text-orientation:mixed;dominant-baseline:auto;baseline-shift:baseline;text-anchor:start;white-space:normal;shape-padding:0;shape-margin:0;inline-size:0;clip-rule:nonzero;display:inline;overflow:visible;visibility:visible;isolation:auto;mix-blend-mode:normal;color-interpolation:sRGB;color-interpolation-filters:linearRGB;solid-color:#000000;solid-opacity:1;vector-effect:none;fill:#ffffff;fill-opacity:1;fill-rule:nonzero;stroke:#000000;stroke-width:0.75;stroke-linecap:butt;stroke-linejoin:miter;stroke-miterlimit:4;stroke-dasharray:none;stroke-dashoffset:0;stroke-opacity:1;color-rendering:auto;image-rendering:auto;shape-rendering:auto;text-rendering:auto;enable-background:accumulate;stop-color:#000000;stop-opacity:1;opacity:1"
     d="M 121.62891 261.38672 C 112.87271 261.84631 104.93172 265.34572 97.431641 268.52734 C 89.947109 271.70236 82.453331 274.6622 74.917969 274.68359 C 67.644605 274.70424 60.366686 271.98226 53.013672 269.16016 C 45.644802 266.33196 37.758488 263.32117 29.246094 263.45312 C 24.397752 263.52826 19.616418 264.69541 15.273438 266.76562 L 17.423828 271.2793 C 21.137797 269.50892 25.228499 268.51461 29.322266 268.45117 C 36.584361 268.3386 43.880218 271.01008 51.222656 273.82812 C 58.580969 276.65226 66.4306 279.70773 74.933594 279.68359 C 83.742751 279.65859 91.843901 276.32977 99.384766 273.13086 C 106.91014 269.9385 114.32516 266.776 121.89062 266.37891 C 130.07213 265.9495 138.35814 268.74816 146.61328 271.7793 C 154.88463 274.81637 163.62471 278.17386 173.06055 278.20508 C 180.14436 278.22836 186.8741 276.35969 193.26172 274.43359 C 199.64423 272.50905 205.84861 270.5009 212.08203 269.91797 C 218.75031 269.29438 225.5909 270.34778 231.81055 272.86523 L 233.68555 268.23047 C 226.73538 265.41733 219.11505 264.24006 211.61523 264.94141 C 204.64217 265.59351 198.12637 267.74441 191.81836 269.64648 C 185.5161 271.54685 179.25877 273.22504 173.07812 273.20508 C 164.83939 273.17782 156.63982 270.13424 148.33789 267.08594 C 140.01972 264.03166 131.09736 260.88977 121.62891 261.38672 z "
     id="path1567" />
  <path
     style="color:#000000;font-style:normal;font-variant:normal;font-weight:normal;font-stretch:normal;font-size:medium;line-height:normal;font-family:sans-serif;font-variant-ligatures:normal;font-variant-position:normal;font-variant-caps:normal;font-variant-numeric:normal;font-variant-alternates:normal;font-variant-east-asian:normal;font-feature-settings:normal;font-variation-settings:normal;text-indent:0;text-align:start;text-decoration:none;text-decoration-line:none;text-decoration-style:solid;text-decoration-color:#000000;letter-spacing:normal;word-spacing:normal;text-transform:none;writing-mode:lr-tb;direction:ltr;text-orientation:mixed;dominant-baseline:auto;baseline-shift:baseline;text-anchor:start;white-space:normal;shape-padding:0;shape-margin:0;inline-size:0;clip-rule:nonzero;display:inline;overflow:visible;visibility:visible;isolation:auto;mix-blend-mode:normal;color-interpolation:sRGB;color-interpolation-filters:linearRGB;solid-color:#000000;solid-opacity:1;vector-effect:none;fill:#ffffff;fill-opacity:1;fill-rule:nonzero;stroke:#000000;stroke-width:0.75;stroke-linecap:butt;stroke-linejoin:miter;stroke-miterlimit:4;stroke-dasharray:none;stroke-dashoffset:0;stroke-opacity:1;color-rendering:auto;image-rendering:auto;shape-rendering:auto;text-rendering:auto;enable-background:accumulate;stop-color:#000000;stop-opacity:1;opacity:1"
     d="M 121.62891 279.01562 C 112.87271 279.47521 104.93172 282.97464 97.431641 286.15625 C 89.947112 289.33127 82.453333 292.29111 74.917969 292.3125 C 67.644603 292.33314 60.366684 289.61116 53.013672 286.78906 C 45.644796 283.96086 37.75848 280.9501 29.246094 281.08203 C 28.068424 281.10029 26.895038 281.18147 25.730469 281.32617 L 26.345703 286.28906 C 27.334324 286.16622 28.327862 286.0955 29.322266 286.08008 C 36.584369 285.96753 43.880224 288.63898 51.222656 291.45703 C 58.58097 294.28117 66.430602 297.33664 74.933594 297.3125 C 83.742749 297.28749 91.843898 293.95869 99.384766 290.75977 C 106.91015 287.56742 114.32516 284.4049 121.89062 284.00781 C 130.07212 283.57839 138.35813 286.37707 146.61328 289.4082 C 154.88464 292.44531 163.62472 295.80274 173.06055 295.83398 C 180.14446 295.85748 186.87415 293.98859 193.26172 292.0625 C 199.64423 290.13795 205.84862 288.12979 212.08203 287.54688 C 215.46221 287.23077 218.88663 287.34576 222.25195 287.86328 L 223.01172 282.91992 C 219.25143 282.34166 215.41693 282.21479 211.61523 282.57031 C 204.64216 283.2224 198.12637 285.3733 191.81836 287.27539 C 185.51539 289.17596 179.2593 290.85449 173.07812 290.83398 C 164.83938 290.80671 156.63981 287.76318 148.33789 284.71484 C 140.01972 281.66057 131.09737 278.51865 121.62891 279.01562 z "
     id="path1571" />
  <path
     style="color:#000000;font-style:normal;font-variant:normal;font-weight:normal;font-stretch:normal;font-size:medium;line-height:normal;font-family:sans-serif;font-variant-ligatures:normal;font-variant-position:normal;font-variant-caps:normal;font-variant-numeric:normal;font-variant-alternates:normal;font-variant-east-asian:normal;font-feature-settings:normal;font-variation-settings:normal;text-indent:0;text-align:start;text-decoration:none;text-decoration-line:none;text-decoration-style:solid;text-decoration-color:#000000;letter-spacing:normal;word-spacing:normal;text-transform:none;writing-mode:lr-tb;direction:ltr;text-orientation:mixed;dominant-baseline:auto;baseline-shift:baseline;text-anchor:start;white-space:normal;shape-padding:0;shape-margin:0;inline-size:0;clip-rule:nonzero;display:inline;overflow:visible;visibility:visible;isolation:auto;mix-blend-mode:normal;color-interpolation:sRGB;color-interpolation-filters:linearRGB;solid-color:#000000;solid-opacity:1;vector-effect:none;fill:#ffffff;fill-opacity:1;fill-rule:nonzero;stroke:#000000;stroke-width:0.75;stroke-linecap:butt;stroke-linejoin:miter;stroke-miterlimit:4;stroke-dasharray:none;stroke-dashoffset:0;stroke-opacity:1;color-rendering:auto;image-rendering:auto;shape-rendering:auto;text-rendering:auto;enable-background:accumulate;stop-color:#000000;stop-opacity:1;opacity:1"
     d="M 121.62891 296.64453 C 112.8727 297.1041 104.93172 300.60354 97.431641 303.78516 C 89.947111 306.96017 82.453333 309.92001 74.917969 309.94141 C 67.644609 309.96206 60.366689 307.24006 53.013672 304.41797 C 51.284955 303.75448 49.52817 303.08513 47.742188 302.44727 L 46.060547 307.1543 C 47.779186 307.76811 49.500155 308.42483 51.222656 309.08594 C 58.580965 311.91006 66.430596 314.96555 74.933594 314.94141 C 83.742749 314.9164 91.8439 311.58758 99.384766 308.38867 C 106.91015 305.19632 114.32517 302.03379 121.89062 301.63672 C 130.07213 301.2073 138.35814 304.00597 146.61328 307.03711 C 154.88463 310.0742 163.62472 313.43164 173.06055 313.46289 C 180.14436 313.48617 186.87411 311.61749 193.26172 309.69141 C 197.01344 308.56013 200.70429 307.39468 204.375 306.51367 L 203.20898 301.65039 C 199.30709 302.58688 195.52629 303.78623 191.81836 304.9043 C 185.51609 306.80465 179.25876 308.48285 173.07812 308.46289 C 164.83938 308.4356 156.63982 305.39206 148.33789 302.34375 C 140.01971 299.28947 131.09736 296.14757 121.62891 296.64453 z "
     id="path1575" />
  <path
     style="color:#000000;font-style:normal;font-variant:normal;font-weight:normal;font-stretch:normal;font-size:medium;line-height:normal;font-family:sans-serif;font-variant-ligatures:normal;font-variant-position:normal;font-variant-caps:normal;font-variant-numeric:normal;font-variant-alternates:normal;font-variant-east-asian:normal;font-feature-settings:normal;font-variation-settings:normal;text-indent:0;text-align:start;text-decoration:none;text-decoration-line:none;text-decoration-style:solid;text-decoration-color:#000000;letter-spacing:normal;word-spacing:normal;text-transform:none;writing-mode:lr-tb;direction:ltr;text-orientation:mixed;dominant-baseline:auto;baseline-shift:baseline;text-anchor:start;white-space:normal;shape-padding:0;shape-margin:0;inline-size:0;clip-rule:nonzero;display:inline;overflow:visible;visibility:visible;isolation:auto;mix-blend-mode:normal;color-interpolation:sRGB;color-interpolation-filters:linearRGB;solid-color:#000000;solid-opacity:1;vector-effect:none;fill:#ffffff;fill-opacity:1;fill-rule:nonzero;stroke:#000000;stroke-width:0.75;stroke-linecap:butt;stroke-linejoin:miter;stroke-miterlimit:4;stroke-dasharray:none;stroke-dashoffset:0;stroke-opacity:1;color-rendering:auto;image-rendering:auto;shape-rendering:auto;text-rendering:auto;enable-background:accumulate;stop-color:#000000;stop-opacity:1;opacity:1"
     d="M 121.62891 314.27344 C 112.87271 314.73302 104.93172 318.23246 97.431641 321.41406 C 94.44875 322.67943 91.463001 323.9178 88.472656 324.94531 L 90.097656 329.67578 C 93.287932 328.57957 96.37943 327.29052 99.384766 326.01562 C 106.91015 322.82329 114.32516 319.66271 121.89062 319.26562 C 130.07212 318.8362 138.35813 321.63489 146.61328 324.66602 C 151.12956 326.32431 155.78202 328.06481 160.61328 329.32227 L 161.87305 324.48242 C 157.37666 323.31212 152.87087 321.63708 148.33789 319.97266 C 140.01972 316.91839 131.09737 313.77646 121.62891 314.27344 z "
     id="path1579" />
  <path
     inkscape:connector-curvature="0"
     d="M 2.4267695,2.42677 V 215.85304 C 2.8383183,284.3466 63.546829,332.7993 124.99823,332.57243 186.44961,332.34553 247.07391,284.36191 247.5732,215.85304 V 2.42677 Z"
     id="path393-7"
     style="fill:none;fill-opacity:1;stroke:#1b1a1c;stroke-width:4.85353899;stroke-linecap:butt;stroke-linejoin:miter;stroke-miterlimit:4;stroke-dasharray:none;stroke-opacity:1"
     sodipodi:nodetypes="cczccc" />
</svg>
