<svg xmlns="http://www.w3.org/2000/svg" width="199" height="269" style="shape-rendering:geometricPrecision;text-rendering:geometricPrecision;image-rendering:optimizeQuality;fill-rule:evenodd;clip-rule:evenodd"><path style="opacity:1" fill="#2a3d2b" d="M154.5-.5h44v1h-18c-5.865.27-12.365.603-19.5 1a96.64 96.64 0 0 1-6.5-2z"/><path style="opacity:1" fill="#2f1e49" d="M2.5 1.5a3660.845 3660.845 0 0 1 121-1l4 2c-41.843-.015-83.51-.348-125-1z"/><path style="opacity:1" fill="#2e1b38" d="M129.5-.5h1c4.399.691 8.899 1.358 13.5 2 3.27-.632 6.437-1.299 9.5-2h1a96.64 96.64 0 0 0 6.5 2c7.135-.397 13.635-.73 19.5-1l6 2c-19.523-.3-39.19-.3-59 0l-4-2c2.235.295 4.235-.039 6-1z"/><path style="opacity:1" fill="#263528" d="M130.5-.5h23c-3.063.701-6.23 1.368-9.5 2a791.853 791.853 0 0 1-13.5-2z"/><path style="opacity:1" fill="#3e4fa3" d="M2.5 1.5c41.49.652 83.157.985 125 1 19.81-.3 39.477-.3 59 0a40.94 40.94 0 0 1 9 .5c.637 2.243.97 4.576 1 7-.39 57.836-.89 116.67-1.5 176.5a184.355 184.355 0 0 1-4.5 18 5.727 5.727 0 0 0-3-1c-.514-1.939-1.847-2.939-4-3-2.838 1.602-5.838 2.102-9 1.5-1.833-.5-3-1.667-3.5-3.5a171.69 171.69 0 0 0-14 5c-1.417-.578-2.25-1.578-2.5-3 1.779-1.17 2.779-2.836 3-5 1.905-.964 2.905-2.631 3-5-2.442-11.396-7.442-21.396-15-30a31.78 31.78 0 0 0-5-9c-3-4.333-6.667-8-11-11-2.468-1.02-4.135-2.854-5-5.5a37.697 37.697 0 0 0-13-4l-2-2c6.97.543 10.97-2.624 12-9.5a8.43 8.43 0 0 1 4 .5 11.295 11.295 0 0 0-2 4c2.217 3.151 3.551 6.651 4 10.5 9.01.996 14.01-3.004 15-12 4.299 2.781 8.299 2.448 12-1a15.418 15.418 0 0 0 7 1 417.56 417.56 0 0 0 7-15c-1.465-3.298-3.798-5.798-7-7.5 1.995-.924 2.328-2.09 1-3.5h-4v-3c3.763-.587 7.429-.587 11 0a13.115 13.115 0 0 1 1-7c2.05-.577 3.05-1.91 3-4h-3c.675-5.782-1.659-7.449-7-5v-5c-2.582.475-4.582-.192-6-2 .803-.923.97-1.923.5-3-1.845-.55-3.345-1.55-4.5-3 .891-1.09 1.891-1.09 3 0 1.273-.757 1.273-1.423 0-2-.734-1.208-1.067-2.541-1-4v-2c1.725-.343 2.225-1.343 1.5-3-1-2.333-2.667-4-5-5-.163-2.176-.996-4.01-2.5-5.5-1.982.775-3.982.608-6-.5a7.292 7.292 0 0 0-3 2c-1.673-1.586-3.673-2.253-6-2-.709-4.126-2.042-8.126-4-12-1.024 1.353-2.357 2.02-4 2-.213-6.27-3.213-8.27-9-6-.085-2.429-1.085-4.429-3-6a46.643 46.643 0 0 0-6 5.5c-2.31.497-4.643.663-7 .5.215 1.679-.452 2.679-2 3-1.874-3.73-4.374-7.063-7.5-10-1.46 2.71-3.46 3.377-6 2-2.864 1.606-6.03 2.106-9.5 1.5-.752.67-1.086 1.504-1 2.5v1a2.428 2.428 0 0 0-2 .5c1.537 1.11 2.204 2.61 2 4.5-2.214-.21-3.881.624-5 2.5 1.284 2.547 1.284 5.047 0 7.5-1.544-.203-2.878-.87-4-2l-4 4c-.886-.825-1.219-1.825-1-3-2.292.256-4.46-.077-6.5-1a13.963 13.963 0 0 1-5 6c-.384 2.56-1.217 4.894-2.5 7v1c-.876-.13-1.543.203-2 1a46.682 46.682 0 0 0 5 9.5c-2.602 3.262-4.768 3.095-6.5-.5-2.949 3.275-6.115 3.609-9.5 1a9.864 9.864 0 0 0-1 6h-6c-.163 2.357.003 4.69.5 7 1.796 1.267 3.63 1.267 5.5 0 1.36 3.577.026 5.243-4 5v4h8c.17 1.322-.163 2.489-1 3.5 2.019-.153 4.019-.653 6-1.5.73 1.212 1.73 2.212 3 3-2.43.86-3.764 2.527-4 5a4.932 4.932 0 0 0-3 .5c1.14.741 1.14 1.575 0 2.5l-5 2a11.47 11.47 0 0 1 1 2.5c-1.546 1.473-2.546 3.306-3 5.5 1.423 2.775 2.09 5.775 2 9 2.71.315 5.044-.352 7-2 .982.641 1.982 1.307 3 2 .765-1.112 1.765-1.779 3-2 .967 1.306 2.3 1.973 4 2-.15-3.661 1.35-4.661 4.5-3a92.527 92.527 0 0 1 4.5 16 6.845 6.845 0 0 0 4-1c1-1.667 2.333-3 4-4a3.647 3.647 0 0 1 1.5 1 22.583 22.583 0 0 0 4-8 2072.96 2072.96 0 0 0 4-3 3.944 3.944 0 0 1 2 1c.584 2.757.25 5.423-1 8-4.91 7.427-8.41 15.427-10.5 24a5.728 5.728 0 0 1-1 3h-1c-1.235-.221-2.235-.888-3-2l-4-8c-1.575-1.131-3.241-1.298-5-.5-.878 2.658-.544 5.158 1 7.5 0 .667.333 1 1 1-.24 2.398.426 4.398 2 6a128.506 128.506 0 0 1 2 13.5 137.396 137.396 0 0 0-2 29.5c-2.097-.497-3.93-.83-5.5-1-1.117 1.624-2.617 2.624-4.5 3-5.318-.672-10.484-.672-15.5 0-3.192-1.92-6.526-1.92-10 0-2.86-1.792-6.026-2.125-9.5-1v3a5.727 5.727 0 0 0-3-1c-3.841-10.058-5.841-20.392-6-31a18.085 18.085 0 0 0-2-3.5 7125.465 7125.465 0 0 0 1-166.5z"/><path style="opacity:1" fill="#36412c" d="M99.5 30.5c8.285 1.351 8.951 4.018 2 8-1.418-1.808-3.418-2.475-6-2-.262-1.478.071-2.811 1-4 1.239-.442 2.239-1.11 3-2z"/><path style="opacity:1" fill="#3f4b2d" d="M126.5 32.5c.125 3.108-1.208 5.108-4 6l-1.5-3c-.69 1.238-1.19 1.238-1.5 0a70.915 70.915 0 0 0-4-2c1.697-.864 2.863-2.197 3.5-4l3 3a6.802 6.802 0 0 1 1.5-3 7.492 7.492 0 0 1 .5 5c.708-.88 1.542-1.547 2.5-2z"/><path style="opacity:1" fill="#2a3523" d="M75.5 25.5c3.36-.71 5.193.624 5.5 4a14.974 14.974 0 0 0 3.5-3 18.941 18.941 0 0 1 3 5 8.19 8.19 0 0 0-2.5 4c-.718-.95-1.55-1.117-2.5-.5l-4 5c1.496.507 2.663.007 3.5-1.5 1.255 2.353 2.922 3.02 5 2 1.168.508 2.002 1.342 2.5 2.5a237.903 237.903 0 0 1-6-.5l-6-1c.216-2.18-.617-3.847-2.5-5-.492 1.049-.326 2.049.5 3-.825.886-1.825 1.219-3 1-.039-3.31 1.294-5.976 4-8a4.452 4.452 0 0 1 1.5 2c1.44-1.546 3.273-2.379 5.5-2.5-3.32-1.028-5.986-2.861-8-5.5v-1z"/><path style="opacity:1" fill="#262325" d="M126.5 32.5c-.958.453-1.792 1.12-2.5 2a7.492 7.492 0 0 0-.5-5 6.802 6.802 0 0 0-1.5 3l-3-3c-.637 1.803-1.803 3.136-3.5 4a70.915 70.915 0 0 1 4 2c-2.111.88-4.111.88-6 0 .086-5.895-2.58-7.895-8-6 1.15 2.82 2.316 3.154 3.5 1 .684 1.284.517 2.45-.5 3.5 1.248.861 2.581 1.361 4 1.5a56.01 56.01 0 0 0-5 7h-4c1.333 2.333 1.333 4.667 0 7-1.836-2.797-2.502-5.797-2-9-1.75 2.627-3.416 2.627-5 0a111.25 111.25 0 0 0 5-2c6.951-3.982 6.285-6.649-2-8v-1c1.548-.321 2.215-1.321 2-3 2.357.163 4.69-.003 7-.5a46.643 46.643 0 0 1 6-5.5c1.915 1.571 2.915 3.571 3 6 5.787-2.27 8.787-.27 9 6z"/><path style="opacity:1" fill="#3e502a" d="M113.5 35.5h-1c-1.419-.139-2.752-.639-4-1.5 1.017-1.05 1.184-2.216.5-3.5-1.184 2.154-2.35 1.82-3.5-1 5.42-1.895 8.086.105 8 6z"/><path style="opacity:1" fill="#292726" d="M75.5 26.5c2.014 2.639 4.68 4.472 8 5.5-2.227.121-4.06.954-5.5 2.5a4.452 4.452 0 0 0-1.5-2c-2.706 2.024-4.039 4.69-4 8 1.175.219 2.175-.114 3-1-.826-.951-.992-1.951-.5-3 1.883 1.153 2.716 2.82 2.5 5l6 1c.566 1.578 1.566 2.912 3 4 .824-2.248 1.824-2.414 3-.5-3.532 3.137-7.198 3.303-11 .5 1.126-1.358 1.126-2.692 0-4-1.85.742-2.516 1.742-2 3-.886-.825-1.219-1.825-1-3a20.677 20.677 0 0 1-5-1c1.284-2.453 1.284-4.953 0-7.5 1.119-1.876 2.786-2.71 5-2.5.204-1.89-.463-3.39-2-4.5a2.428 2.428 0 0 1 2-.5z"/><path style="opacity:1" fill="#1a1618" d="M134.5 42.5c2.327-.253 4.327.414 6 2a7.292 7.292 0 0 1 3-2c2.018 1.108 4.018 1.275 6 .5 1.504 1.49 2.337 3.324 2.5 5.5 2.333 1 4 2.667 5 5 .725 1.657.225 2.657-1.5 3a31.94 31.94 0 0 0-6-1.5c1.272-1.246 1.605-2.413 1-3.5-1.688 1.53-3.021 3.363-4 5.5a10.76 10.76 0 0 0 3 2.5c2.05-.244 4.05-.577 6-1-.067 1.459.266 2.792 1 4a8.435 8.435 0 0 1-4-.5c1.196-.654 1.196-1.154 0-1.5-1.85.742-2.516 1.742-2 3-2.547-1.21-5.047-1.21-7.5 0-.004 1.868.496 3.702 1.5 5.5-.444 1.762-.944 1.595-1.5-.5-.273 1.829-1.107 3.329-2.5 4.5 1.124.25 2.124.75 3 1.5-.762.41-1.762.577-3 .5l1 1a9.465 9.465 0 0 0-2.5 1.5c-2.897-4.037-6.73-5.703-11.5-5a12.409 12.409 0 0 1-2.5-4c-.741 1.14-1.575 1.14-2.5 0-.929-1.189-1.262-2.522-1-4 1.624-.14 2.79.527 3.5 2 1.334-1.378 1.501-2.711.5-4 1.585-.974 2.585-2.474 3-4.5-2.06-2.091-3.727-1.758-5 1 .916.278 1.582.778 2 1.5-1.473.572-3.14.572-5 0l1-2-4-2c-2.684-1.6-3.684-3.766-3-6.5-1.879-.063-3.713.437-5.5 1.5-1.07-.028-1.903-.361-2.5-1 4.011-.13 5.178-1.797 3.5-5-.414.457-.914.79-1.5 1-.929-1.189-1.262-2.522-1-4a56.01 56.01 0 0 1 5-7h1c1.889.88 3.889.88 6 0 .31 1.238.81 1.238 1.5 0l1.5 3c2.792-.892 4.125-2.892 4-6 1.643.02 2.976-.647 4-2 1.958 3.874 3.291 7.874 4 12z"/><path style="opacity:1" fill="#4d662e" d="M122.5 38.5c.304.65.637 1.316 1 2a22.28 22.28 0 0 0-5.5 4c-.594-3.478.906-5.478 4.5-6z"/><path style="opacity:1" fill="#415227" d="M134.5 42.5c-1.254 3.81-2.254 3.81-3 0h3z"/><path style="opacity:1" fill="#343e2b" d="M107.5 42.5c-.262 1.478.071 2.811 1 4a3.646 3.646 0 0 0 1.5-1c1.678 3.203.511 4.87-3.5 5-1.806 2.838-2.806 2.505-3-1 1.333-2.333 1.333-4.667 0-7h4z"/><path style="opacity:1" fill="#43542a" d="M70.5 41.5c1.617.538 3.284.871 5 1-.219 1.175.114 2.175 1 3-.516-1.258.15-2.258 2-3 1.126 1.308 1.126 2.642 0 4h-1c-2.076.507-4.409 1.507-7 3 1.109 1.714.442 2.38-2 2a493.061 493.061 0 0 0-3-4 38.094 38.094 0 0 0 7-2.5 7.291 7.291 0 0 0-3-2c.556-.383.89-.883 1-1.5z"/><path style="opacity:1" fill="#3a4c25" d="M125.5 42.5c1.184 1.91 2.684 2.243 4.5 1-.973 1.474-1.473 2.974-1.5 4.5 2.4.186 4.734.686 7 1.5-1.103.498-2.103.83-3 1 1.333 1.12 1.833 2.453 1.5 4-1.816-1.941-3.816-2.608-6-2a56.435 56.435 0 0 1-2.5-10z"/><path style="opacity:1" fill="#4a5831" d="M67.5 53.5a6.541 6.541 0 0 0-3 3c-1.545-.73-2.378-2.063-2.5-4-1.036 2.067-2.536 3.234-4.5 3.5-1.333-1.333-1.333-2.667 0-4l-2-1 5-2.5a6.807 6.807 0 0 1 1.5 3l3-1c.698 1.19 1.531 2.19 2.5 3z"/><path style="opacity:1" fill="#49512f" d="M121.5 58.5a9.107 9.107 0 0 0-1-5c1.363-1.393 2.196-3.06 2.5-5 .87.608 1.37 1.441 1.5 2.5a56.733 56.733 0 0 0-1.5 6.5c-.383.556-.883.89-1.5 1z"/><path style="opacity:1" fill="#454f2a" d="m117.5 56.5 4 2-1 2c-.206 2.05-1.039 2.383-2.5 1a12.93 12.93 0 0 1-.5-5z"/><path style="opacity:1" fill="#3b492a" d="M125.5 62.5v-2c-.418-.722-1.084-1.222-2-1.5 1.273-2.758 2.94-3.091 5-1-.415 2.026-1.415 3.526-3 4.5z"/><path style="opacity:1" fill="#405130" d="M155.5 56.5v2c-1.95.423-3.95.756-6 1a10.76 10.76 0 0 1-3-2.5c.979-2.137 2.312-3.97 4-5.5.605 1.087.272 2.254-1 3.5a31.94 31.94 0 0 1 6 1.5z"/><path style="opacity:1" fill="#313e28" d="M47.5 53.5v-1c1.624.14 2.79-.527 3.5-2 .135 3.372.968 6.539 2.5 9.5-.114 1.28-.78 2.113-2 2.5a37.34 37.34 0 0 0-4-9z"/><path style="opacity:1" fill="#394b2e" d="M137.5 48.5c1.699-.16 3.366.007 5 .5a6.977 6.977 0 0 0-2.5 3.5c-.352 3.6-.519 6.934-.5 10a25.914 25.914 0 0 0-4-4.5c1.115-1.235 1.115-2.402 0-3.5.59-1.299 1.59-2.132 3-2.5-.837-1.011-1.17-2.178-1-3.5z"/><path style="opacity:1" fill="#1c191b" d="M70.5 41.5c-.11.617-.444 1.117-1 1.5a7.291 7.291 0 0 1 3 2 38.094 38.094 0 0 1-7 2.5 493.061 493.061 0 0 1 3 4c.172.992-.162 1.658-1 2-.969-.81-1.802-1.81-2.5-3l-3 1a6.807 6.807 0 0 0-1.5-3l-5 2.5 2 1c-1.333 1.333-1.333 2.667 0 4 1.964-.266 3.464-1.433 4.5-3.5.122 1.937.955 3.27 2.5 4h3a11.989 11.989 0 0 1-1 6c.97 3.162 2.637 3.995 5 2.5-3.878-.949-3.878-2.115 0-3.5-4.576-6.362-3.576-7.53 3-3.5-1.103 1.68-.77 3.18 1 4.5-2.674 1-3.34 2.666-2 5l-1.5 3a53.154 53.154 0 0 0-6.5-4c-2.756 1.771-5.756 2.771-9 3 .411 2.776-.422 3.443-2.5 2-.945.405-1.612 1.072-2 2a21.457 21.457 0 0 1-6.5-3.5c-1.94-.743-3.774-.576-5.5.5-1.066-1.783-2.566-2.283-4.5-1.5 1.99 1.84 1.99 3.007 0 3.5-2.126-.35-4.46-.35-7 0-.213 1.644.12 3.144 1 4.5 1.925-.135 3.925-.302 6-.5-.197 5.341 1.47 6.174 5 2.5-1.168-1.87-.668-3.37 1.5-4.5.743 1.94.576 3.774-.5 5.5a16.667 16.667 0 0 1 4 4l-2 1c2.968 2.178 2.635 3.344-1 3.5-1.981.847-3.981 1.347-6 1.5.837-1.011 1.17-2.178 1-3.5h-8v-4c4.026.243 5.36-1.423 4-5-1.87 1.267-3.704 1.267-5.5 0a24.939 24.939 0 0 1-.5-7h6a9.864 9.864 0 0 1 1-6c3.385 2.609 6.551 2.275 9.5-1 1.732 3.595 3.898 3.762 6.5.5a46.682 46.682 0 0 1-5-9.5c.457-.797 1.124-1.13 2-1a37.34 37.34 0 0 1 4 9c1.22-.387 1.886-1.22 2-2.5-1.532-2.961-2.365-6.128-2.5-9.5-.71 1.473-1.876 2.14-3.5 2 1.283-2.106 2.116-4.44 2.5-7a13.963 13.963 0 0 0 5-6c2.04.923 4.208 1.256 6.5 1-.219 1.175.114 2.175 1 3l4-4c1.122 1.13 2.456 1.797 4 2z"/><path style="opacity:1" fill="#1b1a16" d="M77.5 46.5a8.434 8.434 0 0 1-.5 4l-1-1c-4.256 1.578-3.756 2.578 1.5 3v3l6 1c-1.356 1.77-3.19 3.103-5.5 4-.507 1.496-.007 2.663 1.5 3.5-1.607 1.049-2.273 2.549-2 4.5 2.442.146 3.11-.687 2-2.5a55.897 55.897 0 0 1 4.5-5.5c.414.457.914.79 1.5 1a79.107 79.107 0 0 0 3 13l2 2c1.972-.805 3.472-2.138 4.5-4l.5 1.5c-.803 3.886-3.47 6.72-8 8.5-1.352-1.017-2.352-2.35-3-4-2.096 1.12-2.43 2.62-1 4.5L82 84.5c-1.669-1.67-2.502-3.67-2.5-6 2.666.434 3.833-.566 3.5-3-3.744 2.712-4.244 2.212-1.5-1.5l-2-1c2.875-.894 3.208-1.728 1-2.5-1.363.698-2.53.698-3.5 0a18.941 18.941 0 0 1-3 5v-4c-1.268.116-2.602.45-4 1a6.807 6.807 0 0 0-1.5-3l-5 2.5c2.482 1.594 2.648 3.428.5 5.5-4.235-1.618-8.402-1.784-12.5-.5 1.054 1.388 1.22 2.888.5 4.5a54.541 54.541 0 0 1-4.5-9c-3.956-.492-7.623.175-11 2-.797-.457-1.13-1.124-1-2 1.99-.493 1.99-1.66 0-3.5 1.934-.783 3.434-.283 4.5 1.5 1.726-1.076 3.56-1.243 5.5-.5a21.457 21.457 0 0 0 6.5 3.5c.388-.928 1.055-1.595 2-2 2.078 1.443 2.911.776 2.5-2 3.244-.229 6.244-1.229 9-3a53.154 53.154 0 0 1 6.5 4l1.5-3c-1.34-2.334-.674-4 2-5-1.77-1.32-2.103-2.82-1-4.5-6.576-4.03-7.576-2.862-3 3.5-3.878 1.385-3.878 2.551 0 3.5-2.363 1.495-4.03.662-5-2.5a11.989 11.989 0 0 0 1-6h-3a6.541 6.541 0 0 1 3-3c.838-.342 1.172-1.008 1-2 2.442.38 3.109-.286 2-2 2.591-1.493 4.924-2.493 7-3z"/><path style="opacity:1" fill="#140e12" d="M99.5 29.5v1c-.761.89-1.761 1.558-3 2-.929 1.189-1.262 2.522-1 4 2.582-.475 4.582.192 6 2a111.25 111.25 0 0 1-5 2c1.584 2.627 3.25 2.627 5 0-.502 3.203.164 6.203 2 9 .194 3.505 1.194 3.838 3 1 .597.639 1.43.972 2.5 1 1.787-1.063 3.621-1.563 5.5-1.5-.684 2.734.316 4.9 3 6.5-.16 1.7.006 3.366.5 5 1.461 1.383 2.294 1.05 2.5-1 1.86.572 3.527.572 5 0v2c1.001 1.289.834 2.622-.5 4-.71-1.473-1.876-2.14-3.5-2-.262 1.478.071 2.811 1 4 .925 1.14 1.759 1.14 2.5 0a12.409 12.409 0 0 0 2.5 4c4.77-.703 8.603.963 11.5 5a9.465 9.465 0 0 1 2.5-1.5l-1-1c1.238.077 2.238-.09 3-.5a6.807 6.807 0 0 0-3-1.5c1.393-1.171 2.227-2.671 2.5-4.5.556 2.095 1.056 2.262 1.5.5-1.004-1.798-1.504-3.632-1.5-5.5 2.453-1.21 4.953-1.21 7.5 0-.516-1.258.15-2.258 2-3 1.196.346 1.196.846 0 1.5a8.435 8.435 0 0 0 4 .5c1.273.577 1.273 1.243 0 2-1.109-1.09-2.109-1.09-3 0 1.155 1.45 2.655 2.45 4.5 3 .47 1.077.303 2.077-.5 3-1.886.86-3.72 1.86-5.5 3-.54 1.635-.04 2.968 1.5 4-1.795 2.203-4.129 3.37-7 3.5.862 2.734 1.695 2.901 2.5.5 1 2.667 2 2.667 3 0l1.5 1.5a20.515 20.515 0 0 1-4.5 2.5c-.563 1.225-.23 2.225 1 3a7.292 7.292 0 0 1 2-3c.423 1.456 1.256 1.956 2.5 1.5-.589-3.346.078-3.346 2 0l-4 3c1.124.25 2.124.75 3 1.5a10.756 10.756 0 0 0-2.5 3c-1.018-1.206-1.518-.873-1.5 1 .318 1.147.984 1.98 2 2.5-1.016.52-1.682 1.353-2 2.5a223.548 223.548 0 0 1 3 8c1.175.219 2.175-.114 3-1-.805-1.972-2.139-3.472-4-4.5a14.51 14.51 0 0 0 4.5-4.5c.684 1.284.517 2.451-.5 3.5l1.5 1.5a11.333 11.333 0 0 1 1.5-3.5l-1-1c1.619-.236 2.619-1.069 3-2.5 1.328 1.41.995 2.576-1 3.5 3.202 1.702 5.535 4.202 7 7.5a417.56 417.56 0 0 1-7 15 15.418 15.418 0 0 1-7-1c-3.701 3.448-7.701 3.781-12 1-.99 8.996-5.99 12.996-15 12-.449-3.849-1.783-7.349-4-10.5a11.295 11.295 0 0 1 2-4 8.43 8.43 0 0 0-4-.5c-1.03 6.876-5.03 10.043-12 9.5l2 2a37.697 37.697 0 0 1 13 4c.865 2.646 2.532 4.48 5 5.5.569 2.835 2.236 4.501 5 5v3c-1.667-1.333-3.333-1.333-5 0 .262-1.478-.071-2.811-1-4-1.417 1.761-3.083 3.094-5 4-1.333 0-2-.667-2-2 .221-1.235.888-2.235 2-3-.442-1.239-1.109-2.239-2-3-1.64-1.432-3.474-2.765-5.5-4-.945.405-1.612 1.072-2 2-.5-1.167-1.333-2-2.5-2.5a7.293 7.293 0 0 1 3-2l-1.5-.5c-1.856 1.236-3.689 1.236-5.5 0-.886.825-1.219 1.825-1 3-2.582-.475-4.582.192-6 2h-3v3h6c0 .667-.333 1-1 1-2.121-.175-4.12.159-6 1-.342-.838-1.008-1.172-2-1a11.81 11.81 0 0 0 2-3.5 31.61 31.61 0 0 1-2-7.5c-1.322-.17-2.489.163-3.5 1a77.666 77.666 0 0 0-9.5 14.5c.933 2.848 2.433 3.014 4.5.5.399.228.565.562.5 1-.333 1-1 1.667-2 2-3.152-.541-5.652.459-7.5 3-1.009-1.525-1.509-3.192-1.5-5-.16-1.699.007-3.366.5-5 2.182-1.436 4.016-3.103 5.5-5 .904-.709 1.237-1.709 1-3l1-2c2.24-.8 3.24-2.466 3-5 1.175.219 2.175-.114 3-1-.457-.798-1.124-1.131-2-1a5.577 5.577 0 0 1 1-3c-.825-.886-1.825-1.219-3-1 .587-1.267.587-2.267 0-3a22.493 22.493 0 0 0-4 5c.418.722 1.084 1.222 2 1.5-1.473.71-2.14 1.876-2 3.5h-4v3c-1.884.882-3.217 2.382-4 4.5.544.717 1.21 1.217 2 1.5h2c-.321 1.548-1.321 2.215-3 2 .492 3.79-.341 4.456-2.5 2-.54 3.023-2.04 5.356-4.5 7 2.09-8.573 5.59-16.573 10.5-24 1.25-2.577 1.584-5.243 1-8a3.944 3.944 0 0 0-2-1 2072.96 2072.96 0 0 1-4 3 22.583 22.583 0 0 1-4 8 3.647 3.647 0 0 0-1.5-1c-1.667 1-3 2.333-4 4a6.845 6.845 0 0 1-4 1 92.527 92.527 0 0 0-4.5-16c-3.15-1.661-4.65-.661-4.5 3-1.7-.027-3.033-.694-4-2-.634-1.447-1.8-2.113-3.5-2-1.376.184-2.209.851-2.5 2-1.956 1.648-4.29 2.315-7 2 .09-3.225-.577-6.225-2-9 .454-2.194 1.454-4.027 3-5.5a11.47 11.47 0 0 0-1-2.5l5-2c1.14-.925 1.14-1.759 0-2.5a4.932 4.932 0 0 1 3-.5c.236-2.473 1.57-4.14 4-5-1.27-.788-2.27-1.788-3-3 3.635-.156 3.968-1.322 1-3.5l2-1a16.667 16.667 0 0 0-4-4c1.076-1.726 1.243-3.56.5-5.5-2.168 1.13-2.668 2.63-1.5 4.5-3.53 3.674-5.197 2.841-5-2.5-2.075.198-4.075.365-6 .5-.88-1.356-1.213-2.856-1-4.5 2.54-.35 4.874-.35 7 0-.13.876.203 1.543 1 2 3.377-1.825 7.044-2.492 11-2a54.541 54.541 0 0 0 4.5 9c.72-1.612.554-3.112-.5-4.5 4.098-1.284 8.265-1.118 12.5.5 2.148-2.072 1.982-3.906-.5-5.5l5-2.5a6.807 6.807 0 0 1 1.5 3c1.398-.55 2.732-.884 4-1v4a18.941 18.941 0 0 0 3-5c.97.698 2.137.698 3.5 0 2.208.772 1.875 1.606-1 2.5l2 1c-2.744 3.712-2.244 4.212 1.5 1.5.333 2.434-.834 3.434-3.5 3-.002 2.33.831 4.33 2.5 6l1.5-1.5c-1.43-1.88-1.096-3.38 1-4.5.648 1.65 1.648 2.983 3 4 4.53-1.78 7.197-4.614 8-8.5l-.5-1.5c-1.028 1.862-2.528 3.195-4.5 4l-2-2a79.107 79.107 0 0 1-3-13 3.646 3.646 0 0 1-1.5-1 55.897 55.897 0 0 0-4.5 5.5c1.11 1.813.442 2.646-2 2.5-.273-1.951.393-3.451 2-4.5-1.507-.837-2.007-2.004-1.5-3.5 2.31-.897 4.144-2.23 5.5-4l-6-1v-3c-5.256-.422-5.756-1.422-1.5-3l1 1a8.434 8.434 0 0 0 .5-4h1c3.802 2.803 7.468 2.637 11-.5-1.176-1.914-2.176-1.748-3 .5-1.434-1.088-2.434-2.422-3-4 2.075.198 4.075.365 6 .5-.498-1.158-1.332-1.992-2.5-2.5-2.078 1.02-3.745.353-5-2-.837 1.507-2.004 2.007-3.5 1.5l4-5c.95-.617 1.782-.45 2.5.5a8.19 8.19 0 0 1 2.5-4 18.941 18.941 0 0 0-3-5 14.974 14.974 0 0 1-3.5 3c-.307-3.376-2.14-4.71-5.5-4-.086-.996.248-1.83 1-2.5 3.47.606 6.636.106 9.5-1.5 2.54 1.377 4.54.71 6-2 3.126 2.937 5.626 6.27 7.5 10z"/><path style="opacity:1" fill="#3a4a29" d="M135.5 62.5c3.326.467 3.659 1.634 1 3.5 1.272 1.246 1.605 2.413 1 3.5a3.646 3.646 0 0 1-1.5-1 18.452 18.452 0 0 1-.5-6z"/><path style="opacity:1" fill="#404329" d="M83.5 56.5c.87-1.532.536-3.032-1-4.5 1.324-2.709 2.99-3.042 5-1-.906 1.7-1.24 3.533-1 5.5h-3z"/><path style="opacity:1" fill="#34452b" d="M89.5 23.5c2.456 2.224 1.956 4.224-1.5 6-.393-2.216.107-4.216 1.5-6z"/><path style="opacity:1" fill="#1c1a1b" d="M157.5 70.5c1.418 1.808 3.418 2.475 6 2v5c5.341-2.449 7.675-.782 7 5h3c.05 2.09-.95 3.423-3 4a13.115 13.115 0 0 0-1 7c-3.571-.587-7.237-.587-11 0v3h4c-.381 1.431-1.381 2.264-3 2.5l1 1a11.333 11.333 0 0 0-1.5 3.5l-1.5-1.5c1.017-1.049 1.184-2.216.5-3.5a14.51 14.51 0 0 1-4.5 4.5c1.861 1.028 3.195 2.528 4 4.5-.825.886-1.825 1.219-3 1a223.548 223.548 0 0 0-3-8c.318-1.147.984-1.98 2-2.5-1.016-.52-1.682-1.353-2-2.5-.018-1.873.482-2.206 1.5-1a10.756 10.756 0 0 1 2.5-3 6.807 6.807 0 0 0-3-1.5l4-3c-1.922-3.346-2.589-3.346-2 0-1.244.456-2.077-.044-2.5-1.5a7.292 7.292 0 0 0-2 3c-1.23-.775-1.563-1.775-1-3a20.515 20.515 0 0 0 4.5-2.5l-1.5-1.5c-1 2.667-2 2.667-3 0-.805 2.401-1.638 2.234-2.5-.5 2.871-.13 5.205-1.297 7-3.5-1.54-1.032-2.04-2.365-1.5-4a44.327 44.327 0 0 1 5.5-3z"/><path style="opacity:1" fill="#2e3a21" d="M82.5 86.5c2.61.33 4.276 1.83 5 4.5-1.063 1.188-2.397 1.688-4 1.5-.253 2.327.414 4.327 2 6l-1 1a63.104 63.104 0 0 0-5-5.5 33.682 33.682 0 0 1 3-7.5z"/><path style="opacity:1" fill="#3b4a2c" d="M38.5 102.5c.961 1.765 1.295 3.765 1 6h-4c-.045-2.577.955-4.577 3-6z"/><path style="opacity:1" fill="#1d1e18" d="M141.5 88.5c1.443.835 2.443 2.168 3 4 2.68-2.943 3.347-2.61 2 1-2.491 1.04-2.491 1.874 0 2.5l-1 1c1.242.311 2.242-.189 3-1.5 2.965 2.127 2.631 3.294-1 3.5 3.132.775 3.799 2.442 2 5a66.525 66.525 0 0 0 2.5 5.5c.763-2.563 1.263-2.563 1.5 0-1.167 1.998-2.834 3.498-5 4.5l3 3c-2.987 4.185-6.82 5.352-11.5 3.5a16.2 16.2 0 0 1-1.5-3.5c.83-1.465.996-2.965.5-4.5l-1 2a11.333 11.333 0 0 0-1.5-3.5c.949-.617 1.782-.451 2.5.5a4.934 4.934 0 0 0 .5-3h4a8.43 8.43 0 0 1 .5-4c1.23-1.52 2.397-2.353 3.5-2.5-.576-1.714-1.743-2.881-3.5-3.5l-1 1a436.58 436.58 0 0 1-1.5-11z"/><path style="opacity:1" fill="#251e27" d="M-.5-.5h130c-1.765.961-3.765 1.295-6 1-40.503-.332-80.837.001-121 1 .314 55.653-.02 111.153-1 166.5a18.085 18.085 0 0 1 2 3.5c.159 10.608 2.159 20.942 6 31v2c.37 2.493-.297 3.16-2 2a42.283 42.283 0 0 0-3.5-8 1099.62 1099.62 0 0 0-4.5-20V-.5z"/><path style="opacity:1" fill="#303f20" d="M119.5 100.5a2.428 2.428 0 0 1 2 .5 60.667 60.667 0 0 0-3 5.5c-1.003-2.042-2.337-2.375-4-1-.886-.825-1.219-1.825-1-3 1.322-.17 2.489.163 3.5 1 1.417-.578 2.25-1.578 2.5-3z"/><path style="opacity:1" fill="#202417" d="M121.5 104.5c1.63 1.526 2.463 3.526 2.5 6 2.802-2.529 5.302-2.362 7.5.5l-1.5 1.5c-1.388-1.054-2.888-1.22-4.5-.5l1 1c-3.314.059-6.148 1.225-8.5 3.5-1.713-.637-1.879-1.637-.5-3 4.384-1.761 5.718-4.761 4-9z"/><path style="opacity:1" fill="#b19a3a" d="M84.5 110.5c5.947.512 6.28 2.512 1 6-2.046-1.781-2.38-3.781-1-6z"/><path style="opacity:1" fill="#343d32" d="M46.5 116.5c-1.235.221-2.235.888-3 2a184.223 184.223 0 0 0-3-2c.291-1.149 1.124-1.816 2.5-2 1.7-.113 2.866.553 3.5 2z"/><path style="opacity:1" fill="#30252e" d="M180.5.5h18v176c-.648 7.93-1.815 15.93-3.5 24-.728 2.687-1.895 5.02-3.5 7 0-.667-.333-1-1-1v-2a184.355 184.355 0 0 0 4.5-18c.61-59.83 1.11-118.664 1.5-176.5a26.715 26.715 0 0 0-1-7 40.94 40.94 0 0 0-9-.5l-6-2z"/><path style="opacity:1" fill="#71702a" d="M85.5 122.5c-1.105 1.1-2.438 1.767-4 2a22.493 22.493 0 0 1 4-5c.587.733.587 1.733 0 3z"/><path style="opacity:1" fill="#2e361e" d="M103.5 122.5c2.747-.313 5.414.02 8 1-1.545.952-3.212 1.285-5 1a9.86 9.86 0 0 1-1 6c-1.26-1.853-1.26-3.686 0-5.5-1.256-.417-1.923-1.25-2-2.5z"/><path style="opacity:1" fill="#555329" d="M87.5 126.5c.876-.131 1.543.202 2 1-.825.886-1.825 1.219-3 1a8.43 8.43 0 0 1-4-.5c1.5-.833 2.667-2 3.5-3.5.278.916.778 1.582 1.5 2z"/><path style="opacity:1" fill="#3e4a96" d="M94.5 142.5c-3.47 1.054-6.136 3.054-8 6 .065-.438-.101-.772-.5-1-2.067 2.514-3.567 2.348-4.5-.5a77.666 77.666 0 0 1 9.5-14.5c1.011-.837 2.178-1.17 3.5-1a31.61 31.61 0 0 0 2 7.5 11.81 11.81 0 0 1-2 3.5z"/><path style="opacity:1" fill="#867833" d="m83.5 133.5-1 2c-1.495.085-2.495-.581-3-2 1.458-1.282 2.792-1.282 4 0z"/><path style="opacity:1" fill="#765d31" d="M77.5 132.5c.248 2.358-.42 4.358-2 6-.79-.283-1.456-.783-2-1.5.783-2.118 2.116-3.618 4-4.5z"/><path style="opacity:1" fill="#412f22" d="M85.5 122.5c1.175-.219 2.175.114 3 1a5.577 5.577 0 0 0-1 3c-.722-.418-1.222-1.084-1.5-2-.833 1.5-2 2.667-3.5 3.5a8.43 8.43 0 0 0 4 .5c.24 2.534-.76 4.2-3 5-1.208-1.282-2.542-1.282-4 0 .505 1.419 1.505 2.085 3 2 .237 1.291-.096 2.291-1 3-1.573-2.336-2.906-2.336-4 0h-2c1.58-1.642 2.248-3.642 2-6v-3h4c-.14-1.624.527-2.79 2-3.5-.916-.278-1.582-.778-2-1.5 1.562-.233 2.895-.9 4-2z"/><path style="opacity:1" fill="#3e2a1d" d="M121.5 140.5c-3.054-.146-5.054 1.187-6 4 .179 2.106 1.179 3.772 3 5 .607-.124.94-.457 1-1h1v4h-3c-1.243-2.253-2.91-4.253-5-6-.929 1.189-1.262 2.522-1 4h-1l-3-4c4-.667 4-1.333 0-2 .591-1.696-.242-3.029-2.5-4-.765.07-1.265.403-1.5 1h-6v-3h3c1.418-1.808 3.418-2.475 6-2-.219-1.175.114-2.175 1-3 1.811 1.236 3.644 1.236 5.5 0l1.5.5a7.293 7.293 0 0 0-3 2c1.167.5 2 1.333 2.5 2.5.388-.928 1.055-1.595 2-2 2.026 1.235 3.86 2.568 5.5 4z"/><path style="opacity:1" fill="#858231" d="M109.5 141.5c1.068-.934 2.401-1.268 4-1 .219 1.175-.114 2.175-1 3-.765-1.112-1.765-1.779-3-2z"/><path style="opacity:1" fill="#6c8228" d="M100.5 138.5c5.154-1.294 5.321-.627.5 2-1.684-.183-1.85-.85-.5-2z"/><path style="opacity:1" fill="#7c6a32" d="M121.5 140.5c.891.761 1.558 1.761 2 3-1.112.765-1.779 1.765-2 3-.838.342-1.172 1.008-1 2h-1c-.025-2.679-1.358-4.012-4-4 .946-2.813 2.946-4.146 6-4z"/><path style="opacity:1" fill="#2d1f29" d="M65.5 152.5v4h-6c.146-3.054-1.187-5.054-4-6-.667 0-1-.333-1-1-1.544-2.342-1.878-4.842-1-7.5 1.759-.798 3.425-.631 5 .5l4 8c.765 1.112 1.765 1.779 3 2z"/><path style="opacity:1" fill="#322f49" d="M129.5 140.5c4.333 3 8 6.667 11 11-1.667-1.333-3.333-1.333-5 0v-1c.172-.992-.162-1.658-1-2v-3c-2.764-.499-4.431-2.165-5-5z"/><path style="opacity:1" fill="#795e2f" d="M81.5 138.5c-1.484 1.897-3.318 3.564-5.5 5a12.935 12.935 0 0 0-.5 5c-.79 1.109-1.29 2.442-1.5 4-.67.752-1.504 1.086-2.5 1 1.35-1.15 1.184-1.817-.5-2-1.44.648-2.94.981-4.5 1a5.728 5.728 0 0 0 1-3c2.46-1.644 3.96-3.977 4.5-7 2.159 2.456 2.992 1.79 2.5-2 1.679.215 2.679-.452 3-2 1.094-2.336 2.427-2.336 4 0z"/><path style="opacity:1" fill="#5d8324" d="M107.5 144.5c4 .667 4 1.333 0 2v-2z"/><path style="opacity:1" fill="#2a1f1b" d="M97.5 147.5v-1a76.265 76.265 0 0 0 8-2.5 14.972 14.972 0 0 0-3 3.5c-1.799 1.288-3.465 1.288-5 0z"/><path style="opacity:1" fill="#a19836" d="M115.5 144.5c2.642-.012 3.975 1.321 4 4-.06.543-.393.876-1 1-1.821-1.228-2.821-2.894-3-5z"/><path style="opacity:1" fill="#69502c" d="M107.5 144.5v2l3 4h-3c-1.415.406-2.581-.261-3.5-2a2.428 2.428 0 0 0-.5 2c-1.643-.02-2.976.647-4 2a4.451 4.451 0 0 1-1.5-2c-.21 1.558-.71 2.891-1.5 4-1.333-1.667-1.333-3.333 0-5-.172-.992.162-1.658 1-2 1.535 1.288 3.201 1.288 5 0a14.972 14.972 0 0 1 3-3.5 76.265 76.265 0 0 1-8 2.5c1.327-1.682 2.994-3.015 5-4 .667 0 1-.333 1-1 .235-.597.735-.93 1.5-1 2.258.971 3.091 2.304 2.5 4z"/><path style="opacity:1" fill="#684229" d="M121.5 146.5c0 1.333.667 2 2 2 1.16 1.703.493 2.369-2 2v3c1.459.067 2.792-.266 4-1 0 1.333.667 2 2 2s2 .667 2 2c-1.322.17-2.489-.163-3.5-1l-.5 1.5a63.53 63.53 0 0 0 5.5 6.5c.483.948.649 1.948.5 3a242.218 242.218 0 0 0-7-7.5 4.934 4.934 0 0 0-3-.5c.709-.904 1.709-1.237 3-1v-3c-1.291-.237-2.291.096-3 1l-4-1v-2h3v-4c-.172-.992.162-1.658 1-2z"/><path style="opacity:1" fill="#6d6630" d="M54.5 149.5v-3h3v3h-3z"/><path style="opacity:1" fill="#696d2b" d="M129.5 148.5c-.755 1.966-1.921 2.3-3.5 1a4.934 4.934 0 0 0-.5 3c-1.208.734-2.541 1.067-4 1v-3c2.493.369 3.16-.297 2-2 1.917-.906 3.583-2.239 5-4 .929 1.189 1.262 2.522 1 4z"/><path style="opacity:1" fill="#555328" d="M94.5 142.5c.992-.172 1.658.162 2 1-1.597.59-2.93 1.59-4 3a3.647 3.647 0 0 1-1.5-1c-.949 2.847-2.615 5.18-5 7-1.03-.336-1.53-1.003-1.5-2 1-.333 1.667-1 2-2 1.864-2.946 4.53-4.946 8-6z"/><path style="opacity:1" fill="#596224" d="M97.5 146.5v1c-.838.342-1.172 1.008-1 2-2.348.092-4.014 1.092-5 3-1.528-.017-2.028-.684-1.5-2 2.344-1.785 4.844-3.118 7.5-4z"/><path style="opacity:1" fill="#8b8e28" d="M117.5 152.5h-4c0-1.333-.667-2-2-2-.262-1.478.071-2.811 1-4 2.09 1.747 3.757 3.747 5 6z"/><path style="opacity:1" fill="#9c9935" d="M107.5 150.5h4c1.333 0 2 .667 2 2v4c-1.459.067-2.792-.266-4-1 0-1.333-.667-2-2-2v-3z"/><path style="opacity:1" fill="#582c25" d="M111.5 150.5c1.333 0 2 .667 2 2-1.333 0-2-.667-2-2z"/><path style="opacity:1" fill="#a46f38" d="M107.5 153.5c1.333 0 2 .667 2 2v1c-1.256-.404-2.423-1.071-3.5-2a15.414 15.414 0 0 1-4.5 2c1.018-3.247 3.018-4.247 6-3z"/><path style="opacity:1" fill="#492825" d="M134.5 148.5c.838.342 1.172 1.008 1 2-1.333 0-2 .667-2 2-1.235-.221-2.235-.888-3-2-.886.825-1.219 1.825-1 3-1.425-1.531-2.091-1.198-2 1-1.333 0-2-.667-2-2a4.934 4.934 0 0 1 .5-3c1.579 1.3 2.745.966 3.5-1 1.667-1.333 3.333-1.333 5 0z"/><path style="opacity:1" fill="#afa53a" d="M133.5 152.5a89.713 89.713 0 0 0 11.5 16 8.43 8.43 0 0 1 .5 4h-2a23.423 23.423 0 0 0-2.5-6c-3.398-4.854-7.231-9.187-11.5-13-.219-1.175.114-2.175 1-3 .765 1.112 1.765 1.779 3 2z"/><path style="opacity:1" fill="#271a15" d="M102.5 142.5c-2.006.985-3.673 2.318-5 4-2.656.882-5.156 2.215-7.5 4-.528 1.316-.028 1.983 1.5 2v2h-3c.284 1.915-.049 3.581-1 5 .219-1.175-.114-2.175-1-3a10.504 10.504 0 0 1-5 3.5c-1.238.69-1.238 1.19 0 1.5v3c-5.23-.77-7.23 1.23-6 6-2.258.275-2.592 1.275-1 3a10.76 10.76 0 0 0-2.5 3c-1.292-1.291-2.458-1.291-3.5 0-.876.131-1.543-.202-2-1 .825-.886 1.825-1.219 3-1v-6c3.623-.149 3.957-1.316 1-3.5-.234-3.782.1-7.615 1-11.5.996.086 1.83-.248 2.5-1 .21-1.558.71-2.891 1.5-4-.009 1.808.491 3.475 1.5 5 1.848-2.541 4.348-3.541 7.5-3-.03.997.47 1.664 1.5 2 2.385-1.82 4.051-4.153 5-7 .414.457.914.791 1.5 1 1.07-1.41 2.403-2.41 4-3 1.88-.841 3.879-1.175 6-1z"/><path style="opacity:1" fill="#281a16" d="M113.5 152.5h4v2c.12 1.086.787 1.753 2 2 .916-.043 1.583-.376 2-1 .709-.904 1.709-1.237 3-1v3c-1.291-.237-2.291.096-3 1v2h-4c.333-3-1-4.333-4-4v-4z"/><path style="opacity:1" fill="#799a33" d="m117.5 154.5 4 1c-.417.624-1.084.957-2 1-1.213-.247-1.88-.914-2-2z"/><path style="opacity:1" fill="#635d32" d="M55.5 150.5c2.813.946 4.146 2.946 4 6v1l-2-1c-1.574-1.602-2.24-3.602-2-6z"/><path style="opacity:1" fill="#5d4432" d="M140.5 151.5a31.78 31.78 0 0 1 5 9v2a109.495 109.495 0 0 1-10-11c1.667-1.333 3.333-1.333 5 0z"/><path style="opacity:1" fill="#c2b23d" d="M109.5 156.5c-1.693 5.725-5.026 7.059-10 4-.343-1.983.323-3.317 2-4a15.414 15.414 0 0 0 4.5-2c1.077.929 2.244 1.596 3.5 2z"/><path style="opacity:1" fill="#868d34" d="M113.5 156.5c3-.333 4.333 1 4 4h-4v-4z"/><path style="opacity:1" fill="#767731" d="m87.5 159.5-6 2c-1.238-.31-1.238-.81 0-1.5a10.504 10.504 0 0 0 5-3.5c.886.825 1.219 1.825 1 3z"/><path style="opacity:1" fill="#a28337" d="M76.5 159.5c3.913 1.186 3.913 2.52 0 4-1.126-1.308-1.126-2.642 0-4z"/><path style="opacity:1" fill="#482d21" d="M107.5 150.5v3c-2.982-1.247-4.982-.247-6 3-1.677.683-2.343 2.017-2 4-4.832-1.192-7.498.808-8 6a30.968 30.968 0 0 1-2-2c-.797.457-1.13 1.124-1 2h-3c3.008-1.846 3.174-3.513.5-5a18.702 18.702 0 0 1-4.5 3v-3l6-2c.951-1.419 1.284-3.085 1-5h3v-2c.986-1.908 2.652-2.908 5-3-1.333 1.667-1.333 3.333 0 5 .017 1.528.684 2.028 2 1.5a38.47 38.47 0 0 0 5-5.5 2.428 2.428 0 0 1 .5-2c.919 1.739 2.085 2.406 3.5 2z"/><path style="opacity:1" fill="#8c802d" d="M91.5 154.5c.617-.111 1.117-.444 1.5-1 .318 1.561 1.15 2.728 2.5 3.5a26.107 26.107 0 0 1-5 3.5c-1.094-1.368-.76-2.535 1-3.5l-2-1c.916-.278 1.582-.778 2-1.5z"/><path style="opacity:1" fill="#80802c" d="M103.5 150.5a38.47 38.47 0 0 1-5 5.5c-1.316.528-1.983.028-2-1.5.79-1.109 1.29-2.442 1.5-4a4.451 4.451 0 0 0 1.5 2c1.024-1.353 2.357-2.02 4-2z"/><path style="opacity:1" fill="#884932" d="M117.5 160.5h4c.767.672 1.434 1.505 2 2.5a240.024 240.024 0 0 1-6-.5v-2z"/><path style="opacity:1" fill="#c3af3e" d="M99.5 160.5c-.213 1.644.12 3.144 1 4.5a26.848 26.848 0 0 0-6 3.5 184.223 184.223 0 0 0-3-2c.502-5.192 3.168-7.192 8-6z"/><path style="opacity:1" fill="#af973c" d="M71.5 153.5c-.9 3.885-1.234 7.718-1 11.5 2.957 2.184 2.623 3.351-1 3.5v6c-1.175-.219-2.175.114-3 1 .457.798 1.124 1.131 2 1-.507 1.359-1.507 2.359-3 3-.487 5.084.18 10.084 2 15-.617.111-1.117.444-1.5 1l-1-4c-1.788 1.833-1.954 3.833-.5 6a4.451 4.451 0 0 1-1.5 2 8.189 8.189 0 0 0-2.5-4c1.236-1.811 1.236-3.644 0-5.5a33.697 33.697 0 0 1 3-7.5 40.459 40.459 0 0 0-2-10c-.135-2.308.531-4.308 2-6a7.248 7.248 0 0 0-2-2.5l1-1a4.934 4.934 0 0 0-3-.5v-6h6v-4h1c1.56-.019 3.06-.352 4.5-1 1.684.183 1.85.85.5 2z"/><path style="opacity:1" fill="#927e38" d="M135.5 150.5v1a109.495 109.495 0 0 0 10 11c.406 3.089 1.74 5.755 4 8l-3 3c-.607-.124-.94-.457-1-1a8.43 8.43 0 0 0-.5-4 89.713 89.713 0 0 1-11.5-16c0-1.333.667-2 2-2z"/><path style="opacity:1" fill="#362725" d="m57.5 156.5 2 1v5a4.934 4.934 0 0 1 3 .5l-1 1a7.248 7.248 0 0 1 2 2.5c-1.469 1.692-2.135 3.692-2 6a40.459 40.459 0 0 1 2 10c-2.409-1.79-4.076-1.29-5 1.5a187.447 187.447 0 0 1 1 26.5l2 4h-3a19.62 19.62 0 0 1-2-3.5c1.536-1.599 2.036-3.433 1.5-5.5-1.925 2.473-3.758 2.473-5.5 0l6-2a6.846 6.846 0 0 1-1-4 137.396 137.396 0 0 1 2-29.5 128.506 128.506 0 0 0-2-13.5z"/><path style="opacity:1" fill="#b5a53b" d="M121.5 158.5a4.934 4.934 0 0 1 3 .5 242.218 242.218 0 0 1 7 7.5c0 1.333.667 2 2 2 .798 2.466 2.131 4.466 4 6a18.974 18.974 0 0 1 2 8c-2.208-3.043-4.875-5.709-8-8a60.625 60.625 0 0 0 5 8.5c-.608.87-1.441 1.37-2.5 1.5a123.711 123.711 0 0 0-8.5-10c0-1.333-.667-2-2-2-1.177-2.538-2.844-4.871-5-7-.607.124-.94.457-1 1-2.787.28-4.953 1.613-6.5 4-.383-.556-.883-.889-1.5-1 2.416-2.758 5.083-5.091 8-7 2.075.198 4.075.365 6 .5-.566-.995-1.233-1.828-2-2.5v-2z"/><path style="opacity:1" fill="#9c9736" d="M91.5 166.5c.37 2.493-.297 3.16-2 2 .172-.992-.162-1.658-1-2-.13-.876.203-1.543 1-2a30.968 30.968 0 0 0 2 2z"/><path style="opacity:1" fill="#894335" d="M125.5 166.5c-1.837-.139-2.17-.806-1-2 .798.457 1.131 1.124 1 2z"/><path style="opacity:1" fill="#615129" d="M85.5 166.5h3c.838.342 1.172 1.008 1 2l-2 4h-4c-.475-2.582.192-4.582 2-6z"/><path style="opacity:1" fill="#78492c" d="M123.5 172.5a25.658 25.658 0 0 1-6-6c.06-.543.393-.876 1-1 2.156 2.129 3.823 4.462 5 7z"/><path style="opacity:1" fill="#633828" d="M125.5 166.5c2.949 1.873 4.949 4.539 6 8-2.949-1.873-4.949-4.539-6-8z"/><path style="opacity:1" fill="#5d3728" d="M131.5 166.5c1.333 0 2 .667 2 2 0-1.333-.667-2-2-2z"/><path style="opacity:1" fill="#715a2f" d="M129.5 153.5c4.269 3.813 8.102 8.146 11.5 13a23.423 23.423 0 0 1 2.5 6v4l-14-20c0-1.333-.667-2-2-2-.091-2.198.575-2.531 2-1z"/><path style="opacity:1" fill="#4e3123" d="M109.5 155.5c1.208.734 2.541 1.067 4 1v4h4v2c-2.917 1.909-5.584 4.242-8 7-.978.311-1.645.978-2 2 1.81 2.123 3.143 4.457 4 7a1612.327 1612.327 0 0 1-7-6c-3.06 1.059-5.06 3.059-6 6-1.82 2.681-4.153 4.681-7 6-3.162-3.91-2.495-5.243 2-4 .793-2.385 2.126-4.385 4-6 1.333 0 2-.667 2-2 3.493-.694 4.159-2.027 2-4-2.786.377-4.786 1.711-6 4l-4 1c-1.068-.934-2.401-1.268-4-1l2-4c1.703 1.16 2.37.493 2-2 .982.641 1.982 1.307 3 2a26.848 26.848 0 0 1 6-3.5c-.88-1.356-1.213-2.856-1-4.5 4.974 3.059 8.307 1.725 10-4v-1z"/><path style="opacity:1" fill="#9f9e34" d="M113.5 160.5c-.853 3.86-3.187 6.527-7 8-1.388-1.091-1.888-2.424-1.5-4 2.448-2.191 5.282-3.524 8.5-4z"/><path style="opacity:1" fill="#969e33" d="M99.5 172.5h-4c1.214-2.289 3.214-3.623 6-4 2.159 1.973 1.493 3.306-2 4z"/><path style="opacity:1" fill="#ccb83f" d="M117.5 166.5a25.658 25.658 0 0 0 6 6c1.333 0 2 .667 2 2 1.969 4.498 4.636 8.665 8 12.5l-1 1c3.603 1.647 3.936 3.813 1 6.5a19.49 19.49 0 0 0-7 3c-.912-1.238-1.079-2.572-.5-4 1.729-.474 2.895-1.474 3.5-3a36.87 36.87 0 0 0-5.5 2 56.236 56.236 0 0 0-6.5-6c0-1.333-.667-2-2-2-.448-2.672-1.781-4.672-4-6-.857-2.543-2.19-4.877-4-7 .355-1.022 1.022-1.689 2-2 .617.111 1.117.444 1.5 1 1.547-2.387 3.713-3.72 6.5-4z"/><path style="opacity:1" fill="#b4aa3b" d="m129.5 156.5 14 20v2c-2.385-.792-4.385-2.126-6-4-.345-2.698-1.678-4.698-4-6 0-1.333-.667-2-2-2a4.934 4.934 0 0 0-.5-3 63.53 63.53 0 0 1-5.5-6.5l.5-1.5c1.011.837 2.178 1.17 3.5 1z"/><path style="opacity:1" fill="#1d1416" d="M85.5 166.5c-1.808 1.418-2.475 3.418-2 6h4c1.599-.268 2.932.066 4 1-3.468 1.186-4.135 2.853-2 5 2.245-2.26 4.911-3.594 8-4-1.874 1.615-3.207 3.615-4 6-4.495-1.243-5.162.09-2 4a301.462 301.462 0 0 0 3 4 2.427 2.427 0 0 1-.5 2c-3.22-3.228-4.72-2.562-4.5 2-4.846-6.351-8.679-13.351-11.5-21-.67-.752-1.504-1.086-2.5-1-1.23-4.77.77-6.77 6-6 1.6-.752 3.1-1.752 4.5-3 2.674 1.487 2.508 3.154-.5 5z"/><path style="opacity:1" fill="#503a27" d="M123.5 172.5c1.333 0 2 .667 2 2-1.333 0-2-.667-2-2z"/><path style="opacity:1" fill="#634a2a" d="M133.5 168.5c2.322 1.302 3.655 3.302 4 6-1.869-1.534-3.202-3.534-4-6z"/><path style="opacity:1" fill="#3c4998" d="M75.5 170.5c.996-.086 1.83.248 2.5 1 2.821 7.649 6.654 14.649 11.5 21a35.162 35.162 0 0 1 5 10 202.655 202.655 0 0 1-17-4 37.107 37.107 0 0 0-2-4.5c1.268-2.141 1.935-4.474 2-7-1.654-5.35-2.32-10.85-2-16.5z"/><path style="opacity:1" fill="#5f5227" d="M95.5 172.5h4c0 1.333-.667 2-2 2-3.089.406-5.755 1.74-8 4-2.135-2.147-1.468-3.814 2-5l4-1z"/><path style="opacity:1" fill="#cdb540" d="M111.5 178.5c.122 2.792 1.456 4.792 4 6 1.333 0 2 .667 2 2a81.838 81.838 0 0 0 4 7.5c-1.655 1.301-2.989 2.801-4 4.5-1.459.067-2.792-.266-4-1a208.986 208.986 0 0 0-15-19c.94-2.941 2.94-4.941 6-6 2.372 2.045 4.706 4.045 7 6z"/><path style="opacity:1" fill="#766e31" d="M145.5 182.5c-.617.111-1.117.444-1.5 1a12.93 12.93 0 0 1-.5-5c1.347-.671 2.514-.671 3.5 0a8.43 8.43 0 0 0 .5-4c1.478-.262 2.811.071 4 1a22.948 22.948 0 0 1-6 7z"/><path style="opacity:1" fill="#fdfdfd" d="M-.5 178.5a1099.62 1099.62 0 0 1 4.5 20 42.283 42.283 0 0 1 3.5 8c8.127 19.707 21.127 35.54 39 47.5a4.934 4.934 0 0 0 3 .5c0 1.333.667 2 2 2 1.014 1.174 2.347 1.84 4 2 .473 1.406 1.473 2.073 3 2a5.727 5.727 0 0 1 3 1c2.01 1.565 4.343 2.565 7 3h1c1.602 1.574 3.602 2.241 6 2h3l4 2h-83v-90z"/><path style="opacity:1" fill="#836b34" d="M63.5 182.5a33.697 33.697 0 0 0-3 7.5c1.236 1.856 1.236 3.689 0 5.5a8.189 8.189 0 0 1 2.5 4 4.451 4.451 0 0 0 1.5-2c-1.454-2.167-1.288-4.167.5-6l1 4c.383-.556.883-.889 1.5-1 .876-.131 1.543.202 2 1-.825.886-1.825 1.219-3 1a12.935 12.935 0 0 1-.5 5c-1.356-.88-2.856-1.214-4.5-1-.203 1.89.463 3.39 2 4.5-1.115 2.131-2.448 3.965-4 5.5a187.447 187.447 0 0 0-1-26.5c.924-2.79 2.591-3.29 5-1.5z"/><path style="opacity:1" fill="#69492c" d="M111.5 178.5c2.219 1.328 3.552 3.328 4 6-2.544-1.208-3.878-3.208-4-6z"/><path style="opacity:1" fill="#473120" d="M115.5 184.5c1.333 0 2 .667 2 2-1.333 0-2-.667-2-2z"/><path style="opacity:1" fill="#281d1f" d="M145.5 160.5c7.558 8.604 12.558 18.604 15 30-.095 2.369-1.095 4.036-3 5 .219-1.175-.114-2.175-1-3-.607.124-.94.457-1 1-2.748.098-3.414-.902-2-3 1.844-.704 2.344-2.037 1.5-4a26.091 26.091 0 0 0-3.5-5c-.607.124-.94.457-1 1 .172.992-.162 1.658-1 2h-4v-2a22.948 22.948 0 0 0 6-7c-1.189-.929-2.522-1.262-4-1a8.43 8.43 0 0 1-.5 4c-.986-.671-2.153-.671-3.5 0v-6h2c.06.543.393.876 1 1l3-3c-2.26-2.245-3.594-4.911-4-8v-2z"/><path style="opacity:1" fill="#fdfdfd" d="M198.5 176.5v92h-83v-1a76.926 76.926 0 0 0 10-1c2.281.423 3.948-.244 5-2 10.444-2.556 19.778-7.222 28-14 1.527.073 2.527-.594 3-2 14.649-10.312 24.649-23.979 30-41 1.605-1.98 2.772-4.313 3.5-7 1.685-8.07 2.852-16.07 3.5-24z"/><path style="opacity:1" fill="#9a7f39" d="M150.5 182.5c.06-.543.393-.876 1-1a26.091 26.091 0 0 1 3.5 5c.844 1.963.344 3.296-1.5 4a592.183 592.183 0 0 0-3-8z"/><path style="opacity:1" fill="#452f21" d="M125.5 174.5a123.711 123.711 0 0 1 8.5 10c1.059-.13 1.892-.63 2.5-1.5a60.625 60.625 0 0 1-5-8.5c3.125 2.291 5.792 4.957 8 8a18.974 18.974 0 0 0-2-8c1.615 1.874 3.615 3.208 6 4a12.93 12.93 0 0 0 .5 5c.383-.556.883-.889 1.5-1v6a4.934 4.934 0 0 0-3 .5 133.668 133.668 0 0 0 5.5 9.5c1.63-1.651 1.463-3.317-.5-5l.5-2 2.5 3 1-2a18.725 18.725 0 0 1-2-8c.838-.342 1.172-1.008 1-2a592.183 592.183 0 0 1 3 8c-1.414 2.098-.748 3.098 2 3l-5 5c-1.166 1.667-1.166 3.334 0 5l-2 1c.131-.876-.202-1.543-1-2-1.369 1.624-3.036 2.124-5 1.5.566-.995 1.233-1.828 2-2.5.978-.311 1.645-.978 2-2l-4-8c-.825-.886-1.825-1.219-3-1v4c-2-1.333-4-1.333-6 0 2.936-2.687 2.603-4.853-1-6.5l1-1c-3.364-3.835-6.031-8.002-8-12.5z"/><path style="opacity:1" fill="#939838" d="M136.5 185.5c1.495-.085 2.495.581 3 2-1.333 1.333-2.667 1.333-4 0 .363-.683.696-1.35 1-2z"/><path style="opacity:1" fill="#938731" d="M139.5 182.5c2.332.662 2.999 1.995 2 4-1.205-1.077-1.872-2.41-2-4z"/><path style="opacity:1" fill="#4a292f" d="M129.5 190.5c.139-1.837.806-2.17 2-1-.457.798-1.124 1.131-2 1z"/><path style="opacity:1" fill="#554126" d="M99.5 195.5c-1.613.444-2.78 1.444-3.5 3-1.371-2.872-3.538-4.872-6.5-6-.22-4.562 1.28-5.228 4.5-2a2.427 2.427 0 0 0 .5-2c.94-2.625 2.107-2.625 3.5 0 .492 1.049.326 2.049-.5 3 1.13 1.122 1.797 2.456 2 4z"/><path style="opacity:1" fill="#74632d" d="M98.5 178.5a208.986 208.986 0 0 1 15 19v3c-2.868-.415-5.035.585-6.5 3a190.74 190.74 0 0 1-5.5-5l-2-3c-.203-1.544-.87-2.878-2-4 .826-.951.992-1.951.5-3-1.393-2.625-2.56-2.625-3.5 0a301.462 301.462 0 0 1-3-4c2.847-1.319 5.18-3.319 7-6z"/><path style="opacity:1" fill="#948935" d="M145.5 184.5h4a18.725 18.725 0 0 0 2 8l-1 2-2.5-3-.5 2c1.963 1.683 2.13 3.349.5 5a133.668 133.668 0 0 1-5.5-9.5 4.934 4.934 0 0 1 3-.5v-4z"/><path style="opacity:1" fill="#524023" d="M117.5 186.5a56.236 56.236 0 0 1 6.5 6 36.87 36.87 0 0 1 5.5-2c-.605 1.526-1.771 2.526-3.5 3-.579 1.428-.412 2.762.5 4h-1c-2.299-.791-4.299-.124-6 2 .457.798 1.124 1.131 2 1-1.714 1.587-3.714 2.921-6 4-2.563-.237-2.563-.737 0-1.5a3.647 3.647 0 0 1-1-1.5 32.065 32.065 0 0 0 4-2.5c-.228-.399-.562-.565-1-.5 1.011-1.699 2.345-3.199 4-4.5a81.838 81.838 0 0 1-4-7.5z"/><path style="opacity:1" fill="#b4a83c" d="M144.5 201.5c-.966-2.969-2.633-5.302-5-7v-4c1.175-.219 2.175.114 3 1l4 8c-.355 1.022-1.022 1.689-2 2z"/><path style="opacity:1" fill="#d0ba41" d="M139.5 194.5c.48 2.505 1.48 4.838 3 7a198.418 198.418 0 0 0-3 5c-1.347.528-2.681.695-4 .5a56.358 56.358 0 0 0-6-6.5c.703-2.373 2.036-4.373 4-6 2-1.333 4-1.333 6 0z"/><path style="opacity:1" fill="#bfab3b" d="M125.5 197.5c-.548 2.032-1.881 3.032-4 3-.876.131-1.543-.202-2-1 1.701-2.124 3.701-2.791 6-2z"/><path style="opacity:1" fill="#655530" d="M157.5 195.5c-.221 2.164-1.221 3.83-3 5-1.93.271-3.264 1.271-4 3-1.166-1.666-1.166-3.333 0-5l5-5c.06-.543.393-.876 1-1 .886.825 1.219 1.825 1 3z"/><path style="opacity:1" fill="#614c2c" d="M100.5 198.5c.506 1.929 1.506 3.595 3 5-2.306 1.271-4.306.938-6-1-.032-2.119.968-3.452 3-4z"/><path style="opacity:1" fill="#c2b03e" d="M128.5 201.5a110.79 110.79 0 0 0 6 7.5c-.744 1.039-1.744 1.539-3 1.5a12.93 12.93 0 0 1-5-.5c-1.289-1.802-2.956-2.969-5-3.5-.039-3.591 1.794-5.591 5.5-6 .765.07 1.265.403 1.5 1z"/><path style="opacity:1" fill="#ccc8dd" d="M9.5 202.5a5.727 5.727 0 0 1 3 1 67.66 67.66 0 0 1 5 13h-2c-.75-3.138-2.082-5.805-4-8-.16-1.653-.826-2.986-2-4v-2z"/><path style="opacity:1" fill="#63572a" d="M139.5 194.5c2.367 1.698 4.034 4.031 5 7-.767.672-1.434 1.505-2 2.5 1.964.624 3.631.124 5-1.5.798.457 1.131 1.124 1 2-.508 1.733-1.341 2.066-2.5 1-.232 1.237-.732 2.237-1.5 3-1.052-1.756-2.719-2.423-5-2a198.418 198.418 0 0 1 3-5c-1.52-2.162-2.52-4.495-3-7z"/><path style="opacity:1" fill="#7f7130" d="M121.5 206.5c2.044.531 3.711 1.698 5 3.5a12.93 12.93 0 0 0 5 .5c-1.068.934-2.401 1.268-4 1v3a5.727 5.727 0 0 1-3-1 45.576 45.576 0 0 0-5-6.5 2.428 2.428 0 0 1 2-.5z"/><path style="opacity:1" fill="#443a20" d="M129.5 200.5a56.358 56.358 0 0 1 6 6.5c1.319.195 2.653.028 4-.5-.233 1.562-.9 2.895-2 4a12.805 12.805 0 0 0-6 3c.825.886 1.825 1.219 3 1-.974 1.585-2.474 2.585-4.5 3-.236-1.619-1.069-2.619-2.5-3v-3c1.599.268 2.932-.066 4-1 1.256.039 2.256-.461 3-1.5a110.79 110.79 0 0 1-6-7.5c.667 0 1-.333 1-1z"/><path style="opacity:1" fill="#424d32" d="M187.5 204.5c-1.1 1.105-1.767 2.438-2 4-1.322.17-2.489-.163-3.5-1a11.333 11.333 0 0 1-3.5 1.5c1.154.914.987 1.747-.5 2.5l-1-4c-1.113 1.211-2.28 1.211-3.5 0-.267 1.8-.933 3.8-2 6-.617.111-1.117.444-1.5 1-.278-.916-.778-1.582-1.5-2-1.011-1.902-1.178-3.902-.5-6 2.269 2.339 3.769 1.672 4.5-2 1.352 2.136 3.018 2.47 5 1 1.094 2.336 2.427 2.336 4 0a9.86 9.86 0 0 1 6-1z"/><path style="opacity:1" fill="#959337" d="M139.5 206.5c2.281-.423 3.948.244 5 2-1.956 1.648-4.289 2.315-7 2 1.1-1.105 1.767-2.438 2-4z"/><path style="opacity:1" fill="#2c1e18" d="M133.5 194.5c-1.964 1.627-3.297 3.627-4 6 0 .667-.333 1-1 1-.235-.597-.735-.93-1.5-1-3.706.409-5.539 2.409-5.5 6a2.428 2.428 0 0 0-2 .5 45.576 45.576 0 0 1 5 6.5 5.727 5.727 0 0 1-1 3 52.97 52.97 0 0 1-8.5-5c.152-2.019.652-4.019 1.5-6a57.829 57.829 0 0 1-8 2.5c-1.944 3.159-3.11 2.659-3.5-1.5-.5 1.167-1.333 2-2.5 2.5 1.212 1.107.879 1.607-1 1.5a304.993 304.993 0 0 0-3-4c-.734-1.208-1.067-2.541-1-4 1.694 1.938 3.694 2.271 6 1-1.494-1.405-2.494-3.071-3-5h1a190.74 190.74 0 0 0 5.5 5c1.465-2.415 3.632-3.415 6.5-3v-3c1.208.734 2.541 1.067 4 1 .438-.065.772.101 1 .5a32.065 32.065 0 0 1-4 2.5 3.647 3.647 0 0 0 1 1.5c-2.563.763-2.563 1.263 0 1.5 2.286-1.079 4.286-2.413 6-4 2.119.032 3.452-.968 4-3h1a19.49 19.49 0 0 1 7-3z"/><path style="opacity:1" fill="#89b18f" d="M11.5 208.5c1.918 2.195 3.25 4.862 4 8-2.255-2.031-3.588-4.698-4-8z"/><path style="opacity:1" fill="#ae963e" d="M137.5 210.5v4h-3c-1.175.219-2.175-.114-3-1a12.805 12.805 0 0 1 6-3z"/><path style="opacity:1" fill="#b5cbb4" d="M15.5 216.5h3c.612 5.928 3.612 9.928 9 12 .16 1.653.826 2.986 2 4v3c-6.364-5.051-11.03-11.384-14-19z"/><path style="opacity:1" fill="#2b2522" d="M168.5 212.5c.722.418 1.222 1.084 1.5 2 .383-.556.883-.889 1.5-1 1.067-2.2 1.733-4.2 2-6 1.22 1.211 2.387 1.211 3.5 0l1 4c1.487-.753 1.654-1.586.5-2.5a11.333 11.333 0 0 0 3.5-1.5c1.011.837 2.178 1.17 3.5 1l-6 12c-1.333 0-2 .667-2 2a26.523 26.523 0 0 0-3.5 6c-.671.752-1.504 1.086-2.5 1a4.934 4.934 0 0 0-.5-3c-1.401 1.692-3.234 2.359-5.5 2a81.316 81.316 0 0 1 3-2.5c-.979-2.137-2.312-3.971-4-5.5-1.234 1.898-.901 3.565 1 5a13.015 13.015 0 0 0-4.5 4c-1.82-.989-3.653-1.989-5.5-3-1.925.09-3.092 1.09-3.5 3-.399-.228-.565-.562-.5-1-2.529-2.934-2.529-5.934 0-9 2.178-.704 4.178-1.037 6-1-.394 1.924.273 3.757 2 5.5 3.283.044 3.616-.956 1-3a7.293 7.293 0 0 0 3-2c-1.333-.667-1.333-1.333 0-2a15.256 15.256 0 0 1-4.5-1.5 87.287 87.287 0 0 0-2.5-7 3.647 3.647 0 0 1 1-1.5 15.256 15.256 0 0 0 4.5-1.5 12.403 12.403 0 0 1 2.5 4c-1.489 1.48-3.155 2.313-5 2.5l1.5 1.5c2.381-.935 4.881-1.268 7.5-1z"/><path style="opacity:1" fill="#343e29" d="M171.5 213.5c1.89.203 3.39-.463 4.5-2a54.628 54.628 0 0 1 4.5 2c-2.665 2.805-5.665 3.805-9 3v-3z"/><path style="opacity:1" fill="#33322a" d="M26.5 226.5c-3.249-2.234-5.249-5.234-6-9a18.773 18.773 0 0 1 5.5-7c4.995 3.502 4.495 5.669-1.5 6.5 2.437 1.375 5.104 1.875 8 1.5v4h-3a8.435 8.435 0 0 1-.5 4c-.77-1.098-1.603-1.098-2.5 0z"/><path style="opacity:1" fill="#b9adce" d="m18.5 216.5 2 1c.751 3.766 2.751 6.766 6 9l1 2c-5.388-2.072-8.388-6.072-9-12z"/><path style="opacity:1" fill="#aa5fb4" d="M179.5 220.5c0 1.333-.667 2-2 2 0-1.333.667-2 2-2z"/><path style="opacity:1" fill="#1b1516" d="M75.5 170.5c-.32 5.65.346 11.15 2 16.5-.065 2.526-.732 4.859-2 7a37.107 37.107 0 0 1 2 4.5 202.655 202.655 0 0 0 17 4 35.162 35.162 0 0 0-5-10c2.962 1.128 5.129 3.128 6.5 6 .72-1.556 1.887-2.556 3.5-3l2 3h-1c-2.032.548-3.032 1.881-3 4-.067 1.459.266 2.792 1 4-.897 1.098-1.73 1.098-2.5 0a4.932 4.932 0 0 0-.5 3c-5.917.08-6.417 1.746-1.5 5 1.183-1.231 2.35-1.231 3.5 0a13.33 13.33 0 0 1 3 4.5c1.68.034 3.18.201 4.5.5.667-1.333.667-2.667 0-4a3.647 3.647 0 0 1-1.5 1 8.905 8.905 0 0 0-4-3c-.886-.825-1.219-1.825-1-3h3c1.879.107 2.212-.393 1-1.5 1.167-.5 2-1.333 2.5-2.5.39 4.159 1.556 4.659 3.5 1.5a57.829 57.829 0 0 0 8-2.5c-.848 1.981-1.348 3.981-1.5 6a52.97 52.97 0 0 0 8.5 5c.612 3.381-.554 5.714-3.5 7-1.892-.277-3.225-1.277-4-3l-1.5 3a53.508 53.508 0 0 0-4.5-1c-1.376.184-2.209.851-2.5 2-2.809.458-3.476 1.791-2 4v2c-.672.767-1.505 1.434-2.5 2-2.548-3.548-4.714-3.548-6.5 0h-1c-.237 2.712-.237 5.212 0 7.5-1.238-.077-2.238.089-3 .5 1.266.862 2.6 1.529 4 2v4h-3c-1.322.17-2.489-.163-3.5-1-.182 1.83.318 3.497 1.5 5-1.934.61-3.6 1.61-5 3-.904-.709-1.237-1.709-1-3-2.846.09-5.18 1.256-7 3.5 2.398.025 4.73.859 7 2.5-.438 1.006-1.104 1.006-2 0-.797.457-1.13 1.124-1 2-1.28-1.468-2.946-2.135-5-2v-3c-1.175.219-2.175-.114-3-1 3.184-.287 5.184-1.953 6-5 1.404 1.499 2.07 1.166 2-1a35.021 35.021 0 0 0-3.5-10c-.71 1.473-1.876 2.14-3.5 2 3.542 2.899 3.375 5.232-.5 7l-1-1c-1.418 1.863-3.251 2.363-5.5 1.5.24-1.562-.26-3.062-1.5-4.5-.583 4.418-3.083 6.418-7.5 6a21.16 21.16 0 0 0 2 7h-2a6.544 6.544 0 0 0-3-3c.514-2.012.68-4.012.5-6a13.307 13.307 0 0 1-4.5-3c-1.778 4.732-2.778 4.065-3-2 2.865.445 5.365-.222 7.5-2 .669 2.528 1.502 2.528 2.5 0-.387-1.22-1.22-1.887-2.5-2-1.678 1.782-3.511 2.115-5.5 1a376.537 376.537 0 0 0-5-4.5c.544-.717 1.21-1.217 2-1.5.996.086 1.83-.248 2.5-1 .739 1.074 1.739 1.741 3 2 2.547-1.285 5.047-1.285 7.5 0v-3c1.765-.961 3.765-1.295 6-1 .14-1.624-.527-2.79-2-3.5a20.088 20.088 0 0 1 6-1.5c.04-1.859-.794-3.192-2.5-4-1.688 2.289-3.521 3.623-5.5 4-3.495-4.464-7.661-5.131-12.5-2l-1-3c-1.943 2.215-3.61 2.215-5 0-2.272 2.989-1.439 4.322 2.5 4 .529 3.692-.471 6.858-3 9.5 1.07 1.825.404 2.992-2 3.5-1.268-.928-2.601-1.095-4-.5 1.333.667 1.333 1.333 0 2 1.894 1.101 2.56 2.434 2 4l4 1c.752.671 1.086 1.504 1 2.5h-2c0-1.333-.667-2-2-2-1.278-.282-2.278-.949-3-2-.457-2.273-1.79-3.606-4-4-1.059-2.055-2.725-3.389-5-4-1.174-1.014-1.84-2.347-2-4l-1-2c.897-1.098 1.73-1.098 2.5 0a8.435 8.435 0 0 0 .5-4h3v-4c-2.896.375-5.563-.125-8-1.5 5.995-.831 6.495-2.998 1.5-6.5a18.773 18.773 0 0 0-5.5 7l-2-1h-1a67.66 67.66 0 0 0-5-13v-3c3.474-1.125 6.64-.792 9.5 1 3.474-1.92 6.808-1.92 10 0 5.016-.672 10.182-.672 15.5 0 1.883-.376 3.383-1.376 4.5-3 1.57.17 3.403.503 5.5 1a6.846 6.846 0 0 0 1 4l-6 2c1.742 2.473 3.575 2.473 5.5 0 .536 2.067.036 3.901-1.5 5.5a19.62 19.62 0 0 0 2 3.5c.992 1.526 2.492 2.193 4.5 2l3.5-1c-1.545-.952-3.212-1.285-5-1l-2-4c1.552-1.535 2.885-3.369 4-5.5-1.537-1.11-2.203-2.61-2-4.5 1.644-.214 3.144.12 4.5 1 .493-1.634.66-3.301.5-5 1.175.219 2.175-.114 3-1-.457-.798-1.124-1.131-2-1-1.82-4.916-2.487-9.916-2-15 1.493-.641 2.493-1.641 3-3 1.042-1.291 2.208-1.291 3.5 0a10.76 10.76 0 0 1 2.5-3c-1.592-1.725-1.258-2.725 1-3z"/><path style="opacity:1" fill="#1c1b14" d="M87.5 217.5v1c-1.782 1.22-3.782 1.886-6 2v3c-1.478-.262-2.811.071-4 1 2.379 1.346 3.712 3.013 4 5-1.363 1.393-2.196 3.059-2.5 5-.986-.671-2.153-.671-3.5 0-.086-.996.248-1.829 1-2.5a2.429 2.429 0 0 0-2-.5c-1.247-1.678-2.914-3.011-5-4 2.337-1.017 4.004-2.684 5-5a7.248 7.248 0 0 0-2-2.5c1.238.077 2.238-.089 3-.5a14.72 14.72 0 0 0-5-1.5 15.28 15.28 0 0 0 1.5-4.5c3.417.278 6.917.278 10.5 0-1.39-2.436-.89-3.102 1.5-2 2.416-4.045 3.916-3.712 4.5 1-6.196.474-6.53 2.141-1 5z"/><path style="opacity:1" fill="#43522f" d="M87.5 218.5v-4h4c.704 3.971-.629 5.305-4 4z"/><path style="opacity:1" fill="#345128" d="M58.5 214.5h3c1.788-.285 3.455.048 5 1l-3.5 1c-2.008.193-3.508-.474-4.5-2z"/><path style="opacity:1" fill="#394126" d="M98.5 206.5a304.993 304.993 0 0 1 3 4h-3c-.219 1.175.114 2.175 1 3a8.905 8.905 0 0 1 4 3 3.647 3.647 0 0 0 1.5-1c.667 1.333.667 2.667 0 4-1.32-.299-2.82-.466-4.5-.5a13.33 13.33 0 0 0-3-4.5c-1.15-1.231-2.317-1.231-3.5 0-4.917-3.254-4.417-4.92 1.5-5a4.932 4.932 0 0 1 .5-3c.77 1.098 1.603 1.098 2.5 0z"/><path style="opacity:1" fill="#2f3822" d="M49.5 206.5c1.287 1.371 1.953 3.205 2 5.5l-.5 5.5c-2.265.091-4.598-.576-7-2-6.266 2.343-6.766 5.343-1.5 9a4.451 4.451 0 0 1-1.5 2 370.285 370.285 0 0 0-4.5-5l-1 .5a7.248 7.248 0 0 1 2 2.5 22.57 22.57 0 0 0-3.5 5l-.5-2.5c1.032-2.217 1.032-4.383 0-6.5 1.683-.742 3.516-2.075 5.5-4 .483-.948.65-1.948.5-3 6.567 2.445 9.9.111 10-7z"/><path style="opacity:1" fill="#424c2a" d="M114.5 223.5c1.739 2.054 2.573 4.387 2.5 7-.667-1.333-1.333-1.333-2 0-1.297-3.558-3.797-5.558-7.5-6 .291-1.149 1.124-1.816 2.5-2 1.533.273 3.033.606 4.5 1z"/><path style="opacity:1" fill="#606436" d="M110.5 227.5c-.548 2.584-2.215 3.584-5 3v-2a58.53 58.53 0 0 0 3-2c.916.043 1.583.376 2 1z"/><path style="opacity:1" fill="#4c612f" d="M61.5 229.5v3c-2.453-1.285-4.953-1.285-7.5 0-1.261-.259-2.261-.926-3-2-.67.752-1.504 1.086-2.5 1 1.48-2.274 3.647-3.608 6.5-4a31.72 31.72 0 0 0 6.5 2z"/><path style="opacity:1" fill="#44492d" d="M171.5 229.5a6.547 6.547 0 0 1-3 3c-1.814-.272-3.814-.439-6-.5a14.698 14.698 0 0 0 3-3.5c2.266.359 4.099-.308 5.5-2 .483.948.649 1.948.5 3z"/><path style="opacity:1" fill="#24211c" d="M61.5 229.5a31.72 31.72 0 0 1-6.5-2c-2.853.392-5.02 1.726-6.5 4-.79.283-1.456.783-2 1.5 1.708 1.51 3.374 3.01 5 4.5 1.989 1.115 3.822.782 5.5-1 1.28.113 2.113.78 2.5 2-.998 2.528-1.831 2.528-2.5 0-2.135 1.778-4.635 2.445-7.5 2 .222 6.065 1.222 6.732 3 2a13.307 13.307 0 0 0 4.5 3c.18 1.988.014 3.988-.5 6l-4-3h-4c-.27-1.93-1.27-3.264-3-4 .086-.996-.248-1.829-1-2.5l-4-1c.56-1.566-.106-2.899-2-4 1.333-.667 1.333-1.333 0-2 1.399-.595 2.732-.428 4 .5 2.404-.508 3.07-1.675 2-3.5 2.529-2.642 3.529-5.808 3-9.5-3.939.322-4.772-1.011-2.5-4 1.39 2.215 3.057 2.215 5 0l1 3c4.839-3.131 9.005-2.464 12.5 2 1.979-.377 3.812-1.711 5.5-4 1.706.808 2.54 2.141 2.5 4a20.088 20.088 0 0 0-6 1.5c1.473.71 2.14 1.876 2 3.5-2.235-.295-4.235.039-6 1z"/><path style="opacity:1" fill="#cbc4cf" d="M187.5 203.5a5.727 5.727 0 0 1 3 1v2c-3.208 3.748-5.374 8.082-6.5 13-4.743 7.09-10.243 13.423-16.5 19-1.762.762-2.762 2.096-3 4h-3c1.264-2.435 3.097-4.435 5.5-6 .41-1.401.91-2.734 1.5-4a6.547 6.547 0 0 0 3-3c.996.086 1.829-.248 2.5-1a26.523 26.523 0 0 1 3.5-6c1.333 0 2-.667 2-2l6-12c.233-1.562.9-2.895 2-4v-1z"/><path style="opacity:1" fill="#434d26" d="M95.5 232.5c-.923-.803-1.923-.97-3-.5a35.244 35.244 0 0 0-1 4.5c-1.466-2.521-1.966-5.188-1.5-8 1.563 2.544 3.063 2.544 4.5 0 .929 1.189 1.262 2.522 1 4z"/><path style="opacity:1" fill="#394229" d="M83.5 226.5a19.17 19.17 0 0 1 5 2.5 90.527 90.527 0 0 1-4 11.5 34.456 34.456 0 0 0-3-6.5 25.94 25.94 0 0 0 4-4.5c-1.112-.765-1.779-1.765-2-3z"/><path style="opacity:1" fill="#485a30" d="M99.5 238.5c-1.333 0-2 .667-2 2 1.531 1.425 1.198 2.091-1 2a16.332 16.332 0 0 1-4-2c.762-.411 1.762-.577 3-.5-.237-2.288-.237-4.788 0-7.5h1c5.59-1.887 6.257-.887 2 3 .627.917.96 1.917 1 3z"/><path style="opacity:1" fill="#3b4f2a" d="M61.5 232.5c1.188-1.184 2.355-1.184 3.5 0l2-2c.326 2.832-.174 5.499-1.5 8-3.757.214-4.424-.786-2-3-1.112-.765-1.779-1.765-2-3z"/><path style="opacity:1" fill="#2d2f21" d="M110.5 227.5c.595 2.596 2.262 4.263 5 5-.257 2.903-.757 5.903-1.5 9 1.011.837 2.178 1.17 3.5 1a19.048 19.048 0 0 0-1-6c.623-2.91 2.457-4.576 5.5-5a15.256 15.256 0 0 0 1.5 4.5c2.177.345 4.177-.155 6-1.5 1.213.247 1.88.914 2 2-1.431.381-2.264 1.381-2.5 3l-1-1c-.335 2.69-1.501 3.357-3.5 2-1.251-2.061-2.918-2.394-5-1 .971 1.462.638 2.795-1 4-1.333 1.333-2.667 1.333-4 0-1.85.742-2.516 1.742-2 3l-1-5a107.015 107.015 0 0 1 2-9c-4.532-.622-6.698 1.378-6.5 6-2.7.545-4.533 2.545-5.5 6 .092-1.918-.574-3.918-2-6a5.577 5.577 0 0 0-1-3c4.257-3.887 3.59-4.887-2-3 1.786-3.548 3.952-3.548 6.5 0 .995-.566 1.828-1.233 2.5-2 2.785.584 4.452-.416 5-3z"/><path style="opacity:1" fill="#cbbedb" d="M29.5 232.5c2.275.611 3.941 1.945 5 4v2l-4-2c-.667 0-1-.333-1-1v-3z"/><path style="opacity:1" fill="#7b4788" d="M34.5 236.5c2.21.394 3.543 1.727 4 4l-4-2v-2z"/><path style="opacity:1" fill="#3e4c29" d="M74.5 231.5a2.429 2.429 0 0 1 2 .5c-.752.671-1.086 1.504-1 2.5v4c-.973 1.291-1.973 1.291-3 0l-2.5 3c.418-3.73 1.918-7.063 4.5-10z"/><path style="opacity:1" fill="#639349" d="M167.5 238.5c-.238 1.904-1.238 3.238-3 4 .238-1.904 1.238-3.238 3-4z"/><path style="opacity:1" fill="#62c048" d="M161.5 242.5h2c0 1.333-.667 2-2 2v-2z"/><path style="opacity:1" fill="#843b95" d="M41.5 242.5c1.333 0 2 .667 2 2-1.333 0-2-.667-2-2z"/><path style="opacity:1" fill="#d181ca" d="M159.5 242.5c0 1.333-.667 2-2 2 0-1.333.667-2 2-2z"/><path style="opacity:1" fill="#463843" d="M9.5 204.5c1.174 1.014 1.84 2.347 2 4 .412 3.302 1.745 5.969 4 8 2.97 7.616 7.636 13.949 14 19 0 .667.333 1 1 1 3.688 5.012 8.354 9.012 14 12 .321 1.548 1.321 2.215 3 2l4 4h-2a4.934 4.934 0 0 1-3-.5c-17.873-11.96-30.873-27.793-39-47.5 1.703 1.16 2.37.493 2-2z"/><path style="opacity:1" fill="#6c4393" d="M43.5 244.5h2c1.73.736 2.73 2.07 3 4-2.254-.624-3.92-1.957-5-4z"/><path style="opacity:1" fill="#9c5886" d="M156.5 244.5c-.271 1.93-1.271 3.264-3 4h-2c1.007-2.022 2.674-3.355 5-4z"/><path style="opacity:1" fill="#c5d5cd" d="M159.5 242.5h2v2c-1.45 2.11-3.45 3.443-6 4h-2c1.729-.736 2.729-2.07 3-4h1c1.333 0 2-.667 2-2z"/><path style="opacity:1" fill="#413839" d="M190.5 206.5c.667 0 1 .333 1 1-5.351 17.021-15.351 30.688-30 41-1.527-.073-2.527.594-3 2-8.222 6.778-17.556 11.444-28 14-2.198-.38-3.865.287-5 2-3.307.551-6.64.884-10 1-9.515.327-18.848-.006-28-1h23c3.329.285 6.329-.382 9-2a19.22 19.22 0 0 0 6-1c3.149.085 5.816-.915 8-3h2c1.653-.16 2.986-.826 4-2 1.653-.16 2.986-.826 4-2 1.679.215 2.679-.452 3-2h1c1.88.271 3.213-.396 4-2l2-2c1.333 0 2-.667 2-2 2.55-.557 4.55-1.89 6-4 1.333 0 2-.667 2-2h1c1.762-.762 2.762-2.096 3-4 6.257-5.577 11.757-11.91 16.5-19 1.126-4.918 3.292-9.252 6.5-13z"/><path style="opacity:1" fill="#4eab64" d="M44.5 248.5c1.21.432 2.21 1.099 3 2-1.679.215-2.679-.452-3-2z"/><path style="opacity:1" fill="#b5c7b9" d="m30.5 236.5 4 2 4 2c.722 1.051 1.722 1.718 3 2 0 1.333.667 2 2 2 1.08 2.043 2.746 3.376 5 4h1c.321 1.548 1.321 2.215 3 2 1.84 2.169 4.174 3.502 7 4 .233 1.562.9 2.895 2 4-3.608-.81-6.942-2.143-10-4l-4-4c-.79-.901-1.79-1.568-3-2-5.646-2.988-10.313-6.988-14-12z"/><path style="opacity:1" fill="#783ea7" d="M49.5 248.5h3v2c-1.679.215-2.679-.452-3-2z"/><path style="opacity:1" fill="#3e452b" d="M77.5 256.5c-2.113-.756-4.113-.923-6-.5 1.363-2.129 1.03-2.629-1-1.5a26.596 26.596 0 0 1-2-3.5l4-3c-2.705.013-5.205.846-7.5 2.5a3.944 3.944 0 0 1-2-1 8.435 8.435 0 0 0-.5 4c1.291-.237 2.291.096 3 1h-4a21.16 21.16 0 0 1-2-7c4.417.418 6.917-1.582 7.5-6 1.24 1.438 1.74 2.938 1.5 4.5 2.249.863 4.082.363 5.5-1.5l1 1c3.875-1.768 4.042-4.101.5-7 1.624.14 2.79-.527 3.5-2a35.021 35.021 0 0 1 3.5 10c.07 2.166-.596 2.499-2 1-.816 3.047-2.816 4.713-6 5 .825.886 1.825 1.219 3 1v3z"/><path style="opacity:1" fill="#3a5525" d="M93.5 246.5c1.502 2.329.836 3.663-2 4-1.182-1.503-1.682-3.17-1.5-5 1.011.837 2.178 1.17 3.5 1z"/><path style="opacity:1" fill="#5c5c3a" d="M141.5 253.5v1h-3c-1.38-2.219-1.046-4.219 1-6 1.45 1.35 2.117 3.016 2 5z"/><path style="opacity:1" fill="#a14bad" d="M151.5 248.5c-.683 1.676-2.017 2.343-4 2 .683-1.676 2.017-2.343 4-2z"/><path style="opacity:1" fill="#6bb43d" d="M153.5 248.5h2c0 1.333-.667 2-2 2v-2z"/><path style="opacity:1" fill="#c87bc4" d="M161.5 248.5c-.473 1.406-1.473 2.073-3 2 .473-1.406 1.473-2.073 3-2z"/><path style="opacity:1" fill="#5e3a6c" d="m52.5 248.5 4 3a6.544 6.544 0 0 1 3 3c-2.826-.498-5.16-1.831-7-4v-2z"/><path style="opacity:1" fill="#251b21" d="M77.5 256.5c1.265 2.622 3.265 4.288 6 5h-5c-1.068-.934-2.401-1.268-4-1-1.052-1.756-2.719-2.423-5-2-1.014-1.174-2.347-1.84-4-2v-2c-.709-.904-1.709-1.237-3-1a8.435 8.435 0 0 1 .5-4 3.944 3.944 0 0 0 2 1c2.295-1.654 4.795-2.487 7.5-2.5l-4 3a26.596 26.596 0 0 0 2 3.5c2.03-1.129 2.363-.629 1 1.5 1.887-.423 3.887-.256 6 .5z"/><path style="opacity:1" fill="#475430" d="M86.5 253.5c.59 1.597 1.59 2.931 3 4a13.115 13.115 0 0 1-7 1c-.13-.876.203-1.543 1-2 .896 1.006 1.562 1.006 2 0-2.27-1.641-4.602-2.475-7-2.5 1.82-2.244 4.154-3.41 7-3.5-.237 1.291.096 2.291 1 3z"/><path style="opacity:1" fill="#241d1e" d="M187.5 203.5v1a9.86 9.86 0 0 0-6 1c-1.573 2.336-2.906 2.336-4 0-1.982 1.47-3.648 1.136-5-1-.731 3.672-2.231 4.339-4.5 2-.678 2.098-.511 4.098.5 6-2.619-.268-5.119.065-7.5 1l-1.5-1.5c1.845-.187 3.511-1.02 5-2.5a12.403 12.403 0 0 0-2.5-4 15.256 15.256 0 0 1-4.5 1.5 3.647 3.647 0 0 0-1 1.5 87.287 87.287 0 0 1 2.5 7 15.256 15.256 0 0 0 4.5 1.5c-1.333.667-1.333 1.333 0 2a7.293 7.293 0 0 1-3 2c2.616 2.044 2.283 3.044-1 3-1.727-1.743-2.394-3.576-2-5.5-1.822-.037-3.822.296-6 1 .009-1.808-.491-3.475-1.5-5a14.325 14.325 0 0 1-2.5 5.5c.4 3.189-.766 3.356-3.5.5a55.747 55.747 0 0 0-5.5 4.5c2.274-.387 4.441-.554 6.5-.5a10.756 10.756 0 0 0 2.5 3c-2.644-.184-5.31.483-8 2 .379 1.713 1.379 2.713 3 3 .856 3.013 2.689 3.68 5.5 2l1.5 1.5c-1.095 1.675-2.595 2.842-4.5 3.5a25.381 25.381 0 0 1-6-7l-1 1a43.385 43.385 0 0 1-2-8c-2.825 1.084-2.992 2.251-.5 3.5-2.287 2.243-2.453 4.743-.5 7.5 1.316-2.528 2.483-2.528 3.5 0-1.975.775-2.809 2.109-2.5 4l2-2a26.317 26.317 0 0 1 4 6 7.293 7.293 0 0 0 2-3c.768 3.32 2.602 4.654 5.5 4a14.972 14.972 0 0 0-3-3.5c1.57-1.836 3.07-1.67 4.5.5 1.826-.51 1.993-1.344.5-2.5 3.311-5.523 1.645-8.023-5-7.5.77-2.435 2.437-3.769 5-4-.065.438.101.772.5 1 .408-1.91 1.575-2.91 3.5-3 1.847 1.011 3.68 2.011 5.5 3a13.015 13.015 0 0 1 4.5-4c-1.901-1.435-2.234-3.102-1-5 1.688 1.529 3.021 3.363 4 5.5a81.316 81.316 0 0 0-3 2.5 14.698 14.698 0 0 1-3 3.5c2.186.061 4.186.228 6 .5a28.208 28.208 0 0 0-1.5 4c-2.403 1.565-4.236 3.565-5.5 6h-2c-1.333 0-2 .667-2 2h-1c-2.326.645-3.993 1.978-5 4-1.983-.343-3.317.324-4 2l-2 2c-1.459-.067-2.792.266-4 1 .117-1.984-.55-3.65-2-5-2.046 1.781-2.38 3.781-1 6a27.195 27.195 0 0 0-5 3c-.342.838-1.008 1.172-2 1-1.983-.343-3.317.324-4 2h-3c-5.59.348-10.923 1.348-16 3h-1c-6.819.371-13.486-.295-20-2-1.052-2.155-.386-2.488 2-1a7.253 7.253 0 0 0 2.5-2c.708.881 1.542 1.547 2.5 2 .656-.778 1.489-1.444 2.5-2 4.516 3.121 8.183 2.455 11-2 2.552 2.694 3.719 2.027 3.5-2h-4c-.562-3.63-1.895-4.297-4-2-.656-.778-1.489-1.444-2.5-2-3.535 4.319-5.368 3.652-5.5-2h3a15.904 15.904 0 0 1 1-6.5c-.336-1.03-1.003-1.53-2-1.5 0-1.333.667-2 2-2 1.426 2.082 2.092 4.082 2 6 .967-3.455 2.8-5.455 5.5-6-.198-4.622 1.968-6.622 6.5-6a107.015 107.015 0 0 0-2 9l1 5c-.516-1.258.15-2.258 2-3 1.333 1.333 2.667 1.333 4 0 1.638-1.205 1.971-2.538 1-4 2.082-1.394 3.749-1.061 5 1h-3c.172 4.471 1.006 4.804 2.5 1 1.416 3.635 3.416 3.968 6 1a10.098 10.098 0 0 0 1.5-6c-.12-1.086-.787-1.753-2-2-1.823 1.345-3.823 1.845-6 1.5a15.256 15.256 0 0 1-1.5-4.5c-3.043.424-4.877 2.09-5.5 5a19.048 19.048 0 0 1 1 6c-1.322.17-2.489-.163-3.5-1 .743-3.097 1.243-6.097 1.5-9-2.738-.737-4.405-2.404-5-5-.417-.624-1.084-.957-2-1a58.53 58.53 0 0 1-3 2c-1.476-2.209-.809-3.542 2-4 3.703.442 6.203 2.442 7.5 6 .667-1.333 1.333-1.333 2 0 .073-2.613-.761-4.946-2.5-7l1.5-3c.775 1.723 2.108 2.723 4 3 2.946-1.286 4.112-3.619 3.5-7a5.727 5.727 0 0 0 1-3c.891.61 1.891.943 3 1 1.431.381 2.264 1.381 2.5 3 2.026-.415 3.526-1.415 4.5-3h3v-4c2.711.315 5.044-.352 7-2 .768-.763 1.268-1.763 1.5-3 1.159 1.066 1.992.733 2.5-1l2-1c.736-1.729 2.07-2.729 4-3 .25 1.422 1.083 2.422 2.5 3a171.69 171.69 0 0 1 14-5c.5 1.833 1.667 3 3.5 3.5 3.162.602 6.162.102 9-1.5 2.153.061 3.486 1.061 4 3z"/><path style="opacity:1" fill="#373f2a" d="M132.5 241.5c1.879-.107 2.212.393 1 1.5 1.176 1.914 2.176 1.748 3-.5a9.86 9.86 0 0 1 1 6h-3c-1.235 2.273-.902 4.106 1 5.5-2.907.854-5.24.021-7-2.5-.498 1.103-.831 2.103-1 3-1.823-1.247-3.823-1.914-6-2 .214-1.644-.12-3.144-1-4.5a4.457 4.457 0 0 1 2-1.5c1.521.38 3.187.546 5 .5a12.403 12.403 0 0 0-4 2.5c-1.006.896-1.006 1.562 0 2a10.408 10.408 0 0 0 5-3c1.468 1.833 3.135 2.166 5 1 .528-1.885-.138-3.552-2-5a10.014 10.014 0 0 1 1-3z"/><path style="opacity:1" fill="#374325" d="M105.5 240.5c2.258.275 2.592 1.275 1 3 3.737.999 3.737 2.332 0 4-3.499-2.023-3.832-4.356-1-7z"/><path style="opacity:1" fill="#3d512e" d="M131.5 236.5a10.098 10.098 0 0 1-1.5 6c-2.584 2.968-4.584 2.635-6-1-1.494 3.804-2.328 3.471-2.5-1h3c1.999 1.357 3.165.69 3.5-2l1 1c.236-1.619 1.069-2.619 2.5-3z"/><path style="opacity:1" fill="#4b552f" d="M142.5 232.5h4c6.645-.523 8.311 1.977 5 7.5 1.493 1.156 1.326 1.99-.5 2.5-1.43-2.17-2.93-2.336-4.5-.5a14.972 14.972 0 0 1 3 3.5c-2.898.654-4.732-.68-5.5-4a7.293 7.293 0 0 1-2 3 26.317 26.317 0 0 0-4-6l-2 2c-.309-1.891.525-3.225 2.5-4-1.017-2.528-2.184-2.528-3.5 0-1.953-2.757-1.787-5.257.5-7.5-2.492-1.249-2.325-2.416.5-3.5a43.385 43.385 0 0 0 2 8l1-1a25.381 25.381 0 0 0 6 7c1.905-.658 3.405-1.825 4.5-3.5l-1.5-1.5c-2.811 1.68-4.644 1.013-5.5-2z"/><path style="opacity:1" fill="#4b5d32" d="M155.5 232.5c2.989.495 5.656.995 8 1.5-1.449 1.117-3.116 1.784-5 2l-3.5 4.5a31.6 31.6 0 0 1 .5-8z"/><path style="opacity:1" fill="#3c432a" d="M151.5 219.5c-2.529 3.066-2.529 6.066 0 9-2.563.231-4.23 1.565-5 4h-4c-1.621-.287-2.621-1.287-3-3 2.69-1.517 5.356-2.184 8-2a10.756 10.756 0 0 1-2.5-3c-2.059-.054-4.226.113-6.5.5a55.747 55.747 0 0 1 5.5-4.5c2.734 2.856 3.9 2.689 3.5-.5a14.325 14.325 0 0 0 2.5-5.5c1.009 1.525 1.509 3.192 1.5 5z"/><path style="opacity:1" fill="#345227" d="M145.5 213.5c1.548.321 2.215 1.321 2 3-2.748.098-3.414-.902-2-3z"/><path style="opacity:1" fill="#c05b9a" d="M145.5 252.5c-1.014 1.174-2.347 1.84-4 2v-1c1.208-.734 2.541-1.067 4-1z"/><path style="opacity:1" fill="#49a35f" d="M151.5 252.5c-.787 1.604-2.12 2.271-4 2 .787-1.604 2.12-2.271 4-2z"/><path style="opacity:1" fill="#6645a4" d="M49.5 254.5h2v2c-1.333 0-2-.667-2-2z"/><path style="opacity:1" fill="#5a3494" d="M61.5 254.5h4v2c-1.983.343-3.317-.324-4-2z"/><path style="opacity:1" fill="#9854a5" d="M138.5 254.5h1c-1.284 2.114-3.284 3.114-6 3a27.195 27.195 0 0 1 5-3z"/><path style="opacity:1" fill="#84be46" d="M146.5 254.5c-.321 1.548-1.321 2.215-3 2 .473-1.406 1.473-2.073 3-2z"/><path style="opacity:1" fill="#ccd2d1" d="M151.5 248.5h2v2l-2 2c-1.88-.271-3.213.396-4 2h-1c-1.527-.073-2.527.594-3 2-1.014 1.174-2.347 1.84-4 2-1.88-.271-3.213.396-4 2h-6l2-2c.992.172 1.658-.162 2-1 2.716.114 4.716-.886 6-3h2c1.653-.16 2.986-.826 4-2l2-2c1.983.343 3.317-.324 4-2z"/><path style="opacity:1" fill="#526434" d="M94.5 260.5c.552-1.831.552-3.497 0-5 .825-.886 1.825-1.219 3-1 .553 3.956 1.386 3.956 2.5 0a4.457 4.457 0 0 0 1.5 2c1.211-.774 1.211-1.607 0-2.5.916-.278 1.582-.778 2-1.5 2.105-2.297 3.438-1.63 4 2h4c.219 4.027-.948 4.694-3.5 2-2.817 4.455-6.484 5.121-11 2-1.011.556-1.844 1.222-2.5 2z"/><path style="opacity:1" fill="#a540b3" d="M69.5 258.5c2.281-.423 3.948.244 5 2h-2l-3-2z"/><path style="opacity:1" fill="#302e24" d="M97.5 240.5c.997-.03 1.664.47 2 1.5a15.904 15.904 0 0 0-1 6.5h-3c.132 5.652 1.965 6.319 5.5 2 1.011.556 1.844 1.222 2.5 2-.418.722-1.084 1.222-2 1.5 1.211.893 1.211 1.726 0 2.5a4.457 4.457 0 0 1-1.5-2c-1.114 3.956-1.947 3.956-2.5 0-1.175-.219-2.175.114-3 1 .552 1.503.552 3.169 0 5-.958-.453-1.792-1.119-2.5-2a7.253 7.253 0 0 1-2.5 2c-2.386-1.488-3.052-1.155-2 1h-4c-2.735-.712-4.735-2.378-6-5 2.054-.135 3.72.532 5 2a13.115 13.115 0 0 0 7-1c-1.41-1.069-2.41-2.403-3-4 1.4-1.39 3.066-2.39 5-3 2.836-.337 3.502-1.671 2-4h3v-4c2.198.091 2.531-.575 1-2z"/><path style="opacity:1" fill="#af64b3" d="M55.5 258.5c1.527-.073 2.527.594 3 2-1.527.073-2.527-.594-3-2z"/><path style="opacity:1" fill="#3ba44d" d="M61.5 258.5c1.88-.271 3.213.396 4 2-1.88.271-3.213-.396-4-2z"/><path style="opacity:1" fill="#c5bcd5" d="M59.5 254.5h2c.683 1.676 2.017 2.343 4 2 1.653.16 2.986.826 4 2l3 2h-7c-.787-1.604-2.12-2.271-4-2-1.1-1.105-1.767-2.438-2-4z"/><path style="opacity:1" fill="#ad38a9" d="m131.5 258.5-2 2h-2c.683-1.676 2.017-2.343 4-2z"/><path style="opacity:1" fill="#54c955" d="M139.5 258.5c-1.014 1.174-2.347 1.84-4 2 .787-1.604 2.12-2.271 4-2z"/><path style="opacity:1" fill="#87af52" d="M129.5 260.5h4c-2.184 2.085-4.851 3.085-8 3l4-3z"/><path style="opacity:1" fill="#342f32" d="M51.5 254.5c3.058 1.857 6.392 3.19 10 4 .787 1.604 2.12 2.271 4 2h2c.11.617.444 1.117 1 1.5 4.334.9 8.668 1.734 13 2.5l4 2h-10c-1.602-1.574-3.602-2.241-6-2h-1c-1.82-1.948-4.154-2.948-7-3a5.727 5.727 0 0 0-3-1c-.473-1.406-1.473-2.073-3-2-1.653-.16-2.986-.826-4-2v-2z"/><path style="opacity:1" fill="#8b5693" d="M78.5 261.5h9c6.514 1.705 13.181 2.371 20 2v1h-17a135.786 135.786 0 0 1-12-3z"/><path style="opacity:1" fill="#924f98" d="M124.5 260.5c-.111.617-.444 1.117-1 1.5a152.41 152.41 0 0 1-15 1.5c5.077-1.652 10.41-2.652 16-3z"/><path style="opacity:1" fill="#9876a7" d="M61.5 261.5c2.846.052 5.18 1.052 7 3-2.657-.435-4.99-1.435-7-3z"/><path style="opacity:1" fill="#bccbbb" d="M67.5 260.5h7c1.599-.268 2.932.066 4 1a135.786 135.786 0 0 0 12 3h-9c-4.332-.766-8.666-1.6-13-2.5-.556-.383-.89-.883-1-1.5z"/><path style="opacity:1" fill="#d2cbd5" d="M124.5 260.5h5l-4 3a19.22 19.22 0 0 1-6 1h-12v-1h1a152.41 152.41 0 0 0 15-1.5c.556-.383.889-.883 1-1.5z"/><path style="opacity:1" fill="#47ae42" d="M81.5 264.5h8l3 2h-7l-4-2z"/><path style="opacity:1" fill="#abd2b3" d="M89.5 264.5h22l-1 2h-18l-3-2z"/><path style="opacity:1" fill="#5cbc48" d="M111.5 264.5h8c-2.671 1.618-5.671 2.285-9 2l1-2z"/><path style="opacity:1" fill="#a45aac" d="M69.5 264.5c2.398-.241 4.398.426 6 2-2.398.241-4.398-.426-6-2z"/><path style="opacity:1" fill="#c170c2" d="M130.5 264.5c-1.052 1.756-2.719 2.423-5 2 1.135-1.713 2.802-2.38 5-2z"/><path style="opacity:1" fill="#352e62" d="M78.5 266.5h9c9.152.994 18.485 1.327 28 1v1h-33l-4-2z"/></svg>