<?xml version="1.0" encoding="UTF-8"?>
<!DOCTYPE svg PUBLIC "-//W3C//DTD SVG 1.1//EN" "http://www.w3.org/Graphics/SVG/1.1/DTD/svg11.dtd">
<svg xmlns="http://www.w3.org/2000/svg" version="1.1" width="193px" height="208px" style="shape-rendering:geometricPrecision; text-rendering:geometricPrecision; image-rendering:optimizeQuality; fill-rule:evenodd; clip-rule:evenodd" xmlns:xlink="http://www.w3.org/1999/xlink">
<g><path style="opacity:1" fill="#fdfdfc" d="M -0.5,-0.5 C 63.8333,-0.5 128.167,-0.5 192.5,-0.5C 192.5,68.8333 192.5,138.167 192.5,207.5C 128.167,207.5 63.8333,207.5 -0.5,207.5C -0.5,138.167 -0.5,68.8333 -0.5,-0.5 Z"/></g>
<g><path style="opacity:1" fill="#455693" d="M 111.5,11.5 C 134.859,11.2075 158.193,11.5408 181.5,12.5C 181.667,40.1687 181.5,67.8353 181,95.5C 179.621,102.107 178.787,108.773 178.5,115.5C 178.067,118.166 177.567,120.832 177,123.5C 175.191,126.778 173.691,130.111 172.5,133.5C 168.094,132.796 163.76,131.796 159.5,130.5C 157.716,130.107 156.05,129.441 154.5,128.5C 153.909,127.849 153.243,127.182 152.5,126.5C 152.709,125.914 153.043,125.414 153.5,125C 140.466,121.58 141.133,120.08 155.5,120.5C 155.5,121.833 155.5,123.167 155.5,124.5C 160.431,126.264 165.264,128.264 170,130.5C 170.5,130.167 171,129.833 171.5,129.5C 170.689,128.784 170.022,127.95 169.5,127C 173.415,123.341 175.915,118.841 177,113.5C 177.282,107.784 177.948,102.117 179,96.5C 179.5,68.8353 179.667,41.1687 179.5,13.5C 160.497,13.3334 141.497,13.5001 122.5,14C 120.372,16.0081 120.705,17.8414 123.5,19.5C 122.5,20.8333 121.5,22.1667 120.5,23.5C 120.167,23.5 119.833,23.5 119.5,23.5C 118.402,22.3991 118.235,21.0657 119,19.5C 119.654,20.6956 120.154,20.6956 120.5,19.5C 120.081,18.3279 119.415,17.3279 118.5,16.5C 117.576,18.3905 116.243,19.8905 114.5,21C 115.167,22.3333 115.833,23.6667 116.5,25C 115.061,25.9906 114.061,27.324 113.5,29C 112.552,29.4828 111.552,29.6495 110.5,29.5C 111.329,24.6061 111.662,19.7728 111.5,15C 90.1667,14.6667 68.8333,14.3333 47.5,14C 69.1902,14.158 90.5235,13.3247 111.5,11.5 Z"/></g>
<g><path style="opacity:1" fill="#49588e" d="M 47.5,11.5 C 36.4315,12.1767 25.2648,12.8433 14,13.5C 13.5,40.8313 13.3334,68.1646 13.5,95.5C 12.8333,95.5 12.1667,95.5 11.5,95.5C 11.5,95.1667 11.5,94.8333 11.5,94.5C 12.4979,67.005 12.8313,39.3384 12.5,11.5C 24.1667,11.5 35.8333,11.5 47.5,11.5 Z"/></g>
<g><path style="opacity:1" fill="#7c7a82" d="M 113.5,10.5 C 91.5,10.5 69.5,10.5 47.5,10.5C 35.5,10.5 23.5,10.5 11.5,10.5C 11.5,38.5 11.5,66.5 11.5,94.5C 11.5,94.8333 11.5,95.1667 11.5,95.5C 10.502,67.0049 10.1687,38.3382 10.5,9.5C 45.0041,9.16832 79.3374,9.50165 113.5,10.5 Z"/></g>
<g><path style="opacity:1" fill="#0a1334" d="M 47.5,10.5 C 47.5,10.8333 47.5,11.1667 47.5,11.5C 35.8333,11.5 24.1667,11.5 12.5,11.5C 12.8313,39.3384 12.4979,67.005 11.5,94.5C 11.5,66.5 11.5,38.5 11.5,10.5C 23.5,10.5 35.5,10.5 47.5,10.5 Z"/></g>
<g><path style="opacity:1" fill="#131529" d="M 47.5,11.5 C 47.5,11.1667 47.5,10.8333 47.5,10.5C 69.5,10.5 91.5,10.5 113.5,10.5C 136.5,10.5 159.5,10.5 182.5,10.5C 182.667,41.1685 182.5,71.8351 182,102.5C 181.386,107.11 180.22,111.443 178.5,115.5C 178.787,108.773 179.621,102.107 181,95.5C 181.5,67.8353 181.667,40.1687 181.5,12.5C 158.193,11.5408 134.859,11.2075 111.5,11.5C 90.1667,11.5 68.8333,11.5 47.5,11.5 Z"/></g>
<g><path style="opacity:1" fill="#2e334d" d="M 11.5,95.5 C 12.1667,95.5 12.8333,95.5 13.5,95.5C 14.84,101.718 15.6733,108.052 16,114.5C 18.0556,118.268 19.2223,122.268 19.5,126.5C 17.3523,123.597 15.8523,120.264 15,116.5C 13.3789,109.563 12.2122,102.563 11.5,95.5 Z"/></g>
<g><path style="opacity:1" fill="#3f579f" d="M 47.5,11.5 C 68.8333,11.5 90.1667,11.5 111.5,11.5C 90.5235,13.3247 69.1902,14.158 47.5,14C 68.8333,14.3333 90.1667,14.6667 111.5,15C 111.662,19.7728 111.329,24.6061 110.5,29.5C 111.552,29.6495 112.552,29.4828 113.5,29C 114.061,27.324 115.061,25.9906 116.5,25C 115.833,23.6667 115.167,22.3333 114.5,21C 116.243,19.8905 117.576,18.3905 118.5,16.5C 119.415,17.3279 120.081,18.3279 120.5,19.5C 120.154,20.6956 119.654,20.6956 119,19.5C 118.235,21.0657 118.402,22.3991 119.5,23.5C 118.361,26.0037 117.694,28.6703 117.5,31.5C 116.2,34.4323 114.2,36.7656 111.5,38.5C 100.833,38.5 90.1667,38.5 79.5,38.5C 76.7591,33.3527 73.7591,28.3527 70.5,23.5C 67.9655,28.5951 64.9655,33.2617 61.5,37.5C 56.0313,38.0746 50.6979,38.7412 45.5,39.5C 48.9844,44.4557 51.3178,49.789 52.5,55.5C 51.5,55.5 50.5,55.5 49.5,55.5C 49.9819,58.8306 48.9819,61.4973 46.5,63.5C 44.9519,63.8212 44.2852,64.8212 44.5,66.5C 50.1667,66.5 55.8333,66.5 61.5,66.5C 64.8812,70.253 67.5478,74.5863 69.5,79.5C 69.7215,81.6636 70.7215,83.3303 72.5,84.5C 73.9744,85.4363 74.9744,86.7697 75.5,88.5C 75.5111,90.5466 75.8444,92.5466 76.5,94.5C 75.0111,97.5006 73.6778,100.501 72.5,103.5C 71.6618,103.842 71.3284,104.508 71.5,105.5C 70.596,106.209 70.2627,107.209 70.5,108.5C 75.5,108.5 80.5,108.5 85.5,108.5C 85.5198,110.143 84.8532,111.476 83.5,112.5C 83.8333,112.833 84.1667,113.167 84.5,113.5C 85.8498,112.05 87.5165,111.383 89.5,111.5C 89.3359,114.187 89.5026,116.854 90,119.5C 90.5354,117.729 91.3687,117.396 92.5,118.5C 92.0233,119.478 91.3567,120.311 90.5,121C 88.2852,121.17 86.2852,121.837 84.5,123C 88.4834,123.004 92.4834,122.671 96.5,122C 97.5679,118.881 99.7346,117.048 103,116.5C 103.003,113.251 104.17,110.584 106.5,108.5C 111.833,108.5 117.167,108.5 122.5,108.5C 121.964,105.445 121.131,102.445 120,99.5C 117.981,98.6426 116.481,97.3092 115.5,95.5C 115.167,95.5 114.833,95.5 114.5,95.5C 114.167,92.5 115.5,91.1667 118.5,91.5C 118.343,90.1266 118.51,88.7932 119,87.5C 120.439,89.0139 121.939,89.3473 123.5,88.5C 122.975,87.8076 122.308,87.3076 121.5,87C 128.46,85.9441 128.793,85.1108 122.5,84.5C 125.022,80.2492 126.689,75.5826 127.5,70.5C 128.627,69.8783 129.627,69.045 130.5,68C 136.491,67.5005 142.491,67.3338 148.5,67.5C 147.455,62.4061 145.122,58.0728 141.5,54.5C 139.448,53.9473 139.115,52.9473 140.5,51.5C 142.829,50.6671 144.329,49.0004 145,46.5C 145.893,47.7112 146.726,47.7112 147.5,46.5C 147.069,45.7065 146.735,44.8732 146.5,44C 147.856,42.4329 148.523,40.5996 148.5,38.5C 143.156,38.666 137.823,38.4994 132.5,38C 130.353,35.8376 130.353,33.5043 132.5,31C 130.655,29.872 128.655,29.372 126.5,29.5C 126.643,27.7376 126.309,26.0709 125.5,24.5C 128.213,22.8173 128.713,20.8173 127,18.5C 125.665,19.0795 124.498,19.4128 123.5,19.5C 120.705,17.8414 120.372,16.0081 122.5,14C 141.497,13.5001 160.497,13.3334 179.5,13.5C 179.667,41.1687 179.5,68.8353 179,96.5C 177.948,102.117 177.282,107.784 177,113.5C 175.915,118.841 173.415,123.341 169.5,127C 170.022,127.95 170.689,128.784 171.5,129.5C 171,129.833 170.5,130.167 170,130.5C 165.264,128.264 160.431,126.264 155.5,124.5C 155.5,123.167 155.5,121.833 155.5,120.5C 141.133,120.08 140.466,121.58 153.5,125C 153.043,125.414 152.709,125.914 152.5,126.5C 153.243,127.182 153.909,127.849 154.5,128.5C 153.5,128.5 152.5,128.5 151.5,128.5C 151.586,127.504 151.252,126.671 150.5,126C 147.16,125.547 143.826,125.047 140.5,124.5C 137.53,124.969 134.864,126.135 132.5,128C 133.737,128.232 134.737,128.732 135.5,129.5C 130.895,130.787 126.229,132.121 121.5,133.5C 109.816,131.014 109.816,129.18 121.5,128C 117.37,127.328 113.37,127.828 109.5,129.5C 105.068,128.877 104.735,127.877 108.5,126.5C 107.086,125.376 105.586,124.376 104,123.5C 102.599,125.192 100.766,125.859 98.5,125.5C 96.4727,125.338 94.4727,125.505 92.5,126C 91.944,126.383 91.6107,126.883 91.5,127.5C 86.1667,129.5 80.8333,131.5 75.5,133.5C 72.5739,132.539 69.5739,131.873 66.5,131.5C 65.209,131.737 64.209,131.404 63.5,130.5C 61.4855,129.076 59.1522,128.41 56.5,128.5C 55.5084,128.672 54.8417,128.338 54.5,127.5C 50.9563,125.431 47.2896,125.098 43.5,126.5C 40.7016,127.869 37.7016,128.869 34.5,129.5C 31.1788,129.464 28.0121,130.131 25,131.5C 22.6821,130.348 20.8487,128.681 19.5,126.5C 19.2223,122.268 18.0556,118.268 16,114.5C 15.6733,108.052 14.84,101.718 13.5,95.5C 13.3334,68.1646 13.5,40.8313 14,13.5C 25.2648,12.8433 36.4315,12.1767 47.5,11.5 Z"/></g>
<g><path style="opacity:1" fill="#3a4363" d="M 71.5,105.5 C 76.3958,107.446 81.7291,108.113 87.5,107.5C 88.1667,108.833 88.8333,110.167 89.5,111.5C 87.5165,111.383 85.8498,112.05 84.5,113.5C 84.1667,113.167 83.8333,112.833 83.5,112.5C 84.8532,111.476 85.5198,110.143 85.5,108.5C 80.5,108.5 75.5,108.5 70.5,108.5C 70.2627,107.209 70.596,106.209 71.5,105.5 Z"/></g>
<g><path style="opacity:1" fill="#2e2d41" d="M 115.5,95.5 C 116.481,97.3092 117.981,98.6426 120,99.5C 121.131,102.445 121.964,105.445 122.5,108.5C 117.167,108.5 111.833,108.5 106.5,108.5C 105.391,108.557 104.391,108.89 103.5,109.5C 108.774,107.863 114.441,106.863 120.5,106.5C 118.525,102.889 116.858,99.2226 115.5,95.5 Z"/></g>
<g><path style="opacity:1" fill="#5c502f" d="M 72.5,103.5 C 72.5,104.5 72.5,105.5 72.5,106.5C 77.6946,106.179 82.6946,106.513 87.5,107.5C 81.7291,108.113 76.3958,107.446 71.5,105.5C 71.3284,104.508 71.6618,103.842 72.5,103.5 Z"/></g>
<g><path style="opacity:1" fill="#393b53" d="M 75.5,88.5 C 76.8598,90.0463 77.8598,91.8796 78.5,94C 77.3156,96.5098 76.149,99.0098 75,101.5C 74.2917,102.381 73.4584,103.047 72.5,103.5C 73.6778,100.501 75.0111,97.5006 76.5,94.5C 75.8444,92.5466 75.5111,90.5466 75.5,88.5 Z"/></g>
<g><path style="opacity:1" fill="#424c70" d="M 127.5,70.5 C 126.689,75.5826 125.022,80.2492 122.5,84.5C 128.793,85.1108 128.46,85.9441 121.5,87C 122.308,87.3076 122.975,87.8076 123.5,88.5C 121.939,89.3473 120.439,89.0139 119,87.5C 118.51,88.7932 118.343,90.1266 118.5,91.5C 115.5,91.1667 114.167,92.5 114.5,95.5C 113.402,94.3991 113.235,93.0657 114,91.5C 116.031,88.6447 118.197,85.978 120.5,83.5C 121.885,82.0527 121.552,81.0527 119.5,80.5C 119.296,78.3146 118.63,76.3146 117.5,74.5C 119.145,75.4787 120.479,76.812 121.5,78.5C 123.996,76.1612 125.996,73.4945 127.5,70.5 Z"/></g>
<g><path style="opacity:1" fill="#9d9248" d="M 95.5,65.5 C 96.1667,65.8333 96.8333,66.1667 97.5,66.5C 98.1667,67.8333 98.8333,69.1667 99.5,70.5C 101.265,73.7089 103.265,76.7089 105.5,79.5C 105.5,79.8333 105.5,80.1667 105.5,80.5C 110.749,80.8587 115.749,81.8587 120.5,83.5C 118.197,85.978 116.031,88.6447 114,91.5C 113.235,93.0657 113.402,94.3991 114.5,95.5C 114.833,95.5 115.167,95.5 115.5,95.5C 116.858,99.2226 118.525,102.889 120.5,106.5C 114.441,106.863 108.774,107.863 103.5,109.5C 100.842,112.803 98.1751,116.136 95.5,119.5C 93.0908,117.098 91.0908,114.431 89.5,111.5C 88.8333,110.167 88.1667,108.833 87.5,107.5C 82.6946,106.513 77.6946,106.179 72.5,106.5C 72.5,105.5 72.5,104.5 72.5,103.5C 73.4584,103.047 74.2917,102.381 75,101.5C 76.149,99.0098 77.3156,96.5098 78.5,94C 77.8598,91.8796 76.8598,90.0463 75.5,88.5C 74.9744,86.7697 73.9744,85.4363 72.5,84.5C 72.5,83.5 72.5,82.5 72.5,81.5C 77.9443,82.1083 82.9443,81.4417 87.5,79.5C 89.7664,75.9663 91.7664,72.2996 93.5,68.5C 94.9063,68.0269 95.573,67.0269 95.5,65.5 Z"/></g>
<g><path style="opacity:1" fill="#4f4b32" d="M 105.5,80.5 C 110.167,80.5 114.833,80.5 119.5,80.5C 121.552,81.0527 121.885,82.0527 120.5,83.5C 115.749,81.8587 110.749,80.8587 105.5,80.5 Z"/></g>
<g><path style="opacity:1" fill="#5d5a41" d="M 71.5,78.5 C 73.0478,79.7943 75.0478,80.4609 77.5,80.5C 80.8547,80.2762 84.188,79.9428 87.5,79.5C 82.9443,81.4417 77.9443,82.1083 72.5,81.5C 72.5,82.5 72.5,83.5 72.5,84.5C 70.7215,83.3303 69.7215,81.6636 69.5,79.5C 70.1667,79.1667 70.8333,78.8333 71.5,78.5 Z"/></g>
<g><path style="opacity:1" fill="#414e87" d="M 93.5,67.5 C 93.5,67.8333 93.5,68.1667 93.5,68.5C 91.7664,72.2996 89.7664,75.9663 87.5,79.5C 84.188,79.9428 80.8547,80.2762 77.5,80.5C 75.0478,80.4609 73.0478,79.7943 71.5,78.5C 73.142,74.8792 75.142,71.5459 77.5,68.5C 75.9034,71.441 76.2367,74.1077 78.5,76.5C 77.2178,79.1326 75.8844,79.1326 74.5,76.5C 73.5,76.8333 72.8333,77.5 72.5,78.5C 75.3719,79.7825 78.2053,79.7825 81,78.5C 81.33,75.589 82.4967,73.089 84.5,71C 87.962,70.6857 90.962,69.519 93.5,67.5 Z"/></g>
<g><path style="opacity:1" fill="#415391" d="M 97.5,66.5 C 102.833,66.5 108.167,66.5 113.5,66.5C 115.284,68.9483 116.618,71.615 117.5,74.5C 118.63,76.3146 119.296,78.3146 119.5,80.5C 114.833,80.5 110.167,80.5 105.5,80.5C 105.5,80.1667 105.5,79.8333 105.5,79.5C 105.007,75.366 103.007,72.366 99.5,70.5C 98.8333,69.1667 98.1667,67.8333 97.5,66.5 Z"/></g>
<g><path style="opacity:1" fill="#3a3d46" d="M 99.5,70.5 C 103.007,72.366 105.007,75.366 105.5,79.5C 103.265,76.7089 101.265,73.7089 99.5,70.5 Z"/></g>
<g><path style="opacity:1" fill="#44589e" d="M 93.5,67.5 C 90.962,69.519 87.962,70.6857 84.5,71C 82.4967,73.089 81.33,75.589 81,78.5C 78.2053,79.7825 75.3719,79.7825 72.5,78.5C 72.8333,77.5 73.5,76.8333 74.5,76.5C 75.8844,79.1326 77.2178,79.1326 78.5,76.5C 76.2367,74.1077 75.9034,71.441 77.5,68.5C 80.1904,66.9353 83.1904,66.2687 86.5,66.5C 89.0254,66.5034 91.3587,66.8367 93.5,67.5 Z"/></g>
<g><path style="opacity:1" fill="#323453" d="M 141.5,54.5 C 145.122,58.0728 147.455,62.4061 148.5,67.5C 142.491,67.3338 136.491,67.5005 130.5,68C 129.627,69.045 128.627,69.8783 127.5,70.5C 127.733,68.9382 128.4,67.6049 129.5,66.5C 135.206,66.8288 140.872,66.4954 146.5,65.5C 146.376,64.8933 146.043,64.56 145.5,64.5C 144.167,61.1667 142.833,57.8333 141.5,54.5 Z"/></g>
<g><path style="opacity:1" fill="#726d45" d="M 145.5,64.5 C 146.043,64.56 146.376,64.8933 146.5,65.5C 140.872,66.4954 135.206,66.8288 129.5,66.5C 134.833,65.8333 140.167,65.1667 145.5,64.5 Z"/></g>
<g><path style="opacity:1" fill="#5d4c30" d="M 95.5,65.5 C 95.5,65.1667 95.5,64.8333 95.5,64.5C 96.1667,64.5 96.8333,64.5 97.5,64.5C 102.833,65.1667 108.167,65.8333 113.5,66.5C 108.167,66.5 102.833,66.5 97.5,66.5C 96.8333,66.1667 96.1667,65.8333 95.5,65.5 Z"/></g>
<g><path style="opacity:1" fill="#4b3c33" d="M 95.5,65.5 C 95.573,67.0269 94.9063,68.0269 93.5,68.5C 93.5,68.1667 93.5,67.8333 93.5,67.5C 91.3587,66.8367 89.0254,66.5034 86.5,66.5C 83.1904,66.2687 80.1904,66.9353 77.5,68.5C 77.4142,67.5041 77.7476,66.6708 78.5,66C 84.1569,65.5006 89.8236,65.3339 95.5,65.5 Z"/></g>
<g><path style="opacity:1" fill="#3a312f" d="M 46.5,63.5 C 51.2514,65.1413 56.2514,66.1413 61.5,66.5C 55.8333,66.5 50.1667,66.5 44.5,66.5C 44.2852,64.8212 44.9519,63.8212 46.5,63.5 Z"/></g>
<g><path style="opacity:1" fill="#414762" d="M 100.5,58.5 C 100.385,60.9468 99.385,62.9468 97.5,64.5C 96.8333,64.5 96.1667,64.5 95.5,64.5C 94.075,63.078 93.075,61.4113 92.5,59.5C 93.4822,60.1408 94.4822,60.8075 95.5,61.5C 96.9397,60.0476 98.6064,59.0476 100.5,58.5 Z"/></g>
<g><path style="opacity:1" fill="#9f9346" d="M 123.5,25.5 C 125.884,30.133 128.551,34.633 131.5,39C 136.833,39.3333 142.167,39.6667 147.5,40C 145.375,43.9587 143.042,47.792 140.5,51.5C 139.115,52.9473 139.448,53.9473 141.5,54.5C 142.833,57.8333 144.167,61.1667 145.5,64.5C 140.167,65.1667 134.833,65.8333 129.5,66.5C 128.4,67.6049 127.733,68.9382 127.5,70.5C 125.996,73.4945 123.996,76.1612 121.5,78.5C 120.479,76.812 119.145,75.4787 117.5,74.5C 116.618,71.615 115.284,68.9483 113.5,66.5C 108.167,65.8333 102.833,65.1667 97.5,64.5C 99.385,62.9468 100.385,60.9468 100.5,58.5C 102.306,56.9106 103.639,54.9106 104.5,52.5C 103.309,49.432 101.642,46.7654 99.5,44.5C 99.5,43.8333 99.1667,43.5 98.5,43.5C 98.4606,42.4168 98.1272,41.4168 97.5,40.5C 102.317,39.8331 106.983,39.1665 111.5,38.5C 114.2,36.7656 116.2,34.4323 117.5,31.5C 118.712,29.0934 120.212,26.76 122,24.5C 122.383,25.056 122.883,25.3893 123.5,25.5 Z"/></g>
<g><path style="opacity:1" fill="#9f9448" d="M 79.5,38.5 C 84.6813,39.1665 90.0147,39.8332 95.5,40.5C 94.3698,41.6223 93.7031,42.9557 93.5,44.5C 91.1712,46.8413 89.1712,49.5079 87.5,52.5C 88.1882,53.8549 89.1882,54.8549 90.5,55.5C 91.3446,56.6715 92.0113,58.0048 92.5,59.5C 93.075,61.4113 94.075,63.078 95.5,64.5C 95.5,64.8333 95.5,65.1667 95.5,65.5C 89.8236,65.3339 84.1569,65.5006 78.5,66C 77.7476,66.6708 77.4142,67.5041 77.5,68.5C 75.142,71.5459 73.142,74.8792 71.5,78.5C 70.8333,78.8333 70.1667,79.1667 69.5,79.5C 67.5478,74.5863 64.8812,70.253 61.5,66.5C 56.2514,66.1413 51.2514,65.1413 46.5,63.5C 48.9819,61.4973 49.9819,58.8306 49.5,55.5C 50.5,55.5 51.5,55.5 52.5,55.5C 51.3178,49.789 48.9844,44.4557 45.5,39.5C 50.5111,39.6659 55.5111,39.4993 60.5,39C 61.056,38.6174 61.3893,38.1174 61.5,37.5C 64.9655,33.2617 67.9655,28.5951 70.5,23.5C 73.7591,28.3527 76.7591,33.3527 79.5,38.5 Z"/></g>
<g><path style="opacity:1" fill="#404c6c" d="M 99.5,44.5 C 101.642,46.7654 103.309,49.432 104.5,52.5C 103.639,54.9106 102.306,56.9106 100.5,58.5C 101.911,55.6763 101.745,53.0096 100,50.5C 98.6325,52.8146 97.7991,52.8146 97.5,50.5C 98.6511,48.6746 99.3178,46.6746 99.5,44.5 Z"/></g>
<g><path style="opacity:1" fill="#41569c" d="M 98.5,43.5 C 99.1667,43.5 99.5,43.8333 99.5,44.5C 99.3178,46.6746 98.6511,48.6746 97.5,50.5C 97.7991,52.8146 98.6325,52.8146 100,50.5C 101.745,53.0096 101.911,55.6763 100.5,58.5C 98.6064,59.0476 96.9397,60.0476 95.5,61.5C 94.4822,60.8075 93.4822,60.1408 92.5,59.5C 92.0113,58.0048 91.3446,56.6715 90.5,55.5C 89.962,53.8828 89.6287,52.2161 89.5,50.5C 90.5,50.5 91.5,50.5 92.5,50.5C 92.8333,48.5 93.1667,46.5 93.5,44.5C 94.935,42.5989 96.6017,42.2655 98.5,43.5 Z"/></g>
<g><path style="opacity:1" fill="#46475b" d="M 93.5,44.5 C 93.1667,46.5 92.8333,48.5 92.5,50.5C 91.5,50.5 90.5,50.5 89.5,50.5C 89.6287,52.2161 89.962,53.8828 90.5,55.5C 89.1882,54.8549 88.1882,53.8549 87.5,52.5C 89.1712,49.5079 91.1712,46.8413 93.5,44.5 Z"/></g>
<g><path style="opacity:1" fill="#1c1a40" d="M 79.5,38.5 C 90.1667,38.5 100.833,38.5 111.5,38.5C 106.983,39.1665 102.317,39.8331 97.5,40.5C 98.1272,41.4168 98.4606,42.4168 98.5,43.5C 96.6017,42.2655 94.935,42.5989 93.5,44.5C 93.7031,42.9557 94.3698,41.6223 95.5,40.5C 90.0147,39.8332 84.6813,39.1665 79.5,38.5 Z"/></g>
<g><path style="opacity:1" fill="#1d1c33" d="M 61.5,37.5 C 61.3893,38.1174 61.056,38.6174 60.5,39C 55.5111,39.4993 50.5111,39.6659 45.5,39.5C 50.6979,38.7412 56.0313,38.0746 61.5,37.5 Z"/></g>
<g><path style="opacity:1" fill="#3e413f" d="M 119.5,23.5 C 119.833,23.5 120.167,23.5 120.5,23.5C 122.179,23.2852 123.179,23.9519 123.5,25.5C 122.883,25.3893 122.383,25.056 122,24.5C 120.212,26.76 118.712,29.0934 117.5,31.5C 117.694,28.6703 118.361,26.0037 119.5,23.5 Z"/></g>
<g><path style="opacity:1" fill="#39477c" d="M 140.5,51.5 C 143.042,47.792 145.375,43.9587 147.5,40C 142.167,39.6667 136.833,39.3333 131.5,39C 128.551,34.633 125.884,30.133 123.5,25.5C 123.179,23.9519 122.179,23.2852 120.5,23.5C 121.5,22.1667 122.5,20.8333 123.5,19.5C 124.498,19.4128 125.665,19.0795 127,18.5C 128.713,20.8173 128.213,22.8173 125.5,24.5C 126.309,26.0709 126.643,27.7376 126.5,29.5C 128.655,29.372 130.655,29.872 132.5,31C 130.353,33.5043 130.353,35.8376 132.5,38C 137.823,38.4994 143.156,38.666 148.5,38.5C 148.523,40.5996 147.856,42.4329 146.5,44C 146.735,44.8732 147.069,45.7065 147.5,46.5C 146.726,47.7112 145.893,47.7112 145,46.5C 144.329,49.0004 142.829,50.6671 140.5,51.5 Z"/></g>
<g><path style="opacity:1" fill="#435180" d="M 106.5,108.5 C 104.17,110.584 103.003,113.251 103,116.5C 99.7346,117.048 97.5679,118.881 96.5,122C 92.4834,122.671 88.4834,123.004 84.5,123C 86.2852,121.837 88.2852,121.17 90.5,121C 91.3567,120.311 92.0233,119.478 92.5,118.5C 91.3687,117.396 90.5354,117.729 90,119.5C 89.5026,116.854 89.3359,114.187 89.5,111.5C 91.0908,114.431 93.0908,117.098 95.5,119.5C 98.1751,116.136 100.842,112.803 103.5,109.5C 104.391,108.89 105.391,108.557 106.5,108.5 Z"/></g>
<g><path style="opacity:1" fill="#3f4876" d="M 151.5,128.5 C 149.516,127.844 147.516,127.178 145.5,126.5C 142.14,127.519 138.807,128.519 135.5,129.5C 134.737,128.732 133.737,128.232 132.5,128C 134.864,126.135 137.53,124.969 140.5,124.5C 143.826,125.047 147.16,125.547 150.5,126C 151.252,126.671 151.586,127.504 151.5,128.5 Z"/></g>
<g><path style="opacity:1" fill="#2f2f33" d="M 43.5,126.5 C 47.2896,125.098 50.9563,125.431 54.5,127.5C 50.8455,127.058 47.1788,126.724 43.5,126.5 Z"/></g>
<g><path style="opacity:1" fill="#2b2c30" d="M 98.5,125.5 C 98.5,125.833 98.5,126.167 98.5,126.5C 96.139,126.674 93.8056,127.007 91.5,127.5C 91.6107,126.883 91.944,126.383 92.5,126C 94.4727,125.505 96.4727,125.338 98.5,125.5 Z"/></g>
<g><path style="opacity:1" fill="#3f4978" d="M 121.5,133.5 C 113.385,133.213 105.719,130.88 98.5,126.5C 98.5,126.167 98.5,125.833 98.5,125.5C 100.766,125.859 102.599,125.192 104,123.5C 105.586,124.376 107.086,125.376 108.5,126.5C 104.735,127.877 105.068,128.877 109.5,129.5C 113.37,127.828 117.37,127.328 121.5,128C 109.816,129.18 109.816,131.014 121.5,133.5 Z"/></g>
<g><path style="opacity:1" fill="#9a8e46" d="M 43.5,126.5 C 47.1788,126.724 50.8455,127.058 54.5,127.5C 54.8417,128.338 55.5084,128.672 56.5,128.5C 58.5145,129.924 60.8478,130.59 63.5,130.5C 64.209,131.404 65.209,131.737 66.5,131.5C 69.2518,133.874 72.2518,134.541 75.5,133.5C 80.8333,131.5 86.1667,129.5 91.5,127.5C 93.8056,127.007 96.139,126.674 98.5,126.5C 105.719,130.88 113.385,133.213 121.5,133.5C 126.229,132.121 130.895,130.787 135.5,129.5C 138.807,128.519 142.14,127.519 145.5,126.5C 147.516,127.178 149.516,127.844 151.5,128.5C 152.5,128.5 153.5,128.5 154.5,128.5C 156.05,129.441 157.716,130.107 159.5,130.5C 162.739,132.149 166.073,133.816 169.5,135.5C 168.332,137.217 166.665,137.884 164.5,137.5C 157.805,136.193 151.305,134.193 145,131.5C 136.126,134.093 127.293,136.759 118.5,139.5C 114.307,138.615 110.307,137.282 106.5,135.5C 100.438,129.397 94.1044,129.063 87.5,134.5C 83.0451,135.929 78.5451,137.262 74,138.5C 72.175,138.057 70.3417,137.723 68.5,137.5C 61.4759,135.383 54.3092,133.383 47,131.5C 40.1324,133.092 33.2991,134.759 26.5,136.5C 25.0779,136.25 24.0779,135.417 23.5,134C 27.2656,132.441 30.9323,130.941 34.5,129.5C 37.7016,128.869 40.7016,127.869 43.5,126.5 Z"/></g>
<g><path style="opacity:1" fill="#383a44" d="M 66.5,131.5 C 69.5739,131.873 72.5739,132.539 75.5,133.5C 72.2518,134.541 69.2518,133.874 66.5,131.5 Z"/></g>
<g><path style="opacity:1" fill="#35353f" d="M 56.5,128.5 C 59.1522,128.41 61.4855,129.076 63.5,130.5C 60.8478,130.59 58.5145,129.924 56.5,128.5 Z"/></g>
<g><path style="opacity:1" fill="#414e8f" d="M 164.5,137.5 C 165.091,138.151 165.757,138.818 166.5,139.5C 165.347,140.687 165.347,141.687 166.5,142.5C 166.5,142.833 166.5,143.167 166.5,143.5C 164.833,143.5 163.167,143.5 161.5,143.5C 156.258,141.584 150.925,139.917 145.5,138.5C 136.963,141.135 128.296,143.469 119.5,145.5C 112.803,144.489 106.469,142.489 100.5,139.5C 100.047,138.542 99.3805,137.708 98.5,137C 101.167,136 101.167,135 98.5,134C 101.179,134.158 103.846,134.658 106.5,135.5C 110.307,137.282 114.307,138.615 118.5,139.5C 127.293,136.759 136.126,134.093 145,131.5C 151.305,134.193 157.805,136.193 164.5,137.5 Z"/></g>
<g><path style="opacity:1" fill="#3f4671" d="M 106.5,135.5 C 103.846,134.658 101.179,134.158 98.5,134C 101.167,135 101.167,136 98.5,137C 99.3805,137.708 100.047,138.542 100.5,139.5C 98.2362,138.781 95.9029,138.448 93.5,138.5C 94.347,137.034 95.6803,136.2 97.5,136C 95.3215,135.558 94.6548,134.558 95.5,133C 90.6816,132.81 90.0149,133.81 93.5,136C 92.8333,136.167 92.1667,136.333 91.5,136.5C 90.1331,135.775 88.7997,135.108 87.5,134.5C 94.1044,129.063 100.438,129.397 106.5,135.5 Z"/></g>
<g><path style="opacity:1" fill="#435192" d="M 68.5,137.5 C 71.1368,139.427 74.1368,139.927 77.5,139C 79.7885,138.178 82.1218,137.511 84.5,137C 85.9423,136.623 86.9423,135.79 87.5,134.5C 88.7997,135.108 90.1331,135.775 91.5,136.5C 92.1667,136.333 92.8333,136.167 93.5,136C 90.0149,133.81 90.6816,132.81 95.5,133C 94.6548,134.558 95.3215,135.558 97.5,136C 95.6803,136.2 94.347,137.034 93.5,138.5C 86.6872,141.289 79.6872,143.623 72.5,145.5C 65.8088,143.482 59.1421,141.482 52.5,139.5C 51.0883,138.467 49.4216,137.801 47.5,137.5C 44.2996,137.661 41.633,138.661 39.5,140.5C 36.1667,141.167 32.8333,141.833 29.5,142.5C 27.087,141.32 26.087,139.32 26.5,136.5C 33.2991,134.759 40.1324,133.092 47,131.5C 54.3092,133.383 61.4759,135.383 68.5,137.5 Z"/></g>
<g><path style="opacity:1" fill="#3d3850" d="M 87.5,134.5 C 86.9423,135.79 85.9423,136.623 84.5,137C 82.1218,137.511 79.7885,138.178 77.5,139C 74.1368,139.927 71.1368,139.427 68.5,137.5C 70.3417,137.723 72.175,138.057 74,138.5C 78.5451,137.262 83.0451,135.929 87.5,134.5 Z"/></g>
<g><path style="opacity:1" fill="#6e6a45" d="M 52.5,139.5 C 48.1018,139.294 43.7685,139.627 39.5,140.5C 41.633,138.661 44.2996,137.661 47.5,137.5C 49.4216,137.801 51.0883,138.467 52.5,139.5 Z"/></g>
<g><path style="opacity:1" fill="#403c46" d="M 19.5,126.5 C 20.8487,128.681 22.6821,130.348 25,131.5C 28.0121,130.131 31.1788,129.464 34.5,129.5C 30.9323,130.941 27.2656,132.441 23.5,134C 24.0779,135.417 25.0779,136.25 26.5,136.5C 26.087,139.32 27.087,141.32 29.5,142.5C 29.7148,144.179 29.0481,145.179 27.5,145.5C 24.5689,139.301 21.9023,132.968 19.5,126.5 Z"/></g>
<g><path style="opacity:1" fill="#464449" d="M 159.5,130.5 C 163.76,131.796 168.094,132.796 172.5,133.5C 170.735,136.709 168.735,139.709 166.5,142.5C 165.347,141.687 165.347,140.687 166.5,139.5C 165.757,138.818 165.091,138.151 164.5,137.5C 166.665,137.884 168.332,137.217 169.5,135.5C 166.073,133.816 162.739,132.149 159.5,130.5 Z"/></g>
<g><path style="opacity:1" fill="#3f3f5b" d="M 54.5,145.5 C 52.8561,145.286 51.3561,145.62 50,146.5C 49.3261,145.422 48.3261,144.755 47,144.5C 41.707,145.598 36.5404,147.098 31.5,149C 34.4781,149.696 37.4781,150.196 40.5,150.5C 40.1583,151.338 39.4916,151.672 38.5,151.5C 36.5,151.5 34.5,151.5 32.5,151.5C 30.7497,150.341 29.7497,148.674 29.5,146.5C 30.2646,146.923 31.0979,147.257 32,147.5C 37.0011,145.333 42.1678,143.666 47.5,142.5C 50.0342,143.273 52.3675,144.273 54.5,145.5 Z"/></g>
<g><path style="opacity:1" fill="#3e3a37" d="M 161.5,143.5 C 163.167,143.5 164.833,143.5 166.5,143.5C 164.518,146.81 162.185,149.81 159.5,152.5C 159.539,151.417 159.873,150.417 160.5,149.5C 159.757,148.818 159.091,148.151 158.5,147.5C 161.022,147.872 163.022,147.039 164.5,145C 163.263,144.768 162.263,144.268 161.5,143.5 Z"/></g>
<g><path style="opacity:1" fill="#394373" d="M 107.5,147.5 C 104.639,147.658 101.972,146.992 99.5,145.5C 98.062,145.719 96.7287,146.219 95.5,147C 97.7885,147.822 100.122,148.489 102.5,149C 103.381,149.708 104.047,150.542 104.5,151.5C 99.9099,149.621 95.2433,149.287 90.5,150.5C 91.3855,148.73 90.5521,147.73 88,147.5C 85.2764,148.687 82.4431,149.353 79.5,149.5C 84.8088,146.729 90.4754,144.729 96.5,143.5C 100.63,143.834 104.297,145.168 107.5,147.5 Z"/></g>
<g><path style="opacity:1" fill="#958a45" d="M 93.5,138.5 C 95.9029,138.448 98.2362,138.781 100.5,139.5C 106.469,142.489 112.803,144.489 119.5,145.5C 128.296,143.469 136.963,141.135 145.5,138.5C 150.925,139.917 156.258,141.584 161.5,143.5C 162.263,144.268 163.263,144.768 164.5,145C 163.022,147.039 161.022,147.872 158.5,147.5C 154.408,146.043 150.241,144.709 146,143.5C 139.238,145.035 132.738,147.035 126.5,149.5C 124.597,149.796 122.93,150.463 121.5,151.5C 116.663,150.639 111.996,149.306 107.5,147.5C 104.297,145.168 100.63,143.834 96.5,143.5C 90.4754,144.729 84.8088,146.729 79.5,149.5C 70.7099,150.579 62.3766,149.245 54.5,145.5C 52.3675,144.273 50.0342,143.273 47.5,142.5C 42.1678,143.666 37.0011,145.333 32,147.5C 31.0979,147.257 30.2646,146.923 29.5,146.5C 28.5084,146.672 27.8417,146.338 27.5,145.5C 29.0481,145.179 29.7148,144.179 29.5,142.5C 32.8333,141.833 36.1667,141.167 39.5,140.5C 43.7685,139.627 48.1018,139.294 52.5,139.5C 59.1421,141.482 65.8088,143.482 72.5,145.5C 79.6872,143.623 86.6872,141.289 93.5,138.5 Z"/></g>
<g><path style="opacity:1" fill="#3f5094" d="M 54.5,145.5 C 62.3766,149.245 70.7099,150.579 79.5,149.5C 82.4431,149.353 85.2764,148.687 88,147.5C 90.5521,147.73 91.3855,148.73 90.5,150.5C 88.5168,151.471 86.5168,152.471 84.5,153.5C 80.5,154.655 76.5,154.822 72.5,154C 73.5707,154.852 74.5707,155.685 75.5,156.5C 73.1944,156.007 70.861,155.674 68.5,155.5C 62.9162,153.084 57.2495,151.084 51.5,149.5C 49.0336,148.366 46.367,148.199 43.5,149C 42.944,149.383 42.6107,149.883 42.5,150.5C 41.8333,150.5 41.1667,150.5 40.5,150.5C 37.4781,150.196 34.4781,149.696 31.5,149C 36.5404,147.098 41.707,145.598 47,144.5C 48.3261,144.755 49.3261,145.422 50,146.5C 51.3561,145.62 52.8561,145.286 54.5,145.5 Z"/></g>
<g><path style="opacity:1" fill="#493b35" d="M 51.5,149.5 C 48.4299,149.368 45.4299,149.701 42.5,150.5C 42.6107,149.883 42.944,149.383 43.5,149C 46.367,148.199 49.0336,148.366 51.5,149.5 Z"/></g>
<g><path style="opacity:1" fill="#43528f" d="M 158.5,147.5 C 159.091,148.151 159.757,148.818 160.5,149.5C 159.873,150.417 159.539,151.417 159.5,152.5C 157.194,152.007 154.861,151.674 152.5,151.5C 149.598,150.422 146.598,149.756 143.5,149.5C 140.61,149.278 137.943,149.945 135.5,151.5C 134.784,150.689 133.95,150.022 133,149.5C 130.676,150.693 128.51,150.693 126.5,149.5C 132.738,147.035 139.238,145.035 146,143.5C 150.241,144.709 154.408,146.043 158.5,147.5 Z"/></g>
<g><path style="opacity:1" fill="#3f4d8b" d="M 107.5,147.5 C 111.996,149.306 116.663,150.639 121.5,151.5C 124.572,151.183 127.572,151.516 130.5,152.5C 130.137,153.183 129.804,153.85 129.5,154.5C 120.506,157.798 112.173,156.798 104.5,151.5C 104.047,150.542 103.381,149.708 102.5,149C 100.122,148.489 97.7885,147.822 95.5,147C 96.7287,146.219 98.062,145.719 99.5,145.5C 101.972,146.992 104.639,147.658 107.5,147.5 Z"/></g>
<g><path style="opacity:1" fill="#49402f" d="M 32.5,151.5 C 34.5,151.5 36.5,151.5 38.5,151.5C 37.1938,152.467 36.5271,153.801 36.5,155.5C 38.9029,155.552 41.2362,155.219 43.5,154.5C 42.3646,156.213 40.698,156.88 38.5,156.5C 37.5084,156.328 36.8417,156.662 36.5,157.5C 35.1798,155.537 33.8465,153.537 32.5,151.5 Z"/></g>
<g><path style="opacity:1" fill="#9a8d44" d="M 51.5,149.5 C 57.2495,151.084 62.9162,153.084 68.5,155.5C 70.7134,157.312 73.0467,157.645 75.5,156.5C 78.8112,156.117 81.8112,155.117 84.5,153.5C 86.5168,152.471 88.5168,151.471 90.5,150.5C 95.2433,149.287 99.9099,149.621 104.5,151.5C 112.173,156.798 120.506,157.798 129.5,154.5C 134.431,153.326 139.098,151.659 143.5,149.5C 146.598,149.756 149.598,150.422 152.5,151.5C 153.681,153.067 155.347,153.901 157.5,154C 156.529,155.481 155.196,156.315 153.5,156.5C 150.639,156.658 147.972,155.992 145.5,154.5C 139.044,156.234 132.711,158.234 126.5,160.5C 122.865,161.114 119.198,161.448 115.5,161.5C 110.453,158.987 105.12,156.987 99.5,155.5C 97.3718,154.371 95.0385,154.204 92.5,155C 86.4444,157.852 80.1111,160.019 73.5,161.5C 70.8151,160.829 68.1484,160.162 65.5,159.5C 60.7674,158.306 56.1007,156.806 51.5,155C 48.854,154.503 46.1873,154.336 43.5,154.5C 41.2362,155.219 38.9029,155.552 36.5,155.5C 36.5271,153.801 37.1938,152.467 38.5,151.5C 39.4916,151.672 40.1583,151.338 40.5,150.5C 41.1667,150.5 41.8333,150.5 42.5,150.5C 45.4299,149.701 48.4299,149.368 51.5,149.5 Z"/></g>
<g><path style="opacity:1" fill="#3d445c" d="M 84.5,153.5 C 81.8112,155.117 78.8112,156.117 75.5,156.5C 74.5707,155.685 73.5707,154.852 72.5,154C 76.5,154.822 80.5,154.655 84.5,153.5 Z"/></g>
<g><path style="opacity:1" fill="#40466b" d="M 126.5,149.5 C 128.51,150.693 130.676,150.693 133,149.5C 133.95,150.022 134.784,150.689 135.5,151.5C 137.943,149.945 140.61,149.278 143.5,149.5C 139.098,151.659 134.431,153.326 129.5,154.5C 129.804,153.85 130.137,153.183 130.5,152.5C 127.572,151.516 124.572,151.183 121.5,151.5C 122.93,150.463 124.597,149.796 126.5,149.5 Z"/></g>
<g><path style="opacity:1" fill="#24283d" d="M 38.5,156.5 C 41.8181,159.827 44.8181,163.493 47.5,167.5C 43.8075,164.138 40.1408,160.805 36.5,157.5C 36.8417,156.662 37.5084,156.328 38.5,156.5 Z"/></g>
<g><path style="opacity:1" fill="#38353e" d="M 152.5,151.5 C 154.861,151.674 157.194,152.007 159.5,152.5C 155.868,157.467 151.868,162.133 147.5,166.5C 149.898,163.429 151.898,160.095 153.5,156.5C 155.196,156.315 156.529,155.481 157.5,154C 155.347,153.901 153.681,153.067 152.5,151.5 Z"/></g>
<g><path style="opacity:1" fill="#22253e" d="M 53.5,173.5 C 57.5066,176.182 61.1733,179.182 64.5,182.5C 59.9372,180.605 56.2705,177.605 53.5,173.5 Z"/></g>
<g><path style="opacity:1" fill="#373b54" d="M 140.5,173.5 C 136.878,177.308 132.878,180.641 128.5,183.5C 131.332,180.499 133.998,177.333 136.5,174C 137.793,173.51 139.127,173.343 140.5,173.5 Z"/></g>
<g><path style="opacity:1" fill="#40579e" d="M 43.5,154.5 C 46.1873,154.336 48.854,154.503 51.5,155C 56.1007,156.806 60.7674,158.306 65.5,159.5C 65.62,160.586 66.2867,161.253 67.5,161.5C 72.5146,162.62 77.5146,162.453 82.5,161C 87.6064,157.465 93.273,155.631 99.5,155.5C 105.12,156.987 110.453,158.987 115.5,161.5C 119.29,162.902 122.956,162.569 126.5,160.5C 132.711,158.234 139.044,156.234 145.5,154.5C 147.972,155.992 150.639,156.658 153.5,156.5C 151.898,160.095 149.898,163.429 147.5,166.5C 145.5,169.167 143.167,171.5 140.5,173.5C 139.127,173.343 137.793,173.51 136.5,174C 133.998,177.333 131.332,180.499 128.5,183.5C 128.5,184.167 128.167,184.5 127.5,184.5C 127.565,184.062 127.399,183.728 127,183.5C 121.608,186.758 116.441,190.092 111.5,193.5C 105.725,195.538 99.725,196.705 93.5,197C 92.944,197.383 92.6107,197.883 92.5,198.5C 91.8333,198.5 91.5,198.167 91.5,197.5C 88.0009,194.754 84.0009,193.087 79.5,192.5C 79.5858,191.504 79.2524,190.671 78.5,190C 73.652,187.744 68.9853,185.244 64.5,182.5C 61.1733,179.182 57.5066,176.182 53.5,173.5C 51.1667,171.833 49.1667,169.833 47.5,167.5C 44.8181,163.493 41.8181,159.827 38.5,156.5C 40.698,156.88 42.3646,156.213 43.5,154.5 Z"/></g>
<g><path style="opacity:1" fill="#514f42" d="M 126.5,160.5 C 122.956,162.569 119.29,162.902 115.5,161.5C 119.198,161.448 122.865,161.114 126.5,160.5 Z"/></g>
<g><path style="opacity:1" fill="#353649" d="M 99.5,155.5 C 93.273,155.631 87.6064,157.465 82.5,161C 77.5146,162.453 72.5146,162.62 67.5,161.5C 66.2867,161.253 65.62,160.586 65.5,159.5C 68.1484,160.162 70.8151,160.829 73.5,161.5C 80.1111,160.019 86.4444,157.852 92.5,155C 95.0385,154.204 97.3718,154.371 99.5,155.5 Z"/></g>
<g><path style="opacity:1" fill="#433b35" d="M 68.5,155.5 C 70.861,155.674 73.1944,156.007 75.5,156.5C 73.0467,157.645 70.7134,157.312 68.5,155.5 Z"/></g>
<g><path style="opacity:1" fill="#23233c" d="M 64.5,182.5 C 68.9853,185.244 73.652,187.744 78.5,190C 79.2524,190.671 79.5858,191.504 79.5,192.5C 73.6312,190.404 68.6312,187.071 64.5,182.5 Z"/></g>
<g><path style="opacity:1" fill="#39394f" d="M 127.5,184.5 C 124.921,187.135 121.921,189.301 118.5,191C 116.35,192.411 114.016,193.245 111.5,193.5C 116.441,190.092 121.608,186.758 127,183.5C 127.399,183.728 127.565,184.062 127.5,184.5 Z"/></g>
<g><path style="opacity:1" fill="#292d3e" d="M 79.5,192.5 C 84.0009,193.087 88.0009,194.754 91.5,197.5C 86.7679,197.373 82.7679,195.707 79.5,192.5 Z"/></g>
<g><path style="opacity:1" fill="#333353" d="M 111.5,193.5 C 107.724,196.377 103.39,198.21 98.5,199C 96.4546,199.49 94.4546,199.323 92.5,198.5C 92.6107,197.883 92.944,197.383 93.5,197C 99.725,196.705 105.725,195.538 111.5,193.5 Z"/></g>
</svg>
