<svg xmlns="http://www.w3.org/2000/svg" width="400" height="378" style="shape-rendering:geometricPrecision;text-rendering:geometricPrecision;image-rendering:optimizeQuality;fill-rule:evenodd;clip-rule:evenodd"><path style="opacity:1" fill="#313338" d="M64.5-.5h139a5.575 5.575 0 0 0 1 3 14.729 14.729 0 0 1-5 1.5c-.752.67-1.086 1.504-1 2.5-.904-.709-1.237-1.709-1-3-1.603-.188-2.937.312-4 1.5a1555.89 1555.89 0 0 0-56 1.5c-.667 0-1 .333-1 1h-1c.17-1.322-.163-2.489-1-3.5-6.772-2.016-13.772-3.182-21-3.5-13.974.8-27.974 1.3-42 1.5l1 1a4.932 4.932 0 0 1-3 .5 22.765 22.765 0 0 0-5-4z"/><path style="opacity:1" fill="#373631" d="M203.5-.5h196v5c-.996.086-1.829-.248-2.5-1-.21 1.558-.71 2.891-1.5 4h-2c-.801-1.542-1.134-3.208-1-5a3499.764 3499.764 0 0 1-166.5 0c-6.266.649-12.433 1.315-18.5 2a24.936 24.936 0 0 0-7 .5c-.752.67-1.086 1.504-1 2.5h-1v-1c-.086-.996.248-1.83 1-2.5a14.729 14.729 0 0 0 5-1.5 5.575 5.575 0 0 1-1-3z"/><path style="opacity:1" fill="#38382a" d="M135.5 7.5h-1c.086-.996-.248-1.83-1-2.5a2048.43 2048.43 0 0 0-64-.5v-1a4.932 4.932 0 0 0 3-.5l-1-1c14.026-.2 28.026-.7 42-1.5 7.228.318 14.228 1.484 21 3.5.837 1.011 1.17 2.178 1 3.5z"/><path style="opacity:1" fill="#482a2d" d="M67.5 4.5c-20.003-.167-40.003 0-60 .5a10.522 10.522 0 0 1-3 2.5c-.14-1.624.527-2.79 2-3.5a622.281 622.281 0 0 1 61 .5z"/><path style="opacity:1" fill="#383120" d="M393.5 7.5h-2v-3h-184c6.067-.685 12.234-1.351 18.5-2a3499.764 3499.764 0 0 0 166.5 0c-.134 1.792.199 3.458 1 5z"/><path style="opacity:1" fill="#474010" d="M207.5 4.5h184v3h-191v93a2163.917 2163.917 0 0 1-1-93c-.086-.996.248-1.83 1-2.5a24.936 24.936 0 0 1 7-.5z"/><path style="opacity:1" fill="#4b3e09" d="M67.5 5.5v-1h2c21.336-.167 42.669 0 64 .5.752.67 1.086 1.504 1 2.5h-64c.11-.617.444-1.117 1-1.5a8.434 8.434 0 0 0-4-.5z"/><path style="opacity:1" fill="#152e5f" d="M198.5 6.5v1h-2a870.848 870.848 0 0 0-59-1 1555.89 1555.89 0 0 1 56-1.5c1.063-1.188 2.397-1.688 4-1.5-.237 1.291.096 2.291 1 3z"/><path style="opacity:1" fill="#ebdc37" d="M391.5 7.5v1h-189c-.167 30.669 0 61.335.5 92 4.066.964 8.233 1.297 12.5 1-1.419.951-3.085 1.284-5 1h-7l-2-1c0-.667-.333-1-1-1v-93h191z"/><path style="opacity:1" fill="#e20422" d="M68.5 7.5a12026.827 12026.827 0 0 1 0 310 16.314 16.314 0 0 0-2-4 49.042 49.042 0 0 1-10-6 43.87 43.87 0 0 0-4.5-7c-1.129-1.641-2.629-2.641-4.5-3v-2a125.544 125.544 0 0 0-12-23c-.774-1.211-1.607-1.211-2.5 0 .107-3.057-1.06-5.391-3.5-7a13.118 13.118 0 0 1-1-7c-1.175.219-2.175-.114-3-1a49.478 49.478 0 0 0-4-7 37.276 37.276 0 0 1-2.5-8c-.377-1.442-1.21-2.442-2.5-3 .647-5.807-.52-11.14-3.5-16 .044-4.836-1.123-9.169-3.5-13a371.44 371.44 0 0 1-2-44c.16-52.826.494-105.493 1-158a900.594 900.594 0 0 1 60-1z"/><path style="opacity:1" fill="#f8df02" d="M71.5 7.5h6c18.16.997 36.492 1.33 55 1v347h-6a146.156 146.156 0 0 1-15-6c-14.311-7.832-27.644-17.165-40-28V7.5z"/><path style="opacity:1" fill="#1f5dbf" d="M196.5 7.5h2v98c-1.165.996-1.832 2.329-2 4a8822.147 8822.147 0 0 1 0 261 192.53 192.53 0 0 0-28-2.5 159.11 159.11 0 0 0-25-5.5h-1a22.484 22.484 0 0 0-4-5 9.86 9.86 0 0 1-1-6c.833-47.498 1.333-95.165 1.5-143 .667-1.333 1.333-1.333 2 0a3636.92 3636.92 0 0 1 1-128l1 15c.667-16 .667-32 0-48l-1 15a368.592 368.592 0 0 0-3-46c-.383-.556-.883-.89-1.5-1v-8h59z"/><path style="opacity:1" fill="#395e73" d="M135.5 7.5h1v353h-2v-1c1-117.165 1.333-234.499 1-352z"/><path style="opacity:1" fill="#375f77" d="M198.5 7.5h1c-.331 31.171.002 62.171 1 93v4l-2-3v-94z"/><path style="opacity:1" fill="#3d392f" d="M399.5 4.5v178c-.968 2.107-1.302 4.441-1 7a7986.982 7986.982 0 0 1-3-179v-3c.79-1.109 1.29-2.442 1.5-4 .671.752 1.504 1.086 2.5 1z"/><path style="opacity:1" fill="#205dbc" d="M137.5 15.5c.617.11 1.117.444 1.5 1a368.592 368.592 0 0 1 3 46l1-15c.667 16 .667 32 0 48l-1-15a3636.92 3636.92 0 0 0-1 128c-.667-1.333-1.333-1.333-2 0-.167 47.835-.667 95.502-1.5 143v-336z"/><path style="opacity:1" fill="#452d30" d="M4.5 7.5c-.648 37.14-1.315 74.14-2 111a106.512 106.512 0 0 1-1-17A4416.886 4416.886 0 0 0 3 8.5c.383-.556.883-.89 1.5-1z"/><path style="opacity:1" fill="#483b15" d="M391.5 8.5v-1h4v3a8840.174 8840.174 0 0 1-1 188c.324-6.854-.009-13.521-1-20v-1a3571.518 3571.518 0 0 0 0-169h-2z"/><path style="opacity:1" fill="#e10422" d="M340.5 79.5v4h-5a29.377 29.377 0 0 1-2 12c1.044 2.268 1.211 4.601.5 7l-5 10a131.722 131.722 0 0 1-1.5 15c-.558 2.289-1.724 4.289-3.5 6-.591 3.791-.091 7.458 1.5 11a20.78 20.78 0 0 0-2 5.5c.385 10.305 2.552 19.471 6.5 27.5 5.008 4.594 10.841 6.427 17.5 5.5a69.2 69.2 0 0 0 6.5-4.5c.667-8 .667-16 0-24-.383-.556-.883-.889-1.5-1-3.245-5.422-4.912-11.422-5-18-2.311-16.542.189-32.209 7.5-47 .497 2.646.664 5.313.5 8a30 30 0 0 0 9-3 42.388 42.388 0 0 0-4 12 6.846 6.846 0 0 0 4-1l1 2a319.364 319.364 0 0 0-2 5h-2c-5.409 1.254-6.409 4.254-3 9-1.085 1.284-1.752 2.784-2 4.5l2 9c-1.228 4.387-.228 8.221 3 11.5a16.873 16.873 0 0 1 1 8 9.86 9.86 0 0 1 6 1c-1.545.952-3.212 1.285-5 1a407.78 407.78 0 0 0 1 31c-3.972 1.449-7.306 3.949-10 7.5-5.72 2.329-11.386 4.162-17 5.5-1.869 2.135-2.536 4.802-2 8h-3c.452 5.869-.381 11.535-2.5 17l-1-2c-1.002 4.708-2.668 9.041-5 13a123.496 123.496 0 0 1-2.5 13c-1.446.671-2.112 1.838-2 3.5.184 1.376.851 2.209 2 2.5-.253 2.327.414 4.327 2 6a3.647 3.647 0 0 1-1 1.5c3.978 2.412 4.312 4.745 1 7 2.073.118 3.407 1.118 4 3a298.883 298.883 0 0 1-2 9.5c-.961 1.765-1.295 3.765-1 6a6.846 6.846 0 0 0-4 1c-1.097 2.035-2.763 3.368-5 4a15.418 15.418 0 0 0-1 7c-4.047.035-6.714 2.035-8 6-1.545.952-3.212 1.285-5 1-4.084-.625-7.084.875-9 4.5-2.177 1.202-4.511 1.702-7 1.5a24.935 24.935 0 0 0-.5-7 29.898 29.898 0 0 1-6.5-2.5c1.11-2.737 1.277-5.571.5-8.5-2.016-1.455-2.849-3.455-2.5-6 5.374.164 10.374-.836 15-3 6.438-2.447 10.438-7.114 12-14h1c.617-.111 1.117-.444 1.5-1 1.713-4.699.213-7.032-4.5-7-3.024-6.966-5.524-14.3-7.5-22-1.356-.88-2.856-1.214-4.5-1v-12c.951-1.419 1.284-3.085 1-5 4.219-2.264 6.552-5.931 7-11h5c2.548-6.743 2.548-13.41 0-20a12.906 12.906 0 0 1 1-4c-.774-1.211-1.607-1.211-2.5 0a26.67 26.67 0 0 0-1.5-6.5l3-1a28.135 28.135 0 0 1-9-3.5c-7.796-1.431-11.129-6.097-10-14-3.86-.446-6.86.887-9 4-4.012.613-6.012-1.054-6-5a25.879 25.879 0 0 0-10 1c-.363.683-.696 1.35-1 2h-4v-4a45.973 45.973 0 0 1-10-5c.116-3.41-1.55-4.744-5-4v-5h-4v-5h-5a50.464 50.464 0 0 0-.5-10c-2.301-1.367-4.801-2.034-7.5-2 .449-2.79.449-5.456 0-8a23.832 23.832 0 0 0-9-1c-.278-1.846.389-3.18 2-4a25.879 25.879 0 0 0 1-10c4.119.301 6.119-1.699 6-6 2.144-1.453 3.977-1.12 5.5 1l1 8c.383.556.883.889 1.5 1a20.093 20.093 0 0 0 1.5 6 14.587 14.587 0 0 1 4 6 41.33 41.33 0 0 1 10.5 8c3.305 3.286 7.305 5.286 12 6-.652 4.827 1.348 6.66 6 5.5a318.962 318.962 0 0 1 18-8.5c1.505-1.342 2.172-3.008 2-5-4.559.397-8.892 1.231-13 2.5.803-4.424 3.47-7.09 8-8a61.539 61.539 0 0 0 5-5.5 59.637 59.637 0 0 0-6-.5 26.852 26.852 0 0 1 6-3.5c1.026-3.256 1.692-6.256 2-9 .011-1.517.677-2.684 2-3.5l-2-2-8-1a313.257 313.257 0 0 1 17-5c2.027-1.396 2.36-3.062 1-5a40.939 40.939 0 0 0-9-.5 44.093 44.093 0 0 0-3-2c1.279-1.646 2.945-2.813 5-3.5 6.171.208 12.171.041 18-.5h1a10.122 10.122 0 0 0 4-1.5 27.63 27.63 0 0 1 5-5c-.729-1.992-2.229-2.826-4.5-2.5a83.564 83.564 0 0 0-8.5 2l-3-1c2.381-3.037 4.714-6.037 7-9 .18-4.182-.487-8.182-2-12 3.74.26 7.406-.074 11-1 2.489-3.888 1.822-7.221-2-10-.111-.617-.444-1.117-1-1.5a50.148 50.148 0 0 0 13-2.5v3c-1.624-.14-2.79.527-3.5 2-1.34 5.096.493 7.596 5.5 7.5a26.598 26.598 0 0 1 2-3.5c1.601.535 2.101 1.535 1.5 3-4.05 3.768-4.55 8.101-1.5 13 1.123-1.044 2.456-1.71 4-2 1.704.568 3.204.568 4.5 0 .172 6.18.672 12.18 1.5 18z"/><path style="opacity:1" fill="#deda46" d="M133.5 7.5h1c.333 117.168 0 234.168-1 351-.992.172-1.658-.162-2-1a15312.593 15312.593 0 0 0 2-350z"/><path style="opacity:1" fill="#5c6a1d" d="M134.5 7.5h1c.333 117.501 0 234.835-1 352h-1v-1c1-116.832 1.333-233.832 1-351z"/><path style="opacity:1" fill="#c71921" d="M364.5 81.5c-2.296 1.9-4.129 4.234-5.5 7-.781 1.444-.614 2.777.5 4 3.119-2.226 6.452-3.893 10-5a8.43 8.43 0 0 1-.5 4 38.213 38.213 0 0 0-5.5 8.5l1 2.5c2.316-1.994 4.982-2.993 8-3a42.47 42.47 0 0 1-1.5 5c-1.72.884-2.886 2.217-3.5 4l-4 3a319.364 319.364 0 0 1 2-5l-1-2a6.846 6.846 0 0 1-4 1 42.388 42.388 0 0 1 4-12 30 30 0 0 1-9 3 32.462 32.462 0 0 0-.5-8c-7.311 14.791-9.811 30.458-7.5 47l-2-1c-1.728-16.081.772-31.414 7.5-46a174.033 174.033 0 0 0 12-22c.494-1.634.66-3.3.5-5v-1c1.292-1.755 2.292-3.755 3-6 2.333 5.556 2.5 11.222.5 17a66.597 66.597 0 0 0-4.5 10z"/><path style="opacity:1" fill="#dd0723" d="M251.5 73.5c-.672 3.442.328 6.109 3 8a168.19 168.19 0 0 0 1.5 8 47.193 47.193 0 0 1 7.5 10v7c1.175-.219 2.175.114 3 1-3.377 1.081-5.044 3.414-5 7a40.914 40.914 0 0 1 9 .5c1.141.741 1.141 1.575 0 2.5-3.127.48-5.96 1.48-8.5 3-1.329-.994-2.662-1.994-4-3a12.992 12.992 0 0 1-5.5 1c-.776-3.074-.943-6.074-.5-9-2.312-.455-4.312-1.455-6-3-.134-2.788.199-5.455 1-8a15.28 15.28 0 0 0-4.5-1.5 86.983 86.983 0 0 1-3-5.5h-1c-.709-.904-1.709-1.237-3-1a50.464 50.464 0 0 0-.5-10c-1.698-1.029-2.532-2.529-2.5-4.5 1.275-3.842 1.275-7.675 0-11.5a51.648 51.648 0 0 0-7-1c-4.811-5.764-3.477-8.764 4-9-.51-2.888.156-5.221 2-7 3.239-.087 6.239.58 9 2 .486-3.327 2.32-5.66 5.5-7 1.767.84 3.101 2.173 4 4a229.612 229.612 0 0 0 0 25c.278.916.778 1.582 1.5 2z"/><path style="opacity:1" fill="#be1625" d="M335.5 58.5c1.765-.961 3.765-1.295 6-1a819.662 819.662 0 0 1 0 30 5.577 5.577 0 0 1-3-1 37.036 37.036 0 0 1-3 9.5 21.542 21.542 0 0 1 1 4.5 216.466 216.466 0 0 0-3 6.5 29.2 29.2 0 0 1 1 7.5h-4l1 14h-3a20.69 20.69 0 0 0 1 5c-1.78-1.49-2.446-3.49-2-6a131.722 131.722 0 0 0 1.5-15l5-10c.711-2.399.544-4.732-.5-7a29.377 29.377 0 0 0 2-12h5v-25h-5z"/><path style="opacity:1" fill="#902225" d="M364.5 81.5c.667 0 1 .333 1 1-1.333 2.667-.667 3.333 2 2 1.946.535 2.946 1.868 3 4a19.222 19.222 0 0 1-1 6c-.978.311-1.645.978-2 2 1.545.952 3.212 1.285 5 1v2c-3.018.007-5.684 1.006-8 3l-1-2.5a38.213 38.213 0 0 1 5.5-8.5 8.43 8.43 0 0 0 .5-4c-3.548 1.107-6.881 2.774-10 5-1.114-1.223-1.281-2.556-.5-4 1.371-2.766 3.204-5.1 5.5-7z"/><path style="opacity:1" fill="#664711" d="M341.5 88.5h4l2 2c.219 1.175-.114 2.175-1 3a11.99 11.99 0 0 0-6-1c-.338 2.657.329 4.99 2 7-.82 1.611-2.154 2.278-4 2-.334 2.688.332 5.021 2 7v1c-2.227-.901-3.227-2.567-3-5 .463-5.68 1.797-11.013 4-16z"/><path style="opacity:1" fill="#923603" d="M364.5 61.5h1a12.93 12.93 0 0 1-.5 5 174.033 174.033 0 0 1-12 22c-6.728 14.586-9.228 29.919-7.5 46a153.597 153.597 0 0 1-2-20v-1a20.69 20.69 0 0 0 1-5 55.146 55.146 0 0 0 1.5-9 28.505 28.505 0 0 0 4.5-9 193.59 193.59 0 0 0 14-29z"/><path style="opacity:1" fill="#553e06" d="m219.5 94.5 7 2h-8c.295 2.235-.039 4.235-1 6 .237-1.291-.096-2.291-1-3-1.84-2.169-4.174-3.502-7-4v-3c1.644.213 3.144-.12 4.5-1 2.209.49 4.042 1.49 5.5 3z"/><path style="opacity:1" fill="#f0d133" d="M347.5 90.5h3a28.505 28.505 0 0 1-4.5 9 55.146 55.146 0 0 1-1.5 9c-1.202.905-2.536.905-4 0-1.668-1.979-2.334-4.312-2-7 1.846.278 3.18-.389 4-2-1.671-2.01-2.338-4.343-2-7a11.99 11.99 0 0 1 6 1c.886-.825 1.219-1.825 1-3z"/><path style="opacity:1" fill="#793309" d="M254.5 81.5c2.144 5.001 4.977 9.668 8.5 14 .816 1.323 1.983 1.99 3.5 2 1.101 1.098 2.434 1.265 4 .5a43.87 43.87 0 0 1 7-4.5l-5 6h-6c-.067 1.459.266 2.792 1 4a20.238 20.238 0 0 1-4-4 47.193 47.193 0 0 0-7.5-10 168.19 168.19 0 0 1-1.5-8z"/><path style="opacity:1" fill="#592226" d="M67.5 4.5v1c-19.67-.167-39.336 0-59 .5L6 8.5c-.5 62-.667 123.999-.5 186-.982-3.462-1.315-7.129-1-11a9289.54 9289.54 0 0 1-2-65c.685-36.86 1.352-73.86 2-111a10.522 10.522 0 0 0 3-2.5c19.997-.5 39.997-.667 60-.5z"/><path style="opacity:1" fill="#a9282a" d="M229.5 109.5v2c-.617-.111-1.117-.444-1.5-1l-1-8c-1.523-2.12-3.356-2.453-5.5-1 .119 4.301-1.881 6.301-6 6a25.879 25.879 0 0 1-1 10c-1.611.82-2.278 2.154-2 4l7 2h-7c-4.046-2.941-3.879-5.941.5-9l1-7c1.444-1.655 3.278-2.322 5.5-2-.238-7.594 2.596-8.927 8.5-4a46.052 46.052 0 0 0 1.5 8z"/><path style="opacity:1" fill="#8b3705" d="m372.5 97.5 2 3a38.198 38.198 0 0 1-6 10h-1v-2c.614-1.783 1.78-3.116 3.5-4a42.47 42.47 0 0 0 1.5-5v-2z"/><path style="opacity:1" fill="#532b1e" d="M272.5 99.5v4h-5c-.734-1.208-1.067-2.541-1-4h6z"/><path style="opacity:1" fill="#c9c773" d="m201.5 101.5 2 1c-.333 1-1 1.667-2 2v-3z"/><path style="opacity:1" fill="#a88a29" d="M216.5 99.5c.904.709 1.237 1.709 1 3-2.107.968-4.441 1.302-7 1v-1c1.915.284 3.581-.049 5-1 .838-.342 1.172-1.008 1-2z"/><path style="opacity:1" fill="#543a13" d="M235.5 99.5c1.517.01 2.684.677 3.5 2 .198 1.882.698 3.548 1.5 5v6h-1l-3-2h-1c-.17-1.322.163-2.489 1-3.5a25.513 25.513 0 0 1-4-4.5 10.258 10.258 0 0 1 4-1.5c-.556-.383-.889-.883-1-1.5z"/><path style="opacity:1" fill="#4b3d08" d="M203.5 102.5h7v1a18.473 18.473 0 0 1-2 3.5c1.256.417 1.923 1.25 2 2.5-1.797-1.23-3.797-1.896-6-2h-3v-3c1-.333 1.667-1 2-2z"/><path style="opacity:1" fill="#c31429" d="M286.5 88.5a40.939 40.939 0 0 1 9 .5c1.36 1.938 1.027 3.604-1 5a313.257 313.257 0 0 0-17 5l8 1 2 2c-1.323.816-1.989 1.983-2 3.5-3.564-.349-6.898.317-10 2a16.873 16.873 0 0 0 8 1c-.185 5.101-2.852 7.434-8 7a38.715 38.715 0 0 1 5-2.5c.837-1.011 1.17-2.178 1-3.5a21.127 21.127 0 0 1-9-1c.805-1.972 2.139-3.472 4-4.5 3.2-.101 6.2-.768 9-2a60.931 60.931 0 0 0-11-.5c-.107-2.403.893-4.237 3-5.5a97.732 97.732 0 0 0 13-3 7.292 7.292 0 0 0 3-2 46.665 46.665 0 0 0-7-2.5z"/><path style="opacity:1" fill="#554600" d="M393.5 8.5a3571.518 3571.518 0 0 1 0 169c-.197-56.102-.197-112.435 0-169z"/><path style="opacity:1" fill="#5d3712" d="M337.5 104.5c-.227 2.433.773 4.099 3 5 .978.311 1.645.978 2 2-1.635 1.181-3.302 1.181-5 0-1.288 1.799-1.288 3.465 0 5 2.946 2.422 2.613 4.089-1 5-.762-1.762-2.096-2.762-4-3 .321-1.548 1.321-2.215 3-2-.589-4.471.077-8.471 2-12z"/><path style="opacity:1" fill="#526454" d="M200.5 100.5c.667 0 1 .333 1 1v6c-.31 3.213.023 6.213 1 9v5h-2c-1.089-5.688-1.089-11.354 0-17v-4z"/><path style="opacity:1" fill="#d7bb45" d="m229.5 90.5 2 1c1 .333 1.667 1 2 2-5.646-.35-6.313 1.15-2 4.5 1.401.41 2.734.91 4 1.5.111.617.444 1.117 1 1.5a10.258 10.258 0 0 0-4 1.5 25.513 25.513 0 0 0 4 4.5c-.837 1.011-1.17 2.178-1 3.5-1.784-1.074-2.951-2.74-3.5-5a24.935 24.935 0 0 0-.5 7c-.904-.709-1.237-1.709-1-3 .034-4.895-1.3-9.228-4-13l-7-2c4.363.764 7.696-.57 10-4z"/><path style="opacity:1" fill="#832223" d="M234.5 91.5h5c.271 2.321-.396 4.321-2 6a58.42 58.42 0 0 1 7 3 14.972 14.972 0 0 1-3 3.5c2.107 1.264 3.107 3.097 3 5.5h6a47.499 47.499 0 0 1-1 5.5c1.28 2.36 1.947 4.86 2 7.5 2.075-.198 4.075-.365 6-.5.73 2.154 1.397 4.321 2 6.5h-2c.214-1.644-.12-3.144-1-4.5a46.052 46.052 0 0 1-8-1.5c-.918-3.712-.918-7.378 0-11h-6c.423-2.281-.244-3.948-2-5-.802-1.452-1.302-3.118-1.5-5-.816-1.323-1.983-1.99-3.5-2v-2c.011-1.517.677-2.684 2-3.5a81.216 81.216 0 0 1-3-2.5z"/><path style="opacity:1" fill="#e2c04e" d="M340.5 109.5v-1c1.464.905 2.798.905 4 0a20.69 20.69 0 0 1-1 5h-6v3c-1.288-1.535-1.288-3.201 0-5 1.698 1.181 3.365 1.181 5 0-.355-1.022-1.022-1.689-2-2z"/><path style="opacity:1" fill="#8d1923" d="M282.5 88.5h4a46.665 46.665 0 0 1 7 2.5 7.292 7.292 0 0 1-3 2 97.732 97.732 0 0 1-13 3c-2.107 1.263-3.107 3.097-3 5.5a60.931 60.931 0 0 1 11 .5c-2.8 1.232-5.8 1.899-9 2-1.861 1.028-3.195 2.528-4 4.5a21.127 21.127 0 0 0 9 1c.17 1.322-.163 2.489-1 3.5a38.715 38.715 0 0 0-5 2.5c-.709.904-1.709 1.237-3 1 .17-1.322-.163-2.489-1-3.5l-6-1c3.709-2.463 4.375-5.296 2-8.5h5v-4l5-6h2c3.064.356 5.731-.477 8-2.5a38.715 38.715 0 0 1-5-2.5z"/><path style="opacity:1" fill="#b6bc59" d="M201.5 107.5h3c-2.15 2.422-2.483 5.089-1 8 0 .667-.333 1-1 1-.977-2.787-1.31-5.787-1-9z"/><path style="opacity:1" fill="#edd82f" d="M204.5 107.5c2.203.104 4.203.77 6 2v4c-1.679-.215-2.679.452-3 2h-4c-1.483-2.911-1.15-5.578 1-8z"/><path style="opacity:1" fill="#cfa743" d="M210.5 110.5c1.098 1.101 1.265 2.434.5 4-.671.752-1.504 1.086-2.5 1h-1c.321-1.548 1.321-2.215 3-2v-3z"/><path style="opacity:1" fill="#967f46" d="M239.5 112.5h1c3.781 2.151 3.114 3.151-2 3a5.727 5.727 0 0 0 1-3z"/><path style="opacity:1" fill="#f4db26" d="M235.5 110.5h1c2.187 5.76.853 7.427-4 5a5.727 5.727 0 0 1-1-3c-.163-2.357.003-4.69.5-7 .549 2.26 1.716 3.926 3.5 5z"/><path style="opacity:1" fill="#4f2b1e" d="M240.5 106.5c1.756 1.052 2.423 2.719 2 5h6c-.918 3.622-.918 7.288 0 11a56.67 56.67 0 0 1-4-6.5c.235-.873.569-1.707 1-2.5-1.545-.952-3.212-1.285-5-1v-6z"/><path style="opacity:1" fill="#503911" d="M240.5 112.5c1.788-.285 3.455.048 5 1a11.456 11.456 0 0 0-1 2.5 56.67 56.67 0 0 0 4 6.5 46.052 46.052 0 0 0 8 1.5c.88 1.356 1.214 2.856 1 4.5v2a10.098 10.098 0 0 1-6-1.5c5.534-3.395 4.867-4.895-2-4.5h-1l-6-1a6.846 6.846 0 0 1 1-4c-2.272-.634-3.939-1.968-5-4 5.114.151 5.781-.849 2-3z"/><path style="opacity:1" fill="#622c0d" d="M226.5 96.5c2.7 3.772 4.034 8.105 4 13h-1a46.052 46.052 0 0 1-1.5-8c-5.904-4.927-8.738-3.594-8.5 4-2.222-.322-4.056.345-5.5 2l-1 7c-4.379 3.059-4.546 6.059-.5 9l1 2c-2.053.098-3.72-.569-5-2-1.333-2.667-1.333-5.333 0-8 .996.086 1.829-.248 2.5-1 .765-1.566.598-2.899-.5-4v-1c-.077-1.25-.744-2.083-2-2.5a18.473 18.473 0 0 0 2-3.5c2.559.302 4.893-.032 7-1 .961-1.765 1.295-3.765 1-6h8z"/><path style="opacity:1" fill="#44390e" d="M203.5 115.5h5c-1.333 2.667-1.333 5.333 0 8h-2v-1c-1.068-.934-2.401-1.268-4-1v-5c.667 0 1-.333 1-1z"/><path style="opacity:1" fill="#80201b" d="M341.5 87.5v1c-2.203 4.987-3.537 10.32-4 16-1.923 3.529-2.589 7.529-2 12-1.679-.215-2.679.452-3 2v3a116.254 116.254 0 0 1-2 19.5c.07.765.403 1.265 1 1.5 0 .667.333 1 1 1a14.093 14.093 0 0 0 1 3.5c-.336 1.03-1.003 1.53-2 1.5.351-3.312-.982-5.645-4-7-1.78-1.49-2.446-3.49-2-6a8.43 8.43 0 0 0 4-.5c1.238-.69 1.238-1.19 0-1.5a20.69 20.69 0 0 1-1-5h3l-1-14h4a29.2 29.2 0 0 0-1-7.5 216.466 216.466 0 0 1 3-6.5 21.542 21.542 0 0 0-1-4.5 37.036 37.036 0 0 0 3-9.5c.917.627 1.917.96 3 1z"/><path style="opacity:1" fill="#b31b2c" d="M361.5 111.5h2c-.506 1.929-1.506 3.595-3 5 1.189.929 2.522 1.262 4 1-.97 3.161-2.637 5.994-5 8.5 1.601.273 3.101.773 4.5 1.5.528 1.316.028 1.983-1.5 2-.683-1.676-2.017-2.343-4-2 .7-2.563 1.7-5.063 3-7.5a18.184 18.184 0 0 1-2-3.5 319.364 319.364 0 0 0 2-5z"/><path style="opacity:1" fill="#ede021" d="M77.5 7.5h56c.665 117.005-.002 233.671-2 350-2.198.38-3.865-.287-5-2h6V8.5c-18.508.33-36.84-.003-55-1z"/><path style="opacity:1" fill="#f0d832" d="M372.5 86.5v5c1.322-.17 2.489.163 3.5 1 1.076 6.003-.091 11.503-3.5 16.5a191.377 191.377 0 0 0 1 24.5h-2c.351-2.369.518-4.703.5-7l-1 1a12.93 12.93 0 0 1-.5-5c-1.062-3.862-.395-7.529 2-11a31.984 31.984 0 0 1-4-1 38.198 38.198 0 0 0 6-10v-2c.951-1.419 1.284-3.085 1-5h-4v-5c-.172-.992.162-1.658 1-2z"/><path style="opacity:1" fill="#d0aa5d" d="M332.5 118.5c1.904.238 3.238 1.238 4 3-1.548.321-2.215 1.321-2 3l-2-3v-3z"/><path style="opacity:1" fill="#5f4619" d="M367.5 110.5h1c1.262.407 2.595.74 4 1-2.395 3.471-3.062 7.138-2 11a27.195 27.195 0 0 0-3 5 75.46 75.46 0 0 0-1-16c.667 0 1-.333 1-1z"/><path style="opacity:1" fill="#d00d29" d="M8.5 8.5a23960.86 23960.86 0 0 0-1 158A4112.949 4112.949 0 0 1 7 9.5c.383-.556.883-.89 1.5-1z"/><path style="opacity:1" fill="#d8b447" d="m236.5 110.5 3 2a5.727 5.727 0 0 1-1 3c1.061 2.032 2.728 3.366 5 4a6.846 6.846 0 0 0-1 4l6 1c-1.901 1.435-2.234 3.102-1 5-6.283-3.283-11.283-7.95-15-14 4.853 2.427 6.187.76 4-5z"/><path style="opacity:1" fill="#872905" d="M229.5 109.5h1c-.237 1.291.096 2.291 1 3a5.727 5.727 0 0 0 1 3c3.717 6.05 8.717 10.717 15 14 2.864 2.514 6.198 4.18 10 5v2a4411.519 4411.519 0 0 0-12-5 41.33 41.33 0 0 0-10.5-8 14.587 14.587 0 0 0-4-6 20.093 20.093 0 0 1-1.5-6v-2z"/><path style="opacity:1" fill="#c91027" d="M239.5 91.5a86.983 86.983 0 0 0 3 5.5 15.28 15.28 0 0 1 4.5 1.5c-.801 2.545-1.134 5.212-1 8 1.688 1.545 3.688 2.545 6 3-.443 2.926-.276 5.926.5 9a12.992 12.992 0 0 0 5.5-1c1.338 1.006 2.671 2.006 4 3 2.54-1.52 5.373-2.52 8.5-3 1.141-.925 1.141-1.759 0-2.5a40.914 40.914 0 0 0-9-.5c-.044-3.586 1.623-5.919 5-7-.825-.886-1.825-1.219-3-1v-7a20.238 20.238 0 0 0 4 4c2.375 3.204 1.709 6.037-2 8.5l6 1c.837 1.011 1.17 2.178 1 3.5 1.291.237 2.291-.096 3-1 5.148.434 7.815-1.899 8-7a16.873 16.873 0 0 1-8-1c3.102-1.683 6.436-2.349 10-2-.308 2.744-.974 5.744-2 9a26.852 26.852 0 0 0-6 3.5c2.157.078 4.157.245 6 .5a61.539 61.539 0 0 1-5 5.5c-4.53.91-7.197 3.576-8 8 4.108-1.269 8.441-2.103 13-2.5.172 1.992-.495 3.658-2 5a318.962 318.962 0 0 0-18 8.5c-4.652 1.16-6.652-.673-6-5.5-4.695-.714-8.695-2.714-12-6 3.959 1.643 7.959 3.309 12 5 .667 0 1 .333 1 1 1.306.967 1.973 2.301 2 4h4a12.992 12.992 0 0 0-1-5.5 57.178 57.178 0 0 1 3-6.5 13.116 13.116 0 0 0-7-1 119.778 119.778 0 0 0-2-6.5c-1.925.135-3.925.302-6 .5-.053-2.64-.72-5.14-2-7.5a47.499 47.499 0 0 0 1-5.5h-6c.107-2.403-.893-4.236-3-5.5a14.972 14.972 0 0 0 3-3.5 58.42 58.42 0 0 0-7-3c1.604-1.679 2.271-3.679 2-6z"/><path style="opacity:1" fill="#7f141f" d="M265.5 119.5a42.361 42.361 0 0 1 8 4.5c-1.847 3.124-3.513 3.124-5 0a12.93 12.93 0 0 0-5-.5c.027-1.699.694-3.033 2-4z"/><path style="opacity:1" fill="#f7c82c" d="M343.5 114.5c.218 6.592.885 13.258 2 20a254.587 254.587 0 0 0 2 14c-2.347-3.846-3.68-8.179-4-13a60.654 60.654 0 0 1 0-21z"/><path style="opacity:1" fill="#937f32" d="M370.5 122.5a12.93 12.93 0 0 0 .5 5l1-1a45.296 45.296 0 0 1-.5 7c-.342.838-1.008 1.172-2 1 .801-1.542 1.134-3.208 1-5h-3v-2a27.195 27.195 0 0 1 3-5z"/><path style="opacity:1" fill="#2c5d90" d="m198.5 101.5 2 3c-1.089 5.646-1.089 11.312 0 17a15500.673 15500.673 0 0 0-1 249h-1v-269z"/><path style="opacity:1" fill="#912228" d="M367.5 108.5v2c0 .667-.333 1-1 1-1.312.645-2.312 1.645-3 3 2.606 3.149 2.606 6.316 0 9.5a9.821 9.821 0 0 1 2 5c-1.207 3.559-1.207 7.059 0 10.5-1.808-1.418-2.475-3.418-2-6-1.679.215-2.679-.452-3-2 1-.333 1.667-1 2-2 1.528-.017 2.028-.684 1.5-2a15.256 15.256 0 0 0-4.5-1.5c2.363-2.506 4.03-5.339 5-8.5-1.478.262-2.811-.071-4-1 1.494-1.405 2.494-3.071 3-5l4-3z"/><path style="opacity:1" fill="#423a3d" d="M-.5-.5h65a22.765 22.765 0 0 1 5 4v1h-2a622.281 622.281 0 0 0-61-.5c-1.473.71-2.14 1.876-2 3.5-.617.11-1.117.444-1.5 1a4416.886 4416.886 0 0 1-1.5 93c-.123 5.644.21 11.311 1 17a9289.54 9289.54 0 0 0 2 65c-.663 1.973-.996 4.139-1 6.5.578 7.828 1.078 15.662 1.5 23.5 2.776 3.667 3.276 7.667 1.5 12a209.487 209.487 0 0 1-7-40V-.5z"/><path style="opacity:1" fill="#d12f02" d="M68.5 7.5h3v314h-1c-.233-1.562-.9-2.895-2-4a12026.827 12026.827 0 0 0 0-310z"/><path style="opacity:1" fill="#662c27" d="M366.5 111.5a75.46 75.46 0 0 1 1 16v2c-1.739 4.838-1.072 9.172 2 13 .667 0 1 .333 1 1-.221 2.779.112 5.446 1 8h-2c-.841-1.879-1.175-3.879-1-6h-3c.454-2.241.454-4.241 0-6-1.207-3.441-1.207-6.941 0-10.5a9.821 9.821 0 0 0-2-5c2.606-3.184 2.606-6.351 0-9.5.688-1.355 1.688-2.355 3-3z"/><path style="opacity:1" fill="#5d3b0f" d="m332.5 121.5 2 3a553.075 553.075 0 0 0 5 8c-.457.798-1.124 1.131-2 1-1.788-.285-3.455.048-5 1a16.99 16.99 0 0 0 6 5v2c-2.559-.302-4.893.032-7 1-.597-.235-.93-.735-1-1.5a116.254 116.254 0 0 0 2-19.5z"/><path style="opacity:1" fill="#f7dd11" d="M343.5 113.5v1a60.654 60.654 0 0 0 0 21c.32 4.821 1.653 9.154 4 13 1.842 3.659 2.842 7.659 3 12 .053 5.696-.28 11.362-1 17-1.88-.271-3.213.396-4 2-2.286-.095-4.286-.762-6-2a116.091 116.091 0 0 1-10-16v-9c1.679.215 2.679-.452 3-2a19.22 19.22 0 0 1 6-1c.215-1.679-.452-2.679-2-3-.135-2.054.532-3.721 2-5v-2a19.22 19.22 0 0 1-1-6c.876.131 1.543-.202 2-1a553.075 553.075 0 0 1-5-8c-.215-1.679.452-2.679 2-3 3.613-.911 3.946-2.578 1-5v-3h6z"/><path style="opacity:1" fill="#c01425" d="M212.5 121.5c3.079-.24 6.079.093 9 1 .449 2.544.449 5.21 0 8 2.699-.034 5.199.633 7.5 2 .498 3.317.665 6.65.5 10h5v5h4v5c3.45-.744 5.116.59 5 4a45.973 45.973 0 0 0 10 5v4h4c-1.135 1.713-2.802 2.38-5 2v-5h-6v-3h-6v-4h-5v-5h-6c.085-2.429 1.085-4.429 3-6-1.984-1.206-3.984-1.206-6 0-.886-.825-1.219-1.825-1-3 2.754-1.553 3.587-3.886 2.5-7l-9-2a29.13 29.13 0 0 1 .5-9l-7-2z"/><path style="opacity:1" fill="#295ca8" d="M137.5 6.5c19.84-.33 39.507.003 59 1h-59v344a9.86 9.86 0 0 0 1 6 22.484 22.484 0 0 1 4 5 31.686 31.686 0 0 1-6-2V7.5c0-.667.333-1 1-1z"/><path style="opacity:1" fill="#cd0f27" d="M361.5 111.5a319.364 319.364 0 0 1-2 5 18.184 18.184 0 0 0 2 3.5 36.127 36.127 0 0 0-3 7.5c1.983-.343 3.317.324 4 2-.333 1-1 1.667-2 2a82.256 82.256 0 0 0 0 9.5 4.934 4.934 0 0 0 3 .5c-.416 2.86.584 5.026 3 6.5-1.338 2.724-.338 3.891 3 3.5h1c.541 3.795-1.125 5.795-5 6l-1 2a165.596 165.596 0 0 0 4 19c-2.593 1.571-3.593 3.904-3 7 0 .667-.333 1-1 1a407.78 407.78 0 0 1-1-31c1.788.285 3.455-.048 5-1a9.86 9.86 0 0 0-6-1 16.873 16.873 0 0 0-1-8c-3.228-3.279-4.228-7.113-3-11.5l-2-9c.248-1.716.915-3.216 2-4.5-3.409-4.746-2.409-7.746 3-9z"/><path style="opacity:1" fill="#6f7d30" d="M200.5 121.5h2c1.599-.268 2.932.066 4 1h-5v247a15376.315 15376.315 0 0 1-1-248z"/><path style="opacity:1" fill="#a7192c" d="M67.5 5.5a8.434 8.434 0 0 1 4 .5c-.556.383-.89.883-1 1.5h-2a900.594 900.594 0 0 0-60 1c-.617.11-1.117.444-1.5 1a4112.949 4112.949 0 0 0 .5 157 371.44 371.44 0 0 0 2 44c-1.545-.73-2.378-2.063-2.5-4-.176-4.188-.676-8.188-1.5-12-.167-62.001 0-124 .5-186L8.5 6c19.664-.5 39.33-.667 59-.5z"/><path style="opacity:1" fill="#443e2b" d="M395.5 10.5a7986.982 7986.982 0 0 0 3 179c-2.359 27.44-9.692 53.44-22 78l-6 8a51.569 51.569 0 0 0 1-7 7.47 7.47 0 0 0 3-2 78.796 78.796 0 0 1 7.5-15 50.908 50.908 0 0 0 3.5-17v-1c1.636-1.249 2.803-2.916 3.5-5a206.369 206.369 0 0 0 5.5-30 8840.174 8840.174 0 0 0 1-188z"/><path style="opacity:1" fill="#622025" d="M5.5 194.5c.824 3.812 1.324 7.812 1.5 12 .122 1.937.955 3.27 2.5 4v8c-3.41-7.526-4.744-15.526-4-24z"/><path style="opacity:1" fill="#534606" d="M393.5 178.5c.991 6.479 1.324 13.146 1 20a206.369 206.369 0 0 1-5.5 30c-.697 2.084-1.864 3.751-3.5 5a228.384 228.384 0 0 0 8-55z"/><path style="opacity:1" fill="#fdfdfd" d="M-.5 185.5a209.487 209.487 0 0 0 7 40 210.27 210.27 0 0 0 10 31 607.576 607.576 0 0 0 3 6 211.919 211.919 0 0 1 9.5 19c2.364 3.19 4.864 6.19 7.5 9-.227 2.433.773 4.099 3 5 7.856 11.53 17.19 21.863 28 31 18.549 17.278 39.882 29.944 64 38l4 2c5.631 2.577 11.631 4.244 18 5 2.811.975 5.811 1.642 9 2 4.091 1.395 8.424 2.062 13 2h2l9 2H-.5v-192z"/><path style="opacity:1" fill="#fefefd" d="M399.5 182.5v195h-189v-1c6.905.293 13.572-.374 20-2h1a19.522 19.522 0 0 1 7.5 1 74.835 74.835 0 0 1 14.5-6 247.965 247.965 0 0 1 15-5c16.269-6.798 31.602-15.131 46-25v-1c15.636-10.304 28.97-22.971 40-38 .667 0 1-.333 1-1a163.982 163.982 0 0 0 14-20c3.339-3.335 5.672-7.335 7-12 12.308-24.56 19.641-50.56 22-78-.302-2.559.032-4.893 1-7z"/><path style="opacity:1" fill="#c9112a" d="M9.5 210.5c2.377 3.831 3.544 8.164 3.5 13 2.98 4.86 4.147 10.193 3.5 16h-1a86.401 86.401 0 0 0-5-16c.134-1.792-.2-3.458-1-5v-8z"/><path style="opacity:1" fill="#473436" d="M4.5 183.5c-.315 3.871.018 7.538 1 11-.744 8.474.59 16.474 4 24 .8 1.542 1.134 3.208 1 5-1.062 6.342.605 11.675 5 16-.24 2.398.426 4.398 2 6 .27 3.858 1.603 7.191 4 10a27.29 27.29 0 0 0 2 9 91.752 91.752 0 0 0 9 13 67.212 67.212 0 0 0 4.5 9c.67.752 1.504 1.086 2.5 1a8.435 8.435 0 0 0 .5 4 503.683 503.683 0 0 0 11.5 12c3.646 8.313 9.646 14.313 18 18a5.728 5.728 0 0 0 1 3 4.932 4.932 0 0 1-.5 3c-.67-.752-1.504-1.086-2.5-1-10.81-9.137-20.144-19.47-28-31-.61-1.934-1.61-3.601-3-5a101.383 101.383 0 0 1-7.5-9 211.919 211.919 0 0 0-9.5-19c.475-2.813-.525-4.813-3-6a210.27 210.27 0 0 1-10-31c1.776-4.333 1.276-8.333-1.5-12-.422-7.838-.922-15.672-1.5-23.5.004-2.361.337-4.527 1-6.5z"/><path style="opacity:1" fill="#612125" d="M10.5 223.5a86.401 86.401 0 0 1 5 16c-4.395-4.325-6.062-9.658-5-16z"/><path style="opacity:1" fill="#ac182c" d="M15.5 239.5h1c1.29.558 2.123 1.558 2.5 3a37.276 37.276 0 0 0 2.5 8v1a38.496 38.496 0 0 1-4-6c-1.574-1.602-2.24-3.602-2-6z"/><path style="opacity:1" fill="#6c2024" d="M17.5 245.5a38.496 38.496 0 0 0 4 6v4c-2.397-2.809-3.73-6.142-4-10z"/><path style="opacity:1" fill="#999799" d="M16.5 256.5c2.475 1.187 3.475 3.187 3 6a607.576 607.576 0 0 1-3-6z"/><path style="opacity:1" fill="#692027" d="M21.5 255.5a232.558 232.558 0 0 1 11 22 91.752 91.752 0 0 1-9-13 27.29 27.29 0 0 1-2-9z"/><path style="opacity:1" fill="#56450f" d="M385.5 234.5a50.908 50.908 0 0 1-3.5 17 78.796 78.796 0 0 0-7.5 15 7.47 7.47 0 0 1-3 2 369.186 369.186 0 0 0 14-34z"/><path style="opacity:1" fill="#f7df07" d="M391.5 8.5h2c-.197 56.565-.197 112.898 0 169v1a228.384 228.384 0 0 1-8 55v1a369.186 369.186 0 0 1-14 34 108.275 108.275 0 0 0-9 15c-19.655 28.322-44.655 50.655-75 67-20.505 9.455-41.838 15.789-64 19-6.74.815-13.406.815-20 0a15255.478 15255.478 0 0 1-1-246h6c1.28 1.431 2.947 2.098 5 2 .709.904 1.709 1.237 3 1v4a18.155 18.155 0 0 0-5.5 2c-1.356-.88-2.856-1.214-4.5-1-.219 1.175.114 2.175 1 3 3.397 2.022 7.064 3.022 11 3h6v5a25.14 25.14 0 0 0-4.5 4c-.692.937-.525 1.603.5 2v7c1.792-.134 3.458.199 5 1 .874 1.025 2.041 1.692 3.5 2 1.162-.687 2.328-.853 3.5-.5-1.537 1.11-2.203 2.61-2 4.5h6c-.734 1.208-1.067 2.541-1 4 3.672 1.154 7.338 1.321 11 .5a22.755 22.755 0 0 1-5 4c3.527.808 6.86.641 10-.5h4a8.43 8.43 0 0 1 4 .5c1.333 1 1.333 2 0 3-3.039.353-5.705 1.52-8 3.5-3.203-1.032-5.536.135-7 3.5a4.934 4.934 0 0 1-3 .5c-.302 7.22-2.135 13.887-5.5 20-1.491 1.504-3.324 2.337-5.5 2.5.837 1.011 1.17 2.178 1 3.5-.916 2.96.418 4.293 4 4 1.4.6 2.4 1.6 3 3-2.6.968-4.934 2.301-7 4 2.654 1.468 4.987 3.135 7 5-2.556-.368-4.556.466-6 2.5.336 1.03 1.003 1.53 2 1.5a51.22 51.22 0 0 1 4 2.5 12.403 12.403 0 0 0-4 2.5 3.647 3.647 0 0 0 1 1.5 27.866 27.866 0 0 0 11 1.5v4c-.677 6.677-4.343 10.343-11 11-4.814.407-8.814 2.407-12 6-2.053-.098-3.72.569-5 2-3.45 1.237-4.45 3.57-3 7 3.15-1.689 5.817-1.356 8 1v1c-5.351 1.402-7.684 4.735-7 10 .783-1.788 2.116-2.788 4-3a40.914 40.914 0 0 1 9 .5c.837 1.011 1.17 2.178 1 3.5-2.944 3.521-3.611 7.521-2 12 1.584-3.255 3.917-5.922 7-8 3.724-1.193 6.724-3.359 9-6.5 1.765-.64 3.432-.473 5 .5-.181 3.053-.348 6.053-.5 9a33.673 33.673 0 0 0 5.5-4c4.69-4.434 10.357-6.601 17-6.5.862-2.734 1.695-2.901 2.5-.5 2.972-1.679 5.639-2.012 8-1 1.044-1.123 1.71-2.456 2-4 .928 1.835 2.094 2.168 3.5 1 .886.825 1.219 1.825 1 3 .12 1.086.787 1.753 2 2 2.813-.571 5.146-1.904 7-4 1.679-.215 2.679.452 3 2-1.044 5.547-4.377 9.047-10 10.5-4.325-.824-8.658-.657-13 .5h-7v4c-2.666.433-5.332.933-8 1.5a7.248 7.248 0 0 0-2 2.5 118.595 118.595 0 0 1 2.5 22l3 2c2.538-5.136 6.705-7.136 12.5-6v4c-1.235.221-2.235.888-3 2a261.12 261.12 0 0 0-2 7.5c1.333.667 1.333 1.333 0 2 1.544 1.187 3.211 1.52 5 1a32.787 32.787 0 0 0 7-9.5c1.903-.296 3.57-.963 5-2a5.727 5.727 0 0 1 3-1 26.796 26.796 0 0 1 8-4v6c-4.599 5.007-3.933 6.007 2 3 3.291-2.61 5.291-5.944 6-10h7v-4c6.007-1.502 10.007-5.335 12-11.5 1.493-1.368 2.993-1.535 4.5-.5a14.444 14.444 0 0 1 2.5-5.5 4.934 4.934 0 0 0-3-.5c-.236-3.109.097-6.109 1-9 1.333-2.667 1.333-5.333 0-8v-3c.247-3.005-.753-5.505-3-7.5 2.148-2.075 2.482-4.408 1-7 1.153-1.883 2.819-2.716 5-2.5.486-2.307.486-4.473 0-6.5 2.597-.779 2.597-1.279 0-1.5l-1-2c-.067-1.459.266-2.792 1-4 .876.131 1.543-.202 2-1a31.84 31.84 0 0 0-4.5-5 40.914 40.914 0 0 1-.5-9v-2c2.435-4.299 4.102-8.966 5-14a31.494 31.494 0 0 1 10-5c7.828-3.5 14.494-8.5 20-15h1a29.045 29.045 0 0 0 8-2c-1.875-1.04-3.208-2.54-4-4.5a43.286 43.286 0 0 0 3-5.5 32.065 32.065 0 0 1-4-2.5c2.135-.759 3.468-2.259 4-4.5-.925-1.062-1.925-1.062-3 0v-1a24.257 24.257 0 0 1 3-5.5c-1.496-.507-2.663-.007-3.5 1.5a2.428 2.428 0 0 1-.5-2l2-2c.624-.417.957-1.084 1-2a89.247 89.247 0 0 1-2-4c2.413-2.611 2.413-5.278 0-8 .18-1.054.513-2.054 1-3a9.258 9.258 0 0 1-2-2.5c.648-1.44.981-2.94 1-4.5a191.377 191.377 0 0 1-1-24.5c3.409-4.997 4.576-10.497 3.5-16.5-1.011-.837-2.178-1.17-3.5-1v-5a24.935 24.935 0 0 0-.5-7c-.383.556-.883.89-1.5 1-1.548-.321-2.215-1.321-2-3 2.927-7.93 3.594-15.93 2-24 .38-4.61-1.62-7.276-6-8 .224 3.679.558 7.346 1 11v5h-1c-.921 1.481-2.088 2.814-3.5 4-.945-.405-1.612-1.072-2-2l-1 1a29.13 29.13 0 0 0 .5 9c-1.175-.219-2.175.114-3 1-.009 4.654-2.175 8.32-6.5 11a25.565 25.565 0 0 0-4.5-4v-1c-.171-15.873-.505-31.54-1-47a31.552 31.552 0 0 0-9.5 3 598.397 598.397 0 0 1-5.5-10c-1.772 3.06-4.105 5.56-7 7.5-4.52.814-8.854.647-13-.5-2.804-1.138-5.804-1.304-9-.5a23.901 23.901 0 0 1-9 2.5c-7.573.705-14.907 2.038-22 4-.39 3.297-1.39 6.297-3 9-6.393-.371-8.893 2.962-7.5 10a6.977 6.977 0 0 0 2.5 3.5c5.258.943 8.924 3.776 11 8.5-.203 1.89.463 3.39 2 4.5l13 1c.837 1.011 1.17 2.178 1 3.5-3.452.892-6.452 2.558-9 5a32.729 32.729 0 0 0-8 11c-.787 1.604-2.12 2.27-4 2-1.517-.01-2.684-.677-3.5-2-3.523-4.332-6.356-8.999-8.5-14a104.405 104.405 0 0 1-3-19.5 50.269 50.269 0 0 0 1.5-17.5c-.312-2.81-1.812-4.476-4.5-5-3.71-1.83-7.377-3.997-11-6.5-2.471-.706-4.805-.373-7 1l7.5 5.5a8.43 8.43 0 0 1 .5 4 40.101 40.101 0 0 1-14.5-4c-1.845.55-3.345 1.55-4.5 3l6 4c.952 1.545 1.285 3.212 1 5a48.663 48.663 0 0 0-13-.5 7.253 7.253 0 0 0-2 2.5c2.69 1.007 5.356 2.007 8 3a42.231 42.231 0 0 0 3.5 8c1.734 1.95 3.901 2.95 6.5 3 .271 1.88-.396 3.213-2 4-3.507.507-6.674-.16-9.5-2-1.461 2.35-.961 4.517 1.5 6.5l7 3.5a20.967 20.967 0 0 1 3 4.5c-2.541 2.194-2.541 4.361 0 6.5-2.304 3.43-5.637 4.764-10 4-1.458-1.51-3.291-2.51-5.5-3-1.356.88-2.856 1.213-4.5 1v3c2.826.498 5.16 1.831 7 4 .172.992-.162 1.658-1 2-4.267.297-8.434-.036-12.5-1-.5-30.665-.667-61.331-.5-92h189z"/><path style="opacity:1" fill="#4e3c0b" d="M266.5 267.5a20.69 20.69 0 0 0-1 5l-4-2c1.159-1.75 2.826-2.75 5-3z"/><path style="opacity:1" fill="#ccb564" d="M291.5 270.5c0-1.333-.667-2-2-2 1.384-2.695 3.384-3.695 6-3-1.008 1.999-2.341 3.666-4 5z"/><path style="opacity:1" fill="#5c2915" d="M224.5 259.5h2c2.81 2.446 2.644 4.78-.5 7-.78 1.887-.613 3.554.5 5v2h-3v-7c1.333-1 1.333-2 0-3-1.675-1.956-1.342-3.289 1-4z"/><path style="opacity:1" fill="#ce1523" d="M321.5 254.5c.783 1.828 2.116 3.161 4 4a69.066 69.066 0 0 0 6 8.5c.648 1.44.981 2.94 1 4.5-1.322-.17-2.489.163-3.5 1a49.602 49.602 0 0 0 .5 10c-1.459.067-2.792-.266-4-1 .71-3.118 1.377-6.285 2-9.5-.593-1.882-1.927-2.882-4-3 3.312-2.255 2.978-4.588-1-7a3.647 3.647 0 0 0 1-1.5c-1.586-1.673-2.253-3.673-2-6z"/><path style="opacity:1" fill="#672c1c" d="m269.5 261.5-2 4c.172.992-.162 1.658-1 2-2.174.25-3.841 1.25-5 3v1a567.861 567.861 0 0 1-12 4l1-2c1.562-.233 2.895-.9 4-2a82.016 82.016 0 0 0 7-4.5 12.93 12.93 0 0 1 5-.5v-5h3z"/><path style="opacity:1" fill="#f4dc1a" d="M285.5 248.5c1.333 0 2 .667 2 2a46.198 46.198 0 0 1-7 8.5c3.181.597 6.181.097 9-1.5.838.342 1.172 1.008 1 2-.821 3.163-2.488 5.83-5 8 1.189.929 2.522 1.262 4 1 1.333 0 2 .667 2 2a6.547 6.547 0 0 1-3 3c.219-1.175-.114-2.175-1-3-1.406 1.168-2.572.835-3.5-1-.29 1.544-.956 2.877-2 4-2.361-1.012-5.028-.679-8 1-.805-2.401-1.638-2.234-2.5.5-6.643-.101-12.31 2.066-17 6.5a5.727 5.727 0 0 1 1-3c.722-1.051 1.722-1.718 3-2a10.165 10.165 0 0 0 3-3c1.599.268 2.932-.066 4-1a20.69 20.69 0 0 1 1-5c.838-.342 1.172-1.008 1-2a31.147 31.147 0 0 1 2 2c1.027-3.339 2.527-6.339 4.5-9 2.91-.95 4.077-2.95 3.5-6a10.165 10.165 0 0 1 3-3 20.69 20.69 0 0 0 5-1z"/><path style="opacity:1" fill="#bf1825" d="M263.5 257.5v6h-4v4c-3.088-.303-4.754 1.03-5 4-1.105 1.1-2.438 1.767-4 2-4.41-.877-7.743.623-10 4.5-1.525 1.009-3.192 1.509-5 1.5v-2c1.478.262 2.811-.071 4-1 2.503-3.259 5.836-4.759 10-4.5 1.912-1.2 3.245-2.867 4-5a12.93 12.93 0 0 1 5-.5v-4h4c-.284-1.915.049-3.581 1-5z"/><path style="opacity:1" fill="#943501" d="m325.5 258.5 3 2c2.116 2.1 3.783 4.433 5 7v3c0 .667-.333 1-1 1a11.187 11.187 0 0 0-1-4.5 69.066 69.066 0 0 1-6-8.5z"/><path style="opacity:1" fill="#93201c" d="M304.5 271.5h-2c.219-1.175-.114-2.175-1-3-1.122 1.13-2.456 1.797-4 2 .008-3.695-1.326-6.695-4-9-.929-1.189-1.262-2.522-1-4 0-1.333-.667-2-2-2-1.756-1.052-2.423-2.719-2-5a14.093 14.093 0 0 1 1-3.5c-.336-1.03-1.003-1.53-2-1.5v-2c1.322.17 2.489-.163 3.5-1 .14 3.734-.36 7.401-1.5 11 1.992.172 3.658-.495 5-2l2 8a6.846 6.846 0 0 1 4-1v6h4v7z"/><path style="opacity:1" fill="#68420d" d="M292.5 257.5c-.262 1.478.071 2.811 1 4 2.674 2.305 4.008 5.305 4 9v1c-1.854 2.096-4.187 3.429-7 4-1.213-.247-1.88-.914-2-2a6.547 6.547 0 0 0 3-3c1.659-1.334 2.992-3.001 4-5-2.616-.695-4.616.305-6 3-1.478.262-2.811-.071-4-1 2.512-2.17 4.179-4.837 5-8l2-2z"/><path style="opacity:1" fill="#54390d" d="M275.5 252.5h2c.577 3.05-.59 5.05-3.5 6-1.973 2.661-3.473 5.661-4.5 9a31.147 31.147 0 0 0-2-2l2-4v-2c1.971-2.308 3.971-4.642 6-7z"/><path style="opacity:1" fill="#776113" d="M218.5 258.5a39.064 39.064 0 0 1-2 4.5c2.31.497 4.643.663 7 .5 1.333 1 1.333 2 0 3-2.183-2.356-4.85-2.689-8-1-1.45-3.43-.45-5.763 3-7z"/><path style="opacity:1" fill="#922825" d="M230.5 254.5c-2.606 2.78-2.606 5.613 0 8.5-.77 1.775-1.937 3.275-3.5 4.5a8.43 8.43 0 0 0-.5 4c-1.113-1.446-1.28-3.113-.5-5 3.144-2.22 3.31-4.554.5-7-.317-3.046 1.016-4.713 4-5z"/><path style="opacity:1" fill="#493c0a" d="M223.5 256.5a5.727 5.727 0 0 0 1 3c-2.342.711-2.675 2.044-1 4a24.935 24.935 0 0 1-7-.5 39.064 39.064 0 0 0 2-4.5c1.28-1.431 2.947-2.098 5-2z"/><path style="opacity:1" fill="#f1d42b" d="M336.5 242.5c2.597.221 2.597.721 0 1.5.486 2.027.486 4.193 0 6.5-2.181-.216-3.847.617-5 2.5 1.482 2.592 1.148 4.925-1 7 2.247 1.995 3.247 4.495 3 7.5-1.217-2.567-2.884-4.9-5-7v-3h3c-.298-2.765-1.298-5.265-3-7.5a20.2 20.2 0 0 0 6-1.5l-3-4a11.637 11.637 0 0 1 5-2z"/><path style="opacity:1" fill="#e9b85c" d="M325.5 254.5a6.547 6.547 0 0 0 3 3v3l-3-2c-.854-1.535-.854-2.868 0-4z"/><path style="opacity:1" fill="#ca995d" d="M290.5 255.5c1.333 0 2 .667 2 2l-2 2c.172-.992-.162-1.658-1-2l1-2z"/><path style="opacity:1" fill="#6a4306" d="M287.5 250.5h1c-.423 2.281.244 3.948 2 5l-1 2c-2.819 1.597-5.819 2.097-9 1.5a46.198 46.198 0 0 0 7-8.5z"/><path style="opacity:1" fill="#702120" d="M275.5 251.5v1a2464.252 2464.252 0 0 0-6 7c-1.361-5.269.639-7.936 6-8z"/><path style="opacity:1" fill="#6c440b" d="m331.5 237.5 4 3 1 2a11.637 11.637 0 0 0-5 2l3 4a20.2 20.2 0 0 1-6 1.5c1.702 2.235 2.702 4.735 3 7.5h-3a6.547 6.547 0 0 1-3-3c.831-2.231 2.331-4.564 4.5-7a168.167 168.167 0 0 0 1.5-8v-2z"/><path style="opacity:1" fill="#c61426" d="M289.5 228.5v12c1.644-.214 3.144.12 4.5 1 1.976 7.7 4.476 15.034 7.5 22 4.713-.032 6.213 2.301 4.5 7-.383.556-.883.889-1.5 1v-7h-4v-6a6.846 6.846 0 0 0-4 1l-2-8c-1.342 1.505-3.008 2.172-5 2a32.175 32.175 0 0 0 1.5-11c-1.011.837-2.178 1.17-3.5 1a328.344 328.344 0 0 1 2-15z"/><path style="opacity:1" fill="#793704" d="m235.5 250.5-1 2c-1.653.16-2.986.826-4 2-2.984.287-4.317 1.954-4 5h-2a5.727 5.727 0 0 1-1-3c3.186-3.593 7.186-5.593 12-6z"/><path style="opacity:1" fill="#7f211c" d="M331.5 239.5a168.167 168.167 0 0 1-1.5 8c-2.169 2.436-3.669 4.769-4.5 7-.854 1.132-.854 2.465 0 4-1.884-.839-3.217-2.172-4-4v-4c1.739.934 3.405.934 5 0a9.108 9.108 0 0 1-1-5h3c-.413-2.82.587-4.82 3-6z"/><path style="opacity:1" fill="#9f1e27" d="M275.5 248.5c1.333 1 1.333 2 0 3-5.361.064-7.361 2.731-6 8v2h-3v5a12.93 12.93 0 0 0-5 .5 82.016 82.016 0 0 1-7 4.5c.246-2.97 1.912-4.303 5-4v-4h4v-6c1.788.285 3.455-.048 5-1a9.108 9.108 0 0 1-1-5 12.93 12.93 0 0 0 5-.5c.578-1.417 1.578-2.25 3-2.5z"/><path style="opacity:1" fill="#bf1723" d="m269.5 225.5 3.5 7a91.063 91.063 0 0 0 2.5 16c-1.422.25-2.422 1.083-3 2.5a12.93 12.93 0 0 1-5 .5 9.108 9.108 0 0 0 1 5c-1.545.952-3.212 1.285-5 1 .709-.904 1.709-1.237 3-1a15.418 15.418 0 0 1 1-7 14.748 14.748 0 0 0 4.5-3c.667-4 .667-8 0-12-2.105-2.607-2.938-5.607-2.5-9z"/><path style="opacity:1" fill="#cc9d63" d="M287.5 245.5c.997-.03 1.664.47 2 1.5a14.093 14.093 0 0 0-1 3.5h-1c0-1.333-.667-2-2-2 1.051-.722 1.718-1.722 2-3z"/><path style="opacity:1" fill="#644b06" d="M284.5 243.5a5.727 5.727 0 0 1 3 1v1c-.282 1.278-.949 2.278-2 3a20.69 20.69 0 0 1-5 1 5.727 5.727 0 0 1 1-3 6.547 6.547 0 0 1 3-3z"/><path style="opacity:1" fill="#e1b73e" d="M273.5 228.5c1.29.558 2.123 1.558 2.5 3l1 12c.918 1.876 2.418 2.876 4.5 3a5.727 5.727 0 0 0-1 3 10.165 10.165 0 0 0-3 3 440.734 440.734 0 0 0-4-24z"/><path style="opacity:1" fill="#bf1b23" d="M242.5 189.5h1c.849 6.105-.484 11.605-4 16.5l7 1c.457.414.791.914 1 1.5a83.63 83.63 0 0 0-3 6.5c2.146.479 3.146 1.812 3 4a46.563 46.563 0 0 0-1 11.5h5a57.138 57.138 0 0 1-3.5 18c-3.82 3.311-8.32 5.144-13.5 5.5-4.06 1.886-5.06 4.886-3 9a41.34 41.34 0 0 0-3 7.5h7v7c-1.713-1.135-2.38-2.802-2-5h-7v-1a8.43 8.43 0 0 1 .5-4c1.563-1.225 2.73-2.725 3.5-4.5-2.606-2.887-2.606-5.72 0-8.5 1.014-1.174 2.347-1.84 4-2 8.277-.943 12.943-5.61 14-14v-5h-5c-.169-2.412.497-4.579 2-6.5l-2-3c1.701-1.86 2.701-4.027 3-6.5l-6 1a66.493 66.493 0 0 1 5-9.5l-.5-1.5c-2.381.935-4.881 1.268-7.5 1v-3a27.563 27.563 0 0 1 3.5-6 52.016 52.016 0 0 0 1.5-10z"/><path style="opacity:1" fill="#973304" d="M247.5 238.5h1c-1.057 8.39-5.723 13.057-14 14l1-2c6.657-.657 10.323-4.323 11-11 .667 0 1-.333 1-1z"/><path style="opacity:1" fill="#c71324" d="M337.5 199.5a76.086 76.086 0 0 1-4 20v2c-.904.709-1.237 1.709-1 3-1.713 1.135-2.38 2.802-2 5h-3a136.143 136.143 0 0 0-3 20c-1.291-.237-2.291.096-3 1v4c-1.149-.291-1.816-1.124-2-2.5-.112-1.662.554-2.829 2-3.5a123.496 123.496 0 0 0 2.5-13c2.332-3.959 3.998-8.292 5-13l1 2c2.119-5.465 2.952-11.131 2.5-17h3c-.536-3.198.131-5.865 2-8z"/><path style="opacity:1" fill="#ccad56" d="M331.5 235.5a20.69 20.69 0 0 0 5 1c-.734 1.208-1.067 2.541-1 4l-4-3v-2z"/><path style="opacity:1" fill="#9a3e0c" d="M297.5 206.5c.838.342 1.172 1.008 1 2a62.006 62.006 0 0 1-8.5 14 18.453 18.453 0 0 0-.5 6 328.344 328.344 0 0 0-2 15v1a5.727 5.727 0 0 0-3-1 249.114 249.114 0 0 0 3.5-22 16.58 16.58 0 0 1 2.5-4 60.05 60.05 0 0 0 7-11z"/><path style="opacity:1" fill="#9d1c22" d="M332.5 224.5c.429 3.757-.237 7.257-2 10.5.228.399.562.565 1 .5v4c-2.413 1.18-3.413 3.18-3 6h-3a9.108 9.108 0 0 0 1 5c-1.595.934-3.261.934-5 0 .709-.904 1.709-1.237 3-1 .518-6.833 1.518-13.5 3-20h3c-.38-2.198.287-3.865 2-5z"/><path style="opacity:1" fill="#71410c" d="M333.5 221.5a40.914 40.914 0 0 0 .5 9 31.84 31.84 0 0 1 4.5 5c-.457.798-1.124 1.131-2 1a20.69 20.69 0 0 1-5-1c-.438.065-.772-.101-1-.5 1.763-3.243 2.429-6.743 2-10.5-.237-1.291.096-2.291 1-3z"/><path style="opacity:1" fill="#68470f" d="M238.5 214.5h1c.377 3.653.377 7.153 0 10.5.4 2.9 1.066 5.733 2 8.5a11.988 11.988 0 0 0 6 1v4c0 .667-.333 1-1 1v-4a27.866 27.866 0 0 1-11-1.5 3.647 3.647 0 0 1-1-1.5 12.403 12.403 0 0 1 4-2.5 51.22 51.22 0 0 0-4-2.5c-.111-.617-.444-1.117-1-1.5a38.715 38.715 0 0 0 5-2.5c-2.013-1.865-4.346-3.532-7-5 2.066-1.699 4.4-3.032 7-4z"/><path style="opacity:1" fill="#84261a" d="M237.5 205.5v3c2.619.268 5.119-.065 7.5-1l.5 1.5a66.493 66.493 0 0 0-5 9.5l6-1c-.299 2.473-1.299 4.64-3 6.5l2 3c-1.503 1.921-2.169 4.088-2 6.5h5v5h-1v-4a11.988 11.988 0 0 1-6-1c-.934-2.767-1.6-5.6-2-8.5.377-3.347.377-6.847 0-10.5.904-.709 1.237-1.709 1-3h-4c-1.562-2.401-1.229-4.401 1-6z"/><path style="opacity:1" fill="#8a7506" d="M238.5 223.5a38.715 38.715 0 0 1-5 2.5c.556.383.889.883 1 1.5-.997.03-1.664-.47-2-1.5 1.444-2.034 3.444-2.868 6-2.5z"/><path style="opacity:1" fill="#983805" d="M267.5 212.5h1c-.891 5.994.776 10.994 5 15v1a440.734 440.734 0 0 1 4 24h-2v-1c1.333-1 1.333-2 0-3a91.063 91.063 0 0 1-2.5-16l-3.5-7c-1.575-1.614-2.241-3.614-2-6v-7z"/><path style="opacity:1" fill="#f7dd12" d="M290.5 217.5a16.58 16.58 0 0 0-2.5 4 249.114 249.114 0 0 1-3.5 22 6.547 6.547 0 0 0-3 3c-2.082-.124-3.582-1.124-4.5-3l-1-12c-.377-1.442-1.21-2.442-2.5-3v-1c.172-1.992-.495-3.658-2-5 2.55-1.104 4.883-2.437 7-4v-1h4c-.065.438.101.772.5 1 1.417-.578 2.25-1.578 2.5-3 .617-.111 1.117-.444 1.5-1 .582 3.168 1.582 3.501 3 1 .464.594.631 1.261.5 2z"/><path style="opacity:1" fill="#eac34b" d="M268.5 212.5h2v8c1.679.215 2.679-.452 3-2a7.47 7.47 0 0 1 2-3c.641 1.493 1.641 2.493 3 3-2.117 1.563-4.45 2.896-7 4 1.505 1.342 2.172 3.008 2 5-4.224-4.006-5.891-9.006-5-15z"/><path style="opacity:1" fill="#9a8223" d="M270.5 212.5c.667 0 1 .333 1 1a18.453 18.453 0 0 0 .5 6c.383-.556.883-.889 1.5-1-.321 1.548-1.321 2.215-3 2v-8z"/><path style="opacity:1" fill="#8b7222" d="M280.5 214.5c.235-.597.735-.93 1.5-1 1.077.929 2.244 1.596 3.5 2-.25 1.422-1.083 2.422-2.5 3-.399-.228-.565-.562-.5-1 .215-1.679-.452-2.679-2-3z"/><path style="opacity:1" fill="#d7c763" d="M280.5 214.5c1.548.321 2.215 1.321 2 3h-4l2-3z"/><path style="opacity:1" fill="#cdb048" d="M297.5 206.5a60.05 60.05 0 0 1-7 11 2.428 2.428 0 0 0-.5-2c-1.418 2.501-2.418 2.168-3-1-.383.556-.883.889-1.5 1 1.819-5.339 3.485-5.672 5-1a36.602 36.602 0 0 0 4-7 5.727 5.727 0 0 1 3-1z"/><path style="opacity:1" fill="#c49756" d="M235.5 211.5h5c.237 1.291-.096 2.291-1 3h-1c-.6-1.4-1.6-2.4-3-3z"/><path style="opacity:1" fill="#583616" d="M291.5 206.5c.709.904 1.709 1.237 3 1a36.602 36.602 0 0 1-4 7c-1.515-4.672-3.181-4.339-5 1-1.256-.404-2.423-1.071-3.5-2-.765.07-1.265.403-1.5 1l-2 3v1c-1.359-.507-2.359-1.507-3-3a7.47 7.47 0 0 0-2 3c-.617.111-1.117.444-1.5 1a18.453 18.453 0 0 1-.5-6 103.86 103.86 0 0 1 16-3.5c.837-1.011 1.17-2.178 1-3.5h3z"/><path style="opacity:1" fill="#d00f24" d="M293.5 177.5a28.135 28.135 0 0 0 9 3.5l-3 1a26.67 26.67 0 0 1 1.5 6.5c.893-1.211 1.726-1.211 2.5 0a12.906 12.906 0 0 0-1 4c2.548 6.59 2.548 13.257 0 20h-5c-.448 5.069-2.781 8.736-7 11 .284 1.915-.049 3.581-1 5a18.453 18.453 0 0 1 .5-6 62.006 62.006 0 0 0 8.5-14c2.227-.901 3.227-2.567 3-5h-5c1.495-1.831 2.162-3.998 2-6.5a60.047 60.047 0 0 1-3-11.5c.997.03 1.664-.47 2-1.5a37.76 37.76 0 0 1-4-6.5z"/><path style="opacity:1" fill="#7c2321" d="M291.5 206.5h-3c.17 1.322-.163 2.489-1 3.5a103.86 103.86 0 0 0-16 3.5c0-.667-.333-1-1-1h-3a209.777 209.777 0 0 1 20-4c-.353-2.135.48-3.468 2.5-4 1.03.336 1.53 1.003 1.5 2z"/><path style="opacity:1" fill="#af1621" d="M296.5 203.5c-1.159 1.75-2.826 2.75-5 3 .03-.997-.47-1.664-1.5-2-2.02.532-2.853 1.865-2.5 4a209.777 209.777 0 0 0-20 4v7c-1.265-1.014-1.931-2.514-2-4.5-.195-2.352.472-4.352 2-6 8.46 1.068 15.96-1.099 22.5-6.5a15.894 15.894 0 0 0 6.5 1z"/><path style="opacity:1" fill="#811d16" d="M296.5 203.5h5c.227 2.433-.773 4.099-3 5 .172-.992-.162-1.658-1-2a5.727 5.727 0 0 0-3 1c-1.291.237-2.291-.096-3-1 2.174-.25 3.841-1.25 5-3z"/><path style="opacity:1" fill="#8b3b05" d="M242.5 189.5a52.016 52.016 0 0 1-1.5 10 27.563 27.563 0 0 0-3.5 6c-2.229 1.599-2.562 3.599-1 6h-1c-3.582.293-4.916-1.04-4-4a30.786 30.786 0 0 1 4.5-3c2.774-4.867 4.941-9.867 6.5-15z"/><path style="opacity:1" fill="#7d4b0d" d="M348.5 200.5a31.494 31.494 0 0 0-10 5c-.203-1.89.463-3.39 2-4.5a32.462 32.462 0 0 1 8-.5z"/><path style="opacity:1" fill="#c21b22" d="M364.5 186.5c-6.635 9.314-15.635 13.648-27 13 5.614-1.338 11.28-3.171 17-5.5 2.694-3.551 6.028-6.051 10-7.5z"/><path style="opacity:1" fill="#8d3306" d="M365.5 185.5h3c-5.506 6.5-12.172 11.5-20 15a32.462 32.462 0 0 0-8 .5c-1.537 1.11-2.203 2.61-2 4.5-.898 5.034-2.565 9.701-5 14a76.086 76.086 0 0 0 4-20c11.365.648 20.365-3.686 27-13 .667 0 1-.333 1-1z"/><path style="opacity:1" fill="#ba2926" d="M271.5 179.5c-10.366-1.046-19.366 1.954-27 9 1.821-3.985 4.821-6.819 9-8.5a162.597 162.597 0 0 1 18-.5z"/><path style="opacity:1" fill="#e00523" d="M295.5 185.5a60.047 60.047 0 0 0 3 11.5c.162 2.502-.505 4.669-2 6.5a15.894 15.894 0 0 1-6.5-1c-6.54 5.401-14.04 7.568-22.5 6.5-1.528 1.648-2.195 3.648-2 6 .069 1.986.735 3.486 2 4.5-.241 2.386.425 4.386 2 6-.438 3.393.395 6.393 2.5 9 .667 4 .667 8 0 12a14.748 14.748 0 0 1-4.5 3 15.418 15.418 0 0 0-1 7c-1.291-.237-2.291.096-3 1-.951 1.419-1.284 3.085-1 5h-4v4a12.93 12.93 0 0 0-5 .5c-.755 2.133-2.088 3.8-4 5-4.164-.259-7.497 1.241-10 4.5-1.189.929-2.522 1.262-4 1v-7h-7a41.34 41.34 0 0 1 3-7.5c-2.06-4.114-1.06-7.114 3-9 5.18-.356 9.68-2.189 13.5-5.5a57.138 57.138 0 0 0 3.5-18h-5a46.563 46.563 0 0 1 1-11.5c.146-2.188-.854-3.521-3-4a83.63 83.63 0 0 1 3-6.5 3.647 3.647 0 0 0-1-1.5l-7-1c3.516-4.895 4.849-10.395 4-16.5.667 0 1-.333 1-1 7.634-7.046 16.634-10.046 27-9 6.724-1.177 13.391-1.011 20 .5a49.937 49.937 0 0 0 4 5.5z"/><path style="opacity:1" fill="#9e222b" d="M370.5 151.5h1c.175 2.121-.159 4.121-1 6h-3a65.465 65.465 0 0 0 3 20c-2.014 2.207-3.014 4.873-3 8h-2c-.593-3.096.407-5.429 3-7a165.596 165.596 0 0 1-4-19l1-2c3.875-.205 5.541-2.205 5-6z"/><path style="opacity:1" fill="#843704" d="M264.5 165.5c1.644.31 2.644 1.31 3 3a61.393 61.393 0 0 1 14 3c.322 2.222-.345 4.056-2 5.5a147.318 147.318 0 0 1-8 2.5 162.597 162.597 0 0 0-18 .5c-4.179 1.681-7.179 4.515-9 8.5 0 .667-.333 1-1 1h-1c-.155-4.523 1.845-7.689 6-9.5l6-2a229.13 229.13 0 0 0 22-2c4.104-2.335 3.937-4.168-.5-5.5a96.985 96.985 0 0 0-7.5 2.5c-1.996-2.162-3.33-4.662-4-7.5z"/><path style="opacity:1" fill="#cb1421" d="M327.5 127.5c-.446 2.51.22 4.51 2 6 1.238.31 1.238.81 0 1.5a8.43 8.43 0 0 1-4 .5c-.446 2.51.22 4.51 2 6 .548 1.894 1.548 3.56 3 5-1.189.929-2.522 1.262-4 1-2.37 14.242 2.297 25.742 14 34.5 3.571.859 6.571.026 9-2.5 1.517-.011 2.684-.677 3.5-2 .499-8.012.333-16.012-.5-24 .617.111 1.117.444 1.5 1 .667 8 .667 16 0 24a69.2 69.2 0 0 1-6.5 4.5c-6.659.927-12.492-.906-17.5-5.5-3.948-8.029-6.115-17.195-6.5-27.5a20.78 20.78 0 0 1 2-5.5c-1.591-3.542-2.091-7.209-1.5-11 1.776-1.711 2.942-3.711 3.5-6z"/><path style="opacity:1" fill="#b51a25" d="M293.5 177.5a37.76 37.76 0 0 0 4 6.5c-.336 1.03-1.003 1.53-2 1.5a49.937 49.937 0 0 1-4-5.5c-6.609-1.511-13.276-1.677-20-.5a147.318 147.318 0 0 0 8-2.5c1.655-1.444 2.322-3.278 2-5.5v-6l-7 2c2.14-3.113 5.14-4.446 9-4-1.129 7.903 2.204 12.569 10 14z"/><path style="opacity:1" fill="#5d430d" d="M369.5 185.5c1.752-3.727 2.419-7.727 2-12-.1-2.608.567-4.942 2-7 1.075-1.062 2.075-1.062 3 0-.532 2.241-1.865 3.741-4 4.5a32.065 32.065 0 0 0 4 2.5 43.286 43.286 0 0 1-3 5.5c.792 1.96 2.125 3.46 4 4.5a29.045 29.045 0 0 1-8 2z"/><path style="opacity:1" fill="#a25d0c" d="M350.5 160.5c1.152 5.485 1.318 11.151.5 17-.717.544-1.217 1.211-1.5 2h-4c.787-1.604 2.12-2.271 4-2a124.865 124.865 0 0 0 1-17z"/><path style="opacity:1" fill="#f6d724" d="M264.5 165.5c.67 2.838 2.004 5.338 4 7.5a96.985 96.985 0 0 1 7.5-2.5c4.437 1.332 4.604 3.165.5 5.5a229.13 229.13 0 0 1-22 2l-6 2c-4.155 1.811-6.155 4.977-6 9.5-1.559 5.133-3.726 10.133-6.5 15a30.786 30.786 0 0 0-4.5 3c.17-1.322-.163-2.489-1-3.5 2.176-.163 4.009-.996 5.5-2.5 3.365-6.113 5.198-12.78 5.5-20a4.934 4.934 0 0 0 3-.5c1.464-3.365 3.797-4.532 7-3.5 2.295-1.98 4.961-3.147 8-3.5 1.333-1 1.333-2 0-3a8.43 8.43 0 0 0-4-.5 157.284 157.284 0 0 0 6-4.5 4.934 4.934 0 0 1 3-.5z"/><path style="opacity:1" fill="#8e2618" d="M281.5 171.5a61.393 61.393 0 0 0-14-3c2.559.302 4.893-.032 7-1l7-2v6z"/><path style="opacity:1" fill="#8c3d07" d="M264.5 165.5a4.934 4.934 0 0 0-3 .5 157.284 157.284 0 0 1-6 4.5h-4v-3h1c2.198.38 3.865-.287 5-2 2.505-.917 4.838-.917 7 0z"/><path style="opacity:1" fill="#682a24" d="M370.5 157.5a24.837 24.837 0 0 1-1 8c.464 2.849 1.131 5.516 2 8 .419 4.273-.248 8.273-2 12h-2c-.014-3.127.986-5.793 3-8a65.465 65.465 0 0 1-3-20h3z"/><path style="opacity:1" fill="#64440f" d="M236.5 162.5a20.987 20.987 0 0 0 4.5 3 11.123 11.123 0 0 0 2.5-1c2.37.236 4.37 1.236 6 3 .683-.363 1.35-.696 2-1v4c-3.14 1.141-6.473 1.308-10 .5a22.755 22.755 0 0 0 5-4c-3.662.821-7.328.654-11-.5-.067-1.459.266-2.792 1-4z"/><path style="opacity:1" fill="#f5c932" d="M329.5 161.5a116.091 116.091 0 0 0 10 16c-1.871-.359-3.371-1.359-4.5-3a42.95 42.95 0 0 1-5.5-13z"/><path style="opacity:1" fill="#bb1a1c" d="M274.5 167.5c-2.107.968-4.441 1.302-7 1-.356-1.69-1.356-2.69-3-3-2.162-.917-4.495-.917-7 0 .304-.65.637-1.317 1-2a25.879 25.879 0 0 1 10-1c-.012 3.946 1.988 5.613 6 5z"/><path style="opacity:1" fill="#9e1d23" d="M235.5 155.5h5v4h6v3h6v5h-1v-4h-7v-3h-4c-.934-1.068-1.268-2.401-1-4-1.599.268-2.932-.066-4-1z"/><path style="opacity:1" fill="#5e2b22" d="M228.5 151.5h6c-.268 1.599.066 2.932 1 4 1.068.934 2.401 1.268 4 1-.268 1.599.066 2.932 1 4l3 4c-.765.423-1.598.757-2.5 1a20.987 20.987 0 0 1-4.5-3 24.004 24.004 0 0 1-2.5-6c-2.956-.457-4.789-2.123-5.5-5z"/><path style="opacity:1" fill="#564604" d="M372.5 159.5a2.428 2.428 0 0 0 .5 2c.837-1.507 2.004-2.007 3.5-1.5a24.257 24.257 0 0 0-3 5.5c-1.651-1.902-1.984-3.902-1-6z"/><path style="opacity:1" fill="#72221f" d="M240.5 160.5h4v3h7v3c-.65.304-1.317.637-2 1-1.63-1.764-3.63-2.764-6-3l-3-4z"/><path style="opacity:1" fill="#513219" d="M370.5 143.5c.994 2.624 1.994 5.29 3 8-.597.235-.93.735-1 1.5 1.207 1.3 1.874 2.8 2 4.5l-2 2c-.984 2.098-.651 4.098 1 6v1c-1.433 2.058-2.1 4.392-2 7-.869-2.484-1.536-5.151-2-8a24.837 24.837 0 0 0 1-8c.841-1.879 1.175-3.879 1-6-.888-2.554-1.221-5.221-1-8z"/><path style="opacity:1" fill="#a2320b" d="m345.5 134.5 2 1c.088 6.578 1.755 12.578 5 18 .833 7.988.999 15.988.5 24-.816 1.323-1.983 1.989-3.5 2 .283-.789.783-1.456 1.5-2 .818-5.849.652-11.515-.5-17-.158-4.341-1.158-8.341-3-12a254.587 254.587 0 0 1-2-14z"/><path style="opacity:1" fill="#f2c43d" d="M327.5 150.5h5c-.321 1.548-1.321 2.215-3 2v9c-1.717-3.345-2.384-7.011-2-11z"/><path style="opacity:1" fill="#87701b" d="M373.5 151.5a89.247 89.247 0 0 0 2 4c-.043.916-.376 1.583-1 2-.126-1.7-.793-3.2-2-4.5.07-.765.403-1.265 1-1.5z"/><path style="opacity:1" fill="#9b320c" d="M327.5 141.5c3.018 1.355 4.351 3.688 4 7l-4 2c-.384 3.989.283 7.655 2 11a42.95 42.95 0 0 0 5.5 13c1.129 1.641 2.629 2.641 4.5 3 1.714 1.238 3.714 1.905 6 2h4c-2.429 2.526-5.429 3.359-9 2.5-11.703-8.758-16.37-20.258-14-34.5 1.478.262 2.811-.071 4-1-1.452-1.44-2.452-3.106-3-5z"/><path style="opacity:1" fill="#ecd742" d="M220.5 148.5a12.93 12.93 0 0 1 5 .5c-5.073 2.227-5.073 4.06 0 5.5 3.966-.692 3.966-.025 0 2-1.542-.801-3.208-1.134-5-1v-7z"/><path style="opacity:1" fill="#61400e" d="M224.5 142.5c-.333 3 1 4.333 4 4v5c.711 2.877 2.544 4.543 5.5 5a24.004 24.004 0 0 0 2.5 6h-6c-.203-1.89.463-3.39 2-4.5-1.172-.353-2.338-.187-3.5.5-1.459-.308-2.626-.975-3.5-2 3.966-2.025 3.966-2.692 0-2-5.073-1.44-5.073-3.273 0-5.5a12.93 12.93 0 0 0-5-.5c-1.025-.397-1.192-1.063-.5-2a25.14 25.14 0 0 1 4.5-4z"/><path style="opacity:1" fill="#764706" d="m332.5 143.5 4 3c1.548.321 2.215 1.321 2 3a19.22 19.22 0 0 0-6 1h-5l4-2c.997.03 1.664-.47 2-1.5a14.093 14.093 0 0 1-1-3.5z"/><path style="opacity:1" fill="#912120" d="M224.5 141.5h1c-.219 1.175.114 2.175 1 3 2.016-1.206 4.016-1.206 6 0-1.915 1.571-2.915 3.571-3 6h6v5c-.934-1.068-1.268-2.401-1-4h-6v-5c-3 .333-4.333-1-4-4v-1z"/><path style="opacity:1" fill="#c5a854" d="M338.5 141.5c-1.468 1.279-2.135 2.946-2 5l-4-3c-.667 0-1-.333-1-1 2.107-.968 4.441-1.302 7-1z"/><path style="opacity:1" fill="#a81929" d="M360.5 131.5c.321 1.548 1.321 2.215 3 2-.475 2.582.192 4.582 2 6 .454 1.759.454 3.759 0 6h3c-.175 2.121.159 4.121 1 6-3.338.391-4.338-.776-3-3.5-2.416-1.474-3.416-3.64-3-6.5a4.934 4.934 0 0 1-3-.5 82.256 82.256 0 0 1 0-9.5z"/><path style="opacity:1" fill="#544517" d="M371.5 133.5h2a11.187 11.187 0 0 1-1 4.5 9.258 9.258 0 0 0 2 2.5c-.487.946-.82 1.946-1 3 2.413 2.722 2.413 5.389 0 8-1.006-2.71-2.006-5.376-3-8 0-.667-.333-1-1-1v-8c.992.172 1.658-.162 2-1z"/><path style="opacity:1" fill="#ecc045" d="M226.5 136.5a20.69 20.69 0 0 1-1 5h-1v-4h-6v-1c2.729-1.03 5.396-1.03 8 0z"/><path style="opacity:1" fill="#d5bb4b" d="M337.5 133.5a19.22 19.22 0 0 0 1 6 16.99 16.99 0 0 1-6-5c1.545-.952 3.212-1.285 5-1z"/><path style="opacity:1" fill="#612d08" d="M216.5 129.5h1c-.214 1.644.12 3.144 1 4.5 3.175-.053 5.842.78 8 2.5-2.604-1.03-5.271-1.03-8 0-2.305-1.58-2.972-3.58-2-6v-1z"/><path style="opacity:1" fill="#6e3110" d="M257.5 128.5h2c1.068.934 2.401 1.268 4 1l-1 8h-4c0-.667-.333-1-1-1v-2c2.458.273 4.125-.727 5-3-1.545-.952-3.212-1.285-5-1v-2z"/><path style="opacity:1" fill="#524404" d="M216.5 130.5c-.972 2.42-.305 4.42 2 6v1c-3.936.022-7.603-.978-11-3-.886-.825-1.219-1.825-1-3 1.644-.214 3.144.12 4.5 1a18.155 18.155 0 0 1 5.5-2z"/><path style="opacity:1" fill="#4b3324" d="M367.5 129.5h3c.134 1.792-.199 3.458-1 5v8c-3.072-3.828-3.739-8.162-2-13z"/><path style="opacity:1" fill="#851818" d="M259.5 128.5a13.116 13.116 0 0 1 7 1 57.178 57.178 0 0 0-3 6.5 12.992 12.992 0 0 1 1 5.5h-4c-.027-1.699-.694-3.033-2-4h4l1-8c-1.599.268-2.932-.066-4-1z"/><path style="opacity:1" fill="#c49e4f" d="M249.5 124.5c6.867-.395 7.534 1.105 2 4.5a10.098 10.098 0 0 0 6 1.5c1.788-.285 3.455.048 5 1-.875 2.273-2.542 3.273-5 3-3.802-.82-7.136-2.486-10-5 3.879-.728 4.546-2.395 2-5z"/><path style="opacity:1" fill="#f3d23d" d="M248.5 124.5h1c2.546 2.605 1.879 4.272-2 5-1.234-1.898-.901-3.565 1-5z"/><path style="opacity:1" fill="#a26726" d="M213.5 125.5h4v4h-1v-3c-1.291.237-2.291-.096-3-1z"/><path style="opacity:1" fill="#80210b" d="M212.5 123.5h7a29.13 29.13 0 0 0-.5 9l9 2c1.087 3.114.254 5.447-2.5 7a20.69 20.69 0 0 0 1-5c-2.158-1.72-4.825-2.553-8-2.5-.88-1.356-1.214-2.856-1-4.5v-4h-4l-1-2z"/><path style="opacity:1" fill="#caae47" d="M277.5 93.5a43.87 43.87 0 0 0-7 4.5c-1.566.765-2.899.598-4-.5 1.88.27 3.213-.396 4-2a25.194 25.194 0 0 0 5.5-3c.765.07 1.265.403 1.5 1z"/><path style="opacity:1" fill="#6c321d" d="M369.5 94.5c1.435.597 3.102.597 5 0v6l-2-3c-1.788.285-3.455-.048-5-1 .355-1.022 1.022-1.689 2-2z"/><path style="opacity:1" fill="#61291c" d="M231.5 91.5v-1a5.728 5.728 0 0 1 3 1 81.216 81.216 0 0 0 3 2.5c-1.323.816-1.989 1.983-2 3.5-1.676-.683-2.343-2.017-2-4-.333-1-1-1.667-2-2z"/><path style="opacity:1" fill="#4d3807" d="M233.5 93.5c-.343 1.983.324 3.317 2 4v2a28.233 28.233 0 0 0-4-1.5c-4.313-3.35-3.646-4.85 2-4.5z"/><path style="opacity:1" fill="#9c7226" d="M370.5 88.5h1v5h4c.284 1.915-.049 3.581-1 5v-4c-1.898.597-3.565.597-5 0 .65-1.935.983-3.935 1-6z"/><path style="opacity:1" fill="#6c262c" d="M278.5 87.5h1c.891.61 1.891.943 3 1a38.715 38.715 0 0 0 5 2.5c-2.269 2.023-4.936 2.856-8 2.5a19.222 19.222 0 0 0-1-6z"/><path style="opacity:1" fill="#6a4c0f" d="M278.5 84.5v3c.65 1.935.983 3.935 1 6h-2c-.235-.597-.735-.93-1.5-1a25.194 25.194 0 0 1-5.5 3 32.729 32.729 0 0 1 8-11z"/><path style="opacity:1" fill="#825311" d="M226.5 79.5c2.621.621 4.288 2.288 5 5a7.253 7.253 0 0 1-2 2.5c.566.995 1.233 1.828 2 2.5v2l-2-1c-2.541-2.139-2.541-4.306 0-6.5a20.967 20.967 0 0 0-3-4.5z"/><path style="opacity:1" fill="#7b4409" d="M372.5 86.5c-.838.342-1.172 1.008-1 2h-1c-.054-2.132-1.054-3.465-3-4l3-4c.617-.11 1.117-.444 1.5-1 .497 2.31.663 4.643.5 7z"/><path style="opacity:1" fill="#c6a063" d="M368.5 77.5c-.215 1.679.452 2.679 2 3l-3 4c-2.667 1.333-3.333.667-2-2a27.218 27.218 0 0 0 3-5z"/><path style="opacity:1" fill="#ba2427" d="M290.5 81.5c5.345.186 10.678.52 16 1-5.829.541-11.829.708-18 .5-2.055.687-3.721 1.854-5 3.5a44.093 44.093 0 0 1 3 2h-4a5.728 5.728 0 0 1-3-1c-.086-.996.248-1.83 1-2.5a25.642 25.642 0 0 1 10-3.5z"/><path style="opacity:1" fill="#91151f" d="M296.5 77.5c4.635 2.66 9.302 2.66 14 0 1.021.502 1.188 1.168.5 2-1.518.663-2.685 1.663-3.5 3h-1a290.98 290.98 0 0 0-16-1c1.542-.663 3.209-1.33 5-2-1.481-1.444-1.148-2.11 1-2z"/><path style="opacity:1" fill="#8f3706" d="M341.5 55.5h1l2 25v1a51.56 51.56 0 0 0 1 7h-4v-1c.183-9.804.183-19.804 0-30v-2z"/><path style="opacity:1" fill="#eece42" d="M271.5 70.5a30.217 30.217 0 0 0 3 3.5l13 1c5.003 2.078 5.003 3.578 0 4.5.17-1.322-.163-2.489-1-3.5l-13-1c-1.537-1.11-2.203-2.61-2-4.5z"/><path style="opacity:1" fill="#c21a24" d="M225.5 63.5c2.361.174 4.694.507 7 1 1.275 3.825 1.275 7.658 0 11.5-.032 1.971.802 3.471 2.5 4.5.498 3.317.665 6.65.5 10 1.291-.237 2.291.096 3 1h-4a5.728 5.728 0 0 0-3-1v-1c.763-2.641.93-5.308.5-8-4.375-3.884-4.542-8.05-.5-12.5l-.5-2.5c-2.058-.73-3.891-1.73-5.5-3z"/><path style="opacity:1" fill="#553f06" d="M227.5 71.5a41.541 41.541 0 0 0-1 8l-7-3.5c-2.461-1.983-2.961-4.15-1.5-6.5 2.826 1.84 5.993 2.507 9.5 2z"/><path style="opacity:1" fill="#d40d26" d="M306.5 65.5h1a1497.116 1497.116 0 0 1-7 9l3 1a83.564 83.564 0 0 1 8.5-2c2.271-.326 3.771.508 4.5 2.5a27.63 27.63 0 0 0-5 5 10.122 10.122 0 0 1-4 1.5c.815-1.337 1.982-2.337 3.5-3 .688-.832.521-1.498-.5-2-4.698 2.66-9.365 2.66-14 0-3.406-2.03-7.073-3.696-11-5-2.787-.977-5.787-1.31-9-1v-3c6.987-.471 13.82.196 20.5 2 2.535-.368 4.368-1.701 5.5-4l4-1z"/><path style="opacity:1" fill="#ab202a" d="M302.5 66.5c-1.132 2.299-2.965 3.632-5.5 4-6.68-1.804-13.513-2.471-20.5-2v3c3.213-.31 6.213.023 9 1a23.74 23.74 0 0 0-8.5 1c-2.59-1.505-3.09-3.505-1.5-6 7.2-.244 14.366.09 21.5 1a24.314 24.314 0 0 0 5.5-2z"/><path style="opacity:1" fill="#7c2c0d" d="M242.5 40.5a19.843 19.843 0 0 0-3 5.5c-1.877.576-3.711.41-5.5-.5-1.301.139-2.134.805-2.5 2-1.844 1.779-2.51 4.112-2 7-7.477.236-8.811 3.236-4 9 1.609 1.27 3.442 2.27 5.5 3l.5 2.5c-4.042 4.45-3.875 8.616.5 12.5.43 2.692.263 5.359-.5 8-.767-.672-1.434-1.505-2-2.5a7.253 7.253 0 0 0 2-2.5c-.712-2.712-2.379-4.379-5-5a41.541 41.541 0 0 1 1-8c1.604-.787 2.271-2.12 2-4-2.599-.05-4.766-1.05-6.5-3a42.231 42.231 0 0 1-3.5-8c-.219-1.175.114-2.175 1-3a41.727 41.727 0 0 0 6-2c2.059-5.981 6.392-8.314 13-7-.412-2.473.588-3.806 3-4z"/><path style="opacity:1" fill="#981a20" d="M303.5 57.5c2.672 1.891 3.672 4.558 3 8l-4 1c2.045-2.197 2.378-4.53 1-7v-2z"/><path style="opacity:1" fill="#fad723" d="M364.5 61.5a193.59 193.59 0 0 1-14 29h-3l-2-2a51.56 51.56 0 0 1-1-7 25.565 25.565 0 0 1 4.5 4c4.325-2.68 6.491-6.346 6.5-11 .825-.886 1.825-1.219 3-1a29.13 29.13 0 0 1-.5-9l1-1c.388.928 1.055 1.595 2 2 1.412-1.186 2.579-2.519 3.5-4z"/><path style="opacity:1" fill="#5d2822" d="M291.5 52.5c3.525.289 6.525 1.622 9 4-1.067 2.38-.067 3.38 3 3 1.378 2.47 1.045 4.803-1 7a24.314 24.314 0 0 1-5.5 2c-7.134-.91-14.3-1.244-21.5-1-.617.11-1.117.444-1.5 1-1.966-1.28-3.466-2.947-4.5-5h26c.134-1.791-.199-3.458-1-5 1.676-.683 2.343-2.017 2-4-2.198.38-3.865-.287-5-2z"/><path style="opacity:1" fill="#e1b38c" d="M288.5 65.5c.886-1.276 1.886-1.276 3 0-.925 1.062-1.925 1.062-3 0z"/><path style="opacity:1" fill="#981d21" d="M273.5 56.5h18c.79.901 1.79 1.568 3 2 .801 1.542 1.134 3.209 1 5h-26c-2.053.098-3.72-.569-5-2 9.706 1.373 19.372 1.04 29-1a4.451 4.451 0 0 0-2-1.5l-17-1c-.556-.383-.889-.883-1-1.5z"/><path style="opacity:1" fill="#9d3905" d="M370.5 53.5c1.594 8.07.927 16.07-2 24a27.218 27.218 0 0 1-3 5c0-.667-.333-1-1-1a66.597 66.597 0 0 1 4.5-10c2-5.778 1.833-11.444-.5-17-.708 2.245-1.708 4.245-3 6v-4c.699-2.056 1.699-4.056 3-6a44.293 44.293 0 0 0 2 3z"/><path style="opacity:1" fill="#d01024" d="M273.5 56.5c.111.617.444 1.117 1 1.5l17 1a4.451 4.451 0 0 1 2 1.5c-9.628 2.04-19.294 2.373-29 1-2.252-.416-3.752-1.749-4.5-4a16.597 16.597 0 0 1 .5-7 8.435 8.435 0 0 1 4 .5c2.389 2.86 5.389 4.693 9 5.5z"/><path style="opacity:1" fill="#793406" d="M265.5 48.5c1.545 3.444 4.211 5.444 8 6v2c-3.611-.807-6.611-2.64-9-5.5a8.435 8.435 0 0 0-4-.5 16.597 16.597 0 0 0-.5 7c.748 2.251 2.248 3.584 4.5 4 1.28 1.431 2.947 2.098 5 2 1.034 2.053 2.534 3.72 4.5 5 .383-.556.883-.89 1.5-1-1.59 2.495-1.09 4.495 1.5 6a23.74 23.74 0 0 1 8.5-1c3.927 1.304 7.594 2.97 11 5-2.148-.11-2.481.556-1 2-1.791.67-3.458 1.337-5 2a25.642 25.642 0 0 0-10 3.5c-.752.67-1.086 1.504-1 2.5h-1v-3c2.548-2.442 5.548-4.108 9-5 5.003-.922 5.003-2.422 0-4.5l-13-1a30.217 30.217 0 0 1-3-3.5c-2.076-4.724-5.742-7.557-11-8.5a6.977 6.977 0 0 1-2.5-3.5c-1.393-7.038 1.107-10.371 7.5-10z"/><path style="opacity:1" fill="#b69368" d="M300.5 56.5a5.728 5.728 0 0 1 3 1v2c-3.067.38-4.067-.62-3-3z"/><path style="opacity:1" fill="#622a22" d="M340.5 55.5a51.648 51.648 0 0 0-7 1c-.351-3.312.982-5.645 4-7 .65-.304 1.317-.637 2-1 .653 2.456.986 4.79 1 7z"/><path style="opacity:1" fill="#a4232a" d="M340.5 44.5a17.906 17.906 0 0 1-3 5c-3.018 1.355-4.351 3.688-4 7a51.648 51.648 0 0 1 7-1h1v2c-2.235-.295-4.235.039-6 1-1.068.934-2.401 1.268-4 1-.643-3.933.357-7.266 3-10a21.833 21.833 0 0 1 6-5z"/><path style="opacity:1" fill="#c71426" d="M300.5 36.5c2.235-.295 4.235.039 6 1h14c-.47 1.194-1.47 1.86-3 2-2.012-.34-4.012-.673-6-1v4h3c3.822 2.779 4.489 6.112 2 10a34.298 34.298 0 0 1-11 1c1.513 3.818 2.18 7.818 2 12h-1c.672-3.442-.328-6.109-3-8 .086-.996-.248-1.83-1-2.5-8.076-4.284-16.743-6.284-26-6-.544-.717-1.211-1.217-2-1.5-2.592-1.536-3.592-3.87-3-7a1208.13 1208.13 0 0 0 29-4z"/><path style="opacity:1" fill="#554404" d="M226.5 51.5a41.727 41.727 0 0 1-6 2c-.886.825-1.219 1.825-1 3-2.644-.993-5.31-1.993-8-3a7.253 7.253 0 0 1 2-2.5 48.663 48.663 0 0 1 13 .5z"/><path style="opacity:1" fill="#763e05" d="M370.5 53.5a44.293 44.293 0 0 1-2-3c-1.301 1.944-2.301 3.944-3 6a185.476 185.476 0 0 1-1-11c4.38.724 6.38 3.39 6 8z"/><path style="opacity:1" fill="#6d251f" d="M274.5 47.5c.789.283 1.456.783 2 1.5 9.257-.284 17.924 1.716 26 6 .752.67 1.086 1.504 1 2.5a5.728 5.728 0 0 0-3-1c-2.475-2.378-5.475-3.711-9-4a15.42 15.42 0 0 0-7 1c-.886-.825-1.219-1.825-1-3l-8 1c.172-.992-.162-1.658-1-2v-2z"/><path style="opacity:1" fill="#613f20" d="M291.5 52.5c1.135 1.713 2.802 2.38 5 2 .343 1.983-.324 3.317-2 4-1.21-.432-2.21-1.099-3-2-.667-2.667-1.333-2.667-2 0h-16v-2c1.548-.321 2.215-1.321 2-3l8-1c-.219 1.175.114 2.175 1 3a15.42 15.42 0 0 1 7-1z"/><path style="opacity:1" fill="#e5cd8f" d="M291.5 56.5h-2c.667-2.667 1.333-2.667 2 0z"/><path style="opacity:1" fill="#bfa76c" d="M279.5 52.5c3.81 1.254 3.81 2.254 0 3v-3z"/><path style="opacity:1" fill="#d9b351" d="M268.5 39.5a32.462 32.462 0 0 0 .5 8c1.584 1.361 3.418 2.028 5.5 2 .838.342 1.172 1.008 1 2 .215 1.679-.452 2.679-2 3-3.789-.556-6.455-2.556-8-6 1.61-2.703 2.61-5.703 3-9z"/><path style="opacity:1" fill="#7a1922" d="M313.5 50.5c-6.338 2.335-8.671.002-7-7 5.571-.568 8.905 1.765 10 7h-3z"/><path style="opacity:1" fill="#8d3302" d="M248.5 39.5c2.688.524 4.188 2.19 4.5 5a50.269 50.269 0 0 1-1.5 17.5 104.405 104.405 0 0 0 3 19.5c-2.672-1.891-3.672-4.558-3-8a170.771 170.771 0 0 1-.5-29c-1.812-3.321-4.645-4.655-8.5-4 .311-.978.978-1.645 2-2a6.846 6.846 0 0 0 4 1z"/><path style="opacity:1" fill="#f7d22c" d="M343.5 33.5c.495 15.46.829 31.127 1 47l-2-25a36.956 36.956 0 0 1-1-6 110.064 110.064 0 0 0 2-16z"/><path style="opacity:1" fill="#5a252a" d="M313.5 50.5h-5v-5c4.142-.187 5.809 1.48 5 5z"/><path style="opacity:1" fill="#d60923" d="M334.5 49.5c-2.643 2.734-3.643 6.067-3 10 1.599.268 2.932-.066 4-1h5v21a159.153 159.153 0 0 1-1.5-18c-1.296.568-2.796.568-4.5 0-1.544.29-2.877.956-4 2-3.05-4.899-2.55-9.232 1.5-13 .601-1.465.101-2.465-1.5-3a26.598 26.598 0 0 0-2 3.5c-5.007.096-6.84-2.404-5.5-7.5.71-1.473 1.876-2.14 3.5-2v-3a50.148 50.148 0 0 1-13 2.5c.556.383.889.883 1 1.5h-3v-4c1.988.327 3.988.66 6 1 1.53-.14 2.53-.806 3-2 1-.333 1.667-1 2-2l6-1a48.548 48.548 0 0 1-3 15h3v-3a8.435 8.435 0 0 0 4-.5 38.918 38.918 0 0 1 5-5.5c1.114 1.223 1.281 2.556.5 4-2.158.989-3.325 2.656-3.5 5z"/><path style="opacity:1" fill="#b31d1d" d="M242.5 40.5c3.855-.655 6.688.679 8.5 4a170.771 170.771 0 0 0 .5 29c-.722-.418-1.222-1.084-1.5-2a229.612 229.612 0 0 1 0-25c-.899-1.827-2.233-3.16-4-4-3.18 1.34-5.014 3.673-5.5 7-2.761-1.42-5.761-2.087-9-2 .366-1.195 1.199-1.861 2.5-2 1.789.91 3.623 1.076 5.5.5a19.843 19.843 0 0 1 3-5.5z"/><path style="opacity:1" fill="#e10421" d="M306.5 37.5c.558 1.29 1.558 2.123 3 2.5-2.056.31-4.056.81-6 1.5-1.053 3.315-1.053 6.648 0 10-3.568-.26-4.901-2.26-4-6h-4c.219 1.175-.114 2.175-1 3-5.787-1.732-11.787-2.565-18-2.5-1.333-1.333-1.333-2.667 0-4a168.76 168.76 0 0 1 23-2c2.15-1.411 4.484-2.245 7-2.5z"/><path style="opacity:1" fill="#563f06" d="M248.5 39.5a6.846 6.846 0 0 1-4-1c-1.022.355-1.689 1.022-2 2-2.412.194-3.412 1.527-3 4-6.608-1.314-10.941 1.019-13 7 .285-1.788-.048-3.455-1-5l-6-4c1.155-1.45 2.655-2.45 4.5-3a40.101 40.101 0 0 0 14.5 4 8.43 8.43 0 0 0-.5-4l-7.5-5.5c2.195-1.373 4.529-1.706 7-1 3.623 2.503 7.29 4.67 11 6.5z"/><path style="opacity:1" fill="#7a3d07" d="M343.5 33.5a110.064 110.064 0 0 1-2 16 36.956 36.956 0 0 0 1 6h-2c-.014-2.21-.347-4.544-1-7-.683.363-1.35.696-2 1a17.906 17.906 0 0 0 3-5c.662-1.97 1.328-3.97 2-6a9.864 9.864 0 0 0-6-1c-1.739.934-3.405.934-5 0-.412-2.387-1.412-4.387-3-6-1.022.355-1.689 1.022-2 2-1.653.16-2.986.826-4 2a885.24 885.24 0 0 0-22 1 1208.13 1208.13 0 0 1-29 4c-.592 3.13.408 5.464 3 7v2c-2.082.028-3.916-.639-5.5-2a32.462 32.462 0 0 1-.5-8c7.093-1.962 14.427-3.295 22-4 .774.647 1.774.98 3 1a59.9 59.9 0 0 1 15-3c4.146 1.147 8.48 1.314 13 .5 2.895-1.94 5.228-4.44 7-7.5a598.397 598.397 0 0 0 5.5 10 31.552 31.552 0 0 1 9.5-3z"/><path style="opacity:1" fill="#c11823" d="M326.5 33.5h3a25.878 25.878 0 0 0 1 10c1.62-2.458 3.62-4.458 6-6a9.864 9.864 0 0 1 6 1c-.672 2.03-1.338 4.03-2 6a21.833 21.833 0 0 0-6 5c.175-2.344 1.342-4.011 3.5-5 .781-1.444.614-2.777-.5-4a38.918 38.918 0 0 0-5 5.5 8.435 8.435 0 0 1-4 .5v3h-3a48.548 48.548 0 0 0 3-15l-6 1c1.014-1.174 2.347-1.84 4-2z"/><path style="opacity:1" fill="#7e1c1a" d="M336.5 37.5c-2.38 1.542-4.38 3.542-6 6a25.878 25.878 0 0 1-1-10h-3c.311-.978.978-1.645 2-2 1.588 1.613 2.588 3.613 3 6 1.595.934 3.261.934 5 0z"/><path style="opacity:1" fill="#8c2413" d="M300.5 36.5a885.24 885.24 0 0 1 22-1c-.333 1-1 1.667-2 2h-14c-1.765-.961-3.765-1.295-6-1z"/><path style="opacity:1" fill="#f6d235" d="M308.5 33.5a59.9 59.9 0 0 0-15 3c-1.226-.02-2.226-.353-3-1a23.901 23.901 0 0 0 9-2.5c3.196-.804 6.196-.638 9 .5z"/><path style="opacity:1" fill="#ce9a58" d="m302.5 271.5-2 2c-.321-1.548-1.321-2.215-3-2v-1c1.544-.203 2.878-.87 4-2 .886.825 1.219 1.825 1 3z"/><path style="opacity:1" fill="#baab5e" d="m261.5 270.5 4 2c-1.068.934-2.401 1.268-4 1v-3z"/><path style="opacity:1" fill="#8f8d88" d="M376.5 267.5c-1.328 4.665-3.661 8.665-7 12 .616-1.298.616-2.298 0-3 0-.667.333-1 1-1l6-8z"/><path style="opacity:1" fill="#554103" d="M223.5 267.5v6c-1.291-.237-2.291.096-3 1-1.884.212-3.217 1.212-4 3-.684-5.265 1.649-8.598 7-10z"/><path style="opacity:1" fill="#996610" d="M220.5 274.5c.709-.904 1.709-1.237 3-1h3c1.792-.134 3.458.199 5 1 .268 1.599-.066 2.932-1 4 .17-1.322-.163-2.489-1-3.5a40.914 40.914 0 0 0-9-.5z"/><path style="opacity:1" fill="#81220d" d="M226.5 273.5v-1h7c-.38 2.198.287 3.865 2 5v2c-2.056-1.122-3.389-2.789-4-5-1.542-.801-3.208-1.134-5-1z"/><path style="opacity:1" fill="#70480f" d="M333.5 270.5c1.333 2.667 1.333 5.333 0 8-.617-.111-1.117-.444-1.5-1a113.211 113.211 0 0 1-2 14c-1.011.837-2.178 1.17-3.5 1 .098 2.053-.569 3.72-2 5a2.428 2.428 0 0 0-.5-2c-.708.881-1.542 1.547-2.5 2 .548-2.886 2.215-4.886 5-6a69.18 69.18 0 0 0 6-20c.667 0 1-.333 1-1z"/><path style="opacity:1" fill="#853703" d="m250.5 273.5-1 2v1c-1.568-.973-3.235-1.14-5-.5-2.276 3.141-5.276 5.307-9 6.5 1.333-1 1.333-2 0-3 1.808.009 3.475-.491 5-1.5 2.257-3.877 5.59-5.377 10-4.5z"/><path style="opacity:1" fill="#533c0b" d="M261.5 271.5v2a10.165 10.165 0 0 1-3 3c-.321-1.548-1.321-2.215-3-2v4a5.727 5.727 0 0 0-1 3 33.673 33.673 0 0 1-5.5 4c.152-2.947.319-5.947.5-9v-1c3.97-1.274 7.97-2.607 12-4z"/><path style="opacity:1" fill="#c5af45" d="M258.5 276.5c-1.278.282-2.278.949-3 2v-4c1.679-.215 2.679.452 3 2z"/><path style="opacity:1" fill="#ce0f2a" d="M21.5 250.5a49.478 49.478 0 0 1 4 7c.825.886 1.825 1.219 3 1a13.118 13.118 0 0 0 1 7c2.44 1.609 3.607 3.943 3.5 7 .893-1.211 1.726-1.211 2.5 0a125.544 125.544 0 0 1 12 23l-8-8a67.212 67.212 0 0 0-4.5-9c-.67-.752-1.504-1.086-2.5-1a232.558 232.558 0 0 0-11-22v-5z"/><path style="opacity:1" fill="#761e28" d="M32.5 277.5c.996-.086 1.83.248 2.5 1a67.212 67.212 0 0 1 4.5 9c-.996.086-1.83-.248-2.5-1a67.212 67.212 0 0 1-4.5-9z"/><path style="opacity:1" fill="#544608" d="M371.5 268.5a51.569 51.569 0 0 1-1 7c-.667 0-1 .333-1 1a28.926 28.926 0 0 0-3.5 5c-.816 1.323-1.983 1.989-3.5 2a108.275 108.275 0 0 1 9-15z"/><path style="opacity:1" fill="#5a4407" d="M231.5 274.5c.611 2.211 1.944 3.878 4 5 1.333 1 1.333 2 0 3-3.083 2.078-5.416 4.745-7 8-1.611-4.479-.944-8.479 2-12 .934-1.068 1.268-2.401 1-4z"/><path style="opacity:1" fill="#8d3b07" d="M302.5 271.5h1c-1.562 6.886-5.562 11.553-12 14a60.13 60.13 0 0 0-14.5 1c-2.134 1.787-2.967 4.12-2.5 7-1.086-.12-1.753-.787-2-2a343.58 343.58 0 0 0 1-4 9.82 9.82 0 0 1 4-3c4.342-1.157 8.675-1.324 13-.5 5.623-1.453 8.956-4.953 10-10.5l2-2z"/><path style="opacity:1" fill="#255db2" d="M198.5 105.5v265c0 .667-.333 1-1 1a384.437 384.437 0 0 1-46-5 63.312 63.312 0 0 0-8-4 159.11 159.11 0 0 1 25 5.5 192.53 192.53 0 0 1 28 2.5 8822.147 8822.147 0 0 0 0-261c.168-1.671.835-3.004 2-4z"/><path style="opacity:1" fill="#a4a5a3" d="M36.5 290.5c1.39 1.399 2.39 3.066 3 5-2.227-.901-3.227-2.567-3-5z"/><path style="opacity:1" fill="#562e0f" d="M273.5 287.5a343.58 343.58 0 0 1-1 4c.247 1.213.914 1.88 2 2 1.442 1.32 2.108 2.986 2 5-.722-1.051-1.722-1.718-3-2a39.445 39.445 0 0 1-5-2.5c-.336-1.629.33-3.129 2-4.5l3-2z"/><path style="opacity:1" fill="#e3dd3f" d="M206.5 122.5v1h-4c-.328 82.041.006 164.041 1 246h-2v-247h5z"/><path style="opacity:1" fill="#5c4d02" d="M270.5 289.5c-1.67 1.371-2.336 2.871-2 4.5a39.445 39.445 0 0 0 5 2.5c-3.43-.393-6.596.273-9.5 2-.765-5.074 1.402-8.074 6.5-9z"/><path style="opacity:1" fill="#82271d" d="M332.5 271.5a69.18 69.18 0 0 1-6 20c-2.785 1.114-4.452 3.114-5 6-2.447.115-4.447 1.115-6 3a20.69 20.69 0 0 0 1-5 651.52 651.52 0 0 0 10-5 41.73 41.73 0 0 0-1-9c1.208.734 2.541 1.067 4 1a49.602 49.602 0 0 1-.5-10c1.011-.837 2.178-1.17 3.5-1z"/><path style="opacity:1" fill="#b81b26" d="M325.5 281.5a41.73 41.73 0 0 1 1 9 651.52 651.52 0 0 1-10 5 20.69 20.69 0 0 1-1 5 8.43 8.43 0 0 0-4 .5l-4 7a18.453 18.453 0 0 1-6 .5v-2c1.788.285 3.455-.048 5-1 1.286-3.965 3.953-5.965 8-6a15.418 15.418 0 0 1 1-7c2.237-.632 3.903-1.965 5-4a6.846 6.846 0 0 1 4-1c-.295-2.235.039-4.235 1-6z"/><path style="opacity:1" fill="#70202a" d="m39.5 287.5 8 8v2a17.91 17.91 0 0 1 4 6 503.683 503.683 0 0 1-11.5-12 8.435 8.435 0 0 1-.5-4z"/><path style="opacity:1" fill="#40615b" d="M200.5 121.5c-.333 82.835.001 165.502 1 248v1h-2c-.333-83.168.001-166.168 1-249z"/><path style="opacity:1" fill="#494333" d="M369.5 276.5c.616.702.616 1.702 0 3a163.982 163.982 0 0 1-14 20 106.963 106.963 0 0 0 7-16c1.517-.011 2.684-.677 3.5-2a28.926 28.926 0 0 1 3.5-5z"/><path style="opacity:1" fill="#eed62e" d="M333.5 278.5c-.903 2.891-1.236 5.891-1 9a4.934 4.934 0 0 1 3 .5 14.444 14.444 0 0 0-2.5 5.5c-1.507-1.035-3.007-.868-4.5.5-1.993 6.165-5.993 9.998-12 11.5v4h-7c1.196-4.391 2.696-4.724 4.5-1 1.163-1.785 1.83-3.785 2-6 .708-.881 1.542-1.547 2.5-2 .131 4.689 1.131 5.022 3 1a9.82 9.82 0 0 1 3-4c1.431-1.28 2.098-2.947 2-5 1.322.17 2.489-.163 3.5-1 .958-4.623 1.625-9.29 2-14 .383.556.883.889 1.5 1z"/><path style="opacity:1" fill="#f2db22" d="M277.5 284.5a9.82 9.82 0 0 0-4 3l-3 2c-5.098.926-7.265 3.926-6.5 9 2.904-1.727 6.07-2.393 9.5-2-.099 3.086-1.432 5.419-4 7-4.295 2.617-5.628 6.283-4 11 1.426-4.435 4.426-6.435 9-6 2.361.174 4.694.507 7 1 .227 2.433-.773 4.099-3 5v-4c-5.795-1.136-9.962.864-12.5 6l-3-2a118.595 118.595 0 0 0-2.5-22 7.248 7.248 0 0 1 2-2.5 168.167 168.167 0 0 1 8-1.5v-4h7z"/><path style="opacity:1" fill="#7b3e0d" d="M273.5 296.5c1.278.282 2.278.949 3 2-3.749 7.272-1.416 9.938 7 8v6l-2-3a51.569 51.569 0 0 0-7-1 42.47 42.47 0 0 0-1.5-5c-.986-.671-2.153-.671-3.5 0 2.568-1.581 3.901-3.914 4-7z"/><path style="opacity:1" fill="#b99e39" d="M324.5 297.5a9.82 9.82 0 0 0-3 4v-4c.958-.453 1.792-1.119 2.5-2 .464.594.631 1.261.5 2z"/><path style="opacity:1" fill="#bd1d26" d="M291.5 285.5c-4.626 2.164-9.626 3.164-15 3-.349 2.545.484 4.545 2.5 6 .777 2.929.61 5.763-.5 8.5a29.898 29.898 0 0 0 6.5 2.5c.497 2.31.663 4.643.5 7h-2v-6c-8.416 1.938-10.749-.728-7-8 .108-2.014-.558-3.68-2-5-.467-2.88.366-5.213 2.5-7a60.13 60.13 0 0 1 14.5-1z"/><path style="opacity:1" fill="#a71d30" d="M47.5 297.5c1.871.359 3.371 1.359 4.5 3a43.87 43.87 0 0 1 4.5 7l-5-4a17.91 17.91 0 0 0-4-6z"/><path style="opacity:1" fill="#763c16" d="M321.5 297.5v2c-1.291-.237-2.291.096-3 1-.958.453-1.792 1.119-2.5 2-.17 2.215-.837 4.215-2 6-1.804-3.724-3.304-3.391-4.5 1-2.45-.202-4.783.131-7 1l-1-2a18.453 18.453 0 0 0 6-.5l4-7a8.43 8.43 0 0 1 4-.5c1.553-1.885 3.553-2.885 6-3z"/><path style="opacity:1" fill="#5c4e00" d="M321.5 299.5v2c-1.869 4.022-2.869 3.689-3-1 .709-.904 1.709-1.237 3-1z"/><path style="opacity:1" fill="#543f05" d="M274.5 308.5c-4.574-.435-7.574 1.565-9 6-1.628-4.717-.295-8.383 4-11 1.347-.671 2.514-.671 3.5 0a42.47 42.47 0 0 1 1.5 5z"/><path style="opacity:1" fill="#eeca3d" d="m301.5 308.5 1 2c.295 2.235-.039 4.235-1 6v-6a26.796 26.796 0 0 0-8 4c.665-4.661 3.332-6.661 8-6z"/><path style="opacity:1" fill="#912f0f" d="M301.5 306.5v2c-4.668-.661-7.335 1.339-8 6a5.727 5.727 0 0 0-3 1h-5v-3c2.489.202 4.823-.298 7-1.5 1.916-3.625 4.916-5.125 9-4.5z"/><path style="opacity:1" fill="#5d2629" d="m51.5 303.5 5 4c4.343 4.708 8.676 9.375 13 14-8.354-3.687-14.354-9.687-18-18z"/><path style="opacity:1" fill="#bd1c2c" d="M56.5 307.5a49.042 49.042 0 0 0 10 6 16.314 16.314 0 0 1 2 4c1.1 1.105 1.767 2.438 2 4h-1a2834.665 2834.665 0 0 1-13-14z"/><path style="opacity:1" fill="#554306" d="M309.5 309.5c-.709 4.056-2.709 7.39-6 10-5.933 3.007-6.599 2.007-2-3 .961-1.765 1.295-3.765 1-6 2.217-.869 4.55-1.202 7-1z"/><path style="opacity:1" fill="#55400a" d="m281.5 309.5 2 3h2v3h5c-1.43 1.037-3.097 1.704-5 2-4.722 1.222-7.555 4.222-8.5 9-.919-4.231-.419-8.231 1.5-12 2.227-.901 3.227-2.567 3-5z"/><path style="opacity:1" fill="#443f2b" d="M354.5 300.5c-11.03 15.029-24.364 27.696-40 38 .246-2.97 1.912-4.303 5-4v-3c3.669-3.028 7.669-5.861 12-8.5a241.06 241.06 0 0 0 20-21.5c.825-.886 1.825-1.219 3-1z"/><path style="opacity:1" fill="#e8d429" d="M278.5 314.5c-1.919 3.769-2.419 7.769-1.5 12 .945-4.778 3.778-7.778 8.5-9a32.787 32.787 0 0 1-7 9.5c-1.789.52-3.456.187-5-1 1.333-.667 1.333-1.333 0-2a261.12 261.12 0 0 1 2-7.5c.765-1.112 1.765-1.779 3-2z"/><path style="opacity:1" fill="#423f37" d="M70.5 324.5a271.842 271.842 0 0 0 36 24.5 12.93 12.93 0 0 0 5 .5 16.076 16.076 0 0 0 2 5 67.236 67.236 0 0 0 20 5h1v1a22.836 22.836 0 0 1-3 4c-24.118-8.056-45.451-20.722-64-38 .996-.086 1.83.248 2.5 1 .483-.948.65-1.948.5-3z"/><path style="opacity:1" fill="#4e4205" d="M69.5 321.5h2c12.356 10.835 25.689 20.168 40 28a12.93 12.93 0 0 1-5-.5 271.842 271.842 0 0 1-36-24.5 5.728 5.728 0 0 1-1-3z"/><path style="opacity:1" fill="#53450e" d="M362.5 283.5a106.963 106.963 0 0 1-7 16c0 .667-.333 1-1 1-1.175-.219-2.175.114-3 1a241.06 241.06 0 0 1-20 21.5c-4.331 2.639-8.331 5.472-12 8.5v3c-3.088-.303-4.754 1.03-5 4v1c-5.069.534-9.402 2.701-13 6.5a68.456 68.456 0 0 1-14 4.5c30.345-16.345 55.345-38.678 75-67z"/><path style="opacity:1" fill="#403b29" d="M314.5 339.5c-14.398 9.869-29.731 18.202-46 25-.366-1.195-1.199-1.861-2.5-2a83.818 83.818 0 0 1-20.5 5c4.263-2.297 8.929-3.464 14-3.5a192.46 192.46 0 0 1 23-9.5c2.231-.809 3.898-2.143 5-4a68.456 68.456 0 0 0 14-4.5c3.598-3.799 7.931-5.966 13-6.5z"/><path style="opacity:1" fill="#453811" d="M111.5 349.5a146.156 146.156 0 0 0 15 6c1.135 1.713 2.802 2.38 5 2 .342.838 1.008 1.172 2 1v1a67.236 67.236 0 0 1-20-5 16.076 16.076 0 0 1-2-5z"/><path style="opacity:1" fill="#594b03" d="M287.5 350.5c-1.102 1.857-2.769 3.191-5 4a192.46 192.46 0 0 0-23 9.5c-5.071.036-9.737 1.203-14 3.5-2.121-.175-4.121.159-6 1-5.322.48-10.655.813-16 1 22.162-3.211 43.495-9.545 64-19z"/><path style="opacity:1" fill="#67676c" d="M135.5 366.5a460.36 460.36 0 0 0 15 3 44.093 44.093 0 0 1 3 2c-6.369-.756-12.369-2.423-18-5z"/><path style="opacity:1" fill="#1a345a" d="M151.5 366.5a384.437 384.437 0 0 0 46 5c-5.819 1.153-11.819 1.319-18 .5-9.653-.92-18.986-2.754-28-5.5z"/><path style="opacity:1" fill="#313440" d="M134.5 360.5h2a31.686 31.686 0 0 0 6 2h1a63.312 63.312 0 0 1 8 4c9.014 2.746 18.347 4.58 28 5.5 6.181.819 12.181.653 18-.5.667 0 1-.333 1-1h1c.743 2.196 1.076 4.196 1 6a576.552 576.552 0 0 1-23-1h-2c-4.067-1.554-8.4-2.22-13-2-3.189-.358-6.189-1.025-9-2a44.093 44.093 0 0 0-3-2 460.36 460.36 0 0 1-15-3l-4-2a22.836 22.836 0 0 0 3-4z"/><path style="opacity:1" fill="#534704" d="M201.5 370.5v-1h2c6.594.815 13.26.815 20 0a129.638 129.638 0 0 1-11 3c-3.685-.669-7.352-1.335-11-2z"/><path style="opacity:1" fill="#3c3511" d="M239.5 368.5c-12.012 3.875-24.345 5.041-37 3.5-.556-.383-.889-.883-1-1.5 3.648.665 7.315 1.331 11 2a129.638 129.638 0 0 0 11-3c5.345-.187 10.678-.52 16-1z"/><path style="opacity:1" fill="#3a382e" d="M268.5 364.5a247.965 247.965 0 0 0-15 5 160.606 160.606 0 0 0-22 5h-1c-6.874.021-13.541.687-20 2h-10c.076-1.804-.257-3.804-1-6h2c.111.617.444 1.117 1 1.5 12.655 1.541 24.988.375 37-3.5 1.879-.841 3.879-1.175 6-1a83.818 83.818 0 0 0 20.5-5c1.301.139 2.134.805 2.5 2z"/><path style="opacity:1" fill="#c9c8c4" d="M253.5 369.5a74.835 74.835 0 0 0-14.5 6 19.522 19.522 0 0 0-7.5-1 160.606 160.606 0 0 1 22-5z"/><path style="opacity:1" fill="#706f75" d="M162.5 373.5c4.6-.22 8.933.446 13 2-4.576.062-8.909-.605-13-2z"/><path style="opacity:1" fill="#898a86" d="M230.5 374.5c-6.428 1.626-13.095 2.293-20 2 6.459-1.313 13.126-1.979 20-2z"/><path style="opacity:1" fill="#8b898d" d="M177.5 375.5c7.658.486 15.325.82 23 1h10v1h-24l-9-2z"/></svg>