<svg xmlns="http://www.w3.org/2000/svg" width="248" height="263" style="shape-rendering:geometricPrecision;text-rendering:geometricPrecision;image-rendering:optimizeQuality;fill-rule:evenodd;clip-rule:evenodd"><path style="opacity:1" fill="#fdfdfd" d="M-.5-.5h248v263H-.5V-.5z"/><path style="opacity:1" fill="#6e7374" d="M6.5 6.5v-1h185a552.846 552.846 0 0 1-47 1c-33.002-.167-66.002 0-99 .5 25.665.5 51.331.667 77 .5a2132.624 2132.624 0 0 1-115 0c0-.667-.333-1-1-1z"/><path style="opacity:1" fill="#2c3235" d="M144.5 6.5v1c-5.676-.166-11.343 0-17 .5a62.792 62.792 0 0 0-1 15.5l-2 5c.628-7.413-.039-14.413-2-21-25.669.167-51.335 0-77-.5 32.998-.5 65.998-.667 99-.5z"/><path style="opacity:1" fill="#1c242e" d="M6.5 6.5c.667 0 1 .333 1 1-.995 11.822-1.328 23.822-1 36h-1c-.329-12.511.005-24.845 1-37z"/><path style="opacity:1" fill="#828e90" d="M6.5 5.5v1c-.995 12.155-1.329 24.489-1 37 .172.992-.162 1.658-1 2-.648-13.709.019-27.042 2-40z"/><path style="opacity:1" fill="#e51402" d="M144.5 7.5h97v60h-34l-42-2c.904-.709 1.237-1.709 1-3 2.885.306 5.552-.027 8-1 .951-1.419 1.284-3.085 1-5-1.175.219-2.175-.114-3-1a18.285 18.285 0 0 0 2-8.5 127.252 127.252 0 0 0-5-25.5c1.548-.321 2.215-1.321 2-3-1.792-.81-3.792-1.31-6-1.5-.463-2.585-1.63-4.752-3.5-6.5-1.188 1.063-1.688 2.397-1.5 4-2.016 1.513-4.349 2.347-7 2.5-.88 1.356-1.214 2.856-1 4.5h3a122.111 122.111 0 0 0-4.5 19 50.963 50.963 0 0 0 .5 16h-3c-.239 1.967.094 3.8 1 5.5 2.982.498 5.982.665 9 .5v3c-10.487.994-21.154 1.328-32 1v-43a62.792 62.792 0 0 1 1-15.5c5.657-.5 11.324-.666 17-.5z"/><path style="opacity:1" fill="#361e23" d="M216.5 61.5v-1c1.548-.321 2.215-1.321 2-3h-25l-2 1v-3c1.175.219 2.175-.114 3-1-1.673-10.74-.673-21.24 3-31.5-2.126-5.712-.126-7.879 6-6.5a11.987 11.987 0 0 1 1-6c.825-.886 1.825-1.219 3-1-.96 4.927 1.04 7.427 6 7.5 1.36 1.938 1.027 3.604-1 5 4.75 10.736 6.084 21.903 4 33.5 3.568.26 4.901 2.26 4 6h-4z"/><path style="opacity:1" fill="#605a5e" d="M196.5 38.5c2.545-.35 4.545.484 6 2.5l11 1-18 1.5c.119-1.683.452-3.35 1-5z"/><path style="opacity:1" fill="#5c535c" d="M214.5 34.5c.951 1.419 1.284 3.085 1 5a23.79 23.79 0 0 1-10 .5l3-1-5-1c4.039-.685 7.705-1.852 11-3.5z"/><path style="opacity:1" fill="#928d8b" d="M213.5 34.5h1c-3.295 1.648-6.961 2.815-11 3.5l5 1-3 1a23.79 23.79 0 0 0 10-.5v4l-12 1h-8v-1l18-1.5-11-1c-1.455-2.016-3.455-2.85-6-2.5 1.418-1.808 3.418-2.475 6-2a40.104 40.104 0 0 1 11-2z"/><path style="opacity:1" fill="#52504f" d="M210.5 30.5v1a545.511 545.511 0 0 1-9 2.5 162.19 162.19 0 0 0 12-.5v1a40.104 40.104 0 0 0-11 2 168.724 168.724 0 0 0-6-2 30.968 30.968 0 0 0 2-2l12-2z"/><path style="opacity:1" fill="#cbc6c7" d="M210.5 31.5c1.478-.262 2.811.071 4 1-.124.607-.457.94-1 1a162.19 162.19 0 0 1-12 .5 545.511 545.511 0 0 0 9-2.5z"/><path style="opacity:1" fill="#cdcac5" d="M211.5 29.5c0 .667-.333 1-1 1l-12 2c-1.333-.333-1.333-.667 0-1a52.9 52.9 0 0 1 13-2z"/><path style="opacity:1" fill="#5b5560" d="M209.5 28.5c.992-.172 1.658.162 2 1a52.9 52.9 0 0 0-13 2v-2a72.045 72.045 0 0 1 11-1z"/><path style="opacity:1" fill="#bcb9ba" d="M209.5 28.5a72.045 72.045 0 0 0-11 1c-1.238-.31-1.238-.81 0-1.5a37.63 37.63 0 0 1 13-1c-.916.278-1.582.778-2 1.5z"/><path style="opacity:1" fill="#898481" d="M198.5 24.5c1.788-.285 3.455.048 5 1l-2.5 1c-1.376-.184-2.209-.85-2.5-2z"/><path style="opacity:1" fill="#acaa9f" d="M200.5 21.5h8c-2.691 2.096-5.691 2.43-9 1 .124-.607.457-.94 1-1z"/><path style="opacity:1" fill="#8e888a" d="M208.5 21.5h-8a30.968 30.968 0 0 0-2-2 33.227 33.227 0 0 1 14-.5c-1.82.2-3.153 1.034-4 2.5z"/><path style="opacity:1" fill="#6b5c63" d="M171.5 18.5c.215 1.679-.452 2.679-2 3-1.276 2.53-1.276 5.197 0 8-4.677 1.075-5.677 1.075-3 0a18.991 18.991 0 0 0-1.5-8c-.271 2.771-1.771 4.438-4.5 5 1.379 1.363 1.213 2.363-.5 3-2.176-1.016-3.343-2.682-3.5-5a18.437 18.437 0 0 0 6-.5c-1.237-.232-2.237-.732-3-1.5a4.932 4.932 0 0 0 3-.5 24.939 24.939 0 0 0-7-.5v-1c5.195.32 10.195-.013 15-1 0-.667.333-1 1-1z"/><path style="opacity:1" fill="#5c1015" d="M160.5 14.5c.086.996-.248 1.83-1 2.5-1.882.198-3.548.698-5 1.5-.172.992.162 1.658 1 2v1h-3c-.214-1.644.12-3.144 1-4.5 2.651-.153 4.984-.987 7-2.5z"/><path style="opacity:1" fill="#cac9cb" d="M154.5 18.5h9c2.45-.202 4.783.131 7 1-4.805.987-9.805 1.32-15 1-.838-.342-1.172-1.008-1-2z"/><path style="opacity:1" fill="#5a4555" d="M160.5 14.5h3v4h-9c1.452-.802 3.118-1.302 5-1.5.752-.67 1.086-1.504 1-2.5z"/><path style="opacity:1" fill="#420b21" d="M171.5 18.5c-.667 0-1 .333-1 1-2.217-.869-4.55-1.202-7-1v-4h-3c-.188-1.603.312-2.937 1.5-4 1.87 1.748 3.037 3.915 3.5 6.5 2.208.19 4.208.69 6 1.5z"/><path style="opacity:1" fill="#b7a7ad" d="M204.5 13.5c1.086.12 1.753.787 2 2l-1 2c-.929-1.189-1.262-2.522-1-4z"/><path style="opacity:1" fill="#a6a29a" d="M207.5 47.5a32.438 32.438 0 0 1 8 .5c-2.906 1.319-5.906 1.652-9 1 .556-.383.889-.883 1-1.5z"/><path style="opacity:1" fill="#2a171b" d="M155.5 21.5c2.357-.163 4.69.003 7 .5a4.932 4.932 0 0 1-3 .5c-1.679-.215-2.679.452-3 2 .157 2.318 1.324 3.984 3.5 5 1.713-.637 1.879-1.637.5-3 2.729-.562 4.229-2.229 4.5-5a18.991 18.991 0 0 1 1.5 8c-2.677 1.075-1.677 1.075 3 0-1.276-2.803-1.276-5.47 0-8a127.252 127.252 0 0 1 5 25.5 18.285 18.285 0 0 1-2 8.5c.825.886 1.825 1.219 3 1 .284 1.915-.049 3.581-1 5v-1c-1.418-1.808-3.418-2.475-6-2a111.488 111.488 0 0 0-5-2 118.14 118.14 0 0 0 6-.5c-3.685-.914-3.352-1.581 1-2-4-.667-4-1.333 0-2a45.948 45.948 0 0 1-10-2l6-1-9-1a114.67 114.67 0 0 0 15-1.5 74.197 74.197 0 0 0-12-1.5 74.197 74.197 0 0 0 12-1.5 60.728 60.728 0 0 0-19-.5 222.127 222.127 0 0 0-1 12.5c2.897-.375 5.563.125 8 1.5a40.939 40.939 0 0 1-9 .5v-1a50.963 50.963 0 0 1-.5-16 122.111 122.111 0 0 1 4.5-19z"/><path style="opacity:1" fill="#867f82" d="M167.5 36.5v1a4.932 4.932 0 0 0-3 .5c2.31.497 4.643.663 7 .5v3c-6.009.166-12.009 0-18-.5 2.871-.13 5.205-1.297 7-3.5a13.118 13.118 0 0 1 7-1z"/><path style="opacity:1" fill="#b5aaaf" d="M167.5 37.5v-1c.543-.06.876-.393 1-1l-14-2a42.545 42.545 0 0 1 16-2v6h-3z"/><path style="opacity:1" fill="#c7c2bf" d="M159.5 22.5c.763.768 1.763 1.268 3 1.5a18.437 18.437 0 0 1-6 .5c.321-1.548 1.321-2.215 3-2z"/><path style="opacity:1" fill="#27182c" d="M126.5 23.5v44l76 2h-76a4224.716 4224.716 0 0 0-1 130v53a11023.326 11023.326 0 0 1-1-210v-14l2-5z"/><path style="opacity:1" fill="#38251d" d="M191.5 5.5h52c.331 25.839-.002 51.505-1 77v-13c.172-.992-.162-1.658-1-2v-60h-97v-1c15.842.33 31.509-.004 47-1z"/><path style="opacity:1" fill="#666264" d="M195.5 44.5h8c1.6 1.182 1.933 2.515 1 4a20.211 20.211 0 0 1-6 1.5c3.382.176 6.715.676 10 1.5 1.112.765 1.779 1.765 2 3l-5 2a16.868 16.868 0 0 1-8-1 27.444 27.444 0 0 1-2-11z"/><path style="opacity:1" fill="#b3b1aa" d="M210.5 54.5c1.256-.039 2.256.461 3 1.5a32.438 32.438 0 0 1-8 .5l5-2z"/><path style="opacity:1" fill="#7d797c" d="M168.5 58.5c-6.426-.62-12.426.047-18 2-1.385-1.447-1.052-2.447 1-3a40.939 40.939 0 0 0 9-.5c-2.437-1.375-5.103-1.875-8-1.5.231-4.364.564-8.531 1-12.5a60.728 60.728 0 0 1 19 .5 74.197 74.197 0 0 1-12 1.5c4.041.173 8.041.673 12 1.5a114.67 114.67 0 0 1-15 1.5l9 1-6 1a45.948 45.948 0 0 0 10 2c-4 .667-4 1.333 0 2-4.352.419-4.685 1.086-1 2-2.261.24-4.261.406-6 .5 1.791.67 3.458 1.337 5 2z"/><path style="opacity:1" fill="#f1eef1" d="M168.5 58.5c2.582-.475 4.582.192 6 2h-24c5.574-1.953 11.574-2.62 18-2z"/><path style="opacity:1" fill="#cbc9cc" d="M193.5 57.5h25c.215 1.679-.452 2.679-2 3h-23v-3z"/><path style="opacity:1" fill="#696a69" d="M150.5 60.5h24v1h-10v3c-2.386.241-4.386-.425-6-2l-8-2z"/><path style="opacity:1" fill="#4a3836" d="M193.5 57.5v3h23v1h-4c-1.699.027-3.033.694-4 2-.417-.624-1.084-.957-2-1-1.213.247-1.88.914-2 2l-2-2h-11v-4l2-1z"/><path style="opacity:1" fill="#58130c" d="M151.5 56.5v1c-2.052.553-2.385 1.553-1 3l8 2a40.939 40.939 0 0 1-9-.5c-.906-1.7-1.239-3.533-1-5.5h3z"/><path style="opacity:1" fill="#452824" d="M98.5 34.5a144.448 144.448 0 0 1 1 22c-.321 1.548-1.321 2.215-3 2 .987 3.51.987 6.844 0 10-.774 1.211-1.607 1.211-2.5 0-.46 2.804.04 5.471 1.5 8l-3 2a18.941 18.941 0 0 0 3 5l-4 1a18.338 18.338 0 0 1 4 6l-4 2c2.424 2.214 1.757 3.214-2 3-.268 1.599.066 2.932 1 4 .34 5.01 1.672 9.677 4 14-.958-.453-1.792-1.119-2.5-2a46.148 46.148 0 0 1-4.5-14l1-4c1.187 1.394 1.853 1.227 2-.5-1.564-1.605-2.064-3.438-1.5-5.5.965 1.76 2.132 2.094 3.5 1-2.514-2.368-2.514-4.701 0-7-1.839-2.027-2.339-4.36-1.5-7 .893 1.211 1.726 1.211 2.5 0-1.437-1.521-2.104-3.355-2-5.5a82.48 82.48 0 0 1 2-6.5c1.515-.993 2.515-2.993 3-6a16.869 16.869 0 0 0 1-8c1.2-3.198 1.2-6.531 0-10-.342-.838-1.008-1.172-2-1v-1l3-2z"/><path style="opacity:1" fill="#391c19" d="M174.5 61.5c-2.448.973-5.115 1.306-8 1 .237 1.291-.096 2.291-1 3h-7v-3c1.614 1.575 3.614 2.241 6 2v-3h10z"/><path style="opacity:1" fill="#3e130e" d="M212.5 61.5c-1.306.967-1.973 2.3-2 4h-8v-3l2 2c1.599.268 2.932-.066 4-1 .967-1.306 2.301-1.973 4-2z"/><path style="opacity:1" fill="#acaeaa" d="M208.5 63.5c-1.068.934-2.401 1.268-4 1 .12-1.086.787-1.753 2-2 .916.043 1.583.376 2 1z"/><path style="opacity:1" fill="#db0a39" d="M158.5 65.5h7l42 2h-81v-1c10.846.328 21.513-.006 32-1z"/><path style="opacity:1" fill="#470c19" d="M126.5 67.5h115c.838.342 1.172 1.008 1 2h-40l-76-2z"/><path style="opacity:1" fill="#525656" d="M5.5 43.5h1a693.09 693.09 0 0 0 2 65c1.533 8.84 3.033 17.84 4.5 27a28007.24 28007.24 0 0 0 8.5 26h-1c-4.159-8.963-7.659-18.296-10.5-28a280.128 280.128 0 0 1-4.5-30 1641.163 1641.163 0 0 1-1-58c.838-.342 1.172-1.008 1-2z"/><path style="opacity:1" fill="#393e9a" d="M187.5 70.5h53c.838.342 1.172 1.008 1 2-1.59 7.795-2.59 15.795-3 24-1.325 1.453-2.158 1.12-2.5-1a16.242 16.242 0 0 0 0 8l1-5a38.064 38.064 0 0 1-.5 15c-3.112-.851-3.446-2.017-1-3.5-1.789-.52-3.456-.187-5 1l1 1a9.454 9.454 0 0 0-2.5 1.5c-.971-.698-2.137-.698-3.5 0-2.267-.862-3.267-2.529-3-5a29.812 29.812 0 0 0-5-.5c1.141.741 1.141 1.575 0 2.5l4 2c-1.001 2.436-2.168 2.436-3.5 0-3.019 1.39-3.852.557-2.5-2.5l-2-1c1.473-.71 2.14-1.876 2-3.5-1.929-.269-3.595.231-5 1.5l2 1c-1.333.667-1.333 1.333 0 2-1.791.415-3.124 1.415-4 3l2 1c-1.537 1.11-2.203 2.61-2 4.5a4.934 4.934 0 0 0 3-.5c-.836-1.243-.503-2.41 1-3.5 1.871 1.267 3.704 1.267 5.5 0 1.715 2.031 3.548 3.031 5.5 3-2.757 1.588-3.59 3.921-2.5 7a4.457 4.457 0 0 1 1.5-2c2.609.73 5.276 1.23 8 1.5-3.243.288-5.91 1.622-8 4 1.664 1.767 2.831 1.267 3.5-1.5 2.316 1.022 2.816 2.522 1.5 4.5 5.089 1.35 5.255 3.184.5 5.5-2.854-1.334-5.021-.501-6.5 2.5 1.675 1.502 3.341 3.002 5 4.5-1.505 2.631-2.171 2.297-2-1h-4c.313 3.542-.021 6.875-1 10 .587-9.486-1.08-18.486-5-27a10.94 10.94 0 0 0-4.5 3c-3.637-11.827-4.304-23.827-2-36a92.733 92.733 0 0 0 5.5-10c-2.793-1.246-5.46-.913-8 1-3.525 1.259-6.525 3.259-9 6-4.251-4.252-9.251-7.252-15-9 .763-.768 1.763-1.268 3-1.5-1.532-.7-2.532-1.866-3-3.5.891-1.09 1.891-1.09 3 0l1-2c2.756 2.034 3.423 4.534 2 7.5 4.833 1.166 6.667-.667 5.5-5.5a6.544 6.544 0 0 1-3 3c-.181-2.174.652-4.007 2.5-5.5a29.822 29.822 0 0 0-5 .5v-3z"/><path style="opacity:1" fill="#393895" d="M126.5 69.5h114v1h-53c-3.678.277-6.512 1.944-8.5 5-1.152-3.826-3.319-4.66-6.5-2.5 2.209.957 2.043 2.124-.5 3.5-1.663-3.397-3.663-3.73-6-1l-2.5-1c1.412-1.306 3.079-2.14 5-2.5a16.25 16.25 0 0 0-8 0c.785 2.042.452 4.042-1 6a7.292 7.292 0 0 1 3 2c-2.334 1.843-2.668 4.01-1 6.5l-3-2c-.473-1.406-1.473-2.073-3-2-1.221-.965-2.554-.798-4 .5-6.663 6.838-11.663 14.671-15 23.5-2.383-2.936-2.05-5.269 1-7a6.845 6.845 0 0 0 1-4 8.435 8.435 0 0 1-4-.5c2.528-.669 2.528-1.502 0-2.5-3.337.61-3.67 1.776-1 3.5-2.091 1.726-4.424 2.893-7 3.5v-30z"/><path style="opacity:1" fill="#4e7f93" d="m213.5 82.5-8 1c2.54-1.913 5.207-2.246 8-1z"/><path style="opacity:1" fill="#1f242b" d="M181.5 80.5c5.749 1.748 10.749 4.748 15 9a2.429 2.429 0 0 0 .5 2 95.284 95.284 0 0 1 8.5-8l8-1a92.733 92.733 0 0 1-5.5 10c-2.304 12.173-1.637 24.173 2 36a10.94 10.94 0 0 1 4.5-3c3.92 8.514 5.587 17.514 5 27-1.5 1.679-3.333 3.012-5.5 4 1.483 17.274-3.683 32.107-15.5 44.5-3.069-1.139-5.902-2.972-8.5-5.5a61.684 61.684 0 0 1-8.5-14c-2.598-6.395-3.931-13.062-4-20v-1a53473.79 53473.79 0 0 1 8.5-44c2.314-11.456.148-21.79-6.5-31-.359-1.871-1.359-3.371-3-4.5a12.935 12.935 0 0 1 5-.5z"/><path style="opacity:1" fill="#54303e" d="M111.5 32.5h2a40.911 40.911 0 0 1-.5 9 174.954 174.954 0 0 0-7.5 16c-3.967 4.844-5.633 10.51-5 17 .68 11.873 3.513 23.207 8.5 34 2.263 9.365-1.237 13.198-10.5 11.5-2.423-1.571-3.756-3.737-4-6.5a37.868 37.868 0 0 0 5 5.5c3.334 1.212 5.834.379 7.5-2.5a16.242 16.242 0 0 0 0-8 150.794 150.794 0 0 1-5.5-16 68.568 68.568 0 0 1-3-16c.45-5.37 1.118-10.703 2-16 7.034-8.059 10.7-17.392 11-28z"/><path style="opacity:1" fill="#4a7d97" d="M205.5 83.5a95.284 95.284 0 0 0-8.5 8 2.429 2.429 0 0 1-.5-2c2.475-2.741 5.475-4.741 9-6z"/><path style="opacity:1" fill="#4b72a2" d="M241.5 72.5a511.43 511.43 0 0 1-3 42v-18c.41-8.205 1.41-16.205 3-24z"/><path style="opacity:1" fill="#ebecef" d="M234.5 5.5H6.5c-1.981 12.958-2.648 26.291-2 40-.008 19.34.325 38.674 1 58-.821-3.141-1.321-6.475-1.5-10l-1 8a1950.292 1950.292 0 0 1-1.5-97c42.115-.693 84.448-1.36 127-2l59 .5a1239.836 1239.836 0 0 0 47 2.5z"/><path style="opacity:1" fill="#b5adb1" d="M243.5 5.5h1c.167 29.669 0 59.335-.5 89 .122 5.76-.711 11.093-2.5 16 .245-9.337.578-18.67 1-28a1482.708 1482.708 0 0 0 1-77z"/><path style="opacity:1" fill="#5a5f64" d="M190.5 94.5c.16 4.579-.507 4.912-2 1-1.444-9.984-.777-10.317 2-1z"/><path style="opacity:1" fill="#e3e2e3" d="M205.5 95.5c-.768-.763-1.268-1.763-1.5-3-3.43 1.499-5.43 4.166-6 8-.278-.916-.778-1.582-1.5-2h-1a44.293 44.293 0 0 1-2-3 14.72 14.72 0 0 0-1.5 5c-.191-2.208-.691-4.208-1.5-6-2.777-9.317-3.444-8.984-2 1h-1c-1.175-4.01-3.175-7.677-6-11 3.214-.61 6.214.223 9 2.5l6.5 6.5a50.22 50.22 0 0 1 11-8l1.5 1a19.4 19.4 0 0 0-4 9z"/><path style="opacity:1" fill="#a7a4a3" d="M190.5 94.5c.809 1.792 1.309 3.792 1.5 6a14.72 14.72 0 0 1 1.5-5 44.293 44.293 0 0 0 2 3v3c-1.235.221-2.235.888-3 2-.511 2.384-1.511 4.384-3 6a120.336 120.336 0 0 1-2-14h1c1.493 3.912 2.16 3.579 2-1z"/><path style="opacity:1" fill="#7f7f80" d="M205.5 95.5c.172.992-.162 1.658-1 2-.841-.51-1.341.157-1.5 2a50.464 50.464 0 0 0-.5 10c-1.599.268-2.932-.066-4-1-1.773-2.988-2.44-6.321-2-10 .722.418 1.222 1.084 1.5 2 .57-3.834 2.57-6.501 6-8 .232 1.237.732 2.237 1.5 3z"/><path style="opacity:1" fill="#92848d" d="M30.5 104.5h7c.333 3 2 4.667 5 5v1c-2.655-.159-4.988-1.159-7-3a3.646 3.646 0 0 1 1-1.5c-2.208-.191-4.208-.691-6-1.5z"/><path style="opacity:1" fill="#542336" d="M27.5 97.5c4.72-.275 5.054.559 1 2.5 2.31.497 4.643.663 7 .5v3c3.391-.203 6.391.797 9 3a187.991 187.991 0 0 0-2 3c-3-.333-4.667-2-5-5h-7c.453-.958 1.12-1.792 2-2.5a22.507 22.507 0 0 1-7-2c1.256-.417 1.923-1.25 2-2.5z"/><path style="opacity:1" fill="#7e153f" d="M53.5 111.5h-10v-1c3.504-.962 6.837-.629 10 1z"/><path style="opacity:1" fill="#513f4e" d="M62.5 112.5a503.31 503.31 0 0 0-17 1l-3-1c.124-.607.457-.94 1-1h14c1.544-.203 2.878-.87 4-2 .886.825 1.219 1.825 1 3z"/><path style="opacity:1" fill="#452924" d="M115.5 104.5c2.442-.381 3.109.286 2 2 2.422 1.548 2.422 3.214 0 5a6.802 6.802 0 0 0 3 1.5c-2.854 2.078-3.188 4.245-1 6.5-.355 1.022-1.022 1.689-2 2-.324-1.312-.991-2.145-2-2.5-.701-5.035-.701-9.868 0-14.5z"/><path style="opacity:1" fill="#5a263f" d="M75.5 119.5a5.727 5.727 0 0 0-3 1c.086-.996-.248-1.829-1-2.5-2.798-2.304-5.798-4.138-9-5.5.219-1.175-.114-2.175-1-3-1.122 1.13-2.456 1.797-4 2 1.319-2.234 3.319-3.568 6-4 1.09.891 1.09 1.891 0 3 4.068 3.021 8.068 6.021 12 9z"/><path style="opacity:1" fill="#8a0b15" d="M76.5 120.5c1.406.473 2.073 1.473 2 3-1.653.16-2.986.826-4 2-5.448-2.304-11.114-2.637-17-1a1083.89 1083.89 0 0 1 19-4z"/><path style="opacity:1" fill="#4c353c" d="M75.5 119.5c.667 0 1 .333 1 1a1083.89 1083.89 0 0 0-19 4c-5.812-.04-9.978 2.626-12.5 8-.221 4.72-.721 9.387-1.5 14 1.057.406 2.39.406 4 0 .343 1.983-.324 3.317-2 4a39.271 39.271 0 0 0-4-3 472.91 472.91 0 0 0 3.5-19 25.558 25.558 0 0 1 6.5-5.5c7.006-.871 14.006-1.704 21-2.5a5.727 5.727 0 0 1 3-1z"/><path style="opacity:1" fill="#e9e7e6" d="M7.5 7.5a2132.624 2132.624 0 0 0 115 0c1.961 6.587 2.628 13.587 2 21v14c-.881 39.5-1.547 79.167-2 119a791.918 791.918 0 0 1-1.5-40 1288.192 1288.192 0 0 1-1.5 37h-5c1.341-3.104 1.007-5.938-1-8.5 1.076-1.726 1.243-3.559.5-5.5-1.671.594-3.338 1.927-5 4-1.653-.32-2.653-1.32-3-3a8.43 8.43 0 0 0-.5 4h3v3c-1.478-.262-2.811.071-4 1 .774 1.211 1.607 1.211 2.5 0l1 2c3-2.667 4.667-2 5 2-3.206 1.624-5.872.958-8-2-.157 3.016 1.343 4.683 4.5 5 .087 3.098-.413 3.432-1.5 1a29.517 29.517 0 0 1-2.5 4.5c1.926.422 2.926 1.589 3 3.5l-4-1a31.447 31.447 0 0 0-4.5-5c-.47-1.077-.303-2.077.5-3 2.045-1.423 3.045-3.423 3-6a20.69 20.69 0 0 1 1-5c-.956-6.933-.956-13.933 0-21 6.015.627 10.348-1.706 13-7 .978-.311 1.645-.978 2-2-2.188-2.255-1.854-4.422 1-6.5a6.802 6.802 0 0 1-3-1.5c2.422-1.786 2.422-3.452 0-5 1.109-1.714.442-2.381-2-2-.172-.992.162-1.658 1-2 2.659-1.662 2.325-2.996-1-4l2-3c-3.569-1.665-3.569-3.665 0-6a10.255 10.255 0 0 0-4-1.5 25.534 25.534 0 0 0 4-4.5 10.255 10.255 0 0 0-4-1.5l3-3-4-1c.881-.708 1.547-1.542 2-2.5 2.999-3.676 2.332-4.676-2-3 .969-3.484 2.969-6.317 6-8.5a14.729 14.729 0 0 1-5-1.5 46.62 46.62 0 0 1 5.5-6c1.544-3.291 1.711-6.624.5-10a71.965 71.965 0 0 1-9 11l-1-1c3.614-2.928 5.947-6.595 7-11 4.211-8.221 2.045-14.221-6.5-18-.122 1.782.378 3.448 1.5 5-.3 10.608-3.966 19.941-11 28 .268-1.599-.066-2.932-1-4 .226-7.376-.108-14.71-1-22 2.108-3.368 3.775-7.034 5-11-2.266-.706-4.6-.54-7 .5-1.442.377-2.442 1.21-3 2.5-.997.03-1.664-.47-2-1.5 1.605-5.45.605-5.95-3-1.5a32.66 32.66 0 0 0-7 3 24.125 24.125 0 0 0-11-.5c-1.646 1.656-3.646 2.489-6 2.5a54.842 54.842 0 0 0-12-1 18.436 18.436 0 0 0 .5 6c1.883 1.153 2.716 2.82 2.5 5-5.208.131-6.875-2.202-5-7-3.416-1.134-5.583.2-6.5 4-.773 1.852-.273 3.186 1.5 4 1 .333 1.667 1 2 2 .342.838 1.008 1.172 2 1 2.107.968 4.44 1.302 7 1v3c-1.175-.219-2.175.114-3 1a6.845 6.845 0 0 1 1 4 43.123 43.123 0 0 1 13 1c-1.124 1.36-2.458 2.36-4 3-1.527-.073-2.527.594-3 2-2.132.054-3.465 1.054-4 3-.854 1.132-.854 2.465 0 4-2 0-3 1-3 3l-2 1c-9.587-9.525-13.754-21.192-12.5-35a14.692 14.692 0 0 0-3.5-3c-1.105-1.1-2.438-1.767-4-2-.577-1.273-1.244-1.273-2 0 2.96 3.069 2.627 4.069-1 3-1.535-1.288-3.201-1.288-5 0l4 5c-.82 1.611-2.154 2.278-4 2l-4-1c-2.667.667-2.667 1.333 0 2a21.628 21.628 0 0 0 4 5 15.416 15.416 0 0 0 2 4.5c-1.188 1.944-2.854 3.444-5 4.5 2.232 2.952 5.232 4.618 9 5l-3 2a69.021 69.021 0 0 0 3 6 2.428 2.428 0 0 1-.5 2c-3.743-2.956-7.91-4.956-12.5-6-.215 1.679.452 2.679 2 3 .03 3.273-1.304 3.94-4 2-1.5-.047-2.5.62-3 2 1.915 1.571 2.915 3.571 3 6h-5c-.995 10.82-1.328 21.82-1 33a693.09 693.09 0 0 1-2-65c-.328-12.178.005-24.178 1-36z"/><path style="opacity:1" fill="#594847" d="M112.5 75.5h2c-.453.958-1.119 1.792-2 2.5l4 1-3 3c1.438.219 2.771.719 4 1.5a25.534 25.534 0 0 1-4 4.5c1.438.219 2.771.719 4 1.5-3.569 2.335-3.569 4.335 0 6l-2 3c3.325 1.004 3.659 2.338 1 4-.763-.768-1.763-1.268-3-1.5a3.943 3.943 0 0 0 1-2c-2.359-3.985-3.026-8.151-2-12.5.978-.311 1.645-.978 2-2-1.753-2.01-2.753-4.343-3-7l1-2z"/><path style="opacity:1" fill="#51384f" d="M18.5 87.5h1c-.17 1.322.163 2.489 1 3.5 2.264.236 4.43.736 6.5 1.5a29.816 29.816 0 0 1-.5 5c-1.175.219-2.175-.114-3-1 1.353-1.024 2.02-2.357 2-4-3.213.31-6.213-.023-9-1 1.677-.683 2.343-2.017 2-4z"/><path style="opacity:1" fill="#893443" d="M18.5 87.5c.343 1.983-.323 3.317-2 4-1.495.085-2.495-.582-3-2 1.35-1.45 3.017-2.117 5-2z"/><path style="opacity:1" fill="#ded5da" d="M99.5 56.5c.934 1.068 1.268 2.401 1 4a198.263 198.263 0 0 0-2 16 68.568 68.568 0 0 0 3 16c-2.798-2.182-5.132-2.016-7 .5.837 1.011 1.17 2.178 1 3.5h-5v3c-.934-1.068-1.268-2.401-1-4 3.757.214 4.424-.786 2-3l4-2a18.338 18.338 0 0 0-4-6l4-1a18.941 18.941 0 0 1-3-5l3-2c-1.46-2.529-1.96-5.196-1.5-8 .893 1.211 1.726 1.211 2.5 0 .987-3.156.987-6.49 0-10 1.679.215 2.679-.452 3-2z"/><path style="opacity:1" fill="#70212a" d="M111.5 77.5c.247 2.657 1.247 4.99 3 7-.355 1.022-1.022 1.689-2 2a30.968 30.968 0 0 0-2-2c.119-2.426.453-4.76 1-7z"/><path style="opacity:1" fill="#291218" d="M56.5 64.5c-.13.876.203 1.543 1 2 1.816-1.235 3.483-1.235 5 0-3.554 1.27-6.554 3.27-9 6-.596-1.435-.596-3.102 0-5 0-2 1-3 3-3z"/><path style="opacity:1" fill="#4c272e" d="M29.5 66.5c1.333-1.333 1.333-2.667 0-4 3.12.087 4.12 1.42 3 4 2.515.7 3.182 2.033 2 4 .825.886 1.825 1.219 3 1-.221 1.235-.888 2.235-2 3 1.189.929 2.522 1.262 4 1v3c1.175-.219 2.175.114 3 1a10.253 10.253 0 0 1-4 1.5c2.606.45 3.94 1.95 4 4.5 1.599.268 2.932-.066 4-1 1.501-.943 2.835-.61 4 1l-3 2c-1.548.321-2.215 1.321-2 3a5321.542 5321.542 0 0 0-13-7.5 11.529 11.529 0 0 1-3.5-4.5l-3-11c-1.616-1.3-3.116-1.3-4.5 0a22.853 22.853 0 0 1-4 3c-1.073.75-1.24 1.75-.5 3 2.9 1.21 4.566 3.21 5 6a51.095 51.095 0 0 0-5.5-4c-2.715 4.282-1.382 6.615 4 7 .285 1.915-.049 3.581-1 5 .28-2.888-1.053-4.388-4-4.5-2.618-2.106-4.618-4.606-6-7.5h5c-.085-2.429-1.085-4.429-3-6 .5-1.38 1.5-2.047 3-2 2.696 1.94 4.03 1.273 4-2-1.548-.321-2.215-1.321-2-3 4.59 1.044 8.757 3.044 12.5 6a2.428 2.428 0 0 0 .5-2z"/><path style="opacity:1" fill="#701813" d="M21.5 67.5c1.715 2.42 2.548 5.087 2.5 8-1.191-3.034-3.358-4.7-6.5-5a22.853 22.853 0 0 0 4-3z"/><path style="opacity:1" fill="#cd273a" d="M13.5 68.5c1.837.14 2.17.806 1 2-.797-.457-1.13-1.124-1-2z"/><path style="opacity:1" fill="#a71035" d="M59.5 63.5c1.172 1.205 2.505 1.205 4 0 1.165 1.36.832 2.36-1 3-1.517-1.235-3.184-1.235-5 0-.797-.457-1.13-1.124-1-2a5.728 5.728 0 0 1 3-1z"/><path style="opacity:1" fill="#c8232b" d="M18.5 65.5c.247-2.475.913-2.475 2 0-.47.963-1.137.963-2 0z"/><path style="opacity:1" fill="#6a6767" d="M56.5 60.5c1.966.041 3.966.375 6 1l-3 2a5.728 5.728 0 0 0-3 1c-.854-1.535-.854-2.868 0-4z"/><path style="opacity:1" fill="#46292d" d="M116.5 45.5c-1.053 4.405-3.386 8.072-7 11l1 1a71.965 71.965 0 0 0 9-11c1.211 3.376 1.044 6.709-.5 10a46.62 46.62 0 0 0-5.5 6 14.729 14.729 0 0 0 5 1.5c-3.031 2.183-5.031 5.016-6 8.5 4.332-1.676 4.999-.676 2 3h-2c-2.292-1.951-2.625-4.284-1-7 2.228-.822 2.895-2.155 2-4a7.248 7.248 0 0 0-2.5 2c-.667-1-.667-2 0-3a57.571 57.571 0 0 0 7.5-10.5l-.5-1.5a78.994 78.994 0 0 1-10 11 12.494 12.494 0 0 1 0-7 126.435 126.435 0 0 1 8.5-10z"/><path style="opacity:1" fill="#572839" d="M60.5 57.5c-1.36 1.51-.86 2.176 1.5 2a47.489 47.489 0 0 1 5.5-1c-1.268 1.547-2.935 2.547-5 3-2.034-.625-4.034-.959-6-1 .535-1.946 1.868-2.946 4-3z"/><path style="opacity:1" fill="#b31b3a" d="M63.5 55.5h2c-.11.617-.444 1.117-1 1.5 1.237.232 2.237.732 3 1.5a47.489 47.489 0 0 0-5.5 1c-2.36.176-2.86-.49-1.5-2 1.527.073 2.527-.594 3-2z"/><path style="opacity:1" fill="#bc2e26" d="M97.5 48.5a16.869 16.869 0 0 1-1 8c-.485 3.007-1.485 5.007-3 6-.597-.235-.93-.735-1-1.5 2.544-3.95 4.211-8.117 5-12.5z"/><path style="opacity:1" fill="#49362c" d="M63.5 55.5c-.473 1.406-1.473 2.073-3 2 .473-1.406 1.473-2.073 3-2z"/><path style="opacity:1" fill="#633c4b" d="M23.5 44.5c2.071 1.072 3.405 2.739 4 5-3.449 5.034-2.115 7.534 4 7.5.837 1.011 1.17 2.178 1 3.5-1.679-.215-2.679.452-3 2 1.333 1.333 1.333 2.667 0 4a69.021 69.021 0 0 1-3-6l3-2c-3.768-.382-6.768-2.048-9-5 2.146-1.056 3.813-2.556 5-4.5a15.416 15.416 0 0 1-2-4.5z"/><path style="opacity:1" fill="#e1230a" d="M50.5 70.5c.304.65.637 1.317 1 2-1.941 1.816-2.608 3.816-2 6 1.12-1.333 2.453-1.833 4-1.5a72.061 72.061 0 0 0-7 7.5c-1.068.934-2.401 1.268-4 1-.06-2.55-1.394-4.05-4-4.5a10.253 10.253 0 0 0 4-1.5c-.825-.886-1.825-1.219-3-1v-3c-.489-1.495-1.155-2.829-2-4-1.175.219-2.175-.114-3-1 1.182-1.967.515-3.3-2-4 1.12-2.58.12-3.913-3-4 .321-1.548 1.321-2.215 3-2 .17-1.322-.163-2.489-1-3.5-6.115.034-7.449-2.466-4-7.5-.595-2.261-1.929-3.928-4-5 0-3.333 1.667-5 5-5-.15-3.661 1.35-4.661 4.5-3 .216 1.884.883 3.55 2 5 .687-2.068.52-4.068-.5-6 .789-1.988 1.956-2.321 3.5-1l1 18c3.019 6.62 6.852 12.62 11.5 18z"/><path style="opacity:1" fill="#582f3c" d="M49.5 42.5c7.376-.226 14.71.108 22 1 .086.996-.248 1.83-1 2.5a347.463 347.463 0 0 0-15 2.5 240.362 240.362 0 0 1 19 4c2.51-1.343 5.176-1.843 8-1.5-3.454 3.324-7.454 4.158-12 2.5a325.759 325.759 0 0 1-5 2h-2c1.542-.64 2.876-1.64 4-3a43.123 43.123 0 0 0-13-1 6.845 6.845 0 0 0-1-4c.825-.886 1.825-1.219 3-1v-3c-2.56.302-4.893-.032-7-1z"/><path style="opacity:1" fill="#a4163a" d="M63.5 40.5h7c.904.709 1.237 1.709 1 3a144.448 144.448 0 0 0-22-1c-.992.172-1.658-.162-2-1 5.526.321 10.86-.012 16-1z"/><path style="opacity:1" fill="#4d1612" d="M28.5 39.5c2.422 1.492 3.088 3.492 2 6a10.778 10.778 0 0 1-2-6z"/><path style="opacity:1" fill="#69131f" d="M95.5 37.5c.992-.172 1.658.162 2 1-2.071 1.6-4.405 2.1-7 1.5 1.41-1.372 3.077-2.205 5-2.5z"/><path style="opacity:1" fill="#d62b1a" d="M113.5 32.5c.958.453 1.792 1.12 2.5 2a60.93 60.93 0 0 1 .5 11 126.435 126.435 0 0 0-8.5 10 12.494 12.494 0 0 0 0 7 78.994 78.994 0 0 0 10-11l.5 1.5a57.571 57.571 0 0 1-7.5 10.5c-.667 1-.667 2 0 3a7.248 7.248 0 0 1 2.5-2c.895 1.845.228 3.178-2 4-1.468-1.28-2.135-2.946-2-5h-3c.295-2.235-.039-4.235-1-6a174.954 174.954 0 0 1 7.5-16c.498-2.982.665-5.982.5-9z"/><path style="opacity:1" fill="#b0a6b1" d="M64.5 37.5c2.716-.114 4.716.886 6 3h-2c-1.72-.522-3.052-1.522-4-3z"/><path style="opacity:1" fill="#de1e17" d="M63.5 40.5c-5.14.988-10.474 1.321-16 1-.333-1-1-1.667-2-2-.319-2.25.181-4.25 1.5-6 .739 3.074 2.572 5.24 5.5 6.5a60.94 60.94 0 0 0 11 .5z"/><path style="opacity:1" fill="#ab2f34" d="m19.5 37.5 4 1c.13.876-.203 1.543-1 2a5.576 5.576 0 0 0-3-1v-2z"/><path style="opacity:1" fill="#433d48" d="M19.5 37.5v2c-2.667-.667-2.667-1.333 0-2z"/><path style="opacity:1" fill="#1f0b14" d="M63.5 35.5c6.694-.648 9.36 2.019 8 8 .237-1.291-.096-2.291-1-3-1.284-2.114-3.284-3.114-6-3-1.624-.14-2.79.527-3.5 2-.5-1.833-1.667-3-3.5-3.5a18.436 18.436 0 0 1 6-.5z"/><path style="opacity:1" fill="#4e3436" d="M31.5 28.5a12.649 12.649 0 0 0 2.5 4c.717-.544 1.217-1.21 1.5-2 1.294.79 2.46 1.79 3.5 3-1.254 13.808 2.913 25.475 12.5 35 .172.992-.162 1.658-1 2-4.648-5.38-8.481-11.38-11.5-18l-1-18c-1.544-1.321-2.711-.988-3.5 1 1.02 1.932 1.187 3.932.5 6-1.117-1.45-1.784-3.116-2-5-3.15-1.661-4.65-.661-4.5 3-3.333 0-5 1.667-5 5a21.628 21.628 0 0 1-4-5 5.576 5.576 0 0 1 3 1c.797-.457 1.13-1.124 1-2 1.846.278 3.18-.389 4-2l-4-5c1.799-1.288 3.465-1.288 5 0 3.627 1.069 3.96.069 1-3 .756-1.273 1.423-1.273 2 0z"/><path style="opacity:1" fill="#61192a" d="M99.5 30.5c-.734 1.208-1.067 2.541-1 4l-3 2c-.06-.543-.393-.876-1-1-1.369 1.624-3.035 2.124-5 1.5a30.318 30.318 0 0 0 7-6 4.932 4.932 0 0 1 3-.5z"/><path style="opacity:1" fill="#ab2228" d="M28.5 31.5c.757 3.807-.243 3.974-3 .5a4.932 4.932 0 0 1 3-.5z"/><path style="opacity:1" fill="#423830" d="M116.5 45.5a60.93 60.93 0 0 0-.5-11c-.708-.88-1.542-1.547-2.5-2h-2c-1.122-1.552-1.622-3.218-1.5-5 8.545 3.779 10.711 9.779 6.5 18z"/><path style="opacity:1" fill="#4e3233" d="M93.5 26.5a59.463 59.463 0 0 0-5.5 7 10.253 10.253 0 0 0-1.5-4c-6.084-3.202-12.084-3.368-18-.5a40.936 40.936 0 0 1-9 .5c-.886-1.276-1.886-1.276-3 0-1.88 1.214-2.213 2.548-1 4l8 2a18.436 18.436 0 0 0-6 .5c1.833.5 3 1.667 3.5 3.5.71-1.473 1.876-2.14 3.5-2 .948 1.478 2.28 2.478 4 3h-5a60.94 60.94 0 0 1-11-.5c-2.928-1.26-4.761-3.426-5.5-6.5-1.319 1.75-1.819 3.75-1.5 6-1.773-.814-2.273-2.148-1.5-4 .917-3.8 3.084-5.134 6.5-4-1.875 4.798-.208 7.131 5 7 .216-2.18-.617-3.847-2.5-5a18.436 18.436 0 0 1-.5-6 54.842 54.842 0 0 1 12 1c2.354-.011 4.354-.844 6-2.5a24.125 24.125 0 0 1 11 .5 32.66 32.66 0 0 1 7-3c3.605-4.45 4.605-3.95 3 1.5.336 1.03 1.003 1.53 2 1.5z"/><path style="opacity:1" fill="#be2c21" d="M31.5 28.5c1.562.233 2.895.9 4 2-.283.79-.783 1.456-1.5 2a12.649 12.649 0 0 1-2.5-4z"/><path style="opacity:1" fill="#8d170f" d="M59.5 29.5c-2 .667-3.333 2-4 4-1.213-1.452-.88-2.786 1-4 1.114-1.276 2.114-1.276 3 0z"/><path style="opacity:1" fill="#493734" d="M98.5 34.5c-.067-1.459.266-2.792 1-4a20.691 20.691 0 0 0 1-5 21.445 21.445 0 0 0-7 1c.558-1.29 1.558-2.123 3-2.5 2.4-1.04 4.734-1.206 7-.5-1.225 3.966-2.892 7.632-5 11z"/><path style="opacity:1" fill="#d43122" d="M88.5 23.5c2.396 1.328 2.396 2.994 0 5a7.291 7.291 0 0 1-3-2c1.27-.788 2.27-1.788 3-3z"/><path style="opacity:1" fill="#4470a0" d="M179.5 85.5c6.648 9.21 8.814 19.544 6.5 31a53473.79 53473.79 0 0 0-8.5 44c-1.193-.47-1.86-1.47-2-3a764.111 764.111 0 0 1 8.5-37 64.31 64.31 0 0 0 1-20 7497.686 7497.686 0 0 1-5.5-15z"/><path style="opacity:1" fill="#e61f05" d="M99.5 30.5a4.932 4.932 0 0 0-3 .5 30.318 30.318 0 0 1-7 6c1.965.624 3.631.124 5-1.5.607.124.94.457 1 1v1c-1.923.295-3.59 1.128-5 2.5 2.595.6 4.929.1 7-1.5 1.2 3.469 1.2 6.802 0 10-.789 4.383-2.456 8.55-5 12.5.07.765.403 1.265 1 1.5a82.48 82.48 0 0 0-2 6.5c-.104 2.145.563 3.979 2 5.5-.774 1.211-1.607 1.211-2.5 0-.839 2.64-.339 4.973 1.5 7-2.514 2.299-2.514 4.632 0 7-1.368 1.094-2.535.76-3.5-1-.564 2.062-.064 3.895 1.5 5.5-.147 1.727-.813 1.894-2 .5l-1 4a46.148 46.148 0 0 0 4.5 14c.708.881 1.542 1.547 2.5 2 .244 2.763 1.577 4.929 4 6.5 9.263 1.698 12.763-2.135 10.5-11.5-4.987-10.793-7.82-22.127-8.5-34-.633-6.49 1.033-12.156 5-17 .961 1.765 1.295 3.765 1 6h3c-.135 2.054.532 3.72 2 5-1.625 2.716-1.292 5.049 1 7l-1 2a37.113 37.113 0 0 0-1 7 30.968 30.968 0 0 1 2 2c-1.026 4.349-.359 8.515 2 12.5a3.943 3.943 0 0 1-1 2c1.237.232 2.237.732 3 1.5-.838.342-1.172 1.008-1 2-.701 4.632-.701 9.465 0 14.5 1.009.355 1.676 1.188 2 2.5l-3 2a70.766 70.766 0 0 1-11 4c-2.059 6.472-2.393 13.139-1 20-1.353 1.024-2.02 2.357-2 4-.506 1.929-1.506 3.595-3 5 1.236 1.811 1.236 3.644 0 5.5 1.559 3.061 3.892 5.227 7 6.5.815 1.337 1.982 2.337 3.5 3a42.36 42.36 0 0 0 1.5 8.5c-2.287 1.427-2.62 3.261-1 5.5-.825.886-1.825 1.219-3 1a20.69 20.69 0 0 1-1 5v4c-1.478-.262-2.811.071-4 1 .124.607.457.94 1 1-.172.992.162 1.658 1 2 .61.891.943 1.891 1 3-2.812.267-5.145 1.267-7 3-1.174 1.014-1.84 2.347-2 4-2.327.253-4.327-.414-6-2a18.34 18.34 0 0 1 4-6l-1-1a46.503 46.503 0 0 1-5.5 6c-2.188-.559-2.854-1.893-2-4a32.367 32.367 0 0 0 4.5-3c-2.082-1.394-3.749-1.061-5 1-1.25.077-2.083.744-2.5 2-.383-.556-.883-.889-1.5-1 .157-2.818 1.49-4.818 4-6 3.44-.089 6.272-1.422 8.5-4l3.5-10.5c-.707-2.587-2.04-4.754-4-6.5-1.194-2.518-2.36-2.518-3.5 0a14.729 14.729 0 0 0-1.5-5c-.607.124-.94.457-1 1-.904-.709-1.237-1.709-1-3h-3c-.556-3.437-1.89-6.437-4-9-1.752-3.727-2.419-7.727-2-12 1.058-1.1 1.892-2.434 2.5-4a6987.83 6987.83 0 0 1 3.5-13c-.168-1.671-.835-3.004-2-4l-1-2c.073-1.527-.594-2.527-2-3 0-.667-.333-1-1-1a1558.542 1558.542 0 0 0-12-9c1.09-1.109 1.09-2.109 0-3-2.681.432-4.681 1.766-6 4h-4c-3.163-1.629-6.496-1.962-10-1h-1v-1c.64-.982 1.307-1.982 2-3-2.609-2.203-5.609-3.203-9-3v-3a24.935 24.935 0 0 1-7-.5c4.054-1.941 3.72-2.775-1-2.5h-1c.315-1.726.481-3.392.5-5a26.692 26.692 0 0 0-6.5-1.5c-.837-1.011-1.17-2.178-1-3.5.951-1.419 1.285-3.085 1-5-5.382-.385-6.715-2.718-4-7a51.095 51.095 0 0 1 5.5 4c-.434-2.79-2.1-4.79-5-6-.74-1.25-.573-2.25.5-3 3.142.3 5.309 1.966 6.5 5 .048-2.913-.785-5.58-2.5-8 1.384-1.3 2.884-1.3 4.5 0l3 11a11.529 11.529 0 0 0 3.5 4.5c4.388 2.523 8.721 5.023 13 7.5 3.64 3.725 7.308 3.725 11 0-2.339-.843-4.339-.843-6 0 3.972-1.972 6.972-4.972 9-9l-1.5-1a29.376 29.376 0 0 1-7 3l-.5-1c3.856-3.1 7.523-6.433 11-10-2.75.083-5.416.083-8 0 2.446-2.73 5.446-4.73 9-6 1.832-.64 2.165-1.64 1-3-1.495 1.205-2.828 1.205-4 0l3-2c2.065-.453 3.732-1.453 5-3-.763-.768-1.763-1.268-3-1.5.556-.383.89-.883 1-1.5a325.759 325.759 0 0 0 5-2c4.546 1.658 8.546.824 12-2.5-2.824-.343-5.49.157-8 1.5a240.362 240.362 0 0 0-19-4 347.463 347.463 0 0 1 15-2.5c.752-.67 1.086-1.504 1-2.5 1.36-5.981-1.306-8.648-8-8l-8-2c.667-2 2-3.333 4-4a40.936 40.936 0 0 0 9-.5c5.916-2.868 11.916-2.702 18 .5a10.253 10.253 0 0 1 1.5 4 59.463 59.463 0 0 1 5.5-7 21.445 21.445 0 0 1 7-1 20.691 20.691 0 0 1-1 5z"/><path style="opacity:1" fill="#efebe9" d="M101.5 92.5a150.794 150.794 0 0 0 5.5 16 16.242 16.242 0 0 1 0 8c-1.666 2.879-4.166 3.712-7.5 2.5a37.868 37.868 0 0 1-5-5.5c-2.328-4.323-3.66-8.99-4-14v-3h5c.17-1.322-.163-2.489-1-3.5 1.868-2.516 4.202-2.682 7-.5z"/><path style="opacity:1" fill="#cc0f28" d="M50.5 85.5a2.428 2.428 0 0 1 2 .5c-1.406 2.45-3.406 3.45-6 3 .556-.383.89-.883 1-1.5l3-2z"/><path style="opacity:1" fill="#58101e" d="M53.5 67.5c-.596 1.898-.596 3.565 0 5 2.584.083 5.25.083 8 0a122.842 122.842 0 0 1-11 10l.5 1c2.472-.7 4.805-1.7 7-3l1.5 1c-2.028 4.028-5.028 7.028-9 9 1.661-.843 3.661-.843 6 0-3.692 3.725-7.36 3.725-11 0-.215-1.679.452-2.679 2-3-.11.617-.444 1.117-1 1.5 2.594.45 4.594-.55 6-3a2.428 2.428 0 0 0-2-.5c-1.165-1.61-2.499-1.943-4-1a72.061 72.061 0 0 1 7-7.5c-1.547-.333-2.88.167-4 1.5-.608-2.184.059-4.184 2-6a44.358 44.358 0 0 1-1-2c.838-.342 1.172-1.008 1-2l2-1z"/><path style="opacity:1" fill="#d4cbd0" d="M28.5 70.5a2.428 2.428 0 0 1 2 .5 103.646 103.646 0 0 0 7 8l-3 1 5 3.5c-.865 1.083-1.865 1.25-3 .5-5.355-2.873-8.022-7.373-8-13.5z"/><path style="opacity:1" fill="#9b0d2d" d="M37.5 71.5c.845 1.171 1.511 2.505 2 4-1.478.262-2.811-.071-4-1 1.112-.765 1.779-1.765 2-3z"/><path style="opacity:1" fill="#570209" d="M80.5 34.5c-2.56.302-4.893-.032-7-1 1.235-.221 2.235-.888 3-2 1.3 1.194 2.632 2.194 4 3z"/><path style="opacity:1" fill="#1c0306" d="M77.5 30.5a18.492 18.492 0 0 1 3.5 2c.692.937.525 1.603-.5 2-1.368-.806-2.7-1.806-4-3-.765 1.112-1.765 1.779-3 2v-1c.967-1.306 2.3-1.973 4-2z"/><path style="opacity:1" fill="#5f0c18" d="M77.5 30.5c-1.7.027-3.033.694-4 2-1.188-4.665.145-5.332 4-2z"/><path style="opacity:1" fill="#4478a8" d="M234.5 135.5c-1.081 9.568-3.748 18.568-8 27a489.099 489.099 0 0 1 8-27z"/><path style="opacity:1" fill="#363b3e" d="M124.5 42.5c-.333 70.169.001 140.169 1 210 .235.597.735.93 1.5 1 3.529-2.179 7.362-3.679 11.5-4.5 2.606-.792 4.606-2.292 6-4.5l8-2c-9.098 6.132-18.932 10.798-29.5 14a10.98 10.98 0 0 1-3.5-1v-1h3v-93c.453-39.833 1.119-79.5 2-119z"/><path style="opacity:1" fill="#5781ab" d="M226.5 162.5a26.221 26.221 0 0 1-3.5 9 234.86 234.86 0 0 1-9.5 15 104.268 104.268 0 0 1 13-24z"/><path style="opacity:1" fill="#253035" d="M240.5 70.5v-1h2v13c-.422 9.33-.755 18.663-1 28-3.012 31.722-13.678 60.389-32 86-14.587 16.596-31.254 30.596-50 42-.667 0-1-.333-1-1 14.285-8.748 27.452-19.081 39.5-31a95.571 95.571 0 0 0 12.5-16c.054-2.132 1.054-3.465 3-4a234.86 234.86 0 0 0 9.5-15 26.221 26.221 0 0 0 3.5-9c4.252-8.432 6.919-17.432 8-27a137.983 137.983 0 0 0 4-21 511.43 511.43 0 0 0 3-42c.172-.992-.162-1.658-1-2z"/><path style="opacity:1" fill="#dfdde4" d="M244.5 5.5a1382.762 1382.762 0 0 1 .5 91 394.651 394.651 0 0 1-3 33c-2.214 8.68-4.38 17.347-6.5 26h-3c.053 5.903-1.114 11.569-3.5 17l-13 20c-2.602.796-4.768 2.129-6.5 4 18.322-25.611 28.988-54.278 32-86 1.789-4.907 2.622-10.24 2.5-16 .5-29.665.667-59.331.5-89z"/><path style="opacity:1" fill="#f3efed" d="M9.5 75.5c1.382 2.894 3.382 5.394 6 7.5 2.947.112 4.28 1.612 4 4.5h-1c-1.983-.117-3.65.55-5 2 .505 1.418 1.505 2.085 3 2 2.787.977 5.787 1.31 9 1 .02 1.643-.647 2.976-2 4 .825.886 1.825 1.219 3 1h1c-.077 1.25-.744 2.083-2 2.5a22.507 22.507 0 0 0 7 2c-.88.708-1.547 1.542-2 2.5 1.792.809 3.792 1.309 6 1.5-.457.414-.79.914-1 1.5 2.012 1.841 4.345 2.841 7 3h1v1c-.543.06-.876.393-1 1l3 1a503.31 503.31 0 0 1 17-1c3.202 1.362 6.202 3.196 9 5.5.752.671 1.086 1.504 1 2.5-6.994.796-13.994 1.629-21 2.5a25.558 25.558 0 0 0-6.5 5.5 472.91 472.91 0 0 1-3.5 19 39.271 39.271 0 0 1 4 3v1c-1.62.287-2.62 1.287-3 3 1.276 1.145 2.609 1.145 4 0 1.166 1.865.833 3.532-1 5 .891 1.09 1.891 1.09 3 0l1 4c2.68-2.943 3.347-2.61 2 1l1.5 1c1.3-1.207 2.8-1.874 4.5-2 .2 10.949-5.133 15.116-16 12.5-3.387 2.002-4.887 4.835-4.5 8.5 1.93-2.605 3.764-2.605 5.5 0-2.933 1.659-3.6 3.993-2 7 1.571-1.915 3.571-2.915 6-3a18.164 18.164 0 0 0-.5 8c.414.457.914.791 1.5 1 .929-1.189 1.262-2.522 1-4 .667 0 1-.333 1-1a26.332 26.332 0 0 0 5-2c4.522-3.195 6.855-1.862 7 4 1.355-.688 2.355-1.688 3-3a420.748 420.748 0 0 1 8-16c1.293-2.136 1.293-4.136 0-6v-1c.351-2.369.518-4.703.5-7a140.905 140.905 0 0 1-9.5-12h3c-.215-1.679.452-2.679 2-3 .06.543.393.876 1 1 .886-.825 1.219-1.825 1-3 1.291.237 2.291-.096 3-1-.13-.876.203-1.543 1-2 .886.825 1.219 1.825 1 3-.617.111-1.117.444-1.5 1-1.04 4.94-.374 9.606 2 14 .498 3.317.665 6.65.5 10h3c-.38 2.442.286 3.109 2 2 .886.825 1.219 1.825 1 3h3c.194 3.505 1.194 3.838 3 1h1c1.91.074 3.078 1.074 3.5 3 .415 7.733-2.751 13.4-9.5 17-2.436-.183-4.603.484-6.5 2a77.626 77.626 0 0 0-2.5 12c2.642.012 3.975-1.321 4-4h2c1.333.667 1.333 1.333 0 2-1.113 1.446-1.28 3.113-.5 5 .71 1.473 1.876 2.14 3.5 2a20.676 20.676 0 0 1 1-5l2 6c2.166 2.54 3.166 1.873 3-2 0-.667.333-1 1-1a22.833 22.833 0 0 1 4-3c1.946-.535 2.946-1.868 3-4 3.135.048 4.802 1.715 5 5 3.878-2.065 4.878-5.065 3-9 2.374-3.18 3.374-6.847 3-11 2.17-2.887 3.837-6.22 5-10-.825-.886-1.825-1.219-3-1 .44-3.679-.227-7.012-2-10-.074-1.911-1.074-3.078-3-3.5a29.517 29.517 0 0 0 2.5-4.5c1.087 2.432 1.587 2.098 1.5-1-3.157-.317-4.657-1.984-4.5-5 2.128 2.958 4.794 3.624 8 2-.333-4-2-4.667-5-2l-1-2c-.893 1.211-1.726 1.211-2.5 0 1.189-.929 2.522-1.262 4-1v-3h-3a8.43 8.43 0 0 1 .5-4c.347 1.68 1.347 2.68 3 3 1.662-2.073 3.329-3.406 5-4 .743 1.941.576 3.774-.5 5.5 2.007 2.562 2.341 5.396 1 8.5h5a1288.192 1288.192 0 0 0 1.5-37c.169 13.506.669 26.84 1.5 40v14a1482.71 1482.71 0 0 0-1 77h-4c-43.729-18.064-75.729-48.398-96-91a28007.24 28007.24 0 0 1-8.5-26c-1.467-9.16-2.967-18.16-4.5-27-.328-11.18.005-22.18 1-33z"/><path style="opacity:1" fill="#4f3130" d="m104.5 168.5 4 1c1.773 2.988 2.44 6.321 2 10 1.175-.219 2.175.114 3 1-1.163 3.78-2.83 7.113-5 10-1.007 2.822-1.84 5.822-2.5 9-1.554-2.427-2.721-2.427-3.5 0-.838-.342-1.172-1.008-1-2 1.068-.934 2.401-1.268 4-1 .284-1.915-.049-3.581-1-5a20.69 20.69 0 0 0 1-5c1.175.219 2.175-.114 3-1-1.62-2.239-1.287-4.073 1-5.5a42.36 42.36 0 0 1-1.5-8.5c-1.518-.663-2.685-1.663-3.5-3z"/><path style="opacity:1" fill="#858183" d="M108.5 190.5c.374 4.153-.626 7.82-3 11-.722-1.051-1.722-1.718-3-2 .779-2.427 1.946-2.427 3.5 0 .66-3.178 1.493-6.178 2.5-9z"/><path style="opacity:1" fill="#a92c34" d="M104.5 191.5c.951 1.419 1.284 3.085 1 5-1.599-.268-2.932.066-4 1-.543-.06-.876-.393-1-1 1.189-.929 2.522-1.262 4-1v-4z"/><path style="opacity:1" fill="#513c44" d="M89.5 175.5c.342-.838 1.008-1.172 2-1 1.96 1.746 3.293 3.913 4 6.5L92 191.5c-2.228 2.578-5.06 3.911-8.5 4 6.749-3.6 9.915-9.267 9.5-17-.422-1.926-1.59-2.926-3.5-3z"/><path style="opacity:1" fill="#c62c32" d="M49.5 192.5c0 .667-.333 1-1 1-.543-.06-.876-.393-1-1 .757-1.273 1.423-1.273 2 0z"/><path style="opacity:1" fill="#673842" d="M63.5 184.5c.968 2.107 1.302 4.441 1 7-.645 1.312-1.645 2.312-3 3-.145-5.862-2.478-7.195-7-4 .26-2.095 1.426-3.428 3.5-4 1.567 1.356 3.4 2.023 5.5 2v-4z"/><path style="opacity:1" fill="#e12a1c" d="M53.5 176.5a246.792 246.792 0 0 1-7 2c.825.886 1.825 1.219 3 1v3h4v3c1.808.009 3.475-.491 5-1.5-2.095-.556-2.262-1.056-.5-1.5 4.337 2.007 4.504 1.173.5-2.5 2.61-.147 4.944-.981 7-2.5.607.124.94.457 1 1-.904.709-1.237 1.709-1 3h-3c-.237 1.291.096 2.291 1 3v4c-2.1.023-3.933-.644-5.5-2-2.074.572-3.24 1.905-3.5 4-7 .007-7.666-1.993-2-6l-1-1a81.466 81.466 0 0 1-7 4c-.17-2.991 1.163-4.991 4-6-1.913-.551-3.913-.718-6-.5-1.017-1.049-1.184-2.216-.5-3.5 3.73-.96 7.563-1.293 11.5-1z"/><path style="opacity:1" fill="#3c2c29" d="M72.5 169.5c1.293 1.864 1.293 3.864 0 6a420.748 420.748 0 0 0-8 16c.302-2.559-.032-4.893-1-7-.904-.709-1.237-1.709-1-3h3c-.237-1.291.096-2.291 1-3 1.291-1.042 1.291-2.208 0-3.5a4.934 4.934 0 0 1 3-.5 8.435 8.435 0 0 1 .5-4c1.46 1.383 2.294 1.049 2.5-1z"/><path style="opacity:1" fill="#9d272c" d="M85.5 170.5c.06-.543.393-.876 1-1a14.729 14.729 0 0 1 1.5 5c1.14-2.518 2.306-2.518 3.5 0-.992-.172-1.658.162-2 1h-1c-1.528-1.302-2.528-2.969-3-5z"/><path style="opacity:1" fill="#8b1d23" d="M77.5 158.5c2.11 2.563 3.444 5.563 4 9h3c-.237 1.291.096 2.291 1 3-.283.789-.783 1.456-1.5 2a10.255 10.255 0 0 0-1.5-4 3.647 3.647 0 0 0-1.5 1 51.026 51.026 0 0 1-3.5-11z"/><path style="opacity:1" fill="#5d364a" d="M75.5 144.5v2c-.419 4.273.248 8.273 2 12a51.026 51.026 0 0 0 3.5 11 3.647 3.647 0 0 1 1.5-1 10.255 10.255 0 0 1 1.5 4c.717-.544 1.217-1.211 1.5-2 .472 2.031 1.472 3.698 3 5-1.806 2.838-2.806 2.505-3-1h-3c.219-1.175-.114-2.175-1-3-1.714 1.109-2.38.442-2-2h-3a50.442 50.442 0 0 0-.5-10c-2.374-4.394-3.04-9.06-2-14 .383-.556.883-.889 1.5-1z"/><path style="opacity:1" fill="#5a3441" d="M45.5 151.5c.304 2.296 1.304 2.629 3 1v4c1.175-.219 2.175.114 3 1-1.333 2.667-.667 3.333 2 2 1.024 1.353 2.357 2.02 4 2 3.157 6.062 1.824 11.062-4 15-3.937-.293-7.77.04-11.5 1-.684 1.284-.517 2.451.5 3.5 2.087-.218 4.087-.051 6 .5-2.837 1.009-4.17 3.009-4 6a81.466 81.466 0 0 0 7-4l1 1c-5.666 4.007-5 6.007 2 6a26.332 26.332 0 0 1-5 2c-.577-1.273-1.243-1.273-2 0 .124.607.457.94 1 1 .262 1.478-.071 2.811-1 4a3.647 3.647 0 0 1-1.5-1 18.164 18.164 0 0 1 .5-8c-2.429.085-4.429 1.085-6 3-1.6-3.007-.933-5.341 2-7-1.736-2.605-3.57-2.605-5.5 0-.387-3.665 1.113-6.498 4.5-8.5 10.867 2.616 16.2-1.551 16-12.5-1.7.126-3.2.793-4.5 2l-1.5-1c1.347-3.61.68-3.943-2-1l-1-4c-1.109 1.09-2.109 1.09-3 0 1.833-1.468 2.166-3.135 1-5-1.391 1.145-2.724 1.145-4 0 .38-1.713 1.38-2.713 3-3z"/><path style="opacity:1" fill="#67696b" d="M103.5 154.5c.045 2.577-.955 4.577-3 6 .529-2.284 1.529-4.284 3-6z"/><path style="opacity:1" fill="#911d31" d="M48.5 152.5c.904.709 1.237 1.709 1 3h3v3c2.164.221 3.83 1.221 5 3-1.643.02-2.976-.647-4-2-2.667 1.333-3.333.667-2-2-.825-.886-1.825-1.219-3-1v-4z"/><path style="opacity:1" fill="#4a3628" d="M62.5 148.5c.667 0 1 .333 1 1a140.905 140.905 0 0 0 9.5 12 45.309 45.309 0 0 1-.5 7c-.814-2.131-1.314-4.464-1.5-7l-7-7a10.098 10.098 0 0 1-1.5-6z"/><path style="opacity:1" fill="#28231d" d="M104.5 149.5a20.69 20.69 0 0 0-1 5c-1.471 1.716-2.471 3.716-3 6-.803.923-.97 1.923-.5 3a31.447 31.447 0 0 1 4.5 5c-3.108-1.273-5.441-3.439-7-6.5 1.236-1.856 1.236-3.689 0-5.5 1.494-1.405 2.494-3.071 3-5 .967-1.306 2.301-1.973 4-2z"/><path style="opacity:1" fill="#7d6e7a" d="M73.5 143.5c-.709.904-1.709 1.237-3 1 .219 1.175-.114 2.175-1 3-.607-.124-.94-.457-1-1 .904-.709 1.237-1.709 1-3h4z"/><path style="opacity:1" fill="#50171f" d="M74.5 125.5c1.975.322 3.642.322 5 0 1.165.996 1.832 2.329 2 4a6987.83 6987.83 0 0 0-3.5 13c-.608 1.566-1.442 2.9-2.5 4v-2c.219-1.175-.114-2.175-1-3-.797.457-1.13 1.124-1 2h-4c.237 1.291-.096 2.291-1 3-1.548.321-2.215 1.321-2 3h-3c0-.667-.333-1-1-1-.395-3.023.605-4.023 3-3 .886-.825 1.219-1.825 1-3 3.034-1.829 6.368-3.329 10-4.5 2.647-4.593 1.98-8.76-2-12.5z"/><path style="opacity:1" fill="#603a2a" d="M103.5 127.5c0 .667.333 1 1 1-.956 7.067-.956 14.067 0 21-1.699.027-3.033.694-4 2-.02-1.643.647-2.976 2-4-1.393-6.861-1.059-13.528 1-20z"/><path style="opacity:1" fill="#e72308" d="M74.5 125.5c3.98 3.74 4.647 7.907 2 12.5-3.632 1.171-6.966 2.671-10 4.5.219 1.175-.114 2.175-1 3-2.395-1.023-3.395-.023-3 3a10.098 10.098 0 0 0 1.5 6l7 7c.186 2.536.686 4.869 1.5 7v1c-.206 2.049-1.04 2.383-2.5 1a8.435 8.435 0 0 0-.5 4 4.934 4.934 0 0 0-3 .5c1.291 1.292 1.291 2.458 0 3.5-.06-.543-.393-.876-1-1-2.056 1.519-4.39 2.353-7 2.5 4.004 3.673 3.837 4.507-.5 2.5-1.762.444-1.595.944.5 1.5-1.525 1.009-3.192 1.509-5 1.5v-3h-4v-3c-1.175.219-2.175-.114-3-1a246.792 246.792 0 0 0 7-2c5.824-3.938 7.157-8.938 4-15-1.17-1.779-2.836-2.779-5-3v-3h-3c.237-1.291-.096-2.291-1-3-1.696 1.629-2.696 1.296-3-1v-1c1.676-.683 2.343-2.017 2-4-1.61.406-2.943.406-4 0 .779-4.613 1.279-9.28 1.5-14 2.522-5.374 6.688-8.04 12.5-8 5.886-1.637 11.552-1.304 17 1z"/><path style="opacity:1" fill="#4b364b" d="M117.5 121.5c-2.652 5.294-6.985 7.627-13 7-.667 0-1-.333-1-1 4.594.843 8.261-.491 11-4l3-2z"/><path style="opacity:1" fill="#ca194b" d="M114.5 123.5c-2.739 3.509-6.406 4.843-11 4a70.766 70.766 0 0 0 11-4z"/><path style="opacity:1" fill="#1d0305" d="m78.5 123.5 1 2c-1.358.322-3.025.322-5 0 1.014-1.174 2.347-1.84 4-2z"/><path style="opacity:1" fill="#a2383f" d="M83.5 200.5a395.697 395.697 0 0 0-3 5h-2c-.864.963-1.53.963-2 0 .672-1.66 1.672-2.993 3-4 .617.111 1.117.444 1.5 1 .417-1.256 1.25-1.923 2.5-2z"/><path style="opacity:1" fill="#72525b" d="M83.5 195.5c-2.51 1.182-3.843 3.182-4 6-1.328 1.007-2.328 2.34-3 4 .47.963 1.136.963 2 0-.025 2.679-1.358 4.012-4 4a77.626 77.626 0 0 1 2.5-12c1.897-1.516 4.064-2.183 6.5-2z"/><path style="opacity:1" fill="#9b3039" d="M103.5 202.5c2.661 1.661 2.661 3.328 0 5-.886-.825-1.219-1.825-1-3-1.915-.284-3.581.049-5 1h-1c1.855-1.733 4.188-2.733 7-3z"/><path style="opacity:1" fill="#5d454c" d="M102.5 199.5c1.278.282 2.278.949 3 2 1.878 3.935.878 6.935-3 9-.198-3.285-1.865-4.952-5-5 1.419-.951 3.085-1.284 5-1-.219 1.175.114 2.175 1 3 2.661-1.672 2.661-3.339 0-5a5.727 5.727 0 0 0-1-3z"/><path style="opacity:1" fill="#4c232e" d="M94.5 209.5a22.833 22.833 0 0 0-4 3c-.716-2.512-1.716-2.512-3 0 .457.798 1.124 1.131 2 1 .166 3.873-.834 4.54-3 2a11.99 11.99 0 0 1 1-6c-1.114-1.276-2.114-1.276-3 0-2.869 3.012-4.202 2.345-4-2 1.333-.667 1.333-1.333 0-2a395.697 395.697 0 0 1 3-5c1.251-2.061 2.918-2.394 5-1a32.367 32.367 0 0 1-4.5 3c-.854 2.107-.188 3.441 2 4a46.503 46.503 0 0 0 5.5-6l1 1a18.34 18.34 0 0 0-4 6c1.673 1.586 3.673 2.253 6 2z"/><path style="opacity:1" fill="#523b3f" d="M96.5 205.5h1c-.054 2.132-1.054 3.465-3 4 .16-1.653.826-2.986 2-4z"/><path style="opacity:1" fill="#3c419a" d="M126.5 69.5v30c2.576-.607 4.909-1.774 7-3.5-2.67-1.724-2.337-2.89 1-3.5 2.528.998 2.528 1.831 0 2.5a8.435 8.435 0 0 0 4 .5 6.845 6.845 0 0 1-1 4c-3.05 1.731-3.383 4.064-1 7a45.824 45.824 0 0 1-2 9c.521 2.024.688 4.024.5 6l-7 5a134.554 134.554 0 0 0 6.5 30 20.69 20.69 0 0 0 5-1c-.304.65-.637 1.317-1 2a99.106 99.106 0 0 0 5 15c.838.342 1.172 1.008 1 2a551.097 551.097 0 0 0-2.5 20c-1.449 5.505-3.949 10.505-7.5 15 .457.798 1.124 1.131 2 1 2.589.039 4.589-.961 6-3a8.43 8.43 0 0 0 4-.5l9-7.5a84.853 84.853 0 0 1 8 7.5c3.482 2.249 7.149 2.749 11 1.5-4.523-6.343-7.356-13.343-8.5-21 .056-11.34.556-22.673 1.5-34 .841-1.879 1.175-3.879 1-6 8.101-21.529 5.767-41.863-7-61-1.668-2.49-1.334-4.657 1-6.5a7.292 7.292 0 0 0-3-2c1.452-1.958 1.785-3.958 1-6a16.25 16.25 0 0 1 8 0c-1.921.36-3.588 1.194-5 2.5l2.5 1c2.337-2.73 4.337-2.397 6 1 2.543-1.376 2.709-2.543.5-3.5 3.181-2.16 5.348-1.326 6.5 2.5 1.988-3.056 4.822-4.723 8.5-5v3a29.822 29.822 0 0 1 5-.5c-1.848 1.493-2.681 3.326-2.5 5.5a6.544 6.544 0 0 0 3-3c1.167 4.833-.667 6.666-5.5 5.5 1.423-2.966.756-5.466-2-7.5l-1 2c-1.109-1.09-2.109-1.09-3 0 .468 1.634 1.468 2.8 3 3.5-1.237.232-2.237.732-3 1.5a12.935 12.935 0 0 0-5 .5c1.641 1.129 2.641 2.629 3 4.5 1.819 4.978 3.653 9.978 5.5 15a64.31 64.31 0 0 1-1 20 764.111 764.111 0 0 0-8.5 37c.14 1.53.807 2.53 2 3v1c-1.271 6.187-.604 12.354 2 18.5.336 1.03 1.003 1.53 2 1.5a61.684 61.684 0 0 0 8.5 14c2.598 2.528 5.431 4.361 8.5 5.5 11.817-12.393 16.983-27.226 15.5-44.5 2.167-.988 4-2.321 5.5-4 .979-3.125 1.313-6.458 1-10h4c-.171 3.297.495 3.631 2 1a1951.203 1951.203 0 0 0-5-4.5c1.479-3.001 3.646-3.834 6.5-2.5 4.755-2.316 4.589-4.15-.5-5.5 1.316-1.978.816-3.478-1.5-4.5-.669 2.767-1.836 3.267-3.5 1.5 2.09-2.378 4.757-3.712 8-4a46.745 46.745 0 0 1-8-1.5 4.457 4.457 0 0 0-1.5 2c-1.09-3.079-.257-5.412 2.5-7-1.952.031-3.785-.969-5.5-3-1.796 1.267-3.629 1.267-5.5 0-1.503 1.09-1.836 2.257-1 3.5a4.934 4.934 0 0 1-3 .5c-.203-1.89.463-3.39 2-4.5l-2-1c.876-1.585 2.209-2.585 4-3-1.333-.667-1.333-1.333 0-2l-2-1c1.405-1.269 3.071-1.769 5-1.5.14 1.624-.527 2.79-2 3.5l2 1c-1.352 3.057-.519 3.89 2.5 2.5 1.332 2.436 2.499 2.436 3.5 0l-4-2c1.141-.925 1.141-1.759 0-2.5 1.607.019 3.274.185 5 .5-.267 2.471.733 4.138 3 5 1.363-.698 2.529-.698 3.5 0a9.454 9.454 0 0 1 2.5-1.5l-1-1c1.544-1.187 3.211-1.52 5-1-2.446 1.483-2.112 2.649 1 3.5a38.064 38.064 0 0 0 .5-15l-1 5a16.242 16.242 0 0 1 0-8c.342 2.12 1.175 2.453 2.5 1v18a137.983 137.983 0 0 1-4 21 489.099 489.099 0 0 0-8 27 104.268 104.268 0 0 0-13 24c-1.946.535-2.946 1.868-3 4-14.038 16.363-30.038 30.696-48 43-1.929-.506-3.595-1.506-5-3a3.647 3.647 0 0 0-1.5 1 16.635 16.635 0 0 0-5-6c-.617-.949-.451-1.782.5-2.5-1.225-.563-2.225-.23-3 1 1.211.893 1.211 1.726 0 2.5a13.116 13.116 0 0 1-1-7h-6c.031 3.776-.636 3.943-2 .5.648-1.44.981-2.94 1-4.5-2.712.698-5.046 2.032-7 4a10.258 10.258 0 0 0 4 1.5c1.211.893 1.211 1.726 0 2.5a20.48 20.48 0 0 0-5.5-3c-.54-1.635-.04-2.968 1.5-4-1.573-2.336-2.906-2.336-4 0-1.166-1.865-.833-3.532 1-5a3.647 3.647 0 0 0-1-1.5 6.802 6.802 0 0 0 3-1.5 7.293 7.293 0 0 1-2-3c1.047-1.556 1.714-3.223 2-5a21.435 21.435 0 0 1-7-1c-.332-43.503.001-86.837 1-130z"/><path style="opacity:1" fill="#e4e1e1" d="M158.5 177.5a553.649 553.649 0 0 1-1 20c1.322.17 2.489-.163 3.5-1a6.802 6.802 0 0 0 1.5 3c.557-2.218.557-4.551 0-7a72.367 72.367 0 0 1 .5-12c.191 2.208.691 4.208 1.5 6 .457 7.168 2.457 13.835 6 20l-1 1c-5.46-2.475-10.293-5.809-14.5-10a97.933 97.933 0 0 1-12.5 10c-.876.131-1.543-.202-2-1 1.306-2.957 3.306-5.291 6-7a6.846 6.846 0 0 0 1-4c.885-2.233 2.218-4.233 4-6a185.975 185.975 0 0 1 2-12l2 14c.372-5.071 1.372-9.738 3-14z"/><path style="opacity:1" fill="#3b6897" d="M144.5 174.5c1.234 7.74.734 15.406-1.5 23a67.34 67.34 0 0 1-6.5 13c-.876.131-1.543-.202-2-1 3.551-4.495 6.051-9.495 7.5-15a551.097 551.097 0 0 1 2.5-20z"/><path style="opacity:1" fill="#6d6e71" d="M158.5 177.5c.44 2.344 1.44 4.344 3 6-.31 3.213.023 6.213 1 9 .557 2.449.557 4.782 0 7a6.802 6.802 0 0 1-1.5-3c-1.011.837-2.178 1.17-3.5 1 .454-6.659.787-13.326 1-20z"/><path style="opacity:1" fill="#292935" d="M166.5 153.5h1a435.087 435.087 0 0 0-1.5 34c1.144 7.657 3.977 14.657 8.5 21-3.851 1.249-7.518.749-11-1.5a84.853 84.853 0 0 0-8-7.5l-9 7.5a8.43 8.43 0 0 1-4 .5 97.933 97.933 0 0 0 12.5-10c4.207 4.191 9.04 7.525 14.5 10l1-1c-3.543-6.165-5.543-12.832-6-20v-11h-3v8c-1.56-1.656-2.56-3.656-3-6l1-2c4.268-1.815 4.601-2.482 1-2-.798-.457-1.131-1.124-1-2 1.478.262 2.811-.071 4-1-1.481-1.444-1.148-2.111 1-2 .987-4.82 1.653-9.82 2-15z"/><path style="opacity:1" fill="#ada9aa" d="M164.5 186.5c-.809-1.792-1.309-3.792-1.5-6a72.367 72.367 0 0 0-.5 12c-.977-2.787-1.31-5.787-1-9v-8h3v11z"/><path style="opacity:1" fill="#7b7a7c" d="m159.5 175.5-1 2c-1.628 4.262-2.628 8.929-3 14l-2-14a185.975 185.975 0 0 0-2 12c-1.782 1.767-3.115 3.767-4 6-1.294-5.763-1.294-11.763 0-18 3.673-1.818 7.673-2.484 12-2z"/><path style="opacity:1" fill="#6a6c71" d="M186.5 173.5c.06.543.393.876 1 1 5.686-2.339 11.352-2.506 17-.5a32.38 32.38 0 0 1-7-.5c-2.655-.06-4.989.607-7 2a6.846 6.846 0 0 0-4 1c-.788-1.27-1.788-2.27-3-3a2.428 2.428 0 0 1 .5-2c.708.881 1.542 1.547 2.5 2z"/><path style="opacity:1" fill="#326693" d="M177.5 161.5c.069 6.938 1.402 13.605 4 20-.997.03-1.664-.47-2-1.5-2.604-6.146-3.271-12.313-2-18.5z"/><path style="opacity:1" fill="#c4c3c2" d="M180.5 156.5v10l7 4c1.024-3.723 2.357-3.557 4 .5-1.493 1.368-2.993 1.535-4.5.5a2.428 2.428 0 0 0-.5 2c-.958-.453-1.792-1.119-2.5-2a2.428 2.428 0 0 0-.5 2c-.215 2.023-.215 4.356 0 7-3.611-7.71-4.611-15.71-3-24z"/><path style="opacity:1" fill="#6b6d70" d="M143.5 157.5a700.087 700.087 0 0 0 9 9.5c-3.338 1.206-5.171.04-5.5-3.5-.838-1.499-1.671-1.832-2.5-1-.951-1.419-1.284-3.085-1-5z"/><path style="opacity:1" fill="#33659e" d="M139.5 155.5c2.093 5.378 3.427 11.045 4 17a99.106 99.106 0 0 1-5-15c.363-.683.696-1.35 1-2z"/><path style="opacity:1" fill="#959897" d="M166.5 153.5c-.347 5.18-1.013 10.18-2 15-.404-5.283.262-10.283 2-15z"/><path style="opacity:1" fill="#eaeae9" d="M190.5 125.5a466.163 466.163 0 0 0 14 25c.895-2.516.395-4.849-1.5-7-.667-1.667-.667-3.333 0-5a79.853 79.853 0 0 0 7.5 10 156.33 156.33 0 0 1 1 23c-1.903 7.543-4.737 14.877-8.5 22-1.062 1.399-2.395 2.399-4 3-6.234-4.138-6.734-3.638-1.5 1.5-3.276-1.237-6.109-3.403-8.5-6.5a235.888 235.888 0 0 1-5.5-11c-.215-2.644-.215-4.977 0-7 1.212.73 2.212 1.73 3 3a6.846 6.846 0 0 1 4-1c2.011-1.393 4.345-2.06 7-2a32.38 32.38 0 0 0 7 .5c-5.648-2.006-11.314-1.839-17 .5-.607-.124-.94-.457-1-1a2.428 2.428 0 0 1 .5-2c1.507 1.035 3.007.868 4.5-.5-1.643-4.057-2.976-4.223-4-.5l-7-4v-10c1.175-1.474 2.175-3.14 3-5 1.471.881 2.304 2.214 2.5 4 .667-1.667.667-3.333 0-5a33.086 33.086 0 0 1-2.5-7l1-3c2.035 1.097 3.368 2.763 4 5 1.592-2.946.758-4.946-2.5-6a18.453 18.453 0 0 1-.5-6v-1a73.178 73.178 0 0 1 10.5 14c.257-2.517-.41-4.85-2-7a93.941 93.941 0 0 1-7.5-10v-2c.768-.763 1.268-1.763 1.5-3 .671.752 1.504 1.086 2.5 1z"/><path style="opacity:1" fill="#656a6d" d="M197.5 180.5c4.972.452 5.972 2.619 3 6.5-5.352.175-6.352-1.991-3-6.5z"/><path style="opacity:1" fill="#7d7e86" d="M190.5 175.5a60.931 60.931 0 0 1 11 .5c1.921.36 3.588 1.194 5 2.5-5.544-1.213-11.377-1.213-17.5 0l-1.5-.5a81.316 81.316 0 0 0 3-2.5z"/><path style="opacity:1" fill="#d2d2d2" d="M143.5 148.5a52.053 52.053 0 0 0 4 8.5 16.2 16.2 0 0 0 3.5 1.5c1.03-.336 1.53-1.003 1.5-2v-3h3c-.219 1.175.114 2.175 1 3 .929-1.189 1.262-2.522 1-4h3v4c3.407-.375 3.907.625 1.5 3-.71-1.473-1.876-2.14-3.5-2-.273 1.951.393 3.451 2 4.5-3.563.123-5.73-1.71-6.5-5.5-.455 2.637.045 5.137 1.5 7.5-1.795 2.591-2.129 5.257-1 8 1.635.54 2.968.04 4-1.5.607.124.94.457 1 1-.131.876.202 1.543 1 2 3.601-.482 3.268.185-1 2-4.327-.484-8.327.182-12 2-1.288-1.535-1.288-3.201 0-5 3.695.751 3.528.085-.5-2a61.299 61.299 0 0 1-2.5-8c.829-.832 1.662-.499 2.5 1 .329 3.54 2.162 4.706 5.5 3.5a700.087 700.087 0 0 1-9-9.5 26.335 26.335 0 0 0-2-5 27.13 27.13 0 0 1-2-10c1.235-.221 2.235-.888 3-2 1.35 1.45 3.016 2.117 5 2v-4h3a4.934 4.934 0 0 0-.5-3c-1.487-.655-2.653-1.655-3.5-3l1-1c1.35 1.45 3.016 2.117 5 2-.744 3.45.59 5.116 4 5-.322 2.222.345 4.056 2 5.5-5.316.177-10.483.01-15.5-.5-.384 1.697-.218 3.363.5 5z"/><path style="opacity:1" fill="#999ea1" d="M143.5 148.5c1.5 1.088 2.833 2.421 4 4 .929 1.189 1.262 2.522 1 4h4c.03.997-.47 1.664-1.5 2a16.2 16.2 0 0 1-3.5-1.5 52.053 52.053 0 0 1-4-8.5z"/><path style="opacity:1" fill="#e4e4e4" d="M215.5 138.5c2.076 4.846 2.409 9.846 1 15-.683.363-1.35.696-2 1a2804.725 2804.725 0 0 1-3-21c.996.086 1.829-.248 2.5-1 .191 2.208.691 4.208 1.5 6z"/><path style="opacity:1" fill="#a1a1a1" d="M185.5 133.5a18.453 18.453 0 0 0 .5 6c3.258 1.054 4.092 3.054 2.5 6-.632-2.237-1.965-3.903-4-5l-1 3a33.086 33.086 0 0 0 2.5 7c.667 1.667.667 3.333 0 5-.196-1.786-1.029-3.119-2.5-4-.825 1.86-1.825 3.526-3 5a485.959 485.959 0 0 1 2.5-18 39.445 39.445 0 0 0 2.5-5z"/><path style="opacity:1" fill="#555858" d="M137.5 125.5c-.284 1.915.049 3.581 1 5-.851 2.818-.851 5.818 0 9-.237 1.291.096 2.291 1 3a27.13 27.13 0 0 0 2 10c-1.542.801-3.208 1.134-5 1a63.322 63.322 0 0 0-2-11c1.287-1.371 1.953-3.205 2-5.5a609.733 609.733 0 0 0-1-10.5l2-1z"/><path style="opacity:1" fill="#396a96" d="M155.5 82.5c-2.914 1.406-5.414 3.406-7.5 6-8.074 10.172-12.241 21.839-12.5 35-2.253.753-4.087 2.086-5.5 4a720.009 720.009 0 0 0 4.5 29 134.554 134.554 0 0 1-6.5-30l7-5c.188-1.976.021-3.976-.5-6a45.824 45.824 0 0 0 2-9c3.337-8.829 8.337-16.662 15-23.5 1.446-1.298 2.779-1.465 4-.5z"/><path style="opacity:1" fill="#4f5857" d="M211.5 133.5a2804.725 2804.725 0 0 0 3 21c-.722-.418-1.222-1.084-1.5-2a177.566 177.566 0 0 1-1.5 19 156.33 156.33 0 0 0-1-23 128.323 128.323 0 0 0-1-12l2-3z"/><path style="opacity:1" fill="#d0d1d1" d="m207.5 132.5 2 4c.521 3.981.854 7.981 1 12a79.853 79.853 0 0 1-7.5-10c-.667 1.667-.667 3.333 0 5 1.895 2.151 2.395 4.484 1.5 7a466.163 466.163 0 0 1-14-25h3c.253-2.327-.414-4.327-2-6 .502-1.021 1.168-1.188 2-.5 1.073 2.657 2.74 4.823 5 6.5-.891 1.09-1.891 1.09-3 0-1.261 2.062-.761 3.728 1.5 5 2.437-3.81 3.603-3.144 3.5 2-3.628.521-3.794 1.855-.5 4 1.86-2.415 3.526-2.415 5 0 1.706-.808 2.539-2.141 2.5-4z"/><path style="opacity:1" fill="#888d8f" d="M169.5 133.5c-.04 4.693-.373 9.359-1 14 .175 2.121-.159 4.121-1 6h-1a29.2 29.2 0 0 1 1-7.5 13.487 13.487 0 0 0-2-4c.146-1.727.813-1.894 2-.5a345.94 345.94 0 0 1 2-8z"/><path style="opacity:1" fill="#e7e8e7" d="M158.5 85.5c11.156 14.264 14.823 30.264 11 48a345.94 345.94 0 0 0-2 8c-1.187-1.394-1.854-1.227-2 .5a13.487 13.487 0 0 1 2 4 29.2 29.2 0 0 0-1 7.5c-1.738 4.717-2.404 9.717-2 15-2.148-.111-2.481.556-1 2-1.189.929-2.522 1.262-4 1-.06-.543-.393-.876-1-1-1.032 1.54-2.365 2.04-4 1.5-1.129-2.743-.795-5.409 1-8-1.455-2.363-1.955-4.863-1.5-7.5.77 3.79 2.937 5.623 6.5 5.5-1.607-1.049-2.273-2.549-2-4.5 1.624-.14 2.79.527 3.5 2 2.407-2.375 1.907-3.375-1.5-3v-4h-3c.262 1.478-.071 2.811-1 4-.886-.825-1.219-1.825-1-3h-3v3h-4c.262-1.478-.071-2.811-1-4-1.167-1.579-2.5-2.912-4-4-.718-1.637-.884-3.303-.5-5 5.017.51 10.184.677 15.5.5-1.655-1.444-2.322-3.278-2-5.5-3.41.116-4.744-1.55-4-5-1.984.117-3.65-.55-5-2l-1 1c.847 1.345 2.013 2.345 3.5 3 .483.948.649 1.948.5 3h-3v4c-1.984.117-3.65-.55-5-2-.765 1.112-1.765 1.779-3 2-.904-.709-1.237-1.709-1-3-.225-3.556.608-3.89 2.5-1 1.751-.328 1.751-.995 0-2-1.388-4.922-.222-5.922 3.5-3l1-1c-2.097-2.253-4.431-2.92-7-2-.951-1.419-1.284-3.085-1-5 3.373-1.432 3.707-3.432 1-6 .239-12.49 4.906-23.157 14-32 2.24 1.068 4.074 2.734 5.5 5 .387-2.805-.779-4.805-3.5-6 .711-2.342 2.044-2.675 4-1z"/><path style="opacity:1" fill="#999b9b" d="M138.5 139.5c-.851-3.182-.851-6.182 0-9 2.569-.92 4.903-.253 7 2l-1 1c-3.722-2.922-4.888-1.922-3.5 3 1.751 1.005 1.751 1.672 0 2-1.892-2.89-2.725-2.556-2.5 1z"/><path style="opacity:1" fill="#919494" d="M186.5 129.5a93.941 93.941 0 0 0 7.5 10c1.59 2.15 2.257 4.483 2 7a73.178 73.178 0 0 0-10.5-14 5.727 5.727 0 0 1 1-3z"/><path style="opacity:1" fill="#98989e" d="M215.5 138.5c-.809-1.792-1.309-3.792-1.5-6-.671.752-1.504 1.086-2.5 1-1.098-.897-1.098-1.73 0-2.5 1.284-.684 2.451-.517 3.5.5.497 2.31.663 4.643.5 7z"/><path style="opacity:1" fill="#b3b3b5" d="M135.5 126.5c.363 3.489.696 6.989 1 10.5-.047 2.295-.713 4.129-2 5.5-1.294-4.817-2.294-9.484-3-14 1.077-1.205 2.41-1.872 4-2z"/><path style="opacity:1" fill="#f3f3f0" d="M199.5 120.5c.997-.03 1.664.47 2 1.5-.687 1.162-.853 2.328-.5 3.5a895.38 895.38 0 0 0 6.5 7c.039 1.859-.794 3.192-2.5 4-1.474-2.415-3.14-2.415-5 0-3.294-2.145-3.128-3.479.5-4 .103-5.144-1.063-5.81-3.5-2-2.261-1.272-2.761-2.938-1.5-5 1.109 1.09 2.109 1.09 3 0-2.26-1.677-3.927-3.843-5-6.5-.832-.688-1.498-.521-2 .5 1.586 1.673 2.253 3.673 2 6h-3c-1.089-3.578-1.255-7.245-.5-11l2.5 3c1.254-1.759.921-3.259-1-4.5a4.934 4.934 0 0 1 3-.5 4.934 4.934 0 0 0 .5 3c1.417 1.898 2.917 3.564 4.5 5z"/><path style="opacity:1" fill="#d5d5d7" d="M204.5 97.5c-.711 11.097.623 21.93 4 32.5a11.123 11.123 0 0 1-1 2.5 895.38 895.38 0 0 1-6.5-7c-.353-1.172-.187-2.338.5-3.5-.336-1.03-1.003-1.53-2-1.5a14.83 14.83 0 0 0-3-7.5c.35-1.257 1.017-1.591 2-1a35.594 35.594 0 0 0 4 4.5c1.021-.502 1.188-1.168.5-2a20.499 20.499 0 0 1-2.5-3.5l-8-1c.556-.383.889-.883 1-1.5h5c1.068.934 2.401 1.268 4 1-.165-3.35.002-6.683.5-10 .159-1.843.659-2.51 1.5-2z"/><path style="opacity:1" fill="#292b3d" d="m158.5 84.5 3 2c12.767 19.137 15.101 39.471 7 61 .627-4.641.96-9.307 1-14 3.823-17.736.156-33.736-11-48v-1z"/><path style="opacity:1" fill="#65686d" d="M142.5 106.5a43.842 43.842 0 0 1 7 4.5c5.309 2.437 10.309 1.937 15-1.5l1 .5c-2.174 2.352-4.841 3.519-8 3.5.406 1.609.406 2.943 0 4-1.611-.82-2.278-2.154-2-4-6.017.463-10.35-1.871-13-7z"/><path style="opacity:1" fill="#808081" d="m195.5 101.5-2 7c-.111.617-.444 1.117-1 1.5l8 1a20.499 20.499 0 0 0 2.5 3.5c.688.832.521 1.498-.5 2a35.594 35.594 0 0 1-4-4.5c-.983-.591-1.65-.257-2 1a14.83 14.83 0 0 1 3 7.5c-1.583-1.436-3.083-3.102-4.5-5a4.934 4.934 0 0 1-.5-3 4.934 4.934 0 0 0-3 .5c1.921 1.241 2.254 2.741 1 4.5l-2.5-3c-.755 3.755-.589 7.422.5 11-.996.086-1.829-.248-2.5-1-.232 1.237-.732 2.237-1.5 3a110.047 110.047 0 0 0 3-18c1.489-1.616 2.489-3.616 3-6 .765-1.112 1.765-1.779 3-2z"/><path style="opacity:1" fill="#585859" d="M143.5 104.5c.06-.543.393-.876 1-1 6.81 3.549 13.81 3.882 21 1l1 1c-7.871 4.193-15.537 3.86-23-1z"/><path style="opacity:1" fill="#1e2021" d="M195.5 98.5h1c-.44 3.679.227 7.012 2 10h-5l2-7v-3z"/><path style="opacity:1" fill="#1b2327" d="M155.5 82.5c1.527-.073 2.527.594 3 2v1c-1.956-1.675-3.289-1.342-4 1-.992-.172-1.658.162-2 1-9.094 8.843-13.761 19.51-14 32 2.707 2.568 2.373 4.568-1 6l-2 1c-1.59.128-2.923.795-4 2 .706 4.516 1.706 9.183 3 14a63.322 63.322 0 0 1 2 11c1.792.134 3.458-.199 5-1a26.335 26.335 0 0 1 2 5c-.284 1.915.049 3.581 1 5a61.299 61.299 0 0 0 2.5 8c4.028 2.085 4.195 2.751.5 2-1.288 1.799-1.288 3.465 0 5-1.294 6.237-1.294 12.237 0 18a6.846 6.846 0 0 1-1 4c-2.694 1.709-4.694 4.043-6 7 .457.798 1.124 1.131 2 1-1.411 2.039-3.411 3.039-6 3a67.34 67.34 0 0 0 6.5-13c2.234-7.594 2.734-15.26 1.5-23 .172-.992-.162-1.658-1-2-.573-5.955-1.907-11.622-4-17a20.69 20.69 0 0 1-5 1 720.009 720.009 0 0 1-4.5-29c1.413-1.914 3.247-3.247 5.5-4 .259-13.161 4.426-24.828 12.5-35 2.086-2.594 4.586-4.594 7.5-6z"/><path style="opacity:1" fill="#626869" d="M151.5 95.5c1.279 1.468 2.946 2.135 5 2-1.338 5.155-3.338 5.321-6 .5.243-.902.577-1.735 1-2.5z"/><path style="opacity:1" fill="#66656d" d="M152.5 87.5c.342-.838 1.008-1.172 2-1 2.721 1.195 3.887 3.195 3.5 6-1.426-2.266-3.26-3.932-5.5-5z"/><path style="opacity:1" fill="#705967" d="M80.5 207.5c-.202 4.345 1.131 5.012 4 2a20.676 20.676 0 0 0-1 5c-1.624.14-2.79-.527-3.5-2-.78-1.887-.613-3.554.5-5z"/><path style="opacity:1" fill="#9b899e" d="M84.5 209.5c.886-1.276 1.886-1.276 3 0a11.99 11.99 0 0 0-1 6l-2-6z"/><path style="opacity:1" fill="#c7282b" d="M90.5 212.5c-.667 0-1 .333-1 1-.876.131-1.543-.202-2-1 1.284-2.512 2.284-2.512 3 0z"/><path style="opacity:1" fill="#454546" d="M20.5 161.5h1c20.271 42.602 52.271 72.936 96 91l2 2v1l-4-1c-37.682-16.503-67.182-42.503-88.5-78a74.392 74.392 0 0 1-6.5-15z"/><path style="opacity:1" fill="#5988a3" d="M210.5 190.5a95.571 95.571 0 0 1-12.5 16c-12.048 11.919-25.215 22.252-39.5 31 1.027-1.694 2.361-3.027 4-4 17.962-12.304 33.962-26.637 48-43z"/><path style="opacity:1" fill="#46499f" d="M125.5 199.5a21.435 21.435 0 0 0 7 1c-.286 1.777-.953 3.444-2 5a7.293 7.293 0 0 0 2 3 6.802 6.802 0 0 1-3 1.5c.457.414.791.914 1 1.5-1.833 1.468-2.166 3.135-1 5 1.094-2.336 2.427-2.336 4 0-1.54 1.032-2.04 2.365-1.5 4a20.48 20.48 0 0 1 5.5 3c1.211-.774 1.211-1.607 0-2.5a10.258 10.258 0 0 1-4-1.5c1.954-1.968 4.288-3.302 7-4a11.187 11.187 0 0 1-1 4.5c1.364 3.443 2.031 3.276 2-.5h6a13.116 13.116 0 0 0 1 7c1.211-.774 1.211-1.607 0-2.5.775-1.23 1.775-1.563 3-1-.951.718-1.117 1.551-.5 2.5a16.635 16.635 0 0 1 5 6 3.647 3.647 0 0 1 1.5-1c1.405 1.494 3.071 2.494 5 3-1.639.973-2.973 2.306-4 4a68.744 68.744 0 0 0-14 7c-5.904 3.304-12.238 5.637-19 7v-52z"/><path style="opacity:1" fill="#e2dfe7" d="M209.5 196.5c.418.722 1.084 1.222 2 1.5a14.506 14.506 0 0 0-4 5 4.934 4.934 0 0 1-3 .5 4.934 4.934 0 0 1-.5 3 272.884 272.884 0 0 1-40.5 33 9.108 9.108 0 0 1-5 1l1-2c18.746-11.404 35.413-25.404 50-42z"/><path style="opacity:1" fill="#425d6f" d="M158.5 237.5c0 .667.333 1 1 1l-1 2c-1.653.16-2.986.826-4 2h-2l-8 2a68.744 68.744 0 0 1 14-7z"/><path style="opacity:1" fill="#cbccd0" d="M122.5 175.5v79h-3l-2-2h4a1482.71 1482.71 0 0 1 1-77z"/><path style="opacity:1" fill="#5f7b9f" d="M144.5 244.5c-1.394 2.208-3.394 3.708-6 4.5-4.138.821-7.971 2.321-11.5 4.5-.765-.07-1.265-.403-1.5-1v-1c6.762-1.363 13.096-3.696 19-7z"/><path style="opacity:1" fill="#d9d5df" d="M152.5 242.5h2c-.061 2.092-1.061 3.592-3 4.5a826.122 826.122 0 0 1-28 13.5c-2.992-1.671-5.659-3.671-8-6l4 1a10.98 10.98 0 0 0 3.5 1c10.568-3.202 20.402-7.868 29.5-14z"/></svg>