<?xml version="1.0" encoding="UTF-8"?>
<!DOCTYPE svg PUBLIC "-//W3C//DTD SVG 1.1//EN" "http://www.w3.org/Graphics/SVG/1.1/DTD/svg11.dtd">
<svg xmlns="http://www.w3.org/2000/svg" version="1.1" width="227px" height="243px" style="shape-rendering:geometricPrecision; text-rendering:geometricPrecision; image-rendering:optimizeQuality; fill-rule:evenodd; clip-rule:evenodd" xmlns:xlink="http://www.w3.org/1999/xlink">
<g><path style="opacity:1" fill="#fbfcfa" d="M -0.5,-0.5 C 20.8333,-0.5 42.1667,-0.5 63.5,-0.5C 63.4894,1.01739 62.8228,2.18405 61.5,3C 58.0398,3.98504 54.7065,4.15171 51.5,3.5C 51.2865,5.14387 51.6198,6.64387 52.5,8C 72.3376,8.16818 92.0043,8.66818 111.5,9.5C 90.1574,9.38909 68.8241,9.72243 47.5,10.5C 35.8333,10.5 24.1667,10.5 12.5,10.5C 12.1714,23.0113 12.5048,35.3446 13.5,47.5C 13.5,60.8333 13.5,74.1667 13.5,87.5C 13.7306,97.6806 14.3972,107.681 15.5,117.5C 15.5,118.167 15.5,118.833 15.5,119.5C 15.3277,128.02 16.9943,136.02 20.5,143.5C 23.2703,154.046 27.437,164.046 33,173.5C 34.7186,176.288 36.8852,178.621 39.5,180.5C 39.427,182.027 40.0937,183.027 41.5,183.5C 44.2508,187.757 47.5842,191.59 51.5,195C 57.1233,198.955 62.4566,203.288 67.5,208C 68.448,208.483 69.448,208.649 70.5,208.5C 70.8333,209.5 71.5,210.167 72.5,210.5C 74.9485,213.556 77.9485,215.889 81.5,217.5C 85.3381,220.588 89.6714,222.922 94.5,224.5C 98.8819,227.731 103.882,229.731 109.5,230.5C 114.245,233.149 118.911,233.149 123.5,230.5C 126.833,229.5 130.167,228.5 133.5,227.5C 135.153,227.34 136.486,226.674 137.5,225.5C 137.5,225.167 137.5,224.833 137.5,224.5C 141.112,223.361 144.446,221.694 147.5,219.5C 151.736,217.555 155.403,214.888 158.5,211.5C 163.461,207.874 168.128,203.874 172.5,199.5C 176.126,197.541 179.126,194.874 181.5,191.5C 193.325,181.198 201.658,168.531 206.5,153.5C 207.451,152.081 207.784,150.415 207.5,148.5C 209.648,145.597 211.148,142.264 212,138.5C 213.28,131.205 214.28,123.872 215,116.5C 215.5,96.1694 215.667,75.8361 215.5,55.5C 215.5,39.8333 215.5,24.1667 215.5,8.5C 206.651,8.17364 197.984,8.50698 189.5,9.5C 168.833,9.5 148.167,9.5 127.5,9.5C 136.638,8.06261 145.972,7.06261 155.5,6.5C 172.816,7.44407 190.149,7.7774 207.5,7.5C 208.5,4.83333 209.5,2.16667 210.5,-0.5C 215.833,-0.5 221.167,-0.5 226.5,-0.5C 226.5,80.5 226.5,161.5 226.5,242.5C 150.833,242.5 75.1667,242.5 -0.5,242.5C -0.5,161.5 -0.5,80.5 -0.5,-0.5 Z"/></g>
<g><path style="opacity:1" fill="#8c929a" d="M 189.5,9.5 C 197.984,8.50698 206.651,8.17364 215.5,8.5C 215.5,24.1667 215.5,39.8333 215.5,55.5C 214.504,40.3424 214.17,25.0091 214.5,9.5C 206.167,9.5 197.833,9.5 189.5,9.5 Z"/></g>
<g><path style="opacity:1" fill="#4960a3" d="M 209.5,10.5 C 209.259,16.2702 209.926,21.9369 211.5,27.5C 210.06,36.7734 209.06,46.1067 208.5,55.5C 206.987,53.4645 206.321,51.1312 206.5,48.5C 206.214,37.7153 206.547,27.0487 207.5,16.5C 186.198,15.3363 186.198,14.5029 207.5,14C 200.751,13.1227 194.084,13.456 187.5,15C 184.655,17.7865 184.989,19.1198 188.5,19C 189.333,18.1667 190.167,17.3333 191,16.5C 191.452,19.1494 192.286,21.6494 193.5,24C 193.167,24.1667 192.833,24.3333 192.5,24.5C 191.751,22.9884 190.584,21.9884 189,21.5C 186.945,22.6922 184.945,22.6922 183,21.5C 183.077,22.7376 182.911,23.7376 182.5,24.5C 179.568,21.9538 178.234,18.6204 178.5,14.5C 179.873,14.6567 181.207,14.49 182.5,14C 176.882,12.5556 175.216,14.389 177.5,19.5C 177.167,20.8333 176.833,22.1667 176.5,23.5C 175.817,23.1373 175.15,22.8039 174.5,22.5C 174.5,21.8333 174.5,21.1667 174.5,20.5C 175.043,20.44 175.376,20.1067 175.5,19.5C 172.833,19.1667 170.167,18.8333 167.5,18.5C 159.84,19.311 152.173,19.4777 144.5,19C 144.167,18.6667 143.833,18.3333 143.5,18C 164.833,17.3333 164.833,16.6667 143.5,16C 150.354,15.3051 157.187,15.4718 164,16.5C 165.167,16.3333 166.333,16.1667 167.5,16C 165.833,15.6667 164.167,15.3333 162.5,15C 129.842,13.4989 97.1757,13.4989 64.5,15C 70.8333,15.3333 77.1667,15.6667 83.5,16C 76.8747,17.0448 70.208,17.7114 63.5,18C 68.8333,18.3333 74.1667,18.6667 79.5,19C 71.4809,19.343 63.4809,19.843 55.5,20.5C 55.5,19.1667 55.5,17.8333 55.5,16.5C 58.1873,16.6641 60.854,16.4974 63.5,16C 59.5,15.3333 55.5,15.3333 51.5,16C 50.6919,16.3076 50.0253,16.8076 49.5,17.5C 51.4011,18.935 51.7345,20.6017 50.5,22.5C 49.3279,22.0814 48.3279,21.4147 47.5,20.5C 47.9461,18.6318 48.2795,16.7985 48.5,15C 53.6789,14.9455 58.6789,14.2789 63.5,13C 47.5035,12.5001 31.5035,12.3334 15.5,12.5C 15.5,12.1667 15.5,11.8333 15.5,11.5C 26.1667,11.5 36.8333,11.5 47.5,11.5C 101.498,10.9354 155.498,10.6021 209.5,10.5 Z"/></g>
<g><path style="opacity:1" fill="#323c41" d="M 47.5,10.5 C 47.5,10.8333 47.5,11.1667 47.5,11.5C 36.8333,11.5 26.1667,11.5 15.5,11.5C 13.5209,23.1201 12.8542,35.1201 13.5,47.5C 12.5048,35.3446 12.1714,23.0113 12.5,10.5C 24.1667,10.5 35.8333,10.5 47.5,10.5 Z"/></g>
<g><path style="opacity:1" fill="#f5f8fc" d="M 63.5,-0.5 C 112.5,-0.5 161.5,-0.5 210.5,-0.5C 209.5,2.16667 208.5,4.83333 207.5,7.5C 190.149,7.7774 172.816,7.44407 155.5,6.5C 145.972,7.06261 136.638,8.06261 127.5,9.5C 122.167,9.5 116.833,9.5 111.5,9.5C 92.0043,8.66818 72.3376,8.16818 52.5,8C 51.6198,6.64387 51.2865,5.14387 51.5,3.5C 54.7065,4.15171 58.0398,3.98504 61.5,3C 62.8228,2.18405 63.4894,1.01739 63.5,-0.5 Z"/></g>
<g><path style="opacity:1" fill="#485f9e" d="M 98.5,20.5 C 97.7375,21.2679 96.7375,21.7679 95.5,22C 97.4469,29.5581 98.1136,37.3915 97.5,45.5C 93.1667,45.5 88.8333,45.5 84.5,45.5C 84.5,37.1667 84.5,28.8333 84.5,20.5C 86.4229,17.8601 89.0896,16.1935 92.5,15.5C 96.1228,16.6557 99.7894,17.6557 103.5,18.5C 100.703,19.5672 97.8693,19.5672 95,18.5C 94.1667,18.8333 93.3333,19.1667 92.5,19.5C 94.396,20.4656 96.396,20.7989 98.5,20.5 Z"/></g>
<g><path style="opacity:1" fill="#333a4f" d="M 174.5,20.5 C 174.5,21.1667 174.5,21.8333 174.5,22.5C 173.67,32.3249 173.17,42.3249 173,52.5C 172.764,54.1193 171.931,55.1193 170.5,55.5C 170.167,55.5 169.833,55.5 169.5,55.5C 169.833,54.8333 170.167,54.1667 170.5,53.5C 170.833,52.8333 171.167,52.1667 171.5,51.5C 171.5,41.5 171.5,31.5 171.5,21.5C 162.5,21.5 153.5,21.5 144.5,21.5C 144.5,29.8333 144.5,38.1667 144.5,46.5C 139.305,46.8205 134.305,46.4872 129.5,45.5C 129.833,45.5 130.167,45.5 130.5,45.5C 134.833,45.5 139.167,45.5 143.5,45.5C 143.5,38.1667 143.5,30.8333 143.5,23.5C 143.5,22.5 143.5,21.5 143.5,20.5C 153.833,20.5 164.167,20.5 174.5,20.5 Z"/></g>
<g><path style="opacity:1" fill="#3a404b" d="M 79.5,21.5 C 80.791,21.2627 81.791,21.596 82.5,22.5C 73.8333,22.5 65.1667,22.5 56.5,22.5C 56.5,32.5 56.5,42.5 56.5,52.5C 57.1098,53.391 57.4431,54.391 57.5,55.5C 56.8826,55.3893 56.3826,55.056 56,54.5C 55.7137,43.4797 55.2137,32.4797 54.5,21.5C 62.8333,21.5 71.1667,21.5 79.5,21.5 Z"/></g>
<g><path style="opacity:1" fill="#495fa0" d="M 143.5,23.5 C 143.5,30.8333 143.5,38.1667 143.5,45.5C 139.167,45.5 134.833,45.5 130.5,45.5C 130.5,37.1667 130.5,28.8333 130.5,20.5C 129.5,20.5 128.5,20.5 127.5,20.5C 128.502,18.9891 129.169,17.3224 129.5,15.5C 136.398,14.0957 140.064,16.7624 140.5,23.5C 141.5,23.5 142.5,23.5 143.5,23.5 Z"/></g>
<g><path style="opacity:1" fill="#232a49" d="M 79.5,21.5 C 80.9187,20.5489 82.5853,20.2155 84.5,20.5C 84.5,28.8333 84.5,37.1667 84.5,45.5C 88.8333,45.5 93.1667,45.5 97.5,45.5C 98.1136,37.3915 97.4469,29.5581 95.5,22C 96.7375,21.7679 97.7375,21.2679 98.5,20.5C 108.167,20.5 117.833,20.5 127.5,20.5C 128.5,20.5 129.5,20.5 130.5,20.5C 130.5,28.8333 130.5,37.1667 130.5,45.5C 130.167,45.5 129.833,45.5 129.5,45.5C 129.5,37.5 129.5,29.5 129.5,21.5C 119.494,21.3335 109.494,21.5002 99.5,22C 98.5175,30.081 98.1842,38.2476 98.5,46.5C 93.5,46.5 88.5,46.5 83.5,46.5C 83.8257,38.3159 83.4924,30.3159 82.5,22.5C 81.791,21.596 80.791,21.2627 79.5,21.5 Z"/></g>
<g><path style="opacity:1" fill="#bebbbd" d="M 129.5,45.5 C 134.305,46.4872 139.305,46.8205 144.5,46.5C 144.5,38.1667 144.5,29.8333 144.5,21.5C 153.5,21.5 162.5,21.5 171.5,21.5C 171.5,31.5 171.5,41.5 171.5,51.5C 153.992,51.17 136.659,51.5033 119.5,52.5C 98.5,52.5 77.5,52.5 56.5,52.5C 56.5,42.5 56.5,32.5 56.5,22.5C 65.1667,22.5 73.8333,22.5 82.5,22.5C 83.4924,30.3159 83.8257,38.3159 83.5,46.5C 88.5,46.5 93.5,46.5 98.5,46.5C 98.1842,38.2476 98.5175,30.081 99.5,22C 109.494,21.5002 119.494,21.3335 129.5,21.5C 129.5,29.5 129.5,37.5 129.5,45.5 Z"/></g>
<g><path style="opacity:1" fill="#9a9796" d="M 119.5,52.5 C 136.659,51.5033 153.992,51.17 171.5,51.5C 171.167,52.1667 170.833,52.8333 170.5,53.5C 170.167,53.5 169.833,53.5 169.5,53.5C 153.008,52.5035 136.342,52.1702 119.5,52.5 Z"/></g>
<g><path style="opacity:1" fill="#5c595b" d="M 56.5,52.5 C 77.5,52.5 98.5,52.5 119.5,52.5C 136.342,52.1702 153.008,52.5035 169.5,53.5C 132.32,53.1684 95.3198,53.835 58.5,55.5C 58.1667,55.5 57.8333,55.5 57.5,55.5C 57.4431,54.391 57.1098,53.391 56.5,52.5 Z"/></g>
<g><path style="opacity:1" fill="#bfbcbd" d="M 169.5,53.5 C 169.833,53.5 170.167,53.5 170.5,53.5C 170.167,54.1667 169.833,54.8333 169.5,55.5C 163.833,60.1667 158.167,64.8333 152.5,69.5C 126.833,69.5 101.167,69.5 75.5,69.5C 69.8333,64.8333 64.1667,60.1667 58.5,55.5C 95.3198,53.835 132.32,53.1684 169.5,53.5 Z"/></g>
<g><path style="opacity:1" fill="#445ba1" d="M 15.5,12.5 C 31.5035,12.3334 47.5035,12.5001 63.5,13C 58.6789,14.2789 53.6789,14.9455 48.5,15C 48.2795,16.7985 47.9461,18.6318 47.5,20.5C 48.3279,21.4147 49.3279,22.0814 50.5,22.5C 51.7345,20.6017 51.4011,18.935 49.5,17.5C 50.0253,16.8076 50.6919,16.3076 51.5,16C 55.5,15.3333 59.5,15.3333 63.5,16C 60.854,16.4974 58.1873,16.6641 55.5,16.5C 55.5,17.8333 55.5,19.1667 55.5,20.5C 63.4809,19.843 71.4809,19.343 79.5,19C 74.1667,18.6667 68.8333,18.3333 63.5,18C 70.208,17.7114 76.8747,17.0448 83.5,16C 77.1667,15.6667 70.8333,15.3333 64.5,15C 97.1757,13.4989 129.842,13.4989 162.5,15C 164.167,15.3333 165.833,15.6667 167.5,16C 166.333,16.1667 165.167,16.3333 164,16.5C 157.187,15.4718 150.354,15.3051 143.5,16C 164.833,16.6667 164.833,17.3333 143.5,18C 143.833,18.3333 144.167,18.6667 144.5,19C 152.173,19.4777 159.84,19.311 167.5,18.5C 170.167,18.8333 172.833,19.1667 175.5,19.5C 175.376,20.1067 175.043,20.44 174.5,20.5C 164.167,20.5 153.833,20.5 143.5,20.5C 143.5,21.5 143.5,22.5 143.5,23.5C 142.5,23.5 141.5,23.5 140.5,23.5C 140.064,16.7624 136.398,14.0957 129.5,15.5C 129.169,17.3224 128.502,18.9891 127.5,20.5C 117.833,20.5 108.167,20.5 98.5,20.5C 96.396,20.7989 94.396,20.4656 92.5,19.5C 93.3333,19.1667 94.1667,18.8333 95,18.5C 97.8693,19.5672 100.703,19.5672 103.5,18.5C 99.7894,17.6557 96.1228,16.6557 92.5,15.5C 89.0896,16.1935 86.4229,17.8601 84.5,20.5C 82.5853,20.2155 80.9187,20.5489 79.5,21.5C 71.1667,21.5 62.8333,21.5 54.5,21.5C 55.2137,32.4797 55.7137,43.4797 56,54.5C 56.3826,55.056 56.8826,55.3893 57.5,55.5C 57.4142,56.4959 57.7476,57.3292 58.5,58C 62.6138,60.2835 66.2804,63.1169 69.5,66.5C 69.5,67.5 69.5,68.5 69.5,69.5C 68.325,69.281 67.325,69.6143 66.5,70.5C 67.6888,71.4287 69.0222,71.762 70.5,71.5C 71.4496,74.0679 71.4496,76.5679 70.5,79C 72.0284,80.6477 72.6951,82.6477 72.5,85C 72.3179,97.8065 71.6512,110.64 70.5,123.5C 72.3269,132.697 73.3269,142.031 73.5,151.5C 73.1627,170.356 72.1627,189.022 70.5,207.5C 64.8209,204.013 59.4875,199.846 54.5,195C 52.8882,192.678 51.5548,190.178 50.5,187.5C 47.089,186.91 44.089,185.577 41.5,183.5C 40.0937,183.027 39.427,182.027 39.5,180.5C 37.8043,177.764 36.6377,174.764 36,171.5C 34.7949,170.929 33.6283,170.262 32.5,169.5C 31.0208,164.845 28.8541,160.512 26,156.5C 25.3131,154.432 25.4798,152.432 26.5,150.5C 24.6663,148.502 23.6663,146.168 23.5,143.5C 22.5,143.5 21.5,143.5 20.5,143.5C 19.3151,136.873 18.3151,130.207 17.5,123.5C 17.4146,121.667 16.7479,120.334 15.5,119.5C 15.5,118.833 15.5,118.167 15.5,117.5C 15.4467,107.488 15.1134,97.4885 14.5,87.5C 14.169,62.3278 14.5023,37.3278 15.5,12.5 Z"/></g>
<g><path style="opacity:1" fill="#3f4c7a" d="M 169.5,55.5 C 169.833,55.5 170.167,55.5 170.5,55.5C 172.317,57.0122 173.317,59.0122 173.5,61.5C 171.071,61.8844 168.737,62.551 166.5,63.5C 166.125,68.1824 163.792,69.5157 159.5,67.5C 158.148,68.5175 157.148,69.8508 156.5,71.5C 156.949,98.0679 156.949,124.735 156.5,151.5C 156.167,151.5 155.833,151.5 155.5,151.5C 154.814,124.49 153.814,97.4899 152.5,70.5C 152.5,70.1667 152.5,69.8333 152.5,69.5C 158.167,64.8333 163.833,60.1667 169.5,55.5 Z"/></g>
<g><path style="opacity:1" fill="#626062" d="M 75.5,69.5 C 101.167,69.5 126.833,69.5 152.5,69.5C 152.5,69.8333 152.5,70.1667 152.5,70.5C 127.161,70.4745 101.827,70.8078 76.5,71.5C 76.1667,70.8333 75.8333,70.1667 75.5,69.5 Z"/></g>
<g><path style="opacity:1" fill="#4d5d98" d="M 69.5,66.5 C 71.1288,67.6253 72.6288,68.9586 74,70.5C 74.8302,97.6698 74.6636,124.67 73.5,151.5C 73.3269,142.031 72.3269,132.697 70.5,123.5C 71.6512,110.64 72.3179,97.8065 72.5,85C 72.6951,82.6477 72.0284,80.6477 70.5,79C 71.4496,76.5679 71.4496,74.0679 70.5,71.5C 69.0222,71.762 67.6888,71.4287 66.5,70.5C 67.325,69.6143 68.325,69.281 69.5,69.5C 69.5,68.5 69.5,67.5 69.5,66.5 Z"/></g>
<g><path style="opacity:1" fill="#2e3862" d="M 15.5,11.5 C 15.5,11.8333 15.5,12.1667 15.5,12.5C 14.5023,37.3278 14.169,62.3278 14.5,87.5C 14.1667,87.5 13.8333,87.5 13.5,87.5C 13.5,74.1667 13.5,60.8333 13.5,47.5C 12.8542,35.1201 13.5209,23.1201 15.5,11.5 Z"/></g>
<g><path style="opacity:1" fill="#3e4456" d="M 13.5,87.5 C 13.8333,87.5 14.1667,87.5 14.5,87.5C 15.1134,97.4885 15.4467,107.488 15.5,117.5C 14.3972,107.681 13.7306,97.6806 13.5,87.5 Z"/></g>
<g><path style="opacity:1" fill="#59639d" d="M 212.5,10.5 C 213.201,37.3431 213.868,64.3431 214.5,91.5C 213.964,99.6637 213.297,107.664 212.5,115.5C 212.5,80.5 212.5,45.5 212.5,10.5 Z"/></g>
<g><path style="opacity:1" fill="#34395c" d="M 57.5,55.5 C 57.8333,55.5 58.1667,55.5 58.5,55.5C 64.1667,60.1667 69.8333,64.8333 75.5,69.5C 75.8333,70.1667 76.1667,70.8333 76.5,71.5C 75.6729,116.828 75.3396,162.162 75.5,207.5C 74.5692,189.001 73.9025,170.335 73.5,151.5C 74.6636,124.67 74.8302,97.6698 74,70.5C 72.6288,68.9586 71.1288,67.6253 69.5,66.5C 66.2804,63.1169 62.6138,60.2835 58.5,58C 57.7476,57.3292 57.4142,56.4959 57.5,55.5 Z"/></g>
<g><path style="opacity:1" fill="#455ca0" d="M 209.5,10.5 C 210.5,10.5 211.5,10.5 212.5,10.5C 212.5,45.5 212.5,80.5 212.5,115.5C 211.804,126.673 210.138,137.673 207.5,148.5C 207.784,150.415 207.451,152.081 206.5,153.5C 206.607,151.621 206.107,151.288 205,152.5C 204.667,154.167 204.333,155.833 204,157.5C 200.994,163.174 197.994,168.841 195,174.5C 194.667,174.167 194.333,173.833 194,173.5C 190.364,179.952 186.198,185.952 181.5,191.5C 179.126,194.874 176.126,197.541 172.5,199.5C 169.596,201.783 166.262,203.283 162.5,204C 161.663,205.011 161.33,206.178 161.5,207.5C 160.167,207.5 158.833,207.5 157.5,207.5C 157.83,188.659 157.497,169.993 156.5,151.5C 156.949,124.735 156.949,98.0679 156.5,71.5C 157.148,69.8508 158.148,68.5175 159.5,67.5C 163.792,69.5157 166.125,68.1824 166.5,63.5C 168.737,62.551 171.071,61.8844 173.5,61.5C 173.317,59.0122 172.317,57.0122 170.5,55.5C 171.931,55.1193 172.764,54.1193 173,52.5C 173.17,42.3249 173.67,32.3249 174.5,22.5C 175.15,22.8039 175.817,23.1373 176.5,23.5C 176.833,22.1667 177.167,20.8333 177.5,19.5C 175.216,14.389 176.882,12.5556 182.5,14C 181.207,14.49 179.873,14.6567 178.5,14.5C 178.234,18.6204 179.568,21.9538 182.5,24.5C 182.911,23.7376 183.077,22.7376 183,21.5C 184.945,22.6922 186.945,22.6922 189,21.5C 190.584,21.9884 191.751,22.9884 192.5,24.5C 192.833,24.3333 193.167,24.1667 193.5,24C 192.286,21.6494 191.452,19.1494 191,16.5C 190.167,17.3333 189.333,18.1667 188.5,19C 184.989,19.1198 184.655,17.7865 187.5,15C 194.084,13.456 200.751,13.1227 207.5,14C 186.198,14.5029 186.198,15.3363 207.5,16.5C 206.547,27.0487 206.214,37.7153 206.5,48.5C 206.321,51.1312 206.987,53.4645 208.5,55.5C 209.06,46.1067 210.06,36.7734 211.5,27.5C 209.926,21.9369 209.259,16.2702 209.5,10.5 Z"/></g>
<g><path style="opacity:1" fill="#404765" d="M 111.5,9.5 C 116.833,9.5 122.167,9.5 127.5,9.5C 148.167,9.5 168.833,9.5 189.5,9.5C 197.833,9.5 206.167,9.5 214.5,9.5C 214.17,25.0091 214.504,40.3424 215.5,55.5C 215.667,75.8361 215.5,96.1694 215,116.5C 214.28,123.872 213.28,131.205 212,138.5C 211.148,142.264 209.648,145.597 207.5,148.5C 210.138,137.673 211.804,126.673 212.5,115.5C 213.297,107.664 213.964,99.6637 214.5,91.5C 213.868,64.3431 213.201,37.3431 212.5,10.5C 211.5,10.5 210.5,10.5 209.5,10.5C 155.498,10.6021 101.498,10.9354 47.5,11.5C 47.5,11.1667 47.5,10.8333 47.5,10.5C 68.8241,9.72243 90.1574,9.38909 111.5,9.5 Z"/></g>
<g><path style="opacity:1" fill="#3d4561" d="M 15.5,119.5 C 16.7479,120.334 17.4146,121.667 17.5,123.5C 18.3151,130.207 19.3151,136.873 20.5,143.5C 16.9943,136.02 15.3277,128.02 15.5,119.5 Z"/></g>
<g><path style="opacity:1" fill="#bdbaba" d="M 152.5,70.5 C 153.814,97.4899 154.814,124.49 155.5,151.5C 155.671,170.343 156.338,189.009 157.5,207.5C 157.5,208.833 157.5,210.167 157.5,211.5C 155.771,212.117 154.271,213.117 153,214.5C 152.83,204.991 152.33,195.658 151.5,186.5C 151.666,181.156 151.499,175.823 151,170.5C 148.793,161.045 144.127,159.378 137,165.5C 135.571,179.441 135.071,193.441 135.5,207.5C 134.88,213.926 135.547,219.926 137.5,225.5C 136.486,226.674 135.153,227.34 133.5,227.5C 132.903,226.861 132.07,226.528 131,226.5C 128.774,227.033 126.607,227.7 124.5,228.5C 124.965,208.099 124.465,187.766 123,167.5C 116.278,160.044 111.278,161.044 108,170.5C 107.502,173.817 107.335,177.15 107.5,180.5C 107.833,196.514 107.499,212.514 106.5,228.5C 103.833,227.5 101.167,226.5 98.5,225.5C 97.8331,220.683 97.1665,216.017 96.5,211.5C 96.6666,197.829 96.4999,184.163 96,170.5C 94.0079,163.922 89.8412,161.755 83.5,164C 82.2986,164.903 81.4652,166.069 81,167.5C 80.5001,183.497 80.3334,199.497 80.5,215.5C 78.6115,214.396 76.9448,213.063 75.5,211.5C 75.5,210.167 75.5,208.833 75.5,207.5C 75.3396,162.162 75.6729,116.828 76.5,71.5C 101.827,70.8078 127.161,70.4745 152.5,70.5 Z"/></g>
<g><path style="opacity:1" fill="#674845" d="M 120.5,132.5 C 117.786,135.934 114.786,136.267 111.5,133.5C 114.545,133.492 117.545,133.159 120.5,132.5 Z"/></g>
<g><path style="opacity:1" fill="#7c6c62" d="M 127.5,128.5 C 126.145,131.518 123.812,132.851 120.5,132.5C 122.566,130.801 124.9,129.468 127.5,128.5 Z"/></g>
<g><path style="opacity:1" fill="#653934" d="M 104.5,129.5 C 107.406,130.108 109.74,131.441 111.5,133.5C 108.669,132.921 106.336,131.588 104.5,129.5 Z"/></g>
<g><path style="opacity:1" fill="#72413e" d="M 135.5,119.5 C 133.57,123.1 130.903,126.1 127.5,128.5C 129.482,124.854 132.149,121.854 135.5,119.5 Z"/></g>
<g><path style="opacity:1" fill="#7d4342" d="M 91.5,111.5 C 94.0527,114.258 95.8861,117.591 97,121.5C 99.3722,123.703 101.539,126.037 103.5,128.5C 96.801,124.779 92.801,119.112 91.5,111.5 Z"/></g>
<g><path style="opacity:1" fill="#de5357" d="M 90.5,108.5 C 96.8333,108.5 103.167,108.5 109.5,108.5C 119.889,107.859 129.889,108.526 139.5,110.5C 139.5,110.833 139.5,111.167 139.5,111.5C 136.942,113.434 135.609,116.101 135.5,119.5C 132.149,121.854 129.482,124.854 127.5,128.5C 124.9,129.468 122.566,130.801 120.5,132.5C 117.545,133.159 114.545,133.492 111.5,133.5C 109.74,131.441 107.406,130.108 104.5,129.5C 103.833,129.5 103.5,129.167 103.5,128.5C 101.539,126.037 99.3722,123.703 97,121.5C 95.8861,117.591 94.0527,114.258 91.5,111.5C 90.596,110.791 90.2627,109.791 90.5,108.5 Z"/></g>
<g><path style="opacity:1" fill="#764345" d="M 139.5,111.5 C 138.674,114.485 137.341,117.151 135.5,119.5C 135.609,116.101 136.942,113.434 139.5,111.5 Z"/></g>
<g><path style="opacity:1" fill="#442923" d="M 127.5,101.5 C 127.5,103.5 127.5,105.5 127.5,107.5C 129.5,107.5 131.5,107.5 133.5,107.5C 133.5,105.833 133.5,104.167 133.5,102.5C 134.451,103.919 134.784,105.585 134.5,107.5C 135.5,107.5 136.5,107.5 137.5,107.5C 137.5,105.5 137.5,103.5 137.5,101.5C 137.972,103.531 138.972,105.198 140.5,106.5C 140.768,108.099 140.434,109.432 139.5,110.5C 129.889,108.526 119.889,107.859 109.5,108.5C 109.5,108.167 109.5,107.833 109.5,107.5C 112.833,107.5 116.167,107.5 119.5,107.5C 121.167,107.5 122.833,107.5 124.5,107.5C 126.06,105.844 127.06,103.844 127.5,101.5 Z"/></g>
<g><path style="opacity:1" fill="#393c41" d="M 126.5,97.5 C 123.408,100.29 122.742,103.624 124.5,107.5C 122.833,107.5 121.167,107.5 119.5,107.5C 118.766,106.292 118.433,104.959 118.5,103.5C 119.859,104.007 120.859,105.007 121.5,106.5C 122.259,103.843 122.926,101.177 123.5,98.5C 124.325,97.6143 125.325,97.281 126.5,97.5 Z"/></g>
<g><path style="opacity:1" fill="#999049" d="M 118.5,80.5 C 120.456,82.032 121.456,84.1986 121.5,87C 121.018,89.9174 120.351,92.7507 119.5,95.5C 119.5,95.8333 119.5,96.1667 119.5,96.5C 118.007,97.3121 117.34,98.6455 117.5,100.5C 117.52,101.726 117.853,102.726 118.5,103.5C 118.433,104.959 118.766,106.292 119.5,107.5C 116.167,107.5 112.833,107.5 109.5,107.5C 109.167,106.5 108.5,105.833 107.5,105.5C 103.688,104.974 100.021,104.307 96.5,103.5C 96.2969,101.956 95.6302,100.622 94.5,99.5C 95.9905,98.7564 97.4905,98.0897 99,97.5C 99.5281,96.184 99.0281,95.5173 97.5,95.5C 97.5603,92.979 96.8936,90.6457 95.5,88.5C 95.8178,87.3527 96.4844,86.5194 97.5,86C 96.1175,84.5391 96.4508,83.7058 98.5,83.5C 99.2899,84.7942 100.29,85.9609 101.5,87C 100.084,88.9151 100.418,90.4151 102.5,91.5C 104.515,92.9238 106.848,93.5905 109.5,93.5C 110.5,93.5 111.5,93.5 112.5,93.5C 112.784,91.5853 112.451,89.9187 111.5,88.5C 110.521,86.8546 109.188,85.5213 107.5,84.5C 107.624,83.8933 107.957,83.56 108.5,83.5C 109.822,83.67 110.989,83.3366 112,82.5C 113.516,85.0515 114.349,84.7181 114.5,81.5C 116.099,81.7678 117.432,81.4345 118.5,80.5 Z"/></g>
<g><path style="opacity:1" fill="#4b5685" d="M 93.5,101.5 C 94.5,102.167 95.5,102.833 96.5,103.5C 100.021,104.307 103.688,104.974 107.5,105.5C 105.257,106.812 102.59,107.478 99.5,107.5C 96.8333,107.167 94.1667,106.833 91.5,106.5C 90.6906,104.929 90.3573,103.262 90.5,101.5C 91.5,101.5 92.5,101.5 93.5,101.5 Z"/></g>
<g><path style="opacity:1" fill="#413c32" d="M 119.5,96.5 C 118.781,98.7638 118.448,101.097 118.5,103.5C 117.853,102.726 117.52,101.726 117.5,100.5C 117.34,98.6455 118.007,97.3121 119.5,96.5 Z"/></g>
<g><path style="opacity:1" fill="#39324b" d="M 89.5,79.5 C 89.5,85.5 89.5,91.5 89.5,97.5C 92.0048,96.5829 94.3382,96.5829 96.5,97.5C 95.5,97.5 94.5,97.5 93.5,97.5C 93.5,98.8333 93.5,100.167 93.5,101.5C 92.5,101.5 91.5,101.5 90.5,101.5C 90.3573,103.262 90.6906,104.929 91.5,106.5C 94.1667,106.833 96.8333,107.167 99.5,107.5C 102.59,107.478 105.257,106.812 107.5,105.5C 108.5,105.833 109.167,106.5 109.5,107.5C 109.5,107.833 109.5,108.167 109.5,108.5C 103.167,108.5 96.8333,108.5 90.5,108.5C 90.0104,105.345 89.3438,102.345 88.5,99.5C 88.1673,92.0745 88.5006,85.4078 89.5,79.5 Z"/></g>
<g><path style="opacity:1" fill="#5c5946" d="M 97.5,95.5 C 99.0281,95.5173 99.5281,96.184 99,97.5C 97.4905,98.0897 95.9905,98.7564 94.5,99.5C 95.6302,100.622 96.2969,101.956 96.5,103.5C 95.5,102.833 94.5,102.167 93.5,101.5C 93.5,100.167 93.5,98.8333 93.5,97.5C 94.5,97.5 95.5,97.5 96.5,97.5C 97.3382,97.1583 97.6716,96.4916 97.5,95.5 Z"/></g>
<g><path style="opacity:1" fill="#9a9354" d="M 134.5,93.5 C 133.522,93.811 132.855,94.4777 132.5,95.5C 134.19,97.5193 135.856,99.5193 137.5,101.5C 137.5,103.5 137.5,105.5 137.5,107.5C 136.5,107.5 135.5,107.5 134.5,107.5C 134.784,105.585 134.451,103.919 133.5,102.5C 132.588,98.531 130.921,97.8643 128.5,100.5C 127.833,100.5 127.5,100.833 127.5,101.5C 127.06,103.844 126.06,105.844 124.5,107.5C 122.742,103.624 123.408,100.29 126.5,97.5C 127.267,96.828 127.934,95.9947 128.5,95C 126.937,94.2411 125.937,93.0744 125.5,91.5C 125.5,90.1667 125.5,88.8333 125.5,87.5C 126.833,87.5 128.167,87.5 129.5,87.5C 129.238,88.9778 129.571,90.3112 130.5,91.5C 132.349,90.407 134.016,89.0737 135.5,87.5C 136.77,89.7568 136.436,91.7568 134.5,93.5 Z"/></g>
<g><path style="opacity:1" fill="#4a5990" d="M 128.5,100.5 C 130.514,100.392 132.18,101.058 133.5,102.5C 133.5,104.167 133.5,105.833 133.5,107.5C 131.5,107.5 129.5,107.5 127.5,107.5C 127.5,105.5 127.5,103.5 127.5,101.5C 127.5,100.833 127.833,100.5 128.5,100.5 Z"/></g>
<g><path style="opacity:1" fill="#423a45" d="M 133.5,102.5 C 132.18,101.058 130.514,100.392 128.5,100.5C 130.921,97.8643 132.588,98.531 133.5,102.5 Z"/></g>
<g><path style="opacity:1" fill="#495285" d="M 125.5,91.5 C 125.937,93.0744 126.937,94.2411 128.5,95C 127.934,95.9947 127.267,96.828 126.5,97.5C 125.325,97.281 124.325,97.6143 123.5,98.5C 122.926,101.177 122.259,103.843 121.5,106.5C 120.859,105.007 119.859,104.007 118.5,103.5C 118.448,101.097 118.781,98.7638 119.5,96.5C 119.5,96.1667 119.5,95.8333 119.5,95.5C 120.5,95.5 121.5,95.5 122.5,95.5C 122.215,93.712 122.548,92.0453 123.5,90.5C 124.183,90.8627 124.85,91.1961 125.5,91.5 Z"/></g>
<g><path style="opacity:1" fill="#424f7a" d="M 140.5,78.5 C 141.491,84.979 141.824,91.6457 141.5,98.5C 141.721,101.279 141.388,103.946 140.5,106.5C 138.972,105.198 137.972,103.531 137.5,101.5C 135.856,99.5193 134.19,97.5193 132.5,95.5C 132.855,94.4777 133.522,93.811 134.5,93.5C 135.496,93.5858 136.329,93.2524 137,92.5C 137.497,90.1902 137.663,87.8568 137.5,85.5C 138.166,88.0277 138.832,90.6944 139.5,93.5C 140.494,88.544 140.827,83.544 140.5,78.5 Z"/></g>
<g><path style="opacity:1" fill="#58525f" d="M 141.5,98.5 C 141.824,91.6457 141.491,84.979 140.5,78.5C 123.479,78.256 106.479,78.5894 89.5,79.5C 88.5006,85.4078 88.1673,92.0745 88.5,99.5C 87.5084,92.3524 87.175,85.0191 87.5,77.5C 105.833,77.5 124.167,77.5 142.5,77.5C 142.825,84.6866 142.491,91.6866 141.5,98.5 Z"/></g>
<g><path style="opacity:1" fill="#3b3643" d="M 98.5,83.5 C 96.4508,83.7058 96.1175,84.5391 97.5,86C 96.4844,86.5194 95.8178,87.3527 95.5,88.5C 96.8936,90.6457 97.5603,92.979 97.5,95.5C 94.5834,93.9645 93.2501,91.4645 93.5,88C 93.3979,83.9099 95.0645,82.4099 98.5,83.5 Z"/></g>
<g><path style="opacity:1" fill="#3f4a5a" d="M 118.5,80.5 C 119.568,79.5655 120.901,79.2322 122.5,79.5C 122.125,82.3965 122.625,85.0632 124,87.5C 125.47,81.9469 127.97,81.2802 131.5,85.5C 133.765,82.9325 135.765,82.9325 137.5,85.5C 137.663,87.8568 137.497,90.1902 137,92.5C 136.329,93.2524 135.496,93.5858 134.5,93.5C 136.436,91.7568 136.77,89.7568 135.5,87.5C 134.016,89.0737 132.349,90.407 130.5,91.5C 129.571,90.3112 129.238,88.9778 129.5,87.5C 128.167,87.5 126.833,87.5 125.5,87.5C 125.5,88.8333 125.5,90.1667 125.5,91.5C 124.85,91.1961 124.183,90.8627 123.5,90.5C 122.548,92.0453 122.215,93.712 122.5,95.5C 121.5,95.5 120.5,95.5 119.5,95.5C 120.351,92.7507 121.018,89.9174 121.5,87C 121.456,84.1986 120.456,82.032 118.5,80.5 Z"/></g>
<g><path style="opacity:1" fill="#495b99" d="M 140.5,78.5 C 140.827,83.544 140.494,88.544 139.5,93.5C 138.832,90.6944 138.166,88.0277 137.5,85.5C 135.765,82.9325 133.765,82.9325 131.5,85.5C 127.97,81.2802 125.47,81.9469 124,87.5C 122.625,85.0632 122.125,82.3965 122.5,79.5C 120.901,79.2322 119.568,79.5655 118.5,80.5C 115.615,80.1936 112.948,80.5269 110.5,81.5C 106.747,83.1392 102.747,83.8059 98.5,83.5C 95.0645,82.4099 93.3979,83.9099 93.5,88C 93.2501,91.4645 94.5834,93.9645 97.5,95.5C 97.6716,96.4916 97.3382,97.1583 96.5,97.5C 94.3382,96.5829 92.0048,96.5829 89.5,97.5C 89.5,91.5 89.5,85.5 89.5,79.5C 106.479,78.5894 123.479,78.256 140.5,78.5 Z"/></g>
<g><path style="opacity:1" fill="#47538c" d="M 107.5,89.5 C 108.6,90.6049 109.267,91.9382 109.5,93.5C 106.848,93.5905 104.515,92.9238 102.5,91.5C 102.5,90.1667 102.5,88.8333 102.5,87.5C 104.322,87.8308 105.989,88.4975 107.5,89.5 Z"/></g>
<g><path style="opacity:1" fill="#655d3d" d="M 111.5,88.5 C 112.451,89.9187 112.784,91.5853 112.5,93.5C 111.5,93.5 110.5,93.5 109.5,93.5C 109.267,91.9382 108.6,90.6049 107.5,89.5C 108.568,88.5655 109.901,88.2322 111.5,88.5 Z"/></g>
<g><path style="opacity:1" fill="#3e3031" d="M 110.5,81.5 C 109.833,82.1667 109.167,82.8333 108.5,83.5C 107.957,83.56 107.624,83.8933 107.5,84.5C 109.188,85.5213 110.521,86.8546 111.5,88.5C 109.901,88.2322 108.568,88.5655 107.5,89.5C 105.989,88.4975 104.322,87.8308 102.5,87.5C 102.5,88.8333 102.5,90.1667 102.5,91.5C 100.418,90.4151 100.084,88.9151 101.5,87C 100.29,85.9609 99.2899,84.7942 98.5,83.5C 102.747,83.8059 106.747,83.1392 110.5,81.5 Z"/></g>
<g><path style="opacity:1" fill="#615d31" d="M 118.5,80.5 C 117.432,81.4345 116.099,81.7678 114.5,81.5C 114.349,84.7181 113.516,85.0515 112,82.5C 110.989,83.3366 109.822,83.67 108.5,83.5C 109.167,82.8333 109.833,82.1667 110.5,81.5C 112.948,80.5269 115.615,80.1936 118.5,80.5 Z"/></g>
<g><path style="opacity:1" fill="#434e73" d="M 20.5,143.5 C 21.5,143.5 22.5,143.5 23.5,143.5C 23.6663,146.168 24.6663,148.502 26.5,150.5C 25.4798,152.432 25.3131,154.432 26,156.5C 28.8541,160.512 31.0208,164.845 32.5,169.5C 33.6283,170.262 34.7949,170.929 36,171.5C 36.6377,174.764 37.8043,177.764 39.5,180.5C 36.8852,178.621 34.7186,176.288 33,173.5C 27.437,164.046 23.2703,154.046 20.5,143.5 Z"/></g>
<g><path style="opacity:1" fill="#464e6e" d="M 206.5,153.5 C 201.658,168.531 193.325,181.198 181.5,191.5C 186.198,185.952 190.364,179.952 194,173.5C 194.333,173.833 194.667,174.167 195,174.5C 197.994,168.841 200.994,163.174 204,157.5C 204.333,155.833 204.667,154.167 205,152.5C 206.107,151.288 206.607,151.621 206.5,153.5 Z"/></g>
<g><path style="opacity:1" fill="#505d92" d="M 73.5,151.5 C 73.9025,170.335 74.5692,189.001 75.5,207.5C 75.5,208.833 75.5,210.167 75.5,211.5C 74.609,210.89 73.609,210.557 72.5,210.5C 71.5,210.167 70.8333,209.5 70.5,208.5C 70.5,208.167 70.5,207.833 70.5,207.5C 72.1627,189.022 73.1627,170.356 73.5,151.5 Z"/></g>
<g><path style="opacity:1" fill="#171619" d="M 151.5,186.5 C 151.5,196.167 151.5,205.833 151.5,215.5C 147.529,214.796 146.195,216.129 147.5,219.5C 144.446,221.694 141.112,223.361 137.5,224.5C 136.833,218.833 136.167,213.167 135.5,207.5C 135.071,193.441 135.571,179.441 137,165.5C 144.127,159.378 148.793,161.045 151,170.5C 151.499,175.823 151.666,181.156 151.5,186.5 Z"/></g>
<g><path style="opacity:1" fill="#161417" d="M 96.5,211.5 C 97.0969,216.294 96.4302,220.627 94.5,224.5C 89.6714,222.922 85.3381,220.588 81.5,217.5C 81.1667,216.833 80.8333,216.167 80.5,215.5C 80.3334,199.497 80.5001,183.497 81,167.5C 81.4652,166.069 82.2986,164.903 83.5,164C 89.8412,161.755 94.0079,163.922 96,170.5C 96.4999,184.163 96.6666,197.829 96.5,211.5 Z"/></g>
<g><path style="opacity:1" fill="#2e394d" d="M 155.5,151.5 C 155.833,151.5 156.167,151.5 156.5,151.5C 157.497,169.993 157.83,188.659 157.5,207.5C 156.338,189.009 155.671,170.343 155.5,151.5 Z"/></g>
<g><path style="opacity:1" fill="#465173" d="M 41.5,183.5 C 44.089,185.577 47.089,186.91 50.5,187.5C 51.5548,190.178 52.8882,192.678 54.5,195C 59.4875,199.846 64.8209,204.013 70.5,207.5C 70.5,207.833 70.5,208.167 70.5,208.5C 69.448,208.649 68.448,208.483 67.5,208C 62.4566,203.288 57.1233,198.955 51.5,195C 47.5842,191.59 44.2508,187.757 41.5,183.5 Z"/></g>
<g><path style="opacity:1" fill="#1a181b" d="M 124.5,228.5 C 124.167,229.167 123.833,229.833 123.5,230.5C 118.911,233.149 114.245,233.149 109.5,230.5C 109.611,229.883 109.944,229.383 110.5,229C 108.849,212.898 107.849,196.731 107.5,180.5C 107.335,177.15 107.502,173.817 108,170.5C 111.278,161.044 116.278,160.044 123,167.5C 124.465,187.766 124.965,208.099 124.5,228.5 Z"/></g>
<g><path style="opacity:1" fill="#444c6e" d="M 172.5,199.5 C 168.128,203.874 163.461,207.874 158.5,211.5C 158.167,211.5 157.833,211.5 157.5,211.5C 157.5,210.167 157.5,208.833 157.5,207.5C 158.833,207.5 160.167,207.5 161.5,207.5C 161.33,206.178 161.663,205.011 162.5,204C 166.262,203.283 169.596,201.783 172.5,199.5 Z"/></g>
<g><path style="opacity:1" fill="#5b5955" d="M 72.5,210.5 C 73.609,210.557 74.609,210.89 75.5,211.5C 76.9448,213.063 78.6115,214.396 80.5,215.5C 80.8333,216.167 81.1667,216.833 81.5,217.5C 77.9485,215.889 74.9485,213.556 72.5,210.5 Z"/></g>
<g><path style="opacity:1" fill="#555355" d="M 135.5,207.5 C 136.167,213.167 136.833,218.833 137.5,224.5C 137.5,224.833 137.5,225.167 137.5,225.5C 135.547,219.926 134.88,213.926 135.5,207.5 Z"/></g>
<g><path style="opacity:1" fill="#464246" d="M 151.5,186.5 C 152.33,195.658 152.83,204.991 153,214.5C 154.271,213.117 155.771,212.117 157.5,211.5C 157.833,211.5 158.167,211.5 158.5,211.5C 155.403,214.888 151.736,217.555 147.5,219.5C 146.195,216.129 147.529,214.796 151.5,215.5C 151.5,205.833 151.5,196.167 151.5,186.5 Z"/></g>
<g><path style="opacity:1" fill="#6c696a" d="M 107.5,180.5 C 107.849,196.731 108.849,212.898 110.5,229C 109.944,229.383 109.611,229.883 109.5,230.5C 103.882,229.731 98.8819,227.731 94.5,224.5C 96.4302,220.627 97.0969,216.294 96.5,211.5C 97.1665,216.017 97.8331,220.683 98.5,225.5C 101.167,226.5 103.833,227.5 106.5,228.5C 107.499,212.514 107.833,196.514 107.5,180.5 Z"/></g>
<g><path style="opacity:1" fill="#5b5859" d="M 133.5,227.5 C 130.167,228.5 126.833,229.5 123.5,230.5C 123.833,229.833 124.167,229.167 124.5,228.5C 126.607,227.7 128.774,227.033 131,226.5C 132.07,226.528 132.903,226.861 133.5,227.5 Z"/></g>
</svg>
