<svg xmlns="http://www.w3.org/2000/svg" width="221" height="234" style="shape-rendering:geometricPrecision;text-rendering:geometricPrecision;image-rendering:optimizeQuality;fill-rule:evenodd;clip-rule:evenodd"><path style="opacity:1" fill="#fcfcfa" d="M-.5-.5h221v234h-94c-.381-1.431-1.381-2.264-3-2.5 4.635-1.856 6.302-5.356 5-10.5a248.252 248.252 0 0 0 28-18.5c.752-.671 1.086-1.504 1-2.5 6.898-4.226 12.898-9.559 18-16 2.971-1.943 4.971-4.609 6-8 1.174-1.014 1.84-2.347 2-4 1.37-.356 2.37-1.19 3-2.5a406.17 406.17 0 0 0 8-17.5c2.039-1.411 3.039-3.411 3-6 1.508-1.681 2.508-3.681 3-6 3.491-6.135 5.825-12.802 7-20 1.738-4.717 2.404-9.717 2-15a2256.407 2256.407 0 0 0 1-95c-67.174-.31-134.174.357-201 2v44a678.992 678.992 0 0 1-3 32c-.68-8.225-1.347-16.391-2-24.5 3.949-.807 3.949-1.307 0-1.5v-6h3a208.74 208.74 0 0 0-1-40h-3a163.134 163.134 0 0 1-4 16v-32z"/><path style="opacity:1" fill="#5f544c" d="M209.5 104.5c.332-31.504-.002-62.838-1-94-59.002.044-118.002.378-177 1h-22a6887.152 6887.152 0 0 1 201-2c.332 31.838-.002 63.504-1 95z"/><path style="opacity:1" fill="#524b2d" d="M9.5 11.5h22c-5.475.989-11.142 1.322-17 1h-3l-2 27v-28z"/><path style="opacity:1" fill="#a2934a" d="M82.5 35.5a57.74 57.74 0 0 1 2.5 8c.377 1.442 1.21 2.442 2.5 3 .28 2.618.946 5.118 2 7.5-1.45-.263-2.784-.096-4 .5a64.632 64.632 0 0 0 2 7c-.172.992.162 1.658 1 2 .086 2.177.753 4.177 2 6l-2 2c1.674 7.46 3.341 14.794 5 22-.284 1.915.049 3.581 1 5v5a209.466 209.466 0 0 0-4.5-13c-.17 6.36-.67 12.693-1.5 19a30.968 30.968 0 0 0-2-2c.328-10.846-.006-21.513-1-32-1.315-2.476-2.482-2.142-3.5 1-.212-2.28-1.045-4.28-2.5-6 1.308-5.796 1.308-11.463 0-17 .16-1.7-.007-3.366-.5-5-.853 1.625-1.853 1.958-3 1a144.64 144.64 0 0 0-2-22l-1-1a47.035 47.035 0 0 0-3.5 5.5 4.932 4.932 0 0 1-3 .5c-.206 6.896.461 13.563 2 20a75.416 75.416 0 0 1-1 16c-1.406-.473-2.073-1.473-2-3-.582-1.431-1.415-2.764-2.5-4l-1-18-1-2c-.422 1.926-1.59 2.926-3.5 3-.8-1.542-1.134-3.209-1-5h-4a15.42 15.42 0 0 0 1 7c-.457.797-1.124 1.13-2 1-.072-3.053-1.072-5.72-3-8 2.326-1.83 4.993-3.163 8-4 2.05.577 3.05 1.91 3 4 1.7.16 3.366-.007 5-.5-.88-1.356-1.214-2.856-1-4.5a9.864 9.864 0 0 1-6-1c2.368-2.514 4.701-2.514 7 0 2.482-2.22 4.148-4.887 5-8 1.175.219 2.175-.114 3-1a9.106 9.106 0 0 1-1-5c3.736-.16 3.736-.993 0-2.5.608-.87 1.441-1.37 2.5-1.5 2.935 1.692 6.102 2.358 9.5 2a9.864 9.864 0 0 1-1 6c-2.815-2.197-5.149-1.53-7 2a7.3 7.3 0 0 1 2 3.5 36.248 36.248 0 0 0-.5 13.5l1-3c.31 1.266.81 2.433 1.5 3.5-1.92 1.24-2.254 2.74-1 4.5l2-2a625.46 625.46 0 0 1 2-10z"/><path style="opacity:1" fill="#a49844" d="M208.5 10.5c.167 25.336 0 50.669-.5 76a813.178 813.178 0 0 0-2.5-33c-.507-1.359-1.507-2.359-3-3a92.543 92.543 0 0 0-3-9 12.409 12.409 0 0 0-2.5 4c-.808 3.527-.641 6.86.5 10h1a403.101 403.101 0 0 0-1.5 20 48.195 48.195 0 0 0-2.5-5c-.886.825-1.219 1.825-1 3-1.431-.38-2.264-1.38-2.5-3a103.08 103.08 0 0 1 .5-23c1.157-5.444.323-10.778-2.5-16a10.136 10.136 0 0 0-1.5 4c-1.704 3.438-3.038 7.105-4 11h-3v4a67.214 67.214 0 0 0 1 15c.047 1.5-.619 2.5-2 3a31.117 31.117 0 0 0-1 11c-1.807-1.336-3.307-3.003-4.5-5a436.58 436.58 0 0 1-1.5-11c3.79.547 5.79-1.12 6-5-1.289-.332-2.955-.666-5-1a25.878 25.878 0 0 0-1-10 44.043 44.043 0 0 0-2-1c.172-.992-.162-1.658-1-2 .285-1.788-.048-3.455-1-5-.648 1.65-1.648 2.983-3 4-.868-7.053-2.868-13.72-6-20-.311-.978-.978-1.645-2-2a9.86 9.86 0 0 0-1 6l-6-2a46.864 46.864 0 0 1-2 9h-3a53.646 53.646 0 0 0 2-7l-1-4a46.54 46.54 0 0 0-5.5 11 4.934 4.934 0 0 1-.5-3c-5.048 1.03-10.048 1.197-15 .5.935 2.38 1.268 4.88 1 7.5h3c.667-5.333 1.333-5.333 2 0-.973 2.448-1.306 5.115-1 8h-4c-.342-.838-1.008-1.172-2-1a191.886 191.886 0 0 0-3-23c-2.07-.051-3.903.615-5.5 2-2.196-1.252-4.196-.92-6 1-3.545-2.212-6.379-5.045-8.5-8.5-1.667-.667-3.333-.667-5 0a19.16 19.16 0 0 1-5 2.5 30.943 30.943 0 0 1-2-2c-1.683 3.102-2.35 6.436-2 10v1a168.86 168.86 0 0 0-2 6c-1.187-1.153-2.187-1.153-3 0a625.46 625.46 0 0 0-2 10l-2 2c-1.254-1.76-.92-3.26 1-4.5a11.362 11.362 0 0 1-1.5-3.5l-1 3a36.248 36.248 0 0 1 .5-13.5 7.3 7.3 0 0 0-2-3.5c1.851-3.53 4.185-4.197 7-2a9.864 9.864 0 0 0 1-6c-3.398.358-6.565-.308-9.5-2-1.059.13-1.892.63-2.5 1.5 3.736 1.507 3.736 2.34 0 2.5a9.106 9.106 0 0 0 1 5c-.825.886-1.825 1.219-3 1-.852 3.113-2.518 5.78-5 8-2.299-2.514-4.632-2.514-7 0a9.864 9.864 0 0 0 6 1c-.214 1.644.12 3.144 1 4.5-1.634.493-3.3.66-5 .5.05-2.09-.95-3.423-3-4-3.007.837-5.674 2.17-8 4-.617.11-1.117.444-1.5 1a24.939 24.939 0 0 0-.5 7c.166 4.678 0 9.345-.5 14a33.225 33.225 0 0 1-3.5-6l-1 1.5c1.513 1.88 2.18 4.046 2 6.5-1.83-.552-3.497-.552-5 0a174.74 174.74 0 0 1-3-8.5 24.963 24.963 0 0 0 2-7.5c1.175.219 2.175-.114 3-1a38.43 38.43 0 0 1-6.5-5c-1.009-1.525-1.509-3.192-1.5-5h-3v3c-.978.311-1.645.978-2 2 1.307 1.365 1.307 2.698 0 4-1.266.59-2.6 1.09-4 1.5.976 2.147.809 4.314-.5 6.5a28.83 28.83 0 0 0-1.5-4c-.756-1.273-1.423-1.273-2 0a85.398 85.398 0 0 1-2 8c-.722.417-1.222 1.084-1.5 2-1-1.333-2-1.333-3 0a966.93 966.93 0 0 1 1.5-47c5.858.322 11.525-.011 17-1 58.998-.622 117.998-.956 177-1z"/><path style="opacity:1" fill="#5a3816" d="M91.5 20.5v3a44.358 44.358 0 0 1-2-1 168.86 168.86 0 0 1-2 6c-.35-3.564.317-6.898 2-10 .682.743 1.349 1.41 2 2z"/><path style="opacity:1" fill="#783723" d="M159.5 23.5c3.132 6.28 5.132 12.947 6 20 1.352-1.017 2.352-2.35 3-4 .952 1.545 1.285 3.212 1 5l-7 2c.695-7.062-.471-13.729-3.5-20a42.758 42.758 0 0 1-1.5 9c-.929-1.189-1.262-2.522-1-4 .402-2.977 1.402-5.643 3-8z"/><path style="opacity:1" fill="#7c4d30" d="m101.5 37.5-2 7a460.602 460.602 0 0 1-6-21c-.085-1.495.582-2.495 2-3a201.765 201.765 0 0 1 3 16c1.291-.237 2.291.096 3 1z"/><path style="opacity:1" fill="#a29448" d="M124.5 46.5c-.255 2.516-1.089 4.85-2.5 7l-1.5-3c1.85-4.726 2.183-9.393 1-14a47.21 47.21 0 0 0-1.5-12 18.915 18.915 0 0 1-3 5c-.708-.88-1.542-1.547-2.5-2h-1c-.06-.543-.393-.876-1-1-1.288 1.799-1.288 3.465 0 5h1c.741 5.97 1.075 11.97 1 18-1.291-2.449-2.291-5.116-3-8-1.194-1.17-1.861-.837-2 1-2.513 3.878-3.846 8.211-4 13v1l-3 6c.285-1.788-.048-3.455-1-5-1.109 1.09-2.109 1.09-3 0a62.596 62.596 0 0 0 3-20c-.709-.904-1.709-1.237-3-1a201.765 201.765 0 0 0-3-16c-1.418.505-2.085 1.505-2 3h-2v-3a19.16 19.16 0 0 0 5-2.5c1.667-.667 3.333-.667 5 0 2.121 3.455 4.955 6.288 8.5 8.5 1.804-1.92 3.804-2.252 6-1 1.597-1.385 3.43-2.051 5.5-2a191.886 191.886 0 0 1 3 23z"/><path style="opacity:1" fill="#79604b" d="m113.5 27.5-1 4c-1.288-1.535-1.288-3.201 0-5 .607.124.94.457 1 1z"/><path style="opacity:1" fill="#874437" d="M121.5 36.5c.302 2.56-.032 4.893-1 7a54.965 54.965 0 0 0-1-12c-3.046.317-4.713-1.016-5-4 .958.453 1.792 1.12 2.5 2a18.915 18.915 0 0 0 3-5 47.21 47.21 0 0 1 1.5 12z"/><path style="opacity:1" fill="#a29346" d="M159.5 23.5c-1.598 2.357-2.598 5.023-3 8h-1c-.287-1.62-1.287-2.62-3-3l-1 1.5c.423 3.478 1.423 6.644 3 9.5-.389 3.053.277 5.72 2 8 2.713 5.102 3.713 10.435 3 16a31.12 31.12 0 0 1-2-2 407.702 407.702 0 0 1-4 7 158.546 158.546 0 0 0-5-19c-.838-.342-1.172-1.008-1-2 .085-1.495-.581-2.495-2-3a34.25 34.25 0 0 0-1.5 8 34.112 34.112 0 0 0-3-6c-.728-2.73-.562-5.397.5-8-1.829-.782-3.329-.116-4.5 2-.383-.556-.883-.89-1.5-1-1.333-2.667-2.667-2.667-4 0-.667-5.333-1.333-5.333-2 0h-3c.268-2.62-.065-5.12-1-7.5 4.952.697 9.952.53 15-.5a4.934 4.934 0 0 0 .5 3 46.54 46.54 0 0 1 5.5-11l1 4a53.646 53.646 0 0 1-2 7h3a46.864 46.864 0 0 0 2-9l6 2a9.86 9.86 0 0 1 1-6c1.022.355 1.689 1.022 2 2z"/><path style="opacity:1" fill="#6c492a" d="M155.5 31.5c-1.149.291-1.816 1.124-2 2.5a47.51 47.51 0 0 1 1 5.5c-1.577-2.856-2.577-6.022-3-9.5l1-1.5c1.713.38 2.713 1.38 3 3z"/><path style="opacity:1" fill="#da5455" d="M113.5 27.5h1c.287 2.984 1.954 4.317 5 4a54.965 54.965 0 0 1 1 12c.284 1.915-.049 3.581-1 5-.809 1.792-1.309 3.792-1.5 6l-1-1c-.173-5.848-.673-11.515-1.5-17a26.332 26.332 0 0 0-2-5h-1l1-4z"/><path style="opacity:1" fill="#6b3b1e" d="M87.5 29.5v8a4.932 4.932 0 0 0-3 .5c.93 2.907 1.93 5.74 3 8.5-1.29-.558-2.123-1.558-2.5-3a57.74 57.74 0 0 0-2.5-8c.813-1.153 1.813-1.153 3 0a168.86 168.86 0 0 1 2-6z"/><path style="opacity:1" fill="#6a3b1c" d="M191.5 47.5a18.452 18.452 0 0 0-.5-6c-.739-2.389-1.905-4.389-3.5-6a10.136 10.136 0 0 1 1.5-4c2.823 5.222 3.657 10.556 2.5 16z"/><path style="opacity:1" fill="#68613d" d="M11.5 12.5v93a3162.066 3162.066 0 0 1-2-50v-16l2-27z"/><path style="opacity:1" fill="#5f3716" d="M48.5 39.5c1.928 2.28 2.928 4.947 3 8-1.443-.835-2.443-2.168-3-4-.929 1.189-1.262 2.522-1 4h-1c-.163-2.357.003-4.69.5-7 .383-.556.883-.89 1.5-1z"/><path style="opacity:1" fill="#723b1b" d="M187.5 35.5c.222 4.342-1.111 8.01-4 11 .962-3.895 2.296-7.562 4-11z"/><path style="opacity:1" fill="#572c16" d="M101.5 37.5a62.596 62.596 0 0 1-3 20c.891 1.09 1.891 1.09 3 0 .952 1.545 1.285 3.212 1 5v4a87.188 87.188 0 0 1-2 8c1.082.249 2.415.415 4 .5a36.287 36.287 0 0 1-2 4.5v-3h-3c.423-4.196 1.09-8.363 2-12.5l-1-3.5c-1.962 1.354-2.962.687-3-2a51.438 51.438 0 0 0 2-14l2-7z"/><path style="opacity:1" fill="#603521" d="M154.5 39.5c1.723 2.28 2.389 4.947 2 8-1.723-2.28-2.389-4.947-2-8z"/><path style="opacity:1" fill="#5d3515" d="M65.5 65.5h-2c-.283-.79-.783-1.456-1.5-2l-1-19a32.034 32.034 0 0 0-2.5 4c-.929-1.189-1.262-2.522-1-4 1.91-.074 3.078-1.074 3.5-3l1 2 1 18c1.085 1.236 1.918 2.569 2.5 4z"/><path style="opacity:1" fill="#62341d" d="M29.5 39.5a102.873 102.873 0 0 1-2 14c-1.447-.634-2.113-1.8-2-3.5a31.501 31.501 0 0 1 2-4.5c1.307-1.302 1.307-2.635 0-4 .355-1.022 1.022-1.689 2-2z"/><path style="opacity:1" fill="#612a19" d="M79.5 53.5c-2.412.363-3.912-.637-4.5-3a180.95 180.95 0 0 1-.5-19c-2.473.236-4.14 1.57-5 4a3.646 3.646 0 0 1-1.5-1 161.566 161.566 0 0 0 .5 18c-1.539-6.437-2.206-13.104-2-20a4.932 4.932 0 0 0 3-.5 47.035 47.035 0 0 1 3.5-5.5l1 1a144.64 144.64 0 0 1 2 22c1.147.958 2.147.625 3-1 .493 1.634.66 3.3.5 5z"/><path style="opacity:1" fill="#76482b" d="M57.5 44.5c-1.835-.622-3.002-1.956-3.5-4a596.987 596.987 0 0 0 2.5 20h-4c-.087-4.357-.42-8.69-1-13 .876.13 1.543-.203 2-1a15.42 15.42 0 0 1-1-7h4c-.134 1.791.2 3.458 1 5z"/><path style="opacity:1" fill="#455b23" d="M109.5 42.5c.019 4.97-1.314 9.303-4 13 .154-4.789 1.487-9.122 4-13z"/><path style="opacity:1" fill="#683f22" d="M147.5 47.5c-.819 2.805-1.319 5.805-1.5 9a9.465 9.465 0 0 0-2.5-1.5c-2.155-5.572-4.822-10.739-8-15.5.617.11 1.117.444 1.5 1 1.171-2.116 2.671-2.782 4.5-2-1.062 2.603-1.228 5.27-.5 8a34.112 34.112 0 0 1 3 6 34.25 34.25 0 0 1 1.5-8c1.419.505 2.085 1.505 2 3z"/><path style="opacity:1" fill="#c65859" d="M51.5 47.5c.58 4.31.913 8.643 1 13-.472-2.031-1.472-3.698-3-5-.302-2.873-.969-5.54-2-8-.262-1.478.071-2.811 1-4 .557 1.832 1.557 3.165 3 4z"/><path style="opacity:1" fill="#3f5920" d="M114.5 49.5c.067 1.459-.266 2.792-1 4-1.132-3.128-1.965-6.462-2.5-10-.383-.556-.883-.89-1.5-1 .139-1.837.806-2.17 2-1 .709 2.884 1.709 5.551 3 8z"/><path style="opacity:1" fill="#5e3617" d="M113.5 31.5a26.332 26.332 0 0 1 2 5 196.332 196.332 0 0 0 1 24c-1.565-2.01-2.565-4.343-3-7 .734-1.208 1.067-2.541 1-4 .075-6.03-.259-12.03-1-18z"/><path style="opacity:1" fill="#a49951" d="M11.5 12.5h3a966.93 966.93 0 0 0-1.5 47c1-1.333 2-1.333 3 0 .278-.916.778-1.583 1.5-2a58.727 58.727 0 0 1-2 10.5c.069 1.986.735 3.486 2 4.5v1c-.17 1.322.163 2.489 1 3.5-1.786.196-3.12 1.03-4 2.5 2.11 5.32 3.776 10.654 5 16 .423.765.757 1.598 1 2.5a80.25 80.25 0 0 0-2 9.5c-2.054 2.508-3.054 5.508-3 9h3v3h-4c.237-1.291-.096-2.291-1-3 .58-4.149-.086-7.816-2-11v-93z"/><path style="opacity:1" fill="#af4742" d="M115.5 36.5c.827 5.485 1.327 11.152 1.5 17l1 1c.191-2.208.691-4.208 1.5-6a18.452 18.452 0 0 0 .5 6c.671.752 1.504 1.086 2.5 1-.399 3.47-1.899 3.804-4.5 1l-.5 1.5a41.29 41.29 0 0 1 3 13.5h-1a103.732 103.732 0 0 1-3-11 196.332 196.332 0 0 1-1-24z"/><path style="opacity:1" fill="#60371a" d="M121.5 36.5c1.183 4.607.85 9.274-1 14l1.5 3c1.411-2.15 2.245-4.484 2.5-7 .992-.172 1.658.162 2 1 .621 6.919.621 13.919 0 21 .268 1.599-.066 2.932-1 4v-16c.747-7.268-.253-7.601-3-1-.996.086-1.829-.248-2.5-1a18.452 18.452 0 0 1-.5-6c.951-1.419 1.284-3.085 1-5 .968-2.107 1.302-4.44 1-7z"/><path style="opacity:1" fill="#5b2a14" d="M148.5 49.5a158.546 158.546 0 0 1 5 19c-.617-.11-1.117-.444-1.5-1a171.58 171.58 0 0 1-3.5-18z"/><path style="opacity:1" fill="#642e0f" d="M33.5 44.5c.934 1.273 1.601 2.773 2 4.5-1.223 4.497-1.223 8.997 0 13.5-.722-.417-1.222-1.084-1.5-2-.5-5.323-.666-10.656-.5-16z"/><path style="opacity:1" fill="#5b3915" d="M87.5 46.5c1.15.291 1.816 1.124 2 2.5a29.51 29.51 0 0 1 1 6.5h-3v6a64.632 64.632 0 0 1-2-7c1.216-.596 2.55-.763 4-.5a24.963 24.963 0 0 1-2-7.5z"/><path style="opacity:1" fill="#d75052" d="M91.5 23.5h2a460.602 460.602 0 0 0 6 21 51.438 51.438 0 0 1-2 14c.038 2.687 1.038 3.354 3 2l1 3.5a109.108 109.108 0 0 0-2 12.5h3v3a142.962 142.962 0 0 0-5 16 30.943 30.943 0 0 0-2 2 70.679 70.679 0 0 0-2-4c.482-7.229-.518-14.229-3-21l2-2c-1.108-2.56-2.44-4.892-4-7-.838-.342-1.172-1.008-1-2v-6h3a29.51 29.51 0 0 0-1-6.5c-.184-1.376-.85-2.209-2-2.5-1.07-2.76-2.07-5.593-3-8.5a4.932 4.932 0 0 1 3-.5v-9a168.86 168.86 0 0 0 2-6c.683.363 1.35.696 2 1z"/><path style="opacity:1" fill="#69361d" d="M169.5 44.5c.838.342 1.172 1.008 1 2 .394 6.996.727 13.996 1 21-.79-1.109-1.29-2.442-1.5-4-.5-6.325-.666-12.658-.5-19z"/><path style="opacity:1" fill="#652410" d="M183.5 46.5a61.283 61.283 0 0 0-1 15l-2-11v-4h3z"/><path style="opacity:1" fill="#cf5452" d="M203.5 71.5v1c-2.513 2.605-2.513 5.272 0 8a15.417 15.417 0 0 0-1 7c-1.1 1.777-1.934 3.777-2.5 6-1.319-1.75-1.819-3.75-1.5-6 .624-.417.957-1.084 1-2-1.254-1.834-1.921-3.834-2-6 2.201-8.013 2.535-16.013 1-24h-1a40.911 40.911 0 0 1 .5-9c.667-1.333 1.333-1.333 2 0 3.108 8.024 4.275 16.357 3.5 25z"/><path style="opacity:1" fill="#6a2e21" d="M21.5 54.5c2.07 3.544 2.402 7.21 1 11a39.704 39.704 0 0 1-1-11z"/><path style="opacity:1" fill="#9d8d48" d="M27.5 45.5a31.501 31.501 0 0 0-2 4.5c-.113 1.7.553 2.866 2 3.5 1.574 1.602 2.24 3.602 2 6 .146 4.02.48 8.02 1 12-.934 1.068-1.268 2.401-1 4-1.212-.73-2.212-1.73-3-3-1.3 1.944-2.3 3.944-3 6a46.797 46.797 0 0 1-1-13c1.402-3.79 1.07-7.456-1-11v-1c-.16-1.653-.826-2.986-2-4 .577-1.273 1.244-1.273 2 0a28.83 28.83 0 0 1 1.5 4c1.309-2.186 1.476-4.353.5-6.5 1.4-.41 2.734-.91 4-1.5z"/><path style="opacity:1" fill="#28380e" d="M105.5 56.5c-.223 3.662-1.223 6.995-3 10v-4l3-6z"/><path style="opacity:1" fill="#70412a" d="M205.5 53.5a145.05 145.05 0 0 1-.5 17c-.383.556-.883.89-1.5 1 .775-8.643-.392-16.976-3.5-25-.667-1.333-1.333-1.333-2 0a40.911 40.911 0 0 0-.5 9c-1.141-3.14-1.308-6.473-.5-10a12.409 12.409 0 0 1 2.5-4 92.543 92.543 0 0 1 3 9c1.493.641 2.493 1.641 3 3z"/><path style="opacity:1" fill="#c4534e" d="M21.5 53.5v1c-.177 3.734.156 7.4 1 11a46.797 46.797 0 0 0 1 13v4c-1.442 1.32-2.108 2.986-2 5h-1c-.617-.11-1.117-.444-1.5-1-.434-2.68-.267-5.346.5-8 .064-2.057-.602-3.723-2-5v-1c-1.037-2.237-1.203-4.57-.5-7 .414.457.914.79 1.5 1 .377-4.743 1.377-9.076 3-13z"/><path style="opacity:1" fill="#773726" d="M47.5 47.5c1.031 2.46 1.698 5.127 2 8 .309 4.875.309 9.542 0 14-1.385-2.76-2.052-5.76-2-9 1.03-4.303 1.03-8.636 0-13z"/><path style="opacity:1" fill="#59250a" d="M68.5 52.5c1.15 4.816 1.316 9.816.5 15-.278.916-.778 1.582-1.5 2v-1a75.416 75.416 0 0 0 1-16z"/><path style="opacity:1" fill="#424723" d="M159.5 63.5v5c-1.29-.558-2.123-1.558-2.5-3-.661 3.302-1.828 6.302-3.5 9v-6a407.702 407.702 0 0 0 4-7 31.12 31.12 0 0 0 2 2z"/><path style="opacity:1" fill="#5e3420" d="M19.5 49.5c1.174 1.014 1.84 2.347 2 4-1.623 3.924-2.623 8.257-3 13a3.646 3.646 0 0 1-1.5-1c-.703 2.43-.537 4.763.5 7-1.265-1.014-1.931-2.514-2-4.5.99-3.46 1.657-6.96 2-10.5a85.398 85.398 0 0 0 2-8z"/><path style="opacity:1" fill="#693f22" d="M35.5 62.5c2.667 3 2.667 6 0 9v-9z"/><path style="opacity:1" fill="#d74f51" d="M135.5 39.5c3.178 4.761 5.845 9.928 8 15.5.916.374 1.75.874 2.5 1.5.181-3.195.681-6.195 1.5-9-.172.992.162 1.658 1 2a171.58 171.58 0 0 0 3.5 18c.383.556.883.89 1.5 1v6c-1.897 2.198-2.897 4.864-3 8-.597.235-.93.735-1 1.5a18.181 18.181 0 0 1 2 3.5 28.737 28.737 0 0 0-2 7c-.579 3.206-1.579 6.206-3 9-1.431 1.28-2.098 2.947-2 5a12.93 12.93 0 0 1 5 .5c-1.361 1.584-2.028 3.418-2 5.5a970.848 970.848 0 0 1-4 9c-.982.641-1.982 1.307-3 2a95.99 95.99 0 0 0-5-6 2185.682 2185.682 0 0 0-4.5-11c-.173-5.516-.673-10.85-1.5-16-.79-6.97-1.123-13.97-1-21l2 3c.869 2.217 1.202 4.55 1 7-.58 4.149.086 7.816 2 11 .034 3.723 1.367 6.723 4 9a8.43 8.43 0 0 0 .5 4 23.813 23.813 0 0 0 1.5-8c-.117-8.58-1.451-16.913-4-25 .825-.886 1.825-1.219 3-1a32.462 32.462 0 0 0-.5-8 36.64 36.64 0 0 1-5.5-11.5c2.194-2.923 2.528-6.09 1-9.5.14-1.53.807-2.53 2-3z"/><path style="opacity:1" fill="#783c23" d="M135.5 39.5c-1.193.47-1.86 1.47-2 3 1.528 3.41 1.194 6.577-1 9.5a36.64 36.64 0 0 0 5.5 11.5c.497 2.646.664 5.313.5 8-1.175-.219-2.175.114-3 1 2.549 8.087 3.883 16.42 4 25a23.813 23.813 0 0 1-1.5 8 8.43 8.43 0 0 1-.5-4c.647-.774.98-1.774 1-3a259.613 259.613 0 0 0-5-28c1.13-1.284 2.463-2.117 4-2.5a8158.025 8158.025 0 0 0-7-17 18.181 18.181 0 0 0 2-3.5 24.838 24.838 0 0 1-1-8c1.333-2.667 2.667-2.667 4 0z"/><path style="opacity:1" fill="#602314" d="M29.5 59.5c1.662 3.946 1.996 7.946 1 12-.52-3.98-.854-7.98-1-12z"/><path style="opacity:1" fill="#693f21" d="M62.5 65.5c-.12 2.605-1.12 4.605-3 6-.039-2.589.961-4.589 3-6z"/><path style="opacity:1" fill="#997e46" d="m180.5 50.5 2 11c-.241 2.398.426 4.398 2 6a18.452 18.452 0 0 1-.5 6c-.708-.88-1.542-1.547-2.5-2h-1c-.979 3.125-1.313 6.458-1 10-.838-.342-1.172-1.008-1-2a31.117 31.117 0 0 1 1-11c1.381-.5 2.047-1.5 2-3a67.214 67.214 0 0 1-1-15z"/><path style="opacity:1" fill="#6b4a28" d="M198.5 55.5c1.535 7.987 1.201 15.987-1 24a38.496 38.496 0 0 1-4-6c-.219-1.175.114-2.175 1-3a48.195 48.195 0 0 1 2.5 5c.335-6.69.835-13.357 1.5-20z"/><path style="opacity:1" fill="#d55155" d="M125.5 56.5c-.99 4.534-1.99 9.2-3 14-.683.363-1.35.696-2 1a41.29 41.29 0 0 0-3-13.5l.5-1.5c2.601 2.804 4.101 2.47 4.5-1 2.747-6.601 3.747-6.268 3 1z"/><path style="opacity:1" fill="#4f381c" d="M67.5 69.5a68.72 68.72 0 0 1 2 11c-1.839-3.029-3.172-6.362-4-10 .457-.797 1.124-1.13 2-1z"/><path style="opacity:1" fill="#bb504a" d="M125.5 56.5v25l-2 2c1.207-3.446 1.04-6.78-.5-10-1.188 1.063-1.688 2.397-1.5 4-1.983-.343-3.317.323-4 2l-2-2c-.343-1.983.324-3.317 2-4 .321 1.548 1.321 2.215 3 2v-4c.65-.304 1.317-.637 2-1 1.01-4.8 2.01-9.466 3-14z"/><path style="opacity:1" fill="#6f592e" d="M126.5 68.5c3.276.622 4.609 2.622 4 6l-2-3c-.988 5.14-1.321 10.474-1 16l-2-6v-9c.934-1.068 1.268-2.401 1-4z"/><path style="opacity:1" fill="#7d3c2b" d="M156.5 47.5c2.741 1.8 4.241 4.466 4.5 8a27.485 27.485 0 0 1-.5 11.5c1.395 2.679 2.061 5.512 2 8.5a33.299 33.299 0 0 1-3-7v-5c.713-5.565-.287-10.898-3-16z"/><path style="opacity:1" fill="#d74f51" d="M79.5 53.5a60.706 60.706 0 0 1-2 18 22.916 22.916 0 0 1 3 6.5 69.19 69.19 0 0 0-5 18.5c-1.466-.847-2.3-2.18-2.5-4-.816-1.323-1.983-1.99-3.5-2-.06-2.521.606-4.854 2-7-.043-.916-.376-1.583-1-2-.667 0-1-.333-1-1a68.72 68.72 0 0 0-2-11c.722-.418 1.222-1.084 1.5-2 .816-5.184.65-10.184-.5-15a161.566 161.566 0 0 1-.5-18c.414.457.914.79 1.5 1 .86-2.43 2.527-3.764 5-4-.166 6.342 0 12.675.5 19 .588 2.363 2.088 3.363 4.5 3z"/><path style="opacity:1" fill="#473319" d="M119.5 71.5h1v4c-1.679.215-2.679-.452-3-2 1.333 0 2-.667 2-2z"/><path style="opacity:1" fill="#6a4023" d="M184.5 67.5c1.303 2.855 1.303 5.855 0 9-1.821-1.228-2.821-2.894-3-5 .958.453 1.792 1.12 2.5 2 .495-1.973.662-3.973.5-6z"/><path style="opacity:1" fill="#548444" d="M62.5 65.5h3c-.073 1.527.594 2.527 2 3v1c-.876-.13-1.543.203-2 1 .828 3.638 2.161 6.971 4 10 0 .667.333 1 1 1v3h-3v3c-.958-.453-1.792-1.12-2.5-2-.305-2.057-.305-4.057 0-6-2.044 1.272-3.878.939-5.5-1a38.106 38.106 0 0 1-1 9l-3-4a126.554 126.554 0 0 0 4-12c1.88-1.395 2.88-3.395 3-6z"/><path style="opacity:1" fill="#da5051" d="M169.5 44.5c-.166 6.342 0 12.675.5 19 .21 1.558.71 2.891 1.5 4v14a254.203 254.203 0 0 0 2 11c-1.4 1.575-2.233 3.241-2.5 5a198.8 198.8 0 0 1-6.5-10l2-3c-.124-.607-.457-.94-1-1v-2c-.255-2.467-1.255-4.467-3-6 .061-2.988-.605-5.821-2-8.5a27.485 27.485 0 0 0 .5-11.5c-.259-3.534-1.759-6.2-4.5-8 .389-3.053-.277-5.72-2-8a47.51 47.51 0 0 0-1-5.5c.184-1.376.851-2.209 2-2.5h1c-.262 1.478.071 2.811 1 4a42.758 42.758 0 0 0 1.5-9c3.029 6.271 4.195 12.938 3.5 20l7-2z"/><path style="opacity:1" fill="#5b331b" d="M191.5 47.5a103.08 103.08 0 0 0-.5 23c.236 1.62 1.069 2.62 2.5 3a163.27 163.27 0 0 1-2.5 10c-.383.556-.883.89-1.5 1a53.01 53.01 0 0 1 2-8 56.708 56.708 0 0 1-2-17c.009-4.393.676-8.393 2-12z"/><path style="opacity:1" fill="#571f09" d="M35.5 71.5c-.343 1.983.324 3.317 2 4-.206 2.05-1.04 2.382-2.5 1-.78-1.887-.613-3.554.5-5z"/><path style="opacity:1" fill="#414b21" d="M29.5 75.5v5c-.904-.709-1.237-1.709-1-3-1.175-.219-2.175.114-3 1-.494 1.525-1.161 2.859-2 4v-4c.7-2.056 1.7-4.056 3-6 .788 1.27 1.788 2.27 3 3z"/><path style="opacity:1" fill="#d24f53" d="M123.5 83.5c-.025 2.679-1.358 4.012-4 4-.845-1.171-1.511-2.505-2-4v-4c.683-1.677 2.017-2.343 4-2-.188-1.603.312-2.937 1.5-4 1.54 3.22 1.707 6.554.5 10z"/><path style="opacity:1" fill="#69341c" d="M49.5 70.5c.597 4.794-.07 9.127-2 13-.062-4.576.605-8.91 2-13z"/><path style="opacity:1" fill="#cf4e4f" d="M57.5 44.5c-.262 1.478.071 2.811 1 4a32.034 32.034 0 0 1 2.5-4l1 19c.717.544 1.217 1.21 1.5 2h-1c-2.039 1.411-3.039 3.411-3 6a126.554 126.554 0 0 1-4 12c-.904.709-1.237 1.709-1 3 1.679-.215 2.679.452 3 2v1c-2.872 4.168-4.538 8.835-5 14 .172.992-.162 1.658-1 2a57.754 57.754 0 0 1-5-9c-.639-.597-.972-1.43-1-2.5a84.778 84.778 0 0 1 2-10.5c1.93-3.873 2.597-8.206 2-13v-1c.309-4.458.309-9.125 0-14 1.528 1.302 2.528 2.969 3 5h4a596.987 596.987 0 0 1-2.5-20c.498 2.044 1.665 3.378 3.5 4z"/><path style="opacity:1" fill="#6a3323" d="M162.5 75.5c1.745 1.533 2.745 3.533 3 6-1.745-1.533-2.745-3.533-3-6z"/><path style="opacity:1" fill="#d44f50" d="M187.5 35.5c1.595 1.611 2.761 3.611 3.5 6 .495 1.973.662 3.973.5 6-1.324 3.607-1.991 7.607-2 12a56.708 56.708 0 0 0 2 17 53.01 53.01 0 0 0-2 8c-.839 1.141-1.506 2.475-2 4 1.27.788 2.27 1.788 3 3a5.727 5.727 0 0 0-1 3c-1.413 2.719-2.08 5.719-2 9-1.844 1.779-2.51 4.112-2 7v1h-2a513.231 513.231 0 0 1-3-40h1c.179 2.106 1.179 3.772 3 5 1.303-3.145 1.303-6.145 0-9-1.574-1.602-2.241-3.602-2-6a61.283 61.283 0 0 1 1-15c2.889-2.99 4.222-6.658 4-11z"/><path style="opacity:1" fill="#754526" d="M171.5 68.5a648.205 648.205 0 0 0 5 24.5c-.028 1.07-.361 1.903-1 2.5-1.398-4.132-2.231-8.466-2.5-13-.383-.556-.883-.89-1.5-1v-13z"/><path style="opacity:1" fill="#6e3a21" d="M79.5 53.5c1.308 5.537 1.308 11.204 0 17 1.455 1.72 2.288 3.72 2.5 6 1.018-3.142 2.185-3.476 3.5-1-1.287 1.371-1.954 3.205-2 5.5.004 6.889-1.33 13.389-4 19.5h-4v-4a69.19 69.19 0 0 1 5-18.5 22.916 22.916 0 0 0-3-6.5 60.706 60.706 0 0 0 2-18z"/><path style="opacity:1" fill="#803b2d" d="M88.5 63.5c1.56 2.108 2.892 4.44 4 7l-2 2c2.482 6.771 3.482 13.771 3 21a4127.677 4127.677 0 0 1-5-22l2-2c-1.247-1.823-1.914-3.823-2-6z"/><path style="opacity:1" fill="#9f8d49" d="M131.5 39.5a24.838 24.838 0 0 0 1 8 18.181 18.181 0 0 1-2 3.5 8158.025 8158.025 0 0 1 7 17c-1.537.383-2.87 1.216-4 2.5a259.613 259.613 0 0 1 5 28c-.02 1.226-.353 2.226-1 3-2.633-2.277-3.966-5.277-4-9-.146-3.888-.813-7.554-2-11 .202-2.45-.131-4.783-1-7 .609-3.378-.724-5.378-4-6 .621-7.081.621-14.081 0-21h4c-.306-2.885.027-5.552 1-8z"/><path style="opacity:1" fill="#9b5340" d="M17.5 73.5c1.398 1.277 2.064 2.943 2 5-.767 2.654-.934 5.32-.5 8 .383.556.883.89 1.5 1l2 5v1c-.722 1.051-1.722 1.718-3 2-1.224-5.346-2.89-10.68-5-16 .88-1.47 2.214-2.304 4-2.5-.837-1.011-1.17-2.178-1-3.5z"/><path style="opacity:1" fill="#443a15" d="m115.5 77.5 2 2v4c-1.574-1.602-2.241-3.602-2-6z"/><path style="opacity:1" fill="#52582f" d="M153.5 74.5c-.937 3.934-.937 7.6 0 11a6.544 6.544 0 0 1-3-3c.103-3.136 1.103-5.802 3-8z"/><path style="opacity:1" fill="#8d4735" d="M203.5 72.5c2.179 5.128 1.846 10.128-1 15a15.417 15.417 0 0 1 1-7c-2.513-2.728-2.513-5.395 0-8z"/><path style="opacity:1" fill="#58361e" d="M29.5 81.5c1.786 2.133 3.12 4.633 4 7.5-.57 1.6-1.57 2.766-3 3.5-.904-.709-1.237-1.709-1-3h1c.597-.235.93-.735 1-1.5a72.503 72.503 0 0 1-2-6.5z"/><path style="opacity:1" fill="#562d18" d="m55.5 83.5 3 4c0 .667-.333 1-1 1-.321-1.548-1.321-2.215-3-2-.237-1.291.096-2.291 1-3z"/><path style="opacity:1" fill="#44391e" d="M70.5 81.5c.624.417.957 1.084 1 2-1.394 2.146-2.06 4.479-2 7l-2-3v-3h3v-3z"/><path style="opacity:1" fill="#d04f53" d="M29.5 39.5c2.497.63 3.83 2.296 4 5-.166 5.344 0 10.677.5 16 .278.916.778 1.583 1.5 2v9c-1.113 1.446-1.28 3.113-.5 5 1.46 1.382 2.294 1.05 2.5-1 .958-.453 1.792-1.12 2.5-2 .813 5.207.313 10.207-1.5 15 .09 1.728.423 3.394 1 5-.63 6.464-1.297 12.797-2 19h-1c-.09-3.714-1.09-7.048-3-10v-1c-.403-2.986-1.403-5.652-3-8v-1c1.43-.734 2.43-1.9 3-3.5-.88-2.867-2.214-5.367-4-7.5v-6c-.268-1.599.066-2.932 1-4 .996-4.054.662-8.054-1-12 .24-2.398-.426-4.398-2-6a102.873 102.873 0 0 0 2-14z"/><path style="opacity:1" fill="#843c26" d="M180.5 71.5a513.231 513.231 0 0 0 3 40l-2-11a130.027 130.027 0 0 0-2-9c1.239-3.33 1.239-6.663 0-10-.313-3.542.021-6.875 1-10z"/><path style="opacity:1" fill="#a69a54" d="M80.5 80.5c.647.774.98 1.774 1 3-.263 5.574-1.43 10.907-3.5 16-.621-6.519.212-12.852 2.5-19z"/><path style="opacity:1" fill="#56321f" d="M189.5 84.5c-.253 2.327.414 4.327 2 6-.124.607-.457.94-1 1-.73-1.212-1.73-2.212-3-3 .494-1.525 1.161-2.859 2-4z"/><path style="opacity:1" fill="#724b2a" d="M125.5 81.5c-.37 3.789-1.703 7.122-4 10-1.604-.787-2.271-2.12-2-4 2.642.012 3.975-1.321 4-4l2-2z"/><path style="opacity:1" fill="#57351d" d="M102.5 79.5c.227 6.117-1.44 11.45-5 16a142.962 142.962 0 0 1 5-16z"/><path style="opacity:1" fill="#79342c" d="M131.5 81.5c1.187 3.446 1.854 7.112 2 11-1.914-3.184-2.58-6.851-2-11z"/><path style="opacity:1" fill="#c3514f" d="M171.5 81.5c.617.11 1.117.444 1.5 1 .269 4.534 1.102 8.868 2.5 13-2.626 2.264-3.959 5.264-4 9l-7-14c-1.378-2.47-1.045-4.803 1-7 .543.06.876.393 1 1l-2 3a198.8 198.8 0 0 0 6.5 10c.267-1.759 1.1-3.425 2.5-5a254.203 254.203 0 0 1-2-11z"/><path style="opacity:1" fill="#4c2717" d="M20.5 87.5h1c1.932 1.476 2.265 3.143 1 5l-2-5z"/><path style="opacity:1" fill="#654225" d="M150.5 82.5a6.544 6.544 0 0 0 3 3c-.292 3.566-1.626 6.566-4 9a28.737 28.737 0 0 1 2-7 18.181 18.181 0 0 0-2-3.5c.07-.765.403-1.265 1-1.5z"/><path style="opacity:1" fill="#aa4b46" d="M69.5 90.5c1.517.01 2.684.677 3.5 2 .2 1.82 1.034 3.153 2.5 4v4h4c-.683 1.676-2.017 2.343-4 2a27.168 27.168 0 0 1-3-5c-1.565-2.01-2.565-4.343-3-7z"/><path style="opacity:1" fill="#664326" d="M198.5 87.5c-.319 2.25.181 4.25 1.5 6 .566-2.223 1.4-4.223 2.5-6a41.541 41.541 0 0 1-1 8l-2-1-2-1v-2c-.268-1.599.066-2.932 1-4z"/><path style="opacity:1" fill="#4f8c45" d="M109.5 42.5c.617.11 1.117.444 1.5 1 .535 3.538 1.368 6.872 2.5 10 .435 2.657 1.435 4.99 3 7a103.732 103.732 0 0 0 3 11c0 1.333-.667 2-2 2-1.676.683-2.343 2.017-2 4-.241 2.398.426 4.398 2 6 .489 1.495 1.155 2.829 2 4-.271 1.88.396 3.213 2 4 1.319 2.81 2.319 5.81 3 9-1.809.791-3.809.791-6 0 .095 2.286.762 4.286 2 6 .496 5.21 2.496 9.543 6 13 .91 3.492 2.576 6.492 5 9v1a36.012 36.012 0 0 0-8-3l-1 1c.976 2.999 2.642 5.332 5 7 1.174 1.014 1.84 2.347 2 4l1 4c-3.487-.983-4.82-3.317-4-7a31.116 31.116 0 0 1-11-1 26.724 26.724 0 0 1 7-1.5c-.116-1.268-.449-2.602-1-4a20.431 20.431 0 0 1-5.5-1.5c-.617-.949-.451-1.782.5-2.5a49.602 49.602 0 0 1 10 .5v-3c-3.088-.139-5.755-1.139-8-3a13.139 13.139 0 0 1 2-6c-3.183-3.688-4.849-8.022-5-13a22.531 22.531 0 0 1-3 4c1.224 2.339 1.224 4.672 0 7a32.065 32.065 0 0 0-2.5-4c-1.28 9.655-4.28 10.322-9 2l-1 1-1 9a3.647 3.647 0 0 0-1.5-1c-.936 3.546-2.602 6.546-5 9-.904-.709-1.237-1.709-1-3 .958-.453 1.792-1.119 2.5-2 2.385-4.423 3.885-9.089 4.5-14 1.75-1.159 2.75-2.826 3-5 .904-.709 1.237-1.709 1-3a18.453 18.453 0 0 1-6-.5c.556-.383.89-.883 1-1.5v-3c3.56-4.55 5.227-9.883 5-16a36.287 36.287 0 0 0 2-4.5c-1.585-.085-2.918-.251-4-.5a87.188 87.188 0 0 0 2-8c1.777-3.005 2.777-6.338 3-10v-1c2.686-3.697 4.019-8.03 4-13z"/><path style="opacity:1" fill="#a2964b" d="M208.5 10.5a2209.101 2209.101 0 0 1 1 94c-1.531 4.75-2.198 9.75-2 15h-4a16.076 16.076 0 0 0-2-5c1.493-.641 2.493-1.641 3-3a3585.932 3585.932 0 0 1-3-16 41.541 41.541 0 0 0 1-8c2.846-4.872 3.179-9.872 1-15v-1c.617-.11 1.117-.444 1.5-1a145.05 145.05 0 0 0 .5-17 813.178 813.178 0 0 1 2.5 33c.5-25.331.667-50.664.5-76z"/><path style="opacity:1" fill="#682f1c" d="M93.5 93.5a70.679 70.679 0 0 1 2 4 30.943 30.943 0 0 1 2-2v3h-3c-.951-1.419-1.284-3.085-1-5z"/><path style="opacity:1" fill="#6f3f16" d="M128.5 71.5c-.123 7.03.21 14.03 1 21v16a341.725 341.725 0 0 1-2-21c-.321-5.526.012-10.86 1-16z"/><path style="opacity:1" fill="#503a1f" d="M30.5 93.5c1.597 2.348 2.597 5.014 3 8-2.154-2.117-3.154-4.784-3-8z"/><path style="opacity:1" fill="#4e3a1d" d="M46.5 96.5a57.754 57.754 0 0 0 5 9v3h4c.237 1.291-.096 2.291-1 3-.321-1.548-1.321-2.215-3-2v3a129.457 129.457 0 0 1-4.5-11c-.493-1.634-.66-3.3-.5-5z"/><path style="opacity:1" fill="#534f2a" d="M72.5 97.5a27.168 27.168 0 0 0 3 5v2c-2.321-1.59-3.321-3.923-3-7z"/><path style="opacity:1" fill="#8b3d27" d="M85.5 75.5c.994 10.487 1.328 21.154 1 32a23.304 23.304 0 0 1-3 6c.688-12.659 1.355-25.326 2-38z"/><path style="opacity:1" fill="#2b3115" d="M94.5 98.5h3c-.11.617-.444 1.117-1 1.5 1.973.495 3.973.662 6 .5.237 1.291-.096 2.291-1 3-1.779-1.844-4.112-2.51-7-2v-3z"/><path style="opacity:1" fill="#3f4518" d="M124.5 100.5c1.916 1.165 2.749 2.832 2.5 5-1.87-1.719-4.037-2.719-6.5-3v4c-1.238-1.714-1.905-3.714-2-6 2.191.791 4.191.791 6 0z"/><path style="opacity:1" fill="#71392d" d="M175.5 95.5c-.893 3.32-2.227 6.32-4 9 .041-3.736 1.374-6.736 4-9z"/><path style="opacity:1" fill="#593d26" d="M189.5 94.5c.285 3.33-.382 6.329-2 9-.08-3.281.587-6.281 2-9z"/><path style="opacity:1" fill="#344818" d="M22.5 93.5a115.514 115.514 0 0 1-2 11.5c-.184 1.376-.85 2.209-2 2.5a80.25 80.25 0 0 1 2-9.5 11.104 11.104 0 0 0-1-2.5c1.278-.282 2.278-.949 3-2z"/><path style="opacity:1" fill="#624a27" d="M57.5 89.5a168.19 168.19 0 0 1-1.5 8c-1.75 1.757-2.916 3.757-3.5 6 .462-5.165 2.128-9.832 5-14z"/><path style="opacity:1" fill="#43561a" d="m199.5 94.5 2 1c.984 5.315 1.984 10.648 3 16-3.054-5.17-4.72-10.836-5-17z"/><path style="opacity:1" fill="#538c4a" d="M29.5 80.5v1a72.503 72.503 0 0 0 2 6.5c-.07.765-.403 1.265-1 1.5-.321-1.548-1.321-2.215-3-2-.126 1.7-.793 3.2-2 4.5 2.025 3.695 2.358 7.528 1 11.5l-2-8a39.141 39.141 0 0 0-2 6.5 9.264 9.264 0 0 0 2 2.5 93.94 93.94 0 0 1-3 9c10.227 3.15 10.227 4.816 0 5v7c8 .667 8 1.333 0 2 .034 4.13.701 8.13 2 12-3.044-3.393-5.21-7.393-6.5-12-.326-2.832.174-5.499 1.5-8 3.188-3.217 2.521-5.05-2-5.5 1.729-1.789 2.396-3.956 2-6.5 1.15-.291 1.816-1.124 2-2.5.862-3.811 1.53-7.644 2-11.5v-1c1.265-1.857.932-3.524-1-5-.108-2.014.558-3.68 2-5 .839-1.141 1.506-2.475 2-4 .825-.886 1.825-1.219 3-1-.237 1.291.096 2.291 1 3z"/><path style="opacity:1" fill="#652e14" d="M41.5 111.5c.032 2.119-.968 3.452-3 4a5.728 5.728 0 0 0-1-3c.703-6.203 1.37-12.536 2-19a17.392 17.392 0 0 1-1-5c1.813-4.793 2.313-9.793 1.5-15-.708.88-1.542 1.547-2.5 2-.127-2.745 1.04-4.745 3.5-6a295.626 295.626 0 0 1-1.5 36c.04 2.452.706 4.452 2 6z"/><path style="opacity:1" fill="#bc4f51" d="M94.5 101.5c2.888-.51 5.221.156 7 2-1.359.507-2.359 1.507-3 3-.641-1.493-1.641-2.493-3-3h-1v-2z"/><path style="opacity:1" fill="#60301a" d="M33.5 102.5c1.91 2.952 2.91 6.286 3 10h-1a27.12 27.12 0 0 1-2-10z"/><path style="opacity:1" fill="#598e4e" d="M193.5 73.5a38.496 38.496 0 0 0 4 6c.079 2.166.746 4.166 2 6-.043.916-.376 1.583-1 2-.934 1.068-1.268 2.401-1 4-.934-1.068-1.268-2.401-1-4h-3v8h-3c-.474 3.421-.474 6.755 0 10a145.958 145.958 0 0 1-3 18v-4c.12-1.699.454-3.365 1-5l-1-2c-2.386 1.488-3.052 1.155-2-1v-1c1.112-2.099 1.779-4.433 2-7 1.618-2.671 2.285-5.67 2-9a5.727 5.727 0 0 1 1-3c.543-.06.876-.393 1-1-1.586-1.673-2.253-3.673-2-6 .617-.11 1.117-.444 1.5-1a163.27 163.27 0 0 0 2.5-10z"/><path style="opacity:1" fill="#59824b" d="M29.5 89.5c-.237 1.291.096 2.291 1 3v1c-.154 3.216.846 5.883 3 8v1a27.12 27.12 0 0 0 2 10c1.004 2.177.337 2.511-2 1a78.563 78.563 0 0 0-5-22c.043-.916.376-1.583 1-2z"/><path style="opacity:1" fill="#d24e52" d="M85.5 75.5c-.645 12.674-1.312 25.341-2 38-2.368 1.701-4.368 3.701-6 6h-1a306.74 306.74 0 0 1-4-8c1.052-1.756 2.719-2.423 5-2 .268-1.599-.066-2.932-1-4 0-.667-.333-1-1-1v-2c1.983.343 3.317-.324 4-2 2.67-6.111 4.004-12.611 4-19.5.046-2.295.713-4.129 2-5.5z"/><path style="opacity:1" fill="#9e9046" d="M46.5 47.5h1c1.03 4.364 1.03 8.697 0 13-.052 3.24.615 6.24 2 9v1c-1.395 4.09-2.062 8.424-2 13a84.778 84.778 0 0 0-2 10.5c.028 1.07.361 1.903 1 2.5-.16 1.7.007 3.366.5 5a129.457 129.457 0 0 0 4.5 11v7c-.667 0-1 .333-1 1a153.759 153.759 0 0 0-5 11l1.5 3c4.451-5.178 5.951-4.845 4.5 1-1.412 2.104-2.412 4.437-3 7-1.174 1.014-1.84 2.347-2 4-.958.453-1.792 1.119-2.5 2-.708-.881-1.542-1.547-2.5-2 .086-.996-.248-1.829-1-2.5a9.564 9.564 0 0 0 3-3 77.054 77.054 0 0 0-2-8.5 905.129 905.129 0 0 0 3-18.5 33.799 33.799 0 0 0-1.5-8.5 10.098 10.098 0 0 0-1.5 6c-1.294-1.548-1.96-3.548-2-6a295.626 295.626 0 0 0 1.5-36c-2.46 1.255-3.627 3.255-3.5 6-1.676-.683-2.343-2.017-2-4 2.667-3 2.667-6 0-9-1.223-4.503-1.223-9.003 0-13.5-.399-1.727-1.066-3.227-2-4.5-.17-2.704-1.503-4.37-4-5v-3h3c-.009 1.808.491 3.475 1.5 5a38.43 38.43 0 0 0 6.5 5c-.825.886-1.825 1.219-3 1a24.963 24.963 0 0 1-2 7.5c.92 2.84 1.92 5.674 3 8.5 1.503-.552 3.17-.552 5 0 .18-2.454-.487-4.62-2-6.5l1-1.5a33.225 33.225 0 0 0 3.5 6c.5-4.655.666-9.322.5-14z"/><path style="opacity:1" fill="#53341e" d="M95.5 103.5c1.359.507 2.359 1.507 3 3 .641-1.493 1.641-2.493 3-3-.25 2.174-1.25 3.841-3 5h-1c-1.713-1.135-2.38-2.802-2-5z"/><path style="opacity:1" fill="#4e3721" d="M146.5 103.5v3h5c-.77 2.996-2.104 5.663-4 8-.028-2.082.639-3.916 2-5.5a12.93 12.93 0 0 0-5-.5c-.098-2.053.569-3.72 2-5z"/><path style="opacity:1" fill="#a2954a" d="M170.5 46.5c.65.304 1.317.637 2 1a25.878 25.878 0 0 1 1 10c2.045.334 3.711.668 5 1-.21 3.88-2.21 5.547-6 5 .452 3.663.952 7.33 1.5 11 1.193 1.997 2.693 3.664 4.5 5-.172.992.162 1.658 1 2 1.239 3.337 1.239 6.67 0 10a130.027 130.027 0 0 1 2 9 60.931 60.931 0 0 1-.5 11c-2.878-8.981-4.378-8.315-4.5 2-.066 4.079.934 7.745 3 11v11a11.187 11.187 0 0 1-1 4.5 9.568 9.568 0 0 0 3 3 51.064 51.064 0 0 0-4 5.5c-2.644-5.959-5.311-11.959-8-18l.5-1c.816 1.323 1.983 1.989 3.5 2 .972 1.251 1.639.918 2-1-.4-3.241-1.733-5.907-4-8a72.032 72.032 0 0 1-1-11c.869-2.217 1.202-4.55 1-7 1.773-2.68 3.107-5.68 4-9 .639-.597.972-1.43 1-2.5a648.205 648.205 0 0 1-5-24.5v-1c-.273-7.004-.606-14.004-1-21z"/><path style="opacity:1" fill="#5d4723" d="M187.5 103.5c-.221 2.567-.888 4.901-2 7-.51-2.888.156-5.221 2-7z"/><path style="opacity:1" fill="#323b17" d="M75.5 104.5c.667 0 1 .333 1 1v3c-2.281-.423-3.948.244-5 2-.934-1.068-1.268-2.401-1-4a6.845 6.845 0 0 1 4 1c.886-.825 1.219-1.825 1-3z"/><path style="opacity:1" fill="#615c34" d="M11.5 105.5c1.914 3.184 2.58 6.851 2 11l-2-5v-6z"/><path style="opacity:1" fill="#75362a" d="M76.5 105.5c.934 1.068 1.268 2.401 1 4-2.281-.423-3.948.244-5 2-.667 0-1-.333-1-1 1.052-1.756 2.719-2.423 5-2v-3z"/><path style="opacity:1" fill="#72341d" d="M129.5 92.5c.827 5.15 1.327 10.484 1.5 16 1.537 3.729 3.037 7.395 4.5 11-2.778-3.221-4.778-6.888-6-11v-16z"/><path style="opacity:1" fill="#4b311f" d="m164.5 90.5 7 14c.202 2.45-.131 4.783-1 7h-1c-.667-2.667-1.333-2.667-2 0-3.077-2.843-2.41-4.177 2-4a172.668 172.668 0 0 1-5-17z"/><path style="opacity:1" fill="#d56256" d="M169.5 111.5h-2c.667-2.667 1.333-2.667 2 0z"/><path style="opacity:1" fill="#fbfcfb" d="M9.5 55.5a3162.066 3162.066 0 0 0 2 50v6a69.08 69.08 0 0 0-4 15c.346 1.196.846 1.196 1.5 0 3.101 5.195 4.268 10.862 3.5 17 2.442-.146 3.11.687 2 2.5.862 2.734 1.695 2.901 2.5.5a62.669 62.669 0 0 0 8 13l1-1c-.427 2.593-.594 5.093-.5 7.5 1.167.5 2 1.333 2.5 2.5a155.146 155.146 0 0 0 2.5 15c1.268-.928 2.601-1.095 4-.5l-1 1 4 4c1.244.456 2.077-.044 2.5-1.5a25.534 25.534 0 0 0 4.5 4c-1.703-.351-3.37.316-5 2 6.37 2.629 6.37 4.629 0 6-.767-3.639-1.434-3.306-2 1h8c-.358 3.398.308 6.565 2 9.5-2.957 2.184-2.623 3.351 1 3.5a53.638 53.638 0 0 1 2 7 82.585 82.585 0 0 0-1 14h-50v-202a163.134 163.134 0 0 0 4-16h3a208.74 208.74 0 0 1 1 40h-3v6c3.949.193 3.949.693 0 1.5.653 8.109 1.32 16.275 2 24.5a678.992 678.992 0 0 0 3-32z"/><path style="opacity:1" fill="#9d5152" d="M54.5 111.5c-.722 1.051-1.722 1.718-3 2v-4c1.679-.215 2.679.452 3 2z"/><path style="opacity:1" fill="#364d1a" d="M18.5 107.5c.396 2.544-.271 4.711-2 6.5 4.521.45 5.188 2.283 2 5.5v-3h-3c-.054-3.492.946-6.492 3-9z"/><path style="opacity:1" fill="#518b46" d="M159.5 68.5a33.299 33.299 0 0 0 3 7c.255 2.467 1.255 4.467 3 6v2c-2.045 2.197-2.378 4.53-1 7a172.668 172.668 0 0 0 5 17c-4.41-.177-5.077 1.157-2 4 .098 4.252 1.432 7.919 4 11a206.865 206.865 0 0 0 3 8c-.124.607-.457.94-1 1-1.354-3.198-3.687-4.364-7-3.5.752.671 1.086 1.504 1 2.5-.65.304-1.317.637-2 1a42.769 42.769 0 0 1-1.5-9c-1.438 1.4-2.271 3.067-2.5 5h-7v-4h3a4.934 4.934 0 0 0 .5 3c2.164-1.98 3.664-4.313 4.5-7a6.846 6.846 0 0 0-4 1c.063-1.16-.27-2.494-1-4-4.508-4.392-8.175-3.725-11 2 1.524 2.292 1.191 4.292-1 6 1.057.406 2.391.406 4 0v3c-4.781.217-5.614 1.884-2.5 5a12.93 12.93 0 0 1 .5 5h-4a5.576 5.576 0 0 1 1-3c-.925-1.062-1.925-1.062-3 0v-5c1.22-1.782 1.886-3.782 2-6a970.848 970.848 0 0 0 4-9c1.896-2.337 3.23-5.004 4-8h-5v-3c1.421-2.794 2.421-5.794 3-9 2.374-2.434 3.708-5.434 4-9-.937-3.4-.937-7.066 0-11 1.672-2.698 2.839-5.698 3.5-9 .377 1.442 1.21 2.442 2.5 3z"/><path style="opacity:1" fill="#363112" d="M54.5 111.5c-.48 2.943-1.48 5.61-3 8v-6c1.278-.282 2.278-.949 3-2z"/><path style="opacity:1" fill="#384917" d="M97.5 108.5h1c-.615 4.911-2.115 9.577-4.5 14-.708.881-1.542 1.547-2.5 2a97.566 97.566 0 0 0 6-16z"/><path style="opacity:1" fill="#64604a" d="M209.5 104.5c.404 5.283-.262 10.283-2 15-.198-5.25.469-10.25 2-15z"/><path style="opacity:1" fill="#6a4126" d="m181.5 100.5 2 11h2c-1.052 2.155-.386 2.488 2 1l1 2a20.222 20.222 0 0 0-1 5h-1c-.734-1.208-1.067-2.541-1-4-3.035-.021-5.368-1.354-7-4l-1 2.5a35.884 35.884 0 0 1 2 10.5c-2.066-3.255-3.066-6.921-3-11 .122-10.315 1.622-10.981 4.5-2 .499-3.652.665-7.318.5-11z"/><path style="opacity:1" fill="#364613" d="M120.5 106.5a115.242 115.242 0 0 1 6 13c-3.504-3.457-5.504-7.79-6-13z"/><path style="opacity:1" fill="#754c2c" d="M83.5 113.5a55.157 55.157 0 0 0-4 9c-1.548-.321-2.215-1.321-2-3 1.632-2.299 3.632-4.299 6-6z"/><path style="opacity:1" fill="#ce4f52" d="M41.5 111.5c1.194.47 1.86 1.47 2 3a86.51 86.51 0 0 1-3.5 15c-.67.752-1.504 1.086-2.5 1 .237-1.291-.096-2.291-1-3a63.468 63.468 0 0 0-2-11c1.189-.929 2.522-1.262 4-1 2.032-.548 3.032-1.881 3-4z"/><path style="opacity:1" fill="#9e9345" d="m125.5 81.5 2 6a341.725 341.725 0 0 0 2 21c1.222 4.112 3.222 7.779 6 11a87.673 87.673 0 0 0 4 10c-.423 2.281.244 3.948 2 5 1.075-1.062 2.075-1.062 3 0a5.576 5.576 0 0 0-1 3v1a200.512 200.512 0 0 1-4.5 10c-.77 1.098-1.603 1.098-2.5 0a41.166 41.166 0 0 0-7-10c-.16-1.653-.826-2.986-2-4a9.175 9.175 0 0 0-2-4.5c2.745.77 4.745.603 6-.5v-1c-.91-3.492-2.576-6.492-5-9a115.242 115.242 0 0 0-6-13v-4c2.463.281 4.63 1.281 6.5 3 .249-2.168-.584-3.835-2.5-5-.681-3.19-1.681-6.19-3-9 2.297-2.878 3.63-6.211 4-10z"/><path style="opacity:1" fill="#3d4718" d="M167.5 111.5h3a72.032 72.032 0 0 0 1 11c-2.568-3.081-3.902-6.748-4-11z"/><path style="opacity:1" fill="#598e4e" d="m197.5 93.5 2 1c.28 6.164 1.946 11.83 5 17-.507 1.359-1.507 2.359-3 3a16.076 16.076 0 0 1 2 5c1.776 5.917.776 11.25-3 16a127.111 127.111 0 0 0 1.5-13 56.07 56.07 0 0 0-8.5-4l5-2c-.937-3.853-.27-7.52 2-11-1.646-3.78-2.646-7.78-3-12z"/><path style="opacity:1" fill="#423d19" d="M35.5 112.5h2c.61.891.943 1.891 1 3-1.478-.262-2.811.071-4 1a63.468 63.468 0 0 1 2 11c-2.59-4.193-3.59-8.86-3-14 2.337 1.511 3.004 1.177 2-1z"/><path style="opacity:1" fill="#9e9343" d="M94.5 103.5h1c-.38 2.198.287 3.865 2 5a97.566 97.566 0 0 1-6 16c-2.039 1.411-3.039 3.411-3 6 2.436.183 4.603-.484 6.5-2a87.536 87.536 0 0 1-4.5 12c-1.951 1.98-3.451 4.313-4.5 7a25.154 25.154 0 0 0-4.5-4 22.586 22.586 0 0 0-4-8c1.461-2.311 3.294-2.311 5.5 0 1.907-2.219 1.407-3.886-1.5-5l-2-8a55.157 55.157 0 0 1 4-9 23.304 23.304 0 0 0 3-6 30.968 30.968 0 0 1 2 2c.83-6.307 1.33-12.64 1.5-19a209.466 209.466 0 0 1 4.5 13z"/><path style="opacity:1" fill="#2e3d0d" d="M126.5 119.5c2.424 2.508 4.09 5.508 5 9-2.424-2.508-4.09-5.508-5-9z"/><path style="opacity:1" fill="#35430e" d="M171.5 122.5c2.267 2.093 3.6 4.759 4 8-.361 1.918-1.028 2.251-2 1 .543-.06.876-.393 1-1a206.865 206.865 0 0 1-3-8z"/><path style="opacity:1" fill="#7c744e" d="M186.5 119.5h1v8h-2c-.306-2.885.027-5.552 1-8z"/><path style="opacity:1" fill="#43511d" d="M76.5 119.5h1c-.215 1.679.452 2.679 2 3l2 8c-2.625-3.198-4.291-6.865-5-11z"/><path style="opacity:1" fill="#854332" d="M135.5 119.5a95.99 95.99 0 0 1 5 6 185.977 185.977 0 0 1 3-2c-.114 2.218-.78 4.218-2 6h-2a87.673 87.673 0 0 1-4-10z"/><path style="opacity:1" fill="#d3514f" d="M186.5 119.5c-.973 2.448-1.306 5.115-1 8-1.174 1.014-1.84 2.347-2 4v1h-1a46.702 46.702 0 0 0-3-8 35.884 35.884 0 0 0-2-10.5l1-2.5c1.632 2.646 3.965 3.979 7 4-.067 1.459.266 2.792 1 4z"/><path style="opacity:1" fill="#4a9045" d="M30.5 89.5h-1c-.624.417-.957 1.084-1 2a78.563 78.563 0 0 1 5 22c-.59 5.14.41 9.807 3 14 .904.709 1.237 1.709 1 3 .296 1.903.962 3.57 2 5a16.062 16.062 0 0 0 2 5c-1.116-.098-2.116.402-3 1.5.398 1.981 1.398 3.481 3 4.5a292.367 292.367 0 0 0 9 21c-2.873.376-5.873.376-9 0-1.72-1.364-3.72-2.364-6-3-1.112-1.919-2.446-3.586-4-5a130.192 130.192 0 0 1-8-20 38.477 38.477 0 0 1-2-12c8-.667 8-1.333 0-2v-7c10.227-.184 10.227-1.85 0-5a93.94 93.94 0 0 0 3-9 9.264 9.264 0 0 1-2-2.5 39.141 39.141 0 0 1 2-6.5l2 8c1.358-3.972 1.025-7.805-1-11.5 1.207-1.3 1.874-2.8 2-4.5 1.679-.215 2.679.452 3 2z"/><path style="opacity:1" fill="#3a4a1b" d="M91.5 124.5c-.237 1.291.096 2.291 1 3 1.7-.16 3.366.006 5 .5a147.687 147.687 0 0 0-4.5 10.5c-.708.881-1.542 1.547-2.5 2a87.536 87.536 0 0 0 4.5-12c-1.897 1.516-4.064 2.183-6.5 2-.039-2.589.961-4.589 3-6z"/><path style="opacity:1" fill="#6e341c" d="M41.5 132.5c.215 1.679-.452 2.679-2 3-1.038-1.43-1.704-3.097-2-5 .996.086 1.83-.248 2.5-1a86.51 86.51 0 0 0 3.5-15c-.14-1.53-.806-2.53-2-3a10.098 10.098 0 0 1 1.5-6 33.799 33.799 0 0 1 1.5 8.5 905.129 905.129 0 0 1-3 18.5z"/><path style="opacity:1" fill="#424c21" d="M131.5 129.5c-1.255 1.103-3.255 1.27-6 .5a9.175 9.175 0 0 1 2 4.5c-2.358-1.668-4.024-4.001-5-7l1-1a36.012 36.012 0 0 1 8 3z"/><path style="opacity:1" fill="#3c4a16" d="M50.5 120.5c.597.235.93.735 1 1.5l-3 7 1 1.5c1.958-1.769 3.958-2.435 6-2-1.083 2.638-2.416 4.971-4 7 1.451-5.845-.049-6.178-4.5-1l-1.5-3a153.759 153.759 0 0 1 5-11z"/><path style="opacity:1" fill="#733525" d="M179.5 124.5a46.702 46.702 0 0 1 3 8c-.356 1.69-1.356 2.69-3 3v-11z"/><path style="opacity:1" fill="#512f12" d="M185.5 127.5c.271 1.88-.396 3.213-2 4 .16-1.653.826-2.986 2-4z"/><path style="opacity:1" fill="#4c9044" d="M167.5 130.5a72.493 72.493 0 0 0 7 13.5 3.647 3.647 0 0 0-1 1.5 41.653 41.653 0 0 0 2 6v3c-2.15 2.035-4.484 3.702-7 5v-3c-1.175.219-2.175-.114-3-1 1.353-1.024 2.02-2.357 2-4a9.86 9.86 0 0 0-6 1c4.107 1.929 3.94 3.263-.5 4a3.943 3.943 0 0 1-2-1c-.674 1.078-1.674 1.745-3 2a66.525 66.525 0 0 1-5.5-2.5c.631-1.768-.202-2.935-2.5-3.5a604.676 604.676 0 0 1-3.5 3c-.886-.825-1.219-1.825-1-3-1.478.262-2.811-.071-4-1a39.44 39.44 0 0 0 5-11c-.124-.607-.457-.94-1-1v-1h4a12.93 12.93 0 0 0-.5-5c-3.114-3.116-2.281-4.783 2.5-5v-3c-1.609.406-2.943.406-4 0 2.191-1.708 2.524-3.708 1-6 2.825-5.725 6.492-6.392 11-2 .73 1.506 1.063 2.84 1 4a6.846 6.846 0 0 1 4-1c-.836 2.687-2.336 5.02-4.5 7a4.934 4.934 0 0 1-.5-3h-3v4h7c.229-1.933 1.062-3.6 2.5-5a42.769 42.769 0 0 0 1.5 9c.683-.363 1.35-.696 2-1z"/><path style="opacity:1" fill="#4e8d46" d="m67.5 87.5 2 3c.435 2.657 1.435 4.99 3 7-.321 3.077.679 5.41 3 7 .219 1.175-.114 2.175-1 3a6.845 6.845 0 0 0-4-1c-.268 1.599.066 2.932 1 4 0 .667.333 1 1 1a306.74 306.74 0 0 0 4 8c.709 4.135 2.375 7.802 5 11 .13.876-.203 1.543-1 2a9.107 9.107 0 0 0-5-1c-.343 1.983.323 3.317 2 4a20.676 20.676 0 0 0 1 5h-3c.176-3.692-1.49-5.692-5-6 .359 2.266-.308 4.099-2 5.5.837 1.011 1.17 2.178 1 3.5h-6v-4h-3c.78 2.575.613 4.908-.5 7-.71-1.473-1.876-2.14-3.5-2-1.212-7.769-2.545-7.435-4 1 .875 2.448 1.209 4.781 1 7-.891 1.09-1.891 1.09-3 0-1.22.387-1.886 1.22-2 2.5.877 1.867 2.377 3.034 4.5 3.5 3.608-1.449 7.108-1.283 10.5.5-.883 6.388-.883 10.888 0 13.5h4c.053-2.64.72-5.14 2-7.5l-1-5c.184-1.376.85-2.209 2-2.5-.32 4.863.014 9.53 1 14 .709.904 1.709 1.237 3 1a84.809 84.809 0 0 1-15 5c.283-.789.783-1.456 1.5-2 .5-5.323.666-10.656.5-16-3.891.109-7.558 1.109-11 3a189.129 189.129 0 0 0-6-11.5 9.175 9.175 0 0 0 2-4.5c.16-1.653.826-2.986 2-4 2.318-1.685 3.318-4.019 3-7 1.584-2.029 2.917-4.362 4-7-2.042-.435-4.042.231-6 2l-1-1.5 3-7c-.07-.765-.403-1.265-1-1.5 0-.667.333-1 1-1 1.52-2.39 2.52-5.057 3-8 .904-.709 1.237-1.709 1-3h-4v-3c.838-.342 1.172-1.008 1-2 .584-2.243 1.75-4.243 3.5-6a168.19 168.19 0 0 0 1.5-8v-1c.667 0 1-.333 1-1a38.106 38.106 0 0 0 1-9c1.622 1.939 3.456 2.272 5.5 1-.305 1.943-.305 3.943 0 6 .708.88 1.542 1.547 2.5 2z"/><path style="opacity:1" fill="#435522" d="M81.5 130.5c2.907 1.114 3.407 2.781 1.5 5-2.206-2.311-4.039-2.311-5.5 0-1.677-.683-2.343-2.017-2-4a9.107 9.107 0 0 1 5 1c.797-.457 1.13-1.124 1-2z"/><path style="opacity:1" fill="#383513" d="M139.5 129.5h2v5c-1.756-1.052-2.423-2.719-2-5z"/><path style="opacity:1" fill="#4f9346" d="M197.5 91.5v2c.354 4.22 1.354 8.22 3 12-2.27 3.48-2.937 7.147-2 11l-5 2a56.07 56.07 0 0 1 8.5 4 127.111 127.111 0 0 1-1.5 13c-2.201 2.697-4.201 5.697-6 9a21.028 21.028 0 0 0-2 7h-4v-5h-3a24.837 24.837 0 0 0-1-8c2.007-3.359 3.007-7.025 3-11v-4a145.958 145.958 0 0 0 3-18c-.474-3.245-.474-6.579 0-10h3v-8h3c-.268 1.599.066 2.932 1 4z"/><path style="opacity:1" fill="#435c3f" d="M203.5 119.5h4c-1.175 7.198-3.509 13.865-7 20v-4c3.776-4.75 4.776-10.083 3-16z"/><path style="opacity:1" fill="#3a4a14" d="M77.5 135.5a22.586 22.586 0 0 1 4 8 10.162 10.162 0 0 1-3-3 20.676 20.676 0 0 1-1-5z"/><path style="opacity:1" fill="#36470d" d="M51.5 135.5c.318 2.981-.682 5.315-3 7 .588-2.563 1.588-4.896 3-7z"/><path style="opacity:1" fill="#394218" d="M41.5 132.5a77.054 77.054 0 0 1 2 8.5 9.564 9.564 0 0 1-3 3c.752.671 1.086 1.504 1 2.5-1.602-1.019-2.602-2.519-3-4.5.884-1.098 1.884-1.598 3-1.5a16.062 16.062 0 0 1-2-5c1.548-.321 2.215-1.321 2-3z"/><path style="opacity:1" fill="#2b410f" d="M129.5 138.5a41.166 41.166 0 0 1 7 10l-5-4c.172-.992-.162-1.658-1-2l-1-4z"/><path style="opacity:1" fill="#499043" d="M78.5 140.5a10.162 10.162 0 0 0 3 3l2 5c-.475 6.141-3.809 9.141-10 9h-3c-1.15.291-1.816 1.124-2 2.5l1 5c-1.28 2.36-1.947 4.86-2 7.5h-4c-.883-2.612-.883-7.112 0-13.5-3.392-1.783-6.892-1.949-10.5-.5-2.123-.466-3.623-1.633-4.5-3.5.114-1.28.78-2.113 2-2.5 1.109 1.09 2.109 1.09 3 0 .209-2.219-.125-4.552-1-7 1.455-8.435 2.788-8.769 4-1 1.624-.14 2.79.527 3.5 2 1.113-2.092 1.28-4.425.5-7h3v4h6c.17-1.322-.163-2.489-1-3.5 1.692-1.401 2.359-3.234 2-5.5 3.51.308 5.176 2.308 5 6h3z"/><path style="opacity:1" fill="#394b1b" d="M173.5 131.5c-1.517-.011-2.684-.677-3.5-2l-.5 1c2.689 6.041 5.356 12.041 8 18a51.064 51.064 0 0 1 4-5.5 9.568 9.568 0 0 1-3-3c.648-1.44.981-2.94 1-4.5 1.644-.31 2.644-1.31 3-3h1c-.672 2.842-2.006 5.342-4 7.5 1.049.492 2.049.326 3-.5 1.083.865 1.249 1.865.5 3a602.298 602.298 0 0 0-4 8c-1.011.837-2.178 1.17-3.5 1a41.653 41.653 0 0 1-2-6 3.647 3.647 0 0 1 1-1.5 72.493 72.493 0 0 1-7-13.5c.086-.996-.248-1.829-1-2.5 3.313-.864 5.646.302 7 3.5z"/><path style="opacity:1" fill="#36511d" d="M90.5 140.5c-.876 4.082-2.543 7.749-5 11-1.05-.405-1.05-1.071 0-2-.457-.798-1.124-1.131-2-1l-2-5a25.154 25.154 0 0 1 4.5 4c1.049-2.687 2.549-5.02 4.5-7z"/><path style="opacity:1" fill="#528b4b" d="M185.5 127.5h2c.007 3.975-.993 7.641-3 11a24.837 24.837 0 0 1 1 8h3v5h4a21.028 21.028 0 0 1 2-7c1.799-3.303 3.799-6.303 6-9v4c-.492 2.319-1.492 4.319-3 6s-2.508 3.681-3 6a22.755 22.755 0 0 1-4 5v-3c-3.509.129-6.342-1.204-8.5-4-1.744 1.149-1.911 2.483-.5 4-2.708 2.638-4.708 5.638-6 9-.161-3.028.506-5.861 2-8.5l-.5-1.5c-.278.916-.778 1.582-1.5 2v-3c1.322.17 2.489-.163 3.5-1a602.298 602.298 0 0 1 4-8c.749-1.135.583-2.135-.5-3-.951.826-1.951.992-3 .5 1.994-2.158 3.328-4.658 4-7.5v-1c1.604-.787 2.271-2.12 2-4z"/><path style="opacity:1" fill="#3d5336" d="M197.5 145.5c.039 2.589-.961 4.589-3 6 .492-2.319 1.492-4.319 3-6z"/><path style="opacity:1" fill="#445e3e" d="M13.5 116.5c.904.709 1.237 1.709 1 3h4c-1.326 2.501-1.826 5.168-1.5 8 1.29 4.607 3.456 8.607 6.5 12a130.192 130.192 0 0 0 8 20c-9.096-12.933-15.096-27.266-18-43z"/><path style="opacity:1" fill="#334d1a" d="M41.5 146.5c.958.453 1.792 1.119 2.5 2 .708-.881 1.542-1.547 2.5-2a9.175 9.175 0 0 1-2 4.5 189.129 189.129 0 0 1 6 11.5c3.442-1.891 7.109-2.891 11-3 .166 5.344 0 10.677-.5 16-.717.544-1.217 1.211-1.5 2a18.973 18.973 0 0 1-8 2c2.231-1.701 4.731-3.034 7.5-4a38.06 38.06 0 0 0-.5-15 46.936 46.936 0 0 0-8 4.5c1.361 1.584 2.028 3.418 2 5.5-4.147.374-7.814-.626-11-3 3.127.376 6.127.376 9 0a292.367 292.367 0 0 1-9-21z"/><path style="opacity:1" fill="#4d8a45" d="M143.5 138.5c.543.06.876.393 1 1a39.44 39.44 0 0 1-5 11c1.189.929 2.522 1.262 4 1-.219 1.175.114 2.175 1 3a604.676 604.676 0 0 0 3.5-3c2.298.565 3.131 1.732 2.5 3.5a66.525 66.525 0 0 0 5.5 2.5c1.326-.255 2.326-.922 3-2a3.943 3.943 0 0 0 2 1c4.44-.737 4.607-2.071.5-4a9.86 9.86 0 0 1 6-1c.02 1.643-.647 2.976-2 4 .825.886 1.825 1.219 3 1v3c2.516-1.298 4.85-2.965 7-5 .046 5.964-2.621 7.964-8 6-.709-.904-1.709-1.237-3-1-.709-.904-1.709-1.237-3-1-.166 5.676.001 11.343.5 17a86.818 86.818 0 0 0 5.5 3c-4.514.041-7.347-1.625-8.5-5-4.994 1.958-10.161 2.458-15.5 1.5a20.2 20.2 0 0 0 6-1.5 245.244 245.244 0 0 0-16-4.5c-.556-.383-.889-.883-1-1.5a40.1 40.1 0 0 1 11 2c2.623 1.765 5.623 2.432 9 2v-14c-3.724-.394-7.224.273-10.5 2a103.216 103.216 0 0 0-9.5-3c-3.354-.247-6.354-1.247-9-3l-1-2c.631-2.403 1.631-4.736 3-7-1.006-.896-1.006-1.562 0-2 .695 6.784 2.695 7.45 6 2l5 4c.897 1.098 1.73 1.098 2.5 0a200.512 200.512 0 0 0 4.5-10z"/><path style="opacity:1" fill="#4f8248" d="M83.5 148.5c.876-.131 1.543.202 2 1-1.05.929-1.05 1.595 0 2 1.306.967 1.973 2.301 2 4h3a184.485 184.485 0 0 1-10.5 5 18.181 18.181 0 0 0-3.5-2c-.916.043-1.583.376-2 1h-3l2-2c6.191.141 9.525-2.859 10-9z"/><path style="opacity:1" fill="#364417" d="M132.5 156.5c3.186.838 6.353 1.838 9.5 3 3.276-1.727 6.776-2.394 10.5-2v14c-3.377.432-6.377-.235-9-2 2.706.075 5.373.408 8 1a36.875 36.875 0 0 0-1-12c-6.437 3.799-12.437 3.132-18-2z"/><path style="opacity:1" fill="#4b673b" d="M194.5 151.5a406.17 406.17 0 0 1-8 17.5c-.63 1.31-1.63 2.144-3 2.5a24.257 24.257 0 0 1 3-5.5 4.934 4.934 0 0 0-3-.5c3.684-1.037 5.017-3.371 4-7 .505-1.419 1.505-2.085 3-2a22.755 22.755 0 0 0 4-5z"/><path style="opacity:1" fill="#4d9347" d="M190.5 156.5c-1.495-.085-2.495.581-3 2 1.017 3.629-.316 5.963-4 7-2.988-.061-5.821.605-8.5 2-2.723-1.417-2.556-3.084.5-5 1.292-3.362 3.292-6.362 6-9-1.411-1.517-1.244-2.851.5-4 2.158 2.796 4.991 4.129 8.5 4v3z"/><path style="opacity:1" fill="#9c9342" d="M71.5 171.5v-12h6c-.219 1.175.114 2.175 1 3a218.29 218.29 0 0 1 26-10 36.875 36.875 0 0 1 1 12 256.312 256.312 0 0 0-34 7z"/><path style="opacity:1" fill="#344f1e" d="M175.5 162.5c-3.056 1.916-3.223 3.583-.5 5 2.679-1.395 5.512-2.061 8.5-2-3.912 2.86-8.245 3.86-13 3 1.638-3.736.638-6.402-3-8 5.379 1.964 8.046-.036 8-6 .722-.418 1.222-1.084 1.5-2l.5 1.5c-1.494 2.639-2.161 5.472-2 8.5z"/><path style="opacity:1" fill="#193201" d="M70.5 157.5h3l-2 2v12c-.986-4.47-1.32-9.137-1-14z"/><path style="opacity:1" fill="#9d9343" d="M123.5 153.5c2.646 1.753 5.646 2.753 9 3 5.563 5.132 11.563 5.799 18 2a36.875 36.875 0 0 1 1 12 41.541 41.541 0 0 0-8-1 40.1 40.1 0 0 0-11-2c-4.73-1.737-9.73-2.737-15-3a36.875 36.875 0 0 1 1-12 9.108 9.108 0 0 0 5 1z"/><path style="opacity:1" fill="#354314" d="m122.5 151.5 1 2a9.108 9.108 0 0 1-5-1 36.875 36.875 0 0 0-1 12c5.27.263 10.27 1.263 15 3a161.574 161.574 0 0 1-16-1v-15h6z"/><path style="opacity:1" fill="#38491d" d="M74.5 172.5c-1.291.237-2.291-.096-3-1 11.166-3.1 22.5-5.433 34-7a36.875 36.875 0 0 0-1-12 218.29 218.29 0 0 0-26 10c-.886-.825-1.219-1.825-1-3h-3c.417-.624 1.084-.957 2-1a18.181 18.181 0 0 1 3.5 2 184.485 184.485 0 0 0 10.5-5 140.39 140.39 0 0 1 16-4v15a193.39 193.39 0 0 0-32 6z"/><path style="opacity:1" fill="#555339" d="M31.5 159.5c1.554 1.414 2.888 3.081 4 5 2.28.636 4.28 1.636 6 3h-4a19.48 19.48 0 0 0 3 7c-4.254-4.162-7.254-9.162-9-15z"/><path style="opacity:1" fill="#a09544" d="M51.5 179.5a18.452 18.452 0 0 1-6-.5c-.837-1.011-1.17-2.178-1-3.5-1.459.067-2.792-.266-4-1a19.48 19.48 0 0 1-3-7h4c3.186 2.374 6.853 3.374 11 3 .028-2.082-.639-3.916-2-5.5a46.936 46.936 0 0 1 8-4.5 38.06 38.06 0 0 1 .5 15c-2.769.966-5.269 2.299-7.5 4z"/><path style="opacity:1" fill="#737146" d="M40.5 174.5c1.208.734 2.541 1.067 4 1-.17 1.322.163 2.489 1 3.5 1.973.495 3.973.662 6 .5l-4 4c-1.517-.011-2.684-.677-3.5-2a17.345 17.345 0 0 1-3.5-7z"/><path style="opacity:1" fill="#4a9045" d="M130.5 142.5c.838.342 1.172 1.008 1 2-3.305 5.45-5.305 4.784-6-2-1.006.438-1.006 1.104 0 2-1.369 2.264-2.369 4.597-3 7h-6v15c5.313.598 10.646.931 16 1 .111.617.444 1.117 1 1.5a245.244 245.244 0 0 1 16 4.5 20.2 20.2 0 0 1-6 1.5c5.339.958 10.506.458 15.5-1.5 1.153 3.375 3.986 5.041 8.5 5l8 2v3a46.428 46.428 0 0 1-7 3.5c-1.537 1.11-2.203 2.61-2 4.5a4.934 4.934 0 0 0-3 .5 110.79 110.79 0 0 0-6 7.5c-7.486 4.792-14.152 9.626-20 14.5-3.623 2.479-7.623 3.812-12 4l1 1-5 1c-3.19 4.4-7.524 6.067-13 5a75.263 75.263 0 0 0-11-4.5 35.156 35.156 0 0 0-10-5c-1.527.073-2.527-.594-3-2a63.764 63.764 0 0 0-15-11 56.666 56.666 0 0 1-6-6c-1.789-1.533-3.789-2.533-6-3-1.115-5.571-4.448-8.904-10-10l4-4a18.973 18.973 0 0 0 8-2 84.809 84.809 0 0 0 15-5 193.39 193.39 0 0 1 32-6v-15a140.39 140.39 0 0 0-16 4h-3c-.027-1.699-.694-3.033-2-4 2.457-3.251 4.124-6.918 5-11 .958-.453 1.792-1.119 2.5-2a147.687 147.687 0 0 1 4.5-10.5 12.93 12.93 0 0 0-5-.5c2.398-2.454 4.064-5.454 5-9a3.647 3.647 0 0 1 1.5 1l1-9 1-1c4.72 8.322 7.72 7.655 9-2a32.065 32.065 0 0 1 2.5 4c1.224-2.328 1.224-4.661 0-7a22.531 22.531 0 0 0 3-4c.151 4.978 1.817 9.312 5 13a13.139 13.139 0 0 0-2 6c2.245 1.861 4.912 2.861 8 3v3a49.602 49.602 0 0 0-10-.5c-.951.718-1.117 1.551-.5 2.5a20.431 20.431 0 0 0 5.5 1.5c.551 1.398.884 2.732 1 4-2.4.186-4.734.686-7 1.5a31.116 31.116 0 0 0 11 1c-.82 3.683.513 6.017 4 7z"/><path style="opacity:1" fill="#9f9549" d="M164.5 159.5c1.291-.237 2.291.096 3 1 3.638 1.598 4.638 4.264 3 8 4.755.86 9.088-.14 13-3a4.934 4.934 0 0 1 3 .5 24.257 24.257 0 0 0-3 5.5c-.16 1.653-.826 2.986-2 4-1.804 1.995-3.804 3.662-6 5-3.786-2.642-7.953-4.642-12.5-6l-.5-7.5c.025-2.929.691-5.429 2-7.5z"/><path style="opacity:1" fill="#595a41" d="M181.5 175.5c-1.029 3.391-3.029 6.057-6 8v-3c2.196-1.338 4.196-3.005 6-5z"/><path style="opacity:1" fill="#364613" d="M164.5 159.5c-1.309 2.071-1.975 4.571-2 7.5l.5 7.5c4.547 1.358 8.714 3.358 12.5 6l-8-2a86.818 86.818 0 0 1-5.5-3 145.053 145.053 0 0 1-.5-17c1.291-.237 2.291.096 3 1z"/><path style="opacity:1" fill="#4e754e" d="M175.5 183.5c-5.102 6.441-11.102 11.774-18 16a110.79 110.79 0 0 1 6-7.5 4.934 4.934 0 0 1 3-.5c-.203-1.89.463-3.39 2-4.5a46.428 46.428 0 0 0 7-3.5z"/><path style="opacity:1" fill="#f4f7f8" d="m11.5 111.5 2 5c2.904 15.734 8.904 30.067 18 43 1.746 5.838 4.746 10.838 9 15a17.345 17.345 0 0 0 3.5 7c.816 1.323 1.983 1.989 3.5 2a54.723 54.723 0 0 0 10 11.5c3.582 1.62 6.582 3.953 9 7a4.934 4.934 0 0 0 3 .5c4.152 4.818 9.152 8.485 15 11 .473 1.406 1.473 2.073 3 2 2.747 2.707 6.08 4.373 10 5 4 3.34 8.666 5.34 14 6a61.073 61.073 0 0 0 17-6c1.302 5.144-.365 8.644-5 10.5 1.619.236 2.619 1.069 3 2.5h-77a82.585 82.585 0 0 1 1-14 53.638 53.638 0 0 0-2-7c-3.623-.149-3.957-1.316-1-3.5-1.692-2.935-2.358-6.102-2-9.5h-8c.566-4.306 1.233-4.639 2-1 6.37-1.371 6.37-3.371 0-6 1.63-1.684 3.297-2.351 5-2a25.534 25.534 0 0 1-4.5-4c-.423 1.456-1.256 1.956-2.5 1.5l-4-4 1-1c-1.399-.595-2.732-.428-4 .5a155.146 155.146 0 0 1-2.5-15c-.5-1.167-1.333-2-2.5-2.5-.094-2.407.073-4.907.5-7.5l-1 1a62.669 62.669 0 0 1-8-13c-.805 2.401-1.638 2.234-2.5-.5 1.11-1.813.442-2.646-2-2.5.768-6.138-.399-11.805-3.5-17-.654 1.196-1.154 1.196-1.5 0a69.08 69.08 0 0 1 4-15z"/><path style="opacity:1" fill="#4c734d" d="M47.5 183.5c5.552 1.096 8.885 4.429 10 10 2.211.467 4.211 1.467 6 3a56.666 56.666 0 0 0 6 6 4.934 4.934 0 0 1-3-.5c-2.418-3.047-5.418-5.38-9-7a54.723 54.723 0 0 1-10-11.5z"/><path style="opacity:1" fill="#4a6144" d="M69.5 202.5a63.764 63.764 0 0 1 15 11c-5.848-2.515-10.848-6.182-15-11z"/><path style="opacity:1" fill="#476a46" d="M157.5 199.5c.086.996-.248 1.829-1 2.5a248.252 248.252 0 0 1-28 18.5 61.073 61.073 0 0 1-17 6c-5.334-.66-10-2.66-14-6a75.263 75.263 0 0 1 11 4.5c5.476 1.067 9.81-.6 13-5l5-1-1-1c4.377-.188 8.377-1.521 12-4 5.848-4.874 12.514-9.708 20-14.5z"/><path style="opacity:1" fill="#365338" d="M87.5 215.5a35.156 35.156 0 0 1 10 5c-3.92-.627-7.253-2.293-10-5z"/></svg>