<svg xmlns="http://www.w3.org/2000/svg" width="160" height="172" style="shape-rendering:geometricPrecision;text-rendering:geometricPrecision;image-rendering:optimizeQuality;fill-rule:evenodd;clip-rule:evenodd"><path style="opacity:1" fill="#171717" d="M-.5-.5h160v51c1.02 51.134-20.647 89.301-65 114.5l-13 6.5h-4c-58.108-27.523-84.108-73.523-78-138v-34z"/><path style="opacity:1" fill="#003200" d="M156.5 3.5c-46.17-.332-92.17.001-138 1-.992.172-1.658-.162-2-1a2450.506 2450.506 0 0 1 140 0z"/><path style="opacity:1" fill="#e0e0e0" d="M16.5 3.5c.342.838 1.008 1.172 2 1 2.894 1.382 5.394 3.382 7.5 6l10.5 17c7.635 4.152 15.302 8.319 23 12.5a139.632 139.632 0 0 1 6 9.5 493.061 493.061 0 0 1 4-3c8.184.326 16.184-.008 24-1v-8h21v19c-7.363-.33-14.697.003-22 1l-1 2a74.061 74.061 0 0 1-21 .5L69 58.5c-.163 1.887.67 3.387 2.5 4.5a76.507 76.507 0 0 0 7.5 3.5 45.934 45.934 0 0 1 12.5-1 18.436 18.436 0 0 1-.5 6c-.67-.752-1.504-1.086-2.5-1 .815 1.337 1.981 2.337 3.5 3 .5-4.655.666-9.322.5-14h23v23h-5a50.464 50.464 0 0 0-.5-10c.083 3.811-.75 7.145-2.5 10 .59-5.01-1.41-6.677-6-5a29.831 29.831 0 0 1-2 5 52.204 52.204 0 0 1-1.5-10 46.65 46.65 0 0 1-1.5 8c.535 1.761 1.535 3.094 3 4-.172.992.162 1.658 1 2a78.833 78.833 0 0 0 7 9 124.027 124.027 0 0 0 13 7c2.349 1.841 5.015 3.174 8 4 4.667 1.333 7.667 4.333 9 9 .718 1.637.884 3.303.5 5a78.664 78.664 0 0 1-9 12c-.374-1.991-1.207-3.658-2.5-5a120.087 120.087 0 0 0-9-9.5 303.77 303.77 0 0 1-21-10c-6.195-6.217-11.029-13.383-14.5-21.5a37.852 37.852 0 0 0-5.5-5c-1.411-2.039-3.411-3.039-6-3-5.704-1.51-10.37-4.51-14-9-2.46-8.62-7.127-15.62-14-21-1.411-2.039-3.411-3.039-6-3a38 38 0 0 1-10-4.5 86.673 86.673 0 0 1-7-9.5c-.91-3.492-2.576-6.492-5-9-.667-2.667-2.333-4.333-5-5-1.934-.61-3.6-1.61-5-3-.923-3.564-1.256-7.23-1-11h13z"/><path style="opacity:1" fill="#00ca00" d="M18.5 4.5a4761.58 4761.58 0 0 1 138-1c-.684 19.99-1.184 39.99-1.5 60-.729 19.188-5.729 37.188-15 54-.708-.881-1.542-1.547-2.5-2-1.333-4.667-4.333-7.667-9-9-2.079-2.373-4.746-3.706-8-4a124.027 124.027 0 0 1-13-7 78.833 78.833 0 0 1-7-9 647.298 647.298 0 0 1 51-3c-.166-7.008 0-14.008.5-21 1.927-1.262 1.76-2.262-.5-3-4-4.667-8.333-9-13-13a18.452 18.452 0 0 0-.5-6 12.93 12.93 0 0 0-.5 5h-11c.901-3.74-.432-5.74-4-6-.571 1.86-.571 3.527 0 5-2.217.869-4.55 1.202-7 1v-26c1.333-.667 1.333-1.333 0-2 1.041-4.632.207-8.965-2.5-13a15.024 15.024 0 0 0-2.5 8l-2 1v-4h-9a8.434 8.434 0 0 1-.5 4 41.158 41.158 0 0 0-4-9c-2.333 4.899-3.166 9.899-2.5 15-.31 3.213.023 6.213 1 9v17c-7.674.166-15.34 0-23-.5 1.035-1.507.868-3.007-.5-4.5a18.436 18.436 0 0 0-.5 6 493.061 493.061 0 0 0-4 3 139.632 139.632 0 0 0-6-9.5c-7.698-4.181-15.365-8.348-23-12.5L26 10.5c-2.106-2.618-4.606-4.618-7.5-6z"/><path style="opacity:1" fill="#b2b6b2" d="M115.5 17.5h-4a20.691 20.691 0 0 0-1-5 15.024 15.024 0 0 1 2.5-8c2.707 4.035 3.541 8.368 2.5 13z"/><path style="opacity:1" fill="#0231f8" d="M4.5 14.5c1.4 1.39 3.066 2.39 5 3 1.333 2 3 3.667 5 5 .91 3.492 2.576 6.492 5 9a86.673 86.673 0 0 0 7 9.5 38 38 0 0 0 10 4.5c1.681 1.508 3.681 2.508 6 3 6.873 5.38 11.54 12.38 14 21 3.63 4.49 8.296 7.49 14 9 1.681 1.507 3.681 2.507 6 3a37.852 37.852 0 0 1 5.5 5c3.471 8.117 8.305 15.283 14.5 21.5a303.77 303.77 0 0 0 21 10 120.087 120.087 0 0 1 9 9.5c.667 2.319.834 4.653.5 7-13.775 15.283-30.275 26.117-49.5 32.5-1.566-.608-2.9-1.442-4-2.5v-13a5.728 5.728 0 0 0 1-3c1.197-3.531 3.197-6.531 6-9 4.999 2.991 7.999 7.324 9 13-.039 1.256.461 2.256 1.5 3 .47-1.077.303-2.077-.5-3a32.438 32.438 0 0 0-.5-8l-6.5-8.5c-4.695-.925-7.695.908-9 5.5l-2-5c-.165-3.35.002-6.683.5-10a81.39 81.39 0 0 1 6.5-6.5c.95-.617 1.782-.451 2.5.5 5.475 13.328 6.808 12.661 4-2-4.64-4.883-8.808-4.217-12.5 2l-2-8a98.301 98.301 0 0 0 3-15.5c.18-5.289-1.154-10.122-4-14.5-2.444 3.93-3.444 8.263-3 13a94.102 94.102 0 0 1 1.5 19 53.194 53.194 0 0 0-3.5-7.5c-3.028-1.14-5.195-.306-6.5 2.5-.619 11.596.715 12.263 4 2 1.033 2.533 2.867 4.199 5.5 5 1.258 3.71 1.258 7.377 0 11 .295 2.235-.039 4.235-1 6-1.98-1.644-3.98-3.31-6-5-1.575-1.131-3.241-1.298-5-.5a90.11 90.11 0 0 0-5 15l.5 1.5 3-3c1.303-3.287 2.97-6.287 5-9a49.898 49.898 0 0 1 8 5c.5 7.993.666 15.993.5 24-9.635-4.153-18.302-9.82-26-17a70.915 70.915 0 0 0-2-4 87.099 87.099 0 0 1 1.5-22 47.152 47.152 0 0 0 6-7 67.44 67.44 0 0 1 2 15c3.354-5.166 4.354-10.832 3-17-2.555-2.15-5.388-2.483-8.5-1l-3.5 7c-1.23-5.851-1.23-11.851 0-18a32.856 32.856 0 0 1 5.5-6h2c.32 4.288 1.987 7.955 5 11 .502 1.021 1.168 1.188 2 .5-1.737-5.323-2.404-10.823-2-16.5a32.437 32.437 0 0 0-8 .5c-4.478 7.32-6.478 6.32-6-3 1.806-10.72 1.306-21.22-1.5-31.5-.133 3.025-1.133 5.692-3 8l-.5 7.5A351.26 351.26 0 0 0 37 86.5a58.519 58.519 0 0 0-7.5-8 24.846 24.846 0 0 1-8 1 18.976 18.976 0 0 1-2 8c-1.138 2.803-1.305 5.803-.5 9 1.039-.744 1.539-1.744 1.5-3 1.13-4.457 3.464-8.124 7-11a120.692 120.692 0 0 1 9.5 9 291.262 291.262 0 0 0 0 12 35.986 35.986 0 0 0-5.5-8.5c-2.525-.896-4.692-.396-6.5 1.5-3.246 5.97-3.246 11.97 0 18a2263.636 2263.636 0 0 1 4.5-16c2.715 2.048 5.048 4.382 7 7v28a12.935 12.935 0 0 1-.5 5c-17.85-18.373-28.184-40.373-31-66-1.37-19.491-1.538-38.825-.5-58z"/><path style="opacity:1" fill="#1e1f24" d="M9.5 17.5c2.667.667 4.333 2.333 5 5-2-1.333-3.667-3-5-5z"/><path style="opacity:1" fill="#858684" d="M108.5 13.5c.453.958 1.119 1.792 2 2.5-.837 1.011-1.17 2.178-1 3.5-3.871-.315-7.538.018-11 1h-5c0-.667-.333-1-1-1-.666-5.101.167-10.101 2.5-15a41.158 41.158 0 0 1 4 9 8.434 8.434 0 0 0 .5-4h9v4z"/><path style="opacity:1" fill="#d5d5d5" d="M115.5 19.5v8h-4c.277-2.948-.056-5.78-1-8.5 1.887-.78 3.554-.613 5 .5z"/><path style="opacity:1" fill="#262139" d="M14.5 22.5c2.424 2.508 4.09 5.508 5 9-2.424-2.508-4.09-5.508-5-9z"/><path style="opacity:1" fill="#e1e1e1" d="M93.5 28.5h21v8h-21v-8z"/><path style="opacity:1" fill="#1d1c29" d="M36.5 45.5c2.589-.039 4.589.961 6 3-2.319-.492-4.319-1.492-6-3z"/><path style="opacity:1" fill="#060706" d="M93.5 45.5c-7.816.992-15.816 1.326-24 1a18.436 18.436 0 0 1 .5-6c1.368 1.493 1.535 2.993.5 4.5 7.66.5 15.326.666 23 .5z"/><path style="opacity:1" fill="#252824" d="M138.5 46.5h-12v13c-4.541.17-4.874-.498-1-2a4.451 4.451 0 0 0-2-1.5c1.75-1.754 2.417-3.92 2-6.5-4-.333-4-.667 0-1 .285-1.788-.048-3.455-1-5-.683.363-1.35.696-2 1-.571-1.473-.571-3.14 0-5 3.568.26 4.901 2.26 4 6h11c-.16-1.7.006-3.366.5-5 .495 1.973.662 3.973.5 6z"/><path style="opacity:1" fill="#e4e4e4" d="M138.5 46.5c4.667 4 9 8.333 13 13-11.488.995-23.155 1.328-35 1v-1a52.394 52.394 0 0 1-1-13c2.888.51 5.221-.157 7-2 .65-.304 1.317-.637 2-1 .952 1.545 1.285 3.212 1 5-4 .333-4 .667 0 1 .417 2.58-.25 4.746-2 6.5a4.451 4.451 0 0 1 2 1.5c-3.874 1.502-3.541 2.17 1 2v-13h12z"/><path style="opacity:1" fill="#333433" d="M110.5 12.5a20.691 20.691 0 0 1 1 5h4c1.333.667 1.333 1.333 0 2-1.446-1.113-3.113-1.28-5-.5.944 2.72 1.277 5.552 1 8.5h4v18c2.45.202 4.783-.131 7-1-1.779 1.843-4.112 2.51-7 2a52.394 52.394 0 0 0 1 13h-24c.166 4.678 0 9.345-.5 14-1.519-.663-2.685-1.663-3.5-3 .996-.086 1.83.248 2.5 1 .496-1.973.662-3.973.5-6a45.934 45.934 0 0 0-12.5 1 76.507 76.507 0 0 1-7.5-3.5c-1.83-1.113-2.663-2.613-2.5-4.5l1.5 1.5a74.061 74.061 0 0 0 21-.5l1-2a121.872 121.872 0 0 1 22-1v-19h-21v-1h21v-8h-21c-.977-2.787-1.31-5.787-1-9 .667 0 1 .333 1 1v7h17v-7a18.437 18.437 0 0 0-6 .5c1.154.914.987 1.747-.5 2.5-1.487-.753-1.654-1.586-.5-2.5a12.935 12.935 0 0 0-5-.5c3.462-.982 7.129-1.315 11-1-.17-1.322.163-2.489 1-3.5-.881-.708-1.547-1.542-2-2.5l2-1z"/><path style="opacity:1" fill="#e7e7e7" d="M93.5 20.5h5c1.699-.16 3.366.006 5 .5-1.154.914-.987 1.747.5 2.5 1.487-.753 1.654-1.586.5-2.5a18.437 18.437 0 0 1 6-.5v7h-17v-7z"/><path style="opacity:1" fill="#070807" d="M151.5 59.5c2.26.738 2.427 1.738.5 3-.5 6.992-.666 13.992-.5 21h-1v-10l-34-2h34v-6h-34c11.154-.995 22.488-1.328 34-1v-3c-11.512.328-22.846-.005-34-1 11.845.328 23.512-.005 35-1z"/><path style="opacity:1" fill="#e8e8e8" d="M116.5 65.5h34v6h-34v-6z"/><path style="opacity:1" fill="#131313" d="M88.5 70.5c-5.267-1.062-5.267-2.062 0-3v3z"/><path style="opacity:1" fill="#1a1a1a" d="M134.5 67.5h3v3h-3v-3z"/><path style="opacity:1" fill="#191919" d="M141.5 67.5h3v3h-3v-3zM119.5 67.5h3v3h-3v-3z"/><path style="opacity:1" fill="#737373" d="M115.5 59.5h1v1c11.154.995 22.488 1.328 34 1v3c-11.512-.328-22.846.005-34 1v6l34 2h-34v9h34v1h-43v-1c1.75-2.855 2.583-6.189 2.5-10 .498 3.317.665 6.65.5 10h5v-23z"/><path style="opacity:1" fill="#f5f5f5" d="M150.5 73.5v9h-34v-9h34z"/><path style="opacity:1" fill="#121212" d="M107.5 82.5v1c-2.885-.306-5.552.027-8 1-1.465-.906-2.465-2.239-3-4a46.65 46.65 0 0 0 1.5-8 52.204 52.204 0 0 0 1.5 10 29.831 29.831 0 0 0 2-5c4.59-1.677 6.59-.01 6 5z"/><path style="opacity:1" fill="#1e1e1e" d="M119.5 76.5h3v4h-3v-4z"/><path style="opacity:1" fill="#131313" d="M127.5 76.5c1.086.12 1.753.787 2 2l-1 2c-.929-1.189-1.262-2.522-1-4z"/><path style="opacity:1" fill="#363636" d="M134.5 76.5h3v4h-3v-4z"/><path style="opacity:1" fill="#1f1f1f" d="M141.5 76.5h3v4h-3v-4z"/><path style="opacity:1" fill="#211d33" d="M70.5 78.5c2.589-.039 4.589.961 6 3-2.319-.493-4.319-1.493-6-3z"/><path style="opacity:1" fill="#003200" d="M107.5 83.5h44a647.298 647.298 0 0 0-51 3c-.838-.342-1.172-1.008-1-2 2.448-.973 5.115-1.306 8-1z"/><path style="opacity:1" fill="#d4a00a" d="M48.5 91.5c-.138-3.786-.805-3.786-2 0a32.856 32.856 0 0 0-5.5 6c-1.23 6.149-1.23 12.149 0 18l3.5-7c3.112-1.483 5.945-1.15 8.5 1 1.354 6.168.354 11.834-3 17a67.44 67.44 0 0 0-2-15 47.152 47.152 0 0 1-6 7 87.099 87.099 0 0 0-1.5 22c-.275 2.342-1.108 2.342-2.5 0-.186-2.536-.686-4.869-1.5-7v-13c.79-.283 1.456-.783 2-1.5-1.333-4-1.333-8 0-12-.544-.717-1.21-1.217-2-1.5-1.952-2.618-4.285-4.952-7-7a2263.636 2263.636 0 0 0-4.5 16c-3.246-6.03-3.246-12.03 0-18 1.808-1.896 3.975-2.396 6.5-1.5a35.986 35.986 0 0 1 5.5 8.5 291.262 291.262 0 0 1 0-12 120.692 120.692 0 0 0-9.5-9c-3.536 2.876-5.87 6.543-7 11-.961-1.765-1.295-3.765-1-6a18.976 18.976 0 0 0 2-8c2.719.103 5.385-.23 8-1a58.519 58.519 0 0 1 7.5 8A351.26 351.26 0 0 1 34.5 68l.5-7.5c1.867-2.308 2.867-4.975 3-8 2.806 10.28 3.306 20.78 1.5 31.5-.478 9.32 1.522 10.32 6 3a32.437 32.437 0 0 1 8-.5c-.404 5.677.263 11.177 2 16.5-.832.688-1.498.521-2-.5-3.013-3.045-4.68-6.712-5-11z"/><path style="opacity:1" fill="#35270e" d="M19.5 87.5c-.295 2.235.039 4.235 1 6 .039 1.256-.461 2.256-1.5 3-.805-3.197-.638-6.197.5-9z"/><path style="opacity:1" fill="#1b1329" d="M48.5 91.5h-2c1.195-3.786 1.862-3.786 2 0z"/><path style="opacity:1" fill="#263523" d="M120.5 102.5c3.254.294 5.921 1.627 8 4-2.985-.826-5.651-2.159-8-4z"/><path style="opacity:1" fill="#171131" d="M36.5 105.5c.79.283 1.456.783 2 1.5-1.333 4-1.333 8 0 12-.544.717-1.21 1.217-2 1.5v-15z"/><path style="opacity:1" fill="#d7a209" d="M71.5 112.5c-1.067 3.482-.9 6.815.5 10 .717-.544 1.217-1.211 1.5-2 3.692-6.217 7.86-6.883 12.5-2 2.808 14.661 1.475 15.328-4 2-.718-.951-1.55-1.117-2.5-.5a81.39 81.39 0 0 0-6.5 6.5 50.442 50.442 0 0 0-.5 10c-.32 5.195.013 10.195 1 15v13c-2.174-.25-3.84-1.25-5-3 .166-8.007 0-16.007-.5-24a49.898 49.898 0 0 0-8-5c-2.03 2.713-3.697 5.713-5 9l-3 3-.5-1.5a90.11 90.11 0 0 1 5-15c1.759-.798 3.425-.631 5 .5 2.02 1.69 4.02 3.356 6 5 .06.543.393.876 1 1 1.297-2.473 1.297-4.807 0-7 1.258-3.623 1.258-7.29 0-11-2.633-.801-4.467-2.467-5.5-5-3.285 10.263-4.619 9.596-4-2 1.305-2.806 3.472-3.64 6.5-2.5a53.194 53.194 0 0 1 3.5 7.5 94.102 94.102 0 0 0-1.5-19c-.444-4.737.556-9.07 3-13 2.846 4.378 4.18 9.211 4 14.5a98.301 98.301 0 0 1-3 15.5z"/><path style="opacity:1" fill="#150e22" d="m71.5 112.5 2 8c-.283.789-.783 1.456-1.5 2-1.4-3.185-1.567-6.518-.5-10z"/><path style="opacity:1" fill="#19140c" d="M68.5 127.5c1.297 2.193 1.297 4.527 0 7-.607-.124-.94-.457-1-1 .961-1.765 1.295-3.765 1-6z"/><path style="opacity:1" fill="#daa404" d="M90.5 152.5h-1c-1.001-5.676-4.001-10.009-9-13-2.803 2.469-4.803 5.469-6 9-1.256-2.226-1.256-4.559 0-7 1.305-4.592 4.305-6.425 9-5.5l6.5 8.5c.497 2.646.664 5.313.5 8z"/><path style="opacity:1" fill="#1a1405" d="m72.5 136.5 2 5c-1.256 2.441-1.256 4.774 0 7a5.728 5.728 0 0 1-1 3c-.987-4.805-1.32-9.805-1-15z"/><path style="opacity:1" fill="#130e2f" d="M89.5 152.5h1c.803.923.97 1.923.5 3-1.039-.744-1.539-1.744-1.5-3z"/></svg>