<?xml version="1.0" encoding="UTF-8"?>
<!DOCTYPE svg PUBLIC "-//W3C//DTD SVG 1.1//EN" "http://www.w3.org/Graphics/SVG/1.1/DTD/svg11.dtd">
<svg xmlns="http://www.w3.org/2000/svg" version="1.1" width="321px" height="379px" style="shape-rendering:geometricPrecision; text-rendering:geometricPrecision; image-rendering:optimizeQuality; fill-rule:evenodd; clip-rule:evenodd" xmlns:xlink="http://www.w3.org/1999/xlink">
<g><path style="opacity:1" fill="#fbfbfa" d="M -0.5,-0.5 C 106.5,-0.5 213.5,-0.5 320.5,-0.5C 320.5,125.833 320.5,252.167 320.5,378.5C 213.5,378.5 106.5,378.5 -0.5,378.5C -0.5,252.167 -0.5,125.833 -0.5,-0.5 Z"/></g>
<g><path style="opacity:1" fill="#8f7d78" d="M 23.5,12.5 C 31.2009,12.7709 38.8676,13.1043 46.5,13.5C 41.9605,13.3218 37.4605,13.6551 33,14.5C 29.6499,14.0542 26.4833,13.3875 23.5,12.5 Z"/></g>
<g><path style="opacity:1" fill="#b1a5a1" d="M 108.5,13.5 C 103.959,13.8426 99.6256,13.8426 95.5,13.5C 99.9655,12.2641 104.299,12.2641 108.5,13.5 Z"/></g>
<g><path style="opacity:1" fill="#492e23" d="M 23.5,12.5 C 26.4833,13.3875 29.6499,14.0542 33,14.5C 37.4605,13.6551 41.9605,13.3218 46.5,13.5C 62.8688,13.7687 79.2021,13.7687 95.5,13.5C 99.6256,13.8426 103.959,13.8426 108.5,13.5C 135.099,13.7852 161.766,14.1186 188.5,14.5C 201.682,14.7749 214.682,14.7749 227.5,14.5C 253.865,14.1934 280.199,14.5268 306.5,15.5C 307.494,25.6532 307.828,35.9865 307.5,46.5C 307.167,46.5 306.833,46.5 306.5,46.5C 306.5,38.5 306.5,30.5 306.5,22.5C 305.167,22.5 303.833,22.5 302.5,22.5C 292.833,22.5 283.167,22.5 273.5,22.5C 269.167,22.5 264.833,22.5 260.5,22.5C 251.318,22.1734 242.318,22.5067 233.5,23.5C 229.833,23.5 226.167,23.5 222.5,23.5C 218.149,22.1391 213.816,21.1391 209.5,20.5C 208.791,19.596 207.791,19.2627 206.5,19.5C 206.5,20.5 206.5,21.5 206.5,22.5C 201.636,22.0856 196.969,22.0856 192.5,22.5C 184.947,22.8404 177.447,22.8404 170,22.5C 168.319,22.6083 167.152,23.2749 166.5,24.5C 165.128,23.4884 163.795,22.4884 162.5,21.5C 150.025,20.2563 137.359,20.2563 124.5,21.5C 123.532,23.6074 123.198,25.9407 123.5,28.5C 122.833,27.1667 122.167,25.8333 121.5,24.5C 121.167,24.5 120.833,24.5 120.5,24.5C 119.365,22.7868 117.698,22.1201 115.5,22.5C 99.3368,21.8334 83.0034,21.5001 66.5,21.5C 49.8194,21.5005 33.4861,22.1672 17.5,23.5C 17.1667,23.5 16.8333,23.5 16.5,23.5C 16.5,22.5 16.5,21.5 16.5,20.5C 14.5,20.5 12.5,20.5 10.5,20.5C 10.5,23.5 10.5,26.5 10.5,29.5C 10.6332,32.925 9.96651,33.2583 8.5,30.5C 8.5,24.8333 8.5,19.1667 8.5,13.5C 13.3942,12.9169 18.3942,12.5836 23.5,12.5 Z"/></g>
<g><path style="opacity:1" fill="#94847e" d="M 188.5,14.5 C 201.346,13.2785 214.346,13.2785 227.5,14.5C 214.682,14.7749 201.682,14.7749 188.5,14.5 Z"/></g>
<g><path style="opacity:1" fill="#634d3d" d="M 124.5,21.5 C 137.359,20.2563 150.025,20.2563 162.5,21.5C 160.883,22.038 159.216,22.3713 157.5,22.5C 146.679,21.5054 135.679,21.1721 124.5,21.5 Z"/></g>
<g><path style="opacity:1" fill="#811812" d="M 115.5,22.5 C 107.5,22.5 99.5,22.5 91.5,22.5C 66.7587,22.1768 42.0921,22.5102 17.5,23.5C 33.4861,22.1672 49.8194,21.5005 66.5,21.5C 83.0034,21.5001 99.3368,21.8334 115.5,22.5 Z"/></g>
<g><path style="opacity:1" fill="#857870" d="M 209.5,20.5 C 207.158,21.2107 206.825,22.544 208.5,24.5C 207.167,24.5 206.5,23.8333 206.5,22.5C 206.5,21.5 206.5,20.5 206.5,19.5C 207.791,19.2627 208.791,19.596 209.5,20.5 Z"/></g>
<g><path style="opacity:1" fill="#9e110e" d="M 91.5,22.5 C 99.5,22.5 107.5,22.5 115.5,22.5C 117.698,22.1201 119.365,22.7868 120.5,24.5C 110.677,23.9697 101.01,23.303 91.5,22.5 Z"/></g>
<g><path style="opacity:1" fill="#c30000" d="M 91.5,22.5 C 101.01,23.303 110.677,23.9697 120.5,24.5C 120.833,24.5 121.167,24.5 121.5,24.5C 122.477,35.1988 122.811,45.8655 122.5,56.5C 121.502,87.3288 121.169,118.329 121.5,149.5C 121.5,150.167 121.167,150.5 120.5,150.5C 86.4984,150.667 52.4984,150.5 18.5,150C 17.8549,144.733 17.1882,139.567 16.5,134.5C 16.5,130.5 16.5,126.5 16.5,122.5C 16.1742,89.4268 16.5076,56.4268 17.5,23.5C 42.0921,22.5102 66.7587,22.1768 91.5,22.5 Z"/></g>
<g><path style="opacity:1" fill="#f8f7f6" d="M 162.5,21.5 C 163.795,22.4884 165.128,23.4884 166.5,24.5C 166.833,25.5 167.5,26.1667 168.5,26.5C 204.176,58.3355 239.842,90.1688 275.5,122C 277.388,123.394 279.388,124.56 281.5,125.5C 285.513,130.512 290.179,134.845 295.5,138.5C 296.911,140.914 298.911,142.581 301.5,143.5C 301.5,143.833 301.5,144.167 301.5,144.5C 302.08,148.649 301.414,152.316 299.5,155.5C 297.5,154.167 295.833,152.5 294.5,150.5C 294.649,149.448 294.483,148.448 294,147.5C 288.833,142.667 283.667,137.833 278.5,133C 276.82,133.771 275.153,133.605 273.5,132.5C 269.748,129.959 266.415,126.959 263.5,123.5C 262.415,121.413 260.749,120.08 258.5,119.5C 250.508,112.841 242.841,105.841 235.5,98.5C 234.089,96.086 232.089,94.4194 229.5,93.5C 228.5,93.1667 227.833,92.5 227.5,91.5C 225.1,88.0969 222.1,85.4302 218.5,83.5C 217.5,83.1667 216.833,82.5 216.5,81.5C 215.089,79.086 213.089,77.4194 210.5,76.5C 206.209,73.8769 202.543,70.5436 199.5,66.5C 198.415,64.4131 196.749,63.0798 194.5,62.5C 193.833,62.1667 193.167,61.8333 192.5,61.5C 191.833,60.5 191.167,59.5 190.5,58.5C 189.199,57.1184 188.366,55.4517 188,53.5C 183.167,50 179,45.8333 175.5,41C 170.211,37.3799 165.211,33.3799 160.5,29C 157.453,28.4202 157.119,28.7535 159.5,30C 158.552,30.4828 157.552,30.6495 156.5,30.5C 157.105,42.3087 157.772,53.9754 158.5,65.5C 161.917,69.0956 165.25,72.9289 168.5,77C 173.293,80.2873 177.959,83.7873 182.5,87.5C 199.952,104.074 217.618,120.408 235.5,136.5C 251.941,150.626 268.275,164.626 284.5,178.5C 289.5,183.167 294.5,187.833 299.5,192.5C 299.507,195.038 299.841,197.538 300.5,200C 300.316,201.376 299.649,202.209 298.5,202.5C 292.562,198.894 287.229,194.561 282.5,189.5C 280.1,186.097 277.1,183.43 273.5,181.5C 272.5,181.167 271.833,180.5 271.5,179.5C 270.089,177.086 268.089,175.419 265.5,174.5C 263.833,173.5 262.5,172.167 261.5,170.5C 259.846,166.331 257.179,162.831 253.5,160C 235.551,144.057 217.551,128.057 199.5,112C 198.551,111.383 197.718,111.549 197,112.5C 194.894,109.882 192.394,107.882 189.5,106.5C 188.5,106.167 187.833,105.5 187.5,104.5C 185.1,101.097 182.1,98.4302 178.5,96.5C 171.78,92.1137 165.78,86.7804 160.5,80.5C 159.791,79.596 158.791,79.2627 157.5,79.5C 157.171,92.3443 157.505,105.011 158.5,117.5C 159.5,118.167 160.5,118.833 161.5,119.5C 161.511,121.017 162.177,122.184 163.5,123C 162.004,123.507 160.837,123.007 160,121.5C 159.506,123.134 159.34,124.801 159.5,126.5C 158.5,126.5 157.5,126.5 156.5,126.5C 156.716,140.524 157.716,154.19 159.5,167.5C 170.608,176.768 181.608,186.268 192.5,196C 206.787,206.619 220.787,217.619 234.5,229C 236.193,229.847 237.86,230.68 239.5,231.5C 243.568,235.899 248.235,239.565 253.5,242.5C 258.858,247.186 264.525,251.519 270.5,255.5C 271.585,257.587 273.251,258.92 275.5,259.5C 275.5,260.167 275.833,260.5 276.5,260.5C 276.392,262.783 275.559,264.783 274,266.5C 273.329,267.252 272.496,267.586 271.5,267.5C 270.415,265.413 268.749,264.08 266.5,263.5C 266.027,262.094 265.027,261.427 263.5,261.5C 263.893,257.065 261.56,254.898 256.5,255C 255.809,253.933 255.309,252.766 255,251.5C 245.451,243.616 235.618,236.116 225.5,229C 215.833,221.333 206.167,213.667 196.5,206C 194.482,205.495 192.482,204.995 190.5,204.5C 186.067,201.916 181.734,199.082 177.5,196C 175.627,194.296 173.96,192.463 172.5,190.5C 171.089,188.086 169.089,186.419 166.5,185.5C 164.519,183.856 162.519,182.19 160.5,180.5C 159.548,182.045 159.215,183.712 159.5,185.5C 159.5,188.167 159.5,190.833 159.5,193.5C 158.51,199.645 158.177,205.978 158.5,212.5C 139.833,212.5 121.167,212.5 102.5,212.5C 75.3384,211.502 48.0051,211.169 20.5,211.5C 20.8294,208.772 20.1628,206.438 18.5,204.5C 17.5033,187.008 17.1699,169.341 17.5,151.5C 51.8333,151.5 86.1667,151.5 120.5,151.5C 121.5,151.5 122.5,151.5 123.5,151.5C 125.164,108.841 126.164,65.8411 126.5,22.5C 136.78,22.9267 147.113,22.9267 157.5,22.5C 159.216,22.3713 160.883,22.038 162.5,21.5 Z"/></g>
<g><path style="opacity:1" fill="#374b2c" d="M 192.5,22.5 C 196.163,22.9518 199.83,23.4518 203.5,24C 205.827,26.1417 207.493,28.6417 208.5,31.5C 205.2,28.2677 201.367,25.9344 197,24.5C 194.855,24.396 193.021,25.0627 191.5,26.5C 190.692,26.1924 190.025,25.6924 189.5,25C 186,24.8333 182.5,24.6667 179,24.5C 175.098,24.5123 171.598,25.179 168.5,26.5C 167.5,26.1667 166.833,25.5 166.5,24.5C 167.152,23.2749 168.319,22.6083 170,22.5C 177.447,22.8404 184.947,22.8404 192.5,22.5 Z"/></g>
<g><path style="opacity:1" fill="#f2f2f1" d="M 209.5,20.5 C 213.816,21.1391 218.149,22.1391 222.5,23.5C 223.833,25.5 225.5,27.1667 227.5,28.5C 250.458,50.1197 273.792,71.4531 297.5,92.5C 297.833,92.5 298.167,92.5 298.5,92.5C 298.833,93.1667 299.167,93.8333 299.5,94.5C 299.068,97.8774 299.735,100.877 301.5,103.5C 301.843,105.483 301.176,106.817 299.5,107.5C 294.555,104.189 290.222,100.189 286.5,95.5C 284.1,92.0969 281.1,89.4302 277.5,87.5C 272.687,82.9305 267.687,78.5971 262.5,74.5C 261.306,73.7281 260.306,72.7281 259.5,71.5C 258.952,69.6064 257.952,67.9397 256.5,66.5C 256.709,65.914 257.043,65.414 257.5,65C 247.869,57.0375 238.536,48.7042 229.5,40C 226.144,39.1281 223.144,37.6281 220.5,35.5C 219.5,35.1667 218.833,34.5 218.5,33.5C 216.431,30.4275 213.764,28.0941 210.5,26.5C 209.5,26.1667 208.833,25.5 208.5,24.5C 206.825,22.544 207.158,21.2107 209.5,20.5 Z"/></g>
<g><path style="opacity:1" fill="#315b36" d="M 222.5,23.5 C 226.167,23.5 229.833,23.5 233.5,23.5C 235.167,23.5 236.833,23.5 238.5,23.5C 235.423,24.856 232.09,25.6894 228.5,26C 227.748,26.6708 227.414,27.5041 227.5,28.5C 225.5,27.1667 223.833,25.5 222.5,23.5 Z"/></g>
<g><path style="opacity:1" fill="#3d3729" d="M 273.5,22.5 C 283.167,22.5 292.833,22.5 302.5,22.5C 298.589,27.463 297.922,32.7963 300.5,38.5C 301.274,39.7112 302.107,39.7112 303,38.5C 303.793,41.8603 302.626,44.1936 299.5,45.5C 299.167,44.8333 298.833,44.1667 298.5,43.5C 298.496,39.9726 298.163,36.4726 297.5,33C 297.392,31.3189 296.725,30.1522 295.5,29.5C 296.15,27.5648 296.483,25.5648 296.5,23.5C 289.167,23.5 281.833,23.5 274.5,23.5C 273.833,23.5 273.5,23.1667 273.5,22.5 Z"/></g>
<g><path style="opacity:1" fill="#eeedec" d="M 260.5,22.5 C 264.833,22.5 269.167,22.5 273.5,22.5C 273.5,23.1667 273.833,23.5 274.5,23.5C 275.436,24.9744 276.77,25.9744 278.5,26.5C 282.833,30.5 287.167,34.5 291.5,38.5C 293.475,40.137 295.475,41.8036 297.5,43.5C 297.833,43.5 298.167,43.5 298.5,43.5C 298.833,44.1667 299.167,44.8333 299.5,45.5C 300.423,49.0641 300.756,52.7307 300.5,56.5C 299.5,56.5 298.5,56.5 297.5,56.5C 295.527,55.194 293.861,53.5273 292.5,51.5C 291.089,49.086 289.089,47.4194 286.5,46.5C 280.767,41.4273 274.767,36.7607 268.5,32.5C 265.43,29.4362 262.763,26.1029 260.5,22.5 Z"/></g>
<g><path style="opacity:1" fill="#a69d9e" d="M 210.5,26.5 C 213.764,28.0941 216.431,30.4275 218.5,33.5C 215.236,31.9059 212.569,29.5725 210.5,26.5 Z"/></g>
<g><path style="opacity:1" fill="#414134" d="M 233.5,23.5 C 242.318,22.5067 251.318,22.1734 260.5,22.5C 262.763,26.1029 265.43,29.4362 268.5,32.5C 268.733,34.0618 269.4,35.3951 270.5,36.5C 266.623,35.193 263.289,33.0263 260.5,30C 259.13,28.5587 258.13,26.892 257.5,25C 251.243,23.6827 244.909,23.1827 238.5,23.5C 236.833,23.5 235.167,23.5 233.5,23.5 Z"/></g>
<g><path style="opacity:1" fill="#573b34" d="M 16.5,23.5 C 15.5151,27.6344 15.1818,31.9677 15.5,36.5C 14.5128,41.3054 14.1795,46.3054 14.5,51.5C 13.5,51.5 12.5,51.5 11.5,51.5C 11.825,43.9809 11.4916,36.6476 10.5,29.5C 10.5,26.5 10.5,23.5 10.5,20.5C 12.5,20.5 14.5,20.5 16.5,20.5C 16.5,21.5 16.5,22.5 16.5,23.5 Z"/></g>
<g><path style="opacity:1" fill="#136a33" d="M 291.5,38.5 C 287.167,34.5 282.833,30.5 278.5,26.5C 278.791,25.3509 279.624,24.6842 281,24.5C 284.407,25.6924 287.907,26.359 291.5,26.5C 292.092,29.1272 292.425,31.7938 292.5,34.5C 293.5,34.5 294.5,34.5 295.5,34.5C 295.833,37.5 294.5,38.8333 291.5,38.5 Z"/></g>
<g><path style="opacity:1" fill="#d0c6c2" d="M 124.5,21.5 C 135.679,21.1721 146.679,21.5054 157.5,22.5C 147.113,22.9267 136.78,22.9267 126.5,22.5C 126.164,65.8411 125.164,108.841 123.5,151.5C 123.5,126.833 123.5,102.167 123.5,77.5C 123.5,76.1667 123.5,74.8333 123.5,73.5C 123.5,58.5 123.5,43.5 123.5,28.5C 123.198,25.9407 123.532,23.6074 124.5,21.5 Z"/></g>
<g><path style="opacity:1" fill="#763835" d="M 121.5,24.5 C 122.167,25.8333 122.833,27.1667 123.5,28.5C 123.5,43.5 123.5,58.5 123.5,73.5C 122.511,68.0247 122.178,62.358 122.5,56.5C 122.811,45.8655 122.477,35.1988 121.5,24.5 Z"/></g>
<g><path style="opacity:1" fill="#857263" d="M 306.5,15.5 C 306.56,14.9569 306.893,14.6236 307.5,14.5C 308.499,25.4798 308.832,36.4798 308.5,47.5C 307.833,47.5 307.5,47.1667 307.5,46.5C 307.828,35.9865 307.494,25.6532 306.5,15.5 Z"/></g>
<g><path style="opacity:1" fill="#304f30" d="M 295.5,29.5 C 296.725,30.1522 297.392,31.3189 297.5,33C 298.163,36.4726 298.496,39.9726 298.5,43.5C 298.167,43.5 297.833,43.5 297.5,43.5C 296.676,40.2356 296.342,36.9023 296.5,33.5C 295.325,33.719 294.325,33.3857 293.5,32.5C 294.612,31.7348 295.279,30.7348 295.5,29.5 Z"/></g>
<g><path style="opacity:1" fill="#2b6036" d="M 274.5,23.5 C 281.833,23.5 289.167,23.5 296.5,23.5C 296.483,25.5648 296.15,27.5648 295.5,29.5C 295.279,30.7348 294.612,31.7348 293.5,32.5C 294.325,33.3857 295.325,33.719 296.5,33.5C 296.342,36.9023 296.676,40.2356 297.5,43.5C 295.475,41.8036 293.475,40.137 291.5,38.5C 294.5,38.8333 295.833,37.5 295.5,34.5C 294.5,34.5 293.5,34.5 292.5,34.5C 292.425,31.7938 292.092,29.1272 291.5,26.5C 287.907,26.359 284.407,25.6924 281,24.5C 279.624,24.6842 278.791,25.3509 278.5,26.5C 276.77,25.9744 275.436,24.9744 274.5,23.5 Z"/></g>
<g><path style="opacity:1" fill="#dcdbda" d="M 190.5,58.5 C 179.892,49.7326 169.392,40.7326 159,31.5C 158.505,33.4727 158.338,35.4727 158.5,37.5C 158.5,44.1667 158.5,50.8333 158.5,57.5C 158.5,60.1667 158.5,62.8333 158.5,65.5C 157.772,53.9754 157.105,42.3087 156.5,30.5C 157.552,30.6495 158.552,30.4828 159.5,30C 157.119,28.7535 157.453,28.4202 160.5,29C 165.211,33.3799 170.211,37.3799 175.5,41C 179,45.8333 183.167,50 188,53.5C 188.366,55.4517 189.199,57.1184 190.5,58.5 Z"/></g>
<g><path style="opacity:1" fill="#e3e0e1" d="M 220.5,35.5 C 223.144,37.6281 226.144,39.1281 229.5,40C 238.536,48.7042 247.869,57.0375 257.5,65C 257.043,65.414 256.709,65.914 256.5,66.5C 257.952,67.9397 258.952,69.6064 259.5,71.5C 246.5,59.5 233.5,47.5 220.5,35.5 Z"/></g>
<g><path style="opacity:1" fill="#0b6b32" d="M 208.5,31.5 C 210.966,33.3403 213.632,35.007 216.5,36.5C 216.892,38.1789 217.392,39.8455 218,41.5C 221.016,43.2877 223.516,45.621 225.5,48.5C 227.979,50.0761 230.646,51.0761 233.5,51.5C 233.157,53.4832 233.824,54.8166 235.5,55.5C 236.833,55.8333 238.167,56.1667 239.5,56.5C 240.833,59.5 242.167,62.5 243.5,65.5C 244.833,65.5 246.167,65.5 247.5,65.5C 248.833,66.1667 250.167,66.8333 251.5,67.5C 253.117,70.7843 255.45,73.4509 258.5,75.5C 259.567,78.5677 261.567,80.5677 264.5,81.5C 266.484,81.3832 268.15,82.0499 269.5,83.5C 272.7,86.541 275.367,90.041 277.5,94C 281.783,98.1301 286.449,101.63 291.5,104.5C 291.674,107.763 293.341,109.43 296.5,109.5C 296.663,111.857 296.497,114.19 296,116.5C 294.989,117.337 293.822,117.67 292.5,117.5C 290.527,122.47 286.86,125.137 281.5,125.5C 279.388,124.56 277.388,123.394 275.5,122C 239.842,90.1688 204.176,58.3355 168.5,26.5C 171.598,25.179 175.098,24.5123 179,24.5C 182.5,24.6667 186,24.8333 189.5,25C 190.025,25.6924 190.692,26.1924 191.5,26.5C 193.021,25.0627 194.855,24.396 197,24.5C 201.367,25.9344 205.2,28.2677 208.5,31.5 Z"/></g>
<g><path style="opacity:1" fill="#b3a8ab" d="M 286.5,46.5 C 289.089,47.4194 291.089,49.086 292.5,51.5C 289.911,50.5806 287.911,48.914 286.5,46.5 Z"/></g>
<g><path style="opacity:1" fill="#433b3f" d="M 190.5,58.5 C 191.167,59.5 191.833,60.5 192.5,61.5C 188.559,60.4097 184.892,58.743 181.5,56.5C 179.084,54.3826 177.084,51.8826 175.5,49C 172.475,48.8455 170.809,47.3455 170.5,44.5C 169.041,44.5674 167.708,44.2341 166.5,43.5C 166.5,43.1667 166.5,42.8333 166.5,42.5C 166.586,41.5041 166.252,40.6708 165.5,40C 163.1,39.2564 160.767,38.4231 158.5,37.5C 158.338,35.4727 158.505,33.4727 159,31.5C 169.392,40.7326 179.892,49.7326 190.5,58.5 Z"/></g>
<g><path style="opacity:1" fill="#463d3f" d="M 268.5,32.5 C 274.767,36.7607 280.767,41.4273 286.5,46.5C 287.911,48.914 289.911,50.5806 292.5,51.5C 293.861,53.5273 295.527,55.194 297.5,56.5C 295.833,56.5 294.167,56.5 292.5,56.5C 291.833,56.1667 291.167,55.8333 290.5,55.5C 290.291,54.0783 289.791,52.745 289,51.5C 286.694,50.2699 284.527,48.9366 282.5,47.5C 277.492,44.8213 273.492,41.1546 270.5,36.5C 269.4,35.3951 268.733,34.0618 268.5,32.5 Z"/></g>
<g><path style="opacity:1" fill="#274c32" d="M 216.5,36.5 C 218.606,38.2716 220.273,40.4383 221.5,43C 227.901,45.5141 232.567,49.6807 235.5,55.5C 233.824,54.8166 233.157,53.4832 233.5,51.5C 230.646,51.0761 227.979,50.0761 225.5,48.5C 223.516,45.621 221.016,43.2877 218,41.5C 217.392,39.8455 216.892,38.1789 216.5,36.5 Z"/></g>
<g><path style="opacity:1" fill="#0e6b32" d="M 238.5,23.5 C 244.909,23.1827 251.243,23.6827 257.5,25C 258.13,26.892 259.13,28.5587 260.5,30C 263.289,33.0263 266.623,35.193 270.5,36.5C 273.492,41.1546 277.492,44.8213 282.5,47.5C 284.319,49.4716 285.319,51.8049 285.5,54.5C 287.216,54.6287 288.883,54.962 290.5,55.5C 291.167,55.8333 291.833,56.1667 292.5,56.5C 293.209,57.404 294.209,57.7373 295.5,57.5C 297.271,69.0635 297.937,80.7302 297.5,92.5C 273.792,71.4531 250.458,50.1197 227.5,28.5C 227.414,27.5041 227.748,26.6708 228.5,26C 232.09,25.6894 235.423,24.856 238.5,23.5 Z"/></g>
<g><path style="opacity:1" fill="#1d6135" d="M 166.5,43.5 C 167.708,44.2341 169.041,44.5674 170.5,44.5C 170.809,47.3455 172.475,48.8455 175.5,49C 177.084,51.8826 179.084,54.3826 181.5,56.5C 182.167,57.5 182.833,58.5 183.5,59.5C 178.817,58.8323 176.484,56.1656 176.5,51.5C 173.5,51.5 170.5,51.5 167.5,51.5C 167.599,48.7628 167.265,46.0961 166.5,43.5 Z"/></g>
<g><path style="opacity:1" fill="#423d3d" d="M 192.5,22.5 C 196.969,22.0856 201.636,22.0856 206.5,22.5C 206.5,23.8333 207.167,24.5 208.5,24.5C 208.833,25.5 209.5,26.1667 210.5,26.5C 212.569,29.5725 215.236,31.9059 218.5,33.5C 218.833,34.5 219.5,35.1667 220.5,35.5C 233.5,47.5 246.5,59.5 259.5,71.5C 260.306,72.7281 261.306,73.7281 262.5,74.5C 261.127,74.6567 259.793,74.49 258.5,74C 256.25,71.5778 253.917,69.4111 251.5,67.5C 250.167,66.8333 248.833,66.1667 247.5,65.5C 246.791,64.596 245.791,64.2627 244.5,64.5C 243.849,61.197 242.182,58.5303 239.5,56.5C 238.167,56.1667 236.833,55.8333 235.5,55.5C 232.567,49.6807 227.901,45.5141 221.5,43C 220.273,40.4383 218.606,38.2716 216.5,36.5C 213.632,35.007 210.966,33.3403 208.5,31.5C 207.493,28.6417 205.827,26.1417 203.5,24C 199.83,23.4518 196.163,22.9518 192.5,22.5 Z"/></g>
<g><path style="opacity:1" fill="#2c5332" d="M 282.5,47.5 C 284.527,48.9366 286.694,50.2699 289,51.5C 289.791,52.745 290.291,54.0783 290.5,55.5C 288.883,54.962 287.216,54.6287 285.5,54.5C 285.319,51.8049 284.319,49.4716 282.5,47.5 Z"/></g>
<g><path style="opacity:1" fill="#3e6548" d="M 158.5,37.5 C 160.767,38.4231 163.1,39.2564 165.5,40C 166.252,40.6708 166.586,41.5041 166.5,42.5C 164.621,41.6586 162.621,41.3253 160.5,41.5C 160.386,44.85 160.053,48.1833 159.5,51.5C 159.716,53.3839 160.383,55.0506 161.5,56.5C 160.675,57.3857 159.675,57.719 158.5,57.5C 158.5,50.8333 158.5,44.1667 158.5,37.5 Z"/></g>
<g><path style="opacity:1" fill="#2b4a35" d="M 239.5,56.5 C 242.182,58.5303 243.849,61.197 244.5,64.5C 245.791,64.2627 246.791,64.596 247.5,65.5C 246.167,65.5 244.833,65.5 243.5,65.5C 242.167,62.5 240.833,59.5 239.5,56.5 Z"/></g>
<g><path style="opacity:1" fill="#921c19" d="M 16.5,23.5 C 16.8333,23.5 17.1667,23.5 17.5,23.5C 16.5076,56.4268 16.1742,89.4268 16.5,122.5C 16.1667,122.5 15.8333,122.5 15.5,122.5C 15.5,114.5 15.5,106.5 15.5,98.5C 15.5,77.8333 15.5,57.1667 15.5,36.5C 15.1818,31.9677 15.5151,27.6344 16.5,23.5 Z"/></g>
<g><path style="opacity:1" fill="#b7afb4" d="M 194.5,62.5 C 196.749,63.0798 198.415,64.4131 199.5,66.5C 197.251,65.9202 195.585,64.5869 194.5,62.5 Z"/></g>
<g><path style="opacity:1" fill="#991211" d="M 122.5,56.5 C 122.178,62.358 122.511,68.0247 123.5,73.5C 123.5,74.8333 123.5,76.1667 123.5,77.5C 122.833,101.5 122.167,125.5 121.5,149.5C 121.169,118.329 121.502,87.3288 122.5,56.5 Z"/></g>
<g><path style="opacity:1" fill="#b7b0b2" d="M 210.5,76.5 C 213.089,77.4194 215.089,79.086 216.5,81.5C 213.911,80.5806 211.911,78.914 210.5,76.5 Z"/></g>
<g><path style="opacity:1" fill="#255030" d="M 258.5,75.5 C 261.801,76.1339 263.801,78.1339 264.5,81.5C 261.567,80.5677 259.567,78.5677 258.5,75.5 Z"/></g>
<g><path style="opacity:1" fill="#334426" d="M 295.5,57.5 C 296.161,58.7175 296.828,60.0508 297.5,61.5C 298.499,71.8119 298.832,82.1452 298.5,92.5C 298.167,92.5 297.833,92.5 297.5,92.5C 297.937,80.7302 297.271,69.0635 295.5,57.5 Z"/></g>
<g><path style="opacity:1" fill="#3d2f23" d="M 292.5,56.5 C 294.167,56.5 295.833,56.5 297.5,56.5C 297.5,57.8333 297.5,59.1667 297.5,60.5C 299.806,60.9926 302.139,61.3259 304.5,61.5C 304.483,72.5307 304.65,83.5307 305,94.5C 304.292,95.3805 303.458,96.0472 302.5,96.5C 301.833,96.1667 301.167,95.8333 300.5,95.5C 300.5,94.8333 300.167,94.5 299.5,94.5C 299.167,93.8333 298.833,93.1667 298.5,92.5C 298.832,82.1452 298.499,71.8119 297.5,61.5C 296.828,60.0508 296.161,58.7175 295.5,57.5C 294.209,57.7373 293.209,57.404 292.5,56.5 Z"/></g>
<g><path style="opacity:1" fill="#b7b3b4" d="M 218.5,83.5 C 222.1,85.4302 225.1,88.0969 227.5,91.5C 223.9,89.5698 220.9,86.9031 218.5,83.5 Z"/></g>
<g><path style="opacity:1" fill="#b9bab7" d="M 160.5,80.5 C 158.528,89.4401 157.861,98.7734 158.5,108.5C 158.5,109.833 158.5,111.167 158.5,112.5C 158.5,114.167 158.5,115.833 158.5,117.5C 157.505,105.011 157.171,92.3443 157.5,79.5C 158.791,79.2627 159.791,79.596 160.5,80.5 Z"/></g>
<g><path style="opacity:1" fill="#57372e" d="M 15.5,98.5 C 15.5,106.5 15.5,114.5 15.5,122.5C 15.1729,132.348 15.5062,142.014 16.5,151.5C 16.6665,161.172 16.4998,170.839 16,180.5C 15.6667,171.167 15.3333,161.833 15,152.5C 14.9977,149.949 14.1644,147.949 12.5,146.5C 10.7657,144.317 9.76574,141.65 9.5,138.5C 11.3956,111.256 12.0623,83.9225 11.5,56.5C 12.5,56.5 13.5,56.5 14.5,56.5C 14.1709,70.6766 14.5042,84.6766 15.5,98.5 Z"/></g>
<g><path style="opacity:1" fill="#ada8aa" d="M 277.5,87.5 C 281.1,89.4302 284.1,92.0969 286.5,95.5C 282.9,93.5698 279.9,90.9031 277.5,87.5 Z"/></g>
<g><path style="opacity:1" fill="#4e3d38" d="M 302.5,22.5 C 303.833,22.5 305.167,22.5 306.5,22.5C 306.5,30.5 306.5,38.5 306.5,46.5C 306.957,62.8302 307.29,79.1636 307.5,95.5C 305.871,96.6253 304.371,97.9586 303,99.5C 302.517,98.552 302.351,97.552 302.5,96.5C 303.458,96.0472 304.292,95.3805 305,94.5C 304.65,83.5307 304.483,72.5307 304.5,61.5C 302.139,61.3259 299.806,60.9926 297.5,60.5C 297.5,59.1667 297.5,57.8333 297.5,56.5C 298.5,56.5 299.5,56.5 300.5,56.5C 300.756,52.7307 300.423,49.0641 299.5,45.5C 302.626,44.1936 303.793,41.8603 303,38.5C 302.107,39.7112 301.274,39.7112 300.5,38.5C 297.922,32.7963 298.589,27.463 302.5,22.5 Z"/></g>
<g><path style="opacity:1" fill="#c3b6ac" d="M 308.5,53.5 C 310.492,81.1467 311.158,109.147 310.5,137.5C 309.568,109.667 308.902,81.6675 308.5,53.5 Z"/></g>
<g><path style="opacity:1" fill="#bab6b8" d="M 229.5,93.5 C 232.089,94.4194 234.089,96.086 235.5,98.5C 232.911,97.5806 230.911,95.914 229.5,93.5 Z"/></g>
<g><path style="opacity:1" fill="#c0bdbd" d="M 178.5,96.5 C 182.1,98.4302 185.1,101.097 187.5,104.5C 183.9,102.57 180.9,99.9031 178.5,96.5 Z"/></g>
<g><path style="opacity:1" fill="#a69988" d="M 299.5,94.5 C 300.167,94.5 300.5,94.8333 300.5,95.5C 300.575,98.2062 300.908,100.873 301.5,103.5C 299.735,100.877 299.068,97.8774 299.5,94.5 Z"/></g>
<g><path style="opacity:1" fill="#254b32" d="M 223.5,92.5 C 225.433,94.5958 227.767,96.0958 230.5,97C 232.037,98.1096 232.703,99.6096 232.5,101.5C 230.961,99.471 228.961,97.971 226.5,97C 224.859,95.871 223.859,94.371 223.5,92.5 Z"/></g>
<g><path style="opacity:1" fill="#0b6b32" d="M 166.5,42.5 C 166.5,42.8333 166.5,43.1667 166.5,43.5C 167.265,46.0961 167.599,48.7628 167.5,51.5C 170.5,51.5 173.5,51.5 176.5,51.5C 176.484,56.1656 178.817,58.8323 183.5,59.5C 186.763,59.6743 188.43,61.341 188.5,64.5C 191.787,65.264 194.454,67.0973 196.5,70C 197.793,70.49 199.127,70.6567 200.5,70.5C 200.5,71.8333 200.5,73.1667 200.5,74.5C 202.199,74.3398 203.866,74.5065 205.5,75C 207.94,76.7743 209.606,79.1076 210.5,82C 214.601,85.8343 218.935,89.3343 223.5,92.5C 223.859,94.371 224.859,95.871 226.5,97C 228.961,97.971 230.961,99.471 232.5,101.5C 233.209,102.404 234.209,102.737 235.5,102.5C 235.263,103.791 235.596,104.791 236.5,105.5C 238.285,107.954 240.618,109.621 243.5,110.5C 243.5,111.5 243.5,112.5 243.5,113.5C 245.901,114.049 248.235,114.882 250.5,116C 251.377,118.612 253.043,120.445 255.5,121.5C 258.694,124.272 261.694,127.272 264.5,130.5C 265.665,133.59 267.998,134.924 271.5,134.5C 272.26,138.923 274.927,141.256 279.5,141.5C 280.885,144.173 282.219,146.84 283.5,149.5C 287.402,150.401 290.069,152.734 291.5,156.5C 292.791,156.263 293.791,156.596 294.5,157.5C 294.567,159.401 294.233,161.234 293.5,163C 294.009,164.169 294.842,165.002 296,165.5C 295.923,164.262 296.089,163.262 296.5,162.5C 297.944,164.608 298.61,166.941 298.5,169.5C 295.017,168.916 292.017,169.749 289.5,172C 291.587,171.782 293.587,171.949 295.5,172.5C 294.263,173.281 293.263,174.281 292.5,175.5C 292.833,175.833 293.167,176.167 293.5,176.5C 295.901,173.587 297.234,173.921 297.5,177.5C 292.26,178.413 292.26,179.413 297.5,180.5C 295.334,184.146 293.334,183.813 291.5,179.5C 289.257,178.526 286.924,178.192 284.5,178.5C 268.275,164.626 251.941,150.626 235.5,136.5C 217.618,120.408 199.952,104.074 182.5,87.5C 177.959,83.7873 173.293,80.2873 168.5,77C 165.25,72.9289 161.917,69.0956 158.5,65.5C 158.5,62.8333 158.5,60.1667 158.5,57.5C 159.675,57.719 160.675,57.3857 161.5,56.5C 160.383,55.0506 159.716,53.3839 159.5,51.5C 160.053,48.1833 160.386,44.85 160.5,41.5C 162.621,41.3253 164.621,41.6586 166.5,42.5 Z"/></g>
<g><path style="opacity:1" fill="#4e291e" d="M 10.5,29.5 C 11.4916,36.6476 11.825,43.9809 11.5,51.5C 12.5,51.5 13.5,51.5 14.5,51.5C 14.1795,46.3054 14.5128,41.3054 15.5,36.5C 15.5,57.1667 15.5,77.8333 15.5,98.5C 14.5042,84.6766 14.1709,70.6766 14.5,56.5C 13.5,56.5 12.5,56.5 11.5,56.5C 12.0623,83.9225 11.3956,111.256 9.5,138.5C 9.76574,141.65 10.7657,144.317 12.5,146.5C 11.4183,147.594 10.7517,148.927 10.5,150.5C 10.9086,154.07 10.9086,157.736 10.5,161.5C 9.88258,161.611 9.38258,161.944 9,162.5C 8.50001,118.501 8.33334,74.5013 8.5,30.5C 9.96651,33.2583 10.6332,32.925 10.5,29.5 Z"/></g>
<g><path style="opacity:1" fill="#274731" d="M 180.5,103.5 C 181.708,104.234 183.041,104.567 184.5,104.5C 184.5,105.5 184.5,106.5 184.5,107.5C 187.5,107.167 188.833,108.5 188.5,111.5C 185.983,110.107 184.316,108.107 183.5,105.5C 181.821,105.715 180.821,105.048 180.5,103.5 Z"/></g>
<g><path style="opacity:1" fill="#414039" d="M 251.5,67.5 C 253.917,69.4111 256.25,71.5778 258.5,74C 259.793,74.49 261.127,74.6567 262.5,74.5C 267.687,78.5971 272.687,82.9305 277.5,87.5C 279.9,90.9031 282.9,93.5698 286.5,95.5C 290.222,100.189 294.555,104.189 299.5,107.5C 299.5,107.833 299.5,108.167 299.5,108.5C 297.565,107.85 295.565,107.517 293.5,107.5C 293.715,105.821 293.048,104.821 291.5,104.5C 286.449,101.63 281.783,98.1301 277.5,94C 275.367,90.041 272.7,86.541 269.5,83.5C 268.15,82.0499 266.484,81.3832 264.5,81.5C 263.801,78.1339 261.801,76.1339 258.5,75.5C 255.45,73.4509 253.117,70.7843 251.5,67.5 Z"/></g>
<g><path style="opacity:1" fill="#3d3b37" d="M 181.5,56.5 C 184.892,58.743 188.559,60.4097 192.5,61.5C 193.167,61.8333 193.833,62.1667 194.5,62.5C 195.585,64.5869 197.251,65.9202 199.5,66.5C 202.543,70.5436 206.209,73.8769 210.5,76.5C 211.911,78.914 213.911,80.5806 216.5,81.5C 216.833,82.5 217.5,83.1667 218.5,83.5C 220.9,86.9031 223.9,89.5698 227.5,91.5C 227.833,92.5 228.5,93.1667 229.5,93.5C 230.911,95.914 232.911,97.5806 235.5,98.5C 242.841,105.841 250.508,112.841 258.5,119.5C 259.585,121.587 261.251,122.92 263.5,123.5C 266.415,126.959 269.748,129.959 273.5,132.5C 279.905,139.242 286.905,145.242 294.5,150.5C 295.833,152.5 297.5,154.167 299.5,155.5C 299.5,155.833 299.5,156.167 299.5,156.5C 296.163,154.646 295.163,155.313 296.5,158.5C 295.833,158.167 295.167,157.833 294.5,157.5C 293.791,156.596 292.791,156.263 291.5,156.5C 290.069,152.734 287.402,150.401 283.5,149.5C 282.219,146.84 280.885,144.173 279.5,141.5C 278.526,139.915 277.026,138.915 275,138.5C 273.562,137.1 272.729,135.433 272.5,133.5C 269.496,133.278 266.829,132.278 264.5,130.5C 261.694,127.272 258.694,124.272 255.5,121.5C 254.063,119.473 252.73,117.306 251.5,115C 247.545,112.06 243.545,109.06 239.5,106C 238.552,105.517 237.552,105.351 236.5,105.5C 235.596,104.791 235.263,103.791 235.5,102.5C 234.209,102.737 233.209,102.404 232.5,101.5C 232.703,99.6096 232.037,98.1096 230.5,97C 227.767,96.0958 225.433,94.5958 223.5,92.5C 218.935,89.3343 214.601,85.8343 210.5,82C 209.606,79.1076 207.94,76.7743 205.5,75C 203.866,74.5065 202.199,74.3398 200.5,74.5C 200.5,73.1667 200.5,71.8333 200.5,70.5C 199.127,70.6567 197.793,70.49 196.5,70C 194.454,67.0973 191.787,65.264 188.5,64.5C 188.43,61.341 186.763,59.6743 183.5,59.5C 182.833,58.5 182.167,57.5 181.5,56.5 Z"/></g>
<g><path style="opacity:1" fill="#21653b" d="M 174.5,99.5 C 169.069,99.2141 165.403,96.5474 163.5,91.5C 162.732,95.0708 161.732,98.5708 160.5,102C 161.521,105.134 161.521,108.301 160.5,111.5C 161.191,114.198 161.858,116.865 162.5,119.5C 162.167,119.5 161.833,119.5 161.5,119.5C 160.344,117.176 159.344,114.843 158.5,112.5C 158.5,111.167 158.5,109.833 158.5,108.5C 159.49,102.69 159.823,96.69 159.5,90.5C 161.819,89.833 164.153,89.6664 166.5,90C 168.78,93.6034 171.446,96.77 174.5,99.5 Z"/></g>
<g><path style="opacity:1" fill="#2c4330" d="M 236.5,105.5 C 237.552,105.351 238.552,105.517 239.5,106C 243.545,109.06 247.545,112.06 251.5,115C 252.73,117.306 254.063,119.473 255.5,121.5C 253.043,120.445 251.377,118.612 250.5,116C 248.235,114.882 245.901,114.049 243.5,113.5C 243.5,112.5 243.5,111.5 243.5,110.5C 240.618,109.621 238.285,107.954 236.5,105.5 Z"/></g>
<g><path style="opacity:1" fill="#523623" d="M 306.5,46.5 C 306.833,46.5 307.167,46.5 307.5,46.5C 307.5,47.1667 307.833,47.5 308.5,47.5C 308.5,49.5 308.5,51.5 308.5,53.5C 308.902,81.6675 309.568,109.667 310.5,137.5C 310.315,155.847 310.648,174.181 311.5,192.5C 310.833,192.5 310.167,192.5 309.5,192.5C 309.5,190.833 309.5,189.167 309.5,187.5C 308.729,156.84 308.063,126.173 307.5,95.5C 307.29,79.1636 306.957,62.8302 306.5,46.5 Z"/></g>
<g><path style="opacity:1" fill="#6e8c74" d="M 158.5,112.5 C 159.344,114.843 160.344,117.176 161.5,119.5C 160.5,118.833 159.5,118.167 158.5,117.5C 158.5,115.833 158.5,114.167 158.5,112.5 Z"/></g>
<g><path style="opacity:1" fill="#e9e7e8" d="M 189.5,106.5 C 192.394,107.882 194.894,109.882 197,112.5C 197.718,111.549 198.551,111.383 199.5,112C 217.551,128.057 235.551,144.057 253.5,160C 257.179,162.831 259.846,166.331 261.5,170.5C 249.864,160.865 238.531,150.865 227.5,140.5C 225.1,137.097 222.1,134.43 218.5,132.5C 216.833,131.5 215.5,130.167 214.5,128.5C 213.415,126.413 211.749,125.08 209.5,124.5C 202.509,118.842 195.843,112.842 189.5,106.5 Z"/></g>
<g><path style="opacity:1" fill="#226631" d="M 296.5,109.5 C 298.701,111.475 299.035,113.808 297.5,116.5C 298.06,121.324 298.727,125.99 299.5,130.5C 299.737,131.791 299.404,132.791 298.5,133.5C 298.028,135.531 297.028,137.198 295.5,138.5C 290.179,134.845 285.513,130.512 281.5,125.5C 286.86,125.137 290.527,122.47 292.5,117.5C 293.822,117.67 294.989,117.337 296,116.5C 296.497,114.19 296.663,111.857 296.5,109.5 Z"/></g>
<g><path style="opacity:1" fill="#afa7a6" d="M 258.5,119.5 C 260.749,120.08 262.415,121.413 263.5,123.5C 261.251,122.92 259.585,121.587 258.5,119.5 Z"/></g>
<g><path style="opacity:1" fill="#353f24" d="M 291.5,104.5 C 293.048,104.821 293.715,105.821 293.5,107.5C 295.565,107.517 297.565,107.85 299.5,108.5C 300.5,108.5 301.5,108.5 302.5,108.5C 299.98,115.472 298.98,122.806 299.5,130.5C 298.727,125.99 298.06,121.324 297.5,116.5C 299.035,113.808 298.701,111.475 296.5,109.5C 293.341,109.43 291.674,107.763 291.5,104.5 Z"/></g>
<g><path style="opacity:1" fill="#efefed" d="M 161.5,119.5 C 161.833,119.5 162.167,119.5 162.5,119.5C 191.552,145.374 220.552,171.541 249.5,198C 259.29,205.2 268.957,212.367 278.5,219.5C 281.508,222.502 284.842,225.168 288.5,227.5C 288.5,227.833 288.5,228.167 288.5,228.5C 287.975,231.617 287.641,234.617 287.5,237.5C 277.26,230.927 267.594,223.594 258.5,215.5C 236.656,199.332 215.99,181.665 196.5,162.5C 195.089,160.086 193.089,158.419 190.5,157.5C 190.167,157.5 189.833,157.5 189.5,157.5C 188.833,156.167 187.833,155.167 186.5,154.5C 178.25,146.373 169.583,138.706 160.5,131.5C 160.44,130.957 160.107,130.624 159.5,130.5C 158.175,142.66 158.175,154.66 159.5,166.5C 159.5,166.833 159.5,167.167 159.5,167.5C 157.716,154.19 156.716,140.524 156.5,126.5C 157.5,126.5 158.5,126.5 159.5,126.5C 159.34,124.801 159.506,123.134 160,121.5C 160.837,123.007 162.004,123.507 163.5,123C 162.177,122.184 161.511,121.017 161.5,119.5 Z"/></g>
<g><path style="opacity:1" fill="#1e4d30" d="M 210.5,131.5 C 208.952,131.179 208.285,130.179 208.5,128.5C 207.448,128.649 206.448,128.483 205.5,128C 204.409,126.45 203.076,125.283 201.5,124.5C 202.93,124.579 204.264,124.246 205.5,123.5C 207.464,125.982 209.131,128.648 210.5,131.5 Z"/></g>
<g><path style="opacity:1" fill="#b4b0b3" d="M 209.5,124.5 C 211.749,125.08 213.415,126.413 214.5,128.5C 212.251,127.92 210.585,126.587 209.5,124.5 Z"/></g>
<g><path style="opacity:1" fill="#ada9a9" d="M 218.5,132.5 C 222.1,134.43 225.1,137.097 227.5,140.5C 223.9,138.57 220.9,135.903 218.5,132.5 Z"/></g>
<g><path style="opacity:1" fill="#e4e0e0" d="M 273.5,132.5 C 275.153,133.605 276.82,133.771 278.5,133C 283.667,137.833 288.833,142.667 294,147.5C 294.483,148.448 294.649,149.448 294.5,150.5C 286.905,145.242 279.905,139.242 273.5,132.5 Z"/></g>
<g><path style="opacity:1" fill="#7c3634" d="M 123.5,77.5 C 123.5,102.167 123.5,126.833 123.5,151.5C 122.5,151.5 121.5,151.5 120.5,151.5C 120.5,151.167 120.5,150.833 120.5,150.5C 121.167,150.5 121.5,150.167 121.5,149.5C 122.167,125.5 122.833,101.5 123.5,77.5 Z"/></g>
<g><path style="opacity:1" fill="#2b472e" d="M 264.5,130.5 C 266.829,132.278 269.496,133.278 272.5,133.5C 272.729,135.433 273.562,137.1 275,138.5C 277.026,138.915 278.526,139.915 279.5,141.5C 274.927,141.256 272.26,138.923 271.5,134.5C 267.998,134.924 265.665,133.59 264.5,130.5 Z"/></g>
<g><path style="opacity:1" fill="#3d3c3b" d="M 160.5,131.5 C 169.583,138.706 178.25,146.373 186.5,154.5C 185.817,156.176 184.483,156.843 182.5,156.5C 178.731,153.561 175.398,150.061 172.5,146C 170.261,144.582 167.928,143.415 165.5,142.5C 164.958,139.081 162.958,137.414 159.5,137.5C 159.205,135.265 159.539,133.265 160.5,131.5 Z"/></g>
<g><path style="opacity:1" fill="#b3382e" d="M 16.5,134.5 C 17.1882,139.567 17.8549,144.733 18.5,150C 52.4984,150.5 86.4984,150.667 120.5,150.5C 120.5,150.833 120.5,151.167 120.5,151.5C 86.1667,151.5 51.8333,151.5 17.5,151.5C 16.5476,145.925 16.2143,140.259 16.5,134.5 Z"/></g>
<g><path style="opacity:1" fill="#3f2f21" d="M 306.5,188.5 C 307.117,192.989 305.45,194.656 301.5,193.5C 300.833,193.5 300.5,193.167 300.5,192.5C 301.271,182.345 301.104,172.345 300,162.5C 299.764,160.881 298.931,159.881 297.5,159.5C 297.5,158.833 297.167,158.5 296.5,158.5C 295.163,155.313 296.163,154.646 299.5,156.5C 300.5,156.5 301.5,156.5 302.5,156.5C 302.817,152.298 302.483,148.298 301.5,144.5C 301.5,144.167 301.5,143.833 301.5,143.5C 299.868,140.431 298.868,137.097 298.5,133.5C 299.404,132.791 299.737,131.791 299.5,130.5C 298.98,122.806 299.98,115.472 302.5,108.5C 302.5,106.167 302.5,103.833 302.5,101.5C 303.5,101.5 304.5,101.5 305.5,101.5C 305.686,130.578 306.019,159.578 306.5,188.5 Z"/></g>
<g><path style="opacity:1" fill="#3e3e38" d="M 160.5,80.5 C 165.78,86.7804 171.78,92.1137 178.5,96.5C 180.9,99.9031 183.9,102.57 187.5,104.5C 187.833,105.5 188.5,106.167 189.5,106.5C 195.843,112.842 202.509,118.842 209.5,124.5C 210.585,126.587 212.251,127.92 214.5,128.5C 215.5,130.167 216.833,131.5 218.5,132.5C 220.9,135.903 223.9,138.57 227.5,140.5C 238.531,150.865 249.864,160.865 261.5,170.5C 262.5,172.167 263.833,173.5 265.5,174.5C 266.911,176.914 268.911,178.581 271.5,179.5C 271.833,180.5 272.5,181.167 273.5,181.5C 275.9,184.903 278.9,187.57 282.5,189.5C 287.229,194.561 292.562,198.894 298.5,202.5C 298.5,202.833 298.5,203.167 298.5,203.5C 297.833,203.5 297.167,203.5 296.5,203.5C 294.435,201.784 292.102,200.451 289.5,199.5C 285.804,196.793 282.137,194.127 278.5,191.5C 278.106,189.29 276.773,187.957 274.5,187.5C 270.749,184.754 267.749,181.42 265.5,177.5C 264.041,177.567 262.708,177.234 261.5,176.5C 259.06,174.945 257.06,172.945 255.5,170.5C 254.675,169.614 253.675,169.281 252.5,169.5C 252.5,168.5 252.5,167.5 252.5,166.5C 246.368,164.871 241.868,161.205 239,155.5C 235.73,153.533 232.896,151.199 230.5,148.5C 230.5,147.5 230.5,146.5 230.5,145.5C 227.394,145.064 224.727,143.731 222.5,141.5C 219.407,137.074 215.407,133.741 210.5,131.5C 209.131,128.648 207.464,125.982 205.5,123.5C 204.264,124.246 202.93,124.579 201.5,124.5C 200.313,122.025 198.313,121.025 195.5,121.5C 195.5,120.167 195.5,118.833 195.5,117.5C 191.932,117.241 190.599,115.241 191.5,111.5C 190.5,111.5 189.5,111.5 188.5,111.5C 188.833,108.5 187.5,107.167 184.5,107.5C 184.5,106.5 184.5,105.5 184.5,104.5C 183.041,104.567 181.708,104.234 180.5,103.5C 179.147,101.262 177.147,99.9287 174.5,99.5C 171.446,96.77 168.78,93.6034 166.5,90C 164.153,89.6664 161.819,89.833 159.5,90.5C 159.823,96.69 159.49,102.69 158.5,108.5C 157.861,98.7734 158.528,89.4401 160.5,80.5 Z"/></g>
<g><path style="opacity:1" fill="#415b34" d="M 298.5,133.5 C 298.868,137.097 299.868,140.431 301.5,143.5C 298.911,142.581 296.911,140.914 295.5,138.5C 297.028,137.198 298.028,135.531 298.5,133.5 Z"/></g>
<g><path style="opacity:1" fill="#733128" d="M 15.5,122.5 C 15.8333,122.5 16.1667,122.5 16.5,122.5C 16.5,126.5 16.5,130.5 16.5,134.5C 16.2143,140.259 16.5476,145.925 17.5,151.5C 17.1667,151.5 16.8333,151.5 16.5,151.5C 15.5062,142.014 15.1729,132.348 15.5,122.5 Z"/></g>
<g><path style="opacity:1" fill="#554238" d="M 300.5,95.5 C 301.167,95.8333 301.833,96.1667 302.5,96.5C 302.351,97.552 302.517,98.552 303,99.5C 304.371,97.9586 305.871,96.6253 307.5,95.5C 308.063,126.173 308.729,156.84 309.5,187.5C 308.609,188.11 307.609,188.443 306.5,188.5C 306.019,159.578 305.686,130.578 305.5,101.5C 304.5,101.5 303.5,101.5 302.5,101.5C 302.5,103.833 302.5,106.167 302.5,108.5C 301.5,108.5 300.5,108.5 299.5,108.5C 299.5,108.167 299.5,107.833 299.5,107.5C 301.176,106.817 301.843,105.483 301.5,103.5C 300.908,100.873 300.575,98.2062 300.5,95.5 Z"/></g>
<g><path style="opacity:1" fill="#294a30" d="M 222.5,141.5 C 224.727,143.731 227.394,145.064 230.5,145.5C 230.5,146.5 230.5,147.5 230.5,148.5C 226.598,147.541 223.932,145.208 222.5,141.5 Z"/></g>
<g><path style="opacity:1" fill="#265f3b" d="M 159.5,137.5 C 162.958,137.414 164.958,139.081 165.5,142.5C 164.518,141.859 163.518,141.193 162.5,140.5C 161.191,148.269 160.191,155.935 159.5,163.5C 159.5,154.833 159.5,146.167 159.5,137.5 Z"/></g>
<g><path style="opacity:1" fill="#9b907c" d="M 301.5,144.5 C 302.483,148.298 302.817,152.298 302.5,156.5C 301.5,156.5 300.5,156.5 299.5,156.5C 299.5,156.167 299.5,155.833 299.5,155.5C 301.414,152.316 302.08,148.649 301.5,144.5 Z"/></g>
<g><path style="opacity:1" fill="#0e6b32" d="M 165.5,142.5 C 167.928,143.415 170.261,144.582 172.5,146C 175.398,150.061 178.731,153.561 182.5,156.5C 184.829,160.144 187.829,163.144 191.5,165.5C 193.022,166.562 194.688,167.229 196.5,167.5C 198.262,168.262 199.262,169.596 199.5,171.5C 200.848,172.601 202.348,173.601 204,174.5C 204.483,175.448 204.649,176.448 204.5,177.5C 205.833,177.5 207.167,177.5 208.5,177.5C 213.443,181.5 217.777,186.167 221.5,191.5C 226.255,193.423 229.922,196.59 232.5,201C 235.855,201.488 238.522,202.988 240.5,205.5C 241.263,207.567 242.596,209.234 244.5,210.5C 246.022,211.562 247.688,212.229 249.5,212.5C 250.5,212.833 251.167,213.5 251.5,214.5C 252.167,215.167 252.833,215.833 253.5,216.5C 255.585,218.526 256.918,221.026 257.5,224C 262.727,224.947 267.06,227.447 270.5,231.5C 269.737,232.719 268.737,233.719 267.5,234.5C 269.304,235.768 271.304,236.435 273.5,236.5C 274.086,241.416 276.753,244.416 281.5,245.5C 281.281,244.325 281.614,243.325 282.5,242.5C 283.466,244.396 283.799,246.396 283.5,248.5C 282.167,249.167 281.167,250.167 280.5,251.5C 278.833,254.167 277.167,256.833 275.5,259.5C 274.415,257.413 272.749,256.08 270.5,255.5C 264.525,251.519 258.858,247.186 253.5,242.5C 253.5,241.167 253.5,239.833 253.5,238.5C 249.759,239.401 247.759,238.068 247.5,234.5C 244.99,233.217 242.323,232.217 239.5,231.5C 237.86,230.68 236.193,229.847 234.5,229C 220.787,217.619 206.787,206.619 192.5,196C 181.608,186.268 170.608,176.768 159.5,167.5C 159.5,167.167 159.5,166.833 159.5,166.5C 159.5,165.5 159.5,164.5 159.5,163.5C 160.191,155.935 161.191,148.269 162.5,140.5C 163.518,141.193 164.518,141.859 165.5,142.5 Z"/></g>
<g><path style="opacity:1" fill="#778f7d" d="M 160.5,131.5 C 159.539,133.265 159.205,135.265 159.5,137.5C 159.5,146.167 159.5,154.833 159.5,163.5C 159.5,164.5 159.5,165.5 159.5,166.5C 158.175,154.66 158.175,142.66 159.5,130.5C 160.107,130.624 160.44,130.957 160.5,131.5 Z"/></g>
<g><path style="opacity:1" fill="#aba5a9" d="M 190.5,157.5 C 193.089,158.419 195.089,160.086 196.5,162.5C 193.911,161.581 191.911,159.914 190.5,157.5 Z"/></g>
<g><path style="opacity:1" fill="#2b462f" d="M 186.5,154.5 C 187.833,155.167 188.833,156.167 189.5,157.5C 188.522,157.811 187.855,158.478 187.5,159.5C 190.663,160.324 192.33,162.324 192.5,165.5C 194.38,165.229 195.713,165.896 196.5,167.5C 194.688,167.229 193.022,166.562 191.5,165.5C 187.829,163.144 184.829,160.144 182.5,156.5C 184.483,156.843 185.817,156.176 186.5,154.5 Z"/></g>
<g><path style="opacity:1" fill="#cdc4c0" d="M 7.5,157.5 C 7.5,163.5 7.5,169.5 7.5,175.5C 5.11126,169.528 5.11126,163.528 7.5,157.5 Z"/></g>
<g><path style="opacity:1" fill="#5c473f" d="M 12.5,146.5 C 14.1644,147.949 14.9977,149.949 15,152.5C 15.3333,161.833 15.6667,171.167 16,180.5C 16.4998,170.839 16.6665,161.172 16.5,151.5C 16.8333,151.5 17.1667,151.5 17.5,151.5C 17.1699,169.341 17.5033,187.008 18.5,204.5C 18.3367,206.857 18.5034,209.19 19,211.5C 19.3826,212.056 19.8826,212.389 20.5,212.5C 20.5,212.833 20.5,213.167 20.5,213.5C 19.2426,214.623 19.5759,215.289 21.5,215.5C 21.0183,216.416 20.685,217.416 20.5,218.5C 21.1869,220.177 21.8535,221.844 22.5,223.5C 21.2905,223.932 20.2905,224.599 19.5,225.5C 17.5516,223.68 16.5516,221.346 16.5,218.5C 13.0897,218.384 11.7564,220.05 12.5,223.5C 11.0785,220.706 10.0785,217.706 9.5,214.5C 10.1577,215.398 10.8243,216.398 11.5,217.5C 11.8333,217.333 12.1667,217.167 12.5,217C 13.6295,212.921 13.7961,208.755 13,204.5C 11.1406,203.355 10.3073,201.688 10.5,199.5C 11.0952,196.048 12.0952,192.714 13.5,189.5C 12.4783,188.646 11.6449,187.646 11,186.5C 10.5003,178.173 10.3336,169.84 10.5,161.5C 10.9086,157.736 10.9086,154.07 10.5,150.5C 10.7517,148.927 11.4183,147.594 12.5,146.5 Z"/></g>
<g><path style="opacity:1" fill="#27432b" d="M 199.5,171.5 C 203.683,171.756 206.683,173.756 208.5,177.5C 207.167,177.5 205.833,177.5 204.5,177.5C 204.649,176.448 204.483,175.448 204,174.5C 202.348,173.601 200.848,172.601 199.5,171.5 Z"/></g>
<g><path style="opacity:1" fill="#b7b1b1" d="M 265.5,174.5 C 268.089,175.419 270.089,177.086 271.5,179.5C 268.911,178.581 266.911,176.914 265.5,174.5 Z"/></g>
<g><path style="opacity:1" fill="#34411e" d="M 297.5,159.5 C 298.931,159.881 299.764,160.881 300,162.5C 301.104,172.345 301.271,182.345 300.5,192.5C 300.167,192.5 299.833,192.5 299.5,192.5C 299.85,185.557 299.183,178.723 297.5,172C 299.935,167.856 299.935,163.689 297.5,159.5 Z"/></g>
<g><path style="opacity:1" fill="#256430" d="M 294.5,157.5 C 295.167,157.833 295.833,158.167 296.5,158.5C 297.167,158.5 297.5,158.833 297.5,159.5C 299.935,163.689 299.935,167.856 297.5,172C 299.183,178.723 299.85,185.557 299.5,192.5C 294.5,187.833 289.5,183.167 284.5,178.5C 286.924,178.192 289.257,178.526 291.5,179.5C 293.334,183.813 295.334,184.146 297.5,180.5C 292.26,179.413 292.26,178.413 297.5,177.5C 297.234,173.921 295.901,173.587 293.5,176.5C 293.167,176.167 292.833,175.833 292.5,175.5C 293.263,174.281 294.263,173.281 295.5,172.5C 293.587,171.949 291.587,171.782 289.5,172C 292.017,169.749 295.017,168.916 298.5,169.5C 298.61,166.941 297.944,164.608 296.5,162.5C 296.089,163.262 295.923,164.262 296,165.5C 294.842,165.002 294.009,164.169 293.5,163C 294.233,161.234 294.567,159.401 294.5,157.5 Z"/></g>
<g><path style="opacity:1" fill="#0c6b32" d="M 174.5,99.5 C 177.147,99.9287 179.147,101.262 180.5,103.5C 180.821,105.048 181.821,105.715 183.5,105.5C 184.316,108.107 185.983,110.107 188.5,111.5C 189.5,111.5 190.5,111.5 191.5,111.5C 190.599,115.241 191.932,117.241 195.5,117.5C 195.5,118.833 195.5,120.167 195.5,121.5C 198.313,121.025 200.313,122.025 201.5,124.5C 203.076,125.283 204.409,126.45 205.5,128C 206.448,128.483 207.448,128.649 208.5,128.5C 208.285,130.179 208.952,131.179 210.5,131.5C 215.407,133.741 219.407,137.074 222.5,141.5C 223.932,145.208 226.598,147.541 230.5,148.5C 232.896,151.199 235.73,153.533 239,155.5C 241.868,161.205 246.368,164.871 252.5,166.5C 252.5,167.5 252.5,168.5 252.5,169.5C 253.675,169.281 254.675,169.614 255.5,170.5C 257.06,172.945 259.06,174.945 261.5,176.5C 261.821,178.048 262.821,178.715 264.5,178.5C 266.228,183.225 269.561,186.225 274.5,187.5C 276.773,187.957 278.106,189.29 278.5,191.5C 278.167,194.5 279.5,195.833 282.5,195.5C 282.33,196.822 282.663,197.989 283.5,199C 286.09,200.445 288.757,201.612 291.5,202.5C 292.5,203.167 293.5,203.833 294.5,204.5C 294.344,208.135 293.178,208.468 291,205.5C 290.667,206.5 290.333,207.5 290,208.5C 289.107,207.289 288.274,207.289 287.5,208.5C 290.81,210.441 291.477,213.107 289.5,216.5C 288.448,216.351 287.448,216.517 286.5,217C 284.622,220.442 281.956,221.275 278.5,219.5C 268.957,212.367 259.29,205.2 249.5,198C 220.552,171.541 191.552,145.374 162.5,119.5C 161.858,116.865 161.191,114.198 160.5,111.5C 161.521,108.301 161.521,105.134 160.5,102C 161.732,98.5708 162.732,95.0708 163.5,91.5C 165.403,96.5474 169.069,99.2141 174.5,99.5 Z"/></g>
<g><path style="opacity:1" fill="#b8b2b0" d="M 273.5,181.5 C 277.1,183.43 280.1,186.097 282.5,189.5C 278.9,187.57 275.9,184.903 273.5,181.5 Z"/></g>
<g><path style="opacity:1" fill="#a9a7a6" d="M 166.5,185.5 C 169.089,186.419 171.089,188.086 172.5,190.5C 169.911,189.581 167.911,187.914 166.5,185.5 Z"/></g>
<g><path style="opacity:1" fill="#244a2b" d="M 261.5,176.5 C 262.708,177.234 264.041,177.567 265.5,177.5C 267.749,181.42 270.749,184.754 274.5,187.5C 269.561,186.225 266.228,183.225 264.5,178.5C 262.821,178.715 261.821,178.048 261.5,176.5 Z"/></g>
<g><path style="opacity:1" fill="#345339" d="M 159.5,185.5 C 160.5,185.5 161.5,185.5 162.5,185.5C 162.5,187.167 162.5,188.833 162.5,190.5C 163.93,190.579 165.264,190.246 166.5,189.5C 168.149,191.333 169.816,193 171.5,194.5C 168.817,193.469 166.151,192.469 163.5,191.5C 161.886,191.803 160.552,192.47 159.5,193.5C 159.5,190.833 159.5,188.167 159.5,185.5 Z"/></g>
<g><path style="opacity:1" fill="#a2967d" d="M 299.5,192.5 C 299.833,192.5 300.167,192.5 300.5,192.5C 300.5,193.167 300.833,193.5 301.5,193.5C 301.5,196.833 301.5,200.167 301.5,203.5C 300.5,203.5 299.5,203.5 298.5,203.5C 298.5,203.167 298.5,202.833 298.5,202.5C 299.649,202.209 300.316,201.376 300.5,200C 299.841,197.538 299.507,195.038 299.5,192.5 Z"/></g>
<g><path style="opacity:1" fill="#5c3e2f" d="M 8.5,13.5 C 8.5,19.1667 8.5,24.8333 8.5,30.5C 8.33334,74.5013 8.50001,118.501 9,162.5C 9.38258,161.944 9.88258,161.611 10.5,161.5C 10.3336,169.84 10.5003,178.173 11,186.5C 11.6449,187.646 12.4783,188.646 13.5,189.5C 12.0952,192.714 11.0952,196.048 10.5,199.5C 10.3073,201.688 11.1406,203.355 13,204.5C 13.7961,208.755 13.6295,212.921 12.5,217C 12.1667,217.167 11.8333,217.333 11.5,217.5C 10.8243,216.398 10.1577,215.398 9.5,214.5C 8.77842,214.082 8.27842,213.416 8,212.5C 7.50012,200.171 7.33346,187.838 7.5,175.5C 7.5,169.5 7.5,163.5 7.5,157.5C 7.16784,109.33 7.50118,61.3304 8.5,13.5 Z"/></g>
<g><path style="opacity:1" fill="#4d3928" d="M 309.5,187.5 C 309.5,189.167 309.5,190.833 309.5,192.5C 309.5,195.833 309.5,199.167 309.5,202.5C 308.5,206.5 307.5,210.5 306.5,214.5C 306.662,212.473 306.495,210.473 306,208.5C 304.166,209.696 302.333,210.529 300.5,211C 299.253,208.402 297.92,205.902 296.5,203.5C 297.167,203.5 297.833,203.5 298.5,203.5C 299.5,203.5 300.5,203.5 301.5,203.5C 301.5,200.167 301.5,196.833 301.5,193.5C 305.45,194.656 307.117,192.989 306.5,188.5C 307.609,188.443 308.609,188.11 309.5,187.5 Z"/></g>
<g><path style="opacity:1" fill="#21572a" d="M 278.5,191.5 C 282.137,194.127 285.804,196.793 289.5,199.5C 290.167,200.5 290.833,201.5 291.5,202.5C 288.757,201.612 286.09,200.445 283.5,199C 282.663,197.989 282.33,196.822 282.5,195.5C 279.5,195.833 278.167,194.5 278.5,191.5 Z"/></g>
<g><path style="opacity:1" fill="#b4a596" d="M 309.5,192.5 C 310.167,192.5 310.833,192.5 311.5,192.5C 310.903,195.941 310.237,199.275 309.5,202.5C 309.5,199.167 309.5,195.833 309.5,192.5 Z"/></g>
<g><path style="opacity:1" fill="#393b32" d="M 189.5,157.5 C 189.833,157.5 190.167,157.5 190.5,157.5C 191.911,159.914 193.911,161.581 196.5,162.5C 215.99,181.665 236.656,199.332 258.5,215.5C 256.139,215.326 253.806,214.993 251.5,214.5C 251.167,213.5 250.5,212.833 249.5,212.5C 248.713,210.896 247.38,210.229 245.5,210.5C 245.5,209.5 245.5,208.5 245.5,207.5C 243.486,207.608 241.82,206.942 240.5,205.5C 238.522,202.988 235.855,201.488 232.5,201C 229.922,196.59 226.255,193.423 221.5,191.5C 217.777,186.167 213.443,181.5 208.5,177.5C 206.683,173.756 203.683,171.756 199.5,171.5C 199.262,169.596 198.262,168.262 196.5,167.5C 195.713,165.896 194.38,165.229 192.5,165.5C 192.33,162.324 190.663,160.324 187.5,159.5C 187.855,158.478 188.522,157.811 189.5,157.5 Z"/></g>
<g><path style="opacity:1" fill="#90a492" d="M 159.5,193.5 C 159.207,200.255 159.54,206.922 160.5,213.5C 159.833,213.5 159.167,213.5 158.5,213.5C 158.5,213.167 158.5,212.833 158.5,212.5C 158.177,205.978 158.51,199.645 159.5,193.5 Z"/></g>
<g><path style="opacity:1" fill="#e5e3e2" d="M 190.5,204.5 C 192.482,204.995 194.482,205.495 196.5,206C 206.167,213.667 215.833,221.333 225.5,229C 235.618,236.116 245.451,243.616 255,251.5C 255.309,252.766 255.809,253.933 256.5,255C 261.56,254.898 263.893,257.065 263.5,261.5C 238.62,243.223 214.286,224.223 190.5,204.5 Z"/></g>
<g><path style="opacity:1" fill="#264c29" d="M 240.5,205.5 C 241.82,206.942 243.486,207.608 245.5,207.5C 245.5,208.5 245.5,209.5 245.5,210.5C 247.38,210.229 248.713,210.896 249.5,212.5C 247.688,212.229 246.022,211.562 244.5,210.5C 242.596,209.234 241.263,207.567 240.5,205.5 Z"/></g>
<g><path style="opacity:1" fill="#e7e3e4" d="M 18.5,204.5 C 20.1628,206.438 20.8294,208.772 20.5,211.5C 48.0051,211.169 75.3384,211.502 102.5,212.5C 75.1667,212.5 47.8333,212.5 20.5,212.5C 19.8826,212.389 19.3826,212.056 19,211.5C 18.5034,209.19 18.3367,206.857 18.5,204.5 Z"/></g>
<g><path style="opacity:1" fill="#ac9fa2" d="M 20.5,213.5 C 20.5,213.167 20.5,212.833 20.5,212.5C 47.8333,212.5 75.1667,212.5 102.5,212.5C 121.167,212.5 139.833,212.5 158.5,212.5C 158.5,212.833 158.5,213.167 158.5,213.5C 158.5,216.833 158.5,220.167 158.5,223.5C 158.167,223.5 157.833,223.5 157.5,223.5C 157.5,220.167 157.5,216.833 157.5,213.5C 132.833,213.5 108.167,213.5 83.5,213.5C 62.5,213.5 41.5,213.5 20.5,213.5 Z"/></g>
<g><path style="opacity:1" fill="#59282f" d="M 20.5,213.5 C 41.5,213.5 62.5,213.5 83.5,213.5C 83.5,213.833 83.5,214.167 83.5,214.5C 62.7577,214.179 42.091,214.512 21.5,215.5C 19.5759,215.289 19.2426,214.623 20.5,213.5 Z"/></g>
<g><path style="opacity:1" fill="#5f3941" d="M 83.5,214.5 C 83.5,214.167 83.5,213.833 83.5,213.5C 108.167,213.5 132.833,213.5 157.5,213.5C 157.5,216.833 157.5,220.167 157.5,223.5C 156.691,221.708 156.191,219.708 156,217.5C 155.184,216.177 154.017,215.511 152.5,215.5C 129.673,214.502 106.673,214.169 83.5,214.5 Z"/></g>
<g><path style="opacity:1" fill="#7b1417" d="M 83.5,214.5 C 106.673,214.169 129.673,214.502 152.5,215.5C 109.499,215.333 66.4987,215.5 23.5,216C 22.8619,219.071 22.8619,222.237 23.5,225.5C 22.6618,225.158 22.3284,224.492 22.5,223.5C 21.8535,221.844 21.1869,220.177 20.5,218.5C 20.685,217.416 21.0183,216.416 21.5,215.5C 42.091,214.512 62.7577,214.179 83.5,214.5 Z"/></g>
<g><path style="opacity:1" fill="#c20100" d="M 152.5,215.5 C 154.017,215.511 155.184,216.177 156,217.5C 156.191,219.708 156.691,221.708 157.5,223.5C 157.5,226.833 157.5,230.167 157.5,233.5C 157.333,250.837 157.5,268.17 158,285.5C 158.173,291.348 158.673,297.015 159.5,302.5C 159.5,305.5 159.5,308.5 159.5,311.5C 159.832,323.851 159.499,336.185 158.5,348.5C 156.929,349.309 155.262,349.643 153.5,349.5C 129.832,337.154 107.165,322.987 85.5,307C 81.631,302.963 77.631,299.13 73.5,295.5C 72.8333,294.167 71.8333,293.167 70.5,292.5C 57.5876,279.273 46.2543,264.939 36.5,249.5C 36.6495,248.448 36.4828,247.448 36,246.5C 33.7203,244.386 31.887,242.053 30.5,239.5C 29.2397,234.313 26.9064,229.646 23.5,225.5C 22.8619,222.237 22.8619,219.071 23.5,216C 66.4987,215.5 109.499,215.333 152.5,215.5 Z"/></g>
<g><path style="opacity:1" fill="#2c6630" d="M 294.5,204.5 C 296.727,206.229 297.727,208.562 297.5,211.5C 295.192,214.998 294.025,218.998 294,223.5C 292.743,225.746 290.91,227.079 288.5,227.5C 284.842,225.168 281.508,222.502 278.5,219.5C 281.956,221.275 284.622,220.442 286.5,217C 287.448,216.517 288.448,216.351 289.5,216.5C 291.477,213.107 290.81,210.441 287.5,208.5C 288.274,207.289 289.107,207.289 290,208.5C 290.333,207.5 290.667,206.5 291,205.5C 293.178,208.468 294.344,208.135 294.5,204.5 Z"/></g>
<g><path style="opacity:1" fill="#f3f3f2" d="M 158.5,213.5 C 159.167,213.5 159.833,213.5 160.5,213.5C 191.339,236.304 222.005,259.637 252.5,283.5C 252.833,284.5 253.5,285.167 254.5,285.5C 254.338,288.46 253.005,290.293 250.5,291C 230.796,274.964 210.796,259.297 190.5,244C 189.184,243.472 188.517,243.972 188.5,245.5C 178.931,239.597 169.931,232.931 161.5,225.5C 160.5,224.833 159.5,224.167 158.5,223.5C 158.5,220.167 158.5,216.833 158.5,213.5 Z"/></g>
<g><path style="opacity:1" fill="#cbc0b5" d="M 309.5,202.5 C 309.665,206.182 309.499,209.848 309,213.5C 308.878,215.437 308.045,216.77 306.5,217.5C 306.5,216.5 306.5,215.5 306.5,214.5C 307.5,210.5 308.5,206.5 309.5,202.5 Z"/></g>
<g><path style="opacity:1" fill="#413118" d="M 289.5,199.5 C 292.102,200.451 294.435,201.784 296.5,203.5C 297.92,205.902 299.253,208.402 300.5,211C 302.333,210.529 304.166,209.696 306,208.5C 306.495,210.473 306.662,212.473 306.5,214.5C 305.844,213.722 305.011,213.056 304,212.5C 303.5,212.833 303,213.167 302.5,213.5C 302.363,221.103 299.529,227.437 294,232.5C 293.722,231.584 293.222,230.918 292.5,230.5C 294.718,226.588 295.884,222.255 296,217.5C 296.925,216.953 297.758,216.287 298.5,215.5C 297.754,214.264 297.421,212.93 297.5,211.5C 297.727,208.562 296.727,206.229 294.5,204.5C 293.5,203.833 292.5,203.167 291.5,202.5C 290.833,201.5 290.167,200.5 289.5,199.5 Z"/></g>
<g><path style="opacity:1" fill="#c0b2a6" d="M 306.5,217.5 C 306.946,220.01 306.28,222.01 304.5,223.5C 304.595,221.214 305.262,219.214 306.5,217.5 Z"/></g>
<g><path style="opacity:1" fill="#3b3a30" d="M 166.5,185.5 C 167.911,187.914 169.911,189.581 172.5,190.5C 173.96,192.463 175.627,194.296 177.5,196C 181.734,199.082 186.067,201.916 190.5,204.5C 214.286,224.223 238.62,243.223 263.5,261.5C 263.5,261.833 263.5,262.167 263.5,262.5C 262.508,262.328 261.842,262.662 261.5,263.5C 257.423,261.726 253.757,259.226 250.5,256C 249.207,255.51 247.873,255.343 246.5,255.5C 246.657,254.127 246.49,252.793 246,251.5C 241.989,247.991 237.823,244.658 233.5,241.5C 229.28,240.583 225.947,238.249 223.5,234.5C 219.287,231.448 214.954,228.615 210.5,226C 208.963,224.89 208.297,223.39 208.5,221.5C 206.486,221.608 204.82,220.942 203.5,219.5C 199.618,217.294 196.285,214.294 193.5,210.5C 188.296,209.29 184.63,206.29 182.5,201.5C 178.952,201.051 175.619,200.051 172.5,198.5C 172.567,197.041 172.234,195.708 171.5,194.5C 169.816,193 168.149,191.333 166.5,189.5C 165.264,190.246 163.93,190.579 162.5,190.5C 162.5,188.833 162.5,187.167 162.5,185.5C 161.5,185.5 160.5,185.5 159.5,185.5C 159.215,183.712 159.548,182.045 160.5,180.5C 162.519,182.19 164.519,183.856 166.5,185.5 Z"/></g>
<g><path style="opacity:1" fill="#3c4120" d="M 297.5,211.5 C 297.421,212.93 297.754,214.264 298.5,215.5C 297.758,216.287 296.925,216.953 296,217.5C 295.884,222.255 294.718,226.588 292.5,230.5C 290.938,230.267 289.605,229.6 288.5,228.5C 288.5,228.167 288.5,227.833 288.5,227.5C 290.91,227.079 292.743,225.746 294,223.5C 294.025,218.998 295.192,214.998 297.5,211.5 Z"/></g>
<g><path style="opacity:1" fill="#3d392d" d="M 161.5,225.5 C 169.931,232.931 178.931,239.597 188.5,245.5C 189.833,247.167 191.167,248.833 192.5,250.5C 191.167,250.5 189.833,250.5 188.5,250.5C 188.241,246.932 186.241,245.599 182.5,246.5C 176.753,241.446 170.753,236.613 164.5,232C 163.072,231.421 161.738,231.588 160.5,232.5C 160.737,231.209 160.404,230.209 159.5,229.5C 159.157,227.517 159.824,226.183 161.5,225.5 Z"/></g>
<g><path style="opacity:1" fill="#40412f" d="M 251.5,214.5 C 253.806,214.993 256.139,215.326 258.5,215.5C 267.594,223.594 277.26,230.927 287.5,237.5C 288.209,238.404 289.209,238.737 290.5,238.5C 291.649,238.791 292.316,239.624 292.5,241C 292.472,242.07 292.139,242.903 291.5,243.5C 291.5,242.5 291.5,241.5 291.5,240.5C 288.873,239.908 286.206,239.575 283.5,239.5C 281.223,238.021 278.89,236.521 276.5,235C 274.393,233.736 273.393,231.903 273.5,229.5C 272.448,229.649 271.448,229.483 270.5,229C 266.919,226.686 263.585,224.019 260.5,221C 259.552,220.517 258.552,220.351 257.5,220.5C 257.512,217.858 256.179,216.525 253.5,216.5C 252.833,215.833 252.167,215.167 251.5,214.5 Z"/></g>
<g><path style="opacity:1" fill="#ada48f" d="M 288.5,228.5 C 289.605,229.6 290.938,230.267 292.5,230.5C 291.833,233.167 291.167,235.833 290.5,238.5C 289.209,238.737 288.209,238.404 287.5,237.5C 287.641,234.617 287.975,231.617 288.5,228.5 Z"/></g>
<g><path style="opacity:1" fill="#40754a" d="M 239.5,231.5 C 242.323,232.217 244.99,233.217 247.5,234.5C 247.759,238.068 249.759,239.401 253.5,238.5C 253.5,239.833 253.5,241.167 253.5,242.5C 248.235,239.565 243.568,235.899 239.5,231.5 Z"/></g>
<g><path style="opacity:1" fill="#8c7364" d="M 157.5,223.5 C 157.833,223.5 158.167,223.5 158.5,223.5C 159.5,224.167 160.5,224.833 161.5,225.5C 159.824,226.183 159.157,227.517 159.5,229.5C 159.5,238.833 159.5,248.167 159.5,257.5C 159.5,261.167 159.5,264.833 159.5,268.5C 160.791,268.263 161.791,268.596 162.5,269.5C 161.566,270.568 161.232,271.901 161.5,273.5C 160.5,274.167 159.5,274.833 158.5,275.5C 158.829,261.323 158.496,247.323 157.5,233.5C 157.5,230.167 157.5,226.833 157.5,223.5 Z"/></g>
<g><path style="opacity:1" fill="#1c5a2c" d="M 203.5,219.5 C 204.82,220.942 206.486,221.608 208.5,221.5C 208.297,223.39 208.963,224.89 210.5,226C 214.954,228.615 219.287,231.448 223.5,234.5C 225.947,238.249 229.28,240.583 233.5,241.5C 229.458,241.477 225.792,240.311 222.5,238C 220.554,234.938 218.054,232.438 215,230.5C 213.739,230.759 212.739,231.426 212,232.5C 211.405,231.101 211.572,229.768 212.5,228.5C 209.427,227.803 207.427,225.97 206.5,223C 205.552,222.517 204.552,222.351 203.5,222.5C 203.5,221.5 203.5,220.5 203.5,219.5 Z"/></g>
<g><path style="opacity:1" fill="#29602c" d="M 253.5,216.5 C 256.179,216.525 257.512,217.858 257.5,220.5C 258.552,220.351 259.552,220.517 260.5,221C 263.585,224.019 266.919,226.686 270.5,229C 271.448,229.483 272.448,229.649 273.5,229.5C 273.393,231.903 274.393,233.736 276.5,235C 278.89,236.521 281.223,238.021 283.5,239.5C 284.209,240.404 285.209,240.737 286.5,240.5C 286.38,243.578 285.38,246.245 283.5,248.5C 283.799,246.396 283.466,244.396 282.5,242.5C 281.614,243.325 281.281,244.325 281.5,245.5C 276.753,244.416 274.086,241.416 273.5,236.5C 271.304,236.435 269.304,235.768 267.5,234.5C 268.737,233.719 269.737,232.719 270.5,231.5C 267.06,227.447 262.727,224.947 257.5,224C 256.918,221.026 255.585,218.526 253.5,216.5 Z"/></g>
<g><path style="opacity:1" fill="#136b33" d="M 171.5,194.5 C 172.234,195.708 172.567,197.041 172.5,198.5C 175.619,200.051 178.952,201.051 182.5,201.5C 184.63,206.29 188.296,209.29 193.5,210.5C 196.285,214.294 199.618,217.294 203.5,219.5C 203.5,220.5 203.5,221.5 203.5,222.5C 204.552,222.351 205.552,222.517 206.5,223C 207.427,225.97 209.427,227.803 212.5,228.5C 211.572,229.768 211.405,231.101 212,232.5C 212.739,231.426 213.739,230.759 215,230.5C 218.054,232.438 220.554,234.938 222.5,238C 225.792,240.311 229.458,241.477 233.5,241.5C 233.67,242.822 233.337,243.989 232.5,245C 234.333,245.5 235.5,246.667 236,248.5C 236.414,248.043 236.914,247.709 237.5,247.5C 239.633,249.668 242.133,251.334 245,252.5C 244.594,254.87 244.428,257.204 244.5,259.5C 245.391,260.59 246.391,260.59 247.5,259.5C 248.386,260.325 248.719,261.325 248.5,262.5C 249.5,262.5 250.5,262.5 251.5,262.5C 252.167,258.5 252.833,258.5 253.5,262.5C 256.226,262.264 258.559,263.097 260.5,265C 257.931,267.453 255.598,270.12 253.5,273C 255.024,275.257 256.358,277.59 257.5,280C 257.27,283.788 255.604,284.955 252.5,283.5C 222.005,259.637 191.339,236.304 160.5,213.5C 159.54,206.922 159.207,200.255 159.5,193.5C 160.552,192.47 161.886,191.803 163.5,191.5C 166.151,192.469 168.817,193.469 171.5,194.5 Z"/></g>
<g><path style="opacity:1" fill="#40301b" d="M 283.5,239.5 C 286.206,239.575 288.873,239.908 291.5,240.5C 291.5,241.5 291.5,242.5 291.5,243.5C 287.897,250.645 283.564,257.312 278.5,263.5C 277.614,262.675 277.281,261.675 277.5,260.5C 279.951,258.104 280.951,255.104 280.5,251.5C 281.167,250.167 282.167,249.167 283.5,248.5C 285.38,246.245 286.38,243.578 286.5,240.5C 285.209,240.737 284.209,240.404 283.5,239.5 Z"/></g>
<g><path style="opacity:1" fill="#782e26" d="M 30.5,239.5 C 31.887,242.053 33.7203,244.386 36,246.5C 36.4828,247.448 36.6495,248.448 36.5,249.5C 35.2542,247.099 33.2542,245.599 30.5,245C 31.5361,243.224 31.5361,241.391 30.5,239.5 Z"/></g>
<g><path style="opacity:1" fill="#817e61" d="M 159.5,229.5 C 160.404,230.209 160.737,231.209 160.5,232.5C 160.403,240.84 160.736,249.173 161.5,257.5C 160.833,257.5 160.167,257.5 159.5,257.5C 159.5,248.167 159.5,238.833 159.5,229.5 Z"/></g>
<g><path style="opacity:1" fill="#383c27" d="M 182.5,246.5 C 186.241,245.599 188.241,246.932 188.5,250.5C 189.833,250.5 191.167,250.5 192.5,250.5C 200.81,256.468 209.143,262.468 217.5,268.5C 218.585,270.587 220.251,271.92 222.5,272.5C 230.803,279.128 239.136,285.795 247.5,292.5C 248.573,294.653 248.573,296.653 247.5,298.5C 247.617,296.516 246.95,294.85 245.5,293.5C 239.251,289.778 233.251,285.778 227.5,281.5C 226.599,279.273 224.933,278.273 222.5,278.5C 222.5,277.5 222.5,276.5 222.5,275.5C 219.5,275.833 218.167,274.5 218.5,271.5C 213.925,272.657 211.258,270.99 210.5,266.5C 207.199,263.844 203.532,261.678 199.5,260C 197.598,257.38 195.265,255.213 192.5,253.5C 191.508,253.672 190.842,253.338 190.5,252.5C 187.604,250.792 184.937,248.792 182.5,246.5 Z"/></g>
<g><path style="opacity:1" fill="#e6e5e3" d="M 254.5,285.5 C 255.391,286.11 256.391,286.443 257.5,286.5C 256.34,292.352 253.006,294.352 247.5,292.5C 239.136,285.795 230.803,279.128 222.5,272.5C 221.415,270.413 219.749,269.08 217.5,268.5C 209.143,262.468 200.81,256.468 192.5,250.5C 191.167,248.833 189.833,247.167 188.5,245.5C 188.517,243.972 189.184,243.472 190.5,244C 210.796,259.297 230.796,274.964 250.5,291C 253.005,290.293 254.338,288.46 254.5,285.5 Z"/></g>
<g><path style="opacity:1" fill="#a38f80" d="M 23.5,249.5 C 24.9063,249.973 25.573,250.973 25.5,252.5C 24.0937,252.027 23.427,251.027 23.5,249.5 Z"/></g>
<g><path style="opacity:1" fill="#1b6934" d="M 182.5,246.5 C 184.937,248.792 187.604,250.792 190.5,252.5C 186.837,251.659 183.17,251.159 179.5,251C 178.833,252.667 178.167,254.333 177.5,256C 178.047,256.925 178.713,257.758 179.5,258.5C 181.894,256.932 184.394,255.599 187,254.5C 186.628,256.116 185.961,257.783 185,259.5C 181.024,259.921 176.857,260.754 172.5,262C 174.5,264.333 176.5,266.667 178.5,269C 181.027,269.513 183.193,270.68 185,272.5C 186.261,272.241 187.261,271.574 188,270.5C 189.067,271.191 190.234,271.691 191.5,272C 188.553,272.112 187.22,273.612 187.5,276.5C 181.684,273.075 176.35,268.908 171.5,264C 168.014,262.004 164.681,259.837 161.5,257.5C 160.736,249.173 160.403,240.84 160.5,232.5C 161.738,231.588 163.072,231.421 164.5,232C 170.753,236.613 176.753,241.446 182.5,246.5 Z"/></g>
<g><path style="opacity:1" fill="#748d6a" d="M 270.5,255.5 C 272.749,256.08 274.415,257.413 275.5,259.5C 273.251,258.92 271.585,257.587 270.5,255.5 Z"/></g>
<g><path style="opacity:1" fill="#334623" d="M 280.5,251.5 C 280.951,255.104 279.951,258.104 277.5,260.5C 277.167,260.5 276.833,260.5 276.5,260.5C 275.833,260.5 275.5,260.167 275.5,259.5C 277.167,256.833 278.833,254.167 280.5,251.5 Z"/></g>
<g><path style="opacity:1" fill="#f4f3f2" d="M 159.5,257.5 C 160.167,257.5 160.833,257.5 161.5,257.5C 164.681,259.837 168.014,262.004 171.5,264C 176.35,268.908 181.684,273.075 187.5,276.5C 190.208,279.209 193.208,281.542 196.5,283.5C 203.588,290.256 211.255,296.256 219.5,301.5C 220.833,303.167 222.167,304.833 223.5,306.5C 222.475,306.897 222.308,307.563 223,308.5C 224.925,309.88 226.759,311.38 228.5,313C 227.667,313.833 226.833,314.667 226,315.5C 213.611,304.729 200.778,294.562 187.5,285C 184.005,284.881 181.005,283.715 178.5,281.5C 172.884,277.885 167.55,273.885 162.5,269.5C 161.791,268.596 160.791,268.263 159.5,268.5C 159.5,264.833 159.5,261.167 159.5,257.5 Z"/></g>
<g><path style="opacity:1" fill="#a6a09c" d="M 263.5,262.5 C 263.5,262.167 263.5,261.833 263.5,261.5C 265.027,261.427 266.027,262.094 266.5,263.5C 265.391,263.443 264.391,263.11 263.5,262.5 Z"/></g>
<g><path style="opacity:1" fill="#583226" d="M 22.5,223.5 C 22.3284,224.492 22.6618,225.158 23.5,225.5C 26.9064,229.646 29.2397,234.313 30.5,239.5C 31.5361,241.391 31.5361,243.224 30.5,245C 33.2542,245.599 35.2542,247.099 36.5,249.5C 46.2543,264.939 57.5876,279.273 70.5,292.5C 70.6309,293.376 70.2975,294.043 69.5,294.5C 64.8554,293.648 62.1887,290.981 61.5,286.5C 57.9567,286.128 55.79,284.128 55,280.5C 50.1875,276.532 46.3542,271.865 43.5,266.5C 40.7952,266.62 40.1285,265.62 41.5,263.5C 40.3717,262.738 39.2051,262.071 38,261.5C 37.2105,259.132 36.0438,256.966 34.5,255C 35.0104,253.174 35.8438,253.007 37,254.5C 37.6378,251.07 36.1378,249.737 32.5,250.5C 30.1095,248.121 28.6095,245.121 28,241.5C 26.6667,240.167 25.3333,238.833 24,237.5C 22.21,233.566 20.71,229.566 19.5,225.5C 20.2905,224.599 21.2905,223.932 22.5,223.5 Z"/></g>
<g><path style="opacity:1" fill="#afa095" d="M 31.5,264.5 C 32.9063,264.973 33.573,265.973 33.5,267.5C 32.0937,267.027 31.427,266.027 31.5,264.5 Z"/></g>
<g><path style="opacity:1" fill="#9f9e97" d="M 217.5,268.5 C 219.749,269.08 221.415,270.413 222.5,272.5C 220.251,271.92 218.585,270.587 217.5,268.5 Z"/></g>
<g><path style="opacity:1" fill="#a9968d" d="M 33.5,267.5 C 34.9063,267.973 35.573,268.973 35.5,270.5C 34.0937,270.027 33.427,269.027 33.5,267.5 Z"/></g>
<g><path style="opacity:1" fill="#286530" d="M 233.5,241.5 C 237.823,244.658 241.989,247.991 246,251.5C 246.49,252.793 246.657,254.127 246.5,255.5C 247.873,255.343 249.207,255.51 250.5,256C 253.757,259.226 257.423,261.726 261.5,263.5C 263.216,266.741 265.216,269.741 267.5,272.5C 266.336,277.198 263.669,280.698 259.5,283C 258.695,284.113 258.028,285.279 257.5,286.5C 256.391,286.443 255.391,286.11 254.5,285.5C 253.5,285.167 252.833,284.5 252.5,283.5C 255.604,284.955 257.27,283.788 257.5,280C 256.358,277.59 255.024,275.257 253.5,273C 255.598,270.12 257.931,267.453 260.5,265C 258.559,263.097 256.226,262.264 253.5,262.5C 252.833,258.5 252.167,258.5 251.5,262.5C 250.5,262.5 249.5,262.5 248.5,262.5C 248.719,261.325 248.386,260.325 247.5,259.5C 246.391,260.59 245.391,260.59 244.5,259.5C 244.428,257.204 244.594,254.87 245,252.5C 242.133,251.334 239.633,249.668 237.5,247.5C 236.914,247.709 236.414,248.043 236,248.5C 235.5,246.667 234.333,245.5 232.5,245C 233.337,243.989 233.67,242.822 233.5,241.5 Z"/></g>
<g><path style="opacity:1" fill="#7d6554" d="M 39.5,275.5 C 42.1667,276.167 43.8333,277.833 44.5,280.5C 42.5,279.167 40.8333,277.5 39.5,275.5 Z"/></g>
<g><path style="opacity:1" fill="#106b32" d="M 190.5,252.5 C 190.842,253.338 191.508,253.672 192.5,253.5C 191.785,255.755 190.452,257.588 188.5,259C 190.937,260.375 193.603,260.875 196.5,260.5C 196.5,261.5 196.5,262.5 196.5,263.5C 201.221,262.194 201.888,263.694 198.5,268C 200.888,268.303 203.055,269.137 205,270.5C 204.905,273.996 204.238,277.329 203,280.5C 203.956,279.421 204.789,278.255 205.5,277C 207.135,276.46 208.468,276.96 209.5,278.5C 210.308,278.192 210.975,277.692 211.5,277C 210.449,275.615 209.116,274.615 207.5,274C 207.833,273.667 208.167,273.333 208.5,273C 211.57,272.922 214.57,273.422 217.5,274.5C 217.5,275.833 217.5,277.167 217.5,278.5C 216.022,278.238 214.689,278.571 213.5,279.5C 210.089,282.098 206.589,284.431 203,286.5C 201.157,284.829 198.991,283.829 196.5,283.5C 193.208,281.542 190.208,279.209 187.5,276.5C 187.22,273.612 188.553,272.112 191.5,272C 190.234,271.691 189.067,271.191 188,270.5C 187.261,271.574 186.261,272.241 185,272.5C 183.193,270.68 181.027,269.513 178.5,269C 176.5,266.667 174.5,264.333 172.5,262C 176.857,260.754 181.024,259.921 185,259.5C 185.961,257.783 186.628,256.116 187,254.5C 184.394,255.599 181.894,256.932 179.5,258.5C 178.713,257.758 178.047,256.925 177.5,256C 178.167,254.333 178.833,252.667 179.5,251C 183.17,251.159 186.837,251.659 190.5,252.5 Z"/></g>
<g><path style="opacity:1" fill="#837257" d="M 161.5,273.5 C 161.5,274.167 161.5,274.833 161.5,275.5C 161.194,278.385 161.527,281.052 162.5,283.5C 161.364,288.985 161.364,294.319 162.5,299.5C 162.5,299.833 162.5,300.167 162.5,300.5C 160.586,303.684 159.92,307.351 160.5,311.5C 160.167,311.5 159.833,311.5 159.5,311.5C 159.5,308.5 159.5,305.5 159.5,302.5C 159.748,293.46 159.415,284.46 158.5,275.5C 159.5,274.833 160.5,274.167 161.5,273.5 Z"/></g>
<g><path style="opacity:1" fill="#2e5e2b" d="M 161.5,275.5 C 163.262,275.357 164.929,275.691 166.5,276.5C 168.578,278.92 170.912,280.92 173.5,282.5C 174.441,284.05 175.107,285.716 175.5,287.5C 174.183,290.753 172.183,291.587 169.5,290C 173.236,288.493 173.236,287.66 169.5,287.5C 168.332,284.323 166.999,281.156 165.5,278C 164.551,277.383 163.718,277.549 163,278.5C 162.506,280.134 162.34,281.801 162.5,283.5C 161.527,281.052 161.194,278.385 161.5,275.5 Z"/></g>
<g><path style="opacity:1" fill="#b9aba0" d="M 49.5,286.5 C 52.2427,288.239 54.2427,290.573 55.5,293.5C 52.7573,291.761 50.7573,289.427 49.5,286.5 Z"/></g>
<g><path style="opacity:1" fill="#2a451f" d="M 173.5,282.5 C 174.5,282.5 175.5,282.5 176.5,282.5C 176.281,283.675 176.614,284.675 177.5,285.5C 179.382,286.093 181.215,286.76 183,287.5C 183.49,288.793 183.657,290.127 183.5,291.5C 185.179,291.285 186.179,291.952 186.5,293.5C 185.448,293.649 184.448,293.483 183.5,293C 182.015,289.335 179.349,287.502 175.5,287.5C 175.107,285.716 174.441,284.05 173.5,282.5 Z"/></g>
<g><path style="opacity:1" fill="#e3e2df" d="M 178.5,281.5 C 181.005,283.715 184.005,284.881 187.5,285C 200.778,294.562 213.611,304.729 226,315.5C 226.833,314.667 227.667,313.833 228.5,313C 226.759,311.38 224.925,309.88 223,308.5C 222.308,307.563 222.475,306.897 223.5,306.5C 226.681,307.349 229.348,309.015 231.5,311.5C 231.567,312.959 231.234,314.292 230.5,315.5C 228.685,316.63 226.685,317.296 224.5,317.5C 224.167,317.5 223.833,317.5 223.5,317.5C 208.5,305.5 193.5,293.5 178.5,281.5 Z"/></g>
<g><path style="opacity:1" fill="#4a2511" d="M 19.5,225.5 C 20.71,229.566 22.21,233.566 24,237.5C 25.3333,238.833 26.6667,240.167 28,241.5C 28.6095,245.121 30.1095,248.121 32.5,250.5C 36.1378,249.737 37.6378,251.07 37,254.5C 35.8438,253.007 35.0104,253.174 34.5,255C 36.0438,256.966 37.2105,259.132 38,261.5C 39.2051,262.071 40.3717,262.738 41.5,263.5C 40.1285,265.62 40.7952,266.62 43.5,266.5C 46.3542,271.865 50.1875,276.532 55,280.5C 55.79,284.128 57.9567,286.128 61.5,286.5C 62.1887,290.981 64.8554,293.648 69.5,294.5C 70.2975,294.043 70.6309,293.376 70.5,292.5C 71.8333,293.167 72.8333,294.167 73.5,295.5C 70.316,295.332 69.816,296.666 72,299.5C 75.1667,301.333 77.6667,303.833 79.5,307C 83.2832,307.554 85.9499,309.554 87.5,313C 90.5008,312.906 92.5008,314.239 93.5,317C 97.3677,318.428 100.701,320.595 103.5,323.5C 104.246,324.736 104.579,326.07 104.5,327.5C 111.007,329.62 117.007,332.787 122.5,337C 125.21,338.747 128.21,339.747 131.5,340C 133.841,343.678 137.174,345.678 141.5,346C 143.731,347.61 145.731,349.443 147.5,351.5C 151.842,351.59 155.175,353.423 157.5,357C 160.185,357.504 162.519,358.67 164.5,360.5C 165.107,360.376 165.44,360.043 165.5,359.5C 167.167,359.5 168.833,359.5 170.5,359.5C 168.152,361.097 165.486,362.097 162.5,362.5C 160.064,361.129 157.397,360.129 154.5,359.5C 153.167,359.167 151.833,358.833 150.5,358.5C 148.165,355.835 145.165,354.502 141.5,354.5C 140.652,352.907 139.319,351.74 137.5,351C 139.701,350.223 139.701,349.056 137.5,347.5C 135.487,346.404 133.654,346.737 132,348.5C 130.5,348 129,347.5 127.5,347C 126.657,345.213 126.49,343.38 127,341.5C 124.865,343.278 122.365,343.945 119.5,343.5C 119.027,342.094 118.027,341.427 116.5,341.5C 101.228,333.697 87.5608,323.697 75.5,311.5C 74.0892,309.086 72.0892,307.419 69.5,306.5C 64.8333,302.167 60.1667,297.833 55.5,293.5C 54.2427,290.573 52.2427,288.239 49.5,286.5C 48.2993,284.091 46.6326,282.091 44.5,280.5C 43.8333,277.833 42.1667,276.167 39.5,275.5C 37.9263,274.016 36.593,272.349 35.5,270.5C 35.573,268.973 34.9063,267.973 33.5,267.5C 33.573,265.973 32.9063,264.973 31.5,264.5C 29.6853,260.377 27.6853,256.377 25.5,252.5C 25.573,250.973 24.9063,249.973 23.5,249.5C 19.8331,240.833 16.1665,232.166 12.5,223.5C 11.7564,220.05 13.0897,218.384 16.5,218.5C 16.5516,221.346 17.5516,223.68 19.5,225.5 Z"/></g>
<g><path style="opacity:1" fill="#506c41" d="M 162.5,283.5 C 162.938,288.641 162.938,293.975 162.5,299.5C 161.364,294.319 161.364,288.985 162.5,283.5 Z"/></g>
<g><path style="opacity:1" fill="#1e6a33" d="M 192.5,253.5 C 195.265,255.213 197.598,257.38 199.5,260C 203.532,261.678 207.199,263.844 210.5,266.5C 211.258,270.99 213.925,272.657 218.5,271.5C 218.167,274.5 219.5,275.833 222.5,275.5C 222.5,276.5 222.5,277.5 222.5,278.5C 224.933,278.273 226.599,279.273 227.5,281.5C 228.09,283.097 229.09,284.431 230.5,285.5C 229.462,288.788 230.128,289.121 232.5,286.5C 233.524,287.853 234.857,288.52 236.5,288.5C 236.279,292.275 234.946,295.609 232.5,298.5C 231.326,296.766 229.66,295.766 227.5,295.5C 224.136,295.906 223.136,297.572 224.5,300.5C 225.788,297.085 227.788,296.751 230.5,299.5C 227.331,302.64 223.664,303.307 219.5,301.5C 211.255,296.256 203.588,290.256 196.5,283.5C 198.991,283.829 201.157,284.829 203,286.5C 206.589,284.431 210.089,282.098 213.5,279.5C 214.689,278.571 216.022,278.238 217.5,278.5C 217.5,277.167 217.5,275.833 217.5,274.5C 214.57,273.422 211.57,272.922 208.5,273C 208.167,273.333 207.833,273.667 207.5,274C 209.116,274.615 210.449,275.615 211.5,277C 210.975,277.692 210.308,278.192 209.5,278.5C 208.468,276.96 207.135,276.46 205.5,277C 204.789,278.255 203.956,279.421 203,280.5C 204.238,277.329 204.905,273.996 205,270.5C 203.055,269.137 200.888,268.303 198.5,268C 201.888,263.694 201.221,262.194 196.5,263.5C 196.5,262.5 196.5,261.5 196.5,260.5C 193.603,260.875 190.937,260.375 188.5,259C 190.452,257.588 191.785,255.755 192.5,253.5 Z"/></g>
<g><path style="opacity:1" fill="#833c2f" d="M 157.5,233.5 C 158.496,247.323 158.829,261.323 158.5,275.5C 159.415,284.46 159.748,293.46 159.5,302.5C 158.673,297.015 158.173,291.348 158,285.5C 157.5,268.17 157.333,250.837 157.5,233.5 Z"/></g>
<g><path style="opacity:1" fill="#1d6933" d="M 175.5,287.5 C 179.349,287.502 182.015,289.335 183.5,293C 184.448,293.483 185.448,293.649 186.5,293.5C 188.815,295.142 191.149,296.808 193.5,298.5C 195.256,301.574 197.923,303.574 201.5,304.5C 200.687,305.814 199.687,306.981 198.5,308C 198.957,308.414 199.291,308.914 199.5,309.5C 197.811,313.125 197.144,316.792 197.5,320.5C 199.385,321.197 199.718,322.197 198.5,323.5C 200.304,324.768 202.304,325.435 204.5,325.5C 204.67,324.178 204.337,323.011 203.5,322C 204.701,321.097 205.535,319.931 206,318.5C 207.147,321.399 207.981,324.399 208.5,327.5C 208.272,329.397 207.272,330.73 205.5,331.5C 203.423,329.918 201.09,328.918 198.5,328.5C 186.834,318.846 174.834,309.513 162.5,300.5C 162.5,300.167 162.5,299.833 162.5,299.5C 162.938,293.975 162.938,288.641 162.5,283.5C 162.34,281.801 162.506,280.134 163,278.5C 163.718,277.549 164.551,277.383 165.5,278C 166.999,281.156 168.332,284.323 169.5,287.5C 173.236,287.66 173.236,288.493 169.5,290C 172.183,291.587 174.183,290.753 175.5,287.5 Z"/></g>
<g><path style="opacity:1" fill="#3c3923" d="M 162.5,269.5 C 167.55,273.885 172.884,277.885 178.5,281.5C 193.5,293.5 208.5,305.5 223.5,317.5C 222.1,318.1 221.1,319.1 220.5,320.5C 216.416,316.919 212.416,313.086 208.5,309C 207.552,308.517 206.552,308.351 205.5,308.5C 205.67,307.178 205.337,306.011 204.5,305C 200.548,303.269 196.881,301.102 193.5,298.5C 191.149,296.808 188.815,295.142 186.5,293.5C 186.179,291.952 185.179,291.285 183.5,291.5C 183.657,290.127 183.49,288.793 183,287.5C 181.215,286.76 179.382,286.093 177.5,285.5C 176.614,284.675 176.281,283.675 176.5,282.5C 175.5,282.5 174.5,282.5 173.5,282.5C 170.912,280.92 168.578,278.92 166.5,276.5C 164.929,275.691 163.262,275.357 161.5,275.5C 161.5,274.833 161.5,274.167 161.5,273.5C 161.232,271.901 161.566,270.568 162.5,269.5 Z"/></g>
<g><path style="opacity:1" fill="#543d2b" d="M 306.5,214.5 C 306.5,215.5 306.5,216.5 306.5,217.5C 305.262,219.214 304.595,221.214 304.5,223.5C 283.4,275.604 248.4,315.604 199.5,343.5C 198.209,343.263 197.209,343.596 196.5,344.5C 195.325,344.719 194.325,344.386 193.5,343.5C 194.309,341.929 194.643,340.262 194.5,338.5C 196.933,338.727 198.599,337.727 199.5,335.5C 200.833,335.5 202.167,335.5 203.5,335.5C 203.5,334.5 203.5,333.5 203.5,332.5C 204.873,332.657 206.207,332.49 207.5,332C 211.715,327.947 216.048,324.114 220.5,320.5C 221.1,319.1 222.1,318.1 223.5,317.5C 223.833,317.5 224.167,317.5 224.5,317.5C 227.08,319.016 229.08,318.349 230.5,315.5C 231.234,314.292 231.567,312.959 231.5,311.5C 232.552,311.649 233.552,311.483 234.5,311C 235.878,309.287 237.545,307.953 239.5,307C 240.191,305.933 240.691,304.766 241,303.5C 243.184,301.712 245.351,300.046 247.5,298.5C 248.573,296.653 248.573,294.653 247.5,292.5C 253.006,294.352 256.34,292.352 257.5,286.5C 258.028,285.279 258.695,284.113 259.5,283C 263.669,280.698 266.336,277.198 267.5,272.5C 265.216,269.741 263.216,266.741 261.5,263.5C 261.842,262.662 262.508,262.328 263.5,262.5C 264.391,263.11 265.391,263.443 266.5,263.5C 267.585,265.587 269.251,266.92 271.5,267.5C 272.496,267.586 273.329,267.252 274,266.5C 275.559,264.783 276.392,262.783 276.5,260.5C 276.833,260.5 277.167,260.5 277.5,260.5C 277.281,261.675 277.614,262.675 278.5,263.5C 283.564,257.312 287.897,250.645 291.5,243.5C 292.139,242.903 292.472,242.07 292.5,241C 292.316,239.624 291.649,238.791 290.5,238.5C 291.167,235.833 291.833,233.167 292.5,230.5C 293.222,230.918 293.722,231.584 294,232.5C 299.529,227.437 302.363,221.103 302.5,213.5C 303,213.167 303.5,212.833 304,212.5C 305.011,213.056 305.844,213.722 306.5,214.5 Z"/></g>
<g><path style="opacity:1" fill="#b0a7a0" d="M 266.5,263.5 C 268.749,264.08 270.415,265.413 271.5,267.5C 269.251,266.92 267.585,265.587 266.5,263.5 Z"/></g>
<g><path style="opacity:1" fill="#326731" d="M 227.5,281.5 C 233.251,285.778 239.251,289.778 245.5,293.5C 246.95,294.85 247.617,296.516 247.5,298.5C 245.351,300.046 243.184,301.712 241,303.5C 240.691,304.766 240.191,305.933 239.5,307C 237.545,307.953 235.878,309.287 234.5,311C 233.552,311.483 232.552,311.649 231.5,311.5C 229.348,309.015 226.681,307.349 223.5,306.5C 222.167,304.833 220.833,303.167 219.5,301.5C 223.664,303.307 227.331,302.64 230.5,299.5C 227.788,296.751 225.788,297.085 224.5,300.5C 223.136,297.572 224.136,295.906 227.5,295.5C 229.66,295.766 231.326,296.766 232.5,298.5C 234.946,295.609 236.279,292.275 236.5,288.5C 234.857,288.52 233.524,287.853 232.5,286.5C 230.128,289.121 229.462,288.788 230.5,285.5C 229.09,284.431 228.09,283.097 227.5,281.5 Z"/></g>
<g><path style="opacity:1" fill="#f4f3f2" d="M 162.5,300.5 C 174.834,309.513 186.834,318.846 198.5,328.5C 199.672,330.539 201.338,331.872 203.5,332.5C 203.5,333.5 203.5,334.5 203.5,335.5C 202.167,335.5 200.833,335.5 199.5,335.5C 194.736,333.9 190.07,332.067 185.5,330C 183.264,324.39 179.431,321.224 174,320.5C 173.184,319.177 172.017,318.511 170.5,318.5C 168.246,317.585 166.246,316.252 164.5,314.5C 163.329,313.655 161.995,312.989 160.5,312.5C 160.5,312.167 160.5,311.833 160.5,311.5C 159.92,307.351 160.586,303.684 162.5,300.5 Z"/></g>
<g><path style="opacity:1" fill="#7f6551" d="M 69.5,306.5 C 72.0892,307.419 74.0892,309.086 75.5,311.5C 72.9108,310.581 70.9108,308.914 69.5,306.5 Z"/></g>
<g><path style="opacity:1" fill="#31662f" d="M 193.5,298.5 C 196.881,301.102 200.548,303.269 204.5,305C 205.337,306.011 205.67,307.178 205.5,308.5C 206.552,308.351 207.552,308.517 208.5,309C 212.416,313.086 216.416,316.919 220.5,320.5C 216.048,324.114 211.715,327.947 207.5,332C 206.207,332.49 204.873,332.657 203.5,332.5C 201.338,331.872 199.672,330.539 198.5,328.5C 201.09,328.918 203.423,329.918 205.5,331.5C 207.272,330.73 208.272,329.397 208.5,327.5C 207.981,324.399 207.147,321.399 206,318.5C 205.535,319.931 204.701,321.097 203.5,322C 204.337,323.011 204.67,324.178 204.5,325.5C 202.304,325.435 200.304,324.768 198.5,323.5C 199.718,322.197 199.385,321.197 197.5,320.5C 197.144,316.792 197.811,313.125 199.5,309.5C 199.291,308.914 198.957,308.414 198.5,308C 199.687,306.981 200.687,305.814 201.5,304.5C 197.923,303.574 195.256,301.574 193.5,298.5 Z"/></g>
<g><path style="opacity:1" fill="#898371" d="M 230.5,315.5 C 229.08,318.349 227.08,319.016 224.5,317.5C 226.685,317.296 228.685,316.63 230.5,315.5 Z"/></g>
<g><path style="opacity:1" fill="#413320" d="M 164.5,314.5 C 166.246,316.252 168.246,317.585 170.5,318.5C 174.833,322.5 179.167,326.5 183.5,330.5C 182.577,331.303 181.577,331.47 180.5,331C 174.049,327.37 168.382,322.87 163.5,317.5C 163.263,316.209 163.596,315.209 164.5,314.5 Z"/></g>
<g><path style="opacity:1" fill="#404018" d="M 163.5,317.5 C 168.382,322.87 174.049,327.37 180.5,331C 181.577,331.47 182.577,331.303 183.5,330.5C 183.539,331.583 183.873,332.583 184.5,333.5C 187.316,335.149 189.649,337.316 191.5,340C 191.022,341.642 190.022,342.809 188.5,343.5C 190.058,340.756 189.391,338.59 186.5,337C 178.865,331.22 171.198,325.72 163.5,320.5C 163.5,319.5 163.5,318.5 163.5,317.5 Z"/></g>
<g><path style="opacity:1" fill="#e2dedb" d="M 170.5,318.5 C 172.017,318.511 173.184,319.177 174,320.5C 179.431,321.224 183.264,324.39 185.5,330C 190.07,332.067 194.736,333.9 199.5,335.5C 198.599,337.727 196.933,338.727 194.5,338.5C 191.417,335.092 187.751,332.425 183.5,330.5C 179.167,326.5 174.833,322.5 170.5,318.5 Z"/></g>
<g><path style="opacity:1" fill="#4a622f" d="M 163.5,320.5 C 171.198,325.72 178.865,331.22 186.5,337C 189.391,338.59 190.058,340.756 188.5,343.5C 186.436,343.687 184.436,344.187 182.5,345C 177.34,349.748 171.34,352.581 164.5,353.5C 163.834,342.513 163.501,331.513 163.5,320.5 Z"/></g>
<g><path style="opacity:1" fill="#756543" d="M 160.5,312.5 C 161.995,312.989 163.329,313.655 164.5,314.5C 163.596,315.209 163.263,316.209 163.5,317.5C 163.5,318.5 163.5,319.5 163.5,320.5C 163.501,331.513 163.834,342.513 164.5,353.5C 163.778,353.082 163.278,352.416 163,351.5C 162.026,346.938 161.859,342.438 162.5,338C 162.259,334.938 161.592,332.105 160.5,329.5C 160.5,323.833 160.5,318.167 160.5,312.5 Z"/></g>
<g><path style="opacity:1" fill="#523021" d="M 73.5,295.5 C 77.631,299.13 81.631,302.963 85.5,307C 107.165,322.987 129.832,337.154 153.5,349.5C 154.568,350.434 155.901,350.768 157.5,350.5C 157.281,351.675 157.614,352.675 158.5,353.5C 159.518,352.807 160.518,352.141 161.5,351.5C 163.498,353.833 164.832,356.5 165.5,359.5C 165.44,360.043 165.107,360.376 164.5,360.5C 162.519,358.67 160.185,357.504 157.5,357C 155.175,353.423 151.842,351.59 147.5,351.5C 145.731,349.443 143.731,347.61 141.5,346C 137.174,345.678 133.841,343.678 131.5,340C 128.21,339.747 125.21,338.747 122.5,337C 117.007,332.787 111.007,329.62 104.5,327.5C 104.579,326.07 104.246,324.736 103.5,323.5C 100.701,320.595 97.3677,318.428 93.5,317C 92.5008,314.239 90.5008,312.906 87.5,313C 85.9499,309.554 83.2832,307.554 79.5,307C 77.6667,303.833 75.1667,301.333 72,299.5C 69.816,296.666 70.316,295.332 73.5,295.5 Z"/></g>
<g><path style="opacity:1" fill="#6e3622" d="M 159.5,311.5 C 159.833,311.5 160.167,311.5 160.5,311.5C 160.5,311.833 160.5,312.167 160.5,312.5C 160.5,318.167 160.5,323.833 160.5,329.5C 160.317,336.868 160.65,344.201 161.5,351.5C 160.518,352.141 159.518,352.807 158.5,353.5C 157.614,352.675 157.281,351.675 157.5,350.5C 155.901,350.768 154.568,350.434 153.5,349.5C 155.262,349.643 156.929,349.309 158.5,348.5C 159.499,336.185 159.832,323.851 159.5,311.5 Z"/></g>
<g><path style="opacity:1" fill="#8c7663" d="M 116.5,341.5 C 118.027,341.427 119.027,342.094 119.5,343.5C 117.973,343.573 116.973,342.906 116.5,341.5 Z"/></g>
<g><path style="opacity:1" fill="#593c20" d="M 141.5,354.5 C 133.612,351.889 126.278,348.222 119.5,343.5C 122.365,343.945 124.865,343.278 127,341.5C 126.49,343.38 126.657,345.213 127.5,347C 129,347.5 130.5,348 132,348.5C 133.654,346.737 135.487,346.404 137.5,347.5C 139.701,349.056 139.701,350.223 137.5,351C 139.319,351.74 140.652,352.907 141.5,354.5 Z"/></g>
<g><path style="opacity:1" fill="#483b21" d="M 183.5,330.5 C 187.751,332.425 191.417,335.092 194.5,338.5C 194.643,340.262 194.309,341.929 193.5,343.5C 194.325,344.386 195.325,344.719 196.5,344.5C 192.044,345.935 188.044,348.268 184.5,351.5C 184.539,350.244 184.039,349.244 183,348.5C 179.277,349.885 175.777,351.719 172.5,354C 169.633,354.801 166.966,354.634 164.5,353.5C 171.34,352.581 177.34,349.748 182.5,345C 184.436,344.187 186.436,343.687 188.5,343.5C 190.022,342.809 191.022,341.642 191.5,340C 189.649,337.316 187.316,335.149 184.5,333.5C 183.873,332.583 183.539,331.583 183.5,330.5 Z"/></g>
<g><path style="opacity:1" fill="#553b27" d="M 160.5,329.5 C 161.592,332.105 162.259,334.938 162.5,338C 161.859,342.438 162.026,346.938 163,351.5C 163.278,352.416 163.778,353.082 164.5,353.5C 166.966,354.634 169.633,354.801 172.5,354C 175.777,351.719 179.277,349.885 183,348.5C 184.039,349.244 184.539,350.244 184.5,351.5C 179.916,354.131 175.249,356.798 170.5,359.5C 168.833,359.5 167.167,359.5 165.5,359.5C 164.832,356.5 163.498,353.833 161.5,351.5C 160.65,344.201 160.317,336.868 160.5,329.5 Z"/></g>
<g><path style="opacity:1" fill="#8a705c" d="M 141.5,354.5 C 145.165,354.502 148.165,355.835 150.5,358.5C 147.088,357.925 144.088,356.592 141.5,354.5 Z"/></g>
<g><path style="opacity:1" fill="#69411c" d="M 199.5,343.5 C 192.403,348.08 185.403,352.913 178.5,358C 174.24,359.715 170.073,361.549 166,363.5C 164.615,363.486 163.449,363.152 162.5,362.5C 165.486,362.097 168.152,361.097 170.5,359.5C 175.249,356.798 179.916,354.131 184.5,351.5C 188.044,348.268 192.044,345.935 196.5,344.5C 197.209,343.596 198.209,343.263 199.5,343.5 Z"/></g>
<g><path style="opacity:1" fill="#a5907d" d="M 154.5,359.5 C 157.397,360.129 160.064,361.129 162.5,362.5C 159.284,362.655 156.617,361.655 154.5,359.5 Z"/></g>
</svg>
