<svg xmlns="http://www.w3.org/2000/svg" width="700" height="800"><path style="fill:#fbfbfb" d="M0 399V0h700v798H0z" transform="matrix(.99985 0 0 1.0025 .016 0)"/><path style="fill:#000;fill-opacity:1" d="M328.5 797c-.344-.556-5.14-1.018-10.809-1.041-22.49-.09-57.89-7.912-86.691-19.155-14.828-5.788-42.968-19.495-56.239-27.394-8.89-5.292-33.07-21.613-40.761-27.512-20.972-16.088-63-60.777-63-66.988 0-.986-.426-2.055-.947-2.377-.52-.322-2.234-2.486-3.807-4.81a741.498 741.498 0 0 0-6.46-9.33c-1.98-2.81-4.55-6.86-5.712-9-1.162-2.141-3.681-6.593-5.599-9.893-8.74-15.043-20.957-40.868-25.546-54l-5.346-15.296C13.791 539.352 5 504.196 5 499.882c0-2.063-.473-4.995-1.05-6.515C.97 485.533.712 467.027.35 235.25L-.016 0H700v224.855c0 141.382-.373 229.642-1.005 237.75-2.226 28.573-9.556 66.153-16.971 87.007a1771.718 1771.718 0 0 0-5.181 14.888c-6.713 19.568-28.406 62.096-39.266 76.977a7207.685 7207.685 0 0 0-11.077 15.247c-23.167 31.97-57.541 64.17-92.457 86.609-16.916 10.871-42.937 24.496-57.543 30.13-6.6 2.546-14.03 5.475-16.51 6.508-2.48 1.033-7.205 2.533-10.5 3.334-3.294.8-11.84 3.039-18.99 4.974-16.074 4.35-38.012 7.727-50.191 7.723-5.055 0-9.47.448-9.809.998-.38.614-8.49 1-21 1s-20.62-.386-21-1zm-154-172v-17.5l-56.5-.26c-31.075-.142-57.082-.037-57.793.235-1.94.743 12.106 26.249 18.603 33.785 1.415 1.64 4.714 1.742 48.604 1.5l47.086-.26zm125 0v-17.5l-58.25-.258-58.25-.258v17.341c0 9.538.304 17.645.675 18.016.37.371 26.583.559 58.25.417l57.575-.258zm110 0v-17.5l-50.75-.26-50.75-.258v17.342c0 9.539.304 17.647.676 18.018.372.372 23.209.56 50.75.417l50.074-.259zm114.273-.259.273-17.759-53.273.26-53.273.258-.276 16.462c-.151 9.053-.052 17.045.222 17.758.401 1.045 10.766 1.247 53.276 1.039l52.778-.259zm95.802 17.494c2.766-1.89 20.425-31.527 20.425-34.28 0-.621-19.398-.879-53.75-.714l-53.75.259-.276 16.462c-.151 9.053-.053 17.041.219 17.75.393 1.023 9.282 1.285 43.276 1.273 23.53-.008 43.265-.346 43.856-.75zM111.774 582.25l.273-17.25H38.738l.562 3.463c.31 1.905 3.592 9.787 7.295 17.515l6.733 14.052 29.086-.265 29.086-.265zm121 0 .273-17.25H120V600.017l56.25-.259 56.25-.258zM355 582.5V565H241v35h114zm111 0V565H363v16.833c0 9.259.3 17.134.667 17.5.366.367 23.541.667 51.5.667H466zm113.774-.25.273-17.25H474v16.833c0 9.259.304 17.138.675 17.51.372.37 24.11.558 52.75.416l52.075-.259zm70.084 10c4.925-9.835 9.704-20.949 10.536-24.5l.644-2.75H588v35h57.978zm18.697-50.75c2.87-8.8 5.53-17.462 5.912-19.25l.692-3.25h-5.645c-10.245 0-9.514 2.691-9.514-35.035V451h-43l-.015 32.25c-.01 18.575-.418 32.886-.964 33.75-.81 1.282-5.586 1.5-32.901 1.5-17.574 0-32.264-.31-32.643-.69-.38-.38-.664-14.78-.631-32 .032-17.22-.176-32.098-.461-33.06-.476-1.603-2.524-1.75-24.452-1.75H501v66.05l-2.702 1.027c-1.804.686-12.524.76-32.25.225L436.5 517.5l-.5-33.487-.5-33.488-19.91-.33c-10.95-.183-20.956-.07-22.236.252l-2.327.584-.264 33.235-.263 33.234-31.932.264c-24.88.206-32.11-.015-32.735-1-.441-.695-.81-16.002-.818-34.014L325 450h-48.973l-.264 33.75-.263 33.75-37.708.262c-35.149.244-37.772.142-38.633-1.5-.52-.992-.832-15.084-.715-32.262.115-16.775.014-31.063-.224-31.75-.331-.953-6.108-1.25-24.314-1.25h-23.879l-.264 33.25-.263 33.25h-66l-.5-33-.5-33h-43l-.256 32.5c-.292 37.125.273 35-9.307 35h-5.68l1.794 7.25c.986 3.987 3.666 12.763 5.954 19.502l4.16 12.251 313.586-.251 313.585-.252zM166.2 501.8c-1.854-1.854-1.669-33.166.205-34.721.882-.732 4.327-1.057 9.25-.873l7.845.294.274 17.426c.21 13.272-.029 17.619-1 18.235-2.02 1.281-15.219.994-16.574-.361zm125.243-.087c-.271-.707-.37-8.92-.218-18.25l.275-16.963 7.98-.296c6.645-.247 8.192-.006 9.25 1.44 1.585 2.17 1.785 30.526.235 33.422-.891 1.665-2.15 1.934-9.032 1.934-5.596 0-8.144-.386-8.49-1.287zm224.757.087c-1.854-1.854-1.669-33.166.205-34.721.882-.732 4.327-1.057 9.25-.873l7.845.294.274 17.426c.21 13.272-.029 17.619-1 18.235-2.02 1.281-15.219.994-16.574-.361zm-462.497-.43c-.387-.387-.703-8.712-.703-18.501 0-16.574.133-17.87 1.934-18.834 2.926-1.566 14.59-1.313 15.967.346.791.953 1.061 6.918.873 19.25L71.5 501.5l-8.547.286c-4.701.157-8.864-.03-9.25-.417zm350 0c-.387-.387-.703-8.905-.703-18.93 0-20.79-.652-19.44 9.39-19.44 9.906 0 9.703-.443 9.384 20.504L421.5 501.5l-8.547.286c-4.701.157-8.864-.03-9.25-.417zm223.904-.952c-.334-.87-.607-8.938-.607-17.928 0-19.652-.083-19.49 10-19.49 10.106 0 10-.21 10 19.871 0 11.678-.362 17.091-1.2 17.929-.738.738-4.354 1.2-9.393 1.2-6.548 0-8.315-.318-8.8-1.582zM141 479.065c0-18.174.417-33.032.968-34.482l.969-2.547 23.781-.268 23.782-.268.255-95.25.255-95.25H53v191l11.75.205c6.463.113 14.45.227 17.75.254 3.3.026 6.563.41 7.25.853.958.618 1.25 8.457 1.25 33.58 0 18.026.3 33.075.667 33.441.366.367 11.616.667 25 .667H141zm-30.536-59.299c-.274-.713-.378-13.215-.231-27.782l.267-26.484 11.102-.281c8.575-.218 11.366.038 12.266 1.122.838 1.01 1.09 8.822.899 27.782L134.5 420.5l-11.77.282c-8.929.214-11.888-.031-12.266-1.016zm-32.797-88.433c-.367-.366-.667-12.755-.667-27.53v-26.865l12.25.281 12.25.281.267 25.877c.189 18.253-.068 26.281-.872 27.25-.837 1.008-3.99 1.373-11.85 1.373-5.892 0-11.012-.3-11.378-.667zm67.533-.533c-.869-.869-1.2-8.026-1.2-25.918 0-13.595.273-25.43.607-26.3.506-1.319 2.567-1.582 12.383-1.582 11.368 0 11.798.078 12.38 2.25 1.06 3.958.704 48.744-.405 50.816-.925 1.728-2.18 1.934-11.8 1.934-7.04 0-11.18-.415-11.965-1.2zm462.815 147.45c.008-18.012.376-33.318.816-34.011.814-1.282 9.092-1.914 27.919-2.132L646 442V251H509v191h23.3c16.789 0 23.635.335 24.5 1.2.885.885 1.2 9.933 1.2 34.5V511h50l.015-32.75zm-42.98-59.184C564.404 417.886 564 407.722 564 393s.404-24.886 1.035-26.066c.925-1.728 2.18-1.934 11.8-1.934 7.04 0 11.18.415 11.965 1.2.87.87 1.2 8.222 1.2 26.8 0 18.578-.33 25.93-1.2 26.8-.785.785-4.926 1.2-11.965 1.2-9.62 0-10.875-.206-11.8-1.934zm-34.572-88.3c-.274-.715-.377-12.991-.23-27.282l.267-25.984h24v54l-11.77.282c-8.932.214-11.888-.031-12.267-1.017zm67.572-.7c-1.113-2.081-1.463-46.866-.397-50.846.599-2.234.852-2.274 12.736-2l12.126.28.267 25.877c.189 18.253-.068 26.281-.872 27.25-.838 1.01-4.01 1.373-11.982 1.373-9.696 0-10.952-.204-11.878-1.934zM291.028 375c.354-45.146.892-68.513 1.625-70.558 6.194-17.269 19.605-29.267 36.238-32.421 9.13-1.732 42.515-1.191 50.19.812 13.214 3.45 24.395 12.73 30.322 25.167l3.097 6.5.527 69c.29 37.95.627 69.112.75 69.25.123.138 1.73.25 3.572.25h3.349l.695-19.75c.771-21.937.695-98.143-.143-142.5l-.544-28.75H283v94.833c0 52.159.321 95.155.714 95.548.393.392 2.08.58 3.75.416l3.036-.297zM334 388.5l.5-11h36l.283 11.25.283 11.25h10.869l.282-11.25.283-11.25 12.25-.28 12.25-.282v-7.876l-12.25-.281-12.25-.281v-35l12.5-.5 12.5-.5v-7l-12.461-.282c-8.429-.192-12.711-.677-13.235-1.5-.425-.67-.78-10.556-.789-21.968L381 281h-9v20.418c0 11.23-.273 21.13-.607 22-.522 1.36-3.089 1.582-18.3 1.582-12.428 0-18.05-.357-18.893-1.2-.858-.858-1.2-7.279-1.2-22.555V279.89l-4.75.305-4.75.305-.5 22-.5 22-13 .5-13 .5v7l13 .5 13 .5v35l-13 .5-13 .5v7l13 .5 13 .5.266 10c.146 5.5.479 10.587.74 11.305.322.887 1.999 1.208 5.234 1l4.76-.305zm.222-20.678c-1.853-1.853-1.71-32.173.16-33.724.951-.79 6.788-1.06 18.75-.872l17.368.274v35l-17.528.272c-12.789.199-17.858-.058-18.75-.95zM429.5 225.5v-19l-12.215-.28-12.214-.281-.286 10.28-.285 10.281h-34l-.285-10.275-.286-10.275-15.714.275-15.715.275-.5 10-.5 10h-37l-.5-10-.5-10h-25l-.274 17.966c-.15 9.882-.051 18.547.221 19.257.4 1.04 15.417 1.24 77.774 1.033l77.279-.256zm-230-1.5v-19.5h-24L175 215l-.5 10.5h-37l-.285-10.25-.285-10.25H105v8.809c0 12.758.708 12.3-18.506 11.968L70.5 225.5 70 215l-.5-10.5h-24l-.273 18.468c-.15 10.157-.051 19.047.22 19.756.4 1.039 15.369 1.239 77.274 1.032l76.779-.256zm454.271-.282.271-19.782-11.77.282-11.772.282-.285 9.657c-.195 6.587-.714 10.012-1.634 10.776-.903.749-6.595 1.028-17.215.843L595.5 225.5l-.285-10.25-.285-10.25H563v8.566C563 226.66 564.031 226 543.587 226c-13.038 0-17.61-.324-18.424-1.304-.596-.717-1.213-5.555-1.373-10.75l-.29-9.446h-24l-.273 18.468c-.15 10.157-.051 19.047.22 19.756.4 1.039 15.369 1.239 77.274 1.032l76.779-.256z" transform="matrix(.99985 0 0 1.0025 .016 0)"/><path style="fill:#0377ec" d="M329.684 796.35c-.4-.4-5.33-1.052-10.956-1.45-41.238-2.917-80.8-14.438-120.918-35.215-22.326-11.561-38.262-21.21-52.719-31.92-2.425-1.795-7.506-5.566-11.292-8.379-9.839-7.308-29.929-26.278-39.594-37.386C81.169 667.019 73 656.755 73 655.356c0-.708-3.102-5.69-6.892-11.072C60.446 636.247 42 605.774 42 604.458c0-.203-2.612-5.902-5.804-12.664-8.058-17.066-9.86-21.265-12.568-29.294a8251.591 8251.591 0 0 0-4.911-14.5c-4.859-14.292-11.518-43.587-14.095-62-1.473-10.526-3.027-28.063-3.605-40.685C-.114 420.635-.411 70.057.663 27.25L1.32 1h698.768l-.324 225.75c-.243 169.834-.614 226.493-1.498 228.75-.646 1.65-1.605 9.075-2.13 16.5-1.165 16.441-3.006 27.441-8.2 49-6.403 26.577-13.13 46.193-23.355 68.11-25.327 54.28-61.471 99.957-107.34 135.652-22.104 17.201-61.802 40.055-82.742 47.633-4.4 1.593-10.025 3.764-12.5 4.826-2.475 1.061-7.65 2.785-11.5 3.83-3.85 1.046-11.95 3.262-18 4.925-11.54 3.172-36.05 7.44-53 9.228-12.333 1.301-48.822 2.14-49.816 1.146zM175.429 643.43c1.307-1.307 1.571-4.471 1.571-18.8 0-12.067-.36-17.589-1.2-18.429-1.525-1.525-115.45-1.718-117.8-.2-1.269.82-.745 2.397 3.4 10.235 5.843 11.052 15.139 25.769 17.379 27.515 1.23.96 12.473 1.25 48.34 1.25 41.156 0 46.926-.188 48.31-1.571zm125 0c1.301-1.302 1.571-4.405 1.571-18.066 0-9.458-.442-17.32-1.035-18.429-1.005-1.878-2.719-1.934-59.3-1.934-43.984 0-58.56.294-59.465 1.2-.843.843-1.2 6.478-1.2 18.95 0 15.85.187 17.86 1.75 18.77 1.132.659 21.955 1.03 58.929 1.05 50.673.026 57.357-.149 58.75-1.541zm109.637.536c1.8-.964 1.934-2.26 1.934-18.8 0-12.484-.357-18.122-1.2-18.965-.901-.901-13.693-1.2-51.418-1.2-27.62 0-50.93.273-51.8.607-1.362.523-1.582 3.133-1.582 18.8 0 12.817.355 18.548 1.2 19.393 1.58 1.58 99.927 1.738 102.866.165zM524.8 643.8c.845-.845 1.2-6.576 1.2-19.393 0-15.667-.22-18.277-1.582-18.8-.87-.334-25.379-.607-54.465-.607-51.26 0-52.914.06-53.918 1.934-.593 1.11-1.035 8.971-1.035 18.429 0 13.661.27 16.764 1.571 18.066 1.39 1.388 7.699 1.571 54.3 1.571 39.678 0 53.026-.297 53.929-1.2zm95.143.23c4.1-2.193 22.853-34.514 21.728-37.445-.555-1.447-5.924-1.577-55.393-1.344l-54.778.259-.273 18.927c-.208 14.473.027 19.117 1 19.735 1.852 1.175 85.51 1.05 87.716-.132zM112.5 582.5v-19h-75l.186 4.217c.17 3.851 9.454 25.263 13.897 32.048l1.483 2.265 29.717-.265 29.717-.265zm121 0v-19h-115l-.273 18.427c-.209 14.07.027 18.618 1 19.239.7.447 26.698.705 57.773.573l56.5-.239zm122.401 18.12c.791-.954 1.061-6.92.873-19.25l-.274-17.87h-117l-.273 18.427c-.209 14.072.027 18.617 1 19.234.7.445 26.755.815 57.9.824 46.958.012 56.824-.22 57.774-1.366zm111 0c.791-.954 1.061-6.92.873-19.25l-.274-17.87-52.435-.259c-41.286-.204-52.606.009-53.235 1-1.345 2.118-1.01 35.179.37 36.559 1.888 1.888 103.129 1.714 104.701-.18zm114.064-.554c1.1-2.057 1.437-30.965.405-34.816l-.603-2.25H526.99c-48.114 0-53.84.167-54.383 1.582-1.194 3.112-.673 34.952.593 36.218.903.903 14.259 1.2 53.965 1.2 51.143 0 52.796-.06 53.8-1.934zm65.753 1.13c1.645-1.046 12.723-24.428 14.59-30.796.822-2.805 1.172-5.623.777-6.263-.53-.857-10.545-1.093-38.152-.9l-37.433.263-.274 17.87c-.188 12.33.082 18.296.873 19.25.926 1.115 6.63 1.377 29.773 1.365 15.746-.008 29.176-.364 29.846-.79zm17.045-42.029c1.834-1.164 13.237-36.201 13.237-40.672 0-1.053-1.823-1.481-7.25-1.701l-7.25-.294-.263-33.234-.264-33.235-2.236-.548c-1.23-.302-11.687-.422-23.237-.266l-21 .283-.5 33.5-.5 33.5-30.616.264c-24.725.214-30.831.005-31.736-1.085-.763-.92-1.204-11.67-1.384-33.765L550.5 449.5h-51L499 483l-.5 33.5h-60l-.534-33.5c-.293-18.425-.631-33.612-.75-33.75-.119-.137-10.791-.25-23.716-.25s-23.591.113-23.703.25c-.111.138-.449 15.325-.75 33.75l-.547 33.5h-61l-.264-32.914c-.178-22.255-.623-33.347-1.372-34.25-.869-1.046-6.23-1.333-24.736-1.32-13.124.008-24.295.436-25.128.962-1.267.8-1.578 6.11-2 34.235l-.5 33.287-35 .15c-19.9.084-35.75-.252-36.736-.779-1.586-.846-1.76-3.766-2-33.649L199.5 449.5l-23.5-.282c-12.925-.155-24.506-.035-25.737.266l-2.236.547-.264 33.235-.263 33.234-30.435.265c-18.164.158-30.816-.116-31.38-.68-.562-.562-.87-13.547-.757-31.973.126-20.882-.17-31.695-.905-33.07-1.05-1.96-1.965-2.042-22.936-2.042-17 0-22.088.296-22.95 1.336-.749.901-1.195 11.865-1.373 33.75L36.5 516.5l-6.5.303c-3.575.166-6.822.624-7.216 1.016-.394.392-.025 3.406.82 6.697 2.148 8.363 10.43 32.723 11.64 34.234.797.995 64.812 1.247 314.128 1.235 172.22-.008 313.696-.377 314.391-.818zM55.46 499.757c-.281-.733-.387-8.742-.236-17.795L55.5 465.5h14v35l-6.764.296c-4.933.216-6.902-.065-7.276-1.038zm111.98-.05c-.272-.713-.37-8.025-.218-16.25l.278-14.957 7.25-.294 7.25-.294V501h-7.031c-4.83 0-7.187-.405-7.528-1.294zm125.252-.066c-.788-2.054-.545-29.261.274-30.585.458-.743 3.18-1.048 7.624-.855l6.91.299.288 14c.395 19.243.704 18.5-7.7 18.5-4.87 0-7.026-.396-7.396-1.359zm112.405-.024c-.787-.948-1.061-6.529-.872-17.75l.275-16.367h15l.275 16.926c.21 12.87-.03 17.119-1 17.734-2.181 1.384-12.416.978-13.678-.543zm112.344.09c-.273-.713-.372-8.025-.219-16.25l.278-14.957 7.25-.294 7.25-.294V501h-7.031c-4.83 0-7.187-.405-7.528-1.294zm112.002.005c-.272-.708-.37-8.696-.219-17.75l.276-16.462 6.91-.3c4.853-.21 7.156.088 7.735 1 1.358 2.14 1.049 32.206-.345 33.6-1.67 1.67-13.71 1.597-14.357-.088zM143 478.5l.5-34 23.642-.268c18.29-.207 23.895-.571 24.755-1.608.804-.969 1.042-27.96.858-97.233L192.5 249.5l-69.39-.257c-50.426-.187-69.76.052-70.75.873-1.13.938-1.357 17.23-1.345 96.256.009 52.32.366 95.68.795 96.354.556.876 5.903 1.304 18.734 1.5l17.956.274.264 32.914c.18 22.502.619 33.342 1.386 34.267.9 1.085 6.182 1.3 26.736 1.086l25.614-.267zm-31-85.535V366.93l10.25.285 10.25.285.267 25.75.267 25.75H112zm-33.333-63.632c-.367-.366-.667-11.561-.667-24.877 0-19.527.27-24.436 1.4-25.372.902-.75 4.714-1.06 10.75-.873l9.35.289.267 25.75.267 25.75h-10.35c-5.693 0-10.65-.3-11.017-.667zm67.566-25.049.267-25.784 8.5-.295c4.675-.162 9.52-.04 10.767.273l2.267.569-.267 25.226-.267 25.227-10.767.284-10.767.284zM610 478.5l.5-34 18.5-.5 18.5-.5v-194h-140v194l24 .5 24 .5.264 32.914c.18 22.502.619 33.342 1.386 34.267.9 1.085 6.182 1.3 26.736 1.086l25.614-.267zm-43.536-60.734c-.275-.717-.38-12.32-.232-25.785l.268-24.481h21v51l-10.268.285c-7.728.215-10.392-.037-10.768-1.019zm-34.231-113.482.267-25.784 9.599-.284c7.305-.217 9.878.052 10.768 1.124.839 1.01 1.093 8.302.901 25.784L553.5 329.5l-10.767.284-10.767.284zm67.434 25.05c-.367-.367-.667-11.834-.667-25.482v-24.814l2.25-.564c1.238-.31 6.075-.431 10.75-.269l8.5.295.267 25.75.267 25.75h-10.35c-5.693 0-10.65-.3-11.017-.667zM292.486 441.75c.287-1.238.634-32.424.769-69.303l.245-67.054 3.726-7.537c5.809-11.751 15.92-20.098 28.234-23.304 8.078-2.104 45.562-2.188 53.33-.12 14.228 3.787 24.638 13.107 30.794 27.568 1.808 4.246 1.944 8.369 2.416 73l.5 68.5h10v-193l-69.711-.257c-65.653-.242-69.76-.154-70.557 1.5-.465.966-.66 44.62-.435 97.007l.41 95.25h4.877c4.237 0 4.947-.296 5.402-2.25zm42.301-50.692c.158-5.743.776-11.031 1.373-11.75.8-.966 4.827-1.308 15.38-1.308 7.863 0 15.008.273 15.878.607 1.292.496 1.582 2.384 1.582 10.309 0 12.282.642 13.312 8.03 12.894l5.47-.31.5-11 .5-11 11.704-.5c6.617-.283 12.19-.986 12.819-1.618.612-.615.97-2.865.795-5l-.318-3.882-11.44-.285c-6.33-.157-12.024-.77-12.75-1.372-1.78-1.478-1.88-29.873-.11-31.643.798-.798 5.151-1.2 12.981-1.2 11.732 0 11.783-.01 12.408-2.5.345-1.375.345-3.625 0-5-.623-2.484-.701-2.5-12.026-2.5-6.27 0-12.111-.273-12.981-.607-1.372-.526-1.582-3.353-1.582-21.3 0-14.761-.344-21.037-1.2-21.893-.66-.66-3.045-1.2-5.3-1.2s-4.64.54-5.3 1.2c-.856.856-1.2 7.132-1.2 21.893 0 17.947-.21 20.774-1.582 21.3-2.06.79-29.776.79-31.836 0-1.374-.527-1.582-3.412-1.582-21.965 0-20.092-.115-21.419-1.934-22.393-2.142-1.146-7.037-1.367-9.484-.428-1.374.527-1.582 3.404-1.582 21.878 0 16.345-.304 21.523-1.314 22.36-.747.62-6.675 1.212-13.75 1.373l-12.436.282v9l12.436.282c7.075.16 13.003.753 13.75 1.373 1.784 1.48 1.886 29.873.114 31.645-.803.803-5.267 1.2-13.5 1.2H295v10h12.3c8.233 0 12.697.397 13.5 1.2.775.775 1.2 4.785 1.2 11.333 0 5.574.32 10.453.71 10.844.391.39 3.203.578 6.25.417l5.54-.294zm1.463-23.72c-.926-.374-1.25-4.602-1.25-16.314 0-13.494.232-15.899 1.582-16.417 3.086-1.184 30.953-.672 32.218.593 1.675 1.675 1.675 29.925 0 31.6-1.196 1.196-29.75 1.668-32.55.538zM430.5 225.5v-21l-12.922-.281c-9.666-.21-13.126.041-13.734 1-.448.704-.82 5.444-.829 10.531L403 225h-31v-9.3c0-5.9-.439-9.739-1.2-10.5-1.68-1.68-31.92-1.68-33.6 0-.761.761-1.2 4.6-1.2 10.5v9.3h-34v-8.566c0-12.758.39-12.434-14.976-12.434-7.774 0-13.16.41-13.542 1.03-.757 1.224-.647 39.894.117 41.13.29.468 35.71.737 78.714.596l78.187-.256zm-229.75 19.037c.944-.358 1.25-5.479 1.25-20.899 0-17.702-.21-20.505-1.582-21.031-2.664-1.022-23.425-.673-25.484.428-1.713.917-1.934 2.172-1.934 11V224h-34l-.015-9.25c-.008-5.088-.38-9.824-.825-10.525-.615-.97-4.863-1.21-17.734-1l-16.926.275-.5 10-.5 10-14.924.278c-11.269.21-15.122-.035-15.735-1-.445-.703-.817-5.392-.826-10.421-.012-7.405-.316-9.258-1.597-9.75-.87-.334-6.463-.607-12.428-.607-8.528 0-11.183.336-12.419 1.571C43.254 204.89 43 208.191 43 224c0 14.294.32 19.177 1.321 20.179 1.077 1.076 15.572 1.276 78.25 1.076 42.311-.134 77.492-.457 78.179-.718zm453.982.012c1.767-.678 1.831-39.586.068-41.349-1.68-1.68-22.834-1.638-25.083.05-1.31.983-1.725 3.276-1.941 10.75l-.276 9.5-15.25.276-15.25.276v-8.835c0-12.818.783-12.324-19.006-11.993l-16.494.276-.5 10-.5 10h-34l-.29-9.446c-.16-5.195-.777-10.033-1.373-10.75-1.339-1.614-22.97-1.838-25.903-.269-1.813.97-1.934 2.285-1.934 21.032 0 18.876.109 20.038 1.94 20.715 2.12.785 153.73.558 155.792-.233z" transform="matrix(.99985 0 0 1.0025 .016 0)"/><path style="fill:#f70000" d="M329.684 796.35c-.4-.4-5.33-1.052-10.956-1.45-41.238-2.917-80.8-14.438-120.918-35.215-22.326-11.561-38.262-21.21-52.719-31.92-2.425-1.795-7.506-5.566-11.292-8.379-9.839-7.308-29.929-26.278-39.594-37.386C81.169 667.019 73 656.755 73 655.356c0-.708-3.102-5.69-6.892-11.072C60.446 636.247 42 605.774 42 604.458c0-.203-2.612-5.902-5.804-12.664-8.058-17.066-9.86-21.265-12.568-29.294a8251.591 8251.591 0 0 0-4.911-14.5c-4.859-14.292-11.518-43.587-14.095-62-1.473-10.526-3.027-28.063-3.605-40.685C-.114 420.635-.411 70.057.663 27.25L1.32 1h698.768l-.324 225.75c-.243 169.834-.614 226.493-1.498 228.75-.646 1.65-1.605 9.075-2.13 16.5-1.165 16.441-3.006 27.441-8.2 49-6.403 26.577-13.13 46.193-23.355 68.11-25.327 54.28-61.471 99.957-107.34 135.652-22.104 17.201-61.802 40.055-82.742 47.633-4.4 1.593-10.025 3.764-12.5 4.826-2.475 1.061-7.65 2.785-11.5 3.83-3.85 1.046-11.95 3.262-18 4.925-11.54 3.172-36.05 7.44-53 9.228-12.333 1.301-48.822 2.14-49.816 1.146zm34.873-12.442c.371-.6-.952-2.434-2.941-4.073-3.982-3.282-4.462-5.243-1.961-8.006 2.01-2.221 4.482-2.289 12.006-.329 3.168.825 7.611 1.5 9.875 1.5 4.2 0 7.375 2.26 8.784 6.25.34.962 1.194 1.742 1.899 1.733 4.077-.056 61.889-14.252 73.781-18.118 11.837-3.847 10.475-5.826-4.027-5.85-14.775-.023-18.187-3.893-7.13-8.087 4.832-1.833 6.979-2.062 14.724-1.575 11.058.694 12.025 1.038 13.311 4.727.56 1.606 1.379 2.92 1.82 2.92.723 0 7.253-3.842 43.726-25.726 11.333-6.8 30.517-21.668 46.076-35.71 4.95-4.468 11.25-10.062 14-12.431 5.355-4.614 7.57-7.787 6.813-9.76-.259-.674-3.603-2.178-7.432-3.34-5.265-1.6-7.231-2.707-8.068-4.544-.84-1.842-.8-2.8.162-3.96 1.868-2.25 10.741-1.937 18.645.658l6.662 2.187 2.41-2.802c1.326-1.541 2.269-3.538 2.096-4.437-.288-1.497-9.819-1.686-113.301-2.24-187.295-1.004-408.836-.96-410.485.083-2.304 1.456.975 6.69 10.552 16.844l8.13 8.62 10.908-5.086c16.768-7.818 20.51-8.865 31.408-8.794 14.319.094 38.83 6.425 37.735 9.747-1.327 4.023-9.707 4.625-22.446 1.613-10.178-2.407-23.036-2.845-28.789-.98-9.958 3.226-20.5 8.345-20.5 9.954 0 .912 3.095 4.729 6.877 8.482 5.75 5.706 7.184 6.663 8.75 5.838 2.651-1.395 11.865-2.512 14.315-1.734 1.438.456 2.058 1.504 2.058 3.478 0 3.229-1.422 4.04-7.082 4.04-2.472 0-3.915.461-3.91 1.25.01 1.474 9.36 9.093 18.068 14.72l6.155 3.979 4.135-2.37c2.273-1.303 7.225-2.889 11.004-3.524 3.778-.635 10.303-2.286 14.5-3.667 5.606-1.846 10.548-2.636 18.63-2.98 9.995-.424 11.411-.258 15.5 1.813 3.443 1.744 4.5 2.84 4.5 4.67 0 4.074-2.431 4.66-10.988 2.644-11.264-2.652-22.494-1.638-32.512 2.936-4.125 1.884-9.41 3.712-11.745 4.064-2.334.351-4.476 1.014-4.759 1.472-1.011 1.635 6.943 6.903 22.475 14.885 8.677 4.46 16.43 8.108 17.228 8.108.799 0 2.459-1.071 3.689-2.38 1.23-1.31 5.36-3.821 9.178-5.581 5.674-2.615 8.632-3.3 16.188-3.751 12.155-.725 24.812 1.014 31.025 4.263 3.562 1.862 6.058 2.458 9.4 2.242 5.27-.34 7.014 1.311 5.933 5.618-.954 3.798-5.74 5.682-11.626 4.577-2.467-.463-9.197-2.52-14.954-4.57l-10.468-3.726-10.784 1.62c-16.593 2.493-18.722 4.646-8.936 9.038 14.628 6.564 29.153 10.972 54.656 16.585 15.915 3.503 36.056 5.782 61.5 6.957 9.625.444 18.71.876 20.191.958 1.48.083 2.995-.341 3.366-.942zm-50.992-16.368c-5.019-1.347-7.565-3.572-7.565-6.609 0-2.835 2.629-4.21 6.736-3.525 11.34 1.893 14.784 1.772 25.264-.881 5.775-1.463 11.4-3.234 12.5-3.938 2.59-1.655 16.497-6.142 23.3-7.516 6.83-1.38 22.193-1.374 29.69.012 3.222.596 8.318 2.396 11.325 4 3.007 1.604 6.213 2.917 7.126 2.917 2.434 0 4.059 2.032 4.059 5.078 0 3.79-2.26 5.21-8.275 5.197-4.094-.008-6.631-.782-11.725-3.575-12.555-6.885-27.837-6.153-48 2.3-17.91 7.507-32.716 9.686-44.435 6.54zm120.971-27.375c-1.71-.388-3.592-1.792-4.451-3.323-2.225-3.964-.31-5.552 7.727-6.41 9.417-1.007 16.72-3.776 23.15-8.778 3.046-2.37 6.438-4.643 7.538-5.052 3.96-1.472 28.245-.684 32.766 1.063 5.992 2.316 10.387 5.818 11.159 8.891 1.654 6.59-4.635 7.104-16.392 1.34-7.753-3.8-8.87-4.074-15.107-3.722-6.227.352-7.175.726-12.58 4.96-6.706 5.252-9.843 6.961-16.846 9.178-6.257 1.98-13.103 2.728-16.964 1.853zm-156.144-8.955c-4.46-1.585-10.141-4.342-12.626-6.127-12.959-9.306-5.786-19.633 7.356-10.593 2.791 1.92 7.393 4.203 10.226 5.073 6.836 2.1 24.263 3.052 28.729 1.571 3.57-1.184 13.55-8.234 33.807-23.881 6.584-5.086 13.158-9.699 14.609-10.25 1.45-.552 7.444-1.003 13.319-1.003 8.784 0 12.043.453 18.348 2.553 4.244 1.414 7.939 3.262 8.276 4.141.335.873-.122 2.704-1.015 4.067-1.574 2.402-1.87 2.458-9.517 1.791-4.341-.379-9.355-1.108-11.142-1.62-1.787-.513-5.388-.932-8.003-.932-3.972 0-5.37.549-8.506 3.337-13.04 11.594-29.4 23.197-40.115 28.447l-11.505 5.637-12.066.336c-11.214.311-12.64.131-20.175-2.547zm90.713-2.025c-6.449-2.023-9.568-5.492-8.558-9.517.894-3.563 4.174-4.294 12.697-2.833 9.068 1.555 18.634 1.472 23.38-.203 9.417-3.323 30.197-14.51 38.47-20.71 6.024-4.514 15.249-9.704 21.218-11.938 4.922-1.841 6.914-2.064 13-1.456 7.806.78 11.723 1.93 12.902 3.785 1.302 2.046.86 4.614-1.138 6.611-1.717 1.717-2.94 1.864-11.322 1.364-11.06-.66-14.758.298-21.518 5.57-12.468 9.725-40.098 25.329-51.024 28.816-8.819 2.815-20.111 3.02-28.107.511zM524.5 716.132c-4.693-2.17-7.097-4.64-7.986-8.206-1.058-4.24 1.437-5.472 7.14-3.528 2.586.881 7.336 1.602 10.556 1.602 4.284 0 6.007.403 6.43 1.502 2.574 6.71-8.03 12.38-16.14 8.63zM162 700.726c-9.649-4.789-11.601-10.556-4.13-12.197 1.871-.411 4.607.276 8.681 2.18 5.371 2.512 7.017 2.782 16.949 2.786 10.795.005 11.168-.072 20-4.15 22.51-10.39 47.657-13.028 65.5-6.872 8.653 2.985 16.229 8.135 18.54 12.604 1.488 2.879 1.48 3.244-.122 5.014-2.587 2.859-6.618 2.333-15.198-1.98-11.2-5.632-17.078-7.113-28.152-7.096-11.019.017-15.769 1.038-37.01 7.956-14.956 4.87-15.805 5.028-27 5.005-10.99-.022-11.878-.182-18.058-3.25zm367.265-11.268c-2.88-.775-7.4-2.506-10.043-3.846-7.833-3.969-16.08-5.937-25.722-6.14-11.73-.246-11.257-.15-12.536-2.54-1.657-3.095 1.086-6.599 6.255-7.99 3.348-.903 6.582-.8 15.598.498 11.544 1.66 13.984 2.346 24.683 6.938 4.674 2.006 7.688 2.58 13.641 2.598 7.456.023 7.759-.073 12.482-3.976 5.416-4.476 9.938-5.247 12.722-2.171 4.51 4.984-.823 12.46-11.45 16.05-7.36 2.485-17.688 2.718-25.63.58zM313.2 685.8c-1.618-1.618-1.515-4.294.222-5.735 2.877-2.388 18.255-9.28 24.077-10.791 9.554-2.48 28.318-2.225 37.075.502 13.471 4.197 29.522 4.673 41.052 1.218 5.41-1.621 8.374-.167 8.374 4.107 0 7.061-3.699 8.9-17.9 8.898-10.516-.001-20.282-1.487-35.6-5.416-5.5-1.41-12.067-2.569-14.593-2.574-4.173-.008-16.122 3.43-30.907 8.893-6.308 2.331-10.08 2.618-11.8.898zM271 675.56c-7.036-3.305-8.133-3.524-17.715-3.542-9.192-.016-10.322-.219-11.289-2.025-.884-1.652-.611-2.469 1.547-4.627 2.563-2.563 2.844-2.61 12.789-2.117 7.151.354 12.542 1.278 18.168 3.114 9.411 3.072 13.13 3.258 18.068.903 3.585-1.71 3.661-1.701 5.527.603 1.299 1.604 1.698 3.166 1.274 4.984-1.103 4.728-2.7 5.504-12.096 5.88-8.307.332-9.172.163-16.273-3.173zm161.003-5.555c-.872-1.628-.847-2.488.105-3.635 2.095-2.524 6.594-4.371 10.592-4.348 4.71.027 12.3 3.356 12.3 5.394 0 2.385-2.815 3.279-12.678 4.027-8.706.66-9.236.586-10.32-1.438zM175.429 643.43c1.307-1.307 1.571-4.471 1.571-18.8 0-12.067-.36-17.589-1.2-18.429-1.525-1.525-115.45-1.718-117.8-.2-1.269.82-.745 2.397 3.4 10.235 5.843 11.052 15.139 25.769 17.379 27.515 1.23.96 12.473 1.25 48.34 1.25 41.156 0 46.926-.188 48.31-1.571zm125 0c1.301-1.302 1.571-4.405 1.571-18.066 0-9.458-.442-17.32-1.035-18.429-1.005-1.878-2.719-1.934-59.3-1.934-43.984 0-58.56.294-59.465 1.2-.843.843-1.2 6.478-1.2 18.95 0 15.85.187 17.86 1.75 18.77 1.132.659 21.955 1.03 58.929 1.05 50.673.026 57.357-.149 58.75-1.541zm109.637.536c1.8-.964 1.934-2.26 1.934-18.8 0-12.484-.357-18.122-1.2-18.965-.901-.901-13.693-1.2-51.418-1.2-27.62 0-50.93.273-51.8.607-1.362.523-1.582 3.133-1.582 18.8 0 12.817.355 18.548 1.2 19.393 1.58 1.58 99.927 1.738 102.866.165zM524.8 643.8c.845-.845 1.2-6.576 1.2-19.393 0-15.667-.22-18.277-1.582-18.8-.87-.334-25.379-.607-54.465-.607-51.26 0-52.914.06-53.918 1.934-.593 1.11-1.035 8.971-1.035 18.429 0 13.661.27 16.764 1.571 18.066 1.39 1.388 7.699 1.571 54.3 1.571 39.678 0 53.026-.297 53.929-1.2zm95.143.23c4.1-2.193 22.853-34.514 21.728-37.445-.555-1.447-5.924-1.577-55.393-1.344l-54.778.259-.273 18.927c-.208 14.473.027 19.117 1 19.735 1.852 1.175 85.51 1.05 87.716-.132zM112.5 582.5v-19h-75l.186 4.217c.17 3.851 9.454 25.263 13.897 32.048l1.483 2.265 29.717-.265 29.717-.265zm121 0v-19h-115l-.273 18.427c-.209 14.07.027 18.618 1 19.239.7.447 26.698.705 57.773.573l56.5-.239zm122.401 18.12c.791-.954 1.061-6.92.873-19.25l-.274-17.87h-117l-.273 18.427c-.209 14.072.027 18.617 1 19.234.7.445 26.755.815 57.9.824 46.958.012 56.824-.22 57.774-1.366zm111 0c.791-.954 1.061-6.92.873-19.25l-.274-17.87-52.435-.259c-41.286-.204-52.606.009-53.235 1-1.345 2.118-1.01 35.179.37 36.559 1.888 1.888 103.129 1.714 104.701-.18zm114.064-.554c1.1-2.057 1.437-30.965.405-34.816l-.603-2.25H526.99c-48.114 0-53.84.167-54.383 1.582-1.194 3.112-.673 34.952.593 36.218.903.903 14.259 1.2 53.965 1.2 51.143 0 52.796-.06 53.8-1.934zm65.753 1.13c1.645-1.046 12.723-24.428 14.59-30.796.822-2.805 1.172-5.623.777-6.263-.53-.857-10.545-1.093-38.152-.9l-37.433.263-.274 17.87c-.188 12.33.082 18.296.873 19.25.926 1.115 6.63 1.377 29.773 1.365 15.746-.008 29.176-.364 29.846-.79zm17.045-42.029c1.834-1.164 13.237-36.201 13.237-40.672 0-1.053-1.823-1.481-7.25-1.701l-7.25-.294-.263-33.234-.264-33.235-2.236-.548c-1.23-.302-11.687-.422-23.237-.266l-21 .283-.5 33.5-.5 33.5-30.616.264c-24.725.214-30.831.005-31.736-1.085-.763-.92-1.204-11.67-1.384-33.765L550.5 449.5h-51L499 483l-.5 33.5h-60l-.534-33.5c-.293-18.425-.631-33.612-.75-33.75-.119-.137-10.791-.25-23.716-.25s-23.591.113-23.703.25c-.111.138-.449 15.325-.75 33.75l-.547 33.5h-61l-.264-32.914c-.178-22.255-.623-33.347-1.372-34.25-.869-1.046-6.23-1.333-24.736-1.32-13.124.008-24.295.436-25.128.962-1.267.8-1.578 6.11-2 34.235l-.5 33.287-35 .15c-19.9.084-35.75-.252-36.736-.779-1.586-.846-1.76-3.766-2-33.649L199.5 449.5l-23.5-.282c-12.925-.155-24.506-.035-25.737.266l-2.236.547-.264 33.235-.263 33.234-30.435.265c-18.164.158-30.816-.116-31.38-.68-.562-.562-.87-13.547-.757-31.973.126-20.882-.17-31.695-.905-33.07-1.05-1.96-1.965-2.042-22.936-2.042-17 0-22.088.296-22.95 1.336-.749.901-1.195 11.865-1.373 33.75L36.5 516.5l-6.5.303c-3.575.166-6.822.624-7.216 1.016-.394.392-.025 3.406.82 6.697 2.148 8.363 10.43 32.723 11.64 34.234.797.995 64.812 1.247 314.128 1.235 172.22-.008 313.696-.377 314.391-.818zM55.46 499.757c-.281-.733-.387-8.742-.236-17.795L55.5 465.5h14v35l-6.764.296c-4.933.216-6.902-.065-7.276-1.038zm111.98-.05c-.272-.713-.37-8.025-.218-16.25l.278-14.957 7.25-.294 7.25-.294V501h-7.031c-4.83 0-7.187-.405-7.528-1.294zm125.252-.066c-.788-2.054-.545-29.261.274-30.585.458-.743 3.18-1.048 7.624-.855l6.91.299.288 14c.395 19.243.704 18.5-7.7 18.5-4.87 0-7.026-.396-7.396-1.359zm112.405-.024c-.787-.948-1.061-6.529-.872-17.75l.275-16.367h15l.275 16.926c.21 12.87-.03 17.119-1 17.734-2.181 1.384-12.416.978-13.678-.543zm112.344.09c-.273-.713-.372-8.025-.219-16.25l.278-14.957 7.25-.294 7.25-.294V501h-7.031c-4.83 0-7.187-.405-7.528-1.294zm112.002.005c-.272-.708-.37-8.696-.219-17.75l.276-16.462 6.91-.3c4.853-.21 7.156.088 7.735 1 1.358 2.14 1.049 32.206-.345 33.6-1.67 1.67-13.71 1.597-14.357-.088zM143 478.5l.5-34 23.642-.268c18.29-.207 23.895-.571 24.755-1.608.804-.969 1.042-27.96.858-97.233L192.5 249.5l-69.39-.257c-50.426-.187-69.76.052-70.75.873-1.13.938-1.357 17.23-1.345 96.256.009 52.32.366 95.68.795 96.354.556.876 5.903 1.304 18.734 1.5l17.956.274.264 32.914c.18 22.502.619 33.342 1.386 34.267.9 1.085 6.182 1.3 26.736 1.086l25.614-.267zm-31-85.535V366.93l10.25.285 10.25.285.267 25.75.267 25.75H112zm-33.333-63.632c-.367-.366-.667-11.561-.667-24.877 0-19.527.27-24.436 1.4-25.372.902-.75 4.714-1.06 10.75-.873l9.35.289.267 25.75.267 25.75h-10.35c-5.693 0-10.65-.3-11.017-.667zm67.566-25.049.267-25.784 8.5-.295c4.675-.162 9.52-.04 10.767.273l2.267.569-.267 25.226-.267 25.227-10.767.284-10.767.284zM610 478.5l.5-34 18.5-.5 18.5-.5v-194h-140v194l24 .5 24 .5.264 32.914c.18 22.502.619 33.342 1.386 34.267.9 1.085 6.182 1.3 26.736 1.086l25.614-.267zm-43.536-60.734c-.275-.717-.38-12.32-.232-25.785l.268-24.481h21v51l-10.268.285c-7.728.215-10.392-.037-10.768-1.019zm-34.231-113.482.267-25.784 9.599-.284c7.305-.217 9.878.052 10.768 1.124.839 1.01 1.093 8.302.901 25.784L553.5 329.5l-10.767.284-10.767.284zm67.434 25.05c-.367-.367-.667-11.834-.667-25.482v-24.814l2.25-.564c1.238-.31 6.075-.431 10.75-.269l8.5.295.267 25.75.267 25.75h-10.35c-5.693 0-10.65-.3-11.017-.667zM292.486 441.75c.287-1.238.634-32.424.769-69.303l.245-67.054 3.726-7.537c5.809-11.751 15.92-20.098 28.234-23.304 8.078-2.104 45.562-2.188 53.33-.12 14.228 3.787 24.638 13.107 30.794 27.568 1.808 4.246 1.944 8.369 2.416 73l.5 68.5h10v-193l-69.711-.257c-65.653-.242-69.76-.154-70.557 1.5-.465.966-.66 44.62-.435 97.007l.41 95.25h4.877c4.237 0 4.947-.296 5.402-2.25zm42.301-50.692c.158-5.743.776-11.031 1.373-11.75.8-.966 4.827-1.308 15.38-1.308 7.863 0 15.008.273 15.878.607 1.292.496 1.582 2.384 1.582 10.309 0 12.282.642 13.312 8.03 12.894l5.47-.31.5-11 .5-11 11.704-.5c6.617-.283 12.19-.986 12.819-1.618.612-.615.97-2.865.795-5l-.318-3.882-11.44-.285c-6.33-.157-12.024-.77-12.75-1.372-1.78-1.478-1.88-29.873-.11-31.643.798-.798 5.151-1.2 12.981-1.2 11.732 0 11.783-.01 12.408-2.5.345-1.375.345-3.625 0-5-.623-2.484-.701-2.5-12.026-2.5-6.27 0-12.111-.273-12.981-.607-1.372-.526-1.582-3.353-1.582-21.3 0-14.761-.344-21.037-1.2-21.893-.66-.66-3.045-1.2-5.3-1.2s-4.64.54-5.3 1.2c-.856.856-1.2 7.132-1.2 21.893 0 17.947-.21 20.774-1.582 21.3-2.06.79-29.776.79-31.836 0-1.374-.527-1.582-3.412-1.582-21.965 0-20.092-.115-21.419-1.934-22.393-2.142-1.146-7.037-1.367-9.484-.428-1.374.527-1.582 3.404-1.582 21.878 0 16.345-.304 21.523-1.314 22.36-.747.62-6.675 1.212-13.75 1.373l-12.436.282v9l12.436.282c7.075.16 13.003.753 13.75 1.373 1.784 1.48 1.886 29.873.114 31.645-.803.803-5.267 1.2-13.5 1.2H295v10h12.3c8.233 0 12.697.397 13.5 1.2.775.775 1.2 4.785 1.2 11.333 0 5.574.32 10.453.71 10.844.391.39 3.203.578 6.25.417l5.54-.294zm1.463-23.72c-.926-.374-1.25-4.602-1.25-16.314 0-13.494.232-15.899 1.582-16.417 3.086-1.184 30.953-.672 32.218.593 1.675 1.675 1.675 29.925 0 31.6-1.196 1.196-29.75 1.668-32.55.538zM430.5 225.5v-21l-12.922-.281c-9.666-.21-13.126.041-13.734 1-.448.704-.82 5.444-.829 10.531L403 225h-31v-9.3c0-5.9-.439-9.739-1.2-10.5-1.68-1.68-31.92-1.68-33.6 0-.761.761-1.2 4.6-1.2 10.5v9.3h-34v-8.566c0-12.758.39-12.434-14.976-12.434-7.774 0-13.16.41-13.542 1.03-.757 1.224-.647 39.894.117 41.13.29.468 35.71.737 78.714.596l78.187-.256zm-229.75 19.037c.944-.358 1.25-5.479 1.25-20.899 0-17.702-.21-20.505-1.582-21.031-2.664-1.022-23.425-.673-25.484.428-1.713.917-1.934 2.172-1.934 11V224h-34l-.015-9.25c-.008-5.088-.38-9.824-.825-10.525-.615-.97-4.863-1.21-17.734-1l-16.926.275-.5 10-.5 10-14.924.278c-11.269.21-15.122-.035-15.735-1-.445-.703-.817-5.392-.826-10.421-.012-7.405-.316-9.258-1.597-9.75-.87-.334-6.463-.607-12.428-.607-8.528 0-11.183.336-12.419 1.571C43.254 204.89 43 208.191 43 224c0 14.294.32 19.177 1.321 20.179 1.077 1.076 15.572 1.276 78.25 1.076 42.311-.134 77.492-.457 78.179-.718zm453.982.012c1.767-.678 1.831-39.586.068-41.349-1.68-1.68-22.834-1.638-25.083.05-1.31.983-1.725 3.276-1.941 10.75l-.276 9.5-15.25.276-15.25.276v-8.835c0-12.818.783-12.324-19.006-11.993l-16.494.276-.5 10-.5 10h-34l-.29-9.446c-.16-5.195-.777-10.033-1.373-10.75-1.339-1.614-22.97-1.838-25.903-.269-1.813.97-1.934 2.285-1.934 21.032 0 18.876.109 20.038 1.94 20.715 2.12.785 153.73.558 155.792-.233z" transform="matrix(.99985 0 0 1.0025 .016 0)"/><path style="fill:#130f11" d="M329.684 796.35c-.4-.4-5.33-1.052-10.956-1.45-41.238-2.917-80.8-14.438-120.918-35.215-22.326-11.561-38.262-21.21-52.719-31.92-2.425-1.795-7.506-5.566-11.292-8.379-9.839-7.308-29.929-26.278-39.594-37.386C81.169 667.019 73 656.755 73 655.356c0-.708-3.102-5.69-6.892-11.072C60.446 636.247 42 605.774 42 604.458c0-.203-2.612-5.902-5.804-12.664-8.058-17.066-9.86-21.265-12.568-29.294a8251.591 8251.591 0 0 0-4.911-14.5c-4.859-14.292-11.518-43.587-14.095-62-1.473-10.526-3.027-28.063-3.605-40.685C-.114 420.635-.411 70.057.663 27.25L1.32 1h698.768l-.324 225.75c-.243 169.834-.614 226.493-1.498 228.75-.646 1.65-1.605 9.075-2.13 16.5-1.165 16.441-3.006 27.441-8.2 49-6.403 26.577-13.13 46.193-23.355 68.11-25.327 54.28-61.471 99.957-107.34 135.652-22.104 17.201-61.802 40.055-82.742 47.633-4.4 1.593-10.025 3.764-12.5 4.826-2.475 1.061-7.65 2.785-11.5 3.83-3.85 1.046-11.95 3.262-18 4.925-11.54 3.172-36.05 7.44-53 9.228-12.333 1.301-48.822 2.14-49.816 1.146zm34.873-12.442c.371-.6-.952-2.434-2.941-4.073-3.982-3.282-4.462-5.243-1.961-8.006 2.01-2.221 4.482-2.289 12.006-.329 3.168.825 7.611 1.5 9.875 1.5 4.2 0 7.375 2.26 8.784 6.25.34.962 1.194 1.742 1.899 1.733 4.077-.056 61.889-14.252 73.781-18.118 11.837-3.847 10.475-5.826-4.027-5.85-14.775-.023-18.187-3.893-7.13-8.087 4.832-1.833 6.979-2.062 14.724-1.575 11.058.694 12.025 1.038 13.311 4.727.56 1.606 1.379 2.92 1.82 2.92.723 0 7.253-3.842 43.726-25.726 11.333-6.8 30.517-21.668 46.076-35.71 4.95-4.468 11.25-10.062 14-12.431 5.355-4.614 7.57-7.787 6.813-9.76-.259-.674-3.603-2.178-7.432-3.34-5.265-1.6-7.231-2.707-8.068-4.544-.84-1.842-.8-2.8.162-3.96 1.868-2.25 10.741-1.937 18.645.658l6.662 2.187 2.41-2.802c1.326-1.541 2.269-3.538 2.096-4.437-.288-1.497-9.819-1.686-113.301-2.24-187.295-1.004-408.836-.96-410.485.083-2.304 1.456.975 6.69 10.552 16.844l8.13 8.62 10.908-5.086c16.768-7.818 20.51-8.865 31.408-8.794 14.319.094 38.83 6.425 37.735 9.747-1.327 4.023-9.707 4.625-22.446 1.613-10.178-2.407-23.036-2.845-28.789-.98-9.958 3.226-20.5 8.345-20.5 9.954 0 .912 3.095 4.729 6.877 8.482 5.75 5.706 7.184 6.663 8.75 5.838 2.651-1.395 11.865-2.512 14.315-1.734 1.438.456 2.058 1.504 2.058 3.478 0 3.229-1.422 4.04-7.082 4.04-2.472 0-3.915.461-3.91 1.25.01 1.474 9.36 9.093 18.068 14.72l6.155 3.979 4.135-2.37c2.273-1.303 7.225-2.889 11.004-3.524 3.778-.635 10.303-2.286 14.5-3.667 5.606-1.846 10.548-2.636 18.63-2.98 9.995-.424 11.411-.258 15.5 1.813 3.443 1.744 4.5 2.84 4.5 4.67 0 4.074-2.431 4.66-10.988 2.644-11.264-2.652-22.494-1.638-32.512 2.936-4.125 1.884-9.41 3.712-11.745 4.064-2.334.351-4.476 1.014-4.759 1.472-1.011 1.635 6.943 6.903 22.475 14.885 8.677 4.46 16.43 8.108 17.228 8.108.799 0 2.459-1.071 3.689-2.38 1.23-1.31 5.36-3.821 9.178-5.581 5.674-2.615 8.632-3.3 16.188-3.751 12.155-.725 24.812 1.014 31.025 4.263 3.562 1.862 6.058 2.458 9.4 2.242 5.27-.34 7.014 1.311 5.933 5.618-.954 3.798-5.74 5.682-11.626 4.577-2.467-.463-9.197-2.52-14.954-4.57l-10.468-3.726-10.784 1.62c-16.593 2.493-18.722 4.646-8.936 9.038 14.628 6.564 29.153 10.972 54.656 16.585 15.915 3.503 36.056 5.782 61.5 6.957 9.625.444 18.71.876 20.191.958 1.48.083 2.995-.341 3.366-.942zm-50.992-16.368c-5.019-1.347-7.565-3.572-7.565-6.609 0-2.835 2.629-4.21 6.736-3.525 11.34 1.893 14.784 1.772 25.264-.881 5.775-1.463 11.4-3.234 12.5-3.938 2.59-1.655 16.497-6.142 23.3-7.516 6.83-1.38 22.193-1.374 29.69.012 3.222.596 8.318 2.396 11.325 4 3.007 1.604 6.213 2.917 7.126 2.917 2.434 0 4.059 2.032 4.059 5.078 0 3.79-2.26 5.21-8.275 5.197-4.094-.008-6.631-.782-11.725-3.575-12.555-6.885-27.837-6.153-48 2.3-17.91 7.507-32.716 9.686-44.435 6.54zm120.971-27.375c-1.71-.388-3.592-1.792-4.451-3.323-2.225-3.964-.31-5.552 7.727-6.41 9.417-1.007 16.72-3.776 23.15-8.778 3.046-2.37 6.438-4.643 7.538-5.052 3.96-1.472 28.245-.684 32.766 1.063 5.992 2.316 10.387 5.818 11.159 8.891 1.654 6.59-4.635 7.104-16.392 1.34-7.753-3.8-8.87-4.074-15.107-3.722-6.227.352-7.175.726-12.58 4.96-6.706 5.252-9.843 6.961-16.846 9.178-6.257 1.98-13.103 2.728-16.964 1.853zm-156.144-8.955c-4.46-1.585-10.141-4.342-12.626-6.127-12.959-9.306-5.786-19.633 7.356-10.593 2.791 1.92 7.393 4.203 10.226 5.073 6.836 2.1 24.263 3.052 28.729 1.571 3.57-1.184 13.55-8.234 33.807-23.881 6.584-5.086 13.158-9.699 14.609-10.25 1.45-.552 7.444-1.003 13.319-1.003 8.784 0 12.043.453 18.348 2.553 4.244 1.414 7.939 3.262 8.276 4.141.335.873-.122 2.704-1.015 4.067-1.574 2.402-1.87 2.458-9.517 1.791-4.341-.379-9.355-1.108-11.142-1.62-1.787-.513-5.388-.932-8.003-.932-3.972 0-5.37.549-8.506 3.337-13.04 11.594-29.4 23.197-40.115 28.447l-11.505 5.637-12.066.336c-11.214.311-12.64.131-20.175-2.547zm90.713-2.025c-6.449-2.023-9.568-5.492-8.558-9.517.894-3.563 4.174-4.294 12.697-2.833 9.068 1.555 18.634 1.472 23.38-.203 9.417-3.323 30.197-14.51 38.47-20.71 6.024-4.514 15.249-9.704 21.218-11.938 4.922-1.841 6.914-2.064 13-1.456 7.806.78 11.723 1.93 12.902 3.785 1.302 2.046.86 4.614-1.138 6.611-1.717 1.717-2.94 1.864-11.322 1.364-11.06-.66-14.758.298-21.518 5.57-12.468 9.725-40.098 25.329-51.024 28.816-8.819 2.815-20.111 3.02-28.107.511zM524.5 716.132c-4.693-2.17-7.097-4.64-7.986-8.206-1.058-4.24 1.437-5.472 7.14-3.528 2.586.881 7.336 1.602 10.556 1.602 4.284 0 6.007.403 6.43 1.502 2.574 6.71-8.03 12.38-16.14 8.63zM162 700.726c-9.649-4.789-11.601-10.556-4.13-12.197 1.871-.411 4.607.276 8.681 2.18 5.371 2.512 7.017 2.782 16.949 2.786 10.795.005 11.168-.072 20-4.15 22.51-10.39 47.657-13.028 65.5-6.872 8.653 2.985 16.229 8.135 18.54 12.604 1.488 2.879 1.48 3.244-.122 5.014-2.587 2.859-6.618 2.333-15.198-1.98-11.2-5.632-17.078-7.113-28.152-7.096-11.019.017-15.769 1.038-37.01 7.956-14.956 4.87-15.805 5.028-27 5.005-10.99-.022-11.878-.182-18.058-3.25zm367.265-11.268c-2.88-.775-7.4-2.506-10.043-3.846-7.833-3.969-16.08-5.937-25.722-6.14-11.73-.246-11.257-.15-12.536-2.54-1.657-3.095 1.086-6.599 6.255-7.99 3.348-.903 6.582-.8 15.598.498 11.544 1.66 13.984 2.346 24.683 6.938 4.674 2.006 7.688 2.58 13.641 2.598 7.456.023 7.759-.073 12.482-3.976 5.416-4.476 9.938-5.247 12.722-2.171 4.51 4.984-.823 12.46-11.45 16.05-7.36 2.485-17.688 2.718-25.63.58zM313.2 685.8c-1.618-1.618-1.515-4.294.222-5.735 2.877-2.388 18.255-9.28 24.077-10.791 9.554-2.48 28.318-2.225 37.075.502 13.471 4.197 29.522 4.673 41.052 1.218 5.41-1.621 8.374-.167 8.374 4.107 0 7.061-3.699 8.9-17.9 8.898-10.516-.001-20.282-1.487-35.6-5.416-5.5-1.41-12.067-2.569-14.593-2.574-4.173-.008-16.122 3.43-30.907 8.893-6.308 2.331-10.08 2.618-11.8.898zM271 675.56c-7.036-3.305-8.133-3.524-17.715-3.542-9.192-.016-10.322-.219-11.289-2.025-.884-1.652-.611-2.469 1.547-4.627 2.563-2.563 2.844-2.61 12.789-2.117 7.151.354 12.542 1.278 18.168 3.114 9.411 3.072 13.13 3.258 18.068.903 3.585-1.71 3.661-1.701 5.527.603 1.299 1.604 1.698 3.166 1.274 4.984-1.103 4.728-2.7 5.504-12.096 5.88-8.307.332-9.172.163-16.273-3.173zm161.003-5.555c-.872-1.628-.847-2.488.105-3.635 2.095-2.524 6.594-4.371 10.592-4.348 4.71.027 12.3 3.356 12.3 5.394 0 2.385-2.815 3.279-12.678 4.027-8.706.66-9.236.586-10.32-1.438zM175.429 643.43c1.307-1.307 1.571-4.471 1.571-18.8 0-12.067-.36-17.589-1.2-18.429-1.525-1.525-115.45-1.718-117.8-.2-1.269.82-.745 2.397 3.4 10.235 5.843 11.052 15.139 25.769 17.379 27.515 1.23.96 12.473 1.25 48.34 1.25 41.156 0 46.926-.188 48.31-1.571zm125 0c1.301-1.302 1.571-4.405 1.571-18.066 0-9.458-.442-17.32-1.035-18.429-1.005-1.878-2.719-1.934-59.3-1.934-43.984 0-58.56.294-59.465 1.2-.843.843-1.2 6.478-1.2 18.95 0 15.85.187 17.86 1.75 18.77 1.132.659 21.955 1.03 58.929 1.05 50.673.026 57.357-.149 58.75-1.541zm109.637.536c1.8-.964 1.934-2.26 1.934-18.8 0-12.484-.357-18.122-1.2-18.965-.901-.901-13.693-1.2-51.418-1.2-27.62 0-50.93.273-51.8.607-1.362.523-1.582 3.133-1.582 18.8 0 12.817.355 18.548 1.2 19.393 1.58 1.58 99.927 1.738 102.866.165zM524.8 643.8c.845-.845 1.2-6.576 1.2-19.393 0-15.667-.22-18.277-1.582-18.8-.87-.334-25.379-.607-54.465-.607-51.26 0-52.914.06-53.918 1.934-.593 1.11-1.035 8.971-1.035 18.429 0 13.661.27 16.764 1.571 18.066 1.39 1.388 7.699 1.571 54.3 1.571 39.678 0 53.026-.297 53.929-1.2zm95.143.23c4.1-2.193 22.853-34.514 21.728-37.445-.555-1.447-5.924-1.577-55.393-1.344l-54.778.259-.273 18.927c-.208 14.473.027 19.117 1 19.735 1.852 1.175 85.51 1.05 87.716-.132zM112.5 582.5v-19h-75l.186 4.217c.17 3.851 9.454 25.263 13.897 32.048l1.483 2.265 29.717-.265 29.717-.265zm121 0v-19h-115l-.273 18.427c-.209 14.07.027 18.618 1 19.239.7.447 26.698.705 57.773.573l56.5-.239zm122.401 18.12c.791-.954 1.061-6.92.873-19.25l-.274-17.87h-117l-.273 18.427c-.209 14.072.027 18.617 1 19.234.7.445 26.755.815 57.9.824 46.958.012 56.824-.22 57.774-1.366zm111 0c.791-.954 1.061-6.92.873-19.25l-.274-17.87-52.435-.259c-41.286-.204-52.606.009-53.235 1-1.345 2.118-1.01 35.179.37 36.559 1.888 1.888 103.129 1.714 104.701-.18zm114.064-.554c1.1-2.057 1.437-30.965.405-34.816l-.603-2.25H526.99c-48.114 0-53.84.167-54.383 1.582-1.194 3.112-.673 34.952.593 36.218.903.903 14.259 1.2 53.965 1.2 51.143 0 52.796-.06 53.8-1.934zm65.753 1.13c1.645-1.046 12.723-24.428 14.59-30.796.822-2.805 1.172-5.623.777-6.263-.53-.857-10.545-1.093-38.152-.9l-37.433.263-.274 17.87c-.188 12.33.082 18.296.873 19.25.926 1.115 6.63 1.377 29.773 1.365 15.746-.008 29.176-.364 29.846-.79zm17.045-42.029c1.834-1.164 13.237-36.201 13.237-40.672 0-1.053-1.823-1.481-7.25-1.701l-7.25-.294-.263-33.234-.264-33.235-2.236-.548c-1.23-.302-11.687-.422-23.237-.266l-21 .283-.5 33.5-.5 33.5-30.616.264c-24.725.214-30.831.005-31.736-1.085-.763-.92-1.204-11.67-1.384-33.765L550.5 449.5h-51L499 483l-.5 33.5h-60l-.534-33.5c-.293-18.425-.631-33.612-.75-33.75-.119-.137-10.791-.25-23.716-.25s-23.591.113-23.703.25c-.111.138-.449 15.325-.75 33.75l-.547 33.5h-61l-.264-32.914c-.178-22.255-.623-33.347-1.372-34.25-.869-1.046-6.23-1.333-24.736-1.32-13.124.008-24.295.436-25.128.962-1.267.8-1.578 6.11-2 34.235l-.5 33.287-35 .15c-19.9.084-35.75-.252-36.736-.779-1.586-.846-1.76-3.766-2-33.649L199.5 449.5l-23.5-.282c-12.925-.155-24.506-.035-25.737.266l-2.236.547-.264 33.235-.263 33.234-30.435.265c-18.164.158-30.816-.116-31.38-.68-.562-.562-.87-13.547-.757-31.973.126-20.882-.17-31.695-.905-33.07-1.05-1.96-1.965-2.042-22.936-2.042-17 0-22.088.296-22.95 1.336-.749.901-1.195 11.865-1.373 33.75L36.5 516.5l-6.5.303c-3.575.166-6.822.624-7.216 1.016-.394.392-.025 3.406.82 6.697 2.148 8.363 10.43 32.723 11.64 34.234.797.995 64.812 1.247 314.128 1.235 172.22-.008 313.696-.377 314.391-.818zM55.46 499.757c-.281-.733-.387-8.742-.236-17.795L55.5 465.5h14v35l-6.764.296c-4.933.216-6.902-.065-7.276-1.038zm111.98-.05c-.272-.713-.37-8.025-.218-16.25l.278-14.957 7.25-.294 7.25-.294V501h-7.031c-4.83 0-7.187-.405-7.528-1.294zm125.252-.066c-.788-2.054-.545-29.261.274-30.585.458-.743 3.18-1.048 7.624-.855l6.91.299.288 14c.395 19.243.704 18.5-7.7 18.5-4.87 0-7.026-.396-7.396-1.359zm112.405-.024c-.787-.948-1.061-6.529-.872-17.75l.275-16.367h15l.275 16.926c.21 12.87-.03 17.119-1 17.734-2.181 1.384-12.416.978-13.678-.543zm112.344.09c-.273-.713-.372-8.025-.219-16.25l.278-14.957 7.25-.294 7.25-.294V501h-7.031c-4.83 0-7.187-.405-7.528-1.294zm112.002.005c-.272-.708-.37-8.696-.219-17.75l.276-16.462 6.91-.3c4.853-.21 7.156.088 7.735 1 1.358 2.14 1.049 32.206-.345 33.6-1.67 1.67-13.71 1.597-14.357-.088zM143 478.5l.5-34 23.642-.268c18.29-.207 23.895-.571 24.755-1.608.804-.969 1.042-27.96.858-97.233L192.5 249.5l-69.39-.257c-50.426-.187-69.76.052-70.75.873-1.13.938-1.357 17.23-1.345 96.256.009 52.32.366 95.68.795 96.354.556.876 5.903 1.304 18.734 1.5l17.956.274.264 32.914c.18 22.502.619 33.342 1.386 34.267.9 1.085 6.182 1.3 26.736 1.086l25.614-.267zm-31-85.535V366.93l10.25.285 10.25.285.267 25.75.267 25.75H112zm-33.333-63.632c-.367-.366-.667-11.561-.667-24.877 0-19.527.27-24.436 1.4-25.372.902-.75 4.714-1.06 10.75-.873l9.35.289.267 25.75.267 25.75h-10.35c-5.693 0-10.65-.3-11.017-.667zm67.566-25.049.267-25.784 8.5-.295c4.675-.162 9.52-.04 10.767.273l2.267.569-.267 25.226-.267 25.227-10.767.284-10.767.284zm121.8 174.216c.294-18.7.631-34.112.75-34.25.12-.138 1.31-.25 2.646-.25 5.89 0 5.571 5.573 5.571-97.371 0-71.956-.284-94.513-1.2-95.429-.66-.66-2.37-1.2-3.8-1.2-1.43 0-3.14-.54-3.8-1.2-1.703-1.703-1.703-46.897 0-48.6.713-.713 4.149-1.2 8.47-1.2 6.784 0 7.403-.184 9.253-2.75 1.09-1.512 15.729-24.752 32.53-51.643L349 95.715v-6.323c0-5.528-.36-6.735-2.865-9.607-1.576-1.807-3.183-4.305-3.572-5.55-.998-3.196 1.106-8.827 4.116-11.02 2.059-1.5 2.67-2.993 3.184-7.785.566-5.272.902-5.967 3.024-6.267 3.043-.43 4.079 1.251 4.098 6.654.012 3.612.576 4.846 3.447 7.554 5.952 5.613 5.954 11.674.006 17.122C357.2 83.458 357 84.02 357 90.094v6.452l31.88 50.477 31.88 50.477 7.659.5c5.296.346 7.95.963 8.604 2 1.462 2.318 1.256 48.321-.223 49.8-.66.66-2.687 1.2-4.505 1.2h-3.305l.255 96.25.255 96.25 5.189.522c2.853.287 5.553.887 6 1.333.446.446 1.036 15.736 1.311 33.978l.5 33.167h51l.547-34c.3-18.7.638-34.1.75-34.221.111-.122 1.665-.6 3.453-1.064l3.25-.842.255-95.328c.18-67.204-.064-95.712-.826-96.63-.595-.717-2.734-1.441-4.755-1.61l-3.674-.305-.268-24.376c-.184-16.72.08-24.794.839-25.71.7-.842 3.91-1.44 8.726-1.624l7.619-.29 6.489-10.5c3.569-5.775 17.952-28.725 31.962-51 24.953-39.673 25.482-40.624 25.907-46.55.38-5.311.134-6.41-2.022-9-5.072-6.095-6.113-11.062-3.191-15.233 1.866-2.664 6.509-5.217 9.488-5.217 3.956 0 8.748 3.052 10.46 6.662 2.108 4.44 1.388 7.34-3.034 12.234-3.234 3.58-3.475 4.31-3.475 10.505v6.658l29.14 46.22c16.027 25.422 30.448 48.133 32.048 50.471l2.908 4.25h6.37c10.37 0 9.534-2.377 9.534 27.088v25.874l-2.25.48c-1.238.264-3.15.616-4.25.783-1.984.3-2 1.07-2 96.789V443.5l5.672.506c3.12.278 5.948.781 6.286 1.118.488.488 1.182 28.534 1.5 60.626L667 510h4.941c2.718 0 5.199-.418 5.514-.928.816-1.32 3.075-17.462 5.538-39.572 2.1-18.859 2.114-20.618 1.812-237l-.305-218-333.896-.251c-246.964-.186-334.25.042-335.256.877-1.142.948-1.319 36.571-1.097 221.252.245 203.339.4 221.266 2.037 235.122 3.042 25.763 3.97 31.897 5.334 35.306 1.268 3.17 1.52 3.293 6.1 3l4.778-.306.265-31.465c.163-19.487.649-31.849 1.274-32.474.556-.556 3.362-1.247 6.236-1.536l5.225-.525.255-96.75.255-96.75h-2.814c-6.249 0-6.26-.053-5.965-26.5l.269-24 6.5-.256c9.726-.382 10.65-.788 13.684-6.004 1.516-2.607 13.749-22.29 27.184-43.74C122.158 89.966 119 95.57 119 88.93c0-5.096-.393-6.211-3.5-9.93-4.746-5.68-4.775-9.925-.1-14.6 2.864-2.864 4.112-3.4 7.923-3.4 5.368 0 10.169 3.408 11.16 7.923.821 3.74-1.584 9.442-4.9 11.614-2.378 1.559-2.583 2.259-2.582 8.828l.001 7.135 31.58 49.998c17.37 27.499 31.805 50.224 32.079 50.5.274.276 3.95.727 8.168 1.002l7.671.5v50l-3.5.306c-1.925.168-4.063 1.042-4.75 1.941-1.752 2.292-1.838 190.772-.087 191.854.64.395 2.552 1.002 4.25 1.35l3.087.63.252 32.96c.139 18.127.465 33.528.725 34.224.369.99 7.06 1.207 30.747 1l30.276-.265zm341.967 0 .5-34 18.5-.5 18.5-.5v-194h-140v194l24 .5 24 .5.264 32.914c.18 22.502.619 33.342 1.386 34.267.9 1.085 6.182 1.3 26.736 1.086l25.614-.267zm-43.536-60.734c-.275-.717-.38-12.32-.232-25.785l.268-24.481h21v51l-10.268.285c-7.728.215-10.392-.037-10.768-1.019zm-34.231-113.482.267-25.784 9.599-.284c7.305-.217 9.878.052 10.768 1.124.839 1.01 1.093 8.302.901 25.784L553.5 329.5l-10.767.284-10.767.284zm67.434 25.05c-.367-.367-.667-11.834-.667-25.482v-24.814l2.25-.564c1.238-.31 6.075-.431 10.75-.269l8.5.295.267 25.75.267 25.75h-10.35c-5.693 0-10.65-.3-11.017-.667zM292.486 441.75c.287-1.238.634-32.424.769-69.303l.245-67.054 3.726-7.537c5.809-11.751 15.92-20.098 28.234-23.304 8.078-2.104 45.562-2.188 53.33-.12 14.228 3.787 24.638 13.107 30.794 27.568 1.808 4.246 1.944 8.369 2.416 73l.5 68.5h10v-193l-69.711-.257c-65.653-.242-69.76-.154-70.557 1.5-.465.966-.66 44.62-.435 97.007l.41 95.25h4.877c4.237 0 4.947-.296 5.402-2.25zm42.301-50.692c.158-5.743.776-11.031 1.373-11.75.8-.966 4.827-1.308 15.38-1.308 7.863 0 15.008.273 15.878.607 1.292.496 1.582 2.384 1.582 10.309 0 12.282.642 13.312 8.03 12.894l5.47-.31.5-11 .5-11 11.704-.5c6.617-.283 12.19-.986 12.819-1.618.612-.615.97-2.865.795-5l-.318-3.882-11.44-.285c-6.33-.157-12.024-.77-12.75-1.372-1.78-1.478-1.88-29.873-.11-31.643.798-.798 5.151-1.2 12.981-1.2 11.732 0 11.783-.01 12.408-2.5.345-1.375.345-3.625 0-5-.623-2.484-.701-2.5-12.026-2.5-6.27 0-12.111-.273-12.981-.607-1.372-.526-1.582-3.353-1.582-21.3 0-14.761-.344-21.037-1.2-21.893-.66-.66-3.045-1.2-5.3-1.2s-4.64.54-5.3 1.2c-.856.856-1.2 7.132-1.2 21.893 0 17.947-.21 20.774-1.582 21.3-2.06.79-29.776.79-31.836 0-1.374-.527-1.582-3.412-1.582-21.965 0-20.092-.115-21.419-1.934-22.393-2.142-1.146-7.037-1.367-9.484-.428-1.374.527-1.582 3.404-1.582 21.878 0 16.345-.304 21.523-1.314 22.36-.747.62-6.675 1.212-13.75 1.373l-12.436.282v9l12.436.282c7.075.16 13.003.753 13.75 1.373 1.784 1.48 1.886 29.873.114 31.645-.803.803-5.267 1.2-13.5 1.2H295v10h12.3c8.233 0 12.697.397 13.5 1.2.775.775 1.2 4.785 1.2 11.333 0 5.574.32 10.453.71 10.844.391.39 3.203.578 6.25.417l5.54-.294zm1.463-23.72c-.926-.374-1.25-4.602-1.25-16.314 0-13.494.232-15.899 1.582-16.417 3.086-1.184 30.953-.672 32.218.593 1.675 1.675 1.675 29.925 0 31.6-1.196 1.196-29.75 1.668-32.55.538zM430.5 225.5v-21l-12.922-.281c-9.666-.21-13.126.041-13.734 1-.448.704-.82 5.444-.829 10.531L403 225h-31v-9.3c0-5.9-.439-9.739-1.2-10.5-1.68-1.68-31.92-1.68-33.6 0-.761.761-1.2 4.6-1.2 10.5v9.3h-34v-8.566c0-12.758.39-12.434-14.976-12.434-7.774 0-13.16.41-13.542 1.03-.757 1.224-.647 39.894.117 41.13.29.468 35.71.737 78.714.596l78.187-.256zm-229.75 19.037c.944-.358 1.25-5.479 1.25-20.899 0-17.702-.21-20.505-1.582-21.031-2.664-1.022-23.425-.673-25.484.428-1.713.917-1.934 2.172-1.934 11V224h-34l-.015-9.25c-.008-5.088-.38-9.824-.825-10.525-.615-.97-4.863-1.21-17.734-1l-16.926.275-.5 10-.5 10-14.924.278c-11.269.21-15.122-.035-15.735-1-.445-.703-.817-5.392-.826-10.421-.012-7.405-.316-9.258-1.597-9.75-.87-.334-6.463-.607-12.428-.607-8.528 0-11.183.336-12.419 1.571C43.254 204.89 43 208.191 43 224c0 14.294.32 19.177 1.321 20.179 1.077 1.076 15.572 1.276 78.25 1.076 42.311-.134 77.492-.457 78.179-.718zm453.982.012c1.767-.678 1.831-39.586.068-41.349-1.68-1.68-22.834-1.638-25.083.05-1.31.983-1.725 3.276-1.941 10.75l-.276 9.5-15.25.276-15.25.276v-8.835c0-12.818.783-12.324-19.006-11.993l-16.494.276-.5 10-.5 10h-34l-.29-9.446c-.16-5.195-.777-10.033-1.373-10.75-1.339-1.614-22.97-1.838-25.903-.269-1.813.97-1.934 2.285-1.934 21.032 0 18.876.109 20.038 1.94 20.715 2.12.785 153.73.558 155.792-.233z" transform="matrix(.99985 0 0 1.0025 .016 0)"/></svg>