<svg xmlns="http://www.w3.org/2000/svg" width="155" height="163" style="shape-rendering:geometricPrecision;text-rendering:geometricPrecision;image-rendering:optimizeQuality;fill-rule:evenodd;clip-rule:evenodd"><path style="opacity:.949" fill="#0d0c13" d="m139.5 105.5-4 2c5.782-11.037 9.616-22.704 11.5-35a823.378 823.378 0 0 0 1.5-67 5184.59 5184.59 0 0 0-144-1c-.33 21.84.003 43.506 1 65a305.201 305.201 0 0 1 3.5 18c2.828 6.324 5.662 12.658 8.5 19 .237 1.291-.096 2.291-1 3a222.32 222.32 0 0 1-8-12.5l1-1A122.26 122.26 0 0 1 3 75.5a698.551 698.551 0 0 1-1-72L3.5 2c48.667-.667 97.333-.667 146 0l1.5 1.5c.667 22 .667 44 0 66a92.366 92.366 0 0 1-7.5 27.5l1 1a100.813 100.813 0 0 0-5 7.5z"/><path style="opacity:1" fill="#001775" d="M148.5 5.5H5.5v64c-.997-21.494-1.33-43.16-1-65 48.17-.332 96.17.001 144 1z"/><path style="opacity:1" fill="#0031f8" d="M148.5 5.5a823.378 823.378 0 0 1-1.5 67c-1.884 12.296-5.718 23.963-11.5 35a108.51 108.51 0 0 0-10 14 286.37 286.37 0 0 1-14 14.5 247.637 247.637 0 0 1-22 15 197.712 197.712 0 0 0-12.5 4.5c-26.053-8.922-45.886-25.255-59.5-49-2.838-6.342-5.672-12.676-8.5-19a305.201 305.201 0 0 0-3.5-18v-64h143z"/><path style="opacity:1" fill="#00197f" d="M40.5 15.5c0 .667.333 1 1 1 .219 1.175-.114 2.175-1 3-1.282-1.458-1.282-2.792 0-4z"/><path style="opacity:1" fill="#e3b602" d="M33.5 23.5a11.741 11.741 0 0 1 3 5c-1.458 6.154-4.791 7.487-10 4v-7c2.088-1.44 4.421-2.106 7-2z"/><path style="opacity:1" fill="#08156e" d="M33.5 23.5c2.275.611 3.941 1.945 5 4-.342.838-1.008 1.172-2 1a11.741 11.741 0 0 0-3-5z"/><path style="opacity:1" fill="#eebf00" d="M23.5 27.5a21.16 21.16 0 0 1 2 7v1c-1.979 1.667-4.312 2.334-7 2-2.334-1.676-3.334-4.009-3-7 2.045-2.484 4.712-3.484 8-3z"/><path style="opacity:1" fill="#1a1524" d="M23.5 27.5c-3.288-.484-5.955.516-8 3 .01-1.517.677-2.684 2-3.5 2.212-.79 4.212-.622 6 .5z"/><path style="opacity:1" fill="#211b18" d="M42.5 30.5c1.333 0 2 .667 2 2-1-.333-1.667-1-2-2z"/><path style="opacity:1" fill="#e7b905" d="M52.5 29.5c1.791-.134 3.458.2 5 1-.073 1.527.594 2.527 2 3 1.333 1 1.333 2 0 3-.874 2.19-2.541 3.19-5 3-.9-2.227-2.567-3.227-5-3 .188-2.706 1.188-5.04 3-7z"/><path style="opacity:1" fill="#48390f" d="M26.5 25.5v7c.172.992-.162 1.658-1 2a21.16 21.16 0 0 0-2-7c1.278-.282 2.278-.949 3-2z"/><path style="opacity:1" fill="#ecbe00" d="M42.5 30.5c.333 1 1 1.667 2 2 1.163 5.834-1.17 8.5-7 8-1-.333-1.667-1-2-2-1.163-5.834 1.17-8.5 7-8z"/><path style="opacity:1" fill="#463809" d="M57.5 30.5c1.406.473 2.073 1.473 2 3-1.406-.473-2.073-1.473-2-3z"/><path style="opacity:1" fill="#1e161b" d="M40.5 15.5c3.45-.744 5.116.59 5 4 3.045.008 6.045.341 9 1v3c-3.695-.96-7.361-.96-11 0a18.941 18.941 0 0 0-3 5c.743.682 1.41 1.349 2 2-5.83-.5-8.163 2.166-7 8-1.098 1.1-1.265 2.434-.5 4 .995-.566 1.828-1.233 2.5-2 5.83.5 8.163-2.166 7-8l2 5v1c-3.867 2.913-3.867 5.913 0 9v2c-2.173 2.722-2.506 5.722-1 9-1.333 1-1.333 2 0 3-2.63 7.374.036 10.04 8 8v2a16.869 16.869 0 0 0-8 1 9.106 9.106 0 0 0-1 5h-1c-5.333-.667-7.667 1.667-7 7-6.333-1-9 1.667-8 8-1.314-2.395-1.314-4.895 0-7.5-.88-.708-1.547-1.542-2-2.5 4.298 1.686 7.298.353 9-4-1.84-4.908-5.173-6.242-10-4 .11-.617.444-1.117 1-1.5a18.436 18.436 0 0 1 6-.5c.237-1.291-.096-2.291-1-3 1.333-2.667 1.333-5.333 0-8-3.194-1.452-6.194-1.119-9 1a24.939 24.939 0 0 1-7-.5c-.752-.67-1.086-1.504-1-2.5 3.117 2.59 6.117 2.59 9 0a43.788 43.788 0 0 0 6-2c3.646-.962 4.813-3.295 3.5-7-3.164-2.612-6.33-2.612-9.5 0 .233-1.562.9-2.895 2-4 6.165.67 8.665-1.996 7.5-8-.816-1.323-1.983-1.99-3.5-2-1.412-.666-2.745-.999-4-1v-1c.838-.342 1.172-1.008 1-2 5.209 3.487 8.542 2.154 10-4 .992.172 1.658-.162 2-1 1.13-3.419 3.13-6.252 6-8.5-.63-1.31-1.63-2.143-3-2.5-.667 0-1-.333-1-1z"/><path style="opacity:1" fill="#2e240f" d="M52.5 29.5c-1.812 1.96-2.812 4.294-3 7 0 .667-.333 1-1 1a18.436 18.436 0 0 1 .5-6c.816-1.323 1.983-1.99 3.5-2z"/><path style="opacity:1" fill="#ecbe00" d="M29.5 36.5c1.517.01 2.684.677 3.5 2 1.165 6.004-1.335 8.67-7.5 8l-1-2c-2.371-5.175-.704-7.841 5-8z"/><path style="opacity:1" fill="#7f6501" d="M49.5 36.5c2.433-.227 4.1.773 5 3-.667 0-1 .333-1 1-1.979-1.667-4.312-2.334-7-2v-1h2c.667 0 1-.333 1-1z"/><path style="opacity:1" fill="#51400b" d="M25.5 35.5c1.255.001 2.588.334 4 1-5.704.159-7.371 2.825-5 8l-2-1v-5c-1.599.268-2.932-.066-4-1 2.688.334 5.021-.333 7-2z"/><path style="opacity:1" fill="#efc000" d="M46.5 38.5c2.688-.334 5.021.333 7 2v5l-1 2h-6c-3.867-3.087-3.867-6.087 0-9z"/><path style="opacity:1" fill="#0023b0" d="M35.5 38.5c.333 1 1 1.667 2 2-.672.767-1.505 1.434-2.5 2-.765-1.566-.598-2.9.5-4z"/><path style="opacity:1" fill="#49351c" d="M59.5 36.5c.116 3.41-1.55 4.744-5 4 .285 1.915-.049 3.581-1 5v-5c0-.667.333-1 1-1 2.459.19 4.126-.81 5-3z"/><path style="opacity:1" fill="#edbe01" d="M42.5 51.5c-.342.838-1.008 1.172-2 1h-5c-3.482-6.68-1.482-9.846 6-9.5 2.199 2.624 2.532 5.458 1 8.5z"/><path style="opacity:1" fill="#0d196c" d="m22.5 43.5 2 1 1 2c-2 0-3-1-3-3z"/><path style="opacity:1" fill="#201a11" d="M46.5 47.5h6v2h-6v-2z"/><path style="opacity:1" fill="#f8c700" d="M29.5 57.5c-4.516.02-6.516-2.314-6-7 3.17-2.612 6.336-2.612 9.5 0 1.313 3.705.146 6.038-3.5 7z"/><path style="opacity:1" fill="#f0c000" d="M46.5 49.5h6c-.073 1.527.594 2.527 2 3a21.16 21.16 0 0 1-2 7 21.445 21.445 0 0 1-7-1c-1.506-3.278-1.173-6.278 1-9z"/><path style="opacity:1" fill="#624e08" d="M52.5 49.5c1.406.473 2.073 1.473 2 3-1.406-.473-2.073-1.473-2-3z"/><path style="opacity:1" fill="#001b97" d="M35.5 52.5h1v2c-1.924-.21-2.257-.877-1-2z"/><path style="opacity:1" fill="#0020a8" d="M42.5 51.5c1.098 1.1 1.265 2.434.5 4-.67-.752-1.504-1.086-2.5-1v-2c.992.172 1.658-.162 2-1z"/><path style="opacity:1" fill="#eebf00" d="M15.5 52.5h7a51.639 51.639 0 0 0 1 7c-2.883 2.59-5.883 2.59-9 0a21.445 21.445 0 0 1 1-7z"/><path style="opacity:1" fill="#1b160f" d="M36.5 52.5h4v2h-4v-2z"/><path style="opacity:1" fill="#433123" d="M54.5 52.5c1.098 1.1 1.265 2.434.5 4-.236 1.62-1.069 2.62-2.5 3a21.16 21.16 0 0 0 2-7z"/><path style="opacity:1" fill="#0e112f" d="M15.5 52.5a21.445 21.445 0 0 0-1 7c-.647-.774-.98-1.774-1-3-.16-1.855.507-3.188 2-4z"/><path style="opacity:1" fill="#e9bb01" d="M36.5 54.5h4c3.873 3.315 3.873 6.648 0 10h-5c-.667 0-1-.333-1-1-1.63-3.514-.964-6.514 2-9z"/><path style="opacity:1" fill="#4f3d12" d="M23.5 50.5c-.516 4.686 1.484 7.02 6 7a43.788 43.788 0 0 1-6 2 51.639 51.639 0 0 1-1-7h-6c1.779-1.843 4.112-2.51 7-2z"/><path style="opacity:1" fill="#0029cf" d="M31.5 61.5c-1.062-1.075-1.062-2.075 0-3 1.276 1.114 1.276 2.114 0 3z"/><path style="opacity:1" fill="#0020a9" d="M45.5 58.5c1.333 1 1.333 2 0 3-1.333-1-1.333-2 0-3z"/><path style="opacity:1" fill="#2a2111" d="M45.5 58.5a21.445 21.445 0 0 0 7 1l1 2h-1c-2.292-1.186-4.626-1.186-7 0 1.333-1 1.333-2 0-3z"/><path style="opacity:1" fill="#f2c200" d="M31.5 61.5c1.333 2.667 1.333 5.333 0 8l-6 1c-1.812-1.96-2.812-4.294-3-7v-1c2.806-2.119 5.806-2.452 9-1z"/><path style="opacity:1" fill="#f3c300" d="M52.5 61.5a21.445 21.445 0 0 1 1 7v1c-7.964 2.04-10.63-.626-8-8 2.374-1.186 4.708-1.186 7 0z"/><path style="opacity:1" fill="#001c93" d="M34.5 63.5c0 .667.333 1 1 1v2c-2.052-.553-2.385-1.553-1-3z"/><path style="opacity:1" fill="#53430e" d="M35.5 64.5h5v2h-5v-2z"/><path style="opacity:1" fill="#866a00" d="M52.5 61.5h1c.869 2.217 1.202 4.55 1 7h-1a21.445 21.445 0 0 0-1-7z"/><path style="opacity:1" fill="#594610" d="M22.5 63.5c.188 2.706 1.188 5.04 3 7-1.91-.074-3.078-1.074-3.5-3-.765-1.566-.598-2.9.5-4z"/><path style="opacity:1" fill="#f2c200" d="M35.5 66.5h5c3.336 2.027 3.836 4.693 1.5 8-2.966 2.765-5.633 2.432-8-1-.833-2.671-.333-5.004 1.5-7z"/><path style="opacity:1" fill="#10166a" d="M53.5 61.5c1.225.652 1.892 1.819 2 3.5-.014 1.385-.348 2.551-1 3.5.202-2.45-.131-4.783-1-7z"/><path style="opacity:1" fill="#2e250b" d="M31.5 69.5c-1.82 1.961-3.82 2.294-6 1l6-1z"/><path style="opacity:1" fill="#f2c200" d="M53.5 71.5c1.333 2.667 1.333 5.333 0 8a20.677 20.677 0 0 0-5 1 303.438 303.438 0 0 0-4-3 9.106 9.106 0 0 1 1-5 16.869 16.869 0 0 1 8-1z"/><path style="opacity:1" fill="#513f16" d="M53.5 71.5c1.493.812 2.16 2.145 2 4 .16 1.855-.507 3.188-2 4 1.333-2.667 1.333-5.333 0-8z"/><path style="opacity:1" fill="#e9bb00" d="M26.5 82.5c-2.269-2.3-2.602-4.966-1-8 4.827-2.242 8.16-.908 10 4-1.702 4.353-4.702 5.686-9 4z"/><path style="opacity:1" fill="#6e5900" d="M43.5 77.5h1a303.438 303.438 0 0 1 4 3h-2a6.541 6.541 0 0 1-3-3z"/><path style="opacity:1" fill="#241d1a" d="M53.5 79.5c-1.602 1.574-3.602 2.24-6 2 .237 1.291-.096 2.291-1 3v-4h2a20.677 20.677 0 0 1 5-1z"/><path style="opacity:1" fill="#e7ba01" d="M43.5 77.5a6.541 6.541 0 0 0 3 3v4a6.541 6.541 0 0 0-3 3c-1.644.213-3.144-.12-4.5-1a8.434 8.434 0 0 0-.5 4v3c-3.602 1.618-6.936 1.285-10-1-1-6.333 1.667-9 8-8-.667-5.333 1.667-7.667 7-7z"/><path style="opacity:1" fill="#231738" d="M46.5 84.5c0 2-1 3-3 3a6.541 6.541 0 0 1 3-3z"/><path style="opacity:1" fill="#342910" d="M43.5 87.5c-.709.904-1.709 1.237-3 1l-2 2a8.434 8.434 0 0 1 .5-4c1.356.88 2.856 1.213 4.5 1z"/><path style="opacity:1" fill="#0b146a" d="M40.5 88.5c.27 1.88-.396 3.213-2 4v-2l2-2z"/><path style="opacity:1" fill="#19191d" d="M105.5 115.5h2a18.67 18.67 0 0 0 5 3c1.381-.5 2.047-1.5 2-3l-5-16c.438-1.006 1.104-1.006 2 0 .16 1.653.826 2.986 2 4a23.72 23.72 0 0 0 4 5c1.446-.671 2.112-1.838 2-3.5a223.546 223.546 0 0 1-7.5-41.5 6.544 6.544 0 0 1-3-3 40.911 40.911 0 0 0-.5 9c.268 1.599-.066 2.932-1 4a198.917 198.917 0 0 0-1-14 5.727 5.727 0 0 1-1-3c.722-.417 1.222-1.084 1.5-2 .278.916.778 1.583 1.5 2 1.058 1.1 1.892 2.434 2.5 4 .671.752 1.504 1.086 2.5 1a20.691 20.691 0 0 0 1-5 22.833 22.833 0 0 1 3-4 310.678 310.678 0 0 0 3-4h2c.712 1.239 1.712 1.739 3 1.5 1.951-1.734 2.951-3.9 3-6.5-.172-.992.162-1.658 1-2 2.439.767 3.772-.4 4-3.5-.009-1.404-.509-2.57-1.5-3.5-.634 5.634-1.134 5.968-1.5 1l-1-4c.295-1.923 1.128-3.59 2.5-5 .502 9.849 3.169 10.516 8 2a65.204 65.204 0 0 1-4.5 10c2.062 7.596 4.229 7.262 6.5-1 1.643-12.022-3.523-16.855-15.5-14.5a129.059 129.059 0 0 0-15 12 34.21 34.21 0 0 1-8 1.5 88.196 88.196 0 0 0-16.5-3c-11.729.236-20.229 5.569-25.5 16a37.12 37.12 0 0 0 2 4.5c1.077.47 2.077.303 3-.5a19.242 19.242 0 0 0-1 6c-2.148.11-2.481-.556-1-2a10.76 10.76 0 0 0-2.5-3c-.325 2.053.009 4.053 1 6 .977 1.274 1.81 1.274 2.5 0 .904.709 1.237 1.709 1 3-.057 5.182-.724 5.182-2 0-1.02 1.96-1.02 3.96 0 6v3c.934 22.968 7.767 43.968 20.5 63 1.894 3.344 4.727 4.678 8.5 4a104.497 104.497 0 0 0-8.5-28c-.838-4.68-1.67-9.346-2.5-14-.065-.438.101-.772.5-1 .278.916.778 1.582 1.5 2 3.346 11.191 8.679 21.357 16 30.5a12.93 12.93 0 0 0 5 .5v-9c2.392 3.845 2.392 7.678 0 11.5-1.333.667-2.667.667-4 0A58.4 58.4 0 0 1 90 116.5a122.239 122.239 0 0 0 5 17c.497 2.646.664 5.313.5 8-3.922.431-7.422-.569-10.5-3-9.621-13.18-15.954-27.847-19-44a1917.107 1917.107 0 0 0-6-35c-2.064-8.81.436-15.977 7.5-21.5 7.32-4.999 15.32-7.332 24-7 11.877 5.864 21.877 3.531 30-7 7.317-5.102 14.15-4.602 20.5 1.5 2.157 6.449 1.824 12.782-1 19-2.874 2.077-5.041 4.744-6.5 8-1.189.929-2.522 1.262-4 1-.108 2.283-.941 4.283-2.5 6-1.398.55-2.732.884-4 1a12.861 12.861 0 0 0-1.5 6 136.328 136.328 0 0 0 5.5 24 16.242 16.242 0 0 1 0 8c-1.865 2.173-4.031 2.507-6.5 1 .249 3.362-.251 6.695-1.5 10-1.458 1.247-2.958 1.247-4.5 0l-1 1.5c1.283 2.848 1.283 5.682 0 8.5-3.719.683-6.719-.651-9-4z"/><path style="opacity:1" fill="#424242" d="M108.5 69.5c1.304 7.538 2.638 15.205 4 23 .172.992-.162 1.658-1 2a686.633 686.633 0 0 0-4-21c.934-1.068 1.268-2.401 1-4z"/><path style="opacity:1" fill="#dbdbdb" d="M113.5 61.5c.65-.304 1.317-.637 2-1a113.808 113.808 0 0 0 6.5 34 240.463 240.463 0 0 1-4.5-30h3a143.92 143.92 0 0 0 6 29.5c.56 3.441-.773 4.775-4 4-3.53-4.917-5.697-10.417-6.5-16.5a286.633 286.633 0 0 1-2.5-20z"/><path style="opacity:1" fill="#e1e1e1" d="M106.5 59.5c.498 4.652.831 9.319 1 14 1.437 6.95 2.77 13.95 4 21v3c-1.058-1.1-1.892-2.434-2.5-4a168.634 168.634 0 0 1-5.5-29.5c.022-2.183 1.022-3.683 3-4.5z"/><path style="opacity:1" fill="#e9e9e9" d="M82.5 97.5c.83 4.654 1.662 9.32 2.5 14a104.497 104.497 0 0 1 8.5 28c-3.773.678-6.606-.656-8.5-4-12.733-19.032-19.566-40.032-20.5-63 1.89.204 3.39-.463 4.5-2 2.071 20.624 7.404 40.29 16 59 .667-1.333.667-2.667 0-4-8.294-18.472-12.627-37.805-13-58l5 3c1.025 9.297 2.859 18.297 5.5 27z"/><path style="opacity:1" fill="#bdbdbd" d="M64.5 69.5c-1.02-2.04-1.02-4.04 0-6 1.276 5.182 1.943 5.182 2 0a51.209 51.209 0 0 1 2.5-4c1.198 4.309.198 7.975-3 11-.383-.556-.883-.89-1.5-1z"/><path style="opacity:1" fill="#e5e5e5" d="M113.5 103.5a31.147 31.147 0 0 1 2-2 83.714 83.714 0 0 0-3-9c-1.362-7.795-2.696-15.462-4-23a40.911 40.911 0 0 1 .5-9 6.544 6.544 0 0 0 3 3 223.546 223.546 0 0 0 7.5 41.5c.112 1.662-.554 2.829-2 3.5a23.72 23.72 0 0 1-4-5z"/><path style="opacity:1" fill="#e3e3e3" d="m109.5 99.5 5 16c.047 1.5-.619 2.5-2 3a18.67 18.67 0 0 1-5-3c-3.576-4.139-6.409-8.806-8.5-14a156.04 156.04 0 0 1-6-40c2.103 1.803 2.936 4.136 2.5 7-.198 5.25.47 10.25 2 15 1.432 9.457 4.599 18.457 9.5 27a217.332 217.332 0 0 0-5-16 70.082 70.082 0 0 1-3.5-17c.313-3.542-.02-6.875-1-10v-8c1.624-.14 2.79.527 3.5 2 .751 13.273 3.585 25.94 8.5 38z"/><path style="opacity:1" fill="#313131" d="M98.5 77.5a70.082 70.082 0 0 0 3.5 17 217.332 217.332 0 0 1 5 16c-4.901-8.543-8.068-17.543-9.5-27-.295-2.235.039-4.235 1-6z"/><path style="opacity:1" fill="#e8e8e8" d="M80.5 58.5c2.477 1.916 3.477 4.583 3 8-.313 3.542.02 6.875 1 10a145.4 145.4 0 0 0 12 41l1-1a181.091 181.091 0 0 1-12-48v-4c1.871-.359 3.371-1.359 4.5-3 2.21 22.502 7.377 44.169 15.5 65v3a12.93 12.93 0 0 1-5-.5c-7.321-9.143-12.654-19.309-16-30.5a446.057 446.057 0 0 1-6-31.5c1.494-2.639 2.161-5.472 2-8.5z"/><path style="opacity:1" fill="#292929" d="M85.5 68.5a181.091 181.091 0 0 0 12 48l-1 1a145.4 145.4 0 0 1-12-41c-.306-2.885.027-5.552 1-8z"/><path style="opacity:1" fill="#797979" d="M85.5 64.5v4c-.973 2.448-1.306 5.115-1 8-.98-3.125-1.313-6.458-1-10l2-2z"/><path style="opacity:1" fill="#d3d3d3" d="M120.5 51.5c2.852 3.907 2.518 7.574-1 11-3.065-2.247-3.565-4.914-1.5-8a10.256 10.256 0 0 0 1.5 4 13.115 13.115 0 0 0 1-7z"/><path style="opacity:1" fill="#c2c2c2" d="M65.5 59.5v1c-.69 1.274-1.523 1.274-2.5 0-.991-1.947-1.325-3.947-1-6a10.76 10.76 0 0 1 2.5 3c-1.481 1.444-1.148 2.11 1 2z"/><path style="opacity:1" fill="#c7c7c7" d="M114.5 56.5a20.691 20.691 0 0 1-1 5c-.996.086-1.829-.248-2.5-1-.608-1.566-1.442-2.9-2.5-4-.188-1.603.312-2.937 1.5-4 1.776 7.953 2.776 7.62 3-1 1.269 1.405 1.769 3.071 1.5 5z"/><path style="opacity:1" fill="#d4d4d4" d="M78.5 56.5c.514 4.288-.653 7.955-3.5 11-3.106-1.85-4.106-4.517-3-8a22.948 22.948 0 0 1 2 5 46.14 46.14 0 0 1 1.5-8c.76-2.484 1.76-2.484 3 0z"/><path style="opacity:1" fill="#2b2b2b" d="M66.5 53.5c2.05.206 2.382 1.04 1 2.5a8.434 8.434 0 0 0 4 .5c1.278-.282 2.278-.949 3-2-.172.992.162 1.658 1 2a46.14 46.14 0 0 0-1.5 8 22.948 22.948 0 0 0-2-5c-1.106 3.483-.106 6.15 3 8 2.847-3.045 4.014-6.712 3.5-11l2 2c.161 3.028-.506 5.861-2 8.5a446.057 446.057 0 0 0 6 31.5c-.722-.418-1.222-1.084-1.5-2-.399.228-.565.562-.5 1-2.641-8.703-4.475-17.703-5.5-27l-5-3c.373 20.195 4.706 39.528 13 58 .667 1.333.667 2.667 0 4-8.596-18.71-13.929-38.376-16-59-1.11 1.537-2.61 2.204-4.5 2v-3c.617.11 1.117.444 1.5 1 3.198-3.025 4.198-6.691 3-11a51.209 51.209 0 0 0-2.5 4c.237-1.291-.096-2.291-1-3v-1c.017-2.065.35-4.065 1-6z"/><path style="opacity:1" fill="#a5a5a5" d="M126.5 50.5c1.984-.016 2.984.984 3 3-1.95 6.61-3.95 6.61-6 0 1.493-.641 2.493-1.641 3-3z"/><path style="opacity:1" fill="#d7d7d7" d="M120.5 48.5a310.678 310.678 0 0 1-3 4c-3.064-2.059-3.564-4.725-1.5-8 .837 6.337 1.503 6.003 2-1 1.883 1.153 2.716 2.82 2.5 5z"/><path style="opacity:1" fill="#1e1e1e" d="m129.5 31.5 1 4c-1.086.12-1.753.787-2 2 .346 1.35.679 2.682 1 4-.838.342-1.172 1.008-1 2-.768-.763-1.268-1.763-1.5-3a43.39 43.39 0 0 0-2 8c-1.67-5.092-2.503-5.092-2.5 0h-2c.216-2.18-.617-3.847-2.5-5-.497 7.003-1.163 7.337-2 1-2.064 3.275-1.564 5.941 1.5 8a22.833 22.833 0 0 0-3 4c.269-1.929-.231-3.595-1.5-5-.224 8.62-1.224 8.953-3 1-1.188 1.063-1.688 2.397-1.5 4-.722-.417-1.222-1.084-1.5-2-.278.916-.778 1.583-1.5 2a5.727 5.727 0 0 0 1 3c-1.978.817-2.978 2.317-3 4.5a168.634 168.634 0 0 0 5.5 29.5c.608 1.566 1.442 2.9 2.5 4v2c-.896-1.006-1.562-1.006-2 0-4.915-12.06-7.749-24.727-8.5-38-.71-1.473-1.876-2.14-3.5-2v8a40.936 40.936 0 0 1-.5 9c-.183-2.865-.683-5.531-1.5-8 .436-2.864-.397-5.197-2.5-7a156.04 156.04 0 0 0 6 40c2.091 5.194 4.924 9.861 8.5 14h-2a81.316 81.316 0 0 1-2.5-3c.494 2.685 1.327 5.352 2.5 8v6c-8.123-20.831-13.29-42.498-15.5-65-1.129 1.641-2.629 2.641-4.5 3l-2 2c.477-3.417-.523-6.084-3-8l-2-2c-1.24-2.484-2.24-2.484-3 0-.838-.342-1.172-1.008-1-2v-4c-1.643.02-2.976-.647-4-2-.952 1.545-1.285 3.212-1 5 2.748-.098 3.414.902 2 3a8.434 8.434 0 0 1-4-.5c1.382-1.46 1.05-2.294-1-2.5v-2c-2.88-1.023-3.38-2.69-1.5-5 4.097-4.298 8.93-7.465 14.5-9.5 3.858-.81 7.524-.643 11 .5 4.521.002 9.021.336 13.5 1 9.42.389 15.92-3.611 19.5-12 .581 2.875 1.581 5.541 3 8 1.235-.84 2.235-1.84 3-3z"/><path style="opacity:1" fill="gray" d="M97.5 67.5c.98 3.125 1.313 6.458 1 10-.961 1.765-1.295 3.765-1 6-1.53-4.75-2.198-9.75-2-15 .817 2.469 1.317 5.135 1.5 8 .498-2.982.665-5.982.5-9z"/><path style="opacity:1" fill="#c6c6c6" d="M83.5 53.5c1.782 1.22 3.782 1.886 6 2-.095 2.858-1.262 5.19-3.5 7-2.25-2.517-3.084-5.517-2.5-9z"/><path style="opacity:1" fill="#cecece" d="M92.5 51.5c.81 1.792 1.31 3.792 1.5 6 .232-4.25 1.732-4.917 4.5-2-3.117 6.49-5.45 5.99-7-1.5.243-.902.577-1.735 1-2.5z"/><path style="opacity:1" fill="#cdcdcd" d="M99.5 51.5c1.617 1.09 2.45 2.756 2.5 5 .61-4.948 1.776-4.948 3.5 0-.767.672-1.434 1.505-2 2.5-.667.667-1.333.667-2 0-1.613-2.228-2.28-4.728-2-7.5z"/><path style="opacity:1" fill="#a8a8a8" d="M74.5 54.5c-.722 1.051-1.722 1.718-3 2 1.414-2.098.748-3.098-2-3-.285-1.788.048-3.455 1-5 1.024 1.353 2.357 2.02 4 2v4z"/><path style="opacity:1" fill="#d8d8d8" d="M85.5 43.5c1.72 2.158 2.553 4.825 2.5 8a8.434 8.434 0 0 0 .5-4c1.175-.219 2.175.114 3 1-.453 2.065-1.453 3.732-3 5a7.253 7.253 0 0 1-2.5-2 32.437 32.437 0 0 1-.5-8z"/><path style="opacity:1" fill="#d3d3d3" d="M78.5 44.5a345.557 345.557 0 0 1 2 8c-.022-1.495.311-3.162 1-5 2.627 2.877 2.294 5.544-1 8-2.723-3.236-3.39-6.903-2-11z"/><path style="opacity:1" fill="#949494" d="M99.5 51.5c-1.63 1.56-2.796 1.227-3.5-1a12.5 12.5 0 0 1 0-7l1 6 1-3c1.27 1.405 1.77 3.071 1.5 5z"/><path style="opacity:1" fill="#b3b3b3" d="M66.5 51.5c-.285-1.788.048-3.455 1-5 .747 1.79.414 3.456-1 5z"/><path style="opacity:1" fill="#cbcbcb" d="M105.5 43.5c.809 1.792 1.309 3.792 1.5 6 0-4.427 1.167-4.927 3.5-1.5a46.996 46.996 0 0 1-3.5 5.5c-2.764-2.923-3.264-6.256-1.5-10z"/><path style="opacity:1" fill="#cecece" d="M132.5 42.5c1.793.384 2.793 1.55 3 3.5-.354 2.264-1.354 4.098-3 5.5-1.884-1.193-2.384-2.86-1.5-5l1 3c.497-2.31.663-4.643.5-7z"/><path style="opacity:1" fill="#ddd" d="M128.5 43.5c-.049 2.6-1.049 4.766-3 6.5-1.288.239-2.288-.261-3-1.5-.003-5.092.83-5.092 2.5 0a43.39 43.39 0 0 1 2-8c.232 1.237.732 2.237 1.5 3z"/><path style="opacity:1" fill="#cbcbcb" d="M112.5 38.5h3c.484 3.298-.516 5.964-3 8-2.933-1.66-3.6-3.992-2-7 1.487 5.157 2.153 4.824 2-1z"/><path style="opacity:1" fill="#bcbcbc" d="M97.5 39.5c2.127.898 3.294 2.564 3.5 5a8.43 8.43 0 0 0 .5-4c1.175-.219 2.175.114 3 1-4.072 6.812-6.406 6.145-7-2z"/><path style="opacity:1" fill="#d6d6d6" d="M75.5 40.5c.876-.13 1.543.203 2 1-.595 2.817-1.928 5.15-4 7l-1-.5a18.167 18.167 0 0 0 3-7.5z"/><path style="opacity:1" fill="#909090" d="M82.5 40.5v5c-2.754-1.553-3.587-3.886-2.5-7 .417 1.256 1.25 1.923 2.5 2z"/><path style="opacity:1" fill="#cfcfcf" d="M90.5 44.5c.806-1.497 1.472-3.164 2-5 1.076-1.156 2.076-.99 3 .5a29.503 29.503 0 0 0-2.5 4.5c-.977 1.274-1.81 1.274-2.5 0z"/><path style="opacity:1" fill="#eee" d="M82.5 45.5v-5c.321-1.548 1.321-2.215 3-2-.207 2.74-1.207 5.074-3 7z"/><path style="opacity:1" fill="#dfdfdf" d="M129.5 31.5c-.765 1.16-1.765 2.16-3 3-1.419-2.459-2.419-5.125-3-8-3.58 8.389-10.08 12.389-19.5 12a92.193 92.193 0 0 0-13.5-1c-3.476-1.143-7.142-1.31-11-.5-5.57 2.035-10.403 5.202-14.5 9.5-1.88 2.31-1.38 3.977 1.5 5v2c-.923.803-1.923.97-3 .5a37.12 37.12 0 0 1-2-4.5c5.271-10.431 13.771-15.764 25.5-16a88.196 88.196 0 0 1 16.5 3 34.21 34.21 0 0 0 8-1.5c4.711-4.38 9.711-8.38 15-12 11.977-2.355 17.143 2.478 15.5 14.5-2.271 8.262-4.438 8.596-6.5 1a65.204 65.204 0 0 0 4.5-10c-4.831 8.516-7.498 7.849-8-2-1.372 1.41-2.205 3.077-2.5 5z"/><path style="opacity:1" fill="#bbb" d="M129.5 41.5a342.07 342.07 0 0 0-1-4c.247-1.213.914-1.88 2-2 .366 4.968.866 4.634 1.5-1 .991.93 1.491 2.096 1.5 3.5-.228 3.1-1.561 4.267-4 3.5z"/><path style="opacity:1" fill="#d7d7d7" d="M122.5 33.5c4.164 3.757 3.664 7.09-1.5 10-2.303-1.838-2.969-4.172-2-7l2 4c.29-2.42.79-4.754 1.5-7z"/><path style="opacity:1" fill="#bbb" d="M90.5 37.5v7c-2.46-2.511-2.46-4.844 0-7z"/><path style="opacity:1" fill="#181864" d="M28.5 92.5c3.064 2.285 6.398 2.618 10 1-.11.617-.444 1.117-1 1.5a16.25 16.25 0 0 1-8 0c-.752-.67-1.086-1.504-1-2.5z"/><path style="opacity:1" fill="#828282" d="M112.5 92.5a83.714 83.714 0 0 1 3 9 31.147 31.147 0 0 0-2 2c-1.174-1.014-1.84-2.347-2-4v-5c.838-.342 1.172-1.008 1-2z"/><path style="opacity:.973" fill="#1b1921" d="M139.5 105.5c-10.351 19.853-25.351 35.353-45 46.5a81.418 81.418 0 0 1-17.5 7.5c-20.946-7.609-38.613-19.942-53-37a63.445 63.445 0 0 1-7.5-13c.904-.709 1.237-1.709 1-3 13.614 23.745 33.447 40.078 59.5 49a197.712 197.712 0 0 1 12.5-4.5 247.637 247.637 0 0 0 22-15 286.37 286.37 0 0 0 14-14.5 108.51 108.51 0 0 1 10-14l4-2z"/></svg>