<svg xmlns="http://www.w3.org/2000/svg" width="322" height="341" style="shape-rendering:geometricPrecision;text-rendering:geometricPrecision;image-rendering:optimizeQuality;fill-rule:evenodd;clip-rule:evenodd"><path style="opacity:1" fill="#f4f3eb" d="M-.5-.5h322v196c-4.819 1.376-6.152 4.043-4 8a18.725 18.725 0 0 0-2 8h-13c1.81-3.454 1.143-6.12-2-8 7.766-19.584 12.433-39.917 14-61 .901-46.326 1.234-92.66 1-139h-182a3458.2 3458.2 0 0 0-112 0h-19c-.332 43.837.001 87.503 1 131a244.254 244.254 0 0 0 3 31 28.22 28.22 0 0 0-4-1.5 3.942 3.942 0 0 0 1-2 166.294 166.294 0 0 0-4-10.5V-.5z"/><path style="opacity:1" fill="#272216" d="M133.5 3.5c-15.67-.167-31.337 0-47 .5l120 1c.556.383.889.883 1 1.5 0 .667-.333 1-1 1a1513.004 1513.004 0 0 0-110 0h-31a1221.384 1221.384 0 0 0-52-3c2.885.306 5.552-.027 8-1a3458.2 3458.2 0 0 1 112 0z"/><path style="opacity:1" fill="#27140d" d="M133.5 3.5h182c.234 46.34-.099 92.674-1 139a159.141 159.141 0 0 1-1.5-18c-.831 13.317-1.331 13.317-1.5 0 .321-5.526-.012-10.86-1-16a5.727 5.727 0 0 0 1-3v-98c-16.653-1.333-33.653-2-51-2-17.709.013-35.376.346-53 1-.111-.617-.444-1.117-1-1.5l-120-1c15.663-.5 31.33-.667 47-.5z"/><path style="opacity:1" fill="#342b04" d="M13.5 4.5c17.352.63 34.686 1.63 52 3h-59v93c-.823 3.477-1.323 7.144-1.5 11a2704.236 2704.236 0 0 1 0-104C7.096 6.285 6.929 5.451 4.5 5a40.937 40.937 0 0 1 9-.5z"/><path style="opacity:1" fill="#3a0902" d="M311.5 7.5a2211.689 2211.689 0 0 0-101-.5l-3 1.5c-.667 0-1-.333-1-1 .667 0 1-.333 1-1 17.624-.654 35.291-.987 53-1 17.347 0 34.347.667 51 2z"/><path style="opacity:1" fill="#a59d38" d="M96.5 7.5a1513.004 1513.004 0 0 1 110 0l-2 1a2916.58 2916.58 0 0 0-108-1z"/><path style="opacity:1" fill="#f1e85d" d="M65.5 7.5h28a1849.601 1849.601 0 0 1-86 1v7c-.147 42.672.187 85.339 1 128a776.466 776.466 0 0 1-2-29V7.5h59z"/><path style="opacity:1" fill="#b24a31" d="M311.5 7.5v98a694.383 694.383 0 0 1-8 6c-.219-1.175.114-2.175 1-3a31.786 31.786 0 0 0 5.5-5c.5-28.665.667-57.331.5-86 .488-3.21-.179-6.044-2-8.5a2352.488 2352.488 0 0 0-97 0 79.839 79.839 0 0 1-9 6.5 25.494 25.494 0 0 0 5-7l3-1.5c33.671-.602 67.338-.435 101 .5z"/><path style="opacity:1" fill="#f9ef26" d="M93.5 7.5h3a2916.58 2916.58 0 0 1 108 1l-31 28c.273-1.951-.393-3.451-2-4.5 7.721-2.024 7.721-3.69 0-5 1.435-2.267 1.102-4.267-1-6 4.469-2.254 8.636-1.754 12.5 1.5l1.5-1.5-7-4.5c1.03-.055 2.197-.388 3.5-1 .492-1.049.326-2.049-.5-3a20.211 20.211 0 0 1 6-1.5l-5-1 8-1c-60.328.357-120.66.523-181 .5.295 2.235-.039 4.235-1 6v-7c28.838.331 57.505-.002 86-1z"/><path style="opacity:1" fill="#fdf504" d="M173.5 36.5c-1.644-.214-3.144.12-4.5 1-.804-1.304-1.971-1.971-3.5-2-2.091 2.142-5.091 3.809-9 5 .273 1.951-.393 3.451-2 4.5l2 1c-2.067.536-3.901.036-5.5-1.5-.617.95-.451 1.782.5 2.5-3.05 1.897-6.384 3.063-10 3.5-1.333 1-1.333 2 0 3l4-2c1.542 1.247 3.042 1.247 4.5 0-.041 3.561-1.875 5.895-5.5 7-.648-1.65-1.648-2.983-3-4a4.458 4.458 0 0 0-1.5 2c-1.84-1.333-2.34-1.166-1.5.5-4.474 1.808-7.641 4.974-9.5 9.5-.507 1.496-.007 2.663 1.5 3.5-.949.617-1.782.45-2.5-.5l-1 2c-1.973-1.098-4.14-.93-6.5.5 1.196.654 1.196 1.154 0 1.5-2.245-2.26-4.911-3.594-8-4-.124 2.452-1.124 4.452-3 6 .74 3.345.407 6.678-1 10 1.788.783 2.788 2.116 3 4a6.544 6.544 0 0 1-3 3 8.435 8.435 0 0 0-4 .5c1.196.654 1.196 1.154 0 1.5-2.338-1.51-3.004-1.177-2 1-3.875.205-5.541 2.205-5 6a29.806 29.806 0 0 0-5-.5l1 1c-3.737 2.025-6.07 4.692-7 8a4.934 4.934 0 0 1-3 .5v3h-3v3c-4.712.045-7.045 2.378-7 7a378.773 378.773 0 0 1-25 21c-1.637-.718-3.303-.884-5-.5-.506 2.694-1.673 4.194-3.5 4.5l-1-2c-.723 2.72-2.223 4.887-4.5 6.5l1 1c-1.244.456-2.077-.044-2.5-1.5-2.092 3.098-4.592 5.931-7.5 8.5-.95.617-1.782.451-2.5-.5-.492 1.049-.326 2.049.5 3-3.44 1.723-7.107 2.39-11 2a68.79 68.79 0 0 0-1.5-15c-.417-1.256-1.25-1.923-2.5-2v-5a5689.737 5689.737 0 0 1-1-128c.961-1.765 1.295-3.765 1-6 60.34.023 120.672-.143 181-.5l-8 1 5 1a20.211 20.211 0 0 0-6 1.5c.826.951.992 1.951.5 3-1.303.612-2.47.945-3.5 1l7 4.5-1.5 1.5c-3.864-3.254-8.031-3.754-12.5-1.5 2.102 1.733 2.435 3.733 1 6 7.721 1.31 7.721 2.976 0 5 1.607 1.049 2.273 2.549 2 4.5z"/><path style="opacity:1" fill="#d64826" d="M310.5 17.5c-.827 5.485-1.327 11.152-1.5 17a4.458 4.458 0 0 1-1.5 2c-1.786-2.026-2.119-4.192-1-6.5a74.336 74.336 0 0 1-1.5-9.5 20.176 20.176 0 0 1-4 6l-2-2c-1.972.805-3.472 2.139-4.5 4-3.908-.959-7.408-3.292-10.5-7-2.093.746-4.093 1.08-6 1-1.353-1.204-3.019-1.87-5-2a115.906 115.906 0 0 1-9.5 2v3l-11 4c-.185-3.566.481-6.9 2-10 .235-2.548-.765-4.214-3-5-6.002 1.222-11.669 3.222-17 6a115.786 115.786 0 0 1-16 3c-4.424 3.87-9.424 4.87-15 3-.111-.617-.444-1.117-1-1.5a18.437 18.437 0 0 0-6-.5v-3a8.435 8.435 0 0 0 4-.5c1.333-1 1.333-2 0-3 .881-.708 1.547-1.542 2-2.5a79.839 79.839 0 0 0 9-6.5c32.333-.667 64.667-.667 97 0 1.821 2.456 2.488 5.29 2 8.5z"/><path style="opacity:1" fill="#bc5641" d="M234.5 20.5c-4.145 3.328-8.812 4.494-14 3.5a145.205 145.205 0 0 0-11.5 7.5 212.151 212.151 0 0 1-11.5-6 19.24 19.24 0 0 1 6 1c5.576 1.87 10.576.87 15-3a115.786 115.786 0 0 0 16-3z"/><path style="opacity:1" fill="#3f201a" d="M249.5 23.5c-.296 1.903-.963 3.57-2 5 .375-3.407-.625-3.907-3-1.5.881.708 1.547 1.542 2 2.5-.829.832-1.662.499-2.5-1-1.145 1.184-2.312 1.184-3.5 0 2.508-2.424 5.508-4.09 9-5z"/><path style="opacity:1" fill="#fae6d9" d="M247.5 28.5c0 .667-.333 1-1 1-.453-.958-1.119-1.792-2-2.5 2.375-2.407 3.375-1.907 3 1.5z"/><path style="opacity:1" fill="#401a16" d="M251.5 14.5c1.333 3 1.333 6 0 9h-2c.869-2.217 1.202-4.55 1-7a107.051 107.051 0 0 0-22 9.5c-8.916-.044-16.25 3.456-22 10.5a44.873 44.873 0 0 1-11-3c-1.062.925-1.062 1.925 0 3-.597.235-.93.735-1 1.5a25.052 25.052 0 0 1 2.5 8.5 11.532 11.532 0 0 0 3.5 4.5c-1.917-.028-3.584-.86-5-2.5a74.371 74.371 0 0 1-8 6.5c1.801.317 2.134.984 1 2a10.122 10.122 0 0 1-4 1.5c1.102-1.592.435-2.425-2-2.5 5.371-2.203 9.704-5.703 13-10.5a101.799 101.799 0 0 1-4-13c1.973-.831 3.973-.998 6-.5-1.311-2.273-1.311-4.44 0-6.5 3.702 2.08 7.535 4.08 11.5 6a145.205 145.205 0 0 1 11.5-7.5c5.188.994 9.855-.172 14-3.5 5.331-2.778 10.998-4.778 17-6z"/><path style="opacity:1" fill="#f6f1ed" d="M198.5 28.5c2.511.894 5.011 1.894 7.5 3 1.659 1.454 1.326 2.787-1 4-4.104-.602-6.27-2.935-6.5-7z"/><path style="opacity:1" fill="#634032" d="M240.5 28.5c-.671 1.347-.671 2.514 0 3.5a8.435 8.435 0 0 1-4 .5 31.867 31.867 0 0 1-3 7c-.791-.566-.791-1.399 0-2.5-.336-1.03-1.003-1.53-2-1.5 2.137-3.473 5.137-5.806 9-7z"/><path style="opacity:1" fill="#cf4626" d="M251.5 14.5c2.235.786 3.235 2.452 3 5-1.519 3.1-2.185 6.434-2 10l11-4v-3a115.906 115.906 0 0 0 9.5-2c1.981.13 3.647.796 5 2 1.907.08 3.907-.254 6-1 3.092 3.708 6.592 6.041 10.5 7 1.028-1.861 2.528-3.195 4.5-4l2 2a20.176 20.176 0 0 0 4-6 74.336 74.336 0 0 0 1.5 9.5c-1.119 2.308-.786 4.474 1 6.5a4.458 4.458 0 0 0 1.5-2c.173-5.848.673-11.515 1.5-17 .167 28.669 0 57.335-.5 86a31.786 31.786 0 0 1-5.5 5c-.886.825-1.219 1.825-1 3-3.459.936-6.293 2.936-8.5 6l-1-1-1 3-17.5 15.5c-2.29 1.777-3.957 3.944-5 6.5h-3c.106-3.115-.894-5.781-3-8 .789-.283 1.456-.783 2-1.5a37.84 37.84 0 0 1-5-5.5l-2-2c-.111-.617-.444-1.117-1-1.5a55.328 55.328 0 0 0-16 .5v-3c4.371.966 7.371-.534 9-4.5 2.41-.6 4.41-1.766 6-3.5a10.134 10.134 0 0 0 4-1.5 528.91 528.91 0 0 1 18-19.5l-1-2a184.223 184.223 0 0 0-2-3c2.27-3.001 1.27-4.835-3-5.5-.415-2.026-1.415-3.526-3-4.5-3.192-.096-6.192.571-9 2a75.883 75.883 0 0 1-11 4 35.496 35.496 0 0 1-3.5 12 20.812 20.812 0 0 0-7.5 3c-1.714-1.109-2.381-.442-2 2-1.56-.02-3.06-.352-4.5-1-6.521 2.681-13.354 4.681-20.5 6-.886-.825-1.219-1.825-1-3h6c.262-1.478-.071-2.811-1-4-.758 1.311-1.758 1.811-3 1.5.466-5.067 2.3-9.567 5.5-13.5a36.55 36.55 0 0 1 3 10 37.708 37.708 0 0 1 3.5-8c-1.506-1.247-3.006-1.247-4.5 0a82.178 82.178 0 0 1 1.5-13c1.175.219 2.175-.114 3-1a46.881 46.881 0 0 1 4-5 31.517 31.517 0 0 0 9-5.5 400.731 400.731 0 0 1 20.5-8.5c2.787-4.928 1.953-8.928-2.5-12a5.577 5.577 0 0 1-3 1 44.147 44.147 0 0 0-1-2 40.251 40.251 0 0 0 12.5-10c1.373-2.195 1.706-4.529 1-7a19.565 19.565 0 0 0-3.5 4c-2.683 1.836-5.683 2.836-9 3h-4l2-8c1.333-3 1.333-6 0-9z"/><path style="opacity:1" fill="#b3533d" d="M249.5 23.5h2l-2 8h4c-8.288 2.645-15.954 6.645-23 12l-1-1.5a16.993 16.993 0 0 0 2-6.5c.997-.03 1.664.47 2 1.5-.791 1.101-.791 1.934 0 2.5a31.867 31.867 0 0 0 3-7 8.435 8.435 0 0 0 4-.5c-.671-.986-.671-2.153 0-3.5 1.188 1.184 2.355 1.184 3.5 0 .838 1.499 1.671 1.832 2.5 1 .667 0 1-.333 1-1 1.037-1.43 1.704-3.097 2-5z"/><path style="opacity:1" fill="#faf8f1" d="M249.5 23.5c-3.492.91-6.492 2.576-9 5-3.863 1.194-6.863 3.527-9 7-3.932 4.753-3.932 9.586 0 14.5 5.828 2.025 11.495 1.859 17-.5 3.544.368 6.544-.632 9-3a2.427 2.427 0 0 1 2 .5c-.837 1.011-1.17 2.178-1 3.5-11.123 3.897-21.457 9.397-31 16.5a77.671 77.671 0 0 0-10 0c1.578 1.14 3.244 1.64 5 1.5a39.478 39.478 0 0 0-4.5 11c-1.044-1.123-1.71-2.456-2-4a72.47 72.47 0 0 0-4 18c-1.117-1.45-1.784-3.116-2-5a420.758 420.758 0 0 0-4 30c-1.301 1.902-1.968 3.902-2 6 3.908-4.588 5.408-9.921 4.5-16 1.291.237 2.291-.096 3-1a108.955 108.955 0 0 0 34-7.5c4.161-3.154 6.661-7.32 7.5-12.5 1.571-2.423 3.737-3.756 6.5-4 .91 2.001.077 3.335-2.5 4-.667.667-.667 1.333 0 2a21.9 21.9 0 0 1 6.5-4 6.544 6.544 0 0 0 3 3v1c-4.707 1.013-7.04 3.68-7 8 1.355-3.355 3.689-5.689 7-7a12.642 12.642 0 0 0 2.5 4c.667 1.333.667 2.667 0 4a74.464 74.464 0 0 0-9.5 10.5 66.49 66.49 0 0 1-17 5c-1.134 1.016-.801 1.683 1 2l-14 1c1.123 1.044 2.456 1.71 4 2a2.428 2.428 0 0 1-2 .5 25.879 25.879 0 0 0-10 1 6.802 6.802 0 0 0 3 1.5c-3.856.177-7.523.677-11 1.5 1.051.722 1.718 1.722 2 3-3.851 1.061-7.685 1.061-11.5 0-1.735-1.182-2.735-2.849-3-5-.896 2.525-.396 4.692 1.5 6.5 12.734 4.779 25.734 6.113 39 4a73.503 73.503 0 0 0 7-7.5h4v3c-1.603-.188-2.937.312-4 1.5 1.925-.135 3.925-.302 6-.5a61.26 61.26 0 0 1 1 13 227.398 227.398 0 0 1-12 5.5 34.75 34.75 0 0 1-15.5-1.5l-3.5.5c1.196.654 1.196 1.154 0 1.5a5.576 5.576 0 0 0-3-1c-1.299-1.599-2.965-2.099-5-1.5 1.507.837 2.007 2.004 1.5 3.5-2.645-1.915-5.479-3.082-8.5-3.5l3 3a2.428 2.428 0 0 1-2 .5c-2.263-1.883-4.93-3.216-8-4v3c-2.529-1.46-5.196-1.96-8-1.5a7.293 7.293 0 0 1 3 2 63.752 63.752 0 0 1-13-1.5 98.031 98.031 0 0 0-5.5-12c.063 2.987.897 5.82 2.5 8.5l-11 5.5c-10.757 1.018-20.757 4.185-30 9.5-5.698 4.52-9.031 10.353-10 17.5-1.5 9.297-3 18.631-4.5 28l-6.5 8.5a159.041 159.041 0 0 0-16.5 13.5c-1.791 6.35-.624 12.183 3.5 17.5 2.333.667 4.667.667 7 0 1.979-3.325 4.645-4.158 8-2.5a4.934 4.934 0 0 1-.5 3c-3.061-1.443-5.561-.776-7.5 2a29.23 29.23 0 0 1 9-1v3l-4.5 9a9.454 9.454 0 0 1-2.5 1.5 62.858 62.858 0 0 1-18-.5 81.362 81.362 0 0 1-5.5-5 425.764 425.764 0 0 1-6.5-28c4.973-4.817 9.473-10.15 13.5-16 .667-.667.667-1.333 0-2a14.984 14.984 0 0 1-3.5 3c-.797-.457-1.13-1.124-1-2 2.466-2.24 4.466-4.907 6-8-.855-.793-1.689-.46-2.5 1l-.5-1.5c.951-2.158 1.451-4.325 1.5-6.5l-3 3c.476-2.66 1.31-5.326 2.5-8h-3c1.786-7.458 3.62-14.791 5.5-22a92.217 92.217 0 0 1-22.5 23v-4a134.143 134.143 0 0 1-10.5 9c-.265-1.663.235-3.163 1.5-4.5-2.62.427-4.62 1.927-6 4.5-3.062.97-6.062 1.804-9 2.5l3-3c-4.041.686-7.875 2.186-11.5 4.5l-1-2c-2.064 1.091-4.23 1.258-6.5.5 1.46-.811 1.793-1.645 1-2.5-3.943 1.1-7.942 1.267-12 .5l3-1c-4.354-1.526-8.02-4.026-11-7.5a17.335 17.335 0 0 1 7-3.5 42.276 42.276 0 0 1 15 .5l2-.5a7.292 7.292 0 0 1-3-2l14-1-2-2a130.837 130.837 0 0 0 12-2 22.973 22.973 0 0 1-5-2 41.451 41.451 0 0 0 14-3l-3-1a59.272 59.272 0 0 1 10-3.5 4.458 4.458 0 0 0-2-1.5 215.765 215.765 0 0 0 17-10 18.452 18.452 0 0 1 6-.5c-.055-5.458 2.278-9.625 7-12.5l10-6c-1.943.305-3.943.305-6 0a67.876 67.876 0 0 1 12-7c1.196-.654 1.196-1.154 0-1.5-1.598.985-3.265 1.151-5 .5 2.739-1.026 5.072-2.526 7-4.5a12.805 12.805 0 0 0 6-3c1.211-.774 1.211-1.607 0-2.5a66.395 66.395 0 0 0 11-8 8.43 8.43 0 0 0-4-.5v-1c3.872-1.693 7.372-4.026 10.5-7a71.689 71.689 0 0 0 9-17 110.9 110.9 0 0 0 14-11c.667-.667.667-1.333 0-2-.654 1.196-1.154 1.196-1.5 0a34.245 34.245 0 0 0 9-6.5l-2-1c1.593-.949 2.926-2.115 4-3.5.992.172 1.658-.162 2-1a10.122 10.122 0 0 0 4-1.5c1.134-1.016.801-1.683-1-2a74.371 74.371 0 0 0 8-6.5c1.416 1.64 3.083 2.472 5 2.5a11.532 11.532 0 0 1-3.5-4.5 25.052 25.052 0 0 0-2.5-8.5c.07-.765.403-1.265 1-1.5-1.062-1.075-1.062-2.075 0-3a44.873 44.873 0 0 0 11 3c5.75-7.044 13.084-10.544 22-10.5a107.051 107.051 0 0 1 22-9.5c.202 2.45-.131 4.783-1 7z"/><path style="opacity:1" fill="#443e39" d="M206.5 36.5c1.696.185 3.029 1.019 4 2.5-1.912.28-3.246-.554-4-2.5z"/><path style="opacity:1" fill="#241d1a" d="M223.5 30.5c1.716 1.074 2.716 2.74 3 5-2.995 1.021-5.995 1.521-9 1.5a54.538 54.538 0 0 0 6-6.5z"/><path style="opacity:1" fill="#383632" d="M195.5 36.5c2.667 2 5 4.333 7 7a4.932 4.932 0 0 1-3-.5 36.643 36.643 0 0 1-4-6.5z"/><path style="opacity:1" fill="#44100e" d="M253.5 43.5c-1.235-.221-2.235-.888-3-2-1.823 1.247-3.823 1.914-6 2 5.626-2.506 10.96-5.672 16-9.5a14.506 14.506 0 0 0 4-5 2.427 2.427 0 0 0-2-.5 19.565 19.565 0 0 1 3.5-4c.706 2.471.373 4.805-1 7a40.251 40.251 0 0 1-12.5 10c.363.684.696 1.35 1 2z"/><path style="opacity:1" fill="#efe9e2" d="M262.5 28.5a2.427 2.427 0 0 1 2 .5 14.506 14.506 0 0 1-4 5c-5.04 3.828-10.374 6.994-16 9.5a38.448 38.448 0 0 0-10 6c-4.054-.906-4.72-2.74-2-5.5 3.159-3.082 6.825-5.416 11-7a85.848 85.848 0 0 0 17-6c.881-.708 1.547-1.542 2-2.5z"/><path style="opacity:1" fill="#a85745" d="M253.5 43.5a5.577 5.577 0 0 0 3-1c4.453 3.072 5.287 7.072 2.5 12a400.731 400.731 0 0 0-20.5 8.5 31.517 31.517 0 0 1-9 5.5c8.435-7.384 18.102-12.384 29-15v-3c-.17-1.322.163-2.489 1-3.5a2.427 2.427 0 0 0-2-.5c-1.562-.233-2.895-.9-4-2l-2 1c-1.315.388-2.315 1.721-3 4-1.262-2.57-2.595-2.57-4 0a4.458 4.458 0 0 1-1.5-2c-.967 3.405-2.8 3.905-5.5 1.5 1.072-1.284 2.405-1.617 4-1l-1-1c1.593-.949 2.926-2.115 4-3.5 2.177-.086 4.177-.753 6-2 .765 1.112 1.765 1.779 3 2z"/><path style="opacity:1" fill="#421903" d="M206.5 7.5c0 .667.333 1 1 1a25.494 25.494 0 0 1-5 7c-11.585 8.321-22.252 17.821-32 28.5a1176.914 1176.914 0 0 1-54 45.5v1a19.168 19.168 0 0 0-5 2.5 1424.486 1424.486 0 0 1-33 30.5c-.667 0-1 .333-1 1a166.79 166.79 0 0 0-29 24 873.336 873.336 0 0 0-28 23.5c-1.952.366-3.618 1.199-5 2.5h-2a62672.753 62672.753 0 0 1 35-30 378.773 378.773 0 0 0 25-21 767 767 0 0 1 35-31 6.544 6.544 0 0 0 3-3 420.905 420.905 0 0 0 20-15.5 1572.333 1572.333 0 0 0 42-37.5l31-28 2-1z"/><path style="opacity:1" fill="#24221f" d="M202.5 43.5c1.808-.009 3.475.491 5 1.5-2.035.599-3.701.099-5-1.5z"/><path style="opacity:1" fill="#3f2928" d="M251.5 45.5c-.131.876.202 1.543 1 2 .886-.825 1.219-1.825 1-3 1.105 1.1 2.438 1.767 4 2-2.456 2.368-5.456 3.368-9 3 .685-2.279 1.685-3.612 3-4z"/><path style="opacity:1" fill="#f6dfdd" d="M253.5 44.5c.219 1.175-.114 2.175-1 3-.798-.457-1.131-1.124-1-2l2-1z"/><path style="opacity:1" fill="#3a201b" d="M262.5 28.5c-.453.958-1.119 1.792-2 2.5a85.848 85.848 0 0 1-17 6c-4.175 1.584-7.841 3.918-11 7-2.72 2.76-2.054 4.594 2 5.5a38.448 38.448 0 0 1 10-6c-1.074 1.385-2.407 2.551-4 3.5l1 1c-1.595-.617-2.928-.284-4 1 2.7 2.405 4.533 1.905 5.5-1.5a4.458 4.458 0 0 0 1.5 2c1.405-2.57 2.738-2.57 4 0-5.505 2.359-11.172 2.525-17 .5-3.932-4.914-3.932-9.747 0-14.5a16.993 16.993 0 0 1-2 6.5l1 1.5c7.046-5.355 14.712-9.355 23-12 3.317-.164 6.317-1.164 9-3z"/><path style="opacity:1" fill="#381815" d="M258.5 50.5v3c-10.898 2.616-20.565 7.616-29 15-2.544-.396-4.711.271-6.5 2a113.425 113.425 0 0 0-5 14 7.292 7.292 0 0 1-2-3 67.769 67.769 0 0 0-3 16c-1.309-2.391-2.309-2.391-3 0-.805 3.196-.638 6.196.5 9 0 .667.333 1 1 1-.709.904-1.709 1.237-3 1 .908 6.079-.592 11.412-4.5 16 .032-2.098.699-4.098 2-6a420.758 420.758 0 0 1 4-30c.216 1.884.883 3.55 2 5a72.47 72.47 0 0 1 4-18c.29 1.544.956 2.877 2 4a39.478 39.478 0 0 1 4.5-11c-1.756.14-3.422-.36-5-1.5a77.671 77.671 0 0 1 10 0c9.543-7.103 19.877-12.603 31-16.5z"/><path style="opacity:1" fill="#f9ee1a" d="M173.5 36.5a1572.333 1572.333 0 0 1-42 37.5 420.905 420.905 0 0 1-20 15.5c-.212-1.884-1.212-3.217-3-4 1.407-3.322 1.74-6.655 1-10 1.876-1.548 2.876-3.548 3-6 3.089.406 5.755 1.74 8 4 1.196-.346 1.196-.846 0-1.5 2.36-1.43 4.527-1.598 6.5-.5l1-2c.718.95 1.551 1.117 2.5.5-1.507-.837-2.007-2.004-1.5-3.5 1.859-4.526 5.026-7.692 9.5-9.5-.84-1.666-.34-1.833 1.5-.5a4.458 4.458 0 0 1 1.5-2c1.352 1.017 2.352 2.35 3 4 3.625-1.105 5.459-3.439 5.5-7-1.458 1.247-2.958 1.247-4.5 0l-4 2c-1.333-1-1.333-2 0-3 3.616-.437 6.95-1.603 10-3.5-.951-.718-1.117-1.55-.5-2.5 1.599 1.536 3.433 2.036 5.5 1.5l-2-1c1.607-1.049 2.273-2.549 2-4.5 3.909-1.191 6.909-2.858 9-5 1.529.029 2.696.696 3.5 2 1.356-.88 2.856-1.214 4.5-1z"/><path style="opacity:1" fill="#bf513a" d="M170.5 67.5c-.203 1.544-.87 2.878-2 4 .346 1.196.846 1.196 1.5 0 .667.667.667 1.333 0 2a124.269 124.269 0 0 0-12 9 117.298 117.298 0 0 1-10.5 17c1.361-6.098 4.195-11.431 8.5-16a17.759 17.759 0 0 0 1.5-7c5.386.123 8.553-2.544 9.5-8 1.011-.837 2.178-1.17 3.5-1z"/><path style="opacity:1" fill="#c4563c" d="M270.5 76.5c1.585.974 2.585 2.474 3 4.5 4.27.665 5.27 2.499 3 5.5a184.223 184.223 0 0 1 2 3c-3.042-1.532-5.876-1.199-8.5 1a4.934 4.934 0 0 1-.5-3 12.799 12.799 0 0 0 6-3c-.671-1.446-1.838-2.112-3.5-2-2.151.272-4.151.94-6 2-.613-1.995-.113-3.662 1.5-5 2 0 3-1 3-3z"/><path style="opacity:1" fill="#d14829" d="M202.5 15.5c-.453.958-1.119 1.792-2 2.5 1.333 1 1.333 2 0 3a8.435 8.435 0 0 1-4 .5v3a18.437 18.437 0 0 1 6 .5c.556.383.889.883 1 1.5a19.24 19.24 0 0 0-6-1c-1.311 2.06-1.311 4.227 0 6.5-2.027-.498-4.027-.331-6 .5a101.799 101.799 0 0 0 4 13c-3.296 4.797-7.629 8.297-13 10.5 2.435.075 3.102.908 2 2.5-.342.838-1.008 1.172-2 1a28.518 28.518 0 0 0-9 4.5l4 1c-1.941 1.903-4.274 2.736-7 2.5-1.322-.17-2.489.163-3.5 1-.947 5.456-4.114 8.123-9.5 8a17.759 17.759 0 0 1-1.5 7c-4.305 4.569-7.139 9.902-8.5 16-2.369 3.695-5.703 6.195-10 7.5-1.499.838-1.832 1.671-1 2.5-1.26 1.867-2.927 3.2-5 4v-4a12.93 12.93 0 0 0-5 .5c-3.276 4.112-7.276 7.279-12 9.5a26.585 26.585 0 0 1-2-3.5c1.638-.242 3.138-1.075 4.5-2.5.499-4.321.666-8.654.5-13 1.322.17 2.489-.163 3.5-1a15.252 15.252 0 0 1 1.5-4.5c7.521-1.19 7.855-3.19 1-6a11.596 11.596 0 0 0-7 .5 1176.914 1176.914 0 0 0 54-45.5c9.748-10.679 20.415-20.179 32-28.5z"/><path style="opacity:1" fill="#fae8e0" d="M267.5 79.5c-2.797.467-4.131 2.133-4 5-1.527.073-2.527-.594-3-2 1.737-2.38 4.07-4.047 7-5 .963.47.963 1.136 0 2z"/><path style="opacity:1" fill="#ead5cd" d="M269.5 87.5a5.728 5.728 0 0 1-3 1c.28-3.725 2.28-4.892 6-3.5-1.442.377-2.442 1.21-3 2.5z"/><path style="opacity:1" fill="#665d58" d="M260.5 82.5c.473 1.406 1.473 2.073 3 2v1a21.9 21.9 0 0 0-6.5 4c-.667-.667-.667-1.333 0-2 2.577-.665 3.41-1.999 2.5-4 0-.667.333-1 1-1z"/><path style="opacity:1" fill="#5d271c" d="M267.5 79.5c-1.613 1.338-2.113 3.005-1.5 5a15.968 15.968 0 0 1 6-2c1.662-.112 2.829.554 3.5 2a12.799 12.799 0 0 1-6 3c.558-1.29 1.558-2.123 3-2.5-3.72-1.392-5.72-.225-6 3.5a6.544 6.544 0 0 1-3-3v-1c-.131-2.867 1.203-4.533 4-5z"/><path style="opacity:1" fill="#491c17" d="M182.5 59.5c-1.074 1.385-2.407 2.551-4 3.5l2 1a34.245 34.245 0 0 1-9 6.5c.346 1.196.846 1.196 1.5 0 .667.667.667 1.333 0 2a110.9 110.9 0 0 1-14 11 71.689 71.689 0 0 1-9 17c-3.128 2.974-6.628 5.307-10.5 7l-3 2c-.832-.829-.499-1.662 1-2.5 4.297-1.305 7.631-3.805 10-7.5a117.298 117.298 0 0 0 10.5-17 124.269 124.269 0 0 1 12-9c.667-.667.667-1.333 0-2-.654 1.196-1.154 1.196-1.5 0 1.13-1.122 1.797-2.456 2-4 2.726.236 5.059-.597 7-2.5l-4-1a28.518 28.518 0 0 1 9-4.5z"/><path style="opacity:1" fill="#746e68" d="M266.5 89.5v1c-3.311 1.311-5.645 3.645-7 7-.04-4.32 2.293-6.987 7-8z"/><path style="opacity:1" fill="#342b1a" d="M21.5 3.5c-2.448.973-5.115 1.306-8 1a40.937 40.937 0 0 0-9 .5c2.429.451 2.596 1.285.5 2.5a2704.236 2704.236 0 0 0 0 104c.177-3.856.677-7.523 1.5-11v14c-.582 9.276-1.582 15.943-3 20a4290.828 4290.828 0 0 1-1-131h19z"/><path style="opacity:1" fill="#461412" d="M270.5 76.5c0 2-1 3-3 3 .963-.864.963-1.53 0-2-2.93.953-5.263 2.62-7 5-.667 0-1 .333-1 1-2.763.244-4.929 1.577-6.5 4-.839 5.18-3.339 9.346-7.5 12.5a108.955 108.955 0 0 1-34 7.5c-.667 0-1-.333-1-1a122.218 122.218 0 0 0 35-8.5c3.106-3.632 5.273-7.799 6.5-12.5a464.51 464.51 0 0 1 9.5-7c2.808-1.429 5.808-2.096 9-2z"/><path style="opacity:1" fill="#c45039" d="M229.5 68.5a46.881 46.881 0 0 0-4 5c-.825.886-1.825 1.219-3 1a82.178 82.178 0 0 0-1.5 13c1.494-1.247 2.994-1.247 4.5 0a37.708 37.708 0 0 0-3.5 8 36.55 36.55 0 0 0-3-10c-3.2 3.933-5.034 8.433-5.5 13.5 1.242.311 2.242-.189 3-1.5.929 1.189 1.262 2.522 1 4h-6c-.219 1.175.114 2.175 1 3 7.146-1.319 13.979-3.319 20.5-6 1.44.648 2.94.98 4.5 1-.381-2.442.286-3.109 2-2a20.812 20.812 0 0 1 7.5-3 35.496 35.496 0 0 0 3.5-12 75.883 75.883 0 0 0 11-4 464.51 464.51 0 0 0-9.5 7c-1.227 4.701-3.394 8.868-6.5 12.5a122.218 122.218 0 0 1-35 8.5c-1.138-2.804-1.305-5.804-.5-9 .691-2.391 1.691-2.391 3 0a67.769 67.769 0 0 1 3-16 7.292 7.292 0 0 0 2 3 113.425 113.425 0 0 1 5-14c1.789-1.729 3.956-2.396 6.5-2z"/><path style="opacity:1" fill="#dc4a29" d="M131.5 113.5a16.339 16.339 0 0 1-5 2 8.43 8.43 0 0 0-4 .5l2 1c-1.607 1.049-2.273 2.549-2 4.5a65.801 65.801 0 0 1-13 .5c-.837-1.011-1.17-2.178-1-3.5h-3c.278 2.79-.389 5.29-2 7.5.705 1.422 1.039 2.755 1 4-2.223.652-3.39 2.152-3.5 4.5a18.083 18.083 0 0 0-3.5-2c-2.45 1.211-4.45 2.878-6 5-1.205 1.621-1.038 2.954.5 4l3-1c.483.948.65 1.948.5 3h3v6c-2.395.863-4.729.863-7 0 1.017-1.352 2.35-2.352 4-3a7.292 7.292 0 0 0-3-2c-2.372 2.406-5.038 3.24-8 2.5-1.034 2.664-2.7 2.831-5 .5-1.673 1.586-3.673 2.253-6 2 .273-2.782 1.606-4.949 4-6.5-1.361-1.927-2.194-4.094-2.5-6.5-1.667 2.128-3.834 3.461-6.5 4a45.083 45.083 0 0 0-5 8 8.908 8.908 0 0 0 3 4 74.992 74.992 0 0 1-9 2c-2.075-.574-3.742-1.741-5-3.5a104.859 104.859 0 0 1 4-7.5 36.475 36.475 0 0 1 10-7.5 70.608 70.608 0 0 1 11-11.5c0-.667.333-1 1-1a994.036 994.036 0 0 0 30-23.5c1.783-3.946 4.449-7.113 8-9.5v-1a11.596 11.596 0 0 1 7-.5c6.855 2.81 6.521 4.81-1 6a15.252 15.252 0 0 0-1.5 4.5c-1.011.837-2.178 1.17-3.5 1a84.902 84.902 0 0 1-.5 13c-1.362 1.425-2.862 2.258-4.5 2.5a26.585 26.585 0 0 0 2 3.5c4.724-2.221 8.724-5.388 12-9.5a12.93 12.93 0 0 1 5-.5v4z"/><path style="opacity:1" fill="#ba5741" d="M279.5 91.5a528.91 528.91 0 0 0-18 19.5 10.134 10.134 0 0 1-4 1.5 256.432 256.432 0 0 0 18-20l4-1z"/><path style="opacity:1" fill="#4d1d16" d="M269.5 87.5a4.934 4.934 0 0 0 .5 3c2.624-2.199 5.458-2.532 8.5-1l1 2-4 1a256.432 256.432 0 0 1-18 20 54.896 54.896 0 0 0-12 2.5c4.027 1.993 3.86 3.16-.5 3.5a27.902 27.902 0 0 0-10.5-.5 8.905 8.905 0 0 1 4 3l-10 1c.457.414.791.914 1 1.5a42.769 42.769 0 0 1-9 1.5c.845 1.558.179 2.558-2 3 .916.278 1.582.778 2 1.5a17.758 17.758 0 0 1-7-1.5c.916-.278 1.582-.778 2-1.5-.282-1.278-.949-2.278-2-3a84.902 84.902 0 0 0 13-.5c-1.333-.667-1.333-1.333 0-2 1.882-.198 3.548-.698 5-1.5a2.428 2.428 0 0 0 2-.5c-1.544-.29-2.877-.956-4-2l14-1c-1.801-.317-2.134-.984-1-2a66.49 66.49 0 0 0 17-5 74.464 74.464 0 0 1 9.5-10.5c.667-1.333.667-2.667 0-4a12.642 12.642 0 0 1-2.5-4v-2a5.728 5.728 0 0 0 3-1z"/><path style="opacity:1" fill="#f4e6dc" d="M275.5 92.5c-1.544.203-2.878.87-4 2-1-.333-1.667-1-2-2 2.027-1.839 4.36-2.339 7-1.5-.556.383-.889.883-1 1.5z"/><path style="opacity:1" fill="#a14a39" d="M139.5 107.5v1c-.359 1.871-1.359 3.371-3 4.5-4.822 1.657-8.156 4.824-10 9.5h-2l2-7a16.339 16.339 0 0 0 5-2c2.073-.8 3.74-2.133 5-4l3-2z"/><path style="opacity:1" fill="#ede438" d="M108.5 92.5a767 767 0 0 0-35 31c-.045-4.622 2.288-6.955 7-7v-3h3v-3a4.934 4.934 0 0 0 3-.5c.93-3.308 3.263-5.975 7-8l-1-1c1.608.019 3.274.185 5 .5-.541-3.795 1.125-5.795 5-6-1.004-2.177-.338-2.51 2-1 1.196-.346 1.196-.846 0-1.5a8.435 8.435 0 0 1 4-.5z"/><path style="opacity:1" fill="#cd5b40" d="M116.5 90.5c-3.551 2.387-6.217 5.554-8 9.5a994.036 994.036 0 0 1-30 23.5 1424.486 1424.486 0 0 0 33-30.5 19.168 19.168 0 0 1 5-2.5z"/><path style="opacity:1" fill="#462c26" d="M139.5 108.5a8.43 8.43 0 0 1 4 .5 66.395 66.395 0 0 1-11 8c1.211.893 1.211 1.726 0 2.5a12.805 12.805 0 0 1-6 3c1.844-4.676 5.178-7.843 10-9.5 1.641-1.129 2.641-2.629 3-4.5z"/><path style="opacity:1" fill="#523c36" d="M231.5 119.5c-1.452.802-3.118 1.302-5 1.5-1.333.667-1.333 1.333 0 2a84.902 84.902 0 0 1-13 .5c3.477-.823 7.144-1.323 11-1.5a6.802 6.802 0 0 1-3-1.5 25.879 25.879 0 0 1 10-1z"/><path style="opacity:1" fill="#ba4e38" d="M257.5 112.5c-1.59 1.734-3.59 2.9-6 3.5-1.629 3.966-4.629 5.466-9 4.5v3a55.328 55.328 0 0 1 16-.5c.556.383.889.883 1 1.5h-11l-9 6c-6.399 1.354-12.732 1.021-19-1-.418-.722-1.084-1.222-2-1.5 2.179-.442 2.845-1.442 2-3a42.769 42.769 0 0 0 9-1.5 3.647 3.647 0 0 0-1-1.5l10-1a8.905 8.905 0 0 0-4-3 27.902 27.902 0 0 1 10.5.5c4.36-.34 4.527-1.507.5-3.5a54.896 54.896 0 0 1 12-2.5z"/><path style="opacity:1" fill="#eed8d0" d="M253.5 124.5h6l2 2h-2a14.093 14.093 0 0 0-3.5 1c-1.749-.248-2.582-1.248-2.5-3z"/><path style="opacity:1" fill="#f0e53b" d="M310.5 108.5c.988 5.14 1.321 10.474 1 16a386.667 386.667 0 0 1-3 29 1054.065 1054.065 0 0 1-.5-39 92.438 92.438 0 0 0-9.5 6 102.102 102.102 0 0 1 12-12z"/><path style="opacity:1" fill="#ce4727" d="M239.5 130.5a76.588 76.588 0 0 1-18-2.5c.763-.944 1.763-1.444 3-1.5 3.266 1.61 6.266 1.276 9-1-.826-.951-.992-1.951-.5-3 2.719.944 5.552 1.277 8.5 1a29.753 29.753 0 0 1-2 7z"/><path style="opacity:1" fill="#625758" d="M252.5 124.5h1c-.082 1.752.751 2.752 2.5 3a14.093 14.093 0 0 1 3.5-1c.086.996-.248 1.829-1 2.5.916.278 1.582.778 2 1.5-3.067-.379-4.067.621-3 3l-2 8a61.26 61.26 0 0 0-1-13c-2.075.198-4.075.365-6 .5 1.063-1.188 2.397-1.688 4-1.5v-3z"/><path style="opacity:1" fill="#fdef09" d="m308.5 153.5-2 1c.319-2.25-.181-4.25-1.5-6-.684 1.284-.517 2.451.5 3.5l-2.5 2.5a8.192 8.192 0 0 0-2.5-4 3.647 3.647 0 0 1 1-1.5 39.924 39.924 0 0 0-15 .5l-2-3a20.901 20.901 0 0 0-4 5.5 11.25 11.25 0 0 0 1 3.5c-2.426 5.373-3.759 11.04-4 17-2.292-.256-4.459.077-6.5 1a57.35 57.35 0 0 0-1.5 15h-15a16.873 16.873 0 0 1-1 8c-1.26-1.853-1.26-3.686 0-5.5a11.38 11.38 0 0 0-2-2.5c-.925 1.141-1.759 1.141-2.5 0a11.333 11.333 0 0 1-3.5 1.5c1.073 1.25 1.073 2.584 0 4 .405.945 1.072 1.612 2 2a11.333 11.333 0 0 0-3.5 1.5c-1.985-1.121-4.152-1.287-6.5-.5a3.943 3.943 0 0 1 1 2 89.89 89.89 0 0 1-2 8.5 8.905 8.905 0 0 0-4-3 39.934 39.934 0 0 0-3 9 575.068 575.068 0 0 1-15-1 16.873 16.873 0 0 0-1 8h-5v9h-3v6a81.17 81.17 0 0 0 14.5 1l1-8c1.283 5.157 1.95 10.49 2 16a24.218 24.218 0 0 1 5.5-1 13.116 13.116 0 0 0 1-7h8c.556 7.668.723 15.334.5 23-1.352-2.094-1.852-4.427-1.5-7-4.707.963-9.373 1.296-14 1-2.225-2.165-3.391-4.832-3.5-8l-1 1c-4.052-2.442-8.219-2.609-12.5-.5l2 1c-1.692 1.401-2.359 3.234-2 5.5-7-1.667-9.667 1-8 8h-8v-8h-14c.558 6.949-2.442 9.782-9 8.5-.906 1.699-1.239 3.533-1 5.5-4.76-.523-9.427-.523-14 0-.736 3.365-1.07 6.698-1 10a23.832 23.832 0 0 1-9 1v15a67.376 67.376 0 0 0-14 2l-2 5c-3.666 1.386-7.332 1.719-11 1a12.403 12.403 0 0 0-4 2.5c1.902 1.651 3.902 1.984 6 1-2.488 1.685-2.155 3.019 1 4 4.287 2.594 8.954 4.26 14 5 2.034 3.014 4.368 3.181 7 .5l2 1c1.593-2.396 2.26-4.729 2-7 1.61 1.052 3.277 1.052 5 0 1.147.318 1.981.984 2.5 2 .777-2.201 1.944-2.201 3.5 0-1.15 2.82-2.316 3.154-3.5 1-.779 2.307-.279 4.307 1.5 6l-2 1c.865 1.083 1.865 1.249 3 .5 1.82-.979 2.987-2.479 3.5-4.5l.5 2a28.715 28.715 0 0 1-5 6c.74 2.394 2.407 3.894 5 4.5-2.227.704-2.56 1.871-1 3.5a212.53 212.53 0 0 1-25-11.5 327.826 327.826 0 0 1-36-22.5 71.916 71.916 0 0 1 9-7c1.67.251 3.17.918 4.5 2 1.824-1.249 1.657-2.415-.5-3.5a97.042 97.042 0 0 0 14-9c.299-1.32.466-2.82.5-4.5a14.506 14.506 0 0 0 5-4c4.558 1.167 7.891-.5 10-5a6.547 6.547 0 0 0 3 3c1.73-4.699 4.563-6.032 8.5-4 1.383-4.434 4.216-6.101 8.5-5 .667-1 .667-2 0-3-.667-1.333-1.333-1.333-2 0-.684-1.284-.517-2.451.5-3.5-1.123-1.044-2.456-1.71-4-2 4.646-6.493 10.646-11.326 18-14.5a32.437 32.437 0 0 0 8-8.5c2.687-.537 5.187-.037 7.5 1.5a499.146 499.146 0 0 1 5-12c1.243-2.333 2.909-3 5-2 2.157-2.317 3.657-4.984 4.5-8a260.549 260.549 0 0 1 29-24c6.273-3.607 11.606-8.273 16-14h6a4.934 4.934 0 0 1 .5-3c10.071-7.236 18.571-15.903 25.5-26a148.596 148.596 0 0 1 22-19 92.438 92.438 0 0 1 9.5-6c-.074 12.967.092 25.967.5 39z"/><path style="opacity:1" fill="#311816" d="M215.5 126.5c-.418.722-1.084 1.222-2 1.5a17.758 17.758 0 0 0 7 1.5c6.268 2.021 12.601 2.354 19 1l9-6a73.503 73.503 0 0 1-7 7.5c-13.266 2.113-26.266.779-39-4-1.896-1.808-2.396-3.975-1.5-6.5.265 2.151 1.265 3.818 3 5 3.815 1.061 7.649 1.061 11.5 0z"/><path style="opacity:1" fill="#f5e5d6" d="m260.5 130.5 1 2c-1.459-.067-2.792.266-4 1-1.067-2.379-.067-3.379 3-3z"/><path style="opacity:1" fill="#904333" d="M259.5 126.5h2a37.84 37.84 0 0 0 5 5.5c-.544.717-1.211 1.217-2 1.5-.543.06-.876.393-1 1 1.247 1.997 2.081 3.997 2.5 6-2.435-.143-4.935.19-7.5 1l-1-2c2.357.163 4.69-.003 7-.5-.881-.708-1.547-1.542-2-2.5-1.109-.79-2.442-1.29-4-1.5a81.316 81.316 0 0 0 3-2.5l-1-2c-.418-.722-1.084-1.222-2-1.5.752-.671 1.086-1.504 1-2.5z"/><path style="opacity:1" fill="#ac4e33" d="M303.5 111.5a71.238 71.238 0 0 0-12 12.5 32423.378 32423.378 0 0 1-21 17.5c1.043-2.556 2.71-4.723 5-6.5l17.5-15.5 1-3 1 1c2.207-3.064 5.041-5.064 8.5-6z"/><path style="opacity:1" fill="#f4dfda" d="M262.5 136.5c.453.958 1.119 1.792 2 2.5-2.31.497-4.643.663-7 .5v-3h5z"/><path style="opacity:1" fill="#be5539" d="M77.5 124.5a70.608 70.608 0 0 0-11 11.5 36.475 36.475 0 0 0-10 7.5l-8 5a166.79 166.79 0 0 1 29-24z"/><path style="opacity:1" fill="#fef404" d="M306.5 154.5a68.237 68.237 0 0 1-2.5 18c-1.006 3.345-2.506 6.345-4.5 9-.998 7.982-2.998 15.649-6 23-2.442-.381-3.109.286-2 2a28.931 28.931 0 0 0-1.5 4c-.36-1.921-1.194-3.588-2.5-5a4.457 4.457 0 0 0-1.5 2l-1-10a69.632 69.632 0 0 1-5.5 12.5l1 1.5c4.112-1.724 5.612-.39 4.5 4-1.049-1.017-2.216-1.184-3.5-.5a26.813 26.813 0 0 0-3.5 7.5c-1.016-1.134-1.683-.801-2 1-.718-.951-1.551-1.117-2.5-.5-2.886 2.12-3.219 4.287-1 6.5a9.201 9.201 0 0 1-2 4.5c.956 3.394 1.289 6.894 1 10.5h-3c-.719 4.224-3.385 7.89-8 11-.952 1.545-1.285 3.212-1 5h-3a29.753 29.753 0 0 0-2 7 16.58 16.58 0 0 0-2.5 4 399.457 399.457 0 0 0-17.5 16c-1.644.214-3.144-.12-4.5-1-2.164 1.98-3.664 4.313-4.5 7a8412.634 8412.634 0 0 1-17 9c.146 2.442-.687 3.109-2.5 2-1.049 1.607-2.549 2.273-4.5 2v3l-7 2v3a19.048 19.048 0 0 0-6 1 812.301 812.301 0 0 1-20.5 11 6.293 6.293 0 0 1-3-1c-.617.949-.451 1.782.5 2.5a24.362 24.362 0 0 1-10 1.5c-1.56-1.629-1.227-2.796 1-3.5-2.593-.606-4.26-2.106-5-4.5a28.715 28.715 0 0 0 5-6l-.5-2c-.513 2.021-1.68 3.521-3.5 4.5-1.135.749-2.135.583-3-.5l2-1c-1.779-1.693-2.279-3.693-1.5-6 1.184 2.154 2.35 1.82 3.5-1-1.556-2.201-2.723-2.201-3.5 0-.519-1.016-1.353-1.682-2.5-2-1.723 1.052-3.39 1.052-5 0 .26 2.271-.407 4.604-2 7l-2-1c-2.632 2.681-4.966 2.514-7-.5-5.046-.74-9.713-2.406-14-5-3.155-.981-3.488-2.315-1-4-2.098.984-4.098.651-6-1a12.403 12.403 0 0 1 4-2.5c3.668.719 7.334.386 11-1l2-5a67.376 67.376 0 0 1 14-2v-15c3.079.24 6.079-.093 9-1-.07-3.302.264-6.635 1-10 4.573-.523 9.24-.523 14 0-.239-1.967.094-3.801 1-5.5 6.558 1.282 9.558-1.551 9-8.5h14v8h8c-1.667-7 1-9.667 8-8-.359-2.266.308-4.099 2-5.5l-2-1c4.281-2.109 8.448-1.942 12.5.5l1-1c.109 3.168 1.275 5.835 3.5 8 4.627.296 9.293-.037 14-1-.352 2.573.148 4.906 1.5 7 .223-7.666.056-15.332-.5-23h-8a13.116 13.116 0 0 1-1 7c-1.923.13-3.756.464-5.5 1-.05-5.51-.717-10.843-2-16l-1 8a81.17 81.17 0 0 1-14.5-1v-6h3v-9h5a16.873 16.873 0 0 1 1-8c4.848.389 9.848.722 15 1a39.934 39.934 0 0 1 3-9 8.905 8.905 0 0 1 4 3 89.89 89.89 0 0 0 2-8.5 3.943 3.943 0 0 0-1-2c2.348-.787 4.515-.621 6.5.5a11.333 11.333 0 0 1 3.5-1.5c-.928-.388-1.595-1.055-2-2 1.073-1.416 1.073-2.75 0-4a11.333 11.333 0 0 0 3.5-1.5c.741 1.141 1.575 1.141 2.5 0a11.38 11.38 0 0 1 2 2.5c-1.26 1.814-1.26 3.647 0 5.5a16.873 16.873 0 0 0 1-8h15a57.35 57.35 0 0 1 1.5-15c2.041-.923 4.208-1.256 6.5-1 .241-5.96 1.574-11.627 4-17a11.25 11.25 0 0 1-1-3.5 20.901 20.901 0 0 1 4-5.5l2 3a39.924 39.924 0 0 1 15-.5 3.647 3.647 0 0 0-1 1.5 8.192 8.192 0 0 1 2.5 4l2.5-2.5c-1.017-1.049-1.184-2.216-.5-3.5 1.319 1.75 1.819 3.75 1.5 6z"/><path style="opacity:1" fill="#4d1d19" d="M210.5 148.5c-3.997-1.902-5.33-.902-4 3h-2c-1.414-1.554-3.081-2.888-5-4-.169.897-.502 1.897-1 3a116.814 116.814 0 0 0-14-1.5 24.275 24.275 0 0 0-3.5-3.5c-4.275 2.392-8.775 4.059-13.5 5l3-2 11-5.5c-1.603-2.68-2.437-5.513-2.5-8.5a98.031 98.031 0 0 1 5.5 12 63.752 63.752 0 0 0 13 1.5 7.293 7.293 0 0 0-3-2c2.804-.46 5.471.04 8 1.5v-3c3.07.784 5.737 2.117 8 4z"/><path style="opacity:1" fill="#b24f34" d="M264.5 133.5c2.106 2.219 3.106 4.885 3 8h3a163.091 163.091 0 0 1-23 20c.703-2.216 2.036-4.049 4-5.5a274.878 274.878 0 0 1 15-12.5c-3.037-1.241-6.037-1.241-9 0-.172-.992.162-1.658 1-2 2.565-.81 5.065-1.143 7.5-1-.419-2.003-1.253-4.003-2.5-6 .124-.607.457-.94 1-1z"/><path style="opacity:1" fill="#481713" d="M221.5 146.5a2.428 2.428 0 0 0-2 .5c1.921 1.241 2.254 2.741 1 4.5a18.924 18.924 0 0 1-5-3c-1.211.774-1.211 1.607 0 2.5-2.519.741-4.185-.092-5-2.5a2.428 2.428 0 0 0 2-.5l-3-3c3.021.418 5.855 1.585 8.5 3.5.507-1.496.007-2.663-1.5-3.5 2.035-.599 3.701-.099 5 1.5z"/><path style="opacity:1" fill="#481815" d="M261.5 132.5a81.316 81.316 0 0 1-3 2.5c1.558.21 2.891.71 4 1.5h-5v3l1 2c-.838.342-1.172 1.008-1 2a86.965 86.965 0 0 0-15 5.5c-4.13.672-8.13.172-12-1.5-2.333.333-2.667 1.333-1 3l-1.5 1a49.745 49.745 0 0 1-6.5-5 5.576 5.576 0 0 1 3 1c1.196-.346 1.196-.846 0-1.5l3.5-.5a34.75 34.75 0 0 0 15.5 1.5 227.398 227.398 0 0 0 12-5.5l2-8c1.208-.734 2.541-1.067 4-1z"/><path style="opacity:1" fill="#eee332" d="M276.5 139.5c-6.929 10.097-15.429 18.764-25.5 26a4.934 4.934 0 0 0-.5 3h-6a469.739 469.739 0 0 1 32-29z"/><path style="opacity:1" fill="#c04d36" d="M204.5 151.5c-.996.086-1.829-.248-2.5-1a4.457 4.457 0 0 1-1.5 2c-4.873-2.348-9.707-2.348-14.5 0a64.765 64.765 0 0 1-9.5-2 35.083 35.083 0 0 1-12 2.5c3.947 3.112 4.947 6.946 3 11.5 1.363-5.584-.637-9.251-6-11-1.879.107-2.212-.393-1-1.5a17.758 17.758 0 0 1 7-1.5c4.725-.941 9.225-2.608 13.5-5a24.275 24.275 0 0 1 3.5 3.5c4.72.221 9.387.721 14 1.5.498-1.103.831-2.103 1-3 1.919 1.112 3.586 2.446 5 4z"/><path style="opacity:1" fill="#d64728" d="M204.5 151.5h2l6 3c3.446-1.742 6.446-1.242 9 1.5l-1.5 1.5c-2.283-1.219-4.616-1.219-7 0a11.068 11.068 0 0 1-3.5-2 18.68 18.68 0 0 0-6 6.5 25.807 25.807 0 0 0-7.5 2.5c-2.112-.886-4.278-.886-6.5 0v14c-4.158-.38-7.825.62-11 3-3.813 1.649-6.479 4.482-8 8.5-2.599.769-5.099.602-7.5-.5-.667-1.667-.667-3.333 0-5 3.404-6.238 4.904-12.904 4.5-20 1.947-4.554.947-8.388-3-11.5a35.083 35.083 0 0 0 12-2.5 64.765 64.765 0 0 0 9.5 2c4.793-2.348 9.627-2.348 14.5 0a4.457 4.457 0 0 0 1.5-2c.671.752 1.504 1.086 2.5 1z"/><path style="opacity:1" fill="#2f211e" d="m170.5 148.5-3 2c-2.427.023-4.76.523-7 1.5-1.212 1.107-.879 1.607 1 1.5v2c-5.018-2.574-10.018-2.407-15 .5a233.677 233.677 0 0 0-10.5 8.5c-.667.667-.667 1.333 0 2 1.129-1.641 2.629-2.641 4.5-3a75.181 75.181 0 0 0-8 8.5 23.156 23.156 0 0 1 5.5 8.5l1-6a46.225 46.225 0 0 1 2 12 7.293 7.293 0 0 1 2-3c.32 3.04.32 6.04 0 9l3-4c.019 3.901-.814 7.567-2.5 11 .284-1.915-.049-3.581-1-5a31.894 31.894 0 0 1-1.5-6l-1 1-1-8c-.77 1.098-1.603 1.098-2.5 0a69.385 69.385 0 0 0-2.5-6c-.77-1.098-1.603-1.098-2.5 0h-1c.969-7.147 4.302-12.98 10-17.5 9.243-5.315 19.243-8.482 30-9.5z"/><path style="opacity:1" fill="#451818" d="M161.5 153.5c5.363 1.749 7.363 5.416 6 11a92.255 92.255 0 0 0-4 10 109.897 109.897 0 0 1 2-13c.148-3.049-1.186-5.049-4-6v-2z"/><path style="opacity:1" fill="#d44a2b" d="m126.5 115.5-2 7a106.037 106.037 0 0 0-12 6.5l4 1-10 7a4.457 4.457 0 0 1 2 1.5c-4.962 2.964-7.962 7.298-9 13-3.906.885-7.572 2.219-11 4a97.88 97.88 0 0 1-22 8c.107 2.403-.893 4.236-3 5.5-3.325.139-6.325 1.139-9 3a32.462 32.462 0 0 1-8 .5v4a126.082 126.082 0 0 0-32 6c-.841-1.879-1.175-3.879-1-6 1-.333 1.667-1 2-2 1.382-1.301 3.048-2.134 5-2.5a873.336 873.336 0 0 1 28-23.5l8-5a104.859 104.859 0 0 0-4 7.5c1.258 1.759 2.925 2.926 5 3.5a74.992 74.992 0 0 0 9-2 8.908 8.908 0 0 1-3-4 45.083 45.083 0 0 1 5-8c2.666-.539 4.833-1.872 6.5-4 .306 2.406 1.139 4.573 2.5 6.5-2.394 1.551-3.727 3.718-4 6.5 2.327.253 4.327-.414 6-2 2.3 2.331 3.966 2.164 5-.5 2.962.74 5.628-.094 8-2.5a7.292 7.292 0 0 1 3 2c-1.65.648-2.983 1.648-4 3 2.271.863 4.605.863 7 0v-6h-3a4.932 4.932 0 0 0-.5-3l-3 1c-1.538-1.046-1.705-2.379-.5-4 1.55-2.122 3.55-3.789 6-5a18.083 18.083 0 0 1 3.5 2c.11-2.348 1.277-3.848 3.5-4.5.039-1.245-.295-2.578-1-4 1.611-2.21 2.278-4.71 2-7.5h3c-.17 1.322.163 2.489 1 3.5 4.335.263 8.668.097 13-.5-.273-1.951.393-3.451 2-4.5l-2-1a8.43 8.43 0 0 1 4-.5z"/><path style="opacity:1" fill="#f0e536" d="M48.5 144.5a62672.753 62672.753 0 0 0-35 30c-.06.543-.393.876-1 1a152.565 152.565 0 0 1-4-27c1.25.077 2.083.744 2.5 2a68.79 68.79 0 0 1 1.5 15c3.893.39 7.56-.277 11-2-.826-.951-.992-1.951-.5-3 .718.951 1.55 1.117 2.5.5 2.908-2.569 5.408-5.402 7.5-8.5.423 1.456 1.256 1.956 2.5 1.5l-1-1c2.277-1.613 3.777-3.78 4.5-6.5l1 2c1.827-.306 2.994-1.806 3.5-4.5 1.697-.384 3.363-.218 5 .5z"/><path style="opacity:1" fill="#f8f4ef" d="M161.5 155.5c2.814.951 4.148 2.951 4 6a109.897 109.897 0 0 0-2 13c-2.086 3.988-3.42 8.322-4 13-.063 1.981.604 3.648 2 5 3.273 1.085 6.606 1.252 10 .5a32.642 32.642 0 0 0 6-8.5 51.569 51.569 0 0 1 7-1v3c-1.599-.268-2.932.066-4 1h6c-.203 1.89.463 3.39 2 4.5a34.041 34.041 0 0 0-1.5 7.5l-9.5 5.5a218.316 218.316 0 0 1-35 1.5 51.569 51.569 0 0 0 1-7c1.686-3.433 2.519-7.099 2.5-11l-3 4c.32-2.96.32-5.96 0-9a7.293 7.293 0 0 0-2 3 46.225 46.225 0 0 0-2-12l-1 6a23.156 23.156 0 0 0-5.5-8.5 75.181 75.181 0 0 1 8-8.5c-1.871.359-3.371 1.359-4.5 3-.667-.667-.667-1.333 0-2 3.458-2.967 6.958-5.8 10.5-8.5 4.982-2.907 9.982-3.074 15-.5z"/><path style="opacity:1" fill="#403d3a" d="M140.5 163.5c2.078-2.551 4.744-4.384 8-5.5l-1-1c1.759-.798 3.426-.631 5 .5l-12 6z"/><path style="opacity:1" fill="#fdfdf6" d="M-.5 151.5a166.294 166.294 0 0 1 4 10.5 3.942 3.942 0 0 1-1 2c1.4.41 2.734.91 4 1.5 9.122 53.631 35.455 96.298 79 128 3.237 3.297 6.903 6.13 11 8.5a237.474 237.474 0 0 1 18 10.5c-.111.617-.444 1.117-1 1.5a22.573 22.573 0 0 0 8 4l-1 3a4.934 4.934 0 0 1-3 .5c.179 2.106 1.179 3.772 3 5a9.108 9.108 0 0 1 5-1 9.108 9.108 0 0 1-1 5c2.262.845 2.929 2.178 2 4a10.94 10.94 0 0 0 3 4.5c-.916.278-1.582.778-2 1.5H-.5v-189z"/><path style="opacity:1" fill="#b54f3b" d="M88.5 155.5c-5.98 5.322-12.98 8.488-21 9.5l3 1-5 3 4 1a153.716 153.716 0 0 0-13 3l1 1a29.928 29.928 0 0 0-9 2 7.292 7.292 0 0 1 3 2 290.6 290.6 0 0 0-24 2 45.445 45.445 0 0 0-10 4c-.95.718-1.117 1.551-.5 2.5 3.534 2.277 6.367 5.11 8.5 8.5a127.96 127.96 0 0 1 8 2.5c-3.43.393-6.596-.273-9.5-2l-1-3-1 1a6.544 6.544 0 0 0-3-3c1.815 6.583 3.648 13.25 5.5 20-5.09-8.597-8.424-17.93-10-28a126.082 126.082 0 0 1 32-6v-4a32.462 32.462 0 0 0 8-.5c2.675-1.861 5.675-2.861 9-3 2.107-1.264 3.107-3.097 3-5.5a97.88 97.88 0 0 0 22-8z"/><path style="opacity:1" fill="#461a17" d="M163.5 174.5a40.455 40.455 0 0 1-2 12c.051 1.6.384 3.1 1 4.5 3 .667 6 .667 9 0 1.393-1.171 2.227-2.671 2.5-4.5.816-1.323 1.983-1.989 3.5-2a32.642 32.642 0 0 1-6 8.5c-3.394.752-6.727.585-10-.5-1.396-1.352-2.063-3.019-2-5 .58-4.678 1.914-9.012 4-13z"/><path style="opacity:1" fill="#e8dc4c" d="M244.5 168.5c-4.394 5.727-9.727 10.393-16 14a159.115 159.115 0 0 1 16-14z"/><path style="opacity:1" fill="#c05542" d="M167.5 164.5c.404 7.096-1.096 13.762-4.5 20-.667 1.667-.667 3.333 0 5 2.401 1.102 4.901 1.269 7.5.5 1.521-4.018 4.187-6.851 8-8.5a80.685 80.685 0 0 0 10-2c1.226.02 2.226.353 3 1-2.652-.09-4.985.576-7 2-2.728-.329-5.062.337-7 2-1.517.011-2.684.677-3.5 2-.273 1.829-1.107 3.329-2.5 4.5-3 .667-6 .667-9 0-.616-1.4-.949-2.9-1-4.5a40.455 40.455 0 0 0 2-12 92.255 92.255 0 0 1 4-10z"/><path style="opacity:1" fill="#431a15" d="M124.5 122.5h2c-1.928 1.974-4.261 3.474-7 4.5 1.735.651 3.402.485 5-.5 1.196.346 1.196.846 0 1.5a67.876 67.876 0 0 0-12 7c2.057.305 4.057.305 6 0l-10 6c-4.722 2.875-7.055 7.042-7 12.5a18.452 18.452 0 0 0-6 .5 215.765 215.765 0 0 1-17 10 4.458 4.458 0 0 1 2 1.5 59.272 59.272 0 0 0-10 3.5l3 1a41.451 41.451 0 0 1-14 3 22.973 22.973 0 0 0 5 2 130.837 130.837 0 0 1-12 2l2 2-14 1a7.292 7.292 0 0 0 3 2l-2 .5a42.276 42.276 0 0 0-15-.5 17.335 17.335 0 0 0-7 3.5c2.98 3.474 6.646 5.974 11 7.5l-3 1c4.058.767 8.057.6 12-.5.793.855.46 1.689-1 2.5 2.27.758 4.436.591 6.5-.5l1 2c3.625-2.314 7.459-3.814 11.5-4.5l-3 3c2.938-.696 5.938-1.53 9-2.5-2.84 2.835-6.34 4.502-10.5 5-1.01-.392-1.51-1.059-1.5-2-2.734 1.871-5.734 2.871-9 3a68.666 68.666 0 0 1-9-2 127.96 127.96 0 0 0-8-2.5c-2.133-3.39-4.966-6.223-8.5-8.5-.617-.949-.45-1.782.5-2.5a45.445 45.445 0 0 1 10-4 290.6 290.6 0 0 1 24-2 7.292 7.292 0 0 0-3-2 29.928 29.928 0 0 1 9-2l-1-1a153.716 153.716 0 0 1 13-3l-4-1 5-3-3-1c8.02-1.012 15.02-4.178 21-9.5 3.428-1.781 7.094-3.115 11-4 1.038-5.702 4.038-10.036 9-13a4.457 4.457 0 0 0-2-1.5l10-7-4-1a106.037 106.037 0 0 1 12-6.5z"/><path style="opacity:1" fill="#873123" d="M136.5 181.5c.897 1.098 1.73 1.098 2.5 0l1 8 1-1a31.894 31.894 0 0 0 1.5 6c-.689 1.274-1.523 1.274-2.5 0a445.104 445.104 0 0 0-3.5-13z"/><path style="opacity:1" fill="#783322" d="M191.5 180.5c1.581 1.642 2.247 3.642 2 6-2.281.423-3.948-.244-5-2 .763-.768 1.763-1.268 3-1.5a18.453 18.453 0 0 0-6-.5h-1c2.015-1.424 4.348-2.09 7-2z"/><path style="opacity:1" fill="#342814" d="M311.5 124.5c.169 13.317.669 13.317 1.5 0 .172 6.181.672 12.181 1.5 18-1.567 21.083-6.234 41.416-14 61-11.64 25.952-26.807 49.619-45.5 71-28.131 26.319-59.964 46.986-95.5 62a1448.805 1448.805 0 0 1-45-24 237.474 237.474 0 0 0-18-10.5c-4.097-2.37-7.763-5.203-11-8.5 1.716.129 3.383.462 5 1h1c.304 2.296 1.304 2.629 3 1a327.826 327.826 0 0 0 36 22.5 212.53 212.53 0 0 0 25 11.5c1.521 2.029 3.521 2.862 6 2.5a386.758 386.758 0 0 0 33-17.5 204.319 204.319 0 0 0 40-27 399.457 399.457 0 0 1 17.5-16 16.58 16.58 0 0 1 2.5-4 183.07 183.07 0 0 0 22.5-28c10.075-16.773 18.408-34.439 25-53a222.256 222.256 0 0 0 6.5-33 386.667 386.667 0 0 0 3-29z"/><path style="opacity:1" fill="#fdfef5" d="M321.5 195.5v145h-194c.418-.722 1.084-1.222 2-1.5a10.94 10.94 0 0 1-3-4.5c.929-1.822.262-3.155-2-4a9.108 9.108 0 0 0 1-5 9.108 9.108 0 0 0-5 1c-1.821-1.228-2.821-2.894-3-5a4.934 4.934 0 0 0 3-.5l1-3a22.573 22.573 0 0 1-8-4c.556-.383.889-.883 1-1.5a1448.805 1448.805 0 0 0 45 24c35.536-15.014 67.369-35.681 95.5-62 18.693-21.381 33.86-45.048 45.5-71 3.143 1.88 3.81 4.546 2 8h13a18.725 18.725 0 0 1 2-8c-2.152-3.957-.819-6.624 4-8z"/><path style="opacity:1" fill="#43221d" d="M94.5 207.5a6.846 6.846 0 0 0-1-4l2-4c-1.116.098-2.116-.402-3-1.5a15.904 15.904 0 0 0 1-6.5 51.668 51.668 0 0 0 2.5-16c-5.43 5.937-11.263 11.27-17.5 16-1.644.866-3.31 1.366-5 1.5 1.507-.837 2.007-2.004 1.5-3.5-3.159 3.655-6.992 5.822-11.5 6.5 2.342-1.392 2.342-2.225 0-2.5 1.38-2.573 3.38-4.073 6-4.5-1.265 1.337-1.765 2.837-1.5 4.5a134.143 134.143 0 0 0 10.5-9v4a92.217 92.217 0 0 0 22.5-23 1130.076 1130.076 0 0 0-5.5 22h3c-1.19 2.674-2.024 5.34-2.5 8l3-3c-.049 2.175-.549 4.342-1.5 6.5l.5 1.5c.811-1.46 1.645-1.793 2.5-1-1.534 3.093-3.534 5.76-6 8z"/><path style="opacity:1" fill="#b65946" d="M93.5 191.5c-1.21-2.847-.877-5.681 1-8.5l-2-.5a77.938 77.938 0 0 1-14 9c6.237-4.73 12.07-10.063 17.5-16a51.668 51.668 0 0 1-2.5 16z"/><path style="opacity:1" fill="#f8f126" d="M308.5 153.5a222.256 222.256 0 0 1-6.5 33c-6.592 18.561-14.925 36.227-25 53a183.07 183.07 0 0 1-22.5 28 29.753 29.753 0 0 1 2-7h3c-.285-1.788.048-3.455 1-5 4.615-3.11 7.281-6.776 8-11h3c.289-3.606-.044-7.106-1-10.5a9.201 9.201 0 0 0 2-4.5c-2.219-2.213-1.886-4.38 1-6.5.949-.617 1.782-.451 2.5.5.317-1.801.984-2.134 2-1a26.813 26.813 0 0 1 3.5-7.5c1.284-.684 2.451-.517 3.5.5 1.112-4.39-.388-5.724-4.5-4l-1-1.5a69.632 69.632 0 0 0 5.5-12.5l1 10a4.457 4.457 0 0 1 1.5-2c1.306 1.412 2.14 3.079 2.5 5a28.931 28.931 0 0 1 1.5-4c-1.109-1.714-.442-2.381 2-2 3.002-7.351 5.002-15.018 6-23 1.994-2.655 3.494-5.655 4.5-9a68.237 68.237 0 0 0 2.5-18l2-1z"/><path style="opacity:1" fill="#bb5645" d="M130.5 196.5c.241 3.294-.592 6.294-2.5 9a65.815 65.815 0 0 0-5.5 8c-1.077 1.205-2.41 1.872-4 2 5.294-5.603 9.294-11.936 12-19z"/><path style="opacity:1" fill="#b25134" d="M215.5 189.5a599.173 599.173 0 0 1-31 27c.348-2.519 1.681-4.353 4-5.5a3069.672 3069.672 0 0 0 16-13.5c.929-1.189 1.262-2.522 1-4a8.43 8.43 0 0 0 4-.5 30.137 30.137 0 0 1 6-3.5z"/><path style="opacity:1" fill="#be503a" d="M136.5 181.5a445.104 445.104 0 0 1 3.5 13c.977 1.274 1.811 1.274 2.5 0 .951 1.419 1.284 3.085 1 5-1.723 2.28-2.389 4.947-2 8 11.671.167 23.338 0 35-.5a172.475 172.475 0 0 0 13-7.5l7-2c-.124-.607-.457-.94-1-1v-2c1.756 1.052 2.423 2.719 2 5a13.116 13.116 0 0 0-7 1c-4.296 2.61-8.63 5.276-13 8a5149.43 5149.43 0 0 1-35 2c-2.388-.212-3.388-1.545-3-4a44.673 44.673 0 0 0 1-10h-3c-.044-4.847-.877-9.513-2.5-14a3.647 3.647 0 0 1-1.5 1c-.541 4.58-1.541 8.914-3 13a184.69 184.69 0 0 0 1-21c.897-1.098 1.73-1.098 2.5 0a69.385 69.385 0 0 1 2.5 6z"/><path style="opacity:1" fill="#d14726" d="M247.5 161.5a634.227 634.227 0 0 1-32 28 30.137 30.137 0 0 0-6 3.5 8.43 8.43 0 0 1-4 .5c.262 1.478-.071 2.811-1 4a3069.672 3069.672 0 0 1-16 13.5c-2.319 1.147-3.652 2.981-4 5.5l-2 1a4.934 4.934 0 0 0-3 .5 52.188 52.188 0 0 1-13 11c-.752.671-1.086 1.504-1 2.5-.342.838-1.008 1.172-2 1a82.014 82.014 0 0 1-9 5.5 139.297 139.297 0 0 0-13 12 23.776 23.776 0 0 1-6 2.5v5h-1c-1.815 1.13-3.815 1.796-6 2v-5h4c.625-3.47-.375-6.304-3-8.5 2.693-2.905 2.36-5.571-1-8a150.709 150.709 0 0 1-10.5-1.5c-1.07.028-1.903.361-2.5 1-1.996 3.839-4.996 4.839-9 3-4.937-7.573-3.937-14.073 3-19.5a31.515 31.515 0 0 1 9-5.5c1.59-.128 2.923-.795 4-2a65.815 65.815 0 0 1 5.5-8c1.908-2.706 2.741-5.706 2.5-9 1.459-4.086 2.459-8.42 3-13a3.647 3.647 0 0 0 1.5-1c1.623 4.487 2.456 9.153 2.5 14h3a44.673 44.673 0 0 1-1 10c-.388 2.455.612 3.788 3 4a5149.43 5149.43 0 0 0 35-2c4.37-2.724 8.704-5.39 13-8a13.116 13.116 0 0 1 7-1c.423-2.281-.244-3.948-2-5-6.519-2.039-6.186-3.706 1-5-.505-1.419-1.505-2.085-3-2v-1c.247-2.358-.419-4.358-2-6-.774-.647-1.774-.98-3-1a80.685 80.685 0 0 1-10 2c3.175-2.38 6.842-3.38 11-3v-14c2.222-.886 4.388-.886 6.5 0a25.807 25.807 0 0 1 7.5-2.5 18.68 18.68 0 0 1 6-6.5 11.068 11.068 0 0 0 3.5 2c2.384-1.219 4.717-1.219 7 0l1.5-1.5c-2.554-2.742-5.554-3.242-9-1.5l-6-3c-1.33-3.902.003-4.902 4-3 .815 2.408 2.481 3.241 5 2.5-1.211-.893-1.211-1.726 0-2.5a18.924 18.924 0 0 0 5 3c1.254-1.759.921-3.259-1-4.5a2.428 2.428 0 0 1 2-.5 49.745 49.745 0 0 0 6.5 5l1.5-1c-1.667-1.667-1.333-2.667 1-3 3.87 1.672 7.87 2.172 12 1.5a86.965 86.965 0 0 1 15-5.5c2.963-1.241 5.963-1.241 9 0a274.878 274.878 0 0 0-15 12.5c-1.964 1.451-3.297 3.284-4 5.5z"/><path style="opacity:1" fill="#4c4241" d="M180.5 187.5a11.637 11.637 0 0 1-2 5c-.807-2.078-.141-3.745 2-5z"/><path style="opacity:1" fill="#491f1b" d="M184.5 182.5h1c.321 1.548 1.321 2.215 3 2 1.052 1.756 2.719 2.423 5 2v1c1.495-.085 2.495.581 3 2-7.186 1.294-7.519 2.961-1 5v2c.543.06.876.393 1 1l-7 2a172.475 172.475 0 0 1-13 7.5c-11.662.5-23.329.667-35 .5-.389-3.053.277-5.72 2-8a51.569 51.569 0 0 1-1 7c11.743.436 23.41-.064 35-1.5l9.5-5.5a34.041 34.041 0 0 1 1.5-7.5c-1.537-1.11-2.203-2.61-2-4.5h-6c1.068-.934 2.401-1.268 4-1v-3a51.569 51.569 0 0 0-7 1c1.938-1.663 4.272-2.329 7-2z"/><path style="opacity:1" fill="#e0ccc4" d="M195.5 196.5c-2.128 1.129-4.461 1.296-7 .5 1.978-2.88 4.312-3.047 7-.5z"/><path style="opacity:1" fill="#f2e7e0" d="M193.5 187.5c.111.617.444 1.117 1 1.5a28.043 28.043 0 0 0-5 1.5c-.886-.825-1.219-1.825-1-3h5z"/><path style="opacity:1" fill="#efd9c8" d="M185.5 182.5a18.453 18.453 0 0 1 6 .5c-1.237.232-2.237.732-3 1.5-1.679.215-2.679-.452-3-2z"/><path style="opacity:1" fill="#3d1411" d="M97.5 257.5a12.807 12.807 0 0 1-6-3c-2.113-5.331-3.78-10.665-5-16a109.562 109.562 0 0 1-1.5-17l9.5-9.5c-2.274-1.355-2.274-2.855 0-4.5-.13.876.203 1.543 1 2a14.984 14.984 0 0 0 3.5-3c.667.667.667 1.333 0 2-4.027 5.85-8.527 11.183-13.5 16a425.764 425.764 0 0 0 6.5 28 81.362 81.362 0 0 0 5.5 5z"/><path style="opacity:1" fill="#b45434" d="M182.5 217.5a85.81 85.81 0 0 1-17 14c-.086-.996.248-1.829 1-2.5a52.188 52.188 0 0 0 13-11 4.934 4.934 0 0 1 3-.5z"/><path style="opacity:1" fill="#b14e34" d="M163.5 232.5c-.359 1.871-1.359 3.371-3 4.5a5731.03 5731.03 0 0 0-25 20.5v-5a23.776 23.776 0 0 0 6-2.5 139.297 139.297 0 0 1 13-12 82.014 82.014 0 0 0 9-5.5z"/><path style="opacity:1" fill="#ce492c" d="M93.5 191.5a15.904 15.904 0 0 1-1 6.5c.884 1.098 1.884 1.598 3 1.5l-2 4a6.846 6.846 0 0 1 1 4c-2.274 1.645-2.274 3.145 0 4.5l-9.5 9.5c.056 5.68.556 11.346 1.5 17-.23 4.505.437 8.839 2 13-1.431-1.403-2.598-3.069-3.5-5a29.948 29.948 0 0 0-2-9c-1.023 1.1-1.523 2.433-1.5 4 .34 2.012.673 4.012 1 6-1.322-.17-2.489.163-3.5 1a19.247 19.247 0 0 0-3 9c-3.535.516-6.368 2.183-8.5 5-2.316-1.994-4.982-2.994-8-3a28.148 28.148 0 0 1 2-7c-1.08-2.918-3.08-5.085-6-6.5 2.392-.572 4.392-1.738 6-3.5 2.632.94 5.298 1.107 8 .5-.928-.388-1.595-1.055-2-2 1.207-1.3 1.874-2.8 2-4.5a9.107 9.107 0 0 1 5 1c3.234-2.072 3.567-4.405 1-7 3.103-1.679 4.103-4.013 3-7l.5-2c.654 1.196 1.154 1.196 1.5 0-.825-.886-1.825-1.219-3-1-.713-4.227.954-6.894 5-8a29.13 29.13 0 0 0 2.5 5c.605-1.981 1.605-2.315 3-1 .684-1.284.517-2.451-.5-3.5a61.69 61.69 0 0 0 5-7.5 37.85 37.85 0 0 1-2.5-12c-1.097 1.467-2.597 2.301-4.5 2.5a547.03 547.03 0 0 1-16 0c-.457.414-.79.914-1 1.5a74.091 74.091 0 0 1-12 1.5 4.458 4.458 0 0 1-2 1.5 159.18 159.18 0 0 0-12-1c3.266-.129 6.266-1.129 9-3-.01.941.49 1.608 1.5 2 4.16-.498 7.66-2.165 10.5-5 2.342.275 2.342 1.108 0 2.5 4.508-.678 8.341-2.845 11.5-6.5.507 1.496.007 2.663-1.5 3.5 1.69-.134 3.356-.634 5-1.5a77.938 77.938 0 0 0 14-9l2 .5c-1.877 2.819-2.21 5.653-1 8.5z"/><path style="opacity:1" fill="#451108" d="M13.5 176.5c-.175 2.121.159 4.121 1 6 1.576 10.07 4.91 19.403 10 28v1c5.281 14.567 13.115 27.567 23.5 39a46.447 46.447 0 0 0 3.5 7c-5.261-4.49-9.595-9.823-13-16-.825-.886-1.825-1.219-3-1-1.028-5.4-3.195-10.4-6.5-15-5.018-11.08-10.018-22.08-15-33a358.698 358.698 0 0 0-1.5-12.5c.014-1.385.348-2.551 1-3.5z"/><path style="opacity:1" fill="#736967" d="M121.5 240.5h2v1c-.904.709-1.237 1.709-1 3a29.23 29.23 0 0 0-9 1c1.939-2.776 4.439-3.443 7.5-2a4.934 4.934 0 0 0 .5-3z"/><path style="opacity:1" fill="#3c332b" d="M113.5 245.5c-.502 1.585-1.502 2.085-3 1.5.744-1.039 1.744-1.539 3-1.5z"/><path style="opacity:1" fill="#b7543e" d="M86.5 238.5c1.22 5.335 2.887 10.669 5 16a12.807 12.807 0 0 0 6 3c.847 1.466 2.18 2.3 4 2.5 5.323.499 10.656.666 16 .5-6.153 1.153-12.486 1.32-19 .5-1.86-1.981-4.192-2.981-7-3a19.209 19.209 0 0 1-3-6.5c-1.563-4.161-2.23-8.495-2-13z"/><path style="opacity:1" fill="#491c15" d="M130.5 175.5h1a184.69 184.69 0 0 1-1 21c-2.706 7.064-6.706 13.397-12 19a31.515 31.515 0 0 0-9 5.5c-6.937 5.427-7.937 11.927-3 19.5 4.004 1.839 7.004.839 9-3 3.663.452 7.33.952 11 1.5 2.715.875 4.048 2.708 4 5.5a18.453 18.453 0 0 0-6 .5c3.928 1.092 6.261 3.592 7 7.5a20.683 20.683 0 0 0-9-.5c3.08 1.711 4.246 4.211 3.5 7.5-3.105-2.427-5.938-2.094-8.5 1a128.507 128.507 0 0 1-16-.5c-1.82-.2-3.153-1.034-4-2.5a62.858 62.858 0 0 0 18 .5 9.454 9.454 0 0 0 2.5-1.5l4.5-9v-3c-.237-1.291.096-2.291 1-3 1.446 1.113 3.113 1.28 5 .5-1.405-1.269-3.071-1.769-5-1.5h-2c-3.355-1.658-6.021-.825-8 2.5a12.494 12.494 0 0 1-7 0c-4.124-5.317-5.291-11.15-3.5-17.5a159.041 159.041 0 0 1 16.5-13.5l6.5-8.5c1.5-9.369 3-18.703 4.5-28z"/><path style="opacity:1" fill="#f3e8e3" d="M122.5 247.5c3.012-1.495 5.345-.662 7 2.5-1.45.117-2.95-.05-4.5-.5-1.376-.184-2.209-.851-2.5-2z"/><path style="opacity:1" fill="#ebd0c6" d="M123.5 240.5c1.929-.269 3.595.231 5 1.5-1.887.78-3.554.613-5-.5v-1z"/><path style="opacity:1" fill="#46433d" d="M113.5 249.5a18.453 18.453 0 0 1 6 .5c-3.301.997-6.634 1.33-10 1 1.558-.21 2.891-.71 4-1.5z"/><path style="opacity:1" fill="#302118" d="M6.5 114.5a776.466 776.466 0 0 0 2 29v5a152.565 152.565 0 0 0 4 27c.607-.124.94-.457 1-1h2c-.333 1-1 1.667-2 2-.652.949-.986 2.115-1 3.5a358.698 358.698 0 0 1 1.5 12.5c4.982 10.92 9.982 21.92 15 33 3.305 4.6 5.472 9.6 6.5 15 1.175-.219 2.175.114 3 1 3.405 6.177 7.739 11.51 13 16a215.587 215.587 0 0 0 10.5 15 686.736 686.736 0 0 0 23.5 21c-43.545-31.702-69.878-74.369-79-128a244.254 244.254 0 0 1-3-31c1.418-4.057 2.418-10.724 3-20z"/><path style="opacity:1" fill="#401703" d="M311.5 105.5a5.727 5.727 0 0 1-1 3 102.102 102.102 0 0 0-12 12 148.596 148.596 0 0 0-22 19 469.739 469.739 0 0 0-32 29 159.115 159.115 0 0 0-16 14 260.549 260.549 0 0 0-29 24c-18.025 15.03-36.025 30.03-54 45a205.598 205.598 0 0 0-18 16 273.524 273.524 0 0 0-24 21 71.916 71.916 0 0 0-9 7c-1.696 1.629-2.696 1.296-3-1 3.52-.853 6.187-2.853 8-6a774.99 774.99 0 0 0 35-31h1a5731.03 5731.03 0 0 1 25-20.5c1.641-1.129 2.641-2.629 3-4.5.992.172 1.658-.162 2-1a85.81 85.81 0 0 0 17-14l2-1a599.173 599.173 0 0 0 31-27 634.227 634.227 0 0 0 32-28 163.091 163.091 0 0 0 23-20c7.009-5.836 14.009-11.669 21-17.5a71.238 71.238 0 0 1 12-12.5 694.383 694.383 0 0 0 8-6z"/><path style="opacity:1" fill="#f4e5d7" d="M120.5 253.5c6.895 4.055 6.562 4.721-1 2 .363-.683.696-1.35 1-2z"/><path style="opacity:1" fill="#bc543b" d="M115.5 237.5c.597-.639 1.43-.972 2.5-1 3.481.623 6.981 1.123 10.5 1.5 3.36 2.429 3.693 5.095 1 8 2.625 2.196 3.625 5.03 3 8.5h-4v5c2.185-.204 4.185-.87 6-2a774.99 774.99 0 0 1-35 31c8.265-9.426 17.431-18.093 27.5-26l.5-1c-3.162-2.167-6.495-2.5-10-1 2.562-3.094 5.395-3.427 8.5-1 .746-3.289-.42-5.789-3.5-7.5a20.683 20.683 0 0 1 9 .5c-.739-3.908-3.072-6.408-7-7.5a18.453 18.453 0 0 1 6-.5c.048-2.792-1.285-4.625-4-5.5a436.267 436.267 0 0 0-11-1.5z"/><path style="opacity:1" fill="#f7e922" d="M199.5 206.5c-.843 3.016-2.343 5.683-4.5 8-2.091-1-3.757-.333-5 2a499.146 499.146 0 0 0-5 12c-2.313-1.537-4.813-2.037-7.5-1.5a32.437 32.437 0 0 1-8 8.5c-7.354 3.174-13.354 8.007-18 14.5 1.544.29 2.877.956 4 2-1.017 1.049-1.184 2.216-.5 3.5.667-1.333 1.333-1.333 2 0 .667 1 .667 2 0 3-4.284-1.101-7.117.566-8.5 5-3.937-2.032-6.77-.699-8.5 4a6.547 6.547 0 0 1-3-3c-2.109 4.5-5.442 6.167-10 5a14.506 14.506 0 0 1-5 4c-.034 1.68-.201 3.18-.5 4.5a97.042 97.042 0 0 1-14 9c2.157 1.085 2.324 2.251.5 3.5a9.175 9.175 0 0 0-4.5-2 273.524 273.524 0 0 1 24-21c5.018-2.504 9.351-6.004 13-10.5 1.4-1.438 3.067-2.271 5-2.5v-3c17.975-14.97 35.975-29.97 54-45z"/><path style="opacity:1" fill="#bd533b" d="M24.5 211.5a508.942 508.942 0 0 1 7.5 9 25.789 25.789 0 0 1 2 8c2.827 2.829 4.827 6.163 6 10a1901.442 1901.442 0 0 0 30.5 39l-19-20a46.447 46.447 0 0 1-3.5-7c-10.385-11.433-18.219-24.433-23.5-39z"/><path style="opacity:1" fill="#d34727" d="M33.5 197.5a68.666 68.666 0 0 0 9 2c3.866.17 7.866.503 12 1a4.458 4.458 0 0 0 2-1.5c4.04-.173 8.04-.673 12-1.5a3.646 3.646 0 0 1 1-1.5 547.03 547.03 0 0 0 16 0c1.903-.199 3.403-1.033 4.5-2.5a37.85 37.85 0 0 0 2.5 12 61.69 61.69 0 0 1-5 7.5c1.017 1.049 1.184 2.216.5 3.5-1.395-1.315-2.395-.981-3 1a29.13 29.13 0 0 1-2.5-5c-4.046 1.106-5.713 3.773-5 8 1.175-.219 2.175.114 3 1-.346 1.196-.846 1.196-1.5 0l-.5 2c1.103 2.987.103 5.321-3 7 2.567 2.595 2.234 4.928-1 7a9.107 9.107 0 0 0-5-1c-.126 1.7-.793 3.2-2 4.5.405.945 1.072 1.612 2 2-2.702.607-5.368.44-8-.5-1.608 1.762-3.608 2.928-6 3.5 2.92 1.415 4.92 3.582 6 6.5a28.148 28.148 0 0 0-2 7c3.018.006 5.684 1.006 8 3 2.132-2.817 4.965-4.484 8.5-5a19.247 19.247 0 0 1 3-9c1.011-.837 2.178-1.17 3.5-1-.327-1.988-.66-3.988-1-6-.023-1.567.477-2.9 1.5-4a29.948 29.948 0 0 1 2 9c.902 1.931 2.069 3.597 3.5 5a19.209 19.209 0 0 0 3 6.5c2.808.019 5.14 1.019 7 3 6.514.82 12.847.653 19-.5 3.505-1.5 6.838-1.167 10 1l-.5 1c-10.069 7.907-19.235 16.574-27.5 26-2.825.643-5.325 1.977-7.5 4-2-3.182-4.833-4.849-8.5-5-2.683-5.455-7.017-8.788-13-10a1901.442 1901.442 0 0 1-30.5-39c-1.173-3.837-3.173-7.171-6-10a25.789 25.789 0 0 0-2-8 508.942 508.942 0 0 0-7.5-9v-1a17654.02 17654.02 0 0 0-5.5-20 6.544 6.544 0 0 1 3 3l1-1 1 3c2.904 1.727 6.07 2.393 9.5 2z"/><path style="opacity:1" fill="#eee654" d="M145.5 251.5v3c-1.933.229-3.6 1.062-5 2.5-3.649 4.496-7.982 7.996-13 10.5a205.598 205.598 0 0 1 18-16z"/><path style="opacity:1" fill="#bc533b" d="M70.5 277.5c5.983 1.212 10.317 4.545 13 10a47.422 47.422 0 0 1-13-10z"/><path style="opacity:1" fill="#44150b" d="m51.5 257.5 19 20a47.422 47.422 0 0 0 13 10 54.893 54.893 0 0 0 7 7 20.691 20.691 0 0 0-5-1 686.736 686.736 0 0 1-23.5-21 215.587 215.587 0 0 1-10.5-15z"/><path style="opacity:1" fill="#b35233" d="M83.5 287.5c3.667.151 6.5 1.818 8.5 5 2.175-2.023 4.675-3.357 7.5-4-1.813 3.147-4.48 5.147-8 6h-1a54.893 54.893 0 0 1-7-7z"/><path style="opacity:1" fill="#ece439" d="M234.5 287.5a204.319 204.319 0 0 1-40 27v-3l7-2v-3c1.951.273 3.451-.393 4.5-2 1.813 1.109 2.646.442 2.5-2 5.66-2.988 11.326-5.988 17-9 .836-2.687 2.336-5.02 4.5-7 1.356.88 2.856 1.214 4.5 1z"/><path style="opacity:1" fill="#ece642" d="M194.5 314.5a386.758 386.758 0 0 1-33 17.5c-2.479.362-4.479-.471-6-2.5a24.362 24.362 0 0 0 10-1.5c-.951-.718-1.117-1.551-.5-2.5a6.293 6.293 0 0 0 3 1 812.301 812.301 0 0 0 20.5-11 19.048 19.048 0 0 1 6-1z"/></svg>