<?xml version="1.0" encoding="UTF-8"?>
<!DOCTYPE svg PUBLIC "-//W3C//DTD SVG 1.1//EN" "http://www.w3.org/Graphics/SVG/1.1/DTD/svg11.dtd">
<svg xmlns="http://www.w3.org/2000/svg" version="1.1" width="114px" height="116px" style="shape-rendering:geometricPrecision; text-rendering:geometricPrecision; image-rendering:optimizeQuality; fill-rule:evenodd; clip-rule:evenodd" xmlns:xlink="http://www.w3.org/1999/xlink">
<g><path style="opacity:1" fill="#2c2f3c" d="M 42.5,-0.5 C 60.8333,-0.5 79.1667,-0.5 97.5,-0.5C 97.5,-0.166667 97.5,0.166667 97.5,0.5C 83.8333,0.5 70.1667,0.5 56.5,0.5C 55.8333,0.5 55.5,0.833333 55.5,1.5C 37.5,1.5 19.5,1.5 1.5,1.5C 1.5,1.16667 1.5,0.833333 1.5,0.5C 15.3435,0.829042 29.0102,0.495709 42.5,-0.5 Z"/></g>
<g><path style="opacity:1" fill="#4a608a" d="M 1.5,1.5 C 19.5,1.5 37.5,1.5 55.5,1.5C 55.5,7.5 55.5,13.5 55.5,19.5C 53.4259,17.325 52.0926,14.6583 51.5,11.5C 48.2919,15.9222 46.1252,20.9222 45,26.5C 43.9241,20.9121 43.0907,15.2455 42.5,9.5C 40.5,8.83333 38.5,8.16667 36.5,7.5C 32.0196,9.13816 27.3529,9.97149 22.5,10C 21.1991,11.6155 21.1991,13.1155 22.5,14.5C 22.38,15.5862 21.7133,16.2528 20.5,16.5C 16.9958,15.3421 16.6625,16.1755 19.5,19C 20.448,19.4828 21.448,19.6495 22.5,19.5C 22.4399,23.4851 24.4399,25.1518 28.5,24.5C 29.1667,24.5 29.8333,24.5 30.5,24.5C 30.5,24.8333 30.5,25.1667 30.5,25.5C 28.1698,27.6672 25.5032,29.3338 22.5,30.5C 21.2921,31.2341 19.9587,31.5674 18.5,31.5C 15.7805,29.7807 13.7805,27.4474 12.5,24.5C 12.5111,22.4534 12.8444,20.4534 13.5,18.5C 12.8932,14.5163 11.2265,13.8496 8.5,16.5C 4.21105,14.5111 2.87772,15.5111 4.5,19.5C 3.5,19.5 2.5,19.5 1.5,19.5C 1.5,13.5 1.5,7.5 1.5,1.5 Z"/></g>
<g><path style="opacity:1" fill="#fbdc25" d="M 110.5,50.5 C 109.091,63.1744 105.091,74.8411 98.5,85.5C 97.8333,85.5 97.5,85.8333 97.5,86.5C 94.1667,89.1667 91.1667,92.1667 88.5,95.5C 87.8333,95.5 87.5,95.8333 87.5,96.5C 85.5956,96.7376 84.2623,97.7376 83.5,99.5C 75.3204,104.424 66.9871,109.09 58.5,113.5C 58.1667,113.5 57.8333,113.5 57.5,113.5C 57.5,76.1667 57.5,38.8333 57.5,1.5C 75.1667,1.5 92.8333,1.5 110.5,1.5C 110.5,17.8333 110.5,34.1667 110.5,50.5 Z"/></g>
<g><path style="opacity:1" fill="#534534" d="M 97.5,0.5 C 97.5,0.166667 97.5,-0.166667 97.5,-0.5C 102.5,-0.5 107.5,-0.5 112.5,-0.5C 112.756,18.8534 112.423,38.1868 111.5,57.5C 109.643,64.5668 107.31,71.5668 104.5,78.5C 103.094,78.9731 102.427,79.9731 102.5,81.5C 102.672,82.4916 102.338,83.1583 101.5,83.5C 100.5,84.1667 99.5,84.8333 98.5,85.5C 105.091,74.8411 109.091,63.1744 110.5,50.5C 111.497,34.0084 111.83,17.3417 111.5,0.5C 106.833,0.5 102.167,0.5 97.5,0.5 Z"/></g>
<g><path style="opacity:1" fill="#f3d626" d="M 42.5,33.5 C 42.5,34.1667 42.8333,34.5 43.5,34.5C 42.7222,35.1556 42.0556,35.9889 41.5,37C 43.433,40.7834 42.433,43.6168 38.5,45.5C 37.1934,44.1845 35.6934,43.1845 34,42.5C 33.5172,43.448 33.3505,44.448 33.5,45.5C 34.5,45.5 35.5,45.5 36.5,45.5C 36.3802,48.2048 37.3802,48.8715 39.5,47.5C 41.0313,53.5369 43.6979,59.0369 47.5,64C 42.8452,64.4992 38.1785,64.6658 33.5,64.5C 33.072,60.756 31.4053,57.756 28.5,55.5C 29.6222,54.0527 31.1222,53.0527 33,52.5C 33.6958,47.4369 32.8624,47.2703 30.5,52C 28.6854,52.7568 27.0188,53.5902 25.5,54.5C 21.4078,56.7083 17.0744,58.7083 12.5,60.5C 11.2638,59.7542 9.93047,59.4208 8.5,59.5C 8.37133,57.7839 8.038,56.1172 7.5,54.5C 8.73485,54.7214 9.73485,55.3881 10.5,56.5C 13.593,54.9657 16.2597,52.9657 18.5,50.5C 20.0269,50.573 21.0269,49.9063 21.5,48.5C 23.5357,45.662 25.0357,45.9954 26,49.5C 27.0758,47.9328 27.9091,46.2662 28.5,44.5C 28.1667,43.8333 27.8333,43.1667 27.5,42.5C 26.7189,43.7287 26.2189,45.062 26,46.5C 24.164,44.0882 22.664,44.4215 21.5,47.5C 20.4684,45.5662 19.8017,43.3995 19.5,41C 21.0355,37.6972 22.0355,34.1972 22.5,30.5C 25.5032,29.3338 28.1698,27.6672 30.5,25.5C 31.9778,25.762 33.3112,25.4287 34.5,24.5C 33.4425,24.0941 32.1092,24.0941 30.5,24.5C 29.8333,24.5 29.1667,24.5 28.5,24.5C 28.0825,23.7784 27.4158,23.2784 26.5,23C 30.1899,22.3096 31.3566,20.1429 30,16.5C 27.6985,15.1328 25.1985,14.4661 22.5,14.5C 22.6273,11.7279 24.1273,10.3946 27,10.5C 29.2552,10.6095 30.9219,11.6095 32,13.5C 35.3567,12.2577 35.19,11.4244 31.5,11C 34.8333,10.3333 38.1667,10.3333 41.5,11C 38.5315,13.1777 38.8649,14.3444 42.5,14.5C 43.0487,21.1827 43.0487,27.516 42.5,33.5 Z"/></g>
<g><path style="opacity:1" fill="#8c8da3" d="M -0.5,-0.5 C 13.8333,-0.5 28.1667,-0.5 42.5,-0.5C 29.0102,0.495709 15.3435,0.829042 1.5,0.5C 0.503485,16.9916 0.170152,33.6583 0.5,50.5C 0.166667,50.5 -0.166667,50.5 -0.5,50.5C -0.5,33.5 -0.5,16.5 -0.5,-0.5 Z"/></g>
<g><path style="opacity:1" fill="#eed127" d="M 12.5,24.5 C 13.7805,27.4474 15.7805,29.7807 18.5,31.5C 19.6542,35.8381 18.9875,39.8381 16.5,43.5C 15.8333,42.1667 14.8333,41.1667 13.5,40.5C 14.8146,39.1054 14.4812,38.1054 12.5,37.5C 12.3079,35.2809 11.4746,32.9476 10,30.5C 8.89037,28.9632 7.39037,28.2965 5.5,28.5C 5.83739,24.7556 6.33739,21.0889 7,17.5C 8.33333,18.8333 9.66667,18.8333 11,17.5C 11.5946,18.8989 11.4279,20.2322 10.5,21.5C 10.9424,22.7387 11.6091,23.7387 12.5,24.5 Z"/></g>
<g><path style="opacity:1" fill="#262114" d="M 22.5,14.5 C 25.1985,14.4661 27.6985,15.1328 30,16.5C 31.3566,20.1429 30.1899,22.3096 26.5,23C 27.4158,23.2784 28.0825,23.7784 28.5,24.5C 24.4399,25.1518 22.4399,23.4851 22.5,19.5C 21.448,19.6495 20.448,19.4828 19.5,19C 16.6625,16.1755 16.9958,15.3421 20.5,16.5C 21.7133,16.2528 22.38,15.5862 22.5,14.5 Z"/></g>
<g><path style="opacity:1" fill="#847724" d="M 30.5,25.5 C 30.5,25.1667 30.5,24.8333 30.5,24.5C 32.1092,24.0941 33.4425,24.0941 34.5,24.5C 33.3112,25.4287 31.9778,25.762 30.5,25.5 Z"/></g>
<g><path style="opacity:1" fill="#1f1d19" d="M 1.5,0.5 C 1.5,0.833333 1.5,1.16667 1.5,1.5C 1.5,7.5 1.5,13.5 1.5,19.5C 2.5,19.5 3.5,19.5 4.5,19.5C 2.87772,15.5111 4.21105,14.5111 8.5,16.5C 11.2265,13.8496 12.8932,14.5163 13.5,18.5C 12.8444,20.4534 12.5111,22.4534 12.5,24.5C 11.6091,23.7387 10.9424,22.7387 10.5,21.5C 11.4279,20.2322 11.5946,18.8989 11,17.5C 9.66667,18.8333 8.33333,18.8333 7,17.5C 6.33739,21.0889 5.83739,24.7556 5.5,28.5C 7.39037,28.2965 8.89037,28.9632 10,30.5C 11.4746,32.9476 12.3079,35.2809 12.5,37.5C 11.5,37.5 10.5,37.5 9.5,37.5C 9.37394,35.8002 8.70728,34.3002 7.5,33C 7.6448,32.228 7.97814,31.5613 8.5,31C 5.97802,30.0433 3.81135,28.5433 2,26.5C 1.44553,36.5225 1.77887,46.5225 3,56.5C 4.10963,54.9632 5.60963,54.2965 7.5,54.5C 8.038,56.1172 8.37133,57.7839 8.5,59.5C 9.93047,59.4208 11.2638,59.7542 12.5,60.5C 17.0744,58.7083 21.4078,56.7083 25.5,54.5C 26.609,54.5569 27.609,54.8902 28.5,55.5C 28.5,56.1667 28.5,56.8333 28.5,57.5C 26.6096,57.2965 25.1096,57.9632 24,59.5C 22.2835,58.4477 21.2835,59.1144 21,61.5C 18.4723,60.4813 16.9723,61.4813 16.5,64.5C 14.8333,64.5 13.1667,64.5 11.5,64.5C 11.3893,63.8826 11.056,63.3826 10.5,63C 8.68739,63.0464 7.02072,62.8797 5.5,62.5C 6.30937,60.9291 6.64271,59.2624 6.5,57.5C 5.5,57.5 4.5,57.5 3.5,57.5C 3.5,59.1667 3.5,60.8333 3.5,62.5C 2.17669,58.5705 1.17669,54.5705 0.5,50.5C 0.170152,33.6583 0.503485,16.9916 1.5,0.5 Z"/></g>
<g><path style="opacity:1" fill="#b5a12c" d="M 1.5,21.5 C 2.84781,22.5268 3.34781,23.8602 3,25.5C 1.81181,24.4366 1.31181,23.1033 1.5,21.5 Z"/></g>
<g><path style="opacity:1" fill="#4a5f86" d="M 12.5,37.5 C 9.66183,39.3059 9.99516,40.3059 13.5,40.5C 14.8333,41.1667 15.8333,42.1667 16.5,43.5C 17.449,45.7373 18.1156,48.0706 18.5,50.5C 16.2597,52.9657 13.593,54.9657 10.5,56.5C 9.73485,55.3881 8.73485,54.7214 7.5,54.5C 5.60963,54.2965 4.10963,54.9632 3,56.5C 1.77887,46.5225 1.44553,36.5225 2,26.5C 3.81135,28.5433 5.97802,30.0433 8.5,31C 7.97814,31.5613 7.6448,32.228 7.5,33C 8.70728,34.3002 9.37394,35.8002 9.5,37.5C 10.5,37.5 11.5,37.5 12.5,37.5 Z"/></g>
<g><path style="opacity:1" fill="#4b628b" d="M 55.5,29.5 C 55.6664,38.1731 55.4998,46.8397 55,55.5C 54.1208,52.1815 53.2875,48.8482 52.5,45.5C 51.8503,43.8164 50.8503,42.4831 49.5,41.5C 49.3451,36.3475 51.3451,32.3475 55.5,29.5 Z"/></g>
<g><path style="opacity:1" fill="#455575" d="M 43.5,34.5 C 42.8333,34.5 42.5,34.1667 42.5,33.5C 43.1047,31.9743 44.2714,30.9743 46,30.5C 48.2872,34.2134 47.4539,35.5468 43.5,34.5 Z"/></g>
<g><path style="opacity:1" fill="#e8dcc5" d="M 112.5,-0.5 C 112.833,-0.5 113.167,-0.5 113.5,-0.5C 113.5,17.1667 113.5,34.8333 113.5,52.5C 112.833,54.1667 112.167,55.8333 111.5,57.5C 112.423,38.1868 112.756,18.8534 112.5,-0.5 Z"/></g>
<g><path style="opacity:1" fill="#2b2622" d="M 12.5,37.5 C 14.4812,38.1054 14.8146,39.1054 13.5,40.5C 9.99516,40.3059 9.66183,39.3059 12.5,37.5 Z"/></g>
<g><path style="opacity:1" fill="#42391e" d="M 22.5,30.5 C 22.0355,34.1972 21.0355,37.6972 19.5,41C 19.8017,43.3995 20.4684,45.5662 21.5,47.5C 21.5,47.8333 21.5,48.1667 21.5,48.5C 21.0269,49.9063 20.0269,50.573 18.5,50.5C 18.1156,48.0706 17.449,45.7373 16.5,43.5C 18.9875,39.8381 19.6542,35.8381 18.5,31.5C 19.9587,31.5674 21.2921,31.2341 22.5,30.5 Z"/></g>
<g><path style="opacity:1" fill="#e44e50" d="M 63.5,36.5 C 68.6065,37.4242 73.6065,38.7576 78.5,40.5C 79.1667,40.5 79.5,40.8333 79.5,41.5C 79.5,45.8333 79.5,50.1667 79.5,54.5C 79.8275,59.544 79.4941,64.544 78.5,69.5C 76.9291,68.6906 75.2624,68.3573 73.5,68.5C 70.2154,68.0719 67.2154,67.0719 64.5,65.5C 63.5268,55.9162 63.1935,46.2496 63.5,36.5 Z"/></g>
<g><path style="opacity:1" fill="#e64e50" d="M 100.5,37.5 C 102.471,46.1045 103.138,55.1045 102.5,64.5C 101.833,64.5 101.5,64.8333 101.5,65.5C 98.3811,66.8699 95.0477,67.8699 91.5,68.5C 90.1667,68.5 88.8333,68.5 87.5,68.5C 87.5,59.8333 87.5,51.1667 87.5,42.5C 87.5774,41.2502 88.244,40.4169 89.5,40C 93.0145,38.4383 96.6811,37.605 100.5,37.5 Z"/></g>
<g><path style="opacity:1" fill="#2c251b" d="M 55.5,19.5 C 55.5,22.8333 55.5,26.1667 55.5,29.5C 51.3451,32.3475 49.3451,36.3475 49.5,41.5C 47.8958,42.287 47.2291,43.6203 47.5,45.5C 45.9065,42.9391 44.9065,39.9391 44.5,36.5C 44.1667,36.8333 43.8333,37.1667 43.5,37.5C 44.4054,41.756 44.0721,46.256 42.5,51C 43.7067,56.9745 46.7067,61.4745 51.5,64.5C 51.6646,61.4816 51.498,58.4816 51,55.5C 49.2589,52.6907 48.0922,49.6907 47.5,46.5C 51.5555,51.3161 53.3889,56.9828 53,63.5C 53.2784,62.5842 53.7784,61.9175 54.5,61.5C 54.2852,63.1788 54.9519,64.1788 56.5,64.5C 56.5,64.8333 56.5,65.1667 56.5,65.5C 56.1667,65.5 55.8333,65.5 55.5,65.5C 38.8333,65.5 22.1667,65.5 5.5,65.5C 5.5,66.5 5.5,67.5 5.5,68.5C 4.83333,68.1667 4.16667,67.8333 3.5,67.5C 3.5,66.1667 3.5,64.8333 3.5,63.5C 6.05449,64.388 8.72116,64.7214 11.5,64.5C 13.1667,64.5 14.8333,64.5 16.5,64.5C 21.5,64.5 26.5,64.5 31.5,64.5C 31.3122,61.7939 30.3122,59.4605 28.5,57.5C 28.5,56.8333 28.5,56.1667 28.5,55.5C 31.4053,57.756 33.072,60.756 33.5,64.5C 38.1785,64.6658 42.8452,64.4992 47.5,64C 43.6979,59.0369 41.0313,53.5369 39.5,47.5C 37.3802,48.8715 36.3802,48.2048 36.5,45.5C 35.5,45.5 34.5,45.5 33.5,45.5C 33.3505,44.448 33.5172,43.448 34,42.5C 35.6934,43.1845 37.1934,44.1845 38.5,45.5C 42.433,43.6168 43.433,40.7834 41.5,37C 42.0556,35.9889 42.7222,35.1556 43.5,34.5C 47.4539,35.5468 48.2872,34.2134 46,30.5C 44.2714,30.9743 43.1047,31.9743 42.5,33.5C 43.0487,27.516 43.0487,21.1827 42.5,14.5C 38.8649,14.3444 38.5315,13.1777 41.5,11C 38.1667,10.3333 34.8333,10.3333 31.5,11C 35.19,11.4244 35.3567,12.2577 32,13.5C 30.9219,11.6095 29.2552,10.6095 27,10.5C 24.1273,10.3946 22.6273,11.7279 22.5,14.5C 21.1991,13.1155 21.1991,11.6155 22.5,10C 27.3529,9.97149 32.0196,9.13816 36.5,7.5C 38.5,8.16667 40.5,8.83333 42.5,9.5C 43.0907,15.2455 43.9241,20.9121 45,26.5C 46.1252,20.9222 48.2919,15.9222 51.5,11.5C 52.0926,14.6583 53.4259,17.325 55.5,19.5 Z"/></g>
<g><path style="opacity:1" fill="#e7ca27" d="M 49.5,16.5 C 50.9017,20.0341 52.2351,23.0341 53.5,25.5C 53.065,29.0366 51.565,32.0366 49,34.5C 48.654,32.7818 48.154,31.1151 47.5,29.5C 48.4465,27.941 49.1132,26.2743 49.5,24.5C 48.3816,21.8447 48.3816,19.178 49.5,16.5 Z"/></g>
<g><path style="opacity:1" fill="#41331b" d="M 101.5,34.5 C 102.5,34.5 103.5,34.5 104.5,34.5C 104.5,44.8333 104.5,55.1667 104.5,65.5C 103.5,65.5 102.5,65.5 101.5,65.5C 101.5,64.8333 101.833,64.5 102.5,64.5C 103.494,55.3483 103.827,46.015 103.5,36.5C 102.833,35.8333 102.167,35.1667 101.5,34.5 Z"/></g>
<g><path style="opacity:1" fill="#943837" d="M 100.5,37.5 C 101.209,36.596 102.209,36.2627 103.5,36.5C 103.827,46.015 103.494,55.3483 102.5,64.5C 103.138,55.1045 102.471,46.1045 100.5,37.5 Z"/></g>
<g><path style="opacity:1" fill="#495f87" d="M 47.5,45.5 C 47.5,45.8333 47.5,46.1667 47.5,46.5C 48.0922,49.6907 49.2589,52.6907 51,55.5C 51.498,58.4816 51.6646,61.4816 51.5,64.5C 46.7067,61.4745 43.7067,56.9745 42.5,51C 44.0721,46.256 44.4054,41.756 43.5,37.5C 43.8333,37.1667 44.1667,36.8333 44.5,36.5C 44.9065,39.9391 45.9065,42.9391 47.5,45.5 Z"/></g>
<g><path style="opacity:1" fill="#e84e51" d="M 85.5,41.5 C 85.5,51.5 85.5,61.5 85.5,71.5C 84.1667,71.5 82.8333,71.5 81.5,71.5C 81.5,70.1667 81.5,68.8333 81.5,67.5C 81.5,59.5 81.5,51.5 81.5,43.5C 81.5,43.1667 81.5,42.8333 81.5,42.5C 82.9587,42.5674 84.2921,42.2341 85.5,41.5 Z"/></g>
<g><path style="opacity:1" fill="#57491d" d="M 21.5,48.5 C 21.5,48.1667 21.5,47.8333 21.5,47.5C 22.664,44.4215 24.164,44.0882 26,46.5C 26.2189,45.062 26.7189,43.7287 27.5,42.5C 27.8333,43.1667 28.1667,43.8333 28.5,44.5C 27.9091,46.2662 27.0758,47.9328 26,49.5C 25.0357,45.9954 23.5357,45.662 21.5,48.5 Z"/></g>
<g><path style="opacity:1" fill="#7a3c2d" d="M 85.5,41.5 C 86.1667,41.8333 86.8333,42.1667 87.5,42.5C 87.5,51.1667 87.5,59.8333 87.5,68.5C 88.8333,68.5 90.1667,68.5 91.5,68.5C 92.7617,73.2832 94.4283,77.9499 96.5,82.5C 95.8244,84.3535 94.8244,84.6869 93.5,83.5C 91.9265,79.6083 90.2598,75.7749 88.5,72C 85.3593,72.7579 82.1926,72.5912 79,71.5C 76.356,75.9258 74.1893,80.5925 72.5,85.5C 71.5,85.5 70.5,85.5 69.5,85.5C 70.7269,80.5394 72.3936,75.7061 74.5,71C 74.2568,70.0979 73.9234,69.2646 73.5,68.5C 75.2624,68.3573 76.9291,68.6906 78.5,69.5C 79.4941,64.544 79.8275,59.544 79.5,54.5C 80.1667,58.8333 80.8333,63.1667 81.5,67.5C 81.5,68.8333 81.5,70.1667 81.5,71.5C 82.8333,71.5 84.1667,71.5 85.5,71.5C 85.5,61.5 85.5,51.5 85.5,41.5 Z"/></g>
<g><path style="opacity:1" fill="#796622" d="M 28.5,55.5 C 27.609,54.8902 26.609,54.5569 25.5,54.5C 27.0188,53.5902 28.6854,52.7568 30.5,52C 32.8624,47.2703 33.6958,47.4369 33,52.5C 31.1222,53.0527 29.6222,54.0527 28.5,55.5 Z"/></g>
<g><path style="opacity:1" fill="#9e8826" d="M 49.5,41.5 C 49.4606,42.5832 49.1272,43.5832 48.5,44.5C 49.1667,44.8333 49.8333,45.1667 50.5,45.5C 49.5221,46.8013 49.8555,47.968 51.5,49C 53.2272,53.0102 54.2272,57.1768 54.5,61.5C 53.7784,61.9175 53.2784,62.5842 53,63.5C 53.3889,56.9828 51.5555,51.3161 47.5,46.5C 47.5,46.1667 47.5,45.8333 47.5,45.5C 47.2291,43.6203 47.8958,42.287 49.5,41.5 Z"/></g>
<g><path style="opacity:1" fill="#903736" d="M 79.5,41.5 C 80.1667,42.1667 80.8333,42.8333 81.5,43.5C 81.5,51.5 81.5,59.5 81.5,67.5C 80.8333,63.1667 80.1667,58.8333 79.5,54.5C 79.5,50.1667 79.5,45.8333 79.5,41.5 Z"/></g>
<g><path style="opacity:1" fill="#58471b" d="M 63.5,34.5 C 63.5,35.1667 63.5,35.8333 63.5,36.5C 63.1935,46.2496 63.5268,55.9162 64.5,65.5C 63.1721,60.7124 62.5054,55.5457 62.5,50C 62.5006,44.6555 62.834,39.4889 63.5,34.5 Z"/></g>
<g><path style="opacity:1" fill="#496088" d="M 28.5,57.5 C 30.3122,59.4605 31.3122,61.7939 31.5,64.5C 26.5,64.5 21.5,64.5 16.5,64.5C 16.9723,61.4813 18.4723,60.4813 21,61.5C 21.2835,59.1144 22.2835,58.4477 24,59.5C 25.1096,57.9632 26.6096,57.2965 28.5,57.5 Z"/></g>
<g><path style="opacity:1" fill="#465a80" d="M 11.5,64.5 C 8.72116,64.7214 6.05449,64.388 3.5,63.5C 3.5,63.1667 3.5,62.8333 3.5,62.5C 3.5,60.8333 3.5,59.1667 3.5,57.5C 4.5,57.5 5.5,57.5 6.5,57.5C 6.64271,59.2624 6.30937,60.9291 5.5,62.5C 7.02072,62.8797 8.68739,63.0464 10.5,63C 11.056,63.3826 11.3893,63.8826 11.5,64.5 Z"/></g>
<g><path style="opacity:1" fill="#1f1f21" d="M 56.5,0.5 C 56.5,21.8333 56.5,43.1667 56.5,64.5C 54.9519,64.1788 54.2852,63.1788 54.5,61.5C 54.2272,57.1768 53.2272,53.0102 51.5,49C 49.8555,47.968 49.5221,46.8013 50.5,45.5C 49.8333,45.1667 49.1667,44.8333 48.5,44.5C 49.1272,43.5832 49.4606,42.5832 49.5,41.5C 50.8503,42.4831 51.8503,43.8164 52.5,45.5C 53.2875,48.8482 54.1208,52.1815 55,55.5C 55.4998,46.8397 55.6664,38.1731 55.5,29.5C 55.5,26.1667 55.5,22.8333 55.5,19.5C 55.5,13.5 55.5,7.5 55.5,1.5C 55.5,0.833333 55.8333,0.5 56.5,0.5 Z"/></g>
<g><path style="opacity:1" fill="#e7e3e3" d="M 0.5,50.5 C 1.17669,54.5705 2.17669,58.5705 3.5,62.5C 3.5,62.8333 3.5,63.1667 3.5,63.5C 3.5,64.8333 3.5,66.1667 3.5,67.5C 1.12547,62.1983 0.125467,56.5316 0.5,50.5 Z"/></g>
<g><path style="opacity:1" fill="#e94e51" d="M 55.5,65.5 C 56.1511,81.5357 55.4844,97.2023 53.5,112.5C 38.6747,106.338 25.8414,97.3376 15,85.5C 11.1368,80.1583 7.97008,74.4916 5.5,68.5C 5.5,67.5 5.5,66.5 5.5,65.5C 22.1667,65.5 38.8333,65.5 55.5,65.5 Z"/></g>
<g><path style="opacity:1" fill="#efe7d8" d="M 111.5,57.5 C 111.804,58.1499 112.137,58.8165 112.5,59.5C 111.042,63.4152 109.876,67.4152 109,71.5C 107.974,74.2387 106.474,76.572 104.5,78.5C 107.31,71.5668 109.643,64.5668 111.5,57.5 Z"/></g>
<g><path style="opacity:1" fill="#efe7d4" d="M 104.5,78.5 C 104.573,80.0269 103.906,81.0269 102.5,81.5C 102.427,79.9731 103.094,78.9731 104.5,78.5 Z"/></g>
<g><path style="opacity:1" fill="#582921" d="M 55.5,65.5 C 55.8333,65.5 56.1667,65.5 56.5,65.5C 56.1703,81.6754 56.5036,97.6754 57.5,113.5C 57.8333,113.5 58.1667,113.5 58.5,113.5C 57.0813,114.451 55.4147,114.784 53.5,114.5C 53.5,113.833 53.5,113.167 53.5,112.5C 55.4844,97.2023 56.1511,81.5357 55.5,65.5 Z"/></g>
<g><path style="opacity:1" fill="#98802a" d="M 56.5,0.5 C 70.1667,0.5 83.8333,0.5 97.5,0.5C 102.167,0.5 106.833,0.5 111.5,0.5C 111.83,17.3417 111.497,34.0084 110.5,50.5C 110.5,34.1667 110.5,17.8333 110.5,1.5C 92.8333,1.5 75.1667,1.5 57.5,1.5C 57.5,38.8333 57.5,76.1667 57.5,113.5C 56.5036,97.6754 56.1703,81.6754 56.5,65.5C 56.5,65.1667 56.5,64.8333 56.5,64.5C 56.5,43.1667 56.5,21.8333 56.5,0.5 Z"/></g>
<g><path style="opacity:1" fill="#24160f" d="M 100.5,34.5 C 100.833,34.5 101.167,34.5 101.5,34.5C 102.167,35.1667 102.833,35.8333 103.5,36.5C 102.209,36.2627 101.209,36.596 100.5,37.5C 96.6811,37.605 93.0145,38.4383 89.5,40C 88.244,40.4169 87.5774,41.2502 87.5,42.5C 86.8333,42.1667 86.1667,41.8333 85.5,41.5C 83.9493,39.0184 82.616,39.3517 81.5,42.5C 81.5,42.8333 81.5,43.1667 81.5,43.5C 80.8333,42.8333 80.1667,42.1667 79.5,41.5C 79.5,40.8333 79.1667,40.5 78.5,40.5C 78.8333,39.8333 79.1667,39.1667 79.5,38.5C 79.5,38.1667 79.5,37.8333 79.5,37.5C 80.1667,37.5 80.5,37.1667 80.5,36.5C 82.0936,36.9195 83.5936,37.5862 85,38.5C 86.4064,37.5862 87.9064,36.9195 89.5,36.5C 88.537,37.3635 88.537,38.0302 89.5,38.5C 93.4074,37.5338 97.074,36.2005 100.5,34.5 Z"/></g>
<g><path style="opacity:1" fill="#79302c" d="M 85.5,41.5 C 84.2921,42.2341 82.9587,42.5674 81.5,42.5C 82.616,39.3517 83.9493,39.0184 85.5,41.5 Z"/></g>
<g><path style="opacity:1" fill="#42251b" d="M 73.5,31.5 C 74.3149,32.4293 75.1482,33.4293 76,34.5C 76.4828,33.552 76.6495,32.552 76.5,31.5C 77.8322,33.1377 79.1655,34.8044 80.5,36.5C 80.5,37.1667 80.1667,37.5 79.5,37.5C 76.6137,35.1538 73.2803,34.3204 69.5,35C 72.7556,36.4737 76.089,37.6403 79.5,38.5C 79.1667,39.1667 78.8333,39.8333 78.5,40.5C 73.6065,38.7576 68.6065,37.4242 63.5,36.5C 63.5,35.8333 63.5,35.1667 63.5,34.5C 66.1569,34.838 68.4902,34.1713 70.5,32.5C 72.2249,34.0916 73.2249,33.7583 73.5,31.5 Z"/></g>
<g><path style="opacity:1" fill="#923d34" d="M 94.5,31.5 C 94.5,32.5 94.5,33.5 94.5,34.5C 96.6907,33.7093 98.6907,33.7093 100.5,34.5C 97.074,36.2005 93.4074,37.5338 89.5,38.5C 88.537,38.0302 88.537,37.3635 89.5,36.5C 90.2638,33.9823 91.2638,31.649 92.5,29.5C 94.2027,28.3398 94.8693,29.0065 94.5,31.5 Z"/></g>
<g><path style="opacity:1" fill="#d04849" d="M 79.5,37.5 C 79.5,37.8333 79.5,38.1667 79.5,38.5C 76.089,37.6403 72.7556,36.4737 69.5,35C 73.2803,34.3204 76.6137,35.1538 79.5,37.5 Z"/></g>
<g><path style="opacity:1" fill="#5f3a22" d="M 94.5,24.5 C 95.609,24.5569 96.609,24.8902 97.5,25.5C 97.5449,28.0772 96.5449,30.0772 94.5,31.5C 94.8693,29.0065 94.2027,28.3398 92.5,29.5C 92.3653,27.4458 93.032,25.7791 94.5,24.5 Z"/></g>
<g><path style="opacity:1" fill="#a34e3a" d="M 73.5,24.5 C 75.3122,26.4605 76.3122,28.7939 76.5,31.5C 76.6495,32.552 76.4828,33.552 76,34.5C 75.1482,33.4293 74.3149,32.4293 73.5,31.5C 71.9261,29.8984 71.2594,27.8984 71.5,25.5C 71.3668,22.075 72.0335,21.7417 73.5,24.5 Z"/></g>
<g><path style="opacity:1" fill="#b94842" d="M 105.5,22.5 C 103.497,24.9819 100.831,25.9819 97.5,25.5C 96.609,24.8902 95.609,24.5569 94.5,24.5C 93.1667,23.8333 93.1667,23.1667 94.5,22.5C 95.1667,22.5 95.8333,22.5 96.5,22.5C 99.6555,23.9654 102.489,23.2987 105,20.5C 105.464,21.0944 105.631,21.7611 105.5,22.5 Z"/></g>
<g><path style="opacity:1" fill="#573720" d="M 73.5,19.5 C 73.5,21.1667 73.5,22.8333 73.5,24.5C 72.0335,21.7417 71.3668,22.075 71.5,25.5C 70.7326,24.828 70.0659,23.9947 69.5,23C 66.3054,22.8195 63.3054,22.3195 60.5,21.5C 65.0309,21.8501 69.3642,21.1834 73.5,19.5 Z"/></g>
<g><path style="opacity:1" fill="#9c8823" d="M 95.5,20.5 C 96.5,20.5 97.5,20.5 98.5,20.5C 98.8333,20.5 99.1667,20.5 99.5,20.5C 99.6107,21.1174 99.944,21.6174 100.5,22C 99.2068,22.49 97.8734,22.6567 96.5,22.5C 95.8333,22.5 95.1667,22.5 94.5,22.5C 94.8333,21.8333 95.1667,21.1667 95.5,20.5 Z"/></g>
<g><path style="opacity:1" fill="#cdaf27" d="M 101.5,13.5 C 102.5,14.5 103.5,15.5 104.5,16.5C 104.778,18.3464 104.111,19.6798 102.5,20.5C 101.269,19.3493 101.269,18.1827 102.5,17C 102,16.5 101.5,16 101,15.5C 100.15,16.4239 99.15,16.4239 98,15.5C 96.1082,18.3895 95.2749,18.0562 95.5,14.5C 97.5,14.1667 99.5,13.8333 101.5,13.5 Z"/></g>
<g><path style="opacity:1" fill="#6b5c21" d="M 66.5,18.5 C 64.1561,18.9397 62.1561,19.9397 60.5,21.5C 59.596,20.791 59.2627,19.791 59.5,18.5C 61.8333,18.5 64.1667,18.5 66.5,18.5 Z"/></g>
<g><path style="opacity:1" fill="#c24b45" d="M 73.5,19.5 C 69.3642,21.1834 65.0309,21.8501 60.5,21.5C 62.1561,19.9397 64.1561,18.9397 66.5,18.5C 69.9907,17.1627 73.1574,15.1627 76,12.5C 76.4435,15.3391 75.6102,17.6724 73.5,19.5 Z"/></g>
<g><path style="opacity:1" fill="#593122" d="M 97.5,11.5 C 98.8333,12.1667 100.167,12.8333 101.5,13.5C 99.5,13.8333 97.5,14.1667 95.5,14.5C 95.2749,18.0562 96.1082,18.3895 98,15.5C 99.15,16.4239 100.15,16.4239 101,15.5C 101.5,16 102,16.5 102.5,17C 101.269,18.1827 101.269,19.3493 102.5,20.5C 104.111,19.6798 104.778,18.3464 104.5,16.5C 105.268,17.2625 105.768,18.2625 106,19.5C 106.494,17.8659 106.66,16.1992 106.5,14.5C 107.917,17.3404 107.584,20.007 105.5,22.5C 105.631,21.7611 105.464,21.0944 105,20.5C 102.489,23.2987 99.6555,23.9654 96.5,22.5C 97.8734,22.6567 99.2068,22.49 100.5,22C 99.944,21.6174 99.6107,21.1174 99.5,20.5C 100.71,18.8236 100.21,17.4903 98,16.5C 97.4209,17.9285 97.5876,19.2618 98.5,20.5C 97.5,20.5 96.5,20.5 95.5,20.5C 94.2749,19.8478 93.6083,18.6811 93.5,17C 93.1419,13.8665 94.4752,12.0332 97.5,11.5 Z"/></g>
<g><path style="opacity:1" fill="#c44646" d="M 99.5,20.5 C 99.1667,20.5 98.8333,20.5 98.5,20.5C 97.5876,19.2618 97.4209,17.9285 98,16.5C 100.21,17.4903 100.71,18.8236 99.5,20.5 Z"/></g>
<g><path style="opacity:1" fill="#9e403b" d="M 97.5,11.5 C 99.9029,11.448 102.236,11.7814 104.5,12.5C 105.5,12.8333 106.167,13.5 106.5,14.5C 106.66,16.1992 106.494,17.8659 106,19.5C 105.768,18.2625 105.268,17.2625 104.5,16.5C 103.5,15.5 102.5,14.5 101.5,13.5C 100.167,12.8333 98.8333,12.1667 97.5,11.5 Z"/></g>
<g><path style="opacity:1" fill="#6d532a" d="M 97.5,11.5 C 98.2739,10.8529 99.2739,10.5195 100.5,10.5C 102.355,10.3402 103.688,11.0069 104.5,12.5C 102.236,11.7814 99.9029,11.448 97.5,11.5 Z"/></g>
<g><path style="opacity:1" fill="#bbaf9b" d="M 101.5,83.5 C 100.92,85.7488 99.5869,87.4154 97.5,88.5C 97.5,87.8333 97.5,87.1667 97.5,86.5C 97.5,85.8333 97.8333,85.5 98.5,85.5C 99.5,84.8333 100.5,84.1667 101.5,83.5 Z"/></g>
<g><path style="opacity:1" fill="#493c26" d="M 97.5,86.5 C 97.5,87.1667 97.5,87.8333 97.5,88.5C 94.8333,90.5 92.5,92.8333 90.5,95.5C 89.8333,95.5 89.1667,95.5 88.5,95.5C 91.1667,92.1667 94.1667,89.1667 97.5,86.5 Z"/></g>
<g><path style="opacity:1" fill="#f6efe1" d="M 97.5,88.5 C 96.1667,91.8333 93.8333,94.1667 90.5,95.5C 92.5,92.8333 94.8333,90.5 97.5,88.5 Z"/></g>
<g><path style="opacity:1" fill="#4c412b" d="M 87.5,96.5 C 86.8333,97.5 86.1667,98.5 85.5,99.5C 84.8333,99.5 84.1667,99.5 83.5,99.5C 84.2623,97.7376 85.5956,96.7376 87.5,96.5 Z"/></g>
<g><path style="opacity:1" fill="#dad1c1" d="M 88.5,95.5 C 89.1667,95.5 89.8333,95.5 90.5,95.5C 89.4154,97.5869 87.7488,98.9202 85.5,99.5C 86.1667,98.5 86.8333,97.5 87.5,96.5C 87.5,95.8333 87.8333,95.5 88.5,95.5 Z"/></g>
<g><path style="opacity:1" fill="#92786e" d="M 3.5,67.5 C 4.16667,67.8333 4.83333,68.1667 5.5,68.5C 7.97008,74.4916 11.1368,80.1583 15,85.5C 25.8414,97.3376 38.6747,106.338 53.5,112.5C 53.5,113.167 53.5,113.833 53.5,114.5C 35.7325,108.227 21.2325,97.56 10,82.5C 7.2707,77.7117 5.10403,72.7117 3.5,67.5 Z"/></g>
<g><path style="opacity:1" fill="#a09174" d="M 83.5,99.5 C 84.1667,99.5 84.8333,99.5 85.5,99.5C 83.3533,101.47 81.02,103.303 78.5,105C 72.1045,108.528 65.7712,112.028 59.5,115.5C 57.5,115.5 55.5,115.5 53.5,115.5C 53.5,115.167 53.5,114.833 53.5,114.5C 55.4147,114.784 57.0813,114.451 58.5,113.5C 66.9871,109.09 75.3204,104.424 83.5,99.5 Z"/></g>
</svg>
