<svg xmlns="http://www.w3.org/2000/svg" width="254" height="293" style="shape-rendering:geometricPrecision;text-rendering:geometricPrecision;image-rendering:optimizeQuality;fill-rule:evenodd;clip-rule:evenodd"><path style="opacity:1" fill="#fdfdfd" d="M-.5-.5h254v293H-.5V-.5z"/><path style="opacity:1" fill="#b5b4b6" d="M191.5 7.5h-181v25c-.993-8.484-1.326-17.15-1-26a8281.6 8281.6 0 0 1 182 1z"/><path style="opacity:1" fill="#020202" d="M191.5 7.5a756.842 756.842 0 0 0 55 1v23a507.055 507.055 0 0 1-1 45 2027.29 2027.29 0 0 0-2 91 594.609 594.609 0 0 0 0 27.5 1475.729 1475.729 0 0 1-4.5 21.5 664.208 664.208 0 0 0-14 25c-3.074 1.571-5.24 3.904-6.5 7a60.212 60.212 0 0 0-9.5-11c-.513-2.527-1.68-4.693-3.5-6.5a3.943 3.943 0 0 1 1-2l13-1a3.647 3.647 0 0 0 1-1.5 409.403 409.403 0 0 1-16-21 21.127 21.127 0 0 1 9-1 20.093 20.093 0 0 0-1.5-6c-6.12-5.792-11.12-12.459-15-20a1130.825 1130.825 0 0 1-11.5 26 18.453 18.453 0 0 1 6 .5 218.285 218.285 0 0 1-11 21.5 52.141 52.141 0 0 0 10 1.5c.457.414.791.914 1 1.5a267.41 267.41 0 0 1-11 15 93.504 93.504 0 0 1-21.5 17c-3.644-3.152-6.811-6.819-9.5-11-1.488-1.771-3.321-3.104-5.5-4a24.278 24.278 0 0 0-2.5-6 64.873 64.873 0 0 0 16-1c-.124-.607-.457-.94-1-1a252.895 252.895 0 0 1-13-17 31.147 31.147 0 0 0-2-2l11-2a44.367 44.367 0 0 1-8-10c-2.671-5.002-5.337-10.002-8-15a31.116 31.116 0 0 1 11-1 8.43 8.43 0 0 0-.5-4 298.929 298.929 0 0 0-13.5-20 47.848 47.848 0 0 0-4.5-8l-2 2a576.662 576.662 0 0 1-16.5 30c-.543.06-.876.393-1 1 2.534 1.277 5.034 1.277 7.5 0 .483.948.649 1.948.5 3a3303.896 3303.896 0 0 1-13 19c-.543.06-.876.393-1 1a43.117 43.117 0 0 0 13 1 145.522 145.522 0 0 1-6 15c-2.466 2.24-4.466 4.907-6 8a31.116 31.116 0 0 0 11 1c-2.222 8.515-6.055 16.182-11.5 23a829.272 829.272 0 0 0-24.5-24c-.48-2.955-1.98-5.289-4.5-7a18.437 18.437 0 0 1-.5-6c9.336.548 10.836-2.119 4.5-8-2.271-3.778-3.605-7.778-4-12 1.626.354 3.459.354 5.5 0 .237-1.291-.096-2.291-1-3a271.025 271.025 0 0 0-14-20c-2.84 3.05-4.674 6.717-5.5 11a102.223 102.223 0 0 1-8 11 4.932 4.932 0 0 0-.5 3c-.543.06-.876.393-1 1 2.295.636 3.961 1.969 5 4a164.122 164.122 0 0 0-8 15h19a1352.941 1352.941 0 0 1-9 14 112.721 112.721 0 0 1-9 11c-.838.342-1.172 1.008-1 2a9.173 9.173 0 0 1-4.5-2 223.449 223.449 0 0 0-15-20 127.107 127.107 0 0 0-8-16 183.628 183.628 0 0 1-4-20 8305.367 8305.367 0 0 1-5.5-165v-25h181z"/><path style="opacity:1" fill="#4b4749" d="M191.5 7.5h56c.326 8.184-.008 16.184-1 24v-23a756.842 756.842 0 0 1-55-1z"/><path style="opacity:1" fill="#453f1b" d="M123.5 21.5c.709-.904 1.709-1.237 3-1 .38 2.198-.287 3.865-2 5a5.575 5.575 0 0 1 1-3c-.457-.797-1.124-1.13-2-1z"/><path style="opacity:1" fill="#837c47" d="M177.5 28.5v-3c-2.779-.221-5.446.112-8 1 .944-4.145 2.944-4.812 6-2l4-2c1 .333 1.667 1 2 2a124.751 124.751 0 0 1-4 4z"/><path style="opacity:1" fill="#8b853c" d="M177.5 28.5c-20.749 19.273-44.749 32.94-72 41v-3l10-2.5A490.831 490.831 0 0 1 132 50.5c1.258 2.555 3.091 3.222 5.5 2 4.707-2.376 8.041-6.042 10-11a7.292 7.292 0 0 1 3-2c-.14 1.755.36 3.422 1.5 5 6.735-5.234 12.569-11.234 17.5-18 2.554-.888 5.221-1.221 8-1v3z"/><path style="opacity:1" fill="#8d873c" d="M123.5 21.5c.876-.13 1.543.203 2 1a5.575 5.575 0 0 0-1 3 109.4 109.4 0 0 0-4.5 14A116.512 116.512 0 0 1 109.5 53l-9 5.5c-1.423 2.714-1.757 5.381-1 8-.617-.11-1.117-.444-1.5-1 1.138-6.184-1.362-9.35-7.5-9.5l3-1c-3.22-.797-6.22-.297-9 1.5a70.679 70.679 0 0 1 4 2 29.77 29.77 0 0 0-7 2v3c-1.266-.59-2.6-1.09-4-1.5l2-1c-1.333-.667-1.333-1.333 0-2a8.434 8.434 0 0 0-4-.5 3421.49 3421.49 0 0 1 12-7c1.125-2.96 2.125-5.96 3-9 5.11 3.208 7.943 7.875 8.5 14 3.692-4.047 6.359-8.714 8-14 1.458-1.247 2.958-1.247 4.5 0 1.972-.805 3.472-2.139 4.5-4 .291-4.788.458-9.454.5-14 3.273 1.425 5.607.425 7-3z"/><path style="opacity:1" fill="#807c40" d="M64.5 63.5a11.64 11.64 0 0 0 2 5c3.294-2.513 4.96-1.513 5 3h3a86.868 86.868 0 0 1-10 4c-6.028-1.008-7.361-4.008-4-9a493.061 493.061 0 0 1 4-3z"/><path style="opacity:1" fill="#100801" d="M61.5 69.5c1.983-.117 3.65.55 5 2l3-2 1 1c-2.79 2.79-5.957 3.458-9.5 2-.47-1.077-.303-2.077.5-3z"/><path style="opacity:1" fill="#938b36" d="M99.5 66.5c1.889 1.242 3.889 1.242 6 0v3a27.587 27.587 0 0 1-5 1.5A727.778 727.778 0 0 1 111 93.5a69.162 69.162 0 0 0 4.5 6.5 65.557 65.557 0 0 0 18 8c15.21.196 30.376-.637 45.5-2.5l8.5 1a6.547 6.547 0 0 1-3 3c-1.131 1.574-1.298 3.241-.5 5 3.736 3.271 6.403 7.271 8 12 .671.752 1.504 1.086 2.5 1v4a64.59 64.59 0 0 1 13 4.5 25.238 25.238 0 0 1-10 0c-3.488-2.786-7.155-3.119-11-1 5.311 2.104 4.978 2.771-1 2a25.513 25.513 0 0 1-4-4.5c8.926-3.029 8.926-4.195 0-3.5-1.473.71-2.14 1.876-2 3.5h-3v-3c-2.687-.836-5.02-2.336-7-4.5-1.249-.74-2.249-.573-3 .5a18.453 18.453 0 0 0-6 .5c-8.755 5.754-18.422 9.254-29 10.5-8.695.173-17.362-.16-26-1h-1c-4.262-1.628-8.929-2.628-14-3a43.9 43.9 0 0 1-5.5-3c-6.443 1.929-12.943 2.596-19.5 2a18.982 18.982 0 0 1 7-2.5l14-1a12.93 12.93 0 0 0-5-.5c-.219-1.175.114-2.175 1-3 1.972-.805 3.472-2.139 4.5-4l1 1c1.803-1.635 2.97-3.635 3.5-6-1.529-4.507-2.195-9.174-2-14 .69-7.999.858-15.999.5-24-.697-3.192-2.53-5.192-5.5-6h-13c-.04-4.513-1.706-5.513-5-3a11.64 11.64 0 0 1-2-5c2.986-2.99 6.653-4.657 11-5a8.434 8.434 0 0 1 4 .5c-1.333.667-1.333 1.333 0 2l-2 1c1.4.41 2.734.91 4 1.5 2.83-.194 5.496-.86 8-2 .237-1.291-.096-2.291-1-3a70.679 70.679 0 0 0-4-2c2.78-1.797 5.78-2.297 9-1.5l-3 1c6.138.15 8.638 3.316 7.5 9.5.383.556.883.89 1.5 1z"/><path style="opacity:1" fill="#1f170f" d="M88.5 58.5c.904.709 1.237 1.709 1 3-2.504 1.14-5.17 1.806-8 2v-3a29.77 29.77 0 0 1 7-2z"/><path style="opacity:1" fill="#8a843c" d="M194.5 127.5c.816 1.644 2.15 2.81 4 3.5a64.6 64.6 0 0 0 17.5 4.5 24.304 24.304 0 0 0 7.5 5c4.28.515 8.28 1.848 12 4 1.09.891 1.09 1.891 0 3-2.606 1.152-5.273 1.318-8 .5a36.167 36.167 0 0 1-12-8c-5.851-2.118-11.851-2.785-18-2 10.388 2.042 18.721 7.376 25 16a260.574 260.574 0 0 0 13 3.5v5c-8.782.362-15.448-3.138-20-10.5a79.325 79.325 0 0 1-12-9c-4.013.334-6.679-1.333-8-5-3.102 1.256-6.435 1.589-10 1a6.547 6.547 0 0 1-3-3 18.986 18.986 0 0 1-7-2.5 51.986 51.986 0 0 1-9-8c.751-1.073 1.751-1.24 3-.5 1.98 2.164 4.313 3.664 7 4.5v3h3c-.14-1.624.527-2.79 2-3.5 8.926-.695 8.926.471 0 3.5a25.513 25.513 0 0 0 4 4.5c5.978.771 6.311.104 1-2 3.845-2.119 7.512-1.786 11 1 3.333.667 6.667.667 10 0a64.59 64.59 0 0 0-13-4.5v-4z"/><path style="opacity:1" fill="#8b843a" d="M84.5 71.5c2.97.808 4.803 2.808 5.5 6 .358 8.001.19 16.001-.5 24-.195 4.826.471 9.493 2 14-.53 2.365-1.697 4.365-3.5 6l-1-1c-1.028 1.861-2.528 3.195-4.5 4-.886.825-1.219 1.825-1 3 1.7-.16 3.366.006 5 .5l-14 1a18.982 18.982 0 0 0-7 2.5c6.557.596 13.057-.071 19.5-2a43.9 43.9 0 0 0 5.5 3c5.071.372 9.738 1.372 14 3a50.888 50.888 0 0 1-7-1 361.273 361.273 0 0 1-35 5.5 132.52 132.52 0 0 0-17 16.5 99.478 99.478 0 0 1-3 10.5 88.939 88.939 0 0 1-11-.5v-3a8.43 8.43 0 0 0 4-.5c2.794-1.535 4.794-3.702 6-6.5 4.194-6.54 9.194-12.54 15-18-.502-1.021-1.168-1.188-2-.5-5.816 4.829-10.816 10.329-15 16.5-1.468 1.279-2.135 2.946-2 5a49.367 49.367 0 0 1-11 1c9.268-10.595 19.602-20.262 31-29a81.7 81.7 0 0 1 19-5c3.261-3.641 7.261-6.307 12-8-1.33-11.034-1.33-22.201 0-33.5l-.5-5.5a50.65 50.65 0 0 1-3.5-8z"/><path style="opacity:1" fill="#6f673d" d="M105.5 135.5c8.638.84 17.305 1.173 26 1-3.484.665-7.151.999-11 1-5.267.213-10.267-.454-15-2z"/><path style="opacity:1" fill="#5e5d5e" d="M245.5 76.5a2027.29 2027.29 0 0 1-2 91 2027.29 2027.29 0 0 1 2-91z"/><path style="opacity:1" fill="#1f1809" d="M41.5 156.5c-.333-1-1-1.667-2-2 4.184-6.171 9.184-11.671 15-16.5.832-.688 1.498-.521 2 .5-5.806 5.46-10.806 11.46-15 18z"/><path style="opacity:1" fill="#293e20" d="M110.5 191.5c2.505.997 5.172.997 8 0 .268 1.599-.066 2.932-1 4a4.934 4.934 0 0 0-.5-3c-2.466 1.277-4.966 1.277-7.5 0 .124-.607.457-.94 1-1z"/><path style="opacity:1" fill="#4f8241" d="M79.5 203.5c-1.418 1.808-3.418 2.475-6 2a74.08 74.08 0 0 0 1.5 12 31.653 31.653 0 0 1 6.5 6.5l-8 1a9.465 9.465 0 0 0-1.5 2.5c-1.425-.712-2.925-.879-4.5-.5 1.211-.893 1.211-1.726 0-2.5-5.526 2.416-11.193 2.582-17 .5a141.537 141.537 0 0 0 9-14.5 346.069 346.069 0 0 1-8-2 4.932 4.932 0 0 1 .5-3 102.223 102.223 0 0 0 8-11c.826-4.283 2.66-7.95 5.5-11a271.025 271.025 0 0 1 14 20z"/><path style="opacity:1" fill="#528445" d="M218.5 248.5a506.238 506.238 0 0 0-15 13.5 101.902 101.902 0 0 1-11 6.5c-2.64.948-5.307 1.948-8 3-.219-1.175.114-2.175 1-3 8.144-.652 13.478-4.818 16-12.5-2.528-1.017-2.528-2.184 0-3.5-2.102.021-4.268-.313-6.5-1l-.5-1.5a604.676 604.676 0 0 0 3-3.5l-3-2.5a25.513 25.513 0 0 0 4-4.5c.886.825 1.219 1.825 1 3a13.116 13.116 0 0 0 7-1 14.694 14.694 0 0 1-6-1.5c4.285-.117 6.285-2.283 6-6.5a20.093 20.093 0 0 1-6-1.5c.928-.388 1.595-1.055 2-2-1.195-1.533-1.195-3.033 0-4.5-2.68-2.943-3.347-2.61-2 1-1.35 1.45-3.016 2.117-5 2v3h-4a76.406 76.406 0 0 0-5 8c-.952 1.545-1.285 3.212-1 5 2.75.118 4.75 1.451 6 4-1.333 1.333-1.333 2.667 0 4-2.491 1.041-2.491 1.874 0 2.5-2 .667-4 .667-6 0a87.783 87.783 0 0 1 3-5c-2.246-1.257-3.579-3.09-4-5.5h-4a267.41 267.41 0 0 0 11-15 3.647 3.647 0 0 0-1-1.5 52.141 52.141 0 0 1-10-1.5 218.285 218.285 0 0 0 11-21.5 18.453 18.453 0 0 0-6-.5 1130.825 1130.825 0 0 0 11.5-26c3.88 7.541 8.88 14.208 15 20a20.093 20.093 0 0 1 1.5 6 21.127 21.127 0 0 0-9 1 409.403 409.403 0 0 0 16 21 3.647 3.647 0 0 1-1 1.5l-13 1a3.943 3.943 0 0 0-1 2c1.82 1.807 2.987 3.973 3.5 6.5a60.212 60.212 0 0 1 9.5 11z"/><path style="opacity:1" fill="#508043" d="M133.5 167.5a298.929 298.929 0 0 1 13.5 20 8.43 8.43 0 0 1 .5 4 31.116 31.116 0 0 0-11 1c2.663 4.998 5.329 9.998 8 15a44.367 44.367 0 0 0 8 10l-11 2a31.147 31.147 0 0 1 2 2h-5v-4c-7.386.258-9.386-2.742-6-9-1.779-1.693-2.279-3.693-1.5-6l1 1c1.825-.603 3.659-1.27 5.5-2a309.501 309.501 0 0 1-5-10c-1.478.262-2.811-.071-4-1l.5-1c1.32-.299 2.82-.466 4.5-.5l2-2-9-3a8.43 8.43 0 0 1 4-.5v-5c3.41-.116 4.744 1.55 4 5h5c-1.086-5.713-3.086-11.046-6-16z"/><path style="opacity:1" fill="#3e433a" d="m104.5 214.5 12 2a43.117 43.117 0 0 1-13-1c.124-.607.457-.94 1-1z"/><path style="opacity:1" fill="#517d46" d="M79.5 203.5c.904.709 1.237 1.709 1 3-2.041.354-3.874.354-5.5 0 .395 4.222 1.729 8.222 4 12 6.336 5.881 4.836 8.548-4.5 8a18.437 18.437 0 0 0 .5 6c2.52 1.711 4.02 4.045 4.5 7-4.022-1.19-6.522-3.857-7.5-8-.92.43-1.753.764-2.5 1 .6 2.225.934 4.391 1 6.5l-2 .5a13.055 13.055 0 0 1-4-3c-1.024 1.353-2.357 2.02-4 2 .412 2.473-.588 3.806-3 4 3.071-4.714 6.071-9.381 9-14h-19a164.122 164.122 0 0 1 8-15c-1.039-2.031-2.705-3.364-5-4 .124-.607.457-.94 1-1 2.528.666 5.194 1.332 8 2a141.537 141.537 0 0 1-9 14.5c5.807 2.082 11.474 1.916 17-.5 1.211.774 1.211 1.607 0 2.5 1.575-.379 3.075-.212 4.5.5a9.465 9.465 0 0 1 1.5-2.5l8-1a31.653 31.653 0 0 0-6.5-6.5 74.08 74.08 0 0 1-1.5-12c2.582.475 4.582-.192 6-2z"/><path style="opacity:1" fill="#508543" d="M133.5 167.5c2.914 4.954 4.914 10.287 6 16h-5c.744-3.45-.59-5.116-4-5v5a8.43 8.43 0 0 0-4 .5l9 3-2 2c-1.68.034-3.18.201-4.5.5l-.5 1c1.189.929 2.522 1.262 4 1a309.501 309.501 0 0 0 5 10c-1.841.73-3.675 1.397-5.5 2l-1-1c-.779 2.307-.279 4.307 1.5 6-3.386 6.258-1.386 9.258 6 9v4h5a252.895 252.895 0 0 0 13 17l-15 2a24.278 24.278 0 0 1 2.5 6c2.179.896 4.012 2.229 5.5 4 2.689 4.181 5.856 7.848 9.5 11a93.504 93.504 0 0 0 21.5-17h4c.421 2.41 1.754 4.243 4 5.5a87.783 87.783 0 0 0-3 5c2 .667 4 .667 6 0-2.491-.626-2.491-1.459 0-2.5-1.333-1.333-1.333-2.667 0-4-1.25-2.549-3.25-3.882-6-4-.285-1.788.048-3.455 1-5a76.406 76.406 0 0 1 5-8h4v-3c1.984.117 3.65-.55 5-2-1.347-3.61-.68-3.943 2-1-1.195 1.467-1.195 2.967 0 4.5-.405.945-1.072 1.612-2 2a20.093 20.093 0 0 0 6 1.5c.285 4.217-1.715 6.383-6 6.5a14.694 14.694 0 0 0 6 1.5 13.116 13.116 0 0 1-7 1c.219-1.175-.114-2.175-1-3a25.513 25.513 0 0 1-4 4.5l3 2.5a604.676 604.676 0 0 1-3 3.5l.5 1.5c2.232.687 4.398 1.021 6.5 1-2.528 1.316-2.528 2.483 0 3.5-2.522 7.682-7.856 11.848-16 12.5-.886.825-1.219 1.825-1 3-3.295 2.314-6.962 4.148-11 5.5-.752.671-1.086 1.504-1 2.5h-1c-.06-.543-.393-.876-1-1-24.726 8.169-49.726 9.169-75 3-3.13-.2-6.13-.866-9-2-.413-2.915-2.08-4.748-5-5.5 1.45-1.117 3.116-1.784 5-2-2.853-.664-5.52-.164-8 1.5a90.946 90.946 0 0 1-9.5-6c-1.46.308-2.626.975-3.5 2-.667 0-1-.333-1-1 .086-.996-.248-1.829-1-2.5-6.089-2.927-11.089-7.094-15-12.5a112.721 112.721 0 0 0 9-11c2.412-.194 3.412-1.527 3-4 1.643.02 2.976-.647 4-2a13.055 13.055 0 0 0 4 3l2-.5c-.066-2.109-.4-4.275-1-6.5.747-.236 1.58-.57 2.5-1 .978 4.143 3.478 6.81 7.5 8a829.272 829.272 0 0 1 24.5 24c5.445-6.818 9.278-14.485 11.5-23a345.94 345.94 0 0 0-8-2 43.859 43.859 0 0 1 3-7 145.522 145.522 0 0 0 6-15l-12-2a3303.896 3303.896 0 0 0 13-19c.934-1.068 1.268-2.401 1-4-2.828.997-5.495.997-8 0a576.662 576.662 0 0 0 16.5-30l2-2a47.848 47.848 0 0 1 4.5 8z"/><path style="opacity:1" fill="#525a4d" d="M156.5 238.5c.543.06.876.393 1 1a64.873 64.873 0 0 1-16 1l15-2z"/><path style="opacity:1" fill="#4a6441" d="M110.5 231.5a43.859 43.859 0 0 0-3 7 345.94 345.94 0 0 1 8 2 31.116 31.116 0 0 1-11-1c1.534-3.093 3.534-5.76 6-8z"/><path style="opacity:1" fill="#2a392a" d="M48.5 253.5c3.911 5.406 8.911 9.573 15 12.5.752.671 1.086 1.504 1 2.5-6.644-3.144-12.311-7.478-17-13-.172-.992.162-1.658 1-2z"/><path style="opacity:1" fill="#507c4a" d="M86.5 279.5c-7.542-2.294-14.542-5.627-21-10 .874-1.025 2.04-1.692 3.5-2a90.946 90.946 0 0 0 9.5 6c2.48-1.664 5.147-2.164 8-1.5-1.884.216-3.55.883-5 2 2.92.752 4.587 2.585 5 5.5z"/><path style="opacity:1" fill="#273629" d="M192.5 268.5c-1.901 2.296-4.234 4.129-7 5.5a103.262 103.262 0 0 0-13 5.5c-.086-.996.248-1.829 1-2.5 4.038-1.352 7.705-3.186 11-5.5a308.918 308.918 0 0 1 8-3z"/><path style="opacity:1" fill="#2b3a32" d="M171.5 279.5c-24.137 9.066-48.803 10.4-74 4-1.213-.247-1.88-.914-2-2 25.274 6.169 50.274 5.169 75-3 .607.124.94.457 1 1z"/></svg>