<svg xmlns="http://www.w3.org/2000/svg" width="250" height="295" style="shape-rendering:geometricPrecision;text-rendering:geometricPrecision;image-rendering:optimizeQuality;fill-rule:evenodd;clip-rule:evenodd"><path style="opacity:1" fill="#fdfdfd" d="M-.5-.5h250v295H-.5V-.5z"/><path style="opacity:1" fill="#284a92" d="M64.5 10.5h173a342.787 342.787 0 0 1-1 37c.249-12.03-.084-24.03-1-36a454.38 454.38 0 0 0-36 1c-45.162-.625-90.162-1.291-135-2z"/><path style="opacity:1" fill="#0e1740" d="M11.5 10.5c-.65 14.706.017 29.039 2 43-.342.838-1.008 1.172-2 1a242.506 242.506 0 0 1 0-44z"/><path style="opacity:1" fill="#27479e" d="M11.5 10.5h53c44.838.709 89.838 1.375 135 2a454.38 454.38 0 0 1 36-1 370.922 370.922 0 0 1 1 36h-4c-.992.172-1.658-.162-2-1-1.56-2.27-3.56-2.937-6-2-3.199-2.557-6.866-3.557-11-3h-1c-2.461-1.031-5.127-1.698-8-2-2.64-.921-5.473-1.588-8.5-2-1.876.025-3.376.691-4.5 2l-25 4.5c-1.991.374-3.658 1.207-5 2.5-2.217.869-4.55 1.202-7 1-2.235-.295-4.235.039-6 1a92.201 92.201 0 0 0-13.5 1 80.923 80.923 0 0 0-16.5-2h-3c-7.491-3.5-15.491-4.834-24-4a100.131 100.131 0 0 0-8-2c-2.1-1.112-4.433-1.779-7-2-.11-3.016-1.11-3.849-3-2.5-6.206.382-12.206 1.215-18 2.5a131.35 131.35 0 0 1-13 3v1a37.098 37.098 0 0 0-12 1.5c-1.62.236-2.62 1.069-3 2.5h-1a36.476 36.476 0 0 0-11 3.5c-.88.708-1.547 1.542-2 2.5-1.983-13.961-2.65-28.294-2-43z"/><path style="opacity:1" fill="#182040" d="M11.5 10.5c75.832-1 151.832-1.333 228-1v6a570.638 570.638 0 0 0-1.5 34c-.995-.566-1.828-1.233-2.5-2h1a342.787 342.787 0 0 0 1-37h-226z"/><path style="opacity:1" fill="#222c68" d="M76.5 39.5h-21c5.794-1.285 11.794-2.118 18-2.5 1.89-1.349 2.89-.516 3 2.5z"/><path style="opacity:1" fill="#121952" d="M204.5 39.5h-13c1.124-1.309 2.624-1.975 4.5-2 3.027.412 5.86 1.079 8.5 2z"/><path style="opacity:1" fill="#14131e" d="M198.5 39.5h6c2.873.302 5.539.969 8 2-4.891-.032-9.557-.699-14-2z"/><path style="opacity:1" fill="#151524" d="M55.5 39.5h8c-6.745 1.875-13.745 2.875-21 3a131.35 131.35 0 0 0 13-3z"/><path style="opacity:1" fill="#080a21" d="M239.5 15.5v79h-1v-23c.166-6.675 0-13.342-.5-20-2.205-.912-4.038-2.245-5.5-4h3c.672.767 1.505 1.434 2.5 2 .169-11.507.669-22.84 1.5-34z"/><path style="opacity:1" fill="#1e2043" d="M213.5 41.5c4.134-.557 7.801.443 11 3 2.44-.937 4.44-.27 6 2-6.066-.899-11.733-2.565-17-5z"/><path style="opacity:1" fill="#1e233e" d="M42.5 43.5c-4.776 1.779-9.776 3.112-15 4 .38-1.431 1.38-2.264 3-2.5a37.098 37.098 0 0 1 12-1.5z"/><path style="opacity:1" fill="#1a1f37" d="M26.5 47.5c-3.874 2.767-8.207 4.767-13 6 .453-.958 1.12-1.792 2-2.5a36.476 36.476 0 0 1 11-3.5z"/><path style="opacity:1" fill="#bfbdc5" d="M63.5 39.5h6c4.443 1.301 9.11 1.968 14 2 2.78.578 5.447 1.245 8 2a561.828 561.828 0 0 0 24 4h3c5.293 2.07 10.96 3.404 17 4 4.536-.271 8.869-.938 13-2 2.582.475 4.582-.192 6-2 2.45.202 4.783-.131 7-1 11.085-1.063 21.752-3.396 32-7h5c4.443 1.301 9.109 1.968 14 2h1c5.267 2.435 10.934 4.101 17 5 .342.838 1.008 1.172 2 1 1.462 1.755 3.295 3.088 5.5 4 .5 6.658.666 13.325.5 20-10.592-4.064-21.592-6.73-33-8-1.089-1.617-2.756-2.45-5-2.5a25.249 25.249 0 0 0-10 0 304.124 304.124 0 0 1-29.5 5.5c-1.376.184-2.209.85-2.5 2a448.183 448.183 0 0 1-29.5 4 66.469 66.469 0 0 1-17.5-2h-2c-7.523-3.214-15.523-5.214-24-6-5.817-3.142-12.15-4.475-19-4a92.328 92.328 0 0 0-11.5 1c-1.376.184-2.209.85-2.5 2l-9 1.5a119.961 119.961 0 0 1-26 9 81.718 81.718 0 0 0-3 2.5h-1c-.992.172-1.658-.162-2-1v-21c.992.172 1.658-.162 2-1 4.793-1.233 9.126-3.233 13-6h1c5.224-.888 10.224-2.221 15-4v-1c7.255-.125 14.255-1.125 21-3z"/><path style="opacity:1" fill="#1f213f" d="M118.5 47.5c5.568.1 11.068.767 16.5 2a92.201 92.201 0 0 1 13.5-1v1c-4.131 1.062-8.464 1.729-13 2-6.04-.596-11.707-1.93-17-4z"/><path style="opacity:1" fill="#454348" d="M154.5 47.5c-1.418 1.808-3.418 2.475-6 2v-1c1.765-.961 3.765-1.295 6-1z"/><path style="opacity:1" fill="#181a33" d="M91.5 43.5c8.509-.834 16.509.5 24 4a561.828 561.828 0 0 1-24-4z"/><path style="opacity:1" fill="#29293b" d="M191.5 39.5h2c-10.248 3.604-20.915 5.937-32 7 1.342-1.293 3.009-2.126 5-2.5l25-4.5z"/><path style="opacity:1" fill="#1d1d2d" d="M69.5 39.5h7c2.567.221 4.9.888 7 2-4.89-.032-9.557-.699-14-2z"/><path style="opacity:1" fill="#292942" d="M85.5 64.5a100.927 100.927 0 0 0-33-1c.291-1.15 1.124-1.816 2.5-2a92.328 92.328 0 0 1 11.5-1c6.85-.475 13.183.858 19 4z"/><path style="opacity:1" fill="#191a2d" d="M205.5 63.5a56.685 56.685 0 0 0-15-.5 921.85 921.85 0 0 0-32 5.5c.291-1.15 1.124-1.816 2.5-2a304.124 304.124 0 0 0 29.5-5.5 25.249 25.249 0 0 1 10 0c2.244.05 3.911.883 5 2.5z"/><path style="opacity:1" fill="#26469a" d="M85.5 64.5c.291 1.15 1.124 1.816 2.5 2a195.902 195.902 0 0 0 21.5 4h2c1.769 1.897 4.102 3.064 7 3.5a92.541 92.541 0 0 0 22.5-.5 334.506 334.506 0 0 1 17.5-5 921.85 921.85 0 0 1 32-5.5 56.685 56.685 0 0 1 15 .5c.111.617.444 1.117 1 1.5a245.25 245.25 0 0 1 27 6.5c2.378 5.371 3.378 11.038 3 17-63.001-.167-126.001 0-189 .5 62.669.167 125.336.667 188 1.5-73.331.833-146.664 1.333-220 1.5 74.34.215 148.673.715 223 1.5v1h-227c-.553-6.292.114-12.292 2-18h1a1637.29 1637.29 0 0 0 31-9.5 53.467 53.467 0 0 0 7-3.5 100.927 100.927 0 0 1 33 1z"/><path style="opacity:1" fill="#6a6164" d="M239.5 9.5c-76.168-.333-152.168 0-228 1a242.506 242.506 0 0 0 0 44v21c-.995 11.822-1.328 23.822-1 36a2652.836 2652.836 0 0 1-1-103c76.835-.333 153.502 0 230 1z"/><path style="opacity:1" fill="#181831" d="M85.5 64.5c8.477.786 16.477 2.786 24 6a195.902 195.902 0 0 1-21.5-4c-1.376-.184-2.209-.85-2.5-2z"/><path style="opacity:1" fill="#1e2440" d="M205.5 63.5c11.408 1.27 22.408 3.936 33 8v2a13.216 13.216 0 0 1-5-2 245.25 245.25 0 0 0-27-6.5c-.556-.383-.889-.883-1-1.5z"/><path style="opacity:1" fill="#121635" d="M52.5 63.5a53.467 53.467 0 0 1-7 3.5 1637.29 1637.29 0 0 1-31 9.5c.93-.815 1.93-1.648 3-2.5a119.961 119.961 0 0 0 26-9l9-1.5z"/><path style="opacity:1" fill="#211e37" d="M158.5 68.5a334.506 334.506 0 0 0-17.5 5 92.541 92.541 0 0 1-22.5.5c-2.898-.436-5.231-1.603-7-3.5a66.469 66.469 0 0 0 17.5 2 448.183 448.183 0 0 0 29.5-4z"/><path style="opacity:1" fill="#264a8f" d="M233.5 71.5a13.216 13.216 0 0 0 5 2v20c-74.327-.785-148.66-1.285-223-1.5 73.336-.167 146.669-.667 220-1.5a17674.522 17674.522 0 0 0-188-1.5c62.999-.5 125.999-.667 189-.5.378-5.962-.622-11.629-3-17z"/><path style="opacity:1" fill="#050405" d="M11.5 75.5c.342.838 1.008 1.172 2 1-1.886 5.708-2.553 11.708-2 18h228c.326 8.849-.007 17.516-1 26v-25c-75.835-.333-151.502 0-227 1-.225 7.889.442 15.556 2 23v6c-1.29-4.613-2.29-9.28-3-14-.328-12.178.005-24.178 1-36z"/><path style="opacity:1" fill="#938636" d="M11.5 96.5c75.498-1 151.165-1.333 227-1v25a474.641 474.641 0 0 1-3 15 417.618 417.618 0 0 0 2-39h-226z"/><path style="opacity:1" fill="#b1a530" d="M11.5 96.5h226a417.618 417.618 0 0 1-2 39 459.64 459.64 0 0 0-4 30c-1.424 2.015-2.09 4.348-2 7-2.321 1.59-3.321 3.923-3 7-1.972 2.584-2.972 5.584-3 9v1c-2.875 1.749-4.208 4.415-4 8v1c-3.002 2.661-5.002 5.995-6 10-2.169 1.84-3.502 4.174-4 7-1.574.437-2.741 1.437-3.5 3a111.488 111.488 0 0 1-7.5 12c-.825.886-1.825 1.219-3 1a190.883 190.883 0 0 0-2-11c-.247-1.213-.914-1.88-2-2v-1a480.247 480.247 0 0 0-4-23.5c-.184-1.376-.851-2.209-2-2.5-.049-3.578-.715-6.911-2-10a104.618 104.618 0 0 0-1-9h-22c-.111-.617-.444-1.117-1-1.5a130.373 130.373 0 0 0 16-1.5 86.578 86.578 0 0 0-13-1.5 4.457 4.457 0 0 0-2-1.5c-.799-2.993-.799-6.16 0-9.5-2.041-2.993-2.374-6.159-1-9.5-.045-2.689-1.379-4.023-4-4 .277 2.948-.056 5.781-1 8.5a7.293 7.293 0 0 1 3 2c-1.789.52-3.456.187-5-1 .867-2.316.201-4.316-2-6 3.193-1.67 3.527-3.67 1-6 1.722-2.46 3.888-3.293 6.5-2.5a4.934 4.934 0 0 0 .5-3c-2.78.445-5.447.445-8 0-1.259 3.27-3.592 4.937-7 5v-22c2.671.769 5.171 1.102 7.5 1a4.457 4.457 0 0 1 1.5-2c3.488 1.42 6.822 1.086 10-1a39.463 39.463 0 0 0 5.5 5l1.5-1.5a84.902 84.902 0 0 1 13-.5v3c2.894-.458 5.394.209 7.5 2a29.517 29.517 0 0 1 2.5-4.5 77.007 77.007 0 0 0 11-1.5c2.12 1.372 3.12.705 3-2-3.53-.511-6.696.156-9.5 2a4.934 4.934 0 0 1-.5-3h-5a8.43 8.43 0 0 0-.5-4l-1 1c-3.168-2.779-6.001-2.445-8.5 1-1.211-.774-1.211-1.607 0-2.5a49.456 49.456 0 0 0-13 1.5 3.647 3.647 0 0 1-1.5-1c-2.989 2.834-5.822 3.001-8.5.5-1.735-.651-3.402-.485-5 .5a31.317 31.317 0 0 0-8-5l3-2c-1.412-1.306-3.079-2.14-5-2.5a289.106 289.106 0 0 1 34 0c-2.621.906-2.454 1.406.5 1.5.804-1.46 2.637-2.294 5.5-2.5l-6-1 1-1a348.584 348.584 0 0 0-45.5.5c-35.139-1.245-63.639-1.912-85.5-2v3c10.55.316 21.216.649 32 1 21.318-.168 21.318-.668 0-1.5a256.122 256.122 0 0 1 32 0l-8 1 9 1a314.45 314.45 0 0 0-25 1.5c.21.586.543 1.086 1 1.5 2.31.497 4.643.663 7 .5v3c8.26.305 16.427.305 24.5 0l.5 1a145.036 145.036 0 0 1-34 0c1.109-1.465.609-2.465-1.5-3a8.435 8.435 0 0 1-.5-4h-5a18.399 18.399 0 0 1-2 7c-.929-1.189-1.262-2.522-1-4h-3v-3a16.874 16.874 0 0 0-8 1l3 2a22.215 22.215 0 0 1-6 2.5 70.957 70.957 0 0 1 3 7.5c1.967.239 3.8-.094 5.5-1 .483.948.65 1.948.5 3h-8a56.591 56.591 0 0 1 0 10.5c.255 1.326.922 2.326 2 3a13.017 13.017 0 0 0-4 4.5c1.57.194 3.07.194 4.5 0l1.5 1.5a8.43 8.43 0 0 1-4 .5 4.932 4.932 0 0 0 .5 3c1.814-1.26 3.647-1.26 5.5 0-1.189.929-2.522 1.262-4 1 .415 2.868-.585 5.035-3 6.5 1.167.5 2 1.333 2.5 2.5l1 7c2.42-2.338 2.92-5.005 1.5-8 2.238-1.758 3.238-4.092 3-7h6l-6.5 13a12.935 12.935 0 0 0-.5 5 9.86 9.86 0 0 0-6 1l3 2c-.748 1.916-.748 3.916 0 6h3c.222-2.164 1.222-3.83 3-5 1.765.961 3.765 1.295 6 1 .167 27.669 0 55.335-.5 83a674.638 674.638 0 0 1-34.5-42c-.667 0-1-.333-1-1 .009-1.808-.491-3.475-1.5-5a157.073 157.073 0 0 1-4.5-6c-.912-3.751-2.578-7.084-5-10-.838-.342-1.172-1.008-1-2-.321-4.956-1.988-9.289-5-13 .288-4.076-1.045-7.409-4-10a2798.157 2798.157 0 0 1-8-41c-1.558-7.444-2.225-15.111-2-23z"/><path style="opacity:1" fill="#afa02e" d="M160.5 172.5h-29v-5c1.599.268 2.932-.066 4-1v-1a394.99 394.99 0 0 1-9-35.5 60.061 60.061 0 0 0-3-6.5c-.242-3.979-1.242-7.646-3-11h-33c-1.745 3.7-2.745 7.7-3 12-2.754 6.617-4.754 13.617-6 21v1c-2.916 5.538-4.582 11.538-5 18-.667 0-1 .333-1 1-1.778 1.17-2.778 2.836-3 5h-3c-.748-2.084-.748-4.084 0-6l-3-2a9.86 9.86 0 0 1 6-1c-.16-1.699.007-3.366.5-5l6.5-13h-6c.238 2.908-.762 5.242-3 7 1.42 2.995.92 5.662-1.5 8l-1-7c-.5-1.167-1.333-2-2.5-2.5 2.415-1.465 3.415-3.632 3-6.5 1.478.262 2.811-.071 4-1-1.853-1.26-3.686-1.26-5.5 0a4.932 4.932 0 0 1-.5-3 8.43 8.43 0 0 0 4-.5l-1.5-1.5c-1.43.194-2.93.194-4.5 0a13.017 13.017 0 0 1 4-4.5c-1.078-.674-1.745-1.674-2-3a56.591 56.591 0 0 0 0-10.5h8a4.932 4.932 0 0 0-.5-3c-1.7.906-3.533 1.239-5.5 1a70.957 70.957 0 0 0-3-7.5 22.215 22.215 0 0 0 6-2.5l-3-2a16.874 16.874 0 0 1 8-1v3h3c-.262 1.478.071 2.811 1 4a18.399 18.399 0 0 0 2-7h5a8.435 8.435 0 0 0 .5 4c2.109.535 2.609 1.535 1.5 3a145.036 145.036 0 0 0 34 0l-.5-1a328.11 328.11 0 0 1-24.5 0v-3a24.935 24.935 0 0 1-7-.5 3.646 3.646 0 0 1-1-1.5 314.45 314.45 0 0 1 25-1.5l-9-1 8-1a256.122 256.122 0 0 0-32 0c21.318.832 21.318 1.332 0 1.5-10.784-.351-21.45-.684-32-1v-3c21.861.088 50.361.755 85.5 2a348.584 348.584 0 0 1 45.5-.5l-1 1 6 1c-2.863.206-4.696 1.04-5.5 2.5-2.954-.094-3.121-.594-.5-1.5a289.106 289.106 0 0 0-34 0c1.921.36 3.588 1.194 5 2.5l-3 2a31.317 31.317 0 0 1 8 5c1.598-.985 3.265-1.151 5-.5 2.678 2.501 5.511 2.334 8.5-.5.414.457.914.791 1.5 1a49.456 49.456 0 0 1 13-1.5c-1.211.893-1.211 1.726 0 2.5 2.499-3.445 5.332-3.779 8.5-1l1-1a8.43 8.43 0 0 1 .5 4h5a4.934 4.934 0 0 0 .5 3c2.804-1.844 5.97-2.511 9.5-2 .12 2.705-.88 3.372-3 2a77.007 77.007 0 0 1-11 1.5 29.517 29.517 0 0 0-2.5 4.5c-2.106-1.791-4.606-2.458-7.5-2v-3a84.902 84.902 0 0 0-13 .5l-1.5 1.5a39.463 39.463 0 0 1-5.5-5c-3.178 2.086-6.512 2.42-10 1a4.457 4.457 0 0 0-1.5 2c-2.329.102-4.829-.231-7.5-1v22c3.408-.063 5.741-1.73 7-5 2.553.445 5.22.445 8 0a4.934 4.934 0 0 1-.5 3c-2.612-.793-4.778.04-6.5 2.5 2.527 2.33 2.193 4.33-1 6 2.201 1.684 2.867 3.684 2 6 1.544 1.187 3.211 1.52 5 1a7.293 7.293 0 0 0-3-2c.944-2.719 1.277-5.552 1-8.5 2.621-.023 3.955 1.311 4 4-1.374 3.341-1.041 6.507 1 9.5-.799 3.34-.799 6.507 0 9.5a4.457 4.457 0 0 1 2 1.5c4.371.172 8.704.672 13 1.5a130.373 130.373 0 0 1-16 1.5c.556.383.889.883 1 1.5z"/><path style="opacity:1" fill="#4b1905" d="M120.5 112.5c1.758 3.354 2.758 7.021 3 11-2.362-2.419-3.362-5.419-3-9v-2z"/><path style="opacity:1" fill="#94282c" d="m87.5 112.5 32 2c-10.339-.166-20.672 0-31 .5 6.32.435 6.487 1.269.5 2.5-1.057 3.949-2.557 7.616-4.5 11v-4c.255-4.3 1.255-8.3 3-12z"/><path style="opacity:1" fill="#080004" d="M87.5 112.5h33v2h-1l-32-2z"/><path style="opacity:1" fill="#531808" d="M84.5 124.5v4c-2.06 4.71-3.393 9.71-4 15a30.968 30.968 0 0 1-2 2c1.246-7.383 3.246-14.383 6-21z"/><path style="opacity:1" fill="#e63943" d="M119.5 114.5h1c-.362 3.581.638 6.581 3 9a21.127 21.127 0 0 0 1 9 1193.727 1193.727 0 0 1 10 33h-60a130.098 130.098 0 0 0 4-19v-1a30.968 30.968 0 0 0 2-2c.607-5.29 1.94-10.29 4-15 1.943-3.384 3.443-7.051 4.5-11 5.987-1.231 5.82-2.065-.5-2.5 10.328-.5 20.661-.666 31-.5z"/><path style="opacity:1" fill="#474126" d="M13.5 119.5a2798.157 2798.157 0 0 0 8 41c-1.15-.291-1.816-1.124-2-2.5a3125.326 3125.326 0 0 0-6-32.5v-6z"/><path style="opacity:1" fill="#40361c" d="M238.5 120.5c-.777 15.458-3.11 30.458-7 45a459.64 459.64 0 0 1 4-30 474.641 474.641 0 0 0 3-15z"/><path style="opacity:1" fill="#60200f" d="M123.5 123.5a60.061 60.061 0 0 1 3 6.5 394.99 394.99 0 0 0 9 35.5h-1a1193.727 1193.727 0 0 0-10-33 21.127 21.127 0 0 1-1-9z"/><path style="opacity:1" fill="#58220e" d="M78.5 146.5a130.098 130.098 0 0 1-4 19c-.667 0-1-.333-1-1 .418-6.462 2.084-12.462 5-18z"/><path style="opacity:1" fill="#100301" d="M73.5 164.5c0 .667.333 1 1 1h61v1h-5c-.295 2.235.039 4.235 1 6v1h-2v-7h-51c-2.235.295-4.235-.039-6-1 0-.667.333-1 1-1z"/><path style="opacity:1" fill="#382e18" d="M21.5 160.5c2.955 2.591 4.288 5.924 4 10-2.358-2.743-3.691-6.077-4-10z"/><path style="opacity:1" fill="#614e25" d="M135.5 166.5c-1.068.934-2.401 1.268-4 1v5c-.961-1.765-1.295-3.765-1-6h5z"/><path style="opacity:1" fill="#373018" d="M231.5 165.5c.09 2.652-.576 4.985-2 7-.09-2.652.576-4.985 2-7z"/><path style="opacity:1" fill="#6f3d39" d="M131.5 173.5v-1h51c.463 2.982.796 5.982 1 9a13.94 13.94 0 0 1-3-6c-15.966-1.985-32.299-2.652-49-2z"/><path style="opacity:1" fill="#4a442e" d="M229.5 172.5c.321 3.077-.679 5.41-3 7-.321-3.077.679-5.41 3-7z"/><path style="opacity:1" fill="#ea3c45" d="M180.5 175.5a13.94 13.94 0 0 0 3 6c-.569 3.829.098 7.163 2 10 .629 9.173 2.629 17.84 6 26v1a87.719 87.719 0 0 0 2 13c.247 1.213.914 1.88 2 2-20.64 1.989-41.64 2.655-63 2-.167-20.003 0-40.003.5-60a284.088 284.088 0 0 1 47.5 0z"/><path style="opacity:1" fill="#4f4426" d="M25.5 170.5c3.012 3.711 4.679 8.044 5 13-.997.03-1.664-.47-2-1.5a141.89 141.89 0 0 1-3-11.5z"/><path style="opacity:1" fill="#463e1f" d="M226.5 179.5c-.428 3.285-1.428 6.285-3 9 .028-3.416 1.028-6.416 3-9z"/><path style="opacity:1" fill="#5b1f21" d="M183.5 181.5c1.285 3.089 1.951 6.422 2 10-1.902-2.837-2.569-6.171-2-10z"/><path style="opacity:1" fill="#383216" d="M31.5 185.5c2.422 2.916 4.088 6.249 5 10-2.707-2.747-4.373-6.08-5-10z"/><path style="opacity:1" fill="#49401a" d="M223.5 189.5c-.972 2.937-2.305 5.603-4 8-.208-3.585 1.125-6.251 4-8z"/><path style="opacity:1" fill="#551d0e" d="M185.5 191.5c1.149.291 1.816 1.124 2 2.5a480.247 480.247 0 0 1 4 23.5c-3.371-8.16-5.371-16.827-6-26z"/><path style="opacity:1" fill="#413a1c" d="M36.5 195.5a157.073 157.073 0 0 0 4.5 6c1.009 1.525 1.509 3.192 1.5 5-1.722-1.753-3.222-3.753-4.5-6-1.009-1.525-1.509-3.192-1.5-5z"/><path style="opacity:1" fill="#5b5330" d="M219.5 198.5c-.998 4.005-2.998 7.339-6 10 .998-4.005 2.998-7.339 6-10z"/><path style="opacity:1" fill="#c9424d" d="M131.5 173.5c16.701-.652 33.034.015 49 2a284.088 284.088 0 0 0-47.5 0c-.5 19.997-.667 39.997-.5 60h-1v-62z"/><path style="opacity:1" fill="#4d2928" d="M129.5 173.5h2v62c-.838.342-1.172 1.008-1 2a1024.542 1024.542 0 0 1-1-64z"/><path style="opacity:1" fill="#4a422b" d="M213.5 208.5c-.579 2.831-1.912 5.164-4 7 .498-2.826 1.831-5.16 4-7z"/><path style="opacity:1" fill="#413814" d="M78.5 166.5h1c.325 28.407-.009 56.741-1 85a1422.494 1422.494 0 0 1-29.5-33c-2.393-3.452-4.226-7.119-5.5-11a674.638 674.638 0 0 0 34.5 42c.5-27.665.667-55.331.5-83z"/><path style="opacity:1" fill="#612112" d="M191.5 218.5c1.086.12 1.753.787 2 2a190.883 190.883 0 0 1 2 11v2c-1.086-.12-1.753-.787-2-2a87.719 87.719 0 0 1-2-13z"/><path style="opacity:1" fill="#534b35" d="M209.5 215.5a277.568 277.568 0 0 1-12 19c-.342-.838-1.008-1.172-2-1v-2c1.175.219 2.175-.114 3-1a111.488 111.488 0 0 0 7.5-12c.759-1.563 1.926-2.563 3.5-3z"/><path style="opacity:1" fill="#c3c0c6" d="M80.5 166.5h49v7c-.331 21.507.003 42.84 1 64h3v8c.167 12.338 0 24.671-.5 37-2.11 2.281-4.61 3.948-7.5 5a39.74 39.74 0 0 0-12-9c-1.039-2.031-2.705-3.364-5-4a427.74 427.74 0 0 0-27.5-23c-.5-28.331-.667-56.665-.5-85z"/><path style="opacity:1" fill="#060305" d="M99.5 182.5h6v21h-6v-21z"/><path style="opacity:1" fill="#65051a" d="M195.5 233.5c.992-.172 1.658.162 2 1-.333 1-1 1.667-2 2-21.507.331-42.84-.003-64-1h1c21.36.655 42.36-.011 63-2z"/><path style="opacity:1" fill="#1d151e" d="M131.5 235.5c21.16.997 42.493 1.331 64 1 0 .667-.333 1-1 1h-59l-2 8v-8h-3c-.172-.992.162-1.658 1-2z"/><path style="opacity:1" fill="#4e4b4d" d="M192.5 237.5h2c-7.856 9.866-17.189 17.866-28 24 9.495-6.818 18.162-14.818 26-24z"/><path style="opacity:1" fill="#39352e" d="M79.5 166.5h1c-.167 28.335 0 56.669.5 85a427.74 427.74 0 0 1 27.5 23 10.134 10.134 0 0 1-4-1.5 571.62 571.62 0 0 1-26-21.5 1828.663 1828.663 0 0 0 1-85z"/><path style="opacity:1" fill="#c8c6cb" d="M135.5 237.5h57c-7.838 9.182-16.505 17.182-26 24-7.191 3.21-13.525 7.544-19 13-4.429 1.243-8.262 3.577-11.5 7-.5-14.663-.667-29.33-.5-44z"/><path style="opacity:1" fill="#363537" d="M166.5 261.5a186.404 186.404 0 0 1-19 13c5.475-5.456 11.809-9.79 19-13z"/><path style="opacity:1" fill="#423f44" d="M135.5 237.5c-.167 14.67 0 29.337.5 44 3.238-3.423 7.071-5.757 11.5-7-6.394 5.362-13.394 10.028-21 14-.607-.124-.94-.457-1-1 2.89-1.052 5.39-2.719 7.5-5 .5-12.329.667-24.662.5-37l2-8z"/><path style="opacity:1" fill="#545456" d="M108.5 274.5c2.295.636 3.961 1.969 5 4-2.867.131-4.533-1.203-5-4z"/><path style="opacity:1" fill="#383639" d="M113.5 278.5a39.74 39.74 0 0 1 12 9 4.934 4.934 0 0 1-3-.5c-3.499-2.396-6.499-5.229-9-8.5z"/></svg>