<?xml version="1.0" encoding="UTF-8"?>
<!DOCTYPE svg PUBLIC "-//W3C//DTD SVG 1.1//EN" "http://www.w3.org/Graphics/SVG/1.1/DTD/svg11.dtd">
<svg xmlns="http://www.w3.org/2000/svg" version="1.1" width="120px" height="128px" style="shape-rendering:geometricPrecision; text-rendering:geometricPrecision; image-rendering:optimizeQuality; fill-rule:evenodd; clip-rule:evenodd" xmlns:xlink="http://www.w3.org/1999/xlink">
<g><path style="opacity:1" fill="#dfb351" d="M 117.5,2.5 C 98.8333,2.5 80.1667,2.5 61.5,2.5C 61.1691,26.3392 61.5024,50.0059 62.5,73.5C 62.1249,75.6976 61.4582,77.6976 60.5,79.5C 60.5,53.5 60.5,27.5 60.5,1.5C 79.674,1.16971 98.674,1.50304 117.5,2.5 Z"/></g>
<g><path style="opacity:1" fill="#fac85a" d="M 117.5,2.5 C 117.74,21.5181 117.406,40.5181 116.5,59.5C 115.736,61.7397 114.902,64.0731 114,66.5C 113.578,64.5743 112.411,63.5743 110.5,63.5C 110.043,61.2273 108.71,59.894 106.5,59.5C 104.031,58.6829 101.365,58.1829 98.5,58C 97.4483,52.4463 94.115,49.613 88.5,49.5C 89.8276,45.746 92.4942,44.5793 96.5,46C 102.371,48.5338 107.038,52.5338 110.5,58C 111.833,58.6667 113.167,58.6667 114.5,58C 111.52,54.9154 110.187,51.4154 110.5,47.5C 111.869,49.124 113.536,49.624 115.5,49C 114.5,48.1667 113.5,47.3333 112.5,46.5C 113.025,45.8076 113.692,45.3076 114.5,45C 110.578,41.7492 107.412,37.9159 105,33.5C 99.4069,27.9036 93.2402,23.0703 86.5,19C 83.931,16.5206 81.5977,13.854 79.5,11C 77.8333,10.3333 76.1667,10.3333 74.5,11C 72.0887,12.5829 69.422,13.5829 66.5,14C 65.6433,14.6891 64.9767,15.5224 64.5,16.5C 67.5223,16.9282 70.0223,18.2615 72,20.5C 74.7893,25.5343 76.7893,30.8677 78,36.5C 80.3245,38.5008 82.1579,40.8342 83.5,43.5C 83.5,45.1667 83.5,46.8333 83.5,48.5C 80.0311,49.7911 76.5311,51.1244 73,52.5C 72.7897,56.3764 70.7897,58.7097 67,59.5C 65.1192,63.3072 63.9526,67.3072 63.5,71.5C 63.5,71.8333 63.5,72.1667 63.5,72.5C 62.8333,72.5 62.5,72.8333 62.5,73.5C 61.5024,50.0059 61.1691,26.3392 61.5,2.5C 80.1667,2.5 98.8333,2.5 117.5,2.5 Z"/></g>
<g><path style="opacity:1" fill="#232221" d="M 83.5,48.5 C 84.391,49.1098 85.391,49.4431 86.5,49.5C 87.1667,49.5 87.8333,49.5 88.5,49.5C 94.115,49.613 97.4483,52.4463 98.5,58C 101.365,58.1829 104.031,58.6829 106.5,59.5C 103.5,59.5 100.5,59.5 97.5,59.5C 97.7935,63.4367 97.4601,67.27 96.5,71C 97.7932,71.49 99.1266,71.6567 100.5,71.5C 100.857,74.9849 99.3566,77.3183 96,78.5C 93.5627,77.5208 91.2294,77.8542 89,79.5C 88.6667,78.8333 88.3333,78.1667 88,77.5C 86.951,79.1066 85.451,79.7733 83.5,79.5C 83.6495,78.448 83.4828,77.448 83,76.5C 82.2588,77.6405 81.4255,77.6405 80.5,76.5C 79.8333,78.1667 79.1667,79.8333 78.5,81.5C 77.4777,81.1445 76.811,80.4778 76.5,79.5C 75.0582,78.1805 74.3915,76.5138 74.5,74.5C 74.9302,73.045 74.9302,71.7117 74.5,70.5C 77.2762,71.0891 79.6096,72.4224 81.5,74.5C 87.2137,72.9597 92.047,69.9597 96,65.5C 96.8632,63.2511 96.3632,61.4178 94.5,60C 97.4155,57.9288 97.0822,56.5954 93.5,56C 94.3366,54.9887 94.67,53.8221 94.5,52.5C 93.5,52.5 92.5,52.5 91.5,52.5C 91.6567,53.8734 91.49,55.2068 91,56.5C 88.4803,57.2066 85.9803,58.04 83.5,59C 81.8446,60.4443 81.178,62.2776 81.5,64.5C 82.552,64.3505 83.552,64.5172 84.5,65C 82.9512,66.214 81.7845,67.714 81,69.5C 79.9252,65.783 79.7585,62.1164 80.5,58.5C 78.4508,58.2942 78.1175,57.4609 79.5,56C 78.1667,55.3333 76.8333,54.6667 75.5,54C 78.7423,53.7167 79.0756,52.8834 76.5,51.5C 75.5224,51.9767 74.6891,52.6433 74,53.5C 73.8142,55.9005 73.3142,58.2338 72.5,60.5C 71.2638,59.7542 69.9305,59.4208 68.5,59.5C 68.578,62.2518 68.7446,64.9184 69,67.5C 68.0853,66.6721 67.4186,65.6721 67,64.5C 65.7245,66.8583 64.5578,69.1916 63.5,71.5C 63.9526,67.3072 65.1192,63.3072 67,59.5C 70.7897,58.7097 72.7897,56.3764 73,52.5C 76.5311,51.1244 80.0311,49.7911 83.5,48.5 Z"/></g>
<g><path style="opacity:1" fill="#d4d4d6" d="M 80.5,58.5 C 79.7585,62.1164 79.9252,65.783 81,69.5C 81.7845,67.714 82.9512,66.214 84.5,65C 83.552,64.5172 82.552,64.3505 81.5,64.5C 81.178,62.2776 81.8446,60.4443 83.5,59C 85.9803,58.04 88.4803,57.2066 91,56.5C 91.49,55.2068 91.6567,53.8734 91.5,52.5C 92.5,52.5 93.5,52.5 94.5,52.5C 94.67,53.8221 94.3366,54.9887 93.5,56C 97.0822,56.5954 97.4155,57.9288 94.5,60C 96.3632,61.4178 96.8632,63.2511 96,65.5C 92.047,69.9597 87.2137,72.9597 81.5,74.5C 79.6096,72.4224 77.2762,71.0891 74.5,70.5C 74.9302,71.7117 74.9302,73.045 74.5,74.5C 73.6981,75.9516 73.1981,77.6183 73,79.5C 68.9982,82.7707 64.8315,85.7707 60.5,88.5C 60.5,86.8333 60.5,85.1667 60.5,83.5C 61.2679,82.7375 61.7679,81.7375 62,80.5C 62.4186,81.6721 63.0853,82.6721 64,83.5C 64.5,82.3333 65.3333,81.5 66.5,81C 66.0426,80.586 65.7093,80.086 65.5,79.5C 67.8507,78.9882 69.8507,77.9882 71.5,76.5C 71.1667,76.1667 70.8333,75.8333 70.5,75.5C 68.8071,77.2786 66.8071,77.7786 64.5,77C 64.8333,76.6667 65.1667,76.3333 65.5,76C 64.0267,75.2904 63.3601,74.1238 63.5,72.5C 63.5,72.1667 63.5,71.8333 63.5,71.5C 64.5578,69.1916 65.7245,66.8583 67,64.5C 67.4186,65.6721 68.0853,66.6721 69,67.5C 68.7446,64.9184 68.578,62.2518 68.5,59.5C 69.9305,59.4208 71.2638,59.7542 72.5,60.5C 73.3142,58.2338 73.8142,55.9005 74,53.5C 74.6891,52.6433 75.5224,51.9767 76.5,51.5C 79.0756,52.8834 78.7423,53.7167 75.5,54C 76.8333,54.6667 78.1667,55.3333 79.5,56C 78.1175,57.4609 78.4508,58.2942 80.5,58.5 Z"/></g>
<g><path style="opacity:1" fill="#4d4d4d" d="M 58.5,57.5 C 40.1667,57.5 21.8333,57.5 3.5,57.5C 4.44968,66.8492 7.11634,75.6826 11.5,84C 27.1631,84.4999 42.8298,84.6666 58.5,84.5C 42.64,84.8383 26.9733,85.8383 11.5,87.5C 5.82171,79.4754 2.48837,70.4754 1.5,60.5C 2.43448,59.4324 2.76781,58.099 2.5,56.5C 21.3408,56.1698 40.0075,56.5031 58.5,57.5 Z"/></g>
<g><path style="opacity:1" fill="#fefefe" d="M 58.5,57.5 C 58.5,66.5 58.5,75.5 58.5,84.5C 42.8298,84.6666 27.1631,84.4999 11.5,84C 7.11634,75.6826 4.44968,66.8492 3.5,57.5C 21.8333,57.5 40.1667,57.5 58.5,57.5 Z"/></g>
<g><path style="opacity:1" fill="#2f2f2f" d="M 118.5,57.5 C 115.43,80.1422 104.763,98.3088 86.5,112C 80.6412,116.094 74.6412,119.927 68.5,123.5C 68.5,122.833 68.5,122.167 68.5,121.5C 77.1973,116.139 85.1973,109.805 92.5,102.5C 90.5891,101.523 88.5891,100.857 86.5,100.5C 87.6353,98.9122 88.9686,98.5788 90.5,99.5C 91.5624,98.5754 91.5624,97.5754 90.5,96.5C 93.0109,95.2401 95.3443,93.5734 97.5,91.5C 97.6691,92.3966 98.0024,93.3966 98.5,94.5C 99.7236,93.2338 101.057,92.0672 102.5,91C 99.9978,88.3273 97.9978,85.3273 96.5,82C 98.685,80.1469 100.518,77.9803 102,75.5C 103.514,70.1007 105.014,64.7674 106.5,59.5C 108.71,59.894 110.043,61.2273 110.5,63.5C 112.411,63.5743 113.578,64.5743 114,66.5C 114.902,64.0731 115.736,61.7397 116.5,59.5C 116.369,60.2389 116.536,60.9056 117,61.5C 117.21,59.9419 117.71,58.6085 118.5,57.5 Z"/></g>
<g><path style="opacity:1" fill="#cdcdce" d="M 110.5,63.5 C 112.679,65.9918 113.346,68.6585 112.5,71.5C 111.185,72.4756 109.852,73.4756 108.5,74.5C 107.319,72.8647 107.319,71.198 108.5,69.5C 108.043,68.7025 107.376,68.3691 106.5,68.5C 107.038,66.8828 107.371,65.2161 107.5,63.5C 108.5,63.5 109.5,63.5 110.5,63.5 Z"/></g>
<g><path style="opacity:1" fill="#aaa8a6" d="M 63.5,72.5 C 63.3601,74.1238 64.0267,75.2904 65.5,76C 65.1667,76.3333 64.8333,76.6667 64.5,77C 66.8071,77.7786 68.8071,77.2786 70.5,75.5C 70.8333,75.8333 71.1667,76.1667 71.5,76.5C 69.8507,77.9882 67.8507,78.9882 65.5,79.5C 65.7093,80.086 66.0426,80.586 66.5,81C 65.3333,81.5 64.5,82.3333 64,83.5C 63.0853,82.6721 62.4186,81.6721 62,80.5C 61.7679,81.7375 61.2679,82.7375 60.5,83.5C 60.5,82.1667 60.5,80.8333 60.5,79.5C 61.4582,77.6976 62.1249,75.6976 62.5,73.5C 62.5,72.8333 62.8333,72.5 63.5,72.5 Z"/></g>
<g><path style="opacity:1" fill="#5a5a5b" d="M 106.5,68.5 C 107.376,68.3691 108.043,68.7025 108.5,69.5C 107.319,71.198 107.319,72.8647 108.5,74.5C 109.852,73.4756 111.185,72.4756 112.5,71.5C 110.804,74.2357 109.638,77.2357 109,80.5C 107.5,78.6667 106,76.8333 104.5,75C 105.308,74.6924 105.975,74.1924 106.5,73.5C 105.948,71.9974 105.948,70.3307 106.5,68.5 Z"/></g>
<g><path style="opacity:1" fill="#d5d5d7" d="M 106.5,59.5 C 105.014,64.7674 103.514,70.1007 102,75.5C 100.518,77.9803 98.685,80.1469 96.5,82C 97.9978,85.3273 99.9978,88.3273 102.5,91C 101.057,92.0672 99.7236,93.2338 98.5,94.5C 98.0024,93.3966 97.6691,92.3966 97.5,91.5C 95.3443,93.5734 93.0109,95.2401 90.5,96.5C 89.9951,92.1691 87.9951,91.3358 84.5,94C 80.6119,96.2215 77.7786,99.3882 76,103.5C 75.6664,101.153 75.833,98.8194 76.5,96.5C 80.0653,92.1499 80.0653,87.8166 76.5,83.5C 76.1667,83.8333 75.8333,84.1667 75.5,84.5C 75.1203,86.0207 74.9536,87.6874 75,89.5C 71.3907,93.8968 67.2241,97.7301 62.5,101C 63.1667,101.333 63.8333,101.667 64.5,102C 64.507,103.583 64.1737,105.249 63.5,107C 64.448,107.483 65.448,107.649 66.5,107.5C 66.4125,104.402 66.9125,104.068 68,106.5C 69.3629,104.216 70.8629,104.049 72.5,106C 71.6721,106.915 70.6721,107.581 69.5,108C 70.6667,108.5 71.5,109.333 72,110.5C 72.8518,109.429 73.6851,108.429 74.5,107.5C 75.1515,108.091 75.8182,108.757 76.5,109.5C 77.8772,107.711 78.8772,105.711 79.5,103.5C 81.7707,102.3 84.104,101.3 86.5,100.5C 88.5891,100.857 90.5891,101.523 92.5,102.5C 85.1973,109.805 77.1973,116.139 68.5,121.5C 65.6572,122.172 63.1572,123.505 61,125.5C 60.5002,114.839 60.3335,104.172 60.5,93.5C 62.3046,92.1575 64.3046,91.3241 66.5,91C 69.7596,86.9267 73.093,83.0934 76.5,79.5C 76.811,80.4778 77.4777,81.1445 78.5,81.5C 79.1667,79.8333 79.8333,78.1667 80.5,76.5C 81.4255,77.6405 82.2588,77.6405 83,76.5C 83.4828,77.448 83.6495,78.448 83.5,79.5C 85.451,79.7733 86.951,79.1066 88,77.5C 88.3333,78.1667 88.6667,78.8333 89,79.5C 91.2294,77.8542 93.5627,77.5208 96,78.5C 99.3566,77.3183 100.857,74.9849 100.5,71.5C 99.1266,71.6567 97.7932,71.49 96.5,71C 97.4601,67.27 97.7935,63.4367 97.5,59.5C 100.5,59.5 103.5,59.5 106.5,59.5 Z"/></g>
<g><path style="opacity:1" fill="#6a6b6c" d="M 102.5,78.5 C 104.173,79.343 105.34,80.6763 106,82.5C 106.451,80.0712 107.285,79.9045 108.5,82C 107.253,83.9465 105.92,85.7798 104.5,87.5C 103.808,84.8549 102.808,82.3549 101.5,80C 102.056,79.6174 102.389,79.1174 102.5,78.5 Z"/></g>
<g><path style="opacity:1" fill="#b3b3b4" d="M 74.5,74.5 C 74.3915,76.5138 75.0582,78.1805 76.5,79.5C 73.093,83.0934 69.7596,86.9267 66.5,91C 64.3046,91.3241 62.3046,92.1575 60.5,93.5C 60.5,91.8333 60.5,90.1667 60.5,88.5C 64.8315,85.7707 68.9982,82.7707 73,79.5C 73.1981,77.6183 73.6981,75.9516 74.5,74.5 Z"/></g>
<g><path style="opacity:1" fill="#d2d2d4" d="M 98.5,81.5 C 100.749,83.3307 101.915,85.6641 102,88.5C 100.295,86.4234 99.1283,84.09 98.5,81.5 Z"/></g>
<g><path style="opacity:1" fill="#f84c31" d="M 57.5,125.5 C 49.0545,121.105 41.0545,115.938 33.5,110C 26.2326,103.238 19.5659,96.0717 13.5,88.5C 28.1294,86.5163 43.1294,85.8497 58.5,86.5C 58.8288,99.6774 58.4955,112.677 57.5,125.5 Z"/></g>
<g><path style="opacity:1" fill="#14110f" d="M -0.5,-0.5 C 39.5,-0.5 79.5,-0.5 119.5,-0.5C 119.5,18.8333 119.5,38.1667 119.5,57.5C 119.167,57.5 118.833,57.5 118.5,57.5C 117.71,58.6085 117.21,59.9419 117,61.5C 116.536,60.9056 116.369,60.2389 116.5,59.5C 117.406,40.5181 117.74,21.5181 117.5,2.5C 98.674,1.50304 79.674,1.16971 60.5,1.5C 60.5,27.5 60.5,53.5 60.5,79.5C 60.5,80.8333 60.5,82.1667 60.5,83.5C 60.5,85.1667 60.5,86.8333 60.5,88.5C 60.5,90.1667 60.5,91.8333 60.5,93.5C 60.3335,104.172 60.5002,114.839 61,125.5C 63.1572,123.505 65.6572,122.172 68.5,121.5C 68.5,122.167 68.5,122.833 68.5,123.5C 66.5,124.833 64.5,126.167 62.5,127.5C 61.1667,127.5 59.8333,127.5 58.5,127.5C 58.1667,126.833 57.8333,126.167 57.5,125.5C 58.4955,112.677 58.8288,99.6774 58.5,86.5C 43.1294,85.8497 28.1294,86.5163 13.5,88.5C 12.8333,88.5 12.1667,88.5 11.5,88.5C 11.5,88.1667 11.5,87.8333 11.5,87.5C 26.9733,85.8383 42.64,84.8383 58.5,84.5C 58.5,75.5 58.5,66.5 58.5,57.5C 40.0075,56.5031 21.3408,56.1698 2.5,56.5C 2.76781,58.099 2.43448,59.4324 1.5,60.5C 0.833333,58.8333 0.166667,57.1667 -0.5,55.5C -0.5,36.8333 -0.5,18.1667 -0.5,-0.5 Z"/></g>
<g><path style="opacity:1" fill="#dcdcde" d="M 80.5,58.5 C 80.9425,53.8149 83.2758,52.4815 87.5,54.5C 85.2746,56.11 82.9413,57.4434 80.5,58.5 Z"/></g>
<g><path style="opacity:1" fill="#d6d6d8" d="M 91.5,52.5 C 89.3453,52.628 87.3453,52.128 85.5,51C 87.8805,50.2615 89.8805,50.7615 91.5,52.5 Z"/></g>
<g><path style="opacity:1" fill="#78612b" d="M 83.5,43.5 C 84.29,44.6085 84.79,45.9419 85,47.5C 85.7175,46.5494 86.5509,46.3828 87.5,47C 86.7476,47.6708 86.4142,48.5041 86.5,49.5C 85.391,49.4431 84.391,49.1098 83.5,48.5C 83.5,46.8333 83.5,45.1667 83.5,43.5 Z"/></g>
<g><path style="opacity:1" fill="#14120f" d="M 88.5,49.5 C 87.8333,49.5 87.1667,49.5 86.5,49.5C 86.4142,48.5041 86.7476,47.6708 87.5,47C 86.5509,46.3828 85.7175,46.5494 85,47.5C 84.79,45.9419 84.29,44.6085 83.5,43.5C 82.1579,40.8342 80.3245,38.5008 78,36.5C 76.7893,30.8677 74.7893,25.5343 72,20.5C 70.0223,18.2615 67.5223,16.9282 64.5,16.5C 64.9767,15.5224 65.6433,14.6891 66.5,14C 69.422,13.5829 72.0887,12.5829 74.5,11C 76.1667,10.3333 77.8333,10.3333 79.5,11C 81.5977,13.854 83.931,16.5206 86.5,19C 93.2402,23.0703 99.4069,27.9036 105,33.5C 107.412,37.9159 110.578,41.7492 114.5,45C 113.692,45.3076 113.025,45.8076 112.5,46.5C 113.5,47.3333 114.5,48.1667 115.5,49C 113.536,49.624 111.869,49.124 110.5,47.5C 110.187,51.4154 111.52,54.9154 114.5,58C 113.167,58.6667 111.833,58.6667 110.5,58C 107.038,52.5338 102.371,48.5338 96.5,46C 92.4942,44.5793 89.8276,45.746 88.5,49.5 Z"/></g>
<g><path style="opacity:1" fill="#a6a6a7" d="M 105.5,47.5 C 108.125,49.6032 109.625,52.2699 110,55.5C 107.843,53.1829 106.343,50.5162 105.5,47.5 Z"/></g>
<g><path style="opacity:1" fill="#c0c0c2" d="M 88.5,39.5 C 90.6559,39.8718 90.6559,40.8718 88.5,42.5C 87.5,42 86.5,41.5 85.5,41C 86.7375,40.7679 87.7375,40.2679 88.5,39.5 Z"/></g>
<g><path style="opacity:1" fill="#959596" d="M 96.5,38.5 C 96.3893,39.1174 96.056,39.6174 95.5,40C 98.8074,41.2836 102.141,42.617 105.5,44C 101.62,44.4963 98.1196,43.6629 95,41.5C 93.9887,42.3366 92.8221,42.67 91.5,42.5C 91.5,41.1667 91.5,39.8333 91.5,38.5C 93.1667,38.5 94.8333,38.5 96.5,38.5 Z"/></g>
<g><path style="opacity:1" fill="#707070" d="M 96.5,38.5 C 96.8807,37.0689 97.8807,36.2355 99.5,36C 98.8333,35.3333 98.1667,34.6667 97.5,34C 101.333,33.8333 102.167,35.3333 100,38.5C 99.0138,37.8288 97.8471,37.8288 96.5,38.5 Z"/></g>
<g><path style="opacity:1" fill="#bebec0" d="M 91.5,27.5 C 94.5993,27.0923 96.9326,28.259 98.5,31C 96.5826,30.9725 94.916,30.1392 93.5,28.5C 93.1667,28.8333 92.8333,29.1667 92.5,29.5C 94.1392,30.916 94.9725,32.5826 95,34.5C 91.7466,36.519 88.2466,37.6856 84.5,38C 84.0426,37.586 83.7093,37.086 83.5,36.5C 86.9257,34.0801 89.5924,31.0801 91.5,27.5 Z"/></g>
<g><path style="opacity:1" fill="#0e0e0e" d="M 90.5,31.5 C 92.0281,31.5173 92.5281,32.184 92,33.5C 90.5114,35.3318 88.678,36.1652 86.5,36C 88.0414,34.6288 89.3747,33.1288 90.5,31.5 Z"/></g>
<g><path style="opacity:1" fill="#b8b8ba" d="M 82.5,24.5 C 83.8734,24.3433 85.2068,24.51 86.5,25C 84.913,25.8624 83.2464,26.5291 81.5,27C 83.6044,28.8356 83.9377,31.0023 82.5,33.5C 81.7234,31.2188 80.7234,29.0521 79.5,27C 80.5707,26.1482 81.5707,25.3149 82.5,24.5 Z"/></g>
<g><path style="opacity:1" fill="#929293" d="M 80.5,16.5 C 81.7053,17.6719 81.7053,19.0052 80.5,20.5C 81.1667,21.1667 81.8333,21.8333 82.5,22.5C 79.4137,24.0418 76.747,23.5418 74.5,21C 76.8593,19.7575 78.8593,18.2575 80.5,16.5 Z"/></g>
<g><path style="opacity:1" fill="#a8a8a9" d="M 73.5,13.5 C 75.9828,13.73 76.4828,14.3966 75,15.5C 73.9701,15.1639 73.4701,14.4972 73.5,13.5 Z"/></g>
<g><path style="opacity:1" fill="#dadadb" d="M 30.5,2.5 C 39.6517,1.50644 48.985,1.17311 58.5,1.5C 58.5,10.8333 58.5,20.1667 58.5,29.5C 48.985,29.8269 39.6517,29.4936 30.5,28.5C 39.5,28.5 48.5,28.5 57.5,28.5C 57.5,19.8333 57.5,11.1667 57.5,2.5C 48.5,2.5 39.5,2.5 30.5,2.5 Z"/></g>
<g><path style="opacity:1" fill="#fefffe" d="M 30.5,2.5 C 39.5,2.5 48.5,2.5 57.5,2.5C 57.5,11.1667 57.5,19.8333 57.5,28.5C 48.5,28.5 39.5,28.5 30.5,28.5C 30.5,19.8333 30.5,11.1667 30.5,2.5 Z"/></g>
<g><path style="opacity:1" fill="#fc4d32" d="M 28.5,2.5 C 28.5,12.1667 28.5,21.8333 28.5,31.5C 38.5,31.5 48.5,31.5 58.5,31.5C 58.5,39.5 58.5,47.5 58.5,55.5C 39.8333,55.5 21.1667,55.5 2.5,55.5C 2.5,54.5 2.5,53.5 2.5,52.5C 2.5,35.8333 2.5,19.1667 2.5,2.5C 11.1667,2.5 19.8333,2.5 28.5,2.5 Z"/></g>
<g><path style="opacity:1" fill="#c63c28" d="M 28.5,2.5 C 19.8333,2.5 11.1667,2.5 2.5,2.5C 2.5,19.1667 2.5,35.8333 2.5,52.5C 1.50341,35.6749 1.17008,18.6749 1.5,1.5C 10.6822,1.17336 19.6822,1.5067 28.5,2.5 Z"/></g>
<g><path style="opacity:1" fill="#101010" d="M 90.5,96.5 C 91.5624,97.5754 91.5624,98.5754 90.5,99.5C 88.9686,98.5788 87.6353,98.9122 86.5,100.5C 84.104,101.3 81.7707,102.3 79.5,103.5C 78.8772,105.711 77.8772,107.711 76.5,109.5C 75.8182,108.757 75.1515,108.091 74.5,107.5C 73.6722,105.239 73.3389,103.072 73.5,101C 74.3994,99.3484 75.3994,97.8484 76.5,96.5C 75.833,98.8194 75.6664,101.153 76,103.5C 77.7786,99.3882 80.6119,96.2215 84.5,94C 87.9951,91.3358 89.9951,92.1691 90.5,96.5 Z"/></g>
<g><path style="opacity:1" fill="#8b8b8c" d="M 76.5,96.5 C 75.3994,97.8484 74.3994,99.3484 73.5,101C 73.3389,103.072 73.6722,105.239 74.5,107.5C 73.6851,108.429 72.8518,109.429 72,110.5C 71.5,109.333 70.6667,108.5 69.5,108C 70.6721,107.581 71.6721,106.915 72.5,106C 70.8629,104.049 69.3629,104.216 68,106.5C 66.9125,104.068 66.4125,104.402 66.5,107.5C 65.448,107.649 64.448,107.483 63.5,107C 64.1737,105.249 64.507,103.583 64.5,102C 63.8333,101.667 63.1667,101.333 62.5,101C 67.2241,97.7301 71.3907,93.8968 75,89.5C 74.9536,87.6874 75.1203,86.0207 75.5,84.5C 75.8333,84.1667 76.1667,83.8333 76.5,83.5C 80.0653,87.8166 80.0653,92.1499 76.5,96.5 Z"/></g>
<g><path style="opacity:1" fill="#423a37" d="M 11.5,88.5 C 12.1667,88.5 12.8333,88.5 13.5,88.5C 19.5659,96.0717 26.2326,103.238 33.5,110C 41.0545,115.938 49.0545,121.105 57.5,125.5C 57.8333,126.167 58.1667,126.833 58.5,127.5C 57.8333,127.5 57.1667,127.5 56.5,127.5C 38.1251,118.463 23.1251,105.463 11.5,88.5 Z"/></g>
</svg>
