<svg xmlns="http://www.w3.org/2000/svg" width="160" height="186" style="shape-rendering:geometricPrecision;text-rendering:geometricPrecision;image-rendering:optimizeQuality;fill-rule:evenodd;clip-rule:evenodd"><path style="opacity:1" fill="#e3e3e3" d="M-.5-.5h5v1c-.167 37.002 0 74.001.5 111 .182 5.247 1.016 10.247 2.5 15-.24 2.398.426 4.398 2 6-.014 3.975 1.32 7.308 4 10 .16 1.653.826 2.986 2 4 7.146 13.815 17.813 23.815 32 30 4.579 2.91 9.579 5.077 15 6.5a166.366 166.366 0 0 0 31 1c.916-.278 1.582-.778 2-1.5 6.254-.042 11.92-1.708 17-5 5.712-2.024 11.045-4.857 16-8.5 9.024-7.515 16.357-16.348 22-26.5a77.902 77.902 0 0 0 5-16c1.157-2.773 1.824-5.773 2-9 .997-22.16 1.331-44.494 1-67h1v135H-.5V-.5z"/><path style="opacity:1" fill="#7d6c6e" d="M4.5.5v-1h155v51h-1V.5H4.5z"/><path style="opacity:1" fill="#510c0f" d="M7.5 1.5v-1h151v50c.331 22.506-.003 44.84-1 67V1.5H7.5z"/><path style="opacity:1" fill="#bf2d34" d="M7.5 1.5h150v93h-1v-92c-48.671-.333-97.338 0-146 1 2.407 1.405 4.074 3.405 5 6l-4-3-3-2a5.728 5.728 0 0 0-1-3z"/><path style="opacity:1" fill="#ea1f25" d="M156.5 94.5c.166 8.007 0 16.007-.5 24a10.134 10.134 0 0 0-1.5 4 98.948 98.948 0 0 0-4.5 13l-1-1a10.258 10.258 0 0 1-1.5 4c-4.154-2.131-6.154-5.465-6-10a21.435 21.435 0 0 1-7-1l-26-25-2-1c-6.333-7-13-13.667-20-20v-1c-1.413-2.92-3.413-5.42-6-7.5a6.807 6.807 0 0 0 3-1.5c-1.033-.952-2.2-.952-3.5 0a25.196 25.196 0 0 0-5.5-3c.02-1.643-.647-2.976-2-4a6.807 6.807 0 0 1 3-1.5c-6.818-2.95-10.818-7.784-12-14.5-.35 2.067-2.017 3.067-5 3v-5h-3c.262-1.478-.071-2.811-1-4-1.982 1.123-3.982 1.123-6 0l-5-4c-6.333-7-13-13.667-20-20l-8-9c-.926-2.595-2.593-4.595-5-6 48.662-1 97.329-1.333 146-1v92z"/><path style="opacity:1" fill="#361020" d="m11.5 6.5 4 3 8 9a84.582 84.582 0 0 1-12-10v-2z"/><path style="opacity:1" fill="#b12228" d="M97.5 12.5v-1c2.293-.256 4.459.077 6.5 1 .817 5.516.651 10.85-.5 16 .319-4.863-.014-9.53-1-14h-1l-4-2z"/><path style="opacity:1" fill="#3b383b" d="M101.5 14.5h1v4c-5.89 2.822-11.89 3.322-18 1.5a97.758 97.758 0 0 0 16-2l1-1a28.233 28.233 0 0 1-4-1.5c-1.478.262-2.811-.071-4-1 2.356-.794 4.69-.461 7 1 .607-.124.94-.457 1-1z"/><path style="opacity:1" fill="#cfc9ca" d="m97.5 12.5 4 2c-.06.543-.393.876-1 1-2.31-1.461-4.644-1.794-7-1 1.189.929 2.522 1.262 4 1-2.843.629-5.676 1.629-8.5 3l-1.5-.5c1.256-.417 1.923-1.25 2-2.5 1.528-.017 2.028-.684 1.5-2a33.995 33.995 0 0 1-7.5 1.5 2.428 2.428 0 0 0 2 .5c-1.215 2.288-2.881 2.955-5 2-.79-.283-1.456-.783-2-1.5 5.898-3.083 12.231-4.25 19-3.5z"/><path style="opacity:1" fill="#3d3e3e" d="M89.5 15.5h-4a2.428 2.428 0 0 1-2-.5 33.995 33.995 0 0 0 7.5-1.5c.528 1.316.028 1.983-1.5 2z"/><path style="opacity:1" fill="#430806" d="M137.5 17.5c2.885-.306 5.552.027 8 1a44.83 44.83 0 0 0-10 1l2-2z"/><path style="opacity:1" fill="#2f1327" d="M23.5 18.5c7 6.333 13.667 13 20 20h-2a252.687 252.687 0 0 1-18-20z"/><path style="opacity:1" fill="#4b1011" d="M97.5 11.5v1c-6.769-.75-13.102.417-19 3.5.544.717 1.21 1.217 2 1.5-2.276 3.756-2.61 7.756-1 12v1c-.617-.11-1.117-.444-1.5-1a98.433 98.433 0 0 1-.5-14c5.933-4.479 12.6-5.812 20-4z"/><path style="opacity:1" fill="#b52f33" d="m137.5 17.5-2 2c-2.525.477-4.525 1.81-6 4h-1c.011-1.517.677-2.684 2-3.5 2.152-1.413 4.486-2.246 7-2.5z"/><path style="opacity:1" fill="#b29fa0" d="M145.5 18.5a81.216 81.216 0 0 0 3 2.5l-1 .5c-3.608-1.093-7.275-1.26-11-.5-1.442.377-2.442 1.21-3 2.5a34.47 34.47 0 0 0-8 6v-2c1.667-1 3-2.333 4-4 1.475-2.19 3.475-3.523 6-4a44.83 44.83 0 0 1 10-1z"/><path style="opacity:1" fill="#f1f0f0" d="M85.5 15.5h4c-.077 1.25-.744 2.083-2 2.5l1.5.5c2.824-1.371 5.657-2.371 8.5-3 1.266.59 2.599 1.09 4 1.5l-1 1a97.758 97.758 0 0 1-16 2c6.11 1.822 12.11 1.322 18-1.5v2a87.223 87.223 0 0 0-7 2c3.81 1.238 3.81 1.904 0 2v3c4.393-.043 4.726.457 1 1.5l3 1c-6.667.667-6.667 1.333 0 2a14.73 14.73 0 0 0-5 1.5c1.87.67 3.536 1.003 5 1v1c-5.708-.008-6.04.492-1 1.5-6.364.981-6.03 1.481 1 1.5v1a47.518 47.518 0 0 1-19 0v-8a13.117 13.117 0 0 0 7-1 16.869 16.869 0 0 0-8-1c-1.61-4.244-1.276-8.244 1-12 2.119.955 3.785.288 5-2z"/><path style="opacity:1" fill="#bfb8b6" d="M151.5 31.5v2a10.177 10.177 0 0 1-3 3c1.987-4.555 2.487-9.221 1.5-14 1.392 2.778 1.892 5.778 1.5 9z"/><path style="opacity:1" fill="#969391" d="M102.5 20.5c-.093 4.995-1.093 9.661-3 14-1.464.003-3.13-.33-5-1a14.73 14.73 0 0 1 5-1.5c-6.667-.667-6.667-1.333 0-2l-3-1c3.726-1.043 3.393-1.543-1-1.5v-3c3.81-.096 3.81-.762 0-2a87.223 87.223 0 0 1 7-2z"/><path style="opacity:1" fill="#3b0706" d="M128.5 23.5h1c-1 1.667-2.333 3-4 4 .238-1.904 1.238-3.238 3-4z"/><path style="opacity:1" fill="#541d1b" d="M145.5 18.5c6.257 1.493 8.757 5.493 7.5 12-.383.556-.883.89-1.5 1 .392-3.222-.108-6.222-1.5-9 .987 4.779.487 9.445-1.5 14a25.058 25.058 0 0 1-8 5c3.689-2.529 6.522-5.862 8.5-10 1.291-4.172.124-7.339-3.5-9.5-4.19-.81-8.19-.31-12 1.5.558-1.29 1.558-2.123 3-2.5 3.725-.76 7.392-.593 11 .5l1-.5a81.216 81.216 0 0 1-3-2.5z"/><path style="opacity:1" fill="#4a0e0c" d="M133.5 23.5c-2.333 3-5 5.667-8 8v-2a34.47 34.47 0 0 1 8-6z"/><path style="opacity:1" fill="#ea2126" d="M140.5 41.5h-8v3h-10c.15-4.599 1.15-8.932 3-13 3-2.333 5.667-5 8-8 3.81-1.81 7.81-2.31 12-1.5 3.624 2.161 4.791 5.328 3.5 9.5-1.978 4.138-4.811 7.471-8.5 10z"/><path style="opacity:1" fill="#585856" d="M88.5 29.5c1.478-.262 2.811.071 4 1l-2 1c-1.213-.247-1.88-.914-2-2z"/><path style="opacity:1" fill="#6f1f1d" d="M125.5 27.5v2a27.809 27.809 0 0 0-6 8c-.025-4.626 1.975-7.959 6-10z"/><path style="opacity:1" fill="#c12324" d="M77.5 15.5c-.166 4.678 0 9.345.5 14 .383.556.883.89 1.5 1-.166 7.008 0 14.008.5 21 1.039.744 1.539 1.744 1.5 3-.958-.453-1.792-1.12-2.5-2-1.942-12.45-2.442-24.784-1.5-37z"/><path style="opacity:1" fill="#bda8a4" d="M125.5 29.5v2c-2.665 2.336-3.998 5.336-4 9-.802 1.452-1.302 3.118-1.5 5a24.935 24.935 0 0 1-.5-7v-1a27.809 27.809 0 0 1 6-8z"/><path style="opacity:1" fill="#767272" d="M99.5 35.5v3c-7.03-.019-7.364-.519-1-1.5-5.04-1.008-4.708-1.508 1-1.5z"/><path style="opacity:1" fill="#7c1820" d="M125.5 31.5c-1.85 4.068-2.85 8.401-3 13h10c-1.419.951-3.085 1.285-5 1h-6v-5c.002-3.664 1.335-6.664 4-9z"/><path style="opacity:1" fill="#5b1113" d="M151.5 33.5c-.108 2.283-.941 4.283-2.5 6-.671.752-1.504 1.086-2.5 1 1.1-1.105 1.767-2.438 2-4a10.177 10.177 0 0 0 3-3z"/><path style="opacity:1" fill="#901e1d" d="M140.5 41.5c-2.198 1.897-4.864 2.897-8 3v-3h8z"/><path style="opacity:1" fill="#f6f7f4" d="M84.5 41.5c2.448.973 5.115 1.306 8 1v10h-7c-1.322.17-2.489-.163-3.5-1a27.876 27.876 0 0 1-1.5-11c1.459-.067 2.792.266 4 1z"/><path style="opacity:1" fill="#d1272d" d="M103.5 28.5a28.214 28.214 0 0 0-.5 12c3.069-2.626 5.902-2.293 8.5 1a26.708 26.708 0 0 1-7 1.5c3.986.499 7.986.666 12 .5-.423-2.281.244-3.948 2-5 .256 2.292-.077 4.46-1 6.5-5.664 1.159-10.998.492-16-2a4.932 4.932 0 0 1-1-2.5 111.578 111.578 0 0 0 1.5-11c.383-.556.883-.89 1.5-1z"/><path style="opacity:1" fill="#70191e" d="M146.5 40.5c-.644 3.304-2.644 4.638-6 4 1.647-1.826 3.647-3.16 6-4z"/><path style="opacity:1" fill="#e5dae2" d="M99.5 44.5c2.135-.353 3.468.48 4 2.5-.856 1.595-2.189 2.428-4 2.5v-5z"/><path style="opacity:1" fill="#c8b9bc" d="M148.5 36.5c-.233 1.562-.9 2.895-2 4-2.353.84-4.353 2.174-6 4-11.538 4-23.205 4.834-35 2.5a238.356 238.356 0 0 0 22-1.5c1.915.285 3.581-.049 5-1 3.136-.103 5.802-1.103 8-3a25.058 25.058 0 0 0 8-5z"/><path style="opacity:1" fill="#193f69" d="m8.5 4.5 3 2v2c-1.89.204-3.39-.463-4.5-2-.5 5.323-.666 10.656-.5 16v88a1434.912 1434.912 0 0 1 0-107c.683.363 1.35.696 2 1z"/><path style="opacity:1" fill="#382325" d="M79.5 29.5c2.747-.313 5.413.02 8 1a13.117 13.117 0 0 1-7 1v8a47.518 47.518 0 0 0 19 0v12a4.932 4.932 0 0 1-3-.5c1.844-2.804 2.511-5.97 2-9.5h-14c-1.208-.734-2.541-1.067-4-1a27.876 27.876 0 0 0 1.5 11c1.011.837 2.178 1.17 3.5 1 3.798.983 7.798 1.317 12 1-.342.838-1.008 1.172-2 1a72.444 72.444 0 0 0-12 .5 9.173 9.173 0 0 1 2 4.5 22.763 22.763 0 0 1-4-5c.039-1.256-.461-2.256-1.5-3-.5-6.992-.666-13.992-.5-21v-1z"/><path style="opacity:1" fill="#b0b1ae" d="M84.5 41.5h14c.511 3.53-.156 6.696-2 9.5.948.483 1.948.65 3 .5 0 .667-.333 1-1 1s-1 .333-1 1c-4.202.317-8.202-.017-12-1h7v-10c-2.885.306-5.552-.027-8-1z"/><path style="opacity:1" fill="#323a67" d="M41.5 38.5h2l5 4 10 11c-2.428-1.544-5.094-2.544-8-3-.432-5.427-3.432-8.094-9-8v-4z"/><path style="opacity:1" fill="#521819" d="M102.5 14.5c.986 4.47 1.319 9.137 1 14-.617.11-1.117.444-1.5 1a111.578 111.578 0 0 1-1.5 11 4.932 4.932 0 0 0 1 2.5c5.002 2.492 10.336 3.159 16 2 .923-2.04 1.256-4.208 1-6.5h1c-.163 2.357.003 4.69.5 7 .198-1.882.698-3.548 1.5-5v5h6a238.356 238.356 0 0 1-22 1.5c11.795 2.334 23.462 1.5 35-2.5-1.403 1.431-3.069 2.598-5 3.5-2.865.183-5.531.683-8 1.5h-6v11c-.823-3.477-1.323-7.144-1.5-11a392.58 392.58 0 0 0-.5 28h-1a61.282 61.282 0 0 1-9-5 21.445 21.445 0 0 0 7 1c1.265-1.014 1.931-2.514 2-4.5a136.65 136.65 0 0 1-1-19.5c-5.011-.166-10.011 0-15 .5-1.692 1.4-2.359 3.234-2 5.5-.901-.79-1.568-1.79-2-3 .667 0 1-.333 1-1v-2c1.811-.072 3.144-.905 4-2.5-.532-2.02-1.865-2.853-4-2.5v-10c1.907-4.339 2.907-9.005 3-14v-6z"/><path style="opacity:1" fill="#db2529" d="M48.5 42.5c2.018 1.123 4.018 1.123 6 0 .929 1.189 1.262 2.522 1 4h3v5c2.983.067 4.65-.933 5-3 1.182 6.716 5.182 11.55 12 14.5a6.807 6.807 0 0 0-3 1.5c1.353 1.024 2.02 2.357 2 4l-16-15-10-11z"/><path style="opacity:1" fill="#661f24" d="M100.5 55.5a9.82 9.82 0 0 0 3 4v5c-2.368-2.456-3.368-5.456-3-9z"/><path style="opacity:1" fill="#431b1c" d="M85.5 59.5a27.683 27.683 0 0 1 6 8c-2.97-1.943-4.97-4.61-6-8z"/><path style="opacity:1" fill="#938c8c" d="M98.5 52.5c.432 1.21 1.099 2.21 2 3-.368 3.544.632 6.544 3 9 .671 1.347.671 2.514 0 3.5a2.427 2.427 0 0 0 2 .5c2 .667 3.333 2 4 4a61.282 61.282 0 0 0 9 5c-1.51-1.228-3.01-1.228-4.5 0-5.154-2.093-9.654-5.593-13.5-10.5v-3c-3.044-.359-3.378-1.026-1-2a4.932 4.932 0 0 0-3-.5v-4a4.932 4.932 0 0 0 3-.5c-1.937-.122-3.27-.955-4-2.5.992.172 1.658-.162 2-1 0-.667.333-1 1-1z"/><path style="opacity:1" fill="#431c25" d="M103.5 64.5c1.604.787 2.271 2.12 2 4a2.427 2.427 0 0 1-2-.5c.671-.986.671-2.153 0-3.5z"/><path style="opacity:1" fill="#e81f26" d="M116.5 73.5a21.445 21.445 0 0 1-7-1c-.667-2-2-3.333-4-4 .271-1.88-.396-3.213-2-4v-5c-1.179-2.87-1.179-5.704 0-8.5a84.94 84.94 0 0 1 13-.5v23z"/><path style="opacity:1" fill="#d42d34" d="M116.5 73.5v-23a84.94 84.94 0 0 0-13 .5c-1.179 2.796-1.179 5.63 0 8.5a9.82 9.82 0 0 1-3-4c-.359-2.266.308-4.1 2-5.5 4.989-.5 9.989-.666 15-.5a136.65 136.65 0 0 0 1 19.5c-.069 1.986-.735 3.486-2 4.5z"/><path style="opacity:1" fill="#9f908d" d="M121.5 60.5v6c-.527 4.907-1.194 8.574-2 11-.166-9.34 0-18.673.5-28 .177 3.856.677 7.523 1.5 11z"/><path style="opacity:1" fill="#c12829" d="M127.5 49.5c-1.419.951-3.085 1.285-5 1 1.369 8.834 2.036 17.834 2 27 1.291-.237 2.291.096 3 1-1.644.213-3.144-.12-4.5-1-.175-4.52-.675-8.853-1.5-13v-15h6z"/><path style="opacity:1" fill="#bf262f" d="M74.5 68.5a25.196 25.196 0 0 1 5.5 3c1.3-.952 2.467-.952 3.5 0a6.807 6.807 0 0 1-3 1.5c2.587 2.08 4.587 4.58 6 7.5a102.01 102.01 0 0 1-12-12z"/><path style="opacity:1" fill="#4b2525" d="M94.5 70.5c2.249.58 3.915 1.913 5 4-2.295-.635-3.961-1.969-5-4z"/><path style="opacity:1" fill="#bd282b" d="M81.5 54.5a22.763 22.763 0 0 0 4 5c1.03 3.39 3.03 6.057 6 8a6.541 6.541 0 0 1 3 3c1.039 2.031 2.705 3.365 5 4 1.527-.073 2.527.594 3 2l1 2a553.574 553.574 0 0 1-10-5c-2.824-5.166-6.824-8.833-12-11v-8z"/><path style="opacity:1" fill="#ecece9" d="M95.5 54.5c.73 1.545 2.063 2.378 4 2.5a4.932 4.932 0 0 1-3 .5v4a4.932 4.932 0 0 1 3 .5c-2.378.974-2.044 1.641 1 2v3c3.846 4.907 8.346 8.407 13.5 10.5 1.49-1.228 2.99-1.228 4.5 0h1c.806-2.426 1.473-6.093 2-11-3.011 9.977.489 14.977 10.5 15a24.018 24.018 0 0 0 7.5-2c2.016.016 3.016 1.016 3 3a29.221 29.221 0 0 1-9 1 604.748 604.748 0 0 1-20-1c-3.146-2.744-6.813-4.744-11-6-.473-1.406-1.473-2.073-3-2-1.085-2.087-2.751-3.42-5-4a6.541 6.541 0 0 0-3-3 27.683 27.683 0 0 0-6-8 9.173 9.173 0 0 0-2-4.5 72.444 72.444 0 0 1 12-.5z"/><path style="opacity:1" fill="#471518" d="M102.5 76.5c4.187 1.256 7.854 3.256 11 6a89.812 89.812 0 0 0-10-4l-1-2z"/><path style="opacity:1" fill="#4f1c1e" d="M121.5 64.5c.825 4.147 1.325 8.48 1.5 13 1.356.88 2.856 1.213 4.5 1 4.832.629 9.832.795 15 .5 1.291 1.292 1.291 2.458 0 3.5.016-1.984-.984-2.984-3-3a24.018 24.018 0 0 1-7.5 2c-10.011-.023-13.511-5.023-10.5-15v-2z"/><path style="opacity:1" fill="#20619f" d="M6.5 22.5c.846 25.666 1.512 51.5 2 77.5a139.3 139.3 0 0 0 2 20.5h5c.285 1.788-.048 3.455-1 5a6.845 6.845 0 0 0-4-1 66.483 66.483 0 0 0 7 22h-2c-1.174-1.014-1.84-2.347-2-4-.764-3.637-2.097-6.97-4-10-1.574-1.602-2.24-3.602-2-6l-1-16v-88z"/><path style="opacity:1" fill="#6c494b" d="M113.5 82.5c6.535.437 13.201.77 20 1-3.798.983-7.798 1.317-12 1a24.939 24.939 0 0 1-7-.5c-.556-.383-.889-.883-1-1.5z"/><path style="opacity:1" fill="#570b0a" d="M142.5 82.5c-2.158 1.72-4.825 2.553-8 2.5-4.52.814-8.854.647-13-.5 4.202.317 8.202-.017 12-1 3.07.132 6.07-.201 9-1z"/><path style="opacity:1" fill="#373642" d="M4.5.5h3v1c.61.891.943 1.891 1 3a44.352 44.352 0 0 1-2-1 1434.912 1434.912 0 0 0 0 107l1 16c-1.484-4.753-2.318-9.753-2.5-15-.5-36.999-.667-73.999-.5-111z"/><path style="opacity:1" fill="#224779" d="M86.5 81.5c7 6.333 13.667 13 20 20-4.858-1.592-9.191-3.925-13-7 .622-4.532-1.378-6.698-6-6.5l2-2c-1.641-1.129-2.641-2.629-3-4.5z"/><path style="opacity:1" fill="#1561a9" d="M11.5 8.5a84.582 84.582 0 0 0 12 10 252.687 252.687 0 0 0 18 20v4c5.568-.094 8.568 2.573 9 8 2.906.456 5.572 1.456 8 3l16 15a102.01 102.01 0 0 0 12 12v1c.359 1.871 1.359 3.371 3 4.5l-2 2c4.622-.198 6.622 1.968 6 6.5 3.809 3.075 8.142 5.408 13 7l2 1a550.88 550.88 0 0 0 39 40c-7.98 15.314-19.647 26.98-35 35a442.887 442.887 0 0 1-17 5 267.73 267.73 0 0 1-34-1.5 116.613 116.613 0 0 0-14-4.5c-9.07-5.321-17.237-11.988-24.5-20a73.62 73.62 0 0 1-5.5-10 66.483 66.483 0 0 1-7-22 6.845 6.845 0 0 1 4 1c.952-1.545 1.285-3.212 1-5h-5a139.3 139.3 0 0 1-2-20.5c-.488-26-1.154-51.834-2-77.5-.166-5.344 0-10.677.5-16 1.11 1.537 2.61 2.204 4.5 2z"/><path style="opacity:1" fill="#b7ccdb" d="M70.5 84.5c3 1 5 3 6 6l-5-4-1-2z"/><path style="opacity:1" fill="#1860a6" d="m71.5 86.5 5 4a30.25 30.25 0 0 1 3 10c-2.815.296-5.482-.704-8-3-7.5-2.433-14.833-2.433-22 0-3.622-.178-6.956.489-10 2h-4c.19-3.303 1.19-6.303 3-9l2-1c7.48-5.198 15.814-7.031 25-5.5 1.717 1.559 3.717 2.392 6 2.5z"/><path style="opacity:1" fill="#a2b9d4" d="m40.5 89.5-2 1c-.438.065-.772-.101-1-.5 1.266-1.983 2.932-2.983 5-3-.88.708-1.547 1.542-2 2.5z"/><path style="opacity:1" fill="#2f4b71" d="m70.5 84.5 1 2c-2.283-.108-4.283-.941-6-2.5-9.186-1.531-17.52.302-25 5.5.453-.958 1.12-1.792 2-2.5-2.068.017-3.734 1.017-5 3 .228.399.562.565 1 .5-1.81 2.697-2.81 5.697-3 9h4c-2.652 1.789-5.652 2.789-9 3 .546-5.391 2.713-10.058 6.5-14 3.029-2.928 6.529-4.928 10.5-6 .417.624 1.084.957 2 1 7.17-2.832 14.17-2.499 21 1z"/><path style="opacity:1" fill="#b5c3d4" d="M70.5 84.5c-6.83-3.499-13.83-3.832-21-1-.916-.043-1.583-.376-2-1 5.824-1.964 11.824-2.464 18-1.5 2.084.697 3.751 1.864 5 3.5z"/><path style="opacity:1" fill="#acbac8" d="M76.5 90.5c3.207 3.268 4.873 7.268 5 12l-2-2a30.25 30.25 0 0 0-3-10z"/><path style="opacity:1" fill="#3b1421" d="m108.5 102.5 26 25a83.081 83.081 0 0 0 13.5 13c3.407-4.039 5.574-8.705 6.5-14h1a77.902 77.902 0 0 1-5 16h-3a550.88 550.88 0 0 1-39-40z"/><path style="opacity:1" fill="#83171f" d="M156.5 94.5h1v23c-.176 3.227-.843 6.227-2 9h-1v-4a10.134 10.134 0 0 1 1.5-4c.5-7.993.666-15.993.5-24z"/><path style="opacity:1" fill="#242631" d="m79.5 100.5 2 2c1.37.356 2.37 1.19 3 2.5a957.534 957.534 0 0 1-3.5 5.5 752.749 752.749 0 0 1-6.5 33c.87 2.409.87 4.742 0 7-12.473 5.489-24.806 5.323-37-.5-1.641-1.129-2.641-2.629-3-4.5.617-.111 1.117-.444 1.5-1l.5-5a799.809 799.809 0 0 0-4-31c-2.84-1.374-3.506-3.374-2-6 3.348-.211 6.348-1.211 9-3 3.044-1.511 6.378-2.178 10-2 7.167-2.433 14.5-2.433 22 0 2.518 2.296 5.185 3.296 8 3z"/><path style="opacity:1" fill="#71706d" d="M35.5 109.5c4.268 1.815 4.601 2.482 1 2-.886.825-1.219 1.825-1 3-1.22-1.55-1.22-3.216 0-5z"/><path style="opacity:1" fill="#cac7c7" d="M47.5 102.5c1.792.809 3.792 1.309 6 1.5l-2 1c5.418 3.004 5.085 5.171-1 6.5h-4l-2-2a88.88 88.88 0 0 1 9-2.5 4.934 4.934 0 0 0-3-.5c-2.226-1.256-4.559-1.256-7 0a31.12 31.12 0 0 0-2-2 20.807 20.807 0 0 1 6-2z"/><path style="opacity:1" fill="#ebedeb" d="M49.5 97.5h15a246.13 246.13 0 0 1-7 2c6.998 0 13.332 2 19 6 .793-.855.46-1.689-1-2.5a45.893 45.893 0 0 0-10-4 2.428 2.428 0 0 1 2-.5 51.472 51.472 0 0 1 15 7c-9.827 5.964-20.494 7.964-32 6 6.085-1.329 6.418-3.496 1-6.5l2-1c-2.208-.191-4.208-.691-6-1.5a54.251 54.251 0 0 0 6-2c-5.53-.451-10.864.716-16 3.5 1.67 1.669 3.67 2.502 6 2.5 2.441-1.256 4.774-1.256 7 0-2.893-.469-4.893.531-6 3a108.931 108.931 0 0 1-13-5 4016.69 4016.69 0 0 1 18-7z"/><path style="opacity:1" fill="#7e797a" d="M50.5 106.5a4.934 4.934 0 0 1 3 .5 88.88 88.88 0 0 0-9 2.5c1.107-2.469 3.107-3.469 6-3z"/><path style="opacity:1" fill="#424440" d="M47.5 102.5a20.807 20.807 0 0 0-6 2 31.12 31.12 0 0 1 2 2c-2.33.002-4.33-.831-6-2.5 5.136-2.784 10.47-3.951 16-3.5a54.251 54.251 0 0 1-6 2z"/><path style="opacity:1" fill="#878789" d="M64.5 97.5c1.291-.237 2.291.096 3 1a2.428 2.428 0 0 0-2 .5 45.893 45.893 0 0 1 10 4c1.46.811 1.793 1.645 1 2.5-5.668-4-12.002-6-19-6a246.13 246.13 0 0 0 7-2z"/><path style="opacity:1" fill="#f3f2f3" d="M44.5 111.5c-.417.722-1.084 1.222-2 1.5 3.064 1.932 6.398 2.599 10 2-1.237-.232-2.237-.732-3-1.5 9.996.846 19.662-.488 29-4 1.273.757 1.273 1.423 0 2a114.022 114.022 0 0 1-24 4c7.64 1.257 15.14.59 22.5-2 .765.07 1.265.403 1.5 1a307.532 307.532 0 0 1-14 3.5c4.136.671 8.136.171 12-1.5.607.124.94.457 1 1v3a149.343 149.343 0 0 1-13 2.5c4.185-.035 8.185.131 12 .5-3.986.829-7.986 1.663-12 2.5 6.667.667 6.667 1.333 0 2 2.31.497 4.643.663 7 .5v-3a20.691 20.691 0 0 0 5-1c-.847 1.466-2.18 2.3-4 2.5 1.237.232 2.237.732 3 1.5a144.171 144.171 0 0 0-11 2 47.02 47.02 0 0 0 10 .5 108.484 108.484 0 0 1-9 2c10.606.512 10.606 1.345 0 2.5 5.182 1.276 5.182 1.943 0 2v3a45.3 45.3 0 0 1 7-.5c-2.692.743-5.025 1.91-7 3.5-1.328 1.41-.995 2.576 1 3.5-5.323.499-10.656.666-16 .5a54.876 54.876 0 0 1-10-2.5c-1.016-.519-1.682-1.353-2-2.5a694.51 694.51 0 0 0-3-28c-.219-1.175.114-2.175 1-3 3.601.482 3.268-.185-1-2-1.273-.577-1.273-1.243 0-2a53.092 53.092 0 0 0 9 4z"/><path style="opacity:1" fill="#989697" d="M44.5 111.5h2l3 2c.763.768 1.763 1.268 3 1.5-3.602.599-6.936-.068-10-2 .916-.278 1.583-.778 2-1.5z"/><path style="opacity:1" fill="#8b8a8c" d="M78.5 111.5c1.125 1.152 1.125 2.152 0 3-.235-.597-.735-.93-1.5-1-7.36 2.59-14.86 3.257-22.5 2 8.19-.485 16.19-1.819 24-4z"/><path style="opacity:1" fill="#89868a" d="M78.5 114.5c.237 1.291-.096 2.291-1 3-.06-.543-.393-.876-1-1-3.864 1.671-7.864 2.171-12 1.5a307.532 307.532 0 0 0 14-3.5z"/><path style="opacity:1" fill="#747273" d="M77.5 120.5c.237 1.291-.096 2.291-1 3-3.815-.369-7.815-.535-12-.5 4.39-.645 8.723-1.478 13-2.5z"/><path style="opacity:1" fill="#928d8c" d="M76.5 123.5v1a20.691 20.691 0 0 1-5 1v3a24.935 24.935 0 0 1-7-.5c6.667-.667 6.667-1.333 0-2 4.014-.837 8.014-1.671 12-2.5z"/><path style="opacity:1" fill="#2a384b" d="M9.5 132.5c1.903 3.03 3.236 6.363 4 10-2.68-2.692-4.014-6.025-4-10z"/><path style="opacity:1" fill="#d02a2d" d="M154.5 122.5v4c-.926 5.295-3.093 9.961-6.5 14a83.081 83.081 0 0 1-13.5-13 21.435 21.435 0 0 0 7 1c-.154 4.535 1.846 7.869 6 10a10.258 10.258 0 0 0 1.5-4l1 1a98.948 98.948 0 0 1 4.5-13z"/><path style="opacity:1" fill="#898988" d="M75.5 128.5a90.555 90.555 0 0 1-2.5 13c-2.302 1.367-4.802 2.034-7.5 2 1.975-1.59 4.308-2.757 7-3.5a45.3 45.3 0 0 0-7 .5v-3c5.182-.057 5.182-.724 0-2 10.606-1.155 10.606-1.988 0-2.5a108.484 108.484 0 0 0 9-2 47.02 47.02 0 0 1-10-.5 144.171 144.171 0 0 1 11-2z"/><path style="opacity:1" fill="#235b91" d="M32.5 108.5a799.809 799.809 0 0 1 4 31l-.5 5c-.383.556-.883.889-1.5 1a404.084 404.084 0 0 1-2-37z"/><path style="opacity:1" fill="#595857" d="M65.5 143.5c1.328 2.245 3.161 2.578 5.5 1 .464.594.631 1.261.5 2-1.342 1.293-3.009 2.126-5 2.5-6.181.819-12.181.653-18-.5.992.172 1.658-.162 2-1 5.344.166 10.677-.001 16-.5-1.995-.924-2.328-2.09-1-3.5z"/><path style="opacity:1" fill="#f3f1f1" d="M48.5 148.5c5.819 1.153 11.819 1.319 18 .5 1.991-.374 3.658-1.207 5-2.5 2.152.577 2.485 1.744 1 3.5-9.226 2.91-18.56 3.243-28 1-3.12-.726-5.787-2.226-8-4.5l1.5-1a35.332 35.332 0 0 0 10.5 3z"/><path style="opacity:1" fill="#1d212e" d="M147.5 142.5h3c-5.643 10.152-12.976 18.985-22 26.5-4.955 3.643-10.288 6.476-16 8.5 15.353-8.02 27.02-19.686 35-35z"/><path style="opacity:1" fill="#192132" d="M15.5 146.5h2a73.62 73.62 0 0 0 5.5 10c7.263 8.012 15.43 14.679 24.5 20-14.187-6.185-24.854-16.185-32-30z"/><path style="opacity:1" fill="#141b29" d="M112.5 177.5c-5.08 3.292-10.746 4.958-17 5a442.887 442.887 0 0 0 17-5z"/><path style="opacity:1" fill="#30374b" d="M47.5 176.5a116.613 116.613 0 0 1 14 4.5 267.73 267.73 0 0 0 34 1.5c-.418.722-1.084 1.222-2 1.5-10.36.632-20.693.299-31-1-5.421-1.423-10.421-3.59-15-6.5z"/></svg>