<svg viewBox="0 0 498.88 598.91" xmlns="http://www.w3.org/2000/svg"><defs><style></style></defs><path d="M2 2v349.88c0 137.58 111.58 245.03 247.44 245.03s247.44-109.4 247.44-245.03V2z" fill="#02739f"/><rect x="96.116" y="238.29" width="306.64" height="210.14" rx="0" ry="0" fill="#f2f2f2" stroke="#000" stroke-linecap="round" stroke-linejoin="round" stroke-width="3.299"/><path d="M285.58 407.39h69.672m-69.672-12.026h74.84m-75.438 30.415h70.269m-69.971-7.61h69.971m-69.971-34.652h76.487m-79.476-11.785h83.071m-94.426-12.026h94.426m-223.09-106.66h214.32m-224.43 8.2h234.1m-234.1 15.494h234.1m-234.1 11.785h233.42m-233.42 12.035h233.2m-233.2 12.199h233.2m-233.2 8.283h233.2m-233.2 14.997h233.2m-233.2 12.004h233.2m-233.2 11.667h98.131m-98.131 12.026h88.868m-85.497 11.785h82.21m-79.513 11.847h79.214m-73.821 12.026h73.522m-73.522 10.778h74.12m-74.12 7.61h73.821m-62.099-137.26v12.035m0 11.931v8.453m0 15.095v12.004m0 11.667v12.026m0 11.785v11.847m0 12.026v10.778m0-156.93v15.494m53.216 11.785v12.035m0 11.931v8.453m0 15.095v12.004m0 11.667v12.026m0 11.785v11.847m0 12.026v10.778m0-156.93v15.494m-31.421 0v11.785m5.379 12.035v12.04m0 8.449v14.99m0 12.004v11.667m0 12.026v11.785m-7.77 11.847v12.026m7.77 10.778v7.61m0-172.74v8.2m53.216 15.494v11.785m0 12.035v12.039m0 8.449v14.99m0 12.004v8.145m0-103.14v8.199m80.733 27.279v12.035m0 11.931v8.453m0 15.095v12.004m0 11.667v12.026m0 11.785v11.847m6.574 12.026v10.778m-.598-156.93v15.494m-59.193 11.785v12.035m0 11.931v8.453m0 15.095v12.004m0-86.797v15.494m80.39 0v11.785m0 12.035v12.04m0 8.449v14.99m0 12.004v11.667m0 12.026v11.785m0 11.847v12.026m0 10.778v7.61m0-172.74v8.2m-53.216 15.493v11.785m0 12.035v12.04m0 8.449v14.99m0 12.004v11.667m0 12.026v11.785m0 11.847v12.026m0 10.778v7.61m0-172.74v8.2" fill="#fff" fill-rule="evenodd" stroke="#000" stroke-width=".589"/><g stroke="#000"><path d="m275.96 244.16-12.684 47.336H235.6l-12.684-47.336z" fill="#f2f2f2" stroke-width="3.299"/><path d="M101.24 204.73v46.943h296.4V204.73h-24.045v22.473H329.55V204.73h-24.045v22.473h-44.043V204.73h-24.045v22.473h-44.045V204.73h-24.045v22.473h-44.043V204.73z" fill="#f2f2f2" stroke-linecap="round" stroke-linejoin="round" stroke-width="3.299"/><g stroke-width="4"><path d="M2 2v349.88c0 137.58 111.58 245.03 247.44 245.03s247.44-109.4 247.44-245.03V2z" fill="none"/><path d="M198.08 30.977v72.618c0 28.554 23.158 50.857 51.357 50.857 28.198 0 51.357-22.707 51.357-50.857V30.977z" fill="#d50b2b"/><path d="M198.08 70.006v33.588c0 1.1.048 2.186.115 3.266h102.48c.07-1.08.117-2.168.117-3.266V70.006z" fill="#fff" stroke-linecap="round" stroke-linejoin="round"/></g></g><g stroke="#000"><path d="M366.02 163.088v210.92l-2.964 3.821-4.679 26.555h-2.895v16.464l-.567 3.227h.567v1.75h119.85v-1.75h.568l-.568-2.723v-16.967H471.8l-5.523-26.555-2.224-2.998v-211.75z" fill="#f2f2f2" stroke-width="3.299"/><path d="M362.52 153.308h105.99c-.163 6.79 1.179 9.564-4.65 11.852h-98.146c-5.199-2.207-2.505-6.448-3.197-11.852z" fill="#f2f2f2" stroke-width="3.299"/><path d="M366.52 314.088h97.121m-97.532 6.956h97.942m-97.942 9.86h97.737m-97.737 7.76h97.737m-97.737 9.73h97.532m-97.532 9.117h98.148m-97.737 6.485h97.532m-97.532 10.508h97.532m-100.91 4.122h103.23m-104.29 5.074h105.56m-107.02 7.816h108.5m-109.78 7.937h111.68m-115.67 4.947h120.12m-119.3 8.528h119.5m-119.3 12.357h119.09m-104.03-50.781-2.958 4.122m2.958 4.898-1.48 7.928m-1.9 8.001-1.057 4.947m4.437 8.528v12.357m0-67.774v6.486m0-25.331v9.729m0-27.35v9.86m22.563 43.6-1.268 4.122m1.268 4.898-1.48 7.928m-.422 8.001-.845 4.947m2.747 8.528v12.357m0-67.774v6.485m0-25.33v9.729m2.323-27.35v9.86M380.9 363.998v10.508m-1.056 4.122-1.057 4.97m-.634 7.925-1.268 7.932m4.015 4.947v8.528m0-64.534v9.117m0-26.607v7.761m0-24.576v6.956m27.491 42.951v10.508m0 4.122-.845 4.97m-.845 7.925-1.057 7.933m2.747 4.947v8.528m0-64.534v9.117m0-26.607v7.76m0-24.575v6.956m40.8 53.459 2.747 4.122m-2.747 4.898 1.69 7.928m-1.69 8.001 1.057 4.947m-1.057 8.528v12.357m0-67.774V364m0-25.33v9.728m0-27.349v9.86m-25.848 43.6 1.48 4.122m.21 4.898.846 7.928m.634 8.001.634 4.947m-3.804 8.528v12.357m2.033-67.774V364m-2.033-25.33v9.728m0-27.349v9.86M458.25 364v10.508m0 4.122 1.268 4.97m1.056 7.924 1.496 7.933m-3.82 4.947v8.528m0-64.534v9.117m0-26.607v7.76m0-24.575v6.956m-22.974 42.951v10.508m1.268 4.122 1.268 4.97m.422 7.925 1.268 7.932m-4.226 4.947v8.529m0-64.534v9.117m-2.468-26.607v7.76m2.468-24.576v6.957m-69.168-24.063h97.737m-98.272-131.9h99.1m-99.1 9.472h98.677m-98.233 9.076h97.905m-97.814 10.029h97.532m-97.532 9.04h97.737m-97.737 9.919h97.532m-97.532 9.701h97.737m-97.737 8.057h97.942m-97.737 7.92h97.942m-98.148 9.786h98.148m-98.558 7.767h98.558m-98.148 8.685h97.737m-97.943 8.77h98.353m-98.353 7.787h98.353m-98.353 7.821h98.148m-92.823-124.01v9.585m.205 9.14v10.029m0 9.04v9.919m0 9.701v8.057m0 7.92v9.786m0 7.767v8.685m0 8.77v7.787m0 7.821v8.072m0 5.477v11.15m22.358-148.71v9.585m.206 9.14v10.029m0 9.04v9.919m0 9.701v8.057m2.758 7.92v9.786m-2.758 7.767v8.685m0 8.77v7.787m0 7.821v8.072m0 5.477v11.15M380.91 174.56l-.011 9.072m0 10.029v9.04m0 9.919v9.701m0 8.057v7.92m0 9.786v7.766m0 8.686v8.77m0 7.786v7.822m0 8.072v5.477m27.49-127.9v9.071m-9.296 10.03v9.039m9.297 9.92v9.7m-8.452 8.058v7.919m8.452 9.786v7.767m-7.935 8.686v8.77m7.935 7.786v7.821m-8.664 8.073v5.477m49.67-137.56v9.584m-.206 9.14v10.03m0 9.039v9.92m0 9.7v8.058m0 7.919v9.787m0 7.766v8.686m0 8.77v7.786m0 7.822v8.072m0 5.477v11.15m-25.643-148.71v9.584m-.205 9.14v10.03m0 9.039v9.92m0 9.7v8.058m0 7.92v9.786m0 7.766v8.686m0 8.77v7.786m0 7.822v8.072m2.032 5.477v11.15m32.873-139.05v9.07m0 10.03v9.04m0 9.919v9.701m0 8.057v7.92m0 9.786v7.767m0 8.685v8.77m0 7.787v7.821m0 8.072v5.477m-22.974-127.9v9.072m0 10.029v9.04m0 9.919v9.701m-3.92 8.057v7.92m3.92 9.786v7.766m0 8.686v8.77m0 7.786v7.822m0 8.072v5.477m-68.963.18h97.532" fill="#fff" fill-rule="evenodd" stroke-width=".589"/></g><path d="M406.92 197.558h17.161v39.089H406.92zM423.73 260.623h14.936v28.284H423.73zM392.27 260.623h14.936v28.284H392.27z"/><path d="M355.32 106.667v46.943h120.22v-46.943h-24.045v22.473H427.45v-22.473h-24.045v22.473h-24.043v-22.473z" fill="#f2f2f2" stroke="#000" stroke-linecap="round" stroke-linejoin="round" stroke-width="3.299"/><g><g stroke="#000"><path d="M33.8 163.088v210.92l-2.964 3.821-4.679 26.555h-2.895v16.464l-.567 3.227h.567v1.75h119.85v-1.75h.568l-.568-2.723v-16.967h-3.532l-5.523-26.555-2.224-2.998v-211.75z" fill="#f2f2f2" stroke-width="3.299"/><path d="M30.3 153.308h105.99c-.163 6.79 1.179 9.564-4.65 11.852H33.495c-5.199-2.207-2.505-6.448-3.197-11.852z" fill="#f2f2f2" stroke-width="3.299"/><path d="M34.3 314.088h97.121m-97.532 6.956h97.942m-97.942 9.86h97.737m-97.737 7.76h97.737m-97.737 9.73h97.532m-97.532 9.117h98.148M34.3 363.996h97.532M34.3 374.504h97.532m-100.91 4.122h103.23M29.862 383.7h105.56m-107.02 7.816h108.5m-109.78 7.937h111.68M23.132 404.4h120.12m-119.3 8.528h119.5m-119.3 12.357h119.09m-104.03-50.781-2.958 4.122m2.958 4.898-1.48 7.928m-1.9 8.001-1.057 4.947m4.437 8.528v12.357m0-67.774v6.486m0-25.331v9.729m0-27.35v9.86m22.563 43.6-1.268 4.122m1.268 4.898-1.48 7.928m-.422 8.001-.845 4.947m2.747 8.528v12.357m0-67.774v6.485m0-25.33v9.729m2.323-27.35v9.86M48.68 363.998v10.508m-1.056 4.122-1.057 4.97m-.634 7.925-1.268 7.932m4.015 4.947v8.528m0-64.534v9.117m0-26.607v7.761m0-24.576v6.956m27.491 42.951v10.508m0 4.122-.845 4.97m-.845 7.925-1.057 7.933m2.747 4.947v8.528m0-64.534v9.117m0-26.607v7.76m0-24.575v6.956m40.8 53.459 2.747 4.122m-2.747 4.898 1.69 7.928m-1.69 8.001 1.057 4.947m-1.057 8.528v12.357m0-67.774V364m0-25.33v9.728m0-27.349v9.86m-25.848 43.6 1.48 4.122m.21 4.898.846 7.928m.634 8.001.634 4.947m-3.804 8.528v12.357m2.033-67.774V364m-2.033-25.33v9.728m0-27.349v9.86M126.03 364v10.508m0 4.122 1.268 4.97m1.056 7.924 1.496 7.933m-3.82 4.947v8.528m0-64.534v9.117m0-26.607v7.76m0-24.575v6.956m-22.974 42.951v10.508m1.268 4.122 1.268 4.97m.422 7.925 1.268 7.932m-4.226 4.947v8.529m0-64.534v9.117m-2.468-26.607v7.76m2.468-24.576v6.957m-69.168-24.063h97.737m-98.272-131.9h99.1m-99.1 9.472h98.677m-98.233 9.076h97.905m-97.814 10.029h97.532m-97.532 9.04h97.737m-97.737 9.919h97.532m-97.532 9.701h97.737m-97.737 8.057h97.942m-97.737 7.92h97.942m-98.148 9.786h98.148m-98.558 7.767h98.558m-98.148 8.685h97.737m-97.943 8.77h98.353m-98.353 7.787h98.353m-98.353 7.821h98.148m-92.823-124.01v9.585m.205 9.14v10.029m0 9.04v9.919m0 9.701v8.057m0 7.92v9.786m0 7.767v8.685m0 8.77v7.787m0 7.821v8.072m0 5.477v11.15m22.358-148.71v9.585m.206 9.14v10.029m0 9.04v9.919m0 9.701v8.057m2.758 7.92v9.786m-2.758 7.767v8.685m0 8.77v7.787m0 7.821v8.072m0 5.477v11.15M48.69 174.56l-.011 9.072m0 10.029v9.04m0 9.919v9.701m0 8.057v7.92m0 9.786v7.766m0 8.686v8.77m0 7.786v7.822m0 8.072v5.477m27.49-127.9v9.071m-9.296 10.03v9.039m9.297 9.92v9.7m-8.452 8.058v7.919m8.452 9.786v7.767m-7.935 8.686v8.77m7.935 7.786v7.821m-8.664 8.073v5.477m49.67-137.56v9.584m-.206 9.14v10.03m0 9.039v9.92m0 9.7v8.058m0 7.919v9.787m0 7.766v8.686m0 8.77v7.786m0 7.822v8.072m0 5.477v11.15m-25.643-148.71v9.584m-.205 9.14v10.03m0 9.039v9.92m0 9.7v8.058m0 7.92v9.786m0 7.766v8.686m0 8.77v7.786m0 7.822v8.072m2.032 5.477v11.15m32.873-139.05v9.07m0 10.03v9.04m0 9.919v9.701m0 8.057v7.92m0 9.786v7.767m0 8.685v8.77m0 7.787v7.821m0 8.072v5.477m-22.974-127.9v9.072m0 10.029v9.04m0 9.919v9.701m-3.92 8.057v7.92m3.92 9.786v7.766m0 8.686v8.77m0 7.786v7.822m0 8.072v5.477m-68.963.18h97.532" fill="#fff" fill-rule="evenodd" stroke-width=".589"/></g><path d="M74.7 197.558h17.161v39.089H74.7zM91.51 260.623h14.936v28.284H91.51zM60.05 260.623h14.936v28.284H60.05z"/><path d="M23.1 106.667v46.943h120.22v-46.943h-24.045v22.473H95.23v-22.473H71.185v22.473H47.142v-22.473z" fill="#f2f2f2" stroke="#000" stroke-linecap="round" stroke-linejoin="round" stroke-width="3.299"/></g><path d="M34.641 374.01h97.19M366.87 374.01h97.19" fill="none" stroke="#000" stroke-width="3.299"/><g stroke="#000" stroke-linecap="round" stroke-linejoin="round" stroke-width="3.299"><rect x="189.08" y="289.78" width="120.72" height="237.3" rx="60.358" ry="60.358" fill="#02739f"/><circle cx="185.28" cy="281.91" r="11.461"/><circle cx="313.59" cy="281.91" r="11.461"/><path d="M13.277 425.83c31.583 100.26 125.87 171.08 236.16 171.08 110.02 0 204.11-71.754 235.92-171.08z" fill="#f2f2f2"/><path d="M195.29 468.57a71.46 71.46 0 0 1-54.863 25.697 71.46 71.46 0 0 1-54.338-25.174 71.46 71.46 0 0 1-39.629 23.594c44.859 63.45 119.31 104.22 202.98 104.22 83.412 0 157.65-41.249 202.55-104.48a71.46 71.46 0 0 1-38.721-23.334 71.46 71.46 0 0 1-54.422 25.176 71.46 71.46 0 0 1-54.34-25.174 71.46 71.46 0 0 1-54.424 25.174 71.46 71.46 0 0 1-54.799-25.697z" fill="#057843"/><path d="M249.44 289.78c-1.73 0-3.435.09-5.127.23v32.463h-20.031V295.24a60.107 60.107 0 0 0-10.014 5.801v21.434h-18.51a59.926 59.926 0 0 0-4.068 10.016h22.578v28.23h10.014v-28.23h20.03v28.23h10.017v-28.23h20.029v28.23h10.016v-28.23h22.816a59.945 59.945 0 0 0-4.069-10.016h-18.748v-21.602a60.079 60.079 0 0 0-10.016-5.742v27.344h-20.029v-32.48a61.55 61.55 0 0 0-4.889-.213z" fill="#f5c801"/></g><g fill="none" stroke="#000" stroke-linecap="round" stroke-linejoin="round" stroke-width="3.299"><path d="M68.255 519.22a71.594 71.594 0 0 0 17.746 2.221 71.46 71.46 0 0 0 54.424-25.174 71.46 71.46 0 0 0 54.338 25.174 71.458 71.458 0 0 0 54.863-25.697 71.46 71.46 0 0 0 54.799 25.697 71.46 71.46 0 0 0 54.424-25.174 71.46 71.46 0 0 0 54.34 25.174 71.446 71.446 0 0 0 15.616-1.732M79.385 530.12a71.473 71.473 0 0 0 6.701-6.886 71.46 71.46 0 0 0 54.338 25.174 71.458 71.458 0 0 0 54.863-25.697 71.46 71.46 0 0 0 54.8 25.697 71.46 71.46 0 0 0 54.423-25.174 71.46 71.46 0 0 0 54.34 25.174 71.46 71.46 0 0 0 54.422-25.176 71.476 71.476 0 0 0 6.2 6.432M126.61 564.91c5.081-3.511 9.733-9.7 13.814-14.5 13.553 15.942 33.413 27.143 54.338 27.174 21.194-.006 41.291-11.42 54.863-27.697 13.558 16.26 33.628 27.672 54.799 27.697 20.955-.006 40.851-11.209 54.424-27.174 3.895 4.581 8.31 10.606 13.123 14.016M287.98 593.51a71.408 71.408 0 0 0 16.526-14.285 71.45 71.45 0 0 0 9.608 9.36M185.46 588.41a71.442 71.442 0 0 0 9.832-9.707 71.444 71.444 0 0 0 17.276 15.001"/></g></svg>