<svg xmlns="http://www.w3.org/2000/svg" height="491" width="412" xmlns:xlink="http://www.w3.org/1999/xlink"><g id="b" stroke="#000" stroke-linecap="square" stroke-miterlimit="9" stroke-width="5" fill="#f5c801"><use x="-412" xlink:href="#a" transform="scale(-1 1)"/><path stroke-linejoin="round" d="M199 97c-3.6-20.7-5-62-41-62-29 0-39 50 0 50-18-26 12-35 21-17 5 10 10 21.47 13 33m13 16h-4c-2-60-29-93-9-120 5-6.3 11-13 14-18 2.3 4 9 12 9 12m-8 127c-10 0-18 4-18 15l7 271h16m-6 12c-10 0-19 9-16 20 4 12 10.7 7.4 16 22 1-3 4-8.4 6-10" id="a"/><rect rx="6" height="12" width="40" y="106" x="186"/><rect rx="9" height="18" width="48" y="88" x="182"/><rect rx="6" height="12" width="32" y="404" x="190"/></g><path stroke="#000" stroke-width="10" d="M6 5v280a200 200 0 0 0 400 0V5z" fill="#02739f"/><use xlink:href="#b" transform="rotate(39 206 240)"/><use xlink:href="#b" transform="rotate(-39 206 240)"/></svg>