<svg xmlns="http://www.w3.org/2000/svg" width="166" height="207" style="shape-rendering:geometricPrecision;text-rendering:geometricPrecision;image-rendering:optimizeQuality;fill-rule:evenodd;clip-rule:evenodd"><path style="opacity:1" d="M-.5-.5h166v132c-7.483 39.815-30.816 64.815-70 75h-26c-40.12-10.451-63.453-36.118-70-77V-.5z"/><path style="opacity:1" fill="#006532" d="M3.5 3.5c45.335-.167 90.668 0 136 .5A14340.617 14340.617 0 0 1 10 152.5c-2.988-5.966-4.988-12.299-6-19-.5-43.332-.667-86.665-.5-130z"/><path style="opacity:1" fill="#fefffe" d="M142.5 3.5a40.94 40.94 0 0 1 9 .5l-7.5 7.5a97.153 97.153 0 0 0-7 21c-2.358 5.567-6.191 9.733-11.5 12.5a184.378 184.378 0 0 1-17 7 25.549 25.549 0 0 0-6.5 5.5 398.548 398.548 0 0 1-13 29c-5.87 6.69-13.037 11.524-21.5 14.5a18.776 18.776 0 0 0-5.5 4.5 134.192 134.192 0 0 0-8 21l-7.5 7.5a118.613 118.613 0 0 0-18 10A186.197 186.197 0 0 0 17 162.5c-.718.951-1.55 1.117-2.5.5l-4-7a9460.671 9460.671 0 0 0 132-152.5z"/><path style="opacity:1" fill="#003266" d="M157.5 3.5c1.478-.262 2.811.071 4 1a89.696 89.696 0 0 0-13.5 14c-.667 2-.667 4 0 6 4.706 9.153 6.372 18.82 5 29a187.355 187.355 0 0 1-7 17 94.884 94.884 0 0 0-1.5 8.5 234.313 234.313 0 0 0 6.5 23.5c.667 5 .667 10 0 15a161.94 161.94 0 0 0-5.5 21 91 91 0 0 0 7 21l-2.5 5a630.383 630.383 0 0 0-8.5-28 332.41 332.41 0 0 1 7-27.5L147 98.5a100.074 100.074 0 0 1-6.5-21.5 285.865 285.865 0 0 1 8.5-25.5 72.464 72.464 0 0 0 0-17 37.708 37.708 0 0 0-3.5-8l-7.5 17a45.255 45.255 0 0 1-8.5 7.5 441.062 441.062 0 0 1-19 8l-3.5 3.5c-3.992 9.3-7.992 18.632-12 28L87.5 98A86.504 86.504 0 0 0 68 109.5a262.687 262.687 0 0 1-12 25A4888.92 4888.92 0 0 1 34.5 147c-5.811 5.782-9.978 12.615-12.5 20.5-3.246 4.046-4.58 3.379-4-2 3.3-6.13 6.8-12.13 10.5-18a99.2 99.2 0 0 1 20-11.5c6.917-6.004 11.084-13.504 12.5-22.5.849-3.061 2.349-5.728 4.5-8a373.922 373.922 0 0 0 20-11.5l5.5-5.5a1106.58 1106.58 0 0 0 13-29l5.5-5.5c10.122-2.641 18.956-7.475 26.5-14.5a303.91 303.91 0 0 0 10-26c2.984-4.394 6.817-7.727 11.5-10z"/><path style="opacity:1" fill="#fefffe" d="M160.5 8.5a2692.19 2692.19 0 0 1 .5 127 97.184 97.184 0 0 1-7 21 65.115 65.115 0 0 1-5.5-18 1657.73 1657.73 0 0 1 6-27.5 254.167 254.167 0 0 0-7-32.5l.5-6c9.414-16.715 9.914-33.715 1.5-51a105.59 105.59 0 0 1 11-13z"/><path style="opacity:1" d="M65.5 22.5c.617.11 1.117.444 1.5 1 .667 4 .667 8 0 12-1.026 2.739-2.526 5.072-4.5 7-1.093 3.907-3.76 6.074-8 6.5 5.105 4.379 4.772 5.879-1 4.5a22.576 22.576 0 0 1-8 2c-.166 4.346.001 8.68.5 13a344.583 344.583 0 0 1 5-5l1 5a35.085 35.085 0 0 1 6-8c.493 1.634.66 3.3.5 5 3.114-.591 5.614-2.258 7.5-5 .6 4.106-.567 7.606-3.5 10.5 1.658.725 2.158 1.892 1.5 3.5a272.804 272.804 0 0 0-7.5 7c.02-1.643-.647-2.976-2-4 2.417-.572 4.584-1.572 6.5-3 .456-1.244-.044-2.077-1.5-2.5 2.398-1.636 3.565-3.802 3.5-6.5-1.789 1.729-3.956 2.396-6.5 2a4.932 4.932 0 0 0-.5-3 19.515 19.515 0 0 0-3.5 7c1.256-.404 2.423-1.07 3.5-2 1.258.35 1.59 1.016 1 2A77.994 77.994 0 0 1 45.5 81c2.85 1.289 5.85 1.789 9 1.5-2.787.977-5.787 1.31-9 1 .166 4.678 0 9.345-.5 14-1.066 1.783-2.566 2.283-4.5 1.5a4.938 4.938 0 0 1-1-2.5 45.74 45.74 0 0 0 1-12c-4.678.166-9.345 0-14-.5-2.48-.915-3.147-2.415-2-4.5-2.72-1.72-4.72-4.053-6-7l3-2c-2.439-3.772-2.439-7.438 0-11 .915 2.418 2.415 4.418 4.5 6 .368-1.41 1.201-2.41 2.5-3a25.86 25.86 0 0 1 3 5 14.974 14.974 0 0 0 3.5-3 25.104 25.104 0 0 0 5 8c.5-5.657.666-11.324.5-17-3.312.351-5.645-.982-7-4-5.547 1.62-6.214.453-2-3.5-10.808-5.803-12.808-13.803-6-24-3.016-3.953-2.183-6.787 2.5-8.5a11.292 11.292 0 0 1 4 2c2.305-3.11 4.805-3.443 7.5-1 1.468-1.195 2.968-1.195 4.5 0 4.245-3.425 8.412-3.092 12.5 1 1.598-.985 3.265-1.151 5-.5l-1 1c2.192 1.067 3.858 2.567 5 4.5z"/><path style="opacity:1" fill="#fe9900" d="M32.5 24.5c-1.732-4.768-.066-7.268 5-7.5l2 3a43.865 43.865 0 0 1-7 4.5zM46.5 16.5c2.357-.163 4.69.003 7 .5.792 3.91 2.459 4.41 5 1.5 1.8 3.592.966 6.259-2.5 8-.905-3.668-3.072-5.002-6.5-4-3.01-2.764-5.176-2.097-6.5 2a21.01 21.01 0 0 1-2.5-6c1.033-.952 2.2-.952 3.5 0 1.301-.139 2.134-.805 2.5-2z"/><path style="opacity:1" fill="#fe9900" d="M25.5 17.5c6.336.348 6.67 2.015 1 5-2.126-1.41-2.46-3.076-1-5zM32.5 24.5c4.31 3.434 8.143 7.434 11.5 12 1.184 8.149-2.316 11.649-10.5 10.5-9.62-3.833-12.453-10.667-8.5-20.5l5-5c.235 1.62 1.069 2.62 2.5 3zM65.5 22.5c1.658 11.537.324 11.704-4 .5l1-1.5c.917.627 1.917.96 3 1zM37.5 22.5c3.818 1.299 5.318 3.965 4.5 8a69.049 69.049 0 0 0-6.5-4.5 18.492 18.492 0 0 0 2-3.5zM45.5 22.5a186.2 186.2 0 0 1 3 2c2.37-1.598 4.036-1.098 5 1.5L47 32.5l-1 3c-1.825-4.262-1.992-8.595-.5-13zM62.5 42.5c-4.294 4.497-9.294 5.164-15 2a7.291 7.291 0 0 1-2-3 21.33 21.33 0 0 1 5-10c3.1-2.09 6.267-4.09 9.5-6 3.53 5.232 4.363 10.898 2.5 17z"/><path style="opacity:1" fill="#fefffe" d="M144.5 32.5c1.058 1.1 1.892 2.434 2.5 4a42.479 42.479 0 0 1 0 13 150.308 150.308 0 0 0-8.5 28 717.279 717.279 0 0 1 7 31.5 281.711 281.711 0 0 0-6 28c.878 7.581 3.045 14.747 6.5 21.5 1.106 3.622 1.439 7.289 1 11a195.987 195.987 0 0 1-13.5 14 7450.163 7450.163 0 0 1-1.5-122l-103 120a45.255 45.255 0 0 1-7.5-8.5c3.97-11.277 10.636-20.611 20-28 7.225-2.193 13.392-6.026 18.5-11.5l10-22A189.513 189.513 0 0 1 89.5 100c5.185-4.221 9.019-9.388 11.5-15.5 1.915-7.926 5.082-15.26 9.5-22a395.336 395.336 0 0 0 24-11.5c5.313-5.113 8.646-11.28 10-18.5z"/><path style="opacity:1" fill="#fe9900" d="M44.5 45.5c3.93.907 3.93 2.074 0 3.5-1.574.699-2.907.365-4-1 1.82-.2 3.153-1.034 4-2.5z"/><path style="opacity:1" fill="#fe9900" d="M33.5 51.5c-.11-.617-.444-1.117-1-1.5 3.673-1.687 7.173-1.187 10.5 1.5 3.697-2.43 7.53-2.596 11.5-.5-2.871.13-5.205 1.297-7 3.5l-4-2-4 2c-1.802-1.486-3.802-2.486-6-3zM52.5 71.5a106.47 106.47 0 0 1-8.5 9c-1.469 23.804-2.469 23.804-3 0a31.713 31.713 0 0 0-6.5-2c.843 1.673 2.176 2.84 4 3.5-4.053 1.94-8.053 1.773-12-.5l2-3c-3.012-.502-5.345-2.002-7-4.5 1.544-.29 2.877-.956 4-2-2.53-1.95-3.697-4.45-3.5-7.5a25.522 25.522 0 0 0 4.5 4 6.807 6.807 0 0 0 1.5-3 21.52 21.52 0 0 0 5 6c.29-1.544.956-2.877 2-4 1.256 3.55 3.256 6.55 6 9a353.132 353.132 0 0 0 2.5-22c.153 7.28.32 14.614.5 22a40.985 40.985 0 0 1 5-9c.595 1.399.428 2.732-.5 4 1.308 1.126 2.642 1.126 4 0z"/><path style="opacity:1" fill="#fe9900" d="M56.5 81.5c-.992-.172-1.658.162-2 1-3.15.289-6.15-.211-9-1.5A77.994 77.994 0 0 0 57 71.5c.59-.984.258-1.65-1-2-1.077.93-2.244 1.596-3.5 2a19.515 19.515 0 0 1 3.5-7c.483.948.65 1.948.5 3 2.544.396 4.711-.271 6.5-2 .065 2.698-1.102 4.864-3.5 6.5 1.456.423 1.956 1.256 1.5 2.5-1.916 1.428-4.083 2.428-6.5 3 1.353 1.024 2.02 2.357 2 4z"/><path style="opacity:1" fill="#006632" d="M128.5 68.5a2363.647 2363.647 0 0 1 .5 119c-20.671 15.192-43.504 19.359-68.5 12.5-11.203-3.535-21.203-9.202-30-17a8660.796 8660.796 0 0 0 98-114.5z"/><path style="opacity:1" d="M34.5 78.5c-3.6-.973-6.267-3.14-8-6.5 3.305 1.114 5.972 3.28 8 6.5z"/><path style="opacity:1" fill="#fefffe" d="M-.5 129.5c6.547 40.882 29.88 66.549 70 77h-70v-77zM165.5 131.5v75h-70c39.184-10.185 62.517-35.185 70-75z"/></svg>