<?xml version="1.0" encoding="UTF-8"?>
<!DOCTYPE svg PUBLIC "-//W3C//DTD SVG 1.1//EN" "http://www.w3.org/Graphics/SVG/1.1/DTD/svg11.dtd">
<svg xmlns="http://www.w3.org/2000/svg" version="1.1" width="166px" height="207px" style="shape-rendering:geometricPrecision; text-rendering:geometricPrecision; image-rendering:optimizeQuality; fill-rule:evenodd; clip-rule:evenodd" xmlns:xlink="http://www.w3.org/1999/xlink">
<g><path style="opacity:1" fill="#080808" d="M -0.5,-0.5 C 54.8333,-0.5 110.167,-0.5 165.5,-0.5C 165.5,44.1667 165.5,88.8333 165.5,133.5C 157.53,172.472 134.197,196.805 95.5,206.5C 86.8333,206.5 78.1667,206.5 69.5,206.5C 29.6208,196.954 6.2875,171.954 -0.5,131.5C -0.5,87.5 -0.5,43.5 -0.5,-0.5 Z"/></g>
<g><path style="opacity:1" fill="#013264" d="M 109.5,81.5 C 110.167,81.5 110.5,81.8333 110.5,82.5C 110.5,86.1667 110.5,89.8333 110.5,93.5C 110.5,94.5 110.5,95.5 110.5,96.5C 109.064,102.947 108.397,109.614 108.5,116.5C 108.5,117.167 108.5,117.833 108.5,118.5C 106.961,124.937 106.294,131.604 106.5,138.5C 106.5,138.833 106.5,139.167 106.5,139.5C 105.407,144.306 104.741,149.306 104.5,154.5C 94.8333,154.5 85.1667,154.5 75.5,154.5C 74.7194,134.504 74.5527,114.504 75,94.5C 75.3903,97.1042 76.2237,99.4375 77.5,101.5C 78.5982,106.149 79.7648,110.816 81,115.5C 87.3433,117.844 90.3433,115.511 90,108.5C 90.3333,104.167 90.6667,99.8333 91,95.5C 91.9772,94.2264 92.8106,94.2264 93.5,95.5C 90.4836,100.252 91.1503,104.419 95.5,108C 95.0217,109.303 94.355,110.469 93.5,111.5C 92.0532,112.134 91.3866,113.301 91.5,115C 92.0442,118.088 93.3775,120.755 95.5,123C 95.2568,123.902 94.9234,124.735 94.5,125.5C 92.4136,126.148 91.4136,127.648 91.5,130C 92.0442,133.088 93.3775,135.755 95.5,138C 92.0286,140.431 91.0286,143.598 92.5,147.5C 93.1687,145.369 93.8354,143.369 94.5,141.5C 95.7079,142.234 97.0413,142.567 98.5,142.5C 98.5,144.5 98.5,146.5 98.5,148.5C 99.5,148.5 100.5,148.5 101.5,148.5C 101.806,145.615 101.473,142.948 100.5,140.5C 96.5,138.5 96.5,136.5 100.5,134.5C 101.803,131.645 101.803,128.645 100.5,125.5C 99.7348,124.388 98.7348,123.721 97.5,123.5C 97.4609,121.641 98.2942,120.308 100,119.5C 100.801,116.633 100.634,113.966 99.5,111.5C 98.3995,110.395 97.7329,109.062 97.5,107.5C 98.7348,107.279 99.7348,106.612 100.5,105.5C 101.803,102.355 101.803,99.3553 100.5,96.5C 98.4677,95.9522 97.4677,94.6188 97.5,92.5C 98.8206,94.4202 100.154,94.5868 101.5,93C 99.3642,89.8896 97.3642,86.7229 95.5,83.5C 92.8004,82.7427 90.3004,81.4094 88,79.5C 86.1598,80.8331 85.6598,80.6665 86.5,79C 84.8068,78.1534 83.1401,77.3201 81.5,76.5C 81.5,75.8333 81.1667,75.5 80.5,75.5C 79.41,68.124 80.41,60.9573 83.5,54C 86.6927,51.7234 87.026,49.2234 84.5,46.5C 85.295,42.916 86.6283,39.5827 88.5,36.5C 88.2444,35.3109 87.9111,34.1442 87.5,33C 91.0526,25.8618 92.2192,18.3618 91,10.5C 89.7365,8.39297 87.9032,7.39297 85.5,7.5C 82.6851,8.12643 80.1851,9.45976 78,11.5C 77.4677,14.2635 76.6343,16.9302 75.5,19.5C 76.4226,22.4466 77.0893,25.4466 77.5,28.5C 80.2882,28.9231 82.2882,27.9231 83.5,25.5C 83.0431,24.7025 82.3764,24.3691 81.5,24.5C 80.3613,21.8765 80.3613,19.2098 81.5,16.5C 81.7795,13.2892 83.2795,12.2892 86,13.5C 86.5343,17.859 86.3676,22.1924 85.5,26.5C 85.6061,29.0786 84.9395,31.412 83.5,33.5C 82.5084,33.3284 81.8417,33.6618 81.5,34.5C 81.5,35.1667 81.5,35.8333 81.5,36.5C 81.5,38.1667 81.5,39.8333 81.5,41.5C 81.5,43.5 81.5,45.5 81.5,47.5C 80.5,47.5 79.5,47.5 78.5,47.5C 77.1472,49.1284 77.4805,50.4617 79.5,51.5C 79.4403,54.3408 78.7736,57.0075 77.5,59.5C 76.0687,58.2196 75.4021,56.5529 75.5,54.5C 75.5,54.1667 75.5,53.8333 75.5,53.5C 76.8146,52.1054 76.4812,51.1054 74.5,50.5C 74.5,50.1667 74.5,49.8333 74.5,49.5C 74.6567,48.1266 74.49,46.7932 74,45.5C 72.1518,43.3208 69.9852,41.4874 67.5,40C 74.8679,31.6058 75.3679,22.7725 69,13.5C 68.1841,12.1772 67.0174,11.5106 65.5,11.5C 63.9731,11.573 62.9731,10.9063 62.5,9.5C 60.3655,7.96656 57.8655,7.29989 55,7.5C 52.1345,7.29989 49.6345,7.96656 47.5,9.5C 45.6452,11.0331 43.8119,12.6997 42,14.5C 41.059,16.7274 39.8923,18.7274 38.5,20.5C 35.7141,27.8665 37.3807,34.3665 43.5,40C 39.5409,42.9566 35.8742,46.29 32.5,50C 35.0356,50.1862 37.369,50.6862 39.5,51.5C 36.5,51.5 33.5,51.5 30.5,51.5C 31.9099,62.6292 31.2432,73.6292 28.5,84.5C 29.4182,88.285 31.0849,91.6183 33.5,94.5C 31.8412,113.892 30.0079,133.558 28,153.5C 21.8888,154.809 15.7221,154.809 9.5,153.5C 6.59028,146.786 4.75695,139.786 4,132.5C 3.50001,89.5013 3.33334,46.5013 3.5,3.5C 56.1667,3.5 108.833,3.5 161.5,3.5C 161.667,47.8346 161.5,92.1679 161,136.5C 159.935,142.027 158.269,147.36 156,152.5C 154.389,131.173 152.889,109.84 151.5,88.5C 151.466,85.5666 152.299,82.9 154,80.5C 154.5,74.1754 154.666,67.8421 154.5,61.5C 151.5,61.5 148.5,61.5 145.5,61.5C 145.5,64.1667 145.5,66.8333 145.5,69.5C 144.5,69.5 143.5,69.5 142.5,69.5C 142.5,66.8333 142.5,64.1667 142.5,61.5C 139.167,61.5 135.833,61.5 132.5,61.5C 132.5,64.1667 132.5,66.8333 132.5,69.5C 131.167,69.5 129.833,69.5 128.5,69.5C 128.5,66.8333 128.5,64.1667 128.5,61.5C 125.833,61.5 123.167,61.5 120.5,61.5C 120.5,64.1667 120.5,66.8333 120.5,69.5C 119.167,69.5 117.833,69.5 116.5,69.5C 116.5,66.8333 116.5,64.1667 116.5,61.5C 113.5,61.5 110.5,61.5 107.5,61.5C 107.334,67.8421 107.5,74.1754 108,80.5C 108.383,81.056 108.883,81.3893 109.5,81.5 Z"/></g>
<g><path style="opacity:1" fill="#000000" d="M 62.5,9.5 C 57.4908,8.24774 52.4908,8.24774 47.5,9.5C 49.6345,7.96656 52.1345,7.29989 55,7.5C 57.8655,7.29989 60.3655,7.96656 62.5,9.5 Z"/></g>
<g><path style="opacity:1" fill="#fe9900" d="M 85.5,7.5 C 88.5518,9.05591 90.2185,11.5559 90.5,15C 89.4713,21.2476 88.138,27.4143 86.5,33.5C 85.5,33.5 84.5,33.5 83.5,33.5C 84.9395,31.412 85.6061,29.0786 85.5,26.5C 87.9121,21.9324 88.5788,17.0991 87.5,12C 83.971,9.62073 81.471,10.4541 80,14.5C 78.7449,18.0408 78.5782,21.5408 79.5,25C 80.4368,25.6917 81.1034,25.525 81.5,24.5C 82.3764,24.3691 83.0431,24.7025 83.5,25.5C 82.2882,27.9231 80.2882,28.9231 77.5,28.5C 77.0893,25.4466 76.4226,22.4466 75.5,19.5C 76.6343,16.9302 77.4677,14.2635 78,11.5C 80.1851,9.45976 82.6851,8.12643 85.5,7.5 Z"/></g>
<g><path style="opacity:1" fill="#fe9900" d="M 62.5,9.5 C 62.9731,10.9063 63.9731,11.573 65.5,11.5C 73.4473,20.5806 73.4473,29.5806 65.5,38.5C 65.0914,34.9302 65.0914,31.2635 65.5,27.5C 65.5,27.1667 65.5,26.8333 65.5,26.5C 67.3336,23.0604 66.3336,20.7271 62.5,19.5C 62.5,18.8333 62.1667,18.5 61.5,18.5C 61.1788,16.9519 60.1788,16.2852 58.5,16.5C 56.8333,16.5 55.1667,16.5 53.5,16.5C 51.9731,16.427 50.9731,17.0937 50.5,18.5C 48.7634,20.7436 46.7634,22.9103 44.5,25C 45.0702,27.7555 46.0702,30.2555 47.5,32.5C 47.427,34.0269 48.0937,35.0269 49.5,35.5C 49.5,35.8333 49.5,36.1667 49.5,36.5C 47.7816,37.224 45.9483,37.8906 44,38.5C 39.1234,33.4738 37.29,27.4738 38.5,20.5C 39.8923,18.7274 41.059,16.7274 42,14.5C 43.8119,12.6997 45.6452,11.0331 47.5,9.5C 52.4908,8.24774 57.4908,8.24774 62.5,9.5 Z"/></g>
<g><path style="opacity:1" fill="#000000" d="M 85.5,26.5 C 86.3676,22.1924 86.5343,17.859 86,13.5C 83.2795,12.2892 81.7795,13.2892 81.5,16.5C 80.3613,19.2098 80.3613,21.8765 81.5,24.5C 81.1034,25.525 80.4368,25.6917 79.5,25C 78.5782,21.5408 78.7449,18.0408 80,14.5C 81.471,10.4541 83.971,9.62073 87.5,12C 88.5788,17.0991 87.9121,21.9324 85.5,26.5 Z"/></g>
<g><path style="opacity:1" fill="#000000" d="M 53.5,16.5 C 53.0269,17.9063 52.0269,18.573 50.5,18.5C 50.9731,17.0937 51.9731,16.427 53.5,16.5 Z"/></g>
<g><path style="opacity:1" fill="#f59667" d="M 53.5,16.5 C 55.1667,16.5 56.8333,16.5 58.5,16.5C 59.2905,17.4013 60.2905,18.0679 61.5,18.5C 62.1667,18.5 62.5,18.8333 62.5,19.5C 62.2733,22.438 63.2733,24.7713 65.5,26.5C 65.5,26.8333 65.5,27.1667 65.5,27.5C 64.8333,29.1667 64.1667,30.8333 63.5,32.5C 62.7544,36.0704 61.4211,39.4037 59.5,42.5C 57.6293,41.233 55.7959,41.233 54,42.5C 52.647,41.3147 51.4803,39.9814 50.5,38.5C 51.5294,38.7036 52.5294,38.2036 53.5,37C 52.1221,35.6658 50.7887,35.4991 49.5,36.5C 49.5,36.1667 49.5,35.8333 49.5,35.5C 49.573,33.9731 48.9063,32.9731 47.5,32.5C 47.5,31.1667 47.5,29.8333 47.5,28.5C 48.8734,28.6567 50.2068,28.49 51.5,28C 50.6634,26.9887 50.33,25.8221 50.5,24.5C 53.9103,24.6162 55.2436,22.9496 54.5,19.5C 53.0695,19.4208 51.7362,19.7542 50.5,20.5C 49.537,20.0302 49.537,19.3635 50.5,18.5C 52.0269,18.573 53.0269,17.9063 53.5,16.5 Z"/></g>
<g><path style="opacity:1" fill="#000000" d="M 58.5,16.5 C 60.1788,16.2852 61.1788,16.9519 61.5,18.5C 60.2905,18.0679 59.2905,17.4013 58.5,16.5 Z"/></g>
<g><path style="opacity:1" fill="#000000" d="M 50.5,18.5 C 49.537,19.3635 49.537,20.0302 50.5,20.5C 51.7362,19.7542 53.0695,19.4208 54.5,19.5C 55.2436,22.9496 53.9103,24.6162 50.5,24.5C 50.33,25.8221 50.6634,26.9887 51.5,28C 50.2068,28.49 48.8734,28.6567 47.5,28.5C 47.5,29.8333 47.5,31.1667 47.5,32.5C 46.0702,30.2555 45.0702,27.7555 44.5,25C 46.7634,22.9103 48.7634,20.7436 50.5,18.5 Z"/></g>
<g><path style="opacity:1" fill="#000000" d="M 56.5,19.5 C 59.5876,19.1966 61.2542,20.5299 61.5,23.5C 58.4124,23.8034 56.7458,22.4701 56.5,19.5 Z"/></g>
<g><path style="opacity:1" fill="#000000" d="M 62.5,19.5 C 66.3336,20.7271 67.3336,23.0604 65.5,26.5C 63.2733,24.7713 62.2733,22.438 62.5,19.5 Z"/></g>
<g><path style="opacity:1" fill="#170f0b" d="M 54.5,29.5 C 55.7927,28.3552 56.9593,28.6885 58,30.5C 58.6667,31.5 58.6667,32.5 58,33.5C 56.7949,32.9288 55.6283,32.2621 54.5,31.5C 55.5498,30.5712 55.5498,29.9046 54.5,29.5 Z"/></g>
<g><path style="opacity:1" fill="#000000" d="M 63.5,32.5 C 62.5,32.5 61.5,32.5 60.5,32.5C 60.5,33.5 60.5,34.5 60.5,35.5C 59.448,35.6495 58.448,35.4828 57.5,35C 59.0456,33.5604 59.879,31.7271 60,29.5C 61.1827,28.269 62.3493,28.269 63.5,29.5C 62.624,30.2508 61.624,30.7508 60.5,31C 61.7375,31.2321 62.7375,31.7321 63.5,32.5 Z"/></g>
<g><path style="opacity:1" fill="#000000" d="M 47.5,32.5 C 48.9063,32.9731 49.573,33.9731 49.5,35.5C 48.0937,35.0269 47.427,34.0269 47.5,32.5 Z"/></g>
<g><path style="opacity:1" fill="#fe9900" d="M 81.5,34.5 C 84.0217,34.1281 86.0217,34.9614 87.5,37C 85.4546,37.4901 83.4546,37.3235 81.5,36.5C 81.5,35.8333 81.5,35.1667 81.5,34.5 Z"/></g>
<g><path style="opacity:1" fill="#fe9900" d="M 81.5,47.5 C 81.5,45.5 81.5,43.5 81.5,41.5C 82.1577,40.6016 82.8243,39.6016 83.5,38.5C 83.8333,38.8333 84.1667,39.1667 84.5,39.5C 83.9912,42.4621 82.9912,45.1288 81.5,47.5 Z"/></g>
<g><path style="opacity:1" fill="#fefffe" d="M 64.5,45.5 C 64.4614,44.2438 64.9614,43.2438 66,42.5C 66.5847,43.9976 66.0847,44.9976 64.5,45.5 Z"/></g>
<g><path style="opacity:1" fill="#fefffe" d="M 45.5,43.5 C 46.2674,44.172 46.9341,45.0053 47.5,46C 45.9387,46.1881 45.272,45.3547 45.5,43.5 Z"/></g>
<g><path style="opacity:1" fill="#fefffe" d="M 52.5,46.5 C 50.9153,45.9976 50.4153,44.9976 51,43.5C 52.0386,44.2438 52.5386,45.2438 52.5,46.5 Z"/></g>
<g><path style="opacity:1" fill="#fefffe" d="M 59.5,43.5 C 60.7736,44.1894 60.7736,45.0228 59.5,46C 58.5,46.6667 57.5,46.6667 56.5,46C 57.9423,45.6232 58.9423,44.7899 59.5,43.5 Z"/></g>
<g><path style="opacity:1" fill="#fefffe" d="M 64.5,45.5 C 64.1667,46.5 63.5,47.1667 62.5,47.5C 62.5,46.1667 63.1667,45.5 64.5,45.5 Z"/></g>
<g><path style="opacity:1" fill="#fefffe" d="M 52.5,46.5 C 54.0847,47.0024 54.5847,48.0024 54,49.5C 52.9614,48.7562 52.4614,47.7562 52.5,46.5 Z"/></g>
<g><path style="opacity:1" fill="#fefffe" d="M 62.5,47.5 C 62.2172,48.2891 61.7172,48.9558 61,49.5C 60.4719,48.184 60.9719,47.5173 62.5,47.5 Z"/></g>
<g><path style="opacity:1" fill="#fe9900" d="M 78.5,47.5 C 79.5,47.5 80.5,47.5 81.5,47.5C 84.0094,49.8176 83.3427,50.651 79.5,50C 78.7476,49.3292 78.4142,48.4959 78.5,47.5 Z"/></g>
<g><path style="opacity:1" fill="#fefffe" d="M 66.5,48.5 C 67.7733,49.0768 67.7733,49.7435 66.5,50.5C 65.537,50.0302 65.537,49.3635 66.5,48.5 Z"/></g>
<g><path style="opacity:1" fill="#fefffe" d="M 50.5,49.5 C 51.2891,49.7828 51.9558,50.2828 52.5,51C 51.184,51.5281 50.5173,51.0281 50.5,49.5 Z"/></g>
<g><path style="opacity:1" fill="#fefffe" d="M 74.5,49.5 C 74.5,49.8333 74.5,50.1667 74.5,50.5C 73.2921,51.2341 71.9587,51.5674 70.5,51.5C 71.5137,50.3263 72.847,49.6596 74.5,49.5 Z"/></g>
<g><path style="opacity:1" fill="#fefffe" d="M 39.5,51.5 C 41.8984,51.2594 43.8984,51.9261 45.5,53.5C 43.2143,53.405 41.2143,52.7384 39.5,51.5 Z"/></g>
<g><path style="opacity:1" fill="#fefffe" d="M 70.5,51.5 C 69.713,53.1042 68.3797,53.7709 66.5,53.5C 67.287,51.8958 68.6203,51.2291 70.5,51.5 Z"/></g>
<g><path style="opacity:1" fill="#fe9900" d="M 79.5,51.5 C 80.6491,51.7911 81.3158,52.6244 81.5,54C 79.3908,62.1566 77.3908,70.3233 75.5,78.5C 74.3509,78.2089 73.6842,77.3756 73.5,76C 75.0736,70.5396 76.4069,65.0396 77.5,59.5C 78.7736,57.0075 79.4403,54.3408 79.5,51.5 Z"/></g>
<g><path style="opacity:1" fill="#fefffe" d="M 45.5,53.5 C 47.153,53.6596 48.4863,54.3263 49.5,55.5C 49.1667,55.5 48.8333,55.5 48.5,55.5C 48.1667,55.5 47.8333,55.5 47.5,55.5C 46.5,55.1667 45.8333,54.5 45.5,53.5 Z"/></g>
<g><path style="opacity:1" fill="#fefffe" d="M 66.5,53.5 C 65.9976,55.0847 64.9976,55.5847 63.5,55C 64.2438,53.9614 65.2438,53.4614 66.5,53.5 Z"/></g>
<g><path style="opacity:1" fill="#fefffe" d="M 75.5,53.5 C 75.5,53.8333 75.5,54.1667 75.5,54.5C 74.1526,55.0283 72.8193,55.195 71.5,55C 72.5634,53.8118 73.8967,53.3118 75.5,53.5 Z"/></g>
<g><path style="opacity:1" fill="#fe9900" d="M 47.5,55.5 C 47.8333,55.5 48.1667,55.5 48.5,55.5C 48.6309,56.3764 48.2975,57.0431 47.5,57.5C 46.537,57.0302 46.537,56.3635 47.5,55.5 Z"/></g>
<g><path style="opacity:1" fill="#fefffe" d="M 49.5,55.5 C 51.1033,55.3118 52.4366,55.8118 53.5,57C 51.8602,57.3478 50.5268,56.8478 49.5,55.5 Z"/></g>
<g><path style="opacity:1" fill="#fefffe" d="M 36.5,57.5 C 38.7565,58.5618 39.9232,60.2285 40,62.5C 38.1978,61.2107 37.0312,59.5441 36.5,57.5 Z"/></g>
<g><path style="opacity:1" fill="#fe9900" d="M 54.5,60.5 C 56.7602,61.2376 56.9269,62.2376 55,63.5C 53.2716,62.6477 53.105,61.6477 54.5,60.5 Z"/></g>
<g><path style="opacity:1" fill="#fefffe" d="M 108.5,63.5 C 110.167,63.5 111.833,63.5 113.5,63.5C 113.5,66.1667 113.5,68.8333 113.5,71.5C 116.167,71.5 118.833,71.5 121.5,71.5C 121.5,68.8333 121.5,66.1667 121.5,63.5C 123.167,63.5 124.833,63.5 126.5,63.5C 126.5,66.1667 126.5,68.8333 126.5,71.5C 129.167,71.5 131.833,71.5 134.5,71.5C 134.5,68.8333 134.5,66.1667 134.5,63.5C 136.167,63.5 137.833,63.5 139.5,63.5C 139.5,66.1667 139.5,68.8333 139.5,71.5C 142.167,71.5 144.833,71.5 147.5,71.5C 147.5,68.8333 147.5,66.1667 147.5,63.5C 149.167,63.5 150.833,63.5 152.5,63.5C 152.5,68.5 152.5,73.5 152.5,78.5C 137.833,78.5 123.167,78.5 108.5,78.5C 108.5,73.5 108.5,68.5 108.5,63.5 Z"/></g>
<g><path style="opacity:1" fill="#fefffe" d="M 42.5,64.5 C 44.2726,65.3143 44.7726,66.6476 44,68.5C 43.2086,67.255 42.7086,65.9217 42.5,64.5 Z"/></g>
<g><path style="opacity:1" fill="#fe9900" d="M 58.5,65.5 C 60.0568,66.4663 61.3901,67.7996 62.5,69.5C 61.3539,70.7187 60.3539,72.0521 59.5,73.5C 58.6143,72.675 58.281,71.675 58.5,70.5C 54.5,69.8333 54.5,69.1667 58.5,68.5C 58.5,67.5 58.5,66.5 58.5,65.5 Z"/></g>
<g><path style="opacity:1" fill="#fefffe" d="M 41.5,69.5 C 42.7736,70.1894 42.7736,71.0228 41.5,72C 42.5,72.3333 43.5,72.6667 44.5,73C 39.5226,74.3812 38.5226,73.2146 41.5,69.5 Z"/></g>
<g><path style="opacity:1" fill="#fefffe" d="M 80.5,75.5 C 81.1667,75.5 81.5,75.8333 81.5,76.5C 81.2172,77.2891 80.7172,77.9558 80,78.5C 79.2599,77.2506 79.4265,76.2506 80.5,75.5 Z"/></g>
<g><path style="opacity:1" fill="#f89563" d="M 75.5,78.5 C 76.1174,78.3893 76.6174,78.056 77,77.5C 76.6888,78.9346 76.8555,80.2679 77.5,81.5C 76.1667,82.5 74.8333,83.5 73.5,84.5C 74.2624,84.9106 75.2624,85.0773 76.5,85C 77.0891,86.8733 76.4224,88.54 74.5,90C 71.2249,90.9286 68.2249,90.4286 65.5,88.5C 63.1889,89.2135 61.0223,90.2135 59,91.5C 57.3281,85.6722 59.4947,82.5055 65.5,82C 66.8333,80.3333 68.1667,78.6667 69.5,77C 70.5,76.3333 71.5,76.3333 72.5,77C 71.4413,81.0507 72.4413,81.5507 75.5,78.5 Z"/></g>
<g><path style="opacity:1" fill="#fefffe" d="M 39.5,80.5 C 41.9752,80.7467 41.9752,81.4134 39.5,82.5C 38.537,82.0302 38.537,81.3635 39.5,80.5 Z"/></g>
<g><path style="opacity:1" fill="#fefffe" d="M 50.5,82.5 C 50.3893,81.8826 50.056,81.3826 49.5,81C 51.8333,80.3333 54.1667,80.3333 56.5,81C 54.4817,81.5046 52.4817,82.0046 50.5,82.5 Z"/></g>
<g><path style="opacity:1" fill="#fefffe" d="M 109.5,81.5 C 123.339,80.1743 137.339,80.1743 151.5,81.5C 151.291,82.086 150.957,82.586 150.5,83C 137.092,83.8135 123.758,83.6468 110.5,82.5C 110.5,81.8333 110.167,81.5 109.5,81.5 Z"/></g>
<g><path style="opacity:1" fill="#fefffe" d="M 44.5,81.5 C 46.9752,81.7467 46.9752,82.4134 44.5,83.5C 43.537,83.0302 43.537,82.3635 44.5,81.5 Z"/></g>
<g><path style="opacity:1" fill="#fefffe" d="M 50.5,82.5 C 50.2172,83.2891 49.7172,83.9558 49,84.5C 48.4719,83.184 48.9719,82.5173 50.5,82.5 Z"/></g>
<g><path style="opacity:1" fill="#fa9665" d="M 95.5,83.5 C 97.3642,86.7229 99.3642,89.8896 101.5,93C 100.154,94.5868 98.8206,94.4202 97.5,92.5C 97.573,90.9731 96.9063,89.9731 95.5,89.5C 94.2513,87.0275 92.5847,86.8609 90.5,89C 91.3734,90.045 92.3734,90.8783 93.5,91.5C 94.8502,92.6499 94.6836,93.3166 93,93.5C 91.5,93 90,92.5 88.5,92C 86.1053,90.0729 83.772,88.2395 81.5,86.5C 82.2674,85.828 82.9341,84.9947 83.5,84C 87.4862,83.5012 91.4862,83.3345 95.5,83.5 Z"/></g>
<g><path style="opacity:1" fill="#fefffe" d="M 81.5,86.5 C 80.6733,91.6509 80.1733,96.9842 80,102.5C 78.9125,104.932 78.4125,104.598 78.5,101.5C 79.1665,95.9861 79.8332,90.3195 80.5,84.5C 81.2975,84.9569 81.6309,85.6236 81.5,86.5 Z"/></g>
<g><path style="opacity:1" fill="#fefffe" d="M 111.5,84.5 C 113.833,84.5 116.167,84.5 118.5,84.5C 118.5,87.1667 118.5,89.8333 118.5,92.5C 116.167,92.5 113.833,92.5 111.5,92.5C 111.5,89.8333 111.5,87.1667 111.5,84.5 Z"/></g>
<g><path style="opacity:1" fill="#fefffe" d="M 119.5,84.5 C 126.5,84.5 133.5,84.5 140.5,84.5C 140.5,87.1667 140.5,89.8333 140.5,92.5C 133.5,92.5 126.5,92.5 119.5,92.5C 119.5,89.8333 119.5,87.1667 119.5,84.5 Z"/></g>
<g><path style="opacity:1" fill="#fefffe" d="M 142.5,84.5 C 149.5,82.8333 152.167,85.5 150.5,92.5C 147.833,92.5 145.167,92.5 142.5,92.5C 142.5,89.8333 142.5,87.1667 142.5,84.5 Z"/></g>
<g><path style="opacity:1" fill="#101010" d="M 81.5,86.5 C 83.772,88.2395 86.1053,90.0729 88.5,92C 90,92.5 91.5,93 93,93.5C 94.6836,93.3166 94.8502,92.6499 93.5,91.5C 94.8333,91.5 95.5,90.8333 95.5,89.5C 96.9063,89.9731 97.573,90.9731 97.5,92.5C 95.9699,93.2112 94.6366,94.2112 93.5,95.5C 92.8106,94.2264 91.9772,94.2264 91,95.5C 90.6667,99.8333 90.3333,104.167 90,108.5C 90.3433,115.511 87.3433,117.844 81,115.5C 79.7648,110.816 78.5982,106.149 77.5,101.5C 77.8333,101.5 78.1667,101.5 78.5,101.5C 78.4125,104.598 78.9125,104.932 80,102.5C 80.1733,96.9842 80.6733,91.6509 81.5,86.5 Z"/></g>
<g><path style="opacity:1" fill="#000000" d="M 95.5,89.5 C 94.1667,89.5 93.5,90.1667 93.5,91.5C 92.3734,90.8783 91.3734,90.045 90.5,89C 92.5847,86.8609 94.2513,87.0275 95.5,89.5 Z"/></g>
<g><path style="opacity:1" fill="#fefffe" d="M 53.5,105.5 C 53.5995,99.6998 54.4328,94.0331 56,88.5C 55.9475,94.3704 55.1142,100.037 53.5,105.5 Z"/></g>
<g><path style="opacity:1" fill="#fefffe" d="M 95.5,89.5 C 95.5,90.8333 94.8333,91.5 93.5,91.5C 93.5,90.1667 94.1667,89.5 95.5,89.5 Z"/></g>
<g><path style="opacity:1" fill="#fe9900" d="M 69.5,92.5 C 70.3764,92.3691 71.0431,92.7025 71.5,93.5C 64.4735,121.607 57.1402,149.607 49.5,177.5C 55.1185,149.105 61.7852,120.772 69.5,92.5 Z"/></g>
<g><path style="opacity:1" fill="#fefffe" d="M 97.5,92.5 C 97.4677,94.6188 98.4677,95.9522 100.5,96.5C 100.664,99.1873 100.497,101.854 100,104.5C 99.6667,102.167 99.3333,99.8333 99,97.5C 97.3333,97.5 95.6667,97.5 94,97.5C 93.3333,99.8333 93.3333,102.167 94,104.5C 95.0084,104.982 96.175,105.148 97.5,105C 98.5981,105.77 98.5981,106.603 97.5,107.5C 97.7329,109.062 98.3995,110.395 99.5,111.5C 97.5,111.5 95.5,111.5 93.5,111.5C 94.355,110.469 95.0217,109.303 95.5,108C 91.1503,104.419 90.4836,100.252 93.5,95.5C 94.6366,94.2112 95.9699,93.2112 97.5,92.5 Z"/></g>
<g><path style="opacity:1" fill="#fefffe" d="M 82.5,93.5 C 83.8946,95.8473 83.7279,98.1806 82,100.5C 82.2068,98.2487 82.3735,95.9154 82.5,93.5 Z"/></g>
<g><path style="opacity:1" fill="#fdfdfd" d="M 110.5,93.5 C 116.5,93.5 122.5,93.5 128.5,93.5C 128.5,96.5 128.5,99.5 128.5,102.5C 129.833,102.5 131.167,102.5 132.5,102.5C 132.5,99.5 132.5,96.5 132.5,93.5C 138.5,93.5 144.5,93.5 150.5,93.5C 151.092,102.305 151.426,111.305 151.5,120.5C 145.167,120.5 138.833,120.5 132.5,120.5C 132.5,117.5 132.5,114.5 132.5,111.5C 131.167,111.5 129.833,111.5 128.5,111.5C 128.5,114.5 128.5,117.5 128.5,120.5C 121.416,121.126 114.75,120.459 108.5,118.5C 108.5,117.833 108.5,117.167 108.5,116.5C 109.936,110.053 110.603,103.386 110.5,96.5C 110.5,95.5 110.5,94.5 110.5,93.5 Z"/></g>
<g><path style="opacity:1" fill="#fefffe" d="M 33.5,94.5 C 35.0269,94.427 36.0269,95.0937 36.5,96.5C 34.9731,96.573 33.9731,95.9063 33.5,94.5 Z"/></g>
<g><path style="opacity:1" fill="#fefffe" d="M 60.5,94.5 C 61.5316,96.4338 62.1983,98.6005 62.5,101C 62.4424,106.018 62.2757,111.185 62,116.5C 60.7534,109.221 60.2534,101.888 60.5,94.5 Z"/></g>
<g><path style="opacity:1" fill="#fefffe" d="M 36.5,96.5 C 38.0847,97.0024 38.5847,98.0024 38,99.5C 36.9614,98.7562 36.4614,97.7562 36.5,96.5 Z"/></g>
<g><path style="opacity:1" fill="#000000" d="M 110.5,96.5 C 110.603,103.386 109.936,110.053 108.5,116.5C 108.397,109.614 109.064,102.947 110.5,96.5 Z"/></g>
<g><path style="opacity:1" fill="#111e36" d="M 100.5,96.5 C 101.803,99.3553 101.803,102.355 100.5,105.5C 99.7348,106.612 98.7348,107.279 97.5,107.5C 98.5981,106.603 98.5981,105.77 97.5,105C 96.175,105.148 95.0084,104.982 94,104.5C 93.3333,102.167 93.3333,99.8333 94,97.5C 95.6667,97.5 97.3333,97.5 99,97.5C 99.3333,99.8333 99.6667,102.167 100,104.5C 100.497,101.854 100.664,99.1873 100.5,96.5 Z"/></g>
<g><path style="opacity:1" fill="#fefffe" d="M 42.5,100.5 C 43.6225,102.288 43.7891,104.288 43,106.5C 41.5585,104.695 41.3918,102.695 42.5,100.5 Z"/></g>
<g><path style="opacity:1" fill="#fefffe" d="M 47.5,101.5 C 48.3213,104.641 48.8213,107.975 49,111.5C 53.5069,116.082 53.1736,116.415 48,112.5C 47.5014,108.848 47.3347,105.182 47.5,101.5 Z"/></g>
<g><path style="opacity:1" fill="#000000" d="M 117.5,102.5 C 118.803,105.355 118.803,108.355 117.5,111.5C 116.679,108.554 116.679,105.554 117.5,102.5 Z"/></g>
<g><path style="opacity:1" fill="#fefffe" d="M 53.5,105.5 C 53.3367,107.857 53.5034,110.19 54,112.5C 54.7504,113.126 55.5838,113.626 56.5,114C 55.2161,114.684 54.0495,114.517 53,113.5C 52.1993,110.633 52.3659,107.966 53.5,105.5 Z"/></g>
<g><path style="opacity:1" fill="#fefffe" d="M 86.5,107.5 C 87.709,109.435 87.5423,111.435 86,113.5C 85.8195,111.512 85.9862,109.512 86.5,107.5 Z"/></g>
<g><path style="opacity:1" fill="#fefffe" d="M 93.5,111.5 C 93.3367,113.857 93.5034,116.19 94,118.5C 95.6667,119.833 97.3333,119.833 99,118.5C 99.4966,116.19 99.6633,113.857 99.5,111.5C 100.634,113.966 100.801,116.633 100,119.5C 98.2942,120.308 97.4609,121.641 97.5,123.5C 97.6107,124.117 97.944,124.617 98.5,125C 97.2068,125.49 95.8734,125.657 94.5,125.5C 94.9234,124.735 95.2568,123.902 95.5,123C 93.3775,120.755 92.0442,118.088 91.5,115C 91.3866,113.301 92.0532,112.134 93.5,111.5 Z"/></g>
<g><path style="opacity:1" fill="#0f2241" d="M 93.5,111.5 C 95.5,111.5 97.5,111.5 99.5,111.5C 99.6633,113.857 99.4966,116.19 99,118.5C 97.3333,119.833 95.6667,119.833 94,118.5C 93.5034,116.19 93.3367,113.857 93.5,111.5 Z"/></g>
<g><path style="opacity:1" fill="#fefffe" d="M 50.5,121.5 C 51.9458,136.748 51.4458,152.082 49,167.5C 49.5287,152.194 50.0287,136.861 50.5,121.5 Z"/></g>
<g><path style="opacity:1" fill="#fcfcfc" d="M 138.5,137.5 C 138.573,135.973 137.906,134.973 136.5,134.5C 136.423,133.25 135.756,132.417 134.5,132C 130.171,130.849 126.338,131.682 123,134.5C 122.517,135.448 122.351,136.448 122.5,137.5C 117.5,137.5 112.5,137.5 107.5,137.5C 107.833,132.167 108.167,126.833 108.5,121.5C 111.711,121.012 114.544,121.679 117,123.5C 125.23,121.548 133.73,120.882 142.5,121.5C 142.125,124.397 142.625,127.063 144,129.5C 144.175,126.843 144.008,124.176 143.5,121.5C 146.167,121.5 148.833,121.5 151.5,121.5C 152.275,126.797 152.608,132.13 152.5,137.5C 147.833,137.5 143.167,137.5 138.5,137.5 Z"/></g>
<g><path style="opacity:1" fill="#fefffe" d="M 94.5,125.5 C 93.4448,128.073 93.2782,130.739 94,133.5C 95.6667,134.833 97.3333,134.833 99,133.5C 99.3333,131.167 99.6667,128.833 100,126.5C 100.497,129.146 100.664,131.813 100.5,134.5C 96.5,136.5 96.5,138.5 100.5,140.5C 100.663,142.857 100.497,145.19 100,147.5C 99.6667,145.5 99.3333,143.5 99,141.5C 97.3845,140.199 95.8845,140.199 94.5,141.5C 93.8354,143.369 93.1687,145.369 92.5,147.5C 91.0286,143.598 92.0286,140.431 95.5,138C 93.3775,135.755 92.0442,133.088 91.5,130C 91.4136,127.648 92.4136,126.148 94.5,125.5 Z"/></g>
<g><path style="opacity:1" fill="#111f37" d="M 97.5,123.5 C 98.7348,123.721 99.7348,124.388 100.5,125.5C 101.803,128.645 101.803,131.645 100.5,134.5C 100.664,131.813 100.497,129.146 100,126.5C 99.6667,128.833 99.3333,131.167 99,133.5C 97.3333,134.833 95.6667,134.833 94,133.5C 93.2782,130.739 93.4448,128.073 94.5,125.5C 95.8734,125.657 97.2068,125.49 98.5,125C 97.944,124.617 97.6107,124.117 97.5,123.5 Z"/></g>
<g><path style="opacity:1" fill="#fefffe" d="M 38.5,146.5 C 38.6027,140.139 39.1027,133.806 40,127.5C 40.5429,134.045 40.0429,140.378 38.5,146.5 Z"/></g>
<g><path style="opacity:1" fill="#fefffe" d="M -0.5,131.5 C 6.2875,171.954 29.6208,196.954 69.5,206.5C 46.1667,206.5 22.8333,206.5 -0.5,206.5C -0.5,181.5 -0.5,156.5 -0.5,131.5 Z"/></g>
<g><path style="opacity:1" fill="#fefffe" d="M 136.5,134.5 C 136.427,136.027 137.094,137.027 138.5,137.5C 137.998,160.157 137.165,160.157 136,137.5C 135.617,136.944 135.117,136.611 134.5,136.5C 133.508,134.974 132.008,134.307 130,134.5C 128.319,134.608 127.152,135.275 126.5,136.5C 125.883,136.611 125.383,136.944 125,137.5C 124.83,143.196 124.33,148.862 123.5,154.5C 121.846,147.612 122.346,140.945 125,134.5C 128.863,131.898 132.696,131.898 136.5,134.5 Z"/></g>
<g><path style="opacity:1" fill="#fefffe" d="M 165.5,133.5 C 165.5,157.833 165.5,182.167 165.5,206.5C 142.167,206.5 118.833,206.5 95.5,206.5C 134.197,196.805 157.53,172.472 165.5,133.5 Z"/></g>
<g><path style="opacity:1" fill="#fefffe" d="M 63.5,134.5 C 64.2389,134.369 64.9056,134.536 65.5,135C 64.1177,139.705 63.4511,139.539 63.5,134.5 Z"/></g>
<g><path style="opacity:1" fill="#000000" d="M 136.5,134.5 C 137.906,134.973 138.573,135.973 138.5,137.5C 137.094,137.027 136.427,136.027 136.5,134.5 Z"/></g>
<g><path style="opacity:1" fill="#cb0000" d="M 126.5,136.5 C 127.496,136.586 128.329,136.252 129,135.5C 129.5,141.825 129.666,148.158 129.5,154.5C 128.167,154.5 126.833,154.5 125.5,154.5C 125.227,152.549 125.893,151.049 127.5,150C 124.906,147.928 124.906,145.761 127.5,143.5C 125.249,141.47 124.916,139.136 126.5,136.5 Z"/></g>
<g><path style="opacity:1" fill="#cb0000" d="M 134.5,136.5 C 136.084,139.136 135.751,141.47 133.5,143.5C 136.094,145.761 136.094,147.928 133.5,150C 135.107,151.049 135.773,152.549 135.5,154.5C 133.833,154.5 132.167,154.5 130.5,154.5C 130.17,148.132 130.504,141.798 131.5,135.5C 132.417,136.127 133.417,136.461 134.5,136.5 Z"/></g>
<g><path style="opacity:1" fill="#fefffe" d="M 106.5,138.5 C 109.167,138.5 111.833,138.5 114.5,138.5C 114.5,141.167 114.5,143.833 114.5,146.5C 111.833,146.5 109.167,146.5 106.5,146.5C 106.5,144.167 106.5,141.833 106.5,139.5C 106.5,139.167 106.5,138.833 106.5,138.5 Z"/></g>
<g><path style="opacity:1" fill="#fefffe" d="M 116.5,138.5 C 118.167,138.5 119.833,138.5 121.5,138.5C 121.5,141.167 121.5,143.833 121.5,146.5C 119.5,146.5 117.5,146.5 115.5,146.5C 115.279,143.721 115.612,141.054 116.5,138.5 Z"/></g>
<g><path style="opacity:1" fill="#fefffe" d="M 139.5,138.5 C 140.833,138.5 142.167,138.5 143.5,138.5C 143.833,143.833 144.167,143.833 144.5,138.5C 151.48,136.953 154.48,139.62 153.5,146.5C 148.833,146.5 144.167,146.5 139.5,146.5C 139.5,143.833 139.5,141.167 139.5,138.5 Z"/></g>
<g><path style="opacity:1" fill="#000000" d="M 94.5,141.5 C 95.8845,140.199 97.3845,140.199 99,141.5C 99.3333,143.5 99.6667,145.5 100,147.5C 100.497,145.19 100.663,142.857 100.5,140.5C 101.473,142.948 101.806,145.615 101.5,148.5C 100.5,148.5 99.5,148.5 98.5,148.5C 98.5,146.5 98.5,144.5 98.5,142.5C 97.0413,142.567 95.7079,142.234 94.5,141.5 Z"/></g>
<g><path style="opacity:1" fill="#fefffe" d="M 38.5,146.5 C 38.6076,150.247 38.1076,153.914 37,157.5C 36.6496,153.619 37.1496,149.952 38.5,146.5 Z"/></g>
<g><path style="opacity:1" fill="#fefffe" d="M 106.5,147.5 C 111.5,147.5 116.5,147.5 121.5,147.5C 121.5,149.833 121.5,152.167 121.5,154.5C 116.167,154.5 110.833,154.5 105.5,154.5C 105.674,152.139 106.007,149.806 106.5,147.5 Z"/></g>
<g><path style="opacity:1" fill="#fefffe" d="M 139.5,147.5 C 144.167,147.5 148.833,147.5 153.5,147.5C 153.5,149.833 153.5,152.167 153.5,154.5C 148.833,154.5 144.167,154.5 139.5,154.5C 139.5,152.167 139.5,149.833 139.5,147.5 Z"/></g>
<g><path style="opacity:1" fill="#fefffe" d="M 55.5,173.5 C 55.5,173.167 55.5,172.833 55.5,172.5C 56.5,172.5 57.5,172.5 58.5,172.5C 58.3338,166.158 58.5005,159.825 59,153.5C 59.1871,160.081 59.6871,166.581 60.5,173C 58.8659,173.494 57.1992,173.66 55.5,173.5 Z"/></g>
<g><path style="opacity:1" fill="#016633" d="M 39.5,170.5 C 42.5,170.5 45.5,170.5 48.5,170.5C 47.9084,173.127 47.5751,175.794 47.5,178.5C 48.8734,178.657 50.2068,178.49 51.5,178C 52.3968,175.689 53.7301,173.856 55.5,172.5C 55.5,172.833 55.5,173.167 55.5,173.5C 55.178,175.722 55.8446,177.556 57.5,179C 62.9025,179.869 68.2358,181.036 73.5,182.5C 74.8333,182.167 76.1667,181.833 77.5,181.5C 77.3333,181.167 77.1667,180.833 77,180.5C 74.0965,177.854 70.9299,175.854 67.5,174.5C 67.5,174.167 67.5,173.833 67.5,173.5C 72.3318,173.101 75.6651,170.768 77.5,166.5C 76.6203,163.198 75.9537,159.865 75.5,156.5C 101.5,156.5 127.5,156.5 153.5,156.5C 147.973,171.331 138.307,182.831 124.5,191C 102.291,203.561 78.9575,205.894 54.5,198C 35.1696,189.837 20.8363,176.337 11.5,157.5C 16.456,156.506 21.456,156.173 26.5,156.5C 25.8081,159.897 25.8081,163.23 26.5,166.5C 29.0337,167.776 31.5337,168.11 34,167.5C 35.6487,168.953 37.4821,169.953 39.5,170.5 Z"/></g>
<g><path style="opacity:1" fill="#000000" d="M 39.5,170.5 C 40.9187,171.451 42.5853,171.784 44.5,171.5C 42.9981,175.679 40.3315,179.012 36.5,181.5C 35.5581,181.392 34.7247,181.059 34,180.5C 33.3333,177.5 33.3333,174.5 34,171.5C 35.6995,170.594 37.5328,170.261 39.5,170.5 Z"/></g>
<g><path style="opacity:1" fill="#fefffe" d="M 67.5,173.5 C 67.5,173.833 67.5,174.167 67.5,174.5C 65.4727,174.662 63.4727,174.495 61.5,174C 62.7932,173.51 64.1266,173.343 65.5,173.5C 65.3505,172.448 65.5172,171.448 66,170.5C 66.2321,171.737 66.7321,172.737 67.5,173.5 Z"/></g>
</svg>
