<svg xmlns="http://www.w3.org/2000/svg" width="166" height="207" style="shape-rendering:geometricPrecision;text-rendering:geometricPrecision;image-rendering:optimizeQuality;fill-rule:evenodd;clip-rule:evenodd"><path style="opacity:1" d="M-.5-.5h166v133c-4.482 28.995-19.482 50.828-45 65.5-8.18 3.619-16.514 6.453-25 8.5h-24c-42.293-8.965-66.293-34.965-72-78V-.5z"/><path style="opacity:1" fill="#002b72" d="M3.5 3.5c26.009-.333 52.008 0 78 1a534.538 534.538 0 0 1-23 66.5c-18.33.5-36.664.667-55 .5v-68zM85.5 3.5h76v68c-18.679.333-37.345 0-56-1a483.719 483.719 0 0 1-20-67z"/><path style="opacity:1" fill="#fea700" d="M95.5 51.5c-3.906-4.167-6.406-9.167-7.5-15a197.637 197.637 0 0 1-5-25 33.746 33.746 0 0 0-1.5 11v1c-2.778 9.242-6.445 18.242-11 27l5 2a62.585 62.585 0 0 1-10 13.5c7.32-.63 8.32 1.037 3 5a16.25 16.25 0 0 1-8 0A474.502 474.502 0 0 0 83 5.5a1947.317 1947.317 0 0 1 12.5 46z"/><path style="opacity:1" d="M40.5 59.5c5.032 1.87 10.365 2.537 16 2v-3h-16v-1a2808.682 2808.682 0 0 1-3.5-14 173.816 173.816 0 0 1-3.5 18l-8.5 1c-3.276-.058-6.276-.724-9-2A286.324 286.324 0 0 0 11.5 35c5.364-.17 10.698-.67 16-1.5a408.904 408.904 0 0 1-4-25h27a258.042 258.042 0 0 1-4 25 64.875 64.875 0 0 0 16 1 266.51 266.51 0 0 1-5 27 73.123 73.123 0 0 1-17 1v-3zM129.5 8.5c3.004-.165 5.004 1.168 6 4a81.87 81.87 0 0 0 18 1v9h-18a507.132 507.132 0 0 1-1 45c-4.075 1.826-7.409.992-10-2.5a464.463 464.463 0 0 0 2-42.5c-10.452-.689-19.952 1.978-28.5 8-.552-2.92.115-5.586 2-8 7.486-6.82 16.319-9.82 26.5-9-.19-2.459.81-4.126 3-5z"/><path style="opacity:1" fill="#fefffe" d="M25.5 9.5h23v3h-23v-3z"/><path style="opacity:1" fill="#fea700" d="M129.5 10.5c1.846-.278 3.18.389 4 2-1.667 1.333-3.333 1.333-5 0 .363-.684.696-1.35 1-2z"/><path style="opacity:1" fill="#fefffe" d="M26.5 13.5a121.87 121.87 0 0 1 22 1 9.106 9.106 0 0 0-1 5h-3c-.333-5.333-.667-5.333-1 0h-17v-6z"/><path style="opacity:1" fill="#fea700" d="M123.5 14.5h28v6c-12.005-.166-24.005 0-36 .5-5.184 1.06-10.018 2.892-14.5 5.5 1.76-4.747 5.26-7.913 10.5-9.5 4.137-.84 8.137-1.673 12-2.5z"/><path style="opacity:1" fill="#00602a" d="M81.5 23.5v-1c.79-1.108 1.29-2.442 1.5-4 .63 11.007 3.463 21.34 8.5 31-1.79.211-3.456.211-5 0 1.61 5.724 4.61 10.557 9 14.5-2.057.305-4.057.305-6 0l5 7c-7.667.667-15.333.667-23 0l5-7a52.61 52.61 0 0 1-7 0c4.39-3.943 7.39-8.776 9-14.5a28.73 28.73 0 0 0-5-1c4.267-7.802 6.934-16.136 8-25z"/><path style="opacity:1" fill="#f4f4f4" d="M27.5 20.5h19a49.391 49.391 0 0 1-1 11h-3c-.333-4-.667-4-1 0h-9c-.333-5.333-.667-5.333-1 0h-3a72.046 72.046 0 0 1-1-11z"/><path style="opacity:1" fill="#fea700" d="M128.5 22.5h5c.47 14.336.637 28.67.5 43-2.62 1.423-5.12 1.257-7.5-.5a935.351 935.351 0 0 0 2-42.5z"/><path style="opacity:1" fill="#fefffe" d="M28.5 32.5a73.123 73.123 0 0 1 17 1l-8.5 1c-3.252-.02-6.085-.686-8.5-2zM14.5 36.5h22v3h-22v-3zM38.5 36.5h22v3h-22v-3zM14.5 40.5c6.46-.597 12.626.07 18.5 2a4.452 4.452 0 0 1 1.5-2 9.864 9.864 0 0 1 1 6c-1.624.14-2.79-.527-3.5-2-3.836 1.889-8.003 2.556-12.5 2-.333-4-.667-4-1 0h-3l-1-6zM38.5 40.5h4v6h-3l-1-6zM43.5 40.5a73.123 73.123 0 0 1 17 1 9.106 9.106 0 0 0-1 5h-3c-.333-5.333-.667-5.333-1 0h-12v-6zM15.5 47.5a91.124 91.124 0 0 1 19 1l-9.5 1c-3.576-.015-6.742-.682-9.5-2zM40.5 47.5a81.872 81.872 0 0 1 18 1l-9 1c-3.413-.017-6.413-.684-9-2zM15.5 51.5c4.627-.716 9.627-1.05 15-1 .333 4 .667 4 1 0h3a51.639 51.639 0 0 0-1 7c-1.624.14-2.79-.527-3.5-2-4.178 1.899-8.678 2.565-13.5 2 .295-2.235-.039-4.235-1-6zM43.5 51.5v6h-3a13.117 13.117 0 0 1 1-7c.684.363 1.35.696 2 1zM43.5 51.5c4.805-.987 9.805-1.32 15-1a51.639 51.639 0 0 0-1 7h-3c-.333-5.333-.667-5.333-1 0h-9c.295-2.235-.039-4.235-1-6z"/><path style="opacity:1" fill="#fea700" d="M95.5 51.5a506.67 506.67 0 0 0 8 19c-4.435 1.876-7.768.71-10-3.5a20.216 20.216 0 0 0 6-1.5 47.808 47.808 0 0 1-10-13c1.936.138 3.936-.195 6-1z"/><path style="opacity:1" fill="#fefffe" d="M16.5 59.5c5.14-.988 10.474-1.321 16-1v3c-5.635.537-10.968-.13-16-2zM40.5 59.5v-1h16v3c-5.635.537-10.968-.13-16-2z"/><path style="opacity:1" fill="#e11215" d="M110.5 81.5c-.901.79-1.568 1.79-2 3v1c-1.41 1.328-2.576.995-3.5-1-1.11 1.537-2.61 2.204-4.5 2-.473-1.406-1.473-2.073-3-2 0-.667-.333-1-1-1a5.728 5.728 0 0 1-1-3c1.213-.997 1.046-1.997-.5-3-3.057.95-6.223 1.284-9.5 1-2.138-.904-4.471-1.571-7-2-1.67.168-3.004.835-4 2-3.143.469-5.477 2.136-7 5a6.541 6.541 0 0 0-3 3h-1a76.656 76.656 0 0 0-6-1 4.452 4.452 0 0 1 2-1.5 273.514 273.514 0 0 1-7-5c-6.691-.17-13.358-.67-20-1.5l-5-3.5a3192.34 3192.34 0 0 1 113 0l-8 6a134.81 134.81 0 0 0-20 0c-.916.278-1.582.778-2 1.5z"/><path style="opacity:1" d="M85.5 78.5c-3.763-.587-7.43-.587-11 0 .996-1.165 2.33-1.832 4-2 2.529.429 4.862 1.096 7 2z"/><path style="opacity:1" fill="#e3976d" d="M85.5 78.5c3.277.284 6.443-.05 9.5-1 1.546 1.003 1.713 2.003.5 3-1.689 1.43-3.689 2.264-6 2.5 2.31.497 4.643.663 7 .5.667 0 1 .333 1 1 .296 3.593 1.296 4.26 3 2 2.787.977 5.787 1.31 9 1 1.509 6.52 1.176 12.853-1 19l-2 1c-1.431-1.28-2.098-2.947-2-5h-4c-1.603-1.096-3.103-2.43-4.5-4-.333 1.547.167 2.88 1.5 4-1.2.792-2.533.792-4 0l1 2c-.709.904-1.709 1.237-3 1-.06-.543-.393-.876-1-1l-3 2a25.534 25.534 0 0 1-4.5-4c.134 1.689.634 3.356 1.5 5-1 1.333-2 1.333-3 0-.8-1.542-1.134-3.208-1-5a8.43 8.43 0 0 0-4 .5c.753 1.487 1.586 1.654 2.5.5a8.435 8.435 0 0 1 .5 4c-2.135 1.869-4.802 2.536-8 2a2.427 2.427 0 0 0-.5-2c-1.011.837-2.178 1.17-3.5 1-4.155-.169-6.822-2.169-8-6h-5c-1.267-2.561-1.267-5.228 0-8 .907-2.157 1.573-4.49 2-7 2.56.302 4.893-.032 7-1h1c2 0 3-1 3-3 1.523-2.864 3.857-4.531 7-5 3.57-.587 7.237-.587 11 0z"/><path style="opacity:1" d="M95.5 80.5a5.728 5.728 0 0 0 1 3 24.939 24.939 0 0 1-7-.5c2.311-.236 4.311-1.07 6-2.5z"/><path style="opacity:1" fill="#fefffe" d="M53.5 81.5c2.637 1.654 2.303 2.154-1 1.5.556-.383.89-.883 1-1.5z"/><path style="opacity:1" d="M110.5 81.5v3h-2c.432-1.21 1.099-2.21 2-3z"/><path style="opacity:1" fill="#fefffe" d="M110.5 81.5c3.81 1.254 3.81 2.254 0 3v-3z"/><path style="opacity:1" d="M71.5 82.5c2.893 2.845 6.226 3.512 10 2a4.452 4.452 0 0 1 2 1.5 25.249 25.249 0 0 1-10 0c-1.323-.816-1.99-1.983-2-3.5zM67.5 83.5c0 2-1 3-3 3a6.541 6.541 0 0 1 3-3z"/><path style="opacity:1" fill="#fea700" d="M56.5 87.5c-.617.11-1.117.444-1.5 1a18.436 18.436 0 0 0-.5 6c-1.267 2.772-1.267 5.439 0 8v5c-1.478.262-2.811-.071-4-1a127.759 127.759 0 0 1-2-9 131.196 131.196 0 0 0 2.5-11c1.444-1.655 3.278-2.322 5.5-2v3z"/><path style="opacity:1" d="M97.5 84.5c1.527-.073 2.527.594 3 2-1.704 2.26-2.704 1.593-3-2zM108.5 85.5c.838.342 1.172 1.008 1 2-3.213.31-6.213-.023-9-1 1.89.204 3.39-.463 4.5-2 .924 1.995 2.09 2.328 3.5 1z"/><path style="opacity:1" fill="#fea700" d="M108.5 85.5v-1h2c1.068.934 2.401 1.268 4 1a64.924 64.924 0 0 1 0 20c-.247 1.213-.914 1.88-2 2h-1c-1.291.237-2.291-.096-3-1 2.176-6.147 2.509-12.48 1-19 .172-.992-.162-1.658-1-2z"/><path style="opacity:1" d="M89.5 90.5c-.927-2.076-2.594-3.243-5-3.5 1.634-.493 3.3-.66 5-.5v4zM56.5 87.5c-.427 2.51-1.093 4.843-2 7a18.436 18.436 0 0 1 .5-6c.383-.556.883-.89 1.5-1zM89.5 90.5c1.256-.039 2.256.461 3 1.5-1.498.585-2.498.085-3-1.5zM93.5 92.5c1.203 1.442 1.703 3.11 1.5 5-1.27-1.405-1.77-3.071-1.5-5zM88.5 93.5c1.073.75 1.24 1.75.5 3-1.728-.852-1.895-1.852-.5-3zM81.5 96.5c.886-1.276 1.886-1.276 3 0-.733.587-1.733.587-3 0zM100.5 102.5c-1.642 1.581-3.642 2.247-6 2l-1-2c1.467.792 2.8.792 4 0-1.333-1.12-1.833-2.453-1.5-4 1.397 1.57 2.897 2.904 4.5 4zM85.5 99.5c1.585.502 2.085 1.502 1.5 3-1.039-.744-1.539-1.744-1.5-3zM93.5 102.5c-1.585-.502-2.085-1.502-1.5-3 1.039.744 1.539 1.744 1.5 3z"/><path style="opacity:1" fill="#e10a15" d="M52.5 112.5c.827.939 1.494.605 2-1 .904-.709 1.237-1.709 1-3 1.679.215 2.679-.452 3-2 .934-1.068 1.268-2.401 1-4 1.178 3.831 3.845 5.831 8 6 1.068.934 2.401 1.268 4 1 3.198.536 5.865-.131 8-2h2c1 1.333 2 1.333 3 0 2.688.334 5.021-.332 7-2 1.291.237 2.291-.096 3-1 2.358.247 4.358-.419 6-2h4c-.098 2.053.569 3.72 2 5l4 4c.634 1.447 1.801 2.113 3.5 2 7.608-2.443 15.441-3.61 23.5-3.5 3.79-.23 7.124-1.563 10-4 4.887.13 9.387-1.036 13.5-3.5.499 3.986.666 7.986.5 12H3.5a43.123 43.123 0 0 1 1-13c6.065 3.784 12.732 5.617 20 5.5l4 2 16 1c2.362 1.731 5.029 2.565 8 2.5z"/><path style="opacity:1" d="M68.5 102.5c1.446-1.113 3.113-1.28 5-.5a9.457 9.457 0 0 0-2.5 1.5c-.67-.752-1.504-1.086-2.5-1zM81.5 107.5h-2a8.435 8.435 0 0 0-.5-4c-.914 1.154-1.747.987-2.5-.5a8.43 8.43 0 0 1 4-.5c-.134 1.792.2 3.458 1 5zM91.5 105.5c-1.979 1.668-4.312 2.334-7 2-.866-1.644-1.366-3.311-1.5-5a25.534 25.534 0 0 0 4.5 4l3-2c.607.124.94.457 1 1z"/><path style="opacity:1" fill="#fea700" d="M58.5 106.5c-2.38 1.067-3.38.067-3-3h3v3z"/><path style="opacity:1" d="M108.5 106.5c.709.904 1.709 1.237 3 1-.418.722-1.084 1.222-2 1.5.752.671 1.086 1.504 1 2.5l-4-4 2-1zM71.5 109.5c-1.599.268-2.932-.066-4-1 1.322.17 2.489-.163 3.5-1 .464.594.631 1.261.5 2z"/><path style="opacity:1" fill="#fefffe" d="M111.5 107.5h1c1.017 1.972.35 3.305-2 4 .086-.996-.248-1.829-1-2.5.916-.278 1.582-.778 2-1.5z"/><path style="opacity:1" fill="#c6c6c6" d="M54.5 111.5c-.506 1.605-1.173 1.939-2 1-1.35-1.324-1.183-2.324.5-3 1.03.336 1.53 1.003 1.5 2z"/><path style="opacity:1" fill="#002b72" d="M3.5 117.5c11.02-.332 22.02.001 33 1-6.86 13.709-15.693 26.042-26.5 37-4.862-12.174-7.03-24.84-6.5-38z"/><path style="opacity:1" fill="#fea700" d="M69.5 140.5a72.711 72.711 0 0 1-7 7.5c6.338 1.52 11.838.02 16.5-4.5.808 2.079.641 4.079-.5 6-3.668-1.802-6.002-.802-7 3-2.502 1.67-4.502 3.836-6 6.5-2.31.497-4.643.663-7 .5.224 4.559-.442 8.892-2 13-1.208.734-2.541 1.067-4 1-.342-.838-1.008-1.172-2-1-.283-.789-.783-1.456-1.5-2-5.54 5.267-11.04 5.267-16.5 0-.607.124-.94.457-1 1-3.4 1.884-7.067 2.384-11 1.5a86.058 86.058 0 0 1-9-15c11.735-11.721 21.068-25.055 28-40 2.727-.818 5.394-.652 8 .5a57.491 57.491 0 0 1-8 10c4.343.96 8.676 1.127 13 .5-6.354 6.509-12.688 12.175-19 17 12.86 3.195 24.526.695 35-7.5.797.457 1.13 1.124 1 2z"/><path style="opacity:1" fill="#00602a" d="M120.5 125.5c.219 1.175-.114 2.175-1 3a243.238 243.238 0 0 0-12-2.5c1.755 3.364 4.088 6.198 7 8.5a39.88 39.88 0 0 1 8 7c1.302 2.322 3.302 3.655 6 4-3.798.983-7.798 1.317-12 1l-18-10c-.667 0-1-.333-1-1-2.439-4.145-3.439-3.645-3 1.5-.186 3.441.814 6.441 3 9a70.076 70.076 0 0 1-11-3.5c-.979-1.645-2.312-2.979-4-4a40.351 40.351 0 0 1-13 8l-2-1c1.45-1.35 2.117-3.016 2-5 1.739-1.619 2.239-3.619 1.5-6-8.188 6.728-17.522 10.728-28 12-2.375.096-4.541-.404-6.5-1.5 7.744-4.409 14.244-10.242 19.5-17.5.667-1 .667-2 0-3-3.81 2.592-7.976 3.425-12.5 2.5l7-9a662.227 662.227 0 0 1 63 .5c1.377 3.377 3.71 5.711 7 7z"/><path style="opacity:1" fill="#fea700" d="M130.5 173.5a33.691 33.691 0 0 1-9 2 81.338 81.338 0 0 1-5.5-5 10.515 10.515 0 0 0-2.5 3c-1.86.571-3.527.571-5 0v-10a12.93 12.93 0 0 1-5-.5l-4-8a17.648 17.648 0 0 0-6 .5 6.846 6.846 0 0 0-1-4 13.115 13.115 0 0 0-7-1c-.306-2.885.027-5.552 1-8 3.29 2.835 7.124 4.835 11.5 6l1.5-1a32.515 32.515 0 0 1-4-10c.247-1.213.914-1.88 2-2 0 .667.333 1 1 1 2.728 3.209 6.061 5.709 10 7.5 2.409 1.707 5.075 2.54 8 2.5 5.154 2.417 10.487 2.584 16 .5a10.134 10.134 0 0 0-4-1.5c-1.302-2.322-3.302-3.655-6-4a39.88 39.88 0 0 0-8-7 24.257 24.257 0 0 0-3-5.5c4.257.532 8.591.532 13 0l1-1a19.177 19.177 0 0 0-5-2.5c-1.382-2.894-3.382-5.394-6-7.5 3.711-.825 7.378-.659 11 .5a199.234 199.234 0 0 0 28 39.5c-2.18 6.709-5.846 12.376-11 17-4.088.711-7.588-.456-10.5-3.5-.717.544-1.217 1.211-1.5 2z"/><path style="opacity:1" fill="#002b72" d="M127.5 118.5c11.154-.995 22.488-1.328 34-1 .703 13.18-1.463 25.846-6.5 38-10.65-11.331-19.817-23.664-27.5-37z"/><path style="opacity:1" d="M120.5 125.5a19.177 19.177 0 0 1 5 2.5l-1 1c-4.409.532-8.743.532-13 0a24.257 24.257 0 0 1 3 5.5c-2.912-2.302-5.245-5.136-7-8.5 3.936.715 7.936 1.548 12 2.5.886-.825 1.219-1.825 1-3z"/><path style="opacity:1" fill="#fefffe" d="M-.5 128.5c5.707 43.035 29.707 69.035 72 78h-72v-78z"/><path style="opacity:1" d="M97.5 135.5c-1.086.12-1.753.787-2 2a32.515 32.515 0 0 0 4 10l-1.5 1c-4.376-1.165-8.21-3.165-11.5-6a70.076 70.076 0 0 0 11 3.5c-2.186-2.559-3.186-5.559-3-9-.439-5.145.561-5.645 3-1.5z"/><path style="opacity:1" fill="#fefffe" d="M165.5 132.5v74h-70c8.486-2.047 16.82-4.881 25-8.5 25.518-14.672 40.518-36.505 45-65.5z"/><path style="opacity:1" d="m98.5 136.5 18 10c-2.925.04-5.591-.793-8-2.5-3.939-1.791-7.272-4.291-10-7.5zM122.5 141.5c2.698.345 4.698 1.678 6 4-2.698-.345-4.698-1.678-6-4zM128.5 145.5c1.422.209 2.755.709 4 1.5-5.513 2.084-10.846 1.917-16-.5 4.202.317 8.202-.017 12-1z"/><path style="opacity:1" fill="#a5a3a3" d="M76.5 173.5h-9c-2-4-4-4-6 0a6.845 6.845 0 0 0-4 1c-.797-.457-1.13-1.124-1-2 1.466-.847 2.3-2.18 2.5-4 .497-2.646.664-5.313.5-8a40.911 40.911 0 0 0 9-.5l-1-1c1.732-1.972 3.065-4.139 4-6.5 1.212-.73 2.212-1.73 3-3a9.107 9.107 0 0 0 5 1c.166 6.675 0 13.342-.5 20a10.51 10.51 0 0 0-2.5 3z"/><path style="opacity:1" d="M71.5 152.5c-.935 2.361-2.268 4.528-4 6.5l1 1a40.911 40.911 0 0 1-9 .5 32.438 32.438 0 0 1-.5 8c-.2 1.82-1.034 3.153-2.5 4 1.558-4.108 2.224-8.441 2-13 2.357.163 4.69-.003 7-.5 1.498-2.664 3.498-4.83 6-6.5z"/><path style="opacity:1" fill="#a7a6a5" d="M108.5 172.5v1c-2.162.917-4.495.917-7 0-1.692-3.765-3.025-3.765-4 0a41.732 41.732 0 0 1-9 1c-.342-.838-1.008-1.172-2-1a116.746 116.746 0 0 1-1-21h6c-.21 2.214.624 3.881 2.5 5a12.993 12.993 0 0 1 5.5-1c.077 4.902 2.41 7.568 7 8 .302 2.873.969 5.539 2 8z"/><path style="opacity:1" d="M31.5 171.5c.06-.543.393-.876 1-1 5.46 5.267 10.96 5.267 16.5 0 .717.544 1.217 1.211 1.5 2-6.665 4.28-12.998 3.947-19-1zM67.5 173.5c-2-1.333-4-1.333-6 0 2-4 4-4 6 0zM121.5 175.5a18.974 18.974 0 0 0-8-2 10.515 10.515 0 0 1 2.5-3 81.338 81.338 0 0 0 5.5 5z"/><path style="opacity:1" fill="#05296a" d="M31.5 171.5c6.002 4.947 12.335 5.28 19 1 .992-.172 1.658.162 2 1 .812 1.493 2.145 2.16 4 2 2.057.064 3.723-.602 5-2 2-1.333 4-1.333 6 0 3 2.667 6 2.667 9 0 3.093-1.054 3.76.112 2 3.5-3.623 1.718-7.29 1.884-11 .5h-2c-4.333 1.333-8.667 1.333-13 0-.996.086-1.83-.248-2.5-1-.816 1.323-1.983 1.989-3.5 2-4.883.498-9.383-.502-13.5-3-1.301.139-2.134.805-2.5 2-3.062 1.621-5.728 1.121-8-1.5 4.042.352 7.042-1.148 9-4.5z"/><path style="opacity:1" d="M56.5 172.5c-.13.876.203 1.543 1 2a6.845 6.845 0 0 1 4-1c-1.277 1.398-2.943 2.064-5 2-1.855.16-3.188-.507-4-2 1.459.067 2.792-.266 4-1z"/><path style="opacity:1" fill="#062868" d="M101.5 173.5c.111.617.444 1.117 1 1.5l4.5.5c2.544.164 4.71-.503 6.5-2 2.827.084 5.494.75 8 2a33.691 33.691 0 0 0 9-2 89.024 89.024 0 0 0 10 4c-2.951 2.575-5.784 2.242-8.5-1-.717.544-1.217 1.211-1.5 2-.342.838-1.008 1.172-2 1-4.6.576-8.766-.424-12.5-3a27.137 27.137 0 0 1-10.5 3c-1.546-1.36-3.38-2.36-5.5-3-1.301.139-2.134.805-2.5 2-4.084.457-7.917-.21-11.5-2-.74-1.249-.573-2.249.5-3 .992-.172 1.658.162 2 1 .949.652 2.115.986 3.5 1 2.22.107 4.054-.56 5.5-2 .975-3.765 2.308-3.765 4 0z"/><path style="opacity:1" d="M67.5 173.5h9c-3 2.667-6 2.667-9 0zM97.5 173.5c-1.446 1.44-3.28 2.107-5.5 2-1.385-.014-2.551-.348-3.5-1a41.732 41.732 0 0 0 9-1zM101.5 173.5c2.505.917 4.838.917 7 0 1.473.571 3.14.571 5 0-1.79 1.497-3.956 2.164-6.5 2l-4.5-.5c-.556-.383-.889-.883-1-1.5zM46.5 178.5c-1.464.66-3.13.993-5 1a69.822 69.822 0 0 1-11-2c.366-1.195 1.199-1.861 2.5-2 4.117 2.498 8.617 3.498 13.5 3z"/><path style="opacity:1" fill="#fefffe" d="M52.5 177.5c.11.617.444 1.117 1 1.5l5 .5c2.705.184 5.038-.483 7-2h2c.11.617.444 1.117 1 1.5 3.394.752 6.727.585 10-.5.952 1.545 1.285 3.212 1 5-16.67.167-33.337 0-50-.5l-3-3c1.937-.122 3.27-.955 4-2.5a69.822 69.822 0 0 0 11 2c1.87-.007 3.536-.34 5-1 1.517-.011 2.684-.677 3.5-2 .67.752 1.504 1.086 2.5 1z"/><path style="opacity:1" d="M105.5 179.5c-2.222.322-4.056-.345-5.5-2-.67.752-1.504 1.086-2.5 1 .366-1.195 1.199-1.861 2.5-2 2.12.64 3.954 1.64 5.5 3zM128.5 179.5c-4.461 1.705-8.628 1.038-12.5-2-3.291 2.539-6.791 3.206-10.5 2a27.137 27.137 0 0 0 10.5-3c3.734 2.576 7.9 3.576 12.5 3zM52.5 177.5c4.333 1.333 8.667 1.333 13 0-1.962 1.517-4.295 2.184-7 2l-5-.5c-.556-.383-.89-.883-1-1.5z"/><path style="opacity:1" fill="#fefffe" d="M105.5 179.5c3.709 1.206 7.209.539 10.5-2 3.872 3.038 8.039 3.705 12.5 2 .992.172 1.658-.162 2-1a16.076 16.076 0 0 1 5 2c1.211.774 1.211 1.607 0 2.5-16.663.5-33.33.667-50 .5-.285-1.788.048-3.455 1-5 3.799 1.293 7.466 1.293 11 0 .996.086 1.83-.248 2.5-1 1.444 1.655 3.278 2.322 5.5 2z"/><path style="opacity:1" fill="#00612a" d="M33.5 186.5a1603.717 1603.717 0 0 1 98-.5c-18.795 14.699-40.129 20.032-64 16-12.654-2.38-23.988-7.546-34-15.5z"/></svg>