<svg viewBox="0 0 200 240" xmlns="http://www.w3.org/2000/svg"><path d="M100.066 234.32c50.196-1.05 90.659-44.51 90.659-97.905l.153-130.738H9.122l.153 130.738c0 53.395 40.596 96.854 90.793 97.905z" fill="none" stroke="#000" stroke-dashoffset="4.85556" stroke-linecap="round" stroke-width="6.2004372"/><path d="M99.84 5.703v228.629h.246c50.197-1.051 90.654-44.494 90.654-97.888l.141-130.74H99.84z" fill="#fff"/><path d="M184.146 5.703 99.844 41.555v31.758l91.007-38.71.035-28.9h-6.74zm6.67 54.201L99.844 98.58v31.759l90.935-38.675.035-31.759zm-.036 57.06-90.936 38.675v31.724l90.124-38.323c.502-4.126.776-8.328.776-12.598l.036-19.478zm-8.61 60.588-82.326 35.005v21.772h.247c36.389-.761 67.63-23.819 82.08-56.777z" fill="#d50b2b" stroke="#000" stroke-dashoffset="4.85556" stroke-linecap="round" stroke-linejoin="round" stroke-width="1.46796"/><path d="M99.975 5.703v228.629h-.246c-50.197-1.051-90.654-44.494-90.654-97.888L8.934 5.704h91.042z"/><path d="M55.801 9.756c-7.714 0-13.974 6.26-13.974 13.974 0 6.942 5.08 12.678 11.716 13.763V49.28h-28.16v121.389h28.16v9.104c-6.637 1.084-11.716 6.82-11.716 13.762 0 7.714 6.26 13.974 13.974 13.974s13.974-6.26 13.974-13.974c0-6.99-5.152-12.772-11.857-13.797v-9.07h28.3V49.28h-28.3V37.53c6.705-1.026 11.857-6.808 11.857-13.798 0-7.714-6.26-13.974-13.974-13.974zm0 3.67c5.688 0 10.304 4.616 10.304 10.304 0 5.688-4.616 10.304-10.304 10.304-5.688 0-10.304-4.616-10.304-10.304 0-5.688 4.616-10.304 10.304-10.304zM28.806 56.054h24.737v23.29H28.806v-23.29zm29.112 0h23.748v23.29H57.918v-23.29zM28.806 83.86h24.737v22.725H28.806V83.86zm29.112 0h23.748v22.725H57.918V83.86zm-29.112 28.23h24.737v22.725H28.806V112.09zm29.112 0h23.748v22.725H57.918V112.09zm-29.112 27.242h24.737v24.56H28.806v-24.56zm29.112 0h23.748v24.56H57.918v-24.56zm-2.117 44.18c5.532 0 10.022 4.49 10.022 10.022s-4.49 10.021-10.022 10.021-10.022-4.49-10.022-10.021 4.49-10.022 10.022-10.022z" fill="#f5c801"/></svg>