<svg xmlns="http://www.w3.org/2000/svg" height="613.936" width="500"><path d="m133.15 409.88.137 114.344c0 46.699 35.924 84.705 80.522 85.624v.004c.028 0 .056-.003.084-.004.029 0 .057.003.085.004v-.004c44.598-.919 80.522-38.925 80.522-85.624l.137-114.343z" fill="#0f47af" style="fill:#02739f;fill-opacity:1" transform="matrix(2.96088 0 0 2.96088 -383.314 -1202.687)"/><g stroke="#000"><path d="m251.897 307.733-80.592 142.308-68.327-102.521-68.521 110.293c38.345 84.396 120.076 143.217 215.127 145.176.083-.002.194.001.277 0 .084.001.101-.002.185 0 95.35-1.966 177.306-61.185 215.497-146.009l-69.118-109.46-62.826 102.52z" fill="#fff" fill-rule="evenodd" stroke-width="2.96088"/><path d="M250.175 603.013c132.049-2.722 238.493-115.264 238.493-253.534l.403-338.557H10.93l.403 338.557c0 138.27 106.794 250.812 238.843 253.534z" fill="none" stroke-dashoffset="12.731784" stroke-linecap="round" stroke-width="11.84352"/><path d="m207.44 420.031 1.844 8.344v4.313h-2.875l-8.781-2.907v12.688l8.781-2.719h2.875v13.125c-25.75 2.599-45.937 26.79-45.937 56.188 0 3.43.254 6.8.78 10.062 4.256-26.337 24.92-46.344 49.75-46.344 24.832 0 45.495 20.008 49.75 46.344.528-3.264.813-6.63.813-10.063 0-29.467-20.314-53.686-46.156-56.187V439.75h1.969l8.812 2.719V429.78l-8.812 2.906h-1.969v-4.312l1.844-8.344z" fill="#fcdd09" stroke-dashoffset="4.3" stroke-linecap="round" style="fill:#f5c801;fill-opacity:1" transform="matrix(2.96088 0 0 2.96088 -383.314 -1202.687)"/></g></svg>