<svg xmlns="http://www.w3.org/2000/svg" width="166" height="207" style="shape-rendering:geometricPrecision;text-rendering:geometricPrecision;image-rendering:optimizeQuality;fill-rule:evenodd;clip-rule:evenodd"><path style="opacity:1" fill="#030003" d="M-.5-.5h166v133c-5.738 32.928-24.071 56.095-55 69.5a236.853 236.853 0 0 0-15 4.5h-26c-39.96-9.962-63.293-35.295-70-76V-.5z"/><path style="opacity:1" fill="#013364" d="M142.5 159.5a752.162 752.162 0 0 0-17.5-32 158.177 158.177 0 0 0-12.5 24 478.42 478.42 0 0 0-5.5 7 749.074 749.074 0 0 1-24-46 1925.687 1925.687 0 0 1-24 43 604.22 604.22 0 0 1-16-29 544.88 544.88 0 0 0-20.5 39c-1.645.979-2.979 2.312-4 4-8.017-11.378-12.683-24.045-14-38V4.5h156c.333 43.005 0 86.005-1 129-1.746 11.495-5.746 22.162-12 32-.754-2.885-2.42-4.885-5-6z"/><path style="opacity:1" fill="#0a3156" d="M142.5 159.5c2.58 1.115 4.246 3.115 5 6 6.254-9.838 10.254-20.505 12-32 1-42.995 1.333-85.995 1-129H4.5v127a4096.603 4096.603 0 0 1-1-128h158c.167 43.668 0 87.335-.5 131-1.74 11.485-5.74 22.152-12 32-1 1.333-2 1.333-3 0l-3.5-7z"/><path style="opacity:1" fill="#1a1209" d="M91.5 20.5h-6v-5h-4v5h-6c1.419-.951 3.085-1.285 5-1v-5h6v5c1.915-.285 3.581.049 5 1z"/><path style="opacity:1" fill="#ef9b22" d="M91.5 20.5v4h-6v12h-4v-12h-6v-4h6v-5h4v5h6z"/><path style="opacity:1" fill="#130103" d="M75.5 20.5v4h6v12h4v-12h6v-4c.961 1.765 1.295 3.765 1 6h-6v8c4.626.8 8.46-.534 11.5-4 2.554 3.205 5.887 5.205 10 6 1.895-1.682 4.062-2.182 6.5-1.5 1.269 3.2 3.269 5.868 6 8 7.854-1.13 9.854 1.87 6 9a14.102 14.102 0 0 1 1 3.5v2c-6.638 1.924-11.805 5.924-15.5 12a53.898 53.898 0 0 0-13.5-14c-5 4.333-9.667 9-14 14a111.107 111.107 0 0 1-8-9.5 1667.853 1667.853 0 0 0-6.5-4.5c-6.68 2.68-11.346 7.346-14 14-4.627-6.714-10.794-11.047-18.5-13 1.291.237 2.291-.096 3-1a9.106 9.106 0 0 1 1-5c-4.466-2.61-4.8-5.277-1-8 1.577-2.517 3.41-2.517 5.5 0 2.83-3.53 5.83-6.863 9-10 3.325 2.89 7.158 3.224 11.5 1 .78-1.955 2.28-2.955 4.5-3 2.22.045 3.72 1.045 4.5 3 1.545.952 3.212 1.285 5 1v-8h-6c-.295-2.235.039-4.235 1-6z"/><path style="opacity:1" fill="#fefefe" d="M40.5 42.5h4c.601 4.409-1.066 5.742-5 4a6.845 6.845 0 0 0 1-4zM110.5 36.5c2.165-.384 3.832.283 5 2-1.168 1.717-2.835 2.384-5 2v-4z"/><path style="opacity:1" fill="#fefefa" d="M53.5 34.5c3.185.222 4.185 1.722 3 4.5-3.793.487-4.793-1.013-3-4.5z"/><path style="opacity:1" fill="#fefefd" d="M96.5 32.5c2.412.194 3.412 1.527 3 4h-4c-.067-1.459.266-2.792 1-4z"/><path style="opacity:1" fill="#fefefe" d="M69.5 31.5c2.666-.434 3.833.566 3.5 3-3.597 1.566-4.763.566-3.5-3z"/><path style="opacity:1" fill="#f19b1e" d="M119.5 58.5c.033-3.602-1.301-6.602-4-9-3.869-3.017-8.202-5.184-13-6.5-14-.667-28-.667-42 0-4.749 1.255-8.082 4.088-10 8.5-1.574 1.602-2.24 3.602-2 6-5.646.042-7.48-2.291-5.5-7a48.928 48.928 0 0 1 6.5-9.5l8-1c.837-1.011 1.17-2.178 1-3.5 2.234.12 4.401-.214 6.5-1 1.72 1.395 3.72 2.061 6 2 2.958-1.359 6.124-2.026 9.5-2v3h6v-3c2.357-.163 4.69.003 7 .5 3.13 3.084 6.464 3.25 10 .5 1.635.546 3.301.88 5 1 .592 4.762 3.092 6.096 7.5 4a9.465 9.465 0 0 0 2.5 1.5 24.133 24.133 0 0 0 6 8.5l2 4a46.554 46.554 0 0 1-7 3z"/><path style="opacity:1" fill="#fefefe" d="M122.5 44.5c3.638-.763 5.138.57 4.5 4-3.669 1.51-5.169.176-4.5-4z"/><path style="opacity:1" fill="#2e0000" d="M119.5 58.5h-1c-1.717-6.22-5.717-10.386-12-12.5a31.29 31.29 0 0 0-10-1.5c-10.235-1.318-20.569-1.318-31 0-6.167-.082-11.167 2.251-15 7 1.918-4.412 5.251-7.245 10-8.5 14-.667 28-.667 42 0 4.798 1.316 9.131 3.483 13 6.5 2.699 2.398 4.033 5.398 4 9z"/><path style="opacity:1" fill="#ea9c25" d="M96.5 44.5c-.667 0-1 .333-1 1h-30v-1c10.431-1.318 20.765-1.318 31 0z"/><path style="opacity:1" fill="#d79e4d" d="M65.5 44.5v1c-8.785.617-13.952 5.283-15.5 14a18.164 18.164 0 0 1 .5-8c3.833-4.749 8.833-7.082 15-7z"/><path style="opacity:1" fill="#c00606" d="M108.5 49.5c3.794 2.236 6.127 5.57 7 10-.386 2.437-1.553 4.437-3.5 6a34.692 34.692 0 0 1-6.5-7.5 41.638 41.638 0 0 0-7-4.5c-5.575 2.906-10.242 6.906-14 12a60.743 60.743 0 0 1-9-9.5c-3.926-3.226-7.926-3.226-12 0-9.953 11.023-12.786 9.523-8.5-4.5 1.8-1.817 3.966-2.984 6.5-3.5a238.31 238.31 0 0 1 47 1.5z"/><path style="opacity:1" fill="#350100" d="M108.5 49.5c5.253 1.254 7.92 4.587 8 10h-1c-.873-4.43-3.206-7.764-7-10z"/><path style="opacity:1" fill="#d99e48" d="M95.5 45.5c0-.667.333-1 1-1a31.29 31.29 0 0 1 10 1.5c6.283 2.114 10.283 6.28 12 12.5-.342.838-1.008 1.172-2 1-.08-5.413-2.747-8.746-8-10-.111-.617-.444-1.117-1-1.5a227.513 227.513 0 0 0-12-2.5z"/><path style="opacity:1" fill="#00010c" d="M40.5 55.5c-.709.904-1.709 1.237-3 1a18.436 18.436 0 0 0-6 .5c1.987 1.319 3.154 3.152 3.5 5.5.202 8.71.869 17.376 2 26 3.525 8.022 9.692 12.522 18.5 13.5 20.547 3.594 40.88 2.594 61-3 5.435-1.77 9.268-5.27 11.5-10.5-.084-4.38.082-8.712.5-13l-.5-2c-.278.916-.778 1.582-1.5 2 .268-1.599-.066-2.932-1-4 .962-2.486 1.795-2.486 2.5 0 .157-4.785 1.324-9.285 3.5-13.5a8.435 8.435 0 0 0-4-.5v-2a11.99 11.99 0 0 0 6-1l1 1.5a27.388 27.388 0 0 0-3.5 10.5c5.169 22.231-3.331 34.731-25.5 37.5-19.83 3.72-39.496 3.053-59-2-8.108-3.451-12.275-9.618-12.5-18.5l-1-20a26.06 26.06 0 0 0-4.5-7.5c3.926-1.824 7.926-1.99 12-.5z"/><path style="opacity:1" fill="#fefefe" d="M125.5 71.5c.934 1.068 1.268 2.401 1 4-.992.172-1.658-.162-2-1 .904-.709 1.237-1.709 1-3z"/><path style="opacity:1" fill="#fdfdfd" d="M127.5 57.5a8.435 8.435 0 0 1 4 .5c-2.176 4.215-3.343 8.715-3.5 13.5-.705-2.486-1.538-2.486-2.5 0 .237 1.291-.096 2.291-1 3-.617.11-1.117.444-1.5 1l-1-5c-1.013 4.244-.18 8.077 2.5 11.5.667.667 1.333.667 2 0-2.561-2.156-2.561-4.323 0-6.5.722-.418 1.222-1.084 1.5-2l.5 2c-.418 4.288-.584 8.62-.5 13-2.232 5.23-6.065 8.73-11.5 10.5-20.12 5.594-40.453 6.594-61 3-8.808-.978-14.975-5.478-18.5-13.5a243.054 243.054 0 0 1-2-26c-.346-2.348-1.513-4.181-3.5-5.5a18.436 18.436 0 0 1 6-.5c7.706 1.953 13.873 6.286 18.5 13 2.654-6.654 7.32-11.32 14-14 2.156 1.485 4.323 2.985 6.5 4.5a111.107 111.107 0 0 0 8 9.5c4.333-5 9-9.667 14-14a53.898 53.898 0 0 1 13.5 14c3.695-6.076 8.862-10.076 15.5-12z"/><path style="opacity:1" d="M94.5 78.5c.81-1.792 1.31-3.792 1.5-6 1.53 6.454 2.196 6.454 2 0 1.422 2.53 1.755 5.197 1 8-1.873 1.89-2.706 3.89-2.5 6a52.26 52.26 0 0 1-2-8zM64.5 72.5c.79 1.109 1.29 2.442 1.5 4 .112-2.947 1.612-4.28 4.5-4a15.42 15.42 0 0 0 1 7c-1.57 2.382-2.404 5.049-2.5 8-2.661-1.243-3.161-3.076-1.5-5.5a10.018 10.018 0 0 0-2.5-4.5c-.493-1.634-.66-3.3-.5-5z"/><path style="opacity:1" fill="#fefffe" d="M67.5 74.5c.767.672 1.434 1.505 2 2.5-1.561.188-2.228-.645-2-2.5z"/><path style="opacity:1" d="M94.5 78.5c-2.381-2.024-2.548-4.357-.5-7 .497 2.31.663 4.643.5 7zM124.5 74.5c.342.838 1.008 1.172 2 1-2.561 2.177-2.561 4.344 0 6.5-.667.667-1.333.667-2 0-2.68-3.423-3.513-7.256-2.5-11.5l1 5c.383-.556.883-.89 1.5-1zM44.5 74.5c-.16-1.7.007-3.366.5-5 1.314 1.647 1.148 3.314-.5 5z"/><path style="opacity:1" fill="#090909" d="M44.5 74.5c-.077 1.25-.744 2.083-2 2.5 1.385 1.965 1.218 3.798-.5 5.5a23.668 23.668 0 0 0-2.5-6 15.42 15.42 0 0 0 1-7h3a9.106 9.106 0 0 1-1 5c.47.963 1.136.963 2 0z"/><path style="opacity:1" fill="#fb9907" d="M112.5 151.5a745.8 745.8 0 0 0 12.5-21 2216.012 2216.012 0 0 1 21.5 39.5c-11.822 16.235-27.488 26.402-47 30.5h-34c-18.25-3.876-33.083-13.21-44.5-28-.135-2.422.365-4.755 1.5-7a930.156 930.156 0 0 0 20.5-36 1704.286 1704.286 0 0 0 26 49c.667-1 .667-2 0-3a292.014 292.014 0 0 1-9.5-18 1314.378 1314.378 0 0 0 23.5-42 452.842 452.842 0 0 0 23.5 45.5c-3.505 4.838-6.005 10.005-7.5 15.5a227.458 227.458 0 0 0 13.5-25z"/><path style="opacity:1" fill="#fefefe" d="M-.5 130.5c6.707 40.705 30.04 66.038 70 76h-70v-76zM165.5 132.5v74h-70a236.853 236.853 0 0 1 15-4.5c30.929-13.405 49.262-36.572 55-69.5z"/><path style="opacity:1" fill="#150102" d="M112.5 151.5a227.458 227.458 0 0 1-13.5 25c1.495-5.495 3.995-10.662 7.5-15.5A452.842 452.842 0 0 1 83 115.5a1314.378 1314.378 0 0 1-23.5 42 292.014 292.014 0 0 0 9.5 18c.667 1 .667 2 0 3a1704.286 1704.286 0 0 1-26-49 930.156 930.156 0 0 1-20.5 36 544.88 544.88 0 0 1 20.5-39 604.22 604.22 0 0 0 16 29 1925.687 1925.687 0 0 0 24-43 749.074 749.074 0 0 0 24 46 478.42 478.42 0 0 1 5.5-7z"/><path style="opacity:1" fill="#ea9c28" d="M65.5 200.5h34c-1.109.79-2.442 1.29-4 1.5-8.667.667-17.333.667-26 0-1.558-.21-2.891-.71-4-1.5z"/></svg>