<svg xmlns="http://www.w3.org/2000/svg" width="100" height="124" style="shape-rendering:geometricPrecision;text-rendering:geometricPrecision;image-rendering:optimizeQuality;fill-rule:evenodd;clip-rule:evenodd"><path style="opacity:1" fill="#121315" d="M4.5.5h94c.43 28.03-.07 56.03-1.5 84-5.692 18.858-17.859 31.191-36.5 37-26.957 3.94-46.124-6.393-57.5-31a54.652 54.652 0 0 1-2-7A3444.94 3444.94 0 0 1 .5.5h4z"/><path style="opacity:1" fill="#ecca05" d="M3.5 3.5h92v4c-1.208.734-2.541 1.067-4 1v3h3c.146 2.442-.687 3.11-2.5 2l-1 34a752.525 752.525 0 0 0-1.5-39h-2a684.867 684.867 0 0 0-64-.5c-.923 2.04-1.256 4.207-1 6.5h-3v-6h-9v39a802.004 802.004 0 0 0-3-40c-1 16.32-1.333 32.653-1 49h-3v-53z"/><path style="opacity:1" fill="#bead34" d="M95.5 3.5a729.596 729.596 0 0 1 1 54h-9c2.448-.973 5.115-1.306 8-1v-53z"/><path style="opacity:1" fill="#edc205" d="M3.5 3.5v53h3c-.333-16.347 0-32.68 1-49a802.004 802.004 0 0 1 3 40v4h79v-43a752.525 752.525 0 0 1 1.5 39l1-34c1.813 1.11 2.646.442 2.5-2h-3v-3c1.459.067 2.792-.266 4-1v49c-2.885-.306-5.552.027-8 1h-85a729.596 729.596 0 0 1 1-54z"/><path style="opacity:1" fill="#151208" d="M19.5 14.5c20.493.997 41.16 1.33 62 1v-7h8v43h-79v-43h9v6z"/><path style="opacity:1" fill="#0476a8" d="M71.5 16.5c4.147.825 8.48 1.325 13 1.5-2.347.436-4.68.936-7 1.5a580.667 580.667 0 0 0-34-1 19.96 19.96 0 0 0-9 2.5c1.882.198 3.548.698 5 1.5h-22c-.166 6.675 0 13.342.5 20 2.38.935 4.88 1.268 7.5 1v-20c1.321 3.098 1.988 6.598 2 10.5l-1 10.5c-2.202 1.28-4.368 1.28-6.5 0-.617.95-.45 1.782.5 2.5-1.634.493-3.3.66-5 .5.166-5.344 0-10.677-.5-16-.5 5.657-.666 11.324-.5 17 14.43.466 28.764-.034 43-1.5a9.468 9.468 0 0 0 1.5-2.5c-.135-7.405.698-14.405 2.5-21v20h8v-20c-2.573-1.033-6.573-1.366-12-1a172.312 172.312 0 0 1-1 22h-9a4.932 4.932 0 0 0-.5-3 18.436 18.436 0 0 0-.5 6c-1.644.214-3.144-.12-4.5-1a88.725 88.725 0 0 1 .5-23l1 16a34.208 34.208 0 0 0 1.5-8 34.208 34.208 0 0 0 1.5 8c.667-4.482 1.334-8.816 2-13v17h7v-21h-6c9.79-1.306 20.79-1.306 33 0h-7c-.166 6.675 0 13.342.5 20 2.38.935 4.88 1.268 7.5 1v-17c1.443-.835 2.443-2.168 3-4a16.869 16.869 0 0 0 1-8c-1.459-.067-2.792.266-4 1v-6h5v41h-76v-41h6v7h53z"/><path style="opacity:1" fill="#04729e" d="M83.5 26.5c.067-1.459-.266-2.792-1-4-12.21-1.306-23.21-1.306-33 0-.734 1.208-1.067 2.541-1 4-.666 4.184-1.333 8.518-2 13a34.208 34.208 0 0 1-1.5-8 34.208 34.208 0 0 1-1.5 8l-1-16a88.725 88.725 0 0 0-.5 23c1.356.88 2.856 1.214 4.5 1a18.436 18.436 0 0 1 .5-6c.483.948.65 1.948.5 3h9a172.312 172.312 0 0 0 1-22c5.427-.366 9.427-.033 12 1h-8c-1.802 6.595-2.635 13.595-2.5 21a9.468 9.468 0 0 1-1.5 2.5 318.902 318.902 0 0 1-43 1.5c-.166-5.676 0-11.343.5-17 .5 5.323.666 10.656.5 16 1.7.16 3.366-.007 5-.5-.95-.718-1.117-1.55-.5-2.5 2.132 1.28 4.298 1.28 6.5 0l1-10.5c-.012-3.902-.679-7.402-2-10.5h-2v-1h10v21h7a116.748 116.748 0 0 0-1-21c-1.452-.802-3.118-1.302-5-1.5a19.96 19.96 0 0 1 9-2.5c11.332.001 22.665.334 34 1a130.58 130.58 0 0 1 7-1.5c-4.52-.175-8.853-.675-13-1.5 4.202.317 8.202-.017 12-1 1.208-.734 2.541-1.067 4-1a16.869 16.869 0 0 1-1 8c-.557 1.832-1.557 3.165-3 4z"/><path style="opacity:1" fill="#13232b" d="M82.5 22.5c.734 1.208 1.067 2.541 1 4v17c-2.62.268-5.12-.065-7.5-1-.5-6.658-.666-13.325-.5-20h7z"/><path style="opacity:1" fill="#070e0f" d="M49.5 22.5h6v21h-7v-17c-.067-1.459.266-2.792 1-4z"/><path style="opacity:1" fill="#21221f" d="M23.5 22.5v1c-1.599-.268-2.932.066-4 1v17c1.983.343 3.317-.324 4-2 .988-5.14 1.321-10.474 1-16h1v20c-2.62.268-5.12-.065-7.5-1-.5-6.658-.666-13.325-.5-20h6z"/><path style="opacity:1" fill="#5d4108" d="M19.5 24.5c1.068-.934 2.401-1.268 4-1h1c.321 5.526-.012 10.86-1 16v-15h-4z"/><path style="opacity:1" fill="#d2af0b" d="M49.5 24.5h5c.166 5.676 0 11.343-.5 17-1.356.88-2.856 1.214-4.5 1v-18z"/><path style="opacity:1" fill="#101213" d="M33.5 22.5h6a116.748 116.748 0 0 1 1 21h-7v-21z"/><path style="opacity:1" fill="#f0cd0f" d="M81.5 24.5v17h-4v-17h4z"/><path style="opacity:1" fill="#4a3806" d="M81.5 24.5h-4v17c-.99-5.81-1.323-11.81-1-18 1.915-.285 3.581.049 5 1z"/><path style="opacity:1" fill="#101516" d="M61.5 23.5h1c-.323 6.19.01 12.19 1 18h4c.99-5.81 1.323-11.81 1-18h1v20h-8v-20z"/><path style="opacity:1" fill="#856109" d="M62.5 23.5h6c.323 6.19-.01 12.19-1 18v-17h-4v17c-.99-5.81-1.323-11.81-1-18z"/><path style="opacity:1" fill="#f0ce07" d="M67.5 41.5h-4v-17h4v17z"/><path style="opacity:1" fill="#e0ba06" d="M34.5 24.5h5v17h-5v-17z"/><path style="opacity:1" fill="#f0ce0a" d="M19.5 24.5h4v15c-.683 1.676-2.017 2.343-4 2v-17z"/><path style="opacity:1" fill="#f1c701" d="M87.5 8.5h-6v7c-20.84.33-41.507-.003-62-1h3c-.256-2.293.077-4.46 1-6.5a684.867 684.867 0 0 1 64 .5z"/><path style="opacity:1" fill="#096e99" d="M96.5 59.5c-27.002-.167-54.002 0-81 .5 24.047.05 48.047 1.05 72 3a40.936 40.936 0 0 1-9 .5c-.17 1.322.163 2.489 1 3.5a42.618 42.618 0 0 1-5 1.5 44.358 44.358 0 0 0-1-2c-15.161-1.326-30.161-1.326-45 0h-1c-1.038 1.43-1.704 3.097-2 5-5.964 5.551-4.63 7.551 4 6v11a185.644 185.644 0 0 1-11-1h-3c-.291-1.15-1.124-1.816-2.5-2l-2.5 1c3.273 7.268 8.273 12.934 15 17a10.177 10.177 0 0 0 3 3 6.845 6.845 0 0 1-4-1c-1.274.859-1.108 1.526.5 2 3.695 1.237 7.194 2.07 10.5 2.5l-6 1c2.095.556 2.262 1.056.5 1.5-2.329-1.326-4.662-2.66-7-4-.708.881-1.542 1.547-2.5 2-15.777-13.28-21.777-30.28-18-51 31.484-1.3 62.817-1.3 94 0z"/><path style="opacity:1" fill="#0873a1" d="M96.5 59.5c2.33 17.224-1.837 32.557-12.5 46-17.874 16.441-37.708 19.274-59.5 8.5-1.23-1.405-2.564-2.571-4-3.5.958-.453 1.792-1.119 2.5-2 2.338 1.34 4.671 2.674 7 4 1.762-.444 1.595-.944-.5-1.5l6-1c-3.306-.43-6.805-1.263-10.5-2.5-1.608-.474-1.774-1.141-.5-2a6.845 6.845 0 0 0 4 1h3c3.22 2.218 6.886 3.385 11 3.5 8.88.958 17.546-.042 26-3 4.06-1.689 7.727-3.856 11-6.5v-1c2.333-.333 3.667-1.667 4-4 2.169-1.84 3.502-4.174 4-7 2.061-1.251 2.394-2.918 1-5-5.356 2.422-11.023 3.755-17 4v-9a13.117 13.117 0 0 0 7-1c-.124-.607-.457-.94-1-1-.838-.342-1.172-1.008-1-2-.104-2.203-.77-4.203-2-6a42.618 42.618 0 0 0 5-1.5c-.837-1.011-1.17-2.178-1-3.5a40.936 40.936 0 0 0 9-.5 909.568 909.568 0 0 0-72-3c26.998-.5 53.998-.667 81-.5z"/><path style="opacity:1" fill="#f1d308" d="M75.5 74.5c-10.616 1.977-21.616 2.644-33 2-6.342.166-12.675 0-19-.5l1-1c16.997-.5 33.997-.667 51-.5z"/><path style="opacity:1" fill="#7d5f11" d="M75.5 74.5h1c-.172.992.162 1.658 1 2a153.629 153.629 0 0 1-35 0c11.384.644 22.384-.023 33-2z"/><path style="opacity:1" fill="#faf9f9" d="M4.5.5v-1h95v124h-35a2.427 2.427 0 0 0-.5-2c-.986.671-2.153.671-3.5 0 18.641-5.809 30.808-18.142 36.5-37 1.43-27.97 1.93-55.97 1.5-84h-94z"/><path style="opacity:1" fill="#20161b" d="M87.5 88.5c-.498 2.826-1.831 5.16-4 7 0-1.333-.667-2-2-2 2.41-1.2 4.41-2.867 6-5z"/><path style="opacity:1" fill="#211b12" d="M28.5 66.5c14.839-1.326 29.839-1.326 45 0 .363.683.696 1.35 1 2 1.23 1.797 1.896 3.797 2 6h-1c-17.003-.167-34.003 0-51 .5l-1 1c6.325.5 12.658.666 19 .5a153.629 153.629 0 0 0 35 0c.543.06.876.393 1 1a13.117 13.117 0 0 1-7 1v9c5.977-.245 11.644-1.578 17-4 1.394 2.082 1.061 3.749-1 5-.235-.597-.735-.93-1.5-1-12.11 5.182-24.776 7.516-38 7-11.81.41-23.144-1.59-34-6 .077 2.272 1.243 3.938 3.5 5v1c1.872 3.223 4.538 5.223 8 6a2.429 2.429 0 0 0-2 .5c.88.708 1.547 1.542 2 2.5-6.727-4.066-11.727-9.732-15-17l2.5-1c1.376.184 2.209.85 2.5 2 4.908 2.725 10.242 3.891 16 3.5-4.542-.867-8.875-2.033-13-3.5 3.654.442 7.321.776 11 1v-11c-8.63 1.551-9.964-.449-4-6 .296-1.903.962-3.57 2-5 14.54 1.674 29.373 2.674 44.5 3 .483-.948.65-1.948.5-3h-44z"/><path style="opacity:1" fill="#cec211" d="M15.5 87.5h3c4.125 1.467 8.458 2.633 13 3.5-5.758.391-11.092-.775-16-3.5z"/><path style="opacity:1" fill="#ccba11" d="M69.5 91.5v-2c4.055-.521 8.055-1.021 12-1.5a44.456 44.456 0 0 1-12 3.5z"/><path style="opacity:1" fill="#dec312" d="M67.5 87.5v4c-1.3-1.723-1.967-3.89-2-6.5l1-6.5a21.12 21.12 0 0 1 1 9z"/><path style="opacity:1" fill="#d7b50e" d="M32.5 78.5c1.305 1.897 1.971 4.23 2 7l-1 7a49.873 49.873 0 0 1-1-14z"/><path style="opacity:1" fill="#6e5c11" d="M69.5 89.5v2h-2v-4a471.119 471.119 0 0 0 2-9c1.033 4.102 1.033 7.768 0 11z"/><path style="opacity:1" fill="#0375a4" d="M35.5 78.5h29v11h-29v-11z"/><path style="opacity:1" fill="#edd205" d="M25.5 71.5a304.386 304.386 0 0 1 49 0c.21.586.543 1.086 1 1.5a765.79 765.79 0 0 1-50-1.5z"/><path style="opacity:1" fill="#f2d205" d="M27.5 66.5h45a4.932 4.932 0 0 1-.5 3c-15.127-.326-29.96-1.326-44.5-3z"/><path style="opacity:1" fill="#f9f9f9" d="M-.5-.5h5v1h-4c-.167 27.669 0 55.335.5 83a54.652 54.652 0 0 0 2 7c11.376 24.607 30.543 34.94 57.5 31 1.347.671 2.514.671 3.5 0 .464.594.631 1.261.5 2h-65V-.5z"/><path style="opacity:1" fill="#eacb0e" d="M87.5 88.5a16.627 16.627 0 0 1-6 5 142.79 142.79 0 0 0-18 4c-15.557.858-30.89-.476-46-4-2.257-1.062-3.423-2.728-3.5-5 10.856 4.41 22.19 6.41 34 6 13.224.516 25.89-1.818 38-7 .765.07 1.265.403 1.5 1z"/><path style="opacity:1" fill="#cfba17" d="M35.5 90.5c9.68.788 19.347 1.121 29 1-8.225 1.95-16.558 2.45-25 1.5-1.937-.122-3.27-.955-4-2.5z"/><path style="opacity:1" fill="#382810" d="M81.5 93.5c-5.584 2.74-11.584 4.073-18 4a142.79 142.79 0 0 1 18-4z"/><path style="opacity:1" fill="#51371b" d="M17.5 94.5v-1c15.11 3.524 30.443 4.858 46 4-15.425 2.035-30.758 1.035-46-3z"/><path style="opacity:1" fill="#3b281c" d="M83.5 95.5c-.333 2.333-1.667 3.667-4 4h-3a37.17 37.17 0 0 0 7-4z"/><path style="opacity:1" fill="#e7c30e" d="M81.5 93.5c1.333 0 2 .667 2 2a37.17 37.17 0 0 1-7 4h3v1c-15.2 8.162-31.2 10.162-48 6-1.681-1.508-3.681-2.508-6-3-.453-.958-1.12-1.792-2-2.5a2.429 2.429 0 0 1 2-.5c-3.462-.777-6.128-2.777-8-6 15.242 4.035 30.575 5.035 46 3 6.416.073 12.416-1.26 18-4z"/><path style="opacity:1" fill="#503817" d="M76.5 99.5c-2.351 1.703-5.018 2.203-8 1.5a18.982 18.982 0 0 1 8-1.5z"/><path style="opacity:1" fill="#433112" d="M25.5 100.5a295.477 295.477 0 0 0 35 2.5c-8.333.667-16.667.667-25 0-3.59-.311-6.923-1.144-10-2.5z"/><path style="opacity:1" fill="#0f1312" d="M25.5 103.5c2.319.492 4.319 1.492 6 3h-3a10.177 10.177 0 0 1-3-3z"/><path style="opacity:1" fill="#131411" d="M79.5 100.5c-3.273 2.644-6.94 4.811-11 6.5-8.454 2.958-17.12 3.958-26 3-4.114-.115-7.78-1.282-11-3.5 16.8 4.162 32.8 2.162 48-6z"/></svg>