<svg xmlns="http://www.w3.org/2000/svg" width="166" height="207" style="shape-rendering:geometricPrecision;text-rendering:geometricPrecision;image-rendering:optimizeQuality;fill-rule:evenodd;clip-rule:evenodd"><path style="opacity:1" fill="#010101" d="M-.5-.5h166v134c-7.997 38.998-31.331 63.331-70 73h-26c-39.907-9.572-63.24-34.572-70-75V-.5z"/><path style="opacity:1" fill="#fefffe" d="M28.5 144.5c.776 2.474 2.276 3.141 4.5 2 .667 2 .667 4 0 6-3.693 1.174-6.86 3.174-9.5 6a99.559 99.559 0 0 0-6.5 10c-6.68-10.032-11.013-21.032-13-33-.5-43.999-.667-87.999-.5-132h158c.167 44.335 0 88.668-.5 133-2.219 12.097-6.885 23.097-14 33-5.331-12.168-14.497-16.834-27.5-14a4.457 4.457 0 0 1-1.5-2c-1.384-12.989 1.282-24.989 8-36 4.485 2.717 8.485 2.05 12-2 1.373-2.195 1.706-4.529 1-7-5.145 3.396-7.145 2.062-6-4a22.981 22.981 0 0 0 2-5c6.065 1.781 9.232-.552 9.5-7-2.788.423-4.788-.577-6-3 3.807-.337 7.14-1.67 10-4 1.044-2.268 1.211-4.6.5-7-2.257 2.62-4.423 2.62-6.5 0 1.463-3.297 3.963-5.297 7.5-6 1.457-2.866 1.79-5.866 1-9-1.789 1.729-3.956 2.396-6.5 2v-4c5.417-.181 7.417-2.848 6-8-3.984 2.78-6.984 1.78-9-3 1.674-1.849 2.674-4.016 3-6.5a293.62 293.62 0 0 1-3.5-11.5 3.646 3.646 0 0 0-1.5-1 46.196 46.196 0 0 1-6.5 5c-2.685-1.675-4.685-4.008-6-7l-6.5 8.5c-3.016.664-5.849.164-8.5-1.5-3.385 1.064-6.218 2.898-8.5 5.5-6.028.17-12.028.67-18 1.5-.904 2.808-.237 5.308 2 7.5-.457.414-.79.914-1 1.5 1.118 2.614 2.784 4.78 5 6.5-4.281 1.387-8.114.22-11.5-3.5a11.362 11.362 0 0 0-1.5-3.5c1.507-.837 2.007-2.004 1.5-3.5-6.757 1.606-8.257 5.44-4.5 11.5 5.407 3.685 11.407 5.185 18 4.5-.586 10.301 3.914 13.301 13.5 9 1.257.35 1.591 1.016 1 2-3.661 4.012-7.828 4.845-12.5 2.5-2.148 2.075-2.482 4.408-1 7l-2 1c-3.258.616-6.258.283-9-1-1.47 2.243-2.47 4.743-3 7.5a18.685 18.685 0 0 0-6 6.5c-8.245-1.703-15.745-5.203-22.5-10.5-1.436-4.939-3.936-9.272-7.5-13 2.118-1.94 2.451-4.106 1-6.5a42.332 42.332 0 0 1 13-7C69.064 54.041 72.564 43.541 69 30.5c-5.369-11.866-14.535-18.533-27.5-20-20.425 2.566-29.258 13.9-26.5 34 2.306 5.304 5.973 9.304 11 12 .84 2.818.006 4.984-2.5 6.5 2.517 2.25 5.517 3.084 9 2.5a19.066 19.066 0 0 1-1 6 16.238 16.238 0 0 0 2 4.5l-.5 1.5c-7.65-1.17-9.817 1.83-6.5 9a22.795 22.795 0 0 0-2 5.5c2.636 2.874 4.136 6.374 4.5 10.5 4.141 3.699 5.474 8.366 4 14-3.05-2.594-6.55-3.427-10.5-2.5-.837 1.011-1.17 2.178-1 3.5 2.621-.023 3.955 1.311 4 4a53.311 53.311 0 0 0-8.5 8c-1.252 2.514-1.752 5.18-1.5 8 2.423.076 4.256-.924 5.5-3a27.078 27.078 0 0 1 4.5 2c.934 2.733 1.934 5.4 3 8z"/><path style="opacity:1" fill="#fea700" d="M35.5 13.5c18.584-1.236 29.25 7.264 32 25.5-.305 13.316-6.972 21.649-20 25l-3 3c-3.317.498-6.65.665-10 .5.312-6.503 3.646-8.503 10-6 16.938-7.17 21.438-18.836 13.5-35-16.129-13.473-28.628-10.473-37.5 9a48.957 48.957 0 0 0 6 13.5c4.496 2.167 8.663 1.667 12.5-1.5a16.25 16.25 0 0 0 0-8c-6.789 4.842-12.289 3.676-16.5-3.5a754.556 754.556 0 0 1 8.5-4.5c2.868.86 5.202 2.528 7 5-.143-2.663-.643-5.33-1.5-8 .347-3.028 1.514-5.694 3.5-8 4.33 3.47 5.497 7.804 3.5 13 .865 1.083 1.865 1.25 3 .5 1.427-1.797 3.26-2.964 5.5-3.5a21.907 21.907 0 0 1 8.5 5 43.208 43.208 0 0 1-9.5 5c-2.27-1.36-4.77-2.027-7.5-2 .304 3.715-.363 7.215-2 10.5 2.742-1.283 5.742-1.616 9-1 2.076 1.884 2.41 4.05 1 6.5-4.107-4.019-8.107-3.852-12 .5l-7 1c-.193 1.645-.36 3.479-.5 5.5-1.133 1.711-2.633 2.211-4.5 1.5 1.277-2.466 1.277-4.966 0-7.5-15.88-12.818-15.88-25.651 0-38.5a42.428 42.428 0 0 1 8-3.5z"/><path style="opacity:1" fill="#fefffe" d="M34.5 21.5a2.428 2.428 0 0 1 2 .5c-1.502 2.574-2.502 5.407-3 8.5-2-1.333-4-1.333-6 0-1.021-.502-1.188-1.168-.5-2a72.69 72.69 0 0 1 7.5-7zM45.5 22.5c4.038.52 7.372 2.353 10 5.5a33.995 33.995 0 0 0-7.5 1.5 18.892 18.892 0 0 1-2.5-7z"/><path style="opacity:1" fill="#e10a15" d="M126.5 33.5c2.169 1.84 3.502 4.174 4 7h-7c.188-2.706 1.188-5.04 3-7z"/><path style="opacity:1" fill="#e10a15" d="M138.5 34.5c5.004 8.073 3.337 14.573-5 19.5 2.318.342 4.485-.158 6.5-1.5 1.52 3.852 4.353 5.685 8.5 5.5a38.108 38.108 0 0 1-7 2.5 81.836 81.836 0 0 0 2 7c1.944.69 3.944 1.19 6 1.5-2.052 3.084-4.385 3.25-7 .5-1.478 3.983-1.812 7.983-1 12 1.944.69 3.944 1.19 6 1.5-2.027 1.88-4.36 3.046-7 3.5a8.43 8.43 0 0 0-.5-4c-5.096 5.235-4.596 9.735 1.5 13.5-1.405 1.27-3.071 1.77-5 1.5.219-1.175-.114-2.175-1-3a101.365 101.365 0 0 0-6 12.5c.73 3.877 3.064 6.211 7 7-2.269 2.023-4.936 2.856-8 2.5.626-3.695-.374-4.529-3-2.5-3.067 3.297-5.233 7.131-6.5 11.5a176.147 176.147 0 0 0-4.5 23c-.058 2.547.609 4.88 2 7a35.594 35.594 0 0 1-4.5 4c-8.385-15.276-21.219-21.609-38.5-19a28.763 28.763 0 0 0-2-7c.056-1.237.556-2.237 1.5-3 6.962.998 13.962 1.998 21 3 4.37.177 8.536-.657 12.5-2.5 4.752-3.989 5.085-8.489 1-13.5l-2 11-3 1.5a281.58 281.58 0 0 1-43-2.5 88.23 88.23 0 0 0-10 1c.219-1.175-.114-2.175-1-3-1.174 3.025-.507 5.692 2 8-2.61-.228-5.276.105-8 1-.117-1.984.55-3.65 2-5-7.006-1.661-9.672 1.006-8 8-2.744.991-5.41.657-8-1a19.897 19.897 0 0 1 3.5-4c1.187-1.544 1.52-3.211 1-5a55.861 55.861 0 0 0-4.5 5.5 8.43 8.43 0 0 1-4 .5c.71-3.36-.624-5.193-4-5.5a7.292 7.292 0 0 0 3-2 77.6 77.6 0 0 0 10 0 11.532 11.532 0 0 0 4.5-3.5 4.932 4.932 0 0 0 2.5 1 566.293 566.293 0 0 1 32-8.5 65.827 65.827 0 0 0 21-12c-4.41.871-8.41 2.871-12 6-3.686 2.455-7.686 3.455-12 3 1.425-1.362 2.258-2.862 2.5-4.5-1.965 1.385-3.798 1.218-5.5-.5a22.507 22.507 0 0 0 7-2 82.35 82.35 0 0 1 7-10 32.459 32.459 0 0 0 7-3c-3.129-.117-4.295-1.617-3.5-4.5 5.598 2.595 10.765 1.762 15.5-2.5-2.947-.112-4.28-1.612-4-4.5 7.787 2.18 13.62-.153 17.5-7 4 1.333 8 1.333 12 0 4.14-2.582 5.474-6.249 4-11a3.646 3.646 0 0 0-1.5-1 390.419 390.419 0 0 0-.5 7 11.529 11.529 0 0 1-4.5 3.5 139.244 139.244 0 0 0-26 1 3.646 3.646 0 0 1-1-1.5 530.078 530.078 0 0 0 20-4c.393-3.43-.273-6.596-2-9.5a170.272 170.272 0 0 0-24-3.5c.309-2.846 1.975-4.346 5-4.5l-6-1c-.837-1.011-1.17-2.178-1-3.5a76.83 76.83 0 0 0 17-1.5 42.906 42.906 0 0 1 7-4.5 44.261 44.261 0 0 0 17 3c.17 1.322-.163 2.489-1 3.5l1.5 1.5a195.937 195.937 0 0 1 9.5-13z"/><path style="opacity:1" fill="#fefffe" d="M58.5 39.5c1.233 4.492.066 8.492-3.5 12-1.115-4.116-3.782-6.45-8-7-.667-1-.667-2 0-3 4.358 1.73 8.19 1.064 11.5-2z"/><path style="opacity:1" d="M136.5 41.5c.876-.13 1.543.203 2 1a19.503 19.503 0 0 1-3 7 10.76 10.76 0 0 1-3-2.5c1.939-1.432 3.272-3.265 4-5.5zM111.5 42.5a8.435 8.435 0 0 1 4 .5 273.69 273.69 0 0 0 7 5c-1.791.415-3.124 1.415-4 3-5.483 1.094-10.15-.406-14-4.5.891-1.09 1.891-1.09 3 0 1.049-1.716 2.382-3.049 4-4z"/><path style="opacity:1" fill="#fefffe" d="M26.5 43.5c3.748.879 7.415 1.212 11 1-.953 2.012-2.62 3.012-5 3-3.386.6-5.386-.734-6-4zM111.5 44.5a71.015 71.015 0 0 1 2 4c1.904-3.944 2.904-3.61 3 1-4.915 1.09-6.581-.577-5-5z"/><path style="opacity:1" fill="#e10a15" d="M75.5 51.5c1.747 1.48 2.914 3.48 3.5 6a47.035 47.035 0 0 1 5.5 3.5c7.972 1.666 15.972 1.999 24 1-9.455 2.286-18.788 1.953-28-1-4.375-1.7-6.042-4.867-5-9.5z"/><path style="opacity:1" fill="#fefffe" d="M44.5 53.5c2.89.027 3.89 1.194 3 3.5-2.866 1.457-5.866 1.79-9 1 2.247-1.278 4.247-2.778 6-4.5z"/><path style="opacity:1" d="M116.5 56.5c.617.11 1.117.444 1.5 1a20.428 20.428 0 0 0 1.5 5.5l-1 .5a34.094 34.094 0 0 1-2-7z"/><path style="opacity:1" fill="#fefffe" d="M95.5 57.5c1.276.886 1.276 1.886 0 3-.587-.733-.587-1.733 0-3zM97.5 57.5c1.347.671 2.514.671 3.5 0 2.361 2.547 1.861 3.38-1.5 2.5-1.256-.417-1.923-1.25-2-2.5zM105.5 58.5c1.273.577 1.273 1.243 0 2-.963-.47-.963-1.136 0-2zM105.5 63.5c1.725.343 2.225 1.343 1.5 3-1.039-.744-1.539-1.744-1.5-3zM110.5 63.5c1.175-.219 2.175.114 3 1-1.552 1.298-2.552.965-3-1zM95.5 65.5c.709-.904 1.709-1.237 3-1a4.932 4.932 0 0 1-.5 3c-.708-.88-1.542-1.547-2.5-2zM100.5 65.5c.709-.904 1.709-1.237 3-1-.194 3.505-1.194 3.838-3 1z"/><path style="opacity:1" fill="#fea700" d="M35.5 69.5c3.307-.437 6.307.23 9 2a3.646 3.646 0 0 1-1 1.5 40.936 40.936 0 0 1-9 .5c-.067-1.459.266-2.792 1-4zM36.5 75.5c6.353.32 6.52 1.653.5 4a8.434 8.434 0 0 1-.5-4z"/><path style="opacity:1" fill="#e10a15" d="M27.5 78.5a9.864 9.864 0 0 1 6 1c-.825.886-1.825 1.219-3 1v4a8.434 8.434 0 0 1 4 .5c-5.563.933-7.896-1.233-7-6.5zM44.5 80.5c-.79-.283-1.456-.783-2-1.5 1.316-.528 1.983-.028 2 1.5z"/><path style="opacity:1" fill="#fefffe" d="M39.5 79.5c3.274.879 3.608 2.212 1 4a28.83 28.83 0 0 0-4-1.5 81.718 81.718 0 0 0 3-2.5z"/><path style="opacity:1" fill="#e10a15" d="M44.5 80.5c2.876 2.408 4.542 5.575 5 9.5 6.942 5.305 14.609 9.305 23 12-2.824 1.363-5.658 1.863-8.5 1.5-.325 2.053.009 4.053 1 6 1.706.808 2.54 2.141 2.5 4-2.32.667-4.653.834-7 .5a191.966 191.966 0 0 1-16-17c5.357-1.928 5.19-3.428-.5-4.5-.651-1.735-.485-3.402.5-5a55.66 55.66 0 0 1-4-1c.787-1.604 2.12-2.27 4-2v-4z"/><path style="opacity:1" fill="#fea700" d="M39.5 86.5c-.958.453-1.792 1.12-2.5 2-.774-1.903-.44-3.57 1-5 1.039.744 1.539 1.744 1.5 3zM39.5 86.5h1a308.978 308.978 0 0 1 1 34h-5c-1.003-8.863.33-17.196 4-25 .07-2.166-.596-2.499-2-1a4.452 4.452 0 0 1-2-1.5c2.415-1.465 3.415-3.632 3-6.5z"/><path style="opacity:1" fill="#e10a15" d="M31.5 92.5h2c-.995 3.092-2.995 3.759-6 2-1.708-5.461.292-7.628 6-6.5-1.063 1.188-2.397 1.688-4 1.5-.215 1.679.452 2.679 2 3z"/><path style="opacity:1" fill="#fefffe" d="M33.5 92.5h-2c.291-1.15 1.124-1.816 2.5-2l2.5.5c-1.237.232-2.237.732-3 1.5z"/><path style="opacity:1" fill="#e10a15" d="M32.5 96.5a4.932 4.932 0 0 1 3 .5c-1.473.71-2.14 1.876-2 3.5 3.815.212 3.815.878 0 2-1.41-.368-2.41-1.201-3-2.5 1.323-.816 1.99-1.983 2-3.5z"/><path style="opacity:1" fill="#fefffe" d="M44.5 101.5a265.861 265.861 0 0 1 14 13.5 56.142 56.142 0 0 1-14 4.5v-18zM24.5 114.5c1.59.128 2.923.795 4 2-2.333 1.441-3.666.775-4-2z"/><path style="opacity:1" fill="#e10a15" d="M30.5 118.5c2.797.467 4.13 2.133 4 5-2.62.268-5.12-.065-7.5-1l-.5-1c1.684-.65 3.017-1.65 4-3z"/><path style="opacity:1" fill="#fefffe" d="M18.5 130.5c3.839.55 3.839 1.55 0 3-1.062-.925-1.062-1.925 0-3zM51.5 131.5c5.81-.99 11.81-1.323 18-1-.167 4.17.5 8.17 2 12-7.98 2.132-14.147 6.799-18.5 14a80.406 80.406 0 0 0-7.5-4c-1.333-3.667-1.333-7.333 0-11a25.298 25.298 0 0 0 8-6.5 19.62 19.62 0 0 0-2-3.5zM-.5 131.5c6.76 40.428 30.093 65.428 70 75h-70v-75z"/><path style="opacity:1" fill="#fea700" d="M38.5 131.5c1.15.291 1.816 1.124 2 2.5a42.21 42.21 0 0 1 0 17.5 6.845 6.845 0 0 1-4 1c-.142-7.333.525-14.333 2-21z"/><path style="opacity:1" fill="#fefffe" d="M165.5 133.5v73h-70c38.669-9.669 62.003-34.002 70-73zM45.5 136.5c3.457.167 3.79 1.167 1 3-.886-.825-1.219-1.825-1-3zM28.5 144.5v-4h3c.285 1.788-.048 3.455-1 5a44.147 44.147 0 0 0-2-1z"/><path style="opacity:1" fill="#00612a" d="M75.5 142.5c20.753-1.037 33.253 8.63 37.5 29 .482-3.407.482-6.74 0-10 14.401-7.978 25.234-4.478 32.5 10.5-26.553 30.388-58.886 38.388-97 24-11.005-6.005-20.506-13.839-28.5-23.5.596-8.623 5.096-14.456 13.5-17.5 4-.667 8-.667 12 0a15.83 15.83 0 0 1 5.5 3.5 49.92 49.92 0 0 0 0 11c2.832-13.992 10.998-22.992 24.5-27z"/><path style="opacity:1" d="M110.5 143.5c.617.111 1.117.444 1.5 1a38.852 38.852 0 0 0 1.5 7l-1 1a43.279 43.279 0 0 1-2-9z"/></svg>