<svg xmlns="http://www.w3.org/2000/svg" width="166" height="207" style="shape-rendering:geometricPrecision;text-rendering:geometricPrecision;image-rendering:optimizeQuality;fill-rule:evenodd;clip-rule:evenodd"><path style="opacity:1" d="M-.5-.5h166v132c-7.433 39.769-30.767 64.769-70 75h-26c-39.629-10.297-62.962-35.63-70-76V-.5z"/><path style="opacity:1" fill="#fea700" d="M3.5 3.5h158c.167 44.001 0 88.001-.5 132-7.994 35.326-29.494 57.493-64.5 66.5-40.888 4.141-70.055-12.359-87.5-49.5a77.645 77.645 0 0 1-5-20c-.5-42.999-.667-85.999-.5-129z"/><path style="opacity:1" d="M78.5 11.5c6.008-.33 10.675 2.004 14 7a32.367 32.367 0 0 1-4.5 3c-.5 8.66-.666 17.327-.5 26-3.937.294-7.77-.04-11.5-1l-1-25a32.367 32.367 0 0 1-4.5-3c2.07-3.072 4.736-5.406 8-7z"/><path style="opacity:1" d="M32.5 22.5c1.544 4.7 4.378 8.7 8.5 12 1.457 2.866 1.79 5.866 1 9-2.17 3.852-4.336 7.685-6.5 11.5a52.184 52.184 0 0 0 10 7c4.58 3.438 6.08 7.938 4.5 13.5a1120.348 1120.348 0 0 1-5.5 9.5c8.395 7.197 18.061 11.697 29 13.5a324.87 324.87 0 0 0-1-36 39.907 39.907 0 0 0-12.5-4c-1.059.13-1.892.63-2.5 1.5a13.912 13.912 0 0 0 3 4c-2.347.334-4.68.167-7-.5a9.106 9.106 0 0 1 1-5c-2.684-.475-5.017-1.475-7-3 1.523-1.782 3.523-2.45 6-2-.407-5.665 1.926-7.499 7-5.5-4.288 2.544-3.954 4.044 1 4.5a25.632 25.632 0 0 0 10-3.5 100.245 100.245 0 0 1 20 0c4.394 3.259 9.061 3.925 14 2l-3-3c2.112-1.445 4.278-1.278 6.5.5.494 1.634.66 3.3.5 5 2.477-.45 4.477.218 6 2a3.647 3.647 0 0 1-1 1.5l-6 1c1.48 5.188-.52 7.188-6 6 3.704-2.136 3.704-3.97 0-5.5a44.36 44.36 0 0 0-12 4 324.87 324.87 0 0 0-1 36c10.949-1.809 20.616-6.309 29-13.5-3.867-4.935-5.701-10.435-5.5-16.5.883-2.602 2.383-4.77 4.5-6.5a99.559 99.559 0 0 0 10-6.5 36.008 36.008 0 0 0-6.5-11c-1.757-5.758-.091-10.092 5-13a108.958 108.958 0 0 0 4-9l12 13a29.665 29.665 0 0 1 3.5 9c-.547 3.202-1.547 6.202-3 9a81.722 81.722 0 0 0 6.5 9 25.238 25.238 0 0 1 0 10 485.871 485.871 0 0 1-9.5 18.5c10.551 9.503 13.051 21.003 7.5 34.5-8.659 20.991-23.159 36.491-43.5 46.5a86.718 86.718 0 0 1-15 3.5 60.627 60.627 0 0 1-4.5 20c-1.049 1.607-2.549 2.273-4.5 2a201.919 201.919 0 0 1-5-22c-13.821-2.106-25.821-7.939-36-17.5-12.163-11.495-20.33-25.329-24.5-41.5-1.797-10.257 1.37-18.757 9.5-25.5A381.617 381.617 0 0 1 15 74.5c-1.434-3.906-1.767-7.906-1-12a45.24 45.24 0 0 1 7.5-8.5c-3.929-4.31-4.762-9.143-2.5-14.5a94.843 94.843 0 0 1 13.5-17z"/><path style="opacity:1" fill="#e10a15" d="M130.5 26.5a79.196 79.196 0 0 1 11.5 13c1.54 14.175-1.294 15.342-8.5 3.5-3.465-1.074-6.965-1.574-10.5-1.5-.064-4.194 1.769-7.527 5.5-10a16.08 16.08 0 0 0 2-5zM31.5 27.5c2.534 3.385 5.367 6.718 8.5 10 .667 1.333.667 2.667 0 4-3.535-.074-7.035.426-10.5 1.5a42.308 42.308 0 0 1-6.5 8.5c-3.001-2.346-4.001-5.346-3-9 2.962-5.78 6.795-10.78 11.5-15z"/><path style="opacity:1" fill="#e10a15" d="M32.5 43.5c1.617.538 3.284.871 5 1-.676 3.687-2.176 7.02-4.5 10-3.052-3.604-3.218-7.27-.5-11zM127.5 43.5c4.651.674 6.151 3.34 4.5 8a7.292 7.292 0 0 1-2 3 40.406 40.406 0 0 1-5.5-8.5 81.216 81.216 0 0 0 3-2.5z"/><path style="opacity:1" fill="#e10a15" d="M27.5 49.5c3.21 5.989 8.21 10.155 15 12.5 3.752 3.007 5.752 6.84 6 11.5-3.459-.38-6.792-.88-10-1.5a20.473 20.473 0 0 1-3.5 2.5 81.896 81.896 0 0 1-10 14 67.847 67.847 0 0 0-7-12c-3.082-5.46-3.082-10.793 0-16a58.33 58.33 0 0 0 9.5-11zM134.5 49.5a65.437 65.437 0 0 1 11.5 12c1.944 5.089 1.611 10.089-1 15l-7 12A410.939 410.939 0 0 1 126.5 73a10.255 10.255 0 0 0-4-1.5 18.73 18.73 0 0 1-8 2c-.04-2.924.793-5.591 2.5-8a216.702 216.702 0 0 1 14.5-10c2.077-1.488 3.077-3.488 3-6z"/><path style="opacity:1" fill="#fefffe" d="M75.5 62.5h4c.167 41.668 0 83.335-.5 125a45.948 45.948 0 0 1-2-10 6850.39 6850.39 0 0 1-1.5-115zM83.5 62.5h4a6499.436 6499.436 0 0 1-1.5 114 55.774 55.774 0 0 1-2 12c-.5-41.999-.667-83.999-.5-126z"/><path style="opacity:1" fill="#e10a15" d="M38.5 73.5c8.048.81 9.548 4.144 4.5 10-4.213-2.31-5.713-5.643-4.5-10zM121.5 73.5c2.095.26 3.428 1.426 4 3.5a25.736 25.736 0 0 1-5.5 6.5 26.848 26.848 0 0 0-3.5-6c1.919-1.112 3.586-2.446 5-4z"/><path style="opacity:1" fill="#e10a15" d="M34.5 78.5c9.08 10.393 20.413 17.56 34 21.5 1.634.494 3.3.66 5 .5.653 24.328.986 48.661 1 73-15.858-2.512-29.024-9.845-39.5-22-8.93-9.856-15.263-21.19-19-34a42.498 42.498 0 0 1 0-13 774.85 774.85 0 0 1 18.5-26zM127.5 78.5a239.922 239.922 0 0 1 19.5 25c-.21 21.926-8.71 40.093-25.5 54.5-9.404 8.573-20.404 13.739-33 15.5.315-24.334.649-48.667 1-73 15.697-2.18 28.364-9.513 38-22z"/><path style="opacity:1" fill="#fefffe" d="M-.5 130.5c7.038 40.37 30.371 65.703 70 76h-70v-76zM165.5 131.5v75h-70c39.233-10.231 62.567-35.231 70-75z"/></svg>