<?xml version="1.0" encoding="UTF-8" standalone="no"?>
<svg
   xmlns:dc="http://purl.org/dc/elements/1.1/"
   xmlns:cc="http://creativecommons.org/ns#"
   xmlns:rdf="http://www.w3.org/1999/02/22-rdf-syntax-ns#"
   xmlns:svg="http://www.w3.org/2000/svg"
   xmlns="http://www.w3.org/2000/svg"
   xmlns:xlink="http://www.w3.org/1999/xlink"
   xmlns:sodipodi="http://sodipodi.sourceforge.net/DTD/sodipodi-0.dtd"
   xmlns:inkscape="http://www.inkscape.org/namespaces/inkscape"
   height="602.99615"
   viewBox="0 0 502.70833 598.28522"
   width="499.99997"
   version="1.1"
   id="svg39"
   sodipodi:docname="Coat_of_arms_Pfarrkirchen_im_Mühlkreis.svg"
   inkscape:version="0.92.2 (5c3e80d, 2017-08-06)">
  <metadata
     id="metadata45">
    <rdf:RDF>
      <cc:Work
         rdf:about="">
        <dc:format>image/svg+xml</dc:format>
        <dc:type
           rdf:resource="http://purl.org/dc/dcmitype/StillImage" />
      </cc:Work>
    </rdf:RDF>
  </metadata>
  <defs
     id="defs43" />
  <sodipodi:namedview
     pagecolor="#ffffff"
     bordercolor="#666666"
     borderopacity="1"
     objecttolerance="10"
     gridtolerance="10"
     guidetolerance="10"
     inkscape:pageopacity="0"
     inkscape:pageshadow="2"
     inkscape:window-width="1920"
     inkscape:window-height="1017"
     id="namedview41"
     showgrid="false"
     inkscape:zoom="0.39137895"
     inkscape:cx="459.70306"
     inkscape:cy="588.65697"
     inkscape:window-x="-8"
     inkscape:window-y="-8"
     inkscape:window-maximized="1"
     inkscape:current-layer="svg39" />
  <path
     d="m9.7375057 5.7386779.2687363 335.5359321c0 136.7867 107.486408 248.04348 240.510808 251.26831h.80621.53747c133.34689-3.22483 240.84136-114.48161 240.84136-251.26831l.26874-335.5359321h-241.1101-1.34368-241.0482803z"
     fill="#da121a"
     stroke="#000"
     stroke-linejoin="round"
     stroke-miterlimit="6"
     stroke-width="5.374723"
     id="path2"
     style="fill:#d50b2b" />
  <path
     d="m251.03303 40.718778c-10.08298 0-18.09175 8.15281-18.09175 18.17817 0 3.77392 1.12353 7.25975 3.14013 10.16941-2.0166-.72021-3.97558-1.18115-6.30907-1.18115-10.05417 0-18.17817 8.18162-18.17817 18.206976 0 9.96775 8.124 18.178186 18.17817 18.178186 2.0166 0 3.94677-.3457 5.67528-.89306v30.50822h-33.04337-7.37498c.6914-1.81494 1.18115-3.88915 1.18115-6.02099 0-9.93893-8.21043-18.37983-18.17818-18.37983-10.02536 0-18.09175 8.4409-18.09175 18.37983 0 2.10303.43213 4.23486 1.15234 6.3955-2.93846-2.13183-6.39549-3.25537-10.1694-3.25537-10.02537 0-18.17818 8.38328-18.17818 18.55269 0 10.08298 8.15281 18.00532 18.17818 18.00532 3.77391 0 7.23094-1.0371 10.1694-3.0537-.72021 2.0166-1.15234 3.91796-1.15234 6.28026 0 10.02536 8.06639 18.20698 18.09175 18.20698 9.96775 0 18.17818-8.15281 18.17818-18.20698 0-2.0166-.37451-3.94677-.89307-5.64647h8.4409v-.28809h31.68937v138.82825c-85.47487 4.32128-162.335998 40.9081-217.763586 99.1013 26.849539 106.30343 120.822926 185.81493 232.715206 188.4077h.54736.80664c112.49726-2.59277 205.83686-82.10427 232.62878-188.4077-55.60044-58.1932-131.94301-95.06811-217.76359-99.1013v-138.82825h35.98184v-.54736h7.7783c-.86425 1.90136-1.44042 4.09081-1.44042 6.22264 0 9.93894 8.35447 18.2646 18.43745 18.2646 9.79489 0 18.14936-8.32566 18.14936-18.2646 0-2.13183-.57617-4.32128-1.44042-6.48192 3.16893 2.16064 6.62596 3.25537 10.37106 3.25537 9.7949 0 18.14937-8.35447 18.14937-18.55269 0-9.93894-8.35447-18.00532-18.14937-18.00532-3.7451 0-7.20213 1.09472-10.37106 3.22655.86425-2.13183 1.44042-3.97557 1.44042-6.36668 0-9.96775-8.35447-18.12056-18.14936-18.12056-10.08298 0-18.43745 8.15281-18.43745 18.12056 0 2.13183.28808 3.94677.86425 5.56004h-8.35447v.54736h-34.8295v-30.7963c1.87256.6914 3.97558 1.18115 6.10741 1.18115 9.93894 0 18.35103-8.210436 18.35103-18.178186 0-10.025356-8.41209-18.206976-18.35103-18.206976-2.13183 0-4.23485.46094-6.39549 1.18115 2.16064-2.90966 3.25536-6.39549 3.25536-10.16941 0-10.02536-8.44089-18.17817-18.55268-18.17817z"
     fill="#fcdd09"
     stroke="#000"
     stroke-linejoin="round"
     stroke-miterlimit="6"
     stroke-width="6.626247"
     id="path4"
     style="fill:#f5c801" />
  <path
     d="m251.32326 350.1429c-85.99557 0-164.197796 33.59202-221.976076 88.4142 36.548119 88.4142 121.737486 151.29846 221.169866 153.44835h.53748.8062c99.75487-2.14989 184.6755-65.03415 221.22362-153.44835-57.77828-54.82218-135.9805-88.4142-221.76109-88.4142z"
     fill="#078930"
     stroke="#000"
     stroke-linejoin="round"
     stroke-miterlimit="6"
     stroke-width="6.628646"
     id="path6" />
  <g
     id="a"
     fill="#fcdd09"
     stroke-width="4.3551"
     transform="matrix(.79411538 0 0 .79411538 -70.353935 367.07328)"
     style="fill:#f5c801">
    <path
       d="m195.6 111.7c31.9 12.3 20.3-21.97 36.2-26.53 8.4-2.41 15.8 10.29 16.9 20.73h9.7c-4.7-28.53-14.2-50.76-40.1-48.01-6.2.65-9.8 4.26-11.8 7.29-11.3 17.11 11.9 37.72-10.9 46.52z"
       fill="#fcdd09"
       stroke="#000"
       stroke-width="4.3551"
       id="path8"
       style="fill:#f5c801" />
    <path
       d="m334.7 111.7c-31.9 12.3-20.3-21.97-36.2-26.53-8.4-2.41-15.8 10.29-16.9 20.73h-9.7c4.7-28.53 14.2-50.76 40.1-48.01 6.2.65 9.8 4.26 11.8 7.29 11.3 17.11-11.9 37.72 10.9 46.52z"
       fill="#fcdd09"
       stroke="#000"
       stroke-width="4.3551"
       id="path10"
       style="fill:#f5c801" />
    <path
       d="m49.94 136.3c-.71.1-1.59.7-2.06 1.1-3.67 3-4.86 9.4-1.72 14.9.55 1 1.38 4.8 1.43 6.9h4.82c.1-2.1.88-5.9 1.43-6.9 3.14-5.5 1.98-11.9-1.68-14.9-.48-.4-1.51-1-2.22-1.1z"
       fill="#fcdd09"
       stroke="#000"
       stroke-width="1.2001"
       transform="matrix(3.629 0 0 3.629 83.65 -471.4)"
       id="path12"
       style="fill:#f5c801" />
    <path
       d="m246.8 126.1h11.3c-.5 25.9-16.9 76.8-48.2 26.1-4 3-6.6 4-7.8 3-4.6-3.8.8-15 7-15.4 2.9-.3 9.1 1.2 11.8 3.6 9 8.4 20.7 8.1 25.9-17.3z"
       fill="#fcdd09"
       stroke="#000"
       stroke-width="4.3551"
       id="path14"
       style="fill:#f5c801" />
    <path
       d="m265.5 122.1h-17.4c-1.2 0-2.7.8-2.7 1.9 0 1 1.5 1.8 2.7 1.8h17.4"
       fill="#fcdd09"
       stroke="#000"
       stroke-linecap="round"
       stroke-width="4.3551"
       id="path16"
       style="fill:#f5c801" />
    <path
       d="m265.1 113.5h-17.8c-1.1 0-2.6 1.7-2.6 3.8 0 1.9 1.5 3.5 2.6 3.5h17.8"
       fill="#fcdd09"
       stroke="#000"
       stroke-linecap="round"
       stroke-width="4.3551"
       id="path18"
       style="fill:#f5c801" />
    <path
       d="m264.9 106.5h-14.9c-1.2 0-2.6 1.5-2.6 3.4 0 1.6 1.4 3 2.6 3h14.9"
       fill="#fcdd09"
       stroke="#000"
       stroke-linecap="round"
       stroke-width="4.3551"
       id="path20"
       style="fill:#f5c801" />
    <path
       d="m283.5 126.1h-11.3c.5 25.9 16.9 76.8 48.3 26.1 3.9 3 6.5 4 7.7 3 4.6-3.8-.8-15-7-15.4-2.9-.3-9.1 1.2-11.8 3.6-9 8.4-20.7 8.1-25.9-17.3z"
       fill="#fcdd09"
       stroke="#000"
       stroke-width="4.3551"
       id="path22"
       style="fill:#f5c801" />
    <path
       d="m265.2 122.1h17.1c1.2 0 2.7.8 2.7 1.9 0 1-1.5 1.8-2.7 1.8h-17.1"
       fill="#fcdd09"
       stroke="#000"
       stroke-linecap="round"
       stroke-width="4.3551"
       id="path24"
       style="fill:#f5c801" />
    <path
       d="m264.8 113.5h18.2c1.1 0 2.6 1.7 2.6 3.8 0 1.9-1.5 3.5-2.6 3.5h-18.2"
       fill="#fcdd09"
       stroke="#000"
       stroke-linecap="round"
       stroke-width="4.3551"
       id="path26"
       style="fill:#f5c801" />
    <path
       d="m264.7 106.5h15.6c1.2 0 2.6 1.5 2.6 3.4 0 1.6-1.4 3-2.6 3h-15.6"
       fill="#fcdd09"
       stroke="#000"
       stroke-linecap="round"
       stroke-width="4.3551"
       id="path28"
       style="fill:#f5c801" />
    <path
       d="m49.97 164.7h-2c-.77 6.5-3.05 14.4 1.91 16.9 4.95-2.5 2.83-10.4 2.06-16.9h-1.88-.1z"
       fill="#fcdd09"
       stroke="#000"
       stroke-linejoin="round"
       stroke-width="1.2001"
       transform="matrix(3.629 0 0 3.629 83.65 -471.4)"
       id="path30"
       style="fill:#f5c801" />
  </g>
  <path
     d="m251.592 592.54292c133.34688-2.68736 240.84135-114.21287 240.84135-251.26831l.53748-335.5332421h-483.2333243l.5374723 335.5332421c0 137.05544 107.755142 248.58095 241.317022 251.26831z"
     fill="none"
     stroke="#000"
     stroke-dashoffset="4.3"
     stroke-linecap="round"
     stroke-width="9.405766"
     id="path33" />
  <use
     height="225"
     transform="translate(111.06866 44.072734)"
     width="190"
     xlink:href="#a"
     id="use35" />
  <use
     height="225"
     transform="translate(222.13732 .000005)"
     width="190"
     xlink:href="#a"
     id="use37" />
</svg>
