<?xml version="1.0" encoding="UTF-8"?>
<!DOCTYPE svg PUBLIC "-//W3C//DTD SVG 1.1//EN" "http://www.w3.org/Graphics/SVG/1.1/DTD/svg11.dtd">
<svg xmlns="http://www.w3.org/2000/svg" version="1.1" width="166px" height="207px" style="shape-rendering:geometricPrecision; text-rendering:geometricPrecision; image-rendering:optimizeQuality; fill-rule:evenodd; clip-rule:evenodd" xmlns:xlink="http://www.w3.org/1999/xlink">
<g><path style="opacity:1" fill="#010000" d="M -0.5,-0.5 C 54.8333,-0.5 110.167,-0.5 165.5,-0.5C 165.5,44.1667 165.5,88.8333 165.5,133.5C 157.475,172.524 134.142,196.858 95.5,206.5C 86.8333,206.5 78.1667,206.5 69.5,206.5C 30.0061,196.67 6.67281,171.67 -0.5,131.5C -0.5,87.5 -0.5,43.5 -0.5,-0.5 Z"/></g>
<g><path style="opacity:1" fill="#fefffe" d="M 142.5,88.5 C 143.793,86.7041 145.293,85.0375 147,83.5C 149.707,80.0041 149.874,76.5041 147.5,73C 148.294,69.3055 147.294,68.8055 144.5,71.5C 145.778,69.1774 146.778,66.6774 147.5,64C 147.112,62.0486 146.112,60.5486 144.5,59.5C 141.524,63.6438 138.357,67.6438 135,71.5C 135.919,66.8597 138.252,62.8597 142,59.5C 144.058,55.4083 143.892,51.4083 141.5,47.5C 139.293,52.2125 136.127,56.2125 132,59.5C 131.685,58.0922 132.018,56.7589 133,55.5C 135.723,52.4432 138.056,49.1099 140,45.5C 141.079,41.6952 140.412,38.3619 138,35.5C 137.623,36.9423 136.79,37.9423 135.5,38.5C 139.718,30.1637 137.551,24.1637 129,20.5C 124.98,21.6835 123.147,24.3502 123.5,28.5C 129.018,26.044 131.185,27.7107 130,33.5C 114.495,48.1879 113.828,63.5212 128,79.5C 130.868,87.0347 129.535,93.7014 124,99.5C 122.301,100.406 120.467,100.739 118.5,100.5C 118.741,97.2065 117.908,94.2065 116,91.5C 111.973,86.3062 108.14,80.9728 104.5,75.5C 108.034,74.9017 110.701,73.0683 112.5,70C 106.851,69.5165 105.184,66.6832 107.5,61.5C 109.595,62.2294 111.428,61.5628 113,59.5C 113.667,58.1667 113.667,56.8333 113,55.5C 108.64,56.6228 107.473,54.9561 109.5,50.5C 112.77,49.2411 114.437,46.9078 114.5,43.5C 113.167,43.5 111.833,43.5 110.5,43.5C 110.231,37.1975 108.897,31.1975 106.5,25.5C 111.61,17.2922 109.61,15.2922 100.5,19.5C 99.7022,17.9223 99.2022,16.2556 99,14.5C 97.9887,13.6634 96.8221,13.33 95.5,13.5C 94.8333,15.5 94.1667,17.5 93.5,19.5C 90.6887,19.8257 88.022,20.6591 85.5,22C 81.0822,22.1816 76.7488,22.3483 72.5,22.5C 71.7379,23.6283 71.0712,24.7949 70.5,26C 72.2506,30.6397 75.5839,32.973 80.5,33C 75.204,33.8801 70.204,33.0467 65.5,30.5C 64.6851,29.1634 63.5185,28.1634 62,27.5C 61.3421,31.0252 62.5088,33.8586 65.5,36C 69.2815,37.8271 73.2815,38.8271 77.5,39C 74.1964,40.2853 73.5297,42.452 75.5,45.5C 79.1817,45.3347 82.8484,45.5014 86.5,46C 85.5,47 84.5,48 83.5,49C 77.7864,49.0227 72.2864,49.856 67,51.5C 57.8235,48.0023 49.9901,42.5023 43.5,35C 44.5742,34.2613 45.2409,33.2613 45.5,32C 44.8148,29.2048 44.3148,26.3715 44,23.5C 42.8904,21.9632 41.3904,21.2965 39.5,21.5C 39.8337,24.491 38.8337,26.8243 36.5,28.5C 36.5,27.8333 36.1667,27.5 35.5,27.5C 33.2615,26.4581 31.0948,25.1247 29,23.5C 27.7453,24.2106 26.5786,25.044 25.5,26C 27.2909,26.4152 28.6243,27.4152 29.5,29C 29.0879,30.5639 28.7546,32.0639 28.5,33.5C 24.3544,34.7051 22.8544,37.0384 24,40.5C 25.2853,40.0496 26.452,39.3829 27.5,38.5C 28.5195,39.6872 29.6861,40.6872 31,41.5C 32.0495,40.4829 33.2161,40.3162 34.5,41C 33.283,42.6477 32.4497,44.481 32,46.5C 31.2496,47.1258 30.4162,47.6258 29.5,48C 33.3647,49.8163 37.3647,49.983 41.5,48.5C 45.9746,54.8085 50.6413,60.9752 55.5,67C 51.6555,70.4008 52.6555,72.2342 58.5,72.5C 52.5845,73.8504 46.7512,75.5171 41,77.5C 38.5483,76.2148 37.0483,74.2148 36.5,71.5C 32.2685,70.5802 28.2685,71.4136 24.5,74C 25.6934,75.0946 27.0267,75.928 28.5,76.5C 28.8333,76.5 29.1667,76.5 29.5,76.5C 25.6065,77.0544 23.6065,79.0544 23.5,82.5C 22.8333,82.5 22.5,82.8333 22.5,83.5C 21.596,84.209 21.2627,85.209 21.5,86.5C 22.791,86.7373 23.791,86.404 24.5,85.5C 26.6957,85.5652 28.6957,86.2319 30.5,87.5C 30.1729,89.6672 29.5063,92.0006 28.5,94.5C 32.4322,93.4292 36.2655,92.0959 40,90.5C 41.6171,91.8513 42.7838,93.518 43.5,95.5C 46.4511,93.2689 48.1178,90.2689 48.5,86.5C 55.9042,86.7404 63.2375,87.5737 70.5,89C 74.1102,92.639 78.4436,94.9724 83.5,96C 84.6872,97.0195 85.6872,98.1861 86.5,99.5C 58.8414,100.5 31.1747,100.833 3.5,100.5C 3.5,68.1667 3.5,35.8333 3.5,3.5C 56.1667,3.5 108.833,3.5 161.5,3.5C 161.5,35.8333 161.5,68.1667 161.5,100.5C 152.494,100.666 143.494,100.5 134.5,100C 137.667,98.1667 140.833,96.3333 144,94.5C 144.912,92.3415 145.745,90.1748 146.5,88C 145.181,87.805 143.847,87.9717 142.5,88.5 Z"/></g>
<g><path style="opacity:1" fill="#cb0000" d="M 96.5,16.5 C 97.7759,17.3864 97.7759,18.3864 96.5,19.5C 95.4376,18.5754 95.4376,17.5754 96.5,16.5 Z"/></g>
<g><path style="opacity:1" fill="#cb0000" d="M 86.5,94.5 C 87.3321,92.2752 86.3321,90.9419 83.5,90.5C 82.1917,89.7677 80.8584,88.9344 79.5,88C 82.3266,86.0043 84.9933,83.8377 87.5,81.5C 84.2714,79.8187 82.2714,80.8187 81.5,84.5C 69.4295,86.9743 57.4295,86.6409 45.5,83.5C 45.0341,85.7047 45.0341,87.7047 45.5,89.5C 44.1667,88.1667 42.8333,88.1667 41.5,89.5C 39.5121,88.7112 39.1787,87.5445 40.5,86C 39.552,85.5172 38.552,85.3505 37.5,85.5C 37.6716,90.7498 36.0049,91.5831 32.5,88C 33.9967,86.3379 35.6634,84.8379 37.5,83.5C 37.1667,83.1667 36.8333,82.8333 36.5,82.5C 32.2853,85.7363 28.952,85.0696 26.5,80.5C 29.1071,79.6816 31.7737,79.1816 34.5,79C 30.9519,77.4941 30.6186,75.3274 33.5,72.5C 35.5325,75.3669 38.0325,77.7003 41,79.5C 50.8431,77.8542 60.3431,75.0208 69.5,71C 73.5798,69.935 75.7465,67.435 76,63.5C 71.3235,66.7291 66.3235,69.3958 61,71.5C 59.51,70.6831 58.01,69.8498 56.5,69C 59.5907,67.3716 62.7574,65.8716 66,64.5C 66.7954,61.6168 65.6287,60.1168 62.5,60C 63.68,58.683 65.18,58.5163 67,59.5C 70.5334,59.4261 73.3668,58.0928 75.5,55.5C 74.0186,54.5197 72.6853,53.353 71.5,52C 71.8333,51.6667 72.1667,51.3333 72.5,51C 76.4522,51.4339 80.4522,51.4339 84.5,51C 86.2134,49.6218 87.5467,47.9552 88.5,46C 92.211,45.8253 95.8776,45.3253 99.5,44.5C 100.97,41.6807 100.804,39.014 99,36.5C 99.0527,39.6127 97.886,42.1127 95.5,44C 91.2596,44.1158 87.0929,43.6158 83,42.5C 81.2111,44.229 79.0444,44.8957 76.5,44.5C 76.33,43.1779 76.6634,42.0113 77.5,41C 81.8206,40.501 86.1539,40.3343 90.5,40.5C 90.6823,35.5115 88.349,32.3448 83.5,31C 80.854,30.5026 78.1873,30.3359 75.5,30.5C 75.5514,28.4305 74.8847,26.5971 73.5,25C 73.8333,24.5 74.1667,24 74.5,23.5C 78.4295,24.4328 82.4295,24.7662 86.5,24.5C 90.1319,20.5687 94.2986,19.9021 99,22.5C 100.845,21.2442 102.845,20.2442 105,19.5C 105.5,19.8333 106,20.1667 106.5,20.5C 105.504,22.8163 103.837,24.483 101.5,25.5C 103.193,26.2283 104.693,27.2283 106,28.5C 106.723,33.8958 107.723,39.2291 109,44.5C 110.067,45.1905 111.234,45.6905 112.5,46C 111.135,47.6819 109.635,47.8486 108,46.5C 106.787,49.7675 106.454,53.1008 107,56.5C 107.903,57.7014 109.069,58.5348 110.5,59C 108.567,59.7826 107.067,59.2826 106,57.5C 102.415,63.011 103.248,67.8444 108.5,72C 105.904,72.458 103.737,71.6246 102,69.5C 101.599,73.3164 102.266,76.983 104,80.5C 110.479,85.8053 114.646,92.4719 116.5,100.5C 107.143,100.832 97.8096,100.498 88.5,99.5C 87.8256,97.8045 87.1589,96.1379 86.5,94.5 Z"/></g>
<g><path style="opacity:1" fill="#150601" d="M 35.5,27.5 C 33.5512,28.1839 31.8845,29.3506 30.5,31C 35.7112,34.4844 35.0446,35.3178 28.5,33.5C 28.7546,32.0639 29.0879,30.5639 29.5,29C 28.6243,27.4152 27.2909,26.4152 25.5,26C 26.5786,25.044 27.7453,24.2106 29,23.5C 31.0948,25.1247 33.2615,26.4581 35.5,27.5 Z"/></g>
<g><path style="opacity:1" fill="#cb0000" d="M 41.5,23.5 C 42.7759,24.3864 42.7759,25.3864 41.5,26.5C 40.913,25.7666 40.913,24.7666 41.5,23.5 Z"/></g>
<g><path style="opacity:1" fill="#cb0000" d="M 127.5,24.5 C 131.934,23.5486 134.601,25.5486 135.5,30.5C 133.71,36.0799 130.876,41.0799 127,45.5C 125.75,48.0766 125.416,50.7433 126,53.5C 126.667,54.8333 127.333,54.8333 128,53.5C 130.95,48.8815 134.284,44.5482 138,40.5C 138.167,41.1667 138.333,41.8333 138.5,42.5C 136.331,47.5172 133.498,52.1839 130,56.5C 129.348,59.594 129.682,62.594 131,65.5C 134.333,61.1667 137.667,56.8333 141,52.5C 141.167,53 141.333,53.5 141.5,54C 139.48,59.3431 136.647,64.1765 133,68.5C 132.506,80.0361 134.506,80.3694 139,69.5C 140.667,67.8333 142.333,66.1667 144,64.5C 144.167,65 144.333,65.5 144.5,66C 141.881,70.0676 139.381,74.2342 137,78.5C 136.505,80.4727 136.338,82.4727 136.5,84.5C 141.56,83.0367 144.726,79.7033 146,74.5C 147.24,80.8476 144.74,85.0143 138.5,87C 137.13,88.4413 136.13,90.108 135.5,92C 138.257,92.782 140.757,92.282 143,90.5C 143.667,91.1667 143.667,91.8333 143,92.5C 139.414,94.7093 135.914,97.0426 132.5,99.5C 130.5,100.833 128.5,100.833 126.5,99.5C 131.058,94.3197 132.558,88.3197 131,81.5C 127.415,75.9979 124.081,70.3312 121,64.5C 120.139,58.4149 120.473,52.4149 122,46.5C 124.95,41.8815 128.284,37.5482 132,33.5C 133.578,28.882 132.078,25.882 127.5,24.5 Z"/></g>
<g><path style="opacity:1" fill="#0d0d0d" d="M 86.5,24.5 C 90.5138,24.3345 94.5138,24.5012 98.5,25C 98.8333,25.3333 99.1667,25.6667 99.5,26C 98.2138,28.0935 96.7138,29.9268 95,31.5C 91.8794,31.2076 90.3794,29.5409 90.5,26.5C 88.6203,26.7709 87.287,26.1042 86.5,24.5 Z"/></g>
<g><path style="opacity:1" fill="#fefffe" d="M 94.5,26.5 C 95.7759,27.3864 95.7759,28.3864 94.5,29.5C 93.913,28.7666 93.913,27.7666 94.5,26.5 Z"/></g>
<g><path style="opacity:1" fill="#cb0000" d="M 35.5,27.5 C 36.1667,27.5 36.5,27.8333 36.5,28.5C 36.2308,30.4286 36.7308,32.0953 38,33.5C 38.2056,26.7372 40.0389,26.0705 43.5,31.5C 40.1472,32.3807 39.6472,34.0474 42,36.5C 48.4562,44.1486 56.2895,49.982 65.5,54C 67.1124,54.7203 68.6124,54.5536 70,53.5C 71.2295,54.2752 71.5628,55.2752 71,56.5C 67.4463,56.7181 63.9463,57.2181 60.5,58C 59.6433,58.6891 58.9767,59.5224 58.5,60.5C 60.2744,61.1867 61.9411,62.0201 63.5,63C 61.5453,65.0714 59.212,65.7381 56.5,65C 52.7886,59.7442 48.9552,54.5775 45,49.5C 43.4002,46.6657 42.2336,43.6657 41.5,40.5C 40.8681,43.0297 39.8681,45.363 38.5,47.5C 37.059,46.1349 35.7256,44.6349 34.5,43C 38.8248,41.8599 39.4915,39.6932 36.5,36.5C 34.3821,37.9459 32.0488,38.6126 29.5,38.5C 29.634,36.7085 29.3007,35.0418 28.5,33.5C 35.0446,35.3178 35.7112,34.4844 30.5,31C 31.8845,29.3506 33.5512,28.1839 35.5,27.5 Z"/></g>
<g><path style="opacity:1" fill="#cb0000" d="M 65.5,30.5 C 66.343,32.1733 67.6763,33.34 69.5,34C 93.3939,35.9626 93.3939,36.6293 69.5,36C 67.4127,35.2078 65.5793,34.0412 64,32.5C 63.4719,31.184 63.9719,30.5173 65.5,30.5 Z"/></g>
<g><path style="opacity:1" fill="#000000" d="M 101.5,35.5 C 103.476,36.4271 103.809,37.7605 102.5,39.5C 101.571,38.3112 101.238,36.9778 101.5,35.5 Z"/></g>
<g><path style="opacity:1" fill="#fefffe" d="M 135.5,38.5 C 135.446,40.632 134.446,41.9653 132.5,42.5C 132.738,40.5956 133.738,39.2623 135.5,38.5 Z"/></g>
<g><path style="opacity:1" fill="#fefffe" d="M 132.5,42.5 C 132.539,43.7562 132.039,44.7562 131,45.5C 130.415,44.0024 130.915,43.0024 132.5,42.5 Z"/></g>
<g><path style="opacity:1" fill="#fefffe" d="M 144.5,71.5 C 143.697,75.417 141.864,78.7504 139,81.5C 140.018,77.8042 141.851,74.4708 144.5,71.5 Z"/></g>
<g><path style="opacity:1" fill="#cb0000" d="M 29.5,76.5 C 29.1667,76.5 28.8333,76.5 28.5,76.5C 28.5858,75.5041 28.2524,74.6708 27.5,74C 28.448,73.5172 29.448,73.3505 30.5,73.5C 30.7373,74.791 30.404,75.791 29.5,76.5 Z"/></g>
<g><path style="opacity:1" fill="#b60b03" d="M 23.5,82.5 C 26.7668,83.0311 27.1001,84.0311 24.5,85.5C 23.1667,85.5 22.5,84.8333 22.5,83.5C 22.5,82.8333 22.8333,82.5 23.5,82.5 Z"/></g>
<g><path style="opacity:1" fill="#000000" d="M 22.5,83.5 C 22.5,84.8333 23.1667,85.5 24.5,85.5C 23.791,86.404 22.791,86.7373 21.5,86.5C 21.2627,85.209 21.596,84.209 22.5,83.5 Z"/></g>
<g><path style="opacity:1" fill="#cb0000" d="M 83.5,90.5 C 84.5,91.8333 85.5,93.1667 86.5,94.5C 81.5184,92.9281 76.8517,90.7614 72.5,88C 75.3285,87.0306 77.6618,87.6972 79.5,90C 80.7932,90.49 82.1266,90.6567 83.5,90.5 Z"/></g>
<g><path style="opacity:1" fill="#fefffe" d="M 142.5,88.5 C 141.828,89.2674 140.995,89.9341 140,90.5C 139.812,88.9387 140.645,88.272 142.5,88.5 Z"/></g>
<g><path style="opacity:1" fill="#000000" d="M 83.5,90.5 C 86.3321,90.9419 87.3321,92.2752 86.5,94.5C 85.5,93.1667 84.5,91.8333 83.5,90.5 Z"/></g>
<g><path style="opacity:1" fill="#003266" d="M 3.5,103.5 C 56.1667,103.5 108.833,103.5 161.5,103.5C 166.256,136.063 156.59,163.23 132.5,185C 113.817,200.007 92.4834,205.673 68.5,202C 39.4354,195.267 19.2687,178.101 8,150.5C 6.24135,145.289 4.90801,139.956 4,134.5C 3.50017,124.172 3.33351,113.839 3.5,103.5 Z"/></g>
<g><path style="opacity:1" fill="#010101" d="M 77.5,114.5 C 80.5184,114.335 83.5184,114.502 86.5,115C 87.7014,115.903 88.5348,117.069 89,118.5C 89.3095,117.234 89.8095,116.067 90.5,115C 95.7568,115.076 101.09,115.076 106.5,115C 107.779,119.715 108.612,124.548 109,129.5C 113.001,126.766 115.501,127.933 116.5,133C 114.808,140.364 113.475,147.864 112.5,155.5C 114.579,156.761 116.746,157.761 119,158.5C 122.128,156.728 125.295,154.895 128.5,153C 131.833,152.333 135.167,152.333 138.5,153C 139.833,154.667 139.833,156.333 138.5,158C 135.211,158.882 131.877,159.548 128.5,160C 131.941,161.318 133.275,163.818 132.5,167.5C 129.689,167.429 127.022,166.762 124.5,165.5C 122.167,166.167 119.833,166.833 117.5,167.5C 114.291,165.978 111.124,164.311 108,162.5C 107.82,164.488 107.986,166.488 108.5,168.5C 114.134,169.188 119.801,169.688 125.5,170C 128.397,171.715 129.731,174.215 129.5,177.5C 125.833,176.833 122.167,176.167 118.5,175.5C 118.472,177.582 119.139,179.416 120.5,181C 119.646,182.022 118.646,182.855 117.5,183.5C 115.156,181.523 113.156,179.19 111.5,176.5C 109.235,175.353 106.902,175.186 104.5,176C 105.701,176.903 106.535,178.069 107,179.5C 107.315,182.372 107.815,185.205 108.5,188C 106.703,191.146 104.536,191.313 102,188.5C 101.71,186.048 101.044,183.715 100,181.5C 98.9668,186.563 96.4668,187.563 92.5,184.5C 93.9703,181.681 93.8036,179.014 92,176.5C 91.5172,177.448 91.3505,178.448 91.5,179.5C 89.5,179.5 87.5,179.5 85.5,179.5C 84.3177,162.219 83.4843,162.219 83,179.5C 86.2998,182.311 89.1331,185.644 91.5,189.5C 88.9807,193.352 86.314,193.352 83.5,189.5C 81.6729,191.5 80.0062,193.667 78.5,196C 76.0752,196.986 74.4085,196.319 73.5,194C 74.4441,191.278 75.7775,188.778 77.5,186.5C 77.1667,186.167 76.8333,185.833 76.5,185.5C 74.4649,187.372 72.2983,189.039 70,190.5C 68.2676,190.266 67.4342,189.266 67.5,187.5C 69.1033,184.72 70.9366,182.054 73,179.5C 73.6667,175.833 73.6667,172.167 73,168.5C 70.0177,170.196 68.6844,172.863 69,176.5C 67.0823,180.004 64.9157,183.337 62.5,186.5C 60.604,187.466 58.604,187.799 56.5,187.5C 57.6881,183.462 59.6881,179.795 62.5,176.5C 62.3333,176.167 62.1667,175.833 62,175.5C 60.5,177 59,178.5 57.5,180C 56.2161,180.684 55.0495,180.517 54,179.5C 54.7246,176.139 55.3913,172.806 56,169.5C 55.2613,172.102 53.5946,173.769 51,174.5C 51.534,179.467 49.3673,181.467 44.5,180.5C 44.5,179.167 44.5,177.833 44.5,176.5C 42.5,176.5 40.5,176.5 38.5,176.5C 38.2148,174.712 38.5481,173.045 39.5,171.5C 42.8333,170.167 46.1667,168.833 49.5,167.5C 50.3857,166.675 50.719,165.675 50.5,164.5C 48.4727,164.338 46.4727,164.505 44.5,165C 42.3192,166.84 39.8192,168.007 37,168.5C 33.2524,167.447 32.7524,165.614 35.5,163C 30.5944,162.223 27.2611,159.557 25.5,155C 28.2017,154.393 30.8684,154.56 33.5,155.5C 35.4771,154.54 37.4771,153.54 39.5,152.5C 41.9962,153.58 44.3295,154.914 46.5,156.5C 47.8498,155.05 49.5165,154.383 51.5,154.5C 51.1825,150.212 49.5158,146.545 46.5,143.5C 47.3984,141.374 48.565,139.374 50,137.5C 51.8449,139.35 53.8449,139.683 56,138.5C 57.1823,131.229 57.8489,123.896 58,116.5C 60.7372,115.39 63.5706,115.223 66.5,116C 67.1905,117.067 67.6905,118.234 68,119.5C 69.3955,115.694 71.8955,114.694 75.5,116.5C 76.5223,116.145 77.189,115.478 77.5,114.5 Z"/></g>
<g><path style="opacity:1" fill="#fefefe" d="M 114.5,175.5 C 109.18,173.422 103.68,171.756 98,170.5C 95.972,162.612 94.3053,154.612 93,146.5C 92.1251,147.873 91.6251,149.373 91.5,151C 92.8913,156.411 93.7247,161.911 94,167.5C 95.9466,171.78 98.9466,175.113 103,177.5C 104.544,180.905 105.711,184.405 106.5,188C 105.551,188.617 104.718,188.451 104,187.5C 104.129,183.418 102.462,180.418 99,178.5C 98.1853,180.623 97.1853,182.623 96,184.5C 95.4054,183.101 95.5721,181.768 96.5,180.5C 94.7644,176.696 92.7644,173.029 90.5,169.5C 89.8333,172.167 89.1667,174.833 88.5,177.5C 88.414,170.957 86.5807,164.957 83,159.5C 81.261,163.759 80.4277,168.259 80.5,173C 80.7575,176.848 81.0908,180.682 81.5,184.5C 85.8433,184.347 88.01,186.347 88,190.5C 87.1283,188.387 85.6283,187.054 83.5,186.5C 80.7152,188.711 78.3819,191.377 76.5,194.5C 76.1667,194.333 75.8333,194.167 75.5,194C 78.4964,190.922 79.4964,187.422 78.5,183.5C 77.914,183.291 77.414,182.957 77,182.5C 68.0847,190.673 67.418,190.006 75,180.5C 75.8306,174.141 75.6639,167.807 74.5,161.5C 72.7003,165.134 70.0336,167.967 66.5,170C 67.9071,172.785 67.5737,175.285 65.5,177.5C 65.4889,175.453 65.1556,173.453 64.5,171.5C 66.756,163.967 67.9227,156.3 68,148.5C 65.0794,156.269 62.7461,164.269 61,172.5C 59.9846,175.063 58.4846,176.396 56.5,176.5C 60.8432,165.825 63.5099,154.825 64.5,143.5C 62.3971,149.835 60.2304,156.168 58,162.5C 55.2822,164.771 53.4489,167.604 52.5,171C 50.9751,172.009 49.3084,172.509 47.5,172.5C 49.041,179.474 48.041,179.974 44.5,174C 43.1667,174 41.8333,174 40.5,174C 44.231,172.315 47.8977,170.482 51.5,168.5C 52.251,164.249 54.4176,160.915 58,158.5C 58.7021,148.057 57.8687,148.057 55.5,158.5C 51.9829,162.13 47.6496,163.464 42.5,162.5C 42.9234,161.735 43.2568,160.902 43.5,160C 42.4558,158.826 41.4558,157.659 40.5,156.5C 42.6746,156.682 44.6746,157.349 46.5,158.5C 48.5771,157.063 50.9105,156.396 53.5,156.5C 53.8019,151.348 52.1352,147.014 48.5,143.5C 50.0581,139.938 52.2248,139.605 55,142.5C 56.221,141.728 57.221,140.728 58,139.5C 59.348,132.239 59.848,124.906 59.5,117.5C 61.5,117.5 63.5,117.5 65.5,117.5C 65.9898,123.842 66.6565,130.175 67.5,136.5C 69.6816,134.266 70.015,131.766 68.5,129C 69.4375,125.208 70.1042,121.375 70.5,117.5C 72.1238,117.36 73.2904,118.027 74,119.5C 74.2111,124.659 74.0445,129.826 73.5,135C 73.6667,137.5 73.8333,140 74,142.5C 74.414,142.957 74.914,143.291 75.5,143.5C 76.3316,135.521 76.8316,127.521 77,119.5C 79.8037,117.656 82.9703,116.989 86.5,117.5C 86.5,120.167 86.5,122.833 86.5,125.5C 87.675,125.719 88.675,125.386 89.5,124.5C 90.4822,121.904 91.1489,119.238 91.5,116.5C 92.8333,116.5 94.1667,116.5 95.5,116.5C 96.0352,126.883 97.3685,127.049 99.5,117C 101.473,116.505 103.473,116.338 105.5,116.5C 105.912,122.522 106.579,128.522 107.5,134.5C 109.459,133.252 110.959,131.585 112,129.5C 112.827,130.662 113.66,131.829 114.5,133C 112.516,140.527 111.183,148.194 110.5,156C 113.536,160.06 117.536,161.394 122.5,160C 126.299,154.735 131.299,153.235 137.5,155.5C 134.309,156.923 130.976,157.923 127.5,158.5C 126.169,161.049 127.002,162.716 130,163.5C 130.667,164.167 130.667,164.833 130,165.5C 127.488,162.49 124.655,161.99 121.5,164C 119.167,164.667 116.833,164.667 114.5,164C 104.875,156.794 102.542,158.628 107.5,169.5C 108.5,170 109.5,170.5 110.5,171C 115.167,171.333 119.833,171.667 124.5,172C 125.5,173 126.5,174 127.5,175C 125.091,174.044 122.424,173.544 119.5,173.5C 117.36,173.556 115.694,174.223 114.5,175.5 Z"/></g>
<g><path style="opacity:1" fill="#000000" d="M 95.5,127.5 C 96.7251,128.152 97.3917,129.319 97.5,131C 97.1667,132.167 96.8333,133.333 96.5,134.5C 95.5258,132.257 95.1924,129.924 95.5,127.5 Z"/></g>
<g><path style="opacity:1" fill="#fefffe" d="M -0.5,131.5 C 6.67281,171.67 30.0061,196.67 69.5,206.5C 46.1667,206.5 22.8333,206.5 -0.5,206.5C -0.5,181.5 -0.5,156.5 -0.5,131.5 Z"/></g>
<g><path style="opacity:1" fill="#fefffe" d="M 165.5,133.5 C 165.5,157.833 165.5,182.167 165.5,206.5C 142.167,206.5 118.833,206.5 95.5,206.5C 134.142,196.858 157.475,172.524 165.5,133.5 Z"/></g>
<g><path style="opacity:1" fill="#000000" d="M 91.5,140.5 C 93.3675,141.786 93.5342,143.119 92,144.5C 91.51,143.207 91.3433,141.873 91.5,140.5 Z"/></g>
<g><path style="opacity:1" fill="#fefffe" d="M 40.5,156.5 C 39.1667,156.833 37.8333,157.167 36.5,157.5C 37.668,154.531 39.0013,154.198 40.5,156.5 Z"/></g>
<g><path style="opacity:1" fill="#fefffe" d="M 36.5,157.5 C 35.1184,159.895 33.4517,160.395 31.5,159C 33.1545,158.392 34.8211,157.892 36.5,157.5 Z"/></g>
<g><path style="opacity:1" fill="#fefffe" d="M 42.5,162.5 C 41.1957,164.982 39.1957,166.149 36.5,166C 38.0634,164.053 40.0634,162.886 42.5,162.5 Z"/></g>
<g><path style="opacity:1" fill="#fefffe" d="M 114.5,175.5 C 116.085,176.002 116.585,177.002 116,178.5C 114.961,177.756 114.461,176.756 114.5,175.5 Z"/></g>
<g><path style="opacity:1" fill="#fefffe" d="M 65.5,177.5 C 65.2624,179.404 64.2624,180.738 62.5,181.5C 62.7376,179.596 63.7376,178.262 65.5,177.5 Z"/></g>
<g><path style="opacity:1" fill="#fefffe" d="M 62.5,181.5 C 62.4827,183.028 61.816,183.528 60.5,183C 61.0442,182.283 61.7109,181.783 62.5,181.5 Z"/></g>
</svg>
