<?xml version="1.0" encoding="UTF-8"?>
<!DOCTYPE svg PUBLIC "-//W3C//DTD SVG 1.1//EN" "http://www.w3.org/Graphics/SVG/1.1/DTD/svg11.dtd">
<svg xmlns="http://www.w3.org/2000/svg" version="1.1" width="166px" height="207px" style="shape-rendering:geometricPrecision; text-rendering:geometricPrecision; image-rendering:optimizeQuality; fill-rule:evenodd; clip-rule:evenodd" xmlns:xlink="http://www.w3.org/1999/xlink">
<g><path style="opacity:1" fill="#010001" d="M -0.5,-0.5 C 54.8333,-0.5 110.167,-0.5 165.5,-0.5C 165.5,43.8333 165.5,88.1667 165.5,132.5C 161.018,161.495 146.018,183.328 120.5,198C 112.32,201.619 103.986,204.453 95.5,206.5C 87.5,206.5 79.5,206.5 71.5,206.5C 29.2067,197.535 5.20669,171.535 -0.5,128.5C -0.5,85.5 -0.5,42.5 -0.5,-0.5 Z"/></g>
<g><path style="opacity:1" fill="#0b3157" d="M 77.5,6.5 C 78.2625,5.73209 79.2625,5.23209 80.5,5C 55.1689,4.50003 29.8355,4.33336 4.5,4.5C 4.5,43.1667 4.5,81.8333 4.5,120.5C 16.216,121.144 27.5493,120.478 38.5,118.5C 39.391,119.11 40.391,119.443 41.5,119.5C 42.2625,120.268 43.2625,120.768 44.5,121C 30.8374,121.5 17.1707,121.667 3.5,121.5C 3.5,82.1667 3.5,42.8333 3.5,3.5C 29.8354,3.33336 56.1688,3.50003 82.5,4C 81.8095,5.06743 81.3095,6.23409 81,7.5C 79.9887,6.66337 78.8221,6.33003 77.5,6.5 Z"/></g>
<g><path style="opacity:1" fill="#013364" d="M 77.5,6.5 C 76.6409,8.10586 76.4742,9.77253 77,11.5C 75.7083,10.2089 74.5417,10.2089 73.5,11.5C 72.596,12.209 72.2627,13.209 72.5,14.5C 71.209,14.2627 70.209,14.596 69.5,15.5C 68.7109,15.7828 68.0442,16.2828 67.5,17C 68.3079,18.7058 69.6412,19.5391 71.5,19.5C 71.1936,22.3854 71.5269,25.0521 72.5,27.5C 73.3715,30.2716 73.3715,32.9382 72.5,35.5C 71.5,39.5 70.5,43.5 69.5,47.5C 65.8523,48.2247 62.519,49.558 59.5,51.5C 57.2054,52.1355 55.5387,53.4689 54.5,55.5C 53.2814,57.9423 51.7814,60.2757 50,62.5C 50.1799,69.1986 47.0132,72.5319 40.5,72.5C 37.9717,70.1105 36.4717,67.1105 36,63.5C 34.0198,61.1013 31.8531,59.1013 29.5,57.5C 29.2761,59.0463 28.9427,60.713 28.5,62.5C 26.9291,61.6906 25.2624,61.3573 23.5,61.5C 21.1933,61.9863 19.0266,61.9863 17,61.5C 16.2828,62.0442 15.7828,62.7109 15.5,63.5C 16.7914,64.4728 16.7914,65.4728 15.5,66.5C 15.9569,67.2975 16.6236,67.6309 17.5,67.5C 18.1667,68.5 18.8333,69.5 19.5,70.5C 17.5354,70.9483 17.2021,71.9483 18.5,73.5C 24.6591,75.9781 30.9925,77.9781 37.5,79.5C 38.0998,80.8999 39.0998,81.8999 40.5,82.5C 39.6236,82.3691 38.9569,82.7025 38.5,83.5C 39.8962,84.8524 40.5629,86.5191 40.5,88.5C 38.8746,94.0432 38.2079,99.7099 38.5,105.5C 37.2641,109.701 37.2641,114.035 38.5,118.5C 27.5493,120.478 16.216,121.144 4.5,120.5C 4.5,81.8333 4.5,43.1667 4.5,4.5C 29.8355,4.33336 55.1689,4.50003 80.5,5C 79.2625,5.23209 78.2625,5.73209 77.5,6.5 Z"/></g>
<g><path style="opacity:1" fill="#013364" d="M 124.5,117.5 C 123.662,111.801 124.495,106.135 127,100.5C 127.72,102.112 127.554,103.612 126.5,105C 128.066,105.765 129.399,105.598 130.5,104.5C 131.959,104.567 133.292,104.234 134.5,103.5C 135.8,101.777 136.467,99.6103 136.5,97C 135.1,91.5184 134.433,85.8517 134.5,80C 134.382,74.7815 135.549,69.9482 138,65.5C 138.333,62.8333 138.667,60.1667 139,57.5C 140.795,54.5697 142.295,51.5697 143.5,48.5C 142.015,43.9541 141.348,39.2874 141.5,34.5C 143.735,34.7947 145.735,34.4614 147.5,33.5C 148.301,31.9582 148.634,30.2915 148.5,28.5C 154.125,27.5825 154.792,25.2492 150.5,21.5C 154.65,18.6019 154.317,16.2685 149.5,14.5C 149.479,8.96885 146.979,7.30218 142,9.5C 140.831,8.99148 139.998,8.15815 139.5,7C 138.251,6.25988 137.251,6.42654 136.5,7.5C 135.277,10.3523 133.277,11.0189 130.5,9.5C 129.478,9.85549 128.811,10.5222 128.5,11.5C 127.883,13.3208 127.716,15.3208 128,17.5C 127.167,18.3333 126.333,19.1667 125.5,20C 127.067,22.3004 128.233,24.8004 129,27.5C 130.205,28.0712 131.372,28.7379 132.5,29.5C 131.389,30.6113 130.722,31.9446 130.5,33.5C 131.561,38.4666 131.728,43.4666 131,48.5C 125.464,54.373 123.297,61.2063 124.5,69C 123.739,74.4739 122.073,74.6406 119.5,69.5C 119.116,64.9627 117.949,60.6293 116,56.5C 114.143,53.8002 111.643,52.1335 108.5,51.5C 107.34,50.735 106.34,49.735 105.5,48.5C 104.311,47.5713 102.978,47.238 101.5,47.5C 99.282,43.5781 98.1153,39.2448 98,34.5C 97.3292,33.7476 96.4959,33.4142 95.5,33.5C 95.5,33.1667 95.5,32.8333 95.5,32.5C 95.5,31.5 95.5,30.5 95.5,29.5C 96.2537,26.9773 96.9204,24.3106 97.5,21.5C 96.3915,19.7859 97.0582,19.1192 99.5,19.5C 100.244,16.0504 98.9103,14.3838 95.5,14.5C 95.6631,10.9652 94.3298,9.96519 91.5,11.5C 90.8333,12.1667 90.1667,12.8333 89.5,13.5C 89.2965,11.6096 89.9632,10.1096 91.5,9C 90.9558,8.28281 90.2891,7.78281 89.5,7.5C 88.8333,7.5 88.1667,7.5 87.5,7.5C 86.6618,7.15829 86.3284,6.49162 86.5,5.5C 110.994,4.50232 135.661,4.16899 160.5,4.5C 160.5,43.1667 160.5,81.8333 160.5,120.5C 148.833,120.5 137.167,120.5 125.5,120.5C 125.737,119.209 125.404,118.209 124.5,117.5 Z"/></g>
<g><path style="opacity:1" fill="#0a3156" d="M 124.5,117.5 C 125.404,118.209 125.737,119.209 125.5,120.5C 137.167,120.5 148.833,120.5 160.5,120.5C 160.5,81.8333 160.5,43.1667 160.5,4.5C 135.661,4.16899 110.994,4.50232 86.5,5.5C 85.7109,5.21719 85.0442,4.71719 84.5,4C 110.165,3.50003 135.831,3.33336 161.5,3.5C 161.5,42.8333 161.5,82.1667 161.5,121.5C 149.167,121.5 136.833,121.5 124.5,121.5C 124.5,120.167 124.5,118.833 124.5,117.5 Z"/></g>
<g><path style="opacity:1" fill="#d2a04e" d="M 87.5,7.5 C 88.1667,7.5 88.8333,7.5 89.5,7.5C 88.8333,10.1667 88.1667,10.1667 87.5,7.5 Z"/></g>
<g><path style="opacity:1" fill="#d39f50" d="M 73.5,11.5 C 75.337,11.6395 75.6704,12.3061 74.5,13.5C 73.7025,13.0431 73.3691,12.3764 73.5,11.5 Z"/></g>
<g><path style="opacity:1" fill="#fefefc" d="M 85.5,11.5 C 87.0618,11.7329 88.3951,12.3995 89.5,13.5C 90.8121,15.4788 92.4788,17.1455 94.5,18.5C 95.4656,20.396 95.7989,22.396 95.5,24.5C 93.8333,24.5 92.1667,24.5 90.5,24.5C 85.3554,23.3093 80.3554,23.3093 75.5,24.5C 74.5,24.5 73.5,24.5 72.5,24.5C 73.4669,17.3592 77.3002,12.3592 84,9.5C 85.0299,9.83611 85.5299,10.5028 85.5,11.5 Z"/></g>
<g><path style="opacity:1" fill="#130000" d="M 83.5,12.5 C 83.5,13.8333 83.5,15.1667 83.5,16.5C 82.1667,16.5 80.8333,16.5 79.5,16.5C 80.1667,14.5 81.5,13.1667 83.5,12.5 Z"/></g>
<g><path style="opacity:1" fill="#c7a166" d="M 69.5,15.5 C 71.7602,16.2376 71.9269,17.2376 70,18.5C 69.5172,17.552 69.3505,16.552 69.5,15.5 Z"/></g>
<g><path style="opacity:1" fill="#c88a33" d="M 85.5,11.5 C 85.5,11.8333 85.5,12.1667 85.5,12.5C 85.3285,14.4918 85.9951,16.1585 87.5,17.5C 86.3539,18.7187 85.3539,20.0521 84.5,21.5C 83.6143,20.675 83.281,19.675 83.5,18.5C 82.1667,18.5 80.8333,18.5 79.5,18.5C 78.1667,17.8333 78.1667,17.1667 79.5,16.5C 80.8333,16.5 82.1667,16.5 83.5,16.5C 83.5,15.1667 83.5,13.8333 83.5,12.5C 83.8417,11.6618 84.5084,11.3284 85.5,11.5 Z"/></g>
<g><path style="opacity:1" fill="#0c0c15" d="M 95.5,29.5 C 94.8843,28.7978 94.8843,27.7978 95.5,26.5C 94.0813,25.5489 92.4147,25.2155 90.5,25.5C 90.5,25.1667 90.5,24.8333 90.5,24.5C 92.1667,24.5 93.8333,24.5 95.5,24.5C 95.7989,22.396 95.4656,20.396 94.5,18.5C 92.4788,17.1455 90.8121,15.4788 89.5,13.5C 90.1667,12.8333 90.8333,12.1667 91.5,11.5C 94.3298,9.96519 95.6631,10.9652 95.5,14.5C 98.9103,14.3838 100.244,16.0504 99.5,19.5C 97.0582,19.1192 96.3915,19.7859 97.5,21.5C 96.9204,24.3106 96.2537,26.9773 95.5,29.5 Z"/></g>
<g><path style="opacity:1" fill="#c9a162" d="M 96.5,15.5 C 97.5735,16.2506 97.7401,17.2506 97,18.5C 95.2716,17.6477 95.105,16.6477 96.5,15.5 Z"/></g>
<g><path style="opacity:1" fill="#d39f4d" d="M 91.5,11.5 C 93.337,11.6395 93.6704,12.3061 92.5,13.5C 91.7025,13.0431 91.3691,12.3764 91.5,11.5 Z"/></g>
<g><path style="opacity:1" fill="#110000" d="M 85.5,12.5 C 88.4799,13.8293 89.8132,16.1626 89.5,19.5C 88.5,19.5 87.5,19.5 86.5,19.5C 86.5,20.5 86.5,21.5 86.5,22.5C 84.8333,22.5 83.1667,22.5 81.5,22.5C 81.4729,20.8007 80.8062,19.4674 79.5,18.5C 80.8333,18.5 82.1667,18.5 83.5,18.5C 83.281,19.675 83.6143,20.675 84.5,21.5C 85.3539,20.0521 86.3539,18.7187 87.5,17.5C 85.9951,16.1585 85.3285,14.4918 85.5,12.5 Z"/></g>
<g><path style="opacity:1" fill="#a26d44" d="M 90.5,24.5 C 90.5,24.8333 90.5,25.1667 90.5,25.5C 85.7697,25.2834 81.1031,25.6167 76.5,26.5C 75.1667,26.5 73.8333,26.5 72.5,26.5C 73.5,25.8333 74.5,25.1667 75.5,24.5C 80.3554,23.3093 85.3554,23.3093 90.5,24.5 Z"/></g>
<g><path style="opacity:1" fill="#872a17" d="M 90.5,25.5 C 92.4147,25.2155 94.0813,25.5489 95.5,26.5C 93.8441,28.1817 91.1774,28.8483 87.5,28.5C 84.8333,28.5 82.1667,28.5 79.5,28.5C 77.4727,28.6621 75.4727,28.4955 73.5,28C 74.7375,27.7679 75.7375,27.2679 76.5,26.5C 81.1031,25.6167 85.7697,25.2834 90.5,25.5 Z"/></g>
<g><path style="opacity:1" fill="#150204" d="M 147.5,33.5 C 145.167,33.5 142.833,33.5 140.5,33.5C 140.5,36.1667 140.5,38.8333 140.5,41.5C 139.59,39.9812 138.757,38.3146 138,36.5C 137.31,35.2617 136.81,35.2617 136.5,36.5C 135.167,36.5 133.833,36.5 132.5,36.5C 132.182,41.0323 132.515,45.3656 133.5,49.5C 132.086,51.5983 132.752,52.5983 135.5,52.5C 136.11,53.391 136.443,54.391 136.5,55.5C 135.18,54.0582 133.514,53.3915 131.5,53.5C 131.649,52.448 131.483,51.448 131,50.5C 128.168,54.6642 126.001,59.1642 124.5,64C 124.818,66.3751 126.151,67.5417 128.5,67.5C 128.5,68.8333 128.5,70.1667 128.5,71.5C 127.71,72.6085 127.21,73.9419 127,75.5C 126.66,68.4139 125.826,68.0805 124.5,74.5C 125.28,75.9495 125.946,77.4495 126.5,79C 124.843,85.7858 123.509,92.6192 122.5,99.5C 122.167,99.5 121.833,99.5 121.5,99.5C 121.799,97.396 121.466,95.396 120.5,93.5C 119.676,96.7848 119.176,100.118 119,103.5C 118.814,100.964 118.314,98.631 117.5,96.5C 117.611,95.8826 117.944,95.3826 118.5,95C 116.934,94.3918 115.6,93.5585 114.5,92.5C 117.32,92.7525 119.986,92.2525 122.5,91C 120.833,90.6667 119.167,90.3333 117.5,90C 116.304,89.3457 116.304,88.8457 117.5,88.5C 119.071,89.3094 120.738,89.6427 122.5,89.5C 122.5,88.5 122.5,87.5 122.5,86.5C 123.391,85.7387 124.058,84.7387 124.5,83.5C 123.388,82.7348 122.721,81.7348 122.5,80.5C 123.65,81.8502 124.317,81.6836 124.5,80C 121.283,72.7432 118.116,72.9098 115,80.5C 114.617,79.944 114.117,79.6107 113.5,79.5C 113.752,76.3347 115.418,74.3347 118.5,73.5C 119.429,72.3112 119.762,70.9778 119.5,69.5C 122.073,74.6406 123.739,74.4739 124.5,69C 123.297,61.2063 125.464,54.373 131,48.5C 131.728,43.4666 131.561,38.4666 130.5,33.5C 130.722,31.9446 131.389,30.6113 132.5,29.5C 131.372,28.7379 130.205,28.0712 129,27.5C 128.233,24.8004 127.067,22.3004 125.5,20C 126.333,19.1667 127.167,18.3333 128,17.5C 127.716,15.3208 127.883,13.3208 128.5,11.5C 128.811,10.5222 129.478,9.85549 130.5,9.5C 133.277,11.0189 135.277,10.3523 136.5,7.5C 137.251,6.42654 138.251,6.25988 139.5,7C 139.998,8.15815 140.831,8.99148 142,9.5C 146.979,7.30218 149.479,8.96885 149.5,14.5C 154.317,16.2685 154.65,18.6019 150.5,21.5C 154.792,25.2492 154.125,27.5825 148.5,28.5C 148.634,30.2915 148.301,31.9582 147.5,33.5 Z"/></g>
<g><path style="opacity:1" fill="#18293e" d="M 140.5,13.5 C 142.973,13.0882 144.306,14.0882 144.5,16.5C 146.913,22.4802 145.246,26.8135 139.5,29.5C 138.5,29 137.5,28.5 136.5,28C 141.472,28.3611 143.806,26.0277 143.5,21C 143.316,19.6244 142.649,18.7911 141.5,18.5C 139.625,20.0781 138.292,19.7448 137.5,17.5C 136.602,16.8423 135.602,16.1757 134.5,15.5C 136.023,13.7175 138.023,13.0508 140.5,13.5 Z"/></g>
<g><path style="opacity:1" fill="#cca060" d="M 128.5,11.5 C 131.336,11.2022 131.836,11.8689 130,13.5C 129.283,12.9558 128.783,12.2891 128.5,11.5 Z"/></g>
<g><path style="opacity:1" fill="#cba15f" d="M 136.5,7.5 C 138.337,7.63945 138.67,8.30612 137.5,9.5C 136.702,9.04311 136.369,8.37644 136.5,7.5 Z"/></g>
<g><path style="opacity:1" fill="#c4a16b" d="M 136.5,30.5 C 133.664,30.7978 133.164,30.1311 135,28.5C 135.717,29.0442 136.217,29.7109 136.5,30.5 Z"/></g>
<g><path style="opacity:1" fill="#260303" d="M 72.5,26.5 C 73.8333,26.5 75.1667,26.5 76.5,26.5C 75.7375,27.2679 74.7375,27.7679 73.5,28C 75.4727,28.4955 77.4727,28.6621 79.5,28.5C 77.7078,29.3091 75.7078,29.8091 73.5,30C 80.1667,30.6667 86.8333,30.6667 93.5,30C 91.2922,29.8091 89.2922,29.3091 87.5,28.5C 91.1774,28.8483 93.8441,28.1817 95.5,26.5C 94.8843,27.7978 94.8843,28.7978 95.5,29.5C 95.5,30.5 95.5,31.5 95.5,32.5C 94.8333,32.8333 94.1667,33.1667 93.5,33.5C 90.9134,32.1836 87.9134,31.517 84.5,31.5C 81.5,31.6667 78.5,31.8333 75.5,32C 74.9152,33.3024 74.2485,34.469 73.5,35.5C 73.1667,35.5 72.8333,35.5 72.5,35.5C 73.3715,32.9382 73.3715,30.2716 72.5,27.5C 72.5,27.1667 72.5,26.8333 72.5,26.5 Z"/></g>
<g><path style="opacity:1" fill="#e59551" d="M 79.5,28.5 C 82.1667,28.5 84.8333,28.5 87.5,28.5C 89.2922,29.3091 91.2922,29.8091 93.5,30C 86.8333,30.6667 80.1667,30.6667 73.5,30C 75.7078,29.8091 77.7078,29.3091 79.5,28.5 Z"/></g>
<g><path style="opacity:1" fill="#e29d38" d="M 136.5,32.5 C 136.5,31.8333 136.5,31.1667 136.5,30.5C 146.466,29.885 149.133,25.2183 144.5,16.5C 144.306,14.0882 142.973,13.0882 140.5,13.5C 133.396,11.7739 130.729,14.6072 132.5,22C 132.833,22.1667 133.167,22.3333 133.5,22.5C 134.281,21.2713 134.781,19.938 135,18.5C 135.671,17.7476 136.504,17.4142 137.5,17.5C 138.292,19.7448 139.625,20.0781 141.5,18.5C 143.264,25.6666 140.931,27.6666 134.5,24.5C 132.971,24.5288 131.804,25.1955 131,26.5C 130.5,26 130,25.5 129.5,25C 129.426,21.4653 129.926,17.9653 131,14.5C 134.183,10.9382 138.016,9.93818 142.5,11.5C 143.5,10.8333 144.5,10.1667 145.5,9.5C 146.604,10.6313 146.271,11.4646 144.5,12C 146.378,13.5429 147.878,15.3762 149,17.5C 149.893,16.2888 150.726,16.2888 151.5,17.5C 148.907,20.0214 148.907,22.5214 151.5,25C 150.747,26.487 149.914,26.6537 149,25.5C 147.022,27.7461 146.022,30.0795 146,32.5C 142.956,31.4276 140.289,32.0943 138,34.5C 137.722,33.5842 137.222,32.9175 136.5,32.5 Z"/></g>
<g><path style="opacity:1" fill="#1a1415" d="M 140.5,13.5 C 138.023,13.0508 136.023,13.7175 134.5,15.5C 135.602,16.1757 136.602,16.8423 137.5,17.5C 136.504,17.4142 135.671,17.7476 135,18.5C 134.781,19.938 134.281,21.2713 133.5,22.5C 133.167,22.3333 132.833,22.1667 132.5,22C 130.729,14.6072 133.396,11.7739 140.5,13.5 Z"/></g>
<g><path style="opacity:1" fill="#de9e3d" d="M 136.5,32.5 C 134.254,36.6099 132.921,36.2765 132.5,31.5C 133.959,31.4326 135.292,31.7659 136.5,32.5 Z"/></g>
<g><path style="opacity:1" fill="#fcfefd" d="M 95.5,32.5 C 95.5,32.8333 95.5,33.1667 95.5,33.5C 96.499,38.1646 97.499,42.8312 98.5,47.5C 98.1667,47.5 97.8333,47.5 97.5,47.5C 96.4138,47.38 95.7472,46.7133 95.5,45.5C 94.9728,41.669 94.3061,38.0024 93.5,34.5C 93.5,34.1667 93.5,33.8333 93.5,33.5C 94.1667,33.1667 94.8333,32.8333 95.5,32.5 Z"/></g>
<g><path style="opacity:1" fill="#fdfefd" d="M 72.5,35.5 C 72.8333,35.5 73.1667,35.5 73.5,35.5C 73.5,35.8333 73.5,36.1667 73.5,36.5C 74.0759,39.393 74.0759,42.393 73.5,45.5C 72.5326,46.8062 71.1993,47.4729 69.5,47.5C 70.5,43.5 71.5,39.5 72.5,35.5 Z"/></g>
<g><path style="opacity:1" fill="#e1926c" d="M 93.5,33.5 C 93.5,33.8333 93.5,34.1667 93.5,34.5C 92.2477,37.9828 91.4144,41.6495 91,45.5C 86.5755,50.7154 82.4088,50.7154 78.5,45.5C 78.1162,41.7275 76.4495,38.7275 73.5,36.5C 73.5,36.1667 73.5,35.8333 73.5,35.5C 74.2485,34.469 74.9152,33.3024 75.5,32C 78.5,31.8333 81.5,31.6667 84.5,31.5C 87.9134,31.517 90.9134,32.1836 93.5,33.5 Z"/></g>
<g><path style="opacity:1" fill="#2f0000" d="M 83.5,36.5 C 84.2485,37.531 84.9152,38.6976 85.5,40C 85.1667,40.1667 84.8333,40.3333 84.5,40.5C 83.5713,39.3112 83.238,37.9778 83.5,36.5 Z"/></g>
<g><path style="opacity:1" fill="#230000" d="M 83.5,36.5 C 81.8058,37.686 80.1392,37.5193 78.5,36C 80.451,33.9353 82.1177,34.102 83.5,36.5 Z"/></g>
<g><path style="opacity:1" fill="#290000" d="M 85.5,34.5 C 86.9778,34.238 88.3112,34.5713 89.5,35.5C 88.8333,35.8333 88.1667,36.1667 87.5,36.5C 86.2867,36.2528 85.62,35.5862 85.5,34.5 Z"/></g>
<g><path style="opacity:1" fill="#10213a" d="M 95.5,33.5 C 96.4959,33.4142 97.3292,33.7476 98,34.5C 98.1153,39.2448 99.282,43.5781 101.5,47.5C 100.5,47.5 99.5,47.5 98.5,47.5C 97.499,42.8312 96.499,38.1646 95.5,33.5 Z"/></g>
<g><path style="opacity:1" fill="#300000" d="M 86.5,40.5 C 88.2726,41.3143 88.7726,42.6476 88,44.5C 87.2086,43.255 86.7086,41.9217 86.5,40.5 Z"/></g>
<g><path style="opacity:1" fill="#e89c2e" d="M 136.5,36.5 C 136.5,36.8333 136.5,37.1667 136.5,37.5C 136.5,40.5 136.5,43.5 136.5,46.5C 135.5,46.5 134.5,46.5 133.5,46.5C 133.5,47.5 133.5,48.5 133.5,49.5C 132.515,45.3656 132.182,41.0323 132.5,36.5C 133.833,36.5 135.167,36.5 136.5,36.5 Z"/></g>
<g><path style="opacity:1" fill="#151c2b" d="M 73.5,36.5 C 76.4495,38.7275 78.1162,41.7275 78.5,45.5C 77.5,45.5 76.5,45.5 75.5,45.5C 74.8333,45.5 74.1667,45.5 73.5,45.5C 74.0759,42.393 74.0759,39.393 73.5,36.5 Z"/></g>
<g><path style="opacity:1" fill="#ececeb" d="M 75.5,45.5 C 76.5,45.5 77.5,45.5 78.5,45.5C 78.5858,46.4959 78.2524,47.3292 77.5,48C 79.3502,48.6897 80.6836,49.8564 81.5,51.5C 83.2232,50.193 85.0565,50.193 87,51.5C 89.6056,47.9044 90.439,47.9044 89.5,51.5C 90.3019,52.9516 90.8019,54.6183 91,56.5C 91.3333,53.1667 91.6667,49.8333 92,46.5C 94.7763,49.7693 95.2763,53.4359 93.5,57.5C 92.5,57.8333 91.8333,58.5 91.5,59.5C 87.3876,58.0984 84.2209,56.7651 82,55.5C 78.8423,58.1074 78.6757,60.7741 81.5,63.5C 81.44,64.0431 81.1067,64.3764 80.5,64.5C 79.265,63.6602 78.265,62.6602 77.5,61.5C 77.6567,60.1266 77.49,58.7932 77,57.5C 76.6667,58.1667 76.3333,58.8333 76,59.5C 75.3333,58.1667 74.6667,56.8333 74,55.5C 73.1034,59.4142 72.6034,59.2476 72.5,55C 72.8056,51.5846 73.8056,48.4179 75.5,45.5 Z"/></g>
<g><path style="opacity:1" fill="#140e10" d="M 93.5,34.5 C 94.3061,38.0024 94.9728,41.669 95.5,45.5C 95.7472,46.7133 96.4138,47.38 97.5,47.5C 97.1023,49.7111 96.9357,52.0444 97,54.5C 96.2411,56.0629 95.0744,57.0629 93.5,57.5C 95.2763,53.4359 94.7763,49.7693 92,46.5C 91.6667,49.8333 91.3333,53.1667 91,56.5C 90.8019,54.6183 90.3019,52.9516 89.5,51.5C 90.439,47.9044 89.6056,47.9044 87,51.5C 85.0565,50.193 83.2232,50.193 81.5,51.5C 80.6836,49.8564 79.3502,48.6897 77.5,48C 78.2524,47.3292 78.5858,46.4959 78.5,45.5C 82.4088,50.7154 86.5755,50.7154 91,45.5C 91.4144,41.6495 92.2477,37.9828 93.5,34.5 Z"/></g>
<g><path style="opacity:1" fill="#2a1913" d="M 136.5,37.5 C 138.892,41.0813 139.725,45.0813 139,49.5C 137.961,50.7101 136.794,51.7101 135.5,52.5C 135.068,51.2905 134.401,50.2905 133.5,49.5C 133.5,48.5 133.5,47.5 133.5,46.5C 134.5,46.5 135.5,46.5 136.5,46.5C 136.5,43.5 136.5,40.5 136.5,37.5 Z"/></g>
<g><path style="opacity:1" fill="#fcfef9" d="M 140.5,41.5 C 141.604,45.2667 141.437,48.9333 140,52.5C 139.241,54.0629 138.074,55.0629 136.5,55.5C 136.443,54.391 136.11,53.391 135.5,52.5C 136.794,51.7101 137.961,50.7101 139,49.5C 139.725,45.0813 138.892,41.0813 136.5,37.5C 136.5,37.1667 136.5,36.8333 136.5,36.5C 136.81,35.2617 137.31,35.2617 138,36.5C 138.757,38.3146 139.59,39.9812 140.5,41.5 Z"/></g>
<g><path style="opacity:1" fill="#c8a064" d="M 133.5,49.5 C 134.401,50.2905 135.068,51.2905 135.5,52.5C 132.752,52.5983 132.086,51.5983 133.5,49.5 Z"/></g>
<g><path style="opacity:1" fill="#000000" d="M 76.5,51.5 C 77.2389,51.369 77.9056,51.5357 78.5,52C 77.1177,56.7055 76.4511,56.5388 76.5,51.5 Z"/></g>
<g><path style="opacity:1" fill="#000000" d="M 81.5,51.5 C 82.9217,51.7086 84.255,52.2086 85.5,53C 83.6476,53.7726 82.3143,53.2726 81.5,51.5 Z"/></g>
<g><path style="opacity:1" fill="#000000" d="M 89.5,51.5 C 89.4827,53.0281 88.816,53.5281 87.5,53C 88.0442,52.2828 88.7109,51.7828 89.5,51.5 Z"/></g>
<g><path style="opacity:1" fill="#502019" d="M 101.5,47.5 C 102.978,47.238 104.311,47.5713 105.5,48.5C 106.34,49.735 107.34,50.735 108.5,51.5C 108.5,51.8333 108.5,52.1667 108.5,52.5C 106.91,54.4746 105.743,56.8079 105,59.5C 104.153,55.6514 102.987,51.9848 101.5,48.5C 101.5,48.1667 101.5,47.8333 101.5,47.5 Z"/></g>
<g><path style="opacity:1" fill="#9f130f" d="M 59.5,51.5 C 60.7095,51.9321 61.7095,52.5987 62.5,53.5C 62.5721,56.5525 63.5721,59.2192 65.5,61.5C 63.5692,60.7407 62.0692,59.4074 61,57.5C 60.51,58.7932 60.3433,60.1266 60.5,61.5C 60.1667,61.5 59.8333,61.5 59.5,61.5C 59.6602,59.8008 59.4935,58.1341 59,56.5C 58.015,57.8141 56.8484,58.8141 55.5,59.5C 54.5655,58.4324 54.2322,57.099 54.5,55.5C 55.5387,53.4689 57.2054,52.1355 59.5,51.5 Z"/></g>
<g><path style="opacity:1" fill="#af0f0d" d="M 109.5,53.5 C 112.804,54.1441 114.138,56.1441 113.5,59.5C 113.672,60.4916 113.338,61.1583 112.5,61.5C 109.829,59.6527 108.829,56.986 109.5,53.5 Z"/></g>
<g><path style="opacity:1" fill="#7e281a" d="M 97.5,47.5 C 97.8333,47.5 98.1667,47.5 98.5,47.5C 99.5,47.5 100.5,47.5 101.5,47.5C 101.5,47.8333 101.5,48.1667 101.5,48.5C 100.448,48.3505 99.448,48.5172 98.5,49C 99.1667,51.6667 99.8333,54.3333 100.5,57C 98.579,58.0309 98.579,59.5309 100.5,61.5C 101.192,60.9747 101.692,60.3081 102,59.5C 102.374,60.4162 102.874,61.2496 103.5,62C 99.9713,64.3308 97.9713,67.4975 97.5,71.5C 99.5,71.5 101.5,71.5 103.5,71.5C 105.292,71.366 106.958,71.6993 108.5,72.5C 109.967,69.7417 110.633,70.075 110.5,73.5C 107.128,72.4809 103.794,72.4809 100.5,73.5C 99.0903,72.1716 97.9236,72.5049 97,74.5C 96.7096,72.0796 96.2096,69.7463 95.5,67.5C 96.4457,65.8679 97.4457,64.2012 98.5,62.5C 97.0521,61.6461 95.7187,60.6461 94.5,59.5C 93.4822,60.1925 92.4822,60.8592 91.5,61.5C 91.5,60.8333 91.5,60.1667 91.5,59.5C 91.8333,58.5 92.5,57.8333 93.5,57.5C 95.0744,57.0629 96.2411,56.0629 97,54.5C 96.9357,52.0444 97.1023,49.7111 97.5,47.5 Z"/></g>
<g><path style="opacity:1" fill="#dea07e" d="M 131.5,53.5 C 133.514,53.3915 135.18,54.0582 136.5,55.5C 136.54,58.8806 136.207,62.2139 135.5,65.5C 134.5,65.5 133.5,65.5 132.5,65.5C 132.167,65.5 131.833,65.5 131.5,65.5C 127.939,65.0851 128.106,64.0851 132,62.5C 133.107,63.7119 133.607,63.3786 133.5,61.5C 134.525,61.1034 134.692,60.4368 134,59.5C 133.023,58.2264 132.189,58.2264 131.5,59.5C 130.25,59.4226 129.417,58.756 129,57.5C 128.548,60.1494 127.714,62.6494 126.5,65C 127.563,66.1882 128.897,66.6882 130.5,66.5C 130.784,68.4147 130.451,70.0813 129.5,71.5C 129.167,71.5 128.833,71.5 128.5,71.5C 128.5,70.1667 128.5,68.8333 128.5,67.5C 126.151,67.5417 124.818,66.3751 124.5,64C 126.001,59.1642 128.168,54.6642 131,50.5C 131.483,51.448 131.649,52.448 131.5,53.5 Z"/></g>
<g><path style="opacity:1" fill="#220000" d="M 131.5,53.5 C 132.348,55.0931 133.681,56.2597 135.5,57C 134.101,57.5946 132.768,57.4279 131.5,56.5C 130.224,55.3864 130.224,54.3864 131.5,53.5 Z"/></g>
<g><path style="opacity:1" fill="#430000" d="M 59.5,61.5 C 58.5326,60.1938 57.1993,59.5271 55.5,59.5C 56.8484,58.8141 58.015,57.8141 59,56.5C 59.4935,58.1341 59.6602,59.8008 59.5,61.5 Z"/></g>
<g><path style="opacity:1" fill="#ec9739" d="M 65.5,55.5 C 65.3284,56.4916 65.6618,57.1583 66.5,57.5C 66.7497,59.674 67.7497,61.3406 69.5,62.5C 69.5,62.8333 69.5,63.1667 69.5,63.5C 69.5,64.1667 69.5,64.8333 69.5,65.5C 68.1667,64.1667 66.8333,62.8333 65.5,61.5C 63.5721,59.2192 62.5721,56.5525 62.5,53.5C 63.1174,53.3893 63.6174,53.056 64,52.5C 64.2321,53.7375 64.7321,54.7375 65.5,55.5 Z"/></g>
<g><path style="opacity:1" fill="#310000" d="M 131.5,59.5 C 132.189,58.2264 133.023,58.2264 134,59.5C 134.692,60.4368 134.525,61.1034 133.5,61.5C 133.167,60.5 132.5,59.8333 131.5,59.5 Z"/></g>
<g><path style="opacity:1" fill="#600608" d="M 69.5,62.5 C 67.7497,61.3406 66.7497,59.674 66.5,57.5C 67.8249,58.9526 68.6582,58.6192 69,56.5C 69.8333,58.1667 70.6667,59.8333 71.5,61.5C 70.7997,61.7871 70.1331,62.1205 69.5,62.5 Z"/></g>
<g><path style="opacity:1" fill="#af1a0d" d="M 101.5,48.5 C 102.987,51.9848 104.153,55.6514 105,59.5C 105.743,56.8079 106.91,54.4746 108.5,52.5C 108.642,56.1501 107.975,59.6501 106.5,63C 106.743,63.9021 107.077,64.7354 107.5,65.5C 105.204,66.733 103.87,68.733 103.5,71.5C 101.5,71.5 99.5,71.5 97.5,71.5C 97.9713,67.4975 99.9713,64.3308 103.5,62C 102.874,61.2496 102.374,60.4162 102,59.5C 101.692,60.3081 101.192,60.9747 100.5,61.5C 98.579,59.5309 98.579,58.0309 100.5,57C 99.8333,54.3333 99.1667,51.6667 98.5,49C 99.448,48.5172 100.448,48.3505 101.5,48.5 Z"/></g>
<g><path style="opacity:1" fill="#dba589" d="M 131.5,59.5 C 132.5,59.8333 133.167,60.5 133.5,61.5C 131.007,61.8693 130.34,61.2027 131.5,59.5 Z"/></g>
<g><path style="opacity:1" fill="#c30303" d="M 65.5,61.5 C 65.1459,64.4206 66.1459,66.7539 68.5,68.5C 67.675,69.3857 66.675,69.719 65.5,69.5C 65.2407,73.0681 63.2407,74.4015 59.5,73.5C 59.5,72.1667 59.5,70.8333 59.5,69.5C 60.8333,69.5 62.1667,69.5 63.5,69.5C 63.4824,66.2637 62.4824,63.597 60.5,61.5C 60.3433,60.1266 60.51,58.7932 61,57.5C 62.0692,59.4074 63.5692,60.7407 65.5,61.5 Z"/></g>
<g><path style="opacity:1" fill="#3e0200" d="M 108.5,52.5 C 109.167,52.5 109.5,52.8333 109.5,53.5C 108.829,56.986 109.829,59.6527 112.5,61.5C 111.178,61.67 110.011,61.3366 109,60.5C 108.626,61.4162 108.126,62.2496 107.5,63C 108.756,63.4169 109.423,64.2502 109.5,65.5C 108.833,65.5 108.167,65.5 107.5,65.5C 107.077,64.7354 106.743,63.9021 106.5,63C 107.975,59.6501 108.642,56.1501 108.5,52.5 Z"/></g>
<g><path style="opacity:1" fill="#59090d" d="M 113.5,59.5 C 115.144,59.8102 116.144,60.8102 116.5,62.5C 115.761,62.369 115.094,62.5357 114.5,63C 114.085,65.0263 113.085,66.5263 111.5,67.5C 112.15,65.5648 112.483,63.5648 112.5,61.5C 113.338,61.1583 113.672,60.4916 113.5,59.5 Z"/></g>
<g><path style="opacity:1" fill="#1b1723" d="M 29.5,57.5 C 31.1898,60.6402 31.6898,63.9735 31,67.5C 30.7508,66.376 30.2508,65.376 29.5,64.5C 27.22,63.8641 25.22,62.8641 23.5,61.5C 25.2624,61.3573 26.9291,61.6906 28.5,62.5C 28.9427,60.713 29.2761,59.0463 29.5,57.5 Z"/></g>
<g><path style="opacity:1" fill="#1d0d0b" d="M 73.5,45.5 C 74.1667,45.5 74.8333,45.5 75.5,45.5C 73.8056,48.4179 72.8056,51.5846 72.5,55C 72.6034,59.2476 73.1034,59.4142 74,55.5C 74.6667,56.8333 75.3333,58.1667 76,59.5C 76.3333,58.8333 76.6667,58.1667 77,57.5C 77.49,58.7932 77.6567,60.1266 77.5,61.5C 78.265,62.6602 79.265,63.6602 80.5,64.5C 81.1067,64.3764 81.44,64.0431 81.5,63.5C 78.6757,60.7741 78.8423,58.1074 82,55.5C 84.2209,56.7651 87.3876,58.0984 91.5,59.5C 91.5,60.1667 91.5,60.8333 91.5,61.5C 91.1667,62.8333 90.8333,64.1667 90.5,65.5C 87.5065,65.1457 86.5065,66.1457 87.5,68.5C 83.4494,68.9225 79.6161,68.2559 76,66.5C 74.3437,67.7653 72.677,69.0987 71,70.5C 70.5172,71.448 70.3505,72.448 70.5,73.5C 73.9864,73.2953 74.9864,74.6286 73.5,77.5C 72.6851,76.5707 71.8518,75.5707 71,74.5C 70.5357,75.0944 70.369,75.7611 70.5,76.5C 68.281,73.7962 67.9476,70.7962 69.5,67.5C 70.9245,69.0311 71.5912,68.6977 71.5,66.5C 74.9654,64.7365 75.2987,62.4031 72.5,59.5C 71.5108,55.8927 71.1774,52.226 71.5,48.5C 67.8997,49.3198 65.8997,51.6531 65.5,55.5C 64.7321,54.7375 64.2321,53.7375 64,52.5C 63.6174,53.056 63.1174,53.3893 62.5,53.5C 61.7095,52.5987 60.7095,51.9321 59.5,51.5C 62.519,49.558 65.8523,48.2247 69.5,47.5C 71.1993,47.4729 72.5326,46.8062 73.5,45.5 Z"/></g>
<g><path style="opacity:1" fill="#fefcfc" d="M 77.5,61.5 C 77.5308,65.2762 76.8641,65.4429 75.5,62C 75.6834,60.3164 76.3501,60.1498 77.5,61.5 Z"/></g>
<g><path style="opacity:1" fill="#fefefe" d="M 81.5,63.5 C 81.5792,62.0695 81.2458,60.7362 80.5,59.5C 83.1062,58.3483 85.7728,58.1816 88.5,59C 87.8158,62.9222 85.4825,64.4222 81.5,63.5 Z"/></g>
<g><path style="opacity:1" fill="#b50a05" d="M 95.5,67.5 C 94.0413,67.5674 92.7079,67.2341 91.5,66.5C 90.8333,66.5 90.5,66.1667 90.5,65.5C 90.8333,64.1667 91.1667,62.8333 91.5,61.5C 92.4822,60.8592 93.4822,60.1925 94.5,59.5C 95.7187,60.6461 97.0521,61.6461 98.5,62.5C 97.4457,64.2012 96.4457,65.8679 95.5,67.5 Z"/></g>
<g><path style="opacity:1" fill="#e79b38" d="M 112.5,61.5 C 112.483,63.5648 112.15,65.5648 111.5,67.5C 110.833,66.8333 110.167,66.1667 109.5,65.5C 109.423,64.2502 108.756,63.4169 107.5,63C 108.126,62.2496 108.626,61.4162 109,60.5C 110.011,61.3366 111.178,61.67 112.5,61.5 Z"/></g>
<g><path style="opacity:1" fill="#ee9c73" d="M 29.5,57.5 C 31.8531,59.1013 34.0198,61.1013 36,63.5C 36.4717,67.1105 37.9717,70.1105 40.5,72.5C 41.822,74.3111 42.322,76.3111 42,78.5C 40.9158,80.7823 39.4158,81.1157 37.5,79.5C 36.1902,77.8523 34.8569,76.1856 33.5,74.5C 32.8333,74.8333 32.1667,75.1667 31.5,75.5C 28.0601,73.6312 24.3934,72.4645 20.5,72C 19.944,71.6174 19.6107,71.1174 19.5,70.5C 21.1992,70.6602 22.8659,70.4935 24.5,70C 22.1457,69.1529 19.8123,68.3195 17.5,67.5C 17.369,66.7611 17.5357,66.0944 18,65.5C 19.4411,66.2598 20.9411,66.9264 22.5,67.5C 23.463,67.0302 23.463,66.3635 22.5,65.5C 20.079,65.1218 17.7457,64.4552 15.5,63.5C 15.7828,62.7109 16.2828,62.0442 17,61.5C 19.0266,61.9863 21.1933,61.9863 23.5,61.5C 25.22,62.8641 27.22,63.8641 29.5,64.5C 30.2508,65.376 30.7508,66.376 31,67.5C 31.6898,63.9735 31.1898,60.6402 29.5,57.5 Z"/></g>
<g><path style="opacity:1" fill="#280000" d="M 22.5,65.5 C 21.6322,63.1081 22.2988,62.9414 24.5,65C 23.9056,65.4643 23.2389,65.631 22.5,65.5 Z"/></g>
<g><path style="opacity:1" fill="#ae100b" d="M 71.5,66.5 C 71.573,64.9731 70.9063,63.9731 69.5,63.5C 69.5,63.1667 69.5,62.8333 69.5,62.5C 70.1331,62.1205 70.7997,61.7871 71.5,61.5C 70.6667,59.8333 69.8333,58.1667 69,56.5C 68.6582,58.6192 67.8249,58.9526 66.5,57.5C 65.6618,57.1583 65.3284,56.4916 65.5,55.5C 65.8997,51.6531 67.8997,49.3198 71.5,48.5C 71.1774,52.226 71.5108,55.8927 72.5,59.5C 75.2987,62.4031 74.9654,64.7365 71.5,66.5 Z"/></g>
<g><path style="opacity:1" fill="#3c0000" d="M 69.5,63.5 C 70.9063,63.9731 71.573,64.9731 71.5,66.5C 70.8333,66.1667 70.1667,65.8333 69.5,65.5C 69.5,64.8333 69.5,64.1667 69.5,63.5 Z"/></g>
<g><path style="opacity:1" fill="#190004" d="M 15.5,63.5 C 17.7457,64.4552 20.079,65.1218 22.5,65.5C 23.463,66.3635 23.463,67.0302 22.5,67.5C 20.9411,66.9264 19.4411,66.2598 18,65.5C 17.5357,66.0944 17.369,66.7611 17.5,67.5C 16.6236,67.6309 15.9569,67.2975 15.5,66.5C 16.7914,65.4728 16.7914,64.4728 15.5,63.5 Z"/></g>
<g><path style="opacity:1" fill="#d99a5a" d="M 69.5,65.5 C 70.1667,65.8333 70.8333,66.1667 71.5,66.5C 71.5912,68.6977 70.9245,69.0311 69.5,67.5C 69.5,66.8333 69.5,66.1667 69.5,65.5 Z"/></g>
<g><path style="opacity:1" fill="#d79e4f" d="M 55.5,59.5 C 57.1993,59.5271 58.5326,60.1938 59.5,61.5C 59.631,62.2389 59.4643,62.9056 59,63.5C 57.9887,62.6634 56.8221,62.33 55.5,62.5C 55.5,64.8333 55.5,67.1667 55.5,69.5C 55.1667,69.5 54.8333,69.5 54.5,69.5C 54.2529,66.0613 54.5863,62.728 55.5,59.5 Z"/></g>
<g><path style="opacity:1" fill="#2d0b08" d="M 59.5,61.5 C 59.8333,61.5 60.1667,61.5 60.5,61.5C 60.5402,64.4245 59.7068,67.0912 58,69.5C 57.6667,68.1667 57.3333,66.8333 57,65.5C 56.79,67.0581 56.29,68.3915 55.5,69.5C 55.5,67.1667 55.5,64.8333 55.5,62.5C 56.8221,62.33 57.9887,62.6634 59,63.5C 59.4643,62.9056 59.631,62.2389 59.5,61.5 Z"/></g>
<g><path style="opacity:1" fill="#fffdef" d="M 79.5,65.5 C 81.604,65.2011 83.604,65.5344 85.5,66.5C 84.5,66.8333 83.5,67.1667 82.5,67.5C 80.9704,67.3601 79.9704,66.6935 79.5,65.5 Z"/></g>
<g><path style="opacity:1" fill="#1a0106" d="M 108.5,52.5 C 108.5,52.1667 108.5,51.8333 108.5,51.5C 111.643,52.1335 114.143,53.8002 116,56.5C 117.949,60.6293 119.116,64.9627 119.5,69.5C 119.167,69.5 118.833,69.5 118.5,69.5C 117.076,67.4855 116.41,65.1522 116.5,62.5C 116.144,60.8102 115.144,59.8102 113.5,59.5C 114.138,56.1441 112.804,54.1441 109.5,53.5C 109.5,52.8333 109.167,52.5 108.5,52.5 Z"/></g>
<g><path style="opacity:1" fill="#35120f" d="M 91.5,66.5 C 92.7079,67.2341 94.0413,67.5674 95.5,67.5C 96.2096,69.7463 96.7096,72.0796 97,74.5C 97.9236,72.5049 99.0903,72.1716 100.5,73.5C 99.4937,73.9377 99.4937,74.6043 100.5,75.5C 99.0783,75.7086 97.745,76.2086 96.5,77C 96.2144,78.3877 96.5477,79.8877 97.5,81.5C 97.5,82.5 97.5,83.5 97.5,84.5C 96.71,83.3915 96.21,82.0581 96,80.5C 95.5172,81.448 95.3505,82.448 95.5,83.5C 94.678,81.6115 93.8447,79.6115 93,77.5C 91.1079,78.6174 90.2746,80.2841 90.5,82.5C 89.5318,84.6074 89.1984,86.9407 89.5,89.5C 88.5318,87.3926 88.1984,85.0593 88.5,82.5C 88.5,80.8333 88.5,79.1667 88.5,77.5C 90.5101,76.085 92.3434,74.4183 94,72.5C 94.4828,71.552 94.6495,70.552 94.5,69.5C 93.5,69.5 92.5,69.5 91.5,69.5C 91.5,68.5 91.5,67.5 91.5,66.5 Z"/></g>
<g><path style="opacity:1" fill="#ed9b2b" d="M 87.5,68.5 C 87.5,70.5 87.5,72.5 87.5,74.5C 84.1501,74.335 80.8168,74.5017 77.5,75C 78.7996,76.5788 78.4663,77.7455 76.5,78.5C 75.391,78.4431 74.391,78.1098 73.5,77.5C 74.9864,74.6286 73.9864,73.2953 70.5,73.5C 70.3505,72.448 70.5172,71.448 71,70.5C 72.677,69.0987 74.3437,67.7653 76,66.5C 79.6161,68.2559 83.4494,68.9225 87.5,68.5 Z"/></g>
<g><path style="opacity:1" fill="#421913" d="M 107.5,65.5 C 108.548,67.9327 109.214,67.9327 109.5,65.5C 110.167,66.1667 110.833,66.8333 111.5,67.5C 111.607,69.3786 111.107,69.7119 110,68.5C 109.25,69.1258 108.416,69.6258 107.5,70C 108.252,70.6708 108.586,71.5041 108.5,72.5C 106.958,71.6993 105.292,71.366 103.5,71.5C 103.87,68.733 105.204,66.733 107.5,65.5 Z"/></g>
<g><path style="opacity:1" fill="#d59e4d" d="M 107.5,65.5 C 108.167,65.5 108.833,65.5 109.5,65.5C 109.214,67.9327 108.548,67.9327 107.5,65.5 Z"/></g>
<g><path style="opacity:1" fill="#290200" d="M 17.5,67.5 C 19.8123,68.3195 22.1457,69.1529 24.5,70C 22.8659,70.4935 21.1992,70.6602 19.5,70.5C 18.8333,69.5 18.1667,68.5 17.5,67.5 Z"/></g>
<g><path style="opacity:1" fill="#ec9b27" d="M 90.5,65.5 C 90.5,66.1667 90.8333,66.5 91.5,66.5C 91.5,67.5 91.5,68.5 91.5,69.5C 92.5,69.5 93.5,69.5 94.5,69.5C 94.6495,70.552 94.4828,71.552 94,72.5C 92.3434,74.4183 90.5101,76.085 88.5,77.5C 87.7109,77.2172 87.0442,76.7172 86.5,76C 87.6582,74.9914 88.3248,73.6581 88.5,72C 88.4857,70.6153 88.1524,69.4486 87.5,68.5C 86.5065,66.1457 87.5065,65.1457 90.5,65.5 Z"/></g>
<g><path style="opacity:1" fill="#711517" d="M 50.5,68.5 C 50.2865,70.1439 50.6198,71.6439 51.5,73C 49.9419,73.21 48.6085,73.71 47.5,74.5C 46.1266,74.6567 44.7932,74.49 43.5,74C 45.087,73.1376 46.7536,72.4709 48.5,72C 49.0848,70.6976 49.7515,69.531 50.5,68.5 Z"/></g>
<g><path style="opacity:1" fill="#fefefd" d="M 131.5,65.5 C 131.833,65.5 132.167,65.5 132.5,65.5C 132.667,76.1719 132.5,86.8385 132,97.5C 130.951,96.4829 129.784,96.3162 128.5,97C 130.002,97.5831 131.335,98.4164 132.5,99.5C 132.043,100.298 131.376,100.631 130.5,100.5C 128.5,99.6505 127.167,98.1505 126.5,96C 129.05,85.9687 130.717,75.802 131.5,65.5 Z"/></g>
<g><path style="opacity:1" fill="#41080c" d="M 80.5,69.5 C 83.0448,69.1505 85.0448,69.9838 86.5,72C 84.4062,73.3515 82.0728,73.8515 79.5,73.5C 79.4326,72.0413 79.7659,70.7079 80.5,69.5 Z"/></g>
<g><path style="opacity:1" fill="#f6f4f1" d="M 122.5,80.5 C 122.721,81.7348 123.388,82.7348 124.5,83.5C 124.058,84.7387 123.391,85.7387 122.5,86.5C 122.5,87.5 122.5,88.5 122.5,89.5C 120.738,89.6427 119.071,89.3094 117.5,88.5C 116.304,88.8457 116.304,89.3457 117.5,90C 119.167,90.3333 120.833,90.6667 122.5,91C 119.986,92.2525 117.32,92.7525 114.5,92.5C 113.508,92.6716 112.842,92.3382 112.5,91.5C 112.737,90.209 112.404,89.209 111.5,88.5C 111.5,87.5 111.5,86.5 111.5,85.5C 112.222,85.9175 112.722,86.5842 113,87.5C 113.402,86.1279 113.902,84.7946 114.5,83.5C 113.754,82.2638 113.421,80.9305 113.5,79.5C 114.117,79.6107 114.617,79.944 115,80.5C 118.116,72.9098 121.283,72.7432 124.5,80C 124.317,81.6836 123.65,81.8502 122.5,80.5 Z"/></g>
<g><path style="opacity:1" fill="#0d2d50" d="M 147.5,33.5 C 145.735,34.4614 143.735,34.7947 141.5,34.5C 141.348,39.2874 142.015,43.9541 143.5,48.5C 142.295,51.5697 140.795,54.5697 139,57.5C 138.667,60.1667 138.333,62.8333 138,65.5C 135.549,69.9482 134.382,74.7815 134.5,80C 134.433,85.8517 135.1,91.5184 136.5,97C 136.467,99.6103 135.8,101.777 134.5,103.5C 134.295,95.6639 133.961,87.8306 133.5,80C 133.295,74.9413 133.962,70.108 135.5,65.5C 136.207,62.2139 136.54,58.8806 136.5,55.5C 138.074,55.0629 139.241,54.0629 140,52.5C 141.437,48.9333 141.604,45.2667 140.5,41.5C 140.5,38.8333 140.5,36.1667 140.5,33.5C 142.833,33.5 145.167,33.5 147.5,33.5 Z"/></g>
<g><path style="opacity:1" fill="#0f0000" d="M 87.5,68.5 C 88.1524,69.4486 88.4857,70.6153 88.5,72C 88.3248,73.6581 87.6582,74.9914 86.5,76C 87.0442,76.7172 87.7109,77.2172 88.5,77.5C 88.5,79.1667 88.5,80.8333 88.5,82.5C 87.6745,86.9819 87.1745,91.6486 87,96.5C 86.961,89.6638 86.2943,82.9971 85,76.5C 84.3333,108.5 83.6667,108.5 83,76.5C 82.3333,100.5 81.6667,100.5 81,76.5C 80.6667,76.8333 80.3333,77.1667 80,77.5C 79.6667,85.1667 79.3333,92.8333 79,100.5C 78.6667,93.5 78.3333,86.5 78,79.5C 77.5241,83.9588 76.6908,87.6255 75.5,90.5C 75.2367,86.3998 75.5701,82.3998 76.5,78.5C 78.4663,77.7455 78.7996,76.5788 77.5,75C 80.8168,74.5017 84.1501,74.335 87.5,74.5C 87.5,72.5 87.5,70.5 87.5,68.5 Z"/></g>
<g><path style="opacity:1" fill="#162239" d="M 19.5,70.5 C 19.6107,71.1174 19.944,71.6174 20.5,72C 24.3934,72.4645 28.0601,73.6312 31.5,75.5C 32.1667,75.1667 32.8333,74.8333 33.5,74.5C 34.8569,76.1856 36.1902,77.8523 37.5,79.5C 30.9925,77.9781 24.6591,75.9781 18.5,73.5C 17.2021,71.9483 17.5354,70.9483 19.5,70.5 Z"/></g>
<g><path style="opacity:1" fill="#f4f4f3" d="M 50.5,94.5 C 50.5774,93.2502 51.244,92.4169 52.5,92C 50.0261,91.8871 48.0261,90.8871 46.5,89C 47.5,88.6667 48.5,88.3333 49.5,88C 45.3047,87.946 42.3047,86.1126 40.5,82.5C 42.6864,81.1767 44.1864,79.1767 45,76.5C 45.6667,81.8333 46.3333,81.8333 47,76.5C 51.317,81.7366 54.1503,87.4033 55.5,93.5C 53.9547,94.4519 52.288,94.7852 50.5,94.5 Z"/></g>
<g><path style="opacity:1" fill="#fefdfc" d="M 88.5,82.5 C 88.1984,85.0593 88.5318,87.3926 89.5,89.5C 89.1936,92.3854 89.5269,95.0521 90.5,97.5C 90.3433,98.8734 90.51,100.207 91,101.5C 91.2321,100.263 91.7321,99.2625 92.5,98.5C 92.5,99.1667 92.5,99.8333 92.5,100.5C 92.5,101.167 92.5,101.833 92.5,102.5C 91.0415,105.147 91.7082,107.313 94.5,109C 93.7476,109.671 93.4142,110.504 93.5,111.5C 92.0688,110.097 90.9022,108.431 90,106.5C 90.2188,111.485 90.2188,116.485 90,121.5C 88.3822,112.305 87.3822,112.305 87,121.5C 86.4925,108.216 85.6592,108.216 84.5,121.5C 83.1706,100.208 82.5039,100.208 82.5,121.5C 81.5,121.5 80.5,121.5 79.5,121.5C 79.4972,96.2016 78.8306,96.2016 77.5,121.5C 76.668,112.518 76.168,103.518 76,94.5C 75.7216,93.5842 75.2216,92.9175 74.5,92.5C 74.3284,91.5084 74.6618,90.8417 75.5,90.5C 76.6908,87.6255 77.5241,83.9588 78,79.5C 78.3333,86.5 78.6667,93.5 79,100.5C 79.3333,92.8333 79.6667,85.1667 80,77.5C 80.3333,77.1667 80.6667,76.8333 81,76.5C 81.6667,100.5 82.3333,100.5 83,76.5C 83.6667,108.5 84.3333,108.5 85,76.5C 86.2943,82.9971 86.961,89.6638 87,96.5C 87.1745,91.6486 87.6745,86.9819 88.5,82.5 Z"/></g>
<g><path style="opacity:1" fill="#7e0f12" d="M 100.5,75.5 C 102.121,75.7869 103.121,76.7869 103.5,78.5C 102.675,79.3857 101.675,79.719 100.5,79.5C 100.649,80.552 100.483,81.552 100,82.5C 99.3292,81.7476 98.4959,81.4142 97.5,81.5C 96.5477,79.8877 96.2144,78.3877 96.5,77C 97.745,76.2086 99.0783,75.7086 100.5,75.5 Z"/></g>
<g><path style="opacity:1" fill="#000000" d="M 122.5,80.5 C 120.915,79.9976 120.415,78.9976 121,77.5C 122.039,78.2438 122.539,79.2438 122.5,80.5 Z"/></g>
<g><path style="opacity:1" fill="#d7a058" d="M 128.5,71.5 C 128.833,71.5 129.167,71.5 129.5,71.5C 127.816,80.9013 125.816,90.2346 123.5,99.5C 123.167,99.5 122.833,99.5 122.5,99.5C 123.509,92.6192 124.843,85.7858 126.5,79C 125.946,77.4495 125.28,75.9495 124.5,74.5C 125.826,68.0805 126.66,68.4139 127,75.5C 127.21,73.9419 127.71,72.6085 128.5,71.5 Z"/></g>
<g><path style="opacity:1" fill="#9d1d11" d="M 60.5,61.5 C 62.4824,63.597 63.4824,66.2637 63.5,69.5C 62.1667,69.5 60.8333,69.5 59.5,69.5C 59.5,70.8333 59.5,72.1667 59.5,73.5C 63.2407,74.4015 65.2407,73.0681 65.5,69.5C 66.675,69.719 67.675,69.3857 68.5,68.5C 66.1459,66.7539 65.1459,64.4206 65.5,61.5C 66.8333,62.8333 68.1667,64.1667 69.5,65.5C 69.5,66.1667 69.5,66.8333 69.5,67.5C 67.9476,70.7962 68.281,73.7962 70.5,76.5C 70.369,75.7611 70.5357,75.0944 71,74.5C 71.8518,75.5707 72.6851,76.5707 73.5,77.5C 73.8938,78.9672 74.2272,80.4672 74.5,82C 73.6227,83.6188 72.6227,84.7854 71.5,85.5C 73.9499,89.9616 73.6166,94.2949 70.5,98.5C 69.5,97 68.5,95.5 67.5,94C 69.164,91.3492 69.664,88.5159 69,85.5C 68.6667,86.5 68.3333,87.5 68,88.5C 67.5357,87.9056 67.369,87.2389 67.5,86.5C 67.8076,84.076 67.4742,81.7427 66.5,79.5C 63.8341,82.2281 61.8341,81.7281 60.5,78C 61.624,77.7508 62.624,77.2508 63.5,76.5C 60.9787,75.0343 58.312,74.5343 55.5,75C 56.2524,75.6708 56.5858,76.5041 56.5,77.5C 55.2058,76.7101 54.0391,75.7101 53,74.5C 54.248,77.6929 55.5814,81.0262 57,84.5C 58.0386,83.7562 58.5386,82.7562 58.5,81.5C 60.0233,83.8958 61.0233,86.5625 61.5,89.5C 60.9033,89.7352 60.5699,90.2352 60.5,91C 61.3195,92.8003 61.9862,94.6336 62.5,96.5C 62.6633,98.8568 62.4966,101.19 62,103.5C 61.6174,104.056 61.1174,104.389 60.5,104.5C 60.5672,101.517 59.5672,99.8501 57.5,99.5C 57.9867,98.5539 58.3201,97.5539 58.5,96.5C 56.7134,88.0852 53.0467,80.7519 47.5,74.5C 48.6085,73.71 49.9419,73.21 51.5,73C 50.6198,71.6439 50.2865,70.1439 50.5,68.5C 50.7713,66.6883 51.438,65.0217 52.5,63.5C 53.1687,65.6309 53.8354,67.6309 54.5,69.5C 54.8333,69.5 55.1667,69.5 55.5,69.5C 56.29,68.3915 56.79,67.0581 57,65.5C 57.3333,66.8333 57.6667,68.1667 58,69.5C 59.7068,67.0912 60.5402,64.4245 60.5,61.5 Z"/></g>
<g><path style="opacity:1" fill="#4d0a0c" d="M 118.5,69.5 C 118.833,69.5 119.167,69.5 119.5,69.5C 119.762,70.9778 119.429,72.3112 118.5,73.5C 115.418,74.3347 113.752,76.3347 113.5,79.5C 113.421,80.9305 113.754,82.2638 114.5,83.5C 113.902,84.7946 113.402,86.1279 113,87.5C 112.722,86.5842 112.222,85.9175 111.5,85.5C 111.657,84.1266 111.49,82.7932 111,81.5C 109.473,83.221 108.473,85.221 108,87.5C 107.209,86.255 106.709,84.9217 106.5,83.5C 107.434,82.4324 107.768,81.099 107.5,79.5C 106.448,79.6495 105.448,79.4828 104.5,79C 109.749,76.5535 114.416,73.3868 118.5,69.5 Z"/></g>
<g><path style="opacity:1" fill="#aa110b" d="M 95.5,83.5 C 95.5,84.1667 95.5,84.8333 95.5,85.5C 95.6309,86.3764 95.2975,87.0431 94.5,87.5C 93.8658,85.2276 92.5324,83.5609 90.5,82.5C 90.2746,80.2841 91.1079,78.6174 93,77.5C 93.8447,79.6115 94.678,81.6115 95.5,83.5 Z"/></g>
<g><path style="opacity:1" fill="#bc0705" d="M 67.5,86.5 C 66.5389,89.0547 65.2055,91.388 63.5,93.5C 62.3263,92.4863 61.6596,91.153 61.5,89.5C 61.0233,86.5625 60.0233,83.8958 58.5,81.5C 57.6554,80.3285 56.9887,78.9952 56.5,77.5C 56.5858,76.5041 56.2524,75.6708 55.5,75C 58.312,74.5343 60.9787,75.0343 63.5,76.5C 62.624,77.2508 61.624,77.7508 60.5,78C 61.8341,81.7281 63.8341,82.2281 66.5,79.5C 67.4742,81.7427 67.8076,84.076 67.5,86.5 Z"/></g>
<g><path style="opacity:1" fill="#360100" d="M 70.5,76.5 C 71.8024,79.1066 71.6357,81.7732 70,84.5C 68.6986,82.6354 68.3653,80.6354 69,78.5C 69.3333,79.1667 69.6667,79.8333 70,80.5C 70.49,79.2068 70.6567,77.8734 70.5,76.5 Z"/></g>
<g><path style="opacity:1" fill="#460101" d="M 56.5,77.5 C 56.9887,78.9952 57.6554,80.3285 58.5,81.5C 58.5386,82.7562 58.0386,83.7562 57,84.5C 55.5814,81.0262 54.248,77.6929 53,74.5C 54.0391,75.7101 55.2058,76.7101 56.5,77.5 Z"/></g>
<g><path style="opacity:1" fill="#ba140a" d="M 116.5,62.5 C 116.41,65.1522 117.076,67.4855 118.5,69.5C 114.416,73.3868 109.749,76.5535 104.5,79C 105.448,79.4828 106.448,79.6495 107.5,79.5C 107.768,81.099 107.434,82.4324 106.5,83.5C 104.721,85.8364 103.721,88.6697 103.5,92C 103.989,93.1385 104.322,94.3052 104.5,95.5C 102.902,95.3903 101.235,95.057 99.5,94.5C 99.5,94.1667 99.5,93.8333 99.5,93.5C 99.5797,90.2186 98.913,87.2186 97.5,84.5C 97.5,83.5 97.5,82.5 97.5,81.5C 98.4959,81.4142 99.3292,81.7476 100,82.5C 100.483,81.552 100.649,80.552 100.5,79.5C 101.675,79.719 102.675,79.3857 103.5,78.5C 103.121,76.7869 102.121,75.7869 100.5,75.5C 99.4937,74.6043 99.4937,73.9377 100.5,73.5C 103.794,72.4809 107.128,72.4809 110.5,73.5C 110.633,70.075 109.967,69.7417 108.5,72.5C 108.586,71.5041 108.252,70.6708 107.5,70C 108.416,69.6258 109.25,69.1258 110,68.5C 111.107,69.7119 111.607,69.3786 111.5,67.5C 113.085,66.5263 114.085,65.0263 114.5,63C 115.094,62.5357 115.761,62.369 116.5,62.5 Z"/></g>
<g><path style="opacity:1" fill="#e59556" d="M 97.5,84.5 C 97.7678,86.099 97.4345,87.4324 96.5,88.5C 96.7373,87.209 96.404,86.209 95.5,85.5C 95.5,84.8333 95.5,84.1667 95.5,83.5C 95.3505,82.448 95.5172,81.448 96,80.5C 96.21,82.0581 96.71,83.3915 97.5,84.5 Z"/></g>
<g><path style="opacity:1" fill="#0b0006" d="M 40.5,82.5 C 42.3047,86.1126 45.3047,87.946 49.5,88C 48.5,88.3333 47.5,88.6667 46.5,89C 48.0261,90.8871 50.0261,91.8871 52.5,92C 51.244,92.4169 50.5774,93.2502 50.5,94.5C 49.391,94.4431 48.391,94.1098 47.5,93.5C 47.1436,91.8102 46.1436,90.8102 44.5,90.5C 42.8763,88.8632 41.8763,89.1966 41.5,91.5C 40.6978,94.4486 40.3645,97.4486 40.5,100.5C 39.8333,102.167 39.1667,103.833 38.5,105.5C 38.2079,99.7099 38.8746,94.0432 40.5,88.5C 40.5629,86.5191 39.8962,84.8524 38.5,83.5C 38.9569,82.7025 39.6236,82.3691 40.5,82.5 Z"/></g>
<g><path style="opacity:1" fill="#240200" d="M 54.5,55.5 C 54.2322,57.099 54.5655,58.4324 55.5,59.5C 54.5863,62.728 54.2529,66.0613 54.5,69.5C 53.8354,67.6309 53.1687,65.6309 52.5,63.5C 51.438,65.0217 50.7713,66.6883 50.5,68.5C 49.7515,69.531 49.0848,70.6976 48.5,72C 46.7536,72.4709 45.087,73.1376 43.5,74C 44.7932,74.49 46.1266,74.6567 47.5,74.5C 53.0467,80.7519 56.7134,88.0852 58.5,96.5C 58.3201,97.5539 57.9867,98.5539 57.5,99.5C 59.5672,99.8501 60.5672,101.517 60.5,104.5C 59.0335,101.742 58.3668,102.075 58.5,105.5C 58.1667,105.5 57.8333,105.5 57.5,105.5C 57.5,104.833 57.5,104.167 57.5,103.5C 56.232,101.33 56.232,99.1632 57.5,97C 56.2068,96.51 54.8734,96.3433 53.5,96.5C 52.8333,96.5 52.1667,96.5 51.5,96.5C 51.5,95.8333 51.1667,95.5 50.5,95.5C 50.5,95.1667 50.5,94.8333 50.5,94.5C 52.288,94.7852 53.9547,94.4519 55.5,93.5C 54.1503,87.4033 51.317,81.7366 47,76.5C 46.3333,81.8333 45.6667,81.8333 45,76.5C 44.1864,79.1767 42.6864,81.1767 40.5,82.5C 39.0998,81.8999 38.0998,80.8999 37.5,79.5C 39.4158,81.1157 40.9158,80.7823 42,78.5C 42.322,76.3111 41.822,74.3111 40.5,72.5C 47.0132,72.5319 50.1799,69.1986 50,62.5C 51.7814,60.2757 53.2814,57.9423 54.5,55.5 Z"/></g>
<g><path style="opacity:1" fill="#9a2516" d="M 111.5,85.5 C 111.5,86.5 111.5,87.5 111.5,88.5C 111.279,91.0972 110.779,91.0972 110,88.5C 109.517,89.448 109.351,90.448 109.5,91.5C 109.5,92.5 109.5,93.5 109.5,94.5C 109.279,97.0972 108.779,97.0972 108,94.5C 106.921,97.0627 106.421,99.7294 106.5,102.5C 105.651,104.888 104.651,107.221 103.5,109.5C 102.677,105.432 102.344,101.432 102.5,97.5C 103.833,97.5 104.5,96.8333 104.5,95.5C 104.322,94.3052 103.989,93.1385 103.5,92C 103.721,88.6697 104.721,85.8364 106.5,83.5C 106.709,84.9217 107.209,86.255 108,87.5C 108.473,85.221 109.473,83.221 111,81.5C 111.49,82.7932 111.657,84.1266 111.5,85.5 Z"/></g>
<g><path style="opacity:1" fill="#000000" d="M 122.5,86.5 C 121.244,86.5386 120.244,86.0386 119.5,85C 120.998,84.4153 121.998,84.9153 122.5,86.5 Z"/></g>
<g><path style="opacity:1" fill="#590604" d="M 90.5,82.5 C 92.5324,83.5609 93.8658,85.2276 94.5,87.5C 95.2975,87.0431 95.6309,86.3764 95.5,85.5C 96.404,86.209 96.7373,87.209 96.5,88.5C 94.7839,88.6287 93.1172,88.962 91.5,89.5C 90.5318,87.3926 90.1984,85.0593 90.5,82.5 Z"/></g>
<g><path style="opacity:1" fill="#390100" d="M 97.5,84.5 C 98.913,87.2186 99.5797,90.2186 99.5,93.5C 98.7321,92.7375 98.2321,91.7375 98,90.5C 97.5357,91.0944 97.369,91.7611 97.5,92.5C 96.5655,91.4324 96.2322,90.099 96.5,88.5C 97.4345,87.4324 97.7678,86.099 97.5,84.5 Z"/></g>
<g><path style="opacity:1" fill="#00020d" d="M 132.5,65.5 C 133.5,65.5 134.5,65.5 135.5,65.5C 133.962,70.108 133.295,74.9413 133.5,80C 133.961,87.8306 134.295,95.6639 134.5,103.5C 133.292,104.234 131.959,104.567 130.5,104.5C 130.953,103.542 131.619,102.708 132.5,102C 131.584,101.722 130.918,101.222 130.5,100.5C 131.376,100.631 132.043,100.298 132.5,99.5C 131.335,98.4164 130.002,97.5831 128.5,97C 129.784,96.3162 130.951,96.4829 132,97.5C 132.5,86.8385 132.667,76.1719 132.5,65.5 Z"/></g>
<g><path style="opacity:1" fill="#b5773e" d="M 90.5,82.5 C 90.1984,85.0593 90.5318,87.3926 91.5,89.5C 91.5,90.5 91.5,91.5 91.5,92.5C 91.7845,94.4147 91.4511,96.0813 90.5,97.5C 89.5269,95.0521 89.1936,92.3854 89.5,89.5C 89.1984,86.9407 89.5318,84.6074 90.5,82.5 Z"/></g>
<g><path style="opacity:1" fill="#eb9254" d="M 61.5,89.5 C 61.6596,91.153 62.3263,92.4863 63.5,93.5C 63.7373,94.791 63.404,95.791 62.5,96.5C 61.9862,94.6336 61.3195,92.8003 60.5,91C 60.5699,90.2352 60.9033,89.7352 61.5,89.5 Z"/></g>
<g><path style="opacity:1" fill="#220200" d="M 111.5,88.5 C 112.404,89.209 112.737,90.209 112.5,91.5C 111.778,91.9175 111.278,92.5842 111,93.5C 110.722,92.5842 110.222,91.9175 109.5,91.5C 109.351,90.448 109.517,89.448 110,88.5C 110.779,91.0972 111.279,91.0972 111.5,88.5 Z"/></g>
<g><path style="opacity:1" fill="#ab0f0a" d="M 96.5,88.5 C 96.2322,90.099 96.5655,91.4324 97.5,92.5C 97.5,93.1667 97.5,93.8333 97.5,94.5C 97.752,97.3699 96.752,99.7033 94.5,101.5C 93.8165,101.137 93.1499,100.804 92.5,100.5C 92.5,99.8333 92.5,99.1667 92.5,98.5C 92.7947,96.2646 92.4614,94.2646 91.5,92.5C 91.5,91.5 91.5,90.5 91.5,89.5C 93.1172,88.962 94.7839,88.6287 96.5,88.5 Z"/></g>
<g><path style="opacity:1" fill="#fdfaf5" d="M 109.5,91.5 C 110.222,91.9175 110.722,92.5842 111,93.5C 111.278,92.5842 111.778,91.9175 112.5,91.5C 112.842,92.3382 113.508,92.6716 114.5,92.5C 115.6,93.5585 116.934,94.3918 118.5,95C 117.944,95.3826 117.611,95.8826 117.5,96.5C 115.833,96.5 114.167,96.5 112.5,96.5C 111.71,95.5987 110.71,94.9321 109.5,94.5C 109.5,93.5 109.5,92.5 109.5,91.5 Z"/></g>
<g><path style="opacity:1" fill="#e79553" d="M 99.5,93.5 C 99.5,93.8333 99.5,94.1667 99.5,94.5C 99.6495,95.552 99.4828,96.552 99,97.5C 98.7679,96.2625 98.2679,95.2625 97.5,94.5C 97.5,93.8333 97.5,93.1667 97.5,92.5C 97.369,91.7611 97.5357,91.0944 98,90.5C 98.2321,91.7375 98.7321,92.7375 99.5,93.5 Z"/></g>
<g><path style="opacity:1" fill="#4d090d" d="M 44.5,90.5 C 43.2383,96.2968 43.2383,101.963 44.5,107.5C 44.5,108.833 44.5,110.167 44.5,111.5C 43.8333,111.5 43.1667,111.5 42.5,111.5C 42.8039,110.85 43.1373,110.183 43.5,109.5C 42.7695,106.891 42.2695,104.224 42,101.5C 41.6174,100.944 41.1174,100.611 40.5,100.5C 40.3645,97.4486 40.6978,94.4486 41.5,91.5C 41.8763,89.1966 42.8763,88.8632 44.5,90.5 Z"/></g>
<g><path style="opacity:1" fill="#fefefd" d="M 74.5,96.5 C 75.4927,104.65 75.8261,112.983 75.5,121.5C 74.5,121.5 73.5,121.5 72.5,121.5C 72.1667,113.5 71.8333,113.5 71.5,121.5C 69.1667,121.5 66.8333,121.5 64.5,121.5C 64.5,119.833 64.5,118.167 64.5,116.5C 65.791,116.737 66.791,116.404 67.5,115.5C 68.9063,115.027 69.573,114.027 69.5,112.5C 70.1098,111.609 70.4431,110.609 70.5,109.5C 71.404,108.791 71.7373,107.791 71.5,106.5C 73.4098,103.548 74.4098,100.214 74.5,96.5 Z"/></g>
<g><path style="opacity:1" fill="#6a1d16" d="M 97.5,94.5 C 98.2679,95.2625 98.7679,96.2625 99,97.5C 99.4828,96.552 99.6495,95.552 99.5,94.5C 101.235,95.057 102.902,95.3903 104.5,95.5C 104.5,96.8333 103.833,97.5 102.5,97.5C 101.065,98.9133 100.065,100.58 99.5,102.5C 98.1667,103.833 96.8333,105.167 95.5,106.5C 94.7784,106.082 94.2784,105.416 94,104.5C 93.6667,104.833 93.3333,105.167 93,105.5C 92.5172,104.552 92.3505,103.552 92.5,102.5C 92.5,101.833 92.5,101.167 92.5,100.5C 93.1499,100.804 93.8165,101.137 94.5,101.5C 96.752,99.7033 97.752,97.3699 97.5,94.5 Z"/></g>
<g><path style="opacity:1" fill="#421210" d="M 73.5,77.5 C 74.391,78.1098 75.391,78.4431 76.5,78.5C 75.5701,82.3998 75.2367,86.3998 75.5,90.5C 74.6618,90.8417 74.3284,91.5084 74.5,92.5C 74.5,93.8333 74.5,95.1667 74.5,96.5C 73.5,98.5 72.5,100.5 71.5,102.5C 70.8333,103.5 70.1667,104.5 69.5,105.5C 69.646,102.446 68.3126,100.446 65.5,99.5C 66.075,103.155 65.075,106.155 62.5,108.5C 61.8333,107.167 61.1667,105.833 60.5,104.5C 61.1174,104.389 61.6174,104.056 62,103.5C 62.4966,101.19 62.6633,98.8568 62.5,96.5C 63.404,95.791 63.7373,94.791 63.5,93.5C 65.2055,91.388 66.5389,89.0547 67.5,86.5C 67.369,87.2389 67.5357,87.9056 68,88.5C 68.3333,87.5 68.6667,86.5 69,85.5C 69.664,88.5159 69.164,91.3492 67.5,94C 68.5,95.5 69.5,97 70.5,98.5C 73.6166,94.2949 73.9499,89.9616 71.5,85.5C 72.6227,84.7854 73.6227,83.6188 74.5,82C 74.2272,80.4672 73.8938,78.9672 73.5,77.5 Z"/></g>
<g><path style="opacity:1" fill="#de9856" d="M 65.5,99.5 C 64.7321,100.263 64.2321,101.263 64,102.5C 63.3653,100.365 63.6986,98.3646 65,96.5C 65.4828,97.448 65.6495,98.448 65.5,99.5 Z"/></g>
<g><path style="opacity:1" fill="#280500" d="M 91.5,92.5 C 92.4614,94.2646 92.7947,96.2646 92.5,98.5C 91.7321,99.2625 91.2321,100.263 91,101.5C 90.51,100.207 90.3433,98.8734 90.5,97.5C 91.4511,96.0813 91.7845,94.4147 91.5,92.5 Z"/></g>
<g><path style="opacity:1" fill="#6e1416" d="M 117.5,97.5 C 117.605,101.548 117.272,105.548 116.5,109.5C 117.5,109.5 118.5,109.5 119.5,109.5C 119.737,110.791 119.404,111.791 118.5,112.5C 118.565,112.062 118.399,111.728 118,111.5C 117.292,112.381 116.458,113.047 115.5,113.5C 114.6,108.228 114.267,102.895 114.5,97.5C 115.5,97.5 116.5,97.5 117.5,97.5 Z"/></g>
<g><path style="opacity:1" fill="#f19924" d="M 44.5,90.5 C 46.1436,90.8102 47.1436,91.8102 47.5,93.5C 47.7373,94.791 47.404,95.791 46.5,96.5C 45.8333,100.167 45.1667,103.833 44.5,107.5C 43.2383,101.963 43.2383,96.2968 44.5,90.5 Z"/></g>
<g><path style="opacity:1" fill="#3f1412" d="M 102.5,97.5 C 102.344,101.432 102.677,105.432 103.5,109.5C 102.604,108.494 101.938,108.494 101.5,109.5C 99.8372,107.562 99.1706,105.228 99.5,102.5C 100.065,100.58 101.065,98.9133 102.5,97.5 Z"/></g>
<g><path style="opacity:1" fill="#2e0400" d="M 109.5,94.5 C 110.71,94.9321 111.71,95.5987 112.5,96.5C 114.167,96.5 115.833,96.5 117.5,96.5C 117.5,96.8333 117.5,97.1667 117.5,97.5C 116.5,97.5 115.5,97.5 114.5,97.5C 114.267,102.895 114.6,108.228 115.5,113.5C 115.5,114.833 114.833,115.5 113.5,115.5C 113.457,110.715 113.29,105.715 113,100.5C 112.501,104.152 112.335,107.818 112.5,111.5C 111.325,111.719 110.325,111.386 109.5,110.5C 111.457,107.432 111.957,104.099 111,100.5C 110.692,101.308 110.192,101.975 109.5,102.5C 108.719,101.271 108.219,99.938 108,98.5C 107.79,100.058 107.29,101.391 106.5,102.5C 106.421,99.7294 106.921,97.0627 108,94.5C 108.779,97.0972 109.279,97.0972 109.5,94.5 Z"/></g>
<g><path style="opacity:1" fill="#fffdfc" d="M 112.5,96.5 C 112.611,97.1174 112.944,97.6174 113.5,98C 112.167,98.6667 110.833,98.6667 109.5,98C 110.244,96.9614 111.244,96.4614 112.5,96.5 Z"/></g>
<g><path style="opacity:1" fill="#fcfffe" d="M 130.5,100.5 C 130.918,101.222 131.584,101.722 132.5,102C 131.619,102.708 130.953,103.542 130.5,104.5C 129.167,103.167 129.167,101.833 130.5,100.5 Z"/></g>
<g><path style="opacity:1" fill="#4d0102" d="M 51.5,96.5 C 52.1667,96.5 52.8333,96.5 53.5,96.5C 52.189,103.932 52.189,111.265 53.5,118.5C 53.5,119.5 53.5,120.5 53.5,121.5C 52.8333,121.5 52.1667,121.5 51.5,121.5C 50.3696,113.153 50.3696,104.819 51.5,96.5 Z"/></g>
<g><path style="opacity:1" fill="#7e1617" d="M 53.5,96.5 C 54.8734,96.3433 56.2068,96.51 57.5,97C 56.232,99.1632 56.232,101.33 57.5,103.5C 56.2353,104.514 55.5687,106.014 55.5,108C 55.7191,111.595 56.3858,115.095 57.5,118.5C 57.1667,118.833 56.8333,119.167 56.5,119.5C 55.7568,118.092 54.9234,116.759 54,115.5C 53.5172,116.448 53.3505,117.448 53.5,118.5C 52.189,111.265 52.189,103.932 53.5,96.5 Z"/></g>
<g><path style="opacity:1" fill="#440102" d="M 47.5,93.5 C 48.391,94.1098 49.391,94.4431 50.5,94.5C 50.5,94.8333 50.5,95.1667 50.5,95.5C 48.8829,96.5893 48.0496,98.256 48,100.5C 47.5005,106.825 47.3338,113.158 47.5,119.5C 47.1667,119.5 46.8333,119.5 46.5,119.5C 46.5,111.833 46.5,104.167 46.5,96.5C 47.404,95.791 47.7373,94.791 47.5,93.5 Z"/></g>
<g><path style="opacity:1" fill="#b20d08" d="M 50.5,95.5 C 51.1667,95.5 51.5,95.8333 51.5,96.5C 50.3696,104.819 50.3696,113.153 51.5,121.5C 49.6203,121.771 48.287,121.104 47.5,119.5C 47.3338,113.158 47.5005,106.825 48,100.5C 48.0496,98.256 48.8829,96.5893 50.5,95.5 Z"/></g>
<g><path style="opacity:1" fill="#110000" d="M 74.5,96.5 C 74.4098,100.214 73.4098,103.548 71.5,106.5C 71.5,105.167 71.5,103.833 71.5,102.5C 72.5,100.5 73.5,98.5 74.5,96.5 Z"/></g>
<g><path style="opacity:1" fill="#eb9a31" d="M 121.5,99.5 C 121.833,99.5 122.167,99.5 122.5,99.5C 122.833,99.5 123.167,99.5 123.5,99.5C 123.804,100.15 124.137,100.817 124.5,101.5C 123.087,108.401 121.087,115.067 118.5,121.5C 117.571,120.311 117.238,118.978 117.5,117.5C 118.451,116.081 118.784,114.415 118.5,112.5C 119.404,111.791 119.737,110.791 119.5,109.5C 120.546,106.272 121.212,102.939 121.5,99.5 Z"/></g>
<g><path style="opacity:1" fill="#96110d" d="M 121.5,99.5 C 121.212,102.939 120.546,106.272 119.5,109.5C 118.5,109.5 117.5,109.5 116.5,109.5C 117.272,105.548 117.605,101.548 117.5,97.5C 117.5,97.1667 117.5,96.8333 117.5,96.5C 118.314,98.631 118.814,100.964 119,103.5C 119.176,100.118 119.676,96.7848 120.5,93.5C 121.466,95.396 121.799,97.396 121.5,99.5 Z"/></g>
<g><path style="opacity:1" fill="#bd0703" d="M 65.5,99.5 C 68.3126,100.446 69.646,102.446 69.5,105.5C 69.5,105.833 69.5,106.167 69.5,106.5C 68.5041,106.414 67.6708,106.748 67,107.5C 67.266,110.901 65.766,112.567 62.5,112.5C 62.5,111.5 62.5,110.5 62.5,109.5C 62.5,109.167 62.5,108.833 62.5,108.5C 65.075,106.155 66.075,103.155 65.5,99.5 Z"/></g>
<g><path style="opacity:1" fill="#b17645" d="M 71.5,102.5 C 71.5,103.833 71.5,105.167 71.5,106.5C 71.7373,107.791 71.404,108.791 70.5,109.5C 69.596,108.791 69.2627,107.791 69.5,106.5C 69.5,106.167 69.5,105.833 69.5,105.5C 70.1667,104.5 70.8333,103.5 71.5,102.5 Z"/></g>
<g><path style="opacity:1" fill="#e7974a" d="M 60.5,104.5 C 61.1667,105.833 61.8333,107.167 62.5,108.5C 62.5,108.833 62.5,109.167 62.5,109.5C 61.8826,109.611 61.3826,109.944 61,110.5C 60.2432,108.685 59.4098,107.019 58.5,105.5C 58.3668,102.075 59.0335,101.742 60.5,104.5 Z"/></g>
<g><path style="opacity:1" fill="#d99e45" d="M 46.5,96.5 C 46.5,104.167 46.5,111.833 46.5,119.5C 44.8333,119.5 43.1667,119.5 41.5,119.5C 41.1667,118.833 40.8333,118.167 40.5,117.5C 42.1172,118.038 43.7839,118.371 45.5,118.5C 45.8016,115.941 45.4682,113.607 44.5,111.5C 44.5,110.167 44.5,108.833 44.5,107.5C 45.1667,103.833 45.8333,100.167 46.5,96.5 Z"/></g>
<g><path style="opacity:1" fill="#902d17" d="M 57.5,105.5 C 57.8333,105.5 58.1667,105.5 58.5,105.5C 59.4098,107.019 60.2432,108.685 61,110.5C 61.3826,109.944 61.8826,109.611 62.5,109.5C 62.5,110.5 62.5,111.5 62.5,112.5C 65.766,112.567 67.266,110.901 67,107.5C 67.6708,106.748 68.5041,106.414 69.5,106.5C 69.2627,107.791 69.596,108.791 70.5,109.5C 70.4431,110.609 70.1098,111.609 69.5,112.5C 68.0937,112.973 67.427,113.973 67.5,115.5C 66.7784,115.082 66.2784,114.416 66,113.5C 64.5098,114.728 63.0098,114.728 61.5,113.5C 59.1525,111.473 57.8192,108.806 57.5,105.5 Z"/></g>
<g><path style="opacity:1" fill="#a1120e" d="M 40.5,100.5 C 41.1174,100.611 41.6174,100.944 42,101.5C 42.2695,104.224 42.7695,106.891 43.5,109.5C 43.1373,110.183 42.8039,110.85 42.5,111.5C 41.7095,112.401 40.7095,113.068 39.5,113.5C 38.5269,111.052 38.1936,108.385 38.5,105.5C 39.1667,103.833 39.8333,102.167 40.5,100.5 Z"/></g>
<g><path style="opacity:1" fill="#fdfcfa" d="M 93.5,111.5 C 94.3094,112.469 95.3094,113.302 96.5,114C 95.2264,114.977 95.2264,115.811 96.5,116.5C 97.0892,119.785 98.2559,120.118 100,117.5C 100.49,118.793 100.657,120.127 100.5,121.5C 98.0504,121.702 95.717,121.369 93.5,120.5C 93.5,117.5 93.5,114.5 93.5,111.5 Z"/></g>
<g><path style="opacity:1" fill="#f79914" d="M 42.5,111.5 C 43.1667,111.5 43.8333,111.5 44.5,111.5C 45.4682,113.607 45.8016,115.941 45.5,118.5C 43.7839,118.371 42.1172,118.038 40.5,117.5C 39.5655,116.432 39.2322,115.099 39.5,113.5C 40.7095,113.068 41.7095,112.401 42.5,111.5 Z"/></g>
<g><path style="opacity:1" fill="#b80a09" d="M 57.5,103.5 C 57.5,104.167 57.5,104.833 57.5,105.5C 57.8192,108.806 59.1525,111.473 61.5,113.5C 62.2653,116.096 62.5987,118.763 62.5,121.5C 59.5,121.5 56.5,121.5 53.5,121.5C 53.5,120.5 53.5,119.5 53.5,118.5C 53.3505,117.448 53.5172,116.448 54,115.5C 54.9234,116.759 55.7568,118.092 56.5,119.5C 56.8333,119.167 57.1667,118.833 57.5,118.5C 56.3858,115.095 55.7191,111.595 55.5,108C 55.5687,106.014 56.2353,104.514 57.5,103.5 Z"/></g>
<g><path style="opacity:1" fill="#140000" d="M 69.5,112.5 C 69.573,114.027 68.9063,115.027 67.5,115.5C 67.427,113.973 68.0937,112.973 69.5,112.5 Z"/></g>
<g><path style="opacity:1" fill="#b70a09" d="M 106.5,111.5 C 107.054,114.458 108.387,117.125 110.5,119.5C 112.55,118.923 113.55,117.59 113.5,115.5C 114.833,115.5 115.5,114.833 115.5,113.5C 116.458,113.047 117.292,112.381 118,111.5C 118.399,111.728 118.565,112.062 118.5,112.5C 118.784,114.415 118.451,116.081 117.5,117.5C 116.566,118.568 116.232,119.901 116.5,121.5C 111.833,121.5 107.167,121.5 102.5,121.5C 101.572,117.035 102.906,113.702 106.5,111.5 Z"/></g>
<g><path style="opacity:1" fill="#fefffe" d="M 93.5,120.5 C 93.44,121.043 93.1067,121.376 92.5,121.5C 91.3526,119.235 91.1859,116.902 92,114.5C 92.1909,116.708 92.6909,118.708 93.5,120.5 Z"/></g>
<g><path style="opacity:1" fill="#811f1a" d="M 113.5,115.5 C 113.55,117.59 112.55,118.923 110.5,119.5C 108.387,117.125 107.054,114.458 106.5,111.5C 107.424,108.553 107.424,105.553 106.5,102.5C 107.29,101.391 107.79,100.058 108,98.5C 108.219,99.938 108.719,101.271 109.5,102.5C 110.192,101.975 110.692,101.308 111,100.5C 111.957,104.099 111.457,107.432 109.5,110.5C 110.325,111.386 111.325,111.719 112.5,111.5C 112.335,107.818 112.501,104.152 113,100.5C 113.29,105.715 113.457,110.715 113.5,115.5 Z"/></g>
<g><path style="opacity:1" fill="#300705" d="M 92.5,102.5 C 92.3505,103.552 92.5172,104.552 93,105.5C 93.3333,105.167 93.6667,104.833 94,104.5C 94.2784,105.416 94.7784,106.082 95.5,106.5C 95.8726,109.574 96.5392,112.574 97.5,115.5C 98.8333,115.5 100.167,115.5 101.5,115.5C 101.5,113.833 101.5,112.167 101.5,110.5C 102.925,112.031 103.591,111.698 103.5,109.5C 104.651,107.221 105.651,104.888 106.5,102.5C 107.424,105.553 107.424,108.553 106.5,111.5C 102.906,113.702 101.572,117.035 102.5,121.5C 101.549,120.081 101.216,118.415 101.5,116.5C 99.8333,116.5 98.1667,116.5 96.5,116.5C 95.2264,115.811 95.2264,114.977 96.5,114C 95.3094,113.302 94.3094,112.469 93.5,111.5C 93.4142,110.504 93.7476,109.671 94.5,109C 91.7082,107.313 91.0415,105.147 92.5,102.5 Z"/></g>
<g><path style="opacity:1" fill="#db9959" d="M 103.5,109.5 C 103.591,111.698 102.925,112.031 101.5,110.5C 101.5,110.167 101.5,109.833 101.5,109.5C 101.938,108.494 102.604,108.494 103.5,109.5 Z"/></g>
<g><path style="opacity:1" fill="#b70b07" d="M 99.5,102.5 C 99.1706,105.228 99.8372,107.562 101.5,109.5C 101.5,109.833 101.5,110.167 101.5,110.5C 101.5,112.167 101.5,113.833 101.5,115.5C 100.167,115.5 98.8333,115.5 97.5,115.5C 96.5392,112.574 95.8726,109.574 95.5,106.5C 96.8333,105.167 98.1667,103.833 99.5,102.5 Z"/></g>
<g><path style="opacity:1" fill="#170003" d="M 38.5,105.5 C 38.1936,108.385 38.5269,111.052 39.5,113.5C 39.2322,115.099 39.5655,116.432 40.5,117.5C 40.8333,118.167 41.1667,118.833 41.5,119.5C 40.391,119.443 39.391,119.11 38.5,118.5C 37.2641,114.035 37.2641,109.701 38.5,105.5 Z"/></g>
<g><path style="opacity:1" fill="#fefefe" d="M 3.5,123.5 C 29.5,123.5 55.5,123.5 81.5,123.5C 81.6666,136.504 81.4999,149.504 81,162.5C 76.2303,159.741 71.3969,157.075 66.5,154.5C 64.7745,156.228 63.4411,158.228 62.5,160.5C 68.1457,164.326 74.1457,167.66 80.5,170.5C 81.4987,181.146 81.832,191.813 81.5,202.5C 53.9369,202.635 32.4369,191.302 17,168.5C 8.3289,154.829 3.8289,139.829 3.5,123.5 Z"/></g>
<g><path style="opacity:1" fill="#000000" d="M 52.5,127.5 C 59.8321,130.367 66.4988,134.2 72.5,139C 66.3744,150.756 59.8744,162.256 53,173.5C 46.2729,170.22 39.7729,166.554 33.5,162.5C 39.5625,150.71 45.8958,139.043 52.5,127.5 Z"/></g>
<g><path style="opacity:1" fill="#fefefe" d="M 101.5,157.5 C 98.9682,151.775 96.1348,146.108 93,140.5C 92.3333,139.5 92.3333,138.5 93,137.5C 99.0935,133.747 105.427,130.414 112,127.5C 119.009,138.848 125.509,150.514 131.5,162.5C 125.227,166.554 118.727,170.22 112,173.5C 108.404,168.175 104.904,162.842 101.5,157.5 Z"/></g>
<g><path style="opacity:1" fill="#fefefe" d="M -0.5,128.5 C 5.20669,171.535 29.2067,197.535 71.5,206.5C 47.5,206.5 23.5,206.5 -0.5,206.5C -0.5,180.5 -0.5,154.5 -0.5,128.5 Z"/></g>
<g><path style="opacity:1" fill="#fefefe" d="M 165.5,132.5 C 165.5,157.167 165.5,181.833 165.5,206.5C 142.167,206.5 118.833,206.5 95.5,206.5C 103.986,204.453 112.32,201.619 120.5,198C 146.018,183.328 161.018,161.495 165.5,132.5 Z"/></g>
<g><path style="opacity:1" fill="#000000" d="M 36.5,140.5 C 38.7505,140.181 40.7505,140.681 42.5,142C 41.2062,144.087 40.0395,146.254 39,148.5C 35.5537,146.616 34.7204,143.949 36.5,140.5 Z"/></g>
<g><path style="opacity:1" fill="#fefefe" d="M 122.5,140.5 C 130.012,140.545 131.178,143.211 126,148.5C 124.546,145.929 123.38,143.262 122.5,140.5 Z"/></g>
<g><path style="opacity:1" fill="#fefefe" d="M 101.5,157.5 C 101.714,159.144 101.38,160.644 100.5,162C 97.6667,163.5 94.8333,165 92,166.5C 89.2583,165.43 86.7583,163.93 84.5,162C 89.2117,159.595 93.8784,157.095 98.5,154.5C 99.2876,155.77 100.288,156.77 101.5,157.5 Z"/></g>
<g><path style="opacity:1" fill="#fefefe" d="M 82.5,163.5 C 91.8221,168.481 101.155,173.481 110.5,178.5C 114.586,181.675 114.253,184.342 109.5,186.5C 100.99,181.745 92.3238,177.245 83.5,173C 82.5495,169.943 82.2161,166.777 82.5,163.5 Z"/></g>
<g><path style="opacity:1" fill="#000000" d="M 72.5,168.5 C 75.3013,169.735 77.9679,171.235 80.5,173C 72.4683,177.348 64.4683,181.681 56.5,186C 50.6536,185.104 49.9869,182.437 54.5,178C 60.7196,175.059 66.7196,171.892 72.5,168.5 Z"/></g>
</svg>
