<svg height="656.832" width="500" xmlns="http://www.w3.org/2000/svg"><clipPath id="a"><path d="M0 0h595.276v841.89H0z"/></clipPath><clipPath id="b"><path d="M284.449 76.28V53.019l-.025-.021c.584-6.644 6.436-11.835 13.232-11.835 6.796 0 12.615 5.191 13.199 11.835l.008.021V76.28z"/></clipPath><clipPath id="c"><path d="M0 0h595.276v841.89H0z"/></clipPath><clipPath id="d"><path d="M0 0h595.276v841.89H0z"/></clipPath><g clip-path="url(#a)" transform="matrix(1.33333 0 0 -1.33333 -373.846 706.344)"><path d="M288.429 522.542h359.417V206.016l-.095-.285c-7.947-90.423-87.13-161.046-179.607-161.046-92.49 0-172.109 70.623-180.055 161.046l.34.285z" fill="#f5c801"/></g><g clip-path="url(#b)" transform="matrix(18.14344 0 0 -18.14344 -5150.173 1393.614)"><path d="M283.248 58.469h14.416V40.01h-14.416z" fill="#057843"/><path d="M284.482 58.522h3.35s.64-.21.986-.755c0 0 .433-.66.566-1.029 0 0 .3-1.829 2.057-2.469 0 0 1.418-.323 1.992-2.036 0 0 .279-1.866 2.123-2.41 0 0 1.57-.389 2.1-2.014v-4.6s-2.335.595-2.643 2.366c0 0-.588 1.992-1.992 2.322 0 0-1.822.331-1.756 1.97 0 0-.17 1.418-1.683 1.925 0 0-1.97.662-2.234 2.411 0 0-.588 2.138-2.866 2.624z" fill="#fff" stroke="#000" stroke-width=".276"/><path d="M291.661 58.522s-.059.663-.786 1.435c0 0-.5-.874-.875-.94 0 0 .037 2.99-.529 2.932 0 0-.845-.353-.522-.853 0 0 .67-.786.368-1.66 0 0-.434.272-.566.352 0 0-.199-.257-.463.022l-.287.235s-.323.412-.41-.176c0 0 .043-.588-.11-.72l-.222-.022s-.22-.19-.176-.412c0 0-.368.037-.412.346l-.066.441-.353.308s-.698-.286-.676-.507c0 0-.272.948.346 1.382l.286.213s-.455.507-.544.53c0 0 .28.705 1.463.352 0 0 .118-.367.485.066l1.64 1.97s.072.257-.259.323c0 0-.867.53-.97.551l.463.11s-.05 1.198-.485 1.463c0 0-.257-.544-.41-.566 0 0-.266-.066-.31.022 0 0-.3-.397-.786-.419 0 0-.566.221-.632.441 0 0 .566.28.433.764l.111.155s.397.176.154.33l-.617.045s-.213.007-.213.132c0 0-.419.132-.596-.199 0 0-.419.706.133 1.206l.396.102s.037.265.368.243l.154.132s-.257.397-.786.221c0 0 .22.536 1.007.455 0 0 .235.485.565.485 0 0 .963-.168 1.14-.852l.022-.919s1.161-.962 1.558-2.256l.396.588s-.72.287-.33 1.161c0 0 .25.088.33-.088 0 0 .111-.419.721-.088l.565.375s.478.485-.066.33l-.874.09s.5.851 1.03.785l1.116.066s.286.015.463.323c0 0-.243-.102-.44-.124l-.435.19s-.529.074-.705-.168c0 0-.838-.434-1.294.044 0 0-.433.698-.654.764l.265.154.135.198s-1.208-.073-1.385-.029c0 0-1.793.287-1.704 1.272 0 0 .198.984.786 1.117 0 0-.103-1.44 1.25-1.485l1.074-.157-.09.304s-.55.603-.595 1.014c0 0-.654.867.176 1.154 0 0 .22.088.507-.455 0 0 2.072.176 2.315.044 0 0 .096.455.882.455 0 0-.03 1.434-.904 1.933 0 0 1.587-.36 1.977-.97 0 0 .044.56-.22.838 0 0 1.513-.316 2.277-1.845l.09-1.029s.498-.022.608-.698c0 0-.066-1.257.09-1.448 0 0 .138-.543.351-.654l.081-.154s-.147-.33-.477-.287c0 0-.162-.874.455-1.506 0 0-.478-.155-.654-.088 0 0-.044-2.154.154-2.455 0 0-.786-.015-1.095.463 0 0-.352-.852.81-2.124 0 0-.604-.154-1.397.088 0 0-.155-1.55 1.616-2.079 0 0-.242-.508-1.205-.53 0 0 .008-.962 1.558-1.727l.41-.11v-.715z"/><path d="M301.046 76.443h3.258V39.606h-3.258z" fill="#d50b2b"/><path d="M297.788 76.443h3.258V39.606h-3.258z" fill="#fff" stroke="#000" stroke-width=".276"/><path d="M307.562 76.443h3.258V39.606h-3.258z" fill="#d50b2b"/><path d="M304.304 76.443h3.258V39.606h-3.258z" fill="#fff" stroke="#000" stroke-width=".276"/></g><g clip-path="url(#c)" transform="matrix(18.14344 0 0 -18.14344 -5150.173 1393.614)"><path d="M291.92 58.71s-.5 1.426-.977 1.447c0 0-.63-.646-.79-.688 0 0 .237 2.09-.21 2.403 0 0 1.117.024 1.387.138 0 0 .633.052.58.446 0 0-.093.965.668 1.528 0 0 .055.37-.26.18 0 0-.72-1.158-.72-1.5 0 0 .077-.384-.341-.332 0 0-1.531-.114-1.801-.073 0 0-.584-.179-.73-.574 0 0-.334-.432-.01-.736l.229-.242s.145-.166-.125-.342l-.238-.26s-.146-.186-.332.011c0 0-.294.633-.667.311 0 0-.166-.215-.187-.529l.062-.273s-.09-.176-.332-.03l-.262.051s-.218.096-.156.273c0 0 .156.394-.083.29 0 0-.207-.29-.342-.02l-.135.196s-.177.125 0 .24c0 0 .207.165.29.207 0 0 .094.117 0 .221 0 0-.28.103-.124.28l.259.25s.132.237.28.113c0 0 .529-.46.927.01 0 0 3.049 3.848 4.058 4.287 0 0 .166.325-.187.242 0 0-.978-.605-1.092-.782l.207.53s-.124.145-.27-.02l-.228-.52s-.117-.5-.438-.76c0 0-.54-.58-1.134-.032 0 0 .563.094 1.676 1.573l.228.218s-.77-.055-.677.664l.062.107s.28-.504.802-.242l1.02.854s.32.45-.093.574c0 0-.574.072-.74-.042 0 0 .155.467.926.415h.823s.356.08.594.426l.675.822s-.073.353-.26.083c0 0-.46-.55-.926-.539 0 0-.505 0-.581.062 0 0-.2.052-.314.052 0 0-.31-.059-.623-.27 0 0-.304-.114-.501-.104 0 0-.605.135-.72.561 0 0 .427-.063.793-.052 0 0 .656 0 .926.25 0 0 .394.552.353.728 0 0-.163.71-.944.854 0 0-.747.135-.99.104 0 0-.334.01-.458.166l-.177.415s.405.21.384.46l.01.113s.552.006 1.119.044c0 0 .856-.064.983-.085 0 0 .377.041.47.155 0 0 .153.343.592.384 0 0 .677.031.78 0 0 0 .377-.04.502-.072 0 0 .2 1.24.03 1.604 0 0 .924-.169 1.58-1.449 0 0 .063-.968.032-1.196 0 0 .615-.04.625-.436l.032-1.206s-.011-.49.197-.522c0 0 .01-.322.176-.353 0 0-.145-.3-.332-.238 0 0-.072-.709.03-.948 0 0 .053-.366.209-.48 0 0-.308-.072-.488.011 0 0-.135-2.06.052-2.497 0 0-.688.201-.73.522 0 0-.28.174-.342-.127 0 0-.335-.75.58-2.185 0 0-.5-.122-.76.221 0 0-.29.08-.321-.149v-.653s.498-1.469 1.383-1.739c0 0-.536-.27-.975-.124 0 0-.128-1.622 1.985-2.403l.284-.083v-.377h-5.674z" fill="#d50b2b"/><path d="M291.92 72.008s.167.145.208.228l.097.062s-.021-.28.135-.3c-.232-.032-.44.01-.44.01M292.723 72.371s.166-.31-.156-.394c0 0 .488-.02.58-.01-.03.207-.424.404-.424.404" fill="#ffce32"/><path d="M287.572 69.346s-.408.345-.781.073c0 0 .408-.128.439-.21 0 0 .093-.115.269-.053.249 0 .073.19.073.19M286.697 68.98c-.042.124-.132.384-.757.083 0 0 .27-.031.342-.145 0 0 .052-.177.26-.073.207.042.155.135.155.135M285.74 68.095s-.581-.049-.581-.747c0 0 .215.073.498.073 0 0 .083 0 .093.093l.02.415c.043.135-.03.166-.03.166M286.645 66.183s-.204-.501-.508-.47c0 0 .542-.449.957.062 0 0 .065.104-.104.229l-.158.103c-.042.159-.187.076-.187.076" fill="#fff"/><path d="M287.468 72.423s-.78-.59-.109-1.362c0 0 .066-.46 1.905-.427 0 0 .887.065 1.084.033 0 0-.263.23-1.38.361 0 0-1.182.23-1.28.624-.198.098-.22.771-.22.771M289.331 73.298s-.125-.052-.114-.29c0 0-.01-.343.321-.405 0 0 .208.124.156.363 0 .384-.363.332-.363.332M288.695 64.89s.042.861-.259 1.238c0 0-.315.563-.49.584 0 0-.177.031-.167-.114 0 0-.114-.522-.176-.584 0 0-.229-.159-.322 0 0 0-.2.262-.356.345 0 0-.49.083-.207.24 0 0 .252.28.356.331 0 0 .137.304-.01.46 0 0-.139.02-.19-.084 0 0-.322-.197-.592-.062 0 0-.28.031-.249.207l-.052.53s-.083.311.125.238c0 0 .311-.104.394-.187 0 0 .187-.145.301-.083 0 0 .02.221-.114.315 0 0-.447.218-.166.332 0 0 .311.093.321.145 0 0 .024.207.16.114 0 0 .29-.142.341-.498 0 0 .177-.29.26-.062 0 0 .02.218-.115.467 0 0-.05.218.042.238 0 0 .153.291.322.052 0 0 .114-.387.051-1.04 0 0-.038-.239.294-.436 0 0 .895-.719 1.217-1.677 0 0 .135-.155.073-.29-.083-.249-.792-.719-.792-.719" fill="#d50b2b"/><path d="M291.454 71.904s.55.454.59.53c0 0 .212.272.419.262 0 0 .239.066.53-.197 0 0 .625-.687.76-.73-1.487-.123-2.3.136-2.3.136"/><g fill="#fff"><path d="M285.971 60.344s-.366-.159-.314-.615c0 0 .231.252.46.221.176.135-.146.394-.146.394M286.843 59.5s-.096-.286.062-.507c0 0 .19.259.315.269-.073.353-.377.239-.377.239M288.83 60.012s.345-.169.377-.314c0 0 .124.304 0 .542-.253.104-.377-.228-.377-.228M286.355 61.655c-.042.03-.387.03-.522-.135 0 0 .273-.021.335-.104.187-.093.229.208.187.239M291.92 72.008s.167.145.208.228l.097.062s-.021-.28.135-.3c-.232-.032-.44.01-.44.01M292.723 72.371s.166-.31-.156-.394c0 0 .488-.02.58-.01-.03.207-.424.404-.424.404"/></g><path d="M292.92 75.143s.446-.824.409-1.448c0 0 .725.012.888-.113 0 0 .037.661-.038.812-.737.73-1.259.75-1.259.75" fill="#da121a"/><path d="m290.02 71.077.18.361.246-.394.148.28.164-.247.197.23.115-.214.164.148.066-.148.148.115s.304.001.344-.443c.033-.36-.312-.608-.377-.624-.066-.016-.214.016-.214.016l-.082-.082-.148.214-.164-.164-.164.312s.821-.132.837 0c.017.131.017.51-.312.492-.328-.016-1.149.148-1.149.148" fill="#fcdd09"/></g><path d="m111.781 116.842 2.377 3.265 1.198-3.265zM118.035 116.237l1.778 4.173 2.686-4.753z" fill="#fcdd09"/><g fill="none" stroke="#000"><g clip-path="url(#d)" stroke-miterlimit="3.864" transform="matrix(18.14344 0 0 -18.14344 -5150.173 1393.614)"><path d="M292.309 71.417s.514-.786-.054-1.311" stroke-width=".231"/><path d="M284.49 76.18h26.296V52.93c-.577-6.565-6.353-11.69-13.148-11.69-6.794 0-12.57 5.123-13.148 11.662V76.18z" stroke-width=".711"/></g><path d="M250.002 9.452v637.144M5.963 333.311h245.01" stroke-width="8.636277439999999"/></g></svg>