<?xml version="1.0" encoding="UTF-8"?>
<!DOCTYPE svg PUBLIC "-//W3C//DTD SVG 1.1//EN" "http://www.w3.org/Graphics/SVG/1.1/DTD/svg11.dtd">
<svg xmlns="http://www.w3.org/2000/svg" version="1.1" width="166px" height="207px" style="shape-rendering:geometricPrecision; text-rendering:geometricPrecision; image-rendering:optimizeQuality; fill-rule:evenodd; clip-rule:evenodd" xmlns:xlink="http://www.w3.org/1999/xlink">
<g><path style="opacity:1" fill="#000000" d="M -0.5,-0.5 C 54.8333,-0.5 110.167,-0.5 165.5,-0.5C 165.5,43.5 165.5,87.5 165.5,131.5C 158.011,171.321 134.678,196.321 95.5,206.5C 86.8333,206.5 78.1667,206.5 69.5,206.5C 29.4115,196.078 6.07817,170.411 -0.5,129.5C -0.5,86.1667 -0.5,42.8333 -0.5,-0.5 Z"/></g>
<g><path style="opacity:1" fill="#0c2951" d="M 79.5,139.5 C 79.3893,138.883 79.056,138.383 78.5,138C 76.6874,138.046 75.0207,137.88 73.5,137.5C 75.429,134.323 76.7623,130.989 77.5,127.5C 76.123,122.622 75.2896,117.622 75,112.5C 74,113.5 73,114.5 72,115.5C 71.4274,119.686 71.594,123.853 72.5,128C 72.6906,129.973 72.024,131.473 70.5,132.5C 66.1208,126.253 64.2874,119.253 65,111.5C 64.3076,110.975 63.8076,110.308 63.5,109.5C 69.7508,109.083 73.2508,105.75 74,99.5C 74.613,92.744 74.113,86.0773 72.5,79.5C 78.0574,76.8143 79.8907,72.481 78,66.5C 77.2255,62.853 76.5588,59.1864 76,55.5C 72.95,59.7978 72.7833,64.2978 75.5,69C 75.056,72.1182 73.3893,73.9515 70.5,74.5C 69.6615,70.1448 68.6615,65.8115 67.5,61.5C 68.5346,55.6289 71.7013,51.2955 77,48.5C 77.6667,47.1667 77.6667,45.8333 77,44.5C 75.406,45.7159 73.906,47.0493 72.5,48.5C 72.1667,48 71.8333,47.5 71.5,47C 78.4437,38.0699 79.277,28.5699 74,18.5C 74.4758,23.1168 74.4758,27.7834 74,32.5C 72.2404,39.3557 69.9071,46.0223 67,52.5C 64.4933,62.9913 65.8266,72.9913 71,82.5C 71.6667,84.5 71.6667,86.5 71,88.5C 70.4389,86.2746 69.4389,84.2746 68,82.5C 62.7775,80.977 60.4442,77.6437 61,72.5C 62.2097,69.8009 61.5431,69.8009 59,72.5C 56.3401,77.8815 57.5068,82.2148 62.5,85.5C 59.3961,89.8784 60.0628,93.5451 64.5,96.5C 64.8333,96.3333 65.1667,96.1667 65.5,96C 62.6034,91.7573 63.6034,89.9239 68.5,90.5C 72.384,95.2272 72.384,100.061 68.5,105C 66.4213,105.808 64.4213,105.641 62.5,104.5C 54.4922,92.8052 50.4922,79.8052 50.5,65.5C 53.6412,67.2862 56.3079,66.7862 58.5,64C 53.2989,62.1147 52.1323,58.6147 55,53.5C 57.4096,56.7162 60.2429,57.2162 63.5,55C 62.5838,54.6258 61.7504,54.1258 61,53.5C 60.1764,50.1177 60.343,46.7844 61.5,43.5C 63.198,44.6808 64.8647,44.6808 66.5,43.5C 65.3887,42.3887 64.722,41.0554 64.5,39.5C 65.5148,35.8689 65.6814,32.2022 65,28.5C 63.6012,27.7734 62.1012,27.2734 60.5,27C 73.9463,23.6805 73.613,21.5139 59.5,20.5C 60.5114,16.8878 60.6781,13.2211 60,9.5C 59.1278,13.1807 57.2945,16.1807 54.5,18.5C 52.0122,16.6122 49.0122,15.9455 45.5,16.5C 46.3984,15.8423 47.3984,15.1757 48.5,14.5C 47.9851,12.7749 47.3184,11.1083 46.5,9.5C 44.0162,11.5357 43.0162,14.2023 43.5,17.5C 41.2335,19.7626 38.5668,20.0959 35.5,18.5C 34.2613,18.9424 33.2613,19.6091 32.5,20.5C 32.5,21.5 32.5,22.5 32.5,23.5C 32.5,23.8333 32.5,24.1667 32.5,24.5C 28.0757,21.8778 27.4091,18.3778 30.5,14C 25.6564,15.1445 24.323,18.1445 26.5,23C 24.8876,23.7203 23.3876,23.5536 22,22.5C 21.0053,23.0659 20.172,23.7326 19.5,24.5C 18.1152,21.1485 18.4485,17.8151 20.5,14.5C 20.0431,13.7025 19.3764,13.3691 18.5,13.5C 18.1667,12.1667 17.8333,10.8333 17.5,9.5C 17.6309,8.62356 17.2975,7.95689 16.5,7.5C 15.3854,11.2629 14.3854,14.9296 13.5,18.5C 13.2287,16.6883 12.562,15.0217 11.5,13.5C 10.2813,14.6461 8.94793,15.6461 7.5,16.5C 9.35812,18.5241 11.0248,20.6908 12.5,23C 11.1011,23.5946 9.76779,23.4279 8.5,22.5C 7.70245,22.9569 7.36912,23.6236 7.5,24.5C 6.83333,24.1667 6.16667,23.8333 5.5,23.5C 3.54112,17.2504 2.87445,10.5837 3.5,3.5C 29.1667,3.5 54.8333,3.5 80.5,3.5C 80.8321,49.0031 80.4988,94.3364 79.5,139.5 Z"/></g>
<g><path style="opacity:1" fill="#cb0000" d="M 84.5,3.5 C 110.167,3.5 135.833,3.5 161.5,3.5C 161.5,22.1667 161.5,40.8333 161.5,59.5C 135.833,59.5 110.167,59.5 84.5,59.5C 84.5,40.8333 84.5,22.1667 84.5,3.5 Z"/></g>
<g><path style="opacity:1" fill="#000000" d="M 17.5,9.5 C 16.5655,10.5676 16.2322,11.901 16.5,13.5C 15.6862,15.631 15.1862,17.9644 15,20.5C 14.2828,19.9558 13.7828,19.2891 13.5,18.5C 14.3854,14.9296 15.3854,11.2629 16.5,7.5C 17.2975,7.95689 17.6309,8.62356 17.5,9.5 Z"/></g>
<g><path style="opacity:1" fill="#b00d03" d="M 17.5,9.5 C 17.8333,10.8333 18.1667,12.1667 18.5,13.5C 18.0623,14.5063 17.3957,14.5063 16.5,13.5C 16.2322,11.901 16.5655,10.5676 17.5,9.5 Z"/></g>
<g><path style="opacity:1" fill="#c30401" d="M 45.5,16.5 C 45.5,17.1667 45.1667,17.5 44.5,17.5C 44.1667,17.5 43.8333,17.5 43.5,17.5C 43.0162,14.2023 44.0162,11.5357 46.5,9.5C 47.3184,11.1083 47.9851,12.7749 48.5,14.5C 47.3984,15.1757 46.3984,15.8423 45.5,16.5 Z"/></g>
<g><path style="opacity:1" fill="#b30d03" d="M 59.5,20.5 C 58.0813,21.4511 56.4147,21.7845 54.5,21.5C 54.5,20.5 54.5,19.5 54.5,18.5C 57.2945,16.1807 59.1278,13.1807 60,9.5C 60.6781,13.2211 60.5114,16.8878 59.5,20.5 Z"/></g>
<g><path style="opacity:1" fill="#cb0000" d="M 7.5,11.5 C 9.22516,11.8425 9.72516,12.8425 9,14.5C 7.96141,13.7562 7.46141,12.7562 7.5,11.5 Z"/></g>
<g><path style="opacity:1" fill="#fdfdfd" d="M 13.5,18.5 C 13.7828,19.2891 14.2828,19.9558 15,20.5C 15.1862,17.9644 15.6862,15.631 16.5,13.5C 17.3957,14.5063 18.0623,14.5063 18.5,13.5C 19.3764,13.3691 20.0431,13.7025 20.5,14.5C 18.4485,17.8151 18.1152,21.1485 19.5,24.5C 19.5,24.8333 19.5,25.1667 19.5,25.5C 20.3668,28.9083 21.5335,32.2416 23,35.5C 26.3943,39.8981 29.3943,44.5648 32,49.5C 37.6193,47.2748 42.9526,44.6082 48,41.5C 48.4828,40.552 48.6495,39.552 48.5,38.5C 51.2282,38.8294 53.5615,38.1628 55.5,36.5C 51.0267,36.3269 46.86,37.3269 43,39.5C 39.8008,38.3317 36.6341,37.1651 33.5,36C 34.6934,34.9054 36.0267,34.072 37.5,33.5C 37.6107,34.1174 37.944,34.6174 38.5,35C 41.6965,35.8045 44.6965,35.6378 47.5,34.5C 49.914,33.2233 50.0807,31.5566 48,29.5C 47.3292,28.7476 46.4959,28.4142 45.5,28.5C 45.1667,28.5 44.8333,28.5 44.5,28.5C 44.1583,27.6618 43.4916,27.3284 42.5,27.5C 39.2074,26.1654 35.8741,24.832 32.5,23.5C 32.5,22.5 32.5,21.5 32.5,20.5C 33.7348,20.7214 34.7348,21.3881 35.5,22.5C 36.9494,21.383 38.6161,20.7163 40.5,20.5C 43.2469,21.2194 45.9135,21.2194 48.5,20.5C 49.1723,21.9846 48.5056,23.1513 46.5,24C 49.5863,24.3933 52.2529,23.5599 54.5,21.5C 56.4147,21.7845 58.0813,21.4511 59.5,20.5C 73.613,21.5139 73.9463,23.6805 60.5,27C 62.1012,27.2734 63.6012,27.7734 65,28.5C 65.6814,32.2022 65.5148,35.8689 64.5,39.5C 64.722,41.0554 65.3887,42.3887 66.5,43.5C 64.8647,44.6808 63.198,44.6808 61.5,43.5C 60.343,46.7844 60.1764,50.1177 61,53.5C 61.7504,54.1258 62.5838,54.6258 63.5,55C 60.2429,57.2162 57.4096,56.7162 55,53.5C 52.1323,58.6147 53.2989,62.1147 58.5,64C 56.3079,66.7862 53.6412,67.2862 50.5,65.5C 50.4922,79.8052 54.4922,92.8052 62.5,104.5C 64.4213,105.641 66.4213,105.808 68.5,105C 72.384,100.061 72.384,95.2272 68.5,90.5C 63.6034,89.9239 62.6034,91.7573 65.5,96C 65.1667,96.1667 64.8333,96.3333 64.5,96.5C 60.0628,93.5451 59.3961,89.8784 62.5,85.5C 57.5068,82.2148 56.3401,77.8815 59,72.5C 61.5431,69.8009 62.2097,69.8009 61,72.5C 60.4442,77.6437 62.7775,80.977 68,82.5C 69.4389,84.2746 70.4389,86.2746 71,88.5C 71.6667,86.5 71.6667,84.5 71,82.5C 65.8266,72.9913 64.4933,62.9913 67,52.5C 69.9071,46.0223 72.2404,39.3557 74,32.5C 74.4758,27.7834 74.4758,23.1168 74,18.5C 79.277,28.5699 78.4437,38.0699 71.5,47C 71.8333,47.5 72.1667,48 72.5,48.5C 73.906,47.0493 75.406,45.7159 77,44.5C 77.6667,45.8333 77.6667,47.1667 77,48.5C 71.7013,51.2955 68.5346,55.6289 67.5,61.5C 68.6615,65.8115 69.6615,70.1448 70.5,74.5C 73.3893,73.9515 75.056,72.1182 75.5,69C 72.7833,64.2978 72.95,59.7978 76,55.5C 76.5588,59.1864 77.2255,62.853 78,66.5C 79.8907,72.481 78.0574,76.8143 72.5,79.5C 74.113,86.0773 74.613,92.744 74,99.5C 73.2508,105.75 69.7508,109.083 63.5,109.5C 63.8076,110.308 64.3076,110.975 65,111.5C 64.2874,119.253 66.1208,126.253 70.5,132.5C 72.024,131.473 72.6906,129.973 72.5,128C 71.594,123.853 71.4274,119.686 72,115.5C 73,114.5 74,113.5 75,112.5C 75.2896,117.622 76.123,122.622 77.5,127.5C 76.7623,130.989 75.429,134.323 73.5,137.5C 75.0207,137.88 76.6874,138.046 78.5,138C 79.056,138.383 79.3893,138.883 79.5,139.5C 79.6716,140.492 79.3382,141.158 78.5,141.5C 77.9217,139.557 76.9217,139.223 75.5,140.5C 74.7696,142.341 74.1029,144.175 73.5,146C 74.7839,146.684 75.9505,146.517 77,145.5C 78.045,146.373 78.8783,147.373 79.5,148.5C 78.5084,148.328 77.8417,148.662 77.5,149.5C 75.5891,149.574 74.4224,150.574 74,152.5C 73.2088,161.461 71.7088,170.294 69.5,179C 69.9054,179.945 70.572,180.612 71.5,181C 73.1667,181.333 74.8333,181.667 76.5,182C 77.3366,183.011 77.67,184.178 77.5,185.5C 76.209,185.263 75.209,185.596 74.5,186.5C 73.7784,186.918 73.2784,187.584 73,188.5C 70.879,182.358 68.379,182.358 65.5,188.5C 68.2903,190.927 68.1237,192.927 65,194.5C 63.779,193.728 62.779,192.728 62,191.5C 61.6667,191.833 61.3333,192.167 61,192.5C 60.376,190.536 60.876,188.869 62.5,187.5C 62.1667,186.5 61.5,185.833 60.5,185.5C 57.8568,186.976 55.6901,188.976 54,191.5C 52.9614,190.756 52.4614,189.756 52.5,188.5C 52.5,188.167 52.5,187.833 52.5,187.5C 51.4376,186.425 51.4376,185.425 52.5,184.5C 63.4875,183.247 63.8208,181.914 53.5,180.5C 53.4326,179.041 53.7659,177.708 54.5,176.5C 55.1174,176.389 55.6174,176.056 56,175.5C 64.186,178.999 67.3527,176.165 65.5,167C 65.3333,164.167 65.1667,161.333 65,158.5C 62.9019,154.451 61.5686,150.118 61,145.5C 58.7774,149.648 55.6107,152.481 51.5,154C 53.6404,151.385 54.6404,148.385 54.5,145C 53.8123,140.435 52.8123,135.935 51.5,131.5C 51.8135,128.391 52.8135,125.558 54.5,123C 53.0829,119.253 51.9163,115.419 51,111.5C 49.7604,114.412 48.0937,117.079 46,119.5C 45.038,123.819 45.7047,127.819 48,131.5C 48.6667,134.167 48.6667,136.833 48,139.5C 46.1847,137.595 44.1847,135.928 42,134.5C 41.6667,133.5 41.3333,132.5 41,131.5C 40.3333,134.833 40.3333,138.167 41,141.5C 42.4907,143.004 44.324,143.837 46.5,144C 44.6067,146.557 42.2734,147.057 39.5,145.5C 38.9338,155.38 35.2672,156.88 28.5,150C 26.5527,149.009 24.5527,148.675 22.5,149C 25.0168,151.09 25.0168,152.923 22.5,154.5C 21.5,153.167 20.5,153.167 19.5,154.5C 18.5028,154.53 17.8361,154.03 17.5,153C 19.0128,151.121 19.6795,148.954 19.5,146.5C 16.6711,146.325 15.0045,147.658 14.5,150.5C 13.8182,149.757 13.1515,149.091 12.5,148.5C 12.1667,148.5 11.8333,148.5 11.5,148.5C 10.4019,147.603 10.4019,146.77 11.5,146C 13.3839,145.784 15.0506,145.117 16.5,144C 13.1818,143.246 10.1818,142.08 7.5,140.5C 8.16667,140.5 8.5,140.167 8.5,139.5C 9.83333,138.833 9.83333,138.167 8.5,137.5C 9.25057,136.427 10.2506,136.26 11.5,137C 17.4863,142.005 18.4863,141.338 14.5,135C 14.5699,134.235 14.9033,133.735 15.5,133.5C 16.9794,134.148 18.4794,134.481 20,134.5C 19.8446,136.811 19.8446,139.144 20,141.5C 23.7478,144.307 27.9145,145.473 32.5,145C 34.1869,143.087 34.6869,140.92 34,138.5C 31.4721,134.874 29.8054,130.874 29,126.5C 25.0101,129.543 21.8435,128.877 19.5,124.5C 20.2485,122.668 21.2485,121.001 22.5,119.5C 21.6744,118.549 21.5078,117.549 22,116.5C 23.0803,118.553 23.9136,120.72 24.5,123C 26.1667,123.667 27.8333,123.667 29.5,123C 30.5835,119.063 32.7502,115.896 36,113.5C 36.3152,112.092 35.9819,110.759 35,109.5C 33.5778,109.406 32.0778,109.072 30.5,108.5C 28.9797,105.845 29.4797,105.178 32,106.5C 33.4728,106.097 34.8061,105.43 36,104.5C 37.1667,106.167 38.3333,107.833 39.5,109.5C 42.5539,108.653 45.5539,107.653 48.5,106.5C 44.788,101.121 40.1213,96.7873 34.5,93.5C 33.2086,92.4728 33.2086,91.4728 34.5,90.5C 29.8447,92.4935 25.178,94.4935 20.5,96.5C 19.5713,97.6888 19.238,99.0222 19.5,100.5C 21.5914,100.318 23.5914,100.652 25.5,101.5C 26.5624,102.425 26.5624,103.425 25.5,104.5C 24.8485,105.091 24.1818,105.757 23.5,106.5C 22.1912,104.024 20.3579,102.024 18,100.5C 16.3931,104.273 16.8931,107.939 19.5,111.5C 14.09,114.587 12.7567,113.421 15.5,108C 14.9221,106.189 14.4221,104.355 14,102.5C 12.4412,104.217 11.6079,106.217 11.5,108.5C 10.8423,109.398 10.1757,110.398 9.5,111.5C 7.67905,110.272 6.67905,108.606 6.5,106.5C 10.5677,106.009 12.5677,103.676 12.5,99.5C 15.284,95.7434 18.6174,92.4101 22.5,89.5C 25.668,84.508 29.0013,79.6747 32.5,75C 28.3491,74.302 26.0157,76.1354 25.5,80.5C 22.6403,78.3945 21.9736,75.7278 23.5,72.5C 20.8938,71.3483 18.2272,71.1816 15.5,72C 12.5513,76.1444 13.5513,79.1444 18.5,81C 10.4901,83.3379 6.99006,80.1713 8,71.5C 8.66667,70.1667 9.33333,68.8333 10,67.5C 13.1261,66.0921 16.2928,64.7588 19.5,63.5C 17.6879,63.574 15.6879,63.2407 13.5,62.5C 11.9736,59.2722 12.6403,56.6055 15.5,54.5C 17.4604,59.8232 21.1271,61.4898 26.5,59.5C 24.8694,57.7801 23.7028,55.7801 23,53.5C 21.2713,46.3488 19.1047,39.3488 16.5,32.5C 15.5344,34.396 15.2011,36.396 15.5,38.5C 14.2223,38.2178 13.2223,37.5511 12.5,36.5C 11.8902,35.609 11.5569,34.609 11.5,33.5C 13.3769,32.3409 13.8769,30.6742 13,28.5C 11.3333,27.1667 9.66667,27.1667 8,28.5C 7.51722,27.552 7.35055,26.552 7.5,25.5C 8.83333,25.1667 8.83333,24.8333 7.5,24.5C 7.36912,23.6236 7.70245,22.9569 8.5,22.5C 9.76779,23.4279 11.1011,23.5946 12.5,23C 11.0248,20.6908 9.35812,18.5241 7.5,16.5C 8.94793,15.6461 10.2813,14.6461 11.5,13.5C 12.562,15.0217 13.2287,16.6883 13.5,18.5 Z"/></g>
<g><path style="opacity:1" fill="#cb0000" d="M 32.5,24.5 C 33.3698,27.5149 35.0365,28.5149 37.5,27.5C 37.7856,29.9327 38.4523,29.9327 39.5,27.5C 40.1577,28.3984 40.8243,29.3984 41.5,30.5C 42.1067,30.3764 42.44,30.0431 42.5,29.5C 43.1667,29.1667 43.8333,28.8333 44.5,28.5C 44.8333,28.5 45.1667,28.5 45.5,28.5C 47.0808,30.1417 47.7475,32.1417 47.5,34.5C 45.8002,34.3739 44.3002,33.7073 43,32.5C 41.1892,32.7078 39.3558,33.0411 37.5,33.5C 35.1467,32.7392 32.6467,31.7392 30,30.5C 28.395,31.1007 27.0616,32.1007 26,33.5C 25.6258,32.5838 25.1258,31.7504 24.5,31C 27.4103,27.8026 26.9103,26.6359 23,27.5C 21.6974,27.0217 20.5307,26.355 19.5,25.5C 19.5,25.1667 19.5,24.8333 19.5,24.5C 20.172,23.7326 21.0053,23.0659 22,22.5C 23.3876,23.5536 24.8876,23.7203 26.5,23C 24.323,18.1445 25.6564,15.1445 30.5,14C 27.4091,18.3778 28.0757,21.8778 32.5,24.5 Z"/></g>
<g><path style="opacity:1" fill="#fefffe" d="M 45.5,16.5 C 49.0122,15.9455 52.0122,16.6122 54.5,18.5C 54.5,19.5 54.5,20.5 54.5,21.5C 50.797,20.5897 47.4636,19.2564 44.5,17.5C 45.1667,17.5 45.5,17.1667 45.5,16.5 Z"/></g>
<g><path style="opacity:1" fill="#080808" d="M 43.5,17.5 C 43.8333,17.5 44.1667,17.5 44.5,17.5C 47.4636,19.2564 50.797,20.5897 54.5,21.5C 52.2529,23.5599 49.5863,24.3933 46.5,24C 48.5056,23.1513 49.1723,21.9846 48.5,20.5C 45.9135,21.2194 43.2469,21.2194 40.5,20.5C 38.6161,20.7163 36.9494,21.383 35.5,22.5C 34.7348,21.3881 33.7348,20.7214 32.5,20.5C 33.2613,19.6091 34.2613,18.9424 35.5,18.5C 38.5668,20.0959 41.2335,19.7626 43.5,17.5 Z"/></g>
<g><path style="opacity:1" fill="#a71004" d="M 5.5,23.5 C 6.16667,23.8333 6.83333,24.1667 7.5,24.5C 8.83333,24.8333 8.83333,25.1667 7.5,25.5C 6.5,25.5 5.5,25.5 4.5,25.5C 4.83333,24.8333 5.16667,24.1667 5.5,23.5 Z"/></g>
<g><path style="opacity:1" fill="#2d2d2d" d="M 32.5,23.5 C 35.8741,24.832 39.2074,26.1654 42.5,27.5C 42.5,28.1667 42.5,28.8333 42.5,29.5C 42.44,30.0431 42.1067,30.3764 41.5,30.5C 40.8243,29.3984 40.1577,28.3984 39.5,27.5C 38.8333,27.5 38.1667,27.5 37.5,27.5C 35.0365,28.5149 33.3698,27.5149 32.5,24.5C 32.5,24.1667 32.5,23.8333 32.5,23.5 Z"/></g>
<g><path style="opacity:1" fill="#0a2b55" d="M 4.5,25.5 C 5.5,25.5 6.5,25.5 7.5,25.5C 7.35055,26.552 7.51722,27.552 8,28.5C 9.66667,27.1667 11.3333,27.1667 13,28.5C 13.8769,30.6742 13.3769,32.3409 11.5,33.5C 10.9712,35.491 9.63783,37.491 7.5,39.5C 7.83333,39.8333 8.16667,40.1667 8.5,40.5C 10.9823,39.9329 13.3157,39.2663 15.5,38.5C 15.2011,36.396 15.5344,34.396 16.5,32.5C 19.1047,39.3488 21.2713,46.3488 23,53.5C 23.7028,55.7801 24.8694,57.7801 26.5,59.5C 21.1271,61.4898 17.4604,59.8232 15.5,54.5C 12.6403,56.6055 11.9736,59.2722 13.5,62.5C 15.6879,63.2407 17.6879,63.574 19.5,63.5C 16.2928,64.7588 13.1261,66.0921 10,67.5C 9.33333,68.8333 8.66667,70.1667 8,71.5C 6.99006,80.1713 10.4901,83.3379 18.5,81C 13.5513,79.1444 12.5513,76.1444 15.5,72C 18.2272,71.1816 20.8938,71.3483 23.5,72.5C 21.9736,75.7278 22.6403,78.3945 25.5,80.5C 26.0157,76.1354 28.3491,74.302 32.5,75C 29.0013,79.6747 25.668,84.508 22.5,89.5C 18.6174,92.4101 15.284,95.7434 12.5,99.5C 11.7005,97.4265 10.3671,95.7598 8.5,94.5C 6.83333,94.5 5.16667,94.5 3.5,94.5C 3.16916,71.3273 3.50249,48.3273 4.5,25.5 Z"/></g>
<g><path style="opacity:1" fill="#000000" d="M 37.5,27.5 C 38.1667,27.5 38.8333,27.5 39.5,27.5C 38.4523,29.9327 37.7856,29.9327 37.5,27.5 Z"/></g>
<g><path style="opacity:1" fill="#000000" d="M 42.5,27.5 C 43.4916,27.3284 44.1583,27.6618 44.5,28.5C 43.8333,28.8333 43.1667,29.1667 42.5,29.5C 42.5,28.8333 42.5,28.1667 42.5,27.5 Z"/></g>
<g><path style="opacity:1" fill="#0e2242" d="M 19.5,25.5 C 20.5307,26.355 21.6974,27.0217 23,27.5C 26.9103,26.6359 27.4103,27.8026 24.5,31C 25.1258,31.7504 25.6258,32.5838 26,33.5C 27.0616,32.1007 28.395,31.1007 30,30.5C 32.6467,31.7392 35.1467,32.7392 37.5,33.5C 36.0267,34.072 34.6934,34.9054 33.5,36C 36.6341,37.1651 39.8008,38.3317 43,39.5C 46.86,37.3269 51.0267,36.3269 55.5,36.5C 53.5615,38.1628 51.2282,38.8294 48.5,38.5C 48.6495,39.552 48.4828,40.552 48,41.5C 42.9526,44.6082 37.6193,47.2748 32,49.5C 29.3943,44.5648 26.3943,39.8981 23,35.5C 21.5335,32.2416 20.3668,28.9083 19.5,25.5 Z"/></g>
<g><path style="opacity:1" fill="#000000" d="M 45.5,28.5 C 46.4959,28.4142 47.3292,28.7476 48,29.5C 50.0807,31.5566 49.914,33.2233 47.5,34.5C 47.7475,32.1417 47.0808,30.1417 45.5,28.5 Z"/></g>
<g><path style="opacity:1" fill="#191919" d="M 47.5,34.5 C 44.6965,35.6378 41.6965,35.8045 38.5,35C 37.944,34.6174 37.6107,34.1174 37.5,33.5C 39.3558,33.0411 41.1892,32.7078 43,32.5C 44.3002,33.7073 45.8002,34.3739 47.5,34.5 Z"/></g>
<g><path style="opacity:1" fill="#000000" d="M 11.5,33.5 C 11.5569,34.609 11.8902,35.609 12.5,36.5C 13.2223,37.5511 14.2223,38.2178 15.5,38.5C 13.3157,39.2663 10.9823,39.9329 8.5,40.5C 8.16667,40.1667 7.83333,39.8333 7.5,39.5C 9.63783,37.491 10.9712,35.491 11.5,33.5 Z"/></g>
<g><path style="opacity:1" fill="#000000" d="M 55.5,36.5 C 55.7828,35.7109 56.2828,35.0442 57,34.5C 57.5281,35.816 57.0281,36.4827 55.5,36.5 Z"/></g>
<g><path style="opacity:1" fill="#cb0000" d="M 12.5,36.5 C 12.4827,38.0281 11.816,38.5281 10.5,38C 11.0442,37.2828 11.7109,36.7828 12.5,36.5 Z"/></g>
<g><path style="opacity:1" fill="#fefffe" d="M 84.5,62.5 C 110.167,62.5 135.833,62.5 161.5,62.5C 161.5,81.1667 161.5,99.8333 161.5,118.5C 135.833,118.5 110.167,118.5 84.5,118.5C 84.5,99.8333 84.5,81.1667 84.5,62.5 Z"/></g>
<g><path style="opacity:1" fill="#000000" d="M 24.5,67.5 C 26.6456,67.6964 26.8122,68.6964 25,70.5C 24.5172,69.552 24.3505,68.552 24.5,67.5 Z"/></g>
<g><path style="opacity:1" fill="#000000" d="M 34.5,71.5 C 36.337,71.6395 36.6704,72.3061 35.5,73.5C 34.7025,73.0431 34.3691,72.3764 34.5,71.5 Z"/></g>
<g><path style="opacity:1" fill="#000000" d="M 36.5,88.5 C 36.7828,87.7109 37.2828,87.0442 38,86.5C 38.5281,87.816 38.0281,88.4827 36.5,88.5 Z"/></g>
<g><path style="opacity:1" fill="#000000" d="M 36.5,88.5 C 36.1667,89.5 35.5,90.1667 34.5,90.5C 34.5,89.1667 35.1667,88.5 36.5,88.5 Z"/></g>
<g><path style="opacity:1" fill="#fefffe" d="M 8.5,94.5 C 10.3671,95.7598 11.7005,97.4265 12.5,99.5C 10.917,99.4338 9.2503,99.7672 7.5,100.5C 8.14952,98.5648 8.48285,96.5648 8.5,94.5 Z"/></g>
<g><path style="opacity:1" fill="#cb0000" d="M 5.5,96.5 C 6.07683,95.2267 6.7435,95.2267 7.5,96.5C 7.03017,97.463 6.3635,97.463 5.5,96.5 Z"/></g>
<g><path style="opacity:1" fill="#0c284e" d="M 34.5,90.5 C 33.2086,91.4728 33.2086,92.4728 34.5,93.5C 40.1213,96.7873 44.788,101.121 48.5,106.5C 45.5539,107.653 42.5539,108.653 39.5,109.5C 38.3333,107.833 37.1667,106.167 36,104.5C 34.8061,105.43 33.4728,106.097 32,106.5C 29.4797,105.178 28.9797,105.845 30.5,108.5C 32.0778,109.072 33.5778,109.406 35,109.5C 35.9819,110.759 36.3152,112.092 36,113.5C 32.7502,115.896 30.5835,119.063 29.5,123C 27.8333,123.667 26.1667,123.667 24.5,123C 23.9136,120.72 23.0803,118.553 22,116.5C 21.5078,117.549 21.6744,118.549 22.5,119.5C 21.2485,121.001 20.2485,122.668 19.5,124.5C 21.8435,128.877 25.0101,129.543 29,126.5C 29.8054,130.874 31.4721,134.874 34,138.5C 34.6869,140.92 34.1869,143.087 32.5,145C 27.9145,145.473 23.7478,144.307 20,141.5C 19.8446,139.144 19.8446,136.811 20,134.5C 18.4794,134.481 16.9794,134.148 15.5,133.5C 14.9033,133.735 14.5699,134.235 14.5,135C 18.4863,141.338 17.4863,142.005 11.5,137C 10.2506,136.26 9.25057,136.427 8.5,137.5C 7.83333,137.5 7.16667,137.5 6.5,137.5C 5.06888,137.119 4.23555,136.119 4,134.5C 3.83333,128.167 3.66667,121.833 3.5,115.5C 3.50356,108.796 4.17023,102.463 5.5,96.5C 5.6596,98.153 6.32627,99.4863 7.5,100.5C 9.2503,99.7672 10.917,99.4338 12.5,99.5C 12.5677,103.676 10.5677,106.009 6.5,106.5C 5.54885,107.919 5.21552,109.585 5.5,111.5C 5.40879,113.698 6.07546,114.031 7.5,112.5C 8.83333,112.5 10.1667,112.5 11.5,112.5C 11.5,111.167 11.5,109.833 11.5,108.5C 11.6079,106.217 12.4412,104.217 14,102.5C 14.4221,104.355 14.9221,106.189 15.5,108C 12.7567,113.421 14.09,114.587 19.5,111.5C 16.8931,107.939 16.3931,104.273 18,100.5C 20.3579,102.024 22.1912,104.024 23.5,106.5C 24.1818,105.757 24.8485,105.091 25.5,104.5C 26.5624,103.425 26.5624,102.425 25.5,101.5C 23.5914,100.652 21.5914,100.318 19.5,100.5C 19.238,99.0222 19.5713,97.6888 20.5,96.5C 25.178,94.4935 29.8447,92.4935 34.5,90.5 Z"/></g>
<g><path style="opacity:1" fill="#cb0000" d="M 25.5,104.5 C 27.4646,104.948 27.7979,105.948 26.5,107.5C 25.6143,106.675 25.281,105.675 25.5,104.5 Z"/></g>
<g><path style="opacity:1" fill="#000000" d="M 6.5,106.5 C 6.67905,108.606 7.67905,110.272 9.5,111.5C 10.1757,110.398 10.8423,109.398 11.5,108.5C 11.5,109.833 11.5,111.167 11.5,112.5C 10.1667,112.5 8.83333,112.5 7.5,112.5C 7.59121,110.302 6.92454,109.969 5.5,111.5C 5.21552,109.585 5.54885,107.919 6.5,106.5 Z"/></g>
<g><path style="opacity:1" fill="#cb0000" d="M 7.5,112.5 C 6.07546,114.031 5.40879,113.698 5.5,111.5C 6.92454,109.969 7.59121,110.302 7.5,112.5 Z"/></g>
<g><path style="opacity:1" fill="#cb0000" d="M 16.5,113.5 C 18.332,114.14 18.6653,115.14 17.5,116.5C 16.6143,115.675 16.281,114.675 16.5,113.5 Z"/></g>
<g><path style="opacity:1" fill="#082c58" d="M 54.5,176.5 C 53.7659,177.708 53.4326,179.041 53.5,180.5C 63.8208,181.914 63.4875,183.247 52.5,184.5C 51.4376,185.425 51.4376,186.425 52.5,187.5C 51.2438,187.461 50.2438,187.961 49.5,189C 50.5768,189.47 51.5768,189.303 52.5,188.5C 52.4614,189.756 52.9614,190.756 54,191.5C 55.6901,188.976 57.8568,186.976 60.5,185.5C 61.5,185.833 62.1667,186.5 62.5,187.5C 60.876,188.869 60.376,190.536 61,192.5C 61.3333,192.167 61.6667,191.833 62,191.5C 62.779,192.728 63.779,193.728 65,194.5C 68.1237,192.927 68.2903,190.927 65.5,188.5C 68.379,182.358 70.879,182.358 73,188.5C 73.2784,187.584 73.7784,186.918 74.5,186.5C 75.209,185.596 76.209,185.263 77.5,185.5C 77.67,184.178 77.3366,183.011 76.5,182C 74.8333,181.667 73.1667,181.333 71.5,181C 70.572,180.612 69.9054,179.945 69.5,179C 71.7088,170.294 73.2088,161.461 74,152.5C 74.4224,150.574 75.5891,149.574 77.5,149.5C 78.4959,149.414 79.3292,149.748 80,150.5C 80.4999,167.83 80.6666,185.163 80.5,202.5C 53.991,201.412 32.991,190.078 17.5,168.5C 14.3455,163.859 12.0122,158.859 10.5,153.5C 11.9418,152.18 12.6085,150.514 12.5,148.5C 13.1515,149.091 13.8182,149.757 14.5,150.5C 15.0045,147.658 16.6711,146.325 19.5,146.5C 19.6795,148.954 19.0128,151.121 17.5,153C 17.8361,154.03 18.5028,154.53 19.5,154.5C 20.5,158.5 21.5,158.5 22.5,154.5C 25.0168,152.923 25.0168,151.09 22.5,149C 24.5527,148.675 26.5527,149.009 28.5,150C 35.2672,156.88 38.9338,155.38 39.5,145.5C 42.2734,147.057 44.6067,146.557 46.5,144C 44.324,143.837 42.4907,143.004 41,141.5C 40.3333,138.167 40.3333,134.833 41,131.5C 41.3333,132.5 41.6667,133.5 42,134.5C 44.1847,135.928 46.1847,137.595 48,139.5C 48.6667,136.833 48.6667,134.167 48,131.5C 45.7047,127.819 45.038,123.819 46,119.5C 48.0937,117.079 49.7604,114.412 51,111.5C 51.9163,115.419 53.0829,119.253 54.5,123C 52.8135,125.558 51.8135,128.391 51.5,131.5C 52.8123,135.935 53.8123,140.435 54.5,145C 54.6404,148.385 53.6404,151.385 51.5,154C 55.6107,152.481 58.7774,149.648 61,145.5C 61.5686,150.118 62.9019,154.451 65,158.5C 65.1667,161.333 65.3333,164.167 65.5,167C 67.3527,176.165 64.186,178.999 56,175.5C 55.6174,176.056 55.1174,176.389 54.5,176.5 Z"/></g>
<g><path style="opacity:1" fill="#cb0000" d="M 84.5,122.5 C 110.167,122.5 135.833,122.5 161.5,122.5C 160.486,156.039 145.153,180.539 115.5,196C 105.574,200.232 95.2409,202.399 84.5,202.5C 84.5,175.833 84.5,149.167 84.5,122.5 Z"/></g>
<g><path style="opacity:1" fill="#fefffe" d="M -0.5,129.5 C 6.07817,170.411 29.4115,196.078 69.5,206.5C 46.1667,206.5 22.8333,206.5 -0.5,206.5C -0.5,180.833 -0.5,155.167 -0.5,129.5 Z"/></g>
<g><path style="opacity:1" fill="#cb0000" d="M 15.5,133.5 C 15.3287,130.203 15.9954,129.869 17.5,132.5C 17.0431,133.298 16.3764,133.631 15.5,133.5 Z"/></g>
<g><path style="opacity:1" fill="#fefffe" d="M 165.5,131.5 C 165.5,156.5 165.5,181.5 165.5,206.5C 142.167,206.5 118.833,206.5 95.5,206.5C 134.678,196.321 158.011,171.321 165.5,131.5 Z"/></g>
<g><path style="opacity:1" fill="#961306" d="M 6.5,137.5 C 7.16667,137.5 7.83333,137.5 8.5,137.5C 9.83333,138.167 9.83333,138.833 8.5,139.5C 7.16667,139.5 6.5,138.833 6.5,137.5 Z"/></g>
<g><path style="opacity:1" fill="#0e2445" d="M 7.5,140.5 C 10.1818,142.08 13.1818,143.246 16.5,144C 15.0506,145.117 13.3839,145.784 11.5,146C 10.4019,146.77 10.4019,147.603 11.5,148.5C 10.0937,148.973 9.42702,149.973 9.5,151.5C 7.70447,148.638 6.37114,145.471 5.5,142C 5.83611,140.97 6.50278,140.47 7.5,140.5 Z"/></g>
<g><path style="opacity:1" fill="#0e2343" d="M 78.5,141.5 C 80.5643,143.66 80.8976,145.993 79.5,148.5C 78.8783,147.373 78.045,146.373 77,145.5C 75.9505,146.517 74.7839,146.684 73.5,146C 74.1029,144.175 74.7696,142.341 75.5,140.5C 76.9217,139.223 77.9217,139.557 78.5,141.5 Z"/></g>
<g><path style="opacity:1" fill="#cb0000" d="M 11.5,148.5 C 11.8333,148.5 12.1667,148.5 12.5,148.5C 12.6085,150.514 11.9418,152.18 10.5,153.5C 9.66175,153.158 9.32842,152.492 9.5,151.5C 9.42702,149.973 10.0937,148.973 11.5,148.5 Z"/></g>
<g><path style="opacity:1" fill="#9a1306" d="M 22.5,154.5 C 21.5,158.5 20.5,158.5 19.5,154.5C 20.5,153.167 21.5,153.167 22.5,154.5 Z"/></g>
<g><path style="opacity:1" fill="#cb0000" d="M 54.5,176.5 C 53.325,176.719 52.325,176.386 51.5,175.5C 52.8595,174.335 53.8595,174.668 54.5,176.5 Z"/></g>
<g><path style="opacity:1" fill="#cb0000" d="M 74.5,186.5 C 75.5,186.5 76.5,186.5 77.5,186.5C 76.7542,190.31 75.7542,190.31 74.5,186.5 Z"/></g>
<g><path style="opacity:1" fill="#cb0000" d="M 52.5,187.5 C 52.5,187.833 52.5,188.167 52.5,188.5C 51.5768,189.303 50.5768,189.47 49.5,189C 50.2438,187.961 51.2438,187.461 52.5,187.5 Z"/></g>
<g><path style="opacity:1" fill="#cb0000" d="M 60.5,193.5 C 61.4972,193.47 62.1639,193.97 62.5,195C 60.9061,199.314 60.2394,198.814 60.5,193.5 Z"/></g>
</svg>
