<?xml version="1.0" encoding="UTF-8"?>
<!DOCTYPE svg PUBLIC "-//W3C//DTD SVG 1.1//EN" "http://www.w3.org/Graphics/SVG/1.1/DTD/svg11.dtd">
<svg xmlns="http://www.w3.org/2000/svg" version="1.1" width="166px" height="207px" style="shape-rendering:geometricPrecision; text-rendering:geometricPrecision; image-rendering:optimizeQuality; fill-rule:evenodd; clip-rule:evenodd" xmlns:xlink="http://www.w3.org/1999/xlink">
<g><path style="opacity:1" fill="#000000" d="M -0.5,-0.5 C 54.8333,-0.5 110.167,-0.5 165.5,-0.5C 165.5,44.1667 165.5,88.8333 165.5,133.5C 157.503,172.498 134.169,196.831 95.5,206.5C 86.8333,206.5 78.1667,206.5 69.5,206.5C 29.593,196.928 6.25968,171.928 -0.5,131.5C -0.5,87.5 -0.5,43.5 -0.5,-0.5 Z"/></g>
<g><path style="opacity:1" fill="#00612a" d="M 3.5,3.5 C 27.5,3.5 51.5,3.5 75.5,3.5C 75.3305,5.84837 74.9971,8.1817 74.5,10.5C 76.8781,17.8452 78.5447,25.3452 79.5,33C 78.0276,42.1958 76.3609,51.3625 74.5,60.5C 76.3637,70.9536 78.6971,81.2869 81.5,91.5C 79.8851,101.178 77.5517,110.678 74.5,120C 77.6997,128.733 79.6997,137.733 80.5,147C 79.411,152.935 77.911,158.768 76,164.5C 75.8333,167.167 75.6667,169.833 75.5,172.5C 76.3127,180.233 77.646,187.9 79.5,195.5C 79.0029,197.818 78.6695,200.152 78.5,202.5C 47.0221,200.013 24.1888,184.68 10,156.5C 7.1222,149.073 5.1222,141.406 4,133.5C 3.50001,90.1679 3.33334,46.8346 3.5,3.5 Z"/></g>
<g><path style="opacity:1" fill="#fefffe" d="M 77.5,3.5 C 80.8333,3.5 84.1667,3.5 87.5,3.5C 87.3359,6.1873 87.5026,8.85397 88,11.5C 90.6993,19.1305 92.5326,26.9638 93.5,35C 91.91,43.1917 90.2433,51.3584 88.5,59.5C 90.7197,68.5499 92.3864,77.7166 93.5,87C 92.0742,96.8709 90.4075,106.704 88.5,116.5C 89.0895,122.614 90.2561,128.614 92,134.5C 92.6667,140.5 92.6667,146.5 92,152.5C 90.0282,158.721 88.5282,165.054 87.5,171.5C 88.8093,178.213 90.3093,184.88 92,191.5C 92.5787,195.203 92.412,198.869 91.5,202.5C 87.8333,202.5 84.1667,202.5 80.5,202.5C 80.7495,199.998 81.0828,197.498 81.5,195C 79.2877,187.652 77.9543,180.152 77.5,172.5C 78.9969,163.504 80.6636,154.504 82.5,145.5C 81.4436,136.608 79.4436,127.942 76.5,119.5C 78.5637,112.142 80.7304,104.808 83,97.5C 83.1667,95.3333 83.3333,93.1667 83.5,91C 80.8676,80.9283 78.5342,70.7616 76.5,60.5C 78.4111,51.3602 80.0778,42.1935 81.5,33C 81.3333,30.5 81.1667,28 81,25.5C 77.1767,18.5562 76.01,11.2229 77.5,3.5 Z"/></g>
<g><path style="opacity:1" fill="#002b71" d="M 89.5,3.5 C 113.5,3.5 137.5,3.5 161.5,3.5C 161.667,47.8346 161.5,92.1679 161,136.5C 152.97,172.697 130.803,194.697 94.5,202.5C 94.3814,198.952 94.2147,195.285 94,191.5C 92.3093,184.88 90.8093,178.213 89.5,171.5C 92.0175,161.778 94.0175,151.945 95.5,142C 93.959,133.296 92.2924,124.629 90.5,116C 92.4937,106.201 94.1603,96.3681 95.5,86.5C 94.6265,77.342 92.9598,68.342 90.5,59.5C 92.231,51.345 93.8977,43.1784 95.5,35C 94.5333,26.9665 92.7,19.1332 90,11.5C 89.5026,8.85397 89.3359,6.1873 89.5,3.5 Z"/></g>
<g><path style="opacity:1" fill="#000000" d="M 38.5,22.5 C 40.0332,23.4309 41.6998,24.0976 43.5,24.5C 46.012,23.2443 48.512,23.2443 51,24.5C 52.5998,27.1384 54.9332,28.8051 58,29.5C 58.52,33.0707 59.3534,36.5707 60.5,40C 60.9096,42.5754 59.9096,44.2421 57.5,45C 59.6014,49.3159 58.268,51.8159 53.5,52.5C 51.0522,58.7148 47.8855,59.0481 44,53.5C 42.6949,56.3064 40.5282,57.1397 37.5,56C 35.497,53.9978 33.1636,52.4978 30.5,51.5C 29.2532,49.9579 29.2532,48.4579 30.5,47C 29.0692,46.5348 27.9025,45.7014 27,44.5C 27.6601,39.944 28.4935,35.2773 29.5,30.5C 32.5359,27.6232 35.5359,24.9565 38.5,22.5 Z"/></g>
<g><path style="opacity:1" fill="#fea700" d="M 37.5,24.5 C 41.3059,26.6347 45.3059,27.1347 49.5,26C 52.0164,28.854 51.6831,31.5207 48.5,34C 49.1667,34.1667 49.8333,34.3333 50.5,34.5C 52.1596,33.2134 53.8262,31.8801 55.5,30.5C 56.6046,34.5505 57.6046,38.5505 58.5,42.5C 55.9885,42.162 53.6552,42.162 51.5,42.5C 52.3697,44.5259 53.8697,45.8592 56,46.5C 56.4828,47.448 56.6495,48.448 56.5,49.5C 55.448,49.3505 54.448,49.5172 53.5,50C 52.3534,52.1778 50.6868,53.6778 48.5,54.5C 46.4857,52.7964 44.8191,50.7964 43.5,48.5C 41.7175,50.0225 41.0508,52.0225 41.5,54.5C 38.2213,52.9289 34.8879,51.2622 31.5,49.5C 32.4411,47.2279 33.7745,45.2279 35.5,43.5C 33.3654,43.6795 31.1987,43.6795 29,43.5C 29.9995,39.6588 30.4995,35.6588 30.5,31.5C 33.2723,32.4111 35.939,33.2444 38.5,34C 36.981,32.6487 35.6477,31.1487 34.5,29.5C 35.2599,27.6396 36.2599,25.973 37.5,24.5 Z"/></g>
<g><path style="opacity:1" fill="#000000" d="M 132.5,30.5 C 130.436,30.2381 129.103,29.0714 128.5,27C 127.5,26.3333 126.5,26.3333 125.5,27C 123.095,28.9905 122.428,31.3238 123.5,34C 124.448,34.4828 125.448,34.6495 126.5,34.5C 126.5,37.1667 126.5,39.8333 126.5,42.5C 123.833,42.5 121.167,42.5 118.5,42.5C 118.5,41.1667 118.5,39.8333 118.5,38.5C 120.114,40.0746 122.114,40.7413 124.5,40.5C 124.785,38.712 124.452,37.0453 123.5,35.5C 122.155,34.6533 121.155,33.4866 120.5,32C 121.667,30.1667 122.833,28.3333 124,26.5C 125.133,24.7888 126.633,24.2888 128.5,25C 130.076,26.73 131.41,28.5633 132.5,30.5 Z"/></g>
<g><path style="opacity:1" fill="#fda600" d="M 132.5,30.5 C 132.5,31.5 132.5,32.5 132.5,33.5C 130.958,34.3007 129.292,34.634 127.5,34.5C 127.5,37.1667 127.5,39.8333 127.5,42.5C 130.167,42.5 132.833,42.5 135.5,42.5C 135.366,40.7085 135.699,39.0418 136.5,37.5C 139.286,38.7892 141.619,40.6225 143.5,43C 142.206,45.076 140.373,46.576 138,47.5C 135.98,46.9681 135.147,45.6348 135.5,43.5C 132.833,43.5 130.167,43.5 127.5,43.5C 127.5,47.5 127.5,51.5 127.5,55.5C 131.5,55.5 135.5,55.5 139.5,55.5C 139.167,52.5 140.5,51.1667 143.5,51.5C 143.351,52.552 143.517,53.552 144,54.5C 144.671,53.7476 145.504,53.4142 146.5,53.5C 147.412,54.7382 147.579,56.0715 147,57.5C 145.253,58.3301 143.587,59.3301 142,60.5C 139.98,59.9681 139.147,58.6348 139.5,56.5C 135.486,56.3345 131.486,56.5012 127.5,57C 128.158,63.7563 128.491,70.5897 128.5,77.5C 128.651,84.6617 128.151,91.6617 127,98.5C 126.5,84.504 126.333,70.504 126.5,56.5C 122.5,56.5 118.5,56.5 114.5,56.5C 114.5,57.8333 114.5,59.1667 114.5,60.5C 111.635,60.0348 108.968,59.0348 106.5,57.5C 106.829,54.9683 107.995,53.9683 110,54.5C 110.483,53.552 110.649,52.552 110.5,51.5C 111.833,51.5 113.167,51.5 114.5,51.5C 114.5,52.8333 114.5,54.1667 114.5,55.5C 118.5,55.5 122.5,55.5 126.5,55.5C 126.5,51.5 126.5,47.5 126.5,43.5C 123.833,43.5 121.167,43.5 118.5,43.5C 118.5,44.8333 118.5,46.1667 118.5,47.5C 115.986,47.2461 113.652,46.4127 111.5,45C 110.272,43.5098 110.272,42.0098 111.5,40.5C 112.496,40.4142 113.329,40.7476 114,41.5C 114.227,38.0639 115.727,37.0639 118.5,38.5C 118.5,39.8333 118.5,41.1667 118.5,42.5C 121.167,42.5 123.833,42.5 126.5,42.5C 126.5,39.8333 126.5,37.1667 126.5,34.5C 125.448,34.6495 124.448,34.4828 123.5,34C 122.428,31.3238 123.095,28.9905 125.5,27C 126.5,26.3333 127.5,26.3333 128.5,27C 129.103,29.0714 130.436,30.2381 132.5,30.5 Z"/></g>
<g><path style="opacity:1" fill="#000000" d="M 132.5,33.5 C 131.817,35.1765 130.483,35.8432 128.5,35.5C 128.5,37.1667 128.5,38.8333 128.5,40.5C 130.5,40.5 132.5,40.5 134.5,40.5C 134.285,38.8212 134.952,37.8212 136.5,37.5C 135.699,39.0418 135.366,40.7085 135.5,42.5C 132.833,42.5 130.167,42.5 127.5,42.5C 127.5,39.8333 127.5,37.1667 127.5,34.5C 129.292,34.634 130.958,34.3007 132.5,33.5 Z"/></g>
<g><path style="opacity:1" fill="#000000" d="M 41.5,34.5 C 47.5264,34.1826 49.8598,36.8492 48.5,42.5C 43.8531,46.8457 40.5198,45.8457 38.5,39.5C 39.2599,37.6396 40.2599,35.973 41.5,34.5 Z"/></g>
<g><path style="opacity:1" fill="#fea700" d="M 41.5,36.5 C 45.6914,35.8686 47.5248,37.5352 47,41.5C 41.4385,43.77 39.6052,42.1033 41.5,36.5 Z"/></g>
<g><path style="opacity:1" fill="#000000" d="M 118.5,38.5 C 115.727,37.0639 114.227,38.0639 114,41.5C 113.329,40.7476 112.496,40.4142 111.5,40.5C 113.316,36.4631 115.649,35.7964 118.5,38.5 Z"/></g>
<g><path style="opacity:1" fill="#000000" d="M 136.5,37.5 C 137.251,36.4265 138.251,36.2599 139.5,37C 146.568,42.1817 145.901,46.3483 137.5,49.5C 136.167,48.8333 135.167,47.8333 134.5,46.5C 132.604,45.5344 130.604,45.2011 128.5,45.5C 128.5,48.1667 128.5,50.8333 128.5,53.5C 131.833,53.5 135.167,53.5 138.5,53.5C 138.45,51.4099 139.45,50.0766 141.5,49.5C 143.499,50.5076 145.166,51.841 146.5,53.5C 145.504,53.4142 144.671,53.7476 144,54.5C 143.517,53.552 143.351,52.552 143.5,51.5C 140.5,51.1667 139.167,52.5 139.5,55.5C 135.5,55.5 131.5,55.5 127.5,55.5C 127.5,51.5 127.5,47.5 127.5,43.5C 130.167,43.5 132.833,43.5 135.5,43.5C 135.147,45.6348 135.98,46.9681 138,47.5C 140.373,46.576 142.206,45.076 143.5,43C 141.619,40.6225 139.286,38.7892 136.5,37.5 Z"/></g>
<g><path style="opacity:1" fill="#000000" d="M 111.5,40.5 C 110.272,42.0098 110.272,43.5098 111.5,45C 113.652,46.4127 115.986,47.2461 118.5,47.5C 118.134,48.6946 117.301,49.3613 116,49.5C 112.927,48.0835 110.76,45.9168 109.5,43C 109.684,41.6244 110.351,40.7911 111.5,40.5 Z"/></g>
<g><path style="opacity:1" fill="#000000" d="M 114.5,51.5 C 117.488,53.273 120.821,53.9396 124.5,53.5C 124.5,50.8333 124.5,48.1667 124.5,45.5C 122.114,45.2587 120.114,45.9254 118.5,47.5C 118.5,46.1667 118.5,44.8333 118.5,43.5C 121.167,43.5 123.833,43.5 126.5,43.5C 126.5,47.5 126.5,51.5 126.5,55.5C 122.5,55.5 118.5,55.5 114.5,55.5C 114.5,54.1667 114.5,52.8333 114.5,51.5 Z"/></g>
<g><path style="opacity:1" fill="#000000" d="M 110.5,51.5 C 110.649,52.552 110.483,53.552 110,54.5C 107.995,53.9683 106.829,54.9683 106.5,57.5C 105.523,54.4032 106.856,52.4032 110.5,51.5 Z"/></g>
<g><path style="opacity:1" fill="#060403" d="M 146.5,53.5 C 147.649,53.7911 148.316,54.6244 148.5,56C 148.333,56.8333 148.167,57.6667 148,58.5C 145.186,60.6045 142.02,61.6045 138.5,61.5C 138.5,60.1667 138.5,58.8333 138.5,57.5C 135.5,57.5 132.5,57.5 129.5,57.5C 129.978,65.1629 130.478,72.8296 131,80.5C 131.497,73.4968 132.163,73.1635 133,79.5C 134.308,77.3586 135.808,75.3586 137.5,73.5C 137.635,75.6753 138.302,78.0087 139.5,80.5C 140.427,78.8872 141.261,77.2205 142,75.5C 142.333,76.8333 142.667,78.1667 143,79.5C 143.333,79.1667 143.667,78.8333 144,78.5C 146.393,81.0865 147.393,84.0865 147,87.5C 145.583,89.3978 144.083,91.0645 142.5,92.5C 143.601,94.9879 142.934,96.9879 140.5,98.5C 140.461,99.5832 140.127,100.583 139.5,101.5C 139.97,102.463 140.637,102.463 141.5,101.5C 140.832,104.336 139.498,106.836 137.5,109C 138.615,110.235 138.615,111.402 137.5,112.5C 137.846,113.696 138.346,113.696 139,112.5C 139.67,109.826 140.837,107.493 142.5,105.5C 141.546,108.418 140.879,111.418 140.5,114.5C 142.092,117.577 141.759,120.41 139.5,123C 141.013,128.047 142.013,133.213 142.5,138.5C 141.167,134.5 139.833,130.5 138.5,126.5C 138.99,124.052 138.157,122.385 136,121.5C 134.97,121.836 134.47,122.503 134.5,123.5C 133.5,122.167 132.5,122.167 131.5,123.5C 131.586,122.504 131.252,121.671 130.5,121C 133.7,120.899 136.7,120.232 139.5,119C 137.519,118.395 137.185,117.395 138.5,116C 132.449,115.792 126.449,115.292 120.5,114.5C 119.261,114.942 118.261,115.609 117.5,116.5C 115.248,113.068 112.748,109.734 110,106.5C 109.722,107.416 109.222,108.082 108.5,108.5C 108.799,110.604 108.466,112.604 107.5,114.5C 105.906,110.588 105.073,106.588 105,102.5C 107.203,99.0797 109.703,98.4131 112.5,100.5C 112.5,99.8333 112.5,99.1667 112.5,98.5C 116.099,98.7381 116.433,97.7381 113.5,95.5C 112.478,95.8555 111.811,96.5222 111.5,97.5C 109.171,95.1587 107.171,92.4921 105.5,89.5C 106.167,89.1667 106.833,88.8333 107.5,88.5C 106.96,87.2519 106.293,86.0852 105.5,85C 106.833,84.6667 108.167,84.3333 109.5,84C 108.294,79.6359 108.794,79.4693 111,83.5C 111.5,83 112,82.5 112.5,82C 110.789,80.8668 110.289,79.3668 111,77.5C 117.401,86.1118 118.901,85.4452 115.5,75.5C 115.833,75.1667 116.167,74.8333 116.5,74.5C 117.519,75.6872 118.686,76.6872 120,77.5C 120.216,75.6161 120.883,73.9494 122,72.5C 122.18,75.9555 122.847,79.2889 124,82.5C 124.667,74.5 124.667,66.5 124,58.5C 121.281,57.5562 118.448,57.2229 115.5,57.5C 115.5,58.8333 115.5,60.1667 115.5,61.5C 111.591,61.876 108.591,60.5427 106.5,57.5C 108.968,59.0348 111.635,60.0348 114.5,60.5C 114.5,59.1667 114.5,57.8333 114.5,56.5C 118.5,56.5 122.5,56.5 126.5,56.5C 126.333,70.504 126.5,84.504 127,98.5C 128.151,91.6617 128.651,84.6617 128.5,77.5C 128.491,70.5897 128.158,63.7563 127.5,57C 131.486,56.5012 135.486,56.3345 139.5,56.5C 139.147,58.6348 139.98,59.9681 142,60.5C 143.587,59.3301 145.253,58.3301 147,57.5C 147.579,56.0715 147.412,54.7382 146.5,53.5 Z"/></g>
<g><path style="opacity:1" fill="#000000" d="M 38.5,69.5 C 40.0332,70.4309 41.6998,71.0976 43.5,71.5C 48.8791,69.4513 52.3791,71.118 54,76.5C 55.1131,75.2889 56.2798,75.2889 57.5,76.5C 58.1047,79.3043 58.938,81.971 60,84.5C 61.2121,87.8342 60.3788,90.3342 57.5,92C 59.4394,95.6892 58.4394,98.0226 54.5,99C 53.2567,100.154 52.2567,101.488 51.5,103C 48.3201,104.036 45.8201,103.203 44,100.5C 42.6949,103.306 40.5282,104.14 37.5,103C 35.497,100.998 33.1636,99.4978 30.5,98.5C 29.2532,96.9579 29.2532,95.4579 30.5,94C 29.0692,93.5348 27.9025,92.7014 27,91.5C 27.4819,87.2116 28.1485,82.8783 29,78.5C 32.1126,75.2147 35.2792,72.2147 38.5,69.5 Z"/></g>
<g><path style="opacity:1" fill="#fea700" d="M 37.5,71.5 C 41.3461,73.5049 45.3461,74.0049 49.5,73C 52.0164,75.854 51.6831,78.5207 48.5,81C 49.9437,81.7805 51.277,81.6139 52.5,80.5C 53.2768,78.4615 54.4435,77.7948 56,78.5C 57.1181,82.1563 57.7848,85.8229 58,89.5C 55.6448,90.15 53.4781,90.15 51.5,89.5C 52.3697,91.5259 53.8697,92.8592 56,93.5C 56.4828,94.448 56.6495,95.448 56.5,96.5C 55.448,96.3505 54.448,96.5172 53.5,97C 52.0443,98.7448 50.711,100.578 49.5,102.5C 46.3651,101.233 45.0317,98.9 45.5,95.5C 41.9319,95.7593 40.5985,97.7593 41.5,101.5C 38.2213,99.9289 34.8879,98.2622 31.5,96.5C 32.4411,94.2279 33.7745,92.2279 35.5,90.5C 35.1667,90.1667 34.8333,89.8333 34.5,89.5C 32.3591,92.0186 30.3591,92.0186 28.5,89.5C 30.2242,86.05 30.8909,82.3834 30.5,78.5C 31.9778,78.238 33.3112,78.5713 34.5,79.5C 35.1604,81.9597 36.4937,82.6264 38.5,81.5C 37.1667,79.8333 35.8333,78.1667 34.5,76.5C 35.2599,74.6396 36.2599,72.973 37.5,71.5 Z"/></g>
<g><path style="opacity:1" fill="#fea700" d="M 135.5,77.5 C 136.573,78.2506 136.74,79.2506 136,80.5C 134.272,79.6477 134.105,78.6477 135.5,77.5 Z"/></g>
<g><path style="opacity:1" fill="#fea700" d="M 117.5,78.5 C 119.085,79.0024 119.585,80.0024 119,81.5C 117.961,80.7562 117.461,79.7562 117.5,78.5 Z"/></g>
<g><path style="opacity:1" fill="#000000" d="M 42.5,81.5 C 47.3247,81.4881 49.4914,83.8214 49,88.5C 45.6667,92.5 42.3333,92.5 39,88.5C 38.5761,85.3478 39.7428,83.0144 42.5,81.5 Z"/></g>
<g><path style="opacity:1" fill="#fea700" d="M 132.5,81.5 C 133.249,82.531 133.915,83.6976 134.5,85C 131.546,85.2058 130.879,84.0391 132.5,81.5 Z"/></g>
<g><path style="opacity:1" fill="#fea700" d="M 139.5,81.5 C 140.776,82.3864 140.776,83.3864 139.5,84.5C 138.913,83.7666 138.913,82.7666 139.5,81.5 Z"/></g>
<g><path style="opacity:1" fill="#fea700" d="M 113.5,82.5 C 115.728,83.3218 116.395,84.6552 115.5,86.5C 113.889,85.6798 113.222,84.3464 113.5,82.5 Z"/></g>
<g><path style="opacity:1" fill="#fea700" d="M 120.5,84.5 C 120.639,82.663 121.306,82.3296 122.5,83.5C 122.043,84.2975 121.376,84.6309 120.5,84.5 Z"/></g>
<g><path style="opacity:1" fill="#fea700" d="M 42.5,83.5 C 47.4658,83.929 48.4658,86.0957 45.5,90C 40.3823,89.8242 39.3823,87.6576 42.5,83.5 Z"/></g>
<g><path style="opacity:1" fill="#fea700" d="M 120.5,84.5 C 120.5,85.8333 119.833,86.5 118.5,86.5C 118.5,85.1667 119.167,84.5 120.5,84.5 Z"/></g>
<g><path style="opacity:1" fill="#fea700" d="M 143.5,84.5 C 145.656,84.8718 145.656,85.8718 143.5,87.5C 142.438,86.5754 142.438,85.5754 143.5,84.5 Z"/></g>
<g><path style="opacity:1" fill="#fea700" d="M 122.5,85.5 C 124.332,86.1405 124.665,87.1405 123.5,88.5C 122.614,87.675 122.281,86.675 122.5,85.5 Z"/></g>
<g><path style="opacity:1" fill="#fea700" d="M 108.5,86.5 C 110.273,87.3143 110.773,88.6476 110,90.5C 109.209,89.255 108.709,87.9217 108.5,86.5 Z"/></g>
<g><path style="opacity:1" fill="#fea700" d="M 118.5,86.5 C 119.626,87.8583 119.626,89.1916 118.5,90.5C 117.218,89.0416 117.218,87.7082 118.5,86.5 Z"/></g>
<g><path style="opacity:1" fill="#fea700" d="M 130.5,86.5 C 133.962,88.1927 133.962,89.1927 130.5,89.5C 130.5,88.5 130.5,87.5 130.5,86.5 Z"/></g>
<g><path style="opacity:1" fill="#fea700" d="M 136.5,86.5 C 137.75,86.5774 138.583,87.244 139,88.5C 141.033,87.9836 141.033,88.6503 139,90.5C 137.294,89.6921 136.461,88.3588 136.5,86.5 Z"/></g>
<g><path style="opacity:1" fill="#fea700" d="M 142.5,92.5 C 140.027,92.0527 139.86,91.0527 142,89.5C 143.728,90.3523 143.895,91.3523 142.5,92.5 Z"/></g>
<g><path style="opacity:1" fill="#fea700" d="M 113.5,90.5 C 114.773,91.0768 114.773,91.7435 113.5,92.5C 112.537,92.0302 112.537,91.3635 113.5,90.5 Z"/></g>
<g><path style="opacity:1" fill="#fea700" d="M 118.5,96.5 C 117.078,96.2504 116.078,95.417 115.5,94C 115.982,92.9916 116.148,91.825 116,90.5C 116.75,91.1258 117.584,91.6258 118.5,92C 117.587,93.4139 117.587,94.9139 118.5,96.5 Z"/></g>
<g><path style="opacity:1" fill="#fea700" d="M 120.5,90.5 C 122.332,91.1405 122.665,92.1405 121.5,93.5C 119.481,92.8671 119.147,91.8671 120.5,90.5 Z"/></g>
<g><path style="opacity:1" fill="#fea700" d="M 129.5,90.5 C 132.548,90.494 133.048,91.494 131,93.5C 129.961,92.7562 129.461,91.7562 129.5,90.5 Z"/></g>
<g><path style="opacity:1" fill="#fea700" d="M 133.5,90.5 C 135.332,91.1405 135.665,92.1405 134.5,93.5C 133.614,92.675 133.281,91.675 133.5,90.5 Z"/></g>
<g><path style="opacity:1" fill="#fea700" d="M 136.5,91.5 C 138.332,92.1405 138.665,93.1405 137.5,94.5C 136.614,93.675 136.281,92.675 136.5,91.5 Z"/></g>
<g><path style="opacity:1" fill="#fea700" d="M 109.5,93.5 C 110.497,92.2875 111.497,92.4542 112.5,94C 111.423,94.4696 110.423,94.3029 109.5,93.5 Z"/></g>
<g><path style="opacity:1" fill="#fea700" d="M 140.5,93.5 C 141.573,94.2506 141.74,95.2506 141,96.5C 139.272,95.6477 139.105,94.6477 140.5,93.5 Z"/></g>
<g><path style="opacity:1" fill="#fea700" d="M 122.5,98.5 C 121.38,93.5638 122.046,93.3971 124.5,98C 124.317,99.6836 123.65,99.8502 122.5,98.5 Z"/></g>
<g><path style="opacity:1" fill="#fea700" d="M 130.5,98.5 C 130.461,97.4168 130.127,96.4168 129.5,95.5C 130.247,95.2635 131.08,94.9302 132,94.5C 132.844,96.4628 132.344,97.7961 130.5,98.5 Z"/></g>
<g><path style="opacity:1" fill="#fea700" d="M 112.5,98.5 C 112.5,97.8333 112.167,97.5 111.5,97.5C 111.811,96.5222 112.478,95.8555 113.5,95.5C 116.433,97.7381 116.099,98.7381 112.5,98.5 Z"/></g>
<g><path style="opacity:1" fill="#fea700" d="M 118.5,96.5 C 120.225,96.8425 120.725,97.8425 120,99.5C 118.961,98.7562 118.461,97.7562 118.5,96.5 Z"/></g>
<g><path style="opacity:1" fill="#fea700" d="M 134.5,96.5 C 136.337,96.6395 136.67,97.3061 135.5,98.5C 134.702,98.0431 134.369,97.3764 134.5,96.5 Z"/></g>
<g><path style="opacity:1" fill="#fea700" d="M 140.5,98.5 C 138.972,98.4827 138.472,97.816 139,96.5C 139.717,97.0442 140.217,97.7109 140.5,98.5 Z"/></g>
<g><path style="opacity:1" fill="#060301" d="M 144.5,102.5 C 144.631,101.761 144.464,101.094 144,100.5C 143.329,101.252 142.496,101.586 141.5,101.5C 143.236,98.8434 145.736,97.1768 149,96.5C 149.925,97.0465 150.758,97.7132 151.5,98.5C 152.585,101.773 152.752,105.106 152,108.5C 151.588,110.997 150.422,112.997 148.5,114.5C 148.789,111.063 148.456,107.397 147.5,103.5C 147.124,101.197 146.124,100.863 144.5,102.5 Z"/></g>
<g><path style="opacity:1" fill="#fea700" d="M 115.5,100.5 C 116.466,97.8753 117.466,97.8753 118.5,100.5C 117.575,101.562 116.575,101.562 115.5,100.5 Z"/></g>
<g><path style="opacity:1" fill="#fea700" d="M 122.5,98.5 C 123.468,101.445 123.634,104.445 123,107.5C 122.697,105.112 121.863,102.945 120.5,101C 121.066,100.005 121.733,99.172 122.5,98.5 Z"/></g>
<g><path style="opacity:1" fill="#fea700" d="M 130.5,98.5 C 130.559,103.104 130.892,107.771 131.5,112.5C 132.327,108.541 132.827,104.541 133,100.5C 133.333,100.167 133.667,99.8333 134,99.5C 134.495,101.473 134.662,103.473 134.5,105.5C 133.527,107.948 133.194,110.615 133.5,113.5C 132.167,113.5 130.833,113.5 129.5,113.5C 129.167,102.833 128.833,102.833 128.5,113.5C 127.167,113.5 125.833,113.5 124.5,113.5C 124.146,109.363 124.646,105.363 126,101.5C 126.127,103.634 125.961,105.801 125.5,108C 125.454,109.728 125.954,111.228 127,112.5C 127.313,107.493 128.48,102.827 130.5,98.5 Z"/></g>
<g><path style="opacity:1" fill="#fea700" d="M 147.5,98.5 C 148.496,98.4142 149.329,98.7476 150,99.5C 150.667,103.167 150.667,106.833 150,110.5C 149.857,106.279 149.023,102.279 147.5,98.5 Z"/></g>
<g><path style="opacity:1" fill="#fea700" d="M 116.5,107.5 C 116.92,109.094 117.586,110.594 118.5,112C 118.167,112.5 117.833,113 117.5,113.5C 114.727,109.223 111.393,105.39 107.5,102C 108.025,101.308 108.692,100.808 109.5,100.5C 111.621,103.103 113.954,105.436 116.5,107.5 Z"/></g>
<g><path style="opacity:1" fill="#002b72" d="M 112.5,100.5 C 113.5,100.5 114.5,100.5 115.5,100.5C 115.821,102.048 116.821,102.715 118.5,102.5C 118.662,104.527 118.495,106.527 118,108.5C 117.617,107.944 117.117,107.611 116.5,107.5C 115.431,105.031 114.098,102.698 112.5,100.5 Z"/></g>
<g><path style="opacity:1" fill="#fea700" d="M 134.5,105.5 C 135.181,103.842 136.015,102.175 137,100.5C 137.617,101.449 137.451,102.282 136.5,103C 137.308,103.308 137.975,103.808 138.5,104.5C 137.047,107.298 136.047,110.298 135.5,113.5C 134.52,110.914 134.187,108.247 134.5,105.5 Z"/></g>
<g><path style="opacity:1" fill="#fea700" d="M 144.5,102.5 C 143.094,102.973 142.427,103.973 142.5,105.5C 140.837,107.493 139.67,109.826 139,112.5C 138.346,113.696 137.846,113.696 137.5,112.5C 138.615,111.402 138.615,110.235 137.5,109C 139.498,106.836 140.832,104.336 141.5,101.5C 142.496,101.586 143.329,101.252 144,100.5C 144.464,101.094 144.631,101.761 144.5,102.5 Z"/></g>
<g><path style="opacity:1" fill="#fea700" d="M 108.5,108.5 C 107.883,108.611 107.383,108.944 107,109.5C 106.379,102.352 106.879,102.018 108.5,108.5 Z"/></g>
<g><path style="opacity:1" fill="#fea700" d="M 120.5,111.5 C 122.983,111.73 123.483,112.397 122,113.5C 120.97,113.164 120.47,112.497 120.5,111.5 Z"/></g>
<g><path style="opacity:1" fill="#f5a003" d="M 131.5,123.5 C 131.636,126.02 131.302,128.686 130.5,131.5C 131.401,132.29 132.068,133.29 132.5,134.5C 133.167,134.5 133.833,134.5 134.5,134.5C 134.833,134.5 135.167,134.5 135.5,134.5C 136.302,133.048 136.802,131.382 137,129.5C 137.21,131.058 137.71,132.391 138.5,133.5C 138.564,140.035 140.564,145.702 144.5,150.5C 143.022,150.762 141.689,150.429 140.5,149.5C 139.972,147.664 139.306,145.997 138.5,144.5C 137.566,143.432 137.232,142.099 137.5,140.5C 137.547,135.581 136.547,135.581 134.5,140.5C 134.981,143.083 135.648,145.583 136.5,148C 135.874,148.75 135.374,149.584 135,150.5C 134.333,147.833 133.667,145.167 133,142.5C 132.667,144.833 132.333,147.167 132,149.5C 131.667,147.833 131.333,146.167 131,144.5C 130.242,146.769 130.409,148.936 131.5,151C 130.207,151.49 128.873,151.657 127.5,151.5C 127.671,148.203 127.005,147.869 125.5,150.5C 124.571,149.311 124.238,147.978 124.5,146.5C 125.961,138.485 126.961,130.318 127.5,122C 124.21,121.747 121.21,120.747 118.5,119C 123.167,118.667 127.833,118.333 132.5,118C 127.511,117.501 122.511,117.334 117.5,117.5C 117.5,117.167 117.5,116.833 117.5,116.5C 118.261,115.609 119.261,114.942 120.5,114.5C 126.449,115.292 132.449,115.792 138.5,116C 137.185,117.395 137.519,118.395 139.5,119C 136.7,120.232 133.7,120.899 130.5,121C 131.252,121.671 131.586,122.504 131.5,123.5 Z"/></g>
<g><path style="opacity:1" fill="#000000" d="M 35.5,117.5 C 40.2011,118.354 44.8677,118.521 49.5,118C 51.8147,119.109 53.3147,120.943 54,123.5C 55.1131,122.289 56.2798,122.289 57.5,123.5C 58.1047,126.304 58.938,128.971 60,131.5C 61.2121,134.834 60.3788,137.334 57.5,139C 59.5653,143.291 58.232,145.957 53.5,147C 50.6705,152.828 47.5038,152.995 44,147.5C 42.2701,150.548 39.7701,151.214 36.5,149.5C 34.8718,147.681 32.8718,146.347 30.5,145.5C 29.1667,144.167 29.1667,142.833 30.5,141.5C 29.2402,140.618 28.0736,139.618 27,138.5C 27.8979,134.351 28.5645,130.018 29,125.5C 31.8831,123.392 34.0497,120.725 35.5,117.5 Z"/></g>
<g><path style="opacity:1" fill="#fea700" d="M 36.5,119.5 C 40.8692,120.418 45.2026,120.584 49.5,120C 52.0164,122.854 51.6831,125.521 48.5,128C 49.9437,128.781 51.277,128.614 52.5,127.5C 53.2768,125.461 54.4435,124.795 56,125.5C 57.1181,129.156 57.7848,132.823 58,136.5C 55.7328,137.935 53.7328,137.602 52,135.5C 51.8333,136 51.6667,136.5 51.5,137C 52.9023,138.88 54.5689,140.547 56.5,142C 53.3555,143.811 50.8555,146.311 49,149.5C 46.2452,147.99 45.0785,145.657 45.5,142.5C 41.9319,142.759 40.5985,144.759 41.5,148.5C 38.2213,146.929 34.8879,145.262 31.5,143.5C 32.8333,141.5 34.1667,139.5 35.5,137.5C 35.1667,137.167 34.8333,136.833 34.5,136.5C 32.8273,138.086 30.8273,138.753 28.5,138.5C 30.0628,134.339 30.7295,130.005 30.5,125.5C 31.9778,125.238 33.3112,125.571 34.5,126.5C 35.1604,128.96 36.4937,129.626 38.5,128.5C 37.1667,126.833 35.8333,125.167 34.5,123.5C 35.1799,122.14 35.8466,120.807 36.5,119.5 Z"/></g>
<g><path style="opacity:1" fill="#fea700" d="M 138.5,126.5 C 137.778,126.082 137.278,125.416 137,124.5C 136.667,125.833 136.333,127.167 136,128.5C 135.802,126.618 135.302,124.952 134.5,123.5C 134.47,122.503 134.97,121.836 136,121.5C 138.157,122.385 138.99,124.052 138.5,126.5 Z"/></g>
<g><path style="opacity:1" fill="#fea700" d="M 134.5,123.5 C 134.724,127.179 135.058,130.846 135.5,134.5C 135.167,134.5 134.833,134.5 134.5,134.5C 132.971,131.009 131.971,127.342 131.5,123.5C 132.5,122.167 133.5,122.167 134.5,123.5 Z"/></g>
<g><path style="opacity:1" fill="#000000" d="M 128.5,128.5 C 127.742,126.624 127.742,124.957 128.5,123.5C 129.666,125.167 129.666,126.834 128.5,128.5 Z"/></g>
<g><path style="opacity:1" fill="#000000" d="M 131.5,123.5 C 131.971,127.342 132.971,131.009 134.5,134.5C 133.833,134.5 133.167,134.5 132.5,134.5C 132.068,133.29 131.401,132.29 130.5,131.5C 131.302,128.686 131.636,126.02 131.5,123.5 Z"/></g>
<g><path style="opacity:1" fill="#000000" d="M 134.5,123.5 C 135.302,124.952 135.802,126.618 136,128.5C 136.333,127.167 136.667,125.833 137,124.5C 137.278,125.416 137.778,126.082 138.5,126.5C 138.5,128.833 138.5,131.167 138.5,133.5C 137.71,132.391 137.21,131.058 137,129.5C 136.802,131.382 136.302,133.048 135.5,134.5C 135.058,130.846 134.724,127.179 134.5,123.5 Z"/></g>
<g><path style="opacity:1" fill="#fea700" d="M 138.5,126.5 C 139.833,130.5 141.167,134.5 142.5,138.5C 142.394,141.079 143.061,143.412 144.5,145.5C 144.154,147.705 143.487,147.872 142.5,146C 141.532,141.596 140.198,137.429 138.5,133.5C 138.5,131.167 138.5,128.833 138.5,126.5 Z"/></g>
<g><path style="opacity:1" fill="#000000" d="M 42.5,128.5 C 49.2383,129.061 50.9049,132.228 47.5,138C 42.9666,139.628 39.9666,138.295 38.5,134C 39.0074,131.455 40.3407,129.621 42.5,128.5 Z"/></g>
<g><path style="opacity:1" fill="#000000" d="M 128.5,128.5 C 129.167,129.5 129.833,130.5 130.5,131.5C 130.665,134.518 130.498,137.518 130,140.5C 129.667,138.167 129.333,135.833 129,133.5C 128.941,138.348 128.274,143.015 127,147.5C 127.027,141.117 127.527,134.784 128.5,128.5 Z"/></g>
<g><path style="opacity:1" fill="#fea700" d="M 42.5,130.5 C 47.7473,130.64 48.7473,132.806 45.5,137C 40.3823,136.824 39.3823,134.658 42.5,130.5 Z"/></g>
<g><path style="opacity:1" fill="#fefffe" d="M -0.5,131.5 C 6.25968,171.928 29.593,196.928 69.5,206.5C 46.1667,206.5 22.8333,206.5 -0.5,206.5C -0.5,181.5 -0.5,156.5 -0.5,131.5 Z"/></g>
<g><path style="opacity:1" fill="#000000" d="M 138.5,133.5 C 140.198,137.429 141.532,141.596 142.5,146C 143.487,147.872 144.154,147.705 144.5,145.5C 146.922,147.286 146.922,148.952 144.5,150.5C 140.564,145.702 138.564,140.035 138.5,133.5 Z"/></g>
<g><path style="opacity:1" fill="#fefffe" d="M 165.5,133.5 C 165.5,157.833 165.5,182.167 165.5,206.5C 142.167,206.5 118.833,206.5 95.5,206.5C 134.169,196.831 157.503,172.498 165.5,133.5 Z"/></g>
<g><path style="opacity:1" fill="#000000" d="M 132.5,134.5 C 132.851,136.869 133.018,139.203 133,141.5C 131.272,139.181 131.105,136.847 132.5,134.5 Z"/></g>
<g><path style="opacity:1" fill="#010001" d="M 117.5,117.5 C 122.511,117.334 127.511,117.501 132.5,118C 127.833,118.333 123.167,118.667 118.5,119C 121.21,120.747 124.21,121.747 127.5,122C 126.961,130.318 125.961,138.485 124.5,146.5C 124.238,147.978 124.571,149.311 125.5,150.5C 127.005,147.869 127.671,148.203 127.5,151.5C 128.873,151.657 130.207,151.49 131.5,151C 130.409,148.936 130.242,146.769 131,144.5C 131.333,146.167 131.667,147.833 132,149.5C 132.333,147.167 132.667,144.833 133,142.5C 133.667,145.167 134.333,147.833 135,150.5C 135.374,149.584 135.874,148.75 136.5,148C 135.648,145.583 134.981,143.083 134.5,140.5C 136.547,135.581 137.547,135.581 137.5,140.5C 136.264,143.818 136.597,147.151 138.5,150.5C 138.833,150.333 139.167,150.167 139.5,150C 138.594,148.301 138.261,146.467 138.5,144.5C 139.306,145.997 139.972,147.664 140.5,149.5C 141.689,150.429 143.022,150.762 144.5,150.5C 144.389,151.117 144.056,151.617 143.5,152C 138.977,152.32 134.477,152.82 130,153.5C 127.849,153.227 125.849,152.561 124,151.5C 118.756,152.969 113.756,152.303 109,149.5C 108.333,148.167 108.333,146.833 109,145.5C 113.384,136.629 116.217,127.296 117.5,117.5 Z"/></g>
<g><path style="opacity:1" fill="#000000" d="M 120.5,129.5 C 119.833,130.167 119.167,130.833 118.5,131.5C 118.491,129.692 118.991,128.025 120,126.5C 120.483,127.448 120.649,128.448 120.5,129.5 Z"/></g>
<g><path style="opacity:1" fill="#fea700" d="M 124.5,125.5 C 124.734,132.299 124.734,139.299 124.5,146.5C 123.839,147.718 123.172,149.051 122.5,150.5C 121.808,149.975 121.308,149.308 121,148.5C 119.856,152.321 118.356,152.488 116.5,149C 119.03,143.95 120.364,138.783 120.5,133.5C 119.125,138.663 117.292,143.663 115,148.5C 115.988,142.87 117.154,137.203 118.5,131.5C 119.167,130.833 119.833,130.167 120.5,129.5C 121.126,130.529 121.959,131.529 123,132.5C 123.662,130.187 124.162,127.854 124.5,125.5 Z"/></g>
<g><path style="opacity:1" fill="#fea700" d="M 124.5,125.5 C 123.224,124.614 123.224,123.614 124.5,122.5C 125.562,123.425 125.562,124.425 124.5,125.5 Z"/></g>
<g><path style="opacity:1" fill="#fea700" d="M 120.5,129.5 C 120.649,128.448 120.483,127.448 120,126.5C 118.991,128.025 118.491,129.692 118.5,131.5C 117.167,133.833 115.833,136.167 114.5,138.5C 115.627,133.118 116.961,127.784 118.5,122.5C 119.833,122.5 121.167,122.5 122.5,122.5C 122.662,124.527 122.495,126.527 122,128.5C 121.617,129.056 121.117,129.389 120.5,129.5 Z"/></g>
<g><path style="opacity:1" fill="#fea700" d="M 114.5,138.5 C 114.741,140.898 114.074,142.898 112.5,144.5C 112.595,142.214 113.262,140.214 114.5,138.5 Z"/></g>
<g><path style="opacity:1" fill="#000000" d="M 121.5,139.5 C 122.909,142.178 122.743,144.844 121,147.5C 120.825,144.843 120.992,142.176 121.5,139.5 Z"/></g>
<g><path style="opacity:1" fill="#fea700" d="M 137.5,140.5 C 137.232,142.099 137.566,143.432 138.5,144.5C 138.261,146.467 138.594,148.301 139.5,150C 139.167,150.167 138.833,150.333 138.5,150.5C 136.597,147.151 136.264,143.818 137.5,140.5 Z"/></g>
<g><path style="opacity:1" fill="#fea700" d="M 112.5,144.5 C 112.719,145.675 112.386,146.675 111.5,147.5C 110.335,146.14 110.668,145.14 112.5,144.5 Z"/></g>
</svg>
