<?xml version="1.0" encoding="UTF-8"?>
<!DOCTYPE svg PUBLIC "-//W3C//DTD SVG 1.1//EN" "http://www.w3.org/Graphics/SVG/1.1/DTD/svg11.dtd">
<svg xmlns="http://www.w3.org/2000/svg" version="1.1" width="166px" height="207px" style="shape-rendering:geometricPrecision; text-rendering:geometricPrecision; image-rendering:optimizeQuality; fill-rule:evenodd; clip-rule:evenodd" xmlns:xlink="http://www.w3.org/1999/xlink">
<g><path style="opacity:1" fill="#000000" d="M -0.5,-0.5 C 54.8333,-0.5 110.167,-0.5 165.5,-0.5C 165.5,43.8333 165.5,88.1667 165.5,132.5C 160.089,165.759 141.756,188.926 110.5,202C 105.336,203.369 100.336,204.869 95.5,206.5C 86.8333,206.5 78.1667,206.5 69.5,206.5C 29.5124,196.512 6.17911,171.179 -0.5,130.5C -0.5,86.8333 -0.5,43.1667 -0.5,-0.5 Z"/></g>
<g><path style="opacity:1" fill="#e10a15" d="M 30.5,3.5 C 33.3245,3.08073 35.4912,4.08073 37,6.5C 37.5396,8.13459 37.0396,9.46792 35.5,10.5C 36.9187,12.9146 38.5854,13.0813 40.5,11C 38.0807,8.47365 38.7473,6.64031 42.5,5.5C 43.3081,5.80762 43.9747,6.30762 44.5,7C 43.1437,9.39755 41.9771,11.8976 41,14.5C 40.2753,13.9415 39.4419,13.6082 38.5,13.5C 33.5007,14.8861 28.5007,15.2194 23.5,14.5C 23.054,11.7235 22.054,9.22354 20.5,7C 21.4162,6.62576 22.2496,6.12576 23,5.5C 24.3068,6.77167 25.8068,7.77167 27.5,8.5C 26.6906,10.0709 26.3573,11.7376 26.5,13.5C 29.9496,14.2436 31.6162,12.9103 31.5,9.5C 30.325,9.71901 29.325,9.38568 28.5,8.5C 29.9501,7.15017 30.6168,5.4835 30.5,3.5 Z"/></g>
<g><path style="opacity:1" fill="#fefffe" d="M 77.5,3.5 C 80.8333,3.5 84.1667,3.5 87.5,3.5C 87.5,69.8333 87.5,136.167 87.5,202.5C 84.1667,202.5 80.8333,202.5 77.5,202.5C 77.5,136.167 77.5,69.8333 77.5,3.5 Z"/></g>
<g><path style="opacity:1" fill="#fea600" d="M 155.5,134.5 C 154.167,135.167 154.167,135.833 155.5,136.5C 154.517,137.85 153.184,138.85 151.5,139.5C 153.931,140.36 155.264,142.027 155.5,144.5C 153.508,144.328 151.842,144.995 150.5,146.5C 148.978,138.79 147.812,139.123 147,147.5C 145.4,146.134 143.567,145.134 141.5,144.5C 142.145,143.354 142.978,142.354 144,141.5C 144.749,140.365 144.583,139.365 143.5,138.5C 141.021,142.568 139.354,142.235 138.5,137.5C 138.312,135.897 138.812,134.563 140,133.5C 141.44,136.335 143.273,136.835 145.5,135C 143.566,130.208 141.066,125.708 138,121.5C 137.333,122.167 136.667,122.833 136,123.5C 134.757,115.278 132.757,107.278 130,99.5C 129.302,111.903 129.969,124.237 132,136.5C 133.733,143.963 136.566,150.963 140.5,157.5C 139.635,158.583 138.635,158.749 137.5,158C 134.567,155.736 132.4,152.902 131,149.5C 130.346,148.304 129.846,148.304 129.5,149.5C 130.663,157.16 133.663,163.994 138.5,170C 137.451,170.492 136.451,170.326 135.5,169.5C 133.476,167.31 131.643,164.977 130,162.5C 128.124,182.303 125.79,182.303 123,162.5C 122.015,165.983 119.849,168.316 116.5,169.5C 117.744,166.273 118.91,162.939 120,159.5C 120.868,156.515 121.201,153.515 121,150.5C 118.537,153.965 115.704,157.131 112.5,160C 111.668,160.688 111.002,160.521 110.5,159.5C 120.495,141.173 124.661,121.507 123,100.5C 119.672,108.489 118.005,116.822 118,125.5C 117.077,124.241 116.243,122.908 115.5,121.5C 112.776,125.78 110.443,130.28 108.5,135C 108.833,135.5 109.167,136 109.5,136.5C 110.968,134.667 112.635,134.334 114.5,135.5C 113.05,136.85 112.383,138.516 112.5,140.5C 110.61,140.703 109.11,140.037 108,138.5C 107.403,140.924 108.237,142.757 110.5,144C 108.169,144.963 105.503,146.13 102.5,147.5C 101.713,146.758 101.047,145.925 100.5,145C 99.5632,144.308 98.8966,144.475 98.5,145.5C 96.7748,145.157 96.2748,144.157 97,142.5C 98.9045,141.842 100.405,140.675 101.5,139C 99.5256,137.678 97.6922,138.178 96,140.5C 96.6923,137.538 96.5256,134.538 95.5,131.5C 98.0277,132.023 100.361,133.023 102.5,134.5C 104.088,133.99 105.255,132.99 106,131.5C 107.402,127.793 108.902,124.126 110.5,120.5C 108.761,120.406 106.761,120.239 104.5,120C 105.931,119.535 107.097,118.701 108,117.5C 114.003,104.483 116.669,90.8166 116,76.5C 113.814,87.5352 110.481,98.2019 106,108.5C 103.412,112.676 100.579,116.676 97.5,120.5C 96.5,121.833 95.5,121.833 94.5,120.5C 100.518,107.093 104.018,93.0931 105,78.5C 103.417,85.5009 99.9174,91.3342 94.5,96C 93.5,96.6667 92.5,96.6667 91.5,96C 96.3011,86.6067 99.4678,76.7734 101,66.5C 99.2649,71.4442 96.0982,74.1108 91.5,74.5C 95.055,68.6052 96.8883,62.2719 97,55.5C 95.7592,57.4206 94.2592,57.754 92.5,56.5C 95.1285,50.3062 96.9619,43.9728 98,37.5C 96.3745,40.1277 94.3745,42.461 92,44.5C 92.6623,40.5174 93.6623,36.5174 95,32.5C 96.368,26.5668 97.2014,20.5668 97.5,14.5C 105.43,14.9537 109.43,19.1204 109.5,27C 107.241,35.2015 108.574,42.7015 113.5,49.5C 114.85,50.9501 116.516,51.6168 118.5,51.5C 118.86,47.6159 120.193,44.1159 122.5,41C 120.714,40.8038 119.381,39.9705 118.5,38.5C 122.26,37.0735 124.594,34.4068 125.5,30.5C 126.795,29.9017 128.128,29.4017 129.5,29C 125.793,29.2886 122.126,29.122 118.5,28.5C 117.572,27.2322 117.405,25.8989 118,24.5C 119.808,26.3959 121.975,26.8959 124.5,26C 125.801,24.3845 125.801,22.8845 124.5,21.5C 122.473,18.0645 119.639,17.0645 116,18.5C 115.5,18 115,17.5 114.5,17C 115.167,15.3333 115.833,13.6667 116.5,12C 119.494,11.4867 122.161,10.32 124.5,8.5C 128.081,9.26976 131.581,10.2698 135,11.5C 137.207,10.9703 139.207,9.97025 141,8.5C 138.967,15.1035 138.134,22.1035 138.5,29.5C 139.5,29.5 140.5,29.5 141.5,29.5C 138.047,36.2547 135.381,43.4214 133.5,51C 135.059,52.7557 136.726,52.7557 138.5,51C 146.204,42.6525 147.537,33.3191 142.5,23C 145.679,17.9133 150.346,15.7466 156.5,16.5C 157.532,25.6027 159.199,34.6027 161.5,43.5C 161.633,46.9067 160.466,47.2401 158,44.5C 157.333,43.1667 156.667,41.8333 156,40.5C 155.833,41.1667 155.667,41.8333 155.5,42.5C 157.366,47.7294 159.366,52.896 161.5,58C 161.167,58.8333 160.833,59.6667 160.5,60.5C 158.142,58.9757 156.309,56.9757 155,54.5C 156.92,61.2652 159.086,68.0986 161.5,75C 161.333,75.8333 161.167,76.6667 161,77.5C 156.761,74.5862 154.094,70.5862 153,65.5C 153.863,77.118 156.696,88.2847 161.5,99C 158.854,98.0797 156.354,96.5797 154,94.5C 152.138,90.5811 150.471,86.5811 149,82.5C 150.55,95.7961 154.05,108.629 159.5,121C 156.449,121.197 153.949,120.031 152,117.5C 146.608,104.657 141.608,91.6567 137,78.5C 136.296,92.8736 139.462,106.54 146.5,119.5C 145.167,119.5 143.833,119.5 142.5,119.5C 144.5,124.167 146.5,128.833 148.5,133.5C 149.325,134.386 150.325,134.719 151.5,134.5C 153.162,129.464 154.495,129.464 155.5,134.5 Z"/></g>
<g><path style="opacity:1" fill="#181818" d="M 127.5,13.5 C 126.473,15.184 125.473,16.8506 124.5,18.5C 122.649,17.1336 122.316,15.467 123.5,13.5C 122.975,12.8076 122.308,12.3076 121.5,12C 123.881,11.2615 125.881,11.7615 127.5,13.5 Z"/></g>
<g><path style="opacity:1" fill="#eaeaea" d="M 127.5,13.5 C 127.833,13.5 128.167,13.5 128.5,13.5C 128.5,14.8333 128.5,16.1667 128.5,17.5C 127.432,18.4345 126.099,18.7678 124.5,18.5C 125.473,16.8506 126.473,15.184 127.5,13.5 Z"/></g>
<g><path style="opacity:1" fill="#000000" d="M 128.5,13.5 C 132.838,13.6219 133.172,13.9553 129.5,14.5C 129.737,15.791 129.404,16.791 128.5,17.5C 128.5,16.1667 128.5,14.8333 128.5,13.5 Z"/></g>
<g><path style="opacity:1" fill="#fea700" d="M 54.5,53.5 C 52.8008,53.3398 51.1341,53.5065 49.5,54C 50.6364,55.1451 51.6364,56.3117 52.5,57.5C 53.4444,61.6455 55.4444,62.3121 58.5,59.5C 59.731,60.6507 59.731,61.8173 58.5,63C 56.5273,63.4955 54.5273,63.6621 52.5,63.5C 52.7777,68.1098 54.7777,71.7765 58.5,74.5C 57.8333,74.8333 57.1667,75.1667 56.5,75.5C 54.484,74.8224 52.484,74.1557 50.5,73.5C 47.3854,66.7094 45.3854,67.2094 44.5,75C 44.1639,76.0299 43.4972,76.5299 42.5,76.5C 40.9867,74.4839 40.1534,72.1506 40,69.5C 39.6585,73.5417 37.9918,76.875 35,79.5C 35.7847,72.2799 33.9513,71.1132 29.5,76C 27.8659,76.4935 26.1992,76.6602 24.5,76.5C 26.1588,70.2441 26.9921,63.9107 27,57.5C 25.8668,59.2112 24.3668,59.7112 22.5,59C 23,58.5 23.5,58 24,57.5C 24.6667,53.8333 24.6667,50.1667 24,46.5C 22.8668,48.2112 21.3668,48.7112 19.5,48C 21.358,43.7357 22.0247,39.4024 21.5,35C 20.451,34.5078 19.451,34.6744 18.5,35.5C 17.6485,31.2814 18.6485,27.4481 21.5,24C 20.6919,23.6924 20.0253,23.1924 19.5,22.5C 20.2624,22.0894 21.2624,21.9227 22.5,22C 22.0037,20.0036 21.0037,18.3369 19.5,17C 21.6512,14.9785 23.1512,15.4785 24,18.5C 24.5,18 25,17.5 25.5,17C 30.7926,16.023 36.1259,15.523 41.5,15.5C 41.5,16.5 41.5,17.5 41.5,18.5C 47.2611,18.7088 47.5945,19.5422 42.5,21C 46.6606,23.168 46.494,25.0013 42,26.5C 40,25.8333 38,25.1667 36,24.5C 32.0344,26.6646 31.5344,29.498 34.5,33C 36.5269,33.4978 38.5269,33.3311 40.5,32.5C 43.2811,32.9014 44.2811,34.2347 43.5,36.5C 42.452,35.6171 41.2853,34.9504 40,34.5C 35.9497,37.0709 31.9497,37.0709 28,34.5C 27.6667,32.8333 27.3333,31.1667 27,29.5C 26.3333,31.8333 26.3333,34.1667 27,36.5C 29.9831,37.9165 33.1498,38.7499 36.5,39C 40.4203,43.7803 44.0869,43.6136 47.5,38.5C 49.0656,42.137 48.0656,44.8037 44.5,46.5C 48.1417,47.7696 51.8084,48.9362 55.5,50C 54.6634,51.0113 54.33,52.1779 54.5,53.5 Z"/></g>
<g><path style="opacity:1" fill="#e10a15" d="M 63.5,20.5 C 64.084,18.0588 65.4173,16.5588 67.5,16C 66.7171,18.1184 65.3838,19.6184 63.5,20.5 Z"/></g>
<g><path style="opacity:1" fill="#000000" d="M 37.5,18.5 C 36.5,19.5 35.5,20.5 34.5,21.5C 32.9142,20.8519 31.2475,20.3519 29.5,20C 31.8689,19.4641 33.8689,18.2974 35.5,16.5C 36.5223,16.8555 37.189,17.5222 37.5,18.5 Z"/></g>
<g><path style="opacity:1" fill="#e10a15" d="M 124.5,21.5 C 124.631,22.3764 124.298,23.0431 123.5,23.5C 119.511,22.8934 115.511,22.2267 111.5,21.5C 110.515,19.9017 110.349,18.235 111,16.5C 111.309,17.7659 111.809,18.9326 112.5,20C 116.491,20.6417 120.491,21.1417 124.5,21.5 Z"/></g>
<g><path style="opacity:1" fill="#000000" d="M 37.5,18.5 C 41.2861,18.638 41.2861,19.3047 37.5,20.5C 37.5,19.8333 37.5,19.1667 37.5,18.5 Z"/></g>
<g><path style="opacity:1" fill="#e10a15" d="M 57.5,24.5 C 56.5041,24.4142 55.6708,24.7476 55,25.5C 53.5197,23.3369 53.5197,21.3369 55,19.5C 55.3661,21.4517 56.1995,23.1184 57.5,24.5 Z"/></g>
<g><path style="opacity:1" fill="#e4e4e4" d="M 37.5,18.5 C 37.5,19.1667 37.5,19.8333 37.5,20.5C 36.791,21.404 35.791,21.7373 34.5,21.5C 35.5,20.5 36.5,19.5 37.5,18.5 Z"/></g>
<g><path style="opacity:1" fill="#fda500" d="M 63.5,20.5 C 64.9302,22.1548 65.7635,24.1548 66,26.5C 67.0113,25.6634 68.1779,25.33 69.5,25.5C 67.7371,28.7118 68.4037,31.2118 71.5,33C 68.8586,35.0151 66.692,34.5151 65,31.5C 62.6757,34.6855 63.5091,36.3522 67.5,36.5C 67.5,37.8333 67.5,39.1667 67.5,40.5C 66.5084,40.3284 65.8417,40.6618 65.5,41.5C 64.5,41.5 63.5,41.5 62.5,41.5C 62.7852,39.712 62.4519,38.0453 61.5,36.5C 60.4357,43.5233 59.269,50.5233 58,57.5C 56.1899,60.0176 54.3566,60.0176 52.5,57.5C 53.1667,56.1667 53.8333,54.8333 54.5,53.5C 55.1174,53.3893 55.6174,53.056 56,52.5C 56.6667,50.5 56.6667,48.5 56,46.5C 54.9505,47.5171 53.7839,47.6838 52.5,47C 54.5914,42.3163 56.2581,37.4829 57.5,32.5C 54.663,31.4905 53.3297,29.4905 53.5,26.5C 55.3797,26.7709 56.713,26.1042 57.5,24.5C 58.1614,25.7175 58.8281,27.0508 59.5,28.5C 60.4147,27.6721 61.0814,26.6721 61.5,25.5C 57.3092,22.2015 57.9759,20.5348 63.5,20.5 Z"/></g>
<g><path style="opacity:1" fill="#e10a15" d="M 46.5,26.5 C 49.7181,26.6509 50.0515,27.4842 47.5,29C 42.6495,29.9342 37.9828,29.6009 33.5,28C 38.0428,28.8539 42.3762,28.3539 46.5,26.5 Z"/></g>
<g><path style="opacity:1" fill="#e10a15" d="M 71.5,26.5 C 76.4206,26.8473 76.2539,27.8473 71,29.5C 70.5304,28.4232 70.6971,27.4232 71.5,26.5 Z"/></g>
<g><path style="opacity:1" fill="#fea600" d="M 46.5,158.5 C 45.2878,160.264 45.6212,161.93 47.5,163.5C 46.6086,164.59 45.6086,164.59 44.5,163.5C 43.5,163.833 42.8333,164.5 42.5,165.5C 44.8756,165.977 47.2089,167.143 49.5,169C 46.4061,169.471 44.7394,171.304 44.5,174.5C 43.1667,172.5 41.8333,170.5 40.5,168.5C 41.2929,170.742 41.2929,173.242 40.5,176C 38.1238,176.09 35.7905,175.59 33.5,174.5C 34.3128,173.186 35.3128,172.019 36.5,171C 35.0826,168.174 33.5826,168.007 32,170.5C 31.51,171.793 31.3433,173.127 31.5,174.5C 30.448,174.649 29.448,174.483 28.5,174C 29.8333,172.667 29.8333,171.333 28.5,170C 26.2852,169.83 24.2852,169.163 22.5,168C 23.8985,165.438 25.5652,165.105 27.5,167C 29.1667,167.667 30.8333,167.667 32.5,167C 33.4239,166.15 33.4239,165.15 32.5,164C 27.9199,159.668 24.7533,154.502 23,148.5C 21.2663,147.751 19.433,147.251 17.5,147C 15.7888,145.867 15.2888,144.367 16,142.5C 20.6547,144.249 23.1547,142.582 23.5,137.5C 21.8714,132.185 20.2047,126.852 18.5,121.5C 11.2885,123.115 7.28847,120.281 6.5,113C 8.08807,105.481 9.75474,97.9812 11.5,90.5C 11.2501,86.5758 9.75007,83.2425 7,80.5C 6.33333,77.5 6.33333,74.5 7,71.5C 9,74.8333 11,78.1667 13,81.5C 13.6667,79.1667 13.6667,76.8333 13,74.5C 7.48591,70.162 6.15257,64.8287 9,58.5C 9.16649,63.1663 11.1665,66.833 15,69.5C 15.1667,69 15.3333,68.5 15.5,68C 12.4203,61.8389 9.08695,55.8389 5.5,50C 6.60796,46.0088 8.10796,42.1754 10,38.5C 11.6097,48.6077 14.6097,58.2744 19,67.5C 19.8045,73.5692 19.4712,79.5692 18,85.5C 13.3758,95.0231 11.0425,105.023 11,115.5C 13.6667,118.167 16.3333,118.167 19,115.5C 20.6209,106.969 23.6209,98.9693 28,91.5C 28.3333,87.1667 28.6667,82.8333 29,78.5C 31.5525,75.8059 32.7192,76.4726 32.5,80.5C 38.4553,84.1444 44.7886,87.311 51.5,90C 48.6667,93.5 45.5,96.6667 42,99.5C 40.0331,103.401 38.6997,107.401 38,111.5C 41.8702,109.566 45.8702,107.9 50,106.5C 54.2543,108.71 58.421,111.043 62.5,113.5C 64.1338,113.032 65.3005,112.032 66,110.5C 66.6667,112.167 66.6667,113.833 66,115.5C 63.3713,115.928 61.038,116.928 59,118.5C 58.3718,122.715 57.5384,126.882 56.5,131C 56.3627,133.556 57.196,135.723 59,137.5C 60.2692,136.095 60.7692,134.429 60.5,132.5C 62.8669,133.164 64.8669,134.497 66.5,136.5C 65.1763,137.935 63.5096,138.935 61.5,139.5C 63.3591,142.019 65.3591,142.019 67.5,139.5C 68.0574,141.718 68.0574,144.051 67.5,146.5C 63.8488,145.849 60.6822,144.182 58,141.5C 57.3333,142.167 57.3333,142.833 58,143.5C 59.7137,145.043 61.2137,146.71 62.5,148.5C 62.3333,149.167 62.1667,149.833 62,150.5C 60.9887,149.663 59.8221,149.33 58.5,149.5C 58.5,150.5 58.5,151.5 58.5,152.5C 54.2105,152.256 53.5439,150.589 56.5,147.5C 56,146.5 55.5,145.5 55,144.5C 54.1241,146.725 52.9574,148.725 51.5,150.5C 51.0424,147.308 49.3757,145.142 46.5,144C 47.2106,142.745 48.044,141.579 49,140.5C 50.5553,142.515 52.3886,142.848 54.5,141.5C 52.6938,136.945 51.1938,132.279 50,127.5C 49.3005,129.032 48.1338,130.032 46.5,130.5C 47.2929,128.258 47.2929,125.758 46.5,123C 43.4603,120.845 40.627,121.012 38,123.5C 36.8732,120.623 36.2065,117.623 36,114.5C 36.4181,120.847 36.2514,127.18 35.5,133.5C 35.5626,137.528 37.2293,140.695 40.5,143C 37.2583,143.986 34.5917,143.152 32.5,140.5C 31.3703,148.231 33.0369,155.397 37.5,162C 38.635,162.749 39.635,162.583 40.5,161.5C 40.9121,159.113 41.9121,157.113 43.5,155.5C 45.2131,155.879 46.2131,156.879 46.5,158.5 Z"/></g>
<g><path style="opacity:1" fill="#e10a15" d="M 67.5,40.5 C 68.0522,42.3307 68.0522,43.9974 67.5,45.5C 65.8888,44.6798 65.2222,43.3464 65.5,41.5C 65.8417,40.6618 66.5084,40.3284 67.5,40.5 Z"/></g>
<g><path style="opacity:1" fill="#000000" d="M 54.5,53.5 C 53.8333,54.8333 53.1667,56.1667 52.5,57.5C 51.6364,56.3117 50.6364,55.1451 49.5,54C 51.1341,53.5065 52.8008,53.3398 54.5,53.5 Z"/></g>
<g><path style="opacity:1" fill="#fea700" d="M 54.5,65.5 C 56.3442,66.2039 56.8442,67.5372 56,69.5C 55.2086,68.255 54.7086,66.9217 54.5,65.5 Z"/></g>
<g><path style="opacity:1" fill="#0e0802" d="M 50.5,73.5 C 48.9256,73.0629 47.7589,72.0629 47,70.5C 46.5026,73.146 46.3359,75.8127 46.5,78.5C 44.5168,78.8432 43.1834,78.1765 42.5,76.5C 43.4972,76.5299 44.1639,76.0299 44.5,75C 45.3854,67.2094 47.3854,66.7094 50.5,73.5 Z"/></g>
<g><path style="opacity:1" fill="#fea600" d="M 50.5,73.5 C 51.4006,75.7271 53.0672,76.7271 55.5,76.5C 55.6567,77.8734 55.49,79.2068 55,80.5C 53.3333,78.8333 51.6667,77.1667 50,75.5C 49.3333,76.1667 49.3333,76.8333 50,77.5C 53.8528,82.2083 58.3528,85.875 63.5,88.5C 63.2436,86.2075 63.5769,84.0408 64.5,82C 65.4491,81.3828 66.2825,81.5494 67,82.5C 67.49,83.7932 67.6567,85.1266 67.5,86.5C 69.1033,86.3118 70.4366,86.8118 71.5,88C 70.0953,89.2692 68.4286,89.7692 66.5,89.5C 66.33,90.8221 66.6634,91.9887 67.5,93C 69.3801,92.4902 71.2134,92.6569 73,93.5C 73.2387,94.788 72.7387,95.788 71.5,96.5C 70.8444,97.2778 70.0111,97.9444 69,98.5C 66.9183,97.5392 65.085,96.2059 63.5,94.5C 63.1667,94.8333 62.8333,95.1667 62.5,95.5C 64.7337,97.3813 66.067,99.7147 66.5,102.5C 64.1667,102.5 61.8333,102.5 59.5,102.5C 60.3635,100.105 60.3635,97.7713 59.5,95.5C 58.6893,97.3909 57.3559,98.7242 55.5,99.5C 53.8333,98.3333 52.1667,97.1667 50.5,96C 50.9981,94.8419 51.8315,94.0085 53,93.5C 54.4162,94.5733 55.7496,94.5733 57,93.5C 57.7112,91.6332 57.2112,90.1332 55.5,89C 49.2491,87.4008 43.4158,84.9008 38,81.5C 38.0322,79.4021 38.6989,77.4021 40,75.5C 40.6708,76.2524 41.5041,76.5858 42.5,76.5C 43.1834,78.1765 44.5168,78.8432 46.5,78.5C 46.3359,75.8127 46.5026,73.146 47,70.5C 47.7589,72.0629 48.9256,73.0629 50.5,73.5 Z"/></g>
<g><path style="opacity:1" fill="#e10a15" d="M 70.5,82.5 C 71.552,82.3505 72.552,82.5172 73.5,83C 72.354,83.6449 71.354,84.4783 70.5,85.5C 67.9548,84.4508 67.9548,83.4508 70.5,82.5 Z"/></g>
<g><path style="opacity:1" fill="#e10a15" d="M 71.5,96.5 C 73.6086,97.0524 74.4419,98.3858 74,100.5C 72.2942,99.6921 71.4609,98.3588 71.5,96.5 Z"/></g>
<g><path style="opacity:1" fill="#e10a15" d="M 51.5,98.5 C 53.8586,99.3887 54.0253,100.722 52,102.5C 50.6658,101.122 50.4991,99.7887 51.5,98.5 Z"/></g>
<g><path style="opacity:1" fill="#e10a15" d="M 62.5,104.5 C 63.2389,104.369 63.9056,104.536 64.5,105C 63.1177,109.705 62.4511,109.539 62.5,104.5 Z"/></g>
<g><path style="opacity:1" fill="#fefffe" d="M -0.5,130.5 C 6.17911,171.179 29.5124,196.512 69.5,206.5C 46.1667,206.5 22.8333,206.5 -0.5,206.5C -0.5,181.167 -0.5,155.833 -0.5,130.5 Z"/></g>
<g><path style="opacity:1" fill="#e10a15" d="M 66.5,131.5 C 71.732,132.405 71.732,133.405 66.5,134.5C 63.9548,133.451 63.9548,132.451 66.5,131.5 Z"/></g>
<g><path style="opacity:1" fill="#fefffe" d="M 165.5,132.5 C 165.5,157.167 165.5,181.833 165.5,206.5C 142.167,206.5 118.833,206.5 95.5,206.5C 100.336,204.869 105.336,203.369 110.5,202C 141.756,188.926 160.089,165.759 165.5,132.5 Z"/></g>
<g><path style="opacity:1" fill="#e10a15" d="M 91.5,134.5 C 93.1033,134.312 94.4366,134.812 95.5,136C 94.1916,136.824 92.6916,137.324 91,137.5C 90.5304,136.423 90.6971,135.423 91.5,134.5 Z"/></g>
<g><path style="opacity:1" fill="#e10a15" d="M 155.5,134.5 C 158.167,135.167 158.167,135.833 155.5,136.5C 154.167,135.833 154.167,135.167 155.5,134.5 Z"/></g>
<g><path style="opacity:1" fill="#e10a15" d="M 114.5,137.5 C 116.344,138.204 116.844,139.537 116,141.5C 114.812,140.437 114.312,139.103 114.5,137.5 Z"/></g>
<g><path style="opacity:1" fill="#e10a15" d="M 138.5,137.5 C 138.26,140.293 137.26,140.793 135.5,139C 136.244,137.961 137.244,137.461 138.5,137.5 Z"/></g>
<g><path style="opacity:1" fill="#000000" d="M 103.5,140.5 C 105.892,141.742 105.725,143.075 103,144.5C 102.805,143.181 102.972,141.847 103.5,140.5 Z"/></g>
<g><path style="opacity:1" fill="#e10a15" d="M 69.5,142.5 C 71.2726,143.314 71.7726,144.648 71,146.5C 68.6275,145.683 68.1275,144.35 69.5,142.5 Z"/></g>
<g><path style="opacity:1" fill="#e10a15" d="M 98.5,145.5 C 99.4778,145.811 100.145,146.478 100.5,147.5C 99.9017,148.795 99.4017,150.128 99,151.5C 97.2002,149.635 97.0336,147.635 98.5,145.5 Z"/></g>
<g><path style="opacity:1" fill="#e10a15" d="M 46.5,146.5 C 48.9732,146.947 49.1399,147.947 47,149.5C 46.5172,148.552 46.3505,147.552 46.5,146.5 Z"/></g>
<g><path style="opacity:1" fill="#e10a15" d="M 107.5,146.5 C 109.085,147.002 109.585,148.002 109,149.5C 107.961,148.756 107.461,147.756 107.5,146.5 Z"/></g>
<g><path style="opacity:1" fill="#e10a15" d="M 143.5,146.5 C 144.782,147.708 144.782,149.042 143.5,150.5C 143.094,149.443 143.094,148.109 143.5,146.5 Z"/></g>
<g><path style="opacity:1" fill="#e10a15" d="M 59.5,150.5 C 61.3769,151.659 61.8769,153.326 61,155.5C 59.7308,154.095 59.2308,152.429 59.5,150.5 Z"/></g>
<g><path style="opacity:1" fill="#e10a15" d="M 46.5,158.5 C 48.558,157.176 50.2247,157.676 51.5,160C 50.6667,160.167 49.8333,160.333 49,160.5C 47.6244,160.316 46.7911,159.649 46.5,158.5 Z"/></g>
<g><path style="opacity:1" fill="#fea700" d="M 116.5,169.5 C 116.483,171.028 115.816,171.528 114.5,171C 115.044,170.283 115.711,169.783 116.5,169.5 Z"/></g>
<g><path style="opacity:1" fill="#e10a15" d="M 25.5,170.5 C 26.3764,170.369 27.0431,170.702 27.5,171.5C 26.011,176.646 25.3443,176.313 25.5,170.5 Z"/></g>
<g><path style="opacity:1" fill="#e10a15" d="M 46.5,171.5 C 49.462,171.117 50.462,172.117 49.5,174.5C 47.7869,174.121 46.7869,173.121 46.5,171.5 Z"/></g>
<g><path style="opacity:1" fill="#e10a15" d="M 35.5,177.5 C 39.193,178.247 39.193,179.58 35.5,181.5C 35.0941,180.443 35.0941,179.109 35.5,177.5 Z"/></g>
</svg>
