<svg xmlns="http://www.w3.org/2000/svg" width="166" height="207" style="shape-rendering:geometricPrecision;text-rendering:geometricPrecision;image-rendering:optimizeQuality;fill-rule:evenodd;clip-rule:evenodd"><path style="opacity:1" d="M-.5-.5h166v133c-7.564 39.565-30.897 64.231-70 74h-26c-39.498-9.834-62.831-34.834-70-75V-.5z"/><path style="opacity:1" fill="#e10a15" d="M56.5 32.5c.979 4.487 3.645 7.654 8 9.5a8.434 8.434 0 0 0 4 .5c3.52.666 7.188 1.333 11 2-5.517 1.662-6.184 4.329-2 8 2.451 1.019 4.951 1.019 7.5 0 1.404.01 2.57.51 3.5 1.5-1.444 1.064-3.11 1.564-5 1.5-6.344-2.322-8.344-.322-6 6-4.102.456-7.935-.21-11.5-2-1.548 1.184-3.048 1.017-4.5-.5a730.902 730.902 0 0 0-18-20.5 92.327 92.327 0 0 1-3-9c-2.767-2.941-5.933-5.275-9.5-7-1.328 1.523-1.162 3.19.5 5-3.76.452-6.76 2.119-9 5 0 .667-.333 1-1 1-2.755 2.492-2.421 3.159 1 2 1.237.056 2.237.556 3 1.5a874.695 874.695 0 0 0-3 5.5c-2.639 3.034-1.972 4.034 2 3 2.295 1.98 4.962 3.147 8 3.5-1.078.674-1.745 1.674-2 3a47.489 47.489 0 0 1 1 5.5c-4.102 1.36-3.936 2.026.5 2 3.673-.128 7.006-1.128 10-3A129.957 129.957 0 0 0 54.5 77c-3.263.87-3.596 2.203-1 4a8.434 8.434 0 0 0 4 .5c-.754 2.878-1.088 5.711-1 8.5a253.654 253.654 0 0 1-15 4.5c-3.4-.535-6.4-1.868-9-4-3.014.964-5.68 2.297-8 4-.978.311-1.645.978-2 2a10.253 10.253 0 0 0 4 1.5c-3.025 3.788-4.025 7.955-3 12.5 2.183-1.559 4.35-2.226 6.5-2a21.371 21.371 0 0 1 3.5 8.5l1 .5c1.3-2.932 3.3-5.266 6-7a9.107 9.107 0 0 0 1-5c2.776-.411 3.443.422 2 2.5 2.624 2.162 3.624 4.995 3 8.5 2.403.107 4.236-.893 5.5-3a33.037 33.037 0 0 0 3.5-10c2.202-1.28 4.368-1.28 6.5 0a109.025 109.025 0 0 1 4 9c1.555-1.646 3.222-1.979 5-1a20.438 20.438 0 0 0 1.5 5.5A5958.429 5958.429 0 0 0 10 155.5c-4.58-10.463-6.913-21.463-7-33-.5-39.999-.667-79.999-.5-120h159c.333 19.678 0 39.345-1 59a4140.895 4140.895 0 0 0-51.5 33c-3.254-6.168-1.421-9.001 5.5-8.5 3.792-2.053 4.958-5.22 3.5-9.5-1.466 1.825-3.299 2.325-5.5 1.5a25.727 25.727 0 0 0 3.5-7.5 23.351 23.351 0 0 0 7.5-3c1.152-2.606 1.318-5.273.5-8-1.11 1.537-2.61 2.203-4.5 2-.768-4.33.565-7.663 4-10 1.333-2.333 1.333-4.667 0-7-1.22 1.211-2.387 1.211-3.5 0l-1-14c-3.534-5.806-5.034-12.14-4.5-19-3.114.591-5.614 2.258-7.5 5a27.208 27.208 0 0 0-6-8c-1.375 3.582-3.042 6.915-5 10-2.6.418-4.767 1.584-6.5 3.5l-11 1c-1.6 1.815-3.6 2.982-6 3.5a6.205 6.205 0 0 0-2 3.5c.913 4.667 3.58 7.834 8 9.5-10.834-.294-18.334-5.628-22.5-16-1.873 3.126-1.707 6.126.5 9z"/><path style="opacity:1" fill="#fea700" d="M100.5 12.5c2 1.476 3.667 3.31 5 5.5-1.75 1.319-3.75 1.819-6 1.5a51.623 51.623 0 0 0 1-7z"/><path style="opacity:1" fill="#fea600" d="M90.5 24.5c3.979-4.644 8.645-5.31 14-2 2-2.667 4.333-5 7-7 3.946 5.112 3.613 9.779-1 14h5a116.82 116.82 0 0 1 1.5 14c.687 2.926 2.52 4.259 5.5 4 .15 3.661-1.35 4.661-4.5 3l-1.5 1.5c.083 3.362.25 6.862.5 10.5 1.491 1.504 3.324 2.337 5.5 2.5-2.818 3.129-5.818 3.295-9 .5-1.145 1.276-1.145 2.609 0 4-2.438 3.641-3.104 7.475-2 11.5 4.975.585 4.975 1.751 0 3.5-2.057-2.031-3.89-2.031-5.5 0a28.04 28.04 0 0 1-1.5 5c1.446 2.118 2.113 4.451 2 7a309.003 309.003 0 0 0-31.5 19 30.457 30.457 0 0 0-4.5-10c-3.244 4.149-5.244 3.483-6-2a121.86 121.86 0 0 1 22-1 4.932 4.932 0 0 1 .5-3c4.912-3.532 6.912-8.199 6-14-1.315 5.795-4.482 10.295-9.5 13.5l1 1a98.699 98.699 0 0 1-19-.5 36.342 36.342 0 0 0-12.5 2c-2.305.016-3.972-.984-5-3-.87.608-1.37 1.441-1.5 2.5 1.454 1.713 3.288 2.88 5.5 3.5.78 1.444.614 2.777-.5 4-1.542-1.247-3.042-1.247-4.5 0-3.678-9.606-6.678-9.273-9 1-5.13-1.732-5.297-4.399-.5-8l-1-1c-2 1.333-3.667 3-5 5-.925 1.141-1.759 1.141-2.5 0a28.854 28.854 0 0 0-1.5-4 915.718 915.718 0 0 0 49-15.5l1-1c-1.074-.739-1.74-1.739-2-3 .952-1.3.952-2.467 0-3.5-1.586 1.673-2.253 3.673-2 6a83.128 83.128 0 0 0-12 4c-2.705-3.77-2.371-7.27 1-10.5a21.405 21.405 0 0 1-5 0 71.233 71.233 0 0 0 5-8 54.658 54.658 0 0 1 7-2c-2.363-.588-3.363-2.088-3-4.5 6.193 1.68 12.193 1.18 18-1.5l-5-3c5.162.54 9.162-1.292 12-5.5a227.674 227.674 0 0 0 15-2.5c3.294-1.804 3.794-4.304 1.5-7.5-.31 4.642-2.81 6.808-7.5 6.5-6.363.247-12.696.747-19 1.5-1.708-.203-3.041-1.036-4-2.5a93.3 93.3 0 0 0 16-3c2.481-5.554.814-9.054-5-10.5-3.942 1.1-7.942 1.267-12 .5-2.025-1.194-2.359-2.694-1-4.5l-3-2.5a21.712 21.712 0 0 0 7-4c3.682.664 7.348.497 11-.5z"/><path style="opacity:1" d="M110.5 19.5c2.774 2.61 2.441 4.944-1 7-2.631-1.505-2.297-2.171 1-2v-5z"/><path style="opacity:1" fill="#fea700" d="M31.5 25.5c1.57-1.06 2.903-.56 4 1.5L34 28.5a81.718 81.718 0 0 0-2.5-3z"/><path style="opacity:1" d="M90.5 24.5c4.346-.166 8.68.001 13 .5-2.36 1.365-4.026 3.365-5 6-5.764 1.74-8.43-.426-8-6.5z"/><path style="opacity:1" fill="#fefffe" d="M92.5 27.5c.577-1.273 1.243-1.273 2 0-.47.963-1.136.963-2 0zM97.5 26.5c2.157.553 1.99 1.553-.5 3-.47-1.077-.303-2.077.5-3z"/><path style="opacity:1" fill="#fea700" d="M68.5 42.5c-4.901-2.233-8.901-5.566-12-10a8.434 8.434 0 0 1 .5-4c4.92 8.554 12.42 13.054 22.5 13.5a60.94 60.94 0 0 1-11 .5z"/><path style="opacity:1" fill="#fea600" d="M36.5 29.5c.996-.086 1.83.248 2.5 1 .937 7.2 4.437 12.867 10.5 17a10.253 10.253 0 0 1 1.5 4L64.5 64c-1.333 1-1.333 2 0 3-4.14 1.474-6.974 4.307-8.5 8.5a54.196 54.196 0 0 1-8-15 71.888 71.888 0 0 0-7-9l-1-6-2.5 2.5c1.613 2.228 2.28 4.728 2 7.5a31.867 31.867 0 0 1-7-3c2.446-.927 3.279-2.594 2.5-5-1.864-1.464-4.03-2.464-6.5-3 1.235-1.898.901-3.565-1-5l.5-1c3.106 2.475 6.606 3.642 10.5 3.5a225.369 225.369 0 0 1-11-6.5c1.247-1.542 1.247-3.042 0-4.5 1.612-.72 3.112-.554 4.5.5l3.5 5.5c1 .667 2 .667 3 0-3.449-2.244-4.115-4.744-2-7.5z"/><path style="opacity:1" fill="#fea700" d="M22.5 32.5c1.478-.262 2.811.071 4 1-1.799 1.288-3.465 1.288-5 0 .667 0 1-.333 1-1z"/><path style="opacity:1" d="M56.5 32.5c3.099 4.434 7.099 7.767 12 10a8.434 8.434 0 0 1-4-.5c-4.355-1.846-7.021-5.013-8-9.5z"/><path style="opacity:1" fill="#fefffe" d="M79.5 39.5c3.057-1.47 3.557-.803 1.5 2-.278-.916-.778-1.583-1.5-2zM83.5 40.5c.14-1.837.806-2.17 2-1-.457.797-1.124 1.13-2 1zM87.5 39.5c.75-1.074 1.75-1.24 3-.5-.852 1.728-1.852 1.895-3 .5z"/><path style="opacity:1" fill="#e10a15" d="M87.5 39.5c.792 1.467.792 2.8 0 4-1.282-1.458-1.282-2.792 0-4z"/><path style="opacity:1" d="M99.5 39.5c1.965.448 2.298 1.448 1 3-.886-.825-1.219-1.825-1-3z"/><path style="opacity:1" fill="#fea700" d="M22.5 42.5c1.517-.01 2.684-.677 3.5-2 .374.916.874 1.75 1.5 2.5a15.276 15.276 0 0 0-4.5 1.5 2.428 2.428 0 0 1-.5-2z"/><path style="opacity:1" fill="#e10a15" d="M83.5 40.5c1 1.289.834 2.622-.5 4-1.534-1.38-1.368-2.714.5-4zM90.5 40.5c1.725.343 2.225 1.343 1.5 3-1.039-.744-1.539-1.744-1.5-3z"/><path style="opacity:1" fill="#fea700" d="M31.5 57.5c2.31-4.286 3.31-3.953 3 1-1.291.237-2.291-.096-3-1z"/><path style="opacity:1" fill="#fefffe" d="M159.5 64.5c1.316 2.587 1.983 5.587 2 9l-1 9a14954.803 14954.803 0 0 1-141 88c-3.645-3.274-6.312-7.274-8-12a3.646 3.646 0 0 1 1-1.5 8161.492 8161.492 0 0 0 147-92.5z"/><path style="opacity:1" fill="#002b72" d="M159.5 85.5c1.316 2.587 1.983 5.587 2 9l-.5 9A8233.23 8233.23 0 0 0 34.5 183c-1.259.982-2.592 1.315-4 1-4.157-3.114-6.99-6.948-8.5-11.5a9478.145 9478.145 0 0 0 137.5-87z"/><path style="opacity:1" fill="#fea700" d="M31.5 92.5c2.584.069 4.584 1.236 6 3.5-2.577 1.25-5.243 1.584-8 1a39.175 39.175 0 0 0 2-4.5zM24.5 94.5c.996.086 1.83-.248 2.5-1 .309 3.467-.524 3.8-2.5 1zM24.5 104.5c2.518 1.259 2.352 2.593-.5 4-.195-1.319-.028-2.653.5-4z"/><path style="opacity:1" fill="#fefffe" d="M160.5 106.5c1.153 5.819 1.319 11.819.5 18l-113 71a110.834 110.834 0 0 1-14.5-9.5c42.397-26.525 84.731-53.025 127-79.5z"/><path style="opacity:1" fill="#fea700" d="M34.5 109.5c.79.283 1.456.783 2 1.5-2.866 5.735-3.533 5.235-2-1.5zM48.5 109.5c1.976.927 2.31 2.26 1 4-.929-1.189-1.262-2.522-1-4z"/><path style="opacity:1" fill="#002b72" d="M160.5 127.5c1.177 6.719.344 13.386-2.5 20A11552.079 11552.079 0 0 1 71.5 202c-6.99-.581-13.657-2.415-20-5.5a11511.385 11511.385 0 0 0 109-69z"/><path style="opacity:1" fill="#fefffe" d="M-.5 131.5c7.169 40.166 30.502 65.166 70 75h-70v-75zM165.5 132.5v74h-70c39.103-9.769 62.436-34.435 70-74z"/><path style="opacity:1" fill="#fefffe" d="M155.5 151.5c.543.06.876.393 1 1-11.668 26.493-31.668 42.993-60 49.5a100.2 100.2 0 0 1-20 0 2374.493 2374.493 0 0 0 79-50.5z"/></svg>