<?xml version="1.0" encoding="UTF-8" standalone="no"?>
<!-- Created with Inkscape (http://www.inkscape.org/) -->

<svg
   xmlns:dc="http://purl.org/dc/elements/1.1/"
   xmlns:cc="http://creativecommons.org/ns#"
   xmlns:rdf="http://www.w3.org/1999/02/22-rdf-syntax-ns#"
   xmlns:svg="http://www.w3.org/2000/svg"
   xmlns="http://www.w3.org/2000/svg"
   xmlns:sodipodi="http://sodipodi.sourceforge.net/DTD/sodipodi-0.dtd"
   xmlns:inkscape="http://www.inkscape.org/namespaces/inkscape"
   version="1.1"
   id="svg2"
   width="159"
   height="192"
   viewBox="0 0 159 192"
   sodipodi:docname="Wappen_at_neumarkt_am_wallersee.svg"
   inkscape:version="0.92.4 (5da689c313, 2019-01-14)">
  <metadata
     id="metadata8">
    <rdf:RDF>
      <cc:Work
         rdf:about="">
        <dc:format>image/svg+xml</dc:format>
        <dc:type
           rdf:resource="http://purl.org/dc/dcmitype/StillImage" />
        <dc:title></dc:title>
      </cc:Work>
    </rdf:RDF>
  </metadata>
  <defs
     id="defs6">
    <inkscape:path-effect
       effect="spiro"
       id="path-effect1250"
       is_visible="true" />
    <inkscape:path-effect
       effect="spiro"
       id="path-effect1244"
       is_visible="true" />
    <inkscape:path-effect
       effect="spiro"
       id="path-effect1240"
       is_visible="true" />
    <inkscape:path-effect
       effect="spiro"
       id="path-effect1236"
       is_visible="true" />
    <inkscape:path-effect
       effect="spiro"
       id="path-effect1230"
       is_visible="true" />
    <inkscape:path-effect
       effect="spiro"
       id="path-effect1226"
       is_visible="true" />
    <inkscape:path-effect
       effect="spiro"
       id="path-effect1222"
       is_visible="true" />
    <inkscape:path-effect
       effect="spiro"
       id="path-effect1218"
       is_visible="true" />
    <inkscape:path-effect
       effect="spiro"
       id="path-effect1214"
       is_visible="true" />
    <inkscape:path-effect
       effect="spiro"
       id="path-effect1210"
       is_visible="true" />
    <inkscape:path-effect
       effect="spiro"
       id="path-effect1206"
       is_visible="true" />
    <inkscape:path-effect
       effect="spiro"
       id="path-effect1202"
       is_visible="true" />
    <inkscape:path-effect
       effect="spiro"
       id="path-effect1198"
       is_visible="true" />
    <inkscape:path-effect
       effect="spiro"
       id="path-effect1168"
       is_visible="true" />
    <inkscape:path-effect
       effect="spiro"
       id="path-effect1164"
       is_visible="true" />
    <inkscape:path-effect
       effect="spiro"
       id="path-effect1160"
       is_visible="true" />
    <inkscape:path-effect
       effect="spiro"
       id="path-effect1156"
       is_visible="true" />
    <inkscape:path-effect
       effect="spiro"
       id="path-effect1152"
       is_visible="true" />
    <inkscape:path-effect
       effect="spiro"
       id="path-effect1148"
       is_visible="true" />
    <inkscape:path-effect
       effect="spiro"
       id="path-effect1144"
       is_visible="true" />
    <inkscape:path-effect
       effect="spiro"
       id="path-effect1140"
       is_visible="true" />
    <inkscape:path-effect
       effect="spiro"
       id="path-effect1136"
       is_visible="true" />
    <inkscape:path-effect
       effect="spiro"
       id="path-effect1132"
       is_visible="true" />
    <inkscape:path-effect
       effect="spiro"
       id="path-effect1128"
       is_visible="true" />
    <inkscape:path-effect
       effect="spiro"
       id="path-effect1124"
       is_visible="true" />
    <inkscape:path-effect
       effect="spiro"
       id="path-effect1120"
       is_visible="true" />
    <inkscape:path-effect
       effect="spiro"
       id="path-effect1116"
       is_visible="true" />
    <inkscape:path-effect
       effect="spiro"
       id="path-effect1112"
       is_visible="true" />
    <inkscape:path-effect
       effect="spiro"
       id="path-effect1108"
       is_visible="true" />
    <inkscape:path-effect
       effect="spiro"
       id="path-effect1102"
       is_visible="true" />
    <inkscape:path-effect
       effect="spiro"
       id="path-effect1098"
       is_visible="true" />
    <inkscape:path-effect
       effect="spiro"
       id="path-effect1091"
       is_visible="true" />
    <inkscape:path-effect
       effect="spiro"
       id="path-effect1087"
       is_visible="true" />
    <inkscape:path-effect
       effect="spiro"
       id="path-effect1083"
       is_visible="true" />
    <inkscape:path-effect
       effect="spiro"
       id="path-effect1079"
       is_visible="true" />
    <inkscape:path-effect
       effect="spiro"
       id="path-effect993"
       is_visible="true" />
    <inkscape:path-effect
       effect="spiro"
       id="path-effect952"
       is_visible="true" />
    <inkscape:path-effect
       effect="spiro"
       id="path-effect943"
       is_visible="true" />
    <inkscape:path-effect
       effect="spiro"
       id="path-effect937"
       is_visible="true" />
    <inkscape:path-effect
       effect="spiro"
       id="path-effect933"
       is_visible="true" />
    <inkscape:path-effect
       effect="spiro"
       id="path-effect927"
       is_visible="true" />
    <inkscape:path-effect
       effect="spiro"
       id="path-effect923"
       is_visible="true" />
    <inkscape:path-effect
       effect="spiro"
       id="path-effect909"
       is_visible="true" />
    <inkscape:path-effect
       effect="spiro"
       id="path-effect905"
       is_visible="true" />
    <inkscape:path-effect
       effect="spiro"
       id="path-effect901"
       is_visible="true" />
    <inkscape:path-effect
       effect="spiro"
       id="path-effect897"
       is_visible="true" />
    <inkscape:path-effect
       effect="spiro"
       id="path-effect893"
       is_visible="true" />
    <inkscape:path-effect
       effect="spiro"
       id="path-effect889"
       is_visible="true" />
    <inkscape:path-effect
       effect="spiro"
       id="path-effect874"
       is_visible="true" />
    <inkscape:path-effect
       effect="spiro"
       id="path-effect870"
       is_visible="true" />
    <inkscape:path-effect
       effect="spiro"
       id="path-effect866"
       is_visible="true" />
    <inkscape:path-effect
       effect="spiro"
       id="path-effect862"
       is_visible="true" />
    <inkscape:path-effect
       effect="spiro"
       id="path-effect858"
       is_visible="true" />
    <inkscape:path-effect
       effect="spiro"
       id="path-effect854"
       is_visible="true" />
    <inkscape:path-effect
       effect="spiro"
       id="path-effect850"
       is_visible="true" />
    <inkscape:path-effect
       effect="spiro"
       id="path-effect846"
       is_visible="true" />
    <inkscape:path-effect
       effect="spiro"
       id="path-effect842"
       is_visible="true" />
    <inkscape:path-effect
       effect="spiro"
       id="path-effect838"
       is_visible="true" />
    <inkscape:path-effect
       effect="spiro"
       id="path-effect834"
       is_visible="true" />
    <inkscape:path-effect
       effect="spiro"
       id="path-effect827"
       is_visible="true" />
    <inkscape:path-effect
       effect="spiro"
       id="path-effect823"
       is_visible="true" />
    <inkscape:path-effect
       effect="spiro"
       id="path-effect819"
       is_visible="true" />
    <inkscape:perspective
       id="perspective10107"
       inkscape:persp3d-origin="372.04724 : 350.78739 : 1"
       inkscape:vp_z="744.09448 : 526.18109 : 1"
       inkscape:vp_y="0 : 1000 : 0"
       inkscape:vp_x="0 : 526.18109 : 1"
       sodipodi:type="inkscape:persp3d" />
    <inkscape:perspective
       sodipodi:type="inkscape:persp3d"
       inkscape:vp_x="0 : 0.5 : 1"
       inkscape:vp_y="0 : 1000 : 0"
       inkscape:vp_z="1 : 0.5 : 1"
       inkscape:persp3d-origin="0.5 : 0.33333333 : 1"
       id="perspective8800" />
    <inkscape:perspective
       sodipodi:type="inkscape:persp3d"
       inkscape:vp_x="0 : 0.5 : 1"
       inkscape:vp_y="0 : 1000 : 0"
       inkscape:vp_z="1 : 0.5 : 1"
       inkscape:persp3d-origin="0.5 : 0.33333333 : 1"
       id="perspective8800-9" />
    <inkscape:perspective
       sodipodi:type="inkscape:persp3d"
       inkscape:vp_x="0 : 0.5 : 1"
       inkscape:vp_y="0 : 1000 : 0"
       inkscape:vp_z="1 : 0.5 : 1"
       inkscape:persp3d-origin="0.5 : 0.33333333 : 1"
       id="perspective8800-8" />
    <inkscape:perspective
       sodipodi:type="inkscape:persp3d"
       inkscape:vp_x="0 : 0.5 : 1"
       inkscape:vp_y="0 : 1000 : 0"
       inkscape:vp_z="1 : 0.5 : 1"
       inkscape:persp3d-origin="0.5 : 0.33333333 : 1"
       id="perspective8800-2" />
    <inkscape:perspective
       sodipodi:type="inkscape:persp3d"
       inkscape:vp_x="0 : 0.5 : 1"
       inkscape:vp_y="0 : 1000 : 0"
       inkscape:vp_z="1 : 0.5 : 1"
       inkscape:persp3d-origin="0.5 : 0.33333333 : 1"
       id="perspective8800-83" />
    <inkscape:perspective
       sodipodi:type="inkscape:persp3d"
       inkscape:vp_x="0 : 0.5 : 1"
       inkscape:vp_y="0 : 1000 : 0"
       inkscape:vp_z="1 : 0.5 : 1"
       inkscape:persp3d-origin="0.5 : 0.33333333 : 1"
       id="perspective8800-0" />
    <inkscape:perspective
       sodipodi:type="inkscape:persp3d"
       inkscape:vp_x="0 : 0.5 : 1"
       inkscape:vp_y="0 : 1000 : 0"
       inkscape:vp_z="1 : 0.5 : 1"
       inkscape:persp3d-origin="0.5 : 0.33333333 : 1"
       id="perspective8800-22" />
    <inkscape:perspective
       sodipodi:type="inkscape:persp3d"
       inkscape:vp_x="0 : 0.5 : 1"
       inkscape:vp_y="0 : 1000 : 0"
       inkscape:vp_z="1 : 0.5 : 1"
       inkscape:persp3d-origin="0.5 : 0.33333333 : 1"
       id="perspective8800-7" />
    <inkscape:perspective
       sodipodi:type="inkscape:persp3d"
       inkscape:vp_x="0 : 0.5 : 1"
       inkscape:vp_y="0 : 1000 : 0"
       inkscape:vp_z="1 : 0.5 : 1"
       inkscape:persp3d-origin="0.5 : 0.33333333 : 1"
       id="perspective8800-23" />
    <inkscape:perspective
       sodipodi:type="inkscape:persp3d"
       inkscape:vp_x="0 : 0.5 : 1"
       inkscape:vp_y="0 : 1000 : 0"
       inkscape:vp_z="1 : 0.5 : 1"
       inkscape:persp3d-origin="0.5 : 0.33333333 : 1"
       id="perspective8800-70" />
    <inkscape:perspective
       sodipodi:type="inkscape:persp3d"
       inkscape:vp_x="0 : 0.5 : 1"
       inkscape:vp_y="0 : 1000 : 0"
       inkscape:vp_z="1 : 0.5 : 1"
       inkscape:persp3d-origin="0.5 : 0.33333333 : 1"
       id="perspective8800-86" />
    <inkscape:perspective
       sodipodi:type="inkscape:persp3d"
       inkscape:vp_x="0 : 0.5 : 1"
       inkscape:vp_y="0 : 1000 : 0"
       inkscape:vp_z="1 : 0.5 : 1"
       inkscape:persp3d-origin="0.5 : 0.33333333 : 1"
       id="perspective8800-6" />
    <inkscape:perspective
       sodipodi:type="inkscape:persp3d"
       inkscape:vp_x="0 : 0.5 : 1"
       inkscape:vp_y="0 : 1000 : 0"
       inkscape:vp_z="1 : 0.5 : 1"
       inkscape:persp3d-origin="0.5 : 0.33333333 : 1"
       id="perspective8921" />
    <inkscape:perspective
       sodipodi:type="inkscape:persp3d"
       inkscape:vp_x="0 : 0.5 : 1"
       inkscape:vp_y="0 : 1000 : 0"
       inkscape:vp_z="1 : 0.5 : 1"
       inkscape:persp3d-origin="0.5 : 0.33333333 : 1"
       id="perspective8921-0" />
    <inkscape:perspective
       sodipodi:type="inkscape:persp3d"
       inkscape:vp_x="0 : 0.5 : 1"
       inkscape:vp_y="0 : 1000 : 0"
       inkscape:vp_z="1 : 0.5 : 1"
       inkscape:persp3d-origin="0.5 : 0.33333333 : 1"
       id="perspective8921-9" />
    <inkscape:perspective
       sodipodi:type="inkscape:persp3d"
       inkscape:vp_x="0 : 0.5 : 1"
       inkscape:vp_y="0 : 1000 : 0"
       inkscape:vp_z="1 : 0.5 : 1"
       inkscape:persp3d-origin="0.5 : 0.33333333 : 1"
       id="perspective8961" />
    <inkscape:perspective
       sodipodi:type="inkscape:persp3d"
       inkscape:vp_x="0 : 0.5 : 1"
       inkscape:vp_y="0 : 1000 : 0"
       inkscape:vp_z="1 : 0.5 : 1"
       inkscape:persp3d-origin="0.5 : 0.33333333 : 1"
       id="perspective8983" />
    <inkscape:perspective
       sodipodi:type="inkscape:persp3d"
       inkscape:vp_x="0 : 0.5 : 1"
       inkscape:vp_y="0 : 1000 : 0"
       inkscape:vp_z="1 : 0.5 : 1"
       inkscape:persp3d-origin="0.5 : 0.33333333 : 1"
       id="perspective12544" />
    <clipPath
       id="Maske">
      <path
         inkscape:connector-curvature="0"
         d="m 0,0 v 345 a 245,245 0 1 0 490,0 V 0 Z"
         id="use3" />
    </clipPath>
    <clipPath
       id="clipPath850">
      <path
         inkscape:connector-curvature="0"
         d="m 0,0 v 345 a 245,245 0 1 0 490,0 V 0 Z"
         id="use848" />
    </clipPath>
    <clipPath
       id="Maske-7">
      <path
         inkscape:connector-curvature="0"
         d="m 0,0 v 345 a 245,245 0 1 0 490,0 V 0 Z"
         id="use3-5" />
    </clipPath>
  </defs>
  <sodipodi:namedview
     pagecolor="#ffffff"
     bordercolor="#666666"
     borderopacity="1"
     objecttolerance="10"
     gridtolerance="10"
     guidetolerance="10"
     inkscape:pageopacity="0"
     inkscape:pageshadow="2"
     inkscape:window-width="1920"
     inkscape:window-height="1001"
     id="namedview4"
     showgrid="false"
     inkscape:zoom="2.8284271"
     inkscape:cx="88.87481"
     inkscape:cy="92.264418"
     inkscape:window-x="-9"
     inkscape:window-y="-9"
     inkscape:window-maximized="1"
     inkscape:current-layer="svg2" />
  <path
     inkscape:connector-curvature="0"
     d="M 157.25896,1.7367068 V 111.95429 a 77.758979,78.270474 0 1 1 -155.5179464,0 V 1.7367068 Z"
     id="use8"
     style="fill:#ffc000;fill-opacity:1;stroke-width:0.31842571" />
  <path
     style="fill:#ffffff;fill-opacity:1;stroke:none;stroke-width:0.99486053px;stroke-linecap:butt;stroke-linejoin:miter;stroke-opacity:1"
     d="M 32.246596,67.888839 45.299855,114.6626 67.511477,83.927781 Z"
     id="path1259"
     inkscape:connector-curvature="0" />
  <path
     style="fill:#ffffff;fill-opacity:1;stroke:none;stroke-width:0.99486053px;stroke-linecap:butt;stroke-linejoin:miter;stroke-opacity:1"
     d="m 32.184446,66.707055 -5.283487,8.023689 -0.18186,2.386459 1.052071,3.149264 -0.129071,2.700267 2.491095,2.648859 -0.1616,3.200672 1.054862,2.638885 0.97151,0.75355 0.0394,3.160797 1.362522,3.430553 2.078894,1.68114 0.42639,3.0249 2.197623,2.19904 c 0,0 1.043342,0.68498 1.043342,0.68498 l 0.3192,3.05345 1.274632,1.75924 2.881585,0.66083 0.326969,1.62621 1.351312,1.17276"
     id="path1257"
     inkscape:connector-curvature="0" />
  <path
     style="fill:#ffffff;fill-opacity:1;stroke:#000000;stroke-width:0.99486053px;stroke-linecap:round;stroke-linejoin:round;stroke-opacity:1"
     d="m 38.889157,58.126877 c 1.246612,-4.29195 1.553842,-8.854437 0.89395,-13.274939 -0.0874,-0.585806 -0.19188,-1.172194 -0.19437,-1.764494 -0.002,-0.5923 0.10342,-1.198997 0.408921,-1.706313 0.194711,-0.323327 0.464891,-0.597891 0.643651,-0.930319 0.22009,-0.409288 0.28932,-0.889303 0.24651,-1.352103 -0.0428,-0.462802 -0.19298,-0.9104 -0.38955,-1.331509 -0.497151,-1.065063 -1.286932,-1.969416 -2.157134,-2.7591 -0.87019,-0.789688 -1.826833,-1.477148 -2.741723,-2.214531 -1.900503,-1.531781 -3.618306,-3.276876 -5.470978,-4.866282 -1.109991,-0.952271 -2.268154,-1.848331 -3.468535,-2.683614 v 0 l 0.78667,3.721278 v 0 c -0.54837,-0.394941 -1.17001,-0.68767 -1.823651,-0.858755 -0.47773,-0.125038 -0.972331,-0.185377 -1.466083,-0.178909 v 0 c 0.20424,0.703746 0.359681,1.421667 0.464852,2.14689 0.0248,0.17043 0.0467,0.341885 0.0926,0.507878 0.0458,0.165989 0.11683,0.327775 0.2292,0.458224 0.163161,0.189433 0.402981,0.299678 0.647691,0.350522 0.24469,0.05085 0.49699,0.04744 0.746861,0.04308 0.34071,-0.006 0.68317,-0.01315 1.02047,0.03521 0.337311,0.04836 0.672411,0.15544 0.946223,0.358385 0.27885,0.206662 0.482721,0.506264 0.598651,0.833528 0.11594,0.327261 0.14669,0.681208 0.11653,1.027111 -0.0188,0.215299 -0.0602,0.436495 0,0.644066 0.0626,0.215886 0.231091,0.390143 0.428191,0.497936 0.19712,0.107795 0.42148,0.155575 0.64455,0.181914 0.56903,0.06717 1.147502,0.0033 1.716392,0.07155 0.942681,0.11318 1.820373,0.592082 2.503065,1.252352 0.90398,0.874299 1.484941,2.075788 1.609101,3.327679 v 4e-6 c -0.29309,0.107926 -0.552851,0.304715 -0.736131,0.557728 -0.18332,0.253008 -0.28947,0.56123 -0.30085,0.873531 -0.0113,0.31223 0.072,0.627295 0.23637,0.892946 0.16433,0.265655 0.408961,0.48084 0.693331,0.609879 v 0 c 0.0329,0.500454 0.0567,1.001505 0.0715,1.502824 0.11639,3.946693 -0.32874,7.886163 -0.78666,11.807892 -0.349671,2.994659 -0.707261,7.923574 -1.072741,10.916343"
     id="path887"
     inkscape:connector-curvature="0"
     sodipodi:nodetypes="cscsssssssccccccccssccscscccccsccccccccsc" />
  <path
     style="fill:#ffffff;fill-opacity:1;stroke:#000000;stroke-width:1px;stroke-linecap:round;stroke-linejoin:round;stroke-opacity:1"
     d="m 29.4375,74.25 v -0.15625 -19 0 C 28.862069,54.640914 28.354662,54.101794 27.9375,53.5 27.416553,52.748487 27.032601,51.880935 26.96875,50.96875 26.911194,50.1465 27.113424,49.316421 27,48.5 26.88729,47.688723 26.470711,46.951553 26,46.28125 25.426633,45.464762 24.719114,44.684064 23.78125,44.34375 23.424685,44.214366 23.046605,44.153408 22.6875,44.03125 22.243885,43.880344 21.829839,43.633472 21.50573,43.295063 21.181622,42.956654 20.950337,42.524984 20.875,42.0625 20.847319,41.892568 20.840454,41.719879 20.816219,41.549422 20.791984,41.378964 20.748929,41.207599 20.65625,41.0625 20.534724,40.872239 20.336212,40.741592 20.125753,40.659892 19.915294,40.578192 19.690823,40.540641 19.46875,40.5 c -0.644101,-0.117875 -1.289998,-0.268334 -1.875,-0.5625 -0.473857,-0.238277 -0.904486,-0.572736 -1.21875,-1 -0.55014,-0.747954 -0.702644,-1.704213 -0.96875,-2.59375 -0.04363,-0.145834 -0.09112,-0.293538 -0.09059,-0.445757 2.65e-4,-0.07611 0.01289,-0.152762 0.04297,-0.222677 0.03008,-0.06992 0.07818,-0.13289 0.141368,-0.175316 0.09451,-0.06345 0.215457,-0.07665 0.328296,-0.06165 0.11284,0.015 0.220367,0.05572 0.327954,0.0929 0.545264,0.188449 1.117971,0.292438 1.65625,0.5 0.08576,0.03307 0.171175,0.06892 0.261371,0.0866 0.0902,0.01768 0.187137,0.01592 0.269879,-0.0241 0.0601,-0.02907 0.110012,-0.07726 0.14549,-0.133818 0.03548,-0.05655 0.05694,-0.121229 0.06737,-0.187169 0.02087,-0.131881 -0.0015,-0.266389 -0.02536,-0.397763 -0.07349,-0.404685 -0.161665,-0.808258 -0.1875,-1.21875 -0.01798,-0.285657 -0.005,-0.576263 0.07525,-0.851 0.08027,-0.274737 0.231643,-0.533775 0.456002,-0.7115 0.178232,-0.141185 0.399436,-0.22736 0.626205,-0.243953 0.226769,-0.01659 0.458161,0.03647 0.655045,0.150203 v 0 c 0.85982,0.741524 1.693826,1.51298 2.5,2.3125 2.3303,2.311067 4.421155,4.849297 6.625,7.28125 1.057467,1.16692 2.151249,2.323041 2.9375,3.6875 0.28919,0.50186 0.535745,1.031833 0.684989,1.591494 0.149245,0.559661 0.199064,1.150984 0.09626,1.721006 -0.09835,0.545358 -0.33222,1.056676 -0.46875,1.59375 -0.281105,1.105796 -0.140148,2.267928 -0.0625,3.40625 0.05965,0.874526 0.08368,1.767018 0.375,2.59375 0.145979,0.414269 0.356562,0.803595 0.5,1.21875 0.41831,1.210719 0.238009,2.53255 0.1875,3.8125 -0.02056,0.520933 -0.01866,1.043556 0.03125,1.5625 0.08521,0.88599 0.321075,1.779549 0.84375,2.5 0.104264,0.143717 0.219273,0.279636 0.34375,0.40625"
     id="path1158"
     inkscape:connector-curvature="0"
     inkscape:path-effect="#path-effect1160"
     inkscape:original-d="m 29.4375,74.25 c 0.001,-0.05308 0.001,-0.105166 0,-0.15625 -0.001,-0.05108 0.001,-12.667666 0,-19 v 0 C 28.862069,54.640914 28.354662,54.101794 27.9375,53.5 27.416553,52.748487 27.032601,51.880935 26.96875,50.96875 26.911194,50.1465 27.113424,49.316421 27,48.5 26.88729,47.688723 26.470711,46.951553 26,46.28125 25.426633,45.464762 24.719114,44.684064 23.78125,44.34375 23.424685,44.214366 23.046605,44.153408 22.6875,44.03125 22.243885,43.880344 21.829839,43.633472 21.50573,43.295063 21.181622,42.956654 20.950337,42.524984 20.875,42.0625 20.847319,41.892568 20.840454,41.719879 20.816219,41.549422 20.791984,41.378964 20.748929,41.207599 20.65625,41.0625 20.534724,40.872239 20.336212,40.741592 20.125753,40.659892 19.915294,40.578192 19.690822,40.540641 19.46875,40.5 c -0.644101,-0.117875 -1.289998,-0.268334 -1.875,-0.5625 -0.473858,-0.238277 -0.904486,-0.572735 -1.21875,-1 -0.550139,-0.747955 -0.702637,-1.704215 -0.96875,-2.59375 -0.04363,-0.145834 -0.09112,-0.293538 -0.09059,-0.445757 2.66e-4,-0.07611 0.0129,-0.152762 0.04297,-0.222677 0.03008,-0.06992 0.07818,-0.13289 0.141368,-0.175316 0.09451,-0.06345 0.215457,-0.07665 0.328296,-0.06165 0.11284,0.015 0.220367,0.05572 0.327954,0.0929 0.545264,0.188449 1.117972,0.292435 1.65625,0.5 0.08576,0.03307 0.171175,0.06892 0.261371,0.0866 0.09019,0.01768 0.187137,0.01592 0.269879,-0.0241 0.0601,-0.02907 0.110012,-0.07726 0.14549,-0.133818 0.03548,-0.05655 0.05694,-0.121229 0.06737,-0.187169 0.02087,-0.131882 -0.0015,-0.266389 -0.02536,-0.397763 -0.07349,-0.404684 -0.161666,-0.808258 -0.1875,-1.21875 -0.01798,-0.285657 -0.005,-0.576263 0.07525,-0.851 0.08027,-0.274737 0.231643,-0.533775 0.456002,-0.7115 0.178232,-0.141185 0.399435,-0.22736 0.626205,-0.243953 0.226769,-0.01659 0.458161,0.03647 0.655045,0.150203 v 0 c 0.834333,0.769834 0.290667,-0.113583 2.5,2.3125 2.209333,2.426084 5.644833,6.053084 6.625,7.28125 0.980167,1.228167 2.676083,2.584334 2.9375,3.6875 0.261417,1.103167 0.9365,2.78225 0.78125,3.3125 -0.15525,0.53025 -0.44892,0.459334 -0.46875,1.59375 -0.01983,1.134417 -0.1885,2.542667 -0.0625,3.40625 0.126,0.863584 0.207333,2.1885 0.375,2.59375 0.167667,0.40525 0.4365,-0.05108 0.5,1.21875 0.0635,1.269834 0.17608,3.292667 0.1875,3.8125 0.01142,0.519834 -0.251,0.730167 0.03125,1.5625 0.28225,0.832334 0.728167,2.365584 0.84375,2.5 0.115583,0.134417 0.230167,0.269834 0.34375,0.40625"
     sodipodi:nodetypes="ccccsssscsccscsccsccccccccccccccccccsssssssssscc"
     transform="matrix(0.99453503,0,0,0.99518614,-2.3756624,0.83816946)" />
  <path
     style="fill:#ff0000;fill-opacity:1;stroke:#000000;stroke-width:0.99486053px;stroke-linecap:round;stroke-linejoin:round;stroke-opacity:1"
     d="m 48.95245,22.647928 c -1.02473,0.09914 -2.055742,0.132969 -3.084753,0.101206 -0.570192,-0.01761 -1.146012,-0.05641 -1.691473,-0.223587 -0.54546,-0.167169 -1.063872,-0.474196 -1.393253,-0.940276 -0.1953,-0.276334 -0.31901,-0.602873 -0.35588,-0.939307 -0.0369,-0.336432 0.0132,-0.682033 0.14399,-0.99415 0.13082,-0.312117 0.342081,-0.590072 0.607722,-0.799559 0.26565,-0.209488 0.58512,-0.350056 0.918961,-0.404349 v 0 c -1.116722,-1.088312 -2.758755,-1.610242 -4.298417,-1.366274 -0.37145,0.05885 -0.7395,0.160857 -1.06982,0.34077 -0.330292,0.179915 -0.622142,0.441593 -0.801262,0.77249 -0.23882,0.441223 -0.26154,0.969208 -0.20228,1.467476 0.10599,0.890951 0.45742,1.745204 0.967211,2.483302 0.509831,0.738094 1.174931,1.362342 1.915273,1.868528 1.799822,1.230606 3.982035,1.744991 6.118919,2.175919 1.176512,0.237256 2.356662,0.456567 3.539885,0.657833 0,0 6.823109,0.834124 6.976939,0.834124 0.15383,0 8.285082,-0.197916 8.285082,-0.197916 l -0.044,-2.660876 -2.594644,-2.215415 -6.635419,-0.599398 z"
     id="path921"
     inkscape:connector-curvature="0"
     sodipodi:nodetypes="cccscccccccccsssc" />
  <path
     style="fill:#ffffff;fill-opacity:1;stroke:#000000;stroke-width:0.99486053px;stroke-linecap:round;stroke-linejoin:round;stroke-opacity:1"
     d="m 31.859936,68.291552 c -0.14224,-0.262882 -0.17041,-0.585109 -0.0759,-0.868707 0.0945,-0.2836 0.31022,-0.524468 0.581611,-0.649375 0.19783,-0.09106 0.42314,-0.12119 0.637921,-0.08535 0.21478,0.03582 0.41813,0.137461 0.575761,0.287779 v -3e-6 c -0.003,-0.06745 -0.003,-0.13498 0,-0.202413 0.0174,-0.412153 0.14186,-0.815908 0.332211,-1.181816 0.190371,-0.365909 0.445461,-0.695358 0.729751,-0.994099 0.60761,-0.638519 1.355161,-1.14301 2.174471,-1.467478 v 0 c -0.36434,-0.599065 -0.52639,-1.318908 -0.45398,-2.016429 0.0724,-0.697523 0.37891,-1.368653 0.858533,-1.879979 0.59666,-0.636085 1.428981,-1.006368 2.275632,-1.214462 0.923432,-0.226962 1.889542,-0.278751 2.831904,-0.15181 v 0 c -0.26095,-0.605 -0.3582,-1.279783 -0.27868,-1.93391 0.0795,-0.654123 0.33554,-1.285915 0.73382,-1.810688 0.717082,-0.944895 1.843383,-1.496237 2.983595,-1.821696 1.017132,-0.290326 2.077833,-0.42728 3.135314,-0.404821 v 0 c 0.0274,-1.559739 0.720542,-3.09676 1.871063,-4.149423 1.364843,-1.248737 3.354614,-1.775788 5.158108,-1.366271 v 0 c 0.0795,-1.331771 0.645621,-2.629102 1.567661,-3.592792 0.829581,-0.867066 1.940193,-1.460527 3.121725,-1.668108 1.181532,-0.20758 2.427763,-0.02819 3.502905,0.504248 v 0 c -0.0954,-0.32743 -0.0169,-0.700285 0.20228,-0.961451 0.15361,-0.183034 0.37199,-0.310511 0.606812,-0.354219 v 0 c -0.584122,-1.239309 -0.640222,-2.717537 -0.151702,-3.99761 0.325863,-0.853841 0.885882,-1.616868 1.602543,-2.183503 0.716672,-0.566634 1.588063,-0.93533 2.493583,-1.05507 v 0 c -0.24217,0.111045 -0.51405,0.156351 -0.77912,0.129828 -0.265051,-0.02652 -0.522571,-0.124806 -0.737981,-0.281636 -0.326611,-0.237805 -0.550841,-0.61178 -0.606831,-1.012055 v 0 c -1.141322,0.281026 -2.314084,0.434097 -3.489276,0.455425 -1.456631,0.02643 -2.973933,-0.16982 -4.197285,-0.961456 -0.606982,-0.39277 -1.137122,-0.92816 -1.820503,-1.163857 -0.489611,-0.168864 -1.020991,-0.169202 -1.537041,-0.125645 -0.516021,0.04356 -1.029842,0.129127 -1.547704,0.125645 -0.638901,-0.0044 -1.278471,-0.147234 -1.850822,-0.431354 -0.572361,-0.284118 -1.075941,-0.710524 -1.436222,-1.238534 -0.34656,-0.507967 -0.55796,-1.107376 -0.6068,-1.720495 v 0 c 1.106561,-0.167232 2.220543,-0.285461 3.337583,-0.354217 2.391105,-0.147187 4.791187,-0.06751 7.180873,0.101205 0.724659,0.05116 1.45646,0.110266 2.174501,0 0.686372,-0.105405 1.348392,-0.366885 1.921643,-0.759041 v 0 c -1.878243,-1.635074 -4.389666,-2.522038 -6.87748,-2.428931 -1.436401,0.05376 -2.839973,0.418273 -4.247827,0.70844 -0.6329,0.130438 -1.27702,0.246677 -1.921651,0.202412 -0.699451,-0.04803 -1.391852,-0.293241 -1.933973,-0.738075 -0.54214,-0.444834 -0.924182,-1.094534 -0.999062,-1.792062 -0.0681,-0.634443 0.1162,-1.279808 0.440221,-1.829384 0.324031,-0.549574 0.781482,-1.010237 1.279132,-1.409189 1.174302,-0.941346 2.585293,-1.560071 4.045576,-1.922899 1.909643,-0.474485 3.901965,-0.52283 5.866078,-0.404823 4.475647,0.268912 8.876152,1.389433 13.046949,3.036162 3.820085,1.508264 7.57547,3.550465 10.113913,6.780761 1.139742,1.450391 2.015943,3.140272 2.326203,4.959063 0.410582,2.406919 -0.18125,4.855297 -0.40456,7.286785 -0.068,0.74071 -0.10156,1.489663 0,2.22652 0.0797,0.577564 0.24132,1.141101 0.32791,1.717661 0.0866,0.576557 0.094,1.183302 -0.12563,1.723322 -0.15055,0.370143 -0.4002,0.690729 -0.66098,0.993394 -0.260791,0.30266 -0.537191,0.594529 -0.754971,0.929505 -0.594572,0.914548 -0.697112,2.052098 -0.809102,3.137368 -0.0662,0.641496 -0.14237,1.286418 -0.333031,1.902466 -0.19063,0.616045 -0.50363,1.207333 -0.981799,1.639723 -0.511092,0.462149 -1.171823,0.71325 -1.791284,1.014737 -0.309731,0.150742 -0.613941,0.317186 -0.884972,0.52985 -0.27104,0.21266 -0.50904,0.474 -0.66132,0.783136 -0.262601,0.533084 -0.250461,1.153465 -0.264391,1.747622 -0.007,0.297076 -0.0221,0.595576 -0.0845,0.886085 -0.0625,0.290512 -0.174471,0.574516 -0.359061,0.807277 -0.209679,0.264351 -0.504679,0.451698 -0.81875,0.574694 -0.314061,0.122998 -0.648361,0.185319 -0.982241,0.233077 -0.33387,0.04776 -0.67018,0.0817 -1.000254,0.150973 -0.33009,0.06927 -0.65651,0.175557 -0.94094,0.356925 -0.32395,0.206577 -0.582551,0.504122 -0.78629,0.830003 -0.20373,0.325883 -0.355711,0.681076 -0.499701,1.037449 -0.28796,0.712751 -0.56756,1.467095 -1.141342,1.978352 -0.44215,0.393957 -1.014731,0.601864 -1.571452,0.803354 -0.556721,0.201491 -1.128332,0.414673 -1.563873,0.815932 -0.30236,0.278564 -0.52425,0.6363 -0.68375,1.015331 -0.15952,0.379031 -0.2592,0.780428 -0.343021,1.183049 -0.16761,0.805246 -0.28149,1.643581 -0.69259,2.355864 -0.390021,0.675756 -1.030833,1.190088 -1.751223,1.488918 -0.720402,0.298833 -1.516602,0.39027 -2.294334,0.332778 -0.515601,-0.03812 -1.026481,-0.140354 -1.517092,-0.303617 v 0 c 0.490541,0.288412 0.903851,0.707005 1.186122,1.20131 0.28228,0.494305 0.43284,1.063127 0.43212,1.63244 -7.8e-4,0.60629 -0.1736,1.21142 -0.493141,1.72655 -0.31952,0.515128 -0.78475,0.938656 -1.327371,1.208406 v 0 c 0.745331,-0.08034 1.506452,-0.01111 2.225064,0.202411 0.40977,0.121748 0.81096,0.293068 1.14459,0.560435 0.333643,0.267365 0.596352,0.638603 0.675912,1.058853 0.0675,0.356844 0.002,0.72635 -0.10448,1.073731 -0.10594,0.347382 -0.251399,0.682084 -0.34833,1.032086 -0.097,0.350004 -0.143851,0.724785 -0.0488,1.075328 0.0474,0.175271 0.130681,0.342028 0.25079,0.478169 0.12009,0.13614 0.27787,0.240701 0.45316,0.287693 0.21315,0.05714 0.4387,0.02823 0.65744,-8.05e-4 0.218761,-0.02903 0.444492,-0.05738 0.657362,8.05e-4 0.243591,0.06659 0.452351,0.250303 0.549491,0.483553 0.0972,0.233254 0.0805,0.510937 -0.0438,0.730911"
     id="path872"
     inkscape:connector-curvature="0"
     sodipodi:nodetypes="ccccccccscccsscccssccsccsscccccsscccscccscscssccccscccscscsscssssccccssssssccccscccssssssccsccccsssccsccsccsccccc" />
  <path
     style="fill:#000000;fill-opacity:1;stroke:none;stroke-width:0.99486053px;stroke-linecap:round;stroke-linejoin:round;stroke-opacity:1"
     d="m 73.554746,25.647851 c -0.255031,0.0038 -0.509561,0.03968 -0.755621,0.106904 -0.492122,0.134449 -0.949292,0.398354 -1.303392,0.765829 -0.354091,0.367474 -0.603572,0.837453 -0.697332,1.339224 -0.10208,0.54617 -0.0204,1.12165 0.20201,1.630783 0.222381,0.509135 0.550872,0.94498 0.980932,1.381987 2.215193,1.646983 3.843527,1.255882 4.860047,-1.06516 0.17854,-0.612453 0.15128,-1.279671 -0.0602,-1.881524 -0.21149,-0.601854 -0.60439,-1.136412 -1.10333,-1.533598 -0.399204,-0.317804 -0.866354,-0.548745 -1.363614,-0.662809 -0.248611,-0.05703 -0.504441,-0.08544 -0.75948,-0.08163 z m 0.90323,3.374301 c 0.13383,8.74e-4 0.26706,0.02265 0.39433,0.06414 0.25453,0.08295 0.48322,0.245716 0.642951,0.46066 0.159722,0.214949 0.250333,0.480545 0.256393,0.748335 0.0204,0.666452 -1.320124,1.400287 -2.107544,0.829971 -0.239761,-0.178757 -0.402381,-0.457479 -0.440941,-0.754166 -0.0362,-0.278459 0.0367,-0.568454 0.19424,-0.800813 0.157571,-0.23236 0.39639,-0.406352 0.66431,-0.489818 0.127791,-0.03982 0.262431,-0.05918 0.396261,-0.05832 z"
     id="path935"
     inkscape:connector-curvature="0"
     sodipodi:nodetypes="csccsccsscccccccccccc" />
  <path
     style="fill:none;stroke:#000000;stroke-width:0.99486053px;stroke-linecap:round;stroke-linejoin:round;stroke-opacity:1"
     d="m 69.7271,39.490563 c -0.933652,-0.37555 -1.997553,-0.417045 -2.957604,-0.11535 -0.897862,0.286143 -1.405172,0.49345 -2.049854,1.211302 -0.53021,0.590392 -0.68502,1.447475 -0.71581,2.240645 -0.0307,0.793165 0.15806,1.593749 0.54,2.289443"
     id="path941"
     inkscape:connector-curvature="0"
     sodipodi:nodetypes="ccscc" />
  <path
     style="fill:none;stroke:#000000;stroke-width:0.99486053px;stroke-linecap:round;stroke-linejoin:round;stroke-opacity:1"
     d="m 55.751711,50.447645 c 0.0653,-0.748089 0.33387,-1.477418 0.769171,-2.089118 0.433779,-0.609559 1.03202,-1.100739 1.714151,-1.407407"
     id="path950"
     inkscape:connector-curvature="0" />
  <path
     inkscape:connector-curvature="0"
     style="fill:none;stroke:#000000;stroke-width:0.99486053px;stroke-linecap:round;stroke-linejoin:round;stroke-opacity:1"
     d="m 49.12295,55.866291 c 0.0653,-0.748087 0.295332,-1.506787 0.769182,-2.089116 0.961181,-1.181314 1.867112,-1.518561 2.834924,-1.627314"
     id="path950-7"
     sodipodi:nodetypes="csc" />
  <path
     inkscape:connector-curvature="0"
     style="fill:none;stroke:#000000;stroke-width:0.99486053px;stroke-linecap:round;stroke-linejoin:round;stroke-opacity:1"
     d="m 49.441302,60.351349 c -0.198362,-0.924015 0.01,-1.638733 0.4835,-2.221061 0.961191,-1.181316 1.867113,-1.518564 2.834934,-1.627314"
     id="path950-7-7"
     sodipodi:nodetypes="csc" />
  <path
     inkscape:connector-curvature="0"
     style="fill:none;stroke:#000000;stroke-width:0.99486053px;stroke-linecap:round;stroke-linejoin:round;stroke-opacity:1"
     d="m 55.50678,55.843251 c 0.0653,-0.748089 0.354251,-1.463394 0.769171,-2.089117 0.34588,-0.521595 1.032011,-0.990785 1.648232,-1.099538"
     id="path950-7-6"
     sodipodi:nodetypes="csc" />
  <path
     style="fill:none;stroke:#000000;stroke-width:0.99486053px;stroke-linecap:round;stroke-linejoin:round;stroke-opacity:1"
     d="m 63.509361,59.705735 c 0.232151,0.287416 0.583791,0.475022 0.951651,0.507743 0.36786,0.03273 0.747042,-0.08988 1.026212,-0.331818 0.21722,-0.188234 0.37123,-0.441054 0.47787,-0.70804 0.10668,-0.266983 0.16866,-0.549434 0.22537,-0.83131 0.18123,-0.900857 0.313361,-1.811606 0.395561,-2.726846"
     id="path991"
     inkscape:connector-curvature="0" />
  <path
     inkscape:connector-curvature="0"
     style="fill:none;stroke:#000000;stroke-width:0.99486053px;stroke-linecap:round;stroke-linejoin:round;stroke-opacity:1"
     d="m 69.093228,52.921437 c 0.232141,0.287416 0.583782,0.475023 0.951642,0.507744 0.367861,0.03273 0.747051,-0.08987 1.026222,-0.331817 0.21721,-0.188235 0.371221,-0.441055 0.477891,-0.708039 0.10667,-0.266987 0.16864,-0.549434 0.22536,-0.831314 0.18124,-0.900853 0.31336,-1.811605 0.39557,-2.726846"
     id="path991-5" />
  <path
     inkscape:connector-curvature="0"
     style="fill:none;stroke:#000000;stroke-width:0.99486053px;stroke-linecap:round;stroke-linejoin:round;stroke-opacity:1"
     d="m 57.226022,66.511699 c 0.23215,0.287416 0.583771,0.475023 0.951641,0.507744 0.367871,0.03273 0.747042,-0.08987 1.026232,-0.331815 0.2172,-0.188238 0.37121,-0.441056 0.47788,-0.708043 0.10666,-0.266986 0.168651,-0.549433 0.225361,-0.83131 0.18123,-0.900857 0.0496,-0.536144 0.13186,-1.451385"
     id="path991-8"
     sodipodi:nodetypes="ccccsc" />
  <path
     inkscape:connector-curvature="0"
     style="fill:none;stroke:#000000;stroke-width:0.99486053px;stroke-linecap:round;stroke-linejoin:round;stroke-opacity:1"
     d="m 73.675316,47.123214 c 0.303269,0.210889 0.69333,0.292495 1.05564,0.220852 0.36231,-0.07164 0.69203,-0.295562 0.892352,-0.606026 0.155872,-0.241557 0.232992,-0.527409 0.260702,-0.813599 0.0277,-0.286191 0.008,-0.574712 -0.0162,-0.861202 -0.0781,-0.915608 -0.10234,-0.528616 -0.279482,-1.430292"
     id="path991-8-7"
     sodipodi:nodetypes="ccccsc" />
  <path
     inkscape:connector-curvature="0"
     style="fill:none;stroke:#000000;stroke-width:0.99486053px;stroke-linecap:round;stroke-linejoin:round;stroke-opacity:1"
     d="m 75.098796,37.819224 c 0.23216,0.287416 0.583784,0.475022 0.951654,0.507741 0.36786,0.03273 0.74706,-0.08989 1.02622,-0.331816 0.217211,-0.188233 0.371211,-0.441052 0.477881,-0.708039 0.10667,-0.266985 0.168651,-0.549434 0.225361,-0.83131 0.18125,-0.900856 0.0496,-0.536146 0.13186,-1.451388"
     id="path991-8-2"
     sodipodi:nodetypes="ccccsc" />
  <path
     inkscape:connector-curvature="0"
     style="fill:none;stroke:#000000;stroke-width:0.99486053;stroke-linecap:round;stroke-linejoin:round;stroke-miterlimit:4;stroke-dasharray:none;stroke-opacity:1"
     d="m 79.678753,41.112835 c 0.368371,-0.04222 0.723032,-0.330343 0.959912,-0.779789 0.18429,-0.349689 0.295861,-0.784382 0.358441,-1.229224 0.0626,-0.444839 0.0786,-0.902529 0.0894,-1.357983 0.0348,-1.455599 -0.0368,-1.224709 -0.474991,-2.615472"
     id="path991-8-5"
     sodipodi:nodetypes="cccsc" />
  <path
     inkscape:connector-curvature="0"
     style="fill:none;stroke:#000000;stroke-width:0.99486053px;stroke-linecap:round;stroke-linejoin:round;stroke-opacity:1"
     d="m 41.816321,60.787267 c 0.0653,-0.748089 0.29535,-1.506789 0.76917,-2.089118 0.961212,-1.181317 1.867123,-1.518561 2.834944,-1.62731"
     id="path950-7-4"
     sodipodi:nodetypes="csc" />
  <path
     inkscape:connector-curvature="0"
     style="fill:none;stroke:#000000;stroke-width:0.99486053px;stroke-linecap:round;stroke-linejoin:round;stroke-opacity:1"
     d="m 41.692001,66.882782 c 0.0653,-0.748089 0.29535,-1.50679 0.76918,-2.089117 0.961202,-1.181315 1.867103,-1.518564 2.834944,-1.627315"
     id="path950-7-1"
     sodipodi:nodetypes="csc" />
  <path
     inkscape:connector-curvature="0"
     style="fill:none;stroke:#000000;stroke-width:0.99486053px;stroke-linecap:round;stroke-linejoin:round;stroke-opacity:1"
     d="m 36.657162,68.313362 c 0.0653,-0.748091 0.295351,-1.506788 0.769173,-2.089116 0.96122,-1.181319 1.867122,-1.518565 2.834944,-1.627315"
     id="path950-7-0"
     sodipodi:nodetypes="csc" />
  <path
     inkscape:connector-curvature="0"
     style="fill:none;stroke:#000000;stroke-width:0.99486053px;stroke-linecap:round;stroke-linejoin:round;stroke-opacity:1"
     d="m 44.600114,71.856708 c -0.11141,-0.742619 -0.0652,-1.534111 0.259291,-2.211219 0.65828,-1.373585 1.460183,-1.91358 2.375713,-2.245924"
     id="path950-7-15"
     sodipodi:nodetypes="csc" />
  <path
     style="fill:none;stroke:#000000;stroke-width:1px;stroke-linecap:round;stroke-linejoin:round;stroke-opacity:1"
     d="m 36.25,70.375 c 0.104141,-0.0028 0.208359,-0.0028 0.3125,0 1.014225,0.02738 2.042201,0.339666 2.8125,1 0.885615,0.759188 1.36773,1.964474 1.25,3.125"
     id="path1077"
     inkscape:connector-curvature="0"
     inkscape:path-effect="#path-effect1079"
     inkscape:original-d="m 36.25,70.375 c 0.105167,-0.001 0.209333,-0.001 0.3125,0 0.103167,0.001 1.876,0.665667 2.8125,1 0.9365,0.334334 0.834333,2.082334 1.25,3.125"
     transform="matrix(0.99453503,0,0,0.99518614,-2.3756624,0.83816946)" />
  <path
     style="fill:none;stroke:#000000;stroke-width:0.99486053px;stroke-linecap:round;stroke-linejoin:round;stroke-opacity:1"
     d="m 37.778675,77.032113 c 1.148572,-0.125742 2.324254,0.0026 3.418724,0.373193 0.480992,0.162872 0.948592,0.373164 1.368632,0.658697 0.420041,0.285535 0.792142,0.648461 1.055543,1.082879 0.282489,0.465921 0.43474,1.010008 0.43511,1.554978"
     id="path1081"
     inkscape:connector-curvature="0" />
  <path
     style="fill:none;stroke:#000000;stroke-width:0.99486053px;stroke-linecap:round;stroke-linejoin:round;stroke-opacity:1"
     d="m 41.881131,80.950658 c 0.70131,-0.217245 1.443342,-0.302104 2.175553,-0.248798 1.196501,0.0871 2.362984,0.549604 3.294394,1.306182"
     id="path1085"
     inkscape:connector-curvature="0" />
  <path
     style="fill:none;stroke:#000000;stroke-width:0.99486053px;stroke-linecap:round;stroke-linejoin:round;stroke-opacity:1"
     d="m 47.040288,84.682606 c 0.27028,-0.08508 0.57105,-0.06919 0.830892,0.04386 0.259849,0.113052 0.476569,0.32232 0.598759,0.578138 0.10043,0.210313 0.1372,0.450571 0.10426,0.681323 -0.0329,0.230751 -0.13548,0.4511 -0.29074,0.624858"
     id="path1089"
     inkscape:connector-curvature="0" />
  <path
     style="fill:none;stroke:#000000;stroke-width:0.99486053px;stroke-linecap:round;stroke-linejoin:round;stroke-opacity:1"
     d="m 57.545062,75.912528 c 0.310301,0.833564 0.310301,1.778801 0,2.612363 -0.34681,0.931607 -1.08078,1.711971 -1.989071,2.11477"
     id="path1096"
     inkscape:connector-curvature="0" />
  <path
     style="fill:none;stroke:#000000;stroke-width:0.99486053px;stroke-linecap:round;stroke-linejoin:round;stroke-opacity:1"
     d="m 57.731543,78.587092 c 0.958922,0.02477 1.904482,0.407742 2.610644,1.057384 0.901791,0.829593 1.386861,2.070937 1.367481,3.296552 -0.015,0.951576 -0.32248,1.896529 -0.870209,2.674565"
     id="path1100"
     inkscape:connector-curvature="0" />
  <path
     style="fill:none;stroke:#000000;stroke-width:1px;stroke-linecap:round;stroke-linejoin:round;stroke-opacity:1"
     d="m 46.0625,74.5 c 0.04785,0.551229 -0.03868,1.113642 -0.25,1.625 -0.173241,0.41921 -0.429668,0.803851 -0.75,1.125"
     id="path1106"
     inkscape:connector-curvature="0"
     inkscape:path-effect="#path-effect1108"
     inkscape:original-d="m 46.0625,74.5 c -0.08233,0.540667 -0.165667,1.082334 -0.25,1.625 -0.08433,0.542667 -0.499,0.749 -0.75,1.125"
     transform="matrix(0.99453503,0,0,0.99518614,-2.3756624,0.83816946)" />
  <path
     style="fill:none;stroke:#000000;stroke-width:1px;stroke-linecap:round;stroke-linejoin:round;stroke-opacity:1"
     d="m 49.5,76.0625 c -0.09642,0.894932 -0.472508,1.757713 -1.0625,2.4375 -0.412765,0.475587 -0.927862,0.861909 -1.5,1.125"
     id="path1110"
     inkscape:connector-curvature="0"
     inkscape:path-effect="#path-effect1112"
     inkscape:original-d="m 49.5,76.0625 c -0.353167,0.8115 -0.707333,1.624 -1.0625,2.4375 -0.355167,0.8135 -0.999,0.749 -1.5,1.125"
     transform="matrix(0.99453503,0,0,0.99518614,-2.3756624,0.83816946)" />
  <path
     style="fill:none;stroke:#000000;stroke-width:1px;stroke-linecap:round;stroke-linejoin:round;stroke-opacity:1"
     d="m 37.8125,86.5625 c -0.482435,1.023357 -0.616454,2.207193 -0.375,3.3125 0.174633,0.79942 0.542121,1.556013 1.0625,2.1875"
     id="path1114"
     inkscape:connector-curvature="0"
     inkscape:path-effect="#path-effect1116"
     inkscape:original-d="m 37.8125,86.5625 c -0.124,1.103167 -0.249,2.207334 -0.375,3.3125 -0.126,1.105167 0.709333,1.457334 1.0625,2.1875"
     transform="matrix(0.99453503,0,0,0.99518614,-2.3756624,0.83816946)" />
  <path
     style="fill:none;stroke:#000000;stroke-width:1px;stroke-linecap:round;stroke-linejoin:round;stroke-opacity:1"
     d="m 41.6875,95.25 c 0.0015,0.08333 0.0015,0.166675 0,0.25 -0.01137,0.64654 -0.110922,1.292676 -0.0625,1.9375 0.04778,0.636217 0.24168,1.261021 0.5625,1.8125"
     id="path1118"
     inkscape:connector-curvature="0"
     inkscape:path-effect="#path-effect1120"
     inkscape:original-d="m 41.6875,95.25 c 10e-4,0.08233 10e-4,0.165667 0,0.25 -10e-4,0.08433 -0.04067,1.290667 -0.0625,1.9375 -0.02183,0.646834 0.376,1.207334 0.5625,1.8125"
     transform="matrix(0.99453503,0,0,0.99518614,-2.3756624,0.83816946)" />
  <path
     style="fill:none;stroke:#000000;stroke-width:1px;stroke-linecap:round;stroke-linejoin:round;stroke-opacity:1"
     d="m 46.375,101.3125 c -0.197884,-0.15145 -0.449954,-0.2305 -0.698883,-0.21919 -0.24893,0.0113 -0.492788,0.11292 -0.676117,0.28169 -0.159581,0.14691 -0.271749,0.34078 -0.33997,0.54668 -0.06822,0.2059 -0.09407,0.42394 -0.09753,0.64082 -0.01008,0.63104 0.171028,1.26389 0.513428,1.79406 0.342401,0.53017 0.844738,0.95556 1.424072,1.20594"
     id="path1122"
     inkscape:connector-curvature="0"
     inkscape:path-effect="#path-effect1124"
     inkscape:original-d="m 46.375,101.3125 c -0.457333,0.0198 -0.915667,0.0407 -1.375,0.0625 -0.459333,0.0218 -0.290667,0.79067 -0.4375,1.1875 -0.146833,0.39683 1.292667,1.999 1.9375,3"
     transform="matrix(0.99453503,0,0,0.99518614,-2.3756624,0.83816946)" />
  <path
     style="fill:none;stroke:#000000;stroke-width:1px;stroke-linecap:round;stroke-linejoin:round;stroke-opacity:1"
     d="m 40.125,96.5625 c -0.849632,0.692651 -1.488692,1.640223 -1.8125,2.6875 -0.305607,0.98841 -0.330019,2.06311 -0.0625,3.0625 0.460285,1.71952 1.816267,3.17236 3.5,3.75"
     id="path1126"
     inkscape:connector-curvature="0"
     inkscape:path-effect="#path-effect1128"
     inkscape:original-d="m 40.125,96.5625 c -0.582333,0.894834 -1.207333,1.790667 -1.8125,2.6875 -0.605167,0.89683 -0.04067,2.04067 -0.0625,3.0625 -0.02183,1.02183 2.334333,2.499 3.5,3.75"
     transform="matrix(0.99453503,0,0,0.99518614,-2.3756624,0.83816946)" />
  <path
     style="fill:none;stroke:#000000;stroke-width:1px;stroke-linecap:round;stroke-linejoin:round;stroke-opacity:1"
     d="m 42.625,104.375 c -0.438047,0.46875 -0.744299,1.05938 -0.875,1.6875 -0.163558,0.78602 -0.05314,1.60906 0.1875,2.375 0.224353,0.7141 0.565524,1.3991 1.059704,1.96129 0.494179,0.5622 1.148146,0.99672 1.877796,1.16371 0.450573,0.10312 0.924427,0.10312 1.375,0"
     id="path1130"
     inkscape:connector-curvature="0"
     inkscape:path-effect="#path-effect1132"
     inkscape:original-d="m 42.625,104.375 c -0.290667,0.5615 -0.582333,1.124 -0.875,1.6875 -0.292667,0.5635 0.126,1.58233 0.1875,2.375 0.0615,0.79267 1.959333,2.08233 2.9375,3.125 0.978167,1.04267 0.917667,-0.001 1.375,0"
     transform="matrix(0.99453503,0,0,0.99518614,-2.3756624,0.83816946)" />
  <path
     style="fill:none;stroke:#000000;stroke-width:1px;stroke-linecap:round;stroke-linejoin:round;stroke-opacity:1"
     d="m 47.3125,109.5 c -0.617682,0.50174 -1.012569,1.26828 -1.0625,2.0625 -0.03647,0.58012 0.107217,1.1703 0.406276,1.66873 0.299058,0.49844 0.75219,0.90295 1.281224,1.14377"
     id="path1134"
     inkscape:connector-curvature="0"
     inkscape:path-effect="#path-effect1136"
     inkscape:original-d="m 47.3125,109.5 c -0.353167,0.6865 -0.707333,1.374 -1.0625,2.0625 -0.355167,0.6885 1.126,1.874 1.6875,2.8125"
     transform="matrix(0.99453503,0,0,0.99518614,-2.3756624,0.83816946)" />
  <path
     style="fill:none;stroke:#000000;stroke-width:1px;stroke-linecap:round;stroke-linejoin:round;stroke-opacity:1"
     d="m 35.75,90.1875 c -0.744486,1.148272 -1.160797,2.506762 -1.1875,3.875 -0.02559,1.31138 0.309242,2.635 1,3.75 0.60514,0.976799 1.47908,1.785193 2.5,2.3125"
     id="path1138"
     inkscape:connector-curvature="0"
     inkscape:path-effect="#path-effect1140"
     inkscape:original-d="m 35.75,90.1875 c -0.394833,1.290667 -0.790667,2.582334 -1.1875,3.875 -0.396833,1.292667 0.667667,2.499 1,3.75 0.332333,1.251 1.667667,1.540667 2.5,2.3125"
     transform="matrix(0.99453503,0,0,0.99518614,-2.3756624,0.83816946)" />
  <path
     style="fill:none;stroke:#000000;stroke-width:1px;stroke-linecap:round;stroke-linejoin:round;stroke-opacity:1"
     d="m 30.375,72.75 c -0.674121,0.881403 -1.091205,1.957042 -1.1875,3.0625 -0.122848,1.410281 0.28503,2.860511 1.125,4"
     id="path1142"
     inkscape:connector-curvature="0"
     inkscape:path-effect="#path-effect1144"
     inkscape:original-d="m 30.375,72.75 c -0.394833,1.019834 -0.790667,2.040667 -1.1875,3.0625 -0.396833,1.021834 0.751,2.665667 1.125,4"
     transform="matrix(0.99453503,0,0,0.99518614,-2.3756624,0.83816946)" />
  <path
     style="fill:none;stroke:#000000;stroke-width:1px;stroke-linecap:round;stroke-linejoin:round;stroke-opacity:1"
     d="m 30.875,78.5625 c -0.248199,0.385638 -0.438479,0.808482 -0.5625,1.25 -0.287095,1.022067 -0.207238,2.143138 0.221832,3.114191 0.429069,0.971052 1.204185,1.784916 2.153168,2.260809"
     id="path1146"
     inkscape:connector-curvature="0"
     inkscape:path-effect="#path-effect1148"
     inkscape:original-d="m 30.875,78.5625 c -0.1865,0.415667 -0.374,0.832333 -0.5625,1.25 -0.1885,0.417667 1.584333,3.582333 2.375,5.375"
     transform="matrix(0.99453503,0,0,0.99518614,-2.3756624,0.83816946)" />
  <path
     style="fill:none;stroke:#000000;stroke-width:1px;stroke-linecap:round;stroke-linejoin:round;stroke-opacity:1"
     d="m 33.875,83.625 c -0.511269,0.41782 -0.921826,0.958027 -1.1875,1.5625 -0.31723,0.721775 -0.425598,1.525713 -0.375,2.3125 0.107129,1.665832 0.944956,3.271667 2.25,4.3125"
     id="path1150"
     inkscape:connector-curvature="0"
     inkscape:path-effect="#path-effect1152"
     inkscape:original-d="m 33.875,83.625 c -0.394833,0.519833 -0.790667,1.040667 -1.1875,1.5625 -0.396833,0.521833 -0.249,1.540667 -0.375,2.3125 -0.126,0.771834 1.501,2.874 2.25,4.3125"
     transform="matrix(0.99453503,0,0,0.99518614,-2.3756624,0.83816946)" />
  <path
     style="fill:none;stroke:#000000;stroke-width:1px;stroke-linecap:round;stroke-linejoin:round;stroke-opacity:1"
     d="m 66.689008,86.309633 c -0.05099,0.03045 -0.102562,0.05992 -0.154679,0.08839 -0.338864,0.185133 -0.705122,0.328978 -1.088412,0.375791 -0.383291,0.04681 -0.785507,-0.0084 -1.121297,-0.199015 C 64.083128,86.437687 63.880784,86.232483 63.747075,85.98909 63.613366,85.745698 63.5487,85.464859 63.5625,85.187501"
     id="path1154"
     inkscape:connector-curvature="0"
     inkscape:path-effect="#path-effect1156"
     inkscape:original-d="m 66.689008,86.309633 c -0.05056,0.02846 -0.10212,0.05793 -0.154679,0.08839 -0.05256,0.03046 -1.47214,0.116851 -2.209709,0.176776 -0.73757,0.05993 -0.50708,-0.925865 -0.76212,-1.387298"
     transform="matrix(0.99453503,0,0,0.99518614,-2.3756624,0.83816946)" />
  <ellipse
     style="opacity:1;fill:#000000;fill-opacity:1;fill-rule:evenodd;stroke:none;stroke-width:0.99486053;stroke-linecap:round;stroke-linejoin:round;stroke-miterlimit:4;stroke-dasharray:none;stroke-dashoffset:0;stroke-opacity:0.50196078;paint-order:markers fill stroke"
     id="path1171"
     cx="26.931961"
     cy="50.519726"
     rx="0.40402988"
     ry="1.9748226" />
  <ellipse
     style="opacity:1;fill:#000000;fill-opacity:1;fill-rule:evenodd;stroke:none;stroke-width:1.35330069;stroke-linecap:round;stroke-linejoin:round;stroke-miterlimit:4;stroke-dasharray:none;stroke-dashoffset:0;stroke-opacity:0.50196078;paint-order:markers fill stroke"
     id="path1171-7"
     cx="36.753014"
     cy="51.095062"
     rx="0.40402988"
     ry="3.6541991" />
  <path
     style="fill:none;stroke:#000000;stroke-width:1px;stroke-linecap:round;stroke-linejoin:round;stroke-opacity:1"
     d="m 39.4375,39.8125 c 0.190345,0.21063 0.293664,0.497627 0.28125,0.78125 -0.01168,0.266931 -0.125257,0.528149 -0.3125,0.71875"
     id="path1196"
     inkscape:connector-curvature="0"
     inkscape:path-effect="#path-effect1198"
     inkscape:original-d="m 39.4375,39.8125 c 0.09475,0.259417 0.1885,0.519834 0.28125,0.78125 0.09275,0.261417 -0.207333,0.478167 -0.3125,0.71875"
     transform="matrix(0.99453503,0,0,0.99518614,-2.3756624,0.83816946)" />
  <path
     style="fill:none;stroke:#000000;stroke-width:1px;stroke-linecap:round;stroke-linejoin:round;stroke-opacity:1"
     d="m 26.34375,43.75 c 1.11e-4,0.08333 1.11e-4,0.166667 0,0.25 -1.37e-4,0.102945 -4.07e-4,0.2064 0.01549,0.308111 0.01589,0.101712 0.04881,0.202494 0.109513,0.285639 0.05556,0.0761 0.133732,0.135461 0.221952,0.168544 0.08822,0.03308 0.186154,0.03976 0.278048,0.01896"
     id="path1200"
     inkscape:connector-curvature="0"
     inkscape:path-effect="#path-effect1202"
     inkscape:original-d="m 26.34375,43.75 c 0.001,0.08233 0.001,0.165667 0,0.25 -0.001,0.08433 0.08433,0.394834 0.125,0.59375 0.04067,0.198917 0.334333,0.124 0.5,0.1875"
     transform="matrix(0.99453503,0,0,0.99518614,-2.3756624,0.83816946)" />
  <path
     style="fill:none;stroke:#000000;stroke-width:1px;stroke-linecap:round;stroke-linejoin:round;stroke-opacity:1"
     d="m 35.90625,33.625 c 0.417346,0.03144 0.821996,0.211288 1.125,0.5 0.324337,0.309038 0.528842,0.740772 0.5625,1.1875"
     id="path1204"
     inkscape:connector-curvature="0"
     inkscape:path-effect="#path-effect1206"
     inkscape:original-d="m 35.90625,33.625 c 0.376,0.15525 0.751,0.332334 1.125,0.5 0.374,0.167667 0.376,0.790667 0.5625,1.1875"
     transform="matrix(0.99453503,0,0,0.99518614,-2.3756624,0.83816946)" />
  <path
     style="fill:none;stroke:#000000;stroke-width:1px;stroke-linecap:round;stroke-linejoin:round;stroke-opacity:1"
     d="M 56.789513,20.592897 57.34194,20.305635"
     id="path1208"
     inkscape:connector-curvature="0"
     inkscape:path-effect="#path-effect1210"
     inkscape:original-d="m 56.789513,20.592897 c 0.185143,-0.09675 0.369285,-0.192508 0.552427,-0.287262"
     transform="matrix(0.99453503,0,0,0.99518614,-2.3756624,0.83816946)" />
  <path
     style="fill:none;stroke:#000000;stroke-width:1px;stroke-linecap:round;stroke-linejoin:round;stroke-opacity:1"
     d="M 63.46875,19.5 65.625,21.875"
     id="path1212"
     inkscape:connector-curvature="0"
     inkscape:path-effect="#path-effect1214"
     inkscape:original-d="m 63.46875,19.5 c 0.71975,0.78025 1.4385,1.582334 2.15625,2.375"
     transform="matrix(0.99453503,0,0,0.99518614,-2.3756624,0.83816946)" />
  <path
     style="fill:none;stroke:#000000;stroke-width:1px;stroke-linecap:round;stroke-linejoin:round;stroke-opacity:1"
     d="m 65.46875,21.375 c 0.595228,-0.05664 1.199766,-0.01422 1.78125,0.125 0.597626,0.143085 1.166657,0.38639 1.71875,0.65625 1.733716,0.84743 3.332659,1.969868 4.71875,3.3125"
     id="path1216"
     inkscape:connector-curvature="0"
     inkscape:path-effect="#path-effect1218"
     inkscape:original-d="m 65.46875,21.375 c 0.59475,0.04067 1.1885,0.08233 1.78125,0.125 0.59275,0.04267 1.146833,0.4365 1.71875,0.65625 0.571917,0.21975 3.146833,2.207334 4.71875,3.3125"
     transform="matrix(0.99453503,0,0,0.99518614,-2.3756624,0.83816946)" />
  <path
     style="fill:#ffffff;fill-opacity:1;stroke:none;stroke-width:0.99486053px;stroke-linecap:butt;stroke-linejoin:miter;stroke-opacity:1"
     d="m 75.77026,19.325603 c -0.0879,-0.219906 -2.241574,-6.245364 -2.241574,-6.245364 l -3.032765,-2.594904 -0.395561,2.15509 0.922991,3.034717 2.417414,4.2662 z"
     id="path1254"
     inkscape:connector-curvature="0" />
  <path
     style="fill:#fffffd;fill-opacity:1;stroke:#000000;stroke-width:1px;stroke-linecap:butt;stroke-linejoin:miter;stroke-opacity:1"
     d="m 80.919532,17.830761 c -1.115087,-0.328065 -2.286646,-0.463226 -3.447145,-0.397747 -0.307952,0.01738 -0.619606,0.04979 -0.907185,0.161299 -0.287579,0.111513 -0.551876,0.311199 -0.683806,0.590002 -0.103577,0.218886 -0.118769,0.475101 -0.05813,0.709543 0.06063,0.234443 0.194289,0.447051 0.367495,0.616282 0.24637,0.240716 0.564772,0.392236 0.88251,0.525224 0.317737,0.132988 0.644502,0.253536 0.929451,0.447048 0.380044,0.258093 0.665289,0.631902 1.016466,0.928077 0.610235,0.514659 1.403879,0.782501 1.988737,1.325826 0.343253,0.318878 0.598949,0.718529 0.853794,1.111671 0.254844,0.393141 0.517121,0.789592 0.869779,1.098037 0.585798,0.512357 1.379828,0.746126 1.944544,1.281631 0.265738,0.251992 0.469654,0.560883 0.707107,0.83969 0.486856,0.571646 1.143492,1.026467 1.884702,1.146531 0.370605,0.06003 0.756999,0.03432 1.110746,-0.09144 0.353746,-0.125759 0.673303,-0.353367 0.893639,-0.657347 0.204139,-0.281634 0.319717,-0.622787 0.35251,-0.969074 0.03279,-0.346287 -0.01512,-0.697593 -0.116541,-1.030315 -0.202845,-0.665443 -0.610997,-1.247082 -1.031464,-1.80131 -1.956697,-2.57917 -4.451425,-4.919893 -7.557204,-5.833631 z"
     id="path1220"
     inkscape:connector-curvature="0"
     inkscape:path-effect="#path-effect1222"
     inkscape:original-d="m 80.919532,17.830761 c -2.520068,-1.943543 -2.297097,-0.266165 -3.447145,-0.397747 -1.150049,-0.131583 -1.059661,0.499867 -1.590991,0.751301 -0.53133,0.251433 0.20724,0.882883 0.30936,1.325825 0.102119,0.442942 1.208974,0.647181 1.811961,0.972272 0.602987,0.32509 0.678644,0.617718 1.016466,0.928077 0.337822,0.31036 1.326825,0.882884 1.988737,1.325826 0.661913,0.442941 1.150049,1.472139 1.723573,2.209708 0.573525,0.73757 1.297363,0.853421 1.944544,1.281631 0.647181,0.428211 0.472404,0.558793 0.707107,0.83969 0.234702,0.280896 2.593725,0.264165 3.889087,0.397747 1.295362,0.133583 -0.52933,-2.534799 -0.795495,-3.800699 -0.266165,-1.265899 -5.037136,-3.890087 -7.557204,-5.833631 z"
     transform="matrix(0.99453503,0,0,0.99518614,-2.3756624,0.83816946)" />
  <path
     style="fill:#ffffff;fill-opacity:1;stroke:#000000;stroke-width:0.99486053px;stroke-linecap:round;stroke-linejoin:round;stroke-opacity:1"
     d="m 74.761226,17.923375 c -0.53274,-0.751639 -0.949381,-1.5855 -1.23066,-2.46296 -0.197131,-0.614962 -0.328761,-1.252467 -0.580561,-1.847114 -0.12591,-0.297325 -0.28216,-0.583466 -0.483802,-0.835592 -0.20162,-0.252124 -0.44988,-0.469882 -0.73771,-0.615898 -0.23074,-0.117063 -0.488741,-0.187263 -0.747212,-0.175929 -0.12577,0.0055 -0.24994,0.03006 -0.37538,0.04091 -0.12544,0.01086 -0.255471,0.0073 -0.371811,-0.04091 -0.09,-0.03729 -0.16834,-0.100319 -0.22941,-0.176286 -0.0611,-0.07597 -0.10533,-0.164616 -0.13592,-0.257185 -0.0612,-0.185141 -0.068,-0.383199 -0.0742,-0.578101 -0.0395,-1.2605369 -0.0688,-2.5213929 -0.0879,-3.7824033 v 0 c 0.898091,0.9351057 1.777383,1.8882942 2.637153,2.8587933 1.128163,1.273427 2.231383,2.589286 3.032743,4.090272 0.695614,1.302875 1.150544,2.720809 1.802074,4.046292 0.0289,0.05883 0.0582,0.117479 0.0879,0.175924"
     id="path1224"
     inkscape:connector-curvature="0"
     sodipodi:nodetypes="cssccccccccccsscc" />
  <path
     style="fill:none;stroke:#000000;stroke-width:1px;stroke-linecap:butt;stroke-linejoin:miter;stroke-opacity:1"
     d="m 72.699416,11.069053 c 0.137153,0.992691 0.374444,1.97152 0.707107,2.916815 0.52518,1.492355 1.289122,2.900404 2.253902,4.154252"
     id="path1234"
     inkscape:connector-curvature="0"
     inkscape:path-effect="#path-effect1236"
     inkscape:original-d="m 72.699416,11.069053 c 0.236702,0.971272 0.472404,1.943543 0.707107,2.916815 0.234702,0.973272 1.503601,2.768502 2.253902,4.154252"
     transform="matrix(0.99453503,0,0,0.99518614,-2.3756624,0.83816946)" />
  <path
     style="fill:#ffffff;fill-opacity:1;stroke:#000000;stroke-width:0.99486053px;stroke-linecap:round;stroke-linejoin:round;stroke-opacity:1"
     d="m 84.804401,39.452286 c 0.1501,-0.123824 0.322041,-0.22107 0.505471,-0.285878 0.39082,-0.138092 0.81651,-0.125859 1.230663,-0.109956 1.574591,0.06047 3.151413,0.150171 4.724915,0.06596 0.839491,-0.04493 1.680513,-0.140154 2.490094,-0.36688 0.809601,-0.226727 1.589571,-0.589249 2.234832,-1.128487 0.752521,-0.628891 1.305273,-1.493636 1.560294,-2.44097 v 10e-7 c -1.915955,0.235097 -3.871316,0.145481 -5.757779,-0.263887 -1.371592,-0.297638 -2.708134,-0.764178 -3.955756,-1.407407 -1.029951,-0.531022 -1.998163,-1.181847 -2.878894,-1.935183"
     id="path1242"
     inkscape:connector-curvature="0"
     sodipodi:nodetypes="cssscsccssc" />
  <path
     style="fill:none;stroke:#000000;stroke-width:1px;stroke-linecap:round;stroke-linejoin:round;stroke-opacity:1"
     d="m 86.907843,33.91744 c 0.614491,0.476943 1.302847,0.858532 2.032932,1.126952 0.784554,0.288446 1.617073,0.44595 2.452776,0.464039"
     id="path1248"
     inkscape:connector-curvature="0"
     inkscape:path-effect="#path-effect1250"
     inkscape:original-d="m 86.907843,33.91744 c 0.678644,0.374651 1.356288,0.750301 2.032932,1.126952 0.676644,0.37665 1.636184,0.308359 2.452776,0.464039"
     transform="matrix(0.99453503,0,0,0.99518614,-2.3756624,0.83816946)" />
  <path
     style="fill:#ff0000;fill-opacity:1;stroke:#000000;stroke-width:1.98972106;stroke-linecap:butt;stroke-linejoin:miter;stroke-miterlimit:4;stroke-dasharray:none;stroke-opacity:1"
     d="M 126.95241,1.5163022 15.720613,157.34382 31.453736,173.50022 41.57748,180.3926 53.055536,185.47806 157.62486,39.258082 157.25896,1.7367068 Z"
     id="path11049"
     inkscape:connector-curvature="0"
     sodipodi:nodetypes="cccccccc" />
  <path
     inkscape:connector-curvature="0"
     d="M 157.25896,1.7367068 V 111.95429 a 77.758979,78.270474 0 1 1 -155.5179464,0 V 1.7367068 Z"
     id="use14"
     style="fill:none;stroke:#000000;stroke-width:3.48201203;stroke-miterlimit:4;stroke-dasharray:none" />
</svg>
