<svg width="667" height="809" version="1.1" xmlns="http://www.w3.org/2000/svg">
 <g transform="translate(205 186)">
  <rect x="-200" y="-180" width="656" height="372" fill="#fcdd09" stroke-width="1.77"/>
  <path d="m-200 192h656v106c0 218-177 319-328 319-151 0-328-114-328-337z" fill="#fff" stroke-width="1.77"/>
  <path d="m23 114 248-233c7.49-7.05 32 19.3 26.4 24.6l-247 239c-10 9.71-35.8-22.5-27.3-30.4z" fill="#841" stroke="#000" stroke-width="5.32"/>
  <path d="m-36.5-80.1 262 218c13.2 11 42.4-18.4 26-31.3l-266-210c-6.77-5.35-28.5 18.7-21.9 24.2z" fill="#841" stroke="#000" stroke-linecap="round" stroke-linejoin="round" stroke-width="5.32"/>
  <path d="m-66.5-16.1c30-47.1 70.8-93.4 115-132l54.2 48.8c-40.5 42.9-77.5 86.8-110 132z" stroke-width="1.77"/>
  <path d="m164-105 55.1-54.6 99.4 99.4c6.3 6.3 21.8 74.6 17.5 79.3-4.07 4.3-70.1-19.7-73.9-23.7z" stroke-width="1.77"/>
  <g stroke="#000">
   <path d="m-200 192h656" fill="none" stroke-linecap="round" stroke-linejoin="round" stroke-width="5.32"/>
   <path d="m47.2 130 78.5-74.4" stroke-width="6"/>
   <path d="m156 27.6 72.1-68.1" stroke-width="6"/>
   <path d="m-200-180h656v479c0 186-142 319-328 319-186 0-328-133-328-337z" fill="none" stroke-width="10.6"/>
  </g>
  <path d="m358 216s12.4-1.1 13.5-0.554 19 35.6 19 35.6c-10.9 78.2-15.7 159-34.5 234-46.4 76.8-380 66.5-442 11.5-1.5-1.32-20-102-20-102l-5.5-34.5-6-26-1.5-62.5 13.5-24.5 17.5-0.83 10.5 4.33-0.413 7.06c81.9-30.6 256-49 393-8.06l1-7 23-28 19.5 1" fill="#841" fill-rule="evenodd"/>
  <g fill="none" stroke="#000" stroke-linecap="round" stroke-linejoin="round">
   <path d="m-106 394s18.5 101 20 102c62.7 55 396 65.3 442-11.5 18.8-75.1 23.6-156 34-235l-17.8-34.1" stroke-width="6"/>
   <path d="m-57 335-1-47.5-19.5-37-10.5-4.33-17.5 0.83-13.5 24.5 1.5 62.5 6 26" stroke-width="4"/>
   <path d="m-31.4 358c-4.03 2.02 5.9 167 10.1 166m38.4-154c1.57 53.9 3.84 108 7.58 163m63.1-155 1.95 161m85.2-162-3.02 163m73.6-171c2.46 0.114-4.79 165-8.15 165m56.3-175c0.125 58-1.53 114-10 166m57.7-181c-1.61 54-2.95 107-10.9 164m-416-253s13 33 13 35c0 1.04 2.92 26.7-0.0268 50.7-3.01 24.6 12.9 173 15 172" stroke-width="4"/>
   <path d="m-75 256c79-28.6 253-47 390-6" stroke-width="3"/>
   <path d="m-67.3 270c93.3-34.6 272-39.5 382-4.27" stroke-width="3"/>
   <g stroke-width="4">
    <path d="m-73 340c3 0 16-4.99 16-4.99 114 41.6 300 37.9 417-14.5l21 0.5c-69.7 62.9-347 79-454 19z"/>
    <path d="m358 216s12.4-1.1 13.5-0.554 19.5 36.1 19.5 36.1l-21 1"/>
    <path d="m311 304 5-62 23-28 19.5 1 12 36.5-10.5 68.5z"/>
   </g>
  </g>
  <path d="m-112 360c89 80 385 68.6 488 7.5 12.8-3.92 6.39 27.3-5 30.5-106 58.8-368 65.5-478-3.5-18-17.4-18.3-35.1-5.5-34.5z" fill="#841" fill-rule="evenodd" stroke="#000" stroke-linecap="round" stroke-linejoin="round" stroke-width="4"/>
  <path d="m369 425c8.68-5.91 8.15 15.8-2.94 23.6-72.9 55.8-314 74.5-461 10.8-22.8-19-14.7-42.7-5.5-35 98.4 64.6 323 74.4 458 8h-0.5" fill="#841" fill-rule="evenodd" stroke="#000" stroke-linecap="round" stroke-linejoin="round" stroke-width="4"/>
  <g fill-rule="evenodd" shape-rendering="auto">
   <path d="m372 339c-0.498 0.01-0.974 0.205-1.34 0.547-24.7 23.1-116 38.7-114 40.6-0.298 4.53 98-18.4 117-37.7 0.802-0.76 0.836-2.03 0.0762-2.83-0.388-0.408-0.929-0.635-1.49-0.623z" color="#000000" color-rendering="auto" dominant-baseline="auto" image-rendering="auto" solid-color="#000000" stop-color="#000000" style="font-feature-settings:normal;font-variant-alternates:normal;font-variant-caps:normal;font-variant-east-asian:normal;font-variant-ligatures:normal;font-variant-numeric:normal;font-variant-position:normal;font-variation-settings:normal;inline-size:0;isolation:auto;mix-blend-mode:normal;shape-margin:0;shape-padding:0;text-decoration-color:#000000;text-decoration-line:none;text-decoration-style:solid;text-indent:0;text-orientation:mixed;text-transform:none;white-space:normal"/>
   <path d="m364 355c-30.5 19.2-79.6 28-77 29.8 4.52 4.21 77.3-18.4 78.7-28.8-0.367-0.583-1.01-0.937-1.7-0.936z" color="#000000" color-rendering="auto" dominant-baseline="auto" image-rendering="auto" solid-color="#000000" stop-color="#000000" style="font-feature-settings:normal;font-variant-alternates:normal;font-variant-caps:normal;font-variant-east-asian:normal;font-variant-ligatures:normal;font-variant-numeric:normal;font-variant-position:normal;font-variation-settings:normal;inline-size:0;isolation:auto;mix-blend-mode:normal;shape-margin:0;shape-padding:0;text-decoration-color:#000000;text-decoration-line:none;text-decoration-style:solid;text-indent:0;text-orientation:mixed;text-transform:none;white-space:normal"/>
   <path d="m370 381c-30.7 20.1-94.5 33.3-92.1 34.6-5.36 5.6 74.1-14.9 93.8-33.7-0.382-0.573-1.03-0.908-1.72-0.889z" color="#000000" color-rendering="auto" dominant-baseline="auto" image-rendering="auto" solid-color="#000000" stop-color="#000000" style="font-feature-settings:normal;font-variant-alternates:normal;font-variant-caps:normal;font-variant-east-asian:normal;font-variant-ligatures:normal;font-variant-numeric:normal;font-variant-position:normal;font-variation-settings:normal;inline-size:0;isolation:auto;mix-blend-mode:normal;shape-margin:0;shape-padding:0;text-decoration-color:#000000;text-decoration-line:none;text-decoration-style:solid;text-indent:0;text-orientation:mixed;text-transform:none;white-space:normal"/>
   <path d="m354 415c-9.27 8.92-72.1 24.4-66.8 23.7-3 5.46 62.8-14 68.6-22.7-0.354-0.688-1.07-1.11-1.85-1.08z" color="#000000" color-rendering="auto" dominant-baseline="auto" image-rendering="auto" solid-color="#000000" stop-color="#000000" style="font-feature-settings:normal;font-variant-alternates:normal;font-variant-caps:normal;font-variant-east-asian:normal;font-variant-ligatures:normal;font-variant-numeric:normal;font-variant-position:normal;font-variation-settings:normal;inline-size:0;isolation:auto;mix-blend-mode:normal;shape-margin:0;shape-padding:0;text-decoration-color:#000000;text-decoration-line:none;text-decoration-style:solid;text-indent:0;text-orientation:mixed;text-transform:none;white-space:normal"/>
   <path d="m358 441c-13.5 10.5-80.3 29.1-78.2 30.6-0.855 3.7 72.5-18.9 80-29.6-0.367-0.632-1.05-1.01-1.78-0.994z" color="#000000" color-rendering="auto" dominant-baseline="auto" image-rendering="auto" solid-color="#000000" stop-color="#000000" style="font-feature-settings:normal;font-variant-alternates:normal;font-variant-caps:normal;font-variant-east-asian:normal;font-variant-ligatures:normal;font-variant-numeric:normal;font-variant-position:normal;font-variation-settings:normal;inline-size:0;isolation:auto;mix-blend-mode:normal;shape-margin:0;shape-padding:0;text-decoration-color:#000000;text-decoration-line:none;text-decoration-style:solid;text-indent:0;text-orientation:mixed;text-transform:none;white-space:normal"/>
   <path d="m347 472c-5.79 7.5-92.8 29.3-90.2 29.4-2.37 6.31 92.8-23.8 92.1-28.2-0.328-0.748-1.08-1.22-1.89-1.2z" color="#000000" color-rendering="auto" dominant-baseline="auto" image-rendering="auto" solid-color="#000000" stop-color="#000000" style="font-feature-settings:normal;font-variant-alternates:normal;font-variant-caps:normal;font-variant-east-asian:normal;font-variant-ligatures:normal;font-variant-numeric:normal;font-variant-position:normal;font-variation-settings:normal;inline-size:0;isolation:auto;mix-blend-mode:normal;shape-margin:0;shape-padding:0;text-decoration-color:#000000;text-decoration-line:none;text-decoration-style:solid;text-indent:0;text-orientation:mixed;text-transform:none;white-space:normal"/>
   <path d="m-106 333c-0.622-0.0104-1.21 0.269-1.6 0.756-0.687 0.865-0.543 2.12 0.322 2.81 9 7.15 28.8 18.7 55.9 28.9 10.7 4.36 101 27.6 101 18.5-23.2 0.685-77.4-13.9-99.7-22.2-26.8-10.1-46.4-21.7-54.8-28.3-0.345-0.274-0.771-0.426-1.21-0.434z" color="#000000" color-rendering="auto" dominant-baseline="auto" image-rendering="auto" solid-color="#000000" stop-color="#000000" style="font-feature-settings:normal;font-variant-alternates:normal;font-variant-caps:normal;font-variant-east-asian:normal;font-variant-ligatures:normal;font-variant-numeric:normal;font-variant-position:normal;font-variation-settings:normal;inline-size:0;isolation:auto;mix-blend-mode:normal;shape-margin:0;shape-padding:0;text-decoration-color:#000000;text-decoration-line:none;text-decoration-style:solid;text-indent:0;text-orientation:mixed;text-transform:none;white-space:normal"/>
   <path d="m-105 345c-0.623 6e-3 -1.21 0.302-1.58 0.801-0.663 0.884-0.484 2.14 0.4 2.8 10.3 16.9 127 53 145 45.6-45.8-6.24-112-25.4-142-48.8-0.352-0.264-0.781-0.405-1.22-0.4z" color="#000000" color-rendering="auto" dominant-baseline="auto" image-rendering="auto" solid-color="#000000" stop-color="#000000" style="font-feature-settings:normal;font-variant-alternates:normal;font-variant-caps:normal;font-variant-east-asian:normal;font-variant-ligatures:normal;font-variant-numeric:normal;font-variant-position:normal;font-variation-settings:normal;inline-size:0;isolation:auto;mix-blend-mode:normal;shape-margin:0;shape-padding:0;text-decoration-color:#000000;text-decoration-line:none;text-decoration-style:solid;text-indent:0;text-orientation:mixed;text-transform:none;white-space:normal"/>
   <path d="m-105 375c-0.664-3e-3 -1.29 0.323-1.66 0.871-0.624 0.911-0.391 2.16 0.52 2.78 8.2 18.7 132 54.2 127 41.8 7.78 3.29-100-20.1-125-45.1-0.33-0.226-0.72-0.347-1.12-0.35z" color="#000000" color-rendering="auto" dominant-baseline="auto" image-rendering="auto" solid-color="#000000" stop-color="#000000" style="font-feature-settings:normal;font-variant-alternates:normal;font-variant-caps:normal;font-variant-east-asian:normal;font-variant-ligatures:normal;font-variant-numeric:normal;font-variant-position:normal;font-variation-settings:normal;inline-size:0;isolation:auto;mix-blend-mode:normal;shape-margin:0;shape-padding:0;text-decoration-color:#000000;text-decoration-line:none;text-decoration-style:solid;text-indent:0;text-orientation:mixed;text-transform:none;white-space:normal"/>
   <path d="m-96.3 410c-0.749 0.0219-1.42 0.461-1.75 1.14-0.477 0.997-0.0555 2.19 0.941 2.67 9.66 9.06 118 41.6 107 30.8 9.78 3.47-84.4-18.7-105-34.4-0.287-0.138-0.603-0.205-0.922-0.195z" color="#000000" color-rendering="auto" dominant-baseline="auto" image-rendering="auto" solid-color="#000000" stop-color="#000000" style="font-feature-settings:normal;font-variant-alternates:normal;font-variant-caps:normal;font-variant-east-asian:normal;font-variant-ligatures:normal;font-variant-numeric:normal;font-variant-position:normal;font-variation-settings:normal;inline-size:0;isolation:auto;mix-blend-mode:normal;shape-margin:0;shape-padding:0;text-decoration-color:#000000;text-decoration-line:none;text-decoration-style:solid;text-indent:0;text-orientation:mixed;text-transform:none;white-space:normal"/>
   <path d="m-98 440c-0.664 0.0263-1.27 0.381-1.62 0.945-0.582 0.939-0.293 2.17 0.646 2.75 6.77 11.5 119 40.7 114 34.7 9.62 2.59-93.5-21.2-112-38.1-0.339-0.212-0.734-0.315-1.13-0.299z" color="#000000" color-rendering="auto" dominant-baseline="auto" image-rendering="auto" solid-color="#000000" stop-color="#000000" style="font-feature-settings:normal;font-variant-alternates:normal;font-variant-caps:normal;font-variant-east-asian:normal;font-variant-ligatures:normal;font-variant-numeric:normal;font-variant-position:normal;font-variation-settings:normal;inline-size:0;isolation:auto;mix-blend-mode:normal;shape-margin:0;shape-padding:0;text-decoration-color:#000000;text-decoration-line:none;text-decoration-style:solid;text-indent:0;text-orientation:mixed;text-transform:none;white-space:normal"/>
   <path d="m-83.2 476c-4.27 1.29-0.0299 5.99 2.78 6.14 12.2 5.34 25.1 8.84 37.8 12.7 13.9 2.47 26.4 9.65 39.5 8.32-4.36-3.81-31.9-9.49-39.5-12.5-12.3-3.57-24.6-7.24-36.5-12.2-1.43-0.727-2.66-1.8-4.15-2.44z" color="#000000" color-rendering="auto" dominant-baseline="auto" image-rendering="auto" solid-color="#000000" stop-color="#000000" style="font-feature-settings:normal;font-variant-alternates:normal;font-variant-caps:normal;font-variant-east-asian:normal;font-variant-ligatures:normal;font-variant-numeric:normal;font-variant-position:normal;font-variation-settings:normal;inline-size:0;isolation:auto;mix-blend-mode:normal;shape-margin:0;shape-padding:0;text-decoration-color:#000000;text-decoration-line:none;text-decoration-style:solid;text-indent:0;text-orientation:mixed;text-transform:none;white-space:normal"/>
   <path d="m-71.7 488c-0.791-0.0192-1.52 0.43-1.86 1.15-0.471 0.999-0.0425 2.19 0.957 2.66 5.68 2.71 69 19.4 58.5 14.2 11.7 1.06-40.3-10.2-56.8-17.8-0.252-0.119-0.526-0.184-0.805-0.191z" color="#000000" color-rendering="auto" dominant-baseline="auto" image-rendering="auto" solid-color="#000000" stop-color="#000000" style="font-feature-settings:normal;font-variant-alternates:normal;font-variant-caps:normal;font-variant-east-asian:normal;font-variant-ligatures:normal;font-variant-numeric:normal;font-variant-position:normal;font-variation-settings:normal;inline-size:0;isolation:auto;mix-blend-mode:normal;shape-margin:0;shape-padding:0;text-decoration-color:#000000;text-decoration-line:none;text-decoration-style:solid;text-indent:0;text-orientation:mixed;text-transform:none;white-space:normal"/>
  </g>
  <g fill="none" stroke="#000" stroke-linecap="round" stroke-linejoin="round" stroke-width="4">
   <path d="m-101 262 7.34 3.53"/>
   <path d="m-99.5 273 6.79 3.26"/>
   <path d="m-62.5 279c28.4-9.33 53.7-13.7 78.5-17.3"/>
   <path d="m-58 288c19.9-5.04 41-11.2 58.3-13.6"/>
   <path d="m-57.8 298c19.3-5.5 40.4-12.4 56.1-15.2"/>
   <path d="m215 259c34.9 4.03 69.5 8.4 97.7 18.5"/>
   <path d="m249 273c1.91-0.0101 65.7 11.1 63.7 14.1"/>
   <path d="m-41.5 246c2.38 2.72 16.3 12.2 16.3 12.2l1.23 46.8 1.12-0.225"/>
   <path d="m15.6 234 13.4 15-0.813 38.8"/>
   <path d="m96.7 226 4.64 16.9 0.28 39.6"/>
   <path d="m181 228-4.35 14.7 2.9e-4 48.2"/>
   <path d="m249 234s-12 12.8-10.8 13c1.28 0.162 0.939 38.7 0.939 38.7"/>
   <path d="m293 243-9.78 12-1.71 37"/>
  </g>
  <ellipse cx="-94.9" cy="309" rx="11.8" ry="16.8" fill-rule="evenodd" stroke="#000" stroke-linecap="round" stroke-linejoin="round" stroke-width="4.28"/>
  <ellipse cx="-97.2" cy="310" rx="7.29" ry="13.7" fill="#841" fill-rule="evenodd"/>
  <g stroke="#000" stroke-linecap="round" stroke-linejoin="round">
   <ellipse cx="343" cy="274" rx="13.7" ry="19.8" fill="none" stroke-width="4.27"/>
   <path transform="rotate(17.8)" d="m423 157c0 9.79 2.25 14.9-4.22 14.9-6.48 0-11.7-7.94-11.7-17.7s4.88-20.2 8.94-15.1c5.08 6.32 7.01 8.12 7.01 17.9z" fill-rule="evenodd" stroke-width=".5"/>
  </g>
  <path d="m-57.7 303c4.64 8.17 36.4 4.11 52.2-5.73 4.5-2.79 28.9-13.8 45.1-6.43 17.8 8.1 34.4-1.07 39.4-3.36 17.6-8.02 32.4-3.48 52.2-1.63 17.7 6.04 42.2 10.8 57.3 0.543s48.4-3.23 51.4 0.815c3.07 4.17 23.5 7.55 42.1 5.35 19.3-2.27 32.9 8.62 34 9.59 0.172 0.151 5.65 5.96 13.8 6.38 16 0.837 25.4 12.8 23.2 15.3-120 49.1-268 54.5-410 11.4z" fill="#09f" fill-rule="evenodd" stroke="#000" stroke-linecap="round" stroke-linejoin="round" stroke-width="4"/>
  <path d="m154 339c4.63 2.65 22.7 6.9 39.4-0.815 18.1-5.94 32.8-6.1 45.1-1.9 5.85 3.77 12.5 6.94 25.5 5.71m-273 0.543c8.91-0.25 14.3-1.03 22.6-4.89 19-6.06 39-4.71 45.9 0 3.05 2.07 31 6.02 36.1 2.72 11.9-2.24 11-3.5 15.5-4.35m-141-17.4c13.3 0.227 18.4-2.89 25.8-6.25 25.5-11.5 51.9-0.356 52.4 0.272 14.8 3.84 24.8 13.4 52.2 0 6.13-3 34.8-6.21 53.8 0.543 14.9 6.65 41.6 7.04 54.1-0.272 9.18-5.38 35.1-9.74 53 0.272 1.86 1.04 26.9 7.1 27.2 6.25" fill="none" stroke="#000" stroke-linecap="round" stroke-linejoin="round" stroke-width="4"/>
  <path d="m-73 340 0.0724-49.8-13-35.6" fill="none"/>
  <path d="m55.7-31.3 179 142" stroke="#000" stroke-width="6"/>
 </g>
</svg>
