<svg xmlns="http://www.w3.org/2000/svg" width="1181" height="1417" style="shape-rendering:geometricPrecision;text-rendering:geometricPrecision;image-rendering:optimizeQuality;fill-rule:evenodd;clip-rule:evenodd"><path style="opacity:1" fill="#010100" d="M94.5 57.5h988c.17 273.334 0 546.667-.5 820-7.94 151.38-70.11 274.88-186.5 370.5-125.016 94.83-264.683 126.16-419 94-151.635-38.52-262.802-127.36-333.5-266.5-28.532-60.13-44.532-123.461-48-190-.5-276-.667-552-.5-828z"/><path style="opacity:1" fill="#fabf0a" d="M808.5 675.5v-3h-14a5.576 5.576 0 0 0-1-3 6708.16 6708.16 0 0 1-9-10c2.435-2.452 5.102-4.452 8-6-.262 1.478.071 2.811 1 4 4.038 3.31 8.371 5.644 13 7 .949.652 2.115.986 3.5 1 2.221.107 4.054-.56 5.5-2 3.477-.823 7.144-1.323 11-1.5 2.199-3.7 5.199-6.533 9-8.5 1.024 1.353 2.357 2.02 4 2a18.991 18.991 0 0 1 1.5-8c2.057-1.478 3.39-3.478 4-6 15.436-5.437 24.269-16.27 26.5-32.5-1.416-3.506-1.916-7.006-1.5-10.5a21.542 21.542 0 0 0-7.5-5.5 10.94 10.94 0 0 1-3-4.5c-3.37-1.346-6.37-3.179-9-5.5a55.208 55.208 0 0 1 7-3c3.937-4.446 8.27-8.279 13-11.5-.234-6.274-.4-12.607-.5-19-1.011-.837-2.178-1.17-3.5-1a50.464 50.464 0 0 0-.5-10c-1.356-.88-2.856-1.214-4.5-1v-3a609.733 609.733 0 0 0-10.5-1c-2.917-.165-5.583.502-8 2-.667 1.333-.667 2.667 0 4a95.755 95.755 0 0 0 8.5 3.5c.833 2.167 2.333 3.667 4.5 4.5 2.982 10.013-.518 13.847-10.5 11.5-1.123-1.044-2.456-1.71-4-2-.913-2.333-2.413-4.166-4.5-5.5a115.801 115.801 0 0 1-7.5-27c3 .333 4.333-1 4-4 2.357.163 4.69-.003 7-.5 7.866-5.513 16.533-8.179 26-8 1.918 1.77 2.418 3.937 1.5 6.5-4.42.476-8.92.643-13.5.5-1.314 2.605-1.314 5.105 0 7.5 2.135 1.869 4.802 2.536 8 2 .473 1.406 1.473 2.073 3 2 1.374 1.878 3.374 2.878 6 3 1.538.047 2.538-.62 3-2a42.47 42.47 0 0 1 1.5-5c1.878-.553 3.378-1.553 4.5-3 1.316-2.587 1.983-5.587 2-9-.017-3.413-.684-6.413-2-9a20.093 20.093 0 0 0-1.5-6c-2.5-1.167-4.333-3-5.5-5.5-5.137-1.49-9.804-3.823-14-7a961.879 961.879 0 0 0 8-11c3.725-3.321 8.058-5.821 13-7.5 4.975-10.908 6.141-22.242 3.5-34-2.5-1.167-4.333-3-5.5-5.5-8.4-3.2-16.734-3.2-25 0-1.361 1.584-2.028 3.418-2 5.5-1.225.652-1.892 1.819-2 3.5.014 1.385.348 2.551 1 3.5.904.709 1.237 1.709 1 3 4.998-2.901 10.331-3.568 16-2a25.936 25.936 0 0 0 4 4.5c-3.836 4.961-9.002 7.461-15.5 7.5a166.337 166.337 0 0 1-13.5-2.5c-2.824-2.613-6.158-4.279-10-5a329.475 329.475 0 0 0-6-5c-1.167-2.5-3-4.333-5.5-5.5a37.914 37.914 0 0 1-2.5-8 75.105 75.105 0 0 0 15.5-1c7.298-2.333 14.132-5.499 20.5-9.5a5242.244 5242.244 0 0 0 15.5-14.5c3.577-14.679-1.257-25.179-14.5-31.5-4.072-.956-7.905-.456-11.5 1.5-2.426 4.153-1.26 6.819 3.5 8a42.769 42.769 0 0 0 9 1.5c1.288 2.466 1.288 4.966 0 7.5a13.271 13.271 0 0 0-5 5.5c-11.68 1.976-23.347 1.809-35-.5a65.128 65.128 0 0 0-8-8.5c-6.951-2.384-13.117-5.884-18.5-10.5-1.393-3.702-.226-5.702 3.5-6a198.454 198.454 0 0 1 13 5 114.251 114.251 0 0 1 10 7.5c1.537 1.11 2.203 2.61 2 4.5a9.86 9.86 0 0 0 6-1 46.02 46.02 0 0 1 11.5-8c.667-7.667.667-15.333 0-23a6.978 6.978 0 0 0-2.5-3.5 22.725 22.725 0 0 1-10-4.5 378.79 378.79 0 0 1 6.5-18c1.388-1.054 2.888-1.22 4.5-.5 1.899 3.275 4.565 5.775 8 7.5l7.5 1a82.84 82.84 0 0 0 18.5-5 339.286 339.286 0 0 1 5-13.5c2.15-8.259.483-15.593-5-22-3.034-1.386-5.7-3.219-8-5.5-6.325-3.573-12.991-5.906-20-7a144.255 144.255 0 0 0-7.5-2 40.914 40.914 0 0 1-.5-9 547.49 547.49 0 0 0 2.5-9c1.171-1.393 2.671-2.227 4.5-2.5a4.933 4.933 0 0 0 1-2.5c.003-8.012.003-16.012 0-24a4.934 4.934 0 0 1-3-.5c-1.675-2.819-4.009-4.652-7-5.5-3.345-1.717-7.011-2.384-11-2-2.787-.977-5.787-1.31-9-1a67.898 67.898 0 0 0-7 2 40.392 40.392 0 0 0-7.5 4 18.621 18.621 0 0 0-8.5-3c-1.014-1.265-2.514-1.931-4.5-2-1.986.069-3.486.735-4.5 2-4.109 2.83-3.609 4.83 1.5 6 2.788 4.17 3.121 8.503 1 13-5.988.783-11.488-.717-16.5-4.5l2-4c1.74-1.694 3.74-2.861 6-3.5.471-7.557 2.638-14.557 6.5-21a664.489 664.489 0 0 0 2-17c7.372-11.326 4.872-13.826-7.5-7.5a398.381 398.381 0 0 1-17.5 27.5c-2.439 2.659-5.272 3.659-8.5 3a172.4 172.4 0 0 0 22-34.5 119.264 119.264 0 0 1 18-8.5c3.514.324 5.181 2.324 5 6a53.805 53.805 0 0 1 1 14c-1.839 1.008-3.172 2.508-4 4.5-5.732 1.642-8.065 5.476-7 11.5 1.464.66 3.131.993 5 1 2.705.184 5.038-.483 7-2 1.591-.719 3.091-1.719 4.5-3a140.089 140.089 0 0 0 7.5-12c3.407-1.788 4.74-4.622 4-8.5a45.11 45.11 0 0 0-1-7.5c-2.579-3.567-4.079-7.567-4.5-12a21.72 21.72 0 0 1-7.5-5.5 12.93 12.93 0 0 0-5-.5c-1.897-1.305-4.231-1.971-7-2-2.769.029-5.103.695-7 2a52.417 52.417 0 0 0-8.5 2 56.686 56.686 0 0 0-12.5 10c-1.499-6.639-2.999-13.305-4.5-20a82.194 82.194 0 0 0-9.5-11.5c-2.547-.552-4.547-1.886-6-4-4.61-2.134-9.11-1.967-13.5.5a70.352 70.352 0 0 0-11.5 8.5c-2.651 3.115-4.317 6.782-5 11 .177 3.807 1.844 6.64 5 8.5 2.341-4.094 5.508-7.427 9.5-10 2.651-1.664 5.484-2.164 8.5-1.5a21.83 21.83 0 0 0 6 5 4.457 4.457 0 0 1-2 1.5c-.581 2.875-1.581 5.542-3 8-9.733 6.435-20.4 10.435-32 12l-5-1c1.268-3.737 3.101-7.07 5.5-10 1.878-.553 3.378-1.553 4.5-3 1.318-2.758 1.985-5.924 2-9.5-.015-3.576-.682-6.742-2-9.5a20.093 20.093 0 0 0-1.5-6c-2.386-1.263-4.219-3.097-5.5-5.5a157.182 157.182 0 0 0-11.5-3.5 69.832 69.832 0 0 0-10.5 3.5c-.833 2.167-2.333 3.667-4.5 4.5a17.758 17.758 0 0 0-1.5 7h-3c-3.377-4.766-5.711-10.099-7-16l-10 5a140.725 140.725 0 0 1-21 5c-5.969.448-10.969 2.948-15 7.5-3.238 1.368-6.572 1.701-10 1-7.494-5.251-10.494-12.417-9-21.5a12.93 12.93 0 0 1 5 .5 49.698 49.698 0 0 0 6 10c2.957.653 5.457-.181 7.5-2.5 2.316-7.873 1.816-15.54-1.5-23-3.63-1.543-7.463-2.209-11.5-2-3.531.08-7.031.413-10.5 1-10.274 4.443-16.774 12.11-19.5 23a114.67 114.67 0 0 1-1.5 15c-2.708 1.936-5.708 2.436-9 1.5-9.863-2.032-15.863-7.865-18-17.5l1.5-6c2.966-2.765 5.633-2.432 8 1a38.274 38.274 0 0 1 5.5 8.5c1 .667 2 .667 3 0 2.958-2.444 5.291-5.278 7-8.5a464.476 464.476 0 0 0-4.5-13 82.577 82.577 0 0 1-6.5-5.5c-14.684-5.535-26.184-1.702-34.5 11.5a64.218 64.218 0 0 0 0 16 84.32 84.32 0 0 1 4.5 15l-1 1c-.961-2.795-2.794-4.795-5.5-6a15.39 15.39 0 0 0-3-6L495.5 126a73.928 73.928 0 0 0-11-4.5c-10.912 1.006-18.579 6.506-23 16.5-2.353 13.807 3.313 21.973 17 24.5l4-.5c.823-2.925.323-5.758-1.5-8.5-.82-2.228-.487-4.228 1-6a99.747 99.747 0 0 0 6.5 3.5 128.436 128.436 0 0 1 5 9.5c.59 7.06 1.257 14.06 2 21a51.569 51.569 0 0 1-7 1c-.281-2.463-1.281-4.63-3-6.5a86.356 86.356 0 0 1-13-8.5c-1.634-.661-3.467-.994-5.5-1-2.295.047-4.129.713-5.5 2-4.425.921-7.925 3.254-10.5 7a20.093 20.093 0 0 0-1.5 6c-1.312 2.243-1.978 4.91-2 8 .003 2.855.336 5.522 1 8 1.121 2.454 1.954 5.121 2.5 8 2.218 1.424 3.718 3.424 4.5 6 2.979 3.474 6.646 5.974 11 7.5a298.593 298.593 0 0 1-37.5 23.5c-.748 4.009-2.248 7.676-4.5 11a166.019 166.019 0 0 0-3 18 442.183 442.183 0 0 1-18.5 23 344.92 344.92 0 0 0-18 17c-3.323 9.975-8.323 18.975-15 27a49.852 49.852 0 0 0-2.5 13 4.934 4.934 0 0 0-3 .5c-4.074 5.089-6.574 10.923-7.5 17.5a80.623 80.623 0 0 1-8 9l-1 3a64.102 64.102 0 0 1-8 7 5258.111 5258.111 0 0 0-11 15 12.93 12.93 0 0 0-.5 5h4c-1.968 3.386-3.468 7.052-4.5 11a63.7 63.7 0 0 0-8 10 801.604 801.604 0 0 0-4.5 17 801.604 801.604 0 0 0 4.5 17 181.417 181.417 0 0 0 15.5 16.5 62.438 62.438 0 0 1 10 3.5c3.83 1.124 7.496 1.124 11 0 3.542.12 7.042-.214 10.5-1 1.376-.184 2.209-.851 2.5-2 5.37-2.342 10.704-4.675 16-7a9.108 9.108 0 0 0 5-1 57.15 57.15 0 0 1 1 15c-.878 2.928-2.211 5.762-4 8.5-10.607.061-17.274 5.061-20 15a96.903 96.903 0 0 0 14 8 37.613 37.613 0 0 0 13 1 137.896 137.896 0 0 0 13-9 9728.628 9728.628 0 0 1 16.5-7.5 342.756 342.756 0 0 1 23.5-14c8.091-5.755 14.758-12.755 20-21 1.193-.47 1.86-1.47 2-3a41.535 41.535 0 0 0 1-9 175.076 175.076 0 0 0 4-15.5c6.556-.234 12.889-1.067 19-2.5a35.98 35.98 0 0 0 9.5-1c1.376-.184 2.209-.851 2.5-2a133.071 133.071 0 0 0 21-6.5 341.539 341.539 0 0 0 27-13 23.91 23.91 0 0 1 9-2.5 52.56 52.56 0 0 1-1.5 7 67.46 67.46 0 0 0-7 11 97.872 97.872 0 0 0-11.5 12 58.083 58.083 0 0 0-8.5 19c-10.492 6.148-20.159 13.481-29 22a592.579 592.579 0 0 1-36 44l-1 3c-14.014 13.67-23.181 30.337-27.5 50-1.508 1.681-2.508 3.681-3 6-8.441-.415-16.107 1.752-23 6.5a71.083 71.083 0 0 0-9.5 10.5c-2.208 5.733-4.375 11.4-6.5 17-1.149.291-1.816 1.124-2 2.5a40.927 40.927 0 0 0-1 10.5c-1.131 7.809-1.798 15.809-2 24a2612.202 2612.202 0 0 0 2 35h-285c-.696-206.666-1.03-413.333-1-620h957v620c-80.334.167-160.667 0-241-.5 2.466-3.32 4.799-6.82 7-10.5 12.246-3.107 18.246-11.107 18-24-5.485-.638-9.818 1.195-13 5.5a18.991 18.991 0 0 1-8 1.5c-.298 2.765-1.298 5.265-3 7.5a49.187 49.187 0 0 1-18 2.5z"/><path style="opacity:1" fill="#6c6565" d="M778.5 425.5c.72 4.23 1.387 8.563 2 13-1.93-3.873-2.597-8.206-2-13z"/><path style="opacity:1" fill="#9c7526" d="M804.5 420.5c1.122 1.788 1.289 3.788.5 6-2.209-.489-4.042-1.489-5.5-3a20.69 20.69 0 0 0 5 1v-4z"/><path style="opacity:1" fill="#ecebeb" d="M733.5 413.5c2.673.286 5.007.62 7 1-1.8 2.813-4.133 4.813-7 6 .927 3.945-.406 6.612-4 8-2.138 6.279-5.304 11.946-9.5 17L709.5 456c-5.14 1.14-8.307 4.306-9.5 9.5L689.5 476a336.164 336.164 0 0 0-14 9.5 18.353 18.353 0 0 1-9 2c-.117-1.984.55-3.65 2-5a31.412 31.412 0 0 1 7-3.5c17.958-14.455 33.625-30.955 47-49.5 2.341-6.309 6.008-11.643 11-16z"/><path style="opacity:1" fill="#aca6a6" d="M571.5 395.5v8h5a608.17 608.17 0 0 1-2 21 98.26 98.26 0 0 1 1-19.5 8.43 8.43 0 0 0-4-.5c.219 1.175-.114 2.175-1 3l-1-1c.604-3.803 1.27-7.469 2-11z"/><path style="opacity:1" fill="#f1b812" d="M804.5 420.5v4a20.69 20.69 0 0 1-5-1 29.01 29.01 0 0 0-4.5-3 207.982 207.982 0 0 0-10.5-16l5-4c.78 2.568 2.28 4.568 4.5 6a31.625 31.625 0 0 1 7.5-2c.333 3-1 4.333-4 4a12.93 12.93 0 0 0 .5 5 25.407 25.407 0 0 1 6.5 7z"/><path style="opacity:1" fill="#f8f7f7" d="M510.5 403.5c2.923.313 3.923 1.646 3 4-12.166 14.802-27.833 20.969-47 18.5l7-5.5a2416.92 2416.92 0 0 1 30.5-12 25.718 25.718 0 0 1 6.5-5z"/><path style="opacity:1" fill="#faf9f9" d="M402.5 402.5c1.995 2.94 3.995 5.94 6 9a167.16 167.16 0 0 1-10.5 6 23.788 23.788 0 0 0 .5 10l12 1.5c.928.388 1.595 1.055 2 2-6.643 11.459-16.31 14.959-29 10.5-4.216-1.961-6.549-5.295-7-10 1.94-9.366 5.607-17.866 11-25.5a33.052 33.052 0 0 0 6-2.5c2.891-.903 5.891-1.236 9-1z"/><path style="opacity:1" fill="#696262" d="M402.5 402.5c-3.109-.236-6.109.097-9 1 1.014-1.265 2.514-1.931 4.5-2 1.707.008 3.207.342 4.5 1z"/><path style="opacity:1" fill="#f9f8f8" d="M599.5 429.5c-1.869 2.135-2.536 4.802-2 8-2.968-.126-4.968-1.626-6-4.5a4.934 4.934 0 0 0-3-.5 118.6 118.6 0 0 1 2-28c.991-6.823 4.824-10.823 11.5-12 .414.457.914.791 1.5 1l1 7a368.096 368.096 0 0 0-5 29z"/><path style="opacity:1" fill="#eeedec" d="M728.5 390.5h4c.832 3.997-.668 6.664-4.5 8a54.628 54.628 0 0 0-2 7l-9 8a428.56 428.56 0 0 0-21 28 13.271 13.271 0 0 0-5.5 5c-4.211 2.024-8.544 2.357-13 1l1-2a77.849 77.849 0 0 1 10-5.5l10.5-10.5a4326.56 4326.56 0 0 0 12-18 55.987 55.987 0 0 1 7.5-5 56.64 56.64 0 0 1 2.5-7 37.967 37.967 0 0 0 7.5-9z"/><path style="opacity:1" fill="#8d8786" d="M542.5 390.5c-.418.722-1.084 1.222-2 1.5a32.462 32.462 0 0 1-8 .5c3.156-.934 6.489-1.601 10-2z"/><path style="opacity:1" fill="#f4f4f3" d="M613.5 384.5h3a54.75 54.75 0 0 0 3.5 9c.95 7.129.45 14.129-1.5 21a19.745 19.745 0 0 0-5.5-5c-3.815-7.366-4.815-15.033-3-23a19.602 19.602 0 0 0 3.5-2z"/><path style="opacity:1" fill="#878180" d="M626.5 369.5c-1.333 2.333-1.333 4.667 0 7-2.667-2.333-2.667-4.667 0-7z"/><path style="opacity:1" fill="#f7f6f6" d="M626.5 376.5c-1.333-2.333-1.333-4.667 0-7 1.986-1.261 3.819-.928 5.5 1 3.804 5.971 4.804 12.305 3 19a3.647 3.647 0 0 1-1.5 1c-3.224-4.258-5.557-8.925-7-14z"/><path style="opacity:1" fill="#f3f2f1" d="M636.5 353.5c1.322-.17 2.489.163 3.5 1 1.837 5.005 3.67 10.005 5.5 15-1.168 1.897-2.835 2.064-5 .5a104.03 104.03 0 0 1-8-13c.847-1.771 2.18-2.937 4-3.5z"/><path style="opacity:1" fill="#f5bb0f" d="M811.5 349.5h3a100.38 100.38 0 0 1 5 10.5c.219 1.971-.615 3.138-2.5 3.5l-10.5-2.5a48.34 48.34 0 0 0-7-6c3.738-2.613 7.738-4.447 12-5.5z"/><path style="opacity:1" fill="#f0eeee" d="M478.5 349.5c1.442 2.317 1.108 4.484-1 6.5a76.719 76.719 0 0 0-11 7L456 373.5c-2.167 4.167-5.333 7.333-9.5 9.5-4.082 6.746-9.915 11.246-17.5 13.5.647-4.073 1.98-8.073 4-12 12.173-12.024 25.006-23.024 38.5-33 2.529-.429 4.862-1.096 7-2z"/><path style="opacity:1" fill="#f5f4f4" d="M723.5 345.5h3a24.935 24.935 0 0 1-.5 7 52.157 52.157 0 0 0-3.5 9h-4c.593 3.096-.407 5.429-3 7a7.248 7.248 0 0 0 2 2.5c-4.459 1.076-6.959 3.909-7.5 8.5l-4 2a134.761 134.761 0 0 0-10 14 71.083 71.083 0 0 1-10.5 9.5c-2.865.837-5.698 1.67-8.5 2.5-.667-1.333-.667-2.667 0-4a89.729 89.729 0 0 0 11.5-10l3-8c2.928-1.046 5.428-2.712 7.5-5a48.338 48.338 0 0 1 2.5-11 66.784 66.784 0 0 1 7.5-6c-.269-4.656 1.398-8.323 5-11l1-3c3.229-.903 6.062-2.237 8.5-4z"/><path style="opacity:1" fill="#f3f2f2" d="M709.5 329.5c1.312 2.243 1.978 4.91 2 8l-.5 8c-2.333 2.93-5 5.596-8 8l-3 6-14.5 16.5c-2.353 1.666-4.686 2.999-7 4-1.035-1.507-.868-3.007.5-4.5l13.5-13.5a126.29 126.29 0 0 1 9-17.5 165.513 165.513 0 0 0 3-11c2.326-.645 3.993-1.978 5-4z"/><path style="opacity:1" fill="#f5f5f5" d="M532.5 392.5a32.462 32.462 0 0 0 8-.5c.916-.278 1.582-.778 2-1.5 11.618-6.768 22.285-14.934 32-24.5a11.333 11.333 0 0 0 3.5-1.5 85.32 85.32 0 0 0 8.5-12.5 337.119 337.119 0 0 1 13.5-31.5 32.367 32.367 0 0 0 4.5-3c1.157 3.284 1.324 6.618.5 10a103.116 103.116 0 0 0-4 13 339.939 339.939 0 0 1-19 30 46.685 46.685 0 0 1-14.5 9c-3.902 4.738-8.236 8.905-13 12.5a238.65 238.65 0 0 1-16 9 25.238 25.238 0 0 1-10 0c-3.539-1.697-3.873-3.863-1-6.5 1.836-.528 3.503-1.194 5-2z"/><path style="opacity:1" fill="#6d6766" d="M688.5 315.5a67.898 67.898 0 0 1-2 7c-.51-2.888.156-5.221 2-7z"/><path style="opacity:1" fill="#f8bd0d" d="M846.5 307.5a11.988 11.988 0 0 1 6 1c3.055 8.939.055 13.939-9 15-.569-5.729.431-11.063 3-16z"/><path style="opacity:1" fill="#e5ae19" d="M756.5 308.5h4v6a9.108 9.108 0 0 0-5 1c-1.333-2.638-1-4.971 1-7z"/><path style="opacity:1" fill="#f1f0f0" d="M686.5 322.5a67.898 67.898 0 0 0 2-7 14.828 14.828 0 0 1 2-6.5c1.992-.574 3.492-1.741 4.5-3.5.71 1.473 1.876 2.14 3.5 2a220.352 220.352 0 0 0-1.5 12c-1.337 1.504-3.004 2.504-5 3-3.262 7.834-7.262 15.167-12 22-2.066 2.632-4.566 3.299-7.5 2a462.755 462.755 0 0 1 10-13c.599-4.089 1.933-7.756 4-11z"/><path style="opacity:1" fill="#696262" d="M662.5 305.5c-1.333 4.333-1.333 8.667 0 13-1.3-1.723-1.967-3.89-2-6.5.033-2.61.7-4.777 2-6.5z"/><path style="opacity:1" fill="#a27a26" d="M758.5 302.5c2.196.09 4.363.423 6.5 1 1.376.184 2.209.851 2.5 2-3.202-.631-6.202-1.631-9-3z"/><path style="opacity:1" fill="#494444" d="M626.5 293.5c.768 6.506.768 12.839 0 19-.768-6.506-.768-12.839 0-19z"/><path style="opacity:1" fill="#f6bc0e" d="M811.5 281.5c1.478-.262 2.811.071 4 1-.672 2.03-1.338 4.03-2 6a24.257 24.257 0 0 1-3 5.5c-12.686 9.493-27.02 13.326-43 11.5-.291-1.149-1.124-1.816-2.5-2a29.495 29.495 0 0 0-6.5-1c-3.252-2.025-3.252-4.525 0-7.5l4-.5c7.81 2.96 15.81 3.626 24 2a584.074 584.074 0 0 0 25-15z"/><path style="opacity:1" fill="#f8f7f7" d="M574.5 424.5a608.17 608.17 0 0 0 2-21h-5v-8a4355.981 4355.981 0 0 1 30-32 5397.19 5397.19 0 0 1 15-20c.983-4.132 2.816-7.798 5.5-11a369.528 369.528 0 0 0 4.5-20c.768-6.161.768-12.494 0-19a29.01 29.01 0 0 0 3-4.5c1.759-.798 3.426-.631 5 .5 3.898 13.793 3.898 27.626 0 41.5a116.742 116.742 0 0 1-10 20.5c-2.244 3.751-5.077 7.084-8.5 10a22.343 22.343 0 0 0 .5 7.5c-.634 7.283-1.967 7.783-4 1.5l-1 .5a386.702 386.702 0 0 0-10.5 14.5 376.797 376.797 0 0 1-21 17c.542 2.895 1.875 5.562 4 8 .827 4.041.66 8.041-.5 12a205.49 205.49 0 0 1-14 29c-4.342 1.19-6.675-.643-7-5.5a162.154 162.154 0 0 1 2.5-8.5 174.323 174.323 0 0 0 9.5-13z"/><path style="opacity:1" fill="#f7f6f6" d="M662.5 318.5c-1.333-4.333-1.333-8.667 0-13 1.395-8.409 5.895-14.409 13.5-18 2.281.312 3.448 1.645 3.5 4a464.476 464.476 0 0 1-4.5 13 90.748 90.748 0 0 0-11.5 16c-.798-.457-1.131-1.124-1-2z"/><path style="opacity:1" fill="#ba8c26" d="M832.5 273.5a40.914 40.914 0 0 0 .5 9c2.607.623 5.107 1.29 7.5 2-2.948.277-5.781-.056-8.5-1-.808-3.527-.641-6.86.5-10z"/><path style="opacity:1" fill="#8f6c25" d="M811.5 281.5c1.419-.951 3.085-1.284 5-1 .193 3.311-.807 5.978-3 8 .662-1.97 1.328-3.97 2-6-1.189-.929-2.522-1.262-4-1z"/><path style="opacity:1" fill="#f8f7f7" d="M506.5 279.5a73.813 73.813 0 0 1 26 4.5c1.949 2.267 4.282 3.934 7 5a128.382 128.382 0 0 1 11 16c-2.455 1.54-5.121 1.874-8 1a70.573 70.573 0 0 0-10-4.5c.108 2.283.941 4.283 2.5 6a79.685 79.685 0 0 1 9.5 8c-3.963 9.116-9.296 17.283-16 24.5-6.826 2.696-13.826 4.363-21 5a281.778 281.778 0 0 1-11-11.5 19.372 19.372 0 0 0-8-1 591.124 591.124 0 0 0 9.5-23 171.057 171.057 0 0 1 6.5-10.5c2.874-1.899 6.041-2.733 9.5-2.5 4.242.27 8.409.937 12.5 2-1.364-2.88-3.364-5.38-6-7.5-5.391-2.512-11.058-3.678-17-3.5a521.218 521.218 0 0 1-14.5 28c-2.903 3.038-6.403 4.205-10.5 3.5a197.389 197.389 0 0 1 10.5-20.5 94.102 94.102 0 0 0 10-13c3.209-1.179 5.709-3.179 7.5-6z"/><path style="opacity:1" fill="#211e21" d="M512.5 309.5h6c-2.192 6.757-.525 12.257 5 16.5a11.456 11.456 0 0 1-1 2.5c-7.261 1.107-13.261-1.226-18-7a62.96 62.96 0 0 0 4-10c1.88.271 3.213-.396 4-2z"/><path style="opacity:1" fill="#f1b811" d="M718.5 266.5a40.914 40.914 0 0 0 9-.5c.556-.383.889-.883 1-1.5 2.622-2.282 5.288-4.615 8-7 1.083.865 1.249 1.865.5 3a28.57 28.57 0 0 1-7.5 8c3.829 1.525 6.162.192 7-4 1.223-1.114 2.556-1.281 4-.5a51.24 51.24 0 0 1-8.5 8.5 8.43 8.43 0 0 0-.5 4c6.025.478 11.359-1.189 16-5 .596 3.412-1.071 5.079-5 5v3a18.453 18.453 0 0 0 6-.5 35.44 35.44 0 0 1 8.5-5.5l1.5.5c-1.976 4.306-4.976 7.64-9 10a455.292 455.292 0 0 1-14.5 3.5 16.597 16.597 0 0 1 .5-7 29.769 29.769 0 0 0-10 4 16.873 16.873 0 0 1-1-8c-4.53-.426-8.697.574-12.5 3a3.943 3.943 0 0 1-2-1c-1.971-7.516.862-11.516 8.5-12z"/><path style="opacity:1" fill="#755824" d="M728.5 264.5c-.111.617-.444 1.117-1 1.5a40.914 40.914 0 0 1-9 .5 94.873 94.873 0 0 1 10-2z"/><path style="opacity:1" fill="#756e6e" d="M587.5 257.5c1.44 1.92 1.107 3.587-1 5l-1-1.5c.929-1.077 1.596-2.244 2-3.5z"/><path style="opacity:1" fill="#faf9f9" d="M481.5 252.5c1.89-.203 3.39.463 4.5 2 .83 2.328 1.663 4.662 2.5 7-1.228 6.288-3.895 11.788-8 16.5a416.921 416.921 0 0 0-1.5 25.5c-2.228 1.392-3.394 3.392-3.5 6-1.478.262-2.811-.071-4-1l-6-5c-2-1.333-4-1.333-6 0-7.711 4.187-15.377 8.353-23 12.5l-11 11.5a85.767 85.767 0 0 1-7.5 15c-8.35-4.062-9.85-10.062-4.5-18 5.019-8.42 11.186-15.753 18.5-22l1-3c7.017-6.68 12.017-14.68 15-24 6.484-4.152 11.984-9.318 16.5-15.5 5.242-3.625 10.909-6.125 17-7.5z"/><path style="opacity:1" fill="#987225" d="M707.5 248.5c-2.097 1.982-4.764 2.982-8 3 2.402-1.493 5.069-2.493 8-3z"/><path style="opacity:1" fill="#ccc9c8" d="M622.5 244.5a4.934 4.934 0 0 1 3 .5l-7.5 7.5c-.315-1.408.018-2.741 1-4a19.552 19.552 0 0 0 3.5-4z"/><path style="opacity:1" fill="#f3b911" d="M699.5 251.5c3.236-.018 5.903-1.018 8-3 6.577.001 12.577-1.832 18-5.5.837-1.011 1.17-2.178 1-3.5h4a9.86 9.86 0 0 1-1 6 32.324 32.324 0 0 0-8 8.5c2.053.325 4.053-.009 6-1 8.03-7.84 9.197-7.34 3.5 1.5-4.695 4.852-10.361 8.186-17 10-6.956-1.025-7.789-3.525-2.5-7.5a4.934 4.934 0 0 1 3-.5v-4c-4.651 1.664-9.318 3.331-14 5l-1-6z"/><path style="opacity:1" fill="#f5ba0f" d="M803.5 246.5a61.26 61.26 0 0 1 13 1 72.367 72.367 0 0 1-.5 12c-2.653 2.441-5.82 3.441-9.5 3-6.947-.484-13.281-2.65-19-6.5 4.485-4.663 9.818-7.829 16-9.5z"/><path style="opacity:1" fill="#847d7d" d="M532.5 235.5a65.816 65.816 0 0 1-10 1c.462-1.38 1.462-2.047 3-2a21.336 21.336 0 0 0 7 1z"/><path style="opacity:1" fill="#cc9923" d="M765.5 232.5c.876-.131 1.543.202 2 1-2.308 1.373-2.975 1.04-2-1z"/><path style="opacity:1" fill="#746f6e" d="M622.5 231.5c3.307.551 6.64.884 10 1v-9c.311-.978.978-1.645 2-2 4.757 1.909 5.09 4.242 1 7a28.718 28.718 0 0 1-1-5 25.879 25.879 0 0 0-1 10c-3.989.384-7.655-.283-11-2z"/><path style="opacity:1" fill="#a17926" d="M819.5 227.5c3.989-.384 7.655.283 11 2-3.86-.308-7.526-.975-11-2z"/><path style="opacity:1" fill="#6b5123" d="M810.5 226.5c-1.779 1.844-4.112 2.51-7 2a67.898 67.898 0 0 1 7-2z"/><path style="opacity:1" fill="#715524" d="M787.5 229.5c-3-1.333-6-1.333-9 0 1.014-1.265 2.514-1.931 4.5-2 1.986.069 3.486.735 4.5 2z"/><path style="opacity:1" fill="#635c5c" d="M561.5 222.5c1.53 3.195 2.196 6.695 2 10.5-.003 2.69-.336 5.19-1 7.5.14-6.036-.193-12.036-1-18z"/><path style="opacity:1" fill="#696262" d="M546.5 221.5c1.719.522 3.052 1.522 4 3a31.894 31.894 0 0 0-6-1.5c.544-.717 1.211-1.217 2-1.5z"/><path style="opacity:1" fill="#f9f8f8" d="M561.5 222.5a114.269 114.269 0 0 1 1 18 728.324 728.324 0 0 1-3.5 9 660.832 660.832 0 0 1-5 3c-3.416-1.417-6.249-3.584-8.5-6.5a58.029 58.029 0 0 0-13.5 1.5 38.174 38.174 0 0 1-9.5-2.5c-2.615-2.907-2.615-5.74 0-8.5a65.816 65.816 0 0 0 10-1c2.644-2.327 5.644-2.994 9-2-1.398 2.398-3.398 4.065-6 5 .462 1.791 1.629 2.791 3.5 3a127.977 127.977 0 0 1 9.5-5 13.116 13.116 0 0 1 1 7h3a61.09 61.09 0 0 0 .5-17c-.708-.881-1.542-1.547-2.5-2-.948-1.478-2.281-2.478-4-3 3.335-5.201 7.669-6.201 13-3 .494 1.526 1.161 2.859 2 4z"/><path style="opacity:1" fill="#795b24" d="M794.5 213.5c-1.962 1.517-4.295 2.184-7 2-1.869-.007-3.536-.34-5-1a54.968 54.968 0 0 0 12-1z"/><path style="opacity:1" fill="#e3ad21" d="M738.5 201.5c1.725.343 2.225 1.343 1.5 3-3.895 3.427-6.895 7.427-9 12a66.678 66.678 0 0 1-5.5 2l-1-1c2.28-7.602 6.947-12.936 14-16z"/><path style="opacity:1" fill="#f8f8f8" d="M500.5 200.5c.996-.086 1.829.248 2.5 1-.064 4.117 1.103 7.783 3.5 11-1.394 3.881-.06 6.547 4 8 8.38 1.19 16.38-.143 24-4 3.498 1.991 4.998 4.991 4.5 9-6.254 4.861-13.421 7.194-21.5 7a112.78 112.78 0 0 1-18-3.5c-.833-1.5-2-2.667-3.5-3.5a633.673 633.673 0 0 0-3.5-10 20.702 20.702 0 0 1 1.5-7 58.112 58.112 0 0 0 6.5-8z"/><path style="opacity:1" fill="#684f23" d="M792.5 184.5c1.305 1.897 1.971 4.231 2 7-.003 2.525-.337 4.859-1 7a53.805 53.805 0 0 0-1-14z"/><path style="opacity:1" fill="#44403f" d="M661.5 189.5c1.155 6.821 1.321 13.821.5 21 .094 4.133-.74 7.799-2.5 11a183.846 183.846 0 0 0 2-32z"/><path style="opacity:1" fill="#e9e7e7" d="M470.5 185.5c3.183.852 5.85 2.518 8 5-4.888 1.889-7.555.222-8-5z"/><path style="opacity:1" fill="#f7f6f5" d="M495.5 181.5c-.15 2.959.85 5.459 3 7.5a46.94 46.94 0 0 1-11 1.5c-.306-2.885.027-5.552 1-8a51.569 51.569 0 0 0 7-1z"/><path style="opacity:1" fill="#be8e26" d="M449.5 181.5a69.302 69.302 0 0 0-1 16c-.664-2.478-.997-5.145-1-8 .022-3.09.688-5.757 2-8z"/><path style="opacity:1" fill="#f9f8f8" d="M632.5 223.5v9a76.926 76.926 0 0 1-10-1l-5-2 1-6h-3v6c-.202 7.671-2.202 14.838-6 21.5a18.33 18.33 0 0 0-6 4 42.479 42.479 0 0 1-13 0 23.256 23.256 0 0 1-1-6.5 200.44 200.44 0 0 0 4.5-23 114.648 114.648 0 0 0 21-31 85.933 85.933 0 0 1 10.5-11.5c3.003-1.339 6.003-2.673 9-4 2.402-.814 4.735-.647 7 .5-1.859 3.09-2.192 6.256-1 9.5-2.931 1.526-4.931 3.859-6 7a1134.17 1134.17 0 0 0 7 12c-3.317.498-6.65.665-10 .5-.137 3.312.863 6.146 3 8.5a51.098 51.098 0 0 1-13 3.5c3 1 5 3 6 6 1.44-1.452 3.106-2.452 5-3z"/><path style="opacity:1" fill="#4e4c4f" d="M617.5 229.5h-2v-6h3l-1 6z"/><path style="opacity:1" fill="#6d6666" d="M659.5 171.5c1.953 5.574 2.62 11.574 2 18a1106.156 1106.156 0 0 1-2-18z"/><path style="opacity:1" fill="#6d5323" d="M472.5 167.5c-3.769-.256-7.436.077-11 1 1.371-1.287 3.205-1.953 5.5-2 2.033.006 3.866.339 5.5 1z"/><path style="opacity:1" fill="#b88a26" d="M792.5 164.5c-4.667-1.333-9.333-1.333-14 0 1.897-1.305 4.231-1.971 7-2 2.769.029 5.103.695 7 2z"/><path style="opacity:1" fill="#bb8c26" d="M704.5 151.5c1.318 2.758 1.985 5.924 2 9.5-.015 3.576-.682 6.742-2 9.5a45.636 45.636 0 0 0 0-19z"/><path style="opacity:1" fill="#fafafa" d="M666.5 151.5h3a19.372 19.372 0 0 0 1 8l2 1c5.435-4.851 9.102-3.851 11 3-.751 4.88-2.918 8.88-6.5 12a53.613 53.613 0 0 0-3.5 8v38a186.467 186.467 0 0 0-3.5 13 182.161 182.161 0 0 0-8 13c-.667 1.333-.667 2.667 0 4 6.24 4.53 12.74 8.697 19.5 12.5a58.611 58.611 0 0 1 11 14 168.19 168.19 0 0 0 12 6 39.451 39.451 0 0 0 7 11.5 23.966 23.966 0 0 0 8 3.5c4.571 8.018 10.404 14.851 17.5 20.5a386.023 386.023 0 0 0 23.5 50.5 80.309 80.309 0 0 1 7 22.5 218.491 218.491 0 0 1 7 12.5 462.131 462.131 0 0 1 4 20.5c-.597 4.794.07 9.127 2 13a2205.982 2205.982 0 0 0 2.5 46 16.703 16.703 0 0 0 2.5 7.5c-.07.765-.403 1.265-1 1.5-.802 1.452-1.302 3.118-1.5 5-.5 18.33-.667 36.664-.5 55h-3v4h3c-.41 3.318-1.743 6.151-4 8.5a152.043 152.043 0 0 0-1.5 11.5l-1-1c-.17 6.028-.67 12.028-1.5 18-3.296 2.256-3.963 5.256-2 9a494.897 494.897 0 0 0-1.5 29 140.996 140.996 0 0 1-7.5 14 103.172 103.172 0 0 0-1.5 10 76.262 76.262 0 0 1-3.5 7c.02 1.226.353 2.226 1 3v25c-1.291-.237-2.291.096-3 1-2.787.977-5.787 1.31-9 1a65.064 65.064 0 0 1-2.5-8 635.34 635.34 0 0 0-1.5-19c3.968-12.987 5.968-26.32 6-40 1.624.14 2.79-.527 3.5-2a368.76 368.76 0 0 1 3.5-13c.705-5.899 1.372-11.899 2-18a61.054 61.054 0 0 1 5.5-18 302.42 302.42 0 0 0-.5-41 380.578 380.578 0 0 0 1.5-17 63.224 63.224 0 0 0 4.5-18l-.5-6c-.388-.928-1.055-1.595-2-2-2.552 1.389-5.052 2.556-7.5 3.5 5.015-5.975 7.681-12.975 8-21a21121.635 21121.635 0 0 0-6-68.5 1305.71 1305.71 0 0 0-14-38l-16.5-23-13-27a15.256 15.256 0 0 0-4.5-1.5c-.837-1.011-1.17-2.178-1-3.5-1.89.203-3.39-.463-4.5-2a79.319 79.319 0 0 0-10-14c-12.058-9.329-22.558-20.329-31.5-33-9.333-5.71-16.166-3.71-20.5 6a149.43 149.43 0 0 1-10.5 10c-3.535 3.348-7.702 5.681-12.5 7a144.38 144.38 0 0 0-9.5 7.5 28.043 28.043 0 0 0-5 1.5c-.723-3.394-.223-6.728 1.5-10 5.735-7.898 12.901-14.232 21.5-19 4.902-4.829 9.069-10.162 12.5-16a11.333 11.333 0 0 1 3.5-1.5c7.551-7.519 11.551-16.686 12-27.5 1.76-3.201 2.594-6.867 2.5-11 .821-7.179.655-14.179-.5-21 .62-6.426-.047-12.426-2-18-.725-6.451.441-12.451 3.5-18a19.602 19.602 0 0 0 3.5-2z"/><path style="opacity:1" fill="#f8f7f7" d="M649.5 140.5a3087.793 3087.793 0 0 1-22 17 215.809 215.809 0 0 0-7.5 16 344.92 344.92 0 0 0-18 17c-.167 2.833-1.667 4.333-4.5 4.5a101.193 101.193 0 0 1-15.5 15.5 136.26 136.26 0 0 1-3.5 11 362.008 362.008 0 0 0-1 38 29.198 29.198 0 0 1-10-3 17.376 17.376 0 0 1-1-5 3665.236 3665.236 0 0 1 5.5-49 193.265 193.265 0 0 0 33-33 179.472 179.472 0 0 1 23-22 2.428 2.428 0 0 0 .5-2 140.725 140.725 0 0 0 21-5z"/><path style="opacity:1" fill="#6f6969" d="M599.5 429.5a99.97 99.97 0 0 1-2 8c-.536-3.198.131-5.865 2-8z"/><path style="opacity:1" fill="#9a7426" d="M505.5 435.5c-.291 1.149-1.124 1.816-2.5 2a35.98 35.98 0 0 1-9.5 1c3.907-.992 7.907-1.992 12-3z"/><path style="opacity:1" fill="#6e5323" d="M851.5 434.5c-.869 2.217-1.202 4.55-1 7-.652-.949-.986-2.115-1-3.5.108-1.681.775-2.848 2-3.5z"/><path style="opacity:1" fill="#f2f1f1" d="M345.5 441.5c.996-.086 1.829.248 2.5 1 2.335 5.978.335 9.645-6 11-4.804-.133-6.471-2.467-5-7a171.065 171.065 0 0 1 8.5-5z"/><path style="opacity:1" fill="#efeded" d="M361.5 444.5c12.423.235 14.09 4.402 5 12.5-1.333.667-2.667.667-4 0-6.17-3.921-6.503-8.088-1-12.5z"/><path style="opacity:1" fill="#edecec" d="M739.5 444.5c.597.235.93.735 1 1.5a55.346 55.346 0 0 0-5.5 10.5c-7.779 8.45-15.613 16.95-23.5 25.5l-3 1a202.89 202.89 0 0 0-13 14l-3 1a107.16 107.16 0 0 0-6.5 8.5 85.933 85.933 0 0 1-11.5 10.5c-3.268 1.213-6.601 1.546-10 1 6.333-5 12-10.667 17-17a381.612 381.612 0 0 0 31-26.5 54.224 54.224 0 0 0 4-9c1.726-2.727 4.059-4.727 7-6a87.287 87.287 0 0 0 2.5-7c2.5-1.167 4.333-3 5.5-5.5a127.96 127.96 0 0 0 8-2.5z"/><path style="opacity:1" fill="#f5f5f4" d="M427.5 449.5a6.846 6.846 0 0 1 4 1c1.084 5.345.084 10.345-3 15a18.404 18.404 0 0 1-7 2c-2.805-7.846-.805-13.846 6-18z"/><path style="opacity:1" fill="#f3f2f2" d="M406.5 451.5c7.839 2.016 11.506 7.182 11 15.5-.126 9.121-4.126 15.621-12 19.5l-2-.5a384.037 384.037 0 0 0 6.5-7.5 35.063 35.063 0 0 0 1-15c-5.144-2.623-6.644-6.623-4.5-12z"/><path style="opacity:1" fill="#eae9e9" d="M354.5 454.5c1.129.97 2.129 2.136 3 3.5a40.311 40.311 0 0 1-5 7.5c-4.755 1.435-6.088-.232-4-5a12.403 12.403 0 0 0 2.5-4 19.602 19.602 0 0 0 3.5-2z"/><path style="opacity:1" fill="#a47b26" d="M470.5 456.5a41.535 41.535 0 0 1-1 9c-.14 1.53-.807 2.53-2 3a109.255 109.255 0 0 1 3-12z"/><path style="opacity:1" fill="#edecec" d="M750.5 468.5c1.149.291 1.816 1.124 2 2.5-1.068 2.641-2.735 4.808-5 6.5-.277 3.183-1.944 5.183-5 6-.952 1.545-1.285 3.212-1 5h-4a52.56 52.56 0 0 1-1.5 7 76.387 76.387 0 0 1-17.5 13.5 52.719 52.719 0 0 0-8.5 11.5 529.388 529.388 0 0 0-28.5 27.5 102.505 102.505 0 0 1-8 2.5c1.304 1.516.804 2.182-1.5 2-1.404-.009-2.57-.509-3.5-1.5.837-1.011 1.17-2.178 1-3.5 2.854-.424 5.521-1.424 8-3a213.415 213.415 0 0 0 11.5-10c3.223-6.223 8.057-10.723 14.5-13.5a2129.275 2129.275 0 0 1 22.5-31.5c7.204-8.39 15.371-15.39 24.5-21z"/><path style="opacity:1" fill="#b88a26" d="M391.5 487.5a57.15 57.15 0 0 0-1-15 9.108 9.108 0 0 1-5 1c2.015-1.424 4.348-2.09 7-2 .321 5.526-.012 10.86-1 16z"/><path style="opacity:1" fill="#a67c26" d="M799.5 475.5c2.193 2.022 3.193 4.689 3 8-1.295-2.479-2.295-5.146-3-8z"/><path style="opacity:1" fill="#997326" d="M369.5 480.5c-.291 1.149-1.124 1.816-2.5 2a40.927 40.927 0 0 1-10.5 1 377.84 377.84 0 0 0 13-3z"/><path style="opacity:1" fill="#f7bc0e" d="M840.5 498.5c-6 1.333-12 1.333-18 0-10.522-.222-17.189-5.222-20-15 .193-3.311-.807-5.978-3-8-1.311-3.42-1.144-6.753.5-10 1.832-1.358 3.665-1.692 5.5-1 .94 3.303 1.773 6.636 2.5 10a6.547 6.547 0 0 0 3 3c1.098 4.518 2.931 8.518 5.5 12a421.274 421.274 0 0 1 36 2.5c-2.975 3.989-6.975 6.155-12 6.5z"/><path style="opacity:1" fill="#373434" d="M784.5 493.5a7642.993 7642.993 0 0 1-2 60c-.167-18.336 0-36.67.5-55 .198-1.882.698-3.548 1.5-5z"/><path style="opacity:1" fill="#674e23" d="M822.5 498.5c6 1.333 12 1.333 18 0-2.587 1.316-5.587 1.983-9 2-3.413-.017-6.413-.684-9-2z"/><path style="opacity:1" fill="#bf8f26" d="M880.5 505.5c1.316 2.587 1.983 5.587 2 9-.017 3.413-.684 6.413-2 9 1.333-6 1.333-12 0-18z"/><path style="opacity:1" fill="#f5bb0f" d="M820.5 515.5a98.141 98.141 0 0 0 12 4c-3.485 2.102-7.318 3.102-11.5 3a50.69 50.69 0 0 1-15.5-3v-5c5.018.113 10.018.447 15 1z"/><path style="opacity:1" fill="#b68924" d="M820.5 515.5c5.07 1.139 10.07 1.639 15 1.5-1.191.698-2.191 1.531-3 2.5a98.141 98.141 0 0 1-12-4z"/><path style="opacity:1" fill="#f8f8f8" d="M745.5 520.5c3.35-.165 6.683.002 10 .5a513.145 513.145 0 0 1-6 18.5c4.249 4.103 3.582 7.27-2 9.5a615.51 615.51 0 0 1-23 24 111.401 111.401 0 0 0-14 11 236.57 236.57 0 0 1-16 9 20.093 20.093 0 0 1-6 1.5c.285 1.788-.048 3.455-1 5-9.854 3.8-19.854 7.3-30 10.5a6.547 6.547 0 0 1-3 3c-6.444.915-12.777.581-19-1 2.038-1.236 3.205-3.069 3.5-5.5a309.624 309.624 0 0 1 22-7 2055.79 2055.79 0 0 1 38.5-18.5 42.36 42.36 0 0 0 1.5-8.5 70.619 70.619 0 0 0 19-12 212.646 212.646 0 0 0 10-17 47.292 47.292 0 0 0 9-10c1.189-4.966 3.355-9.3 6.5-13z"/><path style="opacity:1" fill="#6e5323" d="M854.5 526.5a99.97 99.97 0 0 1 8 2c-3.198.536-5.865-.131-8-2z"/><path style="opacity:1" fill="#9f7726" d="M865.5 530.5c2.956 1.5 5.956 1.834 9 1-.462 1.38-1.462 2.047-3 2-2.626-.122-4.626-1.122-6-3z"/><path style="opacity:1" fill="#b08426" d="M812.5 571.5c-2.837 1.902-6.171 2.569-10 2 .237 1.291-.096 2.291-1 3 .904-.709 1.237-1.709 1-3 3.829.569 7.163-.098 10-2z"/><path style="opacity:1" fill="#f9f9f9" d="M445.5 593.5a99.97 99.97 0 0 0 2 8 181.849 181.849 0 0 1 3.5 13c2.615 2.606 4.115 5.772 4.5 9.5a7127.364 7127.364 0 0 1 9.5 15.5c3.177 3.707 6.343 7.374 9.5 11 5.333 1.333 10.667 1.333 16 0 9.721-11.238 20.721-20.738 33-28.5a124.355 124.355 0 0 1 18-7.5 98.432 98.432 0 0 0 14-.5c1.237-.232 2.237-.732 3-1.5.652-1.225 1.819-1.892 3.5-2 9.568-.053 10.734 2.78 3.5 8.5-5.46 2.938-11.127 5.105-17 6.5-2.888-.51-5.221.156-7 2a31.284 31.284 0 0 0-10 1.5 111.897 111.897 0 0 1-11 9c-7.181 1.408-12.848 5.075-17 11l-3 1a633.841 633.841 0 0 0-29.5 30.5 53.586 53.586 0 0 0-6.5 13 60.931 60.931 0 0 1-11-.5c2.385-2.793 4.219-5.959 5.5-9.5 5.934-5.612 10.768-12.112 14.5-19.5a87.076 87.076 0 0 0-15-6c-13.619-11.064-21.119-25.564-22.5-43.5a96.288 96.288 0 0 1 1.5-27c.492-2.319 1.492-4.319 3-6 .06.543.393.876 1 1 1.024-1.353 2.357-2.02 4-2v13z"/><path style="opacity:1" fill="#f5f5f5" d="M741.5 591.5c2.733-.304 4.399.863 5 3.5a59.176 59.176 0 0 0-1.5 7.5c-2.386 1.263-4.219 3.097-5.5 5.5-4.558.946-8.558 2.946-12 6l-8 9a41.853 41.853 0 0 0-9 5c-7.794 1.758-14.461 5.425-20 11-3.761.738-7.428.405-11-1 2.635-1.164 5.302-2.331 8-3.5-1.109-1.714-.442-2.381 2-2-.243-3.383.424-6.549 2-9.5 6.719-4.728 14.219-7.562 22.5-8.5a391.763 391.763 0 0 1 16.5-17.5c4.098-1.185 7.765-3.019 11-5.5z"/><path style="opacity:1" fill="#686262" d="M445.5 593.5c1.869 2.135 2.536 4.802 2 8a99.97 99.97 0 0 1-2-8z"/><path style="opacity:1" fill="#6a6463" d="M758.5 593.5a1106.156 1106.156 0 0 1-2 18c-.62-6.426.047-12.426 2-18z"/><path style="opacity:1" fill="#f5bb0f" d="M834.5 632.5c1.333 2 1.333 4 0 6a24.004 24.004 0 0 1-6 2.5c-2.067 3.367-5.067 5.2-9 5.5a27.274 27.274 0 0 1-9-2 6.846 6.846 0 0 1-1-4c7.141.1 13.141-2.567 18-8a133.593 133.593 0 0 0 4-15 111.953 111.953 0 0 0-12-21 73.772 73.772 0 0 0-12-7c-3.262-.869-6.428-1.203-9.5-1-.27-4.45.897-8.45 3.5-12 .904-.709 1.237-1.709 1-3 3.829.569 7.163-.098 10-2 .03-.997-.47-1.664-1.5-2a56.738 56.738 0 0 0-6.5-1.5c.967-4.401 1.3-8.901 1-13.5-1.175.219-2.175-.114-3-1a48.493 48.493 0 0 1 4.5-7c1 2.333 2.667 4 5 5 2.96 4.255 5.126 8.922 6.5 14a13.271 13.271 0 0 1 5 5.5 2186.085 2186.085 0 0 1 19 5.5v3a32.462 32.462 0 0 0-8 .5c-1.185 2.778-.185 4.278 3 4.5a4.934 4.934 0 0 1-.5 3c-.674-1.078-1.674-1.745-3-2a276.353 276.353 0 0 0-17.5-2.5c-2.068-2.212-4.568-3.712-7.5-4.5-1.28.113-2.113.78-2.5 2 9.216 3.168 17.216 8.168 24 15 .54 3.286 1.706 6.286 3.5 9 .495 1.973.662 3.973.5 6h12v3h3v8a195.902 195.902 0 0 1-16 4l-1 3c-.16 1.855.507 3.188 2 4z"/><path style="opacity:1" fill="#76706f" d="M558.5 612.5c-.763.768-1.763 1.268-3 1.5a98.432 98.432 0 0 1-14 .5 225.995 225.995 0 0 1 17-2z"/><path style="opacity:1" fill="#f5bb0f" d="M790.5 615.5c7.909-2.06 15.242-.726 22 4l-3.5 1c-2.441-.737-4.775-.737-7 0-.85 4.521-.35 8.855 1.5 13 1.22 1.784 1.22 3.45 0 5a41.415 41.415 0 0 1-7.5-6c-1.486-3.35-2.653-6.684-3.5-10 .51-2.888-.156-5.221-2-7z"/><path style="opacity:1" fill="#735724" d="M790.5 615.5c1.844 1.779 2.51 4.112 2 7a67.898 67.898 0 0 1-2-7z"/><path style="opacity:1" fill="#a67c26" d="M398.5 621.5a377.84 377.84 0 0 0-3 13 40.927 40.927 0 0 1 1-10.5c.184-1.376.851-2.209 2-2.5z"/><path style="opacity:1" fill="#f8f8f8" d="M738.5 622.5c1.431.381 2.264 1.381 2.5 3 .498 3.317.665 6.65.5 10h-3v3c-7.148-.356-11.815 2.81-14 9.5-7.663 1.568-14.33 4.901-20 10a52.413 52.413 0 0 1-19 2.5 48.245 48.245 0 0 1 4.5-8c.14-2.021.307-3.855.5-5.5a324.838 324.838 0 0 1 24-8.5 97.533 97.533 0 0 0 9-6.5c.529-2.429 1.863-4.262 4-5.5a52.141 52.141 0 0 1 10-1.5c.752-.671 1.086-1.504 1-2.5z"/><path style="opacity:1" fill="#706969" d="M548.5 625.5a67.898 67.898 0 0 1-7 2c1.779-1.844 4.112-2.51 7-2z"/><path style="opacity:1" fill="#634b22" d="M803.5 633.5c1.193.47 1.86 1.47 2 3l-1 3c-.607-.124-.94-.457-1-1 1.22-1.55 1.22-3.216 0-5z"/><path style="opacity:1" fill="#a17926" d="M834.5 632.5c3.614 2.202 3.614 4.202 0 6 1.333-2 1.333-4 0-6z"/><path style="opacity:1" fill="#8e6a25" d="M815.5 663.5c-1.446 1.44-3.279 2.107-5.5 2-1.385-.014-2.551-.348-3.5-1a41.73 41.73 0 0 0 9-1z"/><path style="opacity:1" fill="#b9b4b2" d="M759.5 666.5c.993 8.484 1.326 17.151 1 26h-4c.709-.904 1.709-1.237 3-1v-25z"/><path style="opacity:1" fill="#fdfdfd" d="M698.5 670.5h5v5a384.35 384.35 0 0 0-2 14.5c.259 1.261.926 2.261 2 3-3.317.498-6.65.665-10 .5-1.761-7.192-1.261-14.192 1.5-21a19.602 19.602 0 0 0 3.5-2z"/><path style="opacity:1" fill="#655e5e" d="M698.5 670.5c1.765-.961 3.765-1.295 6-1 .295 2.235-.039 4.235-1 6v-5h-5z"/><path style="opacity:1" fill="#6d5323" d="M773.5 670.5a192.974 192.974 0 0 1 2 10c-1.902-2.837-2.569-6.171-2-10z"/><path style="opacity:1" fill="#ba8c26" d="M794.5 672.5h14v3c-1.879.107-2.212-.393-1-1.5-4.519-.175-8.853-.675-13-1.5z"/><path style="opacity:1" fill="#f7bd0d" d="M773.5 670.5c-.569 3.829.098 7.163 2 10a163.881 163.881 0 0 0 21 12.5c-10.995.5-21.995.667-33 .5a150.888 150.888 0 0 0 1-20 42.184 42.184 0 0 1 9-3z"/><path style="opacity:1" fill="#e2ab1b" d="M792.5 682.5c1.92-1.44 3.587-1.107 5 1-1.897 1.152-3.564.819-5-1z"/><path style="opacity:1" fill="#fabf0b" d="M783.5 898.5c-25.491 1.333-51.325 2-77.5 2-26.175 0-52.009-.667-77.5-2a17288.85 17288.85 0 0 1 77.5-158 17304.166 17304.166 0 0 1 77.5 158z"/><path style="opacity:1" fill="#f9be0b" d="M312.5 899.5c-52 1.333-104 1.333-156 0a8676.506 8676.506 0 0 1 78-158 8676.506 8676.506 0 0 1 78 158z"/><path style="opacity:1" fill="#fabe0b" d="M547.5 899.5c-52 1.333-104 1.333-156 0a8676.506 8676.506 0 0 1 78-158 8676.506 8676.506 0 0 1 78 158z"/><path style="opacity:1" fill="#fabf0b" d="M1018.5 898.5c-25.491 1.333-51.325 2-77.5 2-26.175 0-52.009-.667-77.5-2a17288.85 17288.85 0 0 1 77.5-158 17304.166 17304.166 0 0 1 77.5 158z"/><path style="opacity:1" fill="#c39226" d="M628.5 898.5c25.491 1.333 51.325 2 77.5 2 26.175 0 52.009-.667 77.5-2 .767.672 1.434 1.505 2 2.5-53 .667-106 .667-159 0 .566-.995 1.233-1.828 2-2.5zM863.5 898.5c25.491 1.333 51.325 2 77.5 2 26.175 0 52.009-.667 77.5-2 .77.672 1.43 1.505 2 2.5-53 .667-106 .667-159 0 .566-.995 1.233-1.828 2-2.5zM156.5 899.5c52 1.333 104 1.333 156 0 .543.06.876.393 1 1a3121.78 3121.78 0 0 1-158 0c.124-.607.457-.94 1-1zM391.5 899.5c52 1.333 104 1.333 156 0 .543.06.876.393 1 1a3121.78 3121.78 0 0 1-158 0c.124-.607.457-.94 1-1z"/><path style="opacity:1" fill="#f3b911" d="M513.5 955.5c-3.667 1.667-6.333 4.333-8 8-8.909 7.528-19.243 11.528-31 12 .167 19.336 0 38.67-.5 58-4.094 2.98-7.427 2.31-10-2-.5-18.66-.667-37.33-.5-56-25.908-3.402-42.408-17.736-49.5-43a46.402 46.402 0 0 1-1-16c3.418-3.867 6.751-3.867 10 0 3.188 33.861 21.688 49.694 55.5 47.5 23.564-6.916 36.064-22.749 37.5-47.5 3.745-4.066 7.078-3.733 10 1 .525 14.257-3.642 26.924-12.5 38z"/><path style="opacity:1" fill="#f5bb0f" d="M887.5 913.5c2.436-.183 4.603.484 6.5 2 4.115 36.461 24.282 52.295 60.5 47.5 21.362-8.533 32.529-24.366 33.5-47.5 3-2.667 6-2.667 9 0 .923 28.982-12.244 48.482-39.5 58.5a46.94 46.94 0 0 1-11 1.5c.167 19.003 0 38-.5 57-3.333 4-6.667 4-10 0-.5-19-.667-37.997-.5-57-25.066-3.226-41.566-16.892-49.5-41a50.834 50.834 0 0 1-1-18c.698-1.191 1.531-2.191 2.5-3z"/><path style="opacity:1" fill="#af8326" d="M513.5 955.5c-2.333 3-5 5.667-8 8 1.667-3.667 4.333-6.333 8-8z"/><path style="opacity:1" fill="#f5bb0f" d="M652.5 913.5c2.436-.183 4.603.484 6.5 2 4.121 36.468 24.288 52.302 60.5 47.5 21.371-8.557 32.538-24.39 33.5-47.5 3-2.667 6-2.667 9 0 .923 28.982-12.244 48.482-39.5 58.5a46.94 46.94 0 0 1-11 1.5c.167 19.003 0 38-.5 57-3.333 4-6.667 4-10 0-.5-19-.667-37.997-.5-57-25.066-3.226-41.566-16.892-49.5-41a50.834 50.834 0 0 1-1-18c.698-1.191 1.531-2.191 2.5-3z"/><path style="opacity:1" fill="#f3ba10" d="M180.5 913.5c3.005-.247 5.505.753 7.5 3 1.835 29.165 17.169 45.165 46 48 23.169-1.169 38.169-12.836 45-35 .83-4.643 1.497-9.31 2-14 6.165-3.334 9.665-1.5 10.5 5.5-3.252 31.749-20.585 49.916-52 54.5.167 19.003 0 38-.5 57-3.745 4.07-7.078 3.73-10-1-.5-18.66-.667-37.33-.5-56-25.502-3.332-42.002-17.332-49.5-42a50.365 50.365 0 0 1-1-17 10.515 10.515 0 0 0 2.5-3z"/><path style="opacity:1" fill="#fabe0b" d="M430.5 1114.5c-52.836.33-105.503 0-158-1a17559.414 17559.414 0 0 1 79-159 8901.002 8901.002 0 0 1 79 160z"/><path style="opacity:1" fill="#f9be0b" d="M667.5 1114.5c-52.836.33-105.503 0-158-1 26.156-52.98 52.322-105.98 78.5-159a17941.527 17941.527 0 0 1 79.5 160z"/><path style="opacity:1" fill="#fabe0b" d="M902.5 1114.5c-52.836.33-105.503 0-158-1 26.153-52.97 52.32-105.97 78.5-159a17941.527 17941.527 0 0 1 79.5 160z"/><path style="opacity:1" fill="#201b12" d="M272.5 1113.5c52.497 1 105.164 1.33 158 1a3168.536 3168.536 0 0 1-159 0c.124-.61.457-.94 1-1zM509.5 1113.5c52.497 1 105.164 1.33 158 1a3168.536 3168.536 0 0 1-159 0c.124-.61.457-.94 1-1zM744.5 1113.5c52.497 1 105.164 1.33 158 1a3168.536 3168.536 0 0 1-159 0c.124-.61.457-.94 1-1z"/><path style="opacity:1" fill="#f4ba10" d="M553.5 1177.5c-2.731-3.73-6.064-6.73-10-9-9.867-12.06-13.2-25.56-10-40.5 3.456-1.12 6.29-.29 8.5 2.5 1.628 28.63 16.628 44.63 45 48 29.769-2.77 45.769-19.1 48-49 7.357-3.83 10.523-1.5 9.5 7-3.694 30.36-20.694 48.03-51 53 .167 19 0 38-.5 57-2.497 1.98-5.331 2.48-8.5 1.5a9.39 9.39 0 0 1-1.5-2.5c-.5-18.66-.667-37.33-.5-56-11.01-1.01-20.676-5.01-29-12z"/><path style="opacity:1" fill="#ac8126" d="M543.5 1168.5c3.936 2.27 7.269 5.27 10 9-3.936-2.27-7.269-5.27-10-9z"/><path style="opacity:1" fill="#ab8026" d="M778.5 1168.5c3.936 2.27 7.269 5.27 10 9-3.936-2.27-7.269-5.27-10-9z"/><path style="opacity:1" fill="#f4ba10" d="M788.5 1177.5c-2.731-3.73-6.064-6.73-10-9-8.972-11.42-12.805-24.42-11.5-39 3.13-2.62 6.297-2.62 9.5 0 1.594 29.09 16.761 45.42 45.5 49 29.764-2.76 45.764-19.1 48-49 7.357-3.83 10.523-1.5 9.5 7-3.728 30.4-20.728 48.06-51 53 .167 19 0 38-.5 57-2.497 1.98-5.331 2.48-8.5 1.5a9.39 9.39 0 0 1-1.5-2.5c-.5-18.66-.667-37.33-.5-56-11.01-1.01-20.676-5.01-29-12z"/><path style="opacity:1" fill="#f5bb0f" d="M346.5 1244.5v-56h-5c-23.933-4.43-39.099-18.43-45.5-42-1.394-5.68-1.56-11.34-.5-17 3.203-2.62 6.37-2.62 9.5 0 .515 20.88 10.015 36.04 28.5 45.5 30.615 8.78 51.448-1.72 62.5-31.5.83-4.64 1.497-9.31 2-14 3.13-2.62 6.297-2.62 9.5 0 .642 29.84-13.358 49.34-42 58.5-3.013.5-6.013 1-9 1.5.167 19 0 38-.5 57-2.153 1.94-4.653 2.44-7.5 1.5-1.323-.82-1.989-1.98-2-3.5z"/><path style="opacity:1" fill="#c19026" d="M341.5 1188.5h5v56a756.843 756.843 0 0 1-1-55c-1.599.27-2.932-.07-4-1z"/></svg>