<?xml version="1.0" encoding="UTF-8" standalone="no"?>
<!-- Created with Inkscape (http://www.inkscape.org/) -->

<svg
   xml:space="preserve"
   id="svg11947"
   version="1.1"
   viewBox="0 0 31.75 38.1"
   width="120"
   height="144"
   sodipodi:docname="AUT_Sankt_Oswald_bei_Plankenwarth_COA.svg"
   inkscape:version="1.2 (dc2aeda, 2022-05-15)"
   xmlns:inkscape="http://www.inkscape.org/namespaces/inkscape"
   xmlns:sodipodi="http://sodipodi.sourceforge.net/DTD/sodipodi-0.dtd"
   xmlns="http://www.w3.org/2000/svg"
   xmlns:svg="http://www.w3.org/2000/svg"><sodipodi:namedview
     id="namedview198"
     pagecolor="#ffffff"
     bordercolor="#000000"
     borderopacity="0.25"
     inkscape:showpageshadow="2"
     inkscape:pageopacity="0.0"
     inkscape:pagecheckerboard="0"
     inkscape:deskcolor="#d1d1d1"
     inkscape:document-units="px"
     showgrid="false"
     inkscape:zoom="1.9991732"
     inkscape:cx="26.51096"
     inkscape:cy="30.262511"
     inkscape:window-width="1390"
     inkscape:window-height="1205"
     inkscape:window-x="2240"
     inkscape:window-y="25"
     inkscape:window-maximized="0"
     inkscape:current-layer="svg11947" /><defs
     id="defs11944"><linearGradient
       id="s_Salbe_Schwarz"
       inkscape:swatch="solid"><stop
         style="stop-color:#000000;stop-opacity:1;"
         offset="0"
         id="stop3747" /></linearGradient><linearGradient
       id="a_Argent_Silber"
       inkscape:swatch="solid"><stop
         style="stop-color:#ffffff;stop-opacity:1;"
         offset="0"
         id="stop3741" /></linearGradient><linearGradient
       id="A_Argent-dark_Silber-dunkel"
       inkscape:swatch="solid"><stop
         style="stop-color:#e7e7e7;stop-opacity:1;"
         offset="0"
         id="stop3735" /></linearGradient><linearGradient
       id="g_Gules_Rot"
       inkscape:swatch="solid"><stop
         style="stop-color:#da121a;stop-opacity:1;"
         offset="0"
         id="stop3729" /></linearGradient><linearGradient
       id="o_Or_Gold"
       inkscape:swatch="solid"><stop
         style="stop-color:#fcdd09;stop-opacity:1;"
         offset="0"
         id="stop3723" /></linearGradient><linearGradient
       id="b_Azure_Blau"
       inkscape:swatch="solid"><stop
         style="stop-color:#0f47af;stop-opacity:1;"
         offset="0"
         id="stop3717" /></linearGradient><linearGradient
       id="B_Bleu-celeste_Hellblau"
       inkscape:swatch="solid"><stop
         style="stop-color:#4d87ca;stop-opacity:1;"
         offset="0"
         id="stop3711" /></linearGradient><linearGradient
       id="B_Bleu-celeste-alt_Hellblau-alt"
       inkscape:swatch="solid"><stop
         style="stop-color:#89c5e3;stop-opacity:1;"
         offset="0"
         id="stop3705" /></linearGradient><linearGradient
       id="v_Vert_Gruen"
       inkscape:swatch="solid"><stop
         style="stop-color:#078930;stop-opacity:1;"
         offset="0"
         id="stop3699" /></linearGradient><linearGradient
       id="c_Carnation_Fleischfarbe"
       inkscape:swatch="solid"><stop
         style="stop-color:#f2a772;stop-opacity:1;"
         offset="0"
         id="stop3693" /></linearGradient><linearGradient
       id="p_Purpure_Purpur"
       inkscape:swatch="solid"><stop
         style="stop-color:#9116a1;stop-opacity:1;"
         offset="0"
         id="stop3687" /></linearGradient><linearGradient
       id="t_Tenne_Braun"
       inkscape:swatch="solid"><stop
         style="stop-color:#9d5333;stop-opacity:1;"
         offset="0"
         id="stop3681" /></linearGradient><linearGradient
       id="C_Cendre_Eisen"
       inkscape:swatch="solid"><stop
         style="stop-color:#999999;stop-opacity:1;"
         offset="0"
         id="stop3675" /></linearGradient><linearGradient
       id="Murray_Maulbeere"
       inkscape:swatch="solid"><stop
         style="stop-color:#630727;stop-opacity:1;"
         offset="0"
         id="stop3669" /></linearGradient><linearGradient
       id="Rose_Rosa"
       inkscape:swatch="solid"><stop
         style="stop-color:#e63d6a;stop-opacity:1;"
         offset="0"
         id="stop2937" /></linearGradient><linearGradient
       id="Orange_Orange"
       inkscape:swatch="solid"><stop
         style="stop-color:#ed5f00;stop-opacity:1;"
         offset="0"
         id="stop2931" /></linearGradient><linearGradient
       id="Buff_Leder"
       inkscape:swatch="solid"><stop
         style="stop-color:#ddc595;stop-opacity:1;"
         offset="0"
         id="stop2925" /></linearGradient><linearGradient
       id="Copper_Kupfer"
       inkscape:swatch="solid"><stop
         style="stop-color:#953d02;stop-opacity:1;"
         offset="0"
         id="stop1435" /></linearGradient><clipPath
       clipPathUnits="userSpaceOnUse"
       id="clipPath5905"><path
         id="path5907"
         style="color:#000000;fill:#000000;stroke-width:0.529169;stroke-linecap:round;stroke-linejoin:round;stroke-miterlimit:44;-inkscape-stroke:none;paint-order:fill markers stroke"
         d="M 0.46046437,0.52916667 V 19.314583 22.225 c 0,0.191158 0.004955,0.381043 0.0118856,0.570508 A 19.4671,26.330402 0 0 0 15.494172,0.52916667 Z m 15.65795963,0 A 19.4671,26.330402 0 0 0 31.140246,22.795508 c 0.0069,-0.189465 0.01188,-0.37935 0.01188,-0.570508 V 19.314583 0.52916667 Z" /></clipPath></defs><g
     inkscape:groupmode="layer"
     id="layer1"
     inkscape:label="Wappen"><path
       id="path5630"
       style="fill:#ffffff;stroke:#000000;stroke-width:0.264583"
       d="m 12.775839,4.4119162 v 5.526971 c 0.47212,0.9600288 1.232564,2.5096168 2.462804,2.9137638 1.230239,-0.404147 1.990683,-1.953735 2.462803,-2.9137638 V 4.4119162 C 17.133701,5.3308586 16.561238,5.9555978 15.691158,6.3856683 15.632108,6.9278922 15.517074,7.4707838 15.238643,7.9511915 14.960212,7.4707838 14.845177,6.9278922 14.786127,6.3856683 13.916049,5.9555979 13.343584,5.3308586 12.775839,4.4119162 Z" /><path
       id="path5626"
       style="fill:#ffffff;stroke:#000000;stroke-width:0.264583"
       d="m 7.8502327,4.4119162 v 5.526971 c 0.4721196,0.9600288 1.2325641,2.5096168 2.4628033,2.9137638 1.230239,-0.404147 1.990683,-1.953735 2.462803,-2.9137638 V 4.4119162 C 12.208094,5.3308586 11.635631,5.9555978 10.765551,6.3856683 10.706501,6.9278922 10.591467,7.4707838 10.313036,7.9511915 10.034605,7.4707838 9.9195705,6.9278922 9.8605207,6.3856683 8.9904423,5.9555979 8.4179778,5.3308586 7.8502327,4.4119162 Z" /><path
       d="M 2e-7,3.1e-6 V 22.225003 c 0,8.767498 7.107502,15.875 15.8749998,15.875 8.767498,0 15.875,-7.107502 15.875,-15.875 V 3.1e-6 Z"
       id="path11658"
       style="stroke-width:0.264583"
       inkscape:label="Schildrand"
       sodipodi:nodetypes="cssscc" /><path
       id="rect11660"
       style="fill:#e7e7e7;fill-opacity:1;stroke-width:0.529167;stroke-dasharray:none;opacity:1"
       d="M 0.5291666,0.52916659 V 19.314584 22.225 c 0,8.474861 6.8709732,15.345833 15.3458334,15.345833 8.474861,0 15.345833,-6.870972 15.345833,-15.345833 V 19.314584 0.52916659 Z"
       inkscape:label="Schild"
       sodipodi:nodetypes="ccsssccc" /><path
       id="path4602"
       style="color:#000000;fill:#000000;stroke-width:0.529167;stroke-linecap:round;stroke-linejoin:round;stroke-miterlimit:44;-inkscape-stroke:none;paint-order:fill markers stroke"
       d="M 0.52916667 0.52916667 L 0.52916667 19.314583 L 0.52916667 22.225 C 0.52916667 22.416158 0.53412124 22.606043 0.54105225 22.795508 A 19.4671 26.330402 0 0 0 15.562874 0.52916667 L 0.52916667 0.52916667 z M 16.187126 0.52916667 A 19.4671 26.330402 0 0 0 31.208948 22.795508 C 31.215879 22.606043 31.220833 22.416158 31.220833 22.225 L 31.220833 19.314583 L 31.220833 0.52916667 L 16.187126 0.52916667 z " /><path
       id="path4604"
       style="color:#000000;fill:#000000;stroke-linecap:round;stroke-linejoin:round;stroke-miterlimit:44;paint-order:fill markers stroke"
       d="M 15.310177 0.52916667 C 14.746339 6.3833275 12.755519 11.626946 9.8283407 15.586129 C 7.3093909 18.993157 4.1080274 21.447693 0.53330078 22.546944 C 0.53705741 22.729244 0.54390904 22.910928 0.55397135 23.091614 C 4.3040448 21.974237 7.6496679 19.423044 10.254154 15.900321 C 13.254112 11.842702 15.277592 6.492446 15.842444 0.52916667 L 15.310177 0.52916667 z M 15.907556 0.52916667 C 16.472408 6.492446 18.495888 11.842702 21.495846 15.900321 C 24.100332 19.423044 27.445955 21.974237 31.196029 23.091614 C 31.206091 22.910928 31.212943 22.729244 31.216699 22.546944 C 27.641973 21.447693 24.440609 18.993157 21.921659 15.586129 C 18.994482 11.626946 17.003661 6.3833275 16.439823 0.52916667 L 15.907556 0.52916667 z " /><path
       id="path4695"
       style="color:#000000;fill:#078930;stroke-width:0.264583;stroke-linecap:round;stroke-linejoin:round;stroke-miterlimit:44;-inkscape-stroke:none;paint-order:fill markers stroke"
       d="M 15.875 30.320113 A 4.6046462 4.6046462 0 0 0 11.891264 32.616614 A 4.6046462 4.6046462 0 0 0 9.2676514 31.795992 A 4.6046462 4.6046462 0 0 0 5.600175 33.622754 C 8.3204446 36.07653 11.923339 37.570833 15.875 37.570833 C 19.826662 37.570833 23.429556 36.07653 26.149825 33.622754 A 4.6046462 4.6046462 0 0 0 22.482349 31.795992 A 4.6046462 4.6046462 0 0 0 19.859253 32.617647 A 4.6046462 4.6046462 0 0 0 15.875 30.320113 z " /><path
       id="path4697"
       style="color:#000000;fill:#000000;stroke-linecap:round;stroke-linejoin:round;stroke-miterlimit:44;-inkscape-stroke:none;paint-order:fill markers stroke"
       d="M 15.875 30.187305 C 14.22369 30.187534 12.714594 31.068498 11.855607 32.472437 C 11.08404 31.965746 10.192447 31.66424 9.2676514 31.664217 C 7.731527 31.664137 6.3659711 32.396807 5.5004395 33.531287 C 5.5650633 33.590616 5.6301399 33.649275 5.6957764 33.707503 C 6.5118947 32.626177 7.8074528 31.927691 9.2676514 31.927767 C 10.178417 31.927789 11.067881 32.205664 11.816333 32.724618 A 0.13230472 0.13230472 0 0 0 12.005986 32.683793 C 12.805739 31.303242 14.279529 30.453142 15.875 30.452922 C 17.470857 30.453171 18.944425 31.3027 19.744014 32.683793 A 0.13230472 0.13230472 0 0 0 19.935734 32.726685 C 20.683929 32.207473 21.571647 31.928186 22.482349 31.927767 C 23.942547 31.927691 25.238105 32.626177 26.054224 33.707503 C 26.11986 33.649275 26.184937 33.590616 26.249561 33.531287 C 25.384029 32.396807 24.018473 31.664137 22.482349 31.664217 C 21.558881 31.664642 20.669147 31.968879 19.898527 32.474504 C 19.039976 31.06854 17.527684 30.187563 15.875 30.187305 z " /><path
       style="opacity:1;fill:#000000;stroke:none;stroke-width:0.132292;stroke-linecap:round;stroke-linejoin:round;stroke-miterlimit:44;stroke-dasharray:none;paint-order:fill markers stroke"
       d="m 16.566833,19.474967 c -1.454068,0.500581 -1.668602,3.170344 0.190697,4.099993 1.859299,0.92965 6.0605,2.836623 10.321493,0.405232 -1.525577,0 -2.121507,0.02384 -3.027319,-0.238372 1.215695,-0.16686 2.197857,-1.263369 2.197857,-1.263369 -2.436229,0.715115 -6.393199,0.804883 -7.251337,-1.311783 -0.858138,-2.116665 -2.431391,-1.691701 -2.431391,-1.691701 z"
       id="path4912"
       sodipodi:nodetypes="cscccsc" /><path
       style="opacity:1;fill:#000000;stroke:none;stroke-width:0.132292;stroke-linecap:round;stroke-linejoin:round;stroke-miterlimit:44;stroke-dasharray:none;paint-order:fill markers stroke"
       d="m 15.517997,25.400001 c 0.500581,1.464489 1.072673,1.386291 0.92965,2.116668 C 16.304624,28.247046 15.875,28.575 15.875,28.575 c 0,0 0.71567,-0.161095 0.906367,-0.470977 0.190697,0.333719 0.715115,0.715116 0.715115,0.715116 0,0 -0.286046,-0.452909 -0.238372,-0.762791 0.381395,0.619767 0.619767,0.518652 0.619767,0.518652 0,0 -0.09535,-0.256442 -0.143023,-0.590164 -0.04767,-0.333719 0.07151,-1.095587 0.238372,-1.311045 0.190697,0.69128 0.905812,0.816232 0.715115,1.35872 -0.190698,0.542489 -0.405232,0.381394 -0.405232,0.381394 0,0 0.09535,0.333722 0.810464,0.02384 0.286046,0.595932 0.858138,0.619768 0.858138,0.619768 0,0 -0.214535,-0.524417 -0.238372,-0.762791 0.214534,0.357558 0.715115,0.280281 0.715115,0.280281 0,0 -0.309883,-0.35179 -0.286046,-0.518652 0.02384,-0.166859 -0.16686,-0.539678 -0.16686,-0.539678 0,0 0.119186,-0.342297 0.02384,-0.48532 -0.09535,-0.143023 -0.619766,-0.762789 -0.190697,-0.953486 0.429069,-0.190698 2.145345,-0.04768 2.955808,-0.09535 0.810464,-0.04767 2.169183,0.595929 2.717438,0.977323 0.548255,0.381397 1.340268,0.548256 1.501743,0.405233 0.161476,-0.143023 0.01847,-0.291414 0.161476,-0.34504 0.14301,-0.05363 0.464767,0.07661 0.610325,-0.06895 0.145557,-0.145558 0.0383,-0.329419 0.09193,-0.383045 0.05363,-0.05363 0.750768,0.252809 0.888664,0.07661 0.137898,-0.176199 0.03831,-0.490297 0.06129,-0.582229 0.02299,-0.09193 0.237487,-0.08427 0.245149,-0.1762 0.0076,-0.09193 -0.09193,-0.16088 -0.122576,-0.260471 -0.03064,-0.09959 -7.243143,-1.024953 -7.895565,-2.089461 -0.652422,-1.064508 -0.694448,-1.168959 -1.188364,-2.271449 -0.493915,-1.102491 -1.645425,-1.042447 -1.719884,-2.469579 -0.05292,-1.014291 -0.538016,-1.569946 -0.555656,-2.134421 -0.0088,-0.2821 -0.123479,-1.517027 -0.829072,-1.772804 -0.705594,-0.255778 -1.889196,-0.631297 -2.487219,0.0882 -0.564475,0.679134 -0.590934,2.055042 -0.158758,2.27554 0.432176,0.220498 0.767333,0.335157 0.423356,1.058391 -0.343977,0.723233 -0.805763,1.620612 -0.684062,3.352475 0.1217,1.731863 1.192703,2.272872 1.693283,3.737361 z"
       id="path4914"
       sodipodi:nodetypes="sscccccscscccccscsssssssssccssssssssscs" /><path
       style="opacity:1;fill:#000000;stroke:none;stroke-width:0.132292;stroke-linecap:round;stroke-linejoin:round;stroke-miterlimit:44;stroke-dasharray:none;paint-order:fill markers stroke"
       d="m 16.749034,27.659279 c 0,0 -0.837893,1.799262 -0.899633,1.922743 -0.06174,0.123479 -0.199581,0.334389 -0.596477,0.387308 -0.396897,0.05292 -0.813151,0.213058 -0.881238,0.285273 -0.159165,0.168814 -0.289803,-0.124493 -0.52794,0.175386 -0.112942,0.142224 0.38529,0.658409 0.479809,0.492661 0.101307,-0.177652 0.227135,-0.206063 0.215966,-0.11466 -0.01663,0.136076 0.269129,0.379257 0.463168,0.246957 0.194038,-0.132297 0.246958,-0.282236 0.229318,-0.440994 -0.01764,-0.158758 0.352797,-0.317519 0.511555,-0.361617 0.158759,-0.0441 0.802613,0.01765 0.952552,0.149937 0.149939,0.1323 -0.0441,0.09702 -0.01764,0.185219 0.02646,0.0882 0.114659,0.361617 0.273418,0.379256 0.158759,0.01765 0.432176,-0.291057 0.511556,-0.326337 0.07938,-0.03528 0.114659,0.185219 0.05292,0.291058 -0.06174,0.105838 -0.308697,0.149939 -0.343977,0.335158 -0.03528,0.185219 0.449816,0.643853 0.705594,0.405715 0.255778,-0.238136 0.238138,-0.599752 0.202858,-0.696773 -0.08187,-0.247723 0.187264,-0.123562 0.350531,0.0295 0.246957,0.22932 0.372702,0.464435 0.60202,0.526176 0.229318,0.06174 0.485096,-0.01765 0.511556,-0.2646 0.02646,-0.246956 1e-6,-0.520376 -0.308697,-0.520376 -0.308697,0 -0.679135,-0.09702 -0.705594,-0.335156 -0.02646,-0.238139 0.767334,-2.23144 0.767334,-2.23144 l -0.308698,-0.793792 c 0,0 -0.529195,1.517025 -0.643854,1.834544 -0.114659,0.317516 -0.141119,0.590933 -0.335157,0.670314 -0.194038,0.07938 -0.432176,0.0441 -0.573295,0.105838 -0.141119,0.06174 -0.379257,0.299876 -0.458636,0.255778 -0.07938,-0.0441 -0.06174,-0.220498 -0.299878,-0.273418 -0.238137,-0.05292 -0.485095,-0.03528 -0.299877,-0.326337 0.185219,-0.291057 0.934912,-1.587587 1.023111,-1.675786 0.0882,-0.0882 -0.652674,-0.317516 -0.652674,-0.317516 z"
       id="path4916"
       sodipodi:nodetypes="cssssssssscscssssccssssccssssssscc" /><path
       style="opacity:1;fill:#000000;stroke:none;stroke-width:0.132292;stroke-linecap:round;stroke-linejoin:round;stroke-miterlimit:44;stroke-dasharray:none;paint-order:fill markers stroke"
       d="m 13.953118,30.428735 c 0,0 -0.343977,0.379256 -0.326337,0.829071 0.238138,-0.308698 0.467456,-0.467455 0.608574,-0.538015 0.141119,-0.07056 -0.282237,-0.291056 -0.282237,-0.291056 z"
       id="path4918"
       sodipodi:nodetypes="ccsc" /><path
       style="opacity:1;fill:#000000;stroke:none;stroke-width:0.132292;stroke-linecap:round;stroke-linejoin:round;stroke-miterlimit:44;stroke-dasharray:none;paint-order:fill markers stroke"
       d="m 14.711631,30.666872 c -0.07938,0.105839 -0.160525,0.334913 -0.125245,0.484852 0.03528,0.149939 0.215467,0.34372 0.215467,0.34372 0,0 -0.01084,-0.396397 0.130277,-0.625714 0.141119,-0.229319 -0.220499,-0.202858 -0.220499,-0.202858 z"
       id="path4920"
       sodipodi:nodetypes="cscsc" /><path
       style="opacity:1;fill:#000000;stroke:none;stroke-width:0.132292;stroke-linecap:round;stroke-linejoin:round;stroke-miterlimit:44;stroke-dasharray:none;paint-order:fill markers stroke"
       d="m 16.863692,30.543394 c 0,0 -0.520375,-0.0088 -0.432176,0.546835 0.291058,-0.273417 0.511556,-0.317518 0.511556,-0.317518 z"
       id="path4922" /><path
       style="opacity:1;fill:#000000;stroke:none;stroke-width:0.132292;stroke-linecap:round;stroke-linejoin:round;stroke-miterlimit:44;stroke-dasharray:none;paint-order:fill markers stroke"
       d="m 17.304689,31.301907 c -0.255778,0.282236 -0.0088,0.864352 -0.0088,0.864352 0,0 0.167578,-0.555655 0.343977,-0.617396 0.176398,-0.06174 -0.335157,-0.246956 -0.335157,-0.246956 z"
       id="path4924"
       sodipodi:nodetypes="ccsc" /><path
       style="opacity:1;fill:#000000;stroke:none;stroke-width:0.132292;stroke-linecap:round;stroke-linejoin:round;stroke-miterlimit:44;stroke-dasharray:none;paint-order:fill markers stroke"
       d="m 19.368551,31.151967 c 0.229317,0.185219 0.114659,0.917274 0.114659,0.917274 l -0.546836,-0.652675 z"
       id="path4926" /><path
       style="opacity:1;fill:#000000;stroke:none;stroke-width:0.132292;stroke-linecap:round;stroke-linejoin:round;stroke-miterlimit:44;stroke-dasharray:none;paint-order:fill markers stroke"
       d="m 14.535233,15.434865 c -1.428828,0.167579 -2.566598,0.564475 -3.166352,1.640506 0.926091,-0.317517 1.666965,-0.582115 2.707716,-0.511556 1.031931,0.07056 0.458636,-1.12895 0.458636,-1.12895 z"
       id="path4928"
       sodipodi:nodetypes="cccc" /><path
       style="opacity:1;fill:#000000;stroke:none;stroke-width:0.132292;stroke-linecap:round;stroke-linejoin:round;stroke-miterlimit:44;stroke-dasharray:none;paint-order:fill markers stroke"
       d="m 14.297095,16.687294 c -0.996651,0.0882 -2.196161,0.361617 -2.840015,0.890812 1.181869,0.02646 3.095793,-0.555655 3.095793,-0.555655 z"
       id="path4930" /><path
       style="opacity:1;fill:#000000;stroke:none;stroke-width:0.132292;stroke-linecap:round;stroke-linejoin:round;stroke-miterlimit:44;stroke-dasharray:none;paint-order:fill markers stroke"
       d="m 14.473493,14.993869 c -0.317517,0.01764 -0.626214,-0.132299 -0.626214,-0.132299 0,0 0.176398,0.238138 0.414536,0.255778 0.238138,0.01764 0.123479,0.105839 0.123479,0.105839 0,0 -0.485095,-0.01764 -0.705594,-0.167579 0,0.264598 0.529196,0.282238 0.529196,0.282238 0,0 -0.520376,0.141119 -0.652675,0 0.149939,0.308697 0.617395,0.246958 0.617395,0.246958 l 0.405717,-0.449816 z"
       id="path4932" /><path
       id="path4936"
       style="opacity:1;fill:#ffffff;stroke:none;stroke-width:0.132292;stroke-linecap:round;stroke-linejoin:round;stroke-miterlimit:44;stroke-dasharray:none;paint-order:fill markers stroke"
       d="M 15.252816 15.407845 A 0.42257464 0.34672791 0 0 0 14.844055 15.754594 A 0.42257464 0.34672791 0 0 0 15.266768 16.101343 A 0.42257464 0.34672791 0 0 0 15.689482 15.754594 A 0.42257464 0.34672791 0 0 0 15.500346 15.465723 C 15.342614 15.545954 15.205873 15.672648 15.239897 15.765446 C 15.28555 15.889959 15.499485 15.677945 15.548405 15.672945 C 15.584909 15.733786 15.52732 16.099361 15.0828 15.922542 C 14.843818 15.827481 15.023923 15.560548 15.252816 15.407845 z " /><path
       style="color:#000000;fill:#fcdd09;stroke-linecap:round;stroke-linejoin:round;stroke-miterlimit:44;paint-order:fill markers stroke;stroke:#000000;stroke-width:0.13229167;stroke-dasharray:none"
       d="m -17.822266,11.314453 c -0.535805,0 -0.96289,0.458763 -0.96289,1.00586 0,0.547096 0.427085,1.007812 0.96289,1.007812 0.535806,0 0.962891,-0.460716 0.962891,-1.007812 0,-0.547097 -0.427085,-1.00586 -0.962891,-1.00586 z m 0,0.423828 c 0.293583,0 0.539063,0.251031 0.539063,0.582032 0,0.331 -0.24548,0.583984 -0.539063,0.583984 -0.293583,0 -0.539062,-0.252984 -0.539062,-0.583984 0,-0.331001 0.245479,-0.582032 0.539062,-0.582032 z"
       id="path4759"
       transform="rotate(-90)" /><path
       style="opacity:1;fill:#000000;stroke:none;stroke-width:0.132292;stroke-linecap:round;stroke-linejoin:round;stroke-miterlimit:44;stroke-dasharray:none;paint-order:fill markers stroke"
       d="m 14.796511,14.700199 c 0.329487,-0.116587 0.598146,-0.334556 0.598146,-0.334556 0,0 0.0659,0.116588 -0.141933,0.248384 -0.182877,0.11597 0.283866,0.0051 0.511973,-0.207831 0.04562,0.278797 -0.506904,0.451144 -0.506904,0.451144 0,0 0.567732,-0.233176 0.942841,-0.304142 -0.182485,0.294004 -0.785701,0.380177 -0.785701,0.380177 z"
       id="path4991"
       sodipodi:nodetypes="ccsccccc" /><g
       id="g5821"
       transform="translate(0.0687023)"
       clip-path="url(#clipPath5905)"><g
         id="g5897"
         transform="matrix(1.0165933,0,0,1.0166522,-0.26227925,-0.19008519)"
         style="stroke-width:0.983649"><path
           id="path5706"
           style="fill:#ffffff;stroke:#000000;stroke-width:0.260257"
           d="m 3.1472612,16.36539 v 5.526971 c 0.4721196,0.960029 1.2325641,2.509617 2.4628034,2.913764 1.2302396,-0.404147 1.9906836,-1.953735 2.4628039,-2.913764 V 16.36539 c -0.5677454,0.918943 -1.7095815,0.485348 -2.2050949,0.915419 -0.033629,0.542224 0.020722,4.260115 -0.257709,4.740523 C 5.331634,21.540924 5.3859845,17.823033 5.3523555,17.280809 4.8568429,16.850739 3.7150062,17.284333 3.1472612,16.36539 Z"
           sodipodi:nodetypes="ccccccccc" /><path
           id="path5712"
           style="fill:#ffffff;stroke:#000000;stroke-width:0.260257"
           d="m -1.7783461,16.36539 v 5.526971 c 0.4721196,0.960029 1.23256406,2.509617 2.46280336,2.913764 C 1.9146969,24.401978 2.6751409,22.85239 3.1472612,21.892361 V 16.36539 c -0.5677454,0.918943 -1.7095815,0.485348 -2.20509494,0.915419 -0.033629,0.542224 0.0207224,4.260115 -0.257709,4.740523 -0.2784306,-0.480408 -0.2240801,-4.198299 -0.2577091,-4.740523 -0.4955126,-0.43007 -1.63734926,0.0035 -2.20509426,-0.915419 z"
           sodipodi:nodetypes="ccccccccc" /><path
           id="path5686"
           style="fill:#ffffff;stroke:#000000;stroke-width:0.260257"
           d="M 5.6100647,10.360429 V 15.8874 c 0.4721196,0.960029 1.2325641,2.509617 2.4628034,2.913764 1.2302396,-0.404147 1.9906839,-1.953735 2.4628039,-2.913764 v -5.526971 c -0.5677454,0.918943 -1.7095815,0.485348 -2.2050949,0.915419 -0.033629,0.542224 0.020722,4.260115 -0.257709,4.740523 C 7.7944375,15.535963 7.848788,11.818072 7.815159,11.275848 7.3196464,10.845778 6.1778097,11.279372 5.6100647,10.360429 Z"
           sodipodi:nodetypes="ccccccccc" /><path
           id="path5688"
           style="fill:#ffffff;stroke:#000000;stroke-width:0.260257"
           d="M 10.535672,10.360429 V 15.8874 c 0.47212,0.960029 1.232564,2.509617 2.462804,2.913764 1.23024,-0.404147 1.990684,-1.953735 2.462804,-2.913764 v -5.526971 c -0.567745,0.918943 -1.709581,0.485348 -2.205095,0.915419 -0.03363,0.542224 0.02072,4.260115 -0.257709,4.740523 -0.27843,-0.480408 -0.224081,-4.198299 -0.257709,-4.740523 -0.495513,-0.43007 -1.63735,0.0035 -2.205095,-0.915419 z"
           sodipodi:nodetypes="ccccccccc" /><path
           id="path5690"
           style="fill:#ffffff;stroke:#000000;stroke-width:0.260257"
           d="M 0.68445736,10.360429 V 15.8874 C 1.156577,16.847429 1.9170215,18.397017 3.1472608,18.801164 4.3775004,18.397017 5.1379444,16.847429 5.6100647,15.8874 v -5.526971 c -0.5677454,0.918943 -1.7095815,0.485348 -2.2050949,0.915419 -0.033629,0.542224 0.020722,4.260115 -0.257709,4.740523 -0.2784306,-0.480408 -0.2240801,-4.198299 -0.2577091,-4.740523 -0.4955126,-0.43007 -1.6373493,0.0035 -2.20509434,-0.915419 z"
           sodipodi:nodetypes="ccccccccc" /><path
           id="path5190"
           style="fill:#ffffff;stroke:#000000;stroke-width:0.260257"
           d="m 3.1472612,4.3554679 v 5.526971 C 3.6193808,10.842468 4.3798253,12.392056 5.6100646,12.796203 6.8403042,12.392056 7.6007482,10.842468 8.0728685,9.8824389 V 4.3554679 C 7.5051231,5.2744103 6.363287,4.8408162 5.8677736,5.2708867 5.8341446,5.8131106 5.888496,9.5310022 5.6100646,10.01141 5.331634,9.5310022 5.3859845,5.8131106 5.3523555,5.2708867 4.8568429,4.8408163 3.7150062,5.2744103 3.1472612,4.3554679 Z"
           sodipodi:nodetypes="ccccccccc" /><path
           id="path5659"
           style="fill:#ffffff;stroke:#000000;stroke-width:0.260257"
           d="m 8.0728685,4.3554679 v 5.526971 c 0.4721196,0.9600291 1.2325641,2.5096171 2.4628035,2.9137641 1.23024,-0.404147 1.990684,-1.953735 2.462804,-2.9137641 V 4.3554679 C 12.430731,5.2744103 11.288895,4.8408162 10.793381,5.2708867 10.759751,5.8131106 10.814101,9.5310022 10.535672,10.01141 10.257242,9.5310022 10.311592,5.8131106 10.277963,5.2708867 9.7824502,4.8408163 8.6406135,5.2744103 8.0728685,4.3554679 Z"
           sodipodi:nodetypes="ccccccccc" /><path
           id="path5661"
           style="fill:#ffffff;stroke:#000000;stroke-width:0.260257"
           d="m 12.998476,4.3554679 v 5.526971 c 0.47212,0.9600291 1.232564,2.5096171 2.462803,2.9137641 V 10.01141 C 15.182849,9.5310022 15.237199,5.8131106 15.20357,5.2708867 14.708058,4.8408163 13.566221,5.2744067 12.998476,4.3554679 Z"
           sodipodi:nodetypes="cccccc" /><path
           id="path5663"
           style="fill:#ffffff;stroke:#000000;stroke-width:0.260257"
           d="m -1.7783461,4.3554679 v 5.526971 C -1.3062265,10.842468 -0.54578204,12.392056 0.68445726,12.796203 1.9146969,12.392056 2.6751409,10.842468 3.1472612,9.8824389 V 4.3554679 C 2.5795158,5.2744103 1.4376797,4.8408162 0.94216626,5.2708867 0.90853726,5.8131106 0.96288866,9.5310022 0.68445726,10.01141 0.40602666,9.5310022 0.46037716,5.8131106 0.42674816,5.2708867 -0.06876444,4.8408163 -1.2106011,5.2744103 -1.7783461,4.3554679 Z"
           sodipodi:nodetypes="ccccccccc" /><path
           id="path5674"
           style="fill:#ffffff;stroke:#000000;stroke-width:0.260257"
           d="m 5.6100647,-1.6494932 v 5.526971 C 6.0821843,4.8375066 6.8426288,6.3870946 8.0728681,6.7912416 9.3031077,6.3870946 10.063552,4.8375066 10.535672,3.8774778 v -5.526971 C 9.9679266,-0.73055076 8.8260905,-1.1641449 8.3305771,-0.73407436 8.2969481,-0.19185046 8.3512991,3.5260411 8.0728681,4.0064486 7.7944375,3.5260411 7.848788,-0.19185046 7.815159,-0.73407436 7.3196464,-1.1641448 6.1778097,-0.73055076 5.6100647,-1.6494932 Z"
           sodipodi:nodetypes="ccccccccc" /><path
           id="path5676"
           style="fill:#ffffff;stroke:#000000;stroke-width:0.260257"
           d="m 10.535672,-1.6494932 v 5.526971 c 0.47212,0.9600288 1.232564,2.5096168 2.462804,2.9137638 1.23024,-0.404147 1.990684,-1.953735 2.462804,-2.9137638 v -5.526971 c -0.567745,0.91894244 -1.709581,0.4853483 -2.205095,0.91541884 -0.03363,0.5422239 0.02072,4.26011546 -0.257709,4.74052296 -0.27843,-0.4804075 -0.224081,-4.19829906 -0.257709,-4.74052296 -0.495513,-0.43007044 -1.63735,0.003524 -2.205095,-0.91541884 z"
           sodipodi:nodetypes="ccccccccc" /><path
           id="path5680"
           style="fill:#ffffff;stroke:#000000;stroke-width:0.260257"
           d="m 0.68445736,-1.6494932 v 5.526971 C 1.156577,4.8375066 1.9170215,6.3870946 3.1472608,6.7912416 4.3775004,6.3870946 5.1379444,4.8375066 5.6100647,3.8774778 v -5.526971 C 5.0423193,-0.73055076 3.9004832,-1.1641449 3.4049698,-0.73407436 3.3713408,-0.19185046 3.4256922,3.5260411 3.1472608,4.0064486 2.8688302,3.5260411 2.9231807,-0.19185046 2.8895517,-0.73407436 2.3940391,-1.1641448 1.2522024,-0.73055076 0.68445736,-1.6494932 Z"
           sodipodi:nodetypes="ccccccccc" /><path
           id="path5765"
           style="fill:#ffffff;stroke:#000000;stroke-width:0.260257"
           d="m 28.465334,16.36539 v 5.526971 c -0.47212,0.960029 -1.232565,2.509617 -2.462804,2.913764 -1.230239,-0.404147 -1.990683,-1.953735 -2.462804,-2.913764 V 16.36539 c 0.567746,0.918943 1.709582,0.485348 2.205095,0.915419 0.03363,0.542224 -0.02072,4.260115 0.257709,4.740523 0.278431,-0.480408 0.22408,-4.198299 0.257709,-4.740523 0.495513,-0.43007 1.63735,0.0035 2.205095,-0.915419 z"
           sodipodi:nodetypes="ccccccccc" /><path
           id="path5767"
           style="fill:#ffffff;stroke:#000000;stroke-width:0.260257"
           d="m 33.390941,16.36539 v 5.526971 c -0.47212,0.960029 -1.232564,2.509617 -2.462803,2.913764 -1.23024,-0.404147 -1.990684,-1.953735 -2.462804,-2.913764 V 16.36539 c 0.567745,0.918943 1.709581,0.485348 2.205094,0.915419 0.03363,0.542224 -0.02072,4.260115 0.25771,4.740523 0.27843,-0.480408 0.22408,-4.198299 0.257709,-4.740523 0.495512,-0.43007 1.637349,0.0035 2.205094,-0.915419 z"
           sodipodi:nodetypes="ccccccccc" /><path
           id="path5769"
           style="fill:#ffffff;stroke:#000000;stroke-width:0.260257"
           d="M 26.00253,10.360429 V 15.8874 c -0.472119,0.960029 -1.232564,2.509617 -2.462803,2.913764 -1.23024,-0.404147 -1.990684,-1.953735 -2.462804,-2.913764 v -5.526971 c 0.567745,0.918943 1.709581,0.485348 2.205095,0.915419 0.03363,0.542224 -0.02072,4.260115 0.257709,4.740523 0.27843,-0.480408 0.22408,-4.198299 0.257709,-4.740523 0.495512,-0.43007 1.637349,0.0035 2.205094,-0.915419 z"
           sodipodi:nodetypes="ccccccccc" /><path
           id="path5771"
           style="fill:#ffffff;stroke:#000000;stroke-width:0.260257"
           d="M 21.076923,10.360429 V 15.8874 c -0.47212,0.960029 -1.232564,2.509617 -2.462804,2.913764 -1.23024,-0.404147 -1.990684,-1.953735 -2.462804,-2.913764 v -5.526971 c 0.567745,0.918943 1.709581,0.485348 2.205095,0.915419 0.03363,0.542224 -0.02072,4.260115 0.257709,4.740523 0.27843,-0.480408 0.224081,-4.198299 0.257709,-4.740523 0.495513,-0.43007 1.63735,0.0035 2.205095,-0.915419 z"
           sodipodi:nodetypes="ccccccccc" /><path
           id="path5773"
           style="fill:#ffffff;stroke:#000000;stroke-width:0.260257"
           d="M 30.928137,10.360429 V 15.8874 c -0.472119,0.960029 -1.232564,2.509617 -2.462803,2.913764 C 27.235094,18.397017 26.47465,16.847429 26.00253,15.8874 v -5.526971 c 0.567745,0.918943 1.709582,0.485348 2.205095,0.915419 0.03363,0.542224 -0.02072,4.260115 0.257709,4.740523 0.278431,-0.480408 0.22408,-4.198299 0.257709,-4.740523 0.495513,-0.43007 1.637349,0.0035 2.205094,-0.915419 z"
           sodipodi:nodetypes="ccccccccc" /><path
           id="path5775"
           style="fill:#ffffff;stroke:#000000;stroke-width:0.260257"
           d="m 28.465334,4.3554679 v 5.526971 C 27.993214,10.842468 27.232769,12.392056 26.00253,12.796203 24.772291,12.392056 24.011847,10.842468 23.539726,9.8824389 v -5.526971 c 0.567746,0.9189424 1.709582,0.4853483 2.205095,0.9154188 0.03363,0.5422239 -0.02072,4.2601155 0.257709,4.7405233 0.278431,-0.4804078 0.22408,-4.1982994 0.257709,-4.7405233 0.495513,-0.4300704 1.63735,0.00352 2.205095,-0.9154188 z"
           sodipodi:nodetypes="ccccccccc" /><path
           id="path5777"
           style="fill:#ffffff;stroke:#000000;stroke-width:0.260257"
           d="m 23.539726,4.3554679 v 5.526971 c -0.472119,0.9600291 -1.232564,2.5096171 -2.462803,2.9137641 -1.23024,-0.404147 -1.990684,-1.953735 -2.462804,-2.9137641 v -5.526971 c 0.567745,0.9189424 1.709581,0.4853483 2.205095,0.9154188 0.03363,0.5422239 -0.02072,4.2601155 0.257709,4.7405233 0.27843,-0.4804078 0.22408,-4.1982994 0.257709,-4.7405233 0.495513,-0.4300704 1.637349,0.00352 2.205094,-0.9154188 z"
           sodipodi:nodetypes="ccccccccc" /><path
           id="path5779"
           style="fill:#ffffff;stroke:#000000;stroke-width:0.260257"
           d="m 18.614119,4.3554679 v 5.526971 c -0.47212,0.9600291 -1.232564,2.5096171 -2.462803,2.9137641 V 10.01141 c 0.27843,-0.4804078 0.22408,-4.1982994 0.257709,-4.7405233 0.495512,-0.4300704 1.637349,0.00352 2.205094,-0.9154188 z"
           sodipodi:nodetypes="cccccc" /><path
           id="path5781"
           style="fill:#ffffff;stroke:#000000;stroke-width:0.260257"
           d="m 33.390941,4.3554679 v 5.526971 c -0.47212,0.9600291 -1.232564,2.5096171 -2.462803,2.9137641 -1.23024,-0.404147 -1.990684,-1.953735 -2.462804,-2.9137641 v -5.526971 c 0.567745,0.9189424 1.709581,0.4853483 2.205094,0.9154188 0.03363,0.5422239 -0.02072,4.2601155 0.25771,4.7405233 0.27843,-0.4804078 0.22408,-4.1982994 0.257709,-4.7405233 0.495512,-0.4300704 1.637349,0.00352 2.205094,-0.9154188 z"
           sodipodi:nodetypes="ccccccccc" /><path
           id="path5783"
           style="fill:#ffffff;stroke:#000000;stroke-width:0.260257"
           d="m 26.00253,-1.6494932 v 5.526971 c -0.472119,0.9600288 -1.232564,2.5096168 -2.462803,2.9137638 -1.23024,-0.404147 -1.990684,-1.953735 -2.462804,-2.9137638 v -5.526971 c 0.567745,0.91894244 1.709581,0.4853483 2.205095,0.91541884 0.03363,0.5422239 -0.02072,4.26011546 0.257709,4.74052296 0.27843,-0.4804075 0.22408,-4.19829906 0.257709,-4.74052296 0.495512,-0.43007044 1.637349,0.003524 2.205094,-0.91541884 z"
           sodipodi:nodetypes="ccccccccc" /><path
           id="path5785"
           style="fill:#ffffff;stroke:#000000;stroke-width:0.260257"
           d="m 21.076923,-1.6494932 v 5.526971 c -0.47212,0.9600288 -1.232564,2.5096168 -2.462804,2.9137638 -1.23024,-0.404147 -1.990684,-1.953735 -2.462804,-2.9137638 v -5.526971 c 0.567745,0.91894244 1.709581,0.4853483 2.205095,0.91541884 0.03363,0.5422239 -0.02072,4.26011546 0.257709,4.74052296 0.27843,-0.4804075 0.224081,-4.19829906 0.257709,-4.74052296 0.495513,-0.43007044 1.63735,0.003524 2.205095,-0.91541884 z"
           sodipodi:nodetypes="ccccccccc" /><path
           id="path5787"
           style="fill:#ffffff;stroke:#000000;stroke-width:0.260257"
           d="m 30.928137,-1.6494932 v 5.526971 C 30.456018,4.8375066 29.695573,6.3870946 28.465334,6.7912416 27.235094,6.3870946 26.47465,4.8375066 26.00253,3.8774778 v -5.526971 c 0.567745,0.91894244 1.709582,0.4853483 2.205095,0.91541884 0.03363,0.5422239 -0.02072,4.26011546 0.257709,4.74052296 0.278431,-0.4804075 0.22408,-4.19829906 0.257709,-4.74052296 0.495513,-0.43007044 1.637349,0.003524 2.205094,-0.91541884 z"
           sodipodi:nodetypes="ccccccccc" /></g></g></g></svg>
