<?xml version="1.0" encoding="UTF-8" standalone="no"?>
<!-- Created with Inkscape (http://www.inkscape.org/) -->

<svg
   xml:space="preserve"
   id="svg11947"
   version="1.1"
   viewBox="0 0 31.75 38.1"
   width="120"
   height="144"
   sodipodi:docname="AUT_Premstätten_COA.svg"
   inkscape:version="1.2 (dc2aeda, 2022-05-15)"
   xmlns:inkscape="http://www.inkscape.org/namespaces/inkscape"
   xmlns:sodipodi="http://sodipodi.sourceforge.net/DTD/sodipodi-0.dtd"
   xmlns="http://www.w3.org/2000/svg"
   xmlns:svg="http://www.w3.org/2000/svg"><sodipodi:namedview
     id="namedview198"
     pagecolor="#ffffff"
     bordercolor="#000000"
     borderopacity="0.25"
     inkscape:showpageshadow="2"
     inkscape:pageopacity="0.0"
     inkscape:pagecheckerboard="0"
     inkscape:deskcolor="#d1d1d1"
     inkscape:document-units="px"
     showgrid="false"
     inkscape:zoom="4"
     inkscape:cx="-11.125"
     inkscape:cy="109.25"
     inkscape:window-width="2560"
     inkscape:window-height="1369"
     inkscape:window-x="2728"
     inkscape:window-y="-8"
     inkscape:window-maximized="1"
     inkscape:current-layer="g2825"
     showguides="true" /><defs
     id="defs11944"><linearGradient
       id="Copper"
       inkscape:swatch="solid"><stop
         style="stop-color:#953d02;stop-opacity:1;"
         offset="0"
         id="stop1128" /></linearGradient><linearGradient
       id="Rose"
       inkscape:swatch="solid"><stop
         style="stop-color:#e63d6a;stop-opacity:1;"
         offset="0"
         id="stop1122" /></linearGradient><linearGradient
       id="Orange"
       inkscape:swatch="solid"><stop
         style="stop-color:#ed5f00;stop-opacity:1;"
         offset="0"
         id="stop1116" /></linearGradient><linearGradient
       id="Buff"
       inkscape:swatch="solid"><stop
         style="stop-color:#ddc595;stop-opacity:1;"
         offset="0"
         id="stop1110" /></linearGradient><linearGradient
       id="Bleu_Celeste"
       inkscape:swatch="solid"><stop
         style="stop-color:#3581b9;stop-opacity:1;"
         offset="0"
         id="stop1104" /></linearGradient><linearGradient
       id="Carnation"
       inkscape:swatch="solid"><stop
         style="stop-color:#ebbb9a;stop-opacity:1;"
         offset="0"
         id="stop1098" /></linearGradient><linearGradient
       id="Tenne"
       inkscape:swatch="solid"><stop
         style="stop-color:#bf7532;stop-opacity:1;"
         offset="0"
         id="stop1092" /></linearGradient><linearGradient
       id="Sanguine"
       inkscape:swatch="solid"><stop
         style="stop-color:#800000;stop-opacity:1;"
         offset="0"
         id="stop1086" /></linearGradient><linearGradient
       id="Murrey"
       inkscape:swatch="solid"><stop
         style="stop-color:#630727;stop-opacity:1;"
         offset="0"
         id="stop1080" /></linearGradient><linearGradient
       id="Vert"
       inkscape:swatch="solid"><stop
         style="stop-color:#225e28;stop-opacity:1;"
         offset="0"
         id="stop1074" /></linearGradient><linearGradient
       id="Sable"
       inkscape:swatch="solid"
       gradientTransform="scale(0.26458333)"><stop
         style="stop-color:#000000;stop-opacity:1;"
         offset="0"
         id="stop1068" /></linearGradient><linearGradient
       id="Purpure"
       inkscape:swatch="solid"><stop
         style="stop-color:#4e2f7a;stop-opacity:1;"
         offset="0"
         id="stop1062" /></linearGradient><linearGradient
       id="Gules"
       inkscape:swatch="solid"><stop
         style="stop-color:#d40000;stop-opacity:1;"
         offset="0"
         id="stop1056" /></linearGradient><linearGradient
       id="Azure"
       inkscape:swatch="solid"
       gradientTransform="matrix(1.0087299,0,0,1,-15.618387,0)"><stop
         style="stop-color:#003d8f;stop-opacity:1;"
         offset="0"
         id="stop1050" /></linearGradient><linearGradient
       id="Argent"
       inkscape:swatch="solid"
       gradientTransform="scale(0.26458333)"><stop
         style="stop-color:#ffffff;stop-opacity:1;"
         offset="0"
         id="stop1044" /></linearGradient><linearGradient
       id="Or"
       inkscape:swatch="solid"
       gradientTransform="scale(0.26458333)"><stop
         style="stop-color:#ffd42a;stop-opacity:1;"
         offset="0"
         id="stop1038" /></linearGradient></defs><g
     inkscape:groupmode="layer"
     id="layer1"
     inkscape:label="Wappen"><path
       d="M 2e-7,3.1e-6 V 22.225003 c 0,8.767498 7.107502,15.875 15.8749998,15.875 8.767498,0 15.875,-7.107502 15.875,-15.875 V 3.1e-6 Z"
       id="path11658"
       style="stroke-width:0.264583"
       inkscape:label="Schildrand" /><path
       id="rect11660"
       style="fill:#ff0000;fill-opacity:1;stroke-width:0.529167;stroke-dasharray:none"
       d="M 0.5291666,0.52916659 V 19.314584 22.225 c 0,8.474861 6.8709732,15.345833 15.3458334,15.345833 8.474861,0 15.345833,-6.870972 15.345833,-15.345833 V 19.314584 0.52916659 Z"
       inkscape:label="Schild" /><path
       id="rect1089"
       style="opacity:1;fill:#0f47af;stroke:none;stroke-width:0.265736;stroke-dasharray:none"
       d="M 15.875,0.52916667 V 22.179008 H 31.220833 V 19.314583 0.52916667 Z" /><path
       id="rect1095"
       style="opacity:1;fill:url(#Argent);stroke:none;stroke-width:0.26458333;stroke-dasharray:none"
       d="M 0.52916667 22.179008 L 0.52916667 22.225 C 0.52916667 30.699853 7.4001483 37.570833 15.875 37.570833 C 24.349853 37.570833 31.220833 30.699853 31.220833 22.225 L 31.220833 22.179008 L 0.52916667 22.179008 z " /><path
       id="path1110"
       style="opacity:1;fill:url(#Argent);stroke:none;stroke-width:0.265736;stroke-dasharray:none"
       d="M 0.52916683,0.52916667 V 22.179008 H 15.875 V 19.314583 0.52916667 Z" /><path
       style="opacity:1;fill:none;stroke:#000000;stroke-width:0.264583;stroke-dasharray:none"
       d="M 15.875,0.52916658 V 22.202004"
       id="path1168" /><g
       id="g1294"
       transform="matrix(0.51818092,0,0,-0.51818092,-56.971396,347.18914)"><g
         transform="translate(125.5831,666.31371)"
         id="g294"><path
           d="m 0,0 c 0,0 -1.46,-4.634 -2.539,-6.253 0.461,0.172 1.184,0.488 1.316,0.54 0.237,-0.632 -0.527,-1.5 -2.184,-4.183 0.5,-0.026 0.46,-0.197 1.125,0 -0.028,-0.159 -0.028,-1.447 -2.296,-4.84 1.539,0.052 2.513,0.645 2.513,0.645 0,0 -1.031,-2.184 -4.722,-6.21 1.762,-0.237 2.327,0.055 2.327,0.055 0,0 -1.093,-2.028 -3.073,-4.527 1.434,-0.066 2.855,0.08 2.855,0.08 0,0 -1.531,-2.329 -3.358,-4.814 4.524,-0.096 6.195,0.512 6.195,0.512 0,0 1.105,-3.393 -5.525,-6.84 4.973,0.995 6.748,1.483 6.669,1.066 0.171,-0.25 0.631,-2.644 0.631,-2.644 0,0 1.026,3.131 1.381,3.032 0.356,-0.098 1.014,-0.488 5.276,-0.559 -4.328,1.631 -5,2.749 -5,2.749 l -0.085,3.617 c 0,0 3.358,-3.104 6.911,-0.315 -1.103,0.499 -4.542,5.385 -4.542,5.385 0,0 2.382,-0.913 3.122,-0.558 -1.117,1.906 -4.07,6.038 -4.07,6.038 0,0 1.533,-0.452 2.071,-0.214 -1.582,1.35 -3.183,5.356 -3.183,5.356 0,0 0.908,-0.649 2.103,-0.678 -1.681,2.573 -2.8,6.294 -2.8,6.294 0,0 0.431,-0.315 1.565,-0.262 C 1.644,-6.752 0,0 0,0"
           id="path296"
           style="fill:#050301;fill-opacity:1;fill-rule:nonzero;stroke:none" /></g><g
         transform="translate(125.5831,664.79201)"
         id="g298"><path
           d="m 0,0 c 0,0 -1.25,-3.707 -1.618,-3.997 1.013,0.184 1.302,0.663 1.302,0.663 0,0 -0.128,-1.07 -2.235,-4.659 0.298,-0.171 1.367,0.908 1.367,0.908 0,0 -0.473,-1.653 -2.394,-5.577 0.765,0.136 1.32,0.352 1.813,0.681 0.923,0.615 1.327,1.427 1.327,1.427 0,0 -0.311,-0.653 -0.954,-1.714 -0.826,-1.363 -2.08,-3.61 -4.04,-5.8 1.658,-0.17 3.749,1.565 3.749,1.565 0,0 -0.868,-0.908 -1.685,-1.473 -0.473,-0.526 -2.433,-4.462 -2.893,-4.776 1.113,-0.038 1.494,-0.06 2.552,0.351 1.271,0.855 2.478,1.728 2.478,1.728 l -1.862,-1.579 -3.628,-5.064 c 0,0 4.748,-0.722 6.362,1.99 0.188,0.115 -0.68,-1.161 -0.68,-1.161 0,0 0.933,-4.908 -3.881,-6.874 3.762,0.573 4.328,0.718 4.328,0.718 l -0.079,1.565 0.185,-1.552 L 0,-35.083 c 0,0 0.702,2.599 0.976,2.585 0.274,-0.014 -0.373,1.103 -0.373,1.103 0,0 0.693,-0.789 0.86,-0.933 0.432,-0.42 2.952,-0.656 3.141,-0.697 -2.723,1.001 -3.354,2.158 -3.354,2.158 l -0.245,5.571 c 0,0 0.018,-0.624 0.443,-1.112 0.985,-1.125 3.321,-2.528 5.917,-1.026 0.063,-0.026 -2.958,3.62 -4.694,6.287 -1.027,0.592 -1.829,1.059 -1.829,1.059 0,0 3.787,-1.966 5.143,-1.716 -0.749,0.792 -2.816,3.896 -4.106,5.87 -0.357,0.338 -1.257,1.602 -0.564,0.786 0.693,-0.816 2.545,-1.08 2.545,-1.08 l -3.329,6.302 c 0,0 0.905,-0.882 2.152,-1.179 -0.651,0.86 -1.697,3.605 -2.051,5.972 -0.239,0.747 -0.277,0.378 -0.277,0.378 0,0 0.394,-0.063 1.381,-0.662 C 0.96,-4.148 0,0 0,0"
           id="path300"
           style="fill:#078930;fill-opacity:1;fill-rule:nonzero;stroke:none" /></g></g><path
       style="opacity:1;fill:none;stroke:#000000;stroke-width:0.265401;stroke-dasharray:none"
       d="M 0.42681023,22.202004 H 31.308567"
       id="path1451" /><path
       id="path246"
       style="fill:#da121a;fill-opacity:1;fill-rule:nonzero;stroke:none;stroke-width:0.573361"
       d="M 0.54518636 22.911263 C 0.59226049 23.980253 0.74812181 25.020913 1.0030396 26.022184 L 7.7705851 26.022184 L 7.7705851 22.911263 L 0.54518636 22.911263 z M 8.3457438 22.911263 L 8.3457438 26.022184 L 15.587162 26.022184 L 15.587162 22.911263 L 8.3457438 22.911263 z M 16.162838 22.911263 L 16.162838 26.022184 L 23.404256 26.022184 L 23.404256 22.911263 L 16.162838 22.911263 z M 23.979415 22.911263 L 23.979415 26.022184 L 30.74696 26.022184 C 31.001878 25.020913 31.15774 23.980253 31.204814 22.911263 L 23.979415 22.911263 z M 1.1627197 26.597343 C 1.4869825 27.689903 1.9291409 28.731853 2.4753011 29.707747 L 3.8622965 29.707747 L 3.8622965 26.597343 L 1.1627197 26.597343 z M 4.4374552 26.597343 L 4.4374552 29.707747 L 11.678874 29.707747 L 11.678874 26.597343 L 4.4374552 26.597343 z M 12.254549 26.597343 L 12.254549 29.707747 L 19.495451 29.707747 L 19.495451 26.597343 L 12.254549 26.597343 z M 20.071126 26.597343 L 20.071126 29.707747 L 27.312545 29.707747 L 27.312545 26.597343 L 20.071126 26.597343 z M 27.887703 26.597343 L 27.887703 29.707747 L 29.274699 29.707747 C 29.820859 28.731853 30.263018 27.689903 30.58728 26.597343 L 27.887703 26.597343 z M 2.8142985 30.283423 C 3.5226965 31.429038 4.3773853 32.474664 5.3526449 33.393827 L 7.7705851 33.393827 L 7.7705851 30.283423 L 2.8142985 30.283423 z M 8.3457438 30.283423 L 8.3457438 33.393827 L 15.587162 33.393827 L 15.587162 30.283423 L 8.3457438 30.283423 z M 16.162838 30.283423 L 16.162838 33.393827 L 23.404256 33.393827 L 23.404256 30.283423 L 16.162838 30.283423 z M 23.979415 30.283423 L 23.979415 33.393827 L 26.397355 33.393827 C 27.372615 32.474664 28.227304 31.429038 28.935701 30.283423 L 23.979415 30.283423 z M 5.9986003 33.968986 C 7.6355036 35.34706 9.5639719 36.389497 11.678874 36.989473 L 11.678874 33.968986 L 5.9986003 33.968986 z M 12.254549 33.968986 L 12.254549 37.07939 L 19.495451 37.07939 L 19.495451 33.968986 L 12.254549 33.968986 z M 20.071126 33.968986 L 20.071126 36.989473 C 22.186028 36.389497 24.114497 35.34706 25.7514 33.968986 L 20.071126 33.968986 z " /><g
       id="g2793"
       transform="translate(-0.33426927)"><ellipse
         style="opacity:1;fill:#fcdd09;stroke:url(#Sable);stroke-width:0.264583;stroke-dasharray:none"
         id="ellipse1718"
         cx="20.960356"
         cy="-17.469719"
         rx="0.97605455"
         ry="2.3491483"
         transform="scale(1,-1)" /><path
         id="path2739"
         style="color:#000000;fill:#000000;stroke-linecap:round;stroke-linejoin:round"
         d="m 20.083012,12.192021 c -0.06136,0.0034 -0.11411,0.0496 -0.123507,0.112654 -0.0071,0.04762 0.01377,0.09475 0.04961,0.123507 l -0.02997,0.204639 a 0.06615245,0.06615245 0 0 0 0.01757,0.05478 l 0.267684,0.281636 c -0.115005,0.102386 -0.183452,0.231059 -0.183451,0.37052 0,0.214752 0.161985,0.494066 0.406693,0.666626 l -0.05374,0.05633 a 0.06614584,0.06614584 0 0 0 0.0021,0.09353 0.06614584,0.06614584 0 0 0 0.09405,-0.0021 l 0.0739,-0.07752 c 0.10889,0.05544 0.229779,0.08888 0.356568,0.08888 0.127028,0 0.247516,-0.03378 0.356567,-0.0894 l 0.0739,0.07803 a 0.06614584,0.06614584 0 0 0 0.09405,0.0021 0.06614584,0.06614584 0 0 0 0.0021,-0.09353 l -0.05374,-0.05685 c 0.244382,-0.172593 0.406694,-0.451529 0.406694,-0.666109 0,-0.139461 -0.06845,-0.268134 -0.183452,-0.37052 l 0.267684,-0.281636 a 0.06615245,0.06615245 0 0 0 0.01757,-0.05478 l -0.02997,-0.204639 c 0.03584,-0.02876 0.05671,-0.07589 0.04961,-0.123507 -0.0094,-0.06305 -0.06215,-0.109254 -0.123506,-0.112654 -0.0088,-5e-4 -0.01787,3e-4 -0.02687,0.0015 -0.07206,0.01074 -0.122301,0.07832 -0.111621,0.150378 0.0071,0.04785 0.03972,0.08577 0.08165,0.102836 l 0.02584,0.1726 -0.257349,0.270268 c -0.155937,-0.09695 -0.362484,-0.155547 -0.589111,-0.155547 -0.226476,0 -0.433211,0.05871 -0.589112,0.155547 l -0.257348,-0.270268 0.02584,-0.1726 c 0.04193,-0.01707 0.07452,-0.05499 0.08165,-0.102836 0.01068,-0.07206 -0.03956,-0.139639 -0.111621,-0.150378 -0.009,-0.0013 -0.01811,-0.0021 -0.02687,-0.0015 z m -0.80977,0.991154 c -0.09606,6.18e-4 -0.1803,0.07257 -0.19482,0.170532 -0.0084,0.05698 0.009,0.112512 0.04341,0.154512 l -0.02532,0.171566 a 0.13230472,0.13230472 0 0 0 0.03514,0.111104 l 1.366325,1.437639 -1.794206,-0.771529 -0.02791,-0.104387 c 0.02967,-0.04541 0.04074,-0.102634 0.02584,-0.159163 -0.02785,-0.105677 -0.136689,-0.170476 -0.242363,-0.142627 -0.105677,0.02785 -0.170476,0.138239 -0.142627,0.243913 0.01465,0.05561 0.05342,0.100109 0.10232,0.125057 l 0.04444,0.167948 a 0.13230472,0.13230472 0 0 0 0.07597,0.08785 l 1.859318,0.798918 a 0.1322915,0.1322915 0 0 0 0.174149,-0.07028 0.1322915,0.1322915 0 0 0 -0.0072,-0.118339 0.1322915,0.1322915 0 0 0 0.147794,-0.02429 0.1322915,0.1322915 0 0 0 0.0041,-0.187586 l -1.349788,-1.419551 0.0155,-0.106454 c 0.04597,-0.0297 0.07924,-0.07784 0.08785,-0.135909 0.01603,-0.108101 -0.05985,-0.210321 -0.167948,-0.226343 -0.01013,-0.0015 -0.02004,-0.0026 -0.02997,-0.0026 z m 3.374471,0 c -0.0099,0 -0.01984,0.0011 -0.02997,0.0026 -0.108099,0.01602 -0.183979,0.118242 -0.167949,0.226343 0.0086,0.05807 0.04188,0.106209 0.08785,0.135909 l 0.0155,0.106454 -1.349788,1.419551 a 0.1322915,0.1322915 0 0 0 0.0041,0.187586 0.1322915,0.1322915 0 0 0 0.147795,0.02429 0.1322915,0.1322915 0 0 0 -0.0072,0.118339 0.1322915,0.1322915 0 0 0 0.17415,0.07028 l 1.859318,-0.798918 a 0.13230472,0.13230472 0 0 0 0.07596,-0.08785 l 0.04444,-0.167948 c 0.0489,-0.02495 0.08767,-0.06945 0.102319,-0.125057 0.02785,-0.105674 -0.03695,-0.216063 -0.142627,-0.243913 -0.105674,-0.02785 -0.214512,0.03695 -0.242362,0.142627 -0.0149,0.05653 -0.0038,0.113753 0.02584,0.159163 l -0.02791,0.104387 -1.794206,0.771529 1.366325,-1.437639 a 0.13230472,0.13230472 0 0 0 0.03514,-0.111104 l -0.02532,-0.171566 c 0.03441,-0.042 0.05181,-0.09753 0.04341,-0.154512 -0.01452,-0.09796 -0.09876,-0.169914 -0.19482,-0.170532 z m -2.583305,3.59823 a 0.13229166,0.13229166 0 0 0 -0.114721,0.09147 l -0.607198,1.861385 -0.102836,0.03721 c -0.04791,-0.0257 -0.106275,-0.03182 -0.161231,-0.01189 -0.102727,0.03727 -0.156123,0.151517 -0.118856,0.254248 0.03727,0.102727 0.150998,0.156124 0.253732,0.118856 0.05419,-0.01966 0.09559,-0.06153 0.116271,-0.112138 l 0.163298,-0.05943 a 0.13230489,0.13230489 0 0 0 0.0801,-0.08217 l 0.628903,-1.923914 a 0.13229166,0.13229166 0 0 0 -0.0863,-0.167948 0.13229166,0.13229166 0 0 0 -0.05116,-0.0057 z m 1.792139,0 a 0.13229166,0.13229166 0 0 0 -0.05116,0.0057 0.13229166,0.13229166 0 0 0 -0.0863,0.167948 l 0.628902,1.923914 a 0.13230489,0.13230489 0 0 0 0.0801,0.08217 l 0.163298,0.05943 c 0.02068,0.05061 0.06208,0.09248 0.116272,0.112138 0.102734,0.03727 0.216461,-0.01613 0.253731,-0.118856 0.03727,-0.102731 -0.01613,-0.216978 -0.118856,-0.254248 -0.05496,-0.01993 -0.11332,-0.01381 -0.16123,0.01189 l -0.102836,-0.03721 -0.607198,-1.861385 a 0.13229166,0.13229166 0 0 0 -0.114722,-0.09147 z" /><ellipse
         style="opacity:1;fill:#fcdd09;stroke:url(#Sable);stroke-width:0.264583;stroke-dasharray:none"
         id="path1716"
         cx="20.960356"
         cy="-14.764891"
         rx="0.97605455"
         ry="0.71963346"
         transform="scale(1,-1)" /><path
         id="rect1809"
         style="opacity:1;fill:#000000;stroke:none;stroke-width:0.264583;stroke-dasharray:none"
         d="m 20.060274,16.562813 a 0.97605455,2.3491483 0 0 0 -0.04806,0.350367 h 1.896008 a 0.97605455,2.3491483 0 0 0 -0.04754,-0.350367 z m -0.0739,0.770496 a 0.97605455,2.3491483 0 0 0 -0.0021,0.136426 0.97605455,2.3491483 0 0 0 0.0047,0.214457 h 1.943034 a 0.97605455,2.3491483 0 0 0 0.0047,-0.214457 0.97605455,2.3491483 0 0 0 -0.0021,-0.136426 z m 0.03411,0.771012 a 0.97605455,2.3491483 0 0 0 0.05426,0.350366 h 1.771468 a 0.97605455,2.3491483 0 0 0 0.05374,-0.350366 z m 0.15813,0.770496 a 0.97605455,2.3491483 0 0 0 0.133325,0.350366 H 21.6085 a 0.97605455,2.3491483 0 0 0 0.133325,-0.350366 z" /><g
         id="g1729"
         transform="translate(0.09193184)"
         style="fill:url(#Argent);stroke:#000000;stroke-width:0.264583;stroke-dasharray:none"><ellipse
           style="opacity:1;fill:url(#Argent);stroke:#000000;stroke-width:0.264583;stroke-dasharray:none"
           id="path1723"
           cx="5.5843797"
           cy="27.326899"
           rx="0.9411667"
           ry="1.955511"
           transform="rotate(-42.032295)" /><ellipse
           style="opacity:1;fill:url(#Argent);stroke:#000000;stroke-width:0.264583;stroke-dasharray:none"
           id="ellipse1725"
           cx="-25.416397"
           cy="-0.6179812"
           rx="0.9411667"
           ry="1.955511"
           transform="matrix(-0.74276755,-0.66954938,-0.66954938,0.74276755,0,0)" /></g></g><g
       id="g2809"
       transform="translate(-0.33426927,-9.6584526)"><ellipse
         style="opacity:1;fill:#fcdd09;stroke:url(#Sable);stroke-width:0.264583;stroke-dasharray:none"
         id="ellipse2795"
         cx="20.960356"
         cy="-17.469719"
         rx="0.97605455"
         ry="2.3491483"
         transform="scale(1,-1)" /><path
         id="path2797"
         style="color:#000000;fill:#000000;stroke-linecap:round;stroke-linejoin:round"
         d="m 20.083012,12.192021 c -0.06136,0.0034 -0.11411,0.0496 -0.123507,0.112654 -0.0071,0.04762 0.01377,0.09475 0.04961,0.123507 l -0.02997,0.204639 a 0.06615245,0.06615245 0 0 0 0.01757,0.05478 l 0.267684,0.281636 c -0.115005,0.102386 -0.183452,0.231059 -0.183451,0.37052 0,0.214752 0.161985,0.494066 0.406693,0.666626 l -0.05374,0.05633 a 0.06614584,0.06614584 0 0 0 0.0021,0.09353 0.06614584,0.06614584 0 0 0 0.09405,-0.0021 l 0.0739,-0.07752 c 0.10889,0.05544 0.229779,0.08888 0.356568,0.08888 0.127028,0 0.247516,-0.03378 0.356567,-0.0894 l 0.0739,0.07803 a 0.06614584,0.06614584 0 0 0 0.09405,0.0021 0.06614584,0.06614584 0 0 0 0.0021,-0.09353 l -0.05374,-0.05685 c 0.244382,-0.172593 0.406694,-0.451529 0.406694,-0.666109 0,-0.139461 -0.06845,-0.268134 -0.183452,-0.37052 l 0.267684,-0.281636 a 0.06615245,0.06615245 0 0 0 0.01757,-0.05478 l -0.02997,-0.204639 c 0.03584,-0.02876 0.05671,-0.07589 0.04961,-0.123507 -0.0094,-0.06305 -0.06215,-0.109254 -0.123506,-0.112654 -0.0088,-5e-4 -0.01787,3e-4 -0.02687,0.0015 -0.07206,0.01074 -0.122301,0.07832 -0.111621,0.150378 0.0071,0.04785 0.03972,0.08577 0.08165,0.102836 l 0.02584,0.1726 -0.257349,0.270268 c -0.155937,-0.09695 -0.362484,-0.155547 -0.589111,-0.155547 -0.226476,0 -0.433211,0.05871 -0.589112,0.155547 l -0.257348,-0.270268 0.02584,-0.1726 c 0.04193,-0.01707 0.07452,-0.05499 0.08165,-0.102836 0.01068,-0.07206 -0.03956,-0.139639 -0.111621,-0.150378 -0.009,-0.0013 -0.01811,-0.0021 -0.02687,-0.0015 z m -0.80977,0.991154 c -0.09606,6.18e-4 -0.1803,0.07257 -0.19482,0.170532 -0.0084,0.05698 0.009,0.112512 0.04341,0.154512 l -0.02532,0.171566 a 0.13230472,0.13230472 0 0 0 0.03514,0.111104 l 1.366325,1.437639 -1.794206,-0.771529 -0.02791,-0.104387 c 0.02967,-0.04541 0.04074,-0.102634 0.02584,-0.159163 -0.02785,-0.105677 -0.136689,-0.170476 -0.242363,-0.142627 -0.105677,0.02785 -0.170476,0.138239 -0.142627,0.243913 0.01465,0.05561 0.05342,0.100109 0.10232,0.125057 l 0.04444,0.167948 a 0.13230472,0.13230472 0 0 0 0.07597,0.08785 l 1.859318,0.798918 a 0.1322915,0.1322915 0 0 0 0.174149,-0.07028 0.1322915,0.1322915 0 0 0 -0.0072,-0.118339 0.1322915,0.1322915 0 0 0 0.147794,-0.02429 0.1322915,0.1322915 0 0 0 0.0041,-0.187586 l -1.349788,-1.419551 0.0155,-0.106454 c 0.04597,-0.0297 0.07924,-0.07784 0.08785,-0.135909 0.01603,-0.108101 -0.05985,-0.210321 -0.167948,-0.226343 -0.01013,-0.0015 -0.02004,-0.0026 -0.02997,-0.0026 z m 3.374471,0 c -0.0099,0 -0.01984,0.0011 -0.02997,0.0026 -0.108099,0.01602 -0.183979,0.118242 -0.167949,0.226343 0.0086,0.05807 0.04188,0.106209 0.08785,0.135909 l 0.0155,0.106454 -1.349788,1.419551 a 0.1322915,0.1322915 0 0 0 0.0041,0.187586 0.1322915,0.1322915 0 0 0 0.147795,0.02429 0.1322915,0.1322915 0 0 0 -0.0072,0.118339 0.1322915,0.1322915 0 0 0 0.17415,0.07028 l 1.859318,-0.798918 a 0.13230472,0.13230472 0 0 0 0.07596,-0.08785 l 0.04444,-0.167948 c 0.0489,-0.02495 0.08767,-0.06945 0.102319,-0.125057 0.02785,-0.105674 -0.03695,-0.216063 -0.142627,-0.243913 -0.105674,-0.02785 -0.214512,0.03695 -0.242362,0.142627 -0.0149,0.05653 -0.0038,0.113753 0.02584,0.159163 l -0.02791,0.104387 -1.794206,0.771529 1.366325,-1.437639 a 0.13230472,0.13230472 0 0 0 0.03514,-0.111104 l -0.02532,-0.171566 c 0.03441,-0.042 0.05181,-0.09753 0.04341,-0.154512 -0.01452,-0.09796 -0.09876,-0.169914 -0.19482,-0.170532 z m -2.583305,3.59823 a 0.13229166,0.13229166 0 0 0 -0.114721,0.09147 l -0.607198,1.861385 -0.102836,0.03721 c -0.04791,-0.0257 -0.106275,-0.03182 -0.161231,-0.01189 -0.102727,0.03727 -0.156123,0.151517 -0.118856,0.254248 0.03727,0.102727 0.150998,0.156124 0.253732,0.118856 0.05419,-0.01966 0.09559,-0.06153 0.116271,-0.112138 l 0.163298,-0.05943 a 0.13230489,0.13230489 0 0 0 0.0801,-0.08217 l 0.628903,-1.923914 a 0.13229166,0.13229166 0 0 0 -0.0863,-0.167948 0.13229166,0.13229166 0 0 0 -0.05116,-0.0057 z m 1.792139,0 a 0.13229166,0.13229166 0 0 0 -0.05116,0.0057 0.13229166,0.13229166 0 0 0 -0.0863,0.167948 l 0.628902,1.923914 a 0.13230489,0.13230489 0 0 0 0.0801,0.08217 l 0.163298,0.05943 c 0.02068,0.05061 0.06208,0.09248 0.116272,0.112138 0.102734,0.03727 0.216461,-0.01613 0.253731,-0.118856 0.03727,-0.102731 -0.01613,-0.216978 -0.118856,-0.254248 -0.05496,-0.01993 -0.11332,-0.01381 -0.16123,0.01189 l -0.102836,-0.03721 -0.607198,-1.861385 a 0.13229166,0.13229166 0 0 0 -0.114722,-0.09147 z" /><ellipse
         style="opacity:1;fill:#fcdd09;stroke:url(#Sable);stroke-width:0.264583;stroke-dasharray:none"
         id="ellipse2799"
         cx="20.960356"
         cy="-14.764891"
         rx="0.97605455"
         ry="0.71963346"
         transform="scale(1,-1)" /><path
         id="path2801"
         style="opacity:1;fill:#000000;stroke:none;stroke-width:0.264583;stroke-dasharray:none"
         d="m 20.060274,16.562813 a 0.97605455,2.3491483 0 0 0 -0.04806,0.350367 h 1.896008 a 0.97605455,2.3491483 0 0 0 -0.04754,-0.350367 z m -0.0739,0.770496 a 0.97605455,2.3491483 0 0 0 -0.0021,0.136426 0.97605455,2.3491483 0 0 0 0.0047,0.214457 h 1.943034 a 0.97605455,2.3491483 0 0 0 0.0047,-0.214457 0.97605455,2.3491483 0 0 0 -0.0021,-0.136426 z m 0.03411,0.771012 a 0.97605455,2.3491483 0 0 0 0.05426,0.350366 h 1.771468 a 0.97605455,2.3491483 0 0 0 0.05374,-0.350366 z m 0.15813,0.770496 a 0.97605455,2.3491483 0 0 0 0.133325,0.350366 H 21.6085 a 0.97605455,2.3491483 0 0 0 0.133325,-0.350366 z" /><g
         id="g2807"
         transform="translate(0.09193184)"
         style="fill:url(#Argent);stroke:#000000;stroke-width:0.264583;stroke-dasharray:none"><ellipse
           style="opacity:1;fill:url(#Argent);stroke:#000000;stroke-width:0.264583;stroke-dasharray:none"
           id="ellipse2803"
           cx="5.5843797"
           cy="27.326899"
           rx="0.9411667"
           ry="1.955511"
           transform="rotate(-42.032295)" /><ellipse
           style="opacity:1;fill:url(#Argent);stroke:#000000;stroke-width:0.264583;stroke-dasharray:none"
           id="ellipse2805"
           cx="-25.416397"
           cy="-0.6179812"
           rx="0.9411667"
           ry="1.955511"
           transform="matrix(-0.74276755,-0.66954938,-0.66954938,0.74276755,0,0)" /></g></g><g
       id="g2825"
       transform="translate(5.5093909,-4.8291965)"><ellipse
         style="opacity:1;fill:#fcdd09;stroke:url(#Sable);stroke-width:0.264583;stroke-dasharray:none"
         id="ellipse2811"
         cx="20.960356"
         cy="-17.469719"
         rx="0.97605455"
         ry="2.3491483"
         transform="scale(1,-1)" /><path
         id="path2813"
         style="color:#000000;fill:#000000;stroke-linecap:round;stroke-linejoin:round"
         d="m 20.083012,12.192021 c -0.06136,0.0034 -0.11411,0.0496 -0.123507,0.112654 -0.0071,0.04762 0.01377,0.09475 0.04961,0.123507 l -0.02997,0.204639 a 0.06615245,0.06615245 0 0 0 0.01757,0.05478 l 0.267684,0.281636 c -0.115005,0.102386 -0.183452,0.231059 -0.183451,0.37052 0,0.214752 0.161985,0.494066 0.406693,0.666626 l -0.05374,0.05633 a 0.06614584,0.06614584 0 0 0 0.0021,0.09353 0.06614584,0.06614584 0 0 0 0.09405,-0.0021 l 0.0739,-0.07752 c 0.10889,0.05544 0.229779,0.08888 0.356568,0.08888 0.127028,0 0.247516,-0.03378 0.356567,-0.0894 l 0.0739,0.07803 a 0.06614584,0.06614584 0 0 0 0.09405,0.0021 0.06614584,0.06614584 0 0 0 0.0021,-0.09353 l -0.05374,-0.05685 c 0.244382,-0.172593 0.406694,-0.451529 0.406694,-0.666109 0,-0.139461 -0.06845,-0.268134 -0.183452,-0.37052 l 0.267684,-0.281636 a 0.06615245,0.06615245 0 0 0 0.01757,-0.05478 l -0.02997,-0.204639 c 0.03584,-0.02876 0.05671,-0.07589 0.04961,-0.123507 -0.0094,-0.06305 -0.06215,-0.109254 -0.123506,-0.112654 -0.0088,-5e-4 -0.01787,3e-4 -0.02687,0.0015 -0.07206,0.01074 -0.122301,0.07832 -0.111621,0.150378 0.0071,0.04785 0.03972,0.08577 0.08165,0.102836 l 0.02584,0.1726 -0.257349,0.270268 c -0.155937,-0.09695 -0.362484,-0.155547 -0.589111,-0.155547 -0.226476,0 -0.433211,0.05871 -0.589112,0.155547 l -0.257348,-0.270268 0.02584,-0.1726 c 0.04193,-0.01707 0.07452,-0.05499 0.08165,-0.102836 0.01068,-0.07206 -0.03956,-0.139639 -0.111621,-0.150378 -0.009,-0.0013 -0.01811,-0.0021 -0.02687,-0.0015 z m -0.80977,0.991154 c -0.09606,6.18e-4 -0.1803,0.07257 -0.19482,0.170532 -0.0084,0.05698 0.009,0.112512 0.04341,0.154512 l -0.02532,0.171566 a 0.13230472,0.13230472 0 0 0 0.03514,0.111104 l 1.366325,1.437639 -1.794206,-0.771529 -0.02791,-0.104387 c 0.02967,-0.04541 0.04074,-0.102634 0.02584,-0.159163 -0.02785,-0.105677 -0.136689,-0.170476 -0.242363,-0.142627 -0.105677,0.02785 -0.170476,0.138239 -0.142627,0.243913 0.01465,0.05561 0.05342,0.100109 0.10232,0.125057 l 0.04444,0.167948 a 0.13230472,0.13230472 0 0 0 0.07597,0.08785 l 1.859318,0.798918 a 0.1322915,0.1322915 0 0 0 0.174149,-0.07028 0.1322915,0.1322915 0 0 0 -0.0072,-0.118339 0.1322915,0.1322915 0 0 0 0.147794,-0.02429 0.1322915,0.1322915 0 0 0 0.0041,-0.187586 l -1.349788,-1.419551 0.0155,-0.106454 c 0.04597,-0.0297 0.07924,-0.07784 0.08785,-0.135909 0.01603,-0.108101 -0.05985,-0.210321 -0.167948,-0.226343 -0.01013,-0.0015 -0.02004,-0.0026 -0.02997,-0.0026 z m 3.374471,0 c -0.0099,0 -0.01984,0.0011 -0.02997,0.0026 -0.108099,0.01602 -0.183979,0.118242 -0.167949,0.226343 0.0086,0.05807 0.04188,0.106209 0.08785,0.135909 l 0.0155,0.106454 -1.349788,1.419551 a 0.1322915,0.1322915 0 0 0 0.0041,0.187586 0.1322915,0.1322915 0 0 0 0.147795,0.02429 0.1322915,0.1322915 0 0 0 -0.0072,0.118339 0.1322915,0.1322915 0 0 0 0.17415,0.07028 l 1.859318,-0.798918 a 0.13230472,0.13230472 0 0 0 0.07596,-0.08785 l 0.04444,-0.167948 c 0.0489,-0.02495 0.08767,-0.06945 0.102319,-0.125057 0.02785,-0.105674 -0.03695,-0.216063 -0.142627,-0.243913 -0.105674,-0.02785 -0.214512,0.03695 -0.242362,0.142627 -0.0149,0.05653 -0.0038,0.113753 0.02584,0.159163 l -0.02791,0.104387 -1.794206,0.771529 1.366325,-1.437639 a 0.13230472,0.13230472 0 0 0 0.03514,-0.111104 l -0.02532,-0.171566 c 0.03441,-0.042 0.05181,-0.09753 0.04341,-0.154512 -0.01452,-0.09796 -0.09876,-0.169914 -0.19482,-0.170532 z m -2.583305,3.59823 a 0.13229166,0.13229166 0 0 0 -0.114721,0.09147 l -0.607198,1.861385 -0.102836,0.03721 c -0.04791,-0.0257 -0.106275,-0.03182 -0.161231,-0.01189 -0.102727,0.03727 -0.156123,0.151517 -0.118856,0.254248 0.03727,0.102727 0.150998,0.156124 0.253732,0.118856 0.05419,-0.01966 0.09559,-0.06153 0.116271,-0.112138 l 0.163298,-0.05943 a 0.13230489,0.13230489 0 0 0 0.0801,-0.08217 l 0.628903,-1.923914 a 0.13229166,0.13229166 0 0 0 -0.0863,-0.167948 0.13229166,0.13229166 0 0 0 -0.05116,-0.0057 z m 1.792139,0 a 0.13229166,0.13229166 0 0 0 -0.05116,0.0057 0.13229166,0.13229166 0 0 0 -0.0863,0.167948 l 0.628902,1.923914 a 0.13230489,0.13230489 0 0 0 0.0801,0.08217 l 0.163298,0.05943 c 0.02068,0.05061 0.06208,0.09248 0.116272,0.112138 0.102734,0.03727 0.216461,-0.01613 0.253731,-0.118856 0.03727,-0.102731 -0.01613,-0.216978 -0.118856,-0.254248 -0.05496,-0.01993 -0.11332,-0.01381 -0.16123,0.01189 l -0.102836,-0.03721 -0.607198,-1.861385 a 0.13229166,0.13229166 0 0 0 -0.114722,-0.09147 z" /><ellipse
         style="opacity:1;fill:#fcdd09;stroke:url(#Sable);stroke-width:0.264583;stroke-dasharray:none"
         id="ellipse2815"
         cx="20.960356"
         cy="-14.764891"
         rx="0.97605455"
         ry="0.71963346"
         transform="scale(1,-1)" /><path
         id="path2817"
         style="opacity:1;fill:#000000;stroke:none;stroke-width:0.264583;stroke-dasharray:none"
         d="m 20.060274,16.562813 a 0.97605455,2.3491483 0 0 0 -0.04806,0.350367 h 1.896008 a 0.97605455,2.3491483 0 0 0 -0.04754,-0.350367 z m -0.0739,0.770496 a 0.97605455,2.3491483 0 0 0 -0.0021,0.136426 0.97605455,2.3491483 0 0 0 0.0047,0.214457 h 1.943034 a 0.97605455,2.3491483 0 0 0 0.0047,-0.214457 0.97605455,2.3491483 0 0 0 -0.0021,-0.136426 z m 0.03411,0.771012 a 0.97605455,2.3491483 0 0 0 0.05426,0.350366 h 1.771468 a 0.97605455,2.3491483 0 0 0 0.05374,-0.350366 z m 0.15813,0.770496 a 0.97605455,2.3491483 0 0 0 0.133325,0.350366 H 21.6085 a 0.97605455,2.3491483 0 0 0 0.133325,-0.350366 z" /><g
         id="g2823"
         transform="translate(0.09193184)"
         style="fill:url(#Argent);stroke:#000000;stroke-width:0.264583;stroke-dasharray:none"><ellipse
           style="opacity:1;fill:url(#Argent);stroke:#000000;stroke-width:0.264583;stroke-dasharray:none"
           id="ellipse2819"
           cx="5.5843797"
           cy="27.326899"
           rx="0.9411667"
           ry="1.955511"
           transform="rotate(-42.032295)" /><ellipse
           style="opacity:1;fill:url(#Argent);stroke:#000000;stroke-width:0.264583;stroke-dasharray:none"
           id="ellipse2821"
           cx="-25.416397"
           cy="-0.6179812"
           rx="0.9411667"
           ry="1.955511"
           transform="matrix(-0.74276755,-0.66954938,-0.66954938,0.74276755,0,0)" /></g></g></g></svg>
