<svg xml:space="preserve" viewBox="0 0 31.75 38.1" width="120" height="144" xmlns="http://www.w3.org/2000/svg"><path d="M0 0v22.225C0 30.993 7.108 38.1 15.875 38.1S31.75 30.993 31.75 22.225V0z" style="stroke-width:.264583;opacity:1"/><path style="fill:#0f47af;fill-opacity:1;stroke-width:.529167;stroke-dasharray:none;opacity:1;stroke-linejoin:miter" d="M23.548.53v34.987c4.586-2.654 7.673-7.612 7.673-13.292V.529h-7.673z"/><path style="fill:#fff;fill-opacity:1;stroke-width:.529167;stroke-dasharray:none;opacity:1;stroke-linejoin:miter" d="M15.875.53v37.04c2.795 0 5.416-.747 7.673-2.053V.529h-7.673z"/><path style="opacity:1;fill:none;stroke:#000;stroke-width:.264583;stroke-linecap:butt;stroke-linejoin:miter;paint-order:fill markers stroke" d="M31.22 16.933H15.876M23.548 35.787V.529"/><path style="opacity:1;fill:#0f47af;stroke:#000;stroke-width:.264583;stroke-linecap:butt;stroke-linejoin:miter;paint-order:fill markers stroke" d="m19.711.53-3.836 16.403h7.673zM23.548 16.933h-7.673l3.836 20.154z"/><path style="opacity:1;fill:#fff;stroke:#000;stroke-width:.264583;stroke-linecap:butt;stroke-linejoin:miter;paint-order:fill markers stroke" d="M23.548 16.933 27.384.53l3.837 16.404z"/><path style="opacity:1;fill:#fff;stroke:#000;stroke-width:.264583;stroke-linecap:butt;stroke-linejoin:miter;paint-order:fill markers stroke" d="m23.548 16.933 3.836 15.442 3.837-15.442zM27.384.53v32.134"/><path style="fill:#da121a;fill-opacity:1;stroke-width:.529167;stroke-dasharray:none" d="M.53.53v21.695c0 8.475 6.87 15.346 15.345 15.346V.529z"/><g transform="translate(0 .438)"><circle style="fill:#fcdd09;stroke:#000;stroke-width:.264583;stroke-linecap:butt;stroke-linejoin:miter;paint-order:fill markers stroke" cx="8.202" cy="14.117" r="2.816"/><circle style="fill:#fcdd09;stroke:#000;stroke-width:.264583;stroke-linecap:butt;stroke-linejoin:miter;paint-order:fill markers stroke" cx="5.386" cy="19.05" r="2.816"/><circle style="fill:#fcdd09;stroke:#000;stroke-width:.264583;stroke-linecap:butt;stroke-linejoin:miter;paint-order:fill markers stroke" cx="11.018" cy="19.05" r="2.816"/></g><path style="opacity:1;fill:none;stroke:#000;stroke-width:.264583;stroke-linecap:butt;stroke-linejoin:miter;paint-order:fill markers stroke" d="M15.875 37.57V.53"/><path style="opacity:1;fill:#fcdd09;stroke:#000;stroke-width:.264583;stroke-linecap:butt;stroke-linejoin:miter;paint-order:fill markers stroke" d="M19.711 37.334V.529"/></svg>