<?xml version="1.0" encoding="UTF-8" standalone="no"?>
<!-- Created with Inkscape (http://www.inkscape.org/) -->

<svg
   xml:space="preserve"
   id="svg11947"
   version="1.1"
   viewBox="0 0 64.396267 75.194191"
   width="243.38747"
   height="284.19852"
   sodipodi:docname="AUT_Leibnitz_COA.svg"
   inkscape:version="1.2 (dc2aeda, 2022-05-15)"
   xmlns:inkscape="http://www.inkscape.org/namespaces/inkscape"
   xmlns:sodipodi="http://sodipodi.sourceforge.net/DTD/sodipodi-0.dtd"
   xmlns="http://www.w3.org/2000/svg"
   xmlns:svg="http://www.w3.org/2000/svg"><sodipodi:namedview
     id="namedview198"
     pagecolor="#ffffff"
     bordercolor="#000000"
     borderopacity="0.25"
     inkscape:showpageshadow="2"
     inkscape:pageopacity="0.0"
     inkscape:pagecheckerboard="0"
     inkscape:deskcolor="#d1d1d1"
     inkscape:document-units="px"
     showgrid="false"
     inkscape:zoom="1.9991732"
     inkscape:cx="136.30635"
     inkscape:cy="100.79167"
     inkscape:window-width="1390"
     inkscape:window-height="1205"
     inkscape:window-x="2353"
     inkscape:window-y="270"
     inkscape:window-maximized="0"
     inkscape:current-layer="layer1" /><defs
     id="defs11944"><linearGradient
       id="Copper"
       inkscape:swatch="solid"><stop
         style="stop-color:#953d02;stop-opacity:1;"
         offset="0"
         id="stop1128" /></linearGradient><linearGradient
       id="Rose"
       inkscape:swatch="solid"><stop
         style="stop-color:#e63d6a;stop-opacity:1;"
         offset="0"
         id="stop1122" /></linearGradient><linearGradient
       id="Orange"
       inkscape:swatch="solid"><stop
         style="stop-color:#ed5f00;stop-opacity:1;"
         offset="0"
         id="stop1116" /></linearGradient><linearGradient
       id="Buff"
       inkscape:swatch="solid"><stop
         style="stop-color:#ddc595;stop-opacity:1;"
         offset="0"
         id="stop1110" /></linearGradient><linearGradient
       id="Bleu_Celeste"
       inkscape:swatch="solid"><stop
         style="stop-color:#3581b9;stop-opacity:1;"
         offset="0"
         id="stop1104" /></linearGradient><linearGradient
       id="Carnation"
       inkscape:swatch="solid"><stop
         style="stop-color:#ebbb9a;stop-opacity:1;"
         offset="0"
         id="stop1098" /></linearGradient><linearGradient
       id="Tenne"
       inkscape:swatch="solid"><stop
         style="stop-color:#bf7532;stop-opacity:1;"
         offset="0"
         id="stop1092" /></linearGradient><linearGradient
       id="Sanguine"
       inkscape:swatch="solid"><stop
         style="stop-color:#800000;stop-opacity:1;"
         offset="0"
         id="stop1086" /></linearGradient><linearGradient
       id="Murrey"
       inkscape:swatch="solid"><stop
         style="stop-color:#630727;stop-opacity:1;"
         offset="0"
         id="stop1080" /></linearGradient><linearGradient
       id="Vert"
       inkscape:swatch="solid"><stop
         style="stop-color:#225e28;stop-opacity:1;"
         offset="0"
         id="stop1074" /></linearGradient><linearGradient
       id="Sable"
       inkscape:swatch="solid"><stop
         style="stop-color:#000000;stop-opacity:1;"
         offset="0"
         id="stop1068" /></linearGradient><linearGradient
       id="Purpure"
       inkscape:swatch="solid"><stop
         style="stop-color:#4e2f7a;stop-opacity:1;"
         offset="0"
         id="stop1062" /></linearGradient><linearGradient
       id="Gules"
       inkscape:swatch="solid"><stop
         style="stop-color:#d40000;stop-opacity:1;"
         offset="0"
         id="stop1056" /></linearGradient><linearGradient
       id="Azure"
       inkscape:swatch="solid"><stop
         style="stop-color:#003d8f;stop-opacity:1;"
         offset="0"
         id="stop1050" /></linearGradient><linearGradient
       id="Argent"
       inkscape:swatch="solid"><stop
         style="stop-color:#ffffff;stop-opacity:1;"
         offset="0"
         id="stop1044" /></linearGradient><linearGradient
       id="Or"
       inkscape:swatch="solid"><stop
         style="stop-color:#ffd42a;stop-opacity:1;"
         offset="0"
         id="stop1038" /></linearGradient><clipPath
       clipPathUnits="userSpaceOnUse"
       id="clipPath580"><path
         d="m 935.305,87.107 h 212.94 v 245.964 h -212.94 z"
         id="path578" /></clipPath><clipPath
       clipPathUnits="userSpaceOnUse"
       id="clipPath592"><path
         d="m 1041.822,316.559 h -0.094 -91.211 V 190.41 c 0,0 2.33,-84.066 91.211,-86.791 v 0 h 0.094 c 88.881,2.725 91.211,86.791 91.211,86.791 v 0 126.149 z"
         id="path590" /></clipPath><clipPath
       clipPathUnits="userSpaceOnUse"
       id="clipPath602"><path
         d="m 935.305,87.107 h 212.94 v 245.964 h -212.94 z"
         id="path600" /></clipPath><clipPath
       clipPathUnits="userSpaceOnUse"
       id="clipPath784"><path
         d="m 1041.822,316.559 h -0.094 -91.211 V 190.41 c 0,0 2.33,-84.066 91.211,-86.791 v 0 h 0.094 c 88.881,2.725 91.211,86.791 91.211,86.791 v 0 126.149 z"
         id="path782" /></clipPath><clipPath
       clipPathUnits="userSpaceOnUse"
       id="clipPath808-5"><path
         d="m 935.305,87.107 h 212.94 v 245.964 h -212.94 z"
         id="path806-7" /></clipPath></defs><g
     inkscape:groupmode="layer"
     id="layer1"
     inkscape:label="Wappen"
     transform="translate(16.32313,18.547097)"><g
       id="g1951"
       transform="matrix(0.35277777,0,0,-0.35277777,-351.63579,93.127952)"><g
         id="g574"><g
           id="g576"
           clip-path="url(#clipPath580)"><g
             id="g582"
             transform="translate(1041.7976,103.4103)"><path
               d="M 0,0 C 88.881,2.724 91.211,86.791 91.211,86.791 V 212.94 H 0 -0.093 -91.305 V 86.791 c 0,0 2.33,-84.067 91.212,-86.791 z"
               style="fill:#0066b3;fill-opacity:1;fill-rule:nonzero;stroke:none"
               id="path584" /></g></g></g><g
         id="g586"><g
           id="g588"
           clip-path="url(#clipPath592)"><path
             d="M 1133.009,103.41 H 950.493 v 57.628 h 182.516 z"
             style="fill:#00a94f;fill-opacity:1;fill-rule:nonzero;stroke:none"
             id="path594" /></g></g><g
         id="g596"><g
           id="g598"
           clip-path="url(#clipPath602)"><g
             id="g604"
             transform="translate(1097.5087,250.3885)"><path
               d="M 0,0 C -0.072,0 -0.142,0.03 -0.192,0.082 -0.243,0.134 -0.27,0.204 -0.268,0.276 l 0.026,0.952 c -0.177,0.076 -0.318,0.218 -0.395,0.4 -0.228,0.114 -0.373,0.326 -0.373,0.562 0,0.236 0.145,0.448 0.373,0.562 0.083,0.198 0.241,0.349 0.437,0.421 0.008,0.815 -0.028,1.5 -0.318,1.814 -0.139,0.15 -0.286,0.231 -0.474,0.258 -0.094,-0.02 -0.187,-0.031 -0.278,-0.031 -0.567,0 -1.046,0.348 -1.046,0.76 0,0.037 0.003,0.073 0.011,0.109 -0.213,0.114 -0.351,0.268 -0.412,0.458 -0.112,0.356 0.106,0.666 0.131,0.701 0.051,0.069 0.131,0.109 0.216,0.109 0.01,0 0.019,0 0.028,-0.002 0.095,-0.01 0.177,-0.069 0.217,-0.156 0.002,-0.005 0.092,-0.187 0.271,-0.187 h 0.004 c 0.131,0.123 0.297,0.193 0.47,0.193 0.122,0 0.239,-0.034 0.342,-0.096 0.147,0.104 0.33,0.163 0.522,0.163 0.05,0 0.097,-0.006 0.141,-0.017 -0.034,0.34 -0.083,0.814 -0.124,1.118 -0.066,-0.019 -0.136,-0.029 -0.207,-0.029 -0.412,0 -0.747,0.316 -0.747,0.704 0,0.023 0.001,0.045 0.004,0.067 -0.285,0.225 -0.363,0.577 -0.342,0.793 0.01,0.094 0.036,0.383 0.302,0.383 0.096,0 0.19,-0.055 0.238,-0.137 0.03,-0.059 0.084,-0.125 0.129,-0.163 0.088,0.054 0.189,0.083 0.292,0.083 0.093,0 0.18,-0.021 0.258,-0.061 0.087,0.062 0.192,0.099 0.305,0.103 -0.016,0.156 -0.067,0.63 -0.067,0.63 -0.057,0.523 0.392,0.884 0.584,1.038 0.023,0.019 0.041,0.033 0.053,0.044 0.05,0.048 0.121,0.078 0.191,0.078 h 0.008 c 0.072,-0.003 0.145,-0.029 0.194,-0.083 0.006,-0.005 0.025,-0.02 0.047,-0.038 0.192,-0.154 0.641,-0.516 0.585,-1.039 0,0 -0.052,-0.471 -0.068,-0.63 0.114,-0.004 0.219,-0.041 0.306,-0.103 0.078,0.04 0.165,0.061 0.257,0.061 0.102,0 0.201,-0.028 0.288,-0.081 0.05,0.036 0.099,0.091 0.114,0.123 0.039,0.106 0.143,0.175 0.257,0.175 0.266,0 0.294,-0.289 0.302,-0.384 C 2.805,9.683 2.725,9.325 2.443,9.107 2.446,9.086 2.447,9.064 2.447,9.042 2.447,8.654 2.112,8.338 1.7,8.338 1.629,8.338 1.559,8.348 1.492,8.367 1.451,8.065 1.403,7.592 1.368,7.249 1.413,7.26 1.46,7.266 1.509,7.266 c 0.192,0 0.375,-0.059 0.522,-0.163 0.104,0.062 0.22,0.096 0.342,0.096 0.173,0 0.339,-0.07 0.47,-0.193 h 0.005 c 0.181,0 0.27,0.185 0.271,0.187 0.039,0.087 0.121,0.146 0.216,0.156 0.009,0.002 0.019,0.002 0.028,0.002 0.086,0 0.166,-0.04 0.216,-0.109 C 3.605,7.207 3.823,6.897 3.71,6.541 3.65,6.351 3.512,6.197 3.299,6.083 3.306,6.048 3.311,6.011 3.311,5.974 3.311,5.562 2.831,5.214 2.263,5.214 2.172,5.214 2.08,5.225 1.985,5.245 1.798,5.218 1.651,5.137 1.512,4.987 1.221,4.673 1.186,3.988 1.194,3.173 1.389,3.101 1.548,2.95 1.631,2.752 1.859,2.638 2.004,2.426 2.004,2.19 2.004,1.954 1.859,1.742 1.631,1.628 1.553,1.446 1.413,1.304 1.236,1.228 L 1.261,0.276 C 1.264,0.204 1.237,0.134 1.186,0.082 1.135,0.03 1.066,0 0.993,0 Z"
               style="fill:#ffdd00;fill-opacity:1;fill-rule:nonzero;stroke:none"
               id="path606" /></g><g
             id="g608"
             transform="translate(1098.0055,262.5618)"><path
               d="m 0,0 c -0.142,0 -0.278,-0.056 -0.378,-0.156 l -0.037,-0.03 C -0.621,-0.352 -1.17,-0.794 -1.098,-1.463 l 0.024,-0.225 c 0.007,-0.057 0.013,-0.111 0.019,-0.166 -0.013,-0.005 -0.025,-0.011 -0.036,-0.016 -0.075,0.021 -0.154,0.033 -0.235,0.033 -0.07,0 -0.139,-0.009 -0.206,-0.026 -0.1,0.149 -0.274,0.243 -0.453,0.243 -0.119,0 -0.514,-0.046 -0.57,-0.626 -0.029,-0.305 0.081,-0.675 0.338,-0.936 0.027,-0.505 0.458,-0.909 0.988,-0.921 0.021,-0.173 0.041,-0.367 0.06,-0.546 -0.134,-0.018 -0.262,-0.058 -0.379,-0.117 -0.103,0.039 -0.215,0.06 -0.328,0.06 -0.182,0 -0.356,-0.053 -0.508,-0.151 0,0 -10e-4,0.001 -10e-4,0.002 -0.078,0.173 -0.239,0.285 -0.429,0.305 -0.017,0.002 -0.035,0.003 -0.053,0.003 -0.17,0 -0.33,-0.086 -0.432,-0.226 -0.055,-0.074 -0.32,-0.469 -0.17,-0.94 0.05,-0.157 0.158,-0.352 0.388,-0.518 0.021,-0.552 0.603,-0.996 1.315,-0.996 0.092,0 0.186,0.008 0.28,0.026 0.085,-0.019 0.175,-0.06 0.274,-0.167 0.208,-0.225 0.248,-0.816 0.248,-1.463 -0.157,-0.095 -0.288,-0.232 -0.376,-0.399 -0.269,-0.168 -0.435,-0.445 -0.435,-0.754 0,-0.309 0.168,-0.588 0.438,-0.755 0.079,-0.145 0.192,-0.267 0.326,-0.359 -0.012,-0.475 -0.022,-0.79 -0.022,-0.791 -0.004,-0.145 0.05,-0.285 0.151,-0.39 0.101,-0.104 0.24,-0.163 0.385,-0.163 H 0 0.497 c 0.145,0 0.284,0.059 0.385,0.163 0.101,0.105 0.155,0.245 0.151,0.39 0,10e-4 -0.01,0.316 -0.022,0.791 0.134,0.092 0.246,0.214 0.326,0.359 0.27,0.167 0.438,0.446 0.438,0.755 0,0.309 -0.167,0.586 -0.435,0.754 -0.088,0.167 -0.219,0.304 -0.376,0.399 0,0.647 0.041,1.238 0.248,1.463 0.099,0.107 0.19,0.148 0.274,0.167 0.094,-0.018 0.188,-0.026 0.28,-0.026 0.713,0 1.294,0.444 1.315,0.996 0.23,0.166 0.338,0.361 0.388,0.518 0.15,0.471 -0.115,0.866 -0.17,0.94 -0.101,0.139 -0.263,0.219 -0.432,0.219 -0.019,0 -0.038,-10e-4 -0.056,-0.003 -0.186,-0.019 -0.347,-0.133 -0.427,-0.3 -0.152,0.098 -0.327,0.151 -0.508,0.151 -0.113,0 -0.224,-0.021 -0.328,-0.06 -0.117,0.059 -0.245,0.099 -0.379,0.117 0.019,0.179 0.039,0.373 0.06,0.546 0.53,0.012 0.961,0.416 0.988,0.921 0.257,0.261 0.367,0.631 0.338,0.936 -0.056,0.58 -0.451,0.626 -0.57,0.626 -0.18,0 -0.353,-0.094 -0.453,-0.243 -0.067,0.017 -0.136,0.026 -0.206,0.026 -0.081,0 -0.16,-0.012 -0.235,-0.033 -0.011,0.005 -0.024,0.011 -0.035,0.016 0.005,0.055 0.011,0.109 0.017,0.166 l 0.025,0.225 c 0.072,0.669 -0.477,1.111 -0.683,1.277 l -0.037,0.03 C 0.278,-0.056 0.142,0 0,0 M 0,-0.537 C 0.076,-0.621 0.614,-0.946 0.564,-1.405 0.522,-1.799 0.506,-1.926 0.443,-2.577 0.439,-2.596 0.437,-2.616 0.437,-2.636 c 0.002,0.02 0.004,0.04 0.006,0.059 0.028,0.14 0.151,0.246 0.299,0.246 0.154,0 0.275,-0.115 0.296,-0.263 0.037,0.126 0.149,0.221 0.288,0.221 0.094,0 0.175,-0.045 0.231,-0.112 0.014,0 0.027,0.002 0.04,0.002 0.152,0 0.347,0.228 0.381,0.321 0,0 0.003,0.005 0.007,0.005 0.008,0 0.024,-0.02 0.035,-0.14 C 2.037,-2.475 1.953,-2.797 1.665,-2.924 1.651,-2.93 1.642,-2.936 1.63,-2.943 1.661,-3 1.682,-3.063 1.682,-3.131 c 0,-0.241 -0.214,-0.436 -0.478,-0.436 -0.158,0 -0.29,0.074 -0.378,0.18 C 0.818,-3.396 0.808,-3.406 0.801,-3.415 0.727,-3.512 0.598,-5.033 0.531,-5.599 c 0.095,0.163 0.251,0.424 0.482,0.424 0.225,0 0.414,-0.111 0.512,-0.268 0.082,0.119 0.205,0.2 0.351,0.2 0.138,0 0.257,-0.072 0.34,-0.18 l -0.001,0.002 c 0.048,-0.01 0.093,-0.015 0.136,-0.015 0.36,0 0.516,0.345 0.516,0.345 0,0 0.423,-0.575 -0.39,-0.846 h -0.08 c 0.092,-0.074 0.148,-0.164 0.148,-0.263 0,-0.248 -0.353,-0.491 -0.779,-0.491 -0.093,0 -0.18,0.014 -0.262,0.035 C 1.287,-6.678 1.047,-6.757 0.818,-7.004 0.443,-7.41 0.415,-8.178 0.431,-9.222 c 0.001,0 0.001,0 0.002,0 0.244,0 0.437,-0.175 0.484,-0.403 0.186,-0.052 0.321,-0.191 0.321,-0.359 0,-0.167 -0.135,-0.306 -0.321,-0.358 -0.044,-0.218 -0.224,-0.383 -0.452,-0.398 0.017,-0.677 0.032,-1.165 0.032,-1.165 H 0 -0.497 c 0,0 0.015,0.488 0.032,1.165 -0.228,0.015 -0.407,0.18 -0.452,0.398 -0.186,0.052 -0.321,0.191 -0.321,0.358 0,0.168 0.135,0.307 0.321,0.359 0.047,0.228 0.24,0.403 0.484,0.403 0.001,0 0.001,0 0.002,0 0.016,1.044 -0.012,1.812 -0.387,2.218 -0.229,0.247 -0.469,0.326 -0.685,0.348 -0.083,-0.021 -0.17,-0.035 -0.263,-0.035 -0.426,0 -0.779,0.243 -0.779,0.491 0,0.099 0.056,0.189 0.148,0.263 h -0.08 c -0.813,0.271 -0.39,0.846 -0.39,0.846 0,0 0.156,-0.345 0.516,-0.345 0.043,0 0.088,0.005 0.136,0.015 v -0.002 c 0.082,0.108 0.201,0.18 0.339,0.18 0.146,0 0.269,-0.081 0.351,-0.2 0.098,0.157 0.287,0.268 0.512,0.268 0.231,0 0.387,-0.261 0.482,-0.424 -0.067,0.566 -0.195,2.087 -0.271,2.184 -0.006,0.009 -0.016,0.019 -0.024,0.028 -0.088,-0.106 -0.22,-0.18 -0.377,-0.18 -0.265,0 -0.479,0.195 -0.479,0.436 0,0.068 0.021,0.131 0.052,0.188 -0.012,0.007 -0.021,0.013 -0.035,0.019 -0.288,0.127 -0.372,0.449 -0.355,0.627 0.011,0.12 0.027,0.14 0.035,0.14 0.005,0 0.007,-0.005 0.007,-0.005 0.034,-0.093 0.229,-0.321 0.381,-0.321 0.013,0 0.026,-0.002 0.04,-0.002 0.056,0.067 0.137,0.112 0.231,0.112 0.138,0 0.251,-0.095 0.288,-0.221 0.021,0.148 0.142,0.263 0.296,0.263 0.148,0 0.271,-0.106 0.299,-0.246 0.002,-0.019 0.004,-0.039 0.006,-0.059 0,0.02 -0.002,0.04 -0.006,0.059 -0.063,0.651 -0.079,0.778 -0.121,1.172 -0.05,0.459 0.488,0.784 0.564,0.868"
               style="fill:#000000;fill-opacity:1;fill-rule:nonzero;stroke:none"
               id="path610" /></g><g
             id="g612"
             transform="translate(991.3085,250.3885)"><path
               d="M 0,0 C -0.073,0 -0.142,0.03 -0.193,0.082 -0.244,0.134 -0.27,0.204 -0.268,0.276 l 0.026,0.952 c -0.178,0.076 -0.319,0.218 -0.395,0.4 -0.228,0.114 -0.373,0.326 -0.373,0.562 0,0.236 0.145,0.448 0.373,0.562 0.082,0.198 0.241,0.349 0.437,0.421 0.007,0.815 -0.028,1.5 -0.319,1.814 -0.138,0.15 -0.285,0.231 -0.473,0.258 -0.095,-0.02 -0.186,-0.031 -0.278,-0.031 -0.568,0 -1.047,0.348 -1.047,0.76 0,0.037 0.004,0.073 0.011,0.109 -0.212,0.114 -0.35,0.268 -0.411,0.458 -0.113,0.356 0.105,0.666 0.131,0.701 0.05,0.069 0.131,0.109 0.216,0.109 0.009,0 0.019,0 0.028,-0.002 0.095,-0.01 0.177,-0.069 0.217,-0.156 0.002,-0.005 0.092,-0.187 0.271,-0.187 h 0.004 c 0.131,0.123 0.297,0.193 0.47,0.193 0.122,0 0.238,-0.034 0.342,-0.096 0.147,0.104 0.33,0.163 0.522,0.163 0.05,0 0.097,-0.006 0.141,-0.017 -0.034,0.341 -0.083,0.815 -0.123,1.118 -0.067,-0.019 -0.138,-0.029 -0.209,-0.029 -0.412,0 -0.747,0.316 -0.747,0.704 0,0.023 0.002,0.045 0.004,0.067 -0.284,0.225 -0.361,0.577 -0.341,0.793 0.009,0.094 0.036,0.383 0.303,0.383 0.094,0 0.188,-0.055 0.237,-0.136 0.03,-0.06 0.084,-0.126 0.129,-0.164 0.088,0.054 0.188,0.083 0.292,0.083 0.092,0 0.18,-0.021 0.257,-0.061 0.087,0.062 0.193,0.099 0.306,0.103 -0.016,0.157 -0.068,0.63 -0.068,0.63 -0.056,0.523 0.393,0.884 0.585,1.039 0.023,0.018 0.041,0.032 0.053,0.043 0.05,0.048 0.121,0.079 0.19,0.079 0.003,0 0.007,-10e-4 0.01,-10e-4 0.072,-0.003 0.145,-0.03 0.193,-0.084 0.006,-0.005 0.025,-0.019 0.047,-0.037 0.192,-0.155 0.641,-0.516 0.585,-1.039 0,0 -0.052,-0.473 -0.068,-0.63 0.114,-0.004 0.219,-0.041 0.306,-0.103 0.078,0.04 0.165,0.061 0.257,0.061 0.102,0 0.201,-0.028 0.288,-0.081 0.05,0.036 0.099,0.091 0.114,0.124 0.039,0.106 0.143,0.174 0.257,0.174 0.266,0 0.293,-0.289 0.302,-0.384 C 2.805,9.683 2.725,9.325 2.443,9.107 2.446,9.086 2.447,9.064 2.447,9.042 2.447,8.654 2.112,8.338 1.7,8.338 1.629,8.338 1.559,8.348 1.492,8.367 1.451,8.064 1.403,7.59 1.368,7.249 1.412,7.26 1.46,7.266 1.509,7.266 c 0.192,0 0.375,-0.059 0.522,-0.163 0.104,0.062 0.221,0.096 0.342,0.096 0.173,0 0.339,-0.07 0.47,-0.193 h 0.004 c 0.182,0 0.271,0.185 0.272,0.187 C 3.158,7.28 3.24,7.339 3.335,7.349 3.344,7.351 3.354,7.351 3.363,7.351 3.448,7.351 3.529,7.311 3.58,7.242 3.605,7.207 3.823,6.897 3.71,6.541 3.649,6.351 3.511,6.197 3.298,6.083 3.306,6.047 3.31,6.011 3.31,5.974 3.31,5.562 2.83,5.214 2.263,5.214 2.17,5.214 2.08,5.225 1.985,5.245 1.798,5.218 1.65,5.137 1.512,4.987 1.221,4.673 1.186,3.988 1.193,3.173 1.389,3.101 1.547,2.95 1.631,2.752 1.858,2.638 2.003,2.426 2.003,2.19 2.003,1.954 1.858,1.742 1.631,1.628 1.554,1.446 1.412,1.304 1.235,1.228 L 1.262,0.276 C 1.264,0.204 1.236,0.134 1.186,0.082 1.135,0.03 1.066,0 0.993,0 Z"
               style="fill:#ffdd00;fill-opacity:1;fill-rule:nonzero;stroke:none"
               id="path614" /></g><g
             id="g616"
             transform="translate(991.8049,262.5618)"><path
               d="m 0,0 c -0.142,0 -0.278,-0.056 -0.378,-0.156 l -0.037,-0.03 C -0.621,-0.352 -1.17,-0.794 -1.098,-1.463 l 0.025,-0.225 c 0.006,-0.057 0.012,-0.111 0.018,-0.166 -0.012,-0.005 -0.024,-0.011 -0.036,-0.016 -0.075,0.021 -0.154,0.033 -0.235,0.033 -0.07,0 -0.139,-0.009 -0.206,-0.026 -0.1,0.149 -0.273,0.243 -0.453,0.243 -0.119,0 -0.514,-0.046 -0.569,-0.626 -0.03,-0.305 0.081,-0.675 0.337,-0.936 0.028,-0.505 0.458,-0.909 0.988,-0.921 0.021,-0.173 0.042,-0.367 0.06,-0.546 -0.134,-0.018 -0.262,-0.058 -0.378,-0.117 -0.105,0.039 -0.215,0.06 -0.329,0.06 -0.181,0 -0.356,-0.053 -0.507,-0.151 -0.081,0.167 -0.242,0.281 -0.428,0.3 -0.018,0.002 -0.037,0.003 -0.056,0.003 -0.169,0 -0.33,-0.08 -0.432,-0.219 -0.055,-0.074 -0.32,-0.469 -0.17,-0.94 0.05,-0.157 0.158,-0.352 0.388,-0.518 0.021,-0.552 0.603,-0.996 1.315,-0.996 0.092,0 0.186,0.008 0.281,0.026 0.084,-0.019 0.174,-0.06 0.273,-0.167 0.208,-0.225 0.248,-0.816 0.248,-1.463 -0.157,-0.095 -0.288,-0.232 -0.376,-0.399 -0.268,-0.168 -0.435,-0.445 -0.435,-0.754 0,-0.309 0.168,-0.588 0.438,-0.755 0.08,-0.145 0.192,-0.267 0.326,-0.359 -0.012,-0.475 -0.022,-0.79 -0.022,-0.791 -0.004,-0.145 0.051,-0.285 0.151,-0.39 0.101,-0.104 0.24,-0.163 0.386,-0.163 H 0 0.497 c 0.145,0 0.284,0.059 0.385,0.163 0.101,0.105 0.156,0.245 0.151,0.39 0,10e-4 -0.009,0.316 -0.022,0.791 0.135,0.092 0.247,0.214 0.326,0.359 0.27,0.167 0.438,0.446 0.438,0.755 0,0.309 -0.166,0.586 -0.435,0.754 -0.088,0.167 -0.218,0.304 -0.376,0.399 0.001,0.647 0.041,1.238 0.249,1.463 0.098,0.107 0.189,0.148 0.273,0.167 0.094,-0.018 0.188,-0.026 0.28,-0.026 0.712,0 1.294,0.444 1.316,0.996 0.23,0.166 0.338,0.361 0.388,0.518 0.149,0.471 -0.116,0.866 -0.171,0.94 -0.102,0.139 -0.263,0.219 -0.432,0.219 -0.019,0 -0.038,-10e-4 -0.056,-0.003 -0.185,-0.019 -0.346,-0.133 -0.427,-0.3 -0.152,0.098 -0.326,0.151 -0.508,0.151 -0.113,0 -0.224,-0.021 -0.328,-0.06 -0.117,0.059 -0.245,0.099 -0.379,0.117 0.019,0.179 0.04,0.373 0.06,0.546 0.53,0.012 0.961,0.416 0.988,0.921 0.257,0.261 0.367,0.631 0.338,0.936 -0.056,0.58 -0.451,0.626 -0.57,0.626 -0.179,0 -0.353,-0.094 -0.453,-0.243 -0.066,0.017 -0.135,0.026 -0.206,0.026 -0.081,0 -0.16,-0.012 -0.235,-0.033 -0.011,0.005 -0.023,0.011 -0.036,0.016 0.006,0.055 0.012,0.109 0.019,0.166 l 0.024,0.225 c 0.072,0.669 -0.477,1.111 -0.683,1.277 l -0.037,0.03 C 0.278,-0.056 0.142,0 0,0 M 0,-0.537 C 0.076,-0.621 0.614,-0.946 0.565,-1.405 0.522,-1.799 0.506,-1.926 0.443,-2.577 0.439,-2.596 0.437,-2.616 0.437,-2.636 c 0.002,0.02 0.005,0.04 0.006,0.059 0.028,0.14 0.151,0.246 0.299,0.246 0.154,0 0.275,-0.115 0.297,-0.263 0.037,0.126 0.149,0.221 0.287,0.221 0.094,0 0.175,-0.045 0.232,-0.112 0.013,0 0.026,0.002 0.039,0.002 0.153,0 0.348,0.228 0.381,0.321 0,0 0.003,0.005 0.007,0.005 0.009,0 0.024,-0.02 0.036,-0.14 C 2.037,-2.475 1.953,-2.797 1.665,-2.924 1.651,-2.93 1.643,-2.936 1.63,-2.943 1.661,-3 1.682,-3.063 1.682,-3.131 c 0,-0.241 -0.214,-0.436 -0.478,-0.436 -0.158,0 -0.29,0.074 -0.377,0.18 C 0.818,-3.396 0.808,-3.406 0.802,-3.415 0.727,-3.512 0.598,-5.033 0.531,-5.599 c 0.095,0.163 0.252,0.424 0.482,0.424 0.225,0 0.414,-0.111 0.512,-0.268 0.082,0.119 0.205,0.2 0.351,0.2 0.139,0 0.257,-0.072 0.34,-0.18 l -0.001,0.002 c 0.048,-0.01 0.093,-0.015 0.136,-0.015 0.36,0 0.516,0.345 0.516,0.345 0,0 0.423,-0.575 -0.389,-0.846 H 2.397 C 2.49,-6.011 2.546,-6.101 2.546,-6.2 c 0,-0.248 -0.354,-0.491 -0.78,-0.491 -0.092,0 -0.18,0.014 -0.263,0.035 C 1.288,-6.678 1.047,-6.757 0.818,-7.004 0.443,-7.41 0.415,-8.178 0.431,-9.222 c 0.001,0 0.001,0 0.002,0 0.244,0 0.437,-0.175 0.485,-0.403 0.185,-0.052 0.32,-0.191 0.32,-0.359 0,-0.167 -0.135,-0.306 -0.32,-0.358 -0.045,-0.218 -0.225,-0.383 -0.453,-0.398 0.017,-0.677 0.032,-1.165 0.032,-1.165 H 0 -0.496 c 0,0 0.014,0.488 0.031,1.165 -0.228,0.015 -0.407,0.18 -0.452,0.398 -0.186,0.052 -0.321,0.191 -0.321,0.358 0,0.168 0.135,0.307 0.321,0.359 0.047,0.228 0.24,0.403 0.484,0.403 0.001,0 0.001,0 0.002,0 0.017,1.044 -0.012,1.812 -0.387,2.218 -0.229,0.247 -0.469,0.326 -0.685,0.348 -0.082,-0.021 -0.17,-0.035 -0.263,-0.035 -0.426,0 -0.779,0.243 -0.779,0.491 0,0.099 0.056,0.189 0.148,0.263 h -0.08 c -0.813,0.271 -0.39,0.846 -0.39,0.846 0,0 0.156,-0.345 0.516,-0.345 0.043,0 0.088,0.005 0.136,0.015 l -0.001,-0.002 c 0.083,0.108 0.202,0.18 0.34,0.18 0.146,0 0.269,-0.081 0.351,-0.2 0.098,0.157 0.287,0.268 0.512,0.268 0.231,0 0.388,-0.261 0.483,-0.424 -0.068,0.566 -0.197,2.087 -0.271,2.184 -0.006,0.009 -0.017,0.019 -0.025,0.028 -0.087,-0.106 -0.22,-0.18 -0.377,-0.18 -0.265,0 -0.479,0.195 -0.479,0.436 0,0.068 0.021,0.131 0.052,0.188 -0.012,0.007 -0.02,0.013 -0.034,0.019 -0.289,0.127 -0.373,0.449 -0.356,0.627 0.011,0.12 0.027,0.14 0.035,0.14 0.005,0 0.007,-0.005 0.007,-0.005 0.034,-0.093 0.229,-0.321 0.381,-0.321 0.014,0 0.026,-0.002 0.04,-0.002 0.056,0.067 0.137,0.112 0.231,0.112 0.139,0 0.251,-0.095 0.288,-0.221 0.021,0.148 0.142,0.263 0.296,0.263 0.148,0 0.271,-0.106 0.299,-0.246 0.002,-0.019 0.004,-0.039 0.006,-0.059 0,0.02 -0.002,0.04 -0.006,0.059 -0.063,0.651 -0.079,0.778 -0.121,1.172 -0.049,0.459 0.488,0.784 0.564,0.868"
               style="fill:#000000;fill-opacity:1;fill-rule:nonzero;stroke:none"
               id="path618" /></g><g
             id="g620"
             transform="translate(1040.3478,299.4741)"><path
               d="M 0,0 C -0.073,0 -0.142,0.029 -0.193,0.082 -0.244,0.134 -0.27,0.204 -0.268,0.276 l 0.025,0.953 C -0.417,1.307 -0.56,1.449 -0.636,1.628 -0.865,1.742 -1.01,1.954 -1.01,2.19 c 0,0.236 0.145,0.448 0.373,0.562 0.082,0.198 0.241,0.349 0.437,0.421 0.007,0.815 -0.028,1.5 -0.319,1.814 -0.138,0.15 -0.285,0.23 -0.473,0.258 -0.095,-0.02 -0.186,-0.03 -0.278,-0.03 -0.568,0 -1.047,0.347 -1.047,0.759 0,0.037 0.004,0.073 0.011,0.109 -0.213,0.115 -0.35,0.268 -0.411,0.459 -0.112,0.354 0.106,0.665 0.131,0.7 0.051,0.069 0.131,0.109 0.216,0.109 0.009,0 0.019,-0.001 0.028,-0.002 0.095,-0.01 0.177,-0.069 0.216,-0.156 0.003,-0.005 0.094,-0.188 0.272,-0.188 h 0.004 c 0.131,0.125 0.297,0.194 0.47,0.194 0.122,0 0.239,-0.034 0.342,-0.096 0.147,0.104 0.33,0.163 0.521,0.163 0.05,0 0.097,-0.006 0.142,-0.017 -0.034,0.342 -0.083,0.815 -0.124,1.118 -0.067,-0.019 -0.137,-0.029 -0.208,-0.029 -0.412,0 -0.746,0.316 -0.746,0.704 0,0.023 0.001,0.045 0.003,0.067 -0.284,0.225 -0.361,0.577 -0.341,0.793 0.009,0.094 0.036,0.383 0.303,0.383 0.093,0 0.188,-0.054 0.236,-0.135 0.03,-0.061 0.085,-0.127 0.13,-0.165 0.088,0.054 0.188,0.083 0.293,0.083 0.091,0 0.179,-0.021 0.256,-0.061 0.087,0.062 0.193,0.099 0.306,0.103 -0.016,0.159 -0.067,0.629 -0.067,0.629 -0.057,0.524 0.392,0.885 0.584,1.04 0.023,0.018 0.041,0.032 0.053,0.043 0.05,0.048 0.121,0.079 0.19,0.079 0.003,0 0.007,-10e-4 0.01,-10e-4 0.072,-0.003 0.145,-0.03 0.193,-0.084 0.006,-0.005 0.025,-0.019 0.047,-0.037 0.192,-0.155 0.641,-0.516 0.585,-1.04 0,0 -0.052,-0.471 -0.068,-0.629 0.114,-0.004 0.219,-0.041 0.306,-0.103 0.078,0.04 0.165,0.061 0.257,0.061 0.102,0 0.201,-0.028 0.288,-0.081 0.05,0.036 0.099,0.092 0.115,0.124 0.038,0.106 0.143,0.174 0.256,0.174 0.265,0 0.293,-0.288 0.302,-0.383 C 2.805,9.683 2.725,9.325 2.443,9.107 2.446,9.086 2.447,9.064 2.447,9.042 2.447,8.654 2.112,8.338 1.7,8.338 1.629,8.338 1.559,8.348 1.492,8.367 1.451,8.065 1.403,7.592 1.368,7.249 1.412,7.26 1.459,7.266 1.509,7.266 c 0.192,0 0.375,-0.059 0.522,-0.163 0.104,0.062 0.22,0.096 0.342,0.096 0.173,0 0.339,-0.069 0.47,-0.194 h 0.004 c 0.182,0 0.271,0.186 0.272,0.188 C 3.158,7.28 3.24,7.339 3.335,7.349 3.344,7.35 3.354,7.351 3.363,7.351 3.448,7.351 3.529,7.311 3.58,7.242 3.605,7.207 3.823,6.896 3.71,6.542 3.649,6.351 3.511,6.197 3.298,6.083 3.306,6.047 3.31,6.011 3.31,5.974 3.31,5.562 2.83,5.215 2.263,5.215 2.171,5.215 2.08,5.225 1.985,5.245 1.798,5.217 1.65,5.137 1.512,4.987 1.221,4.672 1.186,3.988 1.193,3.173 1.389,3.101 1.547,2.95 1.631,2.752 1.858,2.638 2.003,2.426 2.003,2.19 2.003,1.954 1.858,1.742 1.63,1.628 1.554,1.446 1.412,1.304 1.235,1.227 1.25,0.664 1.261,0.277 1.261,0.277 1.264,0.204 1.236,0.134 1.186,0.082 1.135,0.029 1.066,0 0.993,0 Z"
               style="fill:#ffdd00;fill-opacity:1;fill-rule:nonzero;stroke:none"
               id="path622" /></g><g
             id="g624"
             transform="translate(1040.8441,311.6477)"><path
               d="m 0,0 v 0 c -0.142,0 -0.278,-0.056 -0.378,-0.156 l -0.037,-0.03 C -0.621,-0.352 -1.17,-0.794 -1.098,-1.463 l 0.025,-0.226 c 0.006,-0.057 0.012,-0.11 0.018,-0.166 -0.012,-0.005 -0.024,-0.01 -0.036,-0.015 -0.075,0.022 -0.154,0.033 -0.235,0.033 -0.07,0 -0.139,-0.009 -0.206,-0.026 -0.1,0.148 -0.273,0.242 -0.453,0.242 -0.119,0 -0.514,-0.045 -0.569,-0.626 -0.03,-0.305 0.081,-0.674 0.337,-0.935 0.028,-0.505 0.458,-0.909 0.988,-0.921 0.021,-0.173 0.042,-0.367 0.06,-0.546 -0.134,-0.018 -0.262,-0.058 -0.379,-0.118 -0.104,0.04 -0.214,0.06 -0.328,0.06 -0.181,0 -0.356,-0.053 -0.507,-0.15 -0.081,0.166 -0.242,0.28 -0.428,0.3 -0.018,0.002 -0.037,0.003 -0.056,0.003 -0.169,0 -0.33,-0.081 -0.432,-0.219 -0.055,-0.074 -0.32,-0.469 -0.17,-0.94 0.05,-0.157 0.158,-0.352 0.388,-0.518 0.021,-0.552 0.603,-0.996 1.315,-0.996 0.092,0 0.186,0.008 0.281,0.025 0.084,-0.018 0.174,-0.059 0.273,-0.166 0.208,-0.225 0.248,-0.816 0.248,-1.464 -0.157,-0.095 -0.288,-0.231 -0.376,-0.398 -0.268,-0.168 -0.435,-0.445 -0.435,-0.754 0,-0.309 0.169,-0.588 0.438,-0.755 0.08,-0.145 0.192,-0.268 0.326,-0.359 -0.012,-0.475 -0.022,-0.791 -0.022,-0.791 -0.004,-0.145 0.051,-0.286 0.151,-0.39 0.101,-0.104 0.24,-0.163 0.386,-0.163 H 0 0.497 c 0.145,0 0.284,0.059 0.385,0.163 0.101,0.104 0.156,0.245 0.151,0.39 0,0 -0.009,0.316 -0.022,0.791 0.135,0.091 0.247,0.214 0.326,0.359 0.27,0.167 0.438,0.446 0.438,0.755 0,0.309 -0.166,0.586 -0.435,0.754 -0.088,0.167 -0.218,0.303 -0.376,0.398 0.001,0.648 0.041,1.239 0.249,1.464 0.098,0.107 0.189,0.148 0.273,0.166 0.094,-0.017 0.188,-0.025 0.28,-0.025 0.713,0 1.294,0.444 1.316,0.996 0.23,0.166 0.338,0.361 0.387,0.518 0.15,0.471 -0.115,0.866 -0.17,0.94 -0.101,0.138 -0.263,0.219 -0.432,0.219 -0.019,0 -0.038,-10e-4 -0.056,-0.003 -0.185,-0.02 -0.347,-0.134 -0.427,-0.3 -0.152,0.097 -0.326,0.15 -0.508,0.15 -0.113,0 -0.224,-0.02 -0.328,-0.06 -0.117,0.06 -0.245,0.1 -0.379,0.118 0.019,0.179 0.04,0.373 0.06,0.546 0.53,0.012 0.961,0.416 0.988,0.921 0.257,0.261 0.367,0.63 0.338,0.936 -0.056,0.58 -0.45,0.625 -0.57,0.625 -0.179,0 -0.353,-0.094 -0.453,-0.242 -0.066,0.017 -0.135,0.026 -0.206,0.026 -0.081,0 -0.16,-0.011 -0.235,-0.033 -0.011,0.005 -0.023,0.01 -0.036,0.015 0.006,0.056 0.012,0.11 0.019,0.167 l 0.024,0.225 c 0.072,0.669 -0.477,1.111 -0.683,1.277 l -0.037,0.03 C 0.278,-0.056 0.142,0 0,0 M 0,-0.537 C 0.076,-0.621 0.614,-0.946 0.564,-1.406 0.522,-1.799 0.506,-1.926 0.443,-2.577 0.439,-2.596 0.437,-2.616 0.437,-2.636 c 0.002,0.02 0.005,0.04 0.006,0.059 0.028,0.14 0.151,0.246 0.299,0.246 0.154,0 0.275,-0.116 0.297,-0.263 0.037,0.126 0.149,0.22 0.287,0.22 0.094,0 0.175,-0.045 0.232,-0.112 0.013,0.001 0.026,0.002 0.039,0.002 0.153,0 0.348,0.229 0.381,0.322 0,0 0.003,0.005 0.007,0.005 0.009,0 0.024,-0.02 0.036,-0.14 C 2.037,-2.475 1.953,-2.797 1.665,-2.924 1.651,-2.93 1.642,-2.936 1.63,-2.943 1.661,-3 1.682,-3.063 1.682,-3.131 c 0,-0.241 -0.214,-0.436 -0.478,-0.436 -0.158,0 -0.29,0.073 -0.377,0.18 C 0.818,-3.396 0.808,-3.406 0.802,-3.415 0.727,-3.512 0.598,-5.033 0.531,-5.599 c 0.095,0.163 0.251,0.423 0.482,0.423 0.225,0 0.414,-0.11 0.512,-0.267 0.082,0.118 0.205,0.2 0.351,0.2 0.139,0 0.257,-0.072 0.34,-0.18 l -0.001,0.002 c 0.048,-0.011 0.093,-0.015 0.136,-0.015 0.36,0 0.516,0.345 0.516,0.345 0,0 0.423,-0.575 -0.39,-0.846 H 2.397 C 2.49,-6.011 2.546,-6.101 2.546,-6.2 c 0,-0.248 -0.354,-0.491 -0.78,-0.491 -0.092,0 -0.18,0.014 -0.262,0.035 C 1.288,-6.679 1.047,-6.757 0.818,-7.004 0.443,-7.41 0.415,-8.178 0.431,-9.222 c 0.001,0 0.001,0 0.002,0 0.244,0 0.437,-0.175 0.485,-0.403 0.185,-0.052 0.32,-0.191 0.32,-0.359 0,-0.168 -0.135,-0.307 -0.32,-0.359 -0.046,-0.217 -0.225,-0.382 -0.453,-0.397 0.017,-0.677 0.032,-1.165 0.032,-1.165 H 0 -0.496 c 0,0 0.014,0.488 0.031,1.165 -0.228,0.015 -0.407,0.18 -0.452,0.397 -0.186,0.052 -0.321,0.191 -0.321,0.359 0,0.168 0.135,0.307 0.321,0.359 0.047,0.228 0.24,0.403 0.484,0.403 0.001,0 0.001,0 0.002,0 0.017,1.044 -0.012,1.812 -0.387,2.218 -0.229,0.247 -0.469,0.325 -0.685,0.348 -0.082,-0.021 -0.17,-0.035 -0.263,-0.035 -0.426,0 -0.779,0.243 -0.779,0.491 0,0.099 0.056,0.189 0.148,0.263 h -0.08 c -0.813,0.271 -0.39,0.846 -0.39,0.846 0,0 0.156,-0.345 0.516,-0.345 0.043,0 0.088,0.004 0.136,0.015 v -0.002 c 0.082,0.108 0.201,0.18 0.339,0.18 0.146,0 0.27,-0.082 0.351,-0.2 0.098,0.157 0.287,0.267 0.512,0.267 0.231,0 0.388,-0.26 0.483,-0.423 -0.068,0.566 -0.196,2.087 -0.271,2.184 -0.006,0.009 -0.017,0.019 -0.025,0.028 -0.087,-0.107 -0.22,-0.18 -0.377,-0.18 -0.265,0 -0.479,0.195 -0.479,0.436 0,0.068 0.021,0.131 0.052,0.188 -0.012,0.007 -0.021,0.013 -0.034,0.019 -0.289,0.127 -0.373,0.449 -0.356,0.627 0.011,0.12 0.027,0.14 0.035,0.14 0.005,0 0.007,-0.005 0.007,-0.005 0.034,-0.093 0.229,-0.322 0.381,-0.322 0.014,0 0.026,-10e-4 0.04,-0.002 0.056,0.067 0.137,0.112 0.231,0.112 0.139,0 0.251,-0.094 0.288,-0.22 0.021,0.147 0.142,0.263 0.296,0.263 0.148,0 0.271,-0.106 0.299,-0.246 0.002,-0.019 0.004,-0.039 0.006,-0.059 0,0.02 -0.002,0.04 -0.006,0.059 -0.063,0.651 -0.079,0.778 -0.121,1.171 -0.049,0.46 0.488,0.785 0.564,0.869"
               style="fill:#000000;fill-opacity:1;fill-rule:nonzero;stroke:none"
               id="path626" /></g><g
             id="g628"
             transform="translate(985.0405,224.32)"><path
               d="M 0,0 C 0,0 -0.537,4.516 -4.65,4.516 H -9.48 L 6.081,26.068 H 113.485 L 127.258,5.321 h -2.862 c -0.984,0 -2.683,-0.391 -2.683,-2.806 V -3.689 -53.926 H -0.134 Z"
               style="fill:#ffdd00;fill-opacity:1;fill-rule:nonzero;stroke:none"
               id="path630" /></g><g
             id="g632"
             transform="translate(985.0405,224.32)"><path
               d="M 0,0 C 0,0 -0.537,4.516 -4.65,4.516 H -9.48 L 6.081,26.068 H 113.485 L 127.258,5.321 h -2.862 c -0.984,0 -2.683,-0.391 -2.683,-2.806 V -3.689 -53.926 H -0.134 Z M 106.555,-16.769 H -0.042 M -0.05,-19.988 H 106.555 M 106.519,-53.926 106.555,0 c 0,0 -0.537,4.516 -4.65,4.516 H -5.545"
               style="fill:none;stroke:#000000;stroke-width:0.805;stroke-linecap:round;stroke-linejoin:round;stroke-miterlimit:10;stroke-dasharray:none;stroke-opacity:1"
               id="path634" /></g><g
             id="g636"
             transform="translate(1009.4346,169.0527)"><path
               d="m 0,0 h 6.372 v 40.735 c 0,1.789 0,8.63 -6.372,13.66 -6.372,-5.03 -6.372,-11.871 -6.372,-13.66 V 0 Z"
               style="fill:#ffdd00;fill-opacity:1;fill-rule:nonzero;stroke:none"
               id="path638" /></g><g
             id="g640"
             transform="translate(1009.4346,169.0527)"><path
               d="m 0,0 h 6.372 v 40.735 c 0,1.789 0,8.63 -6.372,13.66 -6.372,-5.03 -6.372,-11.871 -6.372,-13.66 V 0 Z"
               style="fill:none;stroke:#000000;stroke-width:0.805;stroke-linecap:round;stroke-linejoin:round;stroke-miterlimit:10;stroke-dasharray:none;stroke-opacity:1"
               id="path642" /></g><g
             id="g644"
             transform="translate(1008.5289,216.3218)"><path
               d="m 0,0 c -1.458,-0.906 -1.928,0.303 -1.928,0.905 0,0.603 0.47,1.811 1.928,0.906 -0.905,1.458 0.303,1.928 0.906,1.928 0.602,0 1.811,-0.47 0.905,-1.928 C 3.27,2.716 3.739,1.508 3.739,0.905 3.739,0.303 3.27,-0.906 1.811,0 2.717,-1.459 1.508,-1.928 0.906,-1.928 0.303,-1.928 -0.905,-1.459 0,0"
               style="fill:#000000;fill-opacity:1;fill-rule:nonzero;stroke:none"
               id="path646" /></g><g
             id="g648"
             transform="translate(1009.0043,171.7018)"><path
               d="m 0,0 h -4.527 v 38.365 c 0,1.089 0.573,3.166 2.264,4.198 C -0.573,41.531 0,39.454 0,38.365 V 0.671"
               style="fill:#000000;fill-opacity:1;fill-rule:nonzero;stroke:none"
               id="path650" /></g><g
             id="g652"
             transform="translate(1014.48,171.7018)"><path
               d="m 0,0 h -4.527 v 38.365 c 0,1.089 0.573,3.166 2.263,4.198 C -0.573,41.531 0,39.454 0,38.365 V 0.671"
               style="fill:#000000;fill-opacity:1;fill-rule:nonzero;stroke:none"
               id="path654" /></g><g
             id="g656"
             transform="translate(1039.9524,169.0527)"><path
               d="m 0,0 h 6.372 v 40.735 c 0,1.789 0,8.63 -6.372,13.66 -6.372,-5.03 -6.372,-11.871 -6.372,-13.66 V 0 Z"
               style="fill:#ffdd00;fill-opacity:1;fill-rule:nonzero;stroke:none"
               id="path658" /></g><g
             id="g660"
             transform="translate(1039.9524,169.0527)"><path
               d="m 0,0 h 6.372 v 40.735 c 0,1.789 0,8.63 -6.372,13.66 -6.372,-5.03 -6.372,-11.871 -6.372,-13.66 V 0 Z"
               style="fill:none;stroke:#000000;stroke-width:0.805;stroke-linecap:round;stroke-linejoin:round;stroke-miterlimit:10;stroke-dasharray:none;stroke-opacity:1"
               id="path662" /></g><g
             id="g664"
             transform="translate(1039.0466,216.3218)"><path
               d="m 0,0 c -1.458,-0.906 -1.928,0.303 -1.928,0.905 0,0.603 0.47,1.811 1.928,0.906 -0.905,1.458 0.303,1.928 0.906,1.928 0.602,0 1.811,-0.47 0.905,-1.928 C 3.27,2.716 3.739,1.508 3.739,0.905 3.739,0.303 3.27,-0.906 1.811,0 2.717,-1.459 1.508,-1.928 0.906,-1.928 0.303,-1.928 -0.905,-1.459 0,0"
               style="fill:#000000;fill-opacity:1;fill-rule:nonzero;stroke:none"
               id="path666" /></g><g
             id="g668"
             transform="translate(1039.522,171.7018)"><path
               d="m 0,0 h -4.527 v 38.365 c 0,1.089 0.573,3.166 2.264,4.198 C -0.573,41.531 0,39.454 0,38.365 V 0.671"
               style="fill:#000000;fill-opacity:1;fill-rule:nonzero;stroke:none"
               id="path670" /></g><g
             id="g672"
             transform="translate(1044.9978,171.7018)"><path
               d="m 0,0 h -4.527 v 38.365 c 0,1.089 0.573,3.166 2.263,4.198 C -0.573,41.531 0,39.454 0,38.365 V 0.671"
               style="fill:#000000;fill-opacity:1;fill-rule:nonzero;stroke:none"
               id="path674" /></g><g
             id="g676"
             transform="translate(1070.4701,169.0527)"><path
               d="m 0,0 h 6.372 v 40.735 c 0,1.789 0,8.63 -6.372,13.66 -6.372,-5.03 -6.372,-11.871 -6.372,-13.66 V 0 Z"
               style="fill:#ffdd00;fill-opacity:1;fill-rule:nonzero;stroke:none"
               id="path678" /></g><g
             id="g680"
             transform="translate(1070.4701,169.0527)"><path
               d="m 0,0 h 6.372 v 40.735 c 0,1.789 0,8.63 -6.372,13.66 -6.372,-5.03 -6.372,-11.871 -6.372,-13.66 V 0 Z"
               style="fill:none;stroke:#000000;stroke-width:0.805;stroke-linecap:round;stroke-linejoin:round;stroke-miterlimit:10;stroke-dasharray:none;stroke-opacity:1"
               id="path682" /></g><g
             id="g684"
             transform="translate(1069.5643,216.3218)"><path
               d="m 0,0 c -1.458,-0.906 -1.928,0.303 -1.928,0.905 0,0.603 0.47,1.811 1.928,0.906 -0.905,1.458 0.303,1.928 0.906,1.928 0.602,0 1.811,-0.47 0.905,-1.928 C 3.27,2.716 3.739,1.508 3.739,0.905 3.739,0.303 3.27,-0.906 1.811,0 2.717,-1.459 1.508,-1.928 0.906,-1.928 0.303,-1.928 -0.905,-1.459 0,0"
               style="fill:#000000;fill-opacity:1;fill-rule:nonzero;stroke:none"
               id="path686" /></g><g
             id="g688"
             transform="translate(1070.0398,171.7018)"><path
               d="m 0,0 h -4.527 v 38.365 c 0,1.089 0.573,3.166 2.264,4.198 C -0.573,41.531 0,39.454 0,38.365 V 0.671"
               style="fill:#000000;fill-opacity:1;fill-rule:nonzero;stroke:none"
               id="path690" /></g><g
             id="g692"
             transform="translate(1075.5155,171.7018)"><path
               d="m 0,0 h -4.527 v 38.365 c 0,1.089 0.573,3.166 2.263,4.198 C -0.573,41.531 0,39.454 0,38.365 V 0.671"
               style="fill:#000000;fill-opacity:1;fill-rule:nonzero;stroke:none"
               id="path694" /></g><g
             id="g696"
             transform="translate(985.0405,224.32)"><path
               d="m 0,0 h 106.555 m 6.93,26.068 -11.58,-21.552 M -6.108,9.186 H 104.414 M -2.949,13.561 H 106.555 M 0.003,17.937 H 109.116 M 3.369,22.312 h 108.098 m 0.863,1.606 12.469,-18.597 m -2.254,-0.614 -11.34,17.118"
               style="fill:none;stroke:#000000;stroke-width:0.805;stroke-linecap:round;stroke-linejoin:round;stroke-miterlimit:10;stroke-dasharray:none;stroke-opacity:1"
               id="path698" /></g><g
             id="g700"
             transform="translate(998.6827,223.8656)"><path
               d="m 0,0 c -0.059,0 -0.113,-0.009 -0.165,-0.022 -0.104,0.181 -0.287,0.309 -0.506,0.309 -0.324,0 -0.585,-0.268 -0.595,-0.601 C -1.385,-0.129 -1.578,0 -1.808,0 c -0.366,0 -0.663,-0.307 -0.663,-0.686 0,-0.009 0.004,-0.016 0.005,-0.025 -0.006,0.001 -0.011,0.001 -0.016,0.001 0.005,0.038 0.011,0.076 0.011,0.115 0,0.468 -0.366,0.847 -0.817,0.847 -0.274,0 -0.515,-0.141 -0.664,-0.356 -0.022,0.139 -0.085,0.26 -0.183,0.348 C -4.15,0.259 -4.169,0.267 -4.186,0.28 -4.222,0.306 -4.257,0.334 -4.299,0.351 -4.363,0.378 -4.433,0.395 -4.507,0.395 -4.582,0.395 -4.651,0.378 -4.715,0.351 -4.757,0.334 -4.792,0.306 -4.829,0.28 -4.845,0.267 -4.864,0.259 -4.879,0.244 -4.977,0.156 -5.04,0.035 -5.063,-0.104 c -0.148,0.215 -0.389,0.356 -0.663,0.356 -0.452,0 -0.817,-0.379 -0.817,-0.847 0,-0.039 0.006,-0.077 0.011,-0.115 -0.006,0 -0.01,0 -0.016,-0.001 0,0.009 0.005,0.016 0.005,0.025 C -6.543,-0.307 -6.84,0 -7.206,0 -7.436,0 -7.63,-0.129 -7.748,-0.314 -7.758,0.019 -8.019,0.287 -8.343,0.287 -8.562,0.287 -8.745,0.159 -8.85,-0.022 -8.901,-0.009 -8.955,0 -9.014,0 c -0.259,0 -0.63,-0.186 -0.469,-0.401 0.13,-0.175 0.227,-0.288 0.31,-0.375 0.364,-0.489 1.009,-1.506 1.722,-3.33 h -0.736 c 0.09,-0.336 0.559,-0.828 0.648,-1.409 0,0 -0.223,-0.805 0.246,-1.878 h 0.514 v -46.123 h 4.561 v 46.123 h 0.514 c 0.47,1.073 0.247,1.878 0.247,1.878 0.089,0.581 0.558,1.073 0.648,1.409 h -0.753 c 0.712,1.824 1.356,2.841 1.721,3.33 0.083,0.087 0.18,0.2 0.31,0.375 C 0.63,-0.186 0.259,0 0,0"
               style="fill:#ffdd00;fill-opacity:1;fill-rule:nonzero;stroke:none"
               id="path702" /></g><g
             id="g704"
             transform="translate(998.6827,223.8656)"><path
               d="m 0,0 c -0.059,0 -0.113,-0.009 -0.165,-0.022 -0.104,0.181 -0.287,0.309 -0.506,0.309 -0.324,0 -0.585,-0.268 -0.595,-0.601 C -1.385,-0.129 -1.578,0 -1.808,0 c -0.366,0 -0.663,-0.307 -0.663,-0.686 0,-0.009 0.004,-0.016 0.005,-0.025 -0.006,0.001 -0.011,0.001 -0.016,0.001 0.005,0.038 0.011,0.076 0.011,0.115 0,0.468 -0.366,0.847 -0.817,0.847 -0.274,0 -0.515,-0.141 -0.664,-0.356 -0.022,0.139 -0.085,0.26 -0.183,0.348 C -4.15,0.259 -4.169,0.267 -4.186,0.28 -4.222,0.306 -4.257,0.334 -4.299,0.351 -4.363,0.378 -4.433,0.395 -4.507,0.395 -4.582,0.395 -4.651,0.378 -4.715,0.351 -4.757,0.334 -4.792,0.306 -4.829,0.28 -4.845,0.267 -4.864,0.259 -4.879,0.244 -4.977,0.156 -5.04,0.035 -5.063,-0.104 c -0.148,0.215 -0.389,0.356 -0.663,0.356 -0.452,0 -0.817,-0.379 -0.817,-0.847 0,-0.039 0.006,-0.077 0.011,-0.115 -0.006,0 -0.01,0 -0.016,-0.001 0,0.009 0.005,0.016 0.005,0.025 C -6.543,-0.307 -6.84,0 -7.206,0 -7.436,0 -7.63,-0.129 -7.748,-0.314 -7.758,0.019 -8.019,0.287 -8.343,0.287 -8.562,0.287 -8.745,0.159 -8.85,-0.022 -8.901,-0.009 -8.955,0 -9.014,0 c -0.259,0 -0.63,-0.186 -0.469,-0.401 0.13,-0.175 0.227,-0.288 0.31,-0.375 0.364,-0.489 1.009,-1.506 1.722,-3.33 h -0.736 c 0.09,-0.336 0.559,-0.828 0.648,-1.409 0,0 -0.223,-0.805 0.246,-1.878 h 0.514 v -46.123 h 4.561 v 46.123 h 0.514 c 0.47,1.073 0.247,1.878 0.247,1.878 0.089,0.581 0.558,1.073 0.648,1.409 h -0.753 c 0.712,1.824 1.356,2.841 1.721,3.33 0.083,0.087 0.18,0.2 0.31,0.375 C 0.63,-0.186 0.259,0 0,0 Z m -6.532,-0.71 c 0.033,-0.244 0.16,-0.391 0.452,-0.714 0.106,-0.117 0.436,-0.452 0.509,-0.961 m 3.105,1.674 C -2.485,-1.244 -2.665,-1.491 -2.978,-1.759 -3.291,-2.027 -3.38,-2.385 -3.38,-2.385 m -4.159,-3.13 h 6.082 m -5.322,-1.878 h 4.561 m -5.233,3.287 h 5.889"
               style="fill:none;stroke:#000000;stroke-width:0.805;stroke-linecap:round;stroke-linejoin:round;stroke-miterlimit:10;stroke-dasharray:none;stroke-opacity:1"
               id="path706" /></g><g
             id="g708"
             transform="translate(1029.2004,223.8656)"><path
               d="m 0,0 c -0.058,0 -0.113,-0.009 -0.165,-0.022 -0.104,0.181 -0.287,0.309 -0.506,0.309 -0.324,0 -0.585,-0.268 -0.595,-0.601 C -1.385,-0.129 -1.578,0 -1.808,0 c -0.366,0 -0.663,-0.307 -0.663,-0.686 0,-0.009 0.004,-0.016 0.005,-0.025 -0.006,0.001 -0.011,0.001 -0.016,0.001 0.005,0.038 0.011,0.076 0.011,0.115 0,0.468 -0.366,0.847 -0.817,0.847 -0.274,0 -0.515,-0.141 -0.664,-0.356 -0.022,0.139 -0.085,0.26 -0.183,0.348 C -4.15,0.259 -4.169,0.267 -4.186,0.28 -4.222,0.306 -4.257,0.334 -4.298,0.351 -4.363,0.378 -4.433,0.395 -4.507,0.395 -4.582,0.395 -4.651,0.378 -4.715,0.351 -4.757,0.334 -4.792,0.306 -4.829,0.28 -4.845,0.267 -4.864,0.259 -4.879,0.244 -4.977,0.156 -5.04,0.035 -5.063,-0.104 c -0.148,0.215 -0.389,0.356 -0.663,0.356 -0.452,0 -0.817,-0.379 -0.817,-0.847 0,-0.039 0.006,-0.077 0.011,-0.115 -0.006,0 -0.01,0 -0.016,-0.001 0,0.009 0.005,0.016 0.005,0.025 C -6.543,-0.307 -6.84,0 -7.206,0 -7.436,0 -7.63,-0.129 -7.748,-0.314 -7.758,0.019 -8.019,0.287 -8.343,0.287 -8.562,0.287 -8.745,0.159 -8.85,-0.022 -8.901,-0.009 -8.955,0 -9.014,0 c -0.259,0 -0.63,-0.186 -0.469,-0.401 0.13,-0.175 0.227,-0.288 0.31,-0.375 0.364,-0.489 1.009,-1.506 1.722,-3.33 h -0.736 c 0.09,-0.336 0.559,-0.828 0.648,-1.409 0,0 -0.223,-0.805 0.246,-1.878 h 0.514 v -46.123 h 4.561 v 46.123 h 0.514 c 0.47,1.073 0.247,1.878 0.247,1.878 0.089,0.581 0.558,1.073 0.648,1.409 h -0.753 c 0.712,1.824 1.357,2.841 1.721,3.33 0.083,0.087 0.18,0.2 0.31,0.375 C 0.63,-0.186 0.259,0 0,0"
               style="fill:#ffdd00;fill-opacity:1;fill-rule:nonzero;stroke:none"
               id="path710" /></g><g
             id="g712"
             transform="translate(1029.2004,223.8656)"><path
               d="m 0,0 c -0.058,0 -0.113,-0.009 -0.165,-0.022 -0.104,0.181 -0.287,0.309 -0.506,0.309 -0.324,0 -0.585,-0.268 -0.595,-0.601 C -1.385,-0.129 -1.578,0 -1.808,0 c -0.366,0 -0.663,-0.307 -0.663,-0.686 0,-0.009 0.004,-0.016 0.005,-0.025 -0.006,0.001 -0.011,0.001 -0.016,0.001 0.005,0.038 0.011,0.076 0.011,0.115 0,0.468 -0.366,0.847 -0.817,0.847 -0.274,0 -0.515,-0.141 -0.664,-0.356 -0.022,0.139 -0.085,0.26 -0.183,0.348 C -4.15,0.259 -4.169,0.267 -4.186,0.28 -4.222,0.306 -4.257,0.334 -4.298,0.351 -4.363,0.378 -4.433,0.395 -4.507,0.395 -4.582,0.395 -4.651,0.378 -4.715,0.351 -4.757,0.334 -4.792,0.306 -4.829,0.28 -4.845,0.267 -4.864,0.259 -4.879,0.244 -4.977,0.156 -5.04,0.035 -5.063,-0.104 c -0.148,0.215 -0.389,0.356 -0.663,0.356 -0.452,0 -0.817,-0.379 -0.817,-0.847 0,-0.039 0.006,-0.077 0.011,-0.115 -0.006,0 -0.01,0 -0.016,-0.001 0,0.009 0.005,0.016 0.005,0.025 C -6.543,-0.307 -6.84,0 -7.206,0 -7.436,0 -7.63,-0.129 -7.748,-0.314 -7.758,0.019 -8.019,0.287 -8.343,0.287 -8.562,0.287 -8.745,0.159 -8.85,-0.022 -8.901,-0.009 -8.955,0 -9.014,0 c -0.259,0 -0.63,-0.186 -0.469,-0.401 0.13,-0.175 0.227,-0.288 0.31,-0.375 0.364,-0.489 1.009,-1.506 1.722,-3.33 h -0.736 c 0.09,-0.336 0.559,-0.828 0.648,-1.409 0,0 -0.223,-0.805 0.246,-1.878 h 0.514 v -46.123 h 4.561 v 46.123 h 0.514 c 0.47,1.073 0.247,1.878 0.247,1.878 0.089,0.581 0.558,1.073 0.648,1.409 h -0.753 c 0.712,1.824 1.357,2.841 1.721,3.33 0.083,0.087 0.18,0.2 0.31,0.375 C 0.63,-0.186 0.259,0 0,0 Z m -6.532,-0.71 c 0.033,-0.244 0.16,-0.391 0.452,-0.714 0.106,-0.117 0.436,-0.452 0.509,-0.961 m 3.105,1.674 C -2.485,-1.244 -2.665,-1.491 -2.978,-1.759 -3.291,-2.027 -3.38,-2.385 -3.38,-2.385 m -4.159,-3.13 h 6.082 m -5.322,-1.878 h 4.561 m -5.233,3.287 h 5.889"
               style="fill:none;stroke:#000000;stroke-width:0.805;stroke-linecap:round;stroke-linejoin:round;stroke-miterlimit:10;stroke-dasharray:none;stroke-opacity:1"
               id="path714" /></g><g
             id="g716"
             transform="translate(1059.7181,223.8656)"><path
               d="m 0,0 c -0.058,0 -0.113,-0.009 -0.165,-0.022 -0.104,0.181 -0.287,0.309 -0.506,0.309 -0.324,0 -0.584,-0.268 -0.595,-0.601 C -1.384,-0.129 -1.578,0 -1.808,0 c -0.366,0 -0.663,-0.307 -0.663,-0.686 0,-0.009 0.004,-0.016 0.005,-0.025 -0.006,0.001 -0.011,0.001 -0.016,0.001 0.005,0.038 0.011,0.076 0.011,0.115 0,0.468 -0.366,0.847 -0.817,0.847 -0.274,0 -0.515,-0.141 -0.663,-0.356 H -3.952 C -3.974,0.035 -4.037,0.156 -4.135,0.244 -4.15,0.259 -4.169,0.267 -4.186,0.28 -4.222,0.306 -4.257,0.334 -4.298,0.351 -4.363,0.378 -4.433,0.395 -4.507,0.395 -4.582,0.395 -4.651,0.378 -4.715,0.351 -4.757,0.334 -4.792,0.306 -4.829,0.28 -4.845,0.267 -4.864,0.259 -4.879,0.244 -4.977,0.156 -5.039,0.035 -5.062,-0.104 c -0.149,0.215 -0.39,0.356 -0.664,0.356 -0.451,0 -0.817,-0.379 -0.817,-0.847 0,-0.039 0.006,-0.077 0.011,-0.115 -0.006,0 -0.01,0 -0.016,-0.001 0,0.009 0.005,0.016 0.005,0.025 C -6.543,-0.307 -6.84,0 -7.206,0 -7.436,0 -7.63,-0.129 -7.748,-0.314 -7.758,0.019 -8.019,0.287 -8.343,0.287 -8.562,0.287 -8.745,0.159 -8.85,-0.022 -8.901,-0.009 -8.955,0 -9.014,0 c -0.259,0 -0.63,-0.186 -0.469,-0.401 0.13,-0.175 0.227,-0.288 0.31,-0.375 0.364,-0.489 1.009,-1.506 1.722,-3.33 h -0.736 c 0.09,-0.336 0.559,-0.828 0.648,-1.409 0,0 -0.223,-0.805 0.246,-1.878 h 0.514 v -46.123 h 4.561 v 46.123 h 0.514 c 0.47,1.073 0.247,1.878 0.247,1.878 0.089,0.581 0.558,1.073 0.648,1.409 h -0.753 c 0.712,1.824 1.357,2.841 1.721,3.33 0.083,0.087 0.18,0.2 0.311,0.375 C 0.63,-0.186 0.259,0 0,0"
               style="fill:#ffdd00;fill-opacity:1;fill-rule:nonzero;stroke:none"
               id="path718" /></g><g
             id="g720"
             transform="translate(1059.7181,223.8656)"><path
               d="m 0,0 c -0.058,0 -0.113,-0.009 -0.165,-0.022 -0.104,0.181 -0.287,0.309 -0.506,0.309 -0.324,0 -0.584,-0.268 -0.595,-0.601 C -1.384,-0.129 -1.578,0 -1.808,0 c -0.366,0 -0.663,-0.307 -0.663,-0.686 0,-0.009 0.004,-0.016 0.005,-0.025 -0.006,0.001 -0.011,0.001 -0.016,0.001 0.005,0.038 0.011,0.076 0.011,0.115 0,0.468 -0.366,0.847 -0.817,0.847 -0.274,0 -0.515,-0.141 -0.663,-0.356 H -3.952 C -3.974,0.035 -4.037,0.156 -4.135,0.244 -4.15,0.259 -4.169,0.267 -4.186,0.28 -4.222,0.306 -4.257,0.334 -4.298,0.351 -4.363,0.378 -4.433,0.395 -4.507,0.395 -4.582,0.395 -4.651,0.378 -4.715,0.351 -4.757,0.334 -4.792,0.306 -4.829,0.28 -4.845,0.267 -4.864,0.259 -4.879,0.244 -4.977,0.156 -5.039,0.035 -5.062,-0.104 c -0.149,0.215 -0.39,0.356 -0.664,0.356 -0.451,0 -0.817,-0.379 -0.817,-0.847 0,-0.039 0.006,-0.077 0.011,-0.115 -0.006,0 -0.01,0 -0.016,-0.001 0,0.009 0.005,0.016 0.005,0.025 C -6.543,-0.307 -6.84,0 -7.206,0 -7.436,0 -7.63,-0.129 -7.748,-0.314 -7.758,0.019 -8.019,0.287 -8.343,0.287 -8.562,0.287 -8.745,0.159 -8.85,-0.022 -8.901,-0.009 -8.955,0 -9.014,0 c -0.259,0 -0.63,-0.186 -0.469,-0.401 0.13,-0.175 0.227,-0.288 0.31,-0.375 0.364,-0.489 1.009,-1.506 1.722,-3.33 h -0.736 c 0.09,-0.336 0.559,-0.828 0.648,-1.409 0,0 -0.223,-0.805 0.246,-1.878 h 0.514 v -46.123 h 4.561 v 46.123 h 0.514 c 0.47,1.073 0.247,1.878 0.247,1.878 0.089,0.581 0.558,1.073 0.648,1.409 h -0.753 c 0.712,1.824 1.357,2.841 1.721,3.33 0.083,0.087 0.18,0.2 0.311,0.375 C 0.63,-0.186 0.259,0 0,0 Z m -6.532,-0.71 c 0.033,-0.244 0.16,-0.391 0.452,-0.714 0.106,-0.117 0.436,-0.452 0.509,-0.961 m 3.105,1.674 C -2.485,-1.244 -2.665,-1.491 -2.978,-1.759 -3.291,-2.027 -3.38,-2.385 -3.38,-2.385 m -4.159,-3.13 h 6.082 m -5.322,-1.878 h 4.561 m -5.233,3.287 h 5.889"
               style="fill:none;stroke:#000000;stroke-width:0.805;stroke-linecap:round;stroke-linejoin:round;stroke-miterlimit:10;stroke-dasharray:none;stroke-opacity:1"
               id="path722" /></g><g
             id="g724"
             transform="translate(1090.236,223.8656)"><path
               d="m 0,0 c -0.058,0 -0.113,-0.009 -0.165,-0.022 -0.104,0.181 -0.287,0.309 -0.506,0.309 -0.324,0 -0.585,-0.268 -0.595,-0.601 C -1.385,-0.129 -1.578,0 -1.808,0 c -0.366,0 -0.663,-0.307 -0.663,-0.686 0,-0.009 0.004,-0.016 0.005,-0.025 -0.006,0.001 -0.011,0.001 -0.016,0.001 0.005,0.038 0.011,0.076 0.011,0.115 0,0.468 -0.366,0.847 -0.817,0.847 -0.274,0 -0.515,-0.141 -0.664,-0.356 -0.022,0.139 -0.085,0.26 -0.183,0.348 C -4.15,0.259 -4.169,0.267 -4.186,0.28 -4.222,0.306 -4.257,0.334 -4.299,0.351 -4.363,0.378 -4.433,0.395 -4.507,0.395 -4.582,0.395 -4.651,0.378 -4.715,0.351 -4.757,0.334 -4.792,0.306 -4.829,0.28 -4.845,0.267 -4.864,0.259 -4.879,0.244 -4.977,0.156 -5.04,0.035 -5.063,-0.104 c -0.148,0.215 -0.389,0.356 -0.663,0.356 -0.452,0 -0.817,-0.379 -0.817,-0.847 0,-0.039 0.006,-0.077 0.011,-0.115 -0.006,0 -0.01,0 -0.016,-0.001 0,0.009 0.005,0.016 0.005,0.025 C -6.543,-0.307 -6.84,0 -7.206,0 -7.436,0 -7.63,-0.129 -7.748,-0.314 -7.758,0.019 -8.019,0.287 -8.343,0.287 -8.562,0.287 -8.745,0.159 -8.85,-0.022 -8.901,-0.009 -8.955,0 -9.014,0 c -0.259,0 -0.63,-0.186 -0.47,-0.401 0.131,-0.175 0.228,-0.288 0.311,-0.375 0.364,-0.489 1.009,-1.506 1.722,-3.33 h -0.736 c 0.089,-0.336 0.559,-0.828 0.648,-1.409 0,0 -0.223,-0.805 0.246,-1.878 h 0.514 v -46.123 h 4.561 v 46.123 h 0.514 c 0.47,1.073 0.247,1.878 0.247,1.878 0.089,0.581 0.558,1.073 0.648,1.409 h -0.753 c 0.712,1.824 1.356,2.841 1.721,3.33 0.083,0.087 0.18,0.2 0.31,0.375 C 0.63,-0.186 0.259,0 0,0"
               style="fill:#ffdd00;fill-opacity:1;fill-rule:nonzero;stroke:none"
               id="path726" /></g><g
             id="g728"
             transform="translate(1090.236,223.8656)"><path
               d="m 0,0 c -0.058,0 -0.113,-0.009 -0.165,-0.022 -0.104,0.181 -0.287,0.309 -0.506,0.309 -0.324,0 -0.585,-0.268 -0.595,-0.601 C -1.385,-0.129 -1.578,0 -1.808,0 c -0.366,0 -0.663,-0.307 -0.663,-0.686 0,-0.009 0.004,-0.016 0.005,-0.025 -0.006,0.001 -0.011,0.001 -0.016,0.001 0.005,0.038 0.011,0.076 0.011,0.115 0,0.468 -0.366,0.847 -0.817,0.847 -0.274,0 -0.515,-0.141 -0.664,-0.356 -0.022,0.139 -0.085,0.26 -0.183,0.348 C -4.15,0.259 -4.169,0.267 -4.186,0.28 -4.222,0.306 -4.257,0.334 -4.299,0.351 -4.363,0.378 -4.433,0.395 -4.507,0.395 -4.582,0.395 -4.651,0.378 -4.715,0.351 -4.757,0.334 -4.792,0.306 -4.829,0.28 -4.845,0.267 -4.864,0.259 -4.879,0.244 -4.977,0.156 -5.04,0.035 -5.063,-0.104 c -0.148,0.215 -0.389,0.356 -0.663,0.356 -0.452,0 -0.817,-0.379 -0.817,-0.847 0,-0.039 0.006,-0.077 0.011,-0.115 -0.006,0 -0.01,0 -0.016,-0.001 0,0.009 0.005,0.016 0.005,0.025 C -6.543,-0.307 -6.84,0 -7.206,0 -7.436,0 -7.63,-0.129 -7.748,-0.314 -7.758,0.019 -8.019,0.287 -8.343,0.287 -8.562,0.287 -8.745,0.159 -8.85,-0.022 -8.901,-0.009 -8.955,0 -9.014,0 c -0.259,0 -0.63,-0.186 -0.47,-0.401 0.131,-0.175 0.228,-0.288 0.311,-0.375 0.364,-0.489 1.009,-1.506 1.722,-3.33 h -0.736 c 0.089,-0.336 0.559,-0.828 0.648,-1.409 0,0 -0.223,-0.805 0.246,-1.878 h 0.514 v -46.123 h 4.561 v 46.123 h 0.514 c 0.47,1.073 0.247,1.878 0.247,1.878 0.089,0.581 0.558,1.073 0.648,1.409 h -0.753 c 0.712,1.824 1.356,2.841 1.721,3.33 0.083,0.087 0.18,0.2 0.31,0.375 C 0.63,-0.186 0.259,0 0,0 Z m -6.532,-0.71 c 0.033,-0.244 0.16,-0.391 0.452,-0.714 0.106,-0.117 0.436,-0.452 0.509,-0.961 m 3.105,1.674 C -2.485,-1.244 -2.665,-1.491 -2.978,-1.759 -3.291,-2.027 -3.38,-2.385 -3.38,-2.385 m -4.159,-3.13 h 6.082 m -5.322,-1.878 h 4.561 m -5.233,3.287 h 5.889 m 11.864,2.657 C 9.564,-2.254 6.613,-5.314 6.613,-8.332 v -46.481 h 7.177 v 45.452 c 0,0 0.201,3.284 -3.488,7.912 z"
               style="fill:none;stroke:#000000;stroke-width:0.805;stroke-linecap:round;stroke-linejoin:round;stroke-miterlimit:10;stroke-dasharray:none;stroke-opacity:1"
               id="path730" /></g><g
             id="g732"
             transform="translate(1108.8551,222.5762)"><path
               d="m 0,0 c 0.907,-0.805 4.628,-4.628 4.628,-7.713 v -45.81 h -9.455 v 40.109 c 0,0 -0.822,7.764 4.827,13.414"
               style="fill:#ffdd00;fill-opacity:1;fill-rule:nonzero;stroke:none"
               id="path734" /></g><g
             id="g736"
             transform="translate(1108.8551,222.5762)"><path
               d="m 0,0 c 0.907,-0.805 4.628,-4.628 4.628,-7.713 v -45.81 h -9.455 v 40.109 c 0,0 -0.822,7.764 4.827,13.414 z"
               style="fill:none;stroke:#000000;stroke-width:0.805;stroke-linecap:round;stroke-linejoin:round;stroke-miterlimit:10;stroke-dasharray:none;stroke-opacity:1"
               id="path738" /></g><path
             d="m 1113.489,198.616 h -3.292 v 3.369 h 3.292 z"
             style="fill:none;stroke:#000000;stroke-width:0.805;stroke-linecap:butt;stroke-linejoin:miter;stroke-miterlimit:10;stroke-dasharray:none;stroke-opacity:1"
             id="path740" /><g
             id="g742"
             transform="translate(1096.8492,215.5336)"><path
               d="m 0,0 v -46.481 l 5.768,-0.334 V -3.487 C 5.768,0.215 4.023,2.944 2.292,5.012 1.223,3.388 0,1.943 0,0"
               style="fill:#000000;fill-opacity:1;fill-rule:nonzero;stroke:none"
               id="path744" /></g><g
             id="g746"
             transform="translate(1103.9867,208.938)"><path
               d="m 0,0 h 4.548 c 0.484,0 1.303,-0.626 1.125,-1.516 0,0 1.409,0.578 0.748,1.625 0,0 1.063,-0.332 1.567,0.698 C 7.484,1.837 6.421,1.504 6.421,1.504 7.082,2.552 5.673,3.13 5.673,3.13 5.851,2.24 5.032,1.613 4.548,1.613 H 0 Z m 0,-19.384 h 4.548 c 0.484,0 1.303,-0.626 1.125,-1.516 0,0 1.409,0.578 0.748,1.626 0,0 1.063,-0.333 1.567,0.697 -0.504,1.03 -1.567,0.697 -1.567,0.697 0.661,1.048 -0.748,1.627 -0.748,1.627 0.178,-0.891 -0.641,-1.517 -1.125,-1.517 H 0 Z"
               style="fill:none;stroke:#000000;stroke-width:0.805;stroke-linecap:round;stroke-linejoin:round;stroke-miterlimit:10;stroke-dasharray:none;stroke-opacity:1"
               id="path748" /></g><g
             id="g750"
             transform="translate(1039.939,299.34)"><path
               d="m 0,0 c -0.637,-2.448 -2.583,-9.96 -2.583,-9.96 l -6.148,-16.299 c 0,0 1.118,-0.335 1.118,-1.14 v -21.463 l 4.091,-6.707 h 4.427 4.427 l 4.091,6.707 v 21.463 c 0,0.805 1.119,1.14 1.119,1.14 L 4.393,-9.96 c 0,0 -1.945,7.512 -2.582,9.96 z"
               style="fill:#ffdd00;fill-opacity:1;fill-rule:nonzero;stroke:none"
               id="path752" /></g><g
             id="g754"
             transform="translate(1039.939,299.34)"><path
               d="m 0,0 c -0.637,-2.448 -2.583,-9.96 -2.583,-9.96 l -6.148,-16.299 c 0,0 1.118,-0.335 1.118,-1.14 v -21.463 l 4.091,-6.707 h 4.427 4.427 l 4.091,6.707 v 21.463 c 0,0.805 1.119,1.14 1.119,1.14 L 4.393,-9.96 c 0,0 -1.945,7.512 -2.582,9.96 z"
               style="fill:none;stroke:#000000;stroke-width:0.805;stroke-linecap:round;stroke-linejoin:round;stroke-miterlimit:10;stroke-dasharray:none;stroke-opacity:1"
               id="path756" /></g><g
             id="g758"
             transform="translate(1040.621,254.2674)"><path
               d="m 0,0 h -1.325 v 10.648 c 0,0.319 0.168,1.308 0.662,1.61 C -0.168,11.956 0,10.967 0,10.648 V 0"
               style="fill:#000000;fill-opacity:1;fill-rule:nonzero;stroke:none"
               id="path760" /></g><g
             id="g762"
             transform="translate(1042.3927,254.2674)"><path
               d="m 0,0 h -1.325 v 10.648 c 0,0.319 0.168,1.308 0.662,1.61 C -0.168,11.956 0,10.967 0,10.648 V 0"
               style="fill:#000000;fill-opacity:1;fill-rule:nonzero;stroke:none"
               id="path764" /></g><g
             id="g766"
             transform="translate(1041.7499,299.34)"><path
               d="m 0,0 3.588,-23.308 5.143,-2.951 M -1.811,0 -5.4,-23.308 l -5.142,-2.951 m 14.063,-29.31 v 30.585 l 4.091,-2.415 m -12.687,-28.17 v 30.585 l -4.091,-2.415 m 12.754,4.091 h -8.663 m 0,-1.676 h 8.596"
               style="fill:none;stroke:#000000;stroke-width:0.805;stroke-linecap:round;stroke-linejoin:round;stroke-miterlimit:10;stroke-dasharray:none;stroke-opacity:1"
               id="path768" /></g><g
             id="g770"
             transform="translate(1040.4347,268.3965)"><path
               d="m 0,0 c -0.659,-0.409 -0.871,0.137 -0.871,0.409 0,0.273 0.212,0.819 0.871,0.41 C -0.409,1.478 0.137,1.69 0.409,1.69 0.682,1.69 1.228,1.478 0.819,0.819 1.478,1.228 1.691,0.682 1.691,0.409 1.691,0.137 1.478,-0.409 0.819,0 1.228,-0.659 0.682,-0.871 0.409,-0.871 0.137,-0.871 -0.409,-0.659 0,0"
               style="fill:#000000;fill-opacity:1;fill-rule:nonzero;stroke:none"
               id="path772" /></g><g
             id="g774"
             transform="translate(1038.3292,252.7247)"><path
               d="m 0,0 v 13.515 c 0,0.671 -0.034,3.588 2.515,5.768 2.549,-2.18 2.515,-5.097 2.515,-5.768 V 0 Z"
               style="fill:none;stroke:#000000;stroke-width:0.805;stroke-linecap:round;stroke-linejoin:round;stroke-miterlimit:10;stroke-dasharray:none;stroke-opacity:1"
               id="path776" /></g></g></g><g
         id="g778"
         inkscape:label="g778"><g
           id="g780"
           clip-path="url(#clipPath784)"><path
             d="M 1129.737,132.979 H 951.952 v 38.329 h 177.785 z"
             style="fill:#ffffff;fill-opacity:1;fill-rule:nonzero;stroke:none"
             id="path786" /><path
             d="M 1129.737,132.979 H 951.952 v 38.329 h 177.785 z m -176.854,28.747 h 177.785 m -177.785,-9.582 h 177.785 m -177.785,-9.582 h 177.785 m -157.44,19.164 v -9.582 m 27.472,9.582 v -9.582 m 27.473,9.582 v -9.582 m 27.473,9.582 v -9.582 m 27.472,9.582 v -9.582 m 27.473,9.582 v -9.582 m -137.363,-9.582 v -9.583 m 27.472,9.583 v -9.583 m 27.473,9.583 v -9.583 m 27.473,9.583 v -9.583 m 27.472,9.583 v -9.583 m 27.473,9.583 v -9.583 m -151.1,38.33 v -9.583 m 27.473,9.583 v -9.583 m 27.473,9.583 v -9.583 m 27.472,9.583 v -9.583 m 27.473,9.583 v -9.583 m 27.473,9.583 v -9.583 m -137.364,-9.582 v -9.582 m 27.473,9.582 v -9.582 m 27.473,9.582 v -9.582 m 27.472,9.582 v -9.582 m 27.473,9.582 v -9.582 m 27.473,9.582 v -9.582 m 27.487,28.747 v -9.583 m 0,-9.582 v -9.582"
             style="fill:none;stroke:#000000;stroke-width:0.805;stroke-linecap:round;stroke-linejoin:round;stroke-miterlimit:10;stroke-dasharray:none;stroke-opacity:1"
             id="path788" /><path
             d="m 979.693,171.309 h -12.929 v 10.354 h 12.929 z"
             style="fill:#ffffff;fill-opacity:1;fill-rule:nonzero;stroke:#000000;stroke-width:0.805;stroke-linecap:round;stroke-linejoin:round;stroke-miterlimit:10;stroke-dasharray:none;stroke-opacity:1"
             id="path790" /><path
             d="m 1118.173,171.309 h -14.145 v 10.354 h 14.145 z"
             style="fill:#ffffff;fill-opacity:1;fill-rule:nonzero;stroke:#000000;stroke-width:0.805;stroke-linecap:round;stroke-linejoin:round;stroke-miterlimit:10;stroke-dasharray:none;stroke-opacity:1"
             id="path792" /><path
             d="m 1090.074,171.309 h -13.233 v 10.354 h 13.233 z"
             style="fill:#ffffff;fill-opacity:1;fill-rule:nonzero;stroke:#000000;stroke-width:0.805;stroke-linecap:round;stroke-linejoin:round;stroke-miterlimit:10;stroke-dasharray:none;stroke-opacity:1"
             id="path794" /><path
             d="m 1064.098,171.309 h -14.246 v 10.354 h 14.246 z"
             style="fill:#ffffff;fill-opacity:1;fill-rule:nonzero;stroke:#000000;stroke-width:0.805;stroke-linecap:round;stroke-linejoin:round;stroke-miterlimit:10;stroke-dasharray:none;stroke-opacity:1"
             id="path796" /><path
             d="m 1035.545,171.309 h -13.124 v 10.354 h 13.124 z"
             style="fill:#ffffff;fill-opacity:1;fill-rule:nonzero;stroke:#000000;stroke-width:0.805;stroke-linecap:round;stroke-linejoin:round;stroke-miterlimit:10;stroke-dasharray:none;stroke-opacity:1"
             id="path798" /><path
             d="M 1007.389,171.309 H 994.46 v 10.354 h 12.929 z"
             style="fill:#ffffff;fill-opacity:1;fill-rule:nonzero;stroke:#000000;stroke-width:0.805;stroke-linecap:round;stroke-linejoin:round;stroke-miterlimit:10;stroke-dasharray:none;stroke-opacity:1"
             id="path800" /></g></g><g
         id="g802"><g
           id="g804"
           clip-path="url(#clipPath808-5)"><g
             id="g810"
             transform="translate(1133.0332,316.5592)"><path
               d="m 0,0 h -91.211 -0.094 -91.211 v -126.149 c 0,0 2.33,-84.067 91.211,-86.791 h 0.094 C -2.33,-210.216 0,-126.149 0,-126.149 Z m -2.683,-2.683 v -123.421 c -0.034,-0.913 -0.933,-21.122 -12.042,-41.307 -6.585,-11.963 -15.435,-21.599 -26.304,-28.637 -13.619,-8.819 -30.515,-13.599 -50.223,-14.209 h -0.012 c -19.708,0.61 -36.604,5.39 -50.223,14.209 -10.869,7.038 -19.719,16.674 -26.304,28.637 -11.113,20.191 -12.008,40.407 -12.042,41.307 V -2.683 h 88.528 0.094 88.528"
               style="fill:#000000;fill-opacity:1;fill-rule:nonzero;stroke:none"
               id="path812" /></g></g></g></g></g></svg>
