<svg xmlns="http://www.w3.org/2000/svg" xml:space="preserve" width="120" height="157.771" viewBox="0 0 31.75 41.744"><defs><clipPath id="a" clipPathUnits="userSpaceOnUse"><path d="M.265-1.848V19.04c0 10.327 4.924 15.69 15.61 20.304 10.686-4.614 15.61-9.977 15.61-20.305V-1.848h-15.61z" style="color:#000;fill:#fff;stroke-width:.999998;-inkscape-stroke:none"/></clipPath></defs><g style="display:inline"><path d="M.265-1.848V19.04c0 10.327 4.924 15.69 15.61 20.304 10.686-4.614 15.61-9.977 15.61-20.305V-1.848h-15.61z" style="color:#000;display:inline;fill:#fff;stroke:#000;stroke-width:.529167;-inkscape-stroke:none" transform="translate(0 2.112)"/><g clip-path="url(#a)" transform="translate(0 2.112)"><path d="M0-2.102h10.583V39.62H0z" style="display:inline;fill:#078930;stroke:none;stroke-width:.529166;stroke-linecap:round;stroke-linejoin:round;stroke-dasharray:none"/><path d="M10.583-2.102h10.583V39.62H10.583z" style="fill:#078930;stroke:none;stroke-width:.529166;stroke-linecap:round;stroke-linejoin:round;stroke-dasharray:none"/><path d="M21.167-2.102H31.75V39.62H21.167z" style="display:inline;fill:#078930;stroke:none;stroke-width:.529166;stroke-linecap:round;stroke-linejoin:round;stroke-dasharray:none"/><path d="M0-2.102h5.292v34.22H0zm10.583 0h5.292v34.22h-5.292zm10.584 0h5.292v34.22h-5.292z" style="fill:#fff;stroke:none;stroke-width:.529167;stroke-linecap:round;stroke-linejoin:round;stroke-dasharray:none"/><path d="M10.583-2.102V39.62M21.167-2.102V39.62" style="display:inline;fill:none;stroke:#000;stroke-width:.529167;stroke-linecap:round;stroke-linejoin:round"/><path d="M9.801 24.884c-1.59-1.117-3.468-4.44-4.51-5.995v5.49c1.82.522 4.51.505 4.51.505" style="fill:#fff"/><path d="M9.801 24.884c-.02-.038-.033-.123-.115-.235-.135-.186-.459-.54-.902-1.133a28.927 28.927 0 0 1-1.144-1.67 83.46 83.46 0 0 1-.994-1.597l-.088-.144a44.606 44.606 0 0 0-.916-1.45.422.421 28.05 0 0-.772.234c.002 1.57.042 3.618.097 5.49a.313.338 5.782 0 0 .235.312c.492.127 1.027.21 1.522.266.552.06 1.076.088 1.489.099.882.022 1.29-.02 1.435-.053.148-.033.153-.101.153-.119 0-.018-.005-.084-.151-.12-.203-.05-.454-.06-1.406-.165a24.03 24.03 0 0 1-1.441-.2c-.392-.068-.8-.153-1.18-.26.033-1.112.065-2.556.08-3.845a57.55 57.55 0 0 0 .256.391c.338.511.703 1.05 1.082 1.57.469.642.907 1.184 1.318 1.619.544.573.948.86 1.179.962.13.058.224.043.263.048z" style="fill:#000;fill-rule:nonzero;stroke:none;stroke-width:.529167;stroke-linecap:round;stroke-linejoin:round"/><path d="M10.132 21.345c-1.59-1.117-4.03-5.532-4.84-8.343v7.871c2.15 1.084 4.84.472 4.84.472" style="display:inline;fill:#fff"/><path d="M10.132 21.345c-.058-.07-.16-.232-.348-.484a15.822 15.822 0 0 1-.723-1.078 30.05 30.05 0 0 1-1.221-2.214 39.895 39.895 0 0 1-1.14-2.472l-.013-.033c-.283-.677-.596-1.478-.815-2.23-.197-.67-1.186-.53-1.184.168.008 2.24.09 5.195.186 7.871a.419.419 0 0 0 .23.373 6.135 6.135 0 0 0 1.794.496 8.038 8.038 0 0 0 1.625.033 6.256 6.256 0 0 0 1.3-.225c.317-.098.314-.18.309-.205-.006-.026-.04-.085-.354-.084-.028 0-.748.02-1.264-.004a8.819 8.819 0 0 1-1.5-.19 5.884 5.884 0 0 1-1.296-.442c.092-2.61-.36-5.452-.352-7.623l-.654.167c.236.828.581 1.678.904 2.369l.016.034c.41.874.887 1.725 1.367 2.477.57.89 1.11 1.589 1.577 2.1.31.34.575.584.79.759.079.063.15.117.214.163.269.19.47.245.552.274z" style="display:inline;fill:#000;fill-rule:nonzero;stroke:none;stroke-width:.529167;stroke-linecap:round;stroke-linejoin:round;stroke-dasharray:none"/><path d="M10.074 16.666C8.484 15.548 6.103 11 5.292 8.52v7.657c2.15 1.018 4.782.489 4.782.489" style="display:inline;fill:#fff"/><path d="M10.074 16.666c-.009-.025-.006-.076-.05-.15-.06-.097-.198-.272-.41-.576a16.707 16.707 0 0 1-.566-.875 29.852 29.852 0 0 1-1.206-2.216 41.28 41.28 0 0 1-1.106-2.43c-.17-.407-.32-.79-.453-1.142-.12-.322-.24-.654-.34-.97-.239-.74-.803-.566-.807.213-.01 2.04-.453 4.943-.341 7.657a.5.5 0 0 0 .284.449c.613.26 1.237.396 1.798.463a8.385 8.385 0 0 0 1.614.029c1.219-.095 1.518-.294 1.569-.357.026-.033.016-.084.014-.095-.002-.012-.012-.063-.047-.084-.067-.042-.394-.013-1.54-.094a9.684 9.684 0 0 1-1.471-.211c-.4-.092-.815-.22-1.215-.403-.318-2.265-.344-5.39-.354-7.354l-.277.213c.117.35-.274.707-.132 1.042.156.367.338.762.541 1.172.4.805.87 1.64 1.36 2.412.55.866 1.078 1.578 1.553 2.117.3.34.562.593.784.777.305.253.524.368.637.405.083.027.137.008.16.008z" style="display:inline;fill:#000;fill-rule:nonzero;stroke:none;stroke-width:.529167;stroke-linecap:round;stroke-linejoin:round"/><path d="M10.074 11.258C7.712 9.372 6.334 6.04 5.292 3.56v7.276c2.15 1.017 4.782.422 4.782.422" style="display:inline;fill:#fff"/><path d="M10.074 11.258c-.026-.053-.034-.164-.145-.322-.185-.262-.654-.774-1.184-1.536a18.323 18.323 0 0 1-1.189-1.974c-.568-1.082-1.043-2.193-1.47-3.237l-.339-.821c-.206-.498-.417-.348-.42.192-.012 1.944-.507 4.71-.448 7.276.004.164.096.31.236.372.603.27 1.218.412 1.774.484a8.211 8.211 0 0 0 1.608.043c1.006-.071 1.391-.23 1.504-.304a.157.157 0 0 0 .073-.173.167.167 0 0 0-.13-.131c-.126-.029-.515.02-1.462-.004a9.14 9.14 0 0 1-1.478-.153c-.422-.081-1.084.026-1.294-.393-.853-1.705-.418-4.92-.453-7.017L5.19 4.57c.456 1.034.987 2.18 1.63 3.267.456.773.918 1.43 1.388 1.98.645.754 1.215 1.196 1.518 1.353.175.09.294.076.348.088z" style="display:inline;fill:#000;fill-rule:nonzero;stroke:none;stroke-width:.529167;stroke-linecap:round;stroke-linejoin:round"/><path d="M8.76 6.14C7.168 5.025 5.291-1.22 5.291-1.22v6.598c1.244.997 3.467.763 3.467.763" style="fill:#fff"/><path d="M8.76 6.14 5.291-1.715s-.146 3.156-.146 3.99c0 .999-.006 2.07-.01 3.104 0 .047.022.092.059.122.339.274.736.452 1.117.569.423.13.84.188 1.166.213.255.019.472.019.635.011.564-.027.648-.14.646-.152-.003-.036-.1-.068-.644-.105-.152-.01-.372-.024-.61-.05a6.015 6.015 0 0 1-1.1-.219 3.18 3.18 0 0 1-.958-.465c-.004-1.01-.01-2.054-.01-3.028 0-.559-.114-3.367-.114-3.367.115 3.367 3.138 7.147 3.138 7.147.15.095.26.08.298.087z" style="fill:#000;fill-rule:nonzero;stroke:none;stroke-width:.529167;stroke-linecap:round;stroke-linejoin:round;stroke-dasharray:none"/><path d="M9.801 24.884c-1.59-1.117-3.468-4.44-4.51-5.995v5.49c1.82.522 4.51.505 4.51.505" style="fill:#078930" transform="matrix(-1 0 0 1 10.583 0)"/><path d="M9.801 24.884c-.02-.038-.033-.123-.115-.235-.135-.186-.459-.54-.902-1.133a28.927 28.927 0 0 1-1.144-1.67 83.46 83.46 0 0 1-.994-1.597l-.088-.144a44.606 44.606 0 0 0-.916-1.45.422.421 28.05 0 0-.772.234c.002 1.57.042 3.618.097 5.49a.313.338 5.782 0 0 .235.312c.492.127 1.027.21 1.522.266.552.06 1.076.088 1.489.099.882.022 1.29-.02 1.435-.053.148-.033.153-.101.153-.119 0-.018-.005-.084-.151-.12-.203-.05-.454-.06-1.406-.165a24.03 24.03 0 0 1-1.441-.2c-.392-.068-.8-.153-1.18-.26.033-1.112.065-2.556.08-3.845a57.55 57.55 0 0 0 .256.391c.338.511.703 1.05 1.082 1.57.469.642.907 1.184 1.318 1.619.544.573.948.86 1.179.962.13.058.224.043.263.048z" style="fill:#000;fill-rule:nonzero;stroke:none;stroke-width:.529167;stroke-linecap:round;stroke-linejoin:round" transform="matrix(-1 0 0 1 10.583 0)"/><path d="M10.132 21.345c-1.59-1.117-4.03-5.532-4.84-8.343v7.871c2.15 1.084 4.84.472 4.84.472" style="display:inline;fill:#078930" transform="matrix(-1 0 0 1 10.583 0)"/><path d="M10.132 21.345c-.058-.07-.16-.232-.348-.484a15.822 15.822 0 0 1-.723-1.078 30.05 30.05 0 0 1-1.221-2.214 39.895 39.895 0 0 1-1.14-2.472l-.013-.033c-.283-.677-.596-1.478-.815-2.23-.197-.67-1.186-.53-1.184.168.008 2.24.09 5.195.186 7.871a.419.419 0 0 0 .23.373 6.135 6.135 0 0 0 1.794.496 8.038 8.038 0 0 0 1.625.033 6.256 6.256 0 0 0 1.3-.225c.317-.098.314-.18.309-.205-.006-.026-.04-.085-.354-.084-.028 0-.748.02-1.264-.004a8.819 8.819 0 0 1-1.5-.19 5.884 5.884 0 0 1-1.296-.442c.092-2.61-.36-5.452-.352-7.623l-.654.167c.236.828.581 1.678.904 2.369l.016.034c.41.874.887 1.725 1.367 2.477.57.89 1.11 1.589 1.577 2.1.31.34.575.584.79.759.079.063.15.117.214.163.269.19.47.245.552.274z" style="display:inline;fill:#000;fill-rule:nonzero;stroke:none;stroke-width:.529167;stroke-linecap:round;stroke-linejoin:round;stroke-dasharray:none" transform="matrix(-1 0 0 1 10.583 0)"/><path d="M10.074 16.666C8.484 15.548 6.103 11 5.292 8.52v7.657c2.15 1.018 4.782.489 4.782.489" style="display:inline;fill:#078930" transform="matrix(-1 0 0 1 10.583 0)"/><path d="M10.074 16.666c-.009-.025-.006-.076-.05-.15-.06-.097-.198-.272-.41-.576a16.707 16.707 0 0 1-.566-.875 29.852 29.852 0 0 1-1.206-2.216 41.28 41.28 0 0 1-1.106-2.43c-.17-.407-.32-.79-.453-1.142-.12-.322-.24-.654-.34-.97-.239-.74-.803-.566-.807.213-.01 2.04-.453 4.943-.341 7.657a.5.5 0 0 0 .284.449c.613.26 1.237.396 1.798.463a8.385 8.385 0 0 0 1.614.029c1.219-.095 1.518-.294 1.569-.357.026-.033.016-.084.014-.095-.002-.012-.012-.063-.047-.084-.067-.042-.394-.013-1.54-.094a9.684 9.684 0 0 1-1.471-.211c-.4-.092-.815-.22-1.215-.403-.318-2.265-.344-5.39-.354-7.354l-.277.213c.117.35-.274.707-.132 1.042.156.367.338.762.541 1.172.4.805.87 1.64 1.36 2.412.55.866 1.078 1.578 1.553 2.117.3.34.562.593.784.777.305.253.524.368.637.405.083.027.137.008.16.008z" style="display:inline;fill:#000;fill-rule:nonzero;stroke:none;stroke-width:.529167;stroke-linecap:round;stroke-linejoin:round" transform="matrix(-1 0 0 1 10.583 0)"/><path d="M10.074 11.258C7.712 9.372 6.334 6.04 5.292 3.56v7.276c2.15 1.017 4.782.422 4.782.422" style="display:inline;fill:#078930" transform="matrix(-1 0 0 1 10.583 0)"/><path d="M10.074 11.258c-.026-.053-.034-.164-.145-.322-.185-.262-.654-.774-1.184-1.536a18.323 18.323 0 0 1-1.189-1.974c-.568-1.082-1.043-2.193-1.47-3.237l-.339-.821c-.206-.498-.417-.348-.42.192-.012 1.944-.507 4.71-.448 7.276.004.164.096.31.236.372.603.27 1.218.412 1.774.484a8.211 8.211 0 0 0 1.608.043c1.006-.071 1.391-.23 1.504-.304a.157.157 0 0 0 .073-.173.167.167 0 0 0-.13-.131c-.126-.029-.515.02-1.462-.004a9.14 9.14 0 0 1-1.478-.153c-.422-.081-1.084.026-1.294-.393-.853-1.705-.418-4.92-.453-7.017L5.19 4.57c.456 1.034.987 2.18 1.63 3.267.456.773.918 1.43 1.388 1.98.645.754 1.215 1.196 1.518 1.353.175.09.294.076.348.088z" style="display:inline;fill:#000;fill-rule:nonzero;stroke:none;stroke-width:.529167;stroke-linecap:round;stroke-linejoin:round" transform="matrix(-1 0 0 1 10.583 0)"/><path d="M8.76 6.14C7.168 5.025 5.291-1.22 5.291-1.22v6.598c1.244.997 3.467.763 3.467.763" style="fill:#078930" transform="matrix(-1 0 0 1 10.583 0)"/><path d="M8.76 6.14s-.645-.104-3.468-7.856c0 0-.146 3.156-.146 3.99 0 .999-.006 2.07-.01 3.104 0 .047.022.092.059.122.339.274.736.452 1.117.569.423.13.84.188 1.166.213.255.019.472.019.635.011.564-.027.648-.14.646-.152-.003-.036-.1-.068-.644-.105-.152-.01-.372-.024-.61-.05a6.015 6.015 0 0 1-1.1-.219 3.18 3.18 0 0 1-.958-.465c-.004-1.01-.01-2.054-.01-3.028 0-.559-.114-3.367-.114-3.367.115 3.367 3.138 7.147 3.138 7.147.15.095.26.08.298.087z" style="fill:#000;fill-rule:nonzero;stroke:none;stroke-width:.529167;stroke-linecap:round;stroke-linejoin:round;stroke-dasharray:none" transform="matrix(-1 0 0 1 10.583 0)"/><path d="M5.292-2.245s-.889 19.212-.993 23.581c-.198 8.377-.895 9.617-3.31 10.12l4.303.662 4.302-.661c-2.414-.504-3.112-1.744-3.31-10.12-.104-4.37-.992-23.582-.992-23.582z" style="fill:#000;stroke:none;stroke-width:.529167;stroke-linecap:round;stroke-linejoin:round"/><path d="M10.132 21.875c-1.59-1.118-4.03-5.533-4.84-8.344v7.871c2.15 1.084 4.84.473 4.84.473" style="display:inline;fill:#fff" transform="translate(10.583)"/><path d="M10.132 21.875c-.058-.07-.16-.233-.348-.485a15.822 15.822 0 0 1-.723-1.078 30.05 30.05 0 0 1-1.221-2.214 39.895 39.895 0 0 1-1.14-2.472l-.013-.033c-.283-.677-.596-1.478-.815-2.23-.197-.67-1.186-.53-1.184.168.008 2.24.09 5.195.186 7.871a.419.419 0 0 0 .23.373 6.135 6.135 0 0 0 1.794.496 8.038 8.038 0 0 0 1.625.033 6.256 6.256 0 0 0 1.3-.225c.317-.098.314-.18.309-.204-.006-.027-.04-.086-.354-.085-.028 0-.748.02-1.264-.004a8.819 8.819 0 0 1-1.5-.19 5.884 5.884 0 0 1-1.296-.442c.092-2.61-.36-5.452-.352-7.623l-.654.167c.236.828.581 1.678.904 2.369l.016.034c.41.874.887 1.725 1.367 2.477.57.89 1.11 1.589 1.577 2.1.31.34.575.585.79.76.079.063.15.116.214.162.269.19.47.245.552.275z" style="display:inline;fill:#000;fill-rule:nonzero;stroke:none;stroke-width:.529167;stroke-linecap:round;stroke-linejoin:round;stroke-dasharray:none" transform="translate(10.583)"/><path d="M10.074 16.666C8.484 15.548 6.103 11 5.292 8.52v7.657c2.15 1.018 4.782.489 4.782.489" style="display:inline;fill:#fff" transform="translate(10.583)"/><path d="M10.074 16.666c-.009-.025-.006-.076-.05-.15-.06-.097-.198-.272-.41-.576a16.707 16.707 0 0 1-.566-.875 29.852 29.852 0 0 1-1.206-2.216 41.28 41.28 0 0 1-1.106-2.43c-.17-.407-.32-.79-.453-1.142-.12-.322-.24-.654-.34-.97-.239-.74-.803-.566-.807.213-.01 2.04-.453 4.943-.341 7.657a.5.5 0 0 0 .284.449c.613.26 1.237.396 1.798.463a8.385 8.385 0 0 0 1.614.029c1.219-.095 1.518-.294 1.569-.357.026-.033.016-.084.014-.095-.002-.012-.012-.063-.047-.084-.067-.042-.394-.013-1.54-.094a9.684 9.684 0 0 1-1.471-.211c-.4-.092-.815-.22-1.215-.403-.318-2.265-.344-5.39-.354-7.354l-.277.213c.117.35-.274.707-.132 1.042.156.367.338.762.541 1.172.4.805.87 1.64 1.36 2.412.55.866 1.078 1.578 1.553 2.117.3.34.562.593.784.777.305.253.524.368.637.405.083.027.137.008.16.008z" style="display:inline;fill:#000;fill-rule:nonzero;stroke:none;stroke-width:.529167;stroke-linecap:round;stroke-linejoin:round" transform="translate(10.583)"/><path d="M10.074 11.258C7.712 9.372 6.334 6.04 5.292 3.56v7.276c2.15 1.017 4.782.422 4.782.422" style="display:inline;fill:#fff" transform="translate(10.583)"/><path d="M10.074 11.258c-.026-.053-.034-.164-.145-.322-.185-.262-.654-.774-1.184-1.536a18.323 18.323 0 0 1-1.189-1.974c-.568-1.082-1.043-2.193-1.47-3.237l-.339-.821c-.206-.498-.417-.348-.42.192-.012 1.944-.507 4.71-.448 7.276.004.164.096.31.236.372.603.27 1.218.412 1.774.484a8.211 8.211 0 0 0 1.608.043c1.006-.071 1.391-.23 1.504-.304a.157.157 0 0 0 .073-.173.167.167 0 0 0-.13-.131c-.126-.029-.515.02-1.462-.004a9.14 9.14 0 0 1-1.478-.153c-.422-.081-1.084.026-1.294-.393-.853-1.705-.418-4.92-.453-7.017L5.19 4.57c.456 1.034.987 2.18 1.63 3.267.456.773.918 1.43 1.388 1.98.645.754 1.215 1.196 1.518 1.353.175.09.294.076.348.088z" style="display:inline;fill:#000;fill-rule:nonzero;stroke:none;stroke-width:.529167;stroke-linecap:round;stroke-linejoin:round" transform="translate(10.583)"/><path d="M8.76 6.14C7.168 5.025 5.291-1.22 5.291-1.22v6.598c1.244.997 3.467.763 3.467.763" style="fill:#fff" transform="translate(10.583)"/><path d="M8.76 6.14s-.645-.104-3.468-7.856c0 0-.146 3.156-.146 3.99 0 .999-.006 2.07-.01 3.104 0 .047.022.092.059.122.339.274.736.452 1.117.569.423.13.84.188 1.166.213.255.019.472.019.635.011.564-.027.648-.14.646-.152-.003-.036-.1-.068-.644-.105-.152-.01-.372-.024-.61-.05a6.015 6.015 0 0 1-1.1-.219 3.18 3.18 0 0 1-.958-.465c-.004-1.01-.01-2.054-.01-3.028 0-.559-.114-3.367-.114-3.367.115 3.367 3.138 7.147 3.138 7.147.15.095.26.08.298.087z" style="fill:#000;fill-rule:nonzero;stroke:none;stroke-width:.529167;stroke-linecap:round;stroke-linejoin:round;stroke-dasharray:none" transform="translate(10.583)"/><path d="M.452 21.875c1.59-1.118 4.029-5.533 4.84-8.344v7.871c-2.152 1.084-4.84.473-4.84.473" style="display:inline;fill:#078930" transform="translate(10.583)"/><path d="M.452 21.875c.057-.07.16-.233.348-.485l.15-.206c.151-.214.342-.498.572-.872a30.05 30.05 0 0 0 1.222-2.214c.388-.772.78-1.618 1.139-2.472l.014-.033c.283-.677.595-1.478.815-2.23.196-.67 1.186-.53 1.183.168-.008 2.24-.09 5.195-.186 7.871a.419.419 0 0 1-.23.373 6.135 6.135 0 0 1-1.793.496 8.038 8.038 0 0 1-1.626.033 6.256 6.256 0 0 1-1.3-.225c-.317-.098-.314-.18-.308-.204.006-.027.04-.086.353-.085.028 0 .748.02 1.265-.004a8.89 8.89 0 0 0 1.5-.19 5.884 5.884 0 0 0 1.295-.442c-.092-2.61.36-5.452.352-7.623l.655.167a16.535 16.535 0 0 1-.905 2.369l-.016.034c-.41.874-.886 1.725-1.367 2.477-.569.89-1.11 1.589-1.577 2.1-.31.34-.575.585-.79.76-.079.063-.15.116-.214.162-.268.19-.47.245-.551.275z" style="display:inline;fill:#000;fill-rule:nonzero;stroke:none;stroke-width:.529167;stroke-linecap:round;stroke-linejoin:round;stroke-dasharray:none" transform="translate(10.583)"/><path d="M.51 16.666C2.1 15.548 4.48 11 5.292 8.52v7.657C3.14 17.195.51 16.666.51 16.666" style="display:inline;fill:#078930" transform="translate(10.583)"/><path d="M.51 16.666c.008-.025.006-.076.05-.15.06-.097.198-.272.41-.576.154-.222.341-.505.566-.875.355-.586.764-1.325 1.205-2.216a41.28 41.28 0 0 0 1.107-2.43c.169-.407.32-.79.452-1.142.12-.322.24-.654.341-.97.238-.74.802-.566.806.213.01 2.04.454 4.943.341 7.657a.5.5 0 0 1-.284.449 6.585 6.585 0 0 1-1.798.463 8.385 8.385 0 0 1-1.614.029C.874 17.023.574 16.824.524 16.76c-.027-.033-.017-.084-.014-.095.002-.012.012-.063.046-.084.067-.042.395-.013 1.54-.094.413-.03.93-.087 1.472-.211.4-.092.814-.22 1.215-.403.317-2.265.343-5.39.353-7.354l.277.213c-.116.35.275.707.133 1.042a21.76 21.76 0 0 1-.542 1.172c-.4.805-.87 1.64-1.36 2.412-.55.866-1.078 1.578-1.552 2.117-.3.34-.562.593-.785.777-.305.253-.524.368-.637.405-.083.027-.137.008-.16.008z" style="display:inline;fill:#000;fill-rule:nonzero;stroke:none;stroke-width:.529167;stroke-linecap:round;stroke-linejoin:round" transform="translate(10.583)"/><path d="M.51 11.258C2.872 9.372 4.249 6.04 5.292 3.56v7.276C3.14 11.853.51 11.258.51 11.258" style="display:inline;fill:#078930" transform="translate(10.583)"/><path d="M.51 11.258c.025-.053.034-.164.145-.322.184-.262.653-.774 1.183-1.536.394-.565.786-1.207 1.19-1.974.567-1.082 1.042-2.193 1.47-3.237l.338-.821c.206-.498.418-.348.42.192.013 1.944.507 4.71.448 7.276a.413.413 0 0 1-.236.372 6.333 6.333 0 0 1-1.774.484 8.211 8.211 0 0 1-1.607.043c-1.007-.071-1.392-.23-1.505-.304a.157.157 0 0 1-.072-.173.167.167 0 0 1 .13-.131c.125-.029.514.02 1.461-.004a9.14 9.14 0 0 0 1.479-.153c.421-.081 1.084.026 1.293-.393.853-1.705.419-4.92.454-7.017l.066 1.01c-.455 1.034-.987 2.18-1.63 3.267a14.034 14.034 0 0 1-1.388 1.98C1.73 10.57 1.16 11.012.857 11.17c-.174.09-.294.076-.347.088z" style="display:inline;fill:#000;fill-rule:nonzero;stroke:none;stroke-width:.529167;stroke-linecap:round;stroke-linejoin:round" transform="translate(10.583)"/><path d="M1.824 6.14c1.59-1.116 3.468-7.36 3.468-7.36v6.598c-1.245.997-3.468.763-3.468.763" style="fill:#078930" transform="translate(10.583)"/><path d="M1.824 6.14s.645-.104 3.468-7.856c0 0 .145 3.156.146 3.99 0 .999.005 2.07.009 3.104a.155.155 0 0 1-.058.122c-.34.274-.737.452-1.118.569a5.41 5.41 0 0 1-1.166.213 5.286 5.286 0 0 1-.634.011c-.565-.027-.648-.14-.647-.152.004-.036.1-.068.645-.105.151-.01.37-.024.608-.05a6.015 6.015 0 0 0 1.101-.219c.334-.103.67-.25.959-.465.003-1.01.009-2.054.009-3.028 0-.559.114-3.367.114-3.367-.114 3.367-3.138 7.147-3.138 7.147-.12.131-.26.08-.298.087z" style="fill:#000;fill-rule:nonzero;stroke:none;stroke-width:.529167;stroke-linecap:round;stroke-linejoin:round;stroke-dasharray:none" transform="translate(10.583)"/><path d="M5.292-2.245s-.889 19.212-.993 23.581c-.198 8.377-.895 9.617-3.31 10.12l4.303.662 4.302-.661c-2.414-.504-3.112-1.744-3.31-10.12-.104-4.37-.992-23.582-.992-23.582z" style="fill:#000;stroke:none;stroke-width:.529167;stroke-linecap:round;stroke-linejoin:round" transform="translate(10.583)"/><path d="M9.801 24.884c-1.59-1.117-3.468-4.44-4.51-5.995v5.49c1.82.522 4.51.505 4.51.505" style="fill:#fff" transform="translate(21.167)"/><path d="M9.801 24.884c-.02-.038-.033-.123-.115-.235-.135-.186-.459-.54-.902-1.133a28.927 28.927 0 0 1-1.144-1.67 83.46 83.46 0 0 1-.994-1.597l-.088-.144a44.606 44.606 0 0 0-.916-1.45.422.421 28.05 0 0-.772.234c.002 1.57.042 3.618.097 5.49a.313.338 5.782 0 0 .235.312c.492.127 1.027.21 1.522.266.552.06 1.076.088 1.489.099.882.022 1.29-.02 1.435-.053.148-.033.153-.101.153-.119 0-.018-.005-.084-.151-.12-.203-.05-.454-.06-1.406-.165a24.03 24.03 0 0 1-1.441-.2c-.392-.068-.8-.153-1.18-.26.033-1.112.065-2.556.08-3.845a57.55 57.55 0 0 0 .256.391c.338.511.703 1.05 1.082 1.57.469.642.907 1.184 1.318 1.619.544.573.948.86 1.179.962.13.058.224.043.263.048z" style="fill:#000;fill-rule:nonzero;stroke:none;stroke-width:.529167;stroke-linecap:round;stroke-linejoin:round" transform="translate(21.167)"/><path d="M10.132 21.345c-1.59-1.117-4.03-5.532-4.84-8.343v7.871c2.15 1.084 4.84.472 4.84.472" style="display:inline;fill:#fff" transform="translate(21.167)"/><path d="M10.132 21.345c-.058-.07-.16-.232-.348-.484a15.822 15.822 0 0 1-.723-1.078 30.05 30.05 0 0 1-1.221-2.214 39.895 39.895 0 0 1-1.14-2.472l-.013-.033c-.283-.677-.596-1.478-.815-2.23-.197-.67-1.186-.53-1.184.168.008 2.24.09 5.195.186 7.871a.419.419 0 0 0 .23.373 6.135 6.135 0 0 0 1.794.496 8.038 8.038 0 0 0 1.625.033 6.256 6.256 0 0 0 1.3-.225c.317-.098.314-.18.309-.205-.006-.026-.04-.085-.354-.084-.028 0-.748.02-1.264-.004a8.819 8.819 0 0 1-1.5-.19 5.884 5.884 0 0 1-1.296-.442c.092-2.61-.36-5.452-.352-7.623l-.654.167c.236.828.581 1.678.904 2.369l.016.034c.41.874.887 1.725 1.367 2.477.57.89 1.11 1.589 1.577 2.1.31.34.575.584.79.759.079.063.15.117.214.163.269.19.47.245.552.274z" style="display:inline;fill:#000;fill-rule:nonzero;stroke:none;stroke-width:.529167;stroke-linecap:round;stroke-linejoin:round;stroke-dasharray:none" transform="translate(21.167)"/><path d="M10.074 16.666C8.484 15.548 6.103 11 5.292 8.52v7.657c2.15 1.018 4.782.489 4.782.489" style="display:inline;fill:#fff" transform="translate(21.167)"/><path d="M10.074 16.666c-.009-.025-.006-.076-.05-.15-.06-.097-.198-.272-.41-.576a16.707 16.707 0 0 1-.566-.875 29.852 29.852 0 0 1-1.206-2.216 41.28 41.28 0 0 1-1.106-2.43c-.17-.407-.32-.79-.453-1.142-.12-.322-.24-.654-.34-.97-.239-.74-.803-.566-.807.213-.01 2.04-.453 4.943-.341 7.657a.5.5 0 0 0 .284.449c.613.26 1.237.396 1.798.463a8.385 8.385 0 0 0 1.614.029c1.219-.095 1.518-.294 1.569-.357.026-.033.016-.084.014-.095-.002-.012-.012-.063-.047-.084-.067-.042-.394-.013-1.54-.094a9.684 9.684 0 0 1-1.471-.211c-.4-.092-.815-.22-1.215-.403-.318-2.265-.344-5.39-.354-7.354l-.277.213c.117.35-.274.707-.132 1.042.156.367.338.762.541 1.172.4.805.87 1.64 1.36 2.412.55.866 1.078 1.578 1.553 2.117.3.34.562.593.784.777.305.253.524.368.637.405.083.027.137.008.16.008z" style="display:inline;fill:#000;fill-rule:nonzero;stroke:none;stroke-width:.529167;stroke-linecap:round;stroke-linejoin:round" transform="translate(21.167)"/><path d="M10.074 11.258C7.712 9.372 6.334 6.04 5.292 3.56v7.276c2.15 1.017 4.782.422 4.782.422" style="display:inline;fill:#fff" transform="translate(21.167)"/><path d="M10.074 11.258c-.026-.053-.034-.164-.145-.322-.185-.262-.654-.774-1.184-1.536a18.323 18.323 0 0 1-1.189-1.974c-.568-1.082-1.043-2.193-1.47-3.237l-.339-.821c-.206-.498-.417-.348-.42.192-.012 1.944-.507 4.71-.448 7.276.004.164.096.31.236.372.603.27 1.218.412 1.774.484a8.211 8.211 0 0 0 1.608.043c1.006-.071 1.391-.23 1.504-.304a.157.157 0 0 0 .073-.173.167.167 0 0 0-.13-.131c-.126-.029-.515.02-1.462-.004a9.14 9.14 0 0 1-1.478-.153c-.422-.081-1.084.026-1.294-.393-.853-1.705-.418-4.92-.453-7.017L5.19 4.57c.456 1.034.987 2.18 1.63 3.267.456.773.918 1.43 1.388 1.98.645.754 1.215 1.196 1.518 1.353.175.09.294.076.348.088z" style="display:inline;fill:#000;fill-rule:nonzero;stroke:none;stroke-width:.529167;stroke-linecap:round;stroke-linejoin:round" transform="translate(21.167)"/><path d="M8.76 6.14C7.168 5.025 5.291-1.22 5.291-1.22v6.598c1.244.997 3.467.763 3.467.763" style="fill:#fff" transform="translate(21.167)"/><path d="M8.76 6.14s-.645-.104-3.468-7.856c0 0-.146 3.156-.146 3.99 0 .999-.006 2.07-.01 3.104 0 .047.022.092.059.122.339.274.736.452 1.117.569.423.13.84.188 1.166.213.255.019.472.019.635.011.564-.027.648-.14.646-.152-.003-.036-.1-.068-.644-.105-.152-.01-.372-.024-.61-.05a6.015 6.015 0 0 1-1.1-.219 3.18 3.18 0 0 1-.958-.465c-.004-1.01-.01-2.054-.01-3.028 0-.559-.114-3.367-.114-3.367.115 3.367 3.138 7.147 3.138 7.147.15.095.26.08.298.087z" style="fill:#000;fill-rule:nonzero;stroke:none;stroke-width:.529167;stroke-linecap:round;stroke-linejoin:round;stroke-dasharray:none" transform="translate(21.167)"/><path d="M9.801 24.884c-1.59-1.117-3.468-4.44-4.51-5.995v5.49c1.82.522 4.51.505 4.51.505" style="fill:#078930" transform="matrix(-1 0 0 1 31.75 0)"/><path d="M9.801 24.884c-.02-.038-.033-.123-.115-.235-.135-.186-.459-.54-.902-1.133a28.927 28.927 0 0 1-1.144-1.67 83.46 83.46 0 0 1-.994-1.597l-.088-.144a44.606 44.606 0 0 0-.916-1.45.422.421 28.05 0 0-.772.234c.002 1.57.042 3.618.097 5.49a.313.338 5.782 0 0 .235.312c.492.127 1.027.21 1.522.266.552.06 1.076.088 1.489.099.882.022 1.29-.02 1.435-.053.148-.033.153-.101.153-.119 0-.018-.005-.084-.151-.12-.203-.05-.454-.06-1.406-.165a24.03 24.03 0 0 1-1.441-.2c-.392-.068-.8-.153-1.18-.26.033-1.112.065-2.556.08-3.845a57.55 57.55 0 0 0 .256.391c.338.511.703 1.05 1.082 1.57.469.642.907 1.184 1.318 1.619.544.573.948.86 1.179.962.13.058.224.043.263.048z" style="fill:#000;fill-rule:nonzero;stroke:none;stroke-width:.529167;stroke-linecap:round;stroke-linejoin:round" transform="matrix(-1 0 0 1 31.75 0)"/><path d="M10.132 21.345c-1.59-1.117-4.03-5.532-4.84-8.343v7.871c2.15 1.084 4.84.472 4.84.472" style="display:inline;fill:#078930" transform="matrix(-1 0 0 1 31.75 0)"/><path d="M10.132 21.345c-.058-.07-.16-.232-.348-.484a15.822 15.822 0 0 1-.723-1.078 30.05 30.05 0 0 1-1.221-2.214 39.895 39.895 0 0 1-1.14-2.472l-.013-.033c-.283-.677-.596-1.478-.815-2.23-.197-.67-1.186-.53-1.184.168.008 2.24.09 5.195.186 7.871a.419.419 0 0 0 .23.373 6.135 6.135 0 0 0 1.794.496 8.038 8.038 0 0 0 1.625.033 6.256 6.256 0 0 0 1.3-.225c.317-.098.314-.18.309-.205-.006-.026-.04-.085-.354-.084-.028 0-.748.02-1.264-.004a8.819 8.819 0 0 1-1.5-.19 5.884 5.884 0 0 1-1.296-.442c.092-2.61-.36-5.452-.352-7.623l-.654.167c.236.828.581 1.678.904 2.369l.016.034c.41.874.887 1.725 1.367 2.477.57.89 1.11 1.589 1.577 2.1.31.34.575.584.79.759.079.063.15.117.214.163.269.19.47.245.552.274z" style="display:inline;fill:#000;fill-rule:nonzero;stroke:none;stroke-width:.529167;stroke-linecap:round;stroke-linejoin:round;stroke-dasharray:none" transform="matrix(-1 0 0 1 31.75 0)"/><path d="M10.074 16.666C8.484 15.548 6.103 11 5.292 8.52v7.657c2.15 1.018 4.782.489 4.782.489" style="display:inline;fill:#078930" transform="matrix(-1 0 0 1 31.75 0)"/><path d="M10.074 16.666c-.009-.025-.006-.076-.05-.15-.06-.097-.198-.272-.41-.576a16.707 16.707 0 0 1-.566-.875 29.852 29.852 0 0 1-1.206-2.216 41.28 41.28 0 0 1-1.106-2.43c-.17-.407-.32-.79-.453-1.142-.12-.322-.24-.654-.34-.97-.239-.74-.803-.566-.807.213-.01 2.04-.453 4.943-.341 7.657a.5.5 0 0 0 .284.449c.613.26 1.237.396 1.798.463a8.385 8.385 0 0 0 1.614.029c1.219-.095 1.518-.294 1.569-.357.026-.033.016-.084.014-.095-.002-.012-.012-.063-.047-.084-.067-.042-.394-.013-1.54-.094a9.684 9.684 0 0 1-1.471-.211c-.4-.092-.815-.22-1.215-.403-.318-2.265-.344-5.39-.354-7.354l-.277.213c.117.35-.274.707-.132 1.042.156.367.338.762.541 1.172.4.805.87 1.64 1.36 2.412.55.866 1.078 1.578 1.553 2.117.3.34.562.593.784.777.305.253.524.368.637.405.083.027.137.008.16.008z" style="display:inline;fill:#000;fill-rule:nonzero;stroke:none;stroke-width:.529167;stroke-linecap:round;stroke-linejoin:round" transform="matrix(-1 0 0 1 31.75 0)"/><path d="M10.074 11.258C7.712 9.372 6.334 6.04 5.292 3.56v7.276c2.15 1.017 4.782.422 4.782.422" style="display:inline;fill:#078930" transform="matrix(-1 0 0 1 31.75 0)"/><path d="M10.074 11.258c-.026-.053-.034-.164-.145-.322-.185-.262-.654-.774-1.184-1.536a18.323 18.323 0 0 1-1.189-1.974c-.568-1.082-1.043-2.193-1.47-3.237l-.339-.821c-.206-.498-.417-.348-.42.192-.012 1.944-.507 4.71-.448 7.276.004.164.096.31.236.372.603.27 1.218.412 1.774.484a8.211 8.211 0 0 0 1.608.043c1.006-.071 1.391-.23 1.504-.304a.157.157 0 0 0 .073-.173.167.167 0 0 0-.13-.131c-.126-.029-.515.02-1.462-.004a9.14 9.14 0 0 1-1.478-.153c-.422-.081-1.084.026-1.294-.393-.853-1.705-.418-4.92-.453-7.017L5.19 4.57c.456 1.034.987 2.18 1.63 3.267.456.773.918 1.43 1.388 1.98.645.754 1.215 1.196 1.518 1.353.175.09.294.076.348.088z" style="display:inline;fill:#000;fill-rule:nonzero;stroke:none;stroke-width:.529167;stroke-linecap:round;stroke-linejoin:round" transform="matrix(-1 0 0 1 31.75 0)"/><path d="M8.76 6.14C7.168 5.025 5.291-1.22 5.291-1.22v6.598c1.244.997 3.467.763 3.467.763" style="fill:#078930" transform="matrix(-1 0 0 1 31.75 0)"/><path d="M8.76 6.14s-.645-.104-3.468-7.856c0 0-.146 3.156-.146 3.99 0 .999-.006 2.07-.01 3.104 0 .047.022.092.059.122.339.274.736.452 1.117.569.423.13.84.188 1.166.213.255.019.472.019.635.011.564-.027.648-.14.646-.152-.003-.036-.1-.068-.644-.105-.152-.01-.372-.024-.61-.05a6.015 6.015 0 0 1-1.1-.219 3.18 3.18 0 0 1-.958-.465c-.004-1.01-.01-2.054-.01-3.028 0-.559-.114-3.367-.114-3.367.115 3.367 3.138 7.147 3.138 7.147.15.095.26.08.298.087z" style="fill:#000;fill-rule:nonzero;stroke:none;stroke-width:.529167;stroke-linecap:round;stroke-linejoin:round;stroke-dasharray:none" transform="matrix(-1 0 0 1 31.75 0)"/><path d="M5.292-2.245s-.889 19.212-.993 23.581c-.198 8.377-.895 9.617-3.31 10.12l4.303.662 4.302-.661c-2.414-.504-3.112-1.744-3.31-10.12-.104-4.37-.992-23.582-.992-23.582z" style="fill:#000;stroke:none;stroke-width:.529167;stroke-linecap:round;stroke-linejoin:round" transform="translate(21.167)"/><g style="display:inline"><path d="M15.875 21.424 1.029 32.84l14.846 8.142 14.846-8.142z" style="fill:#fcdd09;stroke:#000;stroke-width:.529167;stroke-linecap:round;stroke-linejoin:round;stroke-dasharray:none"/><path d="M-10.065 28.055h4.762v2.533h-4.762z" style="fill:#000;stroke:none;stroke-width:.529167;stroke-linecap:round;stroke-linejoin:round;stroke-dasharray:none" transform="rotate(-40)"/><path d="m17.8 25.06 2.93 2.458.028 1.612-1.593.253-2.93-2.458z" style="stroke-width:.529167;stroke-linecap:round;stroke-linejoin:round"/><path d="M13.055 28.15s5.066 6.384 5.535 6.992c.47.608 1.935-.432 1.312-1.123-.597-.66-6.034-6.43-6.034-6.43z" style="fill:#000;stroke:none;stroke-width:.529167;stroke-linecap:round;stroke-linejoin:round;stroke-dasharray:none"/><path d="M19.934 26.467s-6.737 8.217-7.206 8.825c-.47.608-1.936-.432-1.312-1.123.596-.66 7.793-8.31 7.793-8.31z" style="fill:#000;stroke:none;stroke-width:.529167;stroke-linecap:round;stroke-linejoin:round;stroke-dasharray:none"/></g></g><path d="M0-2.113v21.152c0 5.206 1.249 9.2 3.855 12.459 2.607 3.258 6.55 5.772 11.915 8.088l.105.045.105-.045c5.364-2.316 9.308-4.83 11.915-8.088 2.606-3.258 3.855-7.253 3.855-12.459V-2.113H15.875zm.53.529h30.69v20.623c0 5.122-1.214 8.97-3.74 12.129-2.508 3.135-6.346 5.594-11.606 7.877-5.26-2.283-9.098-4.742-11.605-7.877C1.743 28.009.53 24.161.53 19.039V8.08z" style="color:#000;fill:#000;-inkscape-stroke:none" transform="translate(0 2.112)"/></g></svg>