<svg xmlns="http://www.w3.org/2000/svg" xmlns:xlink="http://www.w3.org/1999/xlink" version="1.0" width="100" height="116"><defs><linearGradient id="a"><stop style="stop-color:#16604e;stop-opacity:1" offset="0"/><stop style="stop-color:#fcfefb;stop-opacity:1" offset="1"/></linearGradient><linearGradient x1="96.499" y1="2.512" x2="96.451" y2="2.464" id="b" xlink:href="#a" gradientUnits="userSpaceOnUse" gradientTransform="translate(.5 .5)"/></defs><path d="M2.5 1.5h96l1 72c-13.707 55.725-84.246 55.534-97 0v-72" style="fill:url(#b);fill-opacity:1;fill-rule:evenodd;stroke:#000;stroke-width:2;stroke-linecap:butt;stroke-linejoin:miter;stroke-miterlimit:4;stroke-dasharray:none;stroke-opacity:1"/><path d="M29.875 38.749a8.154 8.309 0 1 1-16.307 0 8.154 8.309 0 1 1 16.307 0z" transform="matrix(1.09664 0 0 1.1364 -3.32 -7.034)" style="fill:#ed2023;fill-opacity:1;stroke:#000;stroke-width:.89577919;stroke-linecap:butt;stroke-miterlimit:4;stroke-dasharray:none;stroke-opacity:1"/><path d="M29.875 38.749a8.154 8.309 0 1 1-16.307 0 8.154 8.309 0 1 1 16.307 0z" transform="matrix(1.09664 0 0 1.1364 17.68 -7.034)" style="fill:#ed2023;fill-opacity:1;stroke:#000;stroke-width:.89577919;stroke-linecap:butt;stroke-miterlimit:4;stroke-dasharray:none;stroke-opacity:1"/><path d="M29.875 38.749a8.154 8.309 0 1 1-16.307 0 8.154 8.309 0 1 1 16.307 0z" transform="matrix(1.09664 0 0 1.1364 6.68 -25.034)" style="fill:#ed2023;fill-opacity:1;stroke:#000;stroke-width:.89577919;stroke-linecap:butt;stroke-miterlimit:4;stroke-dasharray:none;stroke-opacity:1"/><path d="M46.566 81.459c.03-1.435 1.523-2.297 2.836-2.122 1.966.263 3.094 2.323 2.74 4.175-.478 2.497-3.126 3.898-5.514 3.358-3.028-.684-4.706-3.929-3.977-6.853.888-3.56 4.733-5.516 8.192-4.595 4.092 1.09 6.327 5.538 5.214 9.532-1.29 4.624-6.343 7.139-10.871 5.832a9.458 9.458 0 0 1-4.754-3.201" transform="matrix(-1.22008 0 0 1.31307 -46.144 -78.307)" style="fill:none;fill-rule:evenodd;stroke:#000;stroke-width:.79006362;stroke-linecap:butt;stroke-linejoin:miter;stroke-miterlimit:4;stroke-dasharray:none;stroke-opacity:1"/><path d="M-95.55 36.795C-89.105 26.3-78.919 17.57-71.49 7.956l-4.125-5.018c-8.313 7.947-18.261 20.06-23.506 29.848" style="fill:none;fill-rule:evenodd;stroke:#000;stroke-width:1px;stroke-linecap:butt;stroke-linejoin:miter;stroke-opacity:1"/><path d="m-75.711 3.04 8.22-8.084c3.015-10.952-5.6-12.946-10-8-8.202 13.567-20.2 24.742-32.485 34.575M-108.49 26.956l5.149-5.867M-103.02 28.382l3.574-4.354" style="fill:none;fill-rule:evenodd;stroke:#000;stroke-width:1px;stroke-linecap:butt;stroke-linejoin:miter;stroke-opacity:1"/><path d="M74.75 56.625 80 63c-12.555 7.835-18.095 24.357-29 32-10.623 1.85-21.524-9.418-8.813-19.438C56.47 62.947 65.12 53.413 74 39c10.834-3.513 9.398 4.379 9 10-7.89 5.177-22.353 24.915-30.153 33.47 1.725-4.105-4.347-9.946-8.66-8.655 4.296-1.239 10.4 4.585 8.688 8.685" style="fill:#fbfdfa;fill-opacity:1;fill-rule:evenodd;stroke:#000;stroke-width:.5;stroke-linecap:butt;stroke-linejoin:miter;stroke-miterlimit:4;stroke-dasharray:none;stroke-opacity:1"/><path d="m53.438 81.625-3.141 4.306-.734 1.007C45.984 90.5 38.566 87.201 42 80l6.189-5.79" style="fill:none;fill-rule:evenodd;stroke:#000;stroke-width:.5;stroke-linecap:butt;stroke-linejoin:miter;stroke-miterlimit:4;stroke-dasharray:none;stroke-opacity:1"/><path d="M43.69 78.354c1.198-.177 2.234-.066 3.056.434.938.571 1.598 1.65 1.9 3.389l3.516-4.1" style="fill:none;fill-rule:evenodd;stroke:#000;stroke-width:.5;stroke-linecap:butt;stroke-linejoin:miter;stroke-miterlimit:4;stroke-dasharray:none;stroke-opacity:1"/></svg>