<?xml version="1.0" encoding="UTF-8"?>
<!DOCTYPE svg PUBLIC "-//W3C//DTD SVG 1.1//EN" "http://www.w3.org/Graphics/SVG/1.1/DTD/svg11.dtd">
<svg xmlns="http://www.w3.org/2000/svg" version="1.1" width="411px" height="494px" style="shape-rendering:geometricPrecision; text-rendering:geometricPrecision; image-rendering:optimizeQuality; fill-rule:evenodd; clip-rule:evenodd" xmlns:xlink="http://www.w3.org/1999/xlink">
<g><path style="opacity:1" fill="#020201" d="M -0.5,-0.5 C 136.5,-0.5 273.5,-0.5 410.5,-0.5C 410.5,102.5 410.5,205.5 410.5,308.5C 399.037,392.584 354.037,450.75 275.5,483C 262.652,487.573 249.652,491.073 236.5,493.5C 214.833,493.5 193.167,493.5 171.5,493.5C 95.3316,477.833 42.165,434.167 12,362.5C 8.98771,354.298 6.48771,345.965 4.5,337.5C 5.12395,337.083 5.45728,336.416 5.5,335.5C 3.63756,327.402 1.97089,319.402 0.5,311.5C 0.166667,311.5 -0.166667,311.5 -0.5,311.5C -0.5,207.5 -0.5,103.5 -0.5,-0.5 Z"/></g>
<g><path style="opacity:1" fill="#caa973" d="M 108.5,9.5 C 204.833,9.5 301.167,9.5 397.5,9.5C 397.833,109.502 397.5,209.502 396.5,309.5C 301.626,211.799 207.126,114.132 113,16.5C 110.89,14.557 109.39,12.2236 108.5,9.5 Z"/></g>
<g><path style="opacity:1" fill="#fdfab6" d="M 71.5,30.5 C 85.8047,31.3224 99.138,35.4891 111.5,43C 129.047,55.8896 141.213,72.7229 148,93.5C 149.8,114.087 140.967,127.587 121.5,134C 113.245,135.083 105.245,134.083 97.5,131C 71.711,119.61 54.5444,100.444 46,73.5C 42.2368,51.67 50.7368,37.3366 71.5,30.5 Z"/></g>
<g><path style="opacity:1" fill="#100b0c" d="M 372.5,24.5 C 373.756,24.4614 374.756,24.9614 375.5,26C 375.092,29.4787 374.758,32.9787 374.5,36.5C 368.375,41.5622 363.042,47.3955 358.5,54C 350.826,56.3455 344.159,60.3455 338.5,66C 330.112,70.8606 321.446,75.1939 312.5,79C 319.776,81.0822 327.109,82.2488 334.5,82.5C 347.562,80.9865 360.562,79.4865 373.5,78C 374.797,80.5446 374.631,83.0446 373,85.5C 369.291,89.3728 365.124,92.7062 360.5,95.5C 359.571,96.6888 359.238,98.0222 359.5,99.5C 351.91,99.7556 344.41,99.089 337,97.5C 335.5,97.8333 334,98.1667 332.5,98.5C 331.657,101.377 329.99,103.544 327.5,105C 321.658,105.398 315.824,105.898 310,106.5C 303.06,105.555 296.227,104.222 289.5,102.5C 283.994,104.218 278.327,105.551 272.5,106.5C 262.607,105.888 252.94,104.055 243.5,101C 234.074,96.352 224.241,92.852 214,90.5C 210.251,91.6916 206.751,93.3582 203.5,95.5C 200.27,91.5989 200.437,87.5989 204,83.5C 206.304,81.9315 208.804,80.7648 211.5,80C 216.128,75.2527 221.795,72.7527 228.5,72.5C 233.837,73.1112 239.004,74.4445 244,76.5C 244.5,76.1667 245,75.8333 245.5,75.5C 235.962,64.4632 225.296,54.6299 213.5,46C 202.913,39.1226 191.247,35.7893 178.5,36C 177.209,33.9098 177.876,32.5764 180.5,32C 183.172,31.1656 185.839,30.3323 188.5,29.5C 195.309,30.539 202.142,31.539 209,32.5C 210.447,32.9452 211.78,33.6119 213,34.5C 213.772,34.3552 214.439,34.0219 215,33.5C 223.837,36.2224 232.337,39.7224 240.5,44C 252.298,50.4007 263.631,57.5673 274.5,65.5C 300.102,52.0497 327.102,41.8831 355.5,35C 361.556,31.9798 367.223,28.4798 372.5,24.5 Z"/></g>
<g><path style="opacity:1" fill="#72517b" d="M 370.5,29.5 C 371.793,31.3635 371.793,33.3635 370.5,35.5C 367.6,38.1995 364.433,40.5328 361,42.5C 360.023,45.1024 358.856,47.6024 357.5,50C 353.252,51.8992 348.919,53.5659 344.5,55C 342.743,58.8758 340.076,61.8758 336.5,64C 324.973,70.0583 313.307,75.7249 301.5,81C 312.109,83.9685 322.942,85.1352 334,84.5C 345.563,84.6048 357.063,83.9381 368.5,82.5C 368.5,84.1667 368.5,85.8333 368.5,87.5C 365.562,88.6284 362.562,89.7951 359.5,91C 357.607,93.3031 355.607,95.4698 353.5,97.5C 349.616,96.1588 345.616,95.3255 341.5,95C 331.849,93.7506 322.183,93.084 312.5,93C 308.326,94.5078 307.659,96.8412 310.5,100C 316.026,100.75 321.026,99.5837 325.5,96.5C 328.313,97.6169 328.98,99.4503 327.5,102C 314.323,104.624 301.489,103.458 289,98.5C 276.486,104.628 263.653,105.128 250.5,100C 239.594,96.5432 228.927,92.5432 218.5,88C 215.833,87.3333 213.167,87.3333 210.5,88C 208.842,89.6625 206.842,90.4959 204.5,90.5C 205.584,85.7528 208.584,83.0862 213.5,82.5C 217.313,77.2938 222.48,74.9605 229,75.5C 234.806,77.5345 240.806,79.2012 247,80.5C 253.401,79.8935 259.735,78.8935 266,77.5C 266.772,77.6448 267.439,77.9781 268,78.5C 268.509,83.4062 270.842,87.0728 275,89.5C 275.5,89.1667 276,88.8333 276.5,88.5C 270.534,84.4183 269.367,79.0849 273,72.5C 275.694,69.5613 278.527,66.7279 281.5,64C 293.086,59.5175 304.753,55.1841 316.5,51C 317.167,50.3333 317.833,49.6667 318.5,49C 333.436,44.1818 348.436,39.5151 363.5,35C 366.336,33.609 368.669,31.7757 370.5,29.5 Z"/></g>
<g><path style="opacity:1" fill="#71517b" d="M 193.5,34.5 C 195.288,33.3775 197.288,33.2109 199.5,34C 207.898,37.2455 216.564,39.2455 225.5,40C 235.365,47.9956 246.365,54.1623 258.5,58.5C 261.127,61.9574 264.294,64.9574 268,67.5C 269.426,70.0694 269.259,72.2361 267.5,74C 261.277,76.2027 254.944,76.7027 248.5,75.5C 247.774,72.3793 246.274,69.7127 244,67.5C 238.1,61.6029 231.6,56.4363 224.5,52C 222.961,48.4563 220.294,46.4563 216.5,46C 213.902,43.1195 210.902,40.7861 207.5,39C 206.216,38.3162 205.049,38.4829 204,39.5C 201.231,36.3659 197.731,34.6993 193.5,34.5 Z"/></g>
<g><path style="opacity:1" fill="#110c0f" d="M 225.5,78.5 C 228.697,79.1124 230.031,81.1124 229.5,84.5C 227.167,84.5 224.833,84.5 222.5,84.5C 222.028,81.6421 223.028,79.6421 225.5,78.5 Z"/></g>
<g><path style="opacity:1" fill="#4b4022" d="M 135.5,84.5 C 136.793,83.3552 137.959,83.6885 139,85.5C 140.751,87.212 141.418,89.212 141,91.5C 139.629,88.7339 137.796,86.4006 135.5,84.5 Z"/></g>
<g><path style="opacity:1" fill="#64583a" d="M 66.5,97.5 C 68.3635,96.2072 70.3635,96.2072 72.5,97.5C 70.5405,98.5192 68.5405,98.5192 66.5,97.5 Z"/></g>
<g><path style="opacity:1" fill="#5f5136" d="M 135.5,91.5 C 139.78,96.394 141.446,102.061 140.5,108.5C 139.207,102.688 137.541,97.0215 135.5,91.5 Z"/></g>
<g><path style="opacity:1" fill="#caa973" d="M 12.5,86.5 C 33.0572,106.556 53.5572,126.89 74,147.5C 162.028,238.86 250.028,330.193 338,421.5C 338.85,423.01 339.683,424.51 340.5,426C 338.888,428.616 336.888,430.95 334.5,433C 275.295,481.204 209.295,493.204 136.5,469C 68.4747,440.167 27.6413,389.333 14,316.5C 12.7205,290.526 11.8871,264.526 11.5,238.5C 12.3031,187.913 12.6364,137.246 12.5,86.5 Z"/></g>
<g><path style="opacity:1" fill="#615439" d="M 78.5,101.5 C 79.0431,101.56 79.3764,101.893 79.5,102.5C 76.3853,104.35 73.052,104.85 69.5,104C 72.5,102.926 75.5,102.093 78.5,101.5 Z"/></g>
<g><path style="opacity:1" fill="#5f5333" d="M 85.5,106.5 C 86.552,106.351 87.552,106.517 88.5,107C 84.4664,109.923 80.1331,111.089 75.5,110.5C 79.1613,109.73 82.4946,108.397 85.5,106.5 Z"/></g>
<g><path style="opacity:1" fill="#938a60" d="M 92.5,114.5 C 93.6653,112.584 95.332,111.751 97.5,112C 96.3826,113.892 94.7159,114.725 92.5,114.5 Z"/></g>
<g><path style="opacity:1" fill="#4b3d2a" d="M 133.5,101.5 C 134.29,102.609 134.79,103.942 135,105.5C 135.667,110.167 135.667,114.833 135,119.5C 133.547,113.683 133.047,107.683 133.5,101.5 Z"/></g>
<g><path style="opacity:1" fill="#5a4f33" d="M 92.5,114.5 C 92.3893,115.117 92.056,115.617 91.5,116C 89.444,116.311 87.444,116.811 85.5,117.5C 85.1667,117.167 84.8333,116.833 84.5,116.5C 87.0119,115.205 89.6786,114.539 92.5,114.5 Z"/></g>
<g><path style="opacity:1" fill="#5d5135" d="M 98.5,120.5 C 100.477,118.186 102.477,115.853 104.5,113.5C 105.521,114.002 105.688,114.668 105,115.5C 103.223,117.79 101.056,119.457 98.5,120.5 Z"/></g>
<g><path style="opacity:1" fill="#564929" d="M 118.5,120.5 C 118.312,118.897 118.812,117.563 120,116.5C 120.773,118.352 120.273,119.686 118.5,120.5 Z"/></g>
<g><path style="opacity:1" fill="#584a2d" d="M 127.5,108.5 C 128.725,109.152 129.392,110.319 129.5,112C 128.945,116.608 127.945,121.108 126.5,125.5C 126.167,125.167 125.833,124.833 125.5,124.5C 126.657,119.24 127.324,113.907 127.5,108.5 Z"/></g>
<g><path style="opacity:1" fill="#57492b" d="M 98.5,120.5 C 97.4264,121.885 96.0931,123.051 94.5,124C 93.6683,124.688 93.0016,124.521 92.5,123.5C 94.2433,121.962 96.2433,120.962 98.5,120.5 Z"/></g>
<g><path style="opacity:1" fill="#5a4d2f" d="M 111.5,116.5 C 112.043,116.56 112.376,116.893 112.5,117.5C 110.593,121.737 107.593,124.571 103.5,126C 106.754,123.253 109.42,120.086 111.5,116.5 Z"/></g>
<g><path style="opacity:1" fill="#4b3f25" d="M 118.5,120.5 C 117.291,123.721 115.624,126.721 113.5,129.5C 112.592,128.21 112.759,126.877 114,125.5C 115.049,123.382 116.549,121.716 118.5,120.5 Z"/></g>
<g><path style="opacity:1" fill="#fdfab5" d="M 183.5,143.5 C 220.68,148.84 244.847,169.507 256,205.5C 259.446,222.761 253.946,236.261 239.5,246C 226.949,249.808 214.615,249.141 202.5,244C 174.059,230.21 158.059,207.543 154.5,176C 156.062,157.895 165.729,147.062 183.5,143.5 Z"/></g>
<g><path style="opacity:1" fill="#52472b" d="M 243.5,189.5 C 246.666,191.834 249.333,194.667 251.5,198C 250.833,198.667 250.167,198.667 249.5,198C 247.806,196.061 245.973,194.228 244,192.5C 243.517,191.552 243.351,190.552 243.5,189.5 Z"/></g>
<g><path style="opacity:1" fill="#594e24" d="M 165.5,197.5 C 167.264,196.288 168.93,196.621 170.5,198.5C 170.167,198.833 169.833,199.167 169.5,199.5C 168.378,198.37 167.044,197.703 165.5,197.5 Z"/></g>
<g><path style="opacity:1" fill="#584d33" d="M 167.5,202.5 C 170.275,204.444 173.275,205.944 176.5,207C 173.793,207.328 171.126,206.995 168.5,206C 167.663,204.989 167.33,203.822 167.5,202.5 Z"/></g>
<g><path style="opacity:1" fill="#473925" d="M 244.5,199.5 C 244.897,198.475 245.563,198.308 246.5,199C 250.185,202.868 252.352,207.368 253,212.5C 250.979,207.541 248.146,203.208 244.5,199.5 Z"/></g>
<g><path style="opacity:1" fill="#766a48" d="M 173.5,211.5 C 177.201,212.668 180.868,213.834 184.5,215C 179.838,216.337 176.171,215.17 173.5,211.5 Z"/></g>
<g><path style="opacity:1" fill="#5f5034" d="M 177.5,220.5 C 177.917,219.876 178.584,219.543 179.5,219.5C 184.462,220.549 189.462,221.383 194.5,222C 188.59,223.008 182.923,222.508 177.5,220.5 Z"/></g>
<g><path style="opacity:1" fill="#392a19" d="M 245.5,234.5 C 244.532,232.393 244.198,230.059 244.5,227.5C 243.717,223.854 243.55,220.188 244,216.5C 245.304,222.423 245.804,228.423 245.5,234.5 Z"/></g>
<g><path style="opacity:1" fill="#3a2b1b" d="M 248.5,215.5 C 250.379,218.856 250.879,222.523 250,226.5C 249.452,222.83 248.952,219.163 248.5,215.5 Z"/></g>
<g><path style="opacity:1" fill="#534429" d="M 187.5,228.5 C 191.981,227.352 196.648,227.185 201.5,228C 196.841,229.551 192.174,229.718 187.5,228.5 Z"/></g>
<g><path style="opacity:1" fill="#53462d" d="M 237.5,223.5 C 238.117,223.611 238.617,223.944 239,224.5C 239.69,231.213 238.524,237.546 235.5,243.5C 235.167,243.167 234.833,242.833 234.5,242.5C 237.172,236.472 238.172,230.139 237.5,223.5 Z"/></g>
<g><path style="opacity:1" fill="#463a26" d="M 206.5,234.5 C 208.119,232.762 210.119,232.262 212.5,233C 210.564,233.813 208.564,234.313 206.5,234.5 Z"/></g>
<g><path style="opacity:1" fill="#4f4522" d="M 222.5,231.5 C 223.525,231.897 223.692,232.563 223,233.5C 221.578,235.638 219.745,236.805 217.5,237C 219.373,235.296 221.04,233.463 222.5,231.5 Z"/></g>
<g><path style="opacity:1" fill="#4e422a" d="M 206.5,234.5 C 203.977,235.254 201.311,235.92 198.5,236.5C 198.167,236.167 197.833,235.833 197.5,235.5C 200.428,234.516 203.428,234.183 206.5,234.5 Z"/></g>
<g><path style="opacity:1" fill="#93855d" d="M 244.5,227.5 C 244.198,230.059 244.532,232.393 245.5,234.5C 245.631,235.376 245.298,236.043 244.5,236.5C 243.197,233.355 243.197,230.355 244.5,227.5 Z"/></g>
<g><path style="opacity:1" fill="#54472a" d="M 230.5,228.5 C 231.586,228.62 232.253,229.287 232.5,230.5C 231.009,234.835 228.842,238.835 226,242.5C 224.887,244.329 223.387,245.163 221.5,245C 226.092,240.273 229.092,234.773 230.5,228.5 Z"/></g>
<g><path style="opacity:1" fill="#5a4e27" d="M 213.5,238.5 C 215.842,238.775 215.842,239.608 213.5,241C 212.167,241.667 210.833,241.667 209.5,241C 211.32,240.8 212.653,239.966 213.5,238.5 Z"/></g>
<g><path style="opacity:1" fill="#fdfab6" d="M 287.5,255.5 C 298.071,254.284 308.071,256.118 317.5,261C 345.226,275.392 361.226,298.059 365.5,329C 365.265,344.916 357.598,355.582 342.5,361C 334.704,363.318 327.038,362.985 319.5,360C 283.97,346.456 265.47,320.622 264,282.5C 266.668,268.999 274.501,259.999 287.5,255.5 Z"/></g>
<g><path style="opacity:1" fill="#5d5234" d="M 350.5,307.5 C 350.897,306.475 351.563,306.308 352.5,307C 354.741,308.739 356.408,310.906 357.5,313.5C 357.167,313.833 356.833,314.167 356.5,314.5C 355.192,311.536 353.192,309.203 350.5,307.5 Z"/></g>
<g><path style="opacity:1" fill="#fdfdfd" d="M -0.5,311.5 C -0.166667,311.5 0.166667,311.5 0.5,311.5C 0.970345,320.321 2.30368,328.987 4.5,337.5C 6.48771,345.965 8.98771,354.298 12,362.5C 42.165,434.167 95.3316,477.833 171.5,493.5C 114.167,493.5 56.8333,493.5 -0.5,493.5C -0.5,432.833 -0.5,372.167 -0.5,311.5 Z"/></g>
<g><path style="opacity:1" fill="#5e5234" d="M 351.5,313.5 C 352.496,313.414 353.329,313.748 354,314.5C 355.914,317.298 356.914,320.298 357,323.5C 354.888,320.273 353.055,316.94 351.5,313.5 Z"/></g>
<g><path style="opacity:1" fill="#fdfdfd" d="M 410.5,308.5 C 410.5,370.167 410.5,431.833 410.5,493.5C 352.5,493.5 294.5,493.5 236.5,493.5C 249.652,491.073 262.652,487.573 275.5,483C 354.037,450.75 399.037,392.584 410.5,308.5 Z"/></g>
<g><path style="opacity:1" fill="#958960" d="M 281.5,318.5 C 283.035,317.212 284.701,317.212 286.5,318.5C 284.905,319.434 283.239,319.434 281.5,318.5 Z"/></g>
<g><path style="opacity:1" fill="#6d5f47" d="M 284.5,323.5 C 287.311,323.826 289.978,324.659 292.5,326C 289.095,326.968 286.429,326.135 284.5,323.5 Z"/></g>
<g><path style="opacity:1" fill="#3b3b3b" d="M 0.5,311.5 C 1.97089,319.402 3.63756,327.402 5.5,335.5C 5.45728,336.416 5.12395,337.083 4.5,337.5C 2.30368,328.987 0.970345,320.321 0.5,311.5 Z"/></g>
<g><path style="opacity:1" fill="#554a2c" d="M 350.5,322.5 C 351.497,322.47 352.164,322.97 352.5,324C 354.727,328.995 355.894,334.162 356,339.5C 354.159,333.822 352.326,328.156 350.5,322.5 Z"/></g>
<g><path style="opacity:1" fill="#54492d" d="M 286.5,330.5 C 290.804,331.131 295.137,331.631 299.5,332C 297.333,332.167 295.167,332.333 293,332.5C 290.39,332.467 288.223,331.8 286.5,330.5 Z"/></g>
<g><path style="opacity:1" fill="#514531" d="M 295.5,337.5 C 300.179,337.334 304.845,337.501 309.5,338C 306.567,338.893 303.567,339.393 300.5,339.5C 298.36,339.444 296.694,338.777 295.5,337.5 Z"/></g>
<g><path style="opacity:1" fill="#6a5d40" d="M 347.5,330.5 C 349.813,334.939 350.813,339.773 350.5,345C 350.618,348.027 350.118,350.861 349,353.5C 348.647,345.815 348.147,338.148 347.5,330.5 Z"/></g>
<g><path style="opacity:1" fill="#4e412d" d="M 314.5,341.5 C 316.842,341.775 316.842,342.608 314.5,344C 312.051,344.725 309.717,345.725 307.5,347C 306.167,347.667 304.833,347.667 303.5,347C 307.437,345.428 311.104,343.595 314.5,341.5 Z"/></g>
<g><path style="opacity:1" fill="#594b34" d="M 341.5,338.5 C 342.117,338.611 342.617,338.944 343,339.5C 343.795,345.52 342.795,351.187 340,356.5C 341.065,350.617 341.565,344.617 341.5,338.5 Z"/></g>
<g><path style="opacity:1" fill="#493b28" d="M 325.5,343.5 C 326.043,343.56 326.376,343.893 326.5,344.5C 323.909,347.466 320.909,349.966 317.5,352C 316.5,352.667 315.5,352.667 314.5,352C 318.638,349.685 322.305,346.852 325.5,343.5 Z"/></g>
<g><path style="opacity:1" fill="#574a2d" d="M 334.5,341.5 C 334.913,347.981 332.08,352.981 326,356.5C 325.5,356.167 325,355.833 324.5,355.5C 330.286,352.599 333.619,347.932 334.5,341.5 Z"/></g>
<g><path style="opacity:1" fill="#2e1c08" d="M 130.5,226.5 C 131.75,226.577 132.583,227.244 133,228.5C 133.554,233.716 134.887,238.716 137,243.5C 139.361,246.442 142.194,247.109 145.5,245.5C 145.322,248.216 144.822,250.883 144,253.5C 142,255.5 140,257.5 138,259.5C 138.159,262.929 139.659,265.762 142.5,268C 147.375,270.113 152.375,270.779 157.5,270C 160.945,272.503 161.445,275.669 159,279.5C 156.407,283.212 152.907,285.545 148.5,286.5C 149.714,288.069 151.381,288.902 153.5,289C 156.536,289.638 159.536,289.472 162.5,288.5C 164,288.453 165,289.119 165.5,290.5C 163.565,299.104 158.232,303.771 149.5,304.5C 151.469,307.567 154.302,308.9 158,308.5C 159.5,308.333 161,308.167 162.5,308C 164.309,305.762 166.642,304.595 169.5,304.5C 169.62,306.199 169.954,307.865 170.5,309.5C 167.402,321.17 160.069,326.67 148.5,326C 149.857,328.86 152.19,330.36 155.5,330.5C 158.145,329.892 160.812,329.392 163.5,329C 164.992,325.165 167.158,324.665 170,327.5C 170.823,331.738 170.156,335.738 168,339.5C 165.146,342.28 161.979,344.614 158.5,346.5C 161.217,348.359 164.217,349.359 167.5,349.5C 178.879,345.047 181.379,348.047 175,358.5C 172.354,361.246 169.188,362.413 165.5,362C 162.682,360.662 160.015,359.162 157.5,357.5C 155.261,357.574 154.261,358.741 154.5,361C 156.964,366.1 161.13,368.934 167,369.5C 170.439,368.022 173.772,366.355 177,364.5C 178.301,365.098 179.135,366.098 179.5,367.5C 175.416,377.216 168.083,382.55 157.5,383.5C 152.286,382.706 147.286,381.206 142.5,379C 137.959,374.462 133.793,369.628 130,364.5C 128.424,370.388 128.091,376.388 129,382.5C 129.375,388.586 132.542,392.253 138.5,393.5C 146.468,390.318 154.468,388.318 162.5,387.5C 157.94,389.939 153.607,392.606 149.5,395.5C 155.683,397.148 162.016,397.982 168.5,398C 169.634,399.016 169.301,399.683 167.5,400C 164.883,400.822 162.216,401.322 159.5,401.5C 160.541,406.395 163.374,410.061 168,412.5C 169.377,413.964 169.377,414.964 168,415.5C 163.026,412.598 158.526,409.098 154.5,405C 150.137,403.101 145.637,401.601 141,400.5C 139.548,398.175 137.881,398.175 136,400.5C 134.174,399.159 133.007,399.659 132.5,402C 139.802,411.635 147.469,420.969 155.5,430C 160.057,432.446 164.724,434.612 169.5,436.5C 169.167,437.5 168.5,438.167 167.5,438.5C 164.916,437.607 162.249,437.274 159.5,437.5C 160.374,442.291 161.207,446.958 162,451.5C 158.146,443.792 154.313,436.125 150.5,428.5C 149.264,427.643 147.931,426.977 146.5,426.5C 144.779,430.125 142.945,433.792 141,437.5C 140.73,440.362 139.896,443.028 138.5,445.5C 138.167,445.167 137.833,444.833 137.5,444.5C 141.555,434.976 142.055,425.309 139,415.5C 134.481,411.978 130.315,408.145 126.5,404C 123.044,402.877 120.21,403.71 118,406.5C 116.429,416.076 114.429,425.742 112,435.5C 110.95,438.24 109.117,439.74 106.5,440C 107.11,438.053 107.943,436.219 109,434.5C 109.778,426.166 110.112,417.833 110,409.5C 109.586,409.043 109.086,408.709 108.5,408.5C 102.857,413.119 99.8573,419.119 99.5,426.5C 98.5,426.5 97.5,426.5 96.5,426.5C 96.7938,422.9 97.4604,419.4 98.5,416C 94.533,416.124 92.1997,418.291 91.5,422.5C 90.675,423.386 89.675,423.719 88.5,423.5C 88.4598,420.575 89.2932,417.909 91,415.5C 96.0175,410.143 101.851,405.976 108.5,403C 111.564,400.793 113.564,397.959 114.5,394.5C 110.936,393.638 107.436,393.305 104,393.5C 101.234,396.093 98.0672,398.093 94.5,399.5C 89.4203,399.494 84.4203,398.494 79.5,396.5C 79.5,395.5 79.5,394.5 79.5,393.5C 84.5116,393.92 89.5116,394.087 94.5,394C 96.1161,393.385 97.4495,392.385 98.5,391C 103.568,389.273 108.568,387.94 113.5,387C 118.532,382.487 120.865,376.821 120.5,370C 120.22,368.605 119.553,367.438 118.5,366.5C 106.296,377.184 95.9626,375.684 87.5,362C 88.1667,361.333 88.8333,360.667 89.5,360C 92.8333,359.667 96.1667,359.333 99.5,359C 102.397,357.285 103.731,354.785 103.5,351.5C 100.65,351.636 97.8166,351.969 95,352.5C 92.5429,350.959 90.0429,350.293 87.5,350.5C 83.9287,347.691 82.262,344.025 82.5,339.5C 84.5996,339.477 86.4329,340.144 88,341.5C 93.2876,339.89 98.4542,338.057 103.5,336C 98.431,336.547 93.431,335.88 88.5,334C 83.3308,328.993 79.9974,322.993 78.5,316C 78.8333,315.167 79.1667,314.333 79.5,313.5C 86.3461,317.257 93.6794,318.424 101.5,317C 105.274,315.791 108.274,313.624 110.5,310.5C 100.592,310.891 93.5918,306.724 89.5,298C 89.9981,296.842 90.8315,296.009 92,295.5C 94.2334,295.323 96.5667,295.656 99,296.5C 104.703,296.329 109.536,294.329 113.5,290.5C 112.696,288.271 111.363,287.938 109.5,289.5C 102.479,288.81 97.8118,285.143 95.5,278.5C 99.0609,277.239 102.728,276.406 106.5,276C 109.356,274.299 112.356,272.966 115.5,272C 112.012,269.286 110.679,265.953 111.5,262C 113.715,261.83 115.715,261.163 117.5,260C 112.84,256.853 111.507,252.686 113.5,247.5C 116.157,247.838 118.49,247.171 120.5,245.5C 124.214,239.351 127.547,233.017 130.5,226.5 Z"/></g>
<g><path style="opacity:1" fill="#498f5d" d="M 128.5,237.5 C 130.714,239.576 132.214,242.242 133,245.5C 135.46,246.958 137.627,248.791 139.5,251C 137.924,253.077 135.924,254.577 133.5,255.5C 132.948,268.949 139.615,275.616 153.5,275.5C 154.349,277.51 153.682,279.177 151.5,280.5C 147.217,281.492 142.884,281.826 138.5,281.5C 139.473,286.647 142.473,290.147 147.5,292C 151.486,292.499 155.486,292.666 159.5,292.5C 158.761,296.408 156.428,298.908 152.5,300C 147.644,298.961 142.644,298.461 137.5,298.5C 137.343,299.873 137.51,301.207 138,302.5C 145.291,309.889 154.124,312.889 164.5,311.5C 164.657,312.873 164.49,314.207 164,315.5C 161.572,316.63 159.405,318.13 157.5,320C 152.816,320.461 148.149,320.295 143.5,319.5C 142.964,325.47 145.298,329.97 150.5,333C 154.821,333.499 159.154,333.666 163.5,333.5C 163.571,336.024 162.571,338.024 160.5,339.5C 157.572,340.484 154.572,340.817 151.5,340.5C 151.343,341.873 151.51,343.207 152,344.5C 157.392,350.729 164.225,353.395 172.5,352.5C 169.494,359.854 165.494,360.354 160.5,354C 152.19,353.756 149.69,357.59 153,365.5C 155.205,368.04 157.705,370.207 160.5,372C 164.837,371.84 169.17,371.34 173.5,370.5C 172.263,375.556 168.93,378.39 163.5,379C 156.327,380.207 149.66,378.873 143.5,375C 138.927,369.85 134.594,364.517 130.5,359C 126.958,358.149 123.625,358.649 120.5,360.5C 117.025,362.808 113.692,365.308 110.5,368C 106.167,368.667 101.833,368.667 97.5,368C 96.3128,366.981 95.3128,365.814 94.5,364.5C 101.506,362.674 106.506,358.507 109.5,352C 107.963,350.89 107.297,349.39 107.5,347.5C 104.998,347.749 102.498,348.083 100,348.5C 96.8438,347.753 94.0105,347.086 91.5,346.5C 99.0075,345.173 105.174,341.507 110,335.5C 111.009,333.975 111.509,332.308 111.5,330.5C 105.189,331.427 98.8556,331.594 92.5,331C 88.4034,329.078 86.0701,325.912 85.5,321.5C 98.0196,324.493 108.52,321.16 117,311.5C 117.743,309.559 117.576,307.726 116.5,306C 111.231,304.894 105.897,304.227 100.5,304C 98.6063,302.921 98.273,301.587 99.5,300C 104.524,298.499 109.524,296.999 114.5,295.5C 118.035,292.628 119.035,289.128 117.5,285C 113.833,284.667 110.167,284.333 106.5,284C 105.572,283.612 104.905,282.945 104.5,282C 107.941,280.088 111.608,278.421 115.5,277C 116.685,275.647 118.019,274.48 119.5,273.5C 120.833,272.167 120.833,270.833 119.5,269.5C 114.038,266.525 114.371,264.192 120.5,262.5C 122.104,261.397 123.104,259.897 123.5,258C 121.5,256.333 119.5,254.667 117.5,253C 119.684,250.483 122.184,248.317 125,246.5C 127.05,243.852 128.216,240.852 128.5,237.5 Z"/></g>
</svg>
