<?xml version="1.0" encoding="UTF-8"?>
<!DOCTYPE svg PUBLIC "-//W3C//DTD SVG 1.1//EN" "http://www.w3.org/Graphics/SVG/1.1/DTD/svg11.dtd">
<svg xmlns="http://www.w3.org/2000/svg" version="1.1" width="100px" height="113px" style="shape-rendering:geometricPrecision; text-rendering:geometricPrecision; image-rendering:optimizeQuality; fill-rule:evenodd; clip-rule:evenodd" xmlns:xlink="http://www.w3.org/1999/xlink">
<g><path style="opacity:1" fill="#939da3" d="M 0.5,0.5 C 0.5,0.166667 0.5,-0.166667 0.5,-0.5C 33.5,-0.5 66.5,-0.5 99.5,-0.5C 99.5,22.1667 99.5,44.8333 99.5,67.5C 99.1667,67.5 98.8333,67.5 98.5,67.5C 98.5,62.1667 98.5,56.8333 98.5,51.5C 98.5,34.5 98.5,17.5 98.5,0.5C 66.5,0.5 34.5,0.5 2.5,0.5C 1.83333,0.5 1.16667,0.5 0.5,0.5 Z"/></g>
<g><path style="opacity:1" fill="#21354e" d="M 2.5,1.5 C 2.5,1.16667 2.5,0.833333 2.5,0.5C 34.5,0.5 66.5,0.5 98.5,0.5C 98.5,17.5 98.5,34.5 98.5,51.5C 98.1667,51.5 97.8333,51.5 97.5,51.5C 97.5,34.8333 97.5,18.1667 97.5,1.5C 65.8333,1.5 34.1667,1.5 2.5,1.5 Z"/></g>
<g><path style="opacity:1" fill="#395891" d="M 2.5,1.5 C 34.1667,1.5 65.8333,1.5 97.5,1.5C 97.5,18.1667 97.5,34.8333 97.5,51.5C 97.5,51.8333 97.5,52.1667 97.5,52.5C 95.1587,50.1712 92.4921,48.1712 89.5,46.5C 89.1667,45.8333 88.8333,45.1667 88.5,44.5C 90.7808,46.4279 93.4475,47.4279 96.5,47.5C 96.5,32.5 96.5,17.5 96.5,2.5C 68.8333,2.5 41.1667,2.5 13.5,2.5C 10.1667,2.5 6.83333,2.5 3.5,2.5C 3.5,14.8333 3.5,27.1667 3.5,39.5C 4.83333,39.5 6.16667,39.5 7.5,39.5C 7.52709,37.8007 8.19376,36.4674 9.5,35.5C 11.3146,34.3702 13.3146,33.7036 15.5,33.5C 15.1667,34.1667 14.8333,34.8333 14.5,35.5C 11.1667,37.8333 7.83333,40.1667 4.5,42.5C 3.53128,41.6906 2.69794,40.6906 2,39.5C 1.17329,26.6599 1.33996,13.9933 2.5,1.5 Z"/></g>
<g><path style="opacity:1" fill="#4474c8" d="M 13.5,2.5 C 41.1667,2.5 68.8333,2.5 96.5,2.5C 96.5,17.5 96.5,32.5 96.5,47.5C 93.4475,47.4279 90.7808,46.4279 88.5,44.5C 85.3197,42.7451 82.3197,40.7451 79.5,38.5C 80.8734,38.3433 82.2068,38.51 83.5,39C 86.9879,43.2877 90.9879,44.1211 95.5,41.5C 95.5,40.1667 95.5,38.8333 95.5,37.5C 95.7359,27.4409 95.4026,17.4409 94.5,7.5C 94.5,6.16667 94.5,4.83333 94.5,3.5C 67.3282,3.83122 40.3282,3.49788 13.5,2.5 Z"/></g>
<g><path style="opacity:1" fill="#3a78d8" d="M 13.5,2.5 C 40.3282,3.49788 67.3282,3.83122 94.5,3.5C 94.5,4.83333 94.5,6.16667 94.5,7.5C 95.4026,17.4409 95.7359,27.4409 95.5,37.5C 93.4992,35.5193 91.1659,33.8526 88.5,32.5C 90.3529,31.2404 92.1862,31.2404 94,32.5C 94.4995,26.1754 94.6662,19.8421 94.5,13.5C 83.3797,12.4012 73.0464,12.4012 63.5,13.5C 45.8763,13.7659 28.2097,14.0992 10.5,14.5C 9.83333,20.8333 9.16667,27.1667 8.5,33.5C 8.86273,34.1835 9.19607,34.8501 9.5,35.5C 8.19376,36.4674 7.52709,37.8007 7.5,39.5C 6.16667,39.5 4.83333,39.5 3.5,39.5C 3.5,27.1667 3.5,14.8333 3.5,2.5C 6.83333,2.5 10.1667,2.5 13.5,2.5 Z"/></g>
<g><path style="opacity:1" fill="#3d75df" d="M 94.5,7.5 C 94.5,8.5 94.5,9.5 94.5,10.5C 68.1667,10.5 41.8333,10.5 15.5,10.5C 15.5,9.5 15.5,8.5 15.5,7.5C 41.8333,7.5 68.1667,7.5 94.5,7.5 Z"/></g>
<g><path style="opacity:1" fill="#3c76dc" d="M 95.5,37.5 C 95.5,38.8333 95.5,40.1667 95.5,41.5C 90.9879,44.1211 86.9879,43.2877 83.5,39C 82.2068,38.51 80.8734,38.3433 79.5,38.5C 75.961,34.0431 72.961,29.2098 70.5,24C 68.1902,23.5034 65.8568,23.3367 63.5,23.5C 63.5,24.5 63.5,25.5 63.5,26.5C 61.139,26.6741 58.8056,27.0074 56.5,27.5C 56.5,28.5 56.5,29.5 56.5,30.5C 54.5,30.5 52.5,30.5 50.5,30.5C 50.5,31.5 50.5,32.5 50.5,33.5C 48.8212,33.7148 47.8212,33.0481 47.5,31.5C 47.3398,29.8008 47.5065,28.1341 48,26.5C 49.4222,26.4057 50.9222,26.0724 52.5,25.5C 52.0393,20.5999 49.3726,18.5999 44.5,19.5C 44.5,18.1667 44.5,16.8333 44.5,15.5C 48.4674,15.032 51.9674,16.032 55,18.5C 58.8535,15.7355 63.0201,15.0689 67.5,16.5C 66.9598,17.7481 66.2931,18.9148 65.5,20C 68.1262,20.995 70.7929,21.3283 73.5,21C 72.5769,18.9592 72.2436,16.7925 72.5,14.5C 69.2869,14.81 66.2869,14.4767 63.5,13.5C 73.0464,12.4012 83.3797,12.4012 94.5,13.5C 94.6662,19.8421 94.4995,26.1754 94,32.5C 92.1862,31.2404 90.3529,31.2404 88.5,32.5C 91.1659,33.8526 93.4992,35.5193 95.5,37.5 Z"/></g>
<g><path style="opacity:1" fill="#3d75de" d="M 63.5,13.5 C 66.2869,14.4767 69.2869,14.81 72.5,14.5C 72.2436,16.7925 72.5769,18.9592 73.5,21C 70.7929,21.3283 68.1262,20.995 65.5,20C 66.2931,18.9148 66.9598,17.7481 67.5,16.5C 63.0201,15.0689 58.8535,15.7355 55,18.5C 51.9674,16.032 48.4674,15.032 44.5,15.5C 44.5,16.8333 44.5,18.1667 44.5,19.5C 49.3726,18.5999 52.0393,20.5999 52.5,25.5C 50.9222,26.0724 49.4222,26.4057 48,26.5C 47.5065,28.1341 47.3398,29.8008 47.5,31.5C 45.8002,31.6261 44.3002,32.2927 43,33.5C 39.8706,30.7083 36.704,27.875 33.5,25C 29.4282,24.0029 25.4282,23.8362 21.5,24.5C 21.1667,28.1667 19.1667,30.1667 15.5,30.5C 15.5,31.5 15.5,32.5 15.5,33.5C 13.3146,33.7036 11.3146,34.3702 9.5,35.5C 9.19607,34.8501 8.86273,34.1835 8.5,33.5C 9.16667,27.1667 9.83333,20.8333 10.5,14.5C 28.2097,14.0992 45.8763,13.7659 63.5,13.5 Z"/></g>
<g><path style="opacity:1" fill="#f9fbfa" d="M 79.5,38.5 C 82.3197,40.7451 85.3197,42.7451 88.5,44.5C 88.8333,45.1667 89.1667,45.8333 89.5,46.5C 86.6771,45.7834 84.0104,44.7834 81.5,43.5C 81.4332,45.4008 81.7665,47.2341 82.5,49C 82.0222,50.6424 81.0222,51.8091 79.5,52.5C 78.197,50.8577 76.8637,49.1911 75.5,47.5C 75.8719,44.9783 75.0386,42.9783 73,41.5C 72.5048,43.9897 71.0048,45.4897 68.5,46C 71.2223,49.6144 70.3889,50.781 66,49.5C 65.3333,52.1667 64.6667,52.1667 64,49.5C 62.4002,50.8659 60.5668,51.8659 58.5,52.5C 60.5,54.1667 62.5,55.8333 64.5,57.5C 63.9645,60.1052 63.7978,62.7718 64,65.5C 62.5701,65.3062 61.0701,65.3062 59.5,65.5C 58.4104,64.6086 58.4104,63.6086 59.5,62.5C 55.2934,58.5649 50.2934,56.5649 44.5,56.5C 44.0198,59.4432 43.0198,62.1098 41.5,64.5C 40.3172,64.8442 39.4839,64.1775 39,62.5C 38.6667,63.1667 38.3333,63.8333 38,64.5C 37.1004,63.2298 35.9337,62.2298 34.5,61.5C 36.5,60.5 38.5,59.5 40.5,58.5C 38.1397,55.6397 35.973,52.6397 34,49.5C 31.7724,50.2993 30.4391,49.2993 30,46.5C 28.3492,44.7898 26.5158,43.4564 24.5,42.5C 25.1217,41.3734 25.955,40.3734 27,39.5C 27.6208,35.7504 28.4542,32.0838 29.5,28.5C 28.448,28.3505 27.448,28.5172 26.5,29C 24.697,32.1033 22.5303,34.9367 20,37.5C 18.2745,36.536 16.4412,35.8693 14.5,35.5C 14.8333,34.8333 15.1667,34.1667 15.5,33.5C 19.7364,31.2774 23.7364,28.6107 27.5,25.5C 33.3467,29.5909 39.0133,33.9242 44.5,38.5C 52.3288,34.4199 59.9955,30.0865 67.5,25.5C 70.2317,28.6161 72.7317,31.9494 75,35.5C 76.129,37.1412 77.629,38.1412 79.5,38.5 Z"/></g>
<g><path style="opacity:1" fill="#456cb4" d="M 47.5,31.5 C 47.8212,33.0481 48.8212,33.7148 50.5,33.5C 50.5,32.5 50.5,31.5 50.5,30.5C 52.5,30.5 54.5,30.5 56.5,30.5C 56.5,29.5 56.5,28.5 56.5,27.5C 58.8056,27.0074 61.139,26.6741 63.5,26.5C 63.5,25.5 63.5,24.5 63.5,23.5C 65.8568,23.3367 68.1902,23.5034 70.5,24C 72.961,29.2098 75.961,34.0431 79.5,38.5C 77.629,38.1412 76.129,37.1412 75,35.5C 72.7317,31.9494 70.2317,28.6161 67.5,25.5C 59.9955,30.0865 52.3288,34.4199 44.5,38.5C 39.0133,33.9242 33.3467,29.5909 27.5,25.5C 23.7364,28.6107 19.7364,31.2774 15.5,33.5C 15.5,32.5 15.5,31.5 15.5,30.5C 19.1667,30.1667 21.1667,28.1667 21.5,24.5C 25.4282,23.8362 29.4282,24.0029 33.5,25C 36.704,27.875 39.8706,30.7083 43,33.5C 44.3002,32.2927 45.8002,31.6261 47.5,31.5 Z"/></g>
<g><path style="opacity:1" fill="#fafcf9" d="M 24.5,42.5 C 23.375,43.3478 23.375,44.3478 24.5,45.5C 23.448,45.6495 22.448,45.4828 21.5,45C 21.8333,44.6667 22.1667,44.3333 22.5,44C 19.2038,41.74 17.0372,42.5733 16,46.5C 15.6667,45.5 15.3333,44.5 15,43.5C 14.6667,43.8333 14.3333,44.1667 14,44.5C 13.5005,50.8246 13.3338,57.1579 13.5,63.5C 12.1667,63.5 10.8333,63.5 9.5,63.5C 9.73994,66.5788 9.40661,69.5788 8.5,72.5C 6.9435,74.7015 5.77683,74.7015 5,72.5C 4.61742,73.056 4.11742,73.3893 3.5,73.5C 2.46775,63.5224 2.30108,53.5224 3,43.5C 3.38258,42.944 3.88258,42.6107 4.5,42.5C 7.83333,40.1667 11.1667,37.8333 14.5,35.5C 16.4412,35.8693 18.2745,36.536 20,37.5C 22.5303,34.9367 24.697,32.1033 26.5,29C 27.448,28.5172 28.448,28.3505 29.5,28.5C 28.4542,32.0838 27.6208,35.7504 27,39.5C 25.955,40.3734 25.1217,41.3734 24.5,42.5 Z"/></g>
<g><path style="opacity:1" fill="#4a5251" d="M 0.5,0.5 C 1.16667,0.5 1.83333,0.5 2.5,0.5C 2.5,0.833333 2.5,1.16667 2.5,1.5C 1.33996,13.9933 1.17329,26.6599 2,39.5C 2.69794,40.6906 3.53128,41.6906 4.5,42.5C 3.88258,42.6107 3.38258,42.944 3,43.5C 2.30108,53.5224 2.46775,63.5224 3.5,73.5C 4.57778,76.4021 5.24444,79.4021 5.5,82.5C 4.88258,82.3893 4.38258,82.056 4,81.5C 3.12646,77.4648 2.12646,73.4648 1,69.5C 0.500035,46.5024 0.333368,23.5024 0.5,0.5 Z"/></g>
<g><path style="opacity:1" fill="#395e53" d="M 55.5,82.5 C 54.5442,80.1105 53.5442,77.6105 52.5,75C 52.4393,73.2894 53.1059,71.956 54.5,71C 53.4752,68.9285 52.6419,66.7619 52,64.5C 51.3109,63.6433 50.4776,62.9767 49.5,62.5C 47.4084,64.6049 45.0751,66.2716 42.5,67.5C 41.4937,67.0623 41.4937,66.3957 42.5,65.5C 44.8029,63.033 47.3029,60.6997 50,58.5C 52.9766,61.1306 55.4766,64.1306 57.5,67.5C 56.8333,68.1667 56.1667,68.8333 55.5,69.5C 56.5,70.8333 57.5,72.1667 58.5,73.5C 57.2713,74.2811 55.938,74.7811 54.5,75C 56.5435,76.708 58.2101,78.708 59.5,81C 57.9419,81.21 56.6085,81.71 55.5,82.5 Z"/></g>
<g><path style="opacity:1" fill="#f3f9f5" d="M 24.5,45.5 C 22.0011,48.1686 19.6677,51.0019 17.5,54C 18.8333,54.3333 20.1667,54.6667 21.5,55C 19.8248,56.7094 18.1581,58.3761 16.5,60C 18.1667,60.3333 19.8333,60.6667 21.5,61C 19.7193,63.2365 17.7193,65.2365 15.5,67C 17.1667,67.3333 18.8333,67.6667 20.5,68C 19.7476,68.6708 19.4142,69.5041 19.5,70.5C 12.5289,75.7668 13.5289,77.4335 22.5,75.5C 24.6884,81.386 23.355,86.0527 18.5,89.5C 17.1716,88.4928 16.1716,87.1595 15.5,85.5C 16.9299,85.6938 18.4299,85.6938 20,85.5C 21.0758,83.9328 21.9091,82.2662 22.5,80.5C 22.1322,79.09 21.2989,78.09 20,77.5C 17.0189,79.6181 14.3523,79.6181 12,77.5C 10.2382,77.9444 10.4049,78.4444 12.5,79C 9.69364,80.3051 8.86031,82.4718 10,85.5C 10.3333,85.1667 10.6667,84.8333 11,84.5C 11.3589,87.5443 12.0255,87.8776 13,85.5C 13.4952,87.9897 14.9952,89.4897 17.5,90C 16.3279,90.4186 15.3279,91.0853 14.5,92C 15.5981,92.7697 15.5981,93.603 14.5,94.5C 11.0134,90.8578 8.01337,86.8578 5.5,82.5C 5.24444,79.4021 4.57778,76.4021 3.5,73.5C 4.11742,73.3893 4.61742,73.056 5,72.5C 5.77683,74.7015 6.9435,74.7015 8.5,72.5C 9.40661,69.5788 9.73994,66.5788 9.5,63.5C 10.8333,63.5 12.1667,63.5 13.5,63.5C 13.3338,57.1579 13.5005,50.8246 14,44.5C 14.3333,44.1667 14.6667,43.8333 15,43.5C 15.3333,44.5 15.6667,45.5 16,46.5C 17.0372,42.5733 19.2038,41.74 22.5,44C 22.1667,44.3333 21.8333,44.6667 21.5,45C 22.448,45.4828 23.448,45.6495 24.5,45.5 Z"/></g>
<g><path style="opacity:1" fill="#f1f7f5" d="M 75.5,47.5 C 71.9199,49.4076 68.9199,52.0743 66.5,55.5C 67.5,56.1667 68.5,56.8333 69.5,57.5C 68.1667,59.1667 66.8333,60.8333 65.5,62.5C 66.8333,63.1667 68.1667,63.8333 69.5,64.5C 68.3523,66.1487 67.019,67.6487 65.5,69C 67.1667,69.3333 68.8333,69.6667 70.5,70C 68.2779,72.9562 65.9446,75.7895 63.5,78.5C 59.8828,79.5119 59.8828,81.0119 63.5,83C 62.0692,83.4652 60.9025,84.2986 60,85.5C 59.6582,83.3808 58.8249,83.0474 57.5,84.5C 57.1667,84.5 56.8333,84.5 56.5,84.5C 56.1667,83.8333 55.8333,83.1667 55.5,82.5C 56.6085,81.71 57.9419,81.21 59.5,81C 58.2101,78.708 56.5435,76.708 54.5,75C 55.938,74.7811 57.2713,74.2811 58.5,73.5C 57.5,72.1667 56.5,70.8333 55.5,69.5C 56.1667,68.8333 56.8333,68.1667 57.5,67.5C 55.4766,64.1306 52.9766,61.1306 50,58.5C 47.3029,60.6997 44.8029,63.033 42.5,65.5C 41.8333,65.5 41.5,65.1667 41.5,64.5C 43.0198,62.1098 44.0198,59.4432 44.5,56.5C 50.2934,56.5649 55.2934,58.5649 59.5,62.5C 58.4104,63.6086 58.4104,64.6086 59.5,65.5C 61.0701,65.3062 62.5701,65.3062 64,65.5C 63.7978,62.7718 63.9645,60.1052 64.5,57.5C 62.5,55.8333 60.5,54.1667 58.5,52.5C 60.5668,51.8659 62.4002,50.8659 64,49.5C 64.6667,52.1667 65.3333,52.1667 66,49.5C 70.3889,50.781 71.2223,49.6144 68.5,46C 71.0048,45.4897 72.5048,43.9897 73,41.5C 75.0386,42.9783 75.8719,44.9783 75.5,47.5 Z"/></g>
<g><path style="opacity:1" fill="#f6faf7" d="M 89.5,46.5 C 92.4921,48.1712 95.1587,50.1712 97.5,52.5C 99.4453,71.4272 93.4453,87.2606 79.5,100C 76.2729,102.112 72.9396,103.945 69.5,105.5C 67.5328,105.261 65.6995,105.594 64,106.5C 63.5439,105.256 64.0439,104.423 65.5,104C 64.5,103.667 63.5,103.333 62.5,103C 62.8333,102.667 63.1667,102.333 63.5,102C 61.5122,98.3343 58.5122,96.6676 54.5,97C 56.0368,98.1096 56.7035,99.6096 56.5,101.5C 54.7708,100.883 53.2708,99.8825 52,98.5C 51.502,95.5184 51.3354,92.5184 51.5,89.5C 54.5535,90.3211 57.5535,90.3211 60.5,89.5C 59.2371,87.9713 58.2371,86.3046 57.5,84.5C 58.8249,83.0474 59.6582,83.3808 60,85.5C 60.9025,84.2986 62.0692,83.4652 63.5,83C 59.8828,81.0119 59.8828,79.5119 63.5,78.5C 66.5,78.5 69.5,78.5 72.5,78.5C 72.665,81.8499 72.4983,85.1832 72,88.5C 71,89.5 70,90.5 69,91.5C 68.3123,92.3317 68.479,92.9984 69.5,93.5C 70.9285,92.065 72.5952,91.065 74.5,90.5C 83.2507,92.4421 84.084,91.4421 77,87.5C 76.1764,84.1177 76.343,80.7844 77.5,77.5C 80.4533,78.5924 83.4533,79.0924 86.5,79C 83.77,76.8699 81.77,74.2032 80.5,71C 81.8333,70.6667 83.1667,70.3333 84.5,70C 83.0716,67.8153 81.4049,65.8153 79.5,64C 80.938,63.7811 82.2713,63.2811 83.5,62.5C 82.1667,60.8333 80.8333,59.1667 79.5,57.5C 80.376,56.7492 81.376,56.2492 82.5,56C 81.2899,54.9609 80.2899,53.7942 79.5,52.5C 81.0222,51.8091 82.0222,50.6424 82.5,49C 81.7665,47.2341 81.4332,45.4008 81.5,43.5C 84.0104,44.7834 86.6771,45.7834 89.5,46.5 Z"/></g>
<g><path style="opacity:1" fill="#326556" d="M 24.5,45.5 C 27.5576,48.0514 30.5576,50.8847 33.5,54C 32.376,54.2492 31.376,54.7492 30.5,55.5C 31.624,56.914 32.624,58.414 33.5,60C 32.062,60.2189 30.7287,60.7189 29.5,61.5C 30.982,63.4829 32.6487,65.3163 34.5,67C 33.062,67.2189 31.7287,67.7189 30.5,68.5C 31.1272,69.4168 31.4606,70.4168 31.5,71.5C 31.5,72.8333 31.5,74.1667 31.5,75.5C 26.9538,75.7319 22.6205,74.8985 18.5,73C 19.2524,72.3292 19.5858,71.4959 19.5,70.5C 19.4142,69.5041 19.7476,68.6708 20.5,68C 18.8333,67.6667 17.1667,67.3333 15.5,67C 17.7193,65.2365 19.7193,63.2365 21.5,61C 19.8333,60.6667 18.1667,60.3333 16.5,60C 18.1581,58.3761 19.8248,56.7094 21.5,55C 20.1667,54.6667 18.8333,54.3333 17.5,54C 19.6677,51.0019 22.0011,48.1686 24.5,45.5 Z"/></g>
<g><path style="opacity:1" fill="#356255" d="M 75.5,47.5 C 76.8637,49.1911 78.197,50.8577 79.5,52.5C 80.2899,53.7942 81.2899,54.9609 82.5,56C 81.376,56.2492 80.376,56.7492 79.5,57.5C 80.8333,59.1667 82.1667,60.8333 83.5,62.5C 82.2713,63.2811 80.938,63.7811 79.5,64C 81.4049,65.8153 83.0716,67.8153 84.5,70C 83.1667,70.3333 81.8333,70.6667 80.5,71C 81.77,74.2032 83.77,76.8699 86.5,79C 83.4533,79.0924 80.4533,78.5924 77.5,77.5C 76.343,80.7844 76.1764,84.1177 77,87.5C 84.084,91.4421 83.2507,92.4421 74.5,90.5C 72.5952,91.065 70.9285,92.065 69.5,93.5C 68.479,92.9984 68.3123,92.3317 69,91.5C 70,90.5 71,89.5 72,88.5C 72.4983,85.1832 72.665,81.8499 72.5,78.5C 69.5,78.5 66.5,78.5 63.5,78.5C 65.9446,75.7895 68.2779,72.9562 70.5,70C 68.8333,69.6667 67.1667,69.3333 65.5,69C 67.019,67.6487 68.3523,66.1487 69.5,64.5C 68.1667,63.8333 66.8333,63.1667 65.5,62.5C 66.8333,60.8333 68.1667,59.1667 69.5,57.5C 68.5,56.8333 67.5,56.1667 66.5,55.5C 68.9199,52.0743 71.9199,49.4076 75.5,47.5 Z"/></g>
<g><path style="opacity:1" fill="#306a5a" d="M 55.5,82.5 C 55.8333,83.1667 56.1667,83.8333 56.5,84.5C 57.1712,85.8471 57.1712,87.0138 56.5,88C 52.8333,88.6667 49.1667,88.6667 45.5,88C 44.9781,87.4387 44.6448,86.772 44.5,86C 46.4543,84.2589 47.4543,82.0922 47.5,79.5C 46.325,79.719 45.325,79.3857 44.5,78.5C 45.1272,77.5832 45.4606,76.5832 45.5,75.5C 44.2825,74.8386 42.9492,74.1719 41.5,73.5C 42.5,72.1667 43.5,70.8333 44.5,69.5C 43.7573,68.8182 43.0906,68.1515 42.5,67.5C 45.0751,66.2716 47.4084,64.6049 49.5,62.5C 50.4776,62.9767 51.3109,63.6433 52,64.5C 52.6419,66.7619 53.4752,68.9285 54.5,71C 53.1059,71.956 52.4393,73.2894 52.5,75C 53.5442,77.6105 54.5442,80.1105 55.5,82.5 Z"/></g>
<g><path style="opacity:1" fill="#f5f9f6" d="M 24.5,42.5 C 26.5158,43.4564 28.3492,44.7898 30,46.5C 30.4391,49.2993 31.7724,50.2993 34,49.5C 35.973,52.6397 38.1397,55.6397 40.5,58.5C 38.5,59.5 36.5,60.5 34.5,61.5C 35.9337,62.2298 37.1004,63.2298 38,64.5C 38.3333,63.8333 38.6667,63.1667 39,62.5C 39.4839,64.1775 40.3172,64.8442 41.5,64.5C 41.5,65.1667 41.8333,65.5 42.5,65.5C 41.4937,66.3957 41.4937,67.0623 42.5,67.5C 43.0906,68.1515 43.7573,68.8182 44.5,69.5C 43.5,70.8333 42.5,72.1667 41.5,73.5C 42.9492,74.1719 44.2825,74.8386 45.5,75.5C 43.3702,77.1271 41.3702,78.9604 39.5,81C 41.2556,81.2022 42.9223,81.7022 44.5,82.5C 42.7267,85.0599 40.7267,87.3932 38.5,89.5C 41.1678,90.7378 43.8345,90.7378 46.5,89.5C 47.657,92.7844 47.8236,96.1177 47,99.5C 42.0808,106.336 42.7475,107.003 49,101.5C 52.0866,103.735 55.2533,103.901 58.5,102C 57.9056,101.536 57.2389,101.369 56.5,101.5C 56.7035,99.6096 56.0368,98.1096 54.5,97C 58.5122,96.6676 61.5122,98.3343 63.5,102C 63.1667,102.333 62.8333,102.667 62.5,103C 63.5,103.333 64.5,103.667 65.5,104C 64.0439,104.423 63.5439,105.256 64,106.5C 65.6995,105.594 67.5328,105.261 69.5,105.5C 55.5293,112.283 41.5293,112.117 27.5,105C 22.6888,102.015 18.3555,98.5151 14.5,94.5C 15.5981,93.603 15.5981,92.7697 14.5,92C 15.3279,91.0853 16.3279,90.4186 17.5,90C 14.9952,89.4897 13.4952,87.9897 13,85.5C 12.0255,87.8776 11.3589,87.5443 11,84.5C 10.6667,84.8333 10.3333,85.1667 10,85.5C 8.86031,82.4718 9.69364,80.3051 12.5,79C 10.4049,78.4444 10.2382,77.9444 12,77.5C 14.3523,79.6181 17.0189,79.6181 20,77.5C 21.2989,78.09 22.1322,79.09 22.5,80.5C 21.9091,82.2662 21.0758,83.9328 20,85.5C 18.4299,85.6938 16.9299,85.6938 15.5,85.5C 16.1716,87.1595 17.1716,88.4928 18.5,89.5C 18.369,90.2389 18.5357,90.9056 19,91.5C 23.0946,88.35 27.5946,87.5167 32.5,89C 31.1832,87.3409 29.5165,86.1743 27.5,85.5C 26.5159,82.5719 26.1826,79.5719 26.5,76.5C 29.5719,76.8174 32.5719,76.4841 35.5,75.5C 34.4787,73.812 33.1454,72.4787 31.5,71.5C 31.4606,70.4168 31.1272,69.4168 30.5,68.5C 31.7287,67.7189 33.062,67.2189 34.5,67C 32.6487,65.3163 30.982,63.4829 29.5,61.5C 30.7287,60.7189 32.062,60.2189 33.5,60C 32.624,58.414 31.624,56.914 30.5,55.5C 31.376,54.7492 32.376,54.2492 33.5,54C 30.5576,50.8847 27.5576,48.0514 24.5,45.5C 23.375,44.3478 23.375,43.3478 24.5,42.5 Z"/></g>
<g><path style="opacity:1" fill="#3c5a50" d="M 19.5,70.5 C 19.5858,71.4959 19.2524,72.3292 18.5,73C 22.6205,74.8985 26.9538,75.7319 31.5,75.5C 31.5,74.1667 31.5,72.8333 31.5,71.5C 33.1454,72.4787 34.4787,73.812 35.5,75.5C 32.5719,76.4841 29.5719,76.8174 26.5,76.5C 26.1826,79.5719 26.5159,82.5719 27.5,85.5C 29.5165,86.1743 31.1832,87.3409 32.5,89C 27.5946,87.5167 23.0946,88.35 19,91.5C 18.5357,90.9056 18.369,90.2389 18.5,89.5C 23.355,86.0527 24.6884,81.386 22.5,75.5C 13.5289,77.4335 12.5289,75.7668 19.5,70.5 Z"/></g>
<g><path style="opacity:1" fill="#f8fcf9" d="M -0.5,-0.5 C -0.166667,-0.5 0.166667,-0.5 0.5,-0.5C 0.5,-0.166667 0.5,0.166667 0.5,0.5C 0.333368,23.5024 0.500035,46.5024 1,69.5C 2.12646,73.4648 3.12646,77.4648 4,81.5C 4.38258,82.056 4.88258,82.3893 5.5,82.5C 9.77507,93.2821 17.1084,101.449 27.5,107C 33.2721,108.981 38.9388,110.814 44.5,112.5C 29.5,112.5 14.5,112.5 -0.5,112.5C -0.5,74.8333 -0.5,37.1667 -0.5,-0.5 Z"/></g>
<g><path style="opacity:1" fill="#f8fbf8" d="M 98.5,67.5 C 98.8333,67.5 99.1667,67.5 99.5,67.5C 99.5,82.5 99.5,97.5 99.5,112.5C 84.1667,112.5 68.8333,112.5 53.5,112.5C 71.5056,109.658 85.0056,100.324 94,84.5C 96.5965,79.1135 98.0965,73.4468 98.5,67.5 Z"/></g>
<g><path style="opacity:1" fill="#406157" d="M 45.5,75.5 C 45.4606,76.5832 45.1272,77.5832 44.5,78.5C 45.325,79.3857 46.325,79.719 47.5,79.5C 47.4543,82.0922 46.4543,84.2589 44.5,86C 44.6448,86.772 44.9781,87.4387 45.5,88C 49.1667,88.6667 52.8333,88.6667 56.5,88C 57.1712,87.0138 57.1712,85.8471 56.5,84.5C 56.8333,84.5 57.1667,84.5 57.5,84.5C 58.2371,86.3046 59.2371,87.9713 60.5,89.5C 57.5535,90.3211 54.5535,90.3211 51.5,89.5C 51.3354,92.5184 51.502,95.5184 52,98.5C 53.2708,99.8825 54.7708,100.883 56.5,101.5C 57.2389,101.369 57.9056,101.536 58.5,102C 55.2533,103.901 52.0866,103.735 49,101.5C 42.7475,107.003 42.0808,106.336 47,99.5C 47.8236,96.1177 47.657,92.7844 46.5,89.5C 43.8345,90.7378 41.1678,90.7378 38.5,89.5C 40.7267,87.3932 42.7267,85.0599 44.5,82.5C 42.9223,81.7022 41.2556,81.2022 39.5,81C 41.3702,78.9604 43.3702,77.1271 45.5,75.5 Z"/></g>
<g><path style="opacity:1" fill="#464e49" d="M 97.5,51.5 C 97.8333,51.5 98.1667,51.5 98.5,51.5C 98.5,56.8333 98.5,62.1667 98.5,67.5C 98.0965,73.4468 96.5965,79.1135 94,84.5C 85.0056,100.324 71.5056,109.658 53.5,112.5C 50.5,112.5 47.5,112.5 44.5,112.5C 38.9388,110.814 33.2721,108.981 27.5,107C 17.1084,101.449 9.77507,93.2821 5.5,82.5C 8.01337,86.8578 11.0134,90.8578 14.5,94.5C 18.3555,98.5151 22.6888,102.015 27.5,105C 41.5293,112.117 55.5293,112.283 69.5,105.5C 72.9396,103.945 76.2729,102.112 79.5,100C 93.4453,87.2606 99.4453,71.4272 97.5,52.5C 97.5,52.1667 97.5,51.8333 97.5,51.5 Z"/></g>
</svg>
