<?xml version="1.0" encoding="UTF-8"?>
<!DOCTYPE svg PUBLIC "-//W3C//DTD SVG 1.1//EN" "http://www.w3.org/Graphics/SVG/1.1/DTD/svg11.dtd">
<svg xmlns="http://www.w3.org/2000/svg" version="1.1" width="482px" height="562px" style="shape-rendering:geometricPrecision; text-rendering:geometricPrecision; image-rendering:optimizeQuality; fill-rule:evenodd; clip-rule:evenodd" xmlns:xlink="http://www.w3.org/1999/xlink">
<g><path style="opacity:1" fill="#060708" d="M -0.5,-0.5 C 160.167,-0.5 320.833,-0.5 481.5,-0.5C 481.5,112.167 481.5,224.833 481.5,337.5C 476.347,394.126 455.514,444.126 419,487.5C 387.182,521.667 348.349,543.834 302.5,554C 286.814,557.31 271.147,559.81 255.5,561.5C 244.833,561.5 234.167,561.5 223.5,561.5C 102.02,549.197 28.5201,483.197 3,363.5C 1.76743,355.696 0.600758,348.029 -0.5,340.5C -0.5,226.833 -0.5,113.167 -0.5,-0.5 Z"/></g>
<g><path style="opacity:1" fill="#dedfe6" d="M 473.5,6.5 C 473.5,53.1667 473.5,99.8333 473.5,146.5C 460.167,146.5 446.833,146.5 433.5,146.5C 411.481,148.004 397.148,138.338 390.5,117.5C 385.695,133.467 375.028,142.967 358.5,146C 333.523,147.552 308.523,147.885 283.5,147C 270.138,147.77 258.638,143.603 249,134.5C 245.586,129.005 242.753,123.339 240.5,117.5C 233.536,137.676 219.203,147.51 197.5,147C 171.813,147.864 146.147,147.531 120.5,146C 104.751,142.415 94.7513,132.915 90.5,117.5C 83.9068,138.161 69.5735,147.994 47.5,147C 33.8374,147.5 20.1707,147.667 6.5,147.5C 6.5,100.5 6.5,53.5 6.5,6.5C 162.167,6.5 317.833,6.5 473.5,6.5 Z"/></g>
<g><path style="opacity:1" fill="#929397" d="M 473.5,6.5 C 474.499,53.3304 474.832,100.33 474.5,147.5C 460.656,147.829 446.99,147.496 433.5,146.5C 446.833,146.5 460.167,146.5 473.5,146.5C 473.5,99.8333 473.5,53.1667 473.5,6.5 Z"/></g>
<g><path style="opacity:1" fill="#160d0c" d="M 78.5,16.5 C 105.147,13.5401 126.647,22.5401 143,43.5C 154.743,64.8702 154.077,85.8702 141,106.5C 135.019,114.322 127.186,118.988 117.5,120.5C 102.579,118.745 96.0791,110.412 98,95.5C 105.057,81.8926 115.89,77.5592 130.5,82.5C 131.712,76.9125 134.379,72.0792 138.5,68C 132.522,66.0131 127.688,62.5131 124,57.5C 121.945,62.8878 118.445,67.0544 113.5,70C 107.523,73.2433 101.19,75.4099 94.5,76.5C 93.7993,63.2944 97.1326,51.2944 104.5,40.5C 98.1667,37.5 93.5,32.8333 90.5,26.5C 87.5,32.8333 82.8333,37.5 76.5,40.5C 83.8674,51.2944 87.2007,63.2944 86.5,76.5C 73.2195,75.2897 63.3861,68.9564 57,57.5C 53.3118,62.5131 48.4784,66.0131 42.5,68C 46.3934,72.2884 49.3934,77.1217 51.5,82.5C 63.4155,78.6047 73.2489,81.6047 81,91.5C 85.5911,112.907 77.0911,122.074 55.5,119C 40.4015,110.661 31.9015,97.8278 30,80.5C 28.0845,56.4976 37.2512,37.9976 57.5,25C 64.3422,21.4495 71.3422,18.6162 78.5,16.5 Z"/></g>
<g><path style="opacity:1" fill="#160e0e" d="M 228.5,16.5 C 260.324,12.9906 283.491,25.3239 298,53.5C 304.284,72.8466 301.617,90.8466 290,107.5C 282.118,117.68 271.951,121.513 259.5,119C 246.978,112.067 244.144,102.233 251,89.5C 259.251,80.4925 269.084,78.1592 280.5,82.5C 281.358,76.9508 283.691,72.1175 287.5,68C 282.093,65.5842 277.593,62.0842 274,57.5C 271.559,63.6076 267.392,68.1076 261.5,71C 256.074,73.6058 250.408,75.4392 244.5,76.5C 243.182,63.0923 246.516,51.0923 254.5,40.5C 248.552,37.5519 243.885,33.2185 240.5,27.5C 237.142,33.1899 232.475,37.5232 226.5,40.5C 234.181,51.2143 237.514,63.2143 236.5,76.5C 223.664,75.0875 213.664,69.0875 206.5,58.5C 204.35,60.1491 202.35,61.9824 200.5,64C 197.798,65.3399 195.131,66.6733 192.5,68C 196.856,71.8775 199.189,76.7109 199.5,82.5C 213.648,77.7389 224.481,81.7389 232,94.5C 233.841,114.168 225.008,122.334 205.5,119C 188.022,108.391 179.356,92.7246 179.5,72C 180.612,51.4441 189.945,35.7774 207.5,25C 214.342,21.4495 221.342,18.6162 228.5,16.5 Z"/></g>
<g><path style="opacity:1" fill="#160e0e" d="M 378.5,16.5 C 411.871,12.9242 435.371,26.2575 449,56.5C 455.25,80.3646 449.084,100.198 430.5,116C 420.007,122.499 410.174,121.666 401,113.5C 393.211,97.5767 397.711,86.7434 414.5,81C 419.996,80.151 425.329,80.651 430.5,82.5C 431.358,76.9508 433.691,72.1175 437.5,68C 431.926,65.8061 427.426,62.3061 424,57.5C 419.877,65.6672 413.377,71.1672 404.5,74C 401.176,74.9428 397.843,75.7761 394.5,76.5C 393.486,63.0356 396.819,50.8689 404.5,40C 398.081,37.2495 393.248,32.7495 390,26.5C 387.363,32.9699 382.863,37.6365 376.5,40.5C 383.561,51.0731 386.727,62.7398 386,75.5C 373.387,74.9355 363.554,69.2689 356.5,58.5C 354.35,60.1491 352.35,61.9824 350.5,64C 347.798,65.3399 345.131,66.6733 342.5,68C 346.856,71.8775 349.189,76.7109 349.5,82.5C 363.648,77.7389 374.481,81.7389 382,94.5C 383.857,114.163 375.023,122.329 355.5,119C 337.93,109.037 329.263,93.8706 329.5,73.5C 330.185,52.2924 339.518,36.1257 357.5,25C 364.342,21.4495 371.342,18.6162 378.5,16.5 Z"/></g>
<g><path style="opacity:1" fill="#de0512" d="M 79.5,19.5 C 82.5,19.5 85.5,19.5 88.5,19.5C 87.1246,29.8713 81.4579,36.538 71.5,39.5C 80.7685,48.9733 84.4352,60.3066 82.5,73.5C 74.4987,71.4188 67.6653,67.4188 62,61.5C 60.2229,58.2801 58.7229,54.9467 57.5,51.5C 53.4974,59.1492 47.164,63.8158 38.5,65.5C 41.4228,69.9651 44.2562,74.6317 47,79.5C 47.4966,81.8098 47.6633,84.1432 47.5,86.5C 61.5946,79.7733 72.428,83.1067 80,96.5C 81.1667,111.333 74.3333,118.167 59.5,117C 44.3153,110.499 35.482,98.9994 33,82.5C 30.1336,58.3999 38.9669,39.8999 59.5,27C 65.9603,23.5884 72.627,21.0884 79.5,19.5 Z"/></g>
<g><path style="opacity:1" fill="#de0512" d="M 92.5,19.5 C 121.036,20.8678 139.536,35.2012 148,62.5C 151.267,82.0314 145.767,98.5314 131.5,112C 120.893,119.944 111.059,119.111 102,109.5C 98.0827,94.3455 103.916,85.6788 119.5,83.5C 124.329,83.8748 128.996,84.8748 133.5,86.5C 133.337,84.1432 133.503,81.8098 134,79.5C 136.744,74.6317 139.577,69.9651 142.5,65.5C 133.836,63.8158 127.503,59.1492 123.5,51.5C 119.103,63.7086 110.436,70.7086 97.5,72.5C 96.7731,59.6724 100.773,48.6724 109.5,39.5C 99.4718,36.4765 93.8052,29.8098 92.5,19.5 Z"/></g>
<g><path style="opacity:1" fill="#de0512" d="M 229.5,19.5 C 232.5,19.5 235.5,19.5 238.5,19.5C 237.125,29.8713 231.458,36.538 221.5,39.5C 230.715,49.0211 234.381,60.3544 232.5,73.5C 219.805,70.9194 211.305,63.586 207,51.5C 203.274,59.3933 197.107,64.06 188.5,65.5C 189.264,68.787 191.097,71.4537 194,73.5C 196.863,77.3798 198.03,81.7132 197.5,86.5C 209.257,80.8498 219.424,82.8498 228,92.5C 231.906,101.442 230.073,108.942 222.5,115C 214.777,118.785 207.444,118.118 200.5,113C 180.06,93.1319 176.56,70.6319 190,45.5C 199.821,31.6777 212.988,23.0111 229.5,19.5 Z"/></g>
<g><path style="opacity:1" fill="#de0512" d="M 242.5,19.5 C 271.322,21.1594 289.822,35.8261 298,63.5C 301.127,84.2353 294.627,101.069 278.5,114C 268.316,119.628 259.483,118.128 252,109.5C 247.631,94.2333 253.298,85.5666 269,83.5C 274.007,83.7946 278.841,84.7946 283.5,86.5C 283.682,78.6258 286.682,71.9591 292.5,66.5C 283.934,64.0822 277.6,59.0822 273.5,51.5C 269.283,63.6539 260.617,70.6539 247.5,72.5C 246.719,59.9334 250.386,48.9334 258.5,39.5C 253.272,37.2873 248.772,33.9539 245,29.5C 243.241,26.3924 242.408,23.059 242.5,19.5 Z"/></g>
<g><path style="opacity:1" fill="#de0512" d="M 377.5,19.5 C 381.167,19.5 384.833,19.5 388.5,19.5C 387.119,29.8761 381.453,36.5427 371.5,39.5C 380.714,49.0166 384.38,60.3499 382.5,73.5C 369.753,70.9051 361.253,63.5718 357,51.5C 353.25,59.4231 347.083,64.0897 338.5,65.5C 338.351,66.552 338.517,67.552 339,68.5C 344.801,73.1022 347.635,79.1022 347.5,86.5C 360.382,80.3076 370.882,82.9742 379,94.5C 381.878,110.931 375.045,118.431 358.5,117C 344.925,110.721 336.425,100.221 333,85.5C 329.635,51.2309 344.468,29.2309 377.5,19.5 Z"/></g>
<g><path style="opacity:1" fill="#de0512" d="M 399.5,72.5 C 397.744,71.4479 397.077,69.7812 397.5,67.5C 397.642,56.7347 401.308,47.4013 408.5,39.5C 399.274,35.9349 393.607,29.2682 391.5,19.5C 420.759,20.8696 439.592,35.5363 448,63.5C 450.915,84.1058 444.415,100.939 428.5,114C 419.368,119.17 410.868,118.337 403,111.5C 396.955,95.585 402.288,86.2517 419,83.5C 424.058,83.8096 428.892,84.8096 433.5,86.5C 433.336,83.8127 433.503,81.146 434,78.5C 436.588,74.3244 439.421,70.3244 442.5,66.5C 433.684,64.5978 427.351,59.5978 423.5,51.5C 419.786,63.0754 411.786,70.0754 399.5,72.5 Z"/></g>
<g><path style="opacity:1" fill="#510207" d="M 397.5,67.5 C 397.077,69.7812 397.744,71.4479 399.5,72.5C 398.791,73.404 397.791,73.7373 396.5,73.5C 396.205,71.2646 396.539,69.2646 397.5,67.5 Z"/></g>
<g><path style="opacity:1" fill="#dd0512" d="M 410.5,145.5 C 396.833,146.833 383.167,146.833 369.5,145.5C 379.514,141.652 386.347,134.652 390,124.5C 393.679,134.678 400.512,141.678 410.5,145.5 Z"/></g>
<g><path style="opacity:1" fill="#db0512" d="M 110.5,145.5 C 97.1667,146.833 83.8333,146.833 70.5,145.5C 79.4784,141.188 86.1451,134.522 90.5,125.5C 94.8549,134.522 101.522,141.188 110.5,145.5 Z"/></g>
<g><path style="opacity:1" fill="#dc0512" d="M 260.5,145.5 C 247.167,146.833 233.833,146.833 220.5,145.5C 229.478,141.188 236.145,134.522 240.5,125.5C 244.207,135.207 250.874,141.874 260.5,145.5 Z"/></g>
<g><path style="opacity:1" fill="#4f0106" d="M 70.5,145.5 C 83.8333,146.833 97.1667,146.833 110.5,145.5C 111.473,145.987 112.473,146.487 113.5,147C 98.1667,147.667 82.8333,147.667 67.5,147C 68.5266,146.487 69.5266,145.987 70.5,145.5 Z"/></g>
<g><path style="opacity:1" fill="#4e0106" d="M 220.5,145.5 C 233.833,146.833 247.167,146.833 260.5,145.5C 261.473,145.987 262.473,146.487 263.5,147C 248.167,147.667 232.833,147.667 217.5,147C 218.244,145.961 219.244,145.461 220.5,145.5 Z"/></g>
<g><path style="opacity:1" fill="#290103" d="M 369.5,145.5 C 383.167,146.833 396.833,146.833 410.5,145.5C 411.289,145.783 411.956,146.283 412.5,147C 397.822,147.833 383.155,147.666 368.5,146.5C 368.624,145.893 368.957,145.56 369.5,145.5 Z"/></g>
<g><path style="opacity:1" fill="#d8d9e0" d="M 433.5,150.5 C 446.833,150.5 460.167,150.5 473.5,150.5C 473.5,151.833 473.5,153.167 473.5,154.5C 423.833,154.5 374.167,154.5 324.5,154.5C 218.5,154.5 112.5,154.5 6.5,154.5C 6.5,152.833 6.5,151.167 6.5,149.5C 148.831,150.182 291.164,150.515 433.5,150.5 Z"/></g>
<g><path style="opacity:1" fill="#727376" d="M 433.5,150.5 C 446.99,149.504 460.656,149.171 474.5,149.5C 474.5,151.5 474.5,153.5 474.5,155.5C 424.331,155.832 374.331,155.499 324.5,154.5C 374.167,154.5 423.833,154.5 473.5,154.5C 473.5,153.167 473.5,151.833 473.5,150.5C 460.167,150.5 446.833,150.5 433.5,150.5 Z"/></g>
<g><path style="opacity:1" fill="#002748" d="M 322.5,158.5 C 297.328,158.169 272.328,158.502 247.5,159.5C 246.957,159.44 246.624,159.107 246.5,158.5C 271.997,157.171 297.33,157.171 322.5,158.5 Z"/></g>
<g><path style="opacity:1" fill="#dfe0e7" d="M 6.5,158.5 C 55.8333,158.5 105.167,158.5 154.5,158.5C 154.833,285.334 154.5,412.001 153.5,538.5C 103.855,521.428 66.0212,490.094 40,444.5C 21.4108,410.479 10.4108,374.146 7,335.5C 6.50001,276.501 6.33334,217.501 6.5,158.5 Z"/></g>
<g><path style="opacity:1" fill="#b6b7bc" d="M 6.5,158.5 C 55.9972,157.501 105.664,157.168 155.5,157.5C 155.833,284.835 155.5,412.168 154.5,539.5C 153.893,539.376 153.56,539.043 153.5,538.5C 154.5,412.001 154.833,285.334 154.5,158.5C 105.167,158.5 55.8333,158.5 6.5,158.5 Z"/></g>
<g><path style="opacity:1" fill="#001c34" d="M 158.5,158.5 C 158.168,198.67 158.501,238.67 159.5,278.5C 159.509,280.308 159.009,281.975 158,283.5C 157.169,241.665 157.335,199.998 158.5,158.5 Z"/></g>
<g><path style="opacity:1" fill="#005ca8" d="M 158.5,158.5 C 183.502,158.333 208.502,158.5 233.5,159C 192.009,188.099 167.342,227.932 159.5,278.5C 158.501,238.67 158.168,198.67 158.5,158.5 Z"/></g>
<g><path style="opacity:1" fill="#005ca7" d="M 247.5,159.5 C 272.328,158.502 297.328,158.169 322.5,158.5C 322.667,198.835 322.5,239.168 322,279.5C 314.562,236.115 294.729,199.615 262.5,170C 257.62,166.28 252.62,162.78 247.5,159.5 Z"/></g>
<g><path style="opacity:1" fill="#e0e1e8" d="M 325.5,158.5 C 374.833,158.5 424.167,158.5 473.5,158.5C 473.5,217.5 473.5,276.5 473.5,335.5C 468.897,395.513 446.23,447.346 405.5,491C 382.713,512.737 356.38,528.904 326.5,539.5C 325.5,412.502 325.167,285.502 325.5,158.5 Z"/></g>
<g><path style="opacity:1" fill="#95959a" d="M 325.5,158.5 C 374.997,157.501 424.664,157.168 474.5,157.5C 474.832,217.002 474.499,276.336 473.5,335.5C 473.5,276.5 473.5,217.5 473.5,158.5C 424.167,158.5 374.833,158.5 325.5,158.5 Z"/></g>
<g><path style="opacity:1" fill="#005ba6" d="M 309.5,544.5 C 308.833,466.5 308.167,388.5 307.5,310.5C 305.873,297.921 299.04,289.587 287,285.5C 292.327,273.315 289.161,263.982 277.5,257.5C 265.107,263.472 262.107,272.638 268.5,285C 257.166,288.488 250,295.988 247,307.5C 246.5,389.833 246.333,472.166 246.5,554.5C 242.5,554.5 238.5,554.5 234.5,554.5C 234.667,472.499 234.5,390.499 234,308.5C 230.872,296.872 223.705,288.872 212.5,284.5C 218.481,272.444 215.481,263.444 203.5,257.5C 191.671,263.502 188.671,272.502 194.5,284.5C 183.188,288.807 176.188,296.807 173.5,308.5C 172.833,387.167 172.167,465.833 171.5,544.5C 167.429,543.816 163.429,542.816 159.5,541.5C 158.333,461.502 158.167,381.502 159,301.5C 162.523,246.804 185.023,201.971 226.5,167C 230.744,163.756 235.244,160.922 240,158.5C 258.102,168.929 273.436,182.595 286,199.5C 306.906,229.877 318.906,263.544 322,300.5C 322.5,380.833 322.667,461.166 322.5,541.5C 318.051,542.029 313.718,543.029 309.5,544.5 Z"/></g>
<g><path style="opacity:1" fill="#0c0c0c" d="M 237.5,168.5 C 246.659,169.5 253.992,173.666 259.5,181C 256.609,183.795 253.276,186.128 249.5,188C 246.267,191.233 243.1,194.4 240,197.5C 234.731,190.622 228.231,185.289 220.5,181.5C 225.297,175.945 230.964,171.612 237.5,168.5 Z"/></g>
<g><path style="opacity:1" fill="#c19930" d="M 237.5,171.5 C 244.582,172.375 250.582,175.375 255.5,180.5C 249.614,183.713 244.614,188.046 240.5,193.5C 236.151,188.149 230.818,183.982 224.5,181C 228.455,177.197 232.788,174.03 237.5,171.5 Z"/></g>
<g><path style="opacity:1" fill="#0b0b0a" d="M 219.5,198.5 C 235.754,198.565 238.087,204.398 226.5,216C 225.207,216.49 223.873,216.657 222.5,216.5C 222.202,219.265 221.202,221.765 219.5,224C 203.742,232.753 190.075,244.086 178.5,258C 177.552,258.483 176.552,258.649 175.5,258.5C 179.928,240.976 187.095,224.643 197,209.5C 201.906,202.275 208.739,199.441 217.5,201C 218.381,200.292 219.047,199.458 219.5,198.5 Z"/></g>
<g><path style="opacity:1" fill="#0a0b0b" d="M 253.5,198.5 C 260.528,200.762 267.861,201.929 275.5,202C 278.295,203.793 280.795,205.96 283,208.5C 293.193,223.556 300.693,239.89 305.5,257.5C 304.635,258.583 303.635,258.749 302.5,258C 291.255,244.417 277.921,233.417 262.5,225C 260.338,223.355 259.005,221.188 258.5,218.5C 252.172,215.498 248.505,210.498 247.5,203.5C 248.934,201.058 250.934,199.392 253.5,198.5 Z"/></g>
<g><path style="opacity:1" fill="#c19930" d="M 220.5,201.5 C 231.929,201.511 233.262,205.678 224.5,214C 223.101,214.595 221.768,214.428 220.5,213.5C 219.867,216.495 218.867,219.328 217.5,222C 203.332,229.337 191.166,239.17 181,251.5C 185.277,235.609 192.277,220.942 202,207.5C 206.353,203.191 211.186,202.524 216.5,205.5C 217.854,204.146 219.188,202.812 220.5,201.5 Z"/></g>
<g><path style="opacity:1" fill="#c19930" d="M 252.5,201.5 C 257.334,200.59 261.334,201.923 264.5,205.5C 267.289,203.702 270.289,203.202 273.5,204C 276.295,205.793 278.795,207.96 281,210.5C 289.807,223.108 296.14,236.775 300,251.5C 295.5,245.667 290.333,240.5 284.5,236C 277.261,230.463 269.761,225.296 262,220.5C 261.814,218.1 261.314,215.766 260.5,213.5C 257.138,214.909 254.638,213.909 253,210.5C 250.229,207.466 250.063,204.466 252.5,201.5 Z"/></g>
<g><path style="opacity:1" fill="#070a0e" d="M 72.5,225.5 C 75.5,225.5 78.5,225.5 81.5,225.5C 81.8331,250.509 81.4998,275.509 80.5,300.5C 75.188,294.88 71.688,288.213 70,280.5C 67.7675,272.35 66.9342,264.016 67.5,255.5C 69.1667,255.5 70.8333,255.5 72.5,255.5C 72.5,245.5 72.5,235.5 72.5,225.5 Z"/></g>
<g><path style="opacity:1" fill="#06090d" d="M 86.5,225.5 C 89.5,225.5 92.5,225.5 95.5,225.5C 95.5,235.5 95.5,245.5 95.5,255.5C 97.1667,255.5 98.8333,255.5 100.5,255.5C 101.182,269.592 98.3483,282.926 92,295.5C 90.4905,297.208 88.9905,298.874 87.5,300.5C 86.5002,275.509 86.1669,250.509 86.5,225.5 Z"/></g>
<g><path style="opacity:1" fill="#005aa4" d="M 78.5,228.5 C 78.8306,250.007 78.4973,271.34 77.5,292.5C 72.4191,281.768 69.7524,270.434 69.5,258.5C 71.4672,258.739 73.3005,258.406 75,257.5C 75.4998,247.839 75.6665,238.172 75.5,228.5C 76.5,228.5 77.5,228.5 78.5,228.5 Z"/></g>
<g><path style="opacity:1" fill="#003b6d" d="M 78.5,228.5 C 79.6629,250.329 79.8295,272.329 79,294.5C 78.2828,293.956 77.7828,293.289 77.5,292.5C 78.4973,271.34 78.8306,250.007 78.5,228.5 Z"/></g>
<g><path style="opacity:1" fill="#003867" d="M 89.5,228.5 C 89.1694,250.007 89.5027,271.34 90.5,292.5C 90.2172,293.289 89.7172,293.956 89,294.5C 88.1705,272.329 88.3371,250.329 89.5,228.5 Z"/></g>
<g><path style="opacity:1" fill="#005ba5" d="M 89.5,228.5 C 90.5,228.5 91.5,228.5 92.5,228.5C 92.3335,238.172 92.5002,247.839 93,257.5C 94.6995,258.406 96.5328,258.739 98.5,258.5C 98.0299,270.379 95.3632,281.712 90.5,292.5C 89.5027,271.34 89.1694,250.007 89.5,228.5 Z"/></g>
<g><path style="opacity:1" fill="#0c0f13" d="M 361.5,237.5 C 377.015,239.17 392.181,242.503 407,247.5C 414.421,245.744 421.921,245.244 429.5,246C 439.252,250.334 443.085,257.834 441,268.5C 439.848,273.454 439.014,278.454 438.5,283.5C 438.833,285.5 439.167,287.5 439.5,289.5C 445.109,284.939 447.609,286.272 447,293.5C 445.878,295.624 444.378,297.457 442.5,299C 439.333,299.252 436.333,299.418 433.5,299.5C 437.746,321.871 434.58,343.204 424,363.5C 421.955,366.423 419.788,369.257 417.5,372C 403.167,372.667 388.833,372.667 374.5,372C 359.702,352.975 353.535,331.475 356,307.5C 360.33,294.511 364.663,281.511 369,268.5C 370.929,263.151 370.929,257.818 369,252.5C 366.452,247.405 363.952,242.405 361.5,237.5 Z"/></g>
<g><path style="opacity:1" fill="#005ca7" d="M 366.5,242.5 C 368.966,241.366 371.633,241.199 374.5,242C 385.789,244.447 396.955,247.28 408,250.5C 411.642,250.287 415.142,249.453 418.5,248C 427.335,246.501 433.835,249.668 438,257.5C 437.656,268.199 436.99,278.866 436,289.5C 438.158,292.95 440.658,293.283 443.5,290.5C 444.573,294.448 442.907,296.448 438.5,296.5C 434.173,295.67 431.673,293.003 431,288.5C 430.402,280.437 430.902,272.437 432.5,264.5C 433.299,256.254 429.633,253.087 421.5,255C 417.788,257.602 416.622,261.102 418,265.5C 422.56,275.285 426.56,285.285 430,295.5C 436.356,322.011 431.856,346.511 416.5,369C 402.821,369.833 389.154,369.666 375.5,368.5C 362.915,351.577 357.081,332.577 358,311.5C 363.573,294.783 368.739,277.95 373.5,261C 372.823,254.126 370.489,247.959 366.5,242.5 Z"/></g>
<g><path style="opacity:1" fill="#0c0c0b" d="M 227.5,242.5 C 232.092,242.398 236.425,243.398 240.5,245.5C 247.167,241.609 253.833,241.775 260.5,246C 261.574,246.739 262.241,247.739 262.5,249C 260.564,255.105 256.564,258.938 250.5,260.5C 251.596,270.161 247.929,276.994 239.5,281C 232.722,276.276 229.555,269.776 230,261.5C 225,259.167 221.333,255.5 219,250.5C 218.219,249.056 218.386,247.723 219.5,246.5C 221.991,244.588 224.658,243.254 227.5,242.5 Z"/></g>
<g><path style="opacity:1" fill="#c29a30" d="M 225.5,245.5 C 230.68,245.081 235.514,246.081 240,248.5C 246.097,244.784 252.263,244.617 258.5,248C 258.528,251.591 256.861,254.591 253.5,257C 251.323,258.202 248.989,258.702 246.5,258.5C 249.237,266.395 247.237,272.729 240.5,277.5C 233.63,272.818 231.63,266.485 234.5,258.5C 228.304,258.319 223.97,255.319 221.5,249.5C 222.867,248.16 224.2,246.827 225.5,245.5 Z"/></g>
<g><path style="opacity:1" fill="#0e1013" d="M 37.5,257.5 C 45.8333,257.5 54.1667,257.5 62.5,257.5C 62.6541,276.469 68.8207,293.136 81,307.5C 81.3333,311.5 81.6667,315.5 82,319.5C 83.3333,320.833 84.6667,320.833 86,319.5C 86.3333,315.5 86.6667,311.5 87,307.5C 98.9529,293.053 105.12,276.386 105.5,257.5C 116.907,257.155 128.241,257.822 139.5,259.5C 132.212,297.73 117.045,332.397 94,363.5C 90.6457,366.938 87.3123,370.272 84,373.5C 75.605,365.431 68.2717,356.431 62,346.5C 45.8376,320.169 34.671,291.836 28.5,261.5C 28.8178,260.353 29.4844,259.519 30.5,259C 33.0356,258.814 35.369,258.314 37.5,257.5 Z"/></g>
<g><path style="opacity:1" fill="#d6d7dd" d="M 422.5,257.5 C 424.792,257.244 426.959,257.577 429,258.5C 429.617,265.869 429.283,273.202 428,280.5C 423.262,274.285 420.928,267.285 421,259.5C 421.717,258.956 422.217,258.289 422.5,257.5 Z"/></g>
<g><path style="opacity:1" fill="#005ba7" d="M 50.5,259.5 C 53.5,259.5 56.5,259.5 59.5,259.5C 60.4428,278.704 66.9428,295.704 79,310.5C 79.3333,314.167 79.6667,317.833 80,321.5C 82.6667,324.167 85.3333,324.167 88,321.5C 88.2727,316.771 88.9393,312.104 90,307.5C 101.148,293.905 107.315,278.238 108.5,260.5C 117.846,260.538 127.18,260.871 136.5,261.5C 128.445,302.563 110.945,338.896 84,370.5C 56.9008,338.963 39.4008,302.63 31.5,261.5C 38.0003,261.064 44.3337,260.398 50.5,259.5 Z"/></g>
<g><path style="opacity:1" fill="#c69d31" d="M 231.5,313.5 C 231.5,393.5 231.5,473.5 231.5,553.5C 229.5,553.5 227.5,553.5 225.5,553.5C 208.622,552.66 191.956,550.327 175.5,546.5C 175.333,467.166 175.5,387.833 176,308.5C 179.183,296.815 186.683,289.815 198.5,287.5C 197.372,284.562 196.205,281.562 195,278.5C 193.265,270.305 196.098,264.305 203.5,260.5C 211.207,264.585 214.04,270.918 212,279.5C 210.519,282.11 209.352,284.777 208.5,287.5C 222.551,290.549 230.217,299.216 231.5,313.5 Z"/></g>
<g><path style="opacity:1" fill="#c59d31" d="M 255.5,553.5 C 253.5,553.5 251.5,553.5 249.5,553.5C 249.5,473.167 249.5,392.833 249.5,312.5C 250.583,298.667 257.917,290.333 271.5,287.5C 270.908,284.309 269.741,281.309 268,278.5C 266.767,271.127 269.267,265.294 275.5,261C 283.597,263.323 287.097,268.823 286,277.5C 285.31,280.526 284.143,283.359 282.5,286C 294.382,289.55 301.882,297.383 305,309.5C 305.5,388.499 305.667,467.499 305.5,546.5C 288.982,549.764 272.316,552.098 255.5,553.5 Z"/></g>
<g><path style="opacity:1" fill="#251d09" d="M 231.5,313.5 C 232.499,393.665 232.833,473.998 232.5,554.5C 229.941,554.802 227.607,554.468 225.5,553.5C 227.5,553.5 229.5,553.5 231.5,553.5C 231.5,473.5 231.5,393.5 231.5,313.5 Z"/></g>
<g><path style="opacity:1" fill="#000f1d" d="M 173.5,308.5 C 173.833,387.503 173.5,466.503 172.5,545.5C 171.893,545.376 171.56,545.043 171.5,544.5C 172.167,465.833 172.833,387.167 173.5,308.5 Z"/></g>
<g><path style="opacity:1" fill="#534114" d="M 249.5,312.5 C 249.5,392.833 249.5,473.167 249.5,553.5C 251.5,553.5 253.5,553.5 255.5,553.5C 253.393,554.468 251.059,554.802 248.5,554.5C 248.167,473.665 248.501,392.998 249.5,312.5 Z"/></g>
<g><path style="opacity:1" fill="#002544" d="M 307.5,310.5 C 308.167,388.5 308.833,466.5 309.5,544.5C 309.44,545.043 309.107,545.376 308.5,545.5C 307.5,467.17 307.167,388.836 307.5,310.5 Z"/></g>
<g><path style="opacity:1" fill="#fefefe" d="M 481.5,337.5 C 481.5,412.167 481.5,486.833 481.5,561.5C 406.167,561.5 330.833,561.5 255.5,561.5C 271.147,559.81 286.814,557.31 302.5,554C 348.349,543.834 387.182,521.667 419,487.5C 455.514,444.126 476.347,394.126 481.5,337.5 Z"/></g>
<g><path style="opacity:1" fill="#fefefe" d="M -0.5,340.5 C 0.600758,348.029 1.76743,355.696 3,363.5C 28.5201,483.197 102.02,549.197 223.5,561.5C 148.833,561.5 74.1667,561.5 -0.5,561.5C -0.5,487.833 -0.5,414.167 -0.5,340.5 Z"/></g>
</svg>
