<?xml version="1.0" encoding="UTF-8"?>
<!DOCTYPE svg PUBLIC "-//W3C//DTD SVG 1.1//EN" "http://www.w3.org/Graphics/SVG/1.1/DTD/svg11.dtd">
<svg xmlns="http://www.w3.org/2000/svg" version="1.1" width="210px" height="236px" style="shape-rendering:geometricPrecision; text-rendering:geometricPrecision; image-rendering:optimizeQuality; fill-rule:evenodd; clip-rule:evenodd" xmlns:xlink="http://www.w3.org/1999/xlink">
<g><path style="opacity:1" fill="#3f3507" d="M 202.5,47.5 C 202.5,52.8333 202.5,58.1667 202.5,63.5C 201.503,43.6736 201.17,23.6736 201.5,3.5C 153.33,3.16784 105.33,3.50118 57.5,4.5C 55.5,4.5 53.5,4.5 51.5,4.5C 35.8333,4.5 20.1667,4.5 4.5,4.5C 4.61071,3.88258 4.94404,3.38258 5.5,3C 71.1658,2.5 136.832,2.33334 202.5,2.5C 202.5,17.5 202.5,32.5 202.5,47.5 Z"/></g>
<g><path style="opacity:1" fill="#fbf90b" d="M 51.5,4.5 C 53.5,4.5 55.5,4.5 57.5,4.5C 105.167,4.5 152.833,4.5 200.5,4.5C 200.251,50.2881 200.251,95.7881 200.5,141C 201.026,145.113 200.026,148.613 197.5,151.5C 197.698,143.466 197.365,135.466 196.5,127.5C 192.853,127.378 190.019,125.712 188,122.5C 187.946,119.139 186.946,116.139 185,113.5C 185.108,117.157 185.108,120.823 185,124.5C 183.605,123.185 182.605,123.519 182,125.5C 181.506,123.866 181.34,122.199 181.5,120.5C 177.106,120.625 176.773,118.959 180.5,115.5C 181.167,116.5 181.833,117.5 182.5,118.5C 183.731,117.349 183.731,116.183 182.5,115C 185.408,111.729 185.742,107.896 183.5,103.5C 182.735,102.388 181.735,101.721 180.5,101.5C 179.833,101.167 179.167,100.833 178.5,100.5C 178.179,98.9519 177.179,98.2852 175.5,98.5C 175.5,94.1667 175.5,89.8333 175.5,85.5C 176.139,84.9032 176.472,84.0698 176.5,83C 175.729,73.1895 175.229,63.3562 175,53.5C 172.643,50.9088 169.809,49.2421 166.5,48.5C 164.188,46.364 161.688,44.364 159,42.5C 158.809,40.2922 158.309,38.2922 157.5,36.5C 157.5,36.1667 157.5,35.8333 157.5,35.5C 157.443,27.7932 154.443,21.6265 148.5,17C 142.263,14.244 136.763,15.0773 132,19.5C 131.51,20.7932 131.343,22.1266 131.5,23.5C 128.592,27.2909 127.925,31.6242 129.5,36.5C 129.632,39.5701 129.299,42.5701 128.5,45.5C 127.986,47.5116 127.82,49.5116 128,51.5C 129.399,52.2266 130.899,52.7266 132.5,53C 131.29,54.0391 130.29,55.2058 129.5,56.5C 127.321,56.84 125.488,57.84 124,59.5C 120.769,58.1193 118.935,55.7859 118.5,52.5C 118.607,50.6214 118.107,50.2881 117,51.5C 115.67,50.4178 114.17,49.7512 112.5,49.5C 112.5,49.1667 112.5,48.8333 112.5,48.5C 114.265,45.8774 114.932,42.8774 114.5,39.5C 114.5,39.1667 114.5,38.8333 114.5,38.5C 115.162,36.6965 115.495,34.6965 115.5,32.5C 115.713,29.4733 115.047,26.8066 113.5,24.5C 111.5,23.1667 109.833,21.5 108.5,19.5C 108.179,17.9519 107.179,17.2852 105.5,17.5C 105.5,16.5 105.5,15.5 105.5,14.5C 101.563,14.7935 97.73,14.4601 94,13.5C 93,15.5 92,17.5 91,19.5C 89.836,19.8346 88.5026,19.8346 87,19.5C 86.2607,21.2205 85.4274,22.8872 84.5,24.5C 82.8773,23.5092 81.8773,24.1759 81.5,26.5C 82.3153,29.4143 81.6486,32.081 79.5,34.5C 78.6683,42.8134 78.1683,51.1468 78,59.5C 76.1733,60.6587 74.5067,61.992 73,63.5C 71.7432,61.2542 69.9099,59.9209 67.5,59.5C 67.8948,62.5225 66.8948,63.5225 64.5,62.5C 63.1667,63.1667 61.8333,63.8333 60.5,64.5C 59.1696,62.9068 57.8363,61.2402 56.5,59.5C 58.9392,58.8725 61.6058,58.3725 64.5,58C 65.3802,56.6439 65.7135,55.1439 65.5,53.5C 65.5,49.5 65.5,45.5 65.5,41.5C 65.6659,36.4889 65.4993,31.4889 65,26.5C 55.5062,20.9732 48.0062,22.9732 42.5,32.5C 40.5,34.5 38.5,36.5 36.5,38.5C 33.8333,38.5 31.1667,38.5 28.5,38.5C 28.7261,41.2492 28.3928,43.9159 27.5,46.5C 30.775,47.7965 31.1083,50.1299 28.5,53.5C 27.391,53.5569 26.391,53.8902 25.5,54.5C 21.7757,53.7731 19.1091,55.1064 17.5,58.5C 16.2713,59.2811 14.938,59.7811 13.5,60C 11.2657,63.6355 9.43234,67.4689 8,71.5C 7.32924,72.2524 6.4959,72.5858 5.5,72.5C 5.33338,52.1639 5.50004,31.8306 6,11.5C 6.74117,10.3595 7.57451,10.3595 8.5,11.5C 9.45189,9.95467 9.78522,8.28801 9.5,6.5C 11.968,7.75011 14.3013,7.58344 16.5,6C 28.3405,5.83066 40.0072,5.33066 51.5,4.5 Z"/></g>
<g><path style="opacity:1" fill="#d8d43f" d="M 4.5,4.5 C 20.1667,4.5 35.8333,4.5 51.5,4.5C 40.0072,5.33066 28.3405,5.83066 16.5,6C 14.3013,7.58344 11.968,7.75011 9.5,6.5C 9.78522,8.28801 9.45189,9.95467 8.5,11.5C 7.57451,10.3595 6.74117,10.3595 6,11.5C 5.50004,31.8306 5.33338,52.1639 5.5,72.5C 5.5,73.5 5.5,74.5 5.5,75.5C 4.50242,52.0059 4.16909,28.3392 4.5,4.5 Z"/></g>
<g><path style="opacity:1" fill="#612b13" d="M 131.5,23.5 C 130.669,27.4761 130.503,31.4761 131,35.5C 132.933,39.1489 135.099,42.6489 137.5,46C 135.094,46.7789 133.427,45.9456 132.5,43.5C 131.502,45.4899 130.502,47.4899 129.5,49.5C 129.709,50.086 130.043,50.586 130.5,51C 134.344,51.2363 138.011,52.0697 141.5,53.5C 142.167,53.5 142.5,53.8333 142.5,54.5C 142.799,56.604 142.466,58.604 141.5,60.5C 141.291,55.113 138.624,52.9463 133.5,54C 131.372,57.1301 128.872,59.9634 126,62.5C 125.517,63.448 125.351,64.448 125.5,65.5C 124.662,65.1583 124.328,64.4916 124.5,63.5C 125.754,60.9066 127.42,58.5732 129.5,56.5C 130.29,55.2058 131.29,54.0391 132.5,53C 130.899,52.7266 129.399,52.2266 128,51.5C 127.82,49.5116 127.986,47.5116 128.5,45.5C 131.666,42.7151 131.999,39.7151 129.5,36.5C 127.925,31.6242 128.592,27.2909 131.5,23.5 Z"/></g>
<g><path style="opacity:1" fill="#4a3d0f" d="M 4.5,4.5 C 4.16909,28.3392 4.50242,52.0059 5.5,75.5C 5.1936,78.3854 5.52693,81.0521 6.5,83.5C 6.5,83.8333 6.5,84.1667 6.5,84.5C 5.83333,84.8333 5.16667,85.1667 4.5,85.5C 3.21591,58.3469 3.21591,31.3469 4.5,4.5 Z"/></g>
<g><path style="opacity:1" fill="#3d4323" d="M 80.5,43.5 C 80.9595,50.2569 80.9595,56.9235 80.5,63.5C 77.8314,65.9989 74.9981,68.3323 72,70.5C 71.2086,71.745 70.7086,73.0783 70.5,74.5C 70.1667,75.1667 69.8333,75.8333 69.5,76.5C 67.6096,76.2965 66.1096,76.9632 65,78.5C 62.3858,76.4033 60.8858,73.7366 60.5,70.5C 60.5,70.1667 60.5,69.8333 60.5,69.5C 61.9779,70.4475 62.9779,71.7809 63.5,73.5C 63.4614,74.7562 63.9614,75.7562 65,76.5C 67.692,75.248 69.5253,73.248 70.5,70.5C 73.7974,67.7044 76.9641,64.7044 80,61.5C 79.3354,55.3591 79.5021,49.3591 80.5,43.5 Z"/></g>
<g><path style="opacity:1" fill="#4f74d1" d="M 82.5,39.5 C 84.2501,42.3554 85.0835,45.6887 85,49.5C 85.6708,50.2524 86.5041,50.5858 87.5,50.5C 88.5,50.8333 89.1667,51.5 89.5,52.5C 89.6198,55.2048 88.6198,55.8715 86.5,54.5C 85.3691,56.0745 85.2025,57.7412 86,59.5C 90.3487,57.7467 91.1821,58.58 88.5,62C 87.365,62.7494 86.365,62.5827 85.5,61.5C 84.4793,60.0986 83.4793,58.7653 82.5,57.5C 82.5,51.5 82.5,45.5 82.5,39.5 Z"/></g>
<g><path style="opacity:1" fill="#455e92" d="M 82.5,39.5 C 82.5,45.5 82.5,51.5 82.5,57.5C 82.4914,59.3084 82.9914,60.9751 84,62.5C 86.0396,64.3702 87.8729,66.3702 89.5,68.5C 89.5,69.1667 89.1667,69.5 88.5,69.5C 86.0976,67.0908 83.4309,65.0908 80.5,63.5C 80.9595,56.9235 80.9595,50.2569 80.5,43.5C 80.5,43.1667 80.5,42.8333 80.5,42.5C 81.1667,41.5 81.8333,40.5 82.5,39.5 Z"/></g>
<g><path style="opacity:1" fill="#d44442" d="M 164.5,48.5 C 165.167,48.5 165.833,48.5 166.5,48.5C 168.498,50.5998 170.665,52.5998 173,54.5C 173.685,64.1726 174.018,73.8393 174,83.5C 171.336,82.0016 169.17,80.0016 167.5,77.5C 169.044,77.7031 170.378,78.3698 171.5,79.5C 172.48,76.9135 172.813,74.2469 172.5,71.5C 168.5,70.8333 168.5,70.1667 172.5,69.5C 172.5,66.1667 172.5,62.8333 172.5,59.5C 170.857,59.4802 169.524,60.1468 168.5,61.5C 167.914,61.2907 167.414,60.9574 167,60.5C 167.089,58.1383 167.922,55.9716 169.5,54C 167.649,52.317 165.983,50.4837 164.5,48.5 Z"/></g>
<g><path style="opacity:1" fill="#552a07" d="M 35.5,52.5 C 35.5,52.8333 35.5,53.1667 35.5,53.5C 33.146,53.838 30.8127,54.338 28.5,55C 24.7781,57.1896 21.1114,59.3563 17.5,61.5C 19.5984,58.3941 22.2651,56.0607 25.5,54.5C 26.391,53.8902 27.391,53.5569 28.5,53.5C 30.8056,53.0074 33.139,52.6741 35.5,52.5 Z"/></g>
<g><path style="opacity:1" fill="#263752" d="M 89.5,27.5 C 88.0882,32.0711 87.0882,36.7378 86.5,41.5C 85.8785,45.9358 87.5451,48.9358 91.5,50.5C 91.5,51.1667 91.5,51.8333 91.5,52.5C 92.24,61.6553 96.0734,62.9886 103,56.5C 103.499,52.5138 103.666,48.5138 103.5,44.5C 103.5,43.5 103.5,42.5 103.5,41.5C 106.33,37.851 106.997,33.851 105.5,29.5C 105.5,28.8333 105.833,28.5 106.5,28.5C 107.815,29.667 108.481,31.167 108.5,33C 107.755,35.9922 106.588,38.8256 105,41.5C 104.667,46.8333 104.333,52.1667 104,57.5C 95.7779,64.246 90.9446,62.5793 89.5,52.5C 89.1667,51.5 88.5,50.8333 87.5,50.5C 85.5025,45.383 85.0025,40.0496 86,34.5C 86.615,31.6971 87.7817,29.3637 89.5,27.5 Z"/></g>
<g><path style="opacity:1" fill="#e7ebe5" d="M 103.5,44.5 C 103.666,48.5138 103.499,52.5138 103,56.5C 96.0734,62.9886 92.24,61.6553 91.5,52.5C 96.295,51.0405 100.295,48.3738 103.5,44.5 Z"/></g>
<g><path style="opacity:1" fill="#483726" d="M 36.5,39.5 C 34.7354,40.4614 32.7354,40.7947 30.5,40.5C 30.3433,41.8734 30.51,43.2068 31,44.5C 31.7175,43.5494 32.5509,43.3828 33.5,44C 32.6634,45.0113 32.33,46.1779 32.5,47.5C 34.6498,47.9052 36.6498,48.4052 38.5,49C 39.6469,46.9154 38.9803,45.4154 36.5,44.5C 36.8333,43.5 37.5,42.8333 38.5,42.5C 40.4538,45.0596 42.1205,47.7262 43.5,50.5C 41.9389,54.046 43.1055,56.3794 47,57.5C 48.02,56.1095 48.8534,54.6095 49.5,53C 48.0577,52.6232 47.0577,51.7899 46.5,50.5C 48.5,50.8333 50.5,51.1667 52.5,51.5C 50.1663,53.1757 49.1663,55.509 49.5,58.5C 51.698,58.1201 53.3646,58.7868 54.5,60.5C 53.8333,60.5 53.1667,60.5 52.5,60.5C 50.8008,60.6602 49.1341,60.4935 47.5,60C 43.8417,57.1686 39.8417,55.0019 35.5,53.5C 35.5,53.1667 35.5,52.8333 35.5,52.5C 33.5542,50.3722 31.7209,48.0388 30,45.5C 29.5045,43.5273 29.3379,41.5273 29.5,39.5C 31.8333,39.5 34.1667,39.5 36.5,39.5 Z"/></g>
<g><path style="opacity:1" fill="#f1f027" d="M 108.5,19.5 C 105.605,18.2211 102.605,17.2211 99.5,16.5C 97.6455,16.3402 96.3121,17.0069 95.5,18.5C 85.4788,23.1816 80.4788,31.1816 80.5,42.5C 80.5,42.8333 80.5,43.1667 80.5,43.5C 79.5021,49.3591 79.3354,55.3591 80,61.5C 76.9641,64.7044 73.7974,67.7044 70.5,70.5C 69.0783,70.7086 67.745,71.2086 66.5,72C 66.8333,72.3333 67.1667,72.6667 67.5,73C 66.2068,73.49 64.8734,73.6567 63.5,73.5C 62.9779,71.7809 61.9779,70.4475 60.5,69.5C 59.7302,67.3144 58.7302,65.1477 57.5,63C 56.8699,61.6898 55.8699,60.8565 54.5,60.5C 53.3646,58.7868 51.698,58.1201 49.5,58.5C 49.1663,55.509 50.1663,53.1757 52.5,51.5C 54.8828,55.681 58.5495,57.181 63.5,56C 64.2524,55.3292 64.5858,54.4959 64.5,53.5C 64.8333,53.5 65.1667,53.5 65.5,53.5C 65.7135,55.1439 65.3802,56.6439 64.5,58C 61.6058,58.3725 58.9392,58.8725 56.5,59.5C 57.8363,61.2402 59.1696,62.9068 60.5,64.5C 61.8333,63.8333 63.1667,63.1667 64.5,62.5C 66.8948,63.5225 67.8948,62.5225 67.5,59.5C 69.9099,59.9209 71.7432,61.2542 73,63.5C 74.5067,61.992 76.1733,60.6587 78,59.5C 78.1683,51.1468 78.6683,42.8134 79.5,34.5C 81.6486,32.081 82.3153,29.4143 81.5,26.5C 81.8773,24.1759 82.8773,23.5092 84.5,24.5C 85.4274,22.8872 86.2607,21.2205 87,19.5C 88.5026,19.8346 89.836,19.8346 91,19.5C 92,17.5 93,15.5 94,13.5C 97.73,14.4601 101.563,14.7935 105.5,14.5C 105.5,15.5 105.5,16.5 105.5,17.5C 107.179,17.2852 108.179,17.9519 108.5,19.5 Z"/></g>
<g><path style="opacity:1" fill="#bcb149" d="M 118.5,52.5 C 118.935,55.7859 120.769,58.1193 124,59.5C 125.488,57.84 127.321,56.84 129.5,56.5C 127.42,58.5732 125.754,60.9066 124.5,63.5C 122.139,61.8061 120.139,59.8061 118.5,57.5C 118.5,55.8333 118.5,54.1667 118.5,52.5 Z"/></g>
<g><path style="opacity:1" fill="#e9e228" d="M 25.5,54.5 C 22.2651,56.0607 19.5984,58.3941 17.5,61.5C 15.9826,61.5106 14.8159,62.1772 14,63.5C 12.0174,66.6138 10.5174,69.9471 9.5,73.5C 8.16667,74.1667 6.83333,74.8333 5.5,75.5C 5.5,74.5 5.5,73.5 5.5,72.5C 6.4959,72.5858 7.32924,72.2524 8,71.5C 9.43234,67.4689 11.2657,63.6355 13.5,60C 14.938,59.7811 16.2713,59.2811 17.5,58.5C 19.1091,55.1064 21.7757,53.7731 25.5,54.5 Z"/></g>
<g><path style="opacity:1" fill="#e23e39" d="M 35.5,53.5 C 39.8417,55.0019 43.8417,57.1686 47.5,60C 49.1341,60.4935 50.8008,60.6602 52.5,60.5C 55.0911,62.824 57.0911,65.6573 58.5,69C 55.9857,69.5688 53.6524,69.0688 51.5,67.5C 40.0544,69.3979 36.0544,76.0646 39.5,87.5C 35.2953,87.4922 31.2953,86.9922 27.5,86C 29.8516,86.5759 30.8516,88.0759 30.5,90.5C 29.8384,93.4682 29.505,96.4682 29.5,99.5C 28.0413,99.5674 26.7079,99.2341 25.5,98.5C 25.5,95.1667 25.5,91.8333 25.5,88.5C 24.4567,84.8836 23.9567,81.217 24,77.5C 26.7648,69.464 30.9314,62.2973 36.5,56C 35.552,55.5172 34.552,55.3505 33.5,55.5C 26.7435,67.0117 21.0769,79.0117 16.5,91.5C 16.5715,88.8067 16.9049,86.1401 17.5,83.5C 17.423,81.701 16.923,80.0344 16,78.5C 14.3333,79.8333 12.6667,79.8333 11,78.5C 10.8876,83.132 9.72094,87.4653 7.5,91.5C 6.50058,107.486 6.16724,123.486 6.5,139.5C 9.1085,139.6 11.4418,138.933 13.5,137.5C 11.535,140.012 8.86832,141.345 5.5,141.5C 5.2185,122.806 5.55183,104.139 6.5,85.5C 8.47131,80.6597 10.3046,75.6597 12,70.5C 13.3426,67.1381 15.176,64.1381 17.5,61.5C 21.1114,59.3563 24.7781,57.1896 28.5,55C 30.8127,54.338 33.146,53.838 35.5,53.5 Z"/></g>
<g><path style="opacity:1" fill="#2a3462" d="M 115.5,56.5 C 115.5,56.8333 115.5,57.1667 115.5,57.5C 112.688,60.4015 109.688,63.0681 106.5,65.5C 105.5,65.5 104.5,65.5 103.5,65.5C 107.491,62.5026 111.491,59.5026 115.5,56.5 Z"/></g>
<g><path style="opacity:1" fill="#5077c2" d="M 108.5,23.5 C 110.017,23.5106 111.184,24.1772 112,25.5C 112.887,33.5928 112.387,41.5928 110.5,49.5C 110.719,50.938 111.219,52.2713 112,53.5C 113.729,53.9743 114.895,54.9743 115.5,56.5C 111.491,59.5026 107.491,62.5026 103.5,65.5C 99.1866,67.9592 94.5199,68.9592 89.5,68.5C 87.8729,66.3702 86.0396,64.3702 84,62.5C 82.9914,60.9751 82.4914,59.3084 82.5,57.5C 83.4793,58.7653 84.4793,60.0986 85.5,61.5C 86.365,62.5827 87.365,62.7494 88.5,62C 91.1821,58.58 90.3487,57.7467 86,59.5C 85.2025,57.7412 85.3691,56.0745 86.5,54.5C 88.6198,55.8715 89.6198,55.2048 89.5,52.5C 90.9446,62.5793 95.7779,64.246 104,57.5C 104.333,52.1667 104.667,46.8333 105,41.5C 106.588,38.8256 107.755,35.9922 108.5,33C 108.481,31.167 107.815,29.667 106.5,28.5C 106.52,26.857 105.853,25.5237 104.5,24.5C 105.689,23.5713 107.022,23.238 108.5,23.5 Z"/></g>
<g><path style="opacity:1" fill="#c74445" d="M 142.5,54.5 C 143.468,56.6074 143.802,58.9407 143.5,61.5C 141.833,61.5 140.167,61.5 138.5,61.5C 138.5,59.5 138.5,57.5 138.5,55.5C 137.167,55.5 135.833,55.5 134.5,55.5C 134.286,57.1439 134.62,58.6439 135.5,60C 126.773,60.3605 124.607,64.1939 129,71.5C 130.356,72.3802 131.856,72.7135 133.5,72.5C 133.5,73.1667 133.5,73.8333 133.5,74.5C 131.278,74.822 129.444,74.1554 128,72.5C 127.153,70.1457 126.32,67.8123 125.5,65.5C 125.351,64.448 125.517,63.448 126,62.5C 128.872,59.9634 131.372,57.1301 133.5,54C 138.624,52.9463 141.291,55.113 141.5,60.5C 142.466,58.604 142.799,56.604 142.5,54.5 Z"/></g>
<g><path style="opacity:1" fill="#50293c" d="M 103.5,65.5 C 104.5,65.5 105.5,65.5 106.5,65.5C 107.07,69.9653 107.404,74.4653 107.5,79C 106.974,87.8489 106.307,96.6822 105.5,105.5C 105.5,106.167 105.833,106.5 106.5,106.5C 104.312,108.755 101.646,109.589 98.5,109C 95.2956,105.964 92.2956,102.797 89.5,99.5C 88.5084,99.6716 87.8417,99.3382 87.5,98.5C 87.5,98.1667 87.5,97.8333 87.5,97.5C 87.5378,88.1536 87.8711,78.8203 88.5,69.5C 89.1667,69.5 89.5,69.1667 89.5,68.5C 94.5199,68.9592 99.1866,67.9592 103.5,65.5 Z"/></g>
<g><path style="opacity:1" fill="#f2f0eb" d="M 144.5,79.5 C 141.306,78.048 138.306,78.3813 135.5,80.5C 134.685,79.5707 133.852,78.5707 133,77.5C 132.331,80.0278 131.498,80.0278 130.5,77.5C 131.34,76.265 132.34,75.265 133.5,74.5C 136.29,72.8784 138.623,70.7117 140.5,68C 142.586,66.1728 144.586,66.1728 146.5,68C 143.833,69 143.833,70 146.5,71C 144.109,72.3086 144.109,73.3086 146.5,74C 144.109,75.3086 144.109,76.3086 146.5,77C 145.619,77.7083 144.953,78.5416 144.5,79.5 Z"/></g>
<g><path style="opacity:1" fill="#bfb643" d="M 70.5,70.5 C 69.5253,73.248 67.692,75.248 65,76.5C 63.9614,75.7562 63.4614,74.7562 63.5,73.5C 64.8734,73.6567 66.2068,73.49 67.5,73C 67.1667,72.6667 66.8333,72.3333 66.5,72C 67.745,71.2086 69.0783,70.7086 70.5,70.5 Z"/></g>
<g><path style="opacity:1" fill="#592f23" d="M 144.5,79.5 C 144.953,78.5416 145.619,77.7083 146.5,77C 144.109,76.3086 144.109,75.3086 146.5,74C 144.109,73.3086 144.109,72.3086 146.5,71C 143.833,70 143.833,69 146.5,68C 144.586,66.1728 142.586,66.1728 140.5,68C 138.623,70.7117 136.29,72.8784 133.5,74.5C 133.5,73.8333 133.5,73.1667 133.5,72.5C 144.31,61.4088 148.81,63.4088 147,78.5C 146.329,79.2524 145.496,79.5858 144.5,79.5 Z"/></g>
<g><path style="opacity:1" fill="#4f76c3" d="M 80.5,63.5 C 83.4309,65.0908 86.0976,67.0908 88.5,69.5C 87.8711,78.8203 87.5378,88.1536 87.5,97.5C 83.4937,96.0305 79.3271,95.0305 75,94.5C 73.0404,91.4151 71.2071,88.2485 69.5,85C 72.6266,82.4171 75.2932,79.4171 77.5,76C 75.1873,75.338 72.854,74.838 70.5,74.5C 70.7086,73.0783 71.2086,71.745 72,70.5C 74.9981,68.3323 77.8314,65.9989 80.5,63.5 Z"/></g>
<g><path style="opacity:1" fill="#b3b251" d="M 9.5,73.5 C 8.50086,76.8291 7.50086,80.1624 6.5,83.5C 5.52693,81.0521 5.1936,78.3854 5.5,75.5C 6.83333,74.8333 8.16667,74.1667 9.5,73.5 Z"/></g>
<g><path style="opacity:1" fill="#562805" d="M 17.5,61.5 C 15.176,64.1381 13.3426,67.1381 12,70.5C 10.3046,75.6597 8.47131,80.6597 6.5,85.5C 6.5,85.1667 6.5,84.8333 6.5,84.5C 6.5,84.1667 6.5,83.8333 6.5,83.5C 7.50086,80.1624 8.50086,76.8291 9.5,73.5C 10.5174,69.9471 12.0174,66.6138 14,63.5C 14.8159,62.1772 15.9826,61.5106 17.5,61.5 Z"/></g>
<g><path style="opacity:1" fill="#ea3c36" d="M 98.5,106.5 C 95.8333,104.5 93.5,102.167 91.5,99.5C 90.5119,90.2326 90.5119,80.8993 91.5,71.5C 93.099,71.7678 94.4324,71.4345 95.5,70.5C 98.3128,70.4519 100.979,69.7853 103.5,68.5C 104.985,76.6154 104.651,84.6154 102.5,92.5C 103.442,96.4763 103.609,100.476 103,104.5C 101.951,106.107 100.451,106.773 98.5,106.5 Z"/></g>
<g><path style="opacity:1" fill="#cb4647" d="M 98.5,106.5 C 100.451,106.773 101.951,106.107 103,104.5C 103.609,100.476 103.442,96.4763 102.5,92.5C 104.651,84.6154 104.985,76.6154 103.5,68.5C 100.979,69.7853 98.3128,70.4519 95.5,70.5C 98.2919,68.9423 101.292,67.609 104.5,66.5C 105.485,79.5 105.319,92.5 104,105.5C 102.38,107.632 100.546,107.965 98.5,106.5 Z"/></g>
<g><path style="opacity:1" fill="#702c25" d="M 25.5,88.5 C 24.8347,90.6979 24.1681,93.0312 23.5,95.5C 22.4812,93.0486 22.4812,90.5486 23.5,88C 23.1667,87.1667 22.8333,86.3333 22.5,85.5C 20.1245,87.9452 18.7912,90.9452 18.5,94.5C 18.6082,95.4419 18.9415,96.2753 19.5,97C 21.5183,97.5046 23.5183,98.0046 25.5,98.5C 26.7079,99.2341 28.0413,99.5674 29.5,99.5C 29.505,96.4682 29.8384,93.4682 30.5,90.5C 30.8516,88.0759 29.8516,86.5759 27.5,86C 31.2953,86.9922 35.2953,87.4922 39.5,87.5C 36.0544,76.0646 40.0544,69.3979 51.5,67.5C 53.6524,69.0688 55.9857,69.5688 58.5,69C 57.0911,65.6573 55.0911,62.824 52.5,60.5C 53.1667,60.5 53.8333,60.5 54.5,60.5C 55.8699,60.8565 56.8699,61.6898 57.5,63C 58.7302,65.1477 59.7302,67.3144 60.5,69.5C 60.5,69.8333 60.5,70.1667 60.5,70.5C 58.5992,70.4332 56.7659,70.7665 55,71.5C 52.0692,68.8749 49.2359,68.8749 46.5,71.5C 45.5,71.5 44.5,71.5 43.5,71.5C 43.5391,73.3588 42.7058,74.6921 41,75.5C 40.7773,80.2497 40.2773,84.9164 39.5,89.5C 37.1667,89.5 34.8333,89.5 32.5,89.5C 32.5,91.8333 32.5,94.1667 32.5,96.5C 34.9267,96.523 37.26,97.023 39.5,98C 42.3058,101.449 45.6392,102.949 49.5,102.5C 52.5,102.5 55.5,102.5 58.5,102.5C 61.0155,103.86 60.6822,104.86 57.5,105.5C 57.6107,104.883 57.944,104.383 58.5,104C 57.3333,103.833 56.1667,103.667 55,103.5C 52.5196,104.514 50.0196,105.014 47.5,105C 43.4854,102.775 39.3188,100.941 35,99.5C 32.8157,99.8852 30.9823,100.885 29.5,102.5C 25.6642,100.662 21.6642,99.3284 17.5,98.5C 17.8092,103.267 17.3092,107.934 16,112.5C 15.3255,105.472 15.4921,98.4718 16.5,91.5C 21.0769,79.0117 26.7435,67.0117 33.5,55.5C 34.552,55.3505 35.552,55.5172 36.5,56C 30.9314,62.2973 26.7648,69.464 24,77.5C 23.9567,81.217 24.4567,84.8836 25.5,88.5 Z"/></g>
<g><path style="opacity:1" fill="#702633" d="M 144.5,79.5 C 142.393,80.4682 140.059,80.8016 137.5,80.5C 137.448,82.9029 137.781,85.2362 138.5,87.5C 138.02,90.4432 137.02,93.1098 135.5,95.5C 135.387,92.9512 136.054,90.6179 137.5,88.5C 135.771,86.1489 135.104,83.4822 135.5,80.5C 138.306,78.3813 141.306,78.048 144.5,79.5 Z"/></g>
<g><path style="opacity:1" fill="#cc4446" d="M 25.5,88.5 C 25.5,91.8333 25.5,95.1667 25.5,98.5C 23.5183,98.0046 21.5183,97.5046 19.5,97C 18.9415,96.2753 18.6082,95.4419 18.5,94.5C 18.7912,90.9452 20.1245,87.9452 22.5,85.5C 22.8333,86.3333 23.1667,87.1667 23.5,88C 22.4812,90.5486 22.4812,93.0486 23.5,95.5C 24.1681,93.0312 24.8347,90.6979 25.5,88.5 Z"/></g>
<g><path style="opacity:1" fill="#bf4144" d="M 95.5,70.5 C 94.4324,71.4345 93.099,71.7678 91.5,71.5C 90.5119,80.8993 90.5119,90.2326 91.5,99.5C 90.8333,99.5 90.1667,99.5 89.5,99.5C 89.0198,89.9154 89.0198,80.2487 89.5,70.5C 91.5,70.5 93.5,70.5 95.5,70.5 Z"/></g>
<g><path style="opacity:1" fill="#4f77c6" d="M 115.5,57.5 C 116.5,57.5 117.5,57.5 118.5,57.5C 122.316,65.2032 126.482,72.8699 131,80.5C 131.497,82.8098 131.663,85.1432 131.5,87.5C 130.553,89.4554 129.219,89.7887 127.5,88.5C 126.232,90.3043 125.565,92.3043 125.5,94.5C 123.167,93.8333 120.833,93.1667 118.5,92.5C 118.643,97.1173 116.976,97.784 113.5,94.5C 112.063,97.0409 110.897,99.7076 110,102.5C 108.385,103.386 106.885,104.386 105.5,105.5C 106.307,96.6822 106.974,87.8489 107.5,79C 107.404,74.4653 107.07,69.9653 106.5,65.5C 109.688,63.0681 112.688,60.4015 115.5,57.5 Z"/></g>
<g><path style="opacity:1" fill="#2e384c" d="M 70.5,74.5 C 72.854,74.838 75.1873,75.338 77.5,76C 75.2932,79.4171 72.6266,82.4171 69.5,85C 71.2071,88.2485 73.0404,91.4151 75,94.5C 79.3271,95.0305 83.4937,96.0305 87.5,97.5C 87.5,97.8333 87.5,98.1667 87.5,98.5C 84.6717,97.5033 82.005,97.5033 79.5,98.5C 73.8109,96.473 70.1442,92.473 68.5,86.5C 67.624,85.7492 66.624,85.2492 65.5,85C 69.255,83.4121 72.255,80.9121 74.5,77.5C 72.9547,76.5481 71.288,76.2148 69.5,76.5C 69.8333,75.8333 70.1667,75.1667 70.5,74.5 Z"/></g>
<g><path style="opacity:1" fill="#3d3634" d="M 46.5,71.5 C 48.8779,79.2497 53.0445,85.9163 59,91.5C 59.5787,95.2027 59.412,98.8694 58.5,102.5C 55.5,102.5 52.5,102.5 49.5,102.5C 43.499,100.855 40.6656,96.855 41,90.5C 40.6174,89.944 40.1174,89.6107 39.5,89.5C 40.2773,84.9164 40.7773,80.2497 41,75.5C 42.7058,74.6921 43.5391,73.3588 43.5,71.5C 44.5,71.5 45.5,71.5 46.5,71.5 Z"/></g>
<g><path style="opacity:1" fill="#473d23" d="M 202.5,47.5 C 203.166,51.0208 203.833,54.6875 204.5,58.5C 205.298,58.0431 205.631,57.3764 205.5,56.5C 206.479,59.6248 206.813,62.9581 206.5,66.5C 205.732,65.7375 205.232,64.7375 205,63.5C 204.5,79.4965 204.333,95.4965 204.5,111.5C 203.833,95.5 203.167,79.5 202.5,63.5C 202.5,58.1667 202.5,52.8333 202.5,47.5 Z"/></g>
<g><path style="opacity:1" fill="#e8e1de" d="M 39.5,89.5 C 40.1174,89.6107 40.6174,89.944 41,90.5C 40.6656,96.855 43.499,100.855 49.5,102.5C 45.6392,102.949 42.3058,101.449 39.5,98C 37.26,97.023 34.9267,96.523 32.5,96.5C 32.5,94.1667 32.5,91.8333 32.5,89.5C 34.8333,89.5 37.1667,89.5 39.5,89.5 Z"/></g>
<g><path style="opacity:1" fill="#db3f39" d="M 172.5,88.5 C 173.169,91.9999 173.336,95.6666 173,99.5C 174.011,100.337 175.178,100.67 176.5,100.5C 179.69,104.329 180.357,108.662 178.5,113.5C 178.771,115.38 178.104,116.713 176.5,117.5C 174.549,118.716 173.049,120.382 172,122.5C 171.601,122.272 171.435,121.938 171.5,121.5C 171.257,115.816 170.757,110.149 170,104.5C 164.399,99.5219 157.899,97.3552 150.5,98C 153.5,99.0739 156.5,99.9072 159.5,100.5C 155.818,100.665 152.152,100.499 148.5,100C 147.027,99.2904 146.36,98.1238 146.5,96.5C 150.833,96.5 155.167,96.5 159.5,96.5C 159.351,95.448 159.517,94.448 160,93.5C 163.236,96.4736 167.07,97.807 171.5,97.5C 171.963,94.5176 172.296,91.5176 172.5,88.5 Z"/></g>
<g><path style="opacity:1" fill="#67370c" d="M 166.5,48.5 C 169.809,49.2421 172.643,50.9088 175,53.5C 175.229,63.3562 175.729,73.1895 176.5,83C 176.472,84.0698 176.139,84.9032 175.5,85.5C 174.837,87.6413 174.503,89.9746 174.5,92.5C 174.621,95.4411 175.287,98.1078 176.5,100.5C 175.178,100.67 174.011,100.337 173,99.5C 173.336,95.6666 173.169,91.9999 172.5,88.5C 172.785,86.712 172.452,85.0453 171.5,83.5C 167.5,80.5 163.5,77.5 159.5,74.5C 159.833,74.1667 160.167,73.8333 160.5,73.5C 162.698,75.0981 165.031,76.4314 167.5,77.5C 169.17,80.0016 171.336,82.0016 174,83.5C 174.018,73.8393 173.685,64.1726 173,54.5C 170.665,52.5998 168.498,50.5998 166.5,48.5 Z"/></g>
<g><path style="opacity:1" fill="#d5ca47" d="M 175.5,85.5 C 175.5,89.8333 175.5,94.1667 175.5,98.5C 177.179,98.2852 178.179,98.9519 178.5,100.5C 177.833,100.5 177.167,100.5 176.5,100.5C 175.287,98.1078 174.621,95.4411 174.5,92.5C 174.503,89.9746 174.837,87.6413 175.5,85.5 Z"/></g>
<g><path style="opacity:1" fill="#e5e433" d="M 57.5,4.5 C 105.33,3.50118 153.33,3.16784 201.5,3.5C 201.17,23.6736 201.503,43.6736 202.5,63.5C 202.5,90.1667 202.5,116.833 202.5,143.5C 200.831,151.839 198.664,160.173 196,168.5C 195.392,170.066 194.558,171.4 193.5,172.5C 193.095,167.317 194.429,162.65 197.5,158.5C 196.58,156.214 196.58,153.881 197.5,151.5C 200.026,148.613 201.026,145.113 200.5,141C 200.251,95.7881 200.251,50.2881 200.5,4.5C 152.833,4.5 105.167,4.5 57.5,4.5 Z"/></g>
<g><path style="opacity:1" fill="#413c31" d="M 79.5,98.5 C 81.7488,99.0798 83.4154,100.413 84.5,102.5C 82.2512,101.92 80.5846,100.587 79.5,98.5 Z"/></g>
<g><path style="opacity:1" fill="#3c3f4e" d="M 118.5,57.5 C 120.139,59.8061 122.139,61.8061 124.5,63.5C 124.328,64.4916 124.662,65.1583 125.5,65.5C 126.32,67.8123 127.153,70.1457 128,72.5C 129.444,74.1554 131.278,74.822 133.5,74.5C 132.34,75.265 131.34,76.265 130.5,77.5C 131.498,80.0278 132.331,80.0278 133,77.5C 133.852,78.5707 134.685,79.5707 135.5,80.5C 135.104,83.4822 135.771,86.1489 137.5,88.5C 136.054,90.6179 135.387,92.9512 135.5,95.5C 134.141,99.2526 132.807,102.919 131.5,106.5C 131.261,110.842 130.927,115.176 130.5,119.5C 130.557,120.609 130.89,121.609 131.5,122.5C 130.292,123.234 128.959,123.567 127.5,123.5C 128.414,120.272 128.747,116.939 128.5,113.5C 129.234,112.122 129.901,110.622 130.5,109C 126.605,107.734 122.605,107.234 118.5,107.5C 115.917,106.461 113.417,105.128 111,103.5C 109.385,104.386 107.885,105.386 106.5,106.5C 105.833,106.5 105.5,106.167 105.5,105.5C 106.885,104.386 108.385,103.386 110,102.5C 110.897,99.7076 112.063,97.0409 113.5,94.5C 116.976,97.784 118.643,97.1173 118.5,92.5C 120.833,93.1667 123.167,93.8333 125.5,94.5C 125.565,92.3043 126.232,90.3043 127.5,88.5C 129.219,89.7887 130.553,89.4554 131.5,87.5C 131.663,85.1432 131.497,82.8098 131,80.5C 126.482,72.8699 122.316,65.2032 118.5,57.5 Z"/></g>
<g><path style="opacity:1" fill="#c7c7c4" d="M 131.5,87.5 C 132.558,86.3998 133.392,85.0664 134,83.5C 134.62,89.1428 132.786,93.8095 128.5,97.5C 126.079,95.8244 125.912,93.8244 128,91.5C 129.147,92.4581 130.147,92.1247 131,90.5C 131.483,89.552 131.649,88.552 131.5,87.5 Z"/></g>
<g><path style="opacity:1" fill="#f2f2ec" d="M 131.5,106.5 C 126.508,106.001 121.508,105.501 116.5,105C 117.24,103.215 117.907,101.382 118.5,99.5C 120.078,98.7022 121.744,98.2022 123.5,98C 121.385,97.5756 120.552,96.4089 121,94.5C 124.517,97.1645 128.35,99.1645 132.5,100.5C 131.652,102.409 131.318,104.409 131.5,106.5 Z"/></g>
<g><path style="opacity:1" fill="#3b362f" d="M 206.5,66.5 C 206.815,92.2113 206.482,117.878 205.5,143.5C 204.512,138.36 204.179,133.026 204.5,127.5C 204.5,122.167 204.5,116.833 204.5,111.5C 204.333,95.4965 204.5,79.4965 205,63.5C 205.232,64.7375 205.732,65.7375 206.5,66.5 Z"/></g>
<g><path style="opacity:1" fill="#541f22" d="M 6.5,84.5 C 6.5,84.8333 6.5,85.1667 6.5,85.5C 5.55183,104.139 5.2185,122.806 5.5,141.5C 5.5,142.167 5.5,142.833 5.5,143.5C 4.50299,124.341 4.16965,105.007 4.5,85.5C 5.16667,85.1667 5.83333,84.8333 6.5,84.5 Z"/></g>
<g><path style="opacity:1" fill="#443534" d="M 84.5,102.5 C 86.4044,102.738 87.7377,103.738 88.5,105.5C 86.5956,105.262 85.2623,104.262 84.5,102.5 Z"/></g>
<g><path style="opacity:1" fill="#ec3b37" d="M 162.5,47.5 C 163.167,47.8333 163.833,48.1667 164.5,48.5C 165.983,50.4837 167.649,52.317 169.5,54C 167.922,55.9716 167.089,58.1383 167,60.5C 167.414,60.9574 167.914,61.2907 168.5,61.5C 169.524,60.1468 170.857,59.4802 172.5,59.5C 172.5,62.8333 172.5,66.1667 172.5,69.5C 168.5,70.1667 168.5,70.8333 172.5,71.5C 172.813,74.2469 172.48,76.9135 171.5,79.5C 170.378,78.3698 169.044,77.7031 167.5,77.5C 165.031,76.4314 162.698,75.0981 160.5,73.5C 160.167,73.8333 159.833,74.1667 159.5,74.5C 163.5,77.5 167.5,80.5 171.5,83.5C 172.452,85.0453 172.785,86.712 172.5,88.5C 172.296,91.5176 171.963,94.5176 171.5,97.5C 167.07,97.807 163.236,96.4736 160,93.5C 159.517,94.448 159.351,95.448 159.5,96.5C 155.167,96.5 150.833,96.5 146.5,96.5C 146.36,98.1238 147.027,99.2904 148.5,100C 152.152,100.499 155.818,100.665 159.5,100.5C 161.711,101.123 163.711,102.123 165.5,103.5C 166.414,106.728 166.747,110.061 166.5,113.5C 165.5,113.5 164.5,113.5 163.5,113.5C 163.919,118.698 161.752,120.365 157,118.5C 156,112.324 152.5,109.991 146.5,111.5C 146.137,112.183 145.804,112.85 145.5,113.5C 142.485,115.674 139.151,117.341 135.5,118.5C 134.5,118.5 133.5,118.5 132.5,118.5C 132.916,113.507 133.249,108.507 133.5,103.5C 134.822,103.33 135.989,103.663 137,104.5C 137.178,99.3792 138.011,94.3792 139.5,89.5C 139.457,88.5836 139.124,87.9169 138.5,87.5C 137.781,85.2362 137.448,82.9029 137.5,80.5C 140.059,80.8016 142.393,80.4682 144.5,79.5C 145.496,79.5858 146.329,79.2524 147,78.5C 148.81,63.4088 144.31,61.4088 133.5,72.5C 131.856,72.7135 130.356,72.3802 129,71.5C 124.607,64.1939 126.773,60.3605 135.5,60C 134.62,58.6439 134.286,57.1439 134.5,55.5C 135.833,55.5 137.167,55.5 138.5,55.5C 138.5,57.5 138.5,59.5 138.5,61.5C 140.167,61.5 141.833,61.5 143.5,61.5C 143.802,58.9407 143.468,56.6074 142.5,54.5C 142.5,53.8333 142.167,53.5 141.5,53.5C 141.586,52.5041 141.252,51.6708 140.5,51C 137.854,50.5026 135.187,50.3359 132.5,50.5C 132.5,49.5 132.5,48.5 132.5,47.5C 133.93,47.4208 135.264,47.7542 136.5,48.5C 137.719,47.7366 138.719,46.7366 139.5,45.5C 143.153,48.4985 147.153,49.1651 151.5,47.5C 152.207,45.8656 153.373,44.5323 155,43.5C 155.179,46.5535 155.679,49.5535 156.5,52.5C 157.057,49.0168 159.057,47.3501 162.5,47.5 Z"/></g>
<g><path style="opacity:1" fill="#67330a" d="M 176.5,100.5 C 177.167,100.5 177.833,100.5 178.5,100.5C 179.167,100.833 179.833,101.167 180.5,101.5C 182.148,105.977 181.481,109.977 178.5,113.5C 180.357,108.662 179.69,104.329 176.5,100.5 Z"/></g>
<g><path style="opacity:1" fill="#7c241e" d="M 171.5,121.5 C 170.833,126.167 170.167,130.833 169.5,135.5C 169.666,126.827 169.5,118.16 169,109.5C 168.992,106.655 167.825,104.655 165.5,103.5C 163.711,102.123 161.711,101.123 159.5,100.5C 156.5,99.9072 153.5,99.0739 150.5,98C 157.899,97.3552 164.399,99.5219 170,104.5C 170.757,110.149 171.257,115.816 171.5,121.5 Z"/></g>
<g><path style="opacity:1" fill="#38342d" d="M 88.5,105.5 C 90.5,105.5 91.5,106.5 91.5,108.5C 90.1667,107.833 89.1667,106.833 88.5,105.5 Z"/></g>
<g><path style="opacity:1" fill="#f5f5f1" d="M 79.5,98.5 C 82.005,97.5033 84.6717,97.5033 87.5,98.5C 87.8417,99.3382 88.5084,99.6716 89.5,99.5C 92.2956,102.797 95.2956,105.964 98.5,109C 101.646,109.589 104.312,108.755 106.5,106.5C 107.885,105.386 109.385,104.386 111,103.5C 113.417,105.128 115.917,106.461 118.5,107.5C 117.167,108.167 116.167,109.167 115.5,110.5C 112.545,113.116 109.545,115.782 106.5,118.5C 100.527,120.84 97.0268,118.84 96,112.5C 94.6288,110.959 93.1288,109.625 91.5,108.5C 91.5,106.5 90.5,105.5 88.5,105.5C 87.7377,103.738 86.4044,102.738 84.5,102.5C 83.4154,100.413 81.7488,99.0798 79.5,98.5 Z"/></g>
<g><path style="opacity:1" fill="#cf4344" d="M 138.5,87.5 C 139.124,87.9169 139.457,88.5836 139.5,89.5C 138.011,94.3792 137.178,99.3792 137,104.5C 135.989,103.663 134.822,103.33 133.5,103.5C 133.249,108.507 132.916,113.507 132.5,118.5C 133.5,118.5 134.5,118.5 135.5,118.5C 134.081,119.451 132.415,119.784 130.5,119.5C 130.927,115.176 131.261,110.842 131.5,106.5C 132.807,102.919 134.141,99.2526 135.5,95.5C 137.02,93.1098 138.02,90.4432 138.5,87.5 Z"/></g>
<g><path style="opacity:1" fill="#4d76ca" d="M 128.5,113.5 C 128.747,116.939 128.414,120.272 127.5,123.5C 126.791,124.404 125.791,124.737 124.5,124.5C 122.079,124.878 119.746,125.545 117.5,126.5C 111.073,128.238 108.406,125.905 109.5,119.5C 111.308,119.509 112.975,119.009 114.5,118C 115.916,115.165 117.583,112.498 119.5,110C 122.227,109.182 124.894,109.348 127.5,110.5C 128.127,111.417 128.461,112.417 128.5,113.5 Z"/></g>
<g><path style="opacity:1" fill="#d4433e" d="M 165.5,103.5 C 167.825,104.655 168.992,106.655 169,109.5C 169.5,118.16 169.666,126.827 169.5,135.5C 169.5,137.167 169.5,138.833 169.5,140.5C 168.5,140.5 167.5,140.5 166.5,140.5C 166.79,134.439 166.457,128.439 165.5,122.5C 162.78,120.889 159.78,120.056 156.5,120C 155.363,113.341 151.696,111.174 145.5,113.5C 145.804,112.85 146.137,112.183 146.5,111.5C 152.5,109.991 156,112.324 157,118.5C 161.752,120.365 163.919,118.698 163.5,113.5C 164.5,113.5 165.5,113.5 166.5,113.5C 166.747,110.061 166.414,106.728 165.5,103.5 Z"/></g>
<g><path style="opacity:1" fill="#5f3028" d="M 166.5,140.5 C 165.833,140.5 165.5,140.833 165.5,141.5C 165.167,141.5 164.833,141.5 164.5,141.5C 165.521,135.87 165.687,130.204 165,124.5C 161.974,121.928 159.141,121.928 156.5,124.5C 154.215,121.665 152.882,118.332 152.5,114.5C 144.988,115.753 137.988,118.42 131.5,122.5C 130.89,121.609 130.557,120.609 130.5,119.5C 132.415,119.784 134.081,119.451 135.5,118.5C 139.151,117.341 142.485,115.674 145.5,113.5C 151.696,111.174 155.363,113.341 156.5,120C 159.78,120.056 162.78,120.889 165.5,122.5C 166.457,128.439 166.79,134.439 166.5,140.5 Z"/></g>
<g><path style="opacity:1" fill="#454006" d="M 202.5,63.5 C 203.167,79.5 203.833,95.5 204.5,111.5C 204.5,116.833 204.5,122.167 204.5,127.5C 203.833,132.833 203.167,138.167 202.5,143.5C 202.5,116.833 202.5,90.1667 202.5,63.5 Z"/></g>
<g><path style="opacity:1" fill="#584237" d="M 91.5,108.5 C 93.1288,109.625 94.6288,110.959 96,112.5C 97.0268,118.84 100.527,120.84 106.5,118.5C 106.5,119.5 106.5,120.5 106.5,121.5C 100.062,120.905 99.3954,121.905 104.5,124.5C 105.183,124.137 105.85,123.804 106.5,123.5C 106.443,124.609 106.11,125.609 105.5,126.5C 102.628,125.474 100.128,123.808 98,121.5C 96.3339,116.834 94.1673,112.501 91.5,108.5 Z"/></g>
<g><path style="opacity:1" fill="#5776af" d="M 118.5,107.5 C 122.605,107.234 126.605,107.734 130.5,109C 129.901,110.622 129.234,112.122 128.5,113.5C 128.461,112.417 128.127,111.417 127.5,110.5C 124.894,109.348 122.227,109.182 119.5,110C 117.583,112.498 115.916,115.165 114.5,118C 112.975,119.009 111.308,119.509 109.5,119.5C 108.406,125.905 111.073,128.238 117.5,126.5C 115.063,128.856 112.396,129.022 109.5,127C 107.012,124.373 106.845,121.54 109,118.5C 111.782,116.229 113.949,113.563 115.5,110.5C 116.167,109.167 117.167,108.167 118.5,107.5 Z"/></g>
<g><path style="opacity:1" fill="#f8f6f1" d="M 60.5,70.5 C 60.8858,73.7366 62.3858,76.4033 65,78.5C 66.1096,76.9632 67.6096,76.2965 69.5,76.5C 71.288,76.2148 72.9547,76.5481 74.5,77.5C 72.255,80.9121 69.255,83.4121 65.5,85C 66.624,85.2492 67.624,85.7492 68.5,86.5C 70.1442,92.473 73.8109,96.473 79.5,98.5C 80.5846,100.587 82.2512,101.92 84.5,102.5C 85.2623,104.262 86.5956,105.262 88.5,105.5C 89.1667,106.833 90.1667,107.833 91.5,108.5C 94.1673,112.501 96.3339,116.834 98,121.5C 100.128,123.808 102.628,125.474 105.5,126.5C 107.636,127.403 109.636,128.569 111.5,130C 109.754,130.471 108.087,131.138 106.5,132C 107,132.167 107.5,132.333 108,132.5C 113.897,130.467 119.397,127.8 124.5,124.5C 125.791,124.737 126.791,124.404 127.5,123.5C 128.959,123.567 130.292,123.234 131.5,122.5C 137.988,118.42 144.988,115.753 152.5,114.5C 152.882,118.332 154.215,121.665 156.5,124.5C 158.357,132.526 161.024,140.193 164.5,147.5C 165.659,151.151 167.326,154.485 169.5,157.5C 169.187,162.395 171.187,165.729 175.5,167.5C 179.461,169.277 183.128,171.611 186.5,174.5C 179.532,175.497 172.532,175.83 165.5,175.5C 164.253,169.388 162.92,163.388 161.5,157.5C 161.539,154.911 160.539,152.911 158.5,151.5C 158.573,149.973 157.906,148.973 156.5,148.5C 155.415,146.413 153.749,145.08 151.5,144.5C 151.106,142.29 149.773,140.957 147.5,140.5C 145.957,138.072 144.957,135.406 144.5,132.5C 140.905,132.976 137.572,134.142 134.5,136C 132.859,137.129 131.859,138.629 131.5,140.5C 127.195,145.141 122.861,149.807 118.5,154.5C 114.204,155.463 109.871,155.629 105.5,155C 100.661,153.079 95.9942,150.912 91.5,148.5C 89.02,144.891 86.52,141.224 84,137.5C 83.1841,136.177 82.0174,135.511 80.5,135.5C 76.0803,131.777 71.4137,128.277 66.5,125C 64.6547,123.872 62.6547,123.372 60.5,123.5C 61.1667,122.833 61.8333,122.167 62.5,121.5C 58.5395,122.479 55.2061,124.479 52.5,127.5C 47.0668,130.017 44.4002,134.35 44.5,140.5C 45.1573,148.489 45.6573,156.489 46,164.5C 46.8518,165.571 47.6851,166.571 48.5,167.5C 48.5,168.167 48.8333,168.5 49.5,168.5C 49.5,169.167 49.8333,169.5 50.5,169.5C 50.6309,170.376 50.2975,171.043 49.5,171.5C 48.1861,170.687 47.0195,169.687 46,168.5C 45.3333,169.5 45.3333,170.5 46,171.5C 48.8063,174.306 51.6396,177.14 54.5,180C 49.236,180.107 45.736,177.607 44,172.5C 43.0089,168.325 41.8422,164.325 40.5,160.5C 37.8138,151.009 36.9805,141.342 38,131.5C 44.7523,122.982 51.2523,114.316 57.5,105.5C 60.6822,104.86 61.0155,103.86 58.5,102.5C 59.412,98.8694 59.5787,95.2027 59,91.5C 53.0445,85.9163 48.8779,79.2497 46.5,71.5C 49.2359,68.8749 52.0692,68.8749 55,71.5C 56.7659,70.7665 58.5992,70.4332 60.5,70.5 Z"/></g>
<g><path style="opacity:1" fill="#2d3b51" d="M 60.5,123.5 C 62.6547,123.372 64.6547,123.872 66.5,125C 71.4137,128.277 76.0803,131.777 80.5,135.5C 76.5172,133.194 72.5172,130.861 68.5,128.5C 66.1667,127.167 63.8333,125.833 61.5,124.5C 60.8333,124.5 60.5,124.167 60.5,123.5 Z"/></g>
<g><path style="opacity:1" fill="#aaa9a4" d="M 89.5,116.5 C 90.675,116.281 91.675,116.614 92.5,117.5C 92.0495,120.63 90.7162,123.297 88.5,125.5C 87.7025,125.043 87.3691,124.376 87.5,123.5C 88.4552,121.254 89.1218,118.921 89.5,116.5 Z"/></g>
<g><path style="opacity:1" fill="#c64d50" d="M 106.5,121.5 C 106.5,122.167 106.5,122.833 106.5,123.5C 105.85,123.804 105.183,124.137 104.5,124.5C 99.3954,121.905 100.062,120.905 106.5,121.5 Z"/></g>
<g><path style="opacity:1" fill="#4e4d48" d="M 89.5,116.5 C 89.1218,118.921 88.4552,121.254 87.5,123.5C 86.7611,123.631 86.0944,123.464 85.5,123C 86.7332,120.686 88.0666,118.519 89.5,116.5 Z"/></g>
<g><path style="opacity:1" fill="#434138" d="M 62.5,121.5 C 64.2023,118.605 66.5356,116.772 69.5,116C 67.5588,118.454 65.2254,120.287 62.5,121.5 Z"/></g>
<g><path style="opacity:1" fill="#34394a" d="M 115.5,110.5 C 113.949,113.563 111.782,116.229 109,118.5C 106.845,121.54 107.012,124.373 109.5,127C 112.396,129.022 115.063,128.856 117.5,126.5C 119.746,125.545 122.079,124.878 124.5,124.5C 119.397,127.8 113.897,130.467 108,132.5C 107.5,132.333 107,132.167 106.5,132C 108.087,131.138 109.754,130.471 111.5,130C 109.636,128.569 107.636,127.403 105.5,126.5C 106.11,125.609 106.443,124.609 106.5,123.5C 106.5,122.833 106.5,122.167 106.5,121.5C 106.5,120.5 106.5,119.5 106.5,118.5C 109.545,115.782 112.545,113.116 115.5,110.5 Z"/></g>
<g><path style="opacity:1" fill="#4c76cc" d="M 61.5,124.5 C 63.8333,125.833 66.1667,127.167 68.5,128.5C 70.6125,130.793 72.6125,133.293 74.5,136C 75.8333,136.333 77.1667,136.667 78.5,137C 79.3052,138.972 80.6385,140.472 82.5,141.5C 74.5277,142.498 66.5277,142.831 58.5,142.5C 58.0301,139.654 58.8634,137.321 61,135.5C 61.4986,131.848 61.6653,128.182 61.5,124.5 Z"/></g>
<g><path style="opacity:1" fill="#ece9e4" d="M 164.5,141.5 C 164.5,141.833 164.5,142.167 164.5,142.5C 161.833,136.5 159.167,130.5 156.5,124.5C 159.141,121.928 161.974,121.928 165,124.5C 165.687,130.204 165.521,135.87 164.5,141.5 Z"/></g>
<g><path style="opacity:1" fill="#602c06" d="M 176.5,117.5 C 175.52,120.116 174.02,122.449 172,124.5C 171.641,130.523 171.141,136.523 170.5,142.5C 168.784,142.371 167.117,142.038 165.5,141.5C 165.5,140.833 165.833,140.5 166.5,140.5C 167.5,140.5 168.5,140.5 169.5,140.5C 169.5,138.833 169.5,137.167 169.5,135.5C 170.167,130.833 170.833,126.167 171.5,121.5C 171.435,121.938 171.601,122.272 172,122.5C 173.049,120.382 174.549,118.716 176.5,117.5 Z"/></g>
<g><path style="opacity:1" fill="#e93c37" d="M 16.5,91.5 C 15.4921,98.4718 15.3255,105.472 16,112.5C 17.3092,107.934 17.8092,103.267 17.5,98.5C 21.6642,99.3284 25.6642,100.662 29.5,102.5C 30.9823,100.885 32.8157,99.8852 35,99.5C 39.3188,100.941 43.4854,102.775 47.5,105C 50.0196,105.014 52.5196,104.514 55,103.5C 56.1667,103.667 57.3333,103.833 58.5,104C 57.944,104.383 57.6107,104.883 57.5,105.5C 50.6511,108.189 46.4844,113.189 45,120.5C 42.5997,122.729 40.433,125.063 38.5,127.5C 36.5891,127.574 35.4224,128.574 35,130.5C 34.0791,139.813 33.5791,149.147 33.5,158.5C 25.8333,158.5 18.1667,158.5 10.5,158.5C 10.5,153.833 10.5,149.167 10.5,144.5C 15.0512,142.966 18.8846,140.299 22,136.5C 24.592,130.761 27.7587,125.427 31.5,120.5C 33.5622,116.721 35.8955,113.054 38.5,109.5C 37.9984,108.479 37.3317,108.312 36.5,109C 29.6197,119.348 21.9531,128.848 13.5,137.5C 11.4418,138.933 9.1085,139.6 6.5,139.5C 6.16724,123.486 6.50058,107.486 7.5,91.5C 9.72094,87.4653 10.8876,83.132 11,78.5C 12.6667,79.8333 14.3333,79.8333 16,78.5C 16.923,80.0344 17.423,81.701 17.5,83.5C 16.9049,86.1401 16.5715,88.8067 16.5,91.5 Z"/></g>
<g><path style="opacity:1" fill="#504f48" d="M 147.5,140.5 C 145.443,138.73 143.609,136.73 142,134.5C 138.106,135.912 134.606,137.912 131.5,140.5C 131.859,138.629 132.859,137.129 134.5,136C 137.572,134.142 140.905,132.976 144.5,132.5C 144.957,135.406 145.957,138.072 147.5,140.5 Z"/></g>
<g><path style="opacity:1" fill="#f9f8f2" d="M 205.5,-0.5 C 206.833,-0.5 208.167,-0.5 209.5,-0.5C 209.5,78.1667 209.5,156.833 209.5,235.5C 180.167,235.5 150.833,235.5 121.5,235.5C 121.611,234.883 121.944,234.383 122.5,234C 129.396,233.955 135.396,231.788 140.5,227.5C 140.5,227.167 140.5,226.833 140.5,226.5C 159.349,219.135 174.849,207.468 187,191.5C 197.409,177.246 203.576,161.246 205.5,143.5C 206.482,117.878 206.815,92.2113 206.5,66.5C 206.813,62.9581 206.479,59.6248 205.5,56.5C 205.5,37.5 205.5,18.5 205.5,-0.5 Z"/></g>
<g><path style="opacity:1" fill="#4d4d3e" d="M 156.5,124.5 C 159.167,130.5 161.833,136.5 164.5,142.5C 164.5,144.167 164.5,145.833 164.5,147.5C 161.024,140.193 158.357,132.526 156.5,124.5 Z"/></g>
<g><path style="opacity:1" fill="#403c34" d="M 63.5,-0.5 C 110.833,-0.5 158.167,-0.5 205.5,-0.5C 205.5,18.5 205.5,37.5 205.5,56.5C 205.631,57.3764 205.298,58.0431 204.5,58.5C 203.833,54.6875 203.166,51.0208 202.5,47.5C 202.5,32.5 202.5,17.5 202.5,2.5C 136.832,2.33334 71.1658,2.5 5.5,3C 4.94404,3.38258 4.61071,3.88258 4.5,4.5C 3.21591,31.3469 3.21591,58.3469 4.5,85.5C 4.16965,105.007 4.50299,124.341 5.5,143.5C 5.5,143.833 5.5,144.167 5.5,144.5C 5.39275,148.535 5.72608,152.535 6.5,156.5C 6.61981,158.588 7.61981,159.922 9.5,160.5C 9.79586,162.403 10.4625,164.07 11.5,165.5C 13.3569,172.209 16.0236,178.543 19.5,184.5C 22.7249,192.621 28.0583,198.955 35.5,203.5C 37.4821,206.81 39.8154,209.81 42.5,212.5C 19.6339,196.468 6.13392,174.468 2,146.5C 1.67805,141.148 1.17805,135.814 0.5,130.5C 0.628872,87.1902 0.628872,43.8568 0.5,0.5C 21.6733,0.830593 42.6733,0.497259 63.5,-0.5 Z"/></g>
<g><path style="opacity:1" fill="#eae9e2" d="M 46.5,50.5 C 47.0577,51.7899 48.0577,52.6232 49.5,53C 48.8534,54.6095 48.02,56.1095 47,57.5C 43.1055,56.3794 41.9389,54.046 43.5,50.5C 44.3478,49.375 45.3478,49.375 46.5,50.5 Z"/></g>
<g><path style="opacity:1" fill="#b2b63f" d="M 112.5,49.5 C 114.17,49.7512 115.67,50.4178 117,51.5C 118.107,50.2881 118.607,50.6214 118.5,52.5C 117.07,52.4208 115.736,52.7542 114.5,53.5C 112.889,52.6798 112.222,51.3464 112.5,49.5 Z"/></g>
<g><path style="opacity:1" fill="#353a23" d="M 108.5,19.5 C 109.833,21.5 111.5,23.1667 113.5,24.5C 114.314,29.1191 114.647,33.7858 114.5,38.5C 114.5,38.8333 114.5,39.1667 114.5,39.5C 113.525,42.3112 112.858,45.3112 112.5,48.5C 112.5,48.8333 112.5,49.1667 112.5,49.5C 112.222,51.3464 112.889,52.6798 114.5,53.5C 115.736,52.7542 117.07,52.4208 118.5,52.5C 118.5,54.1667 118.5,55.8333 118.5,57.5C 117.5,57.5 116.5,57.5 115.5,57.5C 115.5,57.1667 115.5,56.8333 115.5,56.5C 114.895,54.9743 113.729,53.9743 112,53.5C 111.219,52.2713 110.719,50.938 110.5,49.5C 112.387,41.5928 112.887,33.5928 112,25.5C 111.184,24.1772 110.017,23.5106 108.5,23.5C 105.308,18.7334 100.975,17.0667 95.5,18.5C 96.3121,17.0069 97.6455,16.3402 99.5,16.5C 102.605,17.2211 105.605,18.2211 108.5,19.5 Z"/></g>
<g><path style="opacity:1" fill="#c9c63d" d="M 65.5,41.5 C 65.5,45.5 65.5,49.5 65.5,53.5C 65.1667,53.5 64.8333,53.5 64.5,53.5C 63.7091,49.3798 64.0425,45.3798 65.5,41.5 Z"/></g>
<g><path style="opacity:1" fill="#403b1d" d="M 65.5,41.5 C 64.0425,45.3798 63.7091,49.3798 64.5,53.5C 64.5858,54.4959 64.2524,55.3292 63.5,56C 58.5495,57.181 54.8828,55.681 52.5,51.5C 52.8333,50.5 53.5,49.8333 54.5,49.5C 57.1667,49.5 59.8333,49.5 62.5,49.5C 62.335,44.1377 63.0016,38.971 64.5,34C 64.5928,24.7649 60.2595,21.9316 51.5,25.5C 48.7025,28.0971 45.7025,30.4304 42.5,32.5C 48.0062,22.9732 55.5062,20.9732 65,26.5C 65.4993,31.4889 65.6659,36.4889 65.5,41.5 Z"/></g>
<g><path style="opacity:1" fill="#efece6" d="M 54.5,49.5 C 53.5,49.8333 52.8333,50.5 52.5,51.5C 50.5,51.1667 48.5,50.8333 46.5,50.5C 46.7475,42.9232 48.9141,35.9232 53,29.5C 58.0244,26.491 60.8578,27.991 61.5,34C 61.3333,35.1667 61.1667,36.3333 61,37.5C 60.2825,36.5494 59.4491,36.3828 58.5,37C 59.3567,37.6891 60.0233,38.5224 60.5,39.5C 58.9916,43.1928 56.9916,46.5262 54.5,49.5 Z"/></g>
<g><path style="opacity:1" fill="#4a463e" d="M 103.5,41.5 C 103.5,42.5 103.5,43.5 103.5,44.5C 100.295,48.3738 96.295,51.0405 91.5,52.5C 91.5,51.8333 91.5,51.1667 91.5,50.5C 96.6556,49.0073 100.656,46.0073 103.5,41.5 Z"/></g>
<g><path style="opacity:1" fill="#da423c" d="M 141.5,17.5 C 141.5,18.1667 141.5,18.8333 141.5,19.5C 140.504,19.4142 139.671,19.7476 139,20.5C 137.815,22.8696 136.649,25.2029 135.5,27.5C 136.104,33.1372 137.604,38.4705 140,43.5C 141.264,45.607 143.097,46.607 145.5,46.5C 147.265,47.4614 149.265,47.7947 151.5,47.5C 147.153,49.1651 143.153,48.4985 139.5,45.5C 138.719,46.7366 137.719,47.7366 136.5,48.5C 135.264,47.7542 133.93,47.4208 132.5,47.5C 132.5,48.5 132.5,49.5 132.5,50.5C 135.187,50.3359 137.854,50.5026 140.5,51C 141.252,51.6708 141.586,52.5041 141.5,53.5C 138.011,52.0697 134.344,51.2363 130.5,51C 130.043,50.586 129.709,50.086 129.5,49.5C 130.502,47.4899 131.502,45.4899 132.5,43.5C 133.427,45.9456 135.094,46.7789 137.5,46C 135.099,42.6489 132.933,39.1489 131,35.5C 130.503,31.4761 130.669,27.4761 131.5,23.5C 133.179,22.0003 134.512,20.167 135.5,18C 137.473,17.5045 139.473,17.3379 141.5,17.5 Z"/></g>
<g><path style="opacity:1" fill="#a7ac2d" d="M 114.5,39.5 C 114.932,42.8774 114.265,45.8774 112.5,48.5C 112.858,45.3112 113.525,42.3112 114.5,39.5 Z"/></g>
<g><path style="opacity:1" fill="#a13933" d="M 154.5,28.5 C 155.651,30.7791 156.651,33.1124 157.5,35.5C 157.5,35.8333 157.5,36.1667 157.5,36.5C 156.643,41.5186 158.309,45.1853 162.5,47.5C 159.057,47.3501 157.057,49.0168 156.5,52.5C 155.679,49.5535 155.179,46.5535 155,43.5C 153.373,44.5323 152.207,45.8656 151.5,47.5C 149.265,47.7947 147.265,47.4614 145.5,46.5C 147.086,45.5868 148.586,45.5868 150,46.5C 150.278,45.5842 150.778,44.9175 151.5,44.5C 152.117,44.3893 152.617,44.056 153,43.5C 153.174,38.3165 153.674,33.3165 154.5,28.5 Z"/></g>
<g><path style="opacity:1" fill="#b8b243" d="M 129.5,36.5 C 131.999,39.7151 131.666,42.7151 128.5,45.5C 129.299,42.5701 129.632,39.5701 129.5,36.5 Z"/></g>
<g><path style="opacity:1" fill="#f2f3ec" d="M 101.5,24.5 C 102.864,26.1911 104.197,27.8577 105.5,29.5C 106.997,33.851 106.33,37.851 103.5,41.5C 100.656,46.0073 96.6556,49.0073 91.5,50.5C 87.5451,48.9358 85.8785,45.9358 86.5,41.5C 87.0882,36.7378 88.0882,32.0711 89.5,27.5C 93.3219,25.8779 97.3219,24.8779 101.5,24.5 Z"/></g>
<g><path style="opacity:1" fill="#82807b" d="M 89.5,39.5 C 91.6491,40.7476 93.6491,42.2476 95.5,44C 94.0217,46.0386 92.0217,46.8719 89.5,46.5C 89.5,44.1667 89.5,41.8333 89.5,39.5 Z"/></g>
<g><path style="opacity:1" fill="#532c04" d="M 157.5,36.5 C 158.309,38.2922 158.809,40.2922 159,42.5C 161.688,44.364 164.188,46.364 166.5,48.5C 165.833,48.5 165.167,48.5 164.5,48.5C 163.833,48.1667 163.167,47.8333 162.5,47.5C 158.309,45.1853 156.643,41.5186 157.5,36.5 Z"/></g>
<g><path style="opacity:1" fill="#cfcc37" d="M 36.5,38.5 C 36.5,38.8333 36.5,39.1667 36.5,39.5C 34.1667,39.5 31.8333,39.5 29.5,39.5C 29.3379,41.5273 29.5045,43.5273 30,45.5C 31.7209,48.0388 33.5542,50.3722 35.5,52.5C 33.139,52.6741 30.8056,53.0074 28.5,53.5C 31.1083,50.1299 30.775,47.7965 27.5,46.5C 28.3928,43.9159 28.7261,41.2492 28.5,38.5C 31.1667,38.5 33.8333,38.5 36.5,38.5 Z"/></g>
<g><path style="opacity:1" fill="#545250" d="M 99.5,34.5 C 101.2,35.016 102.533,36.016 103.5,37.5C 101.438,38.7609 99.7715,38.2609 98.5,36C 99.056,35.6174 99.3893,35.1174 99.5,34.5 Z"/></g>
<g><path style="opacity:1" fill="#8d8d84" d="M 90.5,31.5 C 93.3213,31.3159 94.9879,32.6493 95.5,35.5C 94.4061,37.8362 93.0728,37.8362 91.5,35.5C 90.5713,34.3112 90.238,32.9778 90.5,31.5 Z"/></g>
<g><path style="opacity:1" fill="#5975b3" d="M 108.5,23.5 C 107.022,23.238 105.689,23.5713 104.5,24.5C 105.853,25.5237 106.52,26.857 106.5,28.5C 105.833,28.5 105.5,28.8333 105.5,29.5C 104.197,27.8577 102.864,26.1911 101.5,24.5C 100.903,23.8614 100.07,23.528 99,23.5C 96.5,24 94,24.5 91.5,25C 90.244,25.4169 89.5774,26.2502 89.5,27.5C 87.7817,29.3637 86.615,31.6971 86,34.5C 85.0025,40.0496 85.5025,45.383 87.5,50.5C 86.5041,50.5858 85.6708,50.2524 85,49.5C 85.0835,45.6887 84.2501,42.3554 82.5,39.5C 83.3562,35.4291 84.5229,31.4291 86,27.5C 89.5279,24.8306 92.6946,21.8306 95.5,18.5C 100.975,17.0667 105.308,18.7334 108.5,23.5 Z"/></g>
<g><path style="opacity:1" fill="#5f3d38" d="M 149.5,23.5 C 151.093,24.3479 152.26,25.6813 153,27.5C 153.399,27.2716 153.565,26.9382 153.5,26.5C 154.338,26.8417 154.672,27.5084 154.5,28.5C 153.674,33.3165 153.174,38.3165 153,43.5C 152.617,44.056 152.117,44.3893 151.5,44.5C 152.866,39.1449 152.7,33.8115 151,28.5C 149.428,29.0811 147.595,29.0811 145.5,28.5C 147.046,27.316 148.713,26.316 150.5,25.5C 150.137,24.8165 149.804,24.1499 149.5,23.5 Z"/></g>
<g><path style="opacity:1" fill="#5d2726" d="M 141.5,19.5 C 144.852,19.53 147.518,20.8633 149.5,23.5C 146.865,22.3169 144.198,21.4836 141.5,21C 138.38,23.4077 137.047,26.5743 137.5,30.5C 137.263,31.791 137.596,32.791 138.5,33.5C 139.158,38.8644 141.491,43.1977 145.5,46.5C 143.097,46.607 141.264,45.607 140,43.5C 137.604,38.4705 136.104,33.1372 135.5,27.5C 136.649,25.2029 137.815,22.8696 139,20.5C 139.671,19.7476 140.504,19.4142 141.5,19.5 Z"/></g>
<g><path style="opacity:1" fill="#bfc23d" d="M 113.5,24.5 C 115.047,26.8066 115.713,29.4733 115.5,32.5C 115.495,34.6965 115.162,36.6965 114.5,38.5C 114.647,33.7858 114.314,29.1191 113.5,24.5 Z"/></g>
<g><path style="opacity:1" fill="#f1efe7" d="M 149.5,23.5 C 149.804,24.1499 150.137,24.8165 150.5,25.5C 148.713,26.316 147.046,27.316 145.5,28.5C 147.595,29.0811 149.428,29.0811 151,28.5C 152.7,33.8115 152.866,39.1449 151.5,44.5C 150.778,44.9175 150.278,45.5842 150,46.5C 148.586,45.5868 147.086,45.5868 145.5,46.5C 141.491,43.1977 139.158,38.8644 138.5,33.5C 139.474,31.9147 140.974,30.9147 143,30.5C 143.497,32.8098 143.663,35.1432 143.5,37.5C 149.167,37.3364 149.5,37.0031 144.5,36.5C 146.097,29.0726 143.763,27.0726 137.5,30.5C 137.047,26.5743 138.38,23.4077 141.5,21C 144.198,21.4836 146.865,22.3169 149.5,23.5 Z"/></g>
<g><path style="opacity:1" fill="#595e58" d="M 146.5,38.5 C 147.5,38.5 148.5,38.5 149.5,38.5C 149.264,40.9732 147.931,42.6399 145.5,43.5C 143.889,42.6798 143.222,41.3464 143.5,39.5C 144.791,39.7373 145.791,39.404 146.5,38.5 Z"/></g>
<g><path style="opacity:1" fill="#2f3926" d="M 95.5,18.5 C 92.6946,21.8306 89.5279,24.8306 86,27.5C 84.5229,31.4291 83.3562,35.4291 82.5,39.5C 81.8333,40.5 81.1667,41.5 80.5,42.5C 80.4788,31.1816 85.4788,23.1816 95.5,18.5 Z"/></g>
<g><path style="opacity:1" fill="#5a5951" d="M 138.5,33.5 C 137.596,32.791 137.263,31.791 137.5,30.5C 143.763,27.0726 146.097,29.0726 144.5,36.5C 149.5,37.0031 149.167,37.3364 143.5,37.5C 143.663,35.1432 143.497,32.8098 143,30.5C 140.974,30.9147 139.474,31.9147 138.5,33.5 Z"/></g>
<g><path style="opacity:1" fill="#3c3632" d="M 54.5,49.5 C 56.9916,46.5262 58.9916,43.1928 60.5,39.5C 60.0233,38.5224 59.3567,37.6891 58.5,37C 59.4491,36.3828 60.2825,36.5494 61,37.5C 61.1667,36.3333 61.3333,35.1667 61.5,34C 60.8578,27.991 58.0244,26.491 53,29.5C 48.9141,35.9232 46.7475,42.9232 46.5,50.5C 45.3478,49.375 44.3478,49.375 43.5,50.5C 42.1205,47.7262 40.4538,45.0596 38.5,42.5C 37.5,42.8333 36.8333,43.5 36.5,44.5C 38.9803,45.4154 39.6469,46.9154 38.5,49C 36.6498,48.4052 34.6498,47.9052 32.5,47.5C 32.33,46.1779 32.6634,45.0113 33.5,44C 32.5509,43.3828 31.7175,43.5494 31,44.5C 30.51,43.2068 30.3433,41.8734 30.5,40.5C 32.7354,40.7947 34.7354,40.4614 36.5,39.5C 36.5,39.1667 36.5,38.8333 36.5,38.5C 38.5,36.5 40.5,34.5 42.5,32.5C 45.7025,30.4304 48.7025,28.0971 51.5,25.5C 60.2595,21.9316 64.5928,24.7649 64.5,34C 63.0016,38.971 62.335,44.1377 62.5,49.5C 59.8333,49.5 57.1667,49.5 54.5,49.5 Z"/></g>
<g><path style="opacity:1" fill="#524e45" d="M 51.5,42.5 C 53.3464,42.2222 54.6798,42.8888 55.5,44.5C 54.3112,45.4287 52.9778,45.762 51.5,45.5C 51.5,44.5 51.5,43.5 51.5,42.5 Z"/></g>
<g><path style="opacity:1" fill="#283855" d="M 101.5,24.5 C 97.3219,24.8779 93.3219,25.8779 89.5,27.5C 89.5774,26.2502 90.244,25.4169 91.5,25C 94,24.5 96.5,24 99,23.5C 100.07,23.528 100.903,23.8614 101.5,24.5 Z"/></g>
<g><path style="opacity:1" fill="#c04644" d="M 141.5,17.5 C 148.019,17.0969 152.019,20.0969 153.5,26.5C 153.565,26.9382 153.399,27.2716 153,27.5C 152.26,25.6813 151.093,24.3479 149.5,23.5C 147.518,20.8633 144.852,19.53 141.5,19.5C 141.5,18.8333 141.5,18.1667 141.5,17.5 Z"/></g>
<g><path style="opacity:1" fill="#5c330e" d="M 157.5,35.5 C 156.651,33.1124 155.651,30.7791 154.5,28.5C 154.672,27.5084 154.338,26.8417 153.5,26.5C 152.019,20.0969 148.019,17.0969 141.5,17.5C 139.473,17.3379 137.473,17.5045 135.5,18C 134.512,20.167 133.179,22.0003 131.5,23.5C 131.343,22.1266 131.51,20.7932 132,19.5C 136.763,15.0773 142.263,14.244 148.5,17C 154.443,21.6265 157.443,27.7932 157.5,35.5 Z"/></g>
<g><path style="opacity:1" fill="#f1f0e9" d="M 147.5,140.5 C 143.558,142.036 139.558,143.37 135.5,144.5C 133.473,144.662 131.473,144.495 129.5,144C 130.823,143.184 131.489,142.017 131.5,140.5C 134.606,137.912 138.106,135.912 142,134.5C 143.609,136.73 145.443,138.73 147.5,140.5 Z"/></g>
<g><path style="opacity:1" fill="#792218" d="M 31.5,120.5 C 24.5838,129.086 16.9171,137.086 8.5,144.5C 7.53443,146.396 7.2011,148.396 7.5,150.5C 6.83333,148.5 6.16667,146.5 5.5,144.5C 5.5,144.167 5.5,143.833 5.5,143.5C 5.5,142.833 5.5,142.167 5.5,141.5C 8.86832,141.345 11.535,140.012 13.5,137.5C 21.9531,128.848 29.6197,119.348 36.5,109C 37.3317,108.312 37.9984,108.479 38.5,109.5C 35.8955,113.054 33.5622,116.721 31.5,120.5 Z"/></g>
<g><path style="opacity:1" fill="#ce4543" d="M 52.5,127.5 C 53.5,127.5 54.5,127.5 55.5,127.5C 55.7857,133.259 55.4524,138.925 54.5,144.5C 52.3792,144.325 50.3792,144.659 48.5,145.5C 47.2227,144.306 46.5561,142.64 46.5,140.5C 46.3161,137.795 46.9827,135.462 48.5,133.5C 49.4151,131.246 50.7484,129.246 52.5,127.5 Z"/></g>
<g><path style="opacity:1" fill="#ea3b37" d="M 48.5,133.5 C 51.6737,133.281 53.5071,131.615 54,128.5C 54.4992,133.155 54.6658,137.821 54.5,142.5C 52.5,142.5 50.5,142.5 48.5,142.5C 48.5,139.5 48.5,136.5 48.5,133.5 Z"/></g>
<g><path style="opacity:1" fill="#43401d" d="M 131.5,140.5 C 131.489,142.017 130.823,143.184 129.5,144C 131.473,144.495 133.473,144.662 135.5,144.5C 135.5,144.833 135.5,145.167 135.5,145.5C 132.68,145.248 130.014,145.748 127.5,147C 124.899,150.112 121.899,152.612 118.5,154.5C 122.861,149.807 127.195,145.141 131.5,140.5 Z"/></g>
<g><path style="opacity:1" fill="#5573b4" d="M 60.5,123.5 C 60.5,124.167 60.8333,124.5 61.5,124.5C 61.6653,128.182 61.4986,131.848 61,135.5C 58.8634,137.321 58.0301,139.654 58.5,142.5C 66.5277,142.831 74.5277,142.498 82.5,141.5C 80.6385,140.472 79.3052,138.972 78.5,137C 77.1667,136.667 75.8333,136.333 74.5,136C 72.6125,133.293 70.6125,130.793 68.5,128.5C 72.5172,130.861 76.5172,133.194 80.5,135.5C 81.7536,138.093 83.4202,140.427 85.5,142.5C 76.1904,143.498 66.8571,143.832 57.5,143.5C 57.3338,137.491 57.5005,131.491 58,125.5C 58.7083,124.619 59.5416,123.953 60.5,123.5 Z"/></g>
<g><path style="opacity:1" fill="#504c2f" d="M 147.5,140.5 C 149.773,140.957 151.106,142.29 151.5,144.5C 150.508,144.672 149.842,144.338 149.5,143.5C 149.265,142.903 148.765,142.57 148,142.5C 143.957,143.958 139.791,144.625 135.5,144.5C 139.558,143.37 143.558,142.036 147.5,140.5 Z"/></g>
<g><path style="opacity:1" fill="#433642" d="M 62.5,121.5 C 61.8333,122.167 61.1667,122.833 60.5,123.5C 59.5416,123.953 58.7083,124.619 58,125.5C 57.5005,131.491 57.3338,137.491 57.5,143.5C 66.8571,143.832 76.1904,143.498 85.5,142.5C 83.4202,140.427 81.7536,138.093 80.5,135.5C 82.0174,135.511 83.1841,136.177 84,137.5C 86.52,141.224 89.02,144.891 91.5,148.5C 90.1667,147.5 88.8333,146.5 87.5,145.5C 76.6794,144.505 65.6794,144.172 54.5,144.5C 55.4524,138.925 55.7857,133.259 55.5,127.5C 54.5,127.5 53.5,127.5 52.5,127.5C 55.2061,124.479 58.5395,122.479 62.5,121.5 Z"/></g>
<g><path style="opacity:1" fill="#8e8739" d="M 149.5,143.5 C 145.726,143.635 144.392,145.302 145.5,148.5C 145.167,148.5 144.833,148.5 144.5,148.5C 143.733,147.828 143.066,146.995 142.5,146C 140.19,145.503 137.857,145.337 135.5,145.5C 135.5,145.167 135.5,144.833 135.5,144.5C 139.791,144.625 143.957,143.958 148,142.5C 148.765,142.57 149.265,142.903 149.5,143.5 Z"/></g>
<g><path style="opacity:1" fill="#48420a" d="M 151.5,144.5 C 153.749,145.08 155.415,146.413 156.5,148.5C 154.251,147.92 152.585,146.587 151.5,144.5 Z"/></g>
<g><path style="opacity:1" fill="#f1f22a" d="M 149.5,143.5 C 149.842,144.338 150.508,144.672 151.5,144.5C 152.585,146.587 154.251,147.92 156.5,148.5C 156.167,150.5 155.833,152.5 155.5,154.5C 153.777,156.253 152.277,158.253 151,160.5C 149.265,156.463 147.431,152.463 145.5,148.5C 144.392,145.302 145.726,143.635 149.5,143.5 Z"/></g>
<g><path style="opacity:1" fill="#fafa0c" d="M 75.5,145.5 C 79.5,145.5 83.5,145.5 87.5,145.5C 88.8333,146.5 90.1667,147.5 91.5,148.5C 92.1667,149.833 93.1667,150.833 94.5,151.5C 94.281,152.675 94.6143,153.675 95.5,154.5C 97.4888,154.532 99.4888,155.365 101.5,157C 100.833,157.333 100.167,157.667 99.5,158C 85.7883,158.184 72.1216,158.684 58.5,159.5C 56.2619,156.028 54.2619,152.362 52.5,148.5C 53.3914,147.41 54.3914,147.41 55.5,148.5C 56.3081,148.192 56.9747,147.692 57.5,147C 63.6807,146.828 69.6807,146.328 75.5,145.5 Z"/></g>
<g><path style="opacity:1" fill="#db413d" d="M 31.5,120.5 C 27.7587,125.427 24.592,130.761 22,136.5C 18.8846,140.299 15.0512,142.966 10.5,144.5C 10.5,149.167 10.5,153.833 10.5,158.5C 18.1667,158.5 25.8333,158.5 33.5,158.5C 33.5791,149.147 34.0791,139.813 35,130.5C 35.4224,128.574 36.5891,127.574 38.5,127.5C 36.2822,131.161 35.2822,135.161 35.5,139.5C 36.0411,145.998 37.3744,152.331 39.5,158.5C 29.5222,159.499 19.5222,159.832 9.5,159.5C 9.12744,156.426 8.46078,153.426 7.5,150.5C 7.2011,148.396 7.53443,146.396 8.5,144.5C 16.9171,137.086 24.5838,129.086 31.5,120.5 Z"/></g>
<g><path style="opacity:1" fill="#534d10" d="M 164.5,141.5 C 164.833,141.5 165.167,141.5 165.5,141.5C 165.337,143.857 165.503,146.19 166,148.5C 167.722,151.279 168.889,154.279 169.5,157.5C 167.326,154.485 165.659,151.151 164.5,147.5C 164.5,145.833 164.5,144.167 164.5,142.5C 164.5,142.167 164.5,141.833 164.5,141.5 Z"/></g>
<g><path style="opacity:1" fill="#693c35" d="M 52.5,127.5 C 50.7484,129.246 49.4151,131.246 48.5,133.5C 46.9827,135.462 46.3161,137.795 46.5,140.5C 46.5561,142.64 47.2227,144.306 48.5,145.5C 48.5,152.833 48.5,160.167 48.5,167.5C 47.6851,166.571 46.8518,165.571 46,164.5C 45.6573,156.489 45.1573,148.489 44.5,140.5C 44.4002,134.35 47.0668,130.017 52.5,127.5 Z"/></g>
<g><path style="opacity:1" fill="#3e3907" d="M 91.5,148.5 C 95.9942,150.912 100.661,153.079 105.5,155C 109.871,155.629 114.204,155.463 118.5,154.5C 118.5,155.167 118.167,155.5 117.5,155.5C 113.6,156.43 109.6,156.763 105.5,156.5C 101.684,155.091 98.0171,153.424 94.5,151.5C 93.1667,150.833 92.1667,149.833 91.5,148.5 Z"/></g>
<g><path style="opacity:1" fill="#f7f71b" d="M 135.5,145.5 C 137.857,145.337 140.19,145.503 142.5,146C 143.066,146.995 143.733,147.828 144.5,148.5C 145.1,151.298 146.1,153.965 147.5,156.5C 146.311,157.429 144.978,157.762 143.5,157.5C 134.435,158.136 125.769,157.47 117.5,155.5C 118.167,155.5 118.5,155.167 118.5,154.5C 121.899,152.612 124.899,150.112 127.5,147C 130.014,145.748 132.68,145.248 135.5,145.5 Z"/></g>
<g><path style="opacity:1" fill="#524818" d="M 156.5,148.5 C 157.906,148.973 158.573,149.973 158.5,151.5C 157.272,152.306 156.272,153.306 155.5,154.5C 155.833,152.5 156.167,150.5 156.5,148.5 Z"/></g>
<g><path style="opacity:1" fill="#3f3c2f" d="M 158.5,151.5 C 160.539,152.911 161.539,154.911 161.5,157.5C 159.992,155.819 158.992,153.819 158.5,151.5 Z"/></g>
<g><path style="opacity:1" fill="#5d2e20" d="M 57.5,105.5 C 51.2523,114.316 44.7523,122.982 38,131.5C 36.9805,141.342 37.8138,151.009 40.5,160.5C 39.8333,160.5 39.1667,160.5 38.5,160.5C 28.8333,160.5 19.1667,160.5 9.5,160.5C 7.61981,159.922 6.61981,158.588 6.5,156.5C 5.72608,152.535 5.39275,148.535 5.5,144.5C 6.16667,146.5 6.83333,148.5 7.5,150.5C 8.46078,153.426 9.12744,156.426 9.5,159.5C 19.5222,159.832 29.5222,159.499 39.5,158.5C 37.3744,152.331 36.0411,145.998 35.5,139.5C 35.2822,135.161 36.2822,131.161 38.5,127.5C 40.433,125.063 42.5997,122.729 45,120.5C 46.4844,113.189 50.6511,108.189 57.5,105.5 Z"/></g>
<g><path style="opacity:1" fill="#a39522" d="M 51.5,150.5 C 52.4013,151.29 53.0679,152.29 53.5,153.5C 52.8333,153.5 52.5,153.833 52.5,154.5C 51.7784,154.082 51.2784,153.416 51,152.5C 50.2153,158.249 50.3819,163.916 51.5,169.5C 51.1667,169.5 50.8333,169.5 50.5,169.5C 49.8333,169.5 49.5,169.167 49.5,168.5C 49.3338,162.158 49.5005,155.825 50,149.5C 50.3826,150.056 50.8826,150.389 51.5,150.5 Z"/></g>
<g><path style="opacity:1" fill="#d8d64a" d="M 117.5,155.5 C 125.769,157.47 134.435,158.136 143.5,157.5C 129.999,158.379 116.332,159.046 102.5,159.5C 103.609,158.71 104.942,158.21 106.5,158C 105.944,157.617 105.611,157.117 105.5,156.5C 109.6,156.763 113.6,156.43 117.5,155.5 Z"/></g>
<g><path style="opacity:1" fill="#f0ed2f" d="M 75.5,145.5 C 69.6807,146.328 63.6807,146.828 57.5,147C 56.9747,147.692 56.3081,148.192 55.5,148.5C 54.3914,147.41 53.3914,147.41 52.5,148.5C 54.2619,152.362 56.2619,156.028 58.5,159.5C 72.1216,158.684 85.7883,158.184 99.5,158C 100.167,157.667 100.833,157.333 101.5,157C 99.4888,155.365 97.4888,154.532 95.5,154.5C 94.6143,153.675 94.281,152.675 94.5,151.5C 98.0171,153.424 101.684,155.091 105.5,156.5C 105.611,157.117 105.944,157.617 106.5,158C 104.942,158.21 103.609,158.71 102.5,159.5C 96.8333,159.5 91.1667,159.5 85.5,159.5C 80.9677,159.182 76.6344,159.515 72.5,160.5C 67.1563,160.666 61.8229,160.499 56.5,160C 55.086,158.007 54.086,155.84 53.5,153.5C 53.0679,152.29 52.4013,151.29 51.5,150.5C 50.962,148.883 50.6287,147.216 50.5,145.5C 58.8333,145.5 67.1667,145.5 75.5,145.5 Z"/></g>
<g><path style="opacity:1" fill="#494108" d="M 144.5,148.5 C 144.833,148.5 145.167,148.5 145.5,148.5C 147.431,152.463 149.265,156.463 151,160.5C 152.277,158.253 153.777,156.253 155.5,154.5C 153.717,158.573 152.051,162.74 150.5,167C 151.267,168.47 151.933,169.97 152.5,171.5C 150.825,175.295 149.825,179.462 149.5,184C 140.99,184.171 132.657,184.671 124.5,185.5C 109.5,185.5 94.5,185.5 79.5,185.5C 76.8127,185.664 74.146,185.497 71.5,185C 84.0068,184.831 96.3401,184.331 108.5,183.5C 121.87,183.778 135.203,183.445 148.5,182.5C 148.825,174.648 148.492,166.982 147.5,159.5C 143.5,159.5 139.5,159.5 135.5,159.5C 118.854,160.409 102.188,160.742 85.5,160.5C 85.5,160.167 85.5,159.833 85.5,159.5C 91.1667,159.5 96.8333,159.5 102.5,159.5C 116.332,159.046 129.999,158.379 143.5,157.5C 144.978,157.762 146.311,157.429 147.5,156.5C 146.1,153.965 145.1,151.298 144.5,148.5 Z"/></g>
<g><path style="opacity:1" fill="#543b0f" d="M 54.5,144.5 C 65.6794,144.172 76.6794,144.505 87.5,145.5C 83.5,145.5 79.5,145.5 75.5,145.5C 67.1667,145.5 58.8333,145.5 50.5,145.5C 50.6287,147.216 50.962,148.883 51.5,150.5C 50.8826,150.389 50.3826,150.056 50,149.5C 49.5005,155.825 49.3338,162.158 49.5,168.5C 48.8333,168.5 48.5,168.167 48.5,167.5C 48.5,160.167 48.5,152.833 48.5,145.5C 50.3792,144.659 52.3792,144.325 54.5,144.5 Z"/></g>
<g><path style="opacity:1" fill="#a09917" d="M 72.5,160.5 C 76.6344,159.515 80.9677,159.182 85.5,159.5C 85.5,159.833 85.5,160.167 85.5,160.5C 84.209,160.263 83.209,160.596 82.5,161.5C 80.8333,161.5 79.1667,161.5 77.5,161.5C 76.0813,160.549 74.4147,160.216 72.5,160.5 Z"/></g>
<g><path style="opacity:1" fill="#b1a83c" d="M 9.5,160.5 C 19.1667,160.5 28.8333,160.5 38.5,160.5C 38.5,160.833 38.5,161.167 38.5,161.5C 29.5,161.5 20.5,161.5 11.5,161.5C 11.5,162.833 11.5,164.167 11.5,165.5C 10.4625,164.07 9.79586,162.403 9.5,160.5 Z"/></g>
<g><path style="opacity:1" fill="#eae549" d="M 135.5,159.5 C 135.5,160.167 135.167,160.5 134.5,160.5C 117.214,161.472 99.8804,161.806 82.5,161.5C 83.209,160.596 84.209,160.263 85.5,160.5C 102.188,160.742 118.854,160.409 135.5,159.5 Z"/></g>
<g><path style="opacity:1" fill="#f4f428" d="M 147.5,159.5 C 148.492,166.982 148.825,174.648 148.5,182.5C 135.203,183.445 121.87,183.778 108.5,183.5C 91.4763,183.24 74.4763,183.573 57.5,184.5C 57.5,176.833 57.5,169.167 57.5,161.5C 64.1667,161.5 70.8333,161.5 77.5,161.5C 79.1667,161.5 80.8333,161.5 82.5,161.5C 99.8804,161.806 117.214,161.472 134.5,160.5C 121.63,162.175 108.464,163.175 95,163.5C 82.8262,163.018 70.6596,162.685 58.5,162.5C 58.6432,168.169 58.6432,173.669 58.5,179C 59.2718,180.221 60.2718,181.221 61.5,182C 90.1858,182.792 118.852,182.625 147.5,181.5C 147.5,174.167 147.5,166.833 147.5,159.5 Z"/></g>
<g><path style="opacity:1" fill="#3d3b25" d="M 161.5,157.5 C 162.92,163.388 164.253,169.388 165.5,175.5C 163.302,175.88 161.635,175.213 160.5,173.5C 161.496,173.414 162.329,173.748 163,174.5C 162.591,168.877 162.091,163.211 161.5,157.5 Z"/></g>
<g><path style="opacity:1" fill="#595411" d="M 169.5,157.5 C 170.63,161.297 172.63,164.63 175.5,167.5C 171.187,165.729 169.187,162.395 169.5,157.5 Z"/></g>
<g><path style="opacity:1" fill="#fcfa07" d="M 135.5,159.5 C 139.5,159.5 143.5,159.5 147.5,159.5C 147.5,166.833 147.5,174.167 147.5,181.5C 118.852,182.625 90.1858,182.792 61.5,182C 60.2718,181.221 59.2718,180.221 58.5,179C 58.6432,173.669 58.6432,168.169 58.5,162.5C 70.6596,162.685 82.8262,163.018 95,163.5C 108.464,163.175 121.63,162.175 134.5,160.5C 135.167,160.5 135.5,160.167 135.5,159.5 Z"/></g>
<g><path style="opacity:1" fill="#f3efea" d="M 158.5,151.5 C 158.992,153.819 159.992,155.819 161.5,157.5C 162.091,163.211 162.591,168.877 163,174.5C 162.329,173.748 161.496,173.414 160.5,173.5C 158.095,172.232 155.428,171.565 152.5,171.5C 151.933,169.97 151.267,168.47 150.5,167C 152.051,162.74 153.717,158.573 155.5,154.5C 156.272,153.306 157.272,152.306 158.5,151.5 Z"/></g>
<g><path style="opacity:1" fill="#f6f42e" d="M 52.5,154.5 C 53.5,157.167 54.5,159.833 55.5,162.5C 55.8205,167.695 55.4872,172.695 54.5,177.5C 53.5416,177.047 52.7083,176.381 52,175.5C 52.256,173.398 52.0893,171.398 51.5,169.5C 50.3819,163.916 50.2153,158.249 51,152.5C 51.2784,153.416 51.7784,154.082 52.5,154.5 Z"/></g>
<g><path style="opacity:1" fill="#f7f7f1" d="M -0.5,-0.5 C 20.8333,-0.5 42.1667,-0.5 63.5,-0.5C 42.6733,0.497259 21.6733,0.830593 0.5,0.5C 0.628872,43.8568 0.628872,87.1902 0.5,130.5C 1.17805,135.814 1.67805,141.148 2,146.5C 6.13392,174.468 19.6339,196.468 42.5,212.5C 42.5,212.833 42.5,213.167 42.5,213.5C 62.4694,227.631 84.8028,234.631 109.5,234.5C 109.5,234.833 109.5,235.167 109.5,235.5C 72.8333,235.5 36.1667,235.5 -0.5,235.5C -0.5,156.833 -0.5,78.1667 -0.5,-0.5 Z"/></g>
<g><path style="opacity:1" fill="#faf80d" d="M 180.5,101.5 C 181.735,101.721 182.735,102.388 183.5,103.5C 185.742,107.896 185.408,111.729 182.5,115C 183.731,116.183 183.731,117.349 182.5,118.5C 181.833,117.5 181.167,116.5 180.5,115.5C 176.773,118.959 177.106,120.625 181.5,120.5C 181.34,122.199 181.506,123.866 182,125.5C 182.605,123.519 183.605,123.185 185,124.5C 185.108,120.823 185.108,117.157 185,113.5C 186.946,116.139 187.946,119.139 188,122.5C 190.019,125.712 192.853,127.378 196.5,127.5C 197.365,135.466 197.698,143.466 197.5,151.5C 196.58,153.881 196.58,156.214 197.5,158.5C 194.429,162.65 193.095,167.317 193.5,172.5C 189.653,180.522 185.153,188.189 180,195.5C 174.48,200.023 169.313,204.856 164.5,210C 157.937,214.442 151.271,218.609 144.5,222.5C 139.764,223.635 135.097,224.968 130.5,226.5C 127.881,226.768 125.381,226.435 123,225.5C 122.667,226.167 122.333,226.833 122,227.5C 119.936,226.409 117.769,226.242 115.5,227C 116.833,227.333 118.167,227.667 119.5,228C 110.168,228.598 100.835,229.098 91.5,229.5C 78.0862,227.695 65.4195,223.695 53.5,217.5C 47.5388,212.845 41.5388,208.178 35.5,203.5C 29.4432,197.682 24.1098,191.349 19.5,184.5C 16.0236,178.543 13.3569,172.209 11.5,165.5C 11.5,164.167 11.5,162.833 11.5,161.5C 20.5,161.5 29.5,161.5 38.5,161.5C 39.5862,161.62 40.2528,162.287 40.5,163.5C 41.0548,169 42.8881,174 46,178.5C 48.0676,180.562 50.5676,181.728 53.5,182C 55.225,185.774 58.225,187.274 62.5,186.5C 68.358,186.822 74.0247,186.489 79.5,185.5C 94.5,185.5 109.5,185.5 124.5,185.5C 133.173,185.666 141.84,185.5 150.5,185C 151.739,181.636 152.406,178.136 152.5,174.5C 156.894,174.869 161.227,175.535 165.5,176.5C 172.841,176.666 180.174,176.5 187.5,176C 188.727,174.413 188.394,173.079 186.5,172C 183.125,169.819 179.458,168.319 175.5,167.5C 172.63,164.63 170.63,161.297 169.5,157.5C 168.889,154.279 167.722,151.279 166,148.5C 165.503,146.19 165.337,143.857 165.5,141.5C 167.117,142.038 168.784,142.371 170.5,142.5C 171.141,136.523 171.641,130.523 172,124.5C 174.02,122.449 175.52,120.116 176.5,117.5C 178.104,116.713 178.771,115.38 178.5,113.5C 181.481,109.977 182.148,105.977 180.5,101.5 Z"/></g>
<g><path style="opacity:1" fill="#443b04" d="M 175.5,167.5 C 179.458,168.319 183.125,169.819 186.5,172C 188.394,173.079 188.727,174.413 187.5,176C 180.174,176.5 172.841,176.666 165.5,176.5C 165.5,176.167 165.5,175.833 165.5,175.5C 172.532,175.83 179.532,175.497 186.5,174.5C 183.128,171.611 179.461,169.277 175.5,167.5 Z"/></g>
<g><path style="opacity:1" fill="#797131" d="M 152.5,171.5 C 155.428,171.565 158.095,172.232 160.5,173.5C 157.447,173.889 154.78,173.223 152.5,171.5 Z"/></g>
<g><path style="opacity:1" fill="#423a09" d="M 53.5,153.5 C 54.086,155.84 55.086,158.007 56.5,160C 61.8229,160.499 67.1563,160.666 72.5,160.5C 74.4147,160.216 76.0813,160.549 77.5,161.5C 70.8333,161.5 64.1667,161.5 57.5,161.5C 57.5,169.167 57.5,176.833 57.5,184.5C 59.1667,185.167 60.8333,185.833 62.5,186.5C 58.225,187.274 55.225,185.774 53.5,182C 50.5676,181.728 48.0676,180.562 46,178.5C 42.8881,174 41.0548,169 40.5,163.5C 40.2528,162.287 39.5862,161.62 38.5,161.5C 38.5,161.167 38.5,160.833 38.5,160.5C 39.1667,160.5 39.8333,160.5 40.5,160.5C 41.8422,164.325 43.0089,168.325 44,172.5C 45.736,177.607 49.236,180.107 54.5,180C 51.6396,177.14 48.8063,174.306 46,171.5C 45.3333,170.5 45.3333,169.5 46,168.5C 47.0195,169.687 48.1861,170.687 49.5,171.5C 50.2975,171.043 50.6309,170.376 50.5,169.5C 50.8333,169.5 51.1667,169.5 51.5,169.5C 52.0893,171.398 52.256,173.398 52,175.5C 52.7083,176.381 53.5416,177.047 54.5,177.5C 54.7828,178.289 55.2828,178.956 56,179.5C 56.8184,173.651 56.6517,167.985 55.5,162.5C 54.5,159.833 53.5,157.167 52.5,154.5C 52.5,153.833 52.8333,153.5 53.5,153.5 Z"/></g>
<g><path style="opacity:1" fill="#9c9039" d="M 55.5,162.5 C 56.6517,167.985 56.8184,173.651 56,179.5C 55.2828,178.956 54.7828,178.289 54.5,177.5C 55.4872,172.695 55.8205,167.695 55.5,162.5 Z"/></g>
<g><path style="opacity:1" fill="#423c28" d="M 204.5,127.5 C 204.179,133.026 204.512,138.36 205.5,143.5C 203.576,161.246 197.409,177.246 187,191.5C 174.849,207.468 159.349,219.135 140.5,226.5C 139.957,226.44 139.624,226.107 139.5,225.5C 141.36,224.675 143.026,223.675 144.5,222.5C 151.271,218.609 157.937,214.442 164.5,210C 169.313,204.856 174.48,200.023 180,195.5C 185.153,188.189 189.653,180.522 193.5,172.5C 194.558,171.4 195.392,170.066 196,168.5C 198.664,160.173 200.831,151.839 202.5,143.5C 203.167,138.167 203.833,132.833 204.5,127.5 Z"/></g>
<g><path style="opacity:1" fill="#d4ca3f" d="M 108.5,183.5 C 96.3401,184.331 84.0068,184.831 71.5,185C 74.146,185.497 76.8127,185.664 79.5,185.5C 74.0247,186.489 68.358,186.822 62.5,186.5C 60.8333,185.833 59.1667,185.167 57.5,184.5C 74.4763,183.573 91.4763,183.24 108.5,183.5 Z"/></g>
<g><path style="opacity:1" fill="#e9e547" d="M 152.5,171.5 C 154.78,173.223 157.447,173.889 160.5,173.5C 161.635,175.213 163.302,175.88 165.5,175.5C 165.5,175.833 165.5,176.167 165.5,176.5C 161.227,175.535 156.894,174.869 152.5,174.5C 152.406,178.136 151.739,181.636 150.5,185C 141.84,185.5 133.173,185.666 124.5,185.5C 132.657,184.671 140.99,184.171 149.5,184C 149.825,179.462 150.825,175.295 152.5,171.5 Z"/></g>
<g><path style="opacity:1" fill="#40380b" d="M 19.5,184.5 C 24.1098,191.349 29.4432,197.682 35.5,203.5C 28.0583,198.955 22.7249,192.621 19.5,184.5 Z"/></g>
<g><path style="opacity:1" fill="#4a410f" d="M 35.5,203.5 C 41.5388,208.178 47.5388,212.845 53.5,217.5C 51.0634,217.114 49.0634,215.947 47.5,214C 45.8659,213.506 44.1992,213.34 42.5,213.5C 42.5,213.167 42.5,212.833 42.5,212.5C 39.8154,209.81 37.4821,206.81 35.5,203.5 Z"/></g>
<g><path style="opacity:1" fill="#423d2b" d="M 42.5,213.5 C 44.1992,213.34 45.8659,213.506 47.5,214C 49.0634,215.947 51.0634,217.114 53.5,217.5C 65.4195,223.695 78.0862,227.695 91.5,229.5C 91.5,229.833 91.5,230.167 91.5,230.5C 97.158,232.209 103.158,233.209 109.5,233.5C 109.5,233.833 109.5,234.167 109.5,234.5C 84.8028,234.631 62.4694,227.631 42.5,213.5 Z"/></g>
<g><path style="opacity:1" fill="#e4e432" d="M 130.5,226.5 C 126.132,228.346 121.465,229.513 116.5,230C 108.173,230.5 99.84,230.666 91.5,230.5C 91.5,230.167 91.5,229.833 91.5,229.5C 100.835,229.098 110.168,228.598 119.5,228C 118.167,227.667 116.833,227.333 115.5,227C 117.769,226.242 119.936,226.409 122,227.5C 122.333,226.833 122.667,226.167 123,225.5C 125.381,226.435 127.881,226.768 130.5,226.5 Z"/></g>
<g><path style="opacity:1" fill="#403616" d="M 144.5,222.5 C 143.026,223.675 141.36,224.675 139.5,225.5C 139.624,226.107 139.957,226.44 140.5,226.5C 140.5,226.833 140.5,227.167 140.5,227.5C 130.438,230.932 120.105,232.932 109.5,233.5C 103.158,233.209 97.158,232.209 91.5,230.5C 99.84,230.666 108.173,230.5 116.5,230C 121.465,229.513 126.132,228.346 130.5,226.5C 135.097,224.968 139.764,223.635 144.5,222.5 Z"/></g>
<g><path style="opacity:1" fill="#c1c36d" d="M 140.5,227.5 C 135.396,231.788 129.396,233.955 122.5,234C 121.944,234.383 121.611,234.883 121.5,235.5C 117.5,235.5 113.5,235.5 109.5,235.5C 109.5,235.167 109.5,234.833 109.5,234.5C 109.5,234.167 109.5,233.833 109.5,233.5C 120.105,232.932 130.438,230.932 140.5,227.5 Z"/></g>
</svg>
