<svg xmlns="http://www.w3.org/2000/svg" width="100" height="111" style="shape-rendering:geometricPrecision;text-rendering:geometricPrecision;image-rendering:optimizeQuality;fill-rule:evenodd;clip-rule:evenodd"><path style="opacity:1" fill="#6c3631" d="M61.5-.5h4v2h-4c-19.336-.167-38.67 0-58 .5a524.028 524.028 0 0 0-1 45.5h-1V.5c20.174.33 40.174-.003 60-1z"/><path style="opacity:1" fill="#cd5348" d="M61.5 1.5h34v46c-.961-1.765-1.295-3.765-1-6v-38h-5c-8.49-1.157-17.157-1.324-26-.5 2.135.876 3.469 2.376 4 4.5h-1c-1.49-1.78-3.49-2.446-6-2a5.728 5.728 0 0 0 1-3v-1z"/><path style="opacity:1" fill="#b5531f" d="M42.5 4.5a18.436 18.436 0 0 1-.5 6c-.383.556-.883.89-1.5 1 1.799-6.425-.201-8.092-6-5-.086-.996.248-1.83 1-2.5 2.43-.703 4.763-.537 7 .5z"/><path style="opacity:1" fill="#d84d3d" d="M89.5 3.5v2a16.5 16.5 0 0 0-5-2c-1.213.247-1.88.914-2 2-1.762.762-2.762 2.096-3 4-.438-.065-.772.101-1 .5.566.995 1.233 1.828 2 2.5v1h-1c-1.175-.219-2.175.114-3 1 1.684.65 3.017 1.65 4 3h-2c-1.322-.17-2.489.163-3.5 1a4.452 4.452 0 0 1-1.5-2c-.117-3.293.05-6.627.5-10-2.336.792-2.836 2.125-1.5 4-.672 1.66-1.672 2.993-3 4l-2 1c-1.333 0-2-.667-2-2 1.58-1.642 2.248-3.642 2-6-.531-2.124-1.865-3.624-4-4.5 8.843-.824 17.51-.657 26 .5z"/><path style="opacity:1" fill="#eb463f" d="M42.5 2.5h19a5.728 5.728 0 0 1-1 3c-1.478-.262-2.811.071-4 1 1.354 3.59.02 5.256-4 5-4.84-.823-7.173 1.177-7 6 2.126 6.147.626 6.48-4.5 1a8.19 8.19 0 0 0-2.5-4 186.2 186.2 0 0 0 2-3c.617-.11 1.117-.444 1.5-1 .495-1.973.662-3.973.5-6v-2z"/><path style="opacity:1" fill="#f5de74" d="M40.5 11.5c-2.868-.791-5.535-.791-8 0-.108-2.014.558-3.68 2-5 5.799-3.092 7.799-1.425 6 5z"/><path style="opacity:1" fill="#f2ec59" d="M60.5 5.5c2.51-.446 4.51.22 6 2-.156 3.635-1.322 3.969-3.5 1a27.57 27.57 0 0 1-1.5 5h-1c-1.38-.462-2.047-1.462-2-3 .402-1.8 1.07-3.467 2-5z"/><path style="opacity:1" fill="#623e39" d="M65.5-.5h32v48h-2v-46h-30v-2z"/><path style="opacity:1" fill="#bc541b" d="M89.5 5.5c.333 7.484-3 10.15-10 8h1c5.854.325 8.188-2.175 7-7.5-1.634-.494-3.3-.66-5-.5.12-1.086.787-1.753 2-2a16.5 16.5 0 0 1 5 2z"/><path style="opacity:1" fill="#f24442" d="M89.5 3.5h5v38c-6.255-1.933-7.421-5.6-3.5-11 2.15-6.853-.35-9.687-7.5-8.5-.566-.995-1.233-1.828-2-2.5l-1-2c-.983-1.35-2.316-2.35-4-3 .825-.886 1.825-1.219 3-1 7 2.15 10.333-.516 10-8v-2z"/><path style="opacity:1" fill="#b29e2f" d="M66.5 7.5h1c.248 2.358-.42 4.358-2 6-1.464.905-2.798.905-4 0a27.57 27.57 0 0 0 1.5-5c2.178 2.969 3.344 2.635 3.5-1z"/><path style="opacity:1" fill="#8a771c" d="M80.5 12.5c-.767-.672-1.434-1.505-2-2.5.228-.399.562-.565 1-.5a29.817 29.817 0 0 1 5-.5c-1.593.949-2.926 2.115-4 3.5z"/><path style="opacity:1" fill="#f5e84b" d="M82.5 5.5c1.7-.16 3.366.006 5 .5 1.188 5.325-1.146 7.825-7 7.5v-1c1.074-1.385 2.407-2.551 4-3.5a29.817 29.817 0 0 0-5 .5c.238-1.904 1.238-3.238 3-4z"/><path style="opacity:1" fill="#e04b3d" d="M4.5 3.5a361.598 361.598 0 0 1 38-1v2c-2.237-1.037-4.57-1.203-7-.5-.752.67-1.086 1.504-1 2.5-1.442 1.32-2.108 2.986-2 5 .227 2.498 1.56 4.164 4 5-1.826.42-3.826.42-6 0-.992.172-1.658-.162-2-1v-6h-3v3c-2.447-.115-4.447-1.115-6-3-2.013-4.284-4.846-4.95-8.5-2-.493 1.634-.66 3.3-.5 5 .077 1.25.744 2.083 2 2.5a54.804 54.804 0 0 1 13 .5c-.282 1.278-.949 2.278-2 3-1.64.647-2.974 1.647-4 3h-1c-.683-1.677-2.017-2.343-4-2v-3c-2.321-.271-4.321.395-6 2l-1-1.5a230.48 230.48 0 0 1 2-11.5 28.84 28.84 0 0 1 4-1.5 40.937 40.937 0 0 0-9-.5z"/><path style="opacity:1" fill="#ad4c2e" d="M19.5 9.5c1.553 1.885 3.553 2.885 6 3v-3h3v6c-.959-3.861-1.959-3.861-3 0a54.804 54.804 0 0 0-13-.5c-1.256-.417-1.923-1.25-2-2.5.891.61 1.891.943 3 1 1.55 1.22 3.216 1.22 5 0 1.605-.506 1.939-1.173 1-2v-2z"/><path style="opacity:1" fill="#675e0d" d="M16.5 10.5c.891.61 1.891.943 3 1 .939.827.605 1.494-1 2a81.718 81.718 0 0 0-3-2.5c.228-.399.562-.565 1-.5z"/><path style="opacity:1" fill="#f5eb5f" d="M16.5 10.5c-.438-.065-.772.101-1 .5 1.07.852 2.07 1.685 3 2.5-1.784 1.22-3.45 1.22-5 0-2.347-3.313-1.347-5.313 3-6v3z"/><path style="opacity:1" fill="#f6d579" d="M19.5 9.5v2a5.728 5.728 0 0 1-3-1v-3c-4.347.687-5.347 2.687-3 6a5.728 5.728 0 0 1-3-1c-.16-1.7.007-3.366.5-5 3.654-2.95 6.487-2.284 8.5 2z"/><path style="opacity:1" fill="#f5e74d" d="M52.5 11.5c1.586 2.716 1.253 5.05-1 7-1.431-.38-2.264-1.38-2.5-3-.334 2.69-1.501 3.357-3.5 2-.173-4.823 2.16-6.823 7-6z"/><path style="opacity:1" fill="#b06735" d="M78.5 17.5v1c-.876-.13-1.543.203-2 1 .826.951.992 1.951.5 3-2.86-4.223-4.36-3.89-4.5 1h-1v-5c-3.109-.236-6.109.098-9 1-.79-.901-1.79-1.568-3-2-.067-1.459.266-2.792 1-4h1c1.202.905 2.536.905 4 0 0 1.333.667 2 2 2-.11.617-.444 1.117-1 1.5 2 .667 4 .667 6 0-.578-1.417-1.578-2.25-3-2.5 1.328-1.007 2.328-2.34 3-4-1.336-1.875-.836-3.208 1.5-4a59.467 59.467 0 0 0-.5 10 4.452 4.452 0 0 0 1.5 2c1.011-.837 2.178-1.17 3.5-1z"/><path style="opacity:1" fill="#eede56" d="M69.5 14.5c1.422.25 2.422 1.083 3 2.5-2 .667-4 .667-6 0 .556-.383.89-.883 1-1.5l2-1z"/><path style="opacity:1" fill="#9a672a" d="M28.5 15.5c.342.838 1.008 1.172 2 1v1c-1.108.79-2.442 1.29-4 1.5a2.428 2.428 0 0 0 2 .5v4h-1c.219-1.175-.114-2.175-1-3-.951.826-1.951.992-3 .5 1.274-.977 1.274-1.81 0-2.5 1.051-.722 1.718-1.722 2-3 1.041-3.861 2.041-3.861 3 0z"/><path style="opacity:1" fill="#f5cb7a" d="M30.5 17.5c1.422.209 2.755.709 4 1.5a18.436 18.436 0 0 1-6 .5 2.428 2.428 0 0 1-2-.5c1.558-.21 2.892-.71 4-1.5z"/><path style="opacity:1" fill="#ce4d30" d="M60.5 5.5a16.497 16.497 0 0 0-2 5c-.047 1.538.62 2.538 2 3-.734 1.208-1.067 2.541-1 4-1.085 2.087-2.751 3.42-5 4h-3v-3c2.253-1.95 2.586-4.284 1-7 4.02.256 5.354-1.41 4-5 1.189-.929 2.522-1.262 4-1z"/><path style="opacity:1" fill="#5e4941" d="M.5-.5h61a900.596 900.596 0 0 1-60 1v47h-1v-48z"/><path style="opacity:1" fill="#fcec41" d="M23.5 18.5c1.274.69 1.274 1.523 0 2.5 1.049.492 2.049.326 3-.5.886.825 1.219 1.825 1 3-.11.617-.444 1.117-1 1.5-2 .667-4 .667-6 0-.837-1.011-1.17-2.178-1-3.5 1.026-1.353 2.36-2.353 4-3z"/><path style="opacity:1" fill="#fabf82" d="m34.5 23.5 1 2c-1.175.219-2.175-.114-3-1 .457-.797 1.124-1.13 2-1z"/><path style="opacity:1" fill="#f14340" d="M4.5 3.5a40.937 40.937 0 0 1 9 .5 28.84 28.84 0 0 0-4 1.5 230.48 230.48 0 0 0-2 11.5l1 1.5c1.679-1.605 3.679-2.271 6-2v3c1.983-.343 3.317.323 4 2a166.57 166.57 0 0 0-8.5 4c-1.216 3.877-.05 6.543 3.5 8-.66 3.313-2.494 5.98-5.5 8-.58 1.428-.412 2.762.5 4-1.322.17-2.489-.163-3.5-1-.5-13.663-.667-27.33-.5-41z"/><path style="opacity:1" fill="#b94a4a" d="M61.5 1.5v1h-19a361.598 361.598 0 0 0-38 1 484.595 484.595 0 0 0-1 44h-1A524.028 524.028 0 0 1 3.5 2c19.33-.5 38.664-.667 58-.5z"/><path style="opacity:1" fill="#ba592f" d="M18.5 21.5h1c-.17 1.322.163 2.489 1 3.5 2 .667 4 .667 6 0 .556-.383.89-.883 1-1.5h1c-1.889 4.786-.222 7.12 5 7-1.925 1.962-4.258 2.795-7 2.5l1-1a4.932 4.932 0 0 0-3-.5v-4a6.845 6.845 0 0 1-4-1c-1.158 2.947-1.658 5.947-1.5 9 1.356-.88 2.856-1.214 4.5-1 0 .667-.333 1-1 1-1.333 0-2 .667-2 2h-3v-6c2-4.843.333-7.01-5-6.5-1.46 3.07-1.126 5.904 1 8.5-3.55-1.457-4.716-4.123-3.5-8a166.57 166.57 0 0 1 8.5-4z"/><path style="opacity:1" fill="#e14841" d="M34.5 23.5c-.876-.13-1.543.203-2 1 .825.886 1.825 1.219 3 1 2.357-.163 4.69.003 7 .5-.556.383-.89.883-1 1.5h-8v3c-5.222.12-6.889-2.214-5-7 .904-.709 1.237-1.709 1-3 2.559-.11 4.892.556 7 2-.457.797-1.124 1.13-2 1z"/><path style="opacity:1" fill="#cc5536" d="M41.5 27.5c.321 1.548 1.321 2.215 3 2v3c-.214 1.644.12 3.144 1 4.5 1.973.495 3.973.662 6 .5-2.135 1.869-4.802 2.536-8 2 .343-1.983-.324-3.317-2-4h-1c.172-.992-.162-1.658-1-2-.17-1.322.163-2.489 1-3.5a2.428 2.428 0 0 0-2-.5 20.677 20.677 0 0 0-5 1v-3h8z"/><path style="opacity:1" fill="#f5e46b" d="M17.5 31.5c-1.703-1.16-2.37-.494-2 2h-2c-2.126-2.596-2.46-5.43-1-8.5 5.333-.51 7 1.657 5 6.5z"/><path style="opacity:1" fill="#fbe646" d="M84.5 24.5c7.214 1.328 7.881 4.328 2 9h-1a41.58 41.58 0 0 1-1-8v-1z"/><path style="opacity:1" fill="#e8cb63" d="M84.5 25.5a41.58 41.58 0 0 0 1 8c-2.222-.059-3.222-1.225-3-3.5.025-1.876.691-3.376 2-4.5z"/><path style="opacity:1" fill="#f0e247" d="M51.5 37.5a18.436 18.436 0 0 1-6-.5c-.88-1.356-1.214-2.856-1-4.5 1.398-1.609 3.065-2.442 5-2.5 2.82 2.022 3.486 4.522 2 7.5z"/><path style="opacity:1" fill="#e74941" d="M24.5 31.5c-.904.709-1.237 1.709-1 3-1.644-.214-3.144.12-4.5 1-.158-3.053.342-6.053 1.5-9a6.845 6.845 0 0 0 4 1v4z"/><path style="opacity:1" fill="#ab532e" d="M40.5 11.5a186.2 186.2 0 0 1-2 3 8.19 8.19 0 0 1 2.5 4c5.126 5.48 6.626 5.147 4.5-1 1.999 1.357 3.166.69 3.5-2 .236 1.62 1.069 2.62 2.5 3v3h3l-2 2c-1.599-.268-2.932.066-4 1-3.349-.759-6.182-2.426-8.5-5L38.5 21c2.145 2.218 4.812 3.551 8 4l-2 2c1.693.484 3.027-.016 4-1.5 1.298 1.599 2.965 2.099 5 1.5-2.342-1.392-2.342-2.225 0-2.5 1.16 1.75 2.826 2.75 5 3 1.322.17 2.489-.163 3.5-1 .483.948.65 1.948.5 3a46.366 46.366 0 0 1 10.5 4l1.5-.5c-.88-1.356-1.213-2.856-1-4.5h4c-.43 3.362.57 6.195 3 8.5.948.483 1.948.65 3 .5-1.587-3.419-2.253-7.085-2-11-1.9-.067-3.734.267-5.5 1-2.074-.572-3.24-1.905-3.5-4 1.996 1.833 4.329 2.333 7 1.5 1.52-2.552 1.187-4.718-1-6.5v-1h2l1 2v5h3v1c-1.309 1.124-1.975 2.624-2 4.5-.222 2.275.778 3.441 3 3.5h1c.907 2.157 1.573 4.49 2 7-3.216.669-3.549 1.669-1 3a22.576 22.576 0 0 1-8-2l-3 1c2.245.708 4.245 1.708 6 3-3.667-1.333-7.333-1.333-11 0-5.293 5.316-10.626 5.316-16 0 1.175.219 2.175-.114 3-1a19.373 19.373 0 0 1-1-8c-2.12-.175-4.12.159-6 1 1.486-2.978.82-5.478-2-7.5-1.935.058-3.602.891-5 2.5v-3c-1.679.215-2.679-.452-3-2 .11-.617.444-1.117 1-1.5a24.939 24.939 0 0 0-7-.5l-1-2c.876.13 1.543-.203 2-1-2.108-1.444-4.441-2.11-7-2 .237 1.291-.096 2.291-1 3v-4a18.436 18.436 0 0 0 6-.5 10.123 10.123 0 0 0-4-1.5v-1c2.174.42 4.174.42 6 0-2.44-.836-3.773-2.502-4-5 2.465-.791 5.132-.791 8 0z"/><path style="opacity:1" fill="#f1cb83" d="M67.5 33.5c2.854.424 5.52 1.424 8 3a3.646 3.646 0 0 0 1.5-1 18.78 18.78 0 0 0 5.5 4.5 59.96 59.96 0 0 1-14-4l1-1c-.916-.278-1.582-.778-2-1.5z"/><path style="opacity:1" fill="#efc07d" d="M67.5 33.5a24.939 24.939 0 0 1-7-.5c1.333-.667 1.333-1.333 0-2a22.948 22.948 0 0 1-5-2c4.527.097 8.527 1.597 12 4.5z"/><path style="opacity:1" fill="#eb4842" d="M71.5 23.5h1c.26 2.095 1.426 3.428 3.5 4a12.988 12.988 0 0 1 5.5-1c-.253 3.915.413 7.581 2 11a4.932 4.932 0 0 1-3-.5c-2.43-2.305-3.43-5.138-3-8.5h-4c-.213 1.644.12 3.144 1 4.5l-1.5.5a46.366 46.366 0 0 0-10.5-4 4.932 4.932 0 0 0-.5-3c-1.011.837-2.178 1.17-3.5 1-1.578-1.818-1.078-2.818 1.5-3 1.256.148 2.423.482 3.5 1 1.419.951 3.085 1.285 5 1a51.639 51.639 0 0 0-1-7h3c-.268 1.599.066 2.932 1 4z"/><path style="opacity:1" fill="#ffd99c" d="M74.5 29.5c1.837.14 2.17.806 1 2-.797-.457-1.13-1.124-1-2z"/><path style="opacity:1" fill="#b08f51" d="M52.5 23.5h1v1c-2.342.275-2.342 1.108 0 2.5-2.035.599-3.702.099-5-1.5v-1c1.068-.934 2.401-1.268 4-1z"/><path style="opacity:1" fill="#f9e568" d="M78.5 18.5c2.187 1.782 2.52 3.948 1 6.5-2.671.833-5.004.333-7-1.5.14-4.89 1.64-5.223 4.5-1 .492-1.049.326-2.049-.5-3 .457-.797 1.124-1.13 2-1z"/><path style="opacity:1" fill="#c34e33" d="M71.5 23.5c-.934-1.068-1.268-2.401-1-4h-3a51.639 51.639 0 0 1 1 7c-1.915.285-3.581-.049-5-1a10.982 10.982 0 0 0-3.5-1c-2.578.182-3.078 1.182-1.5 3-2.174-.25-3.84-1.25-5-3v-1a20.088 20.088 0 0 0 6-1.5l-1-1a10.123 10.123 0 0 1 4-1.5c2.891-.902 5.891-1.236 9-1v5z"/><path style="opacity:1" fill="#fdc78e" d="M63.5 25.5c.64-1.832 1.64-2.165 3-1-.825.886-1.825 1.219-3 1z"/><path style="opacity:1" fill="#e7c66a" d="M48.5 24.5v1c-.973 1.484-2.307 1.984-4 1.5l2-2c-3.188-.449-5.855-1.782-8-4l1.5-1.5c2.318 2.574 5.151 4.241 8.5 5z"/><path style="opacity:1" fill="#f3d472" d="M59.5 17.5c1.21.432 2.21 1.099 3 2a10.123 10.123 0 0 0-4 1.5l1 1a20.088 20.088 0 0 1-6 1.5h-1l2-2c2.249-.58 3.915-1.913 5-4z"/><path style="opacity:1" fill="#a56433" d="M38.5 29.5c-1.1 1.058-2.434 1.892-4 2.5l1 1-5 1c.603 2.071 1.936 3.238 4 3.5.13.876-.203 1.543-1 2-1.027-1.291-2.027-1.291-3 0-1.588-2.116-3.588-2.449-6-1 2.353 1.712 3.686 4.045 4 7h-2c-2.107-.968-4.44-1.302-7-1 1.068-.934 2.401-1.268 4-1v-3c-1.291.237-2.291-.096-3-1v-2c0-1.333.667-2 2-2-.963.864-.963 1.53 0 2a38.821 38.821 0 0 1 7-1.5 14.596 14.596 0 0 0-6-1.5c-.237-1.291.096-2.291 1-3a4.932 4.932 0 0 1 3 .5l-1 1c2.742.295 5.075-.538 7-2.5a20.677 20.677 0 0 1 5-1z"/><path style="opacity:1" fill="#f3d788" d="M39.5 33.5c.838.342 1.172 1.008 1 2-1.924-.21-2.257-.877-1-2z"/><path style="opacity:1" fill="#986628" d="M17.5 31.5v6c-.667 1.333-1.333 1.333-2 0v-4c-.37-2.494.297-3.16 2-2z"/><path style="opacity:1" fill="#f3d38d" d="M23.5 34.5c2.102.07 4.102.57 6 1.5-2.39.287-4.724.787-7 1.5-.963-.47-.963-1.136 0-2 .667 0 1-.333 1-1z"/><path style="opacity:1" fill="#f5d082" d="M15.5 37.5c.667 1.333 1.333 1.333 2 0h3v2c-3.854.341-7.354 1.674-10.5 4 1.153-2.334 2.987-4.334 5.5-6z"/><path style="opacity:1" fill="#e24948" d="M4.5 3.5c-.167 13.67 0 27.337.5 41 1.011.837 2.178 1.17 3.5 1 1.89.203 3.39-.463 4.5-2 .75 1.135.583 2.135-.5 3a15.42 15.42 0 0 1-7 1h-2c-.33-14.843.004-29.51 1-44z"/><path style="opacity:1" fill="#ee453f" d="M41.5 35.5c1.676.683 2.343 2.017 2 4 3.198.536 5.865-.131 8-2 1.88-.841 3.88-1.175 6-1a19.373 19.373 0 0 0 1 8c-.825.886-1.825 1.219-3 1h-1c-.11-.617-.444-1.117-1-1.5-3.725-.76-7.392-.593-11 .5a23.41 23.41 0 0 0-3-7 30.943 30.943 0 0 0 2-2z"/><path style="opacity:1" fill="#f6e46d" d="M60.5 36.5a8.434 8.434 0 0 1 4 .5c-2.686 3.476-2.352 3.976 1 1.5 1.383 4.454-.283 6.287-5 5.5-2.586-2.494-2.586-4.994 0-7.5z"/><path style="opacity:1" fill="#f3d37f" d="M88.5 40.5c2.838 1.806 2.505 2.806-1 3-2.549-1.331-2.216-2.331 1-3z"/><path style="opacity:1" fill="#cd5033" d="M13.5 33.5h2v4c-2.513 1.666-4.347 3.666-5.5 6 3.146-2.326 6.646-3.659 10.5-4 .709.904 1.709 1.237 3 1v3c-1.599-.268-2.932.066-4 1-4.143 4.4-8.81 5.4-14 3a15.42 15.42 0 0 0 7-1c1.083-.865 1.25-1.865.5-3-1.11 1.537-2.61 2.203-4.5 2-.912-1.238-1.08-2.572-.5-4 3.006-2.02 4.84-4.687 5.5-8z"/><path style="opacity:1" fill="#d74d35" d="M81.5 19.5c.767.672 1.434 1.505 2 2.5 7.15-1.187 9.65 1.647 7.5 8.5-3.921 5.4-2.755 9.067 3.5 11-.295 2.235.039 4.235 1 6v1c-.992-.172-1.658.162-2 1-4.464.591-8.13-.742-11-4-1.755-1.292-3.755-2.292-6-3l3-1a22.576 22.576 0 0 0 8 2c3.505-.194 3.838-1.194 1-3-.427-2.51-1.093-4.843-2-7 5.881-4.672 5.214-7.672-2-9h-3v-5z"/><path style="opacity:1" fill="#e54a42" d="M71.5 45.5a29.89 29.89 0 0 1-7 2l-3-1c5.169-.842 7.169-3.842 6-9h4c-1.13 2.697-1.13 5.363 0 8z"/><path style="opacity:1" fill="#bd4f2b" d="M38.5 29.5a2.428 2.428 0 0 1 2 .5c-.837 1.011-1.17 2.178-1 3.5-1.257 1.123-.924 1.79 1 2h1a30.943 30.943 0 0 1-2 2 23.41 23.41 0 0 1 3 7c3.608-1.093 7.275-1.26 11-.5.556.383.89.883 1 1.5-5.544-1.435-10.544-.268-15 3.5-2.43.703-4.763.537-7-.5a303.438 303.438 0 0 1-4-3c-.314-2.955-1.647-5.288-4-7 2.412-1.449 4.412-1.116 6 1 .726 4.537 3.393 6.37 8 5.5 2.096-4.407.762-6.907-4-7.5-2.064-.262-3.397-1.429-4-3.5l5-1-1-1c1.566-.608 2.9-1.442 4-2.5z"/><path style="opacity:1" fill="#f4df53" d="M34.5 37.5c4.762.593 6.096 3.093 4 7.5-4.607.87-7.274-.963-8-5.5.973-1.291 1.973-1.291 3 0 .797-.457 1.13-1.124 1-2z"/><path style="opacity:1" fill="#fbf526" d="M26.5 45.5h2c1.295.988 2.628 1.988 4 3 1.014 1.265 2.514 1.931 4.5 2 3.255.358 5.922-.642 8-3 .283 3.242 1.117 3.576 2.5 1-1.394-1.187-1.227-1.853.5-2 1.653.32 2.653 1.32 3 3a18.088 18.088 0 0 1 3.5-2c2.899 1.4 4.899 3.067 6 5 3.59-1.62 6.924-1.287 10 1 3.722-2.155 7.388-1.822 11 1-6.754 1.36-12.587 3.36-17.5 6-1.28-.114-2.113-.78-2.5-2l4-1a4.452 4.452 0 0 0-2-1.5 132.333 132.333 0 0 1-15-1.5c-2.07 1.403-3.736 3.07-5 5-1.522 1.833-3.522 2.833-6 3-3.537-.435-6.537-1.935-9-4.5a40.936 40.936 0 0 0-9-.5 29.81 29.81 0 0 0-8.5 3c-4.102-.901-4.27-1.734-.5-2.5a8.434 8.434 0 0 0-4-.5c-.253-2.327.414-4.327 2-6l11-3.5c1.821-2.137 4.154-2.97 7-2.5z"/><path style="opacity:1" fill="#4c470e" d="M.5 47.5h2c-.317 4.202.017 8.202 1 12 0 .667-.333 1-1 1l-2-1v-12z"/><path style="opacity:1" fill="#605532" d="M95.5 47.5h2v16l-2-3v-13z"/><path style="opacity:1" fill="#fbf22e" d="M54.5 45.5h1c5.374 5.316 10.707 5.316 16 0 3.667-1.333 7.333-1.333 11 0 2.87 3.258 6.536 4.591 11 4 .982 3.462 1.315 7.129 1 11-4.436.468-8.436-.532-12-3a40.936 40.936 0 0 0-9 .5c-2.563 2.281-5.563 3.448-9 3.5l-14-4c-2.578-.058-4.911.609-7 2 1.264-1.93 2.93-3.597 5-5 4.947.783 9.947 1.283 15 1.5a4.452 4.452 0 0 1 2 1.5l-4 1c.387 1.22 1.22 1.886 2.5 2 4.913-2.64 10.746-4.64 17.5-6-3.612-2.822-7.278-3.155-11-1-3.076-2.287-6.41-2.62-10-1-1.101-1.933-3.101-3.6-6-5a18.088 18.088 0 0 0-3.5 2c-.347-1.68-1.347-2.68-3-3-1.727.147-1.894.813-.5 2-1.383 2.576-2.217 2.242-2.5-1-2.078 2.358-4.745 3.358-8 3-1.986-.069-3.486-.735-4.5-2 2.237 1.037 4.57 1.203 7 .5 4.456-3.768 9.456-4.935 15-3.5z"/><path style="opacity:1" fill="#faea3a" d="M19.5 44.5c2.56-.302 4.893.032 7 1-2.846-.47-5.179.363-7 2.5l-11 3.5c-1.586 1.673-2.253 3.673-2 6a8.434 8.434 0 0 1 4 .5c-3.77.766-3.602 1.599.5 2.5a29.81 29.81 0 0 1 8.5-3v1c-1.527-.073-2.527.594-3 2-4.629 2.937-8.962 2.603-13-1-.983-3.798-1.317-7.798-1-12h3c5.19 2.4 9.857 1.4 14-3z"/><path style="opacity:1" fill="#f8e355" d="M93.5 49.5c.342-.838 1.008-1.172 2-1v12l-1 2c-5.226 1.035-9.226-.632-12-5 3.564 2.468 7.564 3.468 12 3 .315-3.871-.018-7.538-1-11z"/><path style="opacity:1" fill="#ed463f" d="M19.5 58.5c2.357-.163 4.69.003 7 .5 2.342 2.904 5.342 4.904 9 6-1.333 1-1.333 2 0 3a10.1 10.1 0 0 0 6 1.5c3.495 5.211 2.161 7.378-4 6.5a24.258 24.258 0 0 1-6-2.5v-2a18.659 18.659 0 0 1-3-5l-11-2c-2.08-1.028-2.414-2.361-1-4 .473-1.406 1.473-2.073 3-2z"/><path style="opacity:1" fill="#cd4e31" d="M19.5 58.5v-1a40.936 40.936 0 0 1 9 .5c2.463 2.565 5.463 4.065 9 4.5 2.478-.167 4.478-1.167 6-3 2.089-1.391 4.422-2.058 7-2l14 4c3.437-.052 6.437-1.219 9-3.5a40.936 40.936 0 0 1 9-.5c2.774 4.368 6.774 6.035 12 5 .934 1.068 1.268 2.401 1 4h-1v-3a25.87 25.87 0 0 0-10 1c-2.187 3.537-5.187 5.87-9 7 2.055-1.059 3.389-2.725 4-5l3-1.5c1.196-.654 1.196-1.154 0-1.5a41.744 41.744 0 0 0-6 2 399.289 399.289 0 0 1-6 3c.671-1.347.671-2.514 0-3.5a24.912 24.912 0 0 0 8.5-2.5c.612-1.737-.054-2.737-2-3a78.34 78.34 0 0 1-11.5 4 122.391 122.391 0 0 0-18-3.5c-3.193 1.026-4.526 3.192-4 6.5a57.364 57.364 0 0 0 9 2c-1.465 1.237-3.132 2.237-5 3-.384-1.793-1.55-2.793-3.5-3-1.79-.91-3.623-1.076-5.5-.5 1.237.232 2.237.732 3 1.5a10.1 10.1 0 0 1-6-1.5c-1.333-1-1.333-2 0-3-3.658-1.096-6.658-3.096-9-6a24.939 24.939 0 0 0-7-.5z"/><path style="opacity:1" fill="#e9a96c" d="M79.5 66.5c-.709-.904-1.709-1.237-3-1a41.744 41.744 0 0 1 6-2c1.196.346 1.196.846 0 1.5l-3 1.5z"/><path style="opacity:1" fill="#ef4440" d="M94.5 66.5c-1.559 3.368-2.392 7.035-2.5 11a107.515 107.515 0 0 1-4.5 10c-2.14 2.468-4.808 4.134-8 5 1.218 1.303.885 2.303-1 3-1.189.929-2.522 1.262-4 1-.466-3.662.2-6.995 2-10 1.476-2 3.31-3.667 5.5-5 .688-.832.521-1.498-.5-2a40.757 40.757 0 0 0-10 7c-2.26.844-3.26 2.51-3 5l-9-2a82.511 82.511 0 0 0-1.5-8c3.368-3.6 7.535-5.433 12.5-5.5 2.118-1.05 3.784-2.55 5-4.5 3.813-1.13 6.813-3.463 9-7a25.87 25.87 0 0 1 10-1v3z"/><path style="opacity:1" fill="#c85332" d="M3.5 59.5c4.038 3.603 8.371 3.937 13 1-1.414 1.639-1.08 2.972 1 4l11 2c.76 1.86 1.76 3.527 3 5a94.206 94.206 0 0 0-10.5-5l-2.5 1c1.366 1.34 2.7 2.673 4 4a87.22 87.22 0 0 1-8-2 9.864 9.864 0 0 1-1-6h-9v9a330.982 330.982 0 0 1-2-12c.667 0 1-.333 1-1z"/><path style="opacity:1" fill="#644136" d="m95.5 60.5 2 3c.183 7.441-1.817 14.108-6 20a80.476 80.476 0 0 0 4-17c.268-1.599-.066-2.932-1-4l1-2z"/><path style="opacity:1" fill="#f4c289" d="M47.5 71.5c-1.815-1.13-3.815-1.796-6-2-.763-.768-1.763-1.268-3-1.5 1.877-.576 3.71-.41 5.5.5 1.95.207 3.116 1.207 3.5 3z"/><path style="opacity:1" fill="#e7463e" d="M70.5 68.5c-.342.838-1.008 1.172-2 1-3.667 1-6 3.333-7 7l-4 1c-2.792-.892-4.125-2.892-4-6 2.728.33 5.062-.337 7-2 .417-.722 1.084-1.222 2-1.5a23.79 23.79 0 0 0-10 .5 57.364 57.364 0 0 1-9-2c-.526-3.308.807-5.474 4-6.5a122.391 122.391 0 0 1 18 3.5 78.34 78.34 0 0 0 11.5-4c1.946.263 2.612 1.263 2 3a24.912 24.912 0 0 1-8.5 2.5c.671.986.671 2.153 0 3.5z"/><path style="opacity:1" fill="#f9e846" d="M76.5 65.5c1.291-.237 2.291.096 3 1-.611 2.275-1.945 3.941-4 5-2.683 1.836-5.683 2.836-9 3-.109-2.014.558-3.68 2-5 .992.172 1.658-.162 2-1 1.983-.97 3.983-1.97 6-3z"/><path style="opacity:1" fill="#fae74f" d="M31.5 71.5v2a5.728 5.728 0 0 1-3 1c-1.681-1.507-3.681-2.507-6-3-1.3-1.327-2.634-2.66-4-4l2.5-1a94.206 94.206 0 0 1 10.5 5z"/><path style="opacity:1" fill="#ad5029" d="M60.5 69.5c-1.938 1.663-4.272 2.33-7 2-.125 3.108 1.208 5.108 4 6l-2 3h-1c-.384-3.27-1.718-6.103-4-8.5 3.108-1.758 6.441-2.592 10-2.5z"/><path style="opacity:1" fill="#eac776" d="M60.5 69.5c-3.559-.092-6.892.742-10 2.5 2.282 2.397 3.616 5.23 4 8.5 0 .667-.333 1-1 1-3-12-6-12-9 0-1.526.605-2.526 1.771-3 3.5.744 1.039 1.744 1.539 3 1.5l-8 6c-2.198.091-2.531-.576-1-2 1.406-.473 2.073-1.473 2-3 2.598-2.007 3.598-4.507 3-7.5a44.49 44.49 0 0 0 7-8.5c1.868-.763 3.535-1.763 5-3a23.79 23.79 0 0 1 10-.5c-.916.278-1.583.778-2 1.5z"/><path style="opacity:1" fill="#c8502f" d="M53.5 81.5h-9c3-12 6-12 9 0z"/><path style="opacity:1" fill="#eac185" d="M61.5 76.5c-1.648 1.826-3.648 3.16-6 4l2-3 4-1z"/><path style="opacity:1" fill="#f5f3ec" d="M97.5-.5h2v111h-44c8.822-2.562 17.155-6.395 25-11.5 3.962-4.114 7.295-8.614 10-13.5.838-.342 1.172-1.008 1-2 4.183-5.892 6.183-12.559 6-20v-64z"/><path style="opacity:1" fill="#b75e2b" d="M41.5 69.5c2.185.204 4.185.87 6 2a44.49 44.49 0 0 1-7 8.5c.598 2.993-.402 5.493-3 7.5a29.77 29.77 0 0 1 2-7c-3.653-1.99-7.32-3.99-11-6a5.728 5.728 0 0 0 3-1 24.258 24.258 0 0 0 6 2.5c6.161.878 7.495-1.289 4-6.5z"/><path style="opacity:1" fill="#aa483e" d="M94.5 66.5h1a80.476 80.476 0 0 1-4 17c.172.992-.162 1.658-1 2l-3 2a107.515 107.515 0 0 0 4.5-10c.108-3.965.941-7.632 2.5-11z"/><path style="opacity:1" fill="#b9582e" d="M68.5 69.5c-1.442 1.32-2.109 2.986-2 5 3.317-.164 6.317-1.164 9-3-1.216 1.95-2.882 3.45-5 4.5-4.965.067-9.132 1.9-12.5 5.5a82.511 82.511 0 0 1 1.5 8l9 2c-.26-2.49.74-4.156 3-5-.994 1.834-.994 3.501 0 5-.24 1.967.094 3.8 1 5.5a4.932 4.932 0 0 1-3 .5c-2.746-1.626-5.746-2.293-9-2 2.131-.814 4.464-1.314 7-1.5l-3-1.5a102.07 102.07 0 0 1-11 3c.93-.815 1.93-1.648 3-2.5-3.242-.283-3.576-1.117-1-2.5a171.62 171.62 0 0 1-4-3c-.065-.438.101-.772.5-1 1.987 1.588 4.154 2.421 6.5 2.5-1.997-2.492-2.997-5.325-3-8.5 2.352-.84 4.352-2.174 6-4 1-3.667 3.333-6 7-7z"/><path style="opacity:1" fill="#f04441" d="M22.5 71.5c2.319.493 4.319 1.493 6 3 3.68 2.01 7.347 4.01 11 6a29.77 29.77 0 0 0-2 7c.073 1.527-.594 2.527-2 3-1.734 1.062-3.4 1.062-5 0-.233-1.562-.9-2.895-2-4-.965-3.608-3.298-5.274-7-5l-1-6h-5a89.186 89.186 0 0 0 3 12h6c1.546 2.382 2.213 5.05 2 8-1.983-.117-3.65.55-5 2-1.764-1.778-3.764-3.11-6-4-3.632-3.903-6.798-8.237-9.5-13a34.077 34.077 0 0 1-1.5-8v-9h9a9.864 9.864 0 0 0 1 6 87.22 87.22 0 0 0 8 2z"/><path style="opacity:1" fill="#b7562d" d="M21.5 81.5c3.702-.274 6.035 1.392 7 5a26.156 26.156 0 0 1-7-5z"/><path style="opacity:1" fill="#b97e49" d="M54.5 80.5h1c.003 3.175 1.003 6.008 3 8.5-2.346-.079-4.513-.912-6.5-2.5-.399.228-.565.562-.5 1-.667 0-1-.333-1-1-1.847-1.073-3.847-1.073-6 0-1.256.039-2.256-.461-3-1.5.474-1.729 1.474-2.895 3-3.5h9c.667 0 1-.333 1-1z"/><path style="opacity:1" fill="#f7da57" d="M76.5 86.5c-2.644.644-4.31 2.31-5 5-.994-1.499-.994-3.166 0-5a40.757 40.757 0 0 1 10-7c1.021.502 1.188 1.168.5 2-2.19 1.333-4.024 3-5.5 5z"/><path style="opacity:1" fill="#fbfbf3" d="M-.5-.5h1v60c1.616 27.276 15.616 44.277 42 51h-43V-.5z"/><path style="opacity:1" fill="#cd4d33" d="M21.5 81.5a14.692 14.692 0 0 1-3.5-3l-.5 1c1.89 3.154 4.223 5.821 7 8h-6a89.186 89.186 0 0 1-3-12h5l1 6z"/><path style="opacity:1" fill="#f7d381" d="M21.5 81.5a26.156 26.156 0 0 0 7 5c1.1 1.105 1.767 2.438 2 4 .17 1.322-.163 2.489-1 3.5 2.141-.086 4.474.08 7 .5h2c1.419.951 3.085 1.284 5 1a10.174 10.174 0 0 1 3 3 20.677 20.677 0 0 1-5-1c-4.935-1.908-9.935-2.575-15-2 2.887-3.365 2.22-6.032-2-8-2.777-2.179-5.11-4.846-7-8l.5-1a14.692 14.692 0 0 0 3.5 3z"/><path style="opacity:1" fill="#71413a" d="m.5 59.5 2 1a330.982 330.982 0 0 0 2 12 34.077 34.077 0 0 0 1.5 8c2.702 4.763 5.868 9.097 9.5 13a41.696 41.696 0 0 0 9 8.5 42.504 42.504 0 0 0 5 1.5c11.019 4.531 22.352 5.197 34 2 10.053-3.402 18.053-9.402 24-18l3-2c-2.705 4.886-6.038 9.386-10 13.5-7.845 5.105-16.178 8.938-25 11.5h-13c-26.384-6.723-40.384-23.724-42-51z"/><path style="opacity:1" fill="#f3d07b" d="M60.5 95.5c-2.053-.098-3.72.569-5 2-4.563.547-4.897 1.714-1 3.5a4.934 4.934 0 0 1-3 .5c-3.82-.726-7.82-.726-12 0v-1c2.652.09 4.986-.576 7-2 1.653-.16 2.986-.826 4-2a5.728 5.728 0 0 0 3-1 102.07 102.07 0 0 0 11-3l3 1.5c-2.536.186-4.869.686-7 1.5z"/><path style="opacity:1" fill="#c14c38" d="M15.5 93.5c2.236.89 4.236 2.222 6 4 1.35-1.45 3.017-2.117 5-2 5.065-.575 10.065.092 15 2a161.58 161.58 0 0 0-16 1v3c1.88-.271 3.213.396 4 2a42.504 42.504 0 0 1-5-1.5 41.696 41.696 0 0 1-9-8.5z"/><path style="opacity:1" fill="#9c500e" d="M43.5 95.5c2.361.174 4.694.507 7 1-1.014 1.174-2.347 1.84-4 2a10.174 10.174 0 0 0-3-3z"/><path style="opacity:1" fill="#c94f3b" d="M76.5 86.5c-1.8 3.005-2.466 6.338-2 10 1.478.262 2.811-.071 4-1 1.885-.697 2.218-1.697 1-3 3.192-.866 5.86-2.532 8-5-5.947 8.598-13.947 14.598-24 18 1.702-2.194 3.869-3.86 6.5-5 .47-1.077.303-2.077-.5-3a4.932 4.932 0 0 0 3-.5c-.906-1.7-1.24-3.533-1-5.5.69-2.69 2.356-4.356 5-5z"/><path style="opacity:1" fill="#ec463e" d="M50.5 86.5c0 .667.333 1 1 1 1.265.98 2.599 1.98 4 3-2.576 1.383-2.242 2.217 1 2.5a81.718 81.718 0 0 0-3 2.5 5.728 5.728 0 0 1-3 1 51.639 51.639 0 0 0-7-1c-1.915.284-3.581-.049-5-1v-3a60.74 60.74 0 0 0 12-5z"/><path style="opacity:1" fill="#916216" d="M30.5 90.5c1.6 1.062 3.266 1.062 5 0-1.531 1.424-1.198 2.091 1 2v2c-2.526-.42-4.859-.586-7-.5.837-1.011 1.17-2.178 1-3.5z"/><path style="opacity:1" fill="#b7512c" d="M50.5 86.5a60.74 60.74 0 0 1-12 5v3h-2v-2l8-6c2.153-1.073 4.153-1.073 6 0z"/><path style="opacity:1" fill="#a3561d" d="M24.5 87.5c4.22 1.968 4.887 4.635 2 8 .213-2.95-.454-5.618-2-8z"/><path style="opacity:1" fill="#e84943" d="M60.5 95.5c3.254-.293 6.254.374 9 2 .803.923.97 1.923.5 3-2.631 1.14-4.798 2.806-6.5 5-11.648 3.197-22.981 2.531-34-2-.787-1.604-2.12-2.271-4-2v-3a161.58 161.58 0 0 1 16-1c-.282 1.278-.949 2.278-2 3v1c.196 1.427 4.196 1.427 12 0 .812 1.493 2.145 2.16 4 2 7.72-1.29 8.22-2.624 1.5-4-1.03-.336-1.53-1.003-1.5-2 1.28-1.431 2.947-2.098 5-2z"/><path style="opacity:1" fill="#a94620" d="M39.5 101.5c4.18-.726 8.18-.726 12 0-7.804 1.427-11.804 1.427-12 0z"/><path style="opacity:1" fill="#b15030" d="M55.5 97.5c-.03.997.47 1.664 1.5 2 6.72 1.376 6.22 2.71-1.5 4-1.855.16-3.188-.507-4-2a4.934 4.934 0 0 0 3-.5c-3.897-1.786-3.563-2.953 1-3.5z"/><path style="opacity:1" fill="#9a5216" d="M41.5 97.5c1.617.538 3.284.871 5 1-2.014 1.424-4.348 2.09-7 2 1.051-.722 1.718-1.722 2-3z"/></svg>