<svg xmlns="http://www.w3.org/2000/svg" width="63.998" height="76.969"><defs><clipPath clipPathUnits="userSpaceOnUse" id="b"><path d="M0 0h595.276v841.89H0V0z"/></clipPath><clipPath clipPathUnits="userSpaceOnUse" id="a"><path d="M0 0h595.276v841.89H0V0z"/></clipPath></defs><path d="M0 0v-36.091s.976-24.387 26.094-24.387c25.118 0 24.385 24.387 24.385 24.387V-.119L0 0z" style="fill:#007ac1;fill-opacity:1;fill-rule:nonzero;stroke:none" transform="matrix(1.25 0 0 -1.25 .448 .923)"/><path d="M0 0c0-.084.009-.664.228-.811 0 0 .458-.25 2.266-.957 1.807-.703 4.631-2.347 5.545-3.219.915-.872 1.331-1.142 1.787-1.081.457.064 1.207.537 1.329.958.25.851.042 1.057-.167 1.265 0 0 .167.188.396.042 0 0 1.004-.801-.049-2.244 0 0 1.704-.124 2.065.956.36 1.083-.041 1.567-.432 1.828-.387.263-1.383.872-1.342 1.717.04.793-.014 1.109-.471 1.109-.706 0-.692-1.025-.054-.887 0 0 .039-.415-.361-.471-.401-.055-.776.442-.692.999.083.552.498 1.12 1.137 1.135.636.012 1.161-.291 1.148-1.025l.013-.472s.028.68.666.653c.4-.018.582-.291.582-.291s.442.484 1.344-.029c.898-.511 1.516-.695 1.812-.472.526.403.475 1.763-.651 2.009-.887.193-1.386-.193-1.386-.193s.558.988 1.47.856c.678-.095 2.104-.772 1.358-2.699 0 0 .732.372.689 1.33-.03.747-.468 1.343-1.868 1.718 0 0 2.756.817 2.811-1.913 0 0-.061-2.345-2.262-2.222-2.123.121-1.993.893-2.659.686-.529-.163-.076-.886-.062-1.399 0 0 .582.748 1.702.611 0 0 .746-.14 1.025-.389 0 0 1.646.208 1.523-2.216-.083-1.622-1.247-2.216-2.369-2.175-.568.022-1.579.623-1.562 1.469.012.844.483 1.342.954 1.342.469 0 .442-.401.442-.401s-.622.25-.442-.429c.091-.352.608-.555 1.147-.153.542.404.473 1.982-.4 2.174-.872.195-1.619-.11-1.856-1.176-.235-1.067-.665-1.911-1.744-2.576-.526-.325-1.58-.458-2.722-.147 0 0 1.038-.809 1.038-3.551 0 0 .725-2.41 1.684-2.307 0 0 .249-.172.289.298l-.123.5c.402-.07.748-.485.678-1.15-.033-.319-.03-.469.042-.609.138-.277.361-.333.498-.319 0 0-.178-.499-.526-.471-.346.028-.471-.109-.429-.264.041-.151.109-.747 1.412-.967 0 0-.361-.401-.968-.236-.611.165-.444-.126-.389-.165.056-.045.747-.611 1.579-.431 0 0 .152-.458-1.246-.498 0 0-.608.167-.056-.373 0 0 .403-.513.805-.458 0 0-.487-.804-1.054-.305 0 0-.233-.887.526-.914.762-.029.886.125.886.125s-.344-.886-1.107-.763c-.762.126-.777.832-.777.832s-.094-1.012-.386-1.232c0 0-.125-.266.028-.305.15-.043.291-.124.291-.124s.067-1.566-.971-1.844c-1.039-.277-1.233-.15-1.233-.15s.247.48.333.608c.028.044-1.482-.777-2.133-.111 0 0 1.996 1.176 1.967 1.689l-.139.082s1.248.957 1.234 1.566c0 0 .248 1.206-.402 2.757-.651 1.55-1.15 2.078-1.497 2.133 0 0-.372.039-.333-.361.044-.4.057-.511-.166-.568-.219-.055-.554-.124-.414-.29.138-.166 1.192-.997.265-2.118 0 0 .067.856-.279.856-.346 0-1.372.096-1.358 1.025.016.929.832.776 1.04 1.261.207.483-.651.721-1.024 1.122-.374.402-1.634 1.69-2.121 2.535 0 0-.914-.832-1.092-1.068-.18-.234-.597-.567-.278-1.273.319-.705 1.011-1.537 1.025-1.913.02-.55-.076-.53-.056-1.066 0 0 .389-.485 1.205-.207 0 0-.262-.871-1.467-.594 0 0-.222.096-.291.209-.068.107-.044.012-.044.012s.167-.775.612-.803c0 0-.859-.361-1.634.856 0 0 .484-1.008.72-1.121.234-.109-.9-.427-1.387.639 0 0-.153.513-.746.166-.595-.347-2.326-1.412-2.368-1.69 0 0-.279-.555.098-1.093 0 0-.236-.097-.417.124 0 0 .026-.261.167-.345 0 0-.513-.182-.749.124 0 0-2.297-1.982-3.64-1.33 0 0 1.329 1.206 1.382 1.4 0 0-1.189-.166-1.633.039 0 0 1.565 1.62 1.676 1.857.113.236.652.222.913.179.264-.041.568-.013.568-.013s3.393 2.023 3.599 2.368c.212.345.252.816-.164 1.093-.415.276-1.275.942-1.33 1.164 0 0-.559-.27-.94.181-.456.54-1.511.498-1.552.027-.057-.651.263-.844.748-.721.329.086.428.264.428.264s.096-.776-.47-.901c-.567-.124-1.412.11-1.469 1.04-.054.927.694 1.315 1.636 1.219 0 0-.43.568-.306 1.065.124.498.442.859 1.094.859.445 0 .609-.373.486-.72 0 0-.135-.199-.263-.194-.171.007-.25.178-.25.178s.137.056.153.167c.012.112-.499.057-.375-.358.126-.416.402-.708 1.08-.555 0 0 1.012 2.133 3.67 2.866 0 0 .61.077.569.118C3.635-7.811.915-6.482.7-6.655c-.326-.264-.803-.403-.928-.445 0 0 .775-.469.692-1.177-.083-.705-1.079-1.315-1.411-.859 0 0 .189.14.241.307 0 0-.767-.445-.906.012 0 0 .248.056.276.263.026.208-.028 1.068-.497 1.053 0 0-.181.111-.181-.221 0-.333.471-1.733-.512-1.704 0 0-.266.056-.277.265 0 0 .345.028.291.332-.057.303-.181 1.467-1.04 1.439-.859-.027-1.066.581-1.066.581s-.581.263-.581.251c0-.173-.565-.786.126-.901 0 0-.071-.638-.541-.485-.237.076-.498.638-.025 1.566 0 0-.239.152-.377.152-.14 0-1.149-1.275-.123-1.927 0 0 .012-.261-.361-.207-.375.055-.713.811-.646 1.129 0 0-.123-.322-.133-.498-.012-.176.061-.292.061-.292s-.557-.088-.584.423c-.023.431.111.58.193.749.173.356.056.678.056.678s-.682-.514-.719-.983c-.035-.409.138-.694.29-.707 0 0-.072-.348-.485-.264-.416.084-.751 1.234-.071 1.815 0 0-1.648-.18-4.057-2.465-2.409-2.285-2.188-2.09-2.188-2.09s-.318-.349.181-.499c0 0 .123-.291-.167-.402-.291-.111-.652.013-.652.013s-.996-1.661-1.314-2.049l-.153-.22s-.208.331-.166 1.01c0 0-1.357-.431-1.869-.195 0 0 1.649 1.454 1.844 1.995.191.54-.072.428.067.651l.235-.139s-.098.819 0 .956c0 0 .763-.056.818-.028.055.028 3.845 3.401 4.016 3.615.187.235.026.872.165 1.039.27.319.637.22.846.22 0 0 2.062-.04 3.088.805 0 0-2.714 2.27-3.255 2.657-.542.39-1.011.861-1.591.861-.582 0-1.981-.778-2.398-1.109-.415-.332-1.037-.707-1.037-.707s-.307-.345-.07-.762c0 0-.29-.374-.846.084 0 0-.262-.181-.318-.525-.053-.349-.541-1.038-.802-1.191-.775-.457-1.619-.291-1.619-.291s1.118 1.161 1.313 1.549c0 0-1.714-.192-2.008.818 0 0 1.676.014 2.577.872 0 0-.112.484.167.679.277.194.302.276.58.29.276.016 1.038.277 1.636.693.594.415 1.3.79 1.925.778 0 0 .967.772 1.106 1.024.139.248.596.236.747.124.153-.112.542-.428.79-.789.251-.359 2.59-2.174 2.771-2.189.179-.014 2.809 2.742 2.935 3.004 0 0-.788.665-.416 1.331l.097.304s-1.564-2.078-2.23-2.243c-.651-.163-1.799-.069-1.703 1.536 0 0 .402-.816 1.275-.733.873.083 1.311.8 1.311.8l.117.188s-.168.301-.241.301c-.744 0-.966.268-.851.808 0 0 .124.272.591.219 0 0 .791.496.955 1.243.169.748.542.86.776.955 0 0-.013.735.167.971.181.236.282.519.282.519-6.707-.499-10.944.645-11.464 1.039-.521.394-.354.642-.083.497.269-.146 2.203-.393 2.554-.393.353 0 .75-.209.748-.188-.019.435 1.164-.084 1.162-.041-.019.435 1.13-.146 1.122-.104-.062.457.853-.02.853 0 0 .477.832 0 .832.021 0 .383.984 0 .974.04-.104.437.997-.02.997-.02-.082.436.88-.041.875 0-.084.457.854.041.851.063-.043.33.457.125.457.165 0 .238 1.515.147 1.515.147s-.935.354-.935.954c0 .603.27 1.476.417 1.828 0 0 0 .312.124.104.123-.207.197-.267.31-.456.25-.416 1.061-.395 1.165-1.37 0 0 .477.311.956.081.476-.228.642-.561.642-.561s.251.748.747.748c.433 0 .978-.207 1.164-.123.189.084.708.436.833.559.123.125.207-.623-.024-1.142 0 0-.518-.789-1.224-1.017 0 0 .956.269 1.185-.105.229-.373.517-.79.789-.623.271.166.498.395.498.395s.216-.394 0-.727c-.373-.581-.975-.81-1.372-.393-.394.414-.642.831-.891.704 0 0 .251-.364.164-.663l-.066-.334c.156-.274.612-.98 1.003-.727.478.312.893.665 1.41.665 0 0 .915.187 1.351-1.453 0 0 .084-.147.23-.021 0 0-.312-.561-.852.04-.541.603-.852.646-1.165.416-.31-.228-.623-.996-1.06-.975-.433.02-.745.062-.995.644-.161.374-.265.674-.286.855-.102-.289-.17-.614-.088-.876.104-.334.157-.447.198-.644 0 0 .273-.948 1.034-.673.761.279.805.582 1.525.569.718-.014 2.021-1.053 1.135-2.065 0 0-.383.956-.984 1.026-.595.07-.695-.059-1.33-.554-.318-.25-.465-.192-.708-.125-.342.098-.952.947-1.021.925-.02-.007.016-.039.027-.059.218-.418.437-.702.255-.926 0 0 .021-.646.603-.743.582-.096.914-.028 1.108.097.195.125.499.345.858.305.361-.041 1.192-.594.751-1.649 0 0-.232.587-.533.819-.286.22-.667.208-.81-.043 0 0-.127-.4-.693-.372-.571.025-1.121.44-1.304.677-.138.18-.262.02-.262.02.053-.111.079-.232-.015-.407 0 0 .184-.338.605-.499.403-.157.835-.049 1.307-.187.47-.14 1.425-1.157.718-2.057 0 0-.1.785-.668 1.194A4.29 4.29 0 0 1 .51.943C.126 1.008-.096.888-.096.888-.063.794-.063.659-.04.539c0 0 .754.131 1.222-.104.409-.202.906-.79 1.021-1.506 0 0-.466.393-.659.551-.348.283-.695.43-.943.47A4.896 4.896 0 0 1 0 0" style="fill:#d1d3d4;fill-opacity:1;fill-rule:nonzero;stroke:none" transform="matrix(1.25 0 0 -1.25 33.186 41.064)"/><path d="M0 0c0-.084.009-.664.228-.811 0 0 .458-.25 2.266-.957 1.807-.703 4.631-2.347 5.545-3.219.915-.872 1.331-1.142 1.787-1.081.457.064 1.207.537 1.329.958.25.851.042 1.057-.167 1.265 0 0 .167.188.396.042 0 0 1.004-.801-.049-2.244 0 0 1.704-.124 2.065.956.36 1.083-.041 1.567-.432 1.828-.387.263-1.383.872-1.342 1.717.04.793-.014 1.109-.471 1.109-.706 0-.692-1.025-.054-.887 0 0 .039-.415-.361-.471-.401-.055-.776.442-.692.999.083.552.498 1.12 1.137 1.135.636.012 1.161-.291 1.148-1.025l.013-.472s.028.68.666.653c.4-.018.582-.291.582-.291s.442.484 1.344-.029c.898-.511 1.516-.695 1.812-.472.526.403.475 1.763-.651 2.009-.887.193-1.386-.193-1.386-.193s.558.988 1.47.856c.678-.095 2.104-.772 1.358-2.699 0 0 .732.372.689 1.33-.03.747-.468 1.343-1.868 1.718 0 0 2.756.817 2.811-1.913 0 0-.061-2.345-2.262-2.222-2.123.121-1.993.893-2.659.686-.529-.163-.076-.886-.062-1.399 0 0 .582.748 1.702.611 0 0 .746-.14 1.025-.389 0 0 1.646.208 1.523-2.216-.083-1.622-1.247-2.216-2.369-2.175-.568.022-1.579.623-1.562 1.469.012.844.483 1.342.954 1.342.469 0 .442-.401.442-.401s-.622.25-.442-.429c.091-.352.608-.555 1.147-.153.542.404.473 1.982-.4 2.174-.872.195-1.619-.11-1.856-1.176-.235-1.067-.665-1.911-1.744-2.576-.526-.325-1.58-.458-2.722-.147 0 0 1.038-.809 1.038-3.551 0 0 .725-2.41 1.684-2.307 0 0 .249-.172.289.298l-.123.5c.402-.07.748-.485.678-1.15-.033-.319-.03-.469.042-.609.138-.277.361-.333.498-.319 0 0-.178-.499-.526-.471-.346.028-.471-.109-.429-.264.041-.151.109-.747 1.412-.967 0 0-.361-.401-.968-.236-.611.165-.444-.126-.389-.165.056-.045.747-.611 1.579-.431 0 0 .152-.458-1.246-.498 0 0-.608.167-.056-.373 0 0 .403-.513.805-.458 0 0-.487-.804-1.054-.305 0 0-.233-.887.526-.914.762-.029.886.125.886.125s-.344-.886-1.107-.763c-.762.126-.777.832-.777.832s-.094-1.012-.386-1.232c0 0-.125-.266.028-.305.15-.043.291-.124.291-.124s.067-1.566-.971-1.844c-1.039-.277-1.233-.15-1.233-.15s.247.48.333.608c.028.044-1.482-.777-2.133-.111 0 0 1.996 1.176 1.967 1.689l-.139.082s1.248.957 1.234 1.566c0 0 .248 1.206-.402 2.757-.651 1.55-1.15 2.078-1.497 2.133 0 0-.372.039-.333-.361.044-.4.057-.511-.166-.568-.219-.055-.554-.124-.414-.29.138-.166 1.192-.997.265-2.118 0 0 .067.856-.279.856-.346 0-1.372.096-1.358 1.025.016.929.832.776 1.04 1.261.207.483-.651.721-1.024 1.122-.374.402-1.634 1.69-2.121 2.535 0 0-.914-.832-1.092-1.068-.18-.234-.597-.567-.278-1.273.319-.705 1.011-1.537 1.025-1.913.02-.55-.076-.53-.056-1.066 0 0 .389-.485 1.205-.207 0 0-.262-.871-1.467-.594 0 0-.222.096-.291.209-.068.107-.044.012-.044.012s.167-.775.612-.803c0 0-.859-.361-1.634.856 0 0 .484-1.008.72-1.121.234-.109-.9-.427-1.387.639 0 0-.153.513-.746.166-.595-.347-2.326-1.412-2.368-1.69 0 0-.279-.555.098-1.093 0 0-.236-.097-.417.124 0 0 .026-.261.167-.345 0 0-.513-.182-.749.124 0 0-2.297-1.982-3.64-1.33 0 0 1.329 1.206 1.382 1.4 0 0-1.189-.166-1.633.039 0 0 1.565 1.62 1.676 1.857.113.236.652.222.913.179.264-.041.568-.013.568-.013s3.393 2.023 3.599 2.368c.212.345.252.816-.164 1.093-.415.276-1.275.942-1.33 1.164 0 0-.559-.27-.94.181-.456.54-1.511.498-1.552.027-.057-.651.263-.844.748-.721.329.086.428.264.428.264s.096-.776-.47-.901c-.567-.124-1.412.11-1.469 1.04-.054.927.694 1.315 1.636 1.219 0 0-.43.568-.306 1.065.124.498.442.859 1.094.859.445 0 .609-.373.486-.72 0 0-.135-.199-.263-.194-.171.007-.25.178-.25.178s.137.056.153.167c.012.112-.499.057-.375-.358.126-.416.402-.708 1.08-.555 0 0 1.012 2.133 3.67 2.866 0 0 .61.077.569.118C3.635-7.811.915-6.482.7-6.655c-.326-.264-.803-.403-.928-.445 0 0 .775-.469.692-1.177-.083-.705-1.079-1.315-1.411-.859 0 0 .189.14.241.307 0 0-.767-.445-.906.012 0 0 .248.056.276.263.026.208-.028 1.068-.497 1.053 0 0-.181.111-.181-.221 0-.333.471-1.733-.512-1.704 0 0-.266.056-.277.265 0 0 .345.028.291.332-.057.303-.181 1.467-1.04 1.439-.859-.027-1.066.581-1.066.581s-.581.263-.581.251c0-.173-.565-.786.126-.901 0 0-.071-.638-.541-.485-.237.076-.498.638-.025 1.566 0 0-.239.152-.377.152-.14 0-1.149-1.275-.123-1.927 0 0 .012-.261-.361-.207-.375.055-.713.811-.646 1.129 0 0-.123-.322-.133-.498-.012-.176.061-.292.061-.292s-.557-.088-.584.423c-.023.431.111.58.193.749.173.356.056.678.056.678s-.682-.514-.719-.983c-.035-.409.138-.694.29-.707 0 0-.072-.348-.485-.264-.416.084-.751 1.234-.071 1.815 0 0-1.648-.18-4.057-2.465-2.409-2.285-2.188-2.09-2.188-2.09s-.318-.349.181-.499c0 0 .123-.291-.167-.402-.291-.111-.652.013-.652.013s-.996-1.661-1.314-2.049l-.153-.22s-.208.331-.166 1.01c0 0-1.357-.431-1.869-.195 0 0 1.649 1.454 1.844 1.995.191.54-.072.428.067.651l.235-.139s-.098.819 0 .956c0 0 .763-.056.818-.028.055.028 3.845 3.401 4.016 3.615.187.235.026.872.165 1.039.27.319.637.22.846.22 0 0 2.062-.04 3.088.805 0 0-2.714 2.27-3.255 2.657-.542.39-1.011.861-1.591.861-.582 0-1.981-.778-2.398-1.109-.415-.332-1.037-.707-1.037-.707s-.307-.345-.07-.762c0 0-.29-.374-.846.084 0 0-.262-.181-.318-.525-.053-.349-.541-1.038-.802-1.191-.775-.457-1.619-.291-1.619-.291s1.118 1.161 1.313 1.549c0 0-1.714-.192-2.008.818 0 0 1.676.014 2.577.872 0 0-.112.484.167.679.277.194.302.276.58.29.276.016 1.038.277 1.636.693.594.415 1.3.79 1.925.778 0 0 .967.772 1.106 1.024.139.248.596.236.747.124.153-.112.542-.428.79-.789.251-.359 2.59-2.174 2.771-2.189.179-.014 2.809 2.742 2.935 3.004 0 0-.788.665-.416 1.331l.097.304s-1.564-2.078-2.23-2.243c-.651-.163-1.799-.069-1.703 1.536 0 0 .402-.816 1.275-.733.873.083 1.311.8 1.311.8l.117.188s-.168.301-.241.301c-.744 0-.966.268-.851.808 0 0 .124.272.591.219 0 0 .791.496.955 1.243.169.748.542.86.776.955 0 0-.013.735.167.971.181.236.282.519.282.519-6.707-.499-10.944.645-11.464 1.039-.521.394-.354.642-.083.497.269-.146 2.203-.393 2.554-.393.353 0 .75-.209.748-.188-.019.435 1.164-.084 1.162-.041-.019.435 1.13-.146 1.122-.104-.062.457.853-.02.853 0 0 .477.832 0 .832.021 0 .383.984 0 .974.04-.104.437.997-.02.997-.02-.082.436.88-.041.875 0-.084.457.854.041.851.063-.043.33.457.125.457.165 0 .238 1.515.147 1.515.147s-.935.354-.935.954c0 .603.27 1.476.417 1.828 0 0 0 .312.124.104.123-.207.197-.267.31-.456.25-.416 1.061-.395 1.165-1.37 0 0 .477.311.956.081.476-.228.642-.561.642-.561s.251.748.747.748c.433 0 .978-.207 1.164-.123.189.084.708.436.833.559.123.125.207-.623-.024-1.142 0 0-.518-.789-1.224-1.017 0 0 .956.269 1.185-.105.229-.373.517-.79.789-.623.271.166.498.395.498.395s.216-.394 0-.727c-.373-.581-.975-.81-1.372-.393-.394.414-.642.831-.891.704 0 0 .251-.364.164-.663l-.066-.334c.156-.274.612-.98 1.003-.727.478.312.893.665 1.41.665 0 0 .915.187 1.351-1.453 0 0 .084-.147.23-.021 0 0-.312-.561-.852.04-.541.603-.852.646-1.165.416-.31-.228-.623-.996-1.06-.975-.433.02-.745.062-.995.644-.161.374-.265.674-.286.855-.102-.289-.17-.614-.088-.876.104-.334.157-.447.198-.644 0 0 .273-.948 1.034-.673.761.279.805.582 1.525.569.718-.014 2.021-1.053 1.135-2.065 0 0-.383.956-.984 1.026-.595.07-.695-.059-1.33-.554-.318-.25-.465-.192-.708-.125-.342.098-.952.947-1.021.925-.02-.007.016-.039.027-.059.218-.418.437-.702.255-.926 0 0 .021-.646.603-.743.582-.096.914-.028 1.108.097.195.125.499.345.858.305.361-.041 1.192-.594.751-1.649 0 0-.232.587-.533.819-.286.22-.667.208-.81-.043 0 0-.127-.4-.693-.372-.571.025-1.121.44-1.304.677-.138.18-.262.02-.262.02.053-.111.079-.232-.015-.407 0 0 .184-.338.605-.499.403-.157.835-.049 1.307-.187.47-.14 1.425-1.157.718-2.057 0 0-.1.785-.668 1.194A4.29 4.29 0 0 1 .51.943C.126 1.008-.096.888-.096.888-.063.794-.063.659-.04.539c0 0 .754.131 1.222-.104.409-.202.906-.79 1.021-1.506 0 0-.466.393-.659.551-.348.283-.695.43-.943.47A4.896 4.896 0 0 1 0 0z" style="fill:none;stroke:#000;stroke-width:.17900001;stroke-linecap:round;stroke-linejoin:round;stroke-miterlimit:4;stroke-opacity:1;stroke-dasharray:none" transform="matrix(1.25 0 0 -1.25 33.186 41.064)"/><path d="M597.306 528.745H534.26v21.406h63.047v-21.406z" style="fill:#d1d3d4;fill-opacity:1;fill-rule:nonzero;stroke:none" transform="translate(-533.715 -528.163)"/><g clip-path="url(#a)" transform="matrix(1.25 0 0 -1.25 -644.992 959.119)"><path d="M0 0c.126-.286.19-.599.295-.866.062-.228.585-1.74.796-2.278.052-.123.124-.372.207-.372.905-.027 3.371-.029 3.371-.029.096.002.103-.079.081-.143-.575-.506-2.385-1.836-2.642-2.049-.061-.062-.164-.104-.12-.208.373-.953.649-1.901 1.002-2.847a6.77 6.77 0 0 1 .167-.521c.036-.143-.025-.247-.196-.144C2.189-8.91 1.379-8.36.609-7.769l-.632.406c-.101.087-.514-.317-.775-.51-.276-.19-2.136-1.582-2.305-1.692 0 0-.195-.027-.124.151l.038.101c.349 1.144 1.038 3.274 1.06 3.393.02.099-.062.149-.062.149-.894.695-1.883 1.299-2.759 1.971-.159.11-.182.273.077.268 0 0 3.05-.003 3.51.024.193.542.858 2.61 1.031 3.13C-.228.11-.069.202 0 0" style="fill:#a8996e;fill-opacity:1;fill-rule:nonzero;stroke:none" transform="translate(554.612 746.684)"/><path d="M0 0c.126-.286.19-.599.295-.866.062-.228.585-1.74.796-2.278.052-.123.124-.372.207-.372.905-.027 3.371-.029 3.371-.029.096.002.103-.079.081-.143-.575-.506-2.385-1.836-2.642-2.049-.061-.062-.164-.104-.12-.208.373-.953.649-1.901 1.002-2.847a6.77 6.77 0 0 1 .167-.521c.036-.143-.025-.247-.196-.144C2.189-8.91 1.379-8.36.609-7.769l-.632.406c-.101.087-.514-.317-.775-.51-.276-.19-2.136-1.582-2.305-1.692 0 0-.195-.027-.124.151l.038.101c.349 1.144 1.038 3.274 1.06 3.393.02.099-.062.149-.062.149-.894.695-1.883 1.299-2.759 1.971-.159.11-.182.273.077.268 0 0 3.05-.003 3.51.024.193.542.858 2.61 1.031 3.13C-.228.11-.069.202 0 0z" style="fill:none;stroke:#000;stroke-width:.17900001;stroke-linecap:butt;stroke-linejoin:miter;stroke-miterlimit:4;stroke-opacity:1;stroke-dasharray:none" transform="translate(554.612 746.684)"/></g><path d="M546.601 550.18h-4.297v-4.298h4.297v4.298zM555.19 550.18h-4.297v-4.298h4.297v4.298zM563.784 550.18h-4.296v-4.298h4.296v4.298zM572.376 550.18h-4.295v-4.298h4.295v4.298zM580.969 550.18h-4.298v-4.298h4.298v4.298zM589.563 550.18h-4.3v-4.298h4.3v4.298zM546.601 541.587h-4.297v-4.297h4.297v4.297zM555.19 541.587h-4.297v-4.297h4.297v4.297zM563.784 541.587h-4.296v-4.297h4.296v4.297zM572.376 541.587h-4.295v-4.297h4.295v4.297zM580.969 541.587h-4.298v-4.297h4.298v4.297zM589.563 541.587h-4.3v-4.297h4.3v4.297zM546.601 532.967h-4.297v-4.296h4.297v4.296zM538.014 550.18h-3.881v-4.298h3.88v4.298zM538.014 541.587h-3.881v-4.297h3.88v4.297zM538.014 532.967h-3.881v-4.296h3.88v4.296zM555.19 532.967h-4.297v-4.296h4.297v4.296zM563.784 532.967h-4.296v-4.296h4.296v4.296zM572.376 532.967h-4.295v-4.296h4.295v4.296zM580.969 532.967h-4.298v-4.296h4.298v4.296zM589.563 532.967h-4.3v-4.296h4.3v4.296zM597.246 550.18h-3.396v-4.298h3.396v4.298zM597.246 541.587h-3.396v-4.297h3.396v4.297zM597.246 532.967h-3.396v-4.296h3.396v4.296z" style="fill:#000;fill-opacity:1;fill-rule:nonzero;stroke:none" transform="translate(-533.715 -528.163)"/><path d="M550.894 537.297h-4.295V533h4.295v4.297zM542.274 537.297h-4.294V533h4.294v4.297zM559.488 537.297h-4.298V533h4.298v4.297zM568.081 537.297h-4.298V533h4.298v4.297zM576.671 537.297h-4.295V533h4.295v4.297zM585.264 537.297h-4.295V533h4.295v4.297zM593.855 537.297h-4.294V533h4.294v4.297zM550.894 545.89h-4.295v-4.297h4.295v4.298zM542.274 545.89h-4.294v-4.297h4.294v4.298zM559.488 545.89h-4.298v-4.297h4.298v4.298zM568.081 545.89h-4.298v-4.297h4.298v4.298zM576.671 545.89h-4.295v-4.297h4.295v4.298zM585.264 545.89h-4.295v-4.297h4.295v4.298zM593.855 545.89h-4.294v-4.297h4.294v4.298z" style="fill:#000;fill-opacity:1;fill-rule:nonzero;stroke:none" transform="translate(-533.715 -528.163)"/><g clip-path="url(#b)" transform="matrix(1.25 0 0 -1.25 -644.992 959.119)"><path d="M0 0s-.554-.43-.401-1.288c0 0 .068-.306.083-.471M3.935-.527S3.559-.86 2.701-.596m.61-1.509s1.038-.859.857-1.968c0 0-.165-1.558-1.647-1.579-.971-.013-1.095 1.137-1.095 1.137M-21.45-3.297s1.815.775 1.925 1.136c.11.36.166 1.467.166 1.467m-2.423.235s-.834-1.273.013-2.561m1.559-2.374s-.509-.592-.541-1.029m2.527.411s.914-.152 1.703.347c.789.497 1.039 1.62 1.107 2.438m2.598-2.605s.623.375 1.287.334c.664-.043 1.621-.209 2.203-2.12.581-1.912 1.072-2.271 1.072-2.271m5.056-9.917s1.15-.206 1.787.056m-.68-.138s-.373-1.289-.803-1.579m-13.114 4.626s-.18-.498.054-.845c.239-.345.736-1.109.998-1.246m-2.258.07s.929.607 1.276 1.107m-14.445 7.852s.692-.736 1.356-1.053m-1.576.875s.027-1.747-.057-2.135m-.844 11.176s.429-1.039.857-1.233m-1.426-.458s.638.819.833 1.123m10.863 5.414s.083-.083.331.167c.251.25.687.727.897.749.205.02.56.02.56.02s-.104.061-.294-.103a1.4 1.4 0 0 1-.29-.375m.326-1.69s.317-.179.546.298c.229.478.873 2.161 1.019 2.223.144.063.789-.102 1.039.042.249.146 1.058.852 1.058 1.578m-3.095.622.52.356s.103 1.037.749 1.37c.643.332.788.042 1.33.019.539-.019.765.023.765.023m-2.866-1.475s.956-.562 1.996.413m-.893-.04s.248-.167.623.292c.375.456.375.787.375.787" style="fill:none;stroke:#000;stroke-width:.17900001;stroke-linecap:round;stroke-linejoin:round;stroke-miterlimit:4;stroke-opacity:1;stroke-dasharray:none" transform="translate(556.148 733.647)"/><path d="M0 0c-.021-.083.426-.624.821-.25C1.216.124.812.622.78.633.749.644.489.521.489.521L.53.312.426.208.29.384S.021.083 0 0" style="fill:#000;fill-opacity:1;fill-rule:nonzero;stroke:none" transform="translate(538.716 742.108)"/><path d="M0 0s-.307-.396-.364-.556M-.39-1.64s.125-.737-.031-.83c-.155-.095-.376-.206-.183-.503m.283-.985s-.38-.227-.558-.321c-.177-.093.021-.363.094-.415.073-.052.181-.153.181-.153m-.014-.407s-.198-.29-.405-.385c-.207-.095.165-.56.165-.56m.054-.323s.03-.425.04-.539m-1.599-11.872s.334-.509 1.435-.365m.185.817s-.437-.698 0-1.551m-.84 5.586s.664-.282.538-.792c-.094-.387-.367-.606-.414-.652 0 0 .229.456-.063.684-.29.229-.332.489-.246.592.08.105.185.168.185.168zm-7.719 1.075s.502.128.984.139c.482.011 1.136 0 1.53-.051" style="fill:none;stroke:#000;stroke-width:.17900001;stroke-linecap:round;stroke-linejoin:round;stroke-miterlimit:4;stroke-opacity:1;stroke-dasharray:none" transform="translate(543.306 741.505)"/><path d="M0 0v-36.401s.976-24.387 26.094-24.387c25.118 0 24.385 24.387 24.385 24.387V.07L0 0z" style="fill:none;stroke:#000;stroke-width:.71700001;stroke-linecap:butt;stroke-linejoin:miter;stroke-miterlimit:4;stroke-opacity:1;stroke-dasharray:none" transform="translate(516.352 766.866)"/></g><path d="M0 0h50.521" style="fill:none;stroke:#000;stroke-width:.17900001;stroke-linecap:butt;stroke-linejoin:miter;stroke-miterlimit:4;stroke-opacity:1;stroke-dasharray:none" transform="matrix(1.25 0 0 -1.25 .443 21.98)"/></svg>