<?xml version="1.0" encoding="UTF-8" standalone="no"?>
<!-- Created with Inkscape (http://www.inkscape.org/) -->

<svg
   xmlns:dc="http://purl.org/dc/elements/1.1/"
   xmlns:cc="http://creativecommons.org/ns#"
   xmlns:rdf="http://www.w3.org/1999/02/22-rdf-syntax-ns#"
   xmlns:svg="http://www.w3.org/2000/svg"
   xmlns="http://www.w3.org/2000/svg"
   xmlns:sodipodi="http://sodipodi.sourceforge.net/DTD/sodipodi-0.dtd"
   xmlns:inkscape="http://www.inkscape.org/namespaces/inkscape"
   width="63.997787"
   height="76.96875"
   id="svg3738"
   version="1.1"
   inkscape:version="0.48.4 r9939"
   sodipodi:docname="New document 7">
  <defs
     id="defs3740">
    <clipPath
       clipPathUnits="userSpaceOnUse"
       id="clipPath3308">
      <path
         inkscape:connector-curvature="0"
         d="m 0,0 595.276,0 0,841.89 L 0,841.89 0,0 z"
         id="path3310" />
    </clipPath>
    <clipPath
       clipPathUnits="userSpaceOnUse"
       id="clipPath3216">
      <path
         inkscape:connector-curvature="0"
         d="m 0,0 595.276,0 0,841.89 L 0,841.89 0,0 z"
         id="path3218" />
    </clipPath>
  </defs>
  <sodipodi:namedview
     id="base"
     pagecolor="#ffffff"
     bordercolor="#666666"
     borderopacity="1.0"
     inkscape:pageopacity="0.0"
     inkscape:pageshadow="2"
     inkscape:zoom="5.6"
     inkscape:cx="35.68183"
     inkscape:cy="38.690801"
     inkscape:document-units="px"
     inkscape:current-layer="layer1"
     showgrid="false"
     fit-margin-top="0"
     fit-margin-left="0"
     fit-margin-right="0"
     fit-margin-bottom="0"
     inkscape:window-width="800"
     inkscape:window-height="921"
     inkscape:window-x="0"
     inkscape:window-y="19"
     inkscape:window-maximized="0" />
  <metadata
     id="metadata3743">
    <rdf:RDF>
      <cc:Work
         rdf:about="">
        <dc:format>image/svg+xml</dc:format>
        <dc:type
           rdf:resource="http://purl.org/dc/dcmitype/StillImage" />
        <dc:title></dc:title>
      </cc:Work>
    </rdf:RDF>
  </metadata>
  <g
     inkscape:label="Layer 1"
     inkscape:groupmode="layer"
     id="layer1"
     transform="translate(-533.71539,-528.16347)">
    <g
       id="g3198"
       transform="matrix(1.25,0,0,-1.25,534.16351,529.08689)">
      <path
         d="m 0,0 0,-36.091 c 0,0 0.976,-24.387 26.094,-24.387 25.118,0 24.385,24.387 24.385,24.387 l 0,35.972 L 0,0 z"
         style="fill:#007ac1;fill-opacity:1;fill-rule:nonzero;stroke:none"
         id="path3200"
         inkscape:connector-curvature="0" />
    </g>
    <g
       id="g3202"
       transform="matrix(1.25,0,0,-1.25,566.90151,569.22739)">
      <path
         d="m 0,0 c 0,-0.084 0.009,-0.664 0.228,-0.811 0,0 0.458,-0.25 2.266,-0.957 1.807,-0.703 4.631,-2.347 5.545,-3.219 0.915,-0.872 1.331,-1.142 1.787,-1.081 0.457,0.064 1.207,0.537 1.329,0.958 0.25,0.851 0.042,1.057 -0.167,1.265 0,0 0.167,0.188 0.396,0.042 0,0 1.004,-0.801 -0.049,-2.244 0,0 1.704,-0.124 2.065,0.956 0.36,1.083 -0.041,1.567 -0.432,1.828 -0.387,0.263 -1.383,0.872 -1.342,1.717 0.04,0.793 -0.014,1.109 -0.471,1.109 -0.706,0 -0.692,-1.025 -0.054,-0.887 0,0 0.039,-0.415 -0.361,-0.471 -0.401,-0.055 -0.776,0.442 -0.692,0.999 0.083,0.552 0.498,1.12 1.137,1.135 0.636,0.012 1.161,-0.291 1.148,-1.025 l 0.013,-0.472 c 0,0 0.028,0.68 0.666,0.653 0.4,-0.018 0.582,-0.291 0.582,-0.291 0,0 0.442,0.484 1.344,-0.029 0.898,-0.511 1.516,-0.695 1.812,-0.472 0.526,0.403 0.475,1.763 -0.651,2.009 -0.887,0.193 -1.386,-0.193 -1.386,-0.193 0,0 0.558,0.988 1.47,0.856 0.678,-0.095 2.104,-0.772 1.358,-2.699 0,0 0.732,0.372 0.689,1.33 -0.03,0.747 -0.468,1.343 -1.868,1.718 0,0 2.756,0.817 2.811,-1.913 0,0 -0.061,-2.345 -2.262,-2.222 -2.123,0.121 -1.993,0.893 -2.659,0.686 -0.529,-0.163 -0.076,-0.886 -0.062,-1.399 0,0 0.582,0.748 1.702,0.611 0,0 0.746,-0.14 1.025,-0.389 0,0 1.646,0.208 1.523,-2.216 -0.083,-1.622 -1.247,-2.216 -2.369,-2.175 -0.568,0.022 -1.579,0.623 -1.562,1.469 0.012,0.844 0.483,1.342 0.954,1.342 0.469,0 0.442,-0.401 0.442,-0.401 0,0 -0.622,0.25 -0.442,-0.429 0.091,-0.352 0.608,-0.555 1.147,-0.153 0.542,0.404 0.473,1.982 -0.4,2.174 -0.872,0.195 -1.619,-0.11 -1.856,-1.176 -0.235,-1.067 -0.665,-1.911 -1.744,-2.576 -0.526,-0.325 -1.58,-0.458 -2.722,-0.147 0,0 1.038,-0.809 1.038,-3.551 0,0 0.725,-2.41 1.684,-2.307 0,0 0.249,-0.172 0.289,0.298 l -0.123,0.5 c 0.402,-0.07 0.748,-0.485 0.678,-1.15 -0.033,-0.319 -0.03,-0.469 0.042,-0.609 0.138,-0.277 0.361,-0.333 0.498,-0.319 0,0 -0.178,-0.499 -0.526,-0.471 -0.346,0.028 -0.471,-0.109 -0.429,-0.264 0.041,-0.151 0.109,-0.747 1.412,-0.967 0,0 -0.361,-0.401 -0.968,-0.236 -0.611,0.165 -0.444,-0.126 -0.389,-0.165 0.056,-0.045 0.747,-0.611 1.579,-0.431 0,0 0.152,-0.458 -1.246,-0.498 0,0 -0.608,0.167 -0.056,-0.373 0,0 0.403,-0.513 0.805,-0.458 0,0 -0.487,-0.804 -1.054,-0.305 0,0 -0.233,-0.887 0.526,-0.914 0.762,-0.029 0.886,0.125 0.886,0.125 0,0 -0.344,-0.886 -1.107,-0.763 -0.762,0.126 -0.777,0.832 -0.777,0.832 0,0 -0.094,-1.012 -0.386,-1.232 0,0 -0.125,-0.266 0.028,-0.305 0.15,-0.043 0.291,-0.124 0.291,-0.124 0,0 0.067,-1.566 -0.971,-1.844 -1.039,-0.277 -1.233,-0.15 -1.233,-0.15 0,0 0.247,0.48 0.333,0.608 0.028,0.044 -1.482,-0.777 -2.133,-0.111 0,0 1.996,1.176 1.967,1.689 l -0.139,0.082 c 0,0 1.248,0.957 1.234,1.566 0,0 0.248,1.206 -0.402,2.757 -0.651,1.55 -1.15,2.078 -1.497,2.133 0,0 -0.372,0.039 -0.333,-0.361 0.044,-0.4 0.057,-0.511 -0.166,-0.568 -0.219,-0.055 -0.554,-0.124 -0.414,-0.29 0.138,-0.166 1.192,-0.997 0.265,-2.118 0,0 0.067,0.856 -0.279,0.856 -0.346,0 -1.372,0.096 -1.358,1.025 0.016,0.929 0.832,0.776 1.04,1.261 0.207,0.483 -0.651,0.721 -1.024,1.122 -0.374,0.402 -1.634,1.69 -2.121,2.535 0,0 -0.914,-0.832 -1.092,-1.068 -0.18,-0.234 -0.597,-0.567 -0.278,-1.273 0.319,-0.705 1.011,-1.537 1.025,-1.913 0.02,-0.55 -0.076,-0.53 -0.056,-1.066 0,0 0.389,-0.485 1.205,-0.207 0,0 -0.262,-0.871 -1.467,-0.594 0,0 -0.222,0.096 -0.291,0.209 -0.068,0.107 -0.044,0.012 -0.044,0.012 0,0 0.167,-0.775 0.612,-0.803 0,0 -0.859,-0.361 -1.634,0.856 0,0 0.484,-1.008 0.72,-1.121 0.234,-0.109 -0.9,-0.427 -1.387,0.639 0,0 -0.153,0.513 -0.746,0.166 -0.595,-0.347 -2.326,-1.412 -2.368,-1.69 0,0 -0.279,-0.555 0.098,-1.093 0,0 -0.236,-0.097 -0.417,0.124 0,0 0.026,-0.261 0.167,-0.345 0,0 -0.513,-0.182 -0.749,0.124 0,0 -2.297,-1.982 -3.64,-1.33 0,0 1.329,1.206 1.382,1.4 0,0 -1.189,-0.166 -1.633,0.039 0,0 1.565,1.62 1.676,1.857 0.113,0.236 0.652,0.222 0.913,0.179 0.264,-0.041 0.568,-0.013 0.568,-0.013 0,0 3.393,2.023 3.599,2.368 0.212,0.345 0.252,0.816 -0.164,1.093 -0.415,0.276 -1.275,0.942 -1.33,1.164 0,0 -0.559,-0.27 -0.94,0.181 -0.456,0.54 -1.511,0.498 -1.552,0.027 -0.057,-0.651 0.263,-0.844 0.748,-0.721 0.329,0.086 0.428,0.264 0.428,0.264 0,0 0.096,-0.776 -0.47,-0.901 -0.567,-0.124 -1.412,0.11 -1.469,1.04 -0.054,0.927 0.694,1.315 1.636,1.219 0,0 -0.43,0.568 -0.306,1.065 0.124,0.498 0.442,0.859 1.094,0.859 0.445,0 0.609,-0.373 0.486,-0.72 0,0 -0.135,-0.199 -0.263,-0.194 -0.171,0.007 -0.25,0.178 -0.25,0.178 0,0 0.137,0.056 0.153,0.167 0.012,0.112 -0.499,0.057 -0.375,-0.358 0.126,-0.416 0.402,-0.708 1.08,-0.555 0,0 1.012,2.133 3.67,2.866 0,0 0.61,0.077 0.569,0.118 -0.625,0.625 -3.345,1.954 -3.56,1.781 -0.326,-0.264 -0.803,-0.403 -0.928,-0.445 0,0 0.775,-0.469 0.692,-1.177 -0.083,-0.705 -1.079,-1.315 -1.411,-0.859 0,0 0.189,0.14 0.241,0.307 0,0 -0.767,-0.445 -0.906,0.012 0,0 0.248,0.056 0.276,0.263 0.026,0.208 -0.028,1.068 -0.497,1.053 0,0 -0.181,0.111 -0.181,-0.221 0,-0.333 0.471,-1.733 -0.512,-1.704 0,0 -0.266,0.056 -0.277,0.265 0,0 0.345,0.028 0.291,0.332 -0.057,0.303 -0.181,1.467 -1.04,1.439 -0.859,-0.027 -1.066,0.581 -1.066,0.581 0,0 -0.581,0.263 -0.581,0.251 0,-0.173 -0.565,-0.786 0.126,-0.901 0,0 -0.071,-0.638 -0.541,-0.485 -0.237,0.076 -0.498,0.638 -0.025,1.566 0,0 -0.239,0.152 -0.377,0.152 -0.14,0 -1.149,-1.275 -0.123,-1.927 0,0 0.012,-0.261 -0.361,-0.207 -0.375,0.055 -0.713,0.811 -0.646,1.129 0,0 -0.123,-0.322 -0.133,-0.498 -0.012,-0.176 0.061,-0.292 0.061,-0.292 0,0 -0.557,-0.088 -0.584,0.423 -0.023,0.431 0.111,0.58 0.193,0.749 0.173,0.356 0.056,0.678 0.056,0.678 0,0 -0.682,-0.514 -0.719,-0.983 -0.035,-0.409 0.138,-0.694 0.29,-0.707 0,0 -0.072,-0.348 -0.485,-0.264 -0.416,0.084 -0.751,1.234 -0.071,1.815 0,0 -1.648,-0.18 -4.057,-2.465 -2.409,-2.285 -2.188,-2.09 -2.188,-2.09 0,0 -0.318,-0.349 0.181,-0.499 0,0 0.123,-0.291 -0.167,-0.402 -0.291,-0.111 -0.652,0.013 -0.652,0.013 0,0 -0.996,-1.661 -1.314,-2.049 l -0.153,-0.22 c 0,0 -0.208,0.331 -0.166,1.01 0,0 -1.357,-0.431 -1.869,-0.195 0,0 1.649,1.454 1.844,1.995 0.191,0.54 -0.072,0.428 0.067,0.651 l 0.235,-0.139 c 0,0 -0.098,0.819 0,0.956 0,0 0.763,-0.056 0.818,-0.028 0.055,0.028 3.845,3.401 4.016,3.615 0.187,0.235 0.026,0.872 0.165,1.039 0.27,0.319 0.637,0.22 0.846,0.22 0,0 2.062,-0.04 3.088,0.805 0,0 -2.714,2.27 -3.255,2.657 -0.542,0.39 -1.011,0.861 -1.591,0.861 -0.582,0 -1.981,-0.778 -2.398,-1.109 -0.415,-0.332 -1.037,-0.707 -1.037,-0.707 0,0 -0.307,-0.345 -0.07,-0.762 0,0 -0.29,-0.374 -0.846,0.084 0,0 -0.262,-0.181 -0.318,-0.525 -0.053,-0.349 -0.541,-1.038 -0.802,-1.191 -0.775,-0.457 -1.619,-0.291 -1.619,-0.291 0,0 1.118,1.161 1.313,1.549 0,0 -1.714,-0.192 -2.008,0.818 0,0 1.676,0.014 2.577,0.872 0,0 -0.112,0.484 0.167,0.679 0.277,0.194 0.302,0.276 0.58,0.29 0.276,0.016 1.038,0.277 1.636,0.693 0.594,0.415 1.3,0.79 1.925,0.778 0,0 0.967,0.772 1.106,1.024 0.139,0.248 0.596,0.236 0.747,0.124 0.153,-0.112 0.542,-0.428 0.79,-0.789 0.251,-0.359 2.59,-2.174 2.771,-2.189 0.179,-0.014 2.809,2.742 2.935,3.004 0,0 -0.788,0.665 -0.416,1.331 l 0.097,0.304 c 0,0 -1.564,-2.078 -2.23,-2.243 -0.651,-0.163 -1.799,-0.069 -1.703,1.536 0,0 0.402,-0.816 1.275,-0.733 0.873,0.083 1.311,0.8 1.311,0.8 L -6.79,2.96 c 0,0 -0.168,0.301 -0.241,0.301 -0.744,0 -0.966,0.268 -0.851,0.808 0,0 0.124,0.272 0.591,0.219 0,0 0.791,0.496 0.955,1.243 0.169,0.748 0.542,0.86 0.776,0.955 0,0 -0.013,0.735 0.167,0.971 0.181,0.236 0.282,0.519 0.282,0.519 -6.707,-0.499 -10.944,0.645 -11.464,1.039 -0.521,0.394 -0.354,0.642 -0.083,0.497 0.269,-0.146 2.203,-0.393 2.554,-0.393 0.353,0 0.75,-0.209 0.748,-0.188 -0.019,0.435 1.164,-0.084 1.162,-0.041 -0.019,0.435 1.13,-0.146 1.122,-0.104 -0.062,0.457 0.853,-0.02 0.853,0 0,0.477 0.832,0 0.832,0.021 0,0.383 0.984,0 0.974,0.04 -0.104,0.437 0.997,-0.02 0.997,-0.02 -0.082,0.436 0.88,-0.041 0.875,0 -0.084,0.457 0.854,0.041 0.851,0.063 -0.043,0.33 0.457,0.125 0.457,0.165 0,0.238 1.515,0.147 1.515,0.147 0,0 -0.935,0.354 -0.935,0.954 0,0.603 0.27,1.476 0.417,1.828 0,0 0,0.312 0.124,0.104 0.123,-0.207 0.197,-0.267 0.31,-0.456 0.25,-0.416 1.061,-0.395 1.165,-1.37 0,0 0.477,0.311 0.956,0.081 0.476,-0.228 0.642,-0.561 0.642,-0.561 0,0 0.251,0.748 0.747,0.748 0.433,0 0.978,-0.207 1.164,-0.123 0.189,0.084 0.708,0.436 0.833,0.559 0.123,0.125 0.207,-0.623 -0.024,-1.142 0,0 -0.518,-0.789 -1.224,-1.017 0,0 0.956,0.269 1.185,-0.105 0.229,-0.373 0.517,-0.79 0.789,-0.623 0.271,0.166 0.498,0.395 0.498,0.395 0,0 0.216,-0.394 0,-0.727 C 2.556,7.166 1.954,6.937 1.557,7.354 1.163,7.768 0.915,8.185 0.666,8.058 c 0,0 0.251,-0.364 0.164,-0.663 L 0.764,7.061 C 0.92,6.787 1.376,6.081 1.767,6.334 c 0.478,0.312 0.893,0.665 1.41,0.665 0,0 0.915,0.187 1.351,-1.453 0,0 0.084,-0.147 0.23,-0.021 0,0 -0.312,-0.561 -0.852,0.04 C 3.365,6.168 3.054,6.211 2.741,5.981 2.431,5.753 2.118,4.985 1.681,5.006 1.248,5.026 0.936,5.068 0.686,5.65 0.525,6.024 0.421,6.324 0.4,6.505 0.298,6.216 0.23,5.891 0.312,5.629 0.416,5.295 0.469,5.182 0.51,4.985 c 0,0 0.273,-0.948 1.034,-0.673 0.761,0.279 0.805,0.582 1.525,0.569 0.718,-0.014 2.021,-1.053 1.135,-2.065 0,0 -0.383,0.956 -0.984,1.026 C 2.625,3.912 2.525,3.783 1.89,3.288 1.572,3.038 1.425,3.096 1.182,3.163 0.84,3.261 0.23,4.11 0.161,4.088 0.141,4.081 0.177,4.049 0.188,4.029 0.406,3.611 0.625,3.327 0.443,3.103 c 0,0 0.021,-0.646 0.603,-0.743 C 1.628,2.264 1.96,2.332 2.154,2.457 2.349,2.582 2.653,2.802 3.012,2.762 3.373,2.721 4.204,2.168 3.763,1.113 3.763,1.113 3.531,1.7 3.23,1.932 2.944,2.152 2.563,2.14 2.42,1.889 c 0,0 -0.127,-0.4 -0.693,-0.372 C 1.156,1.542 0.606,1.957 0.423,2.194 0.285,2.374 0.161,2.214 0.161,2.214 0.214,2.103 0.24,1.982 0.146,1.807 c 0,0 0.184,-0.338 0.605,-0.499 0.403,-0.157 0.835,-0.049 1.307,-0.187 0.47,-0.14 1.425,-1.157 0.718,-2.057 0,0 -0.1,0.785 -0.668,1.194 C 1.621,0.613 0.936,0.871 0.51,0.943 0.126,1.008 -0.096,0.888 -0.096,0.888 -0.063,0.794 -0.063,0.659 -0.04,0.539 c 0,0 0.754,0.131 1.222,-0.104 0.409,-0.202 0.906,-0.79 1.021,-1.506 0,0 -0.466,0.393 -0.659,0.551 C 1.196,-0.237 0.849,-0.09 0.601,-0.05 0.4,-0.016 0,0.006 0,0"
         style="fill:#d1d3d4;fill-opacity:1;fill-rule:nonzero;stroke:none"
         id="path3204"
         inkscape:connector-curvature="0" />
    </g>
    <g
       id="g3206"
       transform="matrix(1.25,0,0,-1.25,566.90151,569.22739)">
      <path
         d="m 0,0 c 0,-0.084 0.009,-0.664 0.228,-0.811 0,0 0.458,-0.25 2.266,-0.957 1.807,-0.703 4.631,-2.347 5.545,-3.219 0.915,-0.872 1.331,-1.142 1.787,-1.081 0.457,0.064 1.207,0.537 1.329,0.958 0.25,0.851 0.042,1.057 -0.167,1.265 0,0 0.167,0.188 0.396,0.042 0,0 1.004,-0.801 -0.049,-2.244 0,0 1.704,-0.124 2.065,0.956 0.36,1.083 -0.041,1.567 -0.432,1.828 -0.387,0.263 -1.383,0.872 -1.342,1.717 0.04,0.793 -0.014,1.109 -0.471,1.109 -0.706,0 -0.692,-1.025 -0.054,-0.887 0,0 0.039,-0.415 -0.361,-0.471 -0.401,-0.055 -0.776,0.442 -0.692,0.999 0.083,0.552 0.498,1.12 1.137,1.135 0.636,0.012 1.161,-0.291 1.148,-1.025 l 0.013,-0.472 c 0,0 0.028,0.68 0.666,0.653 0.4,-0.018 0.582,-0.291 0.582,-0.291 0,0 0.442,0.484 1.344,-0.029 0.898,-0.511 1.516,-0.695 1.812,-0.472 0.526,0.403 0.475,1.763 -0.651,2.009 -0.887,0.193 -1.386,-0.193 -1.386,-0.193 0,0 0.558,0.988 1.47,0.856 0.678,-0.095 2.104,-0.772 1.358,-2.699 0,0 0.732,0.372 0.689,1.33 -0.03,0.747 -0.468,1.343 -1.868,1.718 0,0 2.756,0.817 2.811,-1.913 0,0 -0.061,-2.345 -2.262,-2.222 -2.123,0.121 -1.993,0.893 -2.659,0.686 -0.529,-0.163 -0.076,-0.886 -0.062,-1.399 0,0 0.582,0.748 1.702,0.611 0,0 0.746,-0.14 1.025,-0.389 0,0 1.646,0.208 1.523,-2.216 -0.083,-1.622 -1.247,-2.216 -2.369,-2.175 -0.568,0.022 -1.579,0.623 -1.562,1.469 0.012,0.844 0.483,1.342 0.954,1.342 0.469,0 0.442,-0.401 0.442,-0.401 0,0 -0.622,0.25 -0.442,-0.429 0.091,-0.352 0.608,-0.555 1.147,-0.153 0.542,0.404 0.473,1.982 -0.4,2.174 -0.872,0.195 -1.619,-0.11 -1.856,-1.176 -0.235,-1.067 -0.665,-1.911 -1.744,-2.576 -0.526,-0.325 -1.58,-0.458 -2.722,-0.147 0,0 1.038,-0.809 1.038,-3.551 0,0 0.725,-2.41 1.684,-2.307 0,0 0.249,-0.172 0.289,0.298 l -0.123,0.5 c 0.402,-0.07 0.748,-0.485 0.678,-1.15 -0.033,-0.319 -0.03,-0.469 0.042,-0.609 0.138,-0.277 0.361,-0.333 0.498,-0.319 0,0 -0.178,-0.499 -0.526,-0.471 -0.346,0.028 -0.471,-0.109 -0.429,-0.264 0.041,-0.151 0.109,-0.747 1.412,-0.967 0,0 -0.361,-0.401 -0.968,-0.236 -0.611,0.165 -0.444,-0.126 -0.389,-0.165 0.056,-0.045 0.747,-0.611 1.579,-0.431 0,0 0.152,-0.458 -1.246,-0.498 0,0 -0.608,0.167 -0.056,-0.373 0,0 0.403,-0.513 0.805,-0.458 0,0 -0.487,-0.804 -1.054,-0.305 0,0 -0.233,-0.887 0.526,-0.914 0.762,-0.029 0.886,0.125 0.886,0.125 0,0 -0.344,-0.886 -1.107,-0.763 -0.762,0.126 -0.777,0.832 -0.777,0.832 0,0 -0.094,-1.012 -0.386,-1.232 0,0 -0.125,-0.266 0.028,-0.305 0.15,-0.043 0.291,-0.124 0.291,-0.124 0,0 0.067,-1.566 -0.971,-1.844 -1.039,-0.277 -1.233,-0.15 -1.233,-0.15 0,0 0.247,0.48 0.333,0.608 0.028,0.044 -1.482,-0.777 -2.133,-0.111 0,0 1.996,1.176 1.967,1.689 l -0.139,0.082 c 0,0 1.248,0.957 1.234,1.566 0,0 0.248,1.206 -0.402,2.757 -0.651,1.55 -1.15,2.078 -1.497,2.133 0,0 -0.372,0.039 -0.333,-0.361 0.044,-0.4 0.057,-0.511 -0.166,-0.568 -0.219,-0.055 -0.554,-0.124 -0.414,-0.29 0.138,-0.166 1.192,-0.997 0.265,-2.118 0,0 0.067,0.856 -0.279,0.856 -0.346,0 -1.372,0.096 -1.358,1.025 0.016,0.929 0.832,0.776 1.04,1.261 0.207,0.483 -0.651,0.721 -1.024,1.122 -0.374,0.402 -1.634,1.69 -2.121,2.535 0,0 -0.914,-0.832 -1.092,-1.068 -0.18,-0.234 -0.597,-0.567 -0.278,-1.273 0.319,-0.705 1.011,-1.537 1.025,-1.913 0.02,-0.55 -0.076,-0.53 -0.056,-1.066 0,0 0.389,-0.485 1.205,-0.207 0,0 -0.262,-0.871 -1.467,-0.594 0,0 -0.222,0.096 -0.291,0.209 -0.068,0.107 -0.044,0.012 -0.044,0.012 0,0 0.167,-0.775 0.612,-0.803 0,0 -0.859,-0.361 -1.634,0.856 0,0 0.484,-1.008 0.72,-1.121 0.234,-0.109 -0.9,-0.427 -1.387,0.639 0,0 -0.153,0.513 -0.746,0.166 -0.595,-0.347 -2.326,-1.412 -2.368,-1.69 0,0 -0.279,-0.555 0.098,-1.093 0,0 -0.236,-0.097 -0.417,0.124 0,0 0.026,-0.261 0.167,-0.345 0,0 -0.513,-0.182 -0.749,0.124 0,0 -2.297,-1.982 -3.64,-1.33 0,0 1.329,1.206 1.382,1.4 0,0 -1.189,-0.166 -1.633,0.039 0,0 1.565,1.62 1.676,1.857 0.113,0.236 0.652,0.222 0.913,0.179 0.264,-0.041 0.568,-0.013 0.568,-0.013 0,0 3.393,2.023 3.599,2.368 0.212,0.345 0.252,0.816 -0.164,1.093 -0.415,0.276 -1.275,0.942 -1.33,1.164 0,0 -0.559,-0.27 -0.94,0.181 -0.456,0.54 -1.511,0.498 -1.552,0.027 -0.057,-0.651 0.263,-0.844 0.748,-0.721 0.329,0.086 0.428,0.264 0.428,0.264 0,0 0.096,-0.776 -0.47,-0.901 -0.567,-0.124 -1.412,0.11 -1.469,1.04 -0.054,0.927 0.694,1.315 1.636,1.219 0,0 -0.43,0.568 -0.306,1.065 0.124,0.498 0.442,0.859 1.094,0.859 0.445,0 0.609,-0.373 0.486,-0.72 0,0 -0.135,-0.199 -0.263,-0.194 -0.171,0.007 -0.25,0.178 -0.25,0.178 0,0 0.137,0.056 0.153,0.167 0.012,0.112 -0.499,0.057 -0.375,-0.358 0.126,-0.416 0.402,-0.708 1.08,-0.555 0,0 1.012,2.133 3.67,2.866 0,0 0.61,0.077 0.569,0.118 -0.625,0.625 -3.345,1.954 -3.56,1.781 -0.326,-0.264 -0.803,-0.403 -0.928,-0.445 0,0 0.775,-0.469 0.692,-1.177 -0.083,-0.705 -1.079,-1.315 -1.411,-0.859 0,0 0.189,0.14 0.241,0.307 0,0 -0.767,-0.445 -0.906,0.012 0,0 0.248,0.056 0.276,0.263 0.026,0.208 -0.028,1.068 -0.497,1.053 0,0 -0.181,0.111 -0.181,-0.221 0,-0.333 0.471,-1.733 -0.512,-1.704 0,0 -0.266,0.056 -0.277,0.265 0,0 0.345,0.028 0.291,0.332 -0.057,0.303 -0.181,1.467 -1.04,1.439 -0.859,-0.027 -1.066,0.581 -1.066,0.581 0,0 -0.581,0.263 -0.581,0.251 0,-0.173 -0.565,-0.786 0.126,-0.901 0,0 -0.071,-0.638 -0.541,-0.485 -0.237,0.076 -0.498,0.638 -0.025,1.566 0,0 -0.239,0.152 -0.377,0.152 -0.14,0 -1.149,-1.275 -0.123,-1.927 0,0 0.012,-0.261 -0.361,-0.207 -0.375,0.055 -0.713,0.811 -0.646,1.129 0,0 -0.123,-0.322 -0.133,-0.498 -0.012,-0.176 0.061,-0.292 0.061,-0.292 0,0 -0.557,-0.088 -0.584,0.423 -0.023,0.431 0.111,0.58 0.193,0.749 0.173,0.356 0.056,0.678 0.056,0.678 0,0 -0.682,-0.514 -0.719,-0.983 -0.035,-0.409 0.138,-0.694 0.29,-0.707 0,0 -0.072,-0.348 -0.485,-0.264 -0.416,0.084 -0.751,1.234 -0.071,1.815 0,0 -1.648,-0.18 -4.057,-2.465 -2.409,-2.285 -2.188,-2.09 -2.188,-2.09 0,0 -0.318,-0.349 0.181,-0.499 0,0 0.123,-0.291 -0.167,-0.402 -0.291,-0.111 -0.652,0.013 -0.652,0.013 0,0 -0.996,-1.661 -1.314,-2.049 l -0.153,-0.22 c 0,0 -0.208,0.331 -0.166,1.01 0,0 -1.357,-0.431 -1.869,-0.195 0,0 1.649,1.454 1.844,1.995 0.191,0.54 -0.072,0.428 0.067,0.651 l 0.235,-0.139 c 0,0 -0.098,0.819 0,0.956 0,0 0.763,-0.056 0.818,-0.028 0.055,0.028 3.845,3.401 4.016,3.615 0.187,0.235 0.026,0.872 0.165,1.039 0.27,0.319 0.637,0.22 0.846,0.22 0,0 2.062,-0.04 3.088,0.805 0,0 -2.714,2.27 -3.255,2.657 -0.542,0.39 -1.011,0.861 -1.591,0.861 -0.582,0 -1.981,-0.778 -2.398,-1.109 -0.415,-0.332 -1.037,-0.707 -1.037,-0.707 0,0 -0.307,-0.345 -0.07,-0.762 0,0 -0.29,-0.374 -0.846,0.084 0,0 -0.262,-0.181 -0.318,-0.525 -0.053,-0.349 -0.541,-1.038 -0.802,-1.191 -0.775,-0.457 -1.619,-0.291 -1.619,-0.291 0,0 1.118,1.161 1.313,1.549 0,0 -1.714,-0.192 -2.008,0.818 0,0 1.676,0.014 2.577,0.872 0,0 -0.112,0.484 0.167,0.679 0.277,0.194 0.302,0.276 0.58,0.29 0.276,0.016 1.038,0.277 1.636,0.693 0.594,0.415 1.3,0.79 1.925,0.778 0,0 0.967,0.772 1.106,1.024 0.139,0.248 0.596,0.236 0.747,0.124 0.153,-0.112 0.542,-0.428 0.79,-0.789 0.251,-0.359 2.59,-2.174 2.771,-2.189 0.179,-0.014 2.809,2.742 2.935,3.004 0,0 -0.788,0.665 -0.416,1.331 l 0.097,0.304 c 0,0 -1.564,-2.078 -2.23,-2.243 -0.651,-0.163 -1.799,-0.069 -1.703,1.536 0,0 0.402,-0.816 1.275,-0.733 0.873,0.083 1.311,0.8 1.311,0.8 L -6.79,2.96 c 0,0 -0.168,0.301 -0.241,0.301 -0.744,0 -0.966,0.268 -0.851,0.808 0,0 0.124,0.272 0.591,0.219 0,0 0.791,0.496 0.955,1.243 0.169,0.748 0.542,0.86 0.776,0.955 0,0 -0.013,0.735 0.167,0.971 0.181,0.236 0.282,0.519 0.282,0.519 -6.707,-0.499 -10.944,0.645 -11.464,1.039 -0.521,0.394 -0.354,0.642 -0.083,0.497 0.269,-0.146 2.203,-0.393 2.554,-0.393 0.353,0 0.75,-0.209 0.748,-0.188 -0.019,0.435 1.164,-0.084 1.162,-0.041 -0.019,0.435 1.13,-0.146 1.122,-0.104 -0.062,0.457 0.853,-0.02 0.853,0 0,0.477 0.832,0 0.832,0.021 0,0.383 0.984,0 0.974,0.04 -0.104,0.437 0.997,-0.02 0.997,-0.02 -0.082,0.436 0.88,-0.041 0.875,0 -0.084,0.457 0.854,0.041 0.851,0.063 -0.043,0.33 0.457,0.125 0.457,0.165 0,0.238 1.515,0.147 1.515,0.147 0,0 -0.935,0.354 -0.935,0.954 0,0.603 0.27,1.476 0.417,1.828 0,0 0,0.312 0.124,0.104 0.123,-0.207 0.197,-0.267 0.31,-0.456 0.25,-0.416 1.061,-0.395 1.165,-1.37 0,0 0.477,0.311 0.956,0.081 0.476,-0.228 0.642,-0.561 0.642,-0.561 0,0 0.251,0.748 0.747,0.748 0.433,0 0.978,-0.207 1.164,-0.123 0.189,0.084 0.708,0.436 0.833,0.559 0.123,0.125 0.207,-0.623 -0.024,-1.142 0,0 -0.518,-0.789 -1.224,-1.017 0,0 0.956,0.269 1.185,-0.105 0.229,-0.373 0.517,-0.79 0.789,-0.623 0.271,0.166 0.498,0.395 0.498,0.395 0,0 0.216,-0.394 0,-0.727 C 2.556,7.166 1.954,6.937 1.557,7.354 1.163,7.768 0.915,8.185 0.666,8.058 c 0,0 0.251,-0.364 0.164,-0.663 L 0.764,7.061 C 0.92,6.787 1.376,6.081 1.767,6.334 c 0.478,0.312 0.893,0.665 1.41,0.665 0,0 0.915,0.187 1.351,-1.453 0,0 0.084,-0.147 0.23,-0.021 0,0 -0.312,-0.561 -0.852,0.04 C 3.365,6.168 3.054,6.211 2.741,5.981 2.431,5.753 2.118,4.985 1.681,5.006 1.248,5.026 0.936,5.068 0.686,5.65 0.525,6.024 0.421,6.324 0.4,6.505 0.298,6.216 0.23,5.891 0.312,5.629 0.416,5.295 0.469,5.182 0.51,4.985 c 0,0 0.273,-0.948 1.034,-0.673 0.761,0.279 0.805,0.582 1.525,0.569 0.718,-0.014 2.021,-1.053 1.135,-2.065 0,0 -0.383,0.956 -0.984,1.026 C 2.625,3.912 2.525,3.783 1.89,3.288 1.572,3.038 1.425,3.096 1.182,3.163 0.84,3.261 0.23,4.11 0.161,4.088 0.141,4.081 0.177,4.049 0.188,4.029 0.406,3.611 0.625,3.327 0.443,3.103 c 0,0 0.021,-0.646 0.603,-0.743 C 1.628,2.264 1.96,2.332 2.154,2.457 2.349,2.582 2.653,2.802 3.012,2.762 3.373,2.721 4.204,2.168 3.763,1.113 3.763,1.113 3.531,1.7 3.23,1.932 2.944,2.152 2.563,2.14 2.42,1.889 c 0,0 -0.127,-0.4 -0.693,-0.372 C 1.156,1.542 0.606,1.957 0.423,2.194 0.285,2.374 0.161,2.214 0.161,2.214 0.214,2.103 0.24,1.982 0.146,1.807 c 0,0 0.184,-0.338 0.605,-0.499 0.403,-0.157 0.835,-0.049 1.307,-0.187 0.47,-0.14 1.425,-1.157 0.718,-2.057 0,0 -0.1,0.785 -0.668,1.194 C 1.621,0.613 0.936,0.871 0.51,0.943 0.126,1.008 -0.096,0.888 -0.096,0.888 -0.063,0.794 -0.063,0.659 -0.04,0.539 c 0,0 0.754,0.131 1.222,-0.104 0.409,-0.202 0.906,-0.79 1.021,-1.506 0,0 -0.466,0.393 -0.659,0.551 C 1.196,-0.237 0.849,-0.09 0.601,-0.05 0.4,-0.016 0,0.006 0,0 z"
         style="fill:none;stroke:#000000;stroke-width:0.17900001;stroke-linecap:round;stroke-linejoin:round;stroke-miterlimit:4;stroke-opacity:1;stroke-dasharray:none"
         id="path3208"
         inkscape:connector-curvature="0" />
    </g>
    <path
       inkscape:connector-curvature="0"
       d="m 597.30626,528.74464 -63.0475,0 0,21.40625 63.0475,0 0,-21.40625 z"
       style="fill:#d1d3d4;fill-opacity:1;fill-rule:nonzero;stroke:none"
       id="path3210" />
    <g
       transform="matrix(1.25,0,0,-1.25,-111.27623,1487.2821)"
       id="g3212">
      <g
         id="g3214"
         clip-path="url(#clipPath3216)">
        <g
           id="g3220"
           transform="translate(554.6118,746.6837)">
          <path
             inkscape:connector-curvature="0"
             d="M 0,0 C 0.126,-0.286 0.19,-0.599 0.295,-0.866 0.357,-1.094 0.88,-2.606 1.091,-3.144 1.143,-3.267 1.215,-3.516 1.298,-3.516 2.203,-3.543 4.669,-3.545 4.669,-3.545 4.765,-3.543 4.772,-3.624 4.75,-3.688 4.175,-4.194 2.365,-5.524 2.108,-5.737 2.047,-5.799 1.944,-5.841 1.988,-5.945 2.361,-6.898 2.637,-7.846 2.99,-8.792 3.042,-8.979 3.086,-9.115 3.157,-9.313 3.193,-9.456 3.132,-9.56 2.961,-9.457 2.189,-8.91 1.379,-8.36 0.609,-7.769 l -0.632,0.406 c -0.101,0.087 -0.514,-0.317 -0.775,-0.51 -0.276,-0.19 -2.136,-1.582 -2.305,-1.692 0,0 -0.195,-0.027 -0.124,0.151 0.011,0.027 0.038,0.101 0.038,0.101 0.349,1.144 1.038,3.274 1.06,3.393 0.02,0.099 -0.062,0.149 -0.062,0.149 -0.894,0.695 -1.883,1.299 -2.759,1.971 -0.159,0.11 -0.182,0.273 0.077,0.268 0,0 3.05,-0.003 3.51,0.024 0.193,0.542 0.858,2.61 1.031,3.13 C -0.228,0.11 -0.069,0.202 0,0"
             style="fill:#a8996e;fill-opacity:1;fill-rule:nonzero;stroke:none"
             id="path3222" />
        </g>
        <g
           id="g3224"
           transform="translate(554.6118,746.6837)">
          <path
             inkscape:connector-curvature="0"
             d="M 0,0 C 0.126,-0.286 0.19,-0.599 0.295,-0.866 0.357,-1.094 0.88,-2.606 1.091,-3.144 1.143,-3.267 1.215,-3.516 1.298,-3.516 2.203,-3.543 4.669,-3.545 4.669,-3.545 4.765,-3.543 4.772,-3.624 4.75,-3.688 4.175,-4.194 2.365,-5.524 2.108,-5.737 2.047,-5.799 1.944,-5.841 1.988,-5.945 2.361,-6.898 2.637,-7.846 2.99,-8.792 3.042,-8.979 3.086,-9.115 3.157,-9.313 3.193,-9.456 3.132,-9.56 2.961,-9.457 2.189,-8.91 1.379,-8.36 0.609,-7.769 l -0.632,0.406 c -0.101,0.087 -0.514,-0.317 -0.775,-0.51 -0.276,-0.19 -2.136,-1.582 -2.305,-1.692 0,0 -0.195,-0.027 -0.124,0.151 0.011,0.027 0.038,0.101 0.038,0.101 0.349,1.144 1.038,3.274 1.06,3.393 0.02,0.099 -0.062,0.149 -0.062,0.149 -0.894,0.695 -1.883,1.299 -2.759,1.971 -0.159,0.11 -0.182,0.273 0.077,0.268 0,0 3.05,-0.003 3.51,0.024 0.193,0.542 0.858,2.61 1.031,3.13 C -0.228,0.11 -0.069,0.202 0,0 z"
             style="fill:none;stroke:#000000;stroke-width:0.17900001;stroke-linecap:butt;stroke-linejoin:miter;stroke-miterlimit:4;stroke-opacity:1;stroke-dasharray:none"
             id="path3226" />
        </g>
      </g>
    </g>
    <path
       inkscape:connector-curvature="0"
       d="m 546.60126,550.17964 -4.2975,0 0,-4.2975 4.2975,0 0,4.2975 z"
       style="fill:#000000;fill-opacity:1;fill-rule:nonzero;stroke:none"
       id="path3228" />
    <path
       inkscape:connector-curvature="0"
       d="m 555.19001,550.17964 -4.2975,0 0,-4.2975 4.2975,0 0,4.2975 z"
       style="fill:#000000;fill-opacity:1;fill-rule:nonzero;stroke:none"
       id="path3230" />
    <path
       inkscape:connector-curvature="0"
       d="m 563.78376,550.17964 -4.29625,0 0,-4.2975 4.29625,0 0,4.2975 z"
       style="fill:#000000;fill-opacity:1;fill-rule:nonzero;stroke:none"
       id="path3232" />
    <path
       inkscape:connector-curvature="0"
       d="m 572.37626,550.17964 -4.295,0 0,-4.2975 4.295,0 0,4.2975 z"
       style="fill:#000000;fill-opacity:1;fill-rule:nonzero;stroke:none"
       id="path3234" />
    <path
       inkscape:connector-curvature="0"
       d="m 580.96876,550.17964 -4.2975,0 0,-4.2975 4.2975,0 0,4.2975 z"
       style="fill:#000000;fill-opacity:1;fill-rule:nonzero;stroke:none"
       id="path3236" />
    <path
       inkscape:connector-curvature="0"
       d="m 589.56251,550.17964 -4.3,0 0,-4.2975 4.3,0 0,4.2975 z"
       style="fill:#000000;fill-opacity:1;fill-rule:nonzero;stroke:none"
       id="path3238" />
    <path
       inkscape:connector-curvature="0"
       d="m 546.60126,541.58714 -4.2975,0 0,-4.2975 4.2975,0 0,4.2975 z"
       style="fill:#000000;fill-opacity:1;fill-rule:nonzero;stroke:none"
       id="path3240" />
    <path
       inkscape:connector-curvature="0"
       d="m 555.19001,541.58714 -4.2975,0 0,-4.2975 4.2975,0 0,4.2975 z"
       style="fill:#000000;fill-opacity:1;fill-rule:nonzero;stroke:none"
       id="path3242" />
    <path
       inkscape:connector-curvature="0"
       d="m 563.78376,541.58714 -4.29625,0 0,-4.2975 4.29625,0 0,4.2975 z"
       style="fill:#000000;fill-opacity:1;fill-rule:nonzero;stroke:none"
       id="path3244" />
    <path
       inkscape:connector-curvature="0"
       d="m 572.37626,541.58714 -4.295,0 0,-4.2975 4.295,0 0,4.2975 z"
       style="fill:#000000;fill-opacity:1;fill-rule:nonzero;stroke:none"
       id="path3246" />
    <path
       inkscape:connector-curvature="0"
       d="m 580.96876,541.58714 -4.2975,0 0,-4.2975 4.2975,0 0,4.2975 z"
       style="fill:#000000;fill-opacity:1;fill-rule:nonzero;stroke:none"
       id="path3248" />
    <path
       inkscape:connector-curvature="0"
       d="m 589.56251,541.58714 -4.3,0 0,-4.2975 4.3,0 0,4.2975 z"
       style="fill:#000000;fill-opacity:1;fill-rule:nonzero;stroke:none"
       id="path3250" />
    <path
       inkscape:connector-curvature="0"
       d="m 546.60126,532.96714 -4.2975,0 0,-4.29625 4.2975,0 0,4.29625 z"
       style="fill:#000000;fill-opacity:1;fill-rule:nonzero;stroke:none"
       id="path3252" />
    <path
       inkscape:connector-curvature="0"
       d="m 538.01376,550.17964 -3.88125,0 0,-4.2975 3.88125,0 0,4.2975 z"
       style="fill:#000000;fill-opacity:1;fill-rule:nonzero;stroke:none"
       id="path3254" />
    <path
       inkscape:connector-curvature="0"
       d="m 538.01376,541.58714 -3.88125,0 0,-4.2975 3.88125,0 0,4.2975 z"
       style="fill:#000000;fill-opacity:1;fill-rule:nonzero;stroke:none"
       id="path3256" />
    <path
       inkscape:connector-curvature="0"
       d="m 538.01376,532.96714 -3.88125,0 0,-4.29625 3.88125,0 0,4.29625 z"
       style="fill:#000000;fill-opacity:1;fill-rule:nonzero;stroke:none"
       id="path3258" />
    <path
       inkscape:connector-curvature="0"
       d="m 555.19001,532.96714 -4.2975,0 0,-4.29625 4.2975,0 0,4.29625 z"
       style="fill:#000000;fill-opacity:1;fill-rule:nonzero;stroke:none"
       id="path3260" />
    <path
       inkscape:connector-curvature="0"
       d="m 563.78376,532.96714 -4.29625,0 0,-4.29625 4.29625,0 0,4.29625 z"
       style="fill:#000000;fill-opacity:1;fill-rule:nonzero;stroke:none"
       id="path3262" />
    <path
       inkscape:connector-curvature="0"
       d="m 572.37626,532.96714 -4.295,0 0,-4.29625 4.295,0 0,4.29625 z"
       style="fill:#000000;fill-opacity:1;fill-rule:nonzero;stroke:none"
       id="path3264" />
    <path
       inkscape:connector-curvature="0"
       d="m 580.96876,532.96714 -4.2975,0 0,-4.29625 4.2975,0 0,4.29625 z"
       style="fill:#000000;fill-opacity:1;fill-rule:nonzero;stroke:none"
       id="path3266" />
    <path
       inkscape:connector-curvature="0"
       d="m 589.56251,532.96714 -4.3,0 0,-4.29625 4.3,0 0,4.29625 z"
       style="fill:#000000;fill-opacity:1;fill-rule:nonzero;stroke:none"
       id="path3268" />
    <path
       inkscape:connector-curvature="0"
       d="m 597.24626,550.17964 -3.39625,0 0,-4.2975 3.39625,0 0,4.2975 z"
       style="fill:#000000;fill-opacity:1;fill-rule:nonzero;stroke:none"
       id="path3270" />
    <path
       inkscape:connector-curvature="0"
       d="m 597.24626,541.58714 -3.39625,0 0,-4.2975 3.39625,0 0,4.2975 z"
       style="fill:#000000;fill-opacity:1;fill-rule:nonzero;stroke:none"
       id="path3272" />
    <path
       inkscape:connector-curvature="0"
       d="m 597.24626,532.96714 -3.39625,0 0,-4.29625 3.39625,0 0,4.29625 z"
       style="fill:#000000;fill-opacity:1;fill-rule:nonzero;stroke:none"
       id="path3274" />
    <path
       inkscape:connector-curvature="0"
       d="m 550.89376,537.29714 -4.295,0 0,-4.2975 4.295,0 0,4.2975 z"
       style="fill:#000000;fill-opacity:1;fill-rule:nonzero;stroke:none"
       id="path3276" />
    <path
       inkscape:connector-curvature="0"
       d="m 542.27376,537.29714 -4.29375,0 0,-4.2975 4.29375,0 0,4.2975 z"
       style="fill:#000000;fill-opacity:1;fill-rule:nonzero;stroke:none"
       id="path3278" />
    <path
       inkscape:connector-curvature="0"
       d="m 559.48751,537.29714 -4.2975,0 0,-4.2975 4.2975,0 0,4.2975 z"
       style="fill:#000000;fill-opacity:1;fill-rule:nonzero;stroke:none"
       id="path3280" />
    <path
       inkscape:connector-curvature="0"
       d="m 568.08126,537.29714 -4.29875,0 0,-4.2975 4.29875,0 0,4.2975 z"
       style="fill:#000000;fill-opacity:1;fill-rule:nonzero;stroke:none"
       id="path3282" />
    <path
       inkscape:connector-curvature="0"
       d="m 576.67126,537.29714 -4.295,0 0,-4.2975 4.295,0 0,4.2975 z"
       style="fill:#000000;fill-opacity:1;fill-rule:nonzero;stroke:none"
       id="path3284" />
    <path
       inkscape:connector-curvature="0"
       d="m 585.26376,537.29714 -4.295,0 0,-4.2975 4.295,0 0,4.2975 z"
       style="fill:#000000;fill-opacity:1;fill-rule:nonzero;stroke:none"
       id="path3286" />
    <path
       inkscape:connector-curvature="0"
       d="m 593.85501,537.29714 -4.29375,0 0,-4.2975 4.29375,0 0,4.2975 z"
       style="fill:#000000;fill-opacity:1;fill-rule:nonzero;stroke:none"
       id="path3288" />
    <path
       inkscape:connector-curvature="0"
       d="m 550.89376,545.89089 -4.295,0 0,-4.2975 4.295,0 0,4.2975 z"
       style="fill:#000000;fill-opacity:1;fill-rule:nonzero;stroke:none"
       id="path3290" />
    <path
       inkscape:connector-curvature="0"
       d="m 542.27376,545.89089 -4.29375,0 0,-4.2975 4.29375,0 0,4.2975 z"
       style="fill:#000000;fill-opacity:1;fill-rule:nonzero;stroke:none"
       id="path3292" />
    <path
       inkscape:connector-curvature="0"
       d="m 559.48751,545.89089 -4.2975,0 0,-4.2975 4.2975,0 0,4.2975 z"
       style="fill:#000000;fill-opacity:1;fill-rule:nonzero;stroke:none"
       id="path3294" />
    <path
       inkscape:connector-curvature="0"
       d="m 568.08126,545.89089 -4.29875,0 0,-4.2975 4.29875,0 0,4.2975 z"
       style="fill:#000000;fill-opacity:1;fill-rule:nonzero;stroke:none"
       id="path3296" />
    <path
       inkscape:connector-curvature="0"
       d="m 576.67126,545.89089 -4.295,0 0,-4.2975 4.295,0 0,4.2975 z"
       style="fill:#000000;fill-opacity:1;fill-rule:nonzero;stroke:none"
       id="path3298" />
    <path
       inkscape:connector-curvature="0"
       d="m 585.26376,545.89089 -4.295,0 0,-4.2975 4.295,0 0,4.2975 z"
       style="fill:#000000;fill-opacity:1;fill-rule:nonzero;stroke:none"
       id="path3300" />
    <path
       inkscape:connector-curvature="0"
       d="m 593.85501,545.89089 -4.29375,0 0,-4.2975 4.29375,0 0,4.2975 z"
       style="fill:#000000;fill-opacity:1;fill-rule:nonzero;stroke:none"
       id="path3302" />
    <g
       transform="matrix(1.25,0,0,-1.25,-111.27623,1487.2821)"
       id="g3304">
      <g
         id="g3306"
         clip-path="url(#clipPath3308)">
        <g
           id="g3312"
           transform="translate(556.1482,733.6473)">
          <path
             inkscape:connector-curvature="0"
             d="m 0,0 c 0,0 -0.554,-0.43 -0.401,-1.288 0,0 0.068,-0.306 0.083,-0.471 m 4.253,1.232 c 0,0 -0.376,-0.333 -1.234,-0.069 m 0.61,-1.509 c 0,0 1.038,-0.859 0.857,-1.968 0,0 -0.165,-1.558 -1.647,-1.579 -0.971,-0.013 -1.095,1.137 -1.095,1.137 m -22.876,1.218 c 0,0 1.815,0.775 1.925,1.136 0.11,0.36 0.166,1.467 0.166,1.467 m -2.423,0.235 c 0,0 -0.834,-1.273 0.013,-2.561 m 1.559,-2.374 c 0,0 -0.509,-0.592 -0.541,-1.029 m 2.527,0.411 c 0,0 0.914,-0.152 1.703,0.347 0.789,0.497 1.039,1.62 1.107,2.438 m 2.598,-2.605 c 0,0 0.623,0.375 1.287,0.334 0.664,-0.043 1.621,-0.209 2.203,-2.12 0.581,-1.912 1.072,-2.271 1.072,-2.271 m 5.056,-9.917 c 0,0 1.15,-0.206 1.787,0.056 m -0.68,-0.138 c 0,0 -0.373,-1.289 -0.803,-1.579 m -13.114,4.626 c 0,0 -0.18,-0.498 0.054,-0.845 0.239,-0.345 0.736,-1.109 0.998,-1.246 m -2.258,0.07 c 0,0 0.929,0.607 1.276,1.107 m -14.445,7.852 c 0,0 0.692,-0.736 1.356,-1.053 m -1.576,0.875 c 0,0 0.027,-1.747 -0.057,-2.135 m -0.844,11.176 c 0,0 0.429,-1.039 0.857,-1.233 m -1.426,-0.458 c 0,0 0.638,0.819 0.833,1.123 m 10.863,5.414 c 0,0 0.083,-0.083 0.331,0.167 0.251,0.25 0.687,0.727 0.897,0.749 0.205,0.02 0.56,0.02 0.56,0.02 0,0 -0.104,0.061 -0.294,-0.103 -0.187,-0.167 -0.29,-0.375 -0.29,-0.375 m 0.326,-1.69 c 0,0 0.317,-0.179 0.546,0.298 0.229,0.478 0.873,2.161 1.019,2.223 0.144,0.063 0.789,-0.102 1.039,0.042 0.249,0.146 1.058,0.852 1.058,1.578 m -3.095,0.622 0.52,0.356 c 0,0 0.103,1.037 0.749,1.37 0.643,0.332 0.788,0.042 1.33,0.019 0.539,-0.019 0.765,0.023 0.765,0.023 M -17.782,7.63 c 0,0 0.956,-0.562 1.996,0.413 m -0.893,-0.04 c 0,0 0.248,-0.167 0.623,0.292 0.375,0.456 0.375,0.787 0.375,0.787"
             style="fill:none;stroke:#000000;stroke-width:0.17900001;stroke-linecap:round;stroke-linejoin:round;stroke-miterlimit:4;stroke-opacity:1;stroke-dasharray:none"
             id="path3314" />
        </g>
        <g
           id="g3316"
           transform="translate(538.7161,742.1076)">
          <path
             inkscape:connector-curvature="0"
             d="M 0,0 C -0.021,-0.083 0.426,-0.624 0.821,-0.25 1.216,0.124 0.812,0.622 0.78,0.633 0.749,0.644 0.489,0.521 0.489,0.521 L 0.53,0.312 0.426,0.208 0.29,0.384 C 0.29,0.384 0.021,0.083 0,0"
             style="fill:#000000;fill-opacity:1;fill-rule:nonzero;stroke:none"
             id="path3318" />
        </g>
        <g
           id="g3320"
           transform="translate(543.3064,741.5048)">
          <path
             inkscape:connector-curvature="0"
             d="M 0,0 C 0,0 -0.307,-0.396 -0.364,-0.556 M -0.39,-1.64 c 0,0 0.125,-0.737 -0.031,-0.83 -0.155,-0.095 -0.376,-0.206 -0.183,-0.503 m 0.283,-0.985 c 0,0 -0.38,-0.227 -0.558,-0.321 -0.177,-0.093 0.021,-0.363 0.094,-0.415 0.073,-0.052 0.181,-0.153 0.181,-0.153 m -0.014,-0.407 c 0,0 -0.198,-0.29 -0.405,-0.385 -0.207,-0.095 0.165,-0.56 0.165,-0.56 m 0.054,-0.323 c 0,0 0.03,-0.425 0.04,-0.539 m -1.599,-11.872 c 0,0 0.334,-0.509 1.435,-0.365 m 0.185,0.817 c 0,0 -0.437,-0.698 0,-1.551 m -0.84,5.586 c 0,0 0.664,-0.282 0.538,-0.792 -0.094,-0.387 -0.367,-0.606 -0.414,-0.652 0,0 0.229,0.456 -0.063,0.684 -0.29,0.229 -0.332,0.489 -0.246,0.592 0.08,0.105 0.185,0.168 0.185,0.168 z m -7.719,1.075 c 0,0 0.502,0.128 0.984,0.139 0.482,0.011 1.136,0 1.53,-0.051"
             style="fill:none;stroke:#000000;stroke-width:0.17900001;stroke-linecap:round;stroke-linejoin:round;stroke-miterlimit:4;stroke-opacity:1;stroke-dasharray:none"
             id="path3322" />
        </g>
        <g
           id="g3324"
           transform="translate(516.3518,766.8664)">
          <path
             inkscape:connector-curvature="0"
             d="m 0,0 0,-36.401 c 0,0 0.976,-24.387 26.094,-24.387 25.118,0 24.385,24.387 24.385,24.387 l 0,36.471 L 0,0 z"
             style="fill:none;stroke:#000000;stroke-width:0.71700001;stroke-linecap:butt;stroke-linejoin:miter;stroke-miterlimit:4;stroke-opacity:1;stroke-dasharray:none"
             id="path3326" />
        </g>
      </g>
    </g>
    <g
       id="g3328"
       transform="matrix(1.25,0,0,-1.25,534.15801,550.14389)">
      <path
         inkscape:connector-curvature="0"
         d="M 0,0 50.521,0"
         style="fill:none;stroke:#000000;stroke-width:0.17900001;stroke-linecap:butt;stroke-linejoin:miter;stroke-miterlimit:4;stroke-opacity:1;stroke-dasharray:none"
         id="path3330" />
    </g>
  </g>
</svg>
