<svg xmlns="http://www.w3.org/2000/svg" width="166" height="192" style="shape-rendering:geometricPrecision;text-rendering:geometricPrecision;image-rendering:optimizeQuality;fill-rule:evenodd;clip-rule:evenodd"><path style="opacity:1" fill="#0d0908" d="M-.5-.5h166v120c-8.455 40.121-32.788 64.121-73 72h-21c-40.575-8.575-64.575-33.241-72-74V-.5z"/><path style="opacity:1" fill="#fdfdfd" d="M16.5 4.5a14114.797 14114.797 0 0 0 145 55c.167 10.672 0 21.338-.5 32-2.235-1.702-4.735-2.702-7.5-3a150.602 150.602 0 0 0-22-10 150.602 150.602 0 0 0-22-10c-3.251-2.457-6.918-4.124-11-5-3.251-2.457-6.918-4.124-11-5-.342-.838-1.008-1.172-2-1-2.588-2.125-5.588-3.458-9-4-.342-.838-1.008-1.172-2-1-2.588-2.125-5.588-3.458-9-4-.342-.838-1.008-1.172-2-1-4.654-3.048-9.654-5.215-15-6.5 1.941 2.454 4.275 4.287 7 5.5 2.07 3.072 4.736 5.406 8 7 2.07 3.072 4.736 5.406 8 7 2.07 3.072 4.736 5.406 8 7 .333 1 1 1.667 2 2 1.74 2.743 4.073 4.743 7 6 2.07 3.073 4.736 5.406 8 7 2.07 3.073 4.736 5.406 8 7 2.069 3.073 4.736 5.406 8 7 .333 1 1 1.667 2 2 1.739 2.743 4.073 4.743 7 6 2.069 3.073 4.736 5.406 8 7 2.069 3.073 4.736 5.406 8 7 2.069 3.073 4.736 5.406 8 7 2.069 3.073 4.736 5.406 8 7 .333 1 1 1.667 2 2 .912 1.238 1.079 2.572.5 4-3.45 8.601-8.283 16.267-14.5 23-1.189.929-2.522 1.262-4 1-2.601-4.271-5.934-7.937-10-11-.333-2.333-1.667-3.667-4-4-2.601-4.271-5.934-7.937-10-11-1-1.667-2.333-3-4-4-3.27-4.94-7.27-9.273-12-13-.333-1-1-1.667-2-2-3.27-4.94-7.27-9.273-12-13-.333-1-1-1.667-2-2-2.936-4.605-6.602-8.605-11-12-.333-2.333-1.667-3.667-4-4-2.6-4.27-5.934-7.937-10-11-1-1.667-2.333-3-4-4a177.664 177.664 0 0 0-15-17l-1 1c2.854 6.385 6.187 12.385 10 18a113.425 113.425 0 0 0 9 18 288.402 288.402 0 0 0 18 35 89.673 89.673 0 0 0 8 16 288.402 288.402 0 0 0 18 35c.493 2.319 1.492 4.319 3 6-.12 1.086-.787 1.753-2 2a109.56 109.56 0 0 1-30 1.5 498.168 498.168 0 0 0-8-17.5c.098-2.053-.569-3.72-2-5a402.875 402.875 0 0 0-17-43c.098-2.053-.569-3.72-2-5a326.683 326.683 0 0 0-15-38c.098-2.053-.569-3.72-2-5 .098-2.053-.569-3.72-2-5a237.265 237.265 0 0 0-13-33c.098-2.053-.569-3.72-2-5-3.522-8.625-4.856-17.625-4-27a61.25 61.25 0 0 1 13 1z"/><path style="opacity:1" fill="#301b17" d="M161.5 3.5a394.96 394.96 0 0 1 0 56 14114.797 14114.797 0 0 1-145-55c-.11-.617-.444-1.117-1-1.5a3557.14 3557.14 0 0 1 146 .5z"/><path style="opacity:1" fill="#d73023" d="M161.5 3.5v54A12515.428 12515.428 0 0 1 17.5 4c47.999-.5 95.999-.667 144-.5z"/><path style="opacity:1" fill="#d63023" d="M7.5 30.5c-.098 2.053.569 3.72 2 5a237.265 237.265 0 0 0 13 33c-.098 2.053.569 3.72 2 5-.098 2.053.569 3.72 2 5a326.661 326.661 0 0 0 15 38c-.098 2.053.569 3.72 2 5a402.875 402.875 0 0 0 17 43c-.098 2.053.569 3.72 2 5a97.692 97.692 0 0 0 6 16.5c-27.286-4.931-46.786-20.098-58.5-45.5a105.508 105.508 0 0 1-6-24c-.667-31-.667-62 0-93 .67 2.674 1.837 5.007 3.5 7z"/><path style="opacity:1" fill="#221c1a" d="M7.5 30.5c1.431 1.28 2.098 2.947 2 5-1.431-1.28-2.098-2.947-2-5z"/><path style="opacity:1" fill="#2e201c" d="M9.5 35.5a237.265 237.265 0 0 1 13 33 237.265 237.265 0 0 1-13-33z"/><path style="opacity:1" fill="#271e1b" d="M63.5 47.5c-2.854-.424-5.52-1.424-8-3-.963.47-.963 1.136 0 2-2.725-1.213-5.059-3.046-7-5.5 5.346 1.285 10.346 3.452 15 6.5z"/><path style="opacity:1" fill="#d53023" d="M63.5 47.5c.992-.172 1.658.162 2 1 2.588 2.125 5.588 3.458 9 4 .992-.172 1.658.162 2 1 2.588 2.125 5.588 3.458 9 4 .992-.172 1.658.162 2 1 3.251 2.457 6.918 4.124 11 5 3.251 2.457 6.918 4.124 11 5a91.363 91.363 0 0 0 22 10 91.363 91.363 0 0 0 22 10c2.108 1.56 4.441 2.892 7 4 1.801 13.512.968 26.846-2.5 40-.417 1.256-1.25 1.923-2.5 2-1-.333-1.667-1-2-2-2.069-3.073-4.736-5.406-8-7-2.069-3.073-4.736-5.406-8-7-2.069-3.073-4.736-5.406-8-7-2.069-3.073-4.736-5.406-8-7-1.739-2.743-4.073-4.743-7-6-1-.333-1.667-1-2-2-2.069-3.073-4.736-5.406-8-7-2.069-3.073-4.736-5.406-8-7-2.07-3.073-4.736-5.406-8-7-1.74-2.743-4.073-4.743-7-6-1-.333-1.667-1-2-2-2.07-3.073-4.736-5.406-8-7-2.07-3.072-4.736-5.406-8-7-2.07-3.072-4.736-5.406-8-7-.963-.864-.963-1.53 0-2 2.48 1.576 5.146 2.576 8 3z"/><path style="opacity:1" fill="#38241f" d="M55.5 46.5c3.264 1.594 5.93 3.928 8 7-3.264-1.594-5.93-3.928-8-7z"/><path style="opacity:1" fill="#2e211e" d="M65.5 48.5c3.412.542 6.412 1.875 9 4-3.412-.542-6.412-1.875-9-4z"/><path style="opacity:1" fill="#2d201d" d="M76.5 53.5c3.412.542 6.412 1.875 9 4-3.412-.542-6.412-1.875-9-4z"/><path style="opacity:1" fill="#38201b" d="M63.5 53.5c3.264 1.594 5.93 3.928 8 7-3.264-1.594-5.93-3.928-8-7z"/><path style="opacity:1" fill="#33231f" d="M52.5 71.5c-3.63-3.13-7.13-6.463-10.5-10a85.561 85.561 0 0 0 4.5 12c-3.813-5.615-7.146-11.615-10-18l1-1a177.664 177.664 0 0 1 15 17z"/><path style="opacity:1" fill="#2b1e1b" d="M87.5 58.5c4.082.876 7.749 2.543 11 5-4.082-.876-7.749-2.543-11-5z"/><path style="opacity:1" fill="#d23023" d="M52.5 71.5c1.667 1 3 2.333 4 4 2.6 4.27 5.934 7.937 10 11 1 1.667 2.333 3 4 4 2.936 4.605 6.602 8.605 11 12 1 .333 1.667 1 2 2 3.27 4.94 7.27 9.273 12 13 1 .333 1.667 1 2 2 3.27 4.94 7.27 9.273 12 13 1.667 1 3 2.333 4 4 2.601 4.271 5.934 7.937 10 11 1 1.667 2.333 3 4 4 2.601 4.271 5.934 7.937 10 11 .803.923.97 1.923.5 3-9.447 8.894-20.447 15.228-33 19a11.123 11.123 0 0 1-2.5-1c-1.508-1.681-2.507-3.681-3-6a288.402 288.402 0 0 0-18-35 89.673 89.673 0 0 1-8-16 288.402 288.402 0 0 0-18-35 113.425 113.425 0 0 1-9-18 85.561 85.561 0 0 1-4.5-12c3.37 3.537 6.87 6.87 10.5 10z"/><path style="opacity:1" fill="#35201b" d="M71.5 60.5c3.264 1.594 5.93 3.927 8 7-3.264-1.594-5.93-3.928-8-7z"/><path style="opacity:1" fill="#2b1e1b" d="M98.5 63.5c4.082.876 7.749 2.543 11 5-4.082-.876-7.749-2.543-11-5z"/><path style="opacity:1" fill="#2d221f" d="M22.5 68.5c1.431 1.28 2.098 2.947 2 5-1.431-1.28-2.098-2.947-2-5z"/><path style="opacity:1" fill="#34231f" d="M81.5 69.5c2.927 1.257 5.26 3.257 7 6-2.927-1.257-5.26-3.257-7-6z"/><path style="opacity:1" fill="#2f1e1b" d="M109.5 68.5a150.602 150.602 0 0 1 22 10 91.363 91.363 0 0 1-22-10z"/><path style="opacity:1" fill="#1d1816" d="M24.5 73.5c1.431 1.28 2.098 2.947 2 5-1.431-1.28-2.098-2.947-2-5z"/><path style="opacity:1" fill="#38231f" d="M88.5 75.5c3.264 1.594 5.93 3.927 8 7-3.264-1.594-5.93-3.927-8-7z"/><path style="opacity:1" fill="#342320" d="M56.5 75.5c4.066 3.063 7.4 6.73 10 11-4.066-3.063-7.4-6.73-10-11z"/><path style="opacity:1" fill="#2f1f1b" d="M131.5 78.5a150.602 150.602 0 0 1 22 10 91.363 91.363 0 0 1-22-10z"/><path style="opacity:1" fill="#37211c" d="M96.5 82.5c3.264 1.594 5.931 3.927 8 7-3.264-1.594-5.93-3.927-8-7z"/><path style="opacity:1" fill="#4f4d4b" d="M66.5 86.5c2.333.333 3.667 1.667 4 4-1.667-1-3-2.333-4-4z"/><path style="opacity:1" fill="#30221f" d="M55.5 91.5a288.402 288.402 0 0 1 18 35 288.402 288.402 0 0 1-18-35z"/><path style="opacity:1" fill="#38201b" d="M104.5 89.5c3.264 1.594 5.931 3.927 8 7-3.264-1.594-5.931-3.927-8-7z"/><path style="opacity:1" fill="#2e1f1b" d="M26.5 78.5a326.683 326.683 0 0 1 15 38 326.661 326.661 0 0 1-15-38z"/><path style="opacity:1" fill="#332421" d="M70.5 90.5c4.398 3.395 8.064 7.395 11 12-4.398-3.395-8.064-7.395-11-12z"/><path style="opacity:1" fill="#2d2320" d="M114.5 98.5c2.927 1.257 5.261 3.257 7 6-2.927-1.257-5.261-3.257-7-6z"/><path style="opacity:1" fill="#38241f" d="M121.5 104.5c3.264 1.594 5.931 3.927 8 7-3.264-1.594-5.931-3.927-8-7z"/><path style="opacity:1" fill="#37241f" d="M83.5 104.5c4.73 3.727 8.73 8.06 12 13-4.73-3.727-8.73-8.06-12-13z"/><path style="opacity:1" fill="#38231f" d="M129.5 111.5c3.264 1.594 5.931 3.927 8 7-3.264-1.594-5.931-3.927-8-7z"/><path style="opacity:1" fill="#1d1816" d="M41.5 116.5c1.431 1.28 2.098 2.947 2 5-1.431-1.28-2.098-2.947-2-5z"/><path style="opacity:1" fill="#fdfdfd" d="M-.5 117.5c7.425 40.759 31.425 65.425 72 74h-72v-74z"/><path style="opacity:1" fill="#37201b" d="M137.5 118.5c3.264 1.594 5.931 3.927 8 7-3.264-1.594-5.931-3.927-8-7z"/><path style="opacity:1" fill="#fdfdfd" d="M165.5 119.5v72h-73c40.212-7.879 64.545-31.879 73-72z"/><path style="opacity:1" fill="#36241f" d="M97.5 119.5c4.73 3.727 8.73 8.06 12 13-4.73-3.727-8.73-8.06-12-13z"/><path style="opacity:1" fill="#35201b" d="M145.5 125.5c3.264 1.594 5.931 3.927 8 7-3.264-1.594-5.931-3.927-8-7z"/><path style="opacity:1" fill="#301f1c" d="M43.5 121.5a402.875 402.875 0 0 1 17 43 402.875 402.875 0 0 1-17-43z"/><path style="opacity:1" fill="#322320" d="M113.5 136.5c4.066 3.063 7.399 6.729 10 11-4.066-3.063-7.399-6.729-10-11z"/><path style="opacity:1" fill="#30221f" d="M81.5 142.5a288.402 288.402 0 0 1 18 35 288.402 288.402 0 0 1-18-35z"/><path style="opacity:1" fill="#504e4c" d="M123.5 147.5c2.333.333 3.667 1.667 4 4-1.667-1-3-2.333-4-4z"/><path style="opacity:1" fill="#342320" d="M127.5 151.5c4.066 3.063 7.399 6.729 10 11-4.066-3.063-7.399-6.729-10-11z"/><path style="opacity:1" fill="#221c1a" d="M60.5 164.5c1.431 1.28 2.098 2.947 2 5-1.431-1.28-2.098-2.947-2-5z"/></svg>