<svg version="1.0" xmlns="http://www.w3.org/2000/svg" width="158.667" height="188" viewBox="0 0 119 141"><path d="M0 70.5v70.4h118.9l.1-70.4V0H0v70.5zM67.4 7.6c.9.3 1.6 1.3 1.6 2 0 1.2-.4 1.2-2.2.3-1.9-1-2.5-.8-4.4 1.6-2.5 3.1-3.5 8-2.7 12.9.5 3 .3 3.4-2.2 3.8l-2.7.6.4-7.5c.3-7.2.5-7.6 4.1-10.9C63 7 64.5 6.5 67.4 7.6zm7.4 5.6c.7.7 1.2 1.9 1.1 2.7 0 1.1-.2 1.2-.6.3-.5-1.4-4.1-1.6-6.2-.3-.8.5-1.6 3.7-2.1 8.2-.9 9.4-.5 10.5 2.7 7.9 2.8-2.2 7.6-2.9 5.5-.8-.7.7-1.2 1.6-1.2 2.2 0 .5.9-.1 2-1.4 1.1-1.3 2-2.6 2-3 0-1.1-6.3.2-8.7 1.8-2.4 1.5-3.2.2-1-1.5C69.9 27.9 79 27 79 28.2c0 .5-.9 2.6-2 4.8-1.6 3.1-2.8 4.1-6 5-2.2.6-4 1.3-4 1.7 0 .3.9.3 2 0 4.8-1.2 6.2 5.3 5.4 24-.6 14.5-.8 15.2-2.9 15.7-3.1.8-7.5 4.5-8.5 7.2-.6 1.5-1.8 2.4-3 2.4-2.9 0-6 1.8-8.7 4.9l-2.2 2.5-8.8-2.2C35.5 93 31.2 92 30.8 92c-.5 0-.8 1.4-.8 3.1 0 2.6-.2 2.9-1.4 2-1.2-1-1.5-.8-1.8 1.1-.2 1.5-1.1 2.4-2.7 2.6-2.1.3-2.3.1-1.8-2 1.1-4.3 5.7-11.7 7.7-12.3 1.7-.5 11.5.7 16.5 2.2 1.5.4 1.4 0-.7-1.6-3.3-2.6-3.6-5.8-1.3-14.4 1.7-6.7 7.1-16.7 9.4-17.4 4-1.2 6.3-2.4 5.7-3-.3-.4-1.2-.1-1.8.5-1.5 1.5-6.7 1.4-13.3-.2l-5-1.3 3.5-1 3.5-1.1-4.4-.1c-4.1-.1-4.3-.3-3.9-2.6.3-1.4.1-2.5-.3-2.5-2.2 0-.6-1.9 2.4-2.9 1.7-.6 5.4-3.4 8.1-6.1 3.7-3.7 5.9-5.2 8.8-5.6 3.1-.5 3.9-1.2 4.4-3.3 1.4-6.3 2.8-9.6 5.2-11.8 2.7-2.5 6.1-3 8-1.1zM35.4 73.4c2.8 1.3 5.6 2.5 6.1 2.7.6.2.8 1.9.5 3.6l-.5 3.3-6.9-3.4c-3.8-1.9-7.6-3.2-8.3-2.9-.8.3-2.1 1.9-2.9 3.5-.8 1.6-1.9 2.6-2.4 2.3-.6-.4-1 .3-1 1.5 0 1.3-1 2.4-2.6 3.1-4.8 1.8-4.5.5 2.5-10.8 3.7-6 7.4-6.7 15.5-2.9zm45.2 11.4c1.2.9 2.6 3.2 3.3 5.1 1.3 3.9 1.5 23 .2 24.9-.6 1-2.3 1-8.7-.3-14.7-3.1-20.5-7-20.7-14.1-.1-4.3 2-6.5 7.5-7.9 3.3-.8 4.3-1.6 5.1-4 .6-1.7 1.7-3.5 2.6-4.2 2.3-1.8 8.3-1.5 10.7.5zM19 89.5c0 1.8-1.6 2-2.4.2-.3-.6-.3-.2 0 1 .3 1.3.1 2.3-.4 2.3-1.4 0-2.2-3.8-.8-4.4 2.2-.9 3.6-.6 3.6.9zm98.7 4.7c-.3.8-.6.5-.6-.6-.1-1.1.2-1.7.5-1.3.3.3.4 1.2.1 1.9zM28 103.6c0 1.4-.3 1.4-1.6.3-1.3-1.1-1.4-.9-.8 1.7.6 2.8.6 2.8-.9.9-2.3-2.8-2.1-4 .8-4.3 1.7-.1 2.5.3 2.5 1.4zm-13.9 17.1c1.3 1.6 1.2 1.7-.3.4-1-.7-1.8-1.5-1.8-1.7 0-.8.8-.3 2.1 1.3zm92.9-1.3c0 .2-.8 1-1.7 1.7-1.6 1.3-1.7 1.2-.4-.4 1.3-1.6 2.1-2.1 2.1-1.3z"/><path d="m50.4 38.9-3.2 2.9 4.1.5c2.2.3 5.1.1 6.6-.5 1.4-.6 3.2-1 3.9-.9 2.1.3 1.3-.7-2.2-2.8-4.3-2.7-5.5-2.6-9.2.8zm5 1.2c-.3.5-1 .7-1.5.3-.5-.3-.7-1-.3-1.5.3-.5 1-.7 1.5-.3.5.3.7 1 .3 1.5z"/></svg>