<svg clip-rule="evenodd" fill-rule="evenodd" height="582.138" image-rendering="optimizeQuality" shape-rendering="geometricPrecision" text-rendering="geometricPrecision" viewBox="0 0 132.292 154.024" width="500" xmlns="http://www.w3.org/2000/svg"><g stroke="#000"><path d="M2.76 2.76h126.771v84.67c0 63.834-60.069 63.834-63.385 63.834-3.316 0-63.386 0-63.386-63.834V2.76z" fill="none" stroke-width="2.875"/><path d="M2.76 2.76h126.771v84.67c0 63.834-60.069 63.834-63.385 63.834-3.316 0-63.386 0-63.386-63.834V2.76z" fill="#fff" stroke-width=".724"/><g stroke-width=".724"><path d="M2.76 2.76h63.386v148.503c-3.316 0-63.386 0-63.386-63.834V2.76zM129.531 52.448V87.43c0 12.543-2.322 22.618-6.074 30.715C111.123 99.63 90.061 87.43 66.146 87.43V51.253l5.63 3.204.02-33.116 11.77 6.25-.067 33.18 11.636 6.516.067-33.645 11.636 6.516-.2 33.047 11.636 6.45.2-33.446 11.057 6.24z" fill="#da121a"/><path d="M8.835 118.144C5.082 110.047 2.76 99.972 2.76 87.43v-34.98l11.058-6.24.2 33.445 11.636-6.45-.2-33.046 11.636-6.516.067 33.645 11.636-6.516-.067-33.18 11.77-6.25.02 33.115 5.63-3.203V87.43c-23.915 0-44.978 12.2-57.311 30.715z" fill="#fff"/></g></g></svg>