<svg xmlns="http://www.w3.org/2000/svg" width="166" height="192" style="shape-rendering:geometricPrecision;text-rendering:geometricPrecision;image-rendering:optimizeQuality;fill-rule:evenodd;clip-rule:evenodd"><path style="opacity:1" fill="#110906" d="M-.5-.5h166v120c-8.557 40.557-33.223 64.557-74 72h-20c-40.573-8.573-64.573-33.239-72-74V-.5z"/><path style="opacity:1" fill="#d63023" d="M3.5 3.5h158c.167 38.335 0 76.668-.5 115-5.479 32.472-23.645 54.305-54.5 65.5-43.38 10.055-75.548-4.445-96.5-43.5a79.34 79.34 0 0 1-6-24c-.5-37.665-.667-75.332-.5-113z"/><path style="opacity:1" fill="#040101" d="M78.5 10.5c3.773-.237 7.44.263 11 1.5a39.561 39.561 0 0 1 7.5 7.5c11.243 3.586 20.577 9.92 28 19 11.619 16.634 16.785 35.134 15.5 55.5 1.301 19.173-2.866 37.007-12.5 53.5-8.039 11.016-18.872 17.516-32.5 19.5-4.19 6.755-10.19 9.089-18 7-3.497-1.411-6.164-3.744-8-7-12.94-2.213-23.44-8.379-31.5-18.5-10.018-16.912-14.518-35.245-13.5-55-1.406-25.968 7.26-47.802 26-65.5 5.22-4.027 11.054-6.86 17.5-8.5 3.083-3.59 6.583-6.59 10.5-9z"/><path style="opacity:1" fill="#d53023" d="M80.5 16.5c2.874.123 5.374 1.123 7.5 3a90.496 90.496 0 0 1 0 19c-3.936 2.814-7.603 2.48-11-1-.667-6-.667-12 0-18a30.139 30.139 0 0 1 3.5-3z"/><path style="opacity:1" fill="#da9c1e" d="M81.5 11.5c4.99.328 8.99 2.495 12 6.5a344.332 344.332 0 0 1-11-2.5c-3.2.019-6.033 1.019-8.5 3l-1.5-1c2.25-3.28 5.25-5.28 9-6z"/><path style="opacity:1" fill="#d4981f" d="M73.5 39.5c5.504 2.543 11.004 2.543 16.5 0 1.726 1.148 1.56 2.315-.5 3.5-4.667 3.333-9.333 3.333-14 0-1.323-.816-1.99-1.983-2-3.5z"/><path style="opacity:1" fill="#d73023" d="M70.5 41.5c7.8 6.628 15.634 6.628 23.5 0 11.601 9.188 18.601 21.188 21 36 2.359 14.48 1.693 28.812-2 43-3.006 10.327-9.006 18.327-18 24-3.444-3.472-7.61-5.472-12.5-6-4.683-.163-8.35 1.67-11 5.5-1 .667-2 .667-3 0-9.497-7.144-15.33-16.644-17.5-28.5-5.467-23.628-1.8-45.628 11-66a94.358 94.358 0 0 1 8.5-8z"/><path style="opacity:1" fill="#fdfdfd" d="M-.5 117.5c7.427 40.761 31.427 65.427 72 74h-72v-74zM165.5 119.5v72h-74c40.777-7.443 65.443-31.443 74-72z"/><path style="opacity:1" fill="#db9c1e" d="M78.5 140.5c5.763-1.052 10.43.615 14 5l-1.5 1c-5.667-4-11.333-4-17 0-1.257-.35-1.59-1.017-1-2a60.011 60.011 0 0 1 5.5-4z"/><path style="opacity:1" fill="#d63023" d="M78.5 145.5c3.507-.506 6.674.16 9.5 2a90.496 90.496 0 0 1 0 19c-4.018 2.939-7.685 2.605-11-1-.667-6-.667-12 0-18 .717-.544 1.217-1.211 1.5-2z"/><path style="opacity:1" fill="#db9c1e" d="M71.5 167.5c1.1-1.098 2.434-1.265 4-.5 4.707 4.65 9.374 4.65 14 0 1.333-.667 2.667-.667 4 0-7.135 8.466-14.468 8.633-22 .5z"/></svg>