<svg xmlns="http://www.w3.org/2000/svg" width="166" height="192" style="shape-rendering:geometricPrecision;text-rendering:geometricPrecision;image-rendering:optimizeQuality;fill-rule:evenodd;clip-rule:evenodd"><path style="opacity:1" fill="#fdfdfd" d="M164.5-.5h1v192h-76c40.881-6.712 65.714-30.378 74.5-71 .5-40.332.667-80.665.5-121z"/><path style="opacity:1" fill="#0b0d0b" d="M-.5-.5h165c.167 40.335 0 80.668-.5 121-8.786 40.622-33.619 64.288-74.5 71h-15c-42.68-7.346-67.68-32.346-75-75V-.5z"/><path style="opacity:1" fill="#fdfdfd" d="M41.5 3.5c.166 5.011 0 10.011-.5 15l-27 35c-9.622 17.04-10.955 34.707-4 53a1101.525 1101.525 0 0 0 25 37c2.863 7.244 3.03 14.577.5 22h6c.313 3.542-.02 6.875-1 10-21.295-13.906-33.462-33.573-36.5-59-.5-37.665-.667-75.332-.5-113h38z"/><path style="opacity:1" fill="#148432" d="M43.5 165.5a13.115 13.115 0 0 0 7-1c-1.966-5.849-2.466-11.849-1.5-18a870.992 870.992 0 0 0 27-42c7.342-23.958 2.675-45.291-14-64-7.14-6.963-13.306-14.63-18.5-23v-14h38v184c-13.25-.086-25.583-3.419-37-10a36.872 36.872 0 0 1-1-12z"/><path style="opacity:1" fill="#908c89" d="M83.5 3.5v183h5c-1.765.961-3.765 1.295-6 1a8464.6 8464.6 0 0 1 1-184z"/><path style="opacity:1" fill="#fdfdfd" d="M83.5 3.5h37a112.97 112.97 0 0 1-.5 15l-8 12c-12.451 11.23-21.118 24.896-26 41-2.52 14.892-.187 28.892 7 42a416.379 416.379 0 0 1 22 32c1.797 6.686 1.63 13.353-.5 20h6c.297 4.267-.036 8.434-1 12.5-9.706 5.176-20.04 8.01-31 8.5h-5V3.5z"/><path style="opacity:1" fill="#148432" d="M122.5 3.5h38c.465 40.368-.035 80.7-1.5 121-4.591 22.083-16.424 39.083-35.5 51a25.879 25.879 0 0 1-1-10 13.116 13.116 0 0 0 7-1c-4.058-11.125-2.225-21.125 5.5-30a179.895 179.895 0 0 0 20-30c6.22-18.617 4.22-36.284-6-53a616.784 616.784 0 0 1-26-33 112.97 112.97 0 0 1-.5-15z"/><path style="opacity:1" fill="#1b5125" d="M120.5 163.5c.332-47.17-.001-94.17-1-141 .283-.79.783-1.456 1.5-2a3411.7 3411.7 0 0 1-.5 143z"/><path style="opacity:1" fill="#148432" d="M119.5 22.5a4970.58 4970.58 0 0 1 1 141c-1.478.262-2.811-.071-4-1 1.88-7.982 1.046-15.649-2.5-23a232.996 232.996 0 0 1-23-34c-7.54-20.754-4.874-40.087 8-58 7.802-7.626 14.635-15.96 20.5-25z"/><path style="opacity:1" fill="#fefdfd" d="M122.5 21.5a1112.254 1112.254 0 0 1 24.5 30c11.901 19.98 12.568 40.314 2 61a416.379 416.379 0 0 0-22 32c-1.784 6.277-1.951 12.611-.5 19h-4v-142z"/><path style="opacity:1" fill="#151614" d="m41.5 3.5 2 14c5.194 8.37 11.36 16.037 18.5 23 16.675 18.709 21.342 40.042 14 64a870.992 870.992 0 0 1-27 42c-.966 6.151-.466 12.151 1.5 18a13.115 13.115 0 0 1-7 1 809.596 809.596 0 0 0-2 11c-.607-.124-.94-.457-1-1 .98-3.125 1.313-6.458 1-10h-6c2.53-7.423 2.363-14.756-.5-22a1101.525 1101.525 0 0 1-25-37c-6.955-18.293-5.622-35.96 4-53l27-35c.5-4.989.666-9.989.5-15z"/><path style="opacity:1" fill="#fefefd" d="M43.5 21.5a1099.755 1099.755 0 0 0 25.5 32c9.185 16.254 10.852 33.254 5 51l-27 42a56.723 56.723 0 0 0 .5 17h-4v-142z"/><path style="opacity:1" fill="#148432" d="M40.5 22.5c.999 46.83 1.332 93.83 1 141a8.43 8.43 0 0 1-4-.5c1.14-5.75 1.307-11.584.5-17.5l-2-4a628.963 628.963 0 0 1-24-35c-7.112-18.319-5.779-35.986 4-53a1060.183 1060.183 0 0 0 24.5-31z"/><path style="opacity:1" fill="#132715" d="M40.5 22.5c.06-.543.393-.876 1-1a2525.41 2525.41 0 0 1 0 142c.332-47.17-.001-94.17-1-141z"/><path style="opacity:1" fill="#fdfdfd" d="M-.5 116.5c7.32 42.654 32.32 67.654 75 75h-75v-75z"/></svg>