<svg xmlns="http://www.w3.org/2000/svg" width="166" height="192" style="shape-rendering:geometricPrecision;text-rendering:geometricPrecision;image-rendering:optimizeQuality;fill-rule:evenodd;clip-rule:evenodd"><path style="opacity:1" d="M-.5-.5h166v120c-3.61 21.383-13.61 39.216-30 53.5a179.617 179.617 0 0 1-15 10 157.946 157.946 0 0 1-25 8.5h-26c-39.436-9.436-62.77-34.103-70-74V-.5z"/><path style="opacity:1" fill="#cb0000" d="M71.5 19.5c-1.723-3.709-4.723-5.709-9-6-.166 9.672 0 19.34.5 29 .995-.566 1.828-1.233 2.5-2 2.792-.123 4.792-1.456 6-4-.172-.992.162-1.658 1-2 1.234-3.04 3.568-4.373 7-4v26c-1.788.285-3.455-.048-5-1-1.84-5.677-5.674-9.01-11.5-10-.5 9.327-.666 18.66-.5 28 1.291.237 2.291-.096 3-1 .342-.838 1.008-1.172 2-1 2.667-.667 4.333-2.333 5-5 1.234-3.04 3.568-4.373 7-4v26c-1.7.16-3.366-.007-5-.5-.553-1.878-1.553-3.378-3-4.5-1.723-3.709-4.723-5.709-9-6v28c2.053.098 3.72-.569 5-2 3.865-1.206 5.865-3.873 6-8 1.88-.841 3.88-1.175 6-1v26c-1.788.285-3.455-.048-5-1-.315-1.983-1.315-3.316-3-4-1.723-3.709-4.723-5.709-9-6v28c1.291.237 2.291-.096 3-1 2.792-.122 4.792-1.456 6-4-.172-.992.162-1.658 1-2 1.234-3.04 3.568-4.373 7-4v26c-1.788.285-3.455-.048-5-1-1.84-5.677-5.674-9.01-11.5-10a131.226 131.226 0 0 0 .5 28c.607-.124.94-.457 1-1a5.727 5.727 0 0 1 3-1c2.667-.667 4.333-2.333 5-5 .904-.709 1.237-1.709 1-3 1.88-.841 3.88-1.175 6-1v29c-32.874-2.19-56.374-18.19-70.5-48a82.143 82.143 0 0 1-5-19c-.5-38.999-.667-77.999-.5-117h76v21c-1.788.285-3.455-.048-5-1-.315-1.983-1.315-3.316-3-4z"/><path style="opacity:1" fill="#fe9800" d="M93.5 31.5c-2.662-1.768-5.662-2.435-9-2v29c2.888.51 5.221-.157 7-2 .825-2.31 2.158-4.31 4-6 .333 1 1 1.667 2 2 1.638 1.205 1.97 2.538 1 4-1.29 1.748-2.79 2.081-4.5 1 .793 2 .626 4-.5 6-2.662-1.768-5.662-2.435-9-2v28h9c1.333 2 1.333 4 0 6-2.644-1.742-5.644-2.409-9-2v29c2.62.268 5.12-.065 7.5-1 2.612 1.537 3.112 3.537 1.5 6-2.662-1.768-5.662-2.435-9-2v28c2.56.302 4.893-.032 7-1l2 1c1.295 1.872 1.128 3.538-.5 5-2.72-.944-5.552-1.277-8.5-1v30h-4v-30c-2.888-.51-5.221.156-7 2-3.299-1.401-3.632-3.235-1-5.5a32.462 32.462 0 0 1 8-.5v-28c-2.894-.458-5.394.209-7.5 2-3.333-2-3.333-4 0-6 2.38.935 4.88 1.268 7.5 1v-29c-2.888-.51-5.221.156-7 2-3.299-1.401-3.632-3.235-1-5.5a32.437 32.437 0 0 1 8-.5v-28c-2.894-.458-5.394.209-7.5 2-3.333-2-3.333-4 0-6 2.38.935 4.88 1.268 7.5 1v-29c-2.894-.458-5.394.209-7.5 2-3.333-2-3.333-4 0-6 2.38.935 4.88 1.268 7.5 1v-23h4v23c2.62.268 5.12-.065 7.5-1 2.612 1.537 3.112 3.537 1.5 6z"/><path style="opacity:1" fill="#cb0000" d="M99.5 168.5h1c.06.543.393.876 1 1a131.26 131.26 0 0 0 .5-28c-6.44.939-9.94 4.606-10.5 11h-6v-26c1.7-.16 3.366.006 5 .5.822 4.179 3.156 7.012 7 8.5.992-.172 1.658.162 2 1 .709.904 1.709 1.237 3 1v-28c-3.182.084-5.515 1.417-7 4-3.09 1.165-4.424 3.498-4 7h-6v-26c1.7-.16 3.366.007 5 .5.553 1.878 1.553 3.378 3 4.5.333 2.333 1.667 3.667 4 4 1.28 1.431 2.947 2.098 5 2v-28c-3.182.084-5.515 1.417-7 4-3.09 1.165-4.424 3.498-4 7h-6v-26c1.7-.16 3.366.007 5 .5 1.149 4.98 4.149 8.147 9 9.5.709.904 1.709 1.237 3 1 .166-9.34 0-18.673-.5-28-6.44.94-9.94 4.606-10.5 11h-6v-26c1.7-.16 3.366.006 5 .5.822 4.178 3.156 7.012 7 8.5.992-.172 1.658.162 2 1 .672.767 1.505 1.434 2.5 2 .5-9.66.666-19.328.5-29-3.182.084-5.515 1.417-7 4-3.09 1.165-4.424 3.498-4 7h-6v-21h76c.167 39.668 0 79.335-.5 119-7.402 32.738-27.235 53.904-59.5 63.5a62.268 62.268 0 0 1-16 1.5v-29h6c.08 5.413 2.747 8.746 8 10z"/><path style="opacity:1" fill="#0c0702" d="M99.5 40.5c1.193-.47 1.86-1.47 2-3l-1-3a186.2 186.2 0 0 1-3 2c.01-1.517.677-2.684 2-3.5-.88-.708-1.547-1.542-2-2.5 2.606 1.589 3.94.755 4-2.5.222-2.275-.778-3.441-3-3.5 1.098-.897 1.098-1.73 0-2.5 2.645-1.287 3.645-3.453 3-6.5-2.203.104-4.203.77-6 2 1.485-2.583 3.818-3.916 7-4 .166 9.672 0 19.34-.5 29-.995-.566-1.828-1.233-2.5-2z"/><path style="opacity:1" d="M38.5 36.5c6.516 1.77 13.183 2.436 20 2v-22a132.64 132.64 0 0 0-18 1c.417-.722 1.084-1.222 2-1.5 5.657-.5 11.324-.666 17-.5v24c-5.676.166-11.343 0-17-.5-1.82-.2-3.153-1.034-4-2.5zM124.5 17.5a132.645 132.645 0 0 0-18-1v22h15c-5.14.988-10.474 1.321-16 1v-24c5.344-.166 10.677 0 16 .5 1.237.232 2.237.732 3 1.5z"/><path style="opacity:1" fill="#fe9900" d="M38.5 36.5c-.333-1-1-1.667-2-2-.16-1.653-.826-2.986-2-4v-5c1.174-1.014 1.84-2.347 2-4 .838-.342 1.172-1.008 1-2 1.527.073 2.527-.594 3-2a132.64 132.64 0 0 1 18-1v22c-6.817.436-13.484-.23-20-2zM124.5 17.5a2506.82 2506.82 0 0 1 6 7v6c-1.174 1.014-1.84 2.347-2 4-1.333 0-2 .667-2 2-1.903.296-3.57.962-5 2h-15v-22c6.029-.075 12.029.259 18 1z"/><path style="opacity:1" d="M40.5 17.5c-.473 1.406-1.473 2.073-3 2 .473-1.406 1.473-2.073 3-2zM124.5 17.5c3.446 1.112 5.446 3.445 6 7a2506.82 2506.82 0 0 0-6-7z"/><path style="opacity:1" fill="#f59303" d="M71.5 19.5c1.765 3.037 1.099 5.37-2 7-2.528-1.994-4.36-3.994-5.5-6-.493-1.634-.66-3.3-.5-5a22.584 22.584 0 0 1 8 4z"/><path style="opacity:1" fill="#ed8e06" d="M98.5 24.5c.172.992-.162 1.658-1 2-2.821.184-4.488-1.15-5-4 .76-1.86 1.76-3.527 3-5 1.797-1.23 3.797-1.896 6-2 .645 3.047-.355 5.213-3 6.5 1.098.77 1.098 1.603 0 2.5z"/><path style="opacity:1" d="M36.5 21.5c-.16 1.653-.826 2.986-2 4-.343-1.983.324-3.317 2-4z"/><path style="opacity:1" fill="#fe9900" d="M67.5 30.5c-1.347.671-2.514.671-3.5 0-.923-6.447.577-7.28 4.5-2.5-.752.67-1.086 1.504-1 2.5zM98.5 24.5c2.222.059 3.222 1.225 3 3.5-.06 3.255-1.394 4.089-4 2.5-.905-1.464-.905-2.798 0-4 .838-.342 1.172-1.008 1-2z"/><path style="opacity:1" d="M130.5 24.5a21.627 21.627 0 0 0 4 3 21.627 21.627 0 0 0-4 3v-6zM34.5 26.5v2c-5.333-.667-5.333-1.333 0-2z"/><path style="opacity:1" fill="#f89502" d="M72.5 34.5c-.838.342-1.172 1.008-1 2-1.322.17-2.489-.163-3.5-1-.617.95-.45 1.782.5 2.5a81.718 81.718 0 0 0-3 2.5c-1.808-1.418-2.475-3.418-2-6a4.932 4.932 0 0 0 3-.5l-1-1c1.256-.417 1.923-1.25 2-2.5 2.624-.423 4.29.91 5 4z"/><path style="opacity:1" d="M93.5 31.5c-.901 3.139.432 4.805 4 5-1.333 1-1.333 2 0 3-3.844-1.488-6.178-4.322-7-8.5-1.634-.494-3.3-.66-5-.5v26h6c-1.779 1.843-4.112 2.51-7 2v-29c3.338-.435 6.338.232 9 2z"/><path style="opacity:1" fill="#fe9900" d="M97.5 30.5c.453.958 1.12 1.792 2 2.5-1.323.816-1.99 1.983-2 3.5-3.568-.195-4.901-1.861-4-5 1.205-1.638 2.538-1.97 4-1z"/><path style="opacity:1" d="M34.5 30.5c1.174 1.014 1.84 2.347 2 4-1.604-.787-2.27-2.12-2-4zM130.5 30.5c.271 1.88-.396 3.213-2 4 .16-1.653.826-2.986 2-4z"/><path style="opacity:1" fill="#fe9900" d="M99.5 40.5c-.342-.838-1.008-1.172-2-1-1.333-1-1.333-2 0-3a186.2 186.2 0 0 0 3-2l1 3c-.14 1.53-.807 2.53-2 3z"/><path style="opacity:1" d="M128.5 34.5c0 1.333-.667 2-2 2 0-1.333.667-2 2-2zM71.5 36.5c-1.208 2.544-3.208 3.877-6 4 .93-.815 1.93-1.648 3-2.5-.95-.718-1.117-1.55-.5-2.5 1.011.837 2.178 1.17 3.5 1zM126.5 36.5c-1.135 1.713-2.802 2.38-5 2 1.43-1.038 3.097-1.704 5-2z"/><path style="opacity:1" fill="#050301" d="M99.5 72.5c-4.851-1.353-7.851-4.52-9-9.5-1.634-.493-3.3-.66-5-.5v26h6c-.424-3.502.91-5.835 4-7-2.5 2.298-3.166 4.965-2 8h-9v-28c3.338-.435 6.338.232 9 2 .007 5.811 2.007 6.311 6 1.5-.88-.708-1.547-1.542-2-2.5 2.606 1.588 3.94.755 4-2.5.222-2.275-.778-3.441-3-3.5.97-1.462.638-2.795-1-4 1.347.671 2.514.671 3.5 0 .494-1.634.66-3.3.5-5-2.589-.039-4.589.961-6 3-1.842 1.69-3.175 3.69-4 6 .56-6.394 4.06-10.06 10.5-11 .5 9.327.666 18.66.5 28-1.291.237-2.291-.096-3-1z"/><path style="opacity:1" d="M38.5 68.5c6.623.88 13.29 1.213 20 1v-21c-6.83-.435-13.496.231-20 2 1.1-1.059 2.434-1.892 4-2.5 5.657-.5 11.324-.666 17-.5v23c-6.342.166-12.675 0-19-.5-.916-.278-1.583-.778-2-1.5z"/><path style="opacity:1" fill="#fe9900" d="M69.5 50.5c-1.333 0-2 .667-2 2-1.347.671-2.514.671-3.5 0-.493-1.634-.66-3.3-.5-5 2.589-.039 4.589.961 6 3zM97.5 52.5c0-1.333-.667-2-2-2 1.411-2.039 3.411-3.039 6-3a12.93 12.93 0 0 1-.5 5c-.986.671-2.153.671-3.5 0z"/><path style="opacity:1" d="M121.5 48.5h-15v21c6.711.213 13.377-.12 20-1-.418.722-1.084 1.222-2 1.5-6.325.5-12.658.666-19 .5v-23c5.526-.321 10.86.012 16 1z"/><path style="opacity:1" fill="#fe9900" d="M38.5 68.5c-.333-1-1-1.667-2-2 .098-2.053-.569-3.72-2-5v-4c1.431-1.28 2.098-2.947 2-5 1.333 0 2-.667 2-2 6.504-1.769 13.17-2.435 20-2v21c-6.71.213-13.377-.12-20-1zM121.5 48.5a36.082 36.082 0 0 0 7 4c.16 1.653.826 2.986 2 4v6c-1.174 1.014-1.84 2.347-2 4-1.333 0-2 .667-2 2a122.205 122.205 0 0 1-20 1v-21h15z"/><path style="opacity:1" d="M121.5 48.5c3.114.055 5.448 1.388 7 4a36.082 36.082 0 0 1-7-4zM38.5 50.5c0 1.333-.667 2-2 2 .333-1 1-1.667 2-2zM69.5 50.5c-.333 1-1 1.667-2 2 0-1.333.667-2 2-2z"/><path style="opacity:1" fill="#fe9900" d="M69.5 50.5c3.808 2.727 3.808 5.394 0 8a186.2 186.2 0 0 0-3-2c-.11-.617-.444-1.117-1-1.5 1.256-.417 1.923-1.25 2-2.5 1-.333 1.667-1 2-2z"/><path style="opacity:1" d="M95.5 50.5c1.333 0 2 .667 2 2-1-.333-1.667-1-2-2zM36.5 52.5c.098 2.053-.569 3.72-2 5-.098-2.053.569-3.72 2-5zM128.5 52.5c1.604.787 2.271 2.12 2 4-1.174-1.014-1.84-2.347-2-4z"/><path style="opacity:1" fill="#fe9900" d="M66.5 56.5c.01 1.517.677 2.684 2 3.5-.752.67-1.086 1.504-1 2.5-1.347.671-2.514.671-3.5 0a18.436 18.436 0 0 1-.5-6h3z"/><path style="opacity:1" d="M98.5 56.5c-.01 1.517-.677 2.684-2 3.5.752.67 1.086 1.504 1 2.5-1.462-.97-2.795-.638-4 1 1.126-2 1.293-4 .5-6 1.71 1.081 3.21.748 4.5-1z"/><path style="opacity:1" fill="#fe9900" d="M98.5 56.5c2.222.059 3.222 1.225 3 3.5-.06 3.255-1.394 4.088-4 2.5.086-.996-.248-1.83-1-2.5 1.323-.816 1.99-1.983 2-3.5z"/><path style="opacity:1" d="M130.5 56.5a21.627 21.627 0 0 0 4 3 21.627 21.627 0 0 0-4 3v-6zM34.5 58.5v2c-5.333-.667-5.333-1.333 0-2zM34.5 61.5c1.431 1.28 2.098 2.947 2 5-1.431-1.28-2.098-2.947-2-5z"/><path style="opacity:1" fill="#f89402" d="M72.5 66.5c-2.333 1-4 2.667-5 5-.992-.172-1.658.162-2 1-1.808-1.418-2.475-3.418-2-6 1.322-.17 2.489.163 3.5 1-.526-1.728-.36-3.394.5-5 2.624-.423 4.29.91 5 4z"/><path style="opacity:1" fill="#fe9900" d="M97.5 62.5c.453.958 1.12 1.792 2 2.5-3.993 4.811-5.993 4.311-6-1.5 1.205-1.638 2.538-1.97 4-1z"/><path style="opacity:1" d="M130.5 62.5c.271 1.88-.396 3.213-2 4 .16-1.653.826-2.986 2-4zM72.5 66.5c-.667 2.667-2.333 4.333-5 5 1-2.333 2.667-4 5-5z"/><path style="opacity:1" fill="#fe9900" d="M99.5 72.5c-.558-1.29-1.558-2.123-3-2.5a19.894 19.894 0 0 1 4-3.5l1 3c-.14 1.53-.807 2.53-2 3z"/><path style="opacity:1" d="M128.5 66.5c0 1.333-.667 2-2 2 0-1.333.667-2 2-2z"/><path style="opacity:1" fill="#0d0702" d="M97.5 103.5c1.322-.17 2.489.163 3.5 1 .667-2 .667-4 0-6-.383-.556-.883-.89-1.5-1-1.158-1.45-.658-2.45 1.5-3 .667-1.667.667-3.333 0-5-.986-.671-2.153-.671-3.5 0 .453-.958 1.12-1.792 2-2.5l-1-1c2.645-1.287 3.645-3.453 3-6.5-2.203.104-4.203.77-6 2 1.485-2.583 3.818-3.916 7-4v28c-2.053.098-3.72-.569-5-2z"/><path style="opacity:1" d="M40.5 101.5h18v-20c-7.177-.502-14.177.165-21 2 1.249-1.636 2.916-2.803 5-3.5 5.657-.5 11.324-.666 17-.5v24a145.05 145.05 0 0 1-17-.5c-.916-.278-1.583-.778-2-1.5zM130.5 88.5c-1.809-2.64-4.142-4.806-7-6.5-5.657-.5-11.324-.666-17-.5v20h18c-.763.768-1.763 1.268-3 1.5-5.323.499-10.656.666-16 .5v-24c6.425-.37 12.758.13 19 1.5 3.357 1.513 5.357 4.013 6 7.5z"/><path style="opacity:1" fill="#fe9900" d="M40.5 101.5c-.473-1.406-1.473-2.073-3-2 .172-.992-.162-1.658-1-2-.16-1.653-.826-2.986-2-4v-4c1.174-1.014 1.84-2.347 2-4 .838-.342 1.172-1.008 1-2 6.823-1.835 13.823-2.502 21-2v20h-18zM130.5 88.5v6a2506.82 2506.82 0 0 1-6 7h-18v-20c5.676-.166 11.343 0 17 .5 2.858 1.694 5.191 3.86 7 6.5z"/><path style="opacity:1" fill="#f89502" d="M71.5 83.5c1.765 3.037 1.099 5.37-2 7-2.833-1.316-3.666-3.316-2.5-6-1 1.333-2 1.333-3 0-.493-1.634-.66-3.3-.5-5a22.584 22.584 0 0 1 8 4z"/><path style="opacity:1" fill="#f59303" d="M97.5 89.5c-1.333 1.333-2.667 1.333-4 0-1.166-3.035-.5-5.702 2-8 1.797-1.23 3.797-1.896 6-2 .645 3.047-.355 5.213-3 6.5l1 1c-.88.708-1.547 1.542-2 2.5z"/><path style="opacity:1" d="M36.5 85.5c-.16 1.653-.826 2.986-2 4-.27-1.88.396-3.213 2-4z"/><path style="opacity:1" fill="#fe9900" d="M66.5 95.5c-.996.086-1.83-.248-2.5-1-.97-6.396.53-7.23 4.5-2.5-1.323.816-1.99 1.983-2 3.5z"/><path style="opacity:1" d="M130.5 88.5a21.627 21.627 0 0 0 4 3 21.627 21.627 0 0 0-4 3v-6zM93.5 89.5c1.333 1.333 2.667 1.333 4 0-1.105 1.653-1.271 3.32-.5 5l-1-1c-.708.88-1.542 1.547-2.5 2 1.333-2 1.333-4 0-6zM34.5 90.5v3c-5.138-1.5-5.138-2.5 0-3zM34.5 93.5c1.174 1.014 1.84 2.347 2 4-1.676-.683-2.343-2.017-2-4z"/><path style="opacity:1" fill="#fe9900" d="M67.5 99.5c0-1.333-.667-2-2-2l1-2c2.298-2.36 4.298-1.86 6 1.5-.8 3.02-2.467 3.854-5 2.5z"/><path style="opacity:1" fill="#010100" d="M73.5 159.5c.237 1.291-.096 2.291-1 3-3.256-6.561-5.09-6.227-5.5 1-1.011-.837-2.178-1.17-3.5-1-.295 2.235.039 4.235 1 6-.06.543-.393.876-1 1a131.226 131.226 0 0 1-.5-28c5.826.99 9.66 4.323 11.5 10 1.545.952 3.212 1.285 5 1v-26c-3.432-.373-5.766.96-7 4-.71-3.09-2.376-4.423-5-4-.086-.996.248-1.829 1-2.5a11.115 11.115 0 0 1-3-4.5c1.433 1.453 3.1 2.287 5 2.5 2.334-1.842 2.668-4.009 1-6.5 1.685.684 2.685 2.017 3 4 1.545.952 3.212 1.285 5 1v-26c-2.12-.175-4.12.159-6 1 1.779-1.844 4.112-2.51 7-2v29c-2.62.268-5.12-.065-7.5-1-3.333 2-3.333 4 0 6 2.106-1.791 4.606-2.458 7.5-2v28a32.462 32.462 0 0 0-8 .5c-2.632 2.265-2.299 4.099 1 5.5z"/><path style="opacity:1" d="M93.5 95.5c-.905 1.202-.905 2.536 0 4-1.447-1.122-2.447-2.622-3-4.5-1.634-.493-3.3-.66-5-.5v26h6c-.424-3.502.91-5.835 4-7-3.088 2.619-3.421 5.452-1 8.5a4.934 4.934 0 0 0 3 .5c-.905 1.202-.905 2.536 0 4-1.462-.971-2.795-.638-4 1 1.612-2.463 1.112-4.463-1.5-6-2.38.935-4.88 1.268-7.5 1v-29c3.356-.409 6.356.258 9 2z"/><path style="opacity:1" fill="#fb9601" d="M99.5 97.5a493.061 493.061 0 0 0-4 3 44.043 44.043 0 0 0-2-1c-.905-1.464-.905-2.798 0-4 .958-.453 1.792-1.12 2.5-2l1 1c-.771-1.68-.605-3.347.5-5 1.347-.671 2.514-.671 3.5 0 .667 1.667.667 3.333 0 5-2.158.55-2.658 1.55-1.5 3z"/><path style="opacity:1" d="M130.5 94.5c-.554 3.555-2.554 5.888-6 7a2506.82 2506.82 0 0 0 6-7z"/><path style="opacity:1" fill="#fe9900" d="M65.5 97.5c.333 1 1 1.667 2 2 .905 1.464.905 2.798 0 4-1.322-.17-2.489.163-3.5 1-.667-2-.667-4 0-6 .383-.556.883-.89 1.5-1z"/><path style="opacity:1" d="M65.5 97.5c1.333 0 2 .667 2 2-1-.333-1.667-1-2-2zM99.5 97.5c-.359 1.871-1.359 3.371-3 4.5.556.383.89.883 1 1.5-2.333-.333-3.667-1.667-4-4 .65.304 1.317.637 2 1a493.061 493.061 0 0 1 4-3z"/><path style="opacity:1" fill="#fe9900" d="M99.5 97.5c.617.11 1.117.444 1.5 1 .667 2 .667 4 0 6-1.011-.837-2.178-1.17-3.5-1-.11-.617-.444-1.117-1-1.5 1.641-1.129 2.641-2.629 3-4.5z"/><path style="opacity:1" d="M37.5 99.5c1.527-.073 2.527.594 3 2-1.527.073-2.527-.594-3-2z"/><path style="opacity:1" fill="#0d0702" d="M71.5 115.5c-2.115-2.391-4.781-3.724-8-4-.645 3.047.355 5.213 3 6.5-.556.383-.89.883-1 1.5-.617.111-1.117.444-1.5 1-.667 2-.667 4 0 6 .986.671 2.153.671 3.5 0-.077 1.25-.744 2.083-2 2.5l1 1a4.934 4.934 0 0 1-3 .5c-.475 2.582.192 4.582 2 6-.709.904-1.709 1.237-3 1v-28c4.277.291 7.277 2.291 9 6z"/><path style="opacity:1" fill="#0c0702" d="M99.5 136.5c1.193-.47 1.86-1.47 2-3l-1-3a184.223 184.223 0 0 1-3 2c.01-1.517.677-2.684 2-3.5-.88-.708-1.547-1.542-2-2.5 2.606 1.588 3.94.755 4-2.5.222-2.275-.778-3.441-3-3.5 1.098-.897 1.098-1.73 0-2.5 2.645-1.287 3.645-3.453 3-6.5-2.203.104-4.203.77-6 2 1.485-2.583 3.818-3.916 7-4v28c-1.291.237-2.291-.096-3-1z"/><path style="opacity:1" d="M40.5 133.5a102.076 102.076 0 0 0 18 1v-22c-6.03-.075-12.03.259-18 1 .417-.722 1.084-1.222 2-1.5a145.05 145.05 0 0 1 17-.5v24a145.05 145.05 0 0 1-17-.5c-.916-.278-1.583-.778-2-1.5zM124.5 113.5a132.596 132.596 0 0 0-18-1v22h15c-5.14.988-10.474 1.321-16 1v-24c5.344-.166 10.677.001 16 .5 1.237.232 2.237.732 3 1.5z"/><path style="opacity:1" fill="#fe9900" d="M40.5 133.5a310.678 310.678 0 0 0-4-3c-.16-1.653-.826-2.986-2-4v-5c1.174-1.014 1.84-2.347 2-4 .838-.342 1.172-1.008 1-2 1.527.073 2.527-.594 3-2 5.97-.741 11.97-1.075 18-1v22a102.076 102.076 0 0 1-18-1zM124.5 113.5c2.029 2.358 4.029 4.692 6 7v6c-1.174 1.014-1.84 2.347-2 4-1.333 0-2 .667-2 2-1.903.296-3.57.963-5 2h-15v-22c6.029-.075 12.029.259 18 1z"/><path style="opacity:1" d="M40.5 113.5c-.473 1.406-1.473 2.073-3 2 .473-1.406 1.473-2.073 3-2zM124.5 113.5c3.446 1.112 5.446 3.445 6 7a2464.252 2464.252 0 0 0-6-7z"/><path style="opacity:1" fill="#f59303" d="M71.5 115.5c1.668 2.491 1.334 4.658-1 6.5-1.9-.213-3.567-1.047-5-2.5.11-.617.444-1.117 1-1.5-2.645-1.287-3.645-3.453-3-6.5 3.219.276 5.885 1.609 8 4z"/><path style="opacity:1" fill="#ed8e06" d="M98.5 120.5c.172.992-.162 1.658-1 2a4.934 4.934 0 0 1-3-.5c-2.421-3.048-2.088-5.881 1-8.5 1.797-1.23 3.797-1.896 6-2 .645 3.047-.355 5.213-3 6.5 1.098.77 1.098 1.603 0 2.5z"/><path style="opacity:1" fill="#fefffe" d="M-.5 117.5c7.23 39.897 30.564 64.564 70 74h-70v-74z"/><path style="opacity:1" d="M36.5 117.5c-.16 1.653-.826 2.986-2 4-.343-1.983.324-3.317 2-4z"/><path style="opacity:1" fill="#fe9900" d="M65.5 119.5a11.115 11.115 0 0 0 3 4.5c-.752.671-1.086 1.504-1 2.5-1.347.671-2.514.671-3.5 0-.667-2-.667-4 0-6 .383-.556.883-.889 1.5-1z"/><path style="opacity:1" fill="#fefffe" d="M165.5 119.5v72h-70a157.946 157.946 0 0 0 25-8.5 179.617 179.617 0 0 0 15-10c16.39-14.284 26.39-32.117 30-53.5z"/><path style="opacity:1" fill="#fe9900" d="M98.5 120.5c2.222.059 3.222 1.225 3 3.5-.06 3.255-1.394 4.088-4 2.5-.905-1.464-.905-2.798 0-4 .838-.342 1.172-1.008 1-2z"/><path style="opacity:1" d="M130.5 120.5a21.662 21.662 0 0 0 4 3 21.662 21.662 0 0 0-4 3v-6zM34.5 122.5v2c-5.333-.667-5.333-1.333 0-2z"/><path style="opacity:1" fill="#f89502" d="M72.5 130.5c-.838.342-1.172 1.008-1 2-1.322.17-2.489-.163-3.5-1-.617.949-.45 1.782.5 2.5a81.819 81.819 0 0 0-3 2.5c-1.808-1.418-2.475-3.418-2-6a4.934 4.934 0 0 0 3-.5l-1-1c1.256-.417 1.923-1.25 2-2.5 2.624-.423 4.29.91 5 4z"/><path style="opacity:1" d="M93.5 127.5c-.901 3.139.432 4.805 4 5-1.333 1-1.333 2 0 3-3.844-1.488-6.178-4.321-7-8.5a12.93 12.93 0 0 0-5-.5v26h6c-2.107.968-4.44 1.302-7 1v-28c3.338-.435 6.338.232 9 2z"/><path style="opacity:1" fill="#fe9900" d="M97.5 126.5c.453.958 1.12 1.792 2 2.5-1.323.816-1.99 1.983-2 3.5-3.568-.195-4.901-1.861-4-5 1.205-1.638 2.538-1.971 4-1z"/><path style="opacity:1" d="M34.5 126.5c1.174 1.014 1.84 2.347 2 4-1.604-.787-2.27-2.12-2-4zM130.5 126.5c.271 1.88-.396 3.213-2 4 .16-1.653.826-2.986 2-4z"/><path style="opacity:1" fill="#fe9900" d="M99.5 136.5c-.342-.838-1.008-1.172-2-1-1.333-1-1.333-2 0-3 .982-.641 1.982-1.307 3-2l1 3c-.14 1.53-.807 2.53-2 3z"/><path style="opacity:1" d="M128.5 130.5c0 1.333-.667 2-2 2 0-1.333.667-2 2-2zM71.5 132.5c-1.208 2.544-3.208 3.878-6 4 .93-.815 1.93-1.648 3-2.5-.95-.718-1.117-1.551-.5-2.5 1.011.837 2.178 1.17 3.5 1zM38.5 164.5c6.623.88 13.29 1.213 20 1v-21c-6.83-.435-13.496.231-20 2 1.1-1.058 2.434-1.892 4-2.5a145.05 145.05 0 0 1 17-.5v23c-6.342.166-12.675 0-19-.5-.916-.278-1.583-.778-2-1.5z"/><path style="opacity:1" fill="#fe9900" d="M69.5 146.5c-1.333 0-2 .667-2 2-1.347.671-2.514.671-3.5 0a12.935 12.935 0 0 1-.5-5c2.589-.039 4.589.961 6 3zM97.5 148.5c0-1.333-.667-2-2-2 1.411-2.039 3.411-3.039 6-3a12.93 12.93 0 0 1-.5 5c-.986.671-2.153.671-3.5 0z"/><path style="opacity:1" d="M121.5 144.5h-15v21c5.676.166 11.343-.001 17-.5a19.177 19.177 0 0 1 5-2.5c-.843 1.673-2.176 2.84-4 3.5-6.325.5-12.658.666-19 .5v-23c5.526-.321 10.86.012 16 1z"/><path style="opacity:1" fill="#fe9900" d="M38.5 164.5c0-1.333-.667-2-2-2 .098-2.053-.569-3.72-2-5v-4c1.431-1.28 2.098-2.947 2-5 1-.333 1.667-1 2-2 6.504-1.769 13.17-2.435 20-2v21c-6.71.213-13.377-.12-20-1zM121.5 144.5c1.28 1.431 2.947 2.098 5 2 0 1.333.667 2 2 2 .16 1.653.826 2.986 2 4v6c-1.174 1.014-1.84 2.347-2 4a19.177 19.177 0 0 0-5 2.5c-5.657.499-11.324.666-17 .5v-21h15z"/><path style="opacity:1" d="M121.5 144.5c2.053-.098 3.72.569 5 2-2.053.098-3.72-.569-5-2zM69.5 146.5c-.333 1-1 1.667-2 2 0-1.333.667-2 2-2z"/><path style="opacity:1" fill="#fe9900" d="M69.5 146.5c3.808 2.727 3.808 5.394 0 8a184.223 184.223 0 0 0-3-2c-.11-.617-.444-1.117-1-1.5 1.256-.417 1.923-1.25 2-2.5 1-.333 1.667-1 2-2z"/><path style="opacity:1" fill="#f99502" d="M95.5 146.5c.333 1 1 1.667 2 2 .565 2.614 1.898 5.114 4 7.5-.06 3.255-1.394 4.088-4 2.5-1.105-1.653-1.271-3.32-.5-5-1.145 1.184-2.312 1.184-3.5 0-1.39-2.895-.723-5.229 2-7z"/><path style="opacity:1" d="M95.5 146.5c1.333 0 2 .667 2 2-1-.333-1.667-1-2-2zM126.5 146.5c1.333 0 2 .667 2 2 0-1.333-.667-2-2-2zM36.5 148.5c.098 2.053-.569 3.72-2 5-.098-2.053.569-3.72 2-5zM128.5 148.5c1.604.787 2.271 2.12 2 4-1.174-1.014-1.84-2.347-2-4z"/><path style="opacity:1" fill="#fe9900" d="M66.5 152.5c.01 1.517.677 2.684 2 3.5-4.341 4.556-6.008 3.39-5-3.5h3z"/><path style="opacity:1" d="M130.5 152.5a21.662 21.662 0 0 0 4 3 21.662 21.662 0 0 0-4 3v-6zM34.5 154.5v2c-5.333-.667-5.333-1.333 0-2zM34.5 157.5c1.431 1.28 2.098 2.947 2 5-1.431-1.28-2.098-2.947-2-5z"/><path style="opacity:1" fill="#f89402" d="M72.5 162.5c-2.333 1-4 2.667-5 5a5.727 5.727 0 0 0-3 1c-.961-1.765-1.295-3.765-1-6 1.322-.17 2.489.163 3.5 1 .41-7.227 2.244-7.561 5.5-1z"/><path style="opacity:1" fill="#fe9900" d="M97.5 158.5c2.312 2.509 1.645 4.509-2 6-1.345-.847-2.345-2.013-3-3.5 1.328-2.29 2.995-3.124 5-2.5z"/><path style="opacity:1" d="M130.5 158.5c.271 1.88-.396 3.213-2 4 .16-1.653.826-2.986 2-4zM36.5 162.5c1.333 0 2 .667 2 2-1-.333-1.667-1-2-2zM72.5 162.5c-.667 2.667-2.333 4.333-5 5 1-2.333 2.667-4 5-5z"/><path style="opacity:1" fill="#fe9900" d="M100.5 168.5h-1c-.558-1.29-1.558-2.123-3-2.5 4.319-4.63 5.652-3.796 4 2.5z"/></svg>